pid,taskRunCount,taskID,taskName,i,channel,pitch,velocity,microseconds
1,0,Ticks_Pract_8,0,5,42,127,80379208
901,0,Ticks_Pract_8,1,5,42,127,81178892
901,0,Ticks_Pract_8,2,5,42,127,81978820
901,0,Ticks_Pract_8,3,5,42,127,82778424
901,0,Ticks_Pract_8,4,5,42,127,83579228
901,0,Ticks_Pract_8,5,1,48,33,83593416
901,0,Ticks_Pract_8,6,1,48,40,84326180
901,0,Ticks_Pract_8,7,5,42,127,84379028
901,0,Ticks_Pract_8,8,1,48,39,85144316
901,0,Ticks_Pract_8,9,5,42,127,85178836
901,0,Ticks_Pract_8,10,1,48,37,85945476
901,0,Ticks_Pract_8,11,5,42,127,85978348
901,0,Ticks_Pract_8,12,1,48,40,86724792
901,0,Ticks_Pract_8,13,5,42,127,86779276
901,0,Ticks_Pract_8,14,1,48,41,87512556
901,0,Ticks_Pract_8,15,5,42,127,87578936
901,0,Ticks_Pract_8,16,1,48,36,88354176
901,0,Ticks_Pract_8,17,5,42,127,88378844
901,0,Ticks_Pract_8,18,1,48,41,89173680
901,0,Ticks_Pract_8,19,5,42,127,89178428
901,0,Ticks_Pract_8,20,5,42,127,89979144
901,0,Ticks_Pract_8,21,1,48,32,89982780
901,0,Ticks_Pract_8,22,1,48,38,90758268
901,0,Ticks_Pract_8,23,5,42,127,90778944
901,0,Ticks_Pract_8,24,1,48,36,91512592
901,0,Ticks_Pract_8,25,5,42,127,91578676
901,0,Ticks_Pract_8,26,1,48,33,92361100
901,0,Ticks_Pract_8,27,5,42,127,92378412
901,0,Ticks_Pract_8,28,1,48,35,93172424
901,0,Ticks_Pract_8,29,5,42,127,93179192
901,0,Ticks_Pract_8,30,5,42,127,93979080
901,0,Ticks_Pract_8,31,1,48,31,94008704
901,0,Ticks_Pract_8,32,5,42,127,94778840
901,0,Ticks_Pract_8,33,1,48,38,94799460
901,0,Ticks_Pract_8,34,1,48,37,95564468
901,0,Ticks_Pract_8,35,5,42,127,95578492
901,0,Ticks_Pract_8,36,1,48,35,96365700
901,0,Ticks_Pract_8,37,5,42,127,96379348
901,0,Ticks_Pract_8,38,1,48,38,97137912
901,0,Ticks_Pract_8,39,5,42,127,97178860
901,0,Ticks_Pract_8,40,1,48,35,97921116
901,0,Ticks_Pract_8,41,5,42,127,97978892
901,0,Ticks_Pract_8,42,1,48,29,98744256
901,0,Ticks_Pract_8,43,5,42,127,98778624
901,0,Ticks_Pract_8,44,1,48,36,99571516
901,0,Ticks_Pract_8,45,5,42,127,99579256
901,0,Ticks_Pract_8,46,1,48,31,100368560
901,0,Ticks_Pract_8,47,5,42,127,100378840
901,0,Ticks_Pract_8,48,1,48,32,101145704
901,0,Ticks_Pract_8,49,5,42,127,101178896
901,0,Ticks_Pract_8,50,1,48,34,101950172
901,0,Ticks_Pract_8,51,5,42,127,101978556
901,0,Ticks_Pract_8,52,1,48,43,102754472
901,0,Ticks_Pract_8,53,5,42,127,102779188
901,0,Ticks_Pract_8,54,1,48,37,103511048
901,0,Ticks_Pract_8,55,5,42,127,103578924
901,0,Ticks_Pract_8,56,1,48,32,104306436
901,0,Ticks_Pract_8,0,9999,9999,9999,80376920
901,0,Ticks_Pract_8,1,9999,9999,9999,81176676
901,0,Ticks_Pract_8,2,9999,9999,9999,81976384
901,0,Ticks_Pract_8,3,9999,9999,9999,82776136
901,0,Ticks_Pract_8,4,9999,9999,9999,83576940
901,0,Ticks_Pract_8,5,9999,9999,9999,84376664
901,0,Ticks_Pract_8,6,9999,9999,9999,85176400
901,0,Ticks_Pract_8,7,9999,9999,9999,85976136
901,0,Ticks_Pract_8,8,9999,9999,9999,86776912
901,0,Ticks_Pract_8,9,9999,9999,9999,87576648
901,0,Ticks_Pract_8,10,9999,9999,9999,88376408
901,0,Ticks_Pract_8,11,9999,9999,9999,89176144
901,0,Ticks_Pract_8,12,9999,9999,9999,89976928
901,0,Ticks_Pract_8,13,9999,9999,9999,90776656
901,0,Ticks_Pract_8,14,9999,9999,9999,91576388
901,0,Ticks_Pract_8,15,9999,9999,9999,92376124
901,0,Ticks_Pract_8,16,9999,9999,9999,93176904
901,0,Ticks_Pract_8,17,9999,9999,9999,93976644
901,0,Ticks_Pract_8,18,9999,9999,9999,94776400
901,0,Ticks_Pract_8,19,9999,9999,9999,95576128
901,0,Ticks_Pract_8,20,9999,9999,9999,96376912
901,0,Ticks_Pract_8,21,9999,9999,9999,97176644
901,0,Ticks_Pract_8,22,9999,9999,9999,97976380
901,0,Ticks_Pract_8,23,9999,9999,9999,98776112
901,0,Ticks_Pract_8,24,9999,9999,9999,99576896
901,0,Ticks_Pract_8,25,9999,9999,9999,100376628
901,0,Ticks_Pract_8,26,9999,9999,9999,101176388
901,0,Ticks_Pract_8,27,9999,9999,9999,101976120
901,0,Ticks_Pract_8,28,9999,9999,9999,102776900
901,0,Ticks_Pract_8,29,9999,9999,9999,103576636
902,1,Ticks_Pract_5,0,5,42,127,142374232
902,1,Ticks_Pract_5,1,5,42,127,142874000
902,1,Ticks_Pract_5,2,5,42,127,143373640
902,1,Ticks_Pract_5,3,5,42,127,143874404
902,1,Ticks_Pract_5,4,5,42,127,144374196
902,1,Ticks_Pract_5,5,1,48,45,144443984
902,1,Ticks_Pract_5,6,1,48,42,144864872
902,1,Ticks_Pract_5,7,5,42,127,144874032
902,1,Ticks_Pract_5,8,1,48,41,145356784
902,1,Ticks_Pract_5,9,5,42,127,145373504
902,1,Ticks_Pract_5,10,1,48,41,145821032
902,1,Ticks_Pract_5,11,5,42,127,145874320
902,1,Ticks_Pract_5,12,1,48,41,146346972
902,1,Ticks_Pract_5,13,5,42,127,146373940
902,1,Ticks_Pract_5,14,1,48,42,146834704
902,1,Ticks_Pract_5,15,5,42,127,146873632
902,1,Ticks_Pract_5,16,1,48,45,147348312
902,1,Ticks_Pract_5,17,5,42,127,147373552
902,1,Ticks_Pract_5,18,1,48,46,147859528
902,1,Ticks_Pract_5,19,5,42,127,147874144
902,1,Ticks_Pract_5,20,1,48,39,148345980
902,1,Ticks_Pract_5,21,5,42,127,148373840
902,1,Ticks_Pract_5,22,1,48,38,148833412
902,1,Ticks_Pract_5,23,5,42,127,148873532
902,1,Ticks_Pract_5,24,1,48,43,149365712
902,1,Ticks_Pract_5,25,5,42,127,149374276
902,1,Ticks_Pract_5,26,1,48,43,149859428
902,1,Ticks_Pract_5,27,5,42,127,149874044
902,1,Ticks_Pract_5,28,1,48,37,150339000
902,1,Ticks_Pract_5,29,5,42,127,150373664
902,1,Ticks_Pract_5,30,1,48,44,150864200
902,1,Ticks_Pract_5,31,5,42,127,150873360
902,1,Ticks_Pract_5,32,5,42,127,151374180
902,1,Ticks_Pract_5,33,1,48,45,151375516
902,1,Ticks_Pract_5,34,1,48,44,151873196
902,1,Ticks_Pract_5,35,5,42,127,151874916
902,1,Ticks_Pract_5,36,5,42,127,152373496
902,1,Ticks_Pract_5,37,1,48,43,152384392
902,1,Ticks_Pract_5,38,5,42,127,152874312
902,1,Ticks_Pract_5,39,1,48,43,152893888
902,1,Ticks_Pract_5,40,5,42,127,153374056
902,1,Ticks_Pract_5,41,1,48,40,153377128
902,1,Ticks_Pract_5,42,5,42,127,153873824
902,1,Ticks_Pract_5,43,1,48,42,153887340
902,1,Ticks_Pract_5,44,1,48,40,154362856
902,1,Ticks_Pract_5,45,5,42,127,154373440
902,1,Ticks_Pract_5,46,1,48,43,154847672
902,1,Ticks_Pract_5,47,5,42,127,154874108
902,1,Ticks_Pract_5,48,5,42,127,155374032
902,1,Ticks_Pract_5,49,1,48,40,155374996
902,1,Ticks_Pract_5,50,1,48,42,155853564
902,1,Ticks_Pract_5,51,5,42,127,155873496
902,1,Ticks_Pract_5,52,1,48,36,156350268
902,1,Ticks_Pract_5,53,5,42,127,156374388
902,1,Ticks_Pract_5,54,1,48,36,156858192
902,1,Ticks_Pract_5,55,5,42,127,156874080
902,1,Ticks_Pract_5,56,5,42,127,157373932
902,1,Ticks_Pract_5,57,1,48,35,157394480
902,1,Ticks_Pract_5,58,5,42,127,157873404
902,1,Ticks_Pract_5,59,1,48,36,157890208
902,1,Ticks_Pract_5,60,5,42,127,158374220
902,1,Ticks_Pract_5,61,1,48,33,158401420
902,1,Ticks_Pract_5,62,5,42,127,158873988
902,1,Ticks_Pract_5,63,1,48,39,158886380
902,1,Ticks_Pract_5,64,1,48,40,159366164
902,1,Ticks_Pract_5,65,5,42,127,159373600
902,1,Ticks_Pract_5,66,1,48,42,159872228
902,1,Ticks_Pract_5,67,5,42,127,159874416
902,1,Ticks_Pract_5,68,5,42,127,160374264
902,1,Ticks_Pract_5,69,1,48,38,160386368
902,1,Ticks_Pract_5,70,5,42,127,160873964
902,1,Ticks_Pract_5,71,1,48,34,160874928
902,1,Ticks_Pract_5,72,1,48,36,161371000
902,1,Ticks_Pract_5,73,5,42,127,161373652
902,1,Ticks_Pract_5,74,5,42,127,161874176
902,1,Ticks_Pract_5,75,1,48,33,161883052
902,1,Ticks_Pract_5,76,1,48,41,162360068
902,1,Ticks_Pract_5,0,9999,9999,9999,142371948
902,1,Ticks_Pract_5,1,9999,9999,9999,142871640
902,1,Ticks_Pract_5,2,9999,9999,9999,143371356
902,1,Ticks_Pract_5,3,9999,9999,9999,143872120
902,1,Ticks_Pract_5,4,9999,9999,9999,144371832
902,1,Ticks_Pract_5,5,9999,9999,9999,144871524
902,1,Ticks_Pract_5,6,9999,9999,9999,145371220
902,1,Ticks_Pract_5,7,9999,9999,9999,145871956
902,1,Ticks_Pract_5,8,9999,9999,9999,146371652
902,1,Ticks_Pract_5,9,9999,9999,9999,146871348
902,1,Ticks_Pract_5,10,9999,9999,9999,147371116
902,1,Ticks_Pract_5,11,9999,9999,9999,147871856
902,1,Ticks_Pract_5,12,9999,9999,9999,148371552
902,1,Ticks_Pract_5,13,9999,9999,9999,148871248
902,1,Ticks_Pract_5,14,9999,9999,9999,149371988
902,1,Ticks_Pract_5,15,9999,9999,9999,149871684
902,1,Ticks_Pract_5,16,9999,9999,9999,150371376
902,1,Ticks_Pract_5,17,9999,9999,9999,150871148
902,1,Ticks_Pract_5,18,9999,9999,9999,151371896
902,1,Ticks_Pract_5,19,9999,9999,9999,151871588
902,1,Ticks_Pract_5,20,9999,9999,9999,152371284
902,1,Ticks_Pract_5,21,9999,9999,9999,152872024
902,1,Ticks_Pract_5,22,9999,9999,9999,153371768
902,1,Ticks_Pract_5,23,9999,9999,9999,153871464
902,1,Ticks_Pract_5,24,9999,9999,9999,154371152
902,1,Ticks_Pract_5,25,9999,9999,9999,154871896
902,1,Ticks_Pract_5,26,9999,9999,9999,155371596
902,1,Ticks_Pract_5,27,9999,9999,9999,155871284
902,1,Ticks_Pract_5,28,9999,9999,9999,156372028
902,1,Ticks_Pract_5,29,9999,9999,9999,156871796
902,1,Ticks_Pract_5,30,9999,9999,9999,157371496
902,1,Ticks_Pract_5,31,9999,9999,9999,157871192
902,1,Ticks_Pract_5,32,9999,9999,9999,158371932
902,1,Ticks_Pract_5,33,9999,9999,9999,158871628
902,1,Ticks_Pract_5,34,9999,9999,9999,159371316
902,1,Ticks_Pract_5,35,9999,9999,9999,159872092
902,1,Ticks_Pract_5,36,9999,9999,9999,160371832
902,1,Ticks_Pract_5,37,9999,9999,9999,160871528
902,1,Ticks_Pract_5,38,9999,9999,9999,161371216
902,1,Ticks_Pract_5,39,9999,9999,9999,161871964
903,2,T1_SMS_8,0,5,42,127,250430808
903,2,T1_SMS_8,1,5,42,127,251230712
903,2,T1_SMS_8,2,5,42,127,252031292
903,2,T1_SMS_8,3,1,48,26,252088716
903,2,T1_SMS_8,4,1,48,33,252800916
903,2,T1_SMS_8,5,5,42,127,252830944
903,2,T1_SMS_8,6,1,48,30,253585616
903,2,T1_SMS_8,7,5,42,127,253630828
903,2,T1_SMS_8,8,1,48,30,254360596
903,2,T1_SMS_8,9,5,42,127,254430564
903,2,T1_SMS_8,10,5,42,127,255231276
903,2,T1_SMS_8,11,1,48,25,255257660
903,2,T1_SMS_8,12,5,42,127,256031032
903,2,T1_SMS_8,13,1,48,30,256080824
903,2,T1_SMS_8,14,5,42,127,256830916
903,2,T1_SMS_8,15,1,48,33,256870088
903,2,T1_SMS_8,16,1,48,36,257611608
903,2,T1_SMS_8,17,5,42,127,257630864
903,2,T1_SMS_8,18,1,48,32,258390032
903,2,T1_SMS_8,19,5,42,127,258431272
903,2,T1_SMS_8,20,1,48,34,259200752
903,2,T1_SMS_8,21,5,42,127,259231008
903,2,T1_SMS_8,22,1,48,30,260013428
903,2,T1_SMS_8,23,5,42,127,260030744
903,2,T1_SMS_8,24,1,48,25,260802316
903,2,T1_SMS_8,25,5,42,127,260830696
903,2,T1_SMS_8,26,1,48,23,261618580
903,2,T1_SMS_8,27,5,42,127,261631476
903,2,T1_SMS_8,28,1,48,27,262387728
903,2,T1_SMS_8,29,5,42,127,262431012
903,2,T1_SMS_8,30,1,48,40,263186784
903,2,T1_SMS_8,31,5,42,127,263230744
903,2,T1_SMS_8,32,1,48,31,264013240
903,2,T1_SMS_8,33,5,42,127,264030628
903,2,T1_SMS_8,34,5,42,127,264831412
903,2,T1_SMS_8,35,1,48,32,264835580
903,2,T1_SMS_8,36,5,42,127,265631000
903,2,T1_SMS_8,37,1,48,35,265656484
903,2,T1_SMS_8,38,5,42,127,266430808
903,2,T1_SMS_8,39,1,48,35,266437592
903,2,T1_SMS_8,40,1,48,29,267214120
903,2,T1_SMS_8,41,5,42,127,267230684
903,2,T1_SMS_8,42,1,48,31,268006000
903,2,T1_SMS_8,43,5,42,127,268031316
903,2,T1_SMS_8,44,1,48,30,268789056
903,2,T1_SMS_8,45,5,42,127,268831076
903,2,T1_SMS_8,46,1,48,31,269602276
903,2,T1_SMS_8,47,5,42,127,269630884
903,2,T1_SMS_8,48,1,48,30,270416148
903,2,T1_SMS_8,49,5,42,127,270430616
903,2,T1_SMS_8,50,1,48,31,271197260
903,2,T1_SMS_8,51,5,42,127,271231468
903,2,T1_SMS_8,52,5,42,127,272031284
903,2,T1_SMS_8,53,1,48,24,272065144
903,2,T1_SMS_8,54,5,42,127,272830868
903,2,T1_SMS_8,55,1,48,33,272851564
903,2,T1_SMS_8,56,1,48,31,273591740
903,2,T1_SMS_8,57,5,42,127,273630520
903,2,T1_SMS_8,58,1,48,35,274392148
903,2,T1_SMS_8,59,5,42,127,274431596
903,2,T1_SMS_8,60,1,48,30,275180960
903,2,T1_SMS_8,61,5,42,127,275231056
903,2,T1_SMS_8,62,1,48,33,275990792
903,2,T1_SMS_8,63,5,42,127,276030864
903,2,T1_SMS_8,64,1,48,33,276829396
903,2,T1_SMS_8,65,5,42,127,276830968
903,2,T1_SMS_8,66,5,42,127,277631532
903,2,T1_SMS_8,67,1,48,35,277639960
903,2,T1_SMS_8,68,5,42,127,278430968
903,2,T1_SMS_8,69,1,48,30,278433560
903,2,T1_SMS_8,70,5,42,127,279230776
903,2,T1_SMS_8,71,1,48,26,279260448
903,2,T1_SMS_8,72,5,42,127,280030584
903,2,T1_SMS_8,73,1,48,28,280060256
903,2,T1_SMS_8,74,5,42,127,280831436
903,2,T1_SMS_8,75,1,48,33,280849444
903,2,T1_SMS_8,76,5,42,127,281631272
903,2,T1_SMS_8,77,1,48,34,281648528
903,2,T1_SMS_8,78,5,42,127,282430780
903,2,T1_SMS_8,79,1,48,34,282439136
903,2,T1_SMS_8,80,1,48,32,283216484
903,2,T1_SMS_8,81,5,42,127,283230508
903,2,T1_SMS_8,82,1,48,36,283987724
903,2,T1_SMS_8,83,5,42,127,284031288
903,2,T1_SMS_8,84,1,48,35,284810192
903,2,T1_SMS_8,85,5,42,127,284831320
903,2,T1_SMS_8,86,1,48,29,285616056
903,2,T1_SMS_8,87,5,42,127,285630756
903,2,T1_SMS_8,88,1,48,36,286389840
903,2,T1_SMS_8,89,5,42,127,286430564
903,2,T1_SMS_8,90,5,42,127,287231276
903,2,T1_SMS_8,91,1,48,35,287245984
903,2,T1_SMS_8,92,5,42,127,288031260
903,2,T1_SMS_8,93,1,48,33,288041708
903,2,T1_SMS_8,94,1,48,32,288804100
903,2,T1_SMS_8,95,5,42,127,288830836
903,2,T1_SMS_8,96,1,48,31,289574436
903,2,T1_SMS_8,97,5,42,127,289630644
903,2,T1_SMS_8,98,1,48,32,290398780
903,2,T1_SMS_8,99,5,42,127,290431348
903,2,T1_SMS_8,100,1,48,30,291182576
903,2,T1_SMS_8,101,5,42,127,291231156
903,2,T1_SMS_8,102,1,48,34,292010512
903,2,T1_SMS_8,103,5,42,127,292030888
903,2,T1_SMS_8,104,1,48,36,292802088
903,2,T1_SMS_8,105,5,42,127,292830548
903,2,T1_SMS_8,106,5,42,127,293631336
903,2,T1_SMS_8,107,1,48,34,293637672
903,2,T1_SMS_8,108,5,42,127,294431240
903,2,T1_SMS_8,109,1,48,30,294435932
903,2,T1_SMS_8,110,1,48,30,295194208
903,2,T1_SMS_8,111,5,42,127,295230968
903,2,T1_SMS_8,112,1,48,29,296015936
903,2,T1_SMS_8,113,5,42,127,296030552
903,2,T1_SMS_8,114,1,48,26,296830208
903,2,T1_SMS_8,115,5,42,127,296831852
903,2,T1_SMS_8,116,1,48,30,297623476
903,2,T1_SMS_8,117,5,42,127,297631068
903,2,T1_SMS_8,118,1,48,30,298412516
903,2,T1_SMS_8,119,5,42,127,298430804
903,2,T1_SMS_8,120,1,48,27,299211576
903,2,T1_SMS_8,121,5,42,127,299230460
903,2,T1_SMS_8,122,1,48,31,299970544
903,2,T1_SMS_8,123,5,42,127,300031464
903,2,T1_SMS_8,124,1,48,25,300828196
903,2,T1_SMS_8,125,5,42,127,300831072
903,2,T1_SMS_8,126,5,42,127,301630888
903,2,T1_SMS_8,127,1,48,30,301659888
903,2,T1_SMS_8,128,1,48,32,302424152
903,2,T1_SMS_8,129,5,42,127,302430540
903,2,T1_SMS_8,130,1,48,30,303225748
903,2,T1_SMS_8,131,5,42,127,303231248
903,2,T1_SMS_8,132,1,48,30,304026984
903,2,T1_SMS_8,133,5,42,127,304031204
903,2,T1_SMS_8,134,1,48,32,304806812
903,2,T1_SMS_8,135,5,42,127,304830936
903,2,T1_SMS_8,136,1,48,30,305595180
903,2,T1_SMS_8,137,5,42,127,305630444
903,2,T1_SMS_8,138,1,48,37,306395288
903,2,T1_SMS_8,139,5,42,127,306431300
903,2,T1_SMS_8,140,5,42,127,307231212
903,2,T1_SMS_8,141,1,48,33,307232700
903,2,T1_SMS_8,142,1,48,32,308023276
903,2,T1_SMS_8,143,5,42,127,308030868
903,2,T1_SMS_8,144,5,42,127,308830608
903,2,T1_SMS_8,145,1,48,28,308840684
903,2,T1_SMS_8,146,5,42,127,309631388
903,2,T1_SMS_8,147,1,48,29,309655896
903,2,T1_SMS_8,148,1,48,33,310418892
903,2,T1_SMS_8,149,5,42,127,310431264
903,2,T1_SMS_8,150,1,48,38,311218400
903,2,T1_SMS_8,151,5,42,127,311230920
903,2,T1_SMS_8,152,1,48,36,312019700
903,2,T1_SMS_8,153,5,42,127,312030508
903,2,T1_SMS_8,154,5,42,127,312831292
903,2,T1_SMS_8,155,1,48,37,312845028
903,2,T1_SMS_8,156,5,42,127,313631048
903,2,T1_SMS_8,157,1,48,34,313632088
903,2,T1_SMS_8,158,1,48,31,314398736
903,2,T1_SMS_8,159,5,42,127,314431000
903,2,T1_SMS_8,160,1,48,36,315166000
903,2,T1_SMS_8,161,5,42,127,315230512
903,2,T1_SMS_8,162,1,48,30,316014424
903,2,T1_SMS_8,163,5,42,127,316031216
903,2,T1_SMS_8,164,5,42,127,316831032
903,2,T1_SMS_8,165,1,48,28,316834076
903,2,T1_SMS_8,166,5,42,127,317631064
903,2,T1_SMS_8,167,1,48,32,317647948
903,2,T1_SMS_8,168,5,42,127,318430648
903,2,T1_SMS_8,169,1,48,20,318497296
903,2,T1_SMS_8,170,5,42,127,319231204
903,2,T1_SMS_8,171,1,48,27,319266132
903,2,T1_SMS_8,172,5,42,127,320031036
903,2,T1_SMS_8,173,1,48,29,320036840
903,2,T1_SMS_8,174,1,48,35,320796996
903,2,T1_SMS_8,175,5,42,127,320831208
903,2,T1_SMS_8,176,1,48,29,321584832
903,2,T1_SMS_8,177,5,42,127,321630644
903,2,T1_SMS_8,178,1,48,32,322373572
903,2,T1_SMS_8,179,5,42,127,322431276
903,2,T1_SMS_8,180,1,48,33,323183632
903,2,T1_SMS_8,181,5,42,127,323231084
903,2,T1_SMS_8,182,1,48,31,324024428
903,2,T1_SMS_8,183,5,42,127,324030820
903,2,T1_SMS_8,184,1,48,27,324812564
903,2,T1_SMS_8,185,5,42,127,324830552
903,2,T1_SMS_8,186,1,48,27,325614092
903,2,T1_SMS_8,187,5,42,127,325631408
903,2,T1_SMS_8,188,1,48,31,326418392
903,2,T1_SMS_8,189,5,42,127,326431016
903,2,T1_SMS_8,190,1,48,31,327178780
903,2,T1_SMS_8,191,5,42,127,327230896
903,2,T1_SMS_8,192,5,42,127,328030784
903,2,T1_SMS_8,193,1,48,32,328054100
903,2,T1_SMS_8,194,1,48,26,328822928
903,2,T1_SMS_8,195,5,42,127,328831484
903,2,T1_SMS_8,196,1,48,30,329626248
903,2,T1_SMS_8,197,5,42,127,329631072
903,2,T1_SMS_8,198,5,42,127,330430736
903,2,T1_SMS_8,199,1,48,27,330431700
903,2,T1_SMS_8,200,5,42,127,331230764
903,2,T1_SMS_8,201,1,48,29,331236508
903,2,T1_SMS_8,202,5,42,127,332031324
903,2,T1_SMS_8,203,1,48,26,332040428
903,2,T1_SMS_8,204,1,48,29,332824056
903,2,T1_SMS_8,205,5,42,127,332830972
903,2,T1_SMS_8,206,1,48,33,333619604
903,2,T1_SMS_8,207,5,42,127,333630856
903,2,T1_SMS_8,208,1,48,31,334421284
903,2,T1_SMS_8,209,5,42,127,334430664
903,2,T1_SMS_8,210,5,42,127,335231300
903,2,T1_SMS_8,211,1,48,33,335243916
903,2,T1_SMS_8,212,1,48,34,336013116
903,2,T1_SMS_8,213,5,42,127,336030956
903,2,T1_SMS_8,214,5,42,127,336830768
903,2,T1_SMS_8,215,1,48,30,336841744
903,2,T1_SMS_8,216,1,48,30,337602484
903,2,T1_SMS_8,217,5,42,127,337630496
903,2,T1_SMS_8,218,1,48,28,338390328
903,2,T1_SMS_8,219,5,42,127,338431424
903,2,T1_SMS_8,220,1,48,29,339188488
903,2,T1_SMS_8,221,5,42,127,339231108
903,2,T1_SMS_8,222,1,48,27,340003356
903,2,T1_SMS_8,223,5,42,127,340030768
903,2,T1_SMS_8,224,5,42,127,340830656
903,2,T1_SMS_8,225,1,48,27,340849108
903,2,T1_SMS_8,226,1,48,29,341626752
903,2,T1_SMS_8,227,5,42,127,341631356
903,2,T1_SMS_8,228,1,48,28,342386776
903,2,T1_SMS_8,229,5,42,127,342431012
903,2,T1_SMS_8,230,1,48,26,343158088
903,2,T1_SMS_8,231,5,42,127,343230748
903,2,T1_SMS_8,232,5,42,127,344030636
903,2,T1_SMS_8,233,1,48,24,344121892
903,2,T1_SMS_8,234,5,42,127,344831196
903,2,T1_SMS_8,235,1,48,29,344851216
903,2,T1_SMS_8,236,5,42,127,345631028
903,2,T1_SMS_8,237,1,48,33,345654864
903,2,T1_SMS_8,0,9999,9999,9999,250428520
903,2,T1_SMS_8,1,9999,9999,9999,251228276
903,2,T1_SMS_8,2,9999,9999,9999,252029004
903,2,T1_SMS_8,3,9999,9999,9999,252828732
903,2,T1_SMS_8,4,9999,9999,9999,253628464
903,2,T1_SMS_8,5,9999,9999,9999,254428276
903,2,T1_SMS_8,6,9999,9999,9999,255228988
903,2,T1_SMS_8,7,9999,9999,9999,256028744
903,2,T1_SMS_8,8,9999,9999,9999,256828480
903,2,T1_SMS_8,9,9999,9999,9999,257628204
903,2,T1_SMS_8,10,9999,9999,9999,258428988
903,2,T1_SMS_8,11,9999,9999,9999,259228720
903,2,T1_SMS_8,12,9999,9999,9999,260028528
903,2,T1_SMS_8,13,9999,9999,9999,260828260
903,2,T1_SMS_8,14,9999,9999,9999,261629040
903,2,T1_SMS_8,15,9999,9999,9999,262428728
903,2,T1_SMS_8,16,9999,9999,9999,263228532
903,2,T1_SMS_8,17,9999,9999,9999,264028264
903,2,T1_SMS_8,18,9999,9999,9999,264828976
903,2,T1_SMS_8,19,9999,9999,9999,265628784
903,2,T1_SMS_8,20,9999,9999,9999,266428520
903,2,T1_SMS_8,21,9999,9999,9999,267228248
903,2,T1_SMS_8,22,9999,9999,9999,268029028
903,2,T1_SMS_8,23,9999,9999,9999,268828788
903,2,T1_SMS_8,24,9999,9999,9999,269628520
903,2,T1_SMS_8,25,9999,9999,9999,270428256
903,2,T1_SMS_8,26,9999,9999,9999,271229032
903,2,T1_SMS_8,27,9999,9999,9999,272028772
903,2,T1_SMS_8,28,9999,9999,9999,272828504
903,2,T1_SMS_8,29,9999,9999,9999,273628232
903,2,T1_SMS_8,30,9999,9999,9999,274429012
903,2,T1_SMS_8,31,9999,9999,9999,275228768
903,2,T1_SMS_8,32,9999,9999,9999,276028504
903,2,T1_SMS_8,33,9999,9999,9999,276828240
903,2,T1_SMS_8,34,9999,9999,9999,277629020
903,2,T1_SMS_8,35,9999,9999,9999,278428756
903,2,T1_SMS_8,36,9999,9999,9999,279228488
903,2,T1_SMS_8,37,9999,9999,9999,280028220
903,2,T1_SMS_8,38,9999,9999,9999,280829000
903,2,T1_SMS_8,39,9999,9999,9999,281628760
903,2,T1_SMS_8,40,9999,9999,9999,282428492
903,2,T1_SMS_8,41,9999,9999,9999,283228220
903,2,T1_SMS_8,42,9999,9999,9999,284029000
903,2,T1_SMS_8,43,9999,9999,9999,284828732
903,2,T1_SMS_8,44,9999,9999,9999,285628468
903,2,T1_SMS_8,45,9999,9999,9999,286428276
903,2,T1_SMS_8,46,9999,9999,9999,287228988
903,2,T1_SMS_8,47,9999,9999,9999,288028748
903,2,T1_SMS_8,48,9999,9999,9999,288828472
903,2,T1_SMS_8,49,9999,9999,9999,289628208
903,2,T1_SMS_8,50,9999,9999,9999,290428988
903,2,T1_SMS_8,51,9999,9999,9999,291228720
903,2,T1_SMS_8,52,9999,9999,9999,292028528
903,2,T1_SMS_8,53,9999,9999,9999,292828260
903,2,T1_SMS_8,54,9999,9999,9999,293629048
903,2,T1_SMS_8,55,9999,9999,9999,294428732
903,2,T1_SMS_8,56,9999,9999,9999,295228532
903,2,T1_SMS_8,57,9999,9999,9999,296028264
903,2,T1_SMS_8,58,9999,9999,9999,296828976
903,2,T1_SMS_8,59,9999,9999,9999,297628780
903,2,T1_SMS_8,60,9999,9999,9999,298428516
903,2,T1_SMS_8,61,9999,9999,9999,299228248
903,2,T1_SMS_8,62,9999,9999,9999,300029028
903,2,T1_SMS_8,63,9999,9999,9999,300828784
903,2,T1_SMS_8,64,9999,9999,9999,301628528
903,2,T1_SMS_8,65,9999,9999,9999,302428256
903,2,T1_SMS_8,66,9999,9999,9999,303229032
903,2,T1_SMS_8,67,9999,9999,9999,304028768
903,2,T1_SMS_8,68,9999,9999,9999,304828500
903,2,T1_SMS_8,69,9999,9999,9999,305628232
903,2,T1_SMS_8,70,9999,9999,9999,306429012
903,2,T1_SMS_8,71,9999,9999,9999,307228776
903,2,T1_SMS_8,72,9999,9999,9999,308028504
903,2,T1_SMS_8,73,9999,9999,9999,308828244
903,2,T1_SMS_8,74,9999,9999,9999,309629024
903,2,T1_SMS_8,75,9999,9999,9999,310428752
903,2,T1_SMS_8,76,9999,9999,9999,311228484
903,2,T1_SMS_8,77,9999,9999,9999,312028220
903,2,T1_SMS_8,78,9999,9999,9999,312829004
903,2,T1_SMS_8,79,9999,9999,9999,313628760
903,2,T1_SMS_8,80,9999,9999,9999,314428492
903,2,T1_SMS_8,81,9999,9999,9999,315228224
903,2,T1_SMS_8,82,9999,9999,9999,316029004
903,2,T1_SMS_8,83,9999,9999,9999,316828744
903,2,T1_SMS_8,84,9999,9999,9999,317628476
903,2,T1_SMS_8,85,9999,9999,9999,318428208
903,2,T1_SMS_8,86,9999,9999,9999,319228988
903,2,T1_SMS_8,87,9999,9999,9999,320028748
903,2,T1_SMS_8,88,9999,9999,9999,320828472
903,2,T1_SMS_8,89,9999,9999,9999,321628208
903,2,T1_SMS_8,90,9999,9999,9999,322428988
903,2,T1_SMS_8,91,9999,9999,9999,323228720
903,2,T1_SMS_8,92,9999,9999,9999,324028528
903,2,T1_SMS_8,93,9999,9999,9999,324828264
903,2,T1_SMS_8,94,9999,9999,9999,325629044
903,2,T1_SMS_8,95,9999,9999,9999,326428728
903,2,T1_SMS_8,96,9999,9999,9999,327228536
903,2,T1_SMS_8,97,9999,9999,9999,328028276
903,2,T1_SMS_8,98,9999,9999,9999,328828972
903,2,T1_SMS_8,99,9999,9999,9999,329628784
903,2,T1_SMS_8,100,9999,9999,9999,330428524
903,2,T1_SMS_8,101,9999,9999,9999,331228256
903,2,T1_SMS_8,102,9999,9999,9999,332029036
903,2,T1_SMS_8,103,9999,9999,9999,332828760
903,2,T1_SMS_8,104,9999,9999,9999,333628496
903,2,T1_SMS_8,105,9999,9999,9999,334428228
903,2,T1_SMS_8,106,9999,9999,9999,335229012
903,2,T1_SMS_8,107,9999,9999,9999,336028740
903,2,T1_SMS_8,108,9999,9999,9999,336828480
903,2,T1_SMS_8,109,9999,9999,9999,337628208
903,2,T1_SMS_8,110,9999,9999,9999,338428988
903,2,T1_SMS_8,111,9999,9999,9999,339228748
903,2,T1_SMS_8,112,9999,9999,9999,340028480
903,2,T1_SMS_8,113,9999,9999,9999,340828220
903,2,T1_SMS_8,114,9999,9999,9999,341628992
903,2,T1_SMS_8,115,9999,9999,9999,342428724
903,2,T1_SMS_8,116,9999,9999,9999,343228532
903,2,T1_SMS_8,117,9999,9999,9999,344028276
903,2,T1_SMS_8,118,9999,9999,9999,344828980
903,2,T1_SMS_8,119,9999,9999,9999,345628740
904,4,T1_SMS_5,0,5,42,127,409075008
904,4,T1_SMS_5,1,5,42,127,409574948
904,4,T1_SMS_5,2,1,48,19,410064528
904,4,T1_SMS_5,3,5,42,127,410074660
904,4,T1_SMS_5,4,1,48,32,410556524
904,4,T1_SMS_5,5,5,42,127,410575176
904,4,T1_SMS_5,6,1,48,27,411057712
904,4,T1_SMS_5,7,5,42,127,411074872
904,4,T1_SMS_5,8,5,42,127,411574720
904,4,T1_SMS_5,9,1,48,30,411581660
904,4,T1_SMS_5,10,1,48,26,412058748
904,4,T1_SMS_5,11,5,42,127,412075384
904,4,T1_SMS_5,12,1,48,25,412551856
904,4,T1_SMS_5,13,5,42,127,412575004
904,4,T1_SMS_5,14,1,48,29,413056936
904,4,T1_SMS_5,15,5,42,127,413074772
904,4,T1_SMS_5,16,1,48,30,413562464
904,4,T1_SMS_5,17,5,42,127,413574468
904,4,T1_SMS_5,18,1,48,30,414047652
904,4,T1_SMS_5,19,5,42,127,414075208
904,4,T1_SMS_5,20,1,48,29,414532912
904,4,T1_SMS_5,21,5,42,127,414574980
904,4,T1_SMS_5,22,1,48,35,415054968
904,4,T1_SMS_5,23,5,42,127,415074748
904,4,T1_SMS_5,24,1,48,36,415548832
904,4,T1_SMS_5,25,5,42,127,415575268
904,4,T1_SMS_5,26,1,48,35,416064832
904,4,T1_SMS_5,27,5,42,127,416075036
904,4,T1_SMS_5,28,1,48,38,416557644
904,4,T1_SMS_5,29,5,42,127,416574804
904,4,T1_SMS_5,30,1,48,37,417054716
904,4,T1_SMS_5,31,5,42,127,417074648
904,4,T1_SMS_5,32,1,48,38,417538088
904,4,T1_SMS_5,33,5,42,127,417575168
904,4,T1_SMS_5,34,1,48,34,418056408
904,4,T1_SMS_5,35,5,42,127,418074936
904,4,T1_SMS_5,36,1,48,30,418553108
904,4,T1_SMS_5,37,5,42,127,418574680
904,4,T1_SMS_5,38,1,48,29,419030808
904,4,T1_SMS_5,39,5,42,127,419074524
904,4,T1_SMS_5,40,1,48,27,419558856
904,4,T1_SMS_5,41,5,42,127,419575044
904,4,T1_SMS_5,42,1,48,29,420046056
904,4,T1_SMS_5,43,5,42,127,420074888
904,4,T1_SMS_5,44,1,48,34,420550460
904,4,T1_SMS_5,45,5,42,127,420574728
904,4,T1_SMS_5,46,1,48,30,421072524
904,4,T1_SMS_5,47,5,42,127,421075176
904,4,T1_SMS_5,48,1,48,27,421572144
904,4,T1_SMS_5,49,5,42,127,421574944
904,4,T1_SMS_5,50,1,48,25,422062120
904,4,T1_SMS_5,51,5,42,127,422074640
904,4,T1_SMS_5,52,1,48,24,422554632
904,4,T1_SMS_5,53,5,42,127,422574560
904,4,T1_SMS_5,54,1,48,29,423049988
904,4,T1_SMS_5,55,5,42,127,423075228
904,4,T1_SMS_5,56,1,48,28,423570704
904,4,T1_SMS_5,57,5,42,127,423574924
904,4,T1_SMS_5,58,5,42,127,424074700
904,4,T1_SMS_5,59,1,48,32,424083728
904,4,T1_SMS_5,60,5,42,127,424575588
904,4,T1_SMS_5,61,1,48,29,424590752
904,4,T1_SMS_5,62,5,42,127,425075060
904,4,T1_SMS_5,63,1,48,29,425081472
904,4,T1_SMS_5,64,1,48,29,425568360
904,4,T1_SMS_5,65,5,42,127,425574672
904,4,T1_SMS_5,66,5,42,127,426074596
904,4,T1_SMS_5,67,1,48,30,426092152
904,4,T1_SMS_5,68,1,48,28,426562812
904,4,T1_SMS_5,69,5,42,127,426575260
904,4,T1_SMS_5,70,1,48,29,427068188
904,4,T1_SMS_5,71,5,42,127,427074952
904,4,T1_SMS_5,72,1,48,26,427558532
904,4,T1_SMS_5,73,5,42,127,427574572
904,4,T1_SMS_5,74,1,48,28,428057784
904,4,T1_SMS_5,75,5,42,127,428075612
904,4,T1_SMS_5,76,1,48,30,428559020
904,4,T1_SMS_5,77,5,42,127,428575084
904,4,T1_SMS_5,78,1,48,26,429063428
904,4,T1_SMS_5,79,5,42,127,429074752
904,4,T1_SMS_5,80,1,48,27,429571276
904,4,T1_SMS_5,81,5,42,127,429574596
904,4,T1_SMS_5,82,1,48,30,430040080
904,4,T1_SMS_5,83,5,42,127,430075116
904,4,T1_SMS_5,84,1,48,27,430566096
904,4,T1_SMS_5,85,5,42,127,430574884
904,4,T1_SMS_5,86,1,48,29,431057788
904,4,T1_SMS_5,87,5,42,127,431074580
904,4,T1_SMS_5,88,1,48,21,431553968
904,4,T1_SMS_5,89,5,42,127,431575840
904,4,T1_SMS_5,90,1,48,28,432025616
904,4,T1_SMS_5,91,5,42,127,432075240
904,4,T1_SMS_5,92,1,48,30,432560316
904,4,T1_SMS_5,93,5,42,127,432574856
904,4,T1_SMS_5,94,5,42,127,433074560
904,4,T1_SMS_5,95,1,48,30,433077608
904,4,T1_SMS_5,96,1,48,32,433563068
904,4,T1_SMS_5,97,5,42,127,433575516
904,4,T1_SMS_5,98,5,42,127,434074848
904,4,T1_SMS_5,99,1,48,30,434075812
904,4,T1_SMS_5,100,1,48,29,434570012
904,4,T1_SMS_5,101,5,42,127,434574760
904,4,T1_SMS_5,102,1,48,25,435074608
904,4,T1_SMS_5,103,5,42,127,435075872
904,4,T1_SMS_5,104,1,48,32,435561552
904,4,T1_SMS_5,105,5,42,127,435575120
904,4,T1_SMS_5,106,1,48,30,436066932
904,4,T1_SMS_5,107,5,42,127,436074964
904,4,T1_SMS_5,108,5,42,127,436574740
904,4,T1_SMS_5,109,1,48,32,436575704
904,4,T1_SMS_5,110,5,42,127,437075260
904,4,T1_SMS_5,111,1,48,33,437087432
904,4,T1_SMS_5,112,1,48,27,437556516
904,4,T1_SMS_5,113,5,42,127,437574944
904,4,T1_SMS_5,114,1,48,26,438063316
904,4,T1_SMS_5,115,5,42,127,438074716
904,4,T1_SMS_5,116,1,48,26,438571016
904,4,T1_SMS_5,117,5,42,127,438574708
904,4,T1_SMS_5,118,1,48,24,439055192
904,4,T1_SMS_5,119,5,42,127,439075076
904,4,T1_SMS_5,120,5,42,127,439574780
904,4,T1_SMS_5,121,1,48,28,439576340
904,4,T1_SMS_5,122,5,42,127,440074604
904,4,T1_SMS_5,123,1,48,30,440087172
904,4,T1_SMS_5,124,1,48,29,440571044
904,4,T1_SMS_5,125,5,42,127,440575412
904,4,T1_SMS_5,126,5,42,127,441075040
904,4,T1_SMS_5,127,1,48,31,441085488
904,4,T1_SMS_5,128,1,48,27,441555172
904,4,T1_SMS_5,129,5,42,127,441574724
904,4,T1_SMS_5,130,1,48,30,442047312
904,4,T1_SMS_5,131,5,42,127,442074572
904,4,T1_SMS_5,132,1,48,28,442538628
904,4,T1_SMS_5,133,5,42,127,442575088
904,4,T1_SMS_5,134,1,48,28,443042508
904,4,T1_SMS_5,135,5,42,127,443074784
904,4,T1_SMS_5,136,1,48,28,443533976
904,4,T1_SMS_5,137,5,42,127,443574628
904,4,T1_SMS_5,138,1,48,22,444059180
904,4,T1_SMS_5,139,5,42,127,444075368
904,4,T1_SMS_5,140,1,48,27,444553188
904,4,T1_SMS_5,141,5,42,127,444575140
904,4,T1_SMS_5,142,5,42,127,445074692
904,4,T1_SMS_5,143,1,48,29,445077816
904,4,T1_SMS_5,144,5,42,127,445574536
904,4,T1_SMS_5,145,1,48,24,445595452
904,4,T1_SMS_5,146,1,48,27,446016292
904,4,T1_SMS_5,147,5,42,127,446075344
904,4,T1_SMS_5,148,5,42,127,446575048
904,4,T1_SMS_5,149,1,48,20,446576608
904,4,T1_SMS_5,150,5,42,127,447074592
904,4,T1_SMS_5,151,1,48,28,447105984
904,4,T1_SMS_5,152,1,48,28,447563928
904,4,T1_SMS_5,153,5,42,127,447575328
904,4,T1_SMS_5,154,5,42,127,448075252
904,4,T1_SMS_5,155,1,48,24,448077856
904,4,T1_SMS_5,156,5,42,127,448574800
904,4,T1_SMS_5,157,1,48,24,448589216
904,4,T1_SMS_5,158,1,48,25,449013616
904,4,T1_SMS_5,159,5,42,127,449074636
904,4,T1_SMS_5,160,1,48,28,449571980
904,4,T1_SMS_5,161,5,42,127,449575376
904,4,T1_SMS_5,162,1,48,29,450053548
904,4,T1_SMS_5,163,5,42,127,450075000
904,4,T1_SMS_5,164,1,48,26,450539032
904,4,T1_SMS_5,165,5,42,127,450574668
904,4,T1_SMS_5,166,1,48,23,451057352
904,4,T1_SMS_5,167,5,42,127,451074584
904,4,T1_SMS_5,168,1,48,21,451547324
904,4,T1_SMS_5,169,5,42,127,451575252
904,4,T1_SMS_5,170,1,48,29,452034148
904,4,T1_SMS_5,171,5,42,127,452074800
904,4,T1_SMS_5,172,1,48,29,452535640
904,4,T1_SMS_5,173,5,42,127,452574568
904,4,T1_SMS_5,174,1,48,29,453052544
904,4,T1_SMS_5,175,5,42,127,453075236
904,4,T1_SMS_5,176,1,48,27,453563828
904,4,T1_SMS_5,177,5,42,127,453575156
904,4,T1_SMS_5,178,1,48,28,454055368
904,4,T1_SMS_5,179,5,42,127,454074700
904,4,T1_SMS_5,180,1,48,27,454567708
904,4,T1_SMS_5,181,5,42,127,454574396
904,4,T1_SMS_5,182,1,48,22,455070392
904,4,T1_SMS_5,183,5,42,127,455075436
904,4,T1_SMS_5,184,1,48,29,455561784
904,4,T1_SMS_5,185,5,42,127,455574836
904,4,T1_SMS_5,186,1,48,31,456055272
904,4,T1_SMS_5,187,5,42,127,456074528
904,4,T1_SMS_5,188,1,48,22,456566860
904,4,T1_SMS_5,189,5,42,127,456575272
904,4,T1_SMS_5,190,1,48,28,457051152
904,4,T1_SMS_5,191,5,42,127,457075264
904,4,T1_SMS_5,192,1,48,29,457530652
904,4,T1_SMS_5,193,5,42,127,457574740
904,4,T1_SMS_5,194,1,48,29,458048000
904,4,T1_SMS_5,195,5,42,127,458074360
904,4,T1_SMS_5,196,1,48,30,458510116
904,4,T1_SMS_5,197,5,42,127,458575324
904,4,T1_SMS_5,198,1,48,24,459067132
904,4,T1_SMS_5,199,5,42,127,459075020
904,4,T1_SMS_5,200,1,48,31,459551344
904,4,T1_SMS_5,201,5,42,127,459574492
904,4,T1_SMS_5,202,1,48,28,460059044
904,4,T1_SMS_5,203,5,42,127,460075232
904,4,T1_SMS_5,204,1,48,26,460558040
904,4,T1_SMS_5,205,5,42,127,460575224
904,4,T1_SMS_5,206,1,48,28,461040080
904,4,T1_SMS_5,207,5,42,127,461074844
904,4,T1_SMS_5,208,1,48,28,461541044
904,4,T1_SMS_5,209,5,42,127,461574364
904,4,T1_SMS_5,210,1,48,29,462047328
904,4,T1_SMS_5,211,5,42,127,462075552
904,4,T1_SMS_5,212,1,48,26,462530716
904,4,T1_SMS_5,213,5,42,127,462575176
904,4,T1_SMS_5,214,1,48,28,463027640
904,4,T1_SMS_5,215,5,42,127,463074572
904,4,T1_SMS_5,216,1,48,21,463539676
904,4,T1_SMS_5,217,5,42,127,463575388
904,4,T1_SMS_5,218,1,48,26,464059420
904,4,T1_SMS_5,219,5,42,127,464075452
904,4,T1_SMS_5,220,1,48,28,464570328
904,4,T1_SMS_5,221,5,42,127,464574776
904,4,T1_SMS_5,222,5,42,127,465074628
904,4,T1_SMS_5,223,1,48,27,465095172
904,4,T1_SMS_5,224,1,48,23,465538752
904,4,T1_SMS_5,225,5,42,127,465575436
904,4,T1_SMS_5,226,1,48,29,466064704
904,4,T1_SMS_5,227,5,42,127,466075204
904,4,T1_SMS_5,228,5,42,127,466574612
904,4,T1_SMS_5,229,1,48,25,466593660
904,4,T1_SMS_5,230,5,42,127,467074528
904,4,T1_SMS_5,231,1,48,28,467080192
904,4,T1_SMS_5,232,1,48,22,467544564
904,4,T1_SMS_5,233,5,42,127,467575264
904,4,T1_SMS_5,234,1,48,23,468047628
904,4,T1_SMS_5,235,5,42,127,468075108
904,4,T1_SMS_5,236,1,48,19,468550608
904,4,T1_SMS_5,237,5,42,127,468574504
904,4,T1_SMS_5,238,1,48,27,469047988
904,4,T1_SMS_5,239,5,42,127,469075396
904,4,T1_SMS_5,240,1,48,26,469550528
904,4,T1_SMS_5,241,5,42,127,469575164
904,4,T1_SMS_5,242,1,48,24,470065408
904,4,T1_SMS_5,243,5,42,127,470074864
904,4,T1_SMS_5,244,1,48,21,470569220
904,4,T1_SMS_5,245,5,42,127,470574560
904,4,T1_SMS_5,246,1,48,19,471057216
904,4,T1_SMS_5,247,5,42,127,471075424
904,4,T1_SMS_5,248,5,42,127,471574832
904,4,T1_SMS_5,249,1,48,22,471579972
904,4,T1_SMS_5,250,5,42,127,472074504
904,4,T1_SMS_5,251,1,48,25,472076520
904,4,T1_SMS_5,252,5,42,127,472575320
904,4,T1_SMS_5,253,1,48,21,472605536
904,4,T1_SMS_5,254,1,48,20,473071012
904,4,T1_SMS_5,255,5,42,127,473075232
904,4,T1_SMS_5,256,5,42,127,473574636
904,4,T1_SMS_5,257,1,48,21,473584712
904,4,T1_SMS_5,0,9999,9999,9999,409072724
904,4,T1_SMS_5,1,9999,9999,9999,409572440
904,4,T1_SMS_5,2,9999,9999,9999,410072148
904,4,T1_SMS_5,3,9999,9999,9999,410572892
904,4,T1_SMS_5,4,9999,9999,9999,411072584
904,4,T1_SMS_5,5,9999,9999,9999,411572288
904,4,T1_SMS_5,6,9999,9999,9999,412073024
904,4,T1_SMS_5,7,9999,9999,9999,412572792
904,4,T1_SMS_5,8,9999,9999,9999,413072488
904,4,T1_SMS_5,9,9999,9999,9999,413572180
904,4,T1_SMS_5,10,9999,9999,9999,414072924
904,4,T1_SMS_5,11,9999,9999,9999,414572620
904,4,T1_SMS_5,12,9999,9999,9999,415072312
904,4,T1_SMS_5,13,9999,9999,9999,415573056
904,4,T1_SMS_5,14,9999,9999,9999,416072824
904,4,T1_SMS_5,15,9999,9999,9999,416572520
904,4,T1_SMS_5,16,9999,9999,9999,417072212
904,4,T1_SMS_5,17,9999,9999,9999,417572956
904,4,T1_SMS_5,18,9999,9999,9999,418072648
904,4,T1_SMS_5,19,9999,9999,9999,418572396
904,4,T1_SMS_5,20,9999,9999,9999,419072088
904,4,T1_SMS_5,21,9999,9999,9999,419572832
904,4,T1_SMS_5,22,9999,9999,9999,420072528
904,4,T1_SMS_5,23,9999,9999,9999,420572220
904,4,T1_SMS_5,24,9999,9999,9999,421072964
904,4,T1_SMS_5,25,9999,9999,9999,421572660
904,4,T1_SMS_5,26,9999,9999,9999,422072428
904,4,T1_SMS_5,27,9999,9999,9999,422572124
904,4,T1_SMS_5,28,9999,9999,9999,423072868
904,4,T1_SMS_5,29,9999,9999,9999,423572560
904,4,T1_SMS_5,30,9999,9999,9999,424072264
904,4,T1_SMS_5,31,9999,9999,9999,424573004
904,4,T1_SMS_5,32,9999,9999,9999,425072700
904,4,T1_SMS_5,33,9999,9999,9999,425572460
904,4,T1_SMS_5,34,9999,9999,9999,426072164
904,4,T1_SMS_5,35,9999,9999,9999,426572900
904,4,T1_SMS_5,36,9999,9999,9999,427072592
904,4,T1_SMS_5,37,9999,9999,9999,427572288
904,4,T1_SMS_5,38,9999,9999,9999,428073028
904,4,T1_SMS_5,39,9999,9999,9999,428572724
904,4,T1_SMS_5,40,9999,9999,9999,429072468
904,4,T1_SMS_5,41,9999,9999,9999,429572160
904,4,T1_SMS_5,42,9999,9999,9999,430072904
904,4,T1_SMS_5,43,9999,9999,9999,430572596
904,4,T1_SMS_5,44,9999,9999,9999,431072368
904,4,T1_SMS_5,45,9999,9999,9999,431573108
904,4,T1_SMS_5,46,9999,9999,9999,432072804
904,4,T1_SMS_5,47,9999,9999,9999,432572496
904,4,T1_SMS_5,48,9999,9999,9999,433072200
904,4,T1_SMS_5,49,9999,9999,9999,433572932
904,4,T1_SMS_5,50,9999,9999,9999,434072636
904,4,T1_SMS_5,51,9999,9999,9999,434572396
904,4,T1_SMS_5,52,9999,9999,9999,435072100
904,4,T1_SMS_5,53,9999,9999,9999,435572836
904,4,T1_SMS_5,54,9999,9999,9999,436072532
904,4,T1_SMS_5,55,9999,9999,9999,436572232
904,4,T1_SMS_5,56,9999,9999,9999,437072972
904,4,T1_SMS_5,57,9999,9999,9999,437572660
904,4,T1_SMS_5,58,9999,9999,9999,438072428
904,4,T1_SMS_5,59,9999,9999,9999,438572124
904,4,T1_SMS_5,60,9999,9999,9999,439072864
904,4,T1_SMS_5,61,9999,9999,9999,439572568
904,4,T1_SMS_5,62,9999,9999,9999,440072240
904,4,T1_SMS_5,63,9999,9999,9999,440572976
904,4,T1_SMS_5,64,9999,9999,9999,441072752
904,4,T1_SMS_5,65,9999,9999,9999,441572440
904,4,T1_SMS_5,66,9999,9999,9999,442072136
904,4,T1_SMS_5,67,9999,9999,9999,442572876
904,4,T1_SMS_5,68,9999,9999,9999,443072572
904,4,T1_SMS_5,69,9999,9999,9999,443572340
904,4,T1_SMS_5,70,9999,9999,9999,444073008
904,4,T1_SMS_5,71,9999,9999,9999,444572780
904,4,T1_SMS_5,72,9999,9999,9999,445072480
904,4,T1_SMS_5,73,9999,9999,9999,445572172
904,4,T1_SMS_5,74,9999,9999,9999,446072908
904,4,T1_SMS_5,75,9999,9999,9999,446572612
904,4,T1_SMS_5,76,9999,9999,9999,447072308
904,4,T1_SMS_5,77,9999,9999,9999,447573044
904,4,T1_SMS_5,78,9999,9999,9999,448072816
904,4,T1_SMS_5,79,9999,9999,9999,448572512
904,4,T1_SMS_5,80,9999,9999,9999,449072200
904,4,T1_SMS_5,81,9999,9999,9999,449572940
904,4,T1_SMS_5,82,9999,9999,9999,450072636
904,4,T1_SMS_5,83,9999,9999,9999,450572384
904,4,T1_SMS_5,84,9999,9999,9999,451072076
904,4,T1_SMS_5,85,9999,9999,9999,451572816
904,4,T1_SMS_5,86,9999,9999,9999,452072512
904,4,T1_SMS_5,87,9999,9999,9999,452572208
904,4,T1_SMS_5,88,9999,9999,9999,453072952
904,4,T1_SMS_5,89,9999,9999,9999,453572720
904,4,T1_SMS_5,90,9999,9999,9999,454072416
904,4,T1_SMS_5,91,9999,9999,9999,454572112
904,4,T1_SMS_5,92,9999,9999,9999,455072852
904,4,T1_SMS_5,93,9999,9999,9999,455572548
904,4,T1_SMS_5,94,9999,9999,9999,456072244
904,4,T1_SMS_5,95,9999,9999,9999,456572984
904,4,T1_SMS_5,96,9999,9999,9999,457072756
904,4,T1_SMS_5,97,9999,9999,9999,457572452
904,4,T1_SMS_5,98,9999,9999,9999,458072148
904,4,T1_SMS_5,99,9999,9999,9999,458572888
904,4,T1_SMS_5,100,9999,9999,9999,459072584
904,4,T1_SMS_5,101,9999,9999,9999,459572280
904,4,T1_SMS_5,102,9999,9999,9999,460073020
904,4,T1_SMS_5,103,9999,9999,9999,460572788
904,4,T1_SMS_5,104,9999,9999,9999,461072460
904,4,T1_SMS_5,105,9999,9999,9999,461572152
904,4,T1_SMS_5,106,9999,9999,9999,462072896
904,4,T1_SMS_5,107,9999,9999,9999,462572664
904,4,T1_SMS_5,108,9999,9999,9999,463072360
904,4,T1_SMS_5,109,9999,9999,9999,463573100
904,4,T1_SMS_5,110,9999,9999,9999,464072796
904,4,T1_SMS_5,111,9999,9999,9999,464572492
904,4,T1_SMS_5,112,9999,9999,9999,465072192
904,4,T1_SMS_5,113,9999,9999,9999,465572924
904,4,T1_SMS_5,114,9999,9999,9999,466072696
904,4,T1_SMS_5,115,9999,9999,9999,466572396
904,4,T1_SMS_5,116,9999,9999,9999,467072092
904,4,T1_SMS_5,117,9999,9999,9999,467572828
904,4,T1_SMS_5,118,9999,9999,9999,468072524
904,4,T1_SMS_5,119,9999,9999,9999,468572220
904,4,T1_SMS_5,120,9999,9999,9999,469072960
904,4,T1_SMS_5,121,9999,9999,9999,469572656
904,4,T1_SMS_5,122,9999,9999,9999,470072428
904,4,T1_SMS_5,123,9999,9999,9999,470572124
904,4,T1_SMS_5,124,9999,9999,9999,471072840
904,4,T1_SMS_5,125,9999,9999,9999,471572544
904,4,T1_SMS_5,126,9999,9999,9999,472072292
904,4,T1_SMS_5,127,9999,9999,9999,472573032
904,4,T1_SMS_5,128,9999,9999,9999,473072720
904,4,T1_SMS_5,129,9999,9999,9999,473572424
905,22,Ticks_Phase_8,0,5,42,127,485252456
905,22,Ticks_Phase_8,1,5,42,127,486053160
905,22,Ticks_Phase_8,2,5,42,127,486852892
905,22,Ticks_Phase_8,3,1,48,21,486903492
905,22,Ticks_Phase_8,4,5,42,127,487652680
905,22,Ticks_Phase_8,5,1,48,26,487665160
905,22,Ticks_Phase_8,6,1,48,29,488420536
905,22,Ticks_Phase_8,7,5,42,127,488452608
905,22,Ticks_Phase_8,8,1,48,32,489166840
905,22,Ticks_Phase_8,9,5,42,127,489253316
905,22,Ticks_Phase_8,10,1,48,31,490047232
905,22,Ticks_Phase_8,11,5,42,127,490053028
905,22,Ticks_Phase_8,12,5,42,127,490852748
905,22,Ticks_Phase_8,13,1,48,30,490882380
905,22,Ticks_Phase_8,14,5,42,127,491652384
905,22,Ticks_Phase_8,15,1,48,32,491671456
905,22,Ticks_Phase_8,16,5,42,127,492453144
905,22,Ticks_Phase_8,17,1,48,31,492454108
905,22,Ticks_Phase_8,18,5,42,127,493253076
905,22,Ticks_Phase_8,19,1,48,30,493288172
905,22,Ticks_Phase_8,20,5,42,127,494052936
905,22,Ticks_Phase_8,21,1,48,29,494057484
905,22,Ticks_Phase_8,22,5,42,127,494852428
905,22,Ticks_Phase_8,23,1,48,31,494865904
905,22,Ticks_Phase_8,24,5,42,127,495653136
905,22,Ticks_Phase_8,25,1,48,27,495655876
905,22,Ticks_Phase_8,26,5,42,127,496452920
905,22,Ticks_Phase_8,27,1,48,27,496481280
905,22,Ticks_Phase_8,28,1,48,22,497238736
905,22,Ticks_Phase_8,29,5,42,127,497252924
905,22,Ticks_Phase_8,30,1,48,29,498020320
905,22,Ticks_Phase_8,31,5,42,127,498052340
905,22,Ticks_Phase_8,32,1,48,25,498776160
905,22,Ticks_Phase_8,33,5,42,127,498853172
905,22,Ticks_Phase_8,34,5,42,127,499652964
905,22,Ticks_Phase_8,35,1,48,26,499713600
905,22,Ticks_Phase_8,36,5,42,127,500452900
905,22,Ticks_Phase_8,37,1,48,26,500464256
905,22,Ticks_Phase_8,38,1,48,29,501189816
905,22,Ticks_Phase_8,39,5,42,127,501252456
905,22,Ticks_Phase_8,40,1,48,24,502028240
905,22,Ticks_Phase_8,41,5,42,127,502053312
905,22,Ticks_Phase_8,42,5,42,127,502853032
905,22,Ticks_Phase_8,43,1,48,27,502873824
905,22,Ticks_Phase_8,44,5,42,127,503652892
905,22,Ticks_Phase_8,45,1,48,28,503675704
905,22,Ticks_Phase_8,46,5,42,127,504452452
905,22,Ticks_Phase_8,47,1,48,30,504460748
905,22,Ticks_Phase_8,48,1,48,26,505236552
905,22,Ticks_Phase_8,49,5,42,127,505253208
905,22,Ticks_Phase_8,50,5,42,127,506053072
905,22,Ticks_Phase_8,51,1,48,24,506068544
905,22,Ticks_Phase_8,52,1,48,22,506829452
905,22,Ticks_Phase_8,53,5,42,127,506852852
905,22,Ticks_Phase_8,54,1,48,27,507607676
905,22,Ticks_Phase_8,55,5,42,127,507652416
905,22,Ticks_Phase_8,56,1,48,21,508443812
905,22,Ticks_Phase_8,57,5,42,127,508453272
905,22,Ticks_Phase_8,58,1,48,30,509223676
905,22,Ticks_Phase_8,59,5,42,127,509232616
905,22,Ticks_Phase_8,60,5,42,127,510033304
905,22,Ticks_Phase_8,61,1,48,29,510035824
905,22,Ticks_Phase_8,62,1,48,22,510815532
905,22,Ticks_Phase_8,63,5,42,127,510832864
905,22,Ticks_Phase_8,64,1,48,21,511631756
905,22,Ticks_Phase_8,65,5,42,127,511633476
905,22,Ticks_Phase_8,66,5,42,127,512432592
905,22,Ticks_Phase_8,67,1,48,20,512435108
905,22,Ticks_Phase_8,68,5,42,127,513233348
905,22,Ticks_Phase_8,69,1,48,23,513243364
905,22,Ticks_Phase_8,70,1,48,28,514003744
905,22,Ticks_Phase_8,71,5,42,127,514032980
905,22,Ticks_Phase_8,72,5,42,127,514832724
905,22,Ticks_Phase_8,73,1,48,23,514840104
905,22,Ticks_Phase_8,74,5,42,127,515632512
905,22,Ticks_Phase_8,75,1,48,26,515646408
905,22,Ticks_Phase_8,76,1,48,31,516413468
905,22,Ticks_Phase_8,77,5,42,127,516433336
905,22,Ticks_Phase_8,78,1,48,28,517211828
905,22,Ticks_Phase_8,79,5,42,127,517232972
905,22,Ticks_Phase_8,80,1,48,29,517974020
905,22,Ticks_Phase_8,81,5,42,127,518032832
905,22,Ticks_Phase_8,82,1,48,21,518811176
905,22,Ticks_Phase_8,83,5,42,127,518832620
905,22,Ticks_Phase_8,84,5,42,127,519633460
905,22,Ticks_Phase_8,85,1,48,29,519674252
905,22,Ticks_Phase_8,86,1,48,25,520410380
905,22,Ticks_Phase_8,87,5,42,127,520433016
905,22,Ticks_Phase_8,88,1,48,28,521193456
905,22,Ticks_Phase_8,89,5,42,127,521232900
905,22,Ticks_Phase_8,90,1,48,30,521980208
905,22,Ticks_Phase_8,91,5,42,127,522032688
905,22,Ticks_Phase_8,92,1,48,23,522826744
905,22,Ticks_Phase_8,93,5,42,127,522833444
905,22,Ticks_Phase_8,94,1,48,26,523611716
905,22,Ticks_Phase_8,95,5,42,127,523652480
905,22,Ticks_Phase_8,96,1,48,23,524422736
905,22,Ticks_Phase_8,97,5,42,127,524453612
905,22,Ticks_Phase_8,98,1,48,19,525213984
905,22,Ticks_Phase_8,99,5,42,127,525252952
905,22,Ticks_Phase_8,100,1,48,21,526047760
905,22,Ticks_Phase_8,101,5,42,127,526052664
905,22,Ticks_Phase_8,102,1,48,29,526850564
905,22,Ticks_Phase_8,103,5,42,127,526852596
905,22,Ticks_Phase_8,104,1,48,26,527651348
905,22,Ticks_Phase_8,105,5,42,127,527653156
905,22,Ticks_Phase_8,106,5,42,127,528452948
905,22,Ticks_Phase_8,107,1,48,24,528484000
905,22,Ticks_Phase_8,108,5,42,127,529252660
905,22,Ticks_Phase_8,109,1,48,28,529279144
905,22,Ticks_Phase_8,110,5,42,127,530052668
905,22,Ticks_Phase_8,111,1,48,29,530086640
905,22,Ticks_Phase_8,112,1,48,32,530840660
905,22,Ticks_Phase_8,113,5,42,127,530853424
905,22,Ticks_Phase_8,114,1,48,28,531644572
905,22,Ticks_Phase_8,115,5,42,127,531652912
905,22,Ticks_Phase_8,116,5,42,127,532452628
905,22,Ticks_Phase_8,117,1,48,35,532457992
905,22,Ticks_Phase_8,118,5,42,127,533252564
905,22,Ticks_Phase_8,119,1,48,28,533288432
905,22,Ticks_Phase_8,120,1,48,29,534047688
905,22,Ticks_Phase_8,121,5,42,127,534053264
905,22,Ticks_Phase_8,122,5,42,127,534852836
905,22,Ticks_Phase_8,123,1,48,28,534869800
905,22,Ticks_Phase_8,124,1,48,26,535624652
905,22,Ticks_Phase_8,125,5,42,127,535652692
905,22,Ticks_Phase_8,126,1,48,30,536431788
905,22,Ticks_Phase_8,127,5,42,127,536493292
905,22,Ticks_Phase_8,128,1,48,26,537252388
905,22,Ticks_Phase_8,129,5,42,127,537303412
905,22,Ticks_Phase_8,130,1,48,21,538081084
905,22,Ticks_Phase_8,131,5,42,127,538103424
905,22,Ticks_Phase_8,132,1,48,28,538903016
905,22,Ticks_Phase_8,133,5,42,127,538904504
905,22,Ticks_Phase_8,134,5,42,127,539702580
905,22,Ticks_Phase_8,135,1,48,28,539717228
905,22,Ticks_Phase_8,136,1,48,27,540498432
905,22,Ticks_Phase_8,137,5,42,127,540503480
905,22,Ticks_Phase_8,138,1,48,30,541264816
905,22,Ticks_Phase_8,139,5,42,127,541303264
905,22,Ticks_Phase_8,140,1,48,25,542063260
905,22,Ticks_Phase_8,141,5,42,127,542102756
905,22,Ticks_Phase_8,142,1,48,26,542854432
905,22,Ticks_Phase_8,143,5,42,127,542902688
905,22,Ticks_Phase_8,144,1,48,28,543652496
905,22,Ticks_Phase_8,145,5,42,127,543703300
905,22,Ticks_Phase_8,146,1,48,29,544457824
905,22,Ticks_Phase_8,147,5,42,127,544503308
905,22,Ticks_Phase_8,148,1,48,37,545266820
905,22,Ticks_Phase_8,149,5,42,127,545302748
905,22,Ticks_Phase_8,150,1,48,28,546078384
905,22,Ticks_Phase_8,151,5,42,127,546102532
905,22,Ticks_Phase_8,152,1,48,29,546896592
905,22,Ticks_Phase_8,153,5,42,127,546903440
905,22,Ticks_Phase_8,154,5,42,127,547703308
905,22,Ticks_Phase_8,155,1,48,24,547716464
905,22,Ticks_Phase_8,156,1,48,32,548480300
905,22,Ticks_Phase_8,157,5,42,127,548503012
905,22,Ticks_Phase_8,158,1,48,32,549281136
905,22,Ticks_Phase_8,159,5,42,127,549302576
905,22,Ticks_Phase_8,160,5,42,127,550062304
905,22,Ticks_Phase_8,161,1,48,29,550086092
905,22,Ticks_Phase_8,162,1,48,26,550802368
905,22,Ticks_Phase_8,163,5,42,127,550863356
905,22,Ticks_Phase_8,164,1,48,27,551635332
905,22,Ticks_Phase_8,165,5,42,127,551662992
905,22,Ticks_Phase_8,166,1,48,28,552429944
905,22,Ticks_Phase_8,167,5,42,127,552462580
905,22,Ticks_Phase_8,168,1,48,24,553207944
905,22,Ticks_Phase_8,169,5,42,127,553262440
905,22,Ticks_Phase_8,170,1,48,26,554030600
905,22,Ticks_Phase_8,171,5,42,127,554063348
905,22,Ticks_Phase_8,172,1,48,22,554835100
905,22,Ticks_Phase_8,173,5,42,127,554863136
905,22,Ticks_Phase_8,174,1,48,26,555613248
905,22,Ticks_Phase_8,175,5,42,127,555662772
905,22,Ticks_Phase_8,176,1,48,23,556396100
905,22,Ticks_Phase_8,177,5,42,127,556462484
905,22,Ticks_Phase_8,178,5,42,127,557263176
905,22,Ticks_Phase_8,179,1,48,29,557292280
905,22,Ticks_Phase_8,180,5,42,127,558062884
905,22,Ticks_Phase_8,181,1,48,30,558077088
905,22,Ticks_Phase_8,182,5,42,127,558862696
905,22,Ticks_Phase_8,183,1,48,35,558871960
905,22,Ticks_Phase_8,184,5,42,127,559662408
905,22,Ticks_Phase_8,185,1,48,34,559683128
905,22,Ticks_Phase_8,186,1,48,34,560450540
905,22,Ticks_Phase_8,187,5,42,127,560463084
905,22,Ticks_Phase_8,188,1,48,28,561226368
905,22,Ticks_Phase_8,189,5,42,127,561263168
905,22,Ticks_Phase_8,190,1,48,27,561979576
905,22,Ticks_Phase_8,191,5,42,127,562062660
905,22,Ticks_Phase_8,192,5,42,127,562782696
905,22,Ticks_Phase_8,193,1,48,29,562803796
905,22,Ticks_Phase_8,194,1,48,26,563541488
905,22,Ticks_Phase_8,195,5,42,127,563583300
905,22,Ticks_Phase_8,196,1,48,32,564335352
905,22,Ticks_Phase_8,197,5,42,127,564383232
905,22,Ticks_Phase_8,198,1,48,32,565126676
905,22,Ticks_Phase_8,199,5,42,127,565182948
905,22,Ticks_Phase_8,200,1,48,28,565956264
905,22,Ticks_Phase_8,201,5,42,127,565982508
905,22,Ticks_Phase_8,202,1,48,28,566772088
905,22,Ticks_Phase_8,203,5,42,127,566783344
905,22,Ticks_Phase_8,204,1,48,29,567549248
905,22,Ticks_Phase_8,205,5,42,127,567583228
905,22,Ticks_Phase_8,206,1,48,36,568374072
905,22,Ticks_Phase_8,207,5,42,127,568383088
905,22,Ticks_Phase_8,208,1,48,32,569143980
905,22,Ticks_Phase_8,209,5,42,127,569182504
905,22,Ticks_Phase_8,210,1,48,26,569937844
905,22,Ticks_Phase_8,211,5,42,127,569983264
905,22,Ticks_Phase_8,212,1,48,27,570761156
905,22,Ticks_Phase_8,213,5,42,127,570783124
905,22,Ticks_Phase_8,214,5,42,127,571582992
905,22,Ticks_Phase_8,215,1,48,27,571587156
905,22,Ticks_Phase_8,216,5,42,127,572382552
905,22,Ticks_Phase_8,217,1,48,29,572402300
905,22,Ticks_Phase_8,218,5,42,127,573183312
905,22,Ticks_Phase_8,219,1,48,19,573184500
905,22,Ticks_Phase_8,220,1,48,25,573888396
905,22,Ticks_Phase_8,221,5,42,127,573982948
905,22,Ticks_Phase_8,222,5,42,127,574783056
905,22,Ticks_Phase_8,223,1,48,29,574800024
905,22,Ticks_Phase_8,224,5,42,127,575582840
905,22,Ticks_Phase_8,225,1,48,28,575629468
905,22,Ticks_Phase_8,226,1,48,24,576410908
905,22,Ticks_Phase_8,227,5,42,127,576463200
905,22,Ticks_Phase_8,228,5,42,127,577262992
905,22,Ticks_Phase_8,229,1,48,28,577294672
905,22,Ticks_Phase_8,230,5,42,127,578062804
905,22,Ticks_Phase_8,231,1,48,27,578077084
905,22,Ticks_Phase_8,232,1,48,23,578839408
905,22,Ticks_Phase_8,233,5,42,127,578862584
905,22,Ticks_Phase_8,234,1,48,23,579583464
905,22,Ticks_Phase_8,235,5,42,127,579663344
905,22,Ticks_Phase_8,236,1,48,23,580443632
905,22,Ticks_Phase_8,237,5,42,127,580463056
905,22,Ticks_Phase_8,238,1,48,26,581248656
905,22,Ticks_Phase_8,239,5,42,127,581262844
905,22,Ticks_Phase_8,240,1,48,16,582025752
905,22,Ticks_Phase_8,241,5,42,127,582062480
905,22,Ticks_Phase_8,242,5,42,127,582863096
905,22,Ticks_Phase_8,243,1,48,24,582867784
905,22,Ticks_Phase_8,244,1,48,25,583640312
905,22,Ticks_Phase_8,245,5,42,127,583663100
905,22,Ticks_Phase_8,246,1,48,22,584450120
905,22,Ticks_Phase_8,247,5,42,127,584462684
905,22,Ticks_Phase_8,248,1,48,23,585238628
905,22,Ticks_Phase_8,249,5,42,127,585262396
905,22,Ticks_Phase_8,250,1,48,19,586032280
905,22,Ticks_Phase_8,251,5,42,127,586063228
905,22,Ticks_Phase_8,252,5,42,127,586862948
905,22,Ticks_Phase_8,253,1,48,18,586866512
905,22,Ticks_Phase_8,254,1,48,29,587659172
905,22,Ticks_Phase_8,255,5,42,127,587662952
905,22,Ticks_Phase_8,256,1,48,23,588413880
905,22,Ticks_Phase_8,257,5,42,127,588462440
905,22,Ticks_Phase_8,258,1,48,27,589227816
905,22,Ticks_Phase_8,259,5,42,127,589263196
905,22,Ticks_Phase_8,260,1,48,27,590044980
905,22,Ticks_Phase_8,261,5,42,127,590222804
905,22,Ticks_Phase_8,262,5,42,127,591022536
905,22,Ticks_Phase_8,263,1,48,24,591184144
905,22,Ticks_Phase_8,264,1,48,18,591780044
905,22,Ticks_Phase_8,265,5,42,127,591823364
905,22,Ticks_Phase_8,266,1,48,18,592464136
905,22,Ticks_Phase_8,267,5,42,127,592623132
905,22,Ticks_Phase_8,268,1,48,19,593354312
905,22,Ticks_Phase_8,269,5,42,127,593422884
905,22,Ticks_Phase_8,270,1,48,26,594161964
905,22,Ticks_Phase_8,271,5,42,127,594222376
905,22,Ticks_Phase_8,272,1,48,26,594983340
905,22,Ticks_Phase_8,273,5,42,127,595023356
905,22,Ticks_Phase_8,274,1,48,21,595791516
905,22,Ticks_Phase_8,275,5,42,127,595822992
905,22,Ticks_Phase_8,276,1,48,19,596583664
905,22,Ticks_Phase_8,277,5,42,127,596622852
905,22,Ticks_Phase_8,278,1,48,24,597368912
905,22,Ticks_Phase_8,279,5,42,127,597422416
905,22,Ticks_Phase_8,280,1,48,25,598172900
905,22,Ticks_Phase_8,281,5,42,127,598223172
905,22,Ticks_Phase_8,282,1,48,24,598991184
905,22,Ticks_Phase_8,283,5,42,127,599022812
905,22,Ticks_Phase_8,284,1,48,25,599798744
905,22,Ticks_Phase_8,285,5,42,127,599822844
905,22,Ticks_Phase_8,286,1,48,27,600603208
905,22,Ticks_Phase_8,287,5,42,127,600622708
905,22,Ticks_Phase_8,288,5,42,127,601423172
905,22,Ticks_Phase_8,289,1,48,26,601426140
905,22,Ticks_Phase_8,290,5,42,127,602223036
905,22,Ticks_Phase_8,291,1,48,22,602240540
905,22,Ticks_Phase_8,292,5,42,127,603022596
905,22,Ticks_Phase_8,293,1,48,22,603039940
905,22,Ticks_Phase_8,294,1,48,26,603800472
905,22,Ticks_Phase_8,295,5,42,127,603822676
905,22,Ticks_Phase_8,296,5,42,127,604623144
905,22,Ticks_Phase_8,297,1,48,22,604660872
905,22,Ticks_Phase_8,298,5,42,127,605263120
905,22,Ticks_Phase_8,299,1,48,26,605369656
905,22,Ticks_Phase_8,300,1,48,19,605989696
905,22,Ticks_Phase_8,301,5,42,127,606062900
905,22,Ticks_Phase_8,302,1,48,18,606792192
905,22,Ticks_Phase_8,303,5,42,127,606862612
905,22,Ticks_Phase_8,304,1,48,21,607597140
905,22,Ticks_Phase_8,305,5,42,127,607662548
905,22,Ticks_Phase_8,306,1,48,20,608412576
905,22,Ticks_Phase_8,307,5,42,127,608463156
905,22,Ticks_Phase_8,308,1,48,23,609240228
905,22,Ticks_Phase_8,309,5,42,127,609262868
905,22,Ticks_Phase_8,310,1,48,28,610008328
905,22,Ticks_Phase_8,311,5,42,127,610062824
905,22,Ticks_Phase_8,312,1,48,30,610833004
905,22,Ticks_Phase_8,313,5,42,127,610862536
905,22,Ticks_Phase_8,314,1,48,28,611612348
905,22,Ticks_Phase_8,315,5,42,127,611663148
905,22,Ticks_Phase_8,316,1,48,32,612397152
905,22,Ticks_Phase_8,317,5,42,127,612462856
905,22,Ticks_Phase_8,318,1,48,32,613214612
905,22,Ticks_Phase_8,319,5,42,127,613262792
905,22,Ticks_Phase_8,320,1,48,34,614008624
905,22,Ticks_Phase_8,321,5,42,127,614062576
905,22,Ticks_Phase_8,322,1,48,32,614797252
905,22,Ticks_Phase_8,323,5,42,127,614863112
905,22,Ticks_Phase_8,324,1,48,27,615661628
905,22,Ticks_Phase_8,325,5,42,127,615663048
905,22,Ticks_Phase_8,326,1,48,25,616449548
905,22,Ticks_Phase_8,327,5,42,127,616462784
905,22,Ticks_Phase_8,328,1,48,29,617226720
905,22,Ticks_Phase_8,329,5,42,127,617262548
905,22,Ticks_Phase_8,330,1,48,28,618033848
905,22,Ticks_Phase_8,331,5,42,127,618063452
905,22,Ticks_Phase_8,332,1,48,27,618826068
905,22,Ticks_Phase_8,333,5,42,127,618863016
905,22,Ticks_Phase_8,334,1,48,39,619599488
905,22,Ticks_Phase_8,335,5,42,127,619662876
905,22,Ticks_Phase_8,336,1,48,26,620385048
905,22,Ticks_Phase_8,337,5,42,127,620462588
905,22,Ticks_Phase_8,0,9999,9999,9999,485250168
905,22,Ticks_Phase_8,1,9999,9999,9999,486050872
905,22,Ticks_Phase_8,2,9999,9999,9999,486850680
905,22,Ticks_Phase_8,3,9999,9999,9999,487650392
905,22,Ticks_Phase_8,4,9999,9999,9999,488450172
905,22,Ticks_Phase_8,5,9999,9999,9999,489250884
905,22,Ticks_Phase_8,6,9999,9999,9999,490050668
905,22,Ticks_Phase_8,7,9999,9999,9999,490850388
905,22,Ticks_Phase_8,8,9999,9999,9999,491650172
905,22,Ticks_Phase_8,9,9999,9999,9999,492450932
905,22,Ticks_Phase_8,10,9999,9999,9999,493250644
905,22,Ticks_Phase_8,11,9999,9999,9999,494050428
905,22,Ticks_Phase_8,12,9999,9999,9999,494850140
905,22,Ticks_Phase_8,13,9999,9999,9999,495650924
905,22,Ticks_Phase_8,14,9999,9999,9999,496450632
905,22,Ticks_Phase_8,15,9999,9999,9999,497250416
905,22,Ticks_Phase_8,16,9999,9999,9999,498050128
905,22,Ticks_Phase_8,17,9999,9999,9999,498850884
905,22,Ticks_Phase_8,18,9999,9999,9999,499650676
905,22,Ticks_Phase_8,19,9999,9999,9999,500450388
905,22,Ticks_Phase_8,20,9999,9999,9999,501250168
905,22,Ticks_Phase_8,21,9999,9999,9999,502050876
905,22,Ticks_Phase_8,22,9999,9999,9999,502850668
905,22,Ticks_Phase_8,23,9999,9999,9999,503650380
905,22,Ticks_Phase_8,24,9999,9999,9999,504450168
905,22,Ticks_Phase_8,25,9999,9999,9999,505250920
905,22,Ticks_Phase_8,26,9999,9999,9999,506050636
905,22,Ticks_Phase_8,27,9999,9999,9999,506850416
905,22,Ticks_Phase_8,28,9999,9999,9999,507650128
905,22,Ticks_Phase_8,29,9999,9999,9999,508450912
905,22,Ticks_Phase_8,30,9999,9999,9999,509230180
905,22,Ticks_Phase_8,31,9999,9999,9999,510030944
905,22,Ticks_Phase_8,32,9999,9999,9999,510830652
905,22,Ticks_Phase_8,33,9999,9999,9999,511630444
905,22,Ticks_Phase_8,34,9999,9999,9999,512430156
905,22,Ticks_Phase_8,35,9999,9999,9999,513230916
905,22,Ticks_Phase_8,36,9999,9999,9999,514030692
905,22,Ticks_Phase_8,37,9999,9999,9999,514830412
905,22,Ticks_Phase_8,38,9999,9999,9999,515630148
905,22,Ticks_Phase_8,39,9999,9999,9999,516430976
905,22,Ticks_Phase_8,40,9999,9999,9999,517230688
905,22,Ticks_Phase_8,41,9999,9999,9999,518030396
905,22,Ticks_Phase_8,42,9999,9999,9999,518830184
905,22,Ticks_Phase_8,43,9999,9999,9999,519630948
905,22,Ticks_Phase_8,44,9999,9999,9999,520430656
905,22,Ticks_Phase_8,45,9999,9999,9999,521230440
905,22,Ticks_Phase_8,46,9999,9999,9999,522030176
905,22,Ticks_Phase_8,47,9999,9999,9999,522830936
905,22,Ticks_Phase_8,48,9999,9999,9999,523650120
905,22,Ticks_Phase_8,49,9999,9999,9999,524450880
905,22,Ticks_Phase_8,50,9999,9999,9999,525250664
905,22,Ticks_Phase_8,51,9999,9999,9999,526050376
905,22,Ticks_Phase_8,52,9999,9999,9999,526850112
905,22,Ticks_Phase_8,53,9999,9999,9999,527650896
905,22,Ticks_Phase_8,54,9999,9999,9999,528450664
905,22,Ticks_Phase_8,55,9999,9999,9999,529250376
905,22,Ticks_Phase_8,56,9999,9999,9999,530050160
905,22,Ticks_Phase_8,57,9999,9999,9999,530850912
905,22,Ticks_Phase_8,58,9999,9999,9999,531650624
905,22,Ticks_Phase_8,59,9999,9999,9999,532450416
905,22,Ticks_Phase_8,60,9999,9999,9999,533250128
905,22,Ticks_Phase_8,61,9999,9999,9999,534050904
905,22,Ticks_Phase_8,62,9999,9999,9999,534850624
905,22,Ticks_Phase_8,63,9999,9999,9999,535650404
905,22,Ticks_Phase_8,64,9999,9999,9999,536491080
905,22,Ticks_Phase_8,65,9999,9999,9999,537301052
905,22,Ticks_Phase_8,66,9999,9999,9999,538100840
905,22,Ticks_Phase_8,67,9999,9999,9999,538900580
905,22,Ticks_Phase_8,68,9999,9999,9999,539700292
905,22,Ticks_Phase_8,69,9999,9999,9999,540501120
905,22,Ticks_Phase_8,70,9999,9999,9999,541300832
905,22,Ticks_Phase_8,71,9999,9999,9999,542100544
905,22,Ticks_Phase_8,72,9999,9999,9999,542900328
905,22,Ticks_Phase_8,73,9999,9999,9999,543701088
905,22,Ticks_Phase_8,74,9999,9999,9999,544500796
905,22,Ticks_Phase_8,75,9999,9999,9999,545300532
905,22,Ticks_Phase_8,76,9999,9999,9999,546100320
905,22,Ticks_Phase_8,77,9999,9999,9999,546901076
905,22,Ticks_Phase_8,78,9999,9999,9999,547700796
905,22,Ticks_Phase_8,79,9999,9999,9999,548500576
905,22,Ticks_Phase_8,80,9999,9999,9999,549300288
905,22,Ticks_Phase_8,81,9999,9999,9999,550060092
905,22,Ticks_Phase_8,82,9999,9999,9999,550860920
905,22,Ticks_Phase_8,83,9999,9999,9999,551660632
905,22,Ticks_Phase_8,84,9999,9999,9999,552460344
905,22,Ticks_Phase_8,85,9999,9999,9999,553260156
905,22,Ticks_Phase_8,86,9999,9999,9999,554060912
905,22,Ticks_Phase_8,87,9999,9999,9999,554860624
905,22,Ticks_Phase_8,88,9999,9999,9999,555660412
905,22,Ticks_Phase_8,89,9999,9999,9999,556460124
905,22,Ticks_Phase_8,90,9999,9999,9999,557260888
905,22,Ticks_Phase_8,91,9999,9999,9999,558060600
905,22,Ticks_Phase_8,92,9999,9999,9999,558860384
905,22,Ticks_Phase_8,93,9999,9999,9999,559660120
905,22,Ticks_Phase_8,94,9999,9999,9999,560460872
905,22,Ticks_Phase_8,95,9999,9999,9999,561260660
905,22,Ticks_Phase_8,96,9999,9999,9999,562060372
905,22,Ticks_Phase_8,97,9999,9999,9999,562780260
905,22,Ticks_Phase_8,98,9999,9999,9999,563581012
905,22,Ticks_Phase_8,99,9999,9999,9999,564380800
905,22,Ticks_Phase_8,100,9999,9999,9999,565180512
905,22,Ticks_Phase_8,101,9999,9999,9999,565980220
905,22,Ticks_Phase_8,102,9999,9999,9999,566780984
905,22,Ticks_Phase_8,103,9999,9999,9999,567580792
905,22,Ticks_Phase_8,104,9999,9999,9999,568380504
905,22,Ticks_Phase_8,105,9999,9999,9999,569180216
905,22,Ticks_Phase_8,106,9999,9999,9999,569981052
905,22,Ticks_Phase_8,107,9999,9999,9999,570780764
905,22,Ticks_Phase_8,108,9999,9999,9999,571580480
905,22,Ticks_Phase_8,109,9999,9999,9999,572380264
905,22,Ticks_Phase_8,110,9999,9999,9999,573181024
905,22,Ticks_Phase_8,111,9999,9999,9999,573980752
905,22,Ticks_Phase_8,112,9999,9999,9999,574780472
905,22,Ticks_Phase_8,113,9999,9999,9999,575580256
905,22,Ticks_Phase_8,114,9999,9999,9999,576460912
905,22,Ticks_Phase_8,115,9999,9999,9999,577260632
905,22,Ticks_Phase_8,116,9999,9999,9999,578060368
905,22,Ticks_Phase_8,117,9999,9999,9999,578860152
905,22,Ticks_Phase_8,118,9999,9999,9999,579660908
905,22,Ticks_Phase_8,119,9999,9999,9999,580460620
905,22,Ticks_Phase_8,120,9999,9999,9999,581260408
905,22,Ticks_Phase_8,121,9999,9999,9999,582060120
905,22,Ticks_Phase_8,122,9999,9999,9999,582860884
905,22,Ticks_Phase_8,123,9999,9999,9999,583660664
905,22,Ticks_Phase_8,124,9999,9999,9999,584460400
905,22,Ticks_Phase_8,125,9999,9999,9999,585260112
905,22,Ticks_Phase_8,126,9999,9999,9999,586060868
905,22,Ticks_Phase_8,127,9999,9999,9999,586860660
905,22,Ticks_Phase_8,128,9999,9999,9999,587660368
905,22,Ticks_Phase_8,129,9999,9999,9999,588460152
905,22,Ticks_Phase_8,130,9999,9999,9999,589260912
905,22,Ticks_Phase_8,131,9999,9999,9999,590220368
905,22,Ticks_Phase_8,132,9999,9999,9999,591020100
905,22,Ticks_Phase_8,133,9999,9999,9999,591820928
905,22,Ticks_Phase_8,134,9999,9999,9999,592620624
905,22,Ticks_Phase_8,135,9999,9999,9999,593420376
905,22,Ticks_Phase_8,136,9999,9999,9999,594220088
905,22,Ticks_Phase_8,137,9999,9999,9999,595020920
905,22,Ticks_Phase_8,138,9999,9999,9999,595820632
905,22,Ticks_Phase_8,139,9999,9999,9999,596620344
905,22,Ticks_Phase_8,140,9999,9999,9999,597420128
905,22,Ticks_Phase_8,141,9999,9999,9999,598220888
905,22,Ticks_Phase_8,142,9999,9999,9999,599020600
905,22,Ticks_Phase_8,143,9999,9999,9999,599820408
905,22,Ticks_Phase_8,144,9999,9999,9999,600620120
905,22,Ticks_Phase_8,145,9999,9999,9999,601420884
905,22,Ticks_Phase_8,146,9999,9999,9999,602220600
905,22,Ticks_Phase_8,147,9999,9999,9999,603020384
905,22,Ticks_Phase_8,148,9999,9999,9999,603820092
905,22,Ticks_Phase_8,149,9999,9999,9999,604620856
905,22,Ticks_Phase_8,150,9999,9999,9999,605260908
905,22,Ticks_Phase_8,151,9999,9999,9999,606060612
905,22,Ticks_Phase_8,152,9999,9999,9999,606860400
905,22,Ticks_Phase_8,153,9999,9999,9999,607660112
905,22,Ticks_Phase_8,154,9999,9999,9999,608460868
905,22,Ticks_Phase_8,155,9999,9999,9999,609260656
905,22,Ticks_Phase_8,156,9999,9999,9999,610060388
905,22,Ticks_Phase_8,157,9999,9999,9999,610860100
905,22,Ticks_Phase_8,158,9999,9999,9999,611660860
905,22,Ticks_Phase_8,159,9999,9999,9999,612460644
905,22,Ticks_Phase_8,160,9999,9999,9999,613260356
905,22,Ticks_Phase_8,161,9999,9999,9999,614060144
905,22,Ticks_Phase_8,162,9999,9999,9999,614860900
905,22,Ticks_Phase_8,163,9999,9999,9999,615660620
905,22,Ticks_Phase_8,164,9999,9999,9999,616460352
905,22,Ticks_Phase_8,165,9999,9999,9999,617260112
905,22,Ticks_Phase_8,166,9999,9999,9999,618060868
905,22,Ticks_Phase_8,167,9999,9999,9999,618860656
905,22,Ticks_Phase_8,168,9999,9999,9999,619660368
905,22,Ticks_Phase_8,169,9999,9999,9999,620460156
906,23,Ticks_Phase_5,0,5,42,127,630708568
906,23,Ticks_Phase_5,1,5,42,127,631209400
906,23,Ticks_Phase_5,2,1,48,16,631442672
906,23,Ticks_Phase_5,3,5,42,127,631709012
906,23,Ticks_Phase_5,4,1,48,19,631848232
906,23,Ticks_Phase_5,5,1,48,20,632177820
906,23,Ticks_Phase_5,6,5,42,127,632208772
906,23,Ticks_Phase_5,7,1,48,25,632694044
906,23,Ticks_Phase_5,8,5,42,127,632708460
906,23,Ticks_Phase_5,9,1,48,28,633196816
906,23,Ticks_Phase_5,10,5,42,127,633209268
906,23,Ticks_Phase_5,11,5,42,127,633709040
906,23,Ticks_Phase_5,12,1,48,27,633718156
906,23,Ticks_Phase_5,13,5,42,127,634208576
906,23,Ticks_Phase_5,14,1,48,27,634221352
906,23,Ticks_Phase_5,15,5,42,127,634709240
906,23,Ticks_Phase_5,16,1,48,25,634746272
906,23,Ticks_Phase_5,17,5,42,127,635209000
906,23,Ticks_Phase_5,18,1,48,19,635222376
906,23,Ticks_Phase_5,19,1,48,23,635693668
906,23,Ticks_Phase_5,20,5,42,127,635708756
906,23,Ticks_Phase_5,21,1,48,28,636188420
906,23,Ticks_Phase_5,22,5,42,127,636208444
906,23,Ticks_Phase_5,23,1,48,31,636694544
906,23,Ticks_Phase_5,24,5,42,127,636709252
906,23,Ticks_Phase_5,25,1,48,27,637207284
906,23,Ticks_Phase_5,26,5,42,127,637208792
906,23,Ticks_Phase_5,27,1,48,32,637704452
906,23,Ticks_Phase_5,28,5,42,127,637708704
906,23,Ticks_Phase_5,29,1,48,27,638198752
906,23,Ticks_Phase_5,30,5,42,127,638209340
906,23,Ticks_Phase_5,31,1,48,23,638695736
906,23,Ticks_Phase_5,32,5,42,127,638709324
906,23,Ticks_Phase_5,33,1,48,24,639207128
906,23,Ticks_Phase_5,34,5,42,127,639208792
906,23,Ticks_Phase_5,35,5,42,127,639708488
906,23,Ticks_Phase_5,36,1,48,29,639720520
906,23,Ticks_Phase_5,37,5,42,127,640209224
906,23,Ticks_Phase_5,38,1,48,24,640210560
906,23,Ticks_Phase_5,39,1,48,27,640704604
906,23,Ticks_Phase_5,40,5,42,127,640708832
906,23,Ticks_Phase_5,41,1,48,28,641206556
906,23,Ticks_Phase_5,42,5,42,127,641208668
906,23,Ticks_Phase_5,43,5,42,127,641709412
906,23,Ticks_Phase_5,44,1,48,27,641723760
906,23,Ticks_Phase_5,45,1,48,29,642197984
906,23,Ticks_Phase_5,46,5,42,127,642219352
906,23,Ticks_Phase_5,47,1,48,28,642713388
906,23,Ticks_Phase_5,48,5,42,127,642719188
906,23,Ticks_Phase_5,49,1,48,29,643213148
906,23,Ticks_Phase_5,50,5,42,127,643218800
906,23,Ticks_Phase_5,51,1,48,26,643717816
906,23,Ticks_Phase_5,52,5,42,127,643719388
906,23,Ticks_Phase_5,53,5,42,127,644219232
906,23,Ticks_Phase_5,54,1,48,29,644221824
906,23,Ticks_Phase_5,55,5,42,127,644719068
906,23,Ticks_Phase_5,56,1,48,31,644742556
906,23,Ticks_Phase_5,57,1,48,29,645201716
906,23,Ticks_Phase_5,58,5,42,127,645218600
906,23,Ticks_Phase_5,59,1,48,27,645705520
906,23,Ticks_Phase_5,60,5,42,127,645709152
906,23,Ticks_Phase_5,61,1,48,27,646157448
906,23,Ticks_Phase_5,62,5,42,127,646208840
906,23,Ticks_Phase_5,63,1,48,32,646704748
906,23,Ticks_Phase_5,64,5,42,127,646708532
906,23,Ticks_Phase_5,65,1,48,35,647208896
906,23,Ticks_Phase_5,66,5,42,127,647210388
906,23,Ticks_Phase_5,67,1,48,32,647699188
906,23,Ticks_Phase_5,68,5,42,127,647709252
906,23,Ticks_Phase_5,69,1,48,22,648188668
906,23,Ticks_Phase_5,70,5,42,127,648208716
906,23,Ticks_Phase_5,71,5,42,127,648708384
906,23,Ticks_Phase_5,72,1,48,27,648720288
906,23,Ticks_Phase_5,73,1,48,27,649203684
906,23,Ticks_Phase_5,74,5,42,127,649209116
906,23,Ticks_Phase_5,75,1,48,34,649663988
906,23,Ticks_Phase_5,76,5,42,127,649709028
906,23,Ticks_Phase_5,77,5,42,127,650208572
906,23,Ticks_Phase_5,78,1,48,29,650211240
906,23,Ticks_Phase_5,79,5,42,127,650709232
906,23,Ticks_Phase_5,80,1,48,25,650731528
906,23,Ticks_Phase_5,81,5,42,127,651209068
906,23,Ticks_Phase_5,82,1,48,23,651227472
906,23,Ticks_Phase_5,83,1,48,29,651673672
906,23,Ticks_Phase_5,84,5,42,127,651708752
906,23,Ticks_Phase_5,85,1,48,28,652201072
906,23,Ticks_Phase_5,86,5,42,127,652208516
906,23,Ticks_Phase_5,87,5,42,127,652709184
906,23,Ticks_Phase_5,88,1,48,30,652725700
906,23,Ticks_Phase_5,89,1,48,33,653190268
906,23,Ticks_Phase_5,90,5,42,127,653209164
906,23,Ticks_Phase_5,91,1,48,31,653682684
906,23,Ticks_Phase_5,92,5,42,127,653708556
906,23,Ticks_Phase_5,93,1,48,32,654174732
906,23,Ticks_Phase_5,94,5,42,127,654209516
906,23,Ticks_Phase_5,95,1,48,27,654695764
906,23,Ticks_Phase_5,96,5,42,127,654719464
906,23,Ticks_Phase_5,97,1,48,28,655219084
906,23,Ticks_Phase_5,98,5,42,127,655220420
906,23,Ticks_Phase_5,99,1,48,33,655697100
906,23,Ticks_Phase_5,100,5,42,127,655718764
906,23,Ticks_Phase_5,101,1,48,27,656199780
906,23,Ticks_Phase_5,102,5,42,127,656218452
906,23,Ticks_Phase_5,103,5,42,127,656719340
906,23,Ticks_Phase_5,104,1,48,27,656737372
906,23,Ticks_Phase_5,105,5,42,127,657219104
906,23,Ticks_Phase_5,106,1,48,32,657227100
906,23,Ticks_Phase_5,107,5,42,127,657718572
906,23,Ticks_Phase_5,108,1,48,26,657720280
906,23,Ticks_Phase_5,109,1,48,30,658184492
906,23,Ticks_Phase_5,110,5,42,127,658219348
906,23,Ticks_Phase_5,111,1,48,30,658690748
906,23,Ticks_Phase_5,112,5,42,127,658719036
906,23,Ticks_Phase_5,113,1,48,32,659191860
906,23,Ticks_Phase_5,114,5,42,127,659218944
906,23,Ticks_Phase_5,115,1,48,32,659677096
906,23,Ticks_Phase_5,116,5,42,127,659718460
906,23,Ticks_Phase_5,117,1,48,29,660196016
906,23,Ticks_Phase_5,118,5,42,127,660219120
906,23,Ticks_Phase_5,119,1,48,31,660685592
906,23,Ticks_Phase_5,120,5,42,127,660718956
906,23,Ticks_Phase_5,121,1,48,35,661158856
906,23,Ticks_Phase_5,122,5,42,127,661218796
906,23,Ticks_Phase_5,123,1,48,29,661696352
906,23,Ticks_Phase_5,124,5,42,127,661719384
906,23,Ticks_Phase_5,125,1,48,32,662204508
906,23,Ticks_Phase_5,126,5,42,127,662219072
906,23,Ticks_Phase_5,127,1,48,28,662713180
906,23,Ticks_Phase_5,128,5,42,127,662739352
906,23,Ticks_Phase_5,129,1,48,27,663207116
906,23,Ticks_Phase_5,130,5,42,127,663238968
906,23,Ticks_Phase_5,131,1,48,28,663718184
906,23,Ticks_Phase_5,132,5,42,127,663738728
906,23,Ticks_Phase_5,133,1,48,28,664230976
906,23,Ticks_Phase_5,134,5,42,127,664238420
906,23,Ticks_Phase_5,135,5,42,127,664739160
906,23,Ticks_Phase_5,136,1,48,29,664759880
906,23,Ticks_Phase_5,137,1,48,30,665215140
906,23,Ticks_Phase_5,138,5,42,127,665238988
906,23,Ticks_Phase_5,139,1,48,32,665733024
906,23,Ticks_Phase_5,140,5,42,127,665738604
906,23,Ticks_Phase_5,141,1,48,33,666201716
906,23,Ticks_Phase_5,142,5,42,127,666239264
906,23,Ticks_Phase_5,143,1,48,32,666687036
906,23,Ticks_Phase_5,144,5,42,127,666739104
906,23,Ticks_Phase_5,145,1,48,30,667210452
906,23,Ticks_Phase_5,146,5,42,127,667238868
906,23,Ticks_Phase_5,147,1,48,32,667679816
906,23,Ticks_Phase_5,148,5,42,127,667738408
906,23,Ticks_Phase_5,149,1,48,30,668203092
906,23,Ticks_Phase_5,150,5,42,127,668239216
906,23,Ticks_Phase_5,151,1,48,31,668720000
906,23,Ticks_Phase_5,152,5,42,127,668738904
906,23,Ticks_Phase_5,153,1,48,27,669220364
906,23,Ticks_Phase_5,154,5,42,127,669238740
906,23,Ticks_Phase_5,155,1,48,32,669723192
906,23,Ticks_Phase_5,156,5,42,127,669739328
906,23,Ticks_Phase_5,157,1,48,30,670213496
906,23,Ticks_Phase_5,158,5,42,127,670239164
906,23,Ticks_Phase_5,159,1,48,33,670726824
906,23,Ticks_Phase_5,160,5,42,127,670738780
906,23,Ticks_Phase_5,161,5,42,127,671219200
906,23,Ticks_Phase_5,162,1,48,31,671225016
906,23,Ticks_Phase_5,163,5,42,127,671718964
906,23,Ticks_Phase_5,164,1,48,35,671720376
906,23,Ticks_Phase_5,165,5,42,127,672218356
906,23,Ticks_Phase_5,166,1,48,31,672230984
906,23,Ticks_Phase_5,167,1,48,28,672716496
906,23,Ticks_Phase_5,168,5,42,127,672719232
906,23,Ticks_Phase_5,169,1,48,28,673210432
906,23,Ticks_Phase_5,170,5,42,127,673218924
906,23,Ticks_Phase_5,171,1,48,27,673690724
906,23,Ticks_Phase_5,172,5,42,127,673718908
906,23,Ticks_Phase_5,173,1,48,32,674200072
906,23,Ticks_Phase_5,174,5,42,127,674219420
906,23,Ticks_Phase_5,175,1,48,34,674657900
906,23,Ticks_Phase_5,176,5,42,127,674719032
906,23,Ticks_Phase_5,177,1,48,27,675217524
906,23,Ticks_Phase_5,178,5,42,127,675219020
906,23,Ticks_Phase_5,179,5,42,127,675718716
906,23,Ticks_Phase_5,180,1,48,25,675721832
906,23,Ticks_Phase_5,181,5,42,127,676219228
906,23,Ticks_Phase_5,182,1,48,33,676227148
906,23,Ticks_Phase_5,183,1,48,33,676708320
906,23,Ticks_Phase_5,184,5,42,127,676718908
906,23,Ticks_Phase_5,185,5,42,127,677218824
906,23,Ticks_Phase_5,186,1,48,26,677233024
906,23,Ticks_Phase_5,187,5,42,127,677719264
906,23,Ticks_Phase_5,188,1,48,32,677736152
906,23,Ticks_Phase_5,189,1,48,29,678207308
906,23,Ticks_Phase_5,190,5,42,127,678219092
906,23,Ticks_Phase_5,191,1,48,29,678717272
906,23,Ticks_Phase_5,192,5,42,127,678718856
906,23,Ticks_Phase_5,193,5,42,127,679169324
906,23,Ticks_Phase_5,194,1,48,29,679200404
906,23,Ticks_Phase_5,195,1,48,29,679633404
906,23,Ticks_Phase_5,196,5,42,127,679669008
906,23,Ticks_Phase_5,197,1,48,24,680147776
906,23,Ticks_Phase_5,198,5,42,127,680168992
906,23,Ticks_Phase_5,199,1,48,28,680639000
906,23,Ticks_Phase_5,200,5,42,127,680668456
906,23,Ticks_Phase_5,201,1,48,28,681158384
906,23,Ticks_Phase_5,202,5,42,127,681169344
906,23,Ticks_Phase_5,203,1,48,28,681641964
906,23,Ticks_Phase_5,204,5,42,127,681668884
906,23,Ticks_Phase_5,205,1,48,28,682121508
906,23,Ticks_Phase_5,206,5,42,127,682168868
906,23,Ticks_Phase_5,207,1,48,28,682660140
906,23,Ticks_Phase_5,208,5,42,127,682669380
906,23,Ticks_Phase_5,209,1,48,32,683169784
906,23,Ticks_Phase_5,210,5,42,127,683179324
906,23,Ticks_Phase_5,211,1,48,27,683658320
906,23,Ticks_Phase_5,212,5,42,127,683679164
906,23,Ticks_Phase_5,213,1,48,29,684175216
906,23,Ticks_Phase_5,214,5,42,127,684179000
906,23,Ticks_Phase_5,215,1,48,29,684669224
906,23,Ticks_Phase_5,216,5,42,127,684678464
906,23,Ticks_Phase_5,217,5,42,127,685179280
906,23,Ticks_Phase_5,218,1,48,25,685194000
906,23,Ticks_Phase_5,219,5,42,127,685678968
906,23,Ticks_Phase_5,220,1,48,22,685711968
906,23,Ticks_Phase_5,221,5,42,127,686178804
906,23,Ticks_Phase_5,222,1,48,14,686187552
906,23,Ticks_Phase_5,223,5,42,127,686679320
906,23,Ticks_Phase_5,224,1,48,23,686709620
906,23,Ticks_Phase_5,225,1,48,22,687173048
906,23,Ticks_Phase_5,226,5,42,127,687179000
906,23,Ticks_Phase_5,227,1,48,24,687689820
906,23,Ticks_Phase_5,228,5,42,127,687728940
906,23,Ticks_Phase_5,229,5,42,127,688228708
906,23,Ticks_Phase_5,230,1,48,21,688298628
906,23,Ticks_Phase_5,231,5,42,127,688728396
906,23,Ticks_Phase_5,232,1,48,17,688739900
906,23,Ticks_Phase_5,233,1,48,15,689211496
906,23,Ticks_Phase_5,234,5,42,127,689229272
906,23,Ticks_Phase_5,235,1,48,15,689702788
906,23,Ticks_Phase_5,236,5,42,127,689728812
906,23,Ticks_Phase_5,237,1,48,17,690187660
906,23,Ticks_Phase_5,238,5,42,127,690228648
906,23,Ticks_Phase_5,239,1,48,22,690694724
906,23,Ticks_Phase_5,240,5,42,127,690729456
906,23,Ticks_Phase_5,241,1,48,20,691199732
906,23,Ticks_Phase_5,242,5,42,127,691228996
906,23,Ticks_Phase_5,243,1,48,20,691686772
906,23,Ticks_Phase_5,244,5,42,127,691728756
906,23,Ticks_Phase_5,245,1,48,21,692161740
906,23,Ticks_Phase_5,246,5,42,127,692228568
906,23,Ticks_Phase_5,247,1,48,23,692718344
906,23,Ticks_Phase_5,248,5,42,127,692729156
906,23,Ticks_Phase_5,249,1,48,21,693176848
906,23,Ticks_Phase_5,250,5,42,127,693228844
906,23,Ticks_Phase_5,251,1,48,24,693682220
906,23,Ticks_Phase_5,252,5,42,127,693728680
906,23,Ticks_Phase_5,253,1,48,25,694208872
906,23,Ticks_Phase_5,254,5,42,127,694229636
906,23,Ticks_Phase_5,255,5,42,127,694728960
906,23,Ticks_Phase_5,256,1,48,24,694735740
906,23,Ticks_Phase_5,257,1,48,22,695158668
906,23,Ticks_Phase_5,258,5,42,127,695228716
906,23,Ticks_Phase_5,259,5,42,127,695728560
906,23,Ticks_Phase_5,260,1,48,24,695735192
906,23,Ticks_Phase_5,261,1,48,22,696215776
906,23,Ticks_Phase_5,262,5,42,127,696328752
906,23,Ticks_Phase_5,263,5,42,127,696829184
906,23,Ticks_Phase_5,264,1,48,19,696905040
906,23,Ticks_Phase_5,265,1,48,19,697287056
906,23,Ticks_Phase_5,266,5,42,127,697328940
906,23,Ticks_Phase_5,267,5,42,127,697828712
906,23,Ticks_Phase_5,268,1,48,16,697832424
906,23,Ticks_Phase_5,269,1,48,20,698323564
906,23,Ticks_Phase_5,270,5,42,127,698328688
906,23,Ticks_Phase_5,271,1,48,16,698801612
906,23,Ticks_Phase_5,272,5,42,127,698829052
906,23,Ticks_Phase_5,273,1,48,19,699277568
906,23,Ticks_Phase_5,274,5,42,127,699328816
906,23,Ticks_Phase_5,275,1,48,20,699792672
906,23,Ticks_Phase_5,276,5,42,127,699828724
906,23,Ticks_Phase_5,277,5,42,127,700329540
906,23,Ticks_Phase_5,278,1,48,25,700332808
906,23,Ticks_Phase_5,279,1,48,26,700796308
906,23,Ticks_Phase_5,280,5,42,127,700829000
906,23,Ticks_Phase_5,281,1,48,24,701314496
906,23,Ticks_Phase_5,282,5,42,127,701328688
906,23,Ticks_Phase_5,283,1,48,22,701796824
906,23,Ticks_Phase_5,284,5,42,127,701828748
906,23,Ticks_Phase_5,285,1,48,24,702307668
906,23,Ticks_Phase_5,286,5,42,127,702329112
906,23,Ticks_Phase_5,287,1,48,20,702814984
906,23,Ticks_Phase_5,288,5,42,127,702828952
906,23,Ticks_Phase_5,289,1,48,21,703302024
906,23,Ticks_Phase_5,290,5,42,127,703328712
906,23,Ticks_Phase_5,291,1,48,21,703808304
906,23,Ticks_Phase_5,292,5,42,127,703829524
906,23,Ticks_Phase_5,293,1,48,23,704279688
906,23,Ticks_Phase_5,294,5,42,127,704329212
906,23,Ticks_Phase_5,295,1,48,24,704810524
906,23,Ticks_Phase_5,296,5,42,127,704828752
906,23,Ticks_Phase_5,297,1,48,24,705288276
906,23,Ticks_Phase_5,298,5,42,127,705328588
906,23,Ticks_Phase_5,299,5,42,127,705728884
906,23,Ticks_Phase_5,300,1,48,22,705831480
906,23,Ticks_Phase_5,301,1,48,23,706207496
906,23,Ticks_Phase_5,302,5,42,127,706228492
906,23,Ticks_Phase_5,303,1,48,21,706682092
906,23,Ticks_Phase_5,304,5,42,127,706729600
906,23,Ticks_Phase_5,305,1,48,25,707177668
906,23,Ticks_Phase_5,306,5,42,127,707228988
906,23,Ticks_Phase_5,307,1,48,23,707696828
906,23,Ticks_Phase_5,308,5,42,127,707728824
906,23,Ticks_Phase_5,309,1,48,27,708175828
906,23,Ticks_Phase_5,310,5,42,127,708228512
906,23,Ticks_Phase_5,311,1,48,22,708704500
906,23,Ticks_Phase_5,312,5,42,127,708729544
906,23,Ticks_Phase_5,313,1,48,27,709207792
906,23,Ticks_Phase_5,314,5,42,127,709228788
906,23,Ticks_Phase_5,315,1,48,26,709696776
906,23,Ticks_Phase_5,316,5,42,127,709728700
906,23,Ticks_Phase_5,317,1,48,25,710205512
906,23,Ticks_Phase_5,318,5,42,127,710229436
906,23,Ticks_Phase_5,319,1,48,23,710693740
906,23,Ticks_Phase_5,320,5,42,127,710729272
906,23,Ticks_Phase_5,321,1,48,22,711190212
906,23,Ticks_Phase_5,322,5,42,127,711228664
906,23,Ticks_Phase_5,323,1,48,23,711725012
906,23,Ticks_Phase_5,324,5,42,127,711728572
906,23,Ticks_Phase_5,325,1,48,21,712206204
906,23,Ticks_Phase_5,326,5,42,127,712229308
906,23,Ticks_Phase_5,327,1,48,26,712710148
906,23,Ticks_Phase_5,328,5,42,127,712728972
906,23,Ticks_Phase_5,329,5,42,127,713228592
906,23,Ticks_Phase_5,330,1,48,20,713240624
906,23,Ticks_Phase_5,331,1,48,21,713704172
906,23,Ticks_Phase_5,332,5,42,127,713729372
906,23,Ticks_Phase_5,333,1,48,23,714198328
906,23,Ticks_Phase_5,334,5,42,127,714228984
906,23,Ticks_Phase_5,335,1,48,21,714676824
906,23,Ticks_Phase_5,336,5,42,127,714728748
906,23,Ticks_Phase_5,337,1,48,19,715207364
906,23,Ticks_Phase_5,338,5,42,127,715228660
906,23,Ticks_Phase_5,0,9999,9999,9999,630706284
906,23,Ticks_Phase_5,1,9999,9999,9999,631207036
906,23,Ticks_Phase_5,2,9999,9999,9999,631706728
906,23,Ticks_Phase_5,3,9999,9999,9999,632206408
906,23,Ticks_Phase_5,4,9999,9999,9999,632706172
906,23,Ticks_Phase_5,5,9999,9999,9999,633206908
906,23,Ticks_Phase_5,6,9999,9999,9999,633706604
906,23,Ticks_Phase_5,7,9999,9999,9999,634206292
906,23,Ticks_Phase_5,8,9999,9999,9999,634707024
906,23,Ticks_Phase_5,9,9999,9999,9999,635206712
906,23,Ticks_Phase_5,10,9999,9999,9999,635706468
906,23,Ticks_Phase_5,11,9999,9999,9999,636206156
906,23,Ticks_Phase_5,12,9999,9999,9999,636706892
906,23,Ticks_Phase_5,13,9999,9999,9999,637206592
906,23,Ticks_Phase_5,14,9999,9999,9999,637706344
906,23,Ticks_Phase_5,15,9999,9999,9999,638207052
906,23,Ticks_Phase_5,16,9999,9999,9999,638706816
906,23,Ticks_Phase_5,17,9999,9999,9999,639206528
906,23,Ticks_Phase_5,18,9999,9999,9999,639706200
906,23,Ticks_Phase_5,19,9999,9999,9999,640206936
906,23,Ticks_Phase_5,20,9999,9999,9999,640706620
906,23,Ticks_Phase_5,21,9999,9999,9999,641206344
906,23,Ticks_Phase_5,22,9999,9999,9999,641707124
906,23,Ticks_Phase_5,23,9999,9999,9999,642217064
906,23,Ticks_Phase_5,24,9999,9999,9999,642716752
906,23,Ticks_Phase_5,25,9999,9999,9999,643216440
906,23,Ticks_Phase_5,26,9999,9999,9999,643716208
906,23,Ticks_Phase_5,27,9999,9999,9999,644216944
906,23,Ticks_Phase_5,28,9999,9999,9999,644716632
906,23,Ticks_Phase_5,29,9999,9999,9999,645216312
906,23,Ticks_Phase_5,30,9999,9999,9999,645706864
906,23,Ticks_Phase_5,31,9999,9999,9999,646206556
906,23,Ticks_Phase_5,32,9999,9999,9999,646706244
906,23,Ticks_Phase_5,33,9999,9999,9999,647206984
906,23,Ticks_Phase_5,34,9999,9999,9999,647706740
906,23,Ticks_Phase_5,35,9999,9999,9999,648206428
906,23,Ticks_Phase_5,36,9999,9999,9999,648706172
906,23,Ticks_Phase_5,37,9999,9999,9999,649206900
906,23,Ticks_Phase_5,38,9999,9999,9999,649706592
906,23,Ticks_Phase_5,39,9999,9999,9999,650206284
906,23,Ticks_Phase_5,40,9999,9999,9999,650707020
906,23,Ticks_Phase_5,41,9999,9999,9999,651206784
906,23,Ticks_Phase_5,42,9999,9999,9999,651706464
906,23,Ticks_Phase_5,43,9999,9999,9999,652206156
906,23,Ticks_Phase_5,44,9999,9999,9999,652706896
906,23,Ticks_Phase_5,45,9999,9999,9999,653206652
906,23,Ticks_Phase_5,46,9999,9999,9999,653706344
906,23,Ticks_Phase_5,47,9999,9999,9999,654207080
906,23,Ticks_Phase_5,48,9999,9999,9999,654717028
906,23,Ticks_Phase_5,49,9999,9999,9999,655216720
906,23,Ticks_Phase_5,50,9999,9999,9999,655716476
906,23,Ticks_Phase_5,51,9999,9999,9999,656216168
906,23,Ticks_Phase_5,52,9999,9999,9999,656716904
906,23,Ticks_Phase_5,53,9999,9999,9999,657216596
906,23,Ticks_Phase_5,54,9999,9999,9999,657716284
906,23,Ticks_Phase_5,55,9999,9999,9999,658217060
906,23,Ticks_Phase_5,56,9999,9999,9999,658716748
906,23,Ticks_Phase_5,57,9999,9999,9999,659216512
906,23,Ticks_Phase_5,58,9999,9999,9999,659716172
906,23,Ticks_Phase_5,59,9999,9999,9999,660216908
906,23,Ticks_Phase_5,60,9999,9999,9999,660716672
906,23,Ticks_Phase_5,61,9999,9999,9999,661216360
906,23,Ticks_Phase_5,62,9999,9999,9999,661717096
906,23,Ticks_Phase_5,63,9999,9999,9999,662216784
906,23,Ticks_Phase_5,64,9999,9999,9999,662736992
906,23,Ticks_Phase_5,65,9999,9999,9999,663236680
906,23,Ticks_Phase_5,66,9999,9999,9999,663736444
906,23,Ticks_Phase_5,67,9999,9999,9999,664236132
906,23,Ticks_Phase_5,68,9999,9999,9999,664736872
906,23,Ticks_Phase_5,69,9999,9999,9999,665236556
906,23,Ticks_Phase_5,70,9999,9999,9999,665736316
906,23,Ticks_Phase_5,71,9999,9999,9999,666237052
906,23,Ticks_Phase_5,72,9999,9999,9999,666736744
906,23,Ticks_Phase_5,73,9999,9999,9999,667236432
906,23,Ticks_Phase_5,74,9999,9999,9999,667736120
906,23,Ticks_Phase_5,75,9999,9999,9999,668236928
906,23,Ticks_Phase_5,76,9999,9999,9999,668736616
906,23,Ticks_Phase_5,77,9999,9999,9999,669236304
906,23,Ticks_Phase_5,78,9999,9999,9999,669737040
906,23,Ticks_Phase_5,79,9999,9999,9999,670236728
906,23,Ticks_Phase_5,80,9999,9999,9999,670736492
906,23,Ticks_Phase_5,81,9999,9999,9999,671216764
906,23,Ticks_Phase_5,82,9999,9999,9999,671716456
906,23,Ticks_Phase_5,83,9999,9999,9999,672216144
906,23,Ticks_Phase_5,84,9999,9999,9999,672716872
906,23,Ticks_Phase_5,85,9999,9999,9999,673216636
906,23,Ticks_Phase_5,86,9999,9999,9999,673716324
906,23,Ticks_Phase_5,87,9999,9999,9999,674217056
906,23,Ticks_Phase_5,88,9999,9999,9999,674716748
906,23,Ticks_Phase_5,89,9999,9999,9999,675216440
906,23,Ticks_Phase_5,90,9999,9999,9999,675716204
906,23,Ticks_Phase_5,91,9999,9999,9999,676216940
906,23,Ticks_Phase_5,92,9999,9999,9999,676716620
906,23,Ticks_Phase_5,93,9999,9999,9999,677216316
906,23,Ticks_Phase_5,94,9999,9999,9999,677717048
906,23,Ticks_Phase_5,95,9999,9999,9999,678216804
906,23,Ticks_Phase_5,96,9999,9999,9999,678716500
906,23,Ticks_Phase_5,97,9999,9999,9999,679167036
906,23,Ticks_Phase_5,98,9999,9999,9999,679666796
906,23,Ticks_Phase_5,99,9999,9999,9999,680166484
906,23,Ticks_Phase_5,100,9999,9999,9999,680666172
906,23,Ticks_Phase_5,101,9999,9999,9999,681166908
906,23,Ticks_Phase_5,102,9999,9999,9999,681666672
906,23,Ticks_Phase_5,103,9999,9999,9999,682166356
906,23,Ticks_Phase_5,104,9999,9999,9999,682667092
906,23,Ticks_Phase_5,105,9999,9999,9999,683177040
906,23,Ticks_Phase_5,106,9999,9999,9999,683676800
906,23,Ticks_Phase_5,107,9999,9999,9999,684176488
906,23,Ticks_Phase_5,108,9999,9999,9999,684676176
906,23,Ticks_Phase_5,109,9999,9999,9999,685176920
906,23,Ticks_Phase_5,110,9999,9999,9999,685676608
906,23,Ticks_Phase_5,111,9999,9999,9999,686176372
906,23,Ticks_Phase_5,112,9999,9999,9999,686677104
906,23,Ticks_Phase_5,113,9999,9999,9999,687176788
906,23,Ticks_Phase_5,114,9999,9999,9999,687726652
906,23,Ticks_Phase_5,115,9999,9999,9999,688226420
906,23,Ticks_Phase_5,116,9999,9999,9999,688726108
906,23,Ticks_Phase_5,117,9999,9999,9999,689226836
906,23,Ticks_Phase_5,118,9999,9999,9999,689726524
906,23,Ticks_Phase_5,119,9999,9999,9999,690226288
906,23,Ticks_Phase_5,120,9999,9999,9999,690727020
906,23,Ticks_Phase_5,121,9999,9999,9999,691226708
906,23,Ticks_Phase_5,122,9999,9999,9999,691726396
906,23,Ticks_Phase_5,123,9999,9999,9999,692226136
906,23,Ticks_Phase_5,124,9999,9999,9999,692726868
906,23,Ticks_Phase_5,125,9999,9999,9999,693226556
906,23,Ticks_Phase_5,126,9999,9999,9999,693726320
906,23,Ticks_Phase_5,127,9999,9999,9999,694227052
906,23,Ticks_Phase_5,128,9999,9999,9999,694726748
906,23,Ticks_Phase_5,129,9999,9999,9999,695226428
906,23,Ticks_Phase_5,130,9999,9999,9999,695726200
906,23,Ticks_Phase_5,131,9999,9999,9999,696326216
906,23,Ticks_Phase_5,132,9999,9999,9999,696826972
906,23,Ticks_Phase_5,133,9999,9999,9999,697326656
906,23,Ticks_Phase_5,134,9999,9999,9999,697826424
906,23,Ticks_Phase_5,135,9999,9999,9999,698326104
906,23,Ticks_Phase_5,136,9999,9999,9999,698826840
906,23,Ticks_Phase_5,137,9999,9999,9999,699326528
906,23,Ticks_Phase_5,138,9999,9999,9999,699826292
906,23,Ticks_Phase_5,139,9999,9999,9999,700327032
906,23,Ticks_Phase_5,140,9999,9999,9999,700826712
906,23,Ticks_Phase_5,141,9999,9999,9999,701326400
906,23,Ticks_Phase_5,142,9999,9999,9999,701826164
906,23,Ticks_Phase_5,143,9999,9999,9999,702326900
906,23,Ticks_Phase_5,144,9999,9999,9999,702826588
906,23,Ticks_Phase_5,145,9999,9999,9999,703326280
906,23,Ticks_Phase_5,146,9999,9999,9999,703827012
906,23,Ticks_Phase_5,147,9999,9999,9999,704326776
906,23,Ticks_Phase_5,148,9999,9999,9999,704826464
906,23,Ticks_Phase_5,149,9999,9999,9999,705326152
906,23,Ticks_Phase_5,150,9999,9999,9999,705726524
906,23,Ticks_Phase_5,151,9999,9999,9999,706226280
906,23,Ticks_Phase_5,152,9999,9999,9999,706727016
906,23,Ticks_Phase_5,153,9999,9999,9999,707226700
906,23,Ticks_Phase_5,154,9999,9999,9999,707726464
906,23,Ticks_Phase_5,155,9999,9999,9999,708226152
906,23,Ticks_Phase_5,156,9999,9999,9999,708726888
906,23,Ticks_Phase_5,157,9999,9999,9999,709226576
906,23,Ticks_Phase_5,158,9999,9999,9999,709726264
906,23,Ticks_Phase_5,159,9999,9999,9999,710227000
906,23,Ticks_Phase_5,160,9999,9999,9999,710726764
906,23,Ticks_Phase_5,161,9999,9999,9999,711226448
906,23,Ticks_Phase_5,162,9999,9999,9999,711726136
906,23,Ticks_Phase_5,163,9999,9999,9999,712226872
906,23,Ticks_Phase_5,164,9999,9999,9999,712726612
906,23,Ticks_Phase_5,165,9999,9999,9999,713226304
906,23,Ticks_Phase_5,166,9999,9999,9999,713727084
906,23,Ticks_Phase_5,167,9999,9999,9999,714226772
906,23,Ticks_Phase_5,168,9999,9999,9999,714726460
906,23,Ticks_Phase_5,169,9999,9999,9999,715226224
907,20,Ticks_Linear_8,0,5,42,127,725781948
907,20,Ticks_Linear_8,1,5,42,127,726602288
907,20,Ticks_Linear_8,2,5,42,127,727422400
907,20,Ticks_Linear_8,3,1,48,24,727431964
907,20,Ticks_Linear_8,4,1,48,29,728208448
907,20,Ticks_Linear_8,5,5,42,127,728241516
907,20,Ticks_Linear_8,6,1,48,28,729011692
907,20,Ticks_Linear_8,7,5,42,127,729061756
907,20,Ticks_Linear_8,8,1,48,29,729832912
907,20,Ticks_Linear_8,9,5,42,127,729871620
907,20,Ticks_Linear_8,10,1,48,36,730608964
907,20,Ticks_Linear_8,11,5,42,127,730681824
907,20,Ticks_Linear_8,12,1,48,32,731442940
907,20,Ticks_Linear_8,13,5,42,127,731491656
907,20,Ticks_Linear_8,14,1,48,35,732277256
907,20,Ticks_Linear_8,15,5,42,127,732301568
907,20,Ticks_Linear_8,16,1,48,34,733066724
907,20,Ticks_Linear_8,17,5,42,127,733111628
907,20,Ticks_Linear_8,18,1,48,31,733896028
907,20,Ticks_Linear_8,19,5,42,127,733912544
907,20,Ticks_Linear_8,20,1,48,29,734702120
907,20,Ticks_Linear_8,21,5,42,127,734722452
907,20,Ticks_Linear_8,22,1,48,32,735528296
907,20,Ticks_Linear_8,23,5,42,127,735532460
907,20,Ticks_Linear_8,24,5,42,127,736332268
907,20,Ticks_Linear_8,25,1,48,35,736334636
907,20,Ticks_Linear_8,26,5,42,127,737131992
907,20,Ticks_Linear_8,27,1,48,35,737144248
907,20,Ticks_Linear_8,28,1,48,29,737900968
907,20,Ticks_Linear_8,29,5,42,127,737922420
907,20,Ticks_Linear_8,30,1,48,32,738680996
907,20,Ticks_Linear_8,31,5,42,127,738722144
907,20,Ticks_Linear_8,32,1,48,35,739511540
907,20,Ticks_Linear_8,33,5,42,127,739513028
907,20,Ticks_Linear_8,34,5,42,127,740302200
907,20,Ticks_Linear_8,35,1,48,35,740353176
907,20,Ticks_Linear_8,36,1,48,27,741071028
907,20,Ticks_Linear_8,37,5,42,127,741091588
907,20,Ticks_Linear_8,38,1,48,29,741828132
907,20,Ticks_Linear_8,39,5,42,127,741872212
907,20,Ticks_Linear_8,40,1,48,33,742620232
907,20,Ticks_Linear_8,41,5,42,127,742652316
907,20,Ticks_Linear_8,42,5,42,127,743431552
907,20,Ticks_Linear_8,43,1,48,32,743440520
907,20,Ticks_Linear_8,44,5,42,127,744212032
907,20,Ticks_Linear_8,45,1,48,35,744258056
907,20,Ticks_Linear_8,46,1,48,28,744969088
907,20,Ticks_Linear_8,47,5,42,127,744992204
907,20,Ticks_Linear_8,48,1,48,27,745706184
907,20,Ticks_Linear_8,49,5,42,127,745762120
907,20,Ticks_Linear_8,50,1,48,21,746486140
907,20,Ticks_Linear_8,51,5,42,127,746532188
907,20,Ticks_Linear_8,52,1,48,30,747300372
907,20,Ticks_Linear_8,53,5,42,127,747302108
907,20,Ticks_Linear_8,54,5,42,127,748072328
907,20,Ticks_Linear_8,55,1,48,33,748081300
907,20,Ticks_Linear_8,56,1,48,35,748842624
907,20,Ticks_Linear_8,57,5,42,127,748843960
907,20,Ticks_Linear_8,58,5,42,127,749602208
907,20,Ticks_Linear_8,59,1,48,35,749632068
907,20,Ticks_Linear_8,60,1,48,35,750352308
907,20,Ticks_Linear_8,61,5,42,127,750361936
907,20,Ticks_Linear_8,62,1,48,29,751085056
907,20,Ticks_Linear_8,63,5,42,127,751121968
907,20,Ticks_Linear_8,64,1,48,32,751826216
907,20,Ticks_Linear_8,65,5,42,127,751881700
907,20,Ticks_Linear_8,66,1,48,26,752616204
907,20,Ticks_Linear_8,67,5,42,127,752642536
907,20,Ticks_Linear_8,68,1,48,29,753360200
907,20,Ticks_Linear_8,69,5,42,127,753402320
907,20,Ticks_Linear_8,70,1,48,30,754125616
907,20,Ticks_Linear_8,71,5,42,127,754151948
907,20,Ticks_Linear_8,72,1,48,30,754850312
907,20,Ticks_Linear_8,73,5,42,127,754902320
907,20,Ticks_Linear_8,74,1,48,28,755626068
907,20,Ticks_Linear_8,75,5,42,127,755651872
907,20,Ticks_Linear_8,76,1,48,27,756387000
907,20,Ticks_Linear_8,77,5,42,127,756401496
907,20,Ticks_Linear_8,78,1,48,22,757118052
907,20,Ticks_Linear_8,79,5,42,127,757142056
907,20,Ticks_Linear_8,80,1,48,26,757848648
907,20,Ticks_Linear_8,81,5,42,127,757882320
907,20,Ticks_Linear_8,82,1,48,28,758615648
907,20,Ticks_Linear_8,83,5,42,127,758621536
907,20,Ticks_Linear_8,84,1,48,29,759342960
907,20,Ticks_Linear_8,85,5,42,127,759361876
907,20,Ticks_Linear_8,86,1,48,29,760097524
907,20,Ticks_Linear_8,87,5,42,127,760102360
907,20,Ticks_Linear_8,88,1,48,27,760826904
907,20,Ticks_Linear_8,89,5,42,127,760832268
907,20,Ticks_Linear_8,90,5,42,127,761561452
907,20,Ticks_Linear_8,91,1,48,25,761578720
907,20,Ticks_Linear_8,92,1,48,26,762271116
907,20,Ticks_Linear_8,93,5,42,127,762291748
907,20,Ticks_Linear_8,94,1,48,30,763008376
907,20,Ticks_Linear_8,95,5,42,127,763021900
907,20,Ticks_Linear_8,96,1,48,33,763711128
907,20,Ticks_Linear_8,97,5,42,127,763751828
907,20,Ticks_Linear_8,98,1,48,25,764436180
907,20,Ticks_Linear_8,99,5,42,127,764471944
907,20,Ticks_Linear_8,100,5,42,127,765191624
907,20,Ticks_Linear_8,101,1,48,25,765201112
907,20,Ticks_Linear_8,102,1,48,30,765821060
907,20,Ticks_Linear_8,103,5,42,127,765912380
907,20,Ticks_Linear_8,104,1,48,30,766637400
907,20,Ticks_Linear_8,105,5,42,127,766641712
907,20,Ticks_Linear_8,106,5,42,127,767362360
907,20,Ticks_Linear_8,107,1,48,29,767412960
907,20,Ticks_Linear_8,108,5,42,127,768082252
907,20,Ticks_Linear_8,109,1,48,27,768097952
907,20,Ticks_Linear_8,110,5,42,127,768791888
907,20,Ticks_Linear_8,111,1,48,34,768818516
907,20,Ticks_Linear_8,112,1,48,28,769499376
907,20,Ticks_Linear_8,113,5,42,127,769501564
907,20,Ticks_Linear_8,114,5,42,127,770212104
907,20,Ticks_Linear_8,115,1,48,28,770218736
907,20,Ticks_Linear_8,116,1,48,29,770910012
907,20,Ticks_Linear_8,117,5,42,127,770921808
907,20,Ticks_Linear_8,118,1,48,30,771590068
907,20,Ticks_Linear_8,119,5,42,127,771622232
907,20,Ticks_Linear_8,120,5,42,127,772321736
907,20,Ticks_Linear_8,121,1,48,35,772324928
907,20,Ticks_Linear_8,122,5,42,127,773022160
907,20,Ticks_Linear_8,123,1,48,35,773047520
907,20,Ticks_Linear_8,124,1,48,33,773681048
907,20,Ticks_Linear_8,125,5,42,127,773721676
907,20,Ticks_Linear_8,126,1,48,32,774385112
907,20,Ticks_Linear_8,127,5,42,127,774421876
907,20,Ticks_Linear_8,128,1,48,30,775069968
907,20,Ticks_Linear_8,129,5,42,127,775112092
907,20,Ticks_Linear_8,130,1,48,29,775763200
907,20,Ticks_Linear_8,131,5,42,127,775802180
907,20,Ticks_Linear_8,132,1,48,28,776463548
907,20,Ticks_Linear_8,133,5,42,127,776492492
907,20,Ticks_Linear_8,134,1,48,32,777180688
907,20,Ticks_Linear_8,135,5,42,127,777182180
907,20,Ticks_Linear_8,136,5,42,127,777871680
907,20,Ticks_Linear_8,137,1,48,33,777884532
907,20,Ticks_Linear_8,138,1,48,27,778541656
907,20,Ticks_Linear_8,139,5,42,127,778551804
907,20,Ticks_Linear_8,140,5,42,127,779231764
907,20,Ticks_Linear_8,141,1,48,29,779256596
907,20,Ticks_Linear_8,142,1,48,30,779893568
907,20,Ticks_Linear_8,143,5,42,127,779911512
907,20,Ticks_Linear_8,144,1,48,28,780529480
907,20,Ticks_Linear_8,145,5,42,127,780591564
907,20,Ticks_Linear_8,146,1,48,27,781226912
907,20,Ticks_Linear_8,147,5,42,127,781272716
907,20,Ticks_Linear_8,148,5,42,127,781952772
907,20,Ticks_Linear_8,149,1,48,32,781968700
907,20,Ticks_Linear_8,150,5,42,127,782621972
907,20,Ticks_Linear_8,151,1,48,27,782642016
907,20,Ticks_Linear_8,152,1,48,30,783259408
907,20,Ticks_Linear_8,153,5,42,127,783291736
907,20,Ticks_Linear_8,154,1,48,33,783926736
907,20,Ticks_Linear_8,155,5,42,127,783961528
907,20,Ticks_Linear_8,156,1,48,33,784618596
907,20,Ticks_Linear_8,157,5,42,127,784632048
907,20,Ticks_Linear_8,158,1,48,24,785286596
907,20,Ticks_Linear_8,159,5,42,127,785291508
907,20,Ticks_Linear_8,160,5,42,127,785952096
907,20,Ticks_Linear_8,161,1,48,31,785955288
907,20,Ticks_Linear_8,162,5,42,127,786611756
907,20,Ticks_Linear_8,163,1,48,29,786617572
907,20,Ticks_Linear_8,164,5,42,127,787271964
907,20,Ticks_Linear_8,165,1,48,28,787294256
907,20,Ticks_Linear_8,166,1,48,29,787909548
907,20,Ticks_Linear_8,167,5,42,127,787931688
907,20,Ticks_Linear_8,168,1,48,31,788539432
907,20,Ticks_Linear_8,169,5,42,127,788581716
907,20,Ticks_Linear_8,170,5,42,127,789231944
907,20,Ticks_Linear_8,171,1,48,29,789251040
907,20,Ticks_Linear_8,172,5,42,127,789882192
907,20,Ticks_Linear_8,173,1,48,31,789886728
907,20,Ticks_Linear_8,174,5,42,127,790531616
907,20,Ticks_Linear_8,175,1,48,30,790533628
907,20,Ticks_Linear_8,176,5,42,127,791181616
907,20,Ticks_Linear_8,177,1,48,33,791196488
907,20,Ticks_Linear_8,178,5,42,127,791821828
907,20,Ticks_Linear_8,179,1,48,32,791824948
907,20,Ticks_Linear_8,180,1,48,23,792455972
907,20,Ticks_Linear_8,181,5,42,127,792461784
907,20,Ticks_Linear_8,182,5,42,127,793101632
907,20,Ticks_Linear_8,183,1,48,28,793147436
907,20,Ticks_Linear_8,184,5,42,127,793741744
907,20,Ticks_Linear_8,185,1,48,28,793749276
907,20,Ticks_Linear_8,186,5,42,127,794381808
907,20,Ticks_Linear_8,187,1,48,28,794391296
907,20,Ticks_Linear_8,188,1,48,29,794983460
907,20,Ticks_Linear_8,189,5,42,127,795011656
907,20,Ticks_Linear_8,190,5,42,127,795642268
907,20,Ticks_Linear_8,191,1,48,28,795645684
907,20,Ticks_Linear_8,192,5,42,127,796271924
907,20,Ticks_Linear_8,193,1,48,31,796280736
907,20,Ticks_Linear_8,194,5,42,127,796901700
907,20,Ticks_Linear_8,195,1,48,28,796910516
907,20,Ticks_Linear_8,196,1,48,27,797490120
907,20,Ticks_Linear_8,197,5,42,127,797531424
907,20,Ticks_Linear_8,198,5,42,127,798151924
907,20,Ticks_Linear_8,199,1,48,27,798162908
907,20,Ticks_Linear_8,200,5,42,127,798771472
907,20,Ticks_Linear_8,201,1,48,18,798776684
907,20,Ticks_Linear_8,202,5,42,127,799392260
907,20,Ticks_Linear_8,203,1,48,23,799413508
907,20,Ticks_Linear_8,204,5,42,127,800011584
907,20,Ticks_Linear_8,205,1,48,26,800048768
907,20,Ticks_Linear_8,206,1,48,23,800607832
907,20,Ticks_Linear_8,207,5,42,127,800632220
907,20,Ticks_Linear_8,208,5,42,127,801241412
907,20,Ticks_Linear_8,209,1,48,32,801291136
907,20,Ticks_Linear_8,210,5,42,127,801851744
907,20,Ticks_Linear_8,211,1,48,26,801861836
907,20,Ticks_Linear_8,212,5,42,127,802461980
907,20,Ticks_Linear_8,213,1,48,28,802496924
907,20,Ticks_Linear_8,214,5,42,127,803072508
907,20,Ticks_Linear_8,215,1,48,27,803075576
907,20,Ticks_Linear_8,216,1,48,27,803642956
907,20,Ticks_Linear_8,217,5,42,127,803681564
907,20,Ticks_Linear_8,218,5,42,127,804281696
907,20,Ticks_Linear_8,219,1,48,22,804311924
907,20,Ticks_Linear_8,220,5,42,127,804881692
907,20,Ticks_Linear_8,221,1,48,27,804928620
907,20,Ticks_Linear_8,222,1,48,26,805479516
907,20,Ticks_Linear_8,223,5,42,127,805482032
907,20,Ticks_Linear_8,224,5,42,127,806081868
907,20,Ticks_Linear_8,225,1,48,30,806114116
907,20,Ticks_Linear_8,226,1,48,29,806672008
907,20,Ticks_Linear_8,227,5,42,127,806682084
907,20,Ticks_Linear_8,228,5,42,127,807271728
907,20,Ticks_Linear_8,229,1,48,27,807278740
907,20,Ticks_Linear_8,230,5,42,127,807861520
907,20,Ticks_Linear_8,231,1,48,23,807894368
907,20,Ticks_Linear_8,232,1,48,25,808446012
907,20,Ticks_Linear_8,233,5,42,127,808451472
907,20,Ticks_Linear_8,234,5,42,127,809042392
907,20,Ticks_Linear_8,235,1,48,28,809048052
907,20,Ticks_Linear_8,236,1,48,27,809618724
907,20,Ticks_Linear_8,237,5,42,127,809632248
907,20,Ticks_Linear_8,238,5,42,127,810211636
907,20,Ticks_Linear_8,239,1,48,27,810221576
907,20,Ticks_Linear_8,240,5,42,127,810792388
907,20,Ticks_Linear_8,241,1,48,27,810794756
907,20,Ticks_Linear_8,242,1,48,27,811359968
907,20,Ticks_Linear_8,243,5,42,127,811371840
907,20,Ticks_Linear_8,244,1,48,24,811926456
907,20,Ticks_Linear_8,245,5,42,127,811951444
907,20,Ticks_Linear_8,246,1,48,26,812523364
907,20,Ticks_Linear_8,247,5,42,127,812532168
907,20,Ticks_Linear_8,248,5,42,127,813101624
907,20,Ticks_Linear_8,249,1,48,28,813108032
907,20,Ticks_Linear_8,250,5,42,127,813671792
907,20,Ticks_Linear_8,251,1,48,36,813684644
907,20,Ticks_Linear_8,252,5,42,127,814242336
907,20,Ticks_Linear_8,253,1,48,28,814265148
907,20,Ticks_Linear_8,254,5,42,127,814811456
907,20,Ticks_Linear_8,255,1,48,31,814835916
907,20,Ticks_Linear_8,256,1,48,28,815359628
907,20,Ticks_Linear_8,257,5,42,127,815381792
907,20,Ticks_Linear_8,258,5,42,127,815942228
907,20,Ticks_Linear_8,259,1,48,29,815956504
907,20,Ticks_Linear_8,260,5,42,127,816502364
907,20,Ticks_Linear_8,261,1,48,30,816521064
907,20,Ticks_Linear_8,262,1,48,26,817036392
907,20,Ticks_Linear_8,263,5,42,127,817062268
907,20,Ticks_Linear_8,264,5,42,127,817622336
907,20,Ticks_Linear_8,265,1,48,30,817626280
907,20,Ticks_Linear_8,266,1,48,32,818167588
907,20,Ticks_Linear_8,267,5,42,127,818181588
907,20,Ticks_Linear_8,268,1,48,27,818689716
907,20,Ticks_Linear_8,269,5,42,127,818732288
907,20,Ticks_Linear_8,270,1,48,28,819275676
907,20,Ticks_Linear_8,271,5,42,127,819282164
907,20,Ticks_Linear_8,272,1,48,33,819819720
907,20,Ticks_Linear_8,273,5,42,127,819832408
907,20,Ticks_Linear_8,274,1,48,29,820366964
907,20,Ticks_Linear_8,275,5,42,127,820382284
907,20,Ticks_Linear_8,276,1,48,24,820905008
907,20,Ticks_Linear_8,277,5,42,127,820932084
907,20,Ticks_Linear_8,278,1,48,26,821459744
907,20,Ticks_Linear_8,279,5,42,127,821471628
907,20,Ticks_Linear_8,280,5,42,127,822012296
907,20,Ticks_Linear_8,281,1,48,28,822044420
907,20,Ticks_Linear_8,282,5,42,127,822552084
907,20,Ticks_Linear_8,283,1,48,26,822565164
907,20,Ticks_Linear_8,284,1,48,24,823048216
907,20,Ticks_Linear_8,285,5,42,127,823091548
907,20,Ticks_Linear_8,286,1,48,33,823576444
907,20,Ticks_Linear_8,287,5,42,127,823632208
907,20,Ticks_Linear_8,288,1,48,29,824141160
907,20,Ticks_Linear_8,289,5,42,127,824161640
907,20,Ticks_Linear_8,290,1,48,33,824688928
907,20,Ticks_Linear_8,291,5,42,127,824692116
907,20,Ticks_Linear_8,292,5,42,127,825221480
907,20,Ticks_Linear_8,293,1,48,27,825230748
907,20,Ticks_Linear_8,294,1,48,31,825722632
907,20,Ticks_Linear_8,295,5,42,127,825752028
907,20,Ticks_Linear_8,296,1,48,25,826265536
907,20,Ticks_Linear_8,297,5,42,127,826282356
907,20,Ticks_Linear_8,298,1,48,27,826771308
907,20,Ticks_Linear_8,299,5,42,127,826801528
907,20,Ticks_Linear_8,300,1,48,27,827294896
907,20,Ticks_Linear_8,301,5,42,127,827321600
907,20,Ticks_Linear_8,302,1,48,29,827800892
907,20,Ticks_Linear_8,303,5,42,127,827842112
907,20,Ticks_Linear_8,304,1,48,26,828326416
907,20,Ticks_Linear_8,305,5,42,127,828361960
907,20,Ticks_Linear_8,306,1,48,25,828854580
907,20,Ticks_Linear_8,307,5,42,127,828882328
907,20,Ticks_Linear_8,308,1,48,27,829374420
907,20,Ticks_Linear_8,309,5,42,127,829392212
907,20,Ticks_Linear_8,310,1,48,27,829871952
907,20,Ticks_Linear_8,311,5,42,127,829902320
907,20,Ticks_Linear_8,312,5,42,127,830412288
907,20,Ticks_Linear_8,313,1,48,26,830435100
907,20,Ticks_Linear_8,314,1,48,26,830922172
907,20,Ticks_Linear_8,315,5,42,127,830923508
907,20,Ticks_Linear_8,316,5,42,127,831432208
907,20,Ticks_Linear_8,317,1,48,24,831450908
907,20,Ticks_Linear_8,318,5,42,127,831931832
907,20,Ticks_Linear_8,319,1,48,28,831937644
907,20,Ticks_Linear_8,320,5,42,127,832431456
907,20,Ticks_Linear_8,321,1,48,21,832459580
907,20,Ticks_Linear_8,322,5,42,127,832932204
907,20,Ticks_Linear_8,323,1,48,25,832948120
907,20,Ticks_Linear_8,324,5,42,127,833432124
907,20,Ticks_Linear_8,325,1,48,24,833452768
907,20,Ticks_Linear_8,326,5,42,127,833931604
907,20,Ticks_Linear_8,327,1,48,19,833946400
907,20,Ticks_Linear_8,328,5,42,127,834422092
907,20,Ticks_Linear_8,329,1,48,23,834454044
907,20,Ticks_Linear_8,330,5,42,127,834911680
907,20,Ticks_Linear_8,331,1,48,21,834918764
907,20,Ticks_Linear_8,332,5,42,127,835402244
907,20,Ticks_Linear_8,333,1,48,22,835421844
907,20,Ticks_Linear_8,334,5,42,127,835891684
907,20,Ticks_Linear_8,335,1,48,22,835892652
907,20,Ticks_Linear_8,336,5,42,127,836382024
907,20,Ticks_Linear_8,0,9999,9999,9999,725779576
907,20,Ticks_Linear_8,1,9999,9999,9999,726599764
907,20,Ticks_Linear_8,2,9999,9999,9999,727420028
907,20,Ticks_Linear_8,3,9999,9999,9999,728239216
907,20,Ticks_Linear_8,4,9999,9999,9999,729059384
907,20,Ticks_Linear_8,5,9999,9999,9999,729869396
907,20,Ticks_Linear_8,6,9999,9999,9999,730679376
907,20,Ticks_Linear_8,7,9999,9999,9999,731489360
907,20,Ticks_Linear_8,8,9999,9999,9999,732299344
907,20,Ticks_Linear_8,9,9999,9999,9999,733109328
907,20,Ticks_Linear_8,10,9999,9999,9999,733910096
907,20,Ticks_Linear_8,11,9999,9999,9999,734720080
907,20,Ticks_Linear_8,12,9999,9999,9999,735530088
907,20,Ticks_Linear_8,13,9999,9999,9999,736329820
907,20,Ticks_Linear_8,14,9999,9999,9999,737129544
907,20,Ticks_Linear_8,15,9999,9999,9999,737920124
907,20,Ticks_Linear_8,16,9999,9999,9999,738719848
907,20,Ticks_Linear_8,17,9999,9999,9999,739509316
907,20,Ticks_Linear_8,18,9999,9999,9999,740299904
907,20,Ticks_Linear_8,19,9999,9999,9999,741089364
907,20,Ticks_Linear_8,20,9999,9999,9999,741869688
907,20,Ticks_Linear_8,21,9999,9999,9999,742649944
907,20,Ticks_Linear_8,22,9999,9999,9999,743429180
907,20,Ticks_Linear_8,23,9999,9999,9999,744209508
907,20,Ticks_Linear_8,24,9999,9999,9999,744989756
907,20,Ticks_Linear_8,25,9999,9999,9999,745759824
907,20,Ticks_Linear_8,26,9999,9999,9999,746529888
907,20,Ticks_Linear_8,27,9999,9999,9999,747299908
907,20,Ticks_Linear_8,28,9999,9999,9999,748069956
907,20,Ticks_Linear_8,29,9999,9999,9999,748840028
907,20,Ticks_Linear_8,30,9999,9999,9999,749599836
907,20,Ticks_Linear_8,31,9999,9999,9999,750359636
907,20,Ticks_Linear_8,32,9999,9999,9999,751119444
907,20,Ticks_Linear_8,33,9999,9999,9999,751879256
907,20,Ticks_Linear_8,34,9999,9999,9999,752640088
907,20,Ticks_Linear_8,35,9999,9999,9999,753399872
907,20,Ticks_Linear_8,36,9999,9999,9999,754149500
907,20,Ticks_Linear_8,37,9999,9999,9999,754900020
907,20,Ticks_Linear_8,38,9999,9999,9999,755649648
907,20,Ticks_Linear_8,39,9999,9999,9999,756399196
907,20,Ticks_Linear_8,40,9999,9999,9999,757139536
907,20,Ticks_Linear_8,41,9999,9999,9999,757879872
907,20,Ticks_Linear_8,42,9999,9999,9999,758619236
907,20,Ticks_Linear_8,43,9999,9999,9999,759359576
907,20,Ticks_Linear_8,44,9999,9999,9999,760099916
907,20,Ticks_Linear_8,45,9999,9999,9999,760830044
907,20,Ticks_Linear_8,46,9999,9999,9999,761559152
907,20,Ticks_Linear_8,47,9999,9999,9999,762289224
907,20,Ticks_Linear_8,48,9999,9999,9999,763019376
907,20,Ticks_Linear_8,49,9999,9999,9999,763749456
907,20,Ticks_Linear_8,50,9999,9999,9999,764469348
907,20,Ticks_Linear_8,51,9999,9999,9999,765189176
907,20,Ticks_Linear_8,52,9999,9999,9999,765910084
907,20,Ticks_Linear_8,53,9999,9999,9999,766639188
907,20,Ticks_Linear_8,54,9999,9999,9999,767360060
907,20,Ticks_Linear_8,55,9999,9999,9999,768079956
907,20,Ticks_Linear_8,56,9999,9999,9999,768789588
907,20,Ticks_Linear_8,57,9999,9999,9999,769499228
907,20,Ticks_Linear_8,58,9999,9999,9999,770209880
907,20,Ticks_Linear_8,59,9999,9999,9999,770919508
907,20,Ticks_Linear_8,60,9999,9999,9999,771619932
907,20,Ticks_Linear_8,61,9999,9999,9999,772319288
907,20,Ticks_Linear_8,62,9999,9999,9999,773019712
907,20,Ticks_Linear_8,63,9999,9999,9999,773719156
907,20,Ticks_Linear_8,64,9999,9999,9999,774419576
907,20,Ticks_Linear_8,65,9999,9999,9999,775109716
907,20,Ticks_Linear_8,66,9999,9999,9999,775799880
907,20,Ticks_Linear_8,67,9999,9999,9999,776490044
907,20,Ticks_Linear_8,68,9999,9999,9999,777179216
907,20,Ticks_Linear_8,69,9999,9999,9999,777869380
907,20,Ticks_Linear_8,70,9999,9999,9999,778549356
907,20,Ticks_Linear_8,71,9999,9999,9999,779229240
907,20,Ticks_Linear_8,72,9999,9999,9999,779909212
907,20,Ticks_Linear_8,73,9999,9999,9999,780589116
907,20,Ticks_Linear_8,74,9999,9999,9999,781270116
907,20,Ticks_Linear_8,75,9999,9999,9999,781950028
907,20,Ticks_Linear_8,76,9999,9999,9999,782619748
907,20,Ticks_Linear_8,77,9999,9999,9999,783289436
907,20,Ticks_Linear_8,78,9999,9999,9999,783959156
907,20,Ticks_Linear_8,79,9999,9999,9999,784629824
907,20,Ticks_Linear_8,80,9999,9999,9999,785289284
907,20,Ticks_Linear_8,81,9999,9999,9999,785949796
907,20,Ticks_Linear_8,82,9999,9999,9999,786609236
907,20,Ticks_Linear_8,83,9999,9999,9999,787269740
907,20,Ticks_Linear_8,84,9999,9999,9999,787929168
907,20,Ticks_Linear_8,85,9999,9999,9999,788579416
907,20,Ticks_Linear_8,86,9999,9999,9999,789229644
907,20,Ticks_Linear_8,87,9999,9999,9999,789879892
907,20,Ticks_Linear_8,88,9999,9999,9999,790529144
907,20,Ticks_Linear_8,89,9999,9999,9999,791179392
907,20,Ticks_Linear_8,90,9999,9999,9999,791819380
907,20,Ticks_Linear_8,91,9999,9999,9999,792459340
907,20,Ticks_Linear_8,92,9999,9999,9999,793099336
907,20,Ticks_Linear_8,93,9999,9999,9999,793739372
907,20,Ticks_Linear_8,94,9999,9999,9999,794379360
907,20,Ticks_Linear_8,95,9999,9999,9999,795009136
907,20,Ticks_Linear_8,96,9999,9999,9999,795639892
907,20,Ticks_Linear_8,97,9999,9999,9999,796269624
907,20,Ticks_Linear_8,98,9999,9999,9999,796899404
907,20,Ticks_Linear_8,99,9999,9999,9999,797529200
907,20,Ticks_Linear_8,100,9999,9999,9999,798149700
907,20,Ticks_Linear_8,101,9999,9999,9999,798769248
907,20,Ticks_Linear_8,102,9999,9999,9999,799389812
907,20,Ticks_Linear_8,103,9999,9999,9999,800009284
907,20,Ticks_Linear_8,104,9999,9999,9999,800629844
907,20,Ticks_Linear_8,105,9999,9999,9999,801239112
907,20,Ticks_Linear_8,106,9999,9999,9999,801849448
907,20,Ticks_Linear_8,107,9999,9999,9999,802459756
907,20,Ticks_Linear_8,108,9999,9999,9999,803070060
907,20,Ticks_Linear_8,109,9999,9999,9999,803679340
907,20,Ticks_Linear_8,110,9999,9999,9999,804279396
907,20,Ticks_Linear_8,111,9999,9999,9999,804879468
907,20,Ticks_Linear_8,112,9999,9999,9999,805479584
907,20,Ticks_Linear_8,113,9999,9999,9999,806079568
907,20,Ticks_Linear_8,114,9999,9999,9999,806679636
907,20,Ticks_Linear_8,115,9999,9999,9999,807269432
907,20,Ticks_Linear_8,116,9999,9999,9999,807859292
907,20,Ticks_Linear_8,117,9999,9999,9999,808449156
907,20,Ticks_Linear_8,118,9999,9999,9999,809039944
907,20,Ticks_Linear_8,119,9999,9999,9999,809629800
907,20,Ticks_Linear_8,120,9999,9999,9999,810209340
907,20,Ticks_Linear_8,121,9999,9999,9999,810790012
907,20,Ticks_Linear_8,122,9999,9999,9999,811369540
907,20,Ticks_Linear_8,123,9999,9999,9999,811949144
907,20,Ticks_Linear_8,124,9999,9999,9999,812529720
907,20,Ticks_Linear_8,125,9999,9999,9999,813099100
907,20,Ticks_Linear_8,126,9999,9999,9999,813669492
907,20,Ticks_Linear_8,127,9999,9999,9999,814239812
907,20,Ticks_Linear_8,128,9999,9999,9999,814809156
907,20,Ticks_Linear_8,129,9999,9999,9999,815379568
907,20,Ticks_Linear_8,130,9999,9999,9999,815939708
907,20,Ticks_Linear_8,131,9999,9999,9999,816499768
907,20,Ticks_Linear_8,132,9999,9999,9999,817059896
907,20,Ticks_Linear_8,133,9999,9999,9999,817620036
907,20,Ticks_Linear_8,134,9999,9999,9999,818179140
907,20,Ticks_Linear_8,135,9999,9999,9999,818730064
907,20,Ticks_Linear_8,136,9999,9999,9999,819279940
907,20,Ticks_Linear_8,137,9999,9999,9999,819829888
907,20,Ticks_Linear_8,138,9999,9999,9999,820379760
907,20,Ticks_Linear_8,139,9999,9999,9999,820929636
907,20,Ticks_Linear_8,140,9999,9999,9999,821469252
907,20,Ticks_Linear_8,141,9999,9999,9999,822009920
907,20,Ticks_Linear_8,142,9999,9999,9999,822549564
907,20,Ticks_Linear_8,143,9999,9999,9999,823089248
907,20,Ticks_Linear_8,144,9999,9999,9999,823629908
907,20,Ticks_Linear_8,145,9999,9999,9999,824159340
907,20,Ticks_Linear_8,146,9999,9999,9999,824689744
907,20,Ticks_Linear_8,147,9999,9999,9999,825219180
907,20,Ticks_Linear_8,148,9999,9999,9999,825749580
907,20,Ticks_Linear_8,149,9999,9999,9999,826280056
907,20,Ticks_Linear_8,150,9999,9999,9999,826799232
907,20,Ticks_Linear_8,151,9999,9999,9999,827319376
907,20,Ticks_Linear_8,152,9999,9999,9999,827839592
907,20,Ticks_Linear_8,153,9999,9999,9999,828359736
907,20,Ticks_Linear_8,154,9999,9999,9999,828879956
907,20,Ticks_Linear_8,155,9999,9999,9999,829389912
907,20,Ticks_Linear_8,156,9999,9999,9999,829899876
907,20,Ticks_Linear_8,157,9999,9999,9999,830409840
907,20,Ticks_Linear_8,158,9999,9999,9999,830919800
907,20,Ticks_Linear_8,159,9999,9999,9999,831429760
907,20,Ticks_Linear_8,160,9999,9999,9999,831929456
907,20,Ticks_Linear_8,161,9999,9999,9999,832429160
907,20,Ticks_Linear_8,162,9999,9999,9999,832929904
907,20,Ticks_Linear_8,163,9999,9999,9999,833429604
907,20,Ticks_Linear_8,164,9999,9999,9999,833929304
907,20,Ticks_Linear_8,165,9999,9999,9999,834419792
907,20,Ticks_Linear_8,166,9999,9999,9999,834909308
907,20,Ticks_Linear_8,167,9999,9999,9999,835399796
907,20,Ticks_Linear_8,168,9999,9999,9999,835889236
907,20,Ticks_Linear_8,169,9999,9999,9999,836379724
908,21,Ticks_Linear_5,0,5,42,127,845735424
908,21,Ticks_Linear_5,1,5,42,127,846214476
908,21,Ticks_Linear_5,2,5,42,127,846694952
908,21,Ticks_Linear_5,3,1,48,29,847145352
908,21,Ticks_Linear_5,4,5,42,127,847174896
908,21,Ticks_Linear_5,5,1,48,36,847638756
908,21,Ticks_Linear_5,6,5,42,127,847655200
908,21,Ticks_Linear_5,7,1,48,36,848120084
908,21,Ticks_Linear_5,8,5,42,127,848144864
908,21,Ticks_Linear_5,9,1,48,28,848604660
908,21,Ticks_Linear_5,10,5,42,127,848635248
908,21,Ticks_Linear_5,11,1,48,29,849095296
908,21,Ticks_Linear_5,12,5,42,127,849124912
908,21,Ticks_Linear_5,13,1,48,33,849599708
908,21,Ticks_Linear_5,14,5,42,127,849615252
908,21,Ticks_Linear_5,15,1,48,30,850090864
908,21,Ticks_Linear_5,16,5,42,127,850104844
908,21,Ticks_Linear_5,17,1,48,32,850581356
908,21,Ticks_Linear_5,18,5,42,127,850605516
908,21,Ticks_Linear_5,19,1,48,30,851071468
908,21,Ticks_Linear_5,20,5,42,127,851115324
908,21,Ticks_Linear_5,21,1,48,28,851609288
908,21,Ticks_Linear_5,22,5,42,127,851615024
908,21,Ticks_Linear_5,23,1,48,28,852113136
908,21,Ticks_Linear_5,24,5,42,127,852114800
908,21,Ticks_Linear_5,25,1,48,28,852608172
908,21,Ticks_Linear_5,26,5,42,127,852614652
908,21,Ticks_Linear_5,27,1,48,26,853088096
908,21,Ticks_Linear_5,28,5,42,127,853124460
908,21,Ticks_Linear_5,29,1,48,26,853620972
908,21,Ticks_Linear_5,30,5,42,127,853634420
908,21,Ticks_Linear_5,31,1,48,29,854125840
908,21,Ticks_Linear_5,32,5,42,127,854145352
908,21,Ticks_Linear_5,33,1,48,25,854636852
908,21,Ticks_Linear_5,34,5,42,127,854655236
908,21,Ticks_Linear_5,35,1,48,21,855142228
908,21,Ticks_Linear_5,36,5,42,127,855165268
908,21,Ticks_Linear_5,37,1,48,22,855617604
908,21,Ticks_Linear_5,38,5,42,127,855684444
908,21,Ticks_Linear_5,39,5,42,127,856204892
908,21,Ticks_Linear_5,40,1,48,23,856207492
908,21,Ticks_Linear_5,41,5,42,127,856724736
908,21,Ticks_Linear_5,42,1,48,26,856741552
908,21,Ticks_Linear_5,43,1,48,26,857240184
908,21,Ticks_Linear_5,44,5,42,127,857244948
908,21,Ticks_Linear_5,45,5,42,127,857765172
908,21,Ticks_Linear_5,46,1,48,24,857767840
908,21,Ticks_Linear_5,47,1,48,25,858289684
908,21,Ticks_Linear_5,48,5,42,127,858294744
908,21,Ticks_Linear_5,49,1,48,23,858798892
908,21,Ticks_Linear_5,50,5,42,127,858825072
908,21,Ticks_Linear_5,51,1,48,25,859331692
908,21,Ticks_Linear_5,52,5,42,127,859354428
908,21,Ticks_Linear_5,53,1,48,20,859856776
908,21,Ticks_Linear_5,54,5,42,127,859884904
908,21,Ticks_Linear_5,55,1,48,29,860406724
908,21,Ticks_Linear_5,56,5,42,127,860415620
908,21,Ticks_Linear_5,57,5,42,127,860955024
908,21,Ticks_Linear_5,58,1,48,31,860958664
908,21,Ticks_Linear_5,59,1,48,24,861485304
908,21,Ticks_Linear_5,60,5,42,127,861494556
908,21,Ticks_Linear_5,61,1,48,26,862013240
908,21,Ticks_Linear_5,62,5,42,127,862035292
908,21,Ticks_Linear_5,63,1,48,23,862542136
908,21,Ticks_Linear_5,64,5,42,127,862574832
908,21,Ticks_Linear_5,65,1,48,24,863081972
908,21,Ticks_Linear_5,66,5,42,127,863114672
908,21,Ticks_Linear_5,67,1,48,20,863604824
908,21,Ticks_Linear_5,68,5,42,127,863664620
908,21,Ticks_Linear_5,69,5,42,127,864215400
908,21,Ticks_Linear_5,70,1,48,26,864219040
908,21,Ticks_Linear_5,71,5,42,127,864765348
908,21,Ticks_Linear_5,72,1,48,27,864799020
908,21,Ticks_Linear_5,73,1,48,26,865311424
908,21,Ticks_Linear_5,74,5,42,127,865315140
908,21,Ticks_Linear_5,75,1,48,27,865829252
908,21,Ticks_Linear_5,76,5,42,127,865865016
908,21,Ticks_Linear_5,77,1,48,26,866398224
908,21,Ticks_Linear_5,78,5,42,127,866425220
908,21,Ticks_Linear_5,79,1,48,29,866956636
908,21,Ticks_Linear_5,80,5,42,127,866985280
908,21,Ticks_Linear_5,81,1,48,27,867517360
908,21,Ticks_Linear_5,82,5,42,127,867544664
908,21,Ticks_Linear_5,83,1,48,20,868021848
908,21,Ticks_Linear_5,84,5,42,127,868104748
908,21,Ticks_Linear_5,85,5,42,127,868664812
908,21,Ticks_Linear_5,86,1,48,26,868681784
908,21,Ticks_Linear_5,87,1,48,25,869234376
908,21,Ticks_Linear_5,88,5,42,127,869236020
908,21,Ticks_Linear_5,89,1,48,25,869778888
908,21,Ticks_Linear_5,90,5,42,127,869805664
908,21,Ticks_Linear_5,91,1,48,27,870356768
908,21,Ticks_Linear_5,92,5,42,127,870385044
908,21,Ticks_Linear_5,93,1,48,26,870926368
908,21,Ticks_Linear_5,94,5,42,127,870955384
908,21,Ticks_Linear_5,95,1,48,29,871512104
908,21,Ticks_Linear_5,96,5,42,127,871524656
908,21,Ticks_Linear_5,97,5,42,127,872105388
908,21,Ticks_Linear_5,98,1,48,22,872112176
908,21,Ticks_Linear_5,99,5,42,127,872684920
908,21,Ticks_Linear_5,100,1,48,22,872703124
908,21,Ticks_Linear_5,101,1,48,18,873262960
908,21,Ticks_Linear_5,102,5,42,127,873264616
908,21,Ticks_Linear_5,103,5,42,127,873845052
908,21,Ticks_Linear_5,104,1,48,21,873850940
908,21,Ticks_Linear_5,105,5,42,127,874424580
908,21,Ticks_Linear_5,106,1,48,24,874444552
908,21,Ticks_Linear_5,107,1,48,23,874980092
908,21,Ticks_Linear_5,108,5,42,127,875014536
908,21,Ticks_Linear_5,109,1,48,30,875578972
908,21,Ticks_Linear_5,110,5,42,127,875605372
908,21,Ticks_Linear_5,111,1,48,30,876162328
908,21,Ticks_Linear_5,112,5,42,127,876195312
908,21,Ticks_Linear_5,113,1,48,31,876758476
908,21,Ticks_Linear_5,114,5,42,127,876784876
908,21,Ticks_Linear_5,115,1,48,29,877329040
908,21,Ticks_Linear_5,116,5,42,127,877374840
908,21,Ticks_Linear_5,117,1,48,31,877955232
908,21,Ticks_Linear_5,118,5,42,127,877974964
908,21,Ticks_Linear_5,119,1,48,34,878571824
908,21,Ticks_Linear_5,120,5,42,127,878575088
908,21,Ticks_Linear_5,121,5,42,127,879175020
908,21,Ticks_Linear_5,122,1,48,29,879200604
908,21,Ticks_Linear_5,123,1,48,28,879755408
908,21,Ticks_Linear_5,124,5,42,127,879775064
908,21,Ticks_Linear_5,125,1,48,31,880352148
908,21,Ticks_Linear_5,126,5,42,127,880375260
908,21,Ticks_Linear_5,127,1,48,26,880939348
908,21,Ticks_Linear_5,128,5,42,127,880984620
908,21,Ticks_Linear_5,129,1,48,26,881528760
908,21,Ticks_Linear_5,130,5,42,127,881594856
908,21,Ticks_Linear_5,131,1,48,28,882189644
908,21,Ticks_Linear_5,132,5,42,127,882205112
908,21,Ticks_Linear_5,133,5,42,127,882815352
908,21,Ticks_Linear_5,134,1,48,29,882830972
908,21,Ticks_Linear_5,135,5,42,127,883424540
908,21,Ticks_Linear_5,136,1,48,24,883444656
908,21,Ticks_Linear_5,137,5,42,127,884045352
908,21,Ticks_Linear_5,138,1,48,24,884052216
908,21,Ticks_Linear_5,139,1,48,26,884652180
908,21,Ticks_Linear_5,140,5,42,127,884664644
908,21,Ticks_Linear_5,141,1,48,23,885255616
908,21,Ticks_Linear_5,142,5,42,127,885285384
908,21,Ticks_Linear_5,143,1,48,25,885893636
908,21,Ticks_Linear_5,144,5,42,127,885904756
908,21,Ticks_Linear_5,145,1,48,28,886490456
908,21,Ticks_Linear_5,146,5,42,127,886525472
908,21,Ticks_Linear_5,147,1,48,24,887091352
908,21,Ticks_Linear_5,148,5,42,127,887155424
908,21,Ticks_Linear_5,149,1,48,26,887729596
908,21,Ticks_Linear_5,150,5,42,127,887784680
908,21,Ticks_Linear_5,151,1,48,23,888369880
908,21,Ticks_Linear_5,152,5,42,127,888414632
908,21,Ticks_Linear_5,153,1,48,23,888982748
908,21,Ticks_Linear_5,154,5,42,127,889045312
908,21,Ticks_Linear_5,155,1,48,25,889631184
908,21,Ticks_Linear_5,156,5,42,127,889675264
908,21,Ticks_Linear_5,157,1,48,27,890280584
908,21,Ticks_Linear_5,158,5,42,127,890315228
908,21,Ticks_Linear_5,159,1,48,27,890954392
908,21,Ticks_Linear_5,160,5,42,127,890955892
908,21,Ticks_Linear_5,161,1,48,32,891588628
908,21,Ticks_Linear_5,162,5,42,127,891595404
908,21,Ticks_Linear_5,163,5,42,127,892235176
908,21,Ticks_Linear_5,164,1,48,27,892241512
908,21,Ticks_Linear_5,165,5,42,127,892875288
908,21,Ticks_Linear_5,166,1,48,25,892892572
908,21,Ticks_Linear_5,167,1,48,28,893501896
908,21,Ticks_Linear_5,168,5,42,127,893525452
908,21,Ticks_Linear_5,169,1,48,23,894158264
908,21,Ticks_Linear_5,170,5,42,127,894174484
908,21,Ticks_Linear_5,171,1,48,22,894812340
908,21,Ticks_Linear_5,172,5,42,127,894824804
908,21,Ticks_Linear_5,173,1,48,21,895366480
908,21,Ticks_Linear_5,174,5,42,127,895475236
908,21,Ticks_Linear_5,175,1,48,28,896109356
908,21,Ticks_Linear_5,176,5,42,127,896125276
908,21,Ticks_Linear_5,177,1,48,24,896764452
908,21,Ticks_Linear_5,178,5,42,127,896784808
908,21,Ticks_Linear_5,179,1,48,26,897427876
908,21,Ticks_Linear_5,180,5,42,127,897445216
908,21,Ticks_Linear_5,181,1,48,23,898098344
908,21,Ticks_Linear_5,182,5,42,127,898104824
908,21,Ticks_Linear_5,183,1,48,21,898739652
908,21,Ticks_Linear_5,184,5,42,127,898765232
908,21,Ticks_Linear_5,185,1,48,24,899386760
908,21,Ticks_Linear_5,186,5,42,127,899424616
908,21,Ticks_Linear_5,187,1,48,21,900037504
908,21,Ticks_Linear_5,188,5,42,127,900095236
908,21,Ticks_Linear_5,189,1,48,20,900754252
908,21,Ticks_Linear_5,190,5,42,127,900765000
908,21,Ticks_Linear_5,191,1,48,23,901408616
908,21,Ticks_Linear_5,192,5,42,127,901434868
908,21,Ticks_Linear_5,193,1,48,24,902084156
908,21,Ticks_Linear_5,194,5,42,127,902104488
908,21,Ticks_Linear_5,195,1,48,22,902723848
908,21,Ticks_Linear_5,196,5,42,127,902775104
908,21,Ticks_Linear_5,197,1,48,21,903374516
908,21,Ticks_Linear_5,198,5,42,127,903455232
908,21,Ticks_Linear_5,199,5,42,127,904135044
908,21,Ticks_Linear_5,200,1,48,21,904143336
908,21,Ticks_Linear_5,201,5,42,127,904815020
908,21,Ticks_Linear_5,202,1,48,21,904891004
908,21,Ticks_Linear_5,203,1,48,23,905479968
908,21,Ticks_Linear_5,204,5,42,127,905494916
908,21,Ticks_Linear_5,205,1,48,27,906172612
908,21,Ticks_Linear_5,206,5,42,127,906174724
908,21,Ticks_Linear_5,207,1,48,27,906848816
908,21,Ticks_Linear_5,208,5,42,127,906865256
908,21,Ticks_Linear_5,209,1,48,26,907502404
908,21,Ticks_Linear_5,210,5,42,127,907555272
908,21,Ticks_Linear_5,211,1,48,26,908152280
908,21,Ticks_Linear_5,212,5,42,127,908245264
908,21,Ticks_Linear_5,213,1,48,24,908889552
908,21,Ticks_Linear_5,214,5,42,127,908934452
908,21,Ticks_Linear_5,215,1,48,26,909612596
908,21,Ticks_Linear_5,216,5,42,127,909624688
908,21,Ticks_Linear_5,217,1,48,23,910309312
908,21,Ticks_Linear_5,218,5,42,127,910325084
908,21,Ticks_Linear_5,219,1,48,24,910976940
908,21,Ticks_Linear_5,220,5,42,127,911024536
908,21,Ticks_Linear_5,221,1,48,24,911704848
908,21,Ticks_Linear_5,222,5,42,127,911724960
908,21,Ticks_Linear_5,223,1,48,21,912401744
908,21,Ticks_Linear_5,224,5,42,127,912425304
908,21,Ticks_Linear_5,225,1,48,24,913105220
908,21,Ticks_Linear_5,226,5,42,127,913124584
908,21,Ticks_Linear_5,227,1,48,25,913825040
908,21,Ticks_Linear_5,228,5,42,127,913835340
908,21,Ticks_Linear_5,229,1,48,22,914524716
908,21,Ticks_Linear_5,230,5,42,127,914545124
908,21,Ticks_Linear_5,231,1,48,21,915244980
908,21,Ticks_Linear_5,232,5,42,127,915254608
908,21,Ticks_Linear_5,233,5,42,127,915965296
908,21,Ticks_Linear_5,234,1,48,23,915995004
908,21,Ticks_Linear_5,235,5,42,127,916675056
908,21,Ticks_Linear_5,236,1,48,23,916687536
908,21,Ticks_Linear_5,237,1,48,24,917388232
908,21,Ticks_Linear_5,238,5,42,127,917395012
908,21,Ticks_Linear_5,239,1,48,27,918100412
908,21,Ticks_Linear_5,240,5,42,127,918114608
908,21,Ticks_Linear_5,241,1,48,23,918809748
908,21,Ticks_Linear_5,242,5,42,127,918834428
908,21,Ticks_Linear_5,243,1,48,23,919532228
908,21,Ticks_Linear_5,244,5,42,127,919554320
908,21,Ticks_Linear_5,245,1,48,21,920226896
908,21,Ticks_Linear_5,246,5,42,127,920275384
908,21,Ticks_Linear_5,247,1,48,27,920970820
908,21,Ticks_Linear_5,248,5,42,127,921005464
908,21,Ticks_Linear_5,249,1,48,28,921690788
908,21,Ticks_Linear_5,250,5,42,127,921744828
908,21,Ticks_Linear_5,251,1,48,25,922445212
908,21,Ticks_Linear_5,252,5,42,127,922474904
908,21,Ticks_Linear_5,253,1,48,24,923175808
908,21,Ticks_Linear_5,254,5,42,127,923204984
908,21,Ticks_Linear_5,255,1,48,24,923913980
908,21,Ticks_Linear_5,256,5,42,127,923934988
908,21,Ticks_Linear_5,257,1,48,22,924618640
908,21,Ticks_Linear_5,258,5,42,127,924674352
908,21,Ticks_Linear_5,259,1,48,27,925338908
908,21,Ticks_Linear_5,260,5,42,127,925414884
908,21,Ticks_Linear_5,261,1,48,19,926138856
908,21,Ticks_Linear_5,262,5,42,127,926155072
908,21,Ticks_Linear_5,263,1,48,21,926859196
908,21,Ticks_Linear_5,264,5,42,127,926894512
908,21,Ticks_Linear_5,265,1,48,26,927611736
908,21,Ticks_Linear_5,266,5,42,127,927634852
908,21,Ticks_Linear_5,267,1,48,25,928380608
908,21,Ticks_Linear_5,268,5,42,127,928385448
908,21,Ticks_Linear_5,269,5,42,127,929134928
908,21,Ticks_Linear_5,270,1,48,20,929161032
908,21,Ticks_Linear_5,271,1,48,23,929866380
908,21,Ticks_Linear_5,272,5,42,127,929884544
908,21,Ticks_Linear_5,273,1,48,21,930537948
908,21,Ticks_Linear_5,274,5,42,127,930635052
908,21,Ticks_Linear_5,275,1,48,25,931357164
908,21,Ticks_Linear_5,276,5,42,127,931384688
908,21,Ticks_Linear_5,277,1,48,28,932129180
908,21,Ticks_Linear_5,278,5,42,127,932144424
908,21,Ticks_Linear_5,279,1,48,25,932879024
908,21,Ticks_Linear_5,280,5,42,127,932905280
908,21,Ticks_Linear_5,281,1,48,19,933603472
908,21,Ticks_Linear_5,282,5,42,127,933665164
908,21,Ticks_Linear_5,283,1,48,20,934392396
908,21,Ticks_Linear_5,284,5,42,127,934425044
908,21,Ticks_Linear_5,285,1,48,25,935162164
908,21,Ticks_Linear_5,286,5,42,127,935184704
908,21,Ticks_Linear_5,287,1,48,28,935947468
908,21,Ticks_Linear_5,288,5,42,127,935954772
908,21,Ticks_Linear_5,289,5,42,127,936724844
908,21,Ticks_Linear_5,290,1,48,27,936731704
908,21,Ticks_Linear_5,291,5,42,127,937494836
908,21,Ticks_Linear_5,292,1,48,22,937495876
908,21,Ticks_Linear_5,293,1,48,25,938254452
908,21,Ticks_Linear_5,294,5,42,127,938264824
908,21,Ticks_Linear_5,295,1,48,21,939028332
908,21,Ticks_Linear_5,296,5,42,127,939034892
908,21,Ticks_Linear_5,297,1,48,24,939711128
908,21,Ticks_Linear_5,298,5,42,127,939815352
908,21,Ticks_Linear_5,299,1,48,19,940522304
908,21,Ticks_Linear_5,300,5,42,127,940594644
908,21,Ticks_Linear_5,301,1,48,23,941372784
908,21,Ticks_Linear_5,302,5,42,127,941374748
908,21,Ticks_Linear_5,303,5,42,127,942155008
908,21,Ticks_Linear_5,304,1,48,24,942187036
908,21,Ticks_Linear_5,305,1,48,26,942934504
908,21,Ticks_Linear_5,306,5,42,127,942936076
908,21,Ticks_Linear_5,307,1,48,19,943690448
908,21,Ticks_Linear_5,308,5,42,127,943724868
908,21,Ticks_Linear_5,309,1,48,26,944504408
908,21,Ticks_Linear_5,310,5,42,127,944514628
908,21,Ticks_Linear_5,311,5,42,127,945304852
908,21,Ticks_Linear_5,312,1,48,22,945322568
908,21,Ticks_Linear_5,313,1,48,26,946076820
908,21,Ticks_Linear_5,314,5,42,127,946094384
908,21,Ticks_Linear_5,315,5,42,127,946884900
908,21,Ticks_Linear_5,316,1,48,27,946887872
908,21,Ticks_Linear_5,317,1,48,19,947670272
908,21,Ticks_Linear_5,318,5,42,127,947684844
908,21,Ticks_Linear_5,319,1,48,23,948458984
908,21,Ticks_Linear_5,320,5,42,127,948484664
908,21,Ticks_Linear_5,321,5,42,127,949285216
908,21,Ticks_Linear_5,322,1,48,29,949301664
908,21,Ticks_Linear_5,323,1,48,22,950024388
908,21,Ticks_Linear_5,324,5,42,127,950084936
908,21,Ticks_Linear_5,325,1,48,28,950839980
908,21,Ticks_Linear_5,326,5,42,127,950884732
908,21,Ticks_Linear_5,327,1,48,29,951655660
908,21,Ticks_Linear_5,328,5,42,127,951694716
908,21,Ticks_Linear_5,329,1,48,27,952493048
908,21,Ticks_Linear_5,330,5,42,127,952504696
908,21,Ticks_Linear_5,331,1,48,28,953264016
908,21,Ticks_Linear_5,332,5,42,127,953314680
908,21,Ticks_Linear_5,333,1,48,28,954087104
908,21,Ticks_Linear_5,334,5,42,127,954124836
908,21,Ticks_Linear_5,335,1,48,21,954884384
908,21,Ticks_Linear_5,336,5,42,127,954934816
908,21,Ticks_Linear_5,0,9999,9999,9999,845732976
908,21,Ticks_Linear_5,1,9999,9999,9999,846212180
908,21,Ticks_Linear_5,2,9999,9999,9999,846692428
908,21,Ticks_Linear_5,3,9999,9999,9999,847172672
908,21,Ticks_Linear_5,4,9999,9999,9999,847652976
908,21,Ticks_Linear_5,5,9999,9999,9999,848142416
908,21,Ticks_Linear_5,6,9999,9999,9999,848632952
908,21,Ticks_Linear_5,7,9999,9999,9999,849122392
908,21,Ticks_Linear_5,8,9999,9999,9999,849612880
908,21,Ticks_Linear_5,9,9999,9999,9999,850102396
908,21,Ticks_Linear_5,10,9999,9999,9999,850603068
908,21,Ticks_Linear_5,11,9999,9999,9999,851113028
908,21,Ticks_Linear_5,12,9999,9999,9999,851612724
908,21,Ticks_Linear_5,13,9999,9999,9999,852112528
908,21,Ticks_Linear_5,14,9999,9999,9999,852612204
908,21,Ticks_Linear_5,15,9999,9999,9999,853122164
908,21,Ticks_Linear_5,16,9999,9999,9999,853632124
908,21,Ticks_Linear_5,17,9999,9999,9999,854143052
908,21,Ticks_Linear_5,18,9999,9999,9999,854653012
908,21,Ticks_Linear_5,19,9999,9999,9999,855162972
908,21,Ticks_Linear_5,20,9999,9999,9999,855682144
908,21,Ticks_Linear_5,21,9999,9999,9999,856202296
908,21,Ticks_Linear_5,22,9999,9999,9999,856722512
908,21,Ticks_Linear_5,23,9999,9999,9999,857242724
908,21,Ticks_Linear_5,24,9999,9999,9999,857762872
908,21,Ticks_Linear_5,25,9999,9999,9999,858292296
908,21,Ticks_Linear_5,26,9999,9999,9999,858822772
908,21,Ticks_Linear_5,27,9999,9999,9999,859352128
908,21,Ticks_Linear_5,28,9999,9999,9999,859882604
908,21,Ticks_Linear_5,29,9999,9999,9999,860413008
908,21,Ticks_Linear_5,30,9999,9999,9999,860952648
908,21,Ticks_Linear_5,31,9999,9999,9999,861492332
908,21,Ticks_Linear_5,32,9999,9999,9999,862032992
908,21,Ticks_Linear_5,33,9999,9999,9999,862572612
908,21,Ticks_Linear_5,34,9999,9999,9999,863112300
908,21,Ticks_Linear_5,35,9999,9999,9999,863662172
908,21,Ticks_Linear_5,36,9999,9999,9999,864213100
908,21,Ticks_Linear_5,37,9999,9999,9999,864762972
908,21,Ticks_Linear_5,38,9999,9999,9999,865312840
908,21,Ticks_Linear_5,39,9999,9999,9999,865862716
908,21,Ticks_Linear_5,40,9999,9999,9999,866422848
908,21,Ticks_Linear_5,41,9999,9999,9999,866982980
908,21,Ticks_Linear_5,42,9999,9999,9999,867542140
908,21,Ticks_Linear_5,43,9999,9999,9999,868102224
908,21,Ticks_Linear_5,44,9999,9999,9999,868662364
908,21,Ticks_Linear_5,45,9999,9999,9999,869232756
908,21,Ticks_Linear_5,46,9999,9999,9999,869803068
908,21,Ticks_Linear_5,47,9999,9999,9999,870382668
908,21,Ticks_Linear_5,48,9999,9999,9999,870953088
908,21,Ticks_Linear_5,49,9999,9999,9999,871522356
908,21,Ticks_Linear_5,50,9999,9999,9999,872103016
908,21,Ticks_Linear_5,51,9999,9999,9999,872682620
908,21,Ticks_Linear_5,52,9999,9999,9999,873262176
908,21,Ticks_Linear_5,53,9999,9999,9999,873842752
908,21,Ticks_Linear_5,54,9999,9999,9999,874422356
908,21,Ticks_Linear_5,55,9999,9999,9999,875012164
908,21,Ticks_Linear_5,56,9999,9999,9999,875603000
908,21,Ticks_Linear_5,57,9999,9999,9999,876192864
908,21,Ticks_Linear_5,58,9999,9999,9999,876782652
908,21,Ticks_Linear_5,59,9999,9999,9999,877372540
908,21,Ticks_Linear_5,60,9999,9999,9999,877972592
908,21,Ticks_Linear_5,61,9999,9999,9999,878572640
908,21,Ticks_Linear_5,62,9999,9999,9999,879172720
908,21,Ticks_Linear_5,63,9999,9999,9999,879772764
908,21,Ticks_Linear_5,64,9999,9999,9999,880372812
908,21,Ticks_Linear_5,65,9999,9999,9999,880982100
908,21,Ticks_Linear_5,66,9999,9999,9999,881592408
908,21,Ticks_Linear_5,67,9999,9999,9999,882202740
908,21,Ticks_Linear_5,68,9999,9999,9999,882813052
908,21,Ticks_Linear_5,69,9999,9999,9999,883422316
908,21,Ticks_Linear_5,70,9999,9999,9999,884042832
908,21,Ticks_Linear_5,71,9999,9999,9999,884662348
908,21,Ticks_Linear_5,72,9999,9999,9999,885282936
908,21,Ticks_Linear_5,73,9999,9999,9999,885902456
908,21,Ticks_Linear_5,74,9999,9999,9999,886522948
908,21,Ticks_Linear_5,75,9999,9999,9999,887152752
908,21,Ticks_Linear_5,76,9999,9999,9999,887782456
908,21,Ticks_Linear_5,77,9999,9999,9999,888412260
908,21,Ticks_Linear_5,78,9999,9999,9999,889043012
908,21,Ticks_Linear_5,79,9999,9999,9999,889672816
908,21,Ticks_Linear_5,80,9999,9999,9999,890312780
908,21,Ticks_Linear_5,81,9999,9999,9999,890952776
908,21,Ticks_Linear_5,82,9999,9999,9999,891592808
908,21,Ticks_Linear_5,83,9999,9999,9999,892232804
908,21,Ticks_Linear_5,84,9999,9999,9999,892872768
908,21,Ticks_Linear_5,85,9999,9999,9999,893523008
908,21,Ticks_Linear_5,86,9999,9999,9999,894172260
908,21,Ticks_Linear_5,87,9999,9999,9999,894822508
908,21,Ticks_Linear_5,88,9999,9999,9999,895472712
908,21,Ticks_Linear_5,89,9999,9999,9999,896122976
908,21,Ticks_Linear_5,90,9999,9999,9999,896782436
908,21,Ticks_Linear_5,91,9999,9999,9999,897442916
908,21,Ticks_Linear_5,92,9999,9999,9999,898102376
908,21,Ticks_Linear_5,93,9999,9999,9999,898762860
908,21,Ticks_Linear_5,94,9999,9999,9999,899422320
908,21,Ticks_Linear_5,95,9999,9999,9999,900093012
908,21,Ticks_Linear_5,96,9999,9999,9999,900762704
908,21,Ticks_Linear_5,97,9999,9999,9999,901432420
908,21,Ticks_Linear_5,98,9999,9999,9999,902102116
908,21,Ticks_Linear_5,99,9999,9999,9999,902772808
908,21,Ticks_Linear_5,100,9999,9999,9999,903452784
908,21,Ticks_Linear_5,101,9999,9999,9999,904132672
908,21,Ticks_Linear_5,102,9999,9999,9999,904812648
908,21,Ticks_Linear_5,103,9999,9999,9999,905492544
908,21,Ticks_Linear_5,104,9999,9999,9999,906172468
908,21,Ticks_Linear_5,105,9999,9999,9999,906862664
908,21,Ticks_Linear_5,106,9999,9999,9999,907552824
908,21,Ticks_Linear_5,107,9999,9999,9999,908243040
908,21,Ticks_Linear_5,108,9999,9999,9999,908932156
908,21,Ticks_Linear_5,109,9999,9999,9999,909622392
908,21,Ticks_Linear_5,110,9999,9999,9999,910322788
908,21,Ticks_Linear_5,111,9999,9999,9999,911022164
908,21,Ticks_Linear_5,112,9999,9999,9999,911722588
908,21,Ticks_Linear_5,113,9999,9999,9999,912423008
908,21,Ticks_Linear_5,114,9999,9999,9999,913122356
908,21,Ticks_Linear_5,115,9999,9999,9999,913833040
908,21,Ticks_Linear_5,116,9999,9999,9999,914542676
908,21,Ticks_Linear_5,117,9999,9999,9999,915252312
908,21,Ticks_Linear_5,118,9999,9999,9999,915962972
908,21,Ticks_Linear_5,119,9999,9999,9999,916672604
908,21,Ticks_Linear_5,120,9999,9999,9999,917392492
908,21,Ticks_Linear_5,121,9999,9999,9999,918112312
908,21,Ticks_Linear_5,122,9999,9999,9999,918832204
908,21,Ticks_Linear_5,123,9999,9999,9999,919552096
908,21,Ticks_Linear_5,124,9999,9999,9999,920273012
908,21,Ticks_Linear_5,125,9999,9999,9999,921003092
908,21,Ticks_Linear_5,126,9999,9999,9999,921742456
908,21,Ticks_Linear_5,127,9999,9999,9999,922472532
908,21,Ticks_Linear_5,128,9999,9999,9999,923202684
908,21,Ticks_Linear_5,129,9999,9999,9999,923932764
908,21,Ticks_Linear_5,130,9999,9999,9999,924672128
908,21,Ticks_Linear_5,131,9999,9999,9999,925412440
908,21,Ticks_Linear_5,132,9999,9999,9999,926152776
908,21,Ticks_Linear_5,133,9999,9999,9999,926892140
908,21,Ticks_Linear_5,134,9999,9999,9999,927632476
908,21,Ticks_Linear_5,135,9999,9999,9999,928383076
908,21,Ticks_Linear_5,136,9999,9999,9999,929132632
908,21,Ticks_Linear_5,137,9999,9999,9999,929882172
908,21,Ticks_Linear_5,138,9999,9999,9999,930632828
908,21,Ticks_Linear_5,139,9999,9999,9999,931382392
908,21,Ticks_Linear_5,140,9999,9999,9999,932142200
908,21,Ticks_Linear_5,141,9999,9999,9999,932902980
908,21,Ticks_Linear_5,142,9999,9999,9999,933662792
908,21,Ticks_Linear_5,143,9999,9999,9999,934422596
908,21,Ticks_Linear_5,144,9999,9999,9999,935182404
908,21,Ticks_Linear_5,145,9999,9999,9999,935952472
908,21,Ticks_Linear_5,146,9999,9999,9999,936722548
908,21,Ticks_Linear_5,147,9999,9999,9999,937492540
908,21,Ticks_Linear_5,148,9999,9999,9999,938262600
908,21,Ticks_Linear_5,149,9999,9999,9999,939032668
908,21,Ticks_Linear_5,150,9999,9999,9999,939812980
908,21,Ticks_Linear_5,151,9999,9999,9999,940592200
908,21,Ticks_Linear_5,152,9999,9999,9999,941372488
908,21,Ticks_Linear_5,153,9999,9999,9999,942152784
908,21,Ticks_Linear_5,154,9999,9999,9999,942933108
908,21,Ticks_Linear_5,155,9999,9999,9999,943722568
908,21,Ticks_Linear_5,156,9999,9999,9999,944512108
908,21,Ticks_Linear_5,157,9999,9999,9999,945302628
908,21,Ticks_Linear_5,158,9999,9999,9999,946092084
908,21,Ticks_Linear_5,159,9999,9999,9999,946882676
908,21,Ticks_Linear_5,160,9999,9999,9999,947682396
908,21,Ticks_Linear_5,161,9999,9999,9999,948482144
908,21,Ticks_Linear_5,162,9999,9999,9999,949282920
908,21,Ticks_Linear_5,163,9999,9999,9999,950082636
908,21,Ticks_Linear_5,164,9999,9999,9999,950882360
908,21,Ticks_Linear_5,165,9999,9999,9999,951692344
908,21,Ticks_Linear_5,166,9999,9999,9999,952502396
908,21,Ticks_Linear_5,167,9999,9999,9999,953312380
908,21,Ticks_Linear_5,168,9999,9999,9999,954122312
908,21,Ticks_Linear_5,169,9999,9999,9999,954932296
909,9,Ticks_ISO_T2_8,0,5,42,127,964913476
909,9,Ticks_ISO_T2_8,1,5,42,127,965714576
909,9,Ticks_ISO_T2_8,2,5,42,127,966513884
909,9,Ticks_ISO_T2_8,3,1,48,21,966554620
909,9,Ticks_ISO_T2_8,4,1,48,26,967270268
909,9,Ticks_ISO_T2_8,5,5,42,127,967313836
909,9,Ticks_ISO_T2_8,6,1,48,29,968072248
909,9,Ticks_ISO_T2_8,7,5,42,127,968113568
909,9,Ticks_ISO_T2_8,8,1,48,23,968903696
909,9,Ticks_ISO_T2_8,9,5,42,127,968914496
909,9,Ticks_ISO_T2_8,10,1,48,22,969703056
909,9,Ticks_ISO_T2_8,11,5,42,127,969713936
909,9,Ticks_ISO_T2_8,12,1,48,19,970504084
909,9,Ticks_ISO_T2_8,13,5,42,127,970513692
909,9,Ticks_ISO_T2_8,14,1,48,26,971303072
909,9,Ticks_ISO_T2_8,15,5,42,127,971313428
909,9,Ticks_ISO_T2_8,16,1,48,24,972111108
909,9,Ticks_ISO_T2_8,17,5,42,127,972114356
909,9,Ticks_ISO_T2_8,18,5,42,127,972914020
909,9,Ticks_ISO_T2_8,19,1,48,21,972938084
909,9,Ticks_ISO_T2_8,20,5,42,127,973713832
909,9,Ticks_ISO_T2_8,21,1,48,20,973719644
909,9,Ticks_ISO_T2_8,22,5,42,127,974513464
909,9,Ticks_ISO_T2_8,23,1,48,28,974516284
909,9,Ticks_ISO_T2_8,24,5,42,127,975314468
909,9,Ticks_ISO_T2_8,25,1,48,29,975326564
909,9,Ticks_ISO_T2_8,26,1,48,30,976095160
909,9,Ticks_ISO_T2_8,27,5,42,127,976114120
909,9,Ticks_ISO_T2_8,28,5,42,127,976913884
909,9,Ticks_ISO_T2_8,29,1,48,28,976917004
909,9,Ticks_ISO_T2_8,30,5,42,127,977713468
909,9,Ticks_ISO_T2_8,31,1,48,28,977723244
909,9,Ticks_ISO_T2_8,32,5,42,127,978514324
909,9,Ticks_ISO_T2_8,33,1,48,33,978521632
909,9,Ticks_ISO_T2_8,34,5,42,127,979313908
909,9,Ticks_ISO_T2_8,35,1,48,31,979328620
909,9,Ticks_ISO_T2_8,36,1,48,36,980105672
909,9,Ticks_ISO_T2_8,37,5,42,127,980113636
909,9,Ticks_ISO_T2_8,38,1,48,25,980156228
909,9,Ticks_ISO_T2_8,39,5,42,127,980913428
909,9,Ticks_ISO_T2_8,40,1,48,31,980937560
909,9,Ticks_ISO_T2_8,41,5,42,127,981714428
909,9,Ticks_ISO_T2_8,42,1,48,25,981730788
909,9,Ticks_ISO_T2_8,43,1,48,28,982471484
909,9,Ticks_ISO_T2_8,44,5,42,127,982514080
909,9,Ticks_ISO_T2_8,45,1,48,25,983293612
909,9,Ticks_ISO_T2_8,46,5,42,127,983313692
909,9,Ticks_ISO_T2_8,47,5,42,127,984113580
909,9,Ticks_ISO_T2_8,48,1,48,25,984127392
909,9,Ticks_ISO_T2_8,49,1,48,23,984880956
909,9,Ticks_ISO_T2_8,50,5,42,127,984914276
909,9,Ticks_ISO_T2_8,51,1,48,23,985686232
909,9,Ticks_ISO_T2_8,52,5,42,127,985714160
909,9,Ticks_ISO_T2_8,53,5,42,127,986513752
909,9,Ticks_ISO_T2_8,54,1,48,27,986527416
909,9,Ticks_ISO_T2_8,55,5,42,127,987313556
909,9,Ticks_ISO_T2_8,56,1,48,23,987403164
909,9,Ticks_ISO_T2_8,57,5,42,127,988114412
909,9,Ticks_ISO_T2_8,58,1,48,26,988163412
909,9,Ticks_ISO_T2_8,59,5,42,127,988914148
909,9,Ticks_ISO_T2_8,60,1,48,16,988952896
909,9,Ticks_ISO_T2_8,61,5,42,127,989713756
909,9,Ticks_ISO_T2_8,62,1,48,23,989781572
909,9,Ticks_ISO_T2_8,63,5,42,127,990513416
909,9,Ticks_ISO_T2_8,64,1,48,31,990523420
909,9,Ticks_ISO_T2_8,65,5,42,127,991314196
909,9,Ticks_ISO_T2_8,66,1,48,29,991315536
909,9,Ticks_ISO_T2_8,67,1,48,28,992064524
909,9,Ticks_ISO_T2_8,68,5,42,127,992114224
909,9,Ticks_ISO_T2_8,69,1,48,22,992892828
909,9,Ticks_ISO_T2_8,70,5,42,127,992913732
909,9,Ticks_ISO_T2_8,71,5,42,127,993713548
909,9,Ticks_ISO_T2_8,72,1,48,24,993717716
909,9,Ticks_ISO_T2_8,73,5,42,127,994514252
909,9,Ticks_ISO_T2_8,74,1,48,24,994548264
909,9,Ticks_ISO_T2_8,75,1,48,23,995297720
909,9,Ticks_ISO_T2_8,76,5,42,127,995314280
909,9,Ticks_ISO_T2_8,77,1,48,24,996089324
909,9,Ticks_ISO_T2_8,78,5,42,127,996113888
909,9,Ticks_ISO_T2_8,79,1,48,20,996885388
909,9,Ticks_ISO_T2_8,80,5,42,127,996913400
909,9,Ticks_ISO_T2_8,81,1,48,19,997704124
909,9,Ticks_ISO_T2_8,82,5,42,127,997714256
909,9,Ticks_ISO_T2_8,83,5,42,127,998514216
909,9,Ticks_ISO_T2_8,84,1,48,21,998541648
909,9,Ticks_ISO_T2_8,85,5,42,127,999314176
909,9,Ticks_ISO_T2_8,86,1,48,21,999367860
909,9,Ticks_ISO_T2_8,87,1,48,18,1000097416
909,9,Ticks_ISO_T2_8,88,5,42,127,1000113456
909,9,Ticks_ISO_T2_8,89,5,42,127,1000914240
909,9,Ticks_ISO_T2_8,90,1,48,20,1000946676
909,9,Ticks_ISO_T2_8,91,1,48,25,1001655140
909,9,Ticks_ISO_T2_8,92,5,42,127,1001714116
909,9,Ticks_ISO_T2_8,93,1,48,21,1002461008
909,9,Ticks_ISO_T2_8,94,5,42,127,1002514024
909,9,Ticks_ISO_T2_8,95,1,48,23,1003309240
909,9,Ticks_ISO_T2_8,96,5,42,127,1003313532
909,9,Ticks_ISO_T2_8,97,1,48,25,1004107176
909,9,Ticks_ISO_T2_8,98,5,42,127,1004114164
909,9,Ticks_ISO_T2_8,99,1,48,27,1004851784
909,9,Ticks_ISO_T2_8,100,5,42,127,1004913972
909,9,Ticks_ISO_T2_8,101,1,48,24,1005669916
909,9,Ticks_ISO_T2_8,102,5,42,127,1005713928
909,9,Ticks_ISO_T2_8,103,1,48,24,1006475780
909,9,Ticks_ISO_T2_8,104,5,42,127,1006513364
909,9,Ticks_ISO_T2_8,105,1,48,26,1007289952
909,9,Ticks_ISO_T2_8,106,5,42,127,1007314144
909,9,Ticks_ISO_T2_8,107,1,48,23,1008103600
909,9,Ticks_ISO_T2_8,108,5,42,127,1008113880
909,9,Ticks_ISO_T2_8,109,1,48,24,1008908892
909,9,Ticks_ISO_T2_8,110,5,42,127,1008913860
909,9,Ticks_ISO_T2_8,111,5,42,127,1009713376
909,9,Ticks_ISO_T2_8,112,1,48,20,1009722408
909,9,Ticks_ISO_T2_8,113,1,48,21,1010500056
909,9,Ticks_ISO_T2_8,114,5,42,127,1010514152
909,9,Ticks_ISO_T2_8,115,5,42,127,1011314040
909,9,Ticks_ISO_T2_8,116,1,48,15,1012071120
909,9,Ticks_ISO_T2_8,117,5,42,127,1012113864
909,9,Ticks_ISO_T2_8,118,5,42,127,1012913380
909,9,Ticks_ISO_T2_8,119,1,48,23,1012920236
909,9,Ticks_ISO_T2_8,120,5,42,127,1013714236
909,9,Ticks_ISO_T2_8,121,1,48,28,1013723860
909,9,Ticks_ISO_T2_8,122,1,48,25,1014502108
909,9,Ticks_ISO_T2_8,123,5,42,127,1014513964
909,9,Ticks_ISO_T2_8,124,5,42,127,1015313728
909,9,Ticks_ISO_T2_8,125,1,48,27,1015357688
909,9,Ticks_ISO_T2_8,126,1,48,26,1016096968
909,9,Ticks_ISO_T2_8,127,5,42,127,1016113456
909,9,Ticks_ISO_T2_8,128,1,48,25,1016826460
909,9,Ticks_ISO_T2_8,129,5,42,127,1016914160
909,9,Ticks_ISO_T2_8,130,1,48,27,1017659484
909,9,Ticks_ISO_T2_8,131,5,42,127,1017713972
909,9,Ticks_ISO_T2_8,132,1,48,28,1018482328
909,9,Ticks_ISO_T2_8,133,5,42,127,1018513852
909,9,Ticks_ISO_T2_8,134,5,42,127,1019313444
909,9,Ticks_ISO_T2_8,135,1,48,27,1019327784
909,9,Ticks_ISO_T2_8,136,5,42,127,1020114224
909,9,Ticks_ISO_T2_8,137,1,48,26,1020128640
909,9,Ticks_ISO_T2_8,138,1,48,26,1020891776
909,9,Ticks_ISO_T2_8,139,5,42,127,1020913952
909,9,Ticks_ISO_T2_8,140,1,48,25,1021654784
909,9,Ticks_ISO_T2_8,141,5,42,127,1021713708
909,9,Ticks_ISO_T2_8,142,1,48,23,1022495756
909,9,Ticks_ISO_T2_8,143,5,42,127,1022513592
909,9,Ticks_ISO_T2_8,144,5,42,127,1023314376
909,9,Ticks_ISO_T2_8,145,1,48,20,1023327596
909,9,Ticks_ISO_T2_8,146,5,42,127,1024113964
909,9,Ticks_ISO_T2_8,147,1,48,24,1024128748
909,9,Ticks_ISO_T2_8,148,1,48,25,1024892188
909,9,Ticks_ISO_T2_8,149,5,42,127,1024913912
909,9,Ticks_ISO_T2_8,150,1,48,27,1025696784
909,9,Ticks_ISO_T2_8,151,5,42,127,1025713644
909,9,Ticks_ISO_T2_8,152,1,48,26,1026471236
909,9,Ticks_ISO_T2_8,153,5,42,127,1026514428
909,9,Ticks_ISO_T2_8,154,5,42,127,1027314016
909,9,Ticks_ISO_T2_8,155,1,48,25,1027374160
909,9,Ticks_ISO_T2_8,156,5,42,127,1028113852
909,9,Ticks_ISO_T2_8,157,1,48,25,1028149132
909,9,Ticks_ISO_T2_8,158,5,42,127,1028913732
909,9,Ticks_ISO_T2_8,159,1,48,27,1028929796
909,9,Ticks_ISO_T2_8,160,5,42,127,1029714216
909,9,Ticks_ISO_T2_8,161,1,48,23,1029744408
909,9,Ticks_ISO_T2_8,162,1,48,22,1030460804
909,9,Ticks_ISO_T2_8,163,5,42,127,1030514016
909,9,Ticks_ISO_T2_8,164,1,48,26,1031301972
909,9,Ticks_ISO_T2_8,165,5,42,127,1031313752
909,9,Ticks_ISO_T2_8,166,1,48,30,1032097072
909,9,Ticks_ISO_T2_8,167,5,42,127,1032113708
909,9,Ticks_ISO_T2_8,168,1,48,29,1032885436
909,9,Ticks_ISO_T2_8,169,5,42,127,1032914340
909,9,Ticks_ISO_T2_8,170,5,42,127,1033714080
909,9,Ticks_ISO_T2_8,171,1,48,27,1033729864
909,9,Ticks_ISO_T2_8,172,1,48,33,1034452960
909,9,Ticks_ISO_T2_8,173,5,42,127,1034513832
909,9,Ticks_ISO_T2_8,174,1,48,24,1035283164
909,9,Ticks_ISO_T2_8,175,5,42,127,1035313864
909,9,Ticks_ISO_T2_8,176,1,48,20,1036087840
909,9,Ticks_ISO_T2_8,177,5,42,127,1036114276
909,9,Ticks_ISO_T2_8,178,5,42,127,1036913940
909,9,Ticks_ISO_T2_8,179,1,48,30,1036918628
909,9,Ticks_ISO_T2_8,180,1,48,32,1037698896
909,9,Ticks_ISO_T2_8,181,5,42,127,1037713668
909,9,Ticks_ISO_T2_8,182,5,42,127,1038513704
909,9,Ticks_ISO_T2_8,183,1,48,29,1038536344
909,9,Ticks_ISO_T2_8,184,1,48,25,1039310628
909,9,Ticks_ISO_T2_8,185,5,42,127,1039314404
909,9,Ticks_ISO_T2_8,186,1,48,25,1040101540
909,9,Ticks_ISO_T2_8,187,5,42,127,1040113988
909,9,Ticks_ISO_T2_8,188,1,48,25,1040870380
909,9,Ticks_ISO_T2_8,189,5,42,127,1040913672
909,9,Ticks_ISO_T2_8,190,1,48,24,1041702976
909,9,Ticks_ISO_T2_8,191,5,42,127,1041713556
909,9,Ticks_ISO_T2_8,192,1,48,31,1042457908
909,9,Ticks_ISO_T2_8,193,5,42,127,1042514408
909,9,Ticks_ISO_T2_8,194,1,48,26,1043301472
909,9,Ticks_ISO_T2_8,195,5,42,127,1043313920
909,9,Ticks_ISO_T2_8,196,5,42,127,1044113808
909,9,Ticks_ISO_T2_8,197,1,48,28,1044140936
909,9,Ticks_ISO_T2_8,198,5,42,127,1044913468
909,9,Ticks_ISO_T2_8,199,1,48,28,1044925260
909,9,Ticks_ISO_T2_8,200,5,42,127,1045714396
909,9,Ticks_ISO_T2_8,201,1,48,20,1045718860
909,9,Ticks_ISO_T2_8,202,1,48,28,1046506612
909,9,Ticks_ISO_T2_8,203,5,42,127,1046514120
909,9,Ticks_ISO_T2_8,204,1,48,31,1047261688
909,9,Ticks_ISO_T2_8,205,5,42,127,1047313656
909,9,Ticks_ISO_T2_8,206,1,48,31,1048045484
909,9,Ticks_ISO_T2_8,207,5,42,127,1048113464
909,9,Ticks_ISO_T2_8,208,1,48,24,1048890648
909,9,Ticks_ISO_T2_8,209,5,42,127,1048914464
909,9,Ticks_ISO_T2_8,210,5,42,127,1049714132
909,9,Ticks_ISO_T2_8,211,1,48,26,1049774020
909,9,Ticks_ISO_T2_8,212,5,42,127,1050513712
909,9,Ticks_ISO_T2_8,213,1,48,28,1050562908
909,9,Ticks_ISO_T2_8,214,1,48,27,1051279672
909,9,Ticks_ISO_T2_8,215,5,42,127,1051313364
909,9,Ticks_ISO_T2_8,216,1,48,28,1052100800
909,9,Ticks_ISO_T2_8,217,5,42,127,1052114592
909,9,Ticks_ISO_T2_8,218,1,48,29,1052904420
909,9,Ticks_ISO_T2_8,219,5,42,127,1052913956
909,9,Ticks_ISO_T2_8,220,1,48,32,1053699692
909,9,Ticks_ISO_T2_8,221,5,42,127,1053713788
909,9,Ticks_ISO_T2_8,222,1,48,30,1054474068
909,9,Ticks_ISO_T2_8,223,5,42,127,1054513520
909,9,Ticks_ISO_T2_8,224,1,48,31,1055282100
909,9,Ticks_ISO_T2_8,225,5,42,127,1055314448
909,9,Ticks_ISO_T2_8,226,1,48,27,1056068300
909,9,Ticks_ISO_T2_8,227,5,42,127,1056113960
909,9,Ticks_ISO_T2_8,228,1,48,24,1056875736
909,9,Ticks_ISO_T2_8,229,5,42,127,1056913840
909,9,Ticks_ISO_T2_8,230,5,42,127,1057713656
909,9,Ticks_ISO_T2_8,231,1,48,29,1057715668
909,9,Ticks_ISO_T2_8,232,5,42,127,1058514212
909,9,Ticks_ISO_T2_8,233,1,48,31,1058520400
909,9,Ticks_ISO_T2_8,234,1,48,36,1059277780
909,9,Ticks_ISO_T2_8,235,5,42,127,1059314016
909,9,Ticks_ISO_T2_8,236,1,48,32,1060084544
909,9,Ticks_ISO_T2_8,237,5,42,127,1060113700
909,9,Ticks_ISO_T2_8,238,1,48,29,1060882660
909,9,Ticks_ISO_T2_8,0,9999,9999,9999,964911188
909,9,Ticks_ISO_T2_8,1,9999,9999,9999,965711988
909,9,Ticks_ISO_T2_8,2,9999,9999,9999,966511668
909,9,Ticks_ISO_T2_8,3,9999,9999,9999,967311472
909,9,Ticks_ISO_T2_8,4,9999,9999,9999,968111204
909,9,Ticks_ISO_T2_8,5,9999,9999,9999,968911984
909,9,Ticks_ISO_T2_8,6,9999,9999,9999,969711720
909,9,Ticks_ISO_T2_8,7,9999,9999,9999,970511480
909,9,Ticks_ISO_T2_8,8,9999,9999,9999,971311212
909,9,Ticks_ISO_T2_8,9,9999,9999,9999,972111920
909,9,Ticks_ISO_T2_8,10,9999,9999,9999,972911732
909,9,Ticks_ISO_T2_8,11,9999,9999,9999,973711464
909,9,Ticks_ISO_T2_8,12,9999,9999,9999,974511172
909,9,Ticks_ISO_T2_8,13,9999,9999,9999,975311956
909,9,Ticks_ISO_T2_8,14,9999,9999,9999,976111680
909,9,Ticks_ISO_T2_8,15,9999,9999,9999,976911448
909,9,Ticks_ISO_T2_8,16,9999,9999,9999,977711180
909,9,Ticks_ISO_T2_8,17,9999,9999,9999,978511960
909,9,Ticks_ISO_T2_8,18,9999,9999,9999,979311692
909,9,Ticks_ISO_T2_8,19,9999,9999,9999,980111420
909,9,Ticks_ISO_T2_8,20,9999,9999,9999,980911212
909,9,Ticks_ISO_T2_8,21,9999,9999,9999,981711992
909,9,Ticks_ISO_T2_8,22,9999,9999,9999,982511716
909,9,Ticks_ISO_T2_8,23,9999,9999,9999,983311476
909,9,Ticks_ISO_T2_8,24,9999,9999,9999,984111216
909,9,Ticks_ISO_T2_8,25,9999,9999,9999,984911988
909,9,Ticks_ISO_T2_8,26,9999,9999,9999,985711724
909,9,Ticks_ISO_T2_8,27,9999,9999,9999,986511460
909,9,Ticks_ISO_T2_8,28,9999,9999,9999,987311192
909,9,Ticks_ISO_T2_8,29,9999,9999,9999,988111972
909,9,Ticks_ISO_T2_8,30,9999,9999,9999,988911708
909,9,Ticks_ISO_T2_8,31,9999,9999,9999,989711468
909,9,Ticks_ISO_T2_8,32,9999,9999,9999,990511200
909,9,Ticks_ISO_T2_8,33,9999,9999,9999,991311984
909,9,Ticks_ISO_T2_8,34,9999,9999,9999,992111712
909,9,Ticks_ISO_T2_8,35,9999,9999,9999,992911444
909,9,Ticks_ISO_T2_8,36,9999,9999,9999,993711184
909,9,Ticks_ISO_T2_8,37,9999,9999,9999,994511964
909,9,Ticks_ISO_T2_8,38,9999,9999,9999,995311692
909,9,Ticks_ISO_T2_8,39,9999,9999,9999,996111452
909,9,Ticks_ISO_T2_8,40,9999,9999,9999,996911184
909,9,Ticks_ISO_T2_8,41,9999,9999,9999,997711964
909,9,Ticks_ISO_T2_8,42,9999,9999,9999,998511704
909,9,Ticks_ISO_T2_8,43,9999,9999,9999,999311440
909,9,Ticks_ISO_T2_8,44,9999,9999,9999,1000111168
909,9,Ticks_ISO_T2_8,45,9999,9999,9999,1000911952
909,9,Ticks_ISO_T2_8,46,9999,9999,9999,1001711680
909,9,Ticks_ISO_T2_8,47,9999,9999,9999,1002511436
909,9,Ticks_ISO_T2_8,48,9999,9999,9999,1003311172
909,9,Ticks_ISO_T2_8,49,9999,9999,9999,1004111952
909,9,Ticks_ISO_T2_8,50,9999,9999,9999,1004911684
909,9,Ticks_ISO_T2_8,51,9999,9999,9999,1005711420
909,9,Ticks_ISO_T2_8,52,9999,9999,9999,1006511152
909,9,Ticks_ISO_T2_8,53,9999,9999,9999,1007311932
909,9,Ticks_ISO_T2_8,54,9999,9999,9999,1008111664
909,9,Ticks_ISO_T2_8,55,9999,9999,9999,1008911424
909,9,Ticks_ISO_T2_8,56,9999,9999,9999,1009711164
909,9,Ticks_ISO_T2_8,57,9999,9999,9999,1010511936
909,9,Ticks_ISO_T2_8,58,9999,9999,9999,1011311676
909,9,Ticks_ISO_T2_8,59,9999,9999,9999,1012111428
909,9,Ticks_ISO_T2_8,60,9999,9999,9999,1012911168
909,9,Ticks_ISO_T2_8,61,9999,9999,9999,1013711948
909,9,Ticks_ISO_T2_8,62,9999,9999,9999,1014511672
909,9,Ticks_ISO_T2_8,63,9999,9999,9999,1015311440
909,9,Ticks_ISO_T2_8,64,9999,9999,9999,1016111168
909,9,Ticks_ISO_T2_8,65,9999,9999,9999,1016911944
909,9,Ticks_ISO_T2_8,66,9999,9999,9999,1017711680
909,9,Ticks_ISO_T2_8,67,9999,9999,9999,1018511416
909,9,Ticks_ISO_T2_8,68,9999,9999,9999,1019311156
909,9,Ticks_ISO_T2_8,69,9999,9999,9999,1020111936
909,9,Ticks_ISO_T2_8,70,9999,9999,9999,1020911664
909,9,Ticks_ISO_T2_8,71,9999,9999,9999,1021711420
909,9,Ticks_ISO_T2_8,72,9999,9999,9999,1022511152
909,9,Ticks_ISO_T2_8,73,9999,9999,9999,1023311940
909,9,Ticks_ISO_T2_8,74,9999,9999,9999,1024111672
909,9,Ticks_ISO_T2_8,75,9999,9999,9999,1024911472
909,9,Ticks_ISO_T2_8,76,9999,9999,9999,1025711208
909,9,Ticks_ISO_T2_8,77,9999,9999,9999,1026511988
909,9,Ticks_ISO_T2_8,78,9999,9999,9999,1027311728
909,9,Ticks_ISO_T2_8,79,9999,9999,9999,1028111412
909,9,Ticks_ISO_T2_8,80,9999,9999,9999,1028911220
909,9,Ticks_ISO_T2_8,81,9999,9999,9999,1029711928
909,9,Ticks_ISO_T2_8,82,9999,9999,9999,1030511728
909,9,Ticks_ISO_T2_8,83,9999,9999,9999,1031311460
909,9,Ticks_ISO_T2_8,84,9999,9999,9999,1032111196
909,9,Ticks_ISO_T2_8,85,9999,9999,9999,1032911976
909,9,Ticks_ISO_T2_8,86,9999,9999,9999,1033711716
909,9,Ticks_ISO_T2_8,87,9999,9999,9999,1034511468
909,9,Ticks_ISO_T2_8,88,9999,9999,9999,1035311204
909,9,Ticks_ISO_T2_8,89,9999,9999,9999,1036111984
909,9,Ticks_ISO_T2_8,90,9999,9999,9999,1036911724
909,9,Ticks_ISO_T2_8,91,9999,9999,9999,1037711452
909,9,Ticks_ISO_T2_8,92,9999,9999,9999,1038511192
909,9,Ticks_ISO_T2_8,93,9999,9999,9999,1039311968
909,9,Ticks_ISO_T2_8,94,9999,9999,9999,1040111700
909,9,Ticks_ISO_T2_8,95,9999,9999,9999,1040911460
909,9,Ticks_ISO_T2_8,96,9999,9999,9999,1041711192
909,9,Ticks_ISO_T2_8,97,9999,9999,9999,1042511972
909,9,Ticks_ISO_T2_8,98,9999,9999,9999,1043311708
909,9,Ticks_ISO_T2_8,99,9999,9999,9999,1044111448
909,9,Ticks_ISO_T2_8,100,9999,9999,9999,1044911176
909,9,Ticks_ISO_T2_8,101,9999,9999,9999,1045711956
909,9,Ticks_ISO_T2_8,102,9999,9999,9999,1046511684
909,9,Ticks_ISO_T2_8,103,9999,9999,9999,1047311440
909,9,Ticks_ISO_T2_8,104,9999,9999,9999,1048111176
909,9,Ticks_ISO_T2_8,105,9999,9999,9999,1048911952
909,9,Ticks_ISO_T2_8,106,9999,9999,9999,1049711692
909,9,Ticks_ISO_T2_8,107,9999,9999,9999,1050511424
909,9,Ticks_ISO_T2_8,108,9999,9999,9999,1051311152
909,9,Ticks_ISO_T2_8,109,9999,9999,9999,1052111932
909,9,Ticks_ISO_T2_8,110,9999,9999,9999,1052911664
909,9,Ticks_ISO_T2_8,111,9999,9999,9999,1053711424
909,9,Ticks_ISO_T2_8,112,9999,9999,9999,1054511156
909,9,Ticks_ISO_T2_8,113,9999,9999,9999,1055311936
909,9,Ticks_ISO_T2_8,114,9999,9999,9999,1056111672
909,9,Ticks_ISO_T2_8,115,9999,9999,9999,1056911480
909,9,Ticks_ISO_T2_8,116,9999,9999,9999,1057711220
909,9,Ticks_ISO_T2_8,117,9999,9999,9999,1058511924
909,9,Ticks_ISO_T2_8,118,9999,9999,9999,1059311728
909,9,Ticks_ISO_T2_8,119,9999,9999,9999,1060111412
9010,10,Ticks_ISO_T2_5,0,5,42,127,1069403548
9010,10,Ticks_ISO_T2_5,1,5,42,127,1069904160
9010,10,Ticks_ISO_T2_5,2,1,48,21,1070373764
9010,10,Ticks_ISO_T2_5,3,5,42,127,1070404168
9010,10,Ticks_ISO_T2_5,4,5,42,127,1070903796
9010,10,Ticks_ISO_T2_5,5,1,48,30,1070909384
9010,10,Ticks_ISO_T2_5,6,1,48,27,1071399488
9010,10,Ticks_ISO_T2_5,7,5,42,127,1071404608
9010,10,Ticks_ISO_T2_5,8,1,48,30,1071881076
9010,10,Ticks_ISO_T2_5,9,5,42,127,1071904300
9010,10,Ticks_ISO_T2_5,10,1,48,30,1072398952
9010,10,Ticks_ISO_T2_5,11,5,42,127,1072403772
9010,10,Ticks_ISO_T2_5,12,1,48,30,1072871768
9010,10,Ticks_ISO_T2_5,13,5,42,127,1072903468
9010,10,Ticks_ISO_T2_5,14,1,48,26,1073392032
9010,10,Ticks_ISO_T2_5,15,5,42,127,1073404280
9010,10,Ticks_ISO_T2_5,16,5,42,127,1073904180
9010,10,Ticks_ISO_T2_5,17,1,48,24,1073931036
9010,10,Ticks_ISO_T2_5,18,5,42,127,1074403576
9010,10,Ticks_ISO_T2_5,19,1,48,16,1074427440
9010,10,Ticks_ISO_T2_5,20,1,48,22,1074902200
9010,10,Ticks_ISO_T2_5,21,5,42,127,1074904312
9010,10,Ticks_ISO_T2_5,22,5,42,127,1075404236
9010,10,Ticks_ISO_T2_5,23,1,48,25,1075424712
9010,10,Ticks_ISO_T2_5,24,1,48,27,1075895888
9010,10,Ticks_ISO_T2_5,25,5,42,127,1075903852
9010,10,Ticks_ISO_T2_5,26,5,42,127,1076403480
9010,10,Ticks_ISO_T2_5,27,1,48,28,1076428816
9010,10,Ticks_ISO_T2_5,28,1,48,27,1076887724
9010,10,Ticks_ISO_T2_5,29,5,42,127,1076904288
9010,10,Ticks_ISO_T2_5,30,1,48,27,1077376944
9010,10,Ticks_ISO_T2_5,31,5,42,127,1077404352
9010,10,Ticks_ISO_T2_5,32,1,48,27,1077842384
9010,10,Ticks_ISO_T2_5,33,5,42,127,1077904052
9010,10,Ticks_ISO_T2_5,34,1,48,26,1078381648
9010,10,Ticks_ISO_T2_5,35,5,42,127,1078403372
9010,10,Ticks_ISO_T2_5,36,1,48,29,1078896152
9010,10,Ticks_ISO_T2_5,37,5,42,127,1078904264
9010,10,Ticks_ISO_T2_5,38,1,48,31,1079374084
9010,10,Ticks_ISO_T2_5,39,5,42,127,1079403812
9010,10,Ticks_ISO_T2_5,40,5,42,127,1079903512
9010,10,Ticks_ISO_T2_5,41,1,48,29,1079915080
9010,10,Ticks_ISO_T2_5,42,5,42,127,1080404400
9010,10,Ticks_ISO_T2_5,43,1,48,27,1080420464
9010,10,Ticks_ISO_T2_5,44,1,48,24,1080897700
9010,10,Ticks_ISO_T2_5,45,5,42,127,1080904240
9010,10,Ticks_ISO_T2_5,46,1,48,19,1081382804
9010,10,Ticks_ISO_T2_5,47,5,42,127,1081404156
9010,10,Ticks_ISO_T2_5,48,5,42,127,1081903412
9010,10,Ticks_ISO_T2_5,49,1,48,27,1081904676
9010,10,Ticks_ISO_T2_5,50,5,42,127,1082404152
9010,10,Ticks_ISO_T2_5,51,1,48,27,1082413256
9010,10,Ticks_ISO_T2_5,52,5,42,127,1082904072
9010,10,Ticks_ISO_T2_5,53,1,48,27,1082948780
9010,10,Ticks_ISO_T2_5,54,1,48,25,1083391680
9010,10,Ticks_ISO_T2_5,55,5,42,127,1083403612
9010,10,Ticks_ISO_T2_5,56,1,48,30,1083879160
9010,10,Ticks_ISO_T2_5,57,5,42,127,1083904352
9010,10,Ticks_ISO_T2_5,58,1,48,28,1084366068
9010,10,Ticks_ISO_T2_5,59,5,42,127,1084404244
9010,10,Ticks_ISO_T2_5,60,5,42,127,1084903996
9010,10,Ticks_ISO_T2_5,61,1,48,31,1084914148
9010,10,Ticks_ISO_T2_5,62,1,48,28,1085386900
9010,10,Ticks_ISO_T2_5,63,5,42,127,1085403536
9010,10,Ticks_ISO_T2_5,64,1,48,28,1085885992
9010,10,Ticks_ISO_T2_5,65,5,42,127,1085904276
9010,10,Ticks_ISO_T2_5,66,1,48,25,1086384116
9010,10,Ticks_ISO_T2_5,67,5,42,127,1086403972
9010,10,Ticks_ISO_T2_5,68,1,48,27,1086883068
9010,10,Ticks_ISO_T2_5,69,5,42,127,1086903596
9010,10,Ticks_ISO_T2_5,70,1,48,23,1087396372
9010,10,Ticks_ISO_T2_5,71,5,42,127,1087404336
9010,10,Ticks_ISO_T2_5,72,5,42,127,1087904036
9010,10,Ticks_ISO_T2_5,73,1,48,26,1087911944
9010,10,Ticks_ISO_T2_5,74,1,48,28,1088398604
9010,10,Ticks_ISO_T2_5,75,5,42,127,1088403948
9010,10,Ticks_ISO_T2_5,76,1,48,30,1088892536
9010,10,Ticks_ISO_T2_5,77,5,42,127,1088903416
9010,10,Ticks_ISO_T2_5,78,1,48,27,1089389692
9010,10,Ticks_ISO_T2_5,79,5,42,127,1089404236
9010,10,Ticks_ISO_T2_5,80,5,42,127,1089904012
9010,10,Ticks_ISO_T2_5,81,1,48,27,1089905572
9010,10,Ticks_ISO_T2_5,82,1,48,26,1090384664
9010,10,Ticks_ISO_T2_5,83,5,42,127,1090403552
9010,10,Ticks_ISO_T2_5,84,5,42,127,1090904376
9010,10,Ticks_ISO_T2_5,85,1,48,24,1090915648
9010,10,Ticks_ISO_T2_5,86,1,48,27,1091398196
9010,10,Ticks_ISO_T2_5,87,5,42,127,1091404064
9010,10,Ticks_ISO_T2_5,88,1,48,32,1091880532
9010,10,Ticks_ISO_T2_5,89,5,42,127,1091903904
9010,10,Ticks_ISO_T2_5,90,1,48,34,1092366236
9010,10,Ticks_ISO_T2_5,91,5,42,127,1092403600
9010,10,Ticks_ISO_T2_5,92,1,48,30,1092900120
9010,10,Ticks_ISO_T2_5,93,5,42,127,1092904264
9010,10,Ticks_ISO_T2_5,94,1,48,29,1093374232
9010,10,Ticks_ISO_T2_5,95,5,42,127,1093404036
9010,10,Ticks_ISO_T2_5,96,1,48,27,1093852288
9010,10,Ticks_ISO_T2_5,97,5,42,127,1093903880
9010,10,Ticks_ISO_T2_5,98,1,48,34,1094394040
9010,10,Ticks_ISO_T2_5,99,5,42,127,1094403424
9010,10,Ticks_ISO_T2_5,100,1,48,29,1094870372
9010,10,Ticks_ISO_T2_5,101,5,42,127,1094904164
9010,10,Ticks_ISO_T2_5,102,1,48,29,1095385700
9010,10,Ticks_ISO_T2_5,103,5,42,127,1095403984
9010,10,Ticks_ISO_T2_5,104,1,48,29,1095865648
9010,10,Ticks_ISO_T2_5,105,5,42,127,1095903680
9010,10,Ticks_ISO_T2_5,106,1,48,26,1096352856
9010,10,Ticks_ISO_T2_5,107,5,42,127,1096404200
9010,10,Ticks_ISO_T2_5,108,1,48,27,1096896448
9010,10,Ticks_ISO_T2_5,109,5,42,127,1096904040
9010,10,Ticks_ISO_T2_5,110,1,48,25,1097366080
9010,10,Ticks_ISO_T2_5,111,5,42,127,1097403888
9010,10,Ticks_ISO_T2_5,112,1,48,27,1097884704
9010,10,Ticks_ISO_T2_5,113,5,42,127,1097903436
9010,10,Ticks_ISO_T2_5,114,1,48,27,1098350512
9010,10,Ticks_ISO_T2_5,115,5,42,127,1098404252
9010,10,Ticks_ISO_T2_5,116,1,48,28,1098886412
9010,10,Ticks_ISO_T2_5,117,5,42,127,1098903872
9010,10,Ticks_ISO_T2_5,118,1,48,28,1099384012
9010,10,Ticks_ISO_T2_5,119,5,42,127,1099403568
9010,10,Ticks_ISO_T2_5,120,1,48,29,1099887748
9010,10,Ticks_ISO_T2_5,121,5,42,127,1099904308
9010,10,Ticks_ISO_T2_5,122,1,48,34,1100395964
9010,10,Ticks_ISO_T2_5,123,5,42,127,1100403928
9010,10,Ticks_ISO_T2_5,124,5,42,127,1100903852
9010,10,Ticks_ISO_T2_5,125,1,48,25,1100934204
9010,10,Ticks_ISO_T2_5,126,1,48,28,1101355564
9010,10,Ticks_ISO_T2_5,127,5,42,127,1101403396
9010,10,Ticks_ISO_T2_5,128,1,48,28,1101865208
9010,10,Ticks_ISO_T2_5,129,5,42,127,1101904212
9010,10,Ticks_ISO_T2_5,130,1,48,23,1102374624
9010,10,Ticks_ISO_T2_5,131,5,42,127,1102403908
9010,10,Ticks_ISO_T2_5,132,1,48,32,1102892200
9010,10,Ticks_ISO_T2_5,133,5,42,127,1102903752
9010,10,Ticks_ISO_T2_5,134,1,48,29,1103375664
9010,10,Ticks_ISO_T2_5,135,5,42,127,1103404268
9010,10,Ticks_ISO_T2_5,136,1,48,28,1103879176
9010,10,Ticks_ISO_T2_5,137,5,42,127,1103903964
9010,10,Ticks_ISO_T2_5,138,1,48,33,1104368220
9010,10,Ticks_ISO_T2_5,139,5,42,127,1104403884
9010,10,Ticks_ISO_T2_5,140,1,48,30,1104865744
9010,10,Ticks_ISO_T2_5,141,5,42,127,1104903648
9010,10,Ticks_ISO_T2_5,142,1,48,28,1105374036
9010,10,Ticks_ISO_T2_5,143,5,42,127,1105404240
9010,10,Ticks_ISO_T2_5,144,1,48,24,1105853312
9010,10,Ticks_ISO_T2_5,145,5,42,127,1105903836
9010,10,Ticks_ISO_T2_5,146,1,48,27,1106350168
9010,10,Ticks_ISO_T2_5,147,5,42,127,1106403680
9010,10,Ticks_ISO_T2_5,148,1,48,27,1106859732
9010,10,Ticks_ISO_T2_5,149,5,42,127,1106904496
9010,10,Ticks_ISO_T2_5,150,1,48,26,1107358984
9010,10,Ticks_ISO_T2_5,151,5,42,127,1107404116
9010,10,Ticks_ISO_T2_5,152,1,48,24,1107859648
9010,10,Ticks_ISO_T2_5,153,5,42,127,1107903812
9010,10,Ticks_ISO_T2_5,154,1,48,24,1108363384
9010,10,Ticks_ISO_T2_5,155,5,42,127,1108403504
9010,10,Ticks_ISO_T2_5,156,1,48,26,1108842732
9010,10,Ticks_ISO_T2_5,157,5,42,127,1108904172
9010,10,Ticks_ISO_T2_5,158,1,48,24,1109367184
9010,10,Ticks_ISO_T2_5,159,5,42,127,1109403940
9010,10,Ticks_ISO_T2_5,160,1,48,24,1109859992
9010,10,Ticks_ISO_T2_5,161,5,42,127,1109903784
9010,10,Ticks_ISO_T2_5,162,1,48,27,1110353256
9010,10,Ticks_ISO_T2_5,163,5,42,127,1110403628
9010,10,Ticks_ISO_T2_5,164,1,48,22,1110869928
9010,10,Ticks_ISO_T2_5,165,5,42,127,1110904148
9010,10,Ticks_ISO_T2_5,166,1,48,26,1111357060
9010,10,Ticks_ISO_T2_5,167,5,42,127,1111403844
9010,10,Ticks_ISO_T2_5,168,1,48,26,1111875608
9010,10,Ticks_ISO_T2_5,169,5,42,127,1111903760
9010,10,Ticks_ISO_T2_5,170,1,48,26,1112377472
9010,10,Ticks_ISO_T2_5,171,5,42,127,1112404428
9010,10,Ticks_ISO_T2_5,172,1,48,25,1112867664
9010,10,Ticks_ISO_T2_5,173,5,42,127,1112903976
9010,10,Ticks_ISO_T2_5,174,1,48,31,1113335120
9010,10,Ticks_ISO_T2_5,175,5,42,127,1113403892
9010,10,Ticks_ISO_T2_5,176,1,48,27,1113858084
9010,10,Ticks_ISO_T2_5,177,5,42,127,1113903664
9010,10,Ticks_ISO_T2_5,178,1,48,29,1114334856
9010,10,Ticks_ISO_T2_5,179,5,42,127,1114404328
9010,10,Ticks_ISO_T2_5,180,1,48,21,1114851980
9010,10,Ticks_ISO_T2_5,181,5,42,127,1114903800
9010,10,Ticks_ISO_T2_5,182,5,42,127,1115403876
9010,10,Ticks_ISO_T2_5,183,1,48,22,1115409616
9010,10,Ticks_ISO_T2_5,184,1,48,26,1115895672
9010,10,Ticks_ISO_T2_5,185,5,42,127,1115904384
9010,10,Ticks_ISO_T2_5,186,1,48,22,1116375748
9010,10,Ticks_ISO_T2_5,187,5,42,127,1116404080
9010,10,Ticks_ISO_T2_5,188,1,48,26,1116895340
9010,10,Ticks_ISO_T2_5,189,5,42,127,1116903896
9010,10,Ticks_ISO_T2_5,190,5,42,127,1117403748
9010,10,Ticks_ISO_T2_5,191,1,48,21,1117439656
9010,10,Ticks_ISO_T2_5,192,5,42,127,1117904120
9010,10,Ticks_ISO_T2_5,193,1,48,26,1118367368
9010,10,Ticks_ISO_T2_5,194,5,42,127,1118403904
9010,10,Ticks_ISO_T2_5,195,1,48,22,1118874540
9010,10,Ticks_ISO_T2_5,196,5,42,127,1118903896
9010,10,Ticks_ISO_T2_5,197,1,48,30,1119378204
9010,10,Ticks_ISO_T2_5,198,5,42,127,1119404416
9010,10,Ticks_ISO_T2_5,199,1,48,32,1119855456
9010,10,Ticks_ISO_T2_5,200,5,42,127,1119904112
9010,10,Ticks_ISO_T2_5,201,1,48,28,1120366972
9010,10,Ticks_ISO_T2_5,202,5,42,127,1120403956
9010,10,Ticks_ISO_T2_5,203,1,48,30,1120861360
9010,10,Ticks_ISO_T2_5,204,5,42,127,1120903800
9010,10,Ticks_ISO_T2_5,205,1,48,32,1121340856
9010,10,Ticks_ISO_T2_5,206,5,42,127,1121404244
9010,10,Ticks_ISO_T2_5,207,1,48,31,1121811828
9010,10,Ticks_ISO_T2_5,208,5,42,127,1121904012
9010,10,Ticks_ISO_T2_5,209,1,48,32,1122337108
9010,10,Ticks_ISO_T2_5,210,5,42,127,1122403784
9010,10,Ticks_ISO_T2_5,211,1,48,33,1122884220
9010,10,Ticks_ISO_T2_5,212,5,42,127,1122904524
9010,10,Ticks_ISO_T2_5,213,1,48,30,1123388704
9010,10,Ticks_ISO_T2_5,214,5,42,127,1123404144
9010,10,Ticks_ISO_T2_5,215,1,48,28,1123877328
9010,10,Ticks_ISO_T2_5,216,5,42,127,1123903840
9010,10,Ticks_ISO_T2_5,217,1,48,28,1124361388
9010,10,Ticks_ISO_T2_5,218,5,42,127,1124403832
9010,10,Ticks_ISO_T2_5,219,1,48,21,1124862356
9010,10,Ticks_ISO_T2_5,220,5,42,127,1124904276
9010,10,Ticks_ISO_T2_5,221,1,48,27,1125361876
9010,10,Ticks_ISO_T2_5,222,5,42,127,1125404044
9010,10,Ticks_ISO_T2_5,223,1,48,21,1125887480
9010,10,Ticks_ISO_T2_5,224,5,42,127,1125903816
9010,10,Ticks_ISO_T2_5,225,1,48,25,1126356032
9010,10,Ticks_ISO_T2_5,226,5,42,127,1126403584
9010,10,Ticks_ISO_T2_5,227,1,48,33,1126856692
9010,10,Ticks_ISO_T2_5,228,5,42,127,1126904100
9010,10,Ticks_ISO_T2_5,229,1,48,29,1127371424
9010,10,Ticks_ISO_T2_5,230,5,42,127,1127403920
9010,10,Ticks_ISO_T2_5,231,1,48,36,1127869996
9010,10,Ticks_ISO_T2_5,232,5,42,127,1127903616
9010,10,Ticks_ISO_T2_5,233,1,48,29,1128374556
9010,10,Ticks_ISO_T2_5,234,5,42,127,1128404432
9010,10,Ticks_ISO_T2_5,235,1,48,37,1128880232
9010,10,Ticks_ISO_T2_5,236,5,42,127,1128903976
9010,10,Ticks_ISO_T2_5,237,1,48,28,1129397876
9010,10,Ticks_ISO_T2_5,238,5,42,127,1129403744
9010,10,Ticks_ISO_T2_5,239,1,48,27,1129882988
9010,10,Ticks_ISO_T2_5,240,5,42,127,1129903588
9010,10,Ticks_ISO_T2_5,241,1,48,26,1130349020
9010,10,Ticks_ISO_T2_5,242,5,42,127,1130404104
9010,10,Ticks_ISO_T2_5,243,1,48,30,1130888660
9010,10,Ticks_ISO_T2_5,244,5,42,127,1130903800
9010,10,Ticks_ISO_T2_5,245,1,48,24,1131329484
9010,10,Ticks_ISO_T2_5,246,5,42,127,1131403568
9010,10,Ticks_ISO_T2_5,247,1,48,25,1131874956
9010,10,Ticks_ISO_T2_5,248,5,42,127,1131904532
9010,10,Ticks_ISO_T2_5,249,1,48,32,1132370164
9010,10,Ticks_ISO_T2_5,250,5,42,127,1132403932
9010,10,Ticks_ISO_T2_5,251,5,42,127,1132903780
9010,10,Ticks_ISO_T2_5,252,1,48,24,1132908548
9010,10,Ticks_ISO_T2_5,253,1,48,28,1133383536
9010,10,Ticks_ISO_T2_5,254,5,42,127,1133403468
9010,10,Ticks_ISO_T2_5,255,1,48,27,1133858700
9010,10,Ticks_ISO_T2_5,256,5,42,127,1133904360
9010,10,Ticks_ISO_T2_5,257,1,48,28,1134381656
9010,10,Ticks_ISO_T2_5,0,9999,9999,9999,1069401184
9010,10,Ticks_ISO_T2_5,1,9999,9999,9999,1069901872
9010,10,Ticks_ISO_T2_5,2,9999,9999,9999,1070401656
9010,10,Ticks_ISO_T2_5,3,9999,9999,9999,1070901360
9010,10,Ticks_ISO_T2_5,4,9999,9999,9999,1071402096
9010,10,Ticks_ISO_T2_5,5,9999,9999,9999,1071901788
9010,10,Ticks_ISO_T2_5,6,9999,9999,9999,1072401484
9010,10,Ticks_ISO_T2_5,7,9999,9999,9999,1072901180
9010,10,Ticks_ISO_T2_5,8,9999,9999,9999,1073401920
9010,10,Ticks_ISO_T2_5,9,9999,9999,9999,1073901672
9010,10,Ticks_ISO_T2_5,10,9999,9999,9999,1074401364
9010,10,Ticks_ISO_T2_5,11,9999,9999,9999,1074902064
9010,10,Ticks_ISO_T2_5,12,9999,9999,9999,1075401800
9010,10,Ticks_ISO_T2_5,13,9999,9999,9999,1075901488
9010,10,Ticks_ISO_T2_5,14,9999,9999,9999,1076401268
9010,10,Ticks_ISO_T2_5,15,9999,9999,9999,1076902000
9010,10,Ticks_ISO_T2_5,16,9999,9999,9999,1077401696
9010,10,Ticks_ISO_T2_5,17,9999,9999,9999,1077901392
9010,10,Ticks_ISO_T2_5,18,9999,9999,9999,1078401084
9010,10,Ticks_ISO_T2_5,19,9999,9999,9999,1078901828
9010,10,Ticks_ISO_T2_5,20,9999,9999,9999,1079401524
9010,10,Ticks_ISO_T2_5,21,9999,9999,9999,1079901300
9010,10,Ticks_ISO_T2_5,22,9999,9999,9999,1080402040
9010,10,Ticks_ISO_T2_5,23,9999,9999,9999,1080901728
9010,10,Ticks_ISO_T2_5,24,9999,9999,9999,1081401424
9010,10,Ticks_ISO_T2_5,25,9999,9999,9999,1081901124
9010,10,Ticks_ISO_T2_5,26,9999,9999,9999,1082401864
9010,10,Ticks_ISO_T2_5,27,9999,9999,9999,1082901560
9010,10,Ticks_ISO_T2_5,28,9999,9999,9999,1083401324
9010,10,Ticks_ISO_T2_5,29,9999,9999,9999,1083902064
9010,10,Ticks_ISO_T2_5,30,9999,9999,9999,1084401736
9010,10,Ticks_ISO_T2_5,31,9999,9999,9999,1084901484
9010,10,Ticks_ISO_T2_5,32,9999,9999,9999,1085401172
9010,10,Ticks_ISO_T2_5,33,9999,9999,9999,1085901916
9010,10,Ticks_ISO_T2_5,34,9999,9999,9999,1086401612
9010,10,Ticks_ISO_T2_5,35,9999,9999,9999,1086901308
9010,10,Ticks_ISO_T2_5,36,9999,9999,9999,1087402048
9010,10,Ticks_ISO_T2_5,37,9999,9999,9999,1087901748
9010,10,Ticks_ISO_T2_5,38,9999,9999,9999,1088401512
9010,10,Ticks_ISO_T2_5,39,9999,9999,9999,1088901204
9010,10,Ticks_ISO_T2_5,40,9999,9999,9999,1089401948
9010,10,Ticks_ISO_T2_5,41,9999,9999,9999,1089901648
9010,10,Ticks_ISO_T2_5,42,9999,9999,9999,1090401340
9010,10,Ticks_ISO_T2_5,43,9999,9999,9999,1090902088
9010,10,Ticks_ISO_T2_5,44,9999,9999,9999,1091401848
9010,10,Ticks_ISO_T2_5,45,9999,9999,9999,1091901544
9010,10,Ticks_ISO_T2_5,46,9999,9999,9999,1092401236
9010,10,Ticks_ISO_T2_5,47,9999,9999,9999,1092901980
9010,10,Ticks_ISO_T2_5,48,9999,9999,9999,1093401672
9010,10,Ticks_ISO_T2_5,49,9999,9999,9999,1093901368
9010,10,Ticks_ISO_T2_5,50,9999,9999,9999,1094401136
9010,10,Ticks_ISO_T2_5,51,9999,9999,9999,1094901876
9010,10,Ticks_ISO_T2_5,52,9999,9999,9999,1095401548
9010,10,Ticks_ISO_T2_5,53,9999,9999,9999,1095901244
9010,10,Ticks_ISO_T2_5,54,9999,9999,9999,1096401988
9010,10,Ticks_ISO_T2_5,55,9999,9999,9999,1096901680
9010,10,Ticks_ISO_T2_5,56,9999,9999,9999,1097401452
9010,10,Ticks_ISO_T2_5,57,9999,9999,9999,1097901148
9010,10,Ticks_ISO_T2_5,58,9999,9999,9999,1098401888
9010,10,Ticks_ISO_T2_5,59,9999,9999,9999,1098901584
9010,10,Ticks_ISO_T2_5,60,9999,9999,9999,1099401280
9010,10,Ticks_ISO_T2_5,61,9999,9999,9999,1099902020
9010,10,Ticks_ISO_T2_5,62,9999,9999,9999,1100401716
9010,10,Ticks_ISO_T2_5,63,9999,9999,9999,1100901492
9010,10,Ticks_ISO_T2_5,64,9999,9999,9999,1101401180
9010,10,Ticks_ISO_T2_5,65,9999,9999,9999,1101901924
9010,10,Ticks_ISO_T2_5,66,9999,9999,9999,1102401620
9010,10,Ticks_ISO_T2_5,67,9999,9999,9999,1102901316
9010,10,Ticks_ISO_T2_5,68,9999,9999,9999,1103402056
9010,10,Ticks_ISO_T2_5,69,9999,9999,9999,1103901752
9010,10,Ticks_ISO_T2_5,70,9999,9999,9999,1104401520
9010,10,Ticks_ISO_T2_5,71,9999,9999,9999,1104901212
9010,10,Ticks_ISO_T2_5,72,9999,9999,9999,1105401956
9010,10,Ticks_ISO_T2_5,73,9999,9999,9999,1105901624
9010,10,Ticks_ISO_T2_5,74,9999,9999,9999,1106401392
9010,10,Ticks_ISO_T2_5,75,9999,9999,9999,1106902136
9010,10,Ticks_ISO_T2_5,76,9999,9999,9999,1107401828
9010,10,Ticks_ISO_T2_5,77,9999,9999,9999,1107901524
9010,10,Ticks_ISO_T2_5,78,9999,9999,9999,1108401220
9010,10,Ticks_ISO_T2_5,79,9999,9999,9999,1108901960
9010,10,Ticks_ISO_T2_5,80,9999,9999,9999,1109401652
9010,10,Ticks_ISO_T2_5,81,9999,9999,9999,1109901424
9010,10,Ticks_ISO_T2_5,82,9999,9999,9999,1110401116
9010,10,Ticks_ISO_T2_5,83,9999,9999,9999,1110901860
9010,10,Ticks_ISO_T2_5,84,9999,9999,9999,1111401556
9010,10,Ticks_ISO_T2_5,85,9999,9999,9999,1111901252
9010,10,Ticks_ISO_T2_5,86,9999,9999,9999,1112401992
9010,10,Ticks_ISO_T2_5,87,9999,9999,9999,1112901688
9010,10,Ticks_ISO_T2_5,88,9999,9999,9999,1113401456
9010,10,Ticks_ISO_T2_5,89,9999,9999,9999,1113901152
9010,10,Ticks_ISO_T2_5,90,9999,9999,9999,1114401892
9010,10,Ticks_ISO_T2_5,91,9999,9999,9999,1114901588
9010,10,Ticks_ISO_T2_5,92,9999,9999,9999,1115401288
9010,10,Ticks_ISO_T2_5,93,9999,9999,9999,1115902024
9010,10,Ticks_ISO_T2_5,94,9999,9999,9999,1116401768
9010,10,Ticks_ISO_T2_5,95,9999,9999,9999,1116901460
9010,10,Ticks_ISO_T2_5,96,9999,9999,9999,1117401164
9010,10,Ticks_ISO_T2_5,97,9999,9999,9999,1117901904
9010,10,Ticks_ISO_T2_5,98,9999,9999,9999,1118401616
9010,10,Ticks_ISO_T2_5,99,9999,9999,9999,1118901312
9010,10,Ticks_ISO_T2_5,100,9999,9999,9999,1119402056
9010,10,Ticks_ISO_T2_5,101,9999,9999,9999,1119901748
9010,10,Ticks_ISO_T2_5,102,9999,9999,9999,1120401520
9010,10,Ticks_ISO_T2_5,103,9999,9999,9999,1120901216
9010,10,Ticks_ISO_T2_5,104,9999,9999,9999,1121401956
9010,10,Ticks_ISO_T2_5,105,9999,9999,9999,1121901652
9010,10,Ticks_ISO_T2_5,106,9999,9999,9999,1122401348
9010,10,Ticks_ISO_T2_5,107,9999,9999,9999,1122902088
9010,10,Ticks_ISO_T2_5,108,9999,9999,9999,1123401784
9010,10,Ticks_ISO_T2_5,109,9999,9999,9999,1123901552
9010,10,Ticks_ISO_T2_5,110,9999,9999,9999,1124401244
9010,10,Ticks_ISO_T2_5,111,9999,9999,9999,1124901988
9010,10,Ticks_ISO_T2_5,112,9999,9999,9999,1125401684
9010,10,Ticks_ISO_T2_5,113,9999,9999,9999,1125901380
9010,10,Ticks_ISO_T2_5,114,9999,9999,9999,1126401072
9010,10,Ticks_ISO_T2_5,115,9999,9999,9999,1126901816
9010,10,Ticks_ISO_T2_5,116,9999,9999,9999,1127401560
9010,10,Ticks_ISO_T2_5,117,9999,9999,9999,1127901252
9010,10,Ticks_ISO_T2_5,118,9999,9999,9999,1128401996
9010,10,Ticks_ISO_T2_5,119,9999,9999,9999,1128901688
9010,10,Ticks_ISO_T2_5,120,9999,9999,9999,1129401456
9010,10,Ticks_ISO_T2_5,121,9999,9999,9999,1129901152
9010,10,Ticks_ISO_T2_5,122,9999,9999,9999,1130401892
9010,10,Ticks_ISO_T2_5,123,9999,9999,9999,1130901588
9010,10,Ticks_ISO_T2_5,124,9999,9999,9999,1131401284
9010,10,Ticks_ISO_T2_5,125,9999,9999,9999,1131902024
9010,10,Ticks_ISO_T2_5,126,9999,9999,9999,1132401716
9010,10,Ticks_ISO_T2_5,127,9999,9999,9999,1132901492
9010,10,Ticks_ISO_T2_5,128,9999,9999,9999,1133401184
9010,10,Ticks_ISO_T2_5,129,9999,9999,9999,1133901924
9011,25,Jits_Pract_5,0,5,56,103,1190437340
9011,25,Jits_Pract_5,1,5,63,98,1190440516
9011,25,Jits_Pract_5,2,5,80,127,1190443560
9011,25,Jits_Pract_5,0,5,56,103,1190937064
9011,25,Jits_Pract_5,1,5,63,98,1190940240
9011,25,Jits_Pract_5,2,5,80,127,1190943284
9011,25,Jits_Pract_5,0,5,56,103,1191436808
9011,25,Jits_Pract_5,1,5,80,127,1191446780
9011,25,Jits_Pract_5,2,5,63,98,1191467316
9011,25,Jits_Pract_5,0,5,63,98,1191887228
9011,25,Jits_Pract_5,1,5,80,127,1191916980
9011,25,Jits_Pract_5,2,5,56,103,1191927276
9011,25,Jits_Pract_5,0,5,80,127,1192447220
9011,25,Jits_Pract_5,1,5,56,103,1192456668
9011,25,Jits_Pract_5,2,5,63,98,1192487168
9011,25,Jits_Pract_5,0,5,63,98,1192936824
9011,25,Jits_Pract_5,1,5,56,103,1192966600
9011,25,Jits_Pract_5,2,5,80,127,1192976868
9011,25,Jits_Pract_5,0,5,56,103,1193387628
9011,25,Jits_Pract_5,1,5,63,98,1193436784
9011,25,Jits_Pract_5,2,5,80,127,1193456896
9011,25,Jits_Pract_5,0,5,80,127,1193887148
9011,25,Jits_Pract_5,1,5,63,98,1193937276
9011,25,Jits_Pract_5,2,5,56,103,1193977088
9011,25,Jits_Pract_5,0,5,56,103,1194386816
9011,25,Jits_Pract_5,1,5,63,98,1194416716
9011,25,Jits_Pract_5,2,5,80,127,1194487092
9011,25,Jits_Pract_5,0,5,56,103,1194886560
9011,25,Jits_Pract_5,1,5,80,127,1194946952
9011,25,Jits_Pract_5,2,5,63,98,1194976700
9011,25,Jits_Pract_5,0,5,56,103,1195396492
9011,25,Jits_Pract_5,1,5,63,98,1195406616
9011,25,Jits_Pract_5,2,5,80,127,1195446624
9011,25,Jits_Pract_5,0,5,63,98,1195886940
9011,25,Jits_Pract_5,1,5,80,127,1195966812
9011,25,Jits_Pract_5,2,5,56,103,1195977080
9011,25,Jits_Pract_5,0,5,63,98,1196436796
9011,25,Jits_Pract_5,1,5,56,103,1196476732
9011,25,Jits_Pract_5,2,5,80,127,1196479724
9011,25,Jits_Pract_5,0,5,56,103,1196896512
9011,25,Jits_Pract_5,1,5,63,98,1196906860
9011,25,Jits_Pract_5,2,5,80,127,1196946948
9011,25,Jits_Pract_5,0,5,56,103,1197387108
9011,25,Jits_Pract_5,1,5,63,98,1197390248
9011,25,Jits_Pract_5,2,5,80,127,1197406668
9011,25,Jits_Pract_5,0,9999,9999,9999,1190684776
9011,25,Jits_Pract_5,1,9999,9999,9999,1191184500
9011,25,Jits_Pract_5,2,9999,9999,9999,1191684172
9011,25,Jits_Pract_5,3,9999,9999,9999,1192184888
9011,25,Jits_Pract_5,4,9999,9999,9999,1192684596
9011,25,Jits_Pract_5,5,9999,9999,9999,1193184340
9011,25,Jits_Pract_5,6,9999,9999,9999,1193685112
9011,25,Jits_Pract_5,7,9999,9999,9999,1194184784
9011,25,Jits_Pract_5,8,9999,9999,9999,1194684524
9011,25,Jits_Pract_5,9,9999,9999,9999,1195184196
9011,25,Jits_Pract_5,10,9999,9999,9999,1195684980
9011,25,Jits_Pract_5,11,9999,9999,9999,1196184652
9011,25,Jits_Pract_5,12,9999,9999,9999,1196684376
9011,25,Jits_Pract_5,13,9999,9999,9999,1197184108
9011,25,Jits_Pract_5,14,9999,9999,9999,1197684804
9012,24,Jits_Pract_8,0,5,56,103,1261345264
9012,24,Jits_Pract_8,1,5,63,98,1261348288
9012,24,Jits_Pract_8,2,5,80,127,1261351484
9012,24,Jits_Pract_8,0,5,56,103,1262144908
9012,24,Jits_Pract_8,1,5,63,98,1262147928
9012,24,Jits_Pract_8,2,5,80,127,1262150980
9012,24,Jits_Pract_8,0,5,80,127,1262885148
9012,24,Jits_Pract_8,1,1,48,21,1262953304
9012,24,Jits_Pract_8,2,5,63,98,1262975352
9012,24,Jits_Pract_8,3,5,56,103,1262984500
9012,24,Jits_Pract_8,0,5,56,103,1263704400
9012,24,Jits_Pract_8,1,5,63,98,1263714820
9012,24,Jits_Pract_8,2,1,48,28,1263757268
9012,24,Jits_Pract_8,3,5,80,127,1263804792
9012,24,Jits_Pract_8,0,5,63,98,1264474352
9012,24,Jits_Pract_8,1,1,48,30,1264491848
9012,24,Jits_Pract_8,2,5,80,127,1264505216
9012,24,Jits_Pract_8,3,5,56,103,1264534968
9012,24,Jits_Pract_8,0,1,48,33,1265263212
9012,24,Jits_Pract_8,1,5,56,103,1265275144
9012,24,Jits_Pract_8,2,5,80,127,1265374632
9012,24,Jits_Pract_8,3,5,63,98,1265424708
9012,24,Jits_Pract_8,0,5,56,103,1266074912
9012,24,Jits_Pract_8,1,5,80,127,1266125040
9012,24,Jits_Pract_8,2,1,48,28,1266160916
9012,24,Jits_Pract_8,3,5,63,98,1266165216
9012,24,Jits_Pract_8,0,1,48,28,1266899216
9012,24,Jits_Pract_8,1,5,80,127,1266904640
9012,24,Jits_Pract_8,2,5,63,98,1266935088
9012,24,Jits_Pract_8,3,5,56,103,1267004828
9012,24,Jits_Pract_8,0,5,63,98,1267734772
9012,24,Jits_Pract_8,1,1,48,29,1267738412
9012,24,Jits_Pract_8,2,5,56,103,1267764816
9012,24,Jits_Pract_8,3,5,80,127,1267824904
9012,24,Jits_Pract_8,0,5,56,103,1268475116
9012,24,Jits_Pract_8,1,5,80,127,1268478336
9012,24,Jits_Pract_8,2,1,48,27,1268534804
9012,24,Jits_Pract_8,3,5,63,98,1268594984
9012,24,Jits_Pract_8,0,1,48,25,1269287208
9012,24,Jits_Pract_8,1,5,56,103,1269354816
9012,24,Jits_Pract_8,2,5,80,127,1269394740
9012,24,Jits_Pract_8,3,5,63,98,1269405088
9012,24,Jits_Pract_8,0,5,56,103,1270114652
9012,24,Jits_Pract_8,1,1,48,31,1270125340
9012,24,Jits_Pract_8,2,5,80,127,1270135032
9012,24,Jits_Pract_8,3,5,63,98,1270214972
9012,24,Jits_Pract_8,0,1,48,29,1270877976
9012,24,Jits_Pract_8,1,5,80,127,1270905128
9012,24,Jits_Pract_8,2,5,56,103,1271004612
9012,24,Jits_Pract_8,3,5,63,98,1271014732
9012,24,Jits_Pract_8,0,5,63,98,1271675152
9012,24,Jits_Pract_8,1,5,80,127,1271734568
9012,24,Jits_Pract_8,2,1,48,37,1271735832
9012,24,Jits_Pract_8,3,5,56,103,1271744836
9012,24,Jits_Pract_8,0,1,48,36,1272449992
9012,24,Jits_Pract_8,1,5,56,103,1272475048
9012,24,Jits_Pract_8,2,5,63,98,1272544656
9012,24,Jits_Pract_8,3,5,80,127,1272548020
9012,24,Jits_Pract_8,0,9999,9999,9999,1261742152
9012,24,Jits_Pract_8,1,9999,9999,9999,1262542916
9012,24,Jits_Pract_8,2,9999,9999,9999,1263342652
9012,24,Jits_Pract_8,3,9999,9999,9999,1264142420
9012,24,Jits_Pract_8,4,9999,9999,9999,1264942188
9012,24,Jits_Pract_8,5,9999,9999,9999,1265742920
9012,24,Jits_Pract_8,6,9999,9999,9999,1266542672
9012,24,Jits_Pract_8,7,9999,9999,9999,1267342444
9012,24,Jits_Pract_8,8,9999,9999,9999,1268142132
9012,24,Jits_Pract_8,9,9999,9999,9999,1268942924
9012,24,Jits_Pract_8,10,9999,9999,9999,1269742652
9012,24,Jits_Pract_8,11,9999,9999,9999,1270542412
9012,24,Jits_Pract_8,12,9999,9999,9999,1271342184
9012,24,Jits_Pract_8,13,9999,9999,9999,1272142912
9012,24,Jits_Pract_8,14,9999,9999,9999,1272942660
9013,25,Jits_Pract_5,0,5,56,103,1281252708
9013,25,Jits_Pract_5,1,5,63,98,1281255956
9013,25,Jits_Pract_5,2,5,80,127,1281259152
9013,25,Jits_Pract_5,0,5,56,103,1281752484
9013,25,Jits_Pract_5,1,5,63,98,1281755732
9013,25,Jits_Pract_5,2,5,80,127,1281758776
9013,25,Jits_Pract_5,0,1,48,19,1282212628
9013,25,Jits_Pract_5,1,5,56,103,1282253408
9013,25,Jits_Pract_5,2,5,80,127,1282263756
9013,25,Jits_Pract_5,3,5,63,98,1282282872
9013,25,Jits_Pract_5,0,5,63,98,1282702664
9013,25,Jits_Pract_5,1,5,80,127,1282733536
9013,25,Jits_Pract_5,2,5,56,103,1282742684
9013,25,Jits_Pract_5,3,1,48,27,1282779656
9013,25,Jits_Pract_5,0,1,48,25,1283258948
9013,25,Jits_Pract_5,1,5,80,127,1283263028
9013,25,Jits_Pract_5,2,5,56,103,1283273000
9013,25,Jits_Pract_5,3,5,63,98,1283302900
9013,25,Jits_Pract_5,0,5,63,98,1283753436
9013,25,Jits_Pract_5,1,1,48,22,1283764504
9013,25,Jits_Pract_5,2,5,56,103,1283782884
9013,25,Jits_Pract_5,3,5,80,127,1283793452
9013,25,Jits_Pract_5,0,5,56,103,1284202864
9013,25,Jits_Pract_5,1,5,63,98,1284253140
9013,25,Jits_Pract_5,2,1,48,17,1284268912
9013,25,Jits_Pract_5,3,5,80,127,1284272692
9013,25,Jits_Pract_5,0,5,80,127,1284702640
9013,25,Jits_Pract_5,1,1,48,24,1284730176
9013,25,Jits_Pract_5,2,5,63,98,1284752688
9013,25,Jits_Pract_5,3,5,56,103,1284792552
9013,25,Jits_Pract_5,0,5,56,103,1285203540
9013,25,Jits_Pract_5,1,5,63,98,1285232996
9013,25,Jits_Pract_5,2,1,48,25,1285262492
9013,25,Jits_Pract_5,3,5,80,127,1285302668
9013,25,Jits_Pract_5,0,5,56,103,1285703020
9013,25,Jits_Pract_5,1,1,48,28,1285724276
9013,25,Jits_Pract_5,2,5,80,127,1285762508
9013,25,Jits_Pract_5,3,5,63,98,1285793084
9013,25,Jits_Pract_5,0,5,56,103,1286212992
9013,25,Jits_Pract_5,1,5,63,98,1286223340
9013,25,Jits_Pract_5,2,5,80,127,1286263128
9013,25,Jits_Pract_5,3,1,48,28,1286289312
9013,25,Jits_Pract_5,0,5,63,98,1286702356
9013,25,Jits_Pract_5,1,1,48,26,1286732976
9013,25,Jits_Pract_5,2,5,80,127,1286783564
9013,25,Jits_Pract_5,3,5,56,103,1286792564
9013,25,Jits_Pract_5,0,1,48,31,1287244944
9013,25,Jits_Pract_5,1,5,63,98,1287253508
9013,25,Jits_Pract_5,2,5,56,103,1287293444
9013,25,Jits_Pract_5,3,5,80,127,1287296512
9013,25,Jits_Pract_5,0,5,56,103,1287713044
9013,25,Jits_Pract_5,1,5,63,98,1287723312
9013,25,Jits_Pract_5,2,5,80,127,1287763548
9013,25,Jits_Pract_5,3,1,48,24,1287767268
9013,25,Jits_Pract_5,0,5,56,103,1288202556
9013,25,Jits_Pract_5,1,5,63,98,1288205844
9013,25,Jits_Pract_5,2,5,80,127,1288223012
9013,25,Jits_Pract_5,3,1,48,23,1288232284
9013,25,Jits_Pract_5,0,9999,9999,9999,1281500268
9013,25,Jits_Pract_5,1,9999,9999,9999,1282000964
9013,25,Jits_Pract_5,2,9999,9999,9999,1282500664
9013,25,Jits_Pract_5,3,9999,9999,9999,1283000424
9013,25,Jits_Pract_5,4,9999,9999,9999,1283500120
9013,25,Jits_Pract_5,5,9999,9999,9999,1284000860
9013,25,Jits_Pract_5,6,9999,9999,9999,1284500552
9013,25,Jits_Pract_5,7,9999,9999,9999,1285000256
9013,25,Jits_Pract_5,8,9999,9999,9999,1285501008
9013,25,Jits_Pract_5,9,9999,9999,9999,1286000712
9013,25,Jits_Pract_5,10,9999,9999,9999,1286500416
9013,25,Jits_Pract_5,11,9999,9999,9999,1287000120
9013,25,Jits_Pract_5,12,9999,9999,9999,1287500852
9013,25,Jits_Pract_5,13,9999,9999,9999,1288000616
9013,25,Jits_Pract_5,14,9999,9999,9999,1288500308
9014,15,Jits_Phase_8,0,5,56,103,1317510496
9014,15,Jits_Phase_8,1,5,63,98,1317513820
9014,15,Jits_Phase_8,2,5,80,127,1317516864
9014,15,Jits_Phase_8,0,5,56,103,1318311404
9014,15,Jits_Phase_8,1,5,63,98,1318314276
9014,15,Jits_Phase_8,2,5,80,127,1318317400
9014,15,Jits_Phase_8,0,5,80,127,1319050676
9014,15,Jits_Phase_8,1,1,48,31,1319099276
9014,15,Jits_Phase_8,2,5,63,98,1319141028
9014,15,Jits_Phase_8,3,5,56,103,1319151248
9014,15,Jits_Phase_8,0,5,56,103,1319870976
9014,15,Jits_Phase_8,1,5,63,98,1319881024
9014,15,Jits_Phase_8,2,1,48,34,1319900480
9014,15,Jits_Phase_8,3,5,80,127,1319971320
9014,15,Jits_Phase_8,0,5,63,98,1320641080
9014,15,Jits_Phase_8,1,1,48,35,1320668244
9014,15,Jits_Phase_8,2,5,80,127,1320670600
9014,15,Jits_Phase_8,3,5,56,103,1320701348
9014,15,Jits_Phase_8,0,1,48,30,1321400044
9014,15,Jits_Phase_8,1,5,56,103,1321440676
9014,15,Jits_Phase_8,2,5,80,127,1321541084
9014,15,Jits_Phase_8,3,5,63,98,1321591136
9014,15,Jits_Phase_8,0,1,48,36,1322213664
9014,15,Jits_Phase_8,1,5,56,103,1322241508
9014,15,Jits_Phase_8,2,5,80,127,1322290516
9014,15,Jits_Phase_8,3,5,63,98,1322330364
9014,15,Jits_Phase_8,0,1,48,35,1323019136
9014,15,Jits_Phase_8,1,5,80,127,1323071004
9014,15,Jits_Phase_8,2,5,63,98,1323100384
9014,15,Jits_Phase_8,3,5,56,103,1323171320
9014,15,Jits_Phase_8,0,1,48,30,1323870372
9014,15,Jits_Phase_8,1,5,63,98,1323901332
9014,15,Jits_Phase_8,2,5,56,103,1323930936
9014,15,Jits_Phase_8,3,5,80,127,1323991532
9014,15,Jits_Phase_8,0,5,56,103,1324640788
9014,15,Jits_Phase_8,1,5,80,127,1324643780
9014,15,Jits_Phase_8,2,1,48,35,1324653420
9014,15,Jits_Phase_8,3,5,63,98,1324760564
9014,15,Jits_Phase_8,0,1,48,38,1325462920
9014,15,Jits_Phase_8,1,5,56,103,1325521160
9014,15,Jits_Phase_8,2,5,80,127,1325561108
9014,15,Jits_Phase_8,3,5,63,98,1325570332
9014,15,Jits_Phase_8,0,5,56,103,1326281072
9014,15,Jits_Phase_8,1,1,48,34,1326282116
9014,15,Jits_Phase_8,2,5,80,127,1326300404
9014,15,Jits_Phase_8,3,5,63,98,1326381480
9014,15,Jits_Phase_8,0,5,80,127,1327070436
9014,15,Jits_Phase_8,1,1,48,29,1327093136
9014,15,Jits_Phase_8,2,5,56,103,1327171076
9014,15,Jits_Phase_8,3,5,63,98,1327181272
9014,15,Jits_Phase_8,0,5,63,98,1327840916
9014,15,Jits_Phase_8,1,5,80,127,1327901188
9014,15,Jits_Phase_8,2,5,56,103,1327911236
9014,15,Jits_Phase_8,3,1,48,36,1327935176
9014,15,Jits_Phase_8,0,5,56,103,1328641520
9014,15,Jits_Phase_8,1,1,48,40,1328657296
9014,15,Jits_Phase_8,2,5,63,98,1328711048
9014,15,Jits_Phase_8,3,5,80,127,1328714412
9014,15,Jits_Phase_8,0,1,48,47,1329430764
9014,15,Jits_Phase_8,1,5,63,98,1329471016
9014,15,Jits_Phase_8,2,5,56,103,1329520916
9014,15,Jits_Phase_8,3,5,80,127,1329523988
9014,15,Jits_Phase_8,0,5,56,103,1330230916
9014,15,Jits_Phase_8,1,5,80,127,1330233604
9014,15,Jits_Phase_8,2,1,48,40,1330258148
9014,15,Jits_Phase_8,3,5,63,98,1330320960
9014,15,Jits_Phase_8,0,1,48,39,1330984036
9014,15,Jits_Phase_8,1,5,63,98,1331071272
9014,15,Jits_Phase_8,2,5,56,103,1331160492
9014,15,Jits_Phase_8,3,5,80,127,1331191092
9014,15,Jits_Phase_8,0,5,56,103,1331861076
9014,15,Jits_Phase_8,1,1,48,44,1331868688
9014,15,Jits_Phase_8,2,5,63,98,1331961776
9014,15,Jits_Phase_8,3,5,80,127,1331991004
9014,15,Jits_Phase_8,0,1,48,45,1332670716
9014,15,Jits_Phase_8,1,5,63,98,1332680928
9014,15,Jits_Phase_8,2,5,56,103,1332691272
9014,15,Jits_Phase_8,3,5,80,127,1332781560
9014,15,Jits_Phase_8,0,1,48,43,1333480592
9014,15,Jits_Phase_8,1,5,63,98,1333501364
9014,15,Jits_Phase_8,2,5,56,103,1333581292
9014,15,Jits_Phase_8,3,5,80,127,1333584284
9014,15,Jits_Phase_8,0,5,80,127,1334261116
9014,15,Jits_Phase_8,1,5,63,98,1334280532
9014,15,Jits_Phase_8,2,1,48,44,1334336536
9014,15,Jits_Phase_8,3,5,56,103,1334340912
9014,15,Jits_Phase_8,0,5,56,103,1335100972
9014,15,Jits_Phase_8,1,5,63,98,1335121128
9014,15,Jits_Phase_8,2,5,80,127,1335124720
9014,15,Jits_Phase_8,3,1,48,40,1335133244
9014,15,Jits_Phase_8,0,5,63,98,1335841100
9014,15,Jits_Phase_8,1,1,48,40,1335892764
9014,15,Jits_Phase_8,2,5,80,127,1335921112
9014,15,Jits_Phase_8,3,5,56,103,1335931232
9014,15,Jits_Phase_8,0,5,63,98,1336661308
9014,15,Jits_Phase_8,1,1,48,38,1336665996
9014,15,Jits_Phase_8,2,5,56,103,1336681088
9014,15,Jits_Phase_8,3,5,80,127,1336731212
9014,15,Jits_Phase_8,0,1,48,35,1337435100
9014,15,Jits_Phase_8,1,5,80,127,1337460984
9014,15,Jits_Phase_8,2,5,63,98,1337501000
9014,15,Jits_Phase_8,3,5,56,103,1337520632
9014,15,Jits_Phase_8,0,1,48,36,1338252096
9014,15,Jits_Phase_8,1,5,56,103,1338301044
9014,15,Jits_Phase_8,2,5,63,98,1338311020
9014,15,Jits_Phase_8,3,5,80,127,1338330656
9014,15,Jits_Phase_8,0,5,56,103,1339030764
9014,15,Jits_Phase_8,1,1,48,39,1339046988
9014,15,Jits_Phase_8,2,5,63,98,1339120992
9014,15,Jits_Phase_8,3,5,80,127,1339181364
9014,15,Jits_Phase_8,0,5,80,127,1339861328
9014,15,Jits_Phase_8,1,5,56,103,1339870848
9014,15,Jits_Phase_8,2,1,48,37,1339890256
9014,15,Jits_Phase_8,3,5,63,98,1339941220
9014,15,Jits_Phase_8,0,1,48,38,1340662512
9014,15,Jits_Phase_8,1,5,63,98,1340690936
9014,15,Jits_Phase_8,2,5,80,127,1340780980
9014,15,Jits_Phase_8,3,5,56,103,1340791324
9014,15,Jits_Phase_8,0,5,63,98,1341420880
9014,15,Jits_Phase_8,1,5,80,127,1341471232
9014,15,Jits_Phase_8,2,1,48,43,1341479824
9014,15,Jits_Phase_8,3,5,56,103,1341530416
9014,15,Jits_Phase_8,0,5,56,103,1342241092
9014,15,Jits_Phase_8,1,1,48,44,1342248620
9014,15,Jits_Phase_8,2,5,80,127,1342291288
9014,15,Jits_Phase_8,3,1,48,25,1342309088
9014,15,Jits_Phase_8,4,5,63,98,1342310752
9014,15,Jits_Phase_8,0,5,56,103,1343011288
9014,15,Jits_Phase_8,1,1,48,46,1343043404
9014,15,Jits_Phase_8,2,5,80,127,1343070704
9014,15,Jits_Phase_8,3,1,48,26,1343111116
9014,15,Jits_Phase_8,4,5,63,98,1343141108
9014,15,Jits_Phase_8,0,5,56,103,1343810864
9014,15,Jits_Phase_8,1,5,80,127,1343840840
9014,15,Jits_Phase_8,2,5,63,98,1343871264
9014,15,Jits_Phase_8,3,1,48,45,1343874232
9014,15,Jits_Phase_8,4,1,48,25,1343938792
9014,15,Jits_Phase_8,0,1,48,48,1344642016
9014,15,Jits_Phase_8,1,5,56,103,1344650588
9014,15,Jits_Phase_8,2,5,80,127,1344671048
9014,15,Jits_Phase_8,3,5,63,98,1344730612
9014,15,Jits_Phase_8,0,1,48,40,1345420500
9014,15,Jits_Phase_8,1,1,48,26,1345470372
9014,15,Jits_Phase_8,2,5,80,127,1345531108
9014,15,Jits_Phase_8,3,5,56,103,1345540408
9014,15,Jits_Phase_8,4,5,63,98,1345550976
9014,15,Jits_Phase_8,0,5,56,103,1346290996
9014,15,Jits_Phase_8,1,5,80,127,1346330936
9014,15,Jits_Phase_8,2,1,48,39,1346358716
9014,15,Jits_Phase_8,3,5,63,98,1346360604
9014,15,Jits_Phase_8,0,5,56,103,1347061180
9014,15,Jits_Phase_8,1,5,63,98,1347090856
9014,15,Jits_Phase_8,2,5,80,127,1347130864
9014,15,Jits_Phase_8,3,1,48,38,1347187020
9014,15,Jits_Phase_8,0,5,80,127,1347810804
9014,15,Jits_Phase_8,1,5,63,98,1347860808
9014,15,Jits_Phase_8,2,1,48,35,1347872616
9014,15,Jits_Phase_8,3,5,56,103,1347881184
9014,15,Jits_Phase_8,0,1,48,34,1348588988
9014,15,Jits_Phase_8,1,5,56,103,1348641080
9014,15,Jits_Phase_8,2,5,80,127,1348710748
9014,15,Jits_Phase_8,3,5,63,98,1348771208
9014,15,Jits_Phase_8,0,5,80,127,1349440840
9014,15,Jits_Phase_8,1,1,48,36,1349442400
9014,15,Jits_Phase_8,2,5,63,98,1349530892
9014,15,Jits_Phase_8,3,5,56,103,1349550588
9014,15,Jits_Phase_8,0,5,63,98,1350261140
9014,15,Jits_Phase_8,1,5,56,103,1350280628
9014,15,Jits_Phase_8,2,5,80,127,1350320788
9014,15,Jits_Phase_8,3,1,48,37,1350346828
9014,15,Jits_Phase_8,0,5,80,127,1351020888
9014,15,Jits_Phase_8,1,5,63,98,1351041348
9014,15,Jits_Phase_8,2,1,48,43,1351072336
9014,15,Jits_Phase_8,3,5,56,103,1351121208
9014,15,Jits_Phase_8,0,5,63,98,1351810688
9014,15,Jits_Phase_8,1,1,48,38,1351840260
9014,15,Jits_Phase_8,2,5,56,103,1351921068
9014,15,Jits_Phase_8,3,5,80,127,1351924060
9014,15,Jits_Phase_8,0,1,48,44,1352630136
9014,15,Jits_Phase_8,1,5,63,98,1352631780
9014,15,Jits_Phase_8,2,5,56,103,1352640852
9014,15,Jits_Phase_8,3,5,80,127,1352643920
9014,15,Jits_Phase_8,0,1,48,37,1353409336
9014,15,Jits_Phase_8,1,5,56,103,1353410996
9014,15,Jits_Phase_8,2,5,80,127,1353530732
9014,15,Jits_Phase_8,3,5,63,98,1353570672
9014,15,Jits_Phase_8,0,5,56,103,1354231236
9014,15,Jits_Phase_8,1,5,80,127,1354310888
9014,15,Jits_Phase_8,2,1,48,38,1354315952
9014,15,Jits_Phase_8,3,5,63,98,1354330664
9014,15,Jits_Phase_8,0,5,56,103,1355030788
9014,15,Jits_Phase_8,1,1,48,37,1355117812
9014,15,Jits_Phase_8,2,5,63,98,1355140616
9014,15,Jits_Phase_8,3,5,80,127,1355143832
9014,15,Jits_Phase_8,0,5,56,103,1355870556
9014,15,Jits_Phase_8,1,1,48,35,1355897788
9014,15,Jits_Phase_8,2,5,80,127,1355901272
9014,15,Jits_Phase_8,3,5,63,98,1355920836
9014,15,Jits_Phase_8,0,5,63,98,1356660964
9014,15,Jits_Phase_8,1,5,56,103,1356671308
9014,15,Jits_Phase_8,2,5,80,127,1356680608
9014,15,Jits_Phase_8,3,1,48,36,1356689200
9014,15,Jits_Phase_8,0,5,80,127,1357450748
9014,15,Jits_Phase_8,1,1,48,38,1357461288
9014,15,Jits_Phase_8,2,5,56,103,1357500872
9014,15,Jits_Phase_8,3,5,63,98,1357540808
9014,15,Jits_Phase_8,0,5,80,127,1358270896
9014,15,Jits_Phase_8,1,1,48,37,1358272688
9014,15,Jits_Phase_8,2,5,63,98,1358291572
9014,15,Jits_Phase_8,3,5,56,103,1358340676
9014,15,Jits_Phase_8,0,1,48,37,1359075948
9014,15,Jits_Phase_8,1,5,80,127,1359080876
9014,15,Jits_Phase_8,2,5,56,103,1359110624
9014,15,Jits_Phase_8,3,5,63,98,1359181560
9014,15,Jits_Phase_8,0,1,48,40,1359919944
9014,15,Jits_Phase_8,1,5,56,103,1359930760
9014,15,Jits_Phase_8,2,5,80,127,1359940956
9014,15,Jits_Phase_8,3,5,63,98,1359980892
9014,15,Jits_Phase_8,0,5,56,103,1360641520
9014,15,Jits_Phase_8,1,5,63,98,1360660784
9014,15,Jits_Phase_8,2,1,48,43,1360688484
9014,15,Jits_Phase_8,3,5,80,127,1360730680
9014,15,Jits_Phase_8,0,1,48,37,1361403268
9014,15,Jits_Phase_8,1,5,63,98,1361460688
9014,15,Jits_Phase_8,2,5,80,127,1361520988
9014,15,Jits_Phase_8,3,5,56,103,1361540624
9014,15,Jits_Phase_8,0,5,80,127,1362251232
9014,15,Jits_Phase_8,1,1,48,37,1362264692
9014,15,Jits_Phase_8,2,5,56,103,1362280828
9014,15,Jits_Phase_8,3,5,63,98,1362310576
9014,15,Jits_Phase_8,0,1,48,36,1363024296
9014,15,Jits_Phase_8,1,5,56,103,1363050996
9014,15,Jits_Phase_8,2,5,63,98,1363111536
9014,15,Jits_Phase_8,3,5,80,127,1363170640
9014,15,Jits_Phase_8,0,5,80,127,1363871068
9014,15,Jits_Phase_8,1,1,48,40,1363883776
9014,15,Jits_Phase_8,2,5,56,103,1363890772
9014,15,Jits_Phase_8,3,5,63,98,1363961300
9014,15,Jits_Phase_8,0,5,80,127,1364670764
9014,15,Jits_Phase_8,1,5,63,98,1364691448
9014,15,Jits_Phase_8,2,1,48,38,1364714368
9014,15,Jits_Phase_8,3,5,56,103,1364721140
9014,15,Jits_Phase_8,0,1,48,45,1365442856
9014,15,Jits_Phase_8,1,5,80,127,1365461312
9014,15,Jits_Phase_8,2,5,63,98,1365480896
9014,15,Jits_Phase_8,3,1,48,24,1365501988
9014,15,Jits_Phase_8,4,5,56,103,1365541340
9014,15,Jits_Phase_8,0,1,48,47,1366257792
9014,15,Jits_Phase_8,1,5,80,127,1366260972
9014,15,Jits_Phase_8,2,5,56,103,1366360680
9014,15,Jits_Phase_8,3,5,63,98,1366391104
9014,15,Jits_Phase_8,0,5,63,98,1367050552
9014,15,Jits_Phase_8,1,5,80,127,1367100904
9014,15,Jits_Phase_8,2,1,48,44,1367111444
9014,15,Jits_Phase_8,3,5,56,103,1367121208
9014,15,Jits_Phase_8,0,1,48,38,1367864052
9014,15,Jits_Phase_8,1,5,80,127,1367891428
9014,15,Jits_Phase_8,2,5,56,103,1367921028
9014,15,Jits_Phase_8,3,5,63,98,1367924096
9014,15,Jits_Phase_8,0,1,48,41,1368686572
9014,15,Jits_Phase_8,1,5,63,98,1368741452
9014,15,Jits_Phase_8,2,5,56,103,1368781316
9014,15,Jits_Phase_8,3,5,80,127,1368800712
9014,15,Jits_Phase_8,0,1,48,33,1369500692
9014,15,Jits_Phase_8,1,5,80,127,1369502252
9014,15,Jits_Phase_8,2,5,63,98,1369580880
9014,15,Jits_Phase_8,3,5,56,103,1369620948
9014,15,Jits_Phase_8,0,1,48,37,1370314572
9014,15,Jits_Phase_8,1,5,63,98,1370321420
9014,15,Jits_Phase_8,2,5,80,127,1370401016
9014,15,Jits_Phase_8,3,5,56,103,1370420564
9014,15,Jits_Phase_8,0,1,48,39,1371114136
9014,15,Jits_Phase_8,1,5,56,103,1371161064
9014,15,Jits_Phase_8,2,5,63,98,1371171112
9014,15,Jits_Phase_8,3,5,80,127,1371211260
9014,15,Jits_Phase_8,0,5,56,103,1371880740
9014,15,Jits_Phase_8,1,5,80,127,1371883660
9014,15,Jits_Phase_8,2,1,48,37,1371927228
9014,15,Jits_Phase_8,3,5,63,98,1372021268
9014,15,Jits_Phase_8,0,5,56,103,1372671436
9014,15,Jits_Phase_8,1,1,48,36,1372735384
9014,15,Jits_Phase_8,2,5,63,98,1372760368
9014,15,Jits_Phase_8,3,5,80,127,1372832348
9014,15,Jits_Phase_8,0,1,48,39,1373512456
9014,15,Jits_Phase_8,1,5,63,98,1373550992
9014,15,Jits_Phase_8,2,5,80,127,1373554432
9014,15,Jits_Phase_8,3,5,56,103,1373611440
9014,15,Jits_Phase_8,0,1,48,38,1374334084
9014,15,Jits_Phase_8,1,5,80,127,1374390752
9014,15,Jits_Phase_8,2,5,56,103,1374411064
9014,15,Jits_Phase_8,3,5,63,98,1374421336
9014,15,Jits_Phase_8,0,5,56,103,1375101368
9014,15,Jits_Phase_8,1,5,63,98,1375110596
9014,15,Jits_Phase_8,2,1,48,38,1375176788
9014,15,Jits_Phase_8,3,5,80,127,1375181240
9014,15,Jits_Phase_8,0,1,48,42,1375888356
9014,15,Jits_Phase_8,1,5,80,127,1375900912
9014,15,Jits_Phase_8,2,5,56,103,1375951412
9014,15,Jits_Phase_8,3,5,63,98,1376001548
9014,15,Jits_Phase_8,0,1,48,38,1376745092
9014,15,Jits_Phase_8,1,5,56,103,1376780784
9014,15,Jits_Phase_8,2,5,63,98,1376790908
9014,15,Jits_Phase_8,3,5,80,127,1376830772
9014,15,Jits_Phase_8,0,5,56,103,1377521144
9014,15,Jits_Phase_8,1,1,48,43,1377537816
9014,15,Jits_Phase_8,2,5,63,98,1377560928
9014,15,Jits_Phase_8,3,5,80,127,1377610980
9014,15,Jits_Phase_8,0,5,80,127,1378280684
9014,15,Jits_Phase_8,1,5,56,103,1378330964
9014,15,Jits_Phase_8,2,1,48,45,1378347412
9014,15,Jits_Phase_8,3,5,63,98,1378350440
9014,15,Jits_Phase_8,0,5,80,127,1379090792
9014,15,Jits_Phase_8,1,1,48,42,1379112792
9014,15,Jits_Phase_8,2,5,63,98,1379151400
9014,15,Jits_Phase_8,3,5,56,103,1379231032
9014,15,Jits_Phase_8,0,5,80,127,1379871156
9014,15,Jits_Phase_8,1,5,56,103,1379911020
9014,15,Jits_Phase_8,2,5,63,98,1379930580
9014,15,Jits_Phase_8,3,1,48,39,1379935348
9014,15,Jits_Phase_8,0,1,48,39,1380657692
9014,15,Jits_Phase_8,1,5,56,103,1380721036
9014,15,Jits_Phase_8,2,5,80,127,1380731380
9014,15,Jits_Phase_8,3,5,63,98,1380771600
9014,15,Jits_Phase_8,0,1,48,36,1381494844
9014,15,Jits_Phase_8,1,5,56,103,1381591800
9014,15,Jits_Phase_8,2,5,63,98,1381631540
9014,15,Jits_Phase_8,3,5,80,127,1381634756
9014,15,Jits_Phase_8,0,5,63,98,1382261372
9014,15,Jits_Phase_8,1,5,80,127,1382301236
9014,15,Jits_Phase_8,2,5,56,103,1382370540
9014,15,Jits_Phase_8,3,1,48,41,1382433092
9014,15,Jits_Phase_8,0,5,63,98,1383031312
9014,15,Jits_Phase_8,1,5,56,103,1383110884
9014,15,Jits_Phase_8,2,1,48,36,1383164296
9014,15,Jits_Phase_8,3,5,80,127,1383170544
9014,15,Jits_Phase_8,0,1,48,38,1383831412
9014,15,Jits_Phase_8,1,5,80,127,1383841472
9014,15,Jits_Phase_8,2,5,63,98,1383891452
9014,15,Jits_Phase_8,3,5,56,103,1383921004
9014,15,Jits_Phase_8,0,5,56,103,1384630600
9014,15,Jits_Phase_8,1,1,48,42,1384650504
9014,15,Jits_Phase_8,2,5,63,98,1384680672
9014,15,Jits_Phase_8,3,5,80,127,1384691240
9014,15,Jits_Phase_8,0,1,48,44,1385416164
9014,15,Jits_Phase_8,1,5,56,103,1385440624
9014,15,Jits_Phase_8,2,5,63,98,1385551368
9014,15,Jits_Phase_8,3,5,80,127,1385570560
9014,15,Jits_Phase_8,0,5,63,98,1386241536
9014,15,Jits_Phase_8,1,1,48,41,1386270508
9014,15,Jits_Phase_8,2,5,80,127,1386290464
9014,15,Jits_Phase_8,3,5,56,103,1386380652
9014,15,Jits_Phase_8,0,5,63,98,1387030880
9014,15,Jits_Phase_8,1,5,80,127,1387060632
9014,15,Jits_Phase_8,2,1,48,38,1387111552
9014,15,Jits_Phase_8,3,5,56,103,1387150604
9014,15,Jits_Phase_8,0,5,63,98,1387830632
9014,15,Jits_Phase_8,1,5,56,103,1387840828
9014,15,Jits_Phase_8,2,1,48,39,1387899244
9014,15,Jits_Phase_8,3,5,80,127,1387941216
9014,15,Jits_Phase_8,0,1,48,37,1388615216
9014,15,Jits_Phase_8,1,5,63,98,1388730612
9014,15,Jits_Phase_8,2,5,80,127,1388760440
9014,15,Jits_Phase_8,3,5,56,103,1388791184
9014,15,Jits_Phase_8,0,1,48,41,1389458972
9014,15,Jits_Phase_8,1,5,80,127,1389551096
9014,15,Jits_Phase_8,2,5,63,98,1389561276
9014,15,Jits_Phase_8,3,5,56,103,1389590876
9014,15,Jits_Phase_8,0,5,80,127,1390251272
9014,15,Jits_Phase_8,1,5,63,98,1390270832
9014,15,Jits_Phase_8,2,5,56,103,1390321204
9014,15,Jits_Phase_8,3,1,48,33,1390326640
9014,15,Jits_Phase_8,0,5,63,98,1391080808
9014,15,Jits_Phase_8,1,1,48,38,1391081924
9014,15,Jits_Phase_8,2,5,80,127,1391141192
9014,15,Jits_Phase_8,3,5,56,103,1391160680
9014,15,Jits_Phase_8,0,5,63,98,1391840756
9014,15,Jits_Phase_8,1,1,48,41,1391890616
9014,15,Jits_Phase_8,2,5,56,103,1391892024
9014,15,Jits_Phase_8,3,5,80,127,1391901324
9014,15,Jits_Phase_8,0,1,48,40,1392661336
9014,15,Jits_Phase_8,1,5,56,103,1392671176
9014,15,Jits_Phase_8,2,5,80,127,1392681296
9014,15,Jits_Phase_8,3,5,63,98,1392780628
9014,15,Jits_Phase_8,0,5,80,127,1393430928
9014,15,Jits_Phase_8,1,5,63,98,1393441272
9014,15,Jits_Phase_8,2,1,48,36,1393497352
9014,15,Jits_Phase_8,3,5,56,103,1393590580
9014,15,Jits_Phase_8,0,5,63,98,1394240736
9014,15,Jits_Phase_8,1,5,80,127,1394280752
9014,15,Jits_Phase_8,2,1,48,37,1394304916
9014,15,Jits_Phase_8,3,5,56,103,1394360908
9014,15,Jits_Phase_8,0,5,56,103,1394990444
9014,15,Jits_Phase_8,1,5,80,127,1395090844
9014,15,Jits_Phase_8,2,1,48,32,1395095008
9014,15,Jits_Phase_8,3,5,63,98,1395111220
9014,15,Jits_Phase_8,0,5,80,127,1395810528
9014,15,Jits_Phase_8,1,5,56,103,1395821096
9014,15,Jits_Phase_8,2,1,48,32,1395850592
9014,15,Jits_Phase_8,3,5,63,98,1395911296
9014,15,Jits_Phase_8,0,5,56,103,1396610380
9014,15,Jits_Phase_8,1,5,63,98,1396630916
9014,15,Jits_Phase_8,2,1,48,33,1396631880
9014,15,Jits_Phase_8,3,5,80,127,1396710872
9014,15,Jits_Phase_8,0,5,63,98,1397361300
9014,15,Jits_Phase_8,1,1,48,37,1397433052
9014,15,Jits_Phase_8,2,5,56,103,1397451056
9014,15,Jits_Phase_8,3,5,80,127,1397454200
9014,15,Jits_Phase_8,0,5,56,103,1398190348
9014,15,Jits_Phase_8,1,1,48,42,1398213392
9014,15,Jits_Phase_8,2,5,80,127,1398250832
9014,15,Jits_Phase_8,3,5,63,98,1398261100
9014,15,Jits_Phase_8,0,1,48,40,1399033788
9014,15,Jits_Phase_8,1,5,80,127,1399041384
9014,15,Jits_Phase_8,2,5,56,103,1399050608
9014,15,Jits_Phase_8,3,5,63,98,1399053600
9014,15,Jits_Phase_8,0,1,48,39,1399792112
9014,15,Jits_Phase_8,1,5,56,103,1399801424
9014,15,Jits_Phase_8,2,5,80,127,1399810428
9014,15,Jits_Phase_8,3,5,63,98,1399831108
9014,15,Jits_Phase_8,0,1,48,35,1400569028
9014,15,Jits_Phase_8,1,5,63,98,1400571140
9014,15,Jits_Phase_8,2,5,80,127,1400630636
9014,15,Jits_Phase_8,3,5,56,103,1400680892
9014,15,Jits_Phase_8,0,1,48,37,1401388484
9014,15,Jits_Phase_8,1,5,63,98,1401450992
9014,15,Jits_Phase_8,2,5,56,103,1401461188
9014,15,Jits_Phase_8,3,5,80,127,1401511224
9014,15,Jits_Phase_8,0,5,63,98,1402151340
9014,15,Jits_Phase_8,1,1,48,35,1402168308
9014,15,Jits_Phase_8,2,5,80,127,1402170668
9014,15,Jits_Phase_8,3,5,56,103,1402181236
9014,15,Jits_Phase_8,0,1,48,42,1402913668
9014,15,Jits_Phase_8,1,5,63,98,1402951156
9014,15,Jits_Phase_8,2,5,80,127,1402954368
9014,15,Jits_Phase_8,3,5,56,103,1402991240
9014,15,Jits_Phase_8,0,1,48,45,1403700220
9014,15,Jits_Phase_8,1,5,63,98,1403821308
9014,15,Jits_Phase_8,2,5,80,127,1403851132
9014,15,Jits_Phase_8,3,5,56,103,1403861328
9014,15,Jits_Phase_8,0,1,48,40,1404556240
9014,15,Jits_Phase_8,1,5,56,103,1404571184
9014,15,Jits_Phase_8,2,5,80,127,1404600560
9014,15,Jits_Phase_8,3,5,63,98,1404631360
9014,15,Jits_Phase_8,0,1,48,35,1405339596
9014,15,Jits_Phase_8,1,5,63,98,1405471048
9014,15,Jits_Phase_8,2,5,56,103,1405511132
9014,15,Jits_Phase_8,3,5,80,127,1405514200
9014,15,Jits_Phase_8,0,5,80,127,1406170628
9014,15,Jits_Phase_8,1,5,56,103,1406251352
9014,15,Jits_Phase_8,2,1,48,36,1406279948
9014,15,Jits_Phase_8,3,5,63,98,1406300424
9014,15,Jits_Phase_8,0,5,80,127,1406950876
9014,15,Jits_Phase_8,1,5,56,103,1406971112
9014,15,Jits_Phase_8,2,5,63,98,1407061316
9014,15,Jits_Phase_8,3,1,48,32,1407110436
9014,15,Jits_Phase_8,0,5,80,127,1407790424
9014,15,Jits_Phase_8,1,1,48,30,1407818628
9014,15,Jits_Phase_8,2,5,63,98,1407831480
9014,15,Jits_Phase_8,3,5,56,103,1407871416
9014,15,Jits_Phase_8,0,5,63,98,1408600464
9014,15,Jits_Phase_8,1,1,48,32,1408624712
9014,15,Jits_Phase_8,2,5,80,127,1408660776
9014,15,Jits_Phase_8,3,5,56,103,1408690672
9014,15,Jits_Phase_8,0,1,48,35,1409412396
9014,15,Jits_Phase_8,1,5,56,103,1409441264
9014,15,Jits_Phase_8,2,5,80,127,1409470864
9014,15,Jits_Phase_8,3,5,63,98,1409561228
9014,15,Jits_Phase_8,0,5,56,103,1410251140
9014,15,Jits_Phase_8,1,1,48,33,1410272768
9014,15,Jits_Phase_8,2,5,80,127,1410360772
9014,15,Jits_Phase_8,3,5,63,98,1410391480
9014,15,Jits_Phase_8,0,5,56,103,1411101068
9014,15,Jits_Phase_8,1,1,48,38,1411116840
9014,15,Jits_Phase_8,2,5,63,98,1411160480
9014,15,Jits_Phase_8,3,5,80,127,1411191272
9014,15,Jits_Phase_8,0,5,56,103,1411871100
9014,15,Jits_Phase_8,1,1,48,33,1411901944
9014,15,Jits_Phase_8,2,5,63,98,1411941072
9014,15,Jits_Phase_8,3,5,80,127,1411961084
9014,15,Jits_Phase_8,0,5,80,127,1412641056
9014,15,Jits_Phase_8,1,1,48,37,1412655780
9014,15,Jits_Phase_8,2,5,63,98,1412660684
9014,15,Jits_Phase_8,3,5,56,103,1412710960
9014,15,Jits_Phase_8,0,1,48,36,1413459456
9014,15,Jits_Phase_8,1,5,63,98,1413461268
9014,15,Jits_Phase_8,2,5,80,127,1413470568
9014,15,Jits_Phase_8,3,5,56,103,1413520692
9014,15,Jits_Phase_8,0,1,48,40,1414250136
9014,15,Jits_Phase_8,1,5,63,98,1414261172
9014,15,Jits_Phase_8,2,1,48,22,1414314396
9014,15,Jits_Phase_8,3,5,80,127,1414330832
9014,15,Jits_Phase_8,4,5,56,103,1414351140
9014,15,Jits_Phase_8,0,5,63,98,1415090560
9014,15,Jits_Phase_8,1,5,80,127,1415093928
9014,15,Jits_Phase_8,2,1,48,35,1415128228
9014,15,Jits_Phase_8,3,5,56,103,1415161232
9014,15,Jits_Phase_8,0,5,80,127,1415841088
9014,15,Jits_Phase_8,1,5,56,103,1415860576
9014,15,Jits_Phase_8,2,5,63,98,1415871068
9014,15,Jits_Phase_8,3,1,48,33,1415952652
9014,15,Jits_Phase_8,0,1,48,34,1416621716
9014,15,Jits_Phase_8,1,5,56,103,1416661448
9014,15,Jits_Phase_8,2,5,63,98,1416750396
9014,15,Jits_Phase_8,3,5,80,127,1416753984
9014,15,Jits_Phase_8,0,5,80,127,1417431316
9014,15,Jits_Phase_8,1,5,56,103,1417440912
9014,15,Jits_Phase_8,2,5,63,98,1417461096
9014,15,Jits_Phase_8,3,1,48,37,1417475304
9014,15,Jits_Phase_8,0,1,48,37,1418215856
9014,15,Jits_Phase_8,1,5,63,98,1418231020
9014,15,Jits_Phase_8,2,5,80,127,1418290736
9014,15,Jits_Phase_8,3,5,56,103,1418300860
9014,15,Jits_Phase_8,0,1,48,39,1419011040
9014,15,Jits_Phase_8,1,5,63,98,1419100676
9014,15,Jits_Phase_8,2,5,80,127,1419131160
9014,15,Jits_Phase_8,3,5,56,103,1419171172
9014,15,Jits_Phase_8,0,1,48,40,1419874708
9014,15,Jits_Phase_8,1,5,56,103,1419891072
9014,15,Jits_Phase_8,2,5,80,127,1419901268
9014,15,Jits_Phase_8,3,1,48,24,1419933816
9014,15,Jits_Phase_8,4,5,63,98,1419941184
9014,15,Jits_Phase_8,0,5,80,127,1420650856
9014,15,Jits_Phase_8,1,1,48,38,1420692936
9014,15,Jits_Phase_8,2,5,56,103,1420730944
9014,15,Jits_Phase_8,3,5,63,98,1420740992
9014,15,Jits_Phase_8,0,5,80,127,1421500904
9014,15,Jits_Phase_8,1,1,48,37,1421501868
9014,15,Jits_Phase_8,2,5,56,103,1421580868
9014,15,Jits_Phase_8,3,5,63,98,1421590988
9014,15,Jits_Phase_8,0,5,80,127,1422340420
9014,15,Jits_Phase_8,1,5,56,103,1422390920
9014,15,Jits_Phase_8,2,1,48,40,1422401308
9014,15,Jits_Phase_8,3,5,63,98,1422440816
9014,15,Jits_Phase_8,0,1,48,41,1423204348
9014,15,Jits_Phase_8,1,5,56,103,1423280504
9014,15,Jits_Phase_8,2,5,63,98,1423283644
9014,15,Jits_Phase_8,3,5,80,127,1423331060
9014,15,Jits_Phase_8,0,1,48,38,1424083352
9014,15,Jits_Phase_8,1,5,56,103,1424101008
9014,15,Jits_Phase_8,2,5,63,98,1424130316
9014,15,Jits_Phase_8,3,5,80,127,1424140584
9014,15,Jits_Phase_8,0,5,63,98,1424811372
9014,15,Jits_Phase_8,1,5,56,103,1424881004
9014,15,Jits_Phase_8,2,5,80,127,1424931132
9014,15,Jits_Phase_8,3,1,48,33,1424937764
9014,15,Jits_Phase_8,0,5,63,98,1425640976
9014,15,Jits_Phase_8,1,5,56,103,1425651020
9014,15,Jits_Phase_8,2,5,80,127,1425654012
9014,15,Jits_Phase_8,3,1,48,37,1425697060
9014,15,Jits_Phase_8,0,5,80,127,1426391320
9014,15,Jits_Phase_8,1,1,48,34,1426448024
9014,15,Jits_Phase_8,2,5,56,103,1426451056
9014,15,Jits_Phase_8,3,5,63,98,1426541392
9014,15,Jits_Phase_8,0,5,80,127,1427191040
9014,15,Jits_Phase_8,1,5,56,103,1427290392
9014,15,Jits_Phase_8,2,1,48,29,1427292328
9014,15,Jits_Phase_8,3,5,63,98,1427330396
9014,15,Jits_Phase_8,0,5,56,103,1428041012
9014,15,Jits_Phase_8,1,5,63,98,1428060500
9014,15,Jits_Phase_8,2,5,80,127,1428100360
9014,15,Jits_Phase_8,3,1,48,32,1428140268
9014,15,Jits_Phase_8,0,5,63,98,1428811112
9014,15,Jits_Phase_8,1,5,56,103,1428830524
9014,15,Jits_Phase_8,2,1,48,34,1428863532
9014,15,Jits_Phase_8,3,5,80,127,1428930836
9014,15,Jits_Phase_8,0,1,48,37,1429594944
9014,15,Jits_Phase_8,1,5,63,98,1429600820
9014,15,Jits_Phase_8,2,5,80,127,1429711168
9014,15,Jits_Phase_8,3,5,56,103,1429740868
9014,15,Jits_Phase_8,0,5,56,103,1430420816
9014,15,Jits_Phase_8,1,5,63,98,1430450420
9014,15,Jits_Phase_8,2,1,48,34,1430479912
9014,15,Jits_Phase_8,3,5,80,127,1430500860
9014,15,Jits_Phase_8,0,5,63,98,1431190840
9014,15,Jits_Phase_8,1,5,56,103,1431220964
9014,15,Jits_Phase_8,2,1,48,31,1431237188
9014,15,Jits_Phase_8,3,5,80,127,1431270956
9014,15,Jits_Phase_8,0,1,48,33,1432007712
9014,15,Jits_Phase_8,1,5,56,103,1432021228
9014,15,Jits_Phase_8,2,5,63,98,1432041040
9014,15,Jits_Phase_8,3,5,80,127,1432120892
9014,15,Jits_Phase_8,0,5,63,98,1432791400
9014,15,Jits_Phase_8,1,1,48,36,1432814024
9014,15,Jits_Phase_8,2,5,56,103,1432850908
9014,15,Jits_Phase_8,3,5,80,127,1432880360
9014,15,Jits_Phase_8,0,1,48,32,1433600812
9014,15,Jits_Phase_8,1,5,56,103,1433630956
9014,15,Jits_Phase_8,2,5,80,127,1433690596
9014,15,Jits_Phase_8,3,5,63,98,1433730372
9014,15,Jits_Phase_8,0,1,48,29,1434411164
9014,15,Jits_Phase_8,1,5,63,98,1434412576
9014,15,Jits_Phase_8,2,5,56,103,1434470872
9014,15,Jits_Phase_8,3,5,80,127,1434541288
9014,15,Jits_Phase_8,0,1,48,30,1435231944
9014,15,Jits_Phase_8,1,5,56,103,1435290936
9014,15,Jits_Phase_8,2,5,63,98,1435301124
9014,15,Jits_Phase_8,3,5,80,127,1435304792
9014,15,Jits_Phase_8,0,5,63,98,1436031284
9014,15,Jits_Phase_8,1,1,48,35,1436071564
9014,15,Jits_Phase_8,2,5,56,103,1436090916
9014,15,Jits_Phase_8,3,5,80,127,1436093984
9014,15,Jits_Phase_8,0,5,63,98,1436810580
9014,15,Jits_Phase_8,1,1,48,35,1436811544
9014,15,Jits_Phase_8,2,5,80,127,1436841296
9014,15,Jits_Phase_8,3,5,56,103,1436861004
9014,15,Jits_Phase_8,0,5,56,103,1437540876
9014,15,Jits_Phase_8,1,1,48,26,1437552916
9014,15,Jits_Phase_8,2,5,63,98,1437590924
9014,15,Jits_Phase_8,3,5,80,127,1437670876
9014,15,Jits_Phase_8,0,5,80,127,1438241092
9014,15,Jits_Phase_8,1,5,63,98,1438280960
9014,15,Jits_Phase_8,2,5,56,103,1438300888
9014,15,Jits_Phase_8,3,1,48,31,1438334424
9014,15,Jits_Phase_8,0,1,48,35,1439002168
9014,15,Jits_Phase_8,1,5,56,103,1439110740
9014,15,Jits_Phase_8,2,5,80,127,1439120788
9014,15,Jits_Phase_8,3,5,63,98,1439141096
9014,15,Jits_Phase_8,0,1,48,28,1439847096
9014,15,Jits_Phase_8,1,5,56,103,1439890736
9014,15,Jits_Phase_8,2,5,63,98,1439941076
9014,15,Jits_Phase_8,3,5,80,127,1439970824
9014,15,Jits_Phase_8,0,5,56,103,1440641724
9014,15,Jits_Phase_8,1,5,63,98,1440650724
9014,15,Jits_Phase_8,2,5,80,127,1440700776
9014,15,Jits_Phase_8,3,1,48,27,1440704944
9014,15,Jits_Phase_8,0,1,48,39,1441373504
9014,15,Jits_Phase_8,1,5,56,103,1441430996
9014,15,Jits_Phase_8,2,5,80,127,1441433988
9014,15,Jits_Phase_8,3,5,63,98,1441590584
9014,15,Jits_Phase_8,0,5,63,98,1442251200
9014,15,Jits_Phase_8,1,1,48,33,1442280196
9014,15,Jits_Phase_8,2,5,56,103,1442320828
9014,15,Jits_Phase_8,3,5,80,127,1442360912
9014,15,Jits_Phase_8,0,1,48,34,1443036828
9014,15,Jits_Phase_8,1,5,63,98,1443090760
9014,15,Jits_Phase_8,2,5,56,103,1443181024
9014,15,Jits_Phase_8,3,5,80,127,1443184092
9014,15,Jits_Phase_8,0,5,56,103,1443871116
9014,15,Jits_Phase_8,1,1,48,32,1443897900
9014,15,Jits_Phase_8,2,5,63,98,1443961392
9014,15,Jits_Phase_8,3,5,80,127,1443970540
9014,15,Jits_Phase_8,0,5,56,103,1444640996
9014,15,Jits_Phase_8,1,5,63,98,1444691200
9014,15,Jits_Phase_8,2,1,48,28,1444704432
9014,15,Jits_Phase_8,3,5,80,127,1444720940
9014,15,Jits_Phase_8,0,1,48,35,1445447764
9014,15,Jits_Phase_8,1,5,63,98,1445520700
9014,15,Jits_Phase_8,2,5,80,127,1445530968
9014,15,Jits_Phase_8,3,5,56,103,1445591568
9014,15,Jits_Phase_8,0,5,63,98,1446240824
9014,15,Jits_Phase_8,1,5,80,127,1446301064
9014,15,Jits_Phase_8,2,1,48,31,1446311980
9014,15,Jits_Phase_8,3,5,56,103,1446340996
9014,15,Jits_Phase_8,0,1,48,33,1447082500
9014,15,Jits_Phase_8,1,5,56,103,1447140692
9014,15,Jits_Phase_8,2,5,80,127,1447161076
9014,15,Jits_Phase_8,3,5,63,98,1447180844
9014,15,Jits_Phase_8,0,5,63,98,1447860792
9014,15,Jits_Phase_8,1,5,56,103,1447880956
9014,15,Jits_Phase_8,2,5,80,127,1447921068
9014,15,Jits_Phase_8,3,1,48,26,1447944932
9014,15,Jits_Phase_8,0,5,63,98,1448670736
9014,15,Jits_Phase_8,1,5,80,127,1448701336
9014,15,Jits_Phase_8,2,1,48,20,1448707596
9014,15,Jits_Phase_8,3,5,56,103,1448720740
9014,15,Jits_Phase_8,0,5,80,127,1449440824
9014,15,Jits_Phase_8,1,1,48,30,1449489768
9014,15,Jits_Phase_8,2,5,56,103,1449491496
9014,15,Jits_Phase_8,3,5,63,98,1449551356
9014,15,Jits_Phase_8,0,5,63,98,1450231028
9014,15,Jits_Phase_8,1,1,48,27,1450252652
9014,15,Jits_Phase_8,2,5,56,103,1450350956
9014,15,Jits_Phase_8,3,5,80,127,1450380780
9014,15,Jits_Phase_8,0,1,48,23,1451048796
9014,15,Jits_Phase_8,1,5,80,127,1451070788
9014,15,Jits_Phase_8,2,5,63,98,1451091544
9014,15,Jits_Phase_8,3,5,56,103,1451160984
9014,15,Jits_Phase_8,0,1,48,29,1451823616
9014,15,Jits_Phase_8,1,5,63,98,1451891000
9014,15,Jits_Phase_8,2,5,56,103,1451901568
9014,15,Jits_Phase_8,3,5,80,127,1451981344
9014,15,Jits_Phase_8,0,1,48,32,1452650952
9014,15,Jits_Phase_8,1,5,56,103,1452751132
9014,15,Jits_Phase_8,2,5,80,127,1452780908
9014,15,Jits_Phase_8,3,5,63,98,1452791104
9014,15,Jits_Phase_8,0,9999,9999,9999,1317908604
9014,15,Jits_Phase_8,1,9999,9999,9999,1318708316
9014,15,Jits_Phase_8,2,9999,9999,9999,1319509080
9014,15,Jits_Phase_8,3,9999,9999,9999,1320308848
9014,15,Jits_Phase_8,4,9999,9999,9999,1321108544
9014,15,Jits_Phase_8,5,9999,9999,9999,1321908304
9014,15,Jits_Phase_8,6,9999,9999,9999,1322709104
9014,15,Jits_Phase_8,7,9999,9999,9999,1323508816
9014,15,Jits_Phase_8,8,9999,9999,9999,1324308576
9014,15,Jits_Phase_8,9,9999,9999,9999,1325108320
9014,15,Jits_Phase_8,10,9999,9999,9999,1325909076
9014,15,Jits_Phase_8,11,9999,9999,9999,1326708836
9014,15,Jits_Phase_8,12,9999,9999,9999,1327508540
9014,15,Jits_Phase_8,13,9999,9999,9999,1328308312
9014,15,Jits_Phase_8,14,9999,9999,9999,1329109104
9014,15,Jits_Phase_8,15,9999,9999,9999,1329908816
9014,15,Jits_Phase_8,16,9999,9999,9999,1330708556
9014,15,Jits_Phase_8,17,9999,9999,9999,1331508336
9014,15,Jits_Phase_8,18,9999,9999,9999,1332309072
9014,15,Jits_Phase_8,19,9999,9999,9999,1333108844
9014,15,Jits_Phase_8,20,9999,9999,9999,1333908576
9014,15,Jits_Phase_8,21,9999,9999,9999,1334708332
9014,15,Jits_Phase_8,22,9999,9999,9999,1335509068
9014,15,Jits_Phase_8,23,9999,9999,9999,1336308788
9014,15,Jits_Phase_8,24,9999,9999,9999,1337108548
9014,15,Jits_Phase_8,25,9999,9999,9999,1337908304
9014,15,Jits_Phase_8,26,9999,9999,9999,1338709112
9014,15,Jits_Phase_8,27,9999,9999,9999,1339508796
9014,15,Jits_Phase_8,28,9999,9999,9999,1340308564
9014,15,Jits_Phase_8,29,9999,9999,9999,1341108344
9014,15,Jits_Phase_8,30,9999,9999,9999,1341888620
9014,15,Jits_Phase_8,31,9999,9999,9999,1342688356
9014,15,Jits_Phase_8,32,9999,9999,9999,1343488100
9014,15,Jits_Phase_8,33,9999,9999,9999,1344288868
9014,15,Jits_Phase_8,34,9999,9999,9999,1345088616
9014,15,Jits_Phase_8,35,9999,9999,9999,1345888356
9014,15,Jits_Phase_8,36,9999,9999,9999,1346688096
9014,15,Jits_Phase_8,37,9999,9999,9999,1347488840
9014,15,Jits_Phase_8,38,9999,9999,9999,1348288604
9014,15,Jits_Phase_8,39,9999,9999,9999,1349088380
9014,15,Jits_Phase_8,40,9999,9999,9999,1349888080
9014,15,Jits_Phase_8,41,9999,9999,9999,1350688824
9014,15,Jits_Phase_8,42,9999,9999,9999,1351488576
9014,15,Jits_Phase_8,43,9999,9999,9999,1352288336
9014,15,Jits_Phase_8,44,9999,9999,9999,1353088080
9014,15,Jits_Phase_8,45,9999,9999,9999,1353888884
9014,15,Jits_Phase_8,46,9999,9999,9999,1354688568
9014,15,Jits_Phase_8,47,9999,9999,9999,1355488336
9014,15,Jits_Phase_8,48,9999,9999,9999,1356308576
9014,15,Jits_Phase_8,49,9999,9999,9999,1357108344
9014,15,Jits_Phase_8,50,9999,9999,9999,1357909076
9014,15,Jits_Phase_8,51,9999,9999,9999,1358708844
9014,15,Jits_Phase_8,52,9999,9999,9999,1359508544
9014,15,Jits_Phase_8,53,9999,9999,9999,1360308308
9014,15,Jits_Phase_8,54,9999,9999,9999,1361109108
9014,15,Jits_Phase_8,55,9999,9999,9999,1361908832
9014,15,Jits_Phase_8,56,9999,9999,9999,1362708584
9014,15,Jits_Phase_8,57,9999,9999,9999,1363508284
9014,15,Jits_Phase_8,58,9999,9999,9999,1364309092
9014,15,Jits_Phase_8,59,9999,9999,9999,1365108860
9014,15,Jits_Phase_8,60,9999,9999,9999,1365908536
9014,15,Jits_Phase_8,61,9999,9999,9999,1366708348
9014,15,Jits_Phase_8,62,9999,9999,9999,1367509076
9014,15,Jits_Phase_8,63,9999,9999,9999,1368308848
9014,15,Jits_Phase_8,64,9999,9999,9999,1369148472
9014,15,Jits_Phase_8,65,9999,9999,9999,1369948232
9014,15,Jits_Phase_8,66,9999,9999,9999,1370749040
9014,15,Jits_Phase_8,67,9999,9999,9999,1371548728
9014,15,Jits_Phase_8,68,9999,9999,9999,1372348472
9014,15,Jits_Phase_8,69,9999,9999,9999,1373148248
9014,15,Jits_Phase_8,70,9999,9999,9999,1373949008
9014,15,Jits_Phase_8,71,9999,9999,9999,1374748776
9014,15,Jits_Phase_8,72,9999,9999,9999,1375548532
9014,15,Jits_Phase_8,73,9999,9999,9999,1376348232
9014,15,Jits_Phase_8,74,9999,9999,9999,1377149048
9014,15,Jits_Phase_8,75,9999,9999,9999,1377948732
9014,15,Jits_Phase_8,76,9999,9999,9999,1378748500
9014,15,Jits_Phase_8,77,9999,9999,9999,1379548276
9014,15,Jits_Phase_8,78,9999,9999,9999,1380349032
9014,15,Jits_Phase_8,79,9999,9999,9999,1381148728
9014,15,Jits_Phase_8,80,9999,9999,9999,1381948488
9014,15,Jits_Phase_8,81,9999,9999,9999,1382708312
9014,15,Jits_Phase_8,82,9999,9999,9999,1383509120
9014,15,Jits_Phase_8,83,9999,9999,9999,1384308796
9014,15,Jits_Phase_8,84,9999,9999,9999,1385108552
9014,15,Jits_Phase_8,85,9999,9999,9999,1385908328
9014,15,Jits_Phase_8,86,9999,9999,9999,1386709056
9014,15,Jits_Phase_8,87,9999,9999,9999,1387508832
9014,15,Jits_Phase_8,88,9999,9999,9999,1388308584
9014,15,Jits_Phase_8,89,9999,9999,9999,1389108280
9014,15,Jits_Phase_8,90,9999,9999,9999,1389909092
9014,15,Jits_Phase_8,91,9999,9999,9999,1390708844
9014,15,Jits_Phase_8,92,9999,9999,9999,1391508544
9014,15,Jits_Phase_8,93,9999,9999,9999,1392308300
9014,15,Jits_Phase_8,94,9999,9999,9999,1393109104
9014,15,Jits_Phase_8,95,9999,9999,9999,1393908808
9014,15,Jits_Phase_8,96,9999,9999,9999,1394708576
9014,15,Jits_Phase_8,97,9999,9999,9999,1395428448
9014,15,Jits_Phase_8,98,9999,9999,9999,1396228176
9014,15,Jits_Phase_8,99,9999,9999,9999,1397028924
9014,15,Jits_Phase_8,100,9999,9999,9999,1397828688
9014,15,Jits_Phase_8,101,9999,9999,9999,1398628448
9014,15,Jits_Phase_8,102,9999,9999,9999,1399428212
9014,15,Jits_Phase_8,103,9999,9999,9999,1400228940
9014,15,Jits_Phase_8,104,9999,9999,9999,1401028700
9014,15,Jits_Phase_8,105,9999,9999,9999,1401828464
9014,15,Jits_Phase_8,106,9999,9999,9999,1402628164
9014,15,Jits_Phase_8,107,9999,9999,9999,1403428952
9014,15,Jits_Phase_8,108,9999,9999,9999,1404228712
9014,15,Jits_Phase_8,109,9999,9999,9999,1405028468
9014,15,Jits_Phase_8,110,9999,9999,9999,1405828152
9014,15,Jits_Phase_8,111,9999,9999,9999,1406628960
9014,15,Jits_Phase_8,112,9999,9999,9999,1407428724
9014,15,Jits_Phase_8,113,9999,9999,9999,1408228424
9014,15,Jits_Phase_8,114,9999,9999,9999,1409109056
9014,15,Jits_Phase_8,115,9999,9999,9999,1409908812
9014,15,Jits_Phase_8,116,9999,9999,9999,1410708572
9014,15,Jits_Phase_8,117,9999,9999,9999,1411508280
9014,15,Jits_Phase_8,118,9999,9999,9999,1412309100
9014,15,Jits_Phase_8,119,9999,9999,9999,1413108816
9014,15,Jits_Phase_8,120,9999,9999,9999,1413908588
9014,15,Jits_Phase_8,121,9999,9999,9999,1414708324
9014,15,Jits_Phase_8,122,9999,9999,9999,1415509100
9014,15,Jits_Phase_8,123,9999,9999,9999,1416308848
9014,15,Jits_Phase_8,124,9999,9999,9999,1417108540
9014,15,Jits_Phase_8,125,9999,9999,9999,1417908292
9014,15,Jits_Phase_8,126,9999,9999,9999,1418709104
9014,15,Jits_Phase_8,127,9999,9999,9999,1419508816
9014,15,Jits_Phase_8,128,9999,9999,9999,1420308552
9014,15,Jits_Phase_8,129,9999,9999,9999,1421108288
9014,15,Jits_Phase_8,130,9999,9999,9999,1421909116
9014,15,Jits_Phase_8,131,9999,9999,9999,1422868564
9014,15,Jits_Phase_8,132,9999,9999,9999,1423668304
9014,15,Jits_Phase_8,133,9999,9999,9999,1424469044
9014,15,Jits_Phase_8,134,9999,9999,9999,1425268800
9014,15,Jits_Phase_8,135,9999,9999,9999,1426068548
9014,15,Jits_Phase_8,136,9999,9999,9999,1426868300
9014,15,Jits_Phase_8,137,9999,9999,9999,1427669044
9014,15,Jits_Phase_8,138,9999,9999,9999,1428468844
9014,15,Jits_Phase_8,139,9999,9999,9999,1429268536
9014,15,Jits_Phase_8,140,9999,9999,9999,1430068296
9014,15,Jits_Phase_8,141,9999,9999,9999,1430869100
9014,15,Jits_Phase_8,142,9999,9999,9999,1431668792
9014,15,Jits_Phase_8,143,9999,9999,9999,1432468552
9014,15,Jits_Phase_8,144,9999,9999,9999,1433268304
9014,15,Jits_Phase_8,145,9999,9999,9999,1434069112
9014,15,Jits_Phase_8,146,9999,9999,9999,1434868820
9014,15,Jits_Phase_8,147,9999,9999,9999,1435668572
9014,15,Jits_Phase_8,148,9999,9999,9999,1436468324
9014,15,Jits_Phase_8,149,9999,9999,9999,1437269048
9014,15,Jits_Phase_8,150,9999,9999,9999,1437909064
9014,15,Jits_Phase_8,151,9999,9999,9999,1438708856
9014,15,Jits_Phase_8,152,9999,9999,9999,1439508556
9014,15,Jits_Phase_8,153,9999,9999,9999,1440308316
9014,15,Jits_Phase_8,154,9999,9999,9999,1441109112
9014,15,Jits_Phase_8,155,9999,9999,9999,1441908796
9014,15,Jits_Phase_8,156,9999,9999,9999,1442708556
9014,15,Jits_Phase_8,157,9999,9999,9999,1443508308
9014,15,Jits_Phase_8,158,9999,9999,9999,1444309116
9014,15,Jits_Phase_8,159,9999,9999,9999,1445108832
9014,15,Jits_Phase_8,160,9999,9999,9999,1445908536
9014,15,Jits_Phase_8,161,9999,9999,9999,1446708292
9014,15,Jits_Phase_8,162,9999,9999,9999,1447509100
9014,15,Jits_Phase_8,163,9999,9999,9999,1448308852
9014,15,Jits_Phase_8,164,9999,9999,9999,1449108536
9014,15,Jits_Phase_8,165,9999,9999,9999,1449908292
9014,15,Jits_Phase_8,166,9999,9999,9999,1450709108
9014,15,Jits_Phase_8,167,9999,9999,9999,1451508816
9014,15,Jits_Phase_8,168,9999,9999,9999,1452308576
9014,15,Jits_Phase_8,169,9999,9999,9999,1453108348
9015,17,Jits_Phase_5,0,5,56,103,1461865932
9015,17,Jits_Phase_5,1,5,63,98,1461869032
9015,17,Jits_Phase_5,2,5,80,127,1461872004
9015,17,Jits_Phase_5,0,5,56,103,1462365492
9015,17,Jits_Phase_5,1,5,63,98,1462368588
9015,17,Jits_Phase_5,2,5,80,127,1462371636
9015,17,Jits_Phase_5,0,1,48,22,1462822468
9015,17,Jits_Phase_5,1,5,56,103,1462875548
9015,17,Jits_Phase_5,2,5,80,127,1462885816
9015,17,Jits_Phase_5,3,5,63,98,1462906424
9015,17,Jits_Phase_5,0,5,63,98,1463326004
9015,17,Jits_Phase_5,1,5,80,127,1463355756
9015,17,Jits_Phase_5,2,1,48,30,1463358500
9015,17,Jits_Phase_5,3,5,56,103,1463365868
9015,17,Jits_Phase_5,0,1,48,38,1463805344
9015,17,Jits_Phase_5,1,5,80,127,1463886128
9015,17,Jits_Phase_5,2,5,56,103,1463896324
9015,17,Jits_Phase_5,3,5,63,98,1463926060
9015,17,Jits_Phase_5,0,5,63,98,1464375552
9015,17,Jits_Phase_5,1,5,56,103,1464406500
9015,17,Jits_Phase_5,2,1,48,36,1464407464
9015,17,Jits_Phase_5,3,5,80,127,1464415492
9015,17,Jits_Phase_5,0,5,56,103,1464826304
9015,17,Jits_Phase_5,1,5,63,98,1464876508
9015,17,Jits_Phase_5,2,5,80,127,1464895844
9015,17,Jits_Phase_5,3,1,48,35,1464946760
9015,17,Jits_Phase_5,0,5,80,127,1465325920
9015,17,Jits_Phase_5,1,5,63,98,1465376044
9015,17,Jits_Phase_5,2,5,56,103,1465415908
9015,17,Jits_Phase_5,3,1,48,33,1465426520
9015,17,Jits_Phase_5,0,5,56,103,1465825736
9015,17,Jits_Phase_5,1,5,63,98,1465856556
9015,17,Jits_Phase_5,2,1,48,38,1465906724
9015,17,Jits_Phase_5,3,5,80,127,1465926004
9015,17,Jits_Phase_5,0,5,56,103,1466326468
9015,17,Jits_Phase_5,1,1,48,36,1466367820
9015,17,Jits_Phase_5,2,5,80,127,1466385756
9015,17,Jits_Phase_5,3,5,63,98,1466415356
9015,17,Jits_Phase_5,0,5,56,103,1466845492
9015,17,Jits_Phase_5,1,5,63,98,1466855788
9015,17,Jits_Phase_5,2,1,48,41,1466874196
9015,17,Jits_Phase_5,3,5,80,127,1466895792
9015,17,Jits_Phase_5,0,5,63,98,1467336040
9015,17,Jits_Phase_5,1,1,48,37,1467365860
9015,17,Jits_Phase_5,2,5,80,127,1467415928
9015,17,Jits_Phase_5,3,5,56,103,1467426644
9015,17,Jits_Phase_5,0,5,63,98,1467885864
9015,17,Jits_Phase_5,1,1,48,37,1467908984
9015,17,Jits_Phase_5,2,5,56,103,1467925788
9015,17,Jits_Phase_5,3,5,80,127,1467928936
9015,17,Jits_Phase_5,0,5,56,103,1468345580
9015,17,Jits_Phase_5,1,5,63,98,1468355924
9015,17,Jits_Phase_5,2,5,80,127,1468395884
9015,17,Jits_Phase_5,3,1,48,40,1468407768
9015,17,Jits_Phase_5,0,5,56,103,1468836188
9015,17,Jits_Phase_5,1,5,63,98,1468839328
9015,17,Jits_Phase_5,2,5,80,127,1468855524
9015,17,Jits_Phase_5,3,1,48,34,1468865388
9015,17,Jits_Phase_5,0,5,80,127,1469346124
9015,17,Jits_Phase_5,1,5,56,103,1469356620
9015,17,Jits_Phase_5,2,1,48,31,1469364168
9015,17,Jits_Phase_5,3,5,63,98,1469426316
9015,17,Jits_Phase_5,0,5,63,98,1469835776
9015,17,Jits_Phase_5,1,5,56,103,1469856384
9015,17,Jits_Phase_5,2,1,48,30,1469905732
9015,17,Jits_Phase_5,3,5,80,127,1469936044
9015,17,Jits_Phase_5,0,5,56,103,1470345564
9015,17,Jits_Phase_5,1,5,80,127,1470385500
9015,17,Jits_Phase_5,2,1,48,33,1470395016
9015,17,Jits_Phase_5,3,5,63,98,1470396664
9015,17,Jits_Phase_5,0,5,80,127,1470836188
9015,17,Jits_Phase_5,1,5,63,98,1470865788
9015,17,Jits_Phase_5,2,1,48,27,1470892500
9015,17,Jits_Phase_5,3,5,56,103,1470905572
9015,17,Jits_Phase_5,0,5,56,103,1471356548
9015,17,Jits_Phase_5,1,5,63,98,1471385928
9015,17,Jits_Phase_5,2,1,48,28,1471420956
9015,17,Jits_Phase_5,3,5,80,127,1471436492
9015,17,Jits_Phase_5,0,5,80,127,1471856092
9015,17,Jits_Phase_5,1,5,56,103,1471895808
9015,17,Jits_Phase_5,2,1,48,32,1471900420
9015,17,Jits_Phase_5,3,5,63,98,1471906372
9015,17,Jits_Phase_5,0,5,80,127,1472336380
9015,17,Jits_Phase_5,1,5,63,98,1472376392
9015,17,Jits_Phase_5,2,1,48,29,1472417496
9015,17,Jits_Phase_5,3,5,56,103,1472435504
9015,17,Jits_Phase_5,0,5,56,103,1472835920
9015,17,Jits_Phase_5,1,5,80,127,1472846412
9015,17,Jits_Phase_5,2,1,48,32,1472902344
9015,17,Jits_Phase_5,3,5,63,98,1472926048
9015,17,Jits_Phase_5,0,5,80,127,1473335604
9015,17,Jits_Phase_5,1,5,63,98,1473396220
9015,17,Jits_Phase_5,2,1,48,31,1473403156
9015,17,Jits_Phase_5,3,5,56,103,1473425736
9015,17,Jits_Phase_5,0,5,56,103,1473836492
9015,17,Jits_Phase_5,1,5,80,127,1473895832
9015,17,Jits_Phase_5,2,1,48,29,1473929740
9015,17,Jits_Phase_5,3,5,63,98,1473935688
9015,17,Jits_Phase_5,0,5,56,103,1474395520
9015,17,Jits_Phase_5,1,5,63,98,1474405716
9015,17,Jits_Phase_5,2,5,80,127,1474409004
9015,17,Jits_Phase_5,3,1,48,27,1474427856
9015,17,Jits_Phase_5,0,5,80,127,1474846200
9015,17,Jits_Phase_5,1,1,48,32,1474913908
9015,17,Jits_Phase_5,2,5,63,98,1474936400
9015,17,Jits_Phase_5,3,5,56,103,1474946300
9015,17,Jits_Phase_5,0,5,56,103,1475345804
9015,17,Jits_Phase_5,1,5,63,98,1475349128
9015,17,Jits_Phase_5,2,5,80,127,1475352172
9015,17,Jits_Phase_5,3,1,48,35,1475422864
9015,17,Jits_Phase_5,0,5,80,127,1475866084
9015,17,Jits_Phase_5,1,1,48,30,1475900440
9015,17,Jits_Phase_5,2,5,63,98,1475916204
9015,17,Jits_Phase_5,3,5,56,103,1475945804
9015,17,Jits_Phase_5,0,5,56,103,1476346368
9015,17,Jits_Phase_5,1,5,80,127,1476355440
9015,17,Jits_Phase_5,2,1,48,30,1476416996
9015,17,Jits_Phase_5,3,5,63,98,1476426380
9015,17,Jits_Phase_5,0,5,56,103,1476856320
9015,17,Jits_Phase_5,1,5,63,98,1476875584
9015,17,Jits_Phase_5,2,1,48,31,1476903712
9015,17,Jits_Phase_5,3,5,80,127,1476936260
9015,17,Jits_Phase_5,0,5,80,127,1477336428
9015,17,Jits_Phase_5,1,1,48,33,1477389088
9015,17,Jits_Phase_5,2,5,63,98,1477406128
9015,17,Jits_Phase_5,3,5,56,103,1477425464
9015,17,Jits_Phase_5,0,5,80,127,1477855672
9015,17,Jits_Phase_5,1,5,56,103,1477865816
9015,17,Jits_Phase_5,2,5,63,98,1477876312
9015,17,Jits_Phase_5,3,1,48,22,1477992988
9015,17,Jits_Phase_5,0,5,80,127,1478346064
9015,17,Jits_Phase_5,1,5,56,103,1478365404
9015,17,Jits_Phase_5,2,1,48,25,1478393936
9015,17,Jits_Phase_5,3,5,63,98,1478436368
9015,17,Jits_Phase_5,0,1,48,32,1478851408
9015,17,Jits_Phase_5,1,5,56,103,1478856236
9015,17,Jits_Phase_5,2,5,80,127,1478885640
9015,17,Jits_Phase_5,3,5,63,98,1478906396
9015,17,Jits_Phase_5,0,1,48,33,1479335800
9015,17,Jits_Phase_5,1,5,63,98,1479345420
9015,17,Jits_Phase_5,2,5,56,103,1479406056
9015,17,Jits_Phase_5,3,5,80,127,1479435492
9015,17,Jits_Phase_5,0,5,63,98,1479836104
9015,17,Jits_Phase_5,1,5,80,127,1479839616
9015,17,Jits_Phase_5,2,1,48,33,1479882220
9015,17,Jits_Phase_5,3,5,56,103,1479926252
9015,17,Jits_Phase_5,0,5,56,103,1480356300
9015,17,Jits_Phase_5,1,1,48,24,1480379792
9015,17,Jits_Phase_5,2,5,63,98,1480385820
9015,17,Jits_Phase_5,3,5,80,127,1480425780
9015,17,Jits_Phase_5,0,5,63,98,1480856136
9015,17,Jits_Phase_5,1,1,48,27,1480864956
9015,17,Jits_Phase_5,2,5,56,103,1480895992
9015,17,Jits_Phase_5,3,5,80,127,1480916304
9015,17,Jits_Phase_5,0,1,48,31,1481349556
9015,17,Jits_Phase_5,1,5,63,98,1481365772
9015,17,Jits_Phase_5,2,5,56,103,1481405712
9015,17,Jits_Phase_5,3,5,80,127,1481416056
9015,17,Jits_Phase_5,0,5,80,127,1481846196
9015,17,Jits_Phase_5,1,1,48,34,1481877788
9015,17,Jits_Phase_5,2,5,63,98,1481915796
9015,17,Jits_Phase_5,3,5,56,103,1481936404
9015,17,Jits_Phase_5,0,5,56,103,1482335548
9015,17,Jits_Phase_5,1,5,80,127,1482356156
9015,17,Jits_Phase_5,2,5,63,98,1482395944
9015,17,Jits_Phase_5,3,1,48,33,1482396836
9015,17,Jits_Phase_5,0,5,63,98,1482845500
9015,17,Jits_Phase_5,1,1,48,31,1482853872
9015,17,Jits_Phase_5,2,5,80,127,1482866176
9015,17,Jits_Phase_5,3,5,56,103,1482906112
9015,17,Jits_Phase_5,0,5,63,98,1483346292
9015,17,Jits_Phase_5,1,1,48,35,1483353616
9015,17,Jits_Phase_5,2,5,56,103,1483365624
9015,17,Jits_Phase_5,3,5,80,127,1483376412
9015,17,Jits_Phase_5,0,5,80,127,1483845964
9015,17,Jits_Phase_5,1,1,48,36,1483850952
9015,17,Jits_Phase_5,2,5,56,103,1483865444
9015,17,Jits_Phase_5,3,5,63,98,1483896388
9015,17,Jits_Phase_5,0,1,48,34,1484347564
9015,17,Jits_Phase_5,1,5,56,103,1484416292
9015,17,Jits_Phase_5,2,5,80,127,1484419356
9015,17,Jits_Phase_5,3,5,63,98,1484435924
9015,17,Jits_Phase_5,0,5,63,98,1484836400
9015,17,Jits_Phase_5,1,5,56,103,1484865928
9015,17,Jits_Phase_5,2,1,48,39,1484869048
9015,17,Jits_Phase_5,3,5,80,127,1484926308
9015,17,Jits_Phase_5,0,1,48,35,1485334396
9015,17,Jits_Phase_5,1,5,63,98,1485415784
9015,17,Jits_Phase_5,2,5,56,103,1485426128
9015,17,Jits_Phase_5,3,5,80,127,1485436308
9015,17,Jits_Phase_5,0,5,56,103,1485875540
9015,17,Jits_Phase_5,1,1,48,35,1485883292
9015,17,Jits_Phase_5,2,5,80,127,1485906252
9015,17,Jits_Phase_5,3,5,63,98,1485915476
9015,17,Jits_Phase_5,0,1,48,38,1486400808
9015,17,Jits_Phase_5,1,5,63,98,1486416124
9015,17,Jits_Phase_5,2,5,56,103,1486425348
9015,17,Jits_Phase_5,3,5,80,127,1486446180
9015,17,Jits_Phase_5,0,5,56,103,1486846208
9015,17,Jits_Phase_5,1,1,48,36,1486894508
9015,17,Jits_Phase_5,2,5,63,98,1486905764
9015,17,Jits_Phase_5,3,5,80,127,1486909204
9015,17,Jits_Phase_5,0,5,80,127,1487365444
9015,17,Jits_Phase_5,1,1,48,36,1487368340
9015,17,Jits_Phase_5,2,5,56,103,1487375708
9015,17,Jits_Phase_5,3,5,63,98,1487446356
9015,17,Jits_Phase_5,0,5,80,127,1487856136
9015,17,Jits_Phase_5,1,1,48,36,1487903376
9015,17,Jits_Phase_5,2,5,56,103,1487925664
9015,17,Jits_Phase_5,3,5,63,98,1487936008
9015,17,Jits_Phase_5,0,5,63,98,1488395688
9015,17,Jits_Phase_5,1,5,56,103,1488405960
9015,17,Jits_Phase_5,2,5,80,127,1488426268
9015,17,Jits_Phase_5,3,1,48,33,1488444300
9015,17,Jits_Phase_5,0,5,80,127,1488846192
9015,17,Jits_Phase_5,1,5,63,98,1488905484
9015,17,Jits_Phase_5,2,1,48,32,1488914756
9015,17,Jits_Phase_5,3,5,56,103,1488945416
9015,17,Jits_Phase_5,0,5,56,103,1489385836
9015,17,Jits_Phase_5,1,5,63,98,1489396256
9015,17,Jits_Phase_5,2,1,48,35,1489426424
9015,17,Jits_Phase_5,3,5,80,127,1489436112
9015,17,Jits_Phase_5,0,5,56,103,1489845496
9015,17,Jits_Phase_5,1,5,80,127,1489876220
9015,17,Jits_Phase_5,2,1,48,28,1489882552
9015,17,Jits_Phase_5,3,5,63,98,1489925464
9015,17,Jits_Phase_5,0,1,48,31,1490351800
9015,17,Jits_Phase_5,1,5,56,103,1490386224
9015,17,Jits_Phase_5,2,5,63,98,1490426184
9015,17,Jits_Phase_5,3,5,80,127,1490429400
9015,17,Jits_Phase_5,0,1,48,25,1490837392
9015,17,Jits_Phase_5,1,5,56,103,1490886188
9015,17,Jits_Phase_5,2,5,63,98,1490896312
9015,17,Jits_Phase_5,3,5,80,127,1490915676
9015,17,Jits_Phase_5,0,5,56,103,1491345792
9015,17,Jits_Phase_5,1,5,80,127,1491348708
9015,17,Jits_Phase_5,2,1,48,32,1491358496
9015,17,Jits_Phase_5,3,5,63,98,1491385648
9015,17,Jits_Phase_5,0,1,48,28,1491849924
9015,17,Jits_Phase_5,1,5,63,98,1491885320
9015,17,Jits_Phase_5,2,5,56,103,1491916264
9015,17,Jits_Phase_5,3,5,80,127,1491935452
9015,17,Jits_Phase_5,0,1,48,34,1492352716
9015,17,Jits_Phase_5,1,5,80,127,1492355376
9015,17,Jits_Phase_5,2,5,56,103,1492365648
9015,17,Jits_Phase_5,3,5,63,98,1492376216
9015,17,Jits_Phase_5,0,5,56,103,1492856248
9015,17,Jits_Phase_5,1,1,48,36,1492863112
9015,17,Jits_Phase_5,2,5,80,127,1492896328
9015,17,Jits_Phase_5,3,5,63,98,1492925708
9015,17,Jits_Phase_5,0,1,48,32,1493359348
9015,17,Jits_Phase_5,1,5,63,98,1493366196
9015,17,Jits_Phase_5,2,5,80,127,1493376320
9015,17,Jits_Phase_5,3,5,56,103,1493385540
9015,17,Jits_Phase_5,0,1,48,33,1493825844
9015,17,Jits_Phase_5,1,5,56,103,1493855536
9015,17,Jits_Phase_5,2,5,63,98,1493926400
9015,17,Jits_Phase_5,3,5,80,127,1493935472
9015,17,Jits_Phase_5,0,1,48,35,1494363360
9015,17,Jits_Phase_5,1,5,80,127,1494365472
9015,17,Jits_Phase_5,2,5,56,103,1494375892
9015,17,Jits_Phase_5,3,5,63,98,1494426016
9015,17,Jits_Phase_5,0,5,80,127,1494875488
9015,17,Jits_Phase_5,1,1,48,36,1494882196
9015,17,Jits_Phase_5,2,5,56,103,1494936096
9015,17,Jits_Phase_5,3,5,63,98,1494965472
9015,17,Jits_Phase_5,0,5,56,103,1495376376
9015,17,Jits_Phase_5,1,5,80,127,1495379292
9015,17,Jits_Phase_5,2,1,48,27,1495411404
9015,17,Jits_Phase_5,3,5,63,98,1495416232
9015,17,Jits_Phase_5,0,5,56,103,1495905576
9015,17,Jits_Phase_5,1,1,48,28,1495906764
9015,17,Jits_Phase_5,2,5,63,98,1495936292
9015,17,Jits_Phase_5,3,5,80,127,1495945512
9015,17,Jits_Phase_5,0,1,48,27,1496408976
9015,17,Jits_Phase_5,1,5,63,98,1496415528
9015,17,Jits_Phase_5,2,5,80,127,1496425796
9015,17,Jits_Phase_5,3,5,56,103,1496436216
9015,17,Jits_Phase_5,0,5,80,127,1496866356
9015,17,Jits_Phase_5,1,1,48,29,1496906116
9015,17,Jits_Phase_5,2,5,56,103,1496916328
9015,17,Jits_Phase_5,3,5,63,98,1496919468
9015,17,Jits_Phase_5,0,5,56,103,1497395628
9015,17,Jits_Phase_5,1,1,48,27,1497412524
9015,17,Jits_Phase_5,2,5,80,127,1497416232
9015,17,Jits_Phase_5,3,5,63,98,1497426204
9015,17,Jits_Phase_5,0,5,63,98,1497875764
9015,17,Jits_Phase_5,1,1,48,28,1497897316
9015,17,Jits_Phase_5,2,5,56,103,1497905432
9015,17,Jits_Phase_5,3,5,80,127,1497925964
9015,17,Jits_Phase_5,0,1,48,32,1498384568
9015,17,Jits_Phase_5,1,5,56,103,1498386064
9015,17,Jits_Phase_5,2,5,80,127,1498396260
9015,17,Jits_Phase_5,3,5,63,98,1498465788
9015,17,Jits_Phase_5,0,5,63,98,1498876232
9015,17,Jits_Phase_5,1,1,48,29,1498884456
9015,17,Jits_Phase_5,2,5,80,127,1498916164
9015,17,Jits_Phase_5,3,5,56,103,1498956028
9015,17,Jits_Phase_5,0,5,56,103,1499386176
9015,17,Jits_Phase_5,1,5,63,98,1499395324
9015,17,Jits_Phase_5,2,1,48,34,1499414652
9015,17,Jits_Phase_5,3,5,80,127,1499416296
9015,17,Jits_Phase_5,0,1,48,34,1499879980
9015,17,Jits_Phase_5,1,5,63,98,1499926012
9015,17,Jits_Phase_5,2,5,80,127,1499946396
9015,17,Jits_Phase_5,3,5,56,103,1499965736
9015,17,Jits_Phase_5,0,5,56,103,1500366116
9015,17,Jits_Phase_5,1,1,48,30,1500410756
9015,17,Jits_Phase_5,2,5,80,127,1500446004
9015,17,Jits_Phase_5,3,5,63,98,1500456272
9015,17,Jits_Phase_5,0,1,48,35,1500894096
9015,17,Jits_Phase_5,1,5,80,127,1500906052
9015,17,Jits_Phase_5,2,5,63,98,1500916176
9015,17,Jits_Phase_5,3,5,56,103,1500945700
9015,17,Jits_Phase_5,0,1,48,32,1501364500
9015,17,Jits_Phase_5,1,5,63,98,1501366144
9015,17,Jits_Phase_5,2,5,80,127,1501405560
9015,17,Jits_Phase_5,3,5,56,103,1501466328
9015,17,Jits_Phase_5,0,5,63,98,1501875568
9015,17,Jits_Phase_5,1,1,48,35,1501891044
9015,17,Jits_Phase_5,2,5,56,103,1501925864
9015,17,Jits_Phase_5,3,5,80,127,1501955460
9015,17,Jits_Phase_5,0,5,80,127,1502376292
9015,17,Jits_Phase_5,1,5,63,98,1502385440
9015,17,Jits_Phase_5,2,1,48,24,1502419572
9015,17,Jits_Phase_5,3,5,56,103,1502456036
9015,17,Jits_Phase_5,0,1,48,35,1502918732
9015,17,Jits_Phase_5,1,5,80,127,1502936512
9015,17,Jits_Phase_5,2,5,56,103,1502945688
9015,17,Jits_Phase_5,3,5,63,98,1502948680
9015,17,Jits_Phase_5,0,1,48,34,1503347980
9015,17,Jits_Phase_5,1,5,56,103,1503375804
9015,17,Jits_Phase_5,2,5,80,127,1503396188
9015,17,Jits_Phase_5,3,5,63,98,1503405412
9015,17,Jits_Phase_5,0,1,48,29,1503881512
9015,17,Jits_Phase_5,1,5,63,98,1503885740
9015,17,Jits_Phase_5,2,5,56,103,1503925604
9015,17,Jits_Phase_5,3,5,80,127,1503946064
9015,17,Jits_Phase_5,0,1,48,36,1504381344
9015,17,Jits_Phase_5,1,5,63,98,1504386396
9015,17,Jits_Phase_5,2,5,56,103,1504445884
9015,17,Jits_Phase_5,3,5,80,127,1504448876
9015,17,Jits_Phase_5,0,5,56,103,1504846288
9015,17,Jits_Phase_5,1,5,80,127,1504865624
9015,17,Jits_Phase_5,2,1,48,34,1504895564
9015,17,Jits_Phase_5,3,5,63,98,1504905632
9015,17,Jits_Phase_5,0,1,48,31,1505342864
9015,17,Jits_Phase_5,1,5,56,103,1505375640
9015,17,Jits_Phase_5,2,5,63,98,1505396024
9015,17,Jits_Phase_5,3,5,80,127,1505406296
9015,17,Jits_Phase_5,0,1,48,35,1505829284
9015,17,Jits_Phase_5,1,5,80,127,1505845496
9015,17,Jits_Phase_5,2,5,56,103,1505876292
9015,17,Jits_Phase_5,3,5,63,98,1505916304
9015,17,Jits_Phase_5,0,1,48,35,1506347688
9015,17,Jits_Phase_5,1,5,80,127,1506355508
9015,17,Jits_Phase_5,2,5,56,103,1506376040
9015,17,Jits_Phase_5,3,5,63,98,1506435456
9015,17,Jits_Phase_5,0,5,56,103,1506865528
9015,17,Jits_Phase_5,1,1,48,28,1506869240
9015,17,Jits_Phase_5,2,5,80,127,1506885904
9015,17,Jits_Phase_5,3,5,63,98,1506946364
9015,17,Jits_Phase_5,0,5,80,127,1507345812
9015,17,Jits_Phase_5,1,5,56,103,1507356156
9015,17,Jits_Phase_5,2,1,48,39,1507357796
9015,17,Jits_Phase_5,3,5,63,98,1507395936
9015,17,Jits_Phase_5,0,5,63,98,1507845424
9015,17,Jits_Phase_5,1,1,48,41,1507858656
9015,17,Jits_Phase_5,2,5,56,103,1507885500
9015,17,Jits_Phase_5,3,5,80,127,1507888416
9015,17,Jits_Phase_5,0,5,63,98,1508365612
9015,17,Jits_Phase_5,1,1,48,38,1508375328
9015,17,Jits_Phase_5,2,5,80,127,1508405692
9015,17,Jits_Phase_5,3,5,56,103,1508436188
9015,17,Jits_Phase_5,0,5,56,103,1508856144
9015,17,Jits_Phase_5,1,1,48,36,1508862328
9015,17,Jits_Phase_5,2,5,63,98,1508866556
9015,17,Jits_Phase_5,3,5,80,127,1508896008
9015,17,Jits_Phase_5,0,5,80,127,1509345792
9015,17,Jits_Phase_5,1,1,48,39,1509348308
9015,17,Jits_Phase_5,2,5,63,98,1509416216
9015,17,Jits_Phase_5,3,5,56,103,1509425440
9015,17,Jits_Phase_5,0,5,63,98,1509846356
9015,17,Jits_Phase_5,1,1,48,37,1509849996
9015,17,Jits_Phase_5,2,5,56,103,1509915980
9015,17,Jits_Phase_5,3,5,80,127,1509926252
9015,17,Jits_Phase_5,0,5,63,98,1510325656
9015,17,Jits_Phase_5,1,5,56,103,1510346040
9015,17,Jits_Phase_5,2,1,48,39,1510384796
9015,17,Jits_Phase_5,3,5,80,127,1510386216
9015,17,Jits_Phase_5,4,1,48,23,1510441380
9015,17,Jits_Phase_5,0,5,56,103,1510816072
9015,17,Jits_Phase_5,1,5,63,98,1510826268
9015,17,Jits_Phase_5,2,1,48,36,1510831332
9015,17,Jits_Phase_5,3,5,80,127,1510906228
9015,17,Jits_Phase_5,0,1,48,37,1511302828
9015,17,Jits_Phase_5,1,5,63,98,1511305488
9015,17,Jits_Phase_5,2,5,56,103,1511336284
9015,17,Jits_Phase_5,3,5,80,127,1511376296
9015,17,Jits_Phase_5,0,1,48,39,1511786252
9015,17,Jits_Phase_5,1,5,56,103,1511806208
9015,17,Jits_Phase_5,2,5,63,98,1511846144
9015,17,Jits_Phase_5,3,5,80,127,1511886140
9015,17,Jits_Phase_5,0,5,80,127,1512306112
9015,17,Jits_Phase_5,1,1,48,30,1512323920
9015,17,Jits_Phase_5,2,5,56,103,1512385972
9015,17,Jits_Phase_5,3,5,63,98,1512396092
9015,17,Jits_Phase_5,0,1,48,39,1512812728
9015,17,Jits_Phase_5,1,5,56,103,1512845800
9015,17,Jits_Phase_5,2,5,63,98,1512848716
9015,17,Jits_Phase_5,3,5,80,127,1512856144
9015,17,Jits_Phase_5,0,1,48,39,1513288348
9015,17,Jits_Phase_5,1,5,56,103,1513366068
9015,17,Jits_Phase_5,2,5,63,98,1513386288
9015,17,Jits_Phase_5,3,5,80,127,1513395660
9015,17,Jits_Phase_5,0,5,63,98,1513825748
9015,17,Jits_Phase_5,1,1,48,39,1513828492
9015,17,Jits_Phase_5,2,5,80,127,1513835860
9015,17,Jits_Phase_5,3,5,56,103,1513856320
9015,17,Jits_Phase_5,0,1,48,37,1514306280
9015,17,Jits_Phase_5,1,5,63,98,1514326308
9015,17,Jits_Phase_5,2,5,56,103,1514406232
9015,17,Jits_Phase_5,3,5,80,127,1514409300
9015,17,Jits_Phase_5,0,1,48,33,1514819880
9015,17,Jits_Phase_5,1,5,63,98,1514826052
9015,17,Jits_Phase_5,2,5,56,103,1514845540
9015,17,Jits_Phase_5,3,5,80,127,1514876408
9015,17,Jits_Phase_5,0,1,48,30,1515324292
9015,17,Jits_Phase_5,1,5,56,103,1515325728
9015,17,Jits_Phase_5,2,5,63,98,1515346408
9015,17,Jits_Phase_5,3,5,80,127,1515355408
9015,17,Jits_Phase_5,0,1,48,25,1515795560
9015,17,Jits_Phase_5,1,5,56,103,1515856192
9015,17,Jits_Phase_5,2,5,63,98,1515885864
9015,17,Jits_Phase_5,3,5,80,127,1515890108
9015,17,Jits_Phase_5,0,5,56,103,1516305968
9015,17,Jits_Phase_5,1,5,63,98,1516345832
9015,17,Jits_Phase_5,2,1,48,19,1516398244
9015,17,Jits_Phase_5,3,5,80,127,1516406140
9015,17,Jits_Phase_5,0,5,56,103,1516825960
9015,17,Jits_Phase_5,1,5,63,98,1516836232
9015,17,Jits_Phase_5,2,1,48,36,1516841368
9015,17,Jits_Phase_5,3,5,80,127,1516895712
9015,17,Jits_Phase_5,0,5,56,103,1517325724
9015,17,Jits_Phase_5,1,5,80,127,1517346108
9015,17,Jits_Phase_5,2,1,48,33,1517352888
9015,17,Jits_Phase_5,3,5,63,98,1517376000
9015,17,Jits_Phase_5,0,5,80,127,1517826312
9015,17,Jits_Phase_5,1,1,48,33,1517829800
9015,17,Jits_Phase_5,2,5,56,103,1517835824
9015,17,Jits_Phase_5,3,5,63,98,1517856060
9015,17,Jits_Phase_5,0,1,48,25,1518286084
9015,17,Jits_Phase_5,1,5,63,98,1518316024
9015,17,Jits_Phase_5,2,5,80,127,1518395952
9015,17,Jits_Phase_5,3,5,56,103,1518406152
9015,17,Jits_Phase_5,0,1,48,35,1518831476
9015,17,Jits_Phase_5,1,5,80,127,1518905836
9015,17,Jits_Phase_5,2,5,56,103,1518926128
9015,17,Jits_Phase_5,3,5,63,98,1518929120
9015,17,Jits_Phase_5,0,1,48,30,1519392808
9015,17,Jits_Phase_5,1,5,63,98,1519396136
9015,17,Jits_Phase_5,2,5,80,127,1519399724
9015,17,Jits_Phase_5,3,5,56,103,1519455700
9015,17,Jits_Phase_5,0,5,56,103,1519875508
9015,17,Jits_Phase_5,1,5,80,127,1519885928
9015,17,Jits_Phase_5,2,5,63,98,1519925716
9015,17,Jits_Phase_5,3,1,48,32,1519935428
9015,17,Jits_Phase_5,0,5,56,103,1520355792
9015,17,Jits_Phase_5,1,5,63,98,1520416184
9015,17,Jits_Phase_5,2,5,80,127,1520426304
9015,17,Jits_Phase_5,3,1,48,29,1520433164
9015,17,Jits_Phase_5,0,5,63,98,1520865668
9015,17,Jits_Phase_5,1,5,80,127,1520905684
9015,17,Jits_Phase_5,2,1,48,40,1520937272
9015,17,Jits_Phase_5,3,5,56,103,1520945464
9015,17,Jits_Phase_5,0,5,56,103,1521366512
9015,17,Jits_Phase_5,1,1,48,33,1521433032
9015,17,Jits_Phase_5,2,5,63,98,1521446400
9015,17,Jits_Phase_5,3,5,80,127,1521449688
9015,17,Jits_Phase_5,0,1,48,36,1521900048
9015,17,Jits_Phase_5,1,5,80,127,1521925628
9015,17,Jits_Phase_5,2,5,56,103,1521956200
9015,17,Jits_Phase_5,3,5,63,98,1521959264
9015,17,Jits_Phase_5,0,5,56,103,1522386172
9015,17,Jits_Phase_5,1,5,80,127,1522405832
9015,17,Jits_Phase_5,2,1,48,37,1522425288
9015,17,Jits_Phase_5,3,5,63,98,1522445836
9015,17,Jits_Phase_5,0,5,80,127,1522865628
9015,17,Jits_Phase_5,1,5,63,98,1522885936
9015,17,Jits_Phase_5,2,1,48,38,1522943832
9015,17,Jits_Phase_5,3,5,56,103,1522946344
9015,17,Jits_Phase_5,0,5,63,98,1523375656
9015,17,Jits_Phase_5,1,5,56,103,1523385924
9015,17,Jits_Phase_5,2,1,48,37,1523426384
9015,17,Jits_Phase_5,3,5,80,127,1523435996
9015,17,Jits_Phase_5,0,5,56,103,1523866112
9015,17,Jits_Phase_5,1,5,63,98,1523885304
9015,17,Jits_Phase_5,2,1,48,32,1523888272
9015,17,Jits_Phase_5,3,5,80,127,1523895940
9015,17,Jits_Phase_5,0,5,56,103,1524355460
9015,17,Jits_Phase_5,1,5,63,98,1524358676
9015,17,Jits_Phase_5,2,1,48,31,1524370860
9015,17,Jits_Phase_5,3,5,80,127,1524376060
9015,17,Jits_Phase_5,0,1,48,34,1524833832
9015,17,Jits_Phase_5,1,5,63,98,1524896108
9015,17,Jits_Phase_5,2,5,56,103,1524925788
9015,17,Jits_Phase_5,3,5,80,127,1524955444
9015,17,Jits_Phase_5,0,5,80,127,1525355788
9015,17,Jits_Phase_5,1,1,48,32,1525387148
9015,17,Jits_Phase_5,2,5,56,103,1525445988
9015,17,Jits_Phase_5,3,5,63,98,1525449052
9015,17,Jits_Phase_5,0,5,56,103,1525855692
9015,17,Jits_Phase_5,1,5,80,127,1525858608
9015,17,Jits_Phase_5,2,5,63,98,1525935484
9015,17,Jits_Phase_5,3,1,48,40,1525938824
9015,17,Jits_Phase_5,0,5,80,127,1526356192
9015,17,Jits_Phase_5,1,1,48,39,1526405016
9015,17,Jits_Phase_5,2,5,63,98,1526415828
9015,17,Jits_Phase_5,3,5,56,103,1526445352
9015,17,Jits_Phase_5,0,5,63,98,1526855956
9015,17,Jits_Phase_5,1,1,48,38,1526862736
9015,17,Jits_Phase_5,2,5,80,127,1526866296
9015,17,Jits_Phase_5,3,5,56,103,1526935824
9015,17,Jits_Phase_5,0,1,48,38,1527351992
9015,17,Jits_Phase_5,1,5,56,103,1527416232
9015,17,Jits_Phase_5,2,5,80,127,1527445820
9015,17,Jits_Phase_5,3,5,63,98,1527495944
9015,17,Jits_Phase_5,0,1,48,34,1527898040
9015,17,Jits_Phase_5,1,5,63,98,1528006016
9015,17,Jits_Phase_5,2,5,56,103,1528035788
9015,17,Jits_Phase_5,3,5,80,127,1528038928
9015,17,Jits_Phase_5,0,5,63,98,1528505932
9015,17,Jits_Phase_5,1,1,48,34,1528519608
9015,17,Jits_Phase_5,2,5,80,127,1528526308
9015,17,Jits_Phase_5,3,5,56,103,1528536428
9015,17,Jits_Phase_5,0,1,48,37,1528990964
9015,17,Jits_Phase_5,1,5,56,103,1529015936
9015,17,Jits_Phase_5,2,5,63,98,1529018856
9015,17,Jits_Phase_5,3,5,80,127,1529036172
9015,17,Jits_Phase_5,0,5,56,103,1529466240
9015,17,Jits_Phase_5,1,5,63,98,1529475540
9015,17,Jits_Phase_5,2,5,80,127,1529506112
9015,17,Jits_Phase_5,3,1,48,33,1529519864
9015,17,Jits_Phase_5,0,1,48,32,1529958848
9015,17,Jits_Phase_5,1,5,63,98,1529986372
9015,17,Jits_Phase_5,2,5,80,127,1530005860
9015,17,Jits_Phase_5,3,5,56,103,1530045796
9015,17,Jits_Phase_5,0,1,48,35,1530481820
9015,17,Jits_Phase_5,1,5,56,103,1530515940
9015,17,Jits_Phase_5,2,5,63,98,1530555728
9015,17,Jits_Phase_5,3,5,80,127,1530559016
9015,17,Jits_Phase_5,0,5,80,127,1530956280
9015,17,Jits_Phase_5,1,5,56,103,1530996072
9015,17,Jits_Phase_5,2,5,63,98,1531046196
9015,17,Jits_Phase_5,3,1,48,32,1531054344
9015,17,Jits_Phase_5,0,1,48,37,1531507408
9015,17,Jits_Phase_5,1,5,56,103,1531516204
9015,17,Jits_Phase_5,2,5,80,127,1531525724
9015,17,Jits_Phase_5,3,5,63,98,1531556072
9015,17,Jits_Phase_5,0,5,56,103,1531965768
9015,17,Jits_Phase_5,1,1,48,33,1531998404
9015,17,Jits_Phase_5,2,5,80,127,1532005848
9015,17,Jits_Phase_5,3,5,63,98,1532055972
9015,17,Jits_Phase_5,0,5,56,103,1532465756
9015,17,Jits_Phase_5,1,1,48,38,1532496448
9015,17,Jits_Phase_5,2,5,80,127,1532505612
9015,17,Jits_Phase_5,3,5,63,98,1532555736
9015,17,Jits_Phase_5,0,5,80,127,1532956156
9015,17,Jits_Phase_5,1,1,48,39,1533009468
9015,17,Jits_Phase_5,2,5,63,98,1533035872
9015,17,Jits_Phase_5,3,5,56,103,1533045992
9015,17,Jits_Phase_5,0,1,48,36,1533500984
9015,17,Jits_Phase_5,1,5,80,127,1533505888
9015,17,Jits_Phase_5,2,5,56,103,1533516160
9015,17,Jits_Phase_5,3,5,63,98,1533535568
9015,17,Jits_Phase_5,0,5,63,98,1533975832
9015,17,Jits_Phase_5,1,1,48,37,1533999100
9015,17,Jits_Phase_5,2,5,56,103,1534045652
9015,17,Jits_Phase_5,3,5,80,127,1534048940
9015,17,Jits_Phase_5,0,5,80,127,1534466508
9015,17,Jits_Phase_5,1,1,48,37,1534490152
9015,17,Jits_Phase_5,2,5,63,98,1534515732
9015,17,Jits_Phase_5,3,5,56,103,1534555520
9015,17,Jits_Phase_5,0,1,48,38,1534999500
9015,17,Jits_Phase_5,1,5,63,98,1535005976
9015,17,Jits_Phase_5,2,5,56,103,1535046064
9015,17,Jits_Phase_5,3,5,80,127,1535056256
9015,17,Jits_Phase_5,0,5,63,98,1535495624
9015,17,Jits_Phase_5,1,1,48,37,1535502180
9015,17,Jits_Phase_5,2,5,56,103,1535516076
9015,17,Jits_Phase_5,3,5,80,127,1535535712
9015,17,Jits_Phase_5,0,5,80,127,1535956540
9015,17,Jits_Phase_5,1,5,56,103,1535965840
9015,17,Jits_Phase_5,2,5,63,98,1535986100
9015,17,Jits_Phase_5,3,1,48,39,1535995516
9015,17,Jits_Phase_5,0,5,63,98,1536485848
9015,17,Jits_Phase_5,1,1,48,32,1536489940
9015,17,Jits_Phase_5,2,5,56,103,1536525780
9015,17,Jits_Phase_5,3,5,80,127,1536556352
9015,17,Jits_Phase_5,0,5,56,103,1536945568
9015,17,Jits_Phase_5,1,5,63,98,1536976216
9015,17,Jits_Phase_5,2,1,48,35,1536991716
9015,17,Jits_Phase_5,3,5,80,127,1537005984
9015,17,Jits_Phase_5,0,5,80,127,1537366600
9015,17,Jits_Phase_5,1,5,56,103,1537436056
9015,17,Jits_Phase_5,2,5,63,98,1537439120
9015,17,Jits_Phase_5,3,1,48,30,1537468540
9015,17,Jits_Phase_5,0,5,56,103,1537876616
9015,17,Jits_Phase_5,1,5,63,98,1537925624
9015,17,Jits_Phase_5,2,1,48,36,1537929344
9015,17,Jits_Phase_5,3,5,80,127,1537956112
9015,17,Jits_Phase_5,0,5,63,98,1538355628
9015,17,Jits_Phase_5,1,5,80,127,1538359140
9015,17,Jits_Phase_5,2,1,48,39,1538412528
9015,17,Jits_Phase_5,3,5,56,103,1538415936
9015,17,Jits_Phase_5,0,5,56,103,1538886008
9015,17,Jits_Phase_5,1,5,80,127,1538896424
9015,17,Jits_Phase_5,2,1,48,35,1538897392
9015,17,Jits_Phase_5,3,5,63,98,1538946396
9015,17,Jits_Phase_5,0,5,63,98,1539356028
9015,17,Jits_Phase_5,1,5,56,103,1539366744
9015,17,Jits_Phase_5,2,1,48,32,1539378336
9015,17,Jits_Phase_5,3,5,80,127,1539395892
9015,17,Jits_Phase_5,0,1,48,31,1539846376
9015,17,Jits_Phase_5,1,5,63,98,1539885508
9015,17,Jits_Phase_5,2,5,80,127,1539888796
9015,17,Jits_Phase_5,3,5,56,103,1539916008
9015,17,Jits_Phase_5,0,1,48,33,1540349036
9015,17,Jits_Phase_5,1,5,63,98,1540405780
9015,17,Jits_Phase_5,2,5,56,103,1540426088
9015,17,Jits_Phase_5,3,5,80,127,1540429376
9015,17,Jits_Phase_5,0,5,63,98,1540866712
9015,17,Jits_Phase_5,1,1,48,38,1540880772
9015,17,Jits_Phase_5,2,5,56,103,1540936168
9015,17,Jits_Phase_5,3,5,80,127,1540955576
9015,17,Jits_Phase_5,0,5,56,103,1541355828
9015,17,Jits_Phase_5,1,5,63,98,1541366324
9015,17,Jits_Phase_5,2,1,48,36,1541372136
9015,17,Jits_Phase_5,3,5,80,127,1541456224
9015,17,Jits_Phase_5,0,1,48,32,1541846472
9015,17,Jits_Phase_5,1,5,56,103,1541876040
9015,17,Jits_Phase_5,2,5,80,127,1541916052
9015,17,Jits_Phase_5,3,5,63,98,1541926472
9015,17,Jits_Phase_5,0,1,48,33,1542336928
9015,17,Jits_Phase_5,1,5,56,103,1542396240
9015,17,Jits_Phase_5,2,5,63,98,1542425992
9015,17,Jits_Phase_5,3,5,80,127,1542455576
9015,17,Jits_Phase_5,0,5,80,127,1542856340
9015,17,Jits_Phase_5,1,1,48,27,1542884816
9015,17,Jits_Phase_5,2,5,63,98,1542895996
9015,17,Jits_Phase_5,3,5,56,103,1542915708
9015,17,Jits_Phase_5,0,1,48,25,1543366632
9015,17,Jits_Phase_5,1,5,56,103,1543395604
9015,17,Jits_Phase_5,2,5,80,127,1543416288
9015,17,Jits_Phase_5,3,5,63,98,1543435624
9015,17,Jits_Phase_5,0,1,48,32,1543843372
9015,17,Jits_Phase_5,1,5,63,98,1543865584
9015,17,Jits_Phase_5,2,5,56,103,1543876004
9015,17,Jits_Phase_5,3,5,80,127,1543936564
9015,17,Jits_Phase_5,0,1,48,36,1544352932
9015,17,Jits_Phase_5,1,5,56,103,1544365476
9015,17,Jits_Phase_5,2,5,63,98,1544436004
9015,17,Jits_Phase_5,3,5,80,127,1544455624
9015,17,Jits_Phase_5,0,5,56,103,1544866132
9015,17,Jits_Phase_5,1,5,63,98,1544895880
9015,17,Jits_Phase_5,2,1,48,37,1544910828
9015,17,Jits_Phase_5,3,5,80,127,1544935688
9015,17,Jits_Phase_5,0,5,63,98,1545355632
9015,17,Jits_Phase_5,1,1,48,30,1545395244
9015,17,Jits_Phase_5,2,5,56,103,1545405828
9015,17,Jits_Phase_5,3,5,80,127,1545416096
9015,17,Jits_Phase_5,0,1,48,32,1545887936
9015,17,Jits_Phase_5,1,5,56,103,1545896424
9015,17,Jits_Phase_5,2,5,63,98,1545945656
9015,17,Jits_Phase_5,3,5,80,127,1545955576
9015,17,Jits_Phase_5,0,5,56,103,1546366444
9015,17,Jits_Phase_5,1,5,63,98,1546375444
9015,17,Jits_Phase_5,2,1,48,32,1546395568
9015,17,Jits_Phase_5,3,5,80,127,1546456648
9015,17,Jits_Phase_5,0,9999,9999,9999,1462113364
9015,17,Jits_Phase_5,1,9999,9999,9999,1462614120
9015,17,Jits_Phase_5,2,9999,9999,9999,1463124088
9015,17,Jits_Phase_5,3,9999,9999,9999,1463623756
9015,17,Jits_Phase_5,4,9999,9999,9999,1464123512
9015,17,Jits_Phase_5,5,9999,9999,9999,1464623192
9015,17,Jits_Phase_5,6,9999,9999,9999,1465123912
9015,17,Jits_Phase_5,7,9999,9999,9999,1465623676
9015,17,Jits_Phase_5,8,9999,9999,9999,1466123364
9015,17,Jits_Phase_5,9,9999,9999,9999,1466624104
9015,17,Jits_Phase_5,10,9999,9999,9999,1467134056
9015,17,Jits_Phase_5,11,9999,9999,9999,1467633748
9015,17,Jits_Phase_5,12,9999,9999,9999,1468133496
9015,17,Jits_Phase_5,13,9999,9999,9999,1468633144
9015,17,Jits_Phase_5,14,9999,9999,9999,1469133932
9015,17,Jits_Phase_5,15,9999,9999,9999,1469633620
9015,17,Jits_Phase_5,16,9999,9999,9999,1470133308
9015,17,Jits_Phase_5,17,9999,9999,9999,1470634104
9015,17,Jits_Phase_5,18,9999,9999,9999,1471133792
9015,17,Jits_Phase_5,19,9999,9999,9999,1471633484
9015,17,Jits_Phase_5,20,9999,9999,9999,1472133176
9015,17,Jits_Phase_5,21,9999,9999,9999,1472633916
9015,17,Jits_Phase_5,22,9999,9999,9999,1473133676
9015,17,Jits_Phase_5,23,9999,9999,9999,1473633364
9015,17,Jits_Phase_5,24,9999,9999,9999,1474134100
9015,17,Jits_Phase_5,25,9999,9999,9999,1474644044
9015,17,Jits_Phase_5,26,9999,9999,9999,1475143740
9015,17,Jits_Phase_5,27,9999,9999,9999,1475643476
9015,17,Jits_Phase_5,28,9999,9999,9999,1476143168
9015,17,Jits_Phase_5,29,9999,9999,9999,1476643900
9015,17,Jits_Phase_5,30,9999,9999,9999,1477133400
9015,17,Jits_Phase_5,31,9999,9999,9999,1477633088
9015,17,Jits_Phase_5,32,9999,9999,9999,1478133820
9015,17,Jits_Phase_5,33,9999,9999,9999,1478633584
9015,17,Jits_Phase_5,34,9999,9999,9999,1479133252
9015,17,Jits_Phase_5,35,9999,9999,9999,1479634040
9015,17,Jits_Phase_5,36,9999,9999,9999,1480133708
9015,17,Jits_Phase_5,37,9999,9999,9999,1480633456
9015,17,Jits_Phase_5,38,9999,9999,9999,1481133144
9015,17,Jits_Phase_5,39,9999,9999,9999,1481633868
9015,17,Jits_Phase_5,40,9999,9999,9999,1482133616
9015,17,Jits_Phase_5,41,9999,9999,9999,1482633304
9015,17,Jits_Phase_5,42,9999,9999,9999,1483134036
9015,17,Jits_Phase_5,43,9999,9999,9999,1483633784
9015,17,Jits_Phase_5,44,9999,9999,9999,1484133456
9015,17,Jits_Phase_5,45,9999,9999,9999,1484633216
9015,17,Jits_Phase_5,46,9999,9999,9999,1485133936
9015,17,Jits_Phase_5,47,9999,9999,9999,1485633612
9015,17,Jits_Phase_5,48,9999,9999,9999,1486143552
9015,17,Jits_Phase_5,49,9999,9999,9999,1486643320
9015,17,Jits_Phase_5,50,9999,9999,9999,1487144028
9015,17,Jits_Phase_5,51,9999,9999,9999,1487643720
9015,17,Jits_Phase_5,52,9999,9999,9999,1488143488
9015,17,Jits_Phase_5,53,9999,9999,9999,1488643176
9015,17,Jits_Phase_5,54,9999,9999,9999,1489143900
9015,17,Jits_Phase_5,55,9999,9999,9999,1489643588
9015,17,Jits_Phase_5,56,9999,9999,9999,1490143328
9015,17,Jits_Phase_5,57,9999,9999,9999,1490644048
9015,17,Jits_Phase_5,58,9999,9999,9999,1491143800
9015,17,Jits_Phase_5,59,9999,9999,9999,1491643460
9015,17,Jits_Phase_5,60,9999,9999,9999,1492143204
9015,17,Jits_Phase_5,61,9999,9999,9999,1492643920
9015,17,Jits_Phase_5,62,9999,9999,9999,1493143672
9015,17,Jits_Phase_5,63,9999,9999,9999,1493643356
9015,17,Jits_Phase_5,64,9999,9999,9999,1494163564
9015,17,Jits_Phase_5,65,9999,9999,9999,1494663236
9015,17,Jits_Phase_5,66,9999,9999,9999,1495164032
9015,17,Jits_Phase_5,67,9999,9999,9999,1495663712
9015,17,Jits_Phase_5,68,9999,9999,9999,1496163404
9015,17,Jits_Phase_5,69,9999,9999,9999,1496663096
9015,17,Jits_Phase_5,70,9999,9999,9999,1497163880
9015,17,Jits_Phase_5,71,9999,9999,9999,1497663568
9015,17,Jits_Phase_5,72,9999,9999,9999,1498163256
9015,17,Jits_Phase_5,73,9999,9999,9999,1498664052
9015,17,Jits_Phase_5,74,9999,9999,9999,1499163728
9015,17,Jits_Phase_5,75,9999,9999,9999,1499663480
9015,17,Jits_Phase_5,76,9999,9999,9999,1500163176
9015,17,Jits_Phase_5,77,9999,9999,9999,1500663900
9015,17,Jits_Phase_5,78,9999,9999,9999,1501163588
9015,17,Jits_Phase_5,79,9999,9999,9999,1501663312
9015,17,Jits_Phase_5,80,9999,9999,9999,1502164036
9015,17,Jits_Phase_5,81,9999,9999,9999,1502643260
9015,17,Jits_Phase_5,82,9999,9999,9999,1503143996
9015,17,Jits_Phase_5,83,9999,9999,9999,1503643748
9015,17,Jits_Phase_5,84,9999,9999,9999,1504143428
9015,17,Jits_Phase_5,85,9999,9999,9999,1504643172
9015,17,Jits_Phase_5,86,9999,9999,9999,1505143896
9015,17,Jits_Phase_5,87,9999,9999,9999,1505643584
9015,17,Jits_Phase_5,88,9999,9999,9999,1506143332
9015,17,Jits_Phase_5,89,9999,9999,9999,1506644056
9015,17,Jits_Phase_5,90,9999,9999,9999,1507143804
9015,17,Jits_Phase_5,91,9999,9999,9999,1507643492
9015,17,Jits_Phase_5,92,9999,9999,9999,1508143168
9015,17,Jits_Phase_5,93,9999,9999,9999,1508643964
9015,17,Jits_Phase_5,94,9999,9999,9999,1509143636
9015,17,Jits_Phase_5,95,9999,9999,9999,1509643328
9015,17,Jits_Phase_5,96,9999,9999,9999,1510144064
9015,17,Jits_Phase_5,97,9999,9999,9999,1510603836
9015,17,Jits_Phase_5,98,9999,9999,9999,1511103564
9015,17,Jits_Phase_5,99,9999,9999,9999,1511603324
9015,17,Jits_Phase_5,100,9999,9999,9999,1512104044
9015,17,Jits_Phase_5,101,9999,9999,9999,1512603720
9015,17,Jits_Phase_5,102,9999,9999,9999,1513103476
9015,17,Jits_Phase_5,103,9999,9999,9999,1513603152
9015,17,Jits_Phase_5,104,9999,9999,9999,1514103872
9015,17,Jits_Phase_5,105,9999,9999,9999,1514603616
9015,17,Jits_Phase_5,106,9999,9999,9999,1515103288
9015,17,Jits_Phase_5,107,9999,9999,9999,1515604084
9015,17,Jits_Phase_5,108,9999,9999,9999,1516103752
9015,17,Jits_Phase_5,109,9999,9999,9999,1516603504
9015,17,Jits_Phase_5,110,9999,9999,9999,1517103192
9015,17,Jits_Phase_5,111,9999,9999,9999,1517603928
9015,17,Jits_Phase_5,112,9999,9999,9999,1518103612
9015,17,Jits_Phase_5,113,9999,9999,9999,1518603380
9015,17,Jits_Phase_5,114,9999,9999,9999,1519153248
9015,17,Jits_Phase_5,115,9999,9999,9999,1519653960
9015,17,Jits_Phase_5,116,9999,9999,9999,1520153708
9015,17,Jits_Phase_5,117,9999,9999,9999,1520653400
9015,17,Jits_Phase_5,118,9999,9999,9999,1521153092
9015,17,Jits_Phase_5,119,9999,9999,9999,1521653876
9015,17,Jits_Phase_5,120,9999,9999,9999,1522153564
9015,17,Jits_Phase_5,121,9999,9999,9999,1522653288
9015,17,Jits_Phase_5,122,9999,9999,9999,1523154020
9015,17,Jits_Phase_5,123,9999,9999,9999,1523653708
9015,17,Jits_Phase_5,124,9999,9999,9999,1524153456
9015,17,Jits_Phase_5,125,9999,9999,9999,1524653128
9015,17,Jits_Phase_5,126,9999,9999,9999,1525153872
9015,17,Jits_Phase_5,127,9999,9999,9999,1525653612
9015,17,Jits_Phase_5,128,9999,9999,9999,1526153288
9015,17,Jits_Phase_5,129,9999,9999,9999,1526654024
9015,17,Jits_Phase_5,130,9999,9999,9999,1527153784
9015,17,Jits_Phase_5,131,9999,9999,9999,1527753848
9015,17,Jits_Phase_5,132,9999,9999,9999,1528253520
9015,17,Jits_Phase_5,133,9999,9999,9999,1528753268
9015,17,Jits_Phase_5,134,9999,9999,9999,1529253984
9015,17,Jits_Phase_5,135,9999,9999,9999,1529753656
9015,17,Jits_Phase_5,136,9999,9999,9999,1530253420
9015,17,Jits_Phase_5,137,9999,9999,9999,1530753092
9015,17,Jits_Phase_5,138,9999,9999,9999,1531253816
9015,17,Jits_Phase_5,139,9999,9999,9999,1531753584
9015,17,Jits_Phase_5,140,9999,9999,9999,1532253260
9015,17,Jits_Phase_5,141,9999,9999,9999,1532754000
9015,17,Jits_Phase_5,142,9999,9999,9999,1533253692
9015,17,Jits_Phase_5,143,9999,9999,9999,1533753460
9015,17,Jits_Phase_5,144,9999,9999,9999,1534253128
9015,17,Jits_Phase_5,145,9999,9999,9999,1534753856
9015,17,Jits_Phase_5,146,9999,9999,9999,1535253620
9015,17,Jits_Phase_5,147,9999,9999,9999,1535753304
9015,17,Jits_Phase_5,148,9999,9999,9999,1536254020
9015,17,Jits_Phase_5,149,9999,9999,9999,1536753788
9015,17,Jits_Phase_5,150,9999,9999,9999,1537153132
9015,17,Jits_Phase_5,151,9999,9999,9999,1537653860
9015,17,Jits_Phase_5,152,9999,9999,9999,1538153552
9015,17,Jits_Phase_5,153,9999,9999,9999,1538653300
9015,17,Jits_Phase_5,154,9999,9999,9999,1539154020
9015,17,Jits_Phase_5,155,9999,9999,9999,1539653704
9015,17,Jits_Phase_5,156,9999,9999,9999,1540153448
9015,17,Jits_Phase_5,157,9999,9999,9999,1540653116
9015,17,Jits_Phase_5,158,9999,9999,9999,1541153912
9015,17,Jits_Phase_5,159,9999,9999,9999,1541653584
9015,17,Jits_Phase_5,160,9999,9999,9999,1542153276
9015,17,Jits_Phase_5,161,9999,9999,9999,1542654076
9015,17,Jits_Phase_5,162,9999,9999,9999,1543153748
9015,17,Jits_Phase_5,163,9999,9999,9999,1543653436
9015,17,Jits_Phase_5,164,9999,9999,9999,1544153160
9015,17,Jits_Phase_5,165,9999,9999,9999,1544653952
9015,17,Jits_Phase_5,166,9999,9999,9999,1545153624
9015,17,Jits_Phase_5,167,9999,9999,9999,1545653312
9015,17,Jits_Phase_5,168,9999,9999,9999,1546154112
9015,17,Jits_Phase_5,169,9999,9999,9999,1546653788
9016,18,Jits_Linear_8,0,5,56,103,1555920412
9016,18,Jits_Linear_8,1,5,63,98,1555923512
9016,18,Jits_Linear_8,2,5,80,127,1555926408
9016,18,Jits_Linear_8,0,5,56,103,1556739548
9016,18,Jits_Linear_8,1,5,63,98,1556742724
9016,18,Jits_Linear_8,2,5,80,127,1556745844
9016,18,Jits_Linear_8,0,5,80,127,1557500608
9016,18,Jits_Linear_8,1,1,48,30,1557558508
9016,18,Jits_Linear_8,2,5,63,98,1557590592
9016,18,Jits_Linear_8,3,5,56,103,1557599516
9016,18,Jits_Linear_8,0,1,48,32,1558326340
9016,18,Jits_Linear_8,1,5,56,103,1558339860
9016,18,Jits_Linear_8,2,5,63,98,1558350352
9016,18,Jits_Linear_8,3,5,80,127,1558440692
9016,18,Jits_Linear_8,0,1,48,33,1559124744
9016,18,Jits_Linear_8,1,5,63,98,1559129424
9016,18,Jits_Linear_8,2,5,80,127,1559160296
9016,18,Jits_Linear_8,3,5,56,103,1559189824
9016,18,Jits_Linear_8,0,1,48,35,1559913636
9016,18,Jits_Linear_8,1,5,56,103,1559949552
9016,18,Jits_Linear_8,2,5,80,127,1560050184
9016,18,Jits_Linear_8,3,5,63,98,1560100388
9016,18,Jits_Linear_8,0,5,56,103,1560759804
9016,18,Jits_Linear_8,1,5,80,127,1560809880
9016,18,Jits_Linear_8,2,1,48,29,1560813004
9016,18,Jits_Linear_8,3,5,63,98,1560849812
9016,18,Jits_Linear_8,0,5,80,127,1561600352
9016,18,Jits_Linear_8,1,1,48,29,1561601320
9016,18,Jits_Linear_8,2,5,63,98,1561630320
9016,18,Jits_Linear_8,3,5,56,103,1561700884
9016,18,Jits_Linear_8,0,1,48,34,1562425628
9016,18,Jits_Linear_8,1,5,63,98,1562440344
9016,18,Jits_Linear_8,2,5,56,103,1562469648
9016,18,Jits_Linear_8,3,5,80,127,1562530244
9016,18,Jits_Linear_8,0,5,56,103,1563189756
9016,18,Jits_Linear_8,1,5,80,127,1563192900
9016,18,Jits_Linear_8,2,1,48,38,1563229440
9016,18,Jits_Linear_8,3,5,63,98,1563309548
9016,18,Jits_Linear_8,0,1,48,38,1563952916
9016,18,Jits_Linear_8,1,5,56,103,1564070484
9016,18,Jits_Linear_8,2,5,80,127,1564110352
9016,18,Jits_Linear_8,3,5,63,98,1564120328
9016,18,Jits_Linear_8,0,5,56,103,1564830260
9016,18,Jits_Linear_8,1,5,80,127,1564849528
9016,18,Jits_Linear_8,2,1,48,36,1564865376
9016,18,Jits_Linear_8,3,5,63,98,1564930536
9016,18,Jits_Linear_8,0,5,80,127,1565619544
9016,18,Jits_Linear_8,1,1,48,36,1565652188
9016,18,Jits_Linear_8,2,5,56,103,1565719892
9016,18,Jits_Linear_8,3,5,63,98,1565730312
9016,18,Jits_Linear_8,0,5,63,98,1566389500
9016,18,Jits_Linear_8,1,5,80,127,1566449992
9016,18,Jits_Linear_8,2,5,56,103,1566460560
9016,18,Jits_Linear_8,3,1,48,36,1566550140
9016,18,Jits_Linear_8,0,5,56,103,1567190372
9016,18,Jits_Linear_8,1,1,48,30,1567208432
9016,18,Jits_Linear_8,2,5,63,98,1567260296
9016,18,Jits_Linear_8,3,5,80,127,1567263584
9016,18,Jits_Linear_8,0,1,48,32,1567967876
9016,18,Jits_Linear_8,1,5,63,98,1568019820
9016,18,Jits_Linear_8,2,5,56,103,1568070008
9016,18,Jits_Linear_8,3,5,80,127,1568073224
9016,18,Jits_Linear_8,0,1,48,31,1568762300
9016,18,Jits_Linear_8,1,5,56,103,1568770340
9016,18,Jits_Linear_8,2,5,80,127,1568773408
9016,18,Jits_Linear_8,3,5,63,98,1568859636
9016,18,Jits_Linear_8,0,1,48,37,1569527260
9016,18,Jits_Linear_8,1,5,63,98,1569600048
9016,18,Jits_Linear_8,2,5,56,103,1569690096
9016,18,Jits_Linear_8,3,5,80,127,1569719696
9016,18,Jits_Linear_8,0,5,56,103,1570390524
9016,18,Jits_Linear_8,1,1,48,43,1570397848
9016,18,Jits_Linear_8,2,5,63,98,1570490380
9016,18,Jits_Linear_8,3,5,80,127,1570520428
9016,18,Jits_Linear_8,0,5,63,98,1571200340
9016,18,Jits_Linear_8,1,5,56,103,1571209564
9016,18,Jits_Linear_8,2,5,80,127,1571299720
9016,18,Jits_Linear_8,3,1,48,40,1571308840
9016,18,Jits_Linear_8,0,1,48,38,1571968452
9016,18,Jits_Linear_8,1,5,63,98,1572000088
9016,18,Jits_Linear_8,2,5,56,103,1572080268
9016,18,Jits_Linear_8,3,5,80,127,1572083408
9016,18,Jits_Linear_8,0,5,80,127,1572739384
9016,18,Jits_Linear_8,1,5,63,98,1572759920
9016,18,Jits_Linear_8,2,1,48,40,1572802520
9016,18,Jits_Linear_8,3,5,56,103,1572820376
9016,18,Jits_Linear_8,0,5,56,103,1573559760
9016,18,Jits_Linear_8,1,5,63,98,1573580364
9016,18,Jits_Linear_8,2,5,80,127,1573583580
9016,18,Jits_Linear_8,3,1,48,38,1573585148
9016,18,Jits_Linear_8,0,5,63,98,1574279648
9016,18,Jits_Linear_8,1,1,48,31,1574357904
9016,18,Jits_Linear_8,2,5,80,127,1574360564
9016,18,Jits_Linear_8,3,5,56,103,1574369660
9016,18,Jits_Linear_8,0,5,63,98,1575080300
9016,18,Jits_Linear_8,1,5,56,103,1575099716
9016,18,Jits_Linear_8,2,1,48,35,1575101128
9016,18,Jits_Linear_8,3,5,80,127,1575150156
9016,18,Jits_Linear_8,0,1,48,35,1575815952
9016,18,Jits_Linear_8,1,5,80,127,1575859520
9016,18,Jits_Linear_8,2,5,63,98,1575899460
9016,18,Jits_Linear_8,3,5,56,103,1575920072
9016,18,Jits_Linear_8,0,1,48,37,1576647540
9016,18,Jits_Linear_8,1,5,56,103,1576669856
9016,18,Jits_Linear_8,2,5,63,98,1576679680
9016,18,Jits_Linear_8,3,5,80,127,1576700136
9016,18,Jits_Linear_8,0,5,56,103,1577370096
9016,18,Jits_Linear_8,1,1,48,43,1577372612
9016,18,Jits_Linear_8,2,5,63,98,1577460248
9016,18,Jits_Linear_8,3,5,80,127,1577519504
9016,18,Jits_Linear_8,0,5,80,127,1578169640
9016,18,Jits_Linear_8,1,5,56,103,1578180060
9016,18,Jits_Linear_8,2,1,48,38,1578203484
9016,18,Jits_Linear_8,3,5,63,98,1578249460
9016,18,Jits_Linear_8,0,1,48,37,1578931836
9016,18,Jits_Linear_8,1,5,63,98,1578969400
9016,18,Jits_Linear_8,2,5,80,127,1579059548
9016,18,Jits_Linear_8,3,5,56,103,1579069744
9016,18,Jits_Linear_8,0,5,63,98,1579669968
9016,18,Jits_Linear_8,1,5,80,127,1579720320
9016,18,Jits_Linear_8,2,1,48,39,1579756800
9016,18,Jits_Linear_8,3,5,56,103,1579779384
9016,18,Jits_Linear_8,0,5,56,103,1580460356
9016,18,Jits_Linear_8,1,1,48,39,1580493592
9016,18,Jits_Linear_8,2,5,80,127,1580509680
9016,18,Jits_Linear_8,3,5,63,98,1580530212
9016,18,Jits_Linear_8,0,1,48,35,1581189024
9016,18,Jits_Linear_8,1,5,56,103,1581190516
9016,18,Jits_Linear_8,2,5,80,127,1581250012
9016,18,Jits_Linear_8,3,5,63,98,1581319480
9016,18,Jits_Linear_8,0,5,56,103,1581950196
9016,18,Jits_Linear_8,1,5,80,127,1581980168
9016,18,Jits_Linear_8,2,5,63,98,1582009696
9016,18,Jits_Linear_8,3,1,48,41,1582010736
9016,18,Jits_Linear_8,0,1,48,39,1582716132
9016,18,Jits_Linear_8,1,5,56,103,1582750104
9016,18,Jits_Linear_8,2,5,80,127,1582769588
9016,18,Jits_Linear_8,3,5,63,98,1582830064
9016,18,Jits_Linear_8,0,1,48,38,1583548044
9016,18,Jits_Linear_8,1,5,80,127,1583589820
9016,18,Jits_Linear_8,2,5,56,103,1583600388
9016,18,Jits_Linear_8,3,5,63,98,1583610212
9016,18,Jits_Linear_8,0,5,56,103,1584300260
9016,18,Jits_Linear_8,1,1,48,33,1584323304
9016,18,Jits_Linear_8,2,5,80,127,1584340412
9016,18,Jits_Linear_8,3,5,63,98,1584370116
9016,18,Jits_Linear_8,0,5,56,103,1585020316
9016,18,Jits_Linear_8,1,5,63,98,1585050144
9016,18,Jits_Linear_8,2,1,48,45,1585068404
9016,18,Jits_Linear_8,3,5,80,127,1585089928
9016,18,Jits_Linear_8,0,5,80,127,1585719696
9016,18,Jits_Linear_8,1,1,48,42,1585757960
9016,18,Jits_Linear_8,2,5,63,98,1585769892
9016,18,Jits_Linear_8,3,5,56,103,1585790352
9016,18,Jits_Linear_8,0,1,48,40,1586459196
9016,18,Jits_Linear_8,1,5,56,103,1586499900
9016,18,Jits_Linear_8,2,5,80,127,1586569572
9016,18,Jits_Linear_8,3,5,63,98,1586630036
9016,18,Jits_Linear_8,0,5,80,127,1587240328
9016,18,Jits_Linear_8,1,1,48,38,1587250872
9016,18,Jits_Linear_8,2,5,63,98,1587330536
9016,18,Jits_Linear_8,3,5,56,103,1587350156
9016,18,Jits_Linear_8,0,5,63,98,1588000244
9016,18,Jits_Linear_8,1,5,56,103,1588019436
9016,18,Jits_Linear_8,2,5,80,127,1588059448
9016,18,Jits_Linear_8,3,1,48,42,1588065488
9016,18,Jits_Linear_8,0,5,80,127,1588699504
9016,18,Jits_Linear_8,1,5,63,98,1588720064
9016,18,Jits_Linear_8,2,1,48,34,1588759900
9016,18,Jits_Linear_8,3,5,56,103,1588800148
9016,18,Jits_Linear_8,0,5,63,98,1589429596
9016,18,Jits_Linear_8,1,1,48,30,1589483088
9016,18,Jits_Linear_8,2,5,56,103,1589540200
9016,18,Jits_Linear_8,3,5,80,127,1589543420
9016,18,Jits_Linear_8,0,1,48,37,1590175960
9016,18,Jits_Linear_8,1,5,63,98,1590189404
9016,18,Jits_Linear_8,2,5,56,103,1590199596
9016,18,Jits_Linear_8,3,5,80,127,1590202740
9016,18,Jits_Linear_8,0,1,48,35,1590895908
9016,18,Jits_Linear_8,1,5,56,103,1590910252
9016,18,Jits_Linear_8,2,5,80,127,1591030068
9016,18,Jits_Linear_8,3,5,63,98,1591070004
9016,18,Jits_Linear_8,0,5,56,103,1591659972
9016,18,Jits_Linear_8,1,1,48,37,1591727384
9016,18,Jits_Linear_8,2,5,80,127,1591739988
9016,18,Jits_Linear_8,3,5,63,98,1591760148
9016,18,Jits_Linear_8,0,5,56,103,1592389996
9016,18,Jits_Linear_8,1,1,48,36,1592484216
9016,18,Jits_Linear_8,2,5,63,98,1592499528
9016,18,Jits_Linear_8,3,5,80,127,1592503044
9016,18,Jits_Linear_8,0,5,56,103,1593149828
9016,18,Jits_Linear_8,1,5,80,127,1593179504
9016,18,Jits_Linear_8,2,5,63,98,1593199964
9016,18,Jits_Linear_8,3,1,48,38,1593216564
9016,18,Jits_Linear_8,0,5,63,98,1593859324
9016,18,Jits_Linear_8,1,5,56,103,1593869968
9016,18,Jits_Linear_8,2,5,80,127,1593880088
9016,18,Jits_Linear_8,3,1,48,33,1593892052
9016,18,Jits_Linear_8,0,1,48,34,1594552248
9016,18,Jits_Linear_8,1,5,80,127,1594570184
9016,18,Jits_Linear_8,2,5,56,103,1594620188
9016,18,Jits_Linear_8,3,5,63,98,1594660332
9016,18,Jits_Linear_8,0,1,48,32,1595294460
9016,18,Jits_Linear_8,1,5,80,127,1595309476
9016,18,Jits_Linear_8,2,5,63,98,1595329864
9016,18,Jits_Linear_8,3,5,56,103,1595380092
9016,18,Jits_Linear_8,0,5,80,127,1596039636
9016,18,Jits_Linear_8,1,1,48,32,1596042084
9016,18,Jits_Linear_8,2,5,56,103,1596070208
9016,18,Jits_Linear_8,3,5,63,98,1596139972
9016,18,Jits_Linear_8,0,5,56,103,1596809520
9016,18,Jits_Linear_8,1,1,48,34,1596816080
9016,18,Jits_Linear_8,2,5,80,127,1596819860
9016,18,Jits_Linear_8,3,5,63,98,1596859948
9016,18,Jits_Linear_8,0,5,56,103,1597440348
9016,18,Jits_Linear_8,1,5,63,98,1597459908
9016,18,Jits_Linear_8,2,5,80,127,1597529364
9016,18,Jits_Linear_8,3,1,48,36,1597558412
9016,18,Jits_Linear_8,0,1,48,31,1598170076
9016,18,Jits_Linear_8,1,5,63,98,1598179868
9016,18,Jits_Linear_8,2,5,80,127,1598240112
9016,18,Jits_Linear_8,3,5,56,103,1598259524
9016,18,Jits_Linear_8,0,5,80,127,1598880112
9016,18,Jits_Linear_8,1,5,56,103,1598909864
9016,18,Jits_Linear_8,2,1,48,32,1598913432
9016,18,Jits_Linear_8,3,5,63,98,1598939460
9016,18,Jits_Linear_8,0,1,48,35,1599588772
9016,18,Jits_Linear_8,1,5,56,103,1599590264
9016,18,Jits_Linear_8,2,5,63,98,1599650060
9016,18,Jits_Linear_8,3,5,80,127,1599709636
9016,18,Jits_Linear_8,0,1,48,37,1600305556
9016,18,Jits_Linear_8,1,5,80,127,1600320120
9016,18,Jits_Linear_8,2,5,56,103,1600340360
9016,18,Jits_Linear_8,3,5,63,98,1600409876
9016,18,Jits_Linear_8,0,5,80,127,1601029536
9016,18,Jits_Linear_8,1,5,63,98,1601049920
9016,18,Jits_Linear_8,2,5,56,103,1601079596
9016,18,Jits_Linear_8,3,1,48,32,1601107056
9016,18,Jits_Linear_8,0,5,80,127,1601719744
9016,18,Jits_Linear_8,1,5,63,98,1601740052
9016,18,Jits_Linear_8,2,1,48,30,1601744072
9016,18,Jits_Linear_8,3,5,56,103,1601799488
9016,18,Jits_Linear_8,0,5,80,127,1602420164
9016,18,Jits_Linear_8,1,1,48,32,1602438276
9016,18,Jits_Linear_8,2,5,56,103,1602520484
9016,18,Jits_Linear_8,3,5,63,98,1602550020
9016,18,Jits_Linear_8,0,5,63,98,1603110324
9016,18,Jits_Linear_8,1,5,80,127,1603160528
9016,18,Jits_Linear_8,2,5,56,103,1603179940
9016,18,Jits_Linear_8,3,1,48,36,1603196836
9016,18,Jits_Linear_8,0,5,80,127,1603849448
9016,18,Jits_Linear_8,1,1,48,33,1603857816
9016,18,Jits_Linear_8,2,5,56,103,1603880236
9016,18,Jits_Linear_8,3,5,63,98,1603883304
9016,18,Jits_Linear_8,0,1,48,38,1604533396
9016,18,Jits_Linear_8,1,5,63,98,1604579972
9016,18,Jits_Linear_8,2,5,56,103,1604619692
9016,18,Jits_Linear_8,3,5,80,127,1604640060
9016,18,Jits_Linear_8,0,5,80,127,1605219836
9016,18,Jits_Linear_8,1,1,48,38,1605270308
9016,18,Jits_Linear_8,2,5,63,98,1605299700
9016,18,Jits_Linear_8,3,5,56,103,1605339564
9016,18,Jits_Linear_8,0,5,63,98,1605930360
9016,18,Jits_Linear_8,1,1,48,37,1605992668
9016,18,Jits_Linear_8,2,5,80,127,1606010076
9016,18,Jits_Linear_8,3,5,56,103,1606029784
9016,18,Jits_Linear_8,0,5,56,103,1606659544
9016,18,Jits_Linear_8,1,5,63,98,1606669816
9016,18,Jits_Linear_8,2,1,48,32,1606689876
9016,18,Jits_Linear_8,3,5,80,127,1606709748
9016,18,Jits_Linear_8,0,5,56,103,1607270036
9016,18,Jits_Linear_8,1,5,80,127,1607273100
9016,18,Jits_Linear_8,2,1,48,32,1607351820
9016,18,Jits_Linear_8,3,5,63,98,1607410084
9016,18,Jits_Linear_8,0,5,56,103,1607949924
9016,18,Jits_Linear_8,1,1,48,38,1608002044
9016,18,Jits_Linear_8,2,5,63,98,1608039904
9016,18,Jits_Linear_8,3,5,80,127,1608109568
9016,18,Jits_Linear_8,0,1,48,41,1608697064
9016,18,Jits_Linear_8,1,5,63,98,1608709532
9016,18,Jits_Linear_8,2,5,80,127,1608712972
9016,18,Jits_Linear_8,3,5,56,103,1608770072
9016,18,Jits_Linear_8,0,1,48,39,1609417524
9016,18,Jits_Linear_8,1,5,80,127,1609430448
9016,18,Jits_Linear_8,2,5,56,103,1609450032
9016,18,Jits_Linear_8,3,5,63,98,1609460080
9016,18,Jits_Linear_8,0,5,56,103,1610029280
9016,18,Jits_Linear_8,1,5,63,98,1610039848
9016,18,Jits_Linear_8,2,5,80,127,1610110356
9016,18,Jits_Linear_8,3,1,48,31,1610129212
9016,18,Jits_Linear_8,0,5,80,127,1610710348
9016,18,Jits_Linear_8,1,1,48,32,1610730424
9016,18,Jits_Linear_8,2,5,56,103,1610759968
9016,18,Jits_Linear_8,3,5,63,98,1610809800
9016,18,Jits_Linear_8,0,1,48,39,1611393288
9016,18,Jits_Linear_8,1,5,56,103,1611470184
9016,18,Jits_Linear_8,2,5,63,98,1611480308
9016,18,Jits_Linear_8,3,5,80,127,1611520332
9016,18,Jits_Linear_8,0,5,56,103,1612089916
9016,18,Jits_Linear_8,1,5,63,98,1612129636
9016,18,Jits_Linear_8,2,1,48,35,1612138608
9016,18,Jits_Linear_8,3,5,80,127,1612179756
9016,18,Jits_Linear_8,0,5,80,127,1612719520
9016,18,Jits_Linear_8,1,5,56,103,1612769900
9016,18,Jits_Linear_8,2,5,63,98,1612790060
9016,18,Jits_Linear_8,3,1,48,32,1612797812
9016,18,Jits_Linear_8,0,5,80,127,1613400464
9016,18,Jits_Linear_8,1,1,48,35,1613450268
9016,18,Jits_Linear_8,2,5,63,98,1613459880
9016,18,Jits_Linear_8,3,5,56,103,1613539772
9016,18,Jits_Linear_8,0,5,80,127,1614049724
9016,18,Jits_Linear_8,1,5,56,103,1614089812
9016,18,Jits_Linear_8,2,5,63,98,1614109976
9016,18,Jits_Linear_8,3,1,48,33,1614177976
9016,18,Jits_Linear_8,0,5,56,103,1614769748
9016,18,Jits_Linear_8,1,1,48,31,1614780316
9016,18,Jits_Linear_8,2,5,80,127,1614781432
9016,18,Jits_Linear_8,3,5,63,98,1614819752
9016,18,Jits_Linear_8,0,1,48,29,1615476132
9016,18,Jits_Linear_8,1,5,56,103,1615499840
9016,18,Jits_Linear_8,2,5,63,98,1615539704
9016,18,Jits_Linear_8,3,5,80,127,1615543072
9016,18,Jits_Linear_8,0,5,63,98,1616049568
9016,18,Jits_Linear_8,1,5,80,127,1616089356
9016,18,Jits_Linear_8,2,5,56,103,1616160088
9016,18,Jits_Linear_8,3,1,48,33,1616186576
9016,18,Jits_Linear_8,0,5,63,98,1616699828
9016,18,Jits_Linear_8,1,5,56,103,1616779848
9016,18,Jits_Linear_8,2,1,48,31,1616798260
9016,18,Jits_Linear_8,3,5,80,127,1616840008
9016,18,Jits_Linear_8,0,5,80,127,1617369416
9016,18,Jits_Linear_8,1,5,63,98,1617419772
9016,18,Jits_Linear_8,2,1,48,28,1617447008
9016,18,Jits_Linear_8,3,5,56,103,1617450264
9016,18,Jits_Linear_8,0,5,56,103,1618019916
9016,18,Jits_Linear_8,1,5,63,98,1618069824
9016,18,Jits_Linear_8,2,1,48,32,1618078888
9016,18,Jits_Linear_8,3,5,80,127,1618080384
9016,18,Jits_Linear_8,0,1,48,35,1618682920
9016,18,Jits_Linear_8,1,5,56,103,1618690364
9016,18,Jits_Linear_8,2,5,63,98,1618799888
9016,18,Jits_Linear_8,3,5,80,127,1618819376
9016,18,Jits_Linear_8,0,5,63,98,1619339888
9016,18,Jits_Linear_8,1,5,80,127,1619389792
9016,18,Jits_Linear_8,2,1,48,24,1619428384
9016,18,Jits_Linear_8,3,5,56,103,1619479944
9016,18,Jits_Linear_8,0,5,63,98,1619979840
9016,18,Jits_Linear_8,1,5,80,127,1620010564
9016,18,Jits_Linear_8,2,5,56,103,1620099424
9016,18,Jits_Linear_8,3,1,48,27,1620149520
9016,18,Jits_Linear_8,0,5,63,98,1620629804
9016,18,Jits_Linear_8,1,5,56,103,1620640000
9016,18,Jits_Linear_8,2,5,80,127,1620739296
9016,18,Jits_Linear_8,3,1,48,35,1620764584
9016,18,Jits_Linear_8,0,5,63,98,1621379588
9016,18,Jits_Linear_8,1,5,80,127,1621410236
9016,18,Jits_Linear_8,2,1,48,34,1621423844
9016,18,Jits_Linear_8,3,5,56,103,1621439832
9016,18,Jits_Linear_8,0,5,80,127,1622039928
9016,18,Jits_Linear_8,1,5,63,98,1622050048
9016,18,Jits_Linear_8,2,1,48,29,1622072352
9016,18,Jits_Linear_8,3,5,56,103,1622079792
9016,18,Jits_Linear_8,0,5,80,127,1622579700
9016,18,Jits_Linear_8,1,5,63,98,1622600088
9016,18,Jits_Linear_8,2,5,56,103,1622650212
9016,18,Jits_Linear_8,3,1,48,32,1622706592
9016,18,Jits_Linear_8,0,5,63,98,1623250280
9016,18,Jits_Linear_8,1,1,48,35,1623259252
9016,18,Jits_Linear_8,2,5,80,127,1623309620
9016,18,Jits_Linear_8,3,5,56,103,1623330152
9016,18,Jits_Linear_8,0,5,63,98,1623850568
9016,18,Jits_Linear_8,1,5,56,103,1623899652
9016,18,Jits_Linear_8,2,5,80,127,1623909924
9016,18,Jits_Linear_8,3,1,48,35,1623912524
9016,18,Jits_Linear_8,0,1,48,35,1624479672
9016,18,Jits_Linear_8,1,5,56,103,1624519932
9016,18,Jits_Linear_8,2,5,80,127,1624530428
9016,18,Jits_Linear_8,3,5,63,98,1624629636
9016,18,Jits_Linear_8,0,5,80,127,1625120108
9016,18,Jits_Linear_8,1,5,63,98,1625130752
9016,18,Jits_Linear_8,2,1,48,35,1625160544
9016,18,Jits_Linear_8,3,5,56,103,1625279824
9016,18,Jits_Linear_8,0,5,63,98,1625760048
9016,18,Jits_Linear_8,1,5,80,127,1625799916
9016,18,Jits_Linear_8,2,5,56,103,1625879956
9016,18,Jits_Linear_8,3,1,48,39,1625894164
9016,18,Jits_Linear_8,0,5,56,103,1626379692
9016,18,Jits_Linear_8,1,5,80,127,1626479872
9016,18,Jits_Linear_8,2,5,63,98,1626499584
9016,18,Jits_Linear_8,3,1,48,37,1626526668
9016,18,Jits_Linear_8,0,5,80,127,1627069760
9016,18,Jits_Linear_8,1,5,56,103,1627080108
9016,18,Jits_Linear_8,2,1,48,42,1627118696
9016,18,Jits_Linear_8,3,5,63,98,1627170108
9016,18,Jits_Linear_8,0,5,56,103,1627699692
9016,18,Jits_Linear_8,1,1,48,40,1627714420
9016,18,Jits_Linear_8,2,5,63,98,1627719996
9016,18,Jits_Linear_8,3,5,80,127,1627799940
9016,18,Jits_Linear_8,0,5,63,98,1628269812
9016,18,Jits_Linear_8,1,1,48,41,1628353320
9016,18,Jits_Linear_8,2,5,56,103,1628360012
9016,18,Jits_Linear_8,3,5,80,127,1628363008
9016,18,Jits_Linear_8,0,5,56,103,1628920092
9016,18,Jits_Linear_8,1,1,48,36,1628959628
9016,18,Jits_Linear_8,2,5,80,127,1628979952
9016,18,Jits_Linear_8,3,5,63,98,1628989776
9016,18,Jits_Linear_8,0,1,48,33,1629559108
9016,18,Jits_Linear_8,1,5,80,127,1629589848
9016,18,Jits_Linear_8,2,5,56,103,1629600044
9016,18,Jits_Linear_8,3,5,63,98,1629603184
9016,18,Jits_Linear_8,0,5,56,103,1630169684
9016,18,Jits_Linear_8,1,5,80,127,1630179684
9016,18,Jits_Linear_8,2,1,48,36,1630180648
9016,18,Jits_Linear_8,3,5,63,98,1630200136
9016,18,Jits_Linear_8,0,5,63,98,1630760276
9016,18,Jits_Linear_8,1,1,48,38,1630795680
9016,18,Jits_Linear_8,2,5,80,127,1630819836
9016,18,Jits_Linear_8,3,5,56,103,1630869816
9016,18,Jits_Linear_8,0,1,48,37,1631429320
9016,18,Jits_Linear_8,1,5,63,98,1631459640
9016,18,Jits_Linear_8,2,5,56,103,1631469908
9016,18,Jits_Linear_8,3,5,80,127,1631520260
9016,18,Jits_Linear_8,0,5,63,98,1631969588
9016,18,Jits_Linear_8,1,5,80,127,1631990124
9016,18,Jits_Linear_8,2,5,56,103,1632000616
9016,18,Jits_Linear_8,3,1,48,39,1632114308
9016,18,Jits_Linear_8,0,5,63,98,1632579984
9016,18,Jits_Linear_8,1,5,80,127,1632583128
9016,18,Jits_Linear_8,2,5,56,103,1632619852
9016,18,Jits_Linear_8,3,1,48,38,1632660056
9016,18,Jits_Linear_8,0,1,48,39,1633185844
9016,18,Jits_Linear_8,1,5,63,98,1633259852
9016,18,Jits_Linear_8,2,5,80,127,1633289736
9016,18,Jits_Linear_8,3,5,56,103,1633299784
9016,18,Jits_Linear_8,0,5,56,103,1633820144
9016,18,Jits_Linear_8,1,1,48,40,1633841696
9016,18,Jits_Linear_8,2,5,80,127,1633849664
9016,18,Jits_Linear_8,3,5,63,98,1633880612
9016,18,Jits_Linear_8,0,1,48,36,1634441400
9016,18,Jits_Linear_8,1,5,63,98,1634520620
9016,18,Jits_Linear_8,2,5,56,103,1634560396
9016,18,Jits_Linear_8,3,5,80,127,1634563460
9016,18,Jits_Linear_8,0,5,80,127,1635020124
9016,18,Jits_Linear_8,1,5,56,103,1635099876
9016,18,Jits_Linear_8,2,1,48,39,1635119480
9016,18,Jits_Linear_8,3,5,63,98,1635150068
9016,18,Jits_Linear_8,0,5,80,127,1635599708
9016,18,Jits_Linear_8,1,5,56,103,1635620244
9016,18,Jits_Linear_8,2,5,63,98,1635710672
9016,18,Jits_Linear_8,3,1,48,31,1635723160
9016,18,Jits_Linear_8,0,5,80,127,1636239652
9016,18,Jits_Linear_8,1,5,63,98,1636279516
9016,18,Jits_Linear_8,2,1,48,38,1636285104
9016,18,Jits_Linear_8,3,5,56,103,1636319472
9016,18,Jits_Linear_8,0,5,63,98,1636810064
9016,18,Jits_Linear_8,1,5,80,127,1636869660
9016,18,Jits_Linear_8,2,1,48,36,1636896740
9016,18,Jits_Linear_8,3,5,56,103,1636900372
9016,18,Jits_Linear_8,0,5,56,103,1637410232
9016,18,Jits_Linear_8,1,5,80,127,1637439836
9016,18,Jits_Linear_8,2,1,48,38,1637499972
9016,18,Jits_Linear_8,3,5,63,98,1637529888
9016,18,Jits_Linear_8,0,5,56,103,1638010096
9016,18,Jits_Linear_8,1,1,48,31,1638100204
9016,18,Jits_Linear_8,2,5,80,127,1638119732
9016,18,Jits_Linear_8,3,5,63,98,1638149480
9016,18,Jits_Linear_8,0,5,56,103,1638650588
9016,18,Jits_Linear_8,1,1,48,30,1638704804
9016,18,Jits_Linear_8,2,5,63,98,1638709556
9016,18,Jits_Linear_8,3,5,80,127,1638740576
9016,18,Jits_Linear_8,0,5,56,103,1639219508
9016,18,Jits_Linear_8,1,5,63,98,1639290092
9016,18,Jits_Linear_8,2,5,80,127,1639309652
9016,18,Jits_Linear_8,3,1,48,38,1639334124
9016,18,Jits_Linear_8,0,5,80,127,1639779584
9016,18,Jits_Linear_8,1,5,63,98,1639800192
9016,18,Jits_Linear_8,2,5,56,103,1639850468
9016,18,Jits_Linear_8,3,1,48,34,1639916616
9016,18,Jits_Linear_8,0,5,63,98,1640379812
9016,18,Jits_Linear_8,1,5,80,127,1640390084
9016,18,Jits_Linear_8,2,5,56,103,1640440312
9016,18,Jits_Linear_8,3,1,48,27,1640500596
9016,18,Jits_Linear_8,0,5,63,98,1640960724
9016,18,Jits_Linear_8,1,1,48,32,1640986388
9016,18,Jits_Linear_8,2,5,80,127,1641030104
9016,18,Jits_Linear_8,3,5,56,103,1641049368
9016,18,Jits_Linear_8,0,5,63,98,1641569632
9016,18,Jits_Linear_8,1,1,48,36,1641571520
9016,18,Jits_Linear_8,2,5,80,127,1641573964
9016,18,Jits_Linear_8,3,5,56,103,1641640576
9016,18,Jits_Linear_8,0,5,80,127,1642100016
9016,18,Jits_Linear_8,1,5,56,103,1642119580
9016,18,Jits_Linear_8,2,5,63,98,1642129776
9016,18,Jits_Linear_8,3,1,48,38,1642181068
9016,18,Jits_Linear_8,0,5,56,103,1642700164
9016,18,Jits_Linear_8,1,1,48,34,1642720244
9016,18,Jits_Linear_8,2,5,63,98,1642790392
9016,18,Jits_Linear_8,3,5,80,127,1642793608
9016,18,Jits_Linear_8,0,5,80,127,1643249992
9016,18,Jits_Linear_8,1,5,56,103,1643260484
9016,18,Jits_Linear_8,2,5,63,98,1643279604
9016,18,Jits_Linear_8,3,1,48,37,1643321300
9016,18,Jits_Linear_8,0,5,63,98,1643820400
9016,18,Jits_Linear_8,1,5,80,127,1643879820
9016,18,Jits_Linear_8,2,5,56,103,1643890092
9016,18,Jits_Linear_8,3,1,48,32,1643894256
9016,18,Jits_Linear_8,0,1,48,39,1644436384
9016,18,Jits_Linear_8,1,5,63,98,1644460544
9016,18,Jits_Linear_8,2,5,80,127,1644490072
9016,18,Jits_Linear_8,3,5,56,103,1644529884
9016,18,Jits_Linear_8,0,5,56,103,1645019448
9016,18,Jits_Linear_8,1,5,80,127,1645029864
9016,18,Jits_Linear_8,2,1,48,37,1645065276
9016,18,Jits_Linear_8,3,5,63,98,1645069648
9016,18,Jits_Linear_8,0,5,80,127,1645549928
9016,18,Jits_Linear_8,1,1,48,27,1645603540
9016,18,Jits_Linear_8,2,5,56,103,1645629940
9016,18,Jits_Linear_8,3,5,63,98,1645639988
9016,18,Jits_Linear_8,0,5,80,127,1646160424
9016,18,Jits_Linear_8,1,1,48,32,1646188352
9016,18,Jits_Linear_8,2,5,56,103,1646240292
9016,18,Jits_Linear_8,3,5,63,98,1646250488
9016,18,Jits_Linear_8,0,5,80,127,1646680428
9016,18,Jits_Linear_8,1,5,56,103,1646729508
9016,18,Jits_Linear_8,2,1,48,31,1646780156
9016,18,Jits_Linear_8,3,5,63,98,1646781420
9016,18,Jits_Linear_8,0,5,56,103,1647299988
9016,18,Jits_Linear_8,1,5,63,98,1647302984
9016,18,Jits_Linear_8,2,1,48,30,1647320040
9016,18,Jits_Linear_8,3,5,80,127,1647349984
9016,18,Jits_Linear_8,0,1,48,30,1647859600
9016,18,Jits_Linear_8,1,5,56,103,1647879480
9016,18,Jits_Linear_8,2,5,63,98,1647910504
9016,18,Jits_Linear_8,3,5,80,127,1647919428
9016,18,Jits_Linear_8,0,5,63,98,1648359764
9016,18,Jits_Linear_8,1,1,48,34,1648394720
9016,18,Jits_Linear_8,2,5,56,103,1648429368
9016,18,Jits_Linear_8,3,5,80,127,1648479496
9016,18,Jits_Linear_8,0,5,63,98,1648949572
9016,18,Jits_Linear_8,1,1,48,29,1648960140
9016,18,Jits_Linear_8,2,5,56,103,1648961424
9016,18,Jits_Linear_8,3,5,80,127,1648963952
9016,18,Jits_Linear_8,0,5,80,127,1649450356
9016,18,Jits_Linear_8,1,5,56,103,1649509700
9016,18,Jits_Linear_8,2,1,48,32,1649521436
9016,18,Jits_Linear_8,3,5,63,98,1649599900
9016,18,Jits_Linear_8,0,5,80,127,1650000316
9016,18,Jits_Linear_8,1,5,56,103,1650099596
9016,18,Jits_Linear_8,2,1,48,30,1650132904
9016,18,Jits_Linear_8,3,5,63,98,1650139476
9016,18,Jits_Linear_8,0,5,56,103,1650600480
9016,18,Jits_Linear_8,1,5,63,98,1650619744
9016,18,Jits_Linear_8,2,5,80,127,1650659632
9016,18,Jits_Linear_8,3,1,48,28,1650695188
9016,18,Jits_Linear_8,0,5,63,98,1651119496
9016,18,Jits_Linear_8,1,5,56,103,1651140028
9016,18,Jits_Linear_8,2,1,48,29,1651183180
9016,18,Jits_Linear_8,3,5,80,127,1651240292
9016,18,Jits_Linear_8,0,5,63,98,1651649888
9016,18,Jits_Linear_8,1,1,48,34,1651707944
9016,18,Jits_Linear_8,2,5,80,127,1651759600
9016,18,Jits_Linear_8,3,5,56,103,1651790396
9016,18,Jits_Linear_8,0,5,56,103,1652210056
9016,18,Jits_Linear_8,1,5,63,98,1652239732
9016,18,Jits_Linear_8,2,1,48,36,1652282784
9016,18,Jits_Linear_8,3,5,80,127,1652289852
9016,18,Jits_Linear_8,0,5,63,98,1652719936
9016,18,Jits_Linear_8,1,5,56,103,1652749836
9016,18,Jits_Linear_8,2,5,80,127,1652799812
9016,18,Jits_Linear_8,3,1,48,32,1652808784
9016,18,Jits_Linear_8,0,5,56,103,1653290480
9016,18,Jits_Linear_8,1,5,63,98,1653309744
9016,18,Jits_Linear_8,2,1,48,35,1653333616
9016,18,Jits_Linear_8,3,5,80,127,1653389684
9016,18,Jits_Linear_8,0,5,63,98,1653800436
9016,18,Jits_Linear_8,1,5,56,103,1653859632
9016,18,Jits_Linear_8,2,1,48,29,1653876008
9016,18,Jits_Linear_8,3,5,80,127,1653890348
9016,18,Jits_Linear_8,0,5,56,103,1654379828
9016,18,Jits_Linear_8,1,1,48,27,1654403024
9016,18,Jits_Linear_8,2,5,80,127,1654440436
9016,18,Jits_Linear_8,3,5,63,98,1654480448
9016,18,Jits_Linear_8,0,5,63,98,1654889712
9016,18,Jits_Linear_8,1,5,56,103,1654950256
9016,18,Jits_Linear_8,2,1,48,23,1654997716
9016,18,Jits_Linear_8,3,5,80,127,1655019952
9016,18,Jits_Linear_8,0,5,56,103,1655500272
9016,18,Jits_Linear_8,1,1,48,28,1655502716
9016,18,Jits_Linear_8,2,5,63,98,1655510316
9016,18,Jits_Linear_8,3,5,80,127,1655513528
9016,18,Jits_Linear_8,0,5,63,98,1655970192
9016,18,Jits_Linear_8,1,5,56,103,1656029632
9016,18,Jits_Linear_8,2,5,80,127,1656032628
9016,18,Jits_Linear_8,3,1,48,28,1656061076
9016,18,Jits_Linear_8,0,5,63,98,1656480348
9016,18,Jits_Linear_8,1,5,80,127,1656509948
9016,18,Jits_Linear_8,2,5,56,103,1656530184
9016,18,Jits_Linear_8,3,1,48,27,1656589520
9016,18,Jits_Linear_8,0,5,56,103,1657009540
9016,18,Jits_Linear_8,1,1,48,30,1657055536
9016,18,Jits_Linear_8,2,5,63,98,1657059688
9016,18,Jits_Linear_8,3,5,80,127,1657139484
9016,18,Jits_Linear_8,0,5,80,127,1657510280
9016,18,Jits_Linear_8,1,5,63,98,1657550444
9016,18,Jits_Linear_8,2,5,56,103,1657569584
9016,18,Jits_Linear_8,3,1,48,32,1657622516
9016,18,Jits_Linear_8,0,5,56,103,1658100200
9016,18,Jits_Linear_8,1,5,80,127,1658110548
9016,18,Jits_Linear_8,2,5,63,98,1658129884
9016,18,Jits_Linear_8,3,1,48,37,1658156448
9016,18,Jits_Linear_8,0,5,56,103,1658599820
9016,18,Jits_Linear_8,1,1,48,37,1658650396
9016,18,Jits_Linear_8,2,5,63,98,1658651584
9016,18,Jits_Linear_8,3,5,80,127,1658679692
9016,18,Jits_Linear_8,0,5,56,103,1659069744
9016,18,Jits_Linear_8,1,5,63,98,1659080016
9016,18,Jits_Linear_8,2,5,80,127,1659130392
9016,18,Jits_Linear_8,3,1,48,38,1659206172
9016,18,Jits_Linear_8,0,5,56,103,1659579768
9016,18,Jits_Linear_8,1,5,80,127,1659582688
9016,18,Jits_Linear_8,2,1,48,31,1659656024
9016,18,Jits_Linear_8,3,5,63,98,1659739444
9016,18,Jits_Linear_8,0,5,63,98,1660110464
9016,18,Jits_Linear_8,1,5,56,103,1660179804
9016,18,Jits_Linear_8,2,5,80,127,1660219740
9016,18,Jits_Linear_8,3,1,48,35,1660234772
9016,18,Jits_Linear_8,0,5,63,98,1660660292
9016,18,Jits_Linear_8,1,1,48,37,1660747392
9016,18,Jits_Linear_8,2,5,56,103,1660750420
9016,18,Jits_Linear_8,3,5,80,127,1660753340
9016,18,Jits_Linear_8,0,5,56,103,1661149484
9016,18,Jits_Linear_8,1,5,63,98,1661239696
9016,18,Jits_Linear_8,2,5,80,127,1661249888
9016,18,Jits_Linear_8,3,1,48,34,1661276304
9016,18,Jits_Linear_8,0,5,56,103,1661640160
9016,18,Jits_Linear_8,1,5,63,98,1661690388
9016,18,Jits_Linear_8,2,5,80,127,1661719988
9016,18,Jits_Linear_8,3,1,48,38,1661781096
9016,18,Jits_Linear_8,0,5,63,98,1662219596
9016,18,Jits_Linear_8,1,5,80,127,1662229864
9016,18,Jits_Linear_8,2,5,56,103,1662290256
9016,18,Jits_Linear_8,3,1,48,32,1662302592
9016,18,Jits_Linear_8,0,5,63,98,1662639460
9016,18,Jits_Linear_8,1,5,80,127,1662699876
9016,18,Jits_Linear_8,2,5,56,103,1662739816
9016,18,Jits_Linear_8,3,1,48,32,1662816272
9016,18,Jits_Linear_8,0,5,56,103,1663239412
9016,18,Jits_Linear_8,1,5,80,127,1663260020
9016,18,Jits_Linear_8,2,1,48,29,1663278676
9016,18,Jits_Linear_8,3,5,63,98,1663280324
9016,18,Jits_Linear_8,0,5,63,98,1663660340
9016,18,Jits_Linear_8,1,5,56,103,1663679904
9016,18,Jits_Linear_8,2,5,80,127,1663719864
9016,18,Jits_Linear_8,3,1,48,36,1663771836
9016,18,Jits_Linear_8,0,5,63,98,1664179496
9016,18,Jits_Linear_8,1,5,80,127,1664210220
9016,18,Jits_Linear_8,2,5,56,103,1664229804
9016,18,Jits_Linear_8,3,1,48,25,1664283564
9016,18,Jits_Linear_8,0,5,80,127,1664649568
9016,18,Jits_Linear_8,1,5,56,103,1664699624
9016,18,Jits_Linear_8,2,1,48,28,1664750268
9016,18,Jits_Linear_8,3,5,63,98,1664760328
9016,18,Jits_Linear_8,0,5,63,98,1665129780
9016,18,Jits_Linear_8,1,1,48,23,1665225644
9016,18,Jits_Linear_8,2,5,56,103,1665249604
9016,18,Jits_Linear_8,3,5,80,127,1665280324
9016,18,Jits_Linear_8,0,5,80,127,1665660248
9016,18,Jits_Linear_8,1,5,63,98,1665679736
9016,18,Jits_Linear_8,2,1,48,32,1665734996
9016,18,Jits_Linear_8,3,5,56,103,1665750536
9016,18,Jits_Linear_8,0,5,63,98,1666170360
9016,18,Jits_Linear_8,1,5,56,103,1666179436
9016,18,Jits_Linear_8,2,1,48,29,1666212368
9016,18,Jits_Linear_8,3,5,80,127,1666260416
9016,18,Jits_Linear_8,0,5,56,103,1666720240
9016,18,Jits_Linear_8,1,1,48,33,1666723212
9016,18,Jits_Linear_8,2,5,80,127,1666749764
9016,18,Jits_Linear_8,3,5,63,98,1666760332
9016,18,Jits_Linear_8,0,9999,9999,9999,1556327524
9016,18,Jits_Linear_8,1,9999,9999,9999,1557147760
9016,18,Jits_Linear_8,2,9999,9999,9999,1557967992
9016,18,Jits_Linear_8,3,9999,9999,9999,1558787192
9016,18,Jits_Linear_8,4,9999,9999,9999,1559607396
9016,18,Jits_Linear_8,5,9999,9999,9999,1560417340
9016,18,Jits_Linear_8,6,9999,9999,9999,1561227356
9016,18,Jits_Linear_8,7,9999,9999,9999,1562037316
9016,18,Jits_Linear_8,8,9999,9999,9999,1562847300
9016,18,Jits_Linear_8,9,9999,9999,9999,1563657304
9016,18,Jits_Linear_8,10,9999,9999,9999,1564458052
9016,18,Jits_Linear_8,11,9999,9999,9999,1565257812
9016,18,Jits_Linear_8,12,9999,9999,9999,1566057588
9016,18,Jits_Linear_8,13,9999,9999,9999,1566857276
9016,18,Jits_Linear_8,14,9999,9999,9999,1567658064
9016,18,Jits_Linear_8,15,9999,9999,9999,1568447568
9016,18,Jits_Linear_8,16,9999,9999,9999,1569238092
9016,18,Jits_Linear_8,17,9999,9999,9999,1570037872
9016,18,Jits_Linear_8,18,9999,9999,9999,1570827368
9016,18,Jits_Linear_8,19,9999,9999,9999,1571617848
9016,18,Jits_Linear_8,20,9999,9999,9999,1572397148
9016,18,Jits_Linear_8,21,9999,9999,9999,1573177420
9016,18,Jits_Linear_8,22,9999,9999,9999,1573957704
9016,18,Jits_Linear_8,23,9999,9999,9999,1574737988
9016,18,Jits_Linear_8,24,9999,9999,9999,1575517288
9016,18,Jits_Linear_8,25,9999,9999,9999,1576287292
9016,18,Jits_Linear_8,26,9999,9999,9999,1577057380
9016,18,Jits_Linear_8,27,9999,9999,9999,1577827392
9016,18,Jits_Linear_8,28,9999,9999,9999,1578597488
9016,18,Jits_Linear_8,29,9999,9999,9999,1579367516
9016,18,Jits_Linear_8,30,9999,9999,9999,1580127336
9016,18,Jits_Linear_8,31,9999,9999,9999,1580887156
9016,18,Jits_Linear_8,32,9999,9999,9999,1581647964
9016,18,Jits_Linear_8,33,9999,9999,9999,1582407780
9016,18,Jits_Linear_8,34,9999,9999,9999,1583167544
9016,18,Jits_Linear_8,35,9999,9999,9999,1583917112
9016,18,Jits_Linear_8,36,9999,9999,9999,1584667724
9016,18,Jits_Linear_8,37,9999,9999,9999,1585417300
9016,18,Jits_Linear_8,38,9999,9999,9999,1586167916
9016,18,Jits_Linear_8,39,9999,9999,9999,1586917496
9016,18,Jits_Linear_8,40,9999,9999,9999,1587657820
9016,18,Jits_Linear_8,41,9999,9999,9999,1588397128
9016,18,Jits_Linear_8,42,9999,9999,9999,1589137464
9016,18,Jits_Linear_8,43,9999,9999,9999,1589877816
9016,18,Jits_Linear_8,44,9999,9999,9999,1590617172
9016,18,Jits_Linear_8,45,9999,9999,9999,1591347256
9016,18,Jits_Linear_8,46,9999,9999,9999,1592077412
9016,18,Jits_Linear_8,47,9999,9999,9999,1592807500
9016,18,Jits_Linear_8,48,9999,9999,9999,1593537644
9016,18,Jits_Linear_8,49,9999,9999,9999,1594267736
9016,18,Jits_Linear_8,50,9999,9999,9999,1594987624
9016,18,Jits_Linear_8,51,9999,9999,9999,1595707516
9016,18,Jits_Linear_8,52,9999,9999,9999,1596427336
9016,18,Jits_Linear_8,53,9999,9999,9999,1597147220
9016,18,Jits_Linear_8,54,9999,9999,9999,1597867120
9016,18,Jits_Linear_8,55,9999,9999,9999,1598577736
9016,18,Jits_Linear_8,56,9999,9999,9999,1599287356
9016,18,Jits_Linear_8,57,9999,9999,9999,1599998044
9016,18,Jits_Linear_8,58,9999,9999,9999,1600707648
9016,18,Jits_Linear_8,59,9999,9999,9999,1601417276
9016,18,Jits_Linear_8,60,9999,9999,9999,1602117696
9016,18,Jits_Linear_8,61,9999,9999,9999,1602817076
9016,18,Jits_Linear_8,62,9999,9999,9999,1603517524
9016,18,Jits_Linear_8,63,9999,9999,9999,1604217924
9016,18,Jits_Linear_8,64,9999,9999,9999,1604917308
9016,18,Jits_Linear_8,65,9999,9999,9999,1605607508
9016,18,Jits_Linear_8,66,9999,9999,9999,1606297728
9016,18,Jits_Linear_8,67,9999,9999,9999,1606987880
9016,18,Jits_Linear_8,68,9999,9999,9999,1607678024
9016,18,Jits_Linear_8,69,9999,9999,9999,1608367188
9016,18,Jits_Linear_8,70,9999,9999,9999,1609047156
9016,18,Jits_Linear_8,71,9999,9999,9999,1609728100
9016,18,Jits_Linear_8,72,9999,9999,9999,1610417248
9016,18,Jits_Linear_8,73,9999,9999,9999,1611097144
9016,18,Jits_Linear_8,74,9999,9999,9999,1611777128
9016,18,Jits_Linear_8,75,9999,9999,9999,1612447848
9016,18,Jits_Linear_8,76,9999,9999,9999,1613117552
9016,18,Jits_Linear_8,77,9999,9999,9999,1613787264
9016,18,Jits_Linear_8,78,9999,9999,9999,1614457916
9016,18,Jits_Linear_8,79,9999,9999,9999,1615127624
9016,18,Jits_Linear_8,80,9999,9999,9999,1615787124
9016,18,Jits_Linear_8,81,9999,9999,9999,1616447576
9016,18,Jits_Linear_8,82,9999,9999,9999,1617108028
9016,18,Jits_Linear_8,83,9999,9999,9999,1617767500
9016,18,Jits_Linear_8,84,9999,9999,9999,1618427988
9016,18,Jits_Linear_8,85,9999,9999,9999,1619077220
9016,18,Jits_Linear_8,86,9999,9999,9999,1619727436
9016,18,Jits_Linear_8,87,9999,9999,9999,1620377696
9016,18,Jits_Linear_8,88,9999,9999,9999,1621027908
9016,18,Jits_Linear_8,89,9999,9999,9999,1621677132
9016,18,Jits_Linear_8,90,9999,9999,9999,1622317168
9016,18,Jits_Linear_8,91,9999,9999,9999,1622957180
9016,18,Jits_Linear_8,92,9999,9999,9999,1623597124
9016,18,Jits_Linear_8,93,9999,9999,9999,1624237116
9016,18,Jits_Linear_8,94,9999,9999,9999,1624877144
9016,18,Jits_Linear_8,95,9999,9999,9999,1625507928
9016,18,Jits_Linear_8,96,9999,9999,9999,1626137708
9016,18,Jits_Linear_8,97,9999,9999,9999,1626767444
9016,18,Jits_Linear_8,98,9999,9999,9999,1627397228
9016,18,Jits_Linear_8,99,9999,9999,9999,1628028032
9016,18,Jits_Linear_8,100,9999,9999,9999,1628647532
9016,18,Jits_Linear_8,101,9999,9999,9999,1629268056
9016,18,Jits_Linear_8,102,9999,9999,9999,1629887612
9016,18,Jits_Linear_8,103,9999,9999,9999,1630507108
9016,18,Jits_Linear_8,104,9999,9999,9999,1631127644
9016,18,Jits_Linear_8,105,9999,9999,9999,1631737936
9016,18,Jits_Linear_8,106,9999,9999,9999,1632347216
9016,18,Jits_Linear_8,107,9999,9999,9999,1632957532
9016,18,Jits_Linear_8,108,9999,9999,9999,1633567816
9016,18,Jits_Linear_8,109,9999,9999,9999,1634177100
9016,18,Jits_Linear_8,110,9999,9999,9999,1634777164
9016,18,Jits_Linear_8,111,9999,9999,9999,1635377260
9016,18,Jits_Linear_8,112,9999,9999,9999,1635977340
9016,18,Jits_Linear_8,113,9999,9999,9999,1636577376
9016,18,Jits_Linear_8,114,9999,9999,9999,1637177460
9016,18,Jits_Linear_8,115,9999,9999,9999,1637767264
9016,18,Jits_Linear_8,116,9999,9999,9999,1638358140
9016,18,Jits_Linear_8,117,9999,9999,9999,1638957132
9016,18,Jits_Linear_8,118,9999,9999,9999,1639547996
9016,18,Jits_Linear_8,119,9999,9999,9999,1640137808
9016,18,Jits_Linear_8,120,9999,9999,9999,1640717388
9016,18,Jits_Linear_8,121,9999,9999,9999,1641297980
9016,18,Jits_Linear_8,122,9999,9999,9999,1641877584
9016,18,Jits_Linear_8,123,9999,9999,9999,1642457192
9016,18,Jits_Linear_8,124,9999,9999,9999,1643037808
9016,18,Jits_Linear_8,125,9999,9999,9999,1643607096
9016,18,Jits_Linear_8,126,9999,9999,9999,1644177508
9016,18,Jits_Linear_8,127,9999,9999,9999,1644747836
9016,18,Jits_Linear_8,128,9999,9999,9999,1645317216
9016,18,Jits_Linear_8,129,9999,9999,9999,1645887556
9016,18,Jits_Linear_8,130,9999,9999,9999,1646447716
9016,18,Jits_Linear_8,131,9999,9999,9999,1647007864
9016,18,Jits_Linear_8,132,9999,9999,9999,1647567936
9016,18,Jits_Linear_8,133,9999,9999,9999,1648128116
9016,18,Jits_Linear_8,134,9999,9999,9999,1648697468
9016,18,Jits_Linear_8,135,9999,9999,9999,1649247332
9016,18,Jits_Linear_8,136,9999,9999,9999,1649797204
9016,18,Jits_Linear_8,137,9999,9999,9999,1650347088
9016,18,Jits_Linear_8,138,9999,9999,9999,1650898024
9016,18,Jits_Linear_8,139,9999,9999,9999,1651447932
9016,18,Jits_Linear_8,140,9999,9999,9999,1651987548
9016,18,Jits_Linear_8,141,9999,9999,9999,1652527232
9016,18,Jits_Linear_8,142,9999,9999,9999,1653067900
9016,18,Jits_Linear_8,143,9999,9999,9999,1653607508
9016,18,Jits_Linear_8,144,9999,9999,9999,1654147128
9016,18,Jits_Linear_8,145,9999,9999,9999,1654677604
9016,18,Jits_Linear_8,146,9999,9999,9999,1655208012
9016,18,Jits_Linear_8,147,9999,9999,9999,1655737404
9016,18,Jits_Linear_8,148,9999,9999,9999,1656267880
9016,18,Jits_Linear_8,149,9999,9999,9999,1656797248
9016,18,Jits_Linear_8,150,9999,9999,9999,1657317456
9016,18,Jits_Linear_8,151,9999,9999,9999,1657837668
9016,18,Jits_Linear_8,152,9999,9999,9999,1658357816
9016,18,Jits_Linear_8,153,9999,9999,9999,1658878040
9016,18,Jits_Linear_8,154,9999,9999,9999,1659397208
9016,18,Jits_Linear_8,155,9999,9999,9999,1659907152
9016,18,Jits_Linear_8,156,9999,9999,9999,1660417112
9016,18,Jits_Linear_8,157,9999,9999,9999,1660928096
9016,18,Jits_Linear_8,158,9999,9999,9999,1661447260
9016,18,Jits_Linear_8,159,9999,9999,9999,1661957212
9016,18,Jits_Linear_8,160,9999,9999,9999,1662457956
9016,18,Jits_Linear_8,161,9999,9999,9999,1662957632
9016,18,Jits_Linear_8,162,9999,9999,9999,1663457396
9016,18,Jits_Linear_8,163,9999,9999,9999,1663958112
9016,18,Jits_Linear_8,164,9999,9999,9999,1664468052
9016,18,Jits_Linear_8,165,9999,9999,9999,1664957532
9016,18,Jits_Linear_8,166,9999,9999,9999,1665448008
9016,18,Jits_Linear_8,167,9999,9999,9999,1665937500
9016,18,Jits_Linear_8,168,9999,9999,9999,1666427976
9016,18,Jits_Linear_8,169,9999,9999,9999,1666917480
9017,19,Jits_Linear_5,0,5,56,103,1675901324
9017,19,Jits_Linear_5,1,5,63,98,1675904420
9017,19,Jits_Linear_5,2,5,80,127,1675907468
9017,19,Jits_Linear_5,0,5,56,103,1676380592
9017,19,Jits_Linear_5,1,5,63,98,1676383612
9017,19,Jits_Linear_5,2,5,80,127,1676386664
9017,19,Jits_Linear_5,0,5,56,103,1676860920
9017,19,Jits_Linear_5,1,5,80,127,1676871192
9017,19,Jits_Linear_5,2,5,63,98,1676890456
9017,19,Jits_Linear_5,0,5,63,98,1677301172
9017,19,Jits_Linear_5,1,5,80,127,1677330924
9017,19,Jits_Linear_5,2,5,56,103,1677341044
9017,19,Jits_Linear_5,3,1,48,42,1677342008
9017,19,Jits_Linear_5,0,1,48,35,1677783272
9017,19,Jits_Linear_5,1,5,80,127,1677840864
9017,19,Jits_Linear_5,2,5,56,103,1677851284
9017,19,Jits_Linear_5,3,5,63,98,1677880724
9017,19,Jits_Linear_5,0,5,63,98,1678321080
9017,19,Jits_Linear_5,1,5,56,103,1678350756
9017,19,Jits_Linear_5,2,5,80,127,1678361176
9017,19,Jits_Linear_5,3,1,48,45,1678380112
9017,19,Jits_Linear_5,0,5,56,103,1678761256
9017,19,Jits_Linear_5,1,5,63,98,1678810440
9017,19,Jits_Linear_5,2,1,48,42,1678823000
9017,19,Jits_Linear_5,3,5,80,127,1678831040
9017,19,Jits_Linear_5,0,5,80,127,1679250916
9017,19,Jits_Linear_5,1,1,48,46,1679282808
9017,19,Jits_Linear_5,2,5,63,98,1679301192
9017,19,Jits_Linear_5,3,5,56,103,1679340856
9017,19,Jits_Linear_5,0,5,56,103,1679741332
9017,19,Jits_Linear_5,1,1,48,43,1679768888
9017,19,Jits_Linear_5,2,5,63,98,1679771076
9017,19,Jits_Linear_5,3,5,80,127,1679840560
9017,19,Jits_Linear_5,0,5,56,103,1680230696
9017,19,Jits_Linear_5,1,5,80,127,1680291164
9017,19,Jits_Linear_5,2,1,48,40,1680299608
9017,19,Jits_Linear_5,3,5,63,98,1680321056
9017,19,Jits_Linear_5,0,5,56,103,1680730620
9017,19,Jits_Linear_5,1,5,63,98,1680740668
9017,19,Jits_Linear_5,2,5,80,127,1680780684
9017,19,Jits_Linear_5,3,1,48,42,1680783128
9017,19,Jits_Linear_5,0,1,48,44,1681204284
9017,19,Jits_Linear_5,1,5,63,98,1681220944
9017,19,Jits_Linear_5,2,5,80,127,1681301104
9017,19,Jits_Linear_5,3,5,56,103,1681311076
9017,19,Jits_Linear_5,0,1,48,39,1681736856
9017,19,Jits_Linear_5,1,5,63,98,1681771056
9017,19,Jits_Linear_5,2,5,56,103,1681811068
9017,19,Jits_Linear_5,3,5,80,127,1681814208
9017,19,Jits_Linear_5,0,5,56,103,1682230508
9017,19,Jits_Linear_5,1,5,63,98,1682241148
9017,19,Jits_Linear_5,2,1,48,32,1682266516
9017,19,Jits_Linear_5,3,5,80,127,1682280932
9017,19,Jits_Linear_5,0,5,56,103,1682721132
9017,19,Jits_Linear_5,1,5,63,98,1682724128
9017,19,Jits_Linear_5,2,1,48,32,1682740168
9017,19,Jits_Linear_5,3,5,80,127,1682741808
9017,19,Jits_Linear_5,0,1,48,35,1683202208
9017,19,Jits_Linear_5,1,5,80,127,1683241192
9017,19,Jits_Linear_5,2,5,56,103,1683250416
9017,19,Jits_Linear_5,3,5,63,98,1683321132
9017,19,Jits_Linear_5,0,1,48,41,1683734704
9017,19,Jits_Linear_5,1,5,63,98,1683741176
9017,19,Jits_Linear_5,2,5,56,103,1683760440
9017,19,Jits_Linear_5,3,5,80,127,1683841344
9017,19,Jits_Linear_5,0,5,56,103,1684261176
9017,19,Jits_Linear_5,1,1,48,37,1684283252
9017,19,Jits_Linear_5,2,5,80,127,1684301112
9017,19,Jits_Linear_5,3,5,63,98,1684311604
9017,19,Jits_Linear_5,0,5,80,127,1684760876
9017,19,Jits_Linear_5,1,1,48,33,1684778668
9017,19,Jits_Linear_5,2,5,63,98,1684790620
9017,19,Jits_Linear_5,3,5,56,103,1684830560
9017,19,Jits_Linear_5,0,1,48,38,1685283996
9017,19,Jits_Linear_5,1,5,56,103,1685291364
9017,19,Jits_Linear_5,2,5,63,98,1685320964
9017,19,Jits_Linear_5,3,5,80,127,1685371240
9017,19,Jits_Linear_5,0,5,80,127,1685801324
9017,19,Jits_Linear_5,1,1,48,37,1685809916
9017,19,Jits_Linear_5,2,5,56,103,1685841180
9017,19,Jits_Linear_5,3,5,63,98,1685850480
9017,19,Jits_Linear_5,0,5,80,127,1686301020
9017,19,Jits_Linear_5,1,1,48,31,1686319056
9017,19,Jits_Linear_5,2,5,63,98,1686340956
9017,19,Jits_Linear_5,3,5,56,103,1686401276
9017,19,Jits_Linear_5,0,5,56,103,1686821104
9017,19,Jits_Linear_5,1,5,80,127,1686830476
9017,19,Jits_Linear_5,2,1,48,29,1686833596
9017,19,Jits_Linear_5,3,5,63,98,1686911388
9017,19,Jits_Linear_5,0,5,80,127,1687341404
9017,19,Jits_Linear_5,1,1,48,37,1687347216
9017,19,Jits_Linear_5,2,5,63,98,1687400892
9017,19,Jits_Linear_5,3,5,56,103,1687430720
9017,19,Jits_Linear_5,0,5,56,103,1687860588
9017,19,Jits_Linear_5,1,1,48,41,1687886476
9017,19,Jits_Linear_5,2,5,80,127,1687920976
9017,19,Jits_Linear_5,3,5,63,98,1687960916
9017,19,Jits_Linear_5,0,1,48,30,1688421244
9017,19,Jits_Linear_5,1,5,56,103,1688441128
9017,19,Jits_Linear_5,2,5,63,98,1688450268
9017,19,Jits_Linear_5,3,5,80,127,1688453936
9017,19,Jits_Linear_5,0,5,80,127,1688920432
9017,19,Jits_Linear_5,1,1,48,38,1688921620
9017,19,Jits_Linear_5,2,5,63,98,1689010412
9017,19,Jits_Linear_5,3,5,56,103,1689020892
9017,19,Jits_Linear_5,0,5,56,103,1689451056
9017,19,Jits_Linear_5,1,5,63,98,1689454304
9017,19,Jits_Linear_5,2,5,80,127,1689457424
9017,19,Jits_Linear_5,3,1,48,34,1689488040
9017,19,Jits_Linear_5,0,1,48,29,1689963300
9017,19,Jits_Linear_5,1,5,80,127,1690001016
9017,19,Jits_Linear_5,2,5,63,98,1690051072
9017,19,Jits_Linear_5,3,5,56,103,1690080608
9017,19,Jits_Linear_5,0,5,56,103,1690510900
9017,19,Jits_Linear_5,1,5,80,127,1690521024
9017,19,Jits_Linear_5,2,1,48,33,1690543696
9017,19,Jits_Linear_5,3,5,63,98,1690590724
9017,19,Jits_Linear_5,0,1,48,37,1691036036
9017,19,Jits_Linear_5,1,5,56,103,1691051352
9017,19,Jits_Linear_5,2,5,63,98,1691071064
9017,19,Jits_Linear_5,3,5,80,127,1691131164
9017,19,Jits_Linear_5,0,1,48,38,1691580564
9017,19,Jits_Linear_5,1,5,80,127,1691581976
9017,19,Jits_Linear_5,2,5,63,98,1691650344
9017,19,Jits_Linear_5,3,5,56,103,1691670876
9017,19,Jits_Linear_5,0,5,80,127,1692141036
9017,19,Jits_Linear_5,1,5,56,103,1692151232
9017,19,Jits_Linear_5,2,1,48,36,1692156892
9017,19,Jits_Linear_5,3,5,63,98,1692161348
9017,19,Jits_Linear_5,0,5,80,127,1692671448
9017,19,Jits_Linear_5,1,1,48,36,1692687896
9017,19,Jits_Linear_5,2,5,56,103,1692691076
9017,19,Jits_Linear_5,3,5,63,98,1692760460
9017,19,Jits_Linear_5,0,5,56,103,1693221348
9017,19,Jits_Linear_5,1,5,80,127,1693251024
9017,19,Jits_Linear_5,2,5,63,98,1693271560
9017,19,Jits_Linear_5,3,1,48,35,1693273048
9017,19,Jits_Linear_5,0,1,48,39,1693748376
9017,19,Jits_Linear_5,1,5,63,98,1693761052
9017,19,Jits_Linear_5,2,5,56,103,1693821224
9017,19,Jits_Linear_5,3,5,80,127,1693851032
9017,19,Jits_Linear_5,0,1,48,40,1694294648
9017,19,Jits_Linear_5,1,5,63,98,1694300444
9017,19,Jits_Linear_5,2,5,80,127,1694303960
9017,19,Jits_Linear_5,3,5,56,103,1694390880
9017,19,Jits_Linear_5,0,5,56,103,1694871008
9017,19,Jits_Linear_5,1,1,48,28,1694878164
9017,19,Jits_Linear_5,2,5,63,98,1694900680
9017,19,Jits_Linear_5,3,5,80,127,1694940496
9017,19,Jits_Linear_5,0,5,63,98,1695420908
9017,19,Jits_Linear_5,1,1,48,27,1695450956
9017,19,Jits_Linear_5,2,5,56,103,1695460868
9017,19,Jits_Linear_5,3,5,80,127,1695481180
9017,19,Jits_Linear_5,0,1,48,28,1695943632
9017,19,Jits_Linear_5,1,5,63,98,1695981000
9017,19,Jits_Linear_5,2,5,56,103,1696020792
9017,19,Jits_Linear_5,3,5,80,127,1696030988
9017,19,Jits_Linear_5,0,5,80,127,1696511340
9017,19,Jits_Linear_5,1,1,48,38,1696536780
9017,19,Jits_Linear_5,2,5,63,98,1696580944
9017,19,Jits_Linear_5,3,5,56,103,1696600432
9017,19,Jits_Linear_5,0,5,56,103,1697061168
9017,19,Jits_Linear_5,1,5,80,127,1697080876
9017,19,Jits_Linear_5,2,5,63,98,1697120744
9017,19,Jits_Linear_5,3,1,48,37,1697129112
9017,19,Jits_Linear_5,0,1,48,39,1697601136
9017,19,Jits_Linear_5,1,5,63,98,1697630980
9017,19,Jits_Linear_5,2,5,80,127,1697651144
9017,19,Jits_Linear_5,3,5,56,103,1697691008
9017,19,Jits_Linear_5,0,1,48,34,1698173340
9017,19,Jits_Linear_5,1,5,63,98,1698190976
9017,19,Jits_Linear_5,2,5,56,103,1698211284
9017,19,Jits_Linear_5,3,5,80,127,1698221556
9017,19,Jits_Linear_5,0,1,48,39,1698730264
9017,19,Jits_Linear_5,1,5,80,127,1698750740
9017,19,Jits_Linear_5,2,5,56,103,1698771424
9017,19,Jits_Linear_5,3,5,63,98,1698800976
9017,19,Jits_Linear_5,0,1,48,36,1699304284
9017,19,Jits_Linear_5,1,5,56,103,1699390928
9017,19,Jits_Linear_5,2,5,80,127,1699394068
9017,19,Jits_Linear_5,3,5,63,98,1699411300
9017,19,Jits_Linear_5,0,5,63,98,1699881400
9017,19,Jits_Linear_5,1,1,48,29,1699901008
9017,19,Jits_Linear_5,2,5,56,103,1699910996
9017,19,Jits_Linear_5,3,5,80,127,1699970416
9017,19,Jits_Linear_5,0,1,48,32,1700443612
9017,19,Jits_Linear_5,1,5,63,98,1700530404
9017,19,Jits_Linear_5,2,5,56,103,1700540736
9017,19,Jits_Linear_5,3,5,80,127,1700551008
9017,19,Jits_Linear_5,0,5,56,103,1701050704
9017,19,Jits_Linear_5,1,5,80,127,1701080556
9017,19,Jits_Linear_5,2,1,48,36,1701087188
9017,19,Jits_Linear_5,3,5,63,98,1701091044
9017,19,Jits_Linear_5,0,1,48,29,1701643076
9017,19,Jits_Linear_5,1,5,63,98,1701671276
9017,19,Jits_Linear_5,2,5,56,103,1701680648
9017,19,Jits_Linear_5,3,5,80,127,1701700884
9017,19,Jits_Linear_5,0,5,56,103,1702171120
9017,19,Jits_Linear_5,1,5,63,98,1702231512
9017,19,Jits_Linear_5,2,5,80,127,1702234952
9017,19,Jits_Linear_5,3,1,48,31,1702237404
9017,19,Jits_Linear_5,0,5,80,127,1702771136
9017,19,Jits_Linear_5,1,5,56,103,1702781260
9017,19,Jits_Linear_5,2,1,48,27,1702793372
9017,19,Jits_Linear_5,3,5,63,98,1702851008
9017,19,Jits_Linear_5,0,5,80,127,1703341564
9017,19,Jits_Linear_5,1,5,56,103,1703411124
9017,19,Jits_Linear_5,2,5,63,98,1703421248
9017,19,Jits_Linear_5,3,1,48,27,1703431784
9017,19,Jits_Linear_5,0,5,63,98,1703960872
9017,19,Jits_Linear_5,1,5,56,103,1703971140
9017,19,Jits_Linear_5,2,5,80,127,1703990628
9017,19,Jits_Linear_5,3,1,48,27,1704019748
9017,19,Jits_Linear_5,0,5,80,127,1704491344
9017,19,Jits_Linear_5,1,5,63,98,1704550692
9017,19,Jits_Linear_5,2,1,48,32,1704582804
9017,19,Jits_Linear_5,3,5,56,103,1704590920
9017,19,Jits_Linear_5,0,5,56,103,1705121112
9017,19,Jits_Linear_5,1,5,63,98,1705131236
9017,19,Jits_Linear_5,2,1,48,35,1705138560
9017,19,Jits_Linear_5,3,5,80,127,1705171168
9017,19,Jits_Linear_5,0,5,56,103,1705671008
9017,19,Jits_Linear_5,1,1,48,40,1705699728
9017,19,Jits_Linear_5,2,5,80,127,1705701300
9017,19,Jits_Linear_5,3,5,63,98,1705750832
9017,19,Jits_Linear_5,0,1,48,40,1706284948
9017,19,Jits_Linear_5,1,5,56,103,1706300716
9017,19,Jits_Linear_5,2,5,63,98,1706341032
9017,19,Jits_Linear_5,3,5,80,127,1706344244
9017,19,Jits_Linear_5,0,1,48,30,1706860528
9017,19,Jits_Linear_5,1,5,56,103,1706890824
9017,19,Jits_Linear_5,2,5,63,98,1706900944
9017,19,Jits_Linear_5,3,5,80,127,1706921256
9017,19,Jits_Linear_5,0,1,48,32,1707440636
9017,19,Jits_Linear_5,1,5,56,103,1707441920
9017,19,Jits_Linear_5,2,5,80,127,1707444816
9017,19,Jits_Linear_5,3,5,63,98,1707480444
9017,19,Jits_Linear_5,0,1,48,31,1708015068
9017,19,Jits_Linear_5,1,5,63,98,1708071292
9017,19,Jits_Linear_5,2,5,56,103,1708100972
9017,19,Jits_Linear_5,3,5,80,127,1708120520
9017,19,Jits_Linear_5,0,1,48,32,1708617544
9017,19,Jits_Linear_5,1,5,80,127,1708640660
9017,19,Jits_Linear_5,2,5,56,103,1708651080
9017,19,Jits_Linear_5,3,5,63,98,1708661128
9017,19,Jits_Linear_5,0,1,48,30,1709216428
9017,19,Jits_Linear_5,1,5,56,103,1709240664
9017,19,Jits_Linear_5,2,5,80,127,1709280852
9017,19,Jits_Linear_5,3,5,63,98,1709311264
9017,19,Jits_Linear_5,0,5,63,98,1709850964
9017,19,Jits_Linear_5,1,5,80,127,1709861232
9017,19,Jits_Linear_5,2,5,56,103,1709870384
9017,19,Jits_Linear_5,3,1,48,29,1709873124
9017,19,Jits_Linear_5,0,1,48,32,1710425000
9017,19,Jits_Linear_5,1,5,56,103,1710430652
9017,19,Jits_Linear_5,2,5,63,98,1710501236
9017,19,Jits_Linear_5,3,5,80,127,1710510388
9017,19,Jits_Linear_5,0,5,80,127,1711041080
9017,19,Jits_Linear_5,1,5,56,103,1711051056
9017,19,Jits_Linear_5,2,1,48,37,1711055972
9017,19,Jits_Linear_5,3,5,63,98,1711101276
9017,19,Jits_Linear_5,0,1,48,38,1711638924
9017,19,Jits_Linear_5,1,5,80,127,1711661496
9017,19,Jits_Linear_5,2,5,56,103,1711720768
9017,19,Jits_Linear_5,3,5,63,98,1711750652
9017,19,Jits_Linear_5,0,5,56,103,1712270652
9017,19,Jits_Linear_5,1,5,80,127,1712273792
9017,19,Jits_Linear_5,2,5,63,98,1712310664
9017,19,Jits_Linear_5,3,1,48,34,1712316400
9017,19,Jits_Linear_5,0,1,48,35,1712886152
9017,19,Jits_Linear_5,1,5,56,103,1712910836
9017,19,Jits_Linear_5,2,5,63,98,1712941416
9017,19,Jits_Linear_5,3,5,80,127,1712950788
9017,19,Jits_Linear_5,0,1,48,30,1713466980
9017,19,Jits_Linear_5,1,5,63,98,1713531152
9017,19,Jits_Linear_5,2,5,80,127,1713540672
9017,19,Jits_Linear_5,3,5,56,103,1713550648
9017,19,Jits_Linear_5,0,5,80,127,1714091304
9017,19,Jits_Linear_5,1,1,48,31,1714108968
9017,19,Jits_Linear_5,2,5,56,103,1714140628
9017,19,Jits_Linear_5,3,5,63,98,1714143620
9017,19,Jits_Linear_5,0,1,48,35,1714739584
9017,19,Jits_Linear_5,1,5,56,103,1714741008
9017,19,Jits_Linear_5,2,5,80,127,1714761168
9017,19,Jits_Linear_5,3,5,63,98,1714771292
9017,19,Jits_Linear_5,0,5,63,98,1715340796
9017,19,Jits_Linear_5,1,1,48,32,1715369700
9017,19,Jits_Linear_5,2,5,56,103,1715371588
9017,19,Jits_Linear_5,3,5,80,127,1715390704
9017,19,Jits_Linear_5,0,1,48,24,1715937784
9017,19,Jits_Linear_5,1,5,56,103,1715970712
9017,19,Jits_Linear_5,2,5,80,127,1715980760
9017,19,Jits_Linear_5,3,5,63,98,1716051176
9017,19,Jits_Linear_5,0,5,63,98,1716580616
9017,19,Jits_Linear_5,1,5,80,127,1716620704
9017,19,Jits_Linear_5,2,1,48,32,1716636708
9017,19,Jits_Linear_5,3,5,56,103,1716660712
9017,19,Jits_Linear_5,0,1,48,38,1717218912
9017,19,Jits_Linear_5,1,5,56,103,1717220648
9017,19,Jits_Linear_5,2,5,63,98,1717230920
9017,19,Jits_Linear_5,3,5,80,127,1717250556
9017,19,Jits_Linear_5,0,1,48,35,1717826612
9017,19,Jits_Linear_5,1,5,63,98,1717890552
9017,19,Jits_Linear_5,2,5,80,127,1717910868
9017,19,Jits_Linear_5,3,5,56,103,1717931236
9017,19,Jits_Linear_5,0,5,56,103,1718460896
9017,19,Jits_Linear_5,1,1,48,38,1718488476
9017,19,Jits_Linear_5,2,5,80,127,1718540868
9017,19,Jits_Linear_5,3,5,63,98,1718550840
9017,19,Jits_Linear_5,0,1,48,37,1719126612
9017,19,Jits_Linear_5,1,5,80,127,1719130620
9017,19,Jits_Linear_5,2,5,63,98,1719140744
9017,19,Jits_Linear_5,3,5,56,103,1719170344
9017,19,Jits_Linear_5,0,5,63,98,1719721416
9017,19,Jits_Linear_5,1,1,48,37,1719756152
9017,19,Jits_Linear_5,2,5,80,127,1719761200
9017,19,Jits_Linear_5,3,5,56,103,1719820648
9017,19,Jits_Linear_5,0,5,63,98,1720361532
9017,19,Jits_Linear_5,1,1,48,35,1720389012
9017,19,Jits_Linear_5,2,5,56,103,1720410760
9017,19,Jits_Linear_5,3,5,80,127,1720441256
9017,19,Jits_Linear_5,0,1,48,33,1720984424
9017,19,Jits_Linear_5,1,5,80,127,1721010604
9017,19,Jits_Linear_5,2,5,63,98,1721020876
9017,19,Jits_Linear_5,3,5,56,103,1721090496
9017,19,Jits_Linear_5,0,1,48,30,1721684700
9017,19,Jits_Linear_5,1,5,80,127,1721721072
9017,19,Jits_Linear_5,2,5,56,103,1721730668
9017,19,Jits_Linear_5,3,5,63,98,1721733732
9017,19,Jits_Linear_5,0,5,56,103,1722300772
9017,19,Jits_Linear_5,1,5,80,127,1722321528
9017,19,Jits_Linear_5,2,1,48,28,1722327664
9017,19,Jits_Linear_5,3,5,63,98,1722330620
9017,19,Jits_Linear_5,0,1,48,35,1722918080
9017,19,Jits_Linear_5,1,5,63,98,1722951008
9017,19,Jits_Linear_5,2,5,56,103,1722990948
9017,19,Jits_Linear_5,3,5,80,127,1723010436
9017,19,Jits_Linear_5,0,1,48,29,1723563128
9017,19,Jits_Linear_5,1,5,63,98,1723601216
9017,19,Jits_Linear_5,2,5,56,103,1723660720
9017,19,Jits_Linear_5,3,5,80,127,1723663712
9017,19,Jits_Linear_5,0,5,56,103,1724210536
9017,19,Jits_Linear_5,1,5,80,127,1724230924
9017,19,Jits_Linear_5,2,1,48,36,1724234488
9017,19,Jits_Linear_5,3,5,63,98,1724270856
9017,19,Jits_Linear_5,0,1,48,36,1724874572
9017,19,Jits_Linear_5,1,5,56,103,1724890440
9017,19,Jits_Linear_5,2,5,63,98,1724910900
9017,19,Jits_Linear_5,3,5,80,127,1724921172
9017,19,Jits_Linear_5,0,5,80,127,1725511128
9017,19,Jits_Linear_5,1,1,48,26,1725516784
9017,19,Jits_Linear_5,2,5,56,103,1725540724
9017,19,Jits_Linear_5,3,5,63,98,1725580660
9017,19,Jits_Linear_5,0,1,48,24,1726118440
9017,19,Jits_Linear_5,1,5,80,127,1726170724
9017,19,Jits_Linear_5,2,5,56,103,1726190960
9017,19,Jits_Linear_5,3,5,63,98,1726251412
9017,19,Jits_Linear_5,0,1,48,27,1726826888
9017,19,Jits_Linear_5,1,5,56,103,1726830896
9017,19,Jits_Linear_5,2,5,80,127,1726850532
9017,19,Jits_Linear_5,3,5,63,98,1726910772
9017,19,Jits_Linear_5,0,5,80,127,1727470864
9017,19,Jits_Linear_5,1,5,56,103,1727481060
9017,19,Jits_Linear_5,2,1,48,31,1727504408
9017,19,Jits_Linear_5,3,5,63,98,1727521140
9017,19,Jits_Linear_5,0,1,48,39,1728128244
9017,19,Jits_Linear_5,1,5,63,98,1728130660
9017,19,Jits_Linear_5,2,5,56,103,1728171568
9017,19,Jits_Linear_5,3,5,80,127,1728174560
9017,19,Jits_Linear_5,0,1,48,38,1728751776
9017,19,Jits_Linear_5,1,5,63,98,1728811584
9017,19,Jits_Linear_5,2,5,80,127,1728851288
9017,19,Jits_Linear_5,3,5,56,103,1728881112
9017,19,Jits_Linear_5,0,1,48,35,1729449260
9017,19,Jits_Linear_5,1,5,56,103,1729460520
9017,19,Jits_Linear_5,2,5,63,98,1729470864
9017,19,Jits_Linear_5,3,5,80,127,1729500640
9017,19,Jits_Linear_5,0,1,48,35,1730059768
9017,19,Jits_Linear_5,1,5,80,127,1730121156
9017,19,Jits_Linear_5,2,5,63,98,1730190752
9017,19,Jits_Linear_5,3,5,56,103,1730201024
9017,19,Jits_Linear_5,0,1,48,40,1730785212
9017,19,Jits_Linear_5,1,5,63,98,1730790640
9017,19,Jits_Linear_5,2,5,56,103,1730861596
9017,19,Jits_Linear_5,3,5,80,127,1730870672
9017,19,Jits_Linear_5,0,1,48,35,1731434744
9017,19,Jits_Linear_5,1,5,63,98,1731460548
9017,19,Jits_Linear_5,2,5,56,103,1731480936
9017,19,Jits_Linear_5,3,5,80,127,1731520948
9017,19,Jits_Linear_5,0,1,48,35,1732139980
9017,19,Jits_Linear_5,1,5,56,103,1732141564
9017,19,Jits_Linear_5,2,5,63,98,1732150640
9017,19,Jits_Linear_5,3,5,80,127,1732230512
9017,19,Jits_Linear_5,0,1,48,35,1732788204
9017,19,Jits_Linear_5,1,5,63,98,1732800832
9017,19,Jits_Linear_5,2,5,56,103,1732830460
9017,19,Jits_Linear_5,3,5,80,127,1732870620
9017,19,Jits_Linear_5,0,1,48,35,1733428932
9017,19,Jits_Linear_5,1,5,56,103,1733470540
9017,19,Jits_Linear_5,2,5,63,98,1733510704
9017,19,Jits_Linear_5,3,5,80,127,1733550404
9017,19,Jits_Linear_5,0,1,48,32,1734116080
9017,19,Jits_Linear_5,1,5,80,127,1734150432
9017,19,Jits_Linear_5,2,5,56,103,1734231412
9017,19,Jits_Linear_5,3,5,63,98,1734240564
9017,19,Jits_Linear_5,0,1,48,40,1734871616
9017,19,Jits_Linear_5,1,5,56,103,1734873204
9017,19,Jits_Linear_5,2,5,63,98,1734875796
9017,19,Jits_Linear_5,3,5,80,127,1734880608
9017,19,Jits_Linear_5,0,1,48,33,1735542084
9017,19,Jits_Linear_5,1,5,56,103,1735570880
9017,19,Jits_Linear_5,2,5,63,98,1735591564
9017,19,Jits_Linear_5,3,5,80,127,1735600488
9017,19,Jits_Linear_5,0,5,63,98,1736210776
9017,19,Jits_Linear_5,1,5,80,127,1736221120
9017,19,Jits_Linear_5,2,5,56,103,1736240388
9017,19,Jits_Linear_5,3,1,48,40,1736245448
9017,19,Jits_Linear_5,0,1,48,37,1736848512
9017,19,Jits_Linear_5,1,5,63,98,1736900904
9017,19,Jits_Linear_5,2,5,56,103,1736980788
9017,19,Jits_Linear_5,3,5,80,127,1736984004
9017,19,Jits_Linear_5,0,1,48,34,1737567572
9017,19,Jits_Linear_5,1,5,63,98,1737591504
9017,19,Jits_Linear_5,2,5,56,103,1737610548
9017,19,Jits_Linear_5,3,5,80,127,1737641268
9017,19,Jits_Linear_5,0,1,48,37,1738242904
9017,19,Jits_Linear_5,1,5,56,103,1738281516
9017,19,Jits_Linear_5,2,5,63,98,1738300856
9017,19,Jits_Linear_5,3,5,80,127,1738311128
9017,19,Jits_Linear_5,0,1,48,37,1738957676
9017,19,Jits_Linear_5,1,5,56,103,1739001344
9017,19,Jits_Linear_5,2,5,63,98,1739030872
9017,19,Jits_Linear_5,3,5,80,127,1739034460
9017,19,Jits_Linear_5,0,5,56,103,1739641284
9017,19,Jits_Linear_5,1,1,48,36,1739668440
9017,19,Jits_Linear_5,2,5,63,98,1739681292
9017,19,Jits_Linear_5,3,5,80,127,1739740512
9017,19,Jits_Linear_5,0,1,48,33,1740326772
9017,19,Jits_Linear_5,1,5,56,103,1740350784
9017,19,Jits_Linear_5,2,5,63,98,1740360980
9017,19,Jits_Linear_5,3,5,80,127,1740420328
9017,19,Jits_Linear_5,0,1,48,41,1741038752
9017,19,Jits_Linear_5,1,5,56,103,1741051656
9017,19,Jits_Linear_5,2,5,80,127,1741070696
9017,19,Jits_Linear_5,3,5,63,98,1741101492
9017,19,Jits_Linear_5,0,1,48,40,1741739372
9017,19,Jits_Linear_5,1,5,80,127,1741750708
9017,19,Jits_Linear_5,2,5,56,103,1741760828
9017,19,Jits_Linear_5,3,5,63,98,1741781512
9017,19,Jits_Linear_5,0,1,48,39,1742417204
9017,19,Jits_Linear_5,1,5,63,98,1742440764
9017,19,Jits_Linear_5,2,5,80,127,1742520624
9017,19,Jits_Linear_5,3,5,56,103,1742530896
9017,19,Jits_Linear_5,0,1,48,38,1743175024
9017,19,Jits_Linear_5,1,5,80,127,1743200680
9017,19,Jits_Linear_5,2,5,56,103,1743221516
9017,19,Jits_Linear_5,3,5,63,98,1743224356
9017,19,Jits_Linear_5,0,1,48,37,1743876792
9017,19,Jits_Linear_5,1,5,63,98,1743880496
9017,19,Jits_Linear_5,2,5,80,127,1743883788
9017,19,Jits_Linear_5,3,5,56,103,1743941112
9017,19,Jits_Linear_5,0,5,56,103,1744570708
9017,19,Jits_Linear_5,1,5,80,127,1744580828
9017,19,Jits_Linear_5,2,5,63,98,1744620792
9017,19,Jits_Linear_5,3,1,48,37,1744628620
9017,19,Jits_Linear_5,0,1,48,31,1745221584
9017,19,Jits_Linear_5,1,5,56,103,1745261020
9017,19,Jits_Linear_5,2,5,63,98,1745321476
9017,19,Jits_Linear_5,3,5,80,127,1745330624
9017,19,Jits_Linear_5,0,1,48,37,1745977220
9017,19,Jits_Linear_5,1,5,63,98,1745980852
9017,19,Jits_Linear_5,2,5,80,127,1746020792
9017,19,Jits_Linear_5,3,5,56,103,1746060508
9017,19,Jits_Linear_5,0,1,48,41,1746667752
9017,19,Jits_Linear_5,1,5,56,103,1746690344
9017,19,Jits_Linear_5,2,5,63,98,1746771320
9017,19,Jits_Linear_5,3,5,80,127,1746774536
9017,19,Jits_Linear_5,0,5,80,127,1747460448
9017,19,Jits_Linear_5,1,1,48,40,1747465588
9017,19,Jits_Linear_5,2,5,56,103,1747491616
9017,19,Jits_Linear_5,3,5,63,98,1747494528
9017,19,Jits_Linear_5,0,5,56,103,1748141524
9017,19,Jits_Linear_5,1,5,80,127,1748160860
9017,19,Jits_Linear_5,2,1,48,38,1748183336
9017,19,Jits_Linear_5,3,5,63,98,1748200744
9017,19,Jits_Linear_5,0,5,80,127,1748840688
9017,19,Jits_Linear_5,1,1,48,40,1748854444
9017,19,Jits_Linear_5,2,5,63,98,1748861440
9017,19,Jits_Linear_5,3,5,56,103,1748920712
9017,19,Jits_Linear_5,0,1,48,31,1749510524
9017,19,Jits_Linear_5,1,5,63,98,1749570788
9017,19,Jits_Linear_5,2,5,56,103,1749581356
9017,19,Jits_Linear_5,3,5,80,127,1749631468
9017,19,Jits_Linear_5,0,1,48,32,1750231472
9017,19,Jits_Linear_5,1,5,56,103,1750280576
9017,19,Jits_Linear_5,2,5,63,98,1750301256
9017,19,Jits_Linear_5,3,5,80,127,1750311452
9017,19,Jits_Linear_5,0,1,48,26,1750943700
9017,19,Jits_Linear_5,1,5,56,103,1751000400
9017,19,Jits_Linear_5,2,5,63,98,1751003544
9017,19,Jits_Linear_5,3,5,80,127,1751020784
9017,19,Jits_Linear_5,0,1,48,27,1751660904
9017,19,Jits_Linear_5,1,5,63,98,1751770404
9017,19,Jits_Linear_5,2,5,56,103,1751801572
9017,19,Jits_Linear_5,3,5,80,127,1751830804
9017,19,Jits_Linear_5,0,5,80,127,1752460712
9017,19,Jits_Linear_5,1,1,48,29,1752496040
9017,19,Jits_Linear_5,2,5,56,103,1752550788
9017,19,Jits_Linear_5,3,5,63,98,1752554080
9017,19,Jits_Linear_5,0,5,56,103,1753190652
9017,19,Jits_Linear_5,1,5,80,127,1753193724
9017,19,Jits_Linear_5,2,1,48,31,1753224940
9017,19,Jits_Linear_5,3,5,63,98,1753270524
9017,19,Jits_Linear_5,0,1,48,29,1753877704
9017,19,Jits_Linear_5,1,5,80,127,1753921048
9017,19,Jits_Linear_5,2,5,63,98,1753981280
9017,19,Jits_Linear_5,3,5,56,103,1754011176
9017,19,Jits_Linear_5,0,5,63,98,1754651076
9017,19,Jits_Linear_5,1,1,48,32,1754652412
9017,19,Jits_Linear_5,2,5,80,127,1754661192
9017,19,Jits_Linear_5,3,5,56,103,1754730724
9017,19,Jits_Linear_5,0,1,48,29,1755361952
9017,19,Jits_Linear_5,1,5,56,103,1755400416
9017,19,Jits_Linear_5,2,5,80,127,1755431364
9017,19,Jits_Linear_5,3,5,63,98,1755480356
9017,19,Jits_Linear_5,0,1,48,32,1756149368
9017,19,Jits_Linear_5,1,5,63,98,1756181228
9017,19,Jits_Linear_5,2,5,56,103,1756210680
9017,19,Jits_Linear_5,3,5,80,127,1756213672
9017,19,Jits_Linear_5,0,1,48,29,1756812740
9017,19,Jits_Linear_5,1,5,63,98,1756921268
9017,19,Jits_Linear_5,2,5,80,127,1756940608
9017,19,Jits_Linear_5,3,5,56,103,1756950880
9017,19,Jits_Linear_5,0,1,48,37,1757639872
9017,19,Jits_Linear_5,1,5,56,103,1757670628
9017,19,Jits_Linear_5,2,5,63,98,1757673700
9017,19,Jits_Linear_5,3,5,80,127,1757691392
9017,19,Jits_Linear_5,0,5,56,103,1758371256
9017,19,Jits_Linear_5,1,5,63,98,1758381304
9017,19,Jits_Linear_5,2,1,48,39,1758390268
9017,19,Jits_Linear_5,3,5,80,127,1758411200
9017,19,Jits_Linear_5,0,1,48,36,1759080952
9017,19,Jits_Linear_5,1,5,63,98,1759141364
9017,19,Jits_Linear_5,2,5,80,127,1759160780
9017,19,Jits_Linear_5,3,5,56,103,1759200580
9017,19,Jits_Linear_5,0,1,48,37,1759899236
9017,19,Jits_Linear_5,1,5,56,103,1759920464
9017,19,Jits_Linear_5,2,5,63,98,1759960504
9017,19,Jits_Linear_5,3,5,80,127,1759963716
9017,19,Jits_Linear_5,0,5,80,127,1760610848
9017,19,Jits_Linear_5,1,5,56,103,1760650788
9017,19,Jits_Linear_5,2,1,48,38,1760675704
9017,19,Jits_Linear_5,3,5,63,98,1760701280
9017,19,Jits_Linear_5,0,1,48,35,1761356648
9017,19,Jits_Linear_5,1,5,56,103,1761420672
9017,19,Jits_Linear_5,2,5,80,127,1761431092
9017,19,Jits_Linear_5,3,5,63,98,1761460604
9017,19,Jits_Linear_5,0,5,56,103,1762121104
9017,19,Jits_Linear_5,1,5,80,127,1762161044
9017,19,Jits_Linear_5,2,1,48,36,1762163564
9017,19,Jits_Linear_5,3,5,63,98,1762211092
9017,19,Jits_Linear_5,0,1,48,35,1762855368
9017,19,Jits_Linear_5,1,5,56,103,1762881096
9017,19,Jits_Linear_5,2,5,80,127,1762920964
9017,19,Jits_Linear_5,3,5,63,98,1762971004
9017,19,Jits_Linear_5,0,1,48,40,1763630304
9017,19,Jits_Linear_5,1,5,80,127,1763631716
9017,19,Jits_Linear_5,2,5,63,98,1763711292
9017,19,Jits_Linear_5,3,5,56,103,1763720592
9017,19,Jits_Linear_5,0,1,48,38,1764394748
9017,19,Jits_Linear_5,1,5,80,127,1764440488
9017,19,Jits_Linear_5,2,5,56,103,1764450608
9017,19,Jits_Linear_5,3,5,63,98,1764471216
9017,19,Jits_Linear_5,0,5,63,98,1765170660
9017,19,Jits_Linear_5,1,1,48,42,1765181124
9017,19,Jits_Linear_5,2,5,56,103,1765241080
9017,19,Jits_Linear_5,3,5,80,127,1765244228
9017,19,Jits_Linear_5,0,1,48,37,1765930104
9017,19,Jits_Linear_5,1,5,80,127,1765931600
9017,19,Jits_Linear_5,2,5,63,98,1765980612
9017,19,Jits_Linear_5,3,5,56,103,1766020400
9017,19,Jits_Linear_5,0,1,48,37,1766725944
9017,19,Jits_Linear_5,1,5,63,98,1766741408
9017,19,Jits_Linear_5,2,5,56,103,1766781272
9017,19,Jits_Linear_5,3,5,80,127,1766790496
9017,19,Jits_Linear_5,0,5,63,98,1767501100
9017,19,Jits_Linear_5,1,1,48,35,1767508184
9017,19,Jits_Linear_5,2,5,56,103,1767520584
9017,19,Jits_Linear_5,3,5,80,127,1767541116
9017,19,Jits_Linear_5,0,5,80,127,1768231336
9017,19,Jits_Linear_5,1,5,56,103,1768240488
9017,19,Jits_Linear_5,2,5,63,98,1768261168
9017,19,Jits_Linear_5,3,1,48,31,1768268028
9017,19,Jits_Linear_5,0,1,48,29,1768951440
9017,19,Jits_Linear_5,1,5,63,98,1769031260
9017,19,Jits_Linear_5,2,5,56,103,1769071260
9017,19,Jits_Linear_5,3,5,80,127,1769100640
9017,19,Jits_Linear_5,0,1,48,30,1769784252
9017,19,Jits_Linear_5,1,5,56,103,1769811184
9017,19,Jits_Linear_5,2,5,63,98,1769841236
9017,19,Jits_Linear_5,3,5,80,127,1769870836
9017,19,Jits_Linear_5,0,5,80,127,1770560840
9017,19,Jits_Linear_5,1,1,48,35,1770567996
9017,19,Jits_Linear_5,2,5,56,103,1770630592
9017,19,Jits_Linear_5,3,5,63,98,1770633656
9017,19,Jits_Linear_5,0,5,56,103,1771351396
9017,19,Jits_Linear_5,1,1,48,30,1771356084
9017,19,Jits_Linear_5,2,5,63,98,1771400548
9017,19,Jits_Linear_5,3,5,80,127,1771431272
9017,19,Jits_Linear_5,0,5,63,98,1772111176
9017,19,Jits_Linear_5,1,5,80,127,1772114464
9017,19,Jits_Linear_5,2,1,48,28,1772133848
9017,19,Jits_Linear_5,3,5,56,103,1772170736
9017,19,Jits_Linear_5,0,1,48,36,1772895608
9017,19,Jits_Linear_5,1,5,56,103,1772921116
9017,19,Jits_Linear_5,2,5,80,127,1772930416
9017,19,Jits_Linear_5,3,5,63,98,1772980544
9017,19,Jits_Linear_5,0,5,63,98,1773681032
9017,19,Jits_Linear_5,1,5,56,103,1773691228
9017,19,Jits_Linear_5,2,1,48,38,1773695024
9017,19,Jits_Linear_5,3,5,80,127,1773721196
9017,19,Jits_Linear_5,0,1,48,38,1774454164
9017,19,Jits_Linear_5,1,5,63,98,1774501244
9017,19,Jits_Linear_5,2,5,80,127,1774504460
9017,19,Jits_Linear_5,3,5,56,103,1774531144
9017,19,Jits_Linear_5,0,1,48,37,1775271680
9017,19,Jits_Linear_5,1,5,63,98,1775311196
9017,19,Jits_Linear_5,2,5,56,103,1775330704
9017,19,Jits_Linear_5,3,5,80,127,1775333920
9017,19,Jits_Linear_5,0,5,63,98,1776060916
9017,19,Jits_Linear_5,1,1,48,38,1776072128
9017,19,Jits_Linear_5,2,5,56,103,1776130324
9017,19,Jits_Linear_5,3,5,80,127,1776151152
9017,19,Jits_Linear_5,0,5,56,103,1776841056
9017,19,Jits_Linear_5,1,5,63,98,1776851252
9017,19,Jits_Linear_5,2,1,48,42,1776861144
9017,19,Jits_Linear_5,3,5,80,127,1776941332
9017,19,Jits_Linear_5,0,5,56,103,1777650984
9017,19,Jits_Linear_5,1,1,48,43,1777685116
9017,19,Jits_Linear_5,2,5,80,127,1777690992
9017,19,Jits_Linear_5,3,5,63,98,1777701336
9017,19,Jits_Linear_5,0,1,48,40,1778466988
9017,19,Jits_Linear_5,1,5,56,103,1778471216
9017,19,Jits_Linear_5,2,5,63,98,1778501040
9017,19,Jits_Linear_5,3,5,80,127,1778531088
9017,19,Jits_Linear_5,0,5,80,127,1779231060
9017,19,Jits_Linear_5,1,5,63,98,1779271000
9017,19,Jits_Linear_5,2,5,56,103,1779290412
9017,19,Jits_Linear_5,3,1,48,37,1779301476
9017,19,Jits_Linear_5,0,5,56,103,1780070776
9017,19,Jits_Linear_5,1,5,80,127,1780091312
9017,19,Jits_Linear_5,2,5,63,98,1780110872
9017,19,Jits_Linear_5,3,1,48,23,1780325048
9017,19,Jits_Linear_5,0,5,63,98,1780841040
9017,19,Jits_Linear_5,1,5,56,103,1780851012
9017,19,Jits_Linear_5,2,1,48,34,1780898324
9017,19,Jits_Linear_5,3,5,80,127,1780910352
9017,19,Jits_Linear_5,0,1,48,31,1781579416
9017,19,Jits_Linear_5,1,5,56,103,1781650844
9017,19,Jits_Linear_5,2,5,63,98,1781720316
9017,19,Jits_Linear_5,3,5,80,127,1781740924
9017,19,Jits_Linear_5,0,5,56,103,1782460960
9017,19,Jits_Linear_5,1,1,48,37,1782469932
9017,19,Jits_Linear_5,2,5,63,98,1782490432
9017,19,Jits_Linear_5,3,5,80,127,1782530448
9017,19,Jits_Linear_5,0,5,63,98,1783260472
9017,19,Jits_Linear_5,1,5,56,103,1783310824
9017,19,Jits_Linear_5,2,1,48,31,1783319204
9017,19,Jits_Linear_5,3,5,80,127,1783320868
9017,19,Jits_Linear_5,0,1,48,29,1784085296
9017,19,Jits_Linear_5,1,5,56,103,1784110432
9017,19,Jits_Linear_5,2,5,63,98,1784160784
9017,19,Jits_Linear_5,3,5,80,127,1784171056
9017,19,Jits_Linear_5,0,5,56,103,1784890952
9017,19,Jits_Linear_5,1,1,48,37,1784898184
9017,19,Jits_Linear_5,2,5,63,98,1784900844
9017,19,Jits_Linear_5,3,5,80,127,1784981016
9017,19,Jits_Linear_5,0,9999,9999,9999,1676138584
9017,19,Jits_Linear_5,1,9999,9999,9999,1676618824
9017,19,Jits_Linear_5,2,9999,9999,9999,1677099084
9017,19,Jits_Linear_5,3,9999,9999,9999,1677588536
9017,19,Jits_Linear_5,4,9999,9999,9999,1678068824
9017,19,Jits_Linear_5,5,9999,9999,9999,1678558328
9017,19,Jits_Linear_5,6,9999,9999,9999,1679048772
9017,19,Jits_Linear_5,7,9999,9999,9999,1679538288
9017,19,Jits_Linear_5,8,9999,9999,9999,1680028772
9017,19,Jits_Linear_5,9,9999,9999,9999,1680518212
9017,19,Jits_Linear_5,10,9999,9999,9999,1681018956
9017,19,Jits_Linear_5,11,9999,9999,9999,1681518656
9017,19,Jits_Linear_5,12,9999,9999,9999,1682018412
9017,19,Jits_Linear_5,13,9999,9999,9999,1682518092
9017,19,Jits_Linear_5,14,9999,9999,9999,1683018824
9017,19,Jits_Linear_5,15,9999,9999,9999,1683528788
9017,19,Jits_Linear_5,16,9999,9999,9999,1684038736
9017,19,Jits_Linear_5,17,9999,9999,9999,1684548688
9017,19,Jits_Linear_5,18,9999,9999,9999,1685058656
9017,19,Jits_Linear_5,19,9999,9999,9999,1685568620
9017,19,Jits_Linear_5,20,9999,9999,9999,1686088760
9017,19,Jits_Linear_5,21,9999,9999,9999,1686608988
9017,19,Jits_Linear_5,22,9999,9999,9999,1687128168
9017,19,Jits_Linear_5,23,9999,9999,9999,1687648324
9017,19,Jits_Linear_5,24,9999,9999,9999,1688168556
9017,19,Jits_Linear_5,25,9999,9999,9999,1688698964
9017,19,Jits_Linear_5,26,9999,9999,9999,1689228396
9017,19,Jits_Linear_5,27,9999,9999,9999,1689758788
9017,19,Jits_Linear_5,28,9999,9999,9999,1690288240
9017,19,Jits_Linear_5,29,9999,9999,9999,1690818640
9017,19,Jits_Linear_5,30,9999,9999,9999,1691358300
9017,19,Jits_Linear_5,31,9999,9999,9999,1691898964
9017,19,Jits_Linear_5,32,9999,9999,9999,1692438584
9017,19,Jits_Linear_5,33,9999,9999,9999,1692978292
9017,19,Jits_Linear_5,34,9999,9999,9999,1693518900
9017,19,Jits_Linear_5,35,9999,9999,9999,1694068804
9017,19,Jits_Linear_5,36,9999,9999,9999,1694618752
9017,19,Jits_Linear_5,37,9999,9999,9999,1695168636
9017,19,Jits_Linear_5,38,9999,9999,9999,1695718484
9017,19,Jits_Linear_5,39,9999,9999,9999,1696268372
9017,19,Jits_Linear_5,40,9999,9999,9999,1696828520
9017,19,Jits_Linear_5,41,9999,9999,9999,1697388608
9017,19,Jits_Linear_5,42,9999,9999,9999,1697948768
9017,19,Jits_Linear_5,43,9999,9999,9999,1698508908
9017,19,Jits_Linear_5,44,9999,9999,9999,1699069000
9017,19,Jits_Linear_5,45,9999,9999,9999,1699638360
9017,19,Jits_Linear_5,46,9999,9999,9999,1700208696
9017,19,Jits_Linear_5,47,9999,9999,9999,1700779112
9017,19,Jits_Linear_5,48,9999,9999,9999,1701358692
9017,19,Jits_Linear_5,49,9999,9999,9999,1701929052
9017,19,Jits_Linear_5,50,9999,9999,9999,1702508596
9017,19,Jits_Linear_5,51,9999,9999,9999,1703088244
9017,19,Jits_Linear_5,52,9999,9999,9999,1703668808
9017,19,Jits_Linear_5,53,9999,9999,9999,1704248380
9017,19,Jits_Linear_5,54,9999,9999,9999,1704829052
9017,19,Jits_Linear_5,55,9999,9999,9999,1705418812
9017,19,Jits_Linear_5,56,9999,9999,9999,1706008668
9017,19,Jits_Linear_5,57,9999,9999,9999,1706598488
9017,19,Jits_Linear_5,58,9999,9999,9999,1707188304
9017,19,Jits_Linear_5,59,9999,9999,9999,1707778132
9017,19,Jits_Linear_5,60,9999,9999,9999,1708378216
9017,19,Jits_Linear_5,61,9999,9999,9999,1708978296
9017,19,Jits_Linear_5,62,9999,9999,9999,1709578328
9017,19,Jits_Linear_5,63,9999,9999,9999,1710178400
9017,19,Jits_Linear_5,64,9999,9999,9999,1710778484
9017,19,Jits_Linear_5,65,9999,9999,9999,1711388776
9017,19,Jits_Linear_5,66,9999,9999,9999,1711999064
9017,19,Jits_Linear_5,67,9999,9999,9999,1712608372
9017,19,Jits_Linear_5,68,9999,9999,9999,1713218660
9017,19,Jits_Linear_5,69,9999,9999,9999,1713828932
9017,19,Jits_Linear_5,70,9999,9999,9999,1714448504
9017,19,Jits_Linear_5,71,9999,9999,9999,1715069056
9017,19,Jits_Linear_5,72,9999,9999,9999,1715688564
9017,19,Jits_Linear_5,73,9999,9999,9999,1716309096
9017,19,Jits_Linear_5,74,9999,9999,9999,1716928584
9017,19,Jits_Linear_5,75,9999,9999,9999,1717558356
9017,19,Jits_Linear_5,76,9999,9999,9999,1718188112
9017,19,Jits_Linear_5,77,9999,9999,9999,1718818932
9017,19,Jits_Linear_5,78,9999,9999,9999,1719448628
9017,19,Jits_Linear_5,79,9999,9999,9999,1720078404
9017,19,Jits_Linear_5,80,9999,9999,9999,1720718420
9017,19,Jits_Linear_5,81,9999,9999,9999,1721358456
9017,19,Jits_Linear_5,82,9999,9999,9999,1721998392
9017,19,Jits_Linear_5,83,9999,9999,9999,1722638428
9017,19,Jits_Linear_5,84,9999,9999,9999,1723278456
9017,19,Jits_Linear_5,85,9999,9999,9999,1723928680
9017,19,Jits_Linear_5,86,9999,9999,9999,1724578880
9017,19,Jits_Linear_5,87,9999,9999,9999,1725228148
9017,19,Jits_Linear_5,88,9999,9999,9999,1725878352
9017,19,Jits_Linear_5,89,9999,9999,9999,1726528592
9017,19,Jits_Linear_5,90,9999,9999,9999,1727189056
9017,19,Jits_Linear_5,91,9999,9999,9999,1727848568
9017,19,Jits_Linear_5,92,9999,9999,9999,1728508988
9017,19,Jits_Linear_5,93,9999,9999,9999,1729168480
9017,19,Jits_Linear_5,94,9999,9999,9999,1729828968
9017,19,Jits_Linear_5,95,9999,9999,9999,1730498652
9017,19,Jits_Linear_5,96,9999,9999,9999,1731168360
9017,19,Jits_Linear_5,97,9999,9999,9999,1731839036
9017,19,Jits_Linear_5,98,9999,9999,9999,1732508796
9017,19,Jits_Linear_5,99,9999,9999,9999,1733178424
9017,19,Jits_Linear_5,100,9999,9999,9999,1733858396
9017,19,Jits_Linear_5,101,9999,9999,9999,1734538344
9017,19,Jits_Linear_5,102,9999,9999,9999,1735218300
9017,19,Jits_Linear_5,103,9999,9999,9999,1735898200
9017,19,Jits_Linear_5,104,9999,9999,9999,1736578144
9017,19,Jits_Linear_5,105,9999,9999,9999,1737268300
9017,19,Jits_Linear_5,106,9999,9999,9999,1737958460
9017,19,Jits_Linear_5,107,9999,9999,9999,1738648672
9017,19,Jits_Linear_5,108,9999,9999,9999,1739338824
9017,19,Jits_Linear_5,109,9999,9999,9999,1740028984
9017,19,Jits_Linear_5,110,9999,9999,9999,1740728424
9017,19,Jits_Linear_5,111,9999,9999,9999,1741428848
9017,19,Jits_Linear_5,112,9999,9999,9999,1742128196
9017,19,Jits_Linear_5,113,9999,9999,9999,1742828620
9017,19,Jits_Linear_5,114,9999,9999,9999,1743529016
9017,19,Jits_Linear_5,115,9999,9999,9999,1744238652
9017,19,Jits_Linear_5,116,9999,9999,9999,1744948292
9017,19,Jits_Linear_5,117,9999,9999,9999,1745658992
9017,19,Jits_Linear_5,118,9999,9999,9999,1746368608
9017,19,Jits_Linear_5,119,9999,9999,9999,1747078240
9017,19,Jits_Linear_5,120,9999,9999,9999,1747798140
9017,19,Jits_Linear_5,121,9999,9999,9999,1748519032
9017,19,Jits_Linear_5,122,9999,9999,9999,1749238876
9017,19,Jits_Linear_5,123,9999,9999,9999,1749958768
9017,19,Jits_Linear_5,124,9999,9999,9999,1750678592
9017,19,Jits_Linear_5,125,9999,9999,9999,1751408744
9017,19,Jits_Linear_5,126,9999,9999,9999,1752138844
9017,19,Jits_Linear_5,127,9999,9999,9999,1752868928
9017,19,Jits_Linear_5,128,9999,9999,9999,1753599100
9017,19,Jits_Linear_5,129,9999,9999,9999,1754328160
9017,19,Jits_Linear_5,130,9999,9999,9999,1755068492
9017,19,Jits_Linear_5,131,9999,9999,9999,1755808844
9017,19,Jits_Linear_5,132,9999,9999,9999,1756548152
9017,19,Jits_Linear_5,133,9999,9999,9999,1757288512
9017,19,Jits_Linear_5,134,9999,9999,9999,1758028864
9017,19,Jits_Linear_5,135,9999,9999,9999,1758778432
9017,19,Jits_Linear_5,136,9999,9999,9999,1759529072
9017,19,Jits_Linear_5,137,9999,9999,9999,1760278640
9017,19,Jits_Linear_5,138,9999,9999,9999,1761028216
9017,19,Jits_Linear_5,139,9999,9999,9999,1761778784
9017,19,Jits_Linear_5,140,9999,9999,9999,1762538620
9017,19,Jits_Linear_5,141,9999,9999,9999,1763298396
9017,19,Jits_Linear_5,142,9999,9999,9999,1764058236
9017,19,Jits_Linear_5,143,9999,9999,9999,1764819024
9017,19,Jits_Linear_5,144,9999,9999,9999,1765578852
9017,19,Jits_Linear_5,145,9999,9999,9999,1766348876
9017,19,Jits_Linear_5,146,9999,9999,9999,1767118972
9017,19,Jits_Linear_5,147,9999,9999,9999,1767888996
9017,19,Jits_Linear_5,148,9999,9999,9999,1768659012
9017,19,Jits_Linear_5,149,9999,9999,9999,1769429080
9017,19,Jits_Linear_5,150,9999,9999,9999,1770208332
9017,19,Jits_Linear_5,151,9999,9999,9999,1770988612
9017,19,Jits_Linear_5,152,9999,9999,9999,1771768916
9017,19,Jits_Linear_5,153,9999,9999,9999,1772548160
9017,19,Jits_Linear_5,154,9999,9999,9999,1773328448
9017,19,Jits_Linear_5,155,9999,9999,9999,1774118996
9017,19,Jits_Linear_5,156,9999,9999,9999,1774908492
9017,19,Jits_Linear_5,157,9999,9999,9999,1775699040
9017,19,Jits_Linear_5,158,9999,9999,9999,1776488548
9017,19,Jits_Linear_5,159,9999,9999,9999,1777279100
9017,19,Jits_Linear_5,160,9999,9999,9999,1778078812
9017,19,Jits_Linear_5,161,9999,9999,9999,1778878524
9017,19,Jits_Linear_5,162,9999,9999,9999,1779678316
9017,19,Jits_Linear_5,163,9999,9999,9999,1780479076
9017,19,Jits_Linear_5,164,9999,9999,9999,1781278784
9017,19,Jits_Linear_5,165,9999,9999,9999,1782088820
9017,19,Jits_Linear_5,166,9999,9999,9999,1782898776
9017,19,Jits_Linear_5,167,9999,9999,9999,1783708752
9017,19,Jits_Linear_5,168,9999,9999,9999,1784518716
9017,19,Jits_Linear_5,169,9999,9999,9999,1785328696
9018,7,Jits_ISO_8,0,5,56,103,1794817344
9018,7,Jits_ISO_8,1,5,63,98,1794820740
9018,7,Jits_ISO_8,2,5,80,127,1794823860
9018,7,Jits_ISO_8,0,5,56,103,1795617116
9018,7,Jits_ISO_8,1,5,63,98,1795620288
9018,7,Jits_ISO_8,2,5,80,127,1795623336
9018,7,Jits_ISO_8,0,5,80,127,1796356592
9018,7,Jits_ISO_8,1,5,63,98,1796446656
9018,7,Jits_ISO_8,2,5,56,103,1796456776
9018,7,Jits_ISO_8,3,1,48,34,1796476012
9018,7,Jits_ISO_8,0,5,56,103,1797176764
9018,7,Jits_ISO_8,1,5,63,98,1797186884
9018,7,Jits_ISO_8,2,1,48,30,1797222284
9018,7,Jits_ISO_8,3,5,80,127,1797277084
9018,7,Jits_ISO_8,0,5,63,98,1797946740
9018,7,Jits_ISO_8,1,5,80,127,1797976568
9018,7,Jits_ISO_8,2,1,48,27,1797987484
9018,7,Jits_ISO_8,3,5,56,103,1798007208
9018,7,Jits_ISO_8,0,5,56,103,1798746592
9018,7,Jits_ISO_8,1,1,48,26,1798756012
9018,7,Jits_ISO_8,2,5,80,127,1798846912
9018,7,Jits_ISO_8,3,5,63,98,1798896976
9018,7,Jits_ISO_8,0,5,56,103,1799547368
9018,7,Jits_ISO_8,1,5,80,127,1799597572
9018,7,Jits_ISO_8,2,1,48,28,1799603756
9018,7,Jits_ISO_8,3,5,63,98,1799637376
9018,7,Jits_ISO_8,0,1,48,29,1800331836
9018,7,Jits_ISO_8,1,5,80,127,1800376748
9018,7,Jits_ISO_8,2,5,63,98,1800407352
9018,7,Jits_ISO_8,3,5,56,103,1800476940
9018,7,Jits_ISO_8,0,1,48,30,1801172480
9018,7,Jits_ISO_8,1,5,63,98,1801207128
9018,7,Jits_ISO_8,2,5,56,103,1801236732
9018,7,Jits_ISO_8,3,5,80,127,1801297404
9018,7,Jits_ISO_8,0,5,56,103,1801946608
9018,7,Jits_ISO_8,1,5,80,127,1801949600
9018,7,Jits_ISO_8,2,1,48,37,1802023664
9018,7,Jits_ISO_8,3,5,63,98,1802067672
9018,7,Jits_ISO_8,0,1,48,30,1802797764
9018,7,Jits_ISO_8,1,5,56,103,1802827232
9018,7,Jits_ISO_8,2,5,80,127,1802867172
9018,7,Jits_ISO_8,3,5,63,98,1802877220
9018,7,Jits_ISO_8,0,5,56,103,1803586864
9018,7,Jits_ISO_8,1,5,80,127,1803607476
9018,7,Jits_ISO_8,2,1,48,41,1803634260
9018,7,Jits_ISO_8,3,5,63,98,1803687260
9018,7,Jits_ISO_8,0,5,80,127,1804376548
9018,7,Jits_ISO_8,1,1,48,31,1804415192
9018,7,Jits_ISO_8,2,5,56,103,1804476720
9018,7,Jits_ISO_8,3,5,63,98,1804486916
9018,7,Jits_ISO_8,0,5,63,98,1805146608
9018,7,Jits_ISO_8,1,5,80,127,1805206924
9018,7,Jits_ISO_8,2,1,48,38,1805209592
9018,7,Jits_ISO_8,3,5,56,103,1805217264
9018,7,Jits_ISO_8,0,5,56,103,1805947284
9018,7,Jits_ISO_8,1,1,48,39,1805990188
9018,7,Jits_ISO_8,2,5,63,98,1806016884
9018,7,Jits_ISO_8,3,5,80,127,1806020176
9018,7,Jits_ISO_8,0,5,63,98,1806776592
9018,7,Jits_ISO_8,1,1,48,36,1806793940
9018,7,Jits_ISO_8,2,5,56,103,1806826884
9018,7,Jits_ISO_8,3,5,80,127,1806829880
9018,7,Jits_ISO_8,0,5,56,103,1807536728
9018,7,Jits_ISO_8,1,5,80,127,1807539792
9018,7,Jits_ISO_8,2,1,48,38,1807577856
9018,7,Jits_ISO_8,3,5,63,98,1807626580
9018,7,Jits_ISO_8,0,1,48,38,1808295052
9018,7,Jits_ISO_8,1,5,63,98,1808377136
9018,7,Jits_ISO_8,2,5,56,103,1808467408
9018,7,Jits_ISO_8,3,5,80,127,1808496932
9018,7,Jits_ISO_8,0,5,56,103,1809166668
9018,7,Jits_ISO_8,1,1,48,37,1809211440
9018,7,Jits_ISO_8,2,5,63,98,1809267060
9018,7,Jits_ISO_8,3,5,80,127,1809296812
9018,7,Jits_ISO_8,0,5,63,98,1809986844
9018,7,Jits_ISO_8,1,1,48,35,1809996816
9018,7,Jits_ISO_8,2,5,56,103,1809998376
9018,7,Jits_ISO_8,3,5,80,127,1810087316
9018,7,Jits_ISO_8,0,1,48,36,1810751900
9018,7,Jits_ISO_8,1,5,63,98,1810807224
9018,7,Jits_ISO_8,2,5,56,103,1810886924
9018,7,Jits_ISO_8,3,5,80,127,1810890072
9018,7,Jits_ISO_8,0,5,80,127,1811566856
9018,7,Jits_ISO_8,1,5,63,98,1811586568
9018,7,Jits_ISO_8,2,1,48,37,1811592232
9018,7,Jits_ISO_8,3,5,56,103,1811646804
9018,7,Jits_ISO_8,0,5,56,103,1812406736
9018,7,Jits_ISO_8,1,5,63,98,1812427048
9018,7,Jits_ISO_8,2,5,80,127,1812430412
9018,7,Jits_ISO_8,3,1,48,35,1812435816
9018,7,Jits_ISO_8,0,5,63,98,1813146960
9018,7,Jits_ISO_8,1,5,80,127,1813226936
9018,7,Jits_ISO_8,2,5,56,103,1813237208
9018,7,Jits_ISO_8,3,1,48,31,1813239724
9018,7,Jits_ISO_8,0,5,63,98,1813967348
9018,7,Jits_ISO_8,1,1,48,35,1813982024
9018,7,Jits_ISO_8,2,5,56,103,1813986780
9018,7,Jits_ISO_8,3,5,80,127,1814036904
9018,7,Jits_ISO_8,0,1,48,37,1814725968
9018,7,Jits_ISO_8,1,5,80,127,1814766924
9018,7,Jits_ISO_8,2,5,63,98,1814806864
9018,7,Jits_ISO_8,3,5,56,103,1814827604
9018,7,Jits_ISO_8,0,1,48,36,1815537912
9018,7,Jits_ISO_8,1,5,56,103,1815606564
9018,7,Jits_ISO_8,2,5,63,98,1815616984
9018,7,Jits_ISO_8,3,5,80,127,1815637576
9018,7,Jits_ISO_8,0,5,56,103,1816336744
9018,7,Jits_ISO_8,1,1,48,37,1816355828
9018,7,Jits_ISO_8,2,5,63,98,1816426800
9018,7,Jits_ISO_8,3,5,80,127,1816487400
9018,7,Jits_ISO_8,0,5,80,127,1817167188
9018,7,Jits_ISO_8,1,5,56,103,1817176708
9018,7,Jits_ISO_8,2,1,48,28,1817241404
9018,7,Jits_ISO_8,3,5,63,98,1817247056
9018,7,Jits_ISO_8,0,5,63,98,1817996656
9018,7,Jits_ISO_8,1,1,48,33,1818033704
9018,7,Jits_ISO_8,2,5,80,127,1818086808
9018,7,Jits_ISO_8,3,5,56,103,1818097152
9018,7,Jits_ISO_8,0,5,63,98,1818737100
9018,7,Jits_ISO_8,1,5,80,127,1818787156
9018,7,Jits_ISO_8,2,5,56,103,1818846672
9018,7,Jits_ISO_8,3,1,48,32,1818932940
9018,7,Jits_ISO_8,0,5,56,103,1819566628
9018,7,Jits_ISO_8,1,1,48,32,1819609408
9018,7,Jits_ISO_8,2,5,80,127,1819616700
9018,7,Jits_ISO_8,3,5,63,98,1819637232
9018,7,Jits_ISO_8,0,5,56,103,1820336380
9018,7,Jits_ISO_8,1,1,48,35,1820352228
9018,7,Jits_ISO_8,2,5,80,127,1820396868
9018,7,Jits_ISO_8,3,5,63,98,1820466684
9018,7,Jits_ISO_8,0,5,56,103,1821137448
9018,7,Jits_ISO_8,1,5,80,127,1821167076
9018,7,Jits_ISO_8,2,1,48,36,1821171240
9018,7,Jits_ISO_8,3,5,63,98,1821196744
9018,7,Jits_ISO_8,0,1,48,32,1821888584
9018,7,Jits_ISO_8,1,5,56,103,1821976968
9018,7,Jits_ISO_8,2,5,80,127,1821997412
9018,7,Jits_ISO_8,3,5,63,98,1822056756
9018,7,Jits_ISO_8,0,1,48,31,1822794616
9018,7,Jits_ISO_8,1,5,80,127,1822856544
9018,7,Jits_ISO_8,2,5,56,103,1822866664
9018,7,Jits_ISO_8,3,5,63,98,1822877160
9018,7,Jits_ISO_8,0,1,48,31,1823608652
9018,7,Jits_ISO_8,1,5,56,103,1823617372
9018,7,Jits_ISO_8,2,5,80,127,1823657536
9018,7,Jits_ISO_8,3,5,63,98,1823686912
9018,7,Jits_ISO_8,0,5,56,103,1824386524
9018,7,Jits_ISO_8,1,5,63,98,1824417248
9018,7,Jits_ISO_8,2,1,48,29,1824452804
9018,7,Jits_ISO_8,3,5,80,127,1824457032
9018,7,Jits_ISO_8,0,5,80,127,1825136948
9018,7,Jits_ISO_8,1,5,63,98,1825187152
9018,7,Jits_ISO_8,2,5,56,103,1825206640
9018,7,Jits_ISO_8,3,1,48,31,1825225496
9018,7,Jits_ISO_8,0,1,48,27,1825937460
9018,7,Jits_ISO_8,1,5,56,103,1825966404
9018,7,Jits_ISO_8,2,5,80,127,1826037368
9018,7,Jits_ISO_8,3,5,63,98,1826096412
9018,7,Jits_ISO_8,0,1,48,34,1826761584
9018,7,Jits_ISO_8,1,5,80,127,1826767384
9018,7,Jits_ISO_8,2,5,63,98,1826858432
9018,7,Jits_ISO_8,3,5,56,103,1826876796
9018,7,Jits_ISO_8,0,5,63,98,1827586392
9018,7,Jits_ISO_8,1,5,56,103,1827606776
9018,7,Jits_ISO_8,2,1,48,36,1827638368
9018,7,Jits_ISO_8,3,5,80,127,1827646784
9018,7,Jits_ISO_8,0,5,80,127,1828347512
9018,7,Jits_ISO_8,1,5,63,98,1828366848
9018,7,Jits_ISO_8,2,1,48,36,1828405416
9018,7,Jits_ISO_8,3,5,56,103,1828446488
9018,7,Jits_ISO_8,0,5,63,98,1829136812
9018,7,Jits_ISO_8,1,1,48,36,1829213048
9018,7,Jits_ISO_8,2,5,56,103,1829247320
9018,7,Jits_ISO_8,3,5,80,127,1829250312
9018,7,Jits_ISO_8,0,1,48,35,1829956668
9018,7,Jits_ISO_8,1,5,63,98,1829958156
9018,7,Jits_ISO_8,2,5,56,103,1829967452
9018,7,Jits_ISO_8,3,5,80,127,1829970444
9018,7,Jits_ISO_8,0,1,48,38,1830719160
9018,7,Jits_ISO_8,1,5,56,103,1830737468
9018,7,Jits_ISO_8,2,5,80,127,1830857332
9018,7,Jits_ISO_8,3,5,63,98,1830897148
9018,7,Jits_ISO_8,0,1,48,37,1831534152
9018,7,Jits_ISO_8,1,5,56,103,1831556516
9018,7,Jits_ISO_8,2,5,80,127,1831637368
9018,7,Jits_ISO_8,3,5,63,98,1831656780
9018,7,Jits_ISO_8,0,5,56,103,1832357576
9018,7,Jits_ISO_8,1,1,48,37,1832373728
9018,7,Jits_ISO_8,2,5,63,98,1832466836
9018,7,Jits_ISO_8,3,5,80,127,1832471012
9018,7,Jits_ISO_8,0,5,56,103,1833186544
9018,7,Jits_ISO_8,1,5,80,127,1833217344
9018,7,Jits_ISO_8,2,1,48,43,1833218756
9018,7,Jits_ISO_8,3,5,63,98,1833236972
9018,7,Jits_ISO_8,0,5,63,98,1833966940
9018,7,Jits_ISO_8,1,1,48,39,1833972076
9018,7,Jits_ISO_8,2,5,56,103,1833977500
9018,7,Jits_ISO_8,3,5,80,127,1833986352
9018,7,Jits_ISO_8,0,1,48,43,1834726460
9018,7,Jits_ISO_8,1,5,80,127,1834756448
9018,7,Jits_ISO_8,2,5,56,103,1834806504
9018,7,Jits_ISO_8,3,5,63,98,1834846500
9018,7,Jits_ISO_8,0,1,48,40,1835541356
9018,7,Jits_ISO_8,1,5,80,127,1835576752
9018,7,Jits_ISO_8,2,5,63,98,1835597364
9018,7,Jits_ISO_8,3,5,56,103,1835647324
9018,7,Jits_ISO_8,0,5,80,127,1836386732
9018,7,Jits_ISO_8,1,1,48,39,1836398392
9018,7,Jits_ISO_8,2,5,56,103,1836417376
9018,7,Jits_ISO_8,3,5,63,98,1836487280
9018,7,Jits_ISO_8,0,1,48,40,1837182968
9018,7,Jits_ISO_8,1,5,56,103,1837236580
9018,7,Jits_ISO_8,2,5,80,127,1837247000
9018,7,Jits_ISO_8,3,5,63,98,1837286724
9018,7,Jits_ISO_8,0,5,56,103,1837947288
9018,7,Jits_ISO_8,1,5,63,98,1837966704
9018,7,Jits_ISO_8,2,1,48,41,1838019044
9018,7,Jits_ISO_8,3,5,80,127,1838037224
9018,7,Jits_ISO_8,0,1,48,33,1838756344
9018,7,Jits_ISO_8,1,5,63,98,1838766408
9018,7,Jits_ISO_8,2,5,80,127,1838826976
9018,7,Jits_ISO_8,3,5,56,103,1838847360
9018,7,Jits_ISO_8,0,5,80,127,1839556980
9018,7,Jits_ISO_8,1,1,48,32,1839584636
9018,7,Jits_ISO_8,2,5,56,103,1839586604
9018,7,Jits_ISO_8,3,5,63,98,1839617324
9018,7,Jits_ISO_8,0,5,56,103,1840356652
9018,7,Jits_ISO_8,1,1,48,35,1840361116
9018,7,Jits_ISO_8,2,5,63,98,1840417412
9018,7,Jits_ISO_8,3,5,80,127,1840476516
9018,7,Jits_ISO_8,0,1,48,31,1841146908
9018,7,Jits_ISO_8,1,5,80,127,1841177196
9018,7,Jits_ISO_8,2,5,56,103,1841197284
9018,7,Jits_ISO_8,3,5,63,98,1841267024
9018,7,Jits_ISO_8,0,1,48,35,1841925188
9018,7,Jits_ISO_8,1,5,80,127,1841976680
9018,7,Jits_ISO_8,2,5,63,98,1841997360
9018,7,Jits_ISO_8,3,5,56,103,1842026948
9018,7,Jits_ISO_8,0,1,48,34,1842762040
9018,7,Jits_ISO_8,1,5,80,127,1842767316
9018,7,Jits_ISO_8,2,5,63,98,1842786728
9018,7,Jits_ISO_8,3,5,56,103,1842847044
9018,7,Jits_ISO_8,0,5,80,127,1843567252
9018,7,Jits_ISO_8,1,1,48,24,1843621840
9018,7,Jits_ISO_8,2,5,56,103,1843667300
9018,7,Jits_ISO_8,3,5,63,98,1843696976
9018,7,Jits_ISO_8,0,5,63,98,1844356568
9018,7,Jits_ISO_8,1,5,80,127,1844406700
9018,7,Jits_ISO_8,2,5,56,103,1844427304
9018,7,Jits_ISO_8,3,1,48,33,1844428872
9018,7,Jits_ISO_8,0,1,48,31,1845191076
9018,7,Jits_ISO_8,1,5,80,127,1845197324
9018,7,Jits_ISO_8,2,5,56,103,1845227020
9018,7,Jits_ISO_8,3,5,63,98,1845230088
9018,7,Jits_ISO_8,0,1,48,32,1845995680
9018,7,Jits_ISO_8,1,5,63,98,1846026568
9018,7,Jits_ISO_8,2,5,56,103,1846066436
9018,7,Jits_ISO_8,3,5,80,127,1846087116
9018,7,Jits_ISO_8,0,5,80,127,1846767096
9018,7,Jits_ISO_8,1,1,48,34,1846794652
9018,7,Jits_ISO_8,2,5,63,98,1846847036
9018,7,Jits_ISO_8,3,5,56,103,1846887124
9018,7,Jits_ISO_8,0,5,63,98,1847587128
9018,7,Jits_ISO_8,1,1,48,37,1847628912
9018,7,Jits_ISO_8,2,5,80,127,1847666996
9018,7,Jits_ISO_8,3,5,56,103,1847686632
9018,7,Jits_ISO_8,0,1,48,38,1848402676
9018,7,Jits_ISO_8,1,5,56,103,1848427064
9018,7,Jits_ISO_8,2,5,63,98,1848437480
9018,7,Jits_ISO_8,3,5,80,127,1848477124
9018,7,Jits_ISO_8,0,5,56,103,1849146908
9018,7,Jits_ISO_8,1,5,80,127,1849149976
9018,7,Jits_ISO_8,2,1,48,38,1849224184
9018,7,Jits_ISO_8,3,5,63,98,1849287152
9018,7,Jits_ISO_8,0,5,56,103,1849937256
9018,7,Jits_ISO_8,1,1,48,34,1850015080
9018,7,Jits_ISO_8,2,5,63,98,1850027312
9018,7,Jits_ISO_8,3,5,80,127,1850097092
9018,7,Jits_ISO_8,0,1,48,29,1850726908
9018,7,Jits_ISO_8,1,5,63,98,1850817064
9018,7,Jits_ISO_8,2,5,80,127,1850821460
9018,7,Jits_ISO_8,3,5,56,103,1850877388
9018,7,Jits_ISO_8,0,1,48,38,1851612268
9018,7,Jits_ISO_8,1,5,80,127,1851656580
9018,7,Jits_ISO_8,2,5,56,103,1851677040
9018,7,Jits_ISO_8,3,5,63,98,1851687384
9018,7,Jits_ISO_8,0,5,56,103,1852367116
9018,7,Jits_ISO_8,1,5,63,98,1852376364
9018,7,Jits_ISO_8,2,1,48,34,1852395748
9018,7,Jits_ISO_8,3,5,80,127,1852447236
9018,7,Jits_ISO_8,0,1,48,38,1853126496
9018,7,Jits_ISO_8,1,5,80,127,1853167008
9018,7,Jits_ISO_8,2,5,56,103,1853217060
9018,7,Jits_ISO_8,3,5,63,98,1853267324
9018,7,Jits_ISO_8,0,1,48,36,1853979876
9018,7,Jits_ISO_8,1,5,56,103,1854046512
9018,7,Jits_ISO_8,2,5,63,98,1854056784
9018,7,Jits_ISO_8,3,5,80,127,1854096856
9018,7,Jits_ISO_8,0,1,48,27,1854783032
9018,7,Jits_ISO_8,1,5,56,103,1854787184
9018,7,Jits_ISO_8,2,5,63,98,1854827200
9018,7,Jits_ISO_8,3,5,80,127,1854877180
9018,7,Jits_ISO_8,0,5,80,127,1855546748
9018,7,Jits_ISO_8,1,5,56,103,1855597100
9018,7,Jits_ISO_8,2,5,63,98,1855617260
9018,7,Jits_ISO_8,3,1,48,36,1855622920
9018,7,Jits_ISO_8,0,5,80,127,1856356580
9018,7,Jits_ISO_8,1,1,48,35,1856391316
9018,7,Jits_ISO_8,2,5,63,98,1856417044
9018,7,Jits_ISO_8,3,5,56,103,1856496996
9018,7,Jits_ISO_8,0,5,80,127,1857137196
9018,7,Jits_ISO_8,1,5,56,103,1857176988
9018,7,Jits_ISO_8,2,1,48,33,1857191192
9018,7,Jits_ISO_8,3,5,63,98,1857197440
9018,7,Jits_ISO_8,0,1,48,38,1857934492
9018,7,Jits_ISO_8,1,5,56,103,1857986880
9018,7,Jits_ISO_8,2,5,80,127,1857997152
9018,7,Jits_ISO_8,3,5,63,98,1858037100
9018,7,Jits_ISO_8,0,1,48,39,1858705724
9018,7,Jits_ISO_8,1,5,56,103,1858857324
9018,7,Jits_ISO_8,2,5,63,98,1858897188
9018,7,Jits_ISO_8,3,5,80,127,1858900628
9018,7,Jits_ISO_8,0,5,63,98,1859546616
9018,7,Jits_ISO_8,1,5,80,127,1859586336
9018,7,Jits_ISO_8,2,1,48,43,1859614468
9018,7,Jits_ISO_8,3,5,56,103,1859657056
9018,7,Jits_ISO_8,0,5,63,98,1860337108
9018,7,Jits_ISO_8,1,1,48,35,1860391996
9018,7,Jits_ISO_8,2,5,56,103,1860416828
9018,7,Jits_ISO_8,3,5,80,127,1860477292
9018,7,Jits_ISO_8,0,5,80,127,1861147080
9018,7,Jits_ISO_8,1,1,48,38,1861150200
9018,7,Jits_ISO_8,2,5,63,98,1861197128
9018,7,Jits_ISO_8,3,5,56,103,1861226952
9018,7,Jits_ISO_8,0,5,56,103,1861936536
9018,7,Jits_ISO_8,1,5,63,98,1861986668
9018,7,Jits_ISO_8,2,5,80,127,1861996864
9018,7,Jits_ISO_8,3,1,48,40,1862007252
9018,7,Jits_ISO_8,0,1,48,31,1862718088
9018,7,Jits_ISO_8,1,5,56,103,1862746584
9018,7,Jits_ISO_8,2,5,63,98,1862857160
9018,7,Jits_ISO_8,3,5,80,127,1862876448
9018,7,Jits_ISO_8,0,5,63,98,1863547204
9018,7,Jits_ISO_8,1,1,48,25,1863579992
9018,7,Jits_ISO_8,2,5,80,127,1863597328
9018,7,Jits_ISO_8,3,5,56,103,1863686572
9018,7,Jits_ISO_8,0,5,63,98,1864336948
9018,7,Jits_ISO_8,1,5,80,127,1864366324
9018,7,Jits_ISO_8,2,1,48,29,1864428352
9018,7,Jits_ISO_8,3,5,56,103,1864456924
9018,7,Jits_ISO_8,0,5,63,98,1865136356
9018,7,Jits_ISO_8,1,5,56,103,1865146996
9018,7,Jits_ISO_8,2,1,48,30,1865176964
9018,7,Jits_ISO_8,3,5,80,127,1865246964
9018,7,Jits_ISO_8,0,1,48,30,1865933616
9018,7,Jits_ISO_8,1,5,63,98,1866036908
9018,7,Jits_ISO_8,2,5,80,127,1866067260
9018,7,Jits_ISO_8,3,5,56,103,1866097084
9018,7,Jits_ISO_8,0,1,48,30,1866776004
9018,7,Jits_ISO_8,1,5,80,127,1866856944
9018,7,Jits_ISO_8,2,5,63,98,1866867064
9018,7,Jits_ISO_8,3,5,56,103,1866896948
9018,7,Jits_ISO_8,0,5,80,127,1867557316
9018,7,Jits_ISO_8,1,5,63,98,1867576804
9018,7,Jits_ISO_8,2,5,56,103,1867626856
9018,7,Jits_ISO_8,3,1,48,34,1867665116
9018,7,Jits_ISO_8,0,5,63,98,1868386632
9018,7,Jits_ISO_8,1,1,48,35,1868387600
9018,7,Jits_ISO_8,2,5,80,127,1868446944
9018,7,Jits_ISO_8,3,5,56,103,1868466580
9018,7,Jits_ISO_8,0,5,63,98,1869146560
9018,7,Jits_ISO_8,1,1,48,29,1869155532
9018,7,Jits_ISO_8,2,5,56,103,1869196756
9018,7,Jits_ISO_8,3,5,80,127,1869206876
9018,7,Jits_ISO_8,0,1,48,35,1869967660
9018,7,Jits_ISO_8,1,5,56,103,1869976972
9018,7,Jits_ISO_8,2,5,80,127,1869987168
9018,7,Jits_ISO_8,3,5,63,98,1870086528
9018,7,Jits_ISO_8,0,5,80,127,1870736980
9018,7,Jits_ISO_8,1,5,63,98,1870746880
9018,7,Jits_ISO_8,2,1,48,37,1870806740
9018,7,Jits_ISO_8,3,5,56,103,1870896588
9018,7,Jits_ISO_8,0,5,63,98,1871546964
9018,7,Jits_ISO_8,1,1,48,32,1871567472
9018,7,Jits_ISO_8,2,5,80,127,1871586824
9018,7,Jits_ISO_8,3,5,56,103,1871667800
9018,7,Jits_ISO_8,0,5,56,103,1872337156
9018,7,Jits_ISO_8,1,1,48,35,1872399764
9018,7,Jits_ISO_8,2,5,80,127,1872436652
9018,7,Jits_ISO_8,3,5,63,98,1872456964
9018,7,Jits_ISO_8,0,1,48,35,1873177532
9018,7,Jits_ISO_8,1,5,80,127,1873197412
9018,7,Jits_ISO_8,2,5,56,103,1873206712
9018,7,Jits_ISO_8,3,5,63,98,1873296904
9018,7,Jits_ISO_8,0,1,48,36,1873995616
9018,7,Jits_ISO_8,1,5,56,103,1873997052
9018,7,Jits_ISO_8,2,5,63,98,1874016688
9018,7,Jits_ISO_8,3,5,80,127,1874096468
9018,7,Jits_ISO_8,0,5,63,98,1874746796
9018,7,Jits_ISO_8,1,5,56,103,1874836856
9018,7,Jits_ISO_8,2,5,80,127,1874839772
9018,7,Jits_ISO_8,3,1,48,37,1874860872
9018,7,Jits_ISO_8,0,5,56,103,1875577212
9018,7,Jits_ISO_8,1,1,48,39,1875582424
9018,7,Jits_ISO_8,2,5,80,127,1875636700
9018,7,Jits_ISO_8,3,5,63,98,1875647044
9018,7,Jits_ISO_8,0,1,48,40,1876372324
9018,7,Jits_ISO_8,1,5,80,127,1876427204
9018,7,Jits_ISO_8,2,5,56,103,1876437352
9018,7,Jits_ISO_8,3,5,63,98,1876440640
9018,7,Jits_ISO_8,0,1,48,34,1877175864
9018,7,Jits_ISO_8,1,5,56,103,1877186828
9018,7,Jits_ISO_8,2,5,80,127,1877197096
9018,7,Jits_ISO_8,3,5,63,98,1877216732
9018,7,Jits_ISO_8,0,1,48,38,1877956772
9018,7,Jits_ISO_8,1,5,63,98,1877958184
9018,7,Jits_ISO_8,2,5,80,127,1878017336
9018,7,Jits_ISO_8,3,5,56,103,1878066476
9018,7,Jits_ISO_8,0,1,48,34,1878765248
9018,7,Jits_ISO_8,1,5,63,98,1878836520
9018,7,Jits_ISO_8,2,5,56,103,1878846716
9018,7,Jits_ISO_8,3,5,80,127,1878896904
9018,7,Jits_ISO_8,0,5,63,98,1879537116
9018,7,Jits_ISO_8,1,5,80,127,1879556532
9018,7,Jits_ISO_8,2,5,56,103,1879566876
9018,7,Jits_ISO_8,3,1,48,38,1879650976
9018,7,Jits_ISO_8,0,5,63,98,1880336744
9018,7,Jits_ISO_8,1,5,80,127,1880339960
9018,7,Jits_ISO_8,2,1,48,33,1880368484
9018,7,Jits_ISO_8,3,5,56,103,1880376896
9018,7,Jits_ISO_8,0,1,48,34,1881103504
9018,7,Jits_ISO_8,1,5,63,98,1881207140
9018,7,Jits_ISO_8,2,5,80,127,1881236816
9018,7,Jits_ISO_8,3,5,56,103,1881247164
9018,7,Jits_ISO_8,0,1,48,30,1881886892
9018,7,Jits_ISO_8,1,5,56,103,1881956820
9018,7,Jits_ISO_8,2,5,80,127,1881986852
9018,7,Jits_ISO_8,3,5,63,98,1882017056
9018,7,Jits_ISO_8,0,1,48,36,1882714700
9018,7,Jits_ISO_8,1,5,63,98,1882856784
9018,7,Jits_ISO_8,2,5,56,103,1882896724
9018,7,Jits_ISO_8,3,5,80,127,1882899716
9018,7,Jits_ISO_8,0,5,80,127,1883557220
9018,7,Jits_ISO_8,1,1,48,32,1883604336
9018,7,Jits_ISO_8,2,5,56,103,1883637036
9018,7,Jits_ISO_8,3,5,63,98,1883687164
9018,7,Jits_ISO_8,0,5,80,127,1884336716
9018,7,Jits_ISO_8,1,5,56,103,1884356880
9018,7,Jits_ISO_8,2,1,48,32,1884445832
9018,7,Jits_ISO_8,3,5,63,98,1884447252
9018,7,Jits_ISO_8,0,5,80,127,1885177144
9018,7,Jits_ISO_8,1,1,48,28,1885188136
9018,7,Jits_ISO_8,2,5,63,98,1885217076
9018,7,Jits_ISO_8,3,5,56,103,1885257088
9018,7,Jits_ISO_8,0,5,63,98,1885947276
9018,7,Jits_ISO_8,1,1,48,29,1885978564
9018,7,Jits_ISO_8,2,5,80,127,1886006764
9018,7,Jits_ISO_8,3,5,56,103,1886037560
9018,7,Jits_ISO_8,0,5,56,103,1886746984
9018,7,Jits_ISO_8,1,5,80,127,1886776660
9018,7,Jits_ISO_8,2,1,48,25,1886798508
9018,7,Jits_ISO_8,3,5,63,98,1886866784
9018,7,Jits_ISO_8,0,1,48,27,1887536784
9018,7,Jits_ISO_8,1,5,56,103,1887556960
9018,7,Jits_ISO_8,2,5,80,127,1887666712
9018,7,Jits_ISO_8,3,5,63,98,1887697160
9018,7,Jits_ISO_8,0,5,56,103,1888406880
9018,7,Jits_ISO_8,1,1,48,32,1888417640
9018,7,Jits_ISO_8,2,5,63,98,1888467660
9018,7,Jits_ISO_8,3,5,80,127,1888496964
9018,7,Jits_ISO_8,0,5,56,103,1889176860
9018,7,Jits_ISO_8,1,1,48,34,1889214432
9018,7,Jits_ISO_8,2,5,63,98,1889246788
9018,7,Jits_ISO_8,3,5,80,127,1889266948
9018,7,Jits_ISO_8,0,5,80,127,1889947064
9018,7,Jits_ISO_8,1,5,63,98,1889966628
9018,7,Jits_ISO_8,2,5,56,103,1890016632
9018,7,Jits_ISO_8,3,1,48,30,1890040876
9018,7,Jits_ISO_8,0,9999,9999,9999,1795214388
9018,7,Jits_ISO_8,1,9999,9999,9999,1796014160
9018,7,Jits_ISO_8,2,9999,9999,9999,1796814904
9018,7,Jits_ISO_8,3,9999,9999,9999,1797614644
9018,7,Jits_ISO_8,4,9999,9999,9999,1798414436
9018,7,Jits_ISO_8,5,9999,9999,9999,1799214148
9018,7,Jits_ISO_8,6,9999,9999,9999,1800014916
9018,7,Jits_ISO_8,7,9999,9999,9999,1800814712
9018,7,Jits_ISO_8,8,9999,9999,9999,1801614428
9018,7,Jits_ISO_8,9,9999,9999,9999,1802414200
9018,7,Jits_ISO_8,10,9999,9999,9999,1803214904
9018,7,Jits_ISO_8,11,9999,9999,9999,1804014708
9018,7,Jits_ISO_8,12,9999,9999,9999,1804814436
9018,7,Jits_ISO_8,13,9999,9999,9999,1805614156
9018,7,Jits_ISO_8,14,9999,9999,9999,1806414900
9018,7,Jits_ISO_8,15,9999,9999,9999,1807214688
9018,7,Jits_ISO_8,16,9999,9999,9999,1808014452
9018,7,Jits_ISO_8,17,9999,9999,9999,1808814180
9018,7,Jits_ISO_8,18,9999,9999,9999,1809614944
9018,7,Jits_ISO_8,19,9999,9999,9999,1810414688
9018,7,Jits_ISO_8,20,9999,9999,9999,1811214392
9018,7,Jits_ISO_8,21,9999,9999,9999,1812014176
9018,7,Jits_ISO_8,22,9999,9999,9999,1812814940
9018,7,Jits_ISO_8,23,9999,9999,9999,1813614664
9018,7,Jits_ISO_8,24,9999,9999,9999,1814414444
9018,7,Jits_ISO_8,25,9999,9999,9999,1815214152
9018,7,Jits_ISO_8,26,9999,9999,9999,1816014908
9018,7,Jits_ISO_8,27,9999,9999,9999,1816814712
9018,7,Jits_ISO_8,28,9999,9999,9999,1817614432
9018,7,Jits_ISO_8,29,9999,9999,9999,1818414164
9018,7,Jits_ISO_8,30,9999,9999,9999,1819214912
9018,7,Jits_ISO_8,31,9999,9999,9999,1820014696
9018,7,Jits_ISO_8,32,9999,9999,9999,1820814420
9018,7,Jits_ISO_8,33,9999,9999,9999,1821614136
9018,7,Jits_ISO_8,34,9999,9999,9999,1822414908
9018,7,Jits_ISO_8,35,9999,9999,9999,1823214644
9018,7,Jits_ISO_8,36,9999,9999,9999,1824014432
9018,7,Jits_ISO_8,37,9999,9999,9999,1824814144
9018,7,Jits_ISO_8,38,9999,9999,9999,1825614908
9018,7,Jits_ISO_8,39,9999,9999,9999,1826414708
9018,7,Jits_ISO_8,40,9999,9999,9999,1827214420
9018,7,Jits_ISO_8,41,9999,9999,9999,1828014132
9018,7,Jits_ISO_8,42,9999,9999,9999,1828814960
9018,7,Jits_ISO_8,43,9999,9999,9999,1829614696
9018,7,Jits_ISO_8,44,9999,9999,9999,1830414388
9018,7,Jits_ISO_8,45,9999,9999,9999,1831214172
9018,7,Jits_ISO_8,46,9999,9999,9999,1832014932
9018,7,Jits_ISO_8,47,9999,9999,9999,1832814708
9018,7,Jits_ISO_8,48,9999,9999,9999,1833614436
9018,7,Jits_ISO_8,49,9999,9999,9999,1834414156
9018,7,Jits_ISO_8,50,9999,9999,9999,1835214912
9018,7,Jits_ISO_8,51,9999,9999,9999,1836014640
9018,7,Jits_ISO_8,52,9999,9999,9999,1836814428
9018,7,Jits_ISO_8,53,9999,9999,9999,1837614160
9018,7,Jits_ISO_8,54,9999,9999,9999,1838414912
9018,7,Jits_ISO_8,55,9999,9999,9999,1839214708
9018,7,Jits_ISO_8,56,9999,9999,9999,1840014416
9018,7,Jits_ISO_8,57,9999,9999,9999,1840814140
9018,7,Jits_ISO_8,58,9999,9999,9999,1841614912
9018,7,Jits_ISO_8,59,9999,9999,9999,1842414712
9018,7,Jits_ISO_8,60,9999,9999,9999,1843214420
9018,7,Jits_ISO_8,61,9999,9999,9999,1844014136
9018,7,Jits_ISO_8,62,9999,9999,9999,1844814900
9018,7,Jits_ISO_8,63,9999,9999,9999,1845614672
9018,7,Jits_ISO_8,64,9999,9999,9999,1846414388
9018,7,Jits_ISO_8,65,9999,9999,9999,1847214172
9018,7,Jits_ISO_8,66,9999,9999,9999,1848014948
9018,7,Jits_ISO_8,67,9999,9999,9999,1848814680
9018,7,Jits_ISO_8,68,9999,9999,9999,1849614448
9018,7,Jits_ISO_8,69,9999,9999,9999,1850414176
9018,7,Jits_ISO_8,70,9999,9999,9999,1851214940
9018,7,Jits_ISO_8,71,9999,9999,9999,1852014656
9018,7,Jits_ISO_8,72,9999,9999,9999,1852814436
9018,7,Jits_ISO_8,73,9999,9999,9999,1853614164
9018,7,Jits_ISO_8,74,9999,9999,9999,1854414928
9018,7,Jits_ISO_8,75,9999,9999,9999,1855214664
9018,7,Jits_ISO_8,76,9999,9999,9999,1856014444
9018,7,Jits_ISO_8,77,9999,9999,9999,1856814168
9018,7,Jits_ISO_8,78,9999,9999,9999,1857614932
9018,7,Jits_ISO_8,79,9999,9999,9999,1858414652
9018,7,Jits_ISO_8,80,9999,9999,9999,1859214436
9018,7,Jits_ISO_8,81,9999,9999,9999,1860014144
9018,7,Jits_ISO_8,82,9999,9999,9999,1860814900
9018,7,Jits_ISO_8,83,9999,9999,9999,1861614704
9018,7,Jits_ISO_8,84,9999,9999,9999,1862414420
9018,7,Jits_ISO_8,85,9999,9999,9999,1863214148
9018,7,Jits_ISO_8,86,9999,9999,9999,1864014904
9018,7,Jits_ISO_8,87,9999,9999,9999,1864814684
9018,7,Jits_ISO_8,88,9999,9999,9999,1865614388
9018,7,Jits_ISO_8,89,9999,9999,9999,1866414184
9018,7,Jits_ISO_8,90,9999,9999,9999,1867214944
9018,7,Jits_ISO_8,91,9999,9999,9999,1868014676
9018,7,Jits_ISO_8,92,9999,9999,9999,1868814400
9018,7,Jits_ISO_8,93,9999,9999,9999,1869614180
9018,7,Jits_ISO_8,94,9999,9999,9999,1870414936
9018,7,Jits_ISO_8,95,9999,9999,9999,1871214644
9018,7,Jits_ISO_8,96,9999,9999,9999,1872014416
9018,7,Jits_ISO_8,97,9999,9999,9999,1872814200
9018,7,Jits_ISO_8,98,9999,9999,9999,1873614900
9018,7,Jits_ISO_8,99,9999,9999,9999,1874414712
9018,7,Jits_ISO_8,100,9999,9999,9999,1875214412
9018,7,Jits_ISO_8,101,9999,9999,9999,1876014196
9018,7,Jits_ISO_8,102,9999,9999,9999,1876814964
9018,7,Jits_ISO_8,103,9999,9999,9999,1877614648
9018,7,Jits_ISO_8,104,9999,9999,9999,1878414436
9018,7,Jits_ISO_8,105,9999,9999,9999,1879214152
9018,7,Jits_ISO_8,106,9999,9999,9999,1880014924
9018,7,Jits_ISO_8,107,9999,9999,9999,1880814692
9018,7,Jits_ISO_8,108,9999,9999,9999,1881614404
9018,7,Jits_ISO_8,109,9999,9999,9999,1882414188
9018,7,Jits_ISO_8,110,9999,9999,9999,1883214944
9018,7,Jits_ISO_8,111,9999,9999,9999,1884014660
9018,7,Jits_ISO_8,112,9999,9999,9999,1884814452
9018,7,Jits_ISO_8,113,9999,9999,9999,1885614176
9018,7,Jits_ISO_8,114,9999,9999,9999,1886414900
9018,7,Jits_ISO_8,115,9999,9999,9999,1887214680
9018,7,Jits_ISO_8,116,9999,9999,9999,1888014408
9018,7,Jits_ISO_8,117,9999,9999,9999,1888814196
9018,7,Jits_ISO_8,118,9999,9999,9999,1889614968
9018,7,Jits_ISO_8,119,9999,9999,9999,1890414688
9019,16,Jits_ISO_5,0,5,56,103,1898457564
9019,16,Jits_ISO_5,1,5,63,98,1898460584
9019,16,Jits_ISO_5,2,5,80,127,1898463636
9019,16,Jits_ISO_5,0,5,56,103,1898958304
9019,16,Jits_ISO_5,1,5,63,98,1898961556
9019,16,Jits_ISO_5,2,5,80,127,1898964676
9019,16,Jits_ISO_5,3,1,48,29,1899155612
9019,16,Jits_ISO_5,0,5,56,103,1899458096
9019,16,Jits_ISO_5,1,5,80,127,1899468068
9019,16,Jits_ISO_5,2,5,63,98,1899487704
9019,16,Jits_ISO_5,3,1,48,40,1899515984
9019,16,Jits_ISO_5,0,5,63,98,1899907552
9019,16,Jits_ISO_5,1,5,80,127,1899938048
9019,16,Jits_ISO_5,2,5,56,103,1899948692
9019,16,Jits_ISO_5,3,1,48,33,1899988324
9019,16,Jits_ISO_5,0,1,48,39,1900460740
9019,16,Jits_ISO_5,1,5,80,127,1900467512
9019,16,Jits_ISO_5,2,5,56,103,1900477928
9019,16,Jits_ISO_5,3,5,63,98,1900507480
9019,16,Jits_ISO_5,0,5,63,98,1900958044
9019,16,Jits_ISO_5,1,5,56,103,1900987644
9019,16,Jits_ISO_5,2,5,80,127,1900997988
9019,16,Jits_ISO_5,3,1,48,34,1901000884
9019,16,Jits_ISO_5,0,5,56,103,1901407732
9019,16,Jits_ISO_5,1,5,63,98,1901457860
9019,16,Jits_ISO_5,2,5,80,127,1901478392
9019,16,Jits_ISO_5,3,1,48,36,1901483604
9019,16,Jits_ISO_5,0,5,80,127,1901908380
9019,16,Jits_ISO_5,1,5,63,98,1901957460
9019,16,Jits_ISO_5,2,1,48,35,1901975548
9019,16,Jits_ISO_5,3,5,56,103,1901997536
9019,16,Jits_ISO_5,0,5,56,103,1902408052
9019,16,Jits_ISO_5,1,5,63,98,1902437724
9019,16,Jits_ISO_5,2,1,48,32,1902486924
9019,16,Jits_ISO_5,3,5,80,127,1902508592
9019,16,Jits_ISO_5,0,5,56,103,1902907648
9019,16,Jits_ISO_5,1,5,80,127,1902968184
9019,16,Jits_ISO_5,2,1,48,31,1902980372
9019,16,Jits_ISO_5,3,5,63,98,1902997852
9019,16,Jits_ISO_5,0,5,56,103,1903417736
9019,16,Jits_ISO_5,1,5,63,98,1903427856
9019,16,Jits_ISO_5,2,5,80,127,1903467940
9019,16,Jits_ISO_5,3,1,48,35,1903509488
9019,16,Jits_ISO_5,0,5,63,98,1903908412
9019,16,Jits_ISO_5,1,1,48,35,1903963148
9019,16,Jits_ISO_5,2,5,80,127,1903988272
9019,16,Jits_ISO_5,3,5,56,103,1903998468
9019,16,Jits_ISO_5,0,5,63,98,1904457972
9019,16,Jits_ISO_5,1,1,48,38,1904459384
9019,16,Jits_ISO_5,2,5,56,103,1904497972
9019,16,Jits_ISO_5,3,5,80,127,1904501040
9019,16,Jits_ISO_5,0,5,56,103,1904917916
9019,16,Jits_ISO_5,1,5,63,98,1904928036
9019,16,Jits_ISO_5,2,5,80,127,1904967972
9019,16,Jits_ISO_5,3,1,48,36,1905001428
9019,16,Jits_ISO_5,0,1,48,35,1905400544
9019,16,Jits_ISO_5,1,5,56,103,1905408436
9019,16,Jits_ISO_5,2,5,63,98,1905411652
9019,16,Jits_ISO_5,3,5,80,127,1905427848
9019,16,Jits_ISO_5,0,5,80,127,1905918352
9019,16,Jits_ISO_5,1,5,56,103,1905927648
9019,16,Jits_ISO_5,2,1,48,33,1905935104
9019,16,Jits_ISO_5,3,5,63,98,1905998144
9019,16,Jits_ISO_5,0,5,63,98,1906407912
9019,16,Jits_ISO_5,1,5,56,103,1906428296
9019,16,Jits_ISO_5,2,1,48,31,1906457720
9019,16,Jits_ISO_5,3,5,80,127,1906508228
9019,16,Jits_ISO_5,0,5,56,103,1906917764
9019,16,Jits_ISO_5,1,5,80,127,1906957628
9019,16,Jits_ISO_5,2,5,63,98,1906967824
9019,16,Jits_ISO_5,3,1,48,37,1906980456
9019,16,Jits_ISO_5,0,5,80,127,1907408372
9019,16,Jits_ISO_5,1,5,63,98,1907437900
9019,16,Jits_ISO_5,2,5,56,103,1907477836
9019,16,Jits_ISO_5,3,1,48,35,1907486280
9019,16,Jits_ISO_5,0,5,56,103,1907928348
9019,16,Jits_ISO_5,1,5,63,98,1907958320
9019,16,Jits_ISO_5,2,1,48,36,1907972452
9019,16,Jits_ISO_5,3,5,80,127,1908008588
9019,16,Jits_ISO_5,0,5,80,127,1908428296
9019,16,Jits_ISO_5,1,5,56,103,1908468528
9019,16,Jits_ISO_5,2,1,48,35,1908473296
9019,16,Jits_ISO_5,3,5,63,98,1908478496
9019,16,Jits_ISO_5,0,5,80,127,1908908392
9019,16,Jits_ISO_5,1,5,63,98,1908948576
9019,16,Jits_ISO_5,2,1,48,38,1908957248
9019,16,Jits_ISO_5,3,5,56,103,1909007760
9019,16,Jits_ISO_5,0,5,56,103,1909418328
9019,16,Jits_ISO_5,1,5,80,127,1909427548
9019,16,Jits_ISO_5,2,1,48,36,1909457812
9019,16,Jits_ISO_5,3,5,63,98,1909507580
9019,16,Jits_ISO_5,0,5,80,127,1909917924
9019,16,Jits_ISO_5,1,1,48,36,1909948840
9019,16,Jits_ISO_5,2,5,63,98,1909977580
9019,16,Jits_ISO_5,3,5,56,103,1910008300
9019,16,Jits_ISO_5,0,5,56,103,1910417664
9019,16,Jits_ISO_5,1,1,48,30,1910452548
9019,16,Jits_ISO_5,2,5,80,127,1910478368
9019,16,Jits_ISO_5,3,5,63,98,1910518380
9019,16,Jits_ISO_5,0,5,56,103,1910967608
9019,16,Jits_ISO_5,1,1,48,31,1910977264
9019,16,Jits_ISO_5,2,5,63,98,1910978708
9019,16,Jits_ISO_5,3,5,80,127,1910981908
9019,16,Jits_ISO_5,0,5,80,127,1911418348
9019,16,Jits_ISO_5,1,5,63,98,1911508432
9019,16,Jits_ISO_5,2,1,48,27,1911515916
9019,16,Jits_ISO_5,3,5,56,103,1911517424
9019,16,Jits_ISO_5,0,5,56,103,1911917780
9019,16,Jits_ISO_5,1,5,63,98,1911920956
9019,16,Jits_ISO_5,2,5,80,127,1911924080
9019,16,Jits_ISO_5,3,1,48,37,1911967288
9019,16,Jits_ISO_5,0,1,48,38,1912413136
9019,16,Jits_ISO_5,1,5,80,127,1912438344
9019,16,Jits_ISO_5,2,5,63,98,1912488396
9019,16,Jits_ISO_5,3,5,56,103,1912517904
9019,16,Jits_ISO_5,0,5,56,103,1912918236
9019,16,Jits_ISO_5,1,5,80,127,1912927608
9019,16,Jits_ISO_5,2,1,48,40,1912962712
9019,16,Jits_ISO_5,3,5,63,98,1912998400
9019,16,Jits_ISO_5,0,5,56,103,1913437536
9019,16,Jits_ISO_5,1,1,48,37,1913447104
9019,16,Jits_ISO_5,2,5,63,98,1913457988
9019,16,Jits_ISO_5,3,5,80,127,1913517476
9019,16,Jits_ISO_5,0,5,80,127,1913927996
9019,16,Jits_ISO_5,1,1,48,40,1913987756
9019,16,Jits_ISO_5,2,5,63,98,1913997744
9019,16,Jits_ISO_5,3,5,56,103,1914018352
9019,16,Jits_ISO_5,0,5,80,127,1914448420
9019,16,Jits_ISO_5,1,5,56,103,1914457424
9019,16,Jits_ISO_5,2,5,63,98,1914467616
9019,16,Jits_ISO_5,3,1,48,43,1914511108
9019,16,Jits_ISO_5,0,5,80,127,1914937604
9019,16,Jits_ISO_5,1,5,56,103,1914958436
9019,16,Jits_ISO_5,2,1,48,37,1914983656
9019,16,Jits_ISO_5,3,5,63,98,1915027808
9019,16,Jits_ISO_5,0,5,56,103,1915447764
9019,16,Jits_ISO_5,1,5,80,127,1915478560
9019,16,Jits_ISO_5,2,1,48,38,1915483404
9019,16,Jits_ISO_5,3,5,63,98,1915497964
9019,16,Jits_ISO_5,0,5,63,98,1915938224
9019,16,Jits_ISO_5,1,1,48,37,1915981124
9019,16,Jits_ISO_5,2,5,56,103,1915997560
9019,16,Jits_ISO_5,3,5,80,127,1916028428
9019,16,Jits_ISO_5,0,5,63,98,1916427692
9019,16,Jits_ISO_5,1,5,80,127,1916430984
9019,16,Jits_ISO_5,2,1,48,39,1916508048
9019,16,Jits_ISO_5,3,5,56,103,1916517740
9019,16,Jits_ISO_5,0,5,56,103,1916947796
9019,16,Jits_ISO_5,1,5,63,98,1916977472
9019,16,Jits_ISO_5,2,1,48,35,1916989280
9019,16,Jits_ISO_5,3,5,80,127,1917017476
9019,16,Jits_ISO_5,0,5,63,98,1917447396
9019,16,Jits_ISO_5,1,1,48,37,1917470068
9019,16,Jits_ISO_5,2,5,56,103,1917487400
9019,16,Jits_ISO_5,3,5,80,127,1917507932
9019,16,Jits_ISO_5,0,5,63,98,1917957396
9019,16,Jits_ISO_5,1,1,48,38,1917983356
9019,16,Jits_ISO_5,2,5,56,103,1917997404
9019,16,Jits_ISO_5,3,5,80,127,1918007596
9019,16,Jits_ISO_5,0,5,80,127,1918437800
9019,16,Jits_ISO_5,1,1,48,36,1918477340
9019,16,Jits_ISO_5,2,5,63,98,1918508376
9019,16,Jits_ISO_5,3,5,56,103,1918527712
9019,16,Jits_ISO_5,0,5,56,103,1918928336
9019,16,Jits_ISO_5,1,5,80,127,1918947676
9019,16,Jits_ISO_5,2,5,63,98,1918987612
9019,16,Jits_ISO_5,3,1,48,37,1918993576
9019,16,Jits_ISO_5,0,5,63,98,1919438272
9019,16,Jits_ISO_5,1,5,80,127,1919457612
9019,16,Jits_ISO_5,2,1,48,33,1919474808
9019,16,Jits_ISO_5,3,5,56,103,1919497540
9019,16,Jits_ISO_5,0,5,63,98,1919937908
9019,16,Jits_ISO_5,1,1,48,32,1919953332
9019,16,Jits_ISO_5,2,5,56,103,1919958312
9019,16,Jits_ISO_5,3,5,80,127,1919967532
9019,16,Jits_ISO_5,0,1,48,35,1920425236
9019,16,Jits_ISO_5,1,5,80,127,1920437636
9019,16,Jits_ISO_5,2,5,56,103,1920458316
9019,16,Jits_ISO_5,3,5,63,98,1920487644
9019,16,Jits_ISO_5,0,1,48,33,1920966336
9019,16,Jits_ISO_5,1,5,56,103,1921018300
9019,16,Jits_ISO_5,2,5,80,127,1921021292
9019,16,Jits_ISO_5,3,5,63,98,1921037712
9019,16,Jits_ISO_5,0,5,63,98,1921438148
9019,16,Jits_ISO_5,1,5,56,103,1921467748
9019,16,Jits_ISO_5,2,1,48,32,1921528756
9019,16,Jits_ISO_5,3,5,80,127,1921529876
9019,16,Jits_ISO_5,0,1,48,33,1922002968
9019,16,Jits_ISO_5,1,5,63,98,1922017536
9019,16,Jits_ISO_5,2,5,56,103,1922027804
9019,16,Jits_ISO_5,3,5,80,127,1922038448
9019,16,Jits_ISO_5,0,5,56,103,1922468628
9019,16,Jits_ISO_5,1,5,80,127,1922497932
9019,16,Jits_ISO_5,2,5,63,98,1922508424
9019,16,Jits_ISO_5,3,1,48,37,1922521312
9019,16,Jits_ISO_5,0,1,48,42,1922982576
9019,16,Jits_ISO_5,1,5,63,98,1923007780
9019,16,Jits_ISO_5,2,5,56,103,1923018124
9019,16,Jits_ISO_5,3,5,80,127,1923037412
9019,16,Jits_ISO_5,0,5,56,103,1923438072
9019,16,Jits_ISO_5,1,1,48,39,1923464340
9019,16,Jits_ISO_5,2,5,63,98,1923498380
9019,16,Jits_ISO_5,3,5,80,127,1923501744
9019,16,Jits_ISO_5,0,5,80,127,1923958340
9019,16,Jits_ISO_5,1,1,48,42,1923964152
9019,16,Jits_ISO_5,2,5,56,103,1923968380
9019,16,Jits_ISO_5,3,5,63,98,1924038276
9019,16,Jits_ISO_5,0,5,80,127,1924447600
9019,16,Jits_ISO_5,1,1,48,42,1924496876
9019,16,Jits_ISO_5,2,5,56,103,1924518396
9019,16,Jits_ISO_5,3,5,63,98,1924527396
9019,16,Jits_ISO_5,0,1,48,33,1924983720
9019,16,Jits_ISO_5,1,5,63,98,1924997616
9019,16,Jits_ISO_5,2,5,56,103,1925007812
9019,16,Jits_ISO_5,3,5,80,127,1925028120
9019,16,Jits_ISO_5,0,1,48,38,1925447608
9019,16,Jits_ISO_5,1,5,80,127,1925449176
9019,16,Jits_ISO_5,2,5,63,98,1925507396
9019,16,Jits_ISO_5,3,5,56,103,1925548440
9019,16,Jits_ISO_5,0,1,48,38,1925971208
9019,16,Jits_ISO_5,1,5,56,103,1925987720
9019,16,Jits_ISO_5,2,5,63,98,1925998064
9019,16,Jits_ISO_5,3,5,80,127,1926037852
9019,16,Jits_ISO_5,0,5,56,103,1926447456
9019,16,Jits_ISO_5,1,5,80,127,1926478400
9019,16,Jits_ISO_5,2,1,48,40,1926486848
9019,16,Jits_ISO_5,3,5,63,98,1926528448
9019,16,Jits_ISO_5,0,1,48,41,1926932928
9019,16,Jits_ISO_5,1,5,56,103,1926988324
9019,16,Jits_ISO_5,2,5,63,98,1927028184
9019,16,Jits_ISO_5,3,5,80,127,1927032284
9019,16,Jits_ISO_5,0,1,48,43,1927453184
9019,16,Jits_ISO_5,1,5,56,103,1927487900
9019,16,Jits_ISO_5,2,5,63,98,1927498320
9019,16,Jits_ISO_5,3,5,80,127,1927517508
9019,16,Jits_ISO_5,0,5,56,103,1927947864
9019,16,Jits_ISO_5,1,5,80,127,1927950700
9019,16,Jits_ISO_5,2,1,48,44,1927984460
9019,16,Jits_ISO_5,3,5,63,98,1927987640
9019,16,Jits_ISO_5,0,1,48,43,1928457976
9019,16,Jits_ISO_5,1,5,63,98,1928488344
9019,16,Jits_ISO_5,2,5,56,103,1928518020
9019,16,Jits_ISO_5,3,5,80,127,1928537580
9019,16,Jits_ISO_5,0,5,80,127,1928958272
9019,16,Jits_ISO_5,1,5,56,103,1928967420
9019,16,Jits_ISO_5,2,5,63,98,1928977692
9019,16,Jits_ISO_5,3,1,48,42,1928982904
9019,16,Jits_ISO_5,0,1,48,40,1929450488
9019,16,Jits_ISO_5,1,5,56,103,1929458008
9019,16,Jits_ISO_5,2,5,80,127,1929498168
9019,16,Jits_ISO_5,3,5,63,98,1929527620
9019,16,Jits_ISO_5,0,5,63,98,1929968084
9019,16,Jits_ISO_5,1,1,48,40,1929977380
9019,16,Jits_ISO_5,2,5,80,127,1929978948
9019,16,Jits_ISO_5,3,5,56,103,1929987348
9019,16,Jits_ISO_5,0,5,56,103,1930448112
9019,16,Jits_ISO_5,1,1,48,40,1930462988
9019,16,Jits_ISO_5,2,5,63,98,1930518008
9019,16,Jits_ISO_5,3,5,80,127,1930528204
9019,16,Jits_ISO_5,0,5,80,127,1930948056
9019,16,Jits_ISO_5,1,5,56,103,1930958352
9019,16,Jits_ISO_5,2,1,48,40,1930988968
9019,16,Jits_ISO_5,3,5,63,98,1931008468
9019,16,Jits_ISO_5,0,1,48,38,1931458288
9019,16,Jits_ISO_5,1,5,80,127,1931459552
9019,16,Jits_ISO_5,2,5,56,103,1931518248
9019,16,Jits_ISO_5,3,5,63,98,1931548292
9019,16,Jits_ISO_5,0,1,48,37,1931948704
9019,16,Jits_ISO_5,1,5,56,103,1931957640
9019,16,Jits_ISO_5,2,5,80,127,1931960708
9019,16,Jits_ISO_5,3,5,63,98,1931997452
9019,16,Jits_ISO_5,0,1,48,32,1932438308
9019,16,Jits_ISO_5,1,5,56,103,1932498372
9019,16,Jits_ISO_5,2,5,63,98,1932528120
9019,16,Jits_ISO_5,3,5,80,127,1932538152
9019,16,Jits_ISO_5,0,1,48,32,1932963808
9019,16,Jits_ISO_5,1,5,63,98,1933008372
9019,16,Jits_ISO_5,2,5,80,127,1933017520
9019,16,Jits_ISO_5,3,5,56,103,1933027640
9019,16,Jits_ISO_5,0,1,48,38,1933454700
9019,16,Jits_ISO_5,1,5,80,127,1933457956
9019,16,Jits_ISO_5,2,5,56,103,1933508080
9019,16,Jits_ISO_5,3,5,63,98,1933511220
9019,16,Jits_ISO_5,0,5,56,103,1933988176
9019,16,Jits_ISO_5,1,1,48,28,1933994436
9019,16,Jits_ISO_5,2,5,80,127,1934007656
9019,16,Jits_ISO_5,3,5,63,98,1934018000
9019,16,Jits_ISO_5,0,1,48,35,1934460020
9019,16,Jits_ISO_5,1,5,63,98,1934467388
9019,16,Jits_ISO_5,2,5,56,103,1934498184
9019,16,Jits_ISO_5,3,5,80,127,1934517820
9019,16,Jits_ISO_5,0,5,56,103,1934978364
9019,16,Jits_ISO_5,1,5,80,127,1934987512
9019,16,Jits_ISO_5,2,1,48,33,1934996476
9019,16,Jits_ISO_5,3,5,63,98,1935058252
9019,16,Jits_ISO_5,0,5,63,98,1935468068
9019,16,Jits_ISO_5,1,5,80,127,1935508080
9019,16,Jits_ISO_5,2,1,48,35,1935520564
9019,16,Jits_ISO_5,3,5,56,103,1935547788
9019,16,Jits_ISO_5,0,1,48,29,1935976328
9019,16,Jits_ISO_5,1,5,56,103,1935977760
9019,16,Jits_ISO_5,2,5,63,98,1935988252
9019,16,Jits_ISO_5,3,5,80,127,1936007516
9019,16,Jits_ISO_5,0,1,48,32,1936462476
9019,16,Jits_ISO_5,1,5,63,98,1936527912
9019,16,Jits_ISO_5,2,5,80,127,1936548148
9019,16,Jits_ISO_5,3,5,56,103,1936568140
9019,16,Jits_ISO_5,0,5,56,103,1936968096
9019,16,Jits_ISO_5,1,1,48,36,1937025244
9019,16,Jits_ISO_5,2,5,80,127,1937047956
9019,16,Jits_ISO_5,3,5,63,98,1937058376
9019,16,Jits_ISO_5,0,1,48,41,1937497560
9019,16,Jits_ISO_5,1,5,80,127,1937507772
9019,16,Jits_ISO_5,2,5,63,98,1937518116
9019,16,Jits_ISO_5,3,5,56,103,1937547568
9019,16,Jits_ISO_5,0,5,63,98,1937967360
9019,16,Jits_ISO_5,1,1,48,38,1937968324
9019,16,Jits_ISO_5,2,5,80,127,1938008340
9019,16,Jits_ISO_5,3,5,56,103,1938068036
9019,16,Jits_ISO_5,0,5,63,98,1938477356
9019,16,Jits_ISO_5,1,5,56,103,1938527484
9019,16,Jits_ISO_5,2,1,48,40,1938528452
9019,16,Jits_ISO_5,3,5,80,127,1938558348
9019,16,Jits_ISO_5,0,5,80,127,1938988328
9019,16,Jits_ISO_5,1,5,63,98,1938997552
9019,16,Jits_ISO_5,2,1,48,33,1939012352
9019,16,Jits_ISO_5,3,5,56,103,1939068340
9019,16,Jits_ISO_5,0,1,48,29,1939539964
9019,16,Jits_ISO_5,1,5,80,127,1939557824
9019,16,Jits_ISO_5,2,5,56,103,1939568392
9019,16,Jits_ISO_5,3,5,63,98,1939571160
9019,16,Jits_ISO_5,0,5,56,103,1939998372
9019,16,Jits_ISO_5,1,5,80,127,1940017412
9019,16,Jits_ISO_5,2,1,48,36,1940026244
9019,16,Jits_ISO_5,3,5,63,98,1940027752
9019,16,Jits_ISO_5,0,5,63,98,1940508164
9019,16,Jits_ISO_5,1,1,48,32,1940514720
9019,16,Jits_ISO_5,2,5,56,103,1940547944
9019,16,Jits_ISO_5,3,5,80,127,1940568328
9019,16,Jits_ISO_5,0,5,63,98,1941008124
9019,16,Jits_ISO_5,1,1,48,34,1941010572
9019,16,Jits_ISO_5,2,5,56,103,1941068204
9019,16,Jits_ISO_5,3,5,80,127,1941071196
9019,16,Jits_ISO_5,0,5,56,103,1941467548
9019,16,Jits_ISO_5,1,5,80,127,1941488004
9019,16,Jits_ISO_5,2,1,48,30,1941506788
9019,16,Jits_ISO_5,3,5,63,98,1941527932
9019,16,Jits_ISO_5,0,1,48,26,1941957872
9019,16,Jits_ISO_5,1,5,56,103,1941998148
9019,16,Jits_ISO_5,2,5,63,98,1942018460
9019,16,Jits_ISO_5,3,5,80,127,1942027608
9019,16,Jits_ISO_5,0,5,80,127,1942467972
9019,16,Jits_ISO_5,1,1,48,29,1942484372
9019,16,Jits_ISO_5,2,5,56,103,1942497888
9019,16,Jits_ISO_5,3,5,63,98,1942537752
9019,16,Jits_ISO_5,0,1,48,31,1942948656
9019,16,Jits_ISO_5,1,5,80,127,1942978048
9019,16,Jits_ISO_5,2,5,56,103,1942998312
9019,16,Jits_ISO_5,3,5,63,98,1943057708
9019,16,Jits_ISO_5,0,1,48,32,1943471012
9019,16,Jits_ISO_5,1,5,56,103,1943487896
9019,16,Jits_ISO_5,2,5,80,127,1943508456
9019,16,Jits_ISO_5,3,5,63,98,1943568004
9019,16,Jits_ISO_5,0,5,80,127,1943978496
9019,16,Jits_ISO_5,1,5,56,103,1943987572
9019,16,Jits_ISO_5,2,5,63,98,1944027384
9019,16,Jits_ISO_5,3,1,48,32,1944035288
9019,16,Jits_ISO_5,0,5,63,98,1944478020
9019,16,Jits_ISO_5,1,1,48,31,1944502488
9019,16,Jits_ISO_5,2,5,56,103,1944518172
9019,16,Jits_ISO_5,3,5,80,127,1944521240
9019,16,Jits_ISO_5,0,1,48,38,1944977108
9019,16,Jits_ISO_5,1,5,63,98,1944998108
9019,16,Jits_ISO_5,2,5,80,127,1945038144
9019,16,Jits_ISO_5,3,5,56,103,1945068040
9019,16,Jits_ISO_5,0,5,56,103,1945487660
9019,16,Jits_ISO_5,1,5,63,98,1945497928
9019,16,Jits_ISO_5,2,1,48,32,1945522624
9019,16,Jits_ISO_5,3,5,80,127,1945527596
9019,16,Jits_ISO_5,0,5,80,127,1945978188
9019,16,Jits_ISO_5,1,1,48,35,1946014712
9019,16,Jits_ISO_5,2,5,63,98,1946047936
9019,16,Jits_ISO_5,3,5,56,103,1946057984
9019,16,Jits_ISO_5,0,5,63,98,1946478012
9019,16,Jits_ISO_5,1,1,48,32,1946501508
9019,16,Jits_ISO_5,2,5,56,103,1946547460
9019,16,Jits_ISO_5,3,5,80,127,1946558028
9019,16,Jits_ISO_5,0,5,63,98,1946977744
9019,16,Jits_ISO_5,1,5,56,103,1946998052
9019,16,Jits_ISO_5,2,1,48,37,1947004388
9019,16,Jits_ISO_5,3,5,80,127,1947038208
9019,16,Jits_ISO_5,0,5,56,103,1947487664
9019,16,Jits_ISO_5,1,5,63,98,1947497932
9019,16,Jits_ISO_5,2,1,48,27,1947511464
9019,16,Jits_ISO_5,3,5,80,127,1947577640
9019,16,Jits_ISO_5,0,1,48,29,1947966632
9019,16,Jits_ISO_5,1,5,63,98,1947988300
9019,16,Jits_ISO_5,2,5,56,103,1948018124
9019,16,Jits_ISO_5,3,5,80,127,1948057912
9019,16,Jits_ISO_5,0,1,48,32,1948442900
9019,16,Jits_ISO_5,1,5,56,103,1948487956
9019,16,Jits_ISO_5,2,5,63,98,1948528044
9019,16,Jits_ISO_5,3,5,80,127,1948567968
9019,16,Jits_ISO_5,0,5,80,127,1948987924
9019,16,Jits_ISO_5,1,1,48,24,1949033668
9019,16,Jits_ISO_5,2,5,56,103,1949067560
9019,16,Jits_ISO_5,3,5,63,98,1949078204
9019,16,Jits_ISO_5,0,5,56,103,1949528428
9019,16,Jits_ISO_5,1,5,63,98,1949531492
9019,16,Jits_ISO_5,2,5,80,127,1949537576
9019,16,Jits_ISO_5,3,1,48,14,1949543688
9019,16,Jits_ISO_5,0,1,48,21,1950043036
9019,16,Jits_ISO_5,1,5,56,103,1950047716
9019,16,Jits_ISO_5,2,5,63,98,1950068024
9019,16,Jits_ISO_5,3,5,80,127,1950078220
9019,16,Jits_ISO_5,0,5,63,98,1950508352
9019,16,Jits_ISO_5,1,5,80,127,1950517500
9019,16,Jits_ISO_5,2,5,56,103,1950538108
9019,16,Jits_ISO_5,3,1,48,16,1950545564
9019,16,Jits_ISO_5,0,5,63,98,1951008156
9019,16,Jits_ISO_5,1,1,48,27,1951045132
9019,16,Jits_ISO_5,2,5,56,103,1951088016
9019,16,Jits_ISO_5,3,5,80,127,1951091008
9019,16,Jits_ISO_5,0,5,63,98,1951507884
9019,16,Jits_ISO_5,1,5,56,103,1951528196
9019,16,Jits_ISO_5,2,1,48,26,1951542404
9019,16,Jits_ISO_5,3,5,80,127,1951557936
9019,16,Jits_ISO_5,0,1,48,26,1951975828
9019,16,Jits_ISO_5,1,5,56,103,1952007612
9019,16,Jits_ISO_5,2,5,63,98,1952028144
9019,16,Jits_ISO_5,3,5,80,127,1952038340
9019,16,Jits_ISO_5,0,5,56,103,1952537996
9019,16,Jits_ISO_5,1,1,48,24,1952544404
9019,16,Jits_ISO_5,2,5,63,98,1952567736
9019,16,Jits_ISO_5,3,5,80,127,1952570952
9019,16,Jits_ISO_5,0,5,56,103,1952987540
9019,16,Jits_ISO_5,1,5,63,98,1953027404
9019,16,Jits_ISO_5,2,1,48,27,1953044828
9019,16,Jits_ISO_5,3,5,80,127,1953088084
9019,16,Jits_ISO_5,0,5,56,103,1953507888
9019,16,Jits_ISO_5,1,1,48,27,1953514224
9019,16,Jits_ISO_5,2,5,63,98,1953518376
9019,16,Jits_ISO_5,3,5,80,127,1953578316
9019,16,Jits_ISO_5,0,1,48,28,1953980832
9019,16,Jits_ISO_5,1,5,56,103,1954008380
9019,16,Jits_ISO_5,2,5,80,127,1954028164
9019,16,Jits_ISO_5,3,5,63,98,1954057760
9019,16,Jits_ISO_5,0,1,48,26,1954460556
9019,16,Jits_ISO_5,1,5,80,127,1954508256
9019,16,Jits_ISO_5,2,5,56,103,1954518380
9019,16,Jits_ISO_5,3,5,63,98,1954538088
9019,16,Jits_ISO_5,0,1,48,29,1954971224
9019,16,Jits_ISO_5,1,5,63,98,1954997480
9019,16,Jits_ISO_5,2,5,80,127,1955077432
9019,16,Jits_ISO_5,3,5,56,103,1955087996
9019,16,Jits_ISO_5,0,1,48,27,1955504596
9019,16,Jits_ISO_5,1,5,80,127,1955567888
9019,16,Jits_ISO_5,2,5,56,103,1955587372
9019,16,Jits_ISO_5,3,5,63,98,1955590512
9019,16,Jits_ISO_5,0,5,63,98,1956038076
9019,16,Jits_ISO_5,1,5,80,127,1956041144
9019,16,Jits_ISO_5,2,1,48,31,1956088120
9019,16,Jits_ISO_5,3,5,56,103,1956098332
9019,16,Jits_ISO_5,0,5,56,103,1956518244
9019,16,Jits_ISO_5,1,5,80,127,1956527540
9019,16,Jits_ISO_5,2,5,63,98,1956568328
9019,16,Jits_ISO_5,3,1,48,29,1956577592
9019,16,Jits_ISO_5,0,5,56,103,1956997540
9019,16,Jits_ISO_5,1,1,48,33,1957038720
9019,16,Jits_ISO_5,2,5,63,98,1957057848
9019,16,Jits_ISO_5,3,5,80,127,1957068140
9019,16,Jits_ISO_5,0,1,48,26,1957469008
9019,16,Jits_ISO_5,1,5,63,98,1957507392
9019,16,Jits_ISO_5,2,5,80,127,1957548452
9019,16,Jits_ISO_5,3,5,56,103,1957588396
9019,16,Jits_ISO_5,0,5,56,103,1958008032
9019,16,Jits_ISO_5,1,1,48,30,1958059180
9019,16,Jits_ISO_5,2,5,63,98,1958088116
9019,16,Jits_ISO_5,3,5,80,127,1958091404
9019,16,Jits_ISO_5,0,9999,9999,9999,1898706040
9019,16,Jits_ISO_5,1,9999,9999,9999,1899205704
9019,16,Jits_ISO_5,2,9999,9999,9999,1899705408
9019,16,Jits_ISO_5,3,9999,9999,9999,1900205152
9019,16,Jits_ISO_5,4,9999,9999,9999,1900705860
9019,16,Jits_ISO_5,5,9999,9999,9999,1901205604
9019,16,Jits_ISO_5,6,9999,9999,9999,1901705336
9019,16,Jits_ISO_5,7,9999,9999,9999,1902206056
9019,16,Jits_ISO_5,8,9999,9999,9999,1902705728
9019,16,Jits_ISO_5,9,9999,9999,9999,1903205476
9019,16,Jits_ISO_5,10,9999,9999,9999,1903705148
9019,16,Jits_ISO_5,11,9999,9999,9999,1904205944
9019,16,Jits_ISO_5,12,9999,9999,9999,1904705596
9019,16,Jits_ISO_5,13,9999,9999,9999,1905205328
9019,16,Jits_ISO_5,14,9999,9999,9999,1905706104
9019,16,Jits_ISO_5,15,9999,9999,9999,1906205764
9019,16,Jits_ISO_5,16,9999,9999,9999,1906705516
9019,16,Jits_ISO_5,17,9999,9999,9999,1907205180
9019,16,Jits_ISO_5,18,9999,9999,9999,1907705976
9019,16,Jits_ISO_5,19,9999,9999,9999,1908205652
9019,16,Jits_ISO_5,20,9999,9999,9999,1908705372
9019,16,Jits_ISO_5,21,9999,9999,9999,1909206092
9019,16,Jits_ISO_5,22,9999,9999,9999,1909716028
9019,16,Jits_ISO_5,23,9999,9999,9999,1910215748
9019,16,Jits_ISO_5,24,9999,9999,9999,1910715492
9019,16,Jits_ISO_5,25,9999,9999,9999,1911215156
9019,16,Jits_ISO_5,26,9999,9999,9999,1911715956
9019,16,Jits_ISO_5,27,9999,9999,9999,1912215604
9019,16,Jits_ISO_5,28,9999,9999,9999,1912715356
9019,16,Jits_ISO_5,29,9999,9999,9999,1913216060
9019,16,Jits_ISO_5,30,9999,9999,9999,1913726072
9019,16,Jits_ISO_5,31,9999,9999,9999,1914225752
9019,16,Jits_ISO_5,32,9999,9999,9999,1914725496
9019,16,Jits_ISO_5,33,9999,9999,9999,1915225168
9019,16,Jits_ISO_5,34,9999,9999,9999,1915725888
9019,16,Jits_ISO_5,35,9999,9999,9999,1916225640
9019,16,Jits_ISO_5,36,9999,9999,9999,1916725360
9019,16,Jits_ISO_5,37,9999,9999,9999,1917226068
9019,16,Jits_ISO_5,38,9999,9999,9999,1917725820
9019,16,Jits_ISO_5,39,9999,9999,9999,1918225484
9019,16,Jits_ISO_5,40,9999,9999,9999,1918725220
9019,16,Jits_ISO_5,41,9999,9999,9999,1919225940
9019,16,Jits_ISO_5,42,9999,9999,9999,1919725688
9019,16,Jits_ISO_5,43,9999,9999,9999,1920225344
9019,16,Jits_ISO_5,44,9999,9999,9999,1920726124
9019,16,Jits_ISO_5,45,9999,9999,9999,1921236044
9019,16,Jits_ISO_5,46,9999,9999,9999,1921735752
9019,16,Jits_ISO_5,47,9999,9999,9999,1922235484
9019,16,Jits_ISO_5,48,9999,9999,9999,1922735220
9019,16,Jits_ISO_5,49,9999,9999,9999,1923235944
9019,16,Jits_ISO_5,50,9999,9999,9999,1923735668
9019,16,Jits_ISO_5,51,9999,9999,9999,1924235340
9019,16,Jits_ISO_5,52,9999,9999,9999,1924736064
9019,16,Jits_ISO_5,53,9999,9999,9999,1925246004
9019,16,Jits_ISO_5,54,9999,9999,9999,1925745740
9019,16,Jits_ISO_5,55,9999,9999,9999,1926245476
9019,16,Jits_ISO_5,56,9999,9999,9999,1926745208
9019,16,Jits_ISO_5,57,9999,9999,9999,1927245920
9019,16,Jits_ISO_5,58,9999,9999,9999,1927745656
9019,16,Jits_ISO_5,59,9999,9999,9999,1928245300
9019,16,Jits_ISO_5,60,9999,9999,9999,1928746100
9019,16,Jits_ISO_5,61,9999,9999,9999,1929245756
9019,16,Jits_ISO_5,62,9999,9999,9999,1929745504
9019,16,Jits_ISO_5,63,9999,9999,9999,1930245236
9019,16,Jits_ISO_5,64,9999,9999,9999,1930745940
9019,16,Jits_ISO_5,65,9999,9999,9999,1931245680
9019,16,Jits_ISO_5,66,9999,9999,9999,1931745356
9019,16,Jits_ISO_5,67,9999,9999,9999,1932246124
9019,16,Jits_ISO_5,68,9999,9999,9999,1932756048
9019,16,Jits_ISO_5,69,9999,9999,9999,1933255764
9019,16,Jits_ISO_5,70,9999,9999,9999,1933755480
9019,16,Jits_ISO_5,71,9999,9999,9999,1934255212
9019,16,Jits_ISO_5,72,9999,9999,9999,1934755928
9019,16,Jits_ISO_5,73,9999,9999,9999,1935255660
9019,16,Jits_ISO_5,74,9999,9999,9999,1935755336
9019,16,Jits_ISO_5,75,9999,9999,9999,1936256116
9019,16,Jits_ISO_5,76,9999,9999,9999,1936766040
9019,16,Jits_ISO_5,77,9999,9999,9999,1937265776
9019,16,Jits_ISO_5,78,9999,9999,9999,1937765452
9019,16,Jits_ISO_5,79,9999,9999,9999,1938265188
9019,16,Jits_ISO_5,80,9999,9999,9999,1938765896
9019,16,Jits_ISO_5,81,9999,9999,9999,1939265628
9019,16,Jits_ISO_5,82,9999,9999,9999,1939765304
9019,16,Jits_ISO_5,83,9999,9999,9999,1940266084
9019,16,Jits_ISO_5,84,9999,9999,9999,1940765764
9019,16,Jits_ISO_5,85,9999,9999,9999,1941265492
9019,16,Jits_ISO_5,86,9999,9999,9999,1941765224
9019,16,Jits_ISO_5,87,9999,9999,9999,1942265944
9019,16,Jits_ISO_5,88,9999,9999,9999,1942765672
9019,16,Jits_ISO_5,89,9999,9999,9999,1943265344
9019,16,Jits_ISO_5,90,9999,9999,9999,1943766128
9019,16,Jits_ISO_5,91,9999,9999,9999,1944276048
9019,16,Jits_ISO_5,92,9999,9999,9999,1944775760
9019,16,Jits_ISO_5,93,9999,9999,9999,1945275488
9019,16,Jits_ISO_5,94,9999,9999,9999,1945775220
9019,16,Jits_ISO_5,95,9999,9999,9999,1946275940
9019,16,Jits_ISO_5,96,9999,9999,9999,1946775616
9019,16,Jits_ISO_5,97,9999,9999,9999,1947275344
9019,16,Jits_ISO_5,98,9999,9999,9999,1947776124
9019,16,Jits_ISO_5,99,9999,9999,9999,1948286056
9019,16,Jits_ISO_5,100,9999,9999,9999,1948785716
9019,16,Jits_ISO_5,101,9999,9999,9999,1949285452
9019,16,Jits_ISO_5,102,9999,9999,9999,1949785192
9019,16,Jits_ISO_5,103,9999,9999,9999,1950285916
9019,16,Jits_ISO_5,104,9999,9999,9999,1950785648
9019,16,Jits_ISO_5,105,9999,9999,9999,1951285304
9019,16,Jits_ISO_5,106,9999,9999,9999,1951786084
9019,16,Jits_ISO_5,107,9999,9999,9999,1952285816
9019,16,Jits_ISO_5,108,9999,9999,9999,1952785472
9019,16,Jits_ISO_5,109,9999,9999,9999,1953285220
9019,16,Jits_ISO_5,110,9999,9999,9999,1953785936
9019,16,Jits_ISO_5,111,9999,9999,9999,1954285684
9019,16,Jits_ISO_5,112,9999,9999,9999,1954785340
9019,16,Jits_ISO_5,113,9999,9999,9999,1955286124
9019,16,Jits_ISO_5,114,9999,9999,9999,1955796040
9019,16,Jits_ISO_5,115,9999,9999,9999,1956295740
9019,16,Jits_ISO_5,116,9999,9999,9999,1956795468
9019,16,Jits_ISO_5,117,9999,9999,9999,1957295216
9019,16,Jits_ISO_5,118,9999,9999,9999,1957795936
9019,16,Jits_ISO_5,119,9999,9999,9999,1958295640
9020,3,ISIP_8,0,5,42,127,2032227944
9020,3,ISIP_8,1,5,42,127,2033027552
9020,3,ISIP_8,2,1,48,29,2033810136
9020,3,ISIP_8,3,5,42,127,2033828348
9020,3,ISIP_8,4,1,48,35,2034560508
9020,3,ISIP_8,5,5,42,127,2034627856
9020,3,ISIP_8,6,1,48,30,2035344228
9020,3,ISIP_8,7,5,42,127,2035427840
9020,3,ISIP_8,8,1,48,26,2036167524
9020,3,ISIP_8,9,5,42,127,2036227620
9020,3,ISIP_8,10,1,48,37,2036948712
9020,3,ISIP_8,11,5,42,127,2037028328
9020,3,ISIP_8,12,1,48,34,2037790332
9020,3,ISIP_8,13,5,42,127,2037827988
9020,3,ISIP_8,14,1,48,32,2038600536
9020,3,ISIP_8,15,5,42,127,2038627872
9020,3,ISIP_8,16,1,48,28,2039402436
9020,3,ISIP_8,17,5,42,127,2039427384
9020,3,ISIP_8,18,1,48,33,2040135008
9020,3,ISIP_8,19,5,42,127,2040228312
9020,3,ISIP_8,20,1,48,33,2041021508
9020,3,ISIP_8,21,5,42,127,2041027824
9020,3,ISIP_8,22,1,48,31,2041819396
9020,3,ISIP_8,23,5,42,127,2041827804
9020,3,ISIP_8,24,1,48,30,2042600348
9020,3,ISIP_8,25,5,42,127,2042627388
9020,3,ISIP_8,26,1,48,32,2043406816
9020,3,ISIP_8,27,5,42,127,2043428168
9020,3,ISIP_8,28,1,48,34,2044182016
9020,3,ISIP_8,29,5,42,127,2044227900
9020,3,ISIP_8,30,1,48,33,2044969632
9020,3,ISIP_8,31,5,42,127,2045027632
9020,3,ISIP_8,32,1,48,35,2045765176
9020,3,ISIP_8,33,5,42,127,2045827368
9020,3,ISIP_8,34,1,48,34,2046564984
9020,3,ISIP_8,35,5,42,127,2046628148
9020,3,ISIP_8,36,5,42,127,2047427964
9020,3,ISIP_8,37,1,48,30,2047434924
9020,3,ISIP_8,38,5,42,127,2048227796
9020,3,ISIP_8,39,1,48,30,2048292772
9020,3,ISIP_8,40,5,42,127,2049027608
9020,3,ISIP_8,41,1,48,34,2049034764
9020,3,ISIP_8,42,5,42,127,2049828312
9020,3,ISIP_8,43,1,48,33,2049858428
9020,3,ISIP_8,44,5,42,127,2050627896
9020,3,ISIP_8,45,1,48,31,2050645300
9020,3,ISIP_8,46,5,42,127,2051427704
9020,3,ISIP_8,47,1,48,34,2051439348
9020,3,ISIP_8,48,1,48,34,2052190892
9020,3,ISIP_8,49,5,42,127,2052227652
9020,3,ISIP_8,50,1,48,38,2052988308
9020,3,ISIP_8,51,5,42,127,2053028284
9020,3,ISIP_8,52,1,48,34,2053773608
9020,3,ISIP_8,53,5,42,127,2053828016
9020,3,ISIP_8,54,1,48,43,2054583736
9020,3,ISIP_8,55,5,42,127,2054627628
9020,3,ISIP_8,56,1,48,38,2055374072
9020,3,ISIP_8,57,5,42,127,2055427584
9020,3,ISIP_8,58,1,48,40,2056188388
9020,3,ISIP_8,59,1,48,39,2056972936
9020,3,ISIP_8,60,1,48,36,2057783732
9020,3,ISIP_8,61,1,48,37,2058595436
9020,3,ISIP_8,62,1,48,30,2059424036
9020,3,ISIP_8,63,1,48,32,2060240480
9020,3,ISIP_8,64,1,48,32,2061056664
9020,3,ISIP_8,65,1,48,32,2061850260
9020,3,ISIP_8,66,1,48,32,2062619236
9020,3,ISIP_8,67,1,48,29,2063428324
9020,3,ISIP_8,68,1,48,33,2064237708
9020,3,ISIP_8,69,1,48,38,2065024188
9020,3,ISIP_8,70,1,48,34,2065791152
9020,3,ISIP_8,71,1,48,36,2066626576
9020,3,ISIP_8,72,1,48,31,2067420332
9020,3,ISIP_8,73,1,48,41,2068191560
9020,3,ISIP_8,74,1,48,39,2069014776
9020,3,ISIP_8,75,1,48,37,2069781820
9020,3,ISIP_8,76,1,48,38,2070566140
9020,3,ISIP_8,77,1,48,34,2071357264
9020,3,ISIP_8,78,1,48,37,2072124012
9020,3,ISIP_8,79,1,48,39,2072950296
9020,3,ISIP_8,80,1,48,39,2073697816
9020,3,ISIP_8,81,1,48,39,2074436884
9020,3,ISIP_8,82,1,48,42,2075146332
9020,3,ISIP_8,83,1,48,42,2075901332
9020,3,ISIP_8,84,1,48,37,2076658424
9020,3,ISIP_8,85,1,48,37,2077420684
9020,3,ISIP_8,86,1,48,29,2078153392
9020,3,ISIP_8,87,1,48,36,2078931132
9020,3,ISIP_8,88,1,48,39,2079713956
9020,3,ISIP_8,89,1,48,39,2080454072
9020,3,ISIP_8,90,1,48,37,2081194756
9020,3,ISIP_8,91,1,48,42,2081987756
9020,3,ISIP_8,92,1,48,41,2082763128
9020,3,ISIP_8,93,1,48,46,2083554104
9020,3,ISIP_8,94,1,48,36,2084330944
9020,3,ISIP_8,95,1,48,36,2085049720
9020,3,ISIP_8,96,1,48,37,2085838252
9020,3,ISIP_8,97,1,48,40,2086623756
9020,3,ISIP_8,98,1,48,39,2087383544
9020,3,ISIP_8,99,1,48,37,2088155072
9020,3,ISIP_8,100,1,48,36,2088940144
9020,3,ISIP_8,101,1,48,34,2089689164
9020,3,ISIP_8,102,1,48,37,2090416084
9020,3,ISIP_8,103,1,48,36,2091184096
9020,3,ISIP_8,104,1,48,38,2091941344
9020,3,ISIP_8,105,1,48,35,2092705020
9020,3,ISIP_8,106,1,48,39,2093492560
9020,3,ISIP_8,107,1,48,35,2094228404
9020,3,ISIP_8,108,1,48,35,2095043020
9020,3,ISIP_8,109,1,48,39,2095797796
9020,3,ISIP_8,110,1,48,37,2096584760
9020,3,ISIP_8,111,1,48,39,2097351500
9020,3,ISIP_8,112,1,48,37,2098145848
9020,3,ISIP_8,113,1,48,34,2098910720
9020,3,ISIP_8,114,1,48,40,2099694512
9020,3,ISIP_8,115,1,48,37,2100468364
9020,3,ISIP_8,116,1,48,40,2101244608
9020,3,ISIP_8,117,1,48,45,2102006712
9020,3,ISIP_8,118,1,48,43,2102785648
9020,3,ISIP_8,119,1,48,35,2103535336
9020,3,ISIP_8,120,1,48,40,2104343148
9020,3,ISIP_8,121,1,48,40,2105099348
9020,3,ISIP_8,122,1,48,39,2105932884
9020,3,ISIP_8,123,1,48,34,2106689680
9020,3,ISIP_8,124,1,48,40,2107493368
9020,3,ISIP_8,125,1,48,39,2108240812
9020,3,ISIP_8,126,1,48,36,2108979196
9020,3,ISIP_8,127,1,48,40,2109758660
9020,3,ISIP_8,128,1,48,44,2110540212
9020,3,ISIP_8,129,1,48,39,2111331712
9020,3,ISIP_8,130,1,48,27,2112143984
9020,3,ISIP_8,131,1,48,36,2112875944
9020,3,ISIP_8,132,1,48,37,2113652864
9020,3,ISIP_8,133,1,48,41,2114407936
9020,3,ISIP_8,134,1,48,32,2115187692
9020,3,ISIP_8,135,1,48,36,2115972688
9020,3,ISIP_8,136,1,48,37,2116766208
9020,3,ISIP_8,137,1,48,43,2117581740
9020,3,ISIP_8,138,1,48,36,2118333580
9020,3,ISIP_8,139,1,48,41,2119117924
9020,3,ISIP_8,140,1,48,41,2119901944
9020,3,ISIP_8,141,1,48,42,2120680732
9020,3,ISIP_8,142,1,48,35,2121472384
9020,3,ISIP_8,143,1,48,32,2122194620
9020,3,ISIP_8,144,1,48,43,2123058380
9020,3,ISIP_8,145,1,48,40,2123864168
9020,3,ISIP_8,146,1,48,38,2124639736
9020,3,ISIP_8,147,1,48,38,2125393092
9020,3,ISIP_8,148,1,48,42,2126166716
9020,3,ISIP_8,149,1,48,36,2126923288
9020,3,ISIP_8,150,1,48,39,2127693616
9020,3,ISIP_8,151,1,48,36,2128446828
9020,3,ISIP_8,152,1,48,42,2129211404
9020,3,ISIP_8,153,1,48,43,2129942692
9020,3,ISIP_8,154,1,48,41,2130758728
9020,3,ISIP_8,155,1,48,42,2131512152
9020,3,ISIP_8,156,1,48,43,2132279192
9020,3,ISIP_8,157,1,48,41,2133038760
9020,3,ISIP_8,158,1,48,38,2133801820
9020,3,ISIP_8,159,1,48,35,2134594748
9020,3,ISIP_8,160,1,48,38,2135370388
9020,3,ISIP_8,161,1,48,38,2136192036
9020,3,ISIP_8,162,1,48,38,2136961396
9020,3,ISIP_8,163,1,48,44,2137712428
9020,3,ISIP_8,164,1,48,38,2138436388
9020,3,ISIP_8,165,1,48,41,2139212408
9020,3,ISIP_8,166,1,48,36,2140024700
9020,3,ISIP_8,167,1,48,36,2140790028
9020,3,ISIP_8,168,1,48,35,2141593344
9020,3,ISIP_8,169,1,48,38,2142331292
9020,3,ISIP_8,170,1,48,38,2143058612
9020,3,ISIP_8,171,1,48,41,2143825132
9020,3,ISIP_8,172,1,48,36,2144600332
9020,3,ISIP_8,173,1,48,38,2145363108
9020,3,ISIP_8,174,1,48,36,2146105544
9020,3,ISIP_8,175,1,48,34,2146803772
9020,3,ISIP_8,176,1,48,33,2147555704
9020,3,ISIP_8,177,1,48,36,2148310332
9020,3,ISIP_8,178,1,48,39,2149042716
9020,3,ISIP_8,179,1,48,43,2149771524
9020,3,ISIP_8,180,1,48,40,2150521212
9020,3,ISIP_8,181,1,48,39,2151282640
9020,3,ISIP_8,182,1,48,42,2152054924
9020,3,ISIP_8,183,1,48,26,2152109652
9020,3,ISIP_8,0,9999,9999,9999,2032225360
9020,3,ISIP_8,1,9999,9999,9999,2033025116
9020,3,ISIP_8,2,9999,9999,9999,2033825908
9020,3,ISIP_8,3,9999,9999,9999,2034625644
9020,3,ISIP_8,4,9999,9999,9999,2035425328
9020,3,ISIP_8,5,9999,9999,9999,2036225112
9020,3,ISIP_8,6,9999,9999,9999,2037025892
9020,3,ISIP_8,7,9999,9999,9999,2037825628
9020,3,ISIP_8,8,9999,9999,9999,2038625360
9020,3,ISIP_8,9,9999,9999,9999,2039425096
9020,3,ISIP_8,10,9999,9999,9999,2040225876
9020,3,ISIP_8,11,9999,9999,9999,2041025608
9020,3,ISIP_8,12,9999,9999,9999,2041825368
9020,3,ISIP_8,13,9999,9999,9999,2042625100
9020,3,ISIP_8,14,9999,9999,9999,2043425880
9020,3,ISIP_8,15,9999,9999,9999,2044225612
9020,3,ISIP_8,16,9999,9999,9999,2045025348
9020,3,ISIP_8,17,9999,9999,9999,2045825080
9020,3,ISIP_8,18,9999,9999,9999,2046625860
9020,3,ISIP_8,19,9999,9999,9999,2047425600
9020,3,ISIP_8,20,9999,9999,9999,2048225360
9020,3,ISIP_8,21,9999,9999,9999,2049025096
9020,3,ISIP_8,22,9999,9999,9999,2049825872
9020,3,ISIP_8,23,9999,9999,9999,2050625608
9020,3,ISIP_8,24,9999,9999,9999,2051425340
9020,3,ISIP_8,25,9999,9999,9999,2052225140
9020,3,ISIP_8,26,9999,9999,9999,2053025848
9020,3,ISIP_8,27,9999,9999,9999,2053825656
9020,3,ISIP_8,28,9999,9999,9999,2054625336
9020,3,ISIP_8,29,9999,9999,9999,2055425072
9020,3,ISIP_8,30,9999,9999,9999,2056225852
9020,3,ISIP_8,31,9999,9999,9999,2057025656
9020,3,ISIP_8,32,9999,9999,9999,2057825384
9020,3,ISIP_8,33,9999,9999,9999,2058625116
9020,3,ISIP_8,34,9999,9999,9999,2059425892
9020,3,ISIP_8,35,9999,9999,9999,2060225628
9020,3,ISIP_8,36,9999,9999,9999,2061025384
9020,3,ISIP_8,37,9999,9999,9999,2061825112
9020,3,ISIP_8,38,9999,9999,9999,2062625880
9020,3,ISIP_8,39,9999,9999,9999,2063425616
9020,3,ISIP_8,40,9999,9999,9999,2064225348
9020,3,ISIP_8,41,9999,9999,9999,2065025072
9020,3,ISIP_8,42,9999,9999,9999,2065825848
9020,3,ISIP_8,43,9999,9999,9999,2066625656
9020,3,ISIP_8,44,9999,9999,9999,2067425332
9020,3,ISIP_8,45,9999,9999,9999,2068225136
9020,3,ISIP_8,46,9999,9999,9999,2069025912
9020,3,ISIP_8,47,9999,9999,9999,2069825640
9020,3,ISIP_8,48,9999,9999,9999,2070625368
9020,3,ISIP_8,49,9999,9999,9999,2071425100
9020,3,ISIP_8,50,9999,9999,9999,2072225860
9020,3,ISIP_8,51,9999,9999,9999,2073025604
9020,3,ISIP_8,52,9999,9999,9999,2073825344
9020,3,ISIP_8,53,9999,9999,9999,2074625072
9020,3,ISIP_8,54,9999,9999,9999,2075425848
9020,3,ISIP_8,55,9999,9999,9999,2076225652
9020,3,ISIP_8,56,9999,9999,9999,2077025384
9020,3,ISIP_8,57,9999,9999,9999,2077825112
9020,3,ISIP_8,58,9999,9999,9999,2078625888
9020,3,ISIP_8,59,9999,9999,9999,2079425620
9020,3,ISIP_8,60,9999,9999,9999,2080225372
9020,3,ISIP_8,61,9999,9999,9999,2081025100
9020,3,ISIP_8,62,9999,9999,9999,2081825876
9020,3,ISIP_8,63,9999,9999,9999,2082625604
9020,3,ISIP_8,64,9999,9999,9999,2083425336
9020,3,ISIP_8,65,9999,9999,9999,2084225140
9020,3,ISIP_8,66,9999,9999,9999,2085025840
9020,3,ISIP_8,67,9999,9999,9999,2085825644
9020,3,ISIP_8,68,9999,9999,9999,2086625392
9020,3,ISIP_8,69,9999,9999,9999,2087425120
9020,3,ISIP_8,70,9999,9999,9999,2088225896
9020,3,ISIP_8,71,9999,9999,9999,2089025628
9020,3,ISIP_8,72,9999,9999,9999,2089825340
9020,3,ISIP_8,73,9999,9999,9999,2090625072
9020,3,ISIP_8,74,9999,9999,9999,2091425848
9020,3,ISIP_8,75,9999,9999,9999,2092225648
9020,3,ISIP_8,76,9999,9999,9999,2093025328
9020,3,ISIP_8,77,9999,9999,9999,2093825132
9020,3,ISIP_8,78,9999,9999,9999,2094625908
9020,3,ISIP_8,79,9999,9999,9999,2095425636
9020,3,ISIP_8,80,9999,9999,9999,2096225364
9020,3,ISIP_8,81,9999,9999,9999,2097025092
9020,3,ISIP_8,82,9999,9999,9999,2097825868
9020,3,ISIP_8,83,9999,9999,9999,2098625596
9020,3,ISIP_8,84,9999,9999,9999,2099425352
9020,3,ISIP_8,85,9999,9999,9999,2100225080
9020,3,ISIP_8,86,9999,9999,9999,2101025860
9020,3,ISIP_8,87,9999,9999,9999,2101825588
9020,3,ISIP_8,88,9999,9999,9999,2102625392
9020,3,ISIP_8,89,9999,9999,9999,2103425120
9020,3,ISIP_8,90,9999,9999,9999,2104225896
9020,3,ISIP_8,91,9999,9999,9999,2105025628
9020,3,ISIP_8,92,9999,9999,9999,2105825380
9020,3,ISIP_8,93,9999,9999,9999,2106625108
9020,3,ISIP_8,94,9999,9999,9999,2107425884
9020,3,ISIP_8,95,9999,9999,9999,2108225616
9020,3,ISIP_8,96,9999,9999,9999,2109025340
9020,3,ISIP_8,97,9999,9999,9999,2109825140
9020,3,ISIP_8,98,9999,9999,9999,2110625844
9020,3,ISIP_8,99,9999,9999,9999,2111425648
9020,3,ISIP_8,100,9999,9999,9999,2112225376
9020,3,ISIP_8,101,9999,9999,9999,2113025092
9020,3,ISIP_8,102,9999,9999,9999,2113825868
9020,3,ISIP_8,103,9999,9999,9999,2114625596
9020,3,ISIP_8,104,9999,9999,9999,2115425328
9020,3,ISIP_8,105,9999,9999,9999,2116225128
9020,3,ISIP_8,106,9999,9999,9999,2117025904
9020,3,ISIP_8,107,9999,9999,9999,2117825632
9020,3,ISIP_8,108,9999,9999,9999,2118625388
9020,3,ISIP_8,109,9999,9999,9999,2119425116
9020,3,ISIP_8,110,9999,9999,9999,2120225892
9020,3,ISIP_8,111,9999,9999,9999,2121025624
9020,3,ISIP_8,112,9999,9999,9999,2121825352
9020,3,ISIP_8,113,9999,9999,9999,2122625084
9020,3,ISIP_8,114,9999,9999,9999,2123425860
9020,3,ISIP_8,115,9999,9999,9999,2124225588
9020,3,ISIP_8,116,9999,9999,9999,2125025344
9020,3,ISIP_8,117,9999,9999,9999,2125825072
9020,3,ISIP_8,118,9999,9999,9999,2126625848
9020,3,ISIP_8,119,9999,9999,9999,2127425652
9020,3,ISIP_8,120,9999,9999,9999,2128225380
9020,3,ISIP_8,121,9999,9999,9999,2129025112
9020,3,ISIP_8,122,9999,9999,9999,2129825888
9020,3,ISIP_8,123,9999,9999,9999,2130625616
9020,3,ISIP_8,124,9999,9999,9999,2131425372
9020,3,ISIP_8,125,9999,9999,9999,2132225100
9020,3,ISIP_8,126,9999,9999,9999,2133025876
9020,3,ISIP_8,127,9999,9999,9999,2133825600
9020,3,ISIP_8,128,9999,9999,9999,2134625328
9020,3,ISIP_8,129,9999,9999,9999,2135425132
9020,3,ISIP_8,130,9999,9999,9999,2136225908
9020,3,ISIP_8,131,9999,9999,9999,2137025636
9020,3,ISIP_8,132,9999,9999,9999,2137825376
9020,3,ISIP_8,133,9999,9999,9999,2138625104
9020,3,ISIP_8,134,9999,9999,9999,2139425880
9020,3,ISIP_8,135,9999,9999,9999,2140225608
9020,3,ISIP_8,136,9999,9999,9999,2141025340
9020,3,ISIP_8,137,9999,9999,9999,2141825140
9020,3,ISIP_8,138,9999,9999,9999,2142625844
9020,3,ISIP_8,139,9999,9999,9999,2143425648
9020,3,ISIP_8,140,9999,9999,9999,2144225400
9020,3,ISIP_8,141,9999,9999,9999,2145025128
9020,3,ISIP_8,142,9999,9999,9999,2145825904
9020,3,ISIP_8,143,9999,9999,9999,2146625636
9020,3,ISIP_8,144,9999,9999,9999,2147425364
9020,3,ISIP_8,145,9999,9999,9999,2148225092
9020,3,ISIP_8,146,9999,9999,9999,2149025868
9020,3,ISIP_8,147,9999,9999,9999,2149825592
9020,3,ISIP_8,148,9999,9999,9999,2150625328
9020,3,ISIP_8,149,9999,9999,9999,2151425132
9021,5,ISIP_5,0,5,42,127,2174323216
9021,5,ISIP_5,1,5,42,127,2174822712
9021,5,ISIP_5,2,5,42,127,2175322504
9021,5,ISIP_5,3,5,42,127,2175823268
9021,5,ISIP_5,4,1,48,43,2176306564
9021,5,ISIP_5,5,5,42,127,2176323200
9021,5,ISIP_5,6,1,48,42,2176822900
9021,5,ISIP_5,7,5,42,127,2176824240
9021,5,ISIP_5,8,5,42,127,2177323496
9021,5,ISIP_5,9,1,48,41,2177342244
9021,5,ISIP_5,10,5,42,127,2177823264
9021,5,ISIP_5,11,1,48,42,2177858624
9021,5,ISIP_5,12,5,42,127,2178322736
9021,5,ISIP_5,13,1,48,39,2178359140
9021,5,ISIP_5,14,5,42,127,2178822360
9021,5,ISIP_5,15,1,48,42,2178834228
9021,5,ISIP_5,16,5,42,127,2179323176
9021,5,ISIP_5,17,1,48,41,2179337364
9021,5,ISIP_5,18,5,42,127,2179823240
9021,5,ISIP_5,19,1,48,35,2179824208
9021,5,ISIP_5,20,1,48,35,2180321808
9021,5,ISIP_5,21,5,42,127,2180323380
9021,5,ISIP_5,22,1,48,33,2180803596
9021,5,ISIP_5,23,5,42,127,2180823448
9021,5,ISIP_5,24,1,48,38,2181298476
9021,5,ISIP_5,25,5,42,127,2181323216
9021,5,ISIP_5,26,1,48,32,2181802208
9021,5,ISIP_5,27,5,42,127,2181823032
9021,5,ISIP_5,28,1,48,33,2182319076
9021,5,ISIP_5,29,5,42,127,2182322480
9021,5,ISIP_5,30,5,42,127,2182823380
9021,5,ISIP_5,31,1,48,31,2182825972
9021,5,ISIP_5,32,5,42,127,2183323148
9021,5,ISIP_5,33,1,48,40,2183341080
9021,5,ISIP_5,34,1,48,37,2183799092
9021,5,ISIP_5,35,5,42,127,2183822760
9021,5,ISIP_5,36,1,48,46,2184270888
9021,5,ISIP_5,37,5,42,127,2184322308
9021,5,ISIP_5,38,1,48,42,2184809924
9021,5,ISIP_5,39,5,42,127,2184823196
9021,5,ISIP_5,40,1,48,38,2185290096
9021,5,ISIP_5,41,5,42,127,2185323040
9021,5,ISIP_5,42,1,48,40,2185780592
9021,5,ISIP_5,43,5,42,127,2185822516
9021,5,ISIP_5,44,1,48,40,2186291056
9021,5,ISIP_5,45,5,42,127,2186323256
9021,5,ISIP_5,46,1,48,38,2186799876
9021,5,ISIP_5,47,5,42,127,2186823100
9021,5,ISIP_5,48,1,48,36,2187293216
9021,5,ISIP_5,49,5,42,127,2187322944
9021,5,ISIP_5,50,1,48,33,2187791260
9021,5,ISIP_5,51,5,42,127,2187822340
9021,5,ISIP_5,52,1,48,28,2188320504
9021,5,ISIP_5,53,5,42,127,2188323156
9021,5,ISIP_5,54,1,48,28,2188790204
9021,5,ISIP_5,55,5,42,127,2188823072
9021,5,ISIP_5,56,1,48,37,2189303964
9021,5,ISIP_5,57,5,42,127,2189322548
9021,5,ISIP_5,58,1,48,34,2189791912
9021,5,ISIP_5,59,5,42,127,2189823360
9021,5,ISIP_5,60,1,48,28,2190270492
9021,5,ISIP_5,61,5,42,127,2190323056
9021,5,ISIP_5,62,1,48,36,2190812092
9021,5,ISIP_5,63,5,42,127,2190822900
9021,5,ISIP_5,64,1,48,37,2191321472
9021,5,ISIP_5,65,5,42,127,2191323040
9021,5,ISIP_5,66,1,48,35,2191812600
9021,5,ISIP_5,67,5,42,127,2191823112
9021,5,ISIP_5,68,1,48,38,2192310256
9021,5,ISIP_5,69,5,42,127,2192323032
9021,5,ISIP_5,70,1,48,38,2192806732
9021,5,ISIP_5,71,5,42,127,2192822624
9021,5,ISIP_5,72,1,48,35,2193311588
9021,5,ISIP_5,73,5,42,127,2193323440
9021,5,ISIP_5,74,1,48,31,2193779048
9021,5,ISIP_5,75,5,42,127,2193823064
9021,5,ISIP_5,76,1,48,36,2194312700
9021,5,ISIP_5,77,1,48,37,2194828936
9021,5,ISIP_5,78,1,48,36,2195294652
9021,5,ISIP_5,79,1,48,36,2195788580
9021,5,ISIP_5,80,1,48,36,2196291488
9021,5,ISIP_5,81,1,48,39,2196802544
9021,5,ISIP_5,82,1,48,32,2197251000
9021,5,ISIP_5,83,1,48,37,2197772008
9021,5,ISIP_5,84,1,48,36,2198253152
9021,5,ISIP_5,85,1,48,33,2198730476
9021,5,ISIP_5,86,1,48,34,2199231492
9021,5,ISIP_5,87,1,48,39,2199729088
9021,5,ISIP_5,88,1,48,33,2200218600
9021,5,ISIP_5,89,1,48,39,2200710888
9021,5,ISIP_5,90,1,48,39,2201217464
9021,5,ISIP_5,91,1,48,40,2201716552
9021,5,ISIP_5,92,1,48,40,2202216548
9021,5,ISIP_5,93,1,48,39,2202694992
9021,5,ISIP_5,94,1,48,38,2203172540
9021,5,ISIP_5,95,1,48,38,2203660864
9021,5,ISIP_5,96,1,48,36,2204136168
9021,5,ISIP_5,97,1,48,36,2204620828
9021,5,ISIP_5,98,1,48,41,2205097600
9021,5,ISIP_5,99,1,48,36,2205575900
9021,5,ISIP_5,100,1,48,37,2206062496
9021,5,ISIP_5,101,1,48,32,2206548356
9021,5,ISIP_5,102,1,48,37,2207049768
9021,5,ISIP_5,103,1,48,37,2207516700
9021,5,ISIP_5,104,1,48,40,2207998656
9021,5,ISIP_5,105,1,48,37,2208480920
9021,5,ISIP_5,106,1,48,39,2208947972
9021,5,ISIP_5,107,1,48,38,2209450432
9021,5,ISIP_5,108,1,48,39,2209910036
9021,5,ISIP_5,109,1,48,39,2210425956
9021,5,ISIP_5,110,1,48,33,2210884576
9021,5,ISIP_5,111,1,48,35,2211383148
9021,5,ISIP_5,112,1,48,35,2211830108
9021,5,ISIP_5,113,1,48,37,2212331220
9021,5,ISIP_5,114,1,48,37,2212793400
9021,5,ISIP_5,115,1,48,33,2213286956
9021,5,ISIP_5,116,1,48,32,2213735708
9021,5,ISIP_5,117,1,48,36,2214269728
9021,5,ISIP_5,118,1,48,33,2214713548
9021,5,ISIP_5,119,1,48,34,2215226624
9021,5,ISIP_5,120,1,48,32,2215710832
9021,5,ISIP_5,121,1,48,35,2216157112
9021,5,ISIP_5,122,1,48,37,2216666756
9021,5,ISIP_5,123,1,48,35,2217126704
9021,5,ISIP_5,124,1,48,38,2217637388
9021,5,ISIP_5,125,1,48,37,2218145232
9021,5,ISIP_5,126,1,48,37,2218603036
9021,5,ISIP_5,127,1,48,32,2219088068
9021,5,ISIP_5,128,1,48,34,2219543628
9021,5,ISIP_5,129,1,48,38,2220018036
9021,5,ISIP_5,130,1,48,35,2220531792
9021,5,ISIP_5,131,1,48,36,2220990912
9021,5,ISIP_5,132,1,48,29,2221513492
9021,5,ISIP_5,133,1,48,38,2221974412
9021,5,ISIP_5,134,1,48,40,2222431248
9021,5,ISIP_5,135,1,48,34,2222901468
9021,5,ISIP_5,136,1,48,40,2223397192
9021,5,ISIP_5,137,1,48,31,2223872128
9021,5,ISIP_5,138,1,48,40,2224352296
9021,5,ISIP_5,139,1,48,36,2224808860
9021,5,ISIP_5,140,1,48,39,2225320744
9021,5,ISIP_5,141,1,48,35,2225805700
9021,5,ISIP_5,142,1,48,32,2226260512
9021,5,ISIP_5,143,1,48,30,2226718844
9021,5,ISIP_5,144,1,48,32,2227206340
9021,5,ISIP_5,145,1,48,38,2227688676
9021,5,ISIP_5,146,1,48,36,2228161360
9021,5,ISIP_5,147,1,48,42,2228629764
9021,5,ISIP_5,148,1,48,42,2229111652
9021,5,ISIP_5,149,1,48,35,2229591672
9021,5,ISIP_5,150,1,48,36,2230031076
9021,5,ISIP_5,151,1,48,42,2230499948
9021,5,ISIP_5,152,1,48,43,2230991336
9021,5,ISIP_5,153,1,48,36,2231453676
9021,5,ISIP_5,154,1,48,38,2231928312
9021,5,ISIP_5,155,1,48,35,2232388432
9021,5,ISIP_5,156,1,48,36,2232859928
9021,5,ISIP_5,157,1,48,39,2233325812
9021,5,ISIP_5,158,1,48,34,2233784244
9021,5,ISIP_5,159,1,48,32,2234232472
9021,5,ISIP_5,160,1,48,27,2234681456
9021,5,ISIP_5,161,1,48,29,2235196324
9021,5,ISIP_5,162,1,48,33,2235658400
9021,5,ISIP_5,163,1,48,37,2236145592
9021,5,ISIP_5,164,1,48,37,2236602480
9021,5,ISIP_5,165,1,48,32,2237129344
9021,5,ISIP_5,166,1,48,33,2237593552
9021,5,ISIP_5,167,1,48,44,2238055776
9021,5,ISIP_5,168,1,48,40,2238576180
9021,5,ISIP_5,169,1,48,39,2239042212
9021,5,ISIP_5,170,1,48,32,2239511532
9021,5,ISIP_5,171,1,48,31,2239966796
9021,5,ISIP_5,172,1,48,27,2240484592
9021,5,ISIP_5,173,1,48,32,2240960720
9021,5,ISIP_5,174,1,48,30,2241431360
9021,5,ISIP_5,175,1,48,32,2241907940
9021,5,ISIP_5,176,1,48,41,2242383840
9021,5,ISIP_5,177,1,48,43,2242839404
9021,5,ISIP_5,178,1,48,43,2243324656
9021,5,ISIP_5,179,1,48,43,2243797928
9021,5,ISIP_5,180,1,48,40,2244280472
9021,5,ISIP_5,181,1,48,43,2244762808
9021,5,ISIP_5,182,1,48,40,2245212232
9021,5,ISIP_5,183,1,48,43,2245672800
9021,5,ISIP_5,184,1,48,42,2246155592
9021,5,ISIP_5,185,1,48,34,2246613840
9021,5,ISIP_5,186,1,48,35,2247101016
9021,5,ISIP_5,187,1,48,40,2247559792
9021,5,ISIP_5,188,1,48,38,2248031880
9021,5,ISIP_5,189,1,48,41,2248487516
9021,5,ISIP_5,190,1,48,39,2248934628
9021,5,ISIP_5,191,1,48,38,2249369892
9021,5,ISIP_5,192,1,48,33,2249857540
9021,5,ISIP_5,193,1,48,39,2250360372
9021,5,ISIP_5,194,1,48,40,2250833136
9021,5,ISIP_5,195,1,48,35,2251306556
9021,5,ISIP_5,196,1,48,41,2251771540
9021,5,ISIP_5,197,1,48,41,2252256276
9021,5,ISIP_5,198,1,48,41,2252736816
9021,5,ISIP_5,199,1,48,35,2253189360
9021,5,ISIP_5,200,1,48,43,2253682916
9021,5,ISIP_5,201,1,48,37,2254155528
9021,5,ISIP_5,0,9999,9999,9999,2174320708
9021,5,ISIP_5,1,9999,9999,9999,2174820424
9021,5,ISIP_5,2,9999,9999,9999,2175320140
9021,5,ISIP_5,3,9999,9999,9999,2175820904
9021,5,ISIP_5,4,9999,9999,9999,2176320616
9021,5,ISIP_5,5,9999,9999,9999,2176820316
9021,5,ISIP_5,6,9999,9999,9999,2177321056
9021,5,ISIP_5,7,9999,9999,9999,2177820752
9021,5,ISIP_5,8,9999,9999,9999,2178320448
9021,5,ISIP_5,9,9999,9999,9999,2178820144
9021,5,ISIP_5,10,9999,9999,9999,2179320888
9021,5,ISIP_5,11,9999,9999,9999,2179820656
9021,5,ISIP_5,12,9999,9999,9999,2180320352
9021,5,ISIP_5,13,9999,9999,9999,2180821084
9021,5,ISIP_5,14,9999,9999,9999,2181320780
9021,5,ISIP_5,15,9999,9999,9999,2181820524
9021,5,ISIP_5,16,9999,9999,9999,2182320192
9021,5,ISIP_5,17,9999,9999,9999,2182820944
9021,5,ISIP_5,18,9999,9999,9999,2183320636
9021,5,ISIP_5,19,9999,9999,9999,2183820400
9021,5,ISIP_5,20,9999,9999,9999,2184320092
9021,5,ISIP_5,21,9999,9999,9999,2184820832
9021,5,ISIP_5,22,9999,9999,9999,2185320532
9021,5,ISIP_5,23,9999,9999,9999,2185820224
9021,5,ISIP_5,24,9999,9999,9999,2186320968
9021,5,ISIP_5,25,9999,9999,9999,2186820664
9021,5,ISIP_5,26,9999,9999,9999,2187320432
9021,5,ISIP_5,27,9999,9999,9999,2187820128
9021,5,ISIP_5,28,9999,9999,9999,2188320868
9021,5,ISIP_5,29,9999,9999,9999,2188820564
9021,5,ISIP_5,30,9999,9999,9999,2189320260
9021,5,ISIP_5,31,9999,9999,9999,2189821000
9021,5,ISIP_5,32,9999,9999,9999,2190320696
9021,5,ISIP_5,33,9999,9999,9999,2190820464
9021,5,ISIP_5,34,9999,9999,9999,2191320164
9021,5,ISIP_5,35,9999,9999,9999,2191820900
9021,5,ISIP_5,36,9999,9999,9999,2192320596
9021,5,ISIP_5,37,9999,9999,9999,2192820340
9021,5,ISIP_5,38,9999,9999,9999,2193321080
9021,5,ISIP_5,39,9999,9999,9999,2193820776
9021,5,ISIP_5,40,9999,9999,9999,2194320472
9021,5,ISIP_5,41,9999,9999,9999,2194820168
9021,5,ISIP_5,42,9999,9999,9999,2195320896
9021,5,ISIP_5,43,9999,9999,9999,2195820660
9021,5,ISIP_5,44,9999,9999,9999,2196320352
9021,5,ISIP_5,45,9999,9999,9999,2196821088
9021,5,ISIP_5,46,9999,9999,9999,2197320780
9021,5,ISIP_5,47,9999,9999,9999,2197820472
9021,5,ISIP_5,48,9999,9999,9999,2198320236
9021,5,ISIP_5,49,9999,9999,9999,2198820920
9021,5,ISIP_5,50,9999,9999,9999,2199320664
9021,5,ISIP_5,51,9999,9999,9999,2199820356
9021,5,ISIP_5,52,9999,9999,9999,2200320108
9021,5,ISIP_5,53,9999,9999,9999,2200820844
9021,5,ISIP_5,54,9999,9999,9999,2201320532
9021,5,ISIP_5,55,9999,9999,9999,2201820224
9021,5,ISIP_5,56,9999,9999,9999,2202320960
9021,5,ISIP_5,57,9999,9999,9999,2202820728
9021,5,ISIP_5,58,9999,9999,9999,2203320392
9021,5,ISIP_5,59,9999,9999,9999,2203820084
9021,5,ISIP_5,60,9999,9999,9999,2204320820
9021,5,ISIP_5,61,9999,9999,9999,2204820584
9021,5,ISIP_5,62,9999,9999,9999,2205320276
9021,5,ISIP_5,63,9999,9999,9999,2205821012
9021,5,ISIP_5,64,9999,9999,9999,2206320704
9021,5,ISIP_5,65,9999,9999,9999,2206820468
9021,5,ISIP_5,66,9999,9999,9999,2207320160
9021,5,ISIP_5,67,9999,9999,9999,2207820896
9021,5,ISIP_5,68,9999,9999,9999,2208320588
9021,5,ISIP_5,69,9999,9999,9999,2208820280
9021,5,ISIP_5,70,9999,9999,9999,2209321016
9021,5,ISIP_5,71,9999,9999,9999,2209820780
9021,5,ISIP_5,72,9999,9999,9999,2210320472
9021,5,ISIP_5,73,9999,9999,9999,2210820164
9021,5,ISIP_5,74,9999,9999,9999,2211320900
9021,5,ISIP_5,75,9999,9999,9999,2211820664
9021,5,ISIP_5,76,9999,9999,9999,2212320356
9021,5,ISIP_5,77,9999,9999,9999,2212821088
9021,5,ISIP_5,78,9999,9999,9999,2213320780
9021,5,ISIP_5,79,9999,9999,9999,2213820516
9021,5,ISIP_5,80,9999,9999,9999,2214320208
9021,5,ISIP_5,81,9999,9999,9999,2214820932
9021,5,ISIP_5,82,9999,9999,9999,2215320696
9021,5,ISIP_5,83,9999,9999,9999,2215820384
9021,5,ISIP_5,84,9999,9999,9999,2216320076
9021,5,ISIP_5,85,9999,9999,9999,2216820812
9021,5,ISIP_5,86,9999,9999,9999,2217320504
9021,5,ISIP_5,87,9999,9999,9999,2217820268
9021,5,ISIP_5,88,9999,9999,9999,2218321008
9021,5,ISIP_5,89,9999,9999,9999,2218820700
9021,5,ISIP_5,90,9999,9999,9999,2219320388
9021,5,ISIP_5,91,9999,9999,9999,2219820080
9021,5,ISIP_5,92,9999,9999,9999,2220320816
9021,5,ISIP_5,93,9999,9999,9999,2220820584
9021,5,ISIP_5,94,9999,9999,9999,2221320248
9021,5,ISIP_5,95,9999,9999,9999,2221820984
9021,5,ISIP_5,96,9999,9999,9999,2222320756
9021,5,ISIP_5,97,9999,9999,9999,2222820444
9021,5,ISIP_5,98,9999,9999,9999,2223320136
9021,5,ISIP_5,99,9999,9999,9999,2223820872
9021,5,ISIP_5,100,9999,9999,9999,2224320564
9021,5,ISIP_5,101,9999,9999,9999,2224820296
9021,5,ISIP_5,102,9999,9999,9999,2225321036
9021,5,ISIP_5,103,9999,9999,9999,2225820724
9021,5,ISIP_5,104,9999,9999,9999,2226320492
9021,5,ISIP_5,105,9999,9999,9999,2226820164
9021,5,ISIP_5,106,9999,9999,9999,2227320904
9021,5,ISIP_5,107,9999,9999,9999,2227820592
9021,5,ISIP_5,108,9999,9999,9999,2228320360
9021,5,ISIP_5,109,9999,9999,9999,2228821096
9021,5,ISIP_5,110,9999,9999,9999,2229320788
9021,5,ISIP_5,111,9999,9999,9999,2229820476
9021,5,ISIP_5,112,9999,9999,9999,2230320244
9021,5,ISIP_5,113,9999,9999,9999,2230820980
9021,5,ISIP_5,114,9999,9999,9999,2231320672
9021,5,ISIP_5,115,9999,9999,9999,2231820364
9021,5,ISIP_5,116,9999,9999,9999,2232320056
9021,5,ISIP_5,117,9999,9999,9999,2232820792
9021,5,ISIP_5,118,9999,9999,9999,2233320556
9021,5,ISIP_5,119,9999,9999,9999,2233820240
9021,5,ISIP_5,120,9999,9999,9999,2234320976
9021,5,ISIP_5,121,9999,9999,9999,2234820728
9021,5,ISIP_5,122,9999,9999,9999,2235320392
9021,5,ISIP_5,123,9999,9999,9999,2235820084
9021,5,ISIP_5,124,9999,9999,9999,2236320824
9021,5,ISIP_5,125,9999,9999,9999,2236820588
9021,5,ISIP_5,126,9999,9999,9999,2237320280
9021,5,ISIP_5,127,9999,9999,9999,2237821016
9021,5,ISIP_5,128,9999,9999,9999,2238320708
9021,5,ISIP_5,129,9999,9999,9999,2238820472
9021,5,ISIP_5,130,9999,9999,9999,2239320160
9021,5,ISIP_5,131,9999,9999,9999,2239820900
9021,5,ISIP_5,132,9999,9999,9999,2240320592
9021,5,ISIP_5,133,9999,9999,9999,2240820280
9021,5,ISIP_5,134,9999,9999,9999,2241321020
9021,5,ISIP_5,135,9999,9999,9999,2241820784
9021,5,ISIP_5,136,9999,9999,9999,2242320472
9021,5,ISIP_5,137,9999,9999,9999,2242820164
9021,5,ISIP_5,138,9999,9999,9999,2243320900
9021,5,ISIP_5,139,9999,9999,9999,2243820660
9021,5,ISIP_5,140,9999,9999,9999,2244320352
9021,5,ISIP_5,141,9999,9999,9999,2244821088
9021,5,ISIP_5,142,9999,9999,9999,2245320764
9021,5,ISIP_5,143,9999,9999,9999,2245820504
9021,5,ISIP_5,144,9999,9999,9999,2246320196
9021,5,ISIP_5,145,9999,9999,9999,2246820932
9021,5,ISIP_5,146,9999,9999,9999,2247320696
9021,5,ISIP_5,147,9999,9999,9999,2247820388
9021,5,ISIP_5,148,9999,9999,9999,2248320080
9021,5,ISIP_5,149,9999,9999,9999,2248820816
9021,5,ISIP_5,150,9999,9999,9999,2249320508
9021,5,ISIP_5,151,9999,9999,9999,2249820272
9021,5,ISIP_5,152,9999,9999,9999,2250321012
9021,5,ISIP_5,153,9999,9999,9999,2250820700
9021,5,ISIP_5,154,9999,9999,9999,2251320384
9021,5,ISIP_5,155,9999,9999,9999,2251820152
9021,5,ISIP_5,156,9999,9999,9999,2252320816
9021,5,ISIP_5,157,9999,9999,9999,2252820580
9021,5,ISIP_5,158,9999,9999,9999,2253320256
9021,5,ISIP_5,159,9999,9999,9999,2253820992
9022,11,Pattern_Practice,0,5,42,127,2370604512
9022,11,Pattern_Practice,1,5,42,127,2371104080
9022,11,Pattern_Practice,2,5,42,127,2371603796
9022,11,Pattern_Practice,3,5,42,127,2372103584
9022,11,Pattern_Practice,4,5,42,127,2372604348
9022,11,Pattern_Practice,5,1,48,36,2372655116
9022,11,Pattern_Practice,6,5,42,127,2373103972
9022,11,Pattern_Practice,7,1,48,41,2373160492
9022,11,Pattern_Practice,8,5,42,127,2373603664
9022,11,Pattern_Practice,9,5,42,127,2374104504
9022,11,Pattern_Practice,10,1,48,37,2374595652
9022,11,Pattern_Practice,11,5,42,127,2374604064
9022,11,Pattern_Practice,12,5,42,127,2375103912
9022,11,Pattern_Practice,13,1,48,39,2375105028
9022,11,Pattern_Practice,14,5,42,127,2375603508
9022,11,Pattern_Practice,15,1,38,48,2375634328
9022,11,Pattern_Practice,16,1,48,47,2376089924
9022,11,Pattern_Practice,17,5,42,127,2376104540
9022,11,Pattern_Practice,18,1,48,52,2376576084
9022,11,Pattern_Practice,19,5,42,127,2376603940
9022,11,Pattern_Practice,20,1,38,25,2377086324
9022,11,Pattern_Practice,21,5,42,127,2377103708
9022,11,Pattern_Practice,22,1,48,41,2377566044
9022,11,Pattern_Practice,23,5,42,127,2377603476
9022,11,Pattern_Practice,24,1,48,46,2378095356
9022,11,Pattern_Practice,25,5,42,127,2378104144
9022,11,Pattern_Practice,26,1,38,49,2378589068
9022,11,Pattern_Practice,27,5,42,127,2378603764
9022,11,Pattern_Practice,28,1,48,52,2379100212
9022,11,Pattern_Practice,29,5,42,127,2379103532
9022,11,Pattern_Practice,30,5,42,127,2379604504
9022,11,Pattern_Practice,31,1,48,51,2379609644
9022,11,Pattern_Practice,32,5,42,127,2380103976
9022,11,Pattern_Practice,33,1,38,59,2380121380
9022,11,Pattern_Practice,34,1,38,27,2380177080
9022,11,Pattern_Practice,35,5,42,127,2380603872
9022,11,Pattern_Practice,36,1,48,53,2380633916
9022,11,Pattern_Practice,37,1,48,51,2380891152
9022,11,Pattern_Practice,38,5,42,127,2381103324
9022,11,Pattern_Practice,39,1,48,44,2381142568
9022,11,Pattern_Practice,40,5,42,127,2381604064
9022,11,Pattern_Practice,41,1,38,51,2381611892
9022,11,Pattern_Practice,42,1,48,51,2382100124
9022,11,Pattern_Practice,43,5,42,127,2382103900
9022,11,Pattern_Practice,44,1,48,58,2382329104
9022,11,Pattern_Practice,45,1,48,51,2382581472
9022,11,Pattern_Practice,46,5,42,127,2382603572
9022,11,Pattern_Practice,47,1,38,63,2383049304
9022,11,Pattern_Practice,48,5,42,127,2383104540
9022,11,Pattern_Practice,49,1,38,39,2383109064
9022,11,Pattern_Practice,50,1,48,48,2383590496
9022,11,Pattern_Practice,51,5,42,127,2383604140
9022,11,Pattern_Practice,52,1,48,56,2383809672
9022,11,Pattern_Practice,53,1,48,32,2383865972
9022,11,Pattern_Practice,54,1,48,43,2384062388
9022,11,Pattern_Practice,55,5,42,127,2384103640
9022,11,Pattern_Practice,56,1,38,53,2384578992
9022,11,Pattern_Practice,57,5,42,127,2384603560
9022,11,Pattern_Practice,58,1,48,47,2385077692
9022,11,Pattern_Practice,59,5,42,127,2385104524
9022,11,Pattern_Practice,60,1,48,62,2385319160
9022,11,Pattern_Practice,61,1,48,29,2385394860
9022,11,Pattern_Practice,62,1,48,50,2385596516
9022,11,Pattern_Practice,63,5,42,127,2385603952
9022,11,Pattern_Practice,64,1,38,52,2386048464
9022,11,Pattern_Practice,65,5,42,127,2386103572
9022,11,Pattern_Practice,66,1,38,36,2386573368
9022,11,Pattern_Practice,67,5,42,127,2386604512
9022,11,Pattern_Practice,68,1,48,57,2387089964
9022,11,Pattern_Practice,69,5,42,127,2387104208
9022,11,Pattern_Practice,70,1,48,53,2387336444
9022,11,Pattern_Practice,71,5,42,127,2387603740
9022,11,Pattern_Practice,72,1,48,50,2387642036
9022,11,Pattern_Practice,73,5,42,127,2388103436
9022,11,Pattern_Practice,74,1,38,16,2388122332
9022,11,Pattern_Practice,75,1,38,29,2388602284
9022,11,Pattern_Practice,76,5,42,127,2388604468
9022,11,Pattern_Practice,77,1,48,16,2388615140
9022,11,Pattern_Practice,78,5,42,127,2389103836
9022,11,Pattern_Practice,79,1,48,52,2389107476
9022,11,Pattern_Practice,80,1,48,22,2389318408
9022,11,Pattern_Practice,81,1,48,46,2389587164
9022,11,Pattern_Practice,82,5,42,127,2389603800
9022,11,Pattern_Practice,83,1,48,19,2389679008
9022,11,Pattern_Practice,84,5,42,127,2390104304
9022,11,Pattern_Practice,85,1,38,52,2390127696
9022,11,Pattern_Practice,86,1,38,60,2390594304
9022,11,Pattern_Practice,87,5,42,127,2390604140
9022,11,Pattern_Practice,88,5,42,127,2391103916
9022,11,Pattern_Practice,89,1,48,54,2391130596
9022,11,Pattern_Practice,90,1,48,53,2391361648
9022,11,Pattern_Practice,91,1,48,49,2391598612
9022,11,Pattern_Practice,92,5,42,127,2391603432
9022,11,Pattern_Practice,93,1,48,44,2392005856
9022,11,Pattern_Practice,94,5,42,127,2392104380
9022,11,Pattern_Practice,95,1,48,57,2392595684
9022,11,Pattern_Practice,96,5,42,127,2392603868
9022,11,Pattern_Practice,97,5,42,127,2393103868
9022,11,Pattern_Practice,98,1,48,69,2393117532
9022,11,Pattern_Practice,99,1,48,36,2393160748
9022,11,Pattern_Practice,100,5,42,127,2393603392
9022,11,Pattern_Practice,101,1,38,43,2393629776
9022,11,Pattern_Practice,102,5,42,127,2394104284
9022,11,Pattern_Practice,103,1,48,48,2394135152
9022,11,Pattern_Practice,104,1,38,50,2394591968
9022,11,Pattern_Practice,105,5,42,127,2394603824
9022,11,Pattern_Practice,106,5,42,127,2395103524
9022,11,Pattern_Practice,107,1,48,62,2395111352
9022,11,Pattern_Practice,108,1,48,60,2395597344
9022,11,Pattern_Practice,109,5,42,127,2395604260
9022,11,Pattern_Practice,110,1,48,61,2395845772
9022,11,Pattern_Practice,111,1,48,65,2396082856
9022,11,Pattern_Practice,112,5,42,127,2396104156
9022,11,Pattern_Practice,113,5,42,127,2396603636
9022,11,Pattern_Practice,114,1,38,62,2396612064
9022,11,Pattern_Practice,115,1,38,36,2396661036
9022,11,Pattern_Practice,116,1,48,56,2397094940
9022,11,Pattern_Practice,117,5,42,127,2397103428
9022,11,Pattern_Practice,118,1,48,61,2397336332
9022,11,Pattern_Practice,119,1,48,62,2397581296
9022,11,Pattern_Practice,120,5,42,127,2397604296
9022,11,Pattern_Practice,121,1,48,39,2397616376
9022,11,Pattern_Practice,122,1,38,65,2398059952
9022,11,Pattern_Practice,123,5,42,127,2398103892
9022,11,Pattern_Practice,124,1,38,89,2398553216
9022,11,Pattern_Practice,125,5,42,127,2398603588
9022,11,Pattern_Practice,126,1,38,43,2398607592
9022,11,Pattern_Practice,127,1,48,53,2399061268
9022,11,Pattern_Practice,128,5,42,127,2399104384
9022,11,Pattern_Practice,129,1,48,63,2399303256
9022,11,Pattern_Practice,130,1,48,33,2399355296
9022,11,Pattern_Practice,131,1,48,61,2399580736
9022,11,Pattern_Practice,132,5,42,127,2399604256
9022,11,Pattern_Practice,133,1,38,57,2400088960
9022,11,Pattern_Practice,134,5,42,127,2400103732
9022,11,Pattern_Practice,135,1,38,73,2400567340
9022,11,Pattern_Practice,136,1,38,48,2400597388
9022,11,Pattern_Practice,137,5,42,127,2400603404
9022,11,Pattern_Practice,138,5,42,127,2401104228
9022,11,Pattern_Practice,139,1,48,51,2401113184
9022,11,Pattern_Practice,140,1,48,60,2401602176
9022,11,Pattern_Practice,141,5,42,127,2401603916
9022,11,Pattern_Practice,142,1,38,56,2402102176
9022,11,Pattern_Practice,143,5,42,127,2402104804
9022,11,Pattern_Practice,144,1,38,28,2402153912
9022,11,Pattern_Practice,145,1,48,62,2402583276
9022,11,Pattern_Practice,146,5,42,127,2402604480
9022,11,Pattern_Practice,147,1,48,52,2402794752
9022,11,Pattern_Practice,148,1,48,60,2403087664
9022,11,Pattern_Practice,149,5,42,127,2403104228
9022,11,Pattern_Practice,150,1,38,53,2403573596
9022,11,Pattern_Practice,151,5,42,127,2403603848
9022,11,Pattern_Practice,152,1,38,72,2404092140
9022,11,Pattern_Practice,153,5,42,127,2404103468
9022,11,Pattern_Practice,154,5,42,127,2404604364
9022,11,Pattern_Practice,155,1,48,51,2404613320
9022,11,Pattern_Practice,156,1,48,51,2404841376
9022,11,Pattern_Practice,157,1,48,50,2405077744
9022,11,Pattern_Practice,158,5,42,127,2405104108
9022,11,Pattern_Practice,159,5,42,127,2405603656
9022,11,Pattern_Practice,160,1,38,56,2405647164
9022,11,Pattern_Practice,161,5,42,127,2406104324
9022,11,Pattern_Practice,162,1,38,56,2406117544
9022,11,Pattern_Practice,163,1,48,59,2406578228
9022,11,Pattern_Practice,164,5,42,127,2406604312
9022,11,Pattern_Practice,165,1,48,57,2406807496
9022,11,Pattern_Practice,166,1,48,60,2407094452
9022,11,Pattern_Practice,167,5,42,127,2407104056
9022,11,Pattern_Practice,168,1,38,66,2407538320
9022,11,Pattern_Practice,169,5,42,127,2407603504
9022,11,Pattern_Practice,170,1,48,59,2407991264
9022,11,Pattern_Practice,171,5,42,127,2408104304
9022,11,Pattern_Practice,172,1,48,55,2408230640
9022,11,Pattern_Practice,173,5,42,127,2408604148
9022,11,Pattern_Practice,174,1,38,43,2408614376
9022,11,Pattern_Practice,175,5,42,127,2409103772
9022,11,Pattern_Practice,176,1,48,53,2409131796
9022,11,Pattern_Practice,177,5,42,127,2409603388
9022,11,Pattern_Practice,178,1,38,49,2409621464
9022,11,Pattern_Practice,179,5,42,127,2410104204
9022,11,Pattern_Practice,180,1,48,56,2410112708
9022,11,Pattern_Practice,181,1,48,58,2410600792
9022,11,Pattern_Practice,0,9999,9999,9999,2370602076
9022,11,Pattern_Practice,1,9999,9999,9999,2371101792
9022,11,Pattern_Practice,2,9999,9999,9999,2371601508
9022,11,Pattern_Practice,3,9999,9999,9999,2372101224
9022,11,Pattern_Practice,4,9999,9999,9999,2372601912
9022,11,Pattern_Practice,5,9999,9999,9999,2373101684
9022,11,Pattern_Practice,6,9999,9999,9999,2373601376
9022,11,Pattern_Practice,7,9999,9999,9999,2374102068
9022,11,Pattern_Practice,8,9999,9999,9999,2374601848
9022,11,Pattern_Practice,9,9999,9999,9999,2375101552
9022,11,Pattern_Practice,10,9999,9999,9999,2375601220
9022,11,Pattern_Practice,11,9999,9999,9999,2376101956
9022,11,Pattern_Practice,12,9999,9999,9999,2376601652
9022,11,Pattern_Practice,13,9999,9999,9999,2377101420
9022,11,Pattern_Practice,14,9999,9999,9999,2377601116
9022,11,Pattern_Practice,15,9999,9999,9999,2378101856
9022,11,Pattern_Practice,16,9999,9999,9999,2378601552
9022,11,Pattern_Practice,17,9999,9999,9999,2379101244
9022,11,Pattern_Practice,18,9999,9999,9999,2379601992
9022,11,Pattern_Practice,19,9999,9999,9999,2380101688
9022,11,Pattern_Practice,20,9999,9999,9999,2380601436
9022,11,Pattern_Practice,21,9999,9999,9999,2381101108
9022,11,Pattern_Practice,22,9999,9999,9999,2381601848
9022,11,Pattern_Practice,23,9999,9999,9999,2382101612
9022,11,Pattern_Practice,24,9999,9999,9999,2382601284
9022,11,Pattern_Practice,25,9999,9999,9999,2383102028
9022,11,Pattern_Practice,26,9999,9999,9999,2383601776
9022,11,Pattern_Practice,27,9999,9999,9999,2384101428
9022,11,Pattern_Practice,28,9999,9999,9999,2384601196
9022,11,Pattern_Practice,29,9999,9999,9999,2385101940
9022,11,Pattern_Practice,30,9999,9999,9999,2385601592
9022,11,Pattern_Practice,31,9999,9999,9999,2386101336
9022,11,Pattern_Practice,32,9999,9999,9999,2386602076
9022,11,Pattern_Practice,33,9999,9999,9999,2387101772
9022,11,Pattern_Practice,34,9999,9999,9999,2387601528
9022,11,Pattern_Practice,35,9999,9999,9999,2388101220
9022,11,Pattern_Practice,36,9999,9999,9999,2388601912
9022,11,Pattern_Practice,37,9999,9999,9999,2389101624
9022,11,Pattern_Practice,38,9999,9999,9999,2389601364
9022,11,Pattern_Practice,39,9999,9999,9999,2390102092
9022,11,Pattern_Practice,40,9999,9999,9999,2390601776
9022,11,Pattern_Practice,41,9999,9999,9999,2391101552
9022,11,Pattern_Practice,42,9999,9999,9999,2391601220
9022,11,Pattern_Practice,43,9999,9999,9999,2392101944
9022,11,Pattern_Practice,44,9999,9999,9999,2392601656
9022,11,Pattern_Practice,45,9999,9999,9999,2393101432
9022,11,Pattern_Practice,46,9999,9999,9999,2393601104
9022,11,Pattern_Practice,47,9999,9999,9999,2394101844
9022,11,Pattern_Practice,48,9999,9999,9999,2394601536
9022,11,Pattern_Practice,49,9999,9999,9999,2395101236
9022,11,Pattern_Practice,50,9999,9999,9999,2395601972
9022,11,Pattern_Practice,51,9999,9999,9999,2396101720
9022,11,Pattern_Practice,52,9999,9999,9999,2396601424
9022,11,Pattern_Practice,53,9999,9999,9999,2397101140
9022,11,Pattern_Practice,54,9999,9999,9999,2397601856
9022,11,Pattern_Practice,55,9999,9999,9999,2398101604
9022,11,Pattern_Practice,56,9999,9999,9999,2398601300
9022,11,Pattern_Practice,57,9999,9999,9999,2399102020
9022,11,Pattern_Practice,58,9999,9999,9999,2399601748
9022,11,Pattern_Practice,59,9999,9999,9999,2400101444
9022,11,Pattern_Practice,60,9999,9999,9999,2400601192
9022,11,Pattern_Practice,61,9999,9999,9999,2401101940
9022,11,Pattern_Practice,62,9999,9999,9999,2401601652
9022,11,Pattern_Practice,63,9999,9999,9999,2402101328
9022,11,Pattern_Practice,64,9999,9999,9999,2402602044
9022,11,Pattern_Practice,65,9999,9999,9999,2403101792
9022,11,Pattern_Practice,66,9999,9999,9999,2403601488
9022,11,Pattern_Practice,67,9999,9999,9999,2404101180
9022,11,Pattern_Practice,68,9999,9999,9999,2404601928
9022,11,Pattern_Practice,69,9999,9999,9999,2405101672
9022,11,Pattern_Practice,70,9999,9999,9999,2405601372
9022,11,Pattern_Practice,71,9999,9999,9999,2406102112
9022,11,Pattern_Practice,72,9999,9999,9999,2406601800
9022,11,Pattern_Practice,73,9999,9999,9999,2407101548
9022,11,Pattern_Practice,74,9999,9999,9999,2407601220
9022,11,Pattern_Practice,75,9999,9999,9999,2408101944
9022,11,Pattern_Practice,76,9999,9999,9999,2408601712
9022,11,Pattern_Practice,77,9999,9999,9999,2409101408
9022,11,Pattern_Practice,78,9999,9999,9999,2409601100
9022,11,Pattern_Practice,79,9999,9999,9999,2410101844
9023,13,Improv_Metronome,0,5,42,127,2445330852
9023,13,Improv_Metronome,1,5,42,127,2445830496
9023,13,Improv_Metronome,2,5,42,127,2446331108
9023,13,Improv_Metronome,3,5,42,127,2446830824
9023,13,Improv_Metronome,4,1,48,53,2446843592
9023,13,Improv_Metronome,5,1,48,33,2447088256
9023,13,Improv_Metronome,6,5,42,127,2447330796
9023,13,Improv_Metronome,7,1,48,49,2447341020
9023,13,Improv_Metronome,8,5,42,127,2447831760
9023,13,Improv_Metronome,9,1,38,31,2447855004
9023,13,Improv_Metronome,10,1,48,16,2447868076
9023,13,Improv_Metronome,11,5,42,127,2448331112
9023,13,Improv_Metronome,12,1,48,57,2448381056
9023,13,Improv_Metronome,13,1,48,25,2448617644
9023,13,Improv_Metronome,14,5,42,127,2448830932
9023,13,Improv_Metronome,15,1,48,56,2448844372
9023,13,Improv_Metronome,16,5,42,127,2449330752
9023,13,Improv_Metronome,17,1,38,51,2449336592
9023,13,Improv_Metronome,18,5,42,127,2449831268
9023,13,Improv_Metronome,19,1,48,52,2449850796
9023,13,Improv_Metronome,20,1,48,60,2450089600
9023,13,Improv_Metronome,21,5,42,127,2450331092
9023,13,Improv_Metronome,22,1,48,54,2450341020
9023,13,Improv_Metronome,23,1,38,33,2450814660
9023,13,Improv_Metronome,24,5,42,127,2450830704
9023,13,Improv_Metronome,25,5,42,127,2451330628
9023,13,Improv_Metronome,26,1,48,65,2451362020
9023,13,Improv_Metronome,27,5,42,127,2451831072
9023,13,Improv_Metronome,28,1,48,46,2451849676
9023,13,Improv_Metronome,29,5,42,127,2452330768
9023,13,Improv_Metronome,30,1,38,28,2452343308
9023,13,Improv_Metronome,31,5,42,127,2452830684
9023,13,Improv_Metronome,32,1,48,54,2452859532
9023,13,Improv_Metronome,33,1,48,69,2453314476
9023,13,Improv_Metronome,34,5,42,127,2453331268
9023,13,Improv_Metronome,35,5,42,127,2453830972
9023,13,Improv_Metronome,36,1,38,25,2453886076
9023,13,Improv_Metronome,37,5,42,127,2454330664
9023,13,Improv_Metronome,38,1,48,66,2454358840
9023,13,Improv_Metronome,39,1,48,24,2454565804
9023,13,Improv_Metronome,40,1,48,61,2454827528
9023,13,Improv_Metronome,41,5,42,127,2454830628
9023,13,Improv_Metronome,42,1,38,57,2455302244
9023,13,Improv_Metronome,43,5,42,127,2455331220
9023,13,Improv_Metronome,44,1,48,59,2455831296
9023,13,Improv_Metronome,45,5,42,127,2455832412
9023,13,Improv_Metronome,46,1,48,59,2456071604
9023,13,Improv_Metronome,47,1,48,57,2456307592
9023,13,Improv_Metronome,48,5,42,127,2456330668
9023,13,Improv_Metronome,49,1,38,32,2456769596
9023,13,Improv_Metronome,50,1,48,16,2456782732
9023,13,Improv_Metronome,51,5,42,127,2456831464
9023,13,Improv_Metronome,52,1,48,61,2457292204
9023,13,Improv_Metronome,53,5,42,127,2457330980
9023,13,Improv_Metronome,54,1,48,76,2457805580
9023,13,Improv_Metronome,55,5,42,127,2457830824
9023,13,Improv_Metronome,56,1,38,69,2458315828
9023,13,Improv_Metronome,57,5,42,127,2458330744
9023,13,Improv_Metronome,58,1,48,66,2458793580
9023,13,Improv_Metronome,59,5,42,127,2458831412
9023,13,Improv_Metronome,60,1,48,71,2459017248
9023,13,Improv_Metronome,61,1,48,71,2459299832
9023,13,Improv_Metronome,62,5,42,127,2459331008
9023,13,Improv_Metronome,63,1,38,29,2459753756
9023,13,Improv_Metronome,64,1,48,14,2459766300
9023,13,Improv_Metronome,65,5,42,127,2459830608
9023,13,Improv_Metronome,66,1,38,35,2460287136
9023,13,Improv_Metronome,67,5,42,127,2460331448
9023,13,Improv_Metronome,68,1,48,61,2460806500
9023,13,Improv_Metronome,69,5,42,127,2460831064
9023,13,Improv_Metronome,70,1,48,27,2461038540
9023,13,Improv_Metronome,71,1,48,64,2461258976
9023,13,Improv_Metronome,72,5,42,127,2461330668
9023,13,Improv_Metronome,73,1,38,34,2461827560
9023,13,Improv_Metronome,74,5,42,127,2461830732
9023,13,Improv_Metronome,75,1,38,31,2462310648
9023,13,Improv_Metronome,76,1,48,16,2462323796
9023,13,Improv_Metronome,77,5,42,127,2462331456
9023,13,Improv_Metronome,78,1,48,66,2462800272
9023,13,Improv_Metronome,79,5,42,127,2462830900
9023,13,Improv_Metronome,80,1,48,41,2463056476
9023,13,Improv_Metronome,81,5,42,127,2463330652
9023,13,Improv_Metronome,82,1,38,35,2463350152
9023,13,Improv_Metronome,83,5,42,127,2463831396
9023,13,Improv_Metronome,84,1,48,71,2463848728
9023,13,Improv_Metronome,85,1,48,34,2463909068
9023,13,Improv_Metronome,86,1,38,65,2464073776
9023,13,Improv_Metronome,87,5,42,127,2464331120
9023,13,Improv_Metronome,88,1,48,51,2464332084
9023,13,Improv_Metronome,89,5,42,127,2464830812
9023,13,Improv_Metronome,90,1,48,61,2464851512
9023,13,Improv_Metronome,91,5,42,127,2465330508
9023,13,Improv_Metronome,92,1,48,63,2465369976
9023,13,Improv_Metronome,93,5,42,127,2465831400
9023,13,Improv_Metronome,94,1,48,18,2465838708
9023,13,Improv_Metronome,95,1,48,34,2465843172
9023,13,Improv_Metronome,96,1,48,56,2466064432
9023,13,Improv_Metronome,97,5,42,127,2466330900
9023,13,Improv_Metronome,98,1,38,24,2466344564
9023,13,Improv_Metronome,99,5,42,127,2466830820
9023,13,Improv_Metronome,100,1,48,65,2466878368
9023,13,Improv_Metronome,101,1,48,60,2467108524
9023,13,Improv_Metronome,102,5,42,127,2467330492
9023,13,Improv_Metronome,103,1,48,54,2467354328
9023,13,Improv_Metronome,104,5,42,127,2467831312
9023,13,Improv_Metronome,105,1,48,62,2467858668
9023,13,Improv_Metronome,106,5,42,127,2468330856
9023,13,Improv_Metronome,107,1,48,75,2468350280
9023,13,Improv_Metronome,108,5,42,127,2468830548
9023,13,Improv_Metronome,109,1,48,62,2468863140
9023,13,Improv_Metronome,110,1,48,58,2469034180
9023,13,Improv_Metronome,111,1,48,35,2469329600
9023,13,Improv_Metronome,112,5,42,127,2469331264
9023,13,Improv_Metronome,113,1,48,72,2469824264
9023,13,Improv_Metronome,114,5,42,127,2469830884
9023,13,Improv_Metronome,115,5,42,127,2470330808
9023,13,Improv_Metronome,116,1,48,69,2470343572
9023,13,Improv_Metronome,117,1,38,70,2470796332
9023,13,Improv_Metronome,118,5,42,127,2470830320
9023,13,Improv_Metronome,119,1,38,39,2470849832
9023,13,Improv_Metronome,120,1,48,65,2471302364
9023,13,Improv_Metronome,121,5,42,127,2471331340
9023,13,Improv_Metronome,122,1,48,54,2471504708
9023,13,Improv_Metronome,123,1,48,62,2471819908
9023,13,Improv_Metronome,124,5,42,127,2471830788
9023,13,Improv_Metronome,125,1,38,75,2472317804
9023,13,Improv_Metronome,126,5,42,127,2472330560
9023,13,Improv_Metronome,127,1,48,63,2472788928
9023,13,Improv_Metronome,128,5,42,127,2472831300
9023,13,Improv_Metronome,129,1,48,68,2472999208
9023,13,Improv_Metronome,130,1,48,35,2473052444
9023,13,Improv_Metronome,131,1,48,67,2473290224
9023,13,Improv_Metronome,132,5,42,127,2473331024
9023,13,Improv_Metronome,133,1,38,69,2473779072
9023,13,Improv_Metronome,134,5,42,127,2473830644
9023,13,Improv_Metronome,135,1,38,74,2474268296
9023,13,Improv_Metronome,136,1,38,38,2474321528
9023,13,Improv_Metronome,137,5,42,127,2474330468
9023,13,Improv_Metronome,138,1,48,52,2474817036
9023,13,Improv_Metronome,139,5,42,127,2474831432
9023,13,Improv_Metronome,140,1,48,70,2475015120
9023,13,Improv_Metronome,141,5,42,127,2475330888
9023,13,Improv_Metronome,142,1,48,60,2475332372
9023,13,Improv_Metronome,143,5,42,127,2475830508
9023,13,Improv_Metronome,144,1,38,74,2475831472
9023,13,Improv_Metronome,145,5,42,127,2476331472
9023,13,Improv_Metronome,146,1,38,77,2476338412
9023,13,Improv_Metronome,147,1,48,57,2476828736
9023,13,Improv_Metronome,148,5,42,127,2476831308
9023,13,Improv_Metronome,149,5,42,127,2477330936
9023,13,Improv_Metronome,150,1,48,63,2477358964
9023,13,Improv_Metronome,151,5,42,127,2477830408
9023,13,Improv_Metronome,152,1,48,57,2477835548
9023,13,Improv_Metronome,153,1,48,58,2478035928
9023,13,Improv_Metronome,154,1,48,65,2478256036
9023,13,Improv_Metronome,155,1,48,38,2478298232
9023,13,Improv_Metronome,156,5,42,127,2478331396
9023,13,Improv_Metronome,157,1,38,49,2478778024
9023,13,Improv_Metronome,158,5,42,127,2478830868
9023,13,Improv_Metronome,159,1,48,55,2479287668
9023,13,Improv_Metronome,160,5,42,127,2479330564
9023,13,Improv_Metronome,161,1,48,48,2479527392
9023,13,Improv_Metronome,162,1,48,56,2479784400
9023,13,Improv_Metronome,163,5,42,127,2479831504
9023,13,Improv_Metronome,164,1,38,41,2480241836
9023,13,Improv_Metronome,165,5,42,127,2480331272
9023,13,Improv_Metronome,166,1,48,56,2480763592
9023,13,Improv_Metronome,167,5,42,127,2480830820
9023,13,Improv_Metronome,168,1,48,48,2481065348
9023,13,Improv_Metronome,169,1,48,56,2481287200
9023,13,Improv_Metronome,170,5,42,127,2481330464
9023,13,Improv_Metronome,171,1,48,51,2481804668
9023,13,Improv_Metronome,172,5,42,127,2481831332
9023,13,Improv_Metronome,173,5,42,127,2482331256
9023,13,Improv_Metronome,174,1,48,62,2482350384
9023,13,Improv_Metronome,175,5,42,127,2482830652
9023,13,Improv_Metronome,176,1,48,63,2482846260
9023,13,Improv_Metronome,177,1,48,70,2483330196
9023,13,Improv_Metronome,178,5,42,127,2483331608
9023,13,Improv_Metronome,179,5,42,127,2483831460
9023,13,Improv_Metronome,180,1,38,58,2483867340
9023,13,Improv_Metronome,181,1,48,68,2484324904
9023,13,Improv_Metronome,182,5,42,127,2484331148
9023,13,Improv_Metronome,183,1,48,62,2484581332
9023,13,Improv_Metronome,184,5,42,127,2484830528
9023,13,Improv_Metronome,185,1,38,49,2484871792
9023,13,Improv_Metronome,186,1,48,60,2485322700
9023,13,Improv_Metronome,187,5,42,127,2485331264
9023,13,Improv_Metronome,188,1,48,72,2485586832
9023,13,Improv_Metronome,189,1,38,58,2485816692
9023,13,Improv_Metronome,190,5,42,127,2485831308
9023,13,Improv_Metronome,191,1,48,64,2486307484
9023,13,Improv_Metronome,192,5,42,127,2486330780
9023,13,Improv_Metronome,193,1,48,76,2486568028
9023,13,Improv_Metronome,194,5,42,127,2486830312
9023,13,Improv_Metronome,195,1,38,68,2486847192
9023,13,Improv_Metronome,196,1,48,55,2487330600
9023,13,Improv_Metronome,197,5,42,127,2487332168
9023,13,Improv_Metronome,198,1,48,71,2487570160
9023,13,Improv_Metronome,199,5,42,127,2487831320
9023,13,Improv_Metronome,200,1,38,73,2487852620
9023,13,Improv_Metronome,201,1,48,54,2488327240
9023,13,Improv_Metronome,202,5,42,127,2488330564
9023,13,Improv_Metronome,203,1,48,65,2488574020
9023,13,Improv_Metronome,204,1,38,59,2488787788
9023,13,Improv_Metronome,205,5,42,127,2488831280
9023,13,Improv_Metronome,206,1,48,56,2489236148
9023,13,Improv_Metronome,207,5,42,127,2489331200
9023,13,Improv_Metronome,208,1,48,64,2489514268
9023,13,Improv_Metronome,209,1,48,56,2489741656
9023,13,Improv_Metronome,210,5,42,127,2489830800
9023,13,Improv_Metronome,211,1,38,59,2490250848
9023,13,Improv_Metronome,212,5,42,127,2490330492
9023,13,Improv_Metronome,213,1,48,68,2490747928
9023,13,Improv_Metronome,214,5,42,127,2490831088
9023,13,Improv_Metronome,215,1,48,60,2490986252
9023,13,Improv_Metronome,216,1,38,66,2491260168
9023,13,Improv_Metronome,217,5,42,127,2491330908
9023,13,Improv_Metronome,218,1,48,56,2491774964
9023,13,Improv_Metronome,219,5,42,127,2491830676
9023,13,Improv_Metronome,220,1,48,67,2492030868
9023,13,Improv_Metronome,221,1,38,61,2492288108
9023,13,Improv_Metronome,222,5,42,127,2492331296
9023,13,Improv_Metronome,223,5,42,127,2492831068
9023,13,Improv_Metronome,224,1,48,62,2492839052
9023,13,Improv_Metronome,225,1,48,57,2493093968
9023,13,Improv_Metronome,226,1,48,54,2493306320
9023,13,Improv_Metronome,227,5,42,127,2493330812
9023,13,Improv_Metronome,228,1,48,70,2493622608
9023,13,Improv_Metronome,229,5,42,127,2493830640
9023,13,Improv_Metronome,230,1,38,59,2493845052
9023,13,Improv_Metronome,231,1,48,59,2494287432
9023,13,Improv_Metronome,232,5,42,127,2494331300
9023,13,Improv_Metronome,233,1,48,67,2494504144
9023,13,Improv_Metronome,234,1,48,66,2494804908
9023,13,Improv_Metronome,235,5,42,127,2494830972
9023,13,Improv_Metronome,236,1,38,62,2495288672
9023,13,Improv_Metronome,237,5,42,127,2495330816
9023,13,Improv_Metronome,238,1,48,60,2495821128
9023,13,Improv_Metronome,239,5,42,127,2495831336
9023,13,Improv_Metronome,240,1,48,59,2496023852
9023,13,Improv_Metronome,241,5,42,127,2496331088
9023,13,Improv_Metronome,242,1,48,62,2496333756
9023,13,Improv_Metronome,243,1,38,66,2496799328
9023,13,Improv_Metronome,244,5,42,127,2496830928
9023,13,Improv_Metronome,245,1,48,59,2497268132
9023,13,Improv_Metronome,246,5,42,127,2497330548
9023,13,Improv_Metronome,247,1,48,75,2497802980
9023,13,Improv_Metronome,248,5,42,127,2497831216
9023,13,Improv_Metronome,249,5,42,127,2498330916
9023,13,Improv_Metronome,250,1,38,61,2498355360
9023,13,Improv_Metronome,251,5,42,127,2498830688
9023,13,Improv_Metronome,252,1,48,69,2498842636
9023,13,Improv_Metronome,253,1,48,79,2499330828
9023,13,Improv_Metronome,254,5,42,127,2499332016
9023,13,Improv_Metronome,255,1,38,75,2499822032
9023,13,Improv_Metronome,256,5,42,127,2499831192
9023,13,Improv_Metronome,257,5,42,127,2500330968
9023,13,Improv_Metronome,258,1,48,66,2500345084
9023,13,Improv_Metronome,259,1,48,58,2500571796
9023,13,Improv_Metronome,260,1,48,65,2500813620
9023,13,Improv_Metronome,261,5,42,127,2500830708
9023,13,Improv_Metronome,262,1,48,56,2500981840
9023,13,Improv_Metronome,263,1,48,81,2501296888
9023,13,Improv_Metronome,264,5,42,127,2501331352
9023,13,Improv_Metronome,265,1,38,72,2501773240
9023,13,Improv_Metronome,266,5,42,127,2501830972
9023,13,Improv_Metronome,267,1,48,71,2502309068
9023,13,Improv_Metronome,268,5,42,127,2502330740
9023,13,Improv_Metronome,269,1,48,62,2502549336
9023,13,Improv_Metronome,270,1,48,70,2502781964
9023,13,Improv_Metronome,271,5,42,127,2502830536
9023,13,Improv_Metronome,272,1,48,62,2503000836
9023,13,Improv_Metronome,273,1,48,80,2503291728
9023,13,Improv_Metronome,274,5,42,127,2503331180
9023,13,Improv_Metronome,275,1,38,27,2503785064
9023,13,Improv_Metronome,276,1,48,14,2503797164
9023,13,Improv_Metronome,277,5,42,127,2503831004
9023,13,Improv_Metronome,278,1,48,67,2504306180
9023,13,Improv_Metronome,279,5,42,127,2504330748
9023,13,Improv_Metronome,280,1,48,76,2504830672
9023,13,Improv_Metronome,281,5,42,127,2504832240
9023,13,Improv_Metronome,282,5,42,127,2505330968
9023,13,Improv_Metronome,283,1,38,58,2505333056
9023,13,Improv_Metronome,284,1,48,67,2505824036
9023,13,Improv_Metronome,285,5,42,127,2505830880
9023,13,Improv_Metronome,286,1,48,61,2506103956
9023,13,Improv_Metronome,287,5,42,127,2506330412
9023,13,Improv_Metronome,288,1,38,66,2506381024
9023,13,Improv_Metronome,289,5,42,127,2506831228
9023,13,Improv_Metronome,290,1,48,65,2506855284
9023,13,Improv_Metronome,291,1,48,81,2507115284
9023,13,Improv_Metronome,292,5,42,127,2507330972
9023,13,Improv_Metronome,293,1,38,65,2507398272
9023,13,Improv_Metronome,294,1,48,73,2507817016
9023,13,Improv_Metronome,295,5,42,127,2507830736
9023,13,Improv_Metronome,296,1,48,76,2508315508
9023,13,Improv_Metronome,297,5,42,127,2508331328
9023,13,Improv_Metronome,298,1,38,68,2508774668
9023,13,Improv_Metronome,299,5,42,127,2508831096
9023,13,Improv_Metronome,300,1,48,74,2509260596
9023,13,Improv_Metronome,301,5,42,127,2509330792
9023,13,Improv_Metronome,302,1,48,70,2509493320
9023,13,Improv_Metronome,303,1,48,77,2509785104
9023,13,Improv_Metronome,304,5,42,127,2509830468
9023,13,Improv_Metronome,305,1,38,66,2510250220
9023,13,Improv_Metronome,306,5,42,127,2510331280
9023,13,Improv_Metronome,307,1,48,59,2510752752
9023,13,Improv_Metronome,308,5,42,127,2510831052
9023,13,Improv_Metronome,309,1,48,79,2511037928
9023,13,Improv_Metronome,310,1,48,73,2511307280
9023,13,Improv_Metronome,311,5,42,127,2511330724
9023,13,Improv_Metronome,312,1,38,69,2511793032
9023,13,Improv_Metronome,313,5,42,127,2511831368
9023,13,Improv_Metronome,314,1,38,62,2512291884
9023,13,Improv_Metronome,315,5,42,127,2512331136
9023,13,Improv_Metronome,316,1,38,66,2512800104
9023,13,Improv_Metronome,317,5,42,127,2512830904
9023,13,Improv_Metronome,318,1,38,71,2513264944
9023,13,Improv_Metronome,319,5,42,127,2513330524
9023,13,Improv_Metronome,320,1,38,57,2513502748
9023,13,Improv_Metronome,321,1,38,56,2513678296
9023,13,Improv_Metronome,322,1,38,29,2513739756
9023,13,Improv_Metronome,323,5,42,127,2513831184
9023,13,Improv_Metronome,324,1,38,72,2514163236
9023,13,Improv_Metronome,325,5,42,127,2514330876
9023,13,Improv_Metronome,326,1,38,56,2514685076
9023,13,Improv_Metronome,327,5,42,127,2514830944
9023,13,Improv_Metronome,328,1,38,61,2515182600
9023,13,Improv_Metronome,0,9999,9999,9999,2445328492
9023,13,Improv_Metronome,1,9999,9999,9999,2445828208
9023,13,Improv_Metronome,2,9999,9999,9999,2446328896
9023,13,Improv_Metronome,3,9999,9999,9999,2446828612
9023,13,Improv_Metronome,4,9999,9999,9999,2447328360
9023,13,Improv_Metronome,5,9999,9999,9999,2447829104
9023,13,Improv_Metronome,6,9999,9999,9999,2448328824
9023,13,Improv_Metronome,7,9999,9999,9999,2448828500
9023,13,Improv_Metronome,8,9999,9999,9999,2449328244
9023,13,Improv_Metronome,9,9999,9999,9999,2449828984
9023,13,Improv_Metronome,10,9999,9999,9999,2450328656
9023,13,Improv_Metronome,11,9999,9999,9999,2450828344
9023,13,Improv_Metronome,12,9999,9999,9999,2451328116
9023,13,Improv_Metronome,13,9999,9999,9999,2451828860
9023,13,Improv_Metronome,14,9999,9999,9999,2452328556
9023,13,Improv_Metronome,15,9999,9999,9999,2452828248
9023,13,Improv_Metronome,16,9999,9999,9999,2453328984
9023,13,Improv_Metronome,17,9999,9999,9999,2453828684
9023,13,Improv_Metronome,18,9999,9999,9999,2454328380
9023,13,Improv_Metronome,19,9999,9999,9999,2454828120
9023,13,Improv_Metronome,20,9999,9999,9999,2455328860
9023,13,Improv_Metronome,21,9999,9999,9999,2455828564
9023,13,Improv_Metronome,22,9999,9999,9999,2456328308
9023,13,Improv_Metronome,23,9999,9999,9999,2456829028
9023,13,Improv_Metronome,24,9999,9999,9999,2457328696
9023,13,Improv_Metronome,25,9999,9999,9999,2457828464
9023,13,Improv_Metronome,26,9999,9999,9999,2458328160
9023,13,Improv_Metronome,27,9999,9999,9999,2458828900
9023,13,Improv_Metronome,28,9999,9999,9999,2459328572
9023,13,Improv_Metronome,29,9999,9999,9999,2459828324
9023,13,Improv_Metronome,30,9999,9999,9999,2460329012
9023,13,Improv_Metronome,31,9999,9999,9999,2460828780
9023,13,Improv_Metronome,32,9999,9999,9999,2461328456
9023,13,Improv_Metronome,33,9999,9999,9999,2461828148
9023,13,Improv_Metronome,34,9999,9999,9999,2462328948
9023,13,Improv_Metronome,35,9999,9999,9999,2462828612
9023,13,Improv_Metronome,36,9999,9999,9999,2463328368
9023,13,Improv_Metronome,37,9999,9999,9999,2463829108
9023,13,Improv_Metronome,38,9999,9999,9999,2464328760
9023,13,Improv_Metronome,39,9999,9999,9999,2464828528
9023,13,Improv_Metronome,40,9999,9999,9999,2465328224
9023,13,Improv_Metronome,41,9999,9999,9999,2465828964
9023,13,Improv_Metronome,42,9999,9999,9999,2466328688
9023,13,Improv_Metronome,43,9999,9999,9999,2466828384
9023,13,Improv_Metronome,44,9999,9999,9999,2467328060
9023,13,Improv_Metronome,45,9999,9999,9999,2467828800
9023,13,Improv_Metronome,46,9999,9999,9999,2468328568
9023,13,Improv_Metronome,47,9999,9999,9999,2468828264
9023,13,Improv_Metronome,48,9999,9999,9999,2469329000
9023,13,Improv_Metronome,49,9999,9999,9999,2469828672
9023,13,Improv_Metronome,50,9999,9999,9999,2470328372
9023,13,Improv_Metronome,51,9999,9999,9999,2470828108
9023,13,Improv_Metronome,52,9999,9999,9999,2471328828
9023,13,Improv_Metronome,53,9999,9999,9999,2471828576
9023,13,Improv_Metronome,54,9999,9999,9999,2472328272
9023,13,Improv_Metronome,55,9999,9999,9999,2472829012
9023,13,Improv_Metronome,56,9999,9999,9999,2473328740
9023,13,Improv_Metronome,57,9999,9999,9999,2473828432
9023,13,Improv_Metronome,58,9999,9999,9999,2474328180
9023,13,Improv_Metronome,59,9999,9999,9999,2474828920
9023,13,Improv_Metronome,60,9999,9999,9999,2475328600
9023,13,Improv_Metronome,61,9999,9999,9999,2475828296
9023,13,Improv_Metronome,62,9999,9999,9999,2476329036
9023,13,Improv_Metronome,63,9999,9999,9999,2476828800
9023,13,Improv_Metronome,64,9999,9999,9999,2477328500
9023,13,Improv_Metronome,65,9999,9999,9999,2477828196
9023,13,Improv_Metronome,66,9999,9999,9999,2478328888
9023,13,Improv_Metronome,67,9999,9999,9999,2478828656
9023,13,Improv_Metronome,68,9999,9999,9999,2479328352
9023,13,Improv_Metronome,69,9999,9999,9999,2479829072
9023,13,Improv_Metronome,70,9999,9999,9999,2480328764
9023,13,Improv_Metronome,71,9999,9999,9999,2480828532
9023,13,Improv_Metronome,72,9999,9999,9999,2481328180
9023,13,Improv_Metronome,73,9999,9999,9999,2481828972
9023,13,Improv_Metronome,74,9999,9999,9999,2482328672
9023,13,Improv_Metronome,75,9999,9999,9999,2482828364
9023,13,Improv_Metronome,76,9999,9999,9999,2483328056
9023,13,Improv_Metronome,77,9999,9999,9999,2483828800
9023,13,Improv_Metronome,78,9999,9999,9999,2484328564
9023,13,Improv_Metronome,79,9999,9999,9999,2484828244
9023,13,Improv_Metronome,80,9999,9999,9999,2485328976
9023,13,Improv_Metronome,81,9999,9999,9999,2485828728
9023,13,Improv_Metronome,82,9999,9999,9999,2486328420
9023,13,Improv_Metronome,83,9999,9999,9999,2486828100
9023,13,Improv_Metronome,84,9999,9999,9999,2487328840
9023,13,Improv_Metronome,85,9999,9999,9999,2487828588
9023,13,Improv_Metronome,86,9999,9999,9999,2488328276
9023,13,Improv_Metronome,87,9999,9999,9999,2488828996
9023,13,Improv_Metronome,88,9999,9999,9999,2489328692
9023,13,Improv_Metronome,89,9999,9999,9999,2489828436
9023,13,Improv_Metronome,90,9999,9999,9999,2490328132
9023,13,Improv_Metronome,91,9999,9999,9999,2490828876
9023,13,Improv_Metronome,92,9999,9999,9999,2491328620
9023,13,Improv_Metronome,93,9999,9999,9999,2491828316
9023,13,Improv_Metronome,94,9999,9999,9999,2492329008
9023,13,Improv_Metronome,95,9999,9999,9999,2492828784
9023,13,Improv_Metronome,96,9999,9999,9999,2493328452
9023,13,Improv_Metronome,97,9999,9999,9999,2493828204
9023,13,Improv_Metronome,98,9999,9999,9999,2494328940
9023,13,Improv_Metronome,99,9999,9999,9999,2494828612
9023,13,Improv_Metronome,100,9999,9999,9999,2495328308
9023,13,Improv_Metronome,101,9999,9999,9999,2495829048
9023,13,Improv_Metronome,102,9999,9999,9999,2496328804
9023,13,Improv_Metronome,103,9999,9999,9999,2496828492
9023,13,Improv_Metronome,104,9999,9999,9999,2497328188
9023,13,Improv_Metronome,105,9999,9999,9999,2497828928
9023,13,Improv_Metronome,106,9999,9999,9999,2498328632
9023,13,Improv_Metronome,107,9999,9999,9999,2498828404
9023,13,Improv_Metronome,108,9999,9999,9999,2499328096
9023,13,Improv_Metronome,109,9999,9999,9999,2499828832
9023,13,Improv_Metronome,110,9999,9999,9999,2500328532
9023,13,Improv_Metronome,111,9999,9999,9999,2500828272
9023,13,Improv_Metronome,112,9999,9999,9999,2501328992
9023,13,Improv_Metronome,113,9999,9999,9999,2501828688
9023,13,Improv_Metronome,114,9999,9999,9999,2502328380
9023,13,Improv_Metronome,115,9999,9999,9999,2502828104
9023,13,Improv_Metronome,116,9999,9999,9999,2503328820
9023,13,Improv_Metronome,117,9999,9999,9999,2503828572
9023,13,Improv_Metronome,118,9999,9999,9999,2504328312
9023,13,Improv_Metronome,119,9999,9999,9999,2504828984
9023,13,Improv_Metronome,120,9999,9999,9999,2505328756
9023,13,Improv_Metronome,121,9999,9999,9999,2505828444
9023,13,Improv_Metronome,122,9999,9999,9999,2506328124
9023,13,Improv_Metronome,123,9999,9999,9999,2506828864
9023,13,Improv_Metronome,124,9999,9999,9999,2507328612
9023,13,Improv_Metronome,125,9999,9999,9999,2507828300
9023,13,Improv_Metronome,126,9999,9999,9999,2508329044
9023,13,Improv_Metronome,127,9999,9999,9999,2508828736
9023,13,Improv_Metronome,128,9999,9999,9999,2509328508
9023,13,Improv_Metronome,129,9999,9999,9999,2509828180
9023,13,Improv_Metronome,130,9999,9999,9999,2510328920
9023,13,Improv_Metronome,131,9999,9999,9999,2510828616
9023,13,Improv_Metronome,132,9999,9999,9999,2511328364
9023,13,Improv_Metronome,133,9999,9999,9999,2511829080
9023,13,Improv_Metronome,134,9999,9999,9999,2512328776
9023,13,Improv_Metronome,135,9999,9999,9999,2512828468
9023,13,Improv_Metronome,136,9999,9999,9999,2513328216
9023,13,Improv_Metronome,137,9999,9999,9999,2513828948
9023,13,Improv_Metronome,138,9999,9999,9999,2514328664
9023,13,Improv_Metronome,139,9999,9999,9999,2514828360
9024,14,Improv_Melody,0,2,48,80,2567782588
9024,14,Improv_Melody,1,2,72,80,2567785120
9024,14,Improv_Melody,2,5,42,127,2567787504
9024,14,Improv_Melody,3,5,42,110,2568280500
9024,14,Improv_Melody,4,5,42,110,2568781264
9024,14,Improv_Melody,5,5,42,110,2569280988
9024,14,Improv_Melody,6,5,42,127,2569780488
9024,14,Improv_Melody,7,5,42,110,2570281256
9024,14,Improv_Melody,8,5,42,110,2570781128
9024,14,Improv_Melody,9,5,42,110,2571280700
9024,14,Improv_Melody,10,2,43,80,2571782700
9024,14,Improv_Melody,11,2,67,80,2571785148
9024,14,Improv_Melody,12,5,42,127,2571787616
9024,14,Improv_Melody,13,5,42,110,2572281280
9024,14,Improv_Melody,14,5,42,110,2572780924
9024,14,Improv_Melody,15,5,42,110,2573280496
9024,14,Improv_Melody,16,5,42,127,2573781340
9024,14,Improv_Melody,17,5,42,110,2574281064
9024,14,Improv_Melody,18,5,42,110,2574780860
9024,14,Improv_Melody,19,5,42,110,2575280580
9024,14,Improv_Melody,20,2,45,80,2575783676
9024,14,Improv_Melody,21,2,69,80,2575785904
9024,14,Improv_Melody,22,5,42,127,2575788372
9024,14,Improv_Melody,23,5,42,110,2576280912
9024,14,Improv_Melody,24,5,42,110,2576780632
9024,14,Improv_Melody,25,5,42,110,2577281252
9024,14,Improv_Melody,26,5,42,127,2577780972
9024,14,Improv_Melody,27,5,42,110,2578280920
9024,14,Improv_Melody,28,5,42,110,2578780420
9024,14,Improv_Melody,29,5,42,110,2579281184
9024,14,Improv_Melody,30,2,41,80,2579783408
9024,14,Improv_Melody,31,2,65,80,2579785712
9024,14,Improv_Melody,32,5,42,127,2579788248
9024,14,Improv_Melody,33,5,42,110,2580280716
9024,14,Improv_Melody,34,5,42,110,2580781336
9024,14,Improv_Melody,35,5,42,110,2581281208
9024,14,Improv_Melody,36,5,42,127,2581780780
9024,14,Improv_Melody,37,1,48,26,2581805216
9024,14,Improv_Melody,38,5,42,110,2582280480
9024,14,Improv_Melody,39,1,48,25,2582299452
9024,14,Improv_Melody,40,5,42,110,2582781152
9024,14,Improv_Melody,41,1,48,26,2582791228
9024,14,Improv_Melody,42,1,48,30,2583275416
9024,14,Improv_Melody,43,5,42,110,2583281140
9024,14,Improv_Melody,44,2,48,80,2583783200
9024,14,Improv_Melody,45,2,72,80,2583785508
9024,14,Improv_Melody,46,5,42,127,2583788040
9024,14,Improv_Melody,47,1,48,35,2583805224
9024,14,Improv_Melody,48,5,42,110,2584280412
9024,14,Improv_Melody,49,1,48,38,2584319064
9024,14,Improv_Melody,50,1,48,39,2584776472
9024,14,Improv_Melody,51,5,42,110,2584781224
9024,14,Improv_Melody,52,5,42,110,2585280860
9024,14,Improv_Melody,53,1,48,43,2585305148
9024,14,Improv_Melody,54,5,42,127,2585780484
9024,14,Improv_Melody,55,1,38,46,2585800356
9024,14,Improv_Melody,56,5,42,110,2586281356
9024,14,Improv_Melody,57,1,48,50,2586298488
9024,14,Improv_Melody,58,1,48,42,2586524056
9024,14,Improv_Melody,59,5,42,110,2586781184
9024,14,Improv_Melody,60,1,48,41,2586788044
9024,14,Improv_Melody,61,1,48,41,2587277920
9024,14,Improv_Melody,62,5,42,110,2587280876
9024,14,Improv_Melody,63,2,43,80,2587783088
9024,14,Improv_Melody,64,2,67,80,2587785392
9024,14,Improv_Melody,65,5,42,127,2587787924
9024,14,Improv_Melody,66,1,48,40,2587795832
9024,14,Improv_Melody,67,5,42,110,2588281192
9024,14,Improv_Melody,68,1,48,54,2588326348
9024,14,Improv_Melody,69,1,48,40,2588546028
9024,14,Improv_Melody,70,1,48,40,2588760852
9024,14,Improv_Melody,71,5,42,110,2588781160
9024,14,Improv_Melody,72,1,48,46,2589230780
9024,14,Improv_Melody,73,5,42,110,2589280860
9024,14,Improv_Melody,74,1,48,50,2589767356
9024,14,Improv_Melody,75,5,42,127,2589781456
9024,14,Improv_Melody,76,1,48,49,2590272820
9024,14,Improv_Melody,77,5,42,110,2590281156
9024,14,Improv_Melody,78,1,48,50,2590509428
9024,14,Improv_Melody,79,1,48,29,2590722904
9024,14,Improv_Melody,80,5,42,110,2590781060
9024,14,Improv_Melody,81,1,48,52,2591238684
9024,14,Improv_Melody,82,5,42,110,2591280388
9024,14,Improv_Melody,83,1,48,53,2591716992
9024,14,Improv_Melody,84,2,45,80,2591783864
9024,14,Improv_Melody,85,2,69,80,2591785788
9024,14,Improv_Melody,86,5,42,127,2591788256
9024,14,Improv_Melody,87,1,48,52,2592280404
9024,14,Improv_Melody,88,5,42,110,2592281968
9024,14,Improv_Melody,89,1,48,59,2592762932
9024,14,Improv_Melody,90,5,42,110,2592780996
9024,14,Improv_Melody,91,1,48,56,2593223888
9024,14,Improv_Melody,92,5,42,110,2593281444
9024,14,Improv_Melody,93,1,48,22,2593441472
9024,14,Improv_Melody,94,1,48,54,2593672976
9024,14,Improv_Melody,95,5,42,127,2593781108
9024,14,Improv_Melody,96,1,48,65,2594192344
9024,14,Improv_Melody,97,5,42,110,2594281044
9024,14,Improv_Melody,98,1,48,39,2594456636
9024,14,Improv_Melody,99,1,48,46,2594684916
9024,14,Improv_Melody,100,5,42,110,2594780932
9024,14,Improv_Melody,101,1,48,54,2595201744
9024,14,Improv_Melody,102,5,42,110,2595281172
9024,14,Improv_Melody,103,1,48,39,2595458924
9024,14,Improv_Melody,104,1,48,43,2595727456
9024,14,Improv_Melody,105,2,41,80,2595783276
9024,14,Improv_Melody,106,2,65,80,2595785576
9024,14,Improv_Melody,107,5,42,127,2595787968
9024,14,Improv_Melody,108,5,42,110,2596280868
9024,14,Improv_Melody,109,1,48,46,2596314952
9024,14,Improv_Melody,110,1,48,44,2596770548
9024,14,Improv_Melody,111,5,42,110,2596781308
9024,14,Improv_Melody,112,1,48,40,2597249004
9024,14,Improv_Melody,113,5,42,110,2597281132
9024,14,Improv_Melody,114,1,38,42,2597772344
9024,14,Improv_Melody,115,5,42,127,2597780908
9024,14,Improv_Melody,116,5,42,110,2598280836
9024,14,Improv_Melody,117,1,48,40,2598283360
9024,14,Improv_Melody,118,5,42,110,2598781436
9024,14,Improv_Melody,119,1,38,42,2598800712
9024,14,Improv_Melody,120,5,42,110,2599280984
9024,14,Improv_Melody,121,1,48,44,2599320684
9024,14,Improv_Melody,122,1,38,44,2599755208
9024,14,Improv_Melody,123,2,48,80,2599783332
9024,14,Improv_Melody,124,2,72,80,2599785560
9024,14,Improv_Melody,125,5,42,127,2599787944
9024,14,Improv_Melody,126,5,42,110,2600280844
9024,14,Improv_Melody,127,1,48,46,2600291672
9024,14,Improv_Melody,128,1,48,46,2600529980
9024,14,Improv_Melody,129,5,42,110,2600781272
9024,14,Improv_Melody,130,1,38,40,2600787680
9024,14,Improv_Melody,131,1,48,44,2601273376
9024,14,Improv_Melody,132,5,42,110,2601280816
9024,14,Improv_Melody,133,1,48,47,2601523300
9024,14,Improv_Melody,134,5,42,127,2601780872
9024,14,Improv_Melody,135,1,38,46,2601786012
9024,14,Improv_Melody,136,1,48,47,2602271856
9024,14,Improv_Melody,137,5,42,110,2602281244
9024,14,Improv_Melody,138,1,48,51,2602532028
9024,14,Improv_Melody,139,5,42,110,2602780928
9024,14,Improv_Melody,140,1,38,45,2602800280
9024,14,Improv_Melody,141,5,42,110,2603280848
9024,14,Improv_Melody,142,1,48,47,2603285164
9024,14,Improv_Melody,143,1,48,49,2603556388
9024,14,Improv_Melody,144,2,43,80,2603783336
9024,14,Improv_Melody,145,2,67,80,2603785412
9024,14,Improv_Melody,146,5,42,127,2603788020
9024,14,Improv_Melody,147,1,38,48,2603826144
9024,14,Improv_Melody,148,5,42,110,2604281140
9024,14,Improv_Melody,149,1,48,41,2604287920
9024,14,Improv_Melody,150,1,48,45,2604516588
9024,14,Improv_Melody,151,5,42,110,2604780968
9024,14,Improv_Melody,152,1,38,49,2604795380
9024,14,Improv_Melody,153,1,48,43,2605268728
9024,14,Improv_Melody,154,5,42,110,2605280660
9024,14,Improv_Melody,155,1,48,46,2605549468
9024,14,Improv_Melody,156,5,42,127,2605781316
9024,14,Improv_Melody,157,1,38,46,2605800672
9024,14,Improv_Melody,158,1,48,43,2606262272
9024,14,Improv_Melody,159,5,42,110,2606281012
9024,14,Improv_Melody,160,1,48,49,2606521624
9024,14,Improv_Melody,161,1,38,45,2606758336
9024,14,Improv_Melody,162,5,42,110,2606780692
9024,14,Improv_Melody,163,1,48,41,2607249280
9024,14,Improv_Melody,164,5,42,110,2607280536
9024,14,Improv_Melody,165,1,48,39,2607528604
9024,14,Improv_Melody,166,2,45,80,2607783752
9024,14,Improv_Melody,167,1,38,44,2607785992
9024,14,Improv_Melody,168,2,69,80,2607788776
9024,14,Improv_Melody,169,5,42,127,2607790788
9024,14,Improv_Melody,170,5,42,110,2608280972
9024,14,Improv_Melody,171,1,48,46,2608293364
9024,14,Improv_Melody,172,1,48,41,2608512376
9024,14,Improv_Melody,173,5,42,110,2608780648
9024,14,Improv_Melody,174,1,38,46,2608803660
9024,14,Improv_Melody,175,1,48,50,2609223380
9024,14,Improv_Melody,176,5,42,110,2609281536
9024,14,Improv_Melody,177,1,48,53,2609503748
9024,14,Improv_Melody,178,1,38,39,2609755148
9024,14,Improv_Melody,179,5,42,127,2609781212
9024,14,Improv_Melody,180,1,48,44,2610226572
9024,14,Improv_Melody,181,5,42,110,2610280764
9024,14,Improv_Melody,182,1,48,48,2610541196
9024,14,Improv_Melody,183,5,42,110,2610780596
9024,14,Improv_Melody,184,1,38,40,2610798904
9024,14,Improv_Melody,185,5,42,110,2611281344
9024,14,Improv_Melody,186,1,48,42,2611299424
9024,14,Improv_Melody,187,1,48,48,2611763792
9024,14,Improv_Melody,188,2,41,80,2611783696
9024,14,Improv_Melody,189,2,65,80,2611785688
9024,14,Improv_Melody,190,5,42,127,2611788380
9024,14,Improv_Melody,191,5,42,110,2612280684
9024,14,Improv_Melody,192,1,38,51,2612296444
9024,14,Improv_Melody,193,1,48,51,2612759696
9024,14,Improv_Melody,194,5,42,110,2612781424
9024,14,Improv_Melody,195,1,48,56,2613278240
9024,14,Improv_Melody,196,5,42,110,2613281124
9024,14,Improv_Melody,197,1,38,57,2613721320
9024,14,Improv_Melody,198,5,42,127,2613780748
9024,14,Improv_Melody,199,5,42,110,2614280456
9024,14,Improv_Melody,200,1,48,45,2614285068
9024,14,Improv_Melody,201,5,42,110,2614781576
9024,14,Improv_Melody,202,1,48,52,2614784100
9024,14,Improv_Melody,203,1,38,46,2615246596
9024,14,Improv_Melody,204,5,42,110,2615280972
9024,14,Improv_Melody,205,1,48,53,2615753180
9024,14,Improv_Melody,206,2,48,80,2615783096
9024,14,Improv_Melody,207,2,72,80,2615785400
9024,14,Improv_Melody,208,5,42,127,2615787788
9024,14,Improv_Melody,209,1,48,23,2615824480
9024,14,Improv_Melody,210,1,48,51,2616053960
9024,14,Improv_Melody,211,5,42,110,2616280420
9024,14,Improv_Melody,212,1,48,43,2616318248
9024,14,Improv_Melody,213,1,48,54,2616767732
9024,14,Improv_Melody,214,5,42,110,2616781084
9024,14,Improv_Melody,215,1,48,56,2617266388
9024,14,Improv_Melody,216,5,42,110,2617280936
9024,14,Improv_Melody,217,1,48,51,2617757980
9024,14,Improv_Melody,218,5,42,127,2617780484
9024,14,Improv_Melody,219,1,48,43,2617992576
9024,14,Improv_Melody,220,1,48,44,2618249804
9024,14,Improv_Melody,221,5,42,110,2618281480
9024,14,Improv_Melody,222,1,48,49,2618745316
9024,14,Improv_Melody,223,5,42,110,2618781256
9024,14,Improv_Melody,224,1,48,46,2619253544
9024,14,Improv_Melody,225,5,42,110,2619280660
9024,14,Improv_Melody,226,1,48,54,2619780480
9024,14,Improv_Melody,227,2,43,80,2619784136
9024,14,Improv_Melody,228,2,67,80,2619786292
9024,14,Improv_Melody,229,5,42,127,2619788676
9024,14,Improv_Melody,230,1,48,52,2620024572
9024,14,Improv_Melody,231,1,48,52,2620239620
9024,14,Improv_Melody,232,5,42,110,2620281172
9024,14,Improv_Melody,233,1,48,33,2620284952
9024,14,Improv_Melody,234,1,48,63,2620763904
9024,14,Improv_Melody,235,5,42,110,2620780924
9024,14,Improv_Melody,236,1,48,62,2621234588
9024,14,Improv_Melody,237,5,42,110,2621280552
9024,14,Improv_Melody,238,1,48,25,2621299740
9024,14,Improv_Melody,239,1,48,62,2621777420
9024,14,Improv_Melody,240,5,42,127,2621781648
9024,14,Improv_Melody,241,1,48,51,2622009700
9024,14,Improv_Melody,242,1,48,57,2622241420
9024,14,Improv_Melody,243,5,42,110,2622281104
9024,14,Improv_Melody,244,1,48,27,2622301340
9024,14,Improv_Melody,245,1,48,61,2622751124
9024,14,Improv_Melody,246,5,42,110,2622780784
9024,14,Improv_Melody,247,1,48,58,2623246860
9024,14,Improv_Melody,248,5,42,110,2623280484
9024,14,Improv_Melody,249,1,48,66,2623749184
9024,14,Improv_Melody,250,2,45,80,2623783964
9024,14,Improv_Melody,251,2,69,80,2623786192
9024,14,Improv_Melody,252,5,42,127,2623788576
9024,14,Improv_Melody,253,1,48,47,2623978776
9024,14,Improv_Melody,254,1,48,59,2624212368
9024,14,Improv_Melody,255,5,42,110,2624280924
9024,14,Improv_Melody,256,1,48,62,2624781000
9024,14,Improv_Melody,257,5,42,110,2624782344
9024,14,Improv_Melody,258,5,42,110,2625281524
9024,14,Improv_Melody,259,1,48,57,2625296464
9024,14,Improv_Melody,260,5,42,127,2625781296
9024,14,Improv_Melody,261,1,48,57,2625783824
9024,14,Improv_Melody,262,1,48,38,2626003876
9024,14,Improv_Melody,263,1,48,44,2626228724
9024,14,Improv_Melody,264,5,42,110,2626280672
9024,14,Improv_Melody,265,1,48,24,2626290356
9024,14,Improv_Melody,266,1,48,59,2626755476
9024,14,Improv_Melody,267,5,42,110,2626780500
9024,14,Improv_Melody,268,1,48,59,2627264900
9024,14,Improv_Melody,269,5,42,110,2627281468
9024,14,Improv_Melody,270,1,48,60,2627753284
9024,14,Improv_Melody,271,2,41,80,2627783828
9024,14,Improv_Melody,272,2,65,80,2627785976
9024,14,Improv_Melody,273,5,42,127,2627788508
9024,14,Improv_Melody,274,1,38,57,2628269624
9024,14,Improv_Melody,275,5,42,110,2628280732
9024,14,Improv_Melody,276,5,42,110,2628781560
9024,14,Improv_Melody,277,1,48,57,2628809512
9024,14,Improv_Melody,278,1,38,51,2629262496
9024,14,Improv_Melody,279,5,42,110,2629281304
9024,14,Improv_Melody,280,5,42,127,2629780788
9024,14,Improv_Melody,281,1,38,51,2630262212
9024,14,Improv_Melody,282,5,42,110,2630280504
9024,14,Improv_Melody,283,5,42,110,2630781256
9024,14,Improv_Melody,284,1,38,54,2631233208
9024,14,Improv_Melody,285,5,42,110,2631281192
9024,14,Improv_Melody,286,2,48,80,2631783408
9024,14,Improv_Melody,287,2,72,80,2631785184
9024,14,Improv_Melody,288,5,42,127,2631787724
9024,14,Improv_Melody,289,1,38,50,2632243344
9024,14,Improv_Melody,290,5,42,110,2632280332
9024,14,Improv_Melody,291,5,42,110,2632781232
9024,14,Improv_Melody,292,1,38,53,2633246204
9024,14,Improv_Melody,293,5,42,110,2633280800
9024,14,Improv_Melody,294,5,42,127,2633780728
9024,14,Improv_Melody,295,1,38,51,2634245252
9024,14,Improv_Melody,296,5,42,110,2634281268
9024,14,Improv_Melody,297,5,42,110,2634781124
9024,14,Improv_Melody,298,1,38,49,2635217816
9024,14,Improv_Melody,299,5,42,110,2635280764
9024,14,Improv_Melody,300,1,48,63,2635749232
9024,14,Improv_Melody,301,2,43,80,2635782744
9024,14,Improv_Melody,302,2,67,80,2635785120
9024,14,Improv_Melody,303,5,42,127,2635787508
9024,14,Improv_Melody,304,1,48,52,2636273480
9024,14,Improv_Melody,305,5,42,110,2636281152
9024,14,Improv_Melody,306,5,42,110,2636781004
9024,14,Improv_Melody,307,1,48,54,2636782268
9024,14,Improv_Melody,308,1,48,47,2637269592
9024,14,Improv_Melody,309,5,42,110,2637280552
9024,14,Improv_Melody,310,1,48,43,2637734036
9024,14,Improv_Melody,311,5,42,127,2637781296
9024,14,Improv_Melody,312,1,48,53,2638246004
9024,14,Improv_Melody,313,5,42,110,2638281144
9024,14,Improv_Melody,314,5,42,110,2638780780
9024,14,Improv_Melody,315,1,48,61,2638781744
9024,14,Improv_Melody,316,5,42,110,2639280556
9024,14,Improv_Melody,317,1,48,58,2639284796
9024,14,Improv_Melody,318,2,45,80,2639783704
9024,14,Improv_Melody,319,2,69,80,2639785932
9024,14,Improv_Melody,320,5,42,127,2639788572
9024,14,Improv_Melody,321,5,42,110,2640280940
9024,14,Improv_Melody,322,1,48,55,2640288616
9024,14,Improv_Melody,323,1,48,56,2640528500
9024,14,Improv_Melody,324,5,42,110,2640780692
9024,14,Improv_Melody,325,1,48,52,2641231972
9024,14,Improv_Melody,326,5,42,110,2641281376
9024,14,Improv_Melody,327,1,48,58,2641501792
9024,14,Improv_Melody,328,5,42,127,2641781136
9024,14,Improv_Melody,329,1,48,45,2642250220
9024,14,Improv_Melody,330,5,42,110,2642280928
9024,14,Improv_Melody,331,1,48,48,2642535604
9024,14,Improv_Melody,332,5,42,110,2642780388
9024,14,Improv_Melody,333,1,48,48,2643232636
9024,14,Improv_Melody,334,5,42,110,2643281148
9024,14,Improv_Melody,335,1,48,44,2643512860
9024,14,Improv_Melody,336,2,41,80,2643783564
9024,14,Improv_Melody,337,2,65,80,2643785636
9024,14,Improv_Melody,338,5,42,127,2643788400
9024,14,Improv_Melody,339,1,48,49,2644254712
9024,14,Improv_Melody,340,5,42,110,2644280636
9024,14,Improv_Melody,341,1,48,59,2644751196
9024,14,Improv_Melody,342,5,42,110,2644781384
9024,14,Improv_Melody,343,1,48,56,2645211104
9024,14,Improv_Melody,344,5,42,110,2645281156
9024,14,Improv_Melody,345,1,38,47,2645728608
9024,14,Improv_Melody,346,5,42,127,2645781004
9024,14,Improv_Melody,347,1,38,46,2646205572
9024,14,Improv_Melody,348,5,42,110,2646280480
9024,14,Improv_Melody,349,1,38,51,2646729652
9024,14,Improv_Melody,350,5,42,110,2646781156
9024,14,Improv_Melody,351,1,48,51,2647215592
9024,14,Improv_Melody,352,1,38,47,2647239956
9024,14,Improv_Melody,353,5,42,110,2647281132
9024,14,Improv_Melody,354,1,48,44,2647464696
9024,14,Improv_Melody,355,1,38,35,2647488876
9024,14,Improv_Melody,356,2,48,80,2647783412
9024,14,Improv_Melody,357,2,72,80,2647785492
9024,14,Improv_Melody,358,5,42,127,2647788024
9024,14,Improv_Melody,359,1,38,46,2648246860
9024,14,Improv_Melody,360,1,48,46,2648256488
9024,14,Improv_Melody,361,5,42,110,2648280316
9024,14,Improv_Melody,362,1,48,44,2648492772
9024,14,Improv_Melody,363,1,38,39,2648511980
9024,14,Improv_Melody,0,9999,9999,9999,2567778352
9024,14,Improv_Melody,1,9999,9999,9999,2568278132
9024,14,Improv_Melody,2,9999,9999,9999,2568778824
9024,14,Improv_Melody,3,9999,9999,9999,2569278548
9024,14,Improv_Melody,4,9999,9999,9999,2569778268
9024,14,Improv_Melody,5,9999,9999,9999,2570278964
9024,14,Improv_Melody,6,9999,9999,9999,2570778688
9024,14,Improv_Melody,7,9999,9999,9999,2571278408
9024,14,Improv_Melody,8,9999,9999,9999,2571778128
9024,14,Improv_Melody,9,9999,9999,9999,2572278836
9024,14,Improv_Melody,10,9999,9999,9999,2572778560
9024,14,Improv_Melody,11,9999,9999,9999,2573278280
9024,14,Improv_Melody,12,9999,9999,9999,2573779048
9024,14,Improv_Melody,13,9999,9999,9999,2574278772
9024,14,Improv_Melody,14,9999,9999,9999,2574778420
9024,14,Improv_Melody,15,9999,9999,9999,2575278140
9024,14,Improv_Melody,16,9999,9999,9999,2575778884
9024,14,Improv_Melody,17,9999,9999,9999,2576278620
9024,14,Improv_Melody,18,9999,9999,9999,2576778340
9024,14,Improv_Melody,19,9999,9999,9999,2577279036
9024,14,Improv_Melody,20,9999,9999,9999,2577778756
9024,14,Improv_Melody,21,9999,9999,9999,2578278480
9024,14,Improv_Melody,22,9999,9999,9999,2578778200
9024,14,Improv_Melody,23,9999,9999,9999,2579278968
9024,14,Improv_Melody,24,9999,9999,9999,2579778616
9024,14,Improv_Melody,25,9999,9999,9999,2580278352
9024,14,Improv_Melody,26,9999,9999,9999,2580779120
9024,14,Improv_Melody,27,9999,9999,9999,2581278840
9024,14,Improv_Melody,28,9999,9999,9999,2581778488
9024,14,Improv_Melody,29,9999,9999,9999,2582278260
9024,14,Improv_Melody,30,9999,9999,9999,2582778936
9024,14,Improv_Melody,31,9999,9999,9999,2583278700
9024,14,Improv_Melody,32,9999,9999,9999,2583778408
9024,14,Improv_Melody,33,9999,9999,9999,2584278120
9024,14,Improv_Melody,34,9999,9999,9999,2584778860
9024,14,Improv_Melody,35,9999,9999,9999,2585278568
9024,14,Improv_Melody,36,9999,9999,9999,2585778268
9024,14,Improv_Melody,37,9999,9999,9999,2586278988
9024,14,Improv_Melody,38,9999,9999,9999,2586778744
9024,14,Improv_Melody,39,9999,9999,9999,2587278436
9024,14,Improv_Melody,40,9999,9999,9999,2587778140
9024,14,Improv_Melody,41,9999,9999,9999,2588278900
9024,14,Improv_Melody,42,9999,9999,9999,2588778572
9024,14,Improv_Melody,43,9999,9999,9999,2589278272
9024,14,Improv_Melody,44,9999,9999,9999,2589779016
9024,14,Improv_Melody,45,9999,9999,9999,2590278720
9024,14,Improv_Melody,46,9999,9999,9999,2590778472
9024,14,Improv_Melody,47,9999,9999,9999,2591278172
9024,14,Improv_Melody,48,9999,9999,9999,2591778920
9024,14,Improv_Melody,49,9999,9999,9999,2592278636
9024,14,Improv_Melody,50,9999,9999,9999,2592778332
9024,14,Improv_Melody,51,9999,9999,9999,2593279080
9024,14,Improv_Melody,52,9999,9999,9999,2593778740
9024,14,Improv_Melody,53,9999,9999,9999,2594278456
9024,14,Improv_Melody,54,9999,9999,9999,2594778192
9024,14,Improv_Melody,55,9999,9999,9999,2595278952
9024,14,Improv_Melody,56,9999,9999,9999,2595778632
9024,14,Improv_Melody,57,9999,9999,9999,2596278352
9024,14,Improv_Melody,58,9999,9999,9999,2596779068
9024,14,Improv_Melody,59,9999,9999,9999,2597278840
9024,14,Improv_Melody,60,9999,9999,9999,2597778540
9024,14,Improv_Melody,61,9999,9999,9999,2598278248
9024,14,Improv_Melody,62,9999,9999,9999,2598778992
9024,14,Improv_Melody,63,9999,9999,9999,2599278692
9024,14,Improv_Melody,64,9999,9999,9999,2599778388
9024,14,Improv_Melody,65,9999,9999,9999,2600278108
9024,14,Improv_Melody,66,9999,9999,9999,2600778832
9024,14,Improv_Melody,67,9999,9999,9999,2601278524
9024,14,Improv_Melody,68,9999,9999,9999,2601778284
9024,14,Improv_Melody,69,9999,9999,9999,2602279028
9024,14,Improv_Melody,70,9999,9999,9999,2602778712
9024,14,Improv_Melody,71,9999,9999,9999,2603278408
9024,14,Improv_Melody,72,9999,9999,9999,2603778164
9024,14,Improv_Melody,73,9999,9999,9999,2604278848
9024,14,Improv_Melody,74,9999,9999,9999,2604778600
9024,14,Improv_Melody,75,9999,9999,9999,2605278296
9024,14,Improv_Melody,76,9999,9999,9999,2605779024
9024,14,Improv_Melody,77,9999,9999,9999,2606278720
9024,14,Improv_Melody,78,9999,9999,9999,2606778472
9024,14,Improv_Melody,79,9999,9999,9999,2607278172
9024,14,Improv_Melody,80,9999,9999,9999,2607778876
9024,14,Improv_Melody,81,9999,9999,9999,2608278604
9024,14,Improv_Melody,82,9999,9999,9999,2608778356
9024,14,Improv_Melody,83,9999,9999,9999,2609279096
9024,14,Improv_Melody,84,9999,9999,9999,2609778772
9024,14,Improv_Melody,85,9999,9999,9999,2610278472
9024,14,Improv_Melody,86,9999,9999,9999,2610778232
9024,14,Improv_Melody,87,9999,9999,9999,2611278904
9024,14,Improv_Melody,88,9999,9999,9999,2611778672
9024,14,Improv_Melody,89,9999,9999,9999,2612278392
9024,14,Improv_Melody,90,9999,9999,9999,2612779056
9024,14,Improv_Melody,91,9999,9999,9999,2613278832
9024,14,Improv_Melody,92,9999,9999,9999,2613778532
9024,14,Improv_Melody,93,9999,9999,9999,2614278240
9024,14,Improv_Melody,94,9999,9999,9999,2614778988
9024,14,Improv_Melody,95,9999,9999,9999,2615278680
9024,14,Improv_Melody,96,9999,9999,9999,2615778380
9024,14,Improv_Melody,97,9999,9999,9999,2616278128
9024,14,Improv_Melody,98,9999,9999,9999,2616778868
9024,14,Improv_Melody,99,9999,9999,9999,2617278568
9024,14,Improv_Melody,100,9999,9999,9999,2617778268
9024,14,Improv_Melody,101,9999,9999,9999,2618278968
9024,14,Improv_Melody,102,9999,9999,9999,2618778744
9024,14,Improv_Melody,103,9999,9999,9999,2619278444
9024,14,Improv_Melody,104,9999,9999,9999,2619778152
9024,14,Improv_Melody,105,9999,9999,9999,2620278884
9024,14,Improv_Melody,106,9999,9999,9999,2620778560
9024,14,Improv_Melody,107,9999,9999,9999,2621278260
9024,14,Improv_Melody,108,9999,9999,9999,2621779060
9024,14,Improv_Melody,109,9999,9999,9999,2622278740
9024,14,Improv_Melody,110,9999,9999,9999,2622778420
9024,14,Improv_Melody,111,9999,9999,9999,2623278192
9024,14,Improv_Melody,112,9999,9999,9999,2623778864
9024,14,Improv_Melody,113,9999,9999,9999,2624278632
9024,14,Improv_Melody,114,9999,9999,9999,2624778336
9024,14,Improv_Melody,115,9999,9999,9999,2625279084
9024,14,Improv_Melody,116,9999,9999,9999,2625778784
9024,14,Improv_Melody,117,9999,9999,9999,2626278456
9024,14,Improv_Melody,118,9999,9999,9999,2626778208
9024,14,Improv_Melody,119,9999,9999,9999,2627278956
9024,14,Improv_Melody,120,9999,9999,9999,2627778652
9024,14,Improv_Melody,121,9999,9999,9999,2628278368
9024,14,Improv_Melody,122,9999,9999,9999,2628779120
9024,14,Improv_Melody,123,9999,9999,9999,2629278788
9024,14,Improv_Melody,124,9999,9999,9999,2629778496
9024,14,Improv_Melody,125,9999,9999,9999,2630278212
9024,14,Improv_Melody,126,9999,9999,9999,2630778964
9024,14,Improv_Melody,127,9999,9999,9999,2631278680
9024,14,Improv_Melody,128,9999,9999,9999,2631778388
9024,14,Improv_Melody,129,9999,9999,9999,2632278116
9024,14,Improv_Melody,130,9999,9999,9999,2632778868
9024,14,Improv_Melody,131,9999,9999,9999,2633278584
9024,14,Improv_Melody,132,9999,9999,9999,2633778288
9024,14,Improv_Melody,133,9999,9999,9999,2634278976
9024,14,Improv_Melody,134,9999,9999,9999,2634778684
9024,14,Improv_Melody,135,9999,9999,9999,2635278400
9024,14,Improv_Melody,136,9999,9999,9999,2635778100
9024,14,Improv_Melody,137,9999,9999,9999,2636278860
9024,14,Improv_Melody,138,9999,9999,9999,2636778564
9024,14,Improv_Melody,139,9999,9999,9999,2637278260
9024,14,Improv_Melody,140,9999,9999,9999,2637779004
9024,14,Improv_Melody,141,9999,9999,9999,2638278704
9024,14,Improv_Melody,142,9999,9999,9999,2638778488
9024,14,Improv_Melody,143,9999,9999,9999,2639278188
9024,14,Improv_Melody,144,9999,9999,9999,2639778912
9024,14,Improv_Melody,145,9999,9999,9999,2640278648
9024,14,Improv_Melody,146,9999,9999,9999,2640778324
9024,14,Improv_Melody,147,9999,9999,9999,2641279084
9024,14,Improv_Melody,148,9999,9999,9999,2641778768
9024,14,Improv_Melody,149,9999,9999,9999,2642278488
9024,14,Improv_Melody,150,9999,9999,9999,2642778172
9024,14,Improv_Melody,151,9999,9999,9999,2643278932
9024,14,Improv_Melody,152,9999,9999,9999,2643778616
9024,14,Improv_Melody,153,9999,9999,9999,2644278344
9024,14,Improv_Melody,154,9999,9999,9999,2644779092
9024,14,Improv_Melody,155,9999,9999,9999,2645278792
9024,14,Improv_Melody,156,9999,9999,9999,2645778488
9024,14,Improv_Melody,157,9999,9999,9999,2646278264
9024,14,Improv_Melody,158,9999,9999,9999,2646778936
9024,14,Improv_Melody,159,9999,9999,9999,2647278692
9024,14,Improv_Melody,160,9999,9999,9999,2647778388
9024,14,Improv_Melody,161,9999,9999,9999,2648278100
90