pid,taskRunCount,taskID,taskName,i,channel,pitch,velocity,microseconds
95,1,0,Ticks_Pract_8,0,5,42,127,107031856
95,1,0,Ticks_Pract_8,1,5,42,127,107831612
95,1,0,Ticks_Pract_8,2,1,48,32,107986292
95,1,0,Ticks_Pract_8,3,5,42,127,108632392
95,1,0,Ticks_Pract_8,4,1,48,38,108674060
95,1,0,Ticks_Pract_8,5,1,48,35,109430636
95,1,0,Ticks_Pract_8,6,5,42,127,109432220
95,1,0,Ticks_Pract_8,7,1,48,35,110214860
95,1,0,Ticks_Pract_8,8,5,42,127,110231952
95,1,0,Ticks_Pract_8,9,1,48,40,110982360
95,1,0,Ticks_Pract_8,10,5,42,127,111031536
95,1,0,Ticks_Pract_8,11,1,48,37,111780972
95,1,0,Ticks_Pract_8,12,5,42,127,111832392
95,1,0,Ticks_Pract_8,13,1,48,36,112588112
95,1,0,Ticks_Pract_8,14,5,42,127,112632124
95,1,0,Ticks_Pract_8,15,1,48,32,113400484
95,1,0,Ticks_Pract_8,16,5,42,127,113431784
95,1,0,Ticks_Pract_8,17,1,48,34,114218024
95,1,0,Ticks_Pract_8,18,5,42,127,114231592
95,1,0,Ticks_Pract_8,19,1,48,32,114982376
95,1,0,Ticks_Pract_8,20,5,42,127,115032596
95,1,0,Ticks_Pract_8,21,1,48,35,115774924
95,1,0,Ticks_Pract_8,22,5,42,127,115832204
95,1,0,Ticks_Pract_8,23,1,48,32,116579996
95,1,0,Ticks_Pract_8,24,5,42,127,116631936
95,1,0,Ticks_Pract_8,25,1,48,29,117359984
95,1,0,Ticks_Pract_8,26,5,42,127,117431524
95,1,0,Ticks_Pract_8,27,1,48,29,118141020
95,1,0,Ticks_Pract_8,28,5,42,127,118232600
95,1,0,Ticks_Pract_8,29,1,48,29,118934620
95,1,0,Ticks_Pract_8,30,5,42,127,119032096
95,1,0,Ticks_Pract_8,31,1,48,33,119747740
95,1,0,Ticks_Pract_8,32,5,42,127,119831844
95,1,0,Ticks_Pract_8,33,1,48,25,120558916
95,1,0,Ticks_Pract_8,34,5,42,127,120631652
95,1,0,Ticks_Pract_8,35,1,48,30,121354904
95,1,0,Ticks_Pract_8,36,5,42,127,121432508
95,1,0,Ticks_Pract_8,37,1,48,31,122144172
95,1,0,Ticks_Pract_8,38,5,42,127,122232340
95,1,0,Ticks_Pract_8,39,1,48,31,122979232
95,1,0,Ticks_Pract_8,40,5,42,127,123031776
95,1,0,Ticks_Pract_8,41,1,48,31,123798188
95,1,0,Ticks_Pract_8,42,5,42,127,123831584
95,1,0,Ticks_Pract_8,43,1,48,37,124588796
95,1,0,Ticks_Pract_8,44,5,42,127,124632512
95,1,0,Ticks_Pract_8,45,1,48,37,125394364
95,1,0,Ticks_Pract_8,46,5,42,127,125432392
95,1,0,Ticks_Pract_8,47,1,48,38,126206732
95,1,0,Ticks_Pract_8,48,5,42,127,126232276
95,1,0,Ticks_Pract_8,49,1,48,36,127012280
95,1,0,Ticks_Pract_8,50,5,42,127,127031760
95,1,0,Ticks_Pract_8,51,1,48,35,127815676
95,1,0,Ticks_Pract_8,52,5,42,127,127832392
95,1,0,Ticks_Pract_8,53,1,48,39,128604268
95,1,0,Ticks_Pract_8,54,5,42,127,128632596
95,1,0,Ticks_Pract_8,55,1,48,37,129385848
95,1,0,Ticks_Pract_8,56,5,42,127,129431884
95,1,0,Ticks_Pract_8,57,1,48,38,130162468
95,1,0,Ticks_Pract_8,58,5,42,127,130231544
95,1,0,Ticks_Pract_8,59,1,48,38,130944032
95,1,0,Ticks_Pract_8,0,9999,9999,9999,107029568
95,1,0,Ticks_Pract_8,1,9999,9999,9999,107829324
95,1,0,Ticks_Pract_8,2,9999,9999,9999,108630104
95,1,0,Ticks_Pract_8,3,9999,9999,9999,109429864
95,1,0,Ticks_Pract_8,4,9999,9999,9999,110229588
95,1,0,Ticks_Pract_8,5,9999,9999,9999,111029324
95,1,0,Ticks_Pract_8,6,9999,9999,9999,111830104
95,1,0,Ticks_Pract_8,7,9999,9999,9999,112629836
95,1,0,Ticks_Pract_8,8,9999,9999,9999,113429572
95,1,0,Ticks_Pract_8,9,9999,9999,9999,114229304
95,1,0,Ticks_Pract_8,10,9999,9999,9999,115030084
95,1,0,Ticks_Pract_8,11,9999,9999,9999,115829840
95,1,0,Ticks_Pract_8,12,9999,9999,9999,116629576
95,1,0,Ticks_Pract_8,13,9999,9999,9999,117429312
95,1,0,Ticks_Pract_8,14,9999,9999,9999,118230088
95,1,0,Ticks_Pract_8,15,9999,9999,9999,119029808
95,1,0,Ticks_Pract_8,16,9999,9999,9999,119829556
95,1,0,Ticks_Pract_8,17,9999,9999,9999,120629364
95,1,0,Ticks_Pract_8,18,9999,9999,9999,121430072
95,1,0,Ticks_Pract_8,19,9999,9999,9999,122229828
95,1,0,Ticks_Pract_8,20,9999,9999,9999,123029564
95,1,0,Ticks_Pract_8,21,9999,9999,9999,123829296
95,1,0,Ticks_Pract_8,22,9999,9999,9999,124630076
95,1,0,Ticks_Pract_8,23,9999,9999,9999,125429808
95,1,0,Ticks_Pract_8,24,9999,9999,9999,126229616
95,1,0,Ticks_Pract_8,25,9999,9999,9999,127029324
95,1,0,Ticks_Pract_8,26,9999,9999,9999,127830104
95,1,0,Ticks_Pract_8,27,9999,9999,9999,128629864
95,1,0,Ticks_Pract_8,28,9999,9999,9999,129429596
95,1,0,Ticks_Pract_8,29,9999,9999,9999,130229328
95,2,1,Ticks_Pract_5,0,5,42,127,151005532
95,2,1,Ticks_Pract_5,1,5,42,127,151506220
95,2,1,Ticks_Pract_5,2,1,48,33,151960048
95,2,1,Ticks_Pract_5,3,5,42,127,152006156
95,2,1,Ticks_Pract_5,4,1,48,35,152491084
95,2,1,Ticks_Pract_5,5,5,42,127,152505700
95,2,1,Ticks_Pract_5,6,1,48,39,152987632
95,2,1,Ticks_Pract_5,7,5,42,127,153005396
95,2,1,Ticks_Pract_5,8,1,48,45,153492716
95,2,1,Ticks_Pract_5,9,5,42,127,153506284
95,2,1,Ticks_Pract_5,10,5,42,127,154006060
95,2,1,Ticks_Pract_5,11,1,48,42,154010008
95,2,1,Ticks_Pract_5,12,5,42,127,154505684
95,2,1,Ticks_Pract_5,13,1,48,42,154525856
95,2,1,Ticks_Pract_5,14,5,42,127,155006348
95,2,1,Ticks_Pract_5,15,1,48,38,155025476
95,2,1,Ticks_Pract_5,16,5,42,127,155506192
95,2,1,Ticks_Pract_5,17,1,48,40,155515152
95,2,1,Ticks_Pract_5,18,5,42,127,156005816
95,2,1,Ticks_Pract_5,19,1,48,43,156015816
95,2,1,Ticks_Pract_5,20,5,42,127,156505336
95,2,1,Ticks_Pract_5,21,1,48,34,156555752
95,2,1,Ticks_Pract_5,22,5,42,127,157006224
95,2,1,Ticks_Pract_5,23,1,48,44,157018992
95,2,1,Ticks_Pract_5,24,5,42,127,157505844
95,2,1,Ticks_Pract_5,25,1,48,42,157508440
95,2,1,Ticks_Pract_5,26,1,48,42,157988668
95,2,1,Ticks_Pract_5,27,5,42,127,158005608
95,2,1,Ticks_Pract_5,28,5,42,127,158506432
95,2,1,Ticks_Pract_5,29,1,48,45,158514340
95,2,1,Ticks_Pract_5,30,5,42,127,159006348
95,2,1,Ticks_Pract_5,31,1,48,40,159036472
95,2,1,Ticks_Pract_5,32,5,42,127,159505668
95,2,1,Ticks_Pract_5,33,1,48,38,159548356
95,2,1,Ticks_Pract_5,34,5,42,127,160005436
95,2,1,Ticks_Pract_5,35,1,48,40,160066448
95,2,1,Ticks_Pract_5,36,5,42,127,160506176
95,2,1,Ticks_Pract_5,37,1,48,36,160569660
95,2,1,Ticks_Pract_5,38,5,42,127,161006096
95,2,1,Ticks_Pract_5,39,1,48,38,161079456
95,2,1,Ticks_Pract_5,40,5,42,127,161505792
95,2,1,Ticks_Pract_5,41,1,48,32,161582588
95,2,1,Ticks_Pract_5,42,5,42,127,162006312
95,2,1,Ticks_Pract_5,43,1,48,32,162089760
95,2,1,Ticks_Pract_5,44,5,42,127,162506224
95,2,1,Ticks_Pract_5,45,1,48,35,162558044
95,2,1,Ticks_Pract_5,46,5,42,127,163005920
95,2,1,Ticks_Pract_5,47,1,48,37,163027068
95,2,1,Ticks_Pract_5,48,5,42,127,163505464
95,2,1,Ticks_Pract_5,49,1,48,40,163539032
95,2,1,Ticks_Pract_5,50,5,42,127,164006208
95,2,1,Ticks_Pract_5,51,1,48,40,164030044
95,2,1,Ticks_Pract_5,52,5,42,127,164506124
95,2,1,Ticks_Pract_5,53,1,48,38,164536772
95,2,1,Ticks_Pract_5,54,5,42,127,165005596
95,2,1,Ticks_Pract_5,55,1,48,39,165030036
95,2,1,Ticks_Pract_5,56,5,42,127,165506416
95,2,1,Ticks_Pract_5,57,1,48,37,165528160
95,2,1,Ticks_Pract_5,58,5,42,127,166006108
95,2,1,Ticks_Pract_5,59,1,48,37,166046248
95,2,1,Ticks_Pract_5,60,5,42,127,166505948
95,2,1,Ticks_Pract_5,61,1,48,34,166547364
95,2,1,Ticks_Pract_5,62,5,42,127,167005544
95,2,1,Ticks_Pract_5,63,1,48,38,167033076
95,2,1,Ticks_Pract_5,64,5,42,127,167506360
95,2,1,Ticks_Pract_5,65,1,48,38,167536960
95,2,1,Ticks_Pract_5,66,5,42,127,168006056
95,2,1,Ticks_Pract_5,67,1,48,41,168038896
95,2,1,Ticks_Pract_5,68,5,42,127,168505676
95,2,1,Ticks_Pract_5,69,1,48,43,168550032
95,2,1,Ticks_Pract_5,70,1,48,24,168613808
95,2,1,Ticks_Pract_5,71,5,42,127,169005496
95,2,1,Ticks_Pract_5,72,1,48,30,169027540
95,2,1,Ticks_Pract_5,73,5,42,127,169506088
95,2,1,Ticks_Pract_5,74,1,48,34,169550124
95,2,1,Ticks_Pract_5,75,5,42,127,170006004
95,2,1,Ticks_Pract_5,76,1,48,34,170037628
95,2,1,Ticks_Pract_5,77,5,42,127,170505924
95,2,1,Ticks_Pract_5,78,1,48,37,170539788
95,2,1,Ticks_Pract_5,0,9999,9999,9999,151003248
95,2,1,Ticks_Pract_5,1,9999,9999,9999,151503936
95,2,1,Ticks_Pract_5,2,9999,9999,9999,152003644
95,2,1,Ticks_Pract_5,3,9999,9999,9999,152503416
95,2,1,Ticks_Pract_5,4,9999,9999,9999,153003108
95,2,1,Ticks_Pract_5,5,9999,9999,9999,153503852
95,2,1,Ticks_Pract_5,6,9999,9999,9999,154003552
95,2,1,Ticks_Pract_5,7,9999,9999,9999,154503248
95,2,1,Ticks_Pract_5,8,9999,9999,9999,155003988
95,2,1,Ticks_Pract_5,9,9999,9999,9999,155503684
95,2,1,Ticks_Pract_5,10,9999,9999,9999,156003380
95,2,1,Ticks_Pract_5,11,9999,9999,9999,156503124
95,2,1,Ticks_Pract_5,12,9999,9999,9999,157003864
95,2,1,Ticks_Pract_5,13,9999,9999,9999,157503560
95,2,1,Ticks_Pract_5,14,9999,9999,9999,158003320
95,2,1,Ticks_Pract_5,15,9999,9999,9999,158503996
95,2,1,Ticks_Pract_5,16,9999,9999,9999,159003764
95,2,1,Ticks_Pract_5,17,9999,9999,9999,159503456
95,2,1,Ticks_Pract_5,18,9999,9999,9999,160003152
95,2,1,Ticks_Pract_5,19,9999,9999,9999,160503892
95,2,1,Ticks_Pract_5,20,9999,9999,9999,161003588
95,2,1,Ticks_Pract_5,21,9999,9999,9999,161503280
95,2,1,Ticks_Pract_5,22,9999,9999,9999,162004020
95,2,1,Ticks_Pract_5,23,9999,9999,9999,162503788
95,2,1,Ticks_Pract_5,24,9999,9999,9999,163003484
95,2,1,Ticks_Pract_5,25,9999,9999,9999,163503180
95,2,1,Ticks_Pract_5,26,9999,9999,9999,164003920
95,2,1,Ticks_Pract_5,27,9999,9999,9999,164503612
95,2,1,Ticks_Pract_5,28,9999,9999,9999,165003384
95,2,1,Ticks_Pract_5,29,9999,9999,9999,165504052
95,2,1,Ticks_Pract_5,30,9999,9999,9999,166003820
95,2,1,Ticks_Pract_5,31,9999,9999,9999,166503516
95,2,1,Ticks_Pract_5,32,9999,9999,9999,167003256
95,2,1,Ticks_Pract_5,33,9999,9999,9999,167503924
95,2,1,Ticks_Pract_5,34,9999,9999,9999,168003696
95,2,1,Ticks_Pract_5,35,9999,9999,9999,168503388
95,2,1,Ticks_Pract_5,36,9999,9999,9999,169003060
95,2,1,Ticks_Pract_5,37,9999,9999,9999,169503804
95,2,1,Ticks_Pract_5,38,9999,9999,9999,170003572
95,2,1,Ticks_Pract_5,39,9999,9999,9999,170503268
95,3,2,T1_SMS_8,0,5,42,127,276445424
95,3,2,T1_SMS_8,1,1,48,25,277153508
95,3,2,T1_SMS_8,2,5,42,127,277246220
95,3,2,T1_SMS_8,3,1,48,27,277993636
95,3,2,T1_SMS_8,4,5,42,127,278046400
95,3,2,T1_SMS_8,5,1,48,25,278838848
95,3,2,T1_SMS_8,6,5,42,127,278846056
95,3,2,T1_SMS_8,7,5,42,127,279645600
95,3,2,T1_SMS_8,8,1,48,22,279668916
95,3,2,T1_SMS_8,9,5,42,127,280446228
95,3,2,T1_SMS_8,10,1,48,23,280449796
95,3,2,T1_SMS_8,11,5,42,127,281246184
95,3,2,T1_SMS_8,12,1,48,27,281257684
95,3,2,T1_SMS_8,13,5,42,127,282045696
95,3,2,T1_SMS_8,14,1,48,22,282082100
95,3,2,T1_SMS_8,15,5,42,127,282845432
95,3,2,T1_SMS_8,16,1,48,21,282874956
95,3,2,T1_SMS_8,17,5,42,127,283646284
95,3,2,T1_SMS_8,18,1,48,23,283670800
95,3,2,T1_SMS_8,19,1,48,21,284439172
95,3,2,T1_SMS_8,20,5,42,127,284446084
95,3,2,T1_SMS_8,21,1,48,21,285201880
95,3,2,T1_SMS_8,22,5,42,127,285245672
95,3,2,T1_SMS_8,23,1,48,21,286040288
95,3,2,T1_SMS_8,24,5,42,127,286045504
95,3,2,T1_SMS_8,25,1,48,22,286842732
95,3,2,T1_SMS_8,26,5,42,127,286846432
95,3,2,T1_SMS_8,27,1,48,21,287618832
95,3,2,T1_SMS_8,28,5,42,127,287646092
95,3,2,T1_SMS_8,29,1,48,23,288379596
95,3,2,T1_SMS_8,30,5,42,127,288445752
95,3,2,T1_SMS_8,31,1,48,22,289224432
95,3,2,T1_SMS_8,32,5,42,127,289245560
95,3,2,T1_SMS_8,33,1,48,17,290030080
95,3,2,T1_SMS_8,34,5,42,127,290046268
95,3,2,T1_SMS_8,35,1,48,22,290812012
95,3,2,T1_SMS_8,36,5,42,127,290846072
95,3,2,T1_SMS_8,37,1,48,23,291589232
95,3,2,T1_SMS_8,38,5,42,127,291645880
95,3,2,T1_SMS_8,39,1,48,21,292427408
95,3,2,T1_SMS_8,40,5,42,127,292445492
95,3,2,T1_SMS_8,41,1,48,19,293214452
95,3,2,T1_SMS_8,42,5,42,127,293246196
95,3,2,T1_SMS_8,43,1,48,21,293989504
95,3,2,T1_SMS_8,44,5,42,127,294046152
95,3,2,T1_SMS_8,45,1,48,19,294799856
95,3,2,T1_SMS_8,46,5,42,127,294845812
95,3,2,T1_SMS_8,47,1,48,20,295614396
95,3,2,T1_SMS_8,48,5,42,127,295645548
95,3,2,T1_SMS_8,49,1,48,19,296402760
95,3,2,T1_SMS_8,50,5,42,127,296446328
95,3,2,T1_SMS_8,51,1,48,18,297179084
95,3,2,T1_SMS_8,52,5,42,127,297246212
95,3,2,T1_SMS_8,53,1,48,20,297968272
95,3,2,T1_SMS_8,54,5,42,127,298045944
95,3,2,T1_SMS_8,55,1,48,19,298785060
95,3,2,T1_SMS_8,56,5,42,127,298845404
95,3,2,T1_SMS_8,57,1,48,22,299606116
95,3,2,T1_SMS_8,58,5,42,127,299646184
95,3,2,T1_SMS_8,59,1,48,22,300389864
95,3,2,T1_SMS_8,60,5,42,127,300446140
95,3,2,T1_SMS_8,61,1,48,21,301209944
95,3,2,T1_SMS_8,62,5,42,127,301245876
95,3,2,T1_SMS_8,63,1,48,20,301998900
95,3,2,T1_SMS_8,64,5,42,127,302045460
95,3,2,T1_SMS_8,65,1,48,20,302829452
95,3,2,T1_SMS_8,66,5,42,127,302846388
95,3,2,T1_SMS_8,67,1,48,22,303639360
95,3,2,T1_SMS_8,68,5,42,127,303646196
95,3,2,T1_SMS_8,69,5,42,127,304446088
95,3,2,T1_SMS_8,70,1,48,21,304461624
95,3,2,T1_SMS_8,71,5,42,127,305245472
95,3,2,T1_SMS_8,72,1,48,21,305253456
95,3,2,T1_SMS_8,73,1,48,16,306007672
95,3,2,T1_SMS_8,74,5,42,127,306046172
95,3,2,T1_SMS_8,75,1,48,18,306844168
95,3,2,T1_SMS_8,76,5,42,127,306845980
95,3,2,T1_SMS_8,77,1,48,19,307634240
95,3,2,T1_SMS_8,78,5,42,127,307646160
95,3,2,T1_SMS_8,79,1,48,19,308367100
95,3,2,T1_SMS_8,80,5,42,127,308445520
95,3,2,T1_SMS_8,81,1,48,14,309234976
95,3,2,T1_SMS_8,82,5,42,127,309246300
95,3,2,T1_SMS_8,83,1,48,20,310026484
95,3,2,T1_SMS_8,84,5,42,127,310046184
95,3,2,T1_SMS_8,85,1,48,16,310831152
95,3,2,T1_SMS_8,86,5,42,127,310846140
95,3,2,T1_SMS_8,87,1,48,20,311634844
95,3,2,T1_SMS_8,88,5,42,127,311645452
95,3,2,T1_SMS_8,89,5,42,127,312446240
95,3,2,T1_SMS_8,90,1,48,16,312451900
95,3,2,T1_SMS_8,91,5,42,127,313245972
95,3,2,T1_SMS_8,92,1,48,19,313256792
95,3,2,T1_SMS_8,93,1,48,22,314041556
95,3,2,T1_SMS_8,94,5,42,127,314045924
95,3,2,T1_SMS_8,95,5,42,127,314845440
95,3,2,T1_SMS_8,96,1,48,17,314848936
95,3,2,T1_SMS_8,97,1,48,21,315639976
95,3,2,T1_SMS_8,98,5,42,127,315646288
95,3,2,T1_SMS_8,99,1,48,19,316439108
95,3,2,T1_SMS_8,100,5,42,127,316446020
95,3,2,T1_SMS_8,101,1,48,16,317230540
95,3,2,T1_SMS_8,102,5,42,127,317245904
95,3,2,T1_SMS_8,103,1,48,20,318034608
95,3,2,T1_SMS_8,104,5,42,127,318045516
95,3,2,T1_SMS_8,105,1,48,23,318825916
95,3,2,T1_SMS_8,106,5,42,127,318846444
95,3,2,T1_SMS_8,107,1,48,23,319616972
95,3,2,T1_SMS_8,108,5,42,127,319645952
95,3,2,T1_SMS_8,109,1,48,23,320402496
95,3,2,T1_SMS_8,110,5,42,127,320445832
95,3,2,T1_SMS_8,111,1,48,18,321206040
95,3,2,T1_SMS_8,112,5,42,127,321245716
95,3,2,T1_SMS_8,113,1,48,24,322041528
95,3,2,T1_SMS_8,114,5,42,127,322046348
95,3,2,T1_SMS_8,115,1,48,21,322840068
95,3,2,T1_SMS_8,116,5,42,127,322846008
95,3,2,T1_SMS_8,117,5,42,127,323645748
95,3,2,T1_SMS_8,118,1,48,17,323659792
95,3,2,T1_SMS_8,119,1,48,20,324442848
95,3,2,T1_SMS_8,120,5,42,127,324445648
95,3,2,T1_SMS_8,121,5,42,127,325246284
95,3,2,T1_SMS_8,122,1,48,22,325260100
95,3,2,T1_SMS_8,123,5,42,127,326046168
95,3,2,T1_SMS_8,124,1,48,19,326063948
95,3,2,T1_SMS_8,125,1,48,26,326842944
95,3,2,T1_SMS_8,126,5,42,127,326845744
95,3,2,T1_SMS_8,127,5,42,127,327645484
95,3,2,T1_SMS_8,128,1,48,19,327693032
95,3,2,T1_SMS_8,129,5,42,127,328446412
95,3,2,T1_SMS_8,130,1,48,21,328463896
95,3,2,T1_SMS_8,131,5,42,127,329246000
95,3,2,T1_SMS_8,132,1,48,28,329250168
95,3,2,T1_SMS_8,133,1,48,28,330046404
95,3,2,T1_SMS_8,134,5,42,127,330047448
95,3,2,T1_SMS_8,135,5,42,127,330845640
95,3,2,T1_SMS_8,136,1,48,28,330856384
95,3,2,T1_SMS_8,137,5,42,127,331646272
95,3,2,T1_SMS_8,138,1,48,20,331683052
95,3,2,T1_SMS_8,139,5,42,127,332446080
95,3,2,T1_SMS_8,140,1,48,22,332491684
95,3,2,T1_SMS_8,141,5,42,127,333245964
95,3,2,T1_SMS_8,142,1,48,20,333295832
95,3,2,T1_SMS_8,143,5,42,127,334045472
95,3,2,T1_SMS_8,144,1,48,21,334058092
95,3,2,T1_SMS_8,145,1,48,20,334832824
95,3,2,T1_SMS_8,146,5,42,127,334846244
95,3,2,T1_SMS_8,147,1,48,21,335624256
95,3,2,T1_SMS_8,148,5,42,127,335646052
95,3,2,T1_SMS_8,149,5,42,127,336445792
95,3,2,T1_SMS_8,150,1,48,15,336467912
95,3,2,T1_SMS_8,151,5,42,127,337245776
95,3,2,T1_SMS_8,152,1,48,18,337275448
95,3,2,T1_SMS_8,153,5,42,127,338046260
95,3,2,T1_SMS_8,154,1,48,20,338047304
95,3,2,T1_SMS_8,155,5,42,127,338845992
95,3,2,T1_SMS_8,156,1,48,15,338882844
95,3,2,T1_SMS_8,157,1,48,19,339631252
95,3,2,T1_SMS_8,158,5,42,127,339645792
95,3,2,T1_SMS_8,159,1,48,21,340400836
95,3,2,T1_SMS_8,160,5,42,127,340445748
95,3,2,T1_SMS_8,161,1,48,14,341220768
95,3,2,T1_SMS_8,162,5,42,127,341246380
95,3,2,T1_SMS_8,163,1,48,22,342044152
95,3,2,T1_SMS_8,164,5,42,127,342045964
95,3,2,T1_SMS_8,165,1,48,16,342845252
95,3,2,T1_SMS_8,166,5,42,127,342846824
95,3,2,T1_SMS_8,167,5,42,127,343645908
95,3,2,T1_SMS_8,168,1,48,18,343651724
95,3,2,T1_SMS_8,169,5,42,127,344446240
95,3,2,T1_SMS_8,170,1,48,20,344472248
95,3,2,T1_SMS_8,171,1,48,18,345227688
95,3,2,T1_SMS_8,172,5,42,127,345246120
95,3,2,T1_SMS_8,173,1,48,18,346038492
95,3,2,T1_SMS_8,174,5,42,127,346045928
95,3,2,T1_SMS_8,175,5,42,127,346845516
95,3,2,T1_SMS_8,176,1,48,21,346846784
95,3,2,T1_SMS_8,177,1,48,24,347640576
95,3,2,T1_SMS_8,178,5,42,127,347646368
95,3,2,T1_SMS_8,179,1,48,22,348434476
95,3,2,T1_SMS_8,180,5,42,127,348445952
95,3,2,T1_SMS_8,181,1,48,15,349215208
95,3,2,T1_SMS_8,182,5,42,127,349245760
95,3,2,T1_SMS_8,183,1,48,20,349995492
95,3,2,T1_SMS_8,184,5,42,127,350045668
95,3,2,T1_SMS_8,185,1,48,19,350789540
95,3,2,T1_SMS_8,186,5,42,127,350846296
95,3,2,T1_SMS_8,187,1,48,20,351581596
95,3,2,T1_SMS_8,188,5,42,127,351646180
95,3,2,T1_SMS_8,189,1,48,18,352403472
95,3,2,T1_SMS_8,190,5,42,127,352445764
95,3,2,T1_SMS_8,191,1,48,21,353237612
95,3,2,T1_SMS_8,192,5,42,127,353245572
95,3,2,T1_SMS_8,193,5,42,127,354046508
95,3,2,T1_SMS_8,194,1,48,20,354087032
95,3,2,T1_SMS_8,195,5,42,127,354846016
95,3,2,T1_SMS_8,196,1,48,20,354870756
95,3,2,T1_SMS_8,197,5,42,127,355645752
95,3,2,T1_SMS_8,198,1,48,19,355704468
95,3,2,T1_SMS_8,199,5,42,127,356445584
95,3,2,T1_SMS_8,200,1,48,20,356505252
95,3,2,T1_SMS_8,201,5,42,127,357246660
95,3,2,T1_SMS_8,202,1,48,20,357274540
95,3,2,T1_SMS_8,203,5,42,127,358046172
95,3,2,T1_SMS_8,204,1,48,17,358123340
95,3,2,T1_SMS_8,205,5,42,127,358845756
95,3,2,T1_SMS_8,206,1,48,16,358909540
95,3,2,T1_SMS_8,207,5,42,127,359645564
95,3,2,T1_SMS_8,208,1,48,19,359649132
95,3,2,T1_SMS_8,209,5,42,127,360446272
95,3,2,T1_SMS_8,210,1,48,20,360457620
95,3,2,T1_SMS_8,211,5,42,127,361245932
95,3,2,T1_SMS_8,212,1,48,19,361249496
95,3,2,T1_SMS_8,213,5,42,127,362045888
95,3,2,T1_SMS_8,214,1,48,22,362046856
95,3,2,T1_SMS_8,215,5,42,127,362845644
95,3,2,T1_SMS_8,216,1,48,19,362875616
95,3,2,T1_SMS_8,217,1,48,21,363630008
95,3,2,T1_SMS_8,218,5,42,127,363646344
95,3,2,T1_SMS_8,219,5,42,127,364445936
95,3,2,T1_SMS_8,220,1,48,20,364453764
95,3,2,T1_SMS_8,221,5,42,127,365245744
95,3,2,T1_SMS_8,222,1,48,16,365317308
95,3,2,T1_SMS_8,223,5,42,127,366045700
95,3,2,T1_SMS_8,224,1,48,19,366065876
95,3,2,T1_SMS_8,225,5,42,127,366846480
95,3,2,T1_SMS_8,226,1,48,15,366848420
95,3,2,T1_SMS_8,227,5,42,127,367645916
95,3,2,T1_SMS_8,228,5,42,127,368445672
95,3,2,T1_SMS_8,229,5,42,127,369245600
95,3,2,T1_SMS_8,230,1,48,13,369262932
95,3,2,T1_SMS_8,231,1,48,21,370031008
95,3,2,T1_SMS_8,232,5,42,127,370046300
95,3,2,T1_SMS_8,233,1,48,21,370809276
95,3,2,T1_SMS_8,234,5,42,127,370846032
95,3,2,T1_SMS_8,235,1,48,17,371625388
95,3,2,T1_SMS_8,236,5,42,127,371645768
95,3,2,T1_SMS_8,237,1,48,19,372410308
95,3,2,T1_SMS_8,0,9999,9999,9999,276443208
95,3,2,T1_SMS_8,1,9999,9999,9999,277244004
95,3,2,T1_SMS_8,2,9999,9999,9999,278043740
95,3,2,T1_SMS_8,3,9999,9999,9999,278843472
95,3,2,T1_SMS_8,4,9999,9999,9999,279643236
95,3,2,T1_SMS_8,5,9999,9999,9999,280444016
95,3,2,T1_SMS_8,6,9999,9999,9999,281243748
95,3,2,T1_SMS_8,7,9999,9999,9999,282043484
95,3,2,T1_SMS_8,8,9999,9999,9999,282843216
95,3,2,T1_SMS_8,9,9999,9999,9999,283643996
95,3,2,T1_SMS_8,10,9999,9999,9999,284443724
95,3,2,T1_SMS_8,11,9999,9999,9999,285243456
95,3,2,T1_SMS_8,12,9999,9999,9999,286043216
95,3,2,T1_SMS_8,13,9999,9999,9999,286843996
95,3,2,T1_SMS_8,14,9999,9999,9999,287643732
95,3,2,T1_SMS_8,15,9999,9999,9999,288443464
95,3,2,T1_SMS_8,16,9999,9999,9999,289243196
95,3,2,T1_SMS_8,17,9999,9999,9999,290043976
95,3,2,T1_SMS_8,18,9999,9999,9999,290843712
95,3,2,T1_SMS_8,19,9999,9999,9999,291643444
95,3,2,T1_SMS_8,20,9999,9999,9999,292443204
95,3,2,T1_SMS_8,21,9999,9999,9999,293243984
95,3,2,T1_SMS_8,22,9999,9999,9999,294043716
95,3,2,T1_SMS_8,23,9999,9999,9999,294843448
95,3,2,T1_SMS_8,24,9999,9999,9999,295643184
95,3,2,T1_SMS_8,25,9999,9999,9999,296443964
95,3,2,T1_SMS_8,26,9999,9999,9999,297243700
95,3,2,T1_SMS_8,27,9999,9999,9999,298043508
95,3,2,T1_SMS_8,28,9999,9999,9999,298843192
95,3,2,T1_SMS_8,29,9999,9999,9999,299643972
95,3,2,T1_SMS_8,30,9999,9999,9999,300443704
95,3,2,T1_SMS_8,31,9999,9999,9999,301243440
95,3,2,T1_SMS_8,32,9999,9999,9999,302043248
95,3,2,T1_SMS_8,33,9999,9999,9999,302843952
95,3,2,T1_SMS_8,34,9999,9999,9999,303643760
95,3,2,T1_SMS_8,35,9999,9999,9999,304443500
95,3,2,T1_SMS_8,36,9999,9999,9999,305243184
95,3,2,T1_SMS_8,37,9999,9999,9999,306043960
95,3,2,T1_SMS_8,38,9999,9999,9999,306843716
95,3,2,T1_SMS_8,39,9999,9999,9999,307643500
95,3,2,T1_SMS_8,40,9999,9999,9999,308443232
95,3,2,T1_SMS_8,41,9999,9999,9999,309244012
95,3,2,T1_SMS_8,42,9999,9999,9999,310043748
95,3,2,T1_SMS_8,43,9999,9999,9999,310843480
95,3,2,T1_SMS_8,44,9999,9999,9999,311643240
95,3,2,T1_SMS_8,45,9999,9999,9999,312443952
95,3,2,T1_SMS_8,46,9999,9999,9999,313243760
95,3,2,T1_SMS_8,47,9999,9999,9999,314043488
95,3,2,T1_SMS_8,48,9999,9999,9999,314843228
95,3,2,T1_SMS_8,49,9999,9999,9999,315644000
95,3,2,T1_SMS_8,50,9999,9999,9999,316443732
95,3,2,T1_SMS_8,51,9999,9999,9999,317243468
95,3,2,T1_SMS_8,52,9999,9999,9999,318043228
95,3,2,T1_SMS_8,53,9999,9999,9999,318844008
95,3,2,T1_SMS_8,54,9999,9999,9999,319643740
95,3,2,T1_SMS_8,55,9999,9999,9999,320443472
95,3,2,T1_SMS_8,56,9999,9999,9999,321243208
95,3,2,T1_SMS_8,57,9999,9999,9999,322043988
95,3,2,T1_SMS_8,58,9999,9999,9999,322843720
95,3,2,T1_SMS_8,59,9999,9999,9999,323643460
95,3,2,T1_SMS_8,60,9999,9999,9999,324443212
95,3,2,T1_SMS_8,61,9999,9999,9999,325243996
95,3,2,T1_SMS_8,62,9999,9999,9999,326043732
95,3,2,T1_SMS_8,63,9999,9999,9999,326843456
95,3,2,T1_SMS_8,64,9999,9999,9999,327643196
95,3,2,T1_SMS_8,65,9999,9999,9999,328443976
95,3,2,T1_SMS_8,66,9999,9999,9999,329243712
95,3,2,T1_SMS_8,67,9999,9999,9999,330043444
95,3,2,T1_SMS_8,68,9999,9999,9999,330843204
95,3,2,T1_SMS_8,69,9999,9999,9999,331643984
95,3,2,T1_SMS_8,70,9999,9999,9999,332443716
95,3,2,T1_SMS_8,71,9999,9999,9999,333243452
95,3,2,T1_SMS_8,72,9999,9999,9999,334043184
95,3,2,T1_SMS_8,73,9999,9999,9999,334843956
95,3,2,T1_SMS_8,74,9999,9999,9999,335643764
95,3,2,T1_SMS_8,75,9999,9999,9999,336443504
95,3,2,T1_SMS_8,76,9999,9999,9999,337243188
95,3,2,T1_SMS_8,77,9999,9999,9999,338043972
95,3,2,T1_SMS_8,78,9999,9999,9999,338843704
95,3,2,T1_SMS_8,79,9999,9999,9999,339643504
95,3,2,T1_SMS_8,80,9999,9999,9999,340443236
95,3,2,T1_SMS_8,81,9999,9999,9999,341244016
95,3,2,T1_SMS_8,82,9999,9999,9999,342043700
95,3,2,T1_SMS_8,83,9999,9999,9999,342843492
95,3,2,T1_SMS_8,84,9999,9999,9999,343643248
95,3,2,T1_SMS_8,85,9999,9999,9999,344443952
95,3,2,T1_SMS_8,86,9999,9999,9999,345243756
95,3,2,T1_SMS_8,87,9999,9999,9999,346043492
95,3,2,T1_SMS_8,88,9999,9999,9999,346843228
95,3,2,T1_SMS_8,89,9999,9999,9999,347644004
95,3,2,T1_SMS_8,90,9999,9999,9999,348443736
95,3,2,T1_SMS_8,91,9999,9999,9999,349243472
95,3,2,T1_SMS_8,92,9999,9999,9999,350043232
95,3,2,T1_SMS_8,93,9999,9999,9999,350844008
95,3,2,T1_SMS_8,94,9999,9999,9999,351643744
95,3,2,T1_SMS_8,95,9999,9999,9999,352443476
95,3,2,T1_SMS_8,96,9999,9999,9999,353243212
95,3,2,T1_SMS_8,97,9999,9999,9999,354043996
95,3,2,T1_SMS_8,98,9999,9999,9999,354843728
95,3,2,T1_SMS_8,99,9999,9999,9999,355643460
95,3,2,T1_SMS_8,100,9999,9999,9999,356443220
95,3,2,T1_SMS_8,101,9999,9999,9999,357244000
95,3,2,T1_SMS_8,102,9999,9999,9999,358043736
95,3,2,T1_SMS_8,103,9999,9999,9999,358843468
95,3,2,T1_SMS_8,104,9999,9999,9999,359643204
95,3,2,T1_SMS_8,105,9999,9999,9999,360443984
95,3,2,T1_SMS_8,106,9999,9999,9999,361243716
95,3,2,T1_SMS_8,107,9999,9999,9999,362043448
95,3,2,T1_SMS_8,108,9999,9999,9999,362843208
95,3,2,T1_SMS_8,109,9999,9999,9999,363643980
95,3,2,T1_SMS_8,110,9999,9999,9999,364443720
95,3,2,T1_SMS_8,111,9999,9999,9999,365243456
95,3,2,T1_SMS_8,112,9999,9999,9999,366043188
95,3,2,T1_SMS_8,113,9999,9999,9999,366843968
95,3,2,T1_SMS_8,114,9999,9999,9999,367643704
95,3,2,T1_SMS_8,115,9999,9999,9999,368443456
95,3,2,T1_SMS_8,116,9999,9999,9999,369243236
95,3,2,T1_SMS_8,117,9999,9999,9999,370044012
95,3,2,T1_SMS_8,118,9999,9999,9999,370843744
95,3,2,T1_SMS_8,119,9999,9999,9999,371643480
95,4,4,T1_SMS_5,0,5,42,127,437783980
95,4,4,T1_SMS_5,1,5,42,127,438283696
95,4,4,T1_SMS_5,2,1,48,19,438489020
95,4,4,T1_SMS_5,3,5,42,127,438784288
95,4,4,T1_SMS_5,4,1,48,19,438818300
95,4,4,T1_SMS_5,5,1,48,23,439274068
95,4,4,T1_SMS_5,6,5,42,127,439284128
95,4,4,T1_SMS_5,7,5,42,127,439783980
95,4,4,T1_SMS_5,8,1,48,29,439797800
95,4,4,T1_SMS_5,9,5,42,127,440283672
95,4,4,T1_SMS_5,10,1,48,28,440310652
95,4,4,T1_SMS_5,11,5,42,127,440784340
95,4,4,T1_SMS_5,12,1,48,29,440823436
95,4,4,T1_SMS_5,13,5,42,127,441283888
95,4,4,T1_SMS_5,14,1,48,30,441320292
95,4,4,T1_SMS_5,15,5,42,127,441783732
95,4,4,T1_SMS_5,16,1,48,26,441812880
95,4,4,T1_SMS_5,17,5,42,127,442284252
95,4,4,T1_SMS_5,18,1,48,24,442310632
95,4,4,T1_SMS_5,19,5,42,127,442784096
95,4,4,T1_SMS_5,20,1,48,25,442807184
95,4,4,T1_SMS_5,21,5,42,127,443283716
95,4,4,T1_SMS_5,22,1,48,31,443294164
95,4,4,T1_SMS_5,23,5,42,127,443783560
95,4,4,T1_SMS_5,24,1,48,32,443809048
95,4,4,T1_SMS_5,25,5,42,127,444284228
95,4,4,T1_SMS_5,26,1,48,32,444311356
95,4,4,T1_SMS_5,27,5,42,127,444783924
95,4,4,T1_SMS_5,28,1,48,28,444814040
95,4,4,T1_SMS_5,29,5,42,127,445283616
95,4,4,T1_SMS_5,30,1,48,27,445307232
95,4,4,T1_SMS_5,31,5,42,127,445784360
95,4,4,T1_SMS_5,32,1,48,32,445785324
95,4,4,T1_SMS_5,33,5,42,127,446284104
95,4,4,T1_SMS_5,34,1,48,21,446331528
95,4,4,T1_SMS_5,35,5,42,127,446783796
95,4,4,T1_SMS_5,36,1,48,30,446785060
95,4,4,T1_SMS_5,37,5,42,127,447283496
95,4,4,T1_SMS_5,38,1,48,31,447289156
95,4,4,T1_SMS_5,39,1,48,32,447763100
95,4,4,T1_SMS_5,40,5,42,127,447784156
95,4,4,T1_SMS_5,41,5,42,127,448283932
95,4,4,T1_SMS_5,42,1,48,24,448308296
95,4,4,T1_SMS_5,43,5,42,127,448783924
95,4,4,T1_SMS_5,44,1,48,23,448784964
95,4,4,T1_SMS_5,45,5,42,127,449283396
95,4,4,T1_SMS_5,46,1,48,28,449298108
95,4,4,T1_SMS_5,47,5,42,127,449784064
95,4,4,T1_SMS_5,48,1,48,33,449785028
95,4,4,T1_SMS_5,49,5,42,127,450283980
95,4,4,T1_SMS_5,50,1,48,24,450310588
95,4,4,T1_SMS_5,51,5,42,127,450783824
95,4,4,T1_SMS_5,52,1,48,28,450789564
95,4,4,T1_SMS_5,53,1,48,25,451272936
95,4,4,T1_SMS_5,54,5,42,127,451284260
95,4,4,T1_SMS_5,55,1,48,23,451772928
95,4,4,T1_SMS_5,56,5,42,127,451784032
95,4,4,T1_SMS_5,57,1,48,26,452283956
95,4,4,T1_SMS_5,58,5,42,127,452285292
95,4,4,T1_SMS_5,59,5,42,127,452783352
95,4,4,T1_SMS_5,60,1,48,27,452789616
95,4,4,T1_SMS_5,61,1,48,24,453278748
95,4,4,T1_SMS_5,62,5,42,127,453284164
95,4,4,T1_SMS_5,63,5,42,127,453783864
95,4,4,T1_SMS_5,64,1,48,24,453816224
95,4,4,T1_SMS_5,65,5,42,127,454283708
95,4,4,T1_SMS_5,66,1,48,23,454284672
95,4,4,T1_SMS_5,67,5,42,127,454784376
95,4,4,T1_SMS_5,68,1,48,21,454807168
95,4,4,T1_SMS_5,69,5,42,127,455284072
95,4,4,T1_SMS_5,70,1,48,25,455298860
95,4,4,T1_SMS_5,71,5,42,127,455783844
95,4,4,T1_SMS_5,72,1,48,25,455790704
95,4,4,T1_SMS_5,73,1,48,21,456282708
95,4,4,T1_SMS_5,74,5,42,127,456284280
95,4,4,T1_SMS_5,75,5,42,127,456784180
95,4,4,T1_SMS_5,76,1,48,18,456838412
95,4,4,T1_SMS_5,77,5,42,127,457284020
95,4,4,T1_SMS_5,78,1,48,27,457290356
95,4,4,T1_SMS_5,79,5,42,127,457783864
95,4,4,T1_SMS_5,80,1,48,31,457784828
95,4,4,T1_SMS_5,81,1,48,21,458273872
95,4,4,T1_SMS_5,82,5,42,127,458284524
95,4,4,T1_SMS_5,83,1,48,22,458781640
95,4,4,T1_SMS_5,84,5,42,127,458784144
95,4,4,T1_SMS_5,85,1,48,25,459276408
95,4,4,T1_SMS_5,86,5,42,127,459283768
95,4,4,T1_SMS_5,87,1,48,27,459766224
95,4,4,T1_SMS_5,88,5,42,127,459783908
95,4,4,T1_SMS_5,89,1,48,25,460280804
95,4,4,T1_SMS_5,90,5,42,127,460284204
95,4,4,T1_SMS_5,91,1,48,21,460780500
95,4,4,T1_SMS_5,92,5,42,127,460784124
95,4,4,T1_SMS_5,93,1,48,26,461280496
95,4,4,T1_SMS_5,94,5,42,127,461283820
95,4,4,T1_SMS_5,95,1,48,22,461780564
95,4,4,T1_SMS_5,96,5,42,127,461784636
95,4,4,T1_SMS_5,97,1,48,30,462283816
95,4,4,T1_SMS_5,98,5,42,127,462285300
95,4,4,T1_SMS_5,99,5,42,127,462783808
95,4,4,T1_SMS_5,100,1,48,21,462794932
95,4,4,T1_SMS_5,101,5,42,127,463283724
95,4,4,T1_SMS_5,102,1,48,22,463288940
95,4,4,T1_SMS_5,103,1,48,22,463762812
95,4,4,T1_SMS_5,104,5,42,127,463784312
95,4,4,T1_SMS_5,105,1,48,31,464262952
95,4,4,T1_SMS_5,106,5,42,127,464284004
95,4,4,T1_SMS_5,107,1,48,24,464782880
95,4,4,T1_SMS_5,108,5,42,127,464784368
95,4,4,T1_SMS_5,109,5,42,127,465283476
95,4,4,T1_SMS_5,110,1,48,23,465311576
95,4,4,T1_SMS_5,111,1,48,21,465773108
95,4,4,T1_SMS_5,112,5,42,127,465784284
95,4,4,T1_SMS_5,113,1,48,22,466257224
95,4,4,T1_SMS_5,114,5,42,127,466283884
95,4,4,T1_SMS_5,115,1,48,28,466766016
95,4,4,T1_SMS_5,116,5,42,127,466783724
95,4,4,T1_SMS_5,117,1,48,28,467275884
95,4,4,T1_SMS_5,118,5,42,127,467284464
95,4,4,T1_SMS_5,119,1,48,30,467760988
95,4,4,T1_SMS_5,120,5,42,127,467783988
95,4,4,T1_SMS_5,121,5,42,127,468283764
95,4,4,T1_SMS_5,122,1,48,26,468323336
95,4,4,T1_SMS_5,123,1,48,20,468781716
95,4,4,T1_SMS_5,124,5,42,127,468783380
95,4,4,T1_SMS_5,125,1,48,20,469264788
95,4,4,T1_SMS_5,126,5,42,127,469284344
95,4,4,T1_SMS_5,127,1,48,26,469755504
95,4,4,T1_SMS_5,128,5,42,127,469783888
95,4,4,T1_SMS_5,129,1,48,27,470255200
95,4,4,T1_SMS_5,130,5,42,127,470283588
95,4,4,T1_SMS_5,131,1,48,28,470731336
95,4,4,T1_SMS_5,132,5,42,127,470784252
95,4,4,T1_SMS_5,133,1,48,21,471253396
95,4,4,T1_SMS_5,134,5,42,127,471283948
95,4,4,T1_SMS_5,135,1,48,23,471760952
95,4,4,T1_SMS_5,136,5,42,127,471783644
95,4,4,T1_SMS_5,137,1,48,20,472263788
95,4,4,T1_SMS_5,138,5,42,127,472283640
95,4,4,T1_SMS_5,139,1,48,26,472766244
95,4,4,T1_SMS_5,140,5,42,127,472784232
95,4,4,T1_SMS_5,141,1,48,21,473262800
95,4,4,T1_SMS_5,142,5,42,127,473283928
95,4,4,T1_SMS_5,143,1,48,23,473770424
95,4,4,T1_SMS_5,144,5,42,127,473783624
95,4,4,T1_SMS_5,145,1,48,21,474261144
95,4,4,T1_SMS_5,146,5,42,127,474284588
95,4,4,T1_SMS_5,147,5,42,127,474784064
95,4,4,T1_SMS_5,148,1,48,18,474785476
95,4,4,T1_SMS_5,149,1,48,24,475276236
95,4,4,T1_SMS_5,150,5,42,127,475283752
95,4,4,T1_SMS_5,151,5,42,127,475783528
95,4,4,T1_SMS_5,152,1,48,27,475788744
95,4,4,T1_SMS_5,153,1,48,23,476280944
95,4,4,T1_SMS_5,154,5,42,127,476284192
95,4,4,T1_SMS_5,155,1,48,32,476767772
95,4,4,T1_SMS_5,156,5,42,127,476783960
95,4,4,T1_SMS_5,157,5,42,127,477283736
95,4,4,T1_SMS_5,158,1,48,22,477298524
95,4,4,T1_SMS_5,159,5,42,127,477784848
95,4,4,T1_SMS_5,160,1,48,22,477806972
95,4,4,T1_SMS_5,161,1,48,24,478265560
95,4,4,T1_SMS_5,162,5,42,127,478284068
95,4,4,T1_SMS_5,163,5,42,127,478783992
95,4,4,T1_SMS_5,164,1,48,22,478793320
95,4,4,T1_SMS_5,165,5,42,127,479283536
95,4,4,T1_SMS_5,166,1,48,23,479291968
95,4,4,T1_SMS_5,167,5,42,127,479784504
95,4,4,T1_SMS_5,168,1,48,23,479790840
95,4,4,T1_SMS_5,169,5,42,127,480283972
95,4,4,T1_SMS_5,170,1,48,23,480303324
95,4,4,T1_SMS_5,171,5,42,127,480783668
95,4,4,T1_SMS_5,172,1,48,24,480792396
95,4,4,T1_SMS_5,173,1,48,20,481281776
95,4,4,T1_SMS_5,174,5,42,127,481283360
95,4,4,T1_SMS_5,175,1,48,21,481775088
95,4,4,T1_SMS_5,176,5,42,127,481784100
95,4,4,T1_SMS_5,177,1,48,22,482260944
95,4,4,T1_SMS_5,178,5,42,127,482283944
95,4,4,T1_SMS_5,179,1,48,20,482774704
95,4,4,T1_SMS_5,180,5,42,127,482783640
95,4,4,T1_SMS_5,181,1,48,21,483272980
95,4,4,T1_SMS_5,182,5,42,127,483284604
95,4,4,T1_SMS_5,183,1,48,23,483769908
95,4,4,T1_SMS_5,184,5,42,127,483783928
95,4,4,T1_SMS_5,185,5,42,127,484283776
95,4,4,T1_SMS_5,186,1,48,25,484288096
95,4,4,T1_SMS_5,187,1,48,27,484773632
95,4,4,T1_SMS_5,188,5,42,127,484783540
95,4,4,T1_SMS_5,189,1,48,26,485276924
95,4,4,T1_SMS_5,190,5,42,127,485284432
95,4,4,T1_SMS_5,191,5,42,127,485783984
95,4,4,T1_SMS_5,192,1,48,24,485786656
95,4,4,T1_SMS_5,193,5,42,127,486283604
95,4,4,T1_SMS_5,194,1,48,23,486288892
95,4,4,T1_SMS_5,195,5,42,127,486784644
95,4,4,T1_SMS_5,196,1,48,13,486809380
95,4,4,T1_SMS_5,197,1,48,30,487281920
95,4,4,T1_SMS_5,198,5,42,127,487284032
95,4,4,T1_SMS_5,199,1,48,24,487772400
95,4,4,T1_SMS_5,200,5,42,127,487783728
95,4,4,T1_SMS_5,201,1,48,24,488281760
95,4,4,T1_SMS_5,202,5,42,127,488283424
95,4,4,T1_SMS_5,203,1,48,22,488778720
95,4,4,T1_SMS_5,204,5,42,127,488784688
95,4,4,T1_SMS_5,205,5,42,127,489283920
95,4,4,T1_SMS_5,206,1,48,20,489298508
95,4,4,T1_SMS_5,207,1,48,24,489779608
95,4,4,T1_SMS_5,208,5,42,127,489783680
95,4,4,T1_SMS_5,209,5,42,127,490284356
95,4,4,T1_SMS_5,210,1,48,28,490288376
95,4,4,T1_SMS_5,211,1,48,21,490758952
95,4,4,T1_SMS_5,212,5,42,127,490784192
95,4,4,T1_SMS_5,213,1,48,23,491279592
95,4,4,T1_SMS_5,214,5,42,127,491283888
95,4,4,T1_SMS_5,215,5,42,127,491783516
95,4,4,T1_SMS_5,216,1,48,26,492227844
95,4,4,T1_SMS_5,217,5,42,127,492284348
95,4,4,T1_SMS_5,218,1,48,29,492716096
95,4,4,T1_SMS_5,219,5,42,127,492784044
95,4,4,T1_SMS_5,220,1,48,18,493267476
95,4,4,T1_SMS_5,221,5,42,127,493283664
95,4,4,T1_SMS_5,222,1,48,21,493782744
95,4,4,T1_SMS_5,223,5,42,127,493784408
95,4,4,T1_SMS_5,224,1,48,21,494277336
95,4,4,T1_SMS_5,225,5,42,127,494284100
95,4,4,T1_SMS_5,226,1,48,19,494752420
95,4,4,T1_SMS_5,227,5,42,127,494783796
95,4,4,T1_SMS_5,228,1,48,21,495277104
95,4,4,T1_SMS_5,229,5,42,127,495283564
95,4,4,T1_SMS_5,230,1,48,22,495768868
95,4,4,T1_SMS_5,231,5,42,127,495784456
95,4,4,T1_SMS_5,232,1,48,29,496268788
95,4,4,T1_SMS_5,233,5,42,127,496283928
95,4,4,T1_SMS_5,234,1,48,26,496780672
95,4,4,T1_SMS_5,235,5,42,127,496783844
95,4,4,T1_SMS_5,236,1,48,26,497273936
95,4,4,T1_SMS_5,237,5,42,127,497283544
95,4,4,T1_SMS_5,238,1,48,23,497782472
95,4,4,T1_SMS_5,239,5,42,127,497784208
95,4,4,T1_SMS_5,240,1,48,21,498277592
95,4,4,T1_SMS_5,241,5,42,127,498283832
95,4,4,T1_SMS_5,242,1,48,18,498777656
95,4,4,T1_SMS_5,243,5,42,127,498783524
95,4,4,T1_SMS_5,244,1,48,17,499281020
95,4,4,T1_SMS_5,245,5,42,127,499284416
95,4,4,T1_SMS_5,246,1,48,21,499742612
95,4,4,T1_SMS_5,247,5,42,127,499784084
95,4,4,T1_SMS_5,248,1,48,19,500268120
95,4,4,T1_SMS_5,249,5,42,127,500283856
95,4,4,T1_SMS_5,250,1,48,21,500757488
95,4,4,T1_SMS_5,251,5,42,127,500783476
95,4,4,T1_SMS_5,252,1,48,25,501249704
95,4,4,T1_SMS_5,253,5,42,127,501284292
95,4,4,T1_SMS_5,254,1,48,23,501768624
95,4,4,T1_SMS_5,255,5,42,127,501783764
95,4,4,T1_SMS_5,256,1,48,22,502255224
95,4,4,T1_SMS_5,257,5,42,127,502283684
95,4,4,T1_SMS_5,258,1,48,20,502767112
95,4,4,T1_SMS_5,0,9999,9999,9999,437781620
95,4,4,T1_SMS_5,1,9999,9999,9999,438281336
95,4,4,T1_SMS_5,2,9999,9999,9999,438782004
95,4,4,T1_SMS_5,3,9999,9999,9999,439281768
95,4,4,T1_SMS_5,4,9999,9999,9999,439781468
95,4,4,T1_SMS_5,5,9999,9999,9999,440281164
95,4,4,T1_SMS_5,6,9999,9999,9999,440781904
95,4,4,T1_SMS_5,7,9999,9999,9999,441281600
95,4,4,T1_SMS_5,8,9999,9999,9999,441781300
95,4,4,T1_SMS_5,9,9999,9999,9999,442282040
95,4,4,T1_SMS_5,10,9999,9999,9999,442781808
95,4,4,T1_SMS_5,11,9999,9999,9999,443281504
95,4,4,T1_SMS_5,12,9999,9999,9999,443781200
95,4,4,T1_SMS_5,13,9999,9999,9999,444281940
95,4,4,T1_SMS_5,14,9999,9999,9999,444781636
95,4,4,T1_SMS_5,15,9999,9999,9999,445281332
95,4,4,T1_SMS_5,16,9999,9999,9999,445782072
95,4,4,T1_SMS_5,17,9999,9999,9999,446281816
95,4,4,T1_SMS_5,18,9999,9999,9999,446781512
95,4,4,T1_SMS_5,19,9999,9999,9999,447281208
95,4,4,T1_SMS_5,20,9999,9999,9999,447781944
95,4,4,T1_SMS_5,21,9999,9999,9999,448281716
95,4,4,T1_SMS_5,22,9999,9999,9999,448781416
95,4,4,T1_SMS_5,23,9999,9999,9999,449281108
95,4,4,T1_SMS_5,24,9999,9999,9999,449781848
95,4,4,T1_SMS_5,25,9999,9999,9999,450281548
95,4,4,T1_SMS_5,26,9999,9999,9999,450781240
95,4,4,T1_SMS_5,27,9999,9999,9999,451281976
95,4,4,T1_SMS_5,28,9999,9999,9999,451781744
95,4,4,T1_SMS_5,29,9999,9999,9999,452281444
95,4,4,T1_SMS_5,30,9999,9999,9999,452781140
95,4,4,T1_SMS_5,31,9999,9999,9999,453281876
95,4,4,T1_SMS_5,32,9999,9999,9999,453781580
95,4,4,T1_SMS_5,33,9999,9999,9999,454281272
95,4,4,T1_SMS_5,34,9999,9999,9999,454782016
95,4,4,T1_SMS_5,35,9999,9999,9999,455281784
95,4,4,T1_SMS_5,36,9999,9999,9999,455781480
95,4,4,T1_SMS_5,37,9999,9999,9999,456281176
95,4,4,T1_SMS_5,38,9999,9999,9999,456781892
95,4,4,T1_SMS_5,39,9999,9999,9999,457281588
95,4,4,T1_SMS_5,40,9999,9999,9999,457781352
95,4,4,T1_SMS_5,41,9999,9999,9999,458282088
95,4,4,T1_SMS_5,42,9999,9999,9999,458781784
95,4,4,T1_SMS_5,43,9999,9999,9999,459281480
95,4,4,T1_SMS_5,44,9999,9999,9999,459781176
95,4,4,T1_SMS_5,45,9999,9999,9999,460281920
95,4,4,T1_SMS_5,46,9999,9999,9999,460781688
95,4,4,T1_SMS_5,47,9999,9999,9999,461281384
95,4,4,T1_SMS_5,48,9999,9999,9999,461782124
95,4,4,T1_SMS_5,49,9999,9999,9999,462281828
95,4,4,T1_SMS_5,50,9999,9999,9999,462781520
95,4,4,T1_SMS_5,51,9999,9999,9999,463281216
95,4,4,T1_SMS_5,52,9999,9999,9999,463781952
95,4,4,T1_SMS_5,53,9999,9999,9999,464281720
95,4,4,T1_SMS_5,54,9999,9999,9999,464781420
95,4,4,T1_SMS_5,55,9999,9999,9999,465281116
95,4,4,T1_SMS_5,56,9999,9999,9999,465781852
95,4,4,T1_SMS_5,57,9999,9999,9999,466281524
95,4,4,T1_SMS_5,58,9999,9999,9999,466781288
95,4,4,T1_SMS_5,59,9999,9999,9999,467282032
95,4,4,T1_SMS_5,60,9999,9999,9999,467781700
95,4,4,T1_SMS_5,61,9999,9999,9999,468281400
95,4,4,T1_SMS_5,62,9999,9999,9999,468781104
95,4,4,T1_SMS_5,63,9999,9999,9999,469281908
95,4,4,T1_SMS_5,64,9999,9999,9999,469781604
95,4,4,T1_SMS_5,65,9999,9999,9999,470281300
95,4,4,T1_SMS_5,66,9999,9999,9999,470782040
95,4,4,T1_SMS_5,67,9999,9999,9999,471281736
95,4,4,T1_SMS_5,68,9999,9999,9999,471781432
95,4,4,T1_SMS_5,69,9999,9999,9999,472281204
95,4,4,T1_SMS_5,70,9999,9999,9999,472781944
95,4,4,T1_SMS_5,71,9999,9999,9999,473281640
95,4,4,T1_SMS_5,72,9999,9999,9999,473781336
95,4,4,T1_SMS_5,73,9999,9999,9999,474282076
95,4,4,T1_SMS_5,74,9999,9999,9999,474781776
95,4,4,T1_SMS_5,75,9999,9999,9999,475281468
95,4,4,T1_SMS_5,76,9999,9999,9999,475781168
95,4,4,T1_SMS_5,77,9999,9999,9999,476281904
95,4,4,T1_SMS_5,78,9999,9999,9999,476781672
95,4,4,T1_SMS_5,79,9999,9999,9999,477281376
95,4,4,T1_SMS_5,80,9999,9999,9999,477782116
95,4,4,T1_SMS_5,81,9999,9999,9999,478281780
95,4,4,T1_SMS_5,82,9999,9999,9999,478781556
95,4,4,T1_SMS_5,83,9999,9999,9999,479281252
95,4,4,T1_SMS_5,84,9999,9999,9999,479781992
95,4,4,T1_SMS_5,85,9999,9999,9999,480281688
95,4,4,T1_SMS_5,86,9999,9999,9999,480781384
95,4,4,T1_SMS_5,87,9999,9999,9999,481281080
95,4,4,T1_SMS_5,88,9999,9999,9999,481781812
95,4,4,T1_SMS_5,89,9999,9999,9999,482281584
95,4,4,T1_SMS_5,90,9999,9999,9999,482781276
95,4,4,T1_SMS_5,91,9999,9999,9999,483282020
95,4,4,T1_SMS_5,92,9999,9999,9999,483781716
95,4,4,T1_SMS_5,93,9999,9999,9999,484281416
95,4,4,T1_SMS_5,94,9999,9999,9999,484781104
95,4,4,T1_SMS_5,95,9999,9999,9999,485281848
95,4,4,T1_SMS_5,96,9999,9999,9999,485781620
95,4,4,T1_SMS_5,97,9999,9999,9999,486281316
95,4,4,T1_SMS_5,98,9999,9999,9999,486782056
95,4,4,T1_SMS_5,99,9999,9999,9999,487281784
95,4,4,T1_SMS_5,100,9999,9999,9999,487781444
95,4,4,T1_SMS_5,101,9999,9999,9999,488281160
95,4,4,T1_SMS_5,102,9999,9999,9999,488781932
95,4,4,T1_SMS_5,103,9999,9999,9999,489281632
95,4,4,T1_SMS_5,104,9999,9999,9999,489781320
95,4,4,T1_SMS_5,105,9999,9999,9999,490282068
95,4,4,T1_SMS_5,106,9999,9999,9999,490781756
95,4,4,T1_SMS_5,107,9999,9999,9999,491281528
95,4,4,T1_SMS_5,108,9999,9999,9999,491781228
95,4,4,T1_SMS_5,109,9999,9999,9999,492281912
95,4,4,T1_SMS_5,110,9999,9999,9999,492781684
95,4,4,T1_SMS_5,111,9999,9999,9999,493281376
95,4,4,T1_SMS_5,112,9999,9999,9999,493782144
95,4,4,T1_SMS_5,113,9999,9999,9999,494281816
95,4,4,T1_SMS_5,114,9999,9999,9999,494781508
95,4,4,T1_SMS_5,115,9999,9999,9999,495281204
95,4,4,T1_SMS_5,116,9999,9999,9999,495781948
95,4,4,T1_SMS_5,117,9999,9999,9999,496281716
95,4,4,T1_SMS_5,118,9999,9999,9999,496781412
95,4,4,T1_SMS_5,119,9999,9999,9999,497281108
95,4,4,T1_SMS_5,120,9999,9999,9999,497781872
95,4,4,T1_SMS_5,121,9999,9999,9999,498281544
95,4,4,T1_SMS_5,122,9999,9999,9999,498781240
95,4,4,T1_SMS_5,123,9999,9999,9999,499281980
95,4,4,T1_SMS_5,124,9999,9999,9999,499781724
95,4,4,T1_SMS_5,125,9999,9999,9999,500281420
95,4,4,T1_SMS_5,126,9999,9999,9999,500781116
95,4,4,T1_SMS_5,127,9999,9999,9999,501281856
95,4,4,T1_SMS_5,128,9999,9999,9999,501781552
95,4,4,T1_SMS_5,129,9999,9999,9999,502281324
95,5,22,Ticks_Phase_8,0,5,42,127,514426324
95,5,22,Ticks_Phase_8,1,5,42,127,515225912
95,5,22,Ticks_Phase_8,2,1,48,17,515411776
95,5,22,Ticks_Phase_8,3,5,42,127,516025772
95,5,22,Ticks_Phase_8,4,1,48,13,516106100
95,5,22,Ticks_Phase_8,5,1,48,17,516814664
95,5,22,Ticks_Phase_8,6,5,42,127,516825328
95,5,22,Ticks_Phase_8,7,1,48,18,517580000
95,5,22,Ticks_Phase_8,8,5,42,127,517626308
95,5,22,Ticks_Phase_8,9,1,48,15,518385556
95,5,22,Ticks_Phase_8,10,5,42,127,518426096
95,5,22,Ticks_Phase_8,11,5,42,127,519225664
95,5,22,Ticks_Phase_8,12,1,48,17,519237248
95,5,22,Ticks_Phase_8,13,5,42,127,520025404
95,5,22,Ticks_Phase_8,14,1,48,15,520028072
95,5,22,Ticks_Phase_8,15,1,48,13,520824344
95,5,22,Ticks_Phase_8,16,5,42,127,520826232
95,5,22,Ticks_Phase_8,17,1,48,20,521619848
95,5,22,Ticks_Phase_8,18,5,42,127,521626092
95,5,22,Ticks_Phase_8,19,5,42,127,522425588
95,5,22,Ticks_Phase_8,20,5,42,127,523225320
95,5,22,Ticks_Phase_8,21,1,48,20,523246864
95,5,22,Ticks_Phase_8,22,1,48,19,524003804
95,5,22,Ticks_Phase_8,23,5,42,127,524026444
95,5,22,Ticks_Phase_8,24,1,48,23,524792792
95,5,22,Ticks_Phase_8,25,5,42,127,524826080
95,5,22,Ticks_Phase_8,26,1,48,20,525592660
95,5,22,Ticks_Phase_8,27,5,42,127,525625716
95,5,22,Ticks_Phase_8,28,1,48,22,526387056
95,5,22,Ticks_Phase_8,29,5,42,127,526425452
95,5,22,Ticks_Phase_8,30,1,48,25,527163856
95,5,22,Ticks_Phase_8,31,5,42,127,527226360
95,5,22,Ticks_Phase_8,32,1,48,20,528001848
95,5,22,Ticks_Phase_8,33,5,42,127,528026368
95,5,22,Ticks_Phase_8,34,1,48,24,528776632
95,5,22,Ticks_Phase_8,35,5,42,127,528825856
95,5,22,Ticks_Phase_8,36,1,48,26,529579188
95,5,22,Ticks_Phase_8,37,5,42,127,529625496
95,5,22,Ticks_Phase_8,38,1,48,19,530394328
95,5,22,Ticks_Phase_8,39,5,42,127,530426180
95,5,22,Ticks_Phase_8,40,1,48,19,531208264
95,5,22,Ticks_Phase_8,41,5,42,127,531226408
95,5,22,Ticks_Phase_8,42,1,48,25,531954884
95,5,22,Ticks_Phase_8,43,5,42,127,532025824
95,5,22,Ticks_Phase_8,44,5,42,127,532825496
95,5,22,Ticks_Phase_8,45,1,48,14,532830180
95,5,22,Ticks_Phase_8,46,5,42,127,533626176
95,5,22,Ticks_Phase_8,47,1,48,18,533650188
95,5,22,Ticks_Phase_8,48,5,42,127,534426260
95,5,22,Ticks_Phase_8,49,1,48,19,534469000
95,5,22,Ticks_Phase_8,50,5,42,127,535225896
95,5,22,Ticks_Phase_8,51,1,48,16,535239052
95,5,22,Ticks_Phase_8,52,5,42,127,536025388
95,5,22,Ticks_Phase_8,53,1,48,22,536048576
95,5,22,Ticks_Phase_8,54,1,48,18,536811952
95,5,22,Ticks_Phase_8,55,5,42,127,536826140
95,5,22,Ticks_Phase_8,56,1,48,21,537625404
95,5,22,Ticks_Phase_8,57,5,42,127,537627048
95,5,22,Ticks_Phase_8,58,1,48,20,538387720
95,5,22,Ticks_Phase_8,59,5,42,127,538406168
95,5,22,Ticks_Phase_8,60,5,42,127,539206036
95,5,22,Ticks_Phase_8,61,1,48,23,539234120
95,5,22,Ticks_Phase_8,62,1,48,18,539973128
95,5,22,Ticks_Phase_8,63,5,42,127,540005912
95,5,22,Ticks_Phase_8,64,5,42,127,540805408
95,5,22,Ticks_Phase_8,65,1,48,14,540818716
95,5,22,Ticks_Phase_8,66,1,48,20,541569064
95,5,22,Ticks_Phase_8,67,5,42,127,541606236
95,5,22,Ticks_Phase_8,68,1,48,21,542351096
95,5,22,Ticks_Phase_8,69,5,42,127,542406168
95,5,22,Ticks_Phase_8,70,5,42,127,543205736
95,5,22,Ticks_Phase_8,71,5,42,127,544005396
95,5,22,Ticks_Phase_8,72,1,48,20,544010536
95,5,22,Ticks_Phase_8,73,1,48,20,544788896
95,5,22,Ticks_Phase_8,74,5,42,127,544806224
95,5,22,Ticks_Phase_8,75,1,48,26,545555808
95,5,22,Ticks_Phase_8,76,5,42,127,545606084
95,5,22,Ticks_Phase_8,77,1,48,24,546344436
95,5,22,Ticks_Phase_8,78,5,42,127,546405820
95,5,22,Ticks_Phase_8,79,1,48,19,547203340
95,5,22,Ticks_Phase_8,80,5,42,127,547205456
95,5,22,Ticks_Phase_8,81,1,48,27,548004248
95,5,22,Ticks_Phase_8,82,5,42,127,548006212
95,5,22,Ticks_Phase_8,83,1,48,25,548790396
95,5,22,Ticks_Phase_8,84,5,42,127,548806076
95,5,22,Ticks_Phase_8,85,1,48,29,549566072
95,5,22,Ticks_Phase_8,86,5,42,127,549605864
95,5,22,Ticks_Phase_8,87,1,48,20,550380756
95,5,22,Ticks_Phase_8,88,5,42,127,550405428
95,5,22,Ticks_Phase_8,89,5,42,127,551206340
95,5,22,Ticks_Phase_8,90,1,48,14,551241136
95,5,22,Ticks_Phase_8,91,5,42,127,552006128
95,5,22,Ticks_Phase_8,92,1,48,26,552018780
95,5,22,Ticks_Phase_8,93,1,48,21,552776828
95,5,22,Ticks_Phase_8,94,5,42,127,552826152
95,5,22,Ticks_Phase_8,95,1,48,23,553599324
95,5,22,Ticks_Phase_8,96,5,42,127,553626160
95,5,22,Ticks_Phase_8,97,1,48,20,554405328
95,5,22,Ticks_Phase_8,98,5,42,127,554425796
95,5,22,Ticks_Phase_8,99,1,48,22,555168868
95,5,22,Ticks_Phase_8,100,5,42,127,555225656
95,5,22,Ticks_Phase_8,101,1,48,20,556004452
95,5,22,Ticks_Phase_8,102,5,42,127,556026192
95,5,22,Ticks_Phase_8,103,1,48,19,556816744
95,5,22,Ticks_Phase_8,104,5,42,127,556826128
95,5,22,Ticks_Phase_8,105,1,48,18,557609188
95,5,22,Ticks_Phase_8,106,5,42,127,557625912
95,5,22,Ticks_Phase_8,107,1,48,20,558378196
95,5,22,Ticks_Phase_8,108,5,42,127,558425428
95,5,22,Ticks_Phase_8,109,1,48,21,559188564
95,5,22,Ticks_Phase_8,110,5,42,127,559226184
95,5,22,Ticks_Phase_8,111,1,48,22,559997932
95,5,22,Ticks_Phase_8,112,5,42,127,560026120
95,5,22,Ticks_Phase_8,113,1,48,16,560801988
95,5,22,Ticks_Phase_8,114,5,42,127,560825908
95,5,22,Ticks_Phase_8,115,1,48,19,561605224
95,5,22,Ticks_Phase_8,116,5,42,127,561625468
95,5,22,Ticks_Phase_8,117,1,48,25,562416844
95,5,22,Ticks_Phase_8,118,5,42,127,562426228
95,5,22,Ticks_Phase_8,119,1,48,21,563185472
95,5,22,Ticks_Phase_8,120,5,42,127,563226016
95,5,22,Ticks_Phase_8,121,1,48,26,563966836
95,5,22,Ticks_Phase_8,122,5,42,127,564025876
95,5,22,Ticks_Phase_8,123,1,48,16,564816080
95,5,22,Ticks_Phase_8,124,5,42,127,564825468
95,5,22,Ticks_Phase_8,125,1,48,24,565630612
95,5,22,Ticks_Phase_8,126,5,42,127,565666140
95,5,22,Ticks_Phase_8,127,1,48,20,566444708
95,5,22,Ticks_Phase_8,128,5,42,127,566466004
95,5,22,Ticks_Phase_8,129,1,48,21,567241268
95,5,22,Ticks_Phase_8,130,5,42,127,567265788
95,5,22,Ticks_Phase_8,131,1,48,24,568041352
95,5,22,Ticks_Phase_8,132,5,42,127,568066548
95,5,22,Ticks_Phase_8,133,1,48,31,568849680
95,5,22,Ticks_Phase_8,134,5,42,127,568876372
95,5,22,Ticks_Phase_8,135,1,48,21,569632164
95,5,22,Ticks_Phase_8,136,5,42,127,569676004
95,5,22,Ticks_Phase_8,137,1,48,21,570470692
95,5,22,Ticks_Phase_8,138,5,42,127,570475964
95,5,22,Ticks_Phase_8,139,1,48,23,571230264
95,5,22,Ticks_Phase_8,140,5,42,127,571275824
95,5,22,Ticks_Phase_8,141,1,48,19,572028924
95,5,22,Ticks_Phase_8,142,5,42,127,572076364
95,5,22,Ticks_Phase_8,143,1,48,17,572818756
95,5,22,Ticks_Phase_8,144,5,42,127,572876148
95,5,22,Ticks_Phase_8,145,1,48,24,573562972
95,5,22,Ticks_Phase_8,146,5,42,127,573675844
95,5,22,Ticks_Phase_8,147,1,48,17,574416380
95,5,22,Ticks_Phase_8,148,5,42,127,574475868
95,5,22,Ticks_Phase_8,149,1,48,24,575263560
95,5,22,Ticks_Phase_8,150,5,42,127,575276480
95,5,22,Ticks_Phase_8,151,1,48,24,576045008
95,5,22,Ticks_Phase_8,152,5,42,127,576076040
95,5,22,Ticks_Phase_8,153,1,48,17,576811960
95,5,22,Ticks_Phase_8,154,5,42,127,576875828
95,5,22,Ticks_Phase_8,155,1,48,20,577649896
95,5,22,Ticks_Phase_8,156,5,42,127,577675836
95,5,22,Ticks_Phase_8,157,5,42,127,578476532
95,5,22,Ticks_Phase_8,158,1,48,25,578502112
95,5,22,Ticks_Phase_8,159,5,42,127,579236176
95,5,22,Ticks_Phase_8,160,1,48,16,579270072
95,5,22,Ticks_Phase_8,161,1,48,18,580022964
95,5,22,Ticks_Phase_8,162,5,42,127,580035880
95,5,22,Ticks_Phase_8,163,1,48,24,580823056
95,5,22,Ticks_Phase_8,164,5,42,127,580835668
95,5,22,Ticks_Phase_8,165,1,48,23,581606748
95,5,22,Ticks_Phase_8,166,5,42,127,581635380
95,5,22,Ticks_Phase_8,167,5,42,127,582436144
95,5,22,Ticks_Phase_8,168,1,48,19,582437188
95,5,22,Ticks_Phase_8,169,1,48,24,583224216
95,5,22,Ticks_Phase_8,170,5,42,127,583236000
95,5,22,Ticks_Phase_8,171,1,48,20,584016316
95,5,22,Ticks_Phase_8,172,5,42,127,584035664
95,5,22,Ticks_Phase_8,173,1,48,31,584762824
95,5,22,Ticks_Phase_8,174,5,42,127,584835376
95,5,22,Ticks_Phase_8,175,1,48,19,585580532
95,5,22,Ticks_Phase_8,176,5,42,127,585636280
95,5,22,Ticks_Phase_8,177,1,48,17,586411552
95,5,22,Ticks_Phase_8,178,5,42,127,586435848
95,5,22,Ticks_Phase_8,179,1,48,19,587209616
95,5,22,Ticks_Phase_8,180,5,42,127,587235784
95,5,22,Ticks_Phase_8,181,1,48,13,588028796
95,5,22,Ticks_Phase_8,182,5,42,127,588035568
95,5,22,Ticks_Phase_8,183,1,48,13,588800132
95,5,22,Ticks_Phase_8,184,5,42,127,588836328
95,5,22,Ticks_Phase_8,185,1,48,19,589590028
95,5,22,Ticks_Phase_8,186,5,42,127,589636040
95,5,22,Ticks_Phase_8,187,1,48,28,590374468
95,5,22,Ticks_Phase_8,188,5,42,127,590435848
95,5,22,Ticks_Phase_8,189,1,48,21,591180784
95,5,22,Ticks_Phase_8,190,5,42,127,591235560
95,5,22,Ticks_Phase_8,191,5,42,127,591956200
95,5,22,Ticks_Phase_8,192,1,48,20,592014368
95,5,22,Ticks_Phase_8,193,5,42,127,592756060
95,5,22,Ticks_Phase_8,194,1,48,21,592789208
95,5,22,Ticks_Phase_8,195,1,48,14,593534620
95,5,22,Ticks_Phase_8,196,5,42,127,593555764
95,5,22,Ticks_Phase_8,197,1,48,17,594336804
95,5,22,Ticks_Phase_8,198,5,42,127,594355628
95,5,22,Ticks_Phase_8,199,1,48,23,595097272
95,5,22,Ticks_Phase_8,200,5,42,127,595156312
95,5,22,Ticks_Phase_8,201,1,48,21,595883508
95,5,22,Ticks_Phase_8,202,5,42,127,595956024
95,5,22,Ticks_Phase_8,203,1,48,20,596727924
95,5,22,Ticks_Phase_8,204,5,42,127,596755884
95,5,22,Ticks_Phase_8,205,1,48,16,597503064
95,5,22,Ticks_Phase_8,206,5,42,127,597555520
95,5,22,Ticks_Phase_8,207,1,48,19,598342768
95,5,22,Ticks_Phase_8,208,5,42,127,598356600
95,5,22,Ticks_Phase_8,209,1,48,19,599084372
95,5,22,Ticks_Phase_8,210,5,42,127,599155940
95,5,22,Ticks_Phase_8,211,1,48,25,599869248
95,5,22,Ticks_Phase_8,212,5,42,127,599955728
95,5,22,Ticks_Phase_8,213,1,48,13,600716400
95,5,22,Ticks_Phase_8,214,5,42,127,600755736
95,5,22,Ticks_Phase_8,215,1,48,19,601534904
95,5,22,Ticks_Phase_8,216,5,42,127,601556492
95,5,22,Ticks_Phase_8,217,5,42,127,602356064
95,5,22,Ticks_Phase_8,218,1,48,18,602985996
95,5,22,Ticks_Phase_8,219,5,42,127,603155924
95,5,22,Ticks_Phase_8,220,1,48,20,603908596
95,5,22,Ticks_Phase_8,221,5,42,127,603955728
95,5,22,Ticks_Phase_8,222,1,48,22,604703808
95,5,22,Ticks_Phase_8,223,5,42,127,604756436
95,5,22,Ticks_Phase_8,224,5,42,127,605635912
95,5,22,Ticks_Phase_8,225,1,48,25,606388880
95,5,22,Ticks_Phase_8,226,5,42,127,606435716
95,5,22,Ticks_Phase_8,227,1,48,19,607172036
95,5,22,Ticks_Phase_8,228,5,42,127,607235576
95,5,22,Ticks_Phase_8,229,1,48,19,608029792
95,5,22,Ticks_Phase_8,230,5,42,127,608036112
95,5,22,Ticks_Phase_8,231,1,48,22,608787344
95,5,22,Ticks_Phase_8,232,5,42,127,608835900
95,5,22,Ticks_Phase_8,233,1,48,21,609630136
95,5,22,Ticks_Phase_8,234,5,42,127,609635636
95,5,22,Ticks_Phase_8,235,1,48,22,610425436
95,5,22,Ticks_Phase_8,236,5,42,127,610435496
95,5,22,Ticks_Phase_8,237,5,42,127,611236408
95,5,22,Ticks_Phase_8,238,1,48,19,611251732
95,5,22,Ticks_Phase_8,239,1,48,21,612009872
95,5,22,Ticks_Phase_8,240,5,42,127,612035892
95,5,22,Ticks_Phase_8,241,1,48,22,612798280
95,5,22,Ticks_Phase_8,242,5,42,127,612835828
95,5,22,Ticks_Phase_8,243,1,48,18,613617240
95,5,22,Ticks_Phase_8,244,5,42,127,613635540
95,5,22,Ticks_Phase_8,245,1,48,14,614398304
95,5,22,Ticks_Phase_8,246,5,42,127,614436148
95,5,22,Ticks_Phase_8,247,5,42,127,615236016
95,5,22,Ticks_Phase_8,248,5,42,127,616035628
95,5,22,Ticks_Phase_8,249,1,48,25,616042108
95,5,22,Ticks_Phase_8,250,1,48,28,616797336
95,5,22,Ticks_Phase_8,251,5,42,127,616835332
95,5,22,Ticks_Phase_8,252,1,48,20,617618384
95,5,22,Ticks_Phase_8,253,5,42,127,617636388
95,5,22,Ticks_Phase_8,254,1,48,26,618394288
95,5,22,Ticks_Phase_8,255,5,42,127,618436028
95,5,22,Ticks_Phase_8,256,1,48,24,619183300
95,5,22,Ticks_Phase_8,257,5,42,127,619395336
95,5,22,Ticks_Phase_8,258,1,48,19,620082224
95,5,22,Ticks_Phase_8,259,5,42,127,620196468
95,5,22,Ticks_Phase_8,260,1,48,19,620935364
95,5,22,Ticks_Phase_8,261,5,42,127,620995824
95,5,22,Ticks_Phase_8,262,1,48,23,621754768
95,5,22,Ticks_Phase_8,263,5,42,127,621795756
95,5,22,Ticks_Phase_8,264,1,48,19,622550952
95,5,22,Ticks_Phase_8,265,5,42,127,622595320
95,5,22,Ticks_Phase_8,266,1,48,17,623362868
95,5,22,Ticks_Phase_8,267,5,42,127,623396452
95,5,22,Ticks_Phase_8,268,1,48,24,624138324
95,5,22,Ticks_Phase_8,269,5,42,127,624195940
95,5,22,Ticks_Phase_8,270,1,48,19,624967768
95,5,22,Ticks_Phase_8,271,5,42,127,624995600
95,5,22,Ticks_Phase_8,272,5,42,127,625795544
95,5,22,Ticks_Phase_8,273,1,48,19,625801204
95,5,22,Ticks_Phase_8,274,1,48,20,626564668
95,5,22,Ticks_Phase_8,275,5,42,127,626596292
95,5,22,Ticks_Phase_8,276,1,48,18,627390356
95,5,22,Ticks_Phase_8,277,5,42,127,627396080
95,5,22,Ticks_Phase_8,278,5,42,127,628195648
95,5,22,Ticks_Phase_8,279,1,48,19,628245652
95,5,22,Ticks_Phase_8,280,5,42,127,628995436
95,5,22,Ticks_Phase_8,281,1,48,25,629579908
95,5,22,Ticks_Phase_8,282,5,42,127,629796196
95,5,22,Ticks_Phase_8,283,1,48,22,630571328
95,5,22,Ticks_Phase_8,284,5,42,127,630596072
95,5,22,Ticks_Phase_8,285,1,48,18,631373312
95,5,22,Ticks_Phase_8,286,5,42,127,631395736
95,5,22,Ticks_Phase_8,287,1,48,21,632183428
95,5,22,Ticks_Phase_8,288,5,42,127,632195524
95,5,22,Ticks_Phase_8,289,1,48,21,632926008
95,5,22,Ticks_Phase_8,290,5,42,127,632996284
95,5,22,Ticks_Phase_8,291,1,48,17,633739500
95,5,22,Ticks_Phase_8,292,5,42,127,633796144
95,5,22,Ticks_Phase_8,293,5,42,127,634436028
95,5,22,Ticks_Phase_8,294,1,48,18,634532476
95,5,22,Ticks_Phase_8,295,5,42,127,635235840
95,5,22,Ticks_Phase_8,296,1,48,18,635244356
95,5,22,Ticks_Phase_8,297,1,48,14,636026828
95,5,22,Ticks_Phase_8,298,5,42,127,636035320
95,5,22,Ticks_Phase_8,299,1,48,15,636823704
95,5,22,Ticks_Phase_8,300,5,42,127,636836380
95,5,22,Ticks_Phase_8,301,1,48,19,637613748
95,5,22,Ticks_Phase_8,302,5,42,127,637635940
95,5,22,Ticks_Phase_8,303,1,48,22,638427540
95,5,22,Ticks_Phase_8,304,5,42,127,638435656
95,5,22,Ticks_Phase_8,305,1,48,21,639209124
95,5,22,Ticks_Phase_8,306,5,42,127,639235440
95,5,22,Ticks_Phase_8,307,1,48,18,640014156
95,5,22,Ticks_Phase_8,308,5,42,127,640036420
95,5,22,Ticks_Phase_8,309,1,48,19,640766240
95,5,22,Ticks_Phase_8,310,5,42,127,640836060
95,5,22,Ticks_Phase_8,311,5,42,127,641635656
95,5,22,Ticks_Phase_8,312,5,42,127,642435316
95,5,22,Ticks_Phase_8,313,1,48,24,642444128
95,5,22,Ticks_Phase_8,314,5,42,127,643236444
95,5,22,Ticks_Phase_8,315,1,48,25,643243172
95,5,22,Ticks_Phase_8,316,5,42,127,644036156
95,5,22,Ticks_Phase_8,317,1,48,23,644040696
95,5,22,Ticks_Phase_8,318,1,48,27,644824756
95,5,22,Ticks_Phase_8,319,5,42,127,644835640
95,5,22,Ticks_Phase_8,320,5,42,127,645635360
95,5,22,Ticks_Phase_8,321,1,48,23,645670824
95,5,22,Ticks_Phase_8,322,5,42,127,646436340
95,5,22,Ticks_Phase_8,323,1,48,28,646441552
95,5,22,Ticks_Phase_8,324,5,42,127,647236124
95,5,22,Ticks_Phase_8,325,1,48,23,647249752
95,5,22,Ticks_Phase_8,326,5,42,127,648035640
95,5,22,Ticks_Phase_8,327,1,48,24,648049240
95,5,22,Ticks_Phase_8,328,5,42,127,648835352
95,5,22,Ticks_Phase_8,329,1,48,21,648847084
95,5,22,Ticks_Phase_8,330,5,42,127,649636108
95,5,22,Ticks_Phase_8,0,9999,9999,9999,514423888
95,5,22,Ticks_Phase_8,1,9999,9999,9999,515223620
95,5,22,Ticks_Phase_8,2,9999,9999,9999,516023412
95,5,22,Ticks_Phase_8,3,9999,9999,9999,516823116
95,5,22,Ticks_Phase_8,4,9999,9999,9999,517623872
95,5,22,Ticks_Phase_8,5,9999,9999,9999,518423660
95,5,22,Ticks_Phase_8,6,9999,9999,9999,519223376
95,5,22,Ticks_Phase_8,7,9999,9999,9999,520023116
95,5,22,Ticks_Phase_8,8,9999,9999,9999,520823896
95,5,22,Ticks_Phase_8,9,9999,9999,9999,521623656
95,5,22,Ticks_Phase_8,10,9999,9999,9999,522423376
95,5,22,Ticks_Phase_8,11,9999,9999,9999,523223108
95,5,22,Ticks_Phase_8,12,9999,9999,9999,524023932
95,5,22,Ticks_Phase_8,13,9999,9999,9999,524823644
95,5,22,Ticks_Phase_8,14,9999,9999,9999,525623356
95,5,22,Ticks_Phase_8,15,9999,9999,9999,526423168
95,5,22,Ticks_Phase_8,16,9999,9999,9999,527223924
95,5,22,Ticks_Phase_8,17,9999,9999,9999,528023636
95,5,22,Ticks_Phase_8,18,9999,9999,9999,528823420
95,5,22,Ticks_Phase_8,19,9999,9999,9999,529623132
95,5,22,Ticks_Phase_8,20,9999,9999,9999,530423892
95,5,22,Ticks_Phase_8,21,9999,9999,9999,531223676
95,5,22,Ticks_Phase_8,22,9999,9999,9999,532023388
95,5,22,Ticks_Phase_8,23,9999,9999,9999,532823132
95,5,22,Ticks_Phase_8,24,9999,9999,9999,533623892
95,5,22,Ticks_Phase_8,25,9999,9999,9999,534423676
95,5,22,Ticks_Phase_8,26,9999,9999,9999,535223388
95,5,22,Ticks_Phase_8,27,9999,9999,9999,536023100
95,5,22,Ticks_Phase_8,28,9999,9999,9999,536823928
95,5,22,Ticks_Phase_8,29,9999,9999,9999,537623644
95,5,22,Ticks_Phase_8,30,9999,9999,9999,538403956
95,5,22,Ticks_Phase_8,31,9999,9999,9999,539203672
95,5,22,Ticks_Phase_8,32,9999,9999,9999,540003404
95,5,22,Ticks_Phase_8,33,9999,9999,9999,540803196
95,5,22,Ticks_Phase_8,34,9999,9999,9999,541603948
95,5,22,Ticks_Phase_8,35,9999,9999,9999,542403660
95,5,22,Ticks_Phase_8,36,9999,9999,9999,543203452
95,5,22,Ticks_Phase_8,37,9999,9999,9999,544003184
95,5,22,Ticks_Phase_8,38,9999,9999,9999,544803936
95,5,22,Ticks_Phase_8,39,9999,9999,9999,545603648
95,5,22,Ticks_Phase_8,40,9999,9999,9999,546403384
95,5,22,Ticks_Phase_8,41,9999,9999,9999,547203132
95,5,22,Ticks_Phase_8,42,9999,9999,9999,548003964
95,5,22,Ticks_Phase_8,43,9999,9999,9999,548803640
95,5,22,Ticks_Phase_8,44,9999,9999,9999,549603428
95,5,22,Ticks_Phase_8,45,9999,9999,9999,550403140
95,5,22,Ticks_Phase_8,46,9999,9999,9999,551203904
95,5,22,Ticks_Phase_8,47,9999,9999,9999,552003692
95,5,22,Ticks_Phase_8,48,9999,9999,9999,552823864
95,5,22,Ticks_Phase_8,49,9999,9999,9999,553623652
95,5,22,Ticks_Phase_8,50,9999,9999,9999,554423364
95,5,22,Ticks_Phase_8,51,9999,9999,9999,555223148
95,5,22,Ticks_Phase_8,52,9999,9999,9999,556023904
95,5,22,Ticks_Phase_8,53,9999,9999,9999,556823620
95,5,22,Ticks_Phase_8,54,9999,9999,9999,557623404
95,5,22,Ticks_Phase_8,55,9999,9999,9999,558423140
95,5,22,Ticks_Phase_8,56,9999,9999,9999,559223896
95,5,22,Ticks_Phase_8,57,9999,9999,9999,560023612
95,5,22,Ticks_Phase_8,58,9999,9999,9999,560823396
95,5,22,Ticks_Phase_8,59,9999,9999,9999,561623108
95,5,22,Ticks_Phase_8,60,9999,9999,9999,562423868
95,5,22,Ticks_Phase_8,61,9999,9999,9999,563223656
95,5,22,Ticks_Phase_8,62,9999,9999,9999,564023368
95,5,22,Ticks_Phase_8,63,9999,9999,9999,564823104
95,5,22,Ticks_Phase_8,64,9999,9999,9999,565663852
95,5,22,Ticks_Phase_8,65,9999,9999,9999,566463568
95,5,22,Ticks_Phase_8,66,9999,9999,9999,567263352
95,5,22,Ticks_Phase_8,67,9999,9999,9999,568064112
95,5,22,Ticks_Phase_8,68,9999,9999,9999,568874084
95,5,22,Ticks_Phase_8,69,9999,9999,9999,569673792
95,5,22,Ticks_Phase_8,70,9999,9999,9999,570473532
95,5,22,Ticks_Phase_8,71,9999,9999,9999,571273316
95,5,22,Ticks_Phase_8,72,9999,9999,9999,572074072
95,5,22,Ticks_Phase_8,73,9999,9999,9999,572873788
95,5,22,Ticks_Phase_8,74,9999,9999,9999,573673556
95,5,22,Ticks_Phase_8,75,9999,9999,9999,574473284
95,5,22,Ticks_Phase_8,76,9999,9999,9999,575274040
95,5,22,Ticks_Phase_8,77,9999,9999,9999,576073828
95,5,22,Ticks_Phase_8,78,9999,9999,9999,576873540
95,5,22,Ticks_Phase_8,79,9999,9999,9999,577673324
95,5,22,Ticks_Phase_8,80,9999,9999,9999,578474092
95,5,22,Ticks_Phase_8,81,9999,9999,9999,579233888
95,5,22,Ticks_Phase_8,82,9999,9999,9999,580033596
95,5,22,Ticks_Phase_8,83,9999,9999,9999,580833380
95,5,22,Ticks_Phase_8,84,9999,9999,9999,581633092
95,5,22,Ticks_Phase_8,85,9999,9999,9999,582433860
95,5,22,Ticks_Phase_8,86,9999,9999,9999,583233640
95,5,22,Ticks_Phase_8,87,9999,9999,9999,584033376
95,5,22,Ticks_Phase_8,88,9999,9999,9999,584833088
95,5,22,Ticks_Phase_8,89,9999,9999,9999,585633848
95,5,22,Ticks_Phase_8,90,9999,9999,9999,586433636
95,5,22,Ticks_Phase_8,91,9999,9999,9999,587233348
95,5,22,Ticks_Phase_8,92,9999,9999,9999,588033132
95,5,22,Ticks_Phase_8,93,9999,9999,9999,588833892
95,5,22,Ticks_Phase_8,94,9999,9999,9999,589633604
95,5,22,Ticks_Phase_8,95,9999,9999,9999,590433340
95,5,22,Ticks_Phase_8,96,9999,9999,9999,591233124
95,5,22,Ticks_Phase_8,97,9999,9999,9999,591953988
95,5,22,Ticks_Phase_8,98,9999,9999,9999,592753772
95,5,22,Ticks_Phase_8,99,9999,9999,9999,593553480
95,5,22,Ticks_Phase_8,100,9999,9999,9999,594353264
95,5,22,Ticks_Phase_8,101,9999,9999,9999,595154024
95,5,22,Ticks_Phase_8,102,9999,9999,9999,595953736
95,5,22,Ticks_Phase_8,103,9999,9999,9999,596753524
95,5,22,Ticks_Phase_8,104,9999,9999,9999,597553236
95,5,22,Ticks_Phase_8,105,9999,9999,9999,598354016
95,5,22,Ticks_Phase_8,106,9999,9999,9999,599153728
95,5,22,Ticks_Phase_8,107,9999,9999,9999,599953516
95,5,22,Ticks_Phase_8,108,9999,9999,9999,600753228
95,5,22,Ticks_Phase_8,109,9999,9999,9999,601553984
95,5,22,Ticks_Phase_8,110,9999,9999,9999,602353776
95,5,22,Ticks_Phase_8,111,9999,9999,9999,603153488
95,5,22,Ticks_Phase_8,112,9999,9999,9999,603953216
95,5,22,Ticks_Phase_8,113,9999,9999,9999,604754000
95,5,22,Ticks_Phase_8,114,9999,9999,9999,605633624
95,5,22,Ticks_Phase_8,115,9999,9999,9999,606433356
95,5,22,Ticks_Phase_8,116,9999,9999,9999,607233140
95,5,22,Ticks_Phase_8,117,9999,9999,9999,608033900
95,5,22,Ticks_Phase_8,118,9999,9999,9999,608833612
95,5,22,Ticks_Phase_8,119,9999,9999,9999,609633348
95,5,22,Ticks_Phase_8,120,9999,9999,9999,610433136
95,5,22,Ticks_Phase_8,121,9999,9999,9999,611233900
95,5,22,Ticks_Phase_8,122,9999,9999,9999,612033604
95,5,22,Ticks_Phase_8,123,9999,9999,9999,612833392
95,5,22,Ticks_Phase_8,124,9999,9999,9999,613633104
95,5,22,Ticks_Phase_8,125,9999,9999,9999,614433864
95,5,22,Ticks_Phase_8,126,9999,9999,9999,615233656
95,5,22,Ticks_Phase_8,127,9999,9999,9999,616033340
95,5,22,Ticks_Phase_8,128,9999,9999,9999,616833120
95,5,22,Ticks_Phase_8,129,9999,9999,9999,617633876
95,5,22,Ticks_Phase_8,130,9999,9999,9999,618433592
95,5,22,Ticks_Phase_8,131,9999,9999,9999,619393124
95,5,22,Ticks_Phase_8,132,9999,9999,9999,620193884
95,5,22,Ticks_Phase_8,133,9999,9999,9999,620993612
95,5,22,Ticks_Phase_8,134,9999,9999,9999,621793396
95,5,22,Ticks_Phase_8,135,9999,9999,9999,622593108
95,5,22,Ticks_Phase_8,136,9999,9999,9999,623393868
95,5,22,Ticks_Phase_8,137,9999,9999,9999,624193652
95,5,22,Ticks_Phase_8,138,9999,9999,9999,624993388
95,5,22,Ticks_Phase_8,139,9999,9999,9999,625793108
95,5,22,Ticks_Phase_8,140,9999,9999,9999,626593860
95,5,22,Ticks_Phase_8,141,9999,9999,9999,627393644
95,5,22,Ticks_Phase_8,142,9999,9999,9999,628193364
95,5,22,Ticks_Phase_8,143,9999,9999,9999,628993148
95,5,22,Ticks_Phase_8,144,9999,9999,9999,629793908
95,5,22,Ticks_Phase_8,145,9999,9999,9999,630593636
95,5,22,Ticks_Phase_8,146,9999,9999,9999,631393376
95,5,22,Ticks_Phase_8,147,9999,9999,9999,632193088
95,5,22,Ticks_Phase_8,148,9999,9999,9999,632993848
95,5,22,Ticks_Phase_8,149,9999,9999,9999,633793632
95,5,22,Ticks_Phase_8,150,9999,9999,9999,634433592
95,5,22,Ticks_Phase_8,151,9999,9999,9999,635233404
95,5,22,Ticks_Phase_8,152,9999,9999,9999,636033108
95,5,22,Ticks_Phase_8,153,9999,9999,9999,636833868
95,5,22,Ticks_Phase_8,154,9999,9999,9999,637633652
95,5,22,Ticks_Phase_8,155,9999,9999,9999,638433368
95,5,22,Ticks_Phase_8,156,9999,9999,9999,639233080
95,5,22,Ticks_Phase_8,157,9999,9999,9999,640033912
95,5,22,Ticks_Phase_8,158,9999,9999,9999,640833624
95,5,22,Ticks_Phase_8,159,9999,9999,9999,641633368
95,5,22,Ticks_Phase_8,160,9999,9999,9999,642433104
95,5,22,Ticks_Phase_8,161,9999,9999,9999,643233860
95,5,22,Ticks_Phase_8,162,9999,9999,9999,644033648
95,5,22,Ticks_Phase_8,163,9999,9999,9999,644833356
95,5,22,Ticks_Phase_8,164,9999,9999,9999,645633148
95,5,22,Ticks_Phase_8,165,9999,9999,9999,646433904
95,5,22,Ticks_Phase_8,166,9999,9999,9999,647233616
95,5,22,Ticks_Phase_8,167,9999,9999,9999,648033352
95,5,22,Ticks_Phase_8,168,9999,9999,9999,648833136
95,5,22,Ticks_Phase_8,169,9999,9999,9999,649633896
95,6,23,Ticks_Phase_5,0,5,42,127,659522864
95,6,23,Ticks_Phase_5,1,5,42,127,660022652
95,6,23,Ticks_Phase_5,2,5,42,127,660523408
95,6,23,Ticks_Phase_5,3,5,42,127,661023044
95,6,23,Ticks_Phase_5,4,1,48,21,661093360
95,6,23,Ticks_Phase_5,5,5,42,127,661522732
95,6,23,Ticks_Phase_5,6,1,48,24,661548908
95,6,23,Ticks_Phase_5,7,1,48,26,662015268
95,6,23,Ticks_Phase_5,8,5,42,127,662022636
95,6,23,Ticks_Phase_5,9,5,42,127,662523228
95,6,23,Ticks_Phase_5,10,1,48,24,662524192
95,6,23,Ticks_Phase_5,11,5,42,127,663023064
95,6,23,Ticks_Phase_5,12,1,48,25,663037492
95,6,23,Ticks_Phase_5,13,5,42,127,663522528
95,6,23,Ticks_Phase_5,14,1,48,20,663530208
95,6,23,Ticks_Phase_5,15,5,42,127,664023340
95,6,23,Ticks_Phase_5,16,1,48,24,664032384
95,6,23,Ticks_Phase_5,17,1,48,27,664519392
95,6,23,Ticks_Phase_5,18,5,42,127,664523248
95,6,23,Ticks_Phase_5,19,5,42,127,665022944
95,6,23,Ticks_Phase_5,20,1,48,27,665026208
95,6,23,Ticks_Phase_5,21,5,42,127,665522484
95,6,23,Ticks_Phase_5,22,1,48,25,665537204
95,6,23,Ticks_Phase_5,23,5,42,127,666023216
95,6,23,Ticks_Phase_5,24,1,48,20,666052400
95,6,23,Ticks_Phase_5,25,5,42,127,666522980
95,6,23,Ticks_Phase_5,26,1,48,24,666544596
95,6,23,Ticks_Phase_5,27,5,42,127,667022816
95,6,23,Ticks_Phase_5,28,1,48,20,667046156
95,6,23,Ticks_Phase_5,29,5,42,127,667522356
95,6,23,Ticks_Phase_5,30,1,48,22,667539024
95,6,23,Ticks_Phase_5,31,1,48,28,668013848
95,6,23,Ticks_Phase_5,32,5,42,127,668023084
95,6,23,Ticks_Phase_5,33,5,42,127,668523004
95,6,23,Ticks_Phase_5,34,1,48,26,668540948
95,6,23,Ticks_Phase_5,35,5,42,127,669022544
95,6,23,Ticks_Phase_5,36,1,48,19,669051724
95,6,23,Ticks_Phase_5,37,5,42,127,669523280
95,6,23,Ticks_Phase_5,38,1,48,24,669542876
95,6,23,Ticks_Phase_5,39,5,42,127,670023016
95,6,23,Ticks_Phase_5,40,1,48,19,670072740
95,6,23,Ticks_Phase_5,41,5,42,127,670523000
95,6,23,Ticks_Phase_5,42,1,48,29,670537904
95,6,23,Ticks_Phase_5,43,5,42,127,671022540
95,6,23,Ticks_Phase_5,44,1,48,27,671055488
95,6,23,Ticks_Phase_5,45,5,42,127,671523200
95,6,23,Ticks_Phase_5,46,1,48,28,671570004
95,6,23,Ticks_Phase_5,47,5,42,127,672023188
95,6,23,Ticks_Phase_5,48,1,48,19,672091196
95,6,23,Ticks_Phase_5,49,5,42,127,672522504
95,6,23,Ticks_Phase_5,50,1,48,20,672582388
95,6,23,Ticks_Phase_5,51,5,42,127,673023236
95,6,23,Ticks_Phase_5,52,1,48,22,673057656
95,6,23,Ticks_Phase_5,53,5,42,127,673523148
95,6,23,Ticks_Phase_5,54,1,48,22,673525668
95,6,23,Ticks_Phase_5,55,5,42,127,674023208
95,6,23,Ticks_Phase_5,56,1,48,33,674034420
95,6,23,Ticks_Phase_5,57,5,42,127,674513388
95,6,23,Ticks_Phase_5,58,1,48,32,674547660
95,6,23,Ticks_Phase_5,59,5,42,127,675013080
95,6,23,Ticks_Phase_5,60,1,48,34,675044584
95,6,23,Ticks_Phase_5,61,5,42,127,675512544
95,6,23,Ticks_Phase_5,62,1,48,27,675525696
95,6,23,Ticks_Phase_5,63,5,42,127,676013352
95,6,23,Ticks_Phase_5,64,1,48,27,676029348
95,6,23,Ticks_Phase_5,65,5,42,127,676523300
95,6,23,Ticks_Phase_5,66,1,48,21,676543796
95,6,23,Ticks_Phase_5,67,1,48,28,677012920
95,6,23,Ticks_Phase_5,68,5,42,127,677023132
95,6,23,Ticks_Phase_5,69,5,42,127,677522976
95,6,23,Ticks_Phase_5,70,1,48,26,677526548
95,6,23,Ticks_Phase_5,71,1,48,27,678003680
95,6,23,Ticks_Phase_5,72,5,42,127,678022508
95,6,23,Ticks_Phase_5,73,1,48,30,678497380
95,6,23,Ticks_Phase_5,74,5,42,127,678523244
95,6,23,Ticks_Phase_5,75,1,48,26,679021500
95,6,23,Ticks_Phase_5,76,5,42,127,679023080
95,6,23,Ticks_Phase_5,77,1,48,35,679487440
95,6,23,Ticks_Phase_5,78,5,42,127,679522620
95,6,23,Ticks_Phase_5,79,1,48,24,680003912
95,6,23,Ticks_Phase_5,80,5,42,127,680023284
95,6,23,Ticks_Phase_5,81,1,48,25,680519992
95,6,23,Ticks_Phase_5,82,5,42,127,680523096
95,6,23,Ticks_Phase_5,83,5,42,127,681022988
95,6,23,Ticks_Phase_5,84,1,48,21,681030296
95,6,23,Ticks_Phase_5,85,5,42,127,681522604
95,6,23,Ticks_Phase_5,86,1,48,22,681531648
95,6,23,Ticks_Phase_5,87,5,42,127,682023264
95,6,23,Ticks_Phase_5,88,1,48,23,682024980
95,6,23,Ticks_Phase_5,89,5,42,127,682523028
95,6,23,Ticks_Phase_5,90,1,48,27,682534088
95,6,23,Ticks_Phase_5,91,5,42,127,683022940
95,6,23,Ticks_Phase_5,92,1,48,21,683036316
95,6,23,Ticks_Phase_5,93,1,48,28,683515256
95,6,23,Ticks_Phase_5,94,5,42,127,683532588
95,6,23,Ticks_Phase_5,95,5,42,127,684033256
95,6,23,Ticks_Phase_5,96,1,48,21,684055168
95,6,23,Ticks_Phase_5,97,5,42,127,684533092
95,6,23,Ticks_Phase_5,98,1,48,19,684543032
95,6,23,Ticks_Phase_5,99,1,48,27,685025776
95,6,23,Ticks_Phase_5,100,5,42,127,685032996
95,6,23,Ticks_Phase_5,101,5,42,127,685532468
95,6,23,Ticks_Phase_5,102,1,48,26,685536032
95,6,23,Ticks_Phase_5,103,5,42,127,686033200
95,6,23,Ticks_Phase_5,104,1,48,23,686043060
95,6,23,Ticks_Phase_5,105,5,42,127,686533040
95,6,23,Ticks_Phase_5,106,1,48,24,686534228
95,6,23,Ticks_Phase_5,107,5,42,127,687032876
95,6,23,Ticks_Phase_5,108,1,48,23,687040724
95,6,23,Ticks_Phase_5,109,1,48,27,687525940
95,6,23,Ticks_Phase_5,110,5,42,127,687533456
95,6,23,Ticks_Phase_5,111,5,42,127,688043336
95,6,23,Ticks_Phase_5,112,1,48,24,688052232
95,6,23,Ticks_Phase_5,113,5,42,127,688543100
95,6,23,Ticks_Phase_5,114,1,48,24,688545764
95,6,23,Ticks_Phase_5,115,1,48,26,689016388
95,6,23,Ticks_Phase_5,116,5,42,127,689043004
95,6,23,Ticks_Phase_5,117,1,48,27,689500808
95,6,23,Ticks_Phase_5,118,5,42,127,689542468
95,6,23,Ticks_Phase_5,119,1,48,21,690034188
95,6,23,Ticks_Phase_5,120,5,42,127,690043204
95,6,23,Ticks_Phase_5,121,1,48,29,690530440
95,6,23,Ticks_Phase_5,122,5,42,127,690542892
95,6,23,Ticks_Phase_5,123,1,48,27,691002984
95,6,23,Ticks_Phase_5,124,5,42,127,691042876
95,6,23,Ticks_Phase_5,125,1,48,23,691551380
95,6,23,Ticks_Phase_5,126,5,42,127,691562784
95,6,23,Ticks_Phase_5,127,5,42,127,692062704
95,6,23,Ticks_Phase_5,128,1,48,22,692072044
95,6,23,Ticks_Phase_5,129,1,48,24,692563516
95,6,23,Ticks_Phase_5,130,5,42,127,692564852
95,6,23,Ticks_Phase_5,131,1,48,28,693056780
95,6,23,Ticks_Phase_5,132,5,42,127,693063024
95,6,23,Ticks_Phase_5,133,5,42,127,693562916
95,6,23,Ticks_Phase_5,134,1,48,16,693579312
95,6,23,Ticks_Phase_5,135,1,48,26,694048560
95,6,23,Ticks_Phase_5,136,5,42,127,694062524
95,6,23,Ticks_Phase_5,137,5,42,127,694563040
95,6,23,Ticks_Phase_5,138,1,48,26,694566680
95,6,23,Ticks_Phase_5,139,1,48,26,695035728
95,6,23,Ticks_Phase_5,140,5,42,127,695063020
95,6,23,Ticks_Phase_5,141,1,48,26,695539236
95,6,23,Ticks_Phase_5,142,5,42,127,695562708
95,6,23,Ticks_Phase_5,143,1,48,21,696042604
95,6,23,Ticks_Phase_5,144,5,42,127,696063296
95,6,23,Ticks_Phase_5,145,1,48,26,696518992
95,6,23,Ticks_Phase_5,146,5,42,127,696563060
95,6,23,Ticks_Phase_5,147,5,42,127,697062900
95,6,23,Ticks_Phase_5,148,1,48,21,697079048
95,6,23,Ticks_Phase_5,149,5,42,127,697562440
95,6,23,Ticks_Phase_5,150,1,48,27,697565336
95,6,23,Ticks_Phase_5,151,1,48,29,698035804
95,6,23,Ticks_Phase_5,152,5,42,127,698063168
95,6,23,Ticks_Phase_5,153,1,48,27,698529948
95,6,23,Ticks_Phase_5,154,5,42,127,698562856
95,6,23,Ticks_Phase_5,155,1,48,24,699006792
95,6,23,Ticks_Phase_5,156,5,42,127,699062916
95,6,23,Ticks_Phase_5,157,1,48,17,699547148
95,6,23,Ticks_Phase_5,158,5,42,127,699563356
95,6,23,Ticks_Phase_5,159,1,48,24,700040412
95,6,23,Ticks_Phase_5,160,5,42,127,700042752
95,6,23,Ticks_Phase_5,161,5,42,127,700543272
95,6,23,Ticks_Phase_5,162,1,48,16,700587576
95,6,23,Ticks_Phase_5,163,1,48,28,701027192
95,6,23,Ticks_Phase_5,164,5,42,127,701043028
95,6,23,Ticks_Phase_5,165,1,48,28,701527332
95,6,23,Ticks_Phase_5,166,5,42,127,701542716
95,6,23,Ticks_Phase_5,167,1,48,18,702012472
95,6,23,Ticks_Phase_5,168,5,42,127,702042700
95,6,23,Ticks_Phase_5,169,5,42,127,702543144
95,6,23,Ticks_Phase_5,170,1,48,27,702546412
95,6,23,Ticks_Phase_5,171,5,42,127,703043032
95,6,23,Ticks_Phase_5,172,1,48,23,703051500
95,6,23,Ticks_Phase_5,173,1,48,33,703530324
95,6,23,Ticks_Phase_5,174,5,42,127,703542788
95,6,23,Ticks_Phase_5,175,1,48,35,704010928
95,6,23,Ticks_Phase_5,176,5,42,127,704043304
95,6,23,Ticks_Phase_5,177,1,48,27,704512264
95,6,23,Ticks_Phase_5,178,5,42,127,704543064
95,6,23,Ticks_Phase_5,179,1,48,21,705022876
95,6,23,Ticks_Phase_5,180,5,42,127,705042752
95,6,23,Ticks_Phase_5,181,1,48,27,705503472
95,6,23,Ticks_Phase_5,182,5,42,127,705542516
95,6,23,Ticks_Phase_5,183,1,48,26,706035956
95,6,23,Ticks_Phase_5,184,5,42,127,706043176
95,6,23,Ticks_Phase_5,185,1,48,28,706542648
95,6,23,Ticks_Phase_5,186,5,42,127,706543984
95,6,23,Ticks_Phase_5,187,1,48,24,707026864
95,6,23,Ticks_Phase_5,188,5,42,127,707042776
95,6,23,Ticks_Phase_5,189,1,48,25,707537116
95,6,23,Ticks_Phase_5,190,5,42,127,707543508
95,6,23,Ticks_Phase_5,191,5,42,127,707992956
95,6,23,Ticks_Phase_5,192,1,48,21,708041240
95,6,23,Ticks_Phase_5,193,1,48,26,708490452
95,6,23,Ticks_Phase_5,194,5,42,127,708492640
95,6,23,Ticks_Phase_5,195,1,48,25,708975820
95,6,23,Ticks_Phase_5,196,5,42,127,708993524
95,6,23,Ticks_Phase_5,197,1,48,20,709489432
95,6,23,Ticks_Phase_5,198,5,42,127,709493064
95,6,23,Ticks_Phase_5,199,1,48,26,709961948
95,6,23,Ticks_Phase_5,200,5,42,127,709992676
95,6,23,Ticks_Phase_5,201,1,48,25,710459656
95,6,23,Ticks_Phase_5,202,5,42,127,710492664
95,6,23,Ticks_Phase_5,203,1,48,23,710969452
95,6,23,Ticks_Phase_5,204,5,42,127,710993172
95,6,23,Ticks_Phase_5,205,5,42,127,711492916
95,6,23,Ticks_Phase_5,206,1,48,22,711494032
95,6,23,Ticks_Phase_5,207,5,42,127,711992828
95,6,23,Ticks_Phase_5,208,1,48,23,711999764
95,6,23,Ticks_Phase_5,209,5,42,127,712493564
95,6,23,Ticks_Phase_5,210,1,48,20,712504024
95,6,23,Ticks_Phase_5,211,1,48,25,712981164
95,6,23,Ticks_Phase_5,212,5,42,127,713003356
95,6,23,Ticks_Phase_5,213,5,42,127,713503200
95,6,23,Ticks_Phase_5,214,1,48,25,713504164
95,6,23,Ticks_Phase_5,215,5,42,127,714002740
95,6,23,Ticks_Phase_5,216,1,48,26,714024952
95,6,23,Ticks_Phase_5,217,5,42,127,714502652
95,6,23,Ticks_Phase_5,218,1,48,27,714530180
95,6,23,Ticks_Phase_5,219,5,42,127,715003236
95,6,23,Ticks_Phase_5,220,1,48,25,715006356
95,6,23,Ticks_Phase_5,221,5,42,127,715502924
95,6,23,Ticks_Phase_5,222,1,48,24,715516600
95,6,23,Ticks_Phase_5,223,1,48,26,715971276
95,6,23,Ticks_Phase_5,224,5,42,127,716002756
95,6,23,Ticks_Phase_5,225,1,48,23,716499412
95,6,23,Ticks_Phase_5,226,5,42,127,716552544
95,6,23,Ticks_Phase_5,227,1,48,22,717004348
95,6,23,Ticks_Phase_5,228,5,42,127,717053576
95,6,23,Ticks_Phase_5,229,5,42,127,717552972
95,6,23,Ticks_Phase_5,230,1,48,19,717554088
95,6,23,Ticks_Phase_5,231,5,42,127,718052660
95,6,23,Ticks_Phase_5,232,1,48,23,718085060
95,6,23,Ticks_Phase_5,233,5,42,127,718552572
95,6,23,Ticks_Phase_5,234,1,48,19,718613956
95,6,23,Ticks_Phase_5,235,1,48,18,719045856
95,6,23,Ticks_Phase_5,236,5,42,127,719053224
95,6,23,Ticks_Phase_5,237,5,42,127,719552844
95,6,23,Ticks_Phase_5,238,1,48,19,719568764
95,6,23,Ticks_Phase_5,239,1,48,22,720022244
95,6,23,Ticks_Phase_5,240,5,42,127,720052600
95,6,23,Ticks_Phase_5,241,5,42,127,720553268
95,6,23,Ticks_Phase_5,242,1,48,20,720564100
95,6,23,Ticks_Phase_5,243,1,48,17,721038392
95,6,23,Ticks_Phase_5,244,5,42,127,721052952
95,6,23,Ticks_Phase_5,245,5,42,127,721552648
95,6,23,Ticks_Phase_5,246,1,48,18,721565876
95,6,23,Ticks_Phase_5,247,5,42,127,722052556
95,6,23,Ticks_Phase_5,248,1,48,21,722061148
95,6,23,Ticks_Phase_5,249,5,42,127,722553220
95,6,23,Ticks_Phase_5,250,1,48,23,722560080
95,6,23,Ticks_Phase_5,251,5,42,127,723052908
95,6,23,Ticks_Phase_5,252,1,48,20,723058120
95,6,23,Ticks_Phase_5,253,5,42,127,723552520
95,6,23,Ticks_Phase_5,254,1,48,24,723558708
95,6,23,Ticks_Phase_5,255,5,42,127,724053628
95,6,23,Ticks_Phase_5,256,1,48,19,724061328
95,6,23,Ticks_Phase_5,257,5,42,127,724552944
95,6,23,Ticks_Phase_5,258,1,48,21,724579724
95,6,23,Ticks_Phase_5,259,1,48,27,725055116
95,6,23,Ticks_Phase_5,260,5,42,127,725153776
95,6,23,Ticks_Phase_5,261,5,42,127,725652892
95,6,23,Ticks_Phase_5,262,1,48,23,726113176
95,6,23,Ticks_Phase_5,263,5,42,127,726152672
95,6,23,Ticks_Phase_5,264,1,48,17,726645288
95,6,23,Ticks_Phase_5,265,5,42,127,726653404
95,6,23,Ticks_Phase_5,266,1,48,16,727130144
95,6,23,Ticks_Phase_5,267,5,42,127,727153020
95,6,23,Ticks_Phase_5,268,1,48,15,727641152
95,6,23,Ticks_Phase_5,269,5,42,127,727652632
95,6,23,Ticks_Phase_5,270,1,48,23,728127324
95,6,23,Ticks_Phase_5,271,5,42,127,728152620
95,6,23,Ticks_Phase_5,272,5,42,127,728653288
95,6,23,Ticks_Phase_5,273,1,48,23,729114968
95,6,23,Ticks_Phase_5,274,5,42,127,729152892
95,6,23,Ticks_Phase_5,275,1,48,14,729640112
95,6,23,Ticks_Phase_5,276,5,42,127,729652728
95,6,23,Ticks_Phase_5,277,1,48,22,730130900
95,6,23,Ticks_Phase_5,278,5,42,127,730153536
95,6,23,Ticks_Phase_5,279,1,48,21,730624440
95,6,23,Ticks_Phase_5,280,5,42,127,730653004
95,6,23,Ticks_Phase_5,281,1,48,19,731109748
95,6,23,Ticks_Phase_5,282,5,42,127,731152768
95,6,23,Ticks_Phase_5,283,1,48,19,731618120
95,6,23,Ticks_Phase_5,284,5,42,127,731652528
95,6,23,Ticks_Phase_5,285,1,48,25,732128348
95,6,23,Ticks_Phase_5,286,5,42,127,732153164
95,6,23,Ticks_Phase_5,287,1,48,23,732622124
95,6,23,Ticks_Phase_5,288,5,42,127,732652852
95,6,23,Ticks_Phase_5,289,1,48,26,733126672
95,6,23,Ticks_Phase_5,290,5,42,127,733152540
95,6,23,Ticks_Phase_5,291,5,42,127,733653508
95,6,23,Ticks_Phase_5,292,1,48,21,733658720
95,6,23,Ticks_Phase_5,293,1,48,22,734118184
95,6,23,Ticks_Phase_5,294,5,42,127,734152964
95,6,23,Ticks_Phase_5,295,5,42,127,734552612
95,6,23,Ticks_Phase_5,296,1,48,17,734661548
95,6,23,Ticks_Phase_5,297,5,42,127,735053124
95,6,23,Ticks_Phase_5,298,1,48,16,735066800
95,6,23,Ticks_Phase_5,299,1,48,23,735547132
95,6,23,Ticks_Phase_5,300,5,42,127,735552928
95,6,23,Ticks_Phase_5,301,1,48,22,736046672
95,6,23,Ticks_Phase_5,302,5,42,127,736052544
95,6,23,Ticks_Phase_5,303,1,48,18,736532660
95,6,23,Ticks_Phase_5,304,5,42,127,736553280
95,6,23,Ticks_Phase_5,305,1,48,24,737023656
95,6,23,Ticks_Phase_5,306,5,42,127,737053188
95,6,23,Ticks_Phase_5,307,1,48,16,737550540
95,6,23,Ticks_Phase_5,308,5,42,127,737552728
95,6,23,Ticks_Phase_5,309,1,48,16,738040696
95,6,23,Ticks_Phase_5,310,5,42,127,738052640
95,6,23,Ticks_Phase_5,311,1,48,21,738536572
95,6,23,Ticks_Phase_5,312,5,42,127,738553300
95,6,23,Ticks_Phase_5,313,1,48,25,739050404
95,6,23,Ticks_Phase_5,314,5,42,127,739052916
95,6,23,Ticks_Phase_5,315,5,42,127,739552608
95,6,23,Ticks_Phase_5,316,1,48,19,739553500
95,6,23,Ticks_Phase_5,317,1,48,22,740045296
95,6,23,Ticks_Phase_5,318,5,42,127,740053336
95,6,23,Ticks_Phase_5,319,5,42,127,740553108
95,6,23,Ticks_Phase_5,320,1,48,24,741034060
95,6,23,Ticks_Phase_5,321,5,42,127,741052736
95,6,23,Ticks_Phase_5,322,5,42,127,741552580
95,6,23,Ticks_Phase_5,323,1,48,20,741559884
95,6,23,Ticks_Phase_5,324,1,48,23,742043996
95,6,23,Ticks_Phase_5,325,5,42,127,742053232
95,6,23,Ticks_Phase_5,326,1,48,27,742533648
95,6,23,Ticks_Phase_5,327,5,42,127,742552920
95,6,23,Ticks_Phase_5,328,1,48,22,743040528
95,6,23,Ticks_Phase_5,329,5,42,127,743052832
95,6,23,Ticks_Phase_5,330,1,48,24,743540804
95,6,23,Ticks_Phase_5,331,5,42,127,743553420
95,6,23,Ticks_Phase_5,332,5,42,127,744053188
95,6,23,Ticks_Phase_5,0,9999,9999,9999,659520576
95,6,23,Ticks_Phase_5,1,9999,9999,9999,660020288
95,6,23,Ticks_Phase_5,2,9999,9999,9999,660521048
95,6,23,Ticks_Phase_5,3,9999,9999,9999,661020756
95,6,23,Ticks_Phase_5,4,9999,9999,9999,661520444
95,6,23,Ticks_Phase_5,5,9999,9999,9999,662020200
95,6,23,Ticks_Phase_5,6,9999,9999,9999,662520940
95,6,23,Ticks_Phase_5,7,9999,9999,9999,663020632
95,6,23,Ticks_Phase_5,8,9999,9999,9999,663520316
95,6,23,Ticks_Phase_5,9,9999,9999,9999,664021052
95,6,23,Ticks_Phase_5,10,9999,9999,9999,664520812
95,6,23,Ticks_Phase_5,11,9999,9999,9999,665020504
95,6,23,Ticks_Phase_5,12,9999,9999,9999,665520196
95,6,23,Ticks_Phase_5,13,9999,9999,9999,666020928
95,6,23,Ticks_Phase_5,14,9999,9999,9999,666520692
95,6,23,Ticks_Phase_5,15,9999,9999,9999,667020380
95,6,23,Ticks_Phase_5,16,9999,9999,9999,667520068
95,6,23,Ticks_Phase_5,17,9999,9999,9999,668020796
95,6,23,Ticks_Phase_5,18,9999,9999,9999,668520568
95,6,23,Ticks_Phase_5,19,9999,9999,9999,669020256
95,6,23,Ticks_Phase_5,20,9999,9999,9999,669520992
95,6,23,Ticks_Phase_5,21,9999,9999,9999,670020728
95,6,23,Ticks_Phase_5,22,9999,9999,9999,670520416
95,6,23,Ticks_Phase_5,23,9999,9999,9999,671020104
95,6,23,Ticks_Phase_5,24,9999,9999,9999,671520840
95,6,23,Ticks_Phase_5,25,9999,9999,9999,672020604
95,6,23,Ticks_Phase_5,26,9999,9999,9999,672520292
95,6,23,Ticks_Phase_5,27,9999,9999,9999,673021024
95,6,23,Ticks_Phase_5,28,9999,9999,9999,673520712
95,6,23,Ticks_Phase_5,29,9999,9999,9999,674020476
95,6,23,Ticks_Phase_5,30,9999,9999,9999,674510952
95,6,23,Ticks_Phase_5,31,9999,9999,9999,675010644
95,6,23,Ticks_Phase_5,32,9999,9999,9999,675510332
95,6,23,Ticks_Phase_5,33,9999,9999,9999,676011068
95,6,23,Ticks_Phase_5,34,9999,9999,9999,676521016
95,6,23,Ticks_Phase_5,35,9999,9999,9999,677020768
95,6,23,Ticks_Phase_5,36,9999,9999,9999,677520468
95,6,23,Ticks_Phase_5,37,9999,9999,9999,678020220
95,6,23,Ticks_Phase_5,38,9999,9999,9999,678520956
95,6,23,Ticks_Phase_5,39,9999,9999,9999,679020652
95,6,23,Ticks_Phase_5,40,9999,9999,9999,679520336
95,6,23,Ticks_Phase_5,41,9999,9999,9999,680021072
95,6,23,Ticks_Phase_5,42,9999,9999,9999,680520808
95,6,23,Ticks_Phase_5,43,9999,9999,9999,681020480
95,6,23,Ticks_Phase_5,44,9999,9999,9999,681520240
95,6,23,Ticks_Phase_5,45,9999,9999,9999,682020976
95,6,23,Ticks_Phase_5,46,9999,9999,9999,682520664
95,6,23,Ticks_Phase_5,47,9999,9999,9999,683020356
95,6,23,Ticks_Phase_5,48,9999,9999,9999,683530296
95,6,23,Ticks_Phase_5,49,9999,9999,9999,684031040
95,6,23,Ticks_Phase_5,50,9999,9999,9999,684530804
95,6,23,Ticks_Phase_5,51,9999,9999,9999,685030484
95,6,23,Ticks_Phase_5,52,9999,9999,9999,685530180
95,6,23,Ticks_Phase_5,53,9999,9999,9999,686030912
95,6,23,Ticks_Phase_5,54,9999,9999,9999,686530676
95,6,23,Ticks_Phase_5,55,9999,9999,9999,687030364
95,6,23,Ticks_Phase_5,56,9999,9999,9999,687531096
95,6,23,Ticks_Phase_5,57,9999,9999,9999,688041048
95,6,23,Ticks_Phase_5,58,9999,9999,9999,688540740
95,6,23,Ticks_Phase_5,59,9999,9999,9999,689040492
95,6,23,Ticks_Phase_5,60,9999,9999,9999,689540184
95,6,23,Ticks_Phase_5,61,9999,9999,9999,690040916
95,6,23,Ticks_Phase_5,62,9999,9999,9999,690540604
95,6,23,Ticks_Phase_5,63,9999,9999,9999,691040368
95,6,23,Ticks_Phase_5,64,9999,9999,9999,691560572
95,6,23,Ticks_Phase_5,65,9999,9999,9999,692060268
95,6,23,Ticks_Phase_5,66,9999,9999,9999,692561004
95,6,23,Ticks_Phase_5,67,9999,9999,9999,693060664
95,6,23,Ticks_Phase_5,68,9999,9999,9999,693560408
95,6,23,Ticks_Phase_5,69,9999,9999,9999,694060088
95,6,23,Ticks_Phase_5,70,9999,9999,9999,694560828
95,6,23,Ticks_Phase_5,71,9999,9999,9999,695060588
95,6,23,Ticks_Phase_5,72,9999,9999,9999,695560276
95,6,23,Ticks_Phase_5,73,9999,9999,9999,696061008
95,6,23,Ticks_Phase_5,74,9999,9999,9999,696560700
95,6,23,Ticks_Phase_5,75,9999,9999,9999,697060468
95,6,23,Ticks_Phase_5,76,9999,9999,9999,697560156
95,6,23,Ticks_Phase_5,77,9999,9999,9999,698060884
95,6,23,Ticks_Phase_5,78,9999,9999,9999,698560568
95,6,23,Ticks_Phase_5,79,9999,9999,9999,699060332
95,6,23,Ticks_Phase_5,80,9999,9999,9999,699561068
95,6,23,Ticks_Phase_5,81,9999,9999,9999,700040284
95,6,23,Ticks_Phase_5,82,9999,9999,9999,700540984
95,6,23,Ticks_Phase_5,83,9999,9999,9999,701040740
95,6,23,Ticks_Phase_5,84,9999,9999,9999,701540428
95,6,23,Ticks_Phase_5,85,9999,9999,9999,702040192
95,6,23,Ticks_Phase_5,86,9999,9999,9999,702540860
95,6,23,Ticks_Phase_5,87,9999,9999,9999,703040596
95,6,23,Ticks_Phase_5,88,9999,9999,9999,703540280
95,6,23,Ticks_Phase_5,89,9999,9999,9999,704041016
95,6,23,Ticks_Phase_5,90,9999,9999,9999,704540780
95,6,23,Ticks_Phase_5,91,9999,9999,9999,705040464
95,6,23,Ticks_Phase_5,92,9999,9999,9999,705540156
95,6,23,Ticks_Phase_5,93,9999,9999,9999,706040888
95,6,23,Ticks_Phase_5,94,9999,9999,9999,706540656
95,6,23,Ticks_Phase_5,95,9999,9999,9999,707040340
95,6,23,Ticks_Phase_5,96,9999,9999,9999,707541072
95,6,23,Ticks_Phase_5,97,9999,9999,9999,707990596
95,6,23,Ticks_Phase_5,98,9999,9999,9999,708490316
95,6,23,Ticks_Phase_5,99,9999,9999,9999,708991088
95,6,23,Ticks_Phase_5,100,9999,9999,9999,709490776
95,6,23,Ticks_Phase_5,101,9999,9999,9999,709990464
95,6,23,Ticks_Phase_5,102,9999,9999,9999,710490228
95,6,23,Ticks_Phase_5,103,9999,9999,9999,710990960
95,6,23,Ticks_Phase_5,104,9999,9999,9999,711490632
95,6,23,Ticks_Phase_5,105,9999,9999,9999,711990392
95,6,23,Ticks_Phase_5,106,9999,9999,9999,712491128
95,6,23,Ticks_Phase_5,107,9999,9999,9999,713001068
95,6,23,Ticks_Phase_5,108,9999,9999,9999,713500764
95,6,23,Ticks_Phase_5,109,9999,9999,9999,714000452
95,6,23,Ticks_Phase_5,110,9999,9999,9999,714500216
95,6,23,Ticks_Phase_5,111,9999,9999,9999,715000952
95,6,23,Ticks_Phase_5,112,9999,9999,9999,715500636
95,6,23,Ticks_Phase_5,113,9999,9999,9999,716000320
95,6,23,Ticks_Phase_5,114,9999,9999,9999,716550256
95,6,23,Ticks_Phase_5,115,9999,9999,9999,717050992
95,6,23,Ticks_Phase_5,116,9999,9999,9999,717550688
95,6,23,Ticks_Phase_5,117,9999,9999,9999,718050376
95,6,23,Ticks_Phase_5,118,9999,9999,9999,718550136
95,6,23,Ticks_Phase_5,119,9999,9999,9999,719050864
95,6,23,Ticks_Phase_5,120,9999,9999,9999,719550560
95,6,23,Ticks_Phase_5,121,9999,9999,9999,720050240
95,6,23,Ticks_Phase_5,122,9999,9999,9999,720550980
95,6,23,Ticks_Phase_5,123,9999,9999,9999,721050740
95,6,23,Ticks_Phase_5,124,9999,9999,9999,721550432
95,6,23,Ticks_Phase_5,125,9999,9999,9999,722050124
95,6,23,Ticks_Phase_5,126,9999,9999,9999,722550856
95,6,23,Ticks_Phase_5,127,9999,9999,9999,723050620
95,6,23,Ticks_Phase_5,128,9999,9999,9999,723550308
95,6,23,Ticks_Phase_5,129,9999,9999,9999,724051044
95,6,23,Ticks_Phase_5,130,9999,9999,9999,724550732
95,6,23,Ticks_Phase_5,131,9999,9999,9999,725150836
95,6,23,Ticks_Phase_5,132,9999,9999,9999,725650532
95,6,23,Ticks_Phase_5,133,9999,9999,9999,726150236
95,6,23,Ticks_Phase_5,134,9999,9999,9999,726650968
95,6,23,Ticks_Phase_5,135,9999,9999,9999,727150660
95,6,23,Ticks_Phase_5,136,9999,9999,9999,727650420
95,6,23,Ticks_Phase_5,137,9999,9999,9999,728150108
95,6,23,Ticks_Phase_5,138,9999,9999,9999,728650852
95,6,23,Ticks_Phase_5,139,9999,9999,9999,729150532
95,6,23,Ticks_Phase_5,140,9999,9999,9999,729650292
95,6,23,Ticks_Phase_5,141,9999,9999,9999,730151028
95,6,23,Ticks_Phase_5,142,9999,9999,9999,730650716
95,6,23,Ticks_Phase_5,143,9999,9999,9999,731150404
95,6,23,Ticks_Phase_5,144,9999,9999,9999,731650168
95,6,23,Ticks_Phase_5,145,9999,9999,9999,732150876
95,6,23,Ticks_Phase_5,146,9999,9999,9999,732650568
95,6,23,Ticks_Phase_5,147,9999,9999,9999,733150328
95,6,23,Ticks_Phase_5,148,9999,9999,9999,733651068
95,6,23,Ticks_Phase_5,149,9999,9999,9999,734150752
95,6,23,Ticks_Phase_5,150,9999,9999,9999,734550100
95,6,23,Ticks_Phase_5,151,9999,9999,9999,735050836
95,6,23,Ticks_Phase_5,152,9999,9999,9999,735550568
95,6,23,Ticks_Phase_5,153,9999,9999,9999,736050256
95,6,23,Ticks_Phase_5,154,9999,9999,9999,736550992
95,6,23,Ticks_Phase_5,155,9999,9999,9999,737050680
95,6,23,Ticks_Phase_5,156,9999,9999,9999,737550412
95,6,23,Ticks_Phase_5,157,9999,9999,9999,738050132
95,6,23,Ticks_Phase_5,158,9999,9999,9999,738550864
95,6,23,Ticks_Phase_5,159,9999,9999,9999,739050552
95,6,23,Ticks_Phase_5,160,9999,9999,9999,739550320
95,6,23,Ticks_Phase_5,161,9999,9999,9999,740051052
95,6,23,Ticks_Phase_5,162,9999,9999,9999,740550744
95,6,23,Ticks_Phase_5,163,9999,9999,9999,741050448
95,6,23,Ticks_Phase_5,164,9999,9999,9999,741550144
95,6,23,Ticks_Phase_5,165,9999,9999,9999,742050872
95,6,23,Ticks_Phase_5,166,9999,9999,9999,742550636
95,6,23,Ticks_Phase_5,167,9999,9999,9999,743050324
95,6,23,Ticks_Phase_5,168,9999,9999,9999,743551056
95,6,23,Ticks_Phase_5,169,9999,9999,9999,744050752
95,7,9,Ticks_ISO_T2_8,0,5,42,127,754149628
95,7,9,Ticks_ISO_T2_8,1,5,42,127,754949604
95,7,9,Ticks_ISO_T2_8,2,5,42,127,755750408
95,7,9,Ticks_ISO_T2_8,3,1,48,23,755793864
95,7,9,Ticks_ISO_T2_8,4,5,42,127,756550092
95,7,9,Ticks_ISO_T2_8,5,1,48,28,756584924
95,7,9,Ticks_ISO_T2_8,6,5,42,127,757349676
95,7,9,Ticks_ISO_T2_8,7,1,48,24,757377628
95,7,9,Ticks_ISO_T2_8,8,1,48,27,758142336
95,7,9,Ticks_ISO_T2_8,9,5,42,127,758149476
95,7,9,Ticks_ISO_T2_8,10,1,48,22,758933464
95,7,9,Ticks_ISO_T2_8,11,5,42,127,758950256
95,7,9,Ticks_ISO_T2_8,12,1,48,21,759746064
95,7,9,Ticks_ISO_T2_8,13,5,42,127,759750136
95,7,9,Ticks_ISO_T2_8,14,1,48,29,760513112
95,7,9,Ticks_ISO_T2_8,15,5,42,127,760549648
95,7,9,Ticks_ISO_T2_8,16,1,48,23,761341864
95,7,9,Ticks_ISO_T2_8,17,5,42,127,761349380
95,7,9,Ticks_ISO_T2_8,18,5,42,127,762150316
95,7,9,Ticks_ISO_T2_8,19,1,48,18,762169288
95,7,9,Ticks_ISO_T2_8,20,5,42,127,762950000
95,7,9,Ticks_ISO_T2_8,21,1,48,27,762955140
95,7,9,Ticks_ISO_T2_8,22,5,42,127,763749736
95,7,9,Ticks_ISO_T2_8,23,1,48,22,763785244
95,7,9,Ticks_ISO_T2_8,24,5,42,127,764549468
95,7,9,Ticks_ISO_T2_8,25,1,48,35,765273412
95,7,9,Ticks_ISO_T2_8,26,5,42,127,765350340
95,7,9,Ticks_ISO_T2_8,27,1,48,29,766074268
95,7,9,Ticks_ISO_T2_8,28,5,42,127,766150072
95,7,9,Ticks_ISO_T2_8,29,1,48,21,766919552
95,7,9,Ticks_ISO_T2_8,30,5,42,127,766949732
95,7,9,Ticks_ISO_T2_8,31,1,48,23,767702756
95,7,9,Ticks_ISO_T2_8,32,5,42,127,767749388
95,7,9,Ticks_ISO_T2_8,33,1,48,20,768518720
95,7,9,Ticks_ISO_T2_8,34,5,42,127,768550316
95,7,9,Ticks_ISO_T2_8,35,1,48,27,769278288
95,7,9,Ticks_ISO_T2_8,36,5,42,127,769350076
95,7,9,Ticks_ISO_T2_8,37,1,48,21,770118508
95,7,9,Ticks_ISO_T2_8,38,5,42,127,770149660
95,7,9,Ticks_ISO_T2_8,39,1,48,27,770934248
95,7,9,Ticks_ISO_T2_8,40,5,42,127,770949468
95,7,9,Ticks_ISO_T2_8,41,5,42,127,771750252
95,7,9,Ticks_ISO_T2_8,42,1,48,23,771768104
95,7,9,Ticks_ISO_T2_8,43,1,48,21,772531696
95,7,9,Ticks_ISO_T2_8,44,5,42,127,772550204
95,7,9,Ticks_ISO_T2_8,45,1,48,15,773306068
95,7,9,Ticks_ISO_T2_8,46,5,42,127,773349712
95,7,9,Ticks_ISO_T2_8,47,1,48,26,774072448
95,7,9,Ticks_ISO_T2_8,48,5,42,127,774149444
95,7,9,Ticks_ISO_T2_8,49,1,48,20,774935304
95,7,9,Ticks_ISO_T2_8,50,5,42,127,774950300
95,7,9,Ticks_ISO_T2_8,51,5,42,127,775750212
95,7,9,Ticks_ISO_T2_8,52,1,48,19,775754228
95,7,9,Ticks_ISO_T2_8,53,1,48,28,776519988
95,7,9,Ticks_ISO_T2_8,54,5,42,127,776549864
95,7,9,Ticks_ISO_T2_8,55,5,42,127,777349532
95,7,9,Ticks_ISO_T2_8,56,1,48,15,777352128
95,7,9,Ticks_ISO_T2_8,57,1,48,26,778125444
95,7,9,Ticks_ISO_T2_8,58,5,42,127,778150232
95,7,9,Ticks_ISO_T2_8,59,1,48,21,778947852
95,7,9,Ticks_ISO_T2_8,60,5,42,127,778950116
95,7,9,Ticks_ISO_T2_8,61,5,42,127,779749780
95,7,9,Ticks_ISO_T2_8,62,1,48,18,779788952
95,7,9,Ticks_ISO_T2_8,63,1,48,19,780540128
95,7,9,Ticks_ISO_T2_8,64,5,42,127,780549508
95,7,9,Ticks_ISO_T2_8,65,1,48,25,781321832
95,7,9,Ticks_ISO_T2_8,66,5,42,127,781350216
95,7,9,Ticks_ISO_T2_8,67,1,48,21,782110344
95,7,9,Ticks_ISO_T2_8,68,5,42,127,782149972
95,7,9,Ticks_ISO_T2_8,69,1,48,18,782943540
95,7,9,Ticks_ISO_T2_8,70,5,42,127,782950004
95,7,9,Ticks_ISO_T2_8,71,1,48,19,783749744
95,7,9,Ticks_ISO_T2_8,72,5,42,127,783751080
95,7,9,Ticks_ISO_T2_8,73,1,48,21,784530212
95,7,9,Ticks_ISO_T2_8,74,5,42,127,784550144
95,7,9,Ticks_ISO_T2_8,75,1,48,17,785324116
95,7,9,Ticks_ISO_T2_8,76,5,42,127,785349952
95,7,9,Ticks_ISO_T2_8,77,5,42,127,786149616
95,7,9,Ticks_ISO_T2_8,78,1,48,16,786172332
95,7,9,Ticks_ISO_T2_8,79,1,48,28,786915124
95,7,9,Ticks_ISO_T2_8,80,5,42,127,786949344
95,7,9,Ticks_ISO_T2_8,81,1,48,18,787748160
95,7,9,Ticks_ISO_T2_8,82,5,42,127,787750196
95,7,9,Ticks_ISO_T2_8,83,1,48,20,788528284
95,7,9,Ticks_ISO_T2_8,84,5,42,127,788549956
95,7,9,Ticks_ISO_T2_8,85,5,42,127,789349848
95,7,9,Ticks_ISO_T2_8,86,1,48,32,790092712
95,7,9,Ticks_ISO_T2_8,87,5,42,127,790149372
95,7,9,Ticks_ISO_T2_8,88,1,48,18,790924236
95,7,9,Ticks_ISO_T2_8,89,5,42,127,790950228
95,7,9,Ticks_ISO_T2_8,90,1,48,25,791725988
95,7,9,Ticks_ISO_T2_8,91,5,42,127,791749960
95,7,9,Ticks_ISO_T2_8,92,1,48,20,792539036
95,7,9,Ticks_ISO_T2_8,93,5,42,127,792549696
95,7,9,Ticks_ISO_T2_8,94,1,48,18,793309076
95,7,9,Ticks_ISO_T2_8,95,5,42,127,793349504
95,7,9,Ticks_ISO_T2_8,96,1,48,21,794111952
95,7,9,Ticks_ISO_T2_8,97,5,42,127,794150356
95,7,9,Ticks_ISO_T2_8,98,1,48,20,794897628
95,7,9,Ticks_ISO_T2_8,99,5,42,127,794949968
95,7,9,Ticks_ISO_T2_8,100,1,48,14,795679784
95,7,9,Ticks_ISO_T2_8,101,5,42,127,795749848
95,7,9,Ticks_ISO_T2_8,102,1,48,22,796495764
95,7,9,Ticks_ISO_T2_8,103,5,42,127,796549356
95,7,9,Ticks_ISO_T2_8,104,1,48,16,797283684
95,7,9,Ticks_ISO_T2_8,105,5,42,127,797350360
95,7,9,Ticks_ISO_T2_8,106,1,48,22,798115056
95,7,9,Ticks_ISO_T2_8,107,5,42,127,798150096
95,7,9,Ticks_ISO_T2_8,108,1,48,21,798909632
95,7,9,Ticks_ISO_T2_8,109,5,42,127,798949680
95,7,9,Ticks_ISO_T2_8,110,1,48,16,799713848
95,7,9,Ticks_ISO_T2_8,111,5,42,127,799749412
95,7,9,Ticks_ISO_T2_8,112,1,48,15,800506400
95,7,9,Ticks_ISO_T2_8,113,5,42,127,800550340
95,7,9,Ticks_ISO_T2_8,114,1,48,15,801333512
95,7,9,Ticks_ISO_T2_8,115,5,42,127,801350100
95,7,9,Ticks_ISO_T2_8,116,5,42,127,802149840
95,7,9,Ticks_ISO_T2_8,117,1,48,25,802151252
95,7,9,Ticks_ISO_T2_8,118,5,42,127,802949424
95,7,9,Ticks_ISO_T2_8,119,1,48,19,802982164
95,7,9,Ticks_ISO_T2_8,120,1,48,19,803738196
95,7,9,Ticks_ISO_T2_8,121,5,42,127,803750272
95,7,9,Ticks_ISO_T2_8,122,1,48,21,804516236
95,7,9,Ticks_ISO_T2_8,123,5,42,127,804550080
95,7,9,Ticks_ISO_T2_8,124,1,48,13,805312084
95,7,9,Ticks_ISO_T2_8,125,5,42,127,805350112
95,7,9,Ticks_ISO_T2_8,126,1,48,20,806128344
95,7,9,Ticks_ISO_T2_8,127,5,42,127,806149620
95,7,9,Ticks_ISO_T2_8,128,1,48,16,806929052
95,7,9,Ticks_ISO_T2_8,129,5,42,127,806950252
95,7,9,Ticks_ISO_T2_8,130,1,48,20,807734988
95,7,9,Ticks_ISO_T2_8,131,5,42,127,807750084
95,7,9,Ticks_ISO_T2_8,132,1,48,23,808519640
95,7,9,Ticks_ISO_T2_8,133,5,42,127,808550040
95,7,9,Ticks_ISO_T2_8,134,5,42,127,809349560
95,7,9,Ticks_ISO_T2_8,135,1,48,23,809359932
95,7,9,Ticks_ISO_T2_8,136,1,48,24,810113648
95,7,9,Ticks_ISO_T2_8,137,5,42,127,810150108
95,7,9,Ticks_ISO_T2_8,138,1,48,16,810937240
95,7,9,Ticks_ISO_T2_8,139,5,42,127,810950140
95,7,9,Ticks_ISO_T2_8,140,1,48,18,811710120
95,7,9,Ticks_ISO_T2_8,141,5,42,127,811749948
95,7,9,Ticks_ISO_T2_8,142,1,48,18,812531176
95,7,9,Ticks_ISO_T2_8,143,5,42,127,812549532
95,7,9,Ticks_ISO_T2_8,144,1,48,15,813328668
95,7,9,Ticks_ISO_T2_8,145,5,42,127,813350240
95,7,9,Ticks_ISO_T2_8,146,1,48,20,814131540
95,7,9,Ticks_ISO_T2_8,147,5,42,127,814149848
95,7,9,Ticks_ISO_T2_8,148,1,48,16,814928604
95,7,9,Ticks_ISO_T2_8,149,5,42,127,814949880
95,7,9,Ticks_ISO_T2_8,150,1,48,17,815713532
95,7,9,Ticks_ISO_T2_8,151,5,42,127,815749540
95,7,9,Ticks_ISO_T2_8,152,1,48,15,816489480
95,7,9,Ticks_ISO_T2_8,153,5,42,127,816550244
95,7,9,Ticks_ISO_T2_8,154,1,48,16,817323172
95,7,9,Ticks_ISO_T2_8,155,5,42,127,817349980
95,7,9,Ticks_ISO_T2_8,156,1,48,19,818120356
95,7,9,Ticks_ISO_T2_8,157,5,42,127,818149936
95,7,9,Ticks_ISO_T2_8,158,1,48,17,818938044
95,7,9,Ticks_ISO_T2_8,159,5,42,127,818949444
95,7,9,Ticks_ISO_T2_8,160,1,48,21,819739492
95,7,9,Ticks_ISO_T2_8,161,5,42,127,819750224
95,7,9,Ticks_ISO_T2_8,162,1,48,16,820534140
95,7,9,Ticks_ISO_T2_8,163,5,42,127,820549908
95,7,9,Ticks_ISO_T2_8,164,1,48,16,821328512
95,7,9,Ticks_ISO_T2_8,165,5,42,127,821349640
95,7,9,Ticks_ISO_T2_8,166,1,48,17,822128696
95,7,9,Ticks_ISO_T2_8,167,5,42,127,822149596
95,7,9,Ticks_ISO_T2_8,168,1,48,13,822927232
95,7,9,Ticks_ISO_T2_8,169,5,42,127,822950228
95,7,9,Ticks_ISO_T2_8,170,1,48,20,823685824
95,7,9,Ticks_ISO_T2_8,171,5,42,127,823749888
95,7,9,Ticks_ISO_T2_8,172,1,48,16,824509268
95,7,9,Ticks_ISO_T2_8,173,5,42,127,824549768
95,7,9,Ticks_ISO_T2_8,174,1,48,21,825333612
95,7,9,Ticks_ISO_T2_8,175,5,42,127,825349356
95,7,9,Ticks_ISO_T2_8,176,1,48,22,826138808
95,7,9,Ticks_ISO_T2_8,177,5,42,127,826150208
95,7,9,Ticks_ISO_T2_8,178,1,48,25,826947928
95,7,9,Ticks_ISO_T2_8,179,5,42,127,826949896
95,7,9,Ticks_ISO_T2_8,180,1,48,27,827745780
95,7,9,Ticks_ISO_T2_8,181,5,42,127,827749852
95,7,9,Ticks_ISO_T2_8,182,1,48,26,828518740
95,7,9,Ticks_ISO_T2_8,183,5,42,127,828549440
95,7,9,Ticks_ISO_T2_8,184,1,48,28,829327296
95,7,9,Ticks_ISO_T2_8,185,5,42,127,829350220
95,7,9,Ticks_ISO_T2_8,186,1,48,35,830108784
95,7,9,Ticks_ISO_T2_8,187,5,42,127,830149876
95,7,9,Ticks_ISO_T2_8,188,1,48,24,830923028
95,7,9,Ticks_ISO_T2_8,189,5,42,127,830949836
95,7,9,Ticks_ISO_T2_8,190,1,48,19,831721712
95,7,9,Ticks_ISO_T2_8,191,5,42,127,831749644
95,7,9,Ticks_ISO_T2_8,192,1,48,31,832519280
95,7,9,Ticks_ISO_T2_8,193,5,42,127,832550200
95,7,9,Ticks_ISO_T2_8,194,1,48,18,832588936
95,7,9,Ticks_ISO_T2_8,195,1,48,29,833302008
95,7,9,Ticks_ISO_T2_8,196,5,42,127,833349936
95,7,9,Ticks_ISO_T2_8,197,1,48,30,834080124
95,7,9,Ticks_ISO_T2_8,198,5,42,127,834149892
95,7,9,Ticks_ISO_T2_8,199,1,48,24,834908236
95,7,9,Ticks_ISO_T2_8,200,5,42,127,834949480
95,7,9,Ticks_ISO_T2_8,201,1,48,28,835660844
95,7,9,Ticks_ISO_T2_8,202,5,42,127,835750108
95,7,9,Ticks_ISO_T2_8,203,1,48,27,836525796
95,7,9,Ticks_ISO_T2_8,204,5,42,127,836549920
95,7,9,Ticks_ISO_T2_8,205,1,48,24,837313192
95,7,9,Ticks_ISO_T2_8,206,5,42,127,837349728
95,7,9,Ticks_ISO_T2_8,207,1,48,23,838072688
95,7,9,Ticks_ISO_T2_8,208,5,42,127,838149684
95,7,9,Ticks_ISO_T2_8,209,1,48,27,838882592
95,7,9,Ticks_ISO_T2_8,210,5,42,127,838950464
95,7,9,Ticks_ISO_T2_8,211,1,48,33,839667216
95,7,9,Ticks_ISO_T2_8,212,1,48,20,839739448
95,7,9,Ticks_ISO_T2_8,213,5,42,127,839749976
95,7,9,Ticks_ISO_T2_8,214,1,48,30,840447852
95,7,9,Ticks_ISO_T2_8,215,5,42,127,840549772
95,7,9,Ticks_ISO_T2_8,216,1,48,22,841316724
95,7,9,Ticks_ISO_T2_8,217,5,42,127,841349744
95,7,9,Ticks_ISO_T2_8,218,1,48,24,842122816
95,7,9,Ticks_ISO_T2_8,219,5,42,127,842150376
95,7,9,Ticks_ISO_T2_8,220,1,48,21,842897720
95,7,9,Ticks_ISO_T2_8,221,5,42,127,842949960
95,7,9,Ticks_ISO_T2_8,222,1,48,28,843689744
95,7,9,Ticks_ISO_T2_8,223,5,42,127,843749692
95,7,9,Ticks_ISO_T2_8,224,1,48,30,844491804
95,7,9,Ticks_ISO_T2_8,225,5,42,127,844549800
95,7,9,Ticks_ISO_T2_8,226,1,48,22,845298192
95,7,9,Ticks_ISO_T2_8,227,5,42,127,845350136
95,7,9,Ticks_ISO_T2_8,228,1,48,24,846112960
95,7,9,Ticks_ISO_T2_8,229,5,42,127,846149892
95,7,9,Ticks_ISO_T2_8,230,1,48,26,846918252
95,7,9,Ticks_ISO_T2_8,231,5,42,127,846949848
95,7,9,Ticks_ISO_T2_8,232,5,42,127,847749440
95,7,9,Ticks_ISO_T2_8,233,1,48,25,847774248
95,7,9,Ticks_ISO_T2_8,234,5,42,127,848550292
95,7,9,Ticks_ISO_T2_8,235,1,48,27,848606448
95,7,9,Ticks_ISO_T2_8,236,1,48,30,849336900
95,7,9,Ticks_ISO_T2_8,237,5,42,127,849349872
95,7,9,Ticks_ISO_T2_8,238,1,48,23,850090632
95,7,9,Ticks_ISO_T2_8,0,9999,9999,9999,754147412
95,7,9,Ticks_ISO_T2_8,1,9999,9999,9999,754947168
95,7,9,Ticks_ISO_T2_8,2,9999,9999,9999,755747896
95,7,9,Ticks_ISO_T2_8,3,9999,9999,9999,756547704
95,7,9,Ticks_ISO_T2_8,4,9999,9999,9999,757347388
95,7,9,Ticks_ISO_T2_8,5,9999,9999,9999,758147188
95,7,9,Ticks_ISO_T2_8,6,9999,9999,9999,758947896
95,7,9,Ticks_ISO_T2_8,7,9999,9999,9999,759747700
95,7,9,Ticks_ISO_T2_8,8,9999,9999,9999,760547436
95,7,9,Ticks_ISO_T2_8,9,9999,9999,9999,761347168
95,7,9,Ticks_ISO_T2_8,10,9999,9999,9999,762147952
95,7,9,Ticks_ISO_T2_8,11,9999,9999,9999,762947688
95,7,9,Ticks_ISO_T2_8,12,9999,9999,9999,763747448
95,7,9,Ticks_ISO_T2_8,13,9999,9999,9999,764547180
95,7,9,Ticks_ISO_T2_8,14,9999,9999,9999,765347900
95,7,9,Ticks_ISO_T2_8,15,9999,9999,9999,766147636
95,7,9,Ticks_ISO_T2_8,16,9999,9999,9999,766947444
95,7,9,Ticks_ISO_T2_8,17,9999,9999,9999,767747176
95,7,9,Ticks_ISO_T2_8,18,9999,9999,9999,768547956
95,7,9,Ticks_ISO_T2_8,19,9999,9999,9999,769347640
95,7,9,Ticks_ISO_T2_8,20,9999,9999,9999,770147444
95,7,9,Ticks_ISO_T2_8,21,9999,9999,9999,770947180
95,7,9,Ticks_ISO_T2_8,22,9999,9999,9999,771747892
95,7,9,Ticks_ISO_T2_8,23,9999,9999,9999,772547692
95,7,9,Ticks_ISO_T2_8,24,9999,9999,9999,773347424
95,7,9,Ticks_ISO_T2_8,25,9999,9999,9999,774147156
95,7,9,Ticks_ISO_T2_8,26,9999,9999,9999,774947936
95,7,9,Ticks_ISO_T2_8,27,9999,9999,9999,775747700
95,7,9,Ticks_ISO_T2_8,28,9999,9999,9999,776547428
95,7,9,Ticks_ISO_T2_8,29,9999,9999,9999,777347168
95,7,9,Ticks_ISO_T2_8,30,9999,9999,9999,778147944
95,7,9,Ticks_ISO_T2_8,31,9999,9999,9999,778947640
95,7,9,Ticks_ISO_T2_8,32,9999,9999,9999,779747416
95,7,9,Ticks_ISO_T2_8,33,9999,9999,9999,780547148
95,7,9,Ticks_ISO_T2_8,34,9999,9999,9999,781347928
95,7,9,Ticks_ISO_T2_8,35,9999,9999,9999,782147684
95,7,9,Ticks_ISO_T2_8,36,9999,9999,9999,782947416
95,7,9,Ticks_ISO_T2_8,37,9999,9999,9999,783747156
95,7,9,Ticks_ISO_T2_8,38,9999,9999,9999,784547932
95,7,9,Ticks_ISO_T2_8,39,9999,9999,9999,785347664
95,7,9,Ticks_ISO_T2_8,40,9999,9999,9999,786147404
95,7,9,Ticks_ISO_T2_8,41,9999,9999,9999,786947132
95,7,9,Ticks_ISO_T2_8,42,9999,9999,9999,787747948
95,7,9,Ticks_ISO_T2_8,43,9999,9999,9999,788547668
95,7,9,Ticks_ISO_T2_8,44,9999,9999,9999,789347412
95,7,9,Ticks_ISO_T2_8,45,9999,9999,9999,790147156
95,7,9,Ticks_ISO_T2_8,46,9999,9999,9999,790947940
95,7,9,Ticks_ISO_T2_8,47,9999,9999,9999,791747672
95,7,9,Ticks_ISO_T2_8,48,9999,9999,9999,792547408
95,7,9,Ticks_ISO_T2_8,49,9999,9999,9999,793347140
95,7,9,Ticks_ISO_T2_8,50,9999,9999,9999,794147920
95,7,9,Ticks_ISO_T2_8,51,9999,9999,9999,794947680
95,7,9,Ticks_ISO_T2_8,52,9999,9999,9999,795747412
95,7,9,Ticks_ISO_T2_8,53,9999,9999,9999,796547144
95,7,9,Ticks_ISO_T2_8,54,9999,9999,9999,797347924
95,7,9,Ticks_ISO_T2_8,55,9999,9999,9999,798147656
95,7,9,Ticks_ISO_T2_8,56,9999,9999,9999,798947392
95,7,9,Ticks_ISO_T2_8,57,9999,9999,9999,799747124
95,7,9,Ticks_ISO_T2_8,58,9999,9999,9999,800547904
95,7,9,Ticks_ISO_T2_8,59,9999,9999,9999,801347664
95,7,9,Ticks_ISO_T2_8,60,9999,9999,9999,802147404
95,7,9,Ticks_ISO_T2_8,61,9999,9999,9999,802947136
95,7,9,Ticks_ISO_T2_8,62,9999,9999,9999,803747908
95,7,9,Ticks_ISO_T2_8,63,9999,9999,9999,804547644
95,7,9,Ticks_ISO_T2_8,64,9999,9999,9999,805347380
95,7,9,Ticks_ISO_T2_8,65,9999,9999,9999,806147184
95,7,9,Ticks_ISO_T2_8,66,9999,9999,9999,806947892
95,7,9,Ticks_ISO_T2_8,67,9999,9999,9999,807747648
95,7,9,Ticks_ISO_T2_8,68,9999,9999,9999,808547384
95,7,9,Ticks_ISO_T2_8,69,9999,9999,9999,809347124
95,7,9,Ticks_ISO_T2_8,70,9999,9999,9999,810147896
95,7,9,Ticks_ISO_T2_8,71,9999,9999,9999,810947704
95,7,9,Ticks_ISO_T2_8,72,9999,9999,9999,811747436
95,7,9,Ticks_ISO_T2_8,73,9999,9999,9999,812547172
95,7,9,Ticks_ISO_T2_8,74,9999,9999,9999,813347952
95,7,9,Ticks_ISO_T2_8,75,9999,9999,9999,814147636
95,7,9,Ticks_ISO_T2_8,76,9999,9999,9999,814947444
95,7,9,Ticks_ISO_T2_8,77,9999,9999,9999,815747176
95,7,9,Ticks_ISO_T2_8,78,9999,9999,9999,816547956
95,7,9,Ticks_ISO_T2_8,79,9999,9999,9999,817347692
95,7,9,Ticks_ISO_T2_8,80,9999,9999,9999,818147424
95,7,9,Ticks_ISO_T2_8,81,9999,9999,9999,818947156
95,7,9,Ticks_ISO_T2_8,82,9999,9999,9999,819747936
95,7,9,Ticks_ISO_T2_8,83,9999,9999,9999,820547692
95,7,9,Ticks_ISO_T2_8,84,9999,9999,9999,821347428
95,7,9,Ticks_ISO_T2_8,85,9999,9999,9999,822147160
95,7,9,Ticks_ISO_T2_8,86,9999,9999,9999,822947940
95,7,9,Ticks_ISO_T2_8,87,9999,9999,9999,823747672
95,7,9,Ticks_ISO_T2_8,88,9999,9999,9999,824547408
95,7,9,Ticks_ISO_T2_8,89,9999,9999,9999,825347144
95,7,9,Ticks_ISO_T2_8,90,9999,9999,9999,826147920
95,7,9,Ticks_ISO_T2_8,91,9999,9999,9999,826947644
95,7,9,Ticks_ISO_T2_8,92,9999,9999,9999,827747416
95,7,9,Ticks_ISO_T2_8,93,9999,9999,9999,828547152
95,7,9,Ticks_ISO_T2_8,94,9999,9999,9999,829347932
95,7,9,Ticks_ISO_T2_8,95,9999,9999,9999,830147664
95,7,9,Ticks_ISO_T2_8,96,9999,9999,9999,830947400
95,7,9,Ticks_ISO_T2_8,97,9999,9999,9999,831747132
95,7,9,Ticks_ISO_T2_8,98,9999,9999,9999,832547912
95,7,9,Ticks_ISO_T2_8,99,9999,9999,9999,833347648
95,7,9,Ticks_ISO_T2_8,100,9999,9999,9999,834147380
95,7,9,Ticks_ISO_T2_8,101,9999,9999,9999,834947192
95,7,9,Ticks_ISO_T2_8,102,9999,9999,9999,835747896
95,7,9,Ticks_ISO_T2_8,103,9999,9999,9999,836547632
95,7,9,Ticks_ISO_T2_8,104,9999,9999,9999,837347440
95,7,9,Ticks_ISO_T2_8,105,9999,9999,9999,838147172
95,7,9,Ticks_ISO_T2_8,106,9999,9999,9999,838947956
95,7,9,Ticks_ISO_T2_8,107,9999,9999,9999,839747688
95,7,9,Ticks_ISO_T2_8,108,9999,9999,9999,840547408
95,7,9,Ticks_ISO_T2_8,109,9999,9999,9999,841347156
95,7,9,Ticks_ISO_T2_8,110,9999,9999,9999,842147936
95,7,9,Ticks_ISO_T2_8,111,9999,9999,9999,842947672
95,7,9,Ticks_ISO_T2_8,112,9999,9999,9999,843747404
95,7,9,Ticks_ISO_T2_8,113,9999,9999,9999,844547140
95,7,9,Ticks_ISO_T2_8,114,9999,9999,9999,845347920
95,7,9,Ticks_ISO_T2_8,115,9999,9999,9999,846147680
95,7,9,Ticks_ISO_T2_8,116,9999,9999,9999,846947412
95,7,9,Ticks_ISO_T2_8,117,9999,9999,9999,847747152
95,7,9,Ticks_ISO_T2_8,118,9999,9999,9999,848547932
95,7,9,Ticks_ISO_T2_8,119,9999,9999,9999,849347660
95,8,10,Ticks_ISO_T2_5,0,5,42,127,859396380
95,8,10,Ticks_ISO_T2_5,1,5,42,127,859897444
95,8,10,Ticks_ISO_T2_5,2,5,42,127,860396936
95,8,10,Ticks_ISO_T2_5,3,1,48,27,860887560
95,8,10,Ticks_ISO_T2_5,4,5,42,127,860896572
95,8,10,Ticks_ISO_T2_5,5,5,42,127,861397544
95,8,10,Ticks_ISO_T2_5,6,1,48,35,861399108
95,8,10,Ticks_ISO_T2_5,7,5,42,127,861897012
95,8,10,Ticks_ISO_T2_5,8,1,48,35,861900056
95,8,10,Ticks_ISO_T2_5,9,1,48,20,861974980
95,8,10,Ticks_ISO_T2_5,10,5,42,127,862396760
95,8,10,Ticks_ISO_T2_5,11,1,48,40,862411324
95,8,10,Ticks_ISO_T2_5,12,5,42,127,862896380
95,8,10,Ticks_ISO_T2_5,13,1,48,37,862903316
95,8,10,Ticks_ISO_T2_5,14,1,48,22,862965744
95,8,10,Ticks_ISO_T2_5,15,5,42,127,863397472
95,8,10,Ticks_ISO_T2_5,16,1,48,37,863413756
95,8,10,Ticks_ISO_T2_5,17,5,42,127,863896796
95,8,10,Ticks_ISO_T2_5,18,1,48,40,863901336
95,8,10,Ticks_ISO_T2_5,19,1,48,24,863968632
95,8,10,Ticks_ISO_T2_5,20,5,42,127,864396616
95,8,10,Ticks_ISO_T2_5,21,1,48,35,864417916
95,8,10,Ticks_ISO_T2_5,22,5,42,127,864897508
95,8,10,Ticks_ISO_T2_5,23,1,48,34,864912144
95,8,10,Ticks_ISO_T2_5,24,1,48,33,865384748
95,8,10,Ticks_ISO_T2_5,25,5,42,127,865397272
95,8,10,Ticks_ISO_T2_5,26,5,42,127,865896824
95,8,10,Ticks_ISO_T2_5,27,1,48,35,865930760
95,8,10,Ticks_ISO_T2_5,28,1,48,18,866006060
95,8,10,Ticks_ISO_T2_5,29,5,42,127,866396424
95,8,10,Ticks_ISO_T2_5,30,1,48,30,866415544
95,8,10,Ticks_ISO_T2_5,31,1,48,36,866889344
95,8,10,Ticks_ISO_T2_5,32,5,42,127,866897528
95,8,10,Ticks_ISO_T2_5,33,1,48,20,866957412
95,8,10,Ticks_ISO_T2_5,34,1,48,36,867384356
95,8,10,Ticks_ISO_T2_5,35,5,42,127,867396832
95,8,10,Ticks_ISO_T2_5,36,1,48,19,867467480
95,8,10,Ticks_ISO_T2_5,37,1,48,34,867896932
95,8,10,Ticks_ISO_T2_5,38,5,42,127,867898272
95,8,10,Ticks_ISO_T2_5,39,5,42,127,868397600
95,8,10,Ticks_ISO_T2_5,40,1,48,30,868412984
95,8,10,Ticks_ISO_T2_5,41,1,48,29,868888732
95,8,10,Ticks_ISO_T2_5,42,5,42,127,868897288
95,8,10,Ticks_ISO_T2_5,43,5,42,127,869396840
95,8,10,Ticks_ISO_T2_5,44,1,48,27,869401452
95,8,10,Ticks_ISO_T2_5,45,5,42,127,869896536
95,8,10,Ticks_ISO_T2_5,46,1,48,33,869904516
95,8,10,Ticks_ISO_T2_5,47,5,42,127,870397572
95,8,10,Ticks_ISO_T2_5,48,1,48,26,870433156
95,8,10,Ticks_ISO_T2_5,49,5,42,127,870896968
95,8,10,Ticks_ISO_T2_5,50,1,48,29,870938380
95,8,10,Ticks_ISO_T2_5,51,5,42,127,871396588
95,8,10,Ticks_ISO_T2_5,52,1,48,16,871466796
95,8,10,Ticks_ISO_T2_5,53,5,42,127,871896284
95,8,10,Ticks_ISO_T2_5,54,1,48,27,871987292
95,8,10,Ticks_ISO_T2_5,55,5,42,127,872397324
95,8,10,Ticks_ISO_T2_5,56,1,48,20,872497604
95,8,10,Ticks_ISO_T2_5,57,5,42,127,872897016
95,8,10,Ticks_ISO_T2_5,58,1,48,23,872965804
95,8,10,Ticks_ISO_T2_5,59,5,42,127,873396488
95,8,10,Ticks_ISO_T2_5,60,1,48,23,873447480
95,8,10,Ticks_ISO_T2_5,61,5,42,127,873897376
95,8,10,Ticks_ISO_T2_5,62,1,48,38,873953900
95,8,10,Ticks_ISO_T2_5,63,5,42,127,874397220
95,8,10,Ticks_ISO_T2_5,64,1,48,35,874447536
95,8,10,Ticks_ISO_T2_5,65,5,42,127,874896620
95,8,10,Ticks_ISO_T2_5,66,1,48,31,874936612
95,8,10,Ticks_ISO_T2_5,67,5,42,127,875396388
95,8,10,Ticks_ISO_T2_5,68,1,48,29,875420596
95,8,10,Ticks_ISO_T2_5,69,5,42,127,875897280
95,8,10,Ticks_ISO_T2_5,70,1,48,28,875910868
95,8,10,Ticks_ISO_T2_5,71,1,48,29,876387660
95,8,10,Ticks_ISO_T2_5,72,5,42,127,876396820
95,8,10,Ticks_ISO_T2_5,73,1,48,27,876880396
95,8,10,Ticks_ISO_T2_5,74,5,42,127,876896516
95,8,10,Ticks_ISO_T2_5,75,5,42,127,877397264
95,8,10,Ticks_ISO_T2_5,76,1,48,24,877405764
95,8,10,Ticks_ISO_T2_5,77,5,42,127,877897180
95,8,10,Ticks_ISO_T2_5,78,1,48,28,877910768
95,8,10,Ticks_ISO_T2_5,79,1,48,40,878383868
95,8,10,Ticks_ISO_T2_5,80,5,42,127,878396844
95,8,10,Ticks_ISO_T2_5,81,1,48,20,878468036
95,8,10,Ticks_ISO_T2_5,82,1,48,37,878885036
95,8,10,Ticks_ISO_T2_5,83,5,42,127,878896516
95,8,10,Ticks_ISO_T2_5,84,1,48,38,879357432
95,8,10,Ticks_ISO_T2_5,85,5,42,127,879397184
95,8,10,Ticks_ISO_T2_5,86,1,48,34,879856904
95,8,10,Ticks_ISO_T2_5,87,5,42,127,879897024
95,8,10,Ticks_ISO_T2_5,88,1,48,24,880363700
95,8,10,Ticks_ISO_T2_5,89,5,42,127,880396720
95,8,10,Ticks_ISO_T2_5,90,1,48,33,880890768
95,8,10,Ticks_ISO_T2_5,91,5,42,127,880897312
95,8,10,Ticks_ISO_T2_5,92,1,48,39,881383808
95,8,10,Ticks_ISO_T2_5,93,5,42,127,881397156
95,8,10,Ticks_ISO_T2_5,94,1,48,21,881459648
95,8,10,Ticks_ISO_T2_5,95,1,48,41,881876372
95,8,10,Ticks_ISO_T2_5,96,5,42,127,881896904
95,8,10,Ticks_ISO_T2_5,97,1,48,22,881954012
95,8,10,Ticks_ISO_T2_5,98,1,48,35,882375000
95,8,10,Ticks_ISO_T2_5,99,5,42,127,882396500
95,8,10,Ticks_ISO_T2_5,100,1,48,37,882874620
95,8,10,Ticks_ISO_T2_5,101,5,42,127,882897240
95,8,10,Ticks_ISO_T2_5,102,1,48,21,882945300
95,8,10,Ticks_ISO_T2_5,103,1,48,29,883373248
95,8,10,Ticks_ISO_T2_5,104,5,42,127,883396916
95,8,10,Ticks_ISO_T2_5,105,5,42,127,883896544
95,8,10,Ticks_ISO_T2_5,106,1,48,32,883904448
95,8,10,Ticks_ISO_T2_5,107,5,42,127,884397436
95,8,10,Ticks_ISO_T2_5,108,1,48,33,884400404
95,8,10,Ticks_ISO_T2_5,109,1,48,33,884888408
95,8,10,Ticks_ISO_T2_5,110,5,42,127,884897344
95,8,10,Ticks_ISO_T2_5,111,1,48,38,885387132
95,8,10,Ticks_ISO_T2_5,112,5,42,127,885396744
95,8,10,Ticks_ISO_T2_5,113,1,48,29,885896820
95,8,10,Ticks_ISO_T2_5,114,5,42,127,885898156
95,8,10,Ticks_ISO_T2_5,115,5,42,127,886397412
95,8,10,Ticks_ISO_T2_5,116,1,48,28,886427084
95,8,10,Ticks_ISO_T2_5,117,5,42,127,886897032
95,8,10,Ticks_ISO_T2_5,118,1,48,27,886911224
95,8,10,Ticks_ISO_T2_5,119,1,48,35,887396952
95,8,10,Ticks_ISO_T2_5,120,5,42,127,887398288
95,8,10,Ticks_ISO_T2_5,121,5,42,127,887896424
95,8,10,Ticks_ISO_T2_5,122,1,48,33,887910160
95,8,10,Ticks_ISO_T2_5,123,5,42,127,888397164
95,8,10,Ticks_ISO_T2_5,124,1,48,34,888405440
95,8,10,Ticks_ISO_T2_5,125,5,42,127,888897008
95,8,10,Ticks_ISO_T2_5,126,1,48,29,888915684
95,8,10,Ticks_ISO_T2_5,127,5,42,127,889396604
95,8,10,Ticks_ISO_T2_5,128,1,48,32,889400844
95,8,10,Ticks_ISO_T2_5,129,1,48,35,889887356
95,8,10,Ticks_ISO_T2_5,130,5,42,127,889897336
95,8,10,Ticks_ISO_T2_5,131,5,42,127,890397040
95,8,10,Ticks_ISO_T2_5,132,1,48,35,890398452
95,8,10,Ticks_ISO_T2_5,133,5,42,127,890896660
95,8,10,Ticks_ISO_T2_5,134,1,48,28,890900752
95,8,10,Ticks_ISO_T2_5,135,1,48,33,891393916
95,8,10,Ticks_ISO_T2_5,136,5,42,127,891396420
95,8,10,Ticks_ISO_T2_5,137,1,48,29,891896488
95,8,10,Ticks_ISO_T2_5,138,5,42,127,891897912
95,8,10,Ticks_ISO_T2_5,139,1,48,36,892345132
95,8,10,Ticks_ISO_T2_5,140,5,42,127,892396856
95,8,10,Ticks_ISO_T2_5,141,1,48,26,892891356
95,8,10,Ticks_ISO_T2_5,142,5,42,127,892896552
95,8,10,Ticks_ISO_T2_5,143,5,42,127,893397300
95,8,10,Ticks_ISO_T2_5,144,1,48,21,893415452
95,8,10,Ticks_ISO_T2_5,145,1,48,33,893875560
95,8,10,Ticks_ISO_T2_5,146,5,42,127,893897212
95,8,10,Ticks_ISO_T2_5,147,1,48,29,894391712
95,8,10,Ticks_ISO_T2_5,148,5,42,127,894396756
95,8,10,Ticks_ISO_T2_5,149,1,48,31,894878092
95,8,10,Ticks_ISO_T2_5,150,5,42,127,894896452
95,8,10,Ticks_ISO_T2_5,151,1,48,32,895394760
95,8,10,Ticks_ISO_T2_5,152,5,42,127,895397268
95,8,10,Ticks_ISO_T2_5,153,5,42,127,895896968
95,8,10,Ticks_ISO_T2_5,154,1,48,35,895901508
95,8,10,Ticks_ISO_T2_5,155,1,48,42,896353540
95,8,10,Ticks_ISO_T2_5,156,5,42,127,896396656
95,8,10,Ticks_ISO_T2_5,157,1,48,26,896866476
95,8,10,Ticks_ISO_T2_5,158,5,42,127,896897472
95,8,10,Ticks_ISO_T2_5,159,1,48,27,897362800
95,8,10,Ticks_ISO_T2_5,160,5,42,127,897397168
95,8,10,Ticks_ISO_T2_5,161,1,48,29,897875360
95,8,10,Ticks_ISO_T2_5,162,5,42,127,897896860
95,8,10,Ticks_ISO_T2_5,163,5,42,127,898396564
95,8,10,Ticks_ISO_T2_5,164,1,48,27,898397528
95,8,10,Ticks_ISO_T2_5,165,1,48,34,898877792
95,8,10,Ticks_ISO_T2_5,166,5,42,127,898897220
95,8,10,Ticks_ISO_T2_5,167,1,48,38,899390820
95,8,10,Ticks_ISO_T2_5,168,5,42,127,899397132
95,8,10,Ticks_ISO_T2_5,169,5,42,127,899896660
95,8,10,Ticks_ISO_T2_5,170,1,48,25,899918352
95,8,10,Ticks_ISO_T2_5,171,1,48,29,900388532
95,8,10,Ticks_ISO_T2_5,172,5,42,127,900397468
95,8,10,Ticks_ISO_T2_5,173,1,48,35,900873272
95,8,10,Ticks_ISO_T2_5,174,5,42,127,900897312
95,8,10,Ticks_ISO_T2_5,175,1,48,31,901380224
95,8,10,Ticks_ISO_T2_5,176,5,42,127,901397084
95,8,10,Ticks_ISO_T2_5,177,1,48,28,901874080
95,8,10,Ticks_ISO_T2_5,178,5,42,127,901896552
95,8,10,Ticks_ISO_T2_5,179,5,42,127,902397228
95,8,10,Ticks_ISO_T2_5,180,1,48,30,902400348
95,8,10,Ticks_ISO_T2_5,181,1,48,33,902876156
95,8,10,Ticks_ISO_T2_5,182,5,42,127,902897284
95,8,10,Ticks_ISO_T2_5,183,1,48,40,903363740
95,8,10,Ticks_ISO_T2_5,184,5,42,127,903396684
95,8,10,Ticks_ISO_T2_5,185,1,48,29,903877568
95,8,10,Ticks_ISO_T2_5,186,5,42,127,903896380
95,8,10,Ticks_ISO_T2_5,187,1,48,27,904366496
95,8,10,Ticks_ISO_T2_5,188,5,42,127,904397268
95,8,10,Ticks_ISO_T2_5,189,1,48,33,904856312
95,8,10,Ticks_ISO_T2_5,190,5,42,127,904897040
95,8,10,Ticks_ISO_T2_5,191,1,48,34,905344860
95,8,10,Ticks_ISO_T2_5,192,5,42,127,905396584
95,8,10,Ticks_ISO_T2_5,193,1,48,33,905849196
95,8,10,Ticks_ISO_T2_5,194,5,42,127,905897252
95,8,10,Ticks_ISO_T2_5,195,1,48,34,906365124
95,8,10,Ticks_ISO_T2_5,196,5,42,127,906397172
95,8,10,Ticks_ISO_T2_5,197,1,48,27,906886364
95,8,10,Ticks_ISO_T2_5,198,5,42,127,906897088
95,8,10,Ticks_ISO_T2_5,199,1,48,42,907359876
95,8,10,Ticks_ISO_T2_5,200,5,42,127,907396340
95,8,10,Ticks_ISO_T2_5,201,1,48,29,907872060
95,8,10,Ticks_ISO_T2_5,202,5,42,127,907897304
95,8,10,Ticks_ISO_T2_5,203,1,48,33,908364200
95,8,10,Ticks_ISO_T2_5,204,5,42,127,908397292
95,8,10,Ticks_ISO_T2_5,205,1,48,31,908847940
95,8,10,Ticks_ISO_T2_5,206,5,42,127,908896468
95,8,10,Ticks_ISO_T2_5,207,1,48,31,909388648
95,8,10,Ticks_ISO_T2_5,208,5,42,127,909397212
95,8,10,Ticks_ISO_T2_5,209,1,48,36,909879864
95,8,10,Ticks_ISO_T2_5,210,5,42,127,909897276
95,8,10,Ticks_ISO_T2_5,211,1,48,23,910396048
95,8,10,Ticks_ISO_T2_5,212,5,42,127,910397624
95,8,10,Ticks_ISO_T2_5,213,1,48,29,910889772
95,8,10,Ticks_ISO_T2_5,214,5,42,127,910896544
95,8,10,Ticks_ISO_T2_5,215,1,48,36,911394704
95,8,10,Ticks_ISO_T2_5,216,5,42,127,911397208
95,8,10,Ticks_ISO_T2_5,217,1,48,31,911875476
95,8,10,Ticks_ISO_T2_5,218,5,42,127,911897200
95,8,10,Ticks_ISO_T2_5,219,5,42,127,912396756
95,8,10,Ticks_ISO_T2_5,220,1,48,16,912420516
95,8,10,Ticks_ISO_T2_5,221,1,48,29,912865816
95,8,10,Ticks_ISO_T2_5,222,5,42,127,912897488
95,8,10,Ticks_ISO_T2_5,223,1,48,29,913393556
95,8,10,Ticks_ISO_T2_5,224,5,42,127,913397260
95,8,10,Ticks_ISO_T2_5,225,5,42,127,913896736
95,8,10,Ticks_ISO_T2_5,226,1,48,34,913900076
95,8,10,Ticks_ISO_T2_5,227,1,48,37,914390032
95,8,10,Ticks_ISO_T2_5,228,5,42,127,914396424
95,8,10,Ticks_ISO_T2_5,229,5,42,127,914897248
95,8,10,Ticks_ISO_T2_5,230,1,48,35,914915244
95,8,10,Ticks_ISO_T2_5,231,1,48,31,915369820
95,8,10,Ticks_ISO_T2_5,232,5,42,127,915397084
95,8,10,Ticks_ISO_T2_5,233,1,48,29,915893076
95,8,10,Ticks_ISO_T2_5,234,5,42,127,915896704
95,8,10,Ticks_ISO_T2_5,235,1,48,26,916396320
95,8,10,Ticks_ISO_T2_5,236,5,42,127,916397892
95,8,10,Ticks_ISO_T2_5,237,5,42,127,916896996
95,8,10,Ticks_ISO_T2_5,238,1,48,35,916904900
95,8,10,Ticks_ISO_T2_5,239,1,48,30,917367404
95,8,10,Ticks_ISO_T2_5,240,5,42,127,917396908
95,8,10,Ticks_ISO_T2_5,241,1,48,28,917837404
95,8,10,Ticks_ISO_T2_5,242,5,42,127,917896532
95,8,10,Ticks_ISO_T2_5,243,1,48,23,918385792
95,8,10,Ticks_ISO_T2_5,244,5,42,127,918397196
95,8,10,Ticks_ISO_T2_5,245,5,42,127,918897120
95,8,10,Ticks_ISO_T2_5,246,1,48,21,918900688
95,8,10,Ticks_ISO_T2_5,247,5,42,127,919396816
95,8,10,Ticks_ISO_T2_5,248,1,48,22,919419680
95,8,10,Ticks_ISO_T2_5,249,1,48,30,919872460
95,8,10,Ticks_ISO_T2_5,250,5,42,127,919896360
95,8,10,Ticks_ISO_T2_5,251,5,42,127,920397032
95,8,10,Ticks_ISO_T2_5,252,1,48,31,920400000
95,8,10,Ticks_ISO_T2_5,253,5,42,127,920896800
95,8,10,Ticks_ISO_T2_5,254,1,48,24,920898812
95,8,10,Ticks_ISO_T2_5,255,1,48,30,921377808
95,8,10,Ticks_ISO_T2_5,256,5,42,127,921396540
95,8,10,Ticks_ISO_T2_5,257,1,48,35,921881532
95,8,10,Ticks_ISO_T2_5,258,5,42,127,921897204
95,8,10,Ticks_ISO_T2_5,259,1,48,31,922393344
95,8,10,Ticks_ISO_T2_5,260,5,42,127,922396972
95,8,10,Ticks_ISO_T2_5,261,1,48,29,922889148
95,8,10,Ticks_ISO_T2_5,262,5,42,127,922896816
95,8,10,Ticks_ISO_T2_5,263,1,48,35,923391760
95,8,10,Ticks_ISO_T2_5,264,5,42,127,923396584
95,8,10,Ticks_ISO_T2_5,265,1,48,30,923862884
95,8,10,Ticks_ISO_T2_5,266,5,42,127,923897104
95,8,10,Ticks_ISO_T2_5,0,9999,9999,9999,859394164
95,8,10,Ticks_ISO_T2_5,1,9999,9999,9999,859894856
95,8,10,Ticks_ISO_T2_5,2,9999,9999,9999,860394572
95,8,10,Ticks_ISO_T2_5,3,9999,9999,9999,860894284
95,8,10,Ticks_ISO_T2_5,4,9999,9999,9999,861395032
95,8,10,Ticks_ISO_T2_5,5,9999,9999,9999,861894724
95,8,10,Ticks_ISO_T2_5,6,9999,9999,9999,862394472
95,8,10,Ticks_ISO_T2_5,7,9999,9999,9999,862894164
95,8,10,Ticks_ISO_T2_5,8,9999,9999,9999,863394884
95,8,10,Ticks_ISO_T2_5,9,9999,9999,9999,863894584
95,8,10,Ticks_ISO_T2_5,10,9999,9999,9999,864394328
95,8,10,Ticks_ISO_T2_5,11,9999,9999,9999,864895072
95,8,10,Ticks_ISO_T2_5,12,9999,9999,9999,865394760
95,8,10,Ticks_ISO_T2_5,13,9999,9999,9999,865894460
95,8,10,Ticks_ISO_T2_5,14,9999,9999,9999,866394208
95,8,10,Ticks_ISO_T2_5,15,9999,9999,9999,866894944
95,8,10,Ticks_ISO_T2_5,16,9999,9999,9999,867394616
95,8,10,Ticks_ISO_T2_5,17,9999,9999,9999,867894348
95,8,10,Ticks_ISO_T2_5,18,9999,9999,9999,868395088
95,8,10,Ticks_ISO_T2_5,19,9999,9999,9999,868894776
95,8,10,Ticks_ISO_T2_5,20,9999,9999,9999,869394552
95,8,10,Ticks_ISO_T2_5,21,9999,9999,9999,869894244
95,8,10,Ticks_ISO_T2_5,22,9999,9999,9999,870394988
95,8,10,Ticks_ISO_T2_5,23,9999,9999,9999,870894680
95,8,10,Ticks_ISO_T2_5,24,9999,9999,9999,871394376
95,8,10,Ticks_ISO_T2_5,25,9999,9999,9999,871894068
95,8,10,Ticks_ISO_T2_5,26,9999,9999,9999,872394812
95,8,10,Ticks_ISO_T2_5,27,9999,9999,9999,872894580
95,8,10,Ticks_ISO_T2_5,28,9999,9999,9999,873394276
95,8,10,Ticks_ISO_T2_5,29,9999,9999,9999,873895012
95,8,10,Ticks_ISO_T2_5,30,9999,9999,9999,874394708
95,8,10,Ticks_ISO_T2_5,31,9999,9999,9999,874894404
95,8,10,Ticks_ISO_T2_5,32,9999,9999,9999,875394100
95,8,10,Ticks_ISO_T2_5,33,9999,9999,9999,875894840
95,8,10,Ticks_ISO_T2_5,34,9999,9999,9999,876394604
95,8,10,Ticks_ISO_T2_5,35,9999,9999,9999,876894300
95,8,10,Ticks_ISO_T2_5,36,9999,9999,9999,877395048
95,8,10,Ticks_ISO_T2_5,37,9999,9999,9999,877894744
95,8,10,Ticks_ISO_T2_5,38,9999,9999,9999,878394480
95,8,10,Ticks_ISO_T2_5,39,9999,9999,9999,878894152
95,8,10,Ticks_ISO_T2_5,40,9999,9999,9999,879394892
95,8,10,Ticks_ISO_T2_5,41,9999,9999,9999,879894588
95,8,10,Ticks_ISO_T2_5,42,9999,9999,9999,880394356
95,8,10,Ticks_ISO_T2_5,43,9999,9999,9999,880895024
95,8,10,Ticks_ISO_T2_5,44,9999,9999,9999,881394796
95,8,10,Ticks_ISO_T2_5,45,9999,9999,9999,881894464
95,8,10,Ticks_ISO_T2_5,46,9999,9999,9999,882394212
95,8,10,Ticks_ISO_T2_5,47,9999,9999,9999,882894952
95,8,10,Ticks_ISO_T2_5,48,9999,9999,9999,883394628
95,8,10,Ticks_ISO_T2_5,49,9999,9999,9999,883894332
95,8,10,Ticks_ISO_T2_5,50,9999,9999,9999,884395072
95,8,10,Ticks_ISO_T2_5,51,9999,9999,9999,884894832
95,8,10,Ticks_ISO_T2_5,52,9999,9999,9999,885394532
95,8,10,Ticks_ISO_T2_5,53,9999,9999,9999,885894232
95,8,10,Ticks_ISO_T2_5,54,9999,9999,9999,886394976
95,8,10,Ticks_ISO_T2_5,55,9999,9999,9999,886894668
95,8,10,Ticks_ISO_T2_5,56,9999,9999,9999,887394364
95,8,10,Ticks_ISO_T2_5,57,9999,9999,9999,887894136
95,8,10,Ticks_ISO_T2_5,58,9999,9999,9999,888394800
95,8,10,Ticks_ISO_T2_5,59,9999,9999,9999,888894568
95,8,10,Ticks_ISO_T2_5,60,9999,9999,9999,889394240
95,8,10,Ticks_ISO_T2_5,61,9999,9999,9999,889894976
95,8,10,Ticks_ISO_T2_5,62,9999,9999,9999,890394676
95,8,10,Ticks_ISO_T2_5,63,9999,9999,9999,890894444
95,8,10,Ticks_ISO_T2_5,64,9999,9999,9999,891394132
95,8,10,Ticks_ISO_T2_5,65,9999,9999,9999,891894880
95,8,10,Ticks_ISO_T2_5,66,9999,9999,9999,892394568
95,8,10,Ticks_ISO_T2_5,67,9999,9999,9999,892894264
95,8,10,Ticks_ISO_T2_5,68,9999,9999,9999,893395012
95,8,10,Ticks_ISO_T2_5,69,9999,9999,9999,893894772
95,8,10,Ticks_ISO_T2_5,70,9999,9999,9999,894394468
95,8,10,Ticks_ISO_T2_5,71,9999,9999,9999,894894164
95,8,10,Ticks_ISO_T2_5,72,9999,9999,9999,895394904
95,8,10,Ticks_ISO_T2_5,73,9999,9999,9999,895894608
95,8,10,Ticks_ISO_T2_5,74,9999,9999,9999,896394292
95,8,10,Ticks_ISO_T2_5,75,9999,9999,9999,896895036
95,8,10,Ticks_ISO_T2_5,76,9999,9999,9999,897394804
95,8,10,Ticks_ISO_T2_5,77,9999,9999,9999,897894500
95,8,10,Ticks_ISO_T2_5,78,9999,9999,9999,898394200
95,8,10,Ticks_ISO_T2_5,79,9999,9999,9999,898894932
95,8,10,Ticks_ISO_T2_5,80,9999,9999,9999,899394620
95,8,10,Ticks_ISO_T2_5,81,9999,9999,9999,899894372
95,8,10,Ticks_ISO_T2_5,82,9999,9999,9999,900395108
95,8,10,Ticks_ISO_T2_5,83,9999,9999,9999,900894800
95,8,10,Ticks_ISO_T2_5,84,9999,9999,9999,901394496
95,8,10,Ticks_ISO_T2_5,85,9999,9999,9999,901894264
95,8,10,Ticks_ISO_T2_5,86,9999,9999,9999,902394940
95,8,10,Ticks_ISO_T2_5,87,9999,9999,9999,902894700
95,8,10,Ticks_ISO_T2_5,88,9999,9999,9999,903394396
95,8,10,Ticks_ISO_T2_5,89,9999,9999,9999,903894088
95,8,10,Ticks_ISO_T2_5,90,9999,9999,9999,904394832
95,8,10,Ticks_ISO_T2_5,91,9999,9999,9999,904894528
95,8,10,Ticks_ISO_T2_5,92,9999,9999,9999,905394296
95,8,10,Ticks_ISO_T2_5,93,9999,9999,9999,905894964
95,8,10,Ticks_ISO_T2_5,94,9999,9999,9999,906394732
95,8,10,Ticks_ISO_T2_5,95,9999,9999,9999,906894428
95,8,10,Ticks_ISO_T2_5,96,9999,9999,9999,907394124
95,8,10,Ticks_ISO_T2_5,97,9999,9999,9999,907894864
95,8,10,Ticks_ISO_T2_5,98,9999,9999,9999,908394560
95,8,10,Ticks_ISO_T2_5,99,9999,9999,9999,908894256
95,8,10,Ticks_ISO_T2_5,100,9999,9999,9999,909394996
95,8,10,Ticks_ISO_T2_5,101,9999,9999,9999,909894764
95,8,10,Ticks_ISO_T2_5,102,9999,9999,9999,910394444
95,8,10,Ticks_ISO_T2_5,103,9999,9999,9999,910894180
95,8,10,Ticks_ISO_T2_5,104,9999,9999,9999,911394920
95,8,10,Ticks_ISO_T2_5,105,9999,9999,9999,911894616
95,8,10,Ticks_ISO_T2_5,106,9999,9999,9999,912394316
95,8,10,Ticks_ISO_T2_5,107,9999,9999,9999,912895052
95,8,10,Ticks_ISO_T2_5,108,9999,9999,9999,913394748
95,8,10,Ticks_ISO_T2_5,109,9999,9999,9999,913894448
95,8,10,Ticks_ISO_T2_5,110,9999,9999,9999,914394208
95,8,10,Ticks_ISO_T2_5,111,9999,9999,9999,914894956
95,8,10,Ticks_ISO_T2_5,112,9999,9999,9999,915394644
95,8,10,Ticks_ISO_T2_5,113,9999,9999,9999,915894340
95,8,10,Ticks_ISO_T2_5,114,9999,9999,9999,916395088
95,8,10,Ticks_ISO_T2_5,115,9999,9999,9999,916894784
95,8,10,Ticks_ISO_T2_5,116,9999,9999,9999,917394548
95,8,10,Ticks_ISO_T2_5,117,9999,9999,9999,917894240
95,8,10,Ticks_ISO_T2_5,118,9999,9999,9999,918394984
95,8,10,Ticks_ISO_T2_5,119,9999,9999,9999,918894684
95,8,10,Ticks_ISO_T2_5,120,9999,9999,9999,919394380
95,8,10,Ticks_ISO_T2_5,121,9999,9999,9999,919894068
95,8,10,Ticks_ISO_T2_5,122,9999,9999,9999,920394816
95,8,10,Ticks_ISO_T2_5,123,9999,9999,9999,920894512
95,8,10,Ticks_ISO_T2_5,124,9999,9999,9999,921394248
95,8,10,Ticks_ISO_T2_5,125,9999,9999,9999,921894988
95,8,10,Ticks_ISO_T2_5,126,9999,9999,9999,922394684
95,8,10,Ticks_ISO_T2_5,127,9999,9999,9999,922894452
95,8,10,Ticks_ISO_T2_5,128,9999,9999,9999,923394148
95,8,10,Ticks_ISO_T2_5,129,9999,9999,9999,923894892
95,9,20,Ticks_Linear_8,0,5,42,127,935044420
95,9,20,Ticks_Linear_8,1,5,42,127,935864684
95,9,20,Ticks_Linear_8,2,5,42,127,936684800
95,9,20,Ticks_Linear_8,3,1,48,20,936725888
95,9,20,Ticks_Linear_8,4,1,48,16,937500420
95,9,20,Ticks_Linear_8,5,5,42,127,937505108
95,9,20,Ticks_Linear_8,6,5,42,127,938325456
95,9,20,Ticks_Linear_8,7,1,48,18,938333900
95,9,20,Ticks_Linear_8,8,1,48,19,939104324
95,9,20,Ticks_Linear_8,9,5,42,127,939135360
95,9,20,Ticks_Linear_8,10,5,42,127,939945200
95,9,20,Ticks_Linear_8,11,1,48,21,939951536
95,9,20,Ticks_Linear_8,12,1,48,18,940748844
95,9,20,Ticks_Linear_8,13,5,42,127,940755176
95,9,20,Ticks_Linear_8,14,1,48,16,941556208
95,9,20,Ticks_Linear_8,15,5,42,127,941565308
95,9,20,Ticks_Linear_8,16,5,42,127,942375224
95,9,20,Ticks_Linear_8,17,1,48,16,942386808
95,9,20,Ticks_Linear_8,18,5,42,127,943174900
95,9,20,Ticks_Linear_8,19,1,48,22,943176764
95,9,20,Ticks_Linear_8,20,1,48,19,943941168
95,9,20,Ticks_Linear_8,21,5,42,127,943974988
95,9,20,Ticks_Linear_8,22,1,48,16,944763888
95,9,20,Ticks_Linear_8,23,5,42,127,944774712
95,9,20,Ticks_Linear_8,24,5,42,127,945575192
95,9,20,Ticks_Linear_8,25,1,48,14,945609836
95,9,20,Ticks_Linear_8,26,5,42,127,946375136
95,9,20,Ticks_Linear_8,27,1,48,19,946431648
95,9,20,Ticks_Linear_8,28,5,42,127,947164752
95,9,20,Ticks_Linear_8,29,1,48,19,947192280
95,9,20,Ticks_Linear_8,30,5,42,127,947954968
95,9,20,Ticks_Linear_8,31,5,42,127,948744528
95,9,20,Ticks_Linear_8,32,1,48,20,948765096
95,9,20,Ticks_Linear_8,33,1,48,14,949527128
95,9,20,Ticks_Linear_8,34,5,42,127,949535104
95,9,20,Ticks_Linear_8,35,1,48,19,950311640
95,9,20,Ticks_Linear_8,36,5,42,127,950324720
95,9,20,Ticks_Linear_8,37,5,42,127,951104932
95,9,20,Ticks_Linear_8,38,5,42,127,951885280
95,9,20,Ticks_Linear_8,39,1,48,20,951930040
95,9,20,Ticks_Linear_8,40,5,42,127,952664636
95,9,20,Ticks_Linear_8,41,1,48,24,952674500
95,9,20,Ticks_Linear_8,42,1,48,20,953432192
95,9,20,Ticks_Linear_8,43,5,42,127,953444656
95,9,20,Ticks_Linear_8,44,1,48,19,954213864
95,9,20,Ticks_Linear_8,45,5,42,127,954224984
95,9,20,Ticks_Linear_8,46,5,42,127,954994988
95,9,20,Ticks_Linear_8,47,1,48,18,954997728
95,9,20,Ticks_Linear_8,48,1,48,20,955747856
95,9,20,Ticks_Linear_8,49,5,42,127,955765048
95,9,20,Ticks_Linear_8,50,1,48,22,956535192
95,9,20,Ticks_Linear_8,51,5,42,127,956536680
95,9,20,Ticks_Linear_8,52,5,42,127,957305188
95,9,20,Ticks_Linear_8,53,1,48,26,957314676
95,9,20,Ticks_Linear_8,54,1,48,24,958075180
95,9,20,Ticks_Linear_8,55,5,42,127,958076668
95,9,20,Ticks_Linear_8,56,5,42,127,958835136
95,9,20,Ticks_Linear_8,57,1,48,13,958873984
95,9,20,Ticks_Linear_8,58,1,48,23,959584044
95,9,20,Ticks_Linear_8,59,5,42,127,959594868
95,9,20,Ticks_Linear_8,60,5,42,127,960354680
95,9,20,Ticks_Linear_8,61,1,48,19,960393900
95,9,20,Ticks_Linear_8,62,1,48,25,961094004
95,9,20,Ticks_Linear_8,63,5,42,127,961114784
95,9,20,Ticks_Linear_8,64,1,48,21,961833640
95,9,20,Ticks_Linear_8,65,5,42,127,961875416
95,9,20,Ticks_Linear_8,66,1,48,21,962606332
95,9,20,Ticks_Linear_8,67,5,42,127,962624964
95,9,20,Ticks_Linear_8,68,5,42,127,963374720
95,9,20,Ticks_Linear_8,69,1,48,18,963408792
95,9,20,Ticks_Linear_8,70,5,42,127,964124944
95,9,20,Ticks_Linear_8,71,1,48,18,964125912
95,9,20,Ticks_Linear_8,72,5,42,127,964874792
95,9,20,Ticks_Linear_8,73,1,48,19,964883156
95,9,20,Ticks_Linear_8,74,5,42,127,965625388
95,9,20,Ticks_Linear_8,75,1,48,21,965629480
95,9,20,Ticks_Linear_8,76,5,42,127,966364752
95,9,20,Ticks_Linear_8,77,1,48,14,966426740
95,9,20,Ticks_Linear_8,78,5,42,127,967104792
95,9,20,Ticks_Linear_8,79,1,48,21,967111052
95,9,20,Ticks_Linear_8,80,1,48,20,967826736
95,9,20,Ticks_Linear_8,81,5,42,127,967845196
95,9,20,Ticks_Linear_8,82,5,42,127,968584568
95,9,20,Ticks_Linear_8,83,1,48,25,969317616
95,9,20,Ticks_Linear_8,84,5,42,127,969325068
95,9,20,Ticks_Linear_8,85,1,48,26,970052812
95,9,20,Ticks_Linear_8,86,5,42,127,970054924
95,9,20,Ticks_Linear_8,87,5,42,127,970785132
95,9,20,Ticks_Linear_8,88,1,48,26,970789976
95,9,20,Ticks_Linear_8,89,5,42,127,971515212
95,9,20,Ticks_Linear_8,90,1,48,16,971525524
95,9,20,Ticks_Linear_8,91,1,48,22,972232500
95,9,20,Ticks_Linear_8,92,5,42,127,972245504
95,9,20,Ticks_Linear_8,93,5,42,127,972974396
95,9,20,Ticks_Linear_8,94,1,48,24,972993468
95,9,20,Ticks_Linear_8,95,1,48,25,973680380
95,9,20,Ticks_Linear_8,96,5,42,127,973695476
95,9,20,Ticks_Linear_8,97,1,48,21,974404776
95,9,20,Ticks_Linear_8,98,5,42,127,974415520
95,9,20,Ticks_Linear_8,99,1,48,27,975106892
95,9,20,Ticks_Linear_8,100,5,42,127,975135092
95,9,20,Ticks_Linear_8,101,5,42,127,975854916
95,9,20,Ticks_Linear_8,102,1,48,20,975885748
95,9,20,Ticks_Linear_8,103,1,48,22,976557836
95,9,20,Ticks_Linear_8,104,5,42,127,976574804
95,9,20,Ticks_Linear_8,105,1,48,25,977254596
95,9,20,Ticks_Linear_8,106,5,42,127,977284512
95,9,20,Ticks_Linear_8,107,5,42,127,977995200
95,9,20,Ticks_Linear_8,108,1,48,16,977997796
95,9,20,Ticks_Linear_8,109,5,42,127,978704812
95,9,20,Ticks_Linear_8,110,1,48,22,978727404
95,9,20,Ticks_Linear_8,111,1,48,23,979401212
95,9,20,Ticks_Linear_8,112,5,42,127,979415636
95,9,20,Ticks_Linear_8,113,1,48,21,980103068
95,9,20,Ticks_Linear_8,114,5,42,127,980125048
95,9,20,Ticks_Linear_8,115,1,48,25,980799668
95,9,20,Ticks_Linear_8,116,5,42,127,980824572
95,9,20,Ticks_Linear_8,117,1,48,23,981497900
95,9,20,Ticks_Linear_8,118,5,42,127,981524748
95,9,20,Ticks_Linear_8,119,1,48,24,982176980
95,9,20,Ticks_Linear_8,120,5,42,127,982225392
95,9,20,Ticks_Linear_8,121,5,42,127,982924772
95,9,20,Ticks_Linear_8,122,1,48,18,982941292
95,9,20,Ticks_Linear_8,123,5,42,127,983625124
95,9,20,Ticks_Linear_8,124,5,42,127,984315356
95,9,20,Ticks_Linear_8,125,1,48,29,984343944
95,9,20,Ticks_Linear_8,126,5,42,127,985005372
95,9,20,Ticks_Linear_8,127,1,48,21,985050424
95,9,20,Ticks_Linear_8,128,5,42,127,985704892
95,9,20,Ticks_Linear_8,129,1,48,28,985741636
95,9,20,Ticks_Linear_8,130,5,42,127,986394884
95,9,20,Ticks_Linear_8,131,1,48,27,986405492
95,9,20,Ticks_Linear_8,132,5,42,127,987085272
95,9,20,Ticks_Linear_8,133,1,48,20,987141260
95,9,20,Ticks_Linear_8,134,5,42,127,987765248
95,9,20,Ticks_Linear_8,135,1,48,27,987790980
95,9,20,Ticks_Linear_8,136,5,42,127,988445128
95,9,20,Ticks_Linear_8,137,1,48,24,988484076
95,9,20,Ticks_Linear_8,138,1,48,24,989117648
95,9,20,Ticks_Linear_8,139,5,42,127,989125024
95,9,20,Ticks_Linear_8,140,5,42,127,989804788
95,9,20,Ticks_Linear_8,141,1,48,24,989838536
95,9,20,Ticks_Linear_8,142,1,48,21,990471212
95,9,20,Ticks_Linear_8,143,5,42,127,990484736
95,9,20,Ticks_Linear_8,144,5,42,127,991154464
95,9,20,Ticks_Linear_8,145,1,48,26,991174960
95,9,20,Ticks_Linear_8,146,1,48,29,991799692
95,9,20,Ticks_Linear_8,147,5,42,127,991825444
95,9,20,Ticks_Linear_8,148,1,48,25,992473832
95,9,20,Ticks_Linear_8,149,5,42,127,992494840
95,9,20,Ticks_Linear_8,150,1,48,26,993141448
95,9,20,Ticks_Linear_8,151,5,42,127,993164560
95,9,20,Ticks_Linear_8,152,1,48,27,993809944
95,9,20,Ticks_Linear_8,153,5,42,127,993835304
95,9,20,Ticks_Linear_8,154,1,48,26,994471652
95,9,20,Ticks_Linear_8,155,5,42,127,994494764
95,9,20,Ticks_Linear_8,156,5,42,127,995155352
95,9,20,Ticks_Linear_8,157,1,48,26,995165368
95,9,20,Ticks_Linear_8,158,1,48,18,995810396
95,9,20,Ticks_Linear_8,159,5,42,127,995814708
95,9,20,Ticks_Linear_8,160,5,42,127,996475368
95,9,20,Ticks_Linear_8,161,1,48,25,996501248
95,9,20,Ticks_Linear_8,162,1,48,22,997090496
95,9,20,Ticks_Linear_8,163,5,42,127,997134576
95,9,20,Ticks_Linear_8,164,5,42,127,997784828
95,9,20,Ticks_Linear_8,165,1,48,17,997798504
95,9,20,Ticks_Linear_8,166,1,48,25,998406776
95,9,20,Ticks_Linear_8,167,5,42,127,998435272
95,9,20,Ticks_Linear_8,168,5,42,127,999085376
95,9,20,Ticks_Linear_8,169,1,48,19,999107368
95,9,20,Ticks_Linear_8,170,5,42,127,999744760
95,9,20,Ticks_Linear_8,171,1,48,17,999787048
95,9,20,Ticks_Linear_8,172,5,42,127,1000395284
95,9,20,Ticks_Linear_8,173,1,48,22,1000440864
95,9,20,Ticks_Linear_8,174,5,42,127,1001035272
95,9,20,Ticks_Linear_8,175,1,48,24,1001050152
95,9,20,Ticks_Linear_8,176,5,42,127,1001675236
95,9,20,Ticks_Linear_8,177,1,48,20,1001691384
95,9,20,Ticks_Linear_8,178,5,42,127,1002315300
95,9,20,Ticks_Linear_8,179,1,48,20,1002341104
95,9,20,Ticks_Linear_8,180,1,48,25,1002950344
95,9,20,Ticks_Linear_8,181,5,42,127,1002955404
95,9,20,Ticks_Linear_8,182,1,48,23,1003577280
95,9,20,Ticks_Linear_8,183,5,42,127,1003595172
95,9,20,Ticks_Linear_8,184,1,48,23,1004201316
95,9,20,Ticks_Linear_8,185,5,42,127,1004225024
95,9,20,Ticks_Linear_8,186,5,42,127,1004854512
95,9,20,Ticks_Linear_8,187,1,48,26,1004901984
95,9,20,Ticks_Linear_8,188,1,48,20,1005482464
95,9,20,Ticks_Linear_8,189,5,42,127,1005485580
95,9,20,Ticks_Linear_8,190,5,42,127,1006125328
95,9,20,Ticks_Linear_8,191,1,48,20,1006136236
95,9,20,Ticks_Linear_8,192,5,42,127,1006765392
95,9,20,Ticks_Linear_8,193,1,48,20,1006792856
95,9,20,Ticks_Linear_8,194,5,42,127,1007395320
95,9,20,Ticks_Linear_8,195,1,48,22,1007423332
95,9,20,Ticks_Linear_8,196,1,48,27,1007996844
95,9,20,Ticks_Linear_8,197,5,42,127,1008014636
95,9,20,Ticks_Linear_8,198,1,48,26,1008631412
95,9,20,Ticks_Linear_8,199,5,42,127,1008635204
95,9,20,Ticks_Linear_8,200,5,42,127,1009254752
95,9,20,Ticks_Linear_8,201,1,48,26,1009263796
95,9,20,Ticks_Linear_8,202,5,42,127,1009875396
95,9,20,Ticks_Linear_8,203,1,48,22,1009891316
95,9,20,Ticks_Linear_8,204,5,42,127,1010484660
95,9,20,Ticks_Linear_8,205,1,48,22,1010502704
95,9,20,Ticks_Linear_8,206,5,42,127,1011094848
95,9,20,Ticks_Linear_8,207,1,48,19,1011134816
95,9,20,Ticks_Linear_8,208,5,42,127,1011705152
95,9,20,Ticks_Linear_8,209,1,48,22,1011736812
95,9,20,Ticks_Linear_8,210,5,42,127,1012314364
95,9,20,Ticks_Linear_8,211,1,48,19,1012315776
95,9,20,Ticks_Linear_8,212,1,48,23,1012903884
95,9,20,Ticks_Linear_8,213,5,42,127,1012924820
95,9,20,Ticks_Linear_8,214,1,48,24,1013511864
95,9,20,Ticks_Linear_8,215,5,42,127,1013524792
95,9,20,Ticks_Linear_8,216,5,42,127,1014125024
95,9,20,Ticks_Linear_8,217,1,48,19,1014129116
95,9,20,Ticks_Linear_8,218,1,48,20,1014710492
95,9,20,Ticks_Linear_8,219,5,42,127,1014725360
95,9,20,Ticks_Linear_8,220,1,48,24,1015294668
95,9,20,Ticks_Linear_8,221,5,42,127,1015325188
95,9,20,Ticks_Linear_8,222,1,48,20,1015910988
95,9,20,Ticks_Linear_8,223,5,42,127,1015925412
95,9,20,Ticks_Linear_8,224,1,48,17,1016513932
95,9,20,Ticks_Linear_8,225,5,42,127,1016515496
95,9,20,Ticks_Linear_8,226,1,48,24,1017067732
95,9,20,Ticks_Linear_8,227,5,42,127,1017104692
95,9,20,Ticks_Linear_8,228,1,48,19,1017667208
95,9,20,Ticks_Linear_8,229,5,42,127,1017694580
95,9,20,Ticks_Linear_8,230,1,48,19,1018264640
95,9,20,Ticks_Linear_8,231,5,42,127,1018285420
95,9,20,Ticks_Linear_8,232,1,48,18,1018851872
95,9,20,Ticks_Linear_8,233,5,42,127,1018884572
95,9,20,Ticks_Linear_8,234,1,48,21,1019434260
95,9,20,Ticks_Linear_8,235,5,42,127,1019465100
95,9,20,Ticks_Linear_8,236,5,42,127,1020044636
95,9,20,Ticks_Linear_8,237,1,48,22,1020050896
95,9,20,Ticks_Linear_8,238,1,48,24,1020610708
95,9,20,Ticks_Linear_8,239,5,42,127,1020625280
95,9,20,Ticks_Linear_8,240,1,48,29,1021172184
95,9,20,Ticks_Linear_8,241,5,42,127,1021205032
95,9,20,Ticks_Linear_8,242,1,48,18,1021756088
95,9,20,Ticks_Linear_8,243,5,42,127,1021784440
95,9,20,Ticks_Linear_8,244,1,48,21,1022325364
95,9,20,Ticks_Linear_8,245,5,42,127,1022355208
95,9,20,Ticks_Linear_8,246,1,48,22,1022873440
95,9,20,Ticks_Linear_8,247,5,42,127,1022925228
95,9,20,Ticks_Linear_8,248,1,48,16,1023490112
95,9,20,Ticks_Linear_8,249,5,42,127,1023494424
95,9,20,Ticks_Linear_8,250,1,48,21,1024031444
95,9,20,Ticks_Linear_8,251,5,42,127,1024064992
95,9,20,Ticks_Linear_8,252,1,48,25,1024571684
95,9,20,Ticks_Linear_8,253,5,42,127,1024635236
95,9,20,Ticks_Linear_8,254,1,48,23,1025174812
95,9,20,Ticks_Linear_8,255,5,42,127,1025195292
95,9,20,Ticks_Linear_8,256,1,48,23,1025748868
95,9,20,Ticks_Linear_8,257,5,42,127,1025754456
95,9,20,Ticks_Linear_8,258,1,48,21,1026313616
95,9,20,Ticks_Linear_8,259,5,42,127,1026315256
95,9,20,Ticks_Linear_8,260,5,42,127,1026874676
95,9,20,Ticks_Linear_8,261,1,48,19,1026881384
95,9,20,Ticks_Linear_8,262,5,42,127,1027435036
95,9,20,Ticks_Linear_8,263,1,48,23,1027439576
95,9,20,Ticks_Linear_8,264,1,48,24,1027975284
95,9,20,Ticks_Linear_8,265,5,42,127,1027985204
95,9,20,Ticks_Linear_8,266,1,48,29,1028516316
95,9,20,Ticks_Linear_8,267,5,42,127,1028534556
95,9,20,Ticks_Linear_8,268,1,48,29,1029070156
95,9,20,Ticks_Linear_8,269,5,42,127,1029084652
95,9,20,Ticks_Linear_8,270,1,48,17,1029142416
95,9,20,Ticks_Linear_8,271,1,48,26,1029613580
95,9,20,Ticks_Linear_8,272,5,42,127,1029634432
95,9,20,Ticks_Linear_8,273,1,48,27,1030158428
95,9,20,Ticks_Linear_8,274,5,42,127,1030185280
95,9,20,Ticks_Linear_8,275,5,42,127,1030725000
95,9,20,Ticks_Linear_8,276,1,48,23,1030756128
95,9,20,Ticks_Linear_8,277,5,42,127,1031264688
95,9,20,Ticks_Linear_8,278,1,48,24,1031306976
95,9,20,Ticks_Linear_8,279,5,42,127,1031805280
95,9,20,Ticks_Linear_8,280,1,48,25,1031861188
95,9,20,Ticks_Linear_8,281,5,42,127,1032345116
95,9,20,Ticks_Linear_8,282,1,48,27,1032356552
95,9,20,Ticks_Linear_8,283,1,48,22,1032856152
95,9,20,Ticks_Linear_8,284,5,42,127,1032884580
95,9,20,Ticks_Linear_8,285,5,42,127,1033415140
95,9,20,Ticks_Linear_8,286,1,48,20,1033440944
95,9,20,Ticks_Linear_8,287,5,42,127,1033944496
95,9,20,Ticks_Linear_8,288,1,48,27,1033976296
95,9,20,Ticks_Linear_8,289,5,42,127,1034474824
95,9,20,Ticks_Linear_8,290,1,48,23,1034475788
95,9,20,Ticks_Linear_8,291,1,48,24,1034994248
95,9,20,Ticks_Linear_8,292,5,42,127,1035005444
95,9,20,Ticks_Linear_8,293,1,48,25,1035527940
95,9,20,Ticks_Linear_8,294,5,42,127,1035534724
95,9,20,Ticks_Linear_8,295,5,42,127,1036055100
95,9,20,Ticks_Linear_8,296,1,48,29,1036063468
95,9,20,Ticks_Linear_8,297,1,48,32,1036575096
95,9,20,Ticks_Linear_8,298,5,42,127,1036576504
95,9,20,Ticks_Linear_8,299,5,42,127,1037095236
95,9,20,Ticks_Linear_8,300,1,48,28,1037097328
95,9,20,Ticks_Linear_8,301,5,42,127,1037614560
95,9,20,Ticks_Linear_8,302,1,48,21,1037645040
95,9,20,Ticks_Linear_8,303,5,42,127,1038134704
95,9,20,Ticks_Linear_8,304,1,48,25,1038172280
95,9,20,Ticks_Linear_8,305,1,48,29,1038640616
95,9,20,Ticks_Linear_8,306,5,42,127,1038644556
95,9,20,Ticks_Linear_8,307,1,48,32,1039144516
95,9,20,Ticks_Linear_8,308,5,42,127,1039154516
95,9,20,Ticks_Linear_8,309,1,48,27,1039644440
95,9,20,Ticks_Linear_8,310,5,42,127,1039664400
95,9,20,Ticks_Linear_8,311,1,48,25,1040162856
95,9,20,Ticks_Linear_8,312,5,42,127,1040174360
95,9,20,Ticks_Linear_8,313,1,48,28,1040661056
95,9,20,Ticks_Linear_8,314,5,42,127,1040685368
95,9,20,Ticks_Linear_8,315,1,48,29,1041168776
95,9,20,Ticks_Linear_8,316,5,42,127,1041195476
95,9,20,Ticks_Linear_8,317,1,48,20,1041226092
95,9,20,Ticks_Linear_8,318,1,48,31,1041673772
95,9,20,Ticks_Linear_8,319,5,42,127,1041695152
95,9,20,Ticks_Linear_8,320,1,48,28,1042173472
95,9,20,Ticks_Linear_8,321,5,42,127,1042195000
95,9,20,Ticks_Linear_8,322,1,48,27,1042658788
95,9,20,Ticks_Linear_8,323,5,42,127,1042694628
95,9,20,Ticks_Linear_8,324,1,48,29,1043131000
95,9,20,Ticks_Linear_8,325,5,42,127,1043195152
95,9,20,Ticks_Linear_8,326,5,42,127,1043684748
95,9,20,Ticks_Linear_8,327,1,48,30,1043693192
95,9,20,Ticks_Linear_8,328,5,42,127,1044175088
95,9,20,Ticks_Linear_8,329,1,48,29,1044194012
95,9,20,Ticks_Linear_8,330,5,42,127,1044664752
95,9,20,Ticks_Linear_8,331,1,48,23,1044693488
95,9,20,Ticks_Linear_8,332,1,48,37,1045132632
95,9,20,Ticks_Linear_8,333,5,42,127,1045155132
95,9,20,Ticks_Linear_8,334,1,48,33,1045640932
95,9,20,Ticks_Linear_8,335,5,42,127,1045645096
95,9,20,Ticks_Linear_8,0,9999,9999,9999,935042120
95,9,20,Ticks_Linear_8,1,9999,9999,9999,935862384
95,9,20,Ticks_Linear_8,2,9999,9999,9999,936682576
95,9,20,Ticks_Linear_8,3,9999,9999,9999,937502812
95,9,20,Ticks_Linear_8,4,9999,9999,9999,938323008
95,9,20,Ticks_Linear_8,5,9999,9999,9999,939132988
95,9,20,Ticks_Linear_8,6,9999,9999,9999,939942976
95,9,20,Ticks_Linear_8,7,9999,9999,9999,940752952
95,9,20,Ticks_Linear_8,8,9999,9999,9999,941562936
95,9,20,Ticks_Linear_8,9,9999,9999,9999,942372924
95,9,20,Ticks_Linear_8,10,9999,9999,9999,943172676
95,9,20,Ticks_Linear_8,11,9999,9999,9999,943972468
95,9,20,Ticks_Linear_8,12,9999,9999,9999,944772188
95,9,20,Ticks_Linear_8,13,9999,9999,9999,945572968
95,9,20,Ticks_Linear_8,14,9999,9999,9999,946372688
95,9,20,Ticks_Linear_8,15,9999,9999,9999,947162232
95,9,20,Ticks_Linear_8,16,9999,9999,9999,947952740
95,9,20,Ticks_Linear_8,17,9999,9999,9999,948742228
95,9,20,Ticks_Linear_8,18,9999,9999,9999,949532732
95,9,20,Ticks_Linear_8,19,9999,9999,9999,950322272
95,9,20,Ticks_Linear_8,20,9999,9999,9999,951102556
95,9,20,Ticks_Linear_8,21,9999,9999,9999,951882832
95,9,20,Ticks_Linear_8,22,9999,9999,9999,952662112
95,9,20,Ticks_Linear_8,23,9999,9999,9999,953442360
95,9,20,Ticks_Linear_8,24,9999,9999,9999,954222688
95,9,20,Ticks_Linear_8,25,9999,9999,9999,954992760
95,9,20,Ticks_Linear_8,26,9999,9999,9999,955762748
95,9,20,Ticks_Linear_8,27,9999,9999,9999,956532820
95,9,20,Ticks_Linear_8,28,9999,9999,9999,957302888
95,9,20,Ticks_Linear_8,29,9999,9999,9999,958072956
95,9,20,Ticks_Linear_8,30,9999,9999,9999,958832764
95,9,20,Ticks_Linear_8,31,9999,9999,9999,959592568
95,9,20,Ticks_Linear_8,32,9999,9999,9999,960352384
95,9,20,Ticks_Linear_8,33,9999,9999,9999,961112188
95,9,20,Ticks_Linear_8,34,9999,9999,9999,961872968
95,9,20,Ticks_Linear_8,35,9999,9999,9999,962622520
95,9,20,Ticks_Linear_8,36,9999,9999,9999,963372124
95,9,20,Ticks_Linear_8,37,9999,9999,9999,964122720
95,9,20,Ticks_Linear_8,38,9999,9999,9999,964872268
95,9,20,Ticks_Linear_8,39,9999,9999,9999,965622864
95,9,20,Ticks_Linear_8,40,9999,9999,9999,966362228
95,9,20,Ticks_Linear_8,41,9999,9999,9999,967102568
95,9,20,Ticks_Linear_8,42,9999,9999,9999,967842896
95,9,20,Ticks_Linear_8,43,9999,9999,9999,968582268
95,9,20,Ticks_Linear_8,44,9999,9999,9999,969322620
95,9,20,Ticks_Linear_8,45,9999,9999,9999,970052664
95,9,20,Ticks_Linear_8,46,9999,9999,9999,970782836
95,9,20,Ticks_Linear_8,47,9999,9999,9999,971512912
95,9,20,Ticks_Linear_8,48,9999,9999,9999,972243056
95,9,20,Ticks_Linear_8,49,9999,9999,9999,972972096
95,9,20,Ticks_Linear_8,50,9999,9999,9999,973693032
95,9,20,Ticks_Linear_8,51,9999,9999,9999,974412924
95,9,20,Ticks_Linear_8,52,9999,9999,9999,975132792
95,9,20,Ticks_Linear_8,53,9999,9999,9999,975852616
95,9,20,Ticks_Linear_8,54,9999,9999,9999,976572504
95,9,20,Ticks_Linear_8,55,9999,9999,9999,977282140
95,9,20,Ticks_Linear_8,56,9999,9999,9999,977992828
95,9,20,Ticks_Linear_8,57,9999,9999,9999,978702436
95,9,20,Ticks_Linear_8,58,9999,9999,9999,979413112
95,9,20,Ticks_Linear_8,59,9999,9999,9999,980122748
95,9,20,Ticks_Linear_8,60,9999,9999,9999,980822124
95,9,20,Ticks_Linear_8,61,9999,9999,9999,981522524
95,9,20,Ticks_Linear_8,62,9999,9999,9999,982222944
95,9,20,Ticks_Linear_8,63,9999,9999,9999,982922324
95,9,20,Ticks_Linear_8,64,9999,9999,9999,983622748
95,9,20,Ticks_Linear_8,65,9999,9999,9999,984312908
95,9,20,Ticks_Linear_8,66,9999,9999,9999,985003072
95,9,20,Ticks_Linear_8,67,9999,9999,9999,985702520
95,9,20,Ticks_Linear_8,68,9999,9999,9999,986392660
95,9,20,Ticks_Linear_8,69,9999,9999,9999,987082820
95,9,20,Ticks_Linear_8,70,9999,9999,9999,987762800
95,9,20,Ticks_Linear_8,71,9999,9999,9999,988442680
95,9,20,Ticks_Linear_8,72,9999,9999,9999,989122652
95,9,20,Ticks_Linear_8,73,9999,9999,9999,989802564
95,9,20,Ticks_Linear_8,74,9999,9999,9999,990482512
95,9,20,Ticks_Linear_8,75,9999,9999,9999,991152236
95,9,20,Ticks_Linear_8,76,9999,9999,9999,991822924
95,9,20,Ticks_Linear_8,77,9999,9999,9999,992492616
95,9,20,Ticks_Linear_8,78,9999,9999,9999,993162336
95,9,20,Ticks_Linear_8,79,9999,9999,9999,993833076
95,9,20,Ticks_Linear_8,80,9999,9999,9999,994492540
95,9,20,Ticks_Linear_8,81,9999,9999,9999,995152980
95,9,20,Ticks_Linear_8,82,9999,9999,9999,995812408
95,9,20,Ticks_Linear_8,83,9999,9999,9999,996472920
95,9,20,Ticks_Linear_8,84,9999,9999,9999,997132348
95,9,20,Ticks_Linear_8,85,9999,9999,9999,997782604
95,9,20,Ticks_Linear_8,86,9999,9999,9999,998432824
95,9,20,Ticks_Linear_8,87,9999,9999,9999,999083076
95,9,20,Ticks_Linear_8,88,9999,9999,9999,999742536
95,9,20,Ticks_Linear_8,89,9999,9999,9999,1000392760
95,9,20,Ticks_Linear_8,90,9999,9999,9999,1001032824
95,9,20,Ticks_Linear_8,91,9999,9999,9999,1001672788
95,9,20,Ticks_Linear_8,92,9999,9999,9999,1002312776
95,9,20,Ticks_Linear_8,93,9999,9999,9999,1002952812
95,9,20,Ticks_Linear_8,94,9999,9999,9999,1003592796
95,9,20,Ticks_Linear_8,95,9999,9999,9999,1004222576
95,9,20,Ticks_Linear_8,96,9999,9999,9999,1004852288
95,9,20,Ticks_Linear_8,97,9999,9999,9999,1005483136
95,9,20,Ticks_Linear_8,98,9999,9999,9999,1006123104
95,9,20,Ticks_Linear_8,99,9999,9999,9999,1006763092
95,9,20,Ticks_Linear_8,100,9999,9999,9999,1007392872
95,9,20,Ticks_Linear_8,101,9999,9999,9999,1008012412
95,9,20,Ticks_Linear_8,102,9999,9999,9999,1008632904
95,9,20,Ticks_Linear_8,103,9999,9999,9999,1009252456
95,9,20,Ticks_Linear_8,104,9999,9999,9999,1009873020
95,9,20,Ticks_Linear_8,105,9999,9999,9999,1010482284
95,9,20,Ticks_Linear_8,106,9999,9999,9999,1011092548
95,9,20,Ticks_Linear_8,107,9999,9999,9999,1011702856
95,9,20,Ticks_Linear_8,108,9999,9999,9999,1012312140
95,9,20,Ticks_Linear_8,109,9999,9999,9999,1012922444
95,9,20,Ticks_Linear_8,110,9999,9999,9999,1013522496
95,9,20,Ticks_Linear_8,111,9999,9999,9999,1014122576
95,9,20,Ticks_Linear_8,112,9999,9999,9999,1014722616
95,9,20,Ticks_Linear_8,113,9999,9999,9999,1015322740
95,9,20,Ticks_Linear_8,114,9999,9999,9999,1015922816
95,9,20,Ticks_Linear_8,115,9999,9999,9999,1016512612
95,9,20,Ticks_Linear_8,116,9999,9999,9999,1017102392
95,9,20,Ticks_Linear_8,117,9999,9999,9999,1017692284
95,9,20,Ticks_Linear_8,118,9999,9999,9999,1018283120
95,9,20,Ticks_Linear_8,119,9999,9999,9999,1018882120
95,9,20,Ticks_Linear_8,120,9999,9999,9999,1019462724
95,9,20,Ticks_Linear_8,121,9999,9999,9999,1020042336
95,9,20,Ticks_Linear_8,122,9999,9999,9999,1020622908
95,9,20,Ticks_Linear_8,123,9999,9999,9999,1021202512
95,9,20,Ticks_Linear_8,124,9999,9999,9999,1021782140
95,9,20,Ticks_Linear_8,125,9999,9999,9999,1022352460
95,9,20,Ticks_Linear_8,126,9999,9999,9999,1022922856
95,9,20,Ticks_Linear_8,127,9999,9999,9999,1023492200
95,9,20,Ticks_Linear_8,128,9999,9999,9999,1024062544
95,9,20,Ticks_Linear_8,129,9999,9999,9999,1024632936
95,9,20,Ticks_Linear_8,130,9999,9999,9999,1025193068
95,9,20,Ticks_Linear_8,131,9999,9999,9999,1025752156
95,9,20,Ticks_Linear_8,132,9999,9999,9999,1026312296
95,9,20,Ticks_Linear_8,133,9999,9999,9999,1026872380
95,9,20,Ticks_Linear_8,134,9999,9999,9999,1027432512
95,9,20,Ticks_Linear_8,135,9999,9999,9999,1027982456
95,9,20,Ticks_Linear_8,136,9999,9999,9999,1028532332
95,9,20,Ticks_Linear_8,137,9999,9999,9999,1029082204
95,9,20,Ticks_Linear_8,138,9999,9999,9999,1029632060
95,9,20,Ticks_Linear_8,139,9999,9999,9999,1030182980
95,9,20,Ticks_Linear_8,140,9999,9999,9999,1030722628
95,9,20,Ticks_Linear_8,141,9999,9999,9999,1031262316
95,9,20,Ticks_Linear_8,142,9999,9999,9999,1031802980
95,9,20,Ticks_Linear_8,143,9999,9999,9999,1032342596
95,9,20,Ticks_Linear_8,144,9999,9999,9999,1032882280
95,9,20,Ticks_Linear_8,145,9999,9999,9999,1033412692
95,9,20,Ticks_Linear_8,146,9999,9999,9999,1033942120
95,9,20,Ticks_Linear_8,147,9999,9999,9999,1034472524
95,9,20,Ticks_Linear_8,148,9999,9999,9999,1035002996
95,9,20,Ticks_Linear_8,149,9999,9999,9999,1035532352
95,9,20,Ticks_Linear_8,150,9999,9999,9999,1036052576
95,9,20,Ticks_Linear_8,151,9999,9999,9999,1036572796
95,9,20,Ticks_Linear_8,152,9999,9999,9999,1037092940
95,9,20,Ticks_Linear_8,153,9999,9999,9999,1037612112
95,9,20,Ticks_Linear_8,154,9999,9999,9999,1038132328
95,9,20,Ticks_Linear_8,155,9999,9999,9999,1038642260
95,9,20,Ticks_Linear_8,156,9999,9999,9999,1039152220
95,9,20,Ticks_Linear_8,157,9999,9999,9999,1039662176
95,9,20,Ticks_Linear_8,158,9999,9999,9999,1040172136
95,9,20,Ticks_Linear_8,159,9999,9999,9999,1040683068
95,9,20,Ticks_Linear_8,160,9999,9999,9999,1041193028
95,9,20,Ticks_Linear_8,161,9999,9999,9999,1041692780
95,9,20,Ticks_Linear_8,162,9999,9999,9999,1042192480
95,9,20,Ticks_Linear_8,163,9999,9999,9999,1042692180
95,9,20,Ticks_Linear_8,164,9999,9999,9999,1043192928
95,9,20,Ticks_Linear_8,165,9999,9999,9999,1043682376
95,9,20,Ticks_Linear_8,166,9999,9999,9999,1044172864
95,9,20,Ticks_Linear_8,167,9999,9999,9999,1044662380
95,9,20,Ticks_Linear_8,168,9999,9999,9999,1045152836
95,9,20,Ticks_Linear_8,169,9999,9999,9999,1045642352
95,10,21,Ticks_Linear_5,0,5,42,127,1054974372
95,10,21,Ticks_Linear_5,1,5,42,127,1055453648
95,10,21,Ticks_Linear_5,2,5,42,127,1055933752
95,10,21,Ticks_Linear_5,3,5,42,127,1056413928
95,10,21,Ticks_Linear_5,4,1,48,34,1056420116
95,10,21,Ticks_Linear_5,5,5,42,127,1056894304
95,10,21,Ticks_Linear_5,6,1,48,31,1056895940
95,10,21,Ticks_Linear_5,7,1,48,33,1057372324
95,10,21,Ticks_Linear_5,8,5,42,127,1057383964
95,10,21,Ticks_Linear_5,9,1,48,29,1057851416
95,10,21,Ticks_Linear_5,10,5,42,127,1057874300
95,10,21,Ticks_Linear_5,11,1,48,20,1057910276
95,10,21,Ticks_Linear_5,12,1,48,36,1058339536
95,10,21,Ticks_Linear_5,13,5,42,127,1058363792
95,10,21,Ticks_Linear_5,14,1,48,30,1058847472
95,10,21,Ticks_Linear_5,15,5,42,127,1058854404
95,10,21,Ticks_Linear_5,16,5,42,127,1059343852
95,10,21,Ticks_Linear_5,17,1,48,28,1059344820
95,10,21,Ticks_Linear_5,18,1,48,30,1059838856
95,10,21,Ticks_Linear_5,19,5,42,127,1059843396
95,10,21,Ticks_Linear_5,20,1,48,25,1060312504
95,10,21,Ticks_Linear_5,21,5,42,127,1060344140
95,10,21,Ticks_Linear_5,22,1,48,24,1060838408
95,10,21,Ticks_Linear_5,23,5,42,127,1060843840
95,10,21,Ticks_Linear_5,24,1,48,24,1061343844
95,10,21,Ticks_Linear_5,25,5,42,127,1061345108
95,10,21,Ticks_Linear_5,26,1,48,27,1061817440
95,10,21,Ticks_Linear_5,27,5,42,127,1061844216
95,10,21,Ticks_Linear_5,28,1,48,24,1062350908
95,10,21,Ticks_Linear_5,29,5,42,127,1062354172
95,10,21,Ticks_Linear_5,30,1,48,30,1062816756
95,10,21,Ticks_Linear_5,31,5,42,127,1062864280
95,10,21,Ticks_Linear_5,32,1,48,26,1063304708
95,10,21,Ticks_Linear_5,33,5,42,127,1063374164
95,10,21,Ticks_Linear_5,34,1,48,31,1063812348
95,10,21,Ticks_Linear_5,35,5,42,127,1063884272
95,10,21,Ticks_Linear_5,36,1,48,24,1064346336
95,10,21,Ticks_Linear_5,37,5,42,127,1064394084
95,10,21,Ticks_Linear_5,38,1,48,24,1064869476
95,10,21,Ticks_Linear_5,39,5,42,127,1064914304
95,10,21,Ticks_Linear_5,40,1,48,20,1065426916
95,10,21,Ticks_Linear_5,41,5,42,127,1065433404
95,10,21,Ticks_Linear_5,42,5,42,127,1065953848
95,10,21,Ticks_Linear_5,43,1,48,19,1065989544
95,10,21,Ticks_Linear_5,44,1,48,24,1066473772
95,10,21,Ticks_Linear_5,45,5,42,127,1066475256
95,10,21,Ticks_Linear_5,46,1,48,25,1066957768
95,10,21,Ticks_Linear_5,47,5,42,127,1066993984
95,10,21,Ticks_Linear_5,48,1,48,29,1067483832
95,10,21,Ticks_Linear_5,49,5,42,127,1067523784
95,10,21,Ticks_Linear_5,50,1,48,26,1068019772
95,10,21,Ticks_Linear_5,51,5,42,127,1068053888
95,10,21,Ticks_Linear_5,52,1,48,21,1068554376
95,10,21,Ticks_Linear_5,53,5,42,127,1068584292
95,10,21,Ticks_Linear_5,54,1,48,26,1069095928
95,10,21,Ticks_Linear_5,55,5,42,127,1069113744
95,10,21,Ticks_Linear_5,56,1,48,23,1069629052
95,10,21,Ticks_Linear_5,57,5,42,127,1069644148
95,10,21,Ticks_Linear_5,58,5,42,127,1070183844
95,10,21,Ticks_Linear_5,59,1,48,18,1070190780
95,10,21,Ticks_Linear_5,60,1,48,24,1070701460
95,10,21,Ticks_Linear_5,61,5,42,127,1070723676
95,10,21,Ticks_Linear_5,62,1,48,26,1071244608
95,10,21,Ticks_Linear_5,63,5,42,127,1071264044
95,10,21,Ticks_Linear_5,64,1,48,20,1071799716
95,10,21,Ticks_Linear_5,65,5,42,127,1071803880
95,10,21,Ticks_Linear_5,66,1,48,23,1072330416
95,10,21,Ticks_Linear_5,67,5,42,127,1072344544
95,10,21,Ticks_Linear_5,68,1,48,27,1072860596
95,10,21,Ticks_Linear_5,69,5,42,127,1072903704
95,10,21,Ticks_Linear_5,70,1,48,22,1073425456
95,10,21,Ticks_Linear_5,71,5,42,127,1073453428
95,10,21,Ticks_Linear_5,72,1,48,29,1073940424
95,10,21,Ticks_Linear_5,73,5,42,127,1074004372
95,10,21,Ticks_Linear_5,74,1,48,19,1074540200
95,10,21,Ticks_Linear_5,75,5,42,127,1074554176
95,10,21,Ticks_Linear_5,76,1,48,28,1075100708
95,10,21,Ticks_Linear_5,77,5,42,127,1075104048
95,10,21,Ticks_Linear_5,78,1,48,24,1075662520
95,10,21,Ticks_Linear_5,79,5,42,127,1075664108
95,10,21,Ticks_Linear_5,80,5,42,127,1076224472
95,10,21,Ticks_Linear_5,81,1,48,22,1076287004
95,10,21,Ticks_Linear_5,82,1,48,19,1076744720
95,10,21,Ticks_Linear_5,83,5,42,127,1076783700
95,10,21,Ticks_Linear_5,84,1,48,17,1077267108
95,10,21,Ticks_Linear_5,85,5,42,127,1077343636
95,10,21,Ticks_Linear_5,86,1,48,14,1077835576
95,10,21,Ticks_Linear_5,87,5,42,127,1077903768
95,10,21,Ticks_Linear_5,88,5,42,127,1078474168
95,10,21,Ticks_Linear_5,89,1,48,17,1078502680
95,10,21,Ticks_Linear_5,90,1,48,15,1079031700
95,10,21,Ticks_Linear_5,91,5,42,127,1079043728
95,10,21,Ticks_Linear_5,92,1,48,19,1079565704
95,10,21,Ticks_Linear_5,93,5,42,127,1079613700
95,10,21,Ticks_Linear_5,94,1,48,19,1080136568
95,10,21,Ticks_Linear_5,95,5,42,127,1080184092
95,10,21,Ticks_Linear_5,96,1,48,22,1080745012
95,10,21,Ticks_Linear_5,97,5,42,127,1080753588
95,10,21,Ticks_Linear_5,98,1,48,22,1081304016
95,10,21,Ticks_Linear_5,99,5,42,127,1081334012
95,10,21,Ticks_Linear_5,100,5,42,127,1081913652
95,10,21,Ticks_Linear_5,101,1,48,18,1081921648
95,10,21,Ticks_Linear_5,102,1,48,18,1082478680
95,10,21,Ticks_Linear_5,103,5,42,127,1082494296
95,10,21,Ticks_Linear_5,104,1,48,22,1083047720
95,10,21,Ticks_Linear_5,105,5,42,127,1083073976
95,10,21,Ticks_Linear_5,106,1,48,17,1083628600
95,10,21,Ticks_Linear_5,107,5,42,127,1083653580
95,10,21,Ticks_Linear_5,108,1,48,21,1084198916
95,10,21,Ticks_Linear_5,109,5,42,127,1084244288
95,10,21,Ticks_Linear_5,110,1,48,18,1084769408
95,10,21,Ticks_Linear_5,111,5,42,127,1084834152
95,10,21,Ticks_Linear_5,112,1,48,16,1085376268
95,10,21,Ticks_Linear_5,113,5,42,127,1085423944
95,10,21,Ticks_Linear_5,114,1,48,15,1085959692
95,10,21,Ticks_Linear_5,115,5,42,127,1086013680
95,10,21,Ticks_Linear_5,116,1,48,19,1086539620
95,10,21,Ticks_Linear_5,117,5,42,127,1086603620
95,10,21,Ticks_Linear_5,118,1,48,21,1087137428
95,10,21,Ticks_Linear_5,119,5,42,127,1087203596
95,10,21,Ticks_Linear_5,120,1,48,16,1087798608
95,10,21,Ticks_Linear_5,121,5,42,127,1087803744
95,10,21,Ticks_Linear_5,122,5,42,127,1088403800
95,10,21,Ticks_Linear_5,123,1,48,14,1088437772
95,10,21,Ticks_Linear_5,124,1,48,18,1089002644
95,10,21,Ticks_Linear_5,125,5,42,127,1089004140
95,10,21,Ticks_Linear_5,126,1,48,15,1089570740
95,10,21,Ticks_Linear_5,127,5,42,127,1089603916
95,10,21,Ticks_Linear_5,128,1,48,16,1090139960
95,10,21,Ticks_Linear_5,129,5,42,127,1090214224
95,10,21,Ticks_Linear_5,130,1,48,16,1090790256
95,10,21,Ticks_Linear_5,131,5,42,127,1090823632
95,10,21,Ticks_Linear_5,132,5,42,127,1091433748
95,10,21,Ticks_Linear_5,133,5,42,127,1092044152
95,10,21,Ticks_Linear_5,134,1,48,20,1092054392
95,10,21,Ticks_Linear_5,135,5,42,127,1092653412
95,10,21,Ticks_Linear_5,136,1,48,18,1092670180
95,10,21,Ticks_Linear_5,137,1,48,25,1093253960
95,10,21,Ticks_Linear_5,138,5,42,127,1093273848
95,10,21,Ticks_Linear_5,139,1,48,25,1093889132
95,10,21,Ticks_Linear_5,140,5,42,127,1093893740
95,10,21,Ticks_Linear_5,141,1,48,25,1094498120
95,10,21,Ticks_Linear_5,142,5,42,127,1094514188
95,10,21,Ticks_Linear_5,143,1,48,24,1095090528
95,10,21,Ticks_Linear_5,144,5,42,127,1095133708
95,10,21,Ticks_Linear_5,145,1,48,21,1095730712
95,10,21,Ticks_Linear_5,146,5,42,127,1095754076
95,10,21,Ticks_Linear_5,147,1,48,17,1096357904
95,10,21,Ticks_Linear_5,148,5,42,127,1096383856
95,10,21,Ticks_Linear_5,149,1,48,24,1096995468
95,10,21,Ticks_Linear_5,150,5,42,127,1097013636
95,10,21,Ticks_Linear_5,151,1,48,23,1097632588
95,10,21,Ticks_Linear_5,152,5,42,127,1097644532
95,10,21,Ticks_Linear_5,153,1,48,21,1098259364
95,10,21,Ticks_Linear_5,154,5,42,127,1098274164
95,10,21,Ticks_Linear_5,155,1,48,20,1098887376
95,10,21,Ticks_Linear_5,156,5,42,127,1098903968
95,10,21,Ticks_Linear_5,157,1,48,16,1099527192
95,10,21,Ticks_Linear_5,158,5,42,127,1099543856
95,10,21,Ticks_Linear_5,159,1,48,21,1100142848
95,10,21,Ticks_Linear_5,160,5,42,127,1100183920
95,10,21,Ticks_Linear_5,161,1,48,17,1100772700
95,10,21,Ticks_Linear_5,162,5,42,127,1100823884
95,10,21,Ticks_Linear_5,163,1,48,16,1101457016
95,10,21,Ticks_Linear_5,164,5,42,127,1101463872
95,10,21,Ticks_Linear_5,165,1,48,23,1102062836
95,10,21,Ticks_Linear_5,166,5,42,127,1102103912
95,10,21,Ticks_Linear_5,167,1,48,25,1102676832
95,10,21,Ticks_Linear_5,168,5,42,127,1102754232
95,10,21,Ticks_Linear_5,169,1,48,20,1103333200
95,10,21,Ticks_Linear_5,170,5,42,127,1103404384
95,10,21,Ticks_Linear_5,171,1,48,18,1104012508
95,10,21,Ticks_Linear_5,172,5,42,127,1104053584
95,10,21,Ticks_Linear_5,173,1,48,19,1104663704
95,10,21,Ticks_Linear_5,174,5,42,127,1104703756
95,10,21,Ticks_Linear_5,175,1,48,18,1105346972
95,10,21,Ticks_Linear_5,176,5,42,127,1105353980
95,10,21,Ticks_Linear_5,177,5,42,127,1106013596
95,10,21,Ticks_Linear_5,178,1,48,14,1106033564
95,10,21,Ticks_Linear_5,179,5,42,127,1106674076
95,10,21,Ticks_Linear_5,180,1,48,18,1106678764
95,10,21,Ticks_Linear_5,181,5,42,127,1107333608
95,10,21,Ticks_Linear_5,182,1,48,19,1107335324
95,10,21,Ticks_Linear_5,183,1,48,18,1107950156
95,10,21,Ticks_Linear_5,184,5,42,127,1107993936
95,10,21,Ticks_Linear_5,185,1,48,19,1108618004
95,10,21,Ticks_Linear_5,186,5,42,127,1108653620
95,10,21,Ticks_Linear_5,187,1,48,18,1109252212
95,10,21,Ticks_Linear_5,188,5,42,127,1109324312
95,10,21,Ticks_Linear_5,189,1,48,19,1109948208
95,10,21,Ticks_Linear_5,190,5,42,127,1109993784
95,10,21,Ticks_Linear_5,191,1,48,17,1110616508
95,10,21,Ticks_Linear_5,192,5,42,127,1110663652
95,10,21,Ticks_Linear_5,193,1,48,17,1111301096
95,10,21,Ticks_Linear_5,194,5,42,127,1111334320
95,10,21,Ticks_Linear_5,195,1,48,14,1111986996
95,10,21,Ticks_Linear_5,196,5,42,127,1112004264
95,10,21,Ticks_Linear_5,197,1,48,18,1112655148
95,10,21,Ticks_Linear_5,198,5,42,127,1112683944
95,10,21,Ticks_Linear_5,199,1,48,18,1113321312
95,10,21,Ticks_Linear_5,200,5,42,127,1113364048
95,10,21,Ticks_Linear_5,201,1,48,18,1113974416
95,10,21,Ticks_Linear_5,202,5,42,127,1114043800
95,10,21,Ticks_Linear_5,203,1,48,18,1114697080
95,10,21,Ticks_Linear_5,204,5,42,127,1114723852
95,10,21,Ticks_Linear_5,205,1,48,18,1115403888
95,10,21,Ticks_Linear_5,206,5,42,127,1115405228
95,10,21,Ticks_Linear_5,207,5,42,127,1116093828
95,10,21,Ticks_Linear_5,208,1,48,17,1116109524
95,10,21,Ticks_Linear_5,209,1,48,16,1116743356
95,10,21,Ticks_Linear_5,210,5,42,127,1116784060
95,10,21,Ticks_Linear_5,211,1,48,19,1117420008
95,10,21,Ticks_Linear_5,212,5,42,127,1117474272
95,10,21,Ticks_Linear_5,213,1,48,16,1118082020
95,10,21,Ticks_Linear_5,214,5,42,127,1118164284
95,10,21,Ticks_Linear_5,215,1,48,17,1118845868
95,10,21,Ticks_Linear_5,216,5,42,127,1118853400
95,10,21,Ticks_Linear_5,217,5,42,127,1119553832
95,10,21,Ticks_Linear_5,218,1,48,16,1119575300
95,10,21,Ticks_Linear_5,219,1,48,19,1120234484
95,10,21,Ticks_Linear_5,220,5,42,127,1120254368
95,10,21,Ticks_Linear_5,221,1,48,22,1120919324
95,10,21,Ticks_Linear_5,222,5,42,127,1120953672
95,10,21,Ticks_Linear_5,223,1,48,19,1121601024
95,10,21,Ticks_Linear_5,224,5,42,127,1121654240
95,10,21,Ticks_Linear_5,225,1,48,18,1122326064
95,10,21,Ticks_Linear_5,226,5,42,127,1122353440
95,10,21,Ticks_Linear_5,227,1,48,16,1123014884
95,10,21,Ticks_Linear_5,228,5,42,127,1123064200
95,10,21,Ticks_Linear_5,229,1,48,18,1123728408
95,10,21,Ticks_Linear_5,230,5,42,127,1123773832
95,10,21,Ticks_Linear_5,231,1,48,18,1124416472
95,10,21,Ticks_Linear_5,232,5,42,127,1124483468
95,10,21,Ticks_Linear_5,233,1,48,13,1125118220
95,10,21,Ticks_Linear_5,234,5,42,127,1125194296
95,10,21,Ticks_Linear_5,235,5,42,127,1125903764
95,10,21,Ticks_Linear_5,236,1,48,19,1126406584
95,10,21,Ticks_Linear_5,237,5,42,127,1126623584
95,10,21,Ticks_Linear_5,238,1,48,19,1127273428
95,10,21,Ticks_Linear_5,239,5,42,127,1127343416
95,10,21,Ticks_Linear_5,240,1,48,18,1128019752
95,10,21,Ticks_Linear_5,241,5,42,127,1128064508
95,10,21,Ticks_Linear_5,242,1,48,15,1128730260
95,10,21,Ticks_Linear_5,243,5,42,127,1128784472
95,10,21,Ticks_Linear_5,244,1,48,20,1129458244
95,10,21,Ticks_Linear_5,245,5,42,127,1129504120
95,10,21,Ticks_Linear_5,246,1,48,17,1130169676
95,10,21,Ticks_Linear_5,247,5,42,127,1130234196
95,10,21,Ticks_Linear_5,248,1,48,18,1130904176
95,10,21,Ticks_Linear_5,249,5,42,127,1130964348
95,10,21,Ticks_Linear_5,250,1,48,17,1131652308
95,10,21,Ticks_Linear_5,251,5,42,127,1131693304
95,10,21,Ticks_Linear_5,252,1,48,19,1132354896
95,10,21,Ticks_Linear_5,253,5,42,127,1132423608
95,10,21,Ticks_Linear_5,254,1,48,14,1133096628
95,10,21,Ticks_Linear_5,255,5,42,127,1133153684
95,10,21,Ticks_Linear_5,256,1,48,18,1133838236
95,10,21,Ticks_Linear_5,257,5,42,127,1133894020
95,10,21,Ticks_Linear_5,258,1,48,15,1134583148
95,10,21,Ticks_Linear_5,259,5,42,127,1134634408
95,10,21,Ticks_Linear_5,260,1,48,17,1135336960
95,10,21,Ticks_Linear_5,261,5,42,127,1135373772
95,10,21,Ticks_Linear_5,262,1,48,17,1136038060
95,10,21,Ticks_Linear_5,263,5,42,127,1136114108
95,10,21,Ticks_Linear_5,264,1,48,18,1136760488
95,10,21,Ticks_Linear_5,265,5,42,127,1136854372
95,10,21,Ticks_Linear_5,266,1,48,19,1137518732
95,10,21,Ticks_Linear_5,267,5,42,127,1137604144
95,10,21,Ticks_Linear_5,268,1,48,19,1138292324
95,10,21,Ticks_Linear_5,269,5,42,127,1138353620
95,10,21,Ticks_Linear_5,270,5,42,127,1139104224
95,10,21,Ticks_Linear_5,271,5,42,127,1139853796
95,10,21,Ticks_Linear_5,272,1,48,23,1139862088
95,10,21,Ticks_Linear_5,273,1,48,20,1140591156
95,10,21,Ticks_Linear_5,274,5,42,127,1140604164
95,10,21,Ticks_Linear_5,275,1,48,19,1141288564
95,10,21,Ticks_Linear_5,276,5,42,127,1141364192
95,10,21,Ticks_Linear_5,277,1,48,17,1142034296
95,10,21,Ticks_Linear_5,278,5,42,127,1142123852
95,10,21,Ticks_Linear_5,279,1,48,18,1142845052
95,10,21,Ticks_Linear_5,280,5,42,127,1142883584
95,10,21,Ticks_Linear_5,281,5,42,127,1143643476
95,10,21,Ticks_Linear_5,282,1,48,25,1144345568
95,10,21,Ticks_Linear_5,283,5,42,127,1144404272
95,10,21,Ticks_Linear_5,284,1,48,22,1145111508
95,10,21,Ticks_Linear_5,285,5,42,127,1145174488
95,10,21,Ticks_Linear_5,286,1,48,17,1145935680
95,10,21,Ticks_Linear_5,287,5,42,127,1145944336
95,10,21,Ticks_Linear_5,288,1,48,24,1146712940
95,10,21,Ticks_Linear_5,289,5,42,127,1146723836
95,10,21,Ticks_Linear_5,290,1,48,22,1147439764
95,10,21,Ticks_Linear_5,291,5,42,127,1147494052
95,10,21,Ticks_Linear_5,292,1,48,24,1148181764
95,10,21,Ticks_Linear_5,293,5,42,127,1148263896
95,10,21,Ticks_Linear_5,294,1,48,19,1148969420
95,10,21,Ticks_Linear_5,295,5,42,127,1149044076
95,10,21,Ticks_Linear_5,296,1,48,19,1149802576
95,10,21,Ticks_Linear_5,297,5,42,127,1149824328
95,10,21,Ticks_Linear_5,298,1,48,19,1150596900
95,10,21,Ticks_Linear_5,299,5,42,127,1150603756
95,10,21,Ticks_Linear_5,300,5,42,127,1151383864
95,10,21,Ticks_Linear_5,301,1,48,15,1151396272
95,10,21,Ticks_Linear_5,302,1,48,19,1152140996
95,10,21,Ticks_Linear_5,303,5,42,127,1152164184
95,10,21,Ticks_Linear_5,304,1,48,23,1152930092
95,10,21,Ticks_Linear_5,305,5,42,127,1152953652
95,10,21,Ticks_Linear_5,306,1,48,16,1153738804
95,10,21,Ticks_Linear_5,307,5,42,127,1153744160
95,10,21,Ticks_Linear_5,308,1,48,21,1154501224
95,10,21,Ticks_Linear_5,309,5,42,127,1154533924
95,10,21,Ticks_Linear_5,310,1,48,23,1155316232
95,10,21,Ticks_Linear_5,311,5,42,127,1155324212
95,10,21,Ticks_Linear_5,312,5,42,127,1156113836
95,10,21,Ticks_Linear_5,313,1,48,25,1156117104
95,10,21,Ticks_Linear_5,314,5,42,127,1156913484
95,10,21,Ticks_Linear_5,315,5,42,127,1157714224
95,10,21,Ticks_Linear_5,316,1,48,19,1157715636
95,10,21,Ticks_Linear_5,317,1,48,16,1158497800
95,10,21,Ticks_Linear_5,318,5,42,127,1158514164
95,10,21,Ticks_Linear_5,319,1,48,17,1159256112
95,10,21,Ticks_Linear_5,320,5,42,127,1159314036
95,10,21,Ticks_Linear_5,321,1,48,23,1160039432
95,10,21,Ticks_Linear_5,322,5,42,127,1160113464
95,10,21,Ticks_Linear_5,323,1,48,21,1160831064
95,10,21,Ticks_Linear_5,324,5,42,127,1160923444
95,10,21,Ticks_Linear_5,325,1,48,18,1161639548
95,10,21,Ticks_Linear_5,326,5,42,127,1161733412
95,10,21,Ticks_Linear_5,327,1,48,20,1162410436
95,10,21,Ticks_Linear_5,328,5,42,127,1162543468
95,10,21,Ticks_Linear_5,329,1,48,17,1163271040
95,10,21,Ticks_Linear_5,330,5,42,127,1163353340
95,10,21,Ticks_Linear_5,331,1,48,18,1164075120
95,10,21,Ticks_Linear_5,332,5,42,127,1164163476
95,10,21,Ticks_Linear_5,0,9999,9999,9999,1054972000
95,10,21,Ticks_Linear_5,1,9999,9999,9999,1055451204
95,10,21,Ticks_Linear_5,2,9999,9999,9999,1055931452
95,10,21,Ticks_Linear_5,3,9999,9999,9999,1056411704
95,10,21,Ticks_Linear_5,4,9999,9999,9999,1056892004
95,10,21,Ticks_Linear_5,5,9999,9999,9999,1057381440
95,10,21,Ticks_Linear_5,6,9999,9999,9999,1057871928
95,10,21,Ticks_Linear_5,7,9999,9999,9999,1058361420
95,10,21,Ticks_Linear_5,8,9999,9999,9999,1058851956
95,10,21,Ticks_Linear_5,9,9999,9999,9999,1059341404
95,10,21,Ticks_Linear_5,10,9999,9999,9999,1059841100
95,10,21,Ticks_Linear_5,11,9999,9999,9999,1060341844
95,10,21,Ticks_Linear_5,12,9999,9999,9999,1060841544
95,10,21,Ticks_Linear_5,13,9999,9999,9999,1061341248
95,10,21,Ticks_Linear_5,14,9999,9999,9999,1061841992
95,10,21,Ticks_Linear_5,15,9999,9999,9999,1062351948
95,10,21,Ticks_Linear_5,16,9999,9999,9999,1062861908
95,10,21,Ticks_Linear_5,17,9999,9999,9999,1063371868
95,10,21,Ticks_Linear_5,18,9999,9999,9999,1063881828
95,10,21,Ticks_Linear_5,19,9999,9999,9999,1064391784
95,10,21,Ticks_Linear_5,20,9999,9999,9999,1064911932
95,10,21,Ticks_Linear_5,21,9999,9999,9999,1065431104
95,10,21,Ticks_Linear_5,22,9999,9999,9999,1065951328
95,10,21,Ticks_Linear_5,23,9999,9999,9999,1066471548
95,10,21,Ticks_Linear_5,24,9999,9999,9999,1066991684
95,10,21,Ticks_Linear_5,25,9999,9999,9999,1067521112
95,10,21,Ticks_Linear_5,26,9999,9999,9999,1068051516
95,10,21,Ticks_Linear_5,27,9999,9999,9999,1068581992
95,10,21,Ticks_Linear_5,28,9999,9999,9999,1069111372
95,10,21,Ticks_Linear_5,29,9999,9999,9999,1069641848
95,10,21,Ticks_Linear_5,30,9999,9999,9999,1070181472
95,10,21,Ticks_Linear_5,31,9999,9999,9999,1070721080
95,10,21,Ticks_Linear_5,32,9999,9999,9999,1071261820
95,10,21,Ticks_Linear_5,33,9999,9999,9999,1071801432
95,10,21,Ticks_Linear_5,34,9999,9999,9999,1072342096
95,10,21,Ticks_Linear_5,35,9999,9999,9999,1072901184
95,10,21,Ticks_Linear_5,36,9999,9999,9999,1073451132
95,10,21,Ticks_Linear_5,37,9999,9999,9999,1074002000
95,10,21,Ticks_Linear_5,38,9999,9999,9999,1074551876
95,10,21,Ticks_Linear_5,39,9999,9999,9999,1075101752
95,10,21,Ticks_Linear_5,40,9999,9999,9999,1075661896
95,10,21,Ticks_Linear_5,41,9999,9999,9999,1076222024
95,10,21,Ticks_Linear_5,42,9999,9999,9999,1076781180
95,10,21,Ticks_Linear_5,43,9999,9999,9999,1077341264
95,10,21,Ticks_Linear_5,44,9999,9999,9999,1077901396
95,10,21,Ticks_Linear_5,45,9999,9999,9999,1078471796
95,10,21,Ticks_Linear_5,46,9999,9999,9999,1079041136
95,10,21,Ticks_Linear_5,47,9999,9999,9999,1079611476
95,10,21,Ticks_Linear_5,48,9999,9999,9999,1080181868
95,10,21,Ticks_Linear_5,49,9999,9999,9999,1080751216
95,10,21,Ticks_Linear_5,50,9999,9999,9999,1081331788
95,10,21,Ticks_Linear_5,51,9999,9999,9999,1081911352
95,10,21,Ticks_Linear_5,52,9999,9999,9999,1082491996
95,10,21,Ticks_Linear_5,53,9999,9999,9999,1083071604
95,10,21,Ticks_Linear_5,54,9999,9999,9999,1083651132
95,10,21,Ticks_Linear_5,55,9999,9999,9999,1084241992
95,10,21,Ticks_Linear_5,56,9999,9999,9999,1084831856
95,10,21,Ticks_Linear_5,57,9999,9999,9999,1085421644
95,10,21,Ticks_Linear_5,58,9999,9999,9999,1086011456
95,10,21,Ticks_Linear_5,59,9999,9999,9999,1086601324
95,10,21,Ticks_Linear_5,60,9999,9999,9999,1087201372
95,10,21,Ticks_Linear_5,61,9999,9999,9999,1087801448
95,10,21,Ticks_Linear_5,62,9999,9999,9999,1088401500
95,10,21,Ticks_Linear_5,63,9999,9999,9999,1089001548
95,10,21,Ticks_Linear_5,64,9999,9999,9999,1089601616
95,10,21,Ticks_Linear_5,65,9999,9999,9999,1090211924
95,10,21,Ticks_Linear_5,66,9999,9999,9999,1090821184
95,10,21,Ticks_Linear_5,67,9999,9999,9999,1091431524
95,10,21,Ticks_Linear_5,68,9999,9999,9999,1092041852
95,10,21,Ticks_Linear_5,69,9999,9999,9999,1092651116
95,10,21,Ticks_Linear_5,70,9999,9999,9999,1093271624
95,10,21,Ticks_Linear_5,71,9999,9999,9999,1093891148
95,10,21,Ticks_Linear_5,72,9999,9999,9999,1094511740
95,10,21,Ticks_Linear_5,73,9999,9999,9999,1095131260
95,10,21,Ticks_Linear_5,74,9999,9999,9999,1095751780
95,10,21,Ticks_Linear_5,75,9999,9999,9999,1096381556
95,10,21,Ticks_Linear_5,76,9999,9999,9999,1097011264
95,10,21,Ticks_Linear_5,77,9999,9999,9999,1097642088
95,10,21,Ticks_Linear_5,78,9999,9999,9999,1098271864
95,10,21,Ticks_Linear_5,79,9999,9999,9999,1098901596
95,10,21,Ticks_Linear_5,80,9999,9999,9999,1099541560
95,10,21,Ticks_Linear_5,81,9999,9999,9999,1100181620
95,10,21,Ticks_Linear_5,82,9999,9999,9999,1100821584
95,10,21,Ticks_Linear_5,83,9999,9999,9999,1101461572
95,10,21,Ticks_Linear_5,84,9999,9999,9999,1102101612
95,10,21,Ticks_Linear_5,85,9999,9999,9999,1102751860
95,10,21,Ticks_Linear_5,86,9999,9999,9999,1103402084
95,10,21,Ticks_Linear_5,87,9999,9999,9999,1104051284
95,10,21,Ticks_Linear_5,88,9999,9999,9999,1104701532
95,10,21,Ticks_Linear_5,89,9999,9999,9999,1105351756
95,10,21,Ticks_Linear_5,90,9999,9999,9999,1106011224
95,10,21,Ticks_Linear_5,91,9999,9999,9999,1106671704
95,10,21,Ticks_Linear_5,92,9999,9999,9999,1107331164
95,10,21,Ticks_Linear_5,93,9999,9999,9999,1107991640
95,10,21,Ticks_Linear_5,94,9999,9999,9999,1108651100
95,10,21,Ticks_Linear_5,95,9999,9999,9999,1109321788
95,10,21,Ticks_Linear_5,96,9999,9999,9999,1109991484
95,10,21,Ticks_Linear_5,97,9999,9999,9999,1110661208
95,10,21,Ticks_Linear_5,98,9999,9999,9999,1111331948
95,10,21,Ticks_Linear_5,99,9999,9999,9999,1112001592
95,10,21,Ticks_Linear_5,100,9999,9999,9999,1112681572
95,10,21,Ticks_Linear_5,101,9999,9999,9999,1113361524
95,10,21,Ticks_Linear_5,102,9999,9999,9999,1114041428
95,10,21,Ticks_Linear_5,103,9999,9999,9999,1114721408
95,10,21,Ticks_Linear_5,104,9999,9999,9999,1115401292
95,10,21,Ticks_Linear_5,105,9999,9999,9999,1116091456
95,10,21,Ticks_Linear_5,106,9999,9999,9999,1116781688
95,10,21,Ticks_Linear_5,107,9999,9999,9999,1117471824
95,10,21,Ticks_Linear_5,108,9999,9999,9999,1118161988
95,10,21,Ticks_Linear_5,109,9999,9999,9999,1118851176
95,10,21,Ticks_Linear_5,110,9999,9999,9999,1119551608
95,10,21,Ticks_Linear_5,111,9999,9999,9999,1120251996
95,10,21,Ticks_Linear_5,112,9999,9999,9999,1120951372
95,10,21,Ticks_Linear_5,113,9999,9999,9999,1121651792
95,10,21,Ticks_Linear_5,114,9999,9999,9999,1122351216
95,10,21,Ticks_Linear_5,115,9999,9999,9999,1123061824
95,10,21,Ticks_Linear_5,116,9999,9999,9999,1123771460
95,10,21,Ticks_Linear_5,117,9999,9999,9999,1124481096
95,10,21,Ticks_Linear_5,118,9999,9999,9999,1125191776
95,10,21,Ticks_Linear_5,119,9999,9999,9999,1125901392
95,10,21,Ticks_Linear_5,120,9999,9999,9999,1126621284
95,10,21,Ticks_Linear_5,121,9999,9999,9999,1127341116
95,10,21,Ticks_Linear_5,122,9999,9999,9999,1128062060
95,10,21,Ticks_Linear_5,123,9999,9999,9999,1128781876
95,10,21,Ticks_Linear_5,124,9999,9999,9999,1129501820
95,10,21,Ticks_Linear_5,125,9999,9999,9999,1130231900
95,10,21,Ticks_Linear_5,126,9999,9999,9999,1130961976
95,10,21,Ticks_Linear_5,127,9999,9999,9999,1131691080
95,10,21,Ticks_Linear_5,128,9999,9999,9999,1132421236
95,10,21,Ticks_Linear_5,129,9999,9999,9999,1133151312
95,10,21,Ticks_Linear_5,130,9999,9999,9999,1133891648
95,10,21,Ticks_Linear_5,131,9999,9999,9999,1134632036
95,10,21,Ticks_Linear_5,132,9999,9999,9999,1135371324
95,10,21,Ticks_Linear_5,133,9999,9999,9999,1136111736
95,10,21,Ticks_Linear_5,134,9999,9999,9999,1136852072
95,10,21,Ticks_Linear_5,135,9999,9999,9999,1137601624
95,10,21,Ticks_Linear_5,136,9999,9999,9999,1138351172
95,10,21,Ticks_Linear_5,137,9999,9999,9999,1139101776
95,10,21,Ticks_Linear_5,138,9999,9999,9999,1139851348
95,10,21,Ticks_Linear_5,139,9999,9999,9999,1140601936
95,10,21,Ticks_Linear_5,140,9999,9999,9999,1141361744
95,10,21,Ticks_Linear_5,141,9999,9999,9999,1142121552
95,10,21,Ticks_Linear_5,142,9999,9999,9999,1142881360
95,10,21,Ticks_Linear_5,143,9999,9999,9999,1143641180
95,10,21,Ticks_Linear_5,144,9999,9999,9999,1144401976
95,10,21,Ticks_Linear_5,145,9999,9999,9999,1145172044
95,10,21,Ticks_Linear_5,146,9999,9999,9999,1145942112
95,10,21,Ticks_Linear_5,147,9999,9999,9999,1146721388
95,10,21,Ticks_Linear_5,148,9999,9999,9999,1147491384
95,10,21,Ticks_Linear_5,149,9999,9999,9999,1148261448
95,10,21,Ticks_Linear_5,150,9999,9999,9999,1149041776
95,10,21,Ticks_Linear_5,151,9999,9999,9999,1149822028
95,10,21,Ticks_Linear_5,152,9999,9999,9999,1150601308
95,10,21,Ticks_Linear_5,153,9999,9999,9999,1151381568
95,10,21,Ticks_Linear_5,154,9999,9999,9999,1152161888
95,10,21,Ticks_Linear_5,155,9999,9999,9999,1152951352
95,10,21,Ticks_Linear_5,156,9999,9999,9999,1153741936
95,10,21,Ticks_Linear_5,157,9999,9999,9999,1154531404
95,10,21,Ticks_Linear_5,158,9999,9999,9999,1155321916
95,10,21,Ticks_Linear_5,159,9999,9999,9999,1156111460
95,10,21,Ticks_Linear_5,160,9999,9999,9999,1156911184
95,10,21,Ticks_Linear_5,161,9999,9999,9999,1157711924
95,10,21,Ticks_Linear_5,162,9999,9999,9999,1158511720
95,10,21,Ticks_Linear_5,163,9999,9999,9999,1159311440
95,10,21,Ticks_Linear_5,164,9999,9999,9999,1160111164
95,10,21,Ticks_Linear_5,165,9999,9999,9999,1160921148
95,10,21,Ticks_Linear_5,166,9999,9999,9999,1161731160
95,10,21,Ticks_Linear_5,167,9999,9999,9999,1162541172
95,10,21,Ticks_Linear_5,168,9999,9999,9999,1163351116
95,10,21,Ticks_Linear_5,169,9999,9999,9999,1164161100
95,11,25,Jits_Pract_5,0,5,56,103,1211177484
95,11,25,Jits_Pract_5,1,5,63,98,1211180584
95,11,25,Jits_Pract_5,2,5,80,127,1211183704
95,11,25,Jits_Pract_5,0,5,56,103,1211677060
95,11,25,Jits_Pract_5,1,5,63,98,1211680232
95,11,25,Jits_Pract_5,2,5,80,127,1211683428
95,11,25,Jits_Pract_5,0,5,56,103,1212176804
95,11,25,Jits_Pract_5,1,5,80,127,1212187000
95,11,25,Jits_Pract_5,2,5,63,98,1212206560
95,11,25,Jits_Pract_5,0,5,63,98,1212627596
95,11,25,Jits_Pract_5,1,5,80,127,1212656976
95,11,25,Jits_Pract_5,2,5,56,103,1212667540
95,11,25,Jits_Pract_5,0,5,80,127,1213186364
95,11,25,Jits_Pract_5,1,5,56,103,1213196636
95,11,25,Jits_Pract_5,2,5,63,98,1213227508
95,11,25,Jits_Pract_5,0,5,63,98,1213676824
95,11,25,Jits_Pract_5,1,5,56,103,1213706572
95,11,25,Jits_Pract_5,2,5,80,127,1213716992
95,11,25,Jits_Pract_5,0,5,56,103,1214126432
95,11,25,Jits_Pract_5,1,5,63,98,1214176712
95,11,25,Jits_Pract_5,2,5,80,127,1214197392
95,11,25,Jits_Pract_5,0,5,80,127,1214627520
95,11,25,Jits_Pract_5,1,5,63,98,1214677348
95,11,25,Jits_Pract_5,2,5,56,103,1214717364
95,11,25,Jits_Pract_5,0,5,56,103,1215126968
95,11,25,Jits_Pract_5,1,5,63,98,1215156492
95,11,25,Jits_Pract_5,2,5,80,127,1215227368
95,11,25,Jits_Pract_5,0,5,56,103,1215626636
95,11,25,Jits_Pract_5,1,5,80,127,1215686952
95,11,25,Jits_Pract_5,2,5,63,98,1215716700
95,11,25,Jits_Pract_5,0,5,56,103,1216136496
95,11,25,Jits_Pract_5,1,5,63,98,1216146764
95,11,25,Jits_Pract_5,2,5,80,127,1216186704
95,11,25,Jits_Pract_5,0,5,63,98,1216627388
95,11,25,Jits_Pract_5,1,5,80,127,1216706888
95,11,25,Jits_Pract_5,2,5,56,103,1216717232
95,11,25,Jits_Pract_5,0,5,63,98,1217176796
95,11,25,Jits_Pract_5,1,5,56,103,1217216728
95,11,25,Jits_Pract_5,2,5,80,127,1217219872
95,11,25,Jits_Pract_5,0,5,56,103,1217636736
95,11,25,Jits_Pract_5,1,5,63,98,1217647156
95,11,25,Jits_Pract_5,2,5,80,127,1217686796
95,11,25,Jits_Pract_5,0,5,56,103,1218127408
95,11,25,Jits_Pract_5,1,5,63,98,1218130400
95,11,25,Jits_Pract_5,2,5,80,127,1218146596
95,11,25,Jits_Pract_5,0,9999,9999,9999,1211424844
95,11,25,Jits_Pract_5,1,9999,9999,9999,1211924572
95,11,25,Jits_Pract_5,2,9999,9999,9999,1212424292
95,11,25,Jits_Pract_5,3,9999,9999,9999,1212925004
95,11,25,Jits_Pract_5,4,9999,9999,9999,1213424740
95,11,25,Jits_Pract_5,5,9999,9999,9999,1213924416
95,11,25,Jits_Pract_5,6,9999,9999,9999,1214424144
95,11,25,Jits_Pract_5,7,9999,9999,9999,1214924856
95,11,25,Jits_Pract_5,8,9999,9999,9999,1215424600
95,11,25,Jits_Pract_5,9,9999,9999,9999,1215924348
95,11,25,Jits_Pract_5,10,9999,9999,9999,1216425060
95,11,25,Jits_Pract_5,11,9999,9999,9999,1216924728
95,11,25,Jits_Pract_5,12,9999,9999,9999,1217424452
95,11,25,Jits_Pract_5,13,9999,9999,9999,1217924184
95,11,25,Jits_Pract_5,14,9999,9999,9999,1218424884
95,12,24,Jits_Pract_8,0,5,56,103,1269142900
95,12,24,Jits_Pract_8,1,5,63,98,1269146072
95,12,24,Jits_Pract_8,2,5,80,127,1269149192
95,12,24,Jits_Pract_8,0,5,56,103,1269942688
95,12,24,Jits_Pract_8,1,5,63,98,1269945936
95,12,24,Jits_Pract_8,2,5,80,127,1269948984
95,12,24,Jits_Pract_8,0,5,80,127,1270682932
95,12,24,Jits_Pract_8,1,1,48,26,1270755272
95,12,24,Jits_Pract_8,2,5,63,98,1270773060
95,12,24,Jits_Pract_8,3,5,56,103,1270783252
95,12,24,Jits_Pract_8,0,5,56,103,1271503156
95,12,24,Jits_Pract_8,1,5,63,98,1271512380
95,12,24,Jits_Pract_8,2,1,48,29,1271533928
95,12,24,Jits_Pract_8,3,5,80,127,1271602676
95,12,24,Jits_Pract_8,0,1,48,29,1272260868
95,12,24,Jits_Pract_8,1,5,63,98,1272273396
95,12,24,Jits_Pract_8,2,5,80,127,1272302924
95,12,24,Jits_Pract_8,3,5,56,103,1272332600
95,12,24,Jits_Pract_8,0,1,48,33,1273013860
95,12,24,Jits_Pract_8,1,5,56,103,1273073148
95,12,24,Jits_Pract_8,2,5,80,127,1273173332
95,12,24,Jits_Pract_8,3,5,63,98,1273222708
95,12,24,Jits_Pract_8,0,5,56,103,1273872692
95,12,24,Jits_Pract_8,1,1,48,29,1273885172
95,12,24,Jits_Pract_8,2,5,80,127,1273923060
95,12,24,Jits_Pract_8,3,5,63,98,1273962848
95,12,24,Jits_Pract_8,0,1,48,28,1274666796
95,12,24,Jits_Pract_8,1,5,80,127,1274703192
95,12,24,Jits_Pract_8,2,5,63,98,1274733016
95,12,24,Jits_Pract_8,3,5,56,103,1274802752
95,12,24,Jits_Pract_8,0,1,48,29,1275468304
95,12,24,Jits_Pract_8,1,5,63,98,1275532620
95,12,24,Jits_Pract_8,2,5,56,103,1275564672
95,12,24,Jits_Pract_8,3,5,80,127,1275622744
95,12,24,Jits_Pract_8,0,5,56,103,1276272968
95,12,24,Jits_Pract_8,1,5,80,127,1276276108
95,12,24,Jits_Pract_8,2,1,48,25,1276296684
95,12,24,Jits_Pract_8,3,5,63,98,1276392832
95,12,24,Jits_Pract_8,0,1,48,21,1277079424
95,12,24,Jits_Pract_8,1,5,56,103,1277152660
95,12,24,Jits_Pract_8,2,5,80,127,1277192808
95,12,24,Jits_Pract_8,3,5,63,98,1277202856
95,12,24,Jits_Pract_8,0,1,48,31,1277885040
95,12,24,Jits_Pract_8,1,5,56,103,1277912420
95,12,24,Jits_Pract_8,2,5,80,127,1277932876
95,12,24,Jits_Pract_8,3,5,63,98,1278012680
95,12,24,Jits_Pract_8,0,5,80,127,1278702892
95,12,24,Jits_Pract_8,1,1,48,30,1278713580
95,12,24,Jits_Pract_8,2,5,56,103,1278803456
95,12,24,Jits_Pract_8,3,5,63,98,1278812740
95,12,24,Jits_Pract_8,0,5,63,98,1279473000
95,12,24,Jits_Pract_8,1,1,48,29,1279508404
95,12,24,Jits_Pract_8,2,5,80,127,1279533780
95,12,24,Jits_Pract_8,3,5,56,103,1279542708
95,12,24,Jits_Pract_8,0,1,48,29,1280200036
95,12,24,Jits_Pract_8,1,5,56,103,1280272672
95,12,24,Jits_Pract_8,2,5,63,98,1280343632
95,12,24,Jits_Pract_8,3,5,80,127,1280346996
95,12,24,Jits_Pract_8,0,9999,9999,9999,1269540980
95,12,24,Jits_Pract_8,1,9999,9999,9999,1270340720
95,12,24,Jits_Pract_8,2,9999,9999,9999,1271140432
95,12,24,Jits_Pract_8,3,9999,9999,9999,1271940200
95,12,24,Jits_Pract_8,4,9999,9999,9999,1272740940
95,12,24,Jits_Pract_8,5,9999,9999,9999,1273540696
95,12,24,Jits_Pract_8,6,9999,9999,9999,1274340448
95,12,24,Jits_Pract_8,7,9999,9999,9999,1275140148
95,12,24,Jits_Pract_8,8,9999,9999,9999,1275940956
95,12,24,Jits_Pract_8,9,9999,9999,9999,1276740720
95,12,24,Jits_Pract_8,10,9999,9999,9999,1277540424
95,12,24,Jits_Pract_8,11,9999,9999,9999,1278340180
95,12,24,Jits_Pract_8,12,9999,9999,9999,1279140920
95,12,24,Jits_Pract_8,13,9999,9999,9999,1279940688
95,12,24,Jits_Pract_8,14,9999,9999,9999,1280740428
95,13,25,Jits_Pract_5,0,5,56,103,1288704616
95,13,25,Jits_Pract_5,1,5,63,98,1288707488
95,13,25,Jits_Pract_5,2,5,80,127,1288710612
95,13,25,Jits_Pract_5,0,5,56,103,1289204040
95,13,25,Jits_Pract_5,1,5,63,98,1289207136
95,13,25,Jits_Pract_5,2,5,80,127,1289210408
95,13,25,Jits_Pract_5,0,1,48,22,1289656548
95,13,25,Jits_Pract_5,1,5,56,103,1289703776
95,13,25,Jits_Pract_5,2,5,80,127,1289713896
95,13,25,Jits_Pract_5,3,5,63,98,1289733532
95,13,25,Jits_Pract_5,0,5,63,98,1290154472
95,13,25,Jits_Pract_5,1,5,80,127,1290183928
95,13,25,Jits_Pract_5,2,5,56,103,1290194568
95,13,25,Jits_Pract_5,3,1,48,30,1290216192
95,13,25,Jits_Pract_5,0,1,48,31,1290652336
95,13,25,Jits_Pract_5,1,5,80,127,1290713420
95,13,25,Jits_Pract_5,2,5,56,103,1290723840
95,13,25,Jits_Pract_5,3,5,63,98,1290754544
95,13,25,Jits_Pract_5,0,1,48,27,1291185736
95,13,25,Jits_Pract_5,1,5,63,98,1291203896
95,13,25,Jits_Pract_5,2,5,56,103,1291233572
95,13,25,Jits_Pract_5,3,5,80,127,1291243768
95,13,25,Jits_Pract_5,0,5,56,103,1291653624
95,13,25,Jits_Pract_5,1,1,48,33,1291663040
95,13,25,Jits_Pract_5,2,5,63,98,1291703596
95,13,25,Jits_Pract_5,3,5,80,127,1291724280
95,13,25,Jits_Pract_5,0,5,80,127,1292154228
95,13,25,Jits_Pract_5,1,1,48,34,1292199668
95,13,25,Jits_Pract_5,2,5,63,98,1292204572
95,13,25,Jits_Pract_5,3,5,56,103,1292244432
95,13,25,Jits_Pract_5,0,5,56,103,1292653936
95,13,25,Jits_Pract_5,1,1,48,22,1292681164
95,13,25,Jits_Pract_5,2,5,63,98,1292683604
95,13,25,Jits_Pract_5,3,5,80,127,1292754552
95,13,25,Jits_Pract_5,0,5,56,103,1293153564
95,13,25,Jits_Pract_5,1,1,48,22,1293182536
95,13,25,Jits_Pract_5,2,5,80,127,1293214172
95,13,25,Jits_Pract_5,3,5,63,98,1293243700
95,13,25,Jits_Pract_5,0,1,48,26,1293654512
95,13,25,Jits_Pract_5,1,5,56,103,1293663676
95,13,25,Jits_Pract_5,2,5,63,98,1293673872
95,13,25,Jits_Pract_5,3,5,80,127,1293713884
95,13,25,Jits_Pract_5,0,1,48,29,1294148276
95,13,25,Jits_Pract_5,1,5,63,98,1294164412
95,13,25,Jits_Pract_5,2,5,80,127,1294244284
95,13,25,Jits_Pract_5,3,5,56,103,1294253344
95,13,25,Jits_Pract_5,0,1,48,22,1294669844
95,13,25,Jits_Pract_5,1,5,63,98,1294714300
95,13,25,Jits_Pract_5,2,5,56,103,1294754312
95,13,25,Jits_Pract_5,3,5,80,127,1294757380
95,13,25,Jits_Pract_5,0,5,56,103,1295174060
95,13,25,Jits_Pract_5,1,1,48,21,1295175324
95,13,25,Jits_Pract_5,2,5,63,98,1295184400
95,13,25,Jits_Pract_5,3,5,80,127,1295224336
95,13,25,Jits_Pract_5,0,5,56,103,1295663500
95,13,25,Jits_Pract_5,1,5,63,98,1295666416
95,13,25,Jits_Pract_5,2,1,48,28,1295673140
95,13,25,Jits_Pract_5,3,5,80,127,1295683952
95,13,25,Jits_Pract_5,0,9999,9999,9999,1288951904
95,13,25,Jits_Pract_5,1,9999,9999,9999,1289451628
95,13,25,Jits_Pract_5,2,9999,9999,9999,1289951352
95,13,25,Jits_Pract_5,3,9999,9999,9999,1290452084
95,13,25,Jits_Pract_5,4,9999,9999,9999,1290951780
95,13,25,Jits_Pract_5,5,9999,9999,9999,1291451472
95,13,25,Jits_Pract_5,6,9999,9999,9999,1291951164
95,13,25,Jits_Pract_5,7,9999,9999,9999,1292451916
95,13,25,Jits_Pract_5,8,9999,9999,9999,1292951624
95,13,25,Jits_Pract_5,9,9999,9999,9999,1293451332
95,13,25,Jits_Pract_5,10,9999,9999,9999,1293952080
95,13,25,Jits_Pract_5,11,9999,9999,9999,1294462036
95,13,25,Jits_Pract_5,12,9999,9999,9999,1294961724
95,13,25,Jits_Pract_5,13,9999,9999,9999,1295461484
95,13,25,Jits_Pract_5,14,9999,9999,9999,1295961176
95,14,15,Jits_Phase_8,0,5,56,103,1323906384
95,14,15,Jits_Phase_8,1,5,63,98,1323909404
95,14,15,Jits_Phase_8,2,5,80,127,1323912532
95,14,15,Jits_Phase_8,0,5,56,103,1324707220
95,14,15,Jits_Phase_8,1,5,63,98,1324710168
95,14,15,Jits_Phase_8,2,5,80,127,1324713368
95,14,15,Jits_Phase_8,3,1,48,23,1324954824
95,14,15,Jits_Phase_8,0,5,80,127,1325446604
95,14,15,Jits_Phase_8,1,5,63,98,1325536664
95,14,15,Jits_Phase_8,2,1,48,26,1325544496
95,14,15,Jits_Phase_8,3,5,56,103,1325547000
95,14,15,Jits_Phase_8,0,1,48,23,1326263420
95,14,15,Jits_Phase_8,1,5,56,103,1326266820
95,14,15,Jits_Phase_8,2,5,63,98,1326277016
95,14,15,Jits_Phase_8,3,5,80,127,1326367056
95,14,15,Jits_Phase_8,0,5,63,98,1327036920
95,14,15,Jits_Phase_8,1,5,80,127,1327066444
95,14,15,Jits_Phase_8,2,1,48,17,1327090088
95,14,15,Jits_Phase_8,3,5,56,103,1327097160
95,14,15,Jits_Phase_8,0,5,56,103,1327836596
95,14,15,Jits_Phase_8,1,1,48,24,1327854712
95,14,15,Jits_Phase_8,2,5,80,127,1327937012
95,14,15,Jits_Phase_8,3,5,63,98,1327987124
95,14,15,Jits_Phase_8,0,5,56,103,1328637344
95,14,15,Jits_Phase_8,1,5,80,127,1328686304
95,14,15,Jits_Phase_8,2,1,48,23,1328701176
95,14,15,Jits_Phase_8,3,5,63,98,1328727428
95,14,15,Jits_Phase_8,0,1,48,26,1329447052
95,14,15,Jits_Phase_8,1,5,80,127,1329466952
95,14,15,Jits_Phase_8,2,5,63,98,1329496332
95,14,15,Jits_Phase_8,3,5,56,103,1329567040
95,14,15,Jits_Phase_8,0,1,48,25,1330242328
95,14,15,Jits_Phase_8,1,5,63,98,1330297276
95,14,15,Jits_Phase_8,2,5,56,103,1330327100
95,14,15,Jits_Phase_8,3,5,80,127,1330387252
95,14,15,Jits_Phase_8,0,5,56,103,1331036584
95,14,15,Jits_Phase_8,1,5,80,127,1331039576
95,14,15,Jits_Phase_8,2,1,48,28,1331046972
95,14,15,Jits_Phase_8,3,5,63,98,1331157332
95,14,15,Jits_Phase_8,0,1,48,22,1331824088
95,14,15,Jits_Phase_8,1,5,56,103,1331917028
95,14,15,Jits_Phase_8,2,5,80,127,1331957100
95,14,15,Jits_Phase_8,3,5,63,98,1331967224
95,14,15,Jits_Phase_8,0,1,48,22,1332656384
95,14,15,Jits_Phase_8,1,5,56,103,1332676860
95,14,15,Jits_Phase_8,2,5,80,127,1332696568
95,14,15,Jits_Phase_8,3,5,63,98,1332777320
95,14,15,Jits_Phase_8,0,1,48,24,1333451936
95,14,15,Jits_Phase_8,1,5,80,127,1333466428
95,14,15,Jits_Phase_8,2,5,56,103,1333566908
95,14,15,Jits_Phase_8,3,5,63,98,1333577180
95,14,15,Jits_Phase_8,0,1,48,24,1334207576
95,14,15,Jits_Phase_8,1,5,63,98,1334236596
95,14,15,Jits_Phase_8,2,5,80,127,1334296912
95,14,15,Jits_Phase_8,3,5,56,103,1334307092
95,14,15,Jits_Phase_8,0,1,48,27,1334996468
95,14,15,Jits_Phase_8,1,5,56,103,1335037248
95,14,15,Jits_Phase_8,2,5,63,98,1335106864
95,14,15,Jits_Phase_8,3,5,80,127,1335110376
95,14,15,Jits_Phase_8,0,1,48,27,1335770056
95,14,15,Jits_Phase_8,1,5,63,98,1335866836
95,14,15,Jits_Phase_8,2,5,56,103,1335917024
95,14,15,Jits_Phase_8,3,5,80,127,1335920236
95,14,15,Jits_Phase_8,0,1,48,19,1336582012
95,14,15,Jits_Phase_8,1,5,56,103,1336626420
95,14,15,Jits_Phase_8,2,5,80,127,1336629564
95,14,15,Jits_Phase_8,3,5,63,98,1336716612
95,14,15,Jits_Phase_8,0,1,48,24,1337371940
95,14,15,Jits_Phase_8,1,5,63,98,1337467220
95,14,15,Jits_Phase_8,2,5,56,103,1337557268
95,14,15,Jits_Phase_8,3,5,80,127,1337587016
95,14,15,Jits_Phase_8,0,1,48,22,1338159812
95,14,15,Jits_Phase_8,1,5,56,103,1338256852
95,14,15,Jits_Phase_8,2,5,63,98,1338357100
95,14,15,Jits_Phase_8,3,5,80,127,1338386852
95,14,15,Jits_Phase_8,0,1,48,20,1338986032
95,14,15,Jits_Phase_8,1,5,63,98,1339076860
95,14,15,Jits_Phase_8,2,5,56,103,1339087192
95,14,15,Jits_Phase_8,3,5,80,127,1339177320
95,14,15,Jits_Phase_8,0,1,48,22,1339810652
95,14,15,Jits_Phase_8,1,5,63,98,1339897148
95,14,15,Jits_Phase_8,2,5,56,103,1339977028
95,14,15,Jits_Phase_8,3,5,80,127,1339980092
95,14,15,Jits_Phase_8,0,1,48,25,1340631688
95,14,15,Jits_Phase_8,1,5,80,127,1340656968
95,14,15,Jits_Phase_8,2,5,63,98,1340676456
95,14,15,Jits_Phase_8,3,5,56,103,1340736928
95,14,15,Jits_Phase_8,0,1,48,19,1341434064
95,14,15,Jits_Phase_8,1,5,56,103,1341496832
95,14,15,Jits_Phase_8,2,5,63,98,1341517216
95,14,15,Jits_Phase_8,3,5,80,127,1341520800
95,14,15,Jits_Phase_8,0,5,63,98,1342237000
95,14,15,Jits_Phase_8,1,1,48,25,1342259252
95,14,15,Jits_Phase_8,2,5,80,127,1342316892
95,14,15,Jits_Phase_8,3,5,56,103,1342327088
95,14,15,Jits_Phase_8,0,1,48,19,1343042212
95,14,15,Jits_Phase_8,1,5,63,98,1343057304
95,14,15,Jits_Phase_8,2,5,56,103,1343076716
95,14,15,Jits_Phase_8,3,5,80,127,1343126768
95,14,15,Jits_Phase_8,0,1,48,22,1343822484
95,14,15,Jits_Phase_8,1,5,80,127,1343856980
95,14,15,Jits_Phase_8,2,5,63,98,1343896920
95,14,15,Jits_Phase_8,3,5,56,103,1343917512
95,14,15,Jits_Phase_8,0,1,48,21,1344641272
95,14,15,Jits_Phase_8,1,5,56,103,1344696892
95,14,15,Jits_Phase_8,2,5,63,98,1344707088
95,14,15,Jits_Phase_8,3,5,80,127,1344727548
95,14,15,Jits_Phase_8,0,5,56,103,1345426976
95,14,15,Jits_Phase_8,1,1,48,19,1345462832
95,14,15,Jits_Phase_8,2,5,63,98,1345516880
95,14,15,Jits_Phase_8,3,5,80,127,1345577328
95,14,15,Jits_Phase_8,0,1,48,23,1346257612
95,14,15,Jits_Phase_8,1,5,80,127,1346258876
95,14,15,Jits_Phase_8,2,5,56,103,1346266608
95,14,15,Jits_Phase_8,3,5,63,98,1346337332
95,14,15,Jits_Phase_8,0,1,48,27,1347058680
95,14,15,Jits_Phase_8,1,5,63,98,1347086732
95,14,15,Jits_Phase_8,2,5,80,127,1347177024
95,14,15,Jits_Phase_8,3,5,56,103,1347187072
95,14,15,Jits_Phase_8,0,5,63,98,1347816900
95,14,15,Jits_Phase_8,1,5,80,127,1347867028
95,14,15,Jits_Phase_8,2,1,48,23,1347892496
95,14,15,Jits_Phase_8,3,5,56,103,1347927360
95,14,15,Jits_Phase_8,0,5,56,103,1348637036
95,14,15,Jits_Phase_8,1,1,48,27,1348661752
95,14,15,Jits_Phase_8,2,5,80,127,1348687180
95,14,15,Jits_Phase_8,3,5,63,98,1348706744
95,14,15,Jits_Phase_8,0,5,56,103,1349407212
95,14,15,Jits_Phase_8,1,1,48,24,1349439876
95,14,15,Jits_Phase_8,2,5,80,127,1349466576
95,14,15,Jits_Phase_8,3,5,63,98,1349537004
95,14,15,Jits_Phase_8,0,5,56,103,1350206708
95,14,15,Jits_Phase_8,1,1,48,25,1350230948
95,14,15,Jits_Phase_8,2,5,80,127,1350236528
95,14,15,Jits_Phase_8,3,5,63,98,1350267248
95,14,15,Jits_Phase_8,0,1,48,21,1351004872
95,14,15,Jits_Phase_8,1,5,56,103,1351046700
95,14,15,Jits_Phase_8,2,5,80,127,1351066860
95,14,15,Jits_Phase_8,3,5,63,98,1351127308
95,14,15,Jits_Phase_8,0,1,48,21,1351805600
95,14,15,Jits_Phase_8,1,5,80,127,1351927056
95,14,15,Jits_Phase_8,2,5,56,103,1351937256
95,14,15,Jits_Phase_8,3,5,63,98,1351946700
95,14,15,Jits_Phase_8,0,1,48,19,1352657732
95,14,15,Jits_Phase_8,1,5,56,103,1352686904
95,14,15,Jits_Phase_8,2,5,80,127,1352726844
95,14,15,Jits_Phase_8,3,5,63,98,1352756676
95,14,15,Jits_Phase_8,0,5,56,103,1353456928
95,14,15,Jits_Phase_8,1,1,48,19,1353469560
95,14,15,Jits_Phase_8,2,5,63,98,1353486896
95,14,15,Jits_Phase_8,3,5,80,127,1353526708
95,14,15,Jits_Phase_8,0,5,80,127,1354206652
95,14,15,Jits_Phase_8,1,1,48,25,1354223176
95,14,15,Jits_Phase_8,2,5,63,98,1354256700
95,14,15,Jits_Phase_8,3,5,56,103,1354277156
95,14,15,Jits_Phase_8,0,1,48,18,1355001212
95,14,15,Jits_Phase_8,1,5,56,103,1355036980
95,14,15,Jits_Phase_8,2,5,80,127,1355106744
95,14,15,Jits_Phase_8,3,5,63,98,1355167136
95,14,15,Jits_Phase_8,0,1,48,20,1355808096
95,14,15,Jits_Phase_8,1,5,80,127,1355836840
95,14,15,Jits_Phase_8,2,5,63,98,1355927036
95,14,15,Jits_Phase_8,3,5,56,103,1355947344
95,14,15,Jits_Phase_8,0,1,48,18,1356650204
95,14,15,Jits_Phase_8,1,5,63,98,1356656980
95,14,15,Jits_Phase_8,2,5,56,103,1356676392
95,14,15,Jits_Phase_8,3,5,80,127,1356717376
95,14,15,Jits_Phase_8,0,1,48,18,1357383128
95,14,15,Jits_Phase_8,1,5,80,127,1357416876
95,14,15,Jits_Phase_8,2,5,63,98,1357437412
95,14,15,Jits_Phase_8,3,5,56,103,1357517192
95,14,15,Jits_Phase_8,0,5,63,98,1358207272
95,14,15,Jits_Phase_8,1,1,48,21,1358285396
95,14,15,Jits_Phase_8,2,5,56,103,1358317104
95,14,15,Jits_Phase_8,3,5,80,127,1358320168
95,14,15,Jits_Phase_8,0,1,48,20,1359001868
95,14,15,Jits_Phase_8,1,5,63,98,1359026696
95,14,15,Jits_Phase_8,2,5,56,103,1359036660
95,14,15,Jits_Phase_8,3,5,80,127,1359039880
95,14,15,Jits_Phase_8,0,1,48,18,1359791120
95,14,15,Jits_Phase_8,1,5,56,103,1359806732
95,14,15,Jits_Phase_8,2,5,80,127,1359926620
95,14,15,Jits_Phase_8,3,5,63,98,1359966556
95,14,15,Jits_Phase_8,0,1,48,22,1360625896
95,14,15,Jits_Phase_8,1,5,56,103,1360627468
95,14,15,Jits_Phase_8,2,5,80,127,1360706916
95,14,15,Jits_Phase_8,3,5,63,98,1360727436
95,14,15,Jits_Phase_8,0,5,56,103,1361426860
95,14,15,Jits_Phase_8,1,1,48,21,1361437252
95,14,15,Jits_Phase_8,2,5,63,98,1361537672
95,14,15,Jits_Phase_8,3,5,80,127,1361540884
95,14,15,Jits_Phase_8,0,1,48,21,1362255840
95,14,15,Jits_Phase_8,1,5,56,103,1362266728
95,14,15,Jits_Phase_8,2,5,80,127,1362297152
95,14,15,Jits_Phase_8,3,5,63,98,1362316788
95,14,15,Jits_Phase_8,0,1,48,18,1363050120
95,14,15,Jits_Phase_8,1,5,63,98,1363056968
95,14,15,Jits_Phase_8,2,5,56,103,1363067316
95,14,15,Jits_Phase_8,3,5,80,127,1363076612
95,14,15,Jits_Phase_8,0,5,80,127,1363846612
95,14,15,Jits_Phase_8,1,1,48,16,1363883664
95,14,15,Jits_Phase_8,2,5,56,103,1363896660
95,14,15,Jits_Phase_8,3,5,63,98,1363936896
95,14,15,Jits_Phase_8,0,1,48,16,1364643272
95,14,15,Jits_Phase_8,1,5,80,127,1364666756
95,14,15,Jits_Phase_8,2,5,63,98,1364687364
95,14,15,Jits_Phase_8,3,5,56,103,1364737340
95,14,15,Jits_Phase_8,0,1,48,20,1365442424
95,14,15,Jits_Phase_8,1,5,80,127,1365476700
95,14,15,Jits_Phase_8,2,5,56,103,1365506596
95,14,15,Jits_Phase_8,3,5,63,98,1365577184
95,14,15,Jits_Phase_8,0,1,48,18,1366292008
95,14,15,Jits_Phase_8,1,5,56,103,1366326756
95,14,15,Jits_Phase_8,2,5,80,127,1366336800
95,14,15,Jits_Phase_8,3,5,63,98,1366376812
95,14,15,Jits_Phase_8,0,5,56,103,1367037268
95,14,15,Jits_Phase_8,1,5,63,98,1367056756
95,14,15,Jits_Phase_8,2,1,48,22,1367084092
95,14,15,Jits_Phase_8,3,5,80,127,1367127424
95,14,15,Jits_Phase_8,0,1,48,21,1367855336
95,14,15,Jits_Phase_8,1,5,63,98,1367856908
95,14,15,Jits_Phase_8,2,5,80,127,1367917004
95,14,15,Jits_Phase_8,3,5,56,103,1367937536
95,14,15,Jits_Phase_8,0,1,48,24,1368605976
95,14,15,Jits_Phase_8,1,5,80,127,1368647004
95,14,15,Jits_Phase_8,2,5,56,103,1368676828
95,14,15,Jits_Phase_8,3,5,63,98,1368706712
95,14,15,Jits_Phase_8,0,1,48,14,1369387764
95,14,15,Jits_Phase_8,1,5,56,103,1369446756
95,14,15,Jits_Phase_8,2,5,63,98,1369507136
95,14,15,Jits_Phase_8,3,5,80,127,1369566700
95,14,15,Jits_Phase_8,0,1,48,24,1370218316
95,14,15,Jits_Phase_8,1,5,80,127,1370267116
95,14,15,Jits_Phase_8,2,5,56,103,1370286380
95,14,15,Jits_Phase_8,3,5,63,98,1370357244
95,14,15,Jits_Phase_8,0,1,48,21,1371035912
95,14,15,Jits_Phase_8,1,5,80,127,1371066800
95,14,15,Jits_Phase_8,2,5,63,98,1371087188
95,14,15,Jits_Phase_8,3,5,56,103,1371116936
95,14,15,Jits_Phase_8,0,1,48,26,1371854828
95,14,15,Jits_Phase_8,1,5,80,127,1371857264
95,14,15,Jits_Phase_8,2,5,63,98,1371876752
95,14,15,Jits_Phase_8,3,1,48,16,1371926980
95,14,15,Jits_Phase_8,4,5,56,103,1371937268
95,14,15,Jits_Phase_8,0,1,48,19,1372640688
95,14,15,Jits_Phase_8,1,5,80,127,1372656900
95,14,15,Jits_Phase_8,2,5,56,103,1372757456
95,14,15,Jits_Phase_8,3,5,63,98,1372787132
95,14,15,Jits_Phase_8,0,5,63,98,1373446556
95,14,15,Jits_Phase_8,1,1,48,24,1373455604
95,14,15,Jits_Phase_8,2,5,80,127,1373496628
95,14,15,Jits_Phase_8,3,5,56,103,1373517084
95,14,15,Jits_Phase_8,0,1,48,23,1374218332
95,14,15,Jits_Phase_8,1,5,80,127,1374287232
95,14,15,Jits_Phase_8,2,5,56,103,1374316964
95,14,15,Jits_Phase_8,3,5,63,98,1374319884
95,14,15,Jits_Phase_8,0,1,48,22,1375073908
95,14,15,Jits_Phase_8,1,5,63,98,1375137328
95,14,15,Jits_Phase_8,2,5,56,103,1375177176
95,14,15,Jits_Phase_8,3,5,80,127,1375196588
95,14,15,Jits_Phase_8,0,1,48,27,1375873520
95,14,15,Jits_Phase_8,1,5,80,127,1375897080
95,14,15,Jits_Phase_8,2,1,48,17,1375943184
95,14,15,Jits_Phase_8,3,5,63,98,1375976708
95,14,15,Jits_Phase_8,4,5,56,103,1376016720
95,14,15,Jits_Phase_8,0,5,63,98,1376717036
95,14,15,Jits_Phase_8,1,1,48,22,1376758068
95,14,15,Jits_Phase_8,2,5,80,127,1376797052
95,14,15,Jits_Phase_8,3,5,56,103,1376816560
95,14,15,Jits_Phase_8,0,5,56,103,1377556804
95,14,15,Jits_Phase_8,1,5,63,98,1377567224
95,14,15,Jits_Phase_8,2,1,48,17,1377576048
95,14,15,Jits_Phase_8,3,5,80,127,1377606884
95,14,15,Jits_Phase_8,0,5,56,103,1378276784
95,14,15,Jits_Phase_8,1,5,80,127,1378279776
95,14,15,Jits_Phase_8,2,1,48,21,1378328148
95,14,15,Jits_Phase_8,3,5,63,98,1378416976
95,14,15,Jits_Phase_8,0,5,56,103,1379067404
95,14,15,Jits_Phase_8,1,1,48,20,1379138052
95,14,15,Jits_Phase_8,2,5,63,98,1379157484
95,14,15,Jits_Phase_8,3,5,80,127,1379227012
95,14,15,Jits_Phase_8,0,5,63,98,1379946992
95,14,15,Jits_Phase_8,1,5,80,127,1379950208
95,14,15,Jits_Phase_8,2,1,48,15,1379952956
95,14,15,Jits_Phase_8,3,5,56,103,1380007376
95,14,15,Jits_Phase_8,0,1,48,23,1380720484
95,14,15,Jits_Phase_8,1,5,80,127,1380786676
95,14,15,Jits_Phase_8,2,5,56,103,1380807060
95,14,15,Jits_Phase_8,3,5,63,98,1380817992
95,14,15,Jits_Phase_8,0,5,56,103,1381497140
95,14,15,Jits_Phase_8,1,5,63,98,1381506512
95,14,15,Jits_Phase_8,2,1,48,23,1381548812
95,14,15,Jits_Phase_8,3,5,80,127,1381577084
95,14,15,Jits_Phase_8,0,5,80,127,1382296836
95,14,15,Jits_Phase_8,1,5,56,103,1382347112
95,14,15,Jits_Phase_8,2,1,48,18,1382369560
95,14,15,Jits_Phase_8,3,5,63,98,1382397380
95,14,15,Jits_Phase_8,0,5,56,103,1383176628
95,14,15,Jits_Phase_8,1,5,63,98,1383186824
95,14,15,Jits_Phase_8,2,5,80,127,1383226640
95,14,15,Jits_Phase_8,0,5,56,103,1383916884
95,14,15,Jits_Phase_8,1,5,63,98,1383956824
95,14,15,Jits_Phase_8,2,1,48,26,1383982364
95,14,15,Jits_Phase_8,3,5,80,127,1384006968
95,14,15,Jits_Phase_8,0,5,80,127,1384676648
95,14,15,Jits_Phase_8,1,1,48,20,1384690552
95,14,15,Jits_Phase_8,2,5,56,103,1384726844
95,14,15,Jits_Phase_8,3,5,63,98,1384747552
95,14,15,Jits_Phase_8,0,1,48,20,1385468968
95,14,15,Jits_Phase_8,1,5,80,127,1385486676
95,14,15,Jits_Phase_8,2,5,63,98,1385547388
95,14,15,Jits_Phase_8,3,5,56,103,1385627016
95,14,15,Jits_Phase_8,0,5,80,127,1386267032
95,14,15,Jits_Phase_8,1,1,48,21,1386300292
95,14,15,Jits_Phase_8,2,5,56,103,1386306916
95,14,15,Jits_Phase_8,3,5,63,98,1386327600
95,14,15,Jits_Phase_8,0,1,48,21,1387060116
95,14,15,Jits_Phase_8,1,5,56,103,1387116792
95,14,15,Jits_Phase_8,2,5,80,127,1387127508
95,14,15,Jits_Phase_8,3,5,63,98,1387167136
95,14,15,Jits_Phase_8,0,1,48,23,1387855688
95,14,15,Jits_Phase_8,1,5,56,103,1387987408
95,14,15,Jits_Phase_8,2,5,63,98,1388027420
95,14,15,Jits_Phase_8,3,5,80,127,1388030784
95,14,15,Jits_Phase_8,0,5,63,98,1388656900
95,14,15,Jits_Phase_8,1,1,48,18,1388690136
95,14,15,Jits_Phase_8,2,5,80,127,1388696984
95,14,15,Jits_Phase_8,3,5,56,103,1388766512
95,14,15,Jits_Phase_8,0,5,63,98,1389427140
95,14,15,Jits_Phase_8,1,1,48,19,1389430408
95,14,15,Jits_Phase_8,2,5,56,103,1389506780
95,14,15,Jits_Phase_8,3,5,80,127,1389567600
95,14,15,Jits_Phase_8,0,1,48,19,1390189848
95,14,15,Jits_Phase_8,1,5,80,127,1390237004
95,14,15,Jits_Phase_8,2,5,63,98,1390287356
95,14,15,Jits_Phase_8,3,5,56,103,1390316864
95,14,15,Jits_Phase_8,0,1,48,16,1390988104
95,14,15,Jits_Phase_8,1,5,56,103,1391026644
95,14,15,Jits_Phase_8,2,5,63,98,1391076620
95,14,15,Jits_Phase_8,3,5,80,127,1391086876
95,14,15,Jits_Phase_8,0,5,56,103,1391836440
95,14,15,Jits_Phase_8,1,1,48,19,1391838960
95,14,15,Jits_Phase_8,2,5,63,98,1391947404
95,14,15,Jits_Phase_8,3,5,80,127,1391966444
95,14,15,Jits_Phase_8,0,5,63,98,1392637484
95,14,15,Jits_Phase_8,1,1,48,17,1392652444
95,14,15,Jits_Phase_8,2,5,80,127,1392686584
95,14,15,Jits_Phase_8,3,5,56,103,1392776552
95,14,15,Jits_Phase_8,0,1,48,18,1393401024
95,14,15,Jits_Phase_8,1,5,63,98,1393426904
95,14,15,Jits_Phase_8,2,5,80,127,1393456604
95,14,15,Jits_Phase_8,3,5,56,103,1393546496
95,14,15,Jits_Phase_8,0,1,48,21,1394203616
95,14,15,Jits_Phase_8,1,5,63,98,1394226680
95,14,15,Jits_Phase_8,2,5,56,103,1394236724
95,14,15,Jits_Phase_8,3,5,80,127,1394337476
95,14,15,Jits_Phase_8,0,1,48,21,1394969812
95,14,15,Jits_Phase_8,1,5,63,98,1395126512
95,14,15,Jits_Phase_8,2,5,80,127,1395157236
95,14,15,Jits_Phase_8,3,5,56,103,1395186984
95,14,15,Jits_Phase_8,0,1,48,19,1395776424
95,14,15,Jits_Phase_8,1,5,80,127,1395946732
95,14,15,Jits_Phase_8,2,5,63,98,1395957376
95,14,15,Jits_Phase_8,3,5,56,103,1395986752
95,14,15,Jits_Phase_8,0,5,80,127,1396647468
95,14,15,Jits_Phase_8,1,1,48,18,1396663400
95,14,15,Jits_Phase_8,2,5,63,98,1396666652
95,14,15,Jits_Phase_8,3,5,56,103,1396716780
95,14,15,Jits_Phase_8,0,1,48,20,1397450352
95,14,15,Jits_Phase_8,1,5,63,98,1397476680
95,14,15,Jits_Phase_8,2,5,80,127,1397537144
95,14,15,Jits_Phase_8,3,5,56,103,1397556568
95,14,15,Jits_Phase_8,0,1,48,19,1398218644
95,14,15,Jits_Phase_8,1,5,63,98,1398236432
95,14,15,Jits_Phase_8,2,5,56,103,1398286784
95,14,15,Jits_Phase_8,3,5,80,127,1398297128
95,14,15,Jits_Phase_8,0,1,48,26,1399046352
95,14,15,Jits_Phase_8,1,5,56,103,1399067272
95,14,15,Jits_Phase_8,2,5,80,127,1399077692
95,14,15,Jits_Phase_8,3,5,63,98,1399176576
95,14,15,Jits_Phase_8,0,5,80,127,1399826708
95,14,15,Jits_Phase_8,1,5,63,98,1399837052
95,14,15,Jits_Phase_8,2,1,48,15,1399871660
95,14,15,Jits_Phase_8,3,5,56,103,1399986520
95,14,15,Jits_Phase_8,0,1,48,27,1400616208
95,14,15,Jits_Phase_8,1,5,63,98,1400636832
95,14,15,Jits_Phase_8,2,5,80,127,1400676772
95,14,15,Jits_Phase_8,3,5,56,103,1400756624
95,14,15,Jits_Phase_8,0,5,56,103,1401387596
95,14,15,Jits_Phase_8,1,1,48,24,1401480092
95,14,15,Jits_Phase_8,2,5,80,127,1401486792
95,14,15,Jits_Phase_8,3,5,63,98,1401507400
95,14,15,Jits_Phase_8,0,5,80,127,1402206636
95,14,15,Jits_Phase_8,1,5,56,103,1402216832
95,14,15,Jits_Phase_8,2,1,48,22,1402231112
95,14,15,Jits_Phase_8,3,5,63,98,1402307104
95,14,15,Jits_Phase_8,0,5,56,103,1403007388
95,14,15,Jits_Phase_8,1,1,48,25,1403014264
95,14,15,Jits_Phase_8,2,5,63,98,1403026792
95,14,15,Jits_Phase_8,3,5,80,127,1403107468
95,14,15,Jits_Phase_8,0,5,63,98,1403756960
95,14,15,Jits_Phase_8,1,1,48,19,1403766376
95,14,15,Jits_Phase_8,2,5,56,103,1403847232
95,14,15,Jits_Phase_8,3,5,80,127,1403850372
95,14,15,Jits_Phase_8,0,5,56,103,1404587496
95,14,15,Jits_Phase_8,1,1,48,20,1404590320
95,14,15,Jits_Phase_8,2,5,80,127,1404646836
95,14,15,Jits_Phase_8,3,5,63,98,1404657476
95,14,15,Jits_Phase_8,0,1,48,24,1405356304
95,14,15,Jits_Phase_8,1,5,80,127,1405437388
95,14,15,Jits_Phase_8,2,5,56,103,1405446464
95,14,15,Jits_Phase_8,3,5,63,98,1405449528
95,14,15,Jits_Phase_8,0,1,48,14,1406157548
95,14,15,Jits_Phase_8,1,5,56,103,1406197208
95,14,15,Jits_Phase_8,2,5,80,127,1406207404
95,14,15,Jits_Phase_8,3,5,63,98,1406226668
95,14,15,Jits_Phase_8,0,1,48,20,1406963660
95,14,15,Jits_Phase_8,1,5,63,98,1406967368
95,14,15,Jits_Phase_8,2,5,80,127,1407026588
95,14,15,Jits_Phase_8,3,5,56,103,1407076624
95,14,15,Jits_Phase_8,0,1,48,20,1407689780
95,14,15,Jits_Phase_8,1,5,63,98,1407846852
95,14,15,Jits_Phase_8,2,5,56,103,1407857196
95,14,15,Jits_Phase_8,3,5,80,127,1407907396
95,14,15,Jits_Phase_8,0,5,63,98,1408547412
95,14,15,Jits_Phase_8,1,1,48,18,1408551984
95,14,15,Jits_Phase_8,2,5,80,127,1408566548
95,14,15,Jits_Phase_8,3,5,56,103,1408576820
95,14,15,Jits_Phase_8,0,1,48,21,1409328048
95,14,15,Jits_Phase_8,1,5,63,98,1409347176
95,14,15,Jits_Phase_8,2,5,80,127,1409350468
95,14,15,Jits_Phase_8,3,5,56,103,1409386820
95,14,15,Jits_Phase_8,0,1,48,19,1410099460
95,14,15,Jits_Phase_8,1,5,63,98,1410217476
95,14,15,Jits_Phase_8,2,5,80,127,1410247076
95,14,15,Jits_Phase_8,3,5,56,103,1410257272
95,14,15,Jits_Phase_8,0,1,48,19,1410963572
95,14,15,Jits_Phase_8,1,5,56,103,1410966904
95,14,15,Jits_Phase_8,2,5,80,127,1410996504
95,14,15,Jits_Phase_8,3,5,63,98,1411027376
95,14,15,Jits_Phase_8,0,1,48,20,1411772544
95,14,15,Jits_Phase_8,1,5,63,98,1411867260
95,14,15,Jits_Phase_8,2,5,56,103,1411907148
95,14,15,Jits_Phase_8,3,5,80,127,1411910212
95,14,15,Jits_Phase_8,0,5,80,127,1412567468
95,14,15,Jits_Phase_8,1,1,48,21,1412625812
95,14,15,Jits_Phase_8,2,5,56,103,1412647656
95,14,15,Jits_Phase_8,3,5,63,98,1412696364
95,14,15,Jits_Phase_8,0,5,80,127,1413346640
95,14,15,Jits_Phase_8,1,5,56,103,1413367324
95,14,15,Jits_Phase_8,2,1,48,18,1413412172
95,14,15,Jits_Phase_8,3,5,63,98,1413457400
95,14,15,Jits_Phase_8,0,1,48,21,1414176272
95,14,15,Jits_Phase_8,1,5,80,127,1414187332
95,14,15,Jits_Phase_8,2,5,63,98,1414227272
95,14,15,Jits_Phase_8,3,5,56,103,1414267208
95,14,15,Jits_Phase_8,0,1,48,24,1414980244
95,14,15,Jits_Phase_8,1,5,63,98,1414997428
95,14,15,Jits_Phase_8,2,5,80,127,1415056700
95,14,15,Jits_Phase_8,3,5,56,103,1415086436
95,14,15,Jits_Phase_8,0,1,48,18,1415812732
95,14,15,Jits_Phase_8,1,5,56,103,1415837040
95,14,15,Jits_Phase_8,2,5,80,127,1415867160
95,14,15,Jits_Phase_8,3,5,63,98,1415956980
95,14,15,Jits_Phase_8,0,1,48,25,1416627408
95,14,15,Jits_Phase_8,1,5,56,103,1416647132
95,14,15,Jits_Phase_8,2,1,48,17,1416693164
95,14,15,Jits_Phase_8,3,5,80,127,1416756528
95,14,15,Jits_Phase_8,4,5,63,98,1416787900
95,14,15,Jits_Phase_8,0,1,48,20,1417449892
95,14,15,Jits_Phase_8,1,5,56,103,1417497272
95,14,15,Jits_Phase_8,2,5,63,98,1417557300
95,14,15,Jits_Phase_8,3,5,80,127,1417587048
95,14,15,Jits_Phase_8,0,1,48,23,1418267148
95,14,15,Jits_Phase_8,1,5,56,103,1418268560
95,14,15,Jits_Phase_8,2,5,63,98,1418336476
95,14,15,Jits_Phase_8,3,5,80,127,1418357232
95,14,15,Jits_Phase_8,0,1,48,25,1419026948
95,14,15,Jits_Phase_8,1,5,80,127,1419037160
95,14,15,Jits_Phase_8,2,5,63,98,1419056448
95,14,15,Jits_Phase_8,3,5,56,103,1419106720
95,14,15,Jits_Phase_8,0,1,48,24,1419806540
95,14,15,Jits_Phase_8,1,5,63,98,1419857388
95,14,15,Jits_Phase_8,2,5,80,127,1419866536
95,14,15,Jits_Phase_8,3,5,56,103,1419916572
95,14,15,Jits_Phase_8,0,1,48,21,1420609688
95,14,15,Jits_Phase_8,1,5,63,98,1420657140
95,14,15,Jits_Phase_8,2,5,80,127,1420726512
95,14,15,Jits_Phase_8,3,5,56,103,1420747268
95,14,15,Jits_Phase_8,0,1,48,20,1421426088
95,14,15,Jits_Phase_8,1,5,63,98,1421486420
95,14,15,Jits_Phase_8,2,5,80,127,1421490080
95,14,15,Jits_Phase_8,3,5,56,103,1421557352
95,14,15,Jits_Phase_8,0,5,80,127,1422237248
95,14,15,Jits_Phase_8,1,1,48,27,1422243064
95,14,15,Jits_Phase_8,2,5,56,103,1422256432
95,14,15,Jits_Phase_8,3,5,63,98,1422266704
95,14,15,Jits_Phase_8,0,1,48,19,1423038180
95,14,15,Jits_Phase_8,1,5,56,103,1423057236
95,14,15,Jits_Phase_8,2,5,63,98,1423147456
95,14,15,Jits_Phase_8,3,5,80,127,1423150744
95,14,15,Jits_Phase_8,0,1,48,21,1423825972
95,14,15,Jits_Phase_8,1,5,80,127,1423827320
95,14,15,Jits_Phase_8,2,5,56,103,1423836616
95,14,15,Jits_Phase_8,3,5,63,98,1423857076
95,14,15,Jits_Phase_8,0,1,48,21,1424589576
95,14,15,Jits_Phase_8,1,5,63,98,1424627216
95,14,15,Jits_Phase_8,2,5,80,127,1424686348
95,14,15,Jits_Phase_8,3,5,56,103,1424696764
95,14,15,Jits_Phase_8,0,1,48,20,1425418404
95,14,15,Jits_Phase_8,1,5,63,98,1425496376
95,14,15,Jits_Phase_8,2,5,80,127,1425527080
95,14,15,Jits_Phase_8,3,5,56,103,1425567168
95,14,15,Jits_Phase_8,0,1,48,17,1426195912
95,14,15,Jits_Phase_8,1,5,56,103,1426287064
95,14,15,Jits_Phase_8,2,5,80,127,1426297172
95,14,15,Jits_Phase_8,3,5,63,98,1426337256
95,14,15,Jits_Phase_8,0,1,48,19,1427029776
95,14,15,Jits_Phase_8,1,5,80,127,1427046888
95,14,15,Jits_Phase_8,2,5,56,103,1427126760
95,14,15,Jits_Phase_8,3,5,63,98,1427137312
95,14,15,Jits_Phase_8,0,5,80,127,1427896704
95,14,15,Jits_Phase_8,1,5,56,103,1427976500
95,14,15,Jits_Phase_8,2,5,63,98,1427987068
95,14,15,Jits_Phase_8,0,1,48,22,1428670404
95,14,15,Jits_Phase_8,1,5,80,127,1428737492
95,14,15,Jits_Phase_8,2,5,56,103,1428786584
95,14,15,Jits_Phase_8,3,5,63,98,1428836636
95,14,15,Jits_Phase_8,0,1,48,22,1429465376
95,14,15,Jits_Phase_8,1,5,56,103,1429677432
95,14,15,Jits_Phase_8,2,5,63,98,1429680424
95,14,15,Jits_Phase_8,3,5,80,127,1429726660
95,14,15,Jits_Phase_8,0,1,48,19,1430396044
95,14,15,Jits_Phase_8,1,5,56,103,1430496740
95,14,15,Jits_Phase_8,2,5,63,98,1430527392
95,14,15,Jits_Phase_8,3,5,80,127,1430536688
95,14,15,Jits_Phase_8,0,5,63,98,1431207148
95,14,15,Jits_Phase_8,1,1,48,18,1431252444
95,14,15,Jits_Phase_8,2,5,56,103,1431277120
95,14,15,Jits_Phase_8,3,5,80,127,1431327172
95,14,15,Jits_Phase_8,0,1,48,16,1432015792
95,14,15,Jits_Phase_8,1,5,63,98,1432036796
95,14,15,Jits_Phase_8,2,5,56,103,1432047064
95,14,15,Jits_Phase_8,3,5,80,127,1432050052
95,14,15,Jits_Phase_8,0,5,80,127,1432787172
95,14,15,Jits_Phase_8,1,1,48,18,1432817636
95,14,15,Jits_Phase_8,2,5,56,103,1432846656
95,14,15,Jits_Phase_8,3,5,63,98,1432936948
95,14,15,Jits_Phase_8,0,5,80,127,1433587168
95,14,15,Jits_Phase_8,1,1,48,27,1433622272
95,14,15,Jits_Phase_8,2,5,56,103,1433687360
95,14,15,Jits_Phase_8,3,5,63,98,1433727280
95,14,15,Jits_Phase_8,0,1,48,24,1434399720
95,14,15,Jits_Phase_8,1,5,56,103,1434437084
95,14,15,Jits_Phase_8,2,5,63,98,1434456424
95,14,15,Jits_Phase_8,3,5,80,127,1434497320
95,14,15,Jits_Phase_8,0,5,63,98,1435207104
95,14,15,Jits_Phase_8,1,1,48,26,1435213368
95,14,15,Jits_Phase_8,2,5,56,103,1435226364
95,14,15,Jits_Phase_8,3,5,80,127,1435327040
95,14,15,Jits_Phase_8,0,5,63,98,1435996600
95,14,15,Jits_Phase_8,1,1,48,19,1435998760
95,14,15,Jits_Phase_8,2,5,80,127,1436107088
95,14,15,Jits_Phase_8,3,5,56,103,1436136988
95,14,15,Jits_Phase_8,0,5,56,103,1436816888
95,14,15,Jits_Phase_8,1,1,48,21,1436821124
95,14,15,Jits_Phase_8,2,5,63,98,1436846408
95,14,15,Jits_Phase_8,3,5,80,127,1436896980
95,14,15,Jits_Phase_8,0,5,63,98,1437587060
95,14,15,Jits_Phase_8,1,5,56,103,1437616516
95,14,15,Jits_Phase_8,2,5,80,127,1437666788
95,14,15,Jits_Phase_8,0,1,48,26,1438333616
95,14,15,Jits_Phase_8,1,5,56,103,1438417192
95,14,15,Jits_Phase_8,2,5,63,98,1438436888
95,14,15,Jits_Phase_8,3,5,80,127,1438516928
95,14,15,Jits_Phase_8,0,1,48,27,1439109852
95,14,15,Jits_Phase_8,1,5,63,98,1439187276
95,14,15,Jits_Phase_8,2,5,56,103,1439246828
95,14,15,Jits_Phase_8,3,5,80,127,1439277280
95,14,15,Jits_Phase_8,0,1,48,22,1439941972
95,14,15,Jits_Phase_8,1,5,56,103,1440027116
95,14,15,Jits_Phase_8,2,5,80,127,1440087368
95,14,15,Jits_Phase_8,3,5,63,98,1440127304
95,14,15,Jits_Phase_8,0,1,48,26,1440758520
95,14,15,Jits_Phase_8,1,5,63,98,1440807196
95,14,15,Jits_Phase_8,2,5,56,103,1440866676
95,14,15,Jits_Phase_8,3,5,80,127,1440937328
95,14,15,Jits_Phase_8,0,1,48,19,1441611948
95,14,15,Jits_Phase_8,1,5,56,103,1441686972
95,14,15,Jits_Phase_8,2,5,63,98,1441697012
95,14,15,Jits_Phase_8,3,5,80,127,1441700380
95,14,15,Jits_Phase_8,0,1,48,26,1442426948
95,14,15,Jits_Phase_8,1,5,63,98,1442428432
95,14,15,Jits_Phase_8,2,5,56,103,1442486728
95,14,15,Jits_Phase_8,3,5,80,127,1442489796
95,14,15,Jits_Phase_8,0,5,63,98,1443206836
95,14,15,Jits_Phase_8,1,5,80,127,1443237260
95,14,15,Jits_Phase_8,2,1,48,28,1443246304
95,14,15,Jits_Phase_8,3,5,56,103,1443256664
95,14,15,Jits_Phase_8,0,5,56,103,1443936908
95,14,15,Jits_Phase_8,1,5,63,98,1443986888
95,14,15,Jits_Phase_8,2,1,48,23,1444018552
95,14,15,Jits_Phase_8,3,5,80,127,1444066748
95,14,15,Jits_Phase_8,0,5,80,127,1444637096
95,14,15,Jits_Phase_8,1,5,63,98,1444676988
95,14,15,Jits_Phase_8,2,5,56,103,1444696400
95,14,15,Jits_Phase_8,3,1,48,28,1444726416
95,14,15,Jits_Phase_8,0,1,48,19,1445446828
95,14,15,Jits_Phase_8,1,5,56,103,1445506412
95,14,15,Jits_Phase_8,2,5,80,127,1445516832
95,14,15,Jits_Phase_8,3,5,63,98,1445537144
95,14,15,Jits_Phase_8,0,1,48,25,1446210764
95,14,15,Jits_Phase_8,1,5,56,103,1446286988
95,14,15,Jits_Phase_8,2,5,63,98,1446336952
95,14,15,Jits_Phase_8,3,5,80,127,1446366704
95,14,15,Jits_Phase_8,0,1,48,21,1447028584
95,14,15,Jits_Phase_8,1,5,56,103,1447037156
95,14,15,Jits_Phase_8,2,5,63,98,1447046380
95,14,15,Jits_Phase_8,3,5,80,127,1447096952
95,14,15,Jits_Phase_8,0,1,48,18,1447795900
95,14,15,Jits_Phase_8,1,5,56,103,1447826936
95,14,15,Jits_Phase_8,2,5,80,127,1447829856
95,14,15,Jits_Phase_8,3,5,63,98,1447986528
95,14,15,Jits_Phase_8,0,1,48,23,1448573528
95,14,15,Jits_Phase_8,1,5,63,98,1448647064
95,14,15,Jits_Phase_8,2,5,56,103,1448716804
95,14,15,Jits_Phase_8,3,5,80,127,1448756692
95,14,15,Jits_Phase_8,0,1,48,19,1449395176
95,14,15,Jits_Phase_8,1,5,63,98,1449486980
95,14,15,Jits_Phase_8,2,5,56,103,1449576748
95,14,15,Jits_Phase_8,3,5,80,127,1449579816
95,14,15,Jits_Phase_8,0,1,48,16,1450248648
95,14,15,Jits_Phase_8,1,5,56,103,1450266956
95,14,15,Jits_Phase_8,2,5,63,98,1450357100
95,14,15,Jits_Phase_8,3,5,80,127,1450367444
95,14,15,Jits_Phase_8,0,5,56,103,1451036980
95,14,15,Jits_Phase_8,1,1,48,18,1451044212
95,14,15,Jits_Phase_8,2,5,63,98,1451087200
95,14,15,Jits_Phase_8,3,5,80,127,1451116872
95,14,15,Jits_Phase_8,0,1,48,24,1451823544
95,14,15,Jits_Phase_8,1,1,48,16,1451889604
95,14,15,Jits_Phase_8,2,5,63,98,1451916908
95,14,15,Jits_Phase_8,3,5,80,127,1451927032
95,14,15,Jits_Phase_8,4,5,56,103,1451987256
95,14,15,Jits_Phase_8,0,5,63,98,1452636716
95,14,15,Jits_Phase_8,1,1,48,21,1452659464
95,14,15,Jits_Phase_8,2,5,80,127,1452696804
95,14,15,Jits_Phase_8,3,5,56,103,1452737112
95,14,15,Jits_Phase_8,0,1,48,22,1453413132
95,14,15,Jits_Phase_8,1,5,56,103,1453536772
95,14,15,Jits_Phase_8,2,5,80,127,1453557084
95,14,15,Jits_Phase_8,3,5,63,98,1453576644
95,14,15,Jits_Phase_8,0,1,48,24,1454251116
95,14,15,Jits_Phase_8,1,5,63,98,1454256612
95,14,15,Jits_Phase_8,2,5,56,103,1454276924
95,14,15,Jits_Phase_8,3,5,80,127,1454316864
95,14,15,Jits_Phase_8,0,1,48,24,1455050796
95,14,15,Jits_Phase_8,1,5,63,98,1455066484
95,14,15,Jits_Phase_8,2,5,80,127,1455097132
95,14,15,Jits_Phase_8,3,5,56,103,1455116916
95,14,15,Jits_Phase_8,0,5,80,127,1455836652
95,14,15,Jits_Phase_8,1,1,48,24,1455867420
95,14,15,Jits_Phase_8,2,5,56,103,1455886848
95,14,15,Jits_Phase_8,3,5,63,98,1455947116
95,14,15,Jits_Phase_8,0,5,63,98,1456626912
95,14,15,Jits_Phase_8,1,1,48,21,1456654912
95,14,15,Jits_Phase_8,2,5,56,103,1456746792
95,14,15,Jits_Phase_8,3,5,80,127,1456776692
95,14,15,Jits_Phase_8,0,1,48,21,1457457612
95,14,15,Jits_Phase_8,1,5,80,127,1457466700
95,14,15,Jits_Phase_8,2,5,63,98,1457487236
95,14,15,Jits_Phase_8,3,5,56,103,1457556840
95,14,15,Jits_Phase_8,0,1,48,17,1458256468
95,14,15,Jits_Phase_8,1,5,63,98,1458286984
95,14,15,Jits_Phase_8,2,5,56,103,1458297180
95,14,15,Jits_Phase_8,3,5,80,127,1458377036
95,14,15,Jits_Phase_8,0,1,48,26,1459053144
95,14,15,Jits_Phase_8,1,5,56,103,1459147056
95,14,15,Jits_Phase_8,2,5,80,127,1459176868
95,14,15,Jits_Phase_8,3,5,63,98,1459187136
95,14,15,Jits_Phase_8,0,9999,9999,9999,1324304468
95,14,15,Jits_Phase_8,1,9999,9999,9999,1325104188
95,14,15,Jits_Phase_8,2,9999,9999,9999,1325905004
95,14,15,Jits_Phase_8,3,9999,9999,9999,1326704700
95,14,15,Jits_Phase_8,4,9999,9999,9999,1327504456
95,14,15,Jits_Phase_8,5,9999,9999,9999,1328304216
95,14,15,Jits_Phase_8,6,9999,9999,9999,1329104960
95,14,15,Jits_Phase_8,7,9999,9999,9999,1329904736
95,14,15,Jits_Phase_8,8,9999,9999,9999,1330704496
95,14,15,Jits_Phase_8,9,9999,9999,9999,1331504192
95,14,15,Jits_Phase_8,10,9999,9999,9999,1332305016
95,14,15,Jits_Phase_8,11,9999,9999,9999,1333104700
95,14,15,Jits_Phase_8,12,9999,9999,9999,1333904464
95,14,15,Jits_Phase_8,13,9999,9999,9999,1334704216
95,14,15,Jits_Phase_8,14,9999,9999,9999,1335505012
95,14,15,Jits_Phase_8,15,9999,9999,9999,1336304756
95,14,15,Jits_Phase_8,16,9999,9999,9999,1337104496
95,14,15,Jits_Phase_8,17,9999,9999,9999,1337904208
95,14,15,Jits_Phase_8,18,9999,9999,9999,1338705016
95,14,15,Jits_Phase_8,19,9999,9999,9999,1339504704
95,14,15,Jits_Phase_8,20,9999,9999,9999,1340304456
95,14,15,Jits_Phase_8,21,9999,9999,9999,1341104212
95,14,15,Jits_Phase_8,22,9999,9999,9999,1341905008
95,14,15,Jits_Phase_8,23,9999,9999,9999,1342704768
95,14,15,Jits_Phase_8,24,9999,9999,9999,1343504448
95,14,15,Jits_Phase_8,25,9999,9999,9999,1344304224
95,14,15,Jits_Phase_8,26,9999,9999,9999,1345104956
95,14,15,Jits_Phase_8,27,9999,9999,9999,1345904708
95,14,15,Jits_Phase_8,28,9999,9999,9999,1346704476
95,14,15,Jits_Phase_8,29,9999,9999,9999,1347504240
95,14,15,Jits_Phase_8,30,9999,9999,9999,1348284516
95,14,15,Jits_Phase_8,31,9999,9999,9999,1349084276
95,14,15,Jits_Phase_8,32,9999,9999,9999,1349885016
95,14,15,Jits_Phase_8,33,9999,9999,9999,1350684784
95,14,15,Jits_Phase_8,34,9999,9999,9999,1351484504
95,14,15,Jits_Phase_8,35,9999,9999,9999,1352284272
95,14,15,Jits_Phase_8,36,9999,9999,9999,1353085004
95,14,15,Jits_Phase_8,37,9999,9999,9999,1353884764
95,14,15,Jits_Phase_8,38,9999,9999,9999,1354684528
95,14,15,Jits_Phase_8,39,9999,9999,9999,1355484232
95,14,15,Jits_Phase_8,40,9999,9999,9999,1356285036
95,14,15,Jits_Phase_8,41,9999,9999,9999,1357084796
95,14,15,Jits_Phase_8,42,9999,9999,9999,1357884500
95,14,15,Jits_Phase_8,43,9999,9999,9999,1358684224
95,14,15,Jits_Phase_8,44,9999,9999,9999,1359485016
95,14,15,Jits_Phase_8,45,9999,9999,9999,1360284772
95,14,15,Jits_Phase_8,46,9999,9999,9999,1361084532
95,14,15,Jits_Phase_8,47,9999,9999,9999,1361884280
95,14,15,Jits_Phase_8,48,9999,9999,9999,1362704508
95,14,15,Jits_Phase_8,49,9999,9999,9999,1363504212
95,14,15,Jits_Phase_8,50,9999,9999,9999,1364305012
95,14,15,Jits_Phase_8,51,9999,9999,9999,1365104708
95,14,15,Jits_Phase_8,52,9999,9999,9999,1365904468
95,14,15,Jits_Phase_8,53,9999,9999,9999,1366704232
95,14,15,Jits_Phase_8,54,9999,9999,9999,1367504956
95,14,15,Jits_Phase_8,55,9999,9999,9999,1368304732
95,14,15,Jits_Phase_8,56,9999,9999,9999,1369104484
95,14,15,Jits_Phase_8,57,9999,9999,9999,1369904192
95,14,15,Jits_Phase_8,58,9999,9999,9999,1370705000
95,14,15,Jits_Phase_8,59,9999,9999,9999,1371504752
95,14,15,Jits_Phase_8,60,9999,9999,9999,1372304488
95,14,15,Jits_Phase_8,61,9999,9999,9999,1373104228
95,14,15,Jits_Phase_8,62,9999,9999,9999,1373904956
95,14,15,Jits_Phase_8,63,9999,9999,9999,1374704700
95,14,15,Jits_Phase_8,64,9999,9999,9999,1375544420
95,14,15,Jits_Phase_8,65,9999,9999,9999,1376344160
95,14,15,Jits_Phase_8,66,9999,9999,9999,1377144948
95,14,15,Jits_Phase_8,67,9999,9999,9999,1377944636
95,14,15,Jits_Phase_8,68,9999,9999,9999,1378744392
95,14,15,Jits_Phase_8,69,9999,9999,9999,1379544168
95,14,15,Jits_Phase_8,70,9999,9999,9999,1380344904
95,14,15,Jits_Phase_8,71,9999,9999,9999,1381144672
95,14,15,Jits_Phase_8,72,9999,9999,9999,1381944376
95,14,15,Jits_Phase_8,73,9999,9999,9999,1382744152
95,14,15,Jits_Phase_8,74,9999,9999,9999,1383544928
95,14,15,Jits_Phase_8,75,9999,9999,9999,1384344644
95,14,15,Jits_Phase_8,76,9999,9999,9999,1385144412
95,14,15,Jits_Phase_8,77,9999,9999,9999,1385944188
95,14,15,Jits_Phase_8,78,9999,9999,9999,1386744908
95,14,15,Jits_Phase_8,79,9999,9999,9999,1387544680
95,14,15,Jits_Phase_8,80,9999,9999,9999,1388344388
95,14,15,Jits_Phase_8,81,9999,9999,9999,1389104216
95,14,15,Jits_Phase_8,82,9999,9999,9999,1389905020
95,14,15,Jits_Phase_8,83,9999,9999,9999,1390704700
95,14,15,Jits_Phase_8,84,9999,9999,9999,1391504452
95,14,15,Jits_Phase_8,85,9999,9999,9999,1392304208
95,14,15,Jits_Phase_8,86,9999,9999,9999,1393104956
95,14,15,Jits_Phase_8,87,9999,9999,9999,1393904712
95,14,15,Jits_Phase_8,88,9999,9999,9999,1394704460
95,14,15,Jits_Phase_8,89,9999,9999,9999,1395504256
95,14,15,Jits_Phase_8,90,9999,9999,9999,1396304992
95,14,15,Jits_Phase_8,91,9999,9999,9999,1397104748
95,14,15,Jits_Phase_8,92,9999,9999,9999,1397904448
95,14,15,Jits_Phase_8,93,9999,9999,9999,1398704200
95,14,15,Jits_Phase_8,94,9999,9999,9999,1399504980
95,14,15,Jits_Phase_8,95,9999,9999,9999,1400304736
95,14,15,Jits_Phase_8,96,9999,9999,9999,1401104504
95,14,15,Jits_Phase_8,97,9999,9999,9999,1401824328
95,14,15,Jits_Phase_8,98,9999,9999,9999,1402624112
95,14,15,Jits_Phase_8,99,9999,9999,9999,1403424860
95,14,15,Jits_Phase_8,100,9999,9999,9999,1404224568
95,14,15,Jits_Phase_8,101,9999,9999,9999,1405024328
95,14,15,Jits_Phase_8,102,9999,9999,9999,1405824092
95,14,15,Jits_Phase_8,103,9999,9999,9999,1406624820
95,14,15,Jits_Phase_8,104,9999,9999,9999,1407424580
95,14,15,Jits_Phase_8,105,9999,9999,9999,1408224344
95,14,15,Jits_Phase_8,106,9999,9999,9999,1409024092
95,14,15,Jits_Phase_8,107,9999,9999,9999,1409824876
95,14,15,Jits_Phase_8,108,9999,9999,9999,1410624584
95,14,15,Jits_Phase_8,109,9999,9999,9999,1411424336
95,14,15,Jits_Phase_8,110,9999,9999,9999,1412224092
95,14,15,Jits_Phase_8,111,9999,9999,9999,1413024824
95,14,15,Jits_Phase_8,112,9999,9999,9999,1413824592
95,14,15,Jits_Phase_8,113,9999,9999,9999,1414624364
95,14,15,Jits_Phase_8,114,9999,9999,9999,1415504980
95,14,15,Jits_Phase_8,115,9999,9999,9999,1416304736
95,14,15,Jits_Phase_8,116,9999,9999,9999,1417104476
95,14,15,Jits_Phase_8,117,9999,9999,9999,1417904220
95,14,15,Jits_Phase_8,118,9999,9999,9999,1418704952
95,14,15,Jits_Phase_8,119,9999,9999,9999,1419504704
95,14,15,Jits_Phase_8,120,9999,9999,9999,1420304456
95,14,15,Jits_Phase_8,121,9999,9999,9999,1421104240
95,14,15,Jits_Phase_8,122,9999,9999,9999,1421904960
95,14,15,Jits_Phase_8,123,9999,9999,9999,1422704712
95,14,15,Jits_Phase_8,124,9999,9999,9999,1423504476
95,14,15,Jits_Phase_8,125,9999,9999,9999,1424304224
95,14,15,Jits_Phase_8,126,9999,9999,9999,1425104952
95,14,15,Jits_Phase_8,127,9999,9999,9999,1425904712
95,14,15,Jits_Phase_8,128,9999,9999,9999,1426704468
95,14,15,Jits_Phase_8,129,9999,9999,9999,1427504248
95,14,15,Jits_Phase_8,130,9999,9999,9999,1428305008
95,14,15,Jits_Phase_8,131,9999,9999,9999,1429264448
95,14,15,Jits_Phase_8,132,9999,9999,9999,1430064228
95,14,15,Jits_Phase_8,133,9999,9999,9999,1430864968
95,14,15,Jits_Phase_8,134,9999,9999,9999,1431664728
95,14,15,Jits_Phase_8,135,9999,9999,9999,1432464472
95,14,15,Jits_Phase_8,136,9999,9999,9999,1433264228
95,14,15,Jits_Phase_8,137,9999,9999,9999,1434064976
95,14,15,Jits_Phase_8,138,9999,9999,9999,1434864752
95,14,15,Jits_Phase_8,139,9999,9999,9999,1435664508
95,14,15,Jits_Phase_8,140,9999,9999,9999,1436464220
95,14,15,Jits_Phase_8,141,9999,9999,9999,1437264948
95,14,15,Jits_Phase_8,142,9999,9999,9999,1438064736
95,14,15,Jits_Phase_8,143,9999,9999,9999,1438864508
95,14,15,Jits_Phase_8,144,9999,9999,9999,1439664188
95,14,15,Jits_Phase_8,145,9999,9999,9999,1440464996
95,14,15,Jits_Phase_8,146,9999,9999,9999,1441264756
95,14,15,Jits_Phase_8,147,9999,9999,9999,1442064512
95,14,15,Jits_Phase_8,148,9999,9999,9999,1442864212
95,14,15,Jits_Phase_8,149,9999,9999,9999,1443665008
95,14,15,Jits_Phase_8,150,9999,9999,9999,1444305020
95,14,15,Jits_Phase_8,151,9999,9999,9999,1445104712
95,14,15,Jits_Phase_8,152,9999,9999,9999,1445904488
95,14,15,Jits_Phase_8,153,9999,9999,9999,1446704200
95,14,15,Jits_Phase_8,154,9999,9999,9999,1447504996
95,14,15,Jits_Phase_8,155,9999,9999,9999,1448304740
95,14,15,Jits_Phase_8,156,9999,9999,9999,1449104500
95,14,15,Jits_Phase_8,157,9999,9999,9999,1449904252
95,14,15,Jits_Phase_8,158,9999,9999,9999,1450704988
95,14,15,Jits_Phase_8,159,9999,9999,9999,1451504740
95,14,15,Jits_Phase_8,160,9999,9999,9999,1452304496
95,14,15,Jits_Phase_8,161,9999,9999,9999,1453104184
95,14,15,Jits_Phase_8,162,9999,9999,9999,1453905000
95,14,15,Jits_Phase_8,163,9999,9999,9999,1454704756
95,14,15,Jits_Phase_8,164,9999,9999,9999,1455504440
95,14,15,Jits_Phase_8,165,9999,9999,9999,1456304196
95,14,15,Jits_Phase_8,166,9999,9999,9999,1457105020
95,14,15,Jits_Phase_8,167,9999,9999,9999,1457904704
95,14,15,Jits_Phase_8,168,9999,9999,9999,1458704464
95,14,15,Jits_Phase_8,169,9999,9999,9999,1459504184
95,15,17,Jits_Phase_5,0,5,56,103,1468650852
95,15,17,Jits_Phase_5,1,5,63,98,1468653952
95,15,17,Jits_Phase_5,2,5,80,127,1468657000
95,15,17,Jits_Phase_5,0,5,56,103,1469150636
95,15,17,Jits_Phase_5,1,5,63,98,1469153740
95,15,17,Jits_Phase_5,2,5,80,127,1469156708
95,15,17,Jits_Phase_5,0,1,48,20,1469599916
95,15,17,Jits_Phase_5,1,5,56,103,1469651328
95,15,17,Jits_Phase_5,2,5,80,127,1469660704
95,15,17,Jits_Phase_5,3,5,63,98,1469680936
95,15,17,Jits_Phase_5,0,5,63,98,1470100892
95,15,17,Jits_Phase_5,1,5,80,127,1470130644
95,15,17,Jits_Phase_5,2,1,48,38,1470137876
95,15,17,Jits_Phase_5,3,5,56,103,1470140756
95,15,17,Jits_Phase_5,4,1,48,19,1470222892
95,15,17,Jits_Phase_5,0,1,48,29,1470606772
95,15,17,Jits_Phase_5,1,5,80,127,1470661120
95,15,17,Jits_Phase_5,2,1,48,21,1470663120
95,15,17,Jits_Phase_5,3,5,56,103,1470671072
95,15,17,Jits_Phase_5,4,5,63,98,1470700896
95,15,17,Jits_Phase_5,0,1,48,33,1471118984
95,15,17,Jits_Phase_5,1,5,63,98,1471150544
95,15,17,Jits_Phase_5,2,5,56,103,1471181044
95,15,17,Jits_Phase_5,3,5,80,127,1471191688
95,15,17,Jits_Phase_5,0,5,56,103,1471601080
95,15,17,Jits_Phase_5,1,5,63,98,1471651280
95,15,17,Jits_Phase_5,2,1,48,31,1471657020
95,15,17,Jits_Phase_5,3,5,80,127,1471670760
95,15,17,Jits_Phase_5,0,5,80,127,1472100696
95,15,17,Jits_Phase_5,1,1,48,30,1472144572
95,15,17,Jits_Phase_5,2,5,63,98,1472150892
95,15,17,Jits_Phase_5,3,5,56,103,1472190900
95,15,17,Jits_Phase_5,0,5,56,103,1472600684
95,15,17,Jits_Phase_5,1,5,63,98,1472631108
95,15,17,Jits_Phase_5,2,1,48,39,1472654380
95,15,17,Jits_Phase_5,3,5,80,127,1472700704
95,15,17,Jits_Phase_5,4,1,48,24,1472708440
95,15,17,Jits_Phase_5,0,5,56,103,1473101076
95,15,17,Jits_Phase_5,1,1,48,34,1473149676
95,15,17,Jits_Phase_5,2,5,80,127,1473160488
95,15,17,Jits_Phase_5,3,5,63,98,1473191208
95,15,17,Jits_Phase_5,0,5,56,103,1473611032
95,15,17,Jits_Phase_5,1,5,63,98,1473621304
95,15,17,Jits_Phase_5,2,1,48,32,1473644496
95,15,17,Jits_Phase_5,3,5,80,127,1473661232
95,15,17,Jits_Phase_5,0,5,63,98,1474100528
95,15,17,Jits_Phase_5,1,1,48,33,1474120504
95,15,17,Jits_Phase_5,2,5,80,127,1474180612
95,15,17,Jits_Phase_5,3,5,56,103,1474190660
95,15,17,Jits_Phase_5,0,1,48,32,1474627576
95,15,17,Jits_Phase_5,1,5,63,98,1474650616
95,15,17,Jits_Phase_5,2,5,56,103,1474690552
95,15,17,Jits_Phase_5,3,5,80,127,1474693696
95,15,17,Jits_Phase_5,0,5,56,103,1475111256
95,15,17,Jits_Phase_5,1,5,63,98,1475120700
95,15,17,Jits_Phase_5,2,5,80,127,1475160564
95,15,17,Jits_Phase_5,3,1,48,33,1475183836
95,15,17,Jits_Phase_5,0,5,56,103,1475600724
95,15,17,Jits_Phase_5,1,5,63,98,1475603796
95,15,17,Jits_Phase_5,2,5,80,127,1475621284
95,15,17,Jits_Phase_5,3,1,48,25,1475627320
95,15,17,Jits_Phase_5,0,5,80,127,1476110664
95,15,17,Jits_Phase_5,1,1,48,29,1476115504
95,15,17,Jits_Phase_5,2,5,56,103,1476120852
95,15,17,Jits_Phase_5,3,5,63,98,1476190776
95,15,17,Jits_Phase_5,0,1,48,30,1476582748
95,15,17,Jits_Phase_5,1,5,63,98,1476601052
95,15,17,Jits_Phase_5,2,5,56,103,1476620760
95,15,17,Jits_Phase_5,3,5,80,127,1476700636
95,15,17,Jits_Phase_5,0,1,48,26,1477067952
95,15,17,Jits_Phase_5,1,5,56,103,1477111212
95,15,17,Jits_Phase_5,2,5,80,127,1477151224
95,15,17,Jits_Phase_5,3,5,63,98,1477161656
95,15,17,Jits_Phase_5,0,5,80,127,1477600556
95,15,17,Jits_Phase_5,1,1,48,31,1477604272
95,15,17,Jits_Phase_5,2,5,63,98,1477631496
95,15,17,Jits_Phase_5,3,5,56,103,1477671384
95,15,17,Jits_Phase_5,0,1,48,28,1478099092
95,15,17,Jits_Phase_5,1,5,56,103,1478120912
95,15,17,Jits_Phase_5,2,5,63,98,1478150512
95,15,17,Jits_Phase_5,3,5,80,127,1478200720
95,15,17,Jits_Phase_5,0,1,48,32,1478614640
95,15,17,Jits_Phase_5,1,5,80,127,1478620740
95,15,17,Jits_Phase_5,2,5,56,103,1478660528
95,15,17,Jits_Phase_5,3,5,63,98,1478670800
95,15,17,Jits_Phase_5,0,5,80,127,1479100720
95,15,17,Jits_Phase_5,1,1,48,29,1479128796
95,15,17,Jits_Phase_5,2,5,63,98,1479140728
95,15,17,Jits_Phase_5,3,5,56,103,1479201112
95,15,17,Jits_Phase_5,0,5,56,103,1479600412
95,15,17,Jits_Phase_5,1,5,80,127,1479610680
95,15,17,Jits_Phase_5,2,1,48,29,1479675228
95,15,17,Jits_Phase_5,3,5,63,98,1479690688
95,15,17,Jits_Phase_5,0,5,80,127,1480101368
95,15,17,Jits_Phase_5,1,1,48,29,1480156252
95,15,17,Jits_Phase_5,2,5,63,98,1480160556
95,15,17,Jits_Phase_5,3,5,56,103,1480191424
95,15,17,Jits_Phase_5,0,5,56,103,1480600980
95,15,17,Jits_Phase_5,1,1,48,30,1480657064
95,15,17,Jits_Phase_5,2,5,80,127,1480661436
95,15,17,Jits_Phase_5,3,5,63,98,1480701524
95,15,17,Jits_Phase_5,0,1,48,31,1481132108
95,15,17,Jits_Phase_5,1,5,56,103,1481150860
95,15,17,Jits_Phase_5,2,5,63,98,1481161052
95,15,17,Jits_Phase_5,3,5,80,127,1481164640
95,15,17,Jits_Phase_5,4,1,48,20,1481193748
95,15,17,Jits_Phase_5,0,5,80,127,1481601564
95,15,17,Jits_Phase_5,1,1,48,30,1481632332
95,15,17,Jits_Phase_5,2,5,63,98,1481690716
95,15,17,Jits_Phase_5,3,5,56,103,1481700688
95,15,17,Jits_Phase_5,0,5,56,103,1482111496
95,15,17,Jits_Phase_5,1,5,63,98,1482114600
95,15,17,Jits_Phase_5,2,5,80,127,1482117720
95,15,17,Jits_Phase_5,3,1,48,29,1482164596
95,15,17,Jits_Phase_5,0,5,80,127,1482630584
95,15,17,Jits_Phase_5,1,1,48,28,1482636848
95,15,17,Jits_Phase_5,2,5,63,98,1482680632
95,15,17,Jits_Phase_5,3,5,56,103,1482711652
95,15,17,Jits_Phase_5,0,5,56,103,1483110872
95,15,17,Jits_Phase_5,1,5,80,127,1483120916
95,15,17,Jits_Phase_5,2,1,48,32,1483166960
95,15,17,Jits_Phase_5,3,5,63,98,1483190736
95,15,17,Jits_Phase_5,0,5,56,103,1483620748
95,15,17,Jits_Phase_5,1,5,63,98,1483641056
95,15,17,Jits_Phase_5,2,1,48,31,1483672568
95,15,17,Jits_Phase_5,3,5,80,127,1483700764
95,15,17,Jits_Phase_5,0,5,80,127,1484100884
95,15,17,Jits_Phase_5,1,1,48,25,1484167604
95,15,17,Jits_Phase_5,2,5,63,98,1484170632
95,15,17,Jits_Phase_5,3,5,56,103,1484191092
95,15,17,Jits_Phase_5,0,5,80,127,1484621252
95,15,17,Jits_Phase_5,1,5,56,103,1484631524
95,15,17,Jits_Phase_5,2,5,63,98,1484640744
95,15,17,Jits_Phase_5,3,1,48,21,1484723192
95,15,17,Jits_Phase_5,0,5,80,127,1485110524
95,15,17,Jits_Phase_5,1,5,56,103,1485131056
95,15,17,Jits_Phase_5,2,1,48,30,1485179508
95,15,17,Jits_Phase_5,3,5,63,98,1485200728
95,15,17,Jits_Phase_5,0,5,56,103,1485620552
95,15,17,Jits_Phase_5,1,1,48,22,1485639632
95,15,17,Jits_Phase_5,2,5,80,127,1485651564
95,15,17,Jits_Phase_5,3,5,63,98,1485670680
95,15,17,Jits_Phase_5,0,5,63,98,1486111000
95,15,17,Jits_Phase_5,1,1,48,28,1486127848
95,15,17,Jits_Phase_5,2,5,56,103,1486170584
95,15,17,Jits_Phase_5,3,5,80,127,1486201380
95,15,17,Jits_Phase_5,0,5,63,98,1486600488
95,15,17,Jits_Phase_5,1,5,80,127,1486603780
95,15,17,Jits_Phase_5,2,1,48,24,1486627272
95,15,17,Jits_Phase_5,3,5,56,103,1486690780
95,15,17,Jits_Phase_5,0,5,56,103,1487120680
95,15,17,Jits_Phase_5,1,5,63,98,1487150452
95,15,17,Jits_Phase_5,2,1,48,24,1487159424
95,15,17,Jits_Phase_5,3,5,80,127,1487191504
95,15,17,Jits_Phase_5,0,5,63,98,1487620516
95,15,17,Jits_Phase_5,1,1,48,27,1487637788
95,15,17,Jits_Phase_5,2,5,56,103,1487661592
95,15,17,Jits_Phase_5,3,5,80,127,1487680928
95,15,17,Jits_Phase_5,0,1,48,24,1488111988
95,15,17,Jits_Phase_5,1,5,63,98,1488130592
95,15,17,Jits_Phase_5,2,5,56,103,1488171528
95,15,17,Jits_Phase_5,3,5,80,127,1488180528
95,15,17,Jits_Phase_5,0,5,80,127,1488610724
95,15,17,Jits_Phase_5,1,1,48,20,1488612364
95,15,17,Jits_Phase_5,2,5,63,98,1488681468
95,15,17,Jits_Phase_5,3,5,56,103,1488700728
95,15,17,Jits_Phase_5,0,5,56,103,1489101120
95,15,17,Jits_Phase_5,1,1,48,27,1489119020
95,15,17,Jits_Phase_5,2,5,80,127,1489120528
95,15,17,Jits_Phase_5,3,5,63,98,1489160536
95,15,17,Jits_Phase_5,0,5,63,98,1489611292
95,15,17,Jits_Phase_5,1,1,48,28,1489627068
95,15,17,Jits_Phase_5,2,5,80,127,1489630548
95,15,17,Jits_Phase_5,3,5,56,103,1489670484
95,15,17,Jits_Phase_5,0,5,63,98,1490110892
95,15,17,Jits_Phase_5,1,1,48,37,1490116108
95,15,17,Jits_Phase_5,2,5,56,103,1490131272
95,15,17,Jits_Phase_5,3,5,80,127,1490140492
95,15,17,Jits_Phase_5,0,5,80,127,1490610492
95,15,17,Jits_Phase_5,1,1,48,29,1490623652
95,15,17,Jits_Phase_5,2,5,56,103,1490631092
95,15,17,Jits_Phase_5,3,5,63,98,1490660840
95,15,17,Jits_Phase_5,0,1,48,26,1491130380
95,15,17,Jits_Phase_5,1,5,56,103,1491181044
95,15,17,Jits_Phase_5,2,5,80,127,1491184408
95,15,17,Jits_Phase_5,3,5,63,98,1491201428
95,15,17,Jits_Phase_5,0,5,63,98,1491600784
95,15,17,Jits_Phase_5,1,5,56,103,1491630532
95,15,17,Jits_Phase_5,2,1,48,36,1491640024
95,15,17,Jits_Phase_5,3,5,80,127,1491690764
95,15,17,Jits_Phase_5,0,1,48,28,1492126788
95,15,17,Jits_Phase_5,1,5,63,98,1492181360
95,15,17,Jits_Phase_5,2,5,56,103,1492190508
95,15,17,Jits_Phase_5,3,5,80,127,1492200780
95,15,17,Jits_Phase_5,0,5,56,103,1492641264
95,15,17,Jits_Phase_5,1,1,48,36,1492652704
95,15,17,Jits_Phase_5,2,5,80,127,1492670860
95,15,17,Jits_Phase_5,3,5,63,98,1492681056
95,15,17,Jits_Phase_5,4,1,48,22,1492712852
95,15,17,Jits_Phase_5,0,1,48,30,1493128524
95,15,17,Jits_Phase_5,1,5,63,98,1493180760
95,15,17,Jits_Phase_5,2,1,48,20,1493188276
95,15,17,Jits_Phase_5,3,5,56,103,1493191160
95,15,17,Jits_Phase_5,4,5,80,127,1493210496
95,15,17,Jits_Phase_5,0,5,56,103,1493610876
95,15,17,Jits_Phase_5,1,1,48,32,1493648616
95,15,17,Jits_Phase_5,2,5,63,98,1493671556
95,15,17,Jits_Phase_5,3,5,80,127,1493674772
95,15,17,Jits_Phase_5,0,1,48,27,1494122432
95,15,17,Jits_Phase_5,1,5,80,127,1494131000
95,15,17,Jits_Phase_5,2,5,56,103,1494141420
95,15,17,Jits_Phase_5,3,5,63,98,1494210948
95,15,17,Jits_Phase_5,0,1,48,28,1494612744
95,15,17,Jits_Phase_5,1,5,80,127,1494620560
95,15,17,Jits_Phase_5,2,5,56,103,1494691360
95,15,17,Jits_Phase_5,3,5,63,98,1494701412
95,15,17,Jits_Phase_5,0,1,48,34,1495122088
95,15,17,Jits_Phase_5,1,5,63,98,1495161516
95,15,17,Jits_Phase_5,2,5,56,103,1495170444
95,15,17,Jits_Phase_5,3,1,48,21,1495181792
95,15,17,Jits_Phase_5,4,5,80,127,1495190880
95,15,17,Jits_Phase_5,0,5,80,127,1495610660
95,15,17,Jits_Phase_5,1,1,48,26,1495646440
95,15,17,Jits_Phase_5,2,5,63,98,1495671488
95,15,17,Jits_Phase_5,3,5,56,103,1495711204
95,15,17,Jits_Phase_5,0,1,48,23,1496133916
95,15,17,Jits_Phase_5,1,5,56,103,1496151324
95,15,17,Jits_Phase_5,2,5,63,98,1496160696
95,15,17,Jits_Phase_5,3,5,80,127,1496200556
95,15,17,Jits_Phase_5,0,5,56,103,1496611420
95,15,17,Jits_Phase_5,1,1,48,29,1496622416
95,15,17,Jits_Phase_5,2,5,80,127,1496640944
95,15,17,Jits_Phase_5,3,5,63,98,1496690992
95,15,17,Jits_Phase_5,0,5,56,103,1497150896
95,15,17,Jits_Phase_5,1,1,48,25,1497156332
95,15,17,Jits_Phase_5,2,5,63,98,1497190824
95,15,17,Jits_Phase_5,3,5,80,127,1497194412
95,15,17,Jits_Phase_5,0,1,48,26,1497644180
95,15,17,Jits_Phase_5,1,5,56,103,1497650648
95,15,17,Jits_Phase_5,2,5,63,98,1497660996
95,15,17,Jits_Phase_5,3,5,80,127,1497681528
95,15,17,Jits_Phase_5,0,1,48,25,1498083744
95,15,17,Jits_Phase_5,1,5,56,103,1498111560
95,15,17,Jits_Phase_5,2,5,80,127,1498114480
95,15,17,Jits_Phase_5,3,5,63,98,1498151372
95,15,17,Jits_Phase_5,0,1,48,42,1498552540
95,15,17,Jits_Phase_5,1,5,63,98,1498651068
95,15,17,Jits_Phase_5,2,5,56,103,1498680616
95,15,17,Jits_Phase_5,3,5,80,127,1498701300
95,15,17,Jits_Phase_5,0,1,48,24,1499096408
95,15,17,Jits_Phase_5,1,5,80,127,1499121308
95,15,17,Jits_Phase_5,2,5,56,103,1499131356
95,15,17,Jits_Phase_5,3,5,63,98,1499140428
95,15,17,Jits_Phase_5,0,1,48,37,1499604172
95,15,17,Jits_Phase_5,1,5,56,103,1499620756
95,15,17,Jits_Phase_5,2,5,80,127,1499660692
95,15,17,Jits_Phase_5,3,5,63,98,1499691292
95,15,17,Jits_Phase_5,0,1,48,33,1500072232
95,15,17,Jits_Phase_5,1,5,63,98,1500130620
95,15,17,Jits_Phase_5,2,1,48,21,1500136040
95,15,17,Jits_Phase_5,3,5,80,127,1500140792
95,15,17,Jits_Phase_5,4,5,56,103,1500151360
95,15,17,Jits_Phase_5,0,1,48,33,1500598912
95,15,17,Jits_Phase_5,1,5,56,103,1500621404
95,15,17,Jits_Phase_5,2,5,63,98,1500690788
95,15,17,Jits_Phase_5,3,5,80,127,1500700892
95,15,17,Jits_Phase_5,0,1,48,28,1501106740
95,15,17,Jits_Phase_5,1,5,80,127,1501131268
95,15,17,Jits_Phase_5,2,5,56,103,1501141540
95,15,17,Jits_Phase_5,3,5,63,98,1501190468
95,15,17,Jits_Phase_5,0,1,48,34,1501613908
95,15,17,Jits_Phase_5,1,5,80,127,1501641204
95,15,17,Jits_Phase_5,2,1,48,19,1501683720
95,15,17,Jits_Phase_5,3,5,56,103,1501700376
95,15,17,Jits_Phase_5,4,5,63,98,1501731644
95,15,17,Jits_Phase_5,0,1,48,31,1502139772
95,15,17,Jits_Phase_5,1,5,56,103,1502141288
95,15,17,Jits_Phase_5,2,5,80,127,1502144124
95,15,17,Jits_Phase_5,3,5,63,98,1502180700
95,15,17,Jits_Phase_5,0,1,48,27,1502651496
95,15,17,Jits_Phase_5,1,5,56,103,1502671368
95,15,17,Jits_Phase_5,2,5,63,98,1502700968
95,15,17,Jits_Phase_5,3,5,80,127,1502711236
95,15,17,Jits_Phase_5,0,1,48,19,1503136696
95,15,17,Jits_Phase_5,1,5,63,98,1503181456
95,15,17,Jits_Phase_5,2,5,80,127,1503191360
95,15,17,Jits_Phase_5,3,5,56,103,1503200580
95,15,17,Jits_Phase_5,0,5,80,127,1503630648
95,15,17,Jits_Phase_5,1,1,48,33,1503648516
95,15,17,Jits_Phase_5,2,5,56,103,1503680760
95,15,17,Jits_Phase_5,3,5,63,98,1503683836
95,15,17,Jits_Phase_5,0,5,56,103,1504161268
95,15,17,Jits_Phase_5,1,1,48,30,1504168352
95,15,17,Jits_Phase_5,2,5,80,127,1504180452
95,15,17,Jits_Phase_5,3,5,63,98,1504190796
95,15,17,Jits_Phase_5,0,5,63,98,1504641484
95,15,17,Jits_Phase_5,1,1,48,35,1504652168
95,15,17,Jits_Phase_5,2,5,56,103,1504671076
95,15,17,Jits_Phase_5,3,5,80,127,1504690560
95,15,17,Jits_Phase_5,0,1,48,20,1505138336
95,15,17,Jits_Phase_5,1,5,56,103,1505151260
95,15,17,Jits_Phase_5,2,5,80,127,1505160560
95,15,17,Jits_Phase_5,3,5,63,98,1505231280
95,15,17,Jits_Phase_5,0,5,63,98,1505640684
95,15,17,Jits_Phase_5,1,1,48,26,1505655484
95,15,17,Jits_Phase_5,2,5,80,127,1505680760
95,15,17,Jits_Phase_5,3,5,56,103,1505720624
95,15,17,Jits_Phase_5,0,5,56,103,1506150920
95,15,17,Jits_Phase_5,1,5,63,98,1506161188
95,15,17,Jits_Phase_5,2,1,48,21,1506175320
95,15,17,Jits_Phase_5,3,5,80,127,1506180520
95,15,17,Jits_Phase_5,0,1,48,35,1506644800
95,15,17,Jits_Phase_5,1,5,63,98,1506690456
95,15,17,Jits_Phase_5,2,5,80,127,1506710844
95,15,17,Jits_Phase_5,3,1,48,20,1506712692
95,15,17,Jits_Phase_5,4,5,56,103,1506731280
95,15,17,Jits_Phase_5,0,5,56,103,1507130836
95,15,17,Jits_Phase_5,1,1,48,31,1507176204
95,15,17,Jits_Phase_5,2,5,80,127,1507210476
95,15,17,Jits_Phase_5,3,5,63,98,1507220824
95,15,17,Jits_Phase_5,0,1,48,24,1507641596
95,15,17,Jits_Phase_5,1,5,80,127,1507671360
95,15,17,Jits_Phase_5,2,5,63,98,1507680580
95,15,17,Jits_Phase_5,3,5,56,103,1507711300
95,15,17,Jits_Phase_5,0,5,63,98,1508131480
95,15,17,Jits_Phase_5,1,1,48,27,1508168456
95,15,17,Jits_Phase_5,2,5,80,127,1508171264
95,15,17,Jits_Phase_5,3,5,56,103,1508230452
95,15,17,Jits_Phase_5,0,5,63,98,1508641320
95,15,17,Jits_Phase_5,1,1,48,29,1508646260
95,15,17,Jits_Phase_5,2,5,56,103,1508691464
95,15,17,Jits_Phase_5,3,5,80,127,1508721212
95,15,17,Jits_Phase_5,0,1,48,30,1509127544
95,15,17,Jits_Phase_5,1,5,80,127,1509140988
95,15,17,Jits_Phase_5,2,5,63,98,1509151184
95,15,17,Jits_Phase_5,3,5,56,103,1509220660
95,15,17,Jits_Phase_5,0,1,48,29,1509670256
95,15,17,Jits_Phase_5,1,5,80,127,1509700920
95,15,17,Jits_Phase_5,2,5,56,103,1509711188
95,15,17,Jits_Phase_5,3,5,63,98,1509714404
95,15,17,Jits_Phase_5,0,5,56,103,1510141460
95,15,17,Jits_Phase_5,1,1,48,33,1510145332
95,15,17,Jits_Phase_5,2,5,80,127,1510160792
95,15,17,Jits_Phase_5,3,5,63,98,1510171136
95,15,17,Jits_Phase_5,4,1,48,21,1510211348
95,15,17,Jits_Phase_5,0,1,48,31,1510616348
95,15,17,Jits_Phase_5,1,5,63,98,1510651140
95,15,17,Jits_Phase_5,2,1,48,21,1510682344
95,15,17,Jits_Phase_5,3,5,56,103,1510691380
95,15,17,Jits_Phase_5,4,5,80,127,1510710568
95,15,17,Jits_Phase_5,0,1,48,26,1511145052
95,15,17,Jits_Phase_5,1,5,63,98,1511151220
95,15,17,Jits_Phase_5,2,5,56,103,1511211488
95,15,17,Jits_Phase_5,3,5,80,127,1511214628
95,15,17,Jits_Phase_5,0,5,56,103,1511610668
95,15,17,Jits_Phase_5,1,5,80,127,1511631348
95,15,17,Jits_Phase_5,2,1,48,31,1511667728
95,15,17,Jits_Phase_5,3,5,63,98,1511671280
95,15,17,Jits_Phase_5,0,1,48,32,1512110696
95,15,17,Jits_Phase_5,1,5,56,103,1512141436
95,15,17,Jits_Phase_5,2,5,63,98,1512160548
95,15,17,Jits_Phase_5,3,5,80,127,1512170744
95,15,17,Jits_Phase_5,0,1,48,32,1512604824
95,15,17,Jits_Phase_5,1,5,80,127,1512611216
95,15,17,Jits_Phase_5,2,5,56,103,1512640816
95,15,17,Jits_Phase_5,3,5,63,98,1512680752
95,15,17,Jits_Phase_5,0,5,80,127,1513121084
95,15,17,Jits_Phase_5,1,1,48,31,1513124576
95,15,17,Jits_Phase_5,2,5,56,103,1513140640
95,15,17,Jits_Phase_5,3,5,63,98,1513201248
95,15,17,Jits_Phase_5,0,1,48,34,1513629672
95,15,17,Jits_Phase_5,1,5,56,103,1513631328
95,15,17,Jits_Phase_5,2,5,80,127,1513650592
95,15,17,Jits_Phase_5,3,5,63,98,1513711052
95,15,17,Jits_Phase_5,0,5,80,127,1514111380
95,15,17,Jits_Phase_5,1,5,56,103,1514120532
95,15,17,Jits_Phase_5,2,1,48,29,1514134664
95,15,17,Jits_Phase_5,3,5,63,98,1514160460
95,15,17,Jits_Phase_5,0,5,63,98,1514611068
95,15,17,Jits_Phase_5,1,1,48,30,1514616804
95,15,17,Jits_Phase_5,2,5,56,103,1514651072
95,15,17,Jits_Phase_5,3,5,80,127,1514654436
95,15,17,Jits_Phase_5,0,1,48,30,1515108984
95,15,17,Jits_Phase_5,1,5,63,98,1515131328
95,15,17,Jits_Phase_5,2,5,80,127,1515171116
95,15,17,Jits_Phase_5,3,5,56,103,1515201236
95,15,17,Jits_Phase_5,0,1,48,32,1515596212
95,15,17,Jits_Phase_5,1,5,56,103,1515620740
95,15,17,Jits_Phase_5,2,5,63,98,1515631160
95,15,17,Jits_Phase_5,3,5,80,127,1515660684
95,15,17,Jits_Phase_5,0,1,48,30,1516107416
95,15,17,Jits_Phase_5,1,5,80,127,1516111120
95,15,17,Jits_Phase_5,2,5,63,98,1516180952
95,15,17,Jits_Phase_5,3,5,56,103,1516191296
95,15,17,Jits_Phase_5,0,1,48,33,1516610200
95,15,17,Jits_Phase_5,1,5,63,98,1516611848
95,15,17,Jits_Phase_5,2,5,56,103,1516680552
95,15,17,Jits_Phase_5,3,5,80,127,1516690748
95,15,17,Jits_Phase_5,0,5,63,98,1517091148
95,15,17,Jits_Phase_5,1,5,56,103,1517110560
95,15,17,Jits_Phase_5,2,1,48,24,1517120276
95,15,17,Jits_Phase_5,3,5,80,127,1517150564
95,15,17,Jits_Phase_5,0,5,56,103,1517570500
95,15,17,Jits_Phase_5,1,1,48,38,1517577808
95,15,17,Jits_Phase_5,2,5,63,98,1517580540
95,15,17,Jits_Phase_5,3,5,80,127,1517660428
95,15,17,Jits_Phase_5,0,1,48,39,1518053596
95,15,17,Jits_Phase_5,1,5,63,98,1518061112
95,15,17,Jits_Phase_5,2,5,56,103,1518090640
95,15,17,Jits_Phase_5,3,5,80,127,1518130524
95,15,17,Jits_Phase_5,0,1,48,38,1518543752
95,15,17,Jits_Phase_5,1,5,56,103,1518560488
95,15,17,Jits_Phase_5,2,5,63,98,1518600500
95,15,17,Jits_Phase_5,3,1,48,20,1518621136
95,15,17,Jits_Phase_5,4,5,80,127,1518640440
95,15,17,Jits_Phase_5,0,1,48,33,1519031404
95,15,17,Jits_Phase_5,1,5,80,127,1519061388
95,15,17,Jits_Phase_5,2,5,56,103,1519141268
95,15,17,Jits_Phase_5,3,5,63,98,1519150416
95,15,17,Jits_Phase_5,0,1,48,29,1519582168
95,15,17,Jits_Phase_5,1,5,56,103,1519600996
95,15,17,Jits_Phase_5,2,5,63,98,1519604140
95,15,17,Jits_Phase_5,3,5,80,127,1519611344
95,15,17,Jits_Phase_5,0,1,48,32,1520069328
95,15,17,Jits_Phase_5,1,5,56,103,1520121268
95,15,17,Jits_Phase_5,2,5,63,98,1520140680
95,15,17,Jits_Phase_5,3,5,80,127,1520151100
95,15,17,Jits_Phase_5,0,5,63,98,1520581172
95,15,17,Jits_Phase_5,1,1,48,32,1520582512
95,15,17,Jits_Phase_5,2,5,80,127,1520591360
95,15,17,Jits_Phase_5,3,5,56,103,1520610548
95,15,17,Jits_Phase_5,0,5,63,98,1521080768
95,15,17,Jits_Phase_5,1,1,48,28,1521091456
95,15,17,Jits_Phase_5,2,5,56,103,1521160476
95,15,17,Jits_Phase_5,3,5,80,127,1521163548
95,15,17,Jits_Phase_5,0,1,48,34,1521578896
95,15,17,Jits_Phase_5,1,5,63,98,1521581408
95,15,17,Jits_Phase_5,2,5,56,103,1521600892
95,15,17,Jits_Phase_5,3,5,80,127,1521630640
95,15,17,Jits_Phase_5,0,1,48,29,1522060976
95,15,17,Jits_Phase_5,1,5,56,103,1522081304
95,15,17,Jits_Phase_5,2,5,63,98,1522100492
95,15,17,Jits_Phase_5,3,5,80,127,1522110912
95,15,17,Jits_Phase_5,0,1,48,26,1522560504
95,15,17,Jits_Phase_5,1,5,56,103,1522610572
95,15,17,Jits_Phase_5,2,5,63,98,1522641368
95,15,17,Jits_Phase_5,3,5,80,127,1522644508
95,15,17,Jits_Phase_5,0,1,48,31,1523031256
95,15,17,Jits_Phase_5,1,5,56,103,1523071280
95,15,17,Jits_Phase_5,2,5,63,98,1523111292
95,15,17,Jits_Phase_5,3,5,80,127,1523170692
95,15,17,Jits_Phase_5,0,1,48,35,1523562916
95,15,17,Jits_Phase_5,1,5,56,103,1523590364
95,15,17,Jits_Phase_5,2,5,63,98,1523600632
95,15,17,Jits_Phase_5,3,5,80,127,1523661300
95,15,17,Jits_Phase_5,0,1,48,36,1524071660
95,15,17,Jits_Phase_5,1,5,56,103,1524091456
95,15,17,Jits_Phase_5,2,5,80,127,1524110648
95,15,17,Jits_Phase_5,3,5,63,98,1524141368
95,15,17,Jits_Phase_5,0,1,48,32,1524558356
95,15,17,Jits_Phase_5,1,5,80,127,1524591132
95,15,17,Jits_Phase_5,2,5,56,103,1524601180
95,15,17,Jits_Phase_5,3,5,63,98,1524620588
95,15,17,Jits_Phase_5,0,1,48,29,1525065980
95,15,17,Jits_Phase_5,1,5,63,98,1525080468
95,15,17,Jits_Phase_5,2,5,80,127,1525161220
95,15,17,Jits_Phase_5,3,5,56,103,1525170516
95,15,17,Jits_Phase_5,0,1,48,25,1525582072
95,15,17,Jits_Phase_5,1,5,80,127,1525671396
95,15,17,Jits_Phase_5,2,5,56,103,1525690716
95,15,17,Jits_Phase_5,3,5,63,98,1525693860
95,15,17,Jits_Phase_5,0,1,48,32,1526111104
95,15,17,Jits_Phase_5,1,5,63,98,1526160728
95,15,17,Jits_Phase_5,2,5,80,127,1526164316
95,15,17,Jits_Phase_5,3,5,56,103,1526221248
95,15,17,Jits_Phase_5,0,1,48,24,1526584400
95,15,17,Jits_Phase_5,1,5,56,103,1526640992
95,15,17,Jits_Phase_5,2,5,80,127,1526651188
95,15,17,Jits_Phase_5,3,5,63,98,1526691256
95,15,17,Jits_Phase_5,0,1,48,32,1527110900
95,15,17,Jits_Phase_5,1,5,56,103,1527121260
95,15,17,Jits_Phase_5,2,5,63,98,1527180824
95,15,17,Jits_Phase_5,3,5,80,127,1527191020
95,15,17,Jits_Phase_5,0,1,48,29,1527608232
95,15,17,Jits_Phase_5,1,5,63,98,1527631344
95,15,17,Jits_Phase_5,2,5,80,127,1527671284
95,15,17,Jits_Phase_5,3,5,56,103,1527711276
95,15,17,Jits_Phase_5,0,1,48,21,1528119688
95,15,17,Jits_Phase_5,1,5,56,103,1528131020
95,15,17,Jits_Phase_5,2,5,63,98,1528210960
95,15,17,Jits_Phase_5,3,5,80,127,1528215136
95,15,17,Jits_Phase_5,0,1,48,23,1528635456
95,15,17,Jits_Phase_5,1,5,80,127,1528691076
95,15,17,Jits_Phase_5,2,5,56,103,1528721044
95,15,17,Jits_Phase_5,3,5,63,98,1528724040
95,15,17,Jits_Phase_5,0,1,48,34,1529140600
95,15,17,Jits_Phase_5,1,5,56,103,1529150960
95,15,17,Jits_Phase_5,2,5,80,127,1529171196
95,15,17,Jits_Phase_5,3,5,63,98,1529211208
95,15,17,Jits_Phase_5,0,5,80,127,1529631144
95,15,17,Jits_Phase_5,1,5,63,98,1529650508
95,15,17,Jits_Phase_5,2,1,48,27,1529671608
95,15,17,Jits_Phase_5,3,5,56,103,1529711036
95,15,17,Jits_Phase_5,0,5,63,98,1530141024
95,15,17,Jits_Phase_5,1,5,56,103,1530151244
95,15,17,Jits_Phase_5,2,1,48,26,1530162008
95,15,17,Jits_Phase_5,3,5,80,127,1530200392
95,15,17,Jits_Phase_5,0,5,56,103,1530630512
95,15,17,Jits_Phase_5,1,5,63,98,1530651264
95,15,17,Jits_Phase_5,2,5,80,127,1530661264
95,15,17,Jits_Phase_5,3,1,48,26,1530662304
95,15,17,Jits_Phase_5,0,1,48,19,1531118920
95,15,17,Jits_Phase_5,1,5,56,103,1531120972
95,15,17,Jits_Phase_5,2,5,63,98,1531124040
95,15,17,Jits_Phase_5,3,5,80,127,1531140384
95,15,17,Jits_Phase_5,0,1,48,23,1531593404
95,15,17,Jits_Phase_5,1,5,63,98,1531660708
95,15,17,Jits_Phase_5,2,5,56,103,1531692488
95,15,17,Jits_Phase_5,3,5,80,127,1531721040
95,15,17,Jits_Phase_5,0,1,48,26,1532113164
95,15,17,Jits_Phase_5,1,5,80,127,1532120456
95,15,17,Jits_Phase_5,2,5,56,103,1532210684
95,15,17,Jits_Phase_5,3,5,63,98,1532214488
95,15,17,Jits_Phase_5,0,5,56,103,1532621100
95,15,17,Jits_Phase_5,1,5,80,127,1532624468
95,15,17,Jits_Phase_5,2,1,48,29,1532625508
95,15,17,Jits_Phase_5,3,5,63,98,1532701036
95,15,17,Jits_Phase_5,0,1,48,29,1533121228
95,15,17,Jits_Phase_5,1,5,80,127,1533122492
95,15,17,Jits_Phase_5,2,5,63,98,1533181236
95,15,17,Jits_Phase_5,3,5,56,103,1533211132
95,15,17,Jits_Phase_5,0,5,63,98,1533620756
95,15,17,Jits_Phase_5,1,1,48,32,1533621724
95,15,17,Jits_Phase_5,2,5,80,127,1533630796
95,15,17,Jits_Phase_5,3,5,56,103,1533700396
95,15,17,Jits_Phase_5,0,1,48,29,1534121816
95,15,17,Jits_Phase_5,1,5,56,103,1534180880
95,15,17,Jits_Phase_5,2,5,80,127,1534210408
95,15,17,Jits_Phase_5,3,5,63,98,1534260688
95,15,17,Jits_Phase_5,0,1,48,28,1534624108
95,15,17,Jits_Phase_5,1,5,63,98,1534770464
95,15,17,Jits_Phase_5,2,5,56,103,1534801256
95,15,17,Jits_Phase_5,3,5,80,127,1534804324
95,15,17,Jits_Phase_5,0,1,48,24,1535143404
95,15,17,Jits_Phase_5,1,5,63,98,1535280472
95,15,17,Jits_Phase_5,2,5,80,127,1535301080
95,15,17,Jits_Phase_5,3,5,56,103,1535311200
95,15,17,Jits_Phase_5,0,1,48,23,1535682416
95,15,17,Jits_Phase_5,1,5,56,103,1535790412
95,15,17,Jits_Phase_5,2,5,63,98,1535793628
95,15,17,Jits_Phase_5,3,5,80,127,1535810872
95,15,17,Jits_Phase_5,0,5,56,103,1536241148
95,15,17,Jits_Phase_5,1,1,48,26,1536247408
95,15,17,Jits_Phase_5,2,5,63,98,1536251188
95,15,17,Jits_Phase_5,3,5,80,127,1536280864
95,15,17,Jits_Phase_5,0,1,48,29,1536755484
95,15,17,Jits_Phase_5,1,5,63,98,1536761132
95,15,17,Jits_Phase_5,2,5,80,127,1536780620
95,15,17,Jits_Phase_5,3,5,56,103,1536820508
95,15,17,Jits_Phase_5,0,1,48,29,1537268340
95,15,17,Jits_Phase_5,1,5,56,103,1537290552
95,15,17,Jits_Phase_5,2,5,63,98,1537330664
95,15,17,Jits_Phase_5,3,5,80,127,1537334028
95,15,17,Jits_Phase_5,0,5,80,127,1537731116
95,15,17,Jits_Phase_5,1,5,56,103,1537771056
95,15,17,Jits_Phase_5,2,1,48,32,1537773580
95,15,17,Jits_Phase_5,3,5,63,98,1537821024
95,15,17,Jits_Phase_5,0,1,48,29,1538287032
95,15,17,Jits_Phase_5,1,5,56,103,1538291184
95,15,17,Jits_Phase_5,2,5,80,127,1538301456
95,15,17,Jits_Phase_5,3,5,63,98,1538330980
95,15,17,Jits_Phase_5,0,5,56,103,1538740528
95,15,17,Jits_Phase_5,1,5,80,127,1538780540
95,15,17,Jits_Phase_5,2,1,48,28,1538798724
95,15,17,Jits_Phase_5,3,5,63,98,1538830804
95,15,17,Jits_Phase_5,0,5,56,103,1539241264
95,15,17,Jits_Phase_5,1,5,80,127,1539281200
95,15,17,Jits_Phase_5,2,5,63,98,1539330352
95,15,17,Jits_Phase_5,3,1,48,19,1539333324
95,15,17,Jits_Phase_5,0,5,80,127,1539731060
95,15,17,Jits_Phase_5,1,1,48,24,1539788192
95,15,17,Jits_Phase_5,2,5,63,98,1539811000
95,15,17,Jits_Phase_5,3,5,56,103,1539820824
95,15,17,Jits_Phase_5,0,1,48,24,1540263092
95,15,17,Jits_Phase_5,1,5,80,127,1540280796
95,15,17,Jits_Phase_5,2,5,56,103,1540291212
95,15,17,Jits_Phase_5,3,5,63,98,1540311452
95,15,17,Jits_Phase_5,0,1,48,34,1540733396
95,15,17,Jits_Phase_5,1,5,63,98,1540750952
95,15,17,Jits_Phase_5,2,5,56,103,1540821304
95,15,17,Jits_Phase_5,3,5,80,127,1540824672
95,15,17,Jits_Phase_5,0,5,80,127,1541241260
95,15,17,Jits_Phase_5,1,1,48,26,1541247004
95,15,17,Jits_Phase_5,2,5,63,98,1541291384
95,15,17,Jits_Phase_5,3,5,56,103,1541331244
95,15,17,Jits_Phase_5,0,1,48,32,1541751340
95,15,17,Jits_Phase_5,1,5,63,98,1541780884
95,15,17,Jits_Phase_5,2,5,56,103,1541820896
95,15,17,Jits_Phase_5,3,5,80,127,1541830940
95,15,17,Jits_Phase_5,0,1,48,29,1542254688
95,15,17,Jits_Phase_5,1,5,63,98,1542271272
95,15,17,Jits_Phase_5,2,5,56,103,1542290908
95,15,17,Jits_Phase_5,3,5,80,127,1542311216
95,15,17,Jits_Phase_5,0,5,80,127,1542731172
95,15,17,Jits_Phase_5,1,5,56,103,1542741292
95,15,17,Jits_Phase_5,2,1,48,21,1542760252
95,15,17,Jits_Phase_5,3,5,63,98,1542761820
95,15,17,Jits_Phase_5,0,1,48,17,1543235764
95,15,17,Jits_Phase_5,1,5,63,98,1543260516
95,15,17,Jits_Phase_5,2,5,56,103,1543300604
95,15,17,Jits_Phase_5,3,5,80,127,1543331308
95,15,17,Jits_Phase_5,0,1,48,27,1543712272
95,15,17,Jits_Phase_5,1,5,56,103,1543721308
95,15,17,Jits_Phase_5,2,5,63,98,1543750984
95,15,17,Jits_Phase_5,3,5,80,127,1543780660
95,15,17,Jits_Phase_5,0,5,80,127,1544141188
95,15,17,Jits_Phase_5,1,1,48,18,1544196964
95,15,17,Jits_Phase_5,2,5,56,103,1544210932
95,15,17,Jits_Phase_5,3,5,63,98,1544214000
95,15,17,Jits_Phase_5,0,5,56,103,1544651060
95,15,17,Jits_Phase_5,1,1,48,22,1544673436
95,15,17,Jits_Phase_5,2,5,63,98,1544701400
95,15,17,Jits_Phase_5,3,5,80,127,1544731000
95,15,17,Jits_Phase_5,0,1,48,28,1545122924
95,15,17,Jits_Phase_5,1,5,63,98,1545131340
95,15,17,Jits_Phase_5,2,5,80,127,1545134776
95,15,17,Jits_Phase_5,3,5,56,103,1545190972
95,15,17,Jits_Phase_5,0,1,48,28,1545618768
95,15,17,Jits_Phase_5,1,5,56,103,1545660964
95,15,17,Jits_Phase_5,2,5,80,127,1545671236
95,15,17,Jits_Phase_5,3,5,63,98,1545721272
95,15,17,Jits_Phase_5,0,5,63,98,1546131052
95,15,17,Jits_Phase_5,1,5,56,103,1546141176
95,15,17,Jits_Phase_5,2,1,48,28,1546144740
95,15,17,Jits_Phase_5,3,5,80,127,1546170844
95,15,17,Jits_Phase_5,0,1,48,30,1546613988
95,15,17,Jits_Phase_5,1,5,63,98,1546661208
95,15,17,Jits_Phase_5,2,5,80,127,1546664796
95,15,17,Jits_Phase_5,3,5,56,103,1546691032
95,15,17,Jits_Phase_5,0,1,48,27,1547146008
95,15,17,Jits_Phase_5,1,5,63,98,1547181332
95,15,17,Jits_Phase_5,2,5,56,103,1547200816
95,15,17,Jits_Phase_5,3,5,80,127,1547203956
95,15,17,Jits_Phase_5,0,1,48,24,1547631904
95,15,17,Jits_Phase_5,1,5,63,98,1547641140
95,15,17,Jits_Phase_5,2,5,56,103,1547710968
95,15,17,Jits_Phase_5,3,5,80,127,1547731188
95,15,17,Jits_Phase_5,0,1,48,30,1548097708
95,15,17,Jits_Phase_5,1,5,56,103,1548130928
95,15,17,Jits_Phase_5,2,5,63,98,1548141048
95,15,17,Jits_Phase_5,3,5,80,127,1548231160
95,15,17,Jits_Phase_5,0,1,48,28,1548575032
95,15,17,Jits_Phase_5,1,5,56,103,1548650980
95,15,17,Jits_Phase_5,2,5,80,127,1548690976
95,15,17,Jits_Phase_5,3,5,63,98,1548701172
95,15,17,Jits_Phase_5,0,5,56,103,1549171040
95,15,17,Jits_Phase_5,1,5,63,98,1549201012
95,15,17,Jits_Phase_5,2,5,80,127,1549230388
95,15,17,Jits_Phase_5,0,5,80,127,1549631064
95,15,17,Jits_Phase_5,1,1,48,33,1549636424
95,15,17,Jits_Phase_5,2,5,63,98,1549670772
95,15,17,Jits_Phase_5,3,5,56,103,1549691376
95,15,17,Jits_Phase_5,0,1,48,31,1550146072
95,15,17,Jits_Phase_5,1,5,56,103,1550170452
95,15,17,Jits_Phase_5,2,5,80,127,1550190988
95,15,17,Jits_Phase_5,3,5,63,98,1550210396
95,15,17,Jits_Phase_5,0,5,63,98,1550640912
95,15,17,Jits_Phase_5,1,5,56,103,1550650664
95,15,17,Jits_Phase_5,2,1,48,29,1550670196
95,15,17,Jits_Phase_5,3,5,80,127,1550711192
95,15,17,Jits_Phase_5,0,5,56,103,1551141264
95,15,17,Jits_Phase_5,1,1,48,21,1551166780
95,15,17,Jits_Phase_5,2,5,63,98,1551210788
95,15,17,Jits_Phase_5,3,5,80,127,1551231320
95,15,17,Jits_Phase_5,0,5,56,103,1551641008
95,15,17,Jits_Phase_5,1,5,63,98,1551670780
95,15,17,Jits_Phase_5,2,1,48,29,1551692112
95,15,17,Jits_Phase_5,3,5,80,127,1551710564
95,15,17,Jits_Phase_5,0,5,63,98,1552130508
95,15,17,Jits_Phase_5,1,5,56,103,1552180884
95,15,17,Jits_Phase_5,2,5,80,127,1552191080
95,15,17,Jits_Phase_5,3,1,48,14,1552196220
95,15,17,Jits_Phase_5,0,1,48,27,1552636512
95,15,17,Jits_Phase_5,1,5,56,103,1552671156
95,15,17,Jits_Phase_5,2,5,63,98,1552721208
95,15,17,Jits_Phase_5,3,5,80,127,1552730488
95,15,17,Jits_Phase_5,0,1,48,25,1553116536
95,15,17,Jits_Phase_5,1,5,56,103,1553141064
95,15,17,Jits_Phase_5,2,5,63,98,1553151484
95,15,17,Jits_Phase_5,3,5,80,127,1553231356
95,15,17,Jits_Phase_5,0,9999,9999,9999,1468898360
95,15,17,Jits_Phase_5,1,9999,9999,9999,1469398072
95,15,17,Jits_Phase_5,2,9999,9999,9999,1469898824
95,15,17,Jits_Phase_5,3,9999,9999,9999,1470398552
95,15,17,Jits_Phase_5,4,9999,9999,9999,1470898236
95,15,17,Jits_Phase_5,5,9999,9999,9999,1471399012
95,15,17,Jits_Phase_5,6,9999,9999,9999,1471898692
95,15,17,Jits_Phase_5,7,9999,9999,9999,1472398456
95,15,17,Jits_Phase_5,8,9999,9999,9999,1472898120
95,15,17,Jits_Phase_5,9,9999,9999,9999,1473398912
95,15,17,Jits_Phase_5,10,9999,9999,9999,1473898596
95,15,17,Jits_Phase_5,11,9999,9999,9999,1474398288
95,15,17,Jits_Phase_5,12,9999,9999,9999,1474899004
95,15,17,Jits_Phase_5,13,9999,9999,9999,1475398748
95,15,17,Jits_Phase_5,14,9999,9999,9999,1475898496
95,15,17,Jits_Phase_5,15,9999,9999,9999,1476398180
95,15,17,Jits_Phase_5,16,9999,9999,9999,1476898892
95,15,17,Jits_Phase_5,17,9999,9999,9999,1477398640
95,15,17,Jits_Phase_5,18,9999,9999,9999,1477898312
95,15,17,Jits_Phase_5,19,9999,9999,9999,1478399048
95,15,17,Jits_Phase_5,20,9999,9999,9999,1478898804
95,15,17,Jits_Phase_5,21,9999,9999,9999,1479398480
95,15,17,Jits_Phase_5,22,9999,9999,9999,1479898168
95,15,17,Jits_Phase_5,23,9999,9999,9999,1480398900
95,15,17,Jits_Phase_5,24,9999,9999,9999,1480898664
95,15,17,Jits_Phase_5,25,9999,9999,9999,1481398396
95,15,17,Jits_Phase_5,26,9999,9999,9999,1481899100
95,15,17,Jits_Phase_5,27,9999,9999,9999,1482409024
95,15,17,Jits_Phase_5,28,9999,9999,9999,1482908792
95,15,17,Jits_Phase_5,29,9999,9999,9999,1483408476
95,15,17,Jits_Phase_5,30,9999,9999,9999,1483898952
95,15,17,Jits_Phase_5,31,9999,9999,9999,1484398716
95,15,17,Jits_Phase_5,32,9999,9999,9999,1484898404
95,15,17,Jits_Phase_5,33,9999,9999,9999,1485398096
95,15,17,Jits_Phase_5,34,9999,9999,9999,1485898832
95,15,17,Jits_Phase_5,35,9999,9999,9999,1486398524
95,15,17,Jits_Phase_5,36,9999,9999,9999,1486898260
95,15,17,Jits_Phase_5,37,9999,9999,9999,1487398980
95,15,17,Jits_Phase_5,38,9999,9999,9999,1487898720
95,15,17,Jits_Phase_5,39,9999,9999,9999,1488398392
95,15,17,Jits_Phase_5,40,9999,9999,9999,1488898144
95,15,17,Jits_Phase_5,41,9999,9999,9999,1489398876
95,15,17,Jits_Phase_5,42,9999,9999,9999,1489898564
95,15,17,Jits_Phase_5,43,9999,9999,9999,1490398312
95,15,17,Jits_Phase_5,44,9999,9999,9999,1490899032
95,15,17,Jits_Phase_5,45,9999,9999,9999,1491398716
95,15,17,Jits_Phase_5,46,9999,9999,9999,1491898464
95,15,17,Jits_Phase_5,47,9999,9999,9999,1492398144
95,15,17,Jits_Phase_5,48,9999,9999,9999,1492908136
95,15,17,Jits_Phase_5,49,9999,9999,9999,1493408832
95,15,17,Jits_Phase_5,50,9999,9999,9999,1493908548
95,15,17,Jits_Phase_5,51,9999,9999,9999,1494408312
95,15,17,Jits_Phase_5,52,9999,9999,9999,1494909036
95,15,17,Jits_Phase_5,53,9999,9999,9999,1495408692
95,15,17,Jits_Phase_5,54,9999,9999,9999,1495908420
95,15,17,Jits_Phase_5,55,9999,9999,9999,1496408184
95,15,17,Jits_Phase_5,56,9999,9999,9999,1496908880
95,15,17,Jits_Phase_5,57,9999,9999,9999,1497408568
95,15,17,Jits_Phase_5,58,9999,9999,9999,1497908336
95,15,17,Jits_Phase_5,59,9999,9999,9999,1498409040
95,15,17,Jits_Phase_5,60,9999,9999,9999,1498908768
95,15,17,Jits_Phase_5,61,9999,9999,9999,1499408504
95,15,17,Jits_Phase_5,62,9999,9999,9999,1499908184
95,15,17,Jits_Phase_5,63,9999,9999,9999,1500408952
95,15,17,Jits_Phase_5,64,9999,9999,9999,1500928088
95,15,17,Jits_Phase_5,65,9999,9999,9999,1501428808
95,15,17,Jits_Phase_5,66,9999,9999,9999,1501928536
95,15,17,Jits_Phase_5,67,9999,9999,9999,1502428252
95,15,17,Jits_Phase_5,68,9999,9999,9999,1502928976
95,15,17,Jits_Phase_5,69,9999,9999,9999,1503428732
95,15,17,Jits_Phase_5,70,9999,9999,9999,1503928396
95,15,17,Jits_Phase_5,71,9999,9999,9999,1504428088
95,15,17,Jits_Phase_5,72,9999,9999,9999,1504928824
95,15,17,Jits_Phase_5,73,9999,9999,9999,1505428572
95,15,17,Jits_Phase_5,74,9999,9999,9999,1505928252
95,15,17,Jits_Phase_5,75,9999,9999,9999,1506429044
95,15,17,Jits_Phase_5,76,9999,9999,9999,1506928716
95,15,17,Jits_Phase_5,77,9999,9999,9999,1507428452
95,15,17,Jits_Phase_5,78,9999,9999,9999,1507928144
95,15,17,Jits_Phase_5,79,9999,9999,9999,1508428864
95,15,17,Jits_Phase_5,80,9999,9999,9999,1508928616
95,15,17,Jits_Phase_5,81,9999,9999,9999,1509408860
95,15,17,Jits_Phase_5,82,9999,9999,9999,1509908604
95,15,17,Jits_Phase_5,83,9999,9999,9999,1510408260
95,15,17,Jits_Phase_5,84,9999,9999,9999,1510909028
95,15,17,Jits_Phase_5,85,9999,9999,9999,1511408752
95,15,17,Jits_Phase_5,86,9999,9999,9999,1511908424
95,15,17,Jits_Phase_5,87,9999,9999,9999,1512408184
95,15,17,Jits_Phase_5,88,9999,9999,9999,1512908904
95,15,17,Jits_Phase_5,89,9999,9999,9999,1513408580
95,15,17,Jits_Phase_5,90,9999,9999,9999,1513908344
95,15,17,Jits_Phase_5,91,9999,9999,9999,1514409060
95,15,17,Jits_Phase_5,92,9999,9999,9999,1514908740
95,15,17,Jits_Phase_5,93,9999,9999,9999,1515408492
95,15,17,Jits_Phase_5,94,9999,9999,9999,1515908164
95,15,17,Jits_Phase_5,95,9999,9999,9999,1516408888
95,15,17,Jits_Phase_5,96,9999,9999,9999,1516908636
95,15,17,Jits_Phase_5,97,9999,9999,9999,1517358192
95,15,17,Jits_Phase_5,98,9999,9999,9999,1517858912
95,15,17,Jits_Phase_5,99,9999,9999,9999,1518358648
95,15,17,Jits_Phase_5,100,9999,9999,9999,1518858300
95,15,17,Jits_Phase_5,101,9999,9999,9999,1519359076
95,15,17,Jits_Phase_5,102,9999,9999,9999,1519858748
95,15,17,Jits_Phase_5,103,9999,9999,9999,1520358500
95,15,17,Jits_Phase_5,104,9999,9999,9999,1520858176
95,15,17,Jits_Phase_5,105,9999,9999,9999,1521358968
95,15,17,Jits_Phase_5,106,9999,9999,9999,1521858640
95,15,17,Jits_Phase_5,107,9999,9999,9999,1522358392
95,15,17,Jits_Phase_5,108,9999,9999,9999,1522859104
95,15,17,Jits_Phase_5,109,9999,9999,9999,1523369044
95,15,17,Jits_Phase_5,110,9999,9999,9999,1523868796
95,15,17,Jits_Phase_5,111,9999,9999,9999,1524368468
95,15,17,Jits_Phase_5,112,9999,9999,9999,1524868220
95,15,17,Jits_Phase_5,113,9999,9999,9999,1525368944
95,15,17,Jits_Phase_5,114,9999,9999,9999,1525918808
95,15,17,Jits_Phase_5,115,9999,9999,9999,1526418552
95,15,17,Jits_Phase_5,116,9999,9999,9999,1526918228
95,15,17,Jits_Phase_5,117,9999,9999,9999,1527418948
95,15,17,Jits_Phase_5,118,9999,9999,9999,1527918696
95,15,17,Jits_Phase_5,119,9999,9999,9999,1528418364
95,15,17,Jits_Phase_5,120,9999,9999,9999,1528918112
95,15,17,Jits_Phase_5,121,9999,9999,9999,1529418840
95,15,17,Jits_Phase_5,122,9999,9999,9999,1529918588
95,15,17,Jits_Phase_5,123,9999,9999,9999,1530418280
95,15,17,Jits_Phase_5,124,9999,9999,9999,1530918996
95,15,17,Jits_Phase_5,125,9999,9999,9999,1531418720
95,15,17,Jits_Phase_5,126,9999,9999,9999,1531918396
95,15,17,Jits_Phase_5,127,9999,9999,9999,1532418140
95,15,17,Jits_Phase_5,128,9999,9999,9999,1532918848
95,15,17,Jits_Phase_5,129,9999,9999,9999,1533418612
95,15,17,Jits_Phase_5,130,9999,9999,9999,1533918284
95,15,17,Jits_Phase_5,131,9999,9999,9999,1534518372
95,15,17,Jits_Phase_5,132,9999,9999,9999,1535019088
95,15,17,Jits_Phase_5,133,9999,9999,9999,1535529028
95,15,17,Jits_Phase_5,134,9999,9999,9999,1536028748
95,15,17,Jits_Phase_5,135,9999,9999,9999,1536528492
95,15,17,Jits_Phase_5,136,9999,9999,9999,1537028184
95,15,17,Jits_Phase_5,137,9999,9999,9999,1537528900
95,15,17,Jits_Phase_5,138,9999,9999,9999,1538028652
95,15,17,Jits_Phase_5,139,9999,9999,9999,1538528344
95,15,17,Jits_Phase_5,140,9999,9999,9999,1539029068
95,15,17,Jits_Phase_5,141,9999,9999,9999,1539528756
95,15,17,Jits_Phase_5,142,9999,9999,9999,1540028524
95,15,17,Jits_Phase_5,143,9999,9999,9999,1540528216
95,15,17,Jits_Phase_5,144,9999,9999,9999,1541028932
95,15,17,Jits_Phase_5,145,9999,9999,9999,1541528688
95,15,17,Jits_Phase_5,146,9999,9999,9999,1542028380
95,15,17,Jits_Phase_5,147,9999,9999,9999,1542528060
95,15,17,Jits_Phase_5,148,9999,9999,9999,1543028848
95,15,17,Jits_Phase_5,149,9999,9999,9999,1543528540
95,15,17,Jits_Phase_5,150,9999,9999,9999,1543928932
95,15,17,Jits_Phase_5,151,9999,9999,9999,1544428600
95,15,17,Jits_Phase_5,152,9999,9999,9999,1544928364
95,15,17,Jits_Phase_5,153,9999,9999,9999,1545429088
95,15,17,Jits_Phase_5,154,9999,9999,9999,1545928764
95,15,17,Jits_Phase_5,155,9999,9999,9999,1546428508
95,15,17,Jits_Phase_5,156,9999,9999,9999,1546928248
95,15,17,Jits_Phase_5,157,9999,9999,9999,1547428964
95,15,17,Jits_Phase_5,158,9999,9999,9999,1547928644
95,15,17,Jits_Phase_5,159,9999,9999,9999,1548428392
95,15,17,Jits_Phase_5,160,9999,9999,9999,1548928068
95,15,17,Jits_Phase_5,161,9999,9999,9999,1549428816
95,15,17,Jits_Phase_5,162,9999,9999,9999,1549928520
95,15,17,Jits_Phase_5,163,9999,9999,9999,1550428284
95,15,17,Jits_Phase_5,164,9999,9999,9999,1550929008
95,15,17,Jits_Phase_5,165,9999,9999,9999,1551428684
95,15,17,Jits_Phase_5,166,9999,9999,9999,1551928376
95,15,17,Jits_Phase_5,167,9999,9999,9999,1552428140
95,15,17,Jits_Phase_5,168,9999,9999,9999,1552928840
95,15,17,Jits_Phase_5,169,9999,9999,9999,1553428564
95,16,7,Jits_ISO_8,0,5,56,103,1562881356
95,16,7,Jits_ISO_8,1,5,63,98,1562884828
95,16,7,Jits_ISO_8,2,5,80,127,1562887724
95,16,7,Jits_ISO_8,0,5,56,103,1563681080
95,16,7,Jits_ISO_8,1,5,63,98,1563684256
95,16,7,Jits_ISO_8,2,5,80,127,1563687524
95,16,7,Jits_ISO_8,0,5,80,127,1564420532
95,16,7,Jits_ISO_8,1,5,63,98,1564510620
95,16,7,Jits_ISO_8,2,5,56,103,1564520816
95,16,7,Jits_ISO_8,3,1,48,24,1564527972
95,16,7,Jits_ISO_8,0,5,56,103,1565240736
95,16,7,Jits_ISO_8,1,5,63,98,1565250932
95,16,7,Jits_ISO_8,2,1,48,26,1565252420
95,16,7,Jits_ISO_8,3,5,80,127,1565341132
95,16,7,Jits_ISO_8,0,5,63,98,1566010716
95,16,7,Jits_ISO_8,1,5,80,127,1566040392
95,16,7,Jits_ISO_8,2,1,48,31,1566069444
95,16,7,Jits_ISO_8,3,5,56,103,1566071180
95,16,7,Jits_ISO_8,0,5,56,103,1566810496
95,16,7,Jits_ISO_8,1,1,48,18,1566818792
95,16,7,Jits_ISO_8,2,5,80,127,1566910800
95,16,7,Jits_ISO_8,3,5,63,98,1566960928
95,16,7,Jits_ISO_8,0,5,56,103,1567611192
95,16,7,Jits_ISO_8,1,1,48,25,1567616480
95,16,7,Jits_ISO_8,2,5,80,127,1567661540
95,16,7,Jits_ISO_8,3,1,48,17,1567680304
95,16,7,Jits_ISO_8,4,5,63,98,1567701456
95,16,7,Jits_ISO_8,0,1,48,26,1568409016
95,16,7,Jits_ISO_8,1,5,80,127,1568440580
95,16,7,Jits_ISO_8,2,5,63,98,1568471528
95,16,7,Jits_ISO_8,3,5,56,103,1568540892
95,16,7,Jits_ISO_8,0,1,48,26,1569231344
95,16,7,Jits_ISO_8,1,5,63,98,1569271004
95,16,7,Jits_ISO_8,2,5,56,103,1569300756
95,16,7,Jits_ISO_8,3,5,80,127,1569361156
95,16,7,Jits_ISO_8,0,5,56,103,1570010412
95,16,7,Jits_ISO_8,1,5,80,127,1570013480
95,16,7,Jits_ISO_8,2,1,48,32,1570037344
95,16,7,Jits_ISO_8,3,5,63,98,1570131576
95,16,7,Jits_ISO_8,0,1,48,25,1570829800
95,16,7,Jits_ISO_8,1,5,56,103,1570891132
95,16,7,Jits_ISO_8,2,5,80,127,1570931060
95,16,7,Jits_ISO_8,3,5,63,98,1570941700
95,16,7,Jits_ISO_8,0,1,48,28,1571649028
95,16,7,Jits_ISO_8,1,5,56,103,1571650840
95,16,7,Jits_ISO_8,2,5,80,127,1571671524
95,16,7,Jits_ISO_8,3,5,63,98,1571751604
95,16,7,Jits_ISO_8,0,5,80,127,1572440520
95,16,7,Jits_ISO_8,1,1,48,19,1572473384
95,16,7,Jits_ISO_8,2,5,56,103,1572540764
95,16,7,Jits_ISO_8,3,5,63,98,1572551108
95,16,7,Jits_ISO_8,0,5,63,98,1573210580
95,16,7,Jits_ISO_8,1,5,80,127,1573270824
95,16,7,Jits_ISO_8,2,1,48,19,1573274464
95,16,7,Jits_ISO_8,3,5,56,103,1573281236
95,16,7,Jits_ISO_8,0,1,48,21,1573975628
95,16,7,Jits_ISO_8,1,5,56,103,1574011176
95,16,7,Jits_ISO_8,2,5,63,98,1574080840
95,16,7,Jits_ISO_8,3,5,80,127,1574084132
95,16,7,Jits_ISO_8,0,1,48,27,1574764312
95,16,7,Jits_ISO_8,1,5,63,98,1574840764
95,16,7,Jits_ISO_8,2,5,56,103,1574890876
95,16,7,Jits_ISO_8,3,5,80,127,1574893944
95,16,7,Jits_ISO_8,0,5,56,103,1575600760
95,16,7,Jits_ISO_8,1,5,80,127,1575603604
95,16,7,Jits_ISO_8,2,1,48,30,1575609204
95,16,7,Jits_ISO_8,3,5,63,98,1575690660
95,16,7,Jits_ISO_8,0,1,48,27,1576418576
95,16,7,Jits_ISO_8,1,5,63,98,1576441148
95,16,7,Jits_ISO_8,2,5,56,103,1576531516
95,16,7,Jits_ISO_8,3,5,80,127,1576561044
95,16,7,Jits_ISO_8,0,5,56,103,1577230676
95,16,7,Jits_ISO_8,1,1,48,24,1577259228
95,16,7,Jits_ISO_8,2,5,63,98,1577331096
95,16,7,Jits_ISO_8,3,5,80,127,1577360684
95,16,7,Jits_ISO_8,0,5,63,98,1578051032
95,16,7,Jits_ISO_8,1,1,48,27,1578058488
95,16,7,Jits_ISO_8,2,5,56,103,1578061076
95,16,7,Jits_ISO_8,3,5,80,127,1578151356
95,16,7,Jits_ISO_8,0,1,48,21,1578821344
95,16,7,Jits_ISO_8,1,5,63,98,1578871116
95,16,7,Jits_ISO_8,2,5,56,103,1578951052
95,16,7,Jits_ISO_8,3,5,80,127,1578953968
95,16,7,Jits_ISO_8,0,5,80,127,1579630900
95,16,7,Jits_ISO_8,1,1,48,28,1579647568
95,16,7,Jits_ISO_8,2,5,63,98,1579650452
95,16,7,Jits_ISO_8,3,5,56,103,1579710772
95,16,7,Jits_ISO_8,0,1,48,22,1580434928
95,16,7,Jits_ISO_8,1,5,56,103,1580470624
95,16,7,Jits_ISO_8,2,5,63,98,1580491232
95,16,7,Jits_ISO_8,3,5,80,127,1580494520
95,16,7,Jits_ISO_8,0,5,63,98,1581210992
95,16,7,Jits_ISO_8,1,1,48,27,1581268788
95,16,7,Jits_ISO_8,2,5,80,127,1581290856
95,16,7,Jits_ISO_8,3,5,56,103,1581300976
95,16,7,Jits_ISO_8,0,5,63,98,1582031152
95,16,7,Jits_ISO_8,1,5,56,103,1582050640
95,16,7,Jits_ISO_8,2,1,48,26,1582052348
95,16,7,Jits_ISO_8,3,5,80,127,1582100832
95,16,7,Jits_ISO_8,0,1,48,22,1582811276
95,16,7,Jits_ISO_8,1,5,80,127,1582831000
95,16,7,Jits_ISO_8,2,5,63,98,1582870864
95,16,7,Jits_ISO_8,3,5,56,103,1582891796
95,16,7,Jits_ISO_8,0,1,48,24,1583589632
95,16,7,Jits_ISO_8,1,5,56,103,1583670744
95,16,7,Jits_ISO_8,2,5,63,98,1583680864
95,16,7,Jits_ISO_8,3,5,80,127,1583701608
95,16,7,Jits_ISO_8,0,5,56,103,1584400684
95,16,7,Jits_ISO_8,1,1,48,25,1584453424
95,16,7,Jits_ISO_8,2,5,63,98,1584490912
95,16,7,Jits_ISO_8,3,5,80,127,1584551216
95,16,7,Jits_ISO_8,0,1,48,22,1585220784
95,16,7,Jits_ISO_8,1,5,80,127,1585231068
95,16,7,Jits_ISO_8,2,5,56,103,1585240588
95,16,7,Jits_ISO_8,3,5,63,98,1585311168
95,16,7,Jits_ISO_8,0,1,48,19,1586012248
95,16,7,Jits_ISO_8,1,5,63,98,1586060672
95,16,7,Jits_ISO_8,2,5,80,127,1586150796
95,16,7,Jits_ISO_8,3,5,56,103,1586161288
95,16,7,Jits_ISO_8,0,5,63,98,1586800904
95,16,7,Jits_ISO_8,1,5,80,127,1586851328
95,16,7,Jits_ISO_8,2,1,48,26,1586882848
95,16,7,Jits_ISO_8,3,5,56,103,1586910592
95,16,7,Jits_ISO_8,4,1,48,19,1586940444
95,16,7,Jits_ISO_8,0,1,48,22,1587612788
95,16,7,Jits_ISO_8,1,5,56,103,1587630644
95,16,7,Jits_ISO_8,2,5,80,127,1587680624
95,16,7,Jits_ISO_8,3,5,63,98,1587701008
95,16,7,Jits_ISO_8,0,5,56,103,1588400392
95,16,7,Jits_ISO_8,1,1,48,24,1588407696
95,16,7,Jits_ISO_8,2,5,80,127,1588460924
95,16,7,Jits_ISO_8,3,5,63,98,1588530616
95,16,7,Jits_ISO_8,0,1,48,25,1589191312
95,16,7,Jits_ISO_8,1,5,56,103,1589201376
95,16,7,Jits_ISO_8,2,5,80,127,1589230828
95,16,7,Jits_ISO_8,3,5,63,98,1589260576
95,16,7,Jits_ISO_8,0,1,48,23,1589967256
95,16,7,Jits_ISO_8,1,5,56,103,1590040940
95,16,7,Jits_ISO_8,2,5,80,127,1590061932
95,16,7,Jits_ISO_8,3,5,63,98,1590120752
95,16,7,Jits_ISO_8,0,1,48,18,1590785248
95,16,7,Jits_ISO_8,1,5,80,127,1590920528
95,16,7,Jits_ISO_8,2,5,56,103,1590930948
95,16,7,Jits_ISO_8,3,5,63,98,1590940920
95,16,7,Jits_ISO_8,0,1,48,29,1591661492
95,16,7,Jits_ISO_8,1,5,56,103,1591681376
95,16,7,Jits_ISO_8,2,5,80,127,1591721536
95,16,7,Jits_ISO_8,3,5,63,98,1591751140
95,16,7,Jits_ISO_8,0,5,56,103,1592450528
95,16,7,Jits_ISO_8,1,1,48,29,1592473056
95,16,7,Jits_ISO_8,2,5,63,98,1592481096
95,16,7,Jits_ISO_8,3,5,80,127,1592521332
95,16,7,Jits_ISO_8,0,5,80,127,1593200956
95,16,7,Jits_ISO_8,1,5,63,98,1593251232
95,16,7,Jits_ISO_8,2,1,48,27,1593263864
95,16,7,Jits_ISO_8,3,5,56,103,1593270788
95,16,7,Jits_ISO_8,0,1,48,25,1594015392
95,16,7,Jits_ISO_8,1,5,56,103,1594030488
95,16,7,Jits_ISO_8,2,5,80,127,1594101364
95,16,7,Jits_ISO_8,3,5,63,98,1594160348
95,16,7,Jits_ISO_8,0,1,48,22,1594803644
95,16,7,Jits_ISO_8,1,5,80,127,1594831392
95,16,7,Jits_ISO_8,2,5,63,98,1594921616
95,16,7,Jits_ISO_8,3,5,56,103,1594940728
95,16,7,Jits_ISO_8,0,1,48,22,1595648004
95,16,7,Jits_ISO_8,1,5,63,98,1595650436
95,16,7,Jits_ISO_8,2,5,56,103,1595670748
95,16,7,Jits_ISO_8,3,5,80,127,1595710712
95,16,7,Jits_ISO_8,0,5,80,127,1596411488
95,16,7,Jits_ISO_8,1,1,48,20,1596417224
95,16,7,Jits_ISO_8,2,5,63,98,1596430668
95,16,7,Jits_ISO_8,3,5,56,103,1596510564
95,16,7,Jits_ISO_8,0,1,48,20,1597198128
95,16,7,Jits_ISO_8,1,5,63,98,1597200712
95,16,7,Jits_ISO_8,2,5,56,103,1597311456
95,16,7,Jits_ISO_8,3,5,80,127,1597314452
95,16,7,Jits_ISO_8,0,1,48,27,1598018608
95,16,7,Jits_ISO_8,1,5,63,98,1598021116
95,16,7,Jits_ISO_8,2,5,56,103,1598031460
95,16,7,Jits_ISO_8,3,5,80,127,1598034452
95,16,7,Jits_ISO_8,0,5,56,103,1598801480
95,16,7,Jits_ISO_8,1,1,48,19,1598830684
95,16,7,Jits_ISO_8,2,5,80,127,1598921060
95,16,7,Jits_ISO_8,3,5,63,98,1598960908
95,16,7,Jits_ISO_8,0,5,56,103,1599620544
95,16,7,Jits_ISO_8,1,1,48,24,1599641800
95,16,7,Jits_ISO_8,2,5,80,127,1599701308
95,16,7,Jits_ISO_8,3,5,63,98,1599720720
95,16,7,Jits_ISO_8,0,5,56,103,1600421388
95,16,7,Jits_ISO_8,1,1,48,20,1600436940
95,16,7,Jits_ISO_8,2,5,63,98,1600530692
95,16,7,Jits_ISO_8,3,5,80,127,1600535168
95,16,7,Jits_ISO_8,0,1,48,19,1601222796
95,16,7,Jits_ISO_8,1,5,56,103,1601250616
95,16,7,Jits_ISO_8,2,5,80,127,1601281340
95,16,7,Jits_ISO_8,3,5,63,98,1601300824
95,16,7,Jits_ISO_8,0,1,48,17,1601974324
95,16,7,Jits_ISO_8,1,5,63,98,1602030920
95,16,7,Jits_ISO_8,2,5,56,103,1602041488
95,16,7,Jits_ISO_8,3,5,80,127,1602050412
95,16,7,Jits_ISO_8,0,1,48,16,1602766748
95,16,7,Jits_ISO_8,1,5,80,127,1602820432
95,16,7,Jits_ISO_8,2,5,56,103,1602870496
95,16,7,Jits_ISO_8,3,5,63,98,1602910508
95,16,7,Jits_ISO_8,0,1,48,21,1603574328
95,16,7,Jits_ISO_8,1,5,80,127,1603640540
95,16,7,Jits_ISO_8,2,5,63,98,1603661300
95,16,7,Jits_ISO_8,3,5,56,103,1603711264
95,16,7,Jits_ISO_8,0,1,48,19,1604381308
95,16,7,Jits_ISO_8,1,5,80,127,1604450664
95,16,7,Jits_ISO_8,2,5,56,103,1604481448
95,16,7,Jits_ISO_8,3,5,63,98,1604550980
95,16,7,Jits_ISO_8,0,1,48,17,1605233488
95,16,7,Jits_ISO_8,1,5,56,103,1605300652
95,16,7,Jits_ISO_8,2,5,80,127,1605310920
95,16,7,Jits_ISO_8,3,5,63,98,1605350844
95,16,7,Jits_ISO_8,0,5,56,103,1606011284
95,16,7,Jits_ISO_8,1,5,63,98,1606030624
95,16,7,Jits_ISO_8,2,1,48,20,1606083408
95,16,7,Jits_ISO_8,3,5,80,127,1606101268
95,16,7,Jits_ISO_8,0,1,48,22,1606816808
95,16,7,Jits_ISO_8,1,5,63,98,1606830328
95,16,7,Jits_ISO_8,2,5,80,127,1606890796
95,16,7,Jits_ISO_8,3,5,56,103,1606911316
95,16,7,Jits_ISO_8,0,1,48,20,1607615392
95,16,7,Jits_ISO_8,1,5,80,127,1607620972
95,16,7,Jits_ISO_8,2,5,56,103,1607650648
95,16,7,Jits_ISO_8,3,5,63,98,1607681444
95,16,7,Jits_ISO_8,0,1,48,20,1608396640
95,16,7,Jits_ISO_8,1,5,56,103,1608420652
95,16,7,Jits_ISO_8,2,5,63,98,1608481144
95,16,7,Jits_ISO_8,3,5,80,127,1608540472
95,16,7,Jits_ISO_8,0,1,48,20,1609215088
95,16,7,Jits_ISO_8,1,5,80,127,1609241260
95,16,7,Jits_ISO_8,2,5,56,103,1609261448
95,16,7,Jits_ISO_8,3,5,63,98,1609331188
95,16,7,Jits_ISO_8,0,1,48,19,1610023736
95,16,7,Jits_ISO_8,1,5,80,127,1610040552
95,16,7,Jits_ISO_8,2,5,63,98,1610061380
95,16,7,Jits_ISO_8,3,5,56,103,1610090832
95,16,7,Jits_ISO_8,0,1,48,19,1610782212
95,16,7,Jits_ISO_8,1,5,80,127,1610831236
95,16,7,Jits_ISO_8,2,5,63,98,1610850652
95,16,7,Jits_ISO_8,3,5,56,103,1610911176
95,16,7,Jits_ISO_8,0,1,48,15,1611624476
95,16,7,Jits_ISO_8,1,5,80,127,1611630948
95,16,7,Jits_ISO_8,2,5,56,103,1611731256
95,16,7,Jits_ISO_8,3,5,63,98,1611761156
95,16,7,Jits_ISO_8,0,1,48,31,1612416020
95,16,7,Jits_ISO_8,1,5,63,98,1612420544
95,16,7,Jits_ISO_8,2,5,80,127,1612470524
95,16,7,Jits_ISO_8,3,1,48,19,1612492240
95,16,7,Jits_ISO_8,4,5,56,103,1612493280
95,16,7,Jits_ISO_8,0,1,48,21,1613234900
95,16,7,Jits_ISO_8,1,5,80,127,1613261376
95,16,7,Jits_ISO_8,2,5,56,103,1613290904
95,16,7,Jits_ISO_8,3,5,63,98,1613294044
95,16,7,Jits_ISO_8,0,1,48,25,1614021568
95,16,7,Jits_ISO_8,1,5,63,98,1614090752
95,16,7,Jits_ISO_8,2,5,56,103,1614130404
95,16,7,Jits_ISO_8,3,5,80,127,1614151160
95,16,7,Jits_ISO_8,0,5,80,127,1614831056
95,16,7,Jits_ISO_8,1,1,48,17,1614841448
95,16,7,Jits_ISO_8,2,5,63,98,1614911024
95,16,7,Jits_ISO_8,3,5,56,103,1614951096
95,16,7,Jits_ISO_8,0,1,48,21,1615633296
95,16,7,Jits_ISO_8,1,5,63,98,1615651108
95,16,7,Jits_ISO_8,2,5,80,127,1615731188
95,16,7,Jits_ISO_8,3,5,56,103,1615750376
95,16,7,Jits_ISO_8,0,1,48,20,1616483388
95,16,7,Jits_ISO_8,1,5,56,103,1616490976
95,16,7,Jits_ISO_8,2,5,63,98,1616501472
95,16,7,Jits_ISO_8,3,5,80,127,1616541188
95,16,7,Jits_ISO_8,0,5,56,103,1617210596
95,16,7,Jits_ISO_8,1,5,80,127,1617213816
95,16,7,Jits_ISO_8,2,1,48,21,1617277840
95,16,7,Jits_ISO_8,3,5,63,98,1617351220
95,16,7,Jits_ISO_8,0,5,56,103,1618001248
95,16,7,Jits_ISO_8,1,1,48,18,1618063704
95,16,7,Jits_ISO_8,2,5,63,98,1618091376
95,16,7,Jits_ISO_8,3,5,80,127,1618161132
95,16,7,Jits_ISO_8,0,1,48,20,1618847228
95,16,7,Jits_ISO_8,1,5,63,98,1618881052
95,16,7,Jits_ISO_8,2,5,80,127,1618884268
95,16,7,Jits_ISO_8,3,5,56,103,1618941368
95,16,7,Jits_ISO_8,0,1,48,19,1619630984
95,16,7,Jits_ISO_8,1,5,80,127,1619720544
95,16,7,Jits_ISO_8,2,5,56,103,1619740988
95,16,7,Jits_ISO_8,3,5,63,98,1619751212
95,16,7,Jits_ISO_8,0,5,56,103,1620431256
95,16,7,Jits_ISO_8,1,5,63,98,1620440408
95,16,7,Jits_ISO_8,2,1,48,18,1620479268
95,16,7,Jits_ISO_8,3,5,80,127,1620511300
95,16,7,Jits_ISO_8,0,1,48,18,1621227040
95,16,7,Jits_ISO_8,1,5,80,127,1621231120
95,16,7,Jits_ISO_8,2,5,56,103,1621281124
95,16,7,Jits_ISO_8,3,5,63,98,1621331388
95,16,7,Jits_ISO_8,0,1,48,17,1621987188
95,16,7,Jits_ISO_8,1,5,56,103,1622110560
95,16,7,Jits_ISO_8,2,5,63,98,1622120980
95,16,7,Jits_ISO_8,3,5,80,127,1622160844
95,16,7,Jits_ISO_8,0,5,56,103,1622851036
95,16,7,Jits_ISO_8,1,1,48,17,1622881584
95,16,7,Jits_ISO_8,2,5,63,98,1622890820
95,16,7,Jits_ISO_8,3,5,80,127,1622941248
95,16,7,Jits_ISO_8,0,5,80,127,1623610608
95,16,7,Jits_ISO_8,1,1,48,17,1623657096
95,16,7,Jits_ISO_8,2,5,56,103,1623660880
95,16,7,Jits_ISO_8,3,5,63,98,1623681412
95,16,7,Jits_ISO_8,0,1,48,16,1624417332
95,16,7,Jits_ISO_8,1,5,80,127,1624420660
95,16,7,Jits_ISO_8,2,5,63,98,1624481276
95,16,7,Jits_ISO_8,3,5,56,103,1624561208
95,16,7,Jits_ISO_8,0,5,80,127,1625201196
95,16,7,Jits_ISO_8,1,5,56,103,1625241064
95,16,7,Jits_ISO_8,2,5,63,98,1625261448
95,16,7,Jits_ISO_8,0,1,48,21,1625987164
95,16,7,Jits_ISO_8,1,5,56,103,1626051028
95,16,7,Jits_ISO_8,2,5,80,127,1626061076
95,16,7,Jits_ISO_8,3,5,63,98,1626101076
95,16,7,Jits_ISO_8,0,1,48,25,1626761028
95,16,7,Jits_ISO_8,1,5,56,103,1626921400
95,16,7,Jits_ISO_8,2,5,63,98,1626961340
95,16,7,Jits_ISO_8,3,5,80,127,1626964480
95,16,7,Jits_ISO_8,0,5,63,98,1627610444
95,16,7,Jits_ISO_8,1,5,80,127,1627650384
95,16,7,Jits_ISO_8,2,1,48,25,1627670216
95,16,7,Jits_ISO_8,3,5,56,103,1627721280
95,16,7,Jits_ISO_8,0,5,63,98,1628401380
95,16,7,Jits_ISO_8,1,1,48,21,1628456072
95,16,7,Jits_ISO_8,2,5,56,103,1628481048
95,16,7,Jits_ISO_8,3,5,80,127,1628541216
95,16,7,Jits_ISO_8,0,5,80,127,1629211204
95,16,7,Jits_ISO_8,1,1,48,18,1629240204
95,16,7,Jits_ISO_8,2,5,63,98,1629261204
95,16,7,Jits_ISO_8,3,5,56,103,1629290956
95,16,7,Jits_ISO_8,0,1,48,22,1629991000
95,16,7,Jits_ISO_8,1,5,56,103,1630000608
95,16,7,Jits_ISO_8,2,5,63,98,1630050740
95,16,7,Jits_ISO_8,3,5,80,127,1630061008
95,16,7,Jits_ISO_8,0,1,48,23,1630801192
95,16,7,Jits_ISO_8,1,5,56,103,1630810356
95,16,7,Jits_ISO_8,2,5,63,98,1630921080
95,16,7,Jits_ISO_8,3,5,80,127,1630940492
95,16,7,Jits_ISO_8,0,5,63,98,1631611272
95,16,7,Jits_ISO_8,1,1,48,22,1631614092
95,16,7,Jits_ISO_8,2,5,80,127,1631661320
95,16,7,Jits_ISO_8,3,5,56,103,1631750464
95,16,7,Jits_ISO_8,0,5,63,98,1632400716
95,16,7,Jits_ISO_8,1,1,48,23,1632421596
95,16,7,Jits_ISO_8,2,5,80,127,1632430388
95,16,7,Jits_ISO_8,3,5,56,103,1632520580
95,16,7,Jits_ISO_8,0,1,48,17,1633164496
95,16,7,Jits_ISO_8,1,5,63,98,1633200416
95,16,7,Jits_ISO_8,2,5,56,103,1633210760
95,16,7,Jits_ISO_8,3,5,80,127,1633311088
95,16,7,Jits_ISO_8,0,1,48,20,1634014920
95,16,7,Jits_ISO_8,1,5,63,98,1634100912
95,16,7,Jits_ISO_8,2,5,80,127,1634131248
95,16,7,Jits_ISO_8,3,5,56,103,1634161148
95,16,7,Jits_ISO_8,0,1,48,21,1634835988
95,16,7,Jits_ISO_8,1,5,80,127,1634920936
95,16,7,Jits_ISO_8,2,5,63,98,1634931564
95,16,7,Jits_ISO_8,3,5,56,103,1634961020
95,16,7,Jits_ISO_8,0,5,80,127,1635621088
95,16,7,Jits_ISO_8,1,5,63,98,1635640800
95,16,7,Jits_ISO_8,2,1,48,23,1635688036
95,16,7,Jits_ISO_8,3,5,56,103,1635691068
95,16,7,Jits_ISO_8,0,1,48,18,1636382712
95,16,7,Jits_ISO_8,1,5,63,98,1636450624
95,16,7,Jits_ISO_8,2,5,80,127,1636511152
95,16,7,Jits_ISO_8,3,5,56,103,1636530640
95,16,7,Jits_ISO_8,0,5,63,98,1637210560
95,16,7,Jits_ISO_8,1,1,48,18,1637245968
95,16,7,Jits_ISO_8,2,5,56,103,1637260680
95,16,7,Jits_ISO_8,3,5,80,127,1637270876
95,16,7,Jits_ISO_8,0,1,48,19,1637977184
95,16,7,Jits_ISO_8,1,5,56,103,1638041124
95,16,7,Jits_ISO_8,2,5,80,127,1638051320
95,16,7,Jits_ISO_8,3,5,63,98,1638150508
95,16,7,Jits_ISO_8,0,5,80,127,1638800984
95,16,7,Jits_ISO_8,1,5,63,98,1638811032
95,16,7,Jits_ISO_8,2,1,48,15,1638826880
95,16,7,Jits_ISO_8,3,5,56,103,1638960356
95,16,7,Jits_ISO_8,0,5,63,98,1639611112
95,16,7,Jits_ISO_8,1,5,80,127,1639650908
95,16,7,Jits_ISO_8,2,1,48,23,1639662872
95,16,7,Jits_ISO_8,3,5,56,103,1639730420
95,16,7,Jits_ISO_8,0,5,56,103,1640401232
95,16,7,Jits_ISO_8,1,1,48,19,1640464284
95,16,7,Jits_ISO_8,2,5,80,127,1640500680
95,16,7,Jits_ISO_8,3,5,63,98,1640520988
95,16,7,Jits_ISO_8,0,1,48,24,1641206380
95,16,7,Jits_ISO_8,1,5,80,127,1641261436
95,16,7,Jits_ISO_8,2,5,56,103,1641270584
95,16,7,Jits_ISO_8,3,5,63,98,1641360924
95,16,7,Jits_ISO_8,0,1,48,27,1641986164
95,16,7,Jits_ISO_8,1,5,56,103,1642061144
95,16,7,Jits_ISO_8,2,5,63,98,1642080708
95,16,7,Jits_ISO_8,3,5,80,127,1642160636
95,16,7,Jits_ISO_8,0,5,63,98,1642810736
95,16,7,Jits_ISO_8,1,1,48,21,1642817596
95,16,7,Jits_ISO_8,2,5,56,103,1642900940
95,16,7,Jits_ISO_8,3,5,80,127,1642903932
95,16,7,Jits_ISO_8,0,1,48,22,1643597576
95,16,7,Jits_ISO_8,1,5,56,103,1643641144
95,16,7,Jits_ISO_8,2,5,80,127,1643700548
95,16,7,Jits_ISO_8,3,5,63,98,1643710820
95,16,7,Jits_ISO_8,0,1,48,27,1644432960
95,16,7,Jits_ISO_8,1,5,80,127,1644491052
95,16,7,Jits_ISO_8,2,5,56,103,1644501320
95,16,7,Jits_ISO_8,3,5,63,98,1644504684
95,16,7,Jits_ISO_8,0,1,48,27,1645232736
95,16,7,Jits_ISO_8,1,5,56,103,1645250972
95,16,7,Jits_ISO_8,2,5,80,127,1645261316
95,16,7,Jits_ISO_8,3,5,63,98,1645280656
95,16,7,Jits_ISO_8,0,5,63,98,1646020864
95,16,7,Jits_ISO_8,1,1,48,16,1646026004
95,16,7,Jits_ISO_8,2,5,80,127,1646081252
95,16,7,Jits_ISO_8,3,5,56,103,1646130492
95,16,7,Jits_ISO_8,0,1,48,21,1646826224
95,16,7,Jits_ISO_8,1,5,63,98,1646900684
95,16,7,Jits_ISO_8,2,5,56,103,1646910956
95,16,7,Jits_ISO_8,3,5,80,127,1646960996
95,16,7,Jits_ISO_8,0,5,63,98,1647600956
95,16,7,Jits_ISO_8,1,5,80,127,1647620444
95,16,7,Jits_ISO_8,2,5,56,103,1647630788
95,16,7,Jits_ISO_8,3,1,48,21,1647645612
95,16,7,Jits_ISO_8,0,1,48,18,1648394096
95,16,7,Jits_ISO_8,1,5,63,98,1648400868
95,16,7,Jits_ISO_8,2,5,80,127,1648404084
95,16,7,Jits_ISO_8,3,5,56,103,1648440908
95,16,7,Jits_ISO_8,0,1,48,20,1649145160
95,16,7,Jits_ISO_8,1,5,63,98,1649271072
95,16,7,Jits_ISO_8,2,5,80,127,1649300972
95,16,7,Jits_ISO_8,3,5,56,103,1649311168
95,16,7,Jits_ISO_8,0,1,48,21,1649980944
95,16,7,Jits_ISO_8,1,5,56,103,1650020824
95,16,7,Jits_ISO_8,2,5,80,127,1650050352
95,16,7,Jits_ISO_8,3,5,63,98,1650081136
95,16,7,Jits_ISO_8,0,1,48,17,1650791436
95,16,7,Jits_ISO_8,1,5,63,98,1650920840
95,16,7,Jits_ISO_8,2,5,56,103,1650960780
95,16,7,Jits_ISO_8,3,5,80,127,1650963844
95,16,7,Jits_ISO_8,0,1,48,20,1651602460
95,16,7,Jits_ISO_8,1,5,80,127,1651621288
95,16,7,Jits_ISO_8,2,5,56,103,1651700996
95,16,7,Jits_ISO_8,3,5,63,98,1651751224
95,16,7,Jits_ISO_8,0,1,48,19,1652391004
95,16,7,Jits_ISO_8,1,5,80,127,1652400468
95,16,7,Jits_ISO_8,2,5,56,103,1652421076
95,16,7,Jits_ISO_8,3,5,63,98,1652511144
95,16,7,Jits_ISO_8,0,1,48,20,1653175564
95,16,7,Jits_ISO_8,1,5,80,127,1653241300
95,16,7,Jits_ISO_8,2,5,63,98,1653281176
95,16,7,Jits_ISO_8,3,5,56,103,1653321264
95,16,7,Jits_ISO_8,0,1,48,21,1653968816
95,16,7,Jits_ISO_8,1,5,63,98,1654011192
95,16,7,Jits_ISO_8,2,5,80,127,1654070920
95,16,7,Jits_ISO_8,3,5,56,103,1654101492
95,16,7,Jits_ISO_8,0,1,48,20,1654810828
95,16,7,Jits_ISO_8,1,5,56,103,1654812240
95,16,7,Jits_ISO_8,2,5,80,127,1654840796
95,16,7,Jits_ISO_8,3,5,63,98,1654930988
95,16,7,Jits_ISO_8,0,5,56,103,1655621096
95,16,7,Jits_ISO_8,1,1,48,22,1655630812
95,16,7,Jits_ISO_8,2,5,80,127,1655730768
95,16,7,Jits_ISO_8,3,5,63,98,1655761116
95,16,7,Jits_ISO_8,0,1,48,22,1656445808
95,16,7,Jits_ISO_8,1,5,56,103,1656470940
95,16,7,Jits_ISO_8,2,5,63,98,1656531260
95,16,7,Jits_ISO_8,3,5,80,127,1656560920
95,16,7,Jits_ISO_8,0,5,56,103,1657240916
95,16,7,Jits_ISO_8,1,1,48,27,1657244036
95,16,7,Jits_ISO_8,2,5,63,98,1657310816
95,16,7,Jits_ISO_8,3,5,80,127,1657331052
95,16,7,Jits_ISO_8,0,5,80,127,1658010972
95,16,7,Jits_ISO_8,1,5,63,98,1658030536
95,16,7,Jits_ISO_8,2,1,48,25,1658064816
95,16,7,Jits_ISO_8,3,5,56,103,1658080952
95,16,7,Jits_ISO_8,0,9999,9999,9999,1563278424
95,16,7,Jits_ISO_8,1,9999,9999,9999,1564078200
95,16,7,Jits_ISO_8,2,9999,9999,9999,1564878944
95,16,7,Jits_ISO_8,3,9999,9999,9999,1565678668
95,16,7,Jits_ISO_8,4,9999,9999,9999,1566478388
95,16,7,Jits_ISO_8,5,9999,9999,9999,1567278200
95,16,7,Jits_ISO_8,6,9999,9999,9999,1568078944
95,16,7,Jits_ISO_8,7,9999,9999,9999,1568878692
95,16,7,Jits_ISO_8,8,9999,9999,9999,1569678404
95,16,7,Jits_ISO_8,9,9999,9999,9999,1570478180
95,16,7,Jits_ISO_8,10,9999,9999,9999,1571278952
95,16,7,Jits_ISO_8,11,9999,9999,9999,1572078668
95,16,7,Jits_ISO_8,12,9999,9999,9999,1572878456
95,16,7,Jits_ISO_8,13,9999,9999,9999,1573678204
95,16,7,Jits_ISO_8,14,9999,9999,9999,1574478948
95,16,7,Jits_ISO_8,15,9999,9999,9999,1575278644
95,16,7,Jits_ISO_8,16,9999,9999,9999,1576078412
95,16,7,Jits_ISO_8,17,9999,9999,9999,1576878140
95,16,7,Jits_ISO_8,18,9999,9999,9999,1577678904
95,16,7,Jits_ISO_8,19,9999,9999,9999,1578478704
95,16,7,Jits_ISO_8,20,9999,9999,9999,1579278412
95,16,7,Jits_ISO_8,21,9999,9999,9999,1580078148
95,16,7,Jits_ISO_8,22,9999,9999,9999,1580878908
95,16,7,Jits_ISO_8,23,9999,9999,9999,1581678692
95,16,7,Jits_ISO_8,24,9999,9999,9999,1582478396
95,16,7,Jits_ISO_8,25,9999,9999,9999,1583278180
95,16,7,Jits_ISO_8,26,9999,9999,9999,1584078936
95,16,7,Jits_ISO_8,27,9999,9999,9999,1584878648
95,16,7,Jits_ISO_8,28,9999,9999,9999,1585678444
95,16,7,Jits_ISO_8,29,9999,9999,9999,1586478188
95,16,7,Jits_ISO_8,30,9999,9999,9999,1587278916
95,16,7,Jits_ISO_8,31,9999,9999,9999,1588078648
95,16,7,Jits_ISO_8,32,9999,9999,9999,1588878428
95,16,7,Jits_ISO_8,33,9999,9999,9999,1589678144
95,16,7,Jits_ISO_8,34,9999,9999,9999,1590478900
95,16,7,Jits_ISO_8,35,9999,9999,9999,1591278692
95,16,7,Jits_ISO_8,36,9999,9999,9999,1592078412
95,16,7,Jits_ISO_8,37,9999,9999,9999,1592878148
95,16,7,Jits_ISO_8,38,9999,9999,9999,1593678916
95,16,7,Jits_ISO_8,39,9999,9999,9999,1594478716
95,16,7,Jits_ISO_8,40,9999,9999,9999,1595278428
95,16,7,Jits_ISO_8,41,9999,9999,9999,1596078136
95,16,7,Jits_ISO_8,42,9999,9999,9999,1596878960
95,16,7,Jits_ISO_8,43,9999,9999,9999,1597678676
95,16,7,Jits_ISO_8,44,9999,9999,9999,1598478444
95,16,7,Jits_ISO_8,45,9999,9999,9999,1599278180
95,16,7,Jits_ISO_8,46,9999,9999,9999,1600078952
95,16,7,Jits_ISO_8,47,9999,9999,9999,1600878668
95,16,7,Jits_ISO_8,48,9999,9999,9999,1601678392
95,16,7,Jits_ISO_8,49,9999,9999,9999,1602478168
95,16,7,Jits_ISO_8,50,9999,9999,9999,1603278920
95,16,7,Jits_ISO_8,51,9999,9999,9999,1604078704
95,16,7,Jits_ISO_8,52,9999,9999,9999,1604878416
95,16,7,Jits_ISO_8,53,9999,9999,9999,1605678156
95,16,7,Jits_ISO_8,54,9999,9999,9999,1606478908
95,16,7,Jits_ISO_8,55,9999,9999,9999,1607278708
95,16,7,Jits_ISO_8,56,9999,9999,9999,1608078460
95,16,7,Jits_ISO_8,57,9999,9999,9999,1608878172
95,16,7,Jits_ISO_8,58,9999,9999,9999,1609678928
95,16,7,Jits_ISO_8,59,9999,9999,9999,1610478708
95,16,7,Jits_ISO_8,60,9999,9999,9999,1611278392
95,16,7,Jits_ISO_8,61,9999,9999,9999,1612078132
95,16,7,Jits_ISO_8,62,9999,9999,9999,1612878936
95,16,7,Jits_ISO_8,63,9999,9999,9999,1613678656
95,16,7,Jits_ISO_8,64,9999,9999,9999,1614478448
95,16,7,Jits_ISO_8,65,9999,9999,9999,1615278160
95,16,7,Jits_ISO_8,66,9999,9999,9999,1616078936
95,16,7,Jits_ISO_8,67,9999,9999,9999,1616878648
95,16,7,Jits_ISO_8,68,9999,9999,9999,1617678416
95,16,7,Jits_ISO_8,69,9999,9999,9999,1618478168
95,16,7,Jits_ISO_8,70,9999,9999,9999,1619278928
95,16,7,Jits_ISO_8,71,9999,9999,9999,1620078648
95,16,7,Jits_ISO_8,72,9999,9999,9999,1620878428
95,16,7,Jits_ISO_8,73,9999,9999,9999,1621678152
95,16,7,Jits_ISO_8,74,9999,9999,9999,1622478920
95,16,7,Jits_ISO_8,75,9999,9999,9999,1623278708
95,16,7,Jits_ISO_8,76,9999,9999,9999,1624078428
95,16,7,Jits_ISO_8,77,9999,9999,9999,1624878184
95,16,7,Jits_ISO_8,78,9999,9999,9999,1625678956
95,16,7,Jits_ISO_8,79,9999,9999,9999,1626478652
95,16,7,Jits_ISO_8,80,9999,9999,9999,1627278436
95,16,7,Jits_ISO_8,81,9999,9999,9999,1628078144
95,16,7,Jits_ISO_8,82,9999,9999,9999,1628878900
95,16,7,Jits_ISO_8,83,9999,9999,9999,1629678684
95,16,7,Jits_ISO_8,84,9999,9999,9999,1630478404
95,16,7,Jits_ISO_8,85,9999,9999,9999,1631278140
95,16,7,Jits_ISO_8,86,9999,9999,9999,1632078972
95,16,7,Jits_ISO_8,87,9999,9999,9999,1632878676
95,16,7,Jits_ISO_8,88,9999,9999,9999,1633678456
95,16,7,Jits_ISO_8,89,9999,9999,9999,1634478172
95,16,7,Jits_ISO_8,90,9999,9999,9999,1635278940
95,16,7,Jits_ISO_8,91,9999,9999,9999,1636078648
95,16,7,Jits_ISO_8,92,9999,9999,9999,1636878452
95,16,7,Jits_ISO_8,93,9999,9999,9999,1637678184
95,16,7,Jits_ISO_8,94,9999,9999,9999,1638478940
95,16,7,Jits_ISO_8,95,9999,9999,9999,1639278648
95,16,7,Jits_ISO_8,96,9999,9999,9999,1640078444
95,16,7,Jits_ISO_8,97,9999,9999,9999,1640878152
95,16,7,Jits_ISO_8,98,9999,9999,9999,1641678920
95,16,7,Jits_ISO_8,99,9999,9999,9999,1642478708
95,16,7,Jits_ISO_8,100,9999,9999,9999,1643278404
95,16,7,Jits_ISO_8,101,9999,9999,9999,1644078136
95,16,7,Jits_ISO_8,102,9999,9999,9999,1644878960
95,16,7,Jits_ISO_8,103,9999,9999,9999,1645678668
95,16,7,Jits_ISO_8,104,9999,9999,9999,1646478452
95,16,7,Jits_ISO_8,105,9999,9999,9999,1647278168
95,16,7,Jits_ISO_8,106,9999,9999,9999,1648078912
95,16,7,Jits_ISO_8,107,9999,9999,9999,1648878676
95,16,7,Jits_ISO_8,108,9999,9999,9999,1649678388
95,16,7,Jits_ISO_8,109,9999,9999,9999,1650478192
95,16,7,Jits_ISO_8,110,9999,9999,9999,1651278948
95,16,7,Jits_ISO_8,111,9999,9999,9999,1652078660
95,16,7,Jits_ISO_8,112,9999,9999,9999,1652878436
95,16,7,Jits_ISO_8,113,9999,9999,9999,1653678144
95,16,7,Jits_ISO_8,114,9999,9999,9999,1654478972
95,16,7,Jits_ISO_8,115,9999,9999,9999,1655278652
95,16,7,Jits_ISO_8,116,9999,9999,9999,1656078440
95,16,7,Jits_ISO_8,117,9999,9999,9999,1656878192
95,16,7,Jits_ISO_8,118,9999,9999,9999,1657678952
95,16,7,Jits_ISO_8,119,9999,9999,9999,1658478672
95,17,16,Jits_ISO_5,0,5,56,103,1666821608
95,17,16,Jits_ISO_5,1,5,63,98,1666824628
95,17,16,Jits_ISO_5,2,5,80,127,1666827828
95,17,16,Jits_ISO_5,0,5,56,103,1667322152
95,17,16,Jits_ISO_5,1,5,63,98,1667325248
95,17,16,Jits_ISO_5,2,5,80,127,1667328592
95,17,16,Jits_ISO_5,0,1,48,21,1667778316
95,17,16,Jits_ISO_5,1,5,56,103,1667821880
95,17,16,Jits_ISO_5,2,5,80,127,1667832224
95,17,16,Jits_ISO_5,3,5,63,98,1667851712
95,17,16,Jits_ISO_5,0,5,63,98,1668271576
95,17,16,Jits_ISO_5,1,1,48,32,1668297912
95,17,16,Jits_ISO_5,2,5,80,127,1668302140
95,17,16,Jits_ISO_5,3,5,56,103,1668312708
95,17,16,Jits_ISO_5,0,1,48,30,1668763552
95,17,16,Jits_ISO_5,1,5,80,127,1668831536
95,17,16,Jits_ISO_5,2,5,56,103,1668841732
95,17,16,Jits_ISO_5,3,1,48,16,1668844100
95,17,16,Jits_ISO_5,4,5,63,98,1668871756
95,17,16,Jits_ISO_5,0,1,48,24,1669313352
95,17,16,Jits_ISO_5,1,5,63,98,1669322220
95,17,16,Jits_ISO_5,2,5,56,103,1669351824
95,17,16,Jits_ISO_5,3,5,80,127,1669362016
95,17,16,Jits_ISO_5,0,5,56,103,1669771544
95,17,16,Jits_ISO_5,1,1,48,27,1669807472
95,17,16,Jits_ISO_5,2,5,63,98,1669821740
95,17,16,Jits_ISO_5,3,5,80,127,1669842196
95,17,16,Jits_ISO_5,0,5,80,127,1670272636
95,17,16,Jits_ISO_5,1,1,48,27,1670273900
95,17,16,Jits_ISO_5,2,5,63,98,1670321708
95,17,16,Jits_ISO_5,3,5,56,103,1670361720
95,17,16,Jits_ISO_5,0,5,56,103,1670772160
95,17,16,Jits_ISO_5,1,1,48,24,1670797676
95,17,16,Jits_ISO_5,2,5,63,98,1670801828
95,17,16,Jits_ISO_5,3,5,80,127,1670872480
95,17,16,Jits_ISO_5,0,5,56,103,1671271684
95,17,16,Jits_ISO_5,1,1,48,27,1671300656
95,17,16,Jits_ISO_5,2,5,80,127,1671332292
95,17,16,Jits_ISO_5,3,5,63,98,1671361888
95,17,16,Jits_ISO_5,0,5,56,103,1671781768
95,17,16,Jits_ISO_5,1,5,63,98,1671792112
95,17,16,Jits_ISO_5,2,1,48,20,1671796648
95,17,16,Jits_ISO_5,3,5,80,127,1671832044
95,17,16,Jits_ISO_5,0,5,63,98,1672272148
95,17,16,Jits_ISO_5,1,1,48,20,1672279992
95,17,16,Jits_ISO_5,2,5,80,127,1672352084
95,17,16,Jits_ISO_5,3,5,56,103,1672362428
95,17,16,Jits_ISO_5,0,1,48,22,1672792976
95,17,16,Jits_ISO_5,1,5,63,98,1672822000
95,17,16,Jits_ISO_5,2,5,56,103,1672862008
95,17,16,Jits_ISO_5,3,5,80,127,1672865148
95,17,16,Jits_ISO_5,0,5,56,103,1673281800
95,17,16,Jits_ISO_5,1,5,63,98,1673291996
95,17,16,Jits_ISO_5,2,1,48,20,1673301412
95,17,16,Jits_ISO_5,3,5,80,127,1673332148
95,17,16,Jits_ISO_5,0,1,48,22,1673766816
95,17,16,Jits_ISO_5,1,5,56,103,1673772616
95,17,16,Jits_ISO_5,2,5,63,98,1673775684
95,17,16,Jits_ISO_5,3,5,80,127,1673791804
95,17,16,Jits_ISO_5,0,1,48,25,1674227552
95,17,16,Jits_ISO_5,1,5,80,127,1674291668
95,17,16,Jits_ISO_5,2,5,56,103,1674301716
95,17,16,Jits_ISO_5,3,5,63,98,1674371672
95,17,16,Jits_ISO_5,0,5,63,98,1674782188
95,17,16,Jits_ISO_5,1,1,48,18,1674794896
95,17,16,Jits_ISO_5,2,5,56,103,1674801668
95,17,16,Jits_ISO_5,3,5,80,127,1674882504
95,17,16,Jits_ISO_5,0,5,56,103,1675291964
95,17,16,Jits_ISO_5,1,1,48,21,1675299640
95,17,16,Jits_ISO_5,2,5,80,127,1675331892
95,17,16,Jits_ISO_5,3,5,63,98,1675342312
95,17,16,Jits_ISO_5,0,1,48,26,1675776808
95,17,16,Jits_ISO_5,1,5,80,127,1675781564
95,17,16,Jits_ISO_5,2,5,63,98,1675812088
95,17,16,Jits_ISO_5,3,5,56,103,1675852096
95,17,16,Jits_ISO_5,0,1,48,26,1676266652
95,17,16,Jits_ISO_5,1,5,56,103,1676301668
95,17,16,Jits_ISO_5,2,5,63,98,1676332640
95,17,16,Jits_ISO_5,3,5,80,127,1676381704
95,17,16,Jits_ISO_5,0,1,48,25,1676768556
95,17,16,Jits_ISO_5,1,5,80,127,1676802380
95,17,16,Jits_ISO_5,2,5,56,103,1676842564
95,17,16,Jits_ISO_5,3,5,63,98,1676851564
95,17,16,Jits_ISO_5,0,1,48,27,1677278248
95,17,16,Jits_ISO_5,1,5,80,127,1677281580
95,17,16,Jits_ISO_5,2,5,63,98,1677321740
95,17,16,Jits_ISO_5,3,5,56,103,1677381916
95,17,16,Jits_ISO_5,0,5,56,103,1677782664
95,17,16,Jits_ISO_5,1,5,80,127,1677791592
95,17,16,Jits_ISO_5,2,1,48,18,1677838604
95,17,16,Jits_ISO_5,3,5,63,98,1677871696
95,17,16,Jits_ISO_5,0,1,48,23,1678281184
95,17,16,Jits_ISO_5,1,5,80,127,1678292516
95,17,16,Jits_ISO_5,2,5,63,98,1678351636
95,17,16,Jits_ISO_5,3,5,56,103,1678381616
95,17,16,Jits_ISO_5,0,1,48,24,1678772896
95,17,16,Jits_ISO_5,1,5,56,103,1678792024
95,17,16,Jits_ISO_5,2,5,80,127,1678851516
95,17,16,Jits_ISO_5,3,5,63,98,1678892660
95,17,16,Jits_ISO_5,0,1,48,28,1679310096
95,17,16,Jits_ISO_5,1,5,56,103,1679341808
95,17,16,Jits_ISO_5,2,5,63,98,1679352300
95,17,16,Jits_ISO_5,3,5,80,127,1679355736
95,17,16,Jits_ISO_5,0,5,80,127,1679791492
95,17,16,Jits_ISO_5,1,1,48,30,1679814164
95,17,16,Jits_ISO_5,2,5,63,98,1679881764
95,17,16,Jits_ISO_5,3,5,56,103,1679891812
95,17,16,Jits_ISO_5,0,5,56,103,1680292268
95,17,16,Jits_ISO_5,1,5,63,98,1680295592
95,17,16,Jits_ISO_5,2,5,80,127,1680298636
95,17,16,Jits_ISO_5,3,1,48,25,1680323796
95,17,16,Jits_ISO_5,0,1,48,14,1680802088
95,17,16,Jits_ISO_5,1,5,80,127,1680812376
95,17,16,Jits_ISO_5,2,5,63,98,1680861528
95,17,16,Jits_ISO_5,3,5,56,103,1680893428
95,17,16,Jits_ISO_5,0,5,56,103,1681291512
95,17,16,Jits_ISO_5,1,5,80,127,1681302004
95,17,16,Jits_ISO_5,2,1,48,20,1681306768
95,17,16,Jits_ISO_5,3,5,63,98,1681371676
95,17,16,Jits_ISO_5,0,5,56,103,1681801444
95,17,16,Jits_ISO_5,1,5,63,98,1681822052
95,17,16,Jits_ISO_5,2,1,48,21,1681824064
95,17,16,Jits_ISO_5,3,5,80,127,1681881680
95,17,16,Jits_ISO_5,0,5,80,127,1682292268
95,17,16,Jits_ISO_5,1,1,48,30,1682296508
95,17,16,Jits_ISO_5,2,5,63,98,1682361644
95,17,16,Jits_ISO_5,3,5,56,103,1682382324
95,17,16,Jits_ISO_5,0,1,48,38,1682811488
95,17,16,Jits_ISO_5,1,5,80,127,1682813060
95,17,16,Jits_ISO_5,2,5,56,103,1682821608
95,17,16,Jits_ISO_5,3,5,63,98,1682831656
95,17,16,Jits_ISO_5,0,5,80,127,1683301784
95,17,16,Jits_ISO_5,1,1,48,31,1683309784
95,17,16,Jits_ISO_5,2,5,56,103,1683322384
95,17,16,Jits_ISO_5,3,5,63,98,1683391840
95,17,16,Jits_ISO_5,0,1,48,27,1683810816
95,17,16,Jits_ISO_5,1,5,56,103,1683812308
95,17,16,Jits_ISO_5,2,5,80,127,1683842660
95,17,16,Jits_ISO_5,3,5,63,98,1683861920
95,17,16,Jits_ISO_5,0,5,63,98,1684302160
95,17,16,Jits_ISO_5,1,5,56,103,1684361504
95,17,16,Jits_ISO_5,2,1,48,19,1684381932
95,17,16,Jits_ISO_5,3,5,80,127,1684392440
95,17,16,Jits_ISO_5,0,5,63,98,1684791628
95,17,16,Jits_ISO_5,1,5,80,127,1684794992
95,17,16,Jits_ISO_5,2,1,48,29,1684827328
95,17,16,Jits_ISO_5,3,5,56,103,1684881824
95,17,16,Jits_ISO_5,0,1,48,27,1685303976
95,17,16,Jits_ISO_5,1,5,56,103,1685311944
95,17,16,Jits_ISO_5,2,5,63,98,1685341696
95,17,16,Jits_ISO_5,3,5,80,127,1685381632
95,17,16,Jits_ISO_5,0,1,48,27,1685786372
95,17,16,Jits_ISO_5,1,5,63,98,1685821696
95,17,16,Jits_ISO_5,2,5,56,103,1685861632
95,17,16,Jits_ISO_5,3,5,80,127,1685882312
95,17,16,Jits_ISO_5,0,1,48,32,1686264132
95,17,16,Jits_ISO_5,1,5,63,98,1686331764
95,17,16,Jits_ISO_5,2,1,48,19,1686336136
95,17,16,Jits_ISO_5,3,5,56,103,1686371680
95,17,16,Jits_ISO_5,4,5,80,127,1686382024
95,17,16,Jits_ISO_5,0,1,48,27,1686786876
95,17,16,Jits_ISO_5,1,5,80,127,1686811956
95,17,16,Jits_ISO_5,2,5,63,98,1686881712
95,17,16,Jits_ISO_5,3,5,56,103,1686902380
95,17,16,Jits_ISO_5,0,1,48,34,1687262496
95,17,16,Jits_ISO_5,1,5,56,103,1687301480
95,17,16,Jits_ISO_5,2,5,80,127,1687321864
95,17,16,Jits_ISO_5,3,1,48,17,1687347760
95,17,16,Jits_ISO_5,4,5,63,98,1687361952
95,17,16,Jits_ISO_5,0,1,48,27,1687787404
95,17,16,Jits_ISO_5,1,5,63,98,1687811492
95,17,16,Jits_ISO_5,2,5,80,127,1687831948
95,17,16,Jits_ISO_5,3,5,56,103,1687871760
95,17,16,Jits_ISO_5,0,1,48,19,1688310152
95,17,16,Jits_ISO_5,1,5,63,98,1688312116
95,17,16,Jits_ISO_5,2,5,56,103,1688331604
95,17,16,Jits_ISO_5,3,5,80,127,1688341724
95,17,16,Jits_ISO_5,0,1,48,30,1688787232
95,17,16,Jits_ISO_5,1,5,80,127,1688811988
95,17,16,Jits_ISO_5,2,5,56,103,1688832372
95,17,16,Jits_ISO_5,3,5,63,98,1688861996
95,17,16,Jits_ISO_5,4,1,48,16,1688868992
95,17,16,Jits_ISO_5,0,1,48,28,1689273796
95,17,16,Jits_ISO_5,1,5,56,103,1689382388
95,17,16,Jits_ISO_5,2,5,80,127,1689385528
95,17,16,Jits_ISO_5,3,5,63,98,1689401652
95,17,16,Jits_ISO_5,0,1,48,23,1689809472
95,17,16,Jits_ISO_5,1,5,63,98,1689812508
95,17,16,Jits_ISO_5,2,5,56,103,1689842180
95,17,16,Jits_ISO_5,3,5,80,127,1689901548
95,17,16,Jits_ISO_5,0,1,48,28,1690290936
95,17,16,Jits_ISO_5,1,5,63,98,1690391864
95,17,16,Jits_ISO_5,2,5,56,103,1690402308
95,17,16,Jits_ISO_5,3,5,80,127,1690412800
95,17,16,Jits_ISO_5,0,1,48,25,1690814192
95,17,16,Jits_ISO_5,1,5,56,103,1690841568
95,17,16,Jits_ISO_5,2,5,80,127,1690872288
95,17,16,Jits_ISO_5,3,5,63,98,1690882336
95,17,16,Jits_ISO_5,0,1,48,29,1691319388
95,17,16,Jits_ISO_5,1,5,63,98,1691381984
95,17,16,Jits_ISO_5,2,5,56,103,1691392476
95,17,16,Jits_ISO_5,3,5,80,127,1691411888
95,17,16,Jits_ISO_5,0,5,56,103,1691812348
95,17,16,Jits_ISO_5,1,1,48,25,1691817784
95,17,16,Jits_ISO_5,2,5,63,98,1691871536
95,17,16,Jits_ISO_5,3,5,80,127,1691874896
95,17,16,Jits_ISO_5,0,1,48,21,1692297660
95,17,16,Jits_ISO_5,1,5,80,127,1692332456
95,17,16,Jits_ISO_5,2,5,56,103,1692341608
95,17,16,Jits_ISO_5,3,5,63,98,1692412540
95,17,16,Jits_ISO_5,0,1,48,28,1692790212
95,17,16,Jits_ISO_5,1,5,80,127,1692821928
95,17,16,Jits_ISO_5,2,5,56,103,1692891516
95,17,16,Jits_ISO_5,3,5,63,98,1692901788
95,17,16,Jits_ISO_5,0,1,48,21,1693304176
95,17,16,Jits_ISO_5,1,5,63,98,1693361444
95,17,16,Jits_ISO_5,2,5,56,103,1693371640
95,17,16,Jits_ISO_5,3,5,80,127,1693392396
95,17,16,Jits_ISO_5,0,5,80,127,1693812036
95,17,16,Jits_ISO_5,1,1,48,26,1693835680
95,17,16,Jits_ISO_5,2,5,63,98,1693871448
95,17,16,Jits_ISO_5,3,5,56,103,1693912504
95,17,16,Jits_ISO_5,0,1,48,24,1694296460
95,17,16,Jits_ISO_5,1,5,56,103,1694351708
95,17,16,Jits_ISO_5,2,5,63,98,1694362348
95,17,16,Jits_ISO_5,3,5,80,127,1694401976
95,17,16,Jits_ISO_5,0,1,48,28,1694790584
95,17,16,Jits_ISO_5,1,5,56,103,1694811512
95,17,16,Jits_ISO_5,2,5,80,127,1694842304
95,17,16,Jits_ISO_5,3,5,63,98,1694892416
95,17,16,Jits_ISO_5,0,1,48,15,1695346640
95,17,16,Jits_ISO_5,1,5,56,103,1695352444
95,17,16,Jits_ISO_5,2,5,63,98,1695392228
95,17,16,Jits_ISO_5,3,5,80,127,1695395520
95,17,16,Jits_ISO_5,0,1,48,26,1695775800
95,17,16,Jits_ISO_5,1,5,56,103,1695851872
95,17,16,Jits_ISO_5,2,5,63,98,1695862364
95,17,16,Jits_ISO_5,3,1,48,13,1695865336
95,17,16,Jits_ISO_5,4,5,80,127,1695881532
95,17,16,Jits_ISO_5,0,1,48,21,1696303420
95,17,16,Jits_ISO_5,1,5,56,103,1696311612
95,17,16,Jits_ISO_5,2,5,80,127,1696314676
95,17,16,Jits_ISO_5,3,5,63,98,1696351472
95,17,16,Jits_ISO_5,0,1,48,29,1696819924
95,17,16,Jits_ISO_5,1,5,63,98,1696852308
95,17,16,Jits_ISO_5,2,5,56,103,1696881984
95,17,16,Jits_ISO_5,3,5,80,127,1696901548
95,17,16,Jits_ISO_5,0,1,48,30,1697301052
95,17,16,Jits_ISO_5,1,5,80,127,1697331516
95,17,16,Jits_ISO_5,2,5,56,103,1697341712
95,17,16,Jits_ISO_5,3,5,63,98,1697352208
95,17,16,Jits_ISO_5,0,1,48,19,1697826192
95,17,16,Jits_ISO_5,1,5,56,103,1697832440
95,17,16,Jits_ISO_5,2,5,80,127,1697872524
95,17,16,Jits_ISO_5,3,5,63,98,1697902200
95,17,16,Jits_ISO_5,0,1,48,27,1698310180
95,17,16,Jits_ISO_5,1,5,63,98,1698342288
95,17,16,Jits_ISO_5,2,5,80,127,1698351512
95,17,16,Jits_ISO_5,3,5,56,103,1698361708
95,17,16,Jits_ISO_5,0,1,48,25,1698815884
95,17,16,Jits_ISO_5,1,5,56,103,1698821464
95,17,16,Jits_ISO_5,2,5,63,98,1698892364
95,17,16,Jits_ISO_5,3,5,80,127,1698902340
95,17,16,Jits_ISO_5,0,1,48,28,1699317344
95,17,16,Jits_ISO_5,1,5,80,127,1699322248
95,17,16,Jits_ISO_5,2,5,56,103,1699331396
95,17,16,Jits_ISO_5,3,5,63,98,1699381544
95,17,16,Jits_ISO_5,0,1,48,26,1699804940
95,17,16,Jits_ISO_5,1,5,80,127,1699832164
95,17,16,Jits_ISO_5,2,5,56,103,1699891532
95,17,16,Jits_ISO_5,3,5,63,98,1699922536
95,17,16,Jits_ISO_5,0,1,48,24,1700289300
95,17,16,Jits_ISO_5,1,5,56,103,1700331964
95,17,16,Jits_ISO_5,2,5,80,127,1700335032
95,17,16,Jits_ISO_5,3,5,63,98,1700371752
95,17,16,Jits_ISO_5,0,1,48,26,1700796292
95,17,16,Jits_ISO_5,1,5,56,103,1700862404
95,17,16,Jits_ISO_5,2,5,63,98,1700892012
95,17,16,Jits_ISO_5,3,5,80,127,1700902356
95,17,16,Jits_ISO_5,0,1,48,28,1701320840
95,17,16,Jits_ISO_5,1,5,63,98,1701381548
95,17,16,Jits_ISO_5,2,5,80,127,1701391592
95,17,16,Jits_ISO_5,3,5,56,103,1701402160
95,17,16,Jits_ISO_5,0,1,48,29,1701829988
95,17,16,Jits_ISO_5,1,5,80,127,1701831956
95,17,16,Jits_ISO_5,2,5,56,103,1701882380
95,17,16,Jits_ISO_5,3,5,63,98,1701885296
95,17,16,Jits_ISO_5,0,1,48,27,1702313076
95,17,16,Jits_ISO_5,1,5,56,103,1702361348
95,17,16,Jits_ISO_5,2,5,80,127,1702382028
95,17,16,Jits_ISO_5,3,5,63,98,1702392300
95,17,16,Jits_ISO_5,0,1,48,20,1702840776
95,17,16,Jits_ISO_5,1,5,63,98,1702842424
95,17,16,Jits_ISO_5,2,5,56,103,1702872320
95,17,16,Jits_ISO_5,3,5,80,127,1702891880
95,17,16,Jits_ISO_5,0,5,56,103,1703351600
95,17,16,Jits_ISO_5,1,5,80,127,1703362092
95,17,16,Jits_ISO_5,2,1,48,18,1703375696
95,17,16,Jits_ISO_5,3,5,63,98,1703431392
95,17,16,Jits_ISO_5,0,5,63,98,1703842280
95,17,16,Jits_ISO_5,1,1,48,32,1703861136
95,17,16,Jits_ISO_5,2,5,80,127,1703882360
95,17,16,Jits_ISO_5,3,5,56,103,1703922152
95,17,16,Jits_ISO_5,0,1,48,23,1704316724
95,17,16,Jits_ISO_5,1,5,56,103,1704352196
95,17,16,Jits_ISO_5,2,5,63,98,1704362320
95,17,16,Jits_ISO_5,3,5,80,127,1704381952
95,17,16,Jits_ISO_5,0,1,48,26,1704814744
95,17,16,Jits_ISO_5,1,5,63,98,1704891640
95,17,16,Jits_ISO_5,2,5,80,127,1704912232
95,17,16,Jits_ISO_5,3,5,56,103,1704931568
95,17,16,Jits_ISO_5,0,5,56,103,1705332116
95,17,16,Jits_ISO_5,1,1,48,29,1705369164
95,17,16,Jits_ISO_5,2,5,80,127,1705411832
95,17,16,Jits_ISO_5,3,5,63,98,1705422176
95,17,16,Jits_ISO_5,0,1,48,28,1705820224
95,17,16,Jits_ISO_5,1,5,80,127,1705871788
95,17,16,Jits_ISO_5,2,5,63,98,1705882356
95,17,16,Jits_ISO_5,3,1,48,16,1705894004
95,17,16,Jits_ISO_5,4,5,56,103,1705911636
95,17,16,Jits_ISO_5,0,5,63,98,1706331536
95,17,16,Jits_ISO_5,1,1,48,18,1706355476
95,17,16,Jits_ISO_5,2,5,80,127,1706371464
95,17,16,Jits_ISO_5,3,5,56,103,1706431780
95,17,16,Jits_ISO_5,0,1,48,23,1706787248
95,17,16,Jits_ISO_5,1,5,63,98,1706841524
95,17,16,Jits_ISO_5,2,5,56,103,1706891484
95,17,16,Jits_ISO_5,3,5,80,127,1706922356
95,17,16,Jits_ISO_5,0,5,80,127,1707352424
95,17,16,Jits_ISO_5,1,5,63,98,1707361796
95,17,16,Jits_ISO_5,2,5,56,103,1707432372
95,17,16,Jits_ISO_5,0,1,48,35,1707840220
95,17,16,Jits_ISO_5,1,5,80,127,1707921684
95,17,16,Jits_ISO_5,2,1,48,18,1707930032
95,17,16,Jits_ISO_5,3,5,56,103,1707932228
95,17,16,Jits_ISO_5,4,5,63,98,1707935292
95,17,16,Jits_ISO_5,0,1,48,34,1708361192
95,17,16,Jits_ISO_5,1,5,56,103,1708362684
95,17,16,Jits_ISO_5,2,5,80,127,1708381500
95,17,16,Jits_ISO_5,3,5,63,98,1708391772
95,17,16,Jits_ISO_5,0,1,48,37,1708837812
95,17,16,Jits_ISO_5,1,5,63,98,1708882424
95,17,16,Jits_ISO_5,2,5,56,103,1708922288
95,17,16,Jits_ISO_5,3,5,80,127,1708941612
95,17,16,Jits_ISO_5,0,1,48,18,1709362584
95,17,16,Jits_ISO_5,1,5,63,98,1709382160
95,17,16,Jits_ISO_5,2,5,56,103,1709442400
95,17,16,Jits_ISO_5,3,5,80,127,1709445616
95,17,16,Jits_ISO_5,0,5,56,103,1709841712
95,17,16,Jits_ISO_5,1,1,48,33,1709856240
95,17,16,Jits_ISO_5,2,5,80,127,1709862116
95,17,16,Jits_ISO_5,3,5,63,98,1709902128
95,17,16,Jits_ISO_5,0,1,48,28,1710314148
95,17,16,Jits_ISO_5,1,5,56,103,1710372264
95,17,16,Jits_ISO_5,2,5,63,98,1710391604
95,17,16,Jits_ISO_5,3,5,80,127,1710402096
95,17,16,Jits_ISO_5,0,5,80,127,1710842088
95,17,16,Jits_ISO_5,1,1,48,31,1710843052
95,17,16,Jits_ISO_5,2,5,56,103,1710872052
95,17,16,Jits_ISO_5,3,5,63,98,1710911916
95,17,16,Jits_ISO_5,0,1,48,40,1711349624
95,17,16,Jits_ISO_5,1,5,80,127,1711352212
95,17,16,Jits_ISO_5,2,5,56,103,1711371772
95,17,16,Jits_ISO_5,3,5,63,98,1711432184
95,17,16,Jits_ISO_5,0,5,56,103,1711862208
95,17,16,Jits_ISO_5,1,1,48,34,1711871772
95,17,16,Jits_ISO_5,2,5,80,127,1711881612
95,17,16,Jits_ISO_5,3,5,63,98,1711942248
95,17,16,Jits_ISO_5,4,1,48,18,1711951204
95,17,16,Jits_ISO_5,0,5,80,127,1712342268
95,17,16,Jits_ISO_5,1,5,56,103,1712351492
95,17,16,Jits_ISO_5,2,1,48,34,1712363604
95,17,16,Jits_ISO_5,3,5,63,98,1712391496
95,17,16,Jits_ISO_5,4,1,48,18,1712443316
95,17,16,Jits_ISO_5,0,5,63,98,1712852216
95,17,16,Jits_ISO_5,1,5,56,103,1712892448
95,17,16,Jits_ISO_5,2,1,48,34,1712893660
95,17,16,Jits_ISO_5,3,5,80,127,1712896408
95,17,16,Jits_ISO_5,4,1,48,20,1712962320
95,17,16,Jits_ISO_5,0,5,63,98,1713371432
95,17,16,Jits_ISO_5,1,5,80,127,1713411372
95,17,16,Jits_ISO_5,2,1,48,31,1713439300
95,17,16,Jits_ISO_5,3,5,56,103,1713442404
95,17,16,Jits_ISO_5,0,5,56,103,1713862096
95,17,16,Jits_ISO_5,1,5,63,98,1713872292
95,17,16,Jits_ISO_5,2,5,80,127,1713902192
95,17,16,Jits_ISO_5,3,1,48,35,1713949752
95,17,16,Jits_ISO_5,0,5,80,127,1714351428
95,17,16,Jits_ISO_5,1,5,63,98,1714422084
95,17,16,Jits_ISO_5,2,5,56,103,1714432428
95,17,16,Jits_ISO_5,3,1,48,22,1714445660
95,17,16,Jits_ISO_5,0,5,63,98,1714852224
95,17,16,Jits_ISO_5,1,5,56,103,1714921980
95,17,16,Jits_ISO_5,2,5,80,127,1714932252
95,17,16,Jits_ISO_5,3,1,48,22,1714960244
95,17,16,Jits_ISO_5,0,5,63,98,1715352104
95,17,16,Jits_ISO_5,1,5,56,103,1715372268
95,17,16,Jits_ISO_5,2,5,80,127,1715412352
95,17,16,Jits_ISO_5,3,1,48,23,1715455024
95,17,16,Jits_ISO_5,0,5,56,103,1715861948
95,17,16,Jits_ISO_5,1,5,63,98,1715872220
95,17,16,Jits_ISO_5,2,1,48,27,1715918556
95,17,16,Jits_ISO_5,3,5,80,127,1715952304
95,17,16,Jits_ISO_5,0,5,63,98,1716352332
95,17,16,Jits_ISO_5,1,1,48,22,1716361824
95,17,16,Jits_ISO_5,2,5,56,103,1716382148
95,17,16,Jits_ISO_5,3,5,80,127,1716422084
95,17,16,Jits_ISO_5,0,5,56,103,1716852136
95,17,16,Jits_ISO_5,1,1,48,28,1716853852
95,17,16,Jits_ISO_5,2,5,63,98,1716892364
95,17,16,Jits_ISO_5,3,5,80,127,1716932152
95,17,16,Jits_ISO_5,0,1,48,27,1717341216
95,17,16,Jits_ISO_5,1,5,80,127,1717351952
95,17,16,Jits_ISO_5,2,5,56,103,1717431600
95,17,16,Jits_ISO_5,3,5,63,98,1717441856
95,17,16,Jits_ISO_5,0,1,48,35,1717849716
95,17,16,Jits_ISO_5,1,5,56,103,1717891312
95,17,16,Jits_ISO_5,2,5,63,98,1717894536
95,17,16,Jits_ISO_5,3,5,80,127,1717901664
95,17,16,Jits_ISO_5,0,1,48,28,1718359480
95,17,16,Jits_ISO_5,1,5,56,103,1718411572
95,17,16,Jits_ISO_5,2,5,63,98,1718432104
95,17,16,Jits_ISO_5,3,5,80,127,1718442372
95,17,16,Jits_ISO_5,0,5,63,98,1718872428
95,17,16,Jits_ISO_5,1,5,80,127,1718881652
95,17,16,Jits_ISO_5,2,1,48,21,1718896524
95,17,16,Jits_ISO_5,3,5,56,103,1718902324
95,17,16,Jits_ISO_5,0,1,48,38,1719371632
95,17,16,Jits_ISO_5,1,5,63,98,1719373196
95,17,16,Jits_ISO_5,2,5,56,103,1719452168
95,17,16,Jits_ISO_5,3,5,80,127,1719455232
95,17,16,Jits_ISO_5,0,5,63,98,1719871812
95,17,16,Jits_ISO_5,1,1,48,31,1719879720
95,17,16,Jits_ISO_5,2,5,56,103,1719892192
95,17,16,Jits_ISO_5,3,5,80,127,1719922016
95,17,16,Jits_ISO_5,0,1,48,32,1720354280
95,17,16,Jits_ISO_5,1,5,56,103,1720381804
95,17,16,Jits_ISO_5,2,5,63,98,1720402188
95,17,16,Jits_ISO_5,3,5,80,127,1720411412
95,17,16,Jits_ISO_5,0,1,48,27,1720857896
95,17,16,Jits_ISO_5,1,5,56,103,1720912324
95,17,16,Jits_ISO_5,2,5,63,98,1720941920
95,17,16,Jits_ISO_5,3,5,80,127,1720945136
95,17,16,Jits_ISO_5,0,1,48,29,1721361076
95,17,16,Jits_ISO_5,1,5,56,103,1721362576
95,17,16,Jits_ISO_5,2,5,63,98,1721401568
95,17,16,Jits_ISO_5,3,5,80,127,1721462236
95,17,16,Jits_ISO_5,0,1,48,26,1721850296
95,17,16,Jits_ISO_5,1,5,56,103,1721882032
95,17,16,Jits_ISO_5,2,5,63,98,1721892152
95,17,16,Jits_ISO_5,3,5,80,127,1721951556
95,17,16,Jits_ISO_5,0,1,48,28,1722374068
95,17,16,Jits_ISO_5,1,5,56,103,1722381592
95,17,16,Jits_ISO_5,2,5,80,127,1722402224
95,17,16,Jits_ISO_5,3,5,63,98,1722432048
95,17,16,Jits_ISO_5,0,1,48,28,1722882076
95,17,16,Jits_ISO_5,1,5,80,127,1722883412
95,17,16,Jits_ISO_5,2,5,56,103,1722891664
95,17,16,Jits_ISO_5,3,5,63,98,1722912224
95,17,16,Jits_ISO_5,0,1,48,19,1723370472
95,17,16,Jits_ISO_5,1,5,63,98,1723372056
95,17,16,Jits_ISO_5,2,5,80,127,1723451876
95,17,16,Jits_ISO_5,3,5,56,103,1723462220
95,17,16,Jits_ISO_5,0,1,48,22,1723889980
95,17,16,Jits_ISO_5,1,5,80,127,1723932056
95,17,16,Jits_ISO_5,2,5,56,103,1723951464
95,17,16,Jits_ISO_5,3,5,63,98,1723954380
95,17,16,Jits_ISO_5,0,1,48,31,1724398760
95,17,16,Jits_ISO_5,1,5,63,98,1724412200
95,17,16,Jits_ISO_5,2,5,80,127,1724415488
95,17,16,Jits_ISO_5,3,5,56,103,1724471640
95,17,16,Jits_ISO_5,0,1,48,31,1724885824
95,17,16,Jits_ISO_5,1,5,56,103,1724891624
95,17,16,Jits_ISO_5,2,5,80,127,1724901672
95,17,16,Jits_ISO_5,3,5,63,98,1724941536
95,17,16,Jits_ISO_5,4,1,48,17,1724963540
95,17,16,Jits_ISO_5,0,5,56,103,1725371976
95,17,16,Jits_ISO_5,1,1,48,31,1725376436
95,17,16,Jits_ISO_5,2,5,63,98,1725432060
95,17,16,Jits_ISO_5,3,5,80,127,1725442404
95,17,16,Jits_ISO_5,0,1,48,35,1725864048
95,17,16,Jits_ISO_5,1,5,63,98,1725881756
95,17,16,Jits_ISO_5,2,5,80,127,1725921544
95,17,16,Jits_ISO_5,3,1,48,20,1725934012
95,17,16,Jits_ISO_5,4,5,56,103,1725961608
95,17,16,Jits_ISO_5,0,5,56,103,1726381288
95,17,16,Jits_ISO_5,1,1,48,24,1726384928
95,17,16,Jits_ISO_5,2,5,63,98,1726462272
95,17,16,Jits_ISO_5,3,5,80,127,1726465560
95,17,16,Jits_ISO_5,0,9999,9999,9999,1667070008
95,17,16,Jits_ISO_5,1,9999,9999,9999,1667569728
95,17,16,Jits_ISO_5,2,9999,9999,9999,1668069448
95,17,16,Jits_ISO_5,3,9999,9999,9999,1668569176
95,17,16,Jits_ISO_5,4,9999,9999,9999,1669069940
95,17,16,Jits_ISO_5,5,9999,9999,9999,1669569640
95,17,16,Jits_ISO_5,6,9999,9999,9999,1670069372
95,17,16,Jits_ISO_5,7,9999,9999,9999,1670570092
95,17,16,Jits_ISO_5,8,9999,9999,9999,1671069764
95,17,16,Jits_ISO_5,9,9999,9999,9999,1671569512
95,17,16,Jits_ISO_5,10,9999,9999,9999,1672069180
95,17,16,Jits_ISO_5,11,9999,9999,9999,1672569980
95,17,16,Jits_ISO_5,12,9999,9999,9999,1673069632
95,17,16,Jits_ISO_5,13,9999,9999,9999,1673569360
95,17,16,Jits_ISO_5,14,9999,9999,9999,1674070140
95,17,16,Jits_ISO_5,15,9999,9999,9999,1674580060
95,17,16,Jits_ISO_5,16,9999,9999,9999,1675079792
95,17,16,Jits_ISO_5,17,9999,9999,9999,1675579452
95,17,16,Jits_ISO_5,18,9999,9999,9999,1676079196
95,17,16,Jits_ISO_5,19,9999,9999,9999,1676579904
95,17,16,Jits_ISO_5,20,9999,9999,9999,1677079612
95,17,16,Jits_ISO_5,21,9999,9999,9999,1677579340
95,17,16,Jits_ISO_5,22,9999,9999,9999,1678080116
95,17,16,Jits_ISO_5,23,9999,9999,9999,1678590052
95,17,16,Jits_ISO_5,24,9999,9999,9999,1679089788
95,17,16,Jits_ISO_5,25,9999,9999,9999,1679589436
95,17,16,Jits_ISO_5,26,9999,9999,9999,1680089172
95,17,16,Jits_ISO_5,27,9999,9999,9999,1680589936
95,17,16,Jits_ISO_5,28,9999,9999,9999,1681089608
95,17,16,Jits_ISO_5,29,9999,9999,9999,1681589336
95,17,16,Jits_ISO_5,30,9999,9999,9999,1682090052
95,17,16,Jits_ISO_5,31,9999,9999,9999,1682589800
95,17,16,Jits_ISO_5,32,9999,9999,9999,1683089468
95,17,16,Jits_ISO_5,33,9999,9999,9999,1683589200
95,17,16,Jits_ISO_5,34,9999,9999,9999,1684089920
95,17,16,Jits_ISO_5,35,9999,9999,9999,1684589652
95,17,16,Jits_ISO_5,36,9999,9999,9999,1685089372
95,17,16,Jits_ISO_5,37,9999,9999,9999,1685590080
95,17,16,Jits_ISO_5,38,9999,9999,9999,1686100048
95,17,16,Jits_ISO_5,39,9999,9999,9999,1686599760
95,17,16,Jits_ISO_5,40,9999,9999,9999,1687099456
95,17,16,Jits_ISO_5,41,9999,9999,9999,1687599164
95,17,16,Jits_ISO_5,42,9999,9999,9999,1688099908
95,17,16,Jits_ISO_5,43,9999,9999,9999,1688599612
95,17,16,Jits_ISO_5,44,9999,9999,9999,1689099384
95,17,16,Jits_ISO_5,45,9999,9999,9999,1689600124
95,17,16,Jits_ISO_5,46,9999,9999,9999,1690110040
95,17,16,Jits_ISO_5,47,9999,9999,9999,1690609776
95,17,16,Jits_ISO_5,48,9999,9999,9999,1691109436
95,17,16,Jits_ISO_5,49,9999,9999,9999,1691609172
95,17,16,Jits_ISO_5,50,9999,9999,9999,1692109944
95,17,16,Jits_ISO_5,51,9999,9999,9999,1692609616
95,17,16,Jits_ISO_5,52,9999,9999,9999,1693109348
95,17,16,Jits_ISO_5,53,9999,9999,9999,1693610056
95,17,16,Jits_ISO_5,54,9999,9999,9999,1694109788
95,17,16,Jits_ISO_5,55,9999,9999,9999,1694609464
95,17,16,Jits_ISO_5,56,9999,9999,9999,1695109196
95,17,16,Jits_ISO_5,57,9999,9999,9999,1695609964
95,17,16,Jits_ISO_5,58,9999,9999,9999,1696109676
95,17,16,Jits_ISO_5,59,9999,9999,9999,1696609356
95,17,16,Jits_ISO_5,60,9999,9999,9999,1697110068
95,17,16,Jits_ISO_5,61,9999,9999,9999,1697620056
95,17,16,Jits_ISO_5,62,9999,9999,9999,1698119788
95,17,16,Jits_ISO_5,63,9999,9999,9999,1698619444
95,17,16,Jits_ISO_5,64,9999,9999,9999,1699119176
95,17,16,Jits_ISO_5,65,9999,9999,9999,1699619952
95,17,16,Jits_ISO_5,66,9999,9999,9999,1700119664
95,17,16,Jits_ISO_5,67,9999,9999,9999,1700619376
95,17,16,Jits_ISO_5,68,9999,9999,9999,1701120084
95,17,16,Jits_ISO_5,69,9999,9999,9999,1701630060
95,17,16,Jits_ISO_5,70,9999,9999,9999,1702129780
95,17,16,Jits_ISO_5,71,9999,9999,9999,1702629436
95,17,16,Jits_ISO_5,72,9999,9999,9999,1703129168
95,17,16,Jits_ISO_5,73,9999,9999,9999,1703629948
95,17,16,Jits_ISO_5,74,9999,9999,9999,1704129624
95,17,16,Jits_ISO_5,75,9999,9999,9999,1704629356
95,17,16,Jits_ISO_5,76,9999,9999,9999,1705130064
95,17,16,Jits_ISO_5,77,9999,9999,9999,1705629796
95,17,16,Jits_ISO_5,78,9999,9999,9999,1706129520
95,17,16,Jits_ISO_5,79,9999,9999,9999,1706629212
95,17,16,Jits_ISO_5,80,9999,9999,9999,1707129916
95,17,16,Jits_ISO_5,81,9999,9999,9999,1707629672
95,17,16,Jits_ISO_5,82,9999,9999,9999,1708129364
95,17,16,Jits_ISO_5,83,9999,9999,9999,1708630104
95,17,16,Jits_ISO_5,84,9999,9999,9999,1709140032
95,17,16,Jits_ISO_5,85,9999,9999,9999,1709639760
95,17,16,Jits_ISO_5,86,9999,9999,9999,1710139488
95,17,16,Jits_ISO_5,87,9999,9999,9999,1710639160
95,17,16,Jits_ISO_5,88,9999,9999,9999,1711139912
95,17,16,Jits_ISO_5,89,9999,9999,9999,1711639632
95,17,16,Jits_ISO_5,90,9999,9999,9999,1712139340
95,17,16,Jits_ISO_5,91,9999,9999,9999,1712640072
95,17,16,Jits_ISO_5,92,9999,9999,9999,1713150008
95,17,16,Jits_ISO_5,93,9999,9999,9999,1713649780
95,17,16,Jits_ISO_5,94,9999,9999,9999,1714149436
95,17,16,Jits_ISO_5,95,9999,9999,9999,1714649180
95,17,16,Jits_ISO_5,96,9999,9999,9999,1715149904
95,17,16,Jits_ISO_5,97,9999,9999,9999,1715649632
95,17,16,Jits_ISO_5,98,9999,9999,9999,1716149364
95,17,16,Jits_ISO_5,99,9999,9999,9999,1716650084
95,17,16,Jits_ISO_5,100,9999,9999,9999,1717149812
95,17,16,Jits_ISO_5,101,9999,9999,9999,1717649492
95,17,16,Jits_ISO_5,102,9999,9999,9999,1718149212
95,17,16,Jits_ISO_5,103,9999,9999,9999,1718649920
95,17,16,Jits_ISO_5,104,9999,9999,9999,1719149652
95,17,16,Jits_ISO_5,105,9999,9999,9999,1719649376
95,17,16,Jits_ISO_5,106,9999,9999,9999,1720150084
95,17,16,Jits_ISO_5,107,9999,9999,9999,1720660080
95,17,16,Jits_ISO_5,108,9999,9999,9999,1721159728
95,17,16,Jits_ISO_5,109,9999,9999,9999,1721659460
95,17,16,Jits_ISO_5,110,9999,9999,9999,1722159192
95,17,16,Jits_ISO_5,111,9999,9999,9999,1722659896
95,17,16,Jits_ISO_5,112,9999,9999,9999,1723159672
95,17,16,Jits_ISO_5,113,9999,9999,9999,1723659332
95,17,16,Jits_ISO_5,114,9999,9999,9999,1724160108
95,17,16,Jits_ISO_5,115,9999,9999,9999,1724670020
95,17,16,Jits_ISO_5,116,9999,9999,9999,1725169732
95,17,16,Jits_ISO_5,117,9999,9999,9999,1725669428
95,17,16,Jits_ISO_5,118,9999,9999,9999,1726169156
95,17,16,Jits_ISO_5,119,9999,9999,9999,1726669892
95,18,18,Jits_Linear_8,0,5,56,103,1736980820
95,18,18,Jits_Linear_8,1,5,63,98,1736983992
95,18,18,Jits_Linear_8,2,5,80,127,1736987136
95,18,18,Jits_Linear_8,0,5,56,103,1737801000
95,18,18,Jits_Linear_8,1,5,63,98,1737804100
95,18,18,Jits_Linear_8,2,5,80,127,1737807220
95,18,18,Jits_Linear_8,0,5,80,127,1738560864
95,18,18,Jits_Linear_8,1,1,48,27,1738640856
95,18,18,Jits_Linear_8,2,5,63,98,1738650992
95,18,18,Jits_Linear_8,3,5,56,103,1738661188
95,18,18,Jits_Linear_8,0,5,56,103,1739400560
95,18,18,Jits_Linear_8,1,5,63,98,1739410980
95,18,18,Jits_Linear_8,2,1,48,31,1739418136
95,18,18,Jits_Linear_8,3,5,80,127,1739500808
95,18,18,Jits_Linear_8,0,5,63,98,1740191108
95,18,18,Jits_Linear_8,1,5,80,127,1740221084
95,18,18,Jits_Linear_8,2,1,48,32,1740222052
95,18,18,Jits_Linear_8,3,5,56,103,1740250456
95,18,18,Jits_Linear_8,0,1,48,28,1740999368
95,18,18,Jits_Linear_8,1,5,56,103,1741011228
95,18,18,Jits_Linear_8,2,5,80,127,1741110816
95,18,18,Jits_Linear_8,3,5,63,98,1741161016
95,18,18,Jits_Linear_8,0,5,56,103,1741821328
95,18,18,Jits_Linear_8,1,1,48,25,1741854660
95,18,18,Jits_Linear_8,2,5,80,127,1741870576
95,18,18,Jits_Linear_8,3,5,63,98,1741911268
95,18,18,Jits_Linear_8,0,1,48,23,1742630752
95,18,18,Jits_Linear_8,1,5,80,127,1742661120
95,18,18,Jits_Linear_8,2,5,63,98,1742690872
95,18,18,Jits_Linear_8,3,5,56,103,1742761212
95,18,18,Jits_Linear_8,0,1,48,26,1743470600
95,18,18,Jits_Linear_8,1,5,63,98,1743500736
95,18,18,Jits_Linear_8,2,5,56,103,1743531464
95,18,18,Jits_Linear_8,3,5,80,127,1743591012
95,18,18,Jits_Linear_8,0,1,48,37,1744233932
95,18,18,Jits_Linear_8,1,5,56,103,1744251264
95,18,18,Jits_Linear_8,2,5,80,127,1744254332
95,18,18,Jits_Linear_8,3,1,48,16,1744338788
95,18,18,Jits_Linear_8,4,5,63,98,1744371120
95,18,18,Jits_Linear_8,0,1,48,30,1745063840
95,18,18,Jits_Linear_8,1,5,56,103,1745130852
95,18,18,Jits_Linear_8,2,1,48,17,1745137320
95,18,18,Jits_Linear_8,3,5,80,127,1745171068
95,18,18,Jits_Linear_8,4,5,63,98,1745180992
95,18,18,Jits_Linear_8,0,5,56,103,1745890728
95,18,18,Jits_Linear_8,1,1,48,21,1745900000
95,18,18,Jits_Linear_8,2,5,80,127,1745911108
95,18,18,Jits_Linear_8,3,5,63,98,1745991076
95,18,18,Jits_Linear_8,0,5,80,127,1746681132
95,18,18,Jits_Linear_8,1,1,48,22,1746704856
95,18,18,Jits_Linear_8,2,5,56,103,1746780728
95,18,18,Jits_Linear_8,3,5,63,98,1746790924
95,18,18,Jits_Linear_8,0,5,63,98,1747451160
95,18,18,Jits_Linear_8,1,1,48,34,1747509016
95,18,18,Jits_Linear_8,2,5,80,127,1747510600
95,18,18,Jits_Linear_8,3,5,56,103,1747520944
95,18,18,Jits_Linear_8,0,5,56,103,1748250932
95,18,18,Jits_Linear_8,1,1,48,26,1748302228
95,18,18,Jits_Linear_8,2,5,63,98,1748320684
95,18,18,Jits_Linear_8,3,5,80,127,1748324196
95,18,18,Jits_Linear_8,0,5,63,98,1749080512
95,18,18,Jits_Linear_8,1,1,48,32,1749126256
95,18,18,Jits_Linear_8,2,5,56,103,1749130556
95,18,18,Jits_Linear_8,3,5,80,127,1749133696
95,18,18,Jits_Linear_8,0,5,56,103,1749831024
95,18,18,Jits_Linear_8,1,5,80,127,1749834092
95,18,18,Jits_Linear_8,2,5,63,98,1749921232
95,18,18,Jits_Linear_8,3,1,48,32,1749959872
95,18,18,Jits_Linear_8,0,5,63,98,1750660600
95,18,18,Jits_Linear_8,1,1,48,19,1750721864
95,18,18,Jits_Linear_8,2,5,56,103,1750750656
95,18,18,Jits_Linear_8,3,5,80,127,1750781232
95,18,18,Jits_Linear_8,0,5,56,103,1751440660
95,18,18,Jits_Linear_8,1,5,63,98,1751540984
95,18,18,Jits_Linear_8,2,5,80,127,1751570736
95,18,18,Jits_Linear_8,3,1,48,28,1751587652
95,18,18,Jits_Linear_8,0,5,63,98,1752250696
95,18,18,Jits_Linear_8,1,5,56,103,1752260968
95,18,18,Jits_Linear_8,2,5,80,127,1752350976
95,18,18,Jits_Linear_8,3,1,48,19,1752354020
95,18,18,Jits_Linear_8,0,5,63,98,1753050680
95,18,18,Jits_Linear_8,1,1,48,22,1753120960
95,18,18,Jits_Linear_8,2,5,56,103,1753131544
95,18,18,Jits_Linear_8,3,5,80,127,1753134832
95,18,18,Jits_Linear_8,0,5,80,127,1753790868
95,18,18,Jits_Linear_8,1,5,63,98,1753811256
95,18,18,Jits_Linear_8,2,5,56,103,1753870896
95,18,18,Jits_Linear_8,3,1,48,32,1753901612
95,18,18,Jits_Linear_8,0,5,56,103,1754610940
95,18,18,Jits_Linear_8,1,5,63,98,1754630576
95,18,18,Jits_Linear_8,2,5,80,127,1754633940
95,18,18,Jits_Linear_8,3,1,48,32,1754638408
95,18,18,Jits_Linear_8,0,5,63,98,1755330908
95,18,18,Jits_Linear_8,1,1,48,24,1755404452
95,18,18,Jits_Linear_8,2,5,80,127,1755410776
95,18,18,Jits_Linear_8,3,5,56,103,1755420996
95,18,18,Jits_Linear_8,0,5,63,98,1756130736
95,18,18,Jits_Linear_8,1,5,56,103,1756151048
95,18,18,Jits_Linear_8,2,1,48,29,1756193672
95,18,18,Jits_Linear_8,3,5,80,127,1756201268
95,18,18,Jits_Linear_8,0,5,80,127,1756910936
95,18,18,Jits_Linear_8,1,1,48,27,1756934584
95,18,18,Jits_Linear_8,2,5,63,98,1756950796
95,18,18,Jits_Linear_8,3,5,56,103,1756971580
95,18,18,Jits_Linear_8,0,5,56,103,1757720844
95,18,18,Jits_Linear_8,1,5,63,98,1757731264
95,18,18,Jits_Linear_8,2,1,48,29,1757735060
95,18,18,Jits_Linear_8,3,5,80,127,1757750820
95,18,18,Jits_Linear_8,0,5,56,103,1758421388
95,18,18,Jits_Linear_8,1,5,63,98,1758510580
95,18,18,Jits_Linear_8,2,1,48,26,1758538112
95,18,18,Jits_Linear_8,3,5,80,127,1758570888
95,18,18,Jits_Linear_8,0,5,80,127,1759221088
95,18,18,Jits_Linear_8,1,5,56,103,1759231432
95,18,18,Jits_Linear_8,2,5,63,98,1759301064
95,18,18,Jits_Linear_8,3,1,48,22,1759303004
95,18,18,Jits_Linear_8,0,5,63,98,1760020860
95,18,18,Jits_Linear_8,1,5,80,127,1760110948
95,18,18,Jits_Linear_8,2,5,56,103,1760121144
95,18,18,Jits_Linear_8,0,5,63,98,1760721228
95,18,18,Jits_Linear_8,1,5,80,127,1760770536
95,18,18,Jits_Linear_8,2,5,56,103,1760830804
95,18,18,Jits_Linear_8,3,1,48,22,1760911308
95,18,18,Jits_Linear_8,0,5,56,103,1761511016
95,18,18,Jits_Linear_8,1,5,80,127,1761561024
95,18,18,Jits_Linear_8,2,5,63,98,1761581632
95,18,18,Jits_Linear_8,3,1,48,23,1761590076
95,18,18,Jits_Linear_8,0,5,56,103,1762240884
95,18,18,Jits_Linear_8,1,5,80,127,1762301424
95,18,18,Jits_Linear_8,2,1,48,16,1762346592
95,18,18,Jits_Linear_8,3,5,63,98,1762370976
95,18,18,Jits_Linear_8,0,5,56,103,1763000792
95,18,18,Jits_Linear_8,1,5,80,127,1763031812
95,18,18,Jits_Linear_8,2,5,63,98,1763061192
95,18,18,Jits_Linear_8,3,1,48,26,1763101724
95,18,18,Jits_Linear_8,0,5,56,103,1763800556
95,18,18,Jits_Linear_8,1,5,80,127,1763820864
95,18,18,Jits_Linear_8,2,1,48,26,1763825252
95,18,18,Jits_Linear_8,3,5,63,98,1763881272
95,18,18,Jits_Linear_8,0,1,48,18,1764558024
95,18,18,Jits_Linear_8,1,5,80,127,1764641176
95,18,18,Jits_Linear_8,2,5,56,103,1764651744
95,18,18,Jits_Linear_8,3,5,63,98,1764660656
95,18,18,Jits_Linear_8,0,5,56,103,1765350640
95,18,18,Jits_Linear_8,1,1,48,15,1765362224
95,18,18,Jits_Linear_8,2,5,80,127,1765390720
95,18,18,Jits_Linear_8,3,5,63,98,1765421544
95,18,18,Jits_Linear_8,0,5,56,103,1766070772
95,18,18,Jits_Linear_8,1,1,48,24,1766096508
95,18,18,Jits_Linear_8,2,5,63,98,1766101636
95,18,18,Jits_Linear_8,3,5,80,127,1766141276
95,18,18,Jits_Linear_8,0,5,80,127,1766771044
95,18,18,Jits_Linear_8,1,1,48,30,1766797080
95,18,18,Jits_Linear_8,2,5,63,98,1766821168
95,18,18,Jits_Linear_8,3,5,56,103,1766840652
95,18,18,Jits_Linear_8,0,5,56,103,1767551332
95,18,18,Jits_Linear_8,1,1,48,40,1767565984
95,18,18,Jits_Linear_8,2,5,80,127,1767621008
95,18,18,Jits_Linear_8,3,5,63,98,1767681532
95,18,18,Jits_Linear_8,0,5,80,127,1768290720
95,18,18,Jits_Linear_8,1,1,48,25,1768311224
95,18,18,Jits_Linear_8,2,5,63,98,1768380776
95,18,18,Jits_Linear_8,3,5,56,103,1768401532
95,18,18,Jits_Linear_8,0,5,63,98,1769050632
95,18,18,Jits_Linear_8,1,5,56,103,1769070872
95,18,18,Jits_Linear_8,2,5,80,127,1769110884
95,18,18,Jits_Linear_8,3,1,48,23,1769126656
95,18,18,Jits_Linear_8,0,5,80,127,1769750868
95,18,18,Jits_Linear_8,1,5,63,98,1769771476
95,18,18,Jits_Linear_8,2,1,48,22,1769835576
95,18,18,Jits_Linear_8,3,5,56,103,1769851264
95,18,18,Jits_Linear_8,0,5,63,98,1770480928
95,18,18,Jits_Linear_8,1,1,48,25,1770513940
95,18,18,Jits_Linear_8,2,5,56,103,1770590564
95,18,18,Jits_Linear_8,3,5,80,127,1770593928
95,18,18,Jits_Linear_8,0,5,63,98,1771240740
95,18,18,Jits_Linear_8,1,5,56,103,1771251012
95,18,18,Jits_Linear_8,2,1,48,24,1771252824
95,18,18,Jits_Linear_8,3,5,80,127,1771255192
95,18,18,Jits_Linear_8,0,5,56,103,1771960688
95,18,18,Jits_Linear_8,1,1,48,23,1772023144
95,18,18,Jits_Linear_8,2,5,80,127,1772080736
95,18,18,Jits_Linear_8,3,5,63,98,1772120512
95,18,18,Jits_Linear_8,0,5,56,103,1772711240
95,18,18,Jits_Linear_8,1,1,48,21,1772779096
95,18,18,Jits_Linear_8,2,5,80,127,1772791104
95,18,18,Jits_Linear_8,3,5,63,98,1772810592
95,18,18,Jits_Linear_8,0,5,56,103,1773441556
95,18,18,Jits_Linear_8,1,1,48,21,1773486924
95,18,18,Jits_Linear_8,2,5,63,98,1773551016
95,18,18,Jits_Linear_8,3,5,80,127,1773554452
95,18,18,Jits_Linear_8,0,5,56,103,1774201092
95,18,18,Jits_Linear_8,1,1,48,21,1774212604
95,18,18,Jits_Linear_8,2,5,80,127,1774230760
95,18,18,Jits_Linear_8,3,5,63,98,1774251520
95,18,18,Jits_Linear_8,0,5,63,98,1774910880
95,18,18,Jits_Linear_8,1,5,56,103,1774921076
95,18,18,Jits_Linear_8,2,5,80,127,1774931644
95,18,18,Jits_Linear_8,3,1,48,22,1774979128
95,18,18,Jits_Linear_8,0,5,80,127,1775620624
95,18,18,Jits_Linear_8,1,1,48,17,1775650972
95,18,18,Jits_Linear_8,2,5,56,103,1775670624
95,18,18,Jits_Linear_8,3,5,63,98,1775710784
95,18,18,Jits_Linear_8,0,5,80,127,1776360756
95,18,18,Jits_Linear_8,1,5,63,98,1776381440
95,18,18,Jits_Linear_8,2,1,48,20,1776410964
95,18,18,Jits_Linear_8,3,5,56,103,1776430392
95,18,18,Jits_Linear_8,0,5,80,127,1777090924
95,18,18,Jits_Linear_8,1,5,56,103,1777120748
95,18,18,Jits_Linear_8,2,5,63,98,1777191352
95,18,18,Jits_Linear_8,0,1,48,19,1777842824
95,18,18,Jits_Linear_8,1,5,56,103,1777860980
95,18,18,Jits_Linear_8,2,5,80,127,1777871552
95,18,18,Jits_Linear_8,3,5,63,98,1777911192
95,18,18,Jits_Linear_8,0,5,56,103,1778490604
95,18,18,Jits_Linear_8,1,5,63,98,1778511360
95,18,18,Jits_Linear_8,2,5,80,127,1778580892
95,18,18,Jits_Linear_8,3,1,48,18,1778608592
95,18,18,Jits_Linear_8,0,5,63,98,1779231032
95,18,18,Jits_Linear_8,1,5,80,127,1779290752
95,18,18,Jits_Linear_8,2,5,56,103,1779310912
95,18,18,Jits_Linear_8,3,1,48,16,1779338908
95,18,18,Jits_Linear_8,0,5,80,127,1779930596
95,18,18,Jits_Linear_8,1,5,56,103,1779961172
95,18,18,Jits_Linear_8,2,1,48,20,1779966236
95,18,18,Jits_Linear_8,3,5,63,98,1779991012
95,18,18,Jits_Linear_8,0,5,56,103,1780641356
95,18,18,Jits_Linear_8,1,1,48,26,1780666344
95,18,18,Jits_Linear_8,2,5,63,98,1780700472
95,18,18,Jits_Linear_8,3,5,80,127,1780760884
95,18,18,Jits_Linear_8,0,5,80,127,1781371524
95,18,18,Jits_Linear_8,1,5,56,103,1781390564
95,18,18,Jits_Linear_8,2,1,48,21,1781412944
95,18,18,Jits_Linear_8,3,5,63,98,1781461512
95,18,18,Jits_Linear_8,0,1,48,27,1782073420
95,18,18,Jits_Linear_8,1,5,80,127,1782080864
95,18,18,Jits_Linear_8,2,5,63,98,1782101472
95,18,18,Jits_Linear_8,3,5,56,103,1782131148
95,18,18,Jits_Linear_8,0,5,80,127,1782770916
95,18,18,Jits_Linear_8,1,1,48,23,1782779360
95,18,18,Jits_Linear_8,2,5,63,98,1782790620
95,18,18,Jits_Linear_8,3,5,56,103,1782851036
95,18,18,Jits_Linear_8,0,5,80,127,1783470592
95,18,18,Jits_Linear_8,1,1,48,25,1783489604
95,18,18,Jits_Linear_8,2,5,56,103,1783570760
95,18,18,Jits_Linear_8,3,5,63,98,1783600596
95,18,18,Jits_Linear_8,0,5,63,98,1784160756
95,18,18,Jits_Linear_8,1,5,80,127,1784210736
95,18,18,Jits_Linear_8,2,1,48,26,1784227480
95,18,18,Jits_Linear_8,3,5,56,103,1784231484
95,18,18,Jits_Linear_8,0,5,80,127,1784900876
95,18,18,Jits_Linear_8,1,1,48,24,1784917176
95,18,18,Jits_Linear_8,2,5,56,103,1784930692
95,18,18,Jits_Linear_8,3,5,63,98,1784933760
95,18,18,Jits_Linear_8,0,1,48,26,1785603108
95,18,18,Jits_Linear_8,1,5,63,98,1785631028
95,18,18,Jits_Linear_8,2,5,56,103,1785670968
95,18,18,Jits_Linear_8,3,5,80,127,1785690456
95,18,18,Jits_Linear_8,0,5,80,127,1786271040
95,18,18,Jits_Linear_8,1,5,63,98,1786351064
95,18,18,Jits_Linear_8,2,1,48,20,1786378392
95,18,18,Jits_Linear_8,3,5,56,103,1786390872
95,18,18,Jits_Linear_8,0,5,63,98,1786980688
95,18,18,Jits_Linear_8,1,1,48,20,1787041200
95,18,18,Jits_Linear_8,2,5,80,127,1787060556
95,18,18,Jits_Linear_8,3,5,56,103,1787080940
95,18,18,Jits_Linear_8,0,5,56,103,1787710848
95,18,18,Jits_Linear_8,1,1,48,23,1787715016
95,18,18,Jits_Linear_8,2,5,63,98,1787720964
95,18,18,Jits_Linear_8,3,5,80,127,1787760980
95,18,18,Jits_Linear_8,0,5,56,103,1788321424
95,18,18,Jits_Linear_8,1,5,80,127,1788324336
95,18,18,Jits_Linear_8,2,1,48,25,1788394888
95,18,18,Jits_Linear_8,3,5,63,98,1788461540
95,18,18,Jits_Linear_8,0,5,56,103,1789001080
95,18,18,Jits_Linear_8,1,1,48,23,1789067428
95,18,18,Jits_Linear_8,2,5,63,98,1789091136
95,18,18,Jits_Linear_8,3,5,80,127,1789160744
95,18,18,Jits_Linear_8,0,5,63,98,1789760852
95,18,18,Jits_Linear_8,1,1,48,20,1789764440
95,18,18,Jits_Linear_8,2,5,80,127,1789765628
95,18,18,Jits_Linear_8,3,5,56,103,1789821456
95,18,18,Jits_Linear_8,0,1,48,20,1790458268
95,18,18,Jits_Linear_8,1,5,80,127,1790480784
95,18,18,Jits_Linear_8,2,5,56,103,1790501416
95,18,18,Jits_Linear_8,3,5,63,98,1790510492
95,18,18,Jits_Linear_8,0,5,56,103,1791070548
95,18,18,Jits_Linear_8,1,5,63,98,1791080744
95,18,18,Jits_Linear_8,2,5,80,127,1791150500
95,18,18,Jits_Linear_8,3,1,48,29,1791161492
95,18,18,Jits_Linear_8,0,5,80,127,1791750420
95,18,18,Jits_Linear_8,1,5,56,103,1791800724
95,18,18,Jits_Linear_8,2,1,48,21,1791824516
95,18,18,Jits_Linear_8,3,5,63,98,1791850844
95,18,18,Jits_Linear_8,0,1,48,27,1792494940
95,18,18,Jits_Linear_8,1,5,56,103,1792511524
95,18,18,Jits_Linear_8,2,5,63,98,1792520528
95,18,18,Jits_Linear_8,3,5,80,127,1792560564
95,18,18,Jits_Linear_8,0,5,56,103,1793130812
95,18,18,Jits_Linear_8,1,5,63,98,1793170752
95,18,18,Jits_Linear_8,2,1,48,24,1793172464
95,18,18,Jits_Linear_8,3,5,80,127,1793221244
95,18,18,Jits_Linear_8,0,5,80,127,1793760564
95,18,18,Jits_Linear_8,1,5,56,103,1793810692
95,18,18,Jits_Linear_8,2,5,63,98,1793831548
95,18,18,Jits_Linear_8,3,1,48,18,1793844260
95,18,18,Jits_Linear_8,0,5,80,127,1794440536
95,18,18,Jits_Linear_8,1,1,48,26,1794467396
95,18,18,Jits_Linear_8,2,5,63,98,1794501144
95,18,18,Jits_Linear_8,3,5,56,103,1794580772
95,18,18,Jits_Linear_8,0,5,80,127,1795090656
95,18,18,Jits_Linear_8,1,5,56,103,1795130696
95,18,18,Jits_Linear_8,2,5,63,98,1795151452
95,18,18,Jits_Linear_8,3,1,48,23,1795184312
95,18,18,Jits_Linear_8,0,5,56,103,1795810560
95,18,18,Jits_Linear_8,1,5,80,127,1795820904
95,18,18,Jits_Linear_8,2,1,48,24,1795826488
95,18,18,Jits_Linear_8,3,5,63,98,1795860836
95,18,18,Jits_Linear_8,0,1,48,26,1796513872
95,18,18,Jits_Linear_8,1,5,56,103,1796551284
95,18,18,Jits_Linear_8,2,5,63,98,1796591072
95,18,18,Jits_Linear_8,3,5,80,127,1796594512
95,18,18,Jits_Linear_8,0,5,63,98,1797100860
95,18,18,Jits_Linear_8,1,5,80,127,1797140724
95,18,18,Jits_Linear_8,2,1,48,26,1797183200
95,18,18,Jits_Linear_8,3,5,56,103,1797210496
95,18,18,Jits_Linear_8,0,5,63,98,1797751368
95,18,18,Jits_Linear_8,1,5,56,103,1797830944
95,18,18,Jits_Linear_8,2,1,48,19,1797885528
95,18,18,Jits_Linear_8,3,5,80,127,1797890280
95,18,18,Jits_Linear_8,0,5,80,127,1798420812
95,18,18,Jits_Linear_8,1,5,63,98,1798470968
95,18,18,Jits_Linear_8,2,5,56,103,1798500644
95,18,18,Jits_Linear_8,3,1,48,25,1798569616
95,18,18,Jits_Linear_8,0,5,56,103,1799071184
95,18,18,Jits_Linear_8,1,5,63,98,1799121388
95,18,18,Jits_Linear_8,2,5,80,127,1799130464
95,18,18,Jits_Linear_8,3,1,48,23,1799279096
95,18,18,Jits_Linear_8,0,5,56,103,1799740740
95,18,18,Jits_Linear_8,1,5,63,98,1799851332
95,18,18,Jits_Linear_8,2,5,80,127,1799870816
95,18,18,Jits_Linear_8,3,1,48,21,1799946300
95,18,18,Jits_Linear_8,0,5,63,98,1800391244
95,18,18,Jits_Linear_8,1,5,80,127,1800441300
95,18,18,Jits_Linear_8,2,5,56,103,1800531456
95,18,18,Jits_Linear_8,3,1,48,21,1800601332
95,18,18,Jits_Linear_8,0,5,63,98,1801031196
95,18,18,Jits_Linear_8,1,5,80,127,1801060576
95,18,18,Jits_Linear_8,2,5,56,103,1801150708
95,18,18,Jits_Linear_8,3,1,48,19,1801176520
95,18,18,Jits_Linear_8,0,5,63,98,1801681236
95,18,18,Jits_Linear_8,1,5,56,103,1801690460
95,18,18,Jits_Linear_8,2,1,48,14,1801735308
95,18,18,Jits_Linear_8,3,5,80,127,1801790724
95,18,18,Jits_Linear_8,0,1,48,21,1802391808
95,18,18,Jits_Linear_8,1,5,63,98,1802430792
95,18,18,Jits_Linear_8,2,5,80,127,1802460544
95,18,18,Jits_Linear_8,3,5,56,103,1802491188
95,18,18,Jits_Linear_8,0,1,48,21,1803091432
95,18,18,Jits_Linear_8,1,5,80,127,1803092772
95,18,18,Jits_Linear_8,2,5,63,98,1803100580
95,18,18,Jits_Linear_8,3,5,56,103,1803131152
95,18,18,Jits_Linear_8,0,5,80,127,1803631048
95,18,18,Jits_Linear_8,1,5,63,98,1803650464
95,18,18,Jits_Linear_8,2,5,56,103,1803700664
95,18,18,Jits_Linear_8,3,1,48,21,1803735096
95,18,18,Jits_Linear_8,0,5,63,98,1804300652
95,18,18,Jits_Linear_8,1,1,48,20,1804334364
95,18,18,Jits_Linear_8,2,5,80,127,1804361212
95,18,18,Jits_Linear_8,3,5,56,103,1804380404
95,18,18,Jits_Linear_8,0,5,63,98,1804900676
95,18,18,Jits_Linear_8,1,5,56,103,1804950804
95,18,18,Jits_Linear_8,2,5,80,127,1804961372
95,18,18,Jits_Linear_8,3,1,48,19,1804974456
95,18,18,Jits_Linear_8,0,1,48,22,1805535984
95,18,18,Jits_Linear_8,1,5,56,103,1805570408
95,18,18,Jits_Linear_8,2,5,80,127,1805580604
95,18,18,Jits_Linear_8,3,5,63,98,1805681160
95,18,18,Jits_Linear_8,0,5,80,127,1806170432
95,18,18,Jits_Linear_8,1,5,63,98,1806180852
95,18,18,Jits_Linear_8,2,1,48,25,1806190048
95,18,18,Jits_Linear_8,3,5,56,103,1806331196
95,18,18,Jits_Linear_8,0,5,63,98,1806810596
95,18,18,Jits_Linear_8,1,5,80,127,1806850312
95,18,18,Jits_Linear_8,2,1,48,15,1806853656
95,18,18,Jits_Linear_8,3,5,56,103,1806931248
95,18,18,Jits_Linear_8,0,5,56,103,1807431140
95,18,18,Jits_Linear_8,1,1,48,26,1807493000
95,18,18,Jits_Linear_8,2,5,80,127,1807531312
95,18,18,Jits_Linear_8,3,5,63,98,1807550724
95,18,18,Jits_Linear_8,0,5,80,127,1808121208
95,18,18,Jits_Linear_8,1,5,56,103,1808130356
95,18,18,Jits_Linear_8,2,1,48,23,1808141120
95,18,18,Jits_Linear_8,3,5,63,98,1808220508
95,18,18,Jits_Linear_8,0,5,56,103,1808750988
95,18,18,Jits_Linear_8,1,5,63,98,1808770548
95,18,18,Jits_Linear_8,2,1,48,19,1808828048
95,18,18,Jits_Linear_8,3,5,80,127,1808851308
95,18,18,Jits_Linear_8,0,5,63,98,1809321476
95,18,18,Jits_Linear_8,1,5,56,103,1809410420
95,18,18,Jits_Linear_8,2,5,80,127,1809413340
95,18,18,Jits_Linear_8,3,1,48,20,1809485932
95,18,18,Jits_Linear_8,0,5,56,103,1809970416
95,18,18,Jits_Linear_8,1,5,80,127,1810031184
95,18,18,Jits_Linear_8,2,5,63,98,1810041380
95,18,18,Jits_Linear_8,3,1,48,16,1810129308
95,18,18,Jits_Linear_8,0,5,80,127,1810641152
95,18,18,Jits_Linear_8,1,5,56,103,1810650524
95,18,18,Jits_Linear_8,2,5,63,98,1810653440
95,18,18,Jits_Linear_8,3,1,48,19,1810771212
95,18,18,Jits_Linear_8,0,5,56,103,1811220848
95,18,18,Jits_Linear_8,1,5,80,127,1811231488
95,18,18,Jits_Linear_8,2,5,63,98,1811250456
95,18,18,Jits_Linear_8,3,1,48,16,1811450824
95,18,18,Jits_Linear_8,0,5,63,98,1811810588
95,18,18,Jits_Linear_8,1,5,80,127,1811871276
95,18,18,Jits_Linear_8,2,5,56,103,1811921256
95,18,18,Jits_Linear_8,0,5,63,98,1812511036
95,18,18,Jits_Linear_8,1,5,56,103,1812521384
95,18,18,Jits_Linear_8,2,1,48,20,1812529904
95,18,18,Jits_Linear_8,3,5,80,127,1812570456
95,18,18,Jits_Linear_8,0,5,63,98,1813021128
95,18,18,Jits_Linear_8,1,5,80,127,1813040468
95,18,18,Jits_Linear_8,2,5,56,103,1813050664
95,18,18,Jits_Linear_8,3,1,48,20,1813165404
95,18,18,Jits_Linear_8,0,5,63,98,1813631304
95,18,18,Jits_Linear_8,1,5,80,127,1813634444
95,18,18,Jits_Linear_8,2,1,48,17,1813652856
95,18,18,Jits_Linear_8,3,5,56,103,1813671236
95,18,18,Jits_Linear_8,0,1,48,21,1814258212
95,18,18,Jits_Linear_8,1,5,63,98,1814311244
95,18,18,Jits_Linear_8,2,5,80,127,1814340924
95,18,18,Jits_Linear_8,3,5,56,103,1814351268
95,18,18,Jits_Linear_8,0,5,56,103,1814871316
95,18,18,Jits_Linear_8,1,5,80,127,1814901068
95,18,18,Jits_Linear_8,2,1,48,23,1814908224
95,18,18,Jits_Linear_8,3,5,63,98,1814930736
95,18,18,Jits_Linear_8,0,1,48,24,1815503956
95,18,18,Jits_Linear_8,1,5,63,98,1815570964
95,18,18,Jits_Linear_8,2,5,56,103,1815611116
95,18,18,Jits_Linear_8,3,5,80,127,1815614104
95,18,18,Jits_Linear_8,0,5,80,127,1816070620
95,18,18,Jits_Linear_8,1,1,48,23,1816138488
95,18,18,Jits_Linear_8,2,5,56,103,1816151412
95,18,18,Jits_Linear_8,3,5,63,98,1816200492
95,18,18,Jits_Linear_8,0,5,80,127,1816651104
95,18,18,Jits_Linear_8,1,5,56,103,1816670592
95,18,18,Jits_Linear_8,2,1,48,17,1816756936
95,18,18,Jits_Linear_8,3,5,63,98,1816760792
95,18,18,Jits_Linear_8,0,5,80,127,1817291264
95,18,18,Jits_Linear_8,1,1,48,20,1817323608
95,18,18,Jits_Linear_8,2,5,63,98,1817331200
95,18,18,Jits_Linear_8,3,5,56,103,1817371240
95,18,18,Jits_Linear_8,0,5,63,98,1817860340
95,18,18,Jits_Linear_8,1,5,80,127,1817921204
95,18,18,Jits_Linear_8,2,1,48,25,1817927164
95,18,18,Jits_Linear_8,3,5,56,103,1817950500
95,18,18,Jits_Linear_8,0,5,56,103,1818460508
95,18,18,Jits_Linear_8,1,5,80,127,1818491228
95,18,18,Jits_Linear_8,2,1,48,21,1818546564
95,18,18,Jits_Linear_8,3,5,63,98,1818581356
95,18,18,Jits_Linear_8,0,5,56,103,1819060664
95,18,18,Jits_Linear_8,1,1,48,18,1819162180
95,18,18,Jits_Linear_8,2,5,80,127,1819171272
95,18,18,Jits_Linear_8,3,5,63,98,1819201024
95,18,18,Jits_Linear_8,0,5,56,103,1819700708
95,18,18,Jits_Linear_8,1,5,63,98,1819761100
95,18,18,Jits_Linear_8,2,1,48,15,1819774928
95,18,18,Jits_Linear_8,3,5,80,127,1819790696
95,18,18,Jits_Linear_8,0,5,56,103,1820260864
95,18,18,Jits_Linear_8,1,5,63,98,1820331376
95,18,18,Jits_Linear_8,2,1,48,25,1820348192
95,18,18,Jits_Linear_8,3,5,80,127,1820351000
95,18,18,Jits_Linear_8,0,5,80,127,1820820944
95,18,18,Jits_Linear_8,1,5,63,98,1820841256
95,18,18,Jits_Linear_8,2,5,56,103,1820890412
95,18,18,Jits_Linear_8,3,1,48,18,1820906408
95,18,18,Jits_Linear_8,0,5,63,98,1821421100
95,18,18,Jits_Linear_8,1,5,80,127,1821431148
95,18,18,Jits_Linear_8,2,5,56,103,1821481448
95,18,18,Jits_Linear_8,3,1,48,20,1821484048
95,18,18,Jits_Linear_8,0,5,63,98,1822000444
95,18,18,Jits_Linear_8,1,1,48,15,1822062376
95,18,18,Jits_Linear_8,2,5,80,127,1822071092
95,18,18,Jits_Linear_8,3,5,56,103,1822090728
95,18,18,Jits_Linear_8,0,5,63,98,1822611080
95,18,18,Jits_Linear_8,1,5,80,127,1822614288
95,18,18,Jits_Linear_8,2,1,48,20,1822630160
95,18,18,Jits_Linear_8,3,5,56,103,1822680376
95,18,18,Jits_Linear_8,0,5,80,127,1823141164
95,18,18,Jits_Linear_8,1,5,56,103,1823160872
95,18,18,Jits_Linear_8,2,5,63,98,1823170996
95,18,18,Jits_Linear_8,3,1,48,17,1823244156
95,18,18,Jits_Linear_8,0,5,56,103,1823741308
95,18,18,Jits_Linear_8,1,1,48,23,1823796444
95,18,18,Jits_Linear_8,2,5,63,98,1823831388
95,18,18,Jits_Linear_8,3,5,80,127,1823835048
95,18,18,Jits_Linear_8,0,5,80,127,1824291216
95,18,18,Jits_Linear_8,1,5,56,103,1824301560
95,18,18,Jits_Linear_8,2,5,63,98,1824321120
95,18,18,Jits_Linear_8,3,1,48,20,1824353980
95,18,18,Jits_Linear_8,0,5,63,98,1824860424
95,18,18,Jits_Linear_8,1,5,80,127,1824921044
95,18,18,Jits_Linear_8,2,5,56,103,1824931388
95,18,18,Jits_Linear_8,0,1,48,25,1825485288
95,18,18,Jits_Linear_8,1,5,63,98,1825500380
95,18,18,Jits_Linear_8,2,5,80,127,1825531180
95,18,18,Jits_Linear_8,3,1,48,16,1825556976
95,18,18,Jits_Linear_8,4,5,56,103,1825571172
95,18,18,Jits_Linear_8,0,5,56,103,1826060548
95,18,18,Jits_Linear_8,1,1,48,29,1826067256
95,18,18,Jits_Linear_8,2,5,80,127,1826071208
95,18,18,Jits_Linear_8,3,5,63,98,1826110776
95,18,18,Jits_Linear_8,0,5,80,127,1826591056
95,18,18,Jits_Linear_8,1,1,48,33,1826616424
95,18,18,Jits_Linear_8,2,5,56,103,1826670920
95,18,18,Jits_Linear_8,3,5,63,98,1826681340
95,18,18,Jits_Linear_8,0,1,48,32,1827169464
95,18,18,Jits_Linear_8,1,5,80,127,1827201400
95,18,18,Jits_Linear_8,2,5,56,103,1827281184
95,18,18,Jits_Linear_8,3,5,63,98,1827290332
95,18,18,Jits_Linear_8,0,5,80,127,1827720644
95,18,18,Jits_Linear_8,1,1,48,29,1827759584
95,18,18,Jits_Linear_8,2,5,56,103,1827770840
95,18,18,Jits_Linear_8,3,5,63,98,1827821116
95,18,18,Jits_Linear_8,0,5,56,103,1828341036
95,18,18,Jits_Linear_8,1,5,63,98,1828344028
95,18,18,Jits_Linear_8,2,1,48,22,1828356660
95,18,18,Jits_Linear_8,3,5,80,127,1828391252
95,18,18,Jits_Linear_8,0,1,48,25,1828884916
95,18,18,Jits_Linear_8,1,5,56,103,1828920836
95,18,18,Jits_Linear_8,2,5,63,98,1828951336
95,18,18,Jits_Linear_8,3,5,80,127,1828960780
95,18,18,Jits_Linear_8,0,5,63,98,1829390676
95,18,18,Jits_Linear_8,1,1,48,32,1829428968
95,18,18,Jits_Linear_8,2,5,56,103,1829461500
95,18,18,Jits_Linear_8,3,1,48,17,1829504316
95,18,18,Jits_Linear_8,4,5,80,127,1829510932
95,18,18,Jits_Linear_8,0,5,63,98,1829980488
95,18,18,Jits_Linear_8,1,5,56,103,1829990908
95,18,18,Jits_Linear_8,2,5,80,127,1829993900
95,18,18,Jits_Linear_8,3,1,48,25,1830018068
95,18,18,Jits_Linear_8,0,5,80,127,1830481124
95,18,18,Jits_Linear_8,1,5,56,103,1830540544
95,18,18,Jits_Linear_8,2,1,48,17,1830574900
95,18,18,Jits_Linear_8,3,5,63,98,1830631192
95,18,18,Jits_Linear_8,0,5,80,127,1831031088
95,18,18,Jits_Linear_8,1,1,48,29,1831093696
95,18,18,Jits_Linear_8,2,5,56,103,1831130508
95,18,18,Jits_Linear_8,3,5,63,98,1831170372
95,18,18,Jits_Linear_8,0,5,56,103,1831631176
95,18,18,Jits_Linear_8,1,5,63,98,1831650812
95,18,18,Jits_Linear_8,2,1,48,24,1831672216
95,18,18,Jits_Linear_8,3,5,80,127,1831690596
95,18,18,Jits_Linear_8,0,1,48,25,1832148060
95,18,18,Jits_Linear_8,1,5,63,98,1832151316
95,18,18,Jits_Linear_8,2,5,56,103,1832170876
95,18,18,Jits_Linear_8,3,5,80,127,1832271208
95,18,18,Jits_Linear_8,0,5,63,98,1832680744
95,18,18,Jits_Linear_8,1,1,48,19,1832740380
95,18,18,Jits_Linear_8,2,5,80,127,1832791352
95,18,18,Jits_Linear_8,3,5,56,103,1832821172
95,18,18,Jits_Linear_8,0,5,56,103,1833240836
95,18,18,Jits_Linear_8,1,5,63,98,1833270512
95,18,18,Jits_Linear_8,2,1,48,27,1833300604
95,18,18,Jits_Linear_8,3,5,80,127,1833321076
95,18,18,Jits_Linear_8,0,5,63,98,1833751164
95,18,18,Jits_Linear_8,1,5,56,103,1833780468
95,18,18,Jits_Linear_8,2,1,48,29,1833804560
95,18,18,Jits_Linear_8,3,5,80,127,1833831036
95,18,18,Jits_Linear_8,0,1,48,27,1834316280
95,18,18,Jits_Linear_8,1,5,56,103,1834321260
95,18,18,Jits_Linear_8,2,5,63,98,1834340820
95,18,18,Jits_Linear_8,3,5,80,127,1834420604
95,18,18,Jits_Linear_8,0,5,63,98,1834831204
95,18,18,Jits_Linear_8,1,1,48,31,1834888576
95,18,18,Jits_Linear_8,2,5,56,103,1834890544
95,18,18,Jits_Linear_8,3,5,80,127,1834921268
95,18,18,Jits_Linear_8,0,1,48,23,1835403748
95,18,18,Jits_Linear_8,1,5,56,103,1835410820
95,18,18,Jits_Linear_8,2,5,80,127,1835471212
95,18,18,Jits_Linear_8,3,5,63,98,1835511212
95,18,18,Jits_Linear_8,0,5,63,98,1835930884
95,18,18,Jits_Linear_8,1,1,48,34,1835966888
95,18,18,Jits_Linear_8,2,5,56,103,1835991348
95,18,18,Jits_Linear_8,3,5,80,127,1836060976
95,18,18,Jits_Linear_8,0,1,48,32,1836497872
95,18,18,Jits_Linear_8,1,5,56,103,1836541364
95,18,18,Jits_Linear_8,2,5,63,98,1836550664
95,18,18,Jits_Linear_8,3,5,80,127,1836553952
95,18,18,Jits_Linear_8,0,5,63,98,1837011372
95,18,18,Jits_Linear_8,1,5,56,103,1837071020
95,18,18,Jits_Linear_8,2,5,80,127,1837073936
95,18,18,Jits_Linear_8,3,1,48,18,1837146824
95,18,18,Jits_Linear_8,0,5,63,98,1837521160
95,18,18,Jits_Linear_8,1,5,80,127,1837550912
95,18,18,Jits_Linear_8,2,5,56,103,1837570396
95,18,18,Jits_Linear_8,3,1,48,21,1837603956
95,18,18,Jits_Linear_8,0,1,48,22,1838026928
95,18,18,Jits_Linear_8,1,5,56,103,1838050788
95,18,18,Jits_Linear_8,2,5,63,98,1838100792
95,18,18,Jits_Linear_8,3,5,80,127,1838180872
95,18,18,Jits_Linear_8,0,5,80,127,1838551376
95,18,18,Jits_Linear_8,1,5,63,98,1838591316
95,18,18,Jits_Linear_8,2,5,56,103,1838610800
95,18,18,Jits_Linear_8,3,1,48,26,1838619720
95,18,18,Jits_Linear_8,0,5,56,103,1839141296
95,18,18,Jits_Linear_8,1,1,48,24,1839142408
95,18,18,Jits_Linear_8,2,5,80,127,1839150364
95,18,18,Jits_Linear_8,3,5,63,98,1839170824
95,18,18,Jits_Linear_8,0,5,56,103,1839640988
95,18,18,Jits_Linear_8,1,1,48,31,1839675648
95,18,18,Jits_Linear_8,2,5,63,98,1839691112
95,18,18,Jits_Linear_8,3,5,80,127,1839720864
95,18,18,Jits_Linear_8,0,5,56,103,1840110992
95,18,18,Jits_Linear_8,1,5,63,98,1840121264
95,18,18,Jits_Linear_8,2,5,80,127,1840171340
95,18,18,Jits_Linear_8,0,5,56,103,1840620900
95,18,18,Jits_Linear_8,1,5,80,127,1840623892
95,18,18,Jits_Linear_8,2,1,48,35,1840705628
95,18,18,Jits_Linear_8,3,5,63,98,1840780944
95,18,18,Jits_Linear_8,0,5,63,98,1841151300
95,18,18,Jits_Linear_8,1,5,56,103,1841221080
95,18,18,Jits_Linear_8,2,5,80,127,1841260944
95,18,18,Jits_Linear_8,3,1,48,31,1841289988
95,18,18,Jits_Linear_8,0,5,63,98,1841701280
95,18,18,Jits_Linear_8,1,5,56,103,1841791340
95,18,18,Jits_Linear_8,2,5,80,127,1841794480
95,18,18,Jits_Linear_8,3,1,48,27,1841853568
95,18,18,Jits_Linear_8,0,5,56,103,1842190816
95,18,18,Jits_Linear_8,1,5,63,98,1842280976
95,18,18,Jits_Linear_8,2,5,80,127,1842291172
95,18,18,Jits_Linear_8,3,1,48,32,1842417592
95,18,18,Jits_Linear_8,0,5,56,103,1842670880
95,18,18,Jits_Linear_8,1,5,63,98,1842721112
95,18,18,Jits_Linear_8,2,5,80,127,1842750932
95,18,18,Jits_Linear_8,3,1,48,24,1842904108
95,18,18,Jits_Linear_8,0,5,63,98,1843250616
95,18,18,Jits_Linear_8,1,5,80,127,1843260736
95,18,18,Jits_Linear_8,2,5,56,103,1843321128
95,18,18,Jits_Linear_8,3,1,48,22,1843452056
95,18,18,Jits_Linear_8,0,5,63,98,1843671380
95,18,18,Jits_Linear_8,1,5,80,127,1843730796
95,18,18,Jits_Linear_8,2,5,56,103,1843770984
95,18,18,Jits_Linear_8,0,1,48,24,1844003596
95,18,18,Jits_Linear_8,1,5,56,103,1844270368
95,18,18,Jits_Linear_8,2,5,80,127,1844290900
95,18,18,Jits_Linear_8,3,5,63,98,1844311360
95,18,18,Jits_Linear_8,0,1,48,21,1844585468
95,18,18,Jits_Linear_8,1,5,63,98,1844691204
95,18,18,Jits_Linear_8,2,5,56,103,1844710916
95,18,18,Jits_Linear_8,3,5,80,127,1844750780
95,18,18,Jits_Linear_8,0,1,48,27,1845185840
95,18,18,Jits_Linear_8,1,5,63,98,1845201304
95,18,18,Jits_Linear_8,2,5,80,127,1845230908
95,18,18,Jits_Linear_8,3,5,56,103,1845250396
95,18,18,Jits_Linear_8,0,5,80,127,1845671244
95,18,18,Jits_Linear_8,1,5,56,103,1845720404
95,18,18,Jits_Linear_8,2,1,48,32,1845752364
95,18,18,Jits_Linear_8,3,5,63,98,1845780960
95,18,18,Jits_Linear_8,0,5,63,98,1846150484
95,18,18,Jits_Linear_8,1,5,56,103,1846271336
95,18,18,Jits_Linear_8,2,1,48,20,1846278584
95,18,18,Jits_Linear_8,3,5,80,127,1846301104
95,18,18,Jits_Linear_8,0,5,80,127,1846680880
95,18,18,Jits_Linear_8,1,5,63,98,1846701488
95,18,18,Jits_Linear_8,2,5,56,103,1846770944
95,18,18,Jits_Linear_8,3,1,48,28,1846810572
95,18,18,Jits_Linear_8,0,5,63,98,1847190988
95,18,18,Jits_Linear_8,1,5,56,103,1847201108
95,18,18,Jits_Linear_8,2,5,80,127,1847281052
95,18,18,Jits_Linear_8,3,1,48,18,1847379492
95,18,18,Jits_Linear_8,0,5,56,103,1847740720
95,18,18,Jits_Linear_8,1,5,80,127,1847770472
95,18,18,Jits_Linear_8,2,5,63,98,1847780964
95,18,18,Jits_Linear_8,3,1,48,19,1847862772
95,18,18,Jits_Linear_8,0,9999,9999,9999,1737388152
95,18,18,Jits_Linear_8,1,9999,9999,9999,1738208312
95,18,18,Jits_Linear_8,2,9999,9999,9999,1739028544
95,18,18,Jits_Linear_8,3,9999,9999,9999,1739848780
95,18,18,Jits_Linear_8,4,9999,9999,9999,1740668996
95,18,18,Jits_Linear_8,5,9999,9999,9999,1741479016
95,18,18,Jits_Linear_8,6,9999,9999,9999,1742288956
95,18,18,Jits_Linear_8,7,9999,9999,9999,1743098988
95,18,18,Jits_Linear_8,8,9999,9999,9999,1743908964
95,18,18,Jits_Linear_8,9,9999,9999,9999,1744718944
95,18,18,Jits_Linear_8,10,9999,9999,9999,1745518680
95,18,18,Jits_Linear_8,11,9999,9999,9999,1746318428
95,18,18,Jits_Linear_8,12,9999,9999,9999,1747118200
95,18,18,Jits_Linear_8,13,9999,9999,9999,1747918936
95,18,18,Jits_Linear_8,14,9999,9999,9999,1748718676
95,18,18,Jits_Linear_8,15,9999,9999,9999,1749508172
95,18,18,Jits_Linear_8,16,9999,9999,9999,1750298716
95,18,18,Jits_Linear_8,17,9999,9999,9999,1751088232
95,18,18,Jits_Linear_8,18,9999,9999,9999,1751878772
95,18,18,Jits_Linear_8,19,9999,9999,9999,1752668280
95,18,18,Jits_Linear_8,20,9999,9999,9999,1753448556
95,18,18,Jits_Linear_8,21,9999,9999,9999,1754228828
95,18,18,Jits_Linear_8,22,9999,9999,9999,1755008060
95,18,18,Jits_Linear_8,23,9999,9999,9999,1755788348
95,18,18,Jits_Linear_8,24,9999,9999,9999,1756568696
95,18,18,Jits_Linear_8,25,9999,9999,9999,1757338704
95,18,18,Jits_Linear_8,26,9999,9999,9999,1758108732
95,18,18,Jits_Linear_8,27,9999,9999,9999,1758878832
95,18,18,Jits_Linear_8,28,9999,9999,9999,1759648856
95,18,18,Jits_Linear_8,29,9999,9999,9999,1760418912
95,18,18,Jits_Linear_8,30,9999,9999,9999,1761178744
95,18,18,Jits_Linear_8,31,9999,9999,9999,1761938488
95,18,18,Jits_Linear_8,32,9999,9999,9999,1762698324
95,18,18,Jits_Linear_8,33,9999,9999,9999,1763458152
95,18,18,Jits_Linear_8,34,9999,9999,9999,1764218960
95,18,18,Jits_Linear_8,35,9999,9999,9999,1764968540
95,18,18,Jits_Linear_8,36,9999,9999,9999,1765718104
95,18,18,Jits_Linear_8,37,9999,9999,9999,1766468724
95,18,18,Jits_Linear_8,38,9999,9999,9999,1767218296
95,18,18,Jits_Linear_8,39,9999,9999,9999,1767968844
95,18,18,Jits_Linear_8,40,9999,9999,9999,1768708208
95,18,18,Jits_Linear_8,41,9999,9999,9999,1769448564
95,18,18,Jits_Linear_8,42,9999,9999,9999,1770188876
95,18,18,Jits_Linear_8,43,9999,9999,9999,1770928248
95,18,18,Jits_Linear_8,44,9999,9999,9999,1771668572
95,18,18,Jits_Linear_8,45,9999,9999,9999,1772398656
95,18,18,Jits_Linear_8,46,9999,9999,9999,1773128824
95,18,18,Jits_Linear_8,47,9999,9999,9999,1773858912
95,18,18,Jits_Linear_8,48,9999,9999,9999,1774589052
95,18,18,Jits_Linear_8,49,9999,9999,9999,1775318096
95,18,18,Jits_Linear_8,50,9999,9999,9999,1776039032
95,18,18,Jits_Linear_8,51,9999,9999,9999,1776758860
95,18,18,Jits_Linear_8,52,9999,9999,9999,1777478716
95,18,18,Jits_Linear_8,53,9999,9999,9999,1778198640
95,18,18,Jits_Linear_8,54,9999,9999,9999,1778918496
95,18,18,Jits_Linear_8,55,9999,9999,9999,1779628140
95,18,18,Jits_Linear_8,56,9999,9999,9999,1780338812
95,18,18,Jits_Linear_8,57,9999,9999,9999,1781048380
95,18,18,Jits_Linear_8,58,9999,9999,9999,1781759044
95,18,18,Jits_Linear_8,59,9999,9999,9999,1782468684
95,18,18,Jits_Linear_8,60,9999,9999,9999,1783168124
95,18,18,Jits_Linear_8,61,9999,9999,9999,1783868476
95,18,18,Jits_Linear_8,62,9999,9999,9999,1784568952
95,18,18,Jits_Linear_8,63,9999,9999,9999,1785268304
95,18,18,Jits_Linear_8,64,9999,9999,9999,1785968736
95,18,18,Jits_Linear_8,65,9999,9999,9999,1786658888
95,18,18,Jits_Linear_8,66,9999,9999,9999,1787349104
95,18,18,Jits_Linear_8,67,9999,9999,9999,1788038212
95,18,18,Jits_Linear_8,68,9999,9999,9999,1788728436
95,18,18,Jits_Linear_8,69,9999,9999,9999,1789418576
95,18,18,Jits_Linear_8,70,9999,9999,9999,1790098540
95,18,18,Jits_Linear_8,71,9999,9999,9999,1790778432
95,18,18,Jits_Linear_8,72,9999,9999,9999,1791458364
95,18,18,Jits_Linear_8,73,9999,9999,9999,1792138336
95,18,18,Jits_Linear_8,74,9999,9999,9999,1792818244
95,18,18,Jits_Linear_8,75,9999,9999,9999,1793488964
95,18,18,Jits_Linear_8,76,9999,9999,9999,1794158668
95,18,18,Jits_Linear_8,77,9999,9999,9999,1794828352
95,18,18,Jits_Linear_8,78,9999,9999,9999,1795499100
95,18,18,Jits_Linear_8,79,9999,9999,9999,1796179068
95,18,18,Jits_Linear_8,80,9999,9999,9999,1796838488
95,18,18,Jits_Linear_8,81,9999,9999,9999,1797498964
95,18,18,Jits_Linear_8,82,9999,9999,9999,1798158448
95,18,18,Jits_Linear_8,83,9999,9999,9999,1798818916
95,18,18,Jits_Linear_8,84,9999,9999,9999,1799478356
95,18,18,Jits_Linear_8,85,9999,9999,9999,1800128636
95,18,18,Jits_Linear_8,86,9999,9999,9999,1800778868
95,18,18,Jits_Linear_8,87,9999,9999,9999,1801429056
95,18,18,Jits_Linear_8,88,9999,9999,9999,1802078292
95,18,18,Jits_Linear_8,89,9999,9999,9999,1802728564
95,18,18,Jits_Linear_8,90,9999,9999,9999,1803368528
95,18,18,Jits_Linear_8,91,9999,9999,9999,1804008528
95,18,18,Jits_Linear_8,92,9999,9999,9999,1804648568
95,18,18,Jits_Linear_8,93,9999,9999,9999,1805288564
95,18,18,Jits_Linear_8,94,9999,9999,9999,1805928516
95,18,18,Jits_Linear_8,95,9999,9999,9999,1806558328
95,18,18,Jits_Linear_8,96,9999,9999,9999,1807189076
95,18,18,Jits_Linear_8,97,9999,9999,9999,1807818816
95,18,18,Jits_Linear_8,98,9999,9999,9999,1808448596
95,18,18,Jits_Linear_8,99,9999,9999,9999,1809078352
95,18,18,Jits_Linear_8,100,9999,9999,9999,1809698908
95,18,18,Jits_Linear_8,101,9999,9999,9999,1810318456
95,18,18,Jits_Linear_8,102,9999,9999,9999,1810938984
95,18,18,Jits_Linear_8,103,9999,9999,9999,1811558468
95,18,18,Jits_Linear_8,104,9999,9999,9999,1812179024
95,18,18,Jits_Linear_8,105,9999,9999,9999,1812788280
95,18,18,Jits_Linear_8,106,9999,9999,9999,1813398608
95,18,18,Jits_Linear_8,107,9999,9999,9999,1814008920
95,18,18,Jits_Linear_8,108,9999,9999,9999,1814618236
95,18,18,Jits_Linear_8,109,9999,9999,9999,1815228492
95,18,18,Jits_Linear_8,110,9999,9999,9999,1815828580
95,18,18,Jits_Linear_8,111,9999,9999,9999,1816428656
95,18,18,Jits_Linear_8,112,9999,9999,9999,1817028732
95,18,18,Jits_Linear_8,113,9999,9999,9999,1817628772
95,18,18,Jits_Linear_8,114,9999,9999,9999,1818228856
95,18,18,Jits_Linear_8,115,9999,9999,9999,1818818660
95,18,18,Jits_Linear_8,116,9999,9999,9999,1819408484
95,18,18,Jits_Linear_8,117,9999,9999,9999,1819998332
95,18,18,Jits_Linear_8,118,9999,9999,9999,1820588156
95,18,18,Jits_Linear_8,119,9999,9999,9999,1821178944
95,18,18,Jits_Linear_8,120,9999,9999,9999,1821758524
95,18,18,Jits_Linear_8,121,9999,9999,9999,1822338144
95,18,18,Jits_Linear_8,122,9999,9999,9999,1822918724
95,18,18,Jits_Linear_8,123,9999,9999,9999,1823498340
95,18,18,Jits_Linear_8,124,9999,9999,9999,1824078952
95,18,18,Jits_Linear_8,125,9999,9999,9999,1824648316
95,18,18,Jits_Linear_8,126,9999,9999,9999,1825218672
95,18,18,Jits_Linear_8,127,9999,9999,9999,1825789044
95,18,18,Jits_Linear_8,128,9999,9999,9999,1826358340
95,18,18,Jits_Linear_8,129,9999,9999,9999,1826928756
95,18,18,Jits_Linear_8,130,9999,9999,9999,1827488844
95,18,18,Jits_Linear_8,131,9999,9999,9999,1828048984
95,18,18,Jits_Linear_8,132,9999,9999,9999,1828608084
95,18,18,Jits_Linear_8,133,9999,9999,9999,1829168196
95,18,18,Jits_Linear_8,134,9999,9999,9999,1829728312
95,18,18,Jits_Linear_8,135,9999,9999,9999,1830278244
95,18,18,Jits_Linear_8,136,9999,9999,9999,1830828120
95,18,18,Jits_Linear_8,137,9999,9999,9999,1831379056
95,18,18,Jits_Linear_8,138,9999,9999,9999,1831928948
95,18,18,Jits_Linear_8,139,9999,9999,9999,1832478784
95,18,18,Jits_Linear_8,140,9999,9999,9999,1833018472
95,18,18,Jits_Linear_8,141,9999,9999,9999,1833558088
95,18,18,Jits_Linear_8,142,9999,9999,9999,1834098752
95,18,18,Jits_Linear_8,143,9999,9999,9999,1834638440
95,18,18,Jits_Linear_8,144,9999,9999,9999,1835179096
95,18,18,Jits_Linear_8,145,9999,9999,9999,1835718712
95,18,18,Jits_Linear_8,146,9999,9999,9999,1836248136
95,18,18,Jits_Linear_8,147,9999,9999,9999,1836778600
95,18,18,Jits_Linear_8,148,9999,9999,9999,1837308988
95,18,18,Jits_Linear_8,149,9999,9999,9999,1837838404
95,18,18,Jits_Linear_8,150,9999,9999,9999,1838358632
95,18,18,Jits_Linear_8,151,9999,9999,9999,1838878832
95,18,18,Jits_Linear_8,152,9999,9999,9999,1839398984
95,18,18,Jits_Linear_8,153,9999,9999,9999,1839918164
95,18,18,Jits_Linear_8,154,9999,9999,9999,1840438400
95,18,18,Jits_Linear_8,155,9999,9999,9999,1840948284
95,18,18,Jits_Linear_8,156,9999,9999,9999,1841458240
95,18,18,Jits_Linear_8,157,9999,9999,9999,1841968184
95,18,18,Jits_Linear_8,158,9999,9999,9999,1842478144
95,18,18,Jits_Linear_8,159,9999,9999,9999,1842988100
95,18,18,Jits_Linear_8,160,9999,9999,9999,1843488844
95,18,18,Jits_Linear_8,161,9999,9999,9999,1843988604
95,18,18,Jits_Linear_8,162,9999,9999,9999,1844488272
95,18,18,Jits_Linear_8,163,9999,9999,9999,1844988996
95,18,18,Jits_Linear_8,164,9999,9999,9999,1845488744
95,18,18,Jits_Linear_8,165,9999,9999,9999,1845978236
95,18,18,Jits_Linear_8,166,9999,9999,9999,1846468712
95,18,18,Jits_Linear_8,167,9999,9999,9999,1846958200
95,18,18,Jits_Linear_8,168,9999,9999,9999,1847448692
95,18,18,Jits_Linear_8,169,9999,9999,9999,1847938120
95,19,19,Jits_Linear_5,0,5,56,103,1856058796
95,19,19,Jits_Linear_5,1,5,63,98,1856061972
95,19,19,Jits_Linear_5,2,5,80,127,1856064944
95,19,19,Jits_Linear_5,0,5,56,103,1856539032
95,19,19,Jits_Linear_5,1,5,63,98,1856541980
95,19,19,Jits_Linear_5,2,5,80,127,1856545104
95,19,19,Jits_Linear_5,0,5,56,103,1857019112
95,19,19,Jits_Linear_5,1,5,80,127,1857028556
95,19,19,Jits_Linear_5,2,5,63,98,1857049044
95,19,19,Jits_Linear_5,0,5,63,98,1857449320
95,19,19,Jits_Linear_5,1,5,80,127,1857478996
95,19,19,Jits_Linear_5,2,1,48,29,1857487824
95,19,19,Jits_Linear_5,3,5,56,103,1857489184
95,19,19,Jits_Linear_5,0,1,48,37,1857930764
95,19,19,Jits_Linear_5,1,5,80,127,1857988856
95,19,19,Jits_Linear_5,2,5,56,103,1857999128
95,19,19,Jits_Linear_5,3,5,63,98,1858028936
95,19,19,Jits_Linear_5,0,1,48,28,1858437284
95,19,19,Jits_Linear_5,1,5,63,98,1858469592
95,19,19,Jits_Linear_5,2,5,56,103,1858498896
95,19,19,Jits_Linear_5,3,5,80,127,1858509092
95,19,19,Jits_Linear_5,0,5,56,103,1858908604
95,19,19,Jits_Linear_5,1,1,48,29,1858926248
95,19,19,Jits_Linear_5,2,5,63,98,1858958652
95,19,19,Jits_Linear_5,3,5,80,127,1858979260
95,19,19,Jits_Linear_5,0,1,48,27,1859394252
95,19,19,Jits_Linear_5,1,5,80,127,1859399084
95,19,19,Jits_Linear_5,2,5,63,98,1859449288
95,19,19,Jits_Linear_5,3,5,56,103,1859489284
95,19,19,Jits_Linear_5,0,5,56,103,1859888736
95,19,19,Jits_Linear_5,1,1,48,37,1859917496
95,19,19,Jits_Linear_5,2,5,63,98,1859919160
95,19,19,Jits_Linear_5,3,5,80,127,1859988916
95,19,19,Jits_Linear_5,0,5,56,103,1860378852
95,19,19,Jits_Linear_5,1,1,48,28,1860400028
95,19,19,Jits_Linear_5,2,5,80,127,1860439612
95,19,19,Jits_Linear_5,3,5,63,98,1860469064
95,19,19,Jits_Linear_5,0,5,56,103,1860878756
95,19,19,Jits_Linear_5,1,5,63,98,1860888828
95,19,19,Jits_Linear_5,2,1,48,24,1860889796
95,19,19,Jits_Linear_5,3,5,80,127,1860928908
95,19,19,Jits_Linear_5,0,1,48,26,1861369092
95,19,19,Jits_Linear_5,1,5,63,98,1861370576
95,19,19,Jits_Linear_5,2,5,80,127,1861449132
95,19,19,Jits_Linear_5,3,5,56,103,1861459552
95,19,19,Jits_Linear_5,0,1,48,25,1861893244
95,19,19,Jits_Linear_5,1,5,63,98,1861918996
95,19,19,Jits_Linear_5,2,5,56,103,1861959012
95,19,19,Jits_Linear_5,3,5,80,127,1861962228
95,19,19,Jits_Linear_5,0,1,48,31,1862376428
95,19,19,Jits_Linear_5,1,5,56,103,1862378792
95,19,19,Jits_Linear_5,2,5,63,98,1862388988
95,19,19,Jits_Linear_5,3,5,80,127,1862429028
95,19,19,Jits_Linear_5,0,5,56,103,1862869408
95,19,19,Jits_Linear_5,1,5,63,98,1862872400
95,19,19,Jits_Linear_5,2,5,80,127,1862888820
95,19,19,Jits_Linear_5,3,1,48,19,1862903548
95,19,19,Jits_Linear_5,0,1,48,19,1863375720
95,19,19,Jits_Linear_5,1,5,80,127,1863388720
95,19,19,Jits_Linear_5,2,5,56,103,1863398696
95,19,19,Jits_Linear_5,3,5,63,98,1863469732
95,19,19,Jits_Linear_5,0,5,63,98,1863889312
95,19,19,Jits_Linear_5,1,1,48,23,1863895500
95,19,19,Jits_Linear_5,2,5,56,103,1863908572
95,19,19,Jits_Linear_5,3,5,80,127,1863989124
95,19,19,Jits_Linear_5,0,1,48,27,1864374724
95,19,19,Jits_Linear_5,1,5,56,103,1864408624
95,19,19,Jits_Linear_5,2,5,80,127,1864449464
95,19,19,Jits_Linear_5,3,5,63,98,1864458536
95,19,19,Jits_Linear_5,0,1,48,21,1864899596
95,19,19,Jits_Linear_5,1,5,80,127,1864909280
95,19,19,Jits_Linear_5,2,5,63,98,1864938808
95,19,19,Jits_Linear_5,3,5,56,103,1864979072
95,19,19,Jits_Linear_5,0,1,48,23,1865435532
95,19,19,Jits_Linear_5,1,5,56,103,1865438712
95,19,19,Jits_Linear_5,2,5,63,98,1865469588
95,19,19,Jits_Linear_5,3,5,80,127,1865518620
95,19,19,Jits_Linear_5,0,1,48,23,1865912752
95,19,19,Jits_Linear_5,1,5,80,127,1865948672
95,19,19,Jits_Linear_5,2,5,56,103,1865988612
95,19,19,Jits_Linear_5,3,5,63,98,1865998660
95,19,19,Jits_Linear_5,0,1,48,24,1866437548
95,19,19,Jits_Linear_5,1,5,80,127,1866449408
95,19,19,Jits_Linear_5,2,5,63,98,1866489348
95,19,19,Jits_Linear_5,3,5,56,103,1866548700
95,19,19,Jits_Linear_5,0,1,48,28,1866953036
95,19,19,Jits_Linear_5,1,5,56,103,1866968576
95,19,19,Jits_Linear_5,2,5,80,127,1866978696
95,19,19,Jits_Linear_5,3,5,63,98,1867058652
95,19,19,Jits_Linear_5,0,5,80,127,1867488564
95,19,19,Jits_Linear_5,1,1,48,24,1867492956
95,19,19,Jits_Linear_5,2,5,63,98,1867548904
95,19,19,Jits_Linear_5,3,5,56,103,1867578876
95,19,19,Jits_Linear_5,0,5,56,103,1868008944
95,19,19,Jits_Linear_5,1,1,48,20,1868026516
95,19,19,Jits_Linear_5,2,5,80,127,1868069428
95,19,19,Jits_Linear_5,3,5,63,98,1868109444
95,19,19,Jits_Linear_5,0,1,48,33,1868555056
95,19,19,Jits_Linear_5,1,5,56,103,1868589432
95,19,19,Jits_Linear_5,2,5,63,98,1868598500
95,19,19,Jits_Linear_5,3,5,80,127,1868601872
95,19,19,Jits_Linear_5,0,5,80,127,1869068564
95,19,19,Jits_Linear_5,1,1,48,35,1869135684
95,19,19,Jits_Linear_5,2,5,63,98,1869158720
95,19,19,Jits_Linear_5,3,5,56,103,1869168992
95,19,19,Jits_Linear_5,0,5,56,103,1869599220
95,19,19,Jits_Linear_5,1,5,63,98,1869602544
95,19,19,Jits_Linear_5,2,5,80,127,1869605512
95,19,19,Jits_Linear_5,3,1,48,26,1869621384
95,19,19,Jits_Linear_5,0,1,48,31,1870079968
95,19,19,Jits_Linear_5,1,5,80,127,1870148880
95,19,19,Jits_Linear_5,2,5,63,98,1870199072
95,19,19,Jits_Linear_5,3,5,56,103,1870228896
95,19,19,Jits_Linear_5,0,5,56,103,1870658916
95,19,19,Jits_Linear_5,1,5,80,127,1870669264
95,19,19,Jits_Linear_5,2,1,48,20,1870671128
95,19,19,Jits_Linear_5,3,5,63,98,1870738936
95,19,19,Jits_Linear_5,0,1,48,29,1871179040
95,19,19,Jits_Linear_5,1,5,56,103,1871198620
95,19,19,Jits_Linear_5,2,5,63,98,1871219004
95,19,19,Jits_Linear_5,3,5,80,127,1871278632
95,19,19,Jits_Linear_5,0,1,48,26,1871690260
95,19,19,Jits_Linear_5,1,5,80,127,1871729024
95,19,19,Jits_Linear_5,2,5,63,98,1871798620
95,19,19,Jits_Linear_5,3,5,56,103,1871819080
95,19,19,Jits_Linear_5,0,5,80,127,1872289108
95,19,19,Jits_Linear_5,1,5,56,103,1872299676
95,19,19,Jits_Linear_5,2,5,63,98,1872308528
95,19,19,Jits_Linear_5,0,1,48,31,1872771272
95,19,19,Jits_Linear_5,1,5,80,127,1872818652
95,19,19,Jits_Linear_5,2,5,56,103,1872839036
95,19,19,Jits_Linear_5,3,5,63,98,1872908632
95,19,19,Jits_Linear_5,0,1,48,33,1873334340
95,19,19,Jits_Linear_5,1,5,56,103,1873368536
95,19,19,Jits_Linear_5,2,5,80,127,1873399036
95,19,19,Jits_Linear_5,3,1,48,19,1873407096
95,19,19,Jits_Linear_5,4,5,63,98,1873418652
95,19,19,Jits_Linear_5,0,1,48,35,1873854448
95,19,19,Jits_Linear_5,1,5,63,98,1873908956
95,19,19,Jits_Linear_5,2,5,56,103,1873968612
95,19,19,Jits_Linear_5,3,5,80,127,1873999332
95,19,19,Jits_Linear_5,0,1,48,30,1874364480
95,19,19,Jits_Linear_5,1,5,63,98,1874448728
95,19,19,Jits_Linear_5,2,5,80,127,1874452192
95,19,19,Jits_Linear_5,3,5,56,103,1874538720
95,19,19,Jits_Linear_5,0,1,48,28,1874921848
95,19,19,Jits_Linear_5,1,5,56,103,1875018988
95,19,19,Jits_Linear_5,2,5,63,98,1875048744
95,19,19,Jits_Linear_5,3,5,80,127,1875088680
95,19,19,Jits_Linear_5,0,1,48,28,1875539792
95,19,19,Jits_Linear_5,1,5,63,98,1875569040
95,19,19,Jits_Linear_5,2,5,56,103,1875608908
95,19,19,Jits_Linear_5,3,5,80,127,1875629368
95,19,19,Jits_Linear_5,0,1,48,29,1876090132
95,19,19,Jits_Linear_5,1,5,63,98,1876129264
95,19,19,Jits_Linear_5,2,5,56,103,1876169428
95,19,19,Jits_Linear_5,3,5,80,127,1876179700
95,19,19,Jits_Linear_5,0,1,48,27,1876640392
95,19,19,Jits_Linear_5,1,5,80,127,1876658624
95,19,19,Jits_Linear_5,2,5,63,98,1876729428
95,19,19,Jits_Linear_5,3,5,56,103,1876748604
95,19,19,Jits_Linear_5,0,1,48,30,1877204428
95,19,19,Jits_Linear_5,1,5,56,103,1877208656
95,19,19,Jits_Linear_5,2,5,80,127,1877228968
95,19,19,Jits_Linear_5,3,5,63,98,1877268708
95,19,19,Jits_Linear_5,0,1,48,37,1877762556
95,19,19,Jits_Linear_5,1,5,63,98,1877778792
95,19,19,Jits_Linear_5,2,5,80,127,1877799476
95,19,19,Jits_Linear_5,3,5,56,103,1877839340
95,19,19,Jits_Linear_5,0,5,63,98,1878338872
95,19,19,Jits_Linear_5,1,5,56,103,1878359556
95,19,19,Jits_Linear_5,2,1,48,29,1878362752
95,19,19,Jits_Linear_5,3,5,80,127,1878368548
95,19,19,Jits_Linear_5,0,1,48,25,1878883996
95,19,19,Jits_Linear_5,1,5,80,127,1878899088
95,19,19,Jits_Linear_5,2,5,56,103,1878918500
95,19,19,Jits_Linear_5,3,5,63,98,1878949300
95,19,19,Jits_Linear_5,0,1,48,32,1879428348
95,19,19,Jits_Linear_5,1,5,56,103,1879539016
95,19,19,Jits_Linear_5,2,5,80,127,1879542012
95,19,19,Jits_Linear_5,3,5,63,98,1879558580
95,19,19,Jits_Linear_5,0,5,63,98,1880028460
95,19,19,Jits_Linear_5,1,5,56,103,1880059552
95,19,19,Jits_Linear_5,2,1,48,27,1880079836
95,19,19,Jits_Linear_5,3,5,80,127,1880118620
95,19,19,Jits_Linear_5,0,1,48,31,1880641044
95,19,19,Jits_Linear_5,1,5,63,98,1880678760
95,19,19,Jits_Linear_5,2,5,56,103,1880689104
95,19,19,Jits_Linear_5,3,5,80,127,1880699448
95,19,19,Jits_Linear_5,0,5,56,103,1881198832
95,19,19,Jits_Linear_5,1,5,80,127,1881228584
95,19,19,Jits_Linear_5,2,5,63,98,1881238784
95,19,19,Jits_Linear_5,3,1,48,19,1881255156
95,19,19,Jits_Linear_5,0,5,63,98,1881809424
95,19,19,Jits_Linear_5,1,5,56,103,1881818572
95,19,19,Jits_Linear_5,2,1,48,15,1881834800
95,19,19,Jits_Linear_5,3,5,80,127,1881838952
95,19,19,Jits_Linear_5,0,5,56,103,1882309264
95,19,19,Jits_Linear_5,1,1,48,31,1882354112
95,19,19,Jits_Linear_5,2,5,63,98,1882369576
95,19,19,Jits_Linear_5,3,5,80,127,1882372864
95,19,19,Jits_Linear_5,4,1,48,17,1882430096
95,19,19,Jits_Linear_5,0,5,80,127,1882908904
95,19,19,Jits_Linear_5,1,5,56,103,1882919396
95,19,19,Jits_Linear_5,2,1,48,27,1882938408
95,19,19,Jits_Linear_5,3,5,63,98,1882989000
95,19,19,Jits_Linear_5,0,5,80,127,1883479404
95,19,19,Jits_Linear_5,1,1,48,28,1883511072
95,19,19,Jits_Linear_5,2,5,56,103,1883549008
95,19,19,Jits_Linear_5,3,5,63,98,1883559576
95,19,19,Jits_Linear_5,0,1,48,27,1884078576
95,19,19,Jits_Linear_5,1,5,63,98,1884099056
95,19,19,Jits_Linear_5,2,5,56,103,1884109252
95,19,19,Jits_Linear_5,3,5,80,127,1884128516
95,19,19,Jits_Linear_5,0,1,48,23,1884613172
95,19,19,Jits_Linear_5,1,5,80,127,1884629536
95,19,19,Jits_Linear_5,2,5,63,98,1884688732
95,19,19,Jits_Linear_5,3,5,56,103,1884728608
95,19,19,Jits_Linear_5,0,1,48,23,1885195496
95,19,19,Jits_Linear_5,1,5,56,103,1885259312
95,19,19,Jits_Linear_5,2,5,63,98,1885269436
95,19,19,Jits_Linear_5,3,5,80,127,1885309512
95,19,19,Jits_Linear_5,0,1,48,27,1885785192
95,19,19,Jits_Linear_5,1,5,56,103,1885808976
95,19,19,Jits_Linear_5,2,5,80,127,1885838656
95,19,19,Jits_Linear_5,3,5,63,98,1885888916
95,19,19,Jits_Linear_5,0,1,48,21,1886403040
95,19,19,Jits_Linear_5,1,5,56,103,1886438808
95,19,19,Jits_Linear_5,2,5,63,98,1886478592
95,19,19,Jits_Linear_5,3,5,80,127,1886482064
95,19,19,Jits_Linear_5,0,1,48,26,1886937192
95,19,19,Jits_Linear_5,1,5,56,103,1887028496
95,19,19,Jits_Linear_5,2,5,63,98,1887038900
95,19,19,Jits_Linear_5,3,5,80,127,1887059508
95,19,19,Jits_Linear_5,0,1,48,24,1887575944
95,19,19,Jits_Linear_5,1,5,56,103,1887578600
95,19,19,Jits_Linear_5,2,5,80,127,1887581668
95,19,19,Jits_Linear_5,3,5,63,98,1887618540
95,19,19,Jits_Linear_5,0,1,48,28,1888144248
95,19,19,Jits_Linear_5,1,5,63,98,1888209388
95,19,19,Jits_Linear_5,2,5,56,103,1888238920
95,19,19,Jits_Linear_5,3,5,80,127,1888258464
95,19,19,Jits_Linear_5,0,1,48,27,1888726364
95,19,19,Jits_Linear_5,1,5,80,127,1888778680
95,19,19,Jits_Linear_5,2,5,56,103,1888788756
95,19,19,Jits_Linear_5,3,5,63,98,1888799024
95,19,19,Jits_Linear_5,0,1,48,24,1889351936
95,19,19,Jits_Linear_5,1,5,56,103,1889378708
95,19,19,Jits_Linear_5,2,5,80,127,1889418724
95,19,19,Jits_Linear_5,3,5,63,98,1889449508
95,19,19,Jits_Linear_5,0,5,63,98,1889989060
95,19,19,Jits_Linear_5,1,1,48,19,1889993828
95,19,19,Jits_Linear_5,2,5,80,127,1889999472
95,19,19,Jits_Linear_5,3,5,56,103,1890008400
95,19,19,Jits_Linear_5,0,1,48,26,1890555748
95,19,19,Jits_Linear_5,1,5,56,103,1890568524
95,19,19,Jits_Linear_5,2,5,63,98,1890639428
95,19,19,Jits_Linear_5,3,5,80,127,1890648340
95,19,19,Jits_Linear_5,0,5,80,127,1891178752
95,19,19,Jits_Linear_5,1,5,56,103,1891189396
95,19,19,Jits_Linear_5,2,1,48,23,1891193340
95,19,19,Jits_Linear_5,3,5,63,98,1891239292
95,19,19,Jits_Linear_5,0,1,48,23,1891776252
95,19,19,Jits_Linear_5,1,5,80,127,1891799368
95,19,19,Jits_Linear_5,2,5,56,103,1891858812
95,19,19,Jits_Linear_5,3,5,63,98,1891888400
95,19,19,Jits_Linear_5,0,1,48,25,1892378848
95,19,19,Jits_Linear_5,1,5,56,103,1892408688
95,19,19,Jits_Linear_5,2,5,80,127,1892411684
95,19,19,Jits_Linear_5,3,5,63,98,1892448556
95,19,19,Jits_Linear_5,0,1,48,26,1892961152
95,19,19,Jits_Linear_5,1,5,56,103,1893048544
95,19,19,Jits_Linear_5,2,5,63,98,1893079480
95,19,19,Jits_Linear_5,3,5,80,127,1893088628
95,19,19,Jits_Linear_5,0,1,48,29,1893599532
95,19,19,Jits_Linear_5,1,5,63,98,1893669184
95,19,19,Jits_Linear_5,2,5,80,127,1893678408
95,19,19,Jits_Linear_5,3,5,56,103,1893688676
95,19,19,Jits_Linear_5,0,5,80,127,1894229264
95,19,19,Jits_Linear_5,1,1,48,27,1894241000
95,19,19,Jits_Linear_5,2,5,56,103,1894278488
95,19,19,Jits_Linear_5,3,5,63,98,1894281632
95,19,19,Jits_Linear_5,0,1,48,27,1894867384
95,19,19,Jits_Linear_5,1,5,56,103,1894878644
95,19,19,Jits_Linear_5,2,5,80,127,1894899252
95,19,19,Jits_Linear_5,3,5,63,98,1894909152
95,19,19,Jits_Linear_5,0,1,48,28,1895461488
95,19,19,Jits_Linear_5,1,5,63,98,1895478672
95,19,19,Jits_Linear_5,2,5,56,103,1895509472
95,19,19,Jits_Linear_5,3,5,80,127,1895528808
95,19,19,Jits_Linear_5,0,1,48,33,1896099404
95,19,19,Jits_Linear_5,1,5,56,103,1896109544
95,19,19,Jits_Linear_5,2,5,80,127,1896118692
95,19,19,Jits_Linear_5,3,5,63,98,1896189420
95,19,19,Jits_Linear_5,0,1,48,33,1896672884
95,19,19,Jits_Linear_5,1,5,63,98,1896718768
95,19,19,Jits_Linear_5,2,5,80,127,1896758780
95,19,19,Jits_Linear_5,3,5,56,103,1896798556
95,19,19,Jits_Linear_5,0,1,48,26,1897294684
95,19,19,Jits_Linear_5,1,5,56,103,1897358708
95,19,19,Jits_Linear_5,2,5,63,98,1897369052
95,19,19,Jits_Linear_5,3,5,80,127,1897389364
95,19,19,Jits_Linear_5,0,1,48,28,1897935372
95,19,19,Jits_Linear_5,1,5,63,98,1898029464
95,19,19,Jits_Linear_5,2,5,80,127,1898048788
95,19,19,Jits_Linear_5,3,5,56,103,1898069468
95,19,19,Jits_Linear_5,0,1,48,34,1898557748
95,19,19,Jits_Linear_5,1,5,56,103,1898598752
95,19,19,Jits_Linear_5,2,5,80,127,1898678612
95,19,19,Jits_Linear_5,3,5,63,98,1898689108
95,19,19,Jits_Linear_5,0,1,48,28,1899238676
95,19,19,Jits_Linear_5,1,5,80,127,1899268368
95,19,19,Jits_Linear_5,2,5,63,98,1899278640
95,19,19,Jits_Linear_5,3,5,56,103,1899309364
95,19,19,Jits_Linear_5,0,1,48,33,1899855152
95,19,19,Jits_Linear_5,1,5,63,98,1899859456
95,19,19,Jits_Linear_5,2,5,80,127,1899899324
95,19,19,Jits_Linear_5,3,5,56,103,1899958504
95,19,19,Jits_Linear_5,0,5,63,98,1900499180
95,19,19,Jits_Linear_5,1,1,48,27,1900528156
95,19,19,Jits_Linear_5,2,5,56,103,1900548332
95,19,19,Jits_Linear_5,3,5,80,127,1900579380
95,19,19,Jits_Linear_5,0,1,48,36,1901112216
95,19,19,Jits_Linear_5,1,5,80,127,1901148584
95,19,19,Jits_Linear_5,2,5,63,98,1901158856
95,19,19,Jits_Linear_5,3,5,56,103,1901229496
95,19,19,Jits_Linear_5,0,1,48,27,1901792544
95,19,19,Jits_Linear_5,1,5,80,127,1901859052
95,19,19,Jits_Linear_5,2,5,56,103,1901869548
95,19,19,Jits_Linear_5,3,5,63,98,1901872612
95,19,19,Jits_Linear_5,0,1,48,34,1902428908
95,19,19,Jits_Linear_5,1,5,56,103,1902438676
95,19,19,Jits_Linear_5,2,5,80,127,1902459212
95,19,19,Jits_Linear_5,3,5,63,98,1902468584
95,19,19,Jits_Linear_5,0,1,48,32,1903083376
95,19,19,Jits_Linear_5,1,5,63,98,1903089176
95,19,19,Jits_Linear_5,2,5,56,103,1903128996
95,19,19,Jits_Linear_5,3,5,80,127,1903149380
95,19,19,Jits_Linear_5,0,1,48,27,1903680272
95,19,19,Jits_Linear_5,1,5,63,98,1903739192
95,19,19,Jits_Linear_5,2,5,56,103,1903798748
95,19,19,Jits_Linear_5,3,5,80,127,1903801740
95,19,19,Jits_Linear_5,0,1,48,29,1904320660
95,19,19,Jits_Linear_5,1,5,56,103,1904348480
95,19,19,Jits_Linear_5,2,5,80,127,1904369092
95,19,19,Jits_Linear_5,3,5,63,98,1904409128
95,19,19,Jits_Linear_5,0,1,48,34,1904989244
95,19,19,Jits_Linear_5,1,5,56,103,1905028376
95,19,19,Jits_Linear_5,2,5,63,98,1905049136
95,19,19,Jits_Linear_5,3,5,80,127,1905059180
95,19,19,Jits_Linear_5,0,1,48,27,1905554316
95,19,19,Jits_Linear_5,1,5,80,127,1905649280
95,19,19,Jits_Linear_5,2,5,56,103,1905678720
95,19,19,Jits_Linear_5,3,5,63,98,1905718732
95,19,19,Jits_Linear_5,0,1,48,32,1906207756
95,19,19,Jits_Linear_5,1,5,80,127,1906308612
95,19,19,Jits_Linear_5,2,5,56,103,1906328920
95,19,19,Jits_Linear_5,3,5,63,98,1906389312
95,19,19,Jits_Linear_5,0,1,48,20,1906880352
95,19,19,Jits_Linear_5,1,5,56,103,1906969120
95,19,19,Jits_Linear_5,2,5,80,127,1906989416
95,19,19,Jits_Linear_5,3,5,63,98,1907048684
95,19,19,Jits_Linear_5,0,1,48,23,1907550812
95,19,19,Jits_Linear_5,1,5,80,127,1907609128
95,19,19,Jits_Linear_5,2,5,56,103,1907619104
95,19,19,Jits_Linear_5,3,5,63,98,1907659252
95,19,19,Jits_Linear_5,0,1,48,32,1908190144
95,19,19,Jits_Linear_5,1,5,63,98,1908269468
95,19,19,Jits_Linear_5,2,5,56,103,1908309392
95,19,19,Jits_Linear_5,3,5,80,127,1908312460
95,19,19,Jits_Linear_5,0,1,48,32,1908825592
95,19,19,Jits_Linear_5,1,5,63,98,1908949240
95,19,19,Jits_Linear_5,2,5,80,127,1908989256
95,19,19,Jits_Linear_5,3,5,56,103,1909019108
95,19,19,Jits_Linear_5,0,1,48,22,1909528960
95,19,19,Jits_Linear_5,1,5,56,103,1909598588
95,19,19,Jits_Linear_5,2,5,63,98,1909609232
95,19,19,Jits_Linear_5,3,5,80,127,1909638520
95,19,19,Jits_Linear_5,0,1,48,29,1910140864
95,19,19,Jits_Linear_5,1,5,80,127,1910259112
95,19,19,Jits_Linear_5,2,5,63,98,1910328672
95,19,19,Jits_Linear_5,3,5,56,103,1910339016
95,19,19,Jits_Linear_5,0,1,48,27,1910807060
95,19,19,Jits_Linear_5,1,5,63,98,1910928748
95,19,19,Jits_Linear_5,2,5,56,103,1910999404
95,19,19,Jits_Linear_5,3,5,80,127,1911008552
95,19,19,Jits_Linear_5,0,1,48,21,1911554200
95,19,19,Jits_Linear_5,1,5,63,98,1911598388
95,19,19,Jits_Linear_5,2,5,56,103,1911619072
95,19,19,Jits_Linear_5,3,5,80,127,1911659144
95,19,19,Jits_Linear_5,0,1,48,26,1912189668
95,19,19,Jits_Linear_5,1,5,56,103,1912279456
95,19,19,Jits_Linear_5,2,5,63,98,1912288664
95,19,19,Jits_Linear_5,3,5,80,127,1912368556
95,19,19,Jits_Linear_5,0,1,48,21,1912851884
95,19,19,Jits_Linear_5,1,5,63,98,1912938976
95,19,19,Jits_Linear_5,2,5,56,103,1912968412
95,19,19,Jits_Linear_5,3,5,80,127,1913008352
95,19,19,Jits_Linear_5,0,1,48,29,1913472192
95,19,19,Jits_Linear_5,1,5,56,103,1913608416
95,19,19,Jits_Linear_5,2,5,63,98,1913648384
95,19,19,Jits_Linear_5,3,5,80,127,1913688396
95,19,19,Jits_Linear_5,0,1,48,33,1914152832
95,19,19,Jits_Linear_5,1,5,80,127,1914288392
95,19,19,Jits_Linear_5,2,5,56,103,1914369388
95,19,19,Jits_Linear_5,3,5,63,98,1914378536
95,19,19,Jits_Linear_5,0,1,48,31,1914866412
95,19,19,Jits_Linear_5,1,5,56,103,1915009348
95,19,19,Jits_Linear_5,2,5,63,98,1915012416
95,19,19,Jits_Linear_5,3,5,80,127,1915018568
95,19,19,Jits_Linear_5,0,1,48,23,1915561524
95,19,19,Jits_Linear_5,1,5,56,103,1915708864
95,19,19,Jits_Linear_5,2,5,63,98,1915729176
95,19,19,Jits_Linear_5,3,5,80,127,1915738548
95,19,19,Jits_Linear_5,0,1,48,27,1916222768
95,19,19,Jits_Linear_5,1,5,63,98,1916348880
95,19,19,Jits_Linear_5,2,5,80,127,1916359152
95,19,19,Jits_Linear_5,3,5,56,103,1916378416
95,19,19,Jits_Linear_5,0,1,48,26,1916882484
95,19,19,Jits_Linear_5,1,5,63,98,1917039044
95,19,19,Jits_Linear_5,2,5,56,103,1917118988
95,19,19,Jits_Linear_5,3,5,80,127,1917122060
95,19,19,Jits_Linear_5,0,1,48,29,1917572196
95,19,19,Jits_Linear_5,1,5,63,98,1917729200
95,19,19,Jits_Linear_5,2,5,56,103,1917748540
95,19,19,Jits_Linear_5,3,5,80,127,1917779264
95,19,19,Jits_Linear_5,0,1,48,20,1918235228
95,19,19,Jits_Linear_5,1,5,56,103,1918419264
95,19,19,Jits_Linear_5,2,5,63,98,1918439052
95,19,19,Jits_Linear_5,3,5,80,127,1918449096
95,19,19,Jits_Linear_5,0,1,48,21,1918887536
95,19,19,Jits_Linear_5,1,5,56,103,1919139244
95,19,19,Jits_Linear_5,2,5,63,98,1919169144
95,19,19,Jits_Linear_5,3,5,80,127,1919172436
95,19,19,Jits_Linear_5,0,1,48,24,1919546360
95,19,19,Jits_Linear_5,1,5,56,103,1919779132
95,19,19,Jits_Linear_5,2,5,63,98,1919819072
95,19,19,Jits_Linear_5,3,5,80,127,1919878492
95,19,19,Jits_Linear_5,0,1,48,27,1920212536
95,19,19,Jits_Linear_5,1,5,56,103,1920489048
95,19,19,Jits_Linear_5,2,5,63,98,1920499024
95,19,19,Jits_Linear_5,3,5,80,127,1920558544
95,19,19,Jits_Linear_5,4,1,48,26,1920820892
95,19,19,Jits_Linear_5,0,5,56,103,1921189168
95,19,19,Jits_Linear_5,1,5,80,127,1921208880
95,19,19,Jits_Linear_5,2,5,63,98,1921239452
95,19,19,Jits_Linear_5,0,1,48,21,1921585376
95,19,19,Jits_Linear_5,1,5,80,127,1921888568
95,19,19,Jits_Linear_5,2,5,56,103,1921898988
95,19,19,Jits_Linear_5,3,5,63,98,1921919372
95,19,19,Jits_Linear_5,4,1,48,20,1922233640
95,19,19,Jits_Linear_5,0,5,63,98,1922578944
95,19,19,Jits_Linear_5,1,5,80,127,1922658744
95,19,19,Jits_Linear_5,2,5,56,103,1922668864
95,19,19,Jits_Linear_5,0,1,48,17,1922973636
95,19,19,Jits_Linear_5,1,5,80,127,1923338544
95,19,19,Jits_Linear_5,2,5,56,103,1923359028
95,19,19,Jits_Linear_5,3,5,63,98,1923362244
95,19,19,Jits_Linear_5,0,1,48,17,1923737280
95,19,19,Jits_Linear_5,1,5,63,98,1924018508
95,19,19,Jits_Linear_5,2,5,80,127,1924022024
95,19,19,Jits_Linear_5,3,5,56,103,1924078972
95,19,19,Jits_Linear_5,0,1,48,18,1924453428
95,19,19,Jits_Linear_5,1,5,56,103,1924708812
95,19,19,Jits_Linear_5,2,5,80,127,1924719084
95,19,19,Jits_Linear_5,3,5,63,98,1924759172
95,19,19,Jits_Linear_5,0,1,48,19,1925148608
95,19,19,Jits_Linear_5,1,5,56,103,1925399048
95,19,19,Jits_Linear_5,2,5,63,98,1925459220
95,19,19,Jits_Linear_5,3,5,80,127,1925468592
95,19,19,Jits_Linear_5,0,1,48,19,1925841736
95,19,19,Jits_Linear_5,1,5,63,98,1926118924
95,19,19,Jits_Linear_5,2,5,80,127,1926158716
95,19,19,Jits_Linear_5,3,5,56,103,1926198828
95,19,19,Jits_Linear_5,0,5,56,103,1926829488
95,19,19,Jits_Linear_5,1,5,63,98,1926909436
95,19,19,Jits_Linear_5,2,5,80,127,1926912800
95,19,19,Jits_Linear_5,0,1,48,17,1927557352
95,19,19,Jits_Linear_5,1,5,80,127,1927598432
95,19,19,Jits_Linear_5,2,5,56,103,1927629300
95,19,19,Jits_Linear_5,3,5,63,98,1927632144
95,19,19,Jits_Linear_5,0,1,48,25,1928264876
95,19,19,Jits_Linear_5,1,5,56,103,1928279444
95,19,19,Jits_Linear_5,2,5,80,127,1928298780
95,19,19,Jits_Linear_5,3,5,63,98,1928338796
95,19,19,Jits_Linear_5,0,1,48,29,1928920848
95,19,19,Jits_Linear_5,1,5,80,127,1928978892
95,19,19,Jits_Linear_5,2,5,63,98,1928999280
95,19,19,Jits_Linear_5,3,5,56,103,1929058832
95,19,19,Jits_Linear_5,0,1,48,25,1929660908
95,19,19,Jits_Linear_5,1,5,63,98,1929708888
95,19,19,Jits_Linear_5,2,5,56,103,1929719008
95,19,19,Jits_Linear_5,3,5,80,127,1929769296
95,19,19,Jits_Linear_5,0,1,48,18,1930345360
95,19,19,Jits_Linear_5,1,5,56,103,1930418528
95,19,19,Jits_Linear_5,2,5,63,98,1930439136
95,19,19,Jits_Linear_5,3,5,80,127,1930449392
95,19,19,Jits_Linear_5,0,1,48,18,1931092020
95,19,19,Jits_Linear_5,1,5,56,103,1931138424
95,19,19,Jits_Linear_5,2,5,63,98,1931141420
95,19,19,Jits_Linear_5,3,5,80,127,1931158884
95,19,19,Jits_Linear_5,0,1,48,26,1931773816
95,19,19,Jits_Linear_5,1,5,63,98,1931908428
95,19,19,Jits_Linear_5,2,5,56,103,1931939152
95,19,19,Jits_Linear_5,3,5,80,127,1931968828
95,19,19,Jits_Linear_5,0,1,48,21,1932523848
95,19,19,Jits_Linear_5,1,5,80,127,1932598828
95,19,19,Jits_Linear_5,2,5,56,103,1932688948
95,19,19,Jits_Linear_5,3,5,63,98,1932692164
95,19,19,Jits_Linear_5,0,1,48,22,1933289900
95,19,19,Jits_Linear_5,1,5,56,103,1933328980
95,19,19,Jits_Linear_5,2,5,80,127,1933331904
95,19,19,Jits_Linear_5,3,5,63,98,1933408616
95,19,19,Jits_Linear_5,0,1,48,22,1933953220
95,19,19,Jits_Linear_5,1,5,80,127,1934058808
95,19,19,Jits_Linear_5,2,5,63,98,1934119300
95,19,19,Jits_Linear_5,3,5,56,103,1934148904
95,19,19,Jits_Linear_5,0,1,48,23,1934685560
95,19,19,Jits_Linear_5,1,5,63,98,1934789052
95,19,19,Jits_Linear_5,2,5,80,127,1934799248
95,19,19,Jits_Linear_5,3,5,56,103,1934868880
95,19,19,Jits_Linear_5,0,1,48,25,1935391380
95,19,19,Jits_Linear_5,1,5,56,103,1935538476
95,19,19,Jits_Linear_5,2,5,80,127,1935569124
95,19,19,Jits_Linear_5,3,5,63,98,1935618280
95,19,19,Jits_Linear_5,0,1,48,20,1936154284
95,19,19,Jits_Linear_5,1,5,63,98,1936318840
95,19,19,Jits_Linear_5,2,5,56,103,1936348664
95,19,19,Jits_Linear_5,3,5,80,127,1936351804
95,19,19,Jits_Linear_5,0,1,48,26,1936896796
95,19,19,Jits_Linear_5,1,5,63,98,1937059116
95,19,19,Jits_Linear_5,2,5,80,127,1937078824
95,19,19,Jits_Linear_5,3,5,56,103,1937089020
95,19,19,Jits_Linear_5,0,1,48,21,1937655496
95,19,19,Jits_Linear_5,1,5,56,103,1937808688
95,19,19,Jits_Linear_5,2,5,63,98,1937811832
95,19,19,Jits_Linear_5,3,5,80,127,1937829296
95,19,19,Jits_Linear_5,0,1,48,29,1938383940
95,19,19,Jits_Linear_5,1,5,56,103,1938509256
95,19,19,Jits_Linear_5,2,5,63,98,1938519304
95,19,19,Jits_Linear_5,3,5,80,127,1938549200
95,19,19,Jits_Linear_5,0,1,48,23,1939100544
95,19,19,Jits_Linear_5,1,5,63,98,1939279280
95,19,19,Jits_Linear_5,2,5,80,127,1939298620
95,19,19,Jits_Linear_5,3,5,56,103,1939338932
95,19,19,Jits_Linear_5,0,1,48,34,1939855956
95,19,19,Jits_Linear_5,1,5,56,103,1940058680
95,19,19,Jits_Linear_5,2,5,63,98,1940098544
95,19,19,Jits_Linear_5,3,5,80,127,1940101908
95,19,19,Jits_Linear_5,0,1,48,22,1940661884
95,19,19,Jits_Linear_5,1,5,80,127,1940748600
95,19,19,Jits_Linear_5,2,5,56,103,1940788552
95,19,19,Jits_Linear_5,3,5,63,98,1940838976
95,19,19,Jits_Linear_5,0,1,48,16,1941391380
95,19,19,Jits_Linear_5,1,5,56,103,1941558724
95,19,19,Jits_Linear_5,2,5,80,127,1941568920
95,19,19,Jits_Linear_5,3,5,63,98,1941598744
95,19,19,Jits_Linear_5,0,1,48,26,1942095092
95,19,19,Jits_Linear_5,1,5,56,103,1942258976
95,19,19,Jits_Linear_5,2,5,80,127,1942298940
95,19,19,Jits_Linear_5,3,5,63,98,1942349292
95,19,19,Jits_Linear_5,0,1,48,27,1942853956
95,19,19,Jits_Linear_5,1,5,56,103,1943018812
95,19,19,Jits_Linear_5,2,5,80,127,1943058780
95,19,19,Jits_Linear_5,3,5,63,98,1943108832
95,19,19,Jits_Linear_5,0,1,48,22,1943627740
95,19,19,Jits_Linear_5,1,5,80,127,1943768608
95,19,19,Jits_Linear_5,2,5,63,98,1943849404
95,19,19,Jits_Linear_5,3,5,56,103,1943858628
95,19,19,Jits_Linear_5,0,1,48,19,1944407588
95,19,19,Jits_Linear_5,1,5,80,127,1944578276
95,19,19,Jits_Linear_5,2,5,56,103,1944588844
95,19,19,Jits_Linear_5,3,5,63,98,1944609080
95,19,19,Jits_Linear_5,0,1,48,26,1945136904
95,19,19,Jits_Linear_5,1,5,63,98,1945308568
95,19,19,Jits_Linear_5,2,5,56,103,1945379092
95,19,19,Jits_Linear_5,3,5,80,127,1945382244
95,19,19,Jits_Linear_5,0,1,48,27,1945888420
95,19,19,Jits_Linear_5,1,5,80,127,1946069448
95,19,19,Jits_Linear_5,2,5,63,98,1946118680
95,19,19,Jits_Linear_5,3,5,56,103,1946158792
95,19,19,Jits_Linear_5,0,1,48,21,1946660168
95,19,19,Jits_Linear_5,1,5,63,98,1946879632
95,19,19,Jits_Linear_5,2,5,56,103,1946919300
95,19,19,Jits_Linear_5,3,5,80,127,1946928600
95,19,19,Jits_Linear_5,0,1,48,17,1947479276
95,19,19,Jits_Linear_5,1,5,63,98,1947639028
95,19,19,Jits_Linear_5,2,5,56,103,1947658736
95,19,19,Jits_Linear_5,3,5,80,127,1947678996
95,19,19,Jits_Linear_5,0,1,48,20,1948273196
95,19,19,Jits_Linear_5,1,5,80,127,1948369192
95,19,19,Jits_Linear_5,2,5,56,103,1948378640
95,19,19,Jits_Linear_5,3,5,63,98,1948399028
95,19,19,Jits_Linear_5,0,1,48,19,1948999096
95,19,19,Jits_Linear_5,1,5,63,98,1949168960
95,19,19,Jits_Linear_5,2,5,56,103,1949208928
95,19,19,Jits_Linear_5,3,5,80,127,1949238604
95,19,19,Jits_Linear_5,0,1,48,27,1949791380
95,19,19,Jits_Linear_5,1,5,56,103,1949949256
95,19,19,Jits_Linear_5,2,5,63,98,1949978960
95,19,19,Jits_Linear_5,3,5,80,127,1950008784
95,19,19,Jits_Linear_5,0,1,48,26,1950530988
95,19,19,Jits_Linear_5,1,5,80,127,1950698756
95,19,19,Jits_Linear_5,2,5,56,103,1950768540
95,19,19,Jits_Linear_5,3,5,63,98,1950771608
95,19,19,Jits_Linear_5,0,1,48,28,1951299128
95,19,19,Jits_Linear_5,1,5,56,103,1951489524
95,19,19,Jits_Linear_5,2,5,63,98,1951538708
95,19,19,Jits_Linear_5,3,5,80,127,1951569356
95,19,19,Jits_Linear_5,0,1,48,20,1952079200
95,19,19,Jits_Linear_5,1,5,63,98,1952249136
95,19,19,Jits_Linear_5,2,5,80,127,1952252652
95,19,19,Jits_Linear_5,3,5,56,103,1952308728
95,19,19,Jits_Linear_5,0,1,48,33,1952993808
95,19,19,Jits_Linear_5,1,5,56,103,1953059048
95,19,19,Jits_Linear_5,2,5,80,127,1953069692
95,19,19,Jits_Linear_5,3,5,63,98,1953118756
95,19,19,Jits_Linear_5,0,1,48,35,1953733488
95,19,19,Jits_Linear_5,1,5,63,98,1953818960
95,19,19,Jits_Linear_5,2,5,56,103,1953829288
95,19,19,Jits_Linear_5,3,5,80,127,1953858964
95,19,19,Jits_Linear_5,0,1,48,28,1954500744
95,19,19,Jits_Linear_5,1,5,63,98,1954639236
95,19,19,Jits_Linear_5,2,5,80,127,1954642752
95,19,19,Jits_Linear_5,3,5,56,103,1954668764
95,19,19,Jits_Linear_5,0,1,48,35,1955265580
95,19,19,Jits_Linear_5,1,5,63,98,1955449116
95,19,19,Jits_Linear_5,2,5,56,103,1955468604
95,19,19,Jits_Linear_5,3,5,80,127,1955471672
95,19,19,Jits_Linear_5,0,1,48,32,1956062728
95,19,19,Jits_Linear_5,1,5,63,98,1956198904
95,19,19,Jits_Linear_5,2,5,56,103,1956269636
95,19,19,Jits_Linear_5,3,5,80,127,1956288752
95,19,19,Jits_Linear_5,0,1,48,37,1956911604
95,19,19,Jits_Linear_5,1,5,56,103,1956978988
95,19,19,Jits_Linear_5,2,5,63,98,1956989408
95,19,19,Jits_Linear_5,3,5,80,127,1957079604
95,19,19,Jits_Linear_5,0,1,48,21,1957765832
95,19,19,Jits_Linear_5,1,5,56,103,1957788948
95,19,19,Jits_Linear_5,2,5,80,127,1957829036
95,19,19,Jits_Linear_5,3,5,63,98,1957839160
95,19,19,Jits_Linear_5,0,1,48,32,1958548832
95,19,19,Jits_Linear_5,1,5,56,103,1958609468
95,19,19,Jits_Linear_5,2,5,63,98,1958638924
95,19,19,Jits_Linear_5,3,5,80,127,1958668584
95,19,19,Jits_Linear_5,0,5,80,127,1959368988
95,19,19,Jits_Linear_5,1,1,48,27,1959387920
95,19,19,Jits_Linear_5,2,5,63,98,1959408924
95,19,19,Jits_Linear_5,3,5,56,103,1959428632
95,19,19,Jits_Linear_5,0,1,48,23,1960124752
95,19,19,Jits_Linear_5,1,5,56,103,1960208652
95,19,19,Jits_Linear_5,2,5,80,127,1960229316
95,19,19,Jits_Linear_5,3,5,63,98,1960248656
95,19,19,Jits_Linear_5,0,1,48,28,1960915604
95,19,19,Jits_Linear_5,1,5,63,98,1960978676
95,19,19,Jits_Linear_5,2,5,56,103,1960988948
95,19,19,Jits_Linear_5,3,5,80,127,1961048648
95,19,19,Jits_Linear_5,0,1,48,28,1961679416
95,19,19,Jits_Linear_5,1,5,56,103,1961788844
95,19,19,Jits_Linear_5,2,5,63,98,1961858604
95,19,19,Jits_Linear_5,3,5,80,127,1961878840
95,19,19,Jits_Linear_5,0,1,48,13,1962549868
95,19,19,Jits_Linear_5,1,5,56,103,1962598748
95,19,19,Jits_Linear_5,2,5,63,98,1962628648
95,19,19,Jits_Linear_5,3,5,80,127,1962669620
95,19,19,Jits_Linear_5,0,1,48,29,1963310676
95,19,19,Jits_Linear_5,1,5,63,98,1963398592
95,19,19,Jits_Linear_5,2,5,56,103,1963448708
95,19,19,Jits_Linear_5,3,5,80,127,1963458976
95,19,19,Jits_Linear_5,0,1,48,28,1964127312
95,19,19,Jits_Linear_5,1,5,56,103,1964248620
95,19,19,Jits_Linear_5,2,5,63,98,1964298600
95,19,19,Jits_Linear_5,3,5,80,127,1964308824
95,19,19,Jits_Linear_5,0,1,48,33,1964933520
95,19,19,Jits_Linear_5,1,5,56,103,1965028708
95,19,19,Jits_Linear_5,2,5,63,98,1965038964
95,19,19,Jits_Linear_5,3,5,80,127,1965118856
95,19,19,Jits_Linear_5,0,9999,9999,9999,1856297028
95,19,19,Jits_Linear_5,1,9999,9999,9999,1856776268
95,19,19,Jits_Linear_5,2,9999,9999,9999,1857256524
95,19,19,Jits_Linear_5,3,9999,9999,9999,1857736828
95,19,19,Jits_Linear_5,4,9999,9999,9999,1858217040
95,19,19,Jits_Linear_5,5,9999,9999,9999,1858706544
95,19,19,Jits_Linear_5,6,9999,9999,9999,1859197016
95,19,19,Jits_Linear_5,7,9999,9999,9999,1859686456
95,19,19,Jits_Linear_5,8,9999,9999,9999,1860177004
95,19,19,Jits_Linear_5,9,9999,9999,9999,1860666444
95,19,19,Jits_Linear_5,10,9999,9999,9999,1861166144
95,19,19,Jits_Linear_5,11,9999,9999,9999,1861666896
95,19,19,Jits_Linear_5,12,9999,9999,9999,1862166652
95,19,19,Jits_Linear_5,13,9999,9999,9999,1862666312
95,19,19,Jits_Linear_5,14,9999,9999,9999,1863167100
95,19,19,Jits_Linear_5,15,9999,9999,9999,1863676992
95,19,19,Jits_Linear_5,16,9999,9999,9999,1864186944
95,19,19,Jits_Linear_5,17,9999,9999,9999,1864696892
95,19,19,Jits_Linear_5,18,9999,9999,9999,1865206840
95,19,19,Jits_Linear_5,19,9999,9999,9999,1865716796
95,19,19,Jits_Linear_5,20,9999,9999,9999,1866237016
95,19,19,Jits_Linear_5,21,9999,9999,9999,1866756184
95,19,19,Jits_Linear_5,22,9999,9999,9999,1867276396
95,19,19,Jits_Linear_5,23,9999,9999,9999,1867796556
95,19,19,Jits_Linear_5,24,9999,9999,9999,1868316788
95,19,19,Jits_Linear_5,25,9999,9999,9999,1868846152
95,19,19,Jits_Linear_5,26,9999,9999,9999,1869376636
95,19,19,Jits_Linear_5,27,9999,9999,9999,1869907028
95,19,19,Jits_Linear_5,28,9999,9999,9999,1870436480
95,19,19,Jits_Linear_5,29,9999,9999,9999,1870966884
95,19,19,Jits_Linear_5,30,9999,9999,9999,1871506516
95,19,19,Jits_Linear_5,31,9999,9999,9999,1872046140
95,19,19,Jits_Linear_5,32,9999,9999,9999,1872586828
95,19,19,Jits_Linear_5,33,9999,9999,9999,1873126476
95,19,19,Jits_Linear_5,34,9999,9999,9999,1873666148
95,19,19,Jits_Linear_5,35,9999,9999,9999,1874217028
95,19,19,Jits_Linear_5,36,9999,9999,9999,1874766904
95,19,19,Jits_Linear_5,37,9999,9999,9999,1875316860
95,19,19,Jits_Linear_5,38,9999,9999,9999,1875866748
95,19,19,Jits_Linear_5,39,9999,9999,9999,1876416636
95,19,19,Jits_Linear_5,40,9999,9999,9999,1876976712
95,19,19,Jits_Linear_5,41,9999,9999,9999,1877536884
95,19,19,Jits_Linear_5,42,9999,9999,9999,1878096952
95,19,19,Jits_Linear_5,43,9999,9999,9999,1878656124
95,19,19,Jits_Linear_5,44,9999,9999,9999,1879216200
95,19,19,Jits_Linear_5,45,9999,9999,9999,1879786612
95,19,19,Jits_Linear_5,46,9999,9999,9999,1880356972
95,19,19,Jits_Linear_5,47,9999,9999,9999,1880926272
95,19,19,Jits_Linear_5,48,9999,9999,9999,1881496684
95,19,19,Jits_Linear_5,49,9999,9999,9999,1882067044
95,19,19,Jits_Linear_5,50,9999,9999,9999,1882646592
95,19,19,Jits_Linear_5,51,9999,9999,9999,1883226232
95,19,19,Jits_Linear_5,52,9999,9999,9999,1883806776
95,19,19,Jits_Linear_5,53,9999,9999,9999,1884386424
95,19,19,Jits_Linear_5,54,9999,9999,9999,1884966980
95,19,19,Jits_Linear_5,55,9999,9999,9999,1885556800
95,19,19,Jits_Linear_5,56,9999,9999,9999,1886146616
95,19,19,Jits_Linear_5,57,9999,9999,9999,1886736504
95,19,19,Jits_Linear_5,58,9999,9999,9999,1887326276
95,19,19,Jits_Linear_5,59,9999,9999,9999,1887916156
95,19,19,Jits_Linear_5,60,9999,9999,9999,1888516168
95,19,19,Jits_Linear_5,61,9999,9999,9999,1889116268
95,19,19,Jits_Linear_5,62,9999,9999,9999,1889716348
95,19,19,Jits_Linear_5,63,9999,9999,9999,1890316352
95,19,19,Jits_Linear_5,64,9999,9999,9999,1890916452
95,19,19,Jits_Linear_5,65,9999,9999,9999,1891526720
95,19,19,Jits_Linear_5,66,9999,9999,9999,1892137032
95,19,19,Jits_Linear_5,67,9999,9999,9999,1892746316
95,19,19,Jits_Linear_5,68,9999,9999,9999,1893356664
95,19,19,Jits_Linear_5,69,9999,9999,9999,1893966964
95,19,19,Jits_Linear_5,70,9999,9999,9999,1894586440
95,19,19,Jits_Linear_5,71,9999,9999,9999,1895207016
95,19,19,Jits_Linear_5,72,9999,9999,9999,1895826500
95,19,19,Jits_Linear_5,73,9999,9999,9999,1896447032
95,19,19,Jits_Linear_5,74,9999,9999,9999,1897066596
95,19,19,Jits_Linear_5,75,9999,9999,9999,1897696344
95,19,19,Jits_Linear_5,76,9999,9999,9999,1898326124
95,19,19,Jits_Linear_5,77,9999,9999,9999,1898956924
95,19,19,Jits_Linear_5,78,9999,9999,9999,1899586676
95,19,19,Jits_Linear_5,79,9999,9999,9999,1900216428
95,19,19,Jits_Linear_5,80,9999,9999,9999,1900856396
95,19,19,Jits_Linear_5,81,9999,9999,9999,1901496412
95,19,19,Jits_Linear_5,82,9999,9999,9999,1902136448
95,19,19,Jits_Linear_5,83,9999,9999,9999,1902776388
95,19,19,Jits_Linear_5,84,9999,9999,9999,1903416432
95,19,19,Jits_Linear_5,85,9999,9999,9999,1904066636
95,19,19,Jits_Linear_5,86,9999,9999,9999,1904716860
95,19,19,Jits_Linear_5,87,9999,9999,9999,1905366088
95,19,19,Jits_Linear_5,88,9999,9999,9999,1906016364
95,19,19,Jits_Linear_5,89,9999,9999,9999,1906666564
95,19,19,Jits_Linear_5,90,9999,9999,9999,1907327060
95,19,19,Jits_Linear_5,91,9999,9999,9999,1907986500
95,19,19,Jits_Linear_5,92,9999,9999,9999,1908647028
95,19,19,Jits_Linear_5,93,9999,9999,9999,1909306472
95,19,19,Jits_Linear_5,94,9999,9999,9999,1909966936
95,19,19,Jits_Linear_5,95,9999,9999,9999,1910636648
95,19,19,Jits_Linear_5,96,9999,9999,9999,1911306332
95,19,19,Jits_Linear_5,97,9999,9999,9999,1911977076
95,19,19,Jits_Linear_5,98,9999,9999,9999,1912646712
95,19,19,Jits_Linear_5,99,9999,9999,9999,1913316468
95,19,19,Jits_Linear_5,100,9999,9999,9999,1913996364
95,19,19,Jits_Linear_5,101,9999,9999,9999,1914676340
95,19,19,Jits_Linear_5,102,9999,9999,9999,1915356276
95,19,19,Jits_Linear_5,103,9999,9999,9999,1916036180
95,19,19,Jits_Linear_5,104,9999,9999,9999,1916716152
95,19,19,Jits_Linear_5,105,9999,9999,9999,1917406284
95,19,19,Jits_Linear_5,106,9999,9999,9999,1918096444
95,19,19,Jits_Linear_5,107,9999,9999,9999,1918786680
95,19,19,Jits_Linear_5,108,9999,9999,9999,1919476816
95,19,19,Jits_Linear_5,109,9999,9999,9999,1920166980
95,19,19,Jits_Linear_5,110,9999,9999,9999,1920866428
95,19,19,Jits_Linear_5,111,9999,9999,9999,1921566776
95,19,19,Jits_Linear_5,112,9999,9999,9999,1922266216
95,19,19,Jits_Linear_5,113,9999,9999,9999,1922966644
95,19,19,Jits_Linear_5,114,9999,9999,9999,1923667068
95,19,19,Jits_Linear_5,115,9999,9999,9999,1924376700
95,19,19,Jits_Linear_5,116,9999,9999,9999,1925086320
95,19,19,Jits_Linear_5,117,9999,9999,9999,1925796936
95,19,19,Jits_Linear_5,118,9999,9999,9999,1926506572
95,19,19,Jits_Linear_5,119,9999,9999,9999,1927216232
95,19,19,Jits_Linear_5,120,9999,9999,9999,1927936060
95,19,19,Jits_Linear_5,121,9999,9999,9999,1928657008
95,19,19,Jits_Linear_5,122,9999,9999,9999,1929376836
95,19,19,Jits_Linear_5,123,9999,9999,9999,1930096740
95,19,19,Jits_Linear_5,124,9999,9999,9999,1930816568
95,19,19,Jits_Linear_5,125,9999,9999,9999,1931546724
95,19,19,Jits_Linear_5,126,9999,9999,9999,1932276792
95,19,19,Jits_Linear_5,127,9999,9999,9999,1933006956
95,19,19,Jits_Linear_5,128,9999,9999,9999,1933737032
95,19,19,Jits_Linear_5,129,9999,9999,9999,1934466160
95,19,19,Jits_Linear_5,130,9999,9999,9999,1935206516
95,19,19,Jits_Linear_5,131,9999,9999,9999,1935946872
95,19,19,Jits_Linear_5,132,9999,9999,9999,1936686172
95,19,19,Jits_Linear_5,133,9999,9999,9999,1937426532
95,19,19,Jits_Linear_5,134,9999,9999,9999,1938166856
95,19,19,Jits_Linear_5,135,9999,9999,9999,1938916428
95,19,19,Jits_Linear_5,136,9999,9999,9999,1939667052
95,19,19,Jits_Linear_5,137,9999,9999,9999,1940416624
95,19,19,Jits_Linear_5,138,9999,9999,9999,1941166200
95,19,19,Jits_Linear_5,139,9999,9999,9999,1941916752
95,19,19,Jits_Linear_5,140,9999,9999,9999,1942676588
95,19,19,Jits_Linear_5,141,9999,9999,9999,1943436352
95,19,19,Jits_Linear_5,142,9999,9999,9999,1944196188
95,19,19,Jits_Linear_5,143,9999,9999,9999,1944957052
95,19,19,Jits_Linear_5,144,9999,9999,9999,1945716808
95,19,19,Jits_Linear_5,145,9999,9999,9999,1946486840
95,19,19,Jits_Linear_5,146,9999,9999,9999,1947256944
95,19,19,Jits_Linear_5,147,9999,9999,9999,1948026968
95,19,19,Jits_Linear_5,148,9999,9999,9999,1948796992
95,19,19,Jits_Linear_5,149,9999,9999,9999,1949567096
95,19,19,Jits_Linear_5,150,9999,9999,9999,1950346344
95,19,19,Jits_Linear_5,151,9999,9999,9999,1951126624
95,19,19,Jits_Linear_5,152,9999,9999,9999,1951906916
95,19,19,Jits_Linear_5,153,9999,9999,9999,1952686144
95,19,19,Jits_Linear_5,154,9999,9999,9999,1953466432
95,19,19,Jits_Linear_5,155,9999,9999,9999,1954256980
95,19,19,Jits_Linear_5,156,9999,9999,9999,1955046476
95,19,19,Jits_Linear_5,157,9999,9999,9999,1955837024
95,19,19,Jits_Linear_5,158,9999,9999,9999,1956626488
95,19,19,Jits_Linear_5,159,9999,9999,9999,1957417036
95,19,19,Jits_Linear_5,160,9999,9999,9999,1958216808
95,19,19,Jits_Linear_5,161,9999,9999,9999,1959016556
95,19,19,Jits_Linear_5,162,9999,9999,9999,1959816248
95,19,19,Jits_Linear_5,163,9999,9999,9999,1960617080
95,19,19,Jits_Linear_5,164,9999,9999,9999,1961416776
95,19,19,Jits_Linear_5,165,9999,9999,9999,1962226812
95,19,19,Jits_Linear_5,166,9999,9999,9999,1963036796
95,19,19,Jits_Linear_5,167,9999,9999,9999,1963846756
95,19,19,Jits_Linear_5,168,9999,9999,9999,1964656720
95,19,19,Jits_Linear_5,169,9999,9999,9999,1965466680
95,20,3,ISIP_8,0,5,42,127,2032961964
95,20,3,ISIP_8,1,5,42,127,2033761720
95,20,3,ISIP_8,2,5,42,127,2034562448
95,20,3,ISIP_8,3,1,48,23,2034578508
95,20,3,ISIP_8,4,1,48,28,2035355856
95,20,3,ISIP_8,5,5,42,127,2035362100
95,20,3,ISIP_8,6,1,48,28,2036156408
95,20,3,ISIP_8,7,5,42,127,2036161832
95,20,3,ISIP_8,8,1,48,20,2036945004
95,20,3,ISIP_8,9,5,42,127,2036961716
95,20,3,ISIP_8,10,1,48,20,2037720648
95,20,3,ISIP_8,11,5,42,127,2037762420
95,20,3,ISIP_8,12,1,48,24,2038504972
95,20,3,ISIP_8,13,5,42,127,2038562104
95,20,3,ISIP_8,14,1,48,19,2039303660
95,20,3,ISIP_8,15,5,42,127,2039361760
95,20,3,ISIP_8,16,1,48,16,2040050136
95,20,3,ISIP_8,17,5,42,127,2040161628
95,20,3,ISIP_8,18,1,48,22,2040877196
95,20,3,ISIP_8,19,5,42,127,2040962572
95,20,3,ISIP_8,20,1,48,20,2041636460
95,20,3,ISIP_8,21,5,42,127,2041762140
95,20,3,ISIP_8,22,1,48,16,2042460504
95,20,3,ISIP_8,23,5,42,127,2042562024
95,20,3,ISIP_8,24,1,48,27,2043213488
95,20,3,ISIP_8,25,5,42,127,2043361680
95,20,3,ISIP_8,26,1,48,19,2044027508
95,20,3,ISIP_8,27,5,42,127,2044162536
95,20,3,ISIP_8,28,1,48,17,2044815344
95,20,3,ISIP_8,29,5,42,127,2044962292
95,20,3,ISIP_8,30,1,48,28,2045559880
95,20,3,ISIP_8,31,5,42,127,2045761804
95,20,3,ISIP_8,32,1,48,35,2046347944
95,20,3,ISIP_8,33,1,48,21,2046407692
95,20,3,ISIP_8,34,5,42,127,2046561516
95,20,3,ISIP_8,35,1,48,26,2047178324
95,20,3,ISIP_8,36,5,42,127,2047362444
95,20,3,ISIP_8,37,1,48,22,2048036572
95,20,3,ISIP_8,38,5,42,127,2048162104
95,20,3,ISIP_8,39,1,48,24,2048889864
95,20,3,ISIP_8,40,5,42,127,2048961852
95,20,3,ISIP_8,41,1,48,26,2049641580
95,20,3,ISIP_8,42,5,42,127,2049761644
95,20,3,ISIP_8,43,1,48,21,2050478708
95,20,3,ISIP_8,44,5,42,127,2050562440
95,20,3,ISIP_8,45,1,48,24,2051231844
95,20,3,ISIP_8,46,5,42,127,2051362332
95,20,3,ISIP_8,47,1,48,25,2052022380
95,20,3,ISIP_8,48,5,42,127,2052161992
95,20,3,ISIP_8,49,1,48,18,2052843576
95,20,3,ISIP_8,50,5,42,127,2052961652
95,20,3,ISIP_8,51,1,48,23,2053664424
95,20,3,ISIP_8,52,5,42,127,2053762580
95,20,3,ISIP_8,53,1,48,20,2054490936
95,20,3,ISIP_8,54,5,42,127,2054562328
95,20,3,ISIP_8,55,1,48,19,2055287748
95,20,3,ISIP_8,56,5,42,127,2055361912
95,20,3,ISIP_8,57,1,48,26,2056110896
95,20,3,ISIP_8,58,5,42,127,2056161648
95,20,3,ISIP_8,59,1,48,22,2056923424
95,20,3,ISIP_8,60,1,48,24,2057718888
95,20,3,ISIP_8,61,1,48,26,2058493412
95,20,3,ISIP_8,62,1,48,19,2059303932
95,20,3,ISIP_8,63,1,48,21,2060062376
95,20,3,ISIP_8,64,1,48,23,2060843332
95,20,3,ISIP_8,65,1,48,22,2061597136
95,20,3,ISIP_8,66,1,48,21,2062408456
95,20,3,ISIP_8,67,1,48,20,2063185816
95,20,3,ISIP_8,68,1,48,21,2063945084
95,20,3,ISIP_8,69,1,48,19,2064679440
95,20,3,ISIP_8,70,1,48,20,2065467200
95,20,3,ISIP_8,71,1,48,17,2066235964
95,20,3,ISIP_8,72,1,48,19,2067019684
95,20,3,ISIP_8,73,1,48,17,2067814252
95,20,3,ISIP_8,74,1,48,16,2068605904
95,20,3,ISIP_8,75,1,48,18,2069409900
95,20,3,ISIP_8,76,1,48,21,2070181872
95,20,3,ISIP_8,77,1,48,18,2070953928
95,20,3,ISIP_8,78,1,48,20,2071739000
95,20,3,ISIP_8,79,1,48,21,2072513672
95,20,3,ISIP_8,80,1,48,24,2073260516
95,20,3,ISIP_8,81,1,48,18,2074078424
95,20,3,ISIP_8,82,1,48,19,2074845612
95,20,3,ISIP_8,83,1,48,20,2075616844
95,20,3,ISIP_8,84,1,48,20,2076383060
95,20,3,ISIP_8,85,1,48,19,2077184660
95,20,3,ISIP_8,86,1,48,21,2077932708
95,20,3,ISIP_8,87,1,48,20,2078712388
95,20,3,ISIP_8,88,1,48,13,2079428720
95,20,3,ISIP_8,89,1,48,19,2080211392
95,20,3,ISIP_8,90,1,48,19,2080970136
95,20,3,ISIP_8,91,1,48,19,2081714424
95,20,3,ISIP_8,92,1,48,22,2082497320
95,20,3,ISIP_8,93,1,48,16,2083293008
95,20,3,ISIP_8,94,1,48,18,2084035144
95,20,3,ISIP_8,95,1,48,16,2084826944
95,20,3,ISIP_8,96,1,48,18,2085593316
95,20,3,ISIP_8,97,1,48,20,2086360056
95,20,3,ISIP_8,98,1,48,16,2087144680
95,20,3,ISIP_8,99,1,48,19,2087904236
95,20,3,ISIP_8,100,1,48,21,2088688036
95,20,3,ISIP_8,101,1,48,17,2089499532
95,20,3,ISIP_8,102,1,48,16,2090281908
95,20,3,ISIP_8,103,1,48,17,2091051944
95,20,3,ISIP_8,104,1,48,13,2091809940
95,20,3,ISIP_8,105,1,48,17,2092646840
95,20,3,ISIP_8,106,1,48,20,2093371696
95,20,3,ISIP_8,107,1,48,16,2094191024
95,20,3,ISIP_8,108,1,48,18,2094992772
95,20,3,ISIP_8,109,1,48,23,2095746128
95,20,3,ISIP_8,110,1,48,17,2096536352
95,20,3,ISIP_8,111,1,48,19,2097337952
95,20,3,ISIP_8,112,1,48,22,2098135660
95,20,3,ISIP_8,113,1,48,23,2098938680
95,20,3,ISIP_8,114,1,48,25,2099762448
95,20,3,ISIP_8,115,1,48,22,2100612216
95,20,3,ISIP_8,116,1,48,22,2101462952
95,20,3,ISIP_8,117,1,48,22,2102274652
95,20,3,ISIP_8,118,1,48,22,2103081064
95,20,3,ISIP_8,119,1,48,24,2103880564
95,20,3,ISIP_8,120,1,48,17,2104707744
95,20,3,ISIP_8,121,1,48,22,2105526700
95,20,3,ISIP_8,122,1,48,18,2106316180
95,20,3,ISIP_8,123,1,48,24,2107115308
95,20,3,ISIP_8,124,1,48,17,2107918132
95,20,3,ISIP_8,125,1,48,20,2108724816
95,20,3,ISIP_8,126,1,48,25,2109578848
95,20,3,ISIP_8,127,1,48,26,2110387780
95,20,3,ISIP_8,128,1,48,21,2111211144
95,20,3,ISIP_8,129,1,48,21,2112038052
95,20,3,ISIP_8,130,1,48,26,2112894696
95,20,3,ISIP_8,131,1,48,19,2113711484
95,20,3,ISIP_8,132,1,48,24,2114516668
95,20,3,ISIP_8,133,1,48,19,2115323284
95,20,3,ISIP_8,134,1,48,25,2116137548
95,20,3,ISIP_8,135,1,48,20,2116924188
95,20,3,ISIP_8,136,1,48,22,2117714568
95,20,3,ISIP_8,137,1,48,21,2118526712
95,20,3,ISIP_8,138,1,48,21,2119346636
95,20,3,ISIP_8,139,1,48,20,2120141428
95,20,3,ISIP_8,140,1,48,24,2120951184
95,20,3,ISIP_8,141,1,48,27,2121791564
95,20,3,ISIP_8,142,1,48,18,2121853176
95,20,3,ISIP_8,143,1,48,15,2122588652
95,20,3,ISIP_8,144,1,48,24,2123399000
95,20,3,ISIP_8,145,1,48,21,2124223568
95,20,3,ISIP_8,146,1,48,17,2125060016
95,20,3,ISIP_8,147,1,48,26,2125876528
95,20,3,ISIP_8,148,1,48,23,2126670496
95,20,3,ISIP_8,149,1,48,21,2127486380
95,20,3,ISIP_8,150,1,48,20,2128284312
95,20,3,ISIP_8,151,1,48,23,2129105584
95,20,3,ISIP_8,152,1,48,21,2129890656
95,20,3,ISIP_8,153,1,48,25,2130673108
95,20,3,ISIP_8,154,1,48,24,2131426388
95,20,3,ISIP_8,155,1,48,21,2132245064
95,20,3,ISIP_8,156,1,48,18,2133057360
95,20,3,ISIP_8,157,1,48,19,2133865164
95,20,3,ISIP_8,158,1,48,22,2134680524
95,20,3,ISIP_8,159,1,48,19,2135469564
95,20,3,ISIP_8,160,1,48,19,2136266668
95,20,3,ISIP_8,161,1,48,24,2137040972
95,20,3,ISIP_8,162,1,48,24,2137851468
95,20,3,ISIP_8,163,1,48,20,2138635736
95,20,3,ISIP_8,164,1,48,17,2139445716
95,20,3,ISIP_8,165,1,48,20,2140287852
95,20,3,ISIP_8,166,1,48,22,2141038892
95,20,3,ISIP_8,167,1,48,18,2141861508
95,20,3,ISIP_8,168,1,48,19,2142607536
95,20,3,ISIP_8,169,1,48,24,2143397464
95,20,3,ISIP_8,170,1,48,21,2144193828
95,20,3,ISIP_8,171,1,48,17,2145010532
95,20,3,ISIP_8,172,1,48,25,2145812760
95,20,3,ISIP_8,173,1,48,19,2146627444
95,20,3,ISIP_8,174,1,48,20,2147398376
95,20,3,ISIP_8,175,1,48,19,2148211196
95,20,3,ISIP_8,176,1,48,22,2149028280
95,20,3,ISIP_8,177,1,48,24,2149849624
95,20,3,ISIP_8,178,1,48,23,2150672264
95,20,3,ISIP_8,179,1,48,21,2151470424
95,20,3,ISIP_8,180,1,48,18,2152281820
95,20,3,ISIP_8,0,9999,9999,9999,2032959600
95,20,3,ISIP_8,1,9999,9999,9999,2033759280
95,20,3,ISIP_8,2,9999,9999,9999,2034560084
95,20,3,ISIP_8,3,9999,9999,9999,2035359808
95,20,3,ISIP_8,4,9999,9999,9999,2036159544
95,20,3,ISIP_8,5,9999,9999,9999,2036959352
95,20,3,ISIP_8,6,9999,9999,9999,2037760056
95,20,3,ISIP_8,7,9999,9999,9999,2038559816
95,20,3,ISIP_8,8,9999,9999,9999,2039359548
95,20,3,ISIP_8,9,9999,9999,9999,2040159340
95,20,3,ISIP_8,10,9999,9999,9999,2040960060
95,20,3,ISIP_8,11,9999,9999,9999,2041759852
95,20,3,ISIP_8,12,9999,9999,9999,2042559584
95,20,3,ISIP_8,13,9999,9999,9999,2043359316
95,20,3,ISIP_8,14,9999,9999,9999,2044160096
95,20,3,ISIP_8,15,9999,9999,9999,2044959856
95,20,3,ISIP_8,16,9999,9999,9999,2045759588
95,20,3,ISIP_8,17,9999,9999,9999,2046559300
95,20,3,ISIP_8,18,9999,9999,9999,2047360084
95,20,3,ISIP_8,19,9999,9999,9999,2048159816
95,20,3,ISIP_8,20,9999,9999,9999,2048959564
95,20,3,ISIP_8,21,9999,9999,9999,2049759280
95,20,3,ISIP_8,22,9999,9999,9999,2050560076
95,20,3,ISIP_8,23,9999,9999,9999,2051359820
95,20,3,ISIP_8,24,9999,9999,9999,2052159552
95,20,3,ISIP_8,25,9999,9999,9999,2052959288
95,20,3,ISIP_8,26,9999,9999,9999,2053760068
95,20,3,ISIP_8,27,9999,9999,9999,2054559816
95,20,3,ISIP_8,28,9999,9999,9999,2055359548
95,20,3,ISIP_8,29,9999,9999,9999,2056159284
95,20,3,ISIP_8,30,9999,9999,9999,2056960064
95,20,3,ISIP_8,31,9999,9999,9999,2057759816
95,20,3,ISIP_8,32,9999,9999,9999,2058559548
95,20,3,ISIP_8,33,9999,9999,9999,2059359348
95,20,3,ISIP_8,34,9999,9999,9999,2060160112
95,20,3,ISIP_8,35,9999,9999,9999,2060959840
95,20,3,ISIP_8,36,9999,9999,9999,2061759568
95,20,3,ISIP_8,37,9999,9999,9999,2062559296
95,20,3,ISIP_8,38,9999,9999,9999,2063360072
95,20,3,ISIP_8,39,9999,9999,9999,2064159828
95,20,3,ISIP_8,40,9999,9999,9999,2064959556
95,20,3,ISIP_8,41,9999,9999,9999,2065759284
95,20,3,ISIP_8,42,9999,9999,9999,2066560064
95,20,3,ISIP_8,43,9999,9999,9999,2067359792
95,20,3,ISIP_8,44,9999,9999,9999,2068159596
95,20,3,ISIP_8,45,9999,9999,9999,2068959324
95,20,3,ISIP_8,46,9999,9999,9999,2069760100
95,20,3,ISIP_8,47,9999,9999,9999,2070559856
95,20,3,ISIP_8,48,9999,9999,9999,2071359584
95,20,3,ISIP_8,49,9999,9999,9999,2072159312
95,20,3,ISIP_8,50,9999,9999,9999,2072960088
95,20,3,ISIP_8,51,9999,9999,9999,2073759816
95,20,3,ISIP_8,52,9999,9999,9999,2074559544
95,20,3,ISIP_8,53,9999,9999,9999,2075359348
95,20,3,ISIP_8,54,9999,9999,9999,2076160048
95,20,3,ISIP_8,55,9999,9999,9999,2076959804
95,20,3,ISIP_8,56,9999,9999,9999,2077759604
95,20,3,ISIP_8,57,9999,9999,9999,2078559336
95,20,3,ISIP_8,58,9999,9999,9999,2079360112
95,20,3,ISIP_8,59,9999,9999,9999,2080159840
95,20,3,ISIP_8,60,9999,9999,9999,2080959568
95,20,3,ISIP_8,61,9999,9999,9999,2081759292
95,20,3,ISIP_8,62,9999,9999,9999,2082560068
95,20,3,ISIP_8,63,9999,9999,9999,2083359820
95,20,3,ISIP_8,64,9999,9999,9999,2084159608
95,20,3,ISIP_8,65,9999,9999,9999,2084959336
95,20,3,ISIP_8,66,9999,9999,9999,2085760112
95,20,3,ISIP_8,67,9999,9999,9999,2086559840
95,20,3,ISIP_8,68,9999,9999,9999,2087359568
95,20,3,ISIP_8,69,9999,9999,9999,2088159300
95,20,3,ISIP_8,70,9999,9999,9999,2088960076
95,20,3,ISIP_8,71,9999,9999,9999,2089759828
95,20,3,ISIP_8,72,9999,9999,9999,2090559560
95,20,3,ISIP_8,73,9999,9999,9999,2091359288
95,20,3,ISIP_8,74,9999,9999,9999,2092160064
95,20,3,ISIP_8,75,9999,9999,9999,2092959792
95,20,3,ISIP_8,76,9999,9999,9999,2093759596
95,20,3,ISIP_8,77,9999,9999,9999,2094559324
95,20,3,ISIP_8,78,9999,9999,9999,2095360100
95,20,3,ISIP_8,79,9999,9999,9999,2096159856
95,20,3,ISIP_8,80,9999,9999,9999,2096959584
95,20,3,ISIP_8,81,9999,9999,9999,2097759312
95,20,3,ISIP_8,82,9999,9999,9999,2098560088
95,20,3,ISIP_8,83,9999,9999,9999,2099359816
95,20,3,ISIP_8,84,9999,9999,9999,2100159548
95,20,3,ISIP_8,85,9999,9999,9999,2100959352
95,20,3,ISIP_8,86,9999,9999,9999,2101760052
95,20,3,ISIP_8,87,9999,9999,9999,2102559804
95,20,3,ISIP_8,88,9999,9999,9999,2103359608
95,20,3,ISIP_8,89,9999,9999,9999,2104159336
95,20,3,ISIP_8,90,9999,9999,9999,2104960112
95,20,3,ISIP_8,91,9999,9999,9999,2105759840
95,20,3,ISIP_8,92,9999,9999,9999,2106559572
95,20,3,ISIP_8,93,9999,9999,9999,2107359300
95,20,3,ISIP_8,94,9999,9999,9999,2108160076
95,20,3,ISIP_8,95,9999,9999,9999,2108959832
95,20,3,ISIP_8,96,9999,9999,9999,2109759560
95,20,3,ISIP_8,97,9999,9999,9999,2110559288
95,20,3,ISIP_8,98,9999,9999,9999,2111360064
95,20,3,ISIP_8,99,9999,9999,9999,2112159792
95,20,3,ISIP_8,100,9999,9999,9999,2112959540
95,20,3,ISIP_8,101,9999,9999,9999,2113759344
95,20,3,ISIP_8,102,9999,9999,9999,2114560120
95,20,3,ISIP_8,103,9999,9999,9999,2115359800
95,20,3,ISIP_8,104,9999,9999,9999,2116159604
95,20,3,ISIP_8,105,9999,9999,9999,2116959332
95,20,3,ISIP_8,106,9999,9999,9999,2117760108
95,20,3,ISIP_8,107,9999,9999,9999,2118559840
95,20,3,ISIP_8,108,9999,9999,9999,2119359568
95,20,3,ISIP_8,109,9999,9999,9999,2120159296
95,20,3,ISIP_8,110,9999,9999,9999,2120960072
95,20,3,ISIP_8,111,9999,9999,9999,2121759832
95,20,3,ISIP_8,112,9999,9999,9999,2122559540
95,20,3,ISIP_8,113,9999,9999,9999,2123359340
95,20,3,ISIP_8,114,9999,9999,9999,2124160120
95,20,3,ISIP_8,115,9999,9999,9999,2124959848
95,20,3,ISIP_8,116,9999,9999,9999,2125759576
95,20,3,ISIP_8,117,9999,9999,9999,2126559304
95,20,3,ISIP_8,118,9999,9999,9999,2127360080
95,20,3,ISIP_8,119,9999,9999,9999,2128159836
95,20,3,ISIP_8,120,9999,9999,9999,2128959564
95,20,3,ISIP_8,121,9999,9999,9999,2129759292
95,20,3,ISIP_8,122,9999,9999,9999,2130560068
95,20,3,ISIP_8,123,9999,9999,9999,2131359796
95,20,3,ISIP_8,124,9999,9999,9999,2132159600
95,20,3,ISIP_8,125,9999,9999,9999,2132959332
95,20,3,ISIP_8,126,9999,9999,9999,2133760108
95,20,3,ISIP_8,127,9999,9999,9999,2134559860
95,20,3,ISIP_8,128,9999,9999,9999,2135359592
95,20,3,ISIP_8,129,9999,9999,9999,2136159320
95,20,3,ISIP_8,130,9999,9999,9999,2136960096
95,20,3,ISIP_8,131,9999,9999,9999,2137759824
95,20,3,ISIP_8,132,9999,9999,9999,2138559552
95,20,3,ISIP_8,133,9999,9999,9999,2139359280
95,20,3,ISIP_8,134,9999,9999,9999,2140160056
95,20,3,ISIP_8,135,9999,9999,9999,2140959812
95,20,3,ISIP_8,136,9999,9999,9999,2141759540
95,20,3,ISIP_8,137,9999,9999,9999,2142559344
95,20,3,ISIP_8,138,9999,9999,9999,2143360120
95,20,3,ISIP_8,139,9999,9999,9999,2144159852
95,20,3,ISIP_8,140,9999,9999,9999,2144959580
95,20,3,ISIP_8,141,9999,9999,9999,2145759308
95,20,3,ISIP_8,142,9999,9999,9999,2146560084
95,20,3,ISIP_8,143,9999,9999,9999,2147359840
95,20,3,ISIP_8,144,9999,9999,9999,2148159568
95,20,3,ISIP_8,145,9999,9999,9999,2148959296
95,20,3,ISIP_8,146,9999,9999,9999,2149760072
95,20,3,ISIP_8,147,9999,9999,9999,2150559804
95,20,3,ISIP_8,148,9999,9999,9999,2151359604
95,20,3,ISIP_8,149,9999,9999,9999,2152159336
95,21,5,ISIP_5,0,5,42,127,2174160240
95,21,5,ISIP_5,1,5,42,127,2174660108
95,21,5,ISIP_5,2,1,48,23,2175153500
95,21,5,ISIP_5,3,5,42,127,2175159592
95,21,5,ISIP_5,4,5,42,127,2175660492
95,21,5,ISIP_5,5,1,48,33,2175680512
95,21,5,ISIP_5,6,5,42,127,2176160112
95,21,5,ISIP_5,7,1,48,28,2176190380
95,21,5,ISIP_5,8,5,42,127,2176659956
95,21,5,ISIP_5,9,1,48,27,2176677436
95,21,5,ISIP_5,10,1,48,24,2177151236
95,21,5,ISIP_5,11,5,42,127,2177159644
95,21,5,ISIP_5,12,5,42,127,2177660172
95,21,5,ISIP_5,13,1,48,28,2177662912
95,21,5,ISIP_5,14,5,42,127,2178159940
95,21,5,ISIP_5,15,1,48,30,2178206068
95,21,5,ISIP_5,16,5,42,127,2178659564
95,21,5,ISIP_5,17,1,48,29,2178661500
95,21,5,ISIP_5,18,1,48,25,2179159172
95,21,5,ISIP_5,19,5,42,127,2179160596
95,21,5,ISIP_5,20,5,42,127,2179660000
95,21,5,ISIP_5,21,1,48,27,2179682116
95,21,5,ISIP_5,22,5,42,127,2180159920
95,21,5,ISIP_5,23,1,48,32,2180206044
95,21,5,ISIP_5,24,1,48,21,2180650296
95,21,5,ISIP_5,25,5,42,127,2180659680
95,21,5,ISIP_5,26,1,48,24,2181117652
95,21,5,ISIP_5,27,5,42,127,2181160348
95,21,5,ISIP_5,28,1,48,28,2181655444
95,21,5,ISIP_5,29,5,42,127,2181659896
95,21,5,ISIP_5,30,5,42,127,2182159672
95,21,5,ISIP_5,31,1,48,18,2182174908
95,21,5,ISIP_5,32,5,42,127,2182659564
95,21,5,ISIP_5,33,1,48,26,2182668064
95,21,5,ISIP_5,34,5,42,127,2183160132
95,21,5,ISIP_5,35,1,48,27,2183196860
95,21,5,ISIP_5,36,5,42,127,2183659824
95,21,5,ISIP_5,37,1,48,29,2183729688
95,21,5,ISIP_5,38,5,42,127,2184159448
95,21,5,ISIP_5,39,1,48,19,2184177972
95,21,5,ISIP_5,40,1,48,35,2184630000
95,21,5,ISIP_5,41,5,42,127,2184660476
95,21,5,ISIP_5,42,5,42,127,2185159956
95,21,5,ISIP_5,43,1,48,27,2185171452
95,21,5,ISIP_5,44,5,42,127,2185659872
95,21,5,ISIP_5,45,1,48,30,2185676908
95,21,5,ISIP_5,46,5,42,127,2186159420
95,21,5,ISIP_5,47,1,48,25,2186178392
95,21,5,ISIP_5,48,5,42,127,2186660088
95,21,5,ISIP_5,49,1,48,27,2186700604
95,21,5,ISIP_5,50,5,42,127,2187159856
95,21,5,ISIP_5,51,1,48,20,2187186984
95,21,5,ISIP_5,52,5,42,127,2187659704
95,21,5,ISIP_5,53,1,48,25,2187690048
95,21,5,ISIP_5,54,5,42,127,2188160296
95,21,5,ISIP_5,55,1,48,27,2188164460
95,21,5,ISIP_5,56,1,48,31,2188659684
95,21,5,ISIP_5,57,5,42,127,2188661176
95,21,5,ISIP_5,58,5,42,127,2189159760
95,21,5,ISIP_5,59,1,48,26,2189228920
95,21,5,ISIP_5,60,5,42,127,2189659676
95,21,5,ISIP_5,61,1,48,27,2189689420
95,21,5,ISIP_5,62,5,42,127,2190160268
95,21,5,ISIP_5,63,1,48,23,2190211260
95,21,5,ISIP_5,64,5,42,127,2190659964
95,21,5,ISIP_5,65,1,48,28,2190691204
95,21,5,ISIP_5,66,5,42,127,2191159584
95,21,5,ISIP_5,67,1,48,31,2191182224
95,21,5,ISIP_5,68,5,42,127,2191660324
95,21,5,ISIP_5,69,1,48,23,2191677204
95,21,5,ISIP_5,70,5,42,127,2192160096
95,21,5,ISIP_5,71,1,48,24,2192184828
95,21,5,ISIP_5,72,1,48,23,2192635636
95,21,5,ISIP_5,73,5,42,127,2192659856
95,21,5,ISIP_5,74,1,48,21,2193156748
95,21,5,ISIP_5,75,5,42,127,2193159404
95,21,5,ISIP_5,76,1,48,27,2193633904
95,21,5,ISIP_5,77,5,42,127,2193660120
95,21,5,ISIP_5,78,1,48,27,2194161364
95,21,5,ISIP_5,79,1,48,21,2194635608
95,21,5,ISIP_5,80,1,48,20,2195146972
95,21,5,ISIP_5,81,1,48,23,2195646432
95,21,5,ISIP_5,82,1,48,28,2196123988
95,21,5,ISIP_5,83,1,48,24,2196645968
95,21,5,ISIP_5,84,1,48,25,2197146476
95,21,5,ISIP_5,85,1,48,27,2197660320
95,21,5,ISIP_5,86,1,48,24,2198172500
95,21,5,ISIP_5,87,1,48,21,2198657904
95,21,5,ISIP_5,88,1,48,23,2199156160
95,21,5,ISIP_5,89,1,48,27,2199670524
95,21,5,ISIP_5,90,1,48,31,2200168272
95,21,5,ISIP_5,91,1,48,26,2200664968
95,21,5,ISIP_5,92,1,48,25,2201183736
95,21,5,ISIP_5,93,1,48,26,2201690008
95,21,5,ISIP_5,94,1,48,23,2202174592
95,21,5,ISIP_5,95,1,48,26,2202674432
95,21,5,ISIP_5,96,1,48,24,2203171576
95,21,5,ISIP_5,97,1,48,21,2203676352
95,21,5,ISIP_5,98,1,48,25,2204195196
95,21,5,ISIP_5,99,1,48,22,2204714556
95,21,5,ISIP_5,100,1,48,27,2205213648
95,21,5,ISIP_5,101,1,48,20,2205752684
95,21,5,ISIP_5,102,1,48,26,2206237188
95,21,5,ISIP_5,103,1,48,25,2206748700
95,21,5,ISIP_5,104,1,48,22,2207256168
95,21,5,ISIP_5,105,1,48,23,2207736088
95,21,5,ISIP_5,106,1,48,25,2208232716
95,21,5,ISIP_5,107,1,48,23,2208743624
95,21,5,ISIP_5,108,1,48,23,2209254304
95,21,5,ISIP_5,109,1,48,21,2209736720
95,21,5,ISIP_5,110,1,48,20,2210256304
95,21,5,ISIP_5,111,1,48,29,2210745000
95,21,5,ISIP_5,112,1,48,26,2211240500
95,21,5,ISIP_5,113,1,48,26,2211752236
95,21,5,ISIP_5,114,1,48,24,2212242652
95,21,5,ISIP_5,115,1,48,23,2212720800
95,21,5,ISIP_5,116,1,48,26,2213254896
95,21,5,ISIP_5,117,1,48,24,2213737304
95,21,5,ISIP_5,118,1,48,21,2214251508
95,21,5,ISIP_5,119,1,48,28,2214725616
95,21,5,ISIP_5,120,1,48,23,2215212668
95,21,5,ISIP_5,121,1,48,24,2215709892
95,21,5,ISIP_5,122,1,48,26,2216227460
95,21,5,ISIP_5,123,1,48,21,2216711064
95,21,5,ISIP_5,124,1,48,24,2217218536
95,21,5,ISIP_5,125,1,48,24,2217718276
95,21,5,ISIP_5,126,1,48,25,2218228740
95,21,5,ISIP_5,127,1,48,27,2218711000
95,21,5,ISIP_5,128,1,48,23,2219218916
95,21,5,ISIP_5,129,1,48,29,2219714344
95,21,5,ISIP_5,130,1,48,28,2220201768
95,21,5,ISIP_5,131,1,48,17,2220271836
95,21,5,ISIP_5,132,1,48,19,2220716324
95,21,5,ISIP_5,133,1,48,23,2221229256
95,21,5,ISIP_5,134,1,48,23,2221739788
95,21,5,ISIP_5,135,1,48,32,2222219808
95,21,5,ISIP_5,136,1,48,23,2222736628
95,21,5,ISIP_5,137,1,48,24,2223250376
95,21,5,ISIP_5,138,1,48,27,2223733988
95,21,5,ISIP_5,139,1,48,25,2224247892
95,21,5,ISIP_5,140,1,48,20,2224742648
95,21,5,ISIP_5,141,1,48,16,2225257144
95,21,5,ISIP_5,142,1,48,29,2225740528
95,21,5,ISIP_5,143,1,48,24,2226262660
95,21,5,ISIP_5,144,1,48,15,2226802592
95,21,5,ISIP_5,145,1,48,21,2227264208
95,21,5,ISIP_5,146,1,48,16,2227756944
95,21,5,ISIP_5,147,1,48,22,2228258800
95,21,5,ISIP_5,148,1,48,24,2228762688
95,21,5,ISIP_5,149,1,48,23,2229265444
95,21,5,ISIP_5,150,1,48,27,2229749248
95,21,5,ISIP_5,151,1,48,27,2230235476
95,21,5,ISIP_5,152,1,48,26,2230734640
95,21,5,ISIP_5,153,1,48,27,2231243908
95,21,5,ISIP_5,154,1,48,24,2231724972
95,21,5,ISIP_5,155,1,48,24,2232206416
95,21,5,ISIP_5,156,1,48,21,2232678200
95,21,5,ISIP_5,157,1,48,21,2233213500
95,21,5,ISIP_5,158,1,48,25,2233698380
95,21,5,ISIP_5,159,1,48,26,2234194852
95,21,5,ISIP_5,160,1,48,26,2234653844
95,21,5,ISIP_5,161,1,48,24,2235162296
95,21,5,ISIP_5,162,1,48,22,2235656664
95,21,5,ISIP_5,163,1,48,17,2236160604
95,21,5,ISIP_5,164,1,48,21,2236641804
95,21,5,ISIP_5,165,1,48,23,2237149352
95,21,5,ISIP_5,166,1,48,26,2237617328
95,21,5,ISIP_5,167,1,48,23,2238100260
95,21,5,ISIP_5,168,1,48,29,2238578632
95,21,5,ISIP_5,169,1,48,25,2239063368
95,21,5,ISIP_5,170,1,48,24,2239554304
95,21,5,ISIP_5,171,1,48,26,2240034248
95,21,5,ISIP_5,172,1,48,27,2240533044
95,21,5,ISIP_5,173,1,48,33,2241071100
95,21,5,ISIP_5,174,1,48,27,2241567056
95,21,5,ISIP_5,175,1,48,19,2242044956
95,21,5,ISIP_5,176,1,48,20,2242543448
95,21,5,ISIP_5,177,1,48,24,2242998484
95,21,5,ISIP_5,178,1,48,21,2243493832
95,21,5,ISIP_5,179,1,48,24,2243996068
95,21,5,ISIP_5,180,1,48,15,2244450584
95,21,5,ISIP_5,181,1,48,18,2244969872
95,21,5,ISIP_5,182,1,48,25,2245442260
95,21,5,ISIP_5,183,1,48,26,2245943820
95,21,5,ISIP_5,184,1,48,27,2246430796
95,21,5,ISIP_5,185,1,48,27,2246901140
95,21,5,ISIP_5,186,1,48,27,2247391708
95,21,5,ISIP_5,187,1,48,29,2247883844
95,21,5,ISIP_5,188,1,48,32,2248337080
95,21,5,ISIP_5,189,1,48,21,2248859580
95,21,5,ISIP_5,190,1,48,25,2249374760
95,21,5,ISIP_5,191,1,48,24,2249873900
95,21,5,ISIP_5,192,1,48,18,2250329164
95,21,5,ISIP_5,193,1,48,24,2250833492
95,21,5,ISIP_5,194,1,48,28,2251320016
95,21,5,ISIP_5,195,1,48,27,2251790012
95,21,5,ISIP_5,196,1,48,34,2252752812
95,21,5,ISIP_5,197,1,48,32,2253261108
95,21,5,ISIP_5,198,1,48,27,2253759148
95,21,5,ISIP_5,0,9999,9999,9999,2174157880
95,21,5,ISIP_5,1,9999,9999,9999,2174657596
95,21,5,ISIP_5,2,9999,9999,9999,2175157304
95,21,5,ISIP_5,3,9999,9999,9999,2175658052
95,21,5,ISIP_5,4,9999,9999,9999,2176157748
95,21,5,ISIP_5,5,9999,9999,9999,2176657520
95,21,5,ISIP_5,6,9999,9999,9999,2177157208
95,21,5,ISIP_5,7,9999,9999,9999,2177657956
95,21,5,ISIP_5,8,9999,9999,9999,2178157652
95,21,5,ISIP_5,9,9999,9999,9999,2178657348
95,21,5,ISIP_5,10,9999,9999,9999,2179158092
95,21,5,ISIP_5,11,9999,9999,9999,2179657784
95,21,5,ISIP_5,12,9999,9999,9999,2180157552
95,21,5,ISIP_5,13,9999,9999,9999,2180657244
95,21,5,ISIP_5,14,9999,9999,9999,2181157984
95,21,5,ISIP_5,15,9999,9999,9999,2181657680
95,21,5,ISIP_5,16,9999,9999,9999,2182157384
95,21,5,ISIP_5,17,9999,9999,9999,2182657128
95,21,5,ISIP_5,18,9999,9999,9999,2183157844
95,21,5,ISIP_5,19,9999,9999,9999,2183657536
95,21,5,ISIP_5,20,9999,9999,9999,2184157232
95,21,5,ISIP_5,21,9999,9999,9999,2184658040
95,21,5,ISIP_5,22,9999,9999,9999,2185157744
95,21,5,ISIP_5,23,9999,9999,9999,2185657436
95,21,5,ISIP_5,24,9999,9999,9999,2186157132
95,21,5,ISIP_5,25,9999,9999,9999,2186657872
95,21,5,ISIP_5,26,9999,9999,9999,2187157568
95,21,5,ISIP_5,27,9999,9999,9999,2187657264
95,21,5,ISIP_5,28,9999,9999,9999,2188158004
95,21,5,ISIP_5,29,9999,9999,9999,2188657776
95,21,5,ISIP_5,30,9999,9999,9999,2189157472
95,21,5,ISIP_5,31,9999,9999,9999,2189657164
95,21,5,ISIP_5,32,9999,9999,9999,2190157904
95,21,5,ISIP_5,33,9999,9999,9999,2190657604
95,21,5,ISIP_5,34,9999,9999,9999,2191157296
95,21,5,ISIP_5,35,9999,9999,9999,2191658036
95,21,5,ISIP_5,36,9999,9999,9999,2192157804
95,21,5,ISIP_5,37,9999,9999,9999,2192657496
95,21,5,ISIP_5,38,9999,9999,9999,2193157192
95,21,5,ISIP_5,39,9999,9999,9999,2193657908
95,21,5,ISIP_5,40,9999,9999,9999,2194157684
95,21,5,ISIP_5,41,9999,9999,9999,2194657368
95,21,5,ISIP_5,42,9999,9999,9999,2195158104
95,21,5,ISIP_5,43,9999,9999,9999,2195657796
95,21,5,ISIP_5,44,9999,9999,9999,2196157560
95,21,5,ISIP_5,45,9999,9999,9999,2196657252
95,21,5,ISIP_5,46,9999,9999,9999,2197157988
95,21,5,ISIP_5,47,9999,9999,9999,2197657684
95,21,5,ISIP_5,48,9999,9999,9999,2198157376
95,21,5,ISIP_5,49,9999,9999,9999,2198657144
95,21,5,ISIP_5,50,9999,9999,9999,2199157872
95,21,5,ISIP_5,51,9999,9999,9999,2199657572
95,21,5,ISIP_5,52,9999,9999,9999,2200157260
95,21,5,ISIP_5,53,9999,9999,9999,2200658000
95,21,5,ISIP_5,54,9999,9999,9999,2201157692
95,21,5,ISIP_5,55,9999,9999,9999,2201657456
95,21,5,ISIP_5,56,9999,9999,9999,2202157148
95,21,5,ISIP_5,57,9999,9999,9999,2202657884
95,21,5,ISIP_5,58,9999,9999,9999,2203157576
95,21,5,ISIP_5,59,9999,9999,9999,2203657268
95,21,5,ISIP_5,60,9999,9999,9999,2204158052
95,21,5,ISIP_5,61,9999,9999,9999,2204657744
95,21,5,ISIP_5,62,9999,9999,9999,2205157436
95,21,5,ISIP_5,63,9999,9999,9999,2205657200
95,21,5,ISIP_5,64,9999,9999,9999,2206157936
95,21,5,ISIP_5,65,9999,9999,9999,2206657628
95,21,5,ISIP_5,66,9999,9999,9999,2207157320
95,21,5,ISIP_5,67,9999,9999,9999,2207658056
95,21,5,ISIP_5,68,9999,9999,9999,2208157748
95,21,5,ISIP_5,69,9999,9999,9999,2208657512
95,21,5,ISIP_5,70,9999,9999,9999,2209157204
95,21,5,ISIP_5,71,9999,9999,9999,2209657940
95,21,5,ISIP_5,72,9999,9999,9999,2210157632
95,21,5,ISIP_5,73,9999,9999,9999,2210657396
95,21,5,ISIP_5,74,9999,9999,9999,2211158132
95,21,5,ISIP_5,75,9999,9999,9999,2211657824
95,21,5,ISIP_5,76,9999,9999,9999,2212157512
95,21,5,ISIP_5,77,9999,9999,9999,2212657204
95,21,5,ISIP_5,78,9999,9999,9999,2213157940
95,21,5,ISIP_5,79,9999,9999,9999,2213657708
95,21,5,ISIP_5,80,9999,9999,9999,2214157396
95,21,5,ISIP_5,81,9999,9999,9999,2214657140
95,21,5,ISIP_5,82,9999,9999,9999,2215157876
95,21,5,ISIP_5,83,9999,9999,9999,2215657568
95,21,5,ISIP_5,84,9999,9999,9999,2216157256
95,21,5,ISIP_5,85,9999,9999,9999,2216657996
95,21,5,ISIP_5,86,9999,9999,9999,2217157684
95,21,5,ISIP_5,87,9999,9999,9999,2217657448
95,21,5,ISIP_5,88,9999,9999,9999,2218157140
95,21,5,ISIP_5,89,9999,9999,9999,2218657880
95,21,5,ISIP_5,90,9999,9999,9999,2219157568
95,21,5,ISIP_5,91,9999,9999,9999,2219657332
95,21,5,ISIP_5,92,9999,9999,9999,2220158068
95,21,5,ISIP_5,93,9999,9999,9999,2220657740
95,21,5,ISIP_5,94,9999,9999,9999,2221157432
95,21,5,ISIP_5,95,9999,9999,9999,2221657196
95,21,5,ISIP_5,96,9999,9999,9999,2222157932
95,21,5,ISIP_5,97,9999,9999,9999,2222657624
95,21,5,ISIP_5,98,9999,9999,9999,2223157312
95,21,5,ISIP_5,99,9999,9999,9999,2223658052
95,21,5,ISIP_5,100,9999,9999,9999,2224157816
95,21,5,ISIP_5,101,9999,9999,9999,2224657508
95,21,5,ISIP_5,102,9999,9999,9999,2225157200
95,21,5,ISIP_5,103,9999,9999,9999,2225657912
95,21,5,ISIP_5,104,9999,9999,9999,2226157676
95,21,5,ISIP_5,105,9999,9999,9999,2226657368
95,21,5,ISIP_5,106,9999,9999,9999,2227158108
95,21,5,ISIP_5,107,9999,9999,9999,2227657796
95,21,5,ISIP_5,108,9999,9999,9999,2228157560
95,21,5,ISIP_5,109,9999,9999,9999,2228657252
95,21,5,ISIP_5,110,9999,9999,9999,2229157992
95,21,5,ISIP_5,111,9999,9999,9999,2229657680
95,21,5,ISIP_5,112,9999,9999,9999,2230157372
95,21,5,ISIP_5,113,9999,9999,9999,2230657136
95,21,5,ISIP_5,114,9999,9999,9999,2231157872
95,21,5,ISIP_5,115,9999,9999,9999,2231657564
95,21,5,ISIP_5,116,9999,9999,9999,2232157256
95,21,5,ISIP_5,117,9999,9999,9999,2232657992
95,21,5,ISIP_5,118,9999,9999,9999,2233157684
95,21,5,ISIP_5,119,9999,9999,9999,2233657448
95,21,5,ISIP_5,120,9999,9999,9999,2234157140
95,21,5,ISIP_5,121,9999,9999,9999,2234657872
95,21,5,ISIP_5,122,9999,9999,9999,2235157568
95,21,5,ISIP_5,123,9999,9999,9999,2235657328
95,21,5,ISIP_5,124,9999,9999,9999,2236158044
95,21,5,ISIP_5,125,9999,9999,9999,2236657728
95,21,5,ISIP_5,126,9999,9999,9999,2237157492
95,21,5,ISIP_5,127,9999,9999,9999,2237657184
95,21,5,ISIP_5,128,9999,9999,9999,2238157924
95,21,5,ISIP_5,129,9999,9999,9999,2238657612
95,21,5,ISIP_5,130,9999,9999,9999,2239157304
95,21,5,ISIP_5,131,9999,9999,9999,2239658100
95,21,5,ISIP_5,132,9999,9999,9999,2240157792
95,21,5,ISIP_5,133,9999,9999,9999,2240657480
95,21,5,ISIP_5,134,9999,9999,9999,2241157188
95,21,5,ISIP_5,135,9999,9999,9999,2241657924
95,21,5,ISIP_5,136,9999,9999,9999,2242157676
95,21,5,ISIP_5,137,9999,9999,9999,2242657368
95,21,5,ISIP_5,138,9999,9999,9999,2243158104
95,21,5,ISIP_5,139,9999,9999,9999,2243657792
95,21,5,ISIP_5,140,9999,9999,9999,2244157556
95,21,5,ISIP_5,141,9999,9999,9999,2244657248
95,21,5,ISIP_5,142,9999,9999,9999,2245157984
95,21,5,ISIP_5,143,9999,9999,9999,2245657676
95,21,5,ISIP_5,144,9999,9999,9999,2246157368
95,21,5,ISIP_5,145,9999,9999,9999,2246657132
95,21,5,ISIP_5,146,9999,9999,9999,2247157844
95,21,5,ISIP_5,147,9999,9999,9999,2247657536
95,21,5,ISIP_5,148,9999,9999,9999,2248157300
95,21,5,ISIP_5,149,9999,9999,9999,2248658036
95,21,5,ISIP_5,150,9999,9999,9999,2249157728
95,21,5,ISIP_5,151,9999,9999,9999,2249657392
95,21,5,ISIP_5,152,9999,9999,9999,2250157160
95,21,5,ISIP_5,153,9999,9999,9999,2250657900
95,21,5,ISIP_5,154,9999,9999,9999,2251157588
95,21,5,ISIP_5,155,9999,9999,9999,2251657280
95,21,5,ISIP_5,156,9999,9999,9999,2252158016
95,21,5,ISIP_5,157,9999,9999,9999,2252657728
95,21,5,ISIP_5,158,9999,9999,9999,2253157496
95,21,5,ISIP_5,159,9999,9999,9999,2253657184
95,22,11,Pattern_Practice,0,5,42,127,2357024208
95,22,11,Pattern_Practice,1,5,42,127,2357523920
95,22,11,Pattern_Practice,2,5,42,127,2358023640
95,22,11,Pattern_Practice,3,5,42,127,2358524252
95,22,11,Pattern_Practice,4,5,42,127,2359024092
95,22,11,Pattern_Practice,5,1,48,25,2359042128
95,22,11,Pattern_Practice,6,1,48,20,2359300180
95,22,11,Pattern_Practice,7,1,48,19,2359378844
95,22,11,Pattern_Practice,8,1,48,18,2359520788
95,22,11,Pattern_Practice,9,5,42,127,2359523664
95,22,11,Pattern_Practice,10,1,48,24,2359742812
95,22,11,Pattern_Practice,11,1,48,19,2359852764
95,22,11,Pattern_Practice,12,1,48,26,2359985508
95,22,11,Pattern_Practice,13,5,42,127,2360024512
95,22,11,Pattern_Practice,14,1,48,24,2360218680
95,22,11,Pattern_Practice,15,1,48,26,2360325936
95,22,11,Pattern_Practice,16,1,48,18,2360488528
95,22,11,Pattern_Practice,17,5,42,127,2360524164
95,22,11,Pattern_Practice,18,1,48,23,2360731116
95,22,11,Pattern_Practice,19,1,48,25,2360851696
95,22,11,Pattern_Practice,20,1,48,23,2360977108
95,22,11,Pattern_Practice,21,5,42,127,2361023740
95,22,11,Pattern_Practice,22,1,48,21,2361239292
95,22,11,Pattern_Practice,23,1,48,24,2361330828
95,22,11,Pattern_Practice,24,5,42,127,2361523696
95,22,11,Pattern_Practice,25,1,48,25,2361770756
95,22,11,Pattern_Practice,26,1,48,19,2361874876
95,22,11,Pattern_Practice,27,5,42,127,2362024340
95,22,11,Pattern_Practice,28,1,48,24,2362028804
95,22,11,Pattern_Practice,29,1,48,21,2362289852
95,22,11,Pattern_Practice,30,1,48,26,2362389036
95,22,11,Pattern_Practice,31,5,42,127,2362523992
95,22,11,Pattern_Practice,32,1,48,18,2362553368
95,22,11,Pattern_Practice,33,1,48,25,2362786288
95,22,11,Pattern_Practice,34,1,48,26,2362894820
95,22,11,Pattern_Practice,35,5,42,127,2363023716
95,22,11,Pattern_Practice,36,1,48,25,2363051072
95,22,11,Pattern_Practice,37,1,48,22,2363300900
95,22,11,Pattern_Practice,38,1,48,24,2363396420
95,22,11,Pattern_Practice,39,5,42,127,2363523516
95,22,11,Pattern_Practice,40,1,48,17,2363574956
95,22,11,Pattern_Practice,41,1,48,24,2363805040
95,22,11,Pattern_Practice,42,1,48,19,2363926364
95,22,11,Pattern_Practice,43,5,42,127,2364024160
95,22,11,Pattern_Practice,44,1,48,23,2364057404
95,22,11,Pattern_Practice,45,1,48,18,2364310900
95,22,11,Pattern_Practice,46,1,48,23,2364406468
95,22,11,Pattern_Practice,47,5,42,127,2364523872
95,22,11,Pattern_Practice,48,1,48,15,2364586452
95,22,11,Pattern_Practice,49,1,48,23,2364808680
95,22,11,Pattern_Practice,50,1,48,20,2364933596
95,22,11,Pattern_Practice,51,5,42,127,2365023612
95,22,11,Pattern_Practice,52,1,48,24,2365078624
95,22,11,Pattern_Practice,53,1,48,17,2365341916
95,22,11,Pattern_Practice,54,1,48,22,2365436756
95,22,11,Pattern_Practice,55,5,42,127,2365524380
95,22,11,Pattern_Practice,56,1,48,24,2365834556
95,22,11,Pattern_Practice,57,1,48,18,2365932596
95,22,11,Pattern_Practice,58,5,42,127,2366023980
95,22,11,Pattern_Practice,59,1,48,26,2366112500
95,22,11,Pattern_Practice,60,1,48,16,2366358212
95,22,11,Pattern_Practice,61,1,48,24,2366465700
95,22,11,Pattern_Practice,62,5,42,127,2366523852
95,22,11,Pattern_Practice,63,1,48,18,2366658524
95,22,11,Pattern_Practice,64,1,48,25,2366893248
95,22,11,Pattern_Practice,65,5,42,127,2367023588
95,22,11,Pattern_Practice,66,1,48,29,2367025304
95,22,11,Pattern_Practice,67,1,48,25,2367169248
95,22,11,Pattern_Practice,68,1,48,23,2367466272
95,22,11,Pattern_Practice,69,5,42,127,2367524076
95,22,11,Pattern_Practice,70,1,48,20,2367539376
95,22,11,Pattern_Practice,71,5,42,127,2368023980
95,22,11,Pattern_Practice,72,1,48,26,2368246856
95,22,11,Pattern_Practice,73,1,48,29,2368434000
95,22,11,Pattern_Practice,74,5,42,127,2368523592
95,22,11,Pattern_Practice,75,5,42,127,2369024640
95,22,11,Pattern_Practice,76,1,48,36,2369372676
95,22,11,Pattern_Practice,77,1,48,37,2369457400
95,22,11,Pattern_Practice,78,5,42,127,2369524004
95,22,11,Pattern_Practice,79,1,48,27,2369606796
95,22,11,Pattern_Practice,80,1,48,27,2369854900
95,22,11,Pattern_Practice,81,1,48,25,2369952636
95,22,11,Pattern_Practice,82,5,42,127,2370023804
95,22,11,Pattern_Practice,83,1,48,19,2370122224
95,22,11,Pattern_Practice,84,1,48,24,2370343480
95,22,11,Pattern_Practice,85,1,48,23,2370484528
95,22,11,Pattern_Practice,86,5,42,127,2370523604
95,22,11,Pattern_Practice,87,1,48,23,2370574756
95,22,11,Pattern_Practice,88,1,48,23,2370853908
95,22,11,Pattern_Practice,89,1,48,25,2370959192
95,22,11,Pattern_Practice,90,5,42,127,2371024452
95,22,11,Pattern_Practice,91,1,48,14,2371120704
95,22,11,Pattern_Practice,92,1,48,22,2371359312
95,22,11,Pattern_Practice,93,1,48,23,2371488464
95,22,11,Pattern_Practice,94,5,42,127,2371523808
95,22,11,Pattern_Practice,95,1,48,23,2371613252
95,22,11,Pattern_Practice,96,1,48,21,2371881624
95,22,11,Pattern_Practice,97,1,48,25,2371966128
95,22,11,Pattern_Practice,98,5,42,127,2372023604
95,22,11,Pattern_Practice,99,1,48,19,2372168548
95,22,11,Pattern_Practice,100,1,48,20,2372394592
95,22,11,Pattern_Practice,101,1,48,24,2372516564
95,22,11,Pattern_Practice,102,5,42,127,2372524676
95,22,11,Pattern_Practice,103,1,48,23,2372638732
95,22,11,Pattern_Practice,104,1,48,25,2372916904
95,22,11,Pattern_Practice,105,1,48,21,2373007840
95,22,11,Pattern_Practice,106,5,42,127,2373024104
95,22,11,Pattern_Practice,107,1,48,20,2373164192
95,22,11,Pattern_Practice,108,1,48,22,2373391580
95,22,11,Pattern_Practice,109,5,42,127,2373523764
95,22,11,Pattern_Practice,110,1,48,28,2373540644
95,22,11,Pattern_Practice,111,1,48,20,2373631600
95,22,11,Pattern_Practice,112,1,48,26,2373914040
95,22,11,Pattern_Practice,113,1,48,22,2374019856
95,22,11,Pattern_Practice,114,5,42,127,2374023480
95,22,11,Pattern_Practice,115,1,48,20,2374185260
95,22,11,Pattern_Practice,116,1,48,20,2374403968
95,22,11,Pattern_Practice,117,5,42,127,2374524484
95,22,11,Pattern_Practice,118,1,48,23,2374539428
95,22,11,Pattern_Practice,119,1,48,19,2374640228
95,22,11,Pattern_Practice,120,1,48,22,2374885420
95,22,11,Pattern_Practice,121,1,48,19,2374968672
95,22,11,Pattern_Practice,122,5,42,127,2375023832
95,22,11,Pattern_Practice,123,1,48,15,2375161872
95,22,11,Pattern_Practice,124,1,48,18,2375396740
95,22,11,Pattern_Practice,125,1,48,19,2375498540
95,22,11,Pattern_Practice,126,5,42,127,2375523560
95,22,11,Pattern_Practice,127,1,48,20,2375631376
95,22,11,Pattern_Practice,128,1,48,21,2375914412
95,22,11,Pattern_Practice,129,1,48,19,2375976200
95,22,11,Pattern_Practice,130,5,42,127,2376024628
95,22,11,Pattern_Practice,131,1,48,14,2376164540
95,22,11,Pattern_Practice,132,1,48,19,2376409128
95,22,11,Pattern_Practice,133,1,48,22,2376523608
95,22,11,Pattern_Practice,134,5,42,127,2376525176
95,22,11,Pattern_Practice,135,1,48,18,2376648780
95,22,11,Pattern_Practice,136,1,48,25,2376907956
95,22,11,Pattern_Practice,137,5,42,127,2377023788
95,22,11,Pattern_Practice,138,5,42,127,2377523576
95,22,11,Pattern_Practice,139,1,48,21,2377553844
95,22,11,Pattern_Practice,140,1,48,25,2377692648
95,22,11,Pattern_Practice,141,1,48,13,2377936716
95,22,11,Pattern_Practice,142,5,42,127,2378024588
95,22,11,Pattern_Practice,143,1,48,21,2378070104
95,22,11,Pattern_Practice,144,1,48,13,2378240124
95,22,11,Pattern_Practice,145,1,48,27,2378448708
95,22,11,Pattern_Practice,146,5,42,127,2378524016
95,22,11,Pattern_Practice,147,1,48,18,2378603488
95,22,11,Pattern_Practice,148,1,48,24,2378694496
95,22,11,Pattern_Practice,149,1,48,18,2378981872
95,22,11,Pattern_Practice,150,5,42,127,2379023668
95,22,11,Pattern_Practice,151,1,48,21,2379092668
95,22,11,Pattern_Practice,152,1,48,17,2379229148
95,22,11,Pattern_Practice,153,1,48,20,2379482420
95,22,11,Pattern_Practice,154,5,42,127,2379523392
95,22,11,Pattern_Practice,155,1,48,18,2379590748
95,22,11,Pattern_Practice,156,1,48,22,2379741372
95,22,11,Pattern_Practice,157,1,48,18,2380022172
95,22,11,Pattern_Practice,158,5,42,127,2380024360
95,22,11,Pattern_Practice,159,1,48,16,2380097704
95,22,11,Pattern_Practice,160,1,48,13,2380314696
95,22,11,Pattern_Practice,161,5,42,127,2380523848
95,22,11,Pattern_Practice,162,1,48,24,2380574632
95,22,11,Pattern_Practice,163,1,48,18,2380677084
95,22,11,Pattern_Practice,164,1,48,25,2380816588
95,22,11,Pattern_Practice,165,5,42,127,2381023500
95,22,11,Pattern_Practice,166,1,48,24,2381093360
95,22,11,Pattern_Practice,167,1,48,23,2381180108
95,22,11,Pattern_Practice,168,1,48,13,2381373084
95,22,11,Pattern_Practice,169,5,42,127,2381524716
95,22,11,Pattern_Practice,170,1,48,20,2381584712
95,22,11,Pattern_Practice,171,1,48,20,2381706228
95,22,11,Pattern_Practice,172,1,48,24,2381849396
95,22,11,Pattern_Practice,173,5,42,127,2382023996
95,22,11,Pattern_Practice,174,1,48,21,2382133580
95,22,11,Pattern_Practice,175,1,48,23,2382214264
95,22,11,Pattern_Practice,176,1,48,17,2382367756
95,22,11,Pattern_Practice,177,5,42,127,2382523724
95,22,11,Pattern_Practice,178,1,48,23,2382612212
95,22,11,Pattern_Practice,179,1,48,23,2382756476
95,22,11,Pattern_Practice,180,1,48,21,2382870548
95,22,11,Pattern_Practice,181,5,42,127,2383023452
95,22,11,Pattern_Practice,182,1,48,22,2383138868
95,22,11,Pattern_Practice,183,1,48,20,2383235408
95,22,11,Pattern_Practice,184,1,48,21,2383400640
95,22,11,Pattern_Practice,185,5,42,127,2383524372
95,22,11,Pattern_Practice,186,1,48,18,2383620640
95,22,11,Pattern_Practice,187,1,48,28,2383743808
95,22,11,Pattern_Practice,188,1,48,20,2383855384
95,22,11,Pattern_Practice,189,5,42,127,2384024396
95,22,11,Pattern_Practice,190,1,48,24,2384142128
95,22,11,Pattern_Practice,191,1,48,20,2384250344
95,22,11,Pattern_Practice,192,1,48,20,2384349124
95,22,11,Pattern_Practice,193,5,42,127,2384523672
95,22,11,Pattern_Practice,194,1,48,19,2384629264
95,22,11,Pattern_Practice,195,1,48,24,2384754624
95,22,11,Pattern_Practice,196,1,48,16,2384861040
95,22,11,Pattern_Practice,197,5,42,127,2385024296
95,22,11,Pattern_Practice,198,1,48,25,2385150704
95,22,11,Pattern_Practice,199,1,48,17,2385267220
95,22,11,Pattern_Practice,200,1,48,20,2385420180
95,22,11,Pattern_Practice,201,5,42,127,2385524020
95,22,11,Pattern_Practice,202,1,48,20,2385696728
95,22,11,Pattern_Practice,203,1,48,23,2385822592
95,22,11,Pattern_Practice,204,1,48,17,2385942648
95,22,11,Pattern_Practice,205,5,42,127,2386023760
95,22,11,Pattern_Practice,206,1,48,22,2386231232
95,22,11,Pattern_Practice,207,1,48,16,2386350516
95,22,11,Pattern_Practice,208,1,48,17,2386495176
95,22,11,Pattern_Practice,209,5,42,127,2386523636
95,22,11,Pattern_Practice,210,1,48,14,2386764100
95,22,11,Pattern_Practice,211,1,48,16,2386886672
95,22,11,Pattern_Practice,212,1,48,15,2386999396
95,22,11,Pattern_Practice,213,5,42,127,2387024184
95,22,11,Pattern_Practice,214,1,48,14,2387282148
95,22,11,Pattern_Practice,215,1,48,14,2387387892
95,22,11,Pattern_Practice,216,5,42,127,2387523844
95,22,11,Pattern_Practice,217,1,48,13,2387524808
95,22,11,Pattern_Practice,218,1,48,21,2387808800
95,22,11,Pattern_Practice,219,1,48,16,2387949396
95,22,11,Pattern_Practice,220,5,42,127,2388023732
95,22,11,Pattern_Practice,221,1,48,22,2388062216
95,22,11,Pattern_Practice,222,1,48,15,2388313760
95,22,11,Pattern_Practice,223,1,48,23,2388423244
95,22,11,Pattern_Practice,224,5,42,127,2388524488
95,22,11,Pattern_Practice,225,1,48,21,2388828912
95,22,11,Pattern_Practice,226,1,48,16,2388937348
95,22,11,Pattern_Practice,227,5,42,127,2389024324
95,22,11,Pattern_Practice,228,1,48,29,2389083600
95,22,11,Pattern_Practice,229,1,48,15,2389353624
95,22,11,Pattern_Practice,230,1,48,22,2389410824
95,22,11,Pattern_Practice,231,5,42,127,2389523736
95,22,11,Pattern_Practice,232,1,48,19,2389598360
95,22,11,Pattern_Practice,233,1,48,20,2389857612
95,22,11,Pattern_Practice,234,1,48,18,2389955800
95,22,11,Pattern_Practice,235,5,42,127,2390023552
95,22,11,Pattern_Practice,236,1,48,23,2390096884
95,22,11,Pattern_Practice,237,1,48,20,2390353076
95,22,11,Pattern_Practice,238,1,48,23,2390442360
95,22,11,Pattern_Practice,239,5,42,127,2390524472
95,22,11,Pattern_Practice,240,1,48,13,2390580156
95,22,11,Pattern_Practice,241,1,48,25,2390840008
95,22,11,Pattern_Practice,242,1,48,19,2390967816
95,22,11,Pattern_Practice,243,5,42,127,2391024096
95,22,11,Pattern_Practice,244,1,48,25,2391104416
95,22,11,Pattern_Practice,245,1,48,24,2391340632
95,22,11,Pattern_Practice,246,1,48,29,2391461040
95,22,11,Pattern_Practice,247,5,42,127,2391523676
95,22,11,Pattern_Practice,248,1,48,21,2391590088
95,22,11,Pattern_Practice,249,1,48,21,2391830936
95,22,11,Pattern_Practice,250,1,48,16,2391950964
95,22,11,Pattern_Practice,251,5,42,127,2392024300
95,22,11,Pattern_Practice,252,1,48,23,2392063556
95,22,11,Pattern_Practice,253,1,48,22,2392308876
95,22,11,Pattern_Practice,254,1,48,21,2392426008
95,22,11,Pattern_Practice,255,5,42,127,2392524164
95,22,11,Pattern_Practice,256,1,48,19,2392540968
95,22,11,Pattern_Practice,257,1,48,22,2392791768
95,22,11,Pattern_Practice,258,1,48,19,2392954156
95,22,11,Pattern_Practice,259,5,42,127,2393023756
95,22,11,Pattern_Practice,260,1,48,22,2393034560
95,22,11,Pattern_Practice,261,1,48,22,2393290744
95,22,11,Pattern_Practice,262,1,48,18,2393423812
95,22,11,Pattern_Practice,263,5,42,127,2393523540
95,22,11,Pattern_Practice,264,1,48,19,2393570860
95,22,11,Pattern_Practice,265,1,48,23,2393794664
95,22,11,Pattern_Practice,266,1,48,17,2393956224
95,22,11,Pattern_Practice,267,5,42,127,2394024176
95,22,11,Pattern_Practice,268,1,48,23,2394032368
95,22,11,Pattern_Practice,269,1,48,27,2394385516
95,22,11,Pattern_Practice,270,5,42,127,2394524204
95,22,11,Pattern_Practice,271,5,42,127,2395023700
95,22,11,Pattern_Practice,272,5,42,127,2395523492
95,22,11,Pattern_Practice,273,1,38,24,2395844448
95,22,11,Pattern_Practice,274,1,38,22,2395986564
95,22,11,Pattern_Practice,275,5,42,127,2396024296
95,22,11,Pattern_Practice,276,1,38,18,2396369180
95,22,11,Pattern_Practice,277,1,38,15,2396454004
95,22,11,Pattern_Practice,278,5,42,127,2396523972
95,22,11,Pattern_Practice,279,1,38,20,2396581528
95,22,11,Pattern_Practice,280,1,38,18,2396833904
95,22,11,Pattern_Practice,281,1,38,23,2396924112
95,22,11,Pattern_Practice,0,9999,9999,9999,2357021772
95,22,11,Pattern_Practice,1,9999,9999,9999,2357521488
95,22,11,Pattern_Practice,2,9999,9999,9999,2358021204
95,22,11,Pattern_Practice,3,9999,9999,9999,2358521940
95,22,11,Pattern_Practice,4,9999,9999,9999,2359021656
95,22,11,Pattern_Practice,5,9999,9999,9999,2359521380
95,22,11,Pattern_Practice,6,9999,9999,9999,2360022076
95,22,11,Pattern_Practice,7,9999,9999,9999,2360521804
95,22,11,Pattern_Practice,8,9999,9999,9999,2361021528
95,22,11,Pattern_Practice,9,9999,9999,9999,2361521260
95,22,11,Pattern_Practice,10,9999,9999,9999,2362021980
95,22,11,Pattern_Practice,11,9999,9999,9999,2362521704
95,22,11,Pattern_Practice,12,9999,9999,9999,2363021432
95,22,11,Pattern_Practice,13,9999,9999,9999,2363521084
95,22,11,Pattern_Practice,14,9999,9999,9999,2364021872
95,22,11,Pattern_Practice,15,9999,9999,9999,2364521584
95,22,11,Pattern_Practice,16,9999,9999,9999,2365021248
95,22,11,Pattern_Practice,17,9999,9999,9999,2365522020
95,22,11,Pattern_Practice,18,9999,9999,9999,2366021696
95,22,11,Pattern_Practice,19,9999,9999,9999,2366521420
95,22,11,Pattern_Practice,20,9999,9999,9999,2367021152
95,22,11,Pattern_Practice,21,9999,9999,9999,2367521864
95,22,11,Pattern_Practice,22,9999,9999,9999,2368021620
95,22,11,Pattern_Practice,23,9999,9999,9999,2368521308
95,22,11,Pattern_Practice,24,9999,9999,9999,2369022056
95,22,11,Pattern_Practice,25,9999,9999,9999,2369521720
95,22,11,Pattern_Practice,26,9999,9999,9999,2370021444
95,22,11,Pattern_Practice,27,9999,9999,9999,2370521168
95,22,11,Pattern_Practice,28,9999,9999,9999,2371021944
95,22,11,Pattern_Practice,29,9999,9999,9999,2371521596
95,22,11,Pattern_Practice,30,9999,9999,9999,2372021320
95,22,11,Pattern_Practice,31,9999,9999,9999,2372522092
95,22,11,Pattern_Practice,32,9999,9999,9999,2373021820
95,22,11,Pattern_Practice,33,9999,9999,9999,2373521476
95,22,11,Pattern_Practice,34,9999,9999,9999,2374021196
95,22,11,Pattern_Practice,35,9999,9999,9999,2374521976
95,22,11,Pattern_Practice,36,9999,9999,9999,2375021620
95,22,11,Pattern_Practice,37,9999,9999,9999,2375521348
95,22,11,Pattern_Practice,38,9999,9999,9999,2376022116
95,22,11,Pattern_Practice,39,9999,9999,9999,2376521848
95,22,11,Pattern_Practice,40,9999,9999,9999,2377021500
95,22,11,Pattern_Practice,41,9999,9999,9999,2377521216
95,22,11,Pattern_Practice,42,9999,9999,9999,2378022004
95,22,11,Pattern_Practice,43,9999,9999,9999,2378521656
95,22,11,Pattern_Practice,44,9999,9999,9999,2379021384
95,22,11,Pattern_Practice,45,9999,9999,9999,2379521108
95,22,11,Pattern_Practice,46,9999,9999,9999,2380021892
95,22,11,Pattern_Practice,47,9999,9999,9999,2380521560
95,22,11,Pattern_Practice,48,9999,9999,9999,2381021288
95,22,11,Pattern_Practice,49,9999,9999,9999,2381521984
95,22,11,Pattern_Practice,50,9999,9999,9999,2382021708
95,22,11,Pattern_Practice,51,9999,9999,9999,2382521436
95,22,11,Pattern_Practice,52,9999,9999,9999,2383021164
95,22,11,Pattern_Practice,53,9999,9999,9999,2383521864
95,22,11,Pattern_Practice,54,9999,9999,9999,2384021588
95,22,11,Pattern_Practice,55,9999,9999,9999,2384521312
95,22,11,Pattern_Practice,56,9999,9999,9999,2385022008
95,22,11,Pattern_Practice,57,9999,9999,9999,2385521736
95,22,11,Pattern_Practice,58,9999,9999,9999,2386021476
95,22,11,Pattern_Practice,59,9999,9999,9999,2386521200
95,22,11,Pattern_Practice,60,9999,9999,9999,2387021900
95,22,11,Pattern_Practice,61,9999,9999,9999,2387521628
95,22,11,Pattern_Practice,62,9999,9999,9999,2388021368
95,22,11,Pattern_Practice,63,9999,9999,9999,2388522052
95,22,11,Pattern_Practice,64,9999,9999,9999,2389021816
95,22,11,Pattern_Practice,65,9999,9999,9999,2389521524
95,22,11,Pattern_Practice,66,9999,9999,9999,2390021188
95,22,11,Pattern_Practice,67,9999,9999,9999,2390521960
95,22,11,Pattern_Practice,68,9999,9999,9999,2391021660
95,22,11,Pattern_Practice,69,9999,9999,9999,2391521392
95,22,11,Pattern_Practice,70,9999,9999,9999,2392022088
95,22,11,Pattern_Practice,71,9999,9999,9999,2392521800
95,22,11,Pattern_Practice,72,9999,9999,9999,2393021544
95,22,11,Pattern_Practice,73,9999,9999,9999,2393521252
95,22,11,Pattern_Practice,74,9999,9999,9999,2394021964
95,22,11,Pattern_Practice,75,9999,9999,9999,2394521696
95,22,11,Pattern_Practice,76,9999,9999,9999,2395021412
95,22,11,Pattern_Practice,77,9999,9999,9999,2395521132
95,22,11,Pattern_Practice,78,9999,9999,9999,2396021864
95,22,11,Pattern_Practice,79,9999,9999,9999,2396521536
95,23,13,Improv_Metronome,0,5,42,127,2428078524
95,23,13,Improv_Metronome,1,5,42,127,2428579140
95,23,13,Improv_Metronome,2,5,42,127,2429078856
95,23,13,Improv_Metronome,3,5,42,127,2429578796
95,23,13,Improv_Metronome,4,5,42,127,2430079336
95,23,13,Improv_Metronome,5,1,48,21,2430120452
95,23,13,Improv_Metronome,6,5,42,127,2430579028
95,23,13,Improv_Metronome,7,1,48,26,2430596508
95,23,13,Improv_Metronome,8,5,42,127,2431078724
95,23,13,Improv_Metronome,9,1,48,34,2431082816
95,23,13,Improv_Metronome,10,5,42,127,2431578344
95,23,13,Improv_Metronome,11,1,48,22,2431623124
95,23,13,Improv_Metronome,12,5,42,127,2432079160
95,23,13,Improv_Metronome,13,1,48,31,2432090880
95,23,13,Improv_Metronome,14,1,48,33,2432392696
95,23,13,Improv_Metronome,15,1,48,27,2432489308
95,23,13,Improv_Metronome,16,5,42,127,2432578976
95,23,13,Improv_Metronome,17,1,48,24,2432617688
95,23,13,Improv_Metronome,18,1,48,26,2432862052
95,23,13,Improv_Metronome,19,1,48,24,2432959720
95,23,13,Improv_Metronome,20,5,42,127,2433078764
95,23,13,Improv_Metronome,21,1,48,23,2433354468
95,23,13,Improv_Metronome,22,1,48,22,2433451984
95,23,13,Improv_Metronome,23,5,42,127,2433579408
95,23,13,Improv_Metronome,24,1,48,24,2433604892
95,23,13,Improv_Metronome,25,1,48,22,2433859280
95,23,13,Improv_Metronome,26,1,48,24,2433954180
95,23,13,Improv_Metronome,27,5,42,127,2434079060
95,23,13,Improv_Metronome,28,1,48,22,2434358656
95,23,13,Improv_Metronome,29,1,48,26,2434439712
95,23,13,Improv_Metronome,30,5,42,127,2434578732
95,23,13,Improv_Metronome,31,1,48,24,2434603764
95,23,13,Improv_Metronome,32,1,48,21,2434855536
95,23,13,Improv_Metronome,33,1,48,24,2434938096
95,23,13,Improv_Metronome,34,5,42,127,2435078532
95,23,13,Improv_Metronome,35,1,48,20,2435127200
95,23,13,Improv_Metronome,36,1,48,26,2435363640
95,23,13,Improv_Metronome,37,1,48,26,2435495488
95,23,13,Improv_Metronome,38,5,42,127,2435579172
95,23,13,Improv_Metronome,39,1,48,25,2435613464
95,23,13,Improv_Metronome,40,1,48,24,2435852896
95,23,13,Improv_Metronome,41,1,48,23,2435962004
95,23,13,Improv_Metronome,42,5,42,127,2436078928
95,23,13,Improv_Metronome,43,1,48,22,2436138024
95,23,13,Improv_Metronome,44,1,48,20,2436399372
95,23,13,Improv_Metronome,45,1,48,22,2436483792
95,23,13,Improv_Metronome,46,5,42,127,2436578804
95,23,13,Improv_Metronome,47,1,48,22,2436639844
95,23,13,Improv_Metronome,48,1,48,21,2436872396
95,23,13,Improv_Metronome,49,1,48,22,2436979856
95,23,13,Improv_Metronome,50,5,42,127,2437079428
95,23,13,Improv_Metronome,51,1,48,19,2437150340
95,23,13,Improv_Metronome,52,1,48,21,2437393132
95,23,13,Improv_Metronome,53,1,48,21,2437516076
95,23,13,Improv_Metronome,54,5,42,127,2437579092
95,23,13,Improv_Metronome,55,1,48,16,2437633008
95,23,13,Improv_Metronome,56,1,48,20,2437882464
95,23,13,Improv_Metronome,57,1,48,21,2437969060
95,23,13,Improv_Metronome,58,5,42,127,2438078880
95,23,13,Improv_Metronome,59,1,48,19,2438138716
95,23,13,Improv_Metronome,60,1,48,21,2438381792
95,23,13,Improv_Metronome,61,1,48,24,2438497580
95,23,13,Improv_Metronome,62,5,42,127,2438578620
95,23,13,Improv_Metronome,63,1,48,20,2438625780
95,23,13,Improv_Metronome,64,1,48,21,2438880692
95,23,13,Improv_Metronome,65,1,48,21,2439002316
95,23,13,Improv_Metronome,66,5,42,127,2439079464
95,23,13,Improv_Metronome,67,1,48,19,2439158940
95,23,13,Improv_Metronome,68,1,48,19,2439426788
95,23,13,Improv_Metronome,69,1,48,21,2439535596
95,23,13,Improv_Metronome,70,5,42,127,2439579088
95,23,13,Improv_Metronome,71,1,48,19,2439669860
95,23,13,Improv_Metronome,72,1,48,20,2439910784
95,23,13,Improv_Metronome,73,1,48,21,2440034876
95,23,13,Improv_Metronome,74,5,42,127,2440078664
95,23,13,Improv_Metronome,75,1,48,17,2440190028
95,23,13,Improv_Metronome,76,1,48,22,2440429280
95,23,13,Improv_Metronome,77,1,48,19,2440526148
95,23,13,Improv_Metronome,78,5,42,127,2440578540
95,23,13,Improv_Metronome,79,1,48,21,2440675740
95,23,13,Improv_Metronome,80,1,48,22,2440909936
95,23,13,Improv_Metronome,81,5,42,127,2441079244
95,23,13,Improv_Metronome,82,1,48,23,2441103008
95,23,13,Improv_Metronome,83,1,48,21,2441249916
95,23,13,Improv_Metronome,84,1,48,20,2441483584
95,23,13,Improv_Metronome,85,1,48,19,2441561800
95,23,13,Improv_Metronome,86,5,42,127,2441578964
95,23,13,Improv_Metronome,87,1,48,15,2441831696
95,23,13,Improv_Metronome,88,1,48,16,2441930328
95,23,13,Improv_Metronome,89,5,42,127,2442078772
95,23,13,Improv_Metronome,90,5,42,127,2442579160
95,23,13,Improv_Metronome,91,5,42,127,2443079024
95,23,13,Improv_Metronome,92,5,42,127,2443578816
95,23,13,Improv_Metronome,93,1,48,26,2443831640
95,23,13,Improv_Metronome,94,1,48,22,2443942612
95,23,13,Improv_Metronome,95,1,48,22,2444078564
95,23,13,Improv_Metronome,96,5,42,127,2444079976
95,23,13,Improv_Metronome,97,1,48,24,2444362180
95,23,13,Improv_Metronome,98,1,48,19,2444445784
95,23,13,Improv_Metronome,99,5,42,127,2444579188
95,23,13,Improv_Metronome,100,1,48,18,2444631452
95,23,13,Improv_Metronome,101,1,48,20,2444849564
95,23,13,Improv_Metronome,102,1,48,22,2444974004
95,23,13,Improv_Metronome,103,5,42,127,2445078916
95,23,13,Improv_Metronome,104,1,48,21,2445090940
95,23,13,Improv_Metronome,105,1,48,24,2445353852
95,23,13,Improv_Metronome,106,1,48,22,2445457728
95,23,13,Improv_Metronome,107,5,42,127,2445578792
95,23,13,Improv_Metronome,108,1,48,19,2445623500
95,23,13,Improv_Metronome,109,1,48,21,2445850740
95,23,13,Improv_Metronome,110,1,48,21,2445953412
95,23,13,Improv_Metronome,111,5,42,127,2446079412
95,23,13,Improv_Metronome,112,1,48,19,2446084028
95,23,13,Improv_Metronome,113,1,48,18,2446353680
95,23,13,Improv_Metronome,114,1,48,19,2446466676
95,23,13,Improv_Metronome,115,5,42,127,2446579040
95,23,13,Improv_Metronome,116,1,48,17,2446637012
95,23,13,Improv_Metronome,117,1,48,21,2446878608
95,23,13,Improv_Metronome,118,1,48,21,2446984728
95,23,13,Improv_Metronome,119,5,42,127,2447078708
95,23,13,Improv_Metronome,120,1,48,21,2447119464
95,23,13,Improv_Metronome,121,1,48,18,2447388656
95,23,13,Improv_Metronome,122,1,48,18,2447498964
95,23,13,Improv_Metronome,123,5,42,127,2447578732
95,23,13,Improv_Metronome,124,1,48,18,2447679172
95,23,13,Improv_Metronome,125,1,48,18,2447928404
95,23,13,Improv_Metronome,126,1,48,19,2448023600
95,23,13,Improv_Metronome,127,5,42,127,2448079280
95,23,13,Improv_Metronome,128,1,48,21,2448176732
95,23,13,Improv_Metronome,129,1,48,21,2448434412
95,23,13,Improv_Metronome,130,1,48,20,2448537688
95,23,13,Improv_Metronome,131,5,42,127,2448578932
95,23,13,Improv_Metronome,132,1,48,19,2448705028
95,23,13,Improv_Metronome,133,1,48,20,2448942960
95,23,13,Improv_Metronome,134,1,48,21,2449048552
95,23,13,Improv_Metronome,135,5,42,127,2449078732
95,23,13,Improv_Metronome,136,1,48,18,2449166612
95,23,13,Improv_Metronome,137,1,48,20,2449442992
95,23,13,Improv_Metronome,138,1,48,20,2449540280
95,23,13,Improv_Metronome,139,5,42,127,2449579508
95,23,13,Improv_Metronome,140,1,48,18,2449709344
95,23,13,Improv_Metronome,141,1,48,20,2449949220
95,23,13,Improv_Metronome,142,1,48,22,2450043224
95,23,13,Improv_Metronome,143,5,42,127,2450079084
95,23,13,Improv_Metronome,144,1,48,20,2450187604
95,23,13,Improv_Metronome,145,1,48,20,2450441324
95,23,13,Improv_Metronome,146,1,48,19,2450526492
95,23,13,Improv_Metronome,147,5,42,127,2450578808
95,23,13,Improv_Metronome,148,1,48,18,2450673768
95,23,13,Improv_Metronome,149,1,48,22,2450925688
95,23,13,Improv_Metronome,150,1,48,20,2451036912
95,23,13,Improv_Metronome,151,5,42,127,2451078980
95,23,13,Improv_Metronome,152,1,48,19,2451159056
95,23,13,Improv_Metronome,153,1,48,21,2451435588
95,23,13,Improv_Metronome,154,1,48,20,2451527740
95,23,13,Improv_Metronome,155,5,42,127,2451579380
95,23,13,Improv_Metronome,156,1,48,20,2451703532
95,23,13,Improv_Metronome,157,1,48,21,2451945928
95,23,13,Improv_Metronome,158,1,48,22,2452018560
95,23,13,Improv_Metronome,159,5,42,127,2452078880
95,23,13,Improv_Metronome,160,1,48,20,2452195228
95,23,13,Improv_Metronome,161,1,48,24,2452451116
95,23,13,Improv_Metronome,162,1,48,19,2452528760
95,23,13,Improv_Metronome,163,5,42,127,2452578756
95,23,13,Improv_Metronome,164,1,48,21,2452708044
95,23,13,Improv_Metronome,165,1,48,21,2452961688
95,23,13,Improv_Metronome,166,1,48,26,2453060724
95,23,13,Improv_Metronome,167,5,42,127,2453079528
95,23,13,Improv_Metronome,168,1,48,22,2453203356
95,23,13,Improv_Metronome,169,1,48,24,2453455276
95,23,13,Improv_Metronome,170,1,48,23,2453541372
95,23,13,Improv_Metronome,171,5,42,127,2453579028
95,23,13,Improv_Metronome,172,1,48,21,2453703604
95,23,13,Improv_Metronome,173,1,48,20,2453954552
95,23,13,Improv_Metronome,174,1,48,25,2454075580
95,23,13,Improv_Metronome,175,5,42,127,2454078756
95,23,13,Improv_Metronome,176,1,48,21,2454195776
95,23,13,Improv_Metronome,177,1,48,24,2454421968
95,23,13,Improv_Metronome,178,1,48,19,2454523544
95,23,13,Improv_Metronome,179,5,42,127,2454578704
95,23,13,Improv_Metronome,180,1,48,19,2454692288
95,23,13,Improv_Metronome,181,1,48,21,2454936652
95,23,13,Improv_Metronome,182,1,48,22,2455028404
95,23,13,Improv_Metronome,183,5,42,127,2455079400
95,23,13,Improv_Metronome,184,1,48,15,2455186320
95,23,13,Improv_Metronome,185,1,48,22,2455422020
95,23,13,Improv_Metronome,186,1,48,18,2455506440
95,23,13,Improv_Metronome,187,5,42,127,2455579052
95,23,13,Improv_Metronome,188,1,48,19,2455686500
95,23,13,Improv_Metronome,189,1,48,19,2455929816
95,23,13,Improv_Metronome,190,1,48,19,2456036908
95,23,13,Improv_Metronome,191,5,42,127,2456078632
95,23,13,Improv_Metronome,192,1,48,19,2456157952
95,23,13,Improv_Metronome,193,1,48,19,2456359460
95,23,13,Improv_Metronome,194,1,48,19,2456483752
95,23,13,Improv_Metronome,195,5,42,127,2456578580
95,23,13,Improv_Metronome,196,1,48,18,2456661788
95,23,13,Improv_Metronome,197,1,48,14,2456944008
95,23,13,Improv_Metronome,198,1,48,21,2457020204
95,23,13,Improv_Metronome,199,5,42,127,2457079052
95,23,13,Improv_Metronome,200,1,48,18,2457208564
95,23,13,Improv_Metronome,201,1,48,20,2457458388
95,23,13,Improv_Metronome,202,1,48,18,2457539900
95,23,13,Improv_Metronome,203,5,42,127,2457578828
95,23,13,Improv_Metronome,204,1,48,20,2457731552
95,23,13,Improv_Metronome,205,1,48,20,2457999856
95,23,13,Improv_Metronome,206,5,42,127,2458078652
95,23,13,Improv_Metronome,207,1,48,16,2458092152
95,23,13,Improv_Metronome,208,1,48,20,2458242352
95,23,13,Improv_Metronome,209,1,48,22,2458503916
95,23,13,Improv_Metronome,210,5,42,127,2458579272
95,23,13,Improv_Metronome,211,1,48,19,2458585444
95,23,13,Improv_Metronome,212,1,48,19,2458768552
95,23,13,Improv_Metronome,213,1,48,17,2459049568
95,23,13,Improv_Metronome,214,5,42,127,2459079000
95,23,13,Improv_Metronome,215,1,48,21,2459152888
95,23,13,Improv_Metronome,216,1,48,21,2459292360
95,23,13,Improv_Metronome,217,1,48,23,2459571132
95,23,13,Improv_Metronome,218,5,42,127,2459578652
95,23,13,Improv_Metronome,219,1,48,19,2459673932
95,23,13,Improv_Metronome,220,1,48,19,2459817592
95,23,13,Improv_Metronome,221,1,48,20,2460072508
95,23,13,Improv_Metronome,222,5,42,127,2460078600
95,23,13,Improv_Metronome,223,1,48,25,2460204920
95,23,13,Improv_Metronome,224,1,48,21,2460305428
95,23,13,Improv_Metronome,225,1,48,21,2460546504
95,23,13,Improv_Metronome,226,5,42,127,2460579220
95,23,13,Improv_Metronome,227,1,48,19,2460693948
95,23,13,Improv_Metronome,228,1,48,24,2460864164
95,23,13,Improv_Metronome,229,5,42,127,2461078952
95,23,13,Improv_Metronome,230,1,48,19,2461172956
95,23,13,Improv_Metronome,231,1,48,25,2461286268
95,23,13,Improv_Metronome,232,1,48,19,2461400320
95,23,13,Improv_Metronome,233,5,42,127,2461578528
95,23,13,Improv_Metronome,234,1,48,22,2461677988
95,23,13,Improv_Metronome,235,1,48,18,2461756976
95,23,13,Improv_Metronome,236,1,48,20,2461957812
95,23,13,Improv_Metronome,237,5,42,127,2462079376
95,23,13,Improv_Metronome,238,1,48,20,2462253508
95,23,13,Improv_Metronome,239,1,48,23,2462338232
95,23,13,Improv_Metronome,240,1,48,18,2462501440
95,23,13,Improv_Metronome,241,5,42,127,2462579192
95,23,13,Improv_Metronome,242,1,48,21,2462789284
95,23,13,Improv_Metronome,243,1,48,19,2462867276
95,23,13,Improv_Metronome,244,1,48,20,2463052856
95,23,13,Improv_Metronome,245,5,42,127,2463078620
95,23,13,Improv_Metronome,246,1,48,20,2463337556
95,23,13,Improv_Metronome,247,1,48,21,2463452872
95,23,13,Improv_Metronome,248,1,48,17,2463570604
95,23,13,Improv_Metronome,249,5,42,127,2463578568
95,23,13,Improv_Metronome,250,1,48,20,2463856500
95,23,13,Improv_Metronome,251,1,48,16,2463968456
95,23,13,Improv_Metronome,252,5,42,127,2464079272
95,23,13,Improv_Metronome,253,1,48,19,2464136696
95,23,13,Improv_Metronome,254,1,48,19,2464419804
95,23,13,Improv_Metronome,255,1,48,22,2464507620
95,23,13,Improv_Metronome,256,5,42,127,2464578788
95,23,13,Improv_Metronome,257,1,48,20,2464658932
95,23,13,Improv_Metronome,258,1,48,23,2464902852
95,23,13,Improv_Metronome,259,1,48,17,2464993636
95,23,13,Improv_Metronome,260,5,42,127,2465078516
95,23,13,Improv_Metronome,261,1,48,20,2465159032
95,23,13,Improv_Metronome,262,1,48,19,2465428904
95,23,13,Improv_Metronome,263,1,48,20,2465517072
95,23,13,Improv_Metronome,264,5,42,127,2465579288
95,23,13,Improv_Metronome,265,1,48,21,2465698624
95,23,13,Improv_Metronome,266,1,48,21,2465979572
95,23,13,Improv_Metronome,267,5,42,127,2466079092
95,23,13,Improv_Metronome,268,1,48,20,2466082888
95,23,13,Improv_Metronome,269,1,48,18,2466250860
95,23,13,Improv_Metronome,270,1,48,20,2466498668
95,23,13,Improv_Metronome,271,5,42,127,2466578832
95,23,13,Improv_Metronome,272,1,48,19,2466616568
95,23,13,Improv_Metronome,273,1,48,21,2466735772
95,23,13,Improv_Metronome,274,1,48,20,2467003852
95,23,13,Improv_Metronome,275,5,42,127,2467078556
95,23,13,Improv_Metronome,276,1,48,20,2467115396
95,23,13,Improv_Metronome,277,1,48,16,2467259280
95,23,13,Improv_Metronome,278,1,48,22,2467498564
95,23,13,Improv_Metronome,279,5,42,127,2467579328
95,23,13,Improv_Metronome,280,1,48,20,2467625812
95,23,13,Improv_Metronome,281,1,48,22,2467760652
95,23,13,Improv_Metronome,282,1,48,20,2468032696
95,23,13,Improv_Metronome,283,5,42,127,2468079028
95,23,13,Improv_Metronome,284,1,48,21,2468125688
95,23,13,Improv_Metronome,285,1,48,17,2468306008
95,23,13,Improv_Metronome,286,1,48,24,2468529128
95,23,13,Improv_Metronome,287,5,42,127,2468578604
95,23,13,Improv_Metronome,288,1,48,18,2468659148
95,23,13,Improv_Metronome,289,1,48,22,2468779476
95,23,13,Improv_Metronome,290,1,48,19,2469039480
95,23,13,Improv_Metronome,291,5,42,127,2469079528
95,23,13,Improv_Metronome,292,1,48,16,2469133820
95,23,13,Improv_Metronome,293,1,48,16,2469312340
95,23,13,Improv_Metronome,294,1,48,20,2469545708
95,23,13,Improv_Metronome,295,5,42,127,2469579552
95,23,13,Improv_Metronome,296,1,48,20,2469700792
95,23,13,Improv_Metronome,297,1,48,26,2469818648
95,23,13,Improv_Metronome,298,1,48,18,2470049028
95,23,13,Improv_Metronome,299,5,42,127,2470078680
95,23,13,Improv_Metronome,300,1,48,19,2470163936
95,23,13,Improv_Metronome,301,1,48,17,2470363552
95,23,13,Improv_Metronome,302,5,42,127,2470578412
95,23,13,Improv_Metronome,303,1,48,19,2470635236
95,23,13,Improv_Metronome,304,1,48,24,2470739652
95,23,13,Improv_Metronome,305,1,48,22,2470889452
95,23,13,Improv_Metronome,306,5,42,127,2471079480
95,23,13,Improv_Metronome,307,1,48,17,2471208364
95,23,13,Improv_Metronome,308,1,48,19,2471247680
95,23,13,Improv_Metronome,309,1,48,20,2471487940
95,23,13,Improv_Metronome,310,5,42,127,2471578852
95,23,13,Improv_Metronome,311,1,48,23,2471725072
95,23,13,Improv_Metronome,312,1,48,22,2471862148
95,23,13,Improv_Metronome,313,1,48,24,2471974204
95,23,13,Improv_Metronome,314,5,42,127,2472078640
95,23,13,Improv_Metronome,315,1,48,16,2472244016
95,23,13,Improv_Metronome,316,1,48,22,2472363524
95,23,13,Improv_Metronome,317,1,48,17,2472517688
95,23,13,Improv_Metronome,318,5,42,127,2472578380
95,23,13,Improv_Metronome,319,1,48,21,2472781440
95,23,13,Improv_Metronome,320,1,48,16,2472907452
95,23,13,Improv_Metronome,321,1,48,21,2473044560
95,23,13,Improv_Metronome,322,5,42,127,2473079300
95,23,13,Improv_Metronome,323,1,48,14,2473305404
95,23,13,Improv_Metronome,324,1,48,21,2473432316
95,23,13,Improv_Metronome,325,1,48,16,2473571740
95,23,13,Improv_Metronome,326,5,42,127,2473579248
95,23,13,Improv_Metronome,327,1,48,21,2473826144
95,23,13,Improv_Metronome,328,1,48,21,2473960160
95,23,13,Improv_Metronome,329,5,42,127,2474078612
95,23,13,Improv_Metronome,330,1,48,21,2474085548
95,23,13,Improv_Metronome,331,1,48,21,2474354296
95,23,13,Improv_Metronome,332,1,48,21,2474485772
95,23,13,Improv_Metronome,333,5,42,127,2474579372
95,23,13,Improv_Metronome,334,1,48,16,2474632140
95,23,13,Improv_Metronome,335,1,48,21,2474892668
95,23,13,Improv_Metronome,336,5,42,127,2475079032
95,23,13,Improv_Metronome,337,1,48,19,2475142812
95,23,13,Improv_Metronome,338,1,48,19,2475387032
95,23,13,Improv_Metronome,339,1,48,16,2475514412
95,23,13,Improv_Metronome,340,5,42,127,2475578848
95,23,13,Improv_Metronome,341,1,48,18,2475662808
95,23,13,Improv_Metronome,342,1,48,25,2475912932
95,23,13,Improv_Metronome,343,1,48,21,2476054304
95,23,13,Improv_Metronome,344,5,42,127,2476078572
95,23,13,Improv_Metronome,345,1,48,18,2476165452
95,23,13,Improv_Metronome,346,1,48,22,2476413188
95,23,13,Improv_Metronome,347,1,48,22,2476572208
95,23,13,Improv_Metronome,348,5,42,127,2476579420
95,23,13,Improv_Metronome,349,1,48,19,2476689336
95,23,13,Improv_Metronome,350,1,48,18,2476955848
95,23,13,Improv_Metronome,351,1,48,19,2477071864
95,23,13,Improv_Metronome,352,5,42,127,2477079000
95,23,13,Improv_Metronome,353,1,48,20,2477199236
95,23,13,Improv_Metronome,354,1,48,19,2477455796
95,23,13,Improv_Metronome,355,1,48,19,2477545080
95,23,13,Improv_Metronome,356,5,42,127,2477578724
95,23,13,Improv_Metronome,357,1,48,19,2477742720
95,23,13,Improv_Metronome,358,1,48,21,2477978184
95,23,13,Improv_Metronome,359,1,48,18,2478075872
95,23,13,Improv_Metronome,360,5,42,127,2478079424
95,23,13,Improv_Metronome,361,1,48,20,2478247680
95,23,13,Improv_Metronome,362,1,48,21,2478511128
95,23,13,Improv_Metronome,363,5,42,127,2478579296
95,23,13,Improv_Metronome,364,1,48,17,2478615040
95,23,13,Improv_Metronome,365,1,48,16,2478770524
95,23,13,Improv_Metronome,366,1,48,18,2479008232
95,23,13,Improv_Metronome,367,5,42,127,2479078724
95,23,13,Improv_Metronome,368,1,48,16,2479149920
95,23,13,Improv_Metronome,369,1,48,19,2479300768
95,23,13,Improv_Metronome,370,1,48,20,2479524940
95,23,13,Improv_Metronome,371,5,42,127,2479578524
95,23,13,Improv_Metronome,372,1,48,21,2479655184
95,23,13,Improv_Metronome,373,1,48,16,2479816124
95,23,13,Improv_Metronome,374,5,42,127,2480079376
95,23,13,Improv_Metronome,375,1,48,19,2480080420
95,23,13,Improv_Metronome,376,1,48,15,2480187068
95,23,13,Improv_Metronome,377,1,48,21,2480345916
95,23,13,Improv_Metronome,378,5,42,127,2480579104
95,23,13,Improv_Metronome,379,1,48,18,2480614236
95,23,13,Improv_Metronome,380,1,48,15,2480721952
95,23,13,Improv_Metronome,381,1,48,16,2480873616
95,23,13,Improv_Metronome,382,5,42,127,2481078680
95,23,13,Improv_Metronome,383,1,48,20,2481115980
95,23,13,Improv_Metronome,384,1,48,16,2481254512
95,23,13,Improv_Metronome,385,1,48,22,2481385980
95,23,13,Improv_Metronome,386,5,42,127,2481579304
95,23,13,Improv_Metronome,387,1,48,18,2481630296
95,23,13,Improv_Metronome,388,1,48,17,2481744288
95,23,13,Improv_Metronome,389,1,48,19,2481922008
95,23,13,Improv_Metronome,390,5,42,127,2482079252
95,23,13,Improv_Metronome,391,1,48,17,2482280088
95,23,13,Improv_Metronome,392,1,48,18,2482449132
95,23,13,Improv_Metronome,393,5,42,127,2482578704
95,23,13,Improv_Metronome,394,1,48,15,2482727404
95,23,13,Improv_Metronome,395,1,48,16,2482796648
95,23,13,Improv_Metronome,396,1,48,19,2482994112
95,23,13,Improv_Metronome,397,5,42,127,2483078520
95,23,13,Improv_Metronome,398,1,48,22,2483259744
95,23,13,Improv_Metronome,399,1,48,15,2483421584
95,23,13,Improv_Metronome,400,1,48,19,2483541264
95,23,13,Improv_Metronome,401,5,42,127,2483579220
95,23,13,Improv_Metronome,402,1,48,13,2483829028
95,23,13,Improv_Metronome,403,1,48,21,2483961200
95,23,13,Improv_Metronome,404,5,42,127,2484079172
95,23,13,Improv_Metronome,405,1,48,17,2484134428
95,23,13,Improv_Metronome,406,1,48,21,2484382160
95,23,13,Improv_Metronome,407,1,48,16,2484500116
95,23,13,Improv_Metronome,408,5,42,127,2484578616
95,23,13,Improv_Metronome,409,1,48,20,2484670656
95,23,13,Improv_Metronome,410,1,48,17,2484909708
95,23,13,Improv_Metronome,411,1,48,15,2485018540
95,23,13,Improv_Metronome,412,5,42,127,2485079388
95,23,13,Improv_Metronome,413,1,48,15,2485218096
95,23,13,Improv_Metronome,414,1,48,19,2485455728
95,23,13,Improv_Metronome,415,5,42,127,2485579044
95,23,13,Improv_Metronome,416,1,48,17,2485585004
95,23,13,Improv_Metronome,417,1,48,20,2485746096
95,23,13,Improv_Metronome,418,1,48,16,2486016964
95,23,13,Improv_Metronome,419,5,42,127,2486078932
95,23,13,Improv_Metronome,420,1,48,19,2486119208
95,23,13,Improv_Metronome,421,1,48,14,2486284816
95,23,13,Improv_Metronome,422,1,48,22,2486546384
95,23,13,Improv_Metronome,423,5,42,127,2486578584
95,23,13,Improv_Metronome,424,1,48,14,2486662176
95,23,13,Improv_Metronome,425,1,48,19,2486864952
95,23,13,Improv_Metronome,426,5,42,127,2487079292
95,23,13,Improv_Metronome,427,1,48,15,2487100440
95,23,13,Improv_Metronome,428,1,48,24,2487208792
95,23,13,Improv_Metronome,429,1,48,17,2487387416
95,23,13,Improv_Metronome,430,5,42,127,2487579164
95,23,13,Improv_Metronome,431,1,48,20,2487643172
95,23,13,Improv_Metronome,432,1,48,14,2487783992
95,23,13,Improv_Metronome,433,1,48,20,2487934340
95,23,13,Improv_Metronome,434,5,42,127,2488078668
95,23,13,Improv_Metronome,435,1,48,15,2488205432
95,23,13,Improv_Metronome,436,1,48,21,2488256044
95,23,13,Improv_Metronome,437,1,48,19,2488503176
95,23,13,Improv_Metronome,438,5,42,127,2488578408
95,23,13,Improv_Metronome,439,1,48,24,2488798648
95,23,13,Improv_Metronome,440,1,48,16,2488935532
95,23,13,Improv_Metronome,441,1,48,21,2489065512
95,23,13,Improv_Metronome,442,5,42,127,2489079104
95,23,13,Improv_Metronome,443,1,48,13,2489353896
95,23,13,Improv_Metronome,444,1,48,17,2489497864
95,23,13,Improv_Metronome,445,5,42,127,2489578900
95,23,13,Improv_Metronome,446,1,48,14,2489639624
95,23,13,Improv_Metronome,447,1,48,25,2489879500
95,23,13,Improv_Metronome,448,1,48,18,2490014192
95,23,13,Improv_Metronome,449,5,42,127,2490078628
95,23,13,Improv_Metronome,450,1,48,21,2490126636
95,23,13,Improv_Metronome,451,1,48,17,2490402120
95,23,13,Improv_Metronome,452,1,48,19,2490547280
95,23,13,Improv_Metronome,453,5,42,127,2490579176
95,23,13,Improv_Metronome,454,1,48,20,2490949060
95,23,13,Improv_Metronome,455,1,48,14,2491052932
95,23,13,Improv_Metronome,456,5,42,127,2491079144
95,23,13,Improv_Metronome,457,1,48,21,2491202400
95,23,13,Improv_Metronome,458,1,48,14,2491489628
95,23,13,Improv_Metronome,459,1,48,15,2491558716
95,23,13,Improv_Metronome,460,5,42,127,2491578872
95,23,13,Improv_Metronome,461,1,48,15,2491752916
95,23,13,Improv_Metronome,462,1,48,27,2492023236
95,23,13,Improv_Metronome,463,5,42,127,2492078324
95,23,13,Improv_Metronome,464,1,48,21,2492139772
95,23,13,Improv_Metronome,465,1,48,22,2492288396
95,23,13,Improv_Metronome,466,1,48,23,2492555504
95,23,13,Improv_Metronome,467,5,42,127,2492579172
95,23,13,Improv_Metronome,468,1,48,14,2492696964
95,23,13,Improv_Metronome,469,1,48,19,2492805772
95,23,13,Improv_Metronome,470,1,48,26,2493064052
95,23,13,Improv_Metronome,471,5,42,127,2493078896
95,23,13,Improv_Metronome,472,1,48,22,2493208588
95,23,13,Improv_Metronome,473,1,48,23,2493326964
95,23,13,Improv_Metronome,474,5,42,127,2493578556
95,23,13,Improv_Metronome,475,1,48,24,2493597528
95,23,13,Improv_Metronome,476,1,48,23,2493736432
95,23,13,Improv_Metronome,477,1,48,19,2493862076
95,23,13,Improv_Metronome,478,5,42,127,2494079252
95,23,13,Improv_Metronome,479,1,48,24,2494106756
95,23,13,Improv_Metronome,480,1,48,21,2494250072
95,23,13,Improv_Metronome,481,1,48,22,2494377352
95,23,13,Improv_Metronome,482,5,42,127,2494578976
95,23,13,Improv_Metronome,483,1,48,21,2494608428
95,23,13,Improv_Metronome,484,1,48,21,2494753236
95,23,13,Improv_Metronome,485,1,48,16,2494862568
95,23,13,Improv_Metronome,486,5,42,127,2495078700
95,23,13,Improv_Metronome,487,1,48,24,2495111592
95,23,13,Improv_Metronome,488,1,48,22,2495243464
95,23,13,Improv_Metronome,489,1,48,23,2495383012
95,23,13,Improv_Metronome,490,5,42,127,2495578428
95,23,13,Improv_Metronome,491,1,48,20,2495608696
95,23,13,Improv_Metronome,492,1,48,23,2495745432
95,23,13,Improv_Metronome,493,1,48,16,2495854164
95,23,13,Improv_Metronome,494,5,42,127,2496079272
95,23,13,Improv_Metronome,495,1,48,21,2496123456
95,23,13,Improv_Metronome,496,1,48,24,2496253756
95,23,13,Improv_Metronome,497,1,48,23,2496386576
95,23,13,Improv_Metronome,498,5,42,127,2496579000
95,23,13,Improv_Metronome,499,1,48,24,2496642332
95,23,13,Improv_Metronome,500,1,48,22,2496776744
95,23,13,Improv_Metronome,501,1,48,16,2496881140
95,23,13,Improv_Metronome,502,5,42,127,2497078576
95,23,13,Improv_Metronome,503,1,48,20,2497145124
95,23,13,Improv_Metronome,504,1,48,21,2497276024
95,23,13,Improv_Metronome,505,1,48,20,2497426868
95,23,13,Improv_Metronome,506,5,42,127,2497579500
95,23,13,Improv_Metronome,507,1,48,18,2497666244
95,23,13,Improv_Metronome,508,1,48,21,2497762112
95,23,13,Improv_Metronome,509,1,48,19,2497940356
95,23,13,Improv_Metronome,0,9999,9999,9999,2428076088
95,23,13,Improv_Metronome,1,9999,9999,9999,2428576852
95,23,13,Improv_Metronome,2,9999,9999,9999,2429076568
95,23,13,Improv_Metronome,3,9999,9999,9999,2429576284
95,23,13,Improv_Metronome,4,9999,9999,9999,2430077048
95,23,13,Improv_Metronome,5,9999,9999,9999,2430576744
95,23,13,Improv_Metronome,6,9999,9999,9999,2431076436
95,23,13,Improv_Metronome,7,9999,9999,9999,2431576132
95,23,13,Improv_Metronome,8,9999,9999,9999,2432076872
95,23,13,Improv_Metronome,9,9999,9999,9999,2432576616
95,23,13,Improv_Metronome,10,9999,9999,9999,2433076328
95,23,13,Improv_Metronome,11,9999,9999,9999,2433577048
95,23,13,Improv_Metronome,12,9999,9999,9999,2434076772
95,23,13,Improv_Metronome,13,9999,9999,9999,2434576444
95,23,13,Improv_Metronome,14,9999,9999,9999,2435076172
95,23,13,Improv_Metronome,15,9999,9999,9999,2435576884
95,23,13,Improv_Metronome,16,9999,9999,9999,2436076644
95,23,13,Improv_Metronome,17,9999,9999,9999,2436576344
95,23,13,Improv_Metronome,18,9999,9999,9999,2437077100
95,23,13,Improv_Metronome,19,9999,9999,9999,2437576808
95,23,13,Improv_Metronome,20,9999,9999,9999,2438076516
95,23,13,Improv_Metronome,21,9999,9999,9999,2438576184
95,23,13,Improv_Metronome,22,9999,9999,9999,2439076956
95,23,13,Improv_Metronome,23,9999,9999,9999,2439576656
95,23,13,Improv_Metronome,24,9999,9999,9999,2440076380
95,23,13,Improv_Metronome,25,9999,9999,9999,2440576104
95,23,13,Improv_Metronome,26,9999,9999,9999,2441076808
95,23,13,Improv_Metronome,27,9999,9999,9999,2441576528
95,23,13,Improv_Metronome,28,9999,9999,9999,2442076260
95,23,13,Improv_Metronome,29,9999,9999,9999,2442576948
95,23,13,Improv_Metronome,30,9999,9999,9999,2443076664
95,23,13,Improv_Metronome,31,9999,9999,9999,2443576380
95,23,13,Improv_Metronome,32,9999,9999,9999,2444076128
95,23,13,Improv_Metronome,33,9999,9999,9999,2444576828
95,23,13,Improv_Metronome,34,9999,9999,9999,2445076556
95,23,13,Improv_Metronome,35,9999,9999,9999,2445576280
95,23,13,Improv_Metronome,36,9999,9999,9999,2446076980
95,23,13,Improv_Metronome,37,9999,9999,9999,2446576756
95,23,13,Improv_Metronome,38,9999,9999,9999,2447076420
95,23,13,Improv_Metronome,39,9999,9999,9999,2447576148
95,23,13,Improv_Metronome,40,9999,9999,9999,2448076920
95,23,13,Improv_Metronome,41,9999,9999,9999,2448576572
95,23,13,Improv_Metronome,42,9999,9999,9999,2449076300
95,23,13,Improv_Metronome,43,9999,9999,9999,2449577072
95,23,13,Improv_Metronome,44,9999,9999,9999,2450076720
95,23,13,Improv_Metronome,45,9999,9999,9999,2450576448
95,23,13,Improv_Metronome,46,9999,9999,9999,2451076172
95,23,13,Improv_Metronome,47,9999,9999,9999,2451576948
95,23,13,Improv_Metronome,48,9999,9999,9999,2452076596
95,23,13,Improv_Metronome,49,9999,9999,9999,2452576324
95,23,13,Improv_Metronome,50,9999,9999,9999,2453077092
95,23,13,Improv_Metronome,51,9999,9999,9999,2453576816
95,23,13,Improv_Metronome,52,9999,9999,9999,2454076468
95,23,13,Improv_Metronome,53,9999,9999,9999,2454576196
95,23,13,Improv_Metronome,54,9999,9999,9999,2455076968
95,23,13,Improv_Metronome,55,9999,9999,9999,2455576692
95,23,13,Improv_Metronome,56,9999,9999,9999,2456076344
95,23,13,Improv_Metronome,57,9999,9999,9999,2456576068
95,23,13,Improv_Metronome,58,9999,9999,9999,2457076816
95,23,13,Improv_Metronome,59,9999,9999,9999,2457576544
95,23,13,Improv_Metronome,60,9999,9999,9999,2458076216
95,23,13,Improv_Metronome,61,9999,9999,9999,2458576988
95,23,13,Improv_Metronome,62,9999,9999,9999,2459076712
95,23,13,Improv_Metronome,63,9999,9999,9999,2459576440
95,23,13,Improv_Metronome,64,9999,9999,9999,2460076088
95,23,13,Improv_Metronome,65,9999,9999,9999,2460576860
95,23,13,Improv_Metronome,66,9999,9999,9999,2461076592
95,23,13,Improv_Metronome,67,9999,9999,9999,2461576240
95,23,13,Improv_Metronome,68,9999,9999,9999,2462077016
95,23,13,Improv_Metronome,69,9999,9999,9999,2462576756
95,23,13,Improv_Metronome,70,9999,9999,9999,2463076408
95,23,13,Improv_Metronome,71,9999,9999,9999,2463576132
95,23,13,Improv_Metronome,72,9999,9999,9999,2464076912
95,23,13,Improv_Metronome,73,9999,9999,9999,2464576576
95,23,13,Improv_Metronome,74,9999,9999,9999,2465076304
95,23,13,Improv_Metronome,75,9999,9999,9999,2465577072
95,23,13,Improv_Metronome,76,9999,9999,9999,2466076732
95,23,13,Improv_Metronome,77,9999,9999,9999,2466576472
95,23,13,Improv_Metronome,78,9999,9999,9999,2467076196
95,23,13,Improv_Metronome,79,9999,9999,9999,2467576892
95,23,13,Improv_Metronome,80,9999,9999,9999,2468076668
95,23,13,Improv_Metronome,81,9999,9999,9999,2468576320
95,23,13,Improv_Metronome,82,9999,9999,9999,2469077092
95,23,13,Improv_Metronome,83,9999,9999,9999,2469576820
95,23,13,Improv_Metronome,84,9999,9999,9999,2470076468
95,23,13,Improv_Metronome,85,9999,9999,9999,2470576200
95,23,13,Improv_Metronome,86,9999,9999,9999,2471076972
95,23,13,Improv_Metronome,87,9999,9999,9999,2471576640
95,23,13,Improv_Metronome,88,9999,9999,9999,2472076352
95,23,13,Improv_Metronome,89,9999,9999,9999,2472576092
95,23,13,Improv_Metronome,90,9999,9999,9999,2473076792
95,23,13,Improv_Metronome,91,9999,9999,9999,2473576516
95,23,13,Improv_Metronome,92,9999,9999,9999,2474076248
95,23,13,Improv_Metronome,93,9999,9999,9999,2474577012
95,23,13,Improv_Metronome,94,9999,9999,9999,2475076672
95,23,13,Improv_Metronome,95,9999,9999,9999,2475576412
95,23,13,Improv_Metronome,96,9999,9999,9999,2476076136
95,23,13,Improv_Metronome,97,9999,9999,9999,2476576836
95,23,13,Improv_Metronome,98,9999,9999,9999,2477076564
95,23,13,Improv_Metronome,99,9999,9999,9999,2477576288
95,23,13,Improv_Metronome,100,9999,9999,9999,2478076988
95,23,13,Improv_Metronome,101,9999,9999,9999,2478576712
95,23,13,Improv_Metronome,102,9999,9999,9999,2479076436
95,23,13,Improv_Metronome,103,9999,9999,9999,2479576164
95,23,13,Improv_Metronome,104,9999,9999,9999,2480076868
95,23,13,Improv_Metronome,105,9999,9999,9999,2480576592
95,23,13,Improv_Metronome,106,9999,9999,9999,2481076320
95,23,13,Improv_Metronome,107,9999,9999,9999,2481577016
95,23,13,Improv_Metronome,108,9999,9999,9999,2482076740
95,23,13,Improv_Metronome,109,9999,9999,9999,2482576492
95,23,13,Improv_Metronome,110,9999,9999,9999,2483076160
95,23,13,Improv_Metronome,111,9999,9999,9999,2483576932
95,23,13,Improv_Metronome,112,9999,9999,9999,2484076664
95,23,13,Improv_Metronome,113,9999,9999,9999,2484576328
95,23,13,Improv_Metronome,114,9999,9999,9999,2485077100
95,23,13,Improv_Metronome,115,9999,9999,9999,2485576756
95,23,13,Improv_Metronome,116,9999,9999,9999,2486076496
95,23,13,Improv_Metronome,117,9999,9999,9999,2486576224
95,23,13,Improv_Metronome,118,9999,9999,9999,2487076928
95,23,13,Improv_Metronome,119,9999,9999,9999,2487576656
95,23,13,Improv_Metronome,120,9999,9999,9999,2488076380
95,23,13,Improv_Metronome,121,9999,9999,9999,2488576120
95,23,13,Improv_Metronome,122,9999,9999,9999,2489076820
95,23,13,Improv_Metronome,123,9999,9999,9999,2489576540
95,23,13,Improv_Metronome,124,9999,9999,9999,2490076268
95,23,13,Improv_Metronome,125,9999,9999,9999,2490576964
95,23,13,Improv_Metronome,126,9999,9999,9999,2491076712
95,23,13,Improv_Metronome,127,9999,9999,9999,2491576436
95,23,13,Improv_Metronome,128,9999,9999,9999,2492076112
95,23,13,Improv_Metronome,129,9999,9999,9999,2492576884
95,23,13,Improv_Metronome,130,9999,9999,9999,2493076536
95,23,13,Improv_Metronome,131,9999,9999,9999,2493576268
95,23,13,Improv_Metronome,132,9999,9999,9999,2494077040
95,23,13,Improv_Metronome,133,9999,9999,9999,2494576692
95,23,13,Improv_Metronome,134,9999,9999,9999,2495076416
95,23,13,Improv_Metronome,135,9999,9999,9999,2495576140
95,23,13,Improv_Metronome,136,9999,9999,9999,2496076912
95,23,13,Improv_Metronome,137,9999,9999,9999,2496576564
95,23,13,Improv_Metronome,138,9999,9999,9999,2497076292
95,23,13,Improv_Metronome,139,9999,9999,9999,2497577064
95,24,14,Improv_Melody,0,2,48,80,2548258256
95,24,14,Improv_Melody,1,2,72,80,2548260772
95,24,14,Improv_Melody,2,5,42,127,2548262416
95,24,14,Improv_Melody,3,5,42,110,2548754884
95,24,14,Improv_Melody,4,5,42,110,2549254532
95,24,14,Improv_Melody,5,5,42,110,2549755300
95,24,14,Improv_Melody,6,5,42,127,2550255072
95,24,14,Improv_Melody,7,5,42,110,2550754568
95,24,14,Improv_Melody,8,5,42,110,2551255484
95,24,14,Improv_Melody,9,5,42,110,2551755356
95,24,14,Improv_Melody,10,2,43,80,2552257284
95,24,14,Improv_Melody,11,2,67,80,2552259508
95,24,14,Improv_Melody,12,5,42,127,2552262128
95,24,14,Improv_Melody,13,5,42,110,2552754516
95,24,14,Improv_Melody,14,5,42,110,2553255284
95,24,14,Improv_Melody,15,5,42,110,2553755228
95,24,14,Improv_Melody,16,5,42,127,2554254728
95,24,14,Improv_Melody,17,5,42,110,2554754524
95,24,14,Improv_Melody,18,5,42,110,2555255440
95,24,14,Improv_Melody,19,5,42,110,2555754868
95,24,14,Improv_Melody,20,2,45,80,2556256940
95,24,14,Improv_Melody,21,2,69,80,2556259020
95,24,14,Improv_Melody,22,5,42,127,2556261636
95,24,14,Improv_Melody,23,5,42,110,2556755372
95,24,14,Improv_Melody,24,5,42,110,2557255240
95,24,14,Improv_Melody,25,5,42,110,2557754664
95,24,14,Improv_Melody,26,5,42,127,2558254312
95,24,14,Improv_Melody,27,5,42,110,2558755304
95,24,14,Improv_Melody,28,5,42,110,2559255176
95,24,14,Improv_Melody,29,5,42,110,2559754524
95,24,14,Improv_Melody,30,2,41,80,2560257724
95,24,14,Improv_Melody,31,2,65,80,2560260028
95,24,14,Improv_Melody,32,5,42,127,2560262416
95,24,14,Improv_Melody,33,5,42,110,2560755256
95,24,14,Improv_Melody,34,5,42,110,2561255100
95,24,14,Improv_Melody,35,5,42,110,2561754452
95,24,14,Improv_Melody,36,5,42,127,2562255144
95,24,14,Improv_Melody,37,5,42,110,2562755164
95,24,14,Improv_Melody,38,5,42,110,2563254588
95,24,14,Improv_Melody,39,5,42,110,2563755356
95,24,14,Improv_Melody,40,2,48,80,2564257660
95,24,14,Improv_Melody,41,2,72,80,2564259808
95,24,14,Improv_Melody,42,5,42,127,2564262424
95,24,14,Improv_Melody,43,5,42,110,2564755036
95,24,14,Improv_Melody,44,5,42,110,2565254464
95,24,14,Improv_Melody,45,5,42,110,2565755228
95,24,14,Improv_Melody,46,5,42,127,2566255176
95,24,14,Improv_Melody,47,5,42,110,2566754748
95,24,14,Improv_Melody,48,5,42,110,2567255292
95,24,14,Improv_Melody,49,5,42,110,2567755164
95,24,14,Improv_Melody,50,2,43,80,2568257392
95,24,14,Improv_Melody,51,2,67,80,2568259620
95,24,14,Improv_Melody,52,5,42,127,2568262080
95,24,14,Improv_Melody,53,1,38,25,2568271108
95,24,14,Improv_Melody,54,1,38,32,2568735404
95,24,14,Improv_Melody,55,5,42,110,2568754888
95,24,14,Improv_Melody,56,1,38,38,2569242580
95,24,14,Improv_Melody,57,5,42,110,2569255188
95,24,14,Improv_Melody,58,1,38,42,2569726052
95,24,14,Improv_Melody,59,5,42,110,2569754964
95,24,14,Improv_Melody,60,1,38,36,2570230760
95,24,14,Improv_Melody,61,5,42,127,2570254812
95,24,14,Improv_Melody,62,1,38,26,2570708892
95,24,14,Improv_Melody,63,1,38,35,2570734080
95,24,14,Improv_Melody,64,5,42,110,2570754340
95,24,14,Improv_Melody,65,1,38,36,2571213436
95,24,14,Improv_Melody,66,5,42,110,2571255012
95,24,14,Improv_Melody,67,1,38,27,2571703936
95,24,14,Improv_Melody,68,5,42,110,2571754840
95,24,14,Improv_Melody,69,2,45,80,2572257128
95,24,14,Improv_Melody,70,2,69,80,2572259200
95,24,14,Improv_Melody,71,5,42,127,2572261888
95,24,14,Improv_Melody,72,1,48,27,2572292560
95,24,14,Improv_Melody,73,1,38,29,2572744340
95,24,14,Improv_Melody,74,1,48,41,2572754008
95,24,14,Improv_Melody,75,5,42,110,2572755800
95,24,14,Improv_Melody,76,1,48,36,2573253144
95,24,14,Improv_Melody,77,5,42,110,2573254956
95,24,14,Improv_Melody,78,1,48,46,2573735240
95,24,14,Improv_Melody,79,5,42,110,2573754876
95,24,14,Improv_Melody,80,1,38,38,2573763380
95,24,14,Improv_Melody,81,1,48,37,2574251808
95,24,14,Improv_Melody,82,5,42,127,2574254392
95,24,14,Improv_Melody,83,1,38,43,2574744104
95,24,14,Improv_Melody,84,1,48,47,2574751116
95,24,14,Improv_Melody,85,5,42,110,2574755120
95,24,14,Improv_Melody,86,1,48,29,2575253284
95,24,14,Improv_Melody,87,5,42,110,2575254868
95,24,14,Improv_Melody,88,1,48,45,2575746076
95,24,14,Improv_Melody,89,5,42,110,2575754568
95,24,14,Improv_Melody,90,1,38,42,2575771148
95,24,14,Improv_Melody,91,1,48,38,2576230572
95,24,14,Improv_Melody,92,2,41,80,2576258020
95,24,14,Improv_Melody,93,2,65,80,2576260176
95,24,14,Improv_Melody,94,5,42,127,2576262784
95,24,14,Improv_Melody,95,1,48,46,2576752968
95,24,14,Improv_Melody,96,5,42,110,2576755008
95,24,14,Improv_Melody,97,1,38,41,2576787444
95,24,14,Improv_Melody,98,5,42,110,2577254840
95,24,14,Improv_Melody,99,1,48,32,2577277484
95,24,14,Improv_Melody,100,1,48,43,2577746416
95,24,14,Improv_Melody,101,5,42,110,2577754384
95,24,14,Improv_Melody,102,1,38,44,2577764160
95,24,14,Improv_Melody,103,1,48,31,2578247356
95,24,14,Improv_Melody,104,5,42,127,2578255248
95,24,14,Improv_Melody,105,1,48,48,2578727904
95,24,14,Improv_Melody,106,5,42,110,2578754876
95,24,14,Improv_Melody,107,1,38,43,2578757848
95,24,14,Improv_Melody,108,1,48,29,2579235952
95,24,14,Improv_Melody,109,5,42,110,2579254688
95,24,14,Improv_Melody,110,1,48,41,2579751136
95,24,14,Improv_Melody,111,5,42,110,2579755512
95,24,14,Improv_Melody,112,1,38,49,2579764320
95,24,14,Improv_Melody,113,1,48,40,2580253016
95,24,14,Improv_Melody,114,2,48,80,2580257604
95,24,14,Improv_Melody,115,2,72,80,2580259680
95,24,14,Improv_Melody,116,5,42,127,2580262224
95,24,14,Improv_Melody,117,5,42,110,2580754896
95,24,14,Improv_Melody,118,1,48,49,2580757940
95,24,14,Improv_Melody,119,1,38,47,2580788364
95,24,14,Improv_Melody,120,1,48,31,2581252884
95,24,14,Improv_Melody,121,5,42,110,2581254392
95,24,14,Improv_Melody,122,1,48,54,2581747996
95,24,14,Improv_Melody,123,5,42,110,2581755140
95,24,14,Improv_Melody,124,1,38,58,2581772324
95,24,14,Improv_Melody,125,5,42,127,2582254860
95,24,14,Improv_Melody,126,1,48,39,2582266604
95,24,14,Improv_Melody,127,5,42,110,2582754708
95,24,14,Improv_Melody,128,1,48,51,2582761648
95,24,14,Improv_Melody,129,1,38,49,2582780136
95,24,14,Improv_Melody,130,5,42,110,2583255272
95,24,14,Improv_Melody,131,1,48,43,2583267368
95,24,14,Improv_Melody,132,1,48,51,2583745348
95,24,14,Improv_Melody,133,5,42,110,2583755188
95,24,14,Improv_Melody,134,1,38,45,2583765636
95,24,14,Improv_Melody,135,1,48,43,2584250776
95,24,14,Improv_Melody,136,2,43,80,2584257280
95,24,14,Improv_Melody,137,2,67,80,2584259432
95,24,14,Improv_Melody,138,5,42,127,2584261900
95,24,14,Improv_Melody,139,1,48,50,2584732536
95,24,14,Improv_Melody,140,5,42,110,2584754640
95,24,14,Improv_Melody,141,1,38,38,2584781396
95,24,14,Improv_Melody,142,5,42,110,2585255140
95,24,14,Improv_Melody,143,1,48,35,2585261476
95,24,14,Improv_Melody,144,1,48,46,2585749856
95,24,14,Improv_Melody,145,5,42,110,2585755128
95,24,14,Improv_Melody,146,1,38,49,2585784052
95,24,14,Improv_Melody,147,5,42,127,2586254876
95,24,14,Improv_Melody,148,1,48,42,2586260164
95,24,14,Improv_Melody,149,5,42,110,2586754576
95,24,14,Improv_Melody,150,1,48,47,2586795840
95,24,14,Improv_Melody,151,1,38,43,2586799116
95,24,14,Improv_Melody,152,1,48,44,2587242288
95,24,14,Improv_Melody,153,5,42,110,2587255116
95,24,14,Improv_Melody,154,1,48,46,2587750592
95,24,14,Improv_Melody,155,1,38,39,2587753976
95,24,14,Improv_Melody,156,5,42,110,2587756516
95,24,14,Improv_Melody,157,1,48,42,2588252608
95,24,14,Improv_Melody,158,2,45,80,2588256972
95,24,14,Improv_Melody,159,2,69,80,2588259200
95,24,14,Improv_Melody,160,5,42,127,2588261740
95,24,14,Improv_Melody,161,5,42,110,2588755684
95,24,14,Improv_Melody,162,1,48,45,2588763220
95,24,14,Improv_Melody,163,1,38,34,2588766492
95,24,14,Improv_Melody,164,1,48,43,2589250584
95,24,14,Improv_Melody,165,5,42,110,2589254884
95,24,14,Improv_Melody,166,1,48,48,2589734948
95,24,14,Improv_Melody,167,5,42,110,2589754732
95,24,14,Improv_Melody,168,1,38,40,2589789348
95,24,14,Improv_Melody,169,5,42,127,2590254628
95,24,14,Improv_Melody,170,1,48,41,2590268292
95,24,14,Improv_Melody,171,5,42,110,2590755152
95,24,14,Improv_Melody,172,1,48,45,2590762536
95,24,14,Improv_Melody,173,1,38,46,2590774180
95,24,14,Improv_Melody,174,1,48,39,2591254428
95,24,14,Improv_Melody,175,5,42,110,2591255844
95,24,14,Improv_Melody,176,1,48,45,2591741296
95,24,14,Improv_Melody,177,1,38,47,2591754108
95,24,14,Improv_Melody,178,5,42,110,2591756576
95,24,14,Improv_Melody,179,1,48,41,2592236588
95,24,14,Improv_Melody,180,2,41,80,2592257856
95,24,14,Improv_Melody,181,2,65,80,2592259928
95,24,14,Improv_Melody,182,5,42,127,2592262768
95,24,14,Improv_Melody,183,1,48,45,2592735772
95,24,14,Improv_Melody,184,5,42,110,2592755060
95,24,14,Improv_Melody,185,1,38,42,2592783088
95,24,14,Improv_Melody,186,5,42,110,2593254856
95,24,14,Improv_Melody,187,1,48,40,2593279096
95,24,14,Improv_Melody,188,1,48,50,2593751744
95,24,14,Improv_Melody,189,5,42,110,2593754696
95,24,14,Improv_Melody,190,1,38,52,2593755664
95,24,14,Improv_Melody,191,1,48,38,2594235852
95,24,14,Improv_Melody,192,5,42,127,2594255116
95,24,14,Improv_Melody,193,1,48,46,2594709752
95,24,14,Improv_Melody,194,1,38,51,2594730300
95,24,14,Improv_Melody,195,5,42,110,2594754872
95,24,14,Improv_Melody,196,1,48,39,2595227804
95,24,14,Improv_Melody,197,5,42,110,2595254840
95,24,14,Improv_Melody,198,1,48,49,2595748896
95,24,14,Improv_Melody,199,5,42,110,2595755516
95,24,14,Improv_Melody,200,1,38,43,2595779424
95,24,14,Improv_Melody,201,1,48,39,2596241076
95,24,14,Improv_Melody,202,2,48,80,2596257384
95,24,14,Improv_Melody,203,2,72,80,2596259760
95,24,14,Improv_Melody,204,5,42,127,2596262152
95,24,14,Improv_Melody,205,1,48,38,2596732784
95,24,14,Improv_Melody,206,5,42,110,2596754892
95,24,14,Improv_Melody,207,1,38,48,2596756080
95,24,14,Improv_Melody,208,1,48,38,2597252060
95,24,14,Improv_Melody,209,5,42,110,2597254720
95,24,14,Improv_Melody,210,1,48,51,2597733664
95,24,14,Improv_Melody,211,5,42,110,2597755464
95,24,14,Improv_Melody,212,1,38,44,2597769436
95,24,14,Improv_Melody,213,1,48,40,2598240508
95,24,14,Improv_Melody,214,5,42,127,2598254908
95,24,14,Improv_Melody,215,1,38,45,2598711488
95,24,14,Improv_Melody,216,1,48,50,2598714684
95,24,14,Improv_Melody,217,5,42,110,2598754664
95,24,14,Improv_Melody,218,1,38,21,2598782004
95,24,14,Improv_Melody,219,1,48,47,2599216048
95,24,14,Improv_Melody,220,5,42,110,2599255436
95,24,14,Improv_Melody,221,1,48,53,2599723532
95,24,14,Improv_Melody,222,1,38,49,2599751260
95,24,14,Improv_Melody,223,5,42,110,2599755264
95,24,14,Improv_Melody,224,1,38,20,2599825956
95,24,14,Improv_Melody,225,1,48,46,2600229520
95,24,14,Improv_Melody,226,2,43,80,2600257120
95,24,14,Improv_Melody,227,2,67,80,2600259496
95,24,14,Improv_Melody,228,5,42,127,2600261812
95,24,14,Improv_Melody,229,1,48,56,2600741056
95,24,14,Improv_Melody,230,5,42,110,2600754628
95,24,14,Improv_Melody,231,1,38,41,2600774732
95,24,14,Improv_Melody,232,1,48,36,2601246476
95,24,14,Improv_Melody,233,5,42,110,2601255416
95,24,14,Improv_Melody,234,1,48,53,2601742884
95,24,14,Improv_Melody,235,1,38,51,2601748848
95,24,14,Improv_Melody,236,5,42,110,2601754948
95,24,14,Improv_Melody,237,5,42,127,2602254628
95,24,14,Improv_Melody,238,1,48,30,2602261484
95,24,14,Improv_Melody,239,1,48,50,2602747548
95,24,14,Improv_Melody,240,5,42,110,2602754692
95,24,14,Improv_Melody,241,1,38,45,2602764548
95,24,14,Improv_Melody,242,1,48,45,2603249604
95,24,14,Improv_Melody,243,5,42,110,2603255032
95,24,14,Improv_Melody,244,5,42,110,2603754788
95,24,14,Improv_Melody,245,1,48,45,2603758504
95,24,14,Improv_Melody,246,1,38,48,2603776180
95,24,14,Improv_Melody,247,1,48,33,2604241616
95,24,14,Improv_Melody,248,2,45,80,2604256948
95,24,14,Improv_Melody,249,2,69,80,2604259324
95,24,14,Improv_Melody,250,5,42,127,2604261716
95,24,14,Improv_Melody,251,1,48,48,2604753168
95,24,14,Improv_Melody,252,5,42,110,2604755208
95,24,14,Improv_Melody,253,1,38,49,2604771792
95,24,14,Improv_Melody,254,1,48,39,2605246536
95,24,14,Improv_Melody,255,5,42,110,2605255100
95,24,14,Improv_Melody,256,1,48,47,2605729852
95,24,14,Improv_Melody,257,1,38,48,2605735888
95,24,14,Improv_Melody,258,5,42,110,2605754856
95,24,14,Improv_Melody,259,1,48,50,2606208860
95,24,14,Improv_Melody,260,5,42,127,2606254676
95,24,14,Improv_Melody,261,1,48,48,2606718656
95,24,14,Improv_Melody,262,1,38,45,2606734948
95,24,14,Improv_Melody,263,5,42,110,2606755328
95,24,14,Improv_Melody,264,1,38,25,2606789620
95,24,14,Improv_Melody,265,1,48,41,2607234460
95,24,14,Improv_Melody,266,5,42,110,2607254916
95,24,14,Improv_Melody,267,1,48,47,2607706780
95,24,14,Improv_Melody,268,1,38,45,2607713868
95,24,14,Improv_Melody,269,5,42,110,2607754524
95,24,14,Improv_Melody,270,1,48,46,2608217208
95,24,14,Improv_Melody,271,2,41,80,2608257816
95,24,14,Improv_Melody,272,2,65,80,2608260128
95,24,14,Improv_Melody,273,5,42,127,2608262660
95,24,14,Improv_Melody,274,1,48,54,2608729560
95,24,14,Improv_Melody,275,1,38,48,2608752204
95,24,14,Improv_Melody,276,5,42,110,2608755008
95,24,14,Improv_Melody,277,1,48,44,2609251876
95,24,14,Improv_Melody,278,5,42,110,2609254756
95,24,14,Improv_Melody,279,1,48,43,2609735868
95,24,14,Improv_Melody,280,1,38,51,2609739064
95,24,14,Improv_Melody,281,5,42,110,2609754436
95,24,14,Improv_Melody,282,1,38,25,2609801224
95,24,14,Improv_Melody,283,1,48,41,2610222408
95,24,14,Improv_Melody,284,5,42,127,2610255280
95,24,14,Improv_Melody,285,1,48,48,2610697196
95,24,14,Improv_Melody,286,5,42,110,2610754980
95,24,14,Improv_Melody,287,1,38,43,2610756620
95,24,14,Improv_Melody,288,5,42,110,2611254576
95,24,14,Improv_Melody,289,1,48,43,2611274828
95,24,14,Improv_Melody,290,1,48,52,2611727532
95,24,14,Improv_Melody,291,1,38,57,2611734092
95,24,14,Improv_Melody,292,5,42,110,2611755372
95,24,14,Improv_Melody,293,1,48,45,2612212444
95,24,14,Improv_Melody,294,2,48,80,2612257776
95,24,14,Improv_Melody,295,2,72,80,2612259856
95,24,14,Improv_Melody,296,5,42,127,2612262464
95,24,14,Improv_Melody,297,1,48,49,2612727196
95,24,14,Improv_Melody,298,1,38,48,2612733680
95,24,14,Improv_Melody,299,5,42,110,2612754740
95,24,14,Improv_Melody,300,1,48,45,2613223460
95,24,14,Improv_Melody,301,5,42,110,2613254484
95,24,14,Improv_Melody,302,1,48,47,2613733404
95,24,14,Improv_Melody,303,1,38,45,2613736676
95,24,14,Improv_Melody,304,5,42,110,2613755284
95,24,14,Improv_Melody,305,1,48,43,2614226024
95,24,14,Improv_Melody,306,5,42,127,2614254860
95,24,14,Improv_Melody,307,1,48,44,2614702216
95,24,14,Improv_Melody,308,1,38,42,2614717004
95,24,14,Improv_Melody,309,5,42,110,2614754664
95,24,14,Improv_Melody,310,1,48,39,2615212860
95,24,14,Improv_Melody,311,5,42,110,2615255384
95,24,14,Improv_Melody,312,1,48,52,2615701040
95,24,14,Improv_Melody,313,1,38,46,2615714936
95,24,14,Improv_Melody,314,5,42,110,2615755064
95,24,14,Improv_Melody,315,1,48,42,2616229640
95,24,14,Improv_Melody,316,2,43,80,2616257392
95,24,14,Improv_Melody,317,2,67,80,2616259620
95,24,14,Improv_Melody,318,5,42,127,2616262232
95,24,14,Improv_Melody,319,1,48,44,2616744836
95,24,14,Improv_Melody,320,1,38,47,2616748112
95,24,14,Improv_Melody,321,5,42,110,2616754656
95,24,14,Improv_Melody,322,1,48,49,2617246736
95,24,14,Improv_Melody,323,5,42,110,2617255448
95,24,14,Improv_Melody,324,1,48,44,2617723096
95,24,14,Improv_Melody,325,1,38,61,2617728536
95,24,14,Improv_Melody,326,5,42,110,2617755276
95,24,14,Improv_Melody,327,1,38,28,2617780972
95,24,14,Improv_Melody,328,1,48,40,2618237324
95,24,14,Improv_Melody,329,5,42,127,2618254568
95,24,14,Improv_Melody,330,1,48,50,2618727076
95,24,14,Improv_Melody,331,1,38,41,2618732968
95,24,14,Improv_Melody,332,5,42,110,2618754472
95,24,14,Improv_Melody,333,1,48,47,2619225384
95,24,14,Improv_Melody,334,5,42,110,2619255336
95,24,14,Improv_Melody,335,1,48,46,2619710872
95,24,14,Improv_Melody,336,1,38,51,2619717356
95,24,14,Improv_Melody,337,5,42,110,2619754724
95,24,14,Improv_Melody,338,1,48,47,2620207532
95,24,14,Improv_Melody,339,2,45,80,2620257196
95,24,14,Improv_Melody,340,2,69,80,2620259196
95,24,14,Improv_Melody,341,5,42,127,2620261960
95,24,14,Improv_Melody,342,1,48,48,2620710608
95,24,14,Improv_Melody,343,1,38,48,2620737668
95,24,14,Improv_Melody,344,5,42,110,2620755504
95,24,14,Improv_Melody,345,1,48,48,2621233304
95,24,14,Improv_Melody,346,5,42,110,2621255328
95,24,14,Improv_Melody,347,1,48,50,2621730380
95,24,14,Improv_Melody,348,1,38,50,2621737764
95,24,14,Improv_Melody,349,5,42,110,2621754636
95,24,14,Improv_Melody,350,1,38,18,2621823712
95,24,14,Improv_Melody,351,1,48,46,2622216552
95,24,14,Improv_Melody,352,5,42,127,2622254436
95,24,14,Improv_Melody,353,1,48,48,2622729492
95,24,14,Improv_Melody,354,1,38,53,2622751612
95,24,14,Improv_Melody,355,5,42,110,2622755388
95,24,14,Improv_Melody,356,1,48,48,2623218748
95,24,14,Improv_Melody,357,5,42,110,2623254988
95,24,14,Improv_Melody,358,1,38,54,2623723732
95,24,14,Improv_Melody,359,1,48,46,2623727264
95,24,14,Improv_Melody,360,5,42,110,2623754604
95,24,14,Improv_Melody,361,1,48,39,2624219660
95,24,14,Improv_Melody,362,2,41,80,2624257828
95,24,14,Improv_Melody,363,2,65,80,2624260208
95,24,14,Improv_Melody,364,5,42,127,2624262520
95,24,14,Improv_Melody,365,1,38,56,2624728044
95,24,14,Improv_Melody,366,1,48,44,2624734980
95,24,14,Improv_Melody,367,5,42,110,2624755316
95,24,14,Improv_Melody,368,1,48,47,2625235032
95,24,14,Improv_Melody,369,5,42,110,2625254668
95,24,14,Improv_Melody,370,1,48,51,2625737052
95,24,14,Improv_Melody,371,1,38,40,2625743164
95,24,14,Improv_Melody,372,5,42,110,2625754424
95,24,14,Improv_Melody,373,1,48,44,2626230496
95,24,14,Improv_Melody,374,5,42,127,2626255292
95,24,14,Improv_Melody,375,1,48,53,2626712540
95,24,14,Improv_Melody,376,1,38,48,2626735412
95,24,14,Improv_Melody,377,5,42,110,2626755120
95,24,14,Improv_Melody,378,1,38,24,2626795024
95,24,14,Improv_Melody,379,1,48,49,2627223464
95,24,14,Improv_Melody,380,5,42,110,2627254696
95,24,14,Improv_Melody,381,1,48,54,2627713592
95,24,14,Improv_Melody,382,1,38,51,2627722024
95,24,14,Improv_Melody,383,5,42,110,2627755424
95,24,14,Improv_Melody,384,1,48,48,2628208160
95,24,14,Improv_Melody,385,2,48,80,2628257676
95,24,14,Improv_Melody,386,2,72,80,2628259908
95,24,14,Improv_Melody,387,5,42,127,2628262368
95,24,14,Improv_Melody,388,1,48,49,2628730832
95,24,14,Improv_Melody,389,1,38,52,2628741368
95,24,14,Improv_Melody,390,5,42,110,2628754716
95,24,14,Improv_Melody,391,1,48,49,2629230116
95,24,14,Improv_Melody,0,9999,9999,9999,2548252756
95,24,14,Improv_Melody,1,9999,9999,9999,2548752444
95,24,14,Improv_Melody,2,9999,9999,9999,2549252164
95,24,14,Improv_Melody,3,9999,9999,9999,2549752932
95,24,14,Improv_Melody,4,9999,9999,9999,2550252628
95,24,14,Improv_Melody,5,9999,9999,9999,2550752352
95,24,14,Improv_Melody,6,9999,9999,9999,2551253044
95,24,14,Improv_Melody,7,9999,9999,9999,2551752768
95,24,14,Improv_Melody,8,9999,9999,9999,2552252492
95,24,14,Improv_Melody,9,9999,9999,9999,2552752224
95,24,14,Improv_Melody,10,9999,9999,9999,2553252920
95,24,14,Improv_Melody,11,9999,9999,9999,2553752640
95,24,14,Improv_Melody,12,9999,9999,9999,2554252364
95,24,14,Improv_Melody,13,9999,9999,9999,2554752084
95,24,14,Improv_Melody,14,9999,9999,9999,2555252852
95,24,14,Improv_Melody,15,9999,9999,9999,2555752500
95,24,14,Improv_Melody,16,9999,9999,9999,2556252224
95,24,14,Improv_Melody,17,9999,9999,9999,2556753004
95,24,14,Improv_Melody,18,9999,9999,9999,2557252728
95,24,14,Improv_Melody,19,9999,9999,9999,2557752372
95,24,14,Improv_Melody,20,9999,9999,9999,2558252096
95,24,14,Improv_Melody,21,9999,9999,9999,2558752864
95,24,14,Improv_Melody,22,9999,9999,9999,2559252584
95,24,14,Improv_Melody,23,9999,9999,9999,2559752308
95,24,14,Improv_Melody,24,9999,9999,9999,2560253004
95,24,14,Improv_Melody,25,9999,9999,9999,2560752716
95,24,14,Improv_Melody,26,9999,9999,9999,2561252436
95,24,14,Improv_Melody,27,9999,9999,9999,2561752160
95,24,14,Improv_Melody,28,9999,9999,9999,2562252852
95,24,14,Improv_Melody,29,9999,9999,9999,2562752576
95,24,14,Improv_Melody,30,9999,9999,9999,2563252296
95,24,14,Improv_Melody,31,9999,9999,9999,2563753064
95,24,14,Improv_Melody,32,9999,9999,9999,2564252788
95,24,14,Improv_Melody,33,9999,9999,9999,2564752448
95,24,14,Improv_Melody,34,9999,9999,9999,2565252172
95,24,14,Improv_Melody,35,9999,9999,9999,2565752940
95,24,14,Improv_Melody,36,9999,9999,9999,2566252660
95,24,14,Improv_Melody,37,9999,9999,9999,2566752308
95,24,14,Improv_Melody,38,9999,9999,9999,2567253076
95,24,14,Improv_Melody,39,9999,9999,9999,2567752796
95,24,14,Improv_Melody,40,9999,9999,9999,2568252520
95,24,14,Improv_Melody,41,9999,9999,9999,2568752224
95,24,14,Improv_Melody,42,9999,9999,9999,2569252972
95,24,14,Improv_Melody,43,9999,9999,9999,2569752672
95,24,14,Improv_Melody,44,9999,9999,9999,2570252372
95,24,14,Improv_Melody,45,9999,9999,9999,2570752052
95,24,14,Improv_Melody,46,9999,9999,9999,2571252796
95,24,14,Improv_Melody,47,9999,9999,9999,2571752548
95,24,14,Improv_Melody,48,9999,9999,9999,2572252256
95,24,14,Improv_Melody,49,9999,9999,9999,2572753008
95,24,14,Improv_Melody,50,9999,9999,9999,2573252688
95,24,14,Improv_Melody,51,9999,9999,9999,2573752436
95,24,14,Improv_Melody,52,9999,9999,9999,2574252100
95,24,14,Improv_Melody,53,9999,9999,9999,2574752828
95,24,14,Improv_Melody,54,9999,9999,9999,2575252580
95,24,14,Improv_Melody,55,9999,9999,9999,2575752276
95,24,14,Improv_Melody,56,9999,9999,9999,2576253000
95,24,14,Improv_Melody,57,9999,9999,9999,2576752752
95,24,14,Improv_Melody,58,9999,9999,9999,2577252400
95,24,14,Improv_Melody,59,9999,9999,9999,2577752168
95,24,14,Improv_Melody,60,9999,9999,9999,2578252880
95,24,14,Improv_Melody,61,9999,9999,9999,2578752584
95,24,14,Improv_Melody,62,9999,9999,9999,2579252324
95,24,14,Improv_Melody,63,9999,9999,9999,2579753072
95,24,14,Improv_Melody,64,9999,9999,9999,2580252780
95,24,14,Improv_Melody,65,9999,9999,9999,2580752456
95,24,14,Improv_Melody,66,9999,9999,9999,2581252188
95,24,14,Improv_Melody,67,9999,9999,9999,2581752924
95,24,14,Improv_Melody,68,9999,9999,9999,2582252644
95,24,14,Improv_Melody,69,9999,9999,9999,2582752344
95,24,14,Improv_Melody,70,9999,9999,9999,2583253056
95,24,14,Improv_Melody,71,9999,9999,9999,2583752824
95,24,14,Improv_Melody,72,9999,9999,9999,2584252488
95,24,14,Improv_Melody,73,9999,9999,9999,2584752200
95,24,14,Improv_Melody,74,9999,9999,9999,2585252920
95,24,14,Improv_Melody,75,9999,9999,9999,2585752688
95,24,14,Improv_Melody,76,9999,9999,9999,2586252360
95,24,14,Improv_Melody,77,9999,9999,9999,2586752060
95,24,14,Improv_Melody,78,9999,9999,9999,2587252828
95,24,14,Improv_Melody,79,9999,9999,9999,2587752528
95,24,14,Improv_Melody,80,9999,9999,9999,2588252292
95,24,14,Improv_Melody,81,9999,9999,9999,2588752948
95,24,14,Improv_Melody,82,9999,9999,9999,2589252668
95,24,14,Improv_Melody,83,9999,9999,9999,2589752440
95,24,14,Improv_Melody,84,9999,9999,9999,2590252116
95,24,14,Improv_Melody,85,9999,9999,9999,2590752860
95,24,14,Improv_Melody,86,9999,9999,9999,2591252588
95,24,14,Improv_Melody,87,9999,9999,9999,2591752284
95,24,14,Improv_Melody,88,9999,9999,9999,2592252984
95,24,14,Improv_Melody,89,9999,9999,9999,2592752696
95,24,14,Improv_Melody,90,9999,9999,9999,2593252416
95,24,14,Improv_Melody,91,9999,9999,9999,2593752184
95,24,14,Improv_Melody,92,9999,9999,9999,2594252900
95,24,14,Improv_Melody,93,9999,9999,9999,2594752580
95,24,14,Improv_Melody,94,9999,9999,9999,2595252328
95,24,14,Improv_Melody,95,9999,9999,9999,2595753072
95,24,14,Improv_Melody,96,9999,9999,9999,2596252740
95,24,14,Improv_Melody,97,9999,9999,9999,2596752452
95,24,14,Improv_Melody,98,9999,9999,9999,2597252204
95,24,14,Improv_Melody,99,9999,9999,9999,2597752952
95,24,14,Improv_Melody,100,9999,9999,9999,2598252616
95,24,14,Improv_Melody,101,9999,9999,9999,2598752372
95,24,14,Improv_Melody,102,9999,9999,9999,2599253068
95,24,14,Improv_Melody,103,9999,9999,9999,2599752824
95,24,14,Improv_Melody,104,9999,9999,9999,2600252476
95,24,14,Improv_Melody,105,9999,9999,9999,2600752188
95,24,14,Improv_Melody,106,9999,9999,9999,2601252976
95,24,14,Improv_Melody,107,9999,9999,9999,2601752656
95,24,14,Improv_Melody,108,9999,9999,9999,2602252408
95,24,14,Improv_Melody,109,9999,9999,9999,2602752104
95,24,14,Improv_Melody,110,9999,9999,9999,2603252816
95,24,14,Improv_Melody,111,9999,9999,9999,2603752500
95,24,14,Improv_Melody,112,9999,9999,9999,2604252232
95,24,14,Improv_Melody,113,9999,9999,9999,2604752956
95,24,14,Improv_Melody,114,9999,9999,9999,2605252660
95,24,14,Improv_Melody,115,9999,9999,9999,2605752416
95,24,14,Improv_Melody,116,9999,9999,9999,2606252088
95,24,14,Improv_Melody,117,9999,9999,9999,2606752888
95,24,14,Improv_Melody,118,9999,9999,9999,2607252552
95,24,14,Improv_Melody,119,9999,9999,9999,2607752308
95,24,14,Improv_Melody,120,9999,9999,9999,2608253024
95,24,14,Improv_Melody,121,9999,9999,9999,2608752716
95,24,14,Improv_Melody,122,9999,9999,9999,2609252464
95,24,14,Improv_Melody,123,9999,9999,9999,2609752144
95,24,14,Improv_Melody,124,9999,9999,9999,2610252916
95,24,14,Improv_Melody,125,9999,9999,9999,2610752616
95,24,14,Improv_Melody,126,9999,9999,9999,2611252284
95,24,14,Improv_Melody,127,9999,9999,9999,2611753080
95,24,14,Improv_Melody,128,9999,9999,9999,2612252756
95,24,14,Improv_Melody,129,9999,9999,9999,2612752448
95,24,14,Improv_Melody,130,9999,9999,9999,2613252196
95,24,14,Improv_Melody,131,9999,9999,9999,2613752920
95,24,14,Improv_Melody,132,9999,9999,9999,2614252640
95,24,14,Improv_Melody,133,9999,9999,9999,2614752372
95,24,14,Improv_Melody,134,9999,9999,9999,2615253092
95,24,14,Improv_Melody,135,9999,9999,9999,2615752772
95,24,14,Improv_Melody,136,9999,9999,9999,2616252520
95,24,14,Improv_Melody,137,9999,9999,9999,2616752216
95,24,14,Improv_Melody,138,9999,9999,9999,2617252932
95,24,14,Improv_Melody,139,9999,9999,9999,2617752688
95,24,14,Improv_Melody,140,9999,9999,9999,2618252352
95,24,14,Improv_Melody,141,9999,9999,9999,2618752108
95,24,14,Improv_Melody,142,9999,9999,9999,2619252824
95,24,14,Improv_Melody,143,9999,9999,9999,2619752504
95,24,14,Improv_Melody,144,9999,9999,9999,2620252252
95,24,14,Improv_Melody,145,9999,9999,9999,2620752992
95,24,14,Improv_Melody,146,9999,9999,9999,2621252664
95,24,14,Improv_Melody,147,9999,9999,9999,2621752420
95,24,14,Improv_Melody,148,9999,9999,9999,2622252148
95,24,14,Improv_Melody,149,9999,9999,9999,2622752876
95,24,14,Improv_Melody,150,9999,9999,9999,2623252548
95,24,14,Improv_Melody,151,9999,9999,9999,2623752240
95,24,14,Improv_Melody,152,9999,9999,9999,2624253032
95,24,14,Improv_Melody,153,9999,9999,9999,2624752728
95,24,14,Improv_Melody,154,9999,9999,9999,2625252452
95,24,14,Improv_Melody,155,9999,9999,9999,2625752132
95,24,14,Improv_Melody,156,9999,9999,9999,2626252852
95,24,14,Improv_Melody,157,9999,9999,9999,2626752608
95,24,14,Improv_Melody,158,9999,9999,9999,2627252328
95,24,14,Improv_Melody,159,9999,9999,9999,2627753056
95,24,14,Improv_Melody,160,9999,9999,9999,2628252732
95,24,14,Improv_Melody,161,9999,9999,9999,2628752500
