pid,taskRunCount,taskID,taskName,i,channel,pitch,velocity,microseconds
99,1,0,Ticks_Pract_8,0,5,42,127,104393108
99,1,0,Ticks_Pract_8,1,5,42,127,105192716
99,1,0,Ticks_Pract_8,2,5,42,127,105992548
99,1,0,Ticks_Pract_8,3,5,42,127,106793424
99,1,0,Ticks_Pract_8,4,1,48,56,107530980
99,1,0,Ticks_Pract_8,5,5,42,127,107593172
99,1,0,Ticks_Pract_8,6,1,48,68,108321736
99,1,0,Ticks_Pract_8,7,1,48,40,108374524
99,1,0,Ticks_Pract_8,8,5,42,127,108392736
99,1,0,Ticks_Pract_8,9,1,48,76,109141424
99,1,0,Ticks_Pract_8,10,1,48,45,109186432
99,1,0,Ticks_Pract_8,11,5,42,127,109192744
99,1,0,Ticks_Pract_8,12,1,48,80,109931408
99,1,0,Ticks_Pract_8,13,1,48,50,109966164
99,1,0,Ticks_Pract_8,14,5,42,127,109993304
99,1,0,Ticks_Pract_8,15,1,48,81,110728504
99,1,0,Ticks_Pract_8,16,1,48,57,110754912
99,1,0,Ticks_Pract_8,17,5,42,127,110793164
99,1,0,Ticks_Pract_8,18,1,48,89,111509616
99,1,0,Ticks_Pract_8,19,1,48,64,111535396
99,1,0,Ticks_Pract_8,20,5,42,127,111592876
99,1,0,Ticks_Pract_8,21,5,42,127,112392464
99,1,0,Ticks_Pract_8,22,1,48,77,112483472
99,1,0,Ticks_Pract_8,23,1,48,60,112506040
99,1,0,Ticks_Pract_8,24,1,48,66,113091456
99,1,0,Ticks_Pract_8,25,5,42,127,113193276
99,1,0,Ticks_Pract_8,26,1,48,86,113902480
99,1,0,Ticks_Pract_8,27,1,48,62,113934028
99,1,0,Ticks_Pract_8,28,5,42,127,113993152
99,1,0,Ticks_Pract_8,29,1,48,89,114736828
99,1,0,Ticks_Pract_8,30,1,48,64,114771660
99,1,0,Ticks_Pract_8,31,5,42,127,114792788
99,1,0,Ticks_Pract_8,32,1,48,86,115503408
99,1,0,Ticks_Pract_8,33,1,48,63,115543624
99,1,0,Ticks_Pract_8,34,1,48,48,115567988
99,1,0,Ticks_Pract_8,35,5,42,127,115592480
99,1,0,Ticks_Pract_8,36,1,48,88,116335108
99,1,0,Ticks_Pract_8,37,1,48,63,116378648
99,1,0,Ticks_Pract_8,38,5,42,127,116393260
99,1,0,Ticks_Pract_8,39,1,48,47,116405040
99,1,0,Ticks_Pract_8,40,1,48,87,117143576
99,1,0,Ticks_Pract_8,41,1,48,67,117186408
99,1,0,Ticks_Pract_8,42,5,42,127,117193028
99,1,0,Ticks_Pract_8,43,1,48,91,117951964
99,1,0,Ticks_Pract_8,44,5,42,127,117992760
99,1,0,Ticks_Pract_8,45,1,48,58,117994756
99,1,0,Ticks_Pract_8,46,1,48,88,118737240
99,1,0,Ticks_Pract_8,47,1,48,68,118770052
99,1,0,Ticks_Pract_8,48,5,42,127,118792524
99,1,0,Ticks_Pract_8,49,1,48,95,119533660
99,1,0,Ticks_Pract_8,50,1,48,66,119561612
99,1,0,Ticks_Pract_8,51,5,42,127,119593508
99,1,0,Ticks_Pract_8,52,1,48,85,120340776
99,1,0,Ticks_Pract_8,53,1,48,68,120365956
99,1,0,Ticks_Pract_8,54,5,42,127,120393144
99,1,0,Ticks_Pract_8,55,1,48,86,121158216
99,1,0,Ticks_Pract_8,56,1,48,66,121187740
99,1,0,Ticks_Pract_8,57,5,42,127,121192708
99,1,0,Ticks_Pract_8,58,1,48,93,121915288
99,1,0,Ticks_Pract_8,59,1,48,75,121942496
99,1,0,Ticks_Pract_8,60,5,42,127,121992568
99,1,0,Ticks_Pract_8,61,1,48,100,122730112
99,1,0,Ticks_Pract_8,62,1,48,71,122761732
99,1,0,Ticks_Pract_8,63,5,42,127,122793352
99,1,0,Ticks_Pract_8,64,1,48,89,123556772
99,1,0,Ticks_Pract_8,65,1,48,73,123586296
99,1,0,Ticks_Pract_8,66,5,42,127,123593140
99,1,0,Ticks_Pract_8,67,1,48,85,124315496
99,1,0,Ticks_Pract_8,68,1,48,64,124347572
99,1,0,Ticks_Pract_8,69,5,42,127,124392776
99,1,0,Ticks_Pract_8,70,1,48,87,125132264
99,1,0,Ticks_Pract_8,71,1,48,66,125165828
99,1,0,Ticks_Pract_8,72,5,42,127,125192416
99,1,0,Ticks_Pract_8,73,1,48,94,125933320
99,1,0,Ticks_Pract_8,74,1,48,66,125970176
99,1,0,Ticks_Pract_8,75,5,42,127,125993248
99,1,0,Ticks_Pract_8,76,1,48,83,126733708
99,1,0,Ticks_Pract_8,77,1,48,64,126762036
99,1,0,Ticks_Pract_8,78,5,42,127,126793256
99,1,0,Ticks_Pract_8,79,1,48,83,127541196
99,1,0,Ticks_Pract_8,80,1,48,69,127571172
99,1,0,Ticks_Pract_8,81,5,42,127,127592744
99,1,0,Ticks_Pract_8,82,1,48,84,128339936
99,1,0,Ticks_Pract_8,83,1,48,66,128370432
99,1,0,Ticks_Pract_8,0,9999,9999,9999,104390748
99,1,0,Ticks_Pract_8,1,9999,9999,9999,105190504
99,1,0,Ticks_Pract_8,2,9999,9999,9999,105990260
99,1,0,Ticks_Pract_8,3,9999,9999,9999,106790984
99,1,0,Ticks_Pract_8,4,9999,9999,9999,107590736
99,1,0,Ticks_Pract_8,5,9999,9999,9999,108390444
99,1,0,Ticks_Pract_8,6,9999,9999,9999,109190232
99,1,0,Ticks_Pract_8,7,9999,9999,9999,109991016
99,1,0,Ticks_Pract_8,8,9999,9999,9999,110790728
99,1,0,Ticks_Pract_8,9,9999,9999,9999,111590512
99,1,0,Ticks_Pract_8,10,9999,9999,9999,112390252
99,1,0,Ticks_Pract_8,11,9999,9999,9999,113191020
99,1,0,Ticks_Pract_8,12,9999,9999,9999,113990716
99,1,0,Ticks_Pract_8,13,9999,9999,9999,114790500
99,1,0,Ticks_Pract_8,14,9999,9999,9999,115590192
99,1,0,Ticks_Pract_8,15,9999,9999,9999,116390972
99,1,0,Ticks_Pract_8,16,9999,9999,9999,117190740
99,1,0,Ticks_Pract_8,17,9999,9999,9999,117990472
99,1,0,Ticks_Pract_8,18,9999,9999,9999,118790236
99,1,0,Ticks_Pract_8,19,9999,9999,9999,119590996
99,1,0,Ticks_Pract_8,20,9999,9999,9999,120390708
99,1,0,Ticks_Pract_8,21,9999,9999,9999,121190496
99,1,0,Ticks_Pract_8,22,9999,9999,9999,121990208
99,1,0,Ticks_Pract_8,23,9999,9999,9999,122790992
99,1,0,Ticks_Pract_8,24,9999,9999,9999,123590704
99,1,0,Ticks_Pract_8,25,9999,9999,9999,124390488
99,1,0,Ticks_Pract_8,26,9999,9999,9999,125190200
99,1,0,Ticks_Pract_8,27,9999,9999,9999,125990960
99,1,0,Ticks_Pract_8,28,9999,9999,9999,126790744
99,1,0,Ticks_Pract_8,29,9999,9999,9999,127590460
99,2,1,Ticks_Pract_5,0,5,42,127,177404388
99,2,1,Ticks_Pract_5,1,5,42,127,177903880
99,2,1,Ticks_Pract_5,2,5,42,127,178403672
99,2,1,Ticks_Pract_5,3,5,42,127,178904436
99,2,1,Ticks_Pract_5,4,1,48,61,178911444
99,2,1,Ticks_Pract_5,5,1,48,65,179346572
99,2,1,Ticks_Pract_5,6,5,42,127,179404120
99,2,1,Ticks_Pract_5,7,1,48,67,179836140
99,2,1,Ticks_Pract_5,8,5,42,127,179903816
99,2,1,Ticks_Pract_5,9,1,48,69,180350496
99,2,1,Ticks_Pract_5,10,5,42,127,180403660
99,2,1,Ticks_Pract_5,11,1,48,70,180853108
99,2,1,Ticks_Pract_5,12,5,42,127,180904400
99,2,1,Ticks_Pract_5,13,1,48,65,181366488
99,2,1,Ticks_Pract_5,14,5,42,127,181404096
99,2,1,Ticks_Pract_5,15,1,48,61,181867756
99,2,1,Ticks_Pract_5,16,5,42,127,181903912
99,2,1,Ticks_Pract_5,17,1,48,65,182359420
99,2,1,Ticks_Pract_5,18,5,42,127,182403584
99,2,1,Ticks_Pract_5,19,1,48,72,182856420
99,2,1,Ticks_Pract_5,20,5,42,127,182904252
99,2,1,Ticks_Pract_5,21,1,48,71,183363220
99,2,1,Ticks_Pract_5,22,5,42,127,183403944
99,2,1,Ticks_Pract_5,23,1,48,70,183862396
99,2,1,Ticks_Pract_5,24,5,42,127,183903716
99,2,1,Ticks_Pract_5,25,1,48,74,184358276
99,2,1,Ticks_Pract_5,26,5,42,127,184404456
99,2,1,Ticks_Pract_5,27,1,48,78,184859388
99,2,1,Ticks_Pract_5,28,5,42,127,184904076
99,2,1,Ticks_Pract_5,29,1,48,77,185376580
99,2,1,Ticks_Pract_5,30,5,42,127,185403696
99,2,1,Ticks_Pract_5,31,1,48,73,185872540
99,2,1,Ticks_Pract_5,32,5,42,127,185903540
99,2,1,Ticks_Pract_5,33,1,48,72,186357804
99,2,1,Ticks_Pract_5,34,5,42,127,186404208
99,2,1,Ticks_Pract_5,35,1,48,62,186857572
99,2,1,Ticks_Pract_5,36,5,42,127,186903828
99,2,1,Ticks_Pract_5,37,1,48,70,187349928
99,2,1,Ticks_Pract_5,38,5,42,127,187403520
99,2,1,Ticks_Pract_5,39,1,48,74,187828312
99,2,1,Ticks_Pract_5,40,5,42,127,187904484
99,2,1,Ticks_Pract_5,41,1,48,76,188328900
99,2,1,Ticks_Pract_5,42,5,42,127,188404032
99,2,1,Ticks_Pract_5,43,1,48,69,188869136
99,2,1,Ticks_Pract_5,44,5,42,127,188903724
99,2,1,Ticks_Pract_5,45,1,48,71,189378780
99,2,1,Ticks_Pract_5,46,5,42,127,189403420
99,2,1,Ticks_Pract_5,47,1,48,60,189881540
99,2,1,Ticks_Pract_5,48,5,42,127,189904384
99,2,1,Ticks_Pract_5,49,1,48,75,190373084
99,2,1,Ticks_Pract_5,50,5,42,127,190403932
99,2,1,Ticks_Pract_5,51,1,48,83,190885344
99,2,1,Ticks_Pract_5,52,5,42,127,190903776
99,2,1,Ticks_Pract_5,53,1,48,79,191370280
99,2,1,Ticks_Pract_5,54,5,42,127,191404516
99,2,1,Ticks_Pract_5,55,1,48,73,191877976
99,2,1,Ticks_Pract_5,56,5,42,127,191903988
99,2,1,Ticks_Pract_5,57,1,48,77,192380140
99,2,1,Ticks_Pract_5,58,5,42,127,192403756
99,2,1,Ticks_Pract_5,59,1,48,74,192870256
99,2,1,Ticks_Pract_5,60,5,42,127,192903576
99,2,1,Ticks_Pract_5,61,1,48,68,193387008
99,2,1,Ticks_Pract_5,62,5,42,127,193404392
99,2,1,Ticks_Pract_5,63,1,48,63,193883188
99,2,1,Ticks_Pract_5,64,5,42,127,193903936
99,2,1,Ticks_Pract_5,65,1,48,65,194349224
99,2,1,Ticks_Pract_5,66,5,42,127,194403556
99,2,1,Ticks_Pract_5,67,1,48,64,194880328
99,2,1,Ticks_Pract_5,68,5,42,127,194904520
99,2,1,Ticks_Pract_5,69,1,48,78,195376136
99,2,1,Ticks_Pract_5,70,5,42,127,195403992
99,2,1,Ticks_Pract_5,71,1,48,78,195874776
99,2,1,Ticks_Pract_5,72,5,42,127,195903836
99,2,1,Ticks_Pract_5,73,1,48,72,196397588
99,2,1,Ticks_Pract_5,74,5,42,127,196403532
99,2,1,Ticks_Pract_5,75,1,48,86,196870876
99,2,1,Ticks_Pract_5,76,5,42,127,196904492
99,2,1,Ticks_Pract_5,77,1,48,75,197361520
99,2,1,Ticks_Pract_5,0,9999,9999,9999,177401952
99,2,1,Ticks_Pract_5,1,9999,9999,9999,177901668
99,2,1,Ticks_Pract_5,2,9999,9999,9999,178401384
99,2,1,Ticks_Pract_5,3,9999,9999,9999,178902076
99,2,1,Ticks_Pract_5,4,9999,9999,9999,179401836
99,2,1,Ticks_Pract_5,5,9999,9999,9999,179901532
99,2,1,Ticks_Pract_5,6,9999,9999,9999,180401224
99,2,1,Ticks_Pract_5,7,9999,9999,9999,180901964
99,2,1,Ticks_Pract_5,8,9999,9999,9999,181401660
99,2,1,Ticks_Pract_5,9,9999,9999,9999,181901404
99,2,1,Ticks_Pract_5,10,9999,9999,9999,182401072
99,2,1,Ticks_Pract_5,11,9999,9999,9999,182901816
99,2,1,Ticks_Pract_5,12,9999,9999,9999,183401584
99,2,1,Ticks_Pract_5,13,9999,9999,9999,183901280
99,2,1,Ticks_Pract_5,14,9999,9999,9999,184402020
99,2,1,Ticks_Pract_5,15,9999,9999,9999,184901716
99,2,1,Ticks_Pract_5,16,9999,9999,9999,185401408
99,2,1,Ticks_Pract_5,17,9999,9999,9999,185901104
99,2,1,Ticks_Pract_5,18,9999,9999,9999,186401848
99,2,1,Ticks_Pract_5,19,9999,9999,9999,186901616
99,2,1,Ticks_Pract_5,20,9999,9999,9999,187401308
99,2,1,Ticks_Pract_5,21,9999,9999,9999,187902052
99,2,1,Ticks_Pract_5,22,9999,9999,9999,188401748
99,2,1,Ticks_Pract_5,23,9999,9999,9999,188901440
99,2,1,Ticks_Pract_5,24,9999,9999,9999,189401208
99,2,1,Ticks_Pract_5,25,9999,9999,9999,189901876
99,2,1,Ticks_Pract_5,26,9999,9999,9999,190401648
99,2,1,Ticks_Pract_5,27,9999,9999,9999,190901344
99,2,1,Ticks_Pract_5,28,9999,9999,9999,191402084
99,2,1,Ticks_Pract_5,29,9999,9999,9999,191901776
99,2,1,Ticks_Pract_5,30,9999,9999,9999,192401472
99,2,1,Ticks_Pract_5,31,9999,9999,9999,192901216
99,2,1,Ticks_Pract_5,32,9999,9999,9999,193401956
99,2,1,Ticks_Pract_5,33,9999,9999,9999,193901648
99,2,1,Ticks_Pract_5,34,9999,9999,9999,194401344
99,2,1,Ticks_Pract_5,35,9999,9999,9999,194902088
99,2,1,Ticks_Pract_5,36,9999,9999,9999,195401780
99,2,1,Ticks_Pract_5,37,9999,9999,9999,195901552
99,2,1,Ticks_Pract_5,38,9999,9999,9999,196401244
99,2,1,Ticks_Pract_5,39,9999,9999,9999,196901984
99,3,2,T1_SMS_8,0,5,42,127,310062504
99,3,2,T1_SMS_8,1,5,42,127,310863156
99,3,2,T1_SMS_8,2,5,42,127,311662912
99,3,2,T1_SMS_8,3,1,48,76,311697996
99,3,2,T1_SMS_8,4,1,48,46,311732460
99,3,2,T1_SMS_8,5,1,48,79,312435580
99,3,2,T1_SMS_8,6,5,42,127,312462868
99,3,2,T1_SMS_8,7,1,48,95,313247384
99,3,2,T1_SMS_8,8,5,42,127,313262300
99,3,2,T1_SMS_8,9,1,48,53,313275948
99,3,2,T1_SMS_8,10,1,48,111,314048216
99,3,2,T1_SMS_8,11,5,42,127,314063136
99,3,2,T1_SMS_8,12,1,48,69,314077908
99,3,2,T1_SMS_8,13,5,42,127,314862928
99,3,2,T1_SMS_8,14,1,48,107,314878316
99,3,2,T1_SMS_8,15,1,48,72,314902376
99,3,2,T1_SMS_8,16,5,42,127,315662788
99,3,2,T1_SMS_8,17,1,48,112,315667484
99,3,2,T1_SMS_8,18,1,48,78,315690124
99,3,2,T1_SMS_8,19,1,48,113,316444284
99,3,2,T1_SMS_8,20,5,42,127,316462492
99,3,2,T1_SMS_8,21,1,48,80,316468664
99,3,2,T1_SMS_8,22,1,48,113,317231948
99,3,2,T1_SMS_8,23,1,48,76,317257740
99,3,2,T1_SMS_8,24,5,42,127,317263080
99,3,2,T1_SMS_8,25,1,48,118,318019628
99,3,2,T1_SMS_8,26,1,48,78,318040620
99,3,2,T1_SMS_8,27,5,42,127,318062940
99,3,2,T1_SMS_8,28,1,48,97,318814844
99,3,2,T1_SMS_8,29,1,48,65,318839656
99,3,2,T1_SMS_8,30,5,42,127,318862828
99,3,2,T1_SMS_8,31,1,48,113,319623832
99,3,2,T1_SMS_8,32,1,48,78,319649044
99,3,2,T1_SMS_8,33,5,42,127,319662316
99,3,2,T1_SMS_8,34,1,48,117,320408688
99,3,2,T1_SMS_8,35,1,48,81,320434016
99,3,2,T1_SMS_8,36,5,42,127,320463224
99,3,2,T1_SMS_8,37,1,48,122,321206224
99,3,2,T1_SMS_8,38,1,48,90,321227080
99,3,2,T1_SMS_8,39,5,42,127,321263084
99,3,2,T1_SMS_8,40,1,48,112,321997868
99,3,2,T1_SMS_8,41,1,48,81,322018112
99,3,2,T1_SMS_8,42,5,42,127,322062796
99,3,2,T1_SMS_8,43,1,48,127,322790620
99,3,2,T1_SMS_8,44,1,48,85,322811016
99,3,2,T1_SMS_8,45,5,42,127,322862656
99,3,2,T1_SMS_8,46,1,48,121,323578964
99,3,2,T1_SMS_8,47,1,48,83,323599436
99,3,2,T1_SMS_8,48,5,42,127,323663192
99,3,2,T1_SMS_8,49,1,48,123,324398716
99,3,2,T1_SMS_8,50,1,48,79,324419116
99,3,2,T1_SMS_8,51,5,42,127,324462904
99,3,2,T1_SMS_8,52,1,48,125,325165216
99,3,2,T1_SMS_8,53,1,48,83,325186208
99,3,2,T1_SMS_8,54,5,42,127,325262860
99,3,2,T1_SMS_8,55,5,42,127,326062380
99,3,2,T1_SMS_8,56,1,48,122,326064392
99,3,2,T1_SMS_8,57,1,48,84,326084776
99,3,2,T1_SMS_8,58,1,48,127,326831312
99,3,2,T1_SMS_8,59,1,48,94,326850736
99,3,2,T1_SMS_8,60,5,42,127,326863184
99,3,2,T1_SMS_8,61,1,48,127,327623092
99,3,2,T1_SMS_8,62,1,48,83,327646336
99,3,2,T1_SMS_8,63,5,42,127,327662896
99,3,2,T1_SMS_8,64,1,48,120,328405896
99,3,2,T1_SMS_8,65,1,48,83,328426676
99,3,2,T1_SMS_8,66,5,42,127,328462904
99,3,2,T1_SMS_8,67,1,48,107,329213240
99,3,2,T1_SMS_8,68,1,48,83,329235656
99,3,2,T1_SMS_8,69,5,42,127,329262392
99,3,2,T1_SMS_8,70,1,48,110,329985204
99,3,2,T1_SMS_8,71,1,48,79,330007996
99,3,2,T1_SMS_8,72,5,42,127,330063076
99,3,2,T1_SMS_8,73,5,42,127,330862964
99,3,2,T1_SMS_8,74,1,48,110,330865556
99,3,2,T1_SMS_8,75,1,48,76,330892864
99,3,2,T1_SMS_8,76,1,48,110,331656956
99,3,2,T1_SMS_8,77,5,42,127,331662820
99,3,2,T1_SMS_8,78,1,48,82,331677000
99,3,2,T1_SMS_8,79,1,48,120,332419172
99,3,2,T1_SMS_8,80,1,48,86,332437944
99,3,2,T1_SMS_8,81,5,42,127,332462436
99,3,2,T1_SMS_8,82,1,48,126,333214412
99,3,2,T1_SMS_8,83,1,48,85,333234736
99,3,2,T1_SMS_8,84,5,42,127,333263192
99,3,2,T1_SMS_8,85,1,48,125,333987952
99,3,2,T1_SMS_8,86,1,48,86,334012232
99,3,2,T1_SMS_8,87,5,42,127,334062980
99,3,2,T1_SMS_8,88,1,48,122,334811220
99,3,2,T1_SMS_8,89,1,48,86,334835428
99,3,2,T1_SMS_8,90,5,42,127,334862840
99,3,2,T1_SMS_8,91,1,48,123,335614816
99,3,2,T1_SMS_8,92,1,48,77,335639332
99,3,2,T1_SMS_8,93,5,42,127,335662404
99,3,2,T1_SMS_8,94,1,48,122,336393212
99,3,2,T1_SMS_8,95,1,48,78,336417132
99,3,2,T1_SMS_8,96,5,42,127,336463160
99,3,2,T1_SMS_8,97,1,48,109,337211848
99,3,2,T1_SMS_8,98,1,48,81,337239208
99,3,2,T1_SMS_8,99,5,42,127,337262948
99,3,2,T1_SMS_8,100,1,48,110,338019116
99,3,2,T1_SMS_8,101,1,48,74,338043700
99,3,2,T1_SMS_8,102,5,42,127,338062836
99,3,2,T1_SMS_8,103,1,48,106,338788836
99,3,2,T1_SMS_8,104,1,48,74,338809308
99,3,2,T1_SMS_8,105,5,42,127,338862692
99,3,2,T1_SMS_8,106,1,48,104,339605552
99,3,2,T1_SMS_8,107,1,48,66,339634696
99,3,2,T1_SMS_8,108,5,42,127,339663380
99,3,2,T1_SMS_8,109,1,48,111,340381776
99,3,2,T1_SMS_8,110,1,48,70,340408008
99,3,2,T1_SMS_8,111,5,42,127,340462868
99,3,2,T1_SMS_8,112,1,48,91,341210140
99,3,2,T1_SMS_8,113,1,48,68,341236068
99,3,2,T1_SMS_8,114,5,42,127,341262652
99,3,2,T1_SMS_8,115,1,48,95,342031164
99,3,2,T1_SMS_8,116,1,48,64,342060632
99,3,2,T1_SMS_8,117,5,42,127,342062664
99,3,2,T1_SMS_8,118,1,48,102,342806488
99,3,2,T1_SMS_8,119,1,48,72,342831676
99,3,2,T1_SMS_8,120,5,42,127,342863200
99,3,2,T1_SMS_8,121,1,48,101,343628640
99,3,2,T1_SMS_8,122,1,48,77,343658544
99,3,2,T1_SMS_8,123,5,42,127,343662836
99,3,2,T1_SMS_8,124,1,48,92,344435604
99,3,2,T1_SMS_8,125,5,42,127,344462596
99,3,2,T1_SMS_8,126,1,48,68,344464516
99,3,2,T1_SMS_8,127,1,48,111,345237740
99,3,2,T1_SMS_8,128,1,48,86,345259112
99,3,2,T1_SMS_8,129,5,42,127,345262580
99,3,2,T1_SMS_8,130,1,48,106,346038500
99,3,2,T1_SMS_8,131,1,48,74,346062524
99,3,2,T1_SMS_8,132,5,42,127,346063640
99,3,2,T1_SMS_8,133,5,42,127,346863008
99,3,2,T1_SMS_8,134,1,48,99,346916992
99,3,2,T1_SMS_8,135,1,48,67,346941276
99,3,2,T1_SMS_8,136,1,48,98,347624684
99,3,2,T1_SMS_8,137,1,48,74,347643804
99,3,2,T1_SMS_8,138,5,42,127,347662616
99,3,2,T1_SMS_8,139,1,48,93,348359392
99,3,2,T1_SMS_8,140,1,48,76,348378672
99,3,2,T1_SMS_8,141,5,42,127,348462700
99,3,2,T1_SMS_8,142,1,48,90,349153944
99,3,2,T1_SMS_8,143,1,48,72,349173820
99,3,2,T1_SMS_8,144,5,42,127,349263236
99,3,2,T1_SMS_8,145,1,48,75,350038552
99,3,2,T1_SMS_8,146,1,48,55,350062656
99,3,2,T1_SMS_8,147,5,42,127,350063844
99,3,2,T1_SMS_8,148,1,48,91,350791288
99,3,2,T1_SMS_8,149,1,48,67,350812880
99,3,2,T1_SMS_8,150,5,42,127,350862608
99,3,2,T1_SMS_8,151,1,48,90,351577688
99,3,2,T1_SMS_8,152,1,48,68,351600476
99,3,2,T1_SMS_8,153,5,42,127,351662392
99,3,2,T1_SMS_8,154,1,48,76,352436736
99,3,2,T1_SMS_8,155,1,48,61,352458932
99,3,2,T1_SMS_8,156,5,42,127,352463152
99,3,2,T1_SMS_8,157,5,42,127,353262964
99,3,2,T1_SMS_8,158,1,48,87,353267652
99,3,2,T1_SMS_8,159,1,48,64,353291868
99,3,2,T1_SMS_8,160,1,48,89,354055384
99,3,2,T1_SMS_8,161,5,42,127,354062820
99,3,2,T1_SMS_8,162,1,48,64,354078640
99,3,2,T1_SMS_8,163,1,48,89,354849864
99,3,2,T1_SMS_8,164,5,42,127,354862536
99,3,2,T1_SMS_8,165,1,48,67,354870356
99,3,2,T1_SMS_8,166,1,48,80,355655032
99,3,2,T1_SMS_8,167,5,42,127,355663144
99,3,2,T1_SMS_8,168,1,48,60,355676348
99,3,2,T1_SMS_8,169,1,48,86,356456988
99,3,2,T1_SMS_8,170,5,42,127,356462928
99,3,2,T1_SMS_8,171,1,48,59,356480320
99,3,2,T1_SMS_8,172,1,48,84,357200300
99,3,2,T1_SMS_8,173,1,48,67,357222268
99,3,2,T1_SMS_8,174,5,42,127,357262644
99,3,2,T1_SMS_8,175,5,42,127,358062456
99,3,2,T1_SMS_8,176,1,48,72,358063424
99,3,2,T1_SMS_8,177,1,48,52,358086420
99,3,2,T1_SMS_8,178,5,42,127,358863584
99,3,2,T1_SMS_8,179,1,48,85,358872616
99,3,2,T1_SMS_8,180,1,48,60,358896908
99,3,2,T1_SMS_8,181,1,48,79,359628932
99,3,2,T1_SMS_8,182,1,48,62,359650452
99,3,2,T1_SMS_8,183,5,42,127,359662824
99,3,2,T1_SMS_8,184,1,48,74,360388548
99,3,2,T1_SMS_8,185,1,48,54,360412612
99,3,2,T1_SMS_8,186,5,42,127,360462684
99,3,2,T1_SMS_8,187,1,48,71,361193944
99,3,2,T1_SMS_8,188,1,48,57,361216144
99,3,2,T1_SMS_8,189,5,42,127,361262548
99,3,2,T1_SMS_8,190,1,48,79,362002260
99,3,2,T1_SMS_8,191,1,48,61,362024752
99,3,2,T1_SMS_8,192,5,42,127,362063160
99,3,2,T1_SMS_8,193,1,48,83,362788512
99,3,2,T1_SMS_8,194,1,48,63,362811604
99,3,2,T1_SMS_8,195,5,42,127,362862944
99,3,2,T1_SMS_8,196,1,48,82,363628988
99,3,2,T1_SMS_8,197,1,48,54,363658316
99,3,2,T1_SMS_8,198,5,42,127,363662608
99,3,2,T1_SMS_8,199,1,48,88,364406260
99,3,2,T1_SMS_8,200,1,48,62,364429828
99,3,2,T1_SMS_8,201,5,42,127,364462544
99,3,2,T1_SMS_8,202,1,48,81,365173508
99,3,2,T1_SMS_8,203,1,48,62,365200816
99,3,2,T1_SMS_8,204,5,42,127,365263376
99,3,2,T1_SMS_8,205,1,48,73,365990376
99,3,2,T1_SMS_8,206,1,48,58,366015108
99,3,2,T1_SMS_8,207,5,42,127,366062940
99,3,2,T1_SMS_8,208,1,48,85,366806244
99,3,2,T1_SMS_8,209,1,48,62,366830828
99,3,2,T1_SMS_8,210,5,42,127,366862648
99,3,2,T1_SMS_8,211,1,48,87,367614184
99,3,2,T1_SMS_8,212,1,48,65,367634580
99,3,2,T1_SMS_8,213,5,42,127,367662440
99,3,2,T1_SMS_8,214,1,48,100,368396620
99,3,2,T1_SMS_8,215,1,48,74,368416792
99,3,2,T1_SMS_8,216,5,42,127,368463200
99,3,2,T1_SMS_8,217,1,48,98,369185556
99,3,2,T1_SMS_8,218,1,48,72,369208124
99,3,2,T1_SMS_8,219,5,42,127,369263060
99,3,2,T1_SMS_8,220,5,42,127,370062676
99,3,2,T1_SMS_8,221,1,48,92,370065340
99,3,2,T1_SMS_8,222,1,48,67,370087092
99,3,2,T1_SMS_8,223,5,42,127,370862388
99,3,2,T1_SMS_8,224,1,48,104,370863500
99,3,2,T1_SMS_8,225,1,48,59,370887620
99,3,2,T1_SMS_8,226,1,48,73,371605512
99,3,2,T1_SMS_8,227,1,48,52,371629048
99,3,2,T1_SMS_8,228,5,42,127,371663264
99,3,2,T1_SMS_8,229,1,48,81,372448008
99,3,2,T1_SMS_8,230,5,42,127,372462924
99,3,2,T1_SMS_8,231,1,48,62,372473284
99,3,2,T1_SMS_8,232,1,48,87,373246220
99,3,2,T1_SMS_8,233,5,42,127,373262712
99,3,2,T1_SMS_8,234,1,48,92,374015808
99,3,2,T1_SMS_8,235,1,48,56,374042192
99,3,2,T1_SMS_8,236,5,42,127,374062348
99,3,2,T1_SMS_8,237,1,48,89,374780444
99,3,2,T1_SMS_8,238,1,48,60,374809440
99,3,2,T1_SMS_8,239,5,42,127,374863252
99,3,2,T1_SMS_8,240,1,48,117,375636324
99,3,2,T1_SMS_8,241,5,42,127,375663060
99,3,2,T1_SMS_8,242,1,48,72,375667140
99,3,2,T1_SMS_8,243,1,48,104,376426236
99,3,2,T1_SMS_8,244,1,48,71,376452920
99,3,2,T1_SMS_8,245,5,42,127,376462628
99,3,2,T1_SMS_8,246,1,48,92,377194160
99,3,2,T1_SMS_8,247,1,48,65,377219348
99,3,2,T1_SMS_8,248,5,42,127,377262412
99,3,2,T1_SMS_8,249,1,48,115,377991504
99,3,2,T1_SMS_8,250,1,48,72,378016092
99,3,2,T1_SMS_8,251,5,42,127,378063396
99,3,2,T1_SMS_8,252,1,48,112,378829140
99,3,2,T1_SMS_8,253,1,48,78,378853428
99,3,2,T1_SMS_8,254,5,42,127,378863032
99,3,2,T1_SMS_8,255,1,48,104,379621596
99,3,2,T1_SMS_8,256,1,48,76,379642216
99,3,2,T1_SMS_8,257,5,42,127,379662744
99,3,2,T1_SMS_8,258,1,48,108,380412032
99,3,2,T1_SMS_8,259,1,48,68,380435944
99,3,2,T1_SMS_8,260,5,42,127,380462384
99,3,2,T1_SMS_8,261,1,48,106,381158564
99,3,2,T1_SMS_8,262,1,48,74,381178964
99,3,2,T1_SMS_8,263,5,42,127,381263288
99,3,2,T1_SMS_8,264,1,48,122,381993204
99,3,2,T1_SMS_8,265,1,48,80,382018240
99,3,2,T1_SMS_8,266,5,42,127,382063000
99,3,2,T1_SMS_8,267,1,48,119,382785584
99,3,2,T1_SMS_8,268,1,48,81,382810620
99,3,2,T1_SMS_8,269,5,42,127,382862812
99,3,2,T1_SMS_8,270,1,48,98,383608780
99,3,2,T1_SMS_8,271,1,48,68,383635112
99,3,2,T1_SMS_8,272,5,42,127,383662300
99,3,2,T1_SMS_8,273,1,48,101,384411812
99,3,2,T1_SMS_8,274,1,48,68,384436920
99,3,2,T1_SMS_8,275,5,42,127,384463208
99,3,2,T1_SMS_8,276,1,48,97,385196416
99,3,2,T1_SMS_8,277,1,48,67,385219424
99,3,2,T1_SMS_8,278,5,42,127,385263140
99,3,2,T1_SMS_8,279,1,48,91,386024696
99,3,2,T1_SMS_8,280,1,48,60,386058108
99,3,2,T1_SMS_8,281,5,42,127,386062780
99,3,2,T1_SMS_8,282,1,48,100,386786184
99,3,2,T1_SMS_8,283,1,48,59,386844132
99,3,2,T1_SMS_8,284,5,42,127,386862340
99,3,2,T1_SMS_8,285,1,48,34,386886608
99,3,2,T1_SMS_8,286,1,48,68,387592156
99,3,2,T1_SMS_8,287,5,42,127,387663100
99,3,2,T1_SMS_8,288,1,48,78,388459360
99,3,2,T1_SMS_8,289,5,42,127,388463208
99,3,2,T1_SMS_8,290,5,42,127,389262896
99,3,2,T1_SMS_8,291,1,48,77,389296004
99,3,2,T1_SMS_8,292,1,48,70,389907136
99,3,2,T1_SMS_8,293,5,42,127,390062312
99,3,2,T1_SMS_8,294,5,42,127,390863184
99,3,2,T1_SMS_8,295,1,48,78,391363908
99,3,2,T1_SMS_8,296,5,42,127,391663144
99,3,2,T1_SMS_8,297,1,48,76,392065852
99,3,2,T1_SMS_8,298,1,48,19,392178132
99,3,2,T1_SMS_8,299,5,42,127,392462632
99,3,2,T1_SMS_8,300,1,48,63,392800120
99,3,2,T1_SMS_8,301,5,42,127,393262364
99,3,2,T1_SMS_8,302,1,48,81,393622244
99,3,2,T1_SMS_8,303,1,48,59,393646312
99,3,2,T1_SMS_8,304,5,42,127,394063124
99,3,2,T1_SMS_8,305,1,48,60,394789836
99,3,2,T1_SMS_8,306,5,42,127,394863020
99,3,2,T1_SMS_8,307,1,48,87,395536764
99,3,2,T1_SMS_8,308,1,48,63,395559256
99,3,2,T1_SMS_8,309,5,42,127,395662592
99,3,2,T1_SMS_8,310,1,48,97,396347992
99,3,2,T1_SMS_8,311,1,48,63,396371604
99,3,2,T1_SMS_8,312,5,42,127,396462392
99,3,2,T1_SMS_8,313,1,48,88,397140300
99,3,2,T1_SMS_8,314,1,48,59,397163836
99,3,2,T1_SMS_8,315,5,42,127,397263208
99,3,2,T1_SMS_8,316,1,48,76,398022012
99,3,2,T1_SMS_8,317,1,48,55,398047648
99,3,2,T1_SMS_8,318,5,42,127,398062936
99,3,2,T1_SMS_8,319,1,48,78,398800552
99,3,2,T1_SMS_8,320,1,48,59,398823044
99,3,2,T1_SMS_8,321,5,42,127,398862572
99,3,2,T1_SMS_8,322,1,48,96,399589872
99,3,2,T1_SMS_8,323,1,48,66,399613036
99,3,2,T1_SMS_8,324,5,42,127,399662436
99,3,2,T1_SMS_8,325,1,48,89,400377016
99,3,2,T1_SMS_8,326,1,48,61,400401076
99,3,2,T1_SMS_8,327,5,42,127,400463192
99,3,2,T1_SMS_8,328,1,48,76,401227440
99,3,2,T1_SMS_8,329,1,48,63,401249184
99,3,2,T1_SMS_8,330,5,42,127,401262904
99,3,2,T1_SMS_8,331,5,42,127,402062896
99,3,2,T1_SMS_8,332,1,48,80,402069156
99,3,2,T1_SMS_8,333,1,48,56,402092172
99,3,2,T1_SMS_8,334,1,48,85,402852168
99,3,2,T1_SMS_8,335,5,42,127,402862300
99,3,2,T1_SMS_8,336,1,48,61,402875200
99,3,2,T1_SMS_8,337,1,48,81,403625700
99,3,2,T1_SMS_8,338,1,48,65,403645652
99,3,2,T1_SMS_8,339,5,42,127,403663188
99,3,2,T1_SMS_8,340,1,48,101,404404916
99,3,2,T1_SMS_8,341,1,48,74,404427488
99,3,2,T1_SMS_8,342,5,42,127,404462900
99,3,2,T1_SMS_8,343,1,48,97,405218620
99,3,2,T1_SMS_8,344,1,48,62,405242160
99,3,2,T1_SMS_8,345,5,42,127,405262908
99,3,2,T1_SMS_8,346,1,48,92,405991704
99,3,2,T1_SMS_8,347,1,48,67,406016220
99,3,2,T1_SMS_8,0,9999,9999,9999,310060140
99,3,2,T1_SMS_8,1,9999,9999,9999,310860868
99,3,2,T1_SMS_8,2,9999,9999,9999,311660624
99,3,2,T1_SMS_8,3,9999,9999,9999,312460356
99,3,2,T1_SMS_8,4,9999,9999,9999,313260088
99,3,2,T1_SMS_8,5,9999,9999,9999,314060848
99,3,2,T1_SMS_8,6,9999,9999,9999,314860640
99,3,2,T1_SMS_8,7,9999,9999,9999,315660352
99,3,2,T1_SMS_8,8,9999,9999,9999,316460132
99,3,2,T1_SMS_8,9,9999,9999,9999,317260864
99,3,2,T1_SMS_8,10,9999,9999,9999,318060652
99,3,2,T1_SMS_8,11,9999,9999,9999,318860388
99,3,2,T1_SMS_8,12,9999,9999,9999,319660104
99,3,2,T1_SMS_8,13,9999,9999,9999,320460864
99,3,2,T1_SMS_8,14,9999,9999,9999,321260648
99,3,2,T1_SMS_8,15,9999,9999,9999,322060360
99,3,2,T1_SMS_8,16,9999,9999,9999,322860148
99,3,2,T1_SMS_8,17,9999,9999,9999,323660904
99,3,2,T1_SMS_8,18,9999,9999,9999,324460616
99,3,2,T1_SMS_8,19,9999,9999,9999,325260352
99,3,2,T1_SMS_8,20,9999,9999,9999,326060092
99,3,2,T1_SMS_8,21,9999,9999,9999,326860896
99,3,2,T1_SMS_8,22,9999,9999,9999,327660608
99,3,2,T1_SMS_8,23,9999,9999,9999,328460392
99,3,2,T1_SMS_8,24,9999,9999,9999,329260104
99,3,2,T1_SMS_8,25,9999,9999,9999,330060864
99,3,2,T1_SMS_8,26,9999,9999,9999,330860604
99,3,2,T1_SMS_8,27,9999,9999,9999,331660384
99,3,2,T1_SMS_8,28,9999,9999,9999,332460148
99,3,2,T1_SMS_8,29,9999,9999,9999,333260904
99,3,2,T1_SMS_8,30,9999,9999,9999,334060616
99,3,2,T1_SMS_8,31,9999,9999,9999,334860404
99,3,2,T1_SMS_8,32,9999,9999,9999,335660116
99,3,2,T1_SMS_8,33,9999,9999,9999,336460876
99,3,2,T1_SMS_8,34,9999,9999,9999,337260660
99,3,2,T1_SMS_8,35,9999,9999,9999,338060400
99,3,2,T1_SMS_8,36,9999,9999,9999,338860108
99,3,2,T1_SMS_8,37,9999,9999,9999,339660868
99,3,2,T1_SMS_8,38,9999,9999,9999,340460656
99,3,2,T1_SMS_8,39,9999,9999,9999,341260368
99,3,2,T1_SMS_8,40,9999,9999,9999,342060104
99,3,2,T1_SMS_8,41,9999,9999,9999,342860912
99,3,2,T1_SMS_8,42,9999,9999,9999,343660624
99,3,2,T1_SMS_8,43,9999,9999,9999,344460380
99,3,2,T1_SMS_8,44,9999,9999,9999,345260144
99,3,2,T1_SMS_8,45,9999,9999,9999,346060852
99,3,2,T1_SMS_8,46,9999,9999,9999,346860644
99,3,2,T1_SMS_8,47,9999,9999,9999,347660404
99,3,2,T1_SMS_8,48,9999,9999,9999,348460116
99,3,2,T1_SMS_8,49,9999,9999,9999,349260872
99,3,2,T1_SMS_8,50,9999,9999,9999,350060608
99,3,2,T1_SMS_8,51,9999,9999,9999,350860392
99,3,2,T1_SMS_8,52,9999,9999,9999,351660104
99,3,2,T1_SMS_8,53,9999,9999,9999,352460864
99,3,2,T1_SMS_8,54,9999,9999,9999,353260604
99,3,2,T1_SMS_8,55,9999,9999,9999,354060384
99,3,2,T1_SMS_8,56,9999,9999,9999,354860100
99,3,2,T1_SMS_8,57,9999,9999,9999,355660856
99,3,2,T1_SMS_8,58,9999,9999,9999,356460640
99,3,2,T1_SMS_8,59,9999,9999,9999,357260356
99,3,2,T1_SMS_8,60,9999,9999,9999,358060096
99,3,2,T1_SMS_8,61,9999,9999,9999,358860852
99,3,2,T1_SMS_8,62,9999,9999,9999,359660612
99,3,2,T1_SMS_8,63,9999,9999,9999,360460396
99,3,2,T1_SMS_8,64,9999,9999,9999,361260112
99,3,2,T1_SMS_8,65,9999,9999,9999,362060872
99,3,2,T1_SMS_8,66,9999,9999,9999,362860656
99,3,2,T1_SMS_8,67,9999,9999,9999,363660396
99,3,2,T1_SMS_8,68,9999,9999,9999,364460108
99,3,2,T1_SMS_8,69,9999,9999,9999,365260864
99,3,2,T1_SMS_8,70,9999,9999,9999,366060652
99,3,2,T1_SMS_8,71,9999,9999,9999,366860360
99,3,2,T1_SMS_8,72,9999,9999,9999,367660148
99,3,2,T1_SMS_8,73,9999,9999,9999,368460912
99,3,2,T1_SMS_8,74,9999,9999,9999,369260624
99,3,2,T1_SMS_8,75,9999,9999,9999,370060388
99,3,2,T1_SMS_8,76,9999,9999,9999,370860100
99,3,2,T1_SMS_8,77,9999,9999,9999,371660904
99,3,2,T1_SMS_8,78,9999,9999,9999,372460636
99,3,2,T1_SMS_8,79,9999,9999,9999,373260348
99,3,2,T1_SMS_8,80,9999,9999,9999,374060136
99,3,2,T1_SMS_8,81,9999,9999,9999,374860892
99,3,2,T1_SMS_8,82,9999,9999,9999,375660624
99,3,2,T1_SMS_8,83,9999,9999,9999,376460340
99,3,2,T1_SMS_8,84,9999,9999,9999,377260124
99,3,2,T1_SMS_8,85,9999,9999,9999,378060884
99,3,2,T1_SMS_8,86,9999,9999,9999,378860596
99,3,2,T1_SMS_8,87,9999,9999,9999,379660380
99,3,2,T1_SMS_8,88,9999,9999,9999,380460096
99,3,2,T1_SMS_8,89,9999,9999,9999,381260852
99,3,2,T1_SMS_8,90,9999,9999,9999,382060640
99,3,2,T1_SMS_8,91,9999,9999,9999,382860376
99,3,2,T1_SMS_8,92,9999,9999,9999,383660088
99,3,2,T1_SMS_8,93,9999,9999,9999,384460920
99,3,2,T1_SMS_8,94,9999,9999,9999,385260632
99,3,2,T1_SMS_8,95,9999,9999,9999,386060344
99,3,2,T1_SMS_8,96,9999,9999,9999,386860128
99,3,2,T1_SMS_8,97,9999,9999,9999,387660888
99,3,2,T1_SMS_8,98,9999,9999,9999,388460620
99,3,2,T1_SMS_8,99,9999,9999,9999,389260384
99,3,2,T1_SMS_8,100,9999,9999,9999,390060096
99,3,2,T1_SMS_8,101,9999,9999,9999,390860896
99,3,2,T1_SMS_8,102,9999,9999,9999,391660632
99,3,2,T1_SMS_8,103,9999,9999,9999,392460344
99,3,2,T1_SMS_8,104,9999,9999,9999,393260152
99,3,2,T1_SMS_8,105,9999,9999,9999,394060908
99,3,2,T1_SMS_8,106,9999,9999,9999,394860660
99,3,2,T1_SMS_8,107,9999,9999,9999,395660380
99,3,2,T1_SMS_8,108,9999,9999,9999,396460108
99,3,2,T1_SMS_8,109,9999,9999,9999,397260920
99,3,2,T1_SMS_8,110,9999,9999,9999,398060648
99,3,2,T1_SMS_8,111,9999,9999,9999,398860360
99,3,2,T1_SMS_8,112,9999,9999,9999,399660148
99,3,2,T1_SMS_8,113,9999,9999,9999,400460904
99,3,2,T1_SMS_8,114,9999,9999,9999,401260616
99,3,2,T1_SMS_8,115,9999,9999,9999,402060384
99,3,2,T1_SMS_8,116,9999,9999,9999,402860088
99,3,2,T1_SMS_8,117,9999,9999,9999,403660900
99,3,2,T1_SMS_8,118,9999,9999,9999,404460612
99,3,2,T1_SMS_8,119,9999,9999,9999,405260396
99,4,4,T1_SMS_5,0,5,42,127,472553976
99,4,4,T1_SMS_5,1,5,42,127,473053620
99,4,4,T1_SMS_5,2,5,42,127,473554384
99,4,4,T1_SMS_5,3,5,42,127,474053952
99,4,4,T1_SMS_5,4,1,48,77,474072852
99,4,4,T1_SMS_5,5,1,48,93,474544928
99,4,4,T1_SMS_5,6,5,42,127,474553640
99,4,4,T1_SMS_5,7,1,48,92,475031908
99,4,4,T1_SMS_5,8,5,42,127,475053408
99,4,4,T1_SMS_5,9,1,48,95,475532272
99,4,4,T1_SMS_5,10,5,42,127,475554152
99,4,4,T1_SMS_5,11,1,48,81,476017288
99,4,4,T1_SMS_5,12,5,42,127,476053996
99,4,4,T1_SMS_5,13,1,48,76,476548796
99,4,4,T1_SMS_5,14,5,42,127,476553840
99,4,4,T1_SMS_5,15,1,48,86,477029620
99,4,4,T1_SMS_5,16,5,42,127,477054332
99,4,4,T1_SMS_5,17,1,48,67,477524524
99,4,4,T1_SMS_5,18,5,42,127,477553952
99,4,4,T1_SMS_5,19,1,48,63,478047556
99,4,4,T1_SMS_5,20,5,42,127,478053720
99,4,4,T1_SMS_5,21,1,48,70,478542988
99,4,4,T1_SMS_5,22,5,42,127,478553564
99,4,4,T1_SMS_5,23,1,48,63,479035948
99,4,4,T1_SMS_5,24,5,42,127,479054084
99,4,4,T1_SMS_5,25,1,48,68,479540432
99,4,4,T1_SMS_5,26,5,42,127,479554000
99,4,4,T1_SMS_5,27,1,48,60,480042000
99,4,4,T1_SMS_5,28,5,42,127,480053548
99,4,4,T1_SMS_5,29,5,42,127,480554224
99,4,4,T1_SMS_5,30,1,48,65,480557792
99,4,4,T1_SMS_5,31,1,48,60,481040116
99,4,4,T1_SMS_5,32,5,42,127,481053912
99,4,4,T1_SMS_5,33,1,48,32,481099276
99,4,4,T1_SMS_5,34,1,48,66,481551008
99,4,4,T1_SMS_5,35,5,42,127,481553808
99,4,4,T1_SMS_5,36,1,48,71,482040828
99,4,4,T1_SMS_5,37,5,42,127,482053432
99,4,4,T1_SMS_5,38,1,48,68,482538432
99,4,4,T1_SMS_5,39,5,42,127,482554172
99,4,4,T1_SMS_5,40,1,48,67,483029896
99,4,4,T1_SMS_5,41,5,42,127,483053940
99,4,4,T1_SMS_5,42,1,48,64,483516428
99,4,4,T1_SMS_5,43,5,42,127,483553860
99,4,4,T1_SMS_5,44,1,48,78,484022704
99,4,4,T1_SMS_5,45,5,42,127,484054452
99,4,4,T1_SMS_5,46,1,48,72,484516640
99,4,4,T1_SMS_5,47,5,42,127,484554224
99,4,4,T1_SMS_5,48,1,48,72,485006088
99,4,4,T1_SMS_5,49,5,42,127,485053844
99,4,4,T1_SMS_5,50,1,48,71,485500976
99,4,4,T1_SMS_5,51,5,42,127,485553464
99,4,4,T1_SMS_5,52,1,48,82,485997752
99,4,4,T1_SMS_5,53,5,42,127,486054204
99,4,4,T1_SMS_5,54,1,48,68,486497744
99,4,4,T1_SMS_5,55,5,42,127,486553900
99,4,4,T1_SMS_5,56,1,48,70,486998932
99,4,4,T1_SMS_5,57,5,42,127,487053816
99,4,4,T1_SMS_5,58,1,48,72,487499672
99,4,4,T1_SMS_5,59,5,42,127,487554484
99,4,4,T1_SMS_5,60,1,48,71,487999892
99,4,4,T1_SMS_5,61,5,42,127,488054080
99,4,4,T1_SMS_5,62,1,48,74,488516872
99,4,4,T1_SMS_5,63,5,42,127,488554000
99,4,4,T1_SMS_5,64,1,48,70,489037960
99,4,4,T1_SMS_5,65,5,42,127,489053472
99,4,4,T1_SMS_5,66,1,48,61,489506752
99,4,4,T1_SMS_5,67,5,42,127,489554140
99,4,4,T1_SMS_5,68,1,48,69,490012884
99,4,4,T1_SMS_5,69,5,42,127,490053908
99,4,4,T1_SMS_5,70,1,48,70,490507572
99,4,4,T1_SMS_5,71,5,42,127,490553900
99,4,4,T1_SMS_5,72,1,48,76,490985048
99,4,4,T1_SMS_5,73,5,42,127,491053448
99,4,4,T1_SMS_5,74,1,48,69,491497684
99,4,4,T1_SMS_5,75,5,42,127,491554112
99,4,4,T1_SMS_5,76,1,48,64,492006508
99,4,4,T1_SMS_5,77,5,42,127,492053956
99,4,4,T1_SMS_5,78,1,48,64,492499320
99,4,4,T1_SMS_5,79,5,42,127,492553800
99,4,4,T1_SMS_5,80,1,48,67,492993928
99,4,4,T1_SMS_5,81,5,42,127,493054248
99,4,4,T1_SMS_5,82,1,48,62,493510004
99,4,4,T1_SMS_5,83,5,42,127,493554164
99,4,4,T1_SMS_5,84,1,48,71,493978056
99,4,4,T1_SMS_5,85,5,42,127,494054080
99,4,4,T1_SMS_5,86,5,42,127,494553336
99,4,4,T1_SMS_5,87,1,48,79,494554304
99,4,4,T1_SMS_5,88,1,48,69,495033916
99,4,4,T1_SMS_5,89,5,42,127,495054072
99,4,4,T1_SMS_5,90,1,48,69,495516936
99,4,4,T1_SMS_5,91,5,42,127,495553840
99,4,4,T1_SMS_5,92,1,48,68,495976816
99,4,4,T1_SMS_5,93,5,42,127,496053760
99,4,4,T1_SMS_5,94,1,48,71,496519544
99,4,4,T1_SMS_5,95,5,42,127,496554428
99,4,4,T1_SMS_5,96,1,48,69,497023620
99,4,4,T1_SMS_5,97,5,42,127,497054048
99,4,4,T1_SMS_5,98,1,48,65,497533044
99,4,4,T1_SMS_5,99,5,42,127,497553892
99,4,4,T1_SMS_5,100,1,48,73,498037000
99,4,4,T1_SMS_5,101,5,42,127,498053660
99,4,4,T1_SMS_5,102,1,48,72,498548064
99,4,4,T1_SMS_5,103,5,42,127,498554156
99,4,4,T1_SMS_5,104,1,48,67,499047984
99,4,4,T1_SMS_5,105,5,42,127,499054000
99,4,4,T1_SMS_5,106,1,48,82,499546180
99,4,4,T1_SMS_5,107,5,42,127,499553840
99,4,4,T1_SMS_5,108,1,48,73,500041536
99,4,4,T1_SMS_5,109,5,42,127,500054284
99,4,4,T1_SMS_5,110,1,48,61,500536968
99,4,4,T1_SMS_5,111,5,42,127,500553980
99,4,4,T1_SMS_5,112,1,48,65,501037560
99,4,4,T1_SMS_5,113,5,42,127,501053896
99,4,4,T1_SMS_5,114,1,48,76,501519752
99,4,4,T1_SMS_5,115,5,42,127,501553668
99,4,4,T1_SMS_5,116,1,48,84,501999324
99,4,4,T1_SMS_5,117,5,42,127,502054112
99,4,4,T1_SMS_5,118,1,48,85,502512260
99,4,4,T1_SMS_5,119,5,42,127,502554104
99,4,4,T1_SMS_5,120,1,48,70,503008064
99,4,4,T1_SMS_5,121,5,42,127,503053876
99,4,4,T1_SMS_5,122,1,48,79,503521600
99,4,4,T1_SMS_5,123,5,42,127,503554540
99,4,4,T1_SMS_5,124,1,48,80,504015532
99,4,4,T1_SMS_5,125,5,42,127,504054088
99,4,4,T1_SMS_5,126,1,48,85,504534824
99,4,4,T1_SMS_5,127,5,42,127,504553856
99,4,4,T1_SMS_5,128,1,48,77,505033924
99,4,4,T1_SMS_5,129,5,42,127,505053628
99,4,4,T1_SMS_5,130,1,48,86,505528832
99,4,4,T1_SMS_5,131,5,42,127,505554296
99,4,4,T1_SMS_5,132,1,48,71,506012516
99,4,4,T1_SMS_5,133,5,42,127,506054064
99,4,4,T1_SMS_5,134,1,48,79,506528972
99,4,4,T1_SMS_5,135,5,42,127,506553612
99,4,4,T1_SMS_5,136,1,48,79,507015872
99,4,4,T1_SMS_5,137,5,42,127,507053528
99,4,4,T1_SMS_5,138,1,48,76,507510908
99,4,4,T1_SMS_5,139,5,42,127,507554196
99,4,4,T1_SMS_5,140,1,48,83,508007088
99,4,4,T1_SMS_5,141,5,42,127,508053820
99,4,4,T1_SMS_5,142,1,48,79,508510072
99,4,4,T1_SMS_5,143,5,42,127,508553660
99,4,4,T1_SMS_5,144,1,48,73,509002136
99,4,4,T1_SMS_5,145,5,42,127,509054232
99,4,4,T1_SMS_5,146,1,48,86,509512228
99,4,4,T1_SMS_5,147,5,42,127,509554148
99,4,4,T1_SMS_5,148,1,48,74,510025012
99,4,4,T1_SMS_5,149,5,42,127,510053696
99,4,4,T1_SMS_5,150,1,48,78,510542584
99,4,4,T1_SMS_5,151,5,42,127,510553540
99,4,4,T1_SMS_5,152,1,48,92,511037868
99,4,4,T1_SMS_5,153,5,42,127,511054132
99,4,4,T1_SMS_5,154,1,48,80,511526712
99,4,4,T1_SMS_5,155,5,42,127,511554052
99,4,4,T1_SMS_5,156,1,48,86,512019608
99,4,4,T1_SMS_5,157,5,42,127,512053596
99,4,4,T1_SMS_5,158,1,48,80,512532840
99,4,4,T1_SMS_5,159,5,42,127,512554488
99,4,4,T1_SMS_5,160,1,48,80,513035524
99,4,4,T1_SMS_5,161,5,42,127,513054032
99,4,4,T1_SMS_5,162,1,48,83,513514948
99,4,4,T1_SMS_5,163,5,42,127,513553728
99,4,4,T1_SMS_5,164,1,48,81,514005220
99,4,4,T1_SMS_5,165,5,42,127,514053572
99,4,4,T1_SMS_5,166,1,48,71,514508132
99,4,4,T1_SMS_5,167,5,42,127,514554164
99,4,4,T1_SMS_5,168,1,48,88,515025476
99,4,4,T1_SMS_5,169,5,42,127,515053788
99,4,4,T1_SMS_5,170,1,48,78,515537368
99,4,4,T1_SMS_5,171,5,42,127,515553628
99,4,4,T1_SMS_5,172,1,48,79,516034440
99,4,4,T1_SMS_5,173,5,42,127,516054668
99,4,4,T1_SMS_5,174,1,48,79,516530324
99,4,4,T1_SMS_5,175,5,42,127,516554068
99,4,4,T1_SMS_5,176,1,48,72,517043780
99,4,4,T1_SMS_5,177,5,42,127,517053688
99,4,4,T1_SMS_5,178,1,48,70,517552184
99,4,4,T1_SMS_5,179,5,42,127,517553680
99,4,4,T1_SMS_5,180,1,48,74,518040924
99,4,4,T1_SMS_5,181,5,42,127,518054344
99,4,4,T1_SMS_5,182,1,48,74,518552312
99,4,4,T1_SMS_5,183,5,42,127,518553820
99,4,4,T1_SMS_5,184,5,42,127,519053672
99,4,4,T1_SMS_5,185,1,48,78,519059708
99,4,4,T1_SMS_5,186,5,42,127,519554632
99,4,4,T1_SMS_5,187,1,48,84,519561572
99,4,4,T1_SMS_5,188,1,48,76,520044540
99,4,4,T1_SMS_5,189,5,42,127,520054076
99,4,4,T1_SMS_5,190,1,48,80,520525760
99,4,4,T1_SMS_5,191,5,42,127,520553920
99,4,4,T1_SMS_5,192,1,48,65,521026652
99,4,4,T1_SMS_5,193,5,42,127,521053540
99,4,4,T1_SMS_5,194,1,48,65,521499272
99,4,4,T1_SMS_5,195,5,42,127,521554208
99,4,4,T1_SMS_5,196,1,48,83,522016996
99,4,4,T1_SMS_5,197,5,42,127,522053900
99,4,4,T1_SMS_5,198,1,48,76,522526708
99,4,4,T1_SMS_5,199,5,42,127,522553824
99,4,4,T1_SMS_5,200,1,48,80,523008532
99,4,4,T1_SMS_5,201,5,42,127,523053444
99,4,4,T1_SMS_5,202,1,48,93,523498508
99,4,4,T1_SMS_5,203,5,42,127,523554108
99,4,4,T1_SMS_5,204,1,48,97,523990420
99,4,4,T1_SMS_5,205,5,42,127,524053956
99,4,4,T1_SMS_5,206,1,48,94,524510684
99,4,4,T1_SMS_5,207,5,42,127,524553576
99,4,4,T1_SMS_5,208,1,48,98,524998036
99,4,4,T1_SMS_5,209,5,42,127,525054540
99,4,4,T1_SMS_5,210,1,48,94,525490848
99,4,4,T1_SMS_5,211,5,42,127,525554160
99,4,4,T1_SMS_5,212,1,48,83,526005800
99,4,4,T1_SMS_5,213,5,42,127,526053780
99,4,4,T1_SMS_5,214,1,48,92,526505420
99,4,4,T1_SMS_5,215,5,42,127,526553324
99,4,4,T1_SMS_5,216,1,48,89,527003696
99,4,4,T1_SMS_5,217,5,42,127,527054364
99,4,4,T1_SMS_5,218,1,48,91,527510196
99,4,4,T1_SMS_5,219,5,42,127,527553836
99,4,4,T1_SMS_5,220,1,48,80,528002856
99,4,4,T1_SMS_5,221,5,42,127,528053608
99,4,4,T1_SMS_5,222,1,48,86,528482708
99,4,4,T1_SMS_5,223,5,42,127,528554644
99,4,4,T1_SMS_5,224,1,48,78,528984044
99,4,4,T1_SMS_5,225,5,42,127,529053968
99,4,4,T1_SMS_5,226,1,48,85,529494440
99,4,4,T1_SMS_5,227,5,42,127,529553888
99,4,4,T1_SMS_5,228,1,48,89,529992864
99,4,4,T1_SMS_5,229,5,42,127,530053656
99,4,4,T1_SMS_5,230,1,48,90,530494052
99,4,4,T1_SMS_5,231,5,42,127,530554372
99,4,4,T1_SMS_5,232,1,48,96,530975716
99,4,4,T1_SMS_5,233,5,42,127,531053916
99,4,4,T1_SMS_5,234,1,48,76,531470704
99,4,4,T1_SMS_5,235,5,42,127,531553612
99,4,4,T1_SMS_5,236,1,48,85,532030160
99,4,4,T1_SMS_5,237,5,42,127,532054504
99,4,4,T1_SMS_5,238,1,48,92,532474356
99,4,4,T1_SMS_5,239,5,42,127,532554196
99,4,4,T1_SMS_5,240,1,48,89,533002096
99,4,4,T1_SMS_5,241,5,42,127,533053744
99,4,4,T1_SMS_5,242,1,48,88,533523636
99,4,4,T1_SMS_5,243,5,42,127,533553588
99,4,4,T1_SMS_5,244,1,48,97,534007624
99,4,4,T1_SMS_5,245,5,42,127,534054328
99,4,4,T1_SMS_5,246,1,48,78,534501256
99,4,4,T1_SMS_5,247,5,42,127,534553948
99,4,4,T1_SMS_5,248,1,48,85,534985392
99,4,4,T1_SMS_5,249,5,42,127,535053644
99,4,4,T1_SMS_5,250,1,48,96,535490928
99,4,4,T1_SMS_5,251,5,42,127,535554388
99,4,4,T1_SMS_5,252,1,48,92,535976556
99,4,4,T1_SMS_5,253,5,42,127,536054156
99,4,4,T1_SMS_5,254,1,48,104,536484628
99,4,4,T1_SMS_5,255,5,42,127,536553704
99,4,4,T1_SMS_5,256,1,48,96,537002500
99,4,4,T1_SMS_5,257,5,42,127,537053472
99,4,4,T1_SMS_5,258,1,48,93,537525312
99,4,4,T1_SMS_5,0,9999,9999,9999,472551544
99,4,4,T1_SMS_5,1,9999,9999,9999,473051184
99,4,4,T1_SMS_5,2,9999,9999,9999,473551948
99,4,4,T1_SMS_5,3,9999,9999,9999,474051664
99,4,4,T1_SMS_5,4,9999,9999,9999,474551352
99,4,4,T1_SMS_5,5,9999,9999,9999,475051124
99,4,4,T1_SMS_5,6,9999,9999,9999,475551864
99,4,4,T1_SMS_5,7,9999,9999,9999,476051560
99,4,4,T1_SMS_5,8,9999,9999,9999,476551256
99,4,4,T1_SMS_5,9,9999,9999,9999,477051972
99,4,4,T1_SMS_5,10,9999,9999,9999,477551668
99,4,4,T1_SMS_5,11,9999,9999,9999,478051436
99,4,4,T1_SMS_5,12,9999,9999,9999,478551132
99,4,4,T1_SMS_5,13,9999,9999,9999,479051872
99,4,4,T1_SMS_5,14,9999,9999,9999,479551568
99,4,4,T1_SMS_5,15,9999,9999,9999,480051260
99,4,4,T1_SMS_5,16,9999,9999,9999,480552012
99,4,4,T1_SMS_5,17,9999,9999,9999,481051700
99,4,4,T1_SMS_5,18,9999,9999,9999,481551448
99,4,4,T1_SMS_5,19,9999,9999,9999,482051144
99,4,4,T1_SMS_5,20,9999,9999,9999,482551888
99,4,4,T1_SMS_5,21,9999,9999,9999,483051580
99,4,4,T1_SMS_5,22,9999,9999,9999,483551348
99,4,4,T1_SMS_5,23,9999,9999,9999,484052016
99,4,4,T1_SMS_5,24,9999,9999,9999,484551788
99,4,4,T1_SMS_5,25,9999,9999,9999,485051484
99,4,4,T1_SMS_5,26,9999,9999,9999,485551180
99,4,4,T1_SMS_5,27,9999,9999,9999,486051920
99,4,4,T1_SMS_5,28,9999,9999,9999,486551612
99,4,4,T1_SMS_5,29,9999,9999,9999,487051384
99,4,4,T1_SMS_5,30,9999,9999,9999,487552100
99,4,4,T1_SMS_5,31,9999,9999,9999,488051792
99,4,4,T1_SMS_5,32,9999,9999,9999,488551488
99,4,4,T1_SMS_5,33,9999,9999,9999,489051184
99,4,4,T1_SMS_5,34,9999,9999,9999,489551928
99,4,4,T1_SMS_5,35,9999,9999,9999,490051696
99,4,4,T1_SMS_5,36,9999,9999,9999,490551392
99,4,4,T1_SMS_5,37,9999,9999,9999,491051088
99,4,4,T1_SMS_5,38,9999,9999,9999,491551828
99,4,4,T1_SMS_5,39,9999,9999,9999,492051524
99,4,4,T1_SMS_5,40,9999,9999,9999,492551216
99,4,4,T1_SMS_5,41,9999,9999,9999,493051960
99,4,4,T1_SMS_5,42,9999,9999,9999,493551728
99,4,4,T1_SMS_5,43,9999,9999,9999,494051424
99,4,4,T1_SMS_5,44,9999,9999,9999,494551124
99,4,4,T1_SMS_5,45,9999,9999,9999,495051860
99,4,4,T1_SMS_5,46,9999,9999,9999,495551556
99,4,4,T1_SMS_5,47,9999,9999,9999,496051252
99,4,4,T1_SMS_5,48,9999,9999,9999,496551992
99,4,4,T1_SMS_5,49,9999,9999,9999,497051764
99,4,4,T1_SMS_5,50,9999,9999,9999,497551456
99,4,4,T1_SMS_5,51,9999,9999,9999,498051152
99,4,4,T1_SMS_5,52,9999,9999,9999,498551868
99,4,4,T1_SMS_5,53,9999,9999,9999,499051636
99,4,4,T1_SMS_5,54,9999,9999,9999,499551332
99,4,4,T1_SMS_5,55,9999,9999,9999,500052072
99,4,4,T1_SMS_5,56,9999,9999,9999,500551768
99,4,4,T1_SMS_5,57,9999,9999,9999,501051464
99,4,4,T1_SMS_5,58,9999,9999,9999,501551160
99,4,4,T1_SMS_5,59,9999,9999,9999,502051900
99,4,4,T1_SMS_5,60,9999,9999,9999,502551668
99,4,4,T1_SMS_5,61,9999,9999,9999,503051364
99,4,4,T1_SMS_5,62,9999,9999,9999,503552104
99,4,4,T1_SMS_5,63,9999,9999,9999,504051800
99,4,4,T1_SMS_5,64,9999,9999,9999,504551496
99,4,4,T1_SMS_5,65,9999,9999,9999,505051192
99,4,4,T1_SMS_5,66,9999,9999,9999,505551936
99,4,4,T1_SMS_5,67,9999,9999,9999,506051704
99,4,4,T1_SMS_5,68,9999,9999,9999,506551400
99,4,4,T1_SMS_5,69,9999,9999,9999,507051096
99,4,4,T1_SMS_5,70,9999,9999,9999,507551836
99,4,4,T1_SMS_5,71,9999,9999,9999,508051532
99,4,4,T1_SMS_5,72,9999,9999,9999,508551228
99,4,4,T1_SMS_5,73,9999,9999,9999,509052020
99,4,4,T1_SMS_5,74,9999,9999,9999,509551712
99,4,4,T1_SMS_5,75,9999,9999,9999,510051408
99,4,4,T1_SMS_5,76,9999,9999,9999,510551104
99,4,4,T1_SMS_5,77,9999,9999,9999,511051844
99,4,4,T1_SMS_5,78,9999,9999,9999,511551540
99,4,4,T1_SMS_5,79,9999,9999,9999,512051312
99,4,4,T1_SMS_5,80,9999,9999,9999,512552052
99,4,4,T1_SMS_5,81,9999,9999,9999,513051748
99,4,4,T1_SMS_5,82,9999,9999,9999,513551444
99,4,4,T1_SMS_5,83,9999,9999,9999,514051136
99,4,4,T1_SMS_5,84,9999,9999,9999,514551880
99,4,4,T1_SMS_5,85,9999,9999,9999,515051576
99,4,4,T1_SMS_5,86,9999,9999,9999,515551344
99,4,4,T1_SMS_5,87,9999,9999,9999,516052084
99,4,4,T1_SMS_5,88,9999,9999,9999,516551780
99,4,4,T1_SMS_5,89,9999,9999,9999,517051476
99,4,4,T1_SMS_5,90,9999,9999,9999,517551176
99,4,4,T1_SMS_5,91,9999,9999,9999,518051912
99,4,4,T1_SMS_5,92,9999,9999,9999,518551612
99,4,4,T1_SMS_5,93,9999,9999,9999,519051380
99,4,4,T1_SMS_5,94,9999,9999,9999,519552048
99,4,4,T1_SMS_5,95,9999,9999,9999,520051788
99,4,4,T1_SMS_5,96,9999,9999,9999,520551484
99,4,4,T1_SMS_5,97,9999,9999,9999,521051252
99,4,4,T1_SMS_5,98,9999,9999,9999,521551920
99,4,4,T1_SMS_5,99,9999,9999,9999,522051688
99,4,4,T1_SMS_5,100,9999,9999,9999,522551388
99,4,4,T1_SMS_5,101,9999,9999,9999,523051084
99,4,4,T1_SMS_5,102,9999,9999,9999,523551824
99,4,4,T1_SMS_5,103,9999,9999,9999,524051520
99,4,4,T1_SMS_5,104,9999,9999,9999,524551288
99,4,4,T1_SMS_5,105,9999,9999,9999,525051956
99,4,4,T1_SMS_5,106,9999,9999,9999,525551724
99,4,4,T1_SMS_5,107,9999,9999,9999,526051420
99,4,4,T1_SMS_5,108,9999,9999,9999,526551112
99,4,4,T1_SMS_5,109,9999,9999,9999,527051856
99,4,4,T1_SMS_5,110,9999,9999,9999,527551548
99,4,4,T1_SMS_5,111,9999,9999,9999,528051320
99,4,4,T1_SMS_5,112,9999,9999,9999,528551988
99,4,4,T1_SMS_5,113,9999,9999,9999,529051756
99,4,4,T1_SMS_5,114,9999,9999,9999,529551452
99,4,4,T1_SMS_5,115,9999,9999,9999,530051144
99,4,4,T1_SMS_5,116,9999,9999,9999,530551864
99,4,4,T1_SMS_5,117,9999,9999,9999,531051632
99,4,4,T1_SMS_5,118,9999,9999,9999,531551324
99,4,4,T1_SMS_5,119,9999,9999,9999,532052068
99,4,4,T1_SMS_5,120,9999,9999,9999,532551764
99,4,4,T1_SMS_5,121,9999,9999,9999,533051456
99,4,4,T1_SMS_5,122,9999,9999,9999,533551152
99,4,4,T1_SMS_5,123,9999,9999,9999,534051896
99,4,4,T1_SMS_5,124,9999,9999,9999,534551664
99,4,4,T1_SMS_5,125,9999,9999,9999,535051360
99,4,4,T1_SMS_5,126,9999,9999,9999,535552100
99,4,4,T1_SMS_5,127,9999,9999,9999,536051796
99,4,4,T1_SMS_5,128,9999,9999,9999,536551492
99,4,4,T1_SMS_5,129,9999,9999,9999,537051184
99,5,9,Ticks_ISO_T2_8,0,5,42,127,548283900
99,5,9,Ticks_ISO_T2_8,1,5,42,127,549083356
99,5,9,Ticks_ISO_T2_8,2,5,42,127,549884160
99,5,9,Ticks_ISO_T2_8,3,1,48,74,549969628
99,5,9,Ticks_ISO_T2_8,4,1,48,67,550683440
99,5,9,Ticks_ISO_T2_8,5,5,42,127,550685008
99,5,9,Ticks_ISO_T2_8,6,1,48,66,551449852
99,5,9,Ticks_ISO_T2_8,7,5,42,127,551483692
99,5,9,Ticks_ISO_T2_8,8,1,48,71,552221988
99,5,9,Ticks_ISO_T2_8,9,5,42,127,552283500
99,5,9,Ticks_ISO_T2_8,10,1,48,71,553051416
99,5,9,Ticks_ISO_T2_8,11,5,42,127,553084208
99,5,9,Ticks_ISO_T2_8,12,1,48,70,553864032
99,5,9,Ticks_ISO_T2_8,13,5,42,127,553884188
99,5,9,Ticks_ISO_T2_8,14,1,48,72,554676936
99,5,9,Ticks_ISO_T2_8,15,5,42,127,554683624
99,5,9,Ticks_ISO_T2_8,16,1,48,71,555478388
99,5,9,Ticks_ISO_T2_8,17,5,42,127,555483432
99,5,9,Ticks_ISO_T2_8,18,1,48,71,556231748
99,5,9,Ticks_ISO_T2_8,19,5,42,127,556284360
99,5,9,Ticks_ISO_T2_8,20,1,48,70,557044344
99,5,9,Ticks_ISO_T2_8,21,5,42,127,557083948
99,5,9,Ticks_ISO_T2_8,22,1,48,64,557828672
99,5,9,Ticks_ISO_T2_8,23,5,42,127,557883752
99,5,9,Ticks_ISO_T2_8,24,5,42,127,558683568
99,5,9,Ticks_ISO_T2_8,25,1,48,66,558687292
99,5,9,Ticks_ISO_T2_8,26,1,48,68,559452892
99,5,9,Ticks_ISO_T2_8,27,5,42,127,559484192
99,5,9,Ticks_ISO_T2_8,28,1,48,80,560239016
99,5,9,Ticks_ISO_T2_8,29,5,42,127,560284024
99,5,9,Ticks_ISO_T2_8,30,1,48,62,561026880
99,5,9,Ticks_ISO_T2_8,31,5,42,127,561083908
99,5,9,Ticks_ISO_T2_8,32,1,48,70,561871564
99,5,9,Ticks_ISO_T2_8,33,5,42,127,561883492
99,5,9,Ticks_ISO_T2_8,34,1,48,71,562651028
99,5,9,Ticks_ISO_T2_8,35,5,42,127,562684344
99,5,9,Ticks_ISO_T2_8,36,1,48,65,563449268
99,5,9,Ticks_ISO_T2_8,37,5,42,127,563484228
99,5,9,Ticks_ISO_T2_8,38,1,48,73,564242568
99,5,9,Ticks_ISO_T2_8,39,5,42,127,564283960
99,5,9,Ticks_ISO_T2_8,40,5,42,127,565083552
99,5,9,Ticks_ISO_T2_8,41,1,48,76,565095796
99,5,9,Ticks_ISO_T2_8,42,1,48,75,565825200
99,5,9,Ticks_ISO_T2_8,43,5,42,127,565884252
99,5,9,Ticks_ISO_T2_8,44,1,48,68,566658744
99,5,9,Ticks_ISO_T2_8,45,5,42,127,566684208
99,5,9,Ticks_ISO_T2_8,46,1,48,65,567469920
99,5,9,Ticks_ISO_T2_8,47,5,42,127,567483716
99,5,9,Ticks_ISO_T2_8,48,1,48,61,568271376
99,5,9,Ticks_ISO_T2_8,49,5,42,127,568283452
99,5,9,Ticks_ISO_T2_8,50,1,48,67,569050320
99,5,9,Ticks_ISO_T2_8,51,5,42,127,569084308
99,5,9,Ticks_ISO_T2_8,52,1,48,66,569872864
99,5,9,Ticks_ISO_T2_8,53,5,42,127,569884116
99,5,9,Ticks_ISO_T2_8,54,1,48,67,570627496
99,5,9,Ticks_ISO_T2_8,55,5,42,127,570683924
99,5,9,Ticks_ISO_T2_8,56,5,42,127,571483440
99,5,9,Ticks_ISO_T2_8,57,1,48,67,571531616
99,5,9,Ticks_ISO_T2_8,58,1,48,68,572174300
99,5,9,Ticks_ISO_T2_8,59,5,42,127,572284124
99,5,9,Ticks_ISO_T2_8,60,1,48,91,573050028
99,5,9,Ticks_ISO_T2_8,61,5,42,127,573084188
99,5,9,Ticks_ISO_T2_8,62,1,48,75,573831460
99,5,9,Ticks_ISO_T2_8,63,5,42,127,573883996
99,5,9,Ticks_ISO_T2_8,64,1,48,75,574628648
99,5,9,Ticks_ISO_T2_8,65,5,42,127,574683432
99,5,9,Ticks_ISO_T2_8,66,1,48,77,575431668
99,5,9,Ticks_ISO_T2_8,67,5,42,127,575484136
99,5,9,Ticks_ISO_T2_8,68,1,48,80,576260428
99,5,9,Ticks_ISO_T2_8,69,5,42,127,576283872
99,5,9,Ticks_ISO_T2_8,70,1,48,92,577026652
99,5,9,Ticks_ISO_T2_8,71,5,42,127,577083980
99,5,9,Ticks_ISO_T2_8,72,1,48,102,577825560
99,5,9,Ticks_ISO_T2_8,73,5,42,127,577883488
99,5,9,Ticks_ISO_T2_8,74,1,48,76,578621632
99,5,9,Ticks_ISO_T2_8,75,5,42,127,578684268
99,5,9,Ticks_ISO_T2_8,76,1,48,102,579482140
99,5,9,Ticks_ISO_T2_8,77,5,42,127,579483876
99,5,9,Ticks_ISO_T2_8,78,5,42,127,580283768
99,5,9,Ticks_ISO_T2_8,79,1,48,64,580287860
99,5,9,Ticks_ISO_T2_8,80,1,48,68,581055788
99,5,9,Ticks_ISO_T2_8,81,5,42,127,581083496
99,5,9,Ticks_ISO_T2_8,82,1,48,58,581817452
99,5,9,Ticks_ISO_T2_8,83,5,42,127,581884124
99,5,9,Ticks_ISO_T2_8,84,1,48,67,582597812
99,5,9,Ticks_ISO_T2_8,85,5,42,127,582683936
99,5,9,Ticks_ISO_T2_8,86,1,48,67,583399488
99,5,9,Ticks_ISO_T2_8,87,5,42,127,583483740
99,5,9,Ticks_ISO_T2_8,88,1,48,53,584232728
99,5,9,Ticks_ISO_T2_8,89,5,42,127,584283476
99,5,9,Ticks_ISO_T2_8,90,1,48,80,585035828
99,5,9,Ticks_ISO_T2_8,91,5,42,127,585084180
99,5,9,Ticks_ISO_T2_8,92,1,48,59,585795168
99,5,9,Ticks_ISO_T2_8,93,5,42,127,585883864
99,5,9,Ticks_ISO_T2_8,94,1,48,64,586669652
99,5,9,Ticks_ISO_T2_8,95,5,42,127,586683820
99,5,9,Ticks_ISO_T2_8,96,1,48,61,587472448
99,5,9,Ticks_ISO_T2_8,97,5,42,127,587483628
99,5,9,Ticks_ISO_T2_8,98,1,48,58,588251988
99,5,9,Ticks_ISO_T2_8,99,5,42,127,588284484
99,5,9,Ticks_ISO_T2_8,100,1,48,57,589014176
99,5,9,Ticks_ISO_T2_8,101,5,42,127,589083996
99,5,9,Ticks_ISO_T2_8,102,1,48,61,589826996
99,5,9,Ticks_ISO_T2_8,103,5,42,127,589883804
99,5,9,Ticks_ISO_T2_8,104,1,48,51,590668692
99,5,9,Ticks_ISO_T2_8,105,5,42,127,590683536
99,5,9,Ticks_ISO_T2_8,106,1,48,65,591452940
99,5,9,Ticks_ISO_T2_8,107,5,42,127,591484240
99,5,9,Ticks_ISO_T2_8,108,1,48,67,592264592
99,5,9,Ticks_ISO_T2_8,109,5,42,127,592284148
99,5,9,Ticks_ISO_T2_8,110,1,48,62,593049964
99,5,9,Ticks_ISO_T2_8,111,5,42,127,593083656
99,5,9,Ticks_ISO_T2_8,112,1,48,57,593862560
99,5,9,Ticks_ISO_T2_8,113,5,42,127,593883616
99,5,9,Ticks_ISO_T2_8,114,1,48,57,594661776
99,5,9,Ticks_ISO_T2_8,115,5,42,127,594684244
99,5,9,Ticks_ISO_T2_8,116,1,48,64,595439292
99,5,9,Ticks_ISO_T2_8,117,5,42,127,595483904
99,5,9,Ticks_ISO_T2_8,118,1,48,54,596241044
99,5,9,Ticks_ISO_T2_8,119,5,42,127,596283860
99,5,9,Ticks_ISO_T2_8,120,1,48,65,597071000
99,5,9,Ticks_ISO_T2_8,121,5,42,127,597083668
99,5,9,Ticks_ISO_T2_8,122,1,48,68,597850536
99,5,9,Ticks_ISO_T2_8,123,5,42,127,597884376
99,5,9,Ticks_ISO_T2_8,124,1,48,68,598676524
99,5,9,Ticks_ISO_T2_8,125,5,42,127,598684036
99,5,9,Ticks_ISO_T2_8,126,1,48,56,599423524
99,5,9,Ticks_ISO_T2_8,127,5,42,127,599483844
99,5,9,Ticks_ISO_T2_8,128,5,42,127,600283736
99,5,9,Ticks_ISO_T2_8,129,1,48,63,600316844
99,5,9,Ticks_ISO_T2_8,130,1,48,67,600988584
99,5,9,Ticks_ISO_T2_8,131,5,42,127,601084496
99,5,9,Ticks_ISO_T2_8,132,1,48,55,601874336
99,5,9,Ticks_ISO_T2_8,133,5,42,127,601884092
99,5,9,Ticks_ISO_T2_8,134,5,42,127,602683760
99,5,9,Ticks_ISO_T2_8,135,1,48,57,602693764
99,5,9,Ticks_ISO_T2_8,136,5,42,127,603483788
99,5,9,Ticks_ISO_T2_8,137,1,48,61,603515556
99,5,9,Ticks_ISO_T2_8,138,1,48,60,604272864
99,5,9,Ticks_ISO_T2_8,139,5,42,127,604284192
99,5,9,Ticks_ISO_T2_8,140,1,48,59,605044520
99,5,9,Ticks_ISO_T2_8,141,5,42,127,605084000
99,5,9,Ticks_ISO_T2_8,142,1,48,56,605821996
99,5,9,Ticks_ISO_T2_8,143,5,42,127,605883732
99,5,9,Ticks_ISO_T2_8,144,1,48,60,606638480
99,5,9,Ticks_ISO_T2_8,145,5,42,127,606683688
99,5,9,Ticks_ISO_T2_8,146,1,48,73,607404404
99,5,9,Ticks_ISO_T2_8,147,5,42,127,607484468
99,5,9,Ticks_ISO_T2_8,148,1,48,76,608248120
99,5,9,Ticks_ISO_T2_8,149,5,42,127,608283904
99,5,9,Ticks_ISO_T2_8,150,1,48,72,608995420
99,5,9,Ticks_ISO_T2_8,151,5,42,127,609083864
99,5,9,Ticks_ISO_T2_8,152,1,48,90,609851100
99,5,9,Ticks_ISO_T2_8,153,5,42,127,609883668
99,5,9,Ticks_ISO_T2_8,154,1,48,82,610627724
99,5,9,Ticks_ISO_T2_8,155,5,42,127,610684548
99,5,9,Ticks_ISO_T2_8,156,1,48,74,611466528
99,5,9,Ticks_ISO_T2_8,157,5,42,127,611483984
99,5,9,Ticks_ISO_T2_8,158,1,48,72,612266260
99,5,9,Ticks_ISO_T2_8,159,5,42,127,612283644
99,5,9,Ticks_ISO_T2_8,160,1,48,76,613039216
99,5,9,Ticks_ISO_T2_8,161,5,42,127,613083452
99,5,9,Ticks_ISO_T2_8,162,1,48,64,613876196
99,5,9,Ticks_ISO_T2_8,163,5,42,127,613884380
99,5,9,Ticks_ISO_T2_8,164,1,48,64,614642724
99,5,9,Ticks_ISO_T2_8,165,5,42,127,614683968
99,5,9,Ticks_ISO_T2_8,166,1,48,65,615416644
99,5,9,Ticks_ISO_T2_8,167,5,42,127,615483628
99,5,9,Ticks_ISO_T2_8,168,5,42,127,616283440
99,5,9,Ticks_ISO_T2_8,169,1,48,57,616287684
99,5,9,Ticks_ISO_T2_8,170,1,48,62,617077524
99,5,9,Ticks_ISO_T2_8,171,5,42,127,617084312
99,5,9,Ticks_ISO_T2_8,172,5,42,127,617883980
99,5,9,Ticks_ISO_T2_8,173,1,48,68,617900340
99,5,9,Ticks_ISO_T2_8,174,1,48,69,618644632
99,5,9,Ticks_ISO_T2_8,175,5,42,127,618683708
99,5,9,Ticks_ISO_T2_8,176,1,48,60,619442492
99,5,9,Ticks_ISO_T2_8,177,5,42,127,619483364
99,5,9,Ticks_ISO_T2_8,178,1,48,62,620256516
99,5,9,Ticks_ISO_T2_8,179,5,42,127,620284444
99,5,9,Ticks_ISO_T2_8,180,1,48,62,621053180
99,5,9,Ticks_ISO_T2_8,181,5,42,127,621084104
99,5,9,Ticks_ISO_T2_8,182,1,48,62,621871908
99,5,9,Ticks_ISO_T2_8,183,5,42,127,621883688
99,5,9,Ticks_ISO_T2_8,184,1,48,65,622657660
99,5,9,Ticks_ISO_T2_8,185,5,42,127,622683568
99,5,9,Ticks_ISO_T2_8,186,1,48,56,623464568
99,5,9,Ticks_ISO_T2_8,187,5,42,127,623484444
99,5,9,Ticks_ISO_T2_8,188,1,48,62,624254376
99,5,9,Ticks_ISO_T2_8,189,5,42,127,624284032
99,5,9,Ticks_ISO_T2_8,190,1,48,65,624993352
99,5,9,Ticks_ISO_T2_8,191,5,42,127,625083688
99,5,9,Ticks_ISO_T2_8,192,5,42,127,625883356
99,5,9,Ticks_ISO_T2_8,193,1,48,74,625903752
99,5,9,Ticks_ISO_T2_8,194,1,48,63,626622540
99,5,9,Ticks_ISO_T2_8,195,5,42,127,626684424
99,5,9,Ticks_ISO_T2_8,196,1,48,70,627461388
99,5,9,Ticks_ISO_T2_8,197,5,42,127,627483936
99,5,9,Ticks_ISO_T2_8,198,1,48,64,628251248
99,5,9,Ticks_ISO_T2_8,199,5,42,127,628283744
99,5,9,Ticks_ISO_T2_8,200,1,48,70,629059960
99,5,9,Ticks_ISO_T2_8,201,5,42,127,629083480
99,5,9,Ticks_ISO_T2_8,202,1,48,59,629845256
99,5,9,Ticks_ISO_T2_8,203,5,42,127,629884208
99,5,9,Ticks_ISO_T2_8,204,1,48,62,630676504
99,5,9,Ticks_ISO_T2_8,205,5,42,127,630683940
99,5,9,Ticks_ISO_T2_8,206,1,48,66,631478408
99,5,9,Ticks_ISO_T2_8,207,5,42,127,631483748
99,5,9,Ticks_ISO_T2_8,208,5,42,127,632283488
99,5,9,Ticks_ISO_T2_8,209,1,48,83,632303736
99,5,9,Ticks_ISO_T2_8,210,1,48,73,633002028
99,5,9,Ticks_ISO_T2_8,211,5,42,127,633084188
99,5,9,Ticks_ISO_T2_8,212,1,48,81,633884300
99,5,9,Ticks_ISO_T2_8,213,5,42,127,633885720
99,5,9,Ticks_ISO_T2_8,214,1,48,72,634658640
99,5,9,Ticks_ISO_T2_8,215,5,42,127,634683732
99,5,9,Ticks_ISO_T2_8,216,1,48,72,635465328
99,5,9,Ticks_ISO_T2_8,217,5,42,127,635483388
99,5,9,Ticks_ISO_T2_8,218,1,48,64,636226316
99,5,9,Ticks_ISO_T2_8,219,5,42,127,636284196
99,5,9,Ticks_ISO_T2_8,220,1,48,69,637027244
99,5,9,Ticks_ISO_T2_8,221,5,42,127,637084152
99,5,9,Ticks_ISO_T2_8,222,5,42,127,637883892
99,5,9,Ticks_ISO_T2_8,223,1,48,78,637902268
99,5,9,Ticks_ISO_T2_8,224,5,42,127,638683548
99,5,9,Ticks_ISO_T2_8,225,1,48,76,638685192
99,5,9,Ticks_ISO_T2_8,226,1,48,60,639466564
99,5,9,Ticks_ISO_T2_8,227,5,42,127,639484172
99,5,9,Ticks_ISO_T2_8,228,1,48,57,640276092
99,5,9,Ticks_ISO_T2_8,229,5,42,127,640284132
99,5,9,Ticks_ISO_T2_8,230,1,48,55,641066996
99,5,9,Ticks_ISO_T2_8,231,5,42,127,641083792
99,5,9,Ticks_ISO_T2_8,232,5,42,127,641883532
99,5,9,Ticks_ISO_T2_8,233,1,48,72,641911632
99,5,9,Ticks_ISO_T2_8,234,1,48,61,642598704
99,5,9,Ticks_ISO_T2_8,235,5,42,127,642684180
99,5,9,Ticks_ISO_T2_8,236,5,42,127,643484216
99,5,9,Ticks_ISO_T2_8,237,1,48,45,643490932
99,5,9,Ticks_ISO_T2_8,238,1,48,59,644263492
99,5,9,Ticks_ISO_T2_8,0,9999,9999,9999,548281464
99,5,9,Ticks_ISO_T2_8,1,9999,9999,9999,549081144
99,5,9,Ticks_ISO_T2_8,2,9999,9999,9999,549881944
99,5,9,Ticks_ISO_T2_8,3,9999,9999,9999,550681680
99,5,9,Ticks_ISO_T2_8,4,9999,9999,9999,551481404
99,5,9,Ticks_ISO_T2_8,5,9999,9999,9999,552281140
99,5,9,Ticks_ISO_T2_8,6,9999,9999,9999,553081920
99,5,9,Ticks_ISO_T2_8,7,9999,9999,9999,553881676
99,5,9,Ticks_ISO_T2_8,8,9999,9999,9999,554681412
99,5,9,Ticks_ISO_T2_8,9,9999,9999,9999,555481144
99,5,9,Ticks_ISO_T2_8,10,9999,9999,9999,556281924
99,5,9,Ticks_ISO_T2_8,11,9999,9999,9999,557081660
99,5,9,Ticks_ISO_T2_8,12,9999,9999,9999,557881392
99,5,9,Ticks_ISO_T2_8,13,9999,9999,9999,558681204
99,5,9,Ticks_ISO_T2_8,14,9999,9999,9999,559481904
99,5,9,Ticks_ISO_T2_8,15,9999,9999,9999,560281664
99,5,9,Ticks_ISO_T2_8,16,9999,9999,9999,561081396
99,5,9,Ticks_ISO_T2_8,17,9999,9999,9999,561881204
99,5,9,Ticks_ISO_T2_8,18,9999,9999,9999,562681908
99,5,9,Ticks_ISO_T2_8,19,9999,9999,9999,563481716
99,5,9,Ticks_ISO_T2_8,20,9999,9999,9999,564281452
99,5,9,Ticks_ISO_T2_8,21,9999,9999,9999,565081192
99,5,9,Ticks_ISO_T2_8,22,9999,9999,9999,565881964
99,5,9,Ticks_ISO_T2_8,23,9999,9999,9999,566681696
99,5,9,Ticks_ISO_T2_8,24,9999,9999,9999,567481428
99,5,9,Ticks_ISO_T2_8,25,9999,9999,9999,568281164
99,5,9,Ticks_ISO_T2_8,26,9999,9999,9999,569081948
99,5,9,Ticks_ISO_T2_8,27,9999,9999,9999,569881680
99,5,9,Ticks_ISO_T2_8,28,9999,9999,9999,570681412
99,5,9,Ticks_ISO_T2_8,29,9999,9999,9999,571481152
99,5,9,Ticks_ISO_T2_8,30,9999,9999,9999,572281912
99,5,9,Ticks_ISO_T2_8,31,9999,9999,9999,573081680
99,5,9,Ticks_ISO_T2_8,32,9999,9999,9999,573881412
99,5,9,Ticks_ISO_T2_8,33,9999,9999,9999,574681144
99,5,9,Ticks_ISO_T2_8,34,9999,9999,9999,575481924
99,5,9,Ticks_ISO_T2_8,35,9999,9999,9999,576281656
99,5,9,Ticks_ISO_T2_8,36,9999,9999,9999,577081392
99,5,9,Ticks_ISO_T2_8,37,9999,9999,9999,577881200
99,5,9,Ticks_ISO_T2_8,38,9999,9999,9999,578681908
99,5,9,Ticks_ISO_T2_8,39,9999,9999,9999,579481688
99,5,9,Ticks_ISO_T2_8,40,9999,9999,9999,580281404
99,5,9,Ticks_ISO_T2_8,41,9999,9999,9999,581081208
99,5,9,Ticks_ISO_T2_8,42,9999,9999,9999,581881912
99,5,9,Ticks_ISO_T2_8,43,9999,9999,9999,582681648
99,5,9,Ticks_ISO_T2_8,44,9999,9999,9999,583481452
99,5,9,Ticks_ISO_T2_8,45,9999,9999,9999,584281188
99,5,9,Ticks_ISO_T2_8,46,9999,9999,9999,585081968
99,5,9,Ticks_ISO_T2_8,47,9999,9999,9999,585881652
99,5,9,Ticks_ISO_T2_8,48,9999,9999,9999,586681460
99,5,9,Ticks_ISO_T2_8,49,9999,9999,9999,587481192
99,5,9,Ticks_ISO_T2_8,50,9999,9999,9999,588281972
99,5,9,Ticks_ISO_T2_8,51,9999,9999,9999,589081708
99,5,9,Ticks_ISO_T2_8,52,9999,9999,9999,589881440
99,5,9,Ticks_ISO_T2_8,53,9999,9999,9999,590681172
99,5,9,Ticks_ISO_T2_8,54,9999,9999,9999,591481952
99,5,9,Ticks_ISO_T2_8,55,9999,9999,9999,592281712
99,5,9,Ticks_ISO_T2_8,56,9999,9999,9999,593081444
99,5,9,Ticks_ISO_T2_8,57,9999,9999,9999,593881176
99,5,9,Ticks_ISO_T2_8,58,9999,9999,9999,594681956
99,5,9,Ticks_ISO_T2_8,59,9999,9999,9999,595481688
99,5,9,Ticks_ISO_T2_8,60,9999,9999,9999,596281424
99,5,9,Ticks_ISO_T2_8,61,9999,9999,9999,597081160
99,5,9,Ticks_ISO_T2_8,62,9999,9999,9999,597881940
99,5,9,Ticks_ISO_T2_8,63,9999,9999,9999,598681676
99,5,9,Ticks_ISO_T2_8,64,9999,9999,9999,599481408
99,5,9,Ticks_ISO_T2_8,65,9999,9999,9999,600281148
99,5,9,Ticks_ISO_T2_8,66,9999,9999,9999,601081944
99,5,9,Ticks_ISO_T2_8,67,9999,9999,9999,601881656
99,5,9,Ticks_ISO_T2_8,68,9999,9999,9999,602681396
99,5,9,Ticks_ISO_T2_8,69,9999,9999,9999,603481204
99,5,9,Ticks_ISO_T2_8,70,9999,9999,9999,604281904
99,5,9,Ticks_ISO_T2_8,71,9999,9999,9999,605081712
99,5,9,Ticks_ISO_T2_8,72,9999,9999,9999,605881444
99,5,9,Ticks_ISO_T2_8,73,9999,9999,9999,606681180
99,5,9,Ticks_ISO_T2_8,74,9999,9999,9999,607481956
99,5,9,Ticks_ISO_T2_8,75,9999,9999,9999,608281692
99,5,9,Ticks_ISO_T2_8,76,9999,9999,9999,609081424
99,5,9,Ticks_ISO_T2_8,77,9999,9999,9999,609881160
99,5,9,Ticks_ISO_T2_8,78,9999,9999,9999,610681940
99,5,9,Ticks_ISO_T2_8,79,9999,9999,9999,611481696
99,5,9,Ticks_ISO_T2_8,80,9999,9999,9999,612281432
99,5,9,Ticks_ISO_T2_8,81,9999,9999,9999,613081164
99,5,9,Ticks_ISO_T2_8,82,9999,9999,9999,613881944
99,5,9,Ticks_ISO_T2_8,83,9999,9999,9999,614681680
99,5,9,Ticks_ISO_T2_8,84,9999,9999,9999,615481412
99,5,9,Ticks_ISO_T2_8,85,9999,9999,9999,616281152
99,5,9,Ticks_ISO_T2_8,86,9999,9999,9999,617081928
99,5,9,Ticks_ISO_T2_8,87,9999,9999,9999,617881692
99,5,9,Ticks_ISO_T2_8,88,9999,9999,9999,618681420
99,5,9,Ticks_ISO_T2_8,89,9999,9999,9999,619481152
99,5,9,Ticks_ISO_T2_8,90,9999,9999,9999,620281932
99,5,9,Ticks_ISO_T2_8,91,9999,9999,9999,621081664
99,5,9,Ticks_ISO_T2_8,92,9999,9999,9999,621881400
99,5,9,Ticks_ISO_T2_8,93,9999,9999,9999,622681208
99,5,9,Ticks_ISO_T2_8,94,9999,9999,9999,623481912
99,5,9,Ticks_ISO_T2_8,95,9999,9999,9999,624281668
99,5,9,Ticks_ISO_T2_8,96,9999,9999,9999,625081400
99,5,9,Ticks_ISO_T2_8,97,9999,9999,9999,625881140
99,5,9,Ticks_ISO_T2_8,98,9999,9999,9999,626681916
99,5,9,Ticks_ISO_T2_8,99,9999,9999,9999,627481648
99,5,9,Ticks_ISO_T2_8,100,9999,9999,9999,628281456
99,5,9,Ticks_ISO_T2_8,101,9999,9999,9999,629081192
99,5,9,Ticks_ISO_T2_8,102,9999,9999,9999,629881968
99,5,9,Ticks_ISO_T2_8,103,9999,9999,9999,630681652
99,5,9,Ticks_ISO_T2_8,104,9999,9999,9999,631481460
99,5,9,Ticks_ISO_T2_8,105,9999,9999,9999,632281200
99,5,9,Ticks_ISO_T2_8,106,9999,9999,9999,633081976
99,5,9,Ticks_ISO_T2_8,107,9999,9999,9999,633881716
99,5,9,Ticks_ISO_T2_8,108,9999,9999,9999,634681444
99,5,9,Ticks_ISO_T2_8,109,9999,9999,9999,635481176
99,5,9,Ticks_ISO_T2_8,110,9999,9999,9999,636281956
99,5,9,Ticks_ISO_T2_8,111,9999,9999,9999,637081712
99,5,9,Ticks_ISO_T2_8,112,9999,9999,9999,637881452
99,5,9,Ticks_ISO_T2_8,113,9999,9999,9999,638681188
99,5,9,Ticks_ISO_T2_8,114,9999,9999,9999,639481960
99,5,9,Ticks_ISO_T2_8,115,9999,9999,9999,640281692
99,5,9,Ticks_ISO_T2_8,116,9999,9999,9999,641081428
99,5,9,Ticks_ISO_T2_8,117,9999,9999,9999,641881168
99,5,9,Ticks_ISO_T2_8,118,9999,9999,9999,642681944
99,5,9,Ticks_ISO_T2_8,119,9999,9999,9999,643481704
99,6,10,Ticks_ISO_T2_5,0,5,42,127,653337076
99,6,10,Ticks_ISO_T2_5,1,5,42,127,653836640
99,6,10,Ticks_ISO_T2_5,2,5,42,127,654337404
99,6,10,Ticks_ISO_T2_5,3,1,48,72,654828180
99,6,10,Ticks_ISO_T2_5,4,5,42,127,654836968
99,6,10,Ticks_ISO_T2_5,5,1,48,75,655318376
99,6,10,Ticks_ISO_T2_5,6,5,42,127,655336884
99,6,10,Ticks_ISO_T2_5,7,5,42,127,655836512
99,6,10,Ticks_ISO_T2_5,8,1,48,85,655852416
99,6,10,Ticks_ISO_T2_5,9,1,48,73,656333768
99,6,10,Ticks_ISO_T2_5,10,5,42,127,656337320
99,6,10,Ticks_ISO_T2_5,11,1,48,78,656814764
99,6,10,Ticks_ISO_T2_5,12,5,42,127,656837092
99,6,10,Ticks_ISO_T2_5,13,1,48,69,657301368
99,6,10,Ticks_ISO_T2_5,14,5,42,127,657336788
99,6,10,Ticks_ISO_T2_5,15,1,48,76,657836704
99,6,10,Ticks_ISO_T2_5,16,5,42,127,657838200
99,6,10,Ticks_ISO_T2_5,17,1,48,68,658318936
99,6,10,Ticks_ISO_T2_5,18,5,42,127,658337000
99,6,10,Ticks_ISO_T2_5,19,1,48,70,658801928
99,6,10,Ticks_ISO_T2_5,20,5,42,127,658836992
99,6,10,Ticks_ISO_T2_5,21,1,48,62,659325060
99,6,10,Ticks_ISO_T2_5,22,5,42,127,659336612
99,6,10,Ticks_ISO_T2_5,23,5,42,127,659837284
99,6,10,Ticks_ISO_T2_5,24,1,48,72,659841748
99,6,10,Ticks_ISO_T2_5,25,1,48,72,660309684
99,6,10,Ticks_ISO_T2_5,26,5,42,127,660336948
99,6,10,Ticks_ISO_T2_5,27,1,48,69,660779612
99,6,10,Ticks_ISO_T2_5,28,5,42,127,660836716
99,6,10,Ticks_ISO_T2_5,29,1,48,64,661323732
99,6,10,Ticks_ISO_T2_5,30,5,42,127,661336412
99,6,10,Ticks_ISO_T2_5,31,1,48,59,661827992
99,6,10,Ticks_ISO_T2_5,32,5,42,127,661837228
99,6,10,Ticks_ISO_T2_5,33,1,48,71,662325140
99,6,10,Ticks_ISO_T2_5,34,5,42,127,662336848
99,6,10,Ticks_ISO_T2_5,35,1,48,65,662795064
99,6,10,Ticks_ISO_T2_5,36,5,42,127,662836544
99,6,10,Ticks_ISO_T2_5,37,5,42,127,663337440
99,6,10,Ticks_ISO_T2_5,38,1,48,60,663348564
99,6,10,Ticks_ISO_T2_5,39,5,42,127,663837060
99,6,10,Ticks_ISO_T2_5,40,1,48,62,663858728
99,6,10,Ticks_ISO_T2_5,41,5,42,127,664336828
99,6,10,Ticks_ISO_T2_5,42,1,48,61,664340996
99,6,10,Ticks_ISO_T2_5,43,5,42,127,664836448
99,6,10,Ticks_ISO_T2_5,44,1,48,58,664863128
99,6,10,Ticks_ISO_T2_5,45,5,42,127,665337192
99,6,10,Ticks_ISO_T2_5,46,1,48,60,665348908
99,6,10,Ticks_ISO_T2_5,47,1,48,60,665831084
99,6,10,Ticks_ISO_T2_5,48,5,42,127,665836804
99,6,10,Ticks_ISO_T2_5,49,1,48,58,666334528
99,6,10,Ticks_ISO_T2_5,50,5,42,127,666336648
99,6,10,Ticks_ISO_T2_5,51,1,48,58,666823892
99,6,10,Ticks_ISO_T2_5,52,5,42,127,666837240
99,6,10,Ticks_ISO_T2_5,53,5,42,127,667337016
99,6,10,Ticks_ISO_T2_5,54,1,48,62,667338428
99,6,10,Ticks_ISO_T2_5,55,1,48,66,667835648
99,6,10,Ticks_ISO_T2_5,56,5,42,127,667837000
99,6,10,Ticks_ISO_T2_5,57,5,42,127,668336404
99,6,10,Ticks_ISO_T2_5,58,1,48,56,668340940
99,6,10,Ticks_ISO_T2_5,59,5,42,127,668837144
99,6,10,Ticks_ISO_T2_5,60,1,48,71,668844972
99,6,10,Ticks_ISO_T2_5,61,1,48,54,669320196
99,6,10,Ticks_ISO_T2_5,62,5,42,127,669336984
99,6,10,Ticks_ISO_T2_5,63,1,48,63,669831104
99,6,10,Ticks_ISO_T2_5,64,5,42,127,669836752
99,6,10,Ticks_ISO_T2_5,65,1,48,58,670303552
99,6,10,Ticks_ISO_T2_5,66,5,42,127,670337420
99,6,10,Ticks_ISO_T2_5,67,5,42,127,670837024
99,6,10,Ticks_ISO_T2_5,68,1,48,62,670843160
99,6,10,Ticks_ISO_T2_5,69,5,42,127,671336792
99,6,10,Ticks_ISO_T2_5,70,1,48,60,671347316
99,6,10,Ticks_ISO_T2_5,71,5,42,127,671836636
99,6,10,Ticks_ISO_T2_5,72,1,48,57,671848208
99,6,10,Ticks_ISO_T2_5,73,5,42,127,672337304
99,6,10,Ticks_ISO_T2_5,74,1,48,56,672345956
99,6,10,Ticks_ISO_T2_5,75,5,42,127,672836928
99,6,10,Ticks_ISO_T2_5,76,1,48,54,672844832
99,6,10,Ticks_ISO_T2_5,77,1,48,50,673310776
99,6,10,Ticks_ISO_T2_5,78,5,42,127,673336764
99,6,10,Ticks_ISO_T2_5,79,1,48,61,673815776
99,6,10,Ticks_ISO_T2_5,80,5,42,127,673837728
99,6,10,Ticks_ISO_T2_5,81,1,48,68,674333200
99,6,10,Ticks_ISO_T2_5,82,5,42,127,674337124
99,6,10,Ticks_ISO_T2_5,83,1,48,68,674800036
99,6,10,Ticks_ISO_T2_5,84,5,42,127,674836944
99,6,10,Ticks_ISO_T2_5,85,5,42,127,675336792
99,6,10,Ticks_ISO_T2_5,86,1,48,70,675351428
99,6,10,Ticks_ISO_T2_5,87,5,42,127,675837240
99,6,10,Ticks_ISO_T2_5,88,1,48,62,675860776
99,6,10,Ticks_ISO_T2_5,89,5,42,127,676336932
99,6,10,Ticks_ISO_T2_5,90,1,48,63,676352840
99,6,10,Ticks_ISO_T2_5,91,1,48,61,676830900
99,6,10,Ticks_ISO_T2_5,92,5,42,127,676836992
99,6,10,Ticks_ISO_T2_5,93,1,48,59,677328204
99,6,10,Ticks_ISO_T2_5,94,5,42,127,677336392
99,6,10,Ticks_ISO_T2_5,95,1,48,65,677836156
99,6,10,Ticks_ISO_T2_5,96,5,42,127,677837724
99,6,10,Ticks_ISO_T2_5,97,1,48,59,678320264
99,6,10,Ticks_ISO_T2_5,98,5,42,127,678336900
99,6,10,Ticks_ISO_T2_5,99,1,48,60,678806188
99,6,10,Ticks_ISO_T2_5,100,5,42,127,678836744
99,6,10,Ticks_ISO_T2_5,101,1,48,62,679314712
99,6,10,Ticks_ISO_T2_5,102,5,42,127,679337260
99,6,10,Ticks_ISO_T2_5,103,1,48,65,679810740
99,6,10,Ticks_ISO_T2_5,104,5,42,127,679837180
99,6,10,Ticks_ISO_T2_5,105,1,48,66,680325768
99,6,10,Ticks_ISO_T2_5,106,5,42,127,680336876
99,6,10,Ticks_ISO_T2_5,107,1,48,61,680817512
99,6,10,Ticks_ISO_T2_5,108,5,42,127,680836720
99,6,10,Ticks_ISO_T2_5,109,5,42,127,681337244
99,6,10,Ticks_ISO_T2_5,110,1,48,57,681342012
99,6,10,Ticks_ISO_T2_5,111,1,48,56,681823484
99,6,10,Ticks_ISO_T2_5,112,5,42,127,681836832
99,6,10,Ticks_ISO_T2_5,113,1,48,60,682296172
99,6,10,Ticks_ISO_T2_5,114,5,42,127,682336824
99,6,10,Ticks_ISO_T2_5,115,5,42,127,682837352
99,6,10,Ticks_ISO_T2_5,116,1,48,63,682838392
99,6,10,Ticks_ISO_T2_5,117,5,42,127,683337044
99,6,10,Ticks_ISO_T2_5,118,1,48,56,683356916
99,6,10,Ticks_ISO_T2_5,119,5,42,127,683836740
99,6,10,Ticks_ISO_T2_5,120,1,48,59,683877856
99,6,10,Ticks_ISO_T2_5,121,1,48,59,684332872
99,6,10,Ticks_ISO_T2_5,122,5,42,127,684336724
99,6,10,Ticks_ISO_T2_5,123,1,48,57,684820528
99,6,10,Ticks_ISO_T2_5,124,5,42,127,684837092
99,6,10,Ticks_ISO_T2_5,125,1,48,61,685299652
99,6,10,Ticks_ISO_T2_5,126,5,42,127,685336864
99,6,10,Ticks_ISO_T2_5,127,1,48,54,685814680
99,6,10,Ticks_ISO_T2_5,128,5,42,127,685836856
99,6,10,Ticks_ISO_T2_5,129,5,42,127,686337604
99,6,10,Ticks_ISO_T2_5,130,1,48,67,686355380
99,6,10,Ticks_ISO_T2_5,131,5,42,127,686837004
99,6,10,Ticks_ISO_T2_5,132,1,48,56,686859348
99,6,10,Ticks_ISO_T2_5,133,5,42,127,687336772
99,6,10,Ticks_ISO_T2_5,134,1,48,65,687343704
99,6,10,Ticks_ISO_T2_5,135,1,48,67,687814356
99,6,10,Ticks_ISO_T2_5,136,5,42,127,687836684
99,6,10,Ticks_ISO_T2_5,137,1,48,67,688286752
99,6,10,Ticks_ISO_T2_5,138,5,42,127,688337352
99,6,10,Ticks_ISO_T2_5,139,5,42,127,688836832
99,6,10,Ticks_ISO_T2_5,140,1,48,70,688838240
99,6,10,Ticks_ISO_T2_5,141,5,42,127,689336676
99,6,10,Ticks_ISO_T2_5,142,1,48,72,689343536
99,6,10,Ticks_ISO_T2_5,143,5,42,127,689837568
99,6,10,Ticks_ISO_T2_5,144,1,48,68,689853996
99,6,10,Ticks_ISO_T2_5,145,5,42,127,690337040
99,6,10,Ticks_ISO_T2_5,146,1,48,69,690363568
99,6,10,Ticks_ISO_T2_5,147,1,48,61,690827492
99,6,10,Ticks_ISO_T2_5,148,5,42,127,690836800
99,6,10,Ticks_ISO_T2_5,149,1,48,65,691316160
99,6,10,Ticks_ISO_T2_5,150,5,42,127,691336492
99,6,10,Ticks_ISO_T2_5,151,1,48,70,691823640
99,6,10,Ticks_ISO_T2_5,152,5,42,127,691837384
99,6,10,Ticks_ISO_T2_5,153,1,48,65,692291992
99,6,10,Ticks_ISO_T2_5,154,5,42,127,692336980
99,6,10,Ticks_ISO_T2_5,155,5,42,127,692836608
99,6,10,Ticks_ISO_T2_5,156,1,48,63,692837572
99,6,10,Ticks_ISO_T2_5,157,1,48,69,693324068
99,6,10,Ticks_ISO_T2_5,158,5,42,127,693336592
99,6,10,Ticks_ISO_T2_5,159,5,42,127,693837116
99,6,10,Ticks_ISO_T2_5,160,1,48,48,693870004
99,6,10,Ticks_ISO_T2_5,161,5,42,127,694336736
99,6,10,Ticks_ISO_T2_5,162,1,48,57,694377400
99,6,10,Ticks_ISO_T2_5,163,5,42,127,694836504
99,6,10,Ticks_ISO_T2_5,164,1,48,59,694839996
99,6,10,Ticks_ISO_T2_5,165,1,48,59,695331816
99,6,10,Ticks_ISO_T2_5,166,5,42,127,695337464
99,6,10,Ticks_ISO_T2_5,167,1,48,61,695818576
99,6,10,Ticks_ISO_T2_5,168,5,42,127,695837008
99,6,10,Ticks_ISO_T2_5,169,1,48,61,696332104
99,6,10,Ticks_ISO_T2_5,170,5,42,127,696336852
99,6,10,Ticks_ISO_T2_5,171,1,48,62,696825588
99,6,10,Ticks_ISO_T2_5,172,5,42,127,696836400
99,6,10,Ticks_ISO_T2_5,173,1,48,62,697326788
99,6,10,Ticks_ISO_T2_5,174,5,42,127,697337288
99,6,10,Ticks_ISO_T2_5,175,1,48,58,697826704
99,6,10,Ticks_ISO_T2_5,176,5,42,127,697836760
99,6,10,Ticks_ISO_T2_5,177,1,48,63,698318096
99,6,10,Ticks_ISO_T2_5,178,5,42,127,698336604
99,6,10,Ticks_ISO_T2_5,179,1,48,60,698820636
99,6,10,Ticks_ISO_T2_5,180,5,42,127,698837496
99,6,10,Ticks_ISO_T2_5,181,1,48,63,699299908
99,6,10,Ticks_ISO_T2_5,182,5,42,127,699337564
99,6,10,Ticks_ISO_T2_5,183,1,48,58,699793620
99,6,10,Ticks_ISO_T2_5,184,5,42,127,699836740
99,6,10,Ticks_ISO_T2_5,185,1,48,63,700295408
99,6,10,Ticks_ISO_T2_5,186,5,42,127,700336432
99,6,10,Ticks_ISO_T2_5,187,1,48,64,700774280
99,6,10,Ticks_ISO_T2_5,188,5,42,127,700837396
99,6,10,Ticks_ISO_T2_5,189,1,48,68,701274500
99,6,10,Ticks_ISO_T2_5,190,5,42,127,701336792
99,6,10,Ticks_ISO_T2_5,191,1,48,66,701787808
99,6,10,Ticks_ISO_T2_5,192,5,42,127,701836784
99,6,10,Ticks_ISO_T2_5,193,1,48,70,702293784
99,6,10,Ticks_ISO_T2_5,194,5,42,127,702337604
99,6,10,Ticks_ISO_T2_5,195,1,48,69,702804624
99,6,10,Ticks_ISO_T2_5,196,5,42,127,702837052
99,6,10,Ticks_ISO_T2_5,197,1,48,61,703283148
99,6,10,Ticks_ISO_T2_5,198,5,42,127,703336820
99,6,10,Ticks_ISO_T2_5,199,1,48,66,703792572
99,6,10,Ticks_ISO_T2_5,200,5,42,127,703836664
99,6,10,Ticks_ISO_T2_5,201,1,48,66,704331312
99,6,10,Ticks_ISO_T2_5,202,5,42,127,704337552
99,6,10,Ticks_ISO_T2_5,203,5,42,127,704836956
99,6,10,Ticks_ISO_T2_5,204,1,48,65,704839620
99,6,10,Ticks_ISO_T2_5,205,5,42,127,705336652
99,6,10,Ticks_ISO_T2_5,206,1,48,67,705339768
99,6,10,Ticks_ISO_T2_5,207,5,42,127,705837540
99,6,10,Ticks_ISO_T2_5,208,1,48,64,705873944
99,6,10,Ticks_ISO_T2_5,209,5,42,127,706337384
99,6,10,Ticks_ISO_T2_5,210,1,48,67,706340352
99,6,10,Ticks_ISO_T2_5,211,1,48,65,706823120
99,6,10,Ticks_ISO_T2_5,212,5,42,127,706836776
99,6,10,Ticks_ISO_T2_5,213,1,48,63,707303144
99,6,10,Ticks_ISO_T2_5,214,5,42,127,707336544
99,6,10,Ticks_ISO_T2_5,215,1,48,60,707812040
99,6,10,Ticks_ISO_T2_5,216,5,42,127,707837508
99,6,10,Ticks_ISO_T2_5,217,1,48,62,708316748
99,6,10,Ticks_ISO_T2_5,218,5,42,127,708336904
99,6,10,Ticks_ISO_T2_5,219,1,48,64,708810908
99,6,10,Ticks_ISO_T2_5,220,5,42,127,708836600
99,6,10,Ticks_ISO_T2_5,221,1,48,64,709315688
99,6,10,Ticks_ISO_T2_5,222,5,42,127,709336368
99,6,10,Ticks_ISO_T2_5,223,1,48,68,709821436
99,6,10,Ticks_ISO_T2_5,224,5,42,127,709837332
99,6,10,Ticks_ISO_T2_5,225,1,48,59,710333628
99,6,10,Ticks_ISO_T2_5,226,5,42,127,710336880
99,6,10,Ticks_ISO_T2_5,227,1,48,63,710821056
99,6,10,Ticks_ISO_T2_5,228,5,42,127,710836500
99,6,10,Ticks_ISO_T2_5,229,1,48,52,711334212
99,6,10,Ticks_ISO_T2_5,230,5,42,127,711337464
99,6,10,Ticks_ISO_T2_5,231,5,42,127,711837016
99,6,10,Ticks_ISO_T2_5,232,5,42,127,712336732
99,6,10,Ticks_ISO_T2_5,233,1,48,57,712765172
99,6,10,Ticks_ISO_T2_5,234,5,42,127,712836440
99,6,10,Ticks_ISO_T2_5,235,1,48,66,713279532
99,6,10,Ticks_ISO_T2_5,236,5,42,127,713337480
99,6,10,Ticks_ISO_T2_5,237,1,48,69,713798296
99,6,10,Ticks_ISO_T2_5,238,5,42,127,713836852
99,6,10,Ticks_ISO_T2_5,239,1,48,67,714312348
99,6,10,Ticks_ISO_T2_5,240,5,42,127,714336620
99,6,10,Ticks_ISO_T2_5,241,1,48,62,714789680
99,6,10,Ticks_ISO_T2_5,242,5,42,127,714837436
99,6,10,Ticks_ISO_T2_5,243,1,48,65,715320420
99,6,10,Ticks_ISO_T2_5,244,5,42,127,715337204
99,6,10,Ticks_ISO_T2_5,245,5,42,127,715836684
99,6,10,Ticks_ISO_T2_5,246,1,48,66,715841368
99,6,10,Ticks_ISO_T2_5,247,1,48,65,716321004
99,6,10,Ticks_ISO_T2_5,248,5,42,127,716336448
99,6,10,Ticks_ISO_T2_5,249,1,48,62,716802148
99,6,10,Ticks_ISO_T2_5,250,5,42,127,716837336
99,6,10,Ticks_ISO_T2_5,251,1,48,65,717327576
99,6,10,Ticks_ISO_T2_5,252,5,42,127,717336880
99,6,10,Ticks_ISO_T2_5,253,1,48,70,717812008
99,6,10,Ticks_ISO_T2_5,254,5,42,127,717836724
99,6,10,Ticks_ISO_T2_5,0,9999,9999,9999,653334636
99,6,10,Ticks_ISO_T2_5,1,9999,9999,9999,653834352
99,6,10,Ticks_ISO_T2_5,2,9999,9999,9999,654335040
99,6,10,Ticks_ISO_T2_5,3,9999,9999,9999,654834752
99,6,10,Ticks_ISO_T2_5,4,9999,9999,9999,655334520
99,6,10,Ticks_ISO_T2_5,5,9999,9999,9999,655834220
99,6,10,Ticks_ISO_T2_5,6,9999,9999,9999,656334956
99,6,10,Ticks_ISO_T2_5,7,9999,9999,9999,656834652
99,6,10,Ticks_ISO_T2_5,8,9999,9999,9999,657334348
99,6,10,Ticks_ISO_T2_5,9,9999,9999,9999,657835096
99,6,10,Ticks_ISO_T2_5,10,9999,9999,9999,658334784
99,6,10,Ticks_ISO_T2_5,11,9999,9999,9999,658834552
99,6,10,Ticks_ISO_T2_5,12,9999,9999,9999,659334248
99,6,10,Ticks_ISO_T2_5,13,9999,9999,9999,659834996
99,6,10,Ticks_ISO_T2_5,14,9999,9999,9999,660334660
99,6,10,Ticks_ISO_T2_5,15,9999,9999,9999,660834352
99,6,10,Ticks_ISO_T2_5,16,9999,9999,9999,661334124
99,6,10,Ticks_ISO_T2_5,17,9999,9999,9999,661834864
99,6,10,Ticks_ISO_T2_5,18,9999,9999,9999,662334556
99,6,10,Ticks_ISO_T2_5,19,9999,9999,9999,662834252
99,6,10,Ticks_ISO_T2_5,20,9999,9999,9999,663335000
99,6,10,Ticks_ISO_T2_5,21,9999,9999,9999,663834696
99,6,10,Ticks_ISO_T2_5,22,9999,9999,9999,664334388
99,6,10,Ticks_ISO_T2_5,23,9999,9999,9999,664834160
99,6,10,Ticks_ISO_T2_5,24,9999,9999,9999,665334900
99,6,10,Ticks_ISO_T2_5,25,9999,9999,9999,665834588
99,6,10,Ticks_ISO_T2_5,26,9999,9999,9999,666334320
99,6,10,Ticks_ISO_T2_5,27,9999,9999,9999,666835024
99,6,10,Ticks_ISO_T2_5,28,9999,9999,9999,667334724
99,6,10,Ticks_ISO_T2_5,29,9999,9999,9999,667834420
99,6,10,Ticks_ISO_T2_5,30,9999,9999,9999,668334188
99,6,10,Ticks_ISO_T2_5,31,9999,9999,9999,668834928
99,6,10,Ticks_ISO_T2_5,32,9999,9999,9999,669334620
99,6,10,Ticks_ISO_T2_5,33,9999,9999,9999,669834312
99,6,10,Ticks_ISO_T2_5,34,9999,9999,9999,670335056
99,6,10,Ticks_ISO_T2_5,35,9999,9999,9999,670834808
99,6,10,Ticks_ISO_T2_5,36,9999,9999,9999,671334504
99,6,10,Ticks_ISO_T2_5,37,9999,9999,9999,671834196
99,6,10,Ticks_ISO_T2_5,38,9999,9999,9999,672334940
99,6,10,Ticks_ISO_T2_5,39,9999,9999,9999,672834636
99,6,10,Ticks_ISO_T2_5,40,9999,9999,9999,673334324
99,6,10,Ticks_ISO_T2_5,41,9999,9999,9999,673835064
99,6,10,Ticks_ISO_T2_5,42,9999,9999,9999,674334836
99,6,10,Ticks_ISO_T2_5,43,9999,9999,9999,674834504
99,6,10,Ticks_ISO_T2_5,44,9999,9999,9999,675334208
99,6,10,Ticks_ISO_T2_5,45,9999,9999,9999,675834948
99,6,10,Ticks_ISO_T2_5,46,9999,9999,9999,676334644
99,6,10,Ticks_ISO_T2_5,47,9999,9999,9999,676834404
99,6,10,Ticks_ISO_T2_5,48,9999,9999,9999,677334100
99,6,10,Ticks_ISO_T2_5,49,9999,9999,9999,677834848
99,6,10,Ticks_ISO_T2_5,50,9999,9999,9999,678334536
99,6,10,Ticks_ISO_T2_5,51,9999,9999,9999,678834232
99,6,10,Ticks_ISO_T2_5,52,9999,9999,9999,679334972
99,6,10,Ticks_ISO_T2_5,53,9999,9999,9999,679834740
99,6,10,Ticks_ISO_T2_5,54,9999,9999,9999,680334436
99,6,10,Ticks_ISO_T2_5,55,9999,9999,9999,680834132
99,6,10,Ticks_ISO_T2_5,56,9999,9999,9999,681334856
99,6,10,Ticks_ISO_T2_5,57,9999,9999,9999,681834616
99,6,10,Ticks_ISO_T2_5,58,9999,9999,9999,682334312
99,6,10,Ticks_ISO_T2_5,59,9999,9999,9999,682835060
99,6,10,Ticks_ISO_T2_5,60,9999,9999,9999,683334756
99,6,10,Ticks_ISO_T2_5,61,9999,9999,9999,683834448
99,6,10,Ticks_ISO_T2_5,62,9999,9999,9999,684334136
99,6,10,Ticks_ISO_T2_5,63,9999,9999,9999,684834876
99,6,10,Ticks_ISO_T2_5,64,9999,9999,9999,685334648
99,6,10,Ticks_ISO_T2_5,65,9999,9999,9999,685834344
99,6,10,Ticks_ISO_T2_5,66,9999,9999,9999,686335092
99,6,10,Ticks_ISO_T2_5,67,9999,9999,9999,686834788
99,6,10,Ticks_ISO_T2_5,68,9999,9999,9999,687334484
99,6,10,Ticks_ISO_T2_5,69,9999,9999,9999,687834172
99,6,10,Ticks_ISO_T2_5,70,9999,9999,9999,688334912
99,6,10,Ticks_ISO_T2_5,71,9999,9999,9999,688834616
99,6,10,Ticks_ISO_T2_5,72,9999,9999,9999,689334384
99,6,10,Ticks_ISO_T2_5,73,9999,9999,9999,689835128
99,6,10,Ticks_ISO_T2_5,74,9999,9999,9999,690334820
99,6,10,Ticks_ISO_T2_5,75,9999,9999,9999,690834512
99,6,10,Ticks_ISO_T2_5,76,9999,9999,9999,691334204
99,6,10,Ticks_ISO_T2_5,77,9999,9999,9999,691834944
99,6,10,Ticks_ISO_T2_5,78,9999,9999,9999,692334692
99,6,10,Ticks_ISO_T2_5,79,9999,9999,9999,692834392
99,6,10,Ticks_ISO_T2_5,80,9999,9999,9999,693334080
99,6,10,Ticks_ISO_T2_5,81,9999,9999,9999,693834824
99,6,10,Ticks_ISO_T2_5,82,9999,9999,9999,694334520
99,6,10,Ticks_ISO_T2_5,83,9999,9999,9999,694834288
99,6,10,Ticks_ISO_T2_5,84,9999,9999,9999,695335024
99,6,10,Ticks_ISO_T2_5,85,9999,9999,9999,695834720
99,6,10,Ticks_ISO_T2_5,86,9999,9999,9999,696334416
99,6,10,Ticks_ISO_T2_5,87,9999,9999,9999,696834108
99,6,10,Ticks_ISO_T2_5,88,9999,9999,9999,697334852
99,6,10,Ticks_ISO_T2_5,89,9999,9999,9999,697834544
99,6,10,Ticks_ISO_T2_5,90,9999,9999,9999,698334316
99,6,10,Ticks_ISO_T2_5,91,9999,9999,9999,698835056
99,6,10,Ticks_ISO_T2_5,92,9999,9999,9999,699334752
99,6,10,Ticks_ISO_T2_5,93,9999,9999,9999,699834448
99,6,10,Ticks_ISO_T2_5,94,9999,9999,9999,700334144
99,6,10,Ticks_ISO_T2_5,95,9999,9999,9999,700834884
99,6,10,Ticks_ISO_T2_5,96,9999,9999,9999,701334580
99,6,10,Ticks_ISO_T2_5,97,9999,9999,9999,701834344
99,6,10,Ticks_ISO_T2_5,98,9999,9999,9999,702335092
99,6,10,Ticks_ISO_T2_5,99,9999,9999,9999,702834760
99,6,10,Ticks_ISO_T2_5,100,9999,9999,9999,703334456
99,6,10,Ticks_ISO_T2_5,101,9999,9999,9999,703834224
99,6,10,Ticks_ISO_T2_5,102,9999,9999,9999,704334964
99,6,10,Ticks_ISO_T2_5,103,9999,9999,9999,704834664
99,6,10,Ticks_ISO_T2_5,104,9999,9999,9999,705334360
99,6,10,Ticks_ISO_T2_5,105,9999,9999,9999,705835100
99,6,10,Ticks_ISO_T2_5,106,9999,9999,9999,706334796
99,6,10,Ticks_ISO_T2_5,107,9999,9999,9999,706834484
99,6,10,Ticks_ISO_T2_5,108,9999,9999,9999,707334252
99,6,10,Ticks_ISO_T2_5,109,9999,9999,9999,707834996
99,6,10,Ticks_ISO_T2_5,110,9999,9999,9999,708334688
99,6,10,Ticks_ISO_T2_5,111,9999,9999,9999,708834384
99,6,10,Ticks_ISO_T2_5,112,9999,9999,9999,709334080
99,6,10,Ticks_ISO_T2_5,113,9999,9999,9999,709834820
99,6,10,Ticks_ISO_T2_5,114,9999,9999,9999,710334516
99,6,10,Ticks_ISO_T2_5,115,9999,9999,9999,710834284
99,6,10,Ticks_ISO_T2_5,116,9999,9999,9999,711335024
99,6,10,Ticks_ISO_T2_5,117,9999,9999,9999,711834728
99,6,10,Ticks_ISO_T2_5,118,9999,9999,9999,712334444
99,6,10,Ticks_ISO_T2_5,119,9999,9999,9999,712834152
99,6,10,Ticks_ISO_T2_5,120,9999,9999,9999,713334892
99,6,10,Ticks_ISO_T2_5,121,9999,9999,9999,713834564
99,6,10,Ticks_ISO_T2_5,122,9999,9999,9999,714334256
99,6,10,Ticks_ISO_T2_5,123,9999,9999,9999,714835000
99,6,10,Ticks_ISO_T2_5,124,9999,9999,9999,715334768
99,6,10,Ticks_ISO_T2_5,125,9999,9999,9999,715834468
99,6,10,Ticks_ISO_T2_5,126,9999,9999,9999,716334156
99,6,10,Ticks_ISO_T2_5,127,9999,9999,9999,716834896
99,6,10,Ticks_ISO_T2_5,128,9999,9999,9999,717334592
99,6,10,Ticks_ISO_T2_5,129,9999,9999,9999,717834360
99,7,20,Ticks_Linear_8,0,5,42,127,729186656
99,7,20,Ticks_Linear_8,1,5,42,127,730007092
99,7,20,Ticks_Linear_8,2,5,42,127,730827136
99,7,20,Ticks_Linear_8,3,1,48,85,730858412
99,7,20,Ticks_Linear_8,4,1,48,76,731647676
99,7,20,Ticks_Linear_8,5,5,42,127,731649012
99,7,20,Ticks_Linear_8,6,1,48,83,732462404
99,7,20,Ticks_Linear_8,7,5,42,127,732466568
99,7,20,Ticks_Linear_8,8,1,48,75,733266696
99,7,20,Ticks_Linear_8,9,5,42,127,733276476
99,7,20,Ticks_Linear_8,10,1,48,74,734031592
99,7,20,Ticks_Linear_8,11,5,42,127,734086408
99,7,20,Ticks_Linear_8,12,5,42,127,734896472
99,7,20,Ticks_Linear_8,13,1,48,102,734940256
99,7,20,Ticks_Linear_8,14,1,48,73,735684600
99,7,20,Ticks_Linear_8,15,5,42,127,735706376
99,7,20,Ticks_Linear_8,16,1,48,71,736511740
99,7,20,Ticks_Linear_8,17,5,42,127,736516432
99,7,20,Ticks_Linear_8,18,1,48,62,737311464
99,7,20,Ticks_Linear_8,19,5,42,127,737317352
99,7,20,Ticks_Linear_8,20,5,42,127,738117008
99,7,20,Ticks_Linear_8,21,1,48,68,738129116
99,7,20,Ticks_Linear_8,22,1,48,64,738900508
99,7,20,Ticks_Linear_8,23,5,42,127,738916876
99,7,20,Ticks_Linear_8,24,1,48,65,739684956
99,7,20,Ticks_Linear_8,25,5,42,127,739716476
99,7,20,Ticks_Linear_8,26,1,48,62,740486952
99,7,20,Ticks_Linear_8,27,5,42,127,740517244
99,7,20,Ticks_Linear_8,28,1,48,55,741269444
99,7,20,Ticks_Linear_8,29,5,42,127,741306936
99,7,20,Ticks_Linear_8,30,1,48,55,742091040
99,7,20,Ticks_Linear_8,31,5,42,127,742097148
99,7,20,Ticks_Linear_8,32,5,42,127,742886992
99,7,20,Ticks_Linear_8,33,1,48,51,742915504
99,7,20,Ticks_Linear_8,34,1,48,47,743620240
99,7,20,Ticks_Linear_8,35,5,42,127,743677348
99,7,20,Ticks_Linear_8,36,1,48,47,744467044
99,7,20,Ticks_Linear_8,37,5,42,127,744468308
99,7,20,Ticks_Linear_8,38,1,48,68,745242004
99,7,20,Ticks_Linear_8,39,5,42,127,745246992
99,7,20,Ticks_Linear_8,40,1,48,76,746019940
99,7,20,Ticks_Linear_8,41,5,42,127,746027320
99,7,20,Ticks_Linear_8,42,1,48,69,746776376
99,7,20,Ticks_Linear_8,43,5,42,127,746806596
99,7,20,Ticks_Linear_8,44,1,48,38,746836288
99,7,20,Ticks_Linear_8,45,1,48,75,747521628
99,7,20,Ticks_Linear_8,46,1,48,46,747564452
99,7,20,Ticks_Linear_8,47,5,42,127,747587180
99,7,20,Ticks_Linear_8,48,1,48,84,748334668
99,7,20,Ticks_Linear_8,49,5,42,127,748367284
99,7,20,Ticks_Linear_8,50,1,48,50,748385448
99,7,20,Ticks_Linear_8,51,5,42,127,749137408
99,7,20,Ticks_Linear_8,52,1,48,75,749138376
99,7,20,Ticks_Linear_8,53,5,42,127,749907256
99,7,20,Ticks_Linear_8,54,1,48,46,749972172
99,7,20,Ticks_Linear_8,55,1,48,59,750631964
99,7,20,Ticks_Linear_8,56,5,42,127,750677240
99,7,20,Ticks_Linear_8,57,1,48,71,751379340
99,7,20,Ticks_Linear_8,58,5,42,127,751447528
99,7,20,Ticks_Linear_8,59,1,48,66,752213284
99,7,20,Ticks_Linear_8,60,5,42,127,752216552
99,7,20,Ticks_Linear_8,61,1,48,68,752959696
99,7,20,Ticks_Linear_8,62,5,42,127,752977260
99,7,20,Ticks_Linear_8,63,5,42,127,753737076
99,7,20,Ticks_Linear_8,64,1,48,61,753764984
99,7,20,Ticks_Linear_8,65,1,48,64,754434608
99,7,20,Ticks_Linear_8,66,5,42,127,754496952
99,7,20,Ticks_Linear_8,67,5,42,127,755256764
99,7,20,Ticks_Linear_8,68,1,48,63,755277780
99,7,20,Ticks_Linear_8,69,1,48,62,756014380
99,7,20,Ticks_Linear_8,70,5,42,127,756016420
99,7,20,Ticks_Linear_8,71,1,48,64,756750044
99,7,20,Ticks_Linear_8,72,5,42,127,756767016
99,7,20,Ticks_Linear_8,73,5,42,127,757516720
99,7,20,Ticks_Linear_8,74,1,48,63,757524324
99,7,20,Ticks_Linear_8,75,5,42,127,758267316
99,7,20,Ticks_Linear_8,76,1,48,59,758282340
99,7,20,Ticks_Linear_8,77,1,48,57,759013140
99,7,20,Ticks_Linear_8,78,5,42,127,759016860
99,7,20,Ticks_Linear_8,79,1,48,61,759764040
99,7,20,Ticks_Linear_8,80,5,42,127,759767384
99,7,20,Ticks_Linear_8,81,1,48,55,760498992
99,7,20,Ticks_Linear_8,82,5,42,127,760506748
99,7,20,Ticks_Linear_8,83,5,42,127,761247240
99,7,20,Ticks_Linear_8,84,1,48,50,761315520
99,7,20,Ticks_Linear_8,85,1,48,58,761972152
99,7,20,Ticks_Linear_8,86,5,42,127,761986524
99,7,20,Ticks_Linear_8,87,1,48,62,762716320
99,7,20,Ticks_Linear_8,88,5,42,127,762726988
99,7,20,Ticks_Linear_8,89,1,48,60,763449464
99,7,20,Ticks_Linear_8,90,5,42,127,763467028
99,7,20,Ticks_Linear_8,91,5,42,127,764197112
99,7,20,Ticks_Linear_8,92,1,48,52,764262908
99,7,20,Ticks_Linear_8,93,5,42,127,764927488
99,7,20,Ticks_Linear_8,94,1,48,63,764943708
99,7,20,Ticks_Linear_8,95,5,42,127,765656372
99,7,20,Ticks_Linear_8,96,1,48,59,765682472
99,7,20,Ticks_Linear_8,97,5,42,127,766386600
99,7,20,Ticks_Linear_8,98,1,48,60,766432920
99,7,20,Ticks_Linear_8,99,5,42,127,767116900
99,7,20,Ticks_Linear_8,100,1,48,56,767139640
99,7,20,Ticks_Linear_8,101,5,42,127,767836476
99,7,20,Ticks_Linear_8,102,1,48,59,767839516
99,7,20,Ticks_Linear_8,103,1,48,60,768539168
99,7,20,Ticks_Linear_8,104,5,42,127,768557556
99,7,20,Ticks_Linear_8,105,1,48,62,769266548
99,7,20,Ticks_Linear_8,106,5,42,127,769286512
99,7,20,Ticks_Linear_8,107,1,48,58,769962772
99,7,20,Ticks_Linear_8,108,5,42,127,770007528
99,7,20,Ticks_Linear_8,109,1,48,48,770718468
99,7,20,Ticks_Linear_8,110,5,42,127,770727272
99,7,20,Ticks_Linear_8,111,5,42,127,771436888
99,7,20,Ticks_Linear_8,112,1,48,46,771448496
99,7,20,Ticks_Linear_8,113,1,48,62,772100416
99,7,20,Ticks_Linear_8,114,5,42,127,772146664
99,7,20,Ticks_Linear_8,115,5,42,127,772857204
99,7,20,Ticks_Linear_8,116,5,42,127,773566712
99,7,20,Ticks_Linear_8,117,5,42,127,774276516
99,7,20,Ticks_Linear_8,118,1,48,53,774293108
99,7,20,Ticks_Linear_8,119,5,42,127,774976840
99,7,20,Ticks_Linear_8,120,1,48,63,774991116
99,7,20,Ticks_Linear_8,121,1,48,60,775673612
99,7,20,Ticks_Linear_8,122,5,42,127,775677332
99,7,20,Ticks_Linear_8,123,1,48,58,776368804
99,7,20,Ticks_Linear_8,124,5,42,127,776376784
99,7,20,Ticks_Linear_8,125,1,48,61,777022312
99,7,20,Ticks_Linear_8,126,5,42,127,777077204
99,7,20,Ticks_Linear_8,127,1,48,32,777111612
99,7,20,Ticks_Linear_8,128,1,48,78,777754092
99,7,20,Ticks_Linear_8,129,5,42,127,777776460
99,7,20,Ticks_Linear_8,130,5,42,127,778466628
99,7,20,Ticks_Linear_8,131,1,48,71,778479108
99,7,20,Ticks_Linear_8,132,1,48,70,779059736
99,7,20,Ticks_Linear_8,133,5,42,127,779157892
99,7,20,Ticks_Linear_8,134,1,48,59,779763080
99,7,20,Ticks_Linear_8,135,5,42,127,779847076
99,7,20,Ticks_Linear_8,136,5,42,127,780537172
99,7,20,Ticks_Linear_8,137,1,48,49,780665380
99,7,20,Ticks_Linear_8,138,5,42,127,781227556
99,7,20,Ticks_Linear_8,139,1,48,57,781282644
99,7,20,Ticks_Linear_8,140,5,42,127,781907584
99,7,20,Ticks_Linear_8,141,1,48,46,781919092
99,7,20,Ticks_Linear_8,142,1,48,45,782544820
99,7,20,Ticks_Linear_8,143,5,42,127,782587332
99,7,20,Ticks_Linear_8,144,1,48,51,783229676
99,7,20,Ticks_Linear_8,145,5,42,127,783267088
99,7,20,Ticks_Linear_8,146,1,48,57,783906116
99,7,20,Ticks_Linear_8,147,5,42,127,783947264
99,7,20,Ticks_Linear_8,148,1,48,62,784594912
99,7,20,Ticks_Linear_8,149,5,42,127,784626948
99,7,20,Ticks_Linear_8,150,1,48,66,785230244
99,7,20,Ticks_Linear_8,151,5,42,127,785296664
99,7,20,Ticks_Linear_8,152,1,48,72,785929252
99,7,20,Ticks_Linear_8,153,5,42,127,785966656
99,7,20,Ticks_Linear_8,154,1,48,77,786555680
99,7,20,Ticks_Linear_8,155,5,42,127,786637124
99,7,20,Ticks_Linear_8,156,1,48,84,787295768
99,7,20,Ticks_Linear_8,157,5,42,127,787306968
99,7,20,Ticks_Linear_8,158,1,48,78,787966240
99,7,20,Ticks_Linear_8,159,5,42,127,787976540
99,7,20,Ticks_Linear_8,160,5,42,127,788636904
99,7,20,Ticks_Linear_8,161,1,48,76,788644728
99,7,20,Ticks_Linear_8,162,1,48,61,789279736
99,7,20,Ticks_Linear_8,163,5,42,127,789296408
99,7,20,Ticks_Linear_8,164,1,48,68,789945940
99,7,20,Ticks_Linear_8,165,5,42,127,789956916
99,7,20,Ticks_Linear_8,166,5,42,127,790616356
99,7,20,Ticks_Linear_8,167,1,48,70,790618948
99,7,20,Ticks_Linear_8,168,1,48,80,791265436
99,7,20,Ticks_Linear_8,169,5,42,127,791276932
99,7,20,Ticks_Linear_8,170,1,48,64,791898288
99,7,20,Ticks_Linear_8,171,5,42,127,791927184
99,7,20,Ticks_Linear_8,172,1,48,69,792526664
99,7,20,Ticks_Linear_8,173,5,42,127,792577480
99,7,20,Ticks_Linear_8,174,1,48,79,793152464
99,7,20,Ticks_Linear_8,175,5,42,127,793226752
99,7,20,Ticks_Linear_8,176,1,48,76,793776664
99,7,20,Ticks_Linear_8,177,5,42,127,793876888
99,7,20,Ticks_Linear_8,178,1,48,67,794405392
99,7,20,Ticks_Linear_8,179,5,42,127,794527284
99,7,20,Ticks_Linear_8,180,1,48,77,795035644
99,7,20,Ticks_Linear_8,181,5,42,127,795167320
99,7,20,Ticks_Linear_8,182,1,48,86,795593752
99,7,20,Ticks_Linear_8,183,5,42,127,795807384
99,7,20,Ticks_Linear_8,184,1,48,44,796348172
99,7,20,Ticks_Linear_8,185,5,42,127,796447348
99,7,20,Ticks_Linear_8,186,1,48,63,796783436
99,7,20,Ticks_Linear_8,187,5,42,127,797087188
99,7,20,Ticks_Linear_8,188,1,48,51,797264340
99,7,20,Ticks_Linear_8,189,5,42,127,797727224
99,7,20,Ticks_Linear_8,190,1,48,52,798235216
99,7,20,Ticks_Linear_8,191,5,42,127,798356732
99,7,20,Ticks_Linear_8,192,1,48,55,798980640
99,7,20,Ticks_Linear_8,193,5,42,127,798986600
99,7,20,Ticks_Linear_8,194,5,42,127,799617532
99,7,20,Ticks_Linear_8,195,1,48,58,799618872
99,7,20,Ticks_Linear_8,196,5,42,127,800247384
99,7,20,Ticks_Linear_8,197,1,48,61,800324640
99,7,20,Ticks_Linear_8,198,1,48,58,800862060
99,7,20,Ticks_Linear_8,199,5,42,127,800877012
99,7,20,Ticks_Linear_8,200,1,48,56,801446944
99,7,20,Ticks_Linear_8,201,5,42,127,801496408
99,7,20,Ticks_Linear_8,202,1,48,60,802024680
99,7,20,Ticks_Linear_8,203,5,42,127,802116976
99,7,20,Ticks_Linear_8,204,1,48,55,802712208
99,7,20,Ticks_Linear_8,205,5,42,127,802736448
99,7,20,Ticks_Linear_8,206,1,48,55,803319152
99,7,20,Ticks_Linear_8,207,5,42,127,803357236
99,7,20,Ticks_Linear_8,208,1,48,59,803921296
99,7,20,Ticks_Linear_8,209,5,42,127,803976484
99,7,20,Ticks_Linear_8,210,1,48,59,804543536
99,7,20,Ticks_Linear_8,211,5,42,127,804586864
99,7,20,Ticks_Linear_8,212,1,48,62,805168676
99,7,20,Ticks_Linear_8,213,5,42,127,805197472
99,7,20,Ticks_Linear_8,214,1,48,59,805785376
99,7,20,Ticks_Linear_8,215,5,42,127,805806608
99,7,20,Ticks_Linear_8,216,1,48,53,806368500
99,7,20,Ticks_Linear_8,217,5,42,127,806416768
99,7,20,Ticks_Linear_8,218,1,48,56,806998800
99,7,20,Ticks_Linear_8,219,5,42,127,807027396
99,7,20,Ticks_Linear_8,220,1,48,50,807615804
99,7,20,Ticks_Linear_8,221,5,42,127,807627076
99,7,20,Ticks_Linear_8,222,1,48,63,808221012
99,7,20,Ticks_Linear_8,223,5,42,127,808227196
99,7,20,Ticks_Linear_8,224,5,42,127,808827424
99,7,20,Ticks_Linear_8,225,1,48,66,808866948
99,7,20,Ticks_Linear_8,226,1,48,57,809411024
99,7,20,Ticks_Linear_8,227,5,42,127,809427468
99,7,20,Ticks_Linear_8,228,1,48,57,810022008
99,7,20,Ticks_Linear_8,229,5,42,127,810027368
99,7,20,Ticks_Linear_8,230,1,48,55,810607232
99,7,20,Ticks_Linear_8,231,5,42,127,810617180
99,7,20,Ticks_Linear_8,232,1,48,60,811200112
99,7,20,Ticks_Linear_8,233,5,42,127,811206972
99,7,20,Ticks_Linear_8,234,1,48,57,811776652
99,7,20,Ticks_Linear_8,235,5,42,127,811796836
99,7,20,Ticks_Linear_8,236,1,48,57,812358056
99,7,20,Ticks_Linear_8,237,5,42,127,812386628
99,7,20,Ticks_Linear_8,238,1,48,58,812926968
99,7,20,Ticks_Linear_8,239,5,42,127,812976592
99,7,20,Ticks_Linear_8,240,1,48,54,813503876
99,7,20,Ticks_Linear_8,241,5,42,127,813557244
99,7,20,Ticks_Linear_8,242,1,48,46,814090452
99,7,20,Ticks_Linear_8,243,5,42,127,814136700
99,7,20,Ticks_Linear_8,244,1,48,55,814712016
99,7,20,Ticks_Linear_8,245,5,42,127,814717304
99,7,20,Ticks_Linear_8,246,5,42,127,815296988
99,7,20,Ticks_Linear_8,247,1,48,65,815316436
99,7,20,Ticks_Linear_8,248,1,48,62,815867712
99,7,20,Ticks_Linear_8,249,5,42,127,815876516
99,7,20,Ticks_Linear_8,250,1,48,57,816431884
99,7,20,Ticks_Linear_8,251,5,42,127,816446760
99,7,20,Ticks_Linear_8,252,5,42,127,817017184
99,7,20,Ticks_Linear_8,253,1,48,65,817050032
99,7,20,Ticks_Linear_8,254,1,48,65,817569328
99,7,20,Ticks_Linear_8,255,5,42,127,817586448
99,7,20,Ticks_Linear_8,256,1,48,76,818153196
99,7,20,Ticks_Linear_8,257,5,42,127,818157288
99,7,20,Ticks_Linear_8,258,1,48,58,818681428
99,7,20,Ticks_Linear_8,259,5,42,127,818727232
99,7,20,Ticks_Linear_8,260,1,48,78,819272720
99,7,20,Ticks_Linear_8,261,5,42,127,819287516
99,7,20,Ticks_Linear_8,262,1,48,66,819824848
99,7,20,Ticks_Linear_8,263,5,42,127,819846480
99,7,20,Ticks_Linear_8,264,1,48,80,820395788
99,7,20,Ticks_Linear_8,265,5,42,127,820406616
99,7,20,Ticks_Linear_8,266,5,42,127,820966756
99,7,20,Ticks_Linear_8,267,1,48,71,820973088
99,7,20,Ticks_Linear_8,268,1,48,70,821507896
99,7,20,Ticks_Linear_8,269,5,42,127,821527108
99,7,20,Ticks_Linear_8,270,1,48,69,822050132
99,7,20,Ticks_Linear_8,271,5,42,127,822076760
99,7,20,Ticks_Linear_8,272,1,48,77,822626864
99,7,20,Ticks_Linear_8,273,5,42,127,822628272
99,7,20,Ticks_Linear_8,274,1,48,68,823169448
99,7,20,Ticks_Linear_8,275,5,42,127,823176532
99,7,20,Ticks_Linear_8,276,5,42,127,823726340
99,7,20,Ticks_Linear_8,277,1,48,62,823740012
99,7,20,Ticks_Linear_8,278,1,48,72,824274656
99,7,20,Ticks_Linear_8,279,5,42,127,824277328
99,7,20,Ticks_Linear_8,280,1,48,62,824798480
99,7,20,Ticks_Linear_8,281,5,42,127,824817092
99,7,20,Ticks_Linear_8,282,1,48,68,825332692
99,7,20,Ticks_Linear_8,283,5,42,127,825356708
99,7,20,Ticks_Linear_8,284,1,48,69,825868572
99,7,20,Ticks_Linear_8,285,5,42,127,825897224
99,7,20,Ticks_Linear_8,286,1,48,56,826434312
99,7,20,Ticks_Linear_8,287,5,42,127,826436984
99,7,20,Ticks_Linear_8,288,1,48,68,826968248
99,7,20,Ticks_Linear_8,289,5,42,127,826976528
99,7,20,Ticks_Linear_8,290,5,42,127,827507112
99,7,20,Ticks_Linear_8,291,1,48,65,827512924
99,7,20,Ticks_Linear_8,292,5,42,127,828036392
99,7,20,Ticks_Linear_8,293,1,48,66,828052688
99,7,20,Ticks_Linear_8,294,1,48,73,828539784
99,7,20,Ticks_Linear_8,295,5,42,127,828566940
99,7,20,Ticks_Linear_8,296,1,48,69,829051836
99,7,20,Ticks_Linear_8,297,5,42,127,829097268
99,7,20,Ticks_Linear_8,298,1,48,66,829548600
99,7,20,Ticks_Linear_8,299,5,42,127,829626700
99,7,20,Ticks_Linear_8,300,1,48,72,830115128
99,7,20,Ticks_Linear_8,301,5,42,127,830146992
99,7,20,Ticks_Linear_8,302,1,48,76,830655188
99,7,20,Ticks_Linear_8,303,5,42,127,830667212
99,7,20,Ticks_Linear_8,304,1,48,68,831161920
99,7,20,Ticks_Linear_8,305,5,42,127,831187356
99,7,20,Ticks_Linear_8,306,1,48,70,831687092
99,7,20,Ticks_Linear_8,307,5,42,127,831706376
99,7,20,Ticks_Linear_8,308,1,48,73,832209028
99,7,20,Ticks_Linear_8,309,5,42,127,832226668
99,7,20,Ticks_Linear_8,310,5,42,127,832736712
99,7,20,Ticks_Linear_8,311,1,48,64,832747244
99,7,20,Ticks_Linear_8,312,5,42,127,833246448
99,7,20,Ticks_Linear_8,313,1,48,61,833256908
99,7,20,Ticks_Linear_8,314,1,48,52,833751188
99,7,20,Ticks_Linear_8,315,5,42,127,833756548
99,7,20,Ticks_Linear_8,316,5,42,127,834266440
99,7,20,Ticks_Linear_8,317,1,48,59,834284080
99,7,20,Ticks_Linear_8,318,5,42,127,834776400
99,7,20,Ticks_Linear_8,319,1,48,61,834781160
99,7,20,Ticks_Linear_8,320,1,48,65,835260096
99,7,20,Ticks_Linear_8,321,5,42,127,835277140
99,7,20,Ticks_Linear_8,322,1,48,57,835753872
99,7,20,Ticks_Linear_8,323,5,42,127,835776840
99,7,20,Ticks_Linear_8,324,5,42,127,836276620
99,7,20,Ticks_Linear_8,325,1,48,64,836306924
99,7,20,Ticks_Linear_8,326,5,42,127,836777372
99,7,20,Ticks_Linear_8,327,1,48,62,836817708
99,7,20,Ticks_Linear_8,328,5,42,127,837276996
99,7,20,Ticks_Linear_8,329,1,48,71,837305204
99,7,20,Ticks_Linear_8,330,5,42,127,837766588
99,7,20,Ticks_Linear_8,331,1,48,69,837779516
99,7,20,Ticks_Linear_8,332,1,48,57,838177324
99,7,20,Ticks_Linear_8,333,5,42,127,838257116
99,7,20,Ticks_Linear_8,334,1,48,51,838659396
99,7,20,Ticks_Linear_8,335,5,42,127,838746532
99,7,20,Ticks_Linear_8,336,1,48,54,839181340
99,7,20,Ticks_Linear_8,337,5,42,127,839237020
99,7,20,Ticks_Linear_8,338,1,48,58,839719308
99,7,20,Ticks_Linear_8,339,5,42,127,839726392
99,7,20,Ticks_Linear_8,0,9999,9999,9999,729184356
99,7,20,Ticks_Linear_8,1,9999,9999,9999,730004568
99,7,20,Ticks_Linear_8,2,9999,9999,9999,730824760
99,7,20,Ticks_Linear_8,3,9999,9999,9999,731645000
99,7,20,Ticks_Linear_8,4,9999,9999,9999,732464192
99,7,20,Ticks_Linear_8,5,9999,9999,9999,733274176
99,7,20,Ticks_Linear_8,6,9999,9999,9999,734084184
99,7,20,Ticks_Linear_8,7,9999,9999,9999,734894172
99,7,20,Ticks_Linear_8,8,9999,9999,9999,735704148
99,7,20,Ticks_Linear_8,9,9999,9999,9999,736514132
99,7,20,Ticks_Linear_8,10,9999,9999,9999,737314904
99,7,20,Ticks_Linear_8,11,9999,9999,9999,738114632
99,7,20,Ticks_Linear_8,12,9999,9999,9999,738914428
99,7,20,Ticks_Linear_8,13,9999,9999,9999,739714172
99,7,20,Ticks_Linear_8,14,9999,9999,9999,740514868
99,7,20,Ticks_Linear_8,15,9999,9999,9999,741304408
99,7,20,Ticks_Linear_8,16,9999,9999,9999,742094924
99,7,20,Ticks_Linear_8,17,9999,9999,9999,742884468
99,7,20,Ticks_Linear_8,18,9999,9999,9999,743674972
99,7,20,Ticks_Linear_8,19,9999,9999,9999,744464444
99,7,20,Ticks_Linear_8,20,9999,9999,9999,745244764
99,7,20,Ticks_Linear_8,21,9999,9999,9999,746025016
99,7,20,Ticks_Linear_8,22,9999,9999,9999,746804296
99,7,20,Ticks_Linear_8,23,9999,9999,9999,747584580
99,7,20,Ticks_Linear_8,24,9999,9999,9999,748364908
99,7,20,Ticks_Linear_8,25,9999,9999,9999,749134960
99,7,20,Ticks_Linear_8,26,9999,9999,9999,749904952
99,7,20,Ticks_Linear_8,27,9999,9999,9999,750675012
99,7,20,Ticks_Linear_8,28,9999,9999,9999,751445080
99,7,20,Ticks_Linear_8,29,9999,9999,9999,752214100
99,7,20,Ticks_Linear_8,30,9999,9999,9999,752974960
99,7,20,Ticks_Linear_8,31,9999,9999,9999,753734772
99,7,20,Ticks_Linear_8,32,9999,9999,9999,754494576
99,7,20,Ticks_Linear_8,33,9999,9999,9999,755254392
99,7,20,Ticks_Linear_8,34,9999,9999,9999,756014156
99,7,20,Ticks_Linear_8,35,9999,9999,9999,756764788
99,7,20,Ticks_Linear_8,36,9999,9999,9999,757514344
99,7,20,Ticks_Linear_8,37,9999,9999,9999,758264940
99,7,20,Ticks_Linear_8,38,9999,9999,9999,759014484
99,7,20,Ticks_Linear_8,39,9999,9999,9999,759765080
99,7,20,Ticks_Linear_8,40,9999,9999,9999,760504372
99,7,20,Ticks_Linear_8,41,9999,9999,9999,761244792
99,7,20,Ticks_Linear_8,42,9999,9999,9999,761984076
99,7,20,Ticks_Linear_8,43,9999,9999,9999,762724464
99,7,20,Ticks_Linear_8,44,9999,9999,9999,763464800
99,7,20,Ticks_Linear_8,45,9999,9999,9999,764194884
99,7,20,Ticks_Linear_8,46,9999,9999,9999,764925040
99,7,20,Ticks_Linear_8,47,9999,9999,9999,765654072
99,7,20,Ticks_Linear_8,48,9999,9999,9999,766384224
99,7,20,Ticks_Linear_8,49,9999,9999,9999,767114300
99,7,20,Ticks_Linear_8,50,9999,9999,9999,767834172
99,7,20,Ticks_Linear_8,51,9999,9999,9999,768555104
99,7,20,Ticks_Linear_8,52,9999,9999,9999,769284212
99,7,20,Ticks_Linear_8,53,9999,9999,9999,770005080
99,7,20,Ticks_Linear_8,54,9999,9999,9999,770724972
99,7,20,Ticks_Linear_8,55,9999,9999,9999,771434588
99,7,20,Ticks_Linear_8,56,9999,9999,9999,772144216
99,7,20,Ticks_Linear_8,57,9999,9999,9999,772854904
99,7,20,Ticks_Linear_8,58,9999,9999,9999,773564484
99,7,20,Ticks_Linear_8,59,9999,9999,9999,774274140
99,7,20,Ticks_Linear_8,60,9999,9999,9999,774974540
99,7,20,Ticks_Linear_8,61,9999,9999,9999,775674956
99,7,20,Ticks_Linear_8,62,9999,9999,9999,776374332
99,7,20,Ticks_Linear_8,63,9999,9999,9999,777074804
99,7,20,Ticks_Linear_8,64,9999,9999,9999,777774156
99,7,20,Ticks_Linear_8,65,9999,9999,9999,778464328
99,7,20,Ticks_Linear_8,66,9999,9999,9999,779154560
99,7,20,Ticks_Linear_8,67,9999,9999,9999,779844700
99,7,20,Ticks_Linear_8,68,9999,9999,9999,780534868
99,7,20,Ticks_Linear_8,69,9999,9999,9999,781225032
99,7,20,Ticks_Linear_8,70,9999,9999,9999,781904988
99,7,20,Ticks_Linear_8,71,9999,9999,9999,782584956
99,7,20,Ticks_Linear_8,72,9999,9999,9999,783264860
99,7,20,Ticks_Linear_8,73,9999,9999,9999,783944816
99,7,20,Ticks_Linear_8,74,9999,9999,9999,784624720
99,7,20,Ticks_Linear_8,75,9999,9999,9999,785294440
99,7,20,Ticks_Linear_8,76,9999,9999,9999,785964132
99,7,20,Ticks_Linear_8,77,9999,9999,9999,786634824
99,7,20,Ticks_Linear_8,78,9999,9999,9999,787304516
99,7,20,Ticks_Linear_8,79,9999,9999,9999,787974236
99,7,20,Ticks_Linear_8,80,9999,9999,9999,788634676
99,7,20,Ticks_Linear_8,81,9999,9999,9999,789294180
99,7,20,Ticks_Linear_8,82,9999,9999,9999,789954616
99,7,20,Ticks_Linear_8,83,9999,9999,9999,790614128
99,7,20,Ticks_Linear_8,84,9999,9999,9999,791274556
99,7,20,Ticks_Linear_8,85,9999,9999,9999,791924808
99,7,20,Ticks_Linear_8,86,9999,9999,9999,792575028
99,7,20,Ticks_Linear_8,87,9999,9999,9999,793224304
99,7,20,Ticks_Linear_8,88,9999,9999,9999,793874512
99,7,20,Ticks_Linear_8,89,9999,9999,9999,794524756
99,7,20,Ticks_Linear_8,90,9999,9999,9999,795164796
99,7,20,Ticks_Linear_8,91,9999,9999,9999,795804784
99,7,20,Ticks_Linear_8,92,9999,9999,9999,796444784
99,7,20,Ticks_Linear_8,93,9999,9999,9999,797084740
99,7,20,Ticks_Linear_8,94,9999,9999,9999,797724776
99,7,20,Ticks_Linear_8,95,9999,9999,9999,798354504
99,7,20,Ticks_Linear_8,96,9999,9999,9999,798984300
99,7,20,Ticks_Linear_8,97,9999,9999,9999,799615084
99,7,20,Ticks_Linear_8,98,9999,9999,9999,800244860
99,7,20,Ticks_Linear_8,99,9999,9999,9999,800874560
99,7,20,Ticks_Linear_8,100,9999,9999,9999,801494108
99,7,20,Ticks_Linear_8,101,9999,9999,9999,802114676
99,7,20,Ticks_Linear_8,102,9999,9999,9999,802734148
99,7,20,Ticks_Linear_8,103,9999,9999,9999,803354712
99,7,20,Ticks_Linear_8,104,9999,9999,9999,803974256
99,7,20,Ticks_Linear_8,105,9999,9999,9999,804584564
99,7,20,Ticks_Linear_8,106,9999,9999,9999,805194872
99,7,20,Ticks_Linear_8,107,9999,9999,9999,805804160
99,7,20,Ticks_Linear_8,108,9999,9999,9999,806414392
99,7,20,Ticks_Linear_8,109,9999,9999,9999,807024700
99,7,20,Ticks_Linear_8,110,9999,9999,9999,807624772
99,7,20,Ticks_Linear_8,111,9999,9999,9999,808224896
99,7,20,Ticks_Linear_8,112,9999,9999,9999,808824900
99,7,20,Ticks_Linear_8,113,9999,9999,9999,809425020
99,7,20,Ticks_Linear_8,114,9999,9999,9999,810025068
99,7,20,Ticks_Linear_8,115,9999,9999,9999,810614880
99,7,20,Ticks_Linear_8,116,9999,9999,9999,811204672
99,7,20,Ticks_Linear_8,117,9999,9999,9999,811794536
99,7,20,Ticks_Linear_8,118,9999,9999,9999,812384328
99,7,20,Ticks_Linear_8,119,9999,9999,9999,812974140
99,7,20,Ticks_Linear_8,120,9999,9999,9999,813554792
99,7,20,Ticks_Linear_8,121,9999,9999,9999,814134400
99,7,20,Ticks_Linear_8,122,9999,9999,9999,814715004
99,7,20,Ticks_Linear_8,123,9999,9999,9999,815294540
99,7,20,Ticks_Linear_8,124,9999,9999,9999,815874140
99,7,20,Ticks_Linear_8,125,9999,9999,9999,816444532
99,7,20,Ticks_Linear_8,126,9999,9999,9999,817014880
99,7,20,Ticks_Linear_8,127,9999,9999,9999,817584220
99,7,20,Ticks_Linear_8,128,9999,9999,9999,818154612
99,7,20,Ticks_Linear_8,129,9999,9999,9999,818724932
99,7,20,Ticks_Linear_8,130,9999,9999,9999,819285064
99,7,20,Ticks_Linear_8,131,9999,9999,9999,819844180
99,7,20,Ticks_Linear_8,132,9999,9999,9999,820404312
99,7,20,Ticks_Linear_8,133,9999,9999,9999,820964456
99,7,20,Ticks_Linear_8,134,9999,9999,9999,821524584
99,7,20,Ticks_Linear_8,135,9999,9999,9999,822074460
99,7,20,Ticks_Linear_8,136,9999,9999,9999,822624336
99,7,20,Ticks_Linear_8,137,9999,9999,9999,823174232
99,7,20,Ticks_Linear_8,138,9999,9999,9999,823724112
99,7,20,Ticks_Linear_8,139,9999,9999,9999,824275028
99,7,20,Ticks_Linear_8,140,9999,9999,9999,824814716
99,7,20,Ticks_Linear_8,141,9999,9999,9999,825354332
99,7,20,Ticks_Linear_8,142,9999,9999,9999,825894996
99,7,20,Ticks_Linear_8,143,9999,9999,9999,826434684
99,7,20,Ticks_Linear_8,144,9999,9999,9999,826974300
99,7,20,Ticks_Linear_8,145,9999,9999,9999,827504712
99,7,20,Ticks_Linear_8,146,9999,9999,9999,828034168
99,7,20,Ticks_Linear_8,147,9999,9999,9999,828564564
99,7,20,Ticks_Linear_8,148,9999,9999,9999,829094964
99,7,20,Ticks_Linear_8,149,9999,9999,9999,829624396
99,7,20,Ticks_Linear_8,150,9999,9999,9999,830144616
99,7,20,Ticks_Linear_8,151,9999,9999,9999,830664760
99,7,20,Ticks_Linear_8,152,9999,9999,9999,831184980
99,7,20,Ticks_Linear_8,153,9999,9999,9999,831704152
99,7,20,Ticks_Linear_8,154,9999,9999,9999,832224368
99,7,20,Ticks_Linear_8,155,9999,9999,9999,832734336
99,7,20,Ticks_Linear_8,156,9999,9999,9999,833244220
99,7,20,Ticks_Linear_8,157,9999,9999,9999,833754172
99,7,20,Ticks_Linear_8,158,9999,9999,9999,834264140
99,7,20,Ticks_Linear_8,159,9999,9999,9999,834774100
99,7,20,Ticks_Linear_8,160,9999,9999,9999,835274840
99,7,20,Ticks_Linear_8,161,9999,9999,9999,835774540
99,7,20,Ticks_Linear_8,162,9999,9999,9999,836274244
99,7,20,Ticks_Linear_8,163,9999,9999,9999,836774996
99,7,20,Ticks_Linear_8,164,9999,9999,9999,837274696
99,7,20,Ticks_Linear_8,165,9999,9999,9999,837764212
99,7,20,Ticks_Linear_8,166,9999,9999,9999,838254668
99,7,20,Ticks_Linear_8,167,9999,9999,9999,838744160
99,7,20,Ticks_Linear_8,168,9999,9999,9999,839234648
99,7,20,Ticks_Linear_8,169,9999,9999,9999,839724088
99,8,21,Ticks_Linear_5,0,5,42,127,850259368
99,8,21,Ticks_Linear_5,1,5,42,127,850738572
99,8,21,Ticks_Linear_5,2,5,42,127,851218896
99,8,21,Ticks_Linear_5,3,5,42,127,851699000
99,8,21,Ticks_Linear_5,4,5,42,127,852179324
99,8,21,Ticks_Linear_5,5,1,48,67,852189036
99,8,21,Ticks_Linear_5,6,1,48,70,852637640
99,8,21,Ticks_Linear_5,7,5,42,127,852668832
99,8,21,Ticks_Linear_5,8,5,42,127,853159252
99,8,21,Ticks_Linear_5,9,1,48,64,853160144
99,8,21,Ticks_Linear_5,10,1,48,58,853618768
99,8,21,Ticks_Linear_5,11,5,42,127,853648836
99,8,21,Ticks_Linear_5,12,1,48,61,854122928
99,8,21,Ticks_Linear_5,13,5,42,127,854139248
99,8,21,Ticks_Linear_5,14,1,48,66,854599192
99,8,21,Ticks_Linear_5,15,5,42,127,854628888
99,8,21,Ticks_Linear_5,16,1,48,65,855106220
99,8,21,Ticks_Linear_5,17,5,42,127,855128736
99,8,21,Ticks_Linear_5,18,1,48,69,855597696
99,8,21,Ticks_Linear_5,19,5,42,127,855629036
99,8,21,Ticks_Linear_5,20,1,48,68,856110420
99,8,21,Ticks_Linear_5,21,5,42,127,856128956
99,8,21,Ticks_Linear_5,22,1,48,64,856594160
99,8,21,Ticks_Linear_5,23,5,42,127,856628880
99,8,21,Ticks_Linear_5,24,1,48,64,857116704
99,8,21,Ticks_Linear_5,25,5,42,127,857129256
99,8,21,Ticks_Linear_5,26,1,48,64,857601800
99,8,21,Ticks_Linear_5,27,5,42,127,857639288
99,8,21,Ticks_Linear_5,28,1,48,65,858098812
99,8,21,Ticks_Linear_5,29,5,42,127,858149172
99,8,21,Ticks_Linear_5,30,1,48,61,858643956
99,8,21,Ticks_Linear_5,31,5,42,127,858659280
99,8,21,Ticks_Linear_5,32,1,48,58,859128240
99,8,21,Ticks_Linear_5,33,5,42,127,859169164
99,8,21,Ticks_Linear_5,34,1,48,59,859671968
99,8,21,Ticks_Linear_5,35,5,42,127,859679124
99,8,21,Ticks_Linear_5,36,1,48,59,860188968
99,8,21,Ticks_Linear_5,37,5,42,127,860199192
99,8,21,Ticks_Linear_5,38,1,48,60,860699448
99,8,21,Ticks_Linear_5,39,5,42,127,860718588
99,8,21,Ticks_Linear_5,40,1,48,61,861223184
99,8,21,Ticks_Linear_5,41,5,42,127,861238732
99,8,21,Ticks_Linear_5,42,1,48,68,861733216
99,8,21,Ticks_Linear_5,43,5,42,127,861758724
99,8,21,Ticks_Linear_5,44,1,48,74,862238240
99,8,21,Ticks_Linear_5,45,5,42,127,862279016
99,8,21,Ticks_Linear_5,46,5,42,127,862808304
99,8,21,Ticks_Linear_5,47,1,48,79,862812396
99,8,21,Ticks_Linear_5,48,1,48,86,863297704
99,8,21,Ticks_Linear_5,49,5,42,127,863338776
99,8,21,Ticks_Linear_5,50,1,48,79,863843896
99,8,21,Ticks_Linear_5,51,5,42,127,863869280
99,8,21,Ticks_Linear_5,52,1,48,85,864375668
99,8,21,Ticks_Linear_5,53,5,42,127,864398860
99,8,21,Ticks_Linear_5,54,1,48,87,864861720
99,8,21,Ticks_Linear_5,55,5,42,127,864929040
99,8,21,Ticks_Linear_5,56,1,48,84,865402484
99,8,21,Ticks_Linear_5,57,5,42,127,865468728
99,8,21,Ticks_Linear_5,58,1,48,80,865956768
99,8,21,Ticks_Linear_5,59,5,42,127,866008568
99,8,21,Ticks_Linear_5,60,1,48,69,866494064
99,8,21,Ticks_Linear_5,61,5,42,127,866549004
99,8,21,Ticks_Linear_5,62,1,48,50,867078548
99,8,21,Ticks_Linear_5,63,5,42,127,867088916
99,8,21,Ticks_Linear_5,64,1,48,58,867609248
99,8,21,Ticks_Linear_5,65,5,42,127,867629652
99,8,21,Ticks_Linear_5,66,1,48,55,868146620
99,8,21,Ticks_Linear_5,67,5,42,127,868188664
99,8,21,Ticks_Linear_5,68,1,48,56,868701724
99,8,21,Ticks_Linear_5,69,5,42,127,868738488
99,8,21,Ticks_Linear_5,70,1,48,34,869274236
99,8,21,Ticks_Linear_5,71,5,42,127,869289408
99,8,21,Ticks_Linear_5,72,1,48,56,869814748
99,8,21,Ticks_Linear_5,73,5,42,127,869839136
99,8,21,Ticks_Linear_5,74,1,48,70,870336236
99,8,21,Ticks_Linear_5,75,5,42,127,870389160
99,8,21,Ticks_Linear_5,76,1,48,92,870868528
99,8,21,Ticks_Linear_5,77,5,42,127,870949440
99,8,21,Ticks_Linear_5,78,1,48,81,871439740
99,8,21,Ticks_Linear_5,79,5,42,127,871509648
99,8,21,Ticks_Linear_5,80,1,48,74,872023004
99,8,21,Ticks_Linear_5,81,5,42,127,872068608
99,8,21,Ticks_Linear_5,82,1,48,74,872607588
99,8,21,Ticks_Linear_5,83,5,42,127,872628520
99,8,21,Ticks_Linear_5,84,1,48,72,873172060
99,8,21,Ticks_Linear_5,85,5,42,127,873188728
99,8,21,Ticks_Linear_5,86,1,48,68,873734436
99,8,21,Ticks_Linear_5,87,5,42,127,873759044
99,8,21,Ticks_Linear_5,88,1,48,77,874293520
99,8,21,Ticks_Linear_5,89,5,42,127,874328540
99,8,21,Ticks_Linear_5,90,1,48,65,874848348
99,8,21,Ticks_Linear_5,91,5,42,127,874898732
99,8,21,Ticks_Linear_5,92,1,48,67,875430216
99,8,21,Ticks_Linear_5,93,5,42,127,875469272
99,8,21,Ticks_Linear_5,94,1,48,55,876033632
99,8,21,Ticks_Linear_5,95,5,42,127,876038692
99,8,21,Ticks_Linear_5,96,1,48,60,876560292
99,8,21,Ticks_Linear_5,97,5,42,127,876619048
99,8,21,Ticks_Linear_5,98,1,48,58,877179316
99,8,21,Ticks_Linear_5,99,5,42,127,877198676
99,8,21,Ticks_Linear_5,100,1,48,69,877725284
99,8,21,Ticks_Linear_5,101,5,42,127,877779476
99,8,21,Ticks_Linear_5,102,1,48,86,878329388
99,8,21,Ticks_Linear_5,103,5,42,127,878358932
99,8,21,Ticks_Linear_5,104,1,48,101,878867280
99,8,21,Ticks_Linear_5,105,5,42,127,878938540
99,8,21,Ticks_Linear_5,106,1,48,75,879458716
99,8,21,Ticks_Linear_5,107,5,42,127,879529472
99,8,21,Ticks_Linear_5,108,1,48,75,880045600
99,8,21,Ticks_Linear_5,109,5,42,127,880119188
99,8,21,Ticks_Linear_5,110,1,48,81,880668648
99,8,21,Ticks_Linear_5,111,5,42,127,880708904
99,8,21,Ticks_Linear_5,112,1,48,89,881266388
99,8,21,Ticks_Linear_5,113,5,42,127,881298868
99,8,21,Ticks_Linear_5,114,1,48,87,881858288
99,8,21,Ticks_Linear_5,115,5,42,127,881888512
99,8,21,Ticks_Linear_5,116,1,48,84,882427040
99,8,21,Ticks_Linear_5,117,5,42,127,882488704
99,8,21,Ticks_Linear_5,118,1,48,68,883003936
99,8,21,Ticks_Linear_5,119,5,42,127,883088704
99,8,21,Ticks_Linear_5,120,1,48,86,883560780
99,8,21,Ticks_Linear_5,121,5,42,127,883688736
99,8,21,Ticks_Linear_5,122,1,48,79,884221728
99,8,21,Ticks_Linear_5,123,5,42,127,884289024
99,8,21,Ticks_Linear_5,124,1,48,69,884835032
99,8,21,Ticks_Linear_5,125,5,42,127,884888876
99,8,21,Ticks_Linear_5,126,1,48,76,885438408
99,8,21,Ticks_Linear_5,127,5,42,127,885499480
99,8,21,Ticks_Linear_5,128,1,48,65,885999364
99,8,21,Ticks_Linear_5,129,5,42,127,886108504
99,8,21,Ticks_Linear_5,130,1,48,76,886648564
99,8,21,Ticks_Linear_5,131,5,42,127,886718848
99,8,21,Ticks_Linear_5,132,1,48,68,887308896
99,8,21,Ticks_Linear_5,133,5,42,127,887329080
99,8,21,Ticks_Linear_5,134,5,42,127,887938648
99,8,21,Ticks_Linear_5,135,1,48,64,887951352
99,8,21,Ticks_Linear_5,136,1,48,71,888525388
99,8,21,Ticks_Linear_5,137,5,42,127,888558912
99,8,21,Ticks_Linear_5,138,1,48,62,889128664
99,8,21,Ticks_Linear_5,139,5,42,127,889178580
99,8,21,Ticks_Linear_5,140,1,48,67,889719228
99,8,21,Ticks_Linear_5,141,5,42,127,889798948
99,8,21,Ticks_Linear_5,142,1,48,56,890416352
99,8,21,Ticks_Linear_5,143,5,42,127,890418468
99,8,21,Ticks_Linear_5,144,5,42,127,891039064
99,8,21,Ticks_Linear_5,145,1,48,57,891058664
99,8,21,Ticks_Linear_5,146,5,42,127,891668844
99,8,21,Ticks_Linear_5,147,1,48,59,891683192
99,8,21,Ticks_Linear_5,148,1,48,65,892279576
99,8,21,Ticks_Linear_5,149,5,42,127,892298640
99,8,21,Ticks_Linear_5,150,1,48,64,892887420
99,8,21,Ticks_Linear_5,151,5,42,127,892929392
99,8,21,Ticks_Linear_5,152,1,48,73,893510600
99,8,21,Ticks_Linear_5,153,5,42,127,893559124
99,8,21,Ticks_Linear_5,154,1,48,59,894172156
99,8,21,Ticks_Linear_5,155,5,42,127,894189048
99,8,21,Ticks_Linear_5,156,1,48,70,894787412
99,8,21,Ticks_Linear_5,157,5,42,127,894828940
99,8,21,Ticks_Linear_5,158,1,48,83,895463164
99,8,21,Ticks_Linear_5,159,5,42,127,895468904
99,8,21,Ticks_Linear_5,160,1,48,75,896087036
99,8,21,Ticks_Linear_5,161,5,42,127,896108868
99,8,21,Ticks_Linear_5,162,1,48,62,896744520
99,8,21,Ticks_Linear_5,163,5,42,127,896748908
99,8,21,Ticks_Linear_5,164,1,48,70,897359328
99,8,21,Ticks_Linear_5,165,5,42,127,897389020
99,8,21,Ticks_Linear_5,166,1,48,73,897997872
99,8,21,Ticks_Linear_5,167,5,42,127,898039316
99,8,21,Ticks_Linear_5,168,1,48,70,898662760
99,8,21,Ticks_Linear_5,169,5,42,127,898689340
99,8,21,Ticks_Linear_5,170,1,48,60,899320052
99,8,21,Ticks_Linear_5,171,5,42,127,899338592
99,8,21,Ticks_Linear_5,172,1,48,68,899931852
99,8,21,Ticks_Linear_5,173,5,42,127,899988764
99,8,21,Ticks_Linear_5,174,1,48,66,900542860
99,8,21,Ticks_Linear_5,175,5,42,127,900639192
99,8,21,Ticks_Linear_5,176,1,48,75,901212852
99,8,21,Ticks_Linear_5,177,5,42,127,901298520
99,8,21,Ticks_Linear_5,178,1,48,77,901957192
99,8,21,Ticks_Linear_5,179,5,42,127,901959152
99,8,21,Ticks_Linear_5,180,5,42,127,902618392
99,8,21,Ticks_Linear_5,181,1,48,61,902621360
99,8,21,Ticks_Linear_5,182,1,48,70,903234640
99,8,21,Ticks_Linear_5,183,5,42,127,903279116
99,8,21,Ticks_Linear_5,184,1,48,68,903933412
99,8,21,Ticks_Linear_5,185,5,42,127,903938404
99,8,21,Ticks_Linear_5,186,1,48,74,904545440
99,8,21,Ticks_Linear_5,187,5,42,127,904609316
99,8,21,Ticks_Linear_5,188,1,48,80,905224372
99,8,21,Ticks_Linear_5,189,5,42,127,905278784
99,8,21,Ticks_Linear_5,190,1,48,66,905937016
99,8,21,Ticks_Linear_5,191,5,42,127,905948432
99,8,21,Ticks_Linear_5,192,1,48,75,906575388
99,8,21,Ticks_Linear_5,193,5,42,127,906619492
99,8,21,Ticks_Linear_5,194,1,48,66,907247364
99,8,21,Ticks_Linear_5,195,5,42,127,907288892
99,8,21,Ticks_Linear_5,196,1,48,56,907914532
99,8,21,Ticks_Linear_5,197,5,42,127,907968944
99,8,21,Ticks_Linear_5,198,1,48,62,908590744
99,8,21,Ticks_Linear_5,199,5,42,127,908648824
99,8,21,Ticks_Linear_5,200,5,42,127,909328660
99,8,21,Ticks_Linear_5,201,1,48,79,909346448
99,8,21,Ticks_Linear_5,202,1,48,61,909963284
99,8,21,Ticks_Linear_5,203,5,42,127,910008556
99,8,21,Ticks_Linear_5,204,1,48,67,910615672
99,8,21,Ticks_Linear_5,205,5,42,127,910688512
99,8,21,Ticks_Linear_5,206,1,48,72,911332424
99,8,21,Ticks_Linear_5,207,5,42,127,911378748
99,8,21,Ticks_Linear_5,208,1,48,79,912041088
99,8,21,Ticks_Linear_5,209,5,42,127,912069284
99,8,21,Ticks_Linear_5,210,5,42,127,912759304
99,8,21,Ticks_Linear_5,211,1,48,71,912766756
99,8,21,Ticks_Linear_5,212,1,48,76,913420564
99,8,21,Ticks_Linear_5,213,5,42,127,913449288
99,8,21,Ticks_Linear_5,214,1,48,60,914118592
99,8,21,Ticks_Linear_5,215,5,42,127,914138404
99,8,21,Ticks_Linear_5,216,1,48,70,914782064
99,8,21,Ticks_Linear_5,217,5,42,127,914839124
99,8,21,Ticks_Linear_5,218,1,48,71,915504948
99,8,21,Ticks_Linear_5,219,5,42,127,915539372
99,8,21,Ticks_Linear_5,220,1,48,73,916208904
99,8,21,Ticks_Linear_5,221,5,42,127,916238820
99,8,21,Ticks_Linear_5,222,1,48,81,916908280
99,8,21,Ticks_Linear_5,223,5,42,127,916939244
99,8,21,Ticks_Linear_5,224,1,48,70,917590028
99,8,21,Ticks_Linear_5,225,5,42,127,917638620
99,8,21,Ticks_Linear_5,226,1,48,82,918308052
99,8,21,Ticks_Linear_5,227,5,42,127,918349052
99,8,21,Ticks_Linear_5,228,1,48,80,919006756
99,8,21,Ticks_Linear_5,229,5,42,127,919058760
99,8,21,Ticks_Linear_5,230,1,48,71,919757796
99,8,21,Ticks_Linear_5,231,5,42,127,919768468
99,8,21,Ticks_Linear_5,232,1,48,57,920444284
99,8,21,Ticks_Linear_5,233,5,42,127,920479076
99,8,21,Ticks_Linear_5,234,1,48,60,921174856
99,8,21,Ticks_Linear_5,235,5,42,127,921188760
99,8,21,Ticks_Linear_5,236,1,48,75,921878664
99,8,21,Ticks_Linear_5,237,5,42,127,921908580
99,8,21,Ticks_Linear_5,238,5,42,127,922628552
99,8,21,Ticks_Linear_5,239,1,48,67,922652188
99,8,21,Ticks_Linear_5,240,1,48,79,923302940
99,8,21,Ticks_Linear_5,241,5,42,127,923349412
99,8,21,Ticks_Linear_5,242,1,48,66,923977432
99,8,21,Ticks_Linear_5,243,5,42,127,924069216
99,8,21,Ticks_Linear_5,244,1,48,81,924722780
99,8,21,Ticks_Linear_5,245,5,42,127,924789048
99,8,21,Ticks_Linear_5,246,1,48,59,925458484
99,8,21,Ticks_Linear_5,247,5,42,127,925519328
99,8,21,Ticks_Linear_5,248,1,48,59,926220156
99,8,21,Ticks_Linear_5,249,5,42,127,926249332
99,8,21,Ticks_Linear_5,250,1,48,66,926918560
99,8,21,Ticks_Linear_5,251,5,42,127,926978364
99,8,21,Ticks_Linear_5,252,1,48,86,927651480
99,8,21,Ticks_Linear_5,253,5,42,127,927708440
99,8,21,Ticks_Linear_5,254,1,48,77,928415628
99,8,21,Ticks_Linear_5,255,5,42,127,928438520
99,8,21,Ticks_Linear_5,256,1,48,84,929150360
99,8,21,Ticks_Linear_5,257,5,42,127,929179004
99,8,21,Ticks_Linear_5,258,1,48,82,929863404
99,8,21,Ticks_Linear_5,259,5,42,127,929919416
99,8,21,Ticks_Linear_5,260,1,48,74,930592888
99,8,21,Ticks_Linear_5,261,5,42,127,930658976
99,8,21,Ticks_Linear_5,262,1,48,62,931360864
99,8,21,Ticks_Linear_5,263,5,42,127,931399096
99,8,21,Ticks_Linear_5,264,1,48,90,932080680
99,8,21,Ticks_Linear_5,265,5,42,127,932139356
99,8,21,Ticks_Linear_5,266,1,48,83,932852992
99,8,21,Ticks_Linear_5,267,5,42,127,932888908
99,8,21,Ticks_Linear_5,268,1,48,86,933589512
99,8,21,Ticks_Linear_5,269,5,42,127,933638456
99,8,21,Ticks_Linear_5,270,1,48,73,934322432
99,8,21,Ticks_Linear_5,271,5,42,127,934388976
99,8,21,Ticks_Linear_5,272,5,42,127,935138828
99,8,21,Ticks_Linear_5,273,1,48,64,935169660
99,8,21,Ticks_Linear_5,274,1,48,82,935881144
99,8,21,Ticks_Linear_5,275,5,42,127,935889348
99,8,21,Ticks_Linear_5,276,1,48,57,936605300
99,8,21,Ticks_Linear_5,277,5,42,127,936649008
99,8,21,Ticks_Linear_5,278,1,48,65,937378744
99,8,21,Ticks_Linear_5,279,5,42,127,937409040
99,8,21,Ticks_Linear_5,280,1,48,58,938156828
99,8,21,Ticks_Linear_5,281,5,42,127,938168920
99,8,21,Ticks_Linear_5,282,5,42,127,938928664
99,8,21,Ticks_Linear_5,283,1,48,58,938940624
99,8,21,Ticks_Linear_5,284,1,48,69,939681308
99,8,21,Ticks_Linear_5,285,5,42,127,939689436
99,8,21,Ticks_Linear_5,286,1,48,73,940415796
99,8,21,Ticks_Linear_5,287,5,42,127,940459356
99,8,21,Ticks_Linear_5,288,1,48,64,941190740
99,8,21,Ticks_Linear_5,289,5,42,127,941229572
99,8,21,Ticks_Linear_5,290,1,48,67,941951892
99,8,21,Ticks_Linear_5,291,5,42,127,942008776
99,8,21,Ticks_Linear_5,292,1,48,51,942759260
99,8,21,Ticks_Linear_5,293,5,42,127,942778920
99,8,21,Ticks_Linear_5,294,1,48,66,943509260
99,8,21,Ticks_Linear_5,295,5,42,127,943549064
99,8,21,Ticks_Linear_5,296,1,48,66,944302316
99,8,21,Ticks_Linear_5,297,5,42,127,944328944
99,8,21,Ticks_Linear_5,298,1,48,70,945017720
99,8,21,Ticks_Linear_5,299,5,42,127,945109344
99,8,21,Ticks_Linear_5,300,1,48,55,945849792
99,8,21,Ticks_Linear_5,301,5,42,127,945888776
99,8,21,Ticks_Linear_5,302,5,42,127,946668884
99,8,21,Ticks_Linear_5,303,1,48,54,946696352
99,8,21,Ticks_Linear_5,304,1,48,62,947406392
99,8,21,Ticks_Linear_5,305,5,42,127,947449128
99,8,21,Ticks_Linear_5,306,1,48,66,948206340
99,8,21,Ticks_Linear_5,307,5,42,127,948238892
99,8,21,Ticks_Linear_5,308,1,48,54,949028732
99,8,21,Ticks_Linear_5,309,5,42,127,949030152
99,8,21,Ticks_Linear_5,310,1,48,65,949815524
99,8,21,Ticks_Linear_5,311,5,42,127,949818940
99,8,21,Ticks_Linear_5,312,5,42,127,950609160
99,8,21,Ticks_Linear_5,313,1,48,69,950648856
99,8,21,Ticks_Linear_5,314,1,48,63,951374160
99,8,21,Ticks_Linear_5,315,5,42,127,951398768
99,8,21,Ticks_Linear_5,316,1,48,63,952120568
99,8,21,Ticks_Linear_5,317,5,42,127,952198592
99,8,21,Ticks_Linear_5,318,1,48,62,952972956
99,8,21,Ticks_Linear_5,319,5,42,127,952999364
99,8,21,Ticks_Linear_5,320,1,48,70,953658540
99,8,21,Ticks_Linear_5,321,5,42,127,953798924
99,8,21,Ticks_Linear_5,322,1,48,70,954577956
99,8,21,Ticks_Linear_5,323,5,42,127,954598660
99,8,21,Ticks_Linear_5,324,1,48,67,955340908
99,8,21,Ticks_Linear_5,325,5,42,127,955398608
99,8,21,Ticks_Linear_5,326,1,48,49,956200612
99,8,21,Ticks_Linear_5,327,5,42,127,956208516
99,8,21,Ticks_Linear_5,328,1,48,69,957003624
99,8,21,Ticks_Linear_5,329,5,42,127,957018572
99,8,21,Ticks_Linear_5,330,5,42,127,957828660
99,8,21,Ticks_Linear_5,331,1,48,67,957851928
99,8,21,Ticks_Linear_5,332,1,48,70,958629016
99,8,21,Ticks_Linear_5,333,5,42,127,958638712
99,8,21,Ticks_Linear_5,334,5,42,127,959448780
99,8,21,Ticks_Linear_5,0,9999,9999,9999,850256996
99,8,21,Ticks_Linear_5,1,9999,9999,9999,850736196
99,8,21,Ticks_Linear_5,2,9999,9999,9999,851216448
99,8,21,Ticks_Linear_5,3,9999,9999,9999,851696700
99,8,21,Ticks_Linear_5,4,9999,9999,9999,852177024
99,8,21,Ticks_Linear_5,5,9999,9999,9999,852666460
99,8,21,Ticks_Linear_5,6,9999,9999,9999,853156952
99,8,21,Ticks_Linear_5,7,9999,9999,9999,853646464
99,8,21,Ticks_Linear_5,8,9999,9999,9999,854136948
99,8,21,Ticks_Linear_5,9,9999,9999,9999,854626364
99,8,21,Ticks_Linear_5,10,9999,9999,9999,855126140
99,8,21,Ticks_Linear_5,11,9999,9999,9999,855626812
99,8,21,Ticks_Linear_5,12,9999,9999,9999,856126584
99,8,21,Ticks_Linear_5,13,9999,9999,9999,856626284
99,8,21,Ticks_Linear_5,14,9999,9999,9999,857127032
99,8,21,Ticks_Linear_5,15,9999,9999,9999,857636992
99,8,21,Ticks_Linear_5,16,9999,9999,9999,858146876
99,8,21,Ticks_Linear_5,17,9999,9999,9999,858656832
99,8,21,Ticks_Linear_5,18,9999,9999,9999,859166792
99,8,21,Ticks_Linear_5,19,9999,9999,9999,859676752
99,8,21,Ticks_Linear_5,20,9999,9999,9999,860196968
99,8,21,Ticks_Linear_5,21,9999,9999,9999,860716140
99,8,21,Ticks_Linear_5,22,9999,9999,9999,861236284
99,8,21,Ticks_Linear_5,23,9999,9999,9999,861756500
99,8,21,Ticks_Linear_5,24,9999,9999,9999,862276720
99,8,21,Ticks_Linear_5,25,9999,9999,9999,862806080
99,8,21,Ticks_Linear_5,26,9999,9999,9999,863336552
99,8,21,Ticks_Linear_5,27,9999,9999,9999,863866980
99,8,21,Ticks_Linear_5,28,9999,9999,9999,864396412
99,8,21,Ticks_Linear_5,29,9999,9999,9999,864926816
99,8,21,Ticks_Linear_5,30,9999,9999,9999,865466432
99,8,21,Ticks_Linear_5,31,9999,9999,9999,866006120
99,8,21,Ticks_Linear_5,32,9999,9999,9999,866546780
99,8,21,Ticks_Linear_5,33,9999,9999,9999,867086396
99,8,21,Ticks_Linear_5,34,9999,9999,9999,867627132
99,8,21,Ticks_Linear_5,35,9999,9999,9999,868186216
99,8,21,Ticks_Linear_5,36,9999,9999,9999,868736116
99,8,21,Ticks_Linear_5,37,9999,9999,9999,869287036
99,8,21,Ticks_Linear_5,38,9999,9999,9999,869836912
99,8,21,Ticks_Linear_5,39,9999,9999,9999,870386784
99,8,21,Ticks_Linear_5,40,9999,9999,9999,870946920
99,8,21,Ticks_Linear_5,41,9999,9999,9999,871507052
99,8,21,Ticks_Linear_5,42,9999,9999,9999,872066164
99,8,21,Ticks_Linear_5,43,9999,9999,9999,872626296
99,8,21,Ticks_Linear_5,44,9999,9999,9999,873186428
99,8,21,Ticks_Linear_5,45,9999,9999,9999,873756748
99,8,21,Ticks_Linear_5,46,9999,9999,9999,874326092
99,8,21,Ticks_Linear_5,47,9999,9999,9999,874896508
99,8,21,Ticks_Linear_5,48,9999,9999,9999,875466824
99,8,21,Ticks_Linear_5,49,9999,9999,9999,876036172
99,8,21,Ticks_Linear_5,50,9999,9999,9999,876616824
99,8,21,Ticks_Linear_5,51,9999,9999,9999,877196380
99,8,21,Ticks_Linear_5,52,9999,9999,9999,877776956
99,8,21,Ticks_Linear_5,53,9999,9999,9999,878356560
99,8,21,Ticks_Linear_5,54,9999,9999,9999,878936164
99,8,21,Ticks_Linear_5,55,9999,9999,9999,879527028
99,8,21,Ticks_Linear_5,56,9999,9999,9999,880116812
99,8,21,Ticks_Linear_5,57,9999,9999,9999,880706680
99,8,21,Ticks_Linear_5,58,9999,9999,9999,881296492
99,8,21,Ticks_Linear_5,59,9999,9999,9999,881886284
99,8,21,Ticks_Linear_5,60,9999,9999,9999,882486332
99,8,21,Ticks_Linear_5,61,9999,9999,9999,883086404
99,8,21,Ticks_Linear_5,62,9999,9999,9999,883686512
99,8,21,Ticks_Linear_5,63,9999,9999,9999,884286576
99,8,21,Ticks_Linear_5,64,9999,9999,9999,884886652
99,8,21,Ticks_Linear_5,65,9999,9999,9999,885496956
99,8,21,Ticks_Linear_5,66,9999,9999,9999,886106204
99,8,21,Ticks_Linear_5,67,9999,9999,9999,886716476
99,8,21,Ticks_Linear_5,68,9999,9999,9999,887326784
99,8,21,Ticks_Linear_5,69,9999,9999,9999,887936128
99,8,21,Ticks_Linear_5,70,9999,9999,9999,888556612
99,8,21,Ticks_Linear_5,71,9999,9999,9999,889176132
99,8,21,Ticks_Linear_5,72,9999,9999,9999,889796724
99,8,21,Ticks_Linear_5,73,9999,9999,9999,890416208
99,8,21,Ticks_Linear_5,74,9999,9999,9999,891036768
99,8,21,Ticks_Linear_5,75,9999,9999,9999,891666544
99,8,21,Ticks_Linear_5,76,9999,9999,9999,892296268
99,8,21,Ticks_Linear_5,77,9999,9999,9999,892927096
99,8,21,Ticks_Linear_5,78,9999,9999,9999,893556824
99,8,21,Ticks_Linear_5,79,9999,9999,9999,894186604
99,8,21,Ticks_Linear_5,80,9999,9999,9999,894826568
99,8,21,Ticks_Linear_5,81,9999,9999,9999,895466604
99,8,21,Ticks_Linear_5,82,9999,9999,9999,896106572
99,8,21,Ticks_Linear_5,83,9999,9999,9999,896746608
99,8,21,Ticks_Linear_5,84,9999,9999,9999,897386572
99,8,21,Ticks_Linear_5,85,9999,9999,9999,898036796
99,8,21,Ticks_Linear_5,86,9999,9999,9999,898687040
99,8,21,Ticks_Linear_5,87,9999,9999,9999,899336292
99,8,21,Ticks_Linear_5,88,9999,9999,9999,899986540
99,8,21,Ticks_Linear_5,89,9999,9999,9999,900636744
99,8,21,Ticks_Linear_5,90,9999,9999,9999,901296220
99,8,21,Ticks_Linear_5,91,9999,9999,9999,901956728
99,8,21,Ticks_Linear_5,92,9999,9999,9999,902616168
99,8,21,Ticks_Linear_5,93,9999,9999,9999,903276644
99,8,21,Ticks_Linear_5,94,9999,9999,9999,903936104
99,8,21,Ticks_Linear_5,95,9999,9999,9999,904606796
99,8,21,Ticks_Linear_5,96,9999,9999,9999,905276488
99,8,21,Ticks_Linear_5,97,9999,9999,9999,905946208
99,8,21,Ticks_Linear_5,98,9999,9999,9999,906616896
99,8,21,Ticks_Linear_5,99,9999,9999,9999,907286592
99,8,21,Ticks_Linear_5,100,9999,9999,9999,907966572
99,8,21,Ticks_Linear_5,101,9999,9999,9999,908646528
99,8,21,Ticks_Linear_5,102,9999,9999,9999,909326436
99,8,21,Ticks_Linear_5,103,9999,9999,9999,910006336
99,8,21,Ticks_Linear_5,104,9999,9999,9999,910686288
99,8,21,Ticks_Linear_5,105,9999,9999,9999,911376452
99,8,21,Ticks_Linear_5,106,9999,9999,9999,912066688
99,8,21,Ticks_Linear_5,107,9999,9999,9999,912756856
99,8,21,Ticks_Linear_5,108,9999,9999,9999,913446988
99,8,21,Ticks_Linear_5,109,9999,9999,9999,914136180
99,8,21,Ticks_Linear_5,110,9999,9999,9999,914836604
99,8,21,Ticks_Linear_5,111,9999,9999,9999,915537000
99,8,21,Ticks_Linear_5,112,9999,9999,9999,916236372
99,8,21,Ticks_Linear_5,113,9999,9999,9999,916936796
99,8,21,Ticks_Linear_5,114,9999,9999,9999,917636172
99,8,21,Ticks_Linear_5,115,9999,9999,9999,918346828
99,8,21,Ticks_Linear_5,116,9999,9999,9999,919056464
99,8,21,Ticks_Linear_5,117,9999,9999,9999,919766096
99,8,21,Ticks_Linear_5,118,9999,9999,9999,920476780
99,8,21,Ticks_Linear_5,119,9999,9999,9999,921186388
99,8,21,Ticks_Linear_5,120,9999,9999,9999,921906280
99,8,21,Ticks_Linear_5,121,9999,9999,9999,922626104
99,8,21,Ticks_Linear_5,122,9999,9999,9999,923347040
99,8,21,Ticks_Linear_5,123,9999,9999,9999,924066932
99,8,21,Ticks_Linear_5,124,9999,9999,9999,924786752
99,8,21,Ticks_Linear_5,125,9999,9999,9999,925516880
99,8,21,Ticks_Linear_5,126,9999,9999,9999,926247032
99,8,21,Ticks_Linear_5,127,9999,9999,9999,926976064
99,8,21,Ticks_Linear_5,128,9999,9999,9999,927706216
99,8,21,Ticks_Linear_5,129,9999,9999,9999,928436296
99,8,21,Ticks_Linear_5,130,9999,9999,9999,929176632
99,8,21,Ticks_Linear_5,131,9999,9999,9999,929917044
99,8,21,Ticks_Linear_5,132,9999,9999,9999,930656380
99,8,21,Ticks_Linear_5,133,9999,9999,9999,931396720
99,8,21,Ticks_Linear_5,134,9999,9999,9999,932137056
99,8,21,Ticks_Linear_5,135,9999,9999,9999,932886608
99,8,21,Ticks_Linear_5,136,9999,9999,9999,933636156
99,8,21,Ticks_Linear_5,137,9999,9999,9999,934386752
99,8,21,Ticks_Linear_5,138,9999,9999,9999,935136384
99,8,21,Ticks_Linear_5,139,9999,9999,9999,935886976
99,8,21,Ticks_Linear_5,140,9999,9999,9999,936646784
99,8,21,Ticks_Linear_5,141,9999,9999,9999,937406592
99,8,21,Ticks_Linear_5,142,9999,9999,9999,938166400
99,8,21,Ticks_Linear_5,143,9999,9999,9999,938926140
99,8,21,Ticks_Linear_5,144,9999,9999,9999,939686988
99,8,21,Ticks_Linear_5,145,9999,9999,9999,940457056
99,8,21,Ticks_Linear_5,146,9999,9999,9999,941227124
99,8,21,Ticks_Linear_5,147,9999,9999,9999,942006332
99,8,21,Ticks_Linear_5,148,9999,9999,9999,942776396
99,8,21,Ticks_Linear_5,149,9999,9999,9999,943546468
99,8,21,Ticks_Linear_5,150,9999,9999,9999,944326720
99,8,21,Ticks_Linear_5,151,9999,9999,9999,945107048
99,8,21,Ticks_Linear_5,152,9999,9999,9999,945886328
99,8,21,Ticks_Linear_5,153,9999,9999,9999,946666584
99,8,21,Ticks_Linear_5,154,9999,9999,9999,947446904
99,8,21,Ticks_Linear_5,155,9999,9999,9999,948236368
99,8,21,Ticks_Linear_5,156,9999,9999,9999,949026888
99,8,21,Ticks_Linear_5,157,9999,9999,9999,949816420
99,8,21,Ticks_Linear_5,158,9999,9999,9999,950606936
99,8,21,Ticks_Linear_5,159,9999,9999,9999,951396472
99,8,21,Ticks_Linear_5,160,9999,9999,9999,952196220
99,8,21,Ticks_Linear_5,161,9999,9999,9999,952996988
99,8,21,Ticks_Linear_5,162,9999,9999,9999,953796696
99,8,21,Ticks_Linear_5,163,9999,9999,9999,954596440
99,8,21,Ticks_Linear_5,164,9999,9999,9999,955396164
99,8,21,Ticks_Linear_5,165,9999,9999,9999,956206144
99,8,21,Ticks_Linear_5,166,9999,9999,9999,957016128
99,8,21,Ticks_Linear_5,167,9999,9999,9999,957826140
99,8,21,Ticks_Linear_5,168,9999,9999,9999,958636116
99,8,21,Ticks_Linear_5,169,9999,9999,9999,959446108
99,9,22,Ticks_Phase_8,0,5,42,127,969667896
99,9,22,Ticks_Phase_8,1,5,42,127,970467632
99,9,22,Ticks_Phase_8,2,5,42,127,971267436
99,9,22,Ticks_Phase_8,3,1,48,80,971282760
99,9,22,Ticks_Phase_8,4,1,48,46,971326400
99,9,22,Ticks_Phase_8,5,1,48,74,972063268
99,9,22,Ticks_Phase_8,6,5,42,127,972068096
99,9,22,Ticks_Phase_8,7,1,48,32,972141620
99,9,22,Ticks_Phase_8,8,5,42,127,972868016
99,9,22,Ticks_Phase_8,9,1,48,78,972884532
99,9,22,Ticks_Phase_8,10,1,48,74,973658632
99,9,22,Ticks_Phase_8,11,5,42,127,973667796
99,9,22,Ticks_Phase_8,12,1,48,78,974458444
99,9,22,Ticks_Phase_8,13,5,42,127,974467384
99,9,22,Ticks_Phase_8,14,1,48,77,975243396
99,9,22,Ticks_Phase_8,15,5,42,127,975268292
99,9,22,Ticks_Phase_8,16,1,48,70,976057792
99,9,22,Ticks_Phase_8,17,5,42,127,976067928
99,9,22,Ticks_Phase_8,18,1,48,64,976818108
99,9,22,Ticks_Phase_8,19,5,42,127,976867568
99,9,22,Ticks_Phase_8,20,1,48,67,977632792
99,9,22,Ticks_Phase_8,21,5,42,127,977667428
99,9,22,Ticks_Phase_8,22,1,48,69,978468636
99,9,22,Ticks_Phase_8,23,5,42,127,978469908
99,9,22,Ticks_Phase_8,24,5,42,127,979267976
99,9,22,Ticks_Phase_8,25,1,48,67,979280084
99,9,22,Ticks_Phase_8,26,1,48,72,980031328
99,9,22,Ticks_Phase_8,27,5,42,127,980067680
99,9,22,Ticks_Phase_8,28,1,48,62,980807456
99,9,22,Ticks_Phase_8,29,5,42,127,980867496
99,9,22,Ticks_Phase_8,30,1,48,62,981616784
99,9,22,Ticks_Phase_8,31,5,42,127,981668476
99,9,22,Ticks_Phase_8,32,1,48,62,982415892
99,9,22,Ticks_Phase_8,33,5,42,127,982467892
99,9,22,Ticks_Phase_8,34,1,48,60,983247280
99,9,22,Ticks_Phase_8,35,5,42,127,983267676
99,9,22,Ticks_Phase_8,36,5,42,127,984067392
99,9,22,Ticks_Phase_8,37,1,48,57,984069104
99,9,22,Ticks_Phase_8,38,5,42,127,984868376
99,9,22,Ticks_Phase_8,39,1,48,59,984893208
99,9,22,Ticks_Phase_8,40,1,48,62,985577140
99,9,22,Ticks_Phase_8,41,5,42,127,985667932
99,9,22,Ticks_Phase_8,42,1,48,54,986381116
99,9,22,Ticks_Phase_8,43,5,42,127,986467792
99,9,22,Ticks_Phase_8,44,5,42,127,987267384
99,9,22,Ticks_Phase_8,45,1,48,59,987325012
99,9,22,Ticks_Phase_8,46,1,48,57,988048336
99,9,22,Ticks_Phase_8,47,5,42,127,988068136
99,9,22,Ticks_Phase_8,48,1,48,57,988824152
99,9,22,Ticks_Phase_8,49,5,42,127,988867848
99,9,22,Ticks_Phase_8,50,1,48,58,989662436
99,9,22,Ticks_Phase_8,51,5,42,127,989667708
99,9,22,Ticks_Phase_8,52,1,48,63,990466372
99,9,22,Ticks_Phase_8,53,5,42,127,990467868
99,9,22,Ticks_Phase_8,54,1,48,62,991260284
99,9,22,Ticks_Phase_8,55,5,42,127,991268180
99,9,22,Ticks_Phase_8,56,1,48,68,992053332
99,9,22,Ticks_Phase_8,57,5,42,127,992067892
99,9,22,Ticks_Phase_8,58,1,48,64,992864792
99,9,22,Ticks_Phase_8,59,5,42,127,992867680
99,9,22,Ticks_Phase_8,60,5,42,127,993648100
99,9,22,Ticks_Phase_8,61,1,48,55,993693524
99,9,22,Ticks_Phase_8,62,1,48,63,994370464
99,9,22,Ticks_Phase_8,63,5,42,127,994447580
99,9,22,Ticks_Phase_8,64,1,48,69,995211088
99,9,22,Ticks_Phase_8,65,5,42,127,995247516
99,9,22,Ticks_Phase_8,66,1,48,55,996003308
99,9,22,Ticks_Phase_8,67,5,42,127,996048128
99,9,22,Ticks_Phase_8,68,1,48,67,996803696
99,9,22,Ticks_Phase_8,69,5,42,127,996848064
99,9,22,Ticks_Phase_8,70,1,48,68,997598920
99,9,22,Ticks_Phase_8,71,5,42,127,997647624
99,9,22,Ticks_Phase_8,72,5,42,127,998447420
99,9,22,Ticks_Phase_8,73,1,48,60,998453076
99,9,22,Ticks_Phase_8,74,1,48,59,999218560
99,9,22,Ticks_Phase_8,75,5,42,127,999248316
99,9,22,Ticks_Phase_8,76,1,48,59,999949376
99,9,22,Ticks_Phase_8,77,5,42,127,1000048112
99,9,22,Ticks_Phase_8,78,1,48,59,1000833428
99,9,22,Ticks_Phase_8,79,5,42,127,1000847692
99,9,22,Ticks_Phase_8,80,1,48,47,1001633888
99,9,22,Ticks_Phase_8,81,5,42,127,1001647404
99,9,22,Ticks_Phase_8,82,1,48,56,1002432552
99,9,22,Ticks_Phase_8,83,5,42,127,1002448308
99,9,22,Ticks_Phase_8,84,1,48,54,1003209348
99,9,22,Ticks_Phase_8,85,5,42,127,1003248096
99,9,22,Ticks_Phase_8,86,5,42,127,1004047888
99,9,22,Ticks_Phase_8,87,1,48,62,1004059772
99,9,22,Ticks_Phase_8,88,1,48,42,1004812960
99,9,22,Ticks_Phase_8,89,5,42,127,1004847592
99,9,22,Ticks_Phase_8,90,5,42,127,1005648284
99,9,22,Ticks_Phase_8,91,1,48,49,1005655156
99,9,22,Ticks_Phase_8,92,1,48,44,1006435460
99,9,22,Ticks_Phase_8,93,5,42,127,1006448164
99,9,22,Ticks_Phase_8,94,1,48,56,1007243192
99,9,22,Ticks_Phase_8,95,5,42,127,1007247800
99,9,22,Ticks_Phase_8,96,1,48,57,1008014296
99,9,22,Ticks_Phase_8,97,5,42,127,1008068032
99,9,22,Ticks_Phase_8,98,5,42,127,1008867604
99,9,22,Ticks_Phase_8,99,1,48,56,1008892360
99,9,22,Ticks_Phase_8,100,5,42,127,1009667388
99,9,22,Ticks_Phase_8,101,1,48,62,1009697392
99,9,22,Ticks_Phase_8,102,1,48,51,1010422644
99,9,22,Ticks_Phase_8,103,5,42,127,1010468288
99,9,22,Ticks_Phase_8,104,1,48,46,1011238764
99,9,22,Ticks_Phase_8,105,5,42,127,1011268148
99,9,22,Ticks_Phase_8,106,5,42,127,1012067792
99,9,22,Ticks_Phase_8,107,1,48,44,1012074000
99,9,22,Ticks_Phase_8,108,5,42,127,1012867308
99,9,22,Ticks_Phase_8,109,1,48,64,1012887880
99,9,22,Ticks_Phase_8,110,5,42,127,1013668140
99,9,22,Ticks_Phase_8,111,1,48,60,1013691328
99,9,22,Ticks_Phase_8,112,1,48,52,1014443992
99,9,22,Ticks_Phase_8,113,5,42,127,1014468220
99,9,22,Ticks_Phase_8,114,1,48,64,1015215336
99,9,22,Ticks_Phase_8,115,5,42,127,1015267556
99,9,22,Ticks_Phase_8,116,1,48,49,1015995576
99,9,22,Ticks_Phase_8,117,5,42,127,1016067492
99,9,22,Ticks_Phase_8,118,1,48,64,1016850320
99,9,22,Ticks_Phase_8,119,5,42,127,1016868176
99,9,22,Ticks_Phase_8,120,1,48,46,1017655192
99,9,22,Ticks_Phase_8,121,5,42,127,1017668112
99,9,22,Ticks_Phase_8,122,5,42,127,1018467904
99,9,22,Ticks_Phase_8,123,1,48,71,1018483620
99,9,22,Ticks_Phase_8,124,1,48,70,1019262432
99,9,22,Ticks_Phase_8,125,5,42,127,1019267336
99,9,22,Ticks_Phase_8,126,1,48,55,1020055716
99,9,22,Ticks_Phase_8,127,5,42,127,1020068168
99,9,22,Ticks_Phase_8,128,1,48,70,1020856096
99,9,22,Ticks_Phase_8,129,5,42,127,1020908172
99,9,22,Ticks_Phase_8,130,5,42,127,1021707592
99,9,22,Ticks_Phase_8,131,1,48,65,1021710332
99,9,22,Ticks_Phase_8,132,5,42,127,1022508276
99,9,22,Ticks_Phase_8,133,1,48,57,1022574620
99,9,22,Ticks_Phase_8,134,1,48,58,1023275156
99,9,22,Ticks_Phase_8,135,5,42,127,1023308128
99,9,22,Ticks_Phase_8,136,1,48,54,1024053960
99,9,22,Ticks_Phase_8,137,5,42,127,1024108016
99,9,22,Ticks_Phase_8,138,1,48,46,1024857652
99,9,22,Ticks_Phase_8,139,5,42,127,1024907728
99,9,22,Ticks_Phase_8,140,5,42,127,1025708344
99,9,22,Ticks_Phase_8,141,1,48,48,1025730112
99,9,22,Ticks_Phase_8,142,1,48,53,1026507608
99,9,22,Ticks_Phase_8,143,5,42,127,1026509172
99,9,22,Ticks_Phase_8,144,1,48,40,1027275824
99,9,22,Ticks_Phase_8,145,5,42,127,1027307988
99,9,22,Ticks_Phase_8,146,1,48,48,1028092020
99,9,22,Ticks_Phase_8,147,5,42,127,1028107924
99,9,22,Ticks_Phase_8,148,1,48,64,1028847252
99,9,22,Ticks_Phase_8,149,5,42,127,1028908384
99,9,22,Ticks_Phase_8,150,1,48,45,1029681104
99,9,22,Ticks_Phase_8,151,5,42,127,1029708096
99,9,22,Ticks_Phase_8,152,1,48,53,1030472204
99,9,22,Ticks_Phase_8,153,5,42,127,1030507908
99,9,22,Ticks_Phase_8,154,1,48,51,1031253116
99,9,22,Ticks_Phase_8,155,5,42,127,1031307840
99,9,22,Ticks_Phase_8,156,1,48,59,1032102500
99,9,22,Ticks_Phase_8,157,5,42,127,1032108524
99,9,22,Ticks_Phase_8,158,1,48,57,1032895320
99,9,22,Ticks_Phase_8,159,5,42,127,1032908088
99,9,22,Ticks_Phase_8,160,1,48,54,1033682980
99,9,22,Ticks_Phase_8,161,5,42,127,1033707948
99,9,22,Ticks_Phase_8,162,5,42,127,1034467680
99,9,22,Ticks_Phase_8,163,1,48,48,1034471548
99,9,22,Ticks_Phase_8,164,5,42,127,1035267540
99,9,22,Ticks_Phase_8,165,1,48,56,1035278676
99,9,22,Ticks_Phase_8,166,5,42,127,1036068152
99,9,22,Ticks_Phase_8,167,1,48,65,1036070744
99,9,22,Ticks_Phase_8,168,5,42,127,1036868088
99,9,22,Ticks_Phase_8,169,1,48,69,1036916768
99,9,22,Ticks_Phase_8,170,5,42,127,1037667648
99,9,22,Ticks_Phase_8,171,1,48,54,1037673708
99,9,22,Ticks_Phase_8,172,1,48,44,1038450644
99,9,22,Ticks_Phase_8,173,5,42,127,1038467600
99,9,22,Ticks_Phase_8,174,1,48,54,1039224812
99,9,22,Ticks_Phase_8,175,5,42,127,1039268064
99,9,22,Ticks_Phase_8,176,1,48,58,1039994572
99,9,22,Ticks_Phase_8,177,5,42,127,1040068072
99,9,22,Ticks_Phase_8,178,1,48,42,1040830688
99,9,22,Ticks_Phase_8,179,5,42,127,1040867636
99,9,22,Ticks_Phase_8,180,1,48,60,1041647324
99,9,22,Ticks_Phase_8,181,5,42,127,1041667644
99,9,22,Ticks_Phase_8,182,1,48,60,1042443732
99,9,22,Ticks_Phase_8,183,5,42,127,1042468180
99,9,22,Ticks_Phase_8,184,1,48,57,1043198148
99,9,22,Ticks_Phase_8,185,5,42,127,1043267892
99,9,22,Ticks_Phase_8,186,1,48,64,1044064424
99,9,22,Ticks_Phase_8,187,5,42,127,1044067900
99,9,22,Ticks_Phase_8,188,5,42,127,1044867568
99,9,22,Ticks_Phase_8,189,1,48,57,1044887092
99,9,22,Ticks_Phase_8,190,5,42,127,1045668180
99,9,22,Ticks_Phase_8,191,1,48,60,1045706876
99,9,22,Ticks_Phase_8,192,5,42,127,1046467892
99,9,22,Ticks_Phase_8,193,1,48,57,1046476404
99,9,22,Ticks_Phase_8,194,5,42,127,1047187700
99,9,22,Ticks_Phase_8,195,1,48,55,1047282848
99,9,22,Ticks_Phase_8,196,5,42,127,1047987708
99,9,22,Ticks_Phase_8,197,5,42,127,1048788560
99,9,22,Ticks_Phase_8,198,1,48,52,1048835944
99,9,22,Ticks_Phase_8,199,1,48,46,1049543080
99,9,22,Ticks_Phase_8,200,5,42,127,1049588044
99,9,22,Ticks_Phase_8,201,1,48,47,1050384576
99,9,22,Ticks_Phase_8,202,5,42,127,1050387908
99,9,22,Ticks_Phase_8,203,5,42,127,1051187476
99,9,22,Ticks_Phase_8,204,1,48,44,1051201600
99,9,22,Ticks_Phase_8,205,1,48,51,1051962804
99,9,22,Ticks_Phase_8,206,5,42,127,1051988600
99,9,22,Ticks_Phase_8,207,1,48,49,1052778124
99,9,22,Ticks_Phase_8,208,5,42,127,1052787964
99,9,22,Ticks_Phase_8,209,1,48,55,1053555060
99,9,22,Ticks_Phase_8,210,5,42,127,1053587972
99,9,22,Ticks_Phase_8,211,1,48,51,1054337560
99,9,22,Ticks_Phase_8,212,5,42,127,1054387536
99,9,22,Ticks_Phase_8,213,1,48,51,1055138468
99,9,22,Ticks_Phase_8,214,5,42,127,1055188664
99,9,22,Ticks_Phase_8,215,1,48,48,1055939828
99,9,22,Ticks_Phase_8,216,5,42,127,1055988008
99,9,22,Ticks_Phase_8,217,5,42,127,1056787724
99,9,22,Ticks_Phase_8,218,1,48,48,1056789136
99,9,22,Ticks_Phase_8,219,1,48,59,1057584844
99,9,22,Ticks_Phase_8,220,5,42,127,1057587504
99,9,22,Ticks_Phase_8,221,1,48,59,1058361796
99,9,22,Ticks_Phase_8,222,5,42,127,1058388412
99,9,22,Ticks_Phase_8,223,1,48,65,1059137628
99,9,22,Ticks_Phase_8,224,5,42,127,1059188148
99,9,22,Ticks_Phase_8,225,1,48,49,1059959448
99,9,22,Ticks_Phase_8,226,5,42,127,1059987788
99,9,22,Ticks_Phase_8,227,1,48,67,1060769568
99,9,22,Ticks_Phase_8,228,5,42,127,1060867388
99,9,22,Ticks_Phase_8,229,1,48,62,1061663260
99,9,22,Ticks_Phase_8,230,5,42,127,1061668236
99,9,22,Ticks_Phase_8,231,5,42,127,1062467880
99,9,22,Ticks_Phase_8,232,1,48,49,1062475408
99,9,22,Ticks_Phase_8,233,5,42,127,1063267592
99,9,22,Ticks_Phase_8,234,1,48,61,1063268556
99,9,22,Ticks_Phase_8,235,5,42,127,1064067376
99,9,22,Ticks_Phase_8,236,1,48,52,1064078060
99,9,22,Ticks_Phase_8,237,1,48,60,1064815368
99,9,22,Ticks_Phase_8,238,5,42,127,1064868352
99,9,22,Ticks_Phase_8,239,1,48,56,1065617264
99,9,22,Ticks_Phase_8,240,5,42,127,1065667840
99,9,22,Ticks_Phase_8,241,5,42,127,1066467560
99,9,22,Ticks_Phase_8,242,1,48,55,1066499212
99,9,22,Ticks_Phase_8,243,1,48,60,1067235784
99,9,22,Ticks_Phase_8,244,5,42,127,1067267416
99,9,22,Ticks_Phase_8,245,1,48,51,1067993328
99,9,22,Ticks_Phase_8,246,5,42,127,1068068468
99,9,22,Ticks_Phase_8,247,1,48,59,1068849132
99,9,22,Ticks_Phase_8,248,5,42,127,1068867808
99,9,22,Ticks_Phase_8,249,5,42,127,1069667600
99,9,22,Ticks_Phase_8,250,1,48,61,1069706624
99,9,22,Ticks_Phase_8,251,1,48,62,1070445200
99,9,22,Ticks_Phase_8,252,5,42,127,1070467408
99,9,22,Ticks_Phase_8,253,1,48,58,1071184748
99,9,22,Ticks_Phase_8,254,5,42,127,1071268384
99,9,22,Ticks_Phase_8,255,1,48,52,1071992280
99,9,22,Ticks_Phase_8,256,5,42,127,1072067952
99,9,22,Ticks_Phase_8,257,1,48,51,1072762264
99,9,22,Ticks_Phase_8,258,5,42,127,1072867796
99,9,22,Ticks_Phase_8,259,1,48,62,1073527084
99,9,22,Ticks_Phase_8,260,5,42,127,1073667508
99,9,22,Ticks_Phase_8,261,1,48,44,1074241768
99,9,22,Ticks_Phase_8,262,5,42,127,1074627956
99,9,22,Ticks_Phase_8,263,1,48,53,1075033012
99,9,22,Ticks_Phase_8,264,5,42,127,1075427740
99,9,22,Ticks_Phase_8,265,1,48,59,1075910560
99,9,22,Ticks_Phase_8,266,5,42,127,1076227452
99,9,22,Ticks_Phase_8,267,1,48,48,1076807184
99,9,22,Ticks_Phase_8,268,5,42,127,1077028432
99,9,22,Ticks_Phase_8,269,1,48,59,1077582324
99,9,22,Ticks_Phase_8,270,5,42,127,1077828072
99,9,22,Ticks_Phase_8,271,5,42,127,1078627732
99,9,22,Ticks_Phase_8,272,5,42,127,1079427416
99,9,22,Ticks_Phase_8,273,1,48,63,1079435240
99,9,22,Ticks_Phase_8,274,5,42,127,1080228320
99,9,22,Ticks_Phase_8,275,1,48,72,1080275468
99,9,22,Ticks_Phase_8,276,5,42,127,1081027884
99,9,22,Ticks_Phase_8,277,1,48,73,1081030552
99,9,22,Ticks_Phase_8,278,1,48,59,1081804260
99,9,22,Ticks_Phase_8,279,5,42,127,1081827664
99,9,22,Ticks_Phase_8,280,1,48,58,1082597396
99,9,22,Ticks_Phase_8,281,5,42,127,1082627376
99,9,22,Ticks_Phase_8,282,1,48,61,1083414768
99,9,22,Ticks_Phase_8,283,5,42,127,1083428136
99,9,22,Ticks_Phase_8,284,1,48,58,1084189100
99,9,22,Ticks_Phase_8,285,5,42,127,1084228144
99,9,22,Ticks_Phase_8,286,1,48,61,1084952640
99,9,22,Ticks_Phase_8,287,5,42,127,1085027560
99,9,22,Ticks_Phase_8,288,5,42,127,1085827452
99,9,22,Ticks_Phase_8,289,1,48,60,1085861868
99,9,22,Ticks_Phase_8,290,1,48,64,1086616796
99,9,22,Ticks_Phase_8,291,5,42,127,1086628204
99,9,22,Ticks_Phase_8,292,5,42,127,1087428144
99,9,22,Ticks_Phase_8,293,1,48,58,1087429112
99,9,22,Ticks_Phase_8,294,5,42,127,1088227632
99,9,22,Ticks_Phase_8,295,1,48,60,1088293952
99,9,22,Ticks_Phase_8,296,5,42,127,1089027420
99,9,22,Ticks_Phase_8,297,1,48,56,1089032180
99,9,22,Ticks_Phase_8,298,5,42,127,1089667544
99,9,22,Ticks_Phase_8,299,1,48,56,1089836472
99,9,22,Ticks_Phase_8,300,1,48,54,1090456288
99,9,22,Ticks_Phase_8,301,5,42,127,1090468148
99,9,22,Ticks_Phase_8,302,5,42,127,1091267940
99,9,22,Ticks_Phase_8,303,1,48,46,1091320780
99,9,22,Ticks_Phase_8,304,5,42,127,1092067580
99,9,22,Ticks_Phase_8,305,1,48,51,1092138696
99,9,22,Ticks_Phase_8,306,5,42,127,1092867440
99,9,22,Ticks_Phase_8,307,1,48,48,1092997372
99,9,22,Ticks_Phase_8,308,5,42,127,1093668348
99,9,22,Ticks_Phase_8,309,5,42,127,1094467932
99,9,22,Ticks_Phase_8,310,5,42,127,1095267888
99,9,22,Ticks_Phase_8,311,1,48,48,1095281488
99,9,22,Ticks_Phase_8,312,1,48,56,1096023648
99,9,22,Ticks_Phase_8,313,5,42,127,1096067372
99,9,22,Ticks_Phase_8,314,1,48,57,1096865024
99,9,22,Ticks_Phase_8,315,5,42,127,1096868204
99,9,22,Ticks_Phase_8,316,1,48,59,1097594268
99,9,22,Ticks_Phase_8,317,5,42,127,1097667916
99,9,22,Ticks_Phase_8,318,1,48,55,1098441836
99,9,22,Ticks_Phase_8,319,5,42,127,1098467776
99,9,22,Ticks_Phase_8,320,1,48,51,1099240272
99,9,22,Ticks_Phase_8,321,5,42,127,1099267488
99,9,22,Ticks_Phase_8,322,1,48,41,1100020292
99,9,22,Ticks_Phase_8,323,5,42,127,1100068248
99,9,22,Ticks_Phase_8,324,1,48,67,1100817160
99,9,22,Ticks_Phase_8,325,5,42,127,1100868112
99,9,22,Ticks_Phase_8,326,1,48,75,1101595832
99,9,22,Ticks_Phase_8,327,5,42,127,1101667672
99,9,22,Ticks_Phase_8,328,1,48,71,1102416132
99,9,22,Ticks_Phase_8,329,5,42,127,1102467404
99,9,22,Ticks_Phase_8,330,1,48,62,1103199736
99,9,22,Ticks_Phase_8,331,5,42,127,1103268312
99,9,22,Ticks_Phase_8,332,1,48,54,1103980448
99,9,22,Ticks_Phase_8,333,5,42,127,1104068024
99,9,22,Ticks_Phase_8,334,1,48,66,1104737080
99,9,22,Ticks_Phase_8,335,5,42,127,1104867868
99,9,22,Ticks_Phase_8,0,9999,9999,9999,969665608
99,9,22,Ticks_Phase_8,1,9999,9999,9999,970465340
99,9,22,Ticks_Phase_8,2,9999,9999,9999,971265148
99,9,22,Ticks_Phase_8,3,9999,9999,9999,972065880
99,9,22,Ticks_Phase_8,4,9999,9999,9999,972865652
99,9,22,Ticks_Phase_8,5,9999,9999,9999,973665360
99,9,22,Ticks_Phase_8,6,9999,9999,9999,974465096
99,9,22,Ticks_Phase_8,7,9999,9999,9999,975265856
99,9,22,Ticks_Phase_8,8,9999,9999,9999,976065640
99,9,22,Ticks_Phase_8,9,9999,9999,9999,976865352
99,9,22,Ticks_Phase_8,10,9999,9999,9999,977665136
99,9,22,Ticks_Phase_8,11,9999,9999,9999,978465904
99,9,22,Ticks_Phase_8,12,9999,9999,9999,979265612
99,9,22,Ticks_Phase_8,13,9999,9999,9999,980065392
99,9,22,Ticks_Phase_8,14,9999,9999,9999,980865132
99,9,22,Ticks_Phase_8,15,9999,9999,9999,981665888
99,9,22,Ticks_Phase_8,16,9999,9999,9999,982465600
99,9,22,Ticks_Phase_8,17,9999,9999,9999,983265388
99,9,22,Ticks_Phase_8,18,9999,9999,9999,984065104
99,9,22,Ticks_Phase_8,19,9999,9999,9999,984865864
99,9,22,Ticks_Phase_8,20,9999,9999,9999,985665644
99,9,22,Ticks_Phase_8,21,9999,9999,9999,986465356
99,9,22,Ticks_Phase_8,22,9999,9999,9999,987265096
99,9,22,Ticks_Phase_8,23,9999,9999,9999,988065848
99,9,22,Ticks_Phase_8,24,9999,9999,9999,988865636
99,9,22,Ticks_Phase_8,25,9999,9999,9999,989665344
99,9,22,Ticks_Phase_8,26,9999,9999,9999,990465140
99,9,22,Ticks_Phase_8,27,9999,9999,9999,991265892
99,9,22,Ticks_Phase_8,28,9999,9999,9999,992065604
99,9,22,Ticks_Phase_8,29,9999,9999,9999,992865388
99,9,22,Ticks_Phase_8,30,9999,9999,9999,993645660
99,9,22,Ticks_Phase_8,31,9999,9999,9999,994445368
99,9,22,Ticks_Phase_8,32,9999,9999,9999,995245152
99,9,22,Ticks_Phase_8,33,9999,9999,9999,996045912
99,9,22,Ticks_Phase_8,34,9999,9999,9999,996845624
99,9,22,Ticks_Phase_8,35,9999,9999,9999,997645412
99,9,22,Ticks_Phase_8,36,9999,9999,9999,998445128
99,9,22,Ticks_Phase_8,37,9999,9999,9999,999245880
99,9,22,Ticks_Phase_8,38,9999,9999,9999,1000045696
99,9,22,Ticks_Phase_8,39,9999,9999,9999,1000845404
99,9,22,Ticks_Phase_8,40,9999,9999,9999,1001645116
99,9,22,Ticks_Phase_8,41,9999,9999,9999,1002445948
99,9,22,Ticks_Phase_8,42,9999,9999,9999,1003245656
99,9,22,Ticks_Phase_8,43,9999,9999,9999,1004045376
99,9,22,Ticks_Phase_8,44,9999,9999,9999,1004845156
99,9,22,Ticks_Phase_8,45,9999,9999,9999,1005645920
99,9,22,Ticks_Phase_8,46,9999,9999,9999,1006445652
99,9,22,Ticks_Phase_8,47,9999,9999,9999,1007245436
99,9,22,Ticks_Phase_8,48,9999,9999,9999,1008065592
99,9,22,Ticks_Phase_8,49,9999,9999,9999,1008865388
99,9,22,Ticks_Phase_8,50,9999,9999,9999,1009665100
99,9,22,Ticks_Phase_8,51,9999,9999,9999,1010465848
99,9,22,Ticks_Phase_8,52,9999,9999,9999,1011265636
99,9,22,Ticks_Phase_8,53,9999,9999,9999,1012065356
99,9,22,Ticks_Phase_8,54,9999,9999,9999,1012865092
99,9,22,Ticks_Phase_8,55,9999,9999,9999,1013665852
99,9,22,Ticks_Phase_8,56,9999,9999,9999,1014465632
99,9,22,Ticks_Phase_8,57,9999,9999,9999,1015265344
99,9,22,Ticks_Phase_8,58,9999,9999,9999,1016065128
99,9,22,Ticks_Phase_8,59,9999,9999,9999,1016865888
99,9,22,Ticks_Phase_8,60,9999,9999,9999,1017665600
99,9,22,Ticks_Phase_8,61,9999,9999,9999,1018465392
99,9,22,Ticks_Phase_8,62,9999,9999,9999,1019265120
99,9,22,Ticks_Phase_8,63,9999,9999,9999,1020065880
99,9,22,Ticks_Phase_8,64,9999,9999,9999,1020905584
99,9,22,Ticks_Phase_8,65,9999,9999,9999,1021705300
99,9,22,Ticks_Phase_8,66,9999,9999,9999,1022506060
99,9,22,Ticks_Phase_8,67,9999,9999,9999,1023305840
99,9,22,Ticks_Phase_8,68,9999,9999,9999,1024105576
99,9,22,Ticks_Phase_8,69,9999,9999,9999,1024905292
99,9,22,Ticks_Phase_8,70,9999,9999,9999,1025706056
99,9,22,Ticks_Phase_8,71,9999,9999,9999,1026505844
99,9,22,Ticks_Phase_8,72,9999,9999,9999,1027305548
99,9,22,Ticks_Phase_8,73,9999,9999,9999,1028105336
99,9,22,Ticks_Phase_8,74,9999,9999,9999,1028906096
99,9,22,Ticks_Phase_8,75,9999,9999,9999,1029705808
99,9,22,Ticks_Phase_8,76,9999,9999,9999,1030505544
99,9,22,Ticks_Phase_8,77,9999,9999,9999,1031305328
99,9,22,Ticks_Phase_8,78,9999,9999,9999,1032106088
99,9,22,Ticks_Phase_8,79,9999,9999,9999,1032905800
99,9,22,Ticks_Phase_8,80,9999,9999,9999,1033705584
99,9,22,Ticks_Phase_8,81,9999,9999,9999,1034465388
99,9,22,Ticks_Phase_8,82,9999,9999,9999,1035265104
99,9,22,Ticks_Phase_8,83,9999,9999,9999,1036065860
99,9,22,Ticks_Phase_8,84,9999,9999,9999,1036865648
99,9,22,Ticks_Phase_8,85,9999,9999,9999,1037665360
99,9,22,Ticks_Phase_8,86,9999,9999,9999,1038465088
99,9,22,Ticks_Phase_8,87,9999,9999,9999,1039265848
99,9,22,Ticks_Phase_8,88,9999,9999,9999,1040065636
99,9,22,Ticks_Phase_8,89,9999,9999,9999,1040865348
99,9,22,Ticks_Phase_8,90,9999,9999,9999,1041665132
99,9,22,Ticks_Phase_8,91,9999,9999,9999,1042465892
99,9,22,Ticks_Phase_8,92,9999,9999,9999,1043265604
99,9,22,Ticks_Phase_8,93,9999,9999,9999,1044065388
99,9,22,Ticks_Phase_8,94,9999,9999,9999,1044865132
99,9,22,Ticks_Phase_8,95,9999,9999,9999,1045665888
99,9,22,Ticks_Phase_8,96,9999,9999,9999,1046465600
99,9,22,Ticks_Phase_8,97,9999,9999,9999,1047185484
99,9,22,Ticks_Phase_8,98,9999,9999,9999,1047985268
99,9,22,Ticks_Phase_8,99,9999,9999,9999,1048785976
99,9,22,Ticks_Phase_8,100,9999,9999,9999,1049585756
99,9,22,Ticks_Phase_8,101,9999,9999,9999,1050385468
99,9,22,Ticks_Phase_8,102,9999,9999,9999,1051185260
99,9,22,Ticks_Phase_8,103,9999,9999,9999,1051986012
99,9,22,Ticks_Phase_8,104,9999,9999,9999,1052785748
99,9,22,Ticks_Phase_8,105,9999,9999,9999,1053585536
99,9,22,Ticks_Phase_8,106,9999,9999,9999,1054385248
99,9,22,Ticks_Phase_8,107,9999,9999,9999,1055186004
99,9,22,Ticks_Phase_8,108,9999,9999,9999,1055985720
99,9,22,Ticks_Phase_8,109,9999,9999,9999,1056785508
99,9,22,Ticks_Phase_8,110,9999,9999,9999,1057585216
99,9,22,Ticks_Phase_8,111,9999,9999,9999,1058385976
99,9,22,Ticks_Phase_8,112,9999,9999,9999,1059185784
99,9,22,Ticks_Phase_8,113,9999,9999,9999,1059985496
99,9,22,Ticks_Phase_8,114,9999,9999,9999,1060865100
99,9,22,Ticks_Phase_8,115,9999,9999,9999,1061665872
99,9,22,Ticks_Phase_8,116,9999,9999,9999,1062465592
99,9,22,Ticks_Phase_8,117,9999,9999,9999,1063265376
99,9,22,Ticks_Phase_8,118,9999,9999,9999,1064065088
99,9,22,Ticks_Phase_8,119,9999,9999,9999,1064865916
99,9,22,Ticks_Phase_8,120,9999,9999,9999,1065665628
99,9,22,Ticks_Phase_8,121,9999,9999,9999,1066465344
99,9,22,Ticks_Phase_8,122,9999,9999,9999,1067265124
99,9,22,Ticks_Phase_8,123,9999,9999,9999,1068065884
99,9,22,Ticks_Phase_8,124,9999,9999,9999,1068865596
99,9,22,Ticks_Phase_8,125,9999,9999,9999,1069665388
99,9,22,Ticks_Phase_8,126,9999,9999,9999,1070465116
99,9,22,Ticks_Phase_8,127,9999,9999,9999,1071265876
99,9,22,Ticks_Phase_8,128,9999,9999,9999,1072065660
99,9,22,Ticks_Phase_8,129,9999,9999,9999,1072865360
99,9,22,Ticks_Phase_8,130,9999,9999,9999,1073665144
99,9,22,Ticks_Phase_8,131,9999,9999,9999,1074625664
99,9,22,Ticks_Phase_8,132,9999,9999,9999,1075425376
99,9,22,Ticks_Phase_8,133,9999,9999,9999,1076225088
99,9,22,Ticks_Phase_8,134,9999,9999,9999,1077025848
99,9,22,Ticks_Phase_8,135,9999,9999,9999,1077825632
99,9,22,Ticks_Phase_8,136,9999,9999,9999,1078625368
99,9,22,Ticks_Phase_8,137,9999,9999,9999,1079425124
99,9,22,Ticks_Phase_8,138,9999,9999,9999,1080225884
99,9,22,Ticks_Phase_8,139,9999,9999,9999,1081025596
99,9,22,Ticks_Phase_8,140,9999,9999,9999,1081825376
99,9,22,Ticks_Phase_8,141,9999,9999,9999,1082625088
99,9,22,Ticks_Phase_8,142,9999,9999,9999,1083425848
99,9,22,Ticks_Phase_8,143,9999,9999,9999,1084225632
99,9,22,Ticks_Phase_8,144,9999,9999,9999,1085025344
99,9,22,Ticks_Phase_8,145,9999,9999,9999,1085825088
99,9,22,Ticks_Phase_8,146,9999,9999,9999,1086625916
99,9,22,Ticks_Phase_8,147,9999,9999,9999,1087425632
99,9,22,Ticks_Phase_8,148,9999,9999,9999,1088225344
99,9,22,Ticks_Phase_8,149,9999,9999,9999,1089025128
99,9,22,Ticks_Phase_8,150,9999,9999,9999,1089665108
99,9,22,Ticks_Phase_8,151,9999,9999,9999,1090465860
99,9,22,Ticks_Phase_8,152,9999,9999,9999,1091265652
99,9,22,Ticks_Phase_8,153,9999,9999,9999,1092065364
99,9,22,Ticks_Phase_8,154,9999,9999,9999,1092865152
99,9,22,Ticks_Phase_8,155,9999,9999,9999,1093665908
99,9,22,Ticks_Phase_8,156,9999,9999,9999,1094465644
99,9,22,Ticks_Phase_8,157,9999,9999,9999,1095265376
99,9,22,Ticks_Phase_8,158,9999,9999,9999,1096065080
99,9,22,Ticks_Phase_8,159,9999,9999,9999,1096865916
99,9,22,Ticks_Phase_8,160,9999,9999,9999,1097665628
99,9,22,Ticks_Phase_8,161,9999,9999,9999,1098465340
99,9,22,Ticks_Phase_8,162,9999,9999,9999,1099265124
99,9,22,Ticks_Phase_8,163,9999,9999,9999,1100065884
99,9,22,Ticks_Phase_8,164,9999,9999,9999,1100865600
99,9,22,Ticks_Phase_8,165,9999,9999,9999,1101665384
99,9,22,Ticks_Phase_8,166,9999,9999,9999,1102465116
99,9,22,Ticks_Phase_8,167,9999,9999,9999,1103265876
99,9,22,Ticks_Phase_8,168,9999,9999,9999,1104065660
99,9,22,Ticks_Phase_8,169,9999,9999,9999,1104865356
99,10,23,Ticks_Phase_5,0,5,42,127,1115165032
99,10,23,Ticks_Phase_5,1,5,42,127,1115664820
99,10,23,Ticks_Phase_5,2,5,42,127,1116164456
99,10,23,Ticks_Phase_5,3,5,42,127,1116665136
99,10,23,Ticks_Phase_5,4,1,48,61,1116682104
99,10,23,Ticks_Phase_5,5,5,42,127,1117164900
99,10,23,Ticks_Phase_5,6,1,48,73,1117170788
99,10,23,Ticks_Phase_5,7,1,48,78,1117659004
99,10,23,Ticks_Phase_5,8,5,42,127,1117664580
99,10,23,Ticks_Phase_5,9,5,42,127,1118165324
99,10,23,Ticks_Phase_5,10,1,48,76,1118168444
99,10,23,Ticks_Phase_5,11,1,48,27,1118264956
99,10,23,Ticks_Phase_5,12,1,48,74,1118661728
99,10,23,Ticks_Phase_5,13,5,42,127,1118665132
99,10,23,Ticks_Phase_5,14,5,42,127,1119164752
99,10,23,Ticks_Phase_5,15,1,48,82,1119167500
99,10,23,Ticks_Phase_5,16,5,42,127,1119664664
99,10,23,Ticks_Phase_5,17,1,48,80,1119670328
99,10,23,Ticks_Phase_5,18,1,48,68,1120142756
99,10,23,Ticks_Phase_5,19,5,42,127,1120165168
99,10,23,Ticks_Phase_5,20,1,48,73,1120642664
99,10,23,Ticks_Phase_5,21,5,42,127,1120664856
99,10,23,Ticks_Phase_5,22,1,48,67,1121115888
99,10,23,Ticks_Phase_5,23,5,42,127,1121164768
99,10,23,Ticks_Phase_5,24,1,48,71,1121651464
99,10,23,Ticks_Phase_5,25,5,42,127,1121665280
99,10,23,Ticks_Phase_5,26,1,48,72,1122145144
99,10,23,Ticks_Phase_5,27,5,42,127,1122165040
99,10,23,Ticks_Phase_5,28,1,48,68,1122643632
99,10,23,Ticks_Phase_5,29,5,42,127,1122664804
99,10,23,Ticks_Phase_5,30,1,48,66,1123130060
99,10,23,Ticks_Phase_5,31,5,42,127,1123164688
99,10,23,Ticks_Phase_5,32,1,48,57,1123647124
99,10,23,Ticks_Phase_5,33,5,42,127,1123665128
99,10,23,Ticks_Phase_5,34,1,48,58,1124116488
99,10,23,Ticks_Phase_5,35,5,42,127,1124164964
99,10,23,Ticks_Phase_5,36,1,48,63,1124655268
99,10,23,Ticks_Phase_5,37,5,42,127,1124664580
99,10,23,Ticks_Phase_5,38,5,42,127,1125165692
99,10,23,Ticks_Phase_5,39,1,48,73,1125171880
99,10,23,Ticks_Phase_5,40,1,48,84,1125664672
99,10,23,Ticks_Phase_5,41,5,42,127,1125675336
99,10,23,Ticks_Phase_5,42,5,42,127,1126174960
99,10,23,Ticks_Phase_5,43,1,48,73,1126179644
99,10,23,Ticks_Phase_5,44,5,42,127,1126674792
99,10,23,Ticks_Phase_5,45,1,48,73,1126687052
99,10,23,Ticks_Phase_5,46,5,42,127,1127174556
99,10,23,Ticks_Phase_5,47,1,48,72,1127194600
99,10,23,Ticks_Phase_5,48,1,48,70,1127673548
99,10,23,Ticks_Phase_5,49,5,42,127,1127675212
99,10,23,Ticks_Phase_5,50,1,48,77,1128167680
99,10,23,Ticks_Phase_5,51,5,42,127,1128174896
99,10,23,Ticks_Phase_5,52,1,48,72,1128658380
99,10,23,Ticks_Phase_5,53,5,42,127,1128674664
99,10,23,Ticks_Phase_5,54,1,48,62,1129170648
99,10,23,Ticks_Phase_5,55,5,42,127,1129175920
99,10,23,Ticks_Phase_5,56,1,48,67,1129673276
99,10,23,Ticks_Phase_5,57,5,42,127,1129675088
99,10,23,Ticks_Phase_5,58,5,42,127,1130164972
99,10,23,Ticks_Phase_5,59,1,48,67,1130175060
99,10,23,Ticks_Phase_5,60,1,48,60,1130657136
99,10,23,Ticks_Phase_5,61,5,42,127,1130665400
99,10,23,Ticks_Phase_5,62,5,42,127,1131165096
99,10,23,Ticks_Phase_5,63,1,48,61,1131176752
99,10,23,Ticks_Phase_5,64,5,42,127,1131664712
99,10,23,Ticks_Phase_5,65,1,48,67,1131669852
99,10,23,Ticks_Phase_5,66,1,48,61,1132139124
99,10,23,Ticks_Phase_5,67,5,42,127,1132164692
99,10,23,Ticks_Phase_5,68,1,48,69,1132635200
99,10,23,Ticks_Phase_5,69,5,42,127,1132665056
99,10,23,Ticks_Phase_5,70,1,48,70,1133128744
99,10,23,Ticks_Phase_5,71,5,42,127,1133164964
99,10,23,Ticks_Phase_5,72,1,48,81,1133647900
99,10,23,Ticks_Phase_5,73,5,42,127,1133664700
99,10,23,Ticks_Phase_5,74,1,48,76,1134160612
99,10,23,Ticks_Phase_5,75,5,42,127,1134165512
99,10,23,Ticks_Phase_5,76,1,48,75,1134661568
99,10,23,Ticks_Phase_5,77,5,42,127,1134665052
99,10,23,Ticks_Phase_5,78,5,42,127,1135164744
99,10,23,Ticks_Phase_5,79,1,48,83,1135195500
99,10,23,Ticks_Phase_5,80,5,42,127,1135664656
99,10,23,Ticks_Phase_5,81,1,48,77,1135675944
99,10,23,Ticks_Phase_5,82,1,48,77,1136144316
99,10,23,Ticks_Phase_5,83,5,42,127,1136165312
99,10,23,Ticks_Phase_5,84,1,48,70,1136662884
99,10,23,Ticks_Phase_5,85,5,42,127,1136664852
99,10,23,Ticks_Phase_5,86,1,48,64,1137160240
99,10,23,Ticks_Phase_5,87,5,42,127,1137164616
99,10,23,Ticks_Phase_5,88,5,42,127,1137665428
99,10,23,Ticks_Phase_5,89,1,48,29,1137760584
99,10,23,Ticks_Phase_5,90,5,42,127,1138165044
99,10,23,Ticks_Phase_5,91,1,48,45,1138293032
99,10,23,Ticks_Phase_5,92,5,42,127,1138664804
99,10,23,Ticks_Phase_5,93,1,48,59,1138807992
99,10,23,Ticks_Phase_5,94,5,42,127,1139174756
99,10,23,Ticks_Phase_5,95,5,42,127,1139674616
99,10,23,Ticks_Phase_5,96,1,48,54,1139776740
99,10,23,Ticks_Phase_5,97,5,42,127,1140175348
99,10,23,Ticks_Phase_5,98,1,48,60,1140219504
99,10,23,Ticks_Phase_5,99,5,42,127,1140675036
99,10,23,Ticks_Phase_5,100,1,48,59,1140700696
99,10,23,Ticks_Phase_5,101,5,42,127,1141174576
99,10,23,Ticks_Phase_5,102,1,48,54,1141177624
99,10,23,Ticks_Phase_5,103,5,42,127,1141675388
99,10,23,Ticks_Phase_5,104,1,48,57,1141744560
99,10,23,Ticks_Phase_5,105,5,42,127,1142175300
99,10,23,Ticks_Phase_5,106,1,48,55,1142197968
99,10,23,Ticks_Phase_5,107,1,48,42,1142665444
99,10,23,Ticks_Phase_5,108,5,42,127,1142674756
99,10,23,Ticks_Phase_5,109,5,42,127,1143174600
99,10,23,Ticks_Phase_5,110,5,42,127,1143675360
99,10,23,Ticks_Phase_5,111,1,48,50,1143683652
99,10,23,Ticks_Phase_5,112,1,48,53,1144173840
99,10,23,Ticks_Phase_5,113,5,42,127,1144175412
99,10,23,Ticks_Phase_5,114,5,42,127,1144674636
99,10,23,Ticks_Phase_5,115,1,48,32,1144711524
99,10,23,Ticks_Phase_5,116,1,48,49,1145149476
99,10,23,Ticks_Phase_5,117,5,42,127,1145175488
99,10,23,Ticks_Phase_5,118,5,42,127,1145675108
99,10,23,Ticks_Phase_5,119,1,48,49,1145803096
99,10,23,Ticks_Phase_5,120,5,42,127,1146174720
99,10,23,Ticks_Phase_5,121,1,48,43,1146353036
99,10,23,Ticks_Phase_5,122,5,42,127,1146674484
99,10,23,Ticks_Phase_5,123,1,48,48,1146727204
99,10,23,Ticks_Phase_5,124,5,42,127,1147194616
99,10,23,Ticks_Phase_5,125,1,48,51,1147220944
99,10,23,Ticks_Phase_5,126,5,42,127,1147694528
99,10,23,Ticks_Phase_5,127,1,48,57,1147708056
99,10,23,Ticks_Phase_5,128,5,42,127,1148195264
99,10,23,Ticks_Phase_5,129,1,48,62,1148199876
99,10,23,Ticks_Phase_5,130,1,48,65,1148695172
99,10,23,Ticks_Phase_5,131,5,42,127,1148696360
99,10,23,Ticks_Phase_5,132,5,42,127,1149194568
99,10,23,Ticks_Phase_5,133,1,48,61,1149195532
99,10,23,Ticks_Phase_5,134,1,48,65,1149686724
99,10,23,Ticks_Phase_5,135,5,42,127,1149695444
99,10,23,Ticks_Phase_5,136,5,42,127,1150195140
99,10,23,Ticks_Phase_5,137,1,48,63,1150206276
99,10,23,Ticks_Phase_5,138,5,42,127,1150694756
99,10,23,Ticks_Phase_5,139,1,48,63,1150700648
99,10,23,Ticks_Phase_5,140,5,42,127,1151194592
99,10,23,Ticks_Phase_5,141,1,48,70,1151203488
99,10,23,Ticks_Phase_5,142,5,42,127,1151695404
99,10,23,Ticks_Phase_5,143,1,48,65,1151739856
99,10,23,Ticks_Phase_5,144,1,48,55,1152180896
99,10,23,Ticks_Phase_5,145,5,42,127,1152194784
99,10,23,Ticks_Phase_5,146,1,48,61,1152671224
99,10,23,Ticks_Phase_5,147,5,42,127,1152694700
99,10,23,Ticks_Phase_5,148,1,48,61,1153153700
99,10,23,Ticks_Phase_5,149,5,42,127,1153195436
99,10,23,Ticks_Phase_5,150,5,42,127,1153695128
99,10,23,Ticks_Phase_5,151,1,48,57,1153714052
99,10,23,Ticks_Phase_5,152,5,42,127,1154194744
99,10,23,Ticks_Phase_5,153,1,48,62,1154201452
99,10,23,Ticks_Phase_5,154,1,48,55,1154677320
99,10,23,Ticks_Phase_5,155,5,42,127,1154694500
99,10,23,Ticks_Phase_5,156,5,42,127,1155195240
99,10,23,Ticks_Phase_5,157,1,48,57,1155218732
99,10,23,Ticks_Phase_5,158,5,42,127,1155674464
99,10,23,Ticks_Phase_5,159,1,48,58,1155717376
99,10,23,Ticks_Phase_5,160,5,42,127,1156175196
99,10,23,Ticks_Phase_5,161,1,48,51,1156179884
99,10,23,Ticks_Phase_5,162,1,48,57,1156667212
99,10,23,Ticks_Phase_5,163,5,42,127,1156674880
99,10,23,Ticks_Phase_5,164,1,48,56,1157148104
99,10,23,Ticks_Phase_5,165,5,42,127,1157174644
99,10,23,Ticks_Phase_5,166,5,42,127,1157675456
99,10,23,Ticks_Phase_5,167,1,48,63,1157678132
99,10,23,Ticks_Phase_5,168,1,48,66,1158141852
99,10,23,Ticks_Phase_5,169,5,42,127,1158175212
99,10,23,Ticks_Phase_5,170,5,42,127,1158674684
99,10,23,Ticks_Phase_5,171,1,48,53,1158689936
99,10,23,Ticks_Phase_5,172,1,48,58,1159143564
99,10,23,Ticks_Phase_5,173,5,42,127,1159174588
99,10,23,Ticks_Phase_5,174,1,48,59,1159657320
99,10,23,Ticks_Phase_5,175,5,42,127,1159675400
99,10,23,Ticks_Phase_5,176,1,48,56,1160111476
99,10,23,Ticks_Phase_5,177,5,42,127,1160174936
99,10,23,Ticks_Phase_5,178,1,48,53,1160609820
99,10,23,Ticks_Phase_5,179,5,42,127,1160674628
99,10,23,Ticks_Phase_5,180,1,48,65,1161117000
99,10,23,Ticks_Phase_5,181,5,42,127,1161175360
99,10,23,Ticks_Phase_5,182,1,48,73,1161613692
99,10,23,Ticks_Phase_5,183,5,42,127,1161675344
99,10,23,Ticks_Phase_5,184,1,48,70,1162138384
99,10,23,Ticks_Phase_5,185,5,42,127,1162174812
99,10,23,Ticks_Phase_5,186,1,48,56,1162619576
99,10,23,Ticks_Phase_5,187,5,42,127,1162674648
99,10,23,Ticks_Phase_5,188,1,48,78,1163153572
99,10,23,Ticks_Phase_5,189,5,42,127,1163175236
99,10,23,Ticks_Phase_5,190,5,42,127,1163624684
99,10,23,Ticks_Phase_5,191,1,48,72,1163644284
99,10,23,Ticks_Phase_5,192,5,42,127,1164124496
99,10,23,Ticks_Phase_5,193,1,48,73,1164144796
99,10,23,Ticks_Phase_5,194,5,42,127,1164625160
99,10,23,Ticks_Phase_5,195,1,48,71,1164630300
99,10,23,Ticks_Phase_5,196,1,48,59,1165111628
99,10,23,Ticks_Phase_5,197,5,42,127,1165124916
99,10,23,Ticks_Phase_5,198,1,48,82,1165610416
99,10,23,Ticks_Phase_5,199,5,42,127,1165624676
99,10,23,Ticks_Phase_5,200,1,48,61,1166093640
99,10,23,Ticks_Phase_5,201,5,42,127,1166125412
99,10,23,Ticks_Phase_5,202,1,48,66,1166617504
99,10,23,Ticks_Phase_5,203,5,42,127,1166635360
99,10,23,Ticks_Phase_5,204,1,48,75,1167116600
99,10,23,Ticks_Phase_5,205,5,42,127,1167135196
99,10,23,Ticks_Phase_5,206,1,48,76,1167608792
99,10,23,Ticks_Phase_5,207,5,42,127,1167634812
99,10,23,Ticks_Phase_5,208,1,48,62,1168069092
99,10,23,Ticks_Phase_5,209,5,42,127,1168134572
99,10,23,Ticks_Phase_5,210,1,48,75,1168571992
99,10,23,Ticks_Phase_5,211,5,42,127,1168635308
99,10,23,Ticks_Phase_5,212,1,48,72,1169065844
99,10,23,Ticks_Phase_5,213,5,42,127,1169135072
99,10,23,Ticks_Phase_5,214,1,48,77,1169601996
99,10,23,Ticks_Phase_5,215,5,42,127,1169634536
99,10,23,Ticks_Phase_5,216,1,48,78,1170103720
99,10,23,Ticks_Phase_5,217,5,42,127,1170135344
99,10,23,Ticks_Phase_5,218,1,48,81,1170589844
99,10,23,Ticks_Phase_5,219,5,42,127,1170635256
99,10,23,Ticks_Phase_5,220,1,48,76,1171093732
99,10,23,Ticks_Phase_5,221,5,42,127,1171134796
99,10,23,Ticks_Phase_5,222,1,48,51,1171582696
99,10,23,Ticks_Phase_5,223,5,42,127,1171634412
99,10,23,Ticks_Phase_5,224,1,48,78,1172093632
99,10,23,Ticks_Phase_5,225,5,42,127,1172184348
99,10,23,Ticks_Phase_5,226,1,48,74,1172646940
99,10,23,Ticks_Phase_5,227,5,42,127,1172685232
99,10,23,Ticks_Phase_5,228,1,48,73,1173168640
99,10,23,Ticks_Phase_5,229,5,42,127,1173185072
99,10,23,Ticks_Phase_5,230,1,48,59,1173674772
99,10,23,Ticks_Phase_5,231,5,42,127,1173684536
99,10,23,Ticks_Phase_5,232,1,48,62,1174178204
99,10,23,Ticks_Phase_5,233,5,42,127,1174185344
99,10,23,Ticks_Phase_5,234,5,42,127,1174685264
99,10,23,Ticks_Phase_5,235,1,48,55,1174722304
99,10,23,Ticks_Phase_5,236,5,42,127,1175185028
99,10,23,Ticks_Phase_5,237,1,48,48,1175194364
99,10,23,Ticks_Phase_5,238,1,48,57,1175667308
99,10,23,Ticks_Phase_5,239,5,42,127,1175684412
99,10,23,Ticks_Phase_5,240,1,48,59,1176178596
99,10,23,Ticks_Phase_5,241,5,42,127,1176185144
99,10,23,Ticks_Phase_5,242,5,42,127,1176685064
99,10,23,Ticks_Phase_5,243,1,48,54,1176713652
99,10,23,Ticks_Phase_5,244,5,42,127,1177184652
99,10,23,Ticks_Phase_5,245,1,48,47,1177196936
99,10,23,Ticks_Phase_5,246,1,48,62,1177630904
99,10,23,Ticks_Phase_5,247,5,42,127,1177685232
99,10,23,Ticks_Phase_5,248,1,48,53,1178138456
99,10,23,Ticks_Phase_5,249,5,42,127,1178185292
99,10,23,Ticks_Phase_5,250,1,48,66,1178646456
99,10,23,Ticks_Phase_5,251,5,42,127,1178685056
99,10,23,Ticks_Phase_5,252,1,48,62,1179142412
99,10,23,Ticks_Phase_5,253,5,42,127,1179184444
99,10,23,Ticks_Phase_5,254,1,48,60,1179635328
99,10,23,Ticks_Phase_5,255,5,42,127,1179685304
99,10,23,Ticks_Phase_5,256,1,48,57,1180160100
99,10,23,Ticks_Phase_5,257,5,42,127,1180185216
99,10,23,Ticks_Phase_5,258,1,48,60,1180663016
99,10,23,Ticks_Phase_5,259,5,42,127,1180784968
99,10,23,Ticks_Phase_5,260,1,48,58,1181237060
99,10,23,Ticks_Phase_5,261,5,42,127,1181284668
99,10,23,Ticks_Phase_5,262,5,42,127,1181784412
99,10,23,Ticks_Phase_5,263,1,48,53,1181841392
99,10,23,Ticks_Phase_5,264,1,48,56,1182279120
99,10,23,Ticks_Phase_5,265,5,42,127,1182285068
99,10,23,Ticks_Phase_5,266,1,48,59,1182747956
99,10,23,Ticks_Phase_5,267,5,42,127,1182784980
99,10,23,Ticks_Phase_5,268,1,48,59,1183245996
99,10,23,Ticks_Phase_5,269,5,42,127,1183284444
99,10,23,Ticks_Phase_5,270,1,48,75,1183722308
99,10,23,Ticks_Phase_5,271,5,42,127,1183785328
99,10,23,Ticks_Phase_5,272,1,48,69,1184247764
99,10,23,Ticks_Phase_5,273,5,42,127,1184285016
99,10,23,Ticks_Phase_5,274,1,48,54,1184765656
99,10,23,Ticks_Phase_5,275,5,42,127,1184784780
99,10,23,Ticks_Phase_5,276,1,48,56,1185255464
99,10,23,Ticks_Phase_5,277,5,42,127,1185284320
99,10,23,Ticks_Phase_5,278,1,48,54,1185725492
99,10,23,Ticks_Phase_5,279,5,42,127,1185785204
99,10,23,Ticks_Phase_5,280,1,48,62,1186281260
99,10,23,Ticks_Phase_5,281,5,42,127,1186284892
99,10,23,Ticks_Phase_5,282,1,48,51,1186761780
99,10,23,Ticks_Phase_5,283,5,42,127,1186784728
99,10,23,Ticks_Phase_5,284,1,48,57,1187264392
99,10,23,Ticks_Phase_5,285,5,42,127,1187285316
99,10,23,Ticks_Phase_5,286,1,48,52,1187747528
99,10,23,Ticks_Phase_5,287,5,42,127,1187785004
99,10,23,Ticks_Phase_5,288,1,48,40,1188218384
99,10,23,Ticks_Phase_5,289,5,42,127,1188284916
99,10,23,Ticks_Phase_5,290,1,48,49,1188751696
99,10,23,Ticks_Phase_5,291,5,42,127,1188784752
99,10,23,Ticks_Phase_5,292,1,48,57,1189246372
99,10,23,Ticks_Phase_5,293,5,42,127,1189285116
99,10,23,Ticks_Phase_5,294,1,48,45,1189748832
99,10,23,Ticks_Phase_5,295,5,42,127,1189785032
99,10,23,Ticks_Phase_5,296,5,42,127,1190185400
99,10,23,Ticks_Phase_5,297,1,48,49,1190256172
99,10,23,Ticks_Phase_5,298,5,42,127,1190684940
99,10,23,Ticks_Phase_5,299,1,48,42,1190713604
99,10,23,Ticks_Phase_5,300,1,48,46,1191140928
99,10,23,Ticks_Phase_5,301,5,42,127,1191184844
99,10,23,Ticks_Phase_5,302,1,48,45,1191633880
99,10,23,Ticks_Phase_5,303,5,42,127,1191684608
99,10,23,Ticks_Phase_5,304,1,48,48,1192161120
99,10,23,Ticks_Phase_5,305,5,42,127,1192185340
99,10,23,Ticks_Phase_5,306,1,48,55,1192629208
99,10,23,Ticks_Phase_5,307,5,42,127,1192684884
99,10,23,Ticks_Phase_5,308,1,48,48,1193159672
99,10,23,Ticks_Phase_5,309,5,42,127,1193184720
99,10,23,Ticks_Phase_5,310,1,48,57,1193643716
99,10,23,Ticks_Phase_5,311,5,42,127,1193685304
99,10,23,Ticks_Phase_5,312,1,48,42,1194132776
99,10,23,Ticks_Phase_5,313,5,42,127,1194185068
99,10,23,Ticks_Phase_5,314,1,48,40,1194641736
99,10,23,Ticks_Phase_5,315,5,42,127,1194684832
99,10,23,Ticks_Phase_5,316,1,48,60,1195144652
99,10,23,Ticks_Phase_5,317,5,42,127,1195184448
99,10,23,Ticks_Phase_5,318,1,48,59,1195646732
99,10,23,Ticks_Phase_5,319,5,42,127,1195685108
99,10,23,Ticks_Phase_5,320,1,48,74,1196143808
99,10,23,Ticks_Phase_5,321,5,42,127,1196184796
99,10,23,Ticks_Phase_5,322,1,48,79,1196634260
99,10,23,Ticks_Phase_5,323,5,42,127,1196684780
99,10,23,Ticks_Phase_5,324,1,48,78,1197133876
99,10,23,Ticks_Phase_5,325,5,42,127,1197185888
99,10,23,Ticks_Phase_5,326,1,48,67,1197662232
99,10,23,Ticks_Phase_5,327,5,42,127,1197685056
99,10,23,Ticks_Phase_5,328,1,48,65,1198148144
99,10,23,Ticks_Phase_5,329,5,42,127,1198184744
99,10,23,Ticks_Phase_5,330,1,48,60,1198655848
99,10,23,Ticks_Phase_5,331,5,42,127,1198684556
99,10,23,Ticks_Phase_5,332,1,48,65,1199131940
99,10,23,Ticks_Phase_5,333,5,42,127,1199185292
99,10,23,Ticks_Phase_5,334,1,48,70,1199665560
99,10,23,Ticks_Phase_5,335,5,42,127,1199684832
99,10,23,Ticks_Phase_5,0,9999,9999,9999,1115162748
99,10,23,Ticks_Phase_5,1,9999,9999,9999,1115662456
99,10,23,Ticks_Phase_5,2,9999,9999,9999,1116162168
99,10,23,Ticks_Phase_5,3,9999,9999,9999,1116662848
99,10,23,Ticks_Phase_5,4,9999,9999,9999,1117162612
99,10,23,Ticks_Phase_5,5,9999,9999,9999,1117662296
99,10,23,Ticks_Phase_5,6,9999,9999,9999,1118163036
99,10,23,Ticks_Phase_5,7,9999,9999,9999,1118662772
99,10,23,Ticks_Phase_5,8,9999,9999,9999,1119162464
99,10,23,Ticks_Phase_5,9,9999,9999,9999,1119662156
99,10,23,Ticks_Phase_5,10,9999,9999,9999,1120162880
99,10,23,Ticks_Phase_5,11,9999,9999,9999,1120662644
99,10,23,Ticks_Phase_5,12,9999,9999,9999,1121162332
99,10,23,Ticks_Phase_5,13,9999,9999,9999,1121663064
99,10,23,Ticks_Phase_5,14,9999,9999,9999,1122162756
99,10,23,Ticks_Phase_5,15,9999,9999,9999,1122662516
99,10,23,Ticks_Phase_5,16,9999,9999,9999,1123162180
99,10,23,Ticks_Phase_5,17,9999,9999,9999,1123662916
99,10,23,Ticks_Phase_5,18,9999,9999,9999,1124162680
99,10,23,Ticks_Phase_5,19,9999,9999,9999,1124662368
99,10,23,Ticks_Phase_5,20,9999,9999,9999,1125163108
99,10,23,Ticks_Phase_5,21,9999,9999,9999,1125673048
99,10,23,Ticks_Phase_5,22,9999,9999,9999,1126172748
99,10,23,Ticks_Phase_5,23,9999,9999,9999,1126672508
99,10,23,Ticks_Phase_5,24,9999,9999,9999,1127172196
99,10,23,Ticks_Phase_5,25,9999,9999,9999,1127672948
99,10,23,Ticks_Phase_5,26,9999,9999,9999,1128172612
99,10,23,Ticks_Phase_5,27,9999,9999,9999,1128672376
99,10,23,Ticks_Phase_5,28,9999,9999,9999,1129173112
99,10,23,Ticks_Phase_5,29,9999,9999,9999,1129672824
99,10,23,Ticks_Phase_5,30,9999,9999,9999,1130162236
99,10,23,Ticks_Phase_5,31,9999,9999,9999,1130662964
99,10,23,Ticks_Phase_5,32,9999,9999,9999,1131162736
99,10,23,Ticks_Phase_5,33,9999,9999,9999,1131662428
99,10,23,Ticks_Phase_5,34,9999,9999,9999,1132162108
99,10,23,Ticks_Phase_5,35,9999,9999,9999,1132662844
99,10,23,Ticks_Phase_5,36,9999,9999,9999,1133162604
99,10,23,Ticks_Phase_5,37,9999,9999,9999,1133662268
99,10,23,Ticks_Phase_5,38,9999,9999,9999,1134163004
99,10,23,Ticks_Phase_5,39,9999,9999,9999,1134662764
99,10,23,Ticks_Phase_5,40,9999,9999,9999,1135162460
99,10,23,Ticks_Phase_5,41,9999,9999,9999,1135662148
99,10,23,Ticks_Phase_5,42,9999,9999,9999,1136162876
99,10,23,Ticks_Phase_5,43,9999,9999,9999,1136662604
99,10,23,Ticks_Phase_5,44,9999,9999,9999,1137162328
99,10,23,Ticks_Phase_5,45,9999,9999,9999,1137663068
99,10,23,Ticks_Phase_5,46,9999,9999,9999,1138162756
99,10,23,Ticks_Phase_5,47,9999,9999,9999,1138662520
99,10,23,Ticks_Phase_5,48,9999,9999,9999,1139172468
99,10,23,Ticks_Phase_5,49,9999,9999,9999,1139672180
99,10,23,Ticks_Phase_5,50,9999,9999,9999,1140172912
99,10,23,Ticks_Phase_5,51,9999,9999,9999,1140672600
99,10,23,Ticks_Phase_5,52,9999,9999,9999,1141172288
99,10,23,Ticks_Phase_5,53,9999,9999,9999,1141673024
99,10,23,Ticks_Phase_5,54,9999,9999,9999,1142172788
99,10,23,Ticks_Phase_5,55,9999,9999,9999,1142672472
99,10,23,Ticks_Phase_5,56,9999,9999,9999,1143172164
99,10,23,Ticks_Phase_5,57,9999,9999,9999,1143672924
99,10,23,Ticks_Phase_5,58,9999,9999,9999,1144172608
99,10,23,Ticks_Phase_5,59,9999,9999,9999,1144672348
99,10,23,Ticks_Phase_5,60,9999,9999,9999,1145173052
99,10,23,Ticks_Phase_5,61,9999,9999,9999,1145672820
99,10,23,Ticks_Phase_5,62,9999,9999,9999,1146172508
99,10,23,Ticks_Phase_5,63,9999,9999,9999,1146672196
99,10,23,Ticks_Phase_5,64,9999,9999,9999,1147192404
99,10,23,Ticks_Phase_5,65,9999,9999,9999,1147692092
99,10,23,Ticks_Phase_5,66,9999,9999,9999,1148192828
99,10,23,Ticks_Phase_5,67,9999,9999,9999,1148692588
99,10,23,Ticks_Phase_5,68,9999,9999,9999,1149192280
99,10,23,Ticks_Phase_5,69,9999,9999,9999,1149693008
99,10,23,Ticks_Phase_5,70,9999,9999,9999,1150192704
99,10,23,Ticks_Phase_5,71,9999,9999,9999,1150692468
99,10,23,Ticks_Phase_5,72,9999,9999,9999,1151192160
99,10,23,Ticks_Phase_5,73,9999,9999,9999,1151692892
99,10,23,Ticks_Phase_5,74,9999,9999,9999,1152192572
99,10,23,Ticks_Phase_5,75,9999,9999,9999,1152692336
99,10,23,Ticks_Phase_5,76,9999,9999,9999,1153193076
99,10,23,Ticks_Phase_5,77,9999,9999,9999,1153692768
99,10,23,Ticks_Phase_5,78,9999,9999,9999,1154192456
99,10,23,Ticks_Phase_5,79,9999,9999,9999,1154692216
99,10,23,Ticks_Phase_5,80,9999,9999,9999,1155192956
99,10,23,Ticks_Phase_5,81,9999,9999,9999,1155672176
99,10,23,Ticks_Phase_5,82,9999,9999,9999,1156172908
99,10,23,Ticks_Phase_5,83,9999,9999,9999,1156672592
99,10,23,Ticks_Phase_5,84,9999,9999,9999,1157172284
99,10,23,Ticks_Phase_5,85,9999,9999,9999,1157673024
99,10,23,Ticks_Phase_5,86,9999,9999,9999,1158172780
99,10,23,Ticks_Phase_5,87,9999,9999,9999,1158672472
99,10,23,Ticks_Phase_5,88,9999,9999,9999,1159172152
99,10,23,Ticks_Phase_5,89,9999,9999,9999,1159672888
99,10,23,Ticks_Phase_5,90,9999,9999,9999,1160172652
99,10,23,Ticks_Phase_5,91,9999,9999,9999,1160672340
99,10,23,Ticks_Phase_5,92,9999,9999,9999,1161173076
99,10,23,Ticks_Phase_5,93,9999,9999,9999,1161672764
99,10,23,Ticks_Phase_5,94,9999,9999,9999,1162172528
99,10,23,Ticks_Phase_5,95,9999,9999,9999,1162672212
99,10,23,Ticks_Phase_5,96,9999,9999,9999,1163172948
99,10,23,Ticks_Phase_5,97,9999,9999,9999,1163622472
99,10,23,Ticks_Phase_5,98,9999,9999,9999,1164122208
99,10,23,Ticks_Phase_5,99,9999,9999,9999,1164622948
99,10,23,Ticks_Phase_5,100,9999,9999,9999,1165122628
99,10,23,Ticks_Phase_5,101,9999,9999,9999,1165622392
99,10,23,Ticks_Phase_5,102,9999,9999,9999,1166123128
99,10,23,Ticks_Phase_5,103,9999,9999,9999,1166633072
99,10,23,Ticks_Phase_5,104,9999,9999,9999,1167132760
99,10,23,Ticks_Phase_5,105,9999,9999,9999,1167632452
99,10,23,Ticks_Phase_5,106,9999,9999,9999,1168132212
99,10,23,Ticks_Phase_5,107,9999,9999,9999,1168632948
99,10,23,Ticks_Phase_5,108,9999,9999,9999,1169132636
99,10,23,Ticks_Phase_5,109,9999,9999,9999,1169632324
99,10,23,Ticks_Phase_5,110,9999,9999,9999,1170133060
99,10,23,Ticks_Phase_5,111,9999,9999,9999,1170632820
99,10,23,Ticks_Phase_5,112,9999,9999,9999,1171132508
99,10,23,Ticks_Phase_5,113,9999,9999,9999,1171632196
99,10,23,Ticks_Phase_5,114,9999,9999,9999,1172182136
99,10,23,Ticks_Phase_5,115,9999,9999,9999,1172682872
99,10,23,Ticks_Phase_5,116,9999,9999,9999,1173182560
99,10,23,Ticks_Phase_5,117,9999,9999,9999,1173682248
99,10,23,Ticks_Phase_5,118,9999,9999,9999,1174182984
99,10,23,Ticks_Phase_5,119,9999,9999,9999,1174682680
99,10,23,Ticks_Phase_5,120,9999,9999,9999,1175182440
99,10,23,Ticks_Phase_5,121,9999,9999,9999,1175682124
99,10,23,Ticks_Phase_5,122,9999,9999,9999,1176182860
99,10,23,Ticks_Phase_5,123,9999,9999,9999,1176682556
99,10,23,Ticks_Phase_5,124,9999,9999,9999,1177182292
99,10,23,Ticks_Phase_5,125,9999,9999,9999,1177683020
99,10,23,Ticks_Phase_5,126,9999,9999,9999,1178182780
99,10,23,Ticks_Phase_5,127,9999,9999,9999,1178682472
99,10,23,Ticks_Phase_5,128,9999,9999,9999,1179182156
99,10,23,Ticks_Phase_5,129,9999,9999,9999,1179682944
99,10,23,Ticks_Phase_5,130,9999,9999,9999,1180182632
99,10,23,Ticks_Phase_5,131,9999,9999,9999,1180782676
99,10,23,Ticks_Phase_5,132,9999,9999,9999,1181282384
99,10,23,Ticks_Phase_5,133,9999,9999,9999,1181782128
99,10,23,Ticks_Phase_5,134,9999,9999,9999,1182282856
99,10,23,Ticks_Phase_5,135,9999,9999,9999,1182782544
99,10,23,Ticks_Phase_5,136,9999,9999,9999,1183282232
99,10,23,Ticks_Phase_5,137,9999,9999,9999,1183782964
99,10,23,Ticks_Phase_5,138,9999,9999,9999,1184282732
99,10,23,Ticks_Phase_5,139,9999,9999,9999,1184782420
99,10,23,Ticks_Phase_5,140,9999,9999,9999,1185282108
99,10,23,Ticks_Phase_5,141,9999,9999,9999,1185782840
99,10,23,Ticks_Phase_5,142,9999,9999,9999,1186282604
99,10,23,Ticks_Phase_5,143,9999,9999,9999,1186782292
99,10,23,Ticks_Phase_5,144,9999,9999,9999,1187283028
99,10,23,Ticks_Phase_5,145,9999,9999,9999,1187782716
99,10,23,Ticks_Phase_5,146,9999,9999,9999,1188282480
99,10,23,Ticks_Phase_5,147,9999,9999,9999,1188782168
99,10,23,Ticks_Phase_5,148,9999,9999,9999,1189282904
99,10,23,Ticks_Phase_5,149,9999,9999,9999,1189782596
99,10,23,Ticks_Phase_5,150,9999,9999,9999,1190183040
99,10,23,Ticks_Phase_5,151,9999,9999,9999,1190682728
99,10,23,Ticks_Phase_5,152,9999,9999,9999,1191182408
99,10,23,Ticks_Phase_5,153,9999,9999,9999,1191682172
99,10,23,Ticks_Phase_5,154,9999,9999,9999,1192182908
99,10,23,Ticks_Phase_5,155,9999,9999,9999,1192682596
99,10,23,Ticks_Phase_5,156,9999,9999,9999,1193182284
99,10,23,Ticks_Phase_5,157,9999,9999,9999,1193683020
99,10,23,Ticks_Phase_5,158,9999,9999,9999,1194182784
99,10,23,Ticks_Phase_5,159,9999,9999,9999,1194682472
99,10,23,Ticks_Phase_5,160,9999,9999,9999,1195182160
99,10,23,Ticks_Phase_5,161,9999,9999,9999,1195682896
99,10,23,Ticks_Phase_5,162,9999,9999,9999,1196182584
99,10,23,Ticks_Phase_5,163,9999,9999,9999,1196682344
99,10,23,Ticks_Phase_5,164,9999,9999,9999,1197183080
99,10,23,Ticks_Phase_5,165,9999,9999,9999,1197682768
99,10,23,Ticks_Phase_5,166,9999,9999,9999,1198182460
99,10,23,Ticks_Phase_5,167,9999,9999,9999,1198682196
99,10,23,Ticks_Phase_5,168,9999,9999,9999,1199182932
99,10,23,Ticks_Phase_5,169,9999,9999,9999,1199682620
99,11,25,Jits_Pract_5,0,5,56,103,1247777104
99,11,25,Jits_Pract_5,1,5,63,98,1247780196
99,11,25,Jits_Pract_5,2,5,80,127,1247783320
99,11,25,Jits_Pract_5,0,5,56,103,1248277052
99,11,25,Jits_Pract_5,1,5,63,98,1248280080
99,11,25,Jits_Pract_5,2,5,80,127,1248283272
99,11,25,Jits_Pract_5,0,5,56,103,1248776572
99,11,25,Jits_Pract_5,1,5,80,127,1248786768
99,11,25,Jits_Pract_5,2,5,63,98,1248807376
99,11,25,Jits_Pract_5,0,5,63,98,1249227092
99,11,25,Jits_Pract_5,1,5,80,127,1249256992
99,11,25,Jits_Pract_5,2,5,56,103,1249267116
99,11,25,Jits_Pract_5,0,5,80,127,1249787208
99,11,25,Jits_Pract_5,1,5,56,103,1249796432
99,11,25,Jits_Pract_5,2,5,63,98,1249827152
99,11,25,Jits_Pract_5,0,5,63,98,1250276912
99,11,25,Jits_Pract_5,1,5,56,103,1250306292
99,11,25,Jits_Pract_5,2,5,80,127,1250317084
99,11,25,Jits_Pract_5,0,5,56,103,1250727276
99,11,25,Jits_Pract_5,1,5,63,98,1250776432
99,11,25,Jits_Pract_5,2,5,80,127,1250796888
99,11,25,Jits_Pract_5,0,5,80,127,1251226944
99,11,25,Jits_Pract_5,1,5,63,98,1251277296
99,11,25,Jits_Pract_5,2,5,56,103,1251317308
99,11,25,Jits_Pract_5,0,5,56,103,1251726836
99,11,25,Jits_Pract_5,1,5,63,98,1251757484
99,11,25,Jits_Pract_5,2,5,80,127,1251827240
99,11,25,Jits_Pract_5,0,5,56,103,1252226284
99,11,25,Jits_Pract_5,1,5,80,127,1252287048
99,11,25,Jits_Pract_5,2,5,63,98,1252316500
99,11,25,Jits_Pract_5,0,5,56,103,1252737412
99,11,25,Jits_Pract_5,1,5,63,98,1252746564
99,11,25,Jits_Pract_5,2,5,80,127,1252786500
99,11,25,Jits_Pract_5,0,5,63,98,1253226964
99,11,25,Jits_Pract_5,1,5,80,127,1253306688
99,11,25,Jits_Pract_5,2,5,56,103,1253317332
99,11,25,Jits_Pract_5,0,5,63,98,1253776820
99,11,25,Jits_Pract_5,1,5,56,103,1253816760
99,11,25,Jits_Pract_5,2,5,80,127,1253820048
99,11,25,Jits_Pract_5,0,5,56,103,1254236516
99,11,25,Jits_Pract_5,1,5,63,98,1254246884
99,11,25,Jits_Pract_5,2,5,80,127,1254286820
99,11,25,Jits_Pract_5,0,5,56,103,1254727036
99,11,25,Jits_Pract_5,1,5,63,98,1254730028
99,11,25,Jits_Pract_5,2,5,80,127,1254746524
99,11,25,Jits_Pract_5,0,9999,9999,9999,1248024688
99,11,25,Jits_Pract_5,1,9999,9999,9999,1248524340
99,11,25,Jits_Pract_5,2,9999,9999,9999,1249024088
99,11,25,Jits_Pract_5,3,9999,9999,9999,1249524800
99,11,25,Jits_Pract_5,4,9999,9999,9999,1250024536
99,11,25,Jits_Pract_5,5,9999,9999,9999,1250524284
99,11,25,Jits_Pract_5,6,9999,9999,9999,1251024984
99,11,25,Jits_Pract_5,7,9999,9999,9999,1251524732
99,11,25,Jits_Pract_5,8,9999,9999,9999,1252024396
99,11,25,Jits_Pract_5,9,9999,9999,9999,1252524144
99,11,25,Jits_Pract_5,10,9999,9999,9999,1253024856
99,11,25,Jits_Pract_5,11,9999,9999,9999,1253524528
99,11,25,Jits_Pract_5,12,9999,9999,9999,1254024256
99,11,25,Jits_Pract_5,13,9999,9999,9999,1254525028
99,11,25,Jits_Pract_5,14,9999,9999,9999,1255024760
99,12,24,Jits_Pract_8,0,5,56,103,1313117536
99,12,24,Jits_Pract_8,1,5,63,98,1313120704
99,12,24,Jits_Pract_8,2,5,80,127,1313123828
99,12,24,Jits_Pract_8,0,5,56,103,1313918444
99,12,24,Jits_Pract_8,1,5,63,98,1313921696
99,12,24,Jits_Pract_8,2,5,80,127,1313924592
99,12,24,Jits_Pract_8,0,5,80,127,1314657716
99,12,24,Jits_Pract_8,1,1,48,69,1314719720
99,12,24,Jits_Pract_8,2,5,63,98,1314747696
99,12,24,Jits_Pract_8,3,5,56,103,1314758040
99,12,24,Jits_Pract_8,0,5,56,103,1315478012
99,12,24,Jits_Pract_8,1,5,63,98,1315488136
99,12,24,Jits_Pract_8,2,1,48,65,1315508112
99,12,24,Jits_Pract_8,3,5,80,127,1315578332
99,12,24,Jits_Pract_8,0,5,63,98,1316248112
99,12,24,Jits_Pract_8,1,5,80,127,1316277636
99,12,24,Jits_Pract_8,2,1,48,64,1316284048
99,12,24,Jits_Pract_8,3,5,56,103,1316308280
99,12,24,Jits_Pract_8,0,1,48,67,1317046356
99,12,24,Jits_Pract_8,1,5,56,103,1317047780
99,12,24,Jits_Pract_8,2,5,80,127,1317148236
99,12,24,Jits_Pract_8,3,5,63,98,1317198140
99,12,24,Jits_Pract_8,0,5,56,103,1317848296
99,12,24,Jits_Pract_8,1,1,48,66,1317865188
99,12,24,Jits_Pract_8,2,5,80,127,1317897520
99,12,24,Jits_Pract_8,3,5,63,98,1317937532
99,12,24,Jits_Pract_8,0,1,48,63,1318657400
99,12,24,Jits_Pract_8,1,5,80,127,1318677800
99,12,24,Jits_Pract_8,2,5,63,98,1318707476
99,12,24,Jits_Pract_8,3,5,56,103,1318778212
99,12,24,Jits_Pract_8,0,5,63,98,1319508356
99,12,24,Jits_Pract_8,1,1,48,61,1319509396
99,12,24,Jits_Pract_8,2,5,56,103,1319538196
99,12,24,Jits_Pract_8,3,5,80,127,1319597316
99,12,24,Jits_Pract_8,0,5,56,103,1320247572
99,12,24,Jits_Pract_8,1,5,80,127,1320250716
99,12,24,Jits_Pract_8,2,1,48,59,1320330952
99,12,24,Jits_Pract_8,3,5,63,98,1320367468
99,12,24,Jits_Pract_8,0,1,48,57,1321049328
99,12,24,Jits_Pract_8,1,5,56,103,1321128196
99,12,24,Jits_Pract_8,2,5,80,127,1321168192
99,12,24,Jits_Pract_8,3,5,63,98,1321177716
99,12,24,Jits_Pract_8,0,1,48,62,1321876764
99,12,24,Jits_Pract_8,1,5,56,103,1321888024
99,12,24,Jits_Pract_8,2,5,80,127,1321907656
99,12,24,Jits_Pract_8,3,5,63,98,1321987508
99,12,24,Jits_Pract_8,0,5,80,127,1322677596
99,12,24,Jits_Pract_8,1,1,48,65,1322684376
99,12,24,Jits_Pract_8,2,5,56,103,1322778136
99,12,24,Jits_Pract_8,3,5,63,98,1322788168
99,12,24,Jits_Pract_8,0,5,63,98,1323447776
99,12,24,Jits_Pract_8,1,5,80,127,1323508096
99,12,24,Jits_Pract_8,2,1,48,48,1323516092
99,12,24,Jits_Pract_8,3,5,56,103,1323518208
99,12,24,Jits_Pract_8,0,1,48,49,1324243888
99,12,24,Jits_Pract_8,1,5,56,103,1324248644
99,12,24,Jits_Pract_8,2,5,63,98,1324317948
99,12,24,Jits_Pract_8,3,5,80,127,1324321392
99,12,24,Jits_Pract_8,0,9999,9999,9999,1313515612
99,12,24,Jits_Pract_8,1,9999,9999,9999,1314315328
99,12,24,Jits_Pract_8,2,9999,9999,9999,1315115116
99,12,24,Jits_Pract_8,3,9999,9999,9999,1315915856
99,12,24,Jits_Pract_8,4,9999,9999,9999,1316715572
99,12,24,Jits_Pract_8,5,9999,9999,9999,1317515332
99,12,24,Jits_Pract_8,6,9999,9999,9999,1318315084
99,12,24,Jits_Pract_8,7,9999,9999,9999,1319115828
99,12,24,Jits_Pract_8,8,9999,9999,9999,1319915588
99,12,24,Jits_Pract_8,9,9999,9999,9999,1320715328
99,12,24,Jits_Pract_8,10,9999,9999,9999,1321515104
99,12,24,Jits_Pract_8,11,9999,9999,9999,1322315832
99,12,24,Jits_Pract_8,12,9999,9999,9999,1323115620
99,12,24,Jits_Pract_8,13,9999,9999,9999,1323915312
99,12,24,Jits_Pract_8,14,9999,9999,9999,1324715060
99,13,25,Jits_Pract_5,0,5,56,103,1333421380
99,13,25,Jits_Pract_5,1,5,63,98,1333424476
99,13,25,Jits_Pract_5,2,5,80,127,1333427748
99,13,25,Jits_Pract_5,0,5,56,103,1333922076
99,13,25,Jits_Pract_5,1,5,63,98,1333925172
99,13,25,Jits_Pract_5,2,5,80,127,1333928296
99,13,25,Jits_Pract_5,0,5,56,103,1334421892
99,13,25,Jits_Pract_5,1,5,80,127,1334432088
99,13,25,Jits_Pract_5,2,5,63,98,1334451500
99,13,25,Jits_Pract_5,0,1,48,44,1334859832
99,13,25,Jits_Pract_5,1,5,63,98,1334872304
99,13,25,Jits_Pract_5,2,5,80,127,1334902080
99,13,25,Jits_Pract_5,3,5,56,103,1334912352
99,13,25,Jits_Pract_5,0,1,48,48,1335359440
99,13,25,Jits_Pract_5,1,5,80,127,1335431728
99,13,25,Jits_Pract_5,2,5,56,103,1335441852
99,13,25,Jits_Pract_5,3,5,63,98,1335471584
99,13,25,Jits_Pract_5,0,5,63,98,1335922068
99,13,25,Jits_Pract_5,1,1,48,62,1335933060
99,13,25,Jits_Pract_5,2,5,56,103,1335951660
99,13,25,Jits_Pract_5,3,5,80,127,1335962080
99,13,25,Jits_Pract_5,0,5,56,103,1336371540
99,13,25,Jits_Pract_5,1,5,63,98,1336421840
99,13,25,Jits_Pract_5,2,5,80,127,1336442076
99,13,25,Jits_Pract_5,3,1,48,57,1336457996
99,13,25,Jits_Pract_5,0,5,80,127,1336872436
99,13,25,Jits_Pract_5,1,5,63,98,1336921368
99,13,25,Jits_Pract_5,2,1,48,63,1336922336
99,13,25,Jits_Pract_5,3,5,56,103,1336962572
99,13,25,Jits_Pract_5,0,5,56,103,1337371964
99,13,25,Jits_Pract_5,1,5,63,98,1337401936
99,13,25,Jits_Pract_5,2,1,48,62,1337428276
99,13,25,Jits_Pract_5,3,5,80,127,1337472308
99,13,25,Jits_Pract_5,0,5,56,103,1337871816
99,13,25,Jits_Pract_5,1,1,48,59,1337900936
99,13,25,Jits_Pract_5,2,5,80,127,1337932124
99,13,25,Jits_Pract_5,3,5,63,98,1337961824
99,13,25,Jits_Pract_5,0,5,56,103,1338381784
99,13,25,Jits_Pract_5,1,5,63,98,1338392056
99,13,25,Jits_Pract_5,2,1,48,55,1338412112
99,13,25,Jits_Pract_5,3,5,80,127,1338431764
99,13,25,Jits_Pract_5,0,5,63,98,1338872272
99,13,25,Jits_Pract_5,1,1,48,51,1338912480
99,13,25,Jits_Pract_5,2,5,80,127,1338951988
99,13,25,Jits_Pract_5,3,5,56,103,1338962480
99,13,25,Jits_Pract_5,0,1,48,59,1339411500
99,13,25,Jits_Pract_5,1,5,63,98,1339422008
99,13,25,Jits_Pract_5,2,5,56,103,1339462020
99,13,25,Jits_Pract_5,3,5,80,127,1339464940
99,13,25,Jits_Pract_5,0,5,56,103,1339881844
99,13,25,Jits_Pract_5,1,5,63,98,1339892036
99,13,25,Jits_Pract_5,2,1,48,56,1339917928
99,13,25,Jits_Pract_5,3,5,80,127,1339931896
99,13,25,Jits_Pract_5,0,5,56,103,1340372704
99,13,25,Jits_Pract_5,1,5,63,98,1340375692
99,13,25,Jits_Pract_5,2,5,80,127,1340391740
99,13,25,Jits_Pract_5,3,1,48,59,1340409088
99,13,25,Jits_Pract_5,0,9999,9999,9999,1333670012
99,13,25,Jits_Pract_5,1,9999,9999,9999,1334169660
99,13,25,Jits_Pract_5,2,9999,9999,9999,1334669404
99,13,25,Jits_Pract_5,3,9999,9999,9999,1335169124
99,13,25,Jits_Pract_5,4,9999,9999,9999,1335669868
99,13,25,Jits_Pract_5,5,9999,9999,9999,1336169560
99,13,25,Jits_Pract_5,6,9999,9999,9999,1336669252
99,13,25,Jits_Pract_5,7,9999,9999,9999,1337170024
99,13,25,Jits_Pract_5,8,9999,9999,9999,1337669724
99,13,25,Jits_Pract_5,9,9999,9999,9999,1338169432
99,13,25,Jits_Pract_5,10,9999,9999,9999,1338669132
99,13,25,Jits_Pract_5,11,9999,9999,9999,1339169888
99,13,25,Jits_Pract_5,12,9999,9999,9999,1339669576
99,13,25,Jits_Pract_5,13,9999,9999,9999,1340169340
99,13,25,Jits_Pract_5,14,9999,9999,9999,1340670004
99,14,7,Jits_ISO_8,0,5,56,103,1367225704
99,14,7,Jits_ISO_8,1,5,63,98,1367228652
99,14,7,Jits_ISO_8,2,5,80,127,1367231852
99,14,7,Jits_ISO_8,0,5,56,103,1368025404
99,14,7,Jits_ISO_8,1,5,63,98,1368028428
99,14,7,Jits_ISO_8,2,5,80,127,1368031700
99,14,7,Jits_ISO_8,0,5,80,127,1368765852
99,14,7,Jits_ISO_8,1,5,63,98,1368855916
99,14,7,Jits_ISO_8,2,1,48,74,1368863372
99,14,7,Jits_ISO_8,3,5,56,103,1368866104
99,14,7,Jits_ISO_8,0,5,56,103,1369586180
99,14,7,Jits_ISO_8,1,5,63,98,1369596452
99,14,7,Jits_ISO_8,2,1,48,72,1369635536
99,14,7,Jits_ISO_8,3,5,80,127,1369686428
99,14,7,Jits_ISO_8,0,5,63,98,1370356280
99,14,7,Jits_ISO_8,1,5,80,127,1370385736
99,14,7,Jits_ISO_8,2,1,48,72,1370386704
99,14,7,Jits_ISO_8,3,5,56,103,1370415404
99,14,7,Jits_ISO_8,0,1,48,75,1371155984
99,14,7,Jits_ISO_8,1,5,56,103,1371157400
99,14,7,Jits_ISO_8,2,5,80,127,1371256164
99,14,7,Jits_ISO_8,3,5,63,98,1371306368
99,14,7,Jits_ISO_8,0,5,56,103,1371955476
99,14,7,Jits_ISO_8,1,1,48,62,1371986616
99,14,7,Jits_ISO_8,2,5,80,127,1372005848
99,14,7,Jits_ISO_8,3,5,63,98,1372045784
99,14,7,Jits_ISO_8,0,1,48,72,1372754120
99,14,7,Jits_ISO_8,1,5,80,127,1372785932
99,14,7,Jits_ISO_8,2,5,63,98,1372815756
99,14,7,Jits_ISO_8,3,5,56,103,1372886324
99,14,7,Jits_ISO_8,0,1,48,73,1373584724
99,14,7,Jits_ISO_8,1,5,63,98,1373615464
99,14,7,Jits_ISO_8,2,5,56,103,1373646408
99,14,7,Jits_ISO_8,3,5,80,127,1373705516
99,14,7,Jits_ISO_8,0,5,56,103,1374355840
99,14,7,Jits_ISO_8,1,5,80,127,1374358684
99,14,7,Jits_ISO_8,2,1,48,76,1374378068
99,14,7,Jits_ISO_8,3,5,63,98,1374476592
99,14,7,Jits_ISO_8,0,1,48,71,1375125104
99,14,7,Jits_ISO_8,1,5,56,103,1375235476
99,14,7,Jits_ISO_8,2,5,80,127,1375276392
99,14,7,Jits_ISO_8,3,5,63,98,1375285616
99,14,7,Jits_ISO_8,0,1,48,67,1375942044
99,14,7,Jits_ISO_8,1,5,56,103,1375996248
99,14,7,Jits_ISO_8,2,5,80,127,1376015588
99,14,7,Jits_ISO_8,3,5,63,98,1376095468
99,14,7,Jits_ISO_8,0,5,80,127,1376785852
99,14,7,Jits_ISO_8,1,1,48,76,1376791592
99,14,7,Jits_ISO_8,2,5,56,103,1376886344
99,14,7,Jits_ISO_8,3,5,63,98,1376896380
99,14,7,Jits_ISO_8,0,5,63,98,1377555760
99,14,7,Jits_ISO_8,1,1,48,67,1377584512
99,14,7,Jits_ISO_8,2,5,80,127,1377616372
99,14,7,Jits_ISO_8,3,5,56,103,1377625472
99,14,7,Jits_ISO_8,0,1,48,80,1378350856
99,14,7,Jits_ISO_8,1,5,56,103,1378355536
99,14,7,Jits_ISO_8,2,5,63,98,1378426216
99,14,7,Jits_ISO_8,3,5,80,127,1378429652
99,14,7,Jits_ISO_8,0,1,48,68,1379126588
99,14,7,Jits_ISO_8,1,5,63,98,1379186048
99,14,7,Jits_ISO_8,2,5,56,103,1379236464
99,14,7,Jits_ISO_8,3,5,80,127,1379239376
99,14,7,Jits_ISO_8,0,5,56,103,1379945820
99,14,7,Jits_ISO_8,1,5,80,127,1379948960
99,14,7,Jits_ISO_8,2,1,48,78,1379987896
99,14,7,Jits_ISO_8,3,5,63,98,1380036168
99,14,7,Jits_ISO_8,0,1,48,68,1380732148
99,14,7,Jits_ISO_8,1,5,63,98,1380785380
99,14,7,Jits_ISO_8,2,5,56,103,1380875504
99,14,7,Jits_ISO_8,3,5,80,127,1380906372
99,14,7,Jits_ISO_8,0,5,56,103,1381576180
99,14,7,Jits_ISO_8,1,1,48,71,1381581468
99,14,7,Jits_ISO_8,2,5,63,98,1381676352
99,14,7,Jits_ISO_8,3,5,80,127,1381706232
99,14,7,Jits_ISO_8,0,5,63,98,1382396216
99,14,7,Jits_ISO_8,1,5,56,103,1382405512
99,14,7,Jits_ISO_8,2,1,48,67,1382412372
99,14,7,Jits_ISO_8,3,5,80,127,1382495588
99,14,7,Jits_ISO_8,0,1,48,69,1383137308
99,14,7,Jits_ISO_8,1,5,63,98,1383215476
99,14,7,Jits_ISO_8,2,5,56,103,1383296328
99,14,7,Jits_ISO_8,3,5,80,127,1383299468
99,14,7,Jits_ISO_8,0,5,80,127,1383976448
99,14,7,Jits_ISO_8,1,1,48,71,1383993896
99,14,7,Jits_ISO_8,2,5,63,98,1383995708
99,14,7,Jits_ISO_8,3,5,56,103,1384056344
99,14,7,Jits_ISO_8,0,1,48,67,1384780032
99,14,7,Jits_ISO_8,1,5,56,103,1384816196
99,14,7,Jits_ISO_8,2,5,63,98,1384835536
99,14,7,Jits_ISO_8,3,5,80,127,1384838748
99,14,7,Jits_ISO_8,0,1,48,71,1385505708
99,14,7,Jits_ISO_8,1,5,63,98,1385556304
99,14,7,Jits_ISO_8,2,5,80,127,1385636188
99,14,7,Jits_ISO_8,3,5,56,103,1385645336
99,14,7,Jits_ISO_8,0,1,48,82,1386337804
99,14,7,Jits_ISO_8,1,5,63,98,1386375592
99,14,7,Jits_ISO_8,2,5,56,103,1386396128
99,14,7,Jits_ISO_8,3,5,80,127,1386446240
99,14,7,Jits_ISO_8,0,1,48,90,1387114740
99,14,7,Jits_ISO_8,1,5,80,127,1387176272
99,14,7,Jits_ISO_8,2,5,63,98,1387216196
99,14,7,Jits_ISO_8,3,5,56,103,1387235756
99,14,7,Jits_ISO_8,0,1,48,84,1387934152
99,14,7,Jits_ISO_8,1,5,56,103,1388016060
99,14,7,Jits_ISO_8,2,5,63,98,1388026688
99,14,7,Jits_ISO_8,3,5,80,127,1388045732
99,14,7,Jits_ISO_8,0,1,48,87,1388717968
99,14,7,Jits_ISO_8,1,5,56,103,1388746312
99,14,7,Jits_ISO_8,2,5,63,98,1388836064
99,14,7,Jits_ISO_8,3,5,80,127,1388895656
99,14,7,Jits_ISO_8,0,1,48,77,1389565336
99,14,7,Jits_ISO_8,1,5,80,127,1389575620
99,14,7,Jits_ISO_8,2,5,56,103,1389585892
99,14,7,Jits_ISO_8,3,5,63,98,1389656424
99,14,7,Jits_ISO_8,0,1,48,73,1390349224
99,14,7,Jits_ISO_8,1,5,63,98,1390406120
99,14,7,Jits_ISO_8,2,5,80,127,1390496268
99,14,7,Jits_ISO_8,3,5,56,103,1390506388
99,14,7,Jits_ISO_8,0,5,63,98,1391146280
99,14,7,Jits_ISO_8,1,1,48,72,1391192272
99,14,7,Jits_ISO_8,2,5,80,127,1391195528
99,14,7,Jits_ISO_8,3,5,56,103,1391256140
99,14,7,Jits_ISO_8,0,1,48,74,1391933200
99,14,7,Jits_ISO_8,1,5,56,103,1391975748
99,14,7,Jits_ISO_8,2,5,80,127,1392026084
99,14,7,Jits_ISO_8,3,5,63,98,1392045496
99,14,7,Jits_ISO_8,0,1,48,77,1392713896
99,14,7,Jits_ISO_8,1,5,56,103,1392746156
99,14,7,Jits_ISO_8,2,5,80,127,1392807132
99,14,7,Jits_ISO_8,3,5,63,98,1392876288
99,14,7,Jits_ISO_8,0,1,48,74,1393494104
99,14,7,Jits_ISO_8,1,5,56,103,1393545564
99,14,7,Jits_ISO_8,2,5,80,127,1393576212
99,14,7,Jits_ISO_8,3,5,63,98,1393606020
99,14,7,Jits_ISO_8,0,1,48,72,1394277656
99,14,7,Jits_ISO_8,1,5,56,103,1394386304
99,14,7,Jits_ISO_8,2,5,80,127,1394405792
99,14,7,Jits_ISO_8,3,5,63,98,1394466108
99,14,7,Jits_ISO_8,0,1,48,74,1395075868
99,14,7,Jits_ISO_8,1,5,80,127,1395265960
99,14,7,Jits_ISO_8,2,5,56,103,1395276080
99,14,7,Jits_ISO_8,3,5,63,98,1395286428
99,14,7,Jits_ISO_8,0,1,48,52,1395840116
99,14,7,Jits_ISO_8,1,5,56,103,1396025644
99,14,7,Jits_ISO_8,2,5,80,127,1396065608
99,14,7,Jits_ISO_8,3,5,63,98,1396096332
99,14,7,Jits_ISO_8,0,1,48,76,1396701932
99,14,7,Jits_ISO_8,1,5,56,103,1396796204
99,14,7,Jits_ISO_8,2,5,63,98,1396825312
99,14,7,Jits_ISO_8,3,5,80,127,1396866448
99,14,7,Jits_ISO_8,0,5,80,127,1397546488
99,14,7,Jits_ISO_8,1,1,48,82,1397569688
99,14,7,Jits_ISO_8,2,5,63,98,1397595440
99,14,7,Jits_ISO_8,3,5,56,103,1397616196
99,14,7,Jits_ISO_8,0,1,48,70,1398333424
99,14,7,Jits_ISO_8,1,5,56,103,1398375968
99,14,7,Jits_ISO_8,2,5,80,127,1398445340
99,14,7,Jits_ISO_8,3,5,63,98,1398506028
99,14,7,Jits_ISO_8,0,1,48,73,1399155956
99,14,7,Jits_ISO_8,1,5,80,127,1399175532
99,14,7,Jits_ISO_8,2,5,63,98,1399265728
99,14,7,Jits_ISO_8,3,5,56,103,1399286112
99,14,7,Jits_ISO_8,0,5,63,98,1399996080
99,14,7,Jits_ISO_8,1,5,56,103,1400016168
99,14,7,Jits_ISO_8,2,1,48,62,1400021156
99,14,7,Jits_ISO_8,3,5,80,127,1400056248
99,14,7,Jits_ISO_8,0,5,80,127,1400755556
99,14,7,Jits_ISO_8,1,1,48,67,1400771404
99,14,7,Jits_ISO_8,2,5,63,98,1400776012
99,14,7,Jits_ISO_8,3,5,56,103,1400856028
99,14,7,Jits_ISO_8,0,1,48,69,1401546360
99,14,7,Jits_ISO_8,1,5,63,98,1401547548
99,14,7,Jits_ISO_8,2,5,56,103,1401655876
99,14,7,Jits_ISO_8,3,5,80,127,1401658944
99,14,7,Jits_ISO_8,0,5,63,98,1402366288
99,14,7,Jits_ISO_8,1,5,56,103,1402375512
99,14,7,Jits_ISO_8,2,5,80,127,1402378728
99,14,7,Jits_ISO_8,3,1,48,61,1402390540
99,14,7,Jits_ISO_8,0,5,56,103,1403145528
99,14,7,Jits_ISO_8,1,1,48,64,1403160332
99,14,7,Jits_ISO_8,2,5,80,127,1403266384
99,14,7,Jits_ISO_8,3,5,63,98,1403306248
99,14,7,Jits_ISO_8,0,1,48,65,1403966008
99,14,7,Jits_ISO_8,1,5,56,103,1403967272
99,14,7,Jits_ISO_8,2,5,80,127,1404045824
99,14,7,Jits_ISO_8,3,5,63,98,1404066120
99,14,7,Jits_ISO_8,0,1,48,67,1404757072
99,14,7,Jits_ISO_8,1,5,56,103,1404765512
99,14,7,Jits_ISO_8,2,5,63,98,1404876084
99,14,7,Jits_ISO_8,3,5,80,127,1404879448
99,14,7,Jits_ISO_8,0,1,48,69,1405524408
99,14,7,Jits_ISO_8,1,5,56,103,1405596004
99,14,7,Jits_ISO_8,2,5,80,127,1405625816
99,14,7,Jits_ISO_8,3,5,63,98,1405646128
99,14,7,Jits_ISO_8,0,1,48,53,1406349460
99,14,7,Jits_ISO_8,1,5,63,98,1406376160
99,14,7,Jits_ISO_8,2,5,56,103,1406385460
99,14,7,Jits_ISO_8,3,5,80,127,1406396028
99,14,7,Jits_ISO_8,0,1,48,73,1407093880
99,14,7,Jits_ISO_8,1,5,80,127,1407165896
99,14,7,Jits_ISO_8,2,5,56,103,1407216088
99,14,7,Jits_ISO_8,3,5,63,98,1407256100
99,14,7,Jits_ISO_8,0,1,48,57,1407867428
99,14,7,Jits_ISO_8,1,5,80,127,1407986044
99,14,7,Jits_ISO_8,2,5,63,98,1408005384
99,14,7,Jits_ISO_8,3,5,56,103,1408055808
99,14,7,Jits_ISO_8,0,1,48,58,1408705424
99,14,7,Jits_ISO_8,1,5,80,127,1408795884
99,14,7,Jits_ISO_8,2,5,56,103,1408825916
99,14,7,Jits_ISO_8,3,5,63,98,1408896300
99,14,7,Jits_ISO_8,0,1,48,71,1409587776
99,14,7,Jits_ISO_8,1,5,56,103,1409646040
99,14,7,Jits_ISO_8,2,5,80,127,1409656088
99,14,7,Jits_ISO_8,3,5,63,98,1409696088
99,14,7,Jits_ISO_8,0,5,56,103,1410355456
99,14,7,Jits_ISO_8,1,5,63,98,1410376068
99,14,7,Jits_ISO_8,2,1,48,69,1410403644
99,14,7,Jits_ISO_8,3,5,80,127,1410445768
99,14,7,Jits_ISO_8,0,1,48,69,1411129440
99,14,7,Jits_ISO_8,1,5,63,98,1411175872
99,14,7,Jits_ISO_8,2,5,80,127,1411236100
99,14,7,Jits_ISO_8,3,5,56,103,1411255808
99,14,7,Jits_ISO_8,0,1,48,71,1411937264
99,14,7,Jits_ISO_8,1,5,80,127,1411966364
99,14,7,Jits_ISO_8,2,5,56,103,1411995892
99,14,7,Jits_ISO_8,3,5,63,98,1412025936
99,14,7,Jits_ISO_8,0,1,48,57,1412691016
99,14,7,Jits_ISO_8,1,5,56,103,1412766068
99,14,7,Jits_ISO_8,2,5,63,98,1412825400
99,14,7,Jits_ISO_8,3,5,80,127,1412885940
99,14,7,Jits_ISO_8,0,1,48,67,1413573088
99,14,7,Jits_ISO_8,1,5,80,127,1413586384
99,14,7,Jits_ISO_8,2,5,56,103,1413605724
99,14,7,Jits_ISO_8,3,5,63,98,1413676360
99,14,7,Jits_ISO_8,0,1,48,56,1414381412
99,14,7,Jits_ISO_8,1,5,80,127,1414386092
99,14,7,Jits_ISO_8,2,5,63,98,1414405432
99,14,7,Jits_ISO_8,3,5,56,103,1414436156
99,14,7,Jits_ISO_8,0,1,48,68,1415172876
99,14,7,Jits_ISO_8,1,5,80,127,1415175760
99,14,7,Jits_ISO_8,2,5,63,98,1415196072
99,14,7,Jits_ISO_8,3,5,56,103,1415256340
99,14,7,Jits_ISO_8,0,5,80,127,1415976296
99,14,7,Jits_ISO_8,1,1,48,65,1415992372
99,14,7,Jits_ISO_8,2,5,56,103,1416075816
99,14,7,Jits_ISO_8,3,5,63,98,1416106224
99,14,7,Jits_ISO_8,0,5,63,98,1416765760
99,14,7,Jits_ISO_8,1,5,80,127,1416816064
99,14,7,Jits_ISO_8,2,1,48,60,1416823592
99,14,7,Jits_ISO_8,3,5,56,103,1416835396
99,14,7,Jits_ISO_8,0,1,48,61,1417578340
99,14,7,Jits_ISO_8,1,5,80,127,1417605568
99,14,7,Jits_ISO_8,2,5,56,103,1417636216
99,14,7,Jits_ISO_8,3,5,63,98,1417639208
99,14,7,Jits_ISO_8,0,1,48,67,1418411380
99,14,7,Jits_ISO_8,1,5,63,98,1418435912
99,14,7,Jits_ISO_8,2,5,56,103,1418476000
99,14,7,Jits_ISO_8,3,5,80,127,1418496312
99,14,7,Jits_ISO_8,0,5,80,127,1419176444
99,14,7,Jits_ISO_8,1,1,48,66,1419223624
99,14,7,Jits_ISO_8,2,5,63,98,1419256232
99,14,7,Jits_ISO_8,3,5,56,103,1419296024
99,14,7,Jits_ISO_8,0,5,63,98,1419995652
99,14,7,Jits_ISO_8,1,1,48,52,1420000272
99,14,7,Jits_ISO_8,2,5,80,127,1420076416
99,14,7,Jits_ISO_8,3,5,56,103,1420095976
99,14,7,Jits_ISO_8,0,1,48,67,1420830020
99,14,7,Jits_ISO_8,1,5,56,103,1420836192
99,14,7,Jits_ISO_8,2,5,63,98,1420845640
99,14,7,Jits_ISO_8,3,5,80,127,1420886280
99,14,7,Jits_ISO_8,0,5,56,103,1421556116
99,14,7,Jits_ISO_8,1,5,80,127,1421559184
99,14,7,Jits_ISO_8,2,1,48,73,1421615052
99,14,7,Jits_ISO_8,3,5,63,98,1421696236
99,14,7,Jits_ISO_8,0,5,56,103,1422345788
99,14,7,Jits_ISO_8,1,1,48,65,1422432164
99,14,7,Jits_ISO_8,2,5,63,98,1422435872
99,14,7,Jits_ISO_8,3,5,80,127,1422506228
99,14,7,Jits_ISO_8,0,1,48,70,1423213080
99,14,7,Jits_ISO_8,1,5,63,98,1423226224
99,14,7,Jits_ISO_8,2,5,80,127,1423229588
99,14,7,Jits_ISO_8,3,5,56,103,1423285864
99,14,7,Jits_ISO_8,0,1,48,54,1423990984
99,14,7,Jits_ISO_8,1,5,80,127,1424065864
99,14,7,Jits_ISO_8,2,5,56,103,1424086460
99,14,7,Jits_ISO_8,3,5,63,98,1424095832
99,14,7,Jits_ISO_8,0,5,56,103,1424775756
99,14,7,Jits_ISO_8,1,5,63,98,1424786024
99,14,7,Jits_ISO_8,2,1,48,52,1424826156
99,14,7,Jits_ISO_8,3,5,80,127,1424856376
99,14,7,Jits_ISO_8,0,1,48,57,1425564064
99,14,7,Jits_ISO_8,1,5,80,127,1425576292
99,14,7,Jits_ISO_8,2,5,56,103,1425625600
99,14,7,Jits_ISO_8,3,5,63,98,1425675784
99,14,7,Jits_ISO_8,0,1,48,53,1426357400
99,14,7,Jits_ISO_8,1,5,56,103,1426455860
99,14,7,Jits_ISO_8,2,5,63,98,1426466128
99,14,7,Jits_ISO_8,3,5,80,127,1426506068
99,14,7,Jits_ISO_8,0,5,56,103,1427196256
99,14,7,Jits_ISO_8,1,1,48,70,1427216612
99,14,7,Jits_ISO_8,2,5,63,98,1427236188
99,14,7,Jits_ISO_8,3,5,80,127,1427286564
99,14,7,Jits_ISO_8,0,5,80,127,1427956124
99,14,7,Jits_ISO_8,1,1,48,56,1427964644
99,14,7,Jits_ISO_8,2,5,56,103,1428006172
99,14,7,Jits_ISO_8,3,5,63,98,1428025660
99,14,7,Jits_ISO_8,0,1,48,54,1428757012
99,14,7,Jits_ISO_8,1,5,80,127,1428766028
99,14,7,Jits_ISO_8,2,5,63,98,1428825400
99,14,7,Jits_ISO_8,3,5,56,103,1428906300
99,14,7,Jits_ISO_8,0,5,80,127,1429546560
99,14,7,Jits_ISO_8,1,1,48,51,1429559720
99,14,7,Jits_ISO_8,2,5,56,103,1429586196
99,14,7,Jits_ISO_8,3,5,63,98,1429605856
99,14,7,Jits_ISO_8,0,1,48,40,1430383048
99,14,7,Jits_ISO_8,1,5,56,103,1430396272
99,14,7,Jits_ISO_8,2,5,80,127,1430405568
99,14,7,Jits_ISO_8,3,5,63,98,1430445580
99,14,7,Jits_ISO_8,0,1,48,57,1431121592
99,14,7,Jits_ISO_8,1,5,56,103,1431265644
99,14,7,Jits_ISO_8,2,5,63,98,1431305804
99,14,7,Jits_ISO_8,3,5,80,127,1431309020
99,14,7,Jits_ISO_8,0,1,48,79,1431944796
99,14,7,Jits_ISO_8,1,5,63,98,1431955832
99,14,7,Jits_ISO_8,2,5,80,127,1431995844
99,14,7,Jits_ISO_8,3,5,56,103,1432066408
99,14,7,Jits_ISO_8,0,1,48,76,1432743884
99,14,7,Jits_ISO_8,1,5,63,98,1432746472
99,14,7,Jits_ISO_8,2,5,56,103,1432826344
99,14,7,Jits_ISO_8,3,5,80,127,1432885600
99,14,7,Jits_ISO_8,0,5,80,127,1433556524
99,14,7,Jits_ISO_8,1,1,48,73,1433571104
99,14,7,Jits_ISO_8,2,5,63,98,1433605600
99,14,7,Jits_ISO_8,3,5,56,103,1433636176
99,14,7,Jits_ISO_8,0,5,56,103,1434345760
99,14,7,Jits_ISO_8,1,1,48,84,1434380116
99,14,7,Jits_ISO_8,2,5,63,98,1434395956
99,14,7,Jits_ISO_8,3,5,80,127,1434406228
99,14,7,Jits_ISO_8,0,1,48,78,1435122060
99,14,7,Jits_ISO_8,1,5,56,103,1435155808
99,14,7,Jits_ISO_8,2,5,63,98,1435266632
99,14,7,Jits_ISO_8,3,5,80,127,1435285744
99,14,7,Jits_ISO_8,0,5,63,98,1435955676
99,14,7,Jits_ISO_8,1,5,80,127,1436005680
99,14,7,Jits_ISO_8,2,1,48,76,1436016672
99,14,7,Jits_ISO_8,3,5,56,103,1436095808
99,14,7,Jits_ISO_8,0,5,63,98,1436746168
99,14,7,Jits_ISO_8,1,5,80,127,1436775644
99,14,7,Jits_ISO_8,2,1,48,66,1436841688
99,14,7,Jits_ISO_8,3,5,56,103,1436865996
99,14,7,Jits_ISO_8,0,5,63,98,1437545972
99,14,7,Jits_ISO_8,1,5,56,103,1437556168
99,14,7,Jits_ISO_8,2,1,48,79,1437648068
99,14,7,Jits_ISO_8,3,5,80,127,1437656780
99,14,7,Jits_ISO_8,0,1,48,59,1438397264
99,14,7,Jits_ISO_8,1,5,63,98,1438445916
99,14,7,Jits_ISO_8,2,5,80,127,1438475668
99,14,7,Jits_ISO_8,3,5,56,103,1438506448
99,14,7,Jits_ISO_8,0,5,80,127,1439266096
99,14,7,Jits_ISO_8,1,1,48,67,1439275464
99,14,7,Jits_ISO_8,2,5,63,98,1439277032
99,14,7,Jits_ISO_8,3,5,56,103,1439306184
99,14,7,Jits_ISO_8,0,5,80,127,1439965504
99,14,7,Jits_ISO_8,1,5,63,98,1439985964
99,14,7,Jits_ISO_8,2,5,56,103,1440036168
99,14,7,Jits_ISO_8,3,1,48,71,1440109128
99,14,7,Jits_ISO_8,0,5,63,98,1440795868
99,14,7,Jits_ISO_8,1,1,48,73,1440836600
99,14,7,Jits_ISO_8,2,5,80,127,1440856656
99,14,7,Jits_ISO_8,3,5,56,103,1440875844
99,14,7,Jits_ISO_8,0,5,63,98,1441555720
99,14,7,Jits_ISO_8,1,5,56,103,1441606148
99,14,7,Jits_ISO_8,2,5,80,127,1441616420
99,14,7,Jits_ISO_8,3,1,48,65,1441679496
99,14,7,Jits_ISO_8,0,1,48,61,1442355252
99,14,7,Jits_ISO_8,1,5,56,103,1442386212
99,14,7,Jits_ISO_8,2,5,80,127,1442395536
99,14,7,Jits_ISO_8,3,5,63,98,1442495992
99,14,7,Jits_ISO_8,0,5,80,127,1443145992
99,14,7,Jits_ISO_8,1,5,63,98,1443156560
99,14,7,Jits_ISO_8,2,1,48,58,1443197220
99,14,7,Jits_ISO_8,3,5,56,103,1443305784
99,14,7,Jits_ISO_8,0,1,48,66,1443950772
99,14,7,Jits_ISO_8,1,5,63,98,1443956044
99,14,7,Jits_ISO_8,2,5,80,127,1443995912
99,14,7,Jits_ISO_8,3,5,56,103,1444075764
99,14,7,Jits_ISO_8,0,5,56,103,1444745640
99,14,7,Jits_ISO_8,1,1,48,61,1444808024
99,14,7,Jits_ISO_8,2,5,80,127,1444845888
99,14,7,Jits_ISO_8,3,5,63,98,1444866572
99,14,7,Jits_ISO_8,0,1,48,73,1445567136
99,14,7,Jits_ISO_8,1,5,80,127,1445605672
99,14,7,Jits_ISO_8,2,5,56,103,1445615944
99,14,7,Jits_ISO_8,3,5,63,98,1445705984
99,14,7,Jits_ISO_8,0,5,56,103,1446405464
99,14,7,Jits_ISO_8,1,1,48,72,1446417804
99,14,7,Jits_ISO_8,2,5,63,98,1446426068
99,14,7,Jits_ISO_8,3,5,80,127,1446505740
99,14,7,Jits_ISO_8,0,5,63,98,1447156184
99,14,7,Jits_ISO_8,1,1,48,82,1447237300
99,14,7,Jits_ISO_8,2,5,56,103,1447246164
99,14,7,Jits_ISO_8,3,5,80,127,1447249528
99,14,7,Jits_ISO_8,0,5,56,103,1447985404
99,14,7,Jits_ISO_8,1,1,48,70,1447987272
99,14,7,Jits_ISO_8,2,5,80,127,1448045816
99,14,7,Jits_ISO_8,3,5,63,98,1448056160
99,14,7,Jits_ISO_8,0,1,48,67,1448783584
99,14,7,Jits_ISO_8,1,5,80,127,1448835568
99,14,7,Jits_ISO_8,2,5,56,103,1448845688
99,14,7,Jits_ISO_8,3,5,63,98,1448848832
99,14,7,Jits_ISO_8,0,1,48,69,1449592452
99,14,7,Jits_ISO_8,1,5,56,103,1449596680
99,14,7,Jits_ISO_8,2,5,80,127,1449605532
99,14,7,Jits_ISO_8,3,5,63,98,1449625992
99,14,7,Jits_ISO_8,0,1,48,66,1450332220
99,14,7,Jits_ISO_8,1,5,63,98,1450366716
99,14,7,Jits_ISO_8,2,5,80,127,1450425752
99,14,7,Jits_ISO_8,3,5,56,103,1450476024
99,14,7,Jits_ISO_8,0,1,48,64,1451068896
99,14,7,Jits_ISO_8,1,5,63,98,1451245980
99,14,7,Jits_ISO_8,2,5,56,103,1451256252
99,14,7,Jits_ISO_8,3,5,80,127,1451306528
99,14,7,Jits_ISO_8,0,5,63,98,1451946444
99,14,7,Jits_ISO_8,1,5,80,127,1451965708
99,14,7,Jits_ISO_8,2,1,48,67,1451973612
99,14,7,Jits_ISO_8,3,5,56,103,1451976344
99,14,7,Jits_ISO_8,0,1,48,68,1452641884
99,14,7,Jits_ISO_8,1,5,63,98,1452746344
99,14,7,Jits_ISO_8,2,5,80,127,1452749556
99,14,7,Jits_ISO_8,3,5,56,103,1452786132
99,14,7,Jits_ISO_8,0,1,48,69,1453508560
99,14,7,Jits_ISO_8,1,5,63,98,1453615492
99,14,7,Jits_ISO_8,2,5,80,127,1453646216
99,14,7,Jits_ISO_8,3,5,56,103,1453656512
99,14,7,Jits_ISO_8,0,1,48,71,1454332392
99,14,7,Jits_ISO_8,1,5,56,103,1454365996
99,14,7,Jits_ISO_8,2,5,80,127,1454395672
99,14,7,Jits_ISO_8,3,5,63,98,1454425508
99,14,7,Jits_ISO_8,0,1,48,69,1455149116
99,14,7,Jits_ISO_8,1,5,63,98,1455266108
99,14,7,Jits_ISO_8,2,5,56,103,1455306044
99,14,7,Jits_ISO_8,3,5,80,127,1455309112
99,14,7,Jits_ISO_8,0,1,48,60,1455951588
99,14,7,Jits_ISO_8,1,5,80,127,1455965512
99,14,7,Jits_ISO_8,2,5,56,103,1456045456
99,14,7,Jits_ISO_8,3,5,63,98,1456095644
99,14,7,Jits_ISO_8,0,5,80,127,1456745820
99,14,7,Jits_ISO_8,1,5,56,103,1456766280
99,14,7,Jits_ISO_8,2,1,48,66,1456775096
99,14,7,Jits_ISO_8,3,5,63,98,1456856484
99,14,7,Jits_ISO_8,0,1,48,62,1457522720
99,14,7,Jits_ISO_8,1,5,80,127,1457585468
99,14,7,Jits_ISO_8,2,5,63,98,1457625540
99,14,7,Jits_ISO_8,3,5,56,103,1457666452
99,14,7,Jits_ISO_8,0,1,48,66,1458351872
99,14,7,Jits_ISO_8,1,5,63,98,1458355656
99,14,7,Jits_ISO_8,2,5,80,127,1458416120
99,14,7,Jits_ISO_8,3,5,56,103,1458445576
99,14,7,Jits_ISO_8,0,1,48,73,1459105140
99,14,7,Jits_ISO_8,1,5,56,103,1459156332
99,14,7,Jits_ISO_8,2,5,80,127,1459186308
99,14,7,Jits_ISO_8,3,5,63,98,1459276276
99,14,7,Jits_ISO_8,0,1,48,66,1459965556
99,14,7,Jits_ISO_8,1,5,56,103,1459967276
99,14,7,Jits_ISO_8,2,5,80,127,1460075856
99,14,7,Jits_ISO_8,3,5,63,98,1460105608
99,14,7,Jits_ISO_8,0,1,48,69,1460802172
99,14,7,Jits_ISO_8,1,5,56,103,1460816440
99,14,7,Jits_ISO_8,2,5,63,98,1460875516
99,14,7,Jits_ISO_8,3,5,80,127,1460906296
99,14,7,Jits_ISO_8,0,1,48,69,1461579116
99,14,7,Jits_ISO_8,1,5,56,103,1461586260
99,14,7,Jits_ISO_8,2,5,63,98,1461655964
99,14,7,Jits_ISO_8,3,5,80,127,1461676572
99,14,7,Jits_ISO_8,0,5,80,127,1462356328
99,14,7,Jits_ISO_8,1,5,63,98,1462375668
99,14,7,Jits_ISO_8,2,5,56,103,1462426092
99,14,7,Jits_ISO_8,3,1,48,59,1462436184
99,14,7,Jits_ISO_8,0,9999,9999,9999,1367623796
99,14,7,Jits_ISO_8,1,9999,9999,9999,1368423520
99,14,7,Jits_ISO_8,2,9999,9999,9999,1369223216
99,14,7,Jits_ISO_8,3,9999,9999,9999,1370024036
99,14,7,Jits_ISO_8,4,9999,9999,9999,1370823752
99,14,7,Jits_ISO_8,5,9999,9999,9999,1371623540
99,14,7,Jits_ISO_8,6,9999,9999,9999,1372423248
99,14,7,Jits_ISO_8,7,9999,9999,9999,1373224020
99,14,7,Jits_ISO_8,8,9999,9999,9999,1374023736
99,14,7,Jits_ISO_8,9,9999,9999,9999,1374823532
99,14,7,Jits_ISO_8,10,9999,9999,9999,1375623264
99,14,7,Jits_ISO_8,11,9999,9999,9999,1376424024
99,14,7,Jits_ISO_8,12,9999,9999,9999,1377223740
99,14,7,Jits_ISO_8,13,9999,9999,9999,1378023536
99,14,7,Jits_ISO_8,14,9999,9999,9999,1378823232
99,14,7,Jits_ISO_8,15,9999,9999,9999,1379624052
99,14,7,Jits_ISO_8,16,9999,9999,9999,1380423744
99,14,7,Jits_ISO_8,17,9999,9999,9999,1381223496
99,14,7,Jits_ISO_8,18,9999,9999,9999,1382023284
99,14,7,Jits_ISO_8,19,9999,9999,9999,1382824056
99,14,7,Jits_ISO_8,20,9999,9999,9999,1383623764
99,14,7,Jits_ISO_8,21,9999,9999,9999,1384423548
99,14,7,Jits_ISO_8,22,9999,9999,9999,1385223260
99,14,7,Jits_ISO_8,23,9999,9999,9999,1386024012
99,14,7,Jits_ISO_8,24,9999,9999,9999,1386823792
99,14,7,Jits_ISO_8,25,9999,9999,9999,1387623524
99,14,7,Jits_ISO_8,26,9999,9999,9999,1388423236
99,14,7,Jits_ISO_8,27,9999,9999,9999,1389223988
99,14,7,Jits_ISO_8,28,9999,9999,9999,1390023772
99,14,7,Jits_ISO_8,29,9999,9999,9999,1390823488
99,14,7,Jits_ISO_8,30,9999,9999,9999,1391623268
99,14,7,Jits_ISO_8,31,9999,9999,9999,1392424020
99,14,7,Jits_ISO_8,32,9999,9999,9999,1393223804
99,14,7,Jits_ISO_8,33,9999,9999,9999,1394023528
99,14,7,Jits_ISO_8,34,9999,9999,9999,1394823236
99,14,7,Jits_ISO_8,35,9999,9999,9999,1395624052
99,14,7,Jits_ISO_8,36,9999,9999,9999,1396423768
99,14,7,Jits_ISO_8,37,9999,9999,9999,1397223476
99,14,7,Jits_ISO_8,38,9999,9999,9999,1398023252
99,14,7,Jits_ISO_8,39,9999,9999,9999,1398824024
99,14,7,Jits_ISO_8,40,9999,9999,9999,1399623740
99,14,7,Jits_ISO_8,41,9999,9999,9999,1400423476
99,14,7,Jits_ISO_8,42,9999,9999,9999,1401223256
99,14,7,Jits_ISO_8,43,9999,9999,9999,1402024016
99,14,7,Jits_ISO_8,44,9999,9999,9999,1402823784
99,14,7,Jits_ISO_8,45,9999,9999,9999,1403623500
99,14,7,Jits_ISO_8,46,9999,9999,9999,1404423220
99,14,7,Jits_ISO_8,47,9999,9999,9999,1405224044
99,14,7,Jits_ISO_8,48,9999,9999,9999,1406023756
99,14,7,Jits_ISO_8,49,9999,9999,9999,1406823484
99,14,7,Jits_ISO_8,50,9999,9999,9999,1407623268
99,14,7,Jits_ISO_8,51,9999,9999,9999,1408424024
99,14,7,Jits_ISO_8,52,9999,9999,9999,1409223736
99,14,7,Jits_ISO_8,53,9999,9999,9999,1410023524
99,14,7,Jits_ISO_8,54,9999,9999,9999,1410823228
99,14,7,Jits_ISO_8,55,9999,9999,9999,1411624000
99,14,7,Jits_ISO_8,56,9999,9999,9999,1412423780
99,14,7,Jits_ISO_8,57,9999,9999,9999,1413223516
99,14,7,Jits_ISO_8,58,9999,9999,9999,1414023228
99,14,7,Jits_ISO_8,59,9999,9999,9999,1414824056
99,14,7,Jits_ISO_8,60,9999,9999,9999,1415623764
99,14,7,Jits_ISO_8,61,9999,9999,9999,1416423476
99,14,7,Jits_ISO_8,62,9999,9999,9999,1417223268
99,14,7,Jits_ISO_8,63,9999,9999,9999,1418024016
99,14,7,Jits_ISO_8,64,9999,9999,9999,1418823732
99,14,7,Jits_ISO_8,65,9999,9999,9999,1419623544
99,14,7,Jits_ISO_8,66,9999,9999,9999,1420423276
99,14,7,Jits_ISO_8,67,9999,9999,9999,1421224036
99,14,7,Jits_ISO_8,68,9999,9999,9999,1422023732
99,14,7,Jits_ISO_8,69,9999,9999,9999,1422823536
99,14,7,Jits_ISO_8,70,9999,9999,9999,1423623252
99,14,7,Jits_ISO_8,71,9999,9999,9999,1424424020
99,14,7,Jits_ISO_8,72,9999,9999,9999,1425223800
99,14,7,Jits_ISO_8,73,9999,9999,9999,1426023476
99,14,7,Jits_ISO_8,74,9999,9999,9999,1426823268
99,14,7,Jits_ISO_8,75,9999,9999,9999,1427624028
99,14,7,Jits_ISO_8,76,9999,9999,9999,1428423748
99,14,7,Jits_ISO_8,77,9999,9999,9999,1429223476
99,14,7,Jits_ISO_8,78,9999,9999,9999,1430023252
99,14,7,Jits_ISO_8,79,9999,9999,9999,1430824016
99,14,7,Jits_ISO_8,80,9999,9999,9999,1431623804
99,14,7,Jits_ISO_8,81,9999,9999,9999,1432423536
99,14,7,Jits_ISO_8,82,9999,9999,9999,1433223248
99,14,7,Jits_ISO_8,83,9999,9999,9999,1434024000
99,14,7,Jits_ISO_8,84,9999,9999,9999,1434823796
99,14,7,Jits_ISO_8,85,9999,9999,9999,1435623520
99,14,7,Jits_ISO_8,86,9999,9999,9999,1436423228
99,14,7,Jits_ISO_8,87,9999,9999,9999,1437224052
99,14,7,Jits_ISO_8,88,9999,9999,9999,1438023756
99,14,7,Jits_ISO_8,89,9999,9999,9999,1438823500
99,14,7,Jits_ISO_8,90,9999,9999,9999,1439623220
99,14,7,Jits_ISO_8,91,9999,9999,9999,1440423988
99,14,7,Jits_ISO_8,92,9999,9999,9999,1441223788
99,14,7,Jits_ISO_8,93,9999,9999,9999,1442023496
99,14,7,Jits_ISO_8,94,9999,9999,9999,1442823280
99,14,7,Jits_ISO_8,95,9999,9999,9999,1443624004
99,14,7,Jits_ISO_8,96,9999,9999,9999,1444423800
99,14,7,Jits_ISO_8,97,9999,9999,9999,1445223532
99,14,7,Jits_ISO_8,98,9999,9999,9999,1446023260
99,14,7,Jits_ISO_8,99,9999,9999,9999,1446824016
99,14,7,Jits_ISO_8,100,9999,9999,9999,1447623804
99,14,7,Jits_ISO_8,101,9999,9999,9999,1448423512
99,14,7,Jits_ISO_8,102,9999,9999,9999,1449223228
99,14,7,Jits_ISO_8,103,9999,9999,9999,1450024056
99,14,7,Jits_ISO_8,104,9999,9999,9999,1450823764
99,14,7,Jits_ISO_8,105,9999,9999,9999,1451623504
99,14,7,Jits_ISO_8,106,9999,9999,9999,1452423280
99,14,7,Jits_ISO_8,107,9999,9999,9999,1453224016
99,14,7,Jits_ISO_8,108,9999,9999,9999,1454023732
99,14,7,Jits_ISO_8,109,9999,9999,9999,1454823512
99,14,7,Jits_ISO_8,110,9999,9999,9999,1455623220
99,14,7,Jits_ISO_8,111,9999,9999,9999,1456424052
99,14,7,Jits_ISO_8,112,9999,9999,9999,1457223756
99,14,7,Jits_ISO_8,113,9999,9999,9999,1458023504
99,14,7,Jits_ISO_8,114,9999,9999,9999,1458823284
99,14,7,Jits_ISO_8,115,9999,9999,9999,1459624040
99,14,7,Jits_ISO_8,116,9999,9999,9999,1460423756
99,14,7,Jits_ISO_8,117,9999,9999,9999,1461223544
99,14,7,Jits_ISO_8,118,9999,9999,9999,1462023248
99,14,7,Jits_ISO_8,119,9999,9999,9999,1462824000
99,15,16,Jits_ISO_5,0,5,56,103,1471646256
99,15,16,Jits_ISO_5,1,5,63,98,1471649432
99,15,16,Jits_ISO_5,2,5,80,127,1471652476
99,15,16,Jits_ISO_5,0,5,56,103,1472145828
99,15,16,Jits_ISO_5,1,5,63,98,1472148848
99,15,16,Jits_ISO_5,2,5,80,127,1472152196
99,15,16,Jits_ISO_5,0,5,56,103,1472645416
99,15,16,Jits_ISO_5,1,5,80,127,1472655612
99,15,16,Jits_ISO_5,2,5,63,98,1472676144
99,15,16,Jits_ISO_5,3,1,48,53,1472712588
99,15,16,Jits_ISO_5,0,5,63,98,1473096068
99,15,16,Jits_ISO_5,1,5,80,127,1473125692
99,15,16,Jits_ISO_5,2,5,56,103,1473136260
99,15,16,Jits_ISO_5,3,1,48,61,1473177136
99,15,16,Jits_ISO_5,0,1,48,62,1473646356
99,15,16,Jits_ISO_5,1,5,80,127,1473656124
99,15,16,Jits_ISO_5,2,5,56,103,1473666320
99,15,16,Jits_ISO_5,3,5,63,98,1473696288
99,15,16,Jits_ISO_5,0,5,63,98,1474145604
99,15,16,Jits_ISO_5,1,1,48,71,1474158384
99,15,16,Jits_ISO_5,2,5,56,103,1474176320
99,15,16,Jits_ISO_5,3,5,80,127,1474185540
99,15,16,Jits_ISO_5,0,5,56,103,1474596240
99,15,16,Jits_ISO_5,1,5,63,98,1474646244
99,15,16,Jits_ISO_5,2,1,48,66,1474652948
99,15,16,Jits_ISO_5,3,5,80,127,1474665720
99,15,16,Jits_ISO_5,0,5,80,127,1475096052
99,15,16,Jits_ISO_5,1,1,48,63,1475136184
99,15,16,Jits_ISO_5,2,5,63,98,1475146168
99,15,16,Jits_ISO_5,3,5,56,103,1475186132
99,15,16,Jits_ISO_5,0,5,56,103,1475595648
99,15,16,Jits_ISO_5,1,5,63,98,1475626368
99,15,16,Jits_ISO_5,2,1,48,67,1475640944
99,15,16,Jits_ISO_5,3,5,80,127,1475696064
99,15,16,Jits_ISO_5,0,5,56,103,1476096364
99,15,16,Jits_ISO_5,1,1,48,64,1476133116
99,15,16,Jits_ISO_5,2,5,80,127,1476155700
99,15,16,Jits_ISO_5,3,5,63,98,1476185472
99,15,16,Jits_ISO_5,0,5,56,103,1476606300
99,15,16,Jits_ISO_5,1,5,63,98,1476615524
99,15,16,Jits_ISO_5,2,1,48,71,1476629276
99,15,16,Jits_ISO_5,3,5,80,127,1476655528
99,15,16,Jits_ISO_5,0,5,63,98,1477096228
99,15,16,Jits_ISO_5,1,1,48,78,1477147152
99,15,16,Jits_ISO_5,2,5,80,127,1477175868
99,15,16,Jits_ISO_5,3,5,56,103,1477186064
99,15,16,Jits_ISO_5,0,1,48,68,1477630092
99,15,16,Jits_ISO_5,1,5,63,98,1477645632
99,15,16,Jits_ISO_5,2,5,56,103,1477685568
99,15,16,Jits_ISO_5,3,5,80,127,1477688636
99,15,16,Jits_ISO_5,0,5,56,103,1478105436
99,15,16,Jits_ISO_5,1,5,63,98,1478115632
99,15,16,Jits_ISO_5,2,5,80,127,1478155492
99,15,16,Jits_ISO_5,3,1,48,78,1478158236
99,15,16,Jits_ISO_5,0,5,56,103,1478596268
99,15,16,Jits_ISO_5,1,5,63,98,1478599180
99,15,16,Jits_ISO_5,2,5,80,127,1478616424
99,15,16,Jits_ISO_5,3,1,48,70,1478632496
99,15,16,Jits_ISO_5,0,5,80,127,1479105960
99,15,16,Jits_ISO_5,1,1,48,70,1479110496
99,15,16,Jits_ISO_5,2,5,56,103,1479116148
99,15,16,Jits_ISO_5,3,5,63,98,1479185752
99,15,16,Jits_ISO_5,0,5,63,98,1479596268
99,15,16,Jits_ISO_5,1,5,56,103,1479615976
99,15,16,Jits_ISO_5,2,1,48,64,1479652048
99,15,16,Jits_ISO_5,3,5,80,127,1479695760
99,15,16,Jits_ISO_5,0,5,56,103,1480115552
99,15,16,Jits_ISO_5,1,1,48,69,1480134712
99,15,16,Jits_ISO_5,2,5,80,127,1480155484
99,15,16,Jits_ISO_5,3,5,63,98,1480165680
99,15,16,Jits_ISO_5,0,5,80,127,1480606156
99,15,16,Jits_ISO_5,1,1,48,62,1480633940
99,15,16,Jits_ISO_5,2,5,63,98,1480635676
99,15,16,Jits_ISO_5,3,5,56,103,1480675612
99,15,16,Jits_ISO_5,0,1,48,59,1481113820
99,15,16,Jits_ISO_5,1,5,56,103,1481126200
99,15,16,Jits_ISO_5,2,5,63,98,1481156096
99,15,16,Jits_ISO_5,3,5,80,127,1481206220
99,15,16,Jits_ISO_5,0,1,48,59,1481624732
99,15,16,Jits_ISO_5,1,5,80,127,1481626304
99,15,16,Jits_ISO_5,2,5,56,103,1481666240
99,15,16,Jits_ISO_5,3,5,63,98,1481676140
99,15,16,Jits_ISO_5,0,5,80,127,1482106120
99,15,16,Jits_ISO_5,1,1,48,70,1482143688
99,15,16,Jits_ISO_5,2,5,63,98,1482146272
99,15,16,Jits_ISO_5,3,5,56,103,1482205612
99,15,16,Jits_ISO_5,0,5,56,103,1482606088
99,15,16,Jits_ISO_5,1,5,80,127,1482616060
99,15,16,Jits_ISO_5,2,1,48,74,1482674996
99,15,16,Jits_ISO_5,3,5,63,98,1482696068
99,15,16,Jits_ISO_5,0,5,80,127,1483105760
99,15,16,Jits_ISO_5,1,5,63,98,1483166296
99,15,16,Jits_ISO_5,2,1,48,73,1483192340
99,15,16,Jits_ISO_5,3,5,56,103,1483195740
99,15,16,Jits_ISO_5,0,5,56,103,1483606332
99,15,16,Jits_ISO_5,1,5,80,127,1483665748
99,15,16,Jits_ISO_5,2,1,48,51,1483666716
99,15,16,Jits_ISO_5,3,5,63,98,1483705900
99,15,16,Jits_ISO_5,0,5,56,103,1484165496
99,15,16,Jits_ISO_5,1,5,63,98,1484175760
99,15,16,Jits_ISO_5,2,1,48,51,1484177120
99,15,16,Jits_ISO_5,3,5,80,127,1484180316
99,15,16,Jits_ISO_5,0,5,80,127,1484616132
99,15,16,Jits_ISO_5,1,1,48,55,1484659508
99,15,16,Jits_ISO_5,2,5,63,98,1484706284
99,15,16,Jits_ISO_5,3,5,56,103,1484716256
99,15,16,Jits_ISO_5,0,5,56,103,1485115868
99,15,16,Jits_ISO_5,1,5,63,98,1485119040
99,15,16,Jits_ISO_5,2,5,80,127,1485122232
99,15,16,Jits_ISO_5,3,1,48,58,1485157976
99,15,16,Jits_ISO_5,0,5,80,127,1485636056
99,15,16,Jits_ISO_5,1,5,63,98,1485685984
99,15,16,Jits_ISO_5,2,1,48,78,1485692168
99,15,16,Jits_ISO_5,3,5,56,103,1485716096
99,15,16,Jits_ISO_5,0,5,56,103,1486116324
99,15,16,Jits_ISO_5,1,5,80,127,1486125472
99,15,16,Jits_ISO_5,2,1,48,81,1486166972
99,15,16,Jits_ISO_5,3,5,63,98,1486196140
99,15,16,Jits_ISO_5,0,5,56,103,1486626100
99,15,16,Jits_ISO_5,1,5,63,98,1486645736
99,15,16,Jits_ISO_5,2,5,80,127,1486706000
99,15,16,Jits_ISO_5,3,1,48,78,1486710168
99,15,16,Jits_ISO_5,0,5,80,127,1487115660
99,15,16,Jits_ISO_5,1,1,48,71,1487184796
99,15,16,Jits_ISO_5,2,5,63,98,1487186156
99,15,16,Jits_ISO_5,3,5,56,103,1487205864
99,15,16,Jits_ISO_5,0,5,80,127,1487635836
99,15,16,Jits_ISO_5,1,5,56,103,1487646180
99,15,16,Jits_ISO_5,2,5,63,98,1487656300
99,15,16,Jits_ISO_5,3,1,48,67,1487713300
99,15,16,Jits_ISO_5,0,5,80,127,1488126216
99,15,16,Jits_ISO_5,1,5,56,103,1488145852
99,15,16,Jits_ISO_5,2,1,48,72,1488201552
99,15,16,Jits_ISO_5,3,5,63,98,1488216372
99,15,16,Jits_ISO_5,0,5,56,103,1488636228
99,15,16,Jits_ISO_5,1,5,80,127,1488666124
99,15,16,Jits_ISO_5,2,5,63,98,1488685388
99,15,16,Jits_ISO_5,3,1,48,67,1488704316
99,15,16,Jits_ISO_5,0,5,63,98,1489125784
99,15,16,Jits_ISO_5,1,5,56,103,1489186248
99,15,16,Jits_ISO_5,2,1,48,70,1489193184
99,15,16,Jits_ISO_5,3,5,80,127,1489215988
99,15,16,Jits_ISO_5,0,5,63,98,1489616148
99,15,16,Jits_ISO_5,1,5,80,127,1489619440
99,15,16,Jits_ISO_5,2,1,48,78,1489688940
99,15,16,Jits_ISO_5,3,5,56,103,1489706348
99,15,16,Jits_ISO_5,0,5,56,103,1490136404
99,15,16,Jits_ISO_5,1,5,63,98,1490166076
99,15,16,Jits_ISO_5,2,1,48,63,1490170092
99,15,16,Jits_ISO_5,3,5,80,127,1490206004
99,15,16,Jits_ISO_5,0,5,63,98,1490636000
99,15,16,Jits_ISO_5,1,5,56,103,1490676088
99,15,16,Jits_ISO_5,2,1,48,57,1490687156
99,15,16,Jits_ISO_5,3,5,80,127,1490695492
99,15,16,Jits_ISO_5,0,5,63,98,1491146000
99,15,16,Jits_ISO_5,1,1,48,69,1491177812
99,15,16,Jits_ISO_5,2,5,56,103,1491186004
99,15,16,Jits_ISO_5,3,5,80,127,1491196272
99,15,16,Jits_ISO_5,0,5,80,127,1491635692
99,15,16,Jits_ISO_5,1,5,63,98,1491706124
99,15,16,Jits_ISO_5,2,1,48,58,1491711188
99,15,16,Jits_ISO_5,3,5,56,103,1491725600
99,15,16,Jits_ISO_5,0,5,56,103,1492126152
99,15,16,Jits_ISO_5,1,5,80,127,1492145636
99,15,16,Jits_ISO_5,2,5,63,98,1492185424
99,15,16,Jits_ISO_5,3,1,48,70,1492230788
99,15,16,Jits_ISO_5,0,5,63,98,1492636012
99,15,16,Jits_ISO_5,1,5,80,127,1492655424
99,15,16,Jits_ISO_5,2,1,48,71,1492675548
99,15,16,Jits_ISO_5,3,5,56,103,1492696324
99,15,16,Jits_ISO_5,0,5,63,98,1493135892
99,15,16,Jits_ISO_5,1,5,56,103,1493156200
99,15,16,Jits_ISO_5,2,5,80,127,1493165496
99,15,16,Jits_ISO_5,3,1,48,74,1493167512
99,15,16,Jits_ISO_5,0,1,48,68,1493623736
99,15,16,Jits_ISO_5,1,5,80,127,1493635392
99,15,16,Jits_ISO_5,2,5,56,103,1493656000
99,15,16,Jits_ISO_5,3,5,63,98,1493685524
99,15,16,Jits_ISO_5,0,1,48,67,1494123468
99,15,16,Jits_ISO_5,1,5,56,103,1494205916
99,15,16,Jits_ISO_5,2,5,80,127,1494208908
99,15,16,Jits_ISO_5,3,5,63,98,1494226360
99,15,16,Jits_ISO_5,0,5,63,98,1494625792
99,15,16,Jits_ISO_5,1,5,56,103,1494656292
99,15,16,Jits_ISO_5,2,1,48,63,1494700684
99,15,16,Jits_ISO_5,3,5,80,127,1494715844
99,15,16,Jits_ISO_5,0,1,48,70,1495144076
99,15,16,Jits_ISO_5,1,5,63,98,1495206280
99,15,16,Jits_ISO_5,2,5,56,103,1495215428
99,15,16,Jits_ISO_5,3,5,80,127,1495225696
99,15,16,Jits_ISO_5,0,5,56,103,1495666092
99,15,16,Jits_ISO_5,1,1,48,72,1495690932
99,15,16,Jits_ISO_5,2,5,80,127,1495695832
99,15,16,Jits_ISO_5,3,5,63,98,1495705880
99,15,16,Jits_ISO_5,0,1,48,70,1496183944
99,15,16,Jits_ISO_5,1,5,63,98,1496205764
99,15,16,Jits_ISO_5,2,5,56,103,1496215888
99,15,16,Jits_ISO_5,3,5,80,127,1496236344
99,15,16,Jits_ISO_5,0,5,56,103,1496635736
99,15,16,Jits_ISO_5,1,5,63,98,1496696296
99,15,16,Jits_ISO_5,2,1,48,76,1496699884
99,15,16,Jits_ISO_5,3,5,80,127,1496701004
99,15,16,Jits_ISO_5,0,5,80,127,1497156004
99,15,16,Jits_ISO_5,1,5,56,103,1497166272
99,15,16,Jits_ISO_5,2,1,48,68,1497194824
99,15,16,Jits_ISO_5,3,5,63,98,1497236044
99,15,16,Jits_ISO_5,0,5,80,127,1497645564
99,15,16,Jits_ISO_5,1,1,48,68,1497682784
99,15,16,Jits_ISO_5,2,5,56,103,1497716084
99,15,16,Jits_ISO_5,3,5,63,98,1497726280
99,15,16,Jits_ISO_5,0,1,48,72,1498184316
99,15,16,Jits_ISO_5,1,5,63,98,1498186056
99,15,16,Jits_ISO_5,2,5,56,103,1498196348
99,15,16,Jits_ISO_5,3,5,80,127,1498215908
99,15,16,Jits_ISO_5,0,5,80,127,1498635600
99,15,16,Jits_ISO_5,1,1,48,64,1498691008
99,15,16,Jits_ISO_5,2,5,63,98,1498695908
99,15,16,Jits_ISO_5,3,5,56,103,1498735944
99,15,16,Jits_ISO_5,0,5,56,103,1499176252
99,15,16,Jits_ISO_5,1,5,63,98,1499185552
99,15,16,Jits_ISO_5,2,1,48,73,1499202972
99,15,16,Jits_ISO_5,3,5,80,127,1499225504
99,15,16,Jits_ISO_5,0,5,56,103,1499636144
99,15,16,Jits_ISO_5,1,5,80,127,1499665896
99,15,16,Jits_ISO_5,2,1,48,68,1499677332
99,15,16,Jits_ISO_5,3,5,63,98,1499716084
99,15,16,Jits_ISO_5,0,1,48,76,1500154220
99,15,16,Jits_ISO_5,1,5,56,103,1500175892
99,15,16,Jits_ISO_5,2,5,63,98,1500215752
99,15,16,Jits_ISO_5,3,5,80,127,1500218892
99,15,16,Jits_ISO_5,0,1,48,68,1500637012
99,15,16,Jits_ISO_5,1,5,56,103,1500675324
99,15,16,Jits_ISO_5,2,5,63,98,1500685964
99,15,16,Jits_ISO_5,3,5,80,127,1500706200
99,15,16,Jits_ISO_5,0,1,48,73,1501124912
99,15,16,Jits_ISO_5,1,5,56,103,1501136168
99,15,16,Jits_ISO_5,2,5,80,127,1501139384
99,15,16,Jits_ISO_5,3,5,63,98,1501176180
99,15,16,Jits_ISO_5,0,1,48,67,1501630388
99,15,16,Jits_ISO_5,1,5,63,98,1501676044
99,15,16,Jits_ISO_5,2,5,56,103,1501705720
99,15,16,Jits_ISO_5,3,5,80,127,1501726028
99,15,16,Jits_ISO_5,0,5,80,127,1502145824
99,15,16,Jits_ISO_5,1,5,56,103,1502156092
99,15,16,Jits_ISO_5,2,5,63,98,1502166512
99,15,16,Jits_ISO_5,3,1,48,75,1502177652
99,15,16,Jits_ISO_5,0,1,48,71,1502635424
99,15,16,Jits_ISO_5,1,5,56,103,1502645636
99,15,16,Jits_ISO_5,2,5,80,127,1502685796
99,15,16,Jits_ISO_5,3,5,63,98,1502716144
99,15,16,Jits_ISO_5,0,1,48,78,1503160848
99,15,16,Jits_ISO_5,1,5,63,98,1503165752
99,15,16,Jits_ISO_5,2,5,80,127,1503176020
99,15,16,Jits_ISO_5,3,5,56,103,1503186368
99,15,16,Jits_ISO_5,0,5,56,103,1503646012
99,15,16,Jits_ISO_5,1,1,48,71,1503648836
99,15,16,Jits_ISO_5,2,5,63,98,1503715832
99,15,16,Jits_ISO_5,3,5,80,127,1503725804
99,15,16,Jits_ISO_5,0,5,80,127,1504145760
99,15,16,Jits_ISO_5,1,5,56,103,1504155956
99,15,16,Jits_ISO_5,2,1,48,70,1504172852
99,15,16,Jits_ISO_5,3,5,63,98,1504206148
99,15,16,Jits_ISO_5,0,1,48,72,1504655992
99,15,16,Jits_ISO_5,1,5,80,127,1504657328
99,15,16,Jits_ISO_5,2,5,56,103,1504716076
99,15,16,Jits_ISO_5,3,5,63,98,1504745972
99,15,16,Jits_ISO_5,0,1,48,67,1505141980
99,15,16,Jits_ISO_5,1,5,56,103,1505155424
99,15,16,Jits_ISO_5,2,5,80,127,1505158564
99,15,16,Jits_ISO_5,3,5,63,98,1505196332
99,15,16,Jits_ISO_5,0,1,48,67,1505637884
99,15,16,Jits_ISO_5,1,5,56,103,1505685860
99,15,16,Jits_ISO_5,2,5,63,98,1505715756
99,15,16,Jits_ISO_5,3,5,80,127,1505725804
99,15,16,Jits_ISO_5,0,1,48,69,1506145568
99,15,16,Jits_ISO_5,1,5,63,98,1506195936
99,15,16,Jits_ISO_5,2,5,80,127,1506205980
99,15,16,Jits_ISO_5,3,5,56,103,1506216252
99,15,16,Jits_ISO_5,0,5,80,127,1506646528
99,15,16,Jits_ISO_5,1,1,48,73,1506654972
99,15,16,Jits_ISO_5,2,5,56,103,1506695748
99,15,16,Jits_ISO_5,3,5,63,98,1506698740
99,15,16,Jits_ISO_5,0,1,48,69,1507145088
99,15,16,Jits_ISO_5,1,5,56,103,1507185968
99,15,16,Jits_ISO_5,2,5,80,127,1507205824
99,15,16,Jits_ISO_5,3,5,63,98,1507215796
99,15,16,Jits_ISO_5,0,1,48,56,1507611396
99,15,16,Jits_ISO_5,1,5,63,98,1507666372
99,15,16,Jits_ISO_5,2,5,56,103,1507695972
99,15,16,Jits_ISO_5,3,5,80,127,1507715516
99,15,16,Jits_ISO_5,0,1,48,53,1508145976
99,15,16,Jits_ISO_5,1,5,56,103,1508176192
99,15,16,Jits_ISO_5,2,5,80,127,1508185368
99,15,16,Jits_ISO_5,3,5,63,98,1508256148
99,15,16,Jits_ISO_5,0,5,63,98,1508665672
99,15,16,Jits_ISO_5,1,1,48,86,1508681968
99,15,16,Jits_ISO_5,2,5,80,127,1508705848
99,15,16,Jits_ISO_5,3,5,56,103,1508745712
99,15,16,Jits_ISO_5,0,5,56,103,1509175816
99,15,16,Jits_ISO_5,1,5,63,98,1509185864
99,15,16,Jits_ISO_5,2,1,48,83,1509198048
99,15,16,Jits_ISO_5,3,5,80,127,1509206264
99,15,16,Jits_ISO_5,0,5,63,98,1509716632
99,15,16,Jits_ISO_5,1,5,80,127,1509735748
99,15,16,Jits_ISO_5,2,1,48,84,1509742980
99,15,16,Jits_ISO_5,3,5,56,103,1509756124
99,15,16,Jits_ISO_5,0,5,56,103,1510155664
99,15,16,Jits_ISO_5,1,1,48,80,1510222676
99,15,16,Jits_ISO_5,2,5,80,127,1510235404
99,15,16,Jits_ISO_5,3,5,63,98,1510245820
99,15,16,Jits_ISO_5,0,5,80,127,1510696392
99,15,16,Jits_ISO_5,1,5,63,98,1510705692
99,15,16,Jits_ISO_5,2,5,56,103,1510736336
99,15,16,Jits_ISO_5,3,1,48,80,1510746304
99,15,16,Jits_ISO_5,0,5,63,98,1511156060
99,15,16,Jits_ISO_5,1,5,80,127,1511195996
99,15,16,Jits_ISO_5,2,1,48,70,1511208184
99,15,16,Jits_ISO_5,3,5,56,103,1511256404
99,15,16,Jits_ISO_5,0,5,63,98,1511665984
99,15,16,Jits_ISO_5,1,5,56,103,1511716184
99,15,16,Jits_ISO_5,2,1,48,65,1511718932
99,15,16,Jits_ISO_5,3,5,80,127,1511745776
99,15,16,Jits_ISO_5,0,5,80,127,1512175980
99,15,16,Jits_ISO_5,1,5,63,98,1512186104
99,15,16,Jits_ISO_5,2,1,48,78,1512202848
99,15,16,Jits_ISO_5,3,5,56,103,1512255848
99,15,16,Jits_ISO_5,0,1,48,66,1512681760
99,15,16,Jits_ISO_5,1,5,80,127,1512746224
99,15,16,Jits_ISO_5,2,5,56,103,1512755816
99,15,16,Jits_ISO_5,3,5,63,98,1512758736
99,15,16,Jits_ISO_5,0,5,56,103,1513185800
99,15,16,Jits_ISO_5,1,5,80,127,1513206036
99,15,16,Jits_ISO_5,2,5,63,98,1513216232
99,15,16,Jits_ISO_5,3,1,48,70,1513236280
99,15,16,Jits_ISO_5,0,1,48,73,1513694452
99,15,16,Jits_ISO_5,1,5,63,98,1513696024
99,15,16,Jits_ISO_5,2,5,56,103,1513735664
99,15,16,Jits_ISO_5,3,5,80,127,1513755972
99,15,16,Jits_ISO_5,0,1,48,74,1514194928
99,15,16,Jits_ISO_5,1,5,63,98,1514196512
99,15,16,Jits_ISO_5,2,5,56,103,1514255704
99,15,16,Jits_ISO_5,3,5,80,127,1514258696
99,15,16,Jits_ISO_5,0,5,56,103,1514666204
99,15,16,Jits_ISO_5,1,5,80,127,1514685768
99,15,16,Jits_ISO_5,2,1,48,68,1514686808
99,15,16,Jits_ISO_5,3,5,63,98,1514725624
99,15,16,Jits_ISO_5,0,1,48,74,1515166368
99,15,16,Jits_ISO_5,1,5,56,103,1515195840
99,15,16,Jits_ISO_5,2,5,63,98,1515216224
99,15,16,Jits_ISO_5,3,5,80,127,1515225668
99,15,16,Jits_ISO_5,0,1,48,66,1515639880
99,15,16,Jits_ISO_5,1,5,80,127,1515665756
99,15,16,Jits_ISO_5,2,5,56,103,1515695656
99,15,16,Jits_ISO_5,3,5,63,98,1515736416
99,15,16,Jits_ISO_5,0,1,48,65,1516154080
99,15,16,Jits_ISO_5,1,5,80,127,1516175824
99,15,16,Jits_ISO_5,2,5,56,103,1516196136
99,15,16,Jits_ISO_5,3,5,63,98,1516255756
99,15,16,Jits_ISO_5,0,1,48,59,1516664376
99,15,16,Jits_ISO_5,1,5,56,103,1516685676
99,15,16,Jits_ISO_5,2,5,80,127,1516706208
99,15,16,Jits_ISO_5,3,5,63,98,1516765756
99,15,16,Jits_ISO_5,0,1,48,66,1517161628
99,15,16,Jits_ISO_5,1,5,80,127,1517166076
99,15,16,Jits_ISO_5,2,5,56,103,1517176128
99,15,16,Jits_ISO_5,3,5,63,98,1517216064
99,15,16,Jits_ISO_5,0,1,48,75,1517625080
99,15,16,Jits_ISO_5,1,5,63,98,1517665660
99,15,16,Jits_ISO_5,2,5,56,103,1517705744
99,15,16,Jits_ISO_5,3,5,80,127,1517708960
99,15,16,Jits_ISO_5,0,1,48,56,1518144584
99,15,16,Jits_ISO_5,1,5,63,98,1518185760
99,15,16,Jits_ISO_5,2,5,80,127,1518225920
99,15,16,Jits_ISO_5,3,5,56,103,1518255652
99,15,16,Jits_ISO_5,0,1,48,73,1518604532
99,15,16,Jits_ISO_5,1,5,56,103,1518685640
99,15,16,Jits_ISO_5,2,5,63,98,1518696196
99,15,16,Jits_ISO_5,3,5,80,127,1518725572
99,15,16,Jits_ISO_5,0,1,48,81,1519158648
99,15,16,Jits_ISO_5,1,5,80,127,1519176204
99,15,16,Jits_ISO_5,2,5,63,98,1519245760
99,15,16,Jits_ISO_5,3,5,56,103,1519257284
99,15,16,Jits_ISO_5,0,1,48,70,1519647072
99,15,16,Jits_ISO_5,1,5,63,98,1519675792
99,15,16,Jits_ISO_5,2,5,56,103,1519746604
99,15,16,Jits_ISO_5,3,5,80,127,1519755600
99,15,16,Jits_ISO_5,0,1,48,84,1520170620
99,15,16,Jits_ISO_5,1,5,63,98,1520175524
99,15,16,Jits_ISO_5,2,5,56,103,1520195832
99,15,16,Jits_ISO_5,3,5,80,127,1520235796
99,15,16,Jits_ISO_5,0,5,56,103,1520685376
99,15,16,Jits_ISO_5,1,5,63,98,1520695572
99,15,16,Jits_ISO_5,2,1,48,46,1520700108
99,15,16,Jits_ISO_5,3,5,80,127,1520775752
99,15,16,Jits_ISO_5,0,1,48,68,1521173776
99,15,16,Jits_ISO_5,1,5,63,98,1521175816
99,15,16,Jits_ISO_5,2,5,56,103,1521205864
99,15,16,Jits_ISO_5,3,5,80,127,1521245676
99,15,16,Jits_ISO_5,0,1,48,74,1521672516
99,15,16,Jits_ISO_5,1,5,56,103,1521675696
99,15,16,Jits_ISO_5,2,5,63,98,1521715784
99,15,16,Jits_ISO_5,3,5,80,127,1521755596
99,15,16,Jits_ISO_5,0,5,80,127,1522176332
99,15,16,Jits_ISO_5,1,1,48,73,1522210240
99,15,16,Jits_ISO_5,2,5,56,103,1522256268
99,15,16,Jits_ISO_5,3,5,63,98,1522265592
99,15,16,Jits_ISO_5,0,5,56,103,1522716156
99,15,16,Jits_ISO_5,1,5,63,98,1522719152
99,15,16,Jits_ISO_5,2,5,80,127,1522726204
99,15,16,Jits_ISO_5,3,1,48,79,1522739364
99,15,16,Jits_ISO_5,0,5,56,103,1523236352
99,15,16,Jits_ISO_5,1,1,48,80,1523240888
99,15,16,Jits_ISO_5,2,5,63,98,1523255532
99,15,16,Jits_ISO_5,3,5,80,127,1523265952
99,15,16,Jits_ISO_5,0,5,63,98,1523696096
99,15,16,Jits_ISO_5,1,5,80,127,1523706216
99,15,16,Jits_ISO_5,2,5,56,103,1523725628
99,15,16,Jits_ISO_5,3,1,48,83,1523728452
99,15,16,Jits_ISO_5,0,5,63,98,1524195828
99,15,16,Jits_ISO_5,1,1,48,79,1524199916
99,15,16,Jits_ISO_5,2,5,56,103,1524275760
99,15,16,Jits_ISO_5,3,5,80,127,1524278828
99,15,16,Jits_ISO_5,0,5,63,98,1524696532
99,15,16,Jits_ISO_5,1,5,56,103,1524715792
99,15,16,Jits_ISO_5,2,1,48,73,1524743252
99,15,16,Jits_ISO_5,3,5,80,127,1524745608
99,15,16,Jits_ISO_5,0,5,56,103,1525196036
99,15,16,Jits_ISO_5,1,5,63,98,1525215672
99,15,16,Jits_ISO_5,2,5,80,127,1525225792
99,15,16,Jits_ISO_5,3,1,48,69,1525233700
99,15,16,Jits_ISO_5,0,1,48,64,1525705192
99,15,16,Jits_ISO_5,1,5,56,103,1525725744
99,15,16,Jits_ISO_5,2,5,63,98,1525756536
99,15,16,Jits_ISO_5,3,5,80,127,1525759824
99,15,16,Jits_ISO_5,0,5,56,103,1526186592
99,15,16,Jits_ISO_5,1,1,48,65,1526206948
99,15,16,Jits_ISO_5,2,5,63,98,1526226372
99,15,16,Jits_ISO_5,3,5,80,127,1526285640
99,15,16,Jits_ISO_5,0,5,56,103,1526705524
99,15,16,Jits_ISO_5,1,1,48,78,1526707968
99,15,16,Jits_ISO_5,2,5,63,98,1526715712
99,15,16,Jits_ISO_5,3,5,80,127,1526776248
99,15,16,Jits_ISO_5,0,5,56,103,1527206468
99,15,16,Jits_ISO_5,1,5,80,127,1527225804
99,15,16,Jits_ISO_5,2,1,48,77,1527229672
99,15,16,Jits_ISO_5,3,5,63,98,1527256668
99,15,16,Jits_ISO_5,0,5,80,127,1527705916
99,15,16,Jits_ISO_5,1,5,56,103,1527716260
99,15,16,Jits_ISO_5,2,5,63,98,1527735672
99,15,16,Jits_ISO_5,3,1,48,79,1527744336
99,15,16,Jits_ISO_5,0,5,63,98,1528195472
99,15,16,Jits_ISO_5,1,1,48,77,1528225488
99,15,16,Jits_ISO_5,2,5,80,127,1528276528
99,15,16,Jits_ISO_5,3,5,56,103,1528285680
99,15,16,Jits_ISO_5,0,1,48,67,1528725372
99,15,16,Jits_ISO_5,1,5,80,127,1528755588
99,15,16,Jits_ISO_5,2,5,56,103,1528775964
99,15,16,Jits_ISO_5,3,5,63,98,1528779184
99,15,16,Jits_ISO_5,0,5,63,98,1529225804
99,15,16,Jits_ISO_5,1,5,80,127,1529229092
99,15,16,Jits_ISO_5,2,5,56,103,1529285892
99,15,16,Jits_ISO_5,3,1,48,79,1529291552
99,15,16,Jits_ISO_5,0,5,56,103,1529705828
99,15,16,Jits_ISO_5,1,5,80,127,1529715952
99,15,16,Jits_ISO_5,2,5,63,98,1529755960
99,15,16,Jits_ISO_5,3,1,48,83,1529790312
99,15,16,Jits_ISO_5,0,5,56,103,1530196580
99,15,16,Jits_ISO_5,1,5,63,98,1530255704
99,15,16,Jits_ISO_5,2,5,80,127,1530265824
99,15,16,Jits_ISO_5,3,1,48,84,1530276732
99,15,16,Jits_ISO_5,0,5,63,98,1530706448
99,15,16,Jits_ISO_5,1,5,80,127,1530746460
99,15,16,Jits_ISO_5,2,1,48,83,1530777680
99,15,16,Jits_ISO_5,3,5,56,103,1530786092
99,15,16,Jits_ISO_5,0,5,56,103,1531205936
99,15,16,Jits_ISO_5,1,1,48,64,1531256204
99,15,16,Jits_ISO_5,2,5,63,98,1531285892
99,15,16,Jits_ISO_5,3,5,80,127,1531289184
99,15,16,Jits_ISO_5,0,9999,9999,9999,1471893608
99,15,16,Jits_ISO_5,1,9999,9999,9999,1472393332
99,15,16,Jits_ISO_5,2,9999,9999,9999,1472894024
99,15,16,Jits_ISO_5,3,9999,9999,9999,1473393768
99,15,16,Jits_ISO_5,4,9999,9999,9999,1473893428
99,15,16,Jits_ISO_5,5,9999,9999,9999,1474393164
99,15,16,Jits_ISO_5,6,9999,9999,9999,1474893920
99,15,16,Jits_ISO_5,7,9999,9999,9999,1475393656
99,15,16,Jits_ISO_5,8,9999,9999,9999,1475893324
99,15,16,Jits_ISO_5,9,9999,9999,9999,1476394044
99,15,16,Jits_ISO_5,10,9999,9999,9999,1476893788
99,15,16,Jits_ISO_5,11,9999,9999,9999,1477393464
99,15,16,Jits_ISO_5,12,9999,9999,9999,1477893192
99,15,16,Jits_ISO_5,13,9999,9999,9999,1478393972
99,15,16,Jits_ISO_5,14,9999,9999,9999,1478893628
99,15,16,Jits_ISO_5,15,9999,9999,9999,1479393372
99,15,16,Jits_ISO_5,16,9999,9999,9999,1479894092
99,15,16,Jits_ISO_5,17,9999,9999,9999,1480404088
99,15,16,Jits_ISO_5,18,9999,9999,9999,1480903760
99,15,16,Jits_ISO_5,19,9999,9999,9999,1481403508
99,15,16,Jits_ISO_5,20,9999,9999,9999,1481903168
99,15,16,Jits_ISO_5,21,9999,9999,9999,1482403948
99,15,16,Jits_ISO_5,22,9999,9999,9999,1482903620
99,15,16,Jits_ISO_5,23,9999,9999,9999,1483403364
99,15,16,Jits_ISO_5,24,9999,9999,9999,1483904088
99,15,16,Jits_ISO_5,25,9999,9999,9999,1484414016
99,15,16,Jits_ISO_5,26,9999,9999,9999,1484913764
99,15,16,Jits_ISO_5,27,9999,9999,9999,1485413488
99,15,16,Jits_ISO_5,28,9999,9999,9999,1485913160
99,15,16,Jits_ISO_5,29,9999,9999,9999,1486413924
99,15,16,Jits_ISO_5,30,9999,9999,9999,1486913592
99,15,16,Jits_ISO_5,31,9999,9999,9999,1487413312
99,15,16,Jits_ISO_5,32,9999,9999,9999,1487914104
99,15,16,Jits_ISO_5,33,9999,9999,9999,1488413780
99,15,16,Jits_ISO_5,34,9999,9999,9999,1488913528
99,15,16,Jits_ISO_5,35,9999,9999,9999,1489413204
99,15,16,Jits_ISO_5,36,9999,9999,9999,1489913972
99,15,16,Jits_ISO_5,37,9999,9999,9999,1490413628
99,15,16,Jits_ISO_5,38,9999,9999,9999,1490913376
99,15,16,Jits_ISO_5,39,9999,9999,9999,1491414084
99,15,16,Jits_ISO_5,40,9999,9999,9999,1491924084
99,15,16,Jits_ISO_5,41,9999,9999,9999,1492423752
99,15,16,Jits_ISO_5,42,9999,9999,9999,1492923500
99,15,16,Jits_ISO_5,43,9999,9999,9999,1493423156
99,15,16,Jits_ISO_5,44,9999,9999,9999,1493923932
99,15,16,Jits_ISO_5,45,9999,9999,9999,1494423660
99,15,16,Jits_ISO_5,46,9999,9999,9999,1494923320
99,15,16,Jits_ISO_5,47,9999,9999,9999,1495424104
99,15,16,Jits_ISO_5,48,9999,9999,9999,1495934028
99,15,16,Jits_ISO_5,49,9999,9999,9999,1496433780
99,15,16,Jits_ISO_5,50,9999,9999,9999,1496933432
99,15,16,Jits_ISO_5,51,9999,9999,9999,1497433184
99,15,16,Jits_ISO_5,52,9999,9999,9999,1497933880
99,15,16,Jits_ISO_5,53,9999,9999,9999,1498433620
99,15,16,Jits_ISO_5,54,9999,9999,9999,1498933356
99,15,16,Jits_ISO_5,55,9999,9999,9999,1499434076
99,15,16,Jits_ISO_5,56,9999,9999,9999,1499933748
99,15,16,Jits_ISO_5,57,9999,9999,9999,1500433488
99,15,16,Jits_ISO_5,58,9999,9999,9999,1500933224
99,15,16,Jits_ISO_5,59,9999,9999,9999,1501433920
99,15,16,Jits_ISO_5,60,9999,9999,9999,1501933652
99,15,16,Jits_ISO_5,61,9999,9999,9999,1502433384
99,15,16,Jits_ISO_5,62,9999,9999,9999,1502934108
99,15,16,Jits_ISO_5,63,9999,9999,9999,1503444032
99,15,16,Jits_ISO_5,64,9999,9999,9999,1503943764
99,15,16,Jits_ISO_5,65,9999,9999,9999,1504443512
99,15,16,Jits_ISO_5,66,9999,9999,9999,1504943184
99,15,16,Jits_ISO_5,67,9999,9999,9999,1505443956
99,15,16,Jits_ISO_5,68,9999,9999,9999,1505943616
99,15,16,Jits_ISO_5,69,9999,9999,9999,1506443352
99,15,16,Jits_ISO_5,70,9999,9999,9999,1506944120
99,15,16,Jits_ISO_5,71,9999,9999,9999,1507454056
99,15,16,Jits_ISO_5,72,9999,9999,9999,1507953716
99,15,16,Jits_ISO_5,73,9999,9999,9999,1508453452
99,15,16,Jits_ISO_5,74,9999,9999,9999,1508953184
99,15,16,Jits_ISO_5,75,9999,9999,9999,1509453936
99,15,16,Jits_ISO_5,76,9999,9999,9999,1509953608
99,15,16,Jits_ISO_5,77,9999,9999,9999,1510453344
99,15,16,Jits_ISO_5,78,9999,9999,9999,1510954068
99,15,16,Jits_ISO_5,79,9999,9999,9999,1511453812
99,15,16,Jits_ISO_5,80,9999,9999,9999,1511953476
99,15,16,Jits_ISO_5,81,9999,9999,9999,1512453212
99,15,16,Jits_ISO_5,82,9999,9999,9999,1512953928
99,15,16,Jits_ISO_5,83,9999,9999,9999,1513453660
99,15,16,Jits_ISO_5,84,9999,9999,9999,1513953336
99,15,16,Jits_ISO_5,85,9999,9999,9999,1514454112
99,15,16,Jits_ISO_5,86,9999,9999,9999,1514964032
99,15,16,Jits_ISO_5,87,9999,9999,9999,1515463780
99,15,16,Jits_ISO_5,88,9999,9999,9999,1515963516
99,15,16,Jits_ISO_5,89,9999,9999,9999,1516463172
99,15,16,Jits_ISO_5,90,9999,9999,9999,1516963956
99,15,16,Jits_ISO_5,91,9999,9999,9999,1517463612
99,15,16,Jits_ISO_5,92,9999,9999,9999,1517963336
99,15,16,Jits_ISO_5,93,9999,9999,9999,1518464116
99,15,16,Jits_ISO_5,94,9999,9999,9999,1518974032
99,15,16,Jits_ISO_5,95,9999,9999,9999,1519473768
99,15,16,Jits_ISO_5,96,9999,9999,9999,1519973428
99,15,16,Jits_ISO_5,97,9999,9999,9999,1520473156
99,15,16,Jits_ISO_5,98,9999,9999,9999,1520973912
99,15,16,Jits_ISO_5,99,9999,9999,9999,1521473648
99,15,16,Jits_ISO_5,100,9999,9999,9999,1521973308
99,15,16,Jits_ISO_5,101,9999,9999,9999,1522474088
99,15,16,Jits_ISO_5,102,9999,9999,9999,1522973748
99,15,16,Jits_ISO_5,103,9999,9999,9999,1523473500
99,15,16,Jits_ISO_5,104,9999,9999,9999,1523973172
99,15,16,Jits_ISO_5,105,9999,9999,9999,1524473948
99,15,16,Jits_ISO_5,106,9999,9999,9999,1524973680
99,15,16,Jits_ISO_5,107,9999,9999,9999,1525473336
99,15,16,Jits_ISO_5,108,9999,9999,9999,1525974124
99,15,16,Jits_ISO_5,109,9999,9999,9999,1526484048
99,15,16,Jits_ISO_5,110,9999,9999,9999,1526983796
99,15,16,Jits_ISO_5,111,9999,9999,9999,1527483472
99,15,16,Jits_ISO_5,112,9999,9999,9999,1527983216
99,15,16,Jits_ISO_5,113,9999,9999,9999,1528483940
99,15,16,Jits_ISO_5,114,9999,9999,9999,1528983668
99,15,16,Jits_ISO_5,115,9999,9999,9999,1529483324
99,15,16,Jits_ISO_5,116,9999,9999,9999,1529984104
99,15,16,Jits_ISO_5,117,9999,9999,9999,1530494040
99,15,16,Jits_ISO_5,118,9999,9999,9999,1530993716
99,15,16,Jits_ISO_5,119,9999,9999,9999,1531493444
99,16,18,Jits_Linear_8,0,5,56,103,1541181776
99,16,18,Jits_Linear_8,1,5,63,98,1541184948
99,16,18,Jits_Linear_8,2,5,80,127,1541188072
99,16,18,Jits_Linear_8,0,5,56,103,1542012300
99,16,18,Jits_Linear_8,1,5,63,98,1542015400
99,16,18,Jits_Linear_8,2,5,80,127,1542018524
99,16,18,Jits_Linear_8,0,5,80,127,1542772164
99,16,18,Jits_Linear_8,1,1,48,68,1542825036
99,16,18,Jits_Linear_8,2,5,63,98,1542862368
99,16,18,Jits_Linear_8,3,1,48,38,1542866152
99,16,18,Jits_Linear_8,4,5,56,103,1542872544
99,16,18,Jits_Linear_8,0,5,56,103,1543611908
99,16,18,Jits_Linear_8,1,5,63,98,1543622104
99,16,18,Jits_Linear_8,2,1,48,81,1543666352
99,16,18,Jits_Linear_8,3,5,80,127,1543712232
99,16,18,Jits_Linear_8,0,5,63,98,1544402384
99,16,18,Jits_Linear_8,1,5,80,127,1544432284
99,16,18,Jits_Linear_8,2,1,48,78,1544441704
99,16,18,Jits_Linear_8,3,5,56,103,1544461584
99,16,18,Jits_Linear_8,0,1,48,87,1545192212
99,16,18,Jits_Linear_8,1,5,56,103,1545221460
99,16,18,Jits_Linear_8,2,5,80,127,1545321868
99,16,18,Jits_Linear_8,3,5,63,98,1545372292
99,16,18,Jits_Linear_8,0,1,48,80,1546022020
99,16,18,Jits_Linear_8,1,5,56,103,1546031408
99,16,18,Jits_Linear_8,2,5,80,127,1546081708
99,16,18,Jits_Linear_8,3,5,63,98,1546121556
99,16,18,Jits_Linear_8,0,1,48,73,1546823412
99,16,18,Jits_Linear_8,1,5,80,127,1546872460
99,16,18,Jits_Linear_8,2,5,63,98,1546901916
99,16,18,Jits_Linear_8,3,5,56,103,1546971656
99,16,18,Jits_Linear_8,0,1,48,72,1547682012
99,16,18,Jits_Linear_8,1,5,63,98,1547711780
99,16,18,Jits_Linear_8,2,5,56,103,1547741532
99,16,18,Jits_Linear_8,3,5,80,127,1547801908
99,16,18,Jits_Linear_8,0,5,56,103,1548461496
99,16,18,Jits_Linear_8,1,5,80,127,1548464488
99,16,18,Jits_Linear_8,2,1,48,68,1548526488
99,16,18,Jits_Linear_8,3,5,63,98,1548582332
99,16,18,Jits_Linear_8,0,1,48,72,1549283020
99,16,18,Jits_Linear_8,1,5,56,103,1549342236
99,16,18,Jits_Linear_8,2,5,80,127,1549382252
99,16,18,Jits_Linear_8,3,5,63,98,1549392380
99,16,18,Jits_Linear_8,0,1,48,70,1550079028
99,16,18,Jits_Linear_8,1,5,56,103,1550101836
99,16,18,Jits_Linear_8,2,5,80,127,1550122444
99,16,18,Jits_Linear_8,3,5,63,98,1550202324
99,16,18,Jits_Linear_8,0,1,48,71,1550884632
99,16,18,Jits_Linear_8,1,5,80,127,1550892304
99,16,18,Jits_Linear_8,2,5,56,103,1550991664
99,16,18,Jits_Linear_8,3,5,63,98,1551001936
99,16,18,Jits_Linear_8,0,5,63,98,1551661500
99,16,18,Jits_Linear_8,1,1,48,61,1551685448
99,16,18,Jits_Linear_8,2,5,80,127,1551721836
99,16,18,Jits_Linear_8,3,5,56,103,1551732256
99,16,18,Jits_Linear_8,0,1,48,76,1552430356
99,16,18,Jits_Linear_8,1,5,56,103,1552462292
99,16,18,Jits_Linear_8,2,5,63,98,1552531756
99,16,18,Jits_Linear_8,3,5,80,127,1552535124
99,16,18,Jits_Linear_8,0,1,48,70,1553170980
99,16,18,Jits_Linear_8,1,5,63,98,1553291712
99,16,18,Jits_Linear_8,2,5,56,103,1553341916
99,16,18,Jits_Linear_8,3,5,80,127,1553344836
99,16,18,Jits_Linear_8,0,1,48,77,1553973272
99,16,18,Jits_Linear_8,1,5,56,103,1554042172
99,16,18,Jits_Linear_8,2,5,80,127,1554045240
99,16,18,Jits_Linear_8,3,5,63,98,1554132364
99,16,18,Jits_Linear_8,0,1,48,72,1554733672
99,16,18,Jits_Linear_8,1,5,63,98,1554871568
99,16,18,Jits_Linear_8,2,5,56,103,1554961704
99,16,18,Jits_Linear_8,3,5,80,127,1554991528
99,16,18,Jits_Linear_8,0,1,48,78,1555559836
99,16,18,Jits_Linear_8,1,5,56,103,1555652088
99,16,18,Jits_Linear_8,2,5,63,98,1555752324
99,16,18,Jits_Linear_8,3,5,80,127,1555782072
99,16,18,Jits_Linear_8,0,1,48,74,1556400876
99,16,18,Jits_Linear_8,1,5,63,98,1556461964
99,16,18,Jits_Linear_8,2,5,56,103,1556472160
99,16,18,Jits_Linear_8,3,5,80,127,1556562300
99,16,18,Jits_Linear_8,0,1,48,80,1557218300
99,16,18,Jits_Linear_8,1,5,63,98,1557261648
99,16,18,Jits_Linear_8,2,5,56,103,1557341604
99,16,18,Jits_Linear_8,3,5,80,127,1557344520
99,16,18,Jits_Linear_8,0,5,80,127,1558002360
99,16,18,Jits_Linear_8,1,5,63,98,1558021476
99,16,18,Jits_Linear_8,2,1,48,76,1558062056
99,16,18,Jits_Linear_8,3,5,56,103,1558081860
99,16,18,Jits_Linear_8,0,1,48,63,1558803296
99,16,18,Jits_Linear_8,1,5,56,103,1558822352
99,16,18,Jits_Linear_8,2,5,63,98,1558841688
99,16,18,Jits_Linear_8,3,5,80,127,1558845352
99,16,18,Jits_Linear_8,0,5,63,98,1559542236
99,16,18,Jits_Linear_8,1,1,48,67,1559562964
99,16,18,Jits_Linear_8,2,5,80,127,1559622100
99,16,18,Jits_Linear_8,3,5,56,103,1559632248
99,16,18,Jits_Linear_8,0,1,48,72,1560341696
99,16,18,Jits_Linear_8,1,5,63,98,1560343180
99,16,18,Jits_Linear_8,2,5,56,103,1560362372
99,16,18,Jits_Linear_8,3,5,80,127,1560411400
99,16,18,Jits_Linear_8,0,1,48,68,1561120444
99,16,18,Jits_Linear_8,1,5,80,127,1561122108
99,16,18,Jits_Linear_8,2,5,63,98,1561162196
99,16,18,Jits_Linear_8,3,5,56,103,1561181484
99,16,18,Jits_Linear_8,0,1,48,63,1561918452
99,16,18,Jits_Linear_8,1,5,56,103,1561932128
99,16,18,Jits_Linear_8,2,5,63,98,1561942352
99,16,18,Jits_Linear_8,3,5,80,127,1561962060
99,16,18,Jits_Linear_8,0,5,56,103,1562631492
99,16,18,Jits_Linear_8,1,1,48,66,1562664356
99,16,18,Jits_Linear_8,2,5,63,98,1562721500
99,16,18,Jits_Linear_8,3,5,80,127,1562782172
99,16,18,Jits_Linear_8,0,5,80,127,1563432312
99,16,18,Jits_Linear_8,1,5,56,103,1563441460
99,16,18,Jits_Linear_8,2,1,48,78,1563445628
99,16,18,Jits_Linear_8,3,5,63,98,1563512356
99,16,18,Jits_Linear_8,0,5,63,98,1564232004
99,16,18,Jits_Linear_8,1,1,48,69,1564263096
99,16,18,Jits_Linear_8,2,5,80,127,1564322236
99,16,18,Jits_Linear_8,3,5,56,103,1564332504
99,16,18,Jits_Linear_8,0,5,63,98,1564941636
99,16,18,Jits_Linear_8,1,5,80,127,1564991988
99,16,18,Jits_Linear_8,2,1,48,81,1565013196
99,16,18,Jits_Linear_8,3,5,56,103,1565052248
99,16,18,Jits_Linear_8,0,5,56,103,1565732172
99,16,18,Jits_Linear_8,1,1,48,70,1565736264
99,16,18,Jits_Linear_8,2,5,80,127,1565782392
99,16,18,Jits_Linear_8,3,5,63,98,1565801804
99,16,18,Jits_Linear_8,0,5,56,103,1566462260
99,16,18,Jits_Linear_8,1,1,48,68,1566467920
99,16,18,Jits_Linear_8,2,5,80,127,1566521824
99,16,18,Jits_Linear_8,3,5,63,98,1566592412
99,16,18,Jits_Linear_8,0,5,56,103,1567222244
99,16,18,Jits_Linear_8,1,5,80,127,1567251772
99,16,18,Jits_Linear_8,2,1,48,67,1567258860
99,16,18,Jits_Linear_8,3,5,63,98,1567281664
99,16,18,Jits_Linear_8,0,1,48,67,1567973880
99,16,18,Jits_Linear_8,1,5,56,103,1568022156
99,16,18,Jits_Linear_8,2,5,80,127,1568042464
99,16,18,Jits_Linear_8,3,5,63,98,1568101744
99,16,18,Jits_Linear_8,0,1,48,62,1568770572
99,16,18,Jits_Linear_8,1,5,80,127,1568861576
99,16,18,Jits_Linear_8,2,5,56,103,1568871908
99,16,18,Jits_Linear_8,3,5,63,98,1568882028
99,16,18,Jits_Linear_8,0,5,56,103,1569572160
99,16,18,Jits_Linear_8,1,5,80,127,1569612176
99,16,18,Jits_Linear_8,2,1,48,76,1569639680
99,16,18,Jits_Linear_8,3,5,63,98,1569642016
99,16,18,Jits_Linear_8,0,5,56,103,1570292068
99,16,18,Jits_Linear_8,1,5,63,98,1570321896
99,16,18,Jits_Linear_8,2,5,80,127,1570361684
99,16,18,Jits_Linear_8,3,1,48,61,1570363476
99,16,18,Jits_Linear_8,0,5,80,127,1570991524
99,16,18,Jits_Linear_8,1,5,63,98,1571041580
99,16,18,Jits_Linear_8,2,1,48,62,1571061432
99,16,18,Jits_Linear_8,3,5,56,103,1571063004
99,16,18,Jits_Linear_8,0,5,56,103,1571771736
99,16,18,Jits_Linear_8,1,1,48,62,1571779340
99,16,18,Jits_Linear_8,2,5,80,127,1571842388
99,16,18,Jits_Linear_8,3,5,63,98,1571902012
99,16,18,Jits_Linear_8,0,5,80,127,1572512096
99,16,18,Jits_Linear_8,1,1,48,69,1572560104
99,16,18,Jits_Linear_8,2,5,63,98,1572602300
99,16,18,Jits_Linear_8,3,5,56,103,1572621788
99,16,18,Jits_Linear_8,0,5,63,98,1573272236
99,16,18,Jits_Linear_8,1,1,48,75,1573277004
99,16,18,Jits_Linear_8,2,5,56,103,1573292392
99,16,18,Jits_Linear_8,3,5,80,127,1573332328
99,16,18,Jits_Linear_8,0,5,80,127,1573972272
99,16,18,Jits_Linear_8,1,5,63,98,1573991908
99,16,18,Jits_Linear_8,2,1,48,66,1574026940
99,16,18,Jits_Linear_8,3,5,56,103,1574071620
99,16,18,Jits_Linear_8,0,5,63,98,1574701512
99,16,18,Jits_Linear_8,1,1,48,65,1574748100
99,16,18,Jits_Linear_8,2,5,56,103,1574811888
99,16,18,Jits_Linear_8,3,5,80,127,1574815036
99,16,18,Jits_Linear_8,0,5,63,98,1575462220
99,16,18,Jits_Linear_8,1,5,56,103,1575471520
99,16,18,Jits_Linear_8,2,5,80,127,1575474436
99,16,18,Jits_Linear_8,3,1,48,60,1575529044
99,16,18,Jits_Linear_8,0,5,56,103,1576182316
99,16,18,Jits_Linear_8,1,1,48,70,1576231520
99,16,18,Jits_Linear_8,2,5,80,127,1576301996
99,16,18,Jits_Linear_8,3,5,63,98,1576342068
99,16,18,Jits_Linear_8,0,5,56,103,1576931676
99,16,18,Jits_Linear_8,1,1,48,62,1576955172
99,16,18,Jits_Linear_8,2,5,80,127,1577011540
99,16,18,Jits_Linear_8,3,5,63,98,1577032148
99,16,18,Jits_Linear_8,0,5,56,103,1577661992
99,16,18,Jits_Linear_8,1,1,48,62,1577671336
99,16,18,Jits_Linear_8,2,5,63,98,1577772336
99,16,18,Jits_Linear_8,3,5,80,127,1577775624
99,16,18,Jits_Linear_8,0,1,48,63,1578394824
99,16,18,Jits_Linear_8,1,5,56,103,1578421520
99,16,18,Jits_Linear_8,2,5,80,127,1578452468
99,16,18,Jits_Linear_8,3,5,63,98,1578471956
99,16,18,Jits_Linear_8,0,5,63,98,1579132128
99,16,18,Jits_Linear_8,1,1,48,64,1579141048
99,16,18,Jits_Linear_8,2,5,56,103,1579142616
99,16,18,Jits_Linear_8,3,5,80,127,1579151836
99,16,18,Jits_Linear_8,0,5,80,127,1579841872
99,16,18,Jits_Linear_8,1,1,48,60,1579844320
99,16,18,Jits_Linear_8,2,5,56,103,1579892020
99,16,18,Jits_Linear_8,3,5,63,98,1579931960
99,16,18,Jits_Linear_8,0,1,48,55,1580553280
99,16,18,Jits_Linear_8,1,5,80,127,1580582296
99,16,18,Jits_Linear_8,2,5,63,98,1580602080
99,16,18,Jits_Linear_8,3,5,56,103,1580651788
99,16,18,Jits_Linear_8,0,5,80,127,1581312384
99,16,18,Jits_Linear_8,1,1,48,57,1581328156
99,16,18,Jits_Linear_8,2,5,56,103,1581341980
99,16,18,Jits_Linear_8,3,5,63,98,1581411980
99,16,18,Jits_Linear_8,0,1,48,51,1581987296
99,16,18,Jits_Linear_8,1,5,56,103,1582082480
99,16,18,Jits_Linear_8,2,5,80,127,1582091688
99,16,18,Jits_Linear_8,3,5,63,98,1582131628
99,16,18,Jits_Linear_8,0,5,56,103,1582712176
99,16,18,Jits_Linear_8,1,5,63,98,1582731664
99,16,18,Jits_Linear_8,2,1,48,65,1582766620
99,16,18,Jits_Linear_8,3,5,80,127,1582802160
99,16,18,Jits_Linear_8,0,5,63,98,1583451412
99,16,18,Jits_Linear_8,1,1,48,66,1583471916
99,16,18,Jits_Linear_8,2,5,80,127,1583511872
99,16,18,Jits_Linear_8,3,5,56,103,1583532332
99,16,18,Jits_Linear_8,0,5,80,127,1584151796
99,16,18,Jits_Linear_8,1,5,56,103,1584181472
99,16,18,Jits_Linear_8,2,1,48,62,1584206940
99,16,18,Jits_Linear_8,3,5,63,98,1584212212
99,16,18,Jits_Linear_8,0,5,56,103,1584861656
99,16,18,Jits_Linear_8,1,1,48,59,1584889120
99,16,18,Jits_Linear_8,2,5,63,98,1584922044
99,16,18,Jits_Linear_8,3,5,80,127,1584982888
99,16,18,Jits_Linear_8,0,5,80,127,1585591752
99,16,18,Jits_Linear_8,1,1,48,59,1585602896
99,16,18,Jits_Linear_8,2,5,56,103,1585612132
99,16,18,Jits_Linear_8,3,5,63,98,1585682036
99,16,18,Jits_Linear_8,0,5,80,127,1586302224
99,16,18,Jits_Linear_8,1,5,63,98,1586321860
99,16,18,Jits_Linear_8,2,1,48,60,1586346180
99,16,18,Jits_Linear_8,3,5,56,103,1586351604
99,16,18,Jits_Linear_8,0,5,80,127,1586991460
99,16,18,Jits_Linear_8,1,5,63,98,1587011848
99,16,18,Jits_Linear_8,2,1,48,54,1587034916
99,16,18,Jits_Linear_8,3,5,56,103,1587072628
99,16,18,Jits_Linear_8,0,5,80,127,1587691888
99,16,18,Jits_Linear_8,1,1,48,52,1587730676
99,16,18,Jits_Linear_8,2,5,56,103,1587792228
99,16,18,Jits_Linear_8,3,5,63,98,1587821904
99,16,18,Jits_Linear_8,0,5,63,98,1588382052
99,16,18,Jits_Linear_8,1,5,80,127,1588432332
99,16,18,Jits_Linear_8,2,5,56,103,1588451816
99,16,18,Jits_Linear_8,3,1,48,64,1588455464
99,16,18,Jits_Linear_8,0,5,80,127,1589122396
99,16,18,Jits_Linear_8,1,1,48,55,1589141856
99,16,18,Jits_Linear_8,2,5,56,103,1589152064
99,16,18,Jits_Linear_8,3,5,63,98,1589155208
99,16,18,Jits_Linear_8,0,1,48,58,1589829112
99,16,18,Jits_Linear_8,1,5,63,98,1589851428
99,16,18,Jits_Linear_8,2,5,56,103,1589891372
99,16,18,Jits_Linear_8,3,5,80,127,1589912052
99,16,18,Jits_Linear_8,0,5,80,127,1590491440
99,16,18,Jits_Linear_8,1,5,63,98,1590572360
99,16,18,Jits_Linear_8,2,1,48,60,1590578020
99,16,18,Jits_Linear_8,3,5,56,103,1590612240
99,16,18,Jits_Linear_8,0,5,63,98,1591202132
99,16,18,Jits_Linear_8,1,1,48,64,1591262868
99,16,18,Jits_Linear_8,2,5,80,127,1591281996
99,16,18,Jits_Linear_8,3,5,56,103,1591301708
99,16,18,Jits_Linear_8,0,5,56,103,1591932220
99,16,18,Jits_Linear_8,1,5,63,98,1591941744
99,16,18,Jits_Linear_8,2,5,80,127,1591981456
99,16,18,Jits_Linear_8,3,1,48,65,1591998352
99,16,18,Jits_Linear_8,0,5,56,103,1592541668
99,16,18,Jits_Linear_8,1,5,80,127,1592544588
99,16,18,Jits_Linear_8,2,5,63,98,1592681944
99,16,18,Jits_Linear_8,3,1,48,53,1592700800
99,16,18,Jits_Linear_8,0,5,56,103,1593221632
99,16,18,Jits_Linear_8,1,5,63,98,1593311768
99,16,18,Jits_Linear_8,2,1,48,65,1593350184
99,16,18,Jits_Linear_8,3,5,80,127,1593382264
99,16,18,Jits_Linear_8,0,1,48,62,1593978512
99,16,18,Jits_Linear_8,1,5,63,98,1593982212
99,16,18,Jits_Linear_8,2,5,80,127,1593985808
99,16,18,Jits_Linear_8,3,5,56,103,1594041856
99,16,18,Jits_Linear_8,0,1,48,65,1594685192
99,16,18,Jits_Linear_8,1,5,80,127,1594702180
99,16,18,Jits_Linear_8,2,5,56,103,1594721668
99,16,18,Jits_Linear_8,3,5,63,98,1594732088
99,16,18,Jits_Linear_8,0,5,56,103,1595291996
99,16,18,Jits_Linear_8,1,5,63,98,1595302192
99,16,18,Jits_Linear_8,2,5,80,127,1595371872
99,16,18,Jits_Linear_8,3,1,48,56,1595407800
99,16,18,Jits_Linear_8,0,5,80,127,1595971868
99,16,18,Jits_Linear_8,1,1,48,67,1596009932
99,16,18,Jits_Linear_8,2,5,56,103,1596022088
99,16,18,Jits_Linear_8,3,5,63,98,1596072288
99,16,18,Jits_Linear_8,0,1,48,67,1596710848
99,16,18,Jits_Linear_8,1,5,56,103,1596731704
99,16,18,Jits_Linear_8,2,5,63,98,1596741972
99,16,18,Jits_Linear_8,3,5,80,127,1596781860
99,16,18,Jits_Linear_8,0,5,56,103,1597352260
99,16,18,Jits_Linear_8,1,5,63,98,1597392276
99,16,18,Jits_Linear_8,2,1,48,67,1597399824
99,16,18,Jits_Linear_8,3,5,80,127,1597442396
99,16,18,Jits_Linear_8,0,5,80,127,1597982164
99,16,18,Jits_Linear_8,1,5,56,103,1598032096
99,16,18,Jits_Linear_8,2,5,63,98,1598051808
99,16,18,Jits_Linear_8,3,1,48,70,1598094408
99,16,18,Jits_Linear_8,0,5,80,127,1598661984
99,16,18,Jits_Linear_8,1,5,63,98,1598722528
99,16,18,Jits_Linear_8,2,1,48,58,1598766628
99,16,18,Jits_Linear_8,3,5,56,103,1598802192
99,16,18,Jits_Linear_8,0,5,80,127,1599312212
99,16,18,Jits_Linear_8,1,5,56,103,1599352228
99,16,18,Jits_Linear_8,2,5,63,98,1599371712
99,16,18,Jits_Linear_8,3,1,48,60,1599461440
99,16,18,Jits_Linear_8,0,5,56,103,1600032164
99,16,18,Jits_Linear_8,1,5,80,127,1600042436
99,16,18,Jits_Linear_8,2,5,63,98,1600082248
99,16,18,Jits_Linear_8,3,1,48,43,1600193924
99,16,18,Jits_Linear_8,0,5,56,103,1600762260
99,16,18,Jits_Linear_8,1,5,63,98,1600802124
99,16,18,Jits_Linear_8,2,5,80,127,1600805636
99,16,18,Jits_Linear_8,3,1,48,62,1600829132
99,16,18,Jits_Linear_8,0,5,63,98,1601311988
99,16,18,Jits_Linear_8,1,5,80,127,1601352004
99,16,18,Jits_Linear_8,2,5,56,103,1601421636
99,16,18,Jits_Linear_8,3,1,48,56,1601557492
99,16,18,Jits_Linear_8,0,5,63,98,1601962572
99,16,18,Jits_Linear_8,1,5,56,103,1602042668
99,16,18,Jits_Linear_8,2,5,80,127,1602101640
99,16,18,Jits_Linear_8,0,1,48,62,1602489048
99,16,18,Jits_Linear_8,1,5,80,127,1602632100
99,16,18,Jits_Linear_8,2,5,63,98,1602682404
99,16,18,Jits_Linear_8,3,5,56,103,1602711932
99,16,18,Jits_Linear_8,0,1,48,48,1603219596
99,16,18,Jits_Linear_8,1,5,56,103,1603291692
99,16,18,Jits_Linear_8,2,5,63,98,1603341584
99,16,18,Jits_Linear_8,3,5,80,127,1603351856
99,16,18,Jits_Linear_8,0,1,48,58,1603913756
99,16,18,Jits_Linear_8,1,5,56,103,1603962204
99,16,18,Jits_Linear_8,2,5,63,98,1604071808
99,16,18,Jits_Linear_8,3,5,80,127,1604092340
99,16,18,Jits_Linear_8,0,5,63,98,1604611508
99,16,18,Jits_Linear_8,1,1,48,55,1604655160
99,16,18,Jits_Linear_8,2,5,80,127,1604661780
99,16,18,Jits_Linear_8,3,5,56,103,1604751696
99,16,18,Jits_Linear_8,0,5,63,98,1605251384
99,16,18,Jits_Linear_8,1,5,80,127,1605282104
99,16,18,Jits_Linear_8,2,1,48,53,1605358560
99,16,18,Jits_Linear_8,3,5,56,103,1605372380
99,16,18,Jits_Linear_8,0,5,63,98,1605901792
99,16,18,Jits_Linear_8,1,5,56,103,1605912064
99,16,18,Jits_Linear_8,2,1,48,57,1606001896
99,16,18,Jits_Linear_8,3,5,80,127,1606012476
99,16,18,Jits_Linear_8,0,1,48,56,1606600596
99,16,18,Jits_Linear_8,1,5,63,98,1606652316
99,16,18,Jits_Linear_8,2,5,80,127,1606681996
99,16,18,Jits_Linear_8,3,5,56,103,1606711656
99,16,18,Jits_Linear_8,0,1,48,51,1607274868
99,16,18,Jits_Linear_8,1,5,80,127,1607311608
99,16,18,Jits_Linear_8,2,5,63,98,1607321880
99,16,18,Jits_Linear_8,3,5,56,103,1607351556
99,16,18,Jits_Linear_8,0,5,80,127,1607852720
99,16,18,Jits_Linear_8,1,5,63,98,1607871912
99,16,18,Jits_Linear_8,2,5,56,103,1607921888
99,16,18,Jits_Linear_8,3,1,48,46,1608002544
99,16,18,Jits_Linear_8,0,1,48,48,1608521204
99,16,18,Jits_Linear_8,1,5,63,98,1608522848
99,16,18,Jits_Linear_8,2,5,80,127,1608581816
99,16,18,Jits_Linear_8,3,5,56,103,1608601904
99,16,18,Jits_Linear_8,0,1,48,54,1609114124
99,16,18,Jits_Linear_8,1,5,63,98,1609122092
99,16,18,Jits_Linear_8,2,5,56,103,1609172592
99,16,18,Jits_Linear_8,3,5,80,127,1609181520
99,16,18,Jits_Linear_8,0,1,48,52,1609701748
99,16,18,Jits_Linear_8,1,5,56,103,1609791756
99,16,18,Jits_Linear_8,2,5,80,127,1609802236
99,16,18,Jits_Linear_8,3,5,63,98,1609901612
99,16,18,Jits_Linear_8,0,1,48,60,1610375112
99,16,18,Jits_Linear_8,1,5,80,127,1610391776
99,16,18,Jits_Linear_8,2,5,63,98,1610402344
99,16,18,Jits_Linear_8,3,5,56,103,1610551648
99,16,18,Jits_Linear_8,0,1,48,58,1611022156
99,16,18,Jits_Linear_8,1,5,63,98,1611031924
99,16,18,Jits_Linear_8,2,5,80,127,1611071936
99,16,18,Jits_Linear_8,3,5,56,103,1611151740
99,16,18,Jits_Linear_8,0,1,48,61,1611641284
99,16,18,Jits_Linear_8,1,5,56,103,1611651720
99,16,18,Jits_Linear_8,2,5,80,127,1611751732
99,16,18,Jits_Linear_8,3,5,63,98,1611772264
99,16,18,Jits_Linear_8,0,1,48,61,1612300320
99,16,18,Jits_Linear_8,1,5,80,127,1612341772
99,16,18,Jits_Linear_8,2,5,56,103,1612351820
99,16,18,Jits_Linear_8,3,5,63,98,1612442036
99,16,18,Jits_Linear_8,0,1,48,65,1612947004
99,16,18,Jits_Linear_8,1,5,56,103,1612972436
99,16,18,Jits_Linear_8,2,5,63,98,1612991772
99,16,18,Jits_Linear_8,3,5,80,127,1613071700
99,16,18,Jits_Linear_8,0,5,63,98,1613541720
99,16,18,Jits_Linear_8,1,1,48,55,1613589948
99,16,18,Jits_Linear_8,2,5,56,103,1613631924
99,16,18,Jits_Linear_8,3,5,80,127,1613634916
99,16,18,Jits_Linear_8,0,5,56,103,1614191928
99,16,18,Jits_Linear_8,1,1,48,60,1614252544
99,16,18,Jits_Linear_8,2,5,80,127,1614253808
99,16,18,Jits_Linear_8,3,5,63,98,1614261684
99,16,18,Jits_Linear_8,0,5,80,127,1614861692
99,16,18,Jits_Linear_8,1,5,56,103,1614871960
99,16,18,Jits_Linear_8,2,5,63,98,1614875028
99,16,18,Jits_Linear_8,3,1,48,62,1614886092
99,16,18,Jits_Linear_8,0,5,56,103,1615442456
99,16,18,Jits_Linear_8,1,5,80,127,1615451456
99,16,18,Jits_Linear_8,2,5,63,98,1615471916
99,16,18,Jits_Linear_8,3,1,48,54,1615534520
99,16,18,Jits_Linear_8,0,5,63,98,1616032196
99,16,18,Jits_Linear_8,1,5,80,127,1616091620
99,16,18,Jits_Linear_8,2,1,48,45,1616127996
99,16,18,Jits_Linear_8,3,5,56,103,1616141740
99,16,18,Jits_Linear_8,0,1,48,49,1616703336
99,16,18,Jits_Linear_8,1,5,63,98,1616731636
99,16,18,Jits_Linear_8,2,5,56,103,1616741684
99,16,18,Jits_Linear_8,3,5,80,127,1616791884
99,16,18,Jits_Linear_8,0,5,63,98,1617241512
99,16,18,Jits_Linear_8,1,1,48,55,1617260616
99,16,18,Jits_Linear_8,2,5,80,127,1617262036
99,16,18,Jits_Linear_8,3,5,56,103,1617272308
99,16,18,Jits_Linear_8,0,1,48,51,1617779636
99,16,18,Jits_Linear_8,1,5,63,98,1617851672
99,16,18,Jits_Linear_8,2,5,80,127,1617854968
99,16,18,Jits_Linear_8,3,5,56,103,1617891752
99,16,18,Jits_Linear_8,0,1,48,51,1618349740
99,16,18,Jits_Linear_8,1,5,63,98,1618531688
99,16,18,Jits_Linear_8,2,5,80,127,1618562636
99,16,18,Jits_Linear_8,3,5,56,103,1618571560
99,16,18,Jits_Linear_8,0,5,56,103,1619091920
99,16,18,Jits_Linear_8,1,5,80,127,1619121448
99,16,18,Jits_Linear_8,2,1,48,55,1619123012
99,16,18,Jits_Linear_8,3,5,63,98,1619152164
99,16,18,Jits_Linear_8,0,1,48,53,1619719772
99,16,18,Jits_Linear_8,1,5,63,98,1619792268
99,16,18,Jits_Linear_8,2,5,56,103,1619832036
99,16,18,Jits_Linear_8,3,5,80,127,1619835412
99,16,18,Jits_Linear_8,0,5,80,127,1620291924
99,16,18,Jits_Linear_8,1,1,48,55,1620311332
99,16,18,Jits_Linear_8,2,5,56,103,1620371744
99,16,18,Jits_Linear_8,3,5,63,98,1620422004
99,16,18,Jits_Linear_8,0,5,80,127,1620871432
99,16,18,Jits_Linear_8,1,5,56,103,1620892040
99,16,18,Jits_Linear_8,2,1,48,53,1620916660
99,16,18,Jits_Linear_8,3,5,63,98,1620982240
99,16,18,Jits_Linear_8,0,5,80,127,1621511596
99,16,18,Jits_Linear_8,1,1,48,55,1621521312
99,16,18,Jits_Linear_8,2,5,63,98,1621551604
99,16,18,Jits_Linear_8,3,5,56,103,1621592392
99,16,18,Jits_Linear_8,0,5,63,98,1622081860
99,16,18,Jits_Linear_8,1,5,80,127,1622142576
99,16,18,Jits_Linear_8,2,1,48,57,1622147272
99,16,18,Jits_Linear_8,3,5,56,103,1622172172
99,16,18,Jits_Linear_8,0,5,56,103,1622681876
99,16,18,Jits_Linear_8,1,1,48,58,1622707092
99,16,18,Jits_Linear_8,2,5,80,127,1622711696
99,16,18,Jits_Linear_8,3,5,63,98,1622801904
99,16,18,Jits_Linear_8,0,5,56,103,1623281956
99,16,18,Jits_Linear_8,1,1,48,57,1623320676
99,16,18,Jits_Linear_8,2,5,80,127,1623391520
99,16,18,Jits_Linear_8,3,5,63,98,1623422452
99,16,18,Jits_Linear_8,0,1,48,50,1623921304
99,16,18,Jits_Linear_8,1,5,56,103,1623932416
99,16,18,Jits_Linear_8,2,5,63,98,1623991688
99,16,18,Jits_Linear_8,3,5,80,127,1624022320
99,16,18,Jits_Linear_8,0,5,56,103,1624492344
99,16,18,Jits_Linear_8,1,1,48,51,1624512848
99,16,18,Jits_Linear_8,2,5,63,98,1624562168
99,16,18,Jits_Linear_8,3,5,80,127,1624581360
99,16,18,Jits_Linear_8,0,5,80,127,1625051596
99,16,18,Jits_Linear_8,1,5,63,98,1625071908
99,16,18,Jits_Linear_8,2,1,48,55,1625080280
99,16,18,Jits_Linear_8,3,5,56,103,1625122328
99,16,18,Jits_Linear_8,0,5,63,98,1625651452
99,16,18,Jits_Linear_8,1,5,80,127,1625661944
99,16,18,Jits_Linear_8,2,1,48,48,1625678420
99,16,18,Jits_Linear_8,3,5,56,103,1625711940
99,16,18,Jits_Linear_8,0,5,63,98,1626232208
99,16,18,Jits_Linear_8,1,1,48,51,1626253236
99,16,18,Jits_Linear_8,2,5,80,127,1626301736
99,16,18,Jits_Linear_8,3,5,56,103,1626322568
99,16,18,Jits_Linear_8,0,1,48,51,1626841272
99,16,18,Jits_Linear_8,1,5,63,98,1626842632
99,16,18,Jits_Linear_8,2,5,80,127,1626845680
99,16,18,Jits_Linear_8,3,5,56,103,1626912220
99,16,18,Jits_Linear_8,0,5,80,127,1627371808
99,16,18,Jits_Linear_8,1,5,56,103,1627392492
99,16,18,Jits_Linear_8,2,5,63,98,1627401568
99,16,18,Jits_Linear_8,3,1,48,50,1627409936
99,16,18,Jits_Linear_8,0,5,56,103,1627971960
99,16,18,Jits_Linear_8,1,1,48,55,1627980356
99,16,18,Jits_Linear_8,2,5,63,98,1628062188
99,16,18,Jits_Linear_8,3,5,80,127,1628065404
99,16,18,Jits_Linear_8,0,5,80,127,1628521788
99,16,18,Jits_Linear_8,1,5,56,103,1628532284
99,16,18,Jits_Linear_8,2,5,63,98,1628551472
99,16,18,Jits_Linear_8,3,1,48,59,1628582988
99,16,18,Jits_Linear_8,0,5,63,98,1629092492
99,16,18,Jits_Linear_8,1,1,48,49,1629151692
99,16,18,Jits_Linear_8,2,5,80,127,1629153104
99,16,18,Jits_Linear_8,3,5,56,103,1629161732
99,16,18,Jits_Linear_8,0,1,48,49,1629680024
99,16,18,Jits_Linear_8,1,5,63,98,1629732416
99,16,18,Jits_Linear_8,2,5,80,127,1629761868
99,16,18,Jits_Linear_8,3,5,56,103,1629801816
99,16,18,Jits_Linear_8,0,5,56,103,1630292432
99,16,18,Jits_Linear_8,1,1,48,54,1630297276
99,16,18,Jits_Linear_8,2,5,80,127,1630301648
99,16,18,Jits_Linear_8,3,5,63,98,1630341440
99,16,18,Jits_Linear_8,0,5,80,127,1630821720
99,16,18,Jits_Linear_8,1,1,48,56,1630826784
99,16,18,Jits_Linear_8,2,5,56,103,1630901732
99,16,18,Jits_Linear_8,3,5,63,98,1630911856
99,16,18,Jits_Linear_8,0,1,48,55,1631359428
99,16,18,Jits_Linear_8,1,5,80,127,1631432136
99,16,18,Jits_Linear_8,2,5,56,103,1631511848
99,16,18,Jits_Linear_8,3,5,63,98,1631522416
99,16,18,Jits_Linear_8,0,1,48,43,1631940564
99,16,18,Jits_Linear_8,1,5,80,127,1631952424
99,16,18,Jits_Linear_8,2,5,56,103,1632002480
99,16,18,Jits_Linear_8,3,5,63,98,1632051692
99,16,18,Jits_Linear_8,0,1,48,43,1632521684
99,16,18,Jits_Linear_8,1,5,56,103,1632571756
99,16,18,Jits_Linear_8,2,5,63,98,1632574748
99,16,18,Jits_Linear_8,3,5,80,127,1632621892
99,16,18,Jits_Linear_8,0,1,48,53,1633044644
99,16,18,Jits_Linear_8,1,5,56,103,1633152420
99,16,18,Jits_Linear_8,2,5,63,98,1633182172
99,16,18,Jits_Linear_8,3,5,80,127,1633192292
99,16,18,Jits_Linear_8,0,5,63,98,1633622456
99,16,18,Jits_Linear_8,1,5,56,103,1633691988
99,16,18,Jits_Linear_8,2,1,48,59,1633700284
99,16,18,Jits_Linear_8,3,5,80,127,1633742332
99,16,18,Jits_Linear_8,0,5,63,98,1634212412
99,16,18,Jits_Linear_8,1,5,56,103,1634221332
99,16,18,Jits_Linear_8,2,5,80,127,1634224404
99,16,18,Jits_Linear_8,3,1,48,54,1634247672
99,16,18,Jits_Linear_8,0,5,80,127,1634712152
99,16,18,Jits_Linear_8,1,1,48,52,1634728980
99,16,18,Jits_Linear_8,2,5,56,103,1634772464
99,16,18,Jits_Linear_8,3,1,48,23,1634810116
99,16,18,Jits_Linear_8,4,5,63,98,1634861456
99,16,18,Jits_Linear_8,0,5,80,127,1635261868
99,16,18,Jits_Linear_8,1,1,48,53,1635358108
99,16,18,Jits_Linear_8,2,5,56,103,1635362260
99,16,18,Jits_Linear_8,3,5,63,98,1635402348
99,16,18,Jits_Linear_8,0,5,56,103,1635861736
99,16,18,Jits_Linear_8,1,5,63,98,1635882492
99,16,18,Jits_Linear_8,2,5,80,127,1635922232
99,16,18,Jits_Linear_8,3,1,48,55,1635926848
99,16,18,Jits_Linear_8,0,5,63,98,1636382180
99,16,18,Jits_Linear_8,1,5,56,103,1636401444
99,16,18,Jits_Linear_8,2,1,48,54,1636441524
99,16,18,Jits_Linear_8,3,5,80,127,1636501856
99,16,18,Jits_Linear_8,0,5,63,98,1636911452
99,16,18,Jits_Linear_8,1,1,48,58,1636948080
99,16,18,Jits_Linear_8,2,5,80,127,1637022356
99,16,18,Jits_Linear_8,3,5,56,103,1637051720
99,16,18,Jits_Linear_8,0,5,56,103,1637471620
99,16,18,Jits_Linear_8,1,5,63,98,1637502268
99,16,18,Jits_Linear_8,2,5,80,127,1637551424
99,16,18,Jits_Linear_8,3,1,48,54,1637564808
99,16,18,Jits_Linear_8,0,5,63,98,1637981500
99,16,18,Jits_Linear_8,1,5,56,103,1638012372
99,16,18,Jits_Linear_8,2,5,80,127,1638061380
99,16,18,Jits_Linear_8,3,1,48,54,1638132824
99,16,18,Jits_Linear_8,0,5,56,103,1638551900
99,16,18,Jits_Linear_8,1,5,63,98,1638572508
99,16,18,Jits_Linear_8,2,5,80,127,1638652452
99,16,18,Jits_Linear_8,3,1,48,52,1638767588
99,16,18,Jits_Linear_8,0,5,63,98,1639072188
99,16,18,Jits_Linear_8,1,5,56,103,1639131536
99,16,18,Jits_Linear_8,2,5,80,127,1639162408
99,16,18,Jits_Linear_8,0,1,48,50,1639467756
99,16,18,Jits_Linear_8,1,5,56,103,1639651668
99,16,18,Jits_Linear_8,2,5,80,127,1639712284
99,16,18,Jits_Linear_8,3,5,63,98,1639752072
99,16,18,Jits_Linear_8,0,1,48,57,1640158888
99,16,18,Jits_Linear_8,1,5,63,98,1640161624
99,16,18,Jits_Linear_8,2,5,56,103,1640222316
99,16,18,Jits_Linear_8,3,5,80,127,1640291632
99,16,18,Jits_Linear_8,0,1,48,57,1640743612
99,16,18,Jits_Linear_8,1,5,56,103,1640771888
99,16,18,Jits_Linear_8,2,5,63,98,1640782404
99,16,18,Jits_Linear_8,3,5,80,127,1640785696
99,16,18,Jits_Linear_8,0,5,63,98,1641242044
99,16,18,Jits_Linear_8,1,5,56,103,1641302312
99,16,18,Jits_Linear_8,2,5,80,127,1641305452
99,16,18,Jits_Linear_8,3,1,48,51,1641322664
99,16,18,Jits_Linear_8,0,5,63,98,1641751892
99,16,18,Jits_Linear_8,1,5,80,127,1641781568
99,16,18,Jits_Linear_8,2,5,56,103,1641802176
99,16,18,Jits_Linear_8,3,1,48,50,1641825096
99,16,18,Jits_Linear_8,0,5,56,103,1642291500
99,16,18,Jits_Linear_8,1,1,48,53,1642327824
99,16,18,Jits_Linear_8,2,5,63,98,1642341648
99,16,18,Jits_Linear_8,3,5,80,127,1642421576
99,16,18,Jits_Linear_8,0,5,80,127,1642792312
99,16,18,Jits_Linear_8,1,5,63,98,1642832128
99,16,18,Jits_Linear_8,2,1,48,50,1642849644
99,16,18,Jits_Linear_8,3,5,56,103,1642851612
99,16,18,Jits_Linear_8,0,5,56,103,1643382160
99,16,18,Jits_Linear_8,1,5,80,127,1643392356
99,16,18,Jits_Linear_8,2,1,48,43,1643407908
99,16,18,Jits_Linear_8,3,5,63,98,1643411688
99,16,18,Jits_Linear_8,0,5,56,103,1643882000
99,16,18,Jits_Linear_8,1,1,48,53,1643913820
99,16,18,Jits_Linear_8,2,5,63,98,1643932200
99,16,18,Jits_Linear_8,3,5,80,127,1643961876
99,16,18,Jits_Linear_8,0,5,56,103,1644362264
99,16,18,Jits_Linear_8,1,5,63,98,1644372188
99,16,18,Jits_Linear_8,2,1,48,54,1644391720
99,16,18,Jits_Linear_8,3,5,80,127,1644421484
99,16,18,Jits_Linear_8,0,5,56,103,1644872208
99,16,18,Jits_Linear_8,1,1,48,54,1644873800
99,16,18,Jits_Linear_8,2,5,80,127,1644876492
99,16,18,Jits_Linear_8,3,5,63,98,1645031644
99,16,18,Jits_Linear_8,0,5,63,98,1645401436
99,16,18,Jits_Linear_8,1,5,56,103,1645472316
99,16,18,Jits_Linear_8,2,1,48,52,1645473360
99,16,18,Jits_Linear_8,3,5,80,127,1645512024
99,16,18,Jits_Linear_8,0,5,63,98,1645952368
99,16,18,Jits_Linear_8,1,1,48,50,1645968288
99,16,18,Jits_Linear_8,2,5,56,103,1646041668
99,16,18,Jits_Linear_8,3,5,80,127,1646044588
99,16,18,Jits_Linear_8,0,5,56,103,1646441848
99,16,18,Jits_Linear_8,1,1,48,48,1646506400
99,16,18,Jits_Linear_8,2,5,63,98,1646532052
99,16,18,Jits_Linear_8,3,5,80,127,1646542324
99,16,18,Jits_Linear_8,0,5,56,103,1646922336
99,16,18,Jits_Linear_8,1,5,63,98,1646972340
99,16,18,Jits_Linear_8,2,1,48,46,1646999820
99,16,18,Jits_Linear_8,3,5,80,127,1647001936
99,16,18,Jits_Linear_8,0,1,48,45,1647490208
99,16,18,Jits_Linear_8,1,5,63,98,1647501612
99,16,18,Jits_Linear_8,2,5,80,127,1647512032
99,16,18,Jits_Linear_8,3,5,56,103,1647572348
99,16,18,Jits_Linear_8,0,5,63,98,1647921484
99,16,18,Jits_Linear_8,1,5,80,127,1647982196
99,16,18,Jits_Linear_8,2,5,56,103,1648021912
99,16,18,Jits_Linear_8,3,1,48,36,1648047876
99,16,18,Jits_Linear_8,0,5,56,103,1648521656
99,16,18,Jits_Linear_8,1,5,80,127,1648542264
99,16,18,Jits_Linear_8,2,5,63,98,1648561452
99,16,18,Jits_Linear_8,3,1,48,46,1648574912
99,16,18,Jits_Linear_8,0,5,63,98,1648941388
99,16,18,Jits_Linear_8,1,5,56,103,1648961996
99,16,18,Jits_Linear_8,2,5,80,127,1649001808
99,16,18,Jits_Linear_8,3,1,48,43,1649079084
99,16,18,Jits_Linear_8,0,5,63,98,1649452300
99,16,18,Jits_Linear_8,1,5,80,127,1649482196
99,16,18,Jits_Linear_8,2,5,56,103,1649501708
99,16,18,Jits_Linear_8,3,1,48,46,1649602968
99,16,18,Jits_Linear_8,0,5,80,127,1649922380
99,16,18,Jits_Linear_8,1,5,56,103,1649971464
99,16,18,Jits_Linear_8,2,5,63,98,1650032100
99,16,18,Jits_Linear_8,3,1,48,38,1650222956
99,16,18,Jits_Linear_8,0,5,63,98,1650401692
99,16,18,Jits_Linear_8,1,5,56,103,1650521448
99,16,18,Jits_Linear_8,2,5,80,127,1650552168
99,16,18,Jits_Linear_8,0,5,80,127,1650932196
99,16,18,Jits_Linear_8,1,5,63,98,1650951612
99,16,18,Jits_Linear_8,2,5,56,103,1651022140
99,16,18,Jits_Linear_8,3,1,48,47,1651065560
99,16,18,Jits_Linear_8,0,5,63,98,1651442080
99,16,18,Jits_Linear_8,1,5,56,103,1651452204
99,16,18,Jits_Linear_8,2,5,80,127,1651532100
99,16,18,Jits_Linear_8,0,1,48,46,1651785144
99,16,18,Jits_Linear_8,1,5,56,103,1651992196
99,16,18,Jits_Linear_8,2,5,80,127,1652021500
99,16,18,Jits_Linear_8,3,5,63,98,1652031996
99,16,18,Jits_Linear_8,0,9999,9999,9999,1541590084
99,16,18,Jits_Linear_8,1,9999,9999,9999,1542419536
99,16,18,Jits_Linear_8,2,9999,9999,9999,1543239748
99,16,18,Jits_Linear_8,3,9999,9999,9999,1544059980
99,16,18,Jits_Linear_8,4,9999,9999,9999,1544879228
99,16,18,Jits_Linear_8,5,9999,9999,9999,1545689172
99,16,18,Jits_Linear_8,6,9999,9999,9999,1546499188
99,16,18,Jits_Linear_8,7,9999,9999,9999,1547309132
99,16,18,Jits_Linear_8,8,9999,9999,9999,1548119108
99,16,18,Jits_Linear_8,9,9999,9999,9999,1548929112
99,16,18,Jits_Linear_8,10,9999,9999,9999,1549729860
99,16,18,Jits_Linear_8,11,9999,9999,9999,1550529616
99,16,18,Jits_Linear_8,12,9999,9999,9999,1551329376
99,16,18,Jits_Linear_8,13,9999,9999,9999,1552129128
99,16,18,Jits_Linear_8,14,9999,9999,9999,1552929916
99,16,18,Jits_Linear_8,15,9999,9999,9999,1553719396
99,16,18,Jits_Linear_8,16,9999,9999,9999,1554509920
99,16,18,Jits_Linear_8,17,9999,9999,9999,1555299440
99,16,18,Jits_Linear_8,18,9999,9999,9999,1556089984
99,16,18,Jits_Linear_8,19,9999,9999,9999,1556879476
99,16,18,Jits_Linear_8,20,9999,9999,9999,1557659748
99,16,18,Jits_Linear_8,21,9999,9999,9999,1558440020
99,16,18,Jits_Linear_8,22,9999,9999,9999,1559219256
99,16,18,Jits_Linear_8,23,9999,9999,9999,1559999600
99,16,18,Jits_Linear_8,24,9999,9999,9999,1560779876
99,16,18,Jits_Linear_8,25,9999,9999,9999,1561549884
99,16,18,Jits_Linear_8,26,9999,9999,9999,1562319972
99,16,18,Jits_Linear_8,27,9999,9999,9999,1563089984
99,16,18,Jits_Linear_8,28,9999,9999,9999,1563860080
99,16,18,Jits_Linear_8,29,9999,9999,9999,1564630112
99,16,18,Jits_Linear_8,30,9999,9999,9999,1565399152
99,16,18,Jits_Linear_8,31,9999,9999,9999,1566159944
99,16,18,Jits_Linear_8,32,9999,9999,9999,1566919776
99,16,18,Jits_Linear_8,33,9999,9999,9999,1567679612
99,16,18,Jits_Linear_8,34,9999,9999,9999,1568439372
99,16,18,Jits_Linear_8,35,9999,9999,9999,1569189988
99,16,18,Jits_Linear_8,36,9999,9999,9999,1569939552
99,16,18,Jits_Linear_8,37,9999,9999,9999,1570689128
99,16,18,Jits_Linear_8,38,9999,9999,9999,1571439672
99,16,18,Jits_Linear_8,39,9999,9999,9999,1572189248
99,16,18,Jits_Linear_8,40,9999,9999,9999,1572929660
99,16,18,Jits_Linear_8,41,9999,9999,9999,1573669940
99,16,18,Jits_Linear_8,42,9999,9999,9999,1574409308
99,16,18,Jits_Linear_8,43,9999,9999,9999,1575149652
99,16,18,Jits_Linear_8,44,9999,9999,9999,1575889980
99,16,18,Jits_Linear_8,45,9999,9999,9999,1576619092
99,16,18,Jits_Linear_8,46,9999,9999,9999,1577349188
99,16,18,Jits_Linear_8,47,9999,9999,9999,1578079348
99,16,18,Jits_Linear_8,48,9999,9999,9999,1578809420
99,16,18,Jits_Linear_8,49,9999,9999,9999,1579539568
99,16,18,Jits_Linear_8,50,9999,9999,9999,1580259380
99,16,18,Jits_Linear_8,51,9999,9999,9999,1580979288
99,16,18,Jits_Linear_8,52,9999,9999,9999,1581699180
99,16,18,Jits_Linear_8,53,9999,9999,9999,1582420060
99,16,18,Jits_Linear_8,54,9999,9999,9999,1583139924
99,16,18,Jits_Linear_8,55,9999,9999,9999,1583849564
99,16,18,Jits_Linear_8,56,9999,9999,9999,1584559188
99,16,18,Jits_Linear_8,57,9999,9999,9999,1585269880
99,16,18,Jits_Linear_8,58,9999,9999,9999,1585979500
99,16,18,Jits_Linear_8,59,9999,9999,9999,1586689140
99,16,18,Jits_Linear_8,60,9999,9999,9999,1587389568
99,16,18,Jits_Linear_8,61,9999,9999,9999,1588089924
99,16,18,Jits_Linear_8,62,9999,9999,9999,1588789348
99,16,18,Jits_Linear_8,63,9999,9999,9999,1589489752
99,16,18,Jits_Linear_8,64,9999,9999,9999,1590189136
99,16,18,Jits_Linear_8,65,9999,9999,9999,1590879288
99,16,18,Jits_Linear_8,66,9999,9999,9999,1591569504
99,16,18,Jits_Linear_8,67,9999,9999,9999,1592259656
99,16,18,Jits_Linear_8,68,9999,9999,9999,1592949884
99,16,18,Jits_Linear_8,69,9999,9999,9999,1593640020
99,16,18,Jits_Linear_8,70,9999,9999,9999,1594319988
99,16,18,Jits_Linear_8,71,9999,9999,9999,1594999880
99,16,18,Jits_Linear_8,72,9999,9999,9999,1595679812
99,16,18,Jits_Linear_8,73,9999,9999,9999,1596359788
99,16,18,Jits_Linear_8,74,9999,9999,9999,1597039692
99,16,18,Jits_Linear_8,75,9999,9999,9999,1597709440
99,16,18,Jits_Linear_8,76,9999,9999,9999,1598379076
99,16,18,Jits_Linear_8,77,9999,9999,9999,1599049808
99,16,18,Jits_Linear_8,78,9999,9999,9999,1599719508
99,16,18,Jits_Linear_8,79,9999,9999,9999,1600389220
99,16,18,Jits_Linear_8,80,9999,9999,9999,1601049684
99,16,18,Jits_Linear_8,81,9999,9999,9999,1601709124
99,16,18,Jits_Linear_8,82,9999,9999,9999,1602369596
99,16,18,Jits_Linear_8,83,9999,9999,9999,1603030080
99,16,18,Jits_Linear_8,84,9999,9999,9999,1603699768
99,16,18,Jits_Linear_8,85,9999,9999,9999,1604350036
99,16,18,Jits_Linear_8,86,9999,9999,9999,1604999280
99,16,18,Jits_Linear_8,87,9999,9999,9999,1605649464
99,16,18,Jits_Linear_8,88,9999,9999,9999,1606299748
99,16,18,Jits_Linear_8,89,9999,9999,9999,1606949948
99,16,18,Jits_Linear_8,90,9999,9999,9999,1607589980
99,16,18,Jits_Linear_8,91,9999,9999,9999,1608229976
99,16,18,Jits_Linear_8,92,9999,9999,9999,1608869996
99,16,18,Jits_Linear_8,93,9999,9999,9999,1609509988
99,16,18,Jits_Linear_8,94,9999,9999,9999,1610150016
99,16,18,Jits_Linear_8,95,9999,9999,9999,1610779752
99,16,18,Jits_Linear_8,96,9999,9999,9999,1611409512
99,16,18,Jits_Linear_8,97,9999,9999,9999,1612039252
99,16,18,Jits_Linear_8,98,9999,9999,9999,1612670064
99,16,18,Jits_Linear_8,99,9999,9999,9999,1613299804
99,16,18,Jits_Linear_8,100,9999,9999,9999,1613919296
99,16,18,Jits_Linear_8,101,9999,9999,9999,1614539892
99,16,18,Jits_Linear_8,102,9999,9999,9999,1615159372
99,16,18,Jits_Linear_8,103,9999,9999,9999,1615779928
99,16,18,Jits_Linear_8,104,9999,9999,9999,1616399424
99,16,18,Jits_Linear_8,105,9999,9999,9999,1617009784
99,16,18,Jits_Linear_8,106,9999,9999,9999,1617620036
99,16,18,Jits_Linear_8,107,9999,9999,9999,1618229304
99,16,18,Jits_Linear_8,108,9999,9999,9999,1618839668
99,16,18,Jits_Linear_8,109,9999,9999,9999,1619449924
99,16,18,Jits_Linear_8,110,9999,9999,9999,1620050032
99,16,18,Jits_Linear_8,111,9999,9999,9999,1620650104
99,16,18,Jits_Linear_8,112,9999,9999,9999,1621249140
99,16,18,Jits_Linear_8,113,9999,9999,9999,1621849172
99,16,18,Jits_Linear_8,114,9999,9999,9999,1622449256
99,16,18,Jits_Linear_8,115,9999,9999,9999,1623040104
99,16,18,Jits_Linear_8,116,9999,9999,9999,1623639096
99,16,18,Jits_Linear_8,117,9999,9999,9999,1624229972
99,16,18,Jits_Linear_8,118,9999,9999,9999,1624819784
99,16,18,Jits_Linear_8,119,9999,9999,9999,1625409600
99,16,18,Jits_Linear_8,120,9999,9999,9999,1625989176
99,16,18,Jits_Linear_8,121,9999,9999,9999,1626569836
99,16,18,Jits_Linear_8,122,9999,9999,9999,1627149372
99,16,18,Jits_Linear_8,123,9999,9999,9999,1627729980
99,16,18,Jits_Linear_8,124,9999,9999,9999,1628309604
99,16,18,Jits_Linear_8,125,9999,9999,9999,1628879936
99,16,18,Jits_Linear_8,126,9999,9999,9999,1629449304
99,16,18,Jits_Linear_8,127,9999,9999,9999,1630019708
99,16,18,Jits_Linear_8,128,9999,9999,9999,1630590052
99,16,18,Jits_Linear_8,129,9999,9999,9999,1631159420
99,16,18,Jits_Linear_8,130,9999,9999,9999,1631719508
99,16,18,Jits_Linear_8,131,9999,9999,9999,1632279648
99,16,18,Jits_Linear_8,132,9999,9999,9999,1632839780
99,16,18,Jits_Linear_8,133,9999,9999,9999,1633399872
99,16,18,Jits_Linear_8,134,9999,9999,9999,1633960012
99,16,18,Jits_Linear_8,135,9999,9999,9999,1634509948
99,16,18,Jits_Linear_8,136,9999,9999,9999,1635059804
99,16,18,Jits_Linear_8,137,9999,9999,9999,1635609688
99,16,18,Jits_Linear_8,138,9999,9999,9999,1636159580
99,16,18,Jits_Linear_8,139,9999,9999,9999,1636709492
99,16,18,Jits_Linear_8,140,9999,9999,9999,1637249108
99,16,18,Jits_Linear_8,141,9999,9999,9999,1637789768
99,16,18,Jits_Linear_8,142,9999,9999,9999,1638329464
99,16,18,Jits_Linear_8,143,9999,9999,9999,1638870124
99,16,18,Jits_Linear_8,144,9999,9999,9999,1639420028
99,16,18,Jits_Linear_8,145,9999,9999,9999,1639949392
99,16,18,Jits_Linear_8,146,9999,9999,9999,1640479856
99,16,18,Jits_Linear_8,147,9999,9999,9999,1641009272
99,16,18,Jits_Linear_8,148,9999,9999,9999,1641539656
99,16,18,Jits_Linear_8,149,9999,9999,9999,1642070140
99,16,18,Jits_Linear_8,150,9999,9999,9999,1642599488
99,16,18,Jits_Linear_8,151,9999,9999,9999,1643119704
99,16,18,Jits_Linear_8,152,9999,9999,9999,1643639924
99,16,18,Jits_Linear_8,153,9999,9999,9999,1644160072
99,16,18,Jits_Linear_8,154,9999,9999,9999,1644689500
99,16,18,Jits_Linear_8,155,9999,9999,9999,1645199444
99,16,18,Jits_Linear_8,156,9999,9999,9999,1645709400
99,16,18,Jits_Linear_8,157,9999,9999,9999,1646219344
99,16,18,Jits_Linear_8,158,9999,9999,9999,1646729288
99,16,18,Jits_Linear_8,159,9999,9999,9999,1647239236
99,16,18,Jits_Linear_8,160,9999,9999,9999,1647739980
99,16,18,Jits_Linear_8,161,9999,9999,9999,1648239732
99,16,18,Jits_Linear_8,162,9999,9999,9999,1648739416
99,16,18,Jits_Linear_8,163,9999,9999,9999,1649239108
99,16,18,Jits_Linear_8,164,9999,9999,9999,1649739828
99,16,18,Jits_Linear_8,165,9999,9999,9999,1650229312
99,16,18,Jits_Linear_8,166,9999,9999,9999,1650719868
99,16,18,Jits_Linear_8,167,9999,9999,9999,1651209296
99,16,18,Jits_Linear_8,168,9999,9999,9999,1651699796
99,16,18,Jits_Linear_8,169,9999,9999,9999,1652189308
99,17,19,Jits_Linear_5,0,5,56,103,1660526000
99,17,19,Jits_Linear_5,1,5,63,98,1660529100
99,17,19,Jits_Linear_5,2,5,80,127,1660532144
99,17,19,Jits_Linear_5,0,5,56,103,1661006236
99,17,19,Jits_Linear_5,1,5,63,98,1661009180
99,17,19,Jits_Linear_5,2,5,80,127,1661012600
99,17,19,Jits_Linear_5,0,5,56,103,1661485492
99,17,19,Jits_Linear_5,1,5,80,127,1661495764
99,17,19,Jits_Linear_5,2,5,63,98,1661516024
99,17,19,Jits_Linear_5,0,5,63,98,1661915552
99,17,19,Jits_Linear_5,1,1,48,61,1661927360
99,17,19,Jits_Linear_5,2,5,80,127,1661946268
99,17,19,Jits_Linear_5,3,5,56,103,1661955420
99,17,19,Jits_Linear_5,0,1,48,62,1662392264
99,17,19,Jits_Linear_5,1,5,80,127,1662456140
99,17,19,Jits_Linear_5,2,5,56,103,1662466412
99,17,19,Jits_Linear_5,3,5,63,98,1662496072
99,17,19,Jits_Linear_5,0,5,63,98,1662936288
99,17,19,Jits_Linear_5,1,1,48,60,1662950940
99,17,19,Jits_Linear_5,2,5,56,103,1662966180
99,17,19,Jits_Linear_5,3,5,80,127,1662976452
99,17,19,Jits_Linear_5,0,5,56,103,1663375740
99,17,19,Jits_Linear_5,1,5,63,98,1663426020
99,17,19,Jits_Linear_5,2,1,48,51,1663426984
99,17,19,Jits_Linear_5,3,5,80,127,1663446396
99,17,19,Jits_Linear_5,0,5,80,127,1663866076
99,17,19,Jits_Linear_5,1,1,48,62,1663882452
99,17,19,Jits_Linear_5,2,5,63,98,1663916348
99,17,19,Jits_Linear_5,3,5,56,103,1663956288
99,17,19,Jits_Linear_5,0,1,48,64,1664341096
99,17,19,Jits_Linear_5,1,5,56,103,1664355884
99,17,19,Jits_Linear_5,2,5,63,98,1664386388
99,17,19,Jits_Linear_5,3,5,80,127,1664456128
99,17,19,Jits_Linear_5,0,1,48,73,1664835220
99,17,19,Jits_Linear_5,1,5,56,103,1664846208
99,17,19,Jits_Linear_5,2,5,80,127,1664905552
99,17,19,Jits_Linear_5,3,5,63,98,1664936336
99,17,19,Jits_Linear_5,0,1,48,68,1665335584
99,17,19,Jits_Linear_5,1,5,56,103,1665345868
99,17,19,Jits_Linear_5,2,5,63,98,1665356316
99,17,19,Jits_Linear_5,3,5,80,127,1665396104
99,17,19,Jits_Linear_5,0,1,48,77,1665822740
99,17,19,Jits_Linear_5,1,5,63,98,1665836412
99,17,19,Jits_Linear_5,2,5,80,127,1665916164
99,17,19,Jits_Linear_5,3,5,56,103,1665925448
99,17,19,Jits_Linear_5,0,1,48,68,1666340708
99,17,19,Jits_Linear_5,1,5,63,98,1666395392
99,17,19,Jits_Linear_5,2,5,56,103,1666435464
99,17,19,Jits_Linear_5,3,5,80,127,1666438384
99,17,19,Jits_Linear_5,0,5,56,103,1666856244
99,17,19,Jits_Linear_5,1,5,63,98,1666865392
99,17,19,Jits_Linear_5,2,1,48,70,1666874360
99,17,19,Jits_Linear_5,3,5,80,127,1666905500
99,17,19,Jits_Linear_5,0,5,56,103,1667345896
99,17,19,Jits_Linear_5,1,5,63,98,1667348960
99,17,19,Jits_Linear_5,2,5,80,127,1667366204
99,17,19,Jits_Linear_5,3,1,48,68,1667377640
99,17,19,Jits_Linear_5,0,1,48,67,1667855144
99,17,19,Jits_Linear_5,1,5,80,127,1667866104
99,17,19,Jits_Linear_5,2,5,56,103,1667876080
99,17,19,Jits_Linear_5,3,5,63,98,1667946744
99,17,19,Jits_Linear_5,0,5,63,98,1668365948
99,17,19,Jits_Linear_5,1,5,56,103,1668386036
99,17,19,Jits_Linear_5,2,1,48,61,1668396428
99,17,19,Jits_Linear_5,3,5,80,127,1668466000
99,17,19,Jits_Linear_5,0,5,56,103,1668885792
99,17,19,Jits_Linear_5,1,1,48,61,1668906368
99,17,19,Jits_Linear_5,2,5,80,127,1668926020
99,17,19,Jits_Linear_5,3,5,63,98,1668935996
99,17,19,Jits_Linear_5,0,5,80,127,1669385544
99,17,19,Jits_Linear_5,1,1,48,62,1669403880
99,17,19,Jits_Linear_5,2,5,63,98,1669416260
99,17,19,Jits_Linear_5,3,5,56,103,1669456224
99,17,19,Jits_Linear_5,0,1,48,65,1669902512
99,17,19,Jits_Linear_5,1,5,56,103,1669915956
99,17,19,Jits_Linear_5,2,5,63,98,1669945856
99,17,19,Jits_Linear_5,3,5,80,127,1669996084
99,17,19,Jits_Linear_5,0,1,48,61,1670418016
99,17,19,Jits_Linear_5,1,5,80,127,1670425912
99,17,19,Jits_Linear_5,2,5,56,103,1670465852
99,17,19,Jits_Linear_5,3,5,63,98,1670476072
99,17,19,Jits_Linear_5,0,5,80,127,1670925980
99,17,19,Jits_Linear_5,1,1,48,54,1670953884
99,17,19,Jits_Linear_5,2,5,63,98,1670965840
99,17,19,Jits_Linear_5,3,5,56,103,1671026032
99,17,19,Jits_Linear_5,0,5,56,103,1671445756
99,17,19,Jits_Linear_5,1,1,48,65,1671447168
99,17,19,Jits_Linear_5,2,5,80,127,1671456244
99,17,19,Jits_Linear_5,3,5,63,98,1671535920
99,17,19,Jits_Linear_5,0,1,48,68,1671941740
99,17,19,Jits_Linear_5,1,5,80,127,1671966128
99,17,19,Jits_Linear_5,2,5,63,98,1672025648
99,17,19,Jits_Linear_5,3,5,56,103,1672056132
99,17,19,Jits_Linear_5,0,5,56,103,1672486276
99,17,19,Jits_Linear_5,1,1,48,67,1672508348
99,17,19,Jits_Linear_5,2,5,80,127,1672545936
99,17,19,Jits_Linear_5,3,5,63,98,1672585804
99,17,19,Jits_Linear_5,0,1,48,65,1673006328
99,17,19,Jits_Linear_5,1,5,56,103,1673066012
99,17,19,Jits_Linear_5,2,5,63,98,1673076208
99,17,19,Jits_Linear_5,3,5,80,127,1673079792
99,17,19,Jits_Linear_5,4,1,48,29,1673090324
99,17,19,Jits_Linear_5,0,5,80,127,1673546188
99,17,19,Jits_Linear_5,1,1,48,72,1673583164
99,17,19,Jits_Linear_5,2,5,63,98,1673636248
99,17,19,Jits_Linear_5,3,5,56,103,1673645396
99,17,19,Jits_Linear_5,0,5,56,103,1674075696
99,17,19,Jits_Linear_5,1,5,63,98,1674078872
99,17,19,Jits_Linear_5,2,5,80,127,1674081988
99,17,19,Jits_Linear_5,3,1,48,64,1674116812
99,17,19,Jits_Linear_5,0,1,48,66,1674625584
99,17,19,Jits_Linear_5,1,5,80,127,1674627080
99,17,19,Jits_Linear_5,2,5,63,98,1674675936
99,17,19,Jits_Linear_5,3,5,56,103,1674706436
99,17,19,Jits_Linear_5,0,5,56,103,1675136368
99,17,19,Jits_Linear_5,1,5,80,127,1675145740
99,17,19,Jits_Linear_5,2,1,48,66,1675153812
99,17,19,Jits_Linear_5,3,5,63,98,1675216312
99,17,19,Jits_Linear_5,0,1,48,61,1675651164
99,17,19,Jits_Linear_5,1,5,56,103,1675675996
99,17,19,Jits_Linear_5,2,5,63,98,1675695780
99,17,19,Jits_Linear_5,3,5,80,127,1675755936
99,17,19,Jits_Linear_5,0,1,48,58,1676180520
99,17,19,Jits_Linear_5,1,5,80,127,1676205576
99,17,19,Jits_Linear_5,2,5,63,98,1676276072
99,17,19,Jits_Linear_5,3,5,56,103,1676295632
99,17,19,Jits_Linear_5,0,1,48,58,1676721340
99,17,19,Jits_Linear_5,1,5,80,127,1676765652
99,17,19,Jits_Linear_5,2,5,56,103,1676775700
99,17,19,Jits_Linear_5,3,5,63,98,1676785972
99,17,19,Jits_Linear_5,0,1,48,57,1677278868
99,17,19,Jits_Linear_5,1,5,80,127,1677295980
99,17,19,Jits_Linear_5,2,5,56,103,1677315396
99,17,19,Jits_Linear_5,3,5,63,98,1677386060
99,17,19,Jits_Linear_5,0,1,48,65,1677827336
99,17,19,Jits_Linear_5,1,5,56,103,1677846016
99,17,19,Jits_Linear_5,2,5,80,127,1677875840
99,17,19,Jits_Linear_5,3,5,63,98,1677895928
99,17,19,Jits_Linear_5,0,1,48,57,1678373080
99,17,19,Jits_Linear_5,1,5,63,98,1678385776
99,17,19,Jits_Linear_5,2,5,56,103,1678445896
99,17,19,Jits_Linear_5,3,5,80,127,1678475780
99,17,19,Jits_Linear_5,0,5,63,98,1678926176
99,17,19,Jits_Linear_5,1,5,80,127,1678929688
99,17,19,Jits_Linear_5,2,1,48,58,1678944516
99,17,19,Jits_Linear_5,3,5,56,103,1679016232
99,17,19,Jits_Linear_5,0,5,56,103,1679495756
99,17,19,Jits_Linear_5,1,5,63,98,1679526184
99,17,19,Jits_Linear_5,2,1,48,57,1679527820
99,17,19,Jits_Linear_5,3,5,80,127,1679566188
99,17,19,Jits_Linear_5,0,5,63,98,1680045508
99,17,19,Jits_Linear_5,1,1,48,63,1680083676
99,17,19,Jits_Linear_5,2,5,56,103,1680086340
99,17,19,Jits_Linear_5,3,5,80,127,1680105824
99,17,19,Jits_Linear_5,0,5,63,98,1680605652
99,17,19,Jits_Linear_5,1,1,48,62,1680636420
99,17,19,Jits_Linear_5,2,5,56,103,1680645736
99,17,19,Jits_Linear_5,3,5,80,127,1680655636
99,17,19,Jits_Linear_5,0,5,80,127,1681135984
99,17,19,Jits_Linear_5,1,1,48,58,1681151756
99,17,19,Jits_Linear_5,2,5,63,98,1681205884
99,17,19,Jits_Linear_5,3,5,56,103,1681226148
99,17,19,Jits_Linear_5,0,1,48,63,1681676184
99,17,19,Jits_Linear_5,1,5,56,103,1681685800
99,17,19,Jits_Linear_5,2,5,80,127,1681706484
99,17,19,Jits_Linear_5,3,5,63,98,1681746372
99,17,19,Jits_Linear_5,0,1,48,62,1682181620
99,17,19,Jits_Linear_5,1,5,63,98,1682256232
99,17,19,Jits_Linear_5,2,5,80,127,1682275572
99,17,19,Jits_Linear_5,3,5,56,103,1682315868
99,17,19,Jits_Linear_5,0,1,48,56,1682771684
99,17,19,Jits_Linear_5,1,5,63,98,1682816300
99,17,19,Jits_Linear_5,2,5,56,103,1682835940
99,17,19,Jits_Linear_5,3,5,80,127,1682846064
99,17,19,Jits_Linear_5,0,1,48,55,1683310632
99,17,19,Jits_Linear_5,1,5,80,127,1683375624
99,17,19,Jits_Linear_5,2,5,56,103,1683395932
99,17,19,Jits_Linear_5,3,5,63,98,1683425668
99,17,19,Jits_Linear_5,0,1,48,65,1683851740
99,17,19,Jits_Linear_5,1,5,56,103,1684015620
99,17,19,Jits_Linear_5,2,5,80,127,1684018760
99,17,19,Jits_Linear_5,3,5,63,98,1684036004
99,17,19,Jits_Linear_5,0,1,48,54,1684481344
99,17,19,Jits_Linear_5,1,5,63,98,1684505952
99,17,19,Jits_Linear_5,2,5,56,103,1684535556
99,17,19,Jits_Linear_5,3,5,80,127,1684595956
99,17,19,Jits_Linear_5,0,1,48,54,1685083932
99,17,19,Jits_Linear_5,1,5,63,98,1685156180
99,17,19,Jits_Linear_5,2,5,56,103,1685165552
99,17,19,Jits_Linear_5,3,5,80,127,1685175600
99,17,19,Jits_Linear_5,0,1,48,61,1685669176
99,17,19,Jits_Linear_5,1,5,56,103,1685676696
99,17,19,Jits_Linear_5,2,5,80,127,1685706000
99,17,19,Jits_Linear_5,3,5,63,98,1685716196
99,17,19,Jits_Linear_5,0,1,48,58,1686212084
99,17,19,Jits_Linear_5,1,5,63,98,1686285548
99,17,19,Jits_Linear_5,2,5,56,103,1686295820
99,17,19,Jits_Linear_5,3,5,80,127,1686316488
99,17,19,Jits_Linear_5,0,5,56,103,1686795508
99,17,19,Jits_Linear_5,1,1,48,61,1686813920
99,17,19,Jits_Linear_5,2,5,63,98,1686856040
99,17,19,Jits_Linear_5,3,5,80,127,1686859724
99,17,19,Jits_Linear_5,0,1,48,63,1687335996
99,17,19,Jits_Linear_5,1,5,80,127,1687395684
99,17,19,Jits_Linear_5,2,5,56,103,1687405952
99,17,19,Jits_Linear_5,3,5,63,98,1687475544
99,17,19,Jits_Linear_5,0,1,48,60,1687919984
99,17,19,Jits_Linear_5,1,5,80,127,1687966168
99,17,19,Jits_Linear_5,2,5,56,103,1688035764
99,17,19,Jits_Linear_5,3,5,63,98,1688045888
99,17,19,Jits_Linear_5,0,1,48,57,1688507040
99,17,19,Jits_Linear_5,1,5,63,98,1688585736
99,17,19,Jits_Linear_5,2,5,56,103,1688595784
99,17,19,Jits_Linear_5,3,5,80,127,1688616600
99,17,19,Jits_Linear_5,0,1,48,69,1689098128
99,17,19,Jits_Linear_5,1,5,80,127,1689116136
99,17,19,Jits_Linear_5,2,5,63,98,1689176632
99,17,19,Jits_Linear_5,3,5,56,103,1689216480
99,17,19,Jits_Linear_5,0,1,48,65,1689724840
99,17,19,Jits_Linear_5,1,5,56,103,1689745768
99,17,19,Jits_Linear_5,2,5,63,98,1689755888
99,17,19,Jits_Linear_5,3,5,80,127,1689795904
99,17,19,Jits_Linear_5,0,1,48,59,1690283936
99,17,19,Jits_Linear_5,1,5,56,103,1690295648
99,17,19,Jits_Linear_5,2,5,80,127,1690326520
99,17,19,Jits_Linear_5,3,5,63,98,1690376416
99,17,19,Jits_Linear_5,0,1,48,62,1690871868
99,17,19,Jits_Linear_5,1,5,56,103,1690925548
99,17,19,Jits_Linear_5,2,5,63,98,1690967612
99,17,19,Jits_Linear_5,3,5,80,127,1690970732
99,17,19,Jits_Linear_5,0,1,48,63,1691479240
99,17,19,Jits_Linear_5,1,5,56,103,1691516360
99,17,19,Jits_Linear_5,2,5,63,98,1691525732
99,17,19,Jits_Linear_5,3,5,80,127,1691546040
99,17,19,Jits_Linear_5,0,1,48,64,1692060140
99,17,19,Jits_Linear_5,1,5,56,103,1692066164
99,17,19,Jits_Linear_5,2,5,80,127,1692069452
99,17,19,Jits_Linear_5,3,5,63,98,1692105952
99,17,19,Jits_Linear_5,0,1,48,67,1692597872
99,17,19,Jits_Linear_5,1,5,63,98,1692696036
99,17,19,Jits_Linear_5,2,5,56,103,1692725788
99,17,19,Jits_Linear_5,3,5,80,127,1692746200
99,17,19,Jits_Linear_5,0,1,48,48,1693206496
99,17,19,Jits_Linear_5,1,5,80,127,1693266488
99,17,19,Jits_Linear_5,2,5,56,103,1693275712
99,17,19,Jits_Linear_5,3,5,63,98,1693285684
99,17,19,Jits_Linear_5,0,1,48,60,1693800368
99,17,19,Jits_Linear_5,1,5,56,103,1693866560
99,17,19,Jits_Linear_5,2,5,80,127,1693906412
99,17,19,Jits_Linear_5,3,5,63,98,1693935944
99,17,19,Jits_Linear_5,0,1,48,64,1694395964
99,17,19,Jits_Linear_5,1,5,63,98,1694475708
99,17,19,Jits_Linear_5,2,5,80,127,1694485832
99,17,19,Jits_Linear_5,3,5,56,103,1694496312
99,17,19,Jits_Linear_5,0,1,48,50,1695005632
99,17,19,Jits_Linear_5,1,5,56,103,1695056180
99,17,19,Jits_Linear_5,2,5,63,98,1695125776
99,17,19,Jits_Linear_5,3,5,80,127,1695136048
99,17,19,Jits_Linear_5,0,1,48,68,1695568196
99,17,19,Jits_Linear_5,1,5,80,127,1695665628
99,17,19,Jits_Linear_5,2,5,56,103,1695675812
99,17,19,Jits_Linear_5,3,5,63,98,1695725940
99,17,19,Jits_Linear_5,0,1,48,70,1696238632
99,17,19,Jits_Linear_5,1,5,80,127,1696286012
99,17,19,Jits_Linear_5,2,5,56,103,1696345744
99,17,19,Jits_Linear_5,3,5,63,98,1696376388
99,17,19,Jits_Linear_5,0,1,48,80,1696860684
99,17,19,Jits_Linear_5,1,5,56,103,1696896456
99,17,19,Jits_Linear_5,2,5,80,127,1696899372
99,17,19,Jits_Linear_5,3,5,63,98,1696936544
99,17,19,Jits_Linear_5,0,1,48,66,1697403800
99,17,19,Jits_Linear_5,1,5,56,103,1697536372
99,17,19,Jits_Linear_5,2,5,63,98,1697566048
99,17,19,Jits_Linear_5,3,5,80,127,1697576316
99,17,19,Jits_Linear_5,0,1,48,62,1698095984
99,17,19,Jits_Linear_5,1,5,63,98,1698155752
99,17,19,Jits_Linear_5,2,5,80,127,1698166020
99,17,19,Jits_Linear_5,3,5,56,103,1698176588
99,17,19,Jits_Linear_5,0,1,48,67,1698704492
99,17,19,Jits_Linear_5,1,5,80,127,1698715972
99,17,19,Jits_Linear_5,2,5,56,103,1698766324
99,17,19,Jits_Linear_5,3,5,63,98,1698769164
99,17,19,Jits_Linear_5,0,1,48,70,1699345688
99,17,19,Jits_Linear_5,1,5,56,103,1699366532
99,17,19,Jits_Linear_5,2,5,80,127,1699385648
99,17,19,Jits_Linear_5,3,5,63,98,1699395844
99,17,19,Jits_Linear_5,0,1,48,73,1699936496
99,17,19,Jits_Linear_5,1,5,63,98,1699966488
99,17,19,Jits_Linear_5,2,5,56,103,1699996164
99,17,19,Jits_Linear_5,3,5,80,127,1700015504
99,17,19,Jits_Linear_5,0,1,48,65,1700567516
99,17,19,Jits_Linear_5,1,5,56,103,1700596160
99,17,19,Jits_Linear_5,2,5,80,127,1700606432
99,17,19,Jits_Linear_5,3,5,63,98,1700675952
99,17,19,Jits_Linear_5,0,1,48,63,1701141280
99,17,19,Jits_Linear_5,1,5,63,98,1701206524
99,17,19,Jits_Linear_5,2,5,80,127,1701246600
99,17,19,Jits_Linear_5,3,5,56,103,1701286392
99,17,19,Jits_Linear_5,0,1,48,58,1701795492
99,17,19,Jits_Linear_5,1,5,56,103,1701846464
99,17,19,Jits_Linear_5,2,5,63,98,1701855540
99,17,19,Jits_Linear_5,3,5,80,127,1701876372
99,17,19,Jits_Linear_5,0,1,48,50,1702433692
99,17,19,Jits_Linear_5,1,5,63,98,1702516176
99,17,19,Jits_Linear_5,2,5,80,127,1702535500
99,17,19,Jits_Linear_5,3,5,56,103,1702555960
99,17,19,Jits_Linear_5,0,5,56,103,1703085396
99,17,19,Jits_Linear_5,1,1,48,64,1703112856
99,17,19,Jits_Linear_5,2,5,80,127,1703166460
99,17,19,Jits_Linear_5,3,5,63,98,1703175536
99,17,19,Jits_Linear_5,0,1,48,59,1703731004
99,17,19,Jits_Linear_5,1,5,80,127,1703756088
99,17,19,Jits_Linear_5,2,5,63,98,1703766584
99,17,19,Jits_Linear_5,3,5,56,103,1703796036
99,17,19,Jits_Linear_5,0,1,48,61,1704341676
99,17,19,Jits_Linear_5,1,5,63,98,1704345908
99,17,19,Jits_Linear_5,2,5,80,127,1704385848
99,17,19,Jits_Linear_5,3,5,56,103,1704446596
99,17,19,Jits_Linear_5,0,5,63,98,1704996192
99,17,19,Jits_Linear_5,1,1,48,65,1705004564
99,17,19,Jits_Linear_5,2,5,56,103,1705046340
99,17,19,Jits_Linear_5,3,5,80,127,1705076088
99,17,19,Jits_Linear_5,0,1,48,60,1705636496
99,17,19,Jits_Linear_5,1,5,80,127,1705645364
99,17,19,Jits_Linear_5,2,5,63,98,1705655708
99,17,19,Jits_Linear_5,3,5,56,103,1705726288
99,17,19,Jits_Linear_5,0,1,48,63,1706334384
99,17,19,Jits_Linear_5,1,5,80,127,1706356132
99,17,19,Jits_Linear_5,2,5,56,103,1706366324
99,17,19,Jits_Linear_5,3,5,63,98,1706369464
99,17,19,Jits_Linear_5,0,5,56,103,1706935688
99,17,19,Jits_Linear_5,1,5,80,127,1706956076
99,17,19,Jits_Linear_5,2,5,63,98,1706966272
99,17,19,Jits_Linear_5,3,1,48,51,1707008572
99,17,19,Jits_Linear_5,0,5,63,98,1707585832
99,17,19,Jits_Linear_5,1,5,56,103,1707625800
99,17,19,Jits_Linear_5,2,1,48,63,1707629512
99,17,19,Jits_Linear_5,3,5,80,127,1707646476
99,17,19,Jits_Linear_5,0,5,63,98,1708225876
99,17,19,Jits_Linear_5,1,1,48,56,1708243372
99,17,19,Jits_Linear_5,2,5,56,103,1708286408
99,17,19,Jits_Linear_5,3,5,80,127,1708289328
99,17,19,Jits_Linear_5,0,5,56,103,1708845352
99,17,19,Jits_Linear_5,1,5,80,127,1708865888
99,17,19,Jits_Linear_5,2,1,48,66,1708881088
99,17,19,Jits_Linear_5,3,5,63,98,1708905772
99,17,19,Jits_Linear_5,0,1,48,60,1709476008
99,17,19,Jits_Linear_5,1,5,56,103,1709526452
99,17,19,Jits_Linear_5,2,5,63,98,1709545792
99,17,19,Jits_Linear_5,3,5,80,127,1709556060
99,17,19,Jits_Linear_5,0,1,48,55,1710135868
99,17,19,Jits_Linear_5,1,5,80,127,1710146080
99,17,19,Jits_Linear_5,2,5,56,103,1710175560
99,17,19,Jits_Linear_5,3,5,63,98,1710215648
99,17,19,Jits_Linear_5,0,1,48,50,1710768408
99,17,19,Jits_Linear_5,1,5,80,127,1710806496
99,17,19,Jits_Linear_5,2,5,56,103,1710825912
99,17,19,Jits_Linear_5,3,5,63,98,1710886436
99,17,19,Jits_Linear_5,0,1,48,50,1711407672
99,17,19,Jits_Linear_5,1,5,56,103,1711465940
99,17,19,Jits_Linear_5,2,5,80,127,1711486328
99,17,19,Jits_Linear_5,3,5,63,98,1711545660
99,17,19,Jits_Linear_5,0,1,48,62,1712093800
99,17,19,Jits_Linear_5,1,5,80,127,1712105880
99,17,19,Jits_Linear_5,2,5,56,103,1712116300
99,17,19,Jits_Linear_5,3,5,63,98,1712156016
99,17,19,Jits_Linear_5,0,1,48,60,1712742508
99,17,19,Jits_Linear_5,1,5,63,98,1712766516
99,17,19,Jits_Linear_5,2,5,56,103,1712806380
99,17,19,Jits_Linear_5,3,5,80,127,1712809296
99,17,19,Jits_Linear_5,0,1,48,60,1713421544
99,17,19,Jits_Linear_5,1,5,63,98,1713446448
99,17,19,Jits_Linear_5,2,5,80,127,1713486416
99,17,19,Jits_Linear_5,3,5,56,103,1713515868
99,17,19,Jits_Linear_5,0,5,56,103,1714095416
99,17,19,Jits_Linear_5,1,5,63,98,1714105760
99,17,19,Jits_Linear_5,2,1,48,57,1714125664
99,17,19,Jits_Linear_5,3,5,80,127,1714136552
99,17,19,Jits_Linear_5,0,1,48,54,1714745748
99,17,19,Jits_Linear_5,1,5,80,127,1714755884
99,17,19,Jits_Linear_5,2,5,63,98,1714825520
99,17,19,Jits_Linear_5,3,5,56,103,1714835940
99,17,19,Jits_Linear_5,0,5,63,98,1715425676
99,17,19,Jits_Linear_5,1,1,48,57,1715441520
99,17,19,Jits_Linear_5,2,5,56,103,1715496328
99,17,19,Jits_Linear_5,3,5,80,127,1715505404
99,17,19,Jits_Linear_5,0,1,48,53,1716061696
99,17,19,Jits_Linear_5,1,5,63,98,1716096496
99,17,19,Jits_Linear_5,2,5,56,103,1716115760
99,17,19,Jits_Linear_5,3,5,80,127,1716155760
99,17,19,Jits_Linear_5,0,1,48,59,1716723972
99,17,19,Jits_Linear_5,1,5,56,103,1716776364
99,17,19,Jits_Linear_5,2,5,63,98,1716785440
99,17,19,Jits_Linear_5,3,5,80,127,1716866292
99,17,19,Jits_Linear_5,0,1,48,46,1717395396
99,17,19,Jits_Linear_5,1,5,63,98,1717435732
99,17,19,Jits_Linear_5,2,5,56,103,1717465408
99,17,19,Jits_Linear_5,3,5,80,127,1717506456
99,17,19,Jits_Linear_5,0,1,48,46,1718057508
99,17,19,Jits_Linear_5,1,5,56,103,1718105364
99,17,19,Jits_Linear_5,2,5,63,98,1718146428
99,17,19,Jits_Linear_5,3,5,80,127,1718186352
99,17,19,Jits_Linear_5,0,1,48,63,1718717480
99,17,19,Jits_Linear_5,1,5,80,127,1718786508
99,17,19,Jits_Linear_5,2,5,56,103,1718866392
99,17,19,Jits_Linear_5,3,5,63,98,1718875468
99,17,19,Jits_Linear_5,0,1,48,48,1719448920
99,17,19,Jits_Linear_5,1,5,56,103,1719506340
99,17,19,Jits_Linear_5,2,5,63,98,1719509256
99,17,19,Jits_Linear_5,3,5,80,127,1719515416
99,17,19,Jits_Linear_5,0,1,48,59,1720117396
99,17,19,Jits_Linear_5,1,5,56,103,1720205560
99,17,19,Jits_Linear_5,2,5,63,98,1720226376
99,17,19,Jits_Linear_5,3,5,80,127,1720236424
99,17,19,Jits_Linear_5,0,1,48,66,1720840892
99,17,19,Jits_Linear_5,1,5,63,98,1720855916
99,17,19,Jits_Linear_5,2,5,80,127,1720866260
99,17,19,Jits_Linear_5,3,5,56,103,1720885672
99,17,19,Jits_Linear_5,0,1,48,60,1721512244
99,17,19,Jits_Linear_5,1,5,63,98,1721546220
99,17,19,Jits_Linear_5,2,5,56,103,1721626152
99,17,19,Jits_Linear_5,3,5,80,127,1721629068
99,17,19,Jits_Linear_5,0,1,48,62,1722201128
99,17,19,Jits_Linear_5,1,5,63,98,1722236372
99,17,19,Jits_Linear_5,2,5,56,103,1722255712
99,17,19,Jits_Linear_5,3,5,80,127,1722285464
99,17,19,Jits_Linear_5,0,1,48,65,1722880328
99,17,19,Jits_Linear_5,1,5,56,103,1722925388
99,17,19,Jits_Linear_5,2,5,63,98,1722945848
99,17,19,Jits_Linear_5,3,5,80,127,1722956220
99,17,19,Jits_Linear_5,0,1,48,64,1723547260
99,17,19,Jits_Linear_5,1,5,56,103,1723646324
99,17,19,Jits_Linear_5,2,5,63,98,1723676072
99,17,19,Jits_Linear_5,3,5,80,127,1723679584
99,17,19,Jits_Linear_5,0,1,48,56,1724266036
99,17,19,Jits_Linear_5,1,5,56,103,1724286292
99,17,19,Jits_Linear_5,2,5,63,98,1724326308
99,17,19,Jits_Linear_5,3,5,80,127,1724385640
99,17,19,Jits_Linear_5,0,1,48,62,1724972572
99,17,19,Jits_Linear_5,1,5,56,103,1724996056
99,17,19,Jits_Linear_5,2,5,63,98,1725006132
99,17,19,Jits_Linear_5,3,5,80,127,1725065624
99,17,19,Jits_Linear_5,0,1,48,62,1725680188
99,17,19,Jits_Linear_5,1,5,56,103,1725696332
99,17,19,Jits_Linear_5,2,5,80,127,1725715744
99,17,19,Jits_Linear_5,3,5,63,98,1725745496
99,17,19,Jits_Linear_5,0,1,48,53,1726385716
99,17,19,Jits_Linear_5,1,5,80,127,1726395632
99,17,19,Jits_Linear_5,2,5,56,103,1726406272
99,17,19,Jits_Linear_5,3,5,63,98,1726425388
99,17,19,Jits_Linear_5,0,1,48,47,1727050020
99,17,19,Jits_Linear_5,1,5,63,98,1727086012
99,17,19,Jits_Linear_5,2,5,80,127,1727165724
99,17,19,Jits_Linear_5,3,5,56,103,1727176292
99,17,19,Jits_Linear_5,0,1,48,49,1727827768
99,17,19,Jits_Linear_5,1,5,80,127,1727845856
99,17,19,Jits_Linear_5,2,5,56,103,1727866240
99,17,19,Jits_Linear_5,3,5,63,98,1727869456
99,17,19,Jits_Linear_5,0,5,63,98,1728525804
99,17,19,Jits_Linear_5,1,5,80,127,1728529092
99,17,19,Jits_Linear_5,2,1,48,61,1728539628
99,17,19,Jits_Linear_5,3,5,56,103,1728586136
99,17,19,Jits_Linear_5,0,5,56,103,1729215804
99,17,19,Jits_Linear_5,1,5,80,127,1729226372
99,17,19,Jits_Linear_5,2,1,48,63,1729247476
99,17,19,Jits_Linear_5,3,5,63,98,1729266156
99,17,19,Jits_Linear_5,0,5,56,103,1729906128
99,17,19,Jits_Linear_5,1,1,48,53,1729912912
99,17,19,Jits_Linear_5,2,5,63,98,1729965540
99,17,19,Jits_Linear_5,3,5,80,127,1729975664
99,17,19,Jits_Linear_5,0,1,48,53,1730579828
99,17,19,Jits_Linear_5,1,5,63,98,1730626012
99,17,19,Jits_Linear_5,2,5,80,127,1730666052
99,17,19,Jits_Linear_5,3,5,56,103,1730705904
99,17,19,Jits_Linear_5,0,1,48,61,1731325212
99,17,19,Jits_Linear_5,1,5,56,103,1731346064
99,17,19,Jits_Linear_5,2,5,63,98,1731425572
99,17,19,Jits_Linear_5,3,5,80,127,1731429160
99,17,19,Jits_Linear_5,0,1,48,55,1732058516
99,17,19,Jits_Linear_5,1,5,80,127,1732116012
99,17,19,Jits_Linear_5,2,5,56,103,1732145464
99,17,19,Jits_Linear_5,3,5,63,98,1732148528
99,17,19,Jits_Linear_5,0,5,56,103,1732795760
99,17,19,Jits_Linear_5,1,5,80,127,1732816292
99,17,19,Jits_Linear_5,2,1,48,59,1732821504
99,17,19,Jits_Linear_5,3,5,63,98,1732856152
99,17,19,Jits_Linear_5,0,1,48,68,1733483664
99,17,19,Jits_Linear_5,1,5,80,127,1733496116
99,17,19,Jits_Linear_5,2,5,63,98,1733515752
99,17,19,Jits_Linear_5,3,5,56,103,1733576144
99,17,19,Jits_Linear_5,0,1,48,62,1734197908
99,17,19,Jits_Linear_5,1,5,63,98,1734226280
99,17,19,Jits_Linear_5,2,5,56,103,1734235580
99,17,19,Jits_Linear_5,3,5,80,127,1734285784
99,17,19,Jits_Linear_5,0,1,48,57,1734881540
99,17,19,Jits_Linear_5,1,5,56,103,1734946160
99,17,19,Jits_Linear_5,2,5,63,98,1734965572
99,17,19,Jits_Linear_5,3,5,80,127,1734975828
99,17,19,Jits_Linear_5,0,1,48,52,1735611176
99,17,19,Jits_Linear_5,1,5,56,103,1735665984
99,17,19,Jits_Linear_5,2,5,63,98,1735669048
99,17,19,Jits_Linear_5,3,5,80,127,1735685692
99,17,19,Jits_Linear_5,0,1,48,43,1736296088
99,17,19,Jits_Linear_5,1,5,63,98,1736436132
99,17,19,Jits_Linear_5,2,5,56,103,1736465884
99,17,19,Jits_Linear_5,3,5,80,127,1736495336
99,17,19,Jits_Linear_5,0,1,48,53,1737079076
99,17,19,Jits_Linear_5,1,5,80,127,1737126232
99,17,19,Jits_Linear_5,2,5,56,103,1737216504
99,17,19,Jits_Linear_5,3,5,63,98,1737219568
99,17,19,Jits_Linear_5,0,5,56,103,1737856316
99,17,19,Jits_Linear_5,1,5,80,127,1737859380
99,17,19,Jits_Linear_5,2,1,48,58,1737904396
99,17,19,Jits_Linear_5,3,5,63,98,1737936180
99,17,19,Jits_Linear_5,0,5,80,127,1738585512
99,17,19,Jits_Linear_5,1,1,48,54,1738610880
99,17,19,Jits_Linear_5,2,5,63,98,1738645976
99,17,19,Jits_Linear_5,3,5,56,103,1738675500
99,17,19,Jits_Linear_5,0,5,63,98,1739315672
99,17,19,Jits_Linear_5,1,5,80,127,1739325944
99,17,19,Jits_Linear_5,2,1,48,69,1739357560
99,17,19,Jits_Linear_5,3,5,56,103,1739395348
99,17,19,Jits_Linear_5,0,1,48,56,1740035840
99,17,19,Jits_Linear_5,1,5,56,103,1740076400
99,17,19,Jits_Linear_5,2,5,80,127,1740106100
99,17,19,Jits_Linear_5,3,5,63,98,1740156288
99,17,19,Jits_Linear_5,0,1,48,65,1740774852
99,17,19,Jits_Linear_5,1,5,63,98,1740855792
99,17,19,Jits_Linear_5,2,5,56,103,1740886296
99,17,19,Jits_Linear_5,3,5,80,127,1740889368
99,17,19,Jits_Linear_5,0,1,48,68,1741548388
99,17,19,Jits_Linear_5,1,5,63,98,1741595996
99,17,19,Jits_Linear_5,2,5,80,127,1741615408
99,17,19,Jits_Linear_5,3,5,56,103,1741626052
99,17,19,Jits_Linear_5,0,1,48,62,1742268964
99,17,19,Jits_Linear_5,1,5,56,103,1742345720
99,17,19,Jits_Linear_5,2,5,63,98,1742348708
99,17,19,Jits_Linear_5,3,5,80,127,1742366012
99,17,19,Jits_Linear_5,0,1,48,69,1743011560
99,17,19,Jits_Linear_5,1,5,56,103,1743046060
99,17,19,Jits_Linear_5,2,5,63,98,1743056256
99,17,19,Jits_Linear_5,3,5,80,127,1743085932
99,17,19,Jits_Linear_5,0,1,48,57,1743758668
99,17,19,Jits_Linear_5,1,5,63,98,1743816160
99,17,19,Jits_Linear_5,2,5,80,127,1743835504
99,17,19,Jits_Linear_5,3,5,56,103,1743875424
99,17,19,Jits_Linear_5,0,1,48,55,1744507344
99,17,19,Jits_Linear_5,1,5,56,103,1744596308
99,17,19,Jits_Linear_5,2,5,63,98,1744636304
99,17,19,Jits_Linear_5,3,5,80,127,1744639520
99,17,19,Jits_Linear_5,0,5,80,127,1745285568
99,17,19,Jits_Linear_5,1,1,48,60,1745315660
99,17,19,Jits_Linear_5,2,5,56,103,1745325424
99,17,19,Jits_Linear_5,3,5,63,98,1745375704
99,17,19,Jits_Linear_5,0,1,48,65,1745984604
99,17,19,Jits_Linear_5,1,5,56,103,1746095448
99,17,19,Jits_Linear_5,2,5,80,127,1746105940
99,17,19,Jits_Linear_5,3,5,63,98,1746136368
99,17,19,Jits_Linear_5,0,1,48,68,1746792556
99,17,19,Jits_Linear_5,1,5,56,103,1746795888
99,17,19,Jits_Linear_5,2,5,80,127,1746835904
99,17,19,Jits_Linear_5,3,5,63,98,1746886180
99,17,19,Jits_Linear_5,0,5,56,103,1747555808
99,17,19,Jits_Linear_5,1,1,48,72,1747564928
99,17,19,Jits_Linear_5,2,5,80,127,1747595740
99,17,19,Jits_Linear_5,3,5,63,98,1747646016
99,17,19,Jits_Linear_5,0,5,80,127,1748306140
99,17,19,Jits_Linear_5,1,1,48,49,1748317052
99,17,19,Jits_Linear_5,2,5,63,98,1748386160
99,17,19,Jits_Linear_5,3,5,56,103,1748396428
99,17,19,Jits_Linear_5,0,1,48,65,1749041500
99,17,19,Jits_Linear_5,1,5,80,127,1749116264
99,17,19,Jits_Linear_5,2,5,56,103,1749125488
99,17,19,Jits_Linear_5,3,5,63,98,1749146004
99,17,19,Jits_Linear_5,0,1,48,69,1749808912
99,17,19,Jits_Linear_5,1,5,63,98,1749846504
99,17,19,Jits_Linear_5,2,5,56,103,1749915952
99,17,19,Jits_Linear_5,3,5,80,127,1749919016
99,17,19,Jits_Linear_5,0,1,48,70,1750569268
99,17,19,Jits_Linear_5,1,5,80,127,1750606336
99,17,19,Jits_Linear_5,2,5,63,98,1750656244
99,17,19,Jits_Linear_5,3,5,56,103,1750696240
99,17,19,Jits_Linear_5,0,1,48,69,1751368316
99,17,19,Jits_Linear_5,1,5,63,98,1751416148
99,17,19,Jits_Linear_5,2,5,56,103,1751456164
99,17,19,Jits_Linear_5,3,5,80,127,1751466492
99,17,19,Jits_Linear_5,0,1,48,69,1752163756
99,17,19,Jits_Linear_5,1,5,63,98,1752175988
99,17,19,Jits_Linear_5,2,5,56,103,1752195328
99,17,19,Jits_Linear_5,3,5,80,127,1752216008
99,17,19,Jits_Linear_5,0,1,48,61,1752904196
99,17,19,Jits_Linear_5,1,5,80,127,1752906008
99,17,19,Jits_Linear_5,2,5,56,103,1752916428
99,17,19,Jits_Linear_5,3,5,63,98,1752935840
99,17,19,Jits_Linear_5,0,1,48,66,1753670904
99,17,19,Jits_Linear_5,1,5,63,98,1753705924
99,17,19,Jits_Linear_5,2,5,56,103,1753745864
99,17,19,Jits_Linear_5,3,5,80,127,1753775824
99,17,19,Jits_Linear_5,0,5,56,103,1754486076
99,17,19,Jits_Linear_5,1,1,48,61,1754491360
99,17,19,Jits_Linear_5,2,5,63,98,1754515968
99,17,19,Jits_Linear_5,3,5,80,127,1754545720
99,17,19,Jits_Linear_5,0,5,80,127,1755235812
99,17,19,Jits_Linear_5,1,1,48,49,1755282828
99,17,19,Jits_Linear_5,2,5,56,103,1755306232
99,17,19,Jits_Linear_5,3,5,63,98,1755309376
99,17,19,Jits_Linear_5,0,1,48,54,1756001756
99,17,19,Jits_Linear_5,1,5,56,103,1756026144
99,17,19,Jits_Linear_5,2,5,63,98,1756076348
99,17,19,Jits_Linear_5,3,5,80,127,1756106080
99,17,19,Jits_Linear_5,0,1,48,68,1756712712
99,17,19,Jits_Linear_5,1,5,63,98,1756786052
99,17,19,Jits_Linear_5,2,5,80,127,1756789264
99,17,19,Jits_Linear_5,3,5,56,103,1756845680
99,17,19,Jits_Linear_5,0,1,48,48,1757546600
99,17,19,Jits_Linear_5,1,5,56,103,1757596076
99,17,19,Jits_Linear_5,2,5,80,127,1757606420
99,17,19,Jits_Linear_5,3,5,63,98,1757656460
99,17,19,Jits_Linear_5,0,1,48,67,1758317604
99,17,19,Jits_Linear_5,1,5,63,98,1758355916
99,17,19,Jits_Linear_5,2,5,56,103,1758366040
99,17,19,Jits_Linear_5,3,5,80,127,1758395936
99,17,19,Jits_Linear_5,0,1,48,62,1759039568
99,17,19,Jits_Linear_5,1,5,63,98,1759175964
99,17,19,Jits_Linear_5,2,5,80,127,1759179260
99,17,19,Jits_Linear_5,3,5,56,103,1759205944
99,17,19,Jits_Linear_5,0,1,48,72,1759890000
99,17,19,Jits_Linear_5,1,5,63,98,1759985940
99,17,19,Jits_Linear_5,2,5,56,103,1760005632
99,17,19,Jits_Linear_5,3,5,80,127,1760008696
99,17,19,Jits_Linear_5,0,1,48,69,1760722204
99,17,19,Jits_Linear_5,1,5,63,98,1760735576
99,17,19,Jits_Linear_5,2,5,56,103,1760806456
99,17,19,Jits_Linear_5,3,5,80,127,1760825632
99,17,19,Jits_Linear_5,0,5,56,103,1761515876
99,17,19,Jits_Linear_5,1,5,63,98,1761526072
99,17,19,Jits_Linear_5,2,1,48,60,1761555644
99,17,19,Jits_Linear_5,3,5,80,127,1761616152
99,17,19,Jits_Linear_5,0,1,48,62,1762318320
99,17,19,Jits_Linear_5,1,5,56,103,1762325916
99,17,19,Jits_Linear_5,2,5,80,127,1762365784
99,17,19,Jits_Linear_5,3,5,63,98,1762376008
99,17,19,Jits_Linear_5,0,1,48,51,1763061216
99,17,19,Jits_Linear_5,1,5,56,103,1763146016
99,17,19,Jits_Linear_5,2,5,63,98,1763175752
99,17,19,Jits_Linear_5,3,5,80,127,1763205652
99,17,19,Jits_Linear_5,0,1,48,74,1763891708
99,17,19,Jits_Linear_5,1,5,80,127,1763906052
99,17,19,Jits_Linear_5,2,5,63,98,1763945944
99,17,19,Jits_Linear_5,3,5,56,103,1763966252
99,17,19,Jits_Linear_5,0,1,48,50,1764704324
99,17,19,Jits_Linear_5,1,5,56,103,1764745552
99,17,19,Jits_Linear_5,2,5,80,127,1764766088
99,17,19,Jits_Linear_5,3,5,63,98,1764785796
99,17,19,Jits_Linear_5,0,1,48,53,1765464828
99,17,19,Jits_Linear_5,1,5,63,98,1765515724
99,17,19,Jits_Linear_5,2,5,56,103,1765525996
99,17,19,Jits_Linear_5,3,5,80,127,1765586224
99,17,19,Jits_Linear_5,0,1,48,55,1766217676
99,17,19,Jits_Linear_5,1,5,56,103,1766325808
99,17,19,Jits_Linear_5,2,5,63,98,1766396392
99,17,19,Jits_Linear_5,3,5,80,127,1766415732
99,17,19,Jits_Linear_5,0,1,48,48,1767058280
99,17,19,Jits_Linear_5,1,5,56,103,1767135708
99,17,19,Jits_Linear_5,2,5,63,98,1767166420
99,17,19,Jits_Linear_5,3,5,80,127,1767206208
99,17,19,Jits_Linear_5,0,5,63,98,1767936532
99,17,19,Jits_Linear_5,1,1,48,41,1767981456
99,17,19,Jits_Linear_5,2,5,56,103,1767985904
99,17,19,Jits_Linear_5,3,5,80,127,1767995804
99,17,19,Jits_Linear_5,0,1,48,52,1768693544
99,17,19,Jits_Linear_5,1,5,56,103,1768786140
99,17,19,Jits_Linear_5,2,5,63,98,1768835656
99,17,19,Jits_Linear_5,3,5,80,127,1768845852
99,17,19,Jits_Linear_5,0,1,48,51,1769486288
99,17,19,Jits_Linear_5,1,5,56,103,1769565760
99,17,19,Jits_Linear_5,2,5,63,98,1769575808
99,17,19,Jits_Linear_5,3,5,80,127,1769655664
99,17,19,Jits_Linear_5,0,9999,9999,9999,1660763260
99,17,19,Jits_Linear_5,1,9999,9999,9999,1661243472
99,17,19,Jits_Linear_5,2,9999,9999,9999,1661723732
99,17,19,Jits_Linear_5,3,9999,9999,9999,1662203960
99,17,19,Jits_Linear_5,4,9999,9999,9999,1662683204
99,17,19,Jits_Linear_5,5,9999,9999,9999,1663173756
99,17,19,Jits_Linear_5,6,9999,9999,9999,1663663180
99,17,19,Jits_Linear_5,7,9999,9999,9999,1664153668
99,17,19,Jits_Linear_5,8,9999,9999,9999,1664643184
99,17,19,Jits_Linear_5,9,9999,9999,9999,1665133656
99,17,19,Jits_Linear_5,10,9999,9999,9999,1665633340
99,17,19,Jits_Linear_5,11,9999,9999,9999,1666134076
99,17,19,Jits_Linear_5,12,9999,9999,9999,1666644092
99,17,19,Jits_Linear_5,13,9999,9999,9999,1667143756
99,17,19,Jits_Linear_5,14,9999,9999,9999,1667643508
99,17,19,Jits_Linear_5,15,9999,9999,9999,1668153400
99,17,19,Jits_Linear_5,16,9999,9999,9999,1668663352
99,17,19,Jits_Linear_5,17,9999,9999,9999,1669173356
99,17,19,Jits_Linear_5,18,9999,9999,9999,1669683320
99,17,19,Jits_Linear_5,19,9999,9999,9999,1670193216
99,17,19,Jits_Linear_5,20,9999,9999,9999,1670713432
99,17,19,Jits_Linear_5,21,9999,9999,9999,1671233648
99,17,19,Jits_Linear_5,22,9999,9999,9999,1671753820
99,17,19,Jits_Linear_5,23,9999,9999,9999,1672273976
99,17,19,Jits_Linear_5,24,9999,9999,9999,1672793144
99,17,19,Jits_Linear_5,25,9999,9999,9999,1673323608
99,17,19,Jits_Linear_5,26,9999,9999,9999,1673854008
99,17,19,Jits_Linear_5,27,9999,9999,9999,1674383432
99,17,19,Jits_Linear_5,28,9999,9999,9999,1674913856
99,17,19,Jits_Linear_5,29,9999,9999,9999,1675443284
99,17,19,Jits_Linear_5,30,9999,9999,9999,1675983968
99,17,19,Jits_Linear_5,31,9999,9999,9999,1676523592
99,17,19,Jits_Linear_5,32,9999,9999,9999,1677063284
99,17,19,Jits_Linear_5,33,9999,9999,9999,1677603952
99,17,19,Jits_Linear_5,34,9999,9999,9999,1678143572
99,17,19,Jits_Linear_5,35,9999,9999,9999,1678693476
99,17,19,Jits_Linear_5,36,9999,9999,9999,1679243348
99,17,19,Jits_Linear_5,37,9999,9999,9999,1679793236
99,17,19,Jits_Linear_5,38,9999,9999,9999,1680343136
99,17,19,Jits_Linear_5,39,9999,9999,9999,1680894068
99,17,19,Jits_Linear_5,40,9999,9999,9999,1681453168
99,17,19,Jits_Linear_5,41,9999,9999,9999,1682013276
99,17,19,Jits_Linear_5,42,9999,9999,9999,1682573420
99,17,19,Jits_Linear_5,43,9999,9999,9999,1683133564
99,17,19,Jits_Linear_5,44,9999,9999,9999,1683693632
99,17,19,Jits_Linear_5,45,9999,9999,9999,1684264040
99,17,19,Jits_Linear_5,46,9999,9999,9999,1684833352
99,17,19,Jits_Linear_5,47,9999,9999,9999,1685403768
99,17,19,Jits_Linear_5,48,9999,9999,9999,1685974108
99,17,19,Jits_Linear_5,49,9999,9999,9999,1686553660
99,17,19,Jits_Linear_5,50,9999,9999,9999,1687133304
99,17,19,Jits_Linear_5,51,9999,9999,9999,1687713916
99,17,19,Jits_Linear_5,52,9999,9999,9999,1688293476
99,17,19,Jits_Linear_5,53,9999,9999,9999,1688874076
99,17,19,Jits_Linear_5,54,9999,9999,9999,1689453656
99,17,19,Jits_Linear_5,55,9999,9999,9999,1690043476
99,17,19,Jits_Linear_5,56,9999,9999,9999,1690633288
99,17,19,Jits_Linear_5,57,9999,9999,9999,1691223124
99,17,19,Jits_Linear_5,58,9999,9999,9999,1691813988
99,17,19,Jits_Linear_5,59,9999,9999,9999,1692403792
99,17,19,Jits_Linear_5,60,9999,9999,9999,1693003900
99,17,19,Jits_Linear_5,61,9999,9999,9999,1693603900
99,17,19,Jits_Linear_5,62,9999,9999,9999,1694203980
99,17,19,Jits_Linear_5,63,9999,9999,9999,1694804080
99,17,19,Jits_Linear_5,64,9999,9999,9999,1695403112
99,17,19,Jits_Linear_5,65,9999,9999,9999,1696013380
99,17,19,Jits_Linear_5,66,9999,9999,9999,1696623680
99,17,19,Jits_Linear_5,67,9999,9999,9999,1697234012
99,17,19,Jits_Linear_5,68,9999,9999,9999,1697843308
99,17,19,Jits_Linear_5,69,9999,9999,9999,1698453604
99,17,19,Jits_Linear_5,70,9999,9999,9999,1699073080
99,17,19,Jits_Linear_5,71,9999,9999,9999,1699693636
99,17,19,Jits_Linear_5,72,9999,9999,9999,1700313192
99,17,19,Jits_Linear_5,73,9999,9999,9999,1700933728
99,17,19,Jits_Linear_5,74,9999,9999,9999,1701553232
99,17,19,Jits_Linear_5,75,9999,9999,9999,1702184028
99,17,19,Jits_Linear_5,76,9999,9999,9999,1702813808
99,17,19,Jits_Linear_5,77,9999,9999,9999,1703443556
99,17,19,Jits_Linear_5,78,9999,9999,9999,1704073272
99,17,19,Jits_Linear_5,79,9999,9999,9999,1704704072
99,17,19,Jits_Linear_5,80,9999,9999,9999,1705344112
99,17,19,Jits_Linear_5,81,9999,9999,9999,1705984124
99,17,19,Jits_Linear_5,82,9999,9999,9999,1706624084
99,17,19,Jits_Linear_5,83,9999,9999,9999,1707264100
99,17,19,Jits_Linear_5,84,9999,9999,9999,1707904084
99,17,19,Jits_Linear_5,85,9999,9999,9999,1708563572
99,17,19,Jits_Linear_5,86,9999,9999,9999,1709213796
99,17,19,Jits_Linear_5,87,9999,9999,9999,1709864012
99,17,19,Jits_Linear_5,88,9999,9999,9999,1710513264
99,17,19,Jits_Linear_5,89,9999,9999,9999,1711163464
99,17,19,Jits_Linear_5,90,9999,9999,9999,1711823956
99,17,19,Jits_Linear_5,91,9999,9999,9999,1712483400
99,17,19,Jits_Linear_5,92,9999,9999,9999,1713143928
99,17,19,Jits_Linear_5,93,9999,9999,9999,1713803368
99,17,19,Jits_Linear_5,94,9999,9999,9999,1714463832
99,17,19,Jits_Linear_5,95,9999,9999,9999,1715133556
99,17,19,Jits_Linear_5,96,9999,9999,9999,1715803264
99,17,19,Jits_Linear_5,97,9999,9999,9999,1716473916
99,17,19,Jits_Linear_5,98,9999,9999,9999,1717143620
99,17,19,Jits_Linear_5,99,9999,9999,9999,1717813376
99,17,19,Jits_Linear_5,100,9999,9999,9999,1718493272
99,17,19,Jits_Linear_5,101,9999,9999,9999,1719173244
99,17,19,Jits_Linear_5,102,9999,9999,9999,1719853184
99,17,19,Jits_Linear_5,103,9999,9999,9999,1720534128
99,17,19,Jits_Linear_5,104,9999,9999,9999,1721223244
99,17,19,Jits_Linear_5,105,9999,9999,9999,1721913444
99,17,19,Jits_Linear_5,106,9999,9999,9999,1722603604
99,17,19,Jits_Linear_5,107,9999,9999,9999,1723293764
99,17,19,Jits_Linear_5,108,9999,9999,9999,1723983988
99,17,19,Jits_Linear_5,109,9999,9999,9999,1724673080
99,17,19,Jits_Linear_5,110,9999,9999,9999,1725373504
99,17,19,Jits_Linear_5,111,9999,9999,9999,1726073924
99,17,19,Jits_Linear_5,112,9999,9999,9999,1726773348
99,17,19,Jits_Linear_5,113,9999,9999,9999,1727473772
99,17,19,Jits_Linear_5,114,9999,9999,9999,1728173144
99,17,19,Jits_Linear_5,115,9999,9999,9999,1728883824
99,17,19,Jits_Linear_5,116,9999,9999,9999,1729593436
99,17,19,Jits_Linear_5,117,9999,9999,9999,1730304064
99,17,19,Jits_Linear_5,118,9999,9999,9999,1731023984
99,17,19,Jits_Linear_5,119,9999,9999,9999,1731733616
99,17,19,Jits_Linear_5,120,9999,9999,9999,1732453444
99,17,19,Jits_Linear_5,121,9999,9999,9999,1733173320
99,17,19,Jits_Linear_5,122,9999,9999,9999,1733893240
99,17,19,Jits_Linear_5,123,9999,9999,9999,1734614112
99,17,19,Jits_Linear_5,124,9999,9999,9999,1735343228
99,17,19,Jits_Linear_5,125,9999,9999,9999,1736073304
99,17,19,Jits_Linear_5,126,9999,9999,9999,1736803400
99,17,19,Jits_Linear_5,127,9999,9999,9999,1737533536
99,17,19,Jits_Linear_5,128,9999,9999,9999,1738263612
99,17,19,Jits_Linear_5,129,9999,9999,9999,1738993792
99,17,19,Jits_Linear_5,130,9999,9999,9999,1739734088
99,17,19,Jits_Linear_5,131,9999,9999,9999,1740483660
99,17,19,Jits_Linear_5,132,9999,9999,9999,1741224012
99,17,19,Jits_Linear_5,133,9999,9999,9999,1741963324
99,17,19,Jits_Linear_5,134,9999,9999,9999,1742703672
99,17,19,Jits_Linear_5,135,9999,9999,9999,1743453244
99,17,19,Jits_Linear_5,136,9999,9999,9999,1744203868
99,17,19,Jits_Linear_5,137,9999,9999,9999,1744953412
99,17,19,Jits_Linear_5,138,9999,9999,9999,1745704032
99,17,19,Jits_Linear_5,139,9999,9999,9999,1746453624
99,17,19,Jits_Linear_5,140,9999,9999,9999,1747213388
99,17,19,Jits_Linear_5,141,9999,9999,9999,1747973224
99,17,19,Jits_Linear_5,142,9999,9999,9999,1748734048
99,17,19,Jits_Linear_5,143,9999,9999,9999,1749493828
99,17,19,Jits_Linear_5,144,9999,9999,9999,1750253660
99,17,19,Jits_Linear_5,145,9999,9999,9999,1751023688
99,17,19,Jits_Linear_5,146,9999,9999,9999,1751793792
99,17,19,Jits_Linear_5,147,9999,9999,9999,1752563816
99,17,19,Jits_Linear_5,148,9999,9999,9999,1753333840
99,17,19,Jits_Linear_5,149,9999,9999,9999,1754103872
99,17,19,Jits_Linear_5,150,9999,9999,9999,1754883192
99,17,19,Jits_Linear_5,151,9999,9999,9999,1755663484
99,17,19,Jits_Linear_5,152,9999,9999,9999,1756443716
99,17,19,Jits_Linear_5,153,9999,9999,9999,1757223992
99,17,19,Jits_Linear_5,154,9999,9999,9999,1758003312
99,17,19,Jits_Linear_5,155,9999,9999,9999,1758793812
99,17,19,Jits_Linear_5,156,9999,9999,9999,1759583308
99,17,19,Jits_Linear_5,157,9999,9999,9999,1760373856
99,17,19,Jits_Linear_5,158,9999,9999,9999,1761163368
99,17,19,Jits_Linear_5,159,9999,9999,9999,1761953920
99,17,19,Jits_Linear_5,160,9999,9999,9999,1762753628
99,17,19,Jits_Linear_5,161,9999,9999,9999,1763553400
99,17,19,Jits_Linear_5,162,9999,9999,9999,1764353092
99,17,19,Jits_Linear_5,163,9999,9999,9999,1765153908
99,17,19,Jits_Linear_5,164,9999,9999,9999,1765953600
99,17,19,Jits_Linear_5,165,9999,9999,9999,1766763576
99,17,19,Jits_Linear_5,166,9999,9999,9999,1767573612
99,17,19,Jits_Linear_5,167,9999,9999,9999,1768383568
99,17,19,Jits_Linear_5,168,9999,9999,9999,1769193528
99,17,19,Jits_Linear_5,169,9999,9999,9999,1770003560
99,18,15,Jits_Phase_8,0,5,56,103,1779146208
99,18,15,Jits_Phase_8,1,5,63,98,1779149080
99,18,15,Jits_Phase_8,2,5,80,127,1779152500
99,18,15,Jits_Phase_8,0,5,56,103,1779945928
99,18,15,Jits_Phase_8,1,5,63,98,1779948872
99,18,15,Jits_Phase_8,2,5,80,127,1779951996
99,18,15,Jits_Phase_8,0,5,80,127,1780686172
99,18,15,Jits_Phase_8,1,5,63,98,1780776600
99,18,15,Jits_Phase_8,2,5,56,103,1780785528
99,18,15,Jits_Phase_8,3,1,48,64,1780796592
99,18,15,Jits_Phase_8,0,5,56,103,1781506400
99,18,15,Jits_Phase_8,1,5,63,98,1781515624
99,18,15,Jits_Phase_8,2,1,48,69,1781556200
99,18,15,Jits_Phase_8,3,5,80,127,1781605696
99,18,15,Jits_Phase_8,0,5,63,98,1782275452
99,18,15,Jits_Phase_8,1,1,48,74,1782288764
99,18,15,Jits_Phase_8,2,5,80,127,1782306320
99,18,15,Jits_Phase_8,3,5,56,103,1782335996
99,18,15,Jits_Phase_8,0,1,48,73,1783028716
99,18,15,Jits_Phase_8,1,5,56,103,1783076248
99,18,15,Jits_Phase_8,2,5,80,127,1783175536
99,18,15,Jits_Phase_8,3,5,63,98,1783225588
99,18,15,Jits_Phase_8,0,1,48,70,1783856208
99,18,15,Jits_Phase_8,1,5,56,103,1783875860
99,18,15,Jits_Phase_8,2,5,80,127,1783926312
99,18,15,Jits_Phase_8,3,5,63,98,1783966008
99,18,15,Jits_Phase_8,0,1,48,68,1784633020
99,18,15,Jits_Phase_8,1,5,80,127,1784706652
99,18,15,Jits_Phase_8,2,5,63,98,1784736088
99,18,15,Jits_Phase_8,3,5,56,103,1784805620
99,18,15,Jits_Phase_8,0,1,48,59,1785457912
99,18,15,Jits_Phase_8,1,5,63,98,1785535708
99,18,15,Jits_Phase_8,2,5,56,103,1785565668
99,18,15,Jits_Phase_8,3,5,80,127,1785625904
99,18,15,Jits_Phase_8,0,5,56,103,1786276588
99,18,15,Jits_Phase_8,1,5,80,127,1786279424
99,18,15,Jits_Phase_8,2,1,48,57,1786314324
99,18,15,Jits_Phase_8,3,5,63,98,1786396224
99,18,15,Jits_Phase_8,0,1,48,62,1787060496
99,18,15,Jits_Phase_8,1,5,56,103,1787155680
99,18,15,Jits_Phase_8,2,5,80,127,1787195828
99,18,15,Jits_Phase_8,3,5,63,98,1787205976
99,18,15,Jits_Phase_8,0,1,48,64,1787871648
99,18,15,Jits_Phase_8,1,5,56,103,1787915660
99,18,15,Jits_Phase_8,2,5,80,127,1787936048
99,18,15,Jits_Phase_8,3,5,63,98,1788016072
99,18,15,Jits_Phase_8,0,1,48,66,1788665276
99,18,15,Jits_Phase_8,1,5,80,127,1788706204
99,18,15,Jits_Phase_8,2,5,56,103,1788805416
99,18,15,Jits_Phase_8,3,5,63,98,1788815612
99,18,15,Jits_Phase_8,0,1,48,61,1789472368
99,18,15,Jits_Phase_8,1,5,63,98,1789476448
99,18,15,Jits_Phase_8,2,5,80,127,1789535668
99,18,15,Jits_Phase_8,3,5,56,103,1789545864
99,18,15,Jits_Phase_8,0,1,48,54,1790223044
99,18,15,Jits_Phase_8,1,5,56,103,1790275900
99,18,15,Jits_Phase_8,2,5,63,98,1790345568
99,18,15,Jits_Phase_8,3,5,80,127,1790349228
99,18,15,Jits_Phase_8,0,1,48,73,1791024580
99,18,15,Jits_Phase_8,1,5,63,98,1791106440
99,18,15,Jits_Phase_8,2,5,56,103,1791155580
99,18,15,Jits_Phase_8,3,5,80,127,1791158720
99,18,15,Jits_Phase_8,0,5,56,103,1791866188
99,18,15,Jits_Phase_8,1,1,48,69,1791869328
99,18,15,Jits_Phase_8,2,5,80,127,1791870664
99,18,15,Jits_Phase_8,3,5,63,98,1791956236
99,18,15,Jits_Phase_8,0,1,48,67,1792644272
99,18,15,Jits_Phase_8,1,5,63,98,1792705952
99,18,15,Jits_Phase_8,2,5,56,103,1792796292
99,18,15,Jits_Phase_8,3,5,80,127,1792825672
99,18,15,Jits_Phase_8,0,1,48,65,1793461172
99,18,15,Jits_Phase_8,1,5,56,103,1793496420
99,18,15,Jits_Phase_8,2,5,63,98,1793595760
99,18,15,Jits_Phase_8,3,5,80,127,1793625308
99,18,15,Jits_Phase_8,0,1,48,51,1794276304
99,18,15,Jits_Phase_8,1,5,63,98,1794315588
99,18,15,Jits_Phase_8,2,5,56,103,1794325860
99,18,15,Jits_Phase_8,3,5,80,127,1794415928
99,18,15,Jits_Phase_8,0,1,48,57,1795059800
99,18,15,Jits_Phase_8,1,5,63,98,1795135728
99,18,15,Jits_Phase_8,2,5,56,103,1795215756
99,18,15,Jits_Phase_8,3,5,80,127,1795218820
99,18,15,Jits_Phase_8,0,5,80,127,1795895780
99,18,15,Jits_Phase_8,1,1,48,65,1795914068
99,18,15,Jits_Phase_8,2,5,63,98,1795916332
99,18,15,Jits_Phase_8,3,5,56,103,1795975672
99,18,15,Jits_Phase_8,0,1,48,59,1796676960
99,18,15,Jits_Phase_8,1,5,56,103,1796736324
99,18,15,Jits_Phase_8,2,5,63,98,1796755884
99,18,15,Jits_Phase_8,3,5,80,127,1796759396
99,18,15,Jits_Phase_8,0,1,48,63,1797453544
99,18,15,Jits_Phase_8,1,5,63,98,1797475760
99,18,15,Jits_Phase_8,2,5,80,127,1797555540
99,18,15,Jits_Phase_8,3,5,56,103,1797565664
99,18,15,Jits_Phase_8,0,5,63,98,1798295900
99,18,15,Jits_Phase_8,1,1,48,62,1798300364
99,18,15,Jits_Phase_8,2,5,56,103,1798316280
99,18,15,Jits_Phase_8,3,5,80,127,1798365508
99,18,15,Jits_Phase_8,0,1,48,68,1799069172
99,18,15,Jits_Phase_8,1,5,80,127,1799095576
99,18,15,Jits_Phase_8,2,5,63,98,1799135592
99,18,15,Jits_Phase_8,3,5,56,103,1799156348
99,18,15,Jits_Phase_8,0,1,48,62,1799860688
99,18,15,Jits_Phase_8,1,5,56,103,1799936316
99,18,15,Jits_Phase_8,2,5,63,98,1799945540
99,18,15,Jits_Phase_8,3,5,80,127,1799966204
99,18,15,Jits_Phase_8,0,5,56,103,1800665504
99,18,15,Jits_Phase_8,1,1,48,62,1800706088
99,18,15,Jits_Phase_8,2,5,63,98,1800755708
99,18,15,Jits_Phase_8,3,5,80,127,1800816180
99,18,15,Jits_Phase_8,0,5,80,127,1801495920
99,18,15,Jits_Phase_8,1,5,56,103,1801506116
99,18,15,Jits_Phase_8,2,1,48,61,1801520092
99,18,15,Jits_Phase_8,3,5,63,98,1801575812
99,18,15,Jits_Phase_8,0,1,48,67,1802289732
99,18,15,Jits_Phase_8,1,5,63,98,1802326352
99,18,15,Jits_Phase_8,2,5,80,127,1802415500
99,18,15,Jits_Phase_8,3,5,56,103,1802425768
99,18,15,Jits_Phase_8,0,5,63,98,1803055448
99,18,15,Jits_Phase_8,1,5,80,127,1803105748
99,18,15,Jits_Phase_8,2,5,56,103,1803166288
99,18,15,Jits_Phase_8,3,1,48,54,1803182288
99,18,15,Jits_Phase_8,0,1,48,65,1803848376
99,18,15,Jits_Phase_8,1,5,56,103,1803875676
99,18,15,Jits_Phase_8,2,5,80,127,1803926100
99,18,15,Jits_Phase_8,3,5,63,98,1803946340
99,18,15,Jits_Phase_8,0,5,56,103,1804645692
99,18,15,Jits_Phase_8,1,1,48,62,1804672628
99,18,15,Jits_Phase_8,2,5,80,127,1804706152
99,18,15,Jits_Phase_8,3,5,63,98,1804775740
99,18,15,Jits_Phase_8,0,5,56,103,1805445464
99,18,15,Jits_Phase_8,1,1,48,64,1805460264
99,18,15,Jits_Phase_8,2,5,80,127,1805476180
99,18,15,Jits_Phase_8,3,5,63,98,1805506076
99,18,15,Jits_Phase_8,0,1,48,55,1806271256
99,18,15,Jits_Phase_8,1,5,56,103,1806286128
99,18,15,Jits_Phase_8,2,5,80,127,1806305688
99,18,15,Jits_Phase_8,3,5,63,98,1806366284
99,18,15,Jits_Phase_8,0,1,48,61,1807068096
99,18,15,Jits_Phase_8,1,5,80,127,1807165736
99,18,15,Jits_Phase_8,2,5,56,103,1807176180
99,18,15,Jits_Phase_8,3,5,63,98,1807186228
99,18,15,Jits_Phase_8,0,5,56,103,1807925740
99,18,15,Jits_Phase_8,1,1,48,48,1807945592
99,18,15,Jits_Phase_8,2,5,80,127,1807965772
99,18,15,Jits_Phase_8,3,5,63,98,1807996268
99,18,15,Jits_Phase_8,0,1,48,62,1808691012
99,18,15,Jits_Phase_8,1,5,56,103,1808695768
99,18,15,Jits_Phase_8,2,5,63,98,1808726368
99,18,15,Jits_Phase_8,3,5,80,127,1808766304
99,18,15,Jits_Phase_8,0,5,80,127,1809446236
99,18,15,Jits_Phase_8,1,5,63,98,1809496388
99,18,15,Jits_Phase_8,2,1,48,52,1809509696
99,18,15,Jits_Phase_8,3,5,56,103,1809516092
99,18,15,Jits_Phase_8,0,1,48,64,1810222804
99,18,15,Jits_Phase_8,1,5,56,103,1810275836
99,18,15,Jits_Phase_8,2,5,80,127,1810346476
99,18,15,Jits_Phase_8,3,5,63,98,1810405672
99,18,15,Jits_Phase_8,0,5,80,127,1811075308
99,18,15,Jits_Phase_8,1,1,48,62,1811105928
99,18,15,Jits_Phase_8,2,5,63,98,1811165508
99,18,15,Jits_Phase_8,3,5,56,103,1811186188
99,18,15,Jits_Phase_8,0,5,63,98,1811895688
99,18,15,Jits_Phase_8,1,5,56,103,1811915996
99,18,15,Jits_Phase_8,2,1,48,64,1811938372
99,18,15,Jits_Phase_8,3,5,80,127,1811956224
99,18,15,Jits_Phase_8,0,5,80,127,1812655556
99,18,15,Jits_Phase_8,1,5,63,98,1812676092
99,18,15,Jits_Phase_8,2,1,48,72,1812677056
99,18,15,Jits_Phase_8,3,5,56,103,1812755804
99,18,15,Jits_Phase_8,0,5,63,98,1813446256
99,18,15,Jits_Phase_8,1,1,48,61,1813540548
99,18,15,Jits_Phase_8,2,5,56,103,1813555484
99,18,15,Jits_Phase_8,3,5,80,127,1813558632
99,18,15,Jits_Phase_8,0,5,63,98,1814266236
99,18,15,Jits_Phase_8,1,5,56,103,1814275384
99,18,15,Jits_Phase_8,2,5,80,127,1814278524
99,18,15,Jits_Phase_8,3,1,48,66,1814339500
99,18,15,Jits_Phase_8,0,5,56,103,1815045600
99,18,15,Jits_Phase_8,1,1,48,73,1815056136
99,18,15,Jits_Phase_8,2,5,80,127,1815166376
99,18,15,Jits_Phase_8,3,5,63,98,1815206164
99,18,15,Jits_Phase_8,0,1,48,51,1815864700
99,18,15,Jits_Phase_8,1,5,56,103,1815866264
99,18,15,Jits_Phase_8,2,5,80,127,1815945564
99,18,15,Jits_Phase_8,3,5,63,98,1815966008
99,18,15,Jits_Phase_8,0,1,48,53,1816665756
99,18,15,Jits_Phase_8,1,5,56,103,1816667016
99,18,15,Jits_Phase_8,2,5,63,98,1816776244
99,18,15,Jits_Phase_8,3,5,80,127,1816779532
99,18,15,Jits_Phase_8,0,1,48,43,1817499408
99,18,15,Jits_Phase_8,1,5,56,103,1817506184
99,18,15,Jits_Phase_8,2,5,80,127,1817535932
99,18,15,Jits_Phase_8,3,5,63,98,1817556316
99,18,15,Jits_Phase_8,0,1,48,53,1818289576
99,18,15,Jits_Phase_8,1,5,63,98,1818295604
99,18,15,Jits_Phase_8,2,5,56,103,1818306020
99,18,15,Jits_Phase_8,3,5,80,127,1818316292
99,18,15,Jits_Phase_8,0,1,48,56,1819023240
99,18,15,Jits_Phase_8,1,5,80,127,1819086288
99,18,15,Jits_Phase_8,2,5,56,103,1819136328
99,18,15,Jits_Phase_8,3,5,63,98,1819176412
99,18,15,Jits_Phase_8,0,5,80,127,1819906360
99,18,15,Jits_Phase_8,1,1,48,75,1819908068
99,18,15,Jits_Phase_8,2,5,63,98,1819925988
99,18,15,Jits_Phase_8,3,5,56,103,1819976136
99,18,15,Jits_Phase_8,0,5,80,127,1820716392
99,18,15,Jits_Phase_8,1,1,48,64,1820734952
99,18,15,Jits_Phase_8,2,5,56,103,1820746088
99,18,15,Jits_Phase_8,3,5,63,98,1820815692
99,18,15,Jits_Phase_8,0,1,48,54,1821544116
99,18,15,Jits_Phase_8,1,5,56,103,1821566460
99,18,15,Jits_Phase_8,2,5,80,127,1821575536
99,18,15,Jits_Phase_8,3,5,63,98,1821615324
99,18,15,Jits_Phase_8,0,5,56,103,1822276100
99,18,15,Jits_Phase_8,1,5,63,98,1822296336
99,18,15,Jits_Phase_8,2,1,48,55,1822364956
99,18,15,Jits_Phase_8,3,5,80,127,1822366528
99,18,15,Jits_Phase_8,0,5,63,98,1823096176
99,18,15,Jits_Phase_8,1,1,48,64,1823137432
99,18,15,Jits_Phase_8,2,5,80,127,1823155440
99,18,15,Jits_Phase_8,3,5,56,103,1823176120
99,18,15,Jits_Phase_8,0,1,48,64,1823874928
99,18,15,Jits_Phase_8,1,5,80,127,1823885664
99,18,15,Jits_Phase_8,2,5,56,103,1823916460
99,18,15,Jits_Phase_8,3,5,63,98,1823946060
99,18,15,Jits_Phase_8,0,1,48,56,1824641328
99,18,15,Jits_Phase_8,1,5,56,103,1824685420
99,18,15,Jits_Phase_8,2,5,63,98,1824745868
99,18,15,Jits_Phase_8,3,1,48,15,1824769736
99,18,15,Jits_Phase_8,4,5,80,127,1824806400
99,18,15,Jits_Phase_8,0,1,48,68,1825469436
99,18,15,Jits_Phase_8,1,5,80,127,1825505508
99,18,15,Jits_Phase_8,2,5,56,103,1825526192
99,18,15,Jits_Phase_8,3,5,63,98,1825596004
99,18,15,Jits_Phase_8,0,5,80,127,1826306544
99,18,15,Jits_Phase_8,1,1,48,72,1826322168
99,18,15,Jits_Phase_8,2,5,63,98,1826325952
99,18,15,Jits_Phase_8,3,5,56,103,1826355552
99,18,15,Jits_Phase_8,0,5,80,127,1827096128
99,18,15,Jits_Phase_8,1,1,48,63,1827104800
99,18,15,Jits_Phase_8,2,5,63,98,1827116356
99,18,15,Jits_Phase_8,3,5,56,103,1827175872
99,18,15,Jits_Phase_8,0,5,80,127,1827895752
99,18,15,Jits_Phase_8,1,1,48,65,1827920616
99,18,15,Jits_Phase_8,2,5,56,103,1827995868
99,18,15,Jits_Phase_8,3,5,63,98,1828025900
99,18,15,Jits_Phase_8,0,5,63,98,1828686184
99,18,15,Jits_Phase_8,1,1,48,48,1828724152
99,18,15,Jits_Phase_8,2,5,80,127,1828736380
99,18,15,Jits_Phase_8,3,5,56,103,1828755940
99,18,15,Jits_Phase_8,0,1,48,63,1829509280
99,18,15,Jits_Phase_8,1,5,80,127,1829526092
99,18,15,Jits_Phase_8,2,5,56,103,1829555616
99,18,15,Jits_Phase_8,3,5,63,98,1829558832
99,18,15,Jits_Phase_8,0,1,48,69,1830279284
99,18,15,Jits_Phase_8,1,5,63,98,1830376624
99,18,15,Jits_Phase_8,2,5,56,103,1830415960
99,18,15,Jits_Phase_8,3,5,80,127,1830436196
99,18,15,Jits_Phase_8,0,5,80,127,1831145840
99,18,15,Jits_Phase_8,1,1,48,72,1831160044
99,18,15,Jits_Phase_8,2,5,63,98,1831226152
99,18,15,Jits_Phase_8,3,5,56,103,1831256376
99,18,15,Jits_Phase_8,0,1,48,63,1831921076
99,18,15,Jits_Phase_8,1,5,63,98,1831965992
99,18,15,Jits_Phase_8,2,5,80,127,1832046096
99,18,15,Jits_Phase_8,3,5,56,103,1832066776
99,18,15,Jits_Phase_8,0,5,56,103,1832805868
99,18,15,Jits_Phase_8,1,1,48,49,1832806760
99,18,15,Jits_Phase_8,2,5,63,98,1832815908
99,18,15,Jits_Phase_8,3,5,80,127,1832855996
99,18,15,Jits_Phase_8,0,5,56,103,1833525752
99,18,15,Jits_Phase_8,1,5,80,127,1833528668
99,18,15,Jits_Phase_8,2,1,48,57,1833575652
99,18,15,Jits_Phase_8,3,5,63,98,1833666016
99,18,15,Jits_Phase_8,0,5,56,103,1834316100
99,18,15,Jits_Phase_8,1,1,48,58,1834325964
99,18,15,Jits_Phase_8,2,5,63,98,1834406376
99,18,15,Jits_Phase_8,3,5,80,127,1834476040
99,18,15,Jits_Phase_8,0,1,48,57,1835104836
99,18,15,Jits_Phase_8,1,5,63,98,1835197236
99,18,15,Jits_Phase_8,2,5,80,127,1835200132
99,18,15,Jits_Phase_8,3,5,56,103,1835256184
99,18,15,Jits_Phase_8,0,1,48,54,1835961140
99,18,15,Jits_Phase_8,1,5,80,127,1836035576
99,18,15,Jits_Phase_8,2,5,56,103,1836056036
99,18,15,Jits_Phase_8,3,5,63,98,1836066068
99,18,15,Jits_Phase_8,0,5,56,103,1836746040
99,18,15,Jits_Phase_8,1,5,63,98,1836756832
99,18,15,Jits_Phase_8,2,1,48,65,1836791116
99,18,15,Jits_Phase_8,3,5,80,127,1836826056
99,18,15,Jits_Phase_8,0,1,48,57,1837515512
99,18,15,Jits_Phase_8,1,5,80,127,1837546028
99,18,15,Jits_Phase_8,2,5,56,103,1837596156
99,18,15,Jits_Phase_8,3,1,48,26,1837624816
99,18,15,Jits_Phase_8,4,5,63,98,1837646136
99,18,15,Jits_Phase_8,0,1,48,51,1838325416
99,18,15,Jits_Phase_8,1,5,56,103,1838425400
99,18,15,Jits_Phase_8,2,5,63,98,1838436040
99,18,15,Jits_Phase_8,3,5,80,127,1838475980
99,18,15,Jits_Phase_8,0,5,56,103,1839165896
99,18,15,Jits_Phase_8,1,1,48,61,1839194296
99,18,15,Jits_Phase_8,2,5,63,98,1839205852
99,18,15,Jits_Phase_8,3,5,80,127,1839255976
99,18,15,Jits_Phase_8,0,5,80,127,1839925884
99,18,15,Jits_Phase_8,1,5,56,103,1839975740
99,18,15,Jits_Phase_8,2,5,63,98,1839996348
99,18,15,Jits_Phase_8,3,1,48,66,1840026068
99,18,15,Jits_Phase_8,0,5,80,127,1840735868
99,18,15,Jits_Phase_8,1,1,48,59,1840762728
99,18,15,Jits_Phase_8,2,5,63,98,1840796032
99,18,15,Jits_Phase_8,3,5,56,103,1840875960
99,18,15,Jits_Phase_8,0,5,80,127,1841515868
99,18,15,Jits_Phase_8,1,5,56,103,1841555808
99,18,15,Jits_Phase_8,2,5,63,98,1841576416
99,18,15,Jits_Phase_8,3,1,48,53,1841577976
99,18,15,Jits_Phase_8,0,1,48,55,1842362496
99,18,15,Jits_Phase_8,1,5,56,103,1842365976
99,18,15,Jits_Phase_8,2,5,80,127,1842376096
99,18,15,Jits_Phase_8,3,5,63,98,1842416036
99,18,15,Jits_Phase_8,0,1,48,53,1843132208
99,18,15,Jits_Phase_8,1,5,56,103,1843236072
99,18,15,Jits_Phase_8,2,5,63,98,1843276184
99,18,15,Jits_Phase_8,3,5,80,127,1843279472
99,18,15,Jits_Phase_8,0,5,63,98,1843905940
99,18,15,Jits_Phase_8,1,5,80,127,1843945808
99,18,15,Jits_Phase_8,2,1,48,57,1844001884
99,18,15,Jits_Phase_8,3,5,56,103,1844015628
99,18,15,Jits_Phase_8,0,5,63,98,1844675880
99,18,15,Jits_Phase_8,1,5,56,103,1844755900
99,18,15,Jits_Phase_8,2,1,48,54,1844790480
99,18,15,Jits_Phase_8,3,5,80,127,1844816308
99,18,15,Jits_Phase_8,0,5,80,127,1845485900
99,18,15,Jits_Phase_8,1,5,63,98,1845536028
99,18,15,Jits_Phase_8,2,1,48,57,1845556384
99,18,15,Jits_Phase_8,3,5,56,103,1845565768
99,18,15,Jits_Phase_8,0,5,56,103,1846275480
99,18,15,Jits_Phase_8,1,5,63,98,1846325756
99,18,15,Jits_Phase_8,2,5,80,127,1846335952
99,18,15,Jits_Phase_8,3,1,48,56,1846343424
99,18,15,Jits_Phase_8,0,5,56,103,1847085500
99,18,15,Jits_Phase_8,1,1,48,60,1847096492
99,18,15,Jits_Phase_8,2,5,63,98,1847196164
99,18,15,Jits_Phase_8,3,5,80,127,1847215428
99,18,15,Jits_Phase_8,0,5,63,98,1847886124
99,18,15,Jits_Phase_8,1,5,80,127,1847936252
99,18,15,Jits_Phase_8,2,1,48,62,1847941388
99,18,15,Jits_Phase_8,3,5,56,103,1848025552
99,18,15,Jits_Phase_8,0,5,63,98,1848675916
99,18,15,Jits_Phase_8,1,5,80,127,1848706636
99,18,15,Jits_Phase_8,2,1,48,62,1848767968
99,18,15,Jits_Phase_8,3,5,56,103,1848795640
99,18,15,Jits_Phase_8,0,5,63,98,1849475368
99,18,15,Jits_Phase_8,1,5,56,103,1849485640
99,18,15,Jits_Phase_8,2,1,48,58,1849577536
99,18,15,Jits_Phase_8,3,5,80,127,1849586100
99,18,15,Jits_Phase_8,0,1,48,58,1850359072
99,18,15,Jits_Phase_8,1,5,63,98,1850375880
99,18,15,Jits_Phase_8,2,5,80,127,1850406232
99,18,15,Jits_Phase_8,3,5,56,103,1850435932
99,18,15,Jits_Phase_8,0,1,48,65,1851169548
99,18,15,Jits_Phase_8,1,5,80,127,1851195728
99,18,15,Jits_Phase_8,2,5,63,98,1851205876
99,18,15,Jits_Phase_8,3,5,56,103,1851235772
99,18,15,Jits_Phase_8,0,5,80,127,1851896152
99,18,15,Jits_Phase_8,1,5,63,98,1851915716
99,18,15,Jits_Phase_8,2,5,56,103,1851965692
99,18,15,Jits_Phase_8,3,1,48,58,1851969180
99,18,15,Jits_Phase_8,0,1,48,57,1852722824
99,18,15,Jits_Phase_8,1,5,63,98,1852725560
99,18,15,Jits_Phase_8,2,5,80,127,1852786124
99,18,15,Jits_Phase_8,3,5,56,103,1852805464
99,18,15,Jits_Phase_8,0,5,63,98,1853485396
99,18,15,Jits_Phase_8,1,1,48,54,1853533808
99,18,15,Jits_Phase_8,2,5,56,103,1853535544
99,18,15,Jits_Phase_8,3,5,80,127,1853545964
99,18,15,Jits_Phase_8,0,1,48,61,1854307164
99,18,15,Jits_Phase_8,1,5,56,103,1854315884
99,18,15,Jits_Phase_8,2,5,80,127,1854326304
99,18,15,Jits_Phase_8,3,5,63,98,1854425560
99,18,15,Jits_Phase_8,0,5,80,127,1855075716
99,18,15,Jits_Phase_8,1,5,63,98,1855085988
99,18,15,Jits_Phase_8,2,1,48,68,1855114436
99,18,15,Jits_Phase_8,3,5,56,103,1855235652
99,18,15,Jits_Phase_8,0,5,63,98,1855885676
99,18,15,Jits_Phase_8,1,5,80,127,1855925468
99,18,15,Jits_Phase_8,2,1,48,54,1855963432
99,18,15,Jits_Phase_8,3,5,56,103,1856005700
99,18,15,Jits_Phase_8,0,5,56,103,1856636356
99,18,15,Jits_Phase_8,1,1,48,57,1856728856
99,18,15,Jits_Phase_8,2,5,80,127,1856735556
99,18,15,Jits_Phase_8,3,5,63,98,1856756088
99,18,15,Jits_Phase_8,0,5,80,127,1857455692
99,18,15,Jits_Phase_8,1,5,56,103,1857465740
99,18,15,Jits_Phase_8,2,1,48,58,1857492300
99,18,15,Jits_Phase_8,3,5,63,98,1857555936
99,18,15,Jits_Phase_8,0,1,48,65,1858248316
99,18,15,Jits_Phase_8,1,5,56,103,1858256136
99,18,15,Jits_Phase_8,2,5,63,98,1858275624
99,18,15,Jits_Phase_8,3,5,80,127,1858355476
99,18,15,Jits_Phase_8,0,5,63,98,1859005784
99,18,15,Jits_Phase_8,1,1,48,59,1859091376
99,18,15,Jits_Phase_8,2,5,56,103,1859096056
99,18,15,Jits_Phase_8,3,5,80,127,1859099196
99,18,15,Jits_Phase_8,0,5,56,103,1859836472
99,18,15,Jits_Phase_8,1,1,48,50,1859841088
99,18,15,Jits_Phase_8,2,5,80,127,1859895808
99,18,15,Jits_Phase_8,3,5,63,98,1859906028
99,18,15,Jits_Phase_8,0,1,48,49,1860609460
99,18,15,Jits_Phase_8,1,5,80,127,1860686236
99,18,15,Jits_Phase_8,2,5,56,103,1860696428
99,18,15,Jits_Phase_8,3,5,63,98,1860699568
99,18,15,Jits_Phase_8,0,5,56,103,1861445984
99,18,15,Jits_Phase_8,1,5,80,127,1861456328
99,18,15,Jits_Phase_8,2,5,63,98,1861475664
99,18,15,Jits_Phase_8,3,1,48,59,1861477300
99,18,15,Jits_Phase_8,0,5,63,98,1862216084
99,18,15,Jits_Phase_8,1,1,48,68,1862231408
99,18,15,Jits_Phase_8,2,5,80,127,1862275644
99,18,15,Jits_Phase_8,3,5,56,103,1862325548
99,18,15,Jits_Phase_8,0,1,48,73,1863023760
99,18,15,Jits_Phase_8,1,5,63,98,1863095628
99,18,15,Jits_Phase_8,2,5,56,103,1863105896
99,18,15,Jits_Phase_8,3,5,80,127,1863156080
99,18,15,Jits_Phase_8,0,5,63,98,1863796420
99,18,15,Jits_Phase_8,1,5,80,127,1863815388
99,18,15,Jits_Phase_8,2,5,56,103,1863825880
99,18,15,Jits_Phase_8,3,1,48,69,1863844368
99,18,15,Jits_Phase_8,0,1,48,66,1864580104
99,18,15,Jits_Phase_8,1,5,63,98,1864595792
99,18,15,Jits_Phase_8,2,5,80,127,1864599152
99,18,15,Jits_Phase_8,3,5,56,103,1864635652
99,18,15,Jits_Phase_8,0,1,48,71,1865405320
99,18,15,Jits_Phase_8,1,5,63,98,1865466332
99,18,15,Jits_Phase_8,2,5,80,127,1865495784
99,18,15,Jits_Phase_8,3,5,56,103,1865506112
99,18,15,Jits_Phase_8,0,5,56,103,1866215676
99,18,15,Jits_Phase_8,1,1,48,76,1866237376
99,18,15,Jits_Phase_8,2,5,80,127,1866245496
99,18,15,Jits_Phase_8,3,5,63,98,1866276140
99,18,15,Jits_Phase_8,0,1,48,74,1866971276
99,18,15,Jits_Phase_8,1,5,63,98,1867115992
99,18,15,Jits_Phase_8,2,5,56,103,1867155932
99,18,15,Jits_Phase_8,3,5,80,127,1867159144
99,18,15,Jits_Phase_8,0,5,80,127,1867816548
99,18,15,Jits_Phase_8,1,1,48,51,1867860452
99,18,15,Jits_Phase_8,2,5,56,103,1867896144
99,18,15,Jits_Phase_8,3,5,63,98,1867946568
99,18,15,Jits_Phase_8,0,5,80,127,1868595500
99,18,15,Jits_Phase_8,1,5,56,103,1868615908
99,18,15,Jits_Phase_8,2,1,48,65,1868680604
99,18,15,Jits_Phase_8,3,5,63,98,1868706256
99,18,15,Jits_Phase_8,0,5,80,127,1869436496
99,18,15,Jits_Phase_8,1,5,63,98,1869476288
99,18,15,Jits_Phase_8,2,1,48,55,1869484956
99,18,15,Jits_Phase_8,3,5,56,103,1869516368
99,18,15,Jits_Phase_8,0,1,48,68,1870229264
99,18,15,Jits_Phase_8,1,5,63,98,1870246524
99,18,15,Jits_Phase_8,2,5,80,127,1870305648
99,18,15,Jits_Phase_8,3,5,56,103,1870336356
99,18,15,Jits_Phase_8,0,5,56,103,1871085844
99,18,15,Jits_Phase_8,1,1,48,69,1871110464
99,18,15,Jits_Phase_8,2,5,80,127,1871115736
99,18,15,Jits_Phase_8,3,5,63,98,1871206924
99,18,15,Jits_Phase_8,0,5,56,103,1871895880
99,18,15,Jits_Phase_8,1,1,48,67,1871962920
99,18,15,Jits_Phase_8,2,5,80,127,1872005512
99,18,15,Jits_Phase_8,3,5,63,98,1872036232
99,18,15,Jits_Phase_8,0,5,56,103,1872745804
99,18,15,Jits_Phase_8,1,1,48,68,1872792440
99,18,15,Jits_Phase_8,2,5,63,98,1872806484
99,18,15,Jits_Phase_8,3,5,80,127,1872836088
99,18,15,Jits_Phase_8,0,5,56,103,1873515912
99,18,15,Jits_Phase_8,1,5,63,98,1873585448
99,18,15,Jits_Phase_8,2,5,80,127,1873606128
99,18,15,Jits_Phase_8,3,1,48,71,1873626184
99,18,15,Jits_Phase_8,0,5,80,127,1874285792
99,18,15,Jits_Phase_8,1,5,63,98,1874306476
99,18,15,Jits_Phase_8,2,5,56,103,1874355556
99,18,15,Jits_Phase_8,3,1,48,64,1874401592
99,18,15,Jits_Phase_8,0,1,48,66,1875043108
99,18,15,Jits_Phase_8,1,5,63,98,1875106304
99,18,15,Jits_Phase_8,2,5,80,127,1875116428
99,18,15,Jits_Phase_8,3,5,56,103,1875165568
99,18,15,Jits_Phase_8,0,1,48,61,1875834416
99,18,15,Jits_Phase_8,1,5,63,98,1875906064
99,18,15,Jits_Phase_8,2,5,80,127,1875975656
99,18,15,Jits_Phase_8,3,5,56,103,1875996636
99,18,15,Jits_Phase_8,0,1,48,65,1876613876
99,18,15,Jits_Phase_8,1,5,63,98,1876736300
99,18,15,Jits_Phase_8,2,5,80,127,1876739736
99,18,15,Jits_Phase_8,3,5,56,103,1876806076
99,18,15,Jits_Phase_8,0,1,48,73,1877435428
99,18,15,Jits_Phase_8,1,5,80,127,1877485944
99,18,15,Jits_Phase_8,2,5,56,103,1877506404
99,18,15,Jits_Phase_8,3,5,63,98,1877515704
99,18,15,Jits_Phase_8,0,1,48,71,1878203240
99,18,15,Jits_Phase_8,1,5,56,103,1878306284
99,18,15,Jits_Phase_8,2,5,63,98,1878396440
99,18,15,Jits_Phase_8,3,5,80,127,1878399656
99,18,15,Jits_Phase_8,0,1,48,50,1879060092
99,18,15,Jits_Phase_8,1,5,80,127,1879076456
99,18,15,Jits_Phase_8,2,5,56,103,1879085456
99,18,15,Jits_Phase_8,3,5,63,98,1879105864
99,18,15,Jits_Phase_8,0,1,48,65,1879784704
99,18,15,Jits_Phase_8,1,5,63,98,1879876288
99,18,15,Jits_Phase_8,2,5,80,127,1879936380
99,18,15,Jits_Phase_8,3,5,56,103,1879945528
99,18,15,Jits_Phase_8,0,1,48,60,1880645392
99,18,15,Jits_Phase_8,1,5,63,98,1880746244
99,18,15,Jits_Phase_8,2,5,80,127,1880775996
99,18,15,Jits_Phase_8,3,5,56,103,1880816156
99,18,15,Jits_Phase_8,0,5,56,103,1881536064
99,18,15,Jits_Phase_8,1,5,80,127,1881546184
99,18,15,Jits_Phase_8,2,1,48,60,1881566244
99,18,15,Jits_Phase_8,3,5,63,98,1881585968
99,18,15,Jits_Phase_8,0,5,80,127,1882295608
99,18,15,Jits_Phase_8,1,1,48,44,1882316112
99,18,15,Jits_Phase_8,2,5,56,103,1882375472
99,18,15,Jits_Phase_8,3,5,63,98,1882385892
99,18,15,Jits_Phase_8,0,1,48,61,1883050088
99,18,15,Jits_Phase_8,1,5,80,127,1883145556
99,18,15,Jits_Phase_8,2,5,56,103,1883225528
99,18,15,Jits_Phase_8,3,5,63,98,1883235648
99,18,15,Jits_Phase_8,0,1,48,57,1883908524
99,18,15,Jits_Phase_8,1,5,80,127,1883986344
99,18,15,Jits_Phase_8,2,5,56,103,1884035484
99,18,15,Jits_Phase_8,3,5,63,98,1884085608
99,18,15,Jits_Phase_8,0,1,48,78,1884795360
99,18,15,Jits_Phase_8,1,5,56,103,1884926256
99,18,15,Jits_Phase_8,2,5,63,98,1884929320
99,18,15,Jits_Phase_8,3,5,80,127,1884975632
99,18,15,Jits_Phase_8,0,1,48,70,1885691824
99,18,15,Jits_Phase_8,1,5,56,103,1885745656
99,18,15,Jits_Phase_8,2,5,63,98,1885776332
99,18,15,Jits_Phase_8,3,5,80,127,1885785408
99,18,15,Jits_Phase_8,0,5,63,98,1886456352
99,18,15,Jits_Phase_8,1,5,56,103,1886525884
99,18,15,Jits_Phase_8,2,5,80,127,1886576232
99,18,15,Jits_Phase_8,3,1,48,62,1886607972
99,18,15,Jits_Phase_8,0,5,63,98,1887285532
99,18,15,Jits_Phase_8,1,5,56,103,1887295976
99,18,15,Jits_Phase_8,2,5,80,127,1887298892
99,18,15,Jits_Phase_8,3,1,48,48,1887406524
99,18,15,Jits_Phase_8,0,5,80,127,1888036352
99,18,15,Jits_Phase_8,1,5,56,103,1888095500
99,18,15,Jits_Phase_8,2,1,48,56,1888179600
99,18,15,Jits_Phase_8,3,5,63,98,1888185696
99,18,15,Jits_Phase_8,0,5,80,127,1888836224
99,18,15,Jits_Phase_8,1,5,56,103,1888936248
99,18,15,Jits_Phase_8,2,5,63,98,1888976188
99,18,15,Jits_Phase_8,3,1,48,62,1889010612
99,18,15,Jits_Phase_8,0,5,56,103,1889685968
99,18,15,Jits_Phase_8,1,5,63,98,1889706280
99,18,15,Jits_Phase_8,2,1,48,54,1889737192
99,18,15,Jits_Phase_8,3,5,80,127,1889746360
99,18,15,Jits_Phase_8,0,5,63,98,1890456072
99,18,15,Jits_Phase_8,1,1,48,66,1890468184
99,18,15,Jits_Phase_8,2,5,56,103,1890476452
99,18,15,Jits_Phase_8,3,5,80,127,1890575708
99,18,15,Jits_Phase_8,0,5,63,98,1891245340
99,18,15,Jits_Phase_8,1,1,48,65,1891249356
99,18,15,Jits_Phase_8,2,5,80,127,1891355980
99,18,15,Jits_Phase_8,3,5,56,103,1891385728
99,18,15,Jits_Phase_8,0,5,56,103,1892065776
99,18,15,Jits_Phase_8,1,5,63,98,1892096352
99,18,15,Jits_Phase_8,2,1,48,73,1892144064
99,18,15,Jits_Phase_8,3,5,80,127,1892145496
99,18,15,Jits_Phase_8,0,5,63,98,1892835728
99,18,15,Jits_Phase_8,1,1,48,70,1892862216
99,18,15,Jits_Phase_8,2,5,56,103,1892866520
99,18,15,Jits_Phase_8,3,5,80,127,1892915452
99,18,15,Jits_Phase_8,0,1,48,63,1893582244
99,18,15,Jits_Phase_8,1,5,56,103,1893666192
99,18,15,Jits_Phase_8,2,5,63,98,1893685740
99,18,15,Jits_Phase_8,3,5,80,127,1893765704
99,18,15,Jits_Phase_8,0,5,63,98,1894436136
99,18,15,Jits_Phase_8,1,1,48,45,1894462996
99,18,15,Jits_Phase_8,2,5,56,103,1894495624
99,18,15,Jits_Phase_8,3,5,80,127,1894526196
99,18,15,Jits_Phase_8,0,1,48,61,1895202628
99,18,15,Jits_Phase_8,1,5,56,103,1895276188
99,18,15,Jits_Phase_8,2,5,80,127,1895336192
99,18,15,Jits_Phase_8,3,5,63,98,1895376204
99,18,15,Jits_Phase_8,0,5,63,98,1896056100
99,18,15,Jits_Phase_8,1,1,48,73,1896070232
99,18,15,Jits_Phase_8,2,5,56,103,1896115516
99,18,15,Jits_Phase_8,3,5,80,127,1896186300
99,18,15,Jits_Phase_8,0,1,48,60,1896855308
99,18,15,Jits_Phase_8,1,5,56,103,1896935872
99,18,15,Jits_Phase_8,2,5,63,98,1896945992
99,18,15,Jits_Phase_8,3,5,80,127,1896949280
99,18,15,Jits_Phase_8,0,1,48,60,1897639096
99,18,15,Jits_Phase_8,1,5,63,98,1897676136
99,18,15,Jits_Phase_8,2,5,56,103,1897735612
99,18,15,Jits_Phase_8,3,5,80,127,1897738604
99,18,15,Jits_Phase_8,0,1,48,57,1898408576
99,18,15,Jits_Phase_8,1,5,63,98,1898456404
99,18,15,Jits_Phase_8,2,5,80,127,1898486232
99,18,15,Jits_Phase_8,3,5,56,103,1898505492
99,18,15,Jits_Phase_8,0,5,56,103,1899185736
99,18,15,Jits_Phase_8,1,1,48,70,1899225872
99,18,15,Jits_Phase_8,2,5,63,98,1899235636
99,18,15,Jits_Phase_8,3,5,80,127,1899315428
99,18,15,Jits_Phase_8,0,5,80,127,1899886032
99,18,15,Jits_Phase_8,1,5,63,98,1899926120
99,18,15,Jits_Phase_8,2,1,48,67,1899938080
99,18,15,Jits_Phase_8,3,5,56,103,1899946348
99,18,15,Jits_Phase_8,0,1,48,69,1900675652
99,18,15,Jits_Phase_8,1,5,56,103,1900756220
99,18,15,Jits_Phase_8,2,5,80,127,1900765444
99,18,15,Jits_Phase_8,3,5,63,98,1900786108
99,18,15,Jits_Phase_8,0,1,48,57,1901477136
99,18,15,Jits_Phase_8,1,5,56,103,1901535600
99,18,15,Jits_Phase_8,2,5,63,98,1901585936
99,18,15,Jits_Phase_8,3,5,80,127,1901615388
99,18,15,Jits_Phase_8,0,5,56,103,1902286216
99,18,15,Jits_Phase_8,1,5,63,98,1902296564
99,18,15,Jits_Phase_8,2,1,48,56,1902297824
99,18,15,Jits_Phase_8,3,5,80,127,1902345560
99,18,15,Jits_Phase_8,0,1,48,61,1903069612
99,18,15,Jits_Phase_8,1,5,56,103,1903075784
99,18,15,Jits_Phase_8,2,5,80,127,1903078924
99,18,15,Jits_Phase_8,3,5,63,98,1903235424
99,18,15,Jits_Phase_8,0,1,48,57,1903826632
99,18,15,Jits_Phase_8,1,5,63,98,1903895960
99,18,15,Jits_Phase_8,2,5,56,103,1903965580
99,18,15,Jits_Phase_8,3,5,80,127,1904005444
99,18,15,Jits_Phase_8,0,1,48,53,1904726068
99,18,15,Jits_Phase_8,1,5,63,98,1904735752
99,18,15,Jits_Phase_8,2,5,56,103,1904825648
99,18,15,Jits_Phase_8,3,5,80,127,1904828860
99,18,15,Jits_Phase_8,0,5,56,103,1905515884
99,18,15,Jits_Phase_8,1,1,48,58,1905581704
99,18,15,Jits_Phase_8,2,5,63,98,1905606084
99,18,15,Jits_Phase_8,3,5,80,127,1905616208
99,18,15,Jits_Phase_8,0,5,56,103,1906285992
99,18,15,Jits_Phase_8,1,5,63,98,1906336044
99,18,15,Jits_Phase_8,2,1,48,52,1906360884
99,18,15,Jits_Phase_8,3,5,80,127,1906366008
99,18,15,Jits_Phase_8,0,1,48,53,1907054868
99,18,15,Jits_Phase_8,1,1,48,19,1907144076
99,18,15,Jits_Phase_8,2,5,63,98,1907165452
99,18,15,Jits_Phase_8,3,5,80,127,1907176020
99,18,15,Jits_Phase_8,4,5,56,103,1907236840
99,18,15,Jits_Phase_8,0,5,63,98,1907885412
99,18,15,Jits_Phase_8,1,1,48,56,1907907260
99,18,15,Jits_Phase_8,2,5,80,127,1907945944
99,18,15,Jits_Phase_8,3,5,56,103,1907986028
99,18,15,Jits_Phase_8,0,1,48,56,1908716376
99,18,15,Jits_Phase_8,1,5,56,103,1908785480
99,18,15,Jits_Phase_8,2,5,80,127,1908806040
99,18,15,Jits_Phase_8,3,5,63,98,1908825436
99,18,15,Jits_Phase_8,0,5,63,98,1909506360
99,18,15,Jits_Phase_8,1,5,56,103,1909525848
99,18,15,Jits_Phase_8,2,1,48,54,1909547992
99,18,15,Jits_Phase_8,3,5,80,127,1909566000
99,18,15,Jits_Phase_8,0,1,48,53,1910281624
99,18,15,Jits_Phase_8,1,5,63,98,1910316348
99,18,15,Jits_Phase_8,2,5,80,127,1910346048
99,18,15,Jits_Phase_8,3,5,56,103,1910365980
99,18,15,Jits_Phase_8,0,1,48,56,1911085392
99,18,15,Jits_Phase_8,1,5,80,127,1911086804
99,18,15,Jits_Phase_8,2,5,56,103,1911135540
99,18,15,Jits_Phase_8,3,5,63,98,1911195988
99,18,15,Jits_Phase_8,0,5,63,98,1911876108
99,18,15,Jits_Phase_8,1,1,48,55,1911924188
99,18,15,Jits_Phase_8,2,5,56,103,1911996052
99,18,15,Jits_Phase_8,3,5,80,127,1912025416
99,18,15,Jits_Phase_8,0,1,48,56,1912702944
99,18,15,Jits_Phase_8,1,5,80,127,1912715720
99,18,15,Jits_Phase_8,2,5,63,98,1912736032
99,18,15,Jits_Phase_8,3,5,56,103,1912805992
99,18,15,Jits_Phase_8,0,1,48,59,1913484892
99,18,15,Jits_Phase_8,1,5,63,98,1913535860
99,18,15,Jits_Phase_8,2,5,56,103,1913546132
99,18,15,Jits_Phase_8,3,5,80,127,1913626060
99,18,15,Jits_Phase_8,0,1,48,58,1914298356
99,18,15,Jits_Phase_8,1,5,56,103,1914395996
99,18,15,Jits_Phase_8,2,5,80,127,1914425820
99,18,15,Jits_Phase_8,3,5,63,98,1914435892
99,18,15,Jits_Phase_8,0,9999,9999,9999,1779543124
99,18,15,Jits_Phase_8,1,9999,9999,9999,1780343888
99,18,15,Jits_Phase_8,2,9999,9999,9999,1781143676
99,18,15,Jits_Phase_8,3,9999,9999,9999,1781943376
99,18,15,Jits_Phase_8,4,9999,9999,9999,1782743144
99,18,15,Jits_Phase_8,5,9999,9999,9999,1783543876
99,18,15,Jits_Phase_8,6,9999,9999,9999,1784343632
99,18,15,Jits_Phase_8,7,9999,9999,9999,1785143388
99,18,15,Jits_Phase_8,8,9999,9999,9999,1785943100
99,18,15,Jits_Phase_8,9,9999,9999,9999,1786743892
99,18,15,Jits_Phase_8,10,9999,9999,9999,1787543672
99,18,15,Jits_Phase_8,11,9999,9999,9999,1788343356
99,18,15,Jits_Phase_8,12,9999,9999,9999,1789143120
99,18,15,Jits_Phase_8,13,9999,9999,9999,1789943920
99,18,15,Jits_Phase_8,14,9999,9999,9999,1790743640
99,18,15,Jits_Phase_8,15,9999,9999,9999,1791543392
99,18,15,Jits_Phase_8,16,9999,9999,9999,1792343160
99,18,15,Jits_Phase_8,17,9999,9999,9999,1793143912
99,18,15,Jits_Phase_8,18,9999,9999,9999,1793943676
99,18,15,Jits_Phase_8,19,9999,9999,9999,1794743360
99,18,15,Jits_Phase_8,20,9999,9999,9999,1795543112
99,18,15,Jits_Phase_8,21,9999,9999,9999,1796343916
99,18,15,Jits_Phase_8,22,9999,9999,9999,1797143680
99,18,15,Jits_Phase_8,23,9999,9999,9999,1797943360
99,18,15,Jits_Phase_8,24,9999,9999,9999,1798743140
99,18,15,Jits_Phase_8,25,9999,9999,9999,1799543872
99,18,15,Jits_Phase_8,26,9999,9999,9999,1800343628
99,18,15,Jits_Phase_8,27,9999,9999,9999,1801143388
99,18,15,Jits_Phase_8,28,9999,9999,9999,1801943160
99,18,15,Jits_Phase_8,29,9999,9999,9999,1802743912
99,18,15,Jits_Phase_8,30,9999,9999,9999,1803523140
99,18,15,Jits_Phase_8,31,9999,9999,9999,1804323944
99,18,15,Jits_Phase_8,32,9999,9999,9999,1805123648
99,18,15,Jits_Phase_8,33,9999,9999,9999,1805923416
99,18,15,Jits_Phase_8,34,9999,9999,9999,1806723184
99,18,15,Jits_Phase_8,35,9999,9999,9999,1807523924
99,18,15,Jits_Phase_8,36,9999,9999,9999,1808323684
99,18,15,Jits_Phase_8,37,9999,9999,9999,1809123388
99,18,15,Jits_Phase_8,38,9999,9999,9999,1809923140
99,18,15,Jits_Phase_8,39,9999,9999,9999,1810723960
99,18,15,Jits_Phase_8,40,9999,9999,9999,1811523672
99,18,15,Jits_Phase_8,41,9999,9999,9999,1812323420
99,18,15,Jits_Phase_8,42,9999,9999,9999,1813123172
99,18,15,Jits_Phase_8,43,9999,9999,9999,1813923908
99,18,15,Jits_Phase_8,44,9999,9999,9999,1814723648
99,18,15,Jits_Phase_8,45,9999,9999,9999,1815523408
99,18,15,Jits_Phase_8,46,9999,9999,9999,1816323180
99,18,15,Jits_Phase_8,47,9999,9999,9999,1817123904
99,18,15,Jits_Phase_8,48,9999,9999,9999,1817943164
99,18,15,Jits_Phase_8,49,9999,9999,9999,1818743892
99,18,15,Jits_Phase_8,50,9999,9999,9999,1819543652
99,18,15,Jits_Phase_8,51,9999,9999,9999,1820343408
99,18,15,Jits_Phase_8,52,9999,9999,9999,1821143108
99,18,15,Jits_Phase_8,53,9999,9999,9999,1821943936
99,18,15,Jits_Phase_8,54,9999,9999,9999,1822743616
99,18,15,Jits_Phase_8,55,9999,9999,9999,1823543392
99,18,15,Jits_Phase_8,56,9999,9999,9999,1824343096
99,18,15,Jits_Phase_8,57,9999,9999,9999,1825143880
99,18,15,Jits_Phase_8,58,9999,9999,9999,1825943616
99,18,15,Jits_Phase_8,59,9999,9999,9999,1826743372
99,18,15,Jits_Phase_8,60,9999,9999,9999,1827543144
99,18,15,Jits_Phase_8,61,9999,9999,9999,1828343892
99,18,15,Jits_Phase_8,62,9999,9999,9999,1829143660
99,18,15,Jits_Phase_8,63,9999,9999,9999,1829943412
99,18,15,Jits_Phase_8,64,9999,9999,9999,1830784104
99,18,15,Jits_Phase_8,65,9999,9999,9999,1831594056
99,18,15,Jits_Phase_8,66,9999,9999,9999,1832393836
99,18,15,Jits_Phase_8,67,9999,9999,9999,1833193600
99,18,15,Jits_Phase_8,68,9999,9999,9999,1833993288
99,18,15,Jits_Phase_8,69,9999,9999,9999,1834794108
99,18,15,Jits_Phase_8,70,9999,9999,9999,1835593832
99,18,15,Jits_Phase_8,71,9999,9999,9999,1836393600
99,18,15,Jits_Phase_8,72,9999,9999,9999,1837193280
99,18,15,Jits_Phase_8,73,9999,9999,9999,1837994080
99,18,15,Jits_Phase_8,74,9999,9999,9999,1838793824
99,18,15,Jits_Phase_8,75,9999,9999,9999,1839593584
99,18,15,Jits_Phase_8,76,9999,9999,9999,1840393280
99,18,15,Jits_Phase_8,77,9999,9999,9999,1841194100
99,18,15,Jits_Phase_8,78,9999,9999,9999,1841993820
99,18,15,Jits_Phase_8,79,9999,9999,9999,1842793592
99,18,15,Jits_Phase_8,80,9999,9999,9999,1843593280
99,18,15,Jits_Phase_8,81,9999,9999,9999,1844353108
99,18,15,Jits_Phase_8,82,9999,9999,9999,1845153912
99,18,15,Jits_Phase_8,83,9999,9999,9999,1845953664
99,18,15,Jits_Phase_8,84,9999,9999,9999,1846753348
99,18,15,Jits_Phase_8,85,9999,9999,9999,1847553120
99,18,15,Jits_Phase_8,86,9999,9999,9999,1848353868
99,18,15,Jits_Phase_8,87,9999,9999,9999,1849153644
99,18,15,Jits_Phase_8,88,9999,9999,9999,1849953396
99,18,15,Jits_Phase_8,89,9999,9999,9999,1850753088
99,18,15,Jits_Phase_8,90,9999,9999,9999,1851553900
99,18,15,Jits_Phase_8,91,9999,9999,9999,1852353628
99,18,15,Jits_Phase_8,92,9999,9999,9999,1853153404
99,18,15,Jits_Phase_8,93,9999,9999,9999,1853953088
99,18,15,Jits_Phase_8,94,9999,9999,9999,1854753888
99,18,15,Jits_Phase_8,95,9999,9999,9999,1855553596
99,18,15,Jits_Phase_8,96,9999,9999,9999,1856353368
99,18,15,Jits_Phase_8,97,9999,9999,9999,1857073240
99,18,15,Jits_Phase_8,98,9999,9999,9999,1857874016
99,18,15,Jits_Phase_8,99,9999,9999,9999,1858673792
99,18,15,Jits_Phase_8,100,9999,9999,9999,1859473464
99,18,15,Jits_Phase_8,101,9999,9999,9999,1860273224
99,18,15,Jits_Phase_8,102,9999,9999,9999,1861074036
99,18,15,Jits_Phase_8,103,9999,9999,9999,1861873792
99,18,15,Jits_Phase_8,104,9999,9999,9999,1862673488
99,18,15,Jits_Phase_8,105,9999,9999,9999,1863473252
99,18,15,Jits_Phase_8,106,9999,9999,9999,1864273996
99,18,15,Jits_Phase_8,107,9999,9999,9999,1865073736
99,18,15,Jits_Phase_8,108,9999,9999,9999,1865873496
99,18,15,Jits_Phase_8,109,9999,9999,9999,1866673252
99,18,15,Jits_Phase_8,110,9999,9999,9999,1867473996
99,18,15,Jits_Phase_8,111,9999,9999,9999,1868273760
99,18,15,Jits_Phase_8,112,9999,9999,9999,1869073528
99,18,15,Jits_Phase_8,113,9999,9999,9999,1869873224
99,18,15,Jits_Phase_8,114,9999,9999,9999,1870753852
99,18,15,Jits_Phase_8,115,9999,9999,9999,1871553612
99,18,15,Jits_Phase_8,116,9999,9999,9999,1872353388
99,18,15,Jits_Phase_8,117,9999,9999,9999,1873153092
99,18,15,Jits_Phase_8,118,9999,9999,9999,1873953912
99,18,15,Jits_Phase_8,119,9999,9999,9999,1874753632
99,18,15,Jits_Phase_8,120,9999,9999,9999,1875553404
99,18,15,Jits_Phase_8,121,9999,9999,9999,1876353088
99,18,15,Jits_Phase_8,122,9999,9999,9999,1877153884
99,18,15,Jits_Phase_8,123,9999,9999,9999,1877953636
99,18,15,Jits_Phase_8,124,9999,9999,9999,1878753388
99,18,15,Jits_Phase_8,125,9999,9999,9999,1879553140
99,18,15,Jits_Phase_8,126,9999,9999,9999,1880353864
99,18,15,Jits_Phase_8,127,9999,9999,9999,1881153652
99,18,15,Jits_Phase_8,128,9999,9999,9999,1881953336
99,18,15,Jits_Phase_8,129,9999,9999,9999,1882753112
99,18,15,Jits_Phase_8,130,9999,9999,9999,1883553864
99,18,15,Jits_Phase_8,131,9999,9999,9999,1884513372
99,18,15,Jits_Phase_8,132,9999,9999,9999,1885313128
99,18,15,Jits_Phase_8,133,9999,9999,9999,1886113872
99,18,15,Jits_Phase_8,134,9999,9999,9999,1886913608
99,18,15,Jits_Phase_8,135,9999,9999,9999,1887713356
99,18,15,Jits_Phase_8,136,9999,9999,9999,1888513116
99,18,15,Jits_Phase_8,137,9999,9999,9999,1889313860
99,18,15,Jits_Phase_8,138,9999,9999,9999,1890113656
99,18,15,Jits_Phase_8,139,9999,9999,9999,1890913352
99,18,15,Jits_Phase_8,140,9999,9999,9999,1891713112
99,18,15,Jits_Phase_8,141,9999,9999,9999,1892513916
99,18,15,Jits_Phase_8,142,9999,9999,9999,1893313608
99,18,15,Jits_Phase_8,143,9999,9999,9999,1894113364
99,18,15,Jits_Phase_8,144,9999,9999,9999,1894913092
99,18,15,Jits_Phase_8,145,9999,9999,9999,1895713896
99,18,15,Jits_Phase_8,146,9999,9999,9999,1896513608
99,18,15,Jits_Phase_8,147,9999,9999,9999,1897313360
99,18,15,Jits_Phase_8,148,9999,9999,9999,1898113112
99,18,15,Jits_Phase_8,149,9999,9999,9999,1898913912
99,18,15,Jits_Phase_8,150,9999,9999,9999,1899553848
99,18,15,Jits_Phase_8,151,9999,9999,9999,1900353644
99,18,15,Jits_Phase_8,152,9999,9999,9999,1901153348
99,18,15,Jits_Phase_8,153,9999,9999,9999,1901953108
99,18,15,Jits_Phase_8,154,9999,9999,9999,1902753904
99,18,15,Jits_Phase_8,155,9999,9999,9999,1903553640
99,18,15,Jits_Phase_8,156,9999,9999,9999,1904353400
99,18,15,Jits_Phase_8,157,9999,9999,9999,1905153080
99,18,15,Jits_Phase_8,158,9999,9999,9999,1905953888
99,18,15,Jits_Phase_8,159,9999,9999,9999,1906753608
99,18,15,Jits_Phase_8,160,9999,9999,9999,1907553364
99,18,15,Jits_Phase_8,161,9999,9999,9999,1908353104
99,18,15,Jits_Phase_8,162,9999,9999,9999,1909153916
99,18,15,Jits_Phase_8,163,9999,9999,9999,1909953648
99,18,15,Jits_Phase_8,164,9999,9999,9999,1910753404
99,18,15,Jits_Phase_8,165,9999,9999,9999,1911553084
99,18,15,Jits_Phase_8,166,9999,9999,9999,1912353892
99,18,15,Jits_Phase_8,167,9999,9999,9999,1913153604
99,18,15,Jits_Phase_8,168,9999,9999,9999,1913953368
99,18,15,Jits_Phase_8,169,9999,9999,9999,1914753136
99,19,17,Jits_Phase_5,0,5,56,103,1922304392
99,19,17,Jits_Phase_5,1,5,63,98,1922307412
99,19,17,Jits_Phase_5,2,5,80,127,1922310756
99,19,17,Jits_Phase_5,0,5,56,103,1922804024
99,19,17,Jits_Phase_5,1,5,63,98,1922807120
99,19,17,Jits_Phase_5,2,5,80,127,1922810392
99,19,17,Jits_Phase_5,0,5,56,103,1923303824
99,19,17,Jits_Phase_5,1,5,80,127,1923314168
99,19,17,Jits_Phase_5,2,5,63,98,1923333356
99,19,17,Jits_Phase_5,0,5,63,98,1923754404
99,19,17,Jits_Phase_5,1,5,80,127,1923784004
99,19,17,Jits_Phase_5,2,5,56,103,1923794424
99,19,17,Jits_Phase_5,3,1,48,79,1923832084
99,19,17,Jits_Phase_5,0,5,80,127,1924313712
99,19,17,Jits_Phase_5,1,5,56,103,1924323760
99,19,17,Jits_Phase_5,2,1,48,70,1924331904
99,19,17,Jits_Phase_5,3,5,63,98,1924354400
99,19,17,Jits_Phase_5,0,5,63,98,1924803892
99,19,17,Jits_Phase_5,1,5,56,103,1924833864
99,19,17,Jits_Phase_5,2,5,80,127,1924843912
99,19,17,Jits_Phase_5,3,1,48,72,1924857068
99,19,17,Jits_Phase_5,0,5,56,103,1925253596
99,19,17,Jits_Phase_5,1,5,63,98,1925303648
99,19,17,Jits_Phase_5,2,5,80,127,1925324180
99,19,17,Jits_Phase_5,3,1,48,61,1925353372
99,19,17,Jits_Phase_5,0,5,80,127,1925754180
99,19,17,Jits_Phase_5,1,5,63,98,1925804380
99,19,17,Jits_Phase_5,2,1,48,66,1925806244
99,19,17,Jits_Phase_5,3,5,56,103,1925844312
99,19,17,Jits_Phase_5,0,5,56,103,1926253800
99,19,17,Jits_Phase_5,1,5,63,98,1926283844
99,19,17,Jits_Phase_5,2,1,48,70,1926305544
99,19,17,Jits_Phase_5,3,5,80,127,1926354192
99,19,17,Jits_Phase_5,0,5,56,103,1926753636
99,19,17,Jits_Phase_5,1,1,48,66,1926792792
99,19,17,Jits_Phase_5,2,5,80,127,1926814020
99,19,17,Jits_Phase_5,3,5,63,98,1926843840
99,19,17,Jits_Phase_5,0,5,56,103,1927263812
99,19,17,Jits_Phase_5,1,5,63,98,1927273784
99,19,17,Jits_Phase_5,2,1,48,64,1927288064
99,19,17,Jits_Phase_5,3,5,80,127,1927313712
99,19,17,Jits_Phase_5,0,5,63,98,1927764320
99,19,17,Jits_Phase_5,1,1,48,64,1927786844
99,19,17,Jits_Phase_5,2,5,80,127,1927844184
99,19,17,Jits_Phase_5,3,5,56,103,1927853632
99,19,17,Jits_Phase_5,0,1,48,64,1928283372
99,19,17,Jits_Phase_5,1,5,63,98,1928314188
99,19,17,Jits_Phase_5,2,5,56,103,1928354124
99,19,17,Jits_Phase_5,3,5,80,127,1928357188
99,19,17,Jits_Phase_5,0,5,56,103,1928773932
99,19,17,Jits_Phase_5,1,5,63,98,1928784352
99,19,17,Jits_Phase_5,2,1,48,70,1928810688
99,19,17,Jits_Phase_5,3,5,80,127,1928824056
99,19,17,Jits_Phase_5,0,5,56,103,1929263556
99,19,17,Jits_Phase_5,1,5,63,98,1929266548
99,19,17,Jits_Phase_5,2,5,80,127,1929283816
99,19,17,Jits_Phase_5,3,1,48,75,1929309772
99,19,17,Jits_Phase_5,0,5,80,127,1929773568
99,19,17,Jits_Phase_5,1,5,56,103,1929783840
99,19,17,Jits_Phase_5,2,1,48,62,1929799636
99,19,17,Jits_Phase_5,3,5,63,98,1929854212
99,19,17,Jits_Phase_5,0,5,63,98,1930263892
99,19,17,Jits_Phase_5,1,5,56,103,1930284500
99,19,17,Jits_Phase_5,2,1,48,67,1930321644
99,19,17,Jits_Phase_5,3,5,80,127,1930364160
99,19,17,Jits_Phase_5,0,5,56,103,1930773828
99,19,17,Jits_Phase_5,1,5,80,127,1930813864
99,19,17,Jits_Phase_5,2,1,48,67,1930821096
99,19,17,Jits_Phase_5,3,5,63,98,1930824052
99,19,17,Jits_Phase_5,0,5,80,127,1931264664
99,19,17,Jits_Phase_5,1,5,63,98,1931294116
99,19,17,Jits_Phase_5,2,1,48,61,1931327748
99,19,17,Jits_Phase_5,3,5,56,103,1931333920
99,19,17,Jits_Phase_5,0,5,56,103,1931783828
99,19,17,Jits_Phase_5,1,5,63,98,1931814180
99,19,17,Jits_Phase_5,2,1,48,59,1931817072
99,19,17,Jits_Phase_5,3,5,80,127,1931864544
99,19,17,Jits_Phase_5,0,5,80,127,1932284196
99,19,17,Jits_Phase_5,1,1,48,55,1932304320
99,19,17,Jits_Phase_5,2,5,56,103,1932324276
99,19,17,Jits_Phase_5,3,5,63,98,1932333648
99,19,17,Jits_Phase_5,0,5,80,127,1932763432
99,19,17,Jits_Phase_5,1,5,63,98,1932803668
99,19,17,Jits_Phase_5,2,1,48,56,1932804856
99,19,17,Jits_Phase_5,3,5,56,103,1932863852
99,19,17,Jits_Phase_5,0,5,56,103,1933264320
99,19,17,Jits_Phase_5,1,5,80,127,1933273692
99,19,17,Jits_Phase_5,2,1,48,59,1933326628
99,19,17,Jits_Phase_5,3,5,63,98,1933354300
99,19,17,Jits_Phase_5,0,5,80,127,1933763932
99,19,17,Jits_Phase_5,1,1,48,59,1933803240
99,19,17,Jits_Phase_5,2,5,63,98,1933824612
99,19,17,Jits_Phase_5,3,5,56,103,1933854064
99,19,17,Jits_Phase_5,0,5,56,103,1934263620
99,19,17,Jits_Phase_5,1,1,48,59,1934315960
99,19,17,Jits_Phase_5,2,5,80,127,1934324076
99,19,17,Jits_Phase_5,3,5,63,98,1934363940
99,19,17,Jits_Phase_5,0,1,48,57,1934801476
99,19,17,Jits_Phase_5,1,5,56,103,1934813652
99,19,17,Jits_Phase_5,2,5,63,98,1934823920
99,19,17,Jits_Phase_5,3,5,80,127,1934827208
99,19,17,Jits_Phase_5,0,1,48,59,1935263320
99,19,17,Jits_Phase_5,1,5,80,127,1935274432
99,19,17,Jits_Phase_5,2,5,63,98,1935363652
99,19,17,Jits_Phase_5,3,5,56,103,1935373624
99,19,17,Jits_Phase_5,0,5,56,103,1935774028
99,19,17,Jits_Phase_5,1,5,63,98,1935777124
99,19,17,Jits_Phase_5,2,5,80,127,1935780396
99,19,17,Jits_Phase_5,3,1,48,61,1935787124
99,19,17,Jits_Phase_5,0,1,48,58,1936279588
99,19,17,Jits_Phase_5,1,5,80,127,1936294376
99,19,17,Jits_Phase_5,2,5,63,98,1936344580
99,19,17,Jits_Phase_5,3,5,56,103,1936374536
99,19,17,Jits_Phase_5,0,5,56,103,1936773536
99,19,17,Jits_Phase_5,1,5,80,127,1936783732
99,19,17,Jits_Phase_5,2,1,48,59,1936809244
99,19,17,Jits_Phase_5,3,5,63,98,1936854600
99,19,17,Jits_Phase_5,0,1,48,59,1937260368
99,19,17,Jits_Phase_5,1,5,56,103,1937283556
99,19,17,Jits_Phase_5,2,5,63,98,1937303944
99,19,17,Jits_Phase_5,3,5,80,127,1937364316
99,19,17,Jits_Phase_5,0,5,80,127,1937763764
99,19,17,Jits_Phase_5,1,1,48,54,1937778044
99,19,17,Jits_Phase_5,2,5,63,98,1937834556
99,19,17,Jits_Phase_5,3,5,56,103,1937853820
99,19,17,Jits_Phase_5,0,5,80,127,1938283832
99,19,17,Jits_Phase_5,1,5,56,103,1938294104
99,19,17,Jits_Phase_5,2,5,63,98,1938304672
99,19,17,Jits_Phase_5,3,1,48,62,1938321584
99,19,17,Jits_Phase_5,0,5,80,127,1938774600
99,19,17,Jits_Phase_5,1,5,56,103,1938793716
99,19,17,Jits_Phase_5,2,1,48,62,1938824704
99,19,17,Jits_Phase_5,3,5,63,98,1938863684
99,19,17,Jits_Phase_5,0,5,56,103,1939284480
99,19,17,Jits_Phase_5,1,5,80,127,1939313932
99,19,17,Jits_Phase_5,2,1,48,59,1939317876
99,19,17,Jits_Phase_5,3,5,63,98,1939333636
99,19,17,Jits_Phase_5,0,5,63,98,1939773908
99,19,17,Jits_Phase_5,1,1,48,61,1939812016
99,19,17,Jits_Phase_5,2,5,56,103,1939834440
99,19,17,Jits_Phase_5,3,5,80,127,1939863816
99,19,17,Jits_Phase_5,0,5,63,98,1940264572
99,19,17,Jits_Phase_5,1,5,80,127,1940267704
99,19,17,Jits_Phase_5,2,1,48,62,1940320068
99,19,17,Jits_Phase_5,3,5,56,103,1940354564
99,19,17,Jits_Phase_5,0,5,56,103,1940783564
99,19,17,Jits_Phase_5,1,5,63,98,1940814088
99,19,17,Jits_Phase_5,2,1,48,63,1940842536
99,19,17,Jits_Phase_5,3,5,80,127,1940854096
99,19,17,Jits_Phase_5,0,5,63,98,1941284304
99,19,17,Jits_Phase_5,1,5,56,103,1941324192
99,19,17,Jits_Phase_5,2,5,80,127,1941343456
99,19,17,Jits_Phase_5,3,1,48,66,1941346872
99,19,17,Jits_Phase_5,0,5,63,98,1941794012
99,19,17,Jits_Phase_5,1,5,56,103,1941833976
99,19,17,Jits_Phase_5,2,1,48,57,1941842196
99,19,17,Jits_Phase_5,3,5,80,127,1941844316
99,19,17,Jits_Phase_5,0,5,80,127,1942274580
99,19,17,Jits_Phase_5,1,1,48,57,1942342472
99,19,17,Jits_Phase_5,2,5,63,98,1942343984
99,19,17,Jits_Phase_5,3,5,56,103,1942363692
99,19,17,Jits_Phase_5,0,5,56,103,1942764012
99,19,17,Jits_Phase_5,1,5,80,127,1942784472
99,19,17,Jits_Phase_5,2,5,63,98,1942824628
99,19,17,Jits_Phase_5,3,1,48,57,1942850316
99,19,17,Jits_Phase_5,0,5,63,98,1943273812
99,19,17,Jits_Phase_5,1,5,80,127,1943294272
99,19,17,Jits_Phase_5,2,5,56,103,1943334504
99,19,17,Jits_Phase_5,3,1,48,58,1943339568
99,19,17,Jits_Phase_5,0,5,63,98,1943773560
99,19,17,Jits_Phase_5,1,5,56,103,1943794020
99,19,17,Jits_Phase_5,2,5,80,127,1943804436
99,19,17,Jits_Phase_5,3,1,48,61,1943859764
99,19,17,Jits_Phase_5,0,5,80,127,1944274648
99,19,17,Jits_Phase_5,1,5,56,103,1944293764
99,19,17,Jits_Phase_5,2,5,63,98,1944323512
99,19,17,Jits_Phase_5,3,1,48,55,1944357792
99,19,17,Jits_Phase_5,0,5,56,103,1944843488
99,19,17,Jits_Phase_5,1,5,80,127,1944846560
99,19,17,Jits_Phase_5,2,1,48,60,1944850800
99,19,17,Jits_Phase_5,3,5,63,98,1944864020
99,19,17,Jits_Phase_5,0,5,63,98,1945263540
99,19,17,Jits_Phase_5,1,5,56,103,1945294188
99,19,17,Jits_Phase_5,2,5,80,127,1945353604
99,19,17,Jits_Phase_5,3,1,48,60,1945370496
99,19,17,Jits_Phase_5,0,1,48,55,1945833536
99,19,17,Jits_Phase_5,1,5,63,98,1945844492
99,19,17,Jits_Phase_5,2,5,56,103,1945854540
99,19,17,Jits_Phase_5,3,5,80,127,1945863468
99,19,17,Jits_Phase_5,0,5,56,103,1946303804
99,19,17,Jits_Phase_5,1,1,48,58,1946327376
99,19,17,Jits_Phase_5,2,5,80,127,1946333472
99,19,17,Jits_Phase_5,3,5,63,98,1946343744
99,19,17,Jits_Phase_5,0,1,48,56,1946809296
99,19,17,Jits_Phase_5,1,5,63,98,1946843424
99,19,17,Jits_Phase_5,2,5,56,103,1946853620
99,19,17,Jits_Phase_5,3,5,80,127,1946874376
99,19,17,Jits_Phase_5,0,5,56,103,1947273580
99,19,17,Jits_Phase_5,1,1,48,68,1947328312
99,19,17,Jits_Phase_5,2,5,63,98,1947333964
99,19,17,Jits_Phase_5,3,5,80,127,1947337476
99,19,17,Jits_Phase_5,0,5,80,127,1947793716
99,19,17,Jits_Phase_5,1,1,48,56,1947803008
99,19,17,Jits_Phase_5,2,5,56,103,1947804572
99,19,17,Jits_Phase_5,3,5,63,98,1947873660
99,19,17,Jits_Phase_5,0,5,80,127,1948284564
99,19,17,Jits_Phase_5,1,1,48,56,1948287088
99,19,17,Jits_Phase_5,2,5,56,103,1948353864
99,19,17,Jits_Phase_5,3,5,63,98,1948364360
99,19,17,Jits_Phase_5,0,5,63,98,1948823816
99,19,17,Jits_Phase_5,1,1,48,64,1948832264
99,19,17,Jits_Phase_5,2,5,56,103,1948834080
99,19,17,Jits_Phase_5,3,5,80,127,1948853564
99,19,17,Jits_Phase_5,0,5,80,127,1949273448
99,19,17,Jits_Phase_5,1,5,63,98,1949333764
99,19,17,Jits_Phase_5,2,1,48,63,1949345348
99,19,17,Jits_Phase_5,3,5,56,103,1949373768
99,19,17,Jits_Phase_5,0,5,56,103,1949814268
99,19,17,Jits_Phase_5,1,5,63,98,1949824316
99,19,17,Jits_Phase_5,2,1,48,62,1949839568
99,19,17,Jits_Phase_5,3,5,80,127,1949864468
99,19,17,Jits_Phase_5,0,5,56,103,1950273876
99,19,17,Jits_Phase_5,1,5,80,127,1950303480
99,19,17,Jits_Phase_5,2,1,48,61,1950334540
99,19,17,Jits_Phase_5,3,5,63,98,1950353672
99,19,17,Jits_Phase_5,0,1,48,53,1950804624
99,19,17,Jits_Phase_5,1,5,56,103,1950813492
99,19,17,Jits_Phase_5,2,5,63,98,1950853504
99,19,17,Jits_Phase_5,3,5,80,127,1950856720
99,19,17,Jits_Phase_5,0,1,48,56,1951277740
99,19,17,Jits_Phase_5,1,5,56,103,1951314504
99,19,17,Jits_Phase_5,2,5,63,98,1951323580
99,19,17,Jits_Phase_5,3,5,80,127,1951344116
99,19,17,Jits_Phase_5,0,5,56,103,1951774008
99,19,17,Jits_Phase_5,1,5,80,127,1951777296
99,19,17,Jits_Phase_5,2,1,48,60,1951787240
99,19,17,Jits_Phase_5,3,5,63,98,1951813888
99,19,17,Jits_Phase_5,0,1,48,64,1952265412
99,19,17,Jits_Phase_5,1,5,63,98,1952313764
99,19,17,Jits_Phase_5,2,5,56,103,1952344512
99,19,17,Jits_Phase_5,3,5,80,127,1952363980
99,19,17,Jits_Phase_5,0,1,48,63,1952779468
99,19,17,Jits_Phase_5,1,5,80,127,1952783772
99,19,17,Jits_Phase_5,2,5,56,103,1952793892
99,19,17,Jits_Phase_5,3,5,63,98,1952804164
99,19,17,Jits_Phase_5,0,5,56,103,1953283376
99,19,17,Jits_Phase_5,1,1,48,63,1953287244
99,19,17,Jits_Phase_5,2,5,80,127,1953324504
99,19,17,Jits_Phase_5,3,5,63,98,1953354052
99,19,17,Jits_Phase_5,0,5,63,98,1953794448
99,19,17,Jits_Phase_5,1,1,48,64,1953802612
99,19,17,Jits_Phase_5,2,5,80,127,1953804184
99,19,17,Jits_Phase_5,3,5,56,103,1953813784
99,19,17,Jits_Phase_5,0,5,56,103,1954283856
99,19,17,Jits_Phase_5,1,1,48,64,1954307796
99,19,17,Jits_Phase_5,2,5,63,98,1954353528
99,19,17,Jits_Phase_5,3,5,80,127,1954363800
99,19,17,Jits_Phase_5,0,5,80,127,1954793956
99,19,17,Jits_Phase_5,1,1,48,57,1954796400
99,19,17,Jits_Phase_5,2,5,56,103,1954804220
99,19,17,Jits_Phase_5,3,5,63,98,1954854420
99,19,17,Jits_Phase_5,0,1,48,64,1955300940
99,19,17,Jits_Phase_5,1,5,80,127,1955303752
99,19,17,Jits_Phase_5,2,5,56,103,1955364364
99,19,17,Jits_Phase_5,3,5,63,98,1955393752
99,19,17,Jits_Phase_5,0,5,56,103,1955803352
99,19,17,Jits_Phase_5,1,5,80,127,1955806424
99,19,17,Jits_Phase_5,2,1,48,72,1955807464
99,19,17,Jits_Phase_5,3,5,63,98,1955843440
99,19,17,Jits_Phase_5,0,1,48,61,1956311008
99,19,17,Jits_Phase_5,1,5,56,103,1956333896
99,19,17,Jits_Phase_5,2,5,63,98,1956363648
99,19,17,Jits_Phase_5,3,5,80,127,1956373844
99,19,17,Jits_Phase_5,0,1,48,61,1956806124
99,19,17,Jits_Phase_5,1,5,63,98,1956843988
99,19,17,Jits_Phase_5,2,5,80,127,1956854408
99,19,17,Jits_Phase_5,3,5,56,103,1956864456
99,19,17,Jits_Phase_5,0,5,80,127,1957293328
99,19,17,Jits_Phase_5,1,1,48,61,1957340116
99,19,17,Jits_Phase_5,2,5,56,103,1957343748
99,19,17,Jits_Phase_5,3,5,63,98,1957346888
99,19,17,Jits_Phase_5,0,1,48,66,1957823044
99,19,17,Jits_Phase_5,1,5,56,103,1957824616
99,19,17,Jits_Phase_5,2,5,80,127,1957844324
99,19,17,Jits_Phase_5,3,5,63,98,1957853624
99,19,17,Jits_Phase_5,0,5,63,98,1958304292
99,19,17,Jits_Phase_5,1,1,48,65,1958325096
99,19,17,Jits_Phase_5,2,5,56,103,1958333740
99,19,17,Jits_Phase_5,3,5,80,127,1958354496
99,19,17,Jits_Phase_5,0,5,56,103,1958814156
99,19,17,Jits_Phase_5,1,1,48,64,1958824352
99,19,17,Jits_Phase_5,2,5,80,127,1958825688
99,19,17,Jits_Phase_5,3,5,63,98,1958893876
99,19,17,Jits_Phase_5,0,5,63,98,1959303508
99,19,17,Jits_Phase_5,1,5,80,127,1959343520
99,19,17,Jits_Phase_5,2,1,48,71,1959379744
99,19,17,Jits_Phase_5,3,5,56,103,1959384572
99,19,17,Jits_Phase_5,0,5,56,103,1959813524
99,19,17,Jits_Phase_5,1,5,63,98,1959823868
99,19,17,Jits_Phase_5,2,5,80,127,1959844252
99,19,17,Jits_Phase_5,3,1,48,67,1959885352
99,19,17,Jits_Phase_5,0,5,63,98,1960354492
99,19,17,Jits_Phase_5,1,1,48,61,1960366676
99,19,17,Jits_Phase_5,2,5,80,127,1960373600
99,19,17,Jits_Phase_5,3,5,56,103,1960394280
99,19,17,Jits_Phase_5,0,5,56,103,1960793412
99,19,17,Jits_Phase_5,1,1,48,56,1960862764
99,19,17,Jits_Phase_5,2,5,80,127,1960874468
99,19,17,Jits_Phase_5,3,5,63,98,1960883544
99,19,17,Jits_Phase_5,0,5,80,127,1961334308
99,19,17,Jits_Phase_5,1,5,63,98,1961344284
99,19,17,Jits_Phase_5,2,1,48,57,1961358412
99,19,17,Jits_Phase_5,3,5,56,103,1961374248
99,19,17,Jits_Phase_5,0,5,63,98,1961793844
99,19,17,Jits_Phase_5,1,5,80,127,1961833780
99,19,17,Jits_Phase_5,2,1,48,51,1961835720
99,19,17,Jits_Phase_5,3,5,56,103,1961894236
99,19,17,Jits_Phase_5,0,5,63,98,1962303856
99,19,17,Jits_Phase_5,1,5,56,103,1962354280
99,19,17,Jits_Phase_5,2,1,48,57,1962355248
99,19,17,Jits_Phase_5,3,5,80,127,1962383724
99,19,17,Jits_Phase_5,0,5,80,127,1962803512
99,19,17,Jits_Phase_5,1,5,63,98,1962813808
99,19,17,Jits_Phase_5,2,1,48,56,1962851916
99,19,17,Jits_Phase_5,3,5,56,103,1962883328
99,19,17,Jits_Phase_5,0,1,48,50,1963295376
99,19,17,Jits_Phase_5,1,5,80,127,1963363608
99,19,17,Jits_Phase_5,2,5,56,103,1963373876
99,19,17,Jits_Phase_5,3,5,63,98,1963377016
99,19,17,Jits_Phase_5,0,5,56,103,1963804216
99,19,17,Jits_Phase_5,1,5,80,127,1963823556
99,19,17,Jits_Phase_5,2,1,48,54,1963833900
99,19,17,Jits_Phase_5,3,5,63,98,1963835236
99,19,17,Jits_Phase_5,0,5,63,98,1964314172
99,19,17,Jits_Phase_5,1,5,56,103,1964353764
99,19,17,Jits_Phase_5,2,1,48,50,1964359420
99,19,17,Jits_Phase_5,3,5,80,127,1964374436
99,19,17,Jits_Phase_5,0,5,63,98,1964813556
99,19,17,Jits_Phase_5,1,1,48,52,1964860892
99,19,17,Jits_Phase_5,2,5,56,103,1964874260
99,19,17,Jits_Phase_5,3,5,80,127,1964877248
99,19,17,Jits_Phase_5,0,5,56,103,1965273516
99,19,17,Jits_Phase_5,1,5,80,127,1965293900
99,19,17,Jits_Phase_5,2,5,63,98,1965333984
99,19,17,Jits_Phase_5,3,1,48,52,1965340920
99,19,17,Jits_Phase_5,0,5,56,103,1965803996
99,19,17,Jits_Phase_5,1,5,63,98,1965824304
99,19,17,Jits_Phase_5,2,5,80,127,1965833456
99,19,17,Jits_Phase_5,3,1,48,46,1965886936
99,19,17,Jits_Phase_5,0,5,80,127,1966273796
99,19,17,Jits_Phase_5,1,5,56,103,1966303544
99,19,17,Jits_Phase_5,2,5,63,98,1966343556
99,19,17,Jits_Phase_5,3,1,48,48,1966386600
99,19,17,Jits_Phase_5,0,5,80,127,1966783820
99,19,17,Jits_Phase_5,1,1,48,50,1966798620
99,19,17,Jits_Phase_5,2,5,56,103,1966804420
99,19,17,Jits_Phase_5,3,5,63,98,1966863836
99,19,17,Jits_Phase_5,0,5,56,103,1967293696
99,19,17,Jits_Phase_5,1,1,48,62,1967312712
99,19,17,Jits_Phase_5,2,5,80,127,1967314224
99,19,17,Jits_Phase_5,3,5,63,98,1967373640
99,19,17,Jits_Phase_5,0,5,80,127,1967774204
99,19,17,Jits_Phase_5,1,5,56,103,1967784400
99,19,17,Jits_Phase_5,2,1,48,62,1967804004
99,19,17,Jits_Phase_5,3,5,63,98,1967824180
99,19,17,Jits_Phase_5,0,5,63,98,1968273888
99,19,17,Jits_Phase_5,1,1,48,61,1968296784
99,19,17,Jits_Phase_5,2,5,56,103,1968313744
99,19,17,Jits_Phase_5,3,5,80,127,1968316808
99,19,17,Jits_Phase_5,0,1,48,58,1968764824
99,19,17,Jits_Phase_5,1,5,63,98,1968794072
99,19,17,Jits_Phase_5,2,5,80,127,1968833860
99,19,17,Jits_Phase_5,3,5,56,103,1968863592
99,19,17,Jits_Phase_5,0,1,48,55,1969266824
99,19,17,Jits_Phase_5,1,5,56,103,1969283332
99,19,17,Jits_Phase_5,2,5,63,98,1969293604
99,19,17,Jits_Phase_5,3,5,80,127,1969324396
99,19,17,Jits_Phase_5,0,5,80,127,1969774168
99,19,17,Jits_Phase_5,1,1,48,70,1969808972
99,19,17,Jits_Phase_5,2,5,63,98,1969843544
99,19,17,Jits_Phase_5,3,5,56,103,1969853740
99,19,17,Jits_Phase_5,0,5,63,98,1970273560
99,19,17,Jits_Phase_5,1,1,48,61,1970312116
99,19,17,Jits_Phase_5,2,5,56,103,1970344280
99,19,17,Jits_Phase_5,3,5,80,127,1970353500
99,19,17,Jits_Phase_5,0,5,63,98,1970754200
99,19,17,Jits_Phase_5,1,5,56,103,1970774364
99,19,17,Jits_Phase_5,2,1,48,66,1970807148
99,19,17,Jits_Phase_5,3,5,80,127,1970814292
99,19,17,Jits_Phase_5,0,5,56,103,1971234076
99,19,17,Jits_Phase_5,1,5,63,98,1971244568
99,19,17,Jits_Phase_5,2,1,48,62,1971262028
99,19,17,Jits_Phase_5,3,5,80,127,1971324300
99,19,17,Jits_Phase_5,0,5,63,98,1971723648
99,19,17,Jits_Phase_5,1,5,56,103,1971754296
99,19,17,Jits_Phase_5,2,1,48,54,1971762516
99,19,17,Jits_Phase_5,3,5,80,127,1971794248
99,19,17,Jits_Phase_5,0,5,56,103,1972224360
99,19,17,Jits_Phase_5,1,5,63,98,1972264296
99,19,17,Jits_Phase_5,2,1,48,61,1972265708
99,19,17,Jits_Phase_5,3,5,80,127,1972304180
99,19,17,Jits_Phase_5,0,5,80,127,1972724196
99,19,17,Jits_Phase_5,1,1,48,54,1972769412
99,19,17,Jits_Phase_5,2,5,56,103,1972804156
99,19,17,Jits_Phase_5,3,5,63,98,1972814276
99,19,17,Jits_Phase_5,0,5,56,103,1973263588
99,19,17,Jits_Phase_5,1,5,63,98,1973266660
99,19,17,Jits_Phase_5,2,1,48,58,1973267700
99,19,17,Jits_Phase_5,3,5,80,127,1973273932
99,19,17,Jits_Phase_5,0,1,48,63,1973761056
99,19,17,Jits_Phase_5,1,5,56,103,1973783944
99,19,17,Jits_Phase_5,2,5,63,98,1973804328
99,19,17,Jits_Phase_5,3,5,80,127,1973813624
99,19,17,Jits_Phase_5,0,5,63,98,1974243844
99,19,17,Jits_Phase_5,1,5,80,127,1974254264
99,19,17,Jits_Phase_5,2,1,48,61,1974272908
99,19,17,Jits_Phase_5,3,5,56,103,1974274344
99,19,17,Jits_Phase_5,0,5,63,98,1974744340
99,19,17,Jits_Phase_5,1,1,48,63,1974770524
99,19,17,Jits_Phase_5,2,5,56,103,1974824276
99,19,17,Jits_Phase_5,3,5,80,127,1974827416
99,19,17,Jits_Phase_5,0,5,63,98,1975244084
99,19,17,Jits_Phase_5,1,1,48,59,1975263348
99,19,17,Jits_Phase_5,2,5,56,103,1975264836
99,19,17,Jits_Phase_5,3,5,80,127,1975294284
99,19,17,Jits_Phase_5,0,5,56,103,1975743984
99,19,17,Jits_Phase_5,1,5,63,98,1975764368
99,19,17,Jits_Phase_5,2,1,48,45,1975770332
99,19,17,Jits_Phase_5,3,5,80,127,1975773512
99,19,17,Jits_Phase_5,0,1,48,60,1976246340
99,19,17,Jits_Phase_5,1,5,56,103,1976283600
99,19,17,Jits_Phase_5,2,5,63,98,1976314172
99,19,17,Jits_Phase_5,3,5,80,127,1976317460
99,19,17,Jits_Phase_5,0,5,56,103,1976733980
99,19,17,Jits_Phase_5,1,1,48,63,1976751268
99,19,17,Jits_Phase_5,2,5,63,98,1976774060
99,19,17,Jits_Phase_5,3,5,80,127,1976834376
99,19,17,Jits_Phase_5,0,5,56,103,1977254196
99,19,17,Jits_Phase_5,1,5,63,98,1977263348
99,19,17,Jits_Phase_5,2,1,48,62,1977264312
99,19,17,Jits_Phase_5,3,5,80,127,1977324096
99,19,17,Jits_Phase_5,0,5,56,103,1977754184
99,19,17,Jits_Phase_5,1,5,80,127,1977773448
99,19,17,Jits_Phase_5,2,1,48,57,1977776564
99,19,17,Jits_Phase_5,3,5,63,98,1977804084
99,19,17,Jits_Phase_5,0,5,80,127,1978253724
99,19,17,Jits_Phase_5,1,5,56,103,1978264140
99,19,17,Jits_Phase_5,2,5,63,98,1978284376
99,19,17,Jits_Phase_5,3,1,48,50,1978300896
99,19,17,Jits_Phase_5,0,5,63,98,1978744120
99,19,17,Jits_Phase_5,1,1,48,55,1978778548
99,19,17,Jits_Phase_5,2,5,80,127,1978824204
99,19,17,Jits_Phase_5,3,5,56,103,1978834324
99,19,17,Jits_Phase_5,0,1,48,58,1979258740
99,19,17,Jits_Phase_5,1,5,80,127,1979334144
99,19,17,Jits_Phase_5,2,5,56,103,1979353556
99,19,17,Jits_Phase_5,3,5,63,98,1979357280
99,19,17,Jits_Phase_5,0,1,48,64,1979779464
99,19,17,Jits_Phase_5,1,5,63,98,1979823472
99,19,17,Jits_Phase_5,2,5,80,127,1979826984
99,19,17,Jits_Phase_5,3,5,56,103,1979884072
99,19,17,Jits_Phase_5,0,1,48,59,1980267296
99,19,17,Jits_Phase_5,1,5,56,103,1980303816
99,19,17,Jits_Phase_5,2,5,80,127,1980314084
99,19,17,Jits_Phase_5,3,5,63,98,1980354024
99,19,17,Jits_Phase_5,0,1,48,74,1980771552
99,19,17,Jits_Phase_5,1,5,56,103,1980783932
99,19,17,Jits_Phase_5,2,5,63,98,1980844472
99,19,17,Jits_Phase_5,3,5,80,127,1980853620
99,19,17,Jits_Phase_5,0,1,48,56,1981277956
99,19,17,Jits_Phase_5,1,5,63,98,1981294024
99,19,17,Jits_Phase_5,2,5,80,127,1981334108
99,19,17,Jits_Phase_5,3,5,56,103,1981374032
99,19,17,Jits_Phase_5,0,5,56,103,1981793780
99,19,17,Jits_Phase_5,1,1,48,52,1981815932
99,19,17,Jits_Phase_5,2,5,63,98,1981873564
99,19,17,Jits_Phase_5,3,5,80,127,1981876852
99,19,17,Jits_Phase_5,0,1,48,58,1982298964
99,19,17,Jits_Phase_5,1,5,80,127,1982353916
99,19,17,Jits_Phase_5,2,5,56,103,1982383364
99,19,17,Jits_Phase_5,3,5,63,98,1982386584
99,19,17,Jits_Phase_5,0,5,56,103,1982813516
99,19,17,Jits_Phase_5,1,1,48,56,1982814480
99,19,17,Jits_Phase_5,2,5,80,127,1982834264
99,19,17,Jits_Phase_5,3,5,63,98,1982874052
99,19,17,Jits_Phase_5,0,5,80,127,1983294024
99,19,17,Jits_Phase_5,1,5,63,98,1983314184
99,19,17,Jits_Phase_5,2,1,48,59,1983320964
99,19,17,Jits_Phase_5,3,5,56,103,1983373892
99,19,17,Jits_Phase_5,0,5,63,98,1983803828
99,19,17,Jits_Phase_5,1,5,56,103,1983814024
99,19,17,Jits_Phase_5,2,1,48,56,1983830988
99,19,17,Jits_Phase_5,3,5,80,127,1983864288
99,19,17,Jits_Phase_5,0,5,56,103,1984294188
99,19,17,Jits_Phase_5,1,1,48,55,1984313600
99,19,17,Jits_Phase_5,2,5,63,98,1984315252
99,19,17,Jits_Phase_5,3,5,80,127,1984324176
99,19,17,Jits_Phase_5,0,5,56,103,1984783980
99,19,17,Jits_Phase_5,1,5,63,98,1984786964
99,19,17,Jits_Phase_5,2,5,80,127,1984804132
99,19,17,Jits_Phase_5,3,1,48,46,1984821640
99,19,17,Jits_Phase_5,0,1,48,51,1985288180
99,19,17,Jits_Phase_5,1,5,63,98,1985324400
99,19,17,Jits_Phase_5,2,5,56,103,1985353952
99,19,17,Jits_Phase_5,3,5,80,127,1985383908
99,19,17,Jits_Phase_5,0,5,80,127,1985784152
99,19,17,Jits_Phase_5,1,1,48,48,1985789884
99,19,17,Jits_Phase_5,2,5,56,103,1985874300
99,19,17,Jits_Phase_5,3,5,63,98,1985877292
99,19,17,Jits_Phase_5,0,5,56,103,1986284056
99,19,17,Jits_Phase_5,1,5,80,127,1986287196
99,19,17,Jits_Phase_5,2,1,48,41,1986310988
99,19,17,Jits_Phase_5,3,5,63,98,1986363788
99,19,17,Jits_Phase_5,0,5,80,127,1986783660
99,19,17,Jits_Phase_5,1,1,48,56,1986832488
99,19,17,Jits_Phase_5,2,5,63,98,1986844192
99,19,17,Jits_Phase_5,3,5,56,103,1986873868
99,19,17,Jits_Phase_5,0,5,63,98,1987284320
99,19,17,Jits_Phase_5,1,5,80,127,1987293472
99,19,17,Jits_Phase_5,2,5,56,103,1987364120
99,19,17,Jits_Phase_5,3,1,48,53,1987370380
99,19,17,Jits_Phase_5,0,5,56,103,1987843332
99,19,17,Jits_Phase_5,1,5,80,127,1987874276
99,19,17,Jits_Phase_5,2,1,48,64,1987885788
99,19,17,Jits_Phase_5,3,5,63,98,1987924272
99,19,17,Jits_Phase_5,0,1,48,56,1988408752
99,19,17,Jits_Phase_5,1,5,63,98,1988443500
99,19,17,Jits_Phase_5,2,5,56,103,1988474220
99,19,17,Jits_Phase_5,3,5,80,127,1988477360
99,19,17,Jits_Phase_5,0,5,63,98,1988944296
99,19,17,Jits_Phase_5,1,1,48,63,1988953788
99,19,17,Jits_Phase_5,2,5,80,127,1988963848
99,19,17,Jits_Phase_5,3,5,56,103,1988974120
99,19,17,Jits_Phase_5,0,1,48,69,1989452864
99,19,17,Jits_Phase_5,1,5,56,103,1989454376
99,19,17,Jits_Phase_5,2,5,63,98,1989457144
99,19,17,Jits_Phase_5,3,5,80,127,1989473936
99,19,17,Jits_Phase_5,0,5,56,103,1989903980
99,19,17,Jits_Phase_5,1,5,63,98,1989913956
99,19,17,Jits_Phase_5,2,5,80,127,1989943852
99,19,17,Jits_Phase_5,3,1,48,67,1989981612
99,19,17,Jits_Phase_5,0,5,63,98,1990423896
99,19,17,Jits_Phase_5,1,5,80,127,1990444280
99,19,17,Jits_Phase_5,2,5,56,103,1990484392
99,19,17,Jits_Phase_5,3,1,48,66,1990522348
99,19,17,Jits_Phase_5,0,5,56,103,1990954216
99,19,17,Jits_Phase_5,1,5,63,98,1990994252
99,19,17,Jits_Phase_5,2,5,80,127,1990997540
99,19,17,Jits_Phase_5,3,1,48,53,1991020208
99,19,17,Jits_Phase_5,0,5,80,127,1991393816
99,19,17,Jits_Phase_5,1,5,56,103,1991433680
99,19,17,Jits_Phase_5,2,5,63,98,1991483828
99,19,17,Jits_Phase_5,3,1,48,55,1991506952
99,19,17,Jits_Phase_5,0,5,56,103,1991953892
99,19,17,Jits_Phase_5,1,5,80,127,1991964012
99,19,17,Jits_Phase_5,2,5,63,98,1991993908
99,19,17,Jits_Phase_5,3,1,48,76,1992049860
99,19,17,Jits_Phase_5,0,5,56,103,1992413580
99,19,17,Jits_Phase_5,1,5,80,127,1992453516
99,19,17,Jits_Phase_5,2,5,63,98,1992503792
99,19,17,Jits_Phase_5,3,1,48,59,1992527984
99,19,17,Jits_Phase_5,0,5,56,103,1992914244
99,19,17,Jits_Phase_5,1,5,80,127,1992954256
99,19,17,Jits_Phase_5,2,5,63,98,1993004380
99,19,17,Jits_Phase_5,3,1,48,53,1993038160
99,19,17,Jits_Phase_5,0,5,80,127,1993404044
99,19,17,Jits_Phase_5,1,1,48,51,1993458780
99,19,17,Jits_Phase_5,2,5,63,98,1993483832
99,19,17,Jits_Phase_5,3,5,56,103,1993493876
99,19,17,Jits_Phase_5,0,5,80,127,1993953784
99,19,17,Jits_Phase_5,1,5,56,103,1993963980
99,19,17,Jits_Phase_5,2,1,48,55,1993967920
99,19,17,Jits_Phase_5,3,5,63,98,1993984428
99,19,17,Jits_Phase_5,0,5,63,98,1994423876
99,19,17,Jits_Phase_5,1,1,48,60,1994469472
99,19,17,Jits_Phase_5,2,5,56,103,1994494300
99,19,17,Jits_Phase_5,3,5,80,127,1994497440
99,19,17,Jits_Phase_5,0,5,80,127,1994914108
99,19,17,Jits_Phase_5,1,1,48,57,1994930028
99,19,17,Jits_Phase_5,2,5,63,98,1994964304
99,19,17,Jits_Phase_5,3,5,56,103,1995004164
99,19,17,Jits_Phase_5,0,1,48,57,1995434520
99,19,17,Jits_Phase_5,1,5,63,98,1995453800
99,19,17,Jits_Phase_5,2,5,56,103,1995493736
99,19,17,Jits_Phase_5,3,5,80,127,1995503932
99,19,17,Jits_Phase_5,0,5,63,98,1995944268
99,19,17,Jits_Phase_5,1,1,48,57,1995945756
99,19,17,Jits_Phase_5,2,5,56,103,1995963748
99,19,17,Jits_Phase_5,3,5,80,127,1995984132
99,19,17,Jits_Phase_5,0,5,80,127,1996404016
99,19,17,Jits_Phase_5,1,5,56,103,1996414212
99,19,17,Jits_Phase_5,2,5,63,98,1996433920
99,19,17,Jits_Phase_5,3,1,48,62,1996435860
99,19,17,Jits_Phase_5,0,1,48,55,1996911592
99,19,17,Jits_Phase_5,1,5,63,98,1996933364
99,19,17,Jits_Phase_5,2,5,56,103,1996973300
99,19,17,Jits_Phase_5,3,5,80,127,1997004168
99,19,17,Jits_Phase_5,0,5,56,103,1997394240
99,19,17,Jits_Phase_5,1,5,63,98,1997423840
99,19,17,Jits_Phase_5,2,1,48,56,1997446288
99,19,17,Jits_Phase_5,3,5,80,127,1997453876
99,19,17,Jits_Phase_5,0,5,80,127,1997814120
99,19,17,Jits_Phase_5,1,5,56,103,1997883672
99,19,17,Jits_Phase_5,2,5,63,98,1997886744
99,19,17,Jits_Phase_5,3,1,48,62,1997944332
99,19,17,Jits_Phase_5,0,5,56,103,1998324068
99,19,17,Jits_Phase_5,1,5,63,98,1998374120
99,19,17,Jits_Phase_5,2,5,80,127,1998403892
99,19,17,Jits_Phase_5,3,1,48,59,1998451496
99,19,17,Jits_Phase_5,0,5,63,98,1998804280
99,19,17,Jits_Phase_5,1,5,80,127,1998807720
99,19,17,Jits_Phase_5,2,5,56,103,1998863992
99,19,17,Jits_Phase_5,3,1,48,52,1998891168
99,19,17,Jits_Phase_5,0,5,56,103,1999333836
99,19,17,Jits_Phase_5,1,5,80,127,1999343884
99,19,17,Jits_Phase_5,2,1,48,53,1999352104
99,19,17,Jits_Phase_5,3,5,63,98,1999394152
99,19,17,Jits_Phase_5,0,5,63,98,1999803860
99,19,17,Jits_Phase_5,1,5,56,103,1999813980
99,19,17,Jits_Phase_5,2,5,80,127,1999843656
99,19,17,Jits_Phase_5,3,1,48,57,1999853144
99,19,17,Jits_Phase_5,0,5,63,98,2000334244
99,19,17,Jits_Phase_5,1,5,80,127,2000337384
99,19,17,Jits_Phase_5,2,1,48,56,2000360508
99,19,17,Jits_Phase_5,3,5,56,103,2000364060
99,19,17,Jits_Phase_5,0,5,63,98,2000854360
99,19,17,Jits_Phase_5,1,1,48,60,2000855328
99,19,17,Jits_Phase_5,2,5,56,103,2000873988
99,19,17,Jits_Phase_5,3,5,80,127,2000876976
99,19,17,Jits_Phase_5,0,5,63,98,2001314096
99,19,17,Jits_Phase_5,1,1,48,55,2001365240
99,19,17,Jits_Phase_5,2,5,56,103,2001383768
99,19,17,Jits_Phase_5,3,5,80,127,2001404300
99,19,17,Jits_Phase_5,0,5,56,103,2001803876
99,19,17,Jits_Phase_5,1,5,63,98,2001813852
99,19,17,Jits_Phase_5,2,1,48,56,2001866116
99,19,17,Jits_Phase_5,3,5,80,127,2001903976
99,19,17,Jits_Phase_5,0,5,56,103,2002323944
99,19,17,Jits_Phase_5,1,1,48,54,2002363132
99,19,17,Jits_Phase_5,2,5,80,127,2002364700
99,19,17,Jits_Phase_5,3,5,63,98,2002374000
99,19,17,Jits_Phase_5,0,5,56,103,2002844016
99,19,17,Jits_Phase_5,1,1,48,60,2002866836
99,19,17,Jits_Phase_5,2,5,63,98,2002873832
99,19,17,Jits_Phase_5,3,5,80,127,2002904628
99,19,17,Jits_Phase_5,0,5,80,127,2003303772
99,19,17,Jits_Phase_5,1,1,48,65,2003337532
99,19,17,Jits_Phase_5,2,5,63,98,2003343708
99,19,17,Jits_Phase_5,3,5,56,103,2003364088
99,19,17,Jits_Phase_5,0,5,56,103,2003843544
99,19,17,Jits_Phase_5,1,1,48,62,2003861188
99,19,17,Jits_Phase_5,2,5,80,127,2003863848
99,19,17,Jits_Phase_5,3,5,63,98,2003884680
99,19,17,Jits_Phase_5,0,5,63,98,2004313716
99,19,17,Jits_Phase_5,1,5,56,103,2004323764
99,19,17,Jits_Phase_5,2,1,48,58,2004335348
99,19,17,Jits_Phase_5,3,5,80,127,2004384068
99,19,17,Jits_Phase_5,0,5,56,103,2004814136
99,19,17,Jits_Phase_5,1,1,48,56,2004840920
99,19,17,Jits_Phase_5,2,5,63,98,2004883884
99,19,17,Jits_Phase_5,3,5,80,127,2004904268
99,19,17,Jits_Phase_5,0,5,56,103,2005313976
99,19,17,Jits_Phase_5,1,5,63,98,2005343652
99,19,17,Jits_Phase_5,2,1,48,56,2005357480
99,19,17,Jits_Phase_5,3,5,80,127,2005383584
99,19,17,Jits_Phase_5,0,5,63,98,2005804500
99,19,17,Jits_Phase_5,1,1,48,56,2005848324
99,19,17,Jits_Phase_5,2,5,56,103,2005853672
99,19,17,Jits_Phase_5,3,5,80,127,2005863944
99,19,17,Jits_Phase_5,0,1,48,54,2006321380
99,19,17,Jits_Phase_5,1,5,56,103,2006354388
99,19,17,Jits_Phase_5,2,5,63,98,2006403396
99,19,17,Jits_Phase_5,3,5,80,127,2006413736
99,19,17,Jits_Phase_5,0,5,56,103,2006824380
99,19,17,Jits_Phase_5,1,1,48,61,2006828624
99,19,17,Jits_Phase_5,2,5,63,98,2006833676
99,19,17,Jits_Phase_5,3,5,80,127,2006914536
99,19,17,Jits_Phase_5,0,9999,9999,9999,1922551896
99,19,17,Jits_Phase_5,1,9999,9999,9999,1923051604
99,19,17,Jits_Phase_5,2,9999,9999,9999,1923551332
99,19,17,Jits_Phase_5,3,9999,9999,9999,1924052080
99,19,17,Jits_Phase_5,4,9999,9999,9999,1924551760
99,19,17,Jits_Phase_5,5,9999,9999,9999,1925051452
99,19,17,Jits_Phase_5,6,9999,9999,9999,1925551200
99,19,17,Jits_Phase_5,7,9999,9999,9999,1926051936
99,19,17,Jits_Phase_5,8,9999,9999,9999,1926551624
99,19,17,Jits_Phase_5,9,9999,9999,9999,1927051392
99,19,17,Jits_Phase_5,10,9999,9999,9999,1927552124
99,19,17,Jits_Phase_5,11,9999,9999,9999,1928062076
99,19,17,Jits_Phase_5,12,9999,9999,9999,1928561748
99,19,17,Jits_Phase_5,13,9999,9999,9999,1929061496
99,19,17,Jits_Phase_5,14,9999,9999,9999,1929561172
99,19,17,Jits_Phase_5,15,9999,9999,9999,1930061908
99,19,17,Jits_Phase_5,16,9999,9999,9999,1930561596
99,19,17,Jits_Phase_5,17,9999,9999,9999,1931061316
99,19,17,Jits_Phase_5,18,9999,9999,9999,1931562044
99,19,17,Jits_Phase_5,19,9999,9999,9999,1932061808
99,19,17,Jits_Phase_5,20,9999,9999,9999,1932561496
99,19,17,Jits_Phase_5,21,9999,9999,9999,1933061188
99,19,17,Jits_Phase_5,22,9999,9999,9999,1933561924
99,19,17,Jits_Phase_5,23,9999,9999,9999,1934061688
99,19,17,Jits_Phase_5,24,9999,9999,9999,1934561376
99,19,17,Jits_Phase_5,25,9999,9999,9999,1935062108
99,19,17,Jits_Phase_5,26,9999,9999,9999,1935572048
99,19,17,Jits_Phase_5,27,9999,9999,9999,1936071772
99,19,17,Jits_Phase_5,28,9999,9999,9999,1936571468
99,19,17,Jits_Phase_5,29,9999,9999,9999,1937071216
99,19,17,Jits_Phase_5,30,9999,9999,9999,1937561692
99,19,17,Jits_Phase_5,31,9999,9999,9999,1938061372
99,19,17,Jits_Phase_5,32,9999,9999,9999,1938561132
99,19,17,Jits_Phase_5,33,9999,9999,9999,1939061868
99,19,17,Jits_Phase_5,34,9999,9999,9999,1939561560
99,19,17,Jits_Phase_5,35,9999,9999,9999,1940061252
99,19,17,Jits_Phase_5,36,9999,9999,9999,1940562040
99,19,17,Jits_Phase_5,37,9999,9999,9999,1941061716
99,19,17,Jits_Phase_5,38,9999,9999,9999,1941561460
99,19,17,Jits_Phase_5,39,9999,9999,9999,1942061128
99,19,17,Jits_Phase_5,40,9999,9999,9999,1942561856
99,19,17,Jits_Phase_5,41,9999,9999,9999,1943061612
99,19,17,Jits_Phase_5,42,9999,9999,9999,1943561300
99,19,17,Jits_Phase_5,43,9999,9999,9999,1944062020
99,19,17,Jits_Phase_5,44,9999,9999,9999,1944561768
99,19,17,Jits_Phase_5,45,9999,9999,9999,1945061456
99,19,17,Jits_Phase_5,46,9999,9999,9999,1945561144
99,19,17,Jits_Phase_5,47,9999,9999,9999,1946061952
99,19,17,Jits_Phase_5,48,9999,9999,9999,1946571892
99,19,17,Jits_Phase_5,49,9999,9999,9999,1947071588
99,19,17,Jits_Phase_5,50,9999,9999,9999,1947571252
99,19,17,Jits_Phase_5,51,9999,9999,9999,1948071992
99,19,17,Jits_Phase_5,52,9999,9999,9999,1948571760
99,19,17,Jits_Phase_5,53,9999,9999,9999,1949071452
99,19,17,Jits_Phase_5,54,9999,9999,9999,1949571128
99,19,17,Jits_Phase_5,55,9999,9999,9999,1950071868
99,19,17,Jits_Phase_5,56,9999,9999,9999,1950571632
99,19,17,Jits_Phase_5,57,9999,9999,9999,1951071316
99,19,17,Jits_Phase_5,58,9999,9999,9999,1951572040
99,19,17,Jits_Phase_5,59,9999,9999,9999,1952071776
99,19,17,Jits_Phase_5,60,9999,9999,9999,1952571520
99,19,17,Jits_Phase_5,61,9999,9999,9999,1953071192
99,19,17,Jits_Phase_5,62,9999,9999,9999,1953571912
99,19,17,Jits_Phase_5,63,9999,9999,9999,1954071672
99,19,17,Jits_Phase_5,64,9999,9999,9999,1954591872
99,19,17,Jits_Phase_5,65,9999,9999,9999,1955091560
99,19,17,Jits_Phase_5,66,9999,9999,9999,1955591252
99,19,17,Jits_Phase_5,67,9999,9999,9999,1956091960
99,19,17,Jits_Phase_5,68,9999,9999,9999,1956591728
99,19,17,Jits_Phase_5,69,9999,9999,9999,1957091408
99,19,17,Jits_Phase_5,70,9999,9999,9999,1957591148
99,19,17,Jits_Phase_5,71,9999,9999,9999,1958091884
99,19,17,Jits_Phase_5,72,9999,9999,9999,1958591560
99,19,17,Jits_Phase_5,73,9999,9999,9999,1959091308
99,19,17,Jits_Phase_5,74,9999,9999,9999,1959592048
99,19,17,Jits_Phase_5,75,9999,9999,9999,1960091720
99,19,17,Jits_Phase_5,76,9999,9999,9999,1960591416
99,19,17,Jits_Phase_5,77,9999,9999,9999,1961091168
99,19,17,Jits_Phase_5,78,9999,9999,9999,1961591908
99,19,17,Jits_Phase_5,79,9999,9999,9999,1962091600
99,19,17,Jits_Phase_5,80,9999,9999,9999,1962591348
99,19,17,Jits_Phase_5,81,9999,9999,9999,1963071548
99,19,17,Jits_Phase_5,82,9999,9999,9999,1963571288
99,19,17,Jits_Phase_5,83,9999,9999,9999,1964072004
99,19,17,Jits_Phase_5,84,9999,9999,9999,1964571776
99,19,17,Jits_Phase_5,85,9999,9999,9999,1965071444
99,19,17,Jits_Phase_5,86,9999,9999,9999,1965571192
99,19,17,Jits_Phase_5,87,9999,9999,9999,1966071932
99,19,17,Jits_Phase_5,88,9999,9999,9999,1966571624
99,19,17,Jits_Phase_5,89,9999,9999,9999,1967071312
99,19,17,Jits_Phase_5,90,9999,9999,9999,1967572048
99,19,17,Jits_Phase_5,91,9999,9999,9999,1968071808
99,19,17,Jits_Phase_5,92,9999,9999,9999,1968571484
99,19,17,Jits_Phase_5,93,9999,9999,9999,1969071156
99,19,17,Jits_Phase_5,94,9999,9999,9999,1969571948
99,19,17,Jits_Phase_5,95,9999,9999,9999,1970071624
99,19,17,Jits_Phase_5,96,9999,9999,9999,1970571388
99,19,17,Jits_Phase_5,97,9999,9999,9999,1971021916
99,19,17,Jits_Phase_5,98,9999,9999,9999,1971521592
99,19,17,Jits_Phase_5,99,9999,9999,9999,1972021328
99,19,17,Jits_Phase_5,100,9999,9999,9999,1972522040
99,19,17,Jits_Phase_5,101,9999,9999,9999,1973021804
99,19,17,Jits_Phase_5,102,9999,9999,9999,1973521480
99,19,17,Jits_Phase_5,103,9999,9999,9999,1974021176
99,19,17,Jits_Phase_5,104,9999,9999,9999,1974521968
99,19,17,Jits_Phase_5,105,9999,9999,9999,1975021640
99,19,17,Jits_Phase_5,106,9999,9999,9999,1975521388
99,19,17,Jits_Phase_5,107,9999,9999,9999,1976022112
99,19,17,Jits_Phase_5,108,9999,9999,9999,1976532060
99,19,17,Jits_Phase_5,109,9999,9999,9999,1977031736
99,19,17,Jits_Phase_5,110,9999,9999,9999,1977531500
99,19,17,Jits_Phase_5,111,9999,9999,9999,1978031188
99,19,17,Jits_Phase_5,112,9999,9999,9999,1978531920
99,19,17,Jits_Phase_5,113,9999,9999,9999,1979031616
99,19,17,Jits_Phase_5,114,9999,9999,9999,1979581556
99,19,17,Jits_Phase_5,115,9999,9999,9999,1980081224
99,19,17,Jits_Phase_5,116,9999,9999,9999,1980581944
99,19,17,Jits_Phase_5,117,9999,9999,9999,1981081696
99,19,17,Jits_Phase_5,118,9999,9999,9999,1981581372
99,19,17,Jits_Phase_5,119,9999,9999,9999,1982081116
99,19,17,Jits_Phase_5,120,9999,9999,9999,1982581848
99,19,17,Jits_Phase_5,121,9999,9999,9999,1983081528
99,19,17,Jits_Phase_5,122,9999,9999,9999,1983581292
99,19,17,Jits_Phase_5,123,9999,9999,9999,1984082024
99,19,17,Jits_Phase_5,124,9999,9999,9999,1984581692
99,19,17,Jits_Phase_5,125,9999,9999,9999,1985081416
99,19,17,Jits_Phase_5,126,9999,9999,9999,1985581112
99,19,17,Jits_Phase_5,127,9999,9999,9999,1986081900
99,19,17,Jits_Phase_5,128,9999,9999,9999,1986581576
99,19,17,Jits_Phase_5,129,9999,9999,9999,1987081340
99,19,17,Jits_Phase_5,130,9999,9999,9999,1987582072
99,19,17,Jits_Phase_5,131,9999,9999,9999,1988182084
99,19,17,Jits_Phase_5,132,9999,9999,9999,1988692032
99,19,17,Jits_Phase_5,133,9999,9999,9999,1989191780
99,19,17,Jits_Phase_5,134,9999,9999,9999,1989691448
99,19,17,Jits_Phase_5,135,9999,9999,9999,1990191172
99,19,17,Jits_Phase_5,136,9999,9999,9999,1990691908
99,19,17,Jits_Phase_5,137,9999,9999,9999,1991191656
99,19,17,Jits_Phase_5,138,9999,9999,9999,1991691348
99,19,17,Jits_Phase_5,139,9999,9999,9999,1992192088
99,19,17,Jits_Phase_5,140,9999,9999,9999,1992702044
99,19,17,Jits_Phase_5,141,9999,9999,9999,1993201736
99,19,17,Jits_Phase_5,142,9999,9999,9999,1993701500
99,19,17,Jits_Phase_5,143,9999,9999,9999,1994201192
99,19,17,Jits_Phase_5,144,9999,9999,9999,1994701924
99,19,17,Jits_Phase_5,145,9999,9999,9999,1995201600
99,19,17,Jits_Phase_5,146,9999,9999,9999,1995701368
99,19,17,Jits_Phase_5,147,9999,9999,9999,1996202092
99,19,17,Jits_Phase_5,148,9999,9999,9999,1996701764
99,19,17,Jits_Phase_5,149,9999,9999,9999,1997201532
99,19,17,Jits_Phase_5,150,9999,9999,9999,1997601848
99,19,17,Jits_Phase_5,151,9999,9999,9999,1998101608
99,19,17,Jits_Phase_5,152,9999,9999,9999,1998601300
99,19,17,Jits_Phase_5,153,9999,9999,9999,1999102024
99,19,17,Jits_Phase_5,154,9999,9999,9999,1999601776
99,19,17,Jits_Phase_5,155,9999,9999,9999,2000101460
99,19,17,Jits_Phase_5,156,9999,9999,9999,2000601200
99,19,17,Jits_Phase_5,157,9999,9999,9999,2001101912
99,19,17,Jits_Phase_5,158,9999,9999,9999,2001601660
99,19,17,Jits_Phase_5,159,9999,9999,9999,2002101336
99,19,17,Jits_Phase_5,160,9999,9999,9999,2002602072
99,19,17,Jits_Phase_5,161,9999,9999,9999,2003101764
99,19,17,Jits_Phase_5,162,9999,9999,9999,2003601528
99,19,17,Jits_Phase_5,163,9999,9999,9999,2004101220
99,19,17,Jits_Phase_5,164,9999,9999,9999,2004601952
99,19,17,Jits_Phase_5,165,9999,9999,9999,2005101632
99,19,17,Jits_Phase_5,166,9999,9999,9999,2005601392
99,19,17,Jits_Phase_5,167,9999,9999,9999,2006102132
99,19,17,Jits_Phase_5,168,9999,9999,9999,2006612072
99,19,17,Jits_Phase_5,169,9999,9999,9999,2007111752
99,20,3,ISIP_8,0,5,42,127,2077071816
99,20,3,ISIP_8,1,5,42,127,2077871424
99,20,3,ISIP_8,2,5,42,127,2078672372
99,20,3,ISIP_8,3,1,48,89,2078747676
99,20,3,ISIP_8,4,1,48,85,2079458680
99,20,3,ISIP_8,5,5,42,127,2079471952
99,20,3,ISIP_8,6,1,48,91,2080231036
99,20,3,ISIP_8,7,5,42,127,2080271760
99,20,3,ISIP_8,8,1,48,70,2081030548
99,20,3,ISIP_8,9,5,42,127,2081071644
99,20,3,ISIP_8,10,1,48,73,2081849460
99,20,3,ISIP_8,11,5,42,127,2081872376
99,20,3,ISIP_8,12,1,48,74,2082606976
99,20,3,ISIP_8,13,5,42,127,2082672108
99,20,3,ISIP_8,14,1,48,71,2083429996
99,20,3,ISIP_8,15,5,42,127,2083471768
99,20,3,ISIP_8,16,1,48,70,2084221280
99,20,3,ISIP_8,17,5,42,127,2084271724
99,20,3,ISIP_8,18,1,48,72,2085024380
99,20,3,ISIP_8,19,5,42,127,2085072432
99,20,3,ISIP_8,20,1,48,74,2085837056
99,20,3,ISIP_8,21,5,42,127,2085872092
99,20,3,ISIP_8,22,1,48,74,2086583384
99,20,3,ISIP_8,23,5,42,127,2086671748
99,20,3,ISIP_8,24,1,48,73,2087398368
99,20,3,ISIP_8,25,5,42,127,2087471632
99,20,3,ISIP_8,26,1,48,67,2088195488
99,20,3,ISIP_8,27,5,42,127,2088272360
99,20,3,ISIP_8,28,1,48,64,2089032044
99,20,3,ISIP_8,29,5,42,127,2089072092
99,20,3,ISIP_8,30,1,48,74,2089819288
99,20,3,ISIP_8,31,5,42,127,2089871680
99,20,3,ISIP_8,32,1,48,66,2090563672
99,20,3,ISIP_8,33,5,42,127,2090671620
99,20,3,ISIP_8,34,1,48,67,2091394372
99,20,3,ISIP_8,35,5,42,127,2091472192
99,20,3,ISIP_8,36,1,48,70,2092248256
99,20,3,ISIP_8,37,5,42,127,2092271848
99,20,3,ISIP_8,38,1,48,69,2093052252
99,20,3,ISIP_8,39,5,42,127,2093071584
99,20,3,ISIP_8,40,1,48,69,2093853256
99,20,3,ISIP_8,41,5,42,127,2093871316
99,20,3,ISIP_8,42,1,48,70,2094651216
99,20,3,ISIP_8,43,5,42,127,2094672344
99,20,3,ISIP_8,44,1,48,66,2095463820
99,20,3,ISIP_8,45,5,42,127,2095471928
99,20,3,ISIP_8,46,1,48,70,2096254872
99,20,3,ISIP_8,47,5,42,127,2096271664
99,20,3,ISIP_8,48,1,48,72,2097019600
99,20,3,ISIP_8,49,5,42,127,2097071472
99,20,3,ISIP_8,50,1,48,72,2097850080
99,20,3,ISIP_8,51,5,42,127,2097872404
99,20,3,ISIP_8,52,1,48,72,2098632912
99,20,3,ISIP_8,53,5,42,127,2098671836
99,20,3,ISIP_8,54,1,48,76,2099415960
99,20,3,ISIP_8,55,5,42,127,2099471720
99,20,3,ISIP_8,56,1,48,71,2100209556
99,20,3,ISIP_8,57,5,42,127,2100271452
99,20,3,ISIP_8,58,1,48,77,2101031960
99,20,3,ISIP_8,59,1,48,67,2101830212
99,20,3,ISIP_8,60,1,48,71,2102641312
99,20,3,ISIP_8,61,1,48,67,2103464456
99,20,3,ISIP_8,62,1,48,68,2104251544
99,20,3,ISIP_8,63,1,48,67,2105062644
99,20,3,ISIP_8,64,1,48,69,2105851524
99,20,3,ISIP_8,65,1,48,75,2106661352
99,20,3,ISIP_8,66,1,48,71,2107481612
99,20,3,ISIP_8,67,1,48,63,2108258740
99,20,3,ISIP_8,68,1,48,69,2109050616
99,20,3,ISIP_8,69,1,48,63,2109811752
99,20,3,ISIP_8,70,1,48,64,2110613424
99,20,3,ISIP_8,71,1,48,68,2111405600
99,20,3,ISIP_8,72,1,48,66,2112203756
99,20,3,ISIP_8,73,1,48,65,2113011636
99,20,3,ISIP_8,74,1,48,64,2113814212
99,20,3,ISIP_8,75,1,48,74,2114635208
99,20,3,ISIP_8,76,1,48,65,2115423868
99,20,3,ISIP_8,77,1,48,71,2116171312
99,20,3,ISIP_8,78,1,48,70,2116965204
99,20,3,ISIP_8,79,1,48,58,2117747504
99,20,3,ISIP_8,80,1,48,74,2118519188
99,20,3,ISIP_8,81,1,48,75,2119323552
99,20,3,ISIP_8,82,1,48,72,2120098900
99,20,3,ISIP_8,83,1,48,78,2120805356
99,20,3,ISIP_8,84,1,48,76,2121584440
99,20,3,ISIP_8,85,1,48,73,2122352308
99,20,3,ISIP_8,86,1,48,58,2123093916
99,20,3,ISIP_8,87,1,48,53,2123859760
99,20,3,ISIP_8,88,1,48,64,2124586096
99,20,3,ISIP_8,89,1,48,75,2125324340
99,20,3,ISIP_8,90,1,48,70,2126108580
99,20,3,ISIP_8,91,1,48,70,2126908408
99,20,3,ISIP_8,92,1,48,78,2127662116
99,20,3,ISIP_8,93,1,48,74,2128455140
99,20,3,ISIP_8,94,1,48,72,2129217092
99,20,3,ISIP_8,95,1,48,71,2129946864
99,20,3,ISIP_8,96,1,48,70,2130710012
99,20,3,ISIP_8,97,1,48,68,2131489324
99,20,3,ISIP_8,98,1,48,73,2132192996
99,20,3,ISIP_8,99,1,48,75,2132959888
99,20,3,ISIP_8,100,1,48,71,2133686544
99,20,3,ISIP_8,101,1,48,74,2134468244
99,20,3,ISIP_8,102,1,48,67,2135245384
99,20,3,ISIP_8,103,1,48,72,2135991932
99,20,3,ISIP_8,104,1,48,73,2136677148
99,20,3,ISIP_8,105,1,48,73,2137482788
99,20,3,ISIP_8,106,1,48,76,2138245936
99,20,3,ISIP_8,107,1,48,77,2138969524
99,20,3,ISIP_8,108,1,48,66,2139787052
99,20,3,ISIP_8,109,1,48,71,2140522084
99,20,3,ISIP_8,110,1,48,59,2141272820
99,20,3,ISIP_8,111,1,48,57,2141986284
99,20,3,ISIP_8,112,1,48,67,2142759984
99,20,3,ISIP_8,113,1,48,48,2143524480
99,20,3,ISIP_8,114,1,48,60,2144299000
99,20,3,ISIP_8,115,1,48,66,2144992056
99,20,3,ISIP_8,116,1,48,64,2145759768
99,20,3,ISIP_8,117,1,48,67,2146465628
99,20,3,ISIP_8,118,1,48,69,2147143288
99,20,3,ISIP_8,119,1,48,70,2147865952
99,20,3,ISIP_8,120,1,48,58,2148644660
99,20,3,ISIP_8,121,1,48,63,2149383880
99,20,3,ISIP_8,122,1,48,65,2150103652
99,20,3,ISIP_8,123,1,48,41,2150930152
99,20,3,ISIP_8,124,1,48,68,2151672364
99,20,3,ISIP_8,125,1,48,59,2152455268
99,20,3,ISIP_8,126,1,48,65,2153177356
99,20,3,ISIP_8,127,1,48,75,2153955396
99,20,3,ISIP_8,128,1,48,78,2154723932
99,20,3,ISIP_8,129,1,48,65,2155421544
99,20,3,ISIP_8,130,1,48,69,2156129500
99,20,3,ISIP_8,131,1,48,63,2156854880
99,20,3,ISIP_8,132,1,48,56,2157616292
99,20,3,ISIP_8,133,1,48,67,2158295368
99,20,3,ISIP_8,134,1,48,61,2158985144
99,20,3,ISIP_8,135,1,48,65,2159780608
99,20,3,ISIP_8,136,1,48,72,2160443688
99,20,3,ISIP_8,137,1,48,66,2161152060
99,20,3,ISIP_8,138,1,48,56,2161876688
99,20,3,ISIP_8,139,1,48,70,2162561516
99,20,3,ISIP_8,140,1,48,59,2163327288
99,20,3,ISIP_8,141,1,48,60,2164029708
99,20,3,ISIP_8,142,1,48,66,2164752968
99,20,3,ISIP_8,143,1,48,62,2165513428
99,20,3,ISIP_8,144,1,48,61,2166212780
99,20,3,ISIP_8,145,1,48,72,2167020956
99,20,3,ISIP_8,146,1,48,66,2167756884
99,20,3,ISIP_8,147,1,48,63,2168499468
99,20,3,ISIP_8,148,1,48,70,2169203756
99,20,3,ISIP_8,149,1,48,66,2169902188
99,20,3,ISIP_8,150,1,48,68,2170630392
99,20,3,ISIP_8,151,1,48,73,2171385616
99,20,3,ISIP_8,152,1,48,65,2172058640
99,20,3,ISIP_8,153,1,48,60,2172877812
99,20,3,ISIP_8,154,1,48,75,2173535800
99,20,3,ISIP_8,155,1,48,78,2174333136
99,20,3,ISIP_8,156,1,48,76,2174978828
99,20,3,ISIP_8,157,1,48,66,2175727548
99,20,3,ISIP_8,158,1,48,68,2176512988
99,20,3,ISIP_8,159,1,48,73,2177186388
99,20,3,ISIP_8,160,1,48,67,2177937948
99,20,3,ISIP_8,161,1,48,68,2178599336
99,20,3,ISIP_8,162,1,48,57,2179337288
99,20,3,ISIP_8,163,1,48,74,2180039852
99,20,3,ISIP_8,164,1,48,70,2180688192
99,20,3,ISIP_8,165,1,48,69,2181415120
99,20,3,ISIP_8,166,1,48,62,2182146632
99,20,3,ISIP_8,167,1,48,74,2182836336
99,20,3,ISIP_8,168,1,48,62,2183612124
99,20,3,ISIP_8,169,1,48,62,2184280956
99,20,3,ISIP_8,170,1,48,76,2185009544
99,20,3,ISIP_8,171,1,48,78,2185726296
99,20,3,ISIP_8,172,1,48,75,2186483684
99,20,3,ISIP_8,173,1,48,67,2187174964
99,20,3,ISIP_8,174,1,48,83,2187901092
99,20,3,ISIP_8,175,1,48,81,2188600740
99,20,3,ISIP_8,176,1,48,81,2189372872
99,20,3,ISIP_8,177,1,48,73,2190037416
99,20,3,ISIP_8,178,1,48,85,2190738256
99,20,3,ISIP_8,179,1,48,82,2191482636
99,20,3,ISIP_8,180,1,48,68,2192178008
99,20,3,ISIP_8,181,1,48,68,2192867164
99,20,3,ISIP_8,182,1,48,72,2193607352
99,20,3,ISIP_8,183,1,48,75,2194310968
99,20,3,ISIP_8,184,1,48,71,2194982768
99,20,3,ISIP_8,185,1,48,68,2195662076
99,20,3,ISIP_8,186,1,48,75,2196347664
99,20,3,ISIP_8,187,1,48,64,2197030520
99,20,3,ISIP_8,0,9999,9999,9999,2077069376
99,20,3,ISIP_8,1,9999,9999,9999,2077869132
99,20,3,ISIP_8,2,9999,9999,9999,2078669936
99,20,3,ISIP_8,3,9999,9999,9999,2079469664
99,20,3,ISIP_8,4,9999,9999,9999,2080269396
99,20,3,ISIP_8,5,9999,9999,9999,2081069132
99,20,3,ISIP_8,6,9999,9999,9999,2081869940
99,20,3,ISIP_8,7,9999,9999,9999,2082669672
99,20,3,ISIP_8,8,9999,9999,9999,2083469408
99,20,3,ISIP_8,9,9999,9999,9999,2084269140
99,20,3,ISIP_8,10,9999,9999,9999,2085069920
99,20,3,ISIP_8,11,9999,9999,9999,2085869652
99,20,3,ISIP_8,12,9999,9999,9999,2086669384
99,20,3,ISIP_8,13,9999,9999,9999,2087469120
99,20,3,ISIP_8,14,9999,9999,9999,2088269920
99,20,3,ISIP_8,15,9999,9999,9999,2089069656
99,20,3,ISIP_8,16,9999,9999,9999,2089869388
99,20,3,ISIP_8,17,9999,9999,9999,2090669108
99,20,3,ISIP_8,18,9999,9999,9999,2091469900
99,20,3,ISIP_8,19,9999,9999,9999,2092269636
99,20,3,ISIP_8,20,9999,9999,9999,2093069368
99,20,3,ISIP_8,21,9999,9999,9999,2093869104
99,20,3,ISIP_8,22,9999,9999,9999,2094669908
99,20,3,ISIP_8,23,9999,9999,9999,2095469640
99,20,3,ISIP_8,24,9999,9999,9999,2096269372
99,20,3,ISIP_8,25,9999,9999,9999,2097069108
99,20,3,ISIP_8,26,9999,9999,9999,2097869892
99,20,3,ISIP_8,27,9999,9999,9999,2098669624
99,20,3,ISIP_8,28,9999,9999,9999,2099469432
99,20,3,ISIP_8,29,9999,9999,9999,2100269164
99,20,3,ISIP_8,30,9999,9999,9999,2101069892
99,20,3,ISIP_8,31,9999,9999,9999,2101869624
99,20,3,ISIP_8,32,9999,9999,9999,2102669428
99,20,3,ISIP_8,33,9999,9999,9999,2103469156
99,20,3,ISIP_8,34,9999,9999,9999,2104269932
99,20,3,ISIP_8,35,9999,9999,9999,2105069660
99,20,3,ISIP_8,36,9999,9999,9999,2105869392
99,20,3,ISIP_8,37,9999,9999,9999,2106669120
99,20,3,ISIP_8,38,9999,9999,9999,2107469928
99,20,3,ISIP_8,39,9999,9999,9999,2108269652
99,20,3,ISIP_8,40,9999,9999,9999,2109069380
99,20,3,ISIP_8,41,9999,9999,9999,2109869108
99,20,3,ISIP_8,42,9999,9999,9999,2110669884
99,20,3,ISIP_8,43,9999,9999,9999,2111469616
99,20,3,ISIP_8,44,9999,9999,9999,2112269420
99,20,3,ISIP_8,45,9999,9999,9999,2113069148
99,20,3,ISIP_8,46,9999,9999,9999,2113869876
99,20,3,ISIP_8,47,9999,9999,9999,2114669676
99,20,3,ISIP_8,48,9999,9999,9999,2115469408
99,20,3,ISIP_8,49,9999,9999,9999,2116269120
99,20,3,ISIP_8,50,9999,9999,9999,2117069896
99,20,3,ISIP_8,51,9999,9999,9999,2117869624
99,20,3,ISIP_8,52,9999,9999,9999,2118669428
99,20,3,ISIP_8,53,9999,9999,9999,2119469160
99,20,3,ISIP_8,54,9999,9999,9999,2120269884
99,20,3,ISIP_8,55,9999,9999,9999,2121069616
99,20,3,ISIP_8,56,9999,9999,9999,2121869420
99,20,3,ISIP_8,57,9999,9999,9999,2122669148
99,20,3,ISIP_8,58,9999,9999,9999,2123469924
99,20,3,ISIP_8,59,9999,9999,9999,2124269652
99,20,3,ISIP_8,60,9999,9999,9999,2125069380
99,20,3,ISIP_8,61,9999,9999,9999,2125869112
99,20,3,ISIP_8,62,9999,9999,9999,2126669912
99,20,3,ISIP_8,63,9999,9999,9999,2127469644
99,20,3,ISIP_8,64,9999,9999,9999,2128269372
99,20,3,ISIP_8,65,9999,9999,9999,2129069176
99,20,3,ISIP_8,66,9999,9999,9999,2129869876
99,20,3,ISIP_8,67,9999,9999,9999,2130669680
99,20,3,ISIP_8,68,9999,9999,9999,2131469408
99,20,3,ISIP_8,69,9999,9999,9999,2132269132
99,20,3,ISIP_8,70,9999,9999,9999,2133069916
99,20,3,ISIP_8,71,9999,9999,9999,2133869644
99,20,3,ISIP_8,72,9999,9999,9999,2134669376
99,20,3,ISIP_8,73,9999,9999,9999,2135469104
99,20,3,ISIP_8,74,9999,9999,9999,2136269880
99,20,3,ISIP_8,75,9999,9999,9999,2137069684
99,20,3,ISIP_8,76,9999,9999,9999,2137869416
99,20,3,ISIP_8,77,9999,9999,9999,2138669144
99,20,3,ISIP_8,78,9999,9999,9999,2139469868
99,20,3,ISIP_8,79,9999,9999,9999,2140269672
99,20,3,ISIP_8,80,9999,9999,9999,2141069404
99,20,3,ISIP_8,81,9999,9999,9999,2141869132
99,20,3,ISIP_8,82,9999,9999,9999,2142669908
99,20,3,ISIP_8,83,9999,9999,9999,2143469636
99,20,3,ISIP_8,84,9999,9999,9999,2144269364
99,20,3,ISIP_8,85,9999,9999,9999,2145069160
99,20,3,ISIP_8,86,9999,9999,9999,2145869872
99,20,3,ISIP_8,87,9999,9999,9999,2146669676
99,20,3,ISIP_8,88,9999,9999,9999,2147469404
99,20,3,ISIP_8,89,9999,9999,9999,2148269132
99,20,3,ISIP_8,90,9999,9999,9999,2149069908
99,20,3,ISIP_8,91,9999,9999,9999,2149869640
99,20,3,ISIP_8,92,9999,9999,9999,2150669368
99,20,3,ISIP_8,93,9999,9999,9999,2151469172
99,20,3,ISIP_8,94,9999,9999,9999,2152269896
99,20,3,ISIP_8,95,9999,9999,9999,2153069628
99,20,3,ISIP_8,96,9999,9999,9999,2153869432
99,20,3,ISIP_8,97,9999,9999,9999,2154669160
99,20,3,ISIP_8,98,9999,9999,9999,2155469928
99,20,3,ISIP_8,99,9999,9999,9999,2156269640
99,20,3,ISIP_8,100,9999,9999,9999,2157069372
99,20,3,ISIP_8,101,9999,9999,9999,2157869104
99,20,3,ISIP_8,102,9999,9999,9999,2158669900
99,20,3,ISIP_8,103,9999,9999,9999,2159469632
99,20,3,ISIP_8,104,9999,9999,9999,2160269360
99,20,3,ISIP_8,105,9999,9999,9999,2161069164
99,20,3,ISIP_8,106,9999,9999,9999,2161869940
99,20,3,ISIP_8,107,9999,9999,9999,2162669648
99,20,3,ISIP_8,108,9999,9999,9999,2163469376
99,20,3,ISIP_8,109,9999,9999,9999,2164269104
99,20,3,ISIP_8,110,9999,9999,9999,2165069908
99,20,3,ISIP_8,111,9999,9999,9999,2165869636
99,20,3,ISIP_8,112,9999,9999,9999,2166669364
99,20,3,ISIP_8,113,9999,9999,9999,2167469168
99,20,3,ISIP_8,114,9999,9999,9999,2168269944
99,20,3,ISIP_8,115,9999,9999,9999,2169069672
99,20,3,ISIP_8,116,9999,9999,9999,2169869404
99,20,3,ISIP_8,117,9999,9999,9999,2170669124
99,20,3,ISIP_8,118,9999,9999,9999,2171469924
99,20,3,ISIP_8,119,9999,9999,9999,2172269636
99,20,3,ISIP_8,120,9999,9999,9999,2173069368
99,20,3,ISIP_8,121,9999,9999,9999,2173869172
99,20,3,ISIP_8,122,9999,9999,9999,2174669872
99,20,3,ISIP_8,123,9999,9999,9999,2175469676
99,20,3,ISIP_8,124,9999,9999,9999,2176269404
99,20,3,ISIP_8,125,9999,9999,9999,2177069136
99,20,3,ISIP_8,126,9999,9999,9999,2177869936
99,20,3,ISIP_8,127,9999,9999,9999,2178669660
99,20,3,ISIP_8,128,9999,9999,9999,2179469376
99,20,3,ISIP_8,129,9999,9999,9999,2180269104
99,20,3,ISIP_8,130,9999,9999,9999,2181069880
99,20,3,ISIP_8,131,9999,9999,9999,2181869684
99,20,3,ISIP_8,132,9999,9999,9999,2182669412
99,20,3,ISIP_8,133,9999,9999,9999,2183469144
99,20,3,ISIP_8,134,9999,9999,9999,2184269868
99,20,3,ISIP_8,135,9999,9999,9999,2185069668
99,20,3,ISIP_8,136,9999,9999,9999,2185869380
99,20,3,ISIP_8,137,9999,9999,9999,2186669112
99,20,3,ISIP_8,138,9999,9999,9999,2187469888
99,20,3,ISIP_8,139,9999,9999,9999,2188269616
99,20,3,ISIP_8,140,9999,9999,9999,2189069420
99,20,3,ISIP_8,141,9999,9999,9999,2189869152
99,20,3,ISIP_8,142,9999,9999,9999,2190669876
99,20,3,ISIP_8,143,9999,9999,9999,2191469680
99,20,3,ISIP_8,144,9999,9999,9999,2192269400
99,20,3,ISIP_8,145,9999,9999,9999,2193069116
99,20,3,ISIP_8,146,9999,9999,9999,2193869892
99,20,3,ISIP_8,147,9999,9999,9999,2194669624
99,20,3,ISIP_8,148,9999,9999,9999,2195469428
99,20,3,ISIP_8,149,9999,9999,9999,2196269156
99,21,5,ISIP_5,0,5,42,127,2221673732
99,21,5,ISIP_5,1,5,42,127,2222173744
99,21,5,ISIP_5,2,5,42,127,2222674136
99,21,5,ISIP_5,3,5,42,127,2223173852
99,21,5,ISIP_5,4,5,42,127,2223673796
99,21,5,ISIP_5,5,1,48,74,2223689104
99,21,5,ISIP_5,6,5,42,127,2224173540
99,21,5,ISIP_5,7,1,48,70,2224174952
99,21,5,ISIP_5,8,5,42,127,2224674108
99,21,5,ISIP_5,9,1,48,73,2224702380
99,21,5,ISIP_5,10,1,48,71,2225164036
99,21,5,ISIP_5,11,5,42,127,2225173796
99,21,5,ISIP_5,12,1,48,78,2225657448
99,21,5,ISIP_5,13,5,42,127,2225673788
99,21,5,ISIP_5,14,1,48,71,2226157292
99,21,5,ISIP_5,15,5,42,127,2226174308
99,21,5,ISIP_5,16,1,48,64,2226653024
99,21,5,ISIP_5,17,5,42,127,2226674004
99,21,5,ISIP_5,18,5,42,127,2227173780
99,21,5,ISIP_5,19,1,48,73,2227179068
99,21,5,ISIP_5,20,1,48,67,2227650992
99,21,5,ISIP_5,21,5,42,127,2227673544
99,21,5,ISIP_5,22,1,48,72,2228144336
99,21,5,ISIP_5,23,5,42,127,2228174136
99,21,5,ISIP_5,24,1,48,78,2228660556
99,21,5,ISIP_5,25,5,42,127,2228673832
99,21,5,ISIP_5,26,1,48,77,2229130104
99,21,5,ISIP_5,27,5,42,127,2229173600
99,21,5,ISIP_5,28,5,42,127,2229674424
99,21,5,ISIP_5,29,1,48,73,2229679188
99,21,5,ISIP_5,30,1,48,68,2230168244
99,21,5,ISIP_5,31,5,42,127,2230174040
99,21,5,ISIP_5,32,1,48,66,2230660680
99,21,5,ISIP_5,33,5,42,127,2230673884
99,21,5,ISIP_5,34,1,48,73,2231161720
99,21,5,ISIP_5,35,5,42,127,2231173504
99,21,5,ISIP_5,36,1,48,67,2231670392
99,21,5,ISIP_5,37,5,42,127,2231674172
99,21,5,ISIP_5,38,1,48,72,2232174316
99,21,5,ISIP_5,39,5,42,127,2232175580
99,21,5,ISIP_5,40,1,48,63,2232666644
99,21,5,ISIP_5,41,5,42,127,2232673708
99,21,5,ISIP_5,42,1,48,71,2233150400
99,21,5,ISIP_5,43,5,42,127,2233174524
99,21,5,ISIP_5,44,1,48,69,2233645960
99,21,5,ISIP_5,45,5,42,127,2233674216
99,21,5,ISIP_5,46,1,48,71,2234167672
99,21,5,ISIP_5,47,5,42,127,2234173764
99,21,5,ISIP_5,48,5,42,127,2234673840
99,21,5,ISIP_5,49,1,48,68,2234674804
99,21,5,ISIP_5,50,5,42,127,2235174108
99,21,5,ISIP_5,51,1,48,67,2235199240
99,21,5,ISIP_5,52,1,48,71,2235671140
99,21,5,ISIP_5,53,5,42,127,2235673872
99,21,5,ISIP_5,54,5,42,127,2236173868
99,21,5,ISIP_5,55,1,48,61,2236176616
99,21,5,ISIP_5,56,1,48,63,2236646896
99,21,5,ISIP_5,57,5,42,127,2236674528
99,21,5,ISIP_5,58,1,48,66,2237141056
99,21,5,ISIP_5,59,5,42,127,2237174152
99,21,5,ISIP_5,60,1,48,54,2237631024
99,21,5,ISIP_5,61,5,42,127,2237673696
99,21,5,ISIP_5,62,1,48,60,2238150240
99,21,5,ISIP_5,63,5,42,127,2238173764
99,21,5,ISIP_5,64,1,48,65,2238646124
99,21,5,ISIP_5,65,5,42,127,2238674360
99,21,5,ISIP_5,66,1,48,56,2239157788
99,21,5,ISIP_5,67,5,42,127,2239173980
99,21,5,ISIP_5,68,1,48,64,2239638860
99,21,5,ISIP_5,69,5,42,127,2239673676
99,21,5,ISIP_5,70,5,42,127,2240173672
99,21,5,ISIP_5,71,1,48,56,2240191300
99,21,5,ISIP_5,72,5,42,127,2240674116
99,21,5,ISIP_5,73,1,48,60,2240676056
99,21,5,ISIP_5,74,1,48,54,2241172836
99,21,5,ISIP_5,75,5,42,127,2241174476
99,21,5,ISIP_5,76,1,48,55,2241662096
99,21,5,ISIP_5,77,1,48,60,2242180276
99,21,5,ISIP_5,78,1,48,59,2242698216
99,21,5,ISIP_5,79,1,48,56,2243191848
99,21,5,ISIP_5,80,1,48,60,2243719516
99,21,5,ISIP_5,81,1,48,60,2244228480
99,21,5,ISIP_5,82,1,48,56,2244742460
99,21,5,ISIP_5,83,1,48,63,2245261448
99,21,5,ISIP_5,84,1,48,66,2245787692
99,21,5,ISIP_5,85,1,48,62,2246295532
99,21,5,ISIP_5,86,1,48,66,2246798888
99,21,5,ISIP_5,87,1,48,58,2247312192
99,21,5,ISIP_5,88,1,48,68,2247841424
99,21,5,ISIP_5,89,1,48,60,2248348224
99,21,5,ISIP_5,90,1,48,62,2248870428
99,21,5,ISIP_5,91,1,48,62,2249381940
99,21,5,ISIP_5,92,1,48,64,2249899580
99,21,5,ISIP_5,93,1,48,60,2250390892
99,21,5,ISIP_5,94,1,48,62,2250898888
99,21,5,ISIP_5,95,1,48,62,2251412788
99,21,5,ISIP_5,96,1,48,69,2251918688
99,21,5,ISIP_5,97,1,48,62,2252435880
99,21,5,ISIP_5,98,1,48,60,2252938416
99,21,5,ISIP_5,99,1,48,61,2253449324
99,21,5,ISIP_5,100,1,48,59,2253964428
99,21,5,ISIP_5,101,1,48,60,2254468896
99,21,5,ISIP_5,102,1,48,57,2254969340
99,21,5,ISIP_5,103,1,48,57,2255485856
99,21,5,ISIP_5,104,1,48,63,2255994672
99,21,5,ISIP_5,105,1,48,67,2256488156
99,21,5,ISIP_5,106,1,48,64,2257011784
99,21,5,ISIP_5,107,1,48,62,2257545952
99,21,5,ISIP_5,108,1,48,60,2258042280
99,21,5,ISIP_5,109,1,48,62,2258537636
99,21,5,ISIP_5,110,1,48,58,2259048768
99,21,5,ISIP_5,111,1,48,69,2259540308
99,21,5,ISIP_5,112,1,48,66,2260024592
99,21,5,ISIP_5,113,1,48,62,2260551808
99,21,5,ISIP_5,114,1,48,64,2261038184
99,21,5,ISIP_5,115,1,48,70,2261551188
99,21,5,ISIP_5,116,1,48,59,2262064936
99,21,5,ISIP_5,117,1,48,75,2262565724
99,21,5,ISIP_5,118,1,48,61,2263083740
99,21,5,ISIP_5,119,1,48,56,2263622348
99,21,5,ISIP_5,120,1,48,59,2264133636
99,21,5,ISIP_5,121,1,48,64,2264665268
99,21,5,ISIP_5,122,1,48,69,2265146408
99,21,5,ISIP_5,123,1,48,66,2265659932
99,21,5,ISIP_5,124,1,48,65,2266141420
99,21,5,ISIP_5,125,1,48,68,2266658916
99,21,5,ISIP_5,126,1,48,62,2267148360
99,21,5,ISIP_5,127,1,48,66,2267686060
99,21,5,ISIP_5,128,1,48,65,2268174828
99,21,5,ISIP_5,129,1,48,53,2268711316
99,21,5,ISIP_5,130,1,48,56,2269222980
99,21,5,ISIP_5,131,1,48,59,2269739568
99,21,5,ISIP_5,132,1,48,62,2270241880
99,21,5,ISIP_5,133,1,48,57,2270766204
99,21,5,ISIP_5,134,1,48,61,2271281376
99,21,5,ISIP_5,135,1,48,57,2271790564
99,21,5,ISIP_5,136,1,48,66,2272303124
99,21,5,ISIP_5,137,1,48,56,2272829812
99,21,5,ISIP_5,138,1,48,54,2273350072
99,21,5,ISIP_5,139,1,48,59,2273883648
99,21,5,ISIP_5,140,1,48,64,2274397476
99,21,5,ISIP_5,141,1,48,60,2274926560
99,21,5,ISIP_5,142,1,48,70,2275400220
99,21,5,ISIP_5,143,1,48,69,2275951148
99,21,5,ISIP_5,144,1,48,71,2276468044
99,21,5,ISIP_5,145,1,48,70,2276996980
99,21,5,ISIP_5,146,1,48,64,2277506620
99,21,5,ISIP_5,147,1,48,62,2278036156
99,21,5,ISIP_5,148,1,48,57,2278531880
99,21,5,ISIP_5,149,1,48,66,2279088420
99,21,5,ISIP_5,150,1,48,71,2279606060
99,21,5,ISIP_5,151,1,48,65,2280122432
99,21,5,ISIP_5,152,1,48,74,2280623840
99,21,5,ISIP_5,153,1,48,62,2281171028
99,21,5,ISIP_5,154,1,48,72,2281699828
99,21,5,ISIP_5,155,1,48,75,2282217992
99,21,5,ISIP_5,156,1,48,70,2282717684
99,21,5,ISIP_5,157,1,48,69,2283256640
99,21,5,ISIP_5,158,1,48,70,2283755740
99,21,5,ISIP_5,159,1,48,59,2284271428
99,21,5,ISIP_5,160,1,48,69,2284816528
99,21,5,ISIP_5,161,1,48,76,2285369268
99,21,5,ISIP_5,162,1,48,71,2285868116
99,21,5,ISIP_5,163,1,48,74,2286386504
99,21,5,ISIP_5,164,1,48,74,2286890208
99,21,5,ISIP_5,165,1,48,67,2287409140
99,21,5,ISIP_5,166,1,48,73,2287920504
99,21,5,ISIP_5,167,1,48,78,2288449892
99,21,5,ISIP_5,168,1,48,71,2288946368
99,21,5,ISIP_5,169,1,48,76,2289464608
99,21,5,ISIP_5,170,1,48,72,2289980080
99,21,5,ISIP_5,171,1,48,76,2290502356
99,21,5,ISIP_5,172,1,48,79,2291027260
99,21,5,ISIP_5,173,1,48,75,2291515280
99,21,5,ISIP_5,174,1,48,76,2292025892
99,21,5,ISIP_5,175,1,48,74,2292552356
99,21,5,ISIP_5,176,1,48,62,2293078304
99,21,5,ISIP_5,177,1,48,69,2293598188
99,21,5,ISIP_5,178,1,48,66,2294079476
99,21,5,ISIP_5,179,1,48,70,2294556628
99,21,5,ISIP_5,180,1,48,67,2295063500
99,21,5,ISIP_5,181,1,48,59,2295588028
99,21,5,ISIP_5,182,1,48,59,2296106564
99,21,5,ISIP_5,183,1,48,61,2296618892
99,21,5,ISIP_5,184,1,48,65,2297129876
99,21,5,ISIP_5,185,1,48,71,2297693488
99,21,5,ISIP_5,186,1,48,69,2298212848
99,21,5,ISIP_5,187,1,48,70,2298707156
99,21,5,ISIP_5,188,1,48,72,2299224424
99,21,5,ISIP_5,189,1,48,69,2299770856
99,21,5,ISIP_5,190,1,48,69,2300282444
99,21,5,ISIP_5,191,1,48,62,2300818488
99,21,5,ISIP_5,192,1,48,70,2301320044
99,21,5,ISIP_5,0,9999,9999,9999,2221671516
99,21,5,ISIP_5,1,9999,9999,9999,2222171232
99,21,5,ISIP_5,2,9999,9999,9999,2222671924
99,21,5,ISIP_5,3,9999,9999,9999,2223171640
99,21,5,ISIP_5,4,9999,9999,9999,2223671356
99,21,5,ISIP_5,5,9999,9999,9999,2224171104
99,21,5,ISIP_5,6,9999,9999,9999,2224671820
99,21,5,ISIP_5,7,9999,9999,9999,2225171508
99,21,5,ISIP_5,8,9999,9999,9999,2225671276
99,21,5,ISIP_5,9,9999,9999,9999,2226172020
99,21,5,ISIP_5,10,9999,9999,9999,2226671716
99,21,5,ISIP_5,11,9999,9999,9999,2227171416
99,21,5,ISIP_5,12,9999,9999,9999,2227671108
99,21,5,ISIP_5,13,9999,9999,9999,2228171848
99,21,5,ISIP_5,14,9999,9999,9999,2228671544
99,21,5,ISIP_5,15,9999,9999,9999,2229171312
99,21,5,ISIP_5,16,9999,9999,9999,2229671984
99,21,5,ISIP_5,17,9999,9999,9999,2230171752
99,21,5,ISIP_5,18,9999,9999,9999,2230671444
99,21,5,ISIP_5,19,9999,9999,9999,2231171140
99,21,5,ISIP_5,20,9999,9999,9999,2231671884
99,21,5,ISIP_5,21,9999,9999,9999,2232171584
99,21,5,ISIP_5,22,9999,9999,9999,2232671344
99,21,5,ISIP_5,23,9999,9999,9999,2233172088
99,21,5,ISIP_5,24,9999,9999,9999,2233671780
99,21,5,ISIP_5,25,9999,9999,9999,2234171476
99,21,5,ISIP_5,26,9999,9999,9999,2234671180
99,21,5,ISIP_5,27,9999,9999,9999,2235171892
99,21,5,ISIP_5,28,9999,9999,9999,2235671656
99,21,5,ISIP_5,29,9999,9999,9999,2236171356
99,21,5,ISIP_5,30,9999,9999,9999,2236672092
99,21,5,ISIP_5,31,9999,9999,9999,2237171788
99,21,5,ISIP_5,32,9999,9999,9999,2237671484
99,21,5,ISIP_5,33,9999,9999,9999,2238171252
99,21,5,ISIP_5,34,9999,9999,9999,2238671920
99,21,5,ISIP_5,35,9999,9999,9999,2239171688
99,21,5,ISIP_5,36,9999,9999,9999,2239671388
99,21,5,ISIP_5,37,9999,9999,9999,2240171088
99,21,5,ISIP_5,38,9999,9999,9999,2240671828
99,21,5,ISIP_5,39,9999,9999,9999,2241171524
99,21,5,ISIP_5,40,9999,9999,9999,2241671288
99,21,5,ISIP_5,41,9999,9999,9999,2242171956
99,21,5,ISIP_5,42,9999,9999,9999,2242671724
99,21,5,ISIP_5,43,9999,9999,9999,2243171412
99,21,5,ISIP_5,44,9999,9999,9999,2243671104
99,21,5,ISIP_5,45,9999,9999,9999,2244171840
99,21,5,ISIP_5,46,9999,9999,9999,2244671608
99,21,5,ISIP_5,47,9999,9999,9999,2245171300
99,21,5,ISIP_5,48,9999,9999,9999,2245672012
99,21,5,ISIP_5,49,9999,9999,9999,2246171700
99,21,5,ISIP_5,50,9999,9999,9999,2246671468
99,21,5,ISIP_5,51,9999,9999,9999,2247171156
99,21,5,ISIP_5,52,9999,9999,9999,2247671896
99,21,5,ISIP_5,53,9999,9999,9999,2248171584
99,21,5,ISIP_5,54,9999,9999,9999,2248671352
99,21,5,ISIP_5,55,9999,9999,9999,2249172088
99,21,5,ISIP_5,56,9999,9999,9999,2249671780
99,21,5,ISIP_5,57,9999,9999,9999,2250171468
99,21,5,ISIP_5,58,9999,9999,9999,2250671160
99,21,5,ISIP_5,59,9999,9999,9999,2251171900
99,21,5,ISIP_5,60,9999,9999,9999,2251671664
99,21,5,ISIP_5,61,9999,9999,9999,2252171352
99,21,5,ISIP_5,62,9999,9999,9999,2252672092
99,21,5,ISIP_5,63,9999,9999,9999,2253171784
99,21,5,ISIP_5,64,9999,9999,9999,2253671548
99,21,5,ISIP_5,65,9999,9999,9999,2254171240
99,21,5,ISIP_5,66,9999,9999,9999,2254671976
99,21,5,ISIP_5,67,9999,9999,9999,2255171668
99,21,5,ISIP_5,68,9999,9999,9999,2255671360
99,21,5,ISIP_5,69,9999,9999,9999,2256171096
99,21,5,ISIP_5,70,9999,9999,9999,2256671836
99,21,5,ISIP_5,71,9999,9999,9999,2257171524
99,21,5,ISIP_5,72,9999,9999,9999,2257671216
99,21,5,ISIP_5,73,9999,9999,9999,2258171956
99,21,5,ISIP_5,74,9999,9999,9999,2258671724
99,21,5,ISIP_5,75,9999,9999,9999,2259171412
99,21,5,ISIP_5,76,9999,9999,9999,2259671104
99,21,5,ISIP_5,77,9999,9999,9999,2260171840
99,21,5,ISIP_5,78,9999,9999,9999,2260671604
99,21,5,ISIP_5,79,9999,9999,9999,2261171296
99,21,5,ISIP_5,80,9999,9999,9999,2261672032
99,21,5,ISIP_5,81,9999,9999,9999,2262171724
99,21,5,ISIP_5,82,9999,9999,9999,2262671416
99,21,5,ISIP_5,83,9999,9999,9999,2263171196
99,21,5,ISIP_5,84,9999,9999,9999,2263671856
99,21,5,ISIP_5,85,9999,9999,9999,2264171620
99,21,5,ISIP_5,86,9999,9999,9999,2264671312
99,21,5,ISIP_5,87,9999,9999,9999,2265172052
99,21,5,ISIP_5,88,9999,9999,9999,2265671740
99,21,5,ISIP_5,89,9999,9999,9999,2266171508
99,21,5,ISIP_5,90,9999,9999,9999,2266671196
99,21,5,ISIP_5,91,9999,9999,9999,2267171908
99,21,5,ISIP_5,92,9999,9999,9999,2267671608
99,21,5,ISIP_5,93,9999,9999,9999,2268171372
99,21,5,ISIP_5,94,9999,9999,9999,2268672108
99,21,5,ISIP_5,95,9999,9999,9999,2269171800
99,21,5,ISIP_5,96,9999,9999,9999,2269671488
99,21,5,ISIP_5,97,9999,9999,9999,2270171252
99,21,5,ISIP_5,98,9999,9999,9999,2270671988
99,21,5,ISIP_5,99,9999,9999,9999,2271171680
99,21,5,ISIP_5,100,9999,9999,9999,2271671372
99,21,5,ISIP_5,101,9999,9999,9999,2272171060
99,21,5,ISIP_5,102,9999,9999,9999,2272671800
99,21,5,ISIP_5,103,9999,9999,9999,2273171564
99,21,5,ISIP_5,104,9999,9999,9999,2273671256
99,21,5,ISIP_5,105,9999,9999,9999,2274171992
99,21,5,ISIP_5,106,9999,9999,9999,2274671684
99,21,5,ISIP_5,107,9999,9999,9999,2275171448
99,21,5,ISIP_5,108,9999,9999,9999,2275671140
99,21,5,ISIP_5,109,9999,9999,9999,2276171876
99,21,5,ISIP_5,110,9999,9999,9999,2276671568
99,21,5,ISIP_5,111,9999,9999,9999,2277171260
99,21,5,ISIP_5,112,9999,9999,9999,2277672048
99,21,5,ISIP_5,113,9999,9999,9999,2278171740
99,21,5,ISIP_5,114,9999,9999,9999,2278671428
99,21,5,ISIP_5,115,9999,9999,9999,2279171136
99,21,5,ISIP_5,116,9999,9999,9999,2279671872
99,21,5,ISIP_5,117,9999,9999,9999,2280171636
99,21,5,ISIP_5,118,9999,9999,9999,2280671328
99,21,5,ISIP_5,119,9999,9999,9999,2281172068
99,21,5,ISIP_5,120,9999,9999,9999,2281671760
99,21,5,ISIP_5,121,9999,9999,9999,2282171452
99,21,5,ISIP_5,122,9999,9999,9999,2282671220
99,21,5,ISIP_5,123,9999,9999,9999,2283171956
99,21,5,ISIP_5,124,9999,9999,9999,2283671648
99,21,5,ISIP_5,125,9999,9999,9999,2284171336
99,21,5,ISIP_5,126,9999,9999,9999,2284672076
99,21,5,ISIP_5,127,9999,9999,9999,2285171764
99,21,5,ISIP_5,128,9999,9999,9999,2285671528
99,21,5,ISIP_5,129,9999,9999,9999,2286171196
99,21,5,ISIP_5,130,9999,9999,9999,2286671932
99,21,5,ISIP_5,131,9999,9999,9999,2287171696
99,21,5,ISIP_5,132,9999,9999,9999,2287671388
99,21,5,ISIP_5,133,9999,9999,9999,2288171128
99,21,5,ISIP_5,134,9999,9999,9999,2288671864
99,21,5,ISIP_5,135,9999,9999,9999,2289171556
99,21,5,ISIP_5,136,9999,9999,9999,2289671248
99,21,5,ISIP_5,137,9999,9999,9999,2290171988
99,21,5,ISIP_5,138,9999,9999,9999,2290671680
99,21,5,ISIP_5,139,9999,9999,9999,2291171444
99,21,5,ISIP_5,140,9999,9999,9999,2291671136
99,21,5,ISIP_5,141,9999,9999,9999,2292171872
99,21,5,ISIP_5,142,9999,9999,9999,2292671560
99,21,5,ISIP_5,143,9999,9999,9999,2293171252
99,21,5,ISIP_5,144,9999,9999,9999,2293672004
99,21,5,ISIP_5,145,9999,9999,9999,2294171716
99,21,5,ISIP_5,146,9999,9999,9999,2294671448
99,21,5,ISIP_5,147,9999,9999,9999,2295171136
99,21,5,ISIP_5,148,9999,9999,9999,2295671888
99,21,5,ISIP_5,149,9999,9999,9999,2296171580
99,21,5,ISIP_5,150,9999,9999,9999,2296671344
99,21,5,ISIP_5,151,9999,9999,9999,2297172080
99,21,5,ISIP_5,152,9999,9999,9999,2297671780
99,21,5,ISIP_5,153,9999,9999,9999,2298171468
99,21,5,ISIP_5,154,9999,9999,9999,2298671160
99,21,5,ISIP_5,155,9999,9999,9999,2299171944
99,21,5,ISIP_5,156,9999,9999,9999,2299671636
99,21,5,ISIP_5,157,9999,9999,9999,2300171328
99,21,5,ISIP_5,158,9999,9999,9999,2300672068
99,21,5,ISIP_5,159,9999,9999,9999,2301171832
99,22,11,Pattern_Practice,0,1,48,62,2408067256
99,22,11,Pattern_Practice,1,1,48,77,2408126952
99,22,11,Pattern_Practice,2,1,38,78,2408472444
99,22,11,Pattern_Practice,3,5,42,127,2408569200
99,22,11,Pattern_Practice,4,5,42,127,2409069212
99,22,11,Pattern_Practice,5,1,48,76,2409126712
99,22,11,Pattern_Practice,6,1,48,71,2409441616
99,22,11,Pattern_Practice,7,5,42,127,2409568664
99,22,11,Pattern_Practice,8,1,48,74,2409624144
99,22,11,Pattern_Practice,9,1,38,27,2409965148
99,22,11,Pattern_Practice,10,1,48,14,2409977692
99,22,11,Pattern_Practice,11,5,42,127,2410069784
99,22,11,Pattern_Practice,12,1,48,84,2410292240
99,22,11,Pattern_Practice,13,5,42,127,2410569328
99,22,11,Pattern_Practice,14,1,48,85,2410650836
99,22,11,Pattern_Practice,15,1,48,83,2410965736
99,22,11,Pattern_Practice,16,5,42,127,2411068776
99,22,11,Pattern_Practice,17,5,42,127,2411568496
99,22,11,Pattern_Practice,18,1,48,65,2411682164
99,22,11,Pattern_Practice,19,1,48,72,2412023616
99,22,11,Pattern_Practice,20,5,42,127,2412069204
99,22,11,Pattern_Practice,21,1,38,59,2412425852
99,22,11,Pattern_Practice,22,5,42,127,2412569180
99,22,11,Pattern_Practice,23,1,48,67,2412763512
99,22,11,Pattern_Practice,24,5,42,127,2413068652
99,22,11,Pattern_Practice,25,1,48,72,2413116376
99,22,11,Pattern_Practice,26,1,48,74,2413432928
99,22,11,Pattern_Practice,27,5,42,127,2413569372
99,22,11,Pattern_Practice,28,1,38,65,2413794816
99,22,11,Pattern_Practice,29,5,42,127,2414069144
99,22,11,Pattern_Practice,30,1,48,84,2414420420
99,22,11,Pattern_Practice,31,5,42,127,2414568988
99,22,11,Pattern_Practice,32,1,48,82,2414740276
99,22,11,Pattern_Practice,33,5,42,127,2415068532
99,22,11,Pattern_Practice,34,1,38,70,2415070168
99,22,11,Pattern_Practice,35,1,48,76,2415393136
99,22,11,Pattern_Practice,36,5,42,127,2415569252
99,22,11,Pattern_Practice,37,1,48,78,2415727080
99,22,11,Pattern_Practice,38,1,48,82,2416038760
99,22,11,Pattern_Practice,39,5,42,127,2416069088
99,22,11,Pattern_Practice,40,1,38,65,2416378144
99,22,11,Pattern_Practice,41,5,42,127,2416568624
99,22,11,Pattern_Practice,42,1,48,88,2417034788
99,22,11,Pattern_Practice,43,5,42,127,2417069380
99,22,11,Pattern_Practice,44,1,48,82,2417352620
99,22,11,Pattern_Practice,45,5,42,127,2417569132
99,22,11,Pattern_Practice,46,1,38,64,2417687888
99,22,11,Pattern_Practice,47,5,42,127,2418068828
99,22,11,Pattern_Practice,48,5,42,127,2418568544
99,22,11,Pattern_Practice,49,1,38,60,2418706000
99,22,11,Pattern_Practice,50,5,42,127,2419069284
99,22,11,Pattern_Practice,51,1,38,61,2419401840
99,22,11,Pattern_Practice,52,5,42,127,2419569052
99,22,11,Pattern_Practice,53,1,38,70,2419660960
99,22,11,Pattern_Practice,54,1,38,55,2419923944
99,22,11,Pattern_Practice,55,5,42,127,2420068872
99,22,11,Pattern_Practice,56,1,38,72,2420271952
99,22,11,Pattern_Practice,57,5,42,127,2420568568
99,22,11,Pattern_Practice,58,1,38,62,2420915484
99,22,11,Pattern_Practice,59,5,42,127,2421069088
99,22,11,Pattern_Practice,60,1,38,54,2421204376
99,22,11,Pattern_Practice,61,1,38,62,2421498184
99,22,11,Pattern_Practice,62,5,42,127,2421569000
99,22,11,Pattern_Practice,63,1,38,35,2421772184
99,22,11,Pattern_Practice,64,1,38,46,2422067928
99,22,11,Pattern_Practice,65,5,42,127,2422070164
99,22,11,Pattern_Practice,66,1,38,54,2422355432
99,22,11,Pattern_Practice,67,5,42,127,2422569320
99,22,11,Pattern_Practice,68,1,38,16,2422663772
99,22,11,Pattern_Practice,69,1,38,64,2423055792
99,22,11,Pattern_Practice,70,5,42,127,2423068988
99,22,11,Pattern_Practice,71,1,38,65,2423331216
99,22,11,Pattern_Practice,72,5,42,127,2423568892
99,22,11,Pattern_Practice,73,1,38,62,2423732332
99,22,11,Pattern_Practice,74,5,42,127,2424068436
99,22,11,Pattern_Practice,75,1,38,71,2424495784
99,22,11,Pattern_Practice,76,5,42,127,2424569044
99,22,11,Pattern_Practice,77,1,38,79,2424878868
99,22,11,Pattern_Practice,78,5,42,127,2425068800
99,22,11,Pattern_Practice,79,1,38,62,2425312192
99,22,11,Pattern_Practice,80,5,42,127,2425568792
99,22,11,Pattern_Practice,81,5,42,127,2426069480
99,22,11,Pattern_Practice,82,5,42,127,2426569120
99,22,11,Pattern_Practice,83,5,42,127,2427068912
99,22,11,Pattern_Practice,84,1,38,65,2427078916
99,22,11,Pattern_Practice,85,1,38,72,2427368832
99,22,11,Pattern_Practice,86,5,42,127,2427568436
99,22,11,Pattern_Practice,87,1,38,56,2427665952
99,22,11,Pattern_Practice,88,1,38,73,2428058068
99,22,11,Pattern_Practice,89,5,42,127,2428069172
99,22,11,Pattern_Practice,90,1,38,68,2428386452
99,22,11,Pattern_Practice,91,1,38,71,2428554304
99,22,11,Pattern_Practice,92,5,42,127,2428569068
99,22,11,Pattern_Practice,93,1,38,59,2428848572
99,22,11,Pattern_Practice,94,5,42,127,2429068744
99,22,11,Pattern_Practice,95,1,38,73,2429155940
99,22,11,Pattern_Practice,96,1,38,76,2429451840
99,22,11,Pattern_Practice,97,5,42,127,2429569392
99,22,11,Pattern_Practice,98,1,38,75,2429769924
99,22,11,Pattern_Practice,99,5,42,127,2430069160
99,22,11,Pattern_Practice,100,1,38,59,2430094944
99,22,11,Pattern_Practice,101,1,38,74,2430500948
99,22,11,Pattern_Practice,102,5,42,127,2430568896
99,22,11,Pattern_Practice,103,1,38,65,2430832700
99,22,11,Pattern_Practice,104,1,38,66,2431004112
99,22,11,Pattern_Practice,105,5,42,127,2431068720
99,22,11,Pattern_Practice,106,1,38,57,2431335284
99,22,11,Pattern_Practice,107,5,42,127,2431569148
99,22,11,Pattern_Practice,108,1,38,71,2431660304
99,22,11,Pattern_Practice,109,1,38,72,2431966752
99,22,11,Pattern_Practice,110,5,42,127,2432068896
99,22,11,Pattern_Practice,111,1,38,67,2432280852
99,22,11,Pattern_Practice,112,5,42,127,2432568812
99,22,11,Pattern_Practice,113,1,38,38,2432611352
99,22,11,Pattern_Practice,114,1,48,13,2432620832
99,22,11,Pattern_Practice,115,5,42,127,2433069956
99,22,11,Pattern_Practice,116,1,48,81,2433094848
99,22,11,Pattern_Practice,117,1,48,69,2433394188
99,22,11,Pattern_Practice,118,1,48,66,2433562236
99,22,11,Pattern_Practice,119,5,42,127,2433569076
99,22,11,Pattern_Practice,120,1,38,58,2433870976
99,22,11,Pattern_Practice,121,5,42,127,2434068832
99,22,11,Pattern_Practice,122,1,48,68,2434191876
99,22,11,Pattern_Practice,123,1,48,75,2434508720
99,22,11,Pattern_Practice,124,5,42,127,2434568672
99,22,11,Pattern_Practice,125,1,48,77,2434829176
99,22,11,Pattern_Practice,126,5,42,127,2435069172
99,22,11,Pattern_Practice,127,1,38,60,2435154668
99,22,11,Pattern_Practice,128,1,48,73,2435557460
99,22,11,Pattern_Practice,129,5,42,127,2435569084
99,22,11,Pattern_Practice,130,1,48,58,2435916456
99,22,11,Pattern_Practice,131,5,42,127,2436068764
99,22,11,Pattern_Practice,132,1,48,61,2436088488
99,22,11,Pattern_Practice,133,1,38,57,2436406932
99,22,11,Pattern_Practice,134,5,42,127,2436568512
99,22,11,Pattern_Practice,135,1,48,64,2436734268
99,22,11,Pattern_Practice,136,1,48,69,2437050516
99,22,11,Pattern_Practice,137,5,42,127,2437069172
99,22,11,Pattern_Practice,138,1,48,59,2437370896
99,22,11,Pattern_Practice,139,5,42,127,2437568852
99,22,11,Pattern_Practice,140,1,38,60,2437704916
99,22,11,Pattern_Practice,141,5,42,127,2438068696
99,22,11,Pattern_Practice,142,1,48,63,2438128740
99,22,11,Pattern_Practice,143,1,48,56,2438513900
99,22,11,Pattern_Practice,144,5,42,127,2438569280
99,22,11,Pattern_Practice,145,1,48,59,2438696652
99,22,11,Pattern_Practice,146,1,38,60,2439012824
99,22,11,Pattern_Practice,147,5,42,127,2439069028
99,22,11,Pattern_Practice,148,1,48,65,2439338588
99,22,11,Pattern_Practice,149,5,42,127,2439568712
99,22,11,Pattern_Practice,150,1,48,59,2439669068
99,22,11,Pattern_Practice,151,5,42,127,2440068628
99,22,11,Pattern_Practice,152,1,48,62,2440541824
99,22,11,Pattern_Practice,153,5,42,127,2440569160
99,22,11,Pattern_Practice,154,1,48,65,2440829220
99,22,11,Pattern_Practice,155,5,42,127,2441068912
99,22,11,Pattern_Practice,156,1,48,37,2441133072
99,22,11,Pattern_Practice,157,5,42,127,2441568608
99,22,11,Pattern_Practice,158,1,48,56,2441799284
99,22,11,Pattern_Practice,159,5,42,127,2442069648
99,22,11,Pattern_Practice,160,1,48,63,2442107696
99,22,11,Pattern_Practice,161,1,38,64,2442369864
99,22,11,Pattern_Practice,162,5,42,127,2442569024
99,22,11,Pattern_Practice,163,1,48,55,2442704388
99,22,11,Pattern_Practice,164,1,48,51,2443044124
99,22,11,Pattern_Practice,165,5,42,127,2443068836
99,22,11,Pattern_Practice,166,1,48,58,2443211508
99,22,11,Pattern_Practice,167,1,38,69,2443472188
99,22,11,Pattern_Practice,168,5,42,127,2443568644
99,22,11,Pattern_Practice,169,1,48,61,2443785236
99,22,11,Pattern_Practice,170,5,42,127,2444069456
99,22,11,Pattern_Practice,171,1,48,61,2444112968
99,22,11,Pattern_Practice,172,1,48,63,2444396156
99,22,11,Pattern_Practice,173,5,42,127,2444568880
99,22,11,Pattern_Practice,174,1,38,50,2444689608
99,22,11,Pattern_Practice,175,1,48,61,2444991868
99,22,11,Pattern_Practice,176,5,42,127,2445068716
99,22,11,Pattern_Practice,177,1,48,53,2445450348
99,22,11,Pattern_Practice,178,5,42,127,2445569520
99,22,11,Pattern_Practice,179,1,48,51,2445628764
99,22,11,Pattern_Practice,180,1,38,62,2445921072
99,22,11,Pattern_Practice,181,5,42,127,2446068972
99,22,11,Pattern_Practice,182,1,48,61,2446222304
99,22,11,Pattern_Practice,183,1,48,54,2446544836
99,22,11,Pattern_Practice,184,5,42,127,2446568956
99,22,11,Pattern_Practice,185,1,48,61,2446851004
99,22,11,Pattern_Practice,186,5,42,127,2447068708
99,22,11,Pattern_Practice,187,1,38,52,2447143360
99,22,11,Pattern_Practice,188,1,48,56,2447461628
99,22,11,Pattern_Practice,189,5,42,127,2447569280
99,22,11,Pattern_Practice,190,1,48,51,2447925192
99,22,11,Pattern_Practice,191,5,42,127,2448068824
99,22,11,Pattern_Practice,192,1,48,50,2448102012
99,22,11,Pattern_Practice,193,1,38,54,2448385500
99,22,11,Pattern_Practice,0,9999,9999,9999,2408566840
99,22,11,Pattern_Practice,1,9999,9999,9999,2409066556
99,22,11,Pattern_Practice,2,9999,9999,9999,2409566304
99,22,11,Pattern_Practice,3,9999,9999,9999,2410067004
99,22,11,Pattern_Practice,4,9999,9999,9999,2410566744
99,22,11,Pattern_Practice,5,9999,9999,9999,2411066416
99,22,11,Pattern_Practice,6,9999,9999,9999,2411566136
99,22,11,Pattern_Practice,7,9999,9999,9999,2412066920
99,22,11,Pattern_Practice,8,9999,9999,9999,2412566596
99,22,11,Pattern_Practice,9,9999,9999,9999,2413066292
99,22,11,Pattern_Practice,10,9999,9999,9999,2413567088
99,22,11,Pattern_Practice,11,9999,9999,9999,2414066784
99,22,11,Pattern_Practice,12,9999,9999,9999,2414566476
99,22,11,Pattern_Practice,13,9999,9999,9999,2415066172
99,22,11,Pattern_Practice,14,9999,9999,9999,2415566964
99,22,11,Pattern_Practice,15,9999,9999,9999,2416066652
99,22,11,Pattern_Practice,16,9999,9999,9999,2416566336
99,22,11,Pattern_Practice,17,9999,9999,9999,2417067092
99,22,11,Pattern_Practice,18,9999,9999,9999,2417566772
99,22,11,Pattern_Practice,19,9999,9999,9999,2418066540
99,22,11,Pattern_Practice,20,9999,9999,9999,2418566256
99,22,11,Pattern_Practice,21,9999,9999,9999,2419067000
99,22,11,Pattern_Practice,22,9999,9999,9999,2419566692
99,22,11,Pattern_Practice,23,9999,9999,9999,2420066364
99,22,11,Pattern_Practice,24,9999,9999,9999,2420566136
99,22,11,Pattern_Practice,25,9999,9999,9999,2421066800
99,22,11,Pattern_Practice,26,9999,9999,9999,2421566564
99,22,11,Pattern_Practice,27,9999,9999,9999,2422066244
99,22,11,Pattern_Practice,28,9999,9999,9999,2422566960
99,22,11,Pattern_Practice,29,9999,9999,9999,2423066700
99,22,11,Pattern_Practice,30,9999,9999,9999,2423566456
99,22,11,Pattern_Practice,31,9999,9999,9999,2424066148
99,22,11,Pattern_Practice,32,9999,9999,9999,2424566832
99,22,11,Pattern_Practice,33,9999,9999,9999,2425066588
99,22,11,Pattern_Practice,34,9999,9999,9999,2425566280
99,22,11,Pattern_Practice,35,9999,9999,9999,2426067044
99,22,11,Pattern_Practice,36,9999,9999,9999,2426566760
99,22,11,Pattern_Practice,37,9999,9999,9999,2427066476
99,22,11,Pattern_Practice,38,9999,9999,9999,2427566148
99,22,11,Pattern_Practice,39,9999,9999,9999,2428066884
99,22,11,Pattern_Practice,40,9999,9999,9999,2428566632
99,22,11,Pattern_Practice,41,9999,9999,9999,2429066312
99,22,11,Pattern_Practice,42,9999,9999,9999,2429567028
99,22,11,Pattern_Practice,43,9999,9999,9999,2430066800
99,22,11,Pattern_Practice,44,9999,9999,9999,2430566464
99,22,11,Pattern_Practice,45,9999,9999,9999,2431066208
99,22,11,Pattern_Practice,46,9999,9999,9999,2431566936
99,22,11,Pattern_Practice,47,9999,9999,9999,2432066608
99,22,11,Pattern_Practice,48,9999,9999,9999,2432566376
99,22,11,Pattern_Practice,49,9999,9999,9999,2433067072
99,22,11,Pattern_Practice,50,9999,9999,9999,2433566788
99,22,11,Pattern_Practice,51,9999,9999,9999,2434066548
99,22,11,Pattern_Practice,52,9999,9999,9999,2434566236
99,22,11,Pattern_Practice,53,9999,9999,9999,2435066960
99,22,11,Pattern_Practice,54,9999,9999,9999,2435566648
99,22,11,Pattern_Practice,55,9999,9999,9999,2436066404
99,22,11,Pattern_Practice,56,9999,9999,9999,2436566076
99,22,11,Pattern_Practice,57,9999,9999,9999,2437066812
99,22,11,Pattern_Practice,58,9999,9999,9999,2437566568
99,22,11,Pattern_Practice,59,9999,9999,9999,2438066260
99,22,11,Pattern_Practice,60,9999,9999,9999,2438566996
99,22,11,Pattern_Practice,61,9999,9999,9999,2439066744
99,22,11,Pattern_Practice,62,9999,9999,9999,2439566424
99,22,11,Pattern_Practice,63,9999,9999,9999,2440066116
99,22,11,Pattern_Practice,64,9999,9999,9999,2440566876
99,22,11,Pattern_Practice,65,9999,9999,9999,2441066552
99,22,11,Pattern_Practice,66,9999,9999,9999,2441566324
99,22,11,Pattern_Practice,67,9999,9999,9999,2442067064
99,22,11,Pattern_Practice,68,9999,9999,9999,2442566736
99,22,11,Pattern_Practice,69,9999,9999,9999,2443066476
99,22,11,Pattern_Practice,70,9999,9999,9999,2443566132
99,22,11,Pattern_Practice,71,9999,9999,9999,2444066920
99,22,11,Pattern_Practice,72,9999,9999,9999,2444566596
99,22,11,Pattern_Practice,73,9999,9999,9999,2445066356
99,22,11,Pattern_Practice,74,9999,9999,9999,2445567084
99,22,11,Pattern_Practice,75,9999,9999,9999,2446066760
99,22,11,Pattern_Practice,76,9999,9999,9999,2446566520
99,22,11,Pattern_Practice,77,9999,9999,9999,2447066200
99,22,11,Pattern_Practice,78,9999,9999,9999,2447566920
99,22,11,Pattern_Practice,79,9999,9999,9999,2448066612
99,23,13,Improv_Metronome,0,1,48,76,2511988196
99,23,13,Improv_Metronome,1,1,38,70,2511988860
99,23,13,Improv_Metronome,2,1,48,66,2511989616
99,23,13,Improv_Metronome,3,1,48,67,2511990380
99,23,13,Improv_Metronome,4,1,48,65,2511990948
99,23,13,Improv_Metronome,5,1,38,74,2511991608
99,23,13,Improv_Metronome,6,1,48,54,2511992372
99,23,13,Improv_Metronome,7,1,48,72,2512024636
99,23,13,Improv_Metronome,8,1,48,70,2512338856
99,23,13,Improv_Metronome,9,5,42,127,2512489920
99,23,13,Improv_Metronome,10,1,38,64,2512651908
99,23,13,Improv_Metronome,11,5,42,127,2512989536
99,23,13,Improv_Metronome,12,1,48,69,2513023696
99,23,13,Improv_Metronome,13,1,48,67,2513419380
99,23,13,Improv_Metronome,14,5,42,127,2513490644
99,23,13,Improv_Metronome,15,1,48,63,2513598468
99,23,13,Improv_Metronome,16,1,38,82,2513893244
99,23,13,Improv_Metronome,17,5,42,127,2513990004
99,23,13,Improv_Metronome,18,1,48,70,2514209164
99,23,13,Improv_Metronome,19,5,42,127,2514489772
99,23,13,Improv_Metronome,20,1,48,73,2514533436
99,23,13,Improv_Metronome,21,1,48,63,2514696844
99,23,13,Improv_Metronome,22,1,48,65,2514864396
99,23,13,Improv_Metronome,23,5,42,127,2514989352
99,23,13,Improv_Metronome,24,1,48,55,2515018276
99,23,13,Improv_Metronome,25,1,38,73,2515185276
99,23,13,Improv_Metronome,26,5,42,127,2515490220
99,23,13,Improv_Metronome,27,1,48,78,2515522740
99,23,13,Improv_Metronome,28,1,48,72,2515695496
99,23,13,Improv_Metronome,29,5,42,127,2515989868
99,23,13,Improv_Metronome,30,1,48,67,2516025552
99,23,13,Improv_Metronome,31,1,48,69,2516200028
99,23,13,Improv_Metronome,32,5,42,127,2516489616
99,23,13,Improv_Metronome,33,1,38,76,2516500664
99,23,13,Improv_Metronome,34,1,48,72,2516804296
99,23,13,Improv_Metronome,35,5,42,127,2516990260
99,23,13,Improv_Metronome,36,1,48,76,2517121908
99,23,13,Improv_Metronome,37,1,48,67,2517300752
99,23,13,Improv_Metronome,38,1,48,65,2517479572
99,23,13,Improv_Metronome,39,5,42,127,2517490004
99,23,13,Improv_Metronome,40,1,48,67,2517637864
99,23,13,Improv_Metronome,41,1,38,70,2517808780
99,23,13,Improv_Metronome,42,5,42,127,2517989736
99,23,13,Improv_Metronome,43,1,48,74,2518138360
99,23,13,Improv_Metronome,44,1,48,72,2518312940
99,23,13,Improv_Metronome,45,5,42,127,2518489484
99,23,13,Improv_Metronome,46,1,48,70,2518629880
99,23,13,Improv_Metronome,47,1,48,66,2518801068
99,23,13,Improv_Metronome,48,5,42,127,2518990052
99,23,13,Improv_Metronome,49,1,38,69,2519130524
99,23,13,Improv_Metronome,50,1,48,73,2519427024
99,23,13,Improv_Metronome,51,5,42,127,2519490040
99,23,13,Improv_Metronome,52,1,48,76,2519755412
99,23,13,Improv_Metronome,53,5,42,127,2519989572
99,23,13,Improv_Metronome,54,1,48,77,2520066216
99,23,13,Improv_Metronome,55,1,38,73,2520368948
99,23,13,Improv_Metronome,56,5,42,127,2520490588
99,23,13,Improv_Metronome,57,1,48,71,2520688660
99,23,13,Improv_Metronome,58,5,42,127,2520989912
99,23,13,Improv_Metronome,59,1,48,69,2521126272
99,23,13,Improv_Metronome,60,1,48,63,2521301720
99,23,13,Improv_Metronome,61,5,42,127,2521489660
99,23,13,Improv_Metronome,62,1,38,29,2521616572
99,23,13,Improv_Metronome,63,1,48,75,2521921024
99,23,13,Improv_Metronome,64,5,42,127,2521989572
99,23,13,Improv_Metronome,65,1,48,75,2522242676
99,23,13,Improv_Metronome,66,5,42,127,2522490372
99,23,13,Improv_Metronome,67,1,48,76,2522569788
99,23,13,Improv_Metronome,68,1,38,73,2522842132
99,23,13,Improv_Metronome,69,5,42,127,2522989896
99,23,13,Improv_Metronome,70,1,48,72,2523146652
99,23,13,Improv_Metronome,71,5,42,127,2523489816
99,23,13,Improv_Metronome,72,1,48,69,2523607820
99,23,13,Improv_Metronome,73,1,48,65,2523788908
99,23,13,Improv_Metronome,74,5,42,127,2523990308
99,23,13,Improv_Metronome,75,1,38,80,2524085284
99,23,13,Improv_Metronome,76,1,48,77,2524394048
99,23,13,Improv_Metronome,77,5,42,127,2524490220
99,23,13,Improv_Metronome,78,1,48,70,2524713108
99,23,13,Improv_Metronome,79,5,42,127,2524989748
99,23,13,Improv_Metronome,80,1,48,70,2525019572
99,23,13,Improv_Metronome,81,1,38,73,2525311436
99,23,13,Improv_Metronome,82,5,42,127,2525489648
99,23,13,Improv_Metronome,83,1,48,75,2525600176
99,23,13,Improv_Metronome,84,5,42,127,2525990388
99,23,13,Improv_Metronome,85,1,48,70,2526012660
99,23,13,Improv_Metronome,86,1,48,56,2526192448
99,23,13,Improv_Metronome,87,1,38,73,2526477360
99,23,13,Improv_Metronome,88,5,42,127,2526489956
99,23,13,Improv_Metronome,89,1,48,79,2526795516
99,23,13,Improv_Metronome,90,5,42,127,2526989636
99,23,13,Improv_Metronome,91,1,48,70,2527085380
99,23,13,Improv_Metronome,92,1,48,62,2527243784
99,23,13,Improv_Metronome,93,1,48,60,2527405204
99,23,13,Improv_Metronome,94,5,42,127,2527490504
99,23,13,Improv_Metronome,95,1,48,50,2527535296
99,23,13,Improv_Metronome,96,1,38,89,2527727952
99,23,13,Improv_Metronome,97,5,42,127,2527990084
99,23,13,Improv_Metronome,98,1,48,72,2528047460
99,23,13,Improv_Metronome,99,1,48,70,2528218500
99,23,13,Improv_Metronome,100,5,42,127,2528489760
99,23,13,Improv_Metronome,101,1,48,71,2528532824
99,23,13,Improv_Metronome,102,1,48,63,2528706952
99,23,13,Improv_Metronome,103,5,42,127,2528989504
99,23,13,Improv_Metronome,104,1,38,65,2529003096
99,23,13,Improv_Metronome,105,1,48,73,2529290020
99,23,13,Improv_Metronome,106,5,42,127,2529490376
99,23,13,Improv_Metronome,107,1,48,73,2529601152
99,23,13,Improv_Metronome,108,1,48,63,2529773092
99,23,13,Improv_Metronome,109,1,48,63,2529956056
99,23,13,Improv_Metronome,110,5,42,127,2529989972
99,23,13,Improv_Metronome,111,1,48,54,2530101632
99,23,13,Improv_Metronome,112,1,38,75,2530299448
99,23,13,Improv_Metronome,113,5,42,127,2530489700
99,23,13,Improv_Metronome,114,1,48,76,2530603400
99,23,13,Improv_Metronome,115,1,48,60,2530773096
99,23,13,Improv_Metronome,116,5,42,127,2530989524
99,23,13,Improv_Metronome,117,1,48,69,2531087260
99,23,13,Improv_Metronome,118,1,48,60,2531266404
99,23,13,Improv_Metronome,119,5,42,127,2531490244
99,23,13,Improv_Metronome,120,1,38,62,2531565316
99,23,13,Improv_Metronome,121,1,48,73,2531854260
99,23,13,Improv_Metronome,122,5,42,127,2531989840
99,23,13,Improv_Metronome,123,1,48,67,2532146544
99,23,13,Improv_Metronome,124,1,48,53,2532318852
99,23,13,Improv_Metronome,125,1,48,60,2532484760
99,23,13,Improv_Metronome,126,5,42,127,2532489656
99,23,13,Improv_Metronome,127,1,48,59,2532670804
99,23,13,Improv_Metronome,128,1,38,64,2532840868
99,23,13,Improv_Metronome,129,5,42,127,2532990284
99,23,13,Improv_Metronome,130,1,48,72,2533148160
99,23,13,Improv_Metronome,131,1,48,59,2533308156
99,23,13,Improv_Metronome,132,5,42,127,2533490180
99,23,13,Improv_Metronome,133,1,48,68,2533614248
99,23,13,Improv_Metronome,134,1,48,61,2533782700
99,23,13,Improv_Metronome,135,5,42,127,2533989708
99,23,13,Improv_Metronome,136,1,38,66,2534101876
99,23,13,Improv_Metronome,137,5,42,127,2534489476
99,23,13,Improv_Metronome,138,1,38,63,2534733996
99,23,13,Improv_Metronome,139,5,42,127,2534990292
99,23,13,Improv_Metronome,140,1,38,57,2535040684
99,23,13,Improv_Metronome,141,1,48,80,2535336216
99,23,13,Improv_Metronome,142,5,42,127,2535489964
99,23,13,Improv_Metronome,143,1,38,75,2535681500
99,23,13,Improv_Metronome,144,5,42,127,2535989584
99,23,13,Improv_Metronome,145,1,38,51,2536031900
99,23,13,Improv_Metronome,146,1,38,55,2536156864
99,23,13,Improv_Metronome,147,1,48,75,2536451868
99,23,13,Improv_Metronome,148,5,42,127,2536490228
99,23,13,Improv_Metronome,149,1,38,77,2536744156
99,23,13,Improv_Metronome,150,5,42,127,2536990180
99,23,13,Improv_Metronome,151,1,38,53,2537045904
99,23,13,Improv_Metronome,152,1,38,37,2537317580
99,23,13,Improv_Metronome,153,5,42,127,2537489628
99,23,13,Improv_Metronome,154,1,48,81,2537583952
99,23,13,Improv_Metronome,155,1,38,71,2537894592
99,23,13,Improv_Metronome,156,5,42,127,2537989540
99,23,13,Improv_Metronome,157,1,48,82,2538244812
99,23,13,Improv_Metronome,158,1,48,68,2538406008
99,23,13,Improv_Metronome,159,5,42,127,2538490260
99,23,13,Improv_Metronome,160,1,48,76,2538720552
99,23,13,Improv_Metronome,161,1,38,63,2538989716
99,23,13,Improv_Metronome,162,5,42,127,2538992324
99,23,13,Improv_Metronome,163,1,48,82,2539297964
99,23,13,Improv_Metronome,164,5,42,127,2539489688
99,23,13,Improv_Metronome,165,1,48,81,2539592236
99,23,13,Improv_Metronome,166,1,38,66,2539862336
99,23,13,Improv_Metronome,167,5,42,127,2539990332
99,23,13,Improv_Metronome,168,1,48,83,2540176056
99,23,13,Improv_Metronome,169,5,42,127,2540490176
99,23,13,Improv_Metronome,170,1,48,73,2540519248
99,23,13,Improv_Metronome,171,1,48,70,2540680220
99,23,13,Improv_Metronome,172,1,38,70,2540952480
99,23,13,Improv_Metronome,173,5,42,127,2540989692
99,23,13,Improv_Metronome,174,1,38,41,2541004992
99,23,13,Improv_Metronome,175,1,48,88,2541260796
99,23,13,Improv_Metronome,176,5,42,127,2541489500
99,23,13,Improv_Metronome,177,1,48,79,2541560160
99,23,13,Improv_Metronome,178,1,48,84,2541838560
99,23,13,Improv_Metronome,179,5,42,127,2541990292
99,23,13,Improv_Metronome,180,1,38,65,2542099396
99,23,13,Improv_Metronome,181,1,48,79,2542384780
99,23,13,Improv_Metronome,182,5,42,127,2542490040
99,23,13,Improv_Metronome,183,1,48,71,2542811300
99,23,13,Improv_Metronome,184,1,48,67,2542979744
99,23,13,Improv_Metronome,185,5,42,127,2542989652
99,23,13,Improv_Metronome,186,1,38,76,2543248964
99,23,13,Improv_Metronome,187,1,38,44,2543291728
99,23,13,Improv_Metronome,188,5,42,127,2543490508
99,23,13,Improv_Metronome,189,1,48,79,2543557804
99,23,13,Improv_Metronome,190,1,48,74,2543849892
99,23,13,Improv_Metronome,191,5,42,127,2543990180
99,23,13,Improv_Metronome,192,1,48,75,2544139456
99,23,13,Improv_Metronome,193,1,38,70,2544394444
99,23,13,Improv_Metronome,194,5,42,127,2544489924
99,23,13,Improv_Metronome,195,1,48,78,2544682088
99,23,13,Improv_Metronome,196,5,42,127,2544989548
99,23,13,Improv_Metronome,197,1,48,65,2545119452
99,23,13,Improv_Metronome,198,1,48,61,2545298892
99,23,13,Improv_Metronome,199,5,42,127,2545490340
99,23,13,Improv_Metronome,200,1,38,74,2545583444
99,23,13,Improv_Metronome,201,1,48,76,2545872388
99,23,13,Improv_Metronome,202,5,42,127,2545990088
99,23,13,Improv_Metronome,203,1,48,76,2546176836
99,23,13,Improv_Metronome,204,1,48,76,2546453744
99,23,13,Improv_Metronome,205,5,42,127,2546489624
99,23,13,Improv_Metronome,206,1,38,70,2546728220
99,23,13,Improv_Metronome,207,5,42,127,2546989380
99,23,13,Improv_Metronome,208,1,48,76,2547033936
99,23,13,Improv_Metronome,209,1,48,62,2547446524
99,23,13,Improv_Metronome,210,5,42,127,2547490264
99,23,13,Improv_Metronome,211,1,48,63,2547615516
99,23,13,Improv_Metronome,212,1,38,72,2547897056
99,23,13,Improv_Metronome,213,5,42,127,2547990060
99,23,13,Improv_Metronome,214,1,48,62,2548188788
99,23,13,Improv_Metronome,215,5,42,127,2548489516
99,23,13,Improv_Metronome,216,1,48,69,2548499520
99,23,13,Improv_Metronome,217,1,48,57,2548673728
99,23,13,Improv_Metronome,218,1,48,66,2548862220
99,23,13,Improv_Metronome,219,5,42,127,2548990216
99,23,13,Improv_Metronome,220,1,38,61,2549094788
99,23,13,Improv_Metronome,221,1,38,42,2549127824
99,23,13,Improv_Metronome,222,1,48,64,2549465616
99,23,13,Improv_Metronome,223,5,42,127,2549490256
99,23,13,Improv_Metronome,224,1,48,65,2549607152
99,23,13,Improv_Metronome,225,1,48,64,2549939336
99,23,13,Improv_Metronome,226,5,42,127,2549989784
99,23,13,Improv_Metronome,227,1,48,64,2550080424
99,23,13,Improv_Metronome,228,1,38,62,2550365560
99,23,13,Improv_Metronome,229,1,38,33,2550410268
99,23,13,Improv_Metronome,230,5,42,127,2550489436
99,23,13,Improv_Metronome,231,1,48,54,2550665048
99,23,13,Improv_Metronome,232,1,48,58,2550988720
99,23,13,Improv_Metronome,233,5,42,127,2550990228
99,23,13,Improv_Metronome,234,1,48,61,2551144152
99,23,13,Improv_Metronome,235,1,48,63,2551343344
99,23,13,Improv_Metronome,236,5,42,127,2551490336
99,23,13,Improv_Metronome,237,1,38,59,2551626172
99,23,13,Improv_Metronome,238,1,48,67,2551933816
99,23,13,Improv_Metronome,239,5,42,127,2551989500
99,23,13,Improv_Metronome,240,1,48,67,2552089464
99,23,13,Improv_Metronome,241,1,48,71,2552399308
99,23,13,Improv_Metronome,242,5,42,127,2552490296
99,23,13,Improv_Metronome,243,1,48,71,2552568872
99,23,13,Improv_Metronome,244,1,38,73,2552856544
99,23,13,Improv_Metronome,245,5,42,127,2552990176
99,23,13,Improv_Metronome,246,1,48,64,2553160120
99,23,13,Improv_Metronome,247,1,48,72,2553468288
99,23,13,Improv_Metronome,248,5,42,127,2553489864
99,23,13,Improv_Metronome,249,1,48,65,2553633092
99,23,13,Improv_Metronome,250,1,48,63,2553805104
99,23,13,Improv_Metronome,251,5,42,127,2553989520
99,23,13,Improv_Metronome,252,1,38,83,2554097208
99,23,13,Improv_Metronome,253,1,38,39,2554144932
99,23,13,Improv_Metronome,254,1,48,72,2554456016
99,23,13,Improv_Metronome,255,5,42,127,2554490232
99,23,13,Improv_Metronome,256,1,48,63,2554624012
99,23,13,Improv_Metronome,257,1,48,68,2554943424
99,23,13,Improv_Metronome,258,5,42,127,2554990204
99,23,13,Improv_Metronome,259,1,48,68,2555109096
99,23,13,Improv_Metronome,260,1,38,60,2555426868
99,23,13,Improv_Metronome,261,5,42,127,2555489508
99,23,13,Improv_Metronome,262,1,48,65,2555722636
99,23,13,Improv_Metronome,263,5,42,127,2555990308
99,23,13,Improv_Metronome,264,1,48,70,2556037708
99,23,13,Improv_Metronome,265,1,48,60,2556214008
99,23,13,Improv_Metronome,266,1,48,61,2556377272
99,23,13,Improv_Metronome,267,5,42,127,2556490184
99,23,13,Improv_Metronome,268,1,38,81,2556680968
99,23,13,Improv_Metronome,269,5,42,127,2556990024
99,23,13,Improv_Metronome,270,1,48,48,2557023588
99,23,13,Improv_Metronome,271,1,48,39,2557168676
99,23,13,Improv_Metronome,272,1,48,54,2557479188
99,23,13,Improv_Metronome,273,5,42,127,2557489468
99,23,13,Improv_Metronome,274,1,48,36,2557653236
99,23,13,Improv_Metronome,275,1,38,76,2557952208
99,23,13,Improv_Metronome,276,5,42,127,2557990184
99,23,13,Improv_Metronome,277,1,48,76,2558250392
99,23,13,Improv_Metronome,278,5,42,127,2558490212
99,23,13,Improv_Metronome,279,1,48,79,2558556636
99,23,13,Improv_Metronome,280,1,48,81,2558836236
99,23,13,Improv_Metronome,281,5,42,127,2558990032
99,23,13,Improv_Metronome,282,1,38,73,2559100964
99,23,13,Improv_Metronome,283,1,48,77,2559425512
99,23,13,Improv_Metronome,284,5,42,127,2559490396
99,23,13,Improv_Metronome,285,1,48,58,2559816676
99,23,13,Improv_Metronome,286,1,48,58,2559973432
99,23,13,Improv_Metronome,287,5,42,127,2559990068
99,23,13,Improv_Metronome,288,1,38,72,2560256412
99,23,13,Improv_Metronome,289,5,42,127,2560490268
99,23,13,Improv_Metronome,290,1,48,62,2560543008
99,23,13,Improv_Metronome,291,1,48,74,2560832028
99,23,13,Improv_Metronome,292,5,42,127,2560989496
99,23,13,Improv_Metronome,293,1,48,68,2561094512
99,23,13,Improv_Metronome,294,1,38,86,2561369920
99,23,13,Improv_Metronome,295,5,42,127,2561490216
99,23,13,Improv_Metronome,296,1,48,81,2561654248
99,23,13,Improv_Metronome,297,5,42,127,2561990132
99,23,13,Improv_Metronome,298,1,48,72,2562122600
99,23,13,Improv_Metronome,299,1,48,57,2562281824
99,23,13,Improv_Metronome,300,5,42,127,2562489656
99,23,13,Improv_Metronome,301,1,38,62,2562556800
99,23,13,Improv_Metronome,302,1,48,67,2562823388
99,23,13,Improv_Metronome,303,5,42,127,2562989476
99,23,13,Improv_Metronome,304,1,48,67,2563106164
99,23,13,Improv_Metronome,305,1,48,21,2563311608
99,23,13,Improv_Metronome,306,5,42,127,2563490048
99,23,13,Improv_Metronome,307,1,38,74,2563584124
99,23,13,Improv_Metronome,308,1,48,70,2563843968
99,23,13,Improv_Metronome,309,5,42,127,2563989868
99,23,13,Improv_Metronome,310,1,48,70,2564207084
99,23,13,Improv_Metronome,311,1,48,64,2564374456
99,23,13,Improv_Metronome,312,5,42,127,2564489468
99,23,13,Improv_Metronome,313,1,38,68,2564622436
99,23,13,Improv_Metronome,314,1,48,78,2564873236
99,23,13,Improv_Metronome,315,5,42,127,2564990256
99,23,13,Improv_Metronome,316,1,48,77,2565162892
99,23,13,Improv_Metronome,317,1,48,73,2565410400
99,23,13,Improv_Metronome,318,5,42,127,2565490020
99,23,13,Improv_Metronome,319,1,38,62,2565641376
99,23,13,Improv_Metronome,320,1,48,76,2565909528
99,23,13,Improv_Metronome,321,5,42,127,2565989840
99,23,13,Improv_Metronome,322,1,48,63,2566284460
99,23,13,Improv_Metronome,323,1,48,60,2566438920
99,23,13,Improv_Metronome,324,5,42,127,2566489440
99,23,13,Improv_Metronome,325,1,38,62,2566713376
99,23,13,Improv_Metronome,326,1,48,69,2566988348
99,23,13,Improv_Metronome,327,5,42,127,2566990012
99,23,13,Improv_Metronome,328,1,48,67,2567283808
99,23,13,Improv_Metronome,329,5,42,127,2567489992
99,23,13,Improv_Metronome,330,1,48,65,2567561480
99,23,13,Improv_Metronome,331,1,38,21,2567812728
99,23,13,Improv_Metronome,332,5,42,127,2567989740
99,23,13,Improv_Metronome,333,1,48,68,2568077832
99,23,13,Improv_Metronome,334,5,42,127,2568490336
99,23,13,Improv_Metronome,335,1,48,53,2568806132
99,23,13,Improv_Metronome,336,5,42,127,2568990472
99,23,13,Improv_Metronome,337,1,48,66,2569096892
99,23,13,Improv_Metronome,338,1,38,57,2569371928
99,23,13,Improv_Metronome,339,5,42,127,2569489824
99,23,13,Improv_Metronome,340,1,48,68,2569690056
99,23,13,Improv_Metronome,341,5,42,127,2569989520
99,23,13,Improv_Metronome,342,1,48,62,2570113092
99,23,13,Improv_Metronome,343,1,48,59,2570274652
99,23,13,Improv_Metronome,344,5,42,127,2570490088
99,23,13,Improv_Metronome,345,1,38,62,2570555616
99,23,13,Improv_Metronome,346,1,48,63,2570819576
99,23,13,Improv_Metronome,347,5,42,127,2570989912
99,23,13,Improv_Metronome,348,1,48,61,2571131280
99,23,13,Improv_Metronome,349,1,48,64,2571408636
99,23,13,Improv_Metronome,350,5,42,127,2571489824
99,23,13,Improv_Metronome,351,1,38,62,2571670072
99,23,13,Improv_Metronome,352,1,38,39,2571710596
99,23,13,Improv_Metronome,353,1,48,59,2571956308
99,23,13,Improv_Metronome,354,5,42,127,2571990296
99,23,13,Improv_Metronome,355,1,48,26,2572033272
99,23,13,Improv_Metronome,356,1,38,55,2572388812
99,23,13,Improv_Metronome,357,5,42,127,2572490104
99,23,13,Improv_Metronome,358,1,48,53,2572535040
99,23,13,Improv_Metronome,359,1,38,57,2572822712
99,23,13,Improv_Metronome,360,5,42,127,2572989924
99,23,13,Improv_Metronome,361,1,48,66,2573105644
99,23,13,Improv_Metronome,362,1,38,58,2573396012
99,23,13,Improv_Metronome,363,5,42,127,2573489764
99,23,13,Improv_Metronome,364,1,38,70,2573671132
99,23,13,Improv_Metronome,365,1,38,61,2573984844
99,23,13,Improv_Metronome,366,5,42,127,2573990184
99,23,13,Improv_Metronome,367,1,38,52,2574318236
99,23,13,Improv_Metronome,368,1,38,59,2574453848
99,23,13,Improv_Metronome,369,5,42,127,2574489932
99,23,13,Improv_Metronome,370,1,38,54,2574742740
99,23,13,Improv_Metronome,371,1,38,62,2574884632
99,23,13,Improv_Metronome,372,5,42,127,2574989816
99,23,13,Improv_Metronome,373,1,38,52,2575162900
99,23,13,Improv_Metronome,374,1,38,54,2575487376
99,23,13,Improv_Metronome,375,5,42,127,2575490700
99,23,13,Improv_Metronome,376,1,38,57,2575761756
99,23,13,Improv_Metronome,377,5,42,127,2575990228
99,23,13,Improv_Metronome,378,1,38,55,2576048920
99,23,13,Improv_Metronome,379,1,38,53,2576315436
99,23,13,Improv_Metronome,380,5,42,127,2576489904
99,23,13,Improv_Metronome,381,1,38,53,2576654660
99,23,13,Improv_Metronome,382,1,38,60,2576791616
99,23,13,Improv_Metronome,383,5,42,127,2576989724
99,23,13,Improv_Metronome,384,1,38,57,2577092548
99,23,13,Improv_Metronome,385,1,38,65,2577238856
99,23,13,Improv_Metronome,386,5,42,127,2577490144
99,23,13,Improv_Metronome,387,1,38,50,2577523556
99,23,13,Improv_Metronome,388,5,42,127,2577990064
99,23,13,Improv_Metronome,389,1,38,56,2578166560
99,23,13,Improv_Metronome,390,5,42,127,2578489608
99,23,13,Improv_Metronome,391,1,38,53,2578661096
99,23,13,Improv_Metronome,392,5,42,127,2578989528
99,23,13,Improv_Metronome,393,1,38,55,2579165656
99,23,13,Improv_Metronome,394,5,42,127,2579490120
99,23,13,Improv_Metronome,395,1,38,54,2579647700
99,23,13,Improv_Metronome,396,5,42,127,2579989788
99,23,13,Improv_Metronome,397,1,38,56,2580128844
99,23,13,Improv_Metronome,398,5,42,127,2580489708
99,23,13,Improv_Metronome,399,1,38,57,2580607892
99,23,13,Improv_Metronome,400,5,42,127,2580990376
99,23,13,Improv_Metronome,401,1,38,50,2581070188
99,23,13,Improv_Metronome,402,1,48,53,2581080564
99,23,13,Improv_Metronome,403,5,42,127,2581490024
99,23,13,Improv_Metronome,404,1,38,58,2581508700
99,23,13,Improv_Metronome,405,1,48,67,2581519152
99,23,13,Improv_Metronome,406,1,38,57,2581975868
99,23,13,Improv_Metronome,407,5,42,127,2581989664
99,23,13,Improv_Metronome,408,1,48,65,2582002808
99,23,13,Improv_Metronome,409,1,38,64,2582447256
99,23,13,Improv_Metronome,410,1,48,68,2582463616
99,23,13,Improv_Metronome,0,9999,9999,9999,2512487484
99,23,13,Improv_Metronome,1,9999,9999,9999,2512987252
99,23,13,Improv_Metronome,2,9999,9999,9999,2513487984
99,23,13,Improv_Metronome,3,9999,9999,9999,2513987656
99,23,13,Improv_Metronome,4,9999,9999,9999,2514487412
99,23,13,Improv_Metronome,5,9999,9999,9999,2514987064
99,23,13,Improv_Metronome,6,9999,9999,9999,2515487836
99,23,13,Improv_Metronome,7,9999,9999,9999,2515987508
99,23,13,Improv_Metronome,8,9999,9999,9999,2516487256
99,23,13,Improv_Metronome,9,9999,9999,9999,2516987976
99,23,13,Improv_Metronome,10,9999,9999,9999,2517487716
99,23,13,Improv_Metronome,11,9999,9999,9999,2517987448
99,23,13,Improv_Metronome,12,9999,9999,9999,2518487120
99,23,13,Improv_Metronome,13,9999,9999,9999,2518987840
99,23,13,Improv_Metronome,14,9999,9999,9999,2519487604
99,23,13,Improv_Metronome,15,9999,9999,9999,2519987284
99,23,13,Improv_Metronome,16,9999,9999,9999,2520488004
99,23,13,Improv_Metronome,17,9999,9999,9999,2520987700
99,23,13,Improv_Metronome,18,9999,9999,9999,2521487448
99,23,13,Improv_Metronome,19,9999,9999,9999,2521987136
99,23,13,Improv_Metronome,20,9999,9999,9999,2522487860
99,23,13,Improv_Metronome,21,9999,9999,9999,2522987608
99,23,13,Improv_Metronome,22,9999,9999,9999,2523487304
99,23,13,Improv_Metronome,23,9999,9999,9999,2523988024
99,23,13,Improv_Metronome,24,9999,9999,9999,2524487784
99,23,13,Improv_Metronome,25,9999,9999,9999,2524987464
99,23,13,Improv_Metronome,26,9999,9999,9999,2525487212
99,23,13,Improv_Metronome,27,9999,9999,9999,2525987952
99,23,13,Improv_Metronome,28,9999,9999,9999,2526487668
99,23,13,Improv_Metronome,29,9999,9999,9999,2526987352
99,23,13,Improv_Metronome,30,9999,9999,9999,2527488068
99,23,13,Improv_Metronome,31,9999,9999,9999,2527987800
99,23,13,Improv_Metronome,32,9999,9999,9999,2528487472
99,23,13,Improv_Metronome,33,9999,9999,9999,2528987220
99,23,13,Improv_Metronome,34,9999,9999,9999,2529487940
99,23,13,Improv_Metronome,35,9999,9999,9999,2529987684
99,23,13,Improv_Metronome,36,9999,9999,9999,2530487416
99,23,13,Improv_Metronome,37,9999,9999,9999,2530987088
99,23,13,Improv_Metronome,38,9999,9999,9999,2531487808
99,23,13,Improv_Metronome,39,9999,9999,9999,2531987552
99,23,13,Improv_Metronome,40,9999,9999,9999,2532487220
99,23,13,Improv_Metronome,41,9999,9999,9999,2532987996
99,23,13,Improv_Metronome,42,9999,9999,9999,2533487672
99,23,13,Improv_Metronome,43,9999,9999,9999,2533987420
99,23,13,Improv_Metronome,44,9999,9999,9999,2534487116
99,23,13,Improv_Metronome,45,9999,9999,9999,2534987856
99,23,13,Improv_Metronome,46,9999,9999,9999,2535487604
99,23,13,Improv_Metronome,47,9999,9999,9999,2535987300
99,23,13,Improv_Metronome,48,9999,9999,9999,2536488016
99,23,13,Improv_Metronome,49,9999,9999,9999,2536987744
99,23,13,Improv_Metronome,50,9999,9999,9999,2537487416
99,23,13,Improv_Metronome,51,9999,9999,9999,2537987180
99,23,13,Improv_Metronome,52,9999,9999,9999,2538487900
99,23,13,Improv_Metronome,53,9999,9999,9999,2538987580
99,23,13,Improv_Metronome,54,9999,9999,9999,2539487328
99,23,13,Improv_Metronome,55,9999,9999,9999,2539988044
99,23,13,Improv_Metronome,56,9999,9999,9999,2540487740
99,23,13,Improv_Metronome,57,9999,9999,9999,2540987480
99,23,13,Improv_Metronome,58,9999,9999,9999,2541487212
99,23,13,Improv_Metronome,59,9999,9999,9999,2541987932
99,23,13,Improv_Metronome,60,9999,9999,9999,2542487604
99,23,13,Improv_Metronome,61,9999,9999,9999,2542987364
99,23,13,Improv_Metronome,62,9999,9999,9999,2543488072
99,23,13,Improv_Metronome,63,9999,9999,9999,2543987820
99,23,13,Improv_Metronome,64,9999,9999,9999,2544487492
99,23,13,Improv_Metronome,65,9999,9999,9999,2544987188
99,23,13,Improv_Metronome,66,9999,9999,9999,2545487980
99,23,13,Improv_Metronome,67,9999,9999,9999,2545987652
99,23,13,Improv_Metronome,68,9999,9999,9999,2546487416
99,23,13,Improv_Metronome,69,9999,9999,9999,2546987096
99,23,13,Improv_Metronome,70,9999,9999,9999,2547487828
99,23,13,Improv_Metronome,71,9999,9999,9999,2547987552
99,23,13,Improv_Metronome,72,9999,9999,9999,2548487232
99,23,13,Improv_Metronome,73,9999,9999,9999,2548988004
99,23,13,Improv_Metronome,74,9999,9999,9999,2549487672
99,23,13,Improv_Metronome,75,9999,9999,9999,2549987420
99,23,13,Improv_Metronome,76,9999,9999,9999,2550487148
99,23,13,Improv_Metronome,77,9999,9999,9999,2550987876
99,23,13,Improv_Metronome,78,9999,9999,9999,2551487604
99,23,13,Improv_Metronome,79,9999,9999,9999,2551987288
99,23,13,Improv_Metronome,80,9999,9999,9999,2552488008
99,23,13,Improv_Metronome,81,9999,9999,9999,2552987740
99,23,13,Improv_Metronome,82,9999,9999,9999,2553487428
99,23,13,Improv_Metronome,83,9999,9999,9999,2553987160
99,23,13,Improv_Metronome,84,9999,9999,9999,2554487872
99,23,13,Improv_Metronome,85,9999,9999,9999,2554987620
99,23,13,Improv_Metronome,86,9999,9999,9999,2555487296
99,23,13,Improv_Metronome,87,9999,9999,9999,2555988024
99,23,13,Improv_Metronome,88,9999,9999,9999,2556487748
99,23,13,Improv_Metronome,89,9999,9999,9999,2556987440
99,23,13,Improv_Metronome,90,9999,9999,9999,2557487180
99,23,13,Improv_Metronome,91,9999,9999,9999,2557987900
99,23,13,Improv_Metronome,92,9999,9999,9999,2558487628
99,23,13,Improv_Metronome,93,9999,9999,9999,2558987376
99,23,13,Improv_Metronome,94,9999,9999,9999,2559488112
99,23,13,Improv_Metronome,95,9999,9999,9999,2559987784
99,23,13,Improv_Metronome,96,9999,9999,9999,2560487536
99,23,13,Improv_Metronome,97,9999,9999,9999,2560987208
99,23,13,Improv_Metronome,98,9999,9999,9999,2561487928
99,23,13,Improv_Metronome,99,9999,9999,9999,2561987696
99,23,13,Improv_Metronome,100,9999,9999,9999,2562487368
99,23,13,Improv_Metronome,101,9999,9999,9999,2562987116
99,23,13,Improv_Metronome,102,9999,9999,9999,2563487836
99,23,13,Improv_Metronome,103,9999,9999,9999,2563987508
99,23,13,Improv_Metronome,104,9999,9999,9999,2564487256
99,23,13,Improv_Metronome,105,9999,9999,9999,2564987972
99,23,13,Improv_Metronome,106,9999,9999,9999,2565487736
99,23,13,Improv_Metronome,107,9999,9999,9999,2565987408
99,23,13,Improv_Metronome,108,9999,9999,9999,2566487152
99,23,13,Improv_Metronome,109,9999,9999,9999,2566987824
99,23,13,Improv_Metronome,110,9999,9999,9999,2567487556
99,23,13,Improv_Metronome,111,9999,9999,9999,2567987304
99,23,13,Improv_Metronome,112,9999,9999,9999,2568488048
99,23,13,Improv_Metronome,113,9999,9999,9999,2568987716
99,23,13,Improv_Metronome,114,9999,9999,9999,2569487464
99,23,13,Improv_Metronome,115,9999,9999,9999,2569987160
99,23,13,Improv_Metronome,116,9999,9999,9999,2570487876
99,23,13,Improv_Metronome,117,9999,9999,9999,2570987624
99,23,13,Improv_Metronome,118,9999,9999,9999,2571487312
99,23,13,Improv_Metronome,119,9999,9999,9999,2571988084
99,23,13,Improv_Metronome,120,9999,9999,9999,2572487784
99,23,13,Improv_Metronome,121,9999,9999,9999,2572987488
99,23,13,Improv_Metronome,122,9999,9999,9999,2573487176
99,23,13,Improv_Metronome,123,9999,9999,9999,2573987900
99,23,13,Improv_Metronome,124,9999,9999,9999,2574487644
99,23,13,Improv_Metronome,125,9999,9999,9999,2574987380
99,23,13,Improv_Metronome,126,9999,9999,9999,2575488116
99,23,13,Improv_Metronome,127,9999,9999,9999,2575987792
99,23,13,Improv_Metronome,128,9999,9999,9999,2576487540
99,23,13,Improv_Metronome,129,9999,9999,9999,2576987212
99,23,13,Improv_Metronome,130,9999,9999,9999,2577487932
99,23,13,Improv_Metronome,131,9999,9999,9999,2577987700
99,23,13,Improv_Metronome,132,9999,9999,9999,2578487396
99,23,13,Improv_Metronome,133,9999,9999,9999,2578987092
99,23,13,Improv_Metronome,134,9999,9999,9999,2579487836
99,23,13,Improv_Metronome,135,9999,9999,9999,2579987576
99,23,13,Improv_Metronome,136,9999,9999,9999,2580487272
99,23,13,Improv_Metronome,137,9999,9999,9999,2580988016
99,23,13,Improv_Metronome,138,9999,9999,9999,2581487736
99,23,13,Improv_Metronome,139,9999,9999,9999,2581987376
99,24,14,Improv_Melody,0,2,48,80,2650123652
99,24,14,Improv_Melody,1,2,72,80,2650126168
99,24,14,Improv_Melody,2,5,42,127,2650127808
99,24,14,Improv_Melody,3,5,42,110,2650621248
99,24,14,Improv_Melody,4,5,42,110,2651120968
99,24,14,Improv_Melody,5,5,42,110,2651620764
99,24,14,Improv_Melody,6,5,42,127,2652120636
99,24,14,Improv_Melody,7,5,42,110,2652621032
99,24,14,Improv_Melody,8,5,42,110,2653120828
99,24,14,Improv_Melody,9,5,42,110,2653620848
99,24,14,Improv_Melody,10,2,43,80,2654123900
99,24,14,Improv_Melody,11,2,67,80,2654126128
99,24,14,Improv_Melody,12,5,42,127,2654128736
99,24,14,Improv_Melody,13,5,42,110,2654621052
99,24,14,Improv_Melody,14,5,42,110,2655120848
99,24,14,Improv_Melody,15,5,42,110,2655620720
99,24,14,Improv_Melody,16,5,42,127,2656121264
99,24,14,Improv_Melody,17,5,42,110,2656620836
99,24,14,Improv_Melody,18,5,42,110,2657120636
99,24,14,Improv_Melody,19,5,42,110,2657621476
99,24,14,Improv_Melody,20,2,45,80,2658123632
99,24,14,Improv_Melody,21,2,69,80,2658125708
99,24,14,Improv_Melody,22,5,42,127,2658128468
99,24,14,Improv_Melody,23,5,42,110,2658620640
99,24,14,Improv_Melody,24,5,42,110,2659120508
99,24,14,Improv_Melody,25,5,42,110,2659621424
99,24,14,Improv_Melody,26,5,42,127,2660120900
99,24,14,Improv_Melody,27,5,42,110,2660620544
99,24,14,Improv_Melody,28,5,42,110,2661121540
99,24,14,Improv_Melody,29,5,42,110,2661621184
99,24,14,Improv_Melody,30,2,41,80,2662123340
99,24,14,Improv_Melody,31,2,65,80,2662125340
99,24,14,Improv_Melody,32,5,42,127,2662127880
99,24,14,Improv_Melody,33,5,42,110,2662620492
99,24,14,Improv_Melody,34,5,42,110,2663121188
99,24,14,Improv_Melody,35,5,42,110,2663620912
99,24,14,Improv_Melody,36,1,48,83,2663635104
99,24,14,Improv_Melody,37,5,42,127,2664120684
99,24,14,Improv_Melody,38,1,48,76,2664121948
99,24,14,Improv_Melody,39,1,48,72,2664613384
99,24,14,Improv_Melody,40,5,42,110,2664621348
99,24,14,Improv_Melody,41,1,48,61,2665108220
99,24,14,Improv_Melody,42,5,42,110,2665121124
99,24,14,Improv_Melody,43,1,48,72,2665580168
99,24,14,Improv_Melody,44,5,42,110,2665620824
99,24,14,Improv_Melody,45,2,48,80,2666122956
99,24,14,Improv_Melody,46,2,72,80,2666125188
99,24,14,Improv_Melody,47,5,42,127,2666127724
99,24,14,Improv_Melody,48,1,48,81,2666170184
99,24,14,Improv_Melody,49,1,48,67,2666597832
99,24,14,Improv_Melody,50,5,42,110,2666621504
99,24,14,Improv_Melody,51,1,48,83,2667105316
99,24,14,Improv_Melody,52,5,42,110,2667120908
99,24,14,Improv_Melody,53,1,38,88,2667545996
99,24,14,Improv_Melody,54,5,42,110,2667620684
99,24,14,Improv_Melody,55,1,48,78,2668035576
99,24,14,Improv_Melody,56,5,42,127,2668120308
99,24,14,Improv_Melody,57,1,48,79,2668506848
99,24,14,Improv_Melody,58,5,42,110,2668621412
99,24,14,Improv_Melody,59,1,48,87,2669041624
99,24,14,Improv_Melody,60,5,42,110,2669120904
99,24,14,Improv_Melody,61,1,38,75,2669537888
99,24,14,Improv_Melody,62,5,42,110,2669620528
99,24,14,Improv_Melody,63,1,48,83,2670095856
99,24,14,Improv_Melody,64,2,43,80,2670123932
99,24,14,Improv_Melody,65,2,67,80,2670126236
99,24,14,Improv_Melody,66,5,42,127,2670128692
99,24,14,Improv_Melody,67,1,48,84,2670574704
99,24,14,Improv_Melody,68,5,42,110,2670620912
99,24,14,Improv_Melody,69,1,48,86,2671113520
99,24,14,Improv_Melody,70,5,42,110,2671120664
99,24,14,Improv_Melody,71,1,38,85,2671587416
99,24,14,Improv_Melody,72,5,42,110,2671620512
99,24,14,Improv_Melody,73,1,48,69,2672116812
99,24,14,Improv_Melody,74,5,42,127,2672121556
99,24,14,Improv_Melody,75,1,48,74,2672595492
99,24,14,Improv_Melody,76,5,42,110,2672620812
99,24,14,Improv_Melody,77,1,48,75,2673090928
99,24,14,Improv_Melody,78,5,42,110,2673120588
99,24,14,Improv_Melody,79,1,38,92,2673562656
99,24,14,Improv_Melody,80,5,42,110,2673621480
99,24,14,Improv_Melody,81,1,48,85,2674069380
99,24,14,Improv_Melody,82,2,45,80,2674123688
99,24,14,Improv_Melody,83,2,69,80,2674126140
99,24,14,Improv_Melody,84,5,42,127,2674128448
99,24,14,Improv_Melody,85,1,48,81,2674543440
99,24,14,Improv_Melody,86,5,42,110,2674620820
99,24,14,Improv_Melody,87,1,38,80,2675056080
99,24,14,Improv_Melody,88,5,42,110,2675120444
99,24,14,Improv_Melody,89,1,48,79,2675565056
99,24,14,Improv_Melody,90,5,42,110,2675621416
99,24,14,Improv_Melody,91,1,48,80,2676075376
99,24,14,Improv_Melody,92,5,42,127,2676120892
99,24,14,Improv_Melody,93,1,48,76,2676578668
99,24,14,Improv_Melody,94,5,42,110,2676620516
99,24,14,Improv_Melody,95,1,38,85,2677070364
99,24,14,Improv_Melody,96,5,42,110,2677121340
99,24,14,Improv_Melody,97,5,42,110,2677621268
99,24,14,Improv_Melody,98,1,48,65,2677986436
99,24,14,Improv_Melody,99,2,41,80,2678123472
99,24,14,Improv_Melody,100,2,65,80,2678125476
99,24,14,Improv_Melody,101,5,42,127,2678128160
99,24,14,Improv_Melody,102,5,42,110,2678620404
99,24,14,Improv_Melody,103,1,48,60,2678657780
99,24,14,Improv_Melody,104,1,38,71,2679081236
99,24,14,Improv_Melody,105,5,42,110,2679121368
99,24,14,Improv_Melody,106,5,42,110,2679620924
99,24,14,Improv_Melody,107,5,42,127,2680120724
99,24,14,Improv_Melody,108,1,48,67,2680175004
99,24,14,Improv_Melody,109,1,48,59,2680585276
99,24,14,Improv_Melody,110,5,42,110,2680621388
99,24,14,Improv_Melody,111,1,38,75,2681086544
99,24,14,Improv_Melody,112,5,42,110,2681121312
99,24,14,Improv_Melody,113,5,42,110,2681621068
99,24,14,Improv_Melody,114,2,48,80,2682123224
99,24,14,Improv_Melody,115,2,72,80,2682125076
99,24,14,Improv_Melody,116,5,42,127,2682127540
99,24,14,Improv_Melody,117,1,48,62,2682152372
99,24,14,Improv_Melody,118,1,48,66,2682616124
99,24,14,Improv_Melody,119,5,42,110,2682621172
99,24,14,Improv_Melody,120,1,38,101,2683108116
99,24,14,Improv_Melody,121,5,42,110,2683120948
99,24,14,Improv_Melody,122,5,42,110,2683620656
99,24,14,Improv_Melody,123,5,42,127,2684120524
99,24,14,Improv_Melody,124,1,48,70,2684132844
99,24,14,Improv_Melody,125,1,48,63,2684595944
99,24,14,Improv_Melody,126,5,42,110,2684621116
99,24,14,Improv_Melody,127,1,38,71,2685074928
99,24,14,Improv_Melody,128,5,42,110,2685120816
99,24,14,Improv_Melody,129,5,42,110,2685620524
99,24,14,Improv_Melody,130,2,43,80,2686123948
99,24,14,Improv_Melody,131,2,67,80,2686126104
99,24,14,Improv_Melody,132,5,42,127,2686128560
99,24,14,Improv_Melody,133,1,48,60,2686153824
99,24,14,Improv_Melody,134,1,48,40,2686368868
99,24,14,Improv_Melody,135,1,48,45,2686579052
99,24,14,Improv_Melody,136,5,42,110,2686621124
99,24,14,Improv_Melody,137,1,48,64,2686808112
99,24,14,Improv_Melody,138,1,38,86,2687112616
99,24,14,Improv_Melody,139,5,42,110,2687120804
99,24,14,Improv_Melody,140,5,42,110,2687620512
99,24,14,Improv_Melody,141,5,42,127,2688121204
99,24,14,Improv_Melody,142,1,48,73,2688124400
99,24,14,Improv_Melody,143,1,48,61,2688362184
99,24,14,Improv_Melody,144,1,48,56,2688591068
99,24,14,Improv_Melody,145,5,42,110,2688621024
99,24,14,Improv_Melody,146,1,48,65,2688821244
99,24,14,Improv_Melody,147,1,38,71,2689076612
99,24,14,Improv_Melody,148,5,42,110,2689120556
99,24,14,Improv_Melody,149,5,42,110,2689621456
99,24,14,Improv_Melody,150,2,45,80,2690123616
99,24,14,Improv_Melody,151,2,69,80,2690125920
99,24,14,Improv_Melody,152,5,42,127,2690128452
99,24,14,Improv_Melody,153,1,48,47,2690136880
99,24,14,Improv_Melody,154,1,48,24,2690378784
99,24,14,Improv_Melody,155,1,48,27,2690608192
99,24,14,Improv_Melody,156,5,42,110,2690620716
99,24,14,Improv_Melody,157,1,48,28,2690873000
99,24,14,Improv_Melody,158,5,42,110,2691120628
99,24,14,Improv_Melody,159,1,38,75,2691129432
99,24,14,Improv_Melody,160,5,42,110,2691621152
99,24,14,Improv_Melody,161,5,42,127,2692120944
99,24,14,Improv_Melody,162,1,48,74,2692166028
99,24,14,Improv_Melody,163,1,48,55,2692393712
99,24,14,Improv_Melody,164,5,42,110,2692620524
99,24,14,Improv_Melody,165,1,48,54,2692623192
99,24,14,Improv_Melody,166,1,48,61,2692860980
99,24,14,Improv_Melody,167,5,42,110,2693121400
99,24,14,Improv_Melody,168,1,38,49,2693124068
99,24,14,Improv_Melody,169,5,42,110,2693621020
99,24,14,Improv_Melody,170,1,48,46,2694109852
99,24,14,Improv_Melody,171,2,41,80,2694123312
99,24,14,Improv_Melody,172,2,65,80,2694125624
99,24,14,Improv_Melody,173,5,42,127,2694128304
99,24,14,Improv_Melody,174,1,48,36,2694584060
99,24,14,Improv_Melody,175,5,42,110,2694620524
99,24,14,Improv_Melody,176,1,38,83,2695105224
99,24,14,Improv_Melody,177,5,42,110,2695121196
99,24,14,Improv_Melody,178,5,42,110,2695620828
99,24,14,Improv_Melody,179,5,42,127,2696120772
99,24,14,Improv_Melody,180,1,48,68,2696195848
99,24,14,Improv_Melody,181,1,48,62,2696581980
99,24,14,Improv_Melody,182,5,42,110,2696621440
99,24,14,Improv_Melody,183,1,38,37,2697103000
99,24,14,Improv_Melody,184,1,48,15,2697116896
99,24,14,Improv_Melody,185,5,42,110,2697121048
99,24,14,Improv_Melody,186,5,42,110,2697620948
99,24,14,Improv_Melody,187,1,48,70,2698120708
99,24,14,Improv_Melody,188,2,48,80,2698124144
99,24,14,Improv_Melody,189,2,72,80,2698126372
99,24,14,Improv_Melody,190,5,42,127,2698128980
99,24,14,Improv_Melody,191,1,48,58,2698375356
99,24,14,Improv_Melody,192,1,48,55,2698606856
99,24,14,Improv_Melody,193,5,42,110,2698621328
99,24,14,Improv_Melody,194,1,48,45,2698857980
99,24,14,Improv_Melody,195,5,42,110,2699120940
99,24,14,Improv_Melody,196,1,38,90,2699122732
99,24,14,Improv_Melody,197,1,38,38,2699169292
99,24,14,Improv_Melody,198,5,42,110,2699620844
99,24,14,Improv_Melody,199,1,48,67,2700119588
99,24,14,Improv_Melody,200,5,42,127,2700121004
99,24,14,Improv_Melody,201,1,48,67,2700564920
99,24,14,Improv_Melody,202,5,42,110,2700621080
99,24,14,Improv_Melody,203,1,38,49,2701089552
99,24,14,Improv_Melody,204,5,42,110,2701120784
99,24,14,Improv_Melody,205,5,42,110,2701620712
99,24,14,Improv_Melody,206,1,48,81,2702118220
99,24,14,Improv_Melody,207,2,43,80,2702124136
99,24,14,Improv_Melody,208,2,67,80,2702126136
99,24,14,Improv_Melody,209,5,42,127,2702128744
99,24,14,Improv_Melody,210,1,48,43,2702359156
99,24,14,Improv_Melody,211,1,48,48,2702583156
99,24,14,Improv_Melody,212,5,42,110,2702620992
99,24,14,Improv_Melody,213,1,48,48,2702831812
99,24,14,Improv_Melody,214,5,42,110,2703120948
99,24,14,Improv_Melody,215,1,38,86,2703135536
99,24,14,Improv_Melody,216,5,42,110,2703620424
99,24,14,Improv_Melody,217,1,48,66,2704107456
99,24,14,Improv_Melody,218,5,42,127,2704121184
99,24,14,Improv_Melody,219,1,48,76,2704570056
99,24,14,Improv_Melody,220,5,42,110,2704620884
99,24,14,Improv_Melody,221,1,38,86,2705075144
99,24,14,Improv_Melody,222,5,42,110,2705120808
99,24,14,Improv_Melody,223,5,42,110,2705621412
99,24,14,Improv_Melody,224,2,45,80,2706123872
99,24,14,Improv_Melody,225,1,48,49,2706124836
99,24,14,Improv_Melody,226,2,69,80,2706127372
99,24,14,Improv_Melody,227,5,42,127,2706129680
99,24,14,Improv_Melody,228,1,48,50,2706349872
99,24,14,Improv_Melody,229,1,48,62,2706582872
99,24,14,Improv_Melody,230,5,42,110,2706620756
99,24,14,Improv_Melody,231,1,48,72,2706844696
99,24,14,Improv_Melody,232,5,42,110,2707120888
99,24,14,Improv_Melody,233,1,38,67,2707137248
99,24,14,Improv_Melody,234,5,42,110,2707621188
99,24,14,Improv_Melody,235,1,48,65,2708094164
99,24,14,Improv_Melody,236,5,42,127,2708120904
99,24,14,Improv_Melody,237,1,48,61,2708575540
99,24,14,Improv_Melody,238,5,42,110,2708620900
99,24,14,Improv_Melody,239,1,38,69,2709096932
99,24,14,Improv_Melody,240,5,42,110,2709121500
99,24,14,Improv_Melody,241,5,42,110,2709621056
99,24,14,Improv_Melody,242,1,48,74,2710117968
99,24,14,Improv_Melody,243,2,41,80,2710123276
99,24,14,Improv_Melody,244,2,65,80,2710125732
99,24,14,Improv_Melody,245,5,42,127,2710128044
99,24,14,Improv_Melody,246,1,48,54,2710349132
99,24,14,Improv_Melody,247,1,48,54,2710570236
99,24,14,Improv_Melody,248,5,42,110,2710620688
99,24,14,Improv_Melody,249,1,48,62,2710811336
99,24,14,Improv_Melody,250,1,38,66,2711089884
99,24,14,Improv_Melody,251,5,42,110,2711121188
99,24,14,Improv_Melody,252,5,42,110,2711621044
99,24,14,Improv_Melody,253,5,42,127,2712120840
99,24,14,Improv_Melody,254,1,48,63,2712123444
99,24,14,Improv_Melody,255,1,48,58,2712573128
99,24,14,Improv_Melody,256,5,42,110,2712621288
99,24,14,Improv_Melody,257,1,38,78,2713075668
99,24,14,Improv_Melody,258,5,42,110,2713121132
99,24,14,Improv_Melody,259,5,42,110,2713620816
99,24,14,Improv_Melody,260,2,48,80,2714123168
99,24,14,Improv_Melody,261,1,48,76,2714124660
99,24,14,Improv_Melody,262,2,72,80,2714126820
99,24,14,Improv_Melody,263,5,42,127,2714128980
99,24,14,Improv_Melody,264,1,48,54,2714346560
99,24,14,Improv_Melody,265,1,48,64,2714578804
99,24,14,Improv_Melody,266,5,42,110,2714621180
99,24,14,Improv_Melody,267,1,48,78,2714835020
99,24,14,Improv_Melody,268,1,38,55,2715110724
99,24,14,Improv_Melody,269,5,42,110,2715120860
99,24,14,Improv_Melody,270,5,42,110,2715620788
99,24,14,Improv_Melody,271,1,48,73,2716101616
99,24,14,Improv_Melody,272,5,42,127,2716120356
99,24,14,Improv_Melody,273,1,48,71,2716563700
99,24,14,Improv_Melody,274,5,42,110,2716621180
99,24,14,Improv_Melody,275,1,38,81,2717083672
99,24,14,Improv_Melody,276,5,42,110,2717120880
99,24,14,Improv_Melody,277,5,42,110,2717620732
99,24,14,Improv_Melody,278,2,43,80,2718124012
99,24,14,Improv_Melody,279,2,67,80,2718126092
99,24,14,Improv_Melody,280,5,42,127,2718128696
99,24,14,Improv_Melody,281,1,48,84,2718131296
99,24,14,Improv_Melody,282,1,48,63,2718357012
99,24,14,Improv_Melody,283,1,48,59,2718575800
99,24,14,Improv_Melody,284,5,42,110,2718621236
99,24,14,Improv_Melody,285,1,48,63,2718836640
99,24,14,Improv_Melody,286,1,38,57,2719091784
99,24,14,Improv_Melody,287,5,42,110,2719120840
99,24,14,Improv_Melody,288,5,42,110,2719620696
99,24,14,Improv_Melody,289,5,42,127,2720121092
99,24,14,Improv_Melody,290,1,48,60,2720129076
99,24,14,Improv_Melody,291,1,48,62,2720565168
99,24,14,Improv_Melody,292,5,42,110,2720620860
99,24,14,Improv_Melody,293,1,38,75,2721064720
99,24,14,Improv_Melody,294,5,42,110,2721120708
99,24,14,Improv_Melody,295,5,42,110,2721621536
99,24,14,Improv_Melody,296,1,48,75,2722122124
99,24,14,Improv_Melody,297,2,45,80,2722125048
99,24,14,Improv_Melody,298,2,69,80,2722127120
99,24,14,Improv_Melody,299,5,42,127,2722129580
99,24,14,Improv_Melody,300,1,48,64,2722362112
99,24,14,Improv_Melody,301,1,48,61,2722598404
99,24,14,Improv_Melody,302,5,42,110,2722620656
99,24,14,Improv_Melody,303,1,48,62,2722861420
99,24,14,Improv_Melody,304,1,38,68,2723092368
99,24,14,Improv_Melody,305,5,42,110,2723120484
99,24,14,Improv_Melody,306,5,42,110,2723621236
99,24,14,Improv_Melody,307,5,42,127,2724120956
99,24,14,Improv_Melody,308,1,48,76,2724124228
99,24,14,Improv_Melody,309,1,48,63,2724583716
99,24,14,Improv_Melody,310,5,42,110,2724620624
99,24,14,Improv_Melody,311,1,38,79,2725039356
99,24,14,Improv_Melody,312,5,42,110,2725121448
99,24,14,Improv_Melody,313,5,42,110,2725621228
99,24,14,Improv_Melody,314,1,48,65,2726122624
99,24,14,Improv_Melody,315,2,41,80,2726124728
99,24,14,Improv_Melody,316,2,65,80,2726126572
99,24,14,Improv_Melody,317,5,42,127,2726129260
99,24,14,Improv_Melody,318,1,48,61,2726380940
99,24,14,Improv_Melody,319,1,38,32,2726606160
99,24,14,Improv_Melody,320,5,42,110,2726620412
99,24,14,Improv_Melody,321,1,48,62,2726878376
99,24,14,Improv_Melody,322,1,38,68,2727121660
99,24,14,Improv_Melody,323,5,42,110,2727124056
99,24,14,Improv_Melody,324,5,42,110,2727620992
99,24,14,Improv_Melody,325,5,42,127,2728120564
99,24,14,Improv_Melody,326,1,48,73,2728146272
99,24,14,Improv_Melody,327,1,38,77,2728587828
99,24,14,Improv_Melody,328,5,42,110,2728621452
99,24,14,Improv_Melody,329,1,48,76,2729098600
99,24,14,Improv_Melody,330,5,42,110,2729121000
99,24,14,Improv_Melody,331,5,42,110,2729620856
99,24,14,Improv_Melody,332,2,48,80,2730122932
99,24,14,Improv_Melody,333,2,72,80,2730125160
99,24,14,Improv_Melody,334,5,42,127,2730127700
99,24,14,Improv_Melody,335,1,48,75,2730152956
99,24,14,Improv_Melody,336,1,38,59,2730397176
99,24,14,Improv_Melody,337,5,42,110,2730621392
99,24,14,Improv_Melody,338,1,48,60,2730664984
99,24,14,Improv_Melody,339,1,48,59,2730944128
99,24,14,Improv_Melody,0,9999,9999,9999,2650118224
99,24,14,Improv_Melody,1,9999,9999,9999,2650618956
99,24,14,Improv_Melody,2,9999,9999,9999,2651118676
99,24,14,Improv_Melody,3,9999,9999,9999,2651618400
99,24,14,Improv_Melody,4,9999,9999,9999,2652118120
99,24,14,Improv_Melody,5,9999,9999,9999,2652618812
99,24,14,Improv_Melody,6,9999,9999,9999,2653118536
99,24,14,Improv_Melody,7,9999,9999,9999,2653618256
99,24,14,Improv_Melody,8,9999,9999,9999,2654119024
99,24,14,Improv_Melody,9,9999,9999,9999,2654618688
99,24,14,Improv_Melody,10,9999,9999,9999,2655118408
99,24,14,Improv_Melody,11,9999,9999,9999,2655618132
99,24,14,Improv_Melody,12,9999,9999,9999,2656118896
99,24,14,Improv_Melody,13,9999,9999,9999,2656618548
99,24,14,Improv_Melody,14,9999,9999,9999,2657118268
99,24,14,Improv_Melody,15,9999,9999,9999,2657619036
99,24,14,Improv_Melody,16,9999,9999,9999,2658118760
99,24,14,Improv_Melody,17,9999,9999,9999,2658618420
99,24,14,Improv_Melody,18,9999,9999,9999,2659118144
99,24,14,Improv_Melody,19,9999,9999,9999,2659618912
99,24,14,Improv_Melody,20,9999,9999,9999,2660118608
99,24,14,Improv_Melody,21,9999,9999,9999,2660618328
99,24,14,Improv_Melody,22,9999,9999,9999,2661119096
99,24,14,Improv_Melody,23,9999,9999,9999,2661618744
99,24,14,Improv_Melody,24,9999,9999,9999,2662118468
99,24,14,Improv_Melody,25,9999,9999,9999,2662618200
99,24,14,Improv_Melody,26,9999,9999,9999,2663118896
99,24,14,Improv_Melody,27,9999,9999,9999,2663618620
99,24,14,Improv_Melody,28,9999,9999,9999,2664118392
99,24,14,Improv_Melody,29,9999,9999,9999,2664619056
99,24,14,Improv_Melody,30,9999,9999,9999,2665118832
99,24,14,Improv_Melody,31,9999,9999,9999,2665618532
99,24,14,Improv_Melody,32,9999,9999,9999,2666118240
99,24,14,Improv_Melody,33,9999,9999,9999,2666618992
99,24,14,Improv_Melody,34,9999,9999,9999,2667118692
99,24,14,Improv_Melody,35,9999,9999,9999,2667618392
99,24,14,Improv_Melody,36,9999,9999,9999,2668118092
99,24,14,Improv_Melody,37,9999,9999,9999,2668618820
99,24,14,Improv_Melody,38,9999,9999,9999,2669118536
99,24,14,Improv_Melody,39,9999,9999,9999,2669618236
99,24,14,Improv_Melody,40,9999,9999,9999,2670118984
99,24,14,Improv_Melody,41,9999,9999,9999,2670618696
99,24,14,Improv_Melody,42,9999,9999,9999,2671118448
99,24,14,Improv_Melody,43,9999,9999,9999,2671618148
99,24,14,Improv_Melody,44,9999,9999,9999,2672118892
99,24,14,Improv_Melody,45,9999,9999,9999,2672618596
99,24,14,Improv_Melody,46,9999,9999,9999,2673118296
99,24,14,Improv_Melody,47,9999,9999,9999,2673619040
99,24,14,Improv_Melody,48,9999,9999,9999,2674118740
99,24,14,Improv_Melody,49,9999,9999,9999,2674618452
99,24,14,Improv_Melody,50,9999,9999,9999,2675118152
99,24,14,Improv_Melody,51,9999,9999,9999,2675618900
99,24,14,Improv_Melody,52,9999,9999,9999,2676118600
99,24,14,Improv_Melody,53,9999,9999,9999,2676618300
99,24,14,Improv_Melody,54,9999,9999,9999,2677119048
99,24,14,Improv_Melody,55,9999,9999,9999,2677618752
99,24,14,Improv_Melody,56,9999,9999,9999,2678118452
99,24,14,Improv_Melody,57,9999,9999,9999,2678618188
99,24,14,Improv_Melody,58,9999,9999,9999,2679118928
99,24,14,Improv_Melody,59,9999,9999,9999,2679618632
99,24,14,Improv_Melody,60,9999,9999,9999,2680118356
99,24,14,Improv_Melody,61,9999,9999,9999,2680619096
99,24,14,Improv_Melody,62,9999,9999,9999,2681118800
99,24,14,Improv_Melody,63,9999,9999,9999,2681618552
99,24,14,Improv_Melody,64,9999,9999,9999,2682118200
99,24,14,Improv_Melody,65,9999,9999,9999,2682618956
99,24,14,Improv_Melody,66,9999,9999,9999,2683118656
99,24,14,Improv_Melody,67,9999,9999,9999,2683618364
99,24,14,Improv_Melody,68,9999,9999,9999,2684118084
99,24,14,Improv_Melody,69,9999,9999,9999,2684618824
99,24,14,Improv_Melody,70,9999,9999,9999,2685118524
99,24,14,Improv_Melody,71,9999,9999,9999,2685618232
99,24,14,Improv_Melody,72,9999,9999,9999,2686119000
99,24,14,Improv_Melody,73,9999,9999,9999,2686618684
99,24,14,Improv_Melody,74,9999,9999,9999,2687118440
99,24,14,Improv_Melody,75,9999,9999,9999,2687618148
99,24,14,Improv_Melody,76,9999,9999,9999,2688118840
99,24,14,Improv_Melody,77,9999,9999,9999,2688618584
99,24,14,Improv_Melody,78,9999,9999,9999,2689118264
99,24,14,Improv_Melody,79,9999,9999,9999,2689619016
99,24,14,Improv_Melody,80,9999,9999,9999,2690118740
99,24,14,Improv_Melody,81,9999,9999,9999,2690618428
99,24,14,Improv_Melody,82,9999,9999,9999,2691118184
99,24,14,Improv_Melody,83,9999,9999,9999,2691618932
99,24,14,Improv_Melody,84,9999,9999,9999,2692118628
99,24,14,Improv_Melody,85,9999,9999,9999,2692618308
99,24,14,Improv_Melody,86,9999,9999,9999,2693119032
99,24,14,Improv_Melody,87,9999,9999,9999,2693618804
99,24,14,Improv_Melody,88,9999,9999,9999,2694118520
99,24,14,Improv_Melody,89,9999,9999,9999,2694618232
99,24,14,Improv_Melody,90,9999,9999,9999,2695118904
99,24,14,Improv_Melody,91,9999,9999,9999,2695618612
99,24,14,Improv_Melody,92,9999,9999,9999,2696118332
99,24,14,Improv_Melody,93,9999,9999,9999,2696619076
99,24,14,Improv_Melody,94,9999,9999,9999,2697118832
99,24,14,Improv_Melody,95,9999,9999,9999,2697618508
99,24,14,Improv_Melody,96,9999,9999,9999,2698118232
99,24,14,Improv_Melody,97,9999,9999,9999,2698618964
99,24,14,Improv_Melody,98,9999,9999,9999,2699118648
99,24,14,Improv_Melody,99,9999,9999,9999,2699618404
99,24,14,Improv_Melody,100,9999,9999,9999,2700118124
99,24,14,Improv_Melody,101,9999,9999,9999,2700618864
99,24,14,Improv_Melody,102,9999,9999,9999,2701118564
99,24,14,Improv_Melody,103,9999,9999,9999,2701618272
99,24,14,Improv_Melody,104,9999,9999,9999,2702119032
99,24,14,Improv_Melody,105,9999,9999,9999,2702618700
99,24,14,Improv_Melody,106,9999,9999,9999,2703118432
99,24,14,Improv_Melody,107,9999,9999,9999,2703618132
99,24,14,Improv_Melody,108,9999,9999,9999,2704118892
99,24,14,Improv_Melody,109,9999,9999,9999,2704618592
99,24,14,Improv_Melody,110,9999,9999,9999,2705118296
99,24,14,Improv_Melody,111,9999,9999,9999,2705619048
99,24,14,Improv_Melody,112,9999,9999,9999,2706118768
99,24,14,Improv_Melody,113,9999,9999,9999,2706618464
99,24,14,Improv_Melody,114,9999,9999,9999,2707118152
99,24,14,Improv_Melody,115,9999,9999,9999,2707618896
99,24,14,Improv_Melody,116,9999,9999,9999,2708118612
99,24,14,Improv_Melody,117,9999,9999,9999,2708618312
99,24,14,Improv_Melody,118,9999,9999,9999,2709119060
99,24,14,Improv_Melody,119,9999,9999,9999,2709618764
99,24,14,Improv_Melody,120,9999,9999,9999,2710118480
99,24,14,Improv_Melody,121,9999,9999,9999,2710618172
99,24,14,Improv_Melody,122,9999,9999,9999,2711118896
99,24,14,Improv_Melody,123,9999,9999,9999,2711618680
99,24,14,Improv_Melody,124,9999,9999,9999,2712118328
99,24,14,Improv_Melody,125,9999,9999,9999,2712619068
99,24,14,Improv_Melody,126,9999,9999,9999,2713118768
99,24,14,Improv_Melody,127,9999,9999,9999,2713618524
99,24,14,Improv_Melody,128,9999,9999,9999,2714118220
99,24,14,Improv_Melody,129,9999,9999,9999,2714618964
99,24,14,Improv_Melody,130,9999,9999,9999,2715118644
99,24,14,Improv_Melody,131,9999,9999,9999,2715618424
99,24,14,Improv_Melody,132,9999,9999,9999,2716118064
99,24,14,Improv_Melody,133,9999,9999,9999,2716618812
99,24,14,Improv_Melody,134,9999,9999,9999,2717118512
99,24,14,Improv_Melody,135,9999,9999,9999,2717618292
99,24,14,Improv_Melody,136,9999,9999,9999,2718118988
99,24,14,Improv_Melody,137,9999,9999,9999,2718618720
99,24,14,Improv_Melody,138,9999,9999,9999,2719118400
99,24,14,Improv_Melody,139,9999,9999,9999,2719618108
99,24,14,Improv_Melody,140,9999,9999,9999,2720118872
99,24,14,Improv_Melody,141,9999,9999,9999,2720618568
99,24,14,Improv_Melody,142,9999,9999,9999,2721118268
99,24,14,Improv_Melody,143,9999,9999,9999,2721619020
99,24,14,Improv_Melody,144,9999,9999,9999,2722118744
99,24,14,Improv_Melody,145,9999,9999,9999,2722618440
99,24,14,Improv_Melody,146,9999,9999,9999,2723118192
99,24,14,Improv_Melody,147,9999,9999,9999,2723618868
99,24,14,Improv_Melody,148,9999,9999,9999,2724118592
99,24,14,Improv_Melody,149,9999,9999,9999,2724618332
99,24,14,Improv_Melody,150,9999,9999,9999,2725119080
99,24,14,Improv_Melody,151,9999,9999,9999,2725618784
99,24,14,Improv_Melody,152,9999,9999,9999,2726118508
99,24,14,Improv_Melody,153,9999,9999,9999,2726618192
99,24,14,Improv_Melody,154,9999,9999,9999,2727118924
99,24,14,Improv_Melody,155,9999,9999,9999,2727618624
99,24,14,Improv_Melody,156,9999,9999,9999,2728118344
99,24,14,Improv_Melody,157,9999,9999,9999,2728619084
99,24,14,Improv_Melody,158,9999,9999,9999,2729118784
99,24,14,Improv_Melody,159,9999,9999,9999,2729618488
99,24,14,Improv_Melody,160,9999,9999,9999,2730118212
99,24,14,Improv_Melody,161,9999,9999,9999,2730618952
