pid,taskRunCount,taskID,taskName,i,channel,pitch,velocity,microseconds
106,1,1,Ticks_Pract_5,0,5,42,127,140765680
106,1,1,Ticks_Pract_5,1,5,42,127,141266368
106,1,1,Ticks_Pract_5,2,5,42,127,141765936
106,1,1,Ticks_Pract_5,3,5,42,127,142265876
106,1,1,Ticks_Pract_5,4,5,42,127,142765372
106,1,1,Ticks_Pract_5,5,5,42,127,143266056
106,1,1,Ticks_Pract_5,6,5,42,127,143765848
106,1,1,Ticks_Pract_5,7,5,42,127,144265788
106,1,1,Ticks_Pract_5,8,5,42,127,144766400
106,1,1,Ticks_Pract_5,9,1,48,17,144797800
106,1,1,Ticks_Pract_5,10,5,42,127,145265948
106,1,1,Ticks_Pract_5,11,1,48,43,145284252
106,1,1,Ticks_Pract_5,12,5,42,127,145765868
106,1,1,Ticks_Pract_5,13,1,48,36,145797712
106,1,1,Ticks_Pract_5,14,5,42,127,146265708
106,1,1,Ticks_Pract_5,15,1,48,30,146290596
106,1,1,Ticks_Pract_5,16,5,42,127,146766080
106,1,1,Ticks_Pract_5,17,1,48,34,146781912
106,1,1,Ticks_Pract_5,18,5,42,127,147265996
106,1,1,Ticks_Pract_5,19,1,48,29,147305692
106,1,1,Ticks_Pract_5,20,5,42,127,147765764
106,1,1,Ticks_Pract_5,21,1,48,27,147790652
106,1,1,Ticks_Pract_5,22,5,42,127,148266432
106,1,1,Ticks_Pract_5,23,1,48,25,148309496
106,1,1,Ticks_Pract_5,24,5,42,127,148766052
106,1,1,Ticks_Pract_5,25,1,48,33,148797600
106,1,1,Ticks_Pract_5,26,5,42,127,149265724
106,1,1,Ticks_Pract_5,27,1,48,38,149301556
106,1,1,Ticks_Pract_5,28,5,42,127,149765792
106,1,1,Ticks_Pract_5,29,1,48,25,149794968
106,1,1,Ticks_Pract_5,30,5,42,127,150266088
106,1,1,Ticks_Pract_5,31,1,48,40,150276008
106,1,1,Ticks_Pract_5,32,5,42,127,150765856
106,1,1,Ticks_Pract_5,33,1,48,32,150786852
106,1,1,Ticks_Pract_5,34,5,42,127,151265696
106,1,1,Ticks_Pract_5,35,1,48,39,151303972
106,1,1,Ticks_Pract_5,36,5,42,127,151766444
106,1,1,Ticks_Pract_5,37,1,48,22,151804864
106,1,1,Ticks_Pract_5,38,5,42,127,152266136
106,1,1,Ticks_Pract_5,39,1,48,37,152278308
106,1,1,Ticks_Pract_5,40,5,42,127,152765756
106,1,1,Ticks_Pract_5,41,1,48,24,152774408
106,1,1,Ticks_Pract_5,42,1,48,35,153264620
106,1,1,Ticks_Pract_5,43,5,42,127,153266192
106,1,1,Ticks_Pract_5,44,1,48,41,153752388
106,1,1,Ticks_Pract_5,45,5,42,127,153766108
106,1,1,Ticks_Pract_5,46,5,42,127,154265884
106,1,1,Ticks_Pract_5,47,1,48,24,154278132
106,1,1,Ticks_Pract_5,48,5,42,127,154765656
106,1,1,Ticks_Pract_5,49,1,48,32,154771244
106,1,1,Ticks_Pract_5,50,5,42,127,155266548
106,1,1,Ticks_Pract_5,51,1,48,26,155292180
106,1,1,Ticks_Pract_5,52,5,42,127,155766092
106,1,1,Ticks_Pract_5,53,1,48,43,155779464
106,1,1,Ticks_Pract_5,54,1,48,27,156259916
106,1,1,Ticks_Pract_5,55,5,42,127,156265708
106,1,1,Ticks_Pract_5,56,5,42,127,156765632
106,1,1,Ticks_Pract_5,57,1,48,30,156783336
106,1,1,Ticks_Pract_5,58,5,42,127,157266224
106,1,1,Ticks_Pract_5,59,1,48,39,157268092
106,1,1,Ticks_Pract_5,60,5,42,127,157766068
106,1,1,Ticks_Pract_5,61,1,48,28,157780556
106,1,1,Ticks_Pract_5,62,5,42,127,158265688
106,1,1,Ticks_Pract_5,63,1,48,32,158298876
106,1,1,Ticks_Pract_5,64,5,42,127,158765532
106,1,1,Ticks_Pract_5,65,1,48,27,158802904
106,1,1,Ticks_Pract_5,66,1,48,27,159263928
106,1,1,Ticks_Pract_5,67,5,42,127,159266116
106,1,1,Ticks_Pract_5,68,5,42,127,159765792
106,1,1,Ticks_Pract_5,69,1,48,36,160238620
106,1,1,Ticks_Pract_5,70,5,42,127,160265428
106,1,1,Ticks_Pract_5,0,9999,9999,9999,140763244
106,1,1,Ticks_Pract_5,1,9999,9999,9999,141263936
106,1,1,Ticks_Pract_5,2,9999,9999,9999,141763652
106,1,1,Ticks_Pract_5,3,9999,9999,9999,142263368
106,1,1,Ticks_Pract_5,4,9999,9999,9999,142763084
106,1,1,Ticks_Pract_5,5,9999,9999,9999,143263844
106,1,1,Ticks_Pract_5,6,9999,9999,9999,143763564
106,1,1,Ticks_Pract_5,7,9999,9999,9999,144263280
106,1,1,Ticks_Pract_5,8,9999,9999,9999,144763968
106,1,1,Ticks_Pract_5,9,9999,9999,9999,145263736
106,1,1,Ticks_Pract_5,10,9999,9999,9999,145763432
106,1,1,Ticks_Pract_5,11,9999,9999,9999,146263128
106,1,1,Ticks_Pract_5,12,9999,9999,9999,146763868
106,1,1,Ticks_Pract_5,13,9999,9999,9999,147263560
106,1,1,Ticks_Pract_5,14,9999,9999,9999,147763256
106,1,1,Ticks_Pract_5,15,9999,9999,9999,148264000
106,1,1,Ticks_Pract_5,16,9999,9999,9999,148763768
106,1,1,Ticks_Pract_5,17,9999,9999,9999,149263436
106,1,1,Ticks_Pract_5,18,9999,9999,9999,149763132
106,1,1,Ticks_Pract_5,19,9999,9999,9999,150263876
106,1,1,Ticks_Pract_5,20,9999,9999,9999,150763568
106,1,1,Ticks_Pract_5,21,9999,9999,9999,151263336
106,1,1,Ticks_Pract_5,22,9999,9999,9999,151764080
106,1,1,Ticks_Pract_5,23,9999,9999,9999,152263776
106,1,1,Ticks_Pract_5,24,9999,9999,9999,152763468
106,1,1,Ticks_Pract_5,25,9999,9999,9999,153263164
106,1,1,Ticks_Pract_5,26,9999,9999,9999,153763896
106,1,1,Ticks_Pract_5,27,9999,9999,9999,154263672
106,1,1,Ticks_Pract_5,28,9999,9999,9999,154763368
106,1,1,Ticks_Pract_5,29,9999,9999,9999,155264108
106,1,1,Ticks_Pract_5,30,9999,9999,9999,155763804
106,1,1,Ticks_Pract_5,31,9999,9999,9999,156263496
106,1,1,Ticks_Pract_5,32,9999,9999,9999,156763196
106,1,1,Ticks_Pract_5,33,9999,9999,9999,157263936
106,1,1,Ticks_Pract_5,34,9999,9999,9999,157763632
106,1,1,Ticks_Pract_5,35,9999,9999,9999,158263400
106,1,1,Ticks_Pract_5,36,9999,9999,9999,158763096
106,1,1,Ticks_Pract_5,37,9999,9999,9999,159263792
106,1,1,Ticks_Pract_5,38,9999,9999,9999,159763504
106,1,1,Ticks_Pract_5,39,9999,9999,9999,160263216
106,2,0,Ticks_Pract_8,0,5,42,127,190391552
106,2,0,Ticks_Pract_8,1,5,42,127,191192500
106,2,0,Ticks_Pract_8,2,5,42,127,191992256
106,2,0,Ticks_Pract_8,3,5,42,127,192792012
106,2,0,Ticks_Pract_8,4,5,42,127,193591544
106,2,0,Ticks_Pract_8,5,5,42,127,194392500
106,2,0,Ticks_Pract_8,6,5,42,127,195192180
106,2,0,Ticks_Pract_8,7,5,42,127,195992008
106,2,0,Ticks_Pract_8,8,1,48,44,196763900
106,2,0,Ticks_Pract_8,9,5,42,127,196791684
106,2,0,Ticks_Pract_8,10,1,48,34,196809152
106,2,0,Ticks_Pract_8,11,5,42,127,197592524
106,2,0,Ticks_Pract_8,12,1,48,38,197624288
106,2,0,Ticks_Pract_8,13,5,42,127,198392256
106,2,0,Ticks_Pract_8,14,1,48,49,198450900
106,2,0,Ticks_Pract_8,15,5,42,127,199191988
106,2,0,Ticks_Pract_8,16,1,48,49,199268788
106,2,0,Ticks_Pract_8,17,5,42,127,199991572
106,2,0,Ticks_Pract_8,18,1,48,38,200059168
106,2,0,Ticks_Pract_8,19,5,42,127,200792280
106,2,0,Ticks_Pract_8,20,1,48,43,200854788
106,2,0,Ticks_Pract_8,21,5,42,127,201592160
106,2,0,Ticks_Pract_8,22,1,48,34,201611664
106,2,0,Ticks_Pract_8,23,5,42,127,202392120
106,2,0,Ticks_Pract_8,24,1,48,30,202414760
106,2,0,Ticks_Pract_8,25,1,48,36,203169828
106,2,0,Ticks_Pract_8,26,5,42,127,203191700
106,2,0,Ticks_Pract_8,27,5,42,127,203992412
106,2,0,Ticks_Pract_8,28,1,48,25,204026052
106,2,0,Ticks_Pract_8,29,5,42,127,204792224
106,2,0,Ticks_Pract_8,30,5,42,127,205592372
106,2,0,Ticks_Pract_8,31,1,38,43,206298272
106,2,0,Ticks_Pract_8,32,5,42,127,206391528
106,2,0,Ticks_Pract_8,33,1,38,37,207155916
106,2,0,Ticks_Pract_8,34,5,42,127,207192380
106,2,0,Ticks_Pract_8,35,1,38,21,207973004
106,2,0,Ticks_Pract_8,36,5,42,127,207992188
106,2,0,Ticks_Pract_8,37,5,42,127,208792080
106,2,0,Ticks_Pract_8,38,5,42,127,209591832
106,2,0,Ticks_Pract_8,39,5,42,127,210392336
106,2,0,Ticks_Pract_8,40,5,42,127,211192240
106,2,0,Ticks_Pract_8,41,5,42,127,211992020
106,2,0,Ticks_Pract_8,42,5,42,127,212791852
106,2,0,Ticks_Pract_8,43,5,42,127,213592356
106,2,0,Ticks_Pract_8,0,9999,9999,9999,190389336
106,2,0,Ticks_Pract_8,1,9999,9999,9999,191190064
106,2,0,Ticks_Pract_8,2,9999,9999,9999,191989820
106,2,0,Ticks_Pract_8,3,9999,9999,9999,192789576
106,2,0,Ticks_Pract_8,4,9999,9999,9999,193589332
106,2,0,Ticks_Pract_8,5,9999,9999,9999,194390136
106,2,0,Ticks_Pract_8,6,9999,9999,9999,195189816
106,2,0,Ticks_Pract_8,7,9999,9999,9999,195989572
106,2,0,Ticks_Pract_8,8,9999,9999,9999,196789324
106,2,0,Ticks_Pract_8,9,9999,9999,9999,197590084
106,2,0,Ticks_Pract_8,10,9999,9999,9999,198389820
106,2,0,Ticks_Pract_8,11,9999,9999,9999,199189552
106,2,0,Ticks_Pract_8,12,9999,9999,9999,199989360
106,2,0,Ticks_Pract_8,13,9999,9999,9999,200790068
106,2,0,Ticks_Pract_8,14,9999,9999,9999,201589872
106,2,0,Ticks_Pract_8,15,9999,9999,9999,202389608
106,2,0,Ticks_Pract_8,16,9999,9999,9999,203189336
106,2,0,Ticks_Pract_8,17,9999,9999,9999,203990124
106,2,0,Ticks_Pract_8,18,9999,9999,9999,204789860
106,2,0,Ticks_Pract_8,19,9999,9999,9999,205589612
106,2,0,Ticks_Pract_8,20,9999,9999,9999,206389312
106,2,0,Ticks_Pract_8,21,9999,9999,9999,207190092
106,2,0,Ticks_Pract_8,22,9999,9999,9999,207989828
106,2,0,Ticks_Pract_8,23,9999,9999,9999,208789568
106,2,0,Ticks_Pract_8,24,9999,9999,9999,209589320
106,2,0,Ticks_Pract_8,25,9999,9999,9999,210390124
106,2,0,Ticks_Pract_8,26,9999,9999,9999,211189876
106,2,0,Ticks_Pract_8,27,9999,9999,9999,211989560
106,2,0,Ticks_Pract_8,28,9999,9999,9999,212789340
106,2,0,Ticks_Pract_8,29,9999,9999,9999,213590068
106,3,4,T1_SMS_5,0,5,42,127,360113488
106,3,4,T1_SMS_5,1,5,42,127,360614400
106,3,4,T1_SMS_5,2,5,42,127,361114192
106,3,4,T1_SMS_5,3,5,42,127,361613536
106,3,4,T1_SMS_5,4,1,48,47,362099672
106,3,4,T1_SMS_5,5,5,42,127,362114440
106,3,4,T1_SMS_5,6,1,48,60,362589424
106,3,4,T1_SMS_5,7,5,42,127,362614360
106,3,4,T1_SMS_5,8,1,48,50,363094056
106,3,4,T1_SMS_5,9,5,42,127,363113684
106,3,4,T1_SMS_5,10,1,48,54,363590084
106,3,4,T1_SMS_5,11,5,42,127,363613528
106,3,4,T1_SMS_5,12,1,48,51,364113144
106,3,4,T1_SMS_5,13,5,42,127,364114716
106,3,4,T1_SMS_5,14,5,42,127,364614196
106,3,4,T1_SMS_5,15,1,48,47,364621728
106,3,4,T1_SMS_5,16,5,42,127,365113592
106,3,4,T1_SMS_5,17,1,48,54,365117088
106,3,4,T1_SMS_5,18,1,48,49,365612760
106,3,4,T1_SMS_5,19,5,42,127,365614328
106,3,4,T1_SMS_5,20,1,48,57,366103140
106,3,4,T1_SMS_5,21,5,42,127,366114172
106,3,4,T1_SMS_5,22,5,42,127,366614024
106,3,4,T1_SMS_5,23,1,48,55,366632252
106,3,4,T1_SMS_5,24,5,42,127,367113544
106,3,4,T1_SMS_5,25,1,48,51,367116664
106,3,4,T1_SMS_5,26,5,42,127,367614360
106,3,4,T1_SMS_5,27,1,48,54,367630268
106,3,4,T1_SMS_5,28,5,42,127,368114204
106,3,4,T1_SMS_5,29,1,48,52,368120244
106,3,4,T1_SMS_5,30,5,42,127,368613604
106,3,4,T1_SMS_5,31,1,48,63,368619340
106,3,4,T1_SMS_5,32,5,42,127,369113520
106,3,4,T1_SMS_5,33,1,48,55,369125092
106,3,4,T1_SMS_5,34,5,42,127,369614040
106,3,4,T1_SMS_5,35,1,48,56,369628152
106,3,4,T1_SMS_5,36,5,42,127,370113956
106,3,4,T1_SMS_5,37,1,48,63,370119544
106,3,4,T1_SMS_5,38,5,42,127,370613652
106,3,4,T1_SMS_5,39,1,48,52,370654168
106,3,4,T1_SMS_5,40,5,42,127,371114244
106,3,4,T1_SMS_5,41,1,48,56,371153116
106,3,4,T1_SMS_5,42,5,42,127,371614160
106,3,4,T1_SMS_5,43,1,48,53,371655572
106,3,4,T1_SMS_5,44,1,48,52,372111048
106,3,4,T1_SMS_5,45,5,42,127,372113776
106,3,4,T1_SMS_5,46,5,42,127,372613624
106,3,4,T1_SMS_5,47,1,48,56,372634172
106,3,4,T1_SMS_5,48,5,42,127,373114220
106,3,4,T1_SMS_5,49,1,48,56,373152416
106,3,4,T1_SMS_5,50,5,42,127,373613912
106,3,4,T1_SMS_5,51,1,48,55,373622796
106,3,4,T1_SMS_5,52,1,48,54,374112168
106,3,4,T1_SMS_5,53,5,42,127,374113604
106,3,4,T1_SMS_5,54,5,42,127,374614428
106,3,4,T1_SMS_5,55,1,48,52,374627648
106,3,4,T1_SMS_5,56,5,42,127,375114120
106,3,4,T1_SMS_5,57,1,48,49,375130408
106,3,4,T1_SMS_5,58,5,42,127,375613744
106,3,4,T1_SMS_5,59,1,48,51,375616792
106,3,4,T1_SMS_5,60,1,48,48,376111160
106,3,4,T1_SMS_5,61,5,42,127,376113584
106,3,4,T1_SMS_5,62,1,48,50,376609428
106,3,4,T1_SMS_5,63,5,42,127,376614324
106,3,4,T1_SMS_5,64,5,42,127,377114100
106,3,4,T1_SMS_5,65,1,48,52,377119844
106,3,4,T1_SMS_5,66,5,42,127,377613772
106,3,4,T1_SMS_5,67,1,48,52,377622004
106,3,4,T1_SMS_5,68,1,48,51,378112472
106,3,4,T1_SMS_5,69,5,42,127,378114356
106,3,4,T1_SMS_5,70,1,48,46,378605188
106,3,4,T1_SMS_5,71,5,42,127,378613976
106,3,4,T1_SMS_5,72,5,42,127,379113828
106,3,4,T1_SMS_5,73,1,48,51,379122708
106,3,4,T1_SMS_5,74,5,42,127,379613672
106,3,4,T1_SMS_5,75,1,48,51,379633172
106,3,4,T1_SMS_5,76,5,42,127,380114336
106,3,4,T1_SMS_5,77,1,48,52,380117012
106,3,4,T1_SMS_5,78,5,42,127,380614108
106,3,4,T1_SMS_5,79,1,48,53,380629940
106,3,4,T1_SMS_5,80,5,42,127,381113876
106,3,4,T1_SMS_5,81,1,48,53,381118120
106,3,4,T1_SMS_5,82,5,42,127,381613424
106,3,4,T1_SMS_5,83,1,48,54,381623576
106,3,4,T1_SMS_5,84,5,42,127,382114016
106,3,4,T1_SMS_5,85,1,48,53,382118704
106,3,4,T1_SMS_5,86,5,42,127,382613784
106,3,4,T1_SMS_5,87,1,48,54,382619972
106,3,4,T1_SMS_5,88,1,48,51,383104388
106,3,4,T1_SMS_5,89,5,42,127,383113696
106,3,4,T1_SMS_5,90,5,42,127,383614372
106,3,4,T1_SMS_5,91,1,48,55,383616012
106,3,4,T1_SMS_5,92,1,48,52,384113240
106,3,4,T1_SMS_5,93,5,42,127,384114884
106,3,4,T1_SMS_5,94,5,42,127,384613836
106,3,4,T1_SMS_5,95,1,48,52,384624060
106,3,4,T1_SMS_5,96,1,48,50,385093820
106,3,4,T1_SMS_5,97,5,42,127,385113376
106,3,4,T1_SMS_5,98,1,48,52,385614272
106,3,4,T1_SMS_5,99,5,42,127,385615756
106,3,4,T1_SMS_5,100,5,42,127,386113968
106,3,4,T1_SMS_5,101,1,48,52,386142296
106,3,4,T1_SMS_5,102,5,42,127,386613588
106,3,4,T1_SMS_5,103,1,48,50,386629348
106,3,4,T1_SMS_5,104,5,42,127,387114404
106,3,4,T1_SMS_5,105,1,48,47,387138244
106,3,4,T1_SMS_5,106,1,48,42,387603432
106,3,4,T1_SMS_5,107,5,42,127,387613944
106,3,4,T1_SMS_5,108,1,48,47,388110736
106,3,4,T1_SMS_5,109,5,42,127,388113936
106,3,4,T1_SMS_5,110,5,42,127,388613612
106,3,4,T1_SMS_5,111,1,48,51,388614652
106,3,4,T1_SMS_5,112,5,42,127,389114356
106,3,4,T1_SMS_5,113,1,48,53,389119424
106,3,4,T1_SMS_5,114,5,42,127,389614124
106,3,4,T1_SMS_5,115,1,48,55,389634228
106,3,4,T1_SMS_5,116,5,42,127,390113748
106,3,4,T1_SMS_5,117,1,48,52,390119260
106,3,4,T1_SMS_5,118,5,42,127,390614416
106,3,4,T1_SMS_5,119,1,48,40,390631448
106,3,4,T1_SMS_5,120,5,42,127,391113960
106,3,4,T1_SMS_5,121,1,48,50,391124036
106,3,4,T1_SMS_5,122,5,42,127,391613728
106,3,4,T1_SMS_5,123,1,48,45,391631136
106,3,4,T1_SMS_5,124,1,48,46,392103732
106,3,4,T1_SMS_5,125,5,42,127,392113640
106,3,4,T1_SMS_5,126,1,48,53,392611728
106,3,4,T1_SMS_5,127,5,42,127,392614380
106,3,4,T1_SMS_5,128,5,42,127,393114008
106,3,4,T1_SMS_5,129,1,48,50,393123040
106,3,4,T1_SMS_5,130,5,42,127,393613704
106,3,4,T1_SMS_5,131,1,48,48,393620412
106,3,4,T1_SMS_5,132,5,42,127,394114296
106,3,4,T1_SMS_5,133,1,48,51,394118464
106,3,4,T1_SMS_5,134,5,42,127,394614068
106,3,4,T1_SMS_5,135,1,48,53,394632968
106,3,4,T1_SMS_5,136,5,42,127,395113908
106,3,4,T1_SMS_5,137,1,48,54,395134828
106,3,4,T1_SMS_5,138,5,42,127,395613752
106,3,4,T1_SMS_5,139,1,48,54,395642824
106,3,4,T1_SMS_5,140,5,42,127,396114348
106,3,4,T1_SMS_5,141,1,48,50,396152396
106,3,4,T1_SMS_5,142,5,42,127,396614040
106,3,4,T1_SMS_5,143,1,48,54,396638556
106,3,4,T1_SMS_5,144,5,42,127,397113960
106,3,4,T1_SMS_5,145,1,48,66,397136004
106,3,4,T1_SMS_5,146,1,48,56,397587136
106,3,4,T1_SMS_5,147,5,42,127,397613352
106,3,4,T1_SMS_5,148,5,42,127,398114096
106,3,4,T1_SMS_5,149,1,48,50,398141604
106,3,4,T1_SMS_5,150,5,42,127,398614016
106,3,4,T1_SMS_5,151,1,48,50,398663812
106,3,4,T1_SMS_5,152,5,42,127,399113760
106,3,4,T1_SMS_5,153,1,48,55,399127304
106,3,4,T1_SMS_5,154,5,42,127,399614352
106,3,4,T1_SMS_5,155,1,48,56,399626144
106,3,4,T1_SMS_5,156,5,42,127,400113976
106,3,4,T1_SMS_5,157,1,48,53,400131976
106,3,4,T1_SMS_5,158,1,48,52,400595824
106,3,4,T1_SMS_5,159,5,42,127,400613884
106,3,4,T1_SMS_5,160,1,48,56,401083408
106,3,4,T1_SMS_5,161,5,42,127,401113432
106,3,4,T1_SMS_5,162,5,42,127,401614180
106,3,4,T1_SMS_5,163,1,48,41,401620964
106,3,4,T1_SMS_5,164,5,42,127,402113952
106,3,4,T1_SMS_5,165,1,48,54,402117000
106,3,4,T1_SMS_5,166,1,48,62,402586300
106,3,4,T1_SMS_5,167,5,42,127,402613860
106,3,4,T1_SMS_5,168,1,48,58,403103800
106,3,4,T1_SMS_5,169,5,42,127,403114380
106,3,4,T1_SMS_5,170,5,42,127,403614008
106,3,4,T1_SMS_5,171,1,48,51,403625652
106,3,4,T1_SMS_5,172,5,42,127,404113852
106,3,4,T1_SMS_5,173,1,48,55,404146220
106,3,4,T1_SMS_5,174,5,42,127,404613696
106,3,4,T1_SMS_5,175,1,48,48,404639928
106,3,4,T1_SMS_5,176,5,42,127,405114436
106,3,4,T1_SMS_5,177,1,48,56,405119724
106,3,4,T1_SMS_5,178,5,42,127,405613908
106,3,4,T1_SMS_5,179,1,48,57,405623012
106,3,4,T1_SMS_5,180,5,42,127,406113824
106,3,4,T1_SMS_5,181,1,48,59,406132500
106,3,4,T1_SMS_5,182,5,42,127,406614344
106,3,4,T1_SMS_5,183,1,48,50,406622920
106,3,4,T1_SMS_5,184,5,42,127,407114112
106,3,4,T1_SMS_5,185,1,48,50,407119400
106,3,4,T1_SMS_5,186,5,42,127,407613880
106,3,4,T1_SMS_5,187,1,48,59,407615820
106,3,4,T1_SMS_5,188,5,42,127,408113800
106,3,4,T1_SMS_5,189,1,48,59,408125296
106,3,4,T1_SMS_5,190,5,42,127,408614168
106,3,4,T1_SMS_5,191,1,48,61,408627760
106,3,4,T1_SMS_5,192,5,42,127,409113864
106,3,4,T1_SMS_5,193,1,48,60,409116688
106,3,4,T1_SMS_5,194,5,42,127,409613612
106,3,4,T1_SMS_5,195,1,48,65,409616980
106,3,4,T1_SMS_5,196,1,48,59,410109672
106,3,4,T1_SMS_5,197,5,42,127,410114492
106,3,4,T1_SMS_5,198,5,42,127,410614120
106,3,4,T1_SMS_5,199,1,48,62,410626368
106,3,4,T1_SMS_5,200,1,48,57,411113816
106,3,4,T1_SMS_5,201,5,42,127,411115152
106,3,4,T1_SMS_5,202,1,48,55,411602400
106,3,4,T1_SMS_5,203,5,42,127,411613652
106,3,4,T1_SMS_5,204,5,42,127,412114476
106,3,4,T1_SMS_5,205,1,48,58,412121188
106,3,4,T1_SMS_5,206,5,42,127,412613872
106,3,4,T1_SMS_5,207,1,48,54,412615808
106,3,4,T1_SMS_5,208,1,48,56,413102752
106,3,4,T1_SMS_5,209,5,42,127,413113560
106,3,4,T1_SMS_5,210,1,48,59,413606560
106,3,4,T1_SMS_5,211,5,42,127,413613552
106,3,4,T1_SMS_5,212,5,42,127,414114300
106,3,4,T1_SMS_5,213,1,48,57,414122732
106,3,4,T1_SMS_5,214,1,48,62,414610668
106,3,4,T1_SMS_5,215,5,42,127,414613840
106,3,4,T1_SMS_5,216,1,48,51,415110588
106,3,4,T1_SMS_5,217,5,42,127,415113760
106,3,4,T1_SMS_5,218,1,48,52,415593224
106,3,4,T1_SMS_5,219,5,42,127,415614352
106,3,4,T1_SMS_5,220,5,42,127,416113904
106,3,4,T1_SMS_5,221,1,48,60,416118444
106,3,4,T1_SMS_5,222,5,42,127,416613824
106,3,4,T1_SMS_5,223,1,48,60,416630860
106,3,4,T1_SMS_5,224,5,42,127,417113592
106,3,4,T1_SMS_5,225,1,48,57,417116268
106,3,4,T1_SMS_5,226,5,42,127,417614260
106,3,4,T1_SMS_5,227,1,48,53,417615820
106,3,4,T1_SMS_5,228,5,42,127,418113804
106,3,4,T1_SMS_5,229,1,48,56,418139144
106,3,4,T1_SMS_5,230,5,42,127,418613500
106,3,4,T1_SMS_5,231,1,48,51,418640036
106,3,4,T1_SMS_5,232,5,42,127,419114540
106,3,4,T1_SMS_5,233,1,48,55,419116988
106,3,4,T1_SMS_5,234,5,42,127,419614088
106,3,4,T1_SMS_5,235,1,48,57,419615500
106,3,4,T1_SMS_5,236,5,42,127,420113708
106,3,4,T1_SMS_5,237,1,48,45,420138520
106,3,4,T1_SMS_5,238,1,48,51,420602564
106,3,4,T1_SMS_5,239,5,42,127,420613596
106,3,4,T1_SMS_5,240,1,48,42,421094932
106,3,4,T1_SMS_5,241,5,42,127,421114116
106,3,4,T1_SMS_5,242,1,48,50,421609140
106,3,4,T1_SMS_5,243,5,42,127,421613888
106,3,4,T1_SMS_5,244,5,42,127,422113588
106,3,4,T1_SMS_5,245,1,48,55,422122016
106,3,4,T1_SMS_5,246,1,48,50,422586236
106,3,4,T1_SMS_5,247,5,42,127,422614544
106,3,4,T1_SMS_5,248,1,48,58,423096484
106,3,4,T1_SMS_5,249,5,42,127,423114016
106,3,4,T1_SMS_5,250,1,48,55,423602756
106,3,4,T1_SMS_5,251,5,42,127,423613788
106,3,4,T1_SMS_5,252,5,42,127,424113488
106,3,4,T1_SMS_5,253,1,48,56,424116388
106,3,4,T1_SMS_5,254,5,42,127,424614524
106,3,4,T1_SMS_5,255,1,48,53,424634024
106,3,4,T1_SMS_5,0,9999,9999,9999,360111204
106,3,4,T1_SMS_5,1,9999,9999,9999,360611892
106,3,4,T1_SMS_5,2,9999,9999,9999,361111608
106,3,4,T1_SMS_5,3,9999,9999,9999,361611324
106,3,4,T1_SMS_5,4,9999,9999,9999,362112080
106,3,4,T1_SMS_5,5,9999,9999,9999,362611776
106,3,4,T1_SMS_5,6,9999,9999,9999,363111472
106,3,4,T1_SMS_5,7,9999,9999,9999,363611244
106,3,4,T1_SMS_5,8,9999,9999,9999,364111992
106,3,4,T1_SMS_5,9,9999,9999,9999,364611684
106,3,4,T1_SMS_5,10,9999,9999,9999,365111380
106,3,4,T1_SMS_5,11,9999,9999,9999,365611076
106,3,4,T1_SMS_5,12,9999,9999,9999,366111812
106,3,4,T1_SMS_5,13,9999,9999,9999,366611512
106,3,4,T1_SMS_5,14,9999,9999,9999,367111256
106,3,4,T1_SMS_5,15,9999,9999,9999,367612000
106,3,4,T1_SMS_5,16,9999,9999,9999,368111696
106,3,4,T1_SMS_5,17,9999,9999,9999,368611392
106,3,4,T1_SMS_5,18,9999,9999,9999,369111160
106,3,4,T1_SMS_5,19,9999,9999,9999,369611828
106,3,4,T1_SMS_5,20,9999,9999,9999,370111596
106,3,4,T1_SMS_5,21,9999,9999,9999,370611292
106,3,4,T1_SMS_5,22,9999,9999,9999,371112032
106,3,4,T1_SMS_5,23,9999,9999,9999,371611724
106,3,4,T1_SMS_5,24,9999,9999,9999,372111412
106,3,4,T1_SMS_5,25,9999,9999,9999,372611188
106,3,4,T1_SMS_5,26,9999,9999,9999,373111856
106,3,4,T1_SMS_5,27,9999,9999,9999,373611628
106,3,4,T1_SMS_5,28,9999,9999,9999,374111324
106,3,4,T1_SMS_5,29,9999,9999,9999,374612064
106,3,4,T1_SMS_5,30,9999,9999,9999,375111760
106,3,4,T1_SMS_5,31,9999,9999,9999,375611456
106,3,4,T1_SMS_5,32,9999,9999,9999,376111224
106,3,4,T1_SMS_5,33,9999,9999,9999,376611888
106,3,4,T1_SMS_5,34,9999,9999,9999,377111664
106,3,4,T1_SMS_5,35,9999,9999,9999,377611336
106,3,4,T1_SMS_5,36,9999,9999,9999,378112096
106,3,4,T1_SMS_5,37,9999,9999,9999,378611764
106,3,4,T1_SMS_5,38,9999,9999,9999,379111540
106,3,4,T1_SMS_5,39,9999,9999,9999,379611236
106,3,4,T1_SMS_5,40,9999,9999,9999,380111976
106,3,4,T1_SMS_5,41,9999,9999,9999,380611672
106,3,4,T1_SMS_5,42,9999,9999,9999,381111368
106,3,4,T1_SMS_5,43,9999,9999,9999,381611064
106,3,4,T1_SMS_5,44,9999,9999,9999,382111804
106,3,4,T1_SMS_5,45,9999,9999,9999,382611572
106,3,4,T1_SMS_5,46,9999,9999,9999,383111260
106,3,4,T1_SMS_5,47,9999,9999,9999,383612012
106,3,4,T1_SMS_5,48,9999,9999,9999,384111704
106,3,4,T1_SMS_5,49,9999,9999,9999,384611400
106,3,4,T1_SMS_5,50,9999,9999,9999,385111088
106,3,4,T1_SMS_5,51,9999,9999,9999,385611836
106,3,4,T1_SMS_5,52,9999,9999,9999,386111608
106,3,4,T1_SMS_5,53,9999,9999,9999,386611300
106,3,4,T1_SMS_5,54,9999,9999,9999,387112044
106,3,4,T1_SMS_5,55,9999,9999,9999,387611732
106,3,4,T1_SMS_5,56,9999,9999,9999,388111424
106,3,4,T1_SMS_5,57,9999,9999,9999,388611176
106,3,4,T1_SMS_5,58,9999,9999,9999,389111920
106,3,4,T1_SMS_5,59,9999,9999,9999,389611616
106,3,4,T1_SMS_5,60,9999,9999,9999,390111312
106,3,4,T1_SMS_5,61,9999,9999,9999,390612052
106,3,4,T1_SMS_5,62,9999,9999,9999,391111748
106,3,4,T1_SMS_5,63,9999,9999,9999,391611444
106,3,4,T1_SMS_5,64,9999,9999,9999,392111204
106,3,4,T1_SMS_5,65,9999,9999,9999,392611944
106,3,4,T1_SMS_5,66,9999,9999,9999,393111648
106,3,4,T1_SMS_5,67,9999,9999,9999,393611344
106,3,4,T1_SMS_5,68,9999,9999,9999,394112084
106,3,4,T1_SMS_5,69,9999,9999,9999,394611780
106,3,4,T1_SMS_5,70,9999,9999,9999,395111472
106,3,4,T1_SMS_5,71,9999,9999,9999,395611244
106,3,4,T1_SMS_5,72,9999,9999,9999,396111984
106,3,4,T1_SMS_5,73,9999,9999,9999,396611680
106,3,4,T1_SMS_5,74,9999,9999,9999,397111376
106,3,4,T1_SMS_5,75,9999,9999,9999,397611064
106,3,4,T1_SMS_5,76,9999,9999,9999,398111812
106,3,4,T1_SMS_5,77,9999,9999,9999,398611508
106,3,4,T1_SMS_5,78,9999,9999,9999,399111252
106,3,4,T1_SMS_5,79,9999,9999,9999,399611992
106,3,4,T1_SMS_5,80,9999,9999,9999,400111688
106,3,4,T1_SMS_5,81,9999,9999,9999,400611376
106,3,4,T1_SMS_5,82,9999,9999,9999,401111148
106,3,4,T1_SMS_5,83,9999,9999,9999,401611896
106,3,4,T1_SMS_5,84,9999,9999,9999,402111588
106,3,4,T1_SMS_5,85,9999,9999,9999,402611276
106,3,4,T1_SMS_5,86,9999,9999,9999,403112020
106,3,4,T1_SMS_5,87,9999,9999,9999,403611720
106,3,4,T1_SMS_5,88,9999,9999,9999,404111416
106,3,4,T1_SMS_5,89,9999,9999,9999,404611184
106,3,4,T1_SMS_5,90,9999,9999,9999,405111928
106,3,4,T1_SMS_5,91,9999,9999,9999,405611620
106,3,4,T1_SMS_5,92,9999,9999,9999,406111316
106,3,4,T1_SMS_5,93,9999,9999,9999,406612056
106,3,4,T1_SMS_5,94,9999,9999,9999,407111752
106,3,4,T1_SMS_5,95,9999,9999,9999,407611448
106,3,4,T1_SMS_5,96,9999,9999,9999,408111216
106,3,4,T1_SMS_5,97,9999,9999,9999,408611956
106,3,4,T1_SMS_5,98,9999,9999,9999,409111652
106,3,4,T1_SMS_5,99,9999,9999,9999,409611324
106,3,4,T1_SMS_5,100,9999,9999,9999,410112056
106,3,4,T1_SMS_5,101,9999,9999,9999,410611760
106,3,4,T1_SMS_5,102,9999,9999,9999,411111528
106,3,4,T1_SMS_5,103,9999,9999,9999,411611216
106,3,4,T1_SMS_5,104,9999,9999,9999,412111964
106,3,4,T1_SMS_5,105,9999,9999,9999,412611660
106,3,4,T1_SMS_5,106,9999,9999,9999,413111348
106,3,4,T1_SMS_5,107,9999,9999,9999,413611120
106,3,4,T1_SMS_5,108,9999,9999,9999,414111864
106,3,4,T1_SMS_5,109,9999,9999,9999,414611556
106,3,4,T1_SMS_5,110,9999,9999,9999,415111248
106,3,4,T1_SMS_5,111,9999,9999,9999,415611992
106,3,4,T1_SMS_5,112,9999,9999,9999,416111692
106,3,4,T1_SMS_5,113,9999,9999,9999,416611388
106,3,4,T1_SMS_5,114,9999,9999,9999,417111156
106,3,4,T1_SMS_5,115,9999,9999,9999,417611824
106,3,4,T1_SMS_5,116,9999,9999,9999,418111592
106,3,4,T1_SMS_5,117,9999,9999,9999,418611288
106,3,4,T1_SMS_5,118,9999,9999,9999,419112032
106,3,4,T1_SMS_5,119,9999,9999,9999,419611724
106,3,4,T1_SMS_5,120,9999,9999,9999,420111420
106,3,4,T1_SMS_5,121,9999,9999,9999,420611160
106,3,4,T1_SMS_5,122,9999,9999,9999,421111904
106,3,4,T1_SMS_5,123,9999,9999,9999,421611600
106,3,4,T1_SMS_5,124,9999,9999,9999,422111300
106,3,4,T1_SMS_5,125,9999,9999,9999,422612036
106,3,4,T1_SMS_5,126,9999,9999,9999,423111732
106,3,4,T1_SMS_5,127,9999,9999,9999,423611500
106,3,4,T1_SMS_5,128,9999,9999,9999,424111200
106,3,4,T1_SMS_5,129,9999,9999,9999,424611940
106,4,2,T1_SMS_8,0,5,42,127,487722280
106,4,2,T1_SMS_8,1,5,42,127,488522180
106,4,2,T1_SMS_8,2,5,42,127,489321864
106,4,2,T1_SMS_8,3,5,42,127,490121768
106,4,2,T1_SMS_8,4,5,42,127,490922272
106,4,2,T1_SMS_8,5,1,48,66,490934888
106,4,2,T1_SMS_8,6,5,42,127,491722080
106,4,2,T1_SMS_8,7,1,48,60,491796352
106,4,2,T1_SMS_8,8,5,42,127,492521740
106,4,2,T1_SMS_8,9,1,48,60,492604916
106,4,2,T1_SMS_8,10,5,42,127,493321696
106,4,2,T1_SMS_8,11,1,48,66,493354608
106,4,2,T1_SMS_8,12,5,42,127,494122280
106,4,2,T1_SMS_8,13,1,48,64,494163764
106,4,2,T1_SMS_8,14,5,42,127,494922012
106,4,2,T1_SMS_8,15,1,48,62,494949888
106,4,2,T1_SMS_8,16,5,42,127,495721820
106,4,2,T1_SMS_8,17,1,48,58,495772736
106,4,2,T1_SMS_8,18,5,42,127,496521628
106,4,2,T1_SMS_8,19,1,48,65,496566032
106,4,2,T1_SMS_8,20,5,42,127,497322336
106,4,2,T1_SMS_8,21,1,48,65,497374968
106,4,2,T1_SMS_8,22,5,42,127,498122144
106,4,2,T1_SMS_8,23,1,48,65,498160340
106,4,2,T1_SMS_8,24,5,42,127,498921800
106,4,2,T1_SMS_8,25,1,48,68,498965480
106,4,2,T1_SMS_8,26,5,42,127,499721684
106,4,2,T1_SMS_8,27,1,48,67,499735800
106,4,2,T1_SMS_8,28,5,42,127,500522316
106,4,2,T1_SMS_8,29,1,48,72,500553480
106,4,2,T1_SMS_8,30,5,42,127,501322048
106,4,2,T1_SMS_8,31,1,48,64,501332052
106,4,2,T1_SMS_8,32,5,42,127,502121784
106,4,2,T1_SMS_8,33,1,48,62,502145988
106,4,2,T1_SMS_8,34,5,42,127,502921812
106,4,2,T1_SMS_8,35,1,48,64,502942736
106,4,2,T1_SMS_8,36,5,42,127,503722296
106,4,2,T1_SMS_8,37,1,48,62,503728032
106,4,2,T1_SMS_8,38,5,42,127,504521952
106,4,2,T1_SMS_8,39,1,48,61,504566060
106,4,2,T1_SMS_8,40,5,42,127,505321688
106,4,2,T1_SMS_8,41,1,48,64,505328996
106,4,2,T1_SMS_8,42,5,42,127,506121720
106,4,2,T1_SMS_8,43,1,48,66,506137476
106,4,2,T1_SMS_8,44,1,48,65,506904956
106,4,2,T1_SMS_8,45,5,42,127,506922416
106,4,2,T1_SMS_8,46,5,42,127,507722084
106,4,2,T1_SMS_8,47,1,48,69,507739036
106,4,2,T1_SMS_8,48,5,42,127,508521888
106,4,2,T1_SMS_8,49,1,48,61,508536152
106,4,2,T1_SMS_8,50,5,42,127,509321696
106,4,2,T1_SMS_8,51,1,48,65,509344936
106,4,2,T1_SMS_8,52,5,42,127,510122404
106,4,2,T1_SMS_8,53,1,48,60,510138840
106,4,2,T1_SMS_8,54,5,42,127,510922060
106,4,2,T1_SMS_8,55,1,48,52,510938940
106,4,2,T1_SMS_8,56,5,42,127,511721720
106,4,2,T1_SMS_8,57,1,48,51,511762488
106,4,2,T1_SMS_8,58,1,48,56,512510640
106,4,2,T1_SMS_8,59,5,42,127,512521520
106,4,2,T1_SMS_8,60,1,48,57,513316804
106,4,2,T1_SMS_8,61,5,42,127,513322300
106,4,2,T1_SMS_8,62,5,42,127,514122040
106,4,2,T1_SMS_8,63,1,48,53,514125984
106,4,2,T1_SMS_8,64,5,42,127,514921848
106,4,2,T1_SMS_8,65,1,48,70,514936632
106,4,2,T1_SMS_8,66,1,48,63,515717208
106,4,2,T1_SMS_8,67,5,42,127,515721576
106,4,2,T1_SMS_8,68,5,42,127,516522508
106,4,2,T1_SMS_8,69,1,48,54,516558992
106,4,2,T1_SMS_8,70,5,42,127,517322020
106,4,2,T1_SMS_8,71,1,48,61,517349072
106,4,2,T1_SMS_8,72,5,42,127,518121828
106,4,2,T1_SMS_8,73,1,48,58,518131228
106,4,2,T1_SMS_8,74,1,48,66,518921732
106,4,2,T1_SMS_8,75,5,42,127,518922920
106,4,2,T1_SMS_8,76,1,48,61,519712228
106,4,2,T1_SMS_8,77,5,42,127,519722728
106,4,2,T1_SMS_8,78,5,42,127,520522172
106,4,2,T1_SMS_8,79,1,48,65,520539876
106,4,2,T1_SMS_8,80,1,48,61,521301668
106,4,2,T1_SMS_8,81,5,42,127,521321824
106,4,2,T1_SMS_8,82,1,48,62,522070812
106,4,2,T1_SMS_8,83,5,42,127,522121636
106,4,2,T1_SMS_8,84,1,48,63,522892012
106,4,2,T1_SMS_8,85,5,42,127,522922564
106,4,2,T1_SMS_8,86,5,42,127,523722080
106,4,2,T1_SMS_8,87,1,48,70,523737392
106,4,2,T1_SMS_8,88,5,42,127,524521884
106,4,2,T1_SMS_8,89,1,48,48,524523528
106,4,2,T1_SMS_8,90,5,42,127,525321496
106,4,2,T1_SMS_8,91,1,48,67,525340396
106,4,2,T1_SMS_8,92,5,42,127,526122572
106,4,2,T1_SMS_8,93,1,48,53,526160848
106,4,2,T1_SMS_8,94,1,48,57,526912244
106,4,2,T1_SMS_8,95,5,42,127,526922300
106,4,2,T1_SMS_8,96,5,42,127,527721744
106,4,2,T1_SMS_8,97,1,48,54,527737504
106,4,2,T1_SMS_8,98,1,48,59,528500940
106,4,2,T1_SMS_8,99,5,42,127,528521544
106,4,2,T1_SMS_8,100,1,48,63,529296412
106,4,2,T1_SMS_8,101,5,42,127,529322396
106,4,2,T1_SMS_8,102,5,42,127,530122360
106,4,2,T1_SMS_8,103,1,48,58,530140064
106,4,2,T1_SMS_8,104,1,48,69,530921496
106,4,2,T1_SMS_8,105,5,42,127,530923056
106,4,2,T1_SMS_8,106,1,48,65,531713412
106,4,2,T1_SMS_8,107,5,42,127,531721548
106,4,2,T1_SMS_8,108,1,48,59,532501576
106,4,2,T1_SMS_8,109,5,42,127,532522324
106,4,2,T1_SMS_8,110,1,48,70,533318136
106,4,2,T1_SMS_8,111,5,42,127,533322356
106,4,2,T1_SMS_8,112,5,42,127,534121800
106,4,2,T1_SMS_8,113,1,48,67,534128508
106,4,2,T1_SMS_8,114,5,42,127,534921532
106,4,2,T1_SMS_8,115,1,48,62,534976256
106,4,2,T1_SMS_8,116,5,42,127,535722312
106,4,2,T1_SMS_8,117,1,48,71,535733436
106,4,2,T1_SMS_8,118,1,48,61,536518040
106,4,2,T1_SMS_8,119,5,42,127,536522184
106,4,2,T1_SMS_8,120,5,42,127,537321776
106,4,2,T1_SMS_8,121,1,48,59,537342100
106,4,2,T1_SMS_8,122,1,48,66,538106208
106,4,2,T1_SMS_8,123,5,42,127,538121528
106,4,2,T1_SMS_8,124,1,48,69,538879168
106,4,2,T1_SMS_8,125,5,42,127,538922232
106,4,2,T1_SMS_8,126,5,42,127,539722120
106,4,2,T1_SMS_8,127,1,48,67,539723312
106,4,2,T1_SMS_8,128,5,42,127,540521780
106,4,2,T1_SMS_8,129,1,48,67,540531480
106,4,2,T1_SMS_8,130,5,42,127,541321440
106,4,2,T1_SMS_8,131,1,48,71,541341988
106,4,2,T1_SMS_8,132,5,42,127,542122372
106,4,2,T1_SMS_8,133,1,48,65,542142392
106,4,2,T1_SMS_8,134,5,42,127,542922176
106,4,2,T1_SMS_8,135,1,48,58,542935768
106,4,2,T1_SMS_8,136,1,48,67,543716864
106,4,2,T1_SMS_8,137,5,42,127,543721756
106,4,2,T1_SMS_8,138,1,48,65,544495800
106,4,2,T1_SMS_8,139,5,42,127,544521664
106,4,2,T1_SMS_8,140,5,42,127,545322452
106,4,2,T1_SMS_8,141,1,48,64,545339412
106,4,2,T1_SMS_8,142,1,48,68,546121356
106,4,2,T1_SMS_8,143,5,42,127,546122928
106,4,2,T1_SMS_8,144,1,48,68,546913200
106,4,2,T1_SMS_8,145,5,42,127,546921836
106,4,2,T1_SMS_8,146,5,42,127,547721428
106,4,2,T1_SMS_8,147,1,48,67,547722396
106,4,2,T1_SMS_8,148,5,42,127,548522208
106,4,2,T1_SMS_8,149,1,48,59,548538568
106,4,2,T1_SMS_8,150,1,48,66,549301180
106,4,2,T1_SMS_8,151,5,42,127,549322084
106,4,2,T1_SMS_8,152,1,48,59,550102040
106,4,2,T1_SMS_8,153,5,42,127,550121820
106,4,2,T1_SMS_8,154,5,42,127,550921656
106,4,2,T1_SMS_8,155,1,48,70,550928068
106,4,2,T1_SMS_8,156,5,42,127,551722288
106,4,2,T1_SMS_8,157,1,48,69,551751284
106,4,2,T1_SMS_8,158,5,42,127,552522244
106,4,2,T1_SMS_8,159,1,48,57,552534860
106,4,2,T1_SMS_8,160,5,42,127,553321980
106,4,2,T1_SMS_8,161,1,48,66,553336688
106,4,2,T1_SMS_8,162,5,42,127,554121564
106,4,2,T1_SMS_8,163,1,48,60,554127976
106,4,2,T1_SMS_8,164,5,42,127,554922272
106,4,2,T1_SMS_8,165,1,48,66,554936540
106,4,2,T1_SMS_8,166,1,48,63,555716056
106,4,2,T1_SMS_8,167,5,42,127,555722296
106,4,2,T1_SMS_8,168,5,42,127,556521812
106,4,2,T1_SMS_8,169,1,48,61,556522780
106,4,2,T1_SMS_8,170,5,42,127,557321648
106,4,2,T1_SMS_8,171,1,48,59,557326032
106,4,2,T1_SMS_8,172,5,42,127,558122204
106,4,2,T1_SMS_8,173,1,48,64,558125620
106,4,2,T1_SMS_8,174,5,42,127,558922160
106,4,2,T1_SMS_8,175,1,48,63,558942180
106,4,2,T1_SMS_8,176,1,48,68,559673760
106,4,2,T1_SMS_8,177,5,42,127,559722108
106,4,2,T1_SMS_8,178,5,42,127,560521552
106,4,2,T1_SMS_8,179,1,48,61,560522516
106,4,2,T1_SMS_8,180,5,42,127,561322484
106,4,2,T1_SMS_8,181,1,48,63,561335700
106,4,2,T1_SMS_8,182,5,42,127,562122068
106,4,2,T1_SMS_8,183,1,48,60,562156448
106,4,2,T1_SMS_8,184,1,48,65,562919676
106,4,2,T1_SMS_8,185,5,42,127,562922088
106,4,2,T1_SMS_8,186,1,48,64,563689704
106,4,2,T1_SMS_8,187,5,42,127,563721552
106,4,2,T1_SMS_8,188,5,42,127,564522264
106,4,2,T1_SMS_8,189,1,48,60,564556568
106,4,2,T1_SMS_8,190,5,42,127,565322072
106,4,2,T1_SMS_8,191,1,48,64,565366932
106,4,2,T1_SMS_8,192,1,48,60,566110548
106,4,2,T1_SMS_8,193,5,42,127,566122172
106,4,2,T1_SMS_8,194,1,48,59,566914544
106,4,2,T1_SMS_8,195,5,42,127,566921608
106,4,2,T1_SMS_8,196,1,48,60,567709192
106,4,2,T1_SMS_8,197,5,42,127,567722392
106,4,2,T1_SMS_8,198,5,42,127,568522132
106,4,2,T1_SMS_8,199,1,48,66,568559812
106,4,2,T1_SMS_8,200,5,42,127,569322016
106,4,2,T1_SMS_8,201,1,48,59,569345332
106,4,2,T1_SMS_8,202,1,48,61,570109220
106,4,2,T1_SMS_8,203,5,42,127,570121468
106,4,2,T1_SMS_8,204,1,48,62,570919004
106,4,2,T1_SMS_8,205,5,42,127,570922324
106,4,2,T1_SMS_8,206,5,42,127,571722064
106,4,2,T1_SMS_8,207,1,48,63,571748896
106,4,2,T1_SMS_8,208,5,42,127,572521872
106,4,2,T1_SMS_8,209,1,48,60,572523884
106,4,2,T1_SMS_8,210,5,42,127,573321608
106,4,2,T1_SMS_8,211,1,48,61,573358984
106,4,2,T1_SMS_8,212,5,42,127,574122240
106,4,2,T1_SMS_8,213,1,48,43,574128428
106,4,2,T1_SMS_8,214,1,48,60,574911012
106,4,2,T1_SMS_8,215,5,42,127,574922188
106,4,2,T1_SMS_8,216,1,48,51,575713212
106,4,2,T1_SMS_8,217,5,42,127,575721924
106,4,2,T1_SMS_8,218,1,48,62,576516984
106,4,2,T1_SMS_8,219,5,42,127,576521680
106,4,2,T1_SMS_8,220,5,42,127,577322248
106,4,2,T1_SMS_8,221,1,48,60,577343988
106,4,2,T1_SMS_8,222,5,42,127,578122056
106,4,2,T1_SMS_8,223,1,48,58,578142676
106,4,2,T1_SMS_8,224,5,42,127,578921936
106,4,2,T1_SMS_8,225,1,48,61,578942780
106,4,2,T1_SMS_8,226,5,42,127,579721524
106,4,2,T1_SMS_8,227,1,48,61,579739596
106,4,2,T1_SMS_8,228,5,42,127,580522376
106,4,2,T1_SMS_8,229,1,48,62,580526168
106,4,2,T1_SMS_8,230,5,42,127,581322036
106,4,2,T1_SMS_8,231,1,48,69,581358740
106,4,2,T1_SMS_8,232,5,42,127,582121768
106,4,2,T1_SMS_8,233,1,48,62,582140148
106,4,2,T1_SMS_8,234,1,48,60,582904108
106,4,2,T1_SMS_8,235,5,42,127,582921740
106,4,2,T1_SMS_8,236,1,48,69,583687784
106,4,2,T1_SMS_8,0,9999,9999,9999,487719992
106,4,2,T1_SMS_8,1,9999,9999,9999,488519744
106,4,2,T1_SMS_8,2,9999,9999,9999,489319500
106,4,2,T1_SMS_8,3,9999,9999,9999,490119256
106,4,2,T1_SMS_8,4,9999,9999,9999,490919984
106,4,2,T1_SMS_8,5,9999,9999,9999,491719792
106,4,2,T1_SMS_8,6,9999,9999,9999,492519524
106,4,2,T1_SMS_8,7,9999,9999,9999,493319260
106,4,2,T1_SMS_8,8,9999,9999,9999,494119992
106,4,2,T1_SMS_8,9,9999,9999,9999,494919796
106,4,2,T1_SMS_8,10,9999,9999,9999,495719532
106,4,2,T1_SMS_8,11,9999,9999,9999,496519264
106,4,2,T1_SMS_8,12,9999,9999,9999,497320048
106,4,2,T1_SMS_8,13,9999,9999,9999,498119780
106,4,2,T1_SMS_8,14,9999,9999,9999,498919512
106,4,2,T1_SMS_8,15,9999,9999,9999,499719248
106,4,2,T1_SMS_8,16,9999,9999,9999,500520028
106,4,2,T1_SMS_8,17,9999,9999,9999,501319760
106,4,2,T1_SMS_8,18,9999,9999,9999,502119492
106,4,2,T1_SMS_8,19,9999,9999,9999,502919228
106,4,2,T1_SMS_8,20,9999,9999,9999,503720008
106,4,2,T1_SMS_8,21,9999,9999,9999,504519740
106,4,2,T1_SMS_8,22,9999,9999,9999,505319472
106,4,2,T1_SMS_8,23,9999,9999,9999,506119280
106,4,2,T1_SMS_8,24,9999,9999,9999,506920056
106,4,2,T1_SMS_8,25,9999,9999,9999,507719796
106,4,2,T1_SMS_8,26,9999,9999,9999,508519528
106,4,2,T1_SMS_8,27,9999,9999,9999,509319260
106,4,2,T1_SMS_8,28,9999,9999,9999,510120040
106,4,2,T1_SMS_8,29,9999,9999,9999,510919772
106,4,2,T1_SMS_8,30,9999,9999,9999,511719504
106,4,2,T1_SMS_8,31,9999,9999,9999,512519232
106,4,2,T1_SMS_8,32,9999,9999,9999,513320012
106,4,2,T1_SMS_8,33,9999,9999,9999,514119752
106,4,2,T1_SMS_8,34,9999,9999,9999,514919484
106,4,2,T1_SMS_8,35,9999,9999,9999,515719288
106,4,2,T1_SMS_8,36,9999,9999,9999,516520000
106,4,2,T1_SMS_8,37,9999,9999,9999,517319732
106,4,2,T1_SMS_8,38,9999,9999,9999,518119540
106,4,2,T1_SMS_8,39,9999,9999,9999,518919272
106,4,2,T1_SMS_8,40,9999,9999,9999,519719996
106,4,2,T1_SMS_8,41,9999,9999,9999,520519736
106,4,2,T1_SMS_8,42,9999,9999,9999,521319536
106,4,2,T1_SMS_8,43,9999,9999,9999,522119272
106,4,2,T1_SMS_8,44,9999,9999,9999,522920052
106,4,2,T1_SMS_8,45,9999,9999,9999,523719792
106,4,2,T1_SMS_8,46,9999,9999,9999,524519524
106,4,2,T1_SMS_8,47,9999,9999,9999,525319256
106,4,2,T1_SMS_8,48,9999,9999,9999,526119988
106,4,2,T1_SMS_8,49,9999,9999,9999,526919788
106,4,2,T1_SMS_8,50,9999,9999,9999,527719528
106,4,2,T1_SMS_8,51,9999,9999,9999,528519256
106,4,2,T1_SMS_8,52,9999,9999,9999,529320036
106,4,2,T1_SMS_8,53,9999,9999,9999,530119776
106,4,2,T1_SMS_8,54,9999,9999,9999,530919508
106,4,2,T1_SMS_8,55,9999,9999,9999,531719236
106,4,2,T1_SMS_8,56,9999,9999,9999,532520036
106,4,2,T1_SMS_8,57,9999,9999,9999,533319772
106,4,2,T1_SMS_8,58,9999,9999,9999,534119512
106,4,2,T1_SMS_8,59,9999,9999,9999,534919244
106,4,2,T1_SMS_8,60,9999,9999,9999,535720024
106,4,2,T1_SMS_8,61,9999,9999,9999,536519748
106,4,2,T1_SMS_8,62,9999,9999,9999,537319488
106,4,2,T1_SMS_8,63,9999,9999,9999,538119216
106,4,2,T1_SMS_8,64,9999,9999,9999,538920020
106,4,2,T1_SMS_8,65,9999,9999,9999,539719760
106,4,2,T1_SMS_8,66,9999,9999,9999,540519492
106,4,2,T1_SMS_8,67,9999,9999,9999,541319224
106,4,2,T1_SMS_8,68,9999,9999,9999,542120008
106,4,2,T1_SMS_8,69,9999,9999,9999,542919740
106,4,2,T1_SMS_8,70,9999,9999,9999,543719544
106,4,2,T1_SMS_8,71,9999,9999,9999,544519276
106,4,2,T1_SMS_8,72,9999,9999,9999,545320012
106,4,2,T1_SMS_8,73,9999,9999,9999,546119748
106,4,2,T1_SMS_8,74,9999,9999,9999,546919476
106,4,2,T1_SMS_8,75,9999,9999,9999,547719216
106,4,2,T1_SMS_8,76,9999,9999,9999,548519992
106,4,2,T1_SMS_8,77,9999,9999,9999,549319796
106,4,2,T1_SMS_8,78,9999,9999,9999,550119528
106,4,2,T1_SMS_8,79,9999,9999,9999,550919276
106,4,2,T1_SMS_8,80,9999,9999,9999,551720000
106,4,2,T1_SMS_8,81,9999,9999,9999,552519732
106,4,2,T1_SMS_8,82,9999,9999,9999,553319540
106,4,2,T1_SMS_8,83,9999,9999,9999,554119276
106,4,2,T1_SMS_8,84,9999,9999,9999,554919984
106,4,2,T1_SMS_8,85,9999,9999,9999,555719784
106,4,2,T1_SMS_8,86,9999,9999,9999,556519524
106,4,2,T1_SMS_8,87,9999,9999,9999,557319284
106,4,2,T1_SMS_8,88,9999,9999,9999,558119988
106,4,2,T1_SMS_8,89,9999,9999,9999,558919796
106,4,2,T1_SMS_8,90,9999,9999,9999,559719524
106,4,2,T1_SMS_8,91,9999,9999,9999,560519264
106,4,2,T1_SMS_8,92,9999,9999,9999,561320044
106,4,2,T1_SMS_8,93,9999,9999,9999,562119780
106,4,2,T1_SMS_8,94,9999,9999,9999,562919540
106,4,2,T1_SMS_8,95,9999,9999,9999,563719264
106,4,2,T1_SMS_8,96,9999,9999,9999,564520048
106,4,2,T1_SMS_8,97,9999,9999,9999,565319784
106,4,2,T1_SMS_8,98,9999,9999,9999,566119512
106,4,2,T1_SMS_8,99,9999,9999,9999,566919248
106,4,2,T1_SMS_8,100,9999,9999,9999,567720028
106,4,2,T1_SMS_8,101,9999,9999,9999,568519768
106,4,2,T1_SMS_8,102,9999,9999,9999,569319504
106,4,2,T1_SMS_8,103,9999,9999,9999,570119256
106,4,2,T1_SMS_8,104,9999,9999,9999,570920036
106,4,2,T1_SMS_8,105,9999,9999,9999,571719776
106,4,2,T1_SMS_8,106,9999,9999,9999,572519508
106,4,2,T1_SMS_8,107,9999,9999,9999,573319244
106,4,2,T1_SMS_8,108,9999,9999,9999,574120028
106,4,2,T1_SMS_8,109,9999,9999,9999,574919752
106,4,2,T1_SMS_8,110,9999,9999,9999,575719488
106,4,2,T1_SMS_8,111,9999,9999,9999,576519244
106,4,2,T1_SMS_8,112,9999,9999,9999,577320032
106,4,2,T1_SMS_8,113,9999,9999,9999,578119768
106,4,2,T1_SMS_8,114,9999,9999,9999,578919500
106,4,2,T1_SMS_8,115,9999,9999,9999,579719236
106,4,2,T1_SMS_8,116,9999,9999,9999,580520012
106,4,2,T1_SMS_8,117,9999,9999,9999,581319748
106,4,2,T1_SMS_8,118,9999,9999,9999,582119480
106,4,2,T1_SMS_8,119,9999,9999,9999,582919232
106,5,10,Ticks_ISO_T2_5,0,5,42,127,593712640
106,5,10,Ticks_ISO_T2_5,1,5,42,127,594213180
106,5,10,Ticks_ISO_T2_5,2,5,42,127,594712968
106,5,10,Ticks_ISO_T2_5,3,5,42,127,595212688
106,5,10,Ticks_ISO_T2_5,4,1,48,56,595692592
106,5,10,Ticks_ISO_T2_5,5,5,42,127,595713640
106,5,10,Ticks_ISO_T2_5,6,5,42,127,596212972
106,5,10,Ticks_ISO_T2_5,7,1,48,59,596219900
106,5,10,Ticks_ISO_T2_5,8,5,42,127,596712888
106,5,10,Ticks_ISO_T2_5,9,1,48,56,596730816
106,5,10,Ticks_ISO_T2_5,10,5,42,127,597212580
106,5,10,Ticks_ISO_T2_5,11,1,48,54,597232680
106,5,10,Ticks_ISO_T2_5,12,5,42,127,597713544
106,5,10,Ticks_ISO_T2_5,13,1,48,66,597723920
106,5,10,Ticks_ISO_T2_5,14,5,42,127,598213016
106,5,10,Ticks_ISO_T2_5,15,1,48,57,598218908
106,5,10,Ticks_ISO_T2_5,16,1,48,59,598709156
106,5,10,Ticks_ISO_T2_5,17,5,42,127,598712632
106,5,10,Ticks_ISO_T2_5,18,5,42,127,599213604
106,5,10,Ticks_ISO_T2_5,19,1,48,53,599220392
106,5,10,Ticks_ISO_T2_5,20,5,42,127,599713072
106,5,10,Ticks_ISO_T2_5,21,1,48,51,599748132
106,5,10,Ticks_ISO_T2_5,22,1,48,63,600206596
106,5,10,Ticks_ISO_T2_5,23,5,42,127,600212836
106,5,10,Ticks_ISO_T2_5,24,1,48,63,600700232
106,5,10,Ticks_ISO_T2_5,25,5,42,127,600712528
106,5,10,Ticks_ISO_T2_5,26,5,42,127,601213500
106,5,10,Ticks_ISO_T2_5,27,1,48,52,601221188
106,5,10,Ticks_ISO_T2_5,28,5,42,127,601712972
106,5,10,Ticks_ISO_T2_5,29,1,48,54,601721032
106,5,10,Ticks_ISO_T2_5,30,5,42,127,602212668
106,5,10,Ticks_ISO_T2_5,31,1,48,62,602238600
106,5,10,Ticks_ISO_T2_5,32,5,42,127,602712512
106,5,10,Ticks_ISO_T2_5,33,1,48,58,602716000
106,5,10,Ticks_ISO_T2_5,34,5,42,127,603213028
106,5,10,Ticks_ISO_T2_5,35,1,48,54,603215040
106,5,10,Ticks_ISO_T2_5,36,1,48,54,603712044
106,5,10,Ticks_ISO_T2_5,37,5,42,127,603713688
106,5,10,Ticks_ISO_T2_5,38,1,48,55,604202056
106,5,10,Ticks_ISO_T2_5,39,5,42,127,604212636
106,5,10,Ticks_ISO_T2_5,40,1,48,53,604694720
106,5,10,Ticks_ISO_T2_5,41,5,42,127,604713672
106,5,10,Ticks_ISO_T2_5,42,1,48,57,605212548
106,5,10,Ticks_ISO_T2_5,43,5,42,127,605214040
106,5,10,Ticks_ISO_T2_5,44,5,42,127,605712920
106,5,10,Ticks_ISO_T2_5,45,1,48,55,605722396
106,5,10,Ticks_ISO_T2_5,46,5,42,127,606212664
106,5,10,Ticks_ISO_T2_5,47,1,48,48,606220968
106,5,10,Ticks_ISO_T2_5,48,5,42,127,606713180
106,5,10,Ticks_ISO_T2_5,49,1,48,51,606724452
106,5,10,Ticks_ISO_T2_5,50,5,42,127,607212876
106,5,10,Ticks_ISO_T2_5,51,1,48,48,607227736
106,5,10,Ticks_ISO_T2_5,52,1,48,54,607704080
106,5,10,Ticks_ISO_T2_5,53,5,42,127,607712564
106,5,10,Ticks_ISO_T2_5,54,5,42,127,608213312
106,5,10,Ticks_ISO_T2_5,55,1,48,52,608222788
106,5,10,Ticks_ISO_T2_5,56,5,42,127,608713008
106,5,10,Ticks_ISO_T2_5,57,1,48,52,608714492
106,5,10,Ticks_ISO_T2_5,58,5,42,127,609212780
106,5,10,Ticks_ISO_T2_5,59,1,48,54,609225024
106,5,10,Ticks_ISO_T2_5,60,5,42,127,609712768
106,5,10,Ticks_ISO_T2_5,61,1,48,56,609713808
106,5,10,Ticks_ISO_T2_5,62,5,42,127,610213436
106,5,10,Ticks_ISO_T2_5,63,1,48,51,610223144
106,5,10,Ticks_ISO_T2_5,64,1,48,42,610711540
106,5,10,Ticks_ISO_T2_5,65,5,42,127,610713124
106,5,10,Ticks_ISO_T2_5,66,5,42,127,611212604
106,5,10,Ticks_ISO_T2_5,67,1,48,13,611216472
106,5,10,Ticks_ISO_T2_5,68,1,48,27,611220936
106,5,10,Ticks_ISO_T2_5,69,1,48,57,611696448
106,5,10,Ticks_ISO_T2_5,70,5,42,127,611713464
106,5,10,Ticks_ISO_T2_5,71,1,48,59,612208560
106,5,10,Ticks_ISO_T2_5,72,5,42,127,612213160
106,5,10,Ticks_ISO_T2_5,73,5,42,127,612712712
106,5,10,Ticks_ISO_T2_5,74,1,48,57,612732212
106,5,10,Ticks_ISO_T2_5,75,1,48,61,613210124
106,5,10,Ticks_ISO_T2_5,76,5,42,127,613212624
106,5,10,Ticks_ISO_T2_5,77,5,42,127,613713372
106,5,10,Ticks_ISO_T2_5,78,1,48,57,613716860
106,5,10,Ticks_ISO_T2_5,79,5,42,127,614212844
106,5,10,Ticks_ISO_T2_5,80,1,48,51,614259196
106,5,10,Ticks_ISO_T2_5,81,5,42,127,614712612
106,5,10,Ticks_ISO_T2_5,82,1,48,50,614738544
106,5,10,Ticks_ISO_T2_5,83,5,42,127,615213280
106,5,10,Ticks_ISO_T2_5,84,1,48,58,615231808
106,5,10,Ticks_ISO_T2_5,85,1,48,49,615710016
106,5,10,Ticks_ISO_T2_5,86,5,42,127,615713340
106,5,10,Ticks_ISO_T2_5,87,5,42,127,616212744
106,5,10,Ticks_ISO_T2_5,88,1,48,55,616229624
106,5,10,Ticks_ISO_T2_5,89,5,42,127,616712664
106,5,10,Ticks_ISO_T2_5,90,1,48,49,616724156
106,5,10,Ticks_ISO_T2_5,91,5,42,127,617213304
106,5,10,Ticks_ISO_T2_5,92,1,48,54,617227968
106,5,10,Ticks_ISO_T2_5,93,5,42,127,617713220
106,5,10,Ticks_ISO_T2_5,94,1,48,63,617716268
106,5,10,Ticks_ISO_T2_5,95,5,42,127,618212620
106,5,10,Ticks_ISO_T2_5,96,1,48,56,618219476
106,5,10,Ticks_ISO_T2_5,97,5,42,127,618712536
106,5,10,Ticks_ISO_T2_5,98,1,48,39,618740636
106,5,10,Ticks_ISO_T2_5,99,5,42,127,619213276
106,5,10,Ticks_ISO_T2_5,100,1,48,43,619245720
106,5,10,Ticks_ISO_T2_5,101,1,48,60,619706504
106,5,10,Ticks_ISO_T2_5,102,5,42,127,619712964
106,5,10,Ticks_ISO_T2_5,103,1,48,13,620201332
106,5,10,Ticks_ISO_T2_5,104,5,42,127,620212512
106,5,10,Ticks_ISO_T2_5,105,1,48,54,620655024
106,5,10,Ticks_ISO_T2_5,106,5,42,127,620713328
106,5,10,Ticks_ISO_T2_5,107,1,48,59,621176780
106,5,10,Ticks_ISO_T2_5,108,5,42,127,621212948
106,5,10,Ticks_ISO_T2_5,109,1,48,60,621696304
106,5,10,Ticks_ISO_T2_5,110,5,42,127,621712864
106,5,10,Ticks_ISO_T2_5,111,5,42,127,622212416
106,5,10,Ticks_ISO_T2_5,112,1,48,62,622231392
106,5,10,Ticks_ISO_T2_5,113,5,42,127,622713232
106,5,10,Ticks_ISO_T2_5,114,1,48,62,622736924
106,5,10,Ticks_ISO_T2_5,115,5,42,127,623212928
106,5,10,Ticks_ISO_T2_5,116,1,48,44,623252096
106,5,10,Ticks_ISO_T2_5,117,5,42,127,623712472
106,5,10,Ticks_ISO_T2_5,118,1,48,59,623740796
106,5,10,Ticks_ISO_T2_5,119,5,42,127,624213288
106,5,10,Ticks_ISO_T2_5,120,1,48,63,624224932
106,5,10,Ticks_ISO_T2_5,121,5,42,127,624713280
106,5,10,Ticks_ISO_T2_5,122,1,48,58,624722312
106,5,10,Ticks_ISO_T2_5,123,5,42,127,625212680
106,5,10,Ticks_ISO_T2_5,124,1,48,59,625226340
106,5,10,Ticks_ISO_T2_5,125,5,42,127,625712372
106,5,10,Ticks_ISO_T2_5,126,1,48,63,625723268
106,5,10,Ticks_ISO_T2_5,127,5,42,127,626213336
106,5,10,Ticks_ISO_T2_5,128,1,48,57,626258496
106,5,10,Ticks_ISO_T2_5,129,5,42,127,626712956
106,5,10,Ticks_ISO_T2_5,130,1,48,56,626769108
106,5,10,Ticks_ISO_T2_5,131,5,42,127,627212576
106,5,10,Ticks_ISO_T2_5,132,1,48,54,627252424
106,5,10,Ticks_ISO_T2_5,133,5,42,127,627713368
106,5,10,Ticks_ISO_T2_5,134,1,48,60,627734764
106,5,10,Ticks_ISO_T2_5,135,5,42,127,628213212
106,5,10,Ticks_ISO_T2_5,136,1,48,62,628243656
106,5,10,Ticks_ISO_T2_5,137,5,42,127,628712684
106,5,10,Ticks_ISO_T2_5,138,1,48,57,628733824
106,5,10,Ticks_ISO_T2_5,139,5,42,127,629212452
106,5,10,Ticks_ISO_T2_5,140,1,48,56,629232620
106,5,10,Ticks_ISO_T2_5,141,5,42,127,629713192
106,5,10,Ticks_ISO_T2_5,142,1,48,64,629720648
106,5,10,Ticks_ISO_T2_5,143,5,42,127,630213184
106,5,10,Ticks_ISO_T2_5,144,1,48,43,630218776
106,5,10,Ticks_ISO_T2_5,145,1,48,60,630706856
106,5,10,Ticks_ISO_T2_5,146,5,42,127,630712648
106,5,10,Ticks_ISO_T2_5,147,5,42,127,631213396
106,5,10,Ticks_ISO_T2_5,148,1,48,62,631218688
106,5,10,Ticks_ISO_T2_5,149,5,42,127,631713312
106,5,10,Ticks_ISO_T2_5,150,1,48,61,631719056
106,5,10,Ticks_ISO_T2_5,151,5,42,127,632212712
106,5,10,Ticks_ISO_T2_5,152,1,48,57,632228544
106,5,10,Ticks_ISO_T2_5,153,5,42,127,632712704
106,5,10,Ticks_ISO_T2_5,154,1,48,58,632723828
106,5,10,Ticks_ISO_T2_5,155,1,48,53,633204808
106,5,10,Ticks_ISO_T2_5,156,5,42,127,633213364
106,5,10,Ticks_ISO_T2_5,157,1,48,60,633712992
106,5,10,Ticks_ISO_T2_5,158,5,42,127,633714256
106,5,10,Ticks_ISO_T2_5,159,1,48,54,634205912
106,5,10,Ticks_ISO_T2_5,160,5,42,127,634212608
106,5,10,Ticks_ISO_T2_5,161,1,48,55,634679204
106,5,10,Ticks_ISO_T2_5,162,5,42,127,634712304
106,5,10,Ticks_ISO_T2_5,163,1,48,55,635190048
106,5,10,Ticks_ISO_T2_5,164,5,42,127,635213344
106,5,10,Ticks_ISO_T2_5,165,1,48,55,635698044
106,5,10,Ticks_ISO_T2_5,166,5,42,127,635713184
106,5,10,Ticks_ISO_T2_5,167,5,42,127,636212664
106,5,10,Ticks_ISO_T2_5,168,1,48,63,636226784
106,5,10,Ticks_ISO_T2_5,169,5,42,127,636713256
106,5,10,Ticks_ISO_T2_5,170,1,48,62,636735296
106,5,10,Ticks_ISO_T2_5,171,5,42,127,637213248
106,5,10,Ticks_ISO_T2_5,172,1,48,55,637221084
106,5,10,Ticks_ISO_T2_5,173,1,48,58,637705048
106,5,10,Ticks_ISO_T2_5,174,5,42,127,637712712
106,5,10,Ticks_ISO_T2_5,175,5,42,127,638212340
106,5,10,Ticks_ISO_T2_5,176,1,48,46,638232436
106,5,10,Ticks_ISO_T2_5,177,5,42,127,638713280
106,5,10,Ticks_ISO_T2_5,178,1,48,61,638736016
106,5,10,Ticks_ISO_T2_5,179,5,42,127,639213124
106,5,10,Ticks_ISO_T2_5,180,1,48,63,639222448
106,5,10,Ticks_ISO_T2_5,181,1,48,61,639686444
106,5,10,Ticks_ISO_T2_5,182,5,42,127,639712588
106,5,10,Ticks_ISO_T2_5,183,5,42,127,640213336
106,5,10,Ticks_ISO_T2_5,184,1,48,59,640216456
106,5,10,Ticks_ISO_T2_5,185,5,42,127,640713252
106,5,10,Ticks_ISO_T2_5,186,1,48,56,640725868
106,5,10,Ticks_ISO_T2_5,187,5,42,127,641212648
106,5,10,Ticks_ISO_T2_5,188,1,48,59,641239628
106,5,10,Ticks_ISO_T2_5,189,5,42,127,641712344
106,5,10,Ticks_ISO_T2_5,190,1,48,46,641740372
106,5,10,Ticks_ISO_T2_5,191,5,42,127,642213160
106,5,10,Ticks_ISO_T2_5,192,1,48,49,642233408
106,5,10,Ticks_ISO_T2_5,193,5,42,127,642713372
106,5,10,Ticks_ISO_T2_5,194,1,48,51,642731604
106,5,10,Ticks_ISO_T2_5,195,5,42,127,643212772
106,5,10,Ticks_ISO_T2_5,196,1,48,61,643239156
106,5,10,Ticks_ISO_T2_5,197,5,42,127,643713436
106,5,10,Ticks_ISO_T2_5,198,1,48,64,643734660
106,5,10,Ticks_ISO_T2_5,199,5,42,127,644213208
106,5,10,Ticks_ISO_T2_5,200,1,48,60,644220664
106,5,10,Ticks_ISO_T2_5,201,5,42,127,644712828
106,5,10,Ticks_ISO_T2_5,202,1,48,53,644741076
106,5,10,Ticks_ISO_T2_5,203,1,48,59,645212448
106,5,10,Ticks_ISO_T2_5,204,5,42,127,645213932
106,5,10,Ticks_ISO_T2_5,205,5,42,127,645713264
106,5,10,Ticks_ISO_T2_5,206,1,48,56,645714748
106,5,10,Ticks_ISO_T2_5,207,5,42,127,646213180
106,5,10,Ticks_ISO_T2_5,208,1,48,53,646226248
106,5,10,Ticks_ISO_T2_5,209,1,48,61,646704832
106,5,10,Ticks_ISO_T2_5,210,5,42,127,646712572
106,5,10,Ticks_ISO_T2_5,211,5,42,127,647213468
106,5,10,Ticks_ISO_T2_5,212,1,48,61,647224664
106,5,10,Ticks_ISO_T2_5,213,5,42,127,647713088
106,5,10,Ticks_ISO_T2_5,214,1,48,54,647721444
106,5,10,Ticks_ISO_T2_5,215,5,42,127,648212932
106,5,10,Ticks_ISO_T2_5,216,1,48,54,648222408
106,5,10,Ticks_ISO_T2_5,217,1,48,49,648710116
106,5,10,Ticks_ISO_T2_5,218,5,42,127,648712548
106,5,10,Ticks_ISO_T2_5,219,5,42,127,649213268
106,5,10,Ticks_ISO_T2_5,220,1,48,56,649229504
106,5,10,Ticks_ISO_T2_5,221,1,48,61,649693172
106,5,10,Ticks_ISO_T2_5,222,5,42,127,649713108
106,5,10,Ticks_ISO_T2_5,223,1,48,57,650202968
106,5,10,Ticks_ISO_T2_5,224,5,42,127,650212728
106,5,10,Ticks_ISO_T2_5,225,1,48,57,650710072
106,5,10,Ticks_ISO_T2_5,226,5,42,127,650712424
106,5,10,Ticks_ISO_T2_5,227,5,42,127,651213020
106,5,10,Ticks_ISO_T2_5,228,1,48,55,651228856
106,5,10,Ticks_ISO_T2_5,229,5,42,127,651712864
106,5,10,Ticks_ISO_T2_5,230,1,48,55,651737824
106,5,10,Ticks_ISO_T2_5,231,1,48,56,652204960
106,5,10,Ticks_ISO_T2_5,232,5,42,127,652212700
106,5,10,Ticks_ISO_T2_5,233,5,42,127,652713300
106,5,10,Ticks_ISO_T2_5,234,1,48,58,652730408
106,5,10,Ticks_ISO_T2_5,235,5,42,127,653212992
106,5,10,Ticks_ISO_T2_5,236,1,48,60,653217384
106,5,10,Ticks_ISO_T2_5,237,1,48,59,653703672
106,5,10,Ticks_ISO_T2_5,238,5,42,127,653712832
106,5,10,Ticks_ISO_T2_5,239,1,48,59,654199628
106,5,10,Ticks_ISO_T2_5,240,5,42,127,654212452
106,5,10,Ticks_ISO_T2_5,241,1,48,59,654708752
106,5,10,Ticks_ISO_T2_5,242,5,42,127,654713044
106,5,10,Ticks_ISO_T2_5,243,5,42,127,655213044
106,5,10,Ticks_ISO_T2_5,244,1,48,59,655230824
106,5,10,Ticks_ISO_T2_5,245,5,42,127,655712592
106,5,10,Ticks_ISO_T2_5,246,1,48,64,655733508
106,5,10,Ticks_ISO_T2_5,247,5,42,127,656213256
106,5,10,Ticks_ISO_T2_5,248,1,48,58,656220492
106,5,10,Ticks_ISO_T2_5,249,1,48,57,656698852
106,5,10,Ticks_ISO_T2_5,250,5,42,127,656713172
106,5,10,Ticks_ISO_T2_5,251,1,48,54,657198992
106,5,10,Ticks_ISO_T2_5,252,5,42,127,657212788
106,5,10,Ticks_ISO_T2_5,253,5,42,127,657712564
106,5,10,Ticks_ISO_T2_5,254,1,48,51,657726452
106,5,10,Ticks_ISO_T2_5,255,5,42,127,658213160
106,5,10,Ticks_ISO_T2_5,256,1,48,60,658217848
106,5,10,Ticks_ISO_T2_5,0,9999,9999,9999,593710132
106,5,10,Ticks_ISO_T2_5,1,9999,9999,9999,594210892
106,5,10,Ticks_ISO_T2_5,2,9999,9999,9999,594710608
106,5,10,Ticks_ISO_T2_5,3,9999,9999,9999,595210324
106,5,10,Ticks_ISO_T2_5,4,9999,9999,9999,595711056
106,5,10,Ticks_ISO_T2_5,5,9999,9999,9999,596210760
106,5,10,Ticks_ISO_T2_5,6,9999,9999,9999,596710452
106,5,10,Ticks_ISO_T2_5,7,9999,9999,9999,597210220
106,5,10,Ticks_ISO_T2_5,8,9999,9999,9999,597710960
106,5,10,Ticks_ISO_T2_5,9,9999,9999,9999,598210656
106,5,10,Ticks_ISO_T2_5,10,9999,9999,9999,598710344
106,5,10,Ticks_ISO_T2_5,11,9999,9999,9999,599211092
106,5,10,Ticks_ISO_T2_5,12,9999,9999,9999,599710784
106,5,10,Ticks_ISO_T2_5,13,9999,9999,9999,600210548
106,5,10,Ticks_ISO_T2_5,14,9999,9999,9999,600710244
106,5,10,Ticks_ISO_T2_5,15,9999,9999,9999,601210992
106,5,10,Ticks_ISO_T2_5,16,9999,9999,9999,601710688
106,5,10,Ticks_ISO_T2_5,17,9999,9999,9999,602210380
106,5,10,Ticks_ISO_T2_5,18,9999,9999,9999,602710076
106,5,10,Ticks_ISO_T2_5,19,9999,9999,9999,603210816
106,5,10,Ticks_ISO_T2_5,20,9999,9999,9999,603710584
106,5,10,Ticks_ISO_T2_5,21,9999,9999,9999,604210272
106,5,10,Ticks_ISO_T2_5,22,9999,9999,9999,604711016
106,5,10,Ticks_ISO_T2_5,23,9999,9999,9999,605210716
106,5,10,Ticks_ISO_T2_5,24,9999,9999,9999,605710412
106,5,10,Ticks_ISO_T2_5,25,9999,9999,9999,606210156
106,5,10,Ticks_ISO_T2_5,26,9999,9999,9999,606710896
106,5,10,Ticks_ISO_T2_5,27,9999,9999,9999,607210588
106,5,10,Ticks_ISO_T2_5,28,9999,9999,9999,607710276
106,5,10,Ticks_ISO_T2_5,29,9999,9999,9999,608211028
106,5,10,Ticks_ISO_T2_5,30,9999,9999,9999,608710720
106,5,10,Ticks_ISO_T2_5,31,9999,9999,9999,609210416
106,5,10,Ticks_ISO_T2_5,32,9999,9999,9999,609710184
106,5,10,Ticks_ISO_T2_5,33,9999,9999,9999,610210928
106,5,10,Ticks_ISO_T2_5,34,9999,9999,9999,610710620
106,5,10,Ticks_ISO_T2_5,35,9999,9999,9999,611210316
106,5,10,Ticks_ISO_T2_5,36,9999,9999,9999,611711028
106,5,10,Ticks_ISO_T2_5,37,9999,9999,9999,612210796
106,5,10,Ticks_ISO_T2_5,38,9999,9999,9999,612710500
106,5,10,Ticks_ISO_T2_5,39,9999,9999,9999,613210188
106,5,10,Ticks_ISO_T2_5,40,9999,9999,9999,613710936
106,5,10,Ticks_ISO_T2_5,41,9999,9999,9999,614210632
106,5,10,Ticks_ISO_T2_5,42,9999,9999,9999,614710324
106,5,10,Ticks_ISO_T2_5,43,9999,9999,9999,615211064
106,5,10,Ticks_ISO_T2_5,44,9999,9999,9999,615710828
106,5,10,Ticks_ISO_T2_5,45,9999,9999,9999,616210532
106,5,10,Ticks_ISO_T2_5,46,9999,9999,9999,616710228
106,5,10,Ticks_ISO_T2_5,47,9999,9999,9999,617210944
106,5,10,Ticks_ISO_T2_5,48,9999,9999,9999,617710712
106,5,10,Ticks_ISO_T2_5,49,9999,9999,9999,618210408
106,5,10,Ticks_ISO_T2_5,50,9999,9999,9999,618710100
106,5,10,Ticks_ISO_T2_5,51,9999,9999,9999,619210844
106,5,10,Ticks_ISO_T2_5,52,9999,9999,9999,619710528
106,5,10,Ticks_ISO_T2_5,53,9999,9999,9999,620210224
106,5,10,Ticks_ISO_T2_5,54,9999,9999,9999,620710968
106,5,10,Ticks_ISO_T2_5,55,9999,9999,9999,621210736
106,5,10,Ticks_ISO_T2_5,56,9999,9999,9999,621710428
106,5,10,Ticks_ISO_T2_5,57,9999,9999,9999,622210132
106,5,10,Ticks_ISO_T2_5,58,9999,9999,9999,622710872
106,5,10,Ticks_ISO_T2_5,59,9999,9999,9999,623210564
106,5,10,Ticks_ISO_T2_5,60,9999,9999,9999,623710260
106,5,10,Ticks_ISO_T2_5,61,9999,9999,9999,624211004
106,5,10,Ticks_ISO_T2_5,62,9999,9999,9999,624710772
106,5,10,Ticks_ISO_T2_5,63,9999,9999,9999,625210468
106,5,10,Ticks_ISO_T2_5,64,9999,9999,9999,625710160
106,5,10,Ticks_ISO_T2_5,65,9999,9999,9999,626210904
106,5,10,Ticks_ISO_T2_5,66,9999,9999,9999,626710596
106,5,10,Ticks_ISO_T2_5,67,9999,9999,9999,627210292
106,5,10,Ticks_ISO_T2_5,68,9999,9999,9999,627711080
106,5,10,Ticks_ISO_T2_5,69,9999,9999,9999,628210776
106,5,10,Ticks_ISO_T2_5,70,9999,9999,9999,628710472
106,5,10,Ticks_ISO_T2_5,71,9999,9999,9999,629210164
106,5,10,Ticks_ISO_T2_5,72,9999,9999,9999,629710904
106,5,10,Ticks_ISO_T2_5,73,9999,9999,9999,630210676
106,5,10,Ticks_ISO_T2_5,74,9999,9999,9999,630710360
106,5,10,Ticks_ISO_T2_5,75,9999,9999,9999,631211112
106,5,10,Ticks_ISO_T2_5,76,9999,9999,9999,631710804
106,5,10,Ticks_ISO_T2_5,77,9999,9999,9999,632210500
106,5,10,Ticks_ISO_T2_5,78,9999,9999,9999,632710196
106,5,10,Ticks_ISO_T2_5,79,9999,9999,9999,633210932
106,5,10,Ticks_ISO_T2_5,80,9999,9999,9999,633710708
106,5,10,Ticks_ISO_T2_5,81,9999,9999,9999,634210396
106,5,10,Ticks_ISO_T2_5,82,9999,9999,9999,634710092
106,5,10,Ticks_ISO_T2_5,83,9999,9999,9999,635210832
106,5,10,Ticks_ISO_T2_5,84,9999,9999,9999,635710528
106,5,10,Ticks_ISO_T2_5,85,9999,9999,9999,636210228
106,5,10,Ticks_ISO_T2_5,86,9999,9999,9999,636710972
106,5,10,Ticks_ISO_T2_5,87,9999,9999,9999,637210740
106,5,10,Ticks_ISO_T2_5,88,9999,9999,9999,637710428
106,5,10,Ticks_ISO_T2_5,89,9999,9999,9999,638210104
106,5,10,Ticks_ISO_T2_5,90,9999,9999,9999,638710844
106,5,10,Ticks_ISO_T2_5,91,9999,9999,9999,639210612
106,5,10,Ticks_ISO_T2_5,92,9999,9999,9999,639710300
106,5,10,Ticks_ISO_T2_5,93,9999,9999,9999,640211048
106,5,10,Ticks_ISO_T2_5,94,9999,9999,9999,640710744
106,5,10,Ticks_ISO_T2_5,95,9999,9999,9999,641210436
106,5,10,Ticks_ISO_T2_5,96,9999,9999,9999,641710132
106,5,10,Ticks_ISO_T2_5,97,9999,9999,9999,642210872
106,5,10,Ticks_ISO_T2_5,98,9999,9999,9999,642710640
106,5,10,Ticks_ISO_T2_5,99,9999,9999,9999,643210336
106,5,10,Ticks_ISO_T2_5,100,9999,9999,9999,643711076
106,5,10,Ticks_ISO_T2_5,101,9999,9999,9999,644210772
106,5,10,Ticks_ISO_T2_5,102,9999,9999,9999,644710468
106,5,10,Ticks_ISO_T2_5,103,9999,9999,9999,645210160
106,5,10,Ticks_ISO_T2_5,104,9999,9999,9999,645710900
106,5,10,Ticks_ISO_T2_5,105,9999,9999,9999,646210672
106,5,10,Ticks_ISO_T2_5,106,9999,9999,9999,646710360
106,5,10,Ticks_ISO_T2_5,107,9999,9999,9999,647211108
106,5,10,Ticks_ISO_T2_5,108,9999,9999,9999,647710800
106,5,10,Ticks_ISO_T2_5,109,9999,9999,9999,648210496
106,5,10,Ticks_ISO_T2_5,110,9999,9999,9999,648710260
106,5,10,Ticks_ISO_T2_5,111,9999,9999,9999,649210984
106,5,10,Ticks_ISO_T2_5,112,9999,9999,9999,649710672
106,5,10,Ticks_ISO_T2_5,113,9999,9999,9999,650210368
106,5,10,Ticks_ISO_T2_5,114,9999,9999,9999,650710136
106,5,10,Ticks_ISO_T2_5,115,9999,9999,9999,651210808
106,5,10,Ticks_ISO_T2_5,116,9999,9999,9999,651710576
106,5,10,Ticks_ISO_T2_5,117,9999,9999,9999,652210264
106,5,10,Ticks_ISO_T2_5,118,9999,9999,9999,652711012
106,5,10,Ticks_ISO_T2_5,119,9999,9999,9999,653210708
106,5,10,Ticks_ISO_T2_5,120,9999,9999,9999,653710396
106,5,10,Ticks_ISO_T2_5,121,9999,9999,9999,654210168
106,5,10,Ticks_ISO_T2_5,122,9999,9999,9999,654710832
106,5,10,Ticks_ISO_T2_5,123,9999,9999,9999,655210608
106,5,10,Ticks_ISO_T2_5,124,9999,9999,9999,655710304
106,5,10,Ticks_ISO_T2_5,125,9999,9999,9999,656211044
106,5,10,Ticks_ISO_T2_5,126,9999,9999,9999,656710736
106,5,10,Ticks_ISO_T2_5,127,9999,9999,9999,657210428
106,5,10,Ticks_ISO_T2_5,128,9999,9999,9999,657710132
106,5,10,Ticks_ISO_T2_5,129,9999,9999,9999,658210872
106,6,9,Ticks_ISO_T2_8,0,5,42,127,669485324
106,6,9,Ticks_ISO_T2_8,1,5,42,127,670286200
106,6,9,Ticks_ISO_T2_8,2,5,42,127,671085952
106,6,9,Ticks_ISO_T2_8,3,5,42,127,671885784
106,6,9,Ticks_ISO_T2_8,4,5,42,127,672685388
106,6,9,Ticks_ISO_T2_8,5,5,42,127,673486264
106,6,9,Ticks_ISO_T2_8,6,5,42,127,674286020
106,6,9,Ticks_ISO_T2_8,7,5,42,127,675085948
106,6,9,Ticks_ISO_T2_8,8,1,48,61,675865772
106,6,9,Ticks_ISO_T2_8,9,5,42,127,675885476
106,6,9,Ticks_ISO_T2_8,10,1,48,58,676642244
106,6,9,Ticks_ISO_T2_8,11,5,42,127,676686104
106,6,9,Ticks_ISO_T2_8,12,1,48,65,677468828
106,6,9,Ticks_ISO_T2_8,13,5,42,127,677485840
106,6,9,Ticks_ISO_T2_8,14,5,42,127,678285880
106,6,9,Ticks_ISO_T2_8,15,1,48,71,678286848
106,6,9,Ticks_ISO_T2_8,16,5,42,127,679085612
106,6,9,Ticks_ISO_T2_8,17,1,48,53,679111468
106,6,9,Ticks_ISO_T2_8,18,1,48,51,679866228
106,6,9,Ticks_ISO_T2_8,19,5,42,127,679886088
106,6,9,Ticks_ISO_T2_8,20,1,48,54,680685828
106,6,9,Ticks_ISO_T2_8,21,5,42,127,680687316
106,6,9,Ticks_ISO_T2_8,22,5,42,127,681485808
106,6,9,Ticks_ISO_T2_8,23,1,48,55,681489376
106,6,9,Ticks_ISO_T2_8,24,5,42,127,682285692
106,6,9,Ticks_ISO_T2_8,25,1,48,69,682303396
106,6,9,Ticks_ISO_T2_8,26,5,42,127,683086172
106,6,9,Ticks_ISO_T2_8,27,1,48,57,683088188
106,6,9,Ticks_ISO_T2_8,28,1,48,73,683885760
106,6,9,Ticks_ISO_T2_8,29,5,42,127,683887248
106,6,9,Ticks_ISO_T2_8,30,5,42,127,684685564
106,6,9,Ticks_ISO_T2_8,31,1,48,60,684707756
106,6,9,Ticks_ISO_T2_8,32,5,42,127,685485596
106,6,9,Ticks_ISO_T2_8,33,1,48,63,685501884
106,6,9,Ticks_ISO_T2_8,34,5,42,127,686286152
106,6,9,Ticks_ISO_T2_8,35,1,48,70,686297948
106,6,9,Ticks_ISO_T2_8,36,5,42,127,687085812
106,6,9,Ticks_ISO_T2_8,37,1,48,67,687110720
106,6,9,Ticks_ISO_T2_8,38,5,42,127,687885644
106,6,9,Ticks_ISO_T2_8,39,1,48,73,687943892
106,6,9,Ticks_ISO_T2_8,40,5,42,127,688685600
106,6,9,Ticks_ISO_T2_8,41,1,48,70,688699340
106,6,9,Ticks_ISO_T2_8,42,5,42,127,689486084
106,6,9,Ticks_ISO_T2_8,43,1,48,66,689511340
106,6,9,Ticks_ISO_T2_8,44,1,48,71,690278748
106,6,9,Ticks_ISO_T2_8,45,5,42,127,690285884
106,6,9,Ticks_ISO_T2_8,46,5,42,127,691085624
106,6,9,Ticks_ISO_T2_8,47,1,48,72,691093080
106,6,9,Ticks_ISO_T2_8,48,5,42,127,691885356
106,6,9,Ticks_ISO_T2_8,49,1,48,66,691899476
106,6,9,Ticks_ISO_T2_8,50,1,48,70,692672184
106,6,9,Ticks_ISO_T2_8,51,5,42,127,692686056
106,6,9,Ticks_ISO_T2_8,52,5,42,127,693485872
106,6,9,Ticks_ISO_T2_8,53,1,48,79,693497072
106,6,9,Ticks_ISO_T2_8,54,5,42,127,694285556
106,6,9,Ticks_ISO_T2_8,55,1,48,75,694303484
106,6,9,Ticks_ISO_T2_8,56,1,48,67,695081880
106,6,9,Ticks_ISO_T2_8,57,5,42,127,695085504
106,6,9,Ticks_ISO_T2_8,58,1,48,67,695878776
106,6,9,Ticks_ISO_T2_8,59,5,42,127,695886136
106,6,9,Ticks_ISO_T2_8,60,1,48,67,696664744
106,6,9,Ticks_ISO_T2_8,61,5,42,127,696685944
106,6,9,Ticks_ISO_T2_8,62,5,42,127,697485612
106,6,9,Ticks_ISO_T2_8,63,1,48,73,697502196
106,6,9,Ticks_ISO_T2_8,64,5,42,127,698285344
106,6,9,Ticks_ISO_T2_8,65,1,48,62,698296916
106,6,9,Ticks_ISO_T2_8,66,5,42,127,699086124
106,6,9,Ticks_ISO_T2_8,67,1,48,61,699091636
106,6,9,Ticks_ISO_T2_8,68,5,42,127,699885856
106,6,9,Ticks_ISO_T2_8,69,1,48,70,699891896
106,6,9,Ticks_ISO_T2_8,70,5,42,127,700685764
106,6,9,Ticks_ISO_T2_8,71,1,48,60,700702200
106,6,9,Ticks_ISO_T2_8,72,5,42,127,701485348
106,6,9,Ticks_ISO_T2_8,73,1,48,57,701518020
106,6,9,Ticks_ISO_T2_8,74,1,48,75,702270612
106,6,9,Ticks_ISO_T2_8,75,5,42,127,702286052
106,6,9,Ticks_ISO_T2_8,76,1,48,68,703071464
106,6,9,Ticks_ISO_T2_8,77,5,42,127,703085784
106,6,9,Ticks_ISO_T2_8,78,1,48,68,703867756
106,6,9,Ticks_ISO_T2_8,79,5,42,127,703885664
106,6,9,Ticks_ISO_T2_8,80,5,42,127,704685480
106,6,9,Ticks_ISO_T2_8,81,1,48,70,704700340
106,6,9,Ticks_ISO_T2_8,82,5,42,127,705486112
106,6,9,Ticks_ISO_T2_8,83,1,48,76,705501352
106,6,9,Ticks_ISO_T2_8,84,1,48,65,706265832
106,6,9,Ticks_ISO_T2_8,85,5,42,127,706286136
106,6,9,Ticks_ISO_T2_8,86,1,48,66,707066240
106,6,9,Ticks_ISO_T2_8,87,5,42,127,707085672
106,6,9,Ticks_ISO_T2_8,88,5,42,127,707885560
106,6,9,Ticks_ISO_T2_8,89,1,48,62,707913512
106,6,9,Ticks_ISO_T2_8,90,5,42,127,708686264
106,6,9,Ticks_ISO_T2_8,91,1,48,68,708719528
106,6,9,Ticks_ISO_T2_8,92,1,48,64,709451328
106,6,9,Ticks_ISO_T2_8,93,5,42,127,709485920
106,6,9,Ticks_ISO_T2_8,94,5,42,127,710285660
106,6,9,Ticks_ISO_T2_8,95,1,48,72,710296788
106,6,9,Ticks_ISO_T2_8,96,5,42,127,711085468
106,6,9,Ticks_ISO_T2_8,97,1,48,68,711088440
106,6,9,Ticks_ISO_T2_8,98,5,42,127,711886324
106,6,9,Ticks_ISO_T2_8,99,1,48,66,711904852
106,6,9,Ticks_ISO_T2_8,100,1,48,70,712674796
106,6,9,Ticks_ISO_T2_8,101,5,42,127,712685900
106,6,9,Ticks_ISO_T2_8,102,5,42,127,713485668
106,6,9,Ticks_ISO_T2_8,103,1,48,65,713503520
106,6,9,Ticks_ISO_T2_8,104,5,42,127,714285400
106,6,9,Ticks_ISO_T2_8,105,1,48,76,714310288
106,6,9,Ticks_ISO_T2_8,106,1,48,62,715073052
106,6,9,Ticks_ISO_T2_8,107,5,42,127,715086320
106,6,9,Ticks_ISO_T2_8,108,1,48,71,715882432
106,6,9,Ticks_ISO_T2_8,109,5,42,127,715886056
106,6,9,Ticks_ISO_T2_8,110,5,42,127,716685648
106,6,9,Ticks_ISO_T2_8,111,1,48,66,716696316
106,6,9,Ticks_ISO_T2_8,112,5,42,127,717485304
106,6,9,Ticks_ISO_T2_8,113,1,48,66,717496200
106,6,9,Ticks_ISO_T2_8,114,5,42,127,718286232
106,6,9,Ticks_ISO_T2_8,115,1,48,59,718305956
106,6,9,Ticks_ISO_T2_8,116,5,42,127,719086040
106,6,9,Ticks_ISO_T2_8,117,1,48,69,719093348
106,6,9,Ticks_ISO_T2_8,118,1,48,73,719885200
106,6,9,Ticks_ISO_T2_8,119,5,42,127,719886692
106,6,9,Ticks_ISO_T2_8,120,5,42,127,720685308
106,6,9,Ticks_ISO_T2_8,121,1,48,67,720689924
106,6,9,Ticks_ISO_T2_8,122,1,48,73,721478124
106,6,9,Ticks_ISO_T2_8,123,5,42,127,721486380
106,6,9,Ticks_ISO_T2_8,124,1,48,70,722280100
106,6,9,Ticks_ISO_T2_8,125,5,42,127,722285892
106,6,9,Ticks_ISO_T2_8,126,1,48,67,723071232
106,6,9,Ticks_ISO_T2_8,127,5,42,127,723085552
106,6,9,Ticks_ISO_T2_8,128,5,42,127,723885440
106,6,9,Ticks_ISO_T2_8,129,1,48,63,723909804
106,6,9,Ticks_ISO_T2_8,130,1,48,68,724672040
106,6,9,Ticks_ISO_T2_8,131,5,42,127,724686432
106,6,9,Ticks_ISO_T2_8,132,1,48,67,725478956
106,6,9,Ticks_ISO_T2_8,133,5,42,127,725486020
106,6,9,Ticks_ISO_T2_8,134,5,42,127,726285636
106,6,9,Ticks_ISO_T2_8,135,1,48,68,726316136
106,6,9,Ticks_ISO_T2_8,136,5,42,127,727085296
106,6,9,Ticks_ISO_T2_8,137,1,48,68,727096944
106,6,9,Ticks_ISO_T2_8,138,5,42,127,727886372
106,6,9,Ticks_ISO_T2_8,139,1,48,75,727906244
106,6,9,Ticks_ISO_T2_8,140,5,42,127,728686104
106,6,9,Ticks_ISO_T2_8,141,1,48,73,728689004
106,6,9,Ticks_ISO_T2_8,142,5,42,127,729485692
106,6,9,Ticks_ISO_T2_8,143,1,48,70,729497792
106,6,9,Ticks_ISO_T2_8,144,1,48,67,730282764
106,6,9,Ticks_ISO_T2_8,145,5,42,127,730285416
106,6,9,Ticks_ISO_T2_8,146,1,48,75,731078536
106,6,9,Ticks_ISO_T2_8,147,5,42,127,731086344
106,6,9,Ticks_ISO_T2_8,148,1,48,69,731866976
106,6,9,Ticks_ISO_T2_8,149,5,42,127,731886156
106,6,9,Ticks_ISO_T2_8,150,5,42,127,732685772
106,6,9,Ticks_ISO_T2_8,151,1,48,65,732700112
106,6,9,Ticks_ISO_T2_8,152,1,48,71,733472828
106,6,9,Ticks_ISO_T2_8,153,5,42,127,733485424
106,6,9,Ticks_ISO_T2_8,154,5,42,127,734286136
106,6,9,Ticks_ISO_T2_8,155,1,48,68,734291428
106,6,9,Ticks_ISO_T2_8,156,5,42,127,735086092
106,6,9,Ticks_ISO_T2_8,157,1,48,69,735093328
106,6,9,Ticks_ISO_T2_8,158,5,42,127,735885676
106,6,9,Ticks_ISO_T2_8,159,1,48,70,735891644
106,6,9,Ticks_ISO_T2_8,160,1,48,71,736683520
106,6,9,Ticks_ISO_T2_8,161,5,42,127,736685328
106,6,9,Ticks_ISO_T2_8,162,5,42,127,737486264
106,6,9,Ticks_ISO_T2_8,163,1,48,67,737502024
106,6,9,Ticks_ISO_T2_8,164,1,48,67,738281024
106,6,9,Ticks_ISO_T2_8,165,5,42,127,738286216
106,6,9,Ticks_ISO_T2_8,166,1,48,72,739068044
106,6,9,Ticks_ISO_T2_8,167,5,42,127,739085600
106,6,9,Ticks_ISO_T2_8,168,1,48,65,739882088
106,6,9,Ticks_ISO_T2_8,169,5,42,127,739885408
106,6,9,Ticks_ISO_T2_8,170,5,42,127,740686120
106,6,9,Ticks_ISO_T2_8,171,1,48,62,740697468
106,6,9,Ticks_ISO_T2_8,172,5,42,127,741485928
106,6,9,Ticks_ISO_T2_8,173,1,48,66,741499592
106,6,9,Ticks_ISO_T2_8,174,1,48,69,742275896
106,6,9,Ticks_ISO_T2_8,175,5,42,127,742285952
106,6,9,Ticks_ISO_T2_8,176,1,48,66,743080492
106,6,9,Ticks_ISO_T2_8,177,5,42,127,743085388
106,6,9,Ticks_ISO_T2_8,178,5,42,127,743886248
106,6,9,Ticks_ISO_T2_8,179,1,48,65,743901932
106,6,9,Ticks_ISO_T2_8,180,5,42,127,744685980
106,6,9,Ticks_ISO_T2_8,181,1,48,74,744692844
106,6,9,Ticks_ISO_T2_8,182,1,48,68,745461964
106,6,9,Ticks_ISO_T2_8,183,5,42,127,745485952
106,6,9,Ticks_ISO_T2_8,184,5,42,127,746285396
106,6,9,Ticks_ISO_T2_8,185,1,48,70,746290688
106,6,9,Ticks_ISO_T2_8,186,5,42,127,747086400
106,6,9,Ticks_ISO_T2_8,187,1,48,72,747087368
106,6,9,Ticks_ISO_T2_8,188,5,42,127,747885984
106,6,9,Ticks_ISO_T2_8,189,1,48,72,747900696
106,6,9,Ticks_ISO_T2_8,190,1,48,72,748665036
106,6,9,Ticks_ISO_T2_8,191,5,42,127,748685636
106,6,9,Ticks_ISO_T2_8,192,5,42,127,749485380
106,6,9,Ticks_ISO_T2_8,193,1,48,68,749498072
106,6,9,Ticks_ISO_T2_8,194,5,42,127,750286308
106,6,9,Ticks_ISO_T2_8,195,1,48,63,750296984
106,6,9,Ticks_ISO_T2_8,196,5,42,127,751085964
106,6,9,Ticks_ISO_T2_8,197,1,48,69,751114692
106,6,9,Ticks_ISO_T2_8,198,5,42,127,751885800
106,6,9,Ticks_ISO_T2_8,199,1,48,68,751891616
106,6,9,Ticks_ISO_T2_8,200,5,42,127,752685312
106,6,9,Ticks_ISO_T2_8,201,1,48,63,752711992
106,6,9,Ticks_ISO_T2_8,202,5,42,127,753486312
106,6,9,Ticks_ISO_T2_8,203,1,48,70,753488684
106,6,9,Ticks_ISO_T2_8,204,1,48,69,754281372
106,6,9,Ticks_ISO_T2_8,205,5,42,127,754285968
106,6,9,Ticks_ISO_T2_8,206,5,42,127,755085780
106,6,9,Ticks_ISO_T2_8,207,1,48,70,755093016
106,6,9,Ticks_ISO_T2_8,208,1,48,68,755884464
106,6,9,Ticks_ISO_T2_8,209,5,42,127,755885956
106,6,9,Ticks_ISO_T2_8,210,5,42,127,756686144
106,6,9,Ticks_ISO_T2_8,211,1,48,65,756689268
106,6,9,Ticks_ISO_T2_8,212,5,42,127,757486100
106,6,9,Ticks_ISO_T2_8,213,1,48,66,757487072
106,6,9,Ticks_ISO_T2_8,214,1,48,71,758265980
106,6,9,Ticks_ISO_T2_8,215,5,42,127,758285780
106,6,9,Ticks_ISO_T2_8,216,1,48,59,759082416
106,6,9,Ticks_ISO_T2_8,217,5,42,127,759085440
106,6,9,Ticks_ISO_T2_8,218,1,48,61,759885852
106,6,9,Ticks_ISO_T2_8,219,5,42,127,759887268
106,6,9,Ticks_ISO_T2_8,220,1,48,67,760662804
106,6,9,Ticks_ISO_T2_8,221,5,42,127,760686024
106,6,9,Ticks_ISO_T2_8,222,5,42,127,761485616
106,6,9,Ticks_ISO_T2_8,223,1,48,65,761512372
106,6,9,Ticks_ISO_T2_8,224,5,42,127,762285352
106,6,9,Ticks_ISO_T2_8,225,1,48,69,762286840
106,6,9,Ticks_ISO_T2_8,226,1,48,64,763079656
106,6,9,Ticks_ISO_T2_8,227,5,42,127,763086124
106,6,9,Ticks_ISO_T2_8,228,1,48,67,763877224
106,6,9,Ticks_ISO_T2_8,229,5,42,127,763886008
106,6,9,Ticks_ISO_T2_8,230,5,42,127,764685844
106,6,9,Ticks_ISO_T2_8,231,1,48,69,764697568
106,6,9,Ticks_ISO_T2_8,232,1,48,65,765465344
106,6,9,Ticks_ISO_T2_8,0,9999,9999,9999,669483108
106,6,9,Ticks_ISO_T2_8,1,9999,9999,9999,670283836
106,6,9,Ticks_ISO_T2_8,2,9999,9999,9999,671083592
106,6,9,Ticks_ISO_T2_8,3,9999,9999,9999,671883344
106,6,9,Ticks_ISO_T2_8,4,9999,9999,9999,672683100
106,6,9,Ticks_ISO_T2_8,5,9999,9999,9999,673483828
106,6,9,Ticks_ISO_T2_8,6,9999,9999,9999,674283584
106,6,9,Ticks_ISO_T2_8,7,9999,9999,9999,675083364
106,6,9,Ticks_ISO_T2_8,8,9999,9999,9999,675883112
106,6,9,Ticks_ISO_T2_8,9,9999,9999,9999,676683892
106,6,9,Ticks_ISO_T2_8,10,9999,9999,9999,677483628
106,6,9,Ticks_ISO_T2_8,11,9999,9999,9999,678283368
106,6,9,Ticks_ISO_T2_8,12,9999,9999,9999,679083100
106,6,9,Ticks_ISO_T2_8,13,9999,9999,9999,679883876
106,6,9,Ticks_ISO_T2_8,14,9999,9999,9999,680683612
106,6,9,Ticks_ISO_T2_8,15,9999,9999,9999,681483372
106,6,9,Ticks_ISO_T2_8,16,9999,9999,9999,682283108
106,6,9,Ticks_ISO_T2_8,17,9999,9999,9999,683083884
106,6,9,Ticks_ISO_T2_8,18,9999,9999,9999,683883620
106,6,9,Ticks_ISO_T2_8,19,9999,9999,9999,684683352
106,6,9,Ticks_ISO_T2_8,20,9999,9999,9999,685483084
106,6,9,Ticks_ISO_T2_8,21,9999,9999,9999,686283864
106,6,9,Ticks_ISO_T2_8,22,9999,9999,9999,687083596
106,6,9,Ticks_ISO_T2_8,23,9999,9999,9999,687883356
106,6,9,Ticks_ISO_T2_8,24,9999,9999,9999,688683088
106,6,9,Ticks_ISO_T2_8,25,9999,9999,9999,689483868
106,6,9,Ticks_ISO_T2_8,26,9999,9999,9999,690283596
106,6,9,Ticks_ISO_T2_8,27,9999,9999,9999,691083336
106,6,9,Ticks_ISO_T2_8,28,9999,9999,9999,691883068
106,6,9,Ticks_ISO_T2_8,29,9999,9999,9999,692683840
106,6,9,Ticks_ISO_T2_8,30,9999,9999,9999,693483584
106,6,9,Ticks_ISO_T2_8,31,9999,9999,9999,694283344
106,6,9,Ticks_ISO_T2_8,32,9999,9999,9999,695083068
106,6,9,Ticks_ISO_T2_8,33,9999,9999,9999,695883848
106,6,9,Ticks_ISO_T2_8,34,9999,9999,9999,696683584
106,6,9,Ticks_ISO_T2_8,35,9999,9999,9999,697483324
106,6,9,Ticks_ISO_T2_8,36,9999,9999,9999,698283056
106,6,9,Ticks_ISO_T2_8,37,9999,9999,9999,699083836
106,6,9,Ticks_ISO_T2_8,38,9999,9999,9999,699883568
106,6,9,Ticks_ISO_T2_8,39,9999,9999,9999,700683328
106,6,9,Ticks_ISO_T2_8,40,9999,9999,9999,701483060
106,6,9,Ticks_ISO_T2_8,41,9999,9999,9999,702283836
106,6,9,Ticks_ISO_T2_8,42,9999,9999,9999,703083568
106,6,9,Ticks_ISO_T2_8,43,9999,9999,9999,703883376
106,6,9,Ticks_ISO_T2_8,44,9999,9999,9999,704683116
106,6,9,Ticks_ISO_T2_8,45,9999,9999,9999,705483824
106,6,9,Ticks_ISO_T2_8,46,9999,9999,9999,706283624
106,6,9,Ticks_ISO_T2_8,47,9999,9999,9999,707083384
106,6,9,Ticks_ISO_T2_8,48,9999,9999,9999,707883124
106,6,9,Ticks_ISO_T2_8,49,9999,9999,9999,708683828
106,6,9,Ticks_ISO_T2_8,50,9999,9999,9999,709483632
106,6,9,Ticks_ISO_T2_8,51,9999,9999,9999,710283372
106,6,9,Ticks_ISO_T2_8,52,9999,9999,9999,711083104
106,6,9,Ticks_ISO_T2_8,53,9999,9999,9999,711883888
106,6,9,Ticks_ISO_T2_8,54,9999,9999,9999,712683612
106,6,9,Ticks_ISO_T2_8,55,9999,9999,9999,713483380
106,6,9,Ticks_ISO_T2_8,56,9999,9999,9999,714283112
106,6,9,Ticks_ISO_T2_8,57,9999,9999,9999,715083884
106,6,9,Ticks_ISO_T2_8,58,9999,9999,9999,715883620
106,6,9,Ticks_ISO_T2_8,59,9999,9999,9999,716683360
106,6,9,Ticks_ISO_T2_8,60,9999,9999,9999,717483092
106,6,9,Ticks_ISO_T2_8,61,9999,9999,9999,718283872
106,6,9,Ticks_ISO_T2_8,62,9999,9999,9999,719083604
106,6,9,Ticks_ISO_T2_8,63,9999,9999,9999,719883364
106,6,9,Ticks_ISO_T2_8,64,9999,9999,9999,720683096
106,6,9,Ticks_ISO_T2_8,65,9999,9999,9999,721483872
106,6,9,Ticks_ISO_T2_8,66,9999,9999,9999,722283604
106,6,9,Ticks_ISO_T2_8,67,9999,9999,9999,723083336
106,6,9,Ticks_ISO_T2_8,68,9999,9999,9999,723883076
106,6,9,Ticks_ISO_T2_8,69,9999,9999,9999,724683848
106,6,9,Ticks_ISO_T2_8,70,9999,9999,9999,725483584
106,6,9,Ticks_ISO_T2_8,71,9999,9999,9999,726283348
106,6,9,Ticks_ISO_T2_8,72,9999,9999,9999,727083080
106,6,9,Ticks_ISO_T2_8,73,9999,9999,9999,727883860
106,6,9,Ticks_ISO_T2_8,74,9999,9999,9999,728683596
106,6,9,Ticks_ISO_T2_8,75,9999,9999,9999,729483328
106,6,9,Ticks_ISO_T2_8,76,9999,9999,9999,730283056
106,6,9,Ticks_ISO_T2_8,77,9999,9999,9999,731083836
106,6,9,Ticks_ISO_T2_8,78,9999,9999,9999,731883568
106,6,9,Ticks_ISO_T2_8,79,9999,9999,9999,732683332
106,6,9,Ticks_ISO_T2_8,80,9999,9999,9999,733483064
106,6,9,Ticks_ISO_T2_8,81,9999,9999,9999,734283848
106,6,9,Ticks_ISO_T2_8,82,9999,9999,9999,735083580
106,6,9,Ticks_ISO_T2_8,83,9999,9999,9999,735883316
106,6,9,Ticks_ISO_T2_8,84,9999,9999,9999,736683064
106,6,9,Ticks_ISO_T2_8,85,9999,9999,9999,737483828
106,6,9,Ticks_ISO_T2_8,86,9999,9999,9999,738283628
106,6,9,Ticks_ISO_T2_8,87,9999,9999,9999,739083312
106,6,9,Ticks_ISO_T2_8,88,9999,9999,9999,739883120
106,6,9,Ticks_ISO_T2_8,89,9999,9999,9999,740683832
106,6,9,Ticks_ISO_T2_8,90,9999,9999,9999,741483640
106,6,9,Ticks_ISO_T2_8,91,9999,9999,9999,742283368
106,6,9,Ticks_ISO_T2_8,92,9999,9999,9999,743083100
106,6,9,Ticks_ISO_T2_8,93,9999,9999,9999,743883884
106,6,9,Ticks_ISO_T2_8,94,9999,9999,9999,744683616
106,6,9,Ticks_ISO_T2_8,95,9999,9999,9999,745483368
106,6,9,Ticks_ISO_T2_8,96,9999,9999,9999,746283108
106,6,9,Ticks_ISO_T2_8,97,9999,9999,9999,747083888
106,6,9,Ticks_ISO_T2_8,98,9999,9999,9999,747883620
106,6,9,Ticks_ISO_T2_8,99,9999,9999,9999,748683352
106,6,9,Ticks_ISO_T2_8,100,9999,9999,9999,749483092
106,6,9,Ticks_ISO_T2_8,101,9999,9999,9999,750283872
106,6,9,Ticks_ISO_T2_8,102,9999,9999,9999,751083604
106,6,9,Ticks_ISO_T2_8,103,9999,9999,9999,751883360
106,6,9,Ticks_ISO_T2_8,104,9999,9999,9999,752683096
106,6,9,Ticks_ISO_T2_8,105,9999,9999,9999,753483876
106,6,9,Ticks_ISO_T2_8,106,9999,9999,9999,754283608
106,6,9,Ticks_ISO_T2_8,107,9999,9999,9999,755083344
106,6,9,Ticks_ISO_T2_8,108,9999,9999,9999,755883080
106,6,9,Ticks_ISO_T2_8,109,9999,9999,9999,756683856
106,6,9,Ticks_ISO_T2_8,110,9999,9999,9999,757483592
106,6,9,Ticks_ISO_T2_8,111,9999,9999,9999,758283344
106,6,9,Ticks_ISO_T2_8,112,9999,9999,9999,759083076
106,6,9,Ticks_ISO_T2_8,113,9999,9999,9999,759883864
106,6,9,Ticks_ISO_T2_8,114,9999,9999,9999,760683588
106,6,9,Ticks_ISO_T2_8,115,9999,9999,9999,761483328
106,6,9,Ticks_ISO_T2_8,116,9999,9999,9999,762283064
106,6,9,Ticks_ISO_T2_8,117,9999,9999,9999,763083836
106,6,9,Ticks_ISO_T2_8,118,9999,9999,9999,763883572
106,6,9,Ticks_ISO_T2_8,119,9999,9999,9999,764683336
106,7,23,Ticks_Phase_5,0,5,42,127,774805832
106,7,23,Ticks_Phase_5,1,5,42,127,775305544
106,7,23,Ticks_Phase_5,2,5,42,127,775806224
106,7,23,Ticks_Phase_5,3,5,42,127,776306008
106,7,23,Ticks_Phase_5,4,5,42,127,776805720
106,7,23,Ticks_Phase_5,5,5,42,127,777305576
106,7,23,Ticks_Phase_5,6,5,42,127,777806184
106,7,23,Ticks_Phase_5,7,5,42,127,778305820
106,7,23,Ticks_Phase_5,8,5,42,127,778805604
106,7,23,Ticks_Phase_5,9,1,48,58,778816892
106,7,23,Ticks_Phase_5,10,5,42,127,779306636
106,7,23,Ticks_Phase_5,11,1,48,60,779326688
106,7,23,Ticks_Phase_5,12,5,42,127,779805952
106,7,23,Ticks_Phase_5,13,1,48,66,779814764
106,7,23,Ticks_Phase_5,14,5,42,127,780305640
106,7,23,Ticks_Phase_5,15,1,48,58,780310180
106,7,23,Ticks_Phase_5,16,5,42,127,780805628
106,7,23,Ticks_Phase_5,17,1,48,67,780822672
106,7,23,Ticks_Phase_5,18,5,42,127,781306336
106,7,23,Ticks_Phase_5,19,1,48,60,781336820
106,7,23,Ticks_Phase_5,20,5,42,127,781805800
106,7,23,Ticks_Phase_5,21,1,48,63,781820896
106,7,23,Ticks_Phase_5,22,5,42,127,782305688
106,7,23,Ticks_Phase_5,23,1,48,61,782329104
106,7,23,Ticks_Phase_5,24,5,42,127,782806648
106,7,23,Ticks_Phase_5,25,1,48,64,782830060
106,7,23,Ticks_Phase_5,26,5,42,127,783305964
106,7,23,Ticks_Phase_5,27,1,48,59,783314404
106,7,23,Ticks_Phase_5,28,1,48,68,783798872
106,7,23,Ticks_Phase_5,29,5,42,127,783805940
106,7,23,Ticks_Phase_5,30,5,42,127,784305560
106,7,23,Ticks_Phase_5,31,1,48,59,784310172
106,7,23,Ticks_Phase_5,32,5,42,127,784806220
106,7,23,Ticks_Phase_5,33,1,48,66,784824772
106,7,23,Ticks_Phase_5,34,5,42,127,785305908
106,7,23,Ticks_Phase_5,35,1,48,59,785314276
106,7,23,Ticks_Phase_5,36,1,48,69,785800764
106,7,23,Ticks_Phase_5,37,5,42,127,785805588
106,7,23,Ticks_Phase_5,38,5,42,127,786306632
106,7,23,Ticks_Phase_5,39,1,48,65,786308348
106,7,23,Ticks_Phase_5,40,5,42,127,786816652
106,7,23,Ticks_Phase_5,41,1,48,58,786827568
106,7,23,Ticks_Phase_5,42,1,48,65,787309940
106,7,23,Ticks_Phase_5,43,5,42,127,787315960
106,7,23,Ticks_Phase_5,44,1,48,61,787813608
106,7,23,Ticks_Phase_5,45,5,42,127,787815724
106,7,23,Ticks_Phase_5,46,5,42,127,788315644
106,7,23,Ticks_Phase_5,47,1,48,65,788332836
106,7,23,Ticks_Phase_5,48,5,42,127,788816528
106,7,23,Ticks_Phase_5,49,1,48,62,788833044
106,7,23,Ticks_Phase_5,50,1,48,62,789314172
106,7,23,Ticks_Phase_5,51,5,42,127,789315912
106,7,23,Ticks_Phase_5,52,5,42,127,789805572
106,7,23,Ticks_Phase_5,53,1,48,68,789822912
106,7,23,Ticks_Phase_5,54,5,42,127,790306232
106,7,23,Ticks_Phase_5,55,1,48,52,790334820
106,7,23,Ticks_Phase_5,56,5,42,127,790805768
106,7,23,Ticks_Phase_5,57,1,48,56,790807712
106,7,23,Ticks_Phase_5,58,1,48,67,791298680
106,7,23,Ticks_Phase_5,59,5,42,127,791305676
106,7,23,Ticks_Phase_5,60,1,48,60,791802984
106,7,23,Ticks_Phase_5,61,5,42,127,791806484
106,7,23,Ticks_Phase_5,62,1,48,59,792298560
106,7,23,Ticks_Phase_5,63,5,42,127,792306000
106,7,23,Ticks_Phase_5,64,1,48,67,792805012
106,7,23,Ticks_Phase_5,65,5,42,127,792806588
106,7,23,Ticks_Phase_5,66,5,42,127,793305680
106,7,23,Ticks_Phase_5,67,1,48,65,793322652
106,7,23,Ticks_Phase_5,68,5,42,127,793806188
106,7,23,Ticks_Phase_5,69,1,48,57,793817180
106,7,23,Ticks_Phase_5,70,5,42,127,794306028
106,7,23,Ticks_Phase_5,71,1,48,55,794309752
106,7,23,Ticks_Phase_5,72,5,42,127,794805568
106,7,23,Ticks_Phase_5,73,1,48,62,794819468
106,7,23,Ticks_Phase_5,74,1,48,65,795289644
106,7,23,Ticks_Phase_5,75,5,42,127,795306444
106,7,23,Ticks_Phase_5,76,5,42,127,795805988
106,7,23,Ticks_Phase_5,77,1,48,64,795829104
106,7,23,Ticks_Phase_5,78,5,42,127,796305752
106,7,23,Ticks_Phase_5,79,1,48,53,796355608
106,7,23,Ticks_Phase_5,80,5,42,127,796805664
106,7,23,Ticks_Phase_5,81,1,48,55,796828856
106,7,23,Ticks_Phase_5,82,1,48,65,797299924
106,7,23,Ticks_Phase_5,83,5,42,127,797306168
106,7,23,Ticks_Phase_5,84,1,48,66,797790324
106,7,23,Ticks_Phase_5,85,5,42,127,797805932
106,7,23,Ticks_Phase_5,86,1,48,56,798295408
106,7,23,Ticks_Phase_5,87,5,42,127,798305768
106,7,23,Ticks_Phase_5,88,1,48,64,798799284
106,7,23,Ticks_Phase_5,89,5,42,127,798815716
106,7,23,Ticks_Phase_5,90,1,48,59,799316680
106,7,23,Ticks_Phase_5,91,5,42,127,799317872
106,7,23,Ticks_Phase_5,92,5,42,127,799816072
106,7,23,Ticks_Phase_5,93,1,48,62,799821732
106,7,23,Ticks_Phase_5,94,1,48,60,800302168
106,7,23,Ticks_Phase_5,95,5,42,127,800315828
106,7,23,Ticks_Phase_5,96,1,48,52,800789876
106,7,23,Ticks_Phase_5,97,5,42,127,800815740
106,7,23,Ticks_Phase_5,98,1,48,65,801283504
106,7,23,Ticks_Phase_5,99,5,42,127,801316252
106,7,23,Ticks_Phase_5,100,1,48,67,801799212
106,7,23,Ticks_Phase_5,101,5,42,127,801815864
106,7,23,Ticks_Phase_5,102,1,48,66,802275808
106,7,23,Ticks_Phase_5,103,5,42,127,802315704
106,7,23,Ticks_Phase_5,104,1,48,59,802793012
106,7,23,Ticks_Phase_5,105,5,42,127,802816440
106,7,23,Ticks_Phase_5,106,1,48,69,803312096
106,7,23,Ticks_Phase_5,107,5,42,127,803316024
106,7,23,Ticks_Phase_5,108,5,42,127,803815720
106,7,23,Ticks_Phase_5,109,1,48,66,803816612
106,7,23,Ticks_Phase_5,110,5,42,127,804315632
106,7,23,Ticks_Phase_5,111,1,48,65,804318152
106,7,23,Ticks_Phase_5,112,5,42,127,804816292
106,7,23,Ticks_Phase_5,113,1,48,55,804823536
106,7,23,Ticks_Phase_5,114,5,42,127,805315828
106,7,23,Ticks_Phase_5,115,1,48,62,805337448
106,7,23,Ticks_Phase_5,116,5,42,127,805815592
106,7,23,Ticks_Phase_5,117,1,48,61,805828224
106,7,23,Ticks_Phase_5,118,5,42,127,806316328
106,7,23,Ticks_Phase_5,119,1,48,62,806327236
106,7,23,Ticks_Phase_5,120,1,48,70,806815980
106,7,23,Ticks_Phase_5,121,5,42,127,806835628
106,7,23,Ticks_Phase_5,122,1,48,68,807323076
106,7,23,Ticks_Phase_5,123,5,42,127,807336512
106,7,23,Ticks_Phase_5,124,1,48,60,807826668
106,7,23,Ticks_Phase_5,125,5,42,127,807835976
106,7,23,Ticks_Phase_5,126,5,42,127,808335820
106,7,23,Ticks_Phase_5,127,1,48,62,808342228
106,7,23,Ticks_Phase_5,128,5,42,127,808835436
106,7,23,Ticks_Phase_5,129,1,48,54,808845000
106,7,23,Ticks_Phase_5,130,5,42,127,809336392
106,7,23,Ticks_Phase_5,131,1,48,77,809344684
106,7,23,Ticks_Phase_5,132,1,48,64,809817104
106,7,23,Ticks_Phase_5,133,5,42,127,809835776
106,7,23,Ticks_Phase_5,134,5,42,127,810335620
106,7,23,Ticks_Phase_5,135,1,48,54,810340984
106,7,23,Ticks_Phase_5,136,5,42,127,810836284
106,7,23,Ticks_Phase_5,137,1,48,56,810868088
106,7,23,Ticks_Phase_5,138,5,42,127,811336196
106,7,23,Ticks_Phase_5,139,1,48,56,811348600
106,7,23,Ticks_Phase_5,140,1,48,62,811826712
106,7,23,Ticks_Phase_5,141,5,42,127,811835800
106,7,23,Ticks_Phase_5,142,5,42,127,812335644
106,7,23,Ticks_Phase_5,143,1,48,60,812348432
106,7,23,Ticks_Phase_5,144,5,42,127,812836308
106,7,23,Ticks_Phase_5,145,1,48,66,812849612
106,7,23,Ticks_Phase_5,146,5,42,127,813335844
106,7,23,Ticks_Phase_5,147,1,48,58,813356120
106,7,23,Ticks_Phase_5,148,1,48,66,813826664
106,7,23,Ticks_Phase_5,149,5,42,127,813835528
106,7,23,Ticks_Phase_5,150,1,48,60,814316892
106,7,23,Ticks_Phase_5,151,5,42,127,814336412
106,7,23,Ticks_Phase_5,152,1,48,69,814836304
106,7,23,Ticks_Phase_5,153,5,42,127,814837568
106,7,23,Ticks_Phase_5,154,5,42,127,815316296
106,7,23,Ticks_Phase_5,155,1,48,62,815335144
106,7,23,Ticks_Phase_5,156,5,42,127,815816060
106,7,23,Ticks_Phase_5,157,1,48,61,815819104
106,7,23,Ticks_Phase_5,158,5,42,127,816315744
106,7,23,Ticks_Phase_5,159,1,48,63,816319988
106,7,23,Ticks_Phase_5,160,5,42,127,816815508
106,7,23,Ticks_Phase_5,161,1,48,69,816821324
106,7,23,Ticks_Phase_5,162,1,48,66,817306852
106,7,23,Ticks_Phase_5,163,5,42,127,817316236
106,7,23,Ticks_Phase_5,164,1,48,67,817790508
106,7,23,Ticks_Phase_5,165,5,42,127,817816000
106,7,23,Ticks_Phase_5,166,5,42,127,818315620
106,7,23,Ticks_Phase_5,167,1,48,64,818332744
106,7,23,Ticks_Phase_5,168,1,48,60,818811152
106,7,23,Ticks_Phase_5,169,5,42,127,818816352
106,7,23,Ticks_Phase_5,170,1,48,60,819278788
106,7,23,Ticks_Phase_5,171,5,42,127,819316188
106,7,23,Ticks_Phase_5,172,1,48,68,819789632
106,7,23,Ticks_Phase_5,173,5,42,127,819815652
106,7,23,Ticks_Phase_5,174,1,48,56,820296968
106,7,23,Ticks_Phase_5,175,5,42,127,820315564
106,7,23,Ticks_Phase_5,176,1,48,61,820775088
106,7,23,Ticks_Phase_5,177,5,42,127,820816152
106,7,23,Ticks_Phase_5,178,5,42,127,821315996
106,7,23,Ticks_Phase_5,179,1,48,64,821318588
106,7,23,Ticks_Phase_5,180,5,42,127,821815684
106,7,23,Ticks_Phase_5,181,1,48,61,821832576
106,7,23,Ticks_Phase_5,182,5,42,127,822316348
106,7,23,Ticks_Phase_5,183,1,48,65,822336464
106,7,23,Ticks_Phase_5,184,5,42,127,822816328
106,7,23,Ticks_Phase_5,185,1,48,64,822828368
106,7,23,Ticks_Phase_5,186,5,42,127,823265596
106,7,23,Ticks_Phase_5,187,1,48,63,823320560
106,7,23,Ticks_Phase_5,188,5,42,127,823766484
106,7,23,Ticks_Phase_5,189,1,48,63,823776944
106,7,23,Ticks_Phase_5,190,1,48,59,824249660
106,7,23,Ticks_Phase_5,191,5,42,127,824266160
106,7,23,Ticks_Phase_5,192,1,48,60,824743348
106,7,23,Ticks_Phase_5,193,5,42,127,824765700
106,7,23,Ticks_Phase_5,194,1,48,65,825250452
106,7,23,Ticks_Phase_5,195,5,42,127,825265464
106,7,23,Ticks_Phase_5,196,5,42,127,825766132
106,7,23,Ticks_Phase_5,197,1,48,61,825767100
106,7,23,Ticks_Phase_5,198,1,48,62,826257024
106,7,23,Ticks_Phase_5,199,5,42,127,826266108
106,7,23,Ticks_Phase_5,200,1,48,69,826765204
106,7,23,Ticks_Phase_5,201,5,42,127,826766624
106,7,23,Ticks_Phase_5,202,5,42,127,827266396
106,7,23,Ticks_Phase_5,203,1,48,65,827272356
106,7,23,Ticks_Phase_5,204,1,48,61,827767692
106,7,23,Ticks_Phase_5,205,5,42,127,827776408
106,7,23,Ticks_Phase_5,206,5,42,127,828276028
106,7,23,Ticks_Phase_5,207,1,48,60,828276996
106,7,23,Ticks_Phase_5,208,5,42,127,828775940
106,7,23,Ticks_Phase_5,209,1,48,59,828780256
106,7,23,Ticks_Phase_5,210,5,42,127,829275628
106,7,23,Ticks_Phase_5,211,1,48,58,829297700
106,7,23,Ticks_Phase_5,212,1,48,65,829775008
106,7,23,Ticks_Phase_5,213,5,42,127,829776356
106,7,23,Ticks_Phase_5,214,5,42,127,830275976
106,7,23,Ticks_Phase_5,215,1,48,64,830288088
106,7,23,Ticks_Phase_5,216,1,48,63,830774836
106,7,23,Ticks_Phase_5,217,5,42,127,830776180
106,7,23,Ticks_Phase_5,218,1,48,60,831271420
106,7,23,Ticks_Phase_5,219,5,42,127,831276324
106,7,23,Ticks_Phase_5,220,5,42,127,831826340
106,7,23,Ticks_Phase_5,221,5,42,127,832326196
106,7,23,Ticks_Phase_5,222,5,42,127,832825684
106,7,23,Ticks_Phase_5,223,5,42,127,833325468
106,7,23,Ticks_Phase_5,224,5,42,127,833826152
106,7,23,Ticks_Phase_5,225,1,48,49,833834888
106,7,23,Ticks_Phase_5,226,1,48,58,834320636
106,7,23,Ticks_Phase_5,227,5,42,127,834326132
106,7,23,Ticks_Phase_5,228,1,48,49,834815608
106,7,23,Ticks_Phase_5,229,5,42,127,834825448
106,7,23,Ticks_Phase_5,230,1,48,51,835322156
106,7,23,Ticks_Phase_5,231,5,42,127,835326404
106,7,23,Ticks_Phase_5,232,1,48,57,835818028
106,7,23,Ticks_Phase_5,233,5,42,127,835826288
106,7,23,Ticks_Phase_5,234,1,48,45,836322352
106,7,23,Ticks_Phase_5,235,5,42,127,836325680
106,7,23,Ticks_Phase_5,236,5,42,127,836825600
106,7,23,Ticks_Phase_5,237,1,48,46,836828720
106,7,23,Ticks_Phase_5,238,5,42,127,837326332
106,7,23,Ticks_Phase_5,239,1,48,45,837341804
106,7,23,Ticks_Phase_5,240,5,42,127,837826096
106,7,23,Ticks_Phase_5,241,5,42,127,838325508
106,7,23,Ticks_Phase_5,242,5,42,127,838826336
106,7,23,Ticks_Phase_5,243,5,42,127,839326196
106,7,23,Ticks_Phase_5,244,1,48,49,839803548
106,7,23,Ticks_Phase_5,245,5,42,127,839825976
106,7,23,Ticks_Phase_5,246,1,48,56,840323084
106,7,23,Ticks_Phase_5,247,5,42,127,840425996
106,7,23,Ticks_Phase_5,248,1,48,43,840876772
106,7,23,Ticks_Phase_5,249,5,42,127,840925552
106,7,23,Ticks_Phase_5,250,1,48,51,841394512
106,7,23,Ticks_Phase_5,251,5,42,127,841426436
106,7,23,Ticks_Phase_5,252,5,42,127,841926132
106,7,23,Ticks_Phase_5,253,1,48,55,841934124
106,7,23,Ticks_Phase_5,254,5,42,127,842425820
106,7,23,Ticks_Phase_5,255,1,48,57,842442864
106,7,23,Ticks_Phase_5,256,5,42,127,842925356
106,7,23,Ticks_Phase_5,257,1,48,47,842942924
106,7,23,Ticks_Phase_5,258,5,42,127,843426092
106,7,23,Ticks_Phase_5,259,1,48,59,843437528
106,7,23,Ticks_Phase_5,260,5,42,127,843926004
106,7,23,Ticks_Phase_5,261,1,48,62,843952932
106,7,23,Ticks_Phase_5,262,5,42,127,844425616
106,7,23,Ticks_Phase_5,263,1,48,57,844438996
106,7,23,Ticks_Phase_5,264,5,42,127,844926204
106,7,23,Ticks_Phase_5,265,1,48,62,844934120
106,7,23,Ticks_Phase_5,266,5,42,127,845426116
106,7,23,Ticks_Phase_5,267,1,48,53,845442032
106,7,23,Ticks_Phase_5,268,5,42,127,845925952
106,7,23,Ticks_Phase_5,269,1,48,57,845927144
106,7,23,Ticks_Phase_5,270,5,42,127,846425564
106,7,23,Ticks_Phase_5,271,1,48,51,846444568
106,7,23,Ticks_Phase_5,272,5,42,127,846926300
106,7,23,Ticks_Phase_5,273,1,48,50,846934060
106,7,23,Ticks_Phase_5,274,5,42,127,847425916
106,7,23,Ticks_Phase_5,275,1,48,53,847436300
106,7,23,Ticks_Phase_5,276,5,42,127,847925752
106,7,23,Ticks_Phase_5,277,1,48,53,847963012
106,7,23,Ticks_Phase_5,278,5,42,127,848426264
106,7,23,Ticks_Phase_5,279,1,48,53,848460384
106,7,23,Ticks_Phase_5,280,5,42,127,848926028
106,7,23,Ticks_Phase_5,281,1,48,54,848927368
106,7,23,Ticks_Phase_5,282,1,48,51,849422224
106,7,23,Ticks_Phase_5,283,5,42,127,849425856
106,7,23,Ticks_Phase_5,284,5,42,127,849826080
106,7,23,Ticks_Phase_5,285,1,48,54,849935192
106,7,23,Ticks_Phase_5,286,5,42,127,850325916
106,7,23,Ticks_Phase_5,287,5,42,127,850825700
106,7,23,Ticks_Phase_5,288,5,42,127,851326308
106,7,23,Ticks_Phase_5,289,1,48,57,851803968
106,7,23,Ticks_Phase_5,290,5,42,127,851825936
106,7,23,Ticks_Phase_5,291,1,48,59,852304704
106,7,23,Ticks_Phase_5,292,5,42,127,852325848
106,7,23,Ticks_Phase_5,293,1,48,53,852791276
106,7,23,Ticks_Phase_5,294,5,42,127,852825388
106,7,23,Ticks_Phase_5,295,1,48,54,853300556
106,7,23,Ticks_Phase_5,296,5,42,127,853326120
106,7,23,Ticks_Phase_5,297,1,48,52,853805860
106,7,23,Ticks_Phase_5,298,5,42,127,853825960
106,7,23,Ticks_Phase_5,299,1,48,59,854303820
106,7,23,Ticks_Phase_5,300,5,42,127,854325720
106,7,23,Ticks_Phase_5,301,1,48,59,854817444
106,7,23,Ticks_Phase_5,302,5,42,127,854826232
106,7,23,Ticks_Phase_5,303,1,48,60,855321392
106,7,23,Ticks_Phase_5,304,5,42,127,855326220
106,7,23,Ticks_Phase_5,305,1,48,58,855812468
106,7,23,Ticks_Phase_5,306,5,42,127,855825832
106,7,23,Ticks_Phase_5,307,1,48,57,856321668
106,7,23,Ticks_Phase_5,308,5,42,127,856325520
106,7,23,Ticks_Phase_5,309,1,48,61,856818564
106,7,23,Ticks_Phase_5,310,5,42,127,856826180
106,7,23,Ticks_Phase_5,311,5,42,127,857325852
106,7,23,Ticks_Phase_5,312,1,48,51,857344428
106,7,23,Ticks_Phase_5,313,5,42,127,857825760
106,7,23,Ticks_Phase_5,314,1,48,29,857852344
106,7,23,Ticks_Phase_5,315,1,48,39,858326500
106,7,23,Ticks_Phase_5,316,5,42,127,858327836
106,7,23,Ticks_Phase_5,317,5,42,127,858825960
106,7,23,Ticks_Phase_5,318,5,42,127,859325896
106,7,23,Ticks_Phase_5,0,9999,9999,9999,774803544
106,7,23,Ticks_Phase_5,1,9999,9999,9999,775303256
106,7,23,Ticks_Phase_5,2,9999,9999,9999,775804012
106,7,23,Ticks_Phase_5,3,9999,9999,9999,776303720
106,7,23,Ticks_Phase_5,4,9999,9999,9999,776803432
106,7,23,Ticks_Phase_5,5,9999,9999,9999,777303140
106,7,23,Ticks_Phase_5,6,9999,9999,9999,777803896
106,7,23,Ticks_Phase_5,7,9999,9999,9999,778303608
106,7,23,Ticks_Phase_5,8,9999,9999,9999,778803316
106,7,23,Ticks_Phase_5,9,9999,9999,9999,779304052
106,7,23,Ticks_Phase_5,10,9999,9999,9999,779803740
106,7,23,Ticks_Phase_5,11,9999,9999,9999,780303428
106,7,23,Ticks_Phase_5,12,9999,9999,9999,780803192
106,7,23,Ticks_Phase_5,13,9999,9999,9999,781303900
106,7,23,Ticks_Phase_5,14,9999,9999,9999,781803588
106,7,23,Ticks_Phase_5,15,9999,9999,9999,782303328
106,7,23,Ticks_Phase_5,16,9999,9999,9999,782804060
106,7,23,Ticks_Phase_5,17,9999,9999,9999,783303748
106,7,23,Ticks_Phase_5,18,9999,9999,9999,783803504
106,7,23,Ticks_Phase_5,19,9999,9999,9999,784303200
106,7,23,Ticks_Phase_5,20,9999,9999,9999,784803932
106,7,23,Ticks_Phase_5,21,9999,9999,9999,785303620
106,7,23,Ticks_Phase_5,22,9999,9999,9999,785803376
106,7,23,Ticks_Phase_5,23,9999,9999,9999,786304120
106,7,23,Ticks_Phase_5,24,9999,9999,9999,786814064
106,7,23,Ticks_Phase_5,25,9999,9999,9999,787313748
106,7,23,Ticks_Phase_5,26,9999,9999,9999,787813480
106,7,23,Ticks_Phase_5,27,9999,9999,9999,788313208
106,7,23,Ticks_Phase_5,28,9999,9999,9999,788813944
106,7,23,Ticks_Phase_5,29,9999,9999,9999,789313648
106,7,23,Ticks_Phase_5,30,9999,9999,9999,789803132
106,7,23,Ticks_Phase_5,31,9999,9999,9999,790303872
106,7,23,Ticks_Phase_5,32,9999,9999,9999,790803556
106,7,23,Ticks_Phase_5,33,9999,9999,9999,791303240
106,7,23,Ticks_Phase_5,34,9999,9999,9999,791804024
106,7,23,Ticks_Phase_5,35,9999,9999,9999,792303712
106,7,23,Ticks_Phase_5,36,9999,9999,9999,792803408
106,7,23,Ticks_Phase_5,37,9999,9999,9999,793303092
106,7,23,Ticks_Phase_5,38,9999,9999,9999,793803904
106,7,23,Ticks_Phase_5,39,9999,9999,9999,794303592
106,7,23,Ticks_Phase_5,40,9999,9999,9999,794803280
106,7,23,Ticks_Phase_5,41,9999,9999,9999,795304008
106,7,23,Ticks_Phase_5,42,9999,9999,9999,795803704
106,7,23,Ticks_Phase_5,43,9999,9999,9999,796303464
106,7,23,Ticks_Phase_5,44,9999,9999,9999,796803152
106,7,23,Ticks_Phase_5,45,9999,9999,9999,797303880
106,7,23,Ticks_Phase_5,46,9999,9999,9999,797803644
106,7,23,Ticks_Phase_5,47,9999,9999,9999,798303332
106,7,23,Ticks_Phase_5,48,9999,9999,9999,798813280
106,7,23,Ticks_Phase_5,49,9999,9999,9999,799314020
106,7,23,Ticks_Phase_5,50,9999,9999,9999,799813708
106,7,23,Ticks_Phase_5,51,9999,9999,9999,800313468
106,7,23,Ticks_Phase_5,52,9999,9999,9999,800813156
106,7,23,Ticks_Phase_5,53,9999,9999,9999,801313888
106,7,23,Ticks_Phase_5,54,9999,9999,9999,801813580
106,7,23,Ticks_Phase_5,55,9999,9999,9999,802313340
106,7,23,Ticks_Phase_5,56,9999,9999,9999,802814076
106,7,23,Ticks_Phase_5,57,9999,9999,9999,803313740
106,7,23,Ticks_Phase_5,58,9999,9999,9999,803813432
106,7,23,Ticks_Phase_5,59,9999,9999,9999,804313196
106,7,23,Ticks_Phase_5,60,9999,9999,9999,804813932
106,7,23,Ticks_Phase_5,61,9999,9999,9999,805313616
106,7,23,Ticks_Phase_5,62,9999,9999,9999,805813304
106,7,23,Ticks_Phase_5,63,9999,9999,9999,806314040
106,7,23,Ticks_Phase_5,64,9999,9999,9999,806833268
106,7,23,Ticks_Phase_5,65,9999,9999,9999,807334004
106,7,23,Ticks_Phase_5,66,9999,9999,9999,807833692
106,7,23,Ticks_Phase_5,67,9999,9999,9999,808333384
106,7,23,Ticks_Phase_5,68,9999,9999,9999,808833148
106,7,23,Ticks_Phase_5,69,9999,9999,9999,809333884
106,7,23,Ticks_Phase_5,70,9999,9999,9999,809833564
106,7,23,Ticks_Phase_5,71,9999,9999,9999,810333260
106,7,23,Ticks_Phase_5,72,9999,9999,9999,810833996
106,7,23,Ticks_Phase_5,73,9999,9999,9999,811333760
106,7,23,Ticks_Phase_5,74,9999,9999,9999,811833440
106,7,23,Ticks_Phase_5,75,9999,9999,9999,812333136
106,7,23,Ticks_Phase_5,76,9999,9999,9999,812833872
106,7,23,Ticks_Phase_5,77,9999,9999,9999,813333556
106,7,23,Ticks_Phase_5,78,9999,9999,9999,813833316
106,7,23,Ticks_Phase_5,79,9999,9999,9999,814334048
106,7,23,Ticks_Phase_5,80,9999,9999,9999,814833716
106,7,23,Ticks_Phase_5,81,9999,9999,9999,815314008
106,7,23,Ticks_Phase_5,82,9999,9999,9999,815813696
106,7,23,Ticks_Phase_5,83,9999,9999,9999,816313460
106,7,23,Ticks_Phase_5,84,9999,9999,9999,816813148
106,7,23,Ticks_Phase_5,85,9999,9999,9999,817313876
106,7,23,Ticks_Phase_5,86,9999,9999,9999,817813564
106,7,23,Ticks_Phase_5,87,9999,9999,9999,818313336
106,7,23,Ticks_Phase_5,88,9999,9999,9999,818814064
106,7,23,Ticks_Phase_5,89,9999,9999,9999,819313752
106,7,23,Ticks_Phase_5,90,9999,9999,9999,819813440
106,7,23,Ticks_Phase_5,91,9999,9999,9999,820313204
106,7,23,Ticks_Phase_5,92,9999,9999,9999,820813940
106,7,23,Ticks_Phase_5,93,9999,9999,9999,821313632
106,7,23,Ticks_Phase_5,94,9999,9999,9999,821813324
106,7,23,Ticks_Phase_5,95,9999,9999,9999,822314056
106,7,23,Ticks_Phase_5,96,9999,9999,9999,822813820
106,7,23,Ticks_Phase_5,97,9999,9999,9999,823263312
106,7,23,Ticks_Phase_5,98,9999,9999,9999,823764044
106,7,23,Ticks_Phase_5,99,9999,9999,9999,824263800
106,7,23,Ticks_Phase_5,100,9999,9999,9999,824763488
106,7,23,Ticks_Phase_5,101,9999,9999,9999,825263180
106,7,23,Ticks_Phase_5,102,9999,9999,9999,825763920
106,7,23,Ticks_Phase_5,103,9999,9999,9999,826263676
106,7,23,Ticks_Phase_5,104,9999,9999,9999,826763368
106,7,23,Ticks_Phase_5,105,9999,9999,9999,827264104
106,7,23,Ticks_Phase_5,106,9999,9999,9999,827774044
106,7,23,Ticks_Phase_5,107,9999,9999,9999,828273740
106,7,23,Ticks_Phase_5,108,9999,9999,9999,828773504
106,7,23,Ticks_Phase_5,109,9999,9999,9999,829273192
106,7,23,Ticks_Phase_5,110,9999,9999,9999,829773928
106,7,23,Ticks_Phase_5,111,9999,9999,9999,830273616
106,7,23,Ticks_Phase_5,112,9999,9999,9999,830773304
106,7,23,Ticks_Phase_5,113,9999,9999,9999,831274108
106,7,23,Ticks_Phase_5,114,9999,9999,9999,831823976
106,7,23,Ticks_Phase_5,115,9999,9999,9999,832323688
106,7,23,Ticks_Phase_5,116,9999,9999,9999,832823396
106,7,23,Ticks_Phase_5,117,9999,9999,9999,833323108
106,7,23,Ticks_Phase_5,118,9999,9999,9999,833823864
106,7,23,Ticks_Phase_5,119,9999,9999,9999,834323548
106,7,23,Ticks_Phase_5,120,9999,9999,9999,834823236
106,7,23,Ticks_Phase_5,121,9999,9999,9999,835323968
106,7,23,Ticks_Phase_5,122,9999,9999,9999,835823708
106,7,23,Ticks_Phase_5,123,9999,9999,9999,836323396
106,7,23,Ticks_Phase_5,124,9999,9999,9999,836823164
106,7,23,Ticks_Phase_5,125,9999,9999,9999,837323896
106,7,23,Ticks_Phase_5,126,9999,9999,9999,837823584
106,7,23,Ticks_Phase_5,127,9999,9999,9999,838323296
106,7,23,Ticks_Phase_5,128,9999,9999,9999,838824052
106,7,23,Ticks_Phase_5,129,9999,9999,9999,839323760
106,7,23,Ticks_Phase_5,130,9999,9999,9999,839823464
106,7,23,Ticks_Phase_5,131,9999,9999,9999,840423484
106,7,23,Ticks_Phase_5,132,9999,9999,9999,840923192
106,7,23,Ticks_Phase_5,133,9999,9999,9999,841424000
106,7,23,Ticks_Phase_5,134,9999,9999,9999,841923696
106,7,23,Ticks_Phase_5,135,9999,9999,9999,842423384
106,7,23,Ticks_Phase_5,136,9999,9999,9999,842923072
106,7,23,Ticks_Phase_5,137,9999,9999,9999,843423804
106,7,23,Ticks_Phase_5,138,9999,9999,9999,843923568
106,7,23,Ticks_Phase_5,139,9999,9999,9999,844423256
106,7,23,Ticks_Phase_5,140,9999,9999,9999,844923992
106,7,23,Ticks_Phase_5,141,9999,9999,9999,845423680
106,7,23,Ticks_Phase_5,142,9999,9999,9999,845923444
106,7,23,Ticks_Phase_5,143,9999,9999,9999,846423132
106,7,23,Ticks_Phase_5,144,9999,9999,9999,846923864
106,7,23,Ticks_Phase_5,145,9999,9999,9999,847423552
106,7,23,Ticks_Phase_5,146,9999,9999,9999,847923316
106,7,23,Ticks_Phase_5,147,9999,9999,9999,848424052
106,7,23,Ticks_Phase_5,148,9999,9999,9999,848923740
106,7,23,Ticks_Phase_5,149,9999,9999,9999,849423420
106,7,23,Ticks_Phase_5,150,9999,9999,9999,849823864
106,7,23,Ticks_Phase_5,151,9999,9999,9999,850323556
106,7,23,Ticks_Phase_5,152,9999,9999,9999,850823264
106,7,23,Ticks_Phase_5,153,9999,9999,9999,851324020
106,7,23,Ticks_Phase_5,154,9999,9999,9999,851823724
106,7,23,Ticks_Phase_5,155,9999,9999,9999,852323412
106,7,23,Ticks_Phase_5,156,9999,9999,9999,852823100
106,7,23,Ticks_Phase_5,157,9999,9999,9999,853323836
106,7,23,Ticks_Phase_5,158,9999,9999,9999,853823596
106,7,23,Ticks_Phase_5,159,9999,9999,9999,854323284
106,7,23,Ticks_Phase_5,160,9999,9999,9999,854824020
106,7,23,Ticks_Phase_5,161,9999,9999,9999,855323708
106,7,23,Ticks_Phase_5,162,9999,9999,9999,855823472
106,7,23,Ticks_Phase_5,163,9999,9999,9999,856323160
106,7,23,Ticks_Phase_5,164,9999,9999,9999,856823872
106,7,23,Ticks_Phase_5,165,9999,9999,9999,857323636
106,7,23,Ticks_Phase_5,166,9999,9999,9999,857823328
106,7,23,Ticks_Phase_5,167,9999,9999,9999,858324060
106,7,23,Ticks_Phase_5,168,9999,9999,9999,858823748
106,7,23,Ticks_Phase_5,169,9999,9999,9999,859323460
106,8,22,Ticks_Phase_8,0,5,42,127,871140816
106,8,22,Ticks_Phase_8,1,5,42,127,871940872
106,8,22,Ticks_Phase_8,2,5,42,127,872741132
106,8,22,Ticks_Phase_8,3,5,42,127,873540940
106,8,22,Ticks_Phase_8,4,1,48,52,874294504
106,8,22,Ticks_Phase_8,5,5,42,127,874340816
106,8,22,Ticks_Phase_8,6,5,42,127,875140756
106,8,22,Ticks_Phase_8,7,1,48,73,875144848
106,8,22,Ticks_Phase_8,8,5,42,127,875941220
106,8,22,Ticks_Phase_8,9,1,48,47,875969956
106,8,22,Ticks_Phase_8,10,5,42,127,876740856
106,8,22,Ticks_Phase_8,11,1,48,16,876752288
106,8,22,Ticks_Phase_8,12,5,42,127,877540644
106,8,22,Ticks_Phase_8,13,1,48,59,877545780
106,8,22,Ticks_Phase_8,14,1,48,59,878338636
106,8,22,Ticks_Phase_8,15,5,42,127,878340448
106,8,22,Ticks_Phase_8,16,5,42,127,879141284
106,8,22,Ticks_Phase_8,17,1,48,65,879152272
106,8,22,Ticks_Phase_8,18,5,42,127,879940924
106,8,22,Ticks_Phase_8,19,1,48,56,879971532
106,8,22,Ticks_Phase_8,20,5,42,127,880740784
106,8,22,Ticks_Phase_8,21,1,48,57,880759484
106,8,22,Ticks_Phase_8,22,1,48,58,881526300
106,8,22,Ticks_Phase_8,23,5,42,127,881540640
106,8,22,Ticks_Phase_8,24,1,48,48,882308500
106,8,22,Ticks_Phase_8,25,5,42,127,882341100
106,8,22,Ticks_Phase_8,26,5,42,127,883140892
106,8,22,Ticks_Phase_8,27,1,48,51,883155464
106,8,22,Ticks_Phase_8,28,1,48,41,883937940
106,8,22,Ticks_Phase_8,29,5,42,127,883940600
106,8,22,Ticks_Phase_8,30,1,48,52,884729904
106,8,22,Ticks_Phase_8,31,5,42,127,884740488
106,8,22,Ticks_Phase_8,32,5,42,127,885541472
106,8,22,Ticks_Phase_8,33,1,48,53,885544444
106,8,22,Ticks_Phase_8,34,5,42,127,886341040
106,8,22,Ticks_Phase_8,35,1,48,49,886360784
106,8,22,Ticks_Phase_8,36,5,42,127,887140600
106,8,22,Ticks_Phase_8,37,1,48,43,887143648
106,8,22,Ticks_Phase_8,38,5,42,127,887940388
106,8,22,Ticks_Phase_8,39,1,48,47,888016888
106,8,22,Ticks_Phase_8,40,5,42,127,888741520
106,8,22,Ticks_Phase_8,41,1,48,47,888742484
106,8,22,Ticks_Phase_8,42,5,42,127,889540932
106,8,22,Ticks_Phase_8,43,1,48,40,889554384
106,8,22,Ticks_Phase_8,44,5,42,127,890340644
106,8,22,Ticks_Phase_8,45,1,48,31,890377412
106,8,22,Ticks_Phase_8,46,1,48,38,891134724
106,8,22,Ticks_Phase_8,47,5,42,127,891140448
106,8,22,Ticks_Phase_8,48,1,48,61,891930024
106,8,22,Ticks_Phase_8,49,5,42,127,891941504
106,8,22,Ticks_Phase_8,50,1,48,43,892730184
106,8,22,Ticks_Phase_8,51,5,42,127,892740848
106,8,22,Ticks_Phase_8,52,1,48,44,893528092
106,8,22,Ticks_Phase_8,53,5,42,127,893540928
106,8,22,Ticks_Phase_8,54,1,48,45,894338532
106,8,22,Ticks_Phase_8,55,5,42,127,894340420
106,8,22,Ticks_Phase_8,56,5,42,127,895120668
106,8,22,Ticks_Phase_8,57,1,48,38,895140116
106,8,22,Ticks_Phase_8,58,1,48,48,895913228
106,8,22,Ticks_Phase_8,59,5,42,127,895920596
106,8,22,Ticks_Phase_8,60,1,48,48,896695488
106,8,22,Ticks_Phase_8,61,5,42,127,896721284
106,8,22,Ticks_Phase_8,62,1,48,44,897479552
106,8,22,Ticks_Phase_8,63,5,42,127,897521068
106,8,22,Ticks_Phase_8,64,1,48,46,898289828
106,8,22,Ticks_Phase_8,65,5,42,127,898320656
106,8,22,Ticks_Phase_8,66,1,48,35,899114716
106,8,22,Ticks_Phase_8,67,5,42,127,899120516
106,8,22,Ticks_Phase_8,68,1,48,47,899902824
106,8,22,Ticks_Phase_8,69,5,42,127,899921348
106,8,22,Ticks_Phase_8,70,1,48,48,900698108
106,8,22,Ticks_Phase_8,71,5,42,127,900720912
106,8,22,Ticks_Phase_8,72,5,42,127,901520632
106,8,22,Ticks_Phase_8,73,1,48,44,901529444
106,8,22,Ticks_Phase_8,74,1,48,50,902302184
106,8,22,Ticks_Phase_8,75,5,42,127,902320636
106,8,22,Ticks_Phase_8,76,5,42,127,903121396
106,8,22,Ticks_Phase_8,77,1,48,43,903129392
106,8,22,Ticks_Phase_8,78,5,42,127,903921184
106,8,22,Ticks_Phase_8,79,1,48,48,903922076
106,8,22,Ticks_Phase_8,80,5,42,127,904720772
106,8,22,Ticks_Phase_8,81,1,48,42,904724264
106,8,22,Ticks_Phase_8,82,5,42,127,905520484
106,8,22,Ticks_Phase_8,83,1,48,40,905529528
106,8,22,Ticks_Phase_8,84,1,48,45,906318580
106,8,22,Ticks_Phase_8,85,5,42,127,906321312
106,8,22,Ticks_Phase_8,86,5,42,127,907121252
106,8,22,Ticks_Phase_8,87,1,48,43,907145416
106,8,22,Ticks_Phase_8,88,5,42,127,907920740
106,8,22,Ticks_Phase_8,89,1,48,43,907925804
106,8,22,Ticks_Phase_8,90,5,42,127,908720428
106,8,22,Ticks_Phase_8,91,5,42,127,909540680
106,8,22,Ticks_Phase_8,92,5,42,127,910340588
106,8,22,Ticks_Phase_8,93,5,42,127,911141292
106,8,22,Ticks_Phase_8,94,5,42,127,911941176
106,8,22,Ticks_Phase_8,95,1,48,45,911954700
106,8,22,Ticks_Phase_8,96,1,48,46,912731940
106,8,22,Ticks_Phase_8,97,5,42,127,912740660
106,8,22,Ticks_Phase_8,98,1,48,49,913518616
106,8,22,Ticks_Phase_8,99,5,42,127,913540444
106,8,22,Ticks_Phase_8,100,1,48,41,914330320
106,8,22,Ticks_Phase_8,101,5,42,127,914341352
106,8,22,Ticks_Phase_8,102,1,48,42,915130780
106,8,22,Ticks_Phase_8,103,5,42,127,915141064
106,8,22,Ticks_Phase_8,104,1,48,46,915933556
106,8,22,Ticks_Phase_8,105,5,42,127,915940700
106,8,22,Ticks_Phase_8,106,1,48,47,916725028
106,8,22,Ticks_Phase_8,107,5,42,127,916740436
106,8,22,Ticks_Phase_8,108,1,48,39,917538460
106,8,22,Ticks_Phase_8,109,5,42,127,917541344
106,8,22,Ticks_Phase_8,110,1,48,46,918336604
106,8,22,Ticks_Phase_8,111,5,42,127,918341128
106,8,22,Ticks_Phase_8,112,5,42,127,919140700
106,8,22,Ticks_Phase_8,113,1,48,45,919154076
106,8,22,Ticks_Phase_8,114,1,48,49,919938820
106,8,22,Ticks_Phase_8,115,5,42,127,919940404
106,8,22,Ticks_Phase_8,116,5,42,127,920741392
106,8,22,Ticks_Phase_8,117,1,48,48,920742432
106,8,22,Ticks_Phase_8,118,1,48,51,921536268
106,8,22,Ticks_Phase_8,119,5,42,127,921541248
106,8,22,Ticks_Phase_8,120,5,42,127,922380536
106,8,22,Ticks_Phase_8,121,5,42,127,923181316
106,8,22,Ticks_Phase_8,122,5,42,127,923991384
106,8,22,Ticks_Phase_8,123,5,42,127,924791268
106,8,22,Ticks_Phase_8,124,5,42,127,925590928
106,8,22,Ticks_Phase_8,125,1,48,51,925592340
106,8,22,Ticks_Phase_8,126,1,48,49,926384384
106,8,22,Ticks_Phase_8,127,5,42,127,926390632
106,8,22,Ticks_Phase_8,128,1,48,36,927157884
106,8,22,Ticks_Phase_8,129,5,42,127,927191468
106,8,22,Ticks_Phase_8,130,1,48,53,927966808
106,8,22,Ticks_Phase_8,131,5,42,127,927991276
106,8,22,Ticks_Phase_8,132,1,48,54,928739868
106,8,22,Ticks_Phase_8,133,5,42,127,928790988
106,8,22,Ticks_Phase_8,134,1,48,49,929541176
106,8,22,Ticks_Phase_8,135,5,42,127,929590624
106,8,22,Ticks_Phase_8,136,1,48,53,930358636
106,8,22,Ticks_Phase_8,137,5,42,127,930391456
106,8,22,Ticks_Phase_8,138,1,48,54,931157732
106,8,22,Ticks_Phase_8,139,5,42,127,931191244
106,8,22,Ticks_Phase_8,140,1,48,46,931948160
106,8,22,Ticks_Phase_8,141,5,42,127,931991176
106,8,22,Ticks_Phase_8,142,1,48,50,932785840
106,8,22,Ticks_Phase_8,143,5,42,127,932790592
106,8,22,Ticks_Phase_8,144,5,42,127,933591432
106,8,22,Ticks_Phase_8,145,1,48,43,933597840
106,8,22,Ticks_Phase_8,146,5,42,127,934391244
106,8,22,Ticks_Phase_8,147,1,48,49,934413832
106,8,22,Ticks_Phase_8,148,5,42,127,935191180
106,8,22,Ticks_Phase_8,149,1,48,45,935222388
106,8,22,Ticks_Phase_8,150,5,42,127,935950604
106,8,22,Ticks_Phase_8,151,1,48,47,936009368
106,8,22,Ticks_Phase_8,152,1,48,43,936700932
106,8,22,Ticks_Phase_8,153,5,42,127,936750384
106,8,22,Ticks_Phase_8,154,1,48,44,937508124
106,8,22,Ticks_Phase_8,155,5,42,127,937551144
106,8,22,Ticks_Phase_8,156,1,48,49,938349120
106,8,22,Ticks_Phase_8,157,5,42,127,938350928
106,8,22,Ticks_Phase_8,158,1,48,48,939124848
106,8,22,Ticks_Phase_8,159,5,42,127,939150864
106,8,22,Ticks_Phase_8,160,1,48,46,939910264
106,8,22,Ticks_Phase_8,161,5,42,127,939950428
106,8,22,Ticks_Phase_8,162,5,42,127,940751120
106,8,22,Ticks_Phase_8,163,1,48,43,940752156
106,8,22,Ticks_Phase_8,164,5,42,127,941550976
106,8,22,Ticks_Phase_8,165,1,48,45,941564380
106,8,22,Ticks_Phase_8,166,5,42,127,942350792
106,8,22,Ticks_Phase_8,167,1,48,47,942363416
106,8,22,Ticks_Phase_8,168,5,42,127,943150500
106,8,22,Ticks_Phase_8,169,1,48,51,943164852
106,8,22,Ticks_Phase_8,170,5,42,127,943951188
106,8,22,Ticks_Phase_8,171,1,48,46,943974372
106,8,22,Ticks_Phase_8,172,5,42,127,944750900
106,8,22,Ticks_Phase_8,173,1,48,54,944774684
106,8,22,Ticks_Phase_8,174,5,42,127,945550832
106,8,22,Ticks_Phase_8,175,1,48,52,945564284
106,8,22,Ticks_Phase_8,176,1,48,55,946319884
106,8,22,Ticks_Phase_8,177,5,42,127,946350316
106,8,22,Ticks_Phase_8,178,5,42,127,947151080
106,8,22,Ticks_Phase_8,179,1,48,49,947173744
106,8,22,Ticks_Phase_8,180,5,42,127,947950940
106,8,22,Ticks_Phase_8,181,1,48,39,947967708
106,8,22,Ticks_Phase_8,182,5,42,127,948670896
106,8,22,Ticks_Phase_8,183,1,48,47,948731484
106,8,22,Ticks_Phase_8,184,1,48,45,949350156
106,8,22,Ticks_Phase_8,185,5,42,127,949470588
106,8,22,Ticks_Phase_8,186,1,48,42,950223032
106,8,22,Ticks_Phase_8,187,5,42,127,950271312
106,8,22,Ticks_Phase_8,188,5,42,127,951071108
106,8,22,Ticks_Phase_8,189,1,48,46,951082392
106,8,22,Ticks_Phase_8,190,1,48,49,951817080
106,8,22,Ticks_Phase_8,191,5,42,127,951870812
106,8,22,Ticks_Phase_8,192,5,42,127,952670532
106,8,22,Ticks_Phase_8,193,1,48,48,952682636
106,8,22,Ticks_Phase_8,194,1,48,49,953461668
106,8,22,Ticks_Phase_8,195,5,42,127,953471356
106,8,22,Ticks_Phase_8,196,1,48,48,954252396
106,8,22,Ticks_Phase_8,197,5,42,127,954271072
106,8,22,Ticks_Phase_8,198,1,48,50,955047012
106,8,22,Ticks_Phase_8,199,5,42,127,955070932
106,8,22,Ticks_Phase_8,200,1,48,52,955859756
106,8,22,Ticks_Phase_8,201,5,42,127,955870716
106,8,22,Ticks_Phase_8,202,1,48,52,956666300
106,8,22,Ticks_Phase_8,203,5,42,127,956671204
106,8,22,Ticks_Phase_8,204,5,42,127,957471072
106,8,22,Ticks_Phase_8,205,1,48,49,957478980
106,8,22,Ticks_Phase_8,206,5,42,127,958270856
106,8,22,Ticks_Phase_8,207,1,48,45,958271896
106,8,22,Ticks_Phase_8,208,5,42,127,959070716
106,8,22,Ticks_Phase_8,209,1,48,46,959081324
106,8,22,Ticks_Phase_8,210,5,42,127,959871328
106,8,22,Ticks_Phase_8,211,1,48,39,959897884
106,8,22,Ticks_Phase_8,212,1,48,45,960668448
106,8,22,Ticks_Phase_8,213,5,42,127,960671032
106,8,22,Ticks_Phase_8,214,1,48,44,961439944
106,8,22,Ticks_Phase_8,215,5,42,127,961470896
106,8,22,Ticks_Phase_8,216,1,48,43,962275592
106,8,22,Ticks_Phase_8,217,5,42,127,962350316
106,8,22,Ticks_Phase_8,218,5,42,127,963151232
106,8,22,Ticks_Phase_8,219,1,48,44,963177036
106,8,22,Ticks_Phase_8,220,1,48,43,963949124
106,8,22,Ticks_Phase_8,221,5,42,127,963950860
106,8,22,Ticks_Phase_8,222,1,48,49,964737804
106,8,22,Ticks_Phase_8,223,5,42,127,964750796
106,8,22,Ticks_Phase_8,224,5,42,127,965550736
106,8,22,Ticks_Phase_8,225,1,48,48,965561428
106,8,22,Ticks_Phase_8,226,1,48,50,966347412
106,8,22,Ticks_Phase_8,227,5,42,127,966351116
106,8,22,Ticks_Phase_8,228,5,42,127,967150912
106,8,22,Ticks_Phase_8,229,1,48,44,967175692
106,8,22,Ticks_Phase_8,230,1,48,52,967938708
106,8,22,Ticks_Phase_8,231,5,42,127,967950716
106,8,22,Ticks_Phase_8,232,1,48,49,968745748
106,8,22,Ticks_Phase_8,233,5,42,127,968750872
106,8,22,Ticks_Phase_8,234,5,42,127,969551116
106,8,22,Ticks_Phase_8,235,1,48,42,969563820
106,8,22,Ticks_Phase_8,236,1,48,31,970293876
106,8,22,Ticks_Phase_8,237,5,42,127,970350896
106,8,22,Ticks_Phase_8,238,1,48,42,971132380
106,8,22,Ticks_Phase_8,239,5,42,127,971150684
106,8,22,Ticks_Phase_8,240,5,42,127,971950552
106,8,22,Ticks_Phase_8,241,1,48,50,971984000
106,8,22,Ticks_Phase_8,242,1,48,48,972743484
106,8,22,Ticks_Phase_8,243,5,42,127,972751152
106,8,22,Ticks_Phase_8,244,1,48,43,973529648
106,8,22,Ticks_Phase_8,245,5,42,127,973550940
106,8,22,Ticks_Phase_8,246,1,48,47,974349168
106,8,22,Ticks_Phase_8,247,5,42,127,974350676
106,8,22,Ticks_Phase_8,248,1,48,51,975143168
106,8,22,Ticks_Phase_8,249,5,42,127,975150612
106,8,22,Ticks_Phase_8,250,1,48,48,975961312
106,8,22,Ticks_Phase_8,251,5,42,127,976111096
106,8,22,Ticks_Phase_8,252,5,42,127,976910632
106,8,22,Ticks_Phase_8,253,1,48,44,977001968
106,8,22,Ticks_Phase_8,254,5,42,127,977710568
106,8,22,Ticks_Phase_8,255,5,42,127,978511348
106,8,22,Ticks_Phase_8,256,5,42,127,979311008
106,8,22,Ticks_Phase_8,257,1,48,51,980110064
106,8,22,Ticks_Phase_8,258,5,42,127,980111556
106,8,22,Ticks_Phase_8,259,1,48,47,980888856
106,8,22,Ticks_Phase_8,260,5,42,127,980910520
106,8,22,Ticks_Phase_8,261,1,48,43,981667432
106,8,22,Ticks_Phase_8,262,5,42,127,981711204
106,8,22,Ticks_Phase_8,263,1,48,54,982485124
106,8,22,Ticks_Phase_8,264,5,42,127,982510988
106,8,22,Ticks_Phase_8,265,1,48,50,983253084
106,8,22,Ticks_Phase_8,266,5,42,127,983310652
106,8,22,Ticks_Phase_8,267,1,48,48,984082248
106,8,22,Ticks_Phase_8,268,5,42,127,984110436
106,8,22,Ticks_Phase_8,269,1,48,44,984885628
106,8,22,Ticks_Phase_8,270,5,42,127,984911196
106,8,22,Ticks_Phase_8,271,1,48,49,985710536
106,8,22,Ticks_Phase_8,272,5,42,127,985712028
106,8,22,Ticks_Phase_8,273,1,48,48,986474264
106,8,22,Ticks_Phase_8,274,5,42,127,986510692
106,8,22,Ticks_Phase_8,275,1,48,40,987253384
106,8,22,Ticks_Phase_8,276,5,42,127,987310408
106,8,22,Ticks_Phase_8,277,5,42,127,988111468
106,8,22,Ticks_Phase_8,278,1,48,43,988142372
106,8,22,Ticks_Phase_8,279,5,42,127,988910884
106,8,22,Ticks_Phase_8,280,1,48,45,988926676
106,8,22,Ticks_Phase_8,281,5,42,127,989710768
106,8,22,Ticks_Phase_8,282,1,48,47,989714488
106,8,22,Ticks_Phase_8,283,1,48,53,990502956
106,8,22,Ticks_Phase_8,284,5,42,127,990510548
106,8,22,Ticks_Phase_8,285,5,42,127,991150584
106,8,22,Ticks_Phase_8,286,1,48,46,991314960
106,8,22,Ticks_Phase_8,287,5,42,127,991951416
106,8,22,Ticks_Phase_8,288,1,48,30,991965016
106,8,22,Ticks_Phase_8,289,1,48,28,992685860
106,8,22,Ticks_Phase_8,290,5,42,127,992750900
106,8,22,Ticks_Phase_8,291,1,48,33,993522124
106,8,22,Ticks_Phase_8,292,5,42,127,993550560
106,8,22,Ticks_Phase_8,293,1,48,52,994346416
106,8,22,Ticks_Phase_8,294,5,42,127,994350644
106,8,22,Ticks_Phase_8,295,1,48,48,995126360
106,8,22,Ticks_Phase_8,296,5,42,127,995151400
106,8,22,Ticks_Phase_8,297,5,42,127,995951048
106,8,22,Ticks_Phase_8,298,1,48,51,995964796
106,8,22,Ticks_Phase_8,299,1,48,50,996738064
106,8,22,Ticks_Phase_8,300,5,42,127,996750828
106,8,22,Ticks_Phase_8,301,1,48,48,997517556
106,8,22,Ticks_Phase_8,302,5,42,127,997550464
106,8,22,Ticks_Phase_8,303,1,48,43,998337260
106,8,22,Ticks_Phase_8,304,5,42,127,998351300
106,8,22,Ticks_Phase_8,305,1,48,36,999122524
106,8,22,Ticks_Phase_8,306,5,42,127,999151084
106,8,22,Ticks_Phase_8,307,1,48,46,999931176
106,8,22,Ticks_Phase_8,308,5,42,127,999950748
106,8,22,Ticks_Phase_8,309,1,48,51,1000719880
106,8,22,Ticks_Phase_8,310,5,42,127,1000750312
106,8,22,Ticks_Phase_8,311,1,48,49,1001533888
106,8,22,Ticks_Phase_8,312,5,42,127,1001551292
106,8,22,Ticks_Phase_8,313,5,42,127,1002351084
106,8,22,Ticks_Phase_8,314,1,48,48,1002357048
106,8,22,Ticks_Phase_8,315,5,42,127,1003150648
106,8,22,Ticks_Phase_8,316,1,48,50,1003161256
106,8,22,Ticks_Phase_8,317,1,48,49,1003933848
106,8,22,Ticks_Phase_8,318,5,42,127,1003950352
106,8,22,Ticks_Phase_8,319,1,48,51,1004734828
106,8,22,Ticks_Phase_8,320,5,42,127,1004751480
106,8,22,Ticks_Phase_8,321,5,42,127,1005550904
106,8,22,Ticks_Phase_8,322,1,48,46,1005553496
106,8,22,Ticks_Phase_8,323,5,42,127,1006350640
106,8,22,Ticks_Phase_8,0,9999,9999,9999,871138380
106,8,22,Ticks_Phase_8,1,9999,9999,9999,871938140
106,8,22,Ticks_Phase_8,2,9999,9999,9999,872738920
106,8,22,Ticks_Phase_8,3,9999,9999,9999,873538652
106,8,22,Ticks_Phase_8,4,9999,9999,9999,874338380
106,8,22,Ticks_Phase_8,5,9999,9999,9999,875138172
106,8,22,Ticks_Phase_8,6,9999,9999,9999,875938932
106,8,22,Ticks_Phase_8,7,9999,9999,9999,876738644
106,8,22,Ticks_Phase_8,8,9999,9999,9999,877538432
106,8,22,Ticks_Phase_8,9,9999,9999,9999,878338112
106,8,22,Ticks_Phase_8,10,9999,9999,9999,879138924
106,8,22,Ticks_Phase_8,11,9999,9999,9999,879938636
106,8,22,Ticks_Phase_8,12,9999,9999,9999,880738424
106,8,22,Ticks_Phase_8,13,9999,9999,9999,881538128
106,8,22,Ticks_Phase_8,14,9999,9999,9999,882338888
106,8,22,Ticks_Phase_8,15,9999,9999,9999,883138680
106,8,22,Ticks_Phase_8,16,9999,9999,9999,883938388
106,8,22,Ticks_Phase_8,17,9999,9999,9999,884738124
106,8,22,Ticks_Phase_8,18,9999,9999,9999,885538888
106,8,22,Ticks_Phase_8,19,9999,9999,9999,886338676
106,8,22,Ticks_Phase_8,20,9999,9999,9999,887138388
106,8,22,Ticks_Phase_8,21,9999,9999,9999,887938104
106,8,22,Ticks_Phase_8,22,9999,9999,9999,888738936
106,8,22,Ticks_Phase_8,23,9999,9999,9999,889538648
106,8,22,Ticks_Phase_8,24,9999,9999,9999,890338360
106,8,22,Ticks_Phase_8,25,9999,9999,9999,891138164
106,8,22,Ticks_Phase_8,26,9999,9999,9999,891938920
106,8,22,Ticks_Phase_8,27,9999,9999,9999,892738636
106,8,22,Ticks_Phase_8,28,9999,9999,9999,893538420
106,8,22,Ticks_Phase_8,29,9999,9999,9999,894338164
106,8,22,Ticks_Phase_8,30,9999,9999,9999,895118456
106,8,22,Ticks_Phase_8,31,9999,9999,9999,895918160
106,8,22,Ticks_Phase_8,32,9999,9999,9999,896718924
106,8,22,Ticks_Phase_8,33,9999,9999,9999,897518708
106,8,22,Ticks_Phase_8,34,9999,9999,9999,898318444
106,8,22,Ticks_Phase_8,35,9999,9999,9999,899118156
106,8,22,Ticks_Phase_8,36,9999,9999,9999,899918916
106,8,22,Ticks_Phase_8,37,9999,9999,9999,900718700
106,8,22,Ticks_Phase_8,38,9999,9999,9999,901518420
106,8,22,Ticks_Phase_8,39,9999,9999,9999,902318200
106,8,22,Ticks_Phase_8,40,9999,9999,9999,903118964
106,8,22,Ticks_Phase_8,41,9999,9999,9999,903918676
106,8,22,Ticks_Phase_8,42,9999,9999,9999,904718412
106,8,22,Ticks_Phase_8,43,9999,9999,9999,905518200
106,8,22,Ticks_Phase_8,44,9999,9999,9999,906318952
106,8,22,Ticks_Phase_8,45,9999,9999,9999,907118668
106,8,22,Ticks_Phase_8,46,9999,9999,9999,907918456
106,8,22,Ticks_Phase_8,47,9999,9999,9999,908718140
106,8,22,Ticks_Phase_8,48,9999,9999,9999,909538392
106,8,22,Ticks_Phase_8,49,9999,9999,9999,910338152
106,8,22,Ticks_Phase_8,50,9999,9999,9999,911138932
106,8,22,Ticks_Phase_8,51,9999,9999,9999,911938664
106,8,22,Ticks_Phase_8,52,9999,9999,9999,912738372
106,8,22,Ticks_Phase_8,53,9999,9999,9999,913538156
106,8,22,Ticks_Phase_8,54,9999,9999,9999,914338916
106,8,22,Ticks_Phase_8,55,9999,9999,9999,915138628
106,8,22,Ticks_Phase_8,56,9999,9999,9999,915938416
106,8,22,Ticks_Phase_8,57,9999,9999,9999,916738152
106,8,22,Ticks_Phase_8,58,9999,9999,9999,917538908
106,8,22,Ticks_Phase_8,59,9999,9999,9999,918338620
106,8,22,Ticks_Phase_8,60,9999,9999,9999,919138412
106,8,22,Ticks_Phase_8,61,9999,9999,9999,919938124
106,8,22,Ticks_Phase_8,62,9999,9999,9999,920738884
106,8,22,Ticks_Phase_8,63,9999,9999,9999,921538664
106,8,22,Ticks_Phase_8,64,9999,9999,9999,922378324
106,8,22,Ticks_Phase_8,65,9999,9999,9999,923179104
106,8,22,Ticks_Phase_8,66,9999,9999,9999,923989096
106,8,22,Ticks_Phase_8,67,9999,9999,9999,924788832
106,8,22,Ticks_Phase_8,68,9999,9999,9999,925588564
106,8,22,Ticks_Phase_8,69,9999,9999,9999,926388344
106,8,22,Ticks_Phase_8,70,9999,9999,9999,927189104
106,8,22,Ticks_Phase_8,71,9999,9999,9999,927988816
106,8,22,Ticks_Phase_8,72,9999,9999,9999,928788552
106,8,22,Ticks_Phase_8,73,9999,9999,9999,929588340
106,8,22,Ticks_Phase_8,74,9999,9999,9999,930389096
106,8,22,Ticks_Phase_8,75,9999,9999,9999,931188808
106,8,22,Ticks_Phase_8,76,9999,9999,9999,931988596
106,8,22,Ticks_Phase_8,77,9999,9999,9999,932788308
106,8,22,Ticks_Phase_8,78,9999,9999,9999,933589072
106,8,22,Ticks_Phase_8,79,9999,9999,9999,934388856
106,8,22,Ticks_Phase_8,80,9999,9999,9999,935188592
106,8,22,Ticks_Phase_8,81,9999,9999,9999,935948392
106,8,22,Ticks_Phase_8,82,9999,9999,9999,936748100
106,8,22,Ticks_Phase_8,83,9999,9999,9999,937548856
106,8,22,Ticks_Phase_8,84,9999,9999,9999,938348668
106,8,22,Ticks_Phase_8,85,9999,9999,9999,939148352
106,8,22,Ticks_Phase_8,86,9999,9999,9999,939948140
106,8,22,Ticks_Phase_8,87,9999,9999,9999,940748904
106,8,22,Ticks_Phase_8,88,9999,9999,9999,941548616
106,8,22,Ticks_Phase_8,89,9999,9999,9999,942348356
106,8,22,Ticks_Phase_8,90,9999,9999,9999,943148140
106,8,22,Ticks_Phase_8,91,9999,9999,9999,943948900
106,8,22,Ticks_Phase_8,92,9999,9999,9999,944748612
106,8,22,Ticks_Phase_8,93,9999,9999,9999,945548396
106,8,22,Ticks_Phase_8,94,9999,9999,9999,946348104
106,8,22,Ticks_Phase_8,95,9999,9999,9999,947148868
106,8,22,Ticks_Phase_8,96,9999,9999,9999,947948656
106,8,22,Ticks_Phase_8,97,9999,9999,9999,948668536
106,8,22,Ticks_Phase_8,98,9999,9999,9999,949468224
106,8,22,Ticks_Phase_8,99,9999,9999,9999,950269028
106,8,22,Ticks_Phase_8,100,9999,9999,9999,951068744
106,8,22,Ticks_Phase_8,101,9999,9999,9999,951868524
106,8,22,Ticks_Phase_8,102,9999,9999,9999,952668244
106,8,22,Ticks_Phase_8,103,9999,9999,9999,953468996
106,8,22,Ticks_Phase_8,104,9999,9999,9999,954268784
106,8,22,Ticks_Phase_8,105,9999,9999,9999,955068496
106,8,22,Ticks_Phase_8,106,9999,9999,9999,955868284
106,8,22,Ticks_Phase_8,107,9999,9999,9999,956668992
106,8,22,Ticks_Phase_8,108,9999,9999,9999,957468784
106,8,22,Ticks_Phase_8,109,9999,9999,9999,958268496
106,8,22,Ticks_Phase_8,110,9999,9999,9999,959068280
106,8,22,Ticks_Phase_8,111,9999,9999,9999,959869040
106,8,22,Ticks_Phase_8,112,9999,9999,9999,960668744
106,8,22,Ticks_Phase_8,113,9999,9999,9999,961468532
106,8,22,Ticks_Phase_8,114,9999,9999,9999,962348104
106,8,22,Ticks_Phase_8,115,9999,9999,9999,963148868
106,8,22,Ticks_Phase_8,116,9999,9999,9999,963948600
106,8,22,Ticks_Phase_8,117,9999,9999,9999,964748360
106,8,22,Ticks_Phase_8,118,9999,9999,9999,965548152
106,8,22,Ticks_Phase_8,119,9999,9999,9999,966348904
106,8,22,Ticks_Phase_8,120,9999,9999,9999,967148624
106,8,22,Ticks_Phase_8,121,9999,9999,9999,967948352
106,8,22,Ticks_Phase_8,122,9999,9999,9999,968748140
106,8,22,Ticks_Phase_8,123,9999,9999,9999,969548904
106,8,22,Ticks_Phase_8,124,9999,9999,9999,970348608
106,8,22,Ticks_Phase_8,125,9999,9999,9999,971148396
106,8,22,Ticks_Phase_8,126,9999,9999,9999,971948116
106,8,22,Ticks_Phase_8,127,9999,9999,9999,972748868
106,8,22,Ticks_Phase_8,128,9999,9999,9999,973548652
106,8,22,Ticks_Phase_8,129,9999,9999,9999,974348396
106,8,22,Ticks_Phase_8,130,9999,9999,9999,975148104
106,8,22,Ticks_Phase_8,131,9999,9999,9999,976108660
106,8,22,Ticks_Phase_8,132,9999,9999,9999,976908344
106,8,22,Ticks_Phase_8,133,9999,9999,9999,977708132
106,8,22,Ticks_Phase_8,134,9999,9999,9999,978508912
106,8,22,Ticks_Phase_8,135,9999,9999,9999,979308648
106,8,22,Ticks_Phase_8,136,9999,9999,9999,980108380
106,8,22,Ticks_Phase_8,137,9999,9999,9999,980908084
106,8,22,Ticks_Phase_8,138,9999,9999,9999,981708916
106,8,22,Ticks_Phase_8,139,9999,9999,9999,982508628
106,8,22,Ticks_Phase_8,140,9999,9999,9999,983308364
106,8,22,Ticks_Phase_8,141,9999,9999,9999,984108152
106,8,22,Ticks_Phase_8,142,9999,9999,9999,984908912
106,8,22,Ticks_Phase_8,143,9999,9999,9999,985708628
106,8,22,Ticks_Phase_8,144,9999,9999,9999,986508408
106,8,22,Ticks_Phase_8,145,9999,9999,9999,987308120
106,8,22,Ticks_Phase_8,146,9999,9999,9999,988108884
106,8,22,Ticks_Phase_8,147,9999,9999,9999,988908672
106,8,22,Ticks_Phase_8,148,9999,9999,9999,989708408
106,8,22,Ticks_Phase_8,149,9999,9999,9999,990508112
106,8,22,Ticks_Phase_8,150,9999,9999,9999,991148148
106,8,22,Ticks_Phase_8,151,9999,9999,9999,991948908
106,8,22,Ticks_Phase_8,152,9999,9999,9999,992748612
106,8,22,Ticks_Phase_8,153,9999,9999,9999,993548348
106,8,22,Ticks_Phase_8,154,9999,9999,9999,994348136
106,8,22,Ticks_Phase_8,155,9999,9999,9999,995148892
106,8,22,Ticks_Phase_8,156,9999,9999,9999,995948612
106,8,22,Ticks_Phase_8,157,9999,9999,9999,996748392
106,8,22,Ticks_Phase_8,158,9999,9999,9999,997548104
106,8,22,Ticks_Phase_8,159,9999,9999,9999,998348864
106,8,22,Ticks_Phase_8,160,9999,9999,9999,999148648
106,8,22,Ticks_Phase_8,161,9999,9999,9999,999948388
106,8,22,Ticks_Phase_8,162,9999,9999,9999,1000748100
106,8,22,Ticks_Phase_8,163,9999,9999,9999,1001548856
106,8,22,Ticks_Phase_8,164,9999,9999,9999,1002348648
106,8,22,Ticks_Phase_8,165,9999,9999,9999,1003148360
106,8,22,Ticks_Phase_8,166,9999,9999,9999,1003948140
106,8,22,Ticks_Phase_8,167,9999,9999,9999,1004748900
106,8,22,Ticks_Phase_8,168,9999,9999,9999,1005548616
106,8,22,Ticks_Phase_8,169,9999,9999,9999,1006348352
106,10,21,Ticks_Linear_5,0,5,42,127,1192753392
106,10,21,Ticks_Linear_5,1,5,42,127,1193233716
106,10,21,Ticks_Linear_5,2,5,42,127,1193714188
106,10,21,Ticks_Linear_5,3,5,42,127,1194194412
106,10,21,Ticks_Linear_5,4,5,42,127,1194673468
106,10,21,Ticks_Linear_5,5,1,48,46,1194712688
106,10,21,Ticks_Linear_5,6,5,42,127,1195164404
106,10,21,Ticks_Linear_5,7,1,48,46,1195197780
106,10,21,Ticks_Linear_5,8,5,42,127,1195653472
106,10,21,Ticks_Linear_5,9,1,48,48,1195705268
106,10,21,Ticks_Linear_5,10,5,42,127,1196144108
106,10,21,Ticks_Linear_5,11,1,48,49,1196203996
106,10,21,Ticks_Linear_5,12,5,42,127,1196633328
106,10,21,Ticks_Linear_5,13,1,48,52,1196675164
106,10,21,Ticks_Linear_5,14,5,42,127,1197124184
106,10,21,Ticks_Linear_5,15,1,48,48,1197161372
106,10,21,Ticks_Linear_5,16,5,42,127,1197623812
106,10,21,Ticks_Linear_5,17,1,48,41,1197639060
106,10,21,Ticks_Linear_5,18,5,42,127,1198124408
106,10,21,Ticks_Linear_5,19,1,48,49,1198144080
106,10,21,Ticks_Linear_5,20,5,42,127,1198624180
106,10,21,Ticks_Linear_5,21,1,48,51,1198641836
106,10,21,Ticks_Linear_5,22,5,42,127,1199123808
106,10,21,Ticks_Linear_5,23,1,48,48,1199127752
106,10,21,Ticks_Linear_5,24,5,42,127,1199623432
106,10,21,Ticks_Linear_5,25,1,48,50,1199625296
106,10,21,Ticks_Linear_5,26,5,42,127,1200133540
106,10,21,Ticks_Linear_5,27,1,48,44,1200144824
106,10,21,Ticks_Linear_5,28,1,48,53,1200630116
106,10,21,Ticks_Linear_5,29,5,42,127,1200643416
106,10,21,Ticks_Linear_5,30,1,48,58,1201134088
106,10,21,Ticks_Linear_5,31,5,42,127,1201154348
106,10,21,Ticks_Linear_5,32,1,48,51,1201655956
106,10,21,Ticks_Linear_5,33,5,42,127,1201673444
106,10,21,Ticks_Linear_5,34,1,48,50,1202180060
106,10,21,Ticks_Linear_5,35,5,42,127,1202183480
106,10,21,Ticks_Linear_5,36,1,48,55,1202690020
106,10,21,Ticks_Linear_5,37,5,42,127,1202703844
106,10,21,Ticks_Linear_5,38,1,48,55,1203215488
106,10,21,Ticks_Linear_5,39,5,42,127,1203224064
106,10,21,Ticks_Linear_5,40,5,42,127,1203744140
106,10,21,Ticks_Linear_5,41,1,48,55,1203753032
106,10,21,Ticks_Linear_5,42,5,42,127,1204264356
106,10,21,Ticks_Linear_5,43,1,48,52,1204278108
106,10,21,Ticks_Linear_5,44,5,42,127,1204783604
106,10,21,Ticks_Linear_5,45,1,48,57,1204788068
106,10,21,Ticks_Linear_5,46,1,48,55,1205307144
106,10,21,Ticks_Linear_5,47,5,42,127,1205314152
106,10,21,Ticks_Linear_5,48,1,48,57,1205826916
106,10,21,Ticks_Linear_5,49,5,42,127,1205844480
106,10,21,Ticks_Linear_5,50,5,42,127,1206373696
106,10,21,Ticks_Linear_5,51,1,48,56,1206384980
106,10,21,Ticks_Linear_5,52,5,42,127,1206904096
106,10,21,Ticks_Linear_5,53,1,48,53,1206912908
106,10,21,Ticks_Linear_5,54,1,48,54,1207415724
106,10,21,Ticks_Linear_5,55,5,42,127,1207433444
106,10,21,Ticks_Linear_5,56,1,48,52,1207927936
106,10,21,Ticks_Linear_5,57,5,42,127,1207974184
106,10,21,Ticks_Linear_5,58,1,48,56,1208489788
106,10,21,Ticks_Linear_5,59,5,42,127,1208514168
106,10,21,Ticks_Linear_5,60,1,48,51,1209032404
106,10,21,Ticks_Linear_5,61,5,42,127,1209053560
106,10,21,Ticks_Linear_5,62,1,48,54,1209587168
106,10,21,Ticks_Linear_5,63,5,42,127,1209594324
106,10,21,Ticks_Linear_5,64,1,48,57,1210113232
106,10,21,Ticks_Linear_5,65,5,42,127,1210134088
106,10,21,Ticks_Linear_5,66,1,48,55,1210671348
106,10,21,Ticks_Linear_5,67,5,42,127,1210683960
106,10,21,Ticks_Linear_5,68,1,48,55,1211211100
106,10,21,Ticks_Linear_5,69,5,42,127,1211233688
106,10,21,Ticks_Linear_5,70,1,48,53,1211766896
106,10,21,Ticks_Linear_5,71,5,42,127,1211783488
106,10,21,Ticks_Linear_5,72,1,48,58,1212305984
106,10,21,Ticks_Linear_5,73,5,42,127,1212333436
106,10,21,Ticks_Linear_5,74,1,48,57,1212881464
106,10,21,Ticks_Linear_5,75,5,42,127,1212884280
106,10,21,Ticks_Linear_5,76,1,48,59,1213434068
106,10,21,Ticks_Linear_5,77,5,42,127,1213443320
106,10,21,Ticks_Linear_5,78,5,42,127,1214003608
106,10,21,Ticks_Linear_5,79,1,48,56,1214008896
106,10,21,Ticks_Linear_5,80,5,42,127,1214563668
106,10,21,Ticks_Linear_5,81,1,48,54,1214581380
106,10,21,Ticks_Linear_5,82,1,48,57,1215117084
106,10,21,Ticks_Linear_5,83,5,42,127,1215123792
106,10,21,Ticks_Linear_5,84,1,48,55,1215680884
106,10,21,Ticks_Linear_5,85,5,42,127,1215684000
106,10,21,Ticks_Linear_5,86,1,48,54,1216245316
106,10,21,Ticks_Linear_5,87,5,42,127,1216254268
106,10,21,Ticks_Linear_5,88,1,48,55,1216806048
106,10,21,Ticks_Linear_5,89,5,42,127,1216823616
106,10,21,Ticks_Linear_5,90,1,48,49,1217370592
106,10,21,Ticks_Linear_5,91,5,42,127,1217394080
106,10,21,Ticks_Linear_5,92,1,48,51,1217923992
106,10,21,Ticks_Linear_5,93,5,42,127,1217964324
106,10,21,Ticks_Linear_5,94,1,48,23,1217994240
106,10,21,Ticks_Linear_5,95,1,48,55,1218519224
106,10,21,Ticks_Linear_5,96,5,42,127,1218534020
106,10,21,Ticks_Linear_5,97,1,48,52,1219092344
106,10,21,Ticks_Linear_5,98,5,42,127,1219114324
106,10,21,Ticks_Linear_5,99,1,48,56,1219671204
106,10,21,Ticks_Linear_5,100,5,42,127,1219693928
106,10,21,Ticks_Linear_5,101,5,42,127,1220273616
106,10,21,Ticks_Linear_5,102,1,48,51,1220277032
106,10,21,Ticks_Linear_5,103,1,48,60,1220840736
106,10,21,Ticks_Linear_5,104,5,42,127,1220854036
106,10,21,Ticks_Linear_5,105,1,48,52,1221432364
106,10,21,Ticks_Linear_5,106,5,42,127,1221433864
106,10,21,Ticks_Linear_5,107,1,48,47,1221990508
106,10,21,Ticks_Linear_5,108,5,42,127,1222023428
106,10,21,Ticks_Linear_5,109,1,48,59,1222587264
106,10,21,Ticks_Linear_5,110,5,42,127,1222614416
106,10,21,Ticks_Linear_5,111,1,48,58,1223199916
106,10,21,Ticks_Linear_5,112,5,42,127,1223204304
106,10,21,Ticks_Linear_5,113,5,42,127,1223794176
106,10,21,Ticks_Linear_5,114,1,48,62,1223802840
106,10,21,Ticks_Linear_5,115,5,42,127,1224383816
106,10,21,Ticks_Linear_5,116,1,48,57,1224401532
106,10,21,Ticks_Linear_5,117,1,48,53,1224973132
106,10,21,Ticks_Linear_5,118,5,42,127,1224983808
106,10,21,Ticks_Linear_5,119,1,48,60,1225558276
106,10,21,Ticks_Linear_5,120,5,42,127,1225583932
106,10,21,Ticks_Linear_5,121,1,48,63,1226159744
106,10,21,Ticks_Linear_5,122,5,42,127,1226184052
106,10,21,Ticks_Linear_5,123,1,48,58,1226761240
106,10,21,Ticks_Linear_5,124,5,42,127,1226784052
106,10,21,Ticks_Linear_5,125,1,48,56,1227380012
106,10,21,Ticks_Linear_5,126,5,42,127,1227384324
106,10,21,Ticks_Linear_5,127,1,48,60,1227982836
106,10,21,Ticks_Linear_5,128,5,42,127,1227993584
106,10,21,Ticks_Linear_5,129,5,42,127,1228603920
106,10,21,Ticks_Linear_5,130,1,48,55,1228606820
106,10,21,Ticks_Linear_5,131,1,48,52,1229212728
106,10,21,Ticks_Linear_5,132,5,42,127,1229214224
106,10,21,Ticks_Linear_5,133,1,48,56,1229810428
106,10,21,Ticks_Linear_5,134,5,42,127,1229824256
106,10,21,Ticks_Linear_5,135,5,42,127,1230433672
106,10,21,Ticks_Linear_5,136,1,48,55,1230437616
106,10,21,Ticks_Linear_5,137,5,42,127,1231054312
106,10,21,Ticks_Linear_5,138,1,48,54,1231055280
106,10,21,Ticks_Linear_5,139,1,48,48,1231657484
106,10,21,Ticks_Linear_5,140,5,42,127,1231673924
106,10,21,Ticks_Linear_5,141,1,48,54,1232265096
106,10,21,Ticks_Linear_5,142,5,42,127,1232294196
106,10,21,Ticks_Linear_5,143,1,48,48,1232885688
106,10,21,Ticks_Linear_5,144,5,42,127,1232913888
106,10,21,Ticks_Linear_5,145,1,48,48,1233510596
106,10,21,Ticks_Linear_5,146,5,42,127,1233534604
106,10,21,Ticks_Linear_5,147,1,48,49,1234145772
106,10,21,Ticks_Linear_5,148,5,42,127,1234163960
106,10,21,Ticks_Linear_5,149,1,48,55,1234776252
106,10,21,Ticks_Linear_5,150,5,42,127,1234793816
106,10,21,Ticks_Linear_5,151,1,48,48,1235402888
106,10,21,Ticks_Linear_5,152,5,42,127,1235423964
106,10,21,Ticks_Linear_5,153,1,48,44,1236032620
106,10,21,Ticks_Linear_5,154,5,42,127,1236054520
106,10,21,Ticks_Linear_5,155,1,48,59,1236652436
106,10,21,Ticks_Linear_5,156,5,42,127,1236684296
106,10,21,Ticks_Linear_5,157,1,48,56,1237281944
106,10,21,Ticks_Linear_5,158,5,42,127,1237324064
106,10,21,Ticks_Linear_5,159,1,48,58,1237935452
106,10,21,Ticks_Linear_5,160,5,42,127,1237964100
106,10,21,Ticks_Linear_5,161,1,48,59,1238593868
106,10,21,Ticks_Linear_5,162,5,42,127,1238604016
106,10,21,Ticks_Linear_5,163,5,42,127,1239244060
106,10,21,Ticks_Linear_5,164,1,48,58,1239252500
106,10,21,Ticks_Linear_5,165,1,48,56,1239871800
106,10,21,Ticks_Linear_5,166,5,42,127,1239884044
106,10,21,Ticks_Linear_5,167,1,48,62,1240526580
106,10,21,Ticks_Linear_5,168,5,42,127,1240534264
106,10,21,Ticks_Linear_5,169,5,42,127,1241183768
106,10,21,Ticks_Linear_5,170,1,48,58,1241189132
106,10,21,Ticks_Linear_5,171,5,42,127,1241833940
106,10,21,Ticks_Linear_5,172,1,48,51,1241857060
106,10,21,Ticks_Linear_5,173,5,42,127,1242484016
106,10,21,Ticks_Linear_5,174,1,48,61,1242491396
106,10,21,Ticks_Linear_5,175,5,42,127,1243134188
106,10,21,Ticks_Linear_5,176,1,48,62,1243144124
106,10,21,Ticks_Linear_5,177,5,42,127,1243793696
106,10,21,Ticks_Linear_5,178,1,48,60,1243798236
106,10,21,Ticks_Linear_5,179,1,48,63,1244436856
106,10,21,Ticks_Linear_5,180,5,42,127,1244454272
106,10,21,Ticks_Linear_5,181,5,42,127,1245113712
106,10,21,Ticks_Linear_5,182,1,48,62,1245116460
106,10,21,Ticks_Linear_5,183,5,42,127,1245774148
106,10,21,Ticks_Linear_5,184,1,48,64,1245791652
106,10,21,Ticks_Linear_5,185,5,42,127,1246433808
106,10,21,Ticks_Linear_5,186,1,48,53,1246450728
106,10,21,Ticks_Linear_5,187,1,48,59,1247093668
106,10,21,Ticks_Linear_5,188,5,42,127,1247104492
106,10,21,Ticks_Linear_5,189,1,48,62,1247760836
106,10,21,Ticks_Linear_5,190,5,42,127,1247774060
106,10,21,Ticks_Linear_5,191,5,42,127,1248443688
106,10,21,Ticks_Linear_5,192,1,48,50,1248468596
106,10,21,Ticks_Linear_5,193,5,42,127,1249113556
106,10,21,Ticks_Linear_5,194,1,48,54,1249129400
106,10,21,Ticks_Linear_5,195,1,48,54,1249783344
106,10,21,Ticks_Linear_5,196,5,42,127,1249784916
106,10,21,Ticks_Linear_5,197,1,48,52,1250455696
106,10,21,Ticks_Linear_5,198,5,42,127,1250464120
106,10,21,Ticks_Linear_5,199,1,48,46,1251096352
106,10,21,Ticks_Linear_5,200,5,42,127,1251143948
106,10,21,Ticks_Linear_5,201,1,48,46,1251803644
106,10,21,Ticks_Linear_5,202,5,42,127,1251823928
106,10,21,Ticks_Linear_5,203,1,48,54,1252469532
106,10,21,Ticks_Linear_5,204,5,42,127,1252504028
106,10,21,Ticks_Linear_5,205,1,48,59,1253181260
106,10,21,Ticks_Linear_5,206,5,42,127,1253183856
106,10,21,Ticks_Linear_5,207,5,42,127,1253873952
106,10,21,Ticks_Linear_5,208,1,48,60,1253885536
106,10,21,Ticks_Linear_5,209,5,42,127,1254564092
106,10,21,Ticks_Linear_5,210,1,48,53,1254581892
106,10,21,Ticks_Linear_5,211,1,48,55,1255236600
106,10,21,Ticks_Linear_5,212,5,42,127,1255254544
106,10,21,Ticks_Linear_5,213,1,48,53,1255915460
106,10,21,Ticks_Linear_5,214,5,42,127,1255943584
106,10,21,Ticks_Linear_5,215,5,42,127,1256633656
106,10,21,Ticks_Linear_5,216,1,48,64,1256634696
106,10,21,Ticks_Linear_5,217,1,48,61,1257333700
106,10,21,Ticks_Linear_5,218,5,42,127,1257335268
106,10,21,Ticks_Linear_5,219,5,42,127,1258033604
106,10,21,Ticks_Linear_5,220,1,48,60,1258045332
106,10,21,Ticks_Linear_5,221,1,48,58,1258725864
106,10,21,Ticks_Linear_5,222,5,42,127,1258734092
106,10,21,Ticks_Linear_5,223,5,42,127,1259434344
106,10,21,Ticks_Linear_5,224,1,48,56,1259449448
106,10,21,Ticks_Linear_5,225,5,42,127,1260133720
106,10,21,Ticks_Linear_5,226,1,48,54,1260140056
106,10,21,Ticks_Linear_5,227,1,48,58,1260823168
106,10,21,Ticks_Linear_5,228,5,42,127,1260844396
106,10,21,Ticks_Linear_5,229,5,42,127,1261554112
106,10,21,Ticks_Linear_5,230,1,48,55,1261563896
106,10,21,Ticks_Linear_5,231,5,42,127,1262263572
106,10,21,Ticks_Linear_5,232,1,48,54,1262286684
106,10,21,Ticks_Linear_5,233,1,48,54,1262972660
106,10,21,Ticks_Linear_5,234,5,42,127,1262974320
106,10,21,Ticks_Linear_5,235,5,42,127,1263684112
106,10,21,Ticks_Linear_5,236,1,48,52,1263686628
106,10,21,Ticks_Linear_5,237,1,48,52,1264402500
106,10,21,Ticks_Linear_5,238,5,42,127,1264403924
106,10,21,Ticks_Linear_5,239,1,48,50,1265100380
106,10,21,Ticks_Linear_5,240,5,42,127,1265123644
106,10,21,Ticks_Linear_5,241,5,42,127,1265843468
106,10,21,Ticks_Linear_5,242,1,48,49,1265848008
106,10,21,Ticks_Linear_5,243,5,42,127,1266563360
106,10,21,Ticks_Linear_5,244,1,48,41,1266583932
106,10,21,Ticks_Linear_5,245,1,48,50,1267270540
106,10,21,Ticks_Linear_5,246,5,42,127,1267284296
106,10,21,Ticks_Linear_5,247,1,48,58,1267993964
106,10,21,Ticks_Linear_5,248,5,42,127,1268013400
106,10,21,Ticks_Linear_5,249,1,48,54,1268740288
106,10,21,Ticks_Linear_5,250,5,42,127,1268743480
106,10,21,Ticks_Linear_5,251,5,42,127,1269473536
106,10,21,Ticks_Linear_5,252,1,48,46,1269527524
106,10,21,Ticks_Linear_5,253,1,48,52,1270196600
106,10,21,Ticks_Linear_5,254,5,42,127,1270203756
106,10,21,Ticks_Linear_5,255,1,48,45,1270900088
106,10,21,Ticks_Linear_5,256,5,42,127,1270933908
106,10,21,Ticks_Linear_5,257,1,48,55,1271619012
106,10,21,Ticks_Linear_5,258,5,42,127,1271674320
106,10,21,Ticks_Linear_5,259,1,48,65,1272383316
106,10,21,Ticks_Linear_5,260,5,42,127,1272413688
106,10,21,Ticks_Linear_5,261,1,48,65,1273148888
106,10,21,Ticks_Linear_5,262,5,42,127,1273153800
106,10,21,Ticks_Linear_5,263,5,42,127,1273894220
106,10,21,Ticks_Linear_5,264,1,48,57,1273903188
106,10,21,Ticks_Linear_5,265,5,42,127,1274633512
106,10,21,Ticks_Linear_5,266,1,48,61,1274655500
106,10,21,Ticks_Linear_5,267,1,48,58,1275362328
106,10,21,Ticks_Linear_5,268,5,42,127,1275384472
106,10,21,Ticks_Linear_5,269,1,48,62,1276108492
106,10,21,Ticks_Linear_5,270,5,42,127,1276133624
106,10,21,Ticks_Linear_5,271,1,48,63,1276846060
106,10,21,Ticks_Linear_5,272,5,42,127,1276884296
106,10,21,Ticks_Linear_5,273,1,48,58,1277580252
106,10,21,Ticks_Linear_5,274,5,42,127,1277633992
106,10,21,Ticks_Linear_5,275,1,48,57,1278343140
106,10,21,Ticks_Linear_5,276,5,42,127,1278383692
106,10,21,Ticks_Linear_5,277,1,48,63,1279117628
106,10,21,Ticks_Linear_5,278,5,42,127,1279144400
106,10,21,Ticks_Linear_5,279,1,48,64,1279902324
106,10,21,Ticks_Linear_5,280,5,42,127,1279904060
106,10,21,Ticks_Linear_5,281,1,48,71,1280635744
106,10,21,Ticks_Linear_5,282,5,42,127,1280663872
106,10,21,Ticks_Linear_5,283,1,48,67,1281423308
106,10,21,Ticks_Linear_5,284,5,42,127,1281424800
106,10,21,Ticks_Linear_5,285,5,42,127,1282183420
106,10,21,Ticks_Linear_5,286,1,48,66,1282192308
106,10,21,Ticks_Linear_5,287,1,48,64,1282927680
106,10,21,Ticks_Linear_5,288,5,42,127,1282953632
106,10,21,Ticks_Linear_5,289,5,42,127,1283723708
106,10,21,Ticks_Linear_5,290,1,48,65,1283740752
106,10,21,Ticks_Linear_5,291,5,42,127,1284493772
106,10,21,Ticks_Linear_5,292,1,48,59,1284499660
106,10,21,Ticks_Linear_5,293,1,48,59,1285251444
106,10,21,Ticks_Linear_5,294,5,42,127,1285263684
106,10,21,Ticks_Linear_5,295,5,42,127,1286033760
106,10,21,Ticks_Linear_5,296,1,48,66,1286052164
106,10,21,Ticks_Linear_5,297,5,42,127,1286814084
106,10,21,Ticks_Linear_5,298,1,48,61,1286815052
106,10,21,Ticks_Linear_5,299,5,42,127,1287594412
106,10,21,Ticks_Linear_5,300,1,48,61,1287623520
106,10,21,Ticks_Linear_5,301,1,48,59,1288358660
106,10,21,Ticks_Linear_5,302,5,42,127,1288373608
106,10,21,Ticks_Linear_5,303,1,48,58,1289149024
106,10,21,Ticks_Linear_5,304,5,42,127,1289154160
106,10,21,Ticks_Linear_5,305,5,42,127,1289934196
106,10,21,Ticks_Linear_5,306,1,48,57,1289935460
106,10,21,Ticks_Linear_5,307,1,48,55,1290717252
106,10,21,Ticks_Linear_5,308,5,42,127,1290724104
106,10,21,Ticks_Linear_5,309,1,48,57,1291506484
106,10,21,Ticks_Linear_5,310,5,42,127,1291514168
106,10,21,Ticks_Linear_5,311,5,42,127,1292303716
106,10,21,Ticks_Linear_5,312,1,48,55,1292307284
106,10,21,Ticks_Linear_5,313,1,48,57,1293083024
106,10,21,Ticks_Linear_5,314,5,42,127,1293094144
106,10,21,Ticks_Linear_5,315,5,42,127,1293883916
106,10,21,Ticks_Linear_5,316,1,48,56,1293890176
106,10,21,Ticks_Linear_5,317,1,48,60,1294666288
106,10,21,Ticks_Linear_5,318,5,42,127,1294683408
106,10,21,Ticks_Linear_5,319,1,48,56,1295483880
106,10,21,Ticks_Linear_5,320,5,42,127,1295485448
106,10,21,Ticks_Linear_5,321,1,48,59,1296263348
106,10,21,Ticks_Linear_5,322,5,42,127,1296284200
106,10,21,Ticks_Linear_5,323,5,42,127,1297083708
106,10,21,Ticks_Linear_5,324,1,48,57,1297099328
106,10,21,Ticks_Linear_5,325,1,48,52,1297867208
106,10,21,Ticks_Linear_5,326,5,42,127,1297883576
106,10,21,Ticks_Linear_5,327,1,48,53,1298686052
106,10,21,Ticks_Linear_5,328,5,42,127,1298693432
106,10,21,Ticks_Linear_5,329,1,48,59,1299475592
106,10,21,Ticks_Linear_5,330,5,42,127,1299503416
106,10,21,Ticks_Linear_5,331,5,42,127,1300313404
106,10,21,Ticks_Linear_5,332,1,48,60,1300317572
106,10,21,Ticks_Linear_5,333,1,48,58,1301116076
106,10,21,Ticks_Linear_5,334,5,42,127,1301123304
106,10,21,Ticks_Linear_5,335,1,48,61,1301906736
106,10,21,Ticks_Linear_5,336,5,42,127,1301933364
106,10,21,Ticks_Linear_5,0,9999,9999,9999,1192751168
106,10,21,Ticks_Linear_5,1,9999,9999,9999,1193231420
106,10,21,Ticks_Linear_5,2,9999,9999,9999,1193711744
106,10,21,Ticks_Linear_5,3,9999,9999,9999,1194191964
106,10,21,Ticks_Linear_5,4,9999,9999,9999,1194671168
106,10,21,Ticks_Linear_5,5,9999,9999,9999,1195161660
106,10,21,Ticks_Linear_5,6,9999,9999,9999,1195651176
106,10,21,Ticks_Linear_5,7,9999,9999,9999,1196141664
106,10,21,Ticks_Linear_5,8,9999,9999,9999,1196631104
106,10,21,Ticks_Linear_5,9,9999,9999,9999,1197121588
106,10,21,Ticks_Linear_5,10,9999,9999,9999,1197621364
106,10,21,Ticks_Linear_5,11,9999,9999,9999,1198122108
106,10,21,Ticks_Linear_5,12,9999,9999,9999,1198621808
106,10,21,Ticks_Linear_5,13,9999,9999,9999,1199121508
106,10,21,Ticks_Linear_5,14,9999,9999,9999,1199621208
106,10,21,Ticks_Linear_5,15,9999,9999,9999,1200131168
106,10,21,Ticks_Linear_5,16,9999,9999,9999,1200641120
106,10,21,Ticks_Linear_5,17,9999,9999,9999,1201152124
106,10,21,Ticks_Linear_5,18,9999,9999,9999,1201671220
106,10,21,Ticks_Linear_5,19,9999,9999,9999,1202181180
106,10,21,Ticks_Linear_5,20,9999,9999,9999,1202701400
106,10,21,Ticks_Linear_5,21,9999,9999,9999,1203221616
106,10,21,Ticks_Linear_5,22,9999,9999,9999,1203741768
106,10,21,Ticks_Linear_5,23,9999,9999,9999,1204261984
106,10,21,Ticks_Linear_5,24,9999,9999,9999,1204781156
106,10,21,Ticks_Linear_5,25,9999,9999,9999,1205311556
106,10,21,Ticks_Linear_5,26,9999,9999,9999,1205842032
106,10,21,Ticks_Linear_5,27,9999,9999,9999,1206371396
106,10,21,Ticks_Linear_5,28,9999,9999,9999,1206901872
106,10,21,Ticks_Linear_5,29,9999,9999,9999,1207431220
106,10,21,Ticks_Linear_5,30,9999,9999,9999,1207971960
106,10,21,Ticks_Linear_5,31,9999,9999,9999,1208511576
106,10,21,Ticks_Linear_5,32,9999,9999,9999,1209051188
106,10,21,Ticks_Linear_5,33,9999,9999,9999,1209591876
106,10,21,Ticks_Linear_5,34,9999,9999,9999,1210131564
106,10,21,Ticks_Linear_5,35,9999,9999,9999,1210681440
106,10,21,Ticks_Linear_5,36,9999,9999,9999,1211231316
106,10,21,Ticks_Linear_5,37,9999,9999,9999,1211781188
106,10,21,Ticks_Linear_5,38,9999,9999,9999,1212331064
106,10,21,Ticks_Linear_5,39,9999,9999,9999,1212881984
106,10,21,Ticks_Linear_5,40,9999,9999,9999,1213441096
106,10,21,Ticks_Linear_5,41,9999,9999,9999,1214001236
106,10,21,Ticks_Linear_5,42,9999,9999,9999,1214561368
106,10,21,Ticks_Linear_5,43,9999,9999,9999,1215121496
106,10,21,Ticks_Linear_5,44,9999,9999,9999,1215681628
106,10,21,Ticks_Linear_5,45,9999,9999,9999,1216251972
106,10,21,Ticks_Linear_5,46,9999,9999,9999,1216821316
106,10,21,Ticks_Linear_5,47,9999,9999,9999,1217391708
106,10,21,Ticks_Linear_5,48,9999,9999,9999,1217962100
106,10,21,Ticks_Linear_5,49,9999,9999,9999,1218531420
106,10,21,Ticks_Linear_5,50,9999,9999,9999,1219112024
106,10,21,Ticks_Linear_5,51,9999,9999,9999,1219691628
106,10,21,Ticks_Linear_5,52,9999,9999,9999,1220271168
106,10,21,Ticks_Linear_5,53,9999,9999,9999,1220851812
106,10,21,Ticks_Linear_5,54,9999,9999,9999,1221431424
106,10,21,Ticks_Linear_5,55,9999,9999,9999,1222021208
106,10,21,Ticks_Linear_5,56,9999,9999,9999,1222612040
106,10,21,Ticks_Linear_5,57,9999,9999,9999,1223201856
106,10,21,Ticks_Linear_5,58,9999,9999,9999,1223791728
106,10,21,Ticks_Linear_5,59,9999,9999,9999,1224381516
106,10,21,Ticks_Linear_5,60,9999,9999,9999,1224981584
106,10,21,Ticks_Linear_5,61,9999,9999,9999,1225581632
106,10,21,Ticks_Linear_5,62,9999,9999,9999,1226181752
106,10,21,Ticks_Linear_5,63,9999,9999,9999,1226781752
106,10,21,Ticks_Linear_5,64,9999,9999,9999,1227381876
106,10,21,Ticks_Linear_5,65,9999,9999,9999,1227991136
106,10,21,Ticks_Linear_5,66,9999,9999,9999,1228601400
106,10,21,Ticks_Linear_5,67,9999,9999,9999,1229211708
106,10,21,Ticks_Linear_5,68,9999,9999,9999,1229822032
106,10,21,Ticks_Linear_5,69,9999,9999,9999,1230431300
106,10,21,Ticks_Linear_5,70,9999,9999,9999,1231051864
106,10,21,Ticks_Linear_5,71,9999,9999,9999,1231671404
106,10,21,Ticks_Linear_5,72,9999,9999,9999,1232291896
106,10,21,Ticks_Linear_5,73,9999,9999,9999,1232911440
106,10,21,Ticks_Linear_5,74,9999,9999,9999,1233532008
106,10,21,Ticks_Linear_5,75,9999,9999,9999,1234161736
106,10,21,Ticks_Linear_5,76,9999,9999,9999,1234791516
106,10,21,Ticks_Linear_5,77,9999,9999,9999,1235421296
106,10,21,Ticks_Linear_5,78,9999,9999,9999,1236052072
106,10,21,Ticks_Linear_5,79,9999,9999,9999,1236681848
106,10,21,Ticks_Linear_5,80,9999,9999,9999,1237321840
106,10,21,Ticks_Linear_5,81,9999,9999,9999,1237961804
106,10,21,Ticks_Linear_5,82,9999,9999,9999,1238601792
106,10,21,Ticks_Linear_5,83,9999,9999,9999,1239241836
106,10,21,Ticks_Linear_5,84,9999,9999,9999,1239881816
106,10,21,Ticks_Linear_5,85,9999,9999,9999,1240532040
106,10,21,Ticks_Linear_5,86,9999,9999,9999,1241181248
106,10,21,Ticks_Linear_5,87,9999,9999,9999,1241831496
106,10,21,Ticks_Linear_5,88,9999,9999,9999,1242481792
106,10,21,Ticks_Linear_5,89,9999,9999,9999,1243131964
106,10,21,Ticks_Linear_5,90,9999,9999,9999,1243791472
106,10,21,Ticks_Linear_5,91,9999,9999,9999,1244451900
106,10,21,Ticks_Linear_5,92,9999,9999,9999,1245111416
106,10,21,Ticks_Linear_5,93,9999,9999,9999,1245771848
106,10,21,Ticks_Linear_5,94,9999,9999,9999,1246431356
106,10,21,Ticks_Linear_5,95,9999,9999,9999,1247102044
106,10,21,Ticks_Linear_5,96,9999,9999,9999,1247771764
106,10,21,Ticks_Linear_5,97,9999,9999,9999,1248441464
106,10,21,Ticks_Linear_5,98,9999,9999,9999,1249111108
106,10,21,Ticks_Linear_5,99,9999,9999,9999,1249781876
106,10,21,Ticks_Linear_5,100,9999,9999,9999,1250461820
106,10,21,Ticks_Linear_5,101,9999,9999,9999,1251141724
106,10,21,Ticks_Linear_5,102,9999,9999,9999,1251821628
106,10,21,Ticks_Linear_5,103,9999,9999,9999,1252501580
106,10,21,Ticks_Linear_5,104,9999,9999,9999,1253181556
106,10,21,Ticks_Linear_5,105,9999,9999,9999,1253871728
106,10,21,Ticks_Linear_5,106,9999,9999,9999,1254561868
106,10,21,Ticks_Linear_5,107,9999,9999,9999,1255252024
106,10,21,Ticks_Linear_5,108,9999,9999,9999,1255941212
106,10,21,Ticks_Linear_5,109,9999,9999,9999,1256631356
106,10,21,Ticks_Linear_5,110,9999,9999,9999,1257331780
106,10,21,Ticks_Linear_5,111,9999,9999,9999,1258031228
106,10,21,Ticks_Linear_5,112,9999,9999,9999,1258731644
106,10,21,Ticks_Linear_5,113,9999,9999,9999,1259432048
106,10,21,Ticks_Linear_5,114,9999,9999,9999,1260131424
106,10,21,Ticks_Linear_5,115,9999,9999,9999,1260842100
106,10,21,Ticks_Linear_5,116,9999,9999,9999,1261551740
106,10,21,Ticks_Linear_5,117,9999,9999,9999,1262261348
106,10,21,Ticks_Linear_5,118,9999,9999,9999,1262972048
106,10,21,Ticks_Linear_5,119,9999,9999,9999,1263681664
106,10,21,Ticks_Linear_5,120,9999,9999,9999,1264401484
106,10,21,Ticks_Linear_5,121,9999,9999,9999,1265121344
106,10,21,Ticks_Linear_5,122,9999,9999,9999,1265841244
106,10,21,Ticks_Linear_5,123,9999,9999,9999,1266561136
106,10,21,Ticks_Linear_5,124,9999,9999,9999,1267281996
106,10,21,Ticks_Linear_5,125,9999,9999,9999,1268011104
106,10,21,Ticks_Linear_5,126,9999,9999,9999,1268741180
106,10,21,Ticks_Linear_5,127,9999,9999,9999,1269471312
106,10,21,Ticks_Linear_5,128,9999,9999,9999,1270201456
106,10,21,Ticks_Linear_5,129,9999,9999,9999,1270931536
106,10,21,Ticks_Linear_5,130,9999,9999,9999,1271671872
106,10,21,Ticks_Linear_5,131,9999,9999,9999,1272411240
106,10,21,Ticks_Linear_5,132,9999,9999,9999,1273151576
106,10,21,Ticks_Linear_5,133,9999,9999,9999,1273891920
106,10,21,Ticks_Linear_5,134,9999,9999,9999,1274631284
106,10,21,Ticks_Linear_5,135,9999,9999,9999,1275381876
106,10,21,Ticks_Linear_5,136,9999,9999,9999,1276131400
106,10,21,Ticks_Linear_5,137,9999,9999,9999,1276881996
106,10,21,Ticks_Linear_5,138,9999,9999,9999,1277631548
106,10,21,Ticks_Linear_5,139,9999,9999,9999,1278381172
106,10,21,Ticks_Linear_5,140,9999,9999,9999,1279141952
106,10,21,Ticks_Linear_5,141,9999,9999,9999,1279901788
106,10,21,Ticks_Linear_5,142,9999,9999,9999,1280661572
106,10,21,Ticks_Linear_5,143,9999,9999,9999,1281421388
106,10,21,Ticks_Linear_5,144,9999,9999,9999,1282181196
106,10,21,Ticks_Linear_5,145,9999,9999,9999,1282951260
106,10,21,Ticks_Linear_5,146,9999,9999,9999,1283721332
106,10,21,Ticks_Linear_5,147,9999,9999,9999,1284491324
106,10,21,Ticks_Linear_5,148,9999,9999,9999,1285261388
106,10,21,Ticks_Linear_5,149,9999,9999,9999,1286031460
106,10,21,Ticks_Linear_5,150,9999,9999,9999,1286811712
106,10,21,Ticks_Linear_5,151,9999,9999,9999,1287592036
106,10,21,Ticks_Linear_5,152,9999,9999,9999,1288371312
106,10,21,Ticks_Linear_5,153,9999,9999,9999,1289151564
106,10,21,Ticks_Linear_5,154,9999,9999,9999,1289931896
106,10,21,Ticks_Linear_5,155,9999,9999,9999,1290721356
106,10,21,Ticks_Linear_5,156,9999,9999,9999,1291511868
106,10,21,Ticks_Linear_5,157,9999,9999,9999,1292301416
106,10,21,Ticks_Linear_5,158,9999,9999,9999,1293091920
106,10,21,Ticks_Linear_5,159,9999,9999,9999,1293881468
106,10,21,Ticks_Linear_5,160,9999,9999,9999,1294681184
106,10,21,Ticks_Linear_5,161,9999,9999,9999,1295481960
106,10,21,Ticks_Linear_5,162,9999,9999,9999,1296281680
106,10,21,Ticks_Linear_5,163,9999,9999,9999,1297081408
106,10,21,Ticks_Linear_5,164,9999,9999,9999,1297881200
106,10,21,Ticks_Linear_5,165,9999,9999,9999,1298691132
106,10,21,Ticks_Linear_5,166,9999,9999,9999,1299501116
106,10,21,Ticks_Linear_5,167,9999,9999,9999,1300311108
106,10,21,Ticks_Linear_5,168,9999,9999,9999,1301121080
106,10,21,Ticks_Linear_5,169,9999,9999,9999,1301931064
106,11,20,Ticks_Linear_8,0,5,42,127,1312295396
106,11,20,Ticks_Linear_8,1,5,42,127,1313114536
106,11,20,Ticks_Linear_8,2,5,42,127,1313934876
106,11,20,Ticks_Linear_8,3,5,42,127,1314754920
106,11,20,Ticks_Linear_8,4,5,42,127,1315575056
106,11,20,Ticks_Linear_8,5,1,48,66,1315587612
106,11,20,Ticks_Linear_8,6,5,42,127,1316385264
106,11,20,Ticks_Linear_8,7,1,48,52,1316435788
106,11,20,Ticks_Linear_8,8,5,42,127,1317195024
106,11,20,Ticks_Linear_8,9,1,48,53,1317263224
106,11,20,Ticks_Linear_8,10,5,42,127,1318005008
106,11,20,Ticks_Linear_8,11,1,48,63,1318022364
106,11,20,Ticks_Linear_8,12,1,48,51,1318810892
106,11,20,Ticks_Linear_8,13,5,42,127,1318815056
106,11,20,Ticks_Linear_8,14,1,48,54,1319603512
106,11,20,Ticks_Linear_8,15,5,42,127,1319624964
106,11,20,Ticks_Linear_8,16,5,42,127,1320425020
106,11,20,Ticks_Linear_8,17,1,48,60,1320427316
106,11,20,Ticks_Linear_8,18,5,42,127,1321224744
106,11,20,Ticks_Linear_8,19,1,48,54,1321242996
106,11,20,Ticks_Linear_8,20,1,48,59,1322024312
106,11,20,Ticks_Linear_8,21,5,42,127,1322025804
106,11,20,Ticks_Linear_8,22,5,42,127,1322825092
106,11,20,Ticks_Linear_8,23,1,48,61,1322861832
106,11,20,Ticks_Linear_8,24,5,42,127,1323624888
106,11,20,Ticks_Linear_8,25,1,48,56,1323665680
106,11,20,Ticks_Linear_8,26,5,42,127,1324415328
106,11,20,Ticks_Linear_8,27,1,48,59,1324448624
106,11,20,Ticks_Linear_8,28,5,42,127,1325204716
106,11,20,Ticks_Linear_8,29,1,48,53,1325206656
106,11,20,Ticks_Linear_8,30,5,42,127,1325995304
106,11,20,Ticks_Linear_8,31,1,48,54,1325998348
106,11,20,Ticks_Linear_8,32,5,42,127,1326784916
106,11,20,Ticks_Linear_8,33,1,48,59,1326797100
106,11,20,Ticks_Linear_8,34,1,48,60,1327569312
106,11,20,Ticks_Linear_8,35,5,42,127,1327575644
106,11,20,Ticks_Linear_8,36,1,48,51,1328329196
106,11,20,Ticks_Linear_8,37,5,42,127,1328354852
106,11,20,Ticks_Linear_8,38,5,42,127,1329134908
106,11,20,Ticks_Linear_8,39,1,48,66,1329162452
106,11,20,Ticks_Linear_8,40,5,42,127,1329915236
106,11,20,Ticks_Linear_8,41,1,48,64,1329938504
106,11,20,Ticks_Linear_8,42,1,48,57,1330682552
106,11,20,Ticks_Linear_8,43,5,42,127,1330694656
106,11,20,Ticks_Linear_8,44,5,42,127,1331474844
106,11,20,Ticks_Linear_8,45,1,48,57,1331498632
106,11,20,Ticks_Linear_8,46,5,42,127,1332244984
106,11,20,Ticks_Linear_8,47,1,48,64,1332286444
106,11,20,Ticks_Linear_8,48,1,48,64,1333000996
106,11,20,Ticks_Linear_8,49,5,42,127,1333014896
106,11,20,Ticks_Linear_8,50,5,42,127,1333784896
106,11,20,Ticks_Linear_8,51,1,48,59,1333803524
106,11,20,Ticks_Linear_8,52,5,42,127,1334555040
106,11,20,Ticks_Linear_8,53,1,48,55,1334559884
106,11,20,Ticks_Linear_8,54,5,42,127,1335325036
106,11,20,Ticks_Linear_8,55,1,48,56,1335332416
106,11,20,Ticks_Linear_8,56,5,42,127,1336084768
106,11,20,Ticks_Linear_8,57,1,48,57,1336094108
106,11,20,Ticks_Linear_8,58,5,42,127,1336844652
106,11,20,Ticks_Linear_8,59,1,48,58,1336863576
106,11,20,Ticks_Linear_8,60,1,48,64,1337586968
106,11,20,Ticks_Linear_8,61,5,42,127,1337604528
106,11,20,Ticks_Linear_8,62,5,42,127,1338365168
106,11,20,Ticks_Linear_8,63,1,48,55,1338398244
106,11,20,Ticks_Linear_8,64,5,42,127,1339124976
106,11,20,Ticks_Linear_8,65,1,48,58,1339151304
106,11,20,Ticks_Linear_8,66,5,42,127,1339874652
106,11,20,Ticks_Linear_8,67,1,48,63,1339886788
106,11,20,Ticks_Linear_8,68,1,48,58,1340621076
106,11,20,Ticks_Linear_8,69,5,42,127,1340625388
106,11,20,Ticks_Linear_8,70,5,42,127,1341374944
106,11,20,Ticks_Linear_8,71,1,48,60,1341400752
106,11,20,Ticks_Linear_8,72,5,42,127,1342125540
106,11,20,Ticks_Linear_8,73,1,48,58,1342133536
106,11,20,Ticks_Linear_8,74,5,42,127,1342885348
106,11,20,Ticks_Linear_8,75,1,48,54,1342902704
106,11,20,Ticks_Linear_8,76,1,48,57,1343623812
106,11,20,Ticks_Linear_8,77,5,42,127,1343625232
106,11,20,Ticks_Linear_8,78,1,48,62,1344351596
106,11,20,Ticks_Linear_8,79,5,42,127,1344364896
106,11,20,Ticks_Linear_8,80,5,42,127,1345105464
106,11,20,Ticks_Linear_8,81,1,48,36,1345122448
106,11,20,Ticks_Linear_8,82,5,42,127,1345844456
106,11,20,Ticks_Linear_8,83,1,48,57,1345885692
106,11,20,Ticks_Linear_8,84,1,48,63,1346565128
106,11,20,Ticks_Linear_8,85,5,42,127,1346584936
106,11,20,Ticks_Linear_8,86,1,48,60,1347313280
106,11,20,Ticks_Linear_8,87,5,42,127,1347314940
106,11,20,Ticks_Linear_8,88,5,42,127,1348045372
106,11,20,Ticks_Linear_8,89,1,48,54,1348062580
106,11,20,Ticks_Linear_8,90,1,48,63,1348764028
106,11,20,Ticks_Linear_8,91,5,42,127,1348775220
106,11,20,Ticks_Linear_8,92,5,42,127,1349505528
106,11,20,Ticks_Linear_8,93,1,48,65,1349515320
106,11,20,Ticks_Linear_8,94,5,42,127,1350234412
106,11,20,Ticks_Linear_8,95,1,48,63,1350272512
106,11,20,Ticks_Linear_8,96,5,42,127,1350955428
106,11,20,Ticks_Linear_8,97,1,48,57,1350984464
106,11,20,Ticks_Linear_8,98,5,42,127,1351675620
106,11,20,Ticks_Linear_8,99,1,48,59,1351683616
106,11,20,Ticks_Linear_8,100,5,42,127,1352395116
106,11,20,Ticks_Linear_8,101,1,48,62,1352471796
106,11,20,Ticks_Linear_8,102,5,42,127,1353114936
106,11,20,Ticks_Linear_8,103,1,48,53,1353142776
106,11,20,Ticks_Linear_8,104,5,42,127,1353834832
106,11,20,Ticks_Linear_8,105,1,48,57,1353850824
106,11,20,Ticks_Linear_8,106,1,48,60,1354538724
106,11,20,Ticks_Linear_8,107,5,42,127,1354544608
106,11,20,Ticks_Linear_8,108,1,48,51,1355229012
106,11,20,Ticks_Linear_8,109,5,42,127,1355255140
106,11,20,Ticks_Linear_8,110,1,48,66,1355937828
106,11,20,Ticks_Linear_8,111,5,42,127,1355964824
106,11,20,Ticks_Linear_8,112,5,42,127,1356674464
106,11,20,Ticks_Linear_8,113,1,48,60,1356680724
106,11,20,Ticks_Linear_8,114,5,42,127,1357385296
106,11,20,Ticks_Linear_8,115,1,48,61,1357423244
106,11,20,Ticks_Linear_8,116,5,42,127,1358084448
106,11,20,Ticks_Linear_8,117,1,48,63,1358091756
106,11,20,Ticks_Linear_8,118,1,48,65,1358770492
106,11,20,Ticks_Linear_8,119,5,42,127,1358784988
106,11,20,Ticks_Linear_8,120,1,48,62,1359483988
106,11,20,Ticks_Linear_8,121,5,42,127,1359485484
106,11,20,Ticks_Linear_8,122,1,48,66,1360181216
106,11,20,Ticks_Linear_8,123,5,42,127,1360184712
106,11,20,Ticks_Linear_8,124,5,42,127,1360885364
106,11,20,Ticks_Linear_8,125,1,48,53,1360891256
106,11,20,Ticks_Linear_8,126,1,48,57,1361568120
106,11,20,Ticks_Linear_8,127,5,42,127,1361575496
106,11,20,Ticks_Linear_8,128,5,42,127,1362264544
106,11,20,Ticks_Linear_8,129,1,48,65,1362276128
106,11,20,Ticks_Linear_8,130,5,42,127,1362954560
106,11,20,Ticks_Linear_8,131,1,48,63,1362974232
106,11,20,Ticks_Linear_8,132,5,42,127,1363644696
106,11,20,Ticks_Linear_8,133,1,48,59,1363650356
106,11,20,Ticks_Linear_8,134,5,42,127,1364335012
106,11,20,Ticks_Linear_8,135,1,48,53,1364351976
106,11,20,Ticks_Linear_8,136,5,42,127,1365014840
106,11,20,Ticks_Linear_8,137,1,48,59,1365048888
106,11,20,Ticks_Linear_8,138,1,48,57,1365687336
106,11,20,Ticks_Linear_8,139,5,42,127,1365694936
106,11,20,Ticks_Linear_8,140,5,42,127,1366374772
106,11,20,Ticks_Linear_8,141,1,48,51,1366388004
106,11,20,Ticks_Linear_8,142,5,42,127,1367054676
106,11,20,Ticks_Linear_8,143,1,48,48,1367057796
106,11,20,Ticks_Linear_8,144,5,42,127,1367734556
106,11,20,Ticks_Linear_8,145,1,48,65,1367755052
106,11,20,Ticks_Linear_8,146,1,48,59,1368400400
106,11,20,Ticks_Linear_8,147,5,42,127,1368405240
106,11,20,Ticks_Linear_8,148,1,48,51,1369062104
106,11,20,Ticks_Linear_8,149,5,42,127,1369075256
106,11,20,Ticks_Linear_8,150,5,42,127,1369744660
106,11,20,Ticks_Linear_8,151,1,48,59,1369751516
106,11,20,Ticks_Linear_8,152,5,42,127,1370414380
106,11,20,Ticks_Linear_8,153,1,48,55,1370440336
106,11,20,Ticks_Linear_8,154,5,42,127,1371085344
106,11,20,Ticks_Linear_8,155,1,48,58,1371094536
106,11,20,Ticks_Linear_8,156,1,48,57,1371745028
106,11,20,Ticks_Linear_8,157,5,42,127,1371746068
106,11,20,Ticks_Linear_8,158,5,42,127,1372405384
106,11,20,Ticks_Linear_8,159,1,48,57,1372407836
106,11,20,Ticks_Linear_8,160,1,48,56,1373050316
106,11,20,Ticks_Linear_8,161,5,42,127,1373064516
106,11,20,Ticks_Linear_8,162,1,48,55,1373724052
106,11,20,Ticks_Linear_8,163,5,42,127,1373725544
106,11,20,Ticks_Linear_8,164,5,42,127,1374384468
106,11,20,Ticks_Linear_8,165,1,48,45,1374390052
106,11,20,Ticks_Linear_8,166,5,42,127,1375034712
106,11,20,Ticks_Linear_8,167,1,48,50,1375042020
106,11,20,Ticks_Linear_8,168,5,42,127,1375684936
106,11,20,Ticks_Linear_8,169,1,48,59,1375691048
106,11,20,Ticks_Linear_8,170,5,42,127,1376335260
106,11,20,Ticks_Linear_8,171,1,48,60,1376348864
106,11,20,Ticks_Linear_8,172,1,48,59,1376956756
106,11,20,Ticks_Linear_8,173,5,42,127,1376984356
106,11,20,Ticks_Linear_8,174,5,42,127,1377634612
106,11,20,Ticks_Linear_8,175,1,48,52,1377674728
106,11,20,Ticks_Linear_8,176,5,42,127,1378274600
106,11,20,Ticks_Linear_8,177,1,48,55,1378311340
106,11,20,Ticks_Linear_8,178,5,42,127,1378914564
106,11,20,Ticks_Linear_8,179,1,48,53,1378934160
106,11,20,Ticks_Linear_8,180,5,42,127,1379554700
106,11,20,Ticks_Linear_8,181,1,48,55,1379562620
106,11,20,Ticks_Linear_8,182,5,42,127,1380194588
106,11,20,Ticks_Linear_8,183,1,48,60,1380211408
106,11,20,Ticks_Linear_8,184,1,48,54,1380833828
106,11,20,Ticks_Linear_8,185,5,42,127,1380835316
106,11,20,Ticks_Linear_8,186,5,42,127,1381464432
106,11,20,Ticks_Linear_8,187,1,48,52,1381494664
106,11,20,Ticks_Linear_8,188,5,42,127,1382095332
106,11,20,Ticks_Linear_8,189,1,48,50,1382118996
106,11,20,Ticks_Linear_8,190,1,48,51,1382723324
106,11,20,Ticks_Linear_8,191,5,42,127,1382725132
106,11,20,Ticks_Linear_8,192,5,42,127,1383354696
106,11,20,Ticks_Linear_8,193,1,48,49,1383362152
106,11,20,Ticks_Linear_8,194,5,42,127,1383984500
106,11,20,Ticks_Linear_8,195,1,48,54,1384004544
106,11,20,Ticks_Linear_8,196,5,42,127,1384605364
106,11,20,Ticks_Linear_8,197,1,48,51,1384617104
106,11,20,Ticks_Linear_8,198,5,42,127,1385224688
106,11,20,Ticks_Linear_8,199,1,48,53,1385246008
106,11,20,Ticks_Linear_8,200,1,48,57,1385835848
106,11,20,Ticks_Linear_8,201,5,42,127,1385845248
106,11,20,Ticks_Linear_8,202,1,48,54,1386454472
106,11,20,Ticks_Linear_8,203,5,42,127,1386464844
106,11,20,Ticks_Linear_8,204,1,48,54,1387077132
106,11,20,Ticks_Linear_8,205,5,42,127,1387085188
106,11,20,Ticks_Linear_8,206,1,48,55,1387687368
106,11,20,Ticks_Linear_8,207,5,42,127,1387694448
106,11,20,Ticks_Linear_8,208,5,42,127,1388304712
106,11,20,Ticks_Linear_8,209,1,48,53,1388324832
106,11,20,Ticks_Linear_8,210,5,42,127,1388915244
106,11,20,Ticks_Linear_8,211,1,48,57,1388920984
106,11,20,Ticks_Linear_8,212,5,42,127,1389525404
106,11,20,Ticks_Linear_8,213,1,48,45,1389542788
106,11,20,Ticks_Linear_8,214,5,42,127,1390134544
106,11,20,Ticks_Linear_8,215,1,48,52,1390135956
106,11,20,Ticks_Linear_8,216,5,42,127,1390734892
106,11,20,Ticks_Linear_8,217,1,48,46,1390765044
106,11,20,Ticks_Linear_8,218,5,42,127,1391334888
106,11,20,Ticks_Linear_8,219,1,48,57,1391366692
106,11,20,Ticks_Linear_8,220,5,42,127,1391935088
106,11,20,Ticks_Linear_8,221,1,48,51,1391952580
106,11,20,Ticks_Linear_8,222,5,42,127,1392534836
106,11,20,Ticks_Linear_8,223,1,48,53,1392545824
106,11,20,Ticks_Linear_8,224,1,48,52,1393134008
106,11,20,Ticks_Linear_8,225,5,42,127,1393135348
106,11,20,Ticks_Linear_8,226,5,42,127,1393724852
106,11,20,Ticks_Linear_8,227,1,48,54,1393750656
106,11,20,Ticks_Linear_8,228,5,42,127,1394314716
106,11,20,Ticks_Linear_8,229,1,48,50,1394327872
106,11,20,Ticks_Linear_8,230,5,42,127,1394904356
106,11,20,Ticks_Linear_8,231,1,48,51,1394919556
106,11,20,Ticks_Linear_8,232,1,48,50,1395478620
106,11,20,Ticks_Linear_8,233,5,42,127,1395495284
106,11,20,Ticks_Linear_8,234,5,42,127,1396085008
106,11,20,Ticks_Linear_8,235,1,48,56,1396102292
106,11,20,Ticks_Linear_8,236,5,42,127,1396664836
106,11,20,Ticks_Linear_8,237,1,48,45,1396686980
106,11,20,Ticks_Linear_8,238,1,48,54,1397243772
106,11,20,Ticks_Linear_8,239,5,42,127,1397245280
106,11,20,Ticks_Linear_8,240,5,42,127,1397824820
106,11,20,Ticks_Linear_8,241,1,48,41,1397867928
106,11,20,Ticks_Linear_8,242,5,42,127,1398404424
106,11,20,Ticks_Linear_8,243,1,48,54,1398415932
106,11,20,Ticks_Linear_8,244,5,42,127,1398985076
106,11,20,Ticks_Linear_8,245,1,48,39,1399011656
106,11,20,Ticks_Linear_8,246,5,42,127,1399554520
106,11,20,Ticks_Linear_8,247,1,48,47,1399570668
106,11,20,Ticks_Linear_8,248,5,42,127,1400124988
106,11,20,Ticks_Linear_8,249,1,48,40,1400126556
106,11,20,Ticks_Linear_8,250,1,48,48,1400693112
106,11,20,Ticks_Linear_8,251,5,42,127,1400695076
106,11,20,Ticks_Linear_8,252,5,42,127,1401264504
106,11,20,Ticks_Linear_8,253,1,48,48,1401297280
106,11,20,Ticks_Linear_8,254,5,42,127,1401834920
106,11,20,Ticks_Linear_8,255,1,48,54,1401862072
106,11,20,Ticks_Linear_8,256,5,42,127,1402395128
106,11,20,Ticks_Linear_8,257,1,48,39,1402422672
106,11,20,Ticks_Linear_8,258,1,48,45,1402948324
106,11,20,Ticks_Linear_8,259,5,42,127,1402955108
106,11,20,Ticks_Linear_8,260,5,42,127,1403515176
106,11,20,Ticks_Linear_8,261,1,48,37,1403519788
106,11,20,Ticks_Linear_8,262,1,48,46,1404060428
106,11,20,Ticks_Linear_8,263,5,42,127,1404075304
106,11,20,Ticks_Linear_8,264,5,42,127,1404634396
106,11,20,Ticks_Linear_8,265,1,48,43,1404639008
106,11,20,Ticks_Linear_8,266,1,48,38,1405179304
106,11,20,Ticks_Linear_8,267,5,42,127,1405185336
106,11,20,Ticks_Linear_8,268,5,42,127,1405735144
106,11,20,Ticks_Linear_8,269,1,48,50,1405750692
106,11,20,Ticks_Linear_8,270,5,42,127,1406285168
106,11,20,Ticks_Linear_8,271,1,48,46,1406320560
106,11,20,Ticks_Linear_8,272,5,42,127,1406835044
106,11,20,Ticks_Linear_8,273,1,48,55,1406860404
106,11,20,Ticks_Linear_8,274,1,48,44,1407379396
106,11,20,Ticks_Linear_8,275,5,42,127,1407385132
106,11,20,Ticks_Linear_8,276,5,42,127,1407924532
106,11,20,Ticks_Linear_8,277,1,48,47,1407930572
106,11,20,Ticks_Linear_8,278,1,48,46,1408461100
106,11,20,Ticks_Linear_8,279,5,42,127,1408465260
106,11,20,Ticks_Linear_8,280,5,42,127,1409004908
106,11,20,Ticks_Linear_8,281,1,48,55,1409017092
106,11,20,Ticks_Linear_8,282,5,42,127,1409544748
106,11,20,Ticks_Linear_8,283,1,48,37,1409564272
106,11,20,Ticks_Linear_8,284,1,48,51,1410046276
106,11,20,Ticks_Linear_8,285,5,42,127,1410085108
106,11,20,Ticks_Linear_8,286,5,42,127,1410614772
106,11,20,Ticks_Linear_8,287,1,48,48,1410633100
106,11,20,Ticks_Linear_8,288,5,42,127,1411145028
106,11,20,Ticks_Linear_8,289,1,48,52,1411163576
106,11,20,Ticks_Linear_8,290,5,42,127,1411674532
106,11,20,Ticks_Linear_8,291,1,48,54,1411688208
106,11,20,Ticks_Linear_8,292,1,48,53,1412201356
106,11,20,Ticks_Linear_8,293,5,42,127,1412205000
106,11,20,Ticks_Linear_8,294,1,48,51,1412727056
106,11,20,Ticks_Linear_8,295,5,42,127,1412735332
106,11,20,Ticks_Linear_8,296,5,42,127,1413254660
106,11,20,Ticks_Linear_8,297,1,48,48,1413260172
106,11,20,Ticks_Linear_8,298,5,42,127,1413774876
106,11,20,Ticks_Linear_8,299,1,48,46,1413784364
106,11,20,Ticks_Linear_8,300,5,42,127,1414294796
106,11,20,Ticks_Linear_8,301,1,48,54,1414326972
106,11,20,Ticks_Linear_8,302,5,42,127,1414815088
106,11,20,Ticks_Linear_8,303,1,48,48,1414856032
106,11,20,Ticks_Linear_8,304,5,42,127,1415335308
106,11,20,Ticks_Linear_8,305,1,48,50,1415368760
106,11,20,Ticks_Linear_8,306,1,48,42,1415834584
106,11,20,Ticks_Linear_8,307,5,42,127,1415845184
106,11,20,Ticks_Linear_8,308,5,42,127,1416355152
106,11,20,Ticks_Linear_8,309,1,48,50,1416369580
106,11,20,Ticks_Linear_8,310,5,42,127,1416865112
106,11,20,Ticks_Linear_8,311,1,48,51,1416871448
106,11,20,Ticks_Linear_8,312,5,42,127,1417375072
106,11,20,Ticks_Linear_8,313,1,48,48,1417395348
106,11,20,Ticks_Linear_8,314,5,42,127,1417885032
106,11,20,Ticks_Linear_8,315,1,48,44,1417903288
106,11,20,Ticks_Linear_8,316,1,48,48,1418382128
106,11,20,Ticks_Linear_8,317,5,42,127,1418384724
106,11,20,Ticks_Linear_8,318,5,42,127,1418884508
106,11,20,Ticks_Linear_8,319,1,48,49,1418892428
106,11,20,Ticks_Linear_8,320,5,42,127,1419385180
106,11,20,Ticks_Linear_8,321,1,48,49,1419393252
106,11,20,Ticks_Linear_8,322,1,48,46,1419880488
106,11,20,Ticks_Linear_8,323,5,42,127,1419884800
106,11,20,Ticks_Linear_8,324,5,42,127,1420384732
106,11,20,Ticks_Linear_8,325,1,48,48,1420434584
106,11,20,Ticks_Linear_8,326,5,42,127,1420874996
106,11,20,Ticks_Linear_8,327,1,48,45,1420901552
106,11,20,Ticks_Linear_8,328,5,42,127,1421364732
106,11,20,Ticks_Linear_8,329,1,48,47,1421375268
106,11,20,Ticks_Linear_8,330,1,48,44,1421836152
106,11,20,Ticks_Linear_8,331,5,42,127,1421855064
106,11,20,Ticks_Linear_8,332,5,42,127,1422344812
106,11,20,Ticks_Linear_8,333,1,48,51,1422350248
106,11,20,Ticks_Linear_8,334,5,42,127,1422835148
106,11,20,Ticks_Linear_8,0,9999,9999,9999,1312292948
106,11,20,Ticks_Linear_8,1,9999,9999,9999,1313112164
106,11,20,Ticks_Linear_8,2,9999,9999,9999,1313932356
106,11,20,Ticks_Linear_8,3,9999,9999,9999,1314752620
106,11,20,Ticks_Linear_8,4,9999,9999,9999,1315572832
106,11,20,Ticks_Linear_8,5,9999,9999,9999,1316382816
106,11,20,Ticks_Linear_8,6,9999,9999,9999,1317192800
106,11,20,Ticks_Linear_8,7,9999,9999,9999,1318002784
106,11,20,Ticks_Linear_8,8,9999,9999,9999,1318812760
106,11,20,Ticks_Linear_8,9,9999,9999,9999,1319622740
106,11,20,Ticks_Linear_8,10,9999,9999,9999,1320422496
106,11,20,Ticks_Linear_8,11,9999,9999,9999,1321222220
106,11,20,Ticks_Linear_8,12,9999,9999,9999,1322022992
106,11,20,Ticks_Linear_8,13,9999,9999,9999,1322822716
106,11,20,Ticks_Linear_8,14,9999,9999,9999,1323622516
106,11,20,Ticks_Linear_8,15,9999,9999,9999,1324413028
106,11,20,Ticks_Linear_8,16,9999,9999,9999,1325202492
106,11,20,Ticks_Linear_8,17,9999,9999,9999,1325993080
106,11,20,Ticks_Linear_8,18,9999,9999,9999,1326782544
106,11,20,Ticks_Linear_8,19,9999,9999,9999,1327573048
106,11,20,Ticks_Linear_8,20,9999,9999,9999,1328352328
106,11,20,Ticks_Linear_8,21,9999,9999,9999,1329132612
106,11,20,Ticks_Linear_8,22,9999,9999,9999,1329912936
106,11,20,Ticks_Linear_8,23,9999,9999,9999,1330692212
106,11,20,Ticks_Linear_8,24,9999,9999,9999,1331472468
106,11,20,Ticks_Linear_8,25,9999,9999,9999,1332242540
106,11,20,Ticks_Linear_8,26,9999,9999,9999,1333012600
106,11,20,Ticks_Linear_8,27,9999,9999,9999,1333782600
106,11,20,Ticks_Linear_8,28,9999,9999,9999,1334552664
106,11,20,Ticks_Linear_8,29,9999,9999,9999,1335322736
106,11,20,Ticks_Linear_8,30,9999,9999,9999,1336082544
106,11,20,Ticks_Linear_8,31,9999,9999,9999,1336842352
106,11,20,Ticks_Linear_8,32,9999,9999,9999,1337602156
106,11,20,Ticks_Linear_8,33,9999,9999,9999,1338362944
106,11,20,Ticks_Linear_8,34,9999,9999,9999,1339122752
106,11,20,Ticks_Linear_8,35,9999,9999,9999,1339872352
106,11,20,Ticks_Linear_8,36,9999,9999,9999,1340622940
106,11,20,Ticks_Linear_8,37,9999,9999,9999,1341372496
106,11,20,Ticks_Linear_8,38,9999,9999,9999,1342123092
106,11,20,Ticks_Linear_8,39,9999,9999,9999,1342882900
106,11,20,Ticks_Linear_8,40,9999,9999,9999,1343622264
106,11,20,Ticks_Linear_8,41,9999,9999,9999,1344362596
106,11,20,Ticks_Linear_8,42,9999,9999,9999,1345102940
106,11,20,Ticks_Linear_8,43,9999,9999,9999,1345842232
106,11,20,Ticks_Linear_8,44,9999,9999,9999,1346582636
106,11,20,Ticks_Linear_8,45,9999,9999,9999,1347312740
106,11,20,Ticks_Linear_8,46,9999,9999,9999,1348042852
106,11,20,Ticks_Linear_8,47,9999,9999,9999,1348772924
106,11,20,Ticks_Linear_8,48,9999,9999,9999,1349503080
106,11,20,Ticks_Linear_8,49,9999,9999,9999,1350232188
106,11,20,Ticks_Linear_8,50,9999,9999,9999,1350953056
106,11,20,Ticks_Linear_8,51,9999,9999,9999,1351672948
106,11,20,Ticks_Linear_8,52,9999,9999,9999,1352392816
106,11,20,Ticks_Linear_8,53,9999,9999,9999,1353112636
106,11,20,Ticks_Linear_8,54,9999,9999,9999,1353832532
106,11,20,Ticks_Linear_8,55,9999,9999,9999,1354542160
106,11,20,Ticks_Linear_8,56,9999,9999,9999,1355252844
106,11,20,Ticks_Linear_8,57,9999,9999,9999,1355962452
106,11,20,Ticks_Linear_8,58,9999,9999,9999,1356672092
106,11,20,Ticks_Linear_8,59,9999,9999,9999,1357382772
106,11,20,Ticks_Linear_8,60,9999,9999,9999,1358082148
106,11,20,Ticks_Linear_8,61,9999,9999,9999,1358782544
106,11,20,Ticks_Linear_8,62,9999,9999,9999,1359482968
106,11,20,Ticks_Linear_8,63,9999,9999,9999,1360182340
106,11,20,Ticks_Linear_8,64,9999,9999,9999,1360882768
106,11,20,Ticks_Linear_8,65,9999,9999,9999,1361572976
106,11,20,Ticks_Linear_8,66,9999,9999,9999,1362262100
106,11,20,Ticks_Linear_8,67,9999,9999,9999,1362952260
106,11,20,Ticks_Linear_8,68,9999,9999,9999,1363642472
106,11,20,Ticks_Linear_8,69,9999,9999,9999,1364332636
106,11,20,Ticks_Linear_8,70,9999,9999,9999,1365012540
106,11,20,Ticks_Linear_8,71,9999,9999,9999,1365692488
106,11,20,Ticks_Linear_8,72,9999,9999,9999,1366372472
106,11,20,Ticks_Linear_8,73,9999,9999,9999,1367052376
106,11,20,Ticks_Linear_8,74,9999,9999,9999,1367732328
106,11,20,Ticks_Linear_8,75,9999,9999,9999,1368403016
106,11,20,Ticks_Linear_8,76,9999,9999,9999,1369072736
106,11,20,Ticks_Linear_8,77,9999,9999,9999,1369742436
106,11,20,Ticks_Linear_8,78,9999,9999,9999,1370412156
106,11,20,Ticks_Linear_8,79,9999,9999,9999,1371082820
106,11,20,Ticks_Linear_8,80,9999,9999,9999,1371742284
106,11,20,Ticks_Linear_8,81,9999,9999,9999,1372402788
106,11,20,Ticks_Linear_8,82,9999,9999,9999,1373062220
106,11,20,Ticks_Linear_8,83,9999,9999,9999,1373722732
106,11,20,Ticks_Linear_8,84,9999,9999,9999,1374382168
106,11,20,Ticks_Linear_8,85,9999,9999,9999,1375032412
106,11,20,Ticks_Linear_8,86,9999,9999,9999,1375682636
106,11,20,Ticks_Linear_8,87,9999,9999,9999,1376332884
106,11,20,Ticks_Linear_8,88,9999,9999,9999,1376982132
106,11,20,Ticks_Linear_8,89,9999,9999,9999,1377632312
106,11,20,Ticks_Linear_8,90,9999,9999,9999,1378272348
106,11,20,Ticks_Linear_8,91,9999,9999,9999,1378912336
106,11,20,Ticks_Linear_8,92,9999,9999,9999,1379552376
106,11,20,Ticks_Linear_8,93,9999,9999,9999,1380192364
106,11,20,Ticks_Linear_8,94,9999,9999,9999,1380832332
106,11,20,Ticks_Linear_8,95,9999,9999,9999,1381462136
106,11,20,Ticks_Linear_8,96,9999,9999,9999,1382092884
106,11,20,Ticks_Linear_8,97,9999,9999,9999,1382722624
106,11,20,Ticks_Linear_8,98,9999,9999,9999,1383352396
106,11,20,Ticks_Linear_8,99,9999,9999,9999,1383982200
106,11,20,Ticks_Linear_8,100,9999,9999,9999,1384602692
106,11,20,Ticks_Linear_8,101,9999,9999,9999,1385222240
106,11,20,Ticks_Linear_8,102,9999,9999,9999,1385842800
106,11,20,Ticks_Linear_8,103,9999,9999,9999,1386462320
106,11,20,Ticks_Linear_8,104,9999,9999,9999,1387082812
106,11,20,Ticks_Linear_8,105,9999,9999,9999,1387692148
106,11,20,Ticks_Linear_8,106,9999,9999,9999,1388302416
106,11,20,Ticks_Linear_8,107,9999,9999,9999,1388912724
106,11,20,Ticks_Linear_8,108,9999,9999,9999,1389523032
106,11,20,Ticks_Linear_8,109,9999,9999,9999,1390132320
106,11,20,Ticks_Linear_8,110,9999,9999,9999,1390732368
106,11,20,Ticks_Linear_8,111,9999,9999,9999,1391332440
106,11,20,Ticks_Linear_8,112,9999,9999,9999,1391932492
106,11,20,Ticks_Linear_8,113,9999,9999,9999,1392532540
106,11,20,Ticks_Linear_8,114,9999,9999,9999,1393132612
106,11,20,Ticks_Linear_8,115,9999,9999,9999,1393722476
106,11,20,Ticks_Linear_8,116,9999,9999,9999,1394312268
106,11,20,Ticks_Linear_8,117,9999,9999,9999,1394902128
106,11,20,Ticks_Linear_8,118,9999,9999,9999,1395492984
106,11,20,Ticks_Linear_8,119,9999,9999,9999,1396082784
106,11,20,Ticks_Linear_8,120,9999,9999,9999,1396662388
106,11,20,Ticks_Linear_8,121,9999,9999,9999,1397242988
106,11,20,Ticks_Linear_8,122,9999,9999,9999,1397822520
106,11,20,Ticks_Linear_8,123,9999,9999,9999,1398402124
106,11,20,Ticks_Linear_8,124,9999,9999,9999,1398982776
106,11,20,Ticks_Linear_8,125,9999,9999,9999,1399552072
106,11,20,Ticks_Linear_8,126,9999,9999,9999,1400122464
106,11,20,Ticks_Linear_8,127,9999,9999,9999,1400692816
106,11,20,Ticks_Linear_8,128,9999,9999,9999,1401262204
106,11,20,Ticks_Linear_8,129,9999,9999,9999,1401832548
106,11,20,Ticks_Linear_8,130,9999,9999,9999,1402392680
106,11,20,Ticks_Linear_8,131,9999,9999,9999,1402952808
106,11,20,Ticks_Linear_8,132,9999,9999,9999,1403512952
106,11,20,Ticks_Linear_8,133,9999,9999,9999,1404073080
106,11,20,Ticks_Linear_8,134,9999,9999,9999,1404632172
106,11,20,Ticks_Linear_8,135,9999,9999,9999,1405183036
106,11,20,Ticks_Linear_8,136,9999,9999,9999,1405732920
106,11,20,Ticks_Linear_8,137,9999,9999,9999,1406282868
106,11,20,Ticks_Linear_8,138,9999,9999,9999,1406832744
106,11,20,Ticks_Linear_8,139,9999,9999,9999,1407382612
106,11,20,Ticks_Linear_8,140,9999,9999,9999,1407922232
106,11,20,Ticks_Linear_8,141,9999,9999,9999,1408462964
106,11,20,Ticks_Linear_8,142,9999,9999,9999,1409002612
106,11,20,Ticks_Linear_8,143,9999,9999,9999,1409542228
106,11,20,Ticks_Linear_8,144,9999,9999,9999,1410082884
106,11,20,Ticks_Linear_8,145,9999,9999,9999,1410612324
106,11,20,Ticks_Linear_8,146,9999,9999,9999,1411142728
106,11,20,Ticks_Linear_8,147,9999,9999,9999,1411672156
106,11,20,Ticks_Linear_8,148,9999,9999,9999,1412202552
106,11,20,Ticks_Linear_8,149,9999,9999,9999,1412733032
106,11,20,Ticks_Linear_8,150,9999,9999,9999,1413252212
106,11,20,Ticks_Linear_8,151,9999,9999,9999,1413772356
106,11,20,Ticks_Linear_8,152,9999,9999,9999,1414292572
106,11,20,Ticks_Linear_8,153,9999,9999,9999,1414812788
106,11,20,Ticks_Linear_8,154,9999,9999,9999,1415332936
106,11,20,Ticks_Linear_8,155,9999,9999,9999,1415842888
106,11,20,Ticks_Linear_8,156,9999,9999,9999,1416352852
106,11,20,Ticks_Linear_8,157,9999,9999,9999,1416862812
106,11,20,Ticks_Linear_8,158,9999,9999,9999,1417372772
106,11,20,Ticks_Linear_8,159,9999,9999,9999,1417882732
106,11,20,Ticks_Linear_8,160,9999,9999,9999,1418382428
106,11,20,Ticks_Linear_8,161,9999,9999,9999,1418882132
106,11,20,Ticks_Linear_8,162,9999,9999,9999,1419382880
106,11,20,Ticks_Linear_8,163,9999,9999,9999,1419882576
106,11,20,Ticks_Linear_8,164,9999,9999,9999,1420382284
106,11,20,Ticks_Linear_8,165,9999,9999,9999,1420872772
106,11,20,Ticks_Linear_8,166,9999,9999,9999,1421362284
106,11,20,Ticks_Linear_8,167,9999,9999,9999,1421852768
106,11,20,Ticks_Linear_8,168,9999,9999,9999,1422342216
106,11,20,Ticks_Linear_8,169,9999,9999,9999,1422832700
106,12,25,Jits_Pract_5,0,5,56,103,1486527808
106,12,25,Jits_Pract_5,1,5,63,98,1486530904
106,12,25,Jits_Pract_5,2,5,80,127,1486534032
106,12,25,Jits_Pract_5,0,5,56,103,1487027536
106,12,25,Jits_Pract_5,1,5,63,98,1487030704
106,12,25,Jits_Pract_5,2,5,80,127,1487033904
106,12,25,Jits_Pract_5,0,5,56,103,1487528252
106,12,25,Jits_Pract_5,1,5,80,127,1487537400
106,12,25,Jits_Pract_5,2,5,63,98,1487558012
106,12,25,Jits_Pract_5,0,5,63,98,1487978172
106,12,25,Jits_Pract_5,1,5,80,127,1488007552
106,12,25,Jits_Pract_5,2,5,56,103,1488017748
106,12,25,Jits_Pract_5,0,5,80,127,1488538140
106,12,25,Jits_Pract_5,1,5,56,103,1488548336
106,12,25,Jits_Pract_5,2,5,63,98,1488577936
106,12,25,Jits_Pract_5,0,5,63,98,1489027324
106,12,25,Jits_Pract_5,1,5,56,103,1489058048
106,12,25,Jits_Pract_5,2,5,80,127,1489068320
106,12,25,Jits_Pract_5,0,5,56,103,1489477980
106,12,25,Jits_Pract_5,1,5,63,98,1489528108
106,12,25,Jits_Pract_5,2,5,80,127,1489547816
106,12,25,Jits_Pract_5,0,5,80,127,1489977944
106,12,25,Jits_Pract_5,1,5,63,98,1490028000
106,12,25,Jits_Pract_5,2,5,56,103,1490067936
106,12,25,Jits_Pract_5,0,5,56,103,1490477316
106,12,25,Jits_Pract_5,1,5,63,98,1490508116
106,12,25,Jits_Pract_5,2,5,80,127,1490577868
106,12,25,Jits_Pract_5,0,5,56,103,1490978032
106,12,25,Jits_Pract_5,1,5,80,127,1491037600
106,12,25,Jits_Pract_5,2,5,63,98,1491068248
106,12,25,Jits_Pract_5,0,5,56,103,1491488040
106,12,25,Jits_Pract_5,1,5,63,98,1491498384
106,12,25,Jits_Pract_5,2,5,80,127,1491538248
106,12,25,Jits_Pract_5,0,5,63,98,1491977740
106,12,25,Jits_Pract_5,1,5,80,127,1492057464
106,12,25,Jits_Pract_5,2,5,56,103,1492067808
106,12,25,Jits_Pract_5,0,5,63,98,1492527596
106,12,25,Jits_Pract_5,1,5,56,103,1492568432
106,12,25,Jits_Pract_5,2,5,80,127,1492571720
106,12,25,Jits_Pract_5,0,5,56,103,1492988212
106,12,25,Jits_Pract_5,1,5,63,98,1492997732
106,12,25,Jits_Pract_5,2,5,80,127,1493037372
106,12,25,Jits_Pract_5,0,5,56,103,1493477760
106,12,25,Jits_Pract_5,1,5,63,98,1493480824
106,12,25,Jits_Pract_5,2,5,80,127,1493498368
106,12,25,Jits_Pract_5,0,9999,9999,9999,1486775396
106,12,25,Jits_Pract_5,1,9999,9999,9999,1487275124
106,12,25,Jits_Pract_5,2,9999,9999,9999,1487775844
106,12,25,Jits_Pract_5,3,9999,9999,9999,1488275508
106,12,25,Jits_Pract_5,4,9999,9999,9999,1488775244
106,12,25,Jits_Pract_5,5,9999,9999,9999,1489275964
106,12,25,Jits_Pract_5,6,9999,9999,9999,1489775688
106,12,25,Jits_Pract_5,7,9999,9999,9999,1490275432
106,12,25,Jits_Pract_5,8,9999,9999,9999,1490775104
106,12,25,Jits_Pract_5,9,9999,9999,9999,1491275896
106,12,25,Jits_Pract_5,10,9999,9999,9999,1491775560
106,12,25,Jits_Pract_5,11,9999,9999,9999,1492275304
106,12,25,Jits_Pract_5,12,9999,9999,9999,1492776004
106,12,25,Jits_Pract_5,13,9999,9999,9999,1493275728
106,12,25,Jits_Pract_5,14,9999,9999,9999,1493775456
106,13,25,Jits_Pract_5,0,5,56,103,1545924096
106,13,25,Jits_Pract_5,1,5,63,98,1545927196
106,13,25,Jits_Pract_5,2,5,80,127,1545930316
106,13,25,Jits_Pract_5,0,5,56,103,1546423600
106,13,25,Jits_Pract_5,1,5,63,98,1546426696
106,13,25,Jits_Pract_5,2,5,80,127,1546429968
106,13,25,Jits_Pract_5,0,5,56,103,1546924388
106,13,25,Jits_Pract_5,1,5,80,127,1546933612
106,13,25,Jits_Pract_5,2,5,63,98,1546954068
106,13,25,Jits_Pract_5,0,5,63,98,1547374160
106,13,25,Jits_Pract_5,1,5,80,127,1547403612
106,13,25,Jits_Pract_5,2,5,56,103,1547413956
106,13,25,Jits_Pract_5,0,5,80,127,1547934048
106,13,25,Jits_Pract_5,1,5,56,103,1547944468
106,13,25,Jits_Pract_5,2,5,63,98,1547974068
106,13,25,Jits_Pract_5,0,5,63,98,1548423608
106,13,25,Jits_Pract_5,1,5,56,103,1548454184
106,13,25,Jits_Pract_5,2,5,80,127,1548463404
106,13,25,Jits_Pract_5,0,5,56,103,1548884232
106,13,25,Jits_Pract_5,1,5,63,98,1548933612
106,13,25,Jits_Pract_5,2,5,80,127,1548953992
106,13,25,Jits_Pract_5,0,5,80,127,1549384196
106,13,25,Jits_Pract_5,1,5,63,98,1549434324
106,13,25,Jits_Pract_5,2,5,56,103,1549474112
106,13,25,Jits_Pract_5,0,5,56,103,1549883716
106,13,25,Jits_Pract_5,1,5,63,98,1549913468
106,13,25,Jits_Pract_5,2,1,48,50,1549931948
106,13,25,Jits_Pract_5,3,5,80,127,1549984112
106,13,25,Jits_Pract_5,0,5,56,103,1550383424
106,13,25,Jits_Pract_5,1,1,48,55,1550398752
106,13,25,Jits_Pract_5,2,5,80,127,1550444104
106,13,25,Jits_Pract_5,3,5,63,98,1550473484
106,13,25,Jits_Pract_5,0,5,56,103,1550893544
106,13,25,Jits_Pract_5,1,5,63,98,1550903592
106,13,25,Jits_Pract_5,2,1,48,55,1550941712
106,13,25,Jits_Pract_5,3,5,80,127,1550943448
106,13,25,Jits_Pract_5,0,5,63,98,1551384256
106,13,25,Jits_Pract_5,1,1,48,51,1551437124
106,13,25,Jits_Pract_5,2,5,80,127,1551463972
106,13,25,Jits_Pract_5,3,5,56,103,1551473944
106,13,25,Jits_Pract_5,0,5,63,98,1551934000
106,13,25,Jits_Pract_5,1,1,48,59,1551956820
106,13,25,Jits_Pract_5,2,5,56,103,1551973856
106,13,25,Jits_Pract_5,3,5,80,127,1551976924
106,13,25,Jits_Pract_5,0,5,56,103,1552393456
106,13,25,Jits_Pract_5,1,5,63,98,1552404024
106,13,25,Jits_Pract_5,2,5,80,127,1552443960
106,13,25,Jits_Pract_5,3,1,48,51,1552460260
106,13,25,Jits_Pract_5,0,5,56,103,1552884088
106,13,25,Jits_Pract_5,1,5,63,98,1552887080
106,13,25,Jits_Pract_5,2,5,80,127,1552903576
106,13,25,Jits_Pract_5,3,1,48,56,1552935240
106,13,25,Jits_Pract_5,0,9999,9999,9999,1546171456
106,13,25,Jits_Pract_5,1,9999,9999,9999,1546671184
106,13,25,Jits_Pract_5,2,9999,9999,9999,1547171900
106,13,25,Jits_Pract_5,3,9999,9999,9999,1547671640
106,13,25,Jits_Pract_5,4,9999,9999,9999,1548171376
106,13,25,Jits_Pract_5,5,9999,9999,9999,1548672096
106,13,25,Jits_Pract_5,6,9999,9999,9999,1549182012
106,13,25,Jits_Pract_5,7,9999,9999,9999,1549681756
106,13,25,Jits_Pract_5,8,9999,9999,9999,1550181476
106,13,25,Jits_Pract_5,9,9999,9999,9999,1550681188
106,13,25,Jits_Pract_5,10,9999,9999,9999,1551181940
106,13,25,Jits_Pract_5,11,9999,9999,9999,1551681648
106,13,25,Jits_Pract_5,12,9999,9999,9999,1552181336
106,13,25,Jits_Pract_5,13,9999,9999,9999,1552682072
106,13,25,Jits_Pract_5,14,9999,9999,9999,1553181768
106,14,24,Jits_Pract_8,0,5,56,103,1563113800
106,14,24,Jits_Pract_8,1,5,63,98,1563116896
106,14,24,Jits_Pract_8,2,5,80,127,1563120168
106,14,24,Jits_Pract_8,0,5,56,103,1563913664
106,14,24,Jits_Pract_8,1,5,63,98,1563916988
106,14,24,Jits_Pract_8,2,5,80,127,1563920032
106,14,24,Jits_Pract_8,0,5,80,127,1564654056
106,14,24,Jits_Pract_8,1,5,63,98,1564743972
106,14,24,Jits_Pract_8,2,5,56,103,1564754244
106,14,24,Jits_Pract_8,0,5,56,103,1565474100
106,14,24,Jits_Pract_8,1,5,63,98,1565484524
106,14,24,Jits_Pract_8,2,5,80,127,1565573604
106,14,24,Jits_Pract_8,0,1,48,46,1566236868
106,14,24,Jits_Pract_8,1,5,63,98,1566244308
106,14,24,Jits_Pract_8,2,5,80,127,1566273912
106,14,24,Jits_Pract_8,3,5,56,103,1566303660
106,14,24,Jits_Pract_8,0,1,48,50,1567009188
106,14,24,Jits_Pract_8,1,5,56,103,1567043836
106,14,24,Jits_Pract_8,2,5,80,127,1567144296
106,14,24,Jits_Pract_8,3,5,63,98,1567193696
106,14,24,Jits_Pract_8,0,5,56,103,1567843900
106,14,24,Jits_Pract_8,1,5,80,127,1567893880
106,14,24,Jits_Pract_8,2,5,63,98,1567933816
106,14,24,Jits_Pract_8,3,1,48,59,1567971416
106,14,24,Jits_Pract_8,0,1,48,51,1568632928
106,14,24,Jits_Pract_8,1,5,80,127,1568674228
106,14,24,Jits_Pract_8,2,5,63,98,1568703756
106,14,24,Jits_Pract_8,3,5,56,103,1568773668
106,14,24,Jits_Pract_8,0,5,63,98,1569503692
106,14,24,Jits_Pract_8,1,5,56,103,1569534264
106,14,24,Jits_Pract_8,2,1,48,55,1569541440
106,14,24,Jits_Pract_8,3,5,80,127,1569593896
106,14,24,Jits_Pract_8,0,5,56,103,1570244084
106,14,24,Jits_Pract_8,1,5,80,127,1570247080
106,14,24,Jits_Pract_8,2,1,48,54,1570305296
106,14,24,Jits_Pract_8,3,5,63,98,1570363828
106,14,24,Jits_Pract_8,0,1,48,49,1571098680
106,14,24,Jits_Pract_8,1,5,56,103,1571123584
106,14,24,Jits_Pract_8,2,5,80,127,1571163376
106,14,24,Jits_Pract_8,3,5,63,98,1571173720
106,14,24,Jits_Pract_8,0,1,48,21,1571552660
106,14,24,Jits_Pract_8,1,5,56,103,1571884448
106,14,24,Jits_Pract_8,2,5,80,127,1571903784
106,14,24,Jits_Pract_8,3,1,48,46,1571971636
106,14,24,Jits_Pract_8,4,5,63,98,1571983944
106,14,24,Jits_Pract_8,0,1,48,40,1572430504
106,14,24,Jits_Pract_8,1,5,80,127,1572674044
106,14,24,Jits_Pract_8,2,5,56,103,1572774224
106,14,24,Jits_Pract_8,3,5,63,98,1572783668
106,14,24,Jits_Pract_8,4,1,48,50,1572860368
106,14,24,Jits_Pract_8,0,1,48,18,1573325232
106,14,24,Jits_Pract_8,1,5,63,98,1573443944
106,14,24,Jits_Pract_8,2,5,80,127,1573504336
106,14,24,Jits_Pract_8,3,5,56,103,1573513712
106,14,24,Jits_Pract_8,4,1,48,42,1573716568
106,14,24,Jits_Pract_8,0,5,56,103,1574243676
106,14,24,Jits_Pract_8,1,5,63,98,1574314404
106,14,24,Jits_Pract_8,2,5,80,127,1574317916
106,14,24,Jits_Pract_8,3,1,48,51,1574325768
106,14,24,Jits_Pract_8,0,9999,9999,9999,1563511880
106,14,24,Jits_Pract_8,1,9999,9999,9999,1564311672
106,14,24,Jits_Pract_8,2,9999,9999,9999,1565111408
106,14,24,Jits_Pract_8,3,9999,9999,9999,1565911144
106,14,24,Jits_Pract_8,4,9999,9999,9999,1566711924
106,14,24,Jits_Pract_8,5,9999,9999,9999,1567511608
106,14,24,Jits_Pract_8,6,9999,9999,9999,1568311364
106,14,24,Jits_Pract_8,7,9999,9999,9999,1569111136
106,14,24,Jits_Pract_8,8,9999,9999,9999,1569911872
106,14,24,Jits_Pract_8,9,9999,9999,9999,1570711616
106,14,24,Jits_Pract_8,10,9999,9999,9999,1571511392
106,14,24,Jits_Pract_8,11,9999,9999,9999,1572311132
106,14,24,Jits_Pract_8,12,9999,9999,9999,1573111920
106,14,24,Jits_Pract_8,13,9999,9999,9999,1573911632
106,14,24,Jits_Pract_8,14,9999,9999,9999,1574711352
106,15,16,Jits_ISO_5,0,5,56,103,1638101444
106,15,16,Jits_ISO_5,1,5,63,98,1638104696
106,15,16,Jits_ISO_5,2,5,80,127,1638107740
106,15,16,Jits_ISO_5,0,5,56,103,1638601068
106,15,16,Jits_ISO_5,1,5,63,98,1638604316
106,15,16,Jits_ISO_5,2,5,80,127,1638607288
106,15,16,Jits_ISO_5,0,5,56,103,1639100804
106,15,16,Jits_ISO_5,1,5,80,127,1639110924
106,15,16,Jits_ISO_5,2,5,63,98,1639130508
106,15,16,Jits_ISO_5,0,5,63,98,1639551316
106,15,16,Jits_ISO_5,1,5,80,127,1639580988
106,15,16,Jits_ISO_5,2,5,56,103,1639591260
106,15,16,Jits_ISO_5,0,1,48,46,1640057288
106,15,16,Jits_ISO_5,1,5,80,127,1640110588
106,15,16,Jits_ISO_5,2,5,56,103,1640120860
106,15,16,Jits_ISO_5,3,5,63,98,1640151304
106,15,16,Jits_ISO_5,0,5,63,98,1640600888
106,15,16,Jits_ISO_5,1,1,48,56,1640611880
106,15,16,Jits_ISO_5,2,5,56,103,1640630632
106,15,16,Jits_ISO_5,3,5,80,127,1640640752
106,15,16,Jits_ISO_5,0,5,56,103,1641050500
106,15,16,Jits_ISO_5,1,5,63,98,1641100924
106,15,16,Jits_ISO_5,2,5,80,127,1641121084
106,15,16,Jits_ISO_5,3,1,48,56,1641125252
106,15,16,Jits_ISO_5,0,5,80,127,1641551216
106,15,16,Jits_ISO_5,1,1,48,55,1641596656
106,15,16,Jits_ISO_5,2,5,63,98,1641601484
106,15,16,Jits_ISO_5,3,5,56,103,1641641420
106,15,16,Jits_ISO_5,0,5,56,103,1642050888
106,15,16,Jits_ISO_5,1,5,63,98,1642080788
106,15,16,Jits_ISO_5,2,1,48,57,1642126900
106,15,16,Jits_ISO_5,3,5,80,127,1642151356
106,15,16,Jits_ISO_5,0,5,56,103,1642550636
106,15,16,Jits_ISO_5,1,1,48,54,1642607236
106,15,16,Jits_ISO_5,2,5,80,127,1642610944
106,15,16,Jits_ISO_5,3,5,63,98,1642640840
106,15,16,Jits_ISO_5,0,5,56,103,1643060720
106,15,16,Jits_ISO_5,1,5,63,98,1643070768
106,15,16,Jits_ISO_5,2,1,48,59,1643090892
106,15,16,Jits_ISO_5,3,5,80,127,1643110696
106,15,16,Jits_ISO_5,0,5,63,98,1643550948
106,15,16,Jits_ISO_5,1,1,48,55,1643562536
106,15,16,Jits_ISO_5,2,5,80,127,1643630812
106,15,16,Jits_ISO_5,3,5,56,103,1643641228
106,15,16,Jits_ISO_5,0,1,48,59,1644089236
106,15,16,Jits_ISO_5,1,5,63,98,1644101020
106,15,16,Jits_ISO_5,2,5,56,103,1644140884
106,15,16,Jits_ISO_5,3,5,80,127,1644144096
106,15,16,Jits_ISO_5,0,5,56,103,1644560820
106,15,16,Jits_ISO_5,1,5,63,98,1644571164
106,15,16,Jits_ISO_5,2,5,80,127,1644611028
106,15,16,Jits_ISO_5,3,1,48,55,1644619996
106,15,16,Jits_ISO_5,0,5,56,103,1645051272
106,15,16,Jits_ISO_5,1,5,63,98,1645054264
106,15,16,Jits_ISO_5,2,5,80,127,1645070684
106,15,16,Jits_ISO_5,3,1,48,55,1645096492
106,15,16,Jits_ISO_5,0,5,80,127,1645561196
106,15,16,Jits_ISO_5,1,5,56,103,1645570344
106,15,16,Jits_ISO_5,2,1,48,57,1645572356
106,15,16,Jits_ISO_5,3,5,63,98,1645641060
106,15,16,Jits_ISO_5,0,5,63,98,1646050752
106,15,16,Jits_ISO_5,1,5,56,103,1646071136
106,15,16,Jits_ISO_5,2,1,48,57,1646093060
106,15,16,Jits_ISO_5,3,5,80,127,1646150992
106,15,16,Jits_ISO_5,0,5,56,103,1646560676
106,15,16,Jits_ISO_5,1,1,48,60,1646583876
106,15,16,Jits_ISO_5,2,5,80,127,1646600832
106,15,16,Jits_ISO_5,3,5,63,98,1646610876
106,15,16,Jits_ISO_5,0,5,80,127,1647051104
106,15,16,Jits_ISO_5,1,1,48,62,1647068256
106,15,16,Jits_ISO_5,2,5,63,98,1647080948
106,15,16,Jits_ISO_5,3,5,56,103,1647120884
106,15,16,Jits_ISO_5,0,5,56,103,1647571304
106,15,16,Jits_ISO_5,1,1,48,54,1647578576
106,15,16,Jits_ISO_5,2,5,63,98,1647600920
106,15,16,Jits_ISO_5,3,5,80,127,1647651044
106,15,16,Jits_ISO_5,0,5,80,127,1648070904
106,15,16,Jits_ISO_5,1,1,48,64,1648079720
106,15,16,Jits_ISO_5,2,5,56,103,1648111008
106,15,16,Jits_ISO_5,3,5,63,98,1648121128
106,15,16,Jits_ISO_5,0,5,80,127,1648551244
106,15,16,Jits_ISO_5,1,5,63,98,1648591180
106,15,16,Jits_ISO_5,2,1,48,58,1648604884
106,15,16,Jits_ISO_5,3,5,56,103,1648650688
106,15,16,Jits_ISO_5,0,5,56,103,1649050984
106,15,16,Jits_ISO_5,1,5,80,127,1649061252
106,15,16,Jits_ISO_5,2,1,48,60,1649099216
106,15,16,Jits_ISO_5,3,5,63,98,1649141136
106,15,16,Jits_ISO_5,0,5,80,127,1649550952
106,15,16,Jits_ISO_5,1,5,63,98,1649611044
106,15,16,Jits_ISO_5,2,1,48,55,1649612908
106,15,16,Jits_ISO_5,3,5,56,103,1649640884
106,15,16,Jits_ISO_5,0,5,56,103,1650050776
106,15,16,Jits_ISO_5,1,1,48,59,1650102892
106,15,16,Jits_ISO_5,2,5,80,127,1650110784
106,15,16,Jits_ISO_5,3,5,63,98,1650150748
106,15,16,Jits_ISO_5,0,1,48,55,1650591548
106,15,16,Jits_ISO_5,1,5,56,103,1650601312
106,15,16,Jits_ISO_5,2,5,63,98,1650610832
106,15,16,Jits_ISO_5,3,5,80,127,1650613972
106,15,16,Jits_ISO_5,0,5,80,127,1651050848
106,15,16,Jits_ISO_5,1,1,48,61,1651064980
106,15,16,Jits_ISO_5,2,5,63,98,1651140828
106,15,16,Jits_ISO_5,3,5,56,103,1651151320
106,15,16,Jits_ISO_5,0,5,56,103,1651550732
106,15,16,Jits_ISO_5,1,5,63,98,1651553908
106,15,16,Jits_ISO_5,2,5,80,127,1651556880
106,15,16,Jits_ISO_5,3,1,48,56,1651588484
106,15,16,Jits_ISO_5,0,1,48,54,1652064668
106,15,16,Jits_ISO_5,1,5,80,127,1652070692
106,15,16,Jits_ISO_5,2,5,63,98,1652120892
106,15,16,Jits_ISO_5,3,5,56,103,1652150788
106,15,16,Jits_ISO_5,0,1,48,59,1652550272
106,15,16,Jits_ISO_5,1,5,56,103,1652551840
106,15,16,Jits_ISO_5,2,5,80,127,1652561288
106,15,16,Jits_ISO_5,3,5,63,98,1652630892
106,15,16,Jits_ISO_5,0,5,56,103,1653060944
106,15,16,Jits_ISO_5,1,1,48,56,1653062132
106,15,16,Jits_ISO_5,2,5,63,98,1653080648
106,15,16,Jits_ISO_5,3,5,80,127,1653140884
106,15,16,Jits_ISO_5,0,5,80,127,1653550724
106,15,16,Jits_ISO_5,1,1,48,60,1653557512
106,15,16,Jits_ISO_5,2,5,63,98,1653621148
106,15,16,Jits_ISO_5,3,5,56,103,1653640632
106,15,16,Jits_ISO_5,0,5,80,127,1654070628
106,15,16,Jits_ISO_5,1,1,48,52,1654072640
106,15,16,Jits_ISO_5,2,5,56,103,1654080964
106,15,16,Jits_ISO_5,3,5,63,98,1654091236
106,15,16,Jits_ISO_5,0,1,48,58,1654546884
106,15,16,Jits_ISO_5,1,5,80,127,1654561224
106,15,16,Jits_ISO_5,2,5,56,103,1654580560
106,15,16,Jits_ISO_5,3,5,63,98,1654651196
106,15,16,Jits_ISO_5,0,1,48,56,1655062276
106,15,16,Jits_ISO_5,1,5,56,103,1655071144
106,15,16,Jits_ISO_5,2,5,80,127,1655100896
106,15,16,Jits_ISO_5,3,5,63,98,1655121204
106,15,16,Jits_ISO_5,0,5,63,98,1655560772
106,15,16,Jits_ISO_5,1,1,48,59,1655580976
106,15,16,Jits_ISO_5,2,5,56,103,1655620932
106,15,16,Jits_ISO_5,3,5,80,127,1655650528
106,15,16,Jits_ISO_5,0,5,63,98,1656051064
106,15,16,Jits_ISO_5,1,5,80,127,1656054428
106,15,16,Jits_ISO_5,2,1,48,64,1656082056
106,15,16,Jits_ISO_5,3,5,56,103,1656141112
106,15,16,Jits_ISO_5,0,5,56,103,1656571388
106,15,16,Jits_ISO_5,1,1,48,63,1656576604
106,15,16,Jits_ISO_5,2,5,63,98,1656600984
106,15,16,Jits_ISO_5,3,5,80,127,1656640920
106,15,16,Jits_ISO_5,0,5,63,98,1657070992
106,15,16,Jits_ISO_5,1,1,48,66,1657075528
106,15,16,Jits_ISO_5,2,5,56,103,1657110772
106,15,16,Jits_ISO_5,3,5,80,127,1657131752
106,15,16,Jits_ISO_5,0,5,63,98,1657580844
106,15,16,Jits_ISO_5,1,1,48,60,1657584784
106,15,16,Jits_ISO_5,2,5,56,103,1657620848
106,15,16,Jits_ISO_5,3,5,80,127,1657631044
106,15,16,Jits_ISO_5,0,5,80,127,1658061144
106,15,16,Jits_ISO_5,1,1,48,66,1658075972
106,15,16,Jits_ISO_5,2,5,63,98,1658130768
106,15,16,Jits_ISO_5,3,5,56,103,1658151224
106,15,16,Jits_ISO_5,0,5,56,103,1658550776
106,15,16,Jits_ISO_5,1,5,80,127,1658571088
106,15,16,Jits_ISO_5,2,1,48,57,1658584792
106,15,16,Jits_ISO_5,3,5,63,98,1658611040
106,15,16,Jits_ISO_5,0,5,63,98,1659060932
106,15,16,Jits_ISO_5,1,1,48,64,1659077456
106,15,16,Jits_ISO_5,2,5,80,127,1659081160
106,15,16,Jits_ISO_5,3,5,56,103,1659120976
106,15,16,Jits_ISO_5,0,5,63,98,1659561412
106,15,16,Jits_ISO_5,1,5,56,103,1659580748
106,15,16,Jits_ISO_5,2,1,48,60,1659589740
106,15,16,Jits_ISO_5,3,5,80,127,1659591308
106,15,16,Jits_ISO_5,0,5,80,127,1660060916
106,15,16,Jits_ISO_5,1,1,48,70,1660078808
106,15,16,Jits_ISO_5,2,5,56,103,1660080472
106,15,16,Jits_ISO_5,3,5,63,98,1660111340
106,15,16,Jits_ISO_5,0,1,48,62,1660566916
106,15,16,Jits_ISO_5,1,5,56,103,1660631548
106,15,16,Jits_ISO_5,2,5,80,127,1660634616
106,15,16,Jits_ISO_5,3,5,63,98,1660650736
106,15,16,Jits_ISO_5,0,5,63,98,1661051472
106,15,16,Jits_ISO_5,1,1,48,57,1661059696
106,15,16,Jits_ISO_5,2,5,56,103,1661080992
106,15,16,Jits_ISO_5,3,5,80,127,1661141624
106,15,16,Jits_ISO_5,0,1,48,58,1661561736
106,15,16,Jits_ISO_5,1,5,63,98,1661630916
106,15,16,Jits_ISO_5,2,5,56,103,1661641184
106,15,16,Jits_ISO_5,3,5,80,127,1661651752
106,15,16,Jits_ISO_5,0,5,56,103,1662081484
106,15,16,Jits_ISO_5,1,1,48,51,1662082452
106,15,16,Jits_ISO_5,2,5,80,127,1662111004
106,15,16,Jits_ISO_5,3,5,63,98,1662121200
106,15,16,Jits_ISO_5,0,1,48,57,1662588236
106,15,16,Jits_ISO_5,1,5,63,98,1662621084
106,15,16,Jits_ISO_5,2,5,56,103,1662631280
106,15,16,Jits_ISO_5,3,5,80,127,1662650616
106,15,16,Jits_ISO_5,0,5,56,103,1663051004
106,15,16,Jits_ISO_5,1,5,63,98,1663110568
106,15,16,Jits_ISO_5,2,5,80,127,1663113860
106,15,16,Jits_ISO_5,3,1,48,49,1663130772
106,15,16,Jits_ISO_5,0,5,80,127,1663571492
106,15,16,Jits_ISO_5,1,5,56,103,1663580568
106,15,16,Jits_ISO_5,2,1,48,57,1663606980
106,15,16,Jits_ISO_5,3,5,63,98,1663651284
106,15,16,Jits_ISO_5,0,5,80,127,1664060756
106,15,16,Jits_ISO_5,1,1,48,56,1664123656
106,15,16,Jits_ISO_5,2,5,56,103,1664130724
106,15,16,Jits_ISO_5,3,5,63,98,1664140624
106,15,16,Jits_ISO_5,0,5,63,98,1664600436
106,15,16,Jits_ISO_5,1,5,56,103,1664610704
106,15,16,Jits_ISO_5,2,5,80,127,1664631016
106,15,16,Jits_ISO_5,3,1,48,61,1664633028
106,15,16,Jits_ISO_5,0,5,80,127,1665050948
106,15,16,Jits_ISO_5,1,5,63,98,1665111560
106,15,16,Jits_ISO_5,2,1,48,58,1665119632
106,15,16,Jits_ISO_5,3,5,56,103,1665151712
106,15,16,Jits_ISO_5,0,5,56,103,1665590552
106,15,16,Jits_ISO_5,1,5,63,98,1665600896
106,15,16,Jits_ISO_5,2,1,48,59,1665615848
106,15,16,Jits_ISO_5,3,5,80,127,1665640752
106,15,16,Jits_ISO_5,0,5,56,103,1666050516
106,15,16,Jits_ISO_5,1,5,80,127,1666081092
106,15,16,Jits_ISO_5,2,1,48,54,1666098132
106,15,16,Jits_ISO_5,3,5,63,98,1666131504
106,15,16,Jits_ISO_5,0,1,48,57,1666577496
106,15,16,Jits_ISO_5,1,5,56,103,1666591160
106,15,16,Jits_ISO_5,2,5,63,98,1666630948
106,15,16,Jits_ISO_5,3,5,80,127,1666634460
106,15,16,Jits_ISO_5,0,1,48,58,1667071532
106,15,16,Jits_ISO_5,1,5,56,103,1667090664
106,15,16,Jits_ISO_5,2,5,63,98,1667101156
106,15,16,Jits_ISO_5,3,5,80,127,1667120644
106,15,16,Jits_ISO_5,0,5,56,103,1667550468
106,15,16,Jits_ISO_5,1,5,80,127,1667553540
106,15,16,Jits_ISO_5,2,1,48,57,1667576356
106,15,16,Jits_ISO_5,3,5,63,98,1667590548
106,15,16,Jits_ISO_5,0,1,48,58,1668048488
106,15,16,Jits_ISO_5,1,5,63,98,1668091104
106,15,16,Jits_ISO_5,2,5,56,103,1668121004
106,15,16,Jits_ISO_5,3,5,80,127,1668141684
106,15,16,Jits_ISO_5,0,1,48,57,1668555124
106,15,16,Jits_ISO_5,1,5,80,127,1668561368
106,15,16,Jits_ISO_5,2,5,56,103,1668570692
106,15,16,Jits_ISO_5,3,5,63,98,1668580664
106,15,16,Jits_ISO_5,0,1,48,57,1669055224
106,15,16,Jits_ISO_5,1,5,56,103,1669060952
106,15,16,Jits_ISO_5,2,5,80,127,1669100840
106,15,16,Jits_ISO_5,3,5,63,98,1669130588
106,15,16,Jits_ISO_5,0,1,48,57,1669564556
106,15,16,Jits_ISO_5,1,5,63,98,1669571024
106,15,16,Jits_ISO_5,2,5,80,127,1669581072
106,15,16,Jits_ISO_5,3,5,56,103,1669591664
106,15,16,Jits_ISO_5,0,5,56,103,1670051356
106,15,16,Jits_ISO_5,1,1,48,58,1670057244
106,15,16,Jits_ISO_5,2,5,63,98,1670120904
106,15,16,Jits_ISO_5,3,5,80,127,1670131100
106,15,16,Jits_ISO_5,0,5,80,127,1670550876
106,15,16,Jits_ISO_5,1,5,56,103,1670561072
106,15,16,Jits_ISO_5,2,1,48,48,1670590640
106,15,16,Jits_ISO_5,3,5,63,98,1670611484
106,15,16,Jits_ISO_5,0,5,80,127,1671060708
106,15,16,Jits_ISO_5,1,1,48,57,1671078204
106,15,16,Jits_ISO_5,2,5,56,103,1671121392
106,15,16,Jits_ISO_5,3,5,63,98,1671150940
106,15,16,Jits_ISO_5,0,5,56,103,1671560532
106,15,16,Jits_ISO_5,1,5,80,127,1671563524
106,15,16,Jits_ISO_5,2,1,48,58,1671593168
106,15,16,Jits_ISO_5,3,5,63,98,1671600388
106,15,16,Jits_ISO_5,0,1,48,54,1672082860
106,15,16,Jits_ISO_5,1,5,56,103,1672090976
106,15,16,Jits_ISO_5,2,5,63,98,1672120652
106,15,16,Jits_ISO_5,3,5,80,127,1672130848
106,15,16,Jits_ISO_5,0,1,48,57,1672584912
106,15,16,Jits_ISO_5,1,5,63,98,1672600976
106,15,16,Jits_ISO_5,2,5,80,127,1672611172
106,15,16,Jits_ISO_5,3,5,56,103,1672621444
106,15,16,Jits_ISO_5,0,5,80,127,1673050448
106,15,16,Jits_ISO_5,1,1,48,67,1673082856
106,15,16,Jits_ISO_5,2,5,56,103,1673100640
106,15,16,Jits_ISO_5,3,5,63,98,1673103708
106,15,16,Jits_ISO_5,0,5,56,103,1673580900
106,15,16,Jits_ISO_5,1,1,48,60,1673586864
106,15,16,Jits_ISO_5,2,5,80,127,1673601576
106,15,16,Jits_ISO_5,3,5,63,98,1673610724
106,15,16,Jits_ISO_5,0,5,63,98,1674061388
106,15,16,Jits_ISO_5,1,1,48,63,1674069076
106,15,16,Jits_ISO_5,2,5,56,103,1674090836
106,15,16,Jits_ISO_5,3,5,80,127,1674111516
106,15,16,Jits_ISO_5,0,1,48,62,1674556212
106,15,16,Jits_ISO_5,1,5,56,103,1674571080
106,15,16,Jits_ISO_5,2,5,80,127,1674581572
106,15,16,Jits_ISO_5,3,5,63,98,1674650952
106,15,16,Jits_ISO_5,0,5,63,98,1675060704
106,15,16,Jits_ISO_5,1,1,48,60,1675069372
106,15,16,Jits_ISO_5,2,5,80,127,1675100636
106,15,16,Jits_ISO_5,3,5,56,103,1675140648
106,15,16,Jits_ISO_5,0,5,56,103,1675570628
106,15,16,Jits_ISO_5,1,5,63,98,1675580752
106,15,16,Jits_ISO_5,2,5,80,127,1675601432
106,15,16,Jits_ISO_5,3,1,48,59,1675602396
106,15,16,Jits_ISO_5,0,1,48,64,1676101288
106,15,16,Jits_ISO_5,1,5,63,98,1676111644
106,15,16,Jits_ISO_5,2,5,80,127,1676130612
106,15,16,Jits_ISO_5,3,5,56,103,1676151292
106,15,16,Jits_ISO_5,0,5,56,103,1676550484
106,15,16,Jits_ISO_5,1,1,48,62,1676600432
106,15,16,Jits_ISO_5,2,5,80,127,1676631392
106,15,16,Jits_ISO_5,3,5,63,98,1676640616
106,15,16,Jits_ISO_5,0,1,48,63,1677083764
106,15,16,Jits_ISO_5,1,5,80,127,1677091356
106,15,16,Jits_ISO_5,2,5,63,98,1677101624
106,15,16,Jits_ISO_5,3,5,56,103,1677131224
106,15,16,Jits_ISO_5,0,5,63,98,1677551016
106,15,16,Jits_ISO_5,1,5,80,127,1677591028
106,15,16,Jits_ISO_5,2,1,48,63,1677597288
106,15,16,Jits_ISO_5,3,5,56,103,1677651408
106,15,16,Jits_ISO_5,0,5,63,98,1678060868
106,15,16,Jits_ISO_5,1,1,48,67,1678093876
106,15,16,Jits_ISO_5,2,5,56,103,1678111360
106,15,16,Jits_ISO_5,3,5,80,127,1678140736
106,15,16,Jits_ISO_5,0,5,80,127,1678571084
106,15,16,Jits_ISO_5,1,5,63,98,1678581060
106,15,16,Jits_ISO_5,2,1,48,58,1678596160
106,15,16,Jits_ISO_5,3,5,56,103,1678650728
106,15,16,Jits_ISO_5,0,1,48,65,1679097388
106,15,16,Jits_ISO_5,1,5,80,127,1679141400
106,15,16,Jits_ISO_5,2,5,56,103,1679150548
106,15,16,Jits_ISO_5,3,5,63,98,1679153764
106,15,16,Jits_ISO_5,0,5,56,103,1679580604
106,15,16,Jits_ISO_5,1,5,80,127,1679600912
106,15,16,Jits_ISO_5,2,5,63,98,1679611480
106,15,16,Jits_ISO_5,3,1,48,62,1679612444
106,15,16,Jits_ISO_5,0,5,63,98,1680090612
106,15,16,Jits_ISO_5,1,1,48,59,1680098908
106,15,16,Jits_ISO_5,2,5,56,103,1680130320
106,15,16,Jits_ISO_5,3,5,80,127,1680151000
106,15,16,Jits_ISO_5,0,5,63,98,1680591292
106,15,16,Jits_ISO_5,1,1,48,64,1680593884
106,15,16,Jits_ISO_5,2,5,56,103,1680650724
106,15,16,Jits_ISO_5,3,5,80,127,1680653716
106,15,16,Jits_ISO_5,0,5,56,103,1681051300
106,15,16,Jits_ISO_5,1,5,80,127,1681070416
106,15,16,Jits_ISO_5,2,1,48,64,1681100360
106,15,16,Jits_ISO_5,3,5,63,98,1681111568
106,15,16,Jits_ISO_5,0,5,56,103,1681581312
106,15,16,Jits_ISO_5,1,5,63,98,1681601024
106,15,16,Jits_ISO_5,2,5,80,127,1681610996
106,15,16,Jits_ISO_5,3,1,48,64,1681613660
106,15,16,Jits_ISO_5,0,5,80,127,1682050416
106,15,16,Jits_ISO_5,1,5,56,103,1682081284
106,15,16,Jits_ISO_5,2,1,48,65,1682094068
106,15,16,Jits_ISO_5,3,5,63,98,1682121068
106,15,16,Jits_ISO_5,0,5,80,127,1682561468
106,15,16,Jits_ISO_5,1,5,56,103,1682580956
106,15,16,Jits_ISO_5,2,1,48,64,1682601456
106,15,16,Jits_ISO_5,3,5,63,98,1682641408
106,15,16,Jits_ISO_5,0,5,56,103,1683071324
106,15,16,Jits_ISO_5,1,5,80,127,1683090812
106,15,16,Jits_ISO_5,2,1,48,65,1683094608
106,15,16,Jits_ISO_5,3,5,63,98,1683151268
106,15,16,Jits_ISO_5,0,5,80,127,1683550544
106,15,16,Jits_ISO_5,1,5,56,103,1683560740
106,15,16,Jits_ISO_5,2,1,48,57,1683581320
106,15,16,Jits_ISO_5,3,5,63,98,1683600896
106,15,16,Jits_ISO_5,0,5,63,98,1684051556
106,15,16,Jits_ISO_5,1,1,48,65,1684074532
106,15,16,Jits_ISO_5,2,5,56,103,1684091336
106,15,16,Jits_ISO_5,3,5,80,127,1684094332
106,15,16,Jits_ISO_5,0,1,48,63,1684550800
106,15,16,Jits_ISO_5,1,5,63,98,1684570528
106,15,16,Jits_ISO_5,2,5,80,127,1684610464
106,15,16,Jits_ISO_5,3,5,56,103,1684641260
106,15,16,Jits_ISO_5,0,1,48,65,1685060524
106,15,16,Jits_ISO_5,1,5,56,103,1685062164
106,15,16,Jits_ISO_5,2,5,63,98,1685071164
106,15,16,Jits_ISO_5,3,5,80,127,1685100836
106,15,16,Jits_ISO_5,0,5,80,127,1685550440
106,15,16,Jits_ISO_5,1,1,48,63,1685551404
106,15,16,Jits_ISO_5,2,5,63,98,1685621384
106,15,16,Jits_ISO_5,3,5,56,103,1685631504
106,15,16,Jits_ISO_5,0,5,63,98,1686051380
106,15,16,Jits_ISO_5,1,1,48,61,1686079532
106,15,16,Jits_ISO_5,2,5,56,103,1686120756
106,15,16,Jits_ISO_5,3,5,80,127,1686131024
106,15,16,Jits_ISO_5,0,5,63,98,1686550964
106,15,16,Jits_ISO_5,1,5,56,103,1686571496
106,15,16,Jits_ISO_5,2,1,48,58,1686601744
106,15,16,Jits_ISO_5,3,5,80,127,1686611500
106,15,16,Jits_ISO_5,0,5,56,103,1687060884
106,15,16,Jits_ISO_5,1,5,63,98,1687071452
106,15,16,Jits_ISO_5,2,1,48,62,1687073092
106,15,16,Jits_ISO_5,3,5,80,127,1687150864
106,15,16,Jits_ISO_5,0,5,63,98,1687551560
106,15,16,Jits_ISO_5,1,5,56,103,1687581084
106,15,16,Jits_ISO_5,2,1,48,63,1687583760
106,15,16,Jits_ISO_5,3,5,80,127,1687620868
106,15,16,Jits_ISO_5,0,5,56,103,1688050996
106,15,16,Jits_ISO_5,1,5,63,98,1688090860
106,15,16,Jits_ISO_5,2,1,48,57,1688095024
106,15,16,Jits_ISO_5,3,5,80,127,1688130864
106,15,16,Jits_ISO_5,0,5,80,127,1688550888
106,15,16,Jits_ISO_5,1,1,48,67,1688592364
106,15,16,Jits_ISO_5,2,5,56,103,1688630600
106,15,16,Jits_ISO_5,3,5,63,98,1688640796
106,15,16,Jits_ISO_5,0,5,56,103,1689090492
106,15,16,Jits_ISO_5,1,5,63,98,1689093412
106,15,16,Jits_ISO_5,2,5,80,127,1689100540
106,15,16,Jits_ISO_5,3,1,48,64,1689119468
106,15,16,Jits_ISO_5,0,5,56,103,1689610536
106,15,16,Jits_ISO_5,1,1,48,62,1689613508
106,15,16,Jits_ISO_5,2,5,63,98,1689631284
106,15,16,Jits_ISO_5,3,5,80,127,1689641184
106,15,16,Jits_ISO_5,0,5,63,98,1690071396
106,15,16,Jits_ISO_5,1,5,80,127,1690080620
106,15,16,Jits_ISO_5,2,1,48,62,1690094676
106,15,16,Jits_ISO_5,3,5,56,103,1690101292
106,15,16,Jits_ISO_5,0,1,48,61,1690571028
106,15,16,Jits_ISO_5,1,5,63,98,1690572440
106,15,16,Jits_ISO_5,2,5,56,103,1690651136
106,15,16,Jits_ISO_5,3,5,80,127,1690653976
106,15,16,Jits_ISO_5,0,5,63,98,1691070828
106,15,16,Jits_ISO_5,1,1,48,59,1691084360
106,15,16,Jits_ISO_5,2,5,56,103,1691091304
106,15,16,Jits_ISO_5,3,5,80,127,1691121424
106,15,16,Jits_ISO_5,0,5,56,103,1691570560
106,15,16,Jits_ISO_5,1,1,48,65,1691590036
106,15,16,Jits_ISO_5,2,5,63,98,1691591532
106,15,16,Jits_ISO_5,3,5,80,127,1691601208
106,15,16,Jits_ISO_5,0,1,48,59,1692092364
106,15,16,Jits_ISO_5,1,5,56,103,1692101084
106,15,16,Jits_ISO_5,2,5,63,98,1692130632
106,15,16,Jits_ISO_5,3,5,80,127,1692133848
106,15,16,Jits_ISO_5,0,5,56,103,1692550472
106,15,16,Jits_ISO_5,1,5,63,98,1692590408
106,15,16,Jits_ISO_5,2,1,48,60,1692609264
106,15,16,Jits_ISO_5,3,5,80,127,1692650812
106,15,16,Jits_ISO_5,0,5,56,103,1693070592
106,15,16,Jits_ISO_5,1,5,63,98,1693081088
106,15,16,Jits_ISO_5,2,1,48,61,1693095368
106,15,16,Jits_ISO_5,3,5,80,127,1693141344
106,15,16,Jits_ISO_5,0,5,56,103,1693570344
106,15,16,Jits_ISO_5,1,1,48,64,1693585520
106,15,16,Jits_ISO_5,2,5,80,127,1693590868
106,15,16,Jits_ISO_5,3,5,63,98,1693620616
106,15,16,Jits_ISO_5,0,5,80,127,1694071360
106,15,16,Jits_ISO_5,1,5,56,103,1694081332
106,15,16,Jits_ISO_5,2,1,48,62,1694095012
106,15,16,Jits_ISO_5,3,5,63,98,1694100960
106,15,16,Jits_ISO_5,0,5,63,98,1694560544
106,15,16,Jits_ISO_5,1,1,48,54,1694591236
106,15,16,Jits_ISO_5,2,5,80,127,1694640480
106,15,16,Jits_ISO_5,3,5,56,103,1694650748
106,15,16,Jits_ISO_5,0,1,48,66,1695107956
106,15,16,Jits_ISO_5,1,5,80,127,1695120656
106,15,16,Jits_ISO_5,2,5,56,103,1695141484
106,15,16,Jits_ISO_5,3,5,63,98,1695144404
106,15,16,Jits_ISO_5,0,5,63,98,1695590944
106,15,16,Jits_ISO_5,1,5,80,127,1695594308
106,15,16,Jits_ISO_5,2,1,48,58,1695648072
106,15,16,Jits_ISO_5,3,5,56,103,1695651248
106,15,16,Jits_ISO_5,0,5,56,103,1696071192
106,15,16,Jits_ISO_5,1,5,80,127,1696081388
106,15,16,Jits_ISO_5,2,5,63,98,1696121252
106,15,16,Jits_ISO_5,3,1,48,63,1696126092
106,15,16,Jits_ISO_5,0,5,56,103,1696551236
106,15,16,Jits_ISO_5,1,5,63,98,1696610724
106,15,16,Jits_ISO_5,2,1,48,63,1696613624
106,15,16,Jits_ISO_5,3,5,80,127,1696620768
106,15,16,Jits_ISO_5,0,5,63,98,1697061396
106,15,16,Jits_ISO_5,1,1,48,65,1697086764
106,15,16,Jits_ISO_5,2,5,80,127,1697101324
106,15,16,Jits_ISO_5,3,5,56,103,1697141560
106,15,16,Jits_ISO_5,0,5,56,103,1697561052
106,15,16,Jits_ISO_5,1,1,48,64,1697601784
106,15,16,Jits_ISO_5,2,5,63,98,1697640764
106,15,16,Jits_ISO_5,3,5,80,127,1697644352
106,15,16,Jits_ISO_5,0,9999,9999,9999,1638348924
106,15,16,Jits_ISO_5,1,9999,9999,9999,1638848572
106,15,16,Jits_ISO_5,2,9999,9999,9999,1639348308
106,15,16,Jits_ISO_5,3,9999,9999,9999,1639849012
106,15,16,Jits_ISO_5,4,9999,9999,9999,1640348792
106,15,16,Jits_ISO_5,5,9999,9999,9999,1640848448
106,15,16,Jits_ISO_5,6,9999,9999,9999,1641348176
106,15,16,Jits_ISO_5,7,9999,9999,9999,1641848896
106,15,16,Jits_ISO_5,8,9999,9999,9999,1642348644
106,15,16,Jits_ISO_5,9,9999,9999,9999,1642848316
106,15,16,Jits_ISO_5,10,9999,9999,9999,1643349108
106,15,16,Jits_ISO_5,11,9999,9999,9999,1643848780
106,15,16,Jits_ISO_5,12,9999,9999,9999,1644348504
106,15,16,Jits_ISO_5,13,9999,9999,9999,1644848236
106,15,16,Jits_ISO_5,14,9999,9999,9999,1645348936
106,15,16,Jits_ISO_5,15,9999,9999,9999,1645848684
106,15,16,Jits_ISO_5,16,9999,9999,9999,1646348356
106,15,16,Jits_ISO_5,17,9999,9999,9999,1646848092
106,15,16,Jits_ISO_5,18,9999,9999,9999,1647348808
106,15,16,Jits_ISO_5,19,9999,9999,9999,1647848556
106,15,16,Jits_ISO_5,20,9999,9999,9999,1648348228
106,15,16,Jits_ISO_5,21,9999,9999,9999,1648848996
106,15,16,Jits_ISO_5,22,9999,9999,9999,1649348664
106,15,16,Jits_ISO_5,23,9999,9999,9999,1649848408
106,15,16,Jits_ISO_5,24,9999,9999,9999,1650348084
106,15,16,Jits_ISO_5,25,9999,9999,9999,1650848872
106,15,16,Jits_ISO_5,26,9999,9999,9999,1651348532
106,15,16,Jits_ISO_5,27,9999,9999,9999,1651848256
106,15,16,Jits_ISO_5,28,9999,9999,9999,1652349048
106,15,16,Jits_ISO_5,29,9999,9999,9999,1652848704
106,15,16,Jits_ISO_5,30,9999,9999,9999,1653348436
106,15,16,Jits_ISO_5,31,9999,9999,9999,1653848184
106,15,16,Jits_ISO_5,32,9999,9999,9999,1654348900
106,15,16,Jits_ISO_5,33,9999,9999,9999,1654848572
106,15,16,Jits_ISO_5,34,9999,9999,9999,1655348304
106,15,16,Jits_ISO_5,35,9999,9999,9999,1655849012
106,15,16,Jits_ISO_5,36,9999,9999,9999,1656348736
106,15,16,Jits_ISO_5,37,9999,9999,9999,1656848468
106,15,16,Jits_ISO_5,38,9999,9999,9999,1657348220
106,15,16,Jits_ISO_5,39,9999,9999,9999,1657848928
106,15,16,Jits_ISO_5,40,9999,9999,9999,1658348664
106,15,16,Jits_ISO_5,41,9999,9999,9999,1658848328
106,15,16,Jits_ISO_5,42,9999,9999,9999,1659349048
106,15,16,Jits_ISO_5,43,9999,9999,9999,1659848824
106,15,16,Jits_ISO_5,44,9999,9999,9999,1660348480
106,15,16,Jits_ISO_5,45,9999,9999,9999,1660848224
106,15,16,Jits_ISO_5,46,9999,9999,9999,1661348928
106,15,16,Jits_ISO_5,47,9999,9999,9999,1661848640
106,15,16,Jits_ISO_5,48,9999,9999,9999,1662348376
106,15,16,Jits_ISO_5,49,9999,9999,9999,1662848052
106,15,16,Jits_ISO_5,50,9999,9999,9999,1663348824
106,15,16,Jits_ISO_5,51,9999,9999,9999,1663848572
106,15,16,Jits_ISO_5,52,9999,9999,9999,1664348248
106,15,16,Jits_ISO_5,53,9999,9999,9999,1664848968
106,15,16,Jits_ISO_5,54,9999,9999,9999,1665348700
106,15,16,Jits_ISO_5,55,9999,9999,9999,1665848376
106,15,16,Jits_ISO_5,56,9999,9999,9999,1666348120
106,15,16,Jits_ISO_5,57,9999,9999,9999,1666848832
106,15,16,Jits_ISO_5,58,9999,9999,9999,1667348568
106,15,16,Jits_ISO_5,59,9999,9999,9999,1667848288
106,15,16,Jits_ISO_5,60,9999,9999,9999,1668349012
106,15,16,Jits_ISO_5,61,9999,9999,9999,1668848740
106,15,16,Jits_ISO_5,62,9999,9999,9999,1669348472
106,15,16,Jits_ISO_5,63,9999,9999,9999,1669848132
106,15,16,Jits_ISO_5,64,9999,9999,9999,1670348888
106,15,16,Jits_ISO_5,65,9999,9999,9999,1670848600
106,15,16,Jits_ISO_5,66,9999,9999,9999,1671348276
106,15,16,Jits_ISO_5,67,9999,9999,9999,1671849056
106,15,16,Jits_ISO_5,68,9999,9999,9999,1672348736
106,15,16,Jits_ISO_5,69,9999,9999,9999,1672848468
106,15,16,Jits_ISO_5,70,9999,9999,9999,1673348188
106,15,16,Jits_ISO_5,71,9999,9999,9999,1673848908
106,15,16,Jits_ISO_5,72,9999,9999,9999,1674348656
106,15,16,Jits_ISO_5,73,9999,9999,9999,1674848312
106,15,16,Jits_ISO_5,74,9999,9999,9999,1675349096
106,15,16,Jits_ISO_5,75,9999,9999,9999,1675848828
106,15,16,Jits_ISO_5,76,9999,9999,9999,1676348504
106,15,16,Jits_ISO_5,77,9999,9999,9999,1676848240
106,15,16,Jits_ISO_5,78,9999,9999,9999,1677348960
106,15,16,Jits_ISO_5,79,9999,9999,9999,1677848696
106,15,16,Jits_ISO_5,80,9999,9999,9999,1678348360
106,15,16,Jits_ISO_5,81,9999,9999,9999,1678848088
106,15,16,Jits_ISO_5,82,9999,9999,9999,1679348808
106,15,16,Jits_ISO_5,83,9999,9999,9999,1679848536
106,15,16,Jits_ISO_5,84,9999,9999,9999,1680348212
106,15,16,Jits_ISO_5,85,9999,9999,9999,1680848960
106,15,16,Jits_ISO_5,86,9999,9999,9999,1681348680
106,15,16,Jits_ISO_5,87,9999,9999,9999,1681848424
106,15,16,Jits_ISO_5,88,9999,9999,9999,1682348092
106,15,16,Jits_ISO_5,89,9999,9999,9999,1682848884
106,15,16,Jits_ISO_5,90,9999,9999,9999,1683348552
106,15,16,Jits_ISO_5,91,9999,9999,9999,1683848296
106,15,16,Jits_ISO_5,92,9999,9999,9999,1684349000
106,15,16,Jits_ISO_5,93,9999,9999,9999,1684848736
106,15,16,Jits_ISO_5,94,9999,9999,9999,1685348460
106,15,16,Jits_ISO_5,95,9999,9999,9999,1685848120
106,15,16,Jits_ISO_5,96,9999,9999,9999,1686348912
106,15,16,Jits_ISO_5,97,9999,9999,9999,1686848568
106,15,16,Jits_ISO_5,98,9999,9999,9999,1687348300
106,15,16,Jits_ISO_5,99,9999,9999,9999,1687849012
106,15,16,Jits_ISO_5,100,9999,9999,9999,1688348748
106,15,16,Jits_ISO_5,101,9999,9999,9999,1688848496
106,15,16,Jits_ISO_5,102,9999,9999,9999,1689348156
106,15,16,Jits_ISO_5,103,9999,9999,9999,1689848952
106,15,16,Jits_ISO_5,104,9999,9999,9999,1690348620
106,15,16,Jits_ISO_5,105,9999,9999,9999,1690848348
106,15,16,Jits_ISO_5,106,9999,9999,9999,1691349052
106,15,16,Jits_ISO_5,107,9999,9999,9999,1691848756
106,15,16,Jits_ISO_5,108,9999,9999,9999,1692348492
106,15,16,Jits_ISO_5,109,9999,9999,9999,1692848224
106,15,16,Jits_ISO_5,110,9999,9999,9999,1693348944
106,15,16,Jits_ISO_5,111,9999,9999,9999,1693848688
106,15,16,Jits_ISO_5,112,9999,9999,9999,1694348360
106,15,16,Jits_ISO_5,113,9999,9999,9999,1694848112
106,15,16,Jits_ISO_5,114,9999,9999,9999,1695348812
106,15,16,Jits_ISO_5,115,9999,9999,9999,1695848536
106,15,16,Jits_ISO_5,116,9999,9999,9999,1696348268
106,15,16,Jits_ISO_5,117,9999,9999,9999,1696848988
106,15,16,Jits_ISO_5,118,9999,9999,9999,1697348664
106,15,16,Jits_ISO_5,119,9999,9999,9999,1697848388
106,16,7,Jits_ISO_8,0,5,56,103,1708162436
106,16,7,Jits_ISO_8,1,5,63,98,1708165456
106,16,7,Jits_ISO_8,2,5,80,127,1708168652
106,16,7,Jits_ISO_8,0,5,56,103,1708963328
106,16,7,Jits_ISO_8,1,5,63,98,1708966200
106,16,7,Jits_ISO_8,2,5,80,127,1708969400
106,16,7,Jits_ISO_8,0,5,80,127,1709702508
106,16,7,Jits_ISO_8,1,5,63,98,1709792668
106,16,7,Jits_ISO_8,2,5,56,103,1709803012
106,16,7,Jits_ISO_8,0,5,56,103,1710522604
106,16,7,Jits_ISO_8,1,5,63,98,1710533320
106,16,7,Jits_ISO_8,2,5,80,127,1710623108
106,16,7,Jits_ISO_8,0,5,63,98,1711292948
106,16,7,Jits_ISO_8,1,5,80,127,1711322500
106,16,7,Jits_ISO_8,2,5,56,103,1711353148
106,16,7,Jits_ISO_8,3,1,48,68,1711354708
106,16,7,Jits_ISO_8,0,1,48,59,1712072540
106,16,7,Jits_ISO_8,1,5,56,103,1712092520
106,16,7,Jits_ISO_8,2,5,80,127,1712192828
106,16,7,Jits_ISO_8,3,5,63,98,1712243032
106,16,7,Jits_ISO_8,0,5,56,103,1712893432
106,16,7,Jits_ISO_8,1,1,48,59,1712920984
106,16,7,Jits_ISO_8,2,5,80,127,1712942508
106,16,7,Jits_ISO_8,3,5,63,98,1712983268
106,16,7,Jits_ISO_8,0,5,80,127,1713722600
106,16,7,Jits_ISO_8,1,1,48,63,1713723568
106,16,7,Jits_ISO_8,2,5,63,98,1713752344
106,16,7,Jits_ISO_8,3,5,56,103,1713823132
106,16,7,Jits_ISO_8,0,5,63,98,1714553340
106,16,7,Jits_ISO_8,1,1,48,60,1714563880
106,16,7,Jits_ISO_8,2,5,56,103,1714583160
106,16,7,Jits_ISO_8,3,5,80,127,1714643200
106,16,7,Jits_ISO_8,0,5,56,103,1715292516
106,16,7,Jits_ISO_8,1,5,80,127,1715295508
106,16,7,Jits_ISO_8,2,1,48,55,1715387852
106,16,7,Jits_ISO_8,3,5,63,98,1715413304
106,16,7,Jits_ISO_8,0,1,48,64,1716112048
106,16,7,Jits_ISO_8,1,5,56,103,1716173136
106,16,7,Jits_ISO_8,2,5,80,127,1716213236
106,16,7,Jits_ISO_8,3,5,63,98,1716223356
106,16,7,Jits_ISO_8,0,5,56,103,1716933072
106,16,7,Jits_ISO_8,1,5,80,127,1716952288
106,16,7,Jits_ISO_8,2,1,48,67,1716988736
106,16,7,Jits_ISO_8,3,5,63,98,1717033420
106,16,7,Jits_ISO_8,0,5,80,127,1717722484
106,16,7,Jits_ISO_8,1,1,48,66,1717767104
106,16,7,Jits_ISO_8,2,5,56,103,1717822804
106,16,7,Jits_ISO_8,3,5,63,98,1717832924
106,16,7,Jits_ISO_8,0,5,63,98,1718492468
106,16,7,Jits_ISO_8,1,5,80,127,1718552860
106,16,7,Jits_ISO_8,2,5,56,103,1718563132
106,16,7,Jits_ISO_8,3,1,48,69,1718606624
106,16,7,Jits_ISO_8,0,5,56,103,1719293292
106,16,7,Jits_ISO_8,1,1,48,62,1719342348
106,16,7,Jits_ISO_8,2,5,63,98,1719362968
106,16,7,Jits_ISO_8,3,5,80,127,1719366404
106,16,7,Jits_ISO_8,0,1,48,64,1720110660
106,16,7,Jits_ISO_8,1,5,63,98,1720122820
106,16,7,Jits_ISO_8,2,5,56,103,1720173168
106,16,7,Jits_ISO_8,3,5,80,127,1720176160
106,16,7,Jits_ISO_8,0,5,56,103,1720882512
106,16,7,Jits_ISO_8,1,5,80,127,1720885728
106,16,7,Jits_ISO_8,2,1,48,67,1720922644
106,16,7,Jits_ISO_8,3,5,63,98,1720972936
106,16,7,Jits_ISO_8,0,5,63,98,1721723204
106,16,7,Jits_ISO_8,1,1,48,60,1721727740
106,16,7,Jits_ISO_8,2,5,56,103,1721813356
106,16,7,Jits_ISO_8,3,5,80,127,1721843092
106,16,7,Jits_ISO_8,0,5,56,103,1722512800
106,16,7,Jits_ISO_8,1,1,48,57,1722565588
106,16,7,Jits_ISO_8,2,5,63,98,1722613068
106,16,7,Jits_ISO_8,3,5,80,127,1722642892
106,16,7,Jits_ISO_8,0,5,63,98,1723332904
106,16,7,Jits_ISO_8,1,5,56,103,1723343100
106,16,7,Jits_ISO_8,2,1,48,63,1723380372
106,16,7,Jits_ISO_8,3,5,80,127,1723433372
106,16,7,Jits_ISO_8,0,1,48,59,1724151472
106,16,7,Jits_ISO_8,1,5,63,98,1724153136
106,16,7,Jits_ISO_8,2,5,56,103,1724233080
106,16,7,Jits_ISO_8,3,5,80,127,1724236148
106,16,7,Jits_ISO_8,0,5,80,127,1724913140
106,16,7,Jits_ISO_8,1,5,63,98,1724932480
106,16,7,Jits_ISO_8,2,1,48,64,1724957772
106,16,7,Jits_ISO_8,3,5,56,103,1724993232
106,16,7,Jits_ISO_8,0,1,48,57,1725746320
106,16,7,Jits_ISO_8,1,5,56,103,1725752788
106,16,7,Jits_ISO_8,2,5,63,98,1725773172
106,16,7,Jits_ISO_8,3,5,80,127,1725776536
106,16,7,Jits_ISO_8,0,5,63,98,1726493156
106,16,7,Jits_ISO_8,1,1,48,57,1726557708
106,16,7,Jits_ISO_8,2,5,80,127,1726572948
106,16,7,Jits_ISO_8,3,5,56,103,1726583296
106,16,7,Jits_ISO_8,0,5,63,98,1727313320
106,16,7,Jits_ISO_8,1,1,48,57,1727332056
106,16,7,Jits_ISO_8,2,5,56,103,1727333772
106,16,7,Jits_ISO_8,3,5,80,127,1727382852
106,16,7,Jits_ISO_8,0,1,48,58,1728095384
106,16,7,Jits_ISO_8,1,5,80,127,1728112944
106,16,7,Jits_ISO_8,2,5,63,98,1728152884
106,16,7,Jits_ISO_8,3,5,56,103,1728173416
106,16,7,Jits_ISO_8,0,1,48,63,1728908044
106,16,7,Jits_ISO_8,1,5,56,103,1728952808
106,16,7,Jits_ISO_8,2,5,63,98,1728962928
106,16,7,Jits_ISO_8,3,5,80,127,1728983340
106,16,7,Jits_ISO_8,0,5,56,103,1729682992
106,16,7,Jits_ISO_8,1,5,63,98,1729772856
106,16,7,Jits_ISO_8,2,1,48,64,1729809756
106,16,7,Jits_ISO_8,3,5,80,127,1729833464
106,16,7,Jits_ISO_8,0,5,80,127,1730513236
106,16,7,Jits_ISO_8,1,5,56,103,1730522536
106,16,7,Jits_ISO_8,2,1,48,54,1730574504
106,16,7,Jits_ISO_8,3,5,63,98,1730593108
106,16,7,Jits_ISO_8,0,5,63,98,1731342776
106,16,7,Jits_ISO_8,1,1,48,59,1731353168
106,16,7,Jits_ISO_8,2,5,80,127,1731432980
106,16,7,Jits_ISO_8,3,5,56,103,1731442956
106,16,7,Jits_ISO_8,0,5,63,98,1732083152
106,16,7,Jits_ISO_8,1,5,80,127,1732133208
106,16,7,Jits_ISO_8,2,5,56,103,1732192700
106,16,7,Jits_ISO_8,3,1,48,57,1732196420
106,16,7,Jits_ISO_8,0,5,56,103,1732912384
106,16,7,Jits_ISO_8,1,5,80,127,1732962812
106,16,7,Jits_ISO_8,2,1,48,61,1732965780
106,16,7,Jits_ISO_8,3,5,63,98,1732983260
106,16,7,Jits_ISO_8,0,5,56,103,1733682508
106,16,7,Jits_ISO_8,1,5,80,127,1733743052
106,16,7,Jits_ISO_8,2,1,48,63,1733758676
106,16,7,Jits_ISO_8,3,5,63,98,1733812872
106,16,7,Jits_ISO_8,0,5,56,103,1734483276
106,16,7,Jits_ISO_8,1,5,80,127,1734512956
106,16,7,Jits_ISO_8,2,1,48,57,1734535328
106,16,7,Jits_ISO_8,3,5,63,98,1734542696
106,16,7,Jits_ISO_8,0,1,48,59,1735321036
106,16,7,Jits_ISO_8,1,5,56,103,1735322920
106,16,7,Jits_ISO_8,2,5,80,127,1735342412
106,16,7,Jits_ISO_8,3,5,63,98,1735402824
106,16,7,Jits_ISO_8,0,1,48,67,1736148396
106,16,7,Jits_ISO_8,1,5,80,127,1736202748
106,16,7,Jits_ISO_8,2,5,56,103,1736212796
106,16,7,Jits_ISO_8,3,5,63,98,1736223144
106,16,7,Jits_ISO_8,0,5,56,103,1736962392
106,16,7,Jits_ISO_8,1,1,48,62,1736968048
106,16,7,Jits_ISO_8,2,5,80,127,1737003592
106,16,7,Jits_ISO_8,3,5,63,98,1737033120
106,16,7,Jits_ISO_8,0,5,56,103,1737732596
106,16,7,Jits_ISO_8,1,5,63,98,1737763172
106,16,7,Jits_ISO_8,2,5,80,127,1737803184
106,16,7,Jits_ISO_8,3,1,48,62,1737811628
106,16,7,Jits_ISO_8,0,5,80,127,1738483092
106,16,7,Jits_ISO_8,1,5,63,98,1738533148
106,16,7,Jits_ISO_8,2,5,56,103,1738552632
106,16,7,Jits_ISO_8,3,1,48,61,1738607140
106,16,7,Jits_ISO_8,0,5,56,103,1739312780
106,16,7,Jits_ISO_8,1,1,48,59,1739338896
106,16,7,Jits_ISO_8,2,5,80,127,1739383132
106,16,7,Jits_ISO_8,3,5,63,98,1739442756
106,16,7,Jits_ISO_8,0,5,80,127,1740113184
106,16,7,Jits_ISO_8,1,1,48,61,1740170776
106,16,7,Jits_ISO_8,2,5,63,98,1740203240
106,16,7,Jits_ISO_8,3,5,56,103,1740222876
106,16,7,Jits_ISO_8,0,5,63,98,1740932692
106,16,7,Jits_ISO_8,1,5,56,103,1740952852
106,16,7,Jits_ISO_8,2,1,48,61,1740971264
106,16,7,Jits_ISO_8,3,5,80,127,1740992860
106,16,7,Jits_ISO_8,0,5,80,127,1741693284
106,16,7,Jits_ISO_8,1,5,63,98,1741712772
106,16,7,Jits_ISO_8,2,1,48,63,1741745032
106,16,7,Jits_ISO_8,3,5,56,103,1741792736
106,16,7,Jits_ISO_8,0,5,63,98,1742482664
106,16,7,Jits_ISO_8,1,1,48,64,1742575408
106,16,7,Jits_ISO_8,2,5,56,103,1742593720
106,16,7,Jits_ISO_8,3,5,80,127,1742596708
106,16,7,Jits_ISO_8,0,5,63,98,1743302892
106,16,7,Jits_ISO_8,1,5,56,103,1743313180
106,16,7,Jits_ISO_8,2,5,80,127,1743316324
106,16,7,Jits_ISO_8,3,1,48,65,1743328808
106,16,7,Jits_ISO_8,0,5,56,103,1744083276
106,16,7,Jits_ISO_8,1,1,48,61,1744090748
106,16,7,Jits_ISO_8,2,5,80,127,1744203060
106,16,7,Jits_ISO_8,3,5,63,98,1744243072
106,16,7,Jits_ISO_8,0,5,56,103,1744902628
106,16,7,Jits_ISO_8,1,1,48,57,1744965160
106,16,7,Jits_ISO_8,2,5,80,127,1744983392
106,16,7,Jits_ISO_8,3,5,63,98,1745002880
106,16,7,Jits_ISO_8,0,5,56,103,1745703320
106,16,7,Jits_ISO_8,1,1,48,56,1745768472
106,16,7,Jits_ISO_8,2,5,63,98,1745812780
106,16,7,Jits_ISO_8,3,5,80,127,1745815920
106,16,7,Jits_ISO_8,0,5,56,103,1746532708
106,16,7,Jits_ISO_8,1,1,48,57,1746556280
106,16,7,Jits_ISO_8,2,5,80,127,1746562528
106,16,7,Jits_ISO_8,3,5,63,98,1746582836
106,16,7,Jits_ISO_8,0,5,63,98,1747313028
106,16,7,Jits_ISO_8,1,5,56,103,1747323148
106,16,7,Jits_ISO_8,2,5,80,127,1747332744
106,16,7,Jits_ISO_8,3,1,48,60,1747346800
106,16,7,Jits_ISO_8,0,5,80,127,1748102612
106,16,7,Jits_ISO_8,1,1,48,59,1748107452
106,16,7,Jits_ISO_8,2,5,56,103,1748152736
106,16,7,Jits_ISO_8,3,5,63,98,1748192772
106,16,7,Jits_ISO_8,0,5,80,127,1748922712
106,16,7,Jits_ISO_8,1,1,48,60,1748928748
106,16,7,Jits_ISO_8,2,5,63,98,1748943092
106,16,7,Jits_ISO_8,3,5,56,103,1748993540
106,16,7,Jits_ISO_8,0,1,48,59,1749722432
106,16,7,Jits_ISO_8,1,5,80,127,1749732716
106,16,7,Jits_ISO_8,2,5,56,103,1749762616
106,16,7,Jits_ISO_8,3,5,63,98,1749833104
106,16,7,Jits_ISO_8,0,1,48,58,1750580436
106,16,7,Jits_ISO_8,1,5,56,103,1750582700
106,16,7,Jits_ISO_8,2,5,80,127,1750592824
106,16,7,Jits_ISO_8,3,5,63,98,1750632760
106,16,7,Jits_ISO_8,0,5,56,103,1751293264
106,16,7,Jits_ISO_8,1,5,63,98,1751312824
106,16,7,Jits_ISO_8,2,5,80,127,1751383628
106,16,7,Jits_ISO_8,3,1,48,55,1751406748
106,16,7,Jits_ISO_8,0,5,63,98,1752112536
106,16,7,Jits_ISO_8,1,1,48,59,1752164276
106,16,7,Jits_ISO_8,2,5,80,127,1752172924
106,16,7,Jits_ISO_8,3,5,56,103,1752193604
106,16,7,Jits_ISO_8,0,5,80,127,1752903028
106,16,7,Jits_ISO_8,1,5,56,103,1752932708
106,16,7,Jits_ISO_8,2,1,48,64,1752936048
106,16,7,Jits_ISO_8,3,5,63,98,1752962672
106,16,7,Jits_ISO_8,0,5,56,103,1753702828
106,16,7,Jits_ISO_8,1,1,48,59,1753709012
106,16,7,Jits_ISO_8,2,5,63,98,1753763288
106,16,7,Jits_ISO_8,3,5,80,127,1753822640
106,16,7,Jits_ISO_8,0,1,48,60,1754518392
106,16,7,Jits_ISO_8,1,5,80,127,1754522996
106,16,7,Jits_ISO_8,2,5,56,103,1754542556
106,16,7,Jits_ISO_8,3,5,63,98,1754613072
106,16,7,Jits_ISO_8,0,5,80,127,1755322716
106,16,7,Jits_ISO_8,1,5,63,98,1755343324
106,16,7,Jits_ISO_8,2,1,48,63,1755344216
106,16,7,Jits_ISO_8,3,5,56,103,1755372844
106,16,7,Jits_ISO_8,0,5,80,127,1756113148
106,16,7,Jits_ISO_8,1,1,48,57,1756126308
106,16,7,Jits_ISO_8,2,5,63,98,1756132700
106,16,7,Jits_ISO_8,3,5,56,103,1756193240
106,16,7,Jits_ISO_8,0,5,80,127,1756913092
106,16,7,Jits_ISO_8,1,1,48,61,1756937788
106,16,7,Jits_ISO_8,2,5,56,103,1757013488
106,16,7,Jits_ISO_8,3,5,63,98,1757042924
106,16,7,Jits_ISO_8,0,5,63,98,1757702632
106,16,7,Jits_ISO_8,1,5,80,127,1757752912
106,16,7,Jits_ISO_8,2,5,56,103,1757773148
106,16,7,Jits_ISO_8,3,1,48,62,1757791104
106,16,7,Jits_ISO_8,0,5,80,127,1758543172
106,16,7,Jits_ISO_8,1,1,48,62,1758565844
106,16,7,Jits_ISO_8,2,5,56,103,1758572916
106,16,7,Jits_ISO_8,3,5,63,98,1758575832
106,16,7,Jits_ISO_8,0,1,48,60,1759363836
106,16,7,Jits_ISO_8,1,5,63,98,1759372628
106,16,7,Jits_ISO_8,2,5,56,103,1759412568
106,16,7,Jits_ISO_8,3,5,80,127,1759432952
106,16,7,Jits_ISO_8,0,5,80,127,1760112864
106,16,7,Jits_ISO_8,1,1,48,64,1760178460
106,16,7,Jits_ISO_8,2,5,63,98,1760192952
106,16,7,Jits_ISO_8,3,5,56,103,1760232840
106,16,7,Jits_ISO_8,0,5,63,98,1760933488
106,16,7,Jits_ISO_8,1,5,80,127,1761013088
106,16,7,Jits_ISO_8,2,5,56,103,1761032652
106,16,7,Jits_ISO_8,3,1,48,68,1761037864
106,16,7,Jits_ISO_8,0,5,56,103,1761772868
106,16,7,Jits_ISO_8,1,5,63,98,1761783064
106,16,7,Jits_ISO_8,2,5,80,127,1761823076
106,16,7,Jits_ISO_8,3,1,48,64,1761828888
106,16,7,Jits_ISO_8,0,5,56,103,1762492768
106,16,7,Jits_ISO_8,1,5,80,127,1762495908
106,16,7,Jits_ISO_8,2,1,48,63,1762558316
106,16,7,Jits_ISO_8,3,5,63,98,1762633112
106,16,7,Jits_ISO_8,0,5,56,103,1763283440
106,16,7,Jits_ISO_8,1,1,48,67,1763344404
106,16,7,Jits_ISO_8,2,5,63,98,1763373572
106,16,7,Jits_ISO_8,3,5,80,127,1763443012
106,16,7,Jits_ISO_8,0,1,48,63,1764124412
106,16,7,Jits_ISO_8,1,5,63,98,1764162876
106,16,7,Jits_ISO_8,2,5,80,127,1764166164
106,16,7,Jits_ISO_8,3,5,56,103,1764223548
106,16,7,Jits_ISO_8,0,1,48,65,1764948612
106,16,7,Jits_ISO_8,1,5,80,127,1765002816
106,16,7,Jits_ISO_8,2,5,56,103,1765023128
106,16,7,Jits_ISO_8,3,5,63,98,1765033472
106,16,7,Jits_ISO_8,0,5,56,103,1765713528
106,16,7,Jits_ISO_8,1,5,63,98,1765722604
106,16,7,Jits_ISO_8,2,1,48,65,1765777492
106,16,7,Jits_ISO_8,3,5,80,127,1765793104
106,16,7,Jits_ISO_8,0,5,80,127,1766512952
106,16,7,Jits_ISO_8,1,1,48,61,1766555552
106,16,7,Jits_ISO_8,2,5,56,103,1766563372
106,16,7,Jits_ISO_8,3,5,63,98,1766613524
106,16,7,Jits_ISO_8,0,1,48,64,1767334972
106,16,7,Jits_ISO_8,1,5,56,103,1767392564
106,16,7,Jits_ISO_8,2,5,63,98,1767402836
106,16,7,Jits_ISO_8,3,5,80,127,1767442760
106,16,7,Jits_ISO_8,0,5,56,103,1768132920
106,16,7,Jits_ISO_8,1,5,63,98,1768172888
106,16,7,Jits_ISO_8,2,1,48,53,1768217060
106,16,7,Jits_ISO_8,3,5,80,127,1768223232
106,16,7,Jits_ISO_8,0,5,80,127,1768892640
106,16,7,Jits_ISO_8,1,5,56,103,1768943016
106,16,7,Jits_ISO_8,2,5,63,98,1768962352
106,16,7,Jits_ISO_8,3,1,48,59,1768978652
106,16,7,Jits_ISO_8,0,5,80,127,1769702720
106,16,7,Jits_ISO_8,1,1,48,60,1769754168
106,16,7,Jits_ISO_8,2,5,63,98,1769763404
106,16,7,Jits_ISO_8,3,5,56,103,1769843128
106,16,7,Jits_ISO_8,0,5,80,127,1770482964
106,16,7,Jits_ISO_8,1,5,56,103,1770522904
106,16,7,Jits_ISO_8,2,5,63,98,1770542540
106,16,7,Jits_ISO_8,3,1,48,62,1770565508
106,16,7,Jits_ISO_8,0,1,48,55,1771332732
106,16,7,Jits_ISO_8,1,5,56,103,1771334220
106,16,7,Jits_ISO_8,2,5,80,127,1771343368
106,16,7,Jits_ISO_8,3,5,63,98,1771383380
106,16,7,Jits_ISO_8,0,1,48,58,1772105204
106,16,7,Jits_ISO_8,1,5,56,103,1772203592
106,16,7,Jits_ISO_8,2,5,63,98,1772243332
106,16,7,Jits_ISO_8,3,5,80,127,1772246620
106,16,7,Jits_ISO_8,0,5,63,98,1772892512
106,16,7,Jits_ISO_8,1,5,80,127,1772932452
106,16,7,Jits_ISO_8,2,1,48,54,1772994008
106,16,7,Jits_ISO_8,3,5,56,103,1773003320
106,16,7,Jits_ISO_8,0,5,63,98,1773683076
106,16,7,Jits_ISO_8,1,1,48,57,1773728824
106,16,7,Jits_ISO_8,2,5,56,103,1773762792
106,16,7,Jits_ISO_8,3,5,80,127,1773823488
106,16,7,Jits_ISO_8,0,5,80,127,1774493048
106,16,7,Jits_ISO_8,1,1,48,63,1774509424
106,16,7,Jits_ISO_8,2,5,63,98,1774543344
106,16,7,Jits_ISO_8,3,5,56,103,1774573020
106,16,7,Jits_ISO_8,0,5,56,103,1775282504
106,16,7,Jits_ISO_8,1,1,48,57,1775312100
106,16,7,Jits_ISO_8,2,5,63,98,1775332652
106,16,7,Jits_ISO_8,3,5,80,127,1775342848
106,16,7,Jits_ISO_8,0,5,56,103,1776092584
106,16,7,Jits_ISO_8,1,1,48,58,1776096304
106,16,7,Jits_ISO_8,2,5,63,98,1776203300
106,16,7,Jits_ISO_8,3,5,80,127,1776222564
106,16,7,Jits_ISO_8,0,5,63,98,1776893508
106,16,7,Jits_ISO_8,1,1,48,63,1776926292
106,16,7,Jits_ISO_8,2,5,80,127,1776942508
106,16,7,Jits_ISO_8,3,5,56,103,1777032700
106,16,7,Jits_ISO_8,0,5,63,98,1777682652
106,16,7,Jits_ISO_8,1,5,80,127,1777712480
106,16,7,Jits_ISO_8,2,1,48,58,1777726908
106,16,7,Jits_ISO_8,3,5,56,103,1777802604
106,16,7,Jits_ISO_8,0,5,63,98,1778482504
106,16,7,Jits_ISO_8,1,5,56,103,1778492852
106,16,7,Jits_ISO_8,2,1,48,61,1778521900
106,16,7,Jits_ISO_8,3,5,80,127,1778593316
106,16,7,Jits_ISO_8,0,1,48,59,1779314248
106,16,7,Jits_ISO_8,1,5,63,98,1779382532
106,16,7,Jits_ISO_8,2,5,80,127,1779413352
106,16,7,Jits_ISO_8,3,5,56,103,1779442940
106,16,7,Jits_ISO_8,0,1,48,65,1780121308
106,16,7,Jits_ISO_8,1,5,80,127,1780202800
106,16,7,Jits_ISO_8,2,5,63,98,1780213444
106,16,7,Jits_ISO_8,3,5,56,103,1780242808
106,16,7,Jits_ISO_8,0,5,80,127,1780903452
106,16,7,Jits_ISO_8,1,5,63,98,1780922716
106,16,7,Jits_ISO_8,2,1,48,67,1780961900
106,16,7,Jits_ISO_8,3,5,56,103,1780972860
106,16,7,Jits_ISO_8,0,1,48,62,1781729004
106,16,7,Jits_ISO_8,1,5,63,98,1781732788
106,16,7,Jits_ISO_8,2,5,80,127,1781793180
106,16,7,Jits_ISO_8,3,5,56,103,1781812516
106,16,7,Jits_ISO_8,0,5,63,98,1782492500
106,16,7,Jits_ISO_8,1,5,56,103,1782542628
106,16,7,Jits_ISO_8,2,5,80,127,1782553048
106,16,7,Jits_ISO_8,3,1,48,57,1782557288
106,16,7,Jits_ISO_8,0,5,56,103,1783323072
106,16,7,Jits_ISO_8,1,5,80,127,1783333340
106,16,7,Jits_ISO_8,2,1,48,61,1783338332
106,16,7,Jits_ISO_8,3,5,63,98,1783433712
106,16,7,Jits_ISO_8,0,5,80,127,1784082708
106,16,7,Jits_ISO_8,1,5,63,98,1784093276
106,16,7,Jits_ISO_8,2,1,48,61,1784141952
106,16,7,Jits_ISO_8,3,5,56,103,1784242500
106,16,7,Jits_ISO_8,0,5,63,98,1784892840
106,16,7,Jits_ISO_8,1,5,80,127,1784932632
106,16,7,Jits_ISO_8,2,1,48,60,1784936648
106,16,7,Jits_ISO_8,3,5,56,103,1785012568
106,16,7,Jits_ISO_8,0,5,56,103,1785683256
106,16,7,Jits_ISO_8,1,1,48,59,1785776356
106,16,7,Jits_ISO_8,2,5,80,127,1785782604
106,16,7,Jits_ISO_8,3,5,63,98,1785803284
106,16,7,Jits_ISO_8,0,1,48,53,1786542544
106,16,7,Jits_ISO_8,1,5,80,127,1786543808
106,16,7,Jits_ISO_8,2,5,56,103,1786552584
106,16,7,Jits_ISO_8,3,5,63,98,1786642656
106,16,7,Jits_ISO_8,0,5,56,103,1787343328
106,16,7,Jits_ISO_8,1,5,63,98,1787362668
106,16,7,Jits_ISO_8,2,1,48,59,1787411720
106,16,7,Jits_ISO_8,3,5,80,127,1787442532
106,16,7,Jits_ISO_8,0,5,63,98,1788092760
106,16,7,Jits_ISO_8,1,1,48,64,1788172176
106,16,7,Jits_ISO_8,2,5,56,103,1788183136
106,16,7,Jits_ISO_8,3,5,80,127,1788186276
106,16,7,Jits_ISO_8,0,5,56,103,1788923352
106,16,7,Jits_ISO_8,1,1,48,63,1788960180
106,16,7,Jits_ISO_8,2,5,80,127,1788982544
106,16,7,Jits_ISO_8,3,5,63,98,1788992964
106,16,7,Jits_ISO_8,0,1,48,58,1789720340
106,16,7,Jits_ISO_8,1,5,80,127,1789773124
106,16,7,Jits_ISO_8,2,5,56,103,1789783392
106,16,7,Jits_ISO_8,3,5,63,98,1789786684
106,16,7,Jits_ISO_8,0,1,48,62,1790512864
106,16,7,Jits_ISO_8,1,5,56,103,1790533340
106,16,7,Jits_ISO_8,2,5,80,127,1790543312
106,16,7,Jits_ISO_8,3,5,63,98,1790562576
106,16,7,Jits_ISO_8,0,5,63,98,1791303308
106,16,7,Jits_ISO_8,1,1,48,65,1791314152
106,16,7,Jits_ISO_8,2,5,80,127,1791362352
106,16,7,Jits_ISO_8,3,5,56,103,1791412612
106,16,7,Jits_ISO_8,0,1,48,59,1792108824
106,16,7,Jits_ISO_8,1,5,63,98,1792182660
106,16,7,Jits_ISO_8,2,5,56,103,1792192856
106,16,7,Jits_ISO_8,3,5,80,127,1792243292
106,16,7,Jits_ISO_8,0,5,63,98,1792883252
106,16,7,Jits_ISO_8,1,5,80,127,1792902444
106,16,7,Jits_ISO_8,2,5,56,103,1792912640
106,16,7,Jits_ISO_8,3,1,48,60,1792978256
106,16,7,Jits_ISO_8,0,5,63,98,1793682728
106,16,7,Jits_ISO_8,1,5,80,127,1793686312
106,16,7,Jits_ISO_8,2,1,48,57,1793707492
106,16,7,Jits_ISO_8,3,5,56,103,1793722732
106,16,7,Jits_ISO_8,0,1,48,62,1794476088
106,16,7,Jits_ISO_8,1,5,63,98,1794553384
106,16,7,Jits_ISO_8,2,5,80,127,1794582900
106,16,7,Jits_ISO_8,3,5,56,103,1794593244
106,16,7,Jits_ISO_8,0,5,56,103,1795303056
106,16,7,Jits_ISO_8,1,1,48,62,1795305504
106,16,7,Jits_ISO_8,2,5,80,127,1795332428
106,16,7,Jits_ISO_8,3,5,63,98,1795363296
106,16,7,Jits_ISO_8,0,1,48,64,1796081840
106,16,7,Jits_ISO_8,1,5,63,98,1796203000
106,16,7,Jits_ISO_8,2,5,56,103,1796242708
106,16,7,Jits_ISO_8,3,5,80,127,1796245780
106,16,7,Jits_ISO_8,0,5,80,127,1796903304
106,16,7,Jits_ISO_8,1,1,48,66,1796972736
106,16,7,Jits_ISO_8,2,5,56,103,1796983244
106,16,7,Jits_ISO_8,3,5,63,98,1797033444
106,16,7,Jits_ISO_8,0,5,80,127,1797682576
106,16,7,Jits_ISO_8,1,5,56,103,1797703108
106,16,7,Jits_ISO_8,2,5,63,98,1797793168
106,16,7,Jits_ISO_8,3,1,48,62,1797818156
106,16,7,Jits_ISO_8,0,5,80,127,1798523348
106,16,7,Jits_ISO_8,1,5,63,98,1798563292
106,16,7,Jits_ISO_8,2,1,48,60,1798585288
106,16,7,Jits_ISO_8,3,5,56,103,1798603220
106,16,7,Jits_ISO_8,0,5,63,98,1799293256
106,16,7,Jits_ISO_8,1,1,48,66,1799342384
106,16,7,Jits_ISO_8,2,5,80,127,1799352820
106,16,7,Jits_ISO_8,3,5,56,103,1799383344
106,16,7,Jits_ISO_8,0,5,56,103,1800092964
106,16,7,Jits_ISO_8,1,1,48,65,1800108216
106,16,7,Jits_ISO_8,2,5,80,127,1800122708
106,16,7,Jits_ISO_8,3,5,63,98,1800212924
106,16,7,Jits_ISO_8,0,5,56,103,1800903096
106,16,7,Jits_ISO_8,1,1,48,65,1800961244
106,16,7,Jits_ISO_8,2,5,80,127,1801012584
106,16,7,Jits_ISO_8,3,5,63,98,1801043304
106,16,7,Jits_ISO_8,0,5,56,103,1801753344
106,16,7,Jits_ISO_8,1,5,63,98,1801813440
106,16,7,Jits_ISO_8,2,1,48,63,1801820764
106,16,7,Jits_ISO_8,3,5,80,127,1801843036
106,16,7,Jits_ISO_8,0,5,56,103,1802523108
106,16,7,Jits_ISO_8,1,5,63,98,1802592568
106,16,7,Jits_ISO_8,2,5,80,127,1802613252
106,16,7,Jits_ISO_8,3,1,48,61,1802658844
106,16,7,Jits_ISO_8,0,5,80,127,1803293016
106,16,7,Jits_ISO_8,1,5,63,98,1803312428
106,16,7,Jits_ISO_8,2,5,56,103,1803362628
106,16,7,Jits_ISO_8,3,1,48,59,1803403880
106,16,7,Jits_ISO_8,0,9999,9999,9999,1708560476
106,16,7,Jits_ISO_8,1,9999,9999,9999,1709360248
106,16,7,Jits_ISO_8,2,9999,9999,9999,1710161012
106,16,7,Jits_ISO_8,3,9999,9999,9999,1710960728
106,16,7,Jits_ISO_8,4,9999,9999,9999,1711760492
106,16,7,Jits_ISO_8,5,9999,9999,9999,1712560204
106,16,7,Jits_ISO_8,6,9999,9999,9999,1713360956
106,16,7,Jits_ISO_8,7,9999,9999,9999,1714160704
106,16,7,Jits_ISO_8,8,9999,9999,9999,1714960508
106,16,7,Jits_ISO_8,9,9999,9999,9999,1715760204
106,16,7,Jits_ISO_8,10,9999,9999,9999,1716560980
106,16,7,Jits_ISO_8,11,9999,9999,9999,1717360764
106,16,7,Jits_ISO_8,12,9999,9999,9999,1718160492
106,16,7,Jits_ISO_8,13,9999,9999,9999,1718960212
106,16,7,Jits_ISO_8,14,9999,9999,9999,1719760980
106,16,7,Jits_ISO_8,15,9999,9999,9999,1720560696
106,16,7,Jits_ISO_8,16,9999,9999,9999,1721360460
106,16,7,Jits_ISO_8,17,9999,9999,9999,1722160188
106,16,7,Jits_ISO_8,18,9999,9999,9999,1722960948
106,16,7,Jits_ISO_8,19,9999,9999,9999,1723760720
106,16,7,Jits_ISO_8,20,9999,9999,9999,1724560500
106,16,7,Jits_ISO_8,21,9999,9999,9999,1725360208
106,16,7,Jits_ISO_8,22,9999,9999,9999,1726160996
106,16,7,Jits_ISO_8,23,9999,9999,9999,1726960708
106,16,7,Jits_ISO_8,24,9999,9999,9999,1727760488
106,16,7,Jits_ISO_8,25,9999,9999,9999,1728560196
106,16,7,Jits_ISO_8,26,9999,9999,9999,1729360952
106,16,7,Jits_ISO_8,27,9999,9999,9999,1730160732
106,16,7,Jits_ISO_8,28,9999,9999,9999,1730960456
106,16,7,Jits_ISO_8,29,9999,9999,9999,1731760188
106,16,7,Jits_ISO_8,30,9999,9999,9999,1732560964
106,16,7,Jits_ISO_8,31,9999,9999,9999,1733360748
106,16,7,Jits_ISO_8,32,9999,9999,9999,1734160468
106,16,7,Jits_ISO_8,33,9999,9999,9999,1734960188
106,16,7,Jits_ISO_8,34,9999,9999,9999,1735760956
106,16,7,Jits_ISO_8,35,9999,9999,9999,1736560748
106,16,7,Jits_ISO_8,36,9999,9999,9999,1737360464
106,16,7,Jits_ISO_8,37,9999,9999,9999,1738160188
106,16,7,Jits_ISO_8,38,9999,9999,9999,1738960976
106,16,7,Jits_ISO_8,39,9999,9999,9999,1739760704
106,16,7,Jits_ISO_8,40,9999,9999,9999,1740560508
106,16,7,Jits_ISO_8,41,9999,9999,9999,1741360232
106,16,7,Jits_ISO_8,42,9999,9999,9999,1742160980
106,16,7,Jits_ISO_8,43,9999,9999,9999,1742960692
106,16,7,Jits_ISO_8,44,9999,9999,9999,1743760460
106,16,7,Jits_ISO_8,45,9999,9999,9999,1744560244
106,16,7,Jits_ISO_8,46,9999,9999,9999,1745360960
106,16,7,Jits_ISO_8,47,9999,9999,9999,1746160748
106,16,7,Jits_ISO_8,48,9999,9999,9999,1746960472
106,16,7,Jits_ISO_8,49,9999,9999,9999,1747760192
106,16,7,Jits_ISO_8,50,9999,9999,9999,1748561016
106,16,7,Jits_ISO_8,51,9999,9999,9999,1749360740
106,16,7,Jits_ISO_8,52,9999,9999,9999,1750160464
106,16,7,Jits_ISO_8,53,9999,9999,9999,1750960180
106,16,7,Jits_ISO_8,54,9999,9999,9999,1751760956
106,16,7,Jits_ISO_8,55,9999,9999,9999,1752560756
106,16,7,Jits_ISO_8,56,9999,9999,9999,1753360464
106,16,7,Jits_ISO_8,57,9999,9999,9999,1754160188
106,16,7,Jits_ISO_8,58,9999,9999,9999,1754960960
106,16,7,Jits_ISO_8,59,9999,9999,9999,1755760720
106,16,7,Jits_ISO_8,60,9999,9999,9999,1756560440
106,16,7,Jits_ISO_8,61,9999,9999,9999,1757360244
106,16,7,Jits_ISO_8,62,9999,9999,9999,1758160964
106,16,7,Jits_ISO_8,63,9999,9999,9999,1758960740
106,16,7,Jits_ISO_8,64,9999,9999,9999,1759760472
106,16,7,Jits_ISO_8,65,9999,9999,9999,1760560188
106,16,7,Jits_ISO_8,66,9999,9999,9999,1761360964
106,16,7,Jits_ISO_8,67,9999,9999,9999,1762160748
106,16,7,Jits_ISO_8,68,9999,9999,9999,1762960460
106,16,7,Jits_ISO_8,69,9999,9999,9999,1763760184
106,16,7,Jits_ISO_8,70,9999,9999,9999,1764560972
106,16,7,Jits_ISO_8,71,9999,9999,9999,1765360692
106,16,7,Jits_ISO_8,72,9999,9999,9999,1766160476
106,16,7,Jits_ISO_8,73,9999,9999,9999,1766960200
106,16,7,Jits_ISO_8,74,9999,9999,9999,1767760976
106,16,7,Jits_ISO_8,75,9999,9999,9999,1768560764
106,16,7,Jits_ISO_8,76,9999,9999,9999,1769360484
106,16,7,Jits_ISO_8,77,9999,9999,9999,1770160208
106,16,7,Jits_ISO_8,78,9999,9999,9999,1770960996
106,16,7,Jits_ISO_8,79,9999,9999,9999,1771760720
106,16,7,Jits_ISO_8,80,9999,9999,9999,1772560504
106,16,7,Jits_ISO_8,81,9999,9999,9999,1773360212
106,16,7,Jits_ISO_8,82,9999,9999,9999,1774160964
106,16,7,Jits_ISO_8,83,9999,9999,9999,1774960744
106,16,7,Jits_ISO_8,84,9999,9999,9999,1775760460
106,16,7,Jits_ISO_8,85,9999,9999,9999,1776560188
106,16,7,Jits_ISO_8,86,9999,9999,9999,1777360984
106,16,7,Jits_ISO_8,87,9999,9999,9999,1778160760
106,16,7,Jits_ISO_8,88,9999,9999,9999,1778960468
106,16,7,Jits_ISO_8,89,9999,9999,9999,1779760188
106,16,7,Jits_ISO_8,90,9999,9999,9999,1780560952
106,16,7,Jits_ISO_8,91,9999,9999,9999,1781360736
106,16,7,Jits_ISO_8,92,9999,9999,9999,1782160460
106,16,7,Jits_ISO_8,93,9999,9999,9999,1782960244
106,16,7,Jits_ISO_8,94,9999,9999,9999,1783760948
106,16,7,Jits_ISO_8,95,9999,9999,9999,1784560744
106,16,7,Jits_ISO_8,96,9999,9999,9999,1785360464
106,16,7,Jits_ISO_8,97,9999,9999,9999,1786160244
106,16,7,Jits_ISO_8,98,9999,9999,9999,1786960948
106,16,7,Jits_ISO_8,99,9999,9999,9999,1787760736
106,16,7,Jits_ISO_8,100,9999,9999,9999,1788560452
106,16,7,Jits_ISO_8,101,9999,9999,9999,1789360236
106,16,7,Jits_ISO_8,102,9999,9999,9999,1790160956
106,16,7,Jits_ISO_8,103,9999,9999,9999,1790960736
106,16,7,Jits_ISO_8,104,9999,9999,9999,1791760448
106,16,7,Jits_ISO_8,105,9999,9999,9999,1792560240
106,16,7,Jits_ISO_8,106,9999,9999,9999,1793360984
106,16,7,Jits_ISO_8,107,9999,9999,9999,1794160748
106,16,7,Jits_ISO_8,108,9999,9999,9999,1794960460
106,16,7,Jits_ISO_8,109,9999,9999,9999,1795760236
106,16,7,Jits_ISO_8,110,9999,9999,9999,1796560956
106,16,7,Jits_ISO_8,111,9999,9999,9999,1797360740
106,16,7,Jits_ISO_8,112,9999,9999,9999,1798160460
106,16,7,Jits_ISO_8,113,9999,9999,9999,1798960184
106,16,7,Jits_ISO_8,114,9999,9999,9999,1799760952
106,16,7,Jits_ISO_8,115,9999,9999,9999,1800560732
106,16,7,Jits_ISO_8,116,9999,9999,9999,1801360460
106,16,7,Jits_ISO_8,117,9999,9999,9999,1802160192
106,16,7,Jits_ISO_8,118,9999,9999,9999,1802960992
106,16,7,Jits_ISO_8,119,9999,9999,9999,1803760708
106,17,17,Jits_Phase_5,0,5,56,103,1813277092
106,17,17,Jits_Phase_5,1,5,63,98,1813280112
106,17,17,Jits_Phase_5,2,5,80,127,1813283160
106,17,17,Jits_Phase_5,0,5,56,103,1813776728
106,17,17,Jits_Phase_5,1,5,63,98,1813779896
106,17,17,Jits_Phase_5,2,5,80,127,1813782948
106,17,17,Jits_Phase_5,0,5,56,103,1814276452
106,17,17,Jits_Phase_5,1,5,80,127,1814286872
106,17,17,Jits_Phase_5,2,5,63,98,1814307180
106,17,17,Jits_Phase_5,0,5,63,98,1814726932
106,17,17,Jits_Phase_5,1,5,80,127,1814756856
106,17,17,Jits_Phase_5,2,5,56,103,1814767052
106,17,17,Jits_Phase_5,0,5,80,127,1815287128
106,17,17,Jits_Phase_5,1,5,56,103,1815297324
106,17,17,Jits_Phase_5,2,5,63,98,1815326996
106,17,17,Jits_Phase_5,0,5,63,98,1815776744
106,17,17,Jits_Phase_5,1,5,56,103,1815807464
106,17,17,Jits_Phase_5,2,5,80,127,1815816760
106,17,17,Jits_Phase_5,0,5,56,103,1816227284
106,17,17,Jits_Phase_5,1,5,63,98,1816277288
106,17,17,Jits_Phase_5,2,5,80,127,1816296996
106,17,17,Jits_Phase_5,0,5,80,127,1816726936
106,17,17,Jits_Phase_5,1,5,63,98,1816777064
106,17,17,Jits_Phase_5,2,5,56,103,1816816952
106,17,17,Jits_Phase_5,0,5,56,103,1817226588
106,17,17,Jits_Phase_5,1,5,63,98,1817257236
106,17,17,Jits_Phase_5,2,1,48,52,1817281708
106,17,17,Jits_Phase_5,3,5,80,127,1817326932
106,17,17,Jits_Phase_5,0,5,56,103,1817727328
106,17,17,Jits_Phase_5,1,1,48,55,1817769624
106,17,17,Jits_Phase_5,2,5,80,127,1817786736
106,17,17,Jits_Phase_5,3,5,63,98,1817816508
106,17,17,Jits_Phase_5,0,5,56,103,1818237428
106,17,17,Jits_Phase_5,1,5,63,98,1818246724
106,17,17,Jits_Phase_5,2,5,80,127,1818286440
106,17,17,Jits_Phase_5,3,1,48,61,1818301164
106,17,17,Jits_Phase_5,0,5,63,98,1818726852
106,17,17,Jits_Phase_5,1,1,48,63,1818792300
106,17,17,Jits_Phase_5,2,5,80,127,1818806864
106,17,17,Jits_Phase_5,3,5,56,103,1818816984
106,17,17,Jits_Phase_5,0,5,63,98,1819276872
106,17,17,Jits_Phase_5,1,1,48,66,1819282232
106,17,17,Jits_Phase_5,2,5,56,103,1819316956
106,17,17,Jits_Phase_5,3,5,80,127,1819319940
106,17,17,Jits_Phase_5,0,5,56,103,1819736384
106,17,17,Jits_Phase_5,1,5,63,98,1819747028
106,17,17,Jits_Phase_5,2,5,80,127,1819786812
106,17,17,Jits_Phase_5,3,1,48,65,1819793148
106,17,17,Jits_Phase_5,0,5,56,103,1820226928
106,17,17,Jits_Phase_5,1,5,63,98,1820229916
106,17,17,Jits_Phase_5,2,5,80,127,1820247312
106,17,17,Jits_Phase_5,3,1,48,63,1820279048
106,17,17,Jits_Phase_5,0,5,80,127,1820736868
106,17,17,Jits_Phase_5,1,5,56,103,1820747064
106,17,17,Jits_Phase_5,2,1,48,65,1820777532
106,17,17,Jits_Phase_5,3,5,63,98,1820816956
106,17,17,Jits_Phase_5,0,5,63,98,1821227336
106,17,17,Jits_Phase_5,1,5,56,103,1821246972
106,17,17,Jits_Phase_5,2,1,48,67,1821286056
106,17,17,Jits_Phase_5,3,5,80,127,1821326980
106,17,17,Jits_Phase_5,0,5,56,103,1821737280
106,17,17,Jits_Phase_5,1,5,80,127,1821777216
106,17,17,Jits_Phase_5,2,1,48,68,1821779080
106,17,17,Jits_Phase_5,3,5,63,98,1821786360
106,17,17,Jits_Phase_5,0,5,80,127,1822226852
106,17,17,Jits_Phase_5,1,1,48,57,1822256824
106,17,17,Jits_Phase_5,2,5,63,98,1822258088
106,17,17,Jits_Phase_5,3,5,56,103,1822296308
106,17,17,Jits_Phase_5,0,5,56,103,1822747068
106,17,17,Jits_Phase_5,1,1,48,59,1822760820
106,17,17,Jits_Phase_5,2,5,63,98,1822776812
106,17,17,Jits_Phase_5,3,5,80,127,1822827008
106,17,17,Jits_Phase_5,0,5,80,127,1823246908
106,17,17,Jits_Phase_5,1,1,48,64,1823260140
106,17,17,Jits_Phase_5,2,5,56,103,1823286764
106,17,17,Jits_Phase_5,3,5,63,98,1823296884
106,17,17,Jits_Phase_5,0,5,80,127,1823726892
106,17,17,Jits_Phase_5,1,5,63,98,1823766980
106,17,17,Jits_Phase_5,2,1,48,69,1823777820
106,17,17,Jits_Phase_5,3,5,56,103,1823827284
106,17,17,Jits_Phase_5,0,5,56,103,1824226660
106,17,17,Jits_Phase_5,1,5,80,127,1824236780
106,17,17,Jits_Phase_5,2,1,48,56,1824294428
106,17,17,Jits_Phase_5,3,5,63,98,1824316936
106,17,17,Jits_Phase_5,0,5,80,127,1824727392
106,17,17,Jits_Phase_5,1,5,63,98,1824786660
106,17,17,Jits_Phase_5,2,1,48,54,1824790752
106,17,17,Jits_Phase_5,3,5,56,103,1824816700
106,17,17,Jits_Phase_5,0,5,56,103,1825227056
106,17,17,Jits_Phase_5,1,5,80,127,1825286644
106,17,17,Jits_Phase_5,2,1,48,62,1825290292
106,17,17,Jits_Phase_5,3,5,63,98,1825326428
106,17,17,Jits_Phase_5,0,5,56,103,1825776892
106,17,17,Jits_Phase_5,1,5,63,98,1825787688
106,17,17,Jits_Phase_5,2,5,80,127,1825790896
106,17,17,Jits_Phase_5,3,1,48,56,1825815984
106,17,17,Jits_Phase_5,0,5,80,127,1826226652
106,17,17,Jits_Phase_5,1,1,48,52,1826289956
106,17,17,Jits_Phase_5,2,5,63,98,1826316876
106,17,17,Jits_Phase_5,3,5,56,103,1826326848
106,17,17,Jits_Phase_5,0,5,56,103,1826727220
106,17,17,Jits_Phase_5,1,5,63,98,1826730476
106,17,17,Jits_Phase_5,2,5,80,127,1826733744
106,17,17,Jits_Phase_5,3,1,48,61,1826801616
106,17,17,Jits_Phase_5,0,5,80,127,1827246464
106,17,17,Jits_Phase_5,1,1,48,63,1827289312
106,17,17,Jits_Phase_5,2,5,63,98,1827296756
106,17,17,Jits_Phase_5,3,5,56,103,1827327252
106,17,17,Jits_Phase_5,0,5,56,103,1827726740
106,17,17,Jits_Phase_5,1,5,80,127,1827736936
106,17,17,Jits_Phase_5,2,1,48,62,1827806184
106,17,17,Jits_Phase_5,3,5,63,98,1827807600
106,17,17,Jits_Phase_5,0,5,56,103,1828236840
106,17,17,Jits_Phase_5,1,5,63,98,1828257000
106,17,17,Jits_Phase_5,2,1,48,66,1828302688
106,17,17,Jits_Phase_5,3,5,80,127,1828316804
106,17,17,Jits_Phase_5,0,5,80,127,1828716904
106,17,17,Jits_Phase_5,1,1,48,70,1828776968
106,17,17,Jits_Phase_5,2,5,63,98,1828786652
106,17,17,Jits_Phase_5,3,5,56,103,1828806884
106,17,17,Jits_Phase_5,0,5,80,127,1829237044
106,17,17,Jits_Phase_5,1,5,56,103,1829247316
106,17,17,Jits_Phase_5,2,5,63,98,1829256836
106,17,17,Jits_Phase_5,3,1,48,69,1829271716
106,17,17,Jits_Phase_5,0,5,80,127,1829726692
106,17,17,Jits_Phase_5,1,5,56,103,1829746928
106,17,17,Jits_Phase_5,2,1,48,67,1829781736
106,17,17,Jits_Phase_5,3,5,63,98,1829816748
106,17,17,Jits_Phase_5,0,5,56,103,1830236648
106,17,17,Jits_Phase_5,1,5,80,127,1830267296
106,17,17,Jits_Phase_5,2,5,63,98,1830286636
106,17,17,Jits_Phase_5,3,1,48,67,1830310276
106,17,17,Jits_Phase_5,0,5,63,98,1830726900
106,17,17,Jits_Phase_5,1,5,56,103,1830786540
106,17,17,Jits_Phase_5,2,1,48,67,1830805552
106,17,17,Jits_Phase_5,3,5,80,127,1830817104
106,17,17,Jits_Phase_5,0,5,63,98,1831216684
106,17,17,Jits_Phase_5,1,5,80,127,1831219972
106,17,17,Jits_Phase_5,2,1,48,61,1831298612
106,17,17,Jits_Phase_5,3,5,56,103,1831306732
106,17,17,Jits_Phase_5,0,5,56,103,1831736656
106,17,17,Jits_Phase_5,1,5,63,98,1831767300
106,17,17,Jits_Phase_5,2,1,48,59,1831778136
106,17,17,Jits_Phase_5,3,5,80,127,1831807528
106,17,17,Jits_Phase_5,0,5,63,98,1832237392
106,17,17,Jits_Phase_5,1,1,48,63,1832271976
106,17,17,Jits_Phase_5,2,5,56,103,1832277248
106,17,17,Jits_Phase_5,3,5,80,127,1832296880
106,17,17,Jits_Phase_5,0,5,63,98,1832747408
106,17,17,Jits_Phase_5,1,1,48,62,1832762132
106,17,17,Jits_Phase_5,2,5,56,103,1832787188
106,17,17,Jits_Phase_5,3,5,80,127,1832796636
106,17,17,Jits_Phase_5,0,5,80,127,1833226704
106,17,17,Jits_Phase_5,1,1,48,67,1833272448
106,17,17,Jits_Phase_5,2,5,63,98,1833297200
106,17,17,Jits_Phase_5,3,5,56,103,1833316688
106,17,17,Jits_Phase_5,0,5,56,103,1833727296
106,17,17,Jits_Phase_5,1,5,80,127,1833746928
106,17,17,Jits_Phase_5,2,5,63,98,1833786864
106,17,17,Jits_Phase_5,3,1,48,67,1833790884
106,17,17,Jits_Phase_5,0,5,63,98,1834237392
106,17,17,Jits_Phase_5,1,5,80,127,1834256880
106,17,17,Jits_Phase_5,2,1,48,60,1834275216
106,17,17,Jits_Phase_5,3,5,56,103,1834296660
106,17,17,Jits_Phase_5,0,5,63,98,1834737144
106,17,17,Jits_Phase_5,1,5,56,103,1834756556
106,17,17,Jits_Phase_5,2,5,80,127,1834766900
106,17,17,Jits_Phase_5,3,1,48,59,1834771440
106,17,17,Jits_Phase_5,0,5,80,127,1835236672
106,17,17,Jits_Phase_5,1,1,48,67,1835240912
106,17,17,Jits_Phase_5,2,5,56,103,1835257420
106,17,17,Jits_Phase_5,3,5,63,98,1835286872
106,17,17,Jits_Phase_5,0,1,48,62,1835736104
106,17,17,Jits_Phase_5,1,5,56,103,1835806988
106,17,17,Jits_Phase_5,2,5,80,127,1835810212
106,17,17,Jits_Phase_5,3,5,63,98,1835826704
106,17,17,Jits_Phase_5,0,5,63,98,1836227008
106,17,17,Jits_Phase_5,1,5,56,103,1836256712
106,17,17,Jits_Phase_5,2,1,48,64,1836260952
106,17,17,Jits_Phase_5,3,5,80,127,1836317016
106,17,17,Jits_Phase_5,0,1,48,65,1836768560
106,17,17,Jits_Phase_5,1,5,63,98,1836806648
106,17,17,Jits_Phase_5,2,5,56,103,1836816620
106,17,17,Jits_Phase_5,3,5,80,127,1836827112
106,17,17,Jits_Phase_5,0,5,56,103,1837267224
106,17,17,Jits_Phase_5,1,1,48,67,1837277164
106,17,17,Jits_Phase_5,2,5,80,127,1837296892
106,17,17,Jits_Phase_5,3,5,63,98,1837307236
106,17,17,Jits_Phase_5,0,1,48,62,1837782980
106,17,17,Jits_Phase_5,1,5,63,98,1837806916
106,17,17,Jits_Phase_5,2,5,56,103,1837817112
106,17,17,Jits_Phase_5,3,5,80,127,1837836820
106,17,17,Jits_Phase_5,0,5,56,103,1838236976
106,17,17,Jits_Phase_5,1,1,48,71,1838289488
106,17,17,Jits_Phase_5,2,5,63,98,1838296560
106,17,17,Jits_Phase_5,3,5,80,127,1838299924
106,17,17,Jits_Phase_5,0,5,80,127,1838757252
106,17,17,Jits_Phase_5,1,5,56,103,1838766400
106,17,17,Jits_Phase_5,2,1,48,62,1838812616
106,17,17,Jits_Phase_5,3,5,63,98,1838836992
106,17,17,Jits_Phase_5,0,5,80,127,1839246752
106,17,17,Jits_Phase_5,1,5,56,103,1839317580
106,17,17,Jits_Phase_5,2,1,48,58,1839321672
106,17,17,Jits_Phase_5,3,5,63,98,1839326720
106,17,17,Jits_Phase_5,0,5,63,98,1839787496
106,17,17,Jits_Phase_5,1,5,56,103,1839796724
106,17,17,Jits_Phase_5,2,5,80,127,1839816956
106,17,17,Jits_Phase_5,3,1,48,69,1839817924
106,17,17,Jits_Phase_5,0,5,80,127,1840236832
106,17,17,Jits_Phase_5,1,5,63,98,1840297520
106,17,17,Jits_Phase_5,2,1,48,63,1840302660
106,17,17,Jits_Phase_5,3,5,56,103,1840337176
106,17,17,Jits_Phase_5,0,5,56,103,1840776680
106,17,17,Jits_Phase_5,1,5,63,98,1840786800
106,17,17,Jits_Phase_5,2,1,48,68,1840793660
106,17,17,Jits_Phase_5,3,5,80,127,1840826804
106,17,17,Jits_Phase_5,0,5,56,103,1841237556
106,17,17,Jits_Phase_5,1,5,80,127,1841267008
106,17,17,Jits_Phase_5,2,1,48,61,1841283160
106,17,17,Jits_Phase_5,3,5,63,98,1841317348
106,17,17,Jits_Phase_5,0,5,56,103,1841776956
106,17,17,Jits_Phase_5,1,1,48,61,1841783816
106,17,17,Jits_Phase_5,2,5,63,98,1841816960
106,17,17,Jits_Phase_5,3,5,80,127,1841820248
106,17,17,Jits_Phase_5,0,1,48,63,1842271580
106,17,17,Jits_Phase_5,1,5,56,103,1842276780
106,17,17,Jits_Phase_5,2,5,63,98,1842287052
106,17,17,Jits_Phase_5,3,5,80,127,1842306536
106,17,17,Jits_Phase_5,0,5,56,103,1842736604
106,17,17,Jits_Phase_5,1,5,80,127,1842739744
106,17,17,Jits_Phase_5,2,1,48,66,1842758904
106,17,17,Jits_Phase_5,3,5,63,98,1842776608
106,17,17,Jits_Phase_5,0,1,48,64,1843249808
106,17,17,Jits_Phase_5,1,5,63,98,1843277184
106,17,17,Jits_Phase_5,2,5,56,103,1843306932
106,17,17,Jits_Phase_5,3,5,80,127,1843327388
106,17,17,Jits_Phase_5,0,5,80,127,1843747120
106,17,17,Jits_Phase_5,1,5,56,103,1843757688
106,17,17,Jits_Phase_5,2,5,63,98,1843766764
106,17,17,Jits_Phase_5,3,1,48,59,1843782240
106,17,17,Jits_Phase_5,0,5,56,103,1844246880
106,17,17,Jits_Phase_5,1,5,80,127,1844286744
106,17,17,Jits_Phase_5,2,1,48,63,1844295560
106,17,17,Jits_Phase_5,3,5,63,98,1844316632
106,17,17,Jits_Phase_5,0,5,63,98,1844756832
106,17,17,Jits_Phase_5,1,5,80,127,1844767028
106,17,17,Jits_Phase_5,2,5,56,103,1844777296
106,17,17,Jits_Phase_5,3,1,48,52,1844808356
106,17,17,Jits_Phase_5,0,5,56,103,1845256576
106,17,17,Jits_Phase_5,1,1,48,63,1845291532
106,17,17,Jits_Phase_5,2,5,63,98,1845327148
106,17,17,Jits_Phase_5,3,5,80,127,1845336448
106,17,17,Jits_Phase_5,0,5,80,127,1845766456
106,17,17,Jits_Phase_5,1,5,56,103,1845776872
106,17,17,Jits_Phase_5,2,5,63,98,1845827072
106,17,17,Jits_Phase_5,3,1,48,63,1845838212
106,17,17,Jits_Phase_5,0,5,80,127,1846276548
106,17,17,Jits_Phase_5,1,5,56,103,1846336792
106,17,17,Jits_Phase_5,2,1,48,53,1846365332
106,17,17,Jits_Phase_5,3,5,63,98,1846366680
106,17,17,Jits_Phase_5,0,5,56,103,1846777136
106,17,17,Jits_Phase_5,1,5,80,127,1846780052
106,17,17,Jits_Phase_5,2,5,63,98,1846817072
106,17,17,Jits_Phase_5,3,1,48,58,1846872400
106,17,17,Jits_Phase_5,0,5,56,103,1847306708
106,17,17,Jits_Phase_5,1,5,63,98,1847337428
106,17,17,Jits_Phase_5,2,1,48,69,1847345296
106,17,17,Jits_Phase_5,3,5,80,127,1847346792
106,17,17,Jits_Phase_5,0,5,63,98,1847816656
106,17,17,Jits_Phase_5,1,5,80,127,1847826704
106,17,17,Jits_Phase_5,2,5,56,103,1847836900
106,17,17,Jits_Phase_5,3,1,48,63,1847848488
106,17,17,Jits_Phase_5,0,5,80,127,1848267164
106,17,17,Jits_Phase_5,1,5,56,103,1848317584
106,17,17,Jits_Phase_5,2,5,63,98,1848320428
106,17,17,Jits_Phase_5,3,1,48,62,1848365584
106,17,17,Jits_Phase_5,0,5,56,103,1848796660
106,17,17,Jits_Phase_5,1,5,80,127,1848817116
106,17,17,Jits_Phase_5,2,1,48,64,1848824424
106,17,17,Jits_Phase_5,3,5,63,98,1848827232
106,17,17,Jits_Phase_5,0,5,63,98,1849276692
106,17,17,Jits_Phase_5,1,1,48,64,1849303060
106,17,17,Jits_Phase_5,2,5,56,103,1849306756
106,17,17,Jits_Phase_5,3,5,80,127,1849326992
106,17,17,Jits_Phase_5,0,5,56,103,1849786704
106,17,17,Jits_Phase_5,1,5,80,127,1849796900
106,17,17,Jits_Phase_5,2,1,48,62,1849808512
106,17,17,Jits_Phase_5,3,5,63,98,1849866596
106,17,17,Jits_Phase_5,0,5,63,98,1850277100
106,17,17,Jits_Phase_5,1,5,80,127,1850317436
106,17,17,Jits_Phase_5,2,1,48,62,1850335172
106,17,17,Jits_Phase_5,3,5,56,103,1850356996
106,17,17,Jits_Phase_5,0,5,56,103,1850787260
106,17,17,Jits_Phase_5,1,5,63,98,1850797380
106,17,17,Jits_Phase_5,2,5,80,127,1850816940
106,17,17,Jits_Phase_5,3,1,48,62,1850837616
106,17,17,Jits_Phase_5,0,5,63,98,1851326952
106,17,17,Jits_Phase_5,1,1,48,65,1851329848
106,17,17,Jits_Phase_5,2,5,80,127,1851347428
106,17,17,Jits_Phase_5,3,5,56,103,1851366764
106,17,17,Jits_Phase_5,0,5,56,103,1851767072
106,17,17,Jits_Phase_5,1,5,80,127,1851847012
106,17,17,Jits_Phase_5,2,1,48,64,1851850504
106,17,17,Jits_Phase_5,3,5,63,98,1851857448
106,17,17,Jits_Phase_5,0,5,80,127,1852306768
106,17,17,Jits_Phase_5,1,5,63,98,1852317184
106,17,17,Jits_Phase_5,2,5,56,103,1852346712
106,17,17,Jits_Phase_5,3,1,48,68,1852350504
106,17,17,Jits_Phase_5,0,5,63,98,1852766528
106,17,17,Jits_Phase_5,1,5,80,127,1852806760
106,17,17,Jits_Phase_5,2,1,48,63,1852839544
106,17,17,Jits_Phase_5,3,5,56,103,1852866916
106,17,17,Jits_Phase_5,0,5,63,98,1853276392
106,17,17,Jits_Phase_5,1,5,56,103,1853326740
106,17,17,Jits_Phase_5,2,1,48,68,1853349040
106,17,17,Jits_Phase_5,3,5,80,127,1853357600
106,17,17,Jits_Phase_5,0,5,80,127,1853777560
106,17,17,Jits_Phase_5,1,5,63,98,1853786560
106,17,17,Jits_Phase_5,2,1,48,56,1853856912
106,17,17,Jits_Phase_5,3,5,56,103,1853858400
106,17,17,Jits_Phase_5,0,1,48,63,1854328020
106,17,17,Jits_Phase_5,1,5,80,127,1854337632
106,17,17,Jits_Phase_5,2,5,56,103,1854346556
106,17,17,Jits_Phase_5,3,5,63,98,1854349696
106,17,17,Jits_Phase_5,0,5,56,103,1854776628
106,17,17,Jits_Phase_5,1,5,80,127,1854797460
106,17,17,Jits_Phase_5,2,5,63,98,1854807356
106,17,17,Jits_Phase_5,3,1,48,69,1854837744
106,17,17,Jits_Phase_5,0,5,63,98,1855286580
106,17,17,Jits_Phase_5,1,1,48,64,1855306936
106,17,17,Jits_Phase_5,2,5,56,103,1855326512
106,17,17,Jits_Phase_5,3,5,80,127,1855347192
106,17,17,Jits_Phase_5,0,5,63,98,1855787380
106,17,17,Jits_Phase_5,1,1,48,57,1855821140
106,17,17,Jits_Phase_5,2,5,56,103,1855846712
106,17,17,Jits_Phase_5,3,5,80,127,1855849704
106,17,17,Jits_Phase_5,0,5,56,103,1856247340
106,17,17,Jits_Phase_5,1,5,80,127,1856266604
106,17,17,Jits_Phase_5,2,5,63,98,1856306688
106,17,17,Jits_Phase_5,3,1,48,63,1856333696
106,17,17,Jits_Phase_5,0,5,56,103,1856776548
106,17,17,Jits_Phase_5,1,5,63,98,1856796932
106,17,17,Jits_Phase_5,2,5,80,127,1856807424
106,17,17,Jits_Phase_5,3,1,48,63,1856830772
106,17,17,Jits_Phase_5,0,5,80,127,1857246716
106,17,17,Jits_Phase_5,1,5,56,103,1857277584
106,17,17,Jits_Phase_5,2,1,48,62,1857293208
106,17,17,Jits_Phase_5,3,5,63,98,1857317364
106,17,17,Jits_Phase_5,0,5,80,127,1857756516
106,17,17,Jits_Phase_5,1,5,56,103,1857776976
106,17,17,Jits_Phase_5,2,1,48,58,1857790952
106,17,17,Jits_Phase_5,3,5,63,98,1857837800
106,17,17,Jits_Phase_5,0,5,56,103,1858266616
106,17,17,Jits_Phase_5,1,1,48,61,1858276108
106,17,17,Jits_Phase_5,2,5,80,127,1858286920
106,17,17,Jits_Phase_5,3,5,63,98,1858347456
106,17,17,Jits_Phase_5,0,5,80,127,1858746728
106,17,17,Jits_Phase_5,1,5,56,103,1858756848
106,17,17,Jits_Phase_5,2,1,48,69,1858778648
106,17,17,Jits_Phase_5,3,5,63,98,1858796876
106,17,17,Jits_Phase_5,0,5,63,98,1859246560
106,17,17,Jits_Phase_5,1,1,48,64,1859285288
106,17,17,Jits_Phase_5,2,5,56,103,1859287332
106,17,17,Jits_Phase_5,3,5,80,127,1859290556
106,17,17,Jits_Phase_5,0,5,63,98,1859766676
106,17,17,Jits_Phase_5,1,1,48,69,1859785836
106,17,17,Jits_Phase_5,2,5,80,127,1859806560
106,17,17,Jits_Phase_5,3,5,56,103,1859837500
106,17,17,Jits_Phase_5,0,5,56,103,1860257136
106,17,17,Jits_Phase_5,1,5,63,98,1860267556
106,17,17,Jits_Phase_5,2,1,48,65,1860295264
106,17,17,Jits_Phase_5,3,5,80,127,1860296924
106,17,17,Jits_Phase_5,0,5,80,127,1860746528
106,17,17,Jits_Phase_5,1,1,48,67,1860780216
106,17,17,Jits_Phase_5,2,5,63,98,1860817348
106,17,17,Jits_Phase_5,3,5,56,103,1860826572
106,17,17,Jits_Phase_5,0,5,63,98,1861247340
106,17,17,Jits_Phase_5,1,1,48,75,1861276764
106,17,17,Jits_Phase_5,2,5,56,103,1861316940
106,17,17,Jits_Phase_5,3,5,80,127,1861327308
106,17,17,Jits_Phase_5,0,5,63,98,1861726640
106,17,17,Jits_Phase_5,1,5,56,103,1861747024
106,17,17,Jits_Phase_5,2,5,80,127,1861787108
106,17,17,Jits_Phase_5,3,1,48,66,1861811428
106,17,17,Jits_Phase_5,0,5,56,103,1862206684
106,17,17,Jits_Phase_5,1,5,63,98,1862217032
106,17,17,Jits_Phase_5,2,5,80,127,1862296824
106,17,17,Jits_Phase_5,3,1,48,65,1862302480
106,17,17,Jits_Phase_5,0,5,63,98,1862697380
106,17,17,Jits_Phase_5,1,5,56,103,1862727056
106,17,17,Jits_Phase_5,2,1,48,65,1862751820
106,17,17,Jits_Phase_5,3,5,80,127,1862766912
106,17,17,Jits_Phase_5,0,5,56,103,1863196904
106,17,17,Jits_Phase_5,1,1,48,74,1863205868
106,17,17,Jits_Phase_5,2,5,63,98,1863237060
106,17,17,Jits_Phase_5,3,5,80,127,1863276996
106,17,17,Jits_Phase_5,0,5,80,127,1863696740
106,17,17,Jits_Phase_5,1,1,48,64,1863699256
106,17,17,Jits_Phase_5,2,5,56,103,1863776604
106,17,17,Jits_Phase_5,3,5,63,98,1863787024
106,17,17,Jits_Phase_5,0,1,48,64,1864222608
106,17,17,Jits_Phase_5,1,5,56,103,1864237400
106,17,17,Jits_Phase_5,2,5,63,98,1864240616
106,17,17,Jits_Phase_5,3,5,80,127,1864246700
106,17,17,Jits_Phase_5,0,1,48,69,1864726856
106,17,17,Jits_Phase_5,1,5,56,103,1864756624
106,17,17,Jits_Phase_5,2,5,63,98,1864776932
106,17,17,Jits_Phase_5,3,5,80,127,1864787500
106,17,17,Jits_Phase_5,0,5,63,98,1865217496
106,17,17,Jits_Phase_5,1,1,48,67,1865221808
106,17,17,Jits_Phase_5,2,5,80,127,1865226564
106,17,17,Jits_Phase_5,3,5,56,103,1865246944
106,17,17,Jits_Phase_5,0,1,48,70,1865708512
106,17,17,Jits_Phase_5,1,5,63,98,1865717308
106,17,17,Jits_Phase_5,2,5,56,103,1865797028
106,17,17,Jits_Phase_5,3,5,80,127,1865800316
106,17,17,Jits_Phase_5,0,5,63,98,1866216764
106,17,17,Jits_Phase_5,1,1,48,73,1866218248
106,17,17,Jits_Phase_5,2,5,56,103,1866237288
106,17,17,Jits_Phase_5,3,5,80,127,1866267036
106,17,17,Jits_Phase_5,0,5,56,103,1866716588
106,17,17,Jits_Phase_5,1,5,63,98,1866736976
106,17,17,Jits_Phase_5,2,1,48,66,1866737940
106,17,17,Jits_Phase_5,3,5,80,127,1866747312
106,17,17,Jits_Phase_5,0,1,48,74,1867222004
106,17,17,Jits_Phase_5,1,5,56,103,1867246988
106,17,17,Jits_Phase_5,2,5,63,98,1867276588
106,17,17,Jits_Phase_5,3,5,80,127,1867280176
106,17,17,Jits_Phase_5,0,5,56,103,1867696592
106,17,17,Jits_Phase_5,1,1,48,70,1867736628
106,17,17,Jits_Phase_5,2,5,63,98,1867737816
106,17,17,Jits_Phase_5,3,5,80,127,1867796784
106,17,17,Jits_Phase_5,0,5,56,103,1868216660
106,17,17,Jits_Phase_5,1,5,63,98,1868227304
106,17,17,Jits_Phase_5,2,1,48,62,1868250228
106,17,17,Jits_Phase_5,3,5,80,127,1868287408
106,17,17,Jits_Phase_5,0,5,56,103,1868717396
106,17,17,Jits_Phase_5,1,5,80,127,1868736880
106,17,17,Jits_Phase_5,2,1,48,67,1868741568
106,17,17,Jits_Phase_5,3,5,63,98,1868766572
106,17,17,Jits_Phase_5,0,5,80,127,1869217300
106,17,17,Jits_Phase_5,1,1,48,59,1869223560
106,17,17,Jits_Phase_5,2,5,56,103,1869227564
106,17,17,Jits_Phase_5,3,5,63,98,1869246828
106,17,17,Jits_Phase_5,0,5,63,98,1869706572
106,17,17,Jits_Phase_5,1,1,48,69,1869744540
106,17,17,Jits_Phase_5,2,5,80,127,1869786464
106,17,17,Jits_Phase_5,3,5,56,103,1869796804
106,17,17,Jits_Phase_5,0,1,48,66,1870265416
106,17,17,Jits_Phase_5,1,5,80,127,1870296404
106,17,17,Jits_Phase_5,2,5,56,103,1870316932
106,17,17,Jits_Phase_5,3,5,63,98,1870319852
106,17,17,Jits_Phase_5,0,1,48,69,1870788748
106,17,17,Jits_Phase_5,1,5,63,98,1870797408
106,17,17,Jits_Phase_5,2,5,80,127,1870800548
106,17,17,Jits_Phase_5,3,5,56,103,1870856604
106,17,17,Jits_Phase_5,0,5,56,103,1871277436
106,17,17,Jits_Phase_5,1,5,80,127,1871286584
106,17,17,Jits_Phase_5,2,1,48,72,1871304452
106,17,17,Jits_Phase_5,3,5,63,98,1871326536
106,17,17,Jits_Phase_5,0,5,56,103,1871756740
106,17,17,Jits_Phase_5,1,1,48,67,1871805116
106,17,17,Jits_Phase_5,2,5,63,98,1871817196
106,17,17,Jits_Phase_5,3,5,80,127,1871827268
106,17,17,Jits_Phase_5,0,5,63,98,1872266472
106,17,17,Jits_Phase_5,1,1,48,70,1872267436
106,17,17,Jits_Phase_5,2,5,80,127,1872306400
106,17,17,Jits_Phase_5,3,5,56,103,1872346436
106,17,17,Jits_Phase_5,0,5,56,103,1872776556
106,17,17,Jits_Phase_5,1,1,48,71,1872779148
106,17,17,Jits_Phase_5,2,5,63,98,1872856288
106,17,17,Jits_Phase_5,3,5,80,127,1872859508
106,17,17,Jits_Phase_5,0,1,48,74,1873315168
106,17,17,Jits_Phase_5,1,5,80,127,1873336764
106,17,17,Jits_Phase_5,2,5,56,103,1873367364
106,17,17,Jits_Phase_5,3,5,63,98,1873370356
106,17,17,Jits_Phase_5,0,5,56,103,1873796440
106,17,17,Jits_Phase_5,1,5,80,127,1873816896
106,17,17,Jits_Phase_5,2,5,63,98,1873856832
106,17,17,Jits_Phase_5,3,1,48,60,1873868144
106,17,17,Jits_Phase_5,0,5,80,127,1874276724
106,17,17,Jits_Phase_5,1,5,63,98,1874297408
106,17,17,Jits_Phase_5,2,5,56,103,1874356524
106,17,17,Jits_Phase_5,3,1,48,62,1874376728
106,17,17,Jits_Phase_5,0,5,63,98,1874786604
106,17,17,Jits_Phase_5,1,5,56,103,1874796948
106,17,17,Jits_Phase_5,2,1,48,65,1874844480
106,17,17,Jits_Phase_5,3,5,80,127,1874847140
106,17,17,Jits_Phase_5,0,5,56,103,1875277360
106,17,17,Jits_Phase_5,1,5,63,98,1875296624
106,17,17,Jits_Phase_5,2,5,80,127,1875307040
106,17,17,Jits_Phase_5,3,1,48,65,1875308008
106,17,17,Jits_Phase_5,0,5,56,103,1875766632
106,17,17,Jits_Phase_5,1,5,63,98,1875769624
106,17,17,Jits_Phase_5,2,5,80,127,1875787536
106,17,17,Jits_Phase_5,3,1,48,65,1875811028
106,17,17,Jits_Phase_5,0,1,48,66,1876294900
106,17,17,Jits_Phase_5,1,5,63,98,1876307356
106,17,17,Jits_Phase_5,2,5,56,103,1876336956
106,17,17,Jits_Phase_5,3,5,80,127,1876366632
106,17,17,Jits_Phase_5,0,5,80,127,1876767108
106,17,17,Jits_Phase_5,1,1,48,68,1876813224
106,17,17,Jits_Phase_5,2,5,56,103,1876857380
106,17,17,Jits_Phase_5,3,5,63,98,1876860444
106,17,17,Jits_Phase_5,0,5,56,103,1877267012
106,17,17,Jits_Phase_5,1,5,80,127,1877269928
106,17,17,Jits_Phase_5,2,5,63,98,1877346652
106,17,17,Jits_Phase_5,3,1,48,62,1877347844
106,17,17,Jits_Phase_5,0,5,80,127,1877766396
106,17,17,Jits_Phase_5,1,5,63,98,1877826784
106,17,17,Jits_Phase_5,2,1,48,60,1877831324
106,17,17,Jits_Phase_5,3,5,56,103,1877856600
106,17,17,Jits_Phase_5,0,5,63,98,1878267132
106,17,17,Jits_Phase_5,1,5,80,127,1878276504
106,17,17,Jits_Phase_5,2,1,48,61,1878330112
106,17,17,Jits_Phase_5,3,5,56,103,1878347220
106,17,17,Jits_Phase_5,0,1,48,63,1878818760
106,17,17,Jits_Phase_5,1,5,56,103,1878827404
106,17,17,Jits_Phase_5,2,5,80,127,1878857304
106,17,17,Jits_Phase_5,3,5,63,98,1878907280
106,17,17,Jits_Phase_5,0,1,48,73,1879317312
106,17,17,Jits_Phase_5,1,5,63,98,1879417336
106,17,17,Jits_Phase_5,2,5,56,103,1879446780
106,17,17,Jits_Phase_5,3,5,80,127,1879449852
106,17,17,Jits_Phase_5,0,1,48,69,1879849416
106,17,17,Jits_Phase_5,1,5,63,98,1879917024
106,17,17,Jits_Phase_5,2,5,80,127,1879937408
106,17,17,Jits_Phase_5,3,5,56,103,1879947664
106,17,17,Jits_Phase_5,0,1,48,67,1880379888
106,17,17,Jits_Phase_5,1,5,56,103,1880426812
106,17,17,Jits_Phase_5,2,5,63,98,1880430176
106,17,17,Jits_Phase_5,3,5,80,127,1880447196
106,17,17,Jits_Phase_5,0,5,56,103,1880877564
106,17,17,Jits_Phase_5,1,5,63,98,1880886640
106,17,17,Jits_Phase_5,2,1,48,72,1880889756
106,17,17,Jits_Phase_5,3,5,80,127,1880917500
106,17,17,Jits_Phase_5,0,1,48,71,1881357892
106,17,17,Jits_Phase_5,1,5,63,98,1881396576
106,17,17,Jits_Phase_5,2,5,80,127,1881417036
106,17,17,Jits_Phase_5,3,5,56,103,1881457032
106,17,17,Jits_Phase_5,0,1,48,68,1881868056
106,17,17,Jits_Phase_5,1,5,56,103,1881927268
106,17,17,Jits_Phase_5,2,5,63,98,1881967040
106,17,17,Jits_Phase_5,3,5,80,127,1881970180
106,17,17,Jits_Phase_5,0,5,80,127,1882367312
106,17,17,Jits_Phase_5,1,1,48,65,1882396960
106,17,17,Jits_Phase_5,2,5,56,103,1882407244
106,17,17,Jits_Phase_5,3,5,63,98,1882456396
106,17,17,Jits_Phase_5,0,1,48,63,1882924296
106,17,17,Jits_Phase_5,1,5,56,103,1882926408
106,17,17,Jits_Phase_5,2,5,80,127,1882936680
106,17,17,Jits_Phase_5,3,5,63,98,1882967324
106,17,17,Jits_Phase_5,0,5,56,103,1883377168
106,17,17,Jits_Phase_5,1,1,48,65,1883410708
106,17,17,Jits_Phase_5,2,5,80,127,1883416880
106,17,17,Jits_Phase_5,3,5,63,98,1883467152
106,17,17,Jits_Phase_5,0,5,56,103,1883876712
106,17,17,Jits_Phase_5,1,5,80,127,1883916652
106,17,17,Jits_Phase_5,2,1,48,65,1883921340
106,17,17,Jits_Phase_5,3,5,63,98,1883966844
106,17,17,Jits_Phase_5,0,5,80,127,1884367336
106,17,17,Jits_Phase_5,1,1,48,70,1884425004
106,17,17,Jits_Phase_5,2,5,63,98,1884447272
106,17,17,Jits_Phase_5,3,5,56,103,1884457320
106,17,17,Jits_Phase_5,0,5,80,127,1884917148
106,17,17,Jits_Phase_5,1,5,56,103,1884927492
106,17,17,Jits_Phase_5,2,5,63,98,1884946684
106,17,17,Jits_Phase_5,3,1,48,69,1884950776
106,17,17,Jits_Phase_5,0,5,63,98,1885387244
106,17,17,Jits_Phase_5,1,1,48,66,1885456472
106,17,17,Jits_Phase_5,2,5,56,103,1885457832
106,17,17,Jits_Phase_5,3,5,80,127,1885460660
106,17,17,Jits_Phase_5,0,5,80,127,1885876556
106,17,17,Jits_Phase_5,1,5,63,98,1885926704
106,17,17,Jits_Phase_5,2,5,56,103,1885966640
106,17,17,Jits_Phase_5,3,1,48,66,1885968508
106,17,17,Jits_Phase_5,0,5,63,98,1886417180
106,17,17,Jits_Phase_5,1,1,48,71,1886443140
106,17,17,Jits_Phase_5,2,5,56,103,1886457184
106,17,17,Jits_Phase_5,3,5,80,127,1886466408
106,17,17,Jits_Phase_5,0,5,63,98,1886906868
106,17,17,Jits_Phase_5,1,5,56,103,1886927128
106,17,17,Jits_Phase_5,2,1,48,72,1886931588
106,17,17,Jits_Phase_5,3,5,80,127,1886946604
106,17,17,Jits_Phase_5,0,5,80,127,1887366464
106,17,17,Jits_Phase_5,1,5,56,103,1887376660
106,17,17,Jits_Phase_5,2,5,63,98,1887397264
106,17,17,Jits_Phase_5,3,1,48,62,1887420684
106,17,17,Jits_Phase_5,0,5,63,98,1887897088
106,17,17,Jits_Phase_5,1,1,48,60,1887916544
106,17,17,Jits_Phase_5,2,5,56,103,1887937092
106,17,17,Jits_Phase_5,3,5,80,127,1887966568
106,17,17,Jits_Phase_5,0,5,56,103,1888356756
106,17,17,Jits_Phase_5,1,5,63,98,1888386360
106,17,17,Jits_Phase_5,2,5,80,127,1888417152
106,17,17,Jits_Phase_5,3,1,48,66,1888419524
106,17,17,Jits_Phase_5,0,5,80,127,1888776444
106,17,17,Jits_Phase_5,1,5,56,103,1888847168
106,17,17,Jits_Phase_5,2,5,63,98,1888850236
106,17,17,Jits_Phase_5,3,1,48,56,1888908044
106,17,17,Jits_Phase_5,0,5,56,103,1889286460
106,17,17,Jits_Phase_5,1,5,63,98,1889336812
106,17,17,Jits_Phase_5,2,5,80,127,1889367456
106,17,17,Jits_Phase_5,3,1,48,22,1889498324
106,17,17,Jits_Phase_5,0,5,63,98,1889766968
106,17,17,Jits_Phase_5,1,5,80,127,1889770328
106,17,17,Jits_Phase_5,2,5,56,103,1889827280
106,17,17,Jits_Phase_5,3,1,48,57,1889877148
106,17,17,Jits_Phase_5,0,5,56,103,1890297196
106,17,17,Jits_Phase_5,1,5,80,127,1890306420
106,17,17,Jits_Phase_5,2,1,48,64,1890323316
106,17,17,Jits_Phase_5,3,5,63,98,1890356612
106,17,17,Jits_Phase_5,0,5,63,98,1890767144
106,17,17,Jits_Phase_5,1,5,56,103,1890776516
106,17,17,Jits_Phase_5,2,1,48,69,1890791472
106,17,17,Jits_Phase_5,3,5,80,127,1890807156
106,17,17,Jits_Phase_5,0,1,48,67,1891267884
106,17,17,Jits_Phase_5,1,5,63,98,1891296772
106,17,17,Jits_Phase_5,2,5,80,127,1891299988
106,17,17,Jits_Phase_5,3,5,56,103,1891327268
106,17,17,Jits_Phase_5,0,1,48,68,1891774816
106,17,17,Jits_Phase_5,1,5,63,98,1891817036
106,17,17,Jits_Phase_5,2,5,56,103,1891837192
106,17,17,Jits_Phase_5,3,5,80,127,1891840336
106,17,17,Jits_Phase_5,0,5,63,98,1892276536
106,17,17,Jits_Phase_5,1,1,48,67,1892300648
106,17,17,Jits_Phase_5,2,5,56,103,1892347204
106,17,17,Jits_Phase_5,3,5,80,127,1892366616
106,17,17,Jits_Phase_5,0,5,56,103,1892767220
106,17,17,Jits_Phase_5,1,5,63,98,1892777268
106,17,17,Jits_Phase_5,2,1,48,67,1892840412
106,17,17,Jits_Phase_5,3,5,80,127,1892866512
106,17,17,Jits_Phase_5,0,5,56,103,1893287208
106,17,17,Jits_Phase_5,1,5,80,127,1893327172
106,17,17,Jits_Phase_5,2,5,63,98,1893336320
106,17,17,Jits_Phase_5,3,1,48,63,1893354732
106,17,17,Jits_Phase_5,0,5,56,103,1893806380
106,17,17,Jits_Phase_5,1,5,63,98,1893837348
106,17,17,Jits_Phase_5,2,1,48,64,1893841968
106,17,17,Jits_Phase_5,3,5,80,127,1893867016
106,17,17,Jits_Phase_5,0,5,80,127,1894267264
106,17,17,Jits_Phase_5,1,5,63,98,1894307128
106,17,17,Jits_Phase_5,2,5,56,103,1894326612
106,17,17,Jits_Phase_5,3,1,48,69,1894334368
106,17,17,Jits_Phase_5,0,5,56,103,1894807032
106,17,17,Jits_Phase_5,1,5,80,127,1894827416
106,17,17,Jits_Phase_5,2,1,48,69,1894835860
106,17,17,Jits_Phase_5,3,5,63,98,1894846968
106,17,17,Jits_Phase_5,0,5,63,98,1895277280
106,17,17,Jits_Phase_5,1,5,56,103,1895287028
106,17,17,Jits_Phase_5,2,1,48,68,1895331048
106,17,17,Jits_Phase_5,3,5,80,127,1895346512
106,17,17,Jits_Phase_5,0,5,56,103,1895776580
106,17,17,Jits_Phase_5,1,1,48,62,1895825484
106,17,17,Jits_Phase_5,2,5,63,98,1895847300
106,17,17,Jits_Phase_5,3,5,80,127,1895866860
106,17,17,Jits_Phase_5,0,5,56,103,1896277320
106,17,17,Jits_Phase_5,1,1,48,67,1896291600
106,17,17,Jits_Phase_5,2,5,63,98,1896306988
106,17,17,Jits_Phase_5,3,5,80,127,1896346924
106,17,17,Jits_Phase_5,0,5,63,98,1896767116
106,17,17,Jits_Phase_5,1,1,48,69,1896800124
106,17,17,Jits_Phase_5,2,5,56,103,1896817160
106,17,17,Jits_Phase_5,3,5,80,127,1896827208
106,17,17,Jits_Phase_5,0,5,56,103,1897306428
106,17,17,Jits_Phase_5,1,1,48,72,1897309692
106,17,17,Jits_Phase_5,2,5,63,98,1897356768
106,17,17,Jits_Phase_5,3,5,80,127,1897367040
106,17,17,Jits_Phase_5,0,5,56,103,1897776452
106,17,17,Jits_Phase_5,1,5,63,98,1897786872
106,17,17,Jits_Phase_5,2,1,48,66,1897818236
106,17,17,Jits_Phase_5,3,5,80,127,1897866728
106,17,17,Jits_Phase_5,0,9999,9999,9999,1813524596
106,17,17,Jits_Phase_5,1,9999,9999,9999,1814024308
106,17,17,Jits_Phase_5,2,9999,9999,9999,1814525008
106,17,17,Jits_Phase_5,3,9999,9999,9999,1815024732
106,17,17,Jits_Phase_5,4,9999,9999,9999,1815524448
106,17,17,Jits_Phase_5,5,9999,9999,9999,1816024180
106,17,17,Jits_Phase_5,6,9999,9999,9999,1816524864
106,17,17,Jits_Phase_5,7,9999,9999,9999,1817024568
106,17,17,Jits_Phase_5,8,9999,9999,9999,1817524348
106,17,17,Jits_Phase_5,9,9999,9999,9999,1818025080
106,17,17,Jits_Phase_5,10,9999,9999,9999,1818524768
106,17,17,Jits_Phase_5,11,9999,9999,9999,1819024460
106,17,17,Jits_Phase_5,12,9999,9999,9999,1819524204
106,17,17,Jits_Phase_5,13,9999,9999,9999,1820024920
106,17,17,Jits_Phase_5,14,9999,9999,9999,1820524672
106,17,17,Jits_Phase_5,15,9999,9999,9999,1821024360
106,17,17,Jits_Phase_5,16,9999,9999,9999,1821525096
106,17,17,Jits_Phase_5,17,9999,9999,9999,1822024772
106,17,17,Jits_Phase_5,18,9999,9999,9999,1822524532
106,17,17,Jits_Phase_5,19,9999,9999,9999,1823024224
106,17,17,Jits_Phase_5,20,9999,9999,9999,1823524960
106,17,17,Jits_Phase_5,21,9999,9999,9999,1824024652
106,17,17,Jits_Phase_5,22,9999,9999,9999,1824524412
106,17,17,Jits_Phase_5,23,9999,9999,9999,1825024104
106,17,17,Jits_Phase_5,24,9999,9999,9999,1825524840
106,17,17,Jits_Phase_5,25,9999,9999,9999,1826024520
106,17,17,Jits_Phase_5,26,9999,9999,9999,1826524288
106,17,17,Jits_Phase_5,27,9999,9999,9999,1827024996
106,17,17,Jits_Phase_5,28,9999,9999,9999,1827524664
106,17,17,Jits_Phase_5,29,9999,9999,9999,1828024420
106,17,17,Jits_Phase_5,30,9999,9999,9999,1828514896
106,17,17,Jits_Phase_5,31,9999,9999,9999,1829014584
106,17,17,Jits_Phase_5,32,9999,9999,9999,1829514348
106,17,17,Jits_Phase_5,33,9999,9999,9999,1830015084
106,17,17,Jits_Phase_5,34,9999,9999,9999,1830514776
106,17,17,Jits_Phase_5,35,9999,9999,9999,1831014468
106,17,17,Jits_Phase_5,36,9999,9999,9999,1831514208
106,17,17,Jits_Phase_5,37,9999,9999,9999,1832014932
106,17,17,Jits_Phase_5,38,9999,9999,9999,1832514620
106,17,17,Jits_Phase_5,39,9999,9999,9999,1833014372
106,17,17,Jits_Phase_5,40,9999,9999,9999,1833515100
106,17,17,Jits_Phase_5,41,9999,9999,9999,1834025048
106,17,17,Jits_Phase_5,42,9999,9999,9999,1834524736
106,17,17,Jits_Phase_5,43,9999,9999,9999,1835024484
106,17,17,Jits_Phase_5,44,9999,9999,9999,1835524160
106,17,17,Jits_Phase_5,45,9999,9999,9999,1836024892
106,17,17,Jits_Phase_5,46,9999,9999,9999,1836524644
106,17,17,Jits_Phase_5,47,9999,9999,9999,1837024328
106,17,17,Jits_Phase_5,48,9999,9999,9999,1837534268
106,17,17,Jits_Phase_5,49,9999,9999,9999,1838035008
106,17,17,Jits_Phase_5,50,9999,9999,9999,1838534724
106,17,17,Jits_Phase_5,51,9999,9999,9999,1839034480
106,17,17,Jits_Phase_5,52,9999,9999,9999,1839534172
106,17,17,Jits_Phase_5,53,9999,9999,9999,1840034912
106,17,17,Jits_Phase_5,54,9999,9999,9999,1840534588
106,17,17,Jits_Phase_5,55,9999,9999,9999,1841034356
106,17,17,Jits_Phase_5,56,9999,9999,9999,1841535088
106,17,17,Jits_Phase_5,57,9999,9999,9999,1842034772
106,17,17,Jits_Phase_5,58,9999,9999,9999,1842534464
106,17,17,Jits_Phase_5,59,9999,9999,9999,1843034200
106,17,17,Jits_Phase_5,60,9999,9999,9999,1843534940
106,17,17,Jits_Phase_5,61,9999,9999,9999,1844034684
106,17,17,Jits_Phase_5,62,9999,9999,9999,1844534372
106,17,17,Jits_Phase_5,63,9999,9999,9999,1845035104
106,17,17,Jits_Phase_5,64,9999,9999,9999,1845564524
106,17,17,Jits_Phase_5,65,9999,9999,9999,1846064208
106,17,17,Jits_Phase_5,66,9999,9999,9999,1846564944
106,17,17,Jits_Phase_5,67,9999,9999,9999,1847064692
106,17,17,Jits_Phase_5,68,9999,9999,9999,1847564384
106,17,17,Jits_Phase_5,69,9999,9999,9999,1848064072
106,17,17,Jits_Phase_5,70,9999,9999,9999,1848564832
106,17,17,Jits_Phase_5,71,9999,9999,9999,1849064524
106,17,17,Jits_Phase_5,72,9999,9999,9999,1849564284
106,17,17,Jits_Phase_5,73,9999,9999,9999,1850065004
106,17,17,Jits_Phase_5,74,9999,9999,9999,1850564672
106,17,17,Jits_Phase_5,75,9999,9999,9999,1851064412
106,17,17,Jits_Phase_5,76,9999,9999,9999,1851564104
106,17,17,Jits_Phase_5,77,9999,9999,9999,1852064828
106,17,17,Jits_Phase_5,78,9999,9999,9999,1852564592
106,17,17,Jits_Phase_5,79,9999,9999,9999,1853064284
106,17,17,Jits_Phase_5,80,9999,9999,9999,1853565004
106,17,17,Jits_Phase_5,81,9999,9999,9999,1854044232
106,17,17,Jits_Phase_5,82,9999,9999,9999,1854544968
106,17,17,Jits_Phase_5,83,9999,9999,9999,1855044716
106,17,17,Jits_Phase_5,84,9999,9999,9999,1855544408
106,17,17,Jits_Phase_5,85,9999,9999,9999,1856044152
106,17,17,Jits_Phase_5,86,9999,9999,9999,1856544872
106,17,17,Jits_Phase_5,87,9999,9999,9999,1857044560
106,17,17,Jits_Phase_5,88,9999,9999,9999,1857544244
106,17,17,Jits_Phase_5,89,9999,9999,9999,1858045056
106,17,17,Jits_Phase_5,90,9999,9999,9999,1858544744
106,17,17,Jits_Phase_5,91,9999,9999,9999,1859044428
106,17,17,Jits_Phase_5,92,9999,9999,9999,1859544184
106,17,17,Jits_Phase_5,93,9999,9999,9999,1860044904
106,17,17,Jits_Phase_5,94,9999,9999,9999,1860544600
106,17,17,Jits_Phase_5,95,9999,9999,9999,1861044284
106,17,17,Jits_Phase_5,96,9999,9999,9999,1861545024
106,17,17,Jits_Phase_5,97,9999,9999,9999,1861994580
106,17,17,Jits_Phase_5,98,9999,9999,9999,1862494328
106,17,17,Jits_Phase_5,99,9999,9999,9999,1862995060
106,17,17,Jits_Phase_5,100,9999,9999,9999,1863494736
106,17,17,Jits_Phase_5,101,9999,9999,9999,1863994424
106,17,17,Jits_Phase_5,102,9999,9999,9999,1864494176
106,17,17,Jits_Phase_5,103,9999,9999,9999,1864994900
106,17,17,Jits_Phase_5,104,9999,9999,9999,1865494648
106,17,17,Jits_Phase_5,105,9999,9999,9999,1865994316
106,17,17,Jits_Phase_5,106,9999,9999,9999,1866495040
106,17,17,Jits_Phase_5,107,9999,9999,9999,1866994788
106,17,17,Jits_Phase_5,108,9999,9999,9999,1867494476
106,17,17,Jits_Phase_5,109,9999,9999,9999,1867994224
106,17,17,Jits_Phase_5,110,9999,9999,9999,1868494960
106,17,17,Jits_Phase_5,111,9999,9999,9999,1868994624
106,17,17,Jits_Phase_5,112,9999,9999,9999,1869494380
106,17,17,Jits_Phase_5,113,9999,9999,9999,1869995120
106,17,17,Jits_Phase_5,114,9999,9999,9999,1870554224
106,17,17,Jits_Phase_5,115,9999,9999,9999,1871054936
106,17,17,Jits_Phase_5,116,9999,9999,9999,1871554660
106,17,17,Jits_Phase_5,117,9999,9999,9999,1872054344
106,17,17,Jits_Phase_5,118,9999,9999,9999,1872555084
106,17,17,Jits_Phase_5,119,9999,9999,9999,1873065016
106,17,17,Jits_Phase_5,120,9999,9999,9999,1873564776
106,17,17,Jits_Phase_5,121,9999,9999,9999,1874064452
106,17,17,Jits_Phase_5,122,9999,9999,9999,1874564216
106,17,17,Jits_Phase_5,123,9999,9999,9999,1875064952
106,17,17,Jits_Phase_5,124,9999,9999,9999,1875564624
106,17,17,Jits_Phase_5,125,9999,9999,9999,1876064376
106,17,17,Jits_Phase_5,126,9999,9999,9999,1876565116
106,17,17,Jits_Phase_5,127,9999,9999,9999,1877064784
106,17,17,Jits_Phase_5,128,9999,9999,9999,1877564536
106,17,17,Jits_Phase_5,129,9999,9999,9999,1878064224
106,17,17,Jits_Phase_5,130,9999,9999,9999,1878564960
106,17,17,Jits_Phase_5,131,9999,9999,9999,1879165020
106,17,17,Jits_Phase_5,132,9999,9999,9999,1879664764
106,17,17,Jits_Phase_5,133,9999,9999,9999,1880164444
106,17,17,Jits_Phase_5,134,9999,9999,9999,1880664188
106,17,17,Jits_Phase_5,135,9999,9999,9999,1881164904
106,17,17,Jits_Phase_5,136,9999,9999,9999,1881664600
106,17,17,Jits_Phase_5,137,9999,9999,9999,1882164348
106,17,17,Jits_Phase_5,138,9999,9999,9999,1882665068
106,17,17,Jits_Phase_5,139,9999,9999,9999,1883164764
106,17,17,Jits_Phase_5,140,9999,9999,9999,1883664440
106,17,17,Jits_Phase_5,141,9999,9999,9999,1884164208
106,17,17,Jits_Phase_5,142,9999,9999,9999,1884664948
106,17,17,Jits_Phase_5,143,9999,9999,9999,1885164636
106,17,17,Jits_Phase_5,144,9999,9999,9999,1885664324
106,17,17,Jits_Phase_5,145,9999,9999,9999,1886165048
106,17,17,Jits_Phase_5,146,9999,9999,9999,1886664792
106,17,17,Jits_Phase_5,147,9999,9999,9999,1887164544
106,17,17,Jits_Phase_5,148,9999,9999,9999,1887664212
106,17,17,Jits_Phase_5,149,9999,9999,9999,1888164952
106,17,17,Jits_Phase_5,150,9999,9999,9999,1888564320
106,17,17,Jits_Phase_5,151,9999,9999,9999,1889065052
106,17,17,Jits_Phase_5,152,9999,9999,9999,1889564756
106,17,17,Jits_Phase_5,153,9999,9999,9999,1890064488
106,17,17,Jits_Phase_5,154,9999,9999,9999,1890564164
106,17,17,Jits_Phase_5,155,9999,9999,9999,1891064896
106,17,17,Jits_Phase_5,156,9999,9999,9999,1891564632
106,17,17,Jits_Phase_5,157,9999,9999,9999,1892064376
106,17,17,Jits_Phase_5,158,9999,9999,9999,1892565100
106,17,17,Jits_Phase_5,159,9999,9999,9999,1893064776
106,17,17,Jits_Phase_5,160,9999,9999,9999,1893564516
106,17,17,Jits_Phase_5,161,9999,9999,9999,1894064204
106,17,17,Jits_Phase_5,162,9999,9999,9999,1894564944
106,17,17,Jits_Phase_5,163,9999,9999,9999,1895064636
106,17,17,Jits_Phase_5,164,9999,9999,9999,1895564400
106,17,17,Jits_Phase_5,165,9999,9999,9999,1896064076
106,17,17,Jits_Phase_5,166,9999,9999,9999,1896564812
106,17,17,Jits_Phase_5,167,9999,9999,9999,1897064576
106,17,17,Jits_Phase_5,168,9999,9999,9999,1897564256
106,17,17,Jits_Phase_5,169,9999,9999,9999,1898064988
106,18,15,Jits_Phase_8,0,5,56,103,1907736964
106,18,15,Jits_Phase_8,1,5,63,98,1907740140
106,18,15,Jits_Phase_8,2,5,80,127,1907743184
106,18,15,Jits_Phase_8,0,5,56,103,1908536904
106,18,15,Jits_Phase_8,1,5,63,98,1908540080
106,18,15,Jits_Phase_8,2,5,80,127,1908543200
106,18,15,Jits_Phase_8,0,5,80,127,1909276996
106,18,15,Jits_Phase_8,1,5,63,98,1909367204
106,18,15,Jits_Phase_8,2,5,56,103,1909377400
106,18,15,Jits_Phase_8,0,5,56,103,1910097332
106,18,15,Jits_Phase_8,1,5,63,98,1910106336
106,18,15,Jits_Phase_8,2,5,80,127,1910196760
106,18,15,Jits_Phase_8,0,1,48,62,1910867176
106,18,15,Jits_Phase_8,1,5,63,98,1910868664
106,18,15,Jits_Phase_8,2,5,80,127,1910897144
106,18,15,Jits_Phase_8,3,5,56,103,1910926968
106,18,15,Jits_Phase_8,0,1,48,60,1911655212
106,18,15,Jits_Phase_8,1,5,56,103,1911667072
106,18,15,Jits_Phase_8,2,5,80,127,1911767332
106,18,15,Jits_Phase_8,3,5,63,98,1911816488
106,18,15,Jits_Phase_8,0,5,56,103,1912466916
106,18,15,Jits_Phase_8,1,1,48,59,1912498580
106,18,15,Jits_Phase_8,2,5,80,127,1912516888
106,18,15,Jits_Phase_8,3,5,63,98,1912556776
106,18,15,Jits_Phase_8,0,5,80,127,1913297204
106,18,15,Jits_Phase_8,1,1,48,60,1913309012
106,18,15,Jits_Phase_8,2,5,63,98,1913327024
106,18,15,Jits_Phase_8,3,5,56,103,1913396552
106,18,15,Jits_Phase_8,0,5,63,98,1914126800
106,18,15,Jits_Phase_8,1,1,48,61,1914143100
106,18,15,Jits_Phase_8,2,5,56,103,1914157512
106,18,15,Jits_Phase_8,3,5,80,127,1914216708
106,18,15,Jits_Phase_8,0,5,56,103,1914867072
106,18,15,Jits_Phase_8,1,5,80,127,1914870060
106,18,15,Jits_Phase_8,2,1,48,59,1914948032
106,18,15,Jits_Phase_8,3,5,63,98,1914986860
106,18,15,Jits_Phase_8,0,1,48,64,1915692792
106,18,15,Jits_Phase_8,1,5,56,103,1915747068
106,18,15,Jits_Phase_8,2,5,80,127,1915787140
106,18,15,Jits_Phase_8,3,5,63,98,1915796816
106,18,15,Jits_Phase_8,0,5,56,103,1916506608
106,18,15,Jits_Phase_8,1,5,80,127,1916526920
106,18,15,Jits_Phase_8,2,1,48,62,1916537236
106,18,15,Jits_Phase_8,3,5,63,98,1916606928
106,18,15,Jits_Phase_8,0,5,80,127,1917296944
106,18,15,Jits_Phase_8,1,1,48,68,1917381800
106,18,15,Jits_Phase_8,2,5,56,103,1917397212
106,18,15,Jits_Phase_8,3,5,63,98,1917406584
106,18,15,Jits_Phase_8,0,5,63,98,1918067128
106,18,15,Jits_Phase_8,1,5,80,127,1918126324
106,18,15,Jits_Phase_8,2,5,56,103,1918136740
106,18,15,Jits_Phase_8,3,1,48,68,1918175100
106,18,15,Jits_Phase_8,0,5,56,103,1918866884
106,18,15,Jits_Phase_8,1,1,48,70,1918904232
106,18,15,Jits_Phase_8,2,5,63,98,1918936508
106,18,15,Jits_Phase_8,3,5,80,127,1918939944
106,18,15,Jits_Phase_8,0,1,48,65,1919692852
106,18,15,Jits_Phase_8,1,5,63,98,1919697156
106,18,15,Jits_Phase_8,2,5,56,103,1919746532
106,18,15,Jits_Phase_8,3,5,80,127,1919749748
106,18,15,Jits_Phase_8,0,5,56,103,1920457052
106,18,15,Jits_Phase_8,1,5,80,127,1920460116
106,18,15,Jits_Phase_8,2,1,48,66,1920479648
106,18,15,Jits_Phase_8,3,5,63,98,1920547176
106,18,15,Jits_Phase_8,0,5,63,98,1921296968
106,18,15,Jits_Phase_8,1,1,48,62,1921338748
106,18,15,Jits_Phase_8,2,5,56,103,1921386800
106,18,15,Jits_Phase_8,3,5,80,127,1921416772
106,18,15,Jits_Phase_8,0,5,56,103,1922087216
106,18,15,Jits_Phase_8,1,1,48,67,1922146976
106,18,15,Jits_Phase_8,2,5,63,98,1922186932
106,18,15,Jits_Phase_8,3,5,80,127,1922217280
106,18,15,Jits_Phase_8,0,5,63,98,1922906548
106,18,15,Jits_Phase_8,1,5,56,103,1922916744
106,18,15,Jits_Phase_8,2,1,48,69,1922965044
106,18,15,Jits_Phase_8,3,5,80,127,1923006864
106,18,15,Jits_Phase_8,0,1,48,66,1923707696
106,18,15,Jits_Phase_8,1,5,63,98,1923726680
106,18,15,Jits_Phase_8,2,5,56,103,1923806856
106,18,15,Jits_Phase_8,3,5,80,127,1923809772
106,18,15,Jits_Phase_8,0,5,80,127,1924486952
106,18,15,Jits_Phase_8,1,5,63,98,1924506892
106,18,15,Jits_Phase_8,2,1,48,65,1924541772
106,18,15,Jits_Phase_8,3,5,56,103,1924567372
106,18,15,Jits_Phase_8,0,1,48,72,1925312536
106,18,15,Jits_Phase_8,1,5,56,103,1925327276
106,18,15,Jits_Phase_8,2,5,63,98,1925346612
106,18,15,Jits_Phase_8,3,5,80,127,1925349900
106,18,15,Jits_Phase_8,0,5,63,98,1926066696
106,18,15,Jits_Phase_8,1,1,48,68,1926097712
106,18,15,Jits_Phase_8,2,5,80,127,1926146508
106,18,15,Jits_Phase_8,3,5,56,103,1926156780
106,18,15,Jits_Phase_8,0,5,63,98,1926886784
106,18,15,Jits_Phase_8,1,5,56,103,1926907616
106,18,15,Jits_Phase_8,2,1,48,67,1926955624
106,18,15,Jits_Phase_8,3,5,80,127,1926957360
106,18,15,Jits_Phase_8,0,5,80,127,1927686836
106,18,15,Jits_Phase_8,1,5,63,98,1927726476
106,18,15,Jits_Phase_8,2,1,48,63,1927736644
106,18,15,Jits_Phase_8,3,5,56,103,1927746780
106,18,15,Jits_Phase_8,0,1,48,68,1928503120
106,18,15,Jits_Phase_8,1,5,56,103,1928527356
106,18,15,Jits_Phase_8,2,5,63,98,1928536580
106,18,15,Jits_Phase_8,3,5,80,127,1928556888
106,18,15,Jits_Phase_8,0,5,56,103,1929257440
106,18,15,Jits_Phase_8,1,1,48,65,1929333524
106,18,15,Jits_Phase_8,2,5,63,98,1929346372
106,18,15,Jits_Phase_8,3,5,80,127,1929406836
106,18,15,Jits_Phase_8,0,5,80,127,1930086660
106,18,15,Jits_Phase_8,1,5,56,103,1930096932
106,18,15,Jits_Phase_8,2,1,48,66,1930151964
106,18,15,Jits_Phase_8,3,5,63,98,1930166676
106,18,15,Jits_Phase_8,0,5,63,98,1930917220
106,18,15,Jits_Phase_8,1,1,48,69,1930926712
106,18,15,Jits_Phase_8,2,5,80,127,1931007372
106,18,15,Jits_Phase_8,3,5,56,103,1931016820
106,18,15,Jits_Phase_8,0,5,63,98,1931647528
106,18,15,Jits_Phase_8,1,5,80,127,1931696684
106,18,15,Jits_Phase_8,2,1,48,68,1931755288
106,18,15,Jits_Phase_8,3,5,56,103,1931756796
106,18,15,Jits_Phase_8,0,5,56,103,1932466620
106,18,15,Jits_Phase_8,1,1,48,61,1932510068
106,18,15,Jits_Phase_8,2,5,80,127,1932516768
106,18,15,Jits_Phase_8,3,5,63,98,1932537300
106,18,15,Jits_Phase_8,0,5,56,103,1933236576
106,18,15,Jits_Phase_8,1,5,80,127,1933296916
106,18,15,Jits_Phase_8,2,1,48,65,1933309848
106,18,15,Jits_Phase_8,3,5,63,98,1933366668
106,18,15,Jits_Phase_8,0,5,56,103,1934037716
106,18,15,Jits_Phase_8,1,5,80,127,1934067020
106,18,15,Jits_Phase_8,2,5,63,98,1934096696
106,18,15,Jits_Phase_8,3,1,48,65,1934106788
106,18,15,Jits_Phase_8,0,1,48,60,1934862244
106,18,15,Jits_Phase_8,1,5,56,103,1934876964
106,18,15,Jits_Phase_8,2,5,80,127,1934896748
106,18,15,Jits_Phase_8,3,5,63,98,1934956840
106,18,15,Jits_Phase_8,0,1,48,65,1935691152
106,18,15,Jits_Phase_8,1,5,80,127,1935756740
106,18,15,Jits_Phase_8,2,5,56,103,1935766860
106,18,15,Jits_Phase_8,3,5,63,98,1935777280
106,18,15,Jits_Phase_8,0,1,48,65,1936514612
106,18,15,Jits_Phase_8,1,5,56,103,1936516648
106,18,15,Jits_Phase_8,2,5,80,127,1936557632
106,18,15,Jits_Phase_8,3,5,63,98,1936587036
106,18,15,Jits_Phase_8,0,5,56,103,1937286452
106,18,15,Jits_Phase_8,1,5,63,98,1937317324
106,18,15,Jits_Phase_8,2,1,48,68,1937323660
106,18,15,Jits_Phase_8,3,5,80,127,1937357132
106,18,15,Jits_Phase_8,0,5,80,127,1938037148
106,18,15,Jits_Phase_8,1,5,63,98,1938087424
106,18,15,Jits_Phase_8,2,5,56,103,1938106760
106,18,15,Jits_Phase_8,3,1,48,61,1938132748
106,18,15,Jits_Phase_8,0,5,56,103,1938866512
106,18,15,Jits_Phase_8,1,1,48,70,1938894444
106,18,15,Jits_Phase_8,2,5,80,127,1938937484
106,18,15,Jits_Phase_8,3,5,63,98,1938996512
106,18,15,Jits_Phase_8,0,5,80,127,1939667508
106,18,15,Jits_Phase_8,1,5,63,98,1939757420
106,18,15,Jits_Phase_8,2,5,56,103,1939776832
106,18,15,Jits_Phase_8,3,1,48,67,1939780472
106,18,15,Jits_Phase_8,0,5,63,98,1940486472
106,18,15,Jits_Phase_8,1,5,56,103,1940506856
106,18,15,Jits_Phase_8,2,5,80,127,1940546792
106,18,15,Jits_Phase_8,3,1,48,57,1940563992
106,18,15,Jits_Phase_8,0,5,80,127,1941247636
106,18,15,Jits_Phase_8,1,5,63,98,1941266752
106,18,15,Jits_Phase_8,2,1,48,65,1941314364
106,18,15,Jits_Phase_8,3,5,56,103,1941346688
106,18,15,Jits_Phase_8,0,5,63,98,1942036700
106,18,15,Jits_Phase_8,1,1,48,67,1942063412
106,18,15,Jits_Phase_8,2,5,56,103,1942146676
106,18,15,Jits_Phase_8,3,5,80,127,1942149596
106,18,15,Jits_Phase_8,0,5,63,98,1942857052
106,18,15,Jits_Phase_8,1,5,56,103,1942867468
106,18,15,Jits_Phase_8,2,5,80,127,1942870384
106,18,15,Jits_Phase_8,3,1,48,61,1942888792
106,18,15,Jits_Phase_8,0,5,56,103,1943637456
106,18,15,Jits_Phase_8,1,1,48,70,1943684864
106,18,15,Jits_Phase_8,2,5,80,127,1943757280
106,18,15,Jits_Phase_8,3,5,63,98,1943796980
106,18,15,Jits_Phase_8,0,5,56,103,1944456712
106,18,15,Jits_Phase_8,1,1,48,63,1944516176
106,18,15,Jits_Phase_8,2,5,80,127,1944536752
106,18,15,Jits_Phase_8,3,5,63,98,1944556764
106,18,15,Jits_Phase_8,0,5,56,103,1945257536
106,18,15,Jits_Phase_8,1,1,48,67,1945300240
106,18,15,Jits_Phase_8,2,5,63,98,1945367016
106,18,15,Jits_Phase_8,3,5,80,127,1945370456
106,18,15,Jits_Phase_8,0,5,56,103,1946097040
106,18,15,Jits_Phase_8,1,1,48,60,1946099556
106,18,15,Jits_Phase_8,2,5,80,127,1946126632
106,18,15,Jits_Phase_8,3,5,63,98,1946147316
106,18,15,Jits_Phase_8,0,5,63,98,1946886396
106,18,15,Jits_Phase_8,1,5,56,103,1946896744
106,18,15,Jits_Phase_8,2,5,80,127,1946906864
106,18,15,Jits_Phase_8,3,1,48,63,1946946096
106,18,15,Jits_Phase_8,0,5,80,127,1947677008
106,18,15,Jits_Phase_8,1,1,48,62,1947719912
106,18,15,Jits_Phase_8,2,5,56,103,1947727204
106,18,15,Jits_Phase_8,3,5,63,98,1947767144
106,18,15,Jits_Phase_8,0,5,80,127,1948497528
106,18,15,Jits_Phase_8,1,5,63,98,1948516720
106,18,15,Jits_Phase_8,2,1,48,71,1948554756
106,18,15,Jits_Phase_8,3,5,56,103,1948566988
106,18,15,Jits_Phase_8,0,5,80,127,1949307492
106,18,15,Jits_Phase_8,1,1,48,66,1949316464
106,18,15,Jits_Phase_8,2,5,56,103,1949337160
106,18,15,Jits_Phase_8,3,5,63,98,1949406640
106,18,15,Jits_Phase_8,0,5,56,103,1950157116
106,18,15,Jits_Phase_8,1,5,80,127,1950167388
106,18,15,Jits_Phase_8,2,1,48,62,1950170356
106,18,15,Jits_Phase_8,3,5,63,98,1950207316
106,18,15,Jits_Phase_8,0,5,56,103,1950866740
106,18,15,Jits_Phase_8,1,5,63,98,1950887572
106,18,15,Jits_Phase_8,2,5,80,127,1950956904
106,18,15,Jits_Phase_8,3,1,48,59,1950978304
106,18,15,Jits_Phase_8,0,5,63,98,1951686988
106,18,15,Jits_Phase_8,1,1,48,66,1951707940
106,18,15,Jits_Phase_8,2,5,80,127,1951746328
106,18,15,Jits_Phase_8,3,5,56,103,1951766860
106,18,15,Jits_Phase_8,0,5,80,127,1952476632
106,18,15,Jits_Phase_8,1,5,56,103,1952507504
106,18,15,Jits_Phase_8,2,1,48,66,1952532344
106,18,15,Jits_Phase_8,3,5,63,98,1952536800
106,18,15,Jits_Phase_8,0,5,56,103,1953277376
106,18,15,Jits_Phase_8,1,1,48,70,1953329420
106,18,15,Jits_Phase_8,2,5,63,98,1953336564
106,18,15,Jits_Phase_8,3,5,80,127,1953397252
106,18,15,Jits_Phase_8,0,5,80,127,1954096480
106,18,15,Jits_Phase_8,1,5,56,103,1954117092
106,18,15,Jits_Phase_8,2,1,48,58,1954119764
106,18,15,Jits_Phase_8,3,5,63,98,1954186688
106,18,15,Jits_Phase_8,0,5,80,127,1954897228
106,18,15,Jits_Phase_8,1,5,63,98,1954916716
106,18,15,Jits_Phase_8,2,1,48,63,1954924712
106,18,15,Jits_Phase_8,3,5,56,103,1954946456
106,18,15,Jits_Phase_8,0,1,48,67,1955684444
106,18,15,Jits_Phase_8,1,5,80,127,1955686804
106,18,15,Jits_Phase_8,2,5,63,98,1955707412
106,18,15,Jits_Phase_8,3,5,56,103,1955766604
106,18,15,Jits_Phase_8,0,1,48,67,1956477916
106,18,15,Jits_Phase_8,1,5,80,127,1956486708
106,18,15,Jits_Phase_8,2,5,56,103,1956586820
106,18,15,Jits_Phase_8,3,5,63,98,1956616568
106,18,15,Jits_Phase_8,0,5,63,98,1957277116
106,18,15,Jits_Phase_8,1,5,80,127,1957327568
106,18,15,Jits_Phase_8,2,5,56,103,1957346608
106,18,15,Jits_Phase_8,3,1,48,66,1957349348
106,18,15,Jits_Phase_8,0,5,80,127,1958116760
106,18,15,Jits_Phase_8,1,1,48,64,1958129392
106,18,15,Jits_Phase_8,2,5,56,103,1958146352
106,18,15,Jits_Phase_8,3,5,63,98,1958149344
106,18,15,Jits_Phase_8,0,1,48,64,1958917016
106,18,15,Jits_Phase_8,1,5,63,98,1958966568
106,18,15,Jits_Phase_8,2,5,56,103,1959006508
106,18,15,Jits_Phase_8,3,5,80,127,1959027024
106,18,15,Jits_Phase_8,0,5,80,127,1959726328
106,18,15,Jits_Phase_8,1,1,48,64,1959728848
106,18,15,Jits_Phase_8,2,5,63,98,1959807388
106,18,15,Jits_Phase_8,3,5,56,103,1959847312
106,18,15,Jits_Phase_8,0,5,63,98,1960546708
106,18,15,Jits_Phase_8,1,1,48,66,1960571328
106,18,15,Jits_Phase_8,2,5,80,127,1960626648
106,18,15,Jits_Phase_8,3,5,56,103,1960646980
106,18,15,Jits_Phase_8,0,1,48,55,1961367648
106,18,15,Jits_Phase_8,1,5,56,103,1961387372
106,18,15,Jits_Phase_8,2,5,63,98,1961396448
106,18,15,Jits_Phase_8,3,5,80,127,1961436484
106,18,15,Jits_Phase_8,0,5,56,103,1962107272
106,18,15,Jits_Phase_8,1,5,80,127,1962110412
106,18,15,Jits_Phase_8,2,1,48,65,1962150172
106,18,15,Jits_Phase_8,3,5,63,98,1962246492
106,18,15,Jits_Phase_8,0,5,56,103,1962896624
106,18,15,Jits_Phase_8,1,1,48,59,1962984412
106,18,15,Jits_Phase_8,2,5,63,98,1962987000
106,18,15,Jits_Phase_8,3,5,80,127,1963056456
106,18,15,Jits_Phase_8,0,5,63,98,1963777412
106,18,15,Jits_Phase_8,1,5,80,127,1963780700
106,18,15,Jits_Phase_8,2,1,48,62,1963798064
106,18,15,Jits_Phase_8,3,5,56,103,1963836744
106,18,15,Jits_Phase_8,0,1,48,62,1964599460
106,18,15,Jits_Phase_8,1,5,80,127,1964617168
106,18,15,Jits_Phase_8,2,5,56,103,1964636432
106,18,15,Jits_Phase_8,3,5,63,98,1964646624
106,18,15,Jits_Phase_8,0,5,56,103,1965326736
106,18,15,Jits_Phase_8,1,5,63,98,1965337084
106,18,15,Jits_Phase_8,2,1,48,57,1965398712
106,18,15,Jits_Phase_8,3,5,80,127,1965406532
106,18,15,Jits_Phase_8,0,5,80,127,1966126584
106,18,15,Jits_Phase_8,1,5,56,103,1966176636
106,18,15,Jits_Phase_8,2,1,48,61,1966184016
106,18,15,Jits_Phase_8,3,5,63,98,1966226980
106,18,15,Jits_Phase_8,0,1,48,66,1966978012
106,18,15,Jits_Phase_8,1,5,56,103,1967007184
106,18,15,Jits_Phase_8,2,5,63,98,1967017456
106,18,15,Jits_Phase_8,3,5,80,127,1967057120
106,18,15,Jits_Phase_8,0,5,56,103,1967746348
106,18,15,Jits_Phase_8,1,1,48,66,1967774108
106,18,15,Jits_Phase_8,2,5,63,98,1967787476
106,18,15,Jits_Phase_8,3,5,80,127,1967836432
106,18,15,Jits_Phase_8,0,5,80,127,1968507236
106,18,15,Jits_Phase_8,1,1,48,53,1968544812
106,18,15,Jits_Phase_8,2,5,56,103,1968557432
106,18,15,Jits_Phase_8,3,5,63,98,1968576844
106,18,15,Jits_Phase_8,0,1,48,58,1969308096
106,18,15,Jits_Phase_8,1,5,80,127,1969317260
106,18,15,Jits_Phase_8,2,5,63,98,1969376556
106,18,15,Jits_Phase_8,3,5,56,103,1969456480
106,18,15,Jits_Phase_8,0,5,80,127,1970096424
106,18,15,Jits_Phase_8,1,5,56,103,1970136536
106,18,15,Jits_Phase_8,2,1,48,52,1970155104
106,18,15,Jits_Phase_8,3,5,63,98,1970156840
106,18,15,Jits_Phase_8,0,1,48,69,1970939708
106,18,15,Jits_Phase_8,1,5,56,103,1970946408
106,18,15,Jits_Phase_8,2,5,80,127,1970956824
106,18,15,Jits_Phase_8,3,5,63,98,1970996540
106,18,15,Jits_Phase_8,0,1,48,59,1971730100
106,18,15,Jits_Phase_8,1,5,56,103,1971816964
106,18,15,Jits_Phase_8,2,5,63,98,1971856888
106,18,15,Jits_Phase_8,3,5,80,127,1971860324
106,18,15,Jits_Phase_8,0,5,63,98,1972486444
106,18,15,Jits_Phase_8,1,5,80,127,1972526456
106,18,15,Jits_Phase_8,2,5,56,103,1972597404
106,18,15,Jits_Phase_8,3,1,48,61,1972598368
106,18,15,Jits_Phase_8,0,5,63,98,1973256456
106,18,15,Jits_Phase_8,1,5,56,103,1973336400
106,18,15,Jits_Phase_8,2,1,48,69,1973339068
106,18,15,Jits_Phase_8,3,5,80,127,1973396708
106,18,15,Jits_Phase_8,0,5,80,127,1974066624
106,18,15,Jits_Phase_8,1,1,48,60,1974099560
106,18,15,Jits_Phase_8,2,5,63,98,1974116672
106,18,15,Jits_Phase_8,3,5,56,103,1974146272
106,18,15,Jits_Phase_8,0,5,56,103,1974857324
106,18,15,Jits_Phase_8,1,1,48,62,1974886000
106,18,15,Jits_Phase_8,2,5,63,98,1974907372
106,18,15,Jits_Phase_8,3,5,80,127,1974916448
106,18,15,Jits_Phase_8,0,5,56,103,1975667280
106,18,15,Jits_Phase_8,1,1,48,56,1975672420
106,18,15,Jits_Phase_8,2,5,63,98,1975776676
106,18,15,Jits_Phase_8,3,5,80,127,1975797284
106,18,15,Jits_Phase_8,0,5,63,98,1976466684
106,18,15,Jits_Phase_8,1,1,48,58,1976513848
106,18,15,Jits_Phase_8,2,5,80,127,1976517104
106,18,15,Jits_Phase_8,3,5,56,103,1976607384
106,18,15,Jits_Phase_8,0,5,63,98,1977257204
106,18,15,Jits_Phase_8,1,5,80,127,1977287200
106,18,15,Jits_Phase_8,2,1,48,54,1977305388
106,18,15,Jits_Phase_8,3,5,56,103,1977377176
106,18,15,Jits_Phase_8,0,5,63,98,1978057204
106,18,15,Jits_Phase_8,1,5,56,103,1978067252
106,18,15,Jits_Phase_8,2,1,48,55,1978087228
106,18,15,Jits_Phase_8,3,5,80,127,1978166592
106,18,15,Jits_Phase_8,0,1,48,59,1978839540
106,18,15,Jits_Phase_8,1,5,63,98,1978957184
106,18,15,Jits_Phase_8,2,5,80,127,1978987156
106,18,15,Jits_Phase_8,3,5,56,103,1979016460
106,18,15,Jits_Phase_8,0,1,48,62,1979694688
106,18,15,Jits_Phase_8,1,5,80,127,1979777420
106,18,15,Jits_Phase_8,2,5,63,98,1979786572
106,18,15,Jits_Phase_8,3,5,56,103,1979817352
106,18,15,Jits_Phase_8,0,5,80,127,1980476728
106,18,15,Jits_Phase_8,1,5,63,98,1980497336
106,18,15,Jits_Phase_8,2,1,48,64,1980514156
106,18,15,Jits_Phase_8,3,5,56,103,1980546408
106,18,15,Jits_Phase_8,0,5,63,98,1981307216
106,18,15,Jits_Phase_8,1,1,48,59,1981315140
106,18,15,Jits_Phase_8,2,5,80,127,1981366628
106,18,15,Jits_Phase_8,3,5,56,103,1981387036
106,18,15,Jits_Phase_8,0,5,63,98,1982067044
106,18,15,Jits_Phase_8,1,5,56,103,1982117172
106,18,15,Jits_Phase_8,2,5,80,127,1982126320
106,18,15,Jits_Phase_8,3,1,48,51,1982156964
106,18,15,Jits_Phase_8,0,5,56,103,1982896396
106,18,15,Jits_Phase_8,1,5,80,127,1982906964
106,18,15,Jits_Phase_8,2,1,48,54,1982912472
106,18,15,Jits_Phase_8,3,5,63,98,1983007136
106,18,15,Jits_Phase_8,0,5,80,127,1983657280
106,18,15,Jits_Phase_8,1,5,63,98,1983666504
106,18,15,Jits_Phase_8,2,1,48,51,1983795440
106,18,15,Jits_Phase_8,3,5,56,103,1983817184
106,18,15,Jits_Phase_8,0,5,63,98,1984467264
106,18,15,Jits_Phase_8,1,5,80,127,1984507280
106,18,15,Jits_Phase_8,2,1,48,48,1984557748
106,18,15,Jits_Phase_8,3,5,56,103,1984587140
106,18,15,Jits_Phase_8,0,5,56,103,1985217024
106,18,15,Jits_Phase_8,1,5,80,127,1985317148
106,18,15,Jits_Phase_8,2,5,63,98,1985336860
106,18,15,Jits_Phase_8,3,1,48,50,1985342072
106,18,15,Jits_Phase_8,0,5,80,127,1986037132
106,18,15,Jits_Phase_8,1,5,56,103,1986047328
106,18,15,Jits_Phase_8,2,1,48,56,1986095628
106,18,15,Jits_Phase_8,3,5,63,98,1986136404
106,18,15,Jits_Phase_8,0,5,56,103,1986836908
106,18,15,Jits_Phase_8,1,5,63,98,1986857292
106,18,15,Jits_Phase_8,2,1,48,58,1986860488
106,18,15,Jits_Phase_8,3,5,80,127,1986937228
106,18,15,Jits_Phase_8,0,5,63,98,1987586340
106,18,15,Jits_Phase_8,1,1,48,57,1987648044
106,18,15,Jits_Phase_8,2,5,56,103,1987676688
106,18,15,Jits_Phase_8,3,5,80,127,1987679752
106,18,15,Jits_Phase_8,0,5,56,103,1988417100
106,18,15,Jits_Phase_8,1,1,48,66,1988422316
106,18,15,Jits_Phase_8,2,5,80,127,1988477188
106,18,15,Jits_Phase_8,3,5,63,98,1988486560
106,18,15,Jits_Phase_8,0,1,48,60,1989237596
106,18,15,Jits_Phase_8,1,5,80,127,1989266916
106,18,15,Jits_Phase_8,2,5,56,103,1989276956
106,18,15,Jits_Phase_8,3,5,63,98,1989280104
106,18,15,Jits_Phase_8,0,5,56,103,1990026596
106,18,15,Jits_Phase_8,1,5,80,127,1990036940
106,18,15,Jits_Phase_8,2,5,63,98,1990057472
106,18,15,Jits_Phase_8,3,1,48,58,1990085872
106,18,15,Jits_Phase_8,0,5,63,98,1990796772
106,18,15,Jits_Phase_8,1,1,48,56,1990835264
106,18,15,Jits_Phase_8,2,5,80,127,1990857032
106,18,15,Jits_Phase_8,3,5,56,103,1990907232
106,18,15,Jits_Phase_8,0,1,48,57,1991654124
106,18,15,Jits_Phase_8,1,5,63,98,1991677388
106,18,15,Jits_Phase_8,2,5,56,103,1991686536
106,18,15,Jits_Phase_8,3,5,80,127,1991736812
106,18,15,Jits_Phase_8,0,5,63,98,1992376892
106,18,15,Jits_Phase_8,1,5,80,127,1992397152
106,18,15,Jits_Phase_8,2,5,56,103,1992407352
106,18,15,Jits_Phase_8,3,1,48,63,1992474976
106,18,15,Jits_Phase_8,0,5,63,98,1993176368
106,18,15,Jits_Phase_8,1,5,80,127,1993179728
106,18,15,Jits_Phase_8,2,5,56,103,1993217352
106,18,15,Jits_Phase_8,3,1,48,58,1993241444
106,18,15,Jits_Phase_8,0,1,48,60,1994032488
106,18,15,Jits_Phase_8,1,5,63,98,1994046976
106,18,15,Jits_Phase_8,2,5,80,127,1994076504
106,18,15,Jits_Phase_8,3,5,56,103,1994086700
106,18,15,Jits_Phase_8,0,5,56,103,1994797372
106,18,15,Jits_Phase_8,1,5,80,127,1994827048
106,18,15,Jits_Phase_8,2,5,63,98,1994856944
106,18,15,Jits_Phase_8,3,1,48,61,1994872492
106,18,15,Jits_Phase_8,0,1,48,59,1995663176
106,18,15,Jits_Phase_8,1,5,63,98,1995696628
106,18,15,Jits_Phase_8,2,5,56,103,1995736592
106,18,15,Jits_Phase_8,3,5,80,127,1995739508
106,18,15,Jits_Phase_8,0,5,80,127,1996396972
106,18,15,Jits_Phase_8,1,5,56,103,1996476768
106,18,15,Jits_Phase_8,2,1,48,60,1996498792
106,18,15,Jits_Phase_8,3,5,63,98,1996526912
106,18,15,Jits_Phase_8,0,5,80,127,1997177268
106,18,15,Jits_Phase_8,1,5,56,103,1997196904
106,18,15,Jits_Phase_8,2,5,63,98,1997286984
106,18,15,Jits_Phase_8,3,1,48,54,1997300664
106,18,15,Jits_Phase_8,0,5,80,127,1998017044
106,18,15,Jits_Phase_8,1,5,63,98,1998056860
106,18,15,Jits_Phase_8,2,1,48,59,1998059832
106,18,15,Jits_Phase_8,3,5,56,103,1998096716
106,18,15,Jits_Phase_8,0,5,63,98,1998827108
106,18,15,Jits_Phase_8,1,1,48,63,1998868436
106,18,15,Jits_Phase_8,2,5,80,127,1998887196
106,18,15,Jits_Phase_8,3,5,56,103,1998917020
106,18,15,Jits_Phase_8,0,1,48,63,1999666124
106,18,15,Jits_Phase_8,1,5,56,103,1999667764
106,18,15,Jits_Phase_8,2,5,80,127,1999697364
106,18,15,Jits_Phase_8,3,5,63,98,1999787332
106,18,15,Jits_Phase_8,0,5,56,103,2000476448
106,18,15,Jits_Phase_8,1,1,48,63,2000508632
106,18,15,Jits_Phase_8,2,5,80,127,2000587052
106,18,15,Jits_Phase_8,3,5,63,98,2000616932
106,18,15,Jits_Phase_8,0,5,56,103,2001326496
106,18,15,Jits_Phase_8,1,5,63,98,2001387060
106,18,15,Jits_Phase_8,2,1,48,59,2001412652
106,18,15,Jits_Phase_8,3,5,80,127,2001416508
106,18,15,Jits_Phase_8,0,5,56,103,2002096456
106,18,15,Jits_Phase_8,1,5,63,98,2002167284
106,18,15,Jits_Phase_8,2,5,80,127,2002186548
106,18,15,Jits_Phase_8,3,1,48,57,2002229216
106,18,15,Jits_Phase_8,0,5,80,127,2002866412
106,18,15,Jits_Phase_8,1,5,63,98,2002887044
106,18,15,Jits_Phase_8,2,5,56,103,2002937172
106,18,15,Jits_Phase_8,3,1,48,62,2003014984
106,18,15,Jits_Phase_8,0,5,63,98,2003686732
106,18,15,Jits_Phase_8,1,5,80,127,2003697152
106,18,15,Jits_Phase_8,2,5,56,103,2003747204
106,18,15,Jits_Phase_8,3,1,48,57,2003777292
106,18,15,Jits_Phase_8,0,5,63,98,2004486484
106,18,15,Jits_Phase_8,1,5,80,127,2004557064
106,18,15,Jits_Phase_8,2,1,48,64,2004561156
106,18,15,Jits_Phase_8,3,5,56,103,2004576916
106,18,15,Jits_Phase_8,0,5,63,98,2005316876
106,18,15,Jits_Phase_8,1,5,80,127,2005320172
106,18,15,Jits_Phase_8,2,1,48,66,2005344344
106,18,15,Jits_Phase_8,3,5,56,103,2005386776
106,18,15,Jits_Phase_8,0,5,80,127,2006066736
106,18,15,Jits_Phase_8,1,5,56,103,2006086972
106,18,15,Jits_Phase_8,2,5,63,98,2006097316
106,18,15,Jits_Phase_8,3,1,48,66,2006144196
106,18,15,Jits_Phase_8,0,1,48,55,2006880848
106,18,15,Jits_Phase_8,1,5,56,103,2006886872
106,18,15,Jits_Phase_8,2,5,63,98,2006977004
106,18,15,Jits_Phase_8,3,5,80,127,2006981276
106,18,15,Jits_Phase_8,0,5,80,127,2007656960
106,18,15,Jits_Phase_8,1,5,56,103,2007667008
106,18,15,Jits_Phase_8,2,5,63,98,2007686644
106,18,15,Jits_Phase_8,3,1,48,55,2007735468
106,18,15,Jits_Phase_8,0,5,63,98,2008456724
106,18,15,Jits_Phase_8,1,1,48,65,2008485544
106,18,15,Jits_Phase_8,2,5,80,127,2008516984
106,18,15,Jits_Phase_8,3,5,56,103,2008527176
106,18,15,Jits_Phase_8,0,1,48,59,2009261456
106,18,15,Jits_Phase_8,1,5,63,98,2009327068
106,18,15,Jits_Phase_8,2,5,80,127,2009356732
106,18,15,Jits_Phase_8,3,5,56,103,2009396740
106,18,15,Jits_Phase_8,0,1,48,53,2010080280
106,18,15,Jits_Phase_8,1,5,56,103,2010116644
106,18,15,Jits_Phase_8,2,5,80,127,2010126692
106,18,15,Jits_Phase_8,3,5,63,98,2010166776
106,18,15,Jits_Phase_8,0,5,80,127,2010877224
106,18,15,Jits_Phase_8,1,1,48,61,2010900196
106,18,15,Jits_Phase_8,2,5,56,103,2010957164
106,18,15,Jits_Phase_8,3,5,63,98,2010967584
106,18,15,Jits_Phase_8,0,1,48,66,2011681380
106,18,15,Jits_Phase_8,1,5,80,127,2011727192
106,18,15,Jits_Phase_8,2,5,56,103,2011806972
106,18,15,Jits_Phase_8,3,5,63,98,2011817468
106,18,15,Jits_Phase_8,0,1,48,56,2012504760
106,18,15,Jits_Phase_8,1,5,80,127,2012567040
106,18,15,Jits_Phase_8,2,5,56,103,2012617104
106,18,15,Jits_Phase_8,3,5,63,98,2012667304
106,18,15,Jits_Phase_8,0,1,48,60,2013355160
106,18,15,Jits_Phase_8,1,5,56,103,2013506824
106,18,15,Jits_Phase_8,2,5,63,98,2013509820
106,18,15,Jits_Phase_8,3,5,80,127,2013557028
106,18,15,Jits_Phase_8,0,1,48,62,2014272100
106,18,15,Jits_Phase_8,1,5,56,103,2014327200
106,18,15,Jits_Phase_8,2,5,63,98,2014356804
106,18,15,Jits_Phase_8,3,5,80,127,2014367060
106,18,15,Jits_Phase_8,0,5,63,98,2015036768
106,18,15,Jits_Phase_8,1,1,48,63,2015104484
106,18,15,Jits_Phase_8,2,5,56,103,2015106368
106,18,15,Jits_Phase_8,3,5,80,127,2015156864
106,18,15,Jits_Phase_8,0,5,63,98,2015867392
106,18,15,Jits_Phase_8,1,5,56,103,2015876392
106,18,15,Jits_Phase_8,2,5,80,127,2015879532
106,18,15,Jits_Phase_8,3,1,48,46,2015900480
106,18,15,Jits_Phase_8,0,5,80,127,2016616720
106,18,15,Jits_Phase_8,1,1,48,48,2016667716
106,18,15,Jits_Phase_8,2,5,56,103,2016677176
106,18,15,Jits_Phase_8,3,5,63,98,2016767320
106,18,15,Jits_Phase_8,0,5,80,127,2017416788
106,18,15,Jits_Phase_8,1,5,56,103,2017516840
106,18,15,Jits_Phase_8,2,1,48,60,2017519580
106,18,15,Jits_Phase_8,3,5,63,98,2017556844
106,18,15,Jits_Phase_8,0,5,56,103,2018266412
106,18,15,Jits_Phase_8,1,5,63,98,2018287096
106,18,15,Jits_Phase_8,2,5,80,127,2018326884
106,18,15,Jits_Phase_8,3,1,48,63,2018371652
106,18,15,Jits_Phase_8,0,5,63,98,2019036808
106,18,15,Jits_Phase_8,1,5,56,103,2019056972
106,18,15,Jits_Phase_8,2,1,48,49,2019153504
106,18,15,Jits_Phase_8,3,5,80,127,2019157356
106,18,15,Jits_Phase_8,0,5,63,98,2019827124
106,18,15,Jits_Phase_8,1,1,48,59,2019900744
106,18,15,Jits_Phase_8,2,5,80,127,2019936732
106,18,15,Jits_Phase_8,3,5,56,103,2019967232
106,18,15,Jits_Phase_8,0,5,56,103,2020647264
106,18,15,Jits_Phase_8,1,1,48,61,2020658700
106,18,15,Jits_Phase_8,2,5,63,98,2020676932
106,18,15,Jits_Phase_8,3,5,80,127,2020727208
106,18,15,Jits_Phase_8,0,5,63,98,2021417216
106,18,15,Jits_Phase_8,1,5,56,103,2021446892
106,18,15,Jits_Phase_8,2,1,48,52,2021462072
106,18,15,Jits_Phase_8,3,5,80,127,2021497088
106,18,15,Jits_Phase_8,0,1,48,61,2022232736
106,18,15,Jits_Phase_8,1,5,56,103,2022246856
106,18,15,Jits_Phase_8,2,5,63,98,2022267612
106,18,15,Jits_Phase_8,3,5,80,127,2022347044
106,18,15,Jits_Phase_8,0,5,63,98,2023016876
106,18,15,Jits_Phase_8,1,1,48,73,2023045180
106,18,15,Jits_Phase_8,2,5,56,103,2023077112
106,18,15,Jits_Phase_8,3,5,80,127,2023106864
106,18,15,Jits_Phase_8,0,1,48,61,2023856016
106,18,15,Jits_Phase_8,1,5,56,103,2023857580
106,18,15,Jits_Phase_8,2,5,80,127,2023916876
106,18,15,Jits_Phase_8,3,5,63,98,2023956876
106,18,15,Jits_Phase_8,0,5,63,98,2024636672
106,18,15,Jits_Phase_8,1,1,48,66,2024676456
106,18,15,Jits_Phase_8,2,5,56,103,2024697156
106,18,15,Jits_Phase_8,3,5,80,127,2024766836
106,18,15,Jits_Phase_8,0,5,56,103,2025517672
106,18,15,Jits_Phase_8,1,1,48,60,2025518712
106,18,15,Jits_Phase_8,2,5,63,98,2025526588
106,18,15,Jits_Phase_8,3,5,80,127,2025530028
106,18,15,Jits_Phase_8,0,5,63,98,2026256608
106,18,15,Jits_Phase_8,1,5,56,103,2026317064
106,18,15,Jits_Phase_8,2,5,80,127,2026320212
106,18,15,Jits_Phase_8,3,1,48,54,2026338768
106,18,15,Jits_Phase_8,0,5,63,98,2027037244
106,18,15,Jits_Phase_8,1,5,80,127,2027066848
106,18,15,Jits_Phase_8,2,5,56,103,2027087156
106,18,15,Jits_Phase_8,3,1,48,62,2027095972
106,18,15,Jits_Phase_8,0,5,56,103,2027767100
106,18,15,Jits_Phase_8,1,5,63,98,2027817304
106,18,15,Jits_Phase_8,2,1,48,71,2027858408
106,18,15,Jits_Phase_8,3,5,80,127,2027897536
106,18,15,Jits_Phase_8,0,5,80,127,2028466468
106,18,15,Jits_Phase_8,1,5,63,98,2028506656
106,18,15,Jits_Phase_8,2,5,56,103,2028526816
106,18,15,Jits_Phase_8,3,1,48,61,2028579152
106,18,15,Jits_Phase_8,0,1,48,54,2029274084
106,18,15,Jits_Phase_8,1,5,56,103,2029336908
106,18,15,Jits_Phase_8,2,5,80,127,2029347252
106,18,15,Jits_Phase_8,3,5,63,98,2029366812
106,18,15,Jits_Phase_8,0,1,48,62,2030093332
106,18,15,Jits_Phase_8,1,5,56,103,2030117412
106,18,15,Jits_Phase_8,2,5,63,98,2030167540
106,18,15,Jits_Phase_8,3,5,80,127,2030197052
106,18,15,Jits_Phase_8,0,5,56,103,2030866836
106,18,15,Jits_Phase_8,1,5,63,98,2030877108
106,18,15,Jits_Phase_8,2,1,48,59,2030903520
106,18,15,Jits_Phase_8,3,5,80,127,2030927376
106,18,15,Jits_Phase_8,0,1,48,57,2031642888
106,18,15,Jits_Phase_8,1,5,56,103,2031657600
106,18,15,Jits_Phase_8,2,5,80,127,2031660520
106,18,15,Jits_Phase_8,3,5,63,98,2031817040
106,18,15,Jits_Phase_8,0,5,63,98,2032476536
106,18,15,Jits_Phase_8,1,1,48,64,2032495696
106,18,15,Jits_Phase_8,2,5,56,103,2032547184
106,18,15,Jits_Phase_8,3,5,80,127,2032587148
106,18,15,Jits_Phase_8,0,1,48,69,2033282772
106,18,15,Jits_Phase_8,1,5,63,98,2033317344
106,18,15,Jits_Phase_8,2,5,56,103,2033407632
106,18,15,Jits_Phase_8,3,5,80,127,2033410628
106,18,15,Jits_Phase_8,0,5,56,103,2034096504
106,18,15,Jits_Phase_8,1,1,48,60,2034120396
106,18,15,Jits_Phase_8,2,5,63,98,2034186656
106,18,15,Jits_Phase_8,3,5,80,127,2034196776
106,18,15,Jits_Phase_8,0,5,56,103,2034866536
106,18,15,Jits_Phase_8,1,5,63,98,2034916688
106,18,15,Jits_Phase_8,2,1,48,61,2034943624
106,18,15,Jits_Phase_8,3,5,80,127,2034946656
106,18,15,Jits_Phase_8,0,1,48,49,2035709004
106,18,15,Jits_Phase_8,1,5,63,98,2035747316
106,18,15,Jits_Phase_8,2,5,80,127,2035757436
106,18,15,Jits_Phase_8,3,5,56,103,2035816912
106,18,15,Jits_Phase_8,0,5,63,98,2036466996
106,18,15,Jits_Phase_8,1,5,80,127,2036526416
106,18,15,Jits_Phase_8,2,1,48,68,2036556432
106,18,15,Jits_Phase_8,3,5,56,103,2036567540
106,18,15,Jits_Phase_8,0,1,48,67,2037322832
106,18,15,Jits_Phase_8,1,5,56,103,2037367292
106,18,15,Jits_Phase_8,2,5,80,127,2037386556
106,18,15,Jits_Phase_8,3,5,63,98,2037407012
106,18,15,Jits_Phase_8,0,5,63,98,2038087420
106,18,15,Jits_Phase_8,1,5,56,103,2038106460
106,18,15,Jits_Phase_8,2,5,80,127,2038146472
106,18,15,Jits_Phase_8,3,1,48,70,2038157156
106,18,15,Jits_Phase_8,0,5,63,98,2038897068
106,18,15,Jits_Phase_8,1,1,48,60,2038904900
106,18,15,Jits_Phase_8,2,5,80,127,2038926588
106,18,15,Jits_Phase_8,3,5,56,103,2038947120
106,18,15,Jits_Phase_8,0,5,80,127,2039667156
106,18,15,Jits_Phase_8,1,1,48,63,2039711476
106,18,15,Jits_Phase_8,2,5,56,103,2039717500
106,18,15,Jits_Phase_8,3,5,63,98,2039776644
106,18,15,Jits_Phase_8,0,5,63,98,2040456592
106,18,15,Jits_Phase_8,1,1,48,66,2040506016
106,18,15,Jits_Phase_8,2,5,56,103,2040577308
106,18,15,Jits_Phase_8,3,5,80,127,2040607340
106,18,15,Jits_Phase_8,0,5,80,127,2041297432
106,18,15,Jits_Phase_8,1,5,63,98,2041316624
106,18,15,Jits_Phase_8,2,1,48,60,2041340192
106,18,15,Jits_Phase_8,3,5,56,103,2041387344
106,18,15,Jits_Phase_8,0,5,63,98,2042116392
106,18,15,Jits_Phase_8,1,1,48,62,2042126060
106,18,15,Jits_Phase_8,2,5,56,103,2042127552
106,18,15,Jits_Phase_8,3,5,80,127,2042206448
106,18,15,Jits_Phase_8,0,1,48,58,2042940464
106,18,15,Jits_Phase_8,1,5,56,103,2042976608
106,18,15,Jits_Phase_8,2,5,80,127,2043007476
106,18,15,Jits_Phase_8,3,5,63,98,2043016628
106,18,15,Jits_Phase_8,0,9999,9999,9999,1908134976
106,18,15,Jits_Phase_8,1,9999,9999,9999,1908934768
106,18,15,Jits_Phase_8,2,9999,9999,9999,1909734524
106,18,15,Jits_Phase_8,3,9999,9999,9999,1910534260
106,18,15,Jits_Phase_8,4,9999,9999,9999,1911335016
106,18,15,Jits_Phase_8,5,9999,9999,9999,1912134776
106,18,15,Jits_Phase_8,6,9999,9999,9999,1912934456
106,18,15,Jits_Phase_8,7,9999,9999,9999,1913734232
106,18,15,Jits_Phase_8,8,9999,9999,9999,1914534984
106,18,15,Jits_Phase_8,9,9999,9999,9999,1915334728
106,18,15,Jits_Phase_8,10,9999,9999,9999,1916134460
106,18,15,Jits_Phase_8,11,9999,9999,9999,1916934224
106,18,15,Jits_Phase_8,12,9999,9999,9999,1917734972
106,18,15,Jits_Phase_8,13,9999,9999,9999,1918534740
106,18,15,Jits_Phase_8,14,9999,9999,9999,1919334488
106,18,15,Jits_Phase_8,15,9999,9999,9999,1920134252
106,18,15,Jits_Phase_8,16,9999,9999,9999,1920934972
106,18,15,Jits_Phase_8,17,9999,9999,9999,1921734748
106,18,15,Jits_Phase_8,18,9999,9999,9999,1922534460
106,18,15,Jits_Phase_8,19,9999,9999,9999,1923334232
106,18,15,Jits_Phase_8,20,9999,9999,9999,1924135036
106,18,15,Jits_Phase_8,21,9999,9999,9999,1924934720
106,18,15,Jits_Phase_8,22,9999,9999,9999,1925734484
106,18,15,Jits_Phase_8,23,9999,9999,9999,1926534240
106,18,15,Jits_Phase_8,24,9999,9999,9999,1927334968
106,18,15,Jits_Phase_8,25,9999,9999,9999,1928134724
106,18,15,Jits_Phase_8,26,9999,9999,9999,1928934520
106,18,15,Jits_Phase_8,27,9999,9999,9999,1929734204
106,18,15,Jits_Phase_8,28,9999,9999,9999,1930535020
106,18,15,Jits_Phase_8,29,9999,9999,9999,1931334724
106,18,15,Jits_Phase_8,30,9999,9999,9999,1932114996
106,18,15,Jits_Phase_8,31,9999,9999,9999,1932914760
106,18,15,Jits_Phase_8,32,9999,9999,9999,1933714532
106,18,15,Jits_Phase_8,33,9999,9999,9999,1934514300
106,18,15,Jits_Phase_8,34,9999,9999,9999,1935315068
106,18,15,Jits_Phase_8,35,9999,9999,9999,1936114760
106,18,15,Jits_Phase_8,36,9999,9999,9999,1936914528
106,18,15,Jits_Phase_8,37,9999,9999,9999,1937714288
106,18,15,Jits_Phase_8,38,9999,9999,9999,1938515024
106,18,15,Jits_Phase_8,39,9999,9999,9999,1939314804
106,18,15,Jits_Phase_8,40,9999,9999,9999,1940114504
106,18,15,Jits_Phase_8,41,9999,9999,9999,1940914280
106,18,15,Jits_Phase_8,42,9999,9999,9999,1941715032
106,18,15,Jits_Phase_8,43,9999,9999,9999,1942514796
106,18,15,Jits_Phase_8,44,9999,9999,9999,1943314536
106,18,15,Jits_Phase_8,45,9999,9999,9999,1944114296
106,18,15,Jits_Phase_8,46,9999,9999,9999,1944915044
106,18,15,Jits_Phase_8,47,9999,9999,9999,1945714812
106,18,15,Jits_Phase_8,48,9999,9999,9999,1946535036
106,18,15,Jits_Phase_8,49,9999,9999,9999,1947334756
106,18,15,Jits_Phase_8,50,9999,9999,9999,1948134512
106,18,15,Jits_Phase_8,51,9999,9999,9999,1948934208
106,18,15,Jits_Phase_8,52,9999,9999,9999,1949735032
106,18,15,Jits_Phase_8,53,9999,9999,9999,1950534736
106,18,15,Jits_Phase_8,54,9999,9999,9999,1951334508
106,18,15,Jits_Phase_8,55,9999,9999,9999,1952134204
106,18,15,Jits_Phase_8,56,9999,9999,9999,1952935008
106,18,15,Jits_Phase_8,57,9999,9999,9999,1953734732
106,18,15,Jits_Phase_8,58,9999,9999,9999,1954534508
106,18,15,Jits_Phase_8,59,9999,9999,9999,1955334204
106,18,15,Jits_Phase_8,60,9999,9999,9999,1956135020
106,18,15,Jits_Phase_8,61,9999,9999,9999,1956934712
106,18,15,Jits_Phase_8,62,9999,9999,9999,1957734472
106,18,15,Jits_Phase_8,63,9999,9999,9999,1958534224
106,18,15,Jits_Phase_8,64,9999,9999,9999,1959374932
106,18,15,Jits_Phase_8,65,9999,9999,9999,1960174692
106,18,15,Jits_Phase_8,66,9999,9999,9999,1960974400
106,18,15,Jits_Phase_8,67,9999,9999,9999,1961774164
106,18,15,Jits_Phase_8,68,9999,9999,9999,1962574956
106,18,15,Jits_Phase_8,69,9999,9999,9999,1963374656
106,18,15,Jits_Phase_8,70,9999,9999,9999,1964174424
106,18,15,Jits_Phase_8,71,9999,9999,9999,1964974192
106,18,15,Jits_Phase_8,72,9999,9999,9999,1965774948
106,18,15,Jits_Phase_8,73,9999,9999,9999,1966574648
106,18,15,Jits_Phase_8,74,9999,9999,9999,1967374424
106,18,15,Jits_Phase_8,75,9999,9999,9999,1968174184
106,18,15,Jits_Phase_8,76,9999,9999,9999,1968974924
106,18,15,Jits_Phase_8,77,9999,9999,9999,1969774700
106,18,15,Jits_Phase_8,78,9999,9999,9999,1970574448
106,18,15,Jits_Phase_8,79,9999,9999,9999,1971374148
106,18,15,Jits_Phase_8,80,9999,9999,9999,1972174904
106,18,15,Jits_Phase_8,81,9999,9999,9999,1972934728
106,18,15,Jits_Phase_8,82,9999,9999,9999,1973734488
106,18,15,Jits_Phase_8,83,9999,9999,9999,1974534240
106,18,15,Jits_Phase_8,84,9999,9999,9999,1975334980
106,18,15,Jits_Phase_8,85,9999,9999,9999,1976134756
106,18,15,Jits_Phase_8,86,9999,9999,9999,1976934504
106,18,15,Jits_Phase_8,87,9999,9999,9999,1977734256
106,18,15,Jits_Phase_8,88,9999,9999,9999,1978534984
106,18,15,Jits_Phase_8,89,9999,9999,9999,1979334776
106,18,15,Jits_Phase_8,90,9999,9999,9999,1980134472
106,18,15,Jits_Phase_8,91,9999,9999,9999,1980934228
106,18,15,Jits_Phase_8,92,9999,9999,9999,1981734980
106,18,15,Jits_Phase_8,93,9999,9999,9999,1982534732
106,18,15,Jits_Phase_8,94,9999,9999,9999,1983334492
106,18,15,Jits_Phase_8,95,9999,9999,9999,1984134264
106,18,15,Jits_Phase_8,96,9999,9999,9999,1984935008
106,18,15,Jits_Phase_8,97,9999,9999,9999,1985654904
106,18,15,Jits_Phase_8,98,9999,9999,9999,1986454608
106,18,15,Jits_Phase_8,99,9999,9999,9999,1987254384
106,18,15,Jits_Phase_8,100,9999,9999,9999,1988054096
106,18,15,Jits_Phase_8,101,9999,9999,9999,1988854904
106,18,15,Jits_Phase_8,102,9999,9999,9999,1989654596
106,18,15,Jits_Phase_8,103,9999,9999,9999,1990454352
106,18,15,Jits_Phase_8,104,9999,9999,9999,1991254124
106,18,15,Jits_Phase_8,105,9999,9999,9999,1992054864
106,18,15,Jits_Phase_8,106,9999,9999,9999,1992854620
106,18,15,Jits_Phase_8,107,9999,9999,9999,1993654360
106,18,15,Jits_Phase_8,108,9999,9999,9999,1994454068
106,18,15,Jits_Phase_8,109,9999,9999,9999,1995254872
106,18,15,Jits_Phase_8,110,9999,9999,9999,1996054644
106,18,15,Jits_Phase_8,111,9999,9999,9999,1996854332
106,18,15,Jits_Phase_8,112,9999,9999,9999,1997654100
106,18,15,Jits_Phase_8,113,9999,9999,9999,1998454848
106,18,15,Jits_Phase_8,114,9999,9999,9999,1999334508
106,18,15,Jits_Phase_8,115,9999,9999,9999,2000134264
106,18,15,Jits_Phase_8,116,9999,9999,9999,2000935000
106,18,15,Jits_Phase_8,117,9999,9999,9999,2001734784
106,18,15,Jits_Phase_8,118,9999,9999,9999,2002534484
106,18,15,Jits_Phase_8,119,9999,9999,9999,2003334248
106,18,15,Jits_Phase_8,120,9999,9999,9999,2004134992
106,18,15,Jits_Phase_8,121,9999,9999,9999,2004934772
106,18,15,Jits_Phase_8,122,9999,9999,9999,2005734520
106,18,15,Jits_Phase_8,123,9999,9999,9999,2006534200
106,18,15,Jits_Phase_8,124,9999,9999,9999,2007335012
106,18,15,Jits_Phase_8,125,9999,9999,9999,2008134760
106,18,15,Jits_Phase_8,126,9999,9999,9999,2008934528
106,18,15,Jits_Phase_8,127,9999,9999,9999,2009734216
106,18,15,Jits_Phase_8,128,9999,9999,9999,2010535020
106,18,15,Jits_Phase_8,129,9999,9999,9999,2011334728
106,18,15,Jits_Phase_8,130,9999,9999,9999,2012134512
106,18,15,Jits_Phase_8,131,9999,9999,9999,2013094968
106,18,15,Jits_Phase_8,132,9999,9999,9999,2013894748
106,18,15,Jits_Phase_8,133,9999,9999,9999,2014694512
106,18,15,Jits_Phase_8,134,9999,9999,9999,2015494272
106,18,15,Jits_Phase_8,135,9999,9999,9999,2016294992
106,18,15,Jits_Phase_8,136,9999,9999,9999,2017094752
106,18,15,Jits_Phase_8,137,9999,9999,9999,2017894524
106,18,15,Jits_Phase_8,138,9999,9999,9999,2018694220
106,18,15,Jits_Phase_8,139,9999,9999,9999,2019495036
106,18,15,Jits_Phase_8,140,9999,9999,9999,2020294744
106,18,15,Jits_Phase_8,141,9999,9999,9999,2021094504
106,18,15,Jits_Phase_8,142,9999,9999,9999,2021894268
106,18,15,Jits_Phase_8,143,9999,9999,9999,2022695000
106,18,15,Jits_Phase_8,144,9999,9999,9999,2023494732
106,18,15,Jits_Phase_8,145,9999,9999,9999,2024294496
106,18,15,Jits_Phase_8,146,9999,9999,9999,2025094252
106,18,15,Jits_Phase_8,147,9999,9999,9999,2025894980
106,18,15,Jits_Phase_8,148,9999,9999,9999,2026694768
106,18,15,Jits_Phase_8,149,9999,9999,9999,2027494524
106,18,15,Jits_Phase_8,150,9999,9999,9999,2028134464
106,18,15,Jits_Phase_8,151,9999,9999,9999,2028934232
106,18,15,Jits_Phase_8,152,9999,9999,9999,2029734984
106,18,15,Jits_Phase_8,153,9999,9999,9999,2030534772
106,18,15,Jits_Phase_8,154,9999,9999,9999,2031334524
106,18,15,Jits_Phase_8,155,9999,9999,9999,2032134212
106,18,15,Jits_Phase_8,156,9999,9999,9999,2032935012
106,18,15,Jits_Phase_8,157,9999,9999,9999,2033734772
106,18,15,Jits_Phase_8,158,9999,9999,9999,2034534456
106,18,15,Jits_Phase_8,159,9999,9999,9999,2035334228
106,18,15,Jits_Phase_8,160,9999,9999,9999,2036134980
106,18,15,Jits_Phase_8,161,9999,9999,9999,2036934764
106,18,15,Jits_Phase_8,162,9999,9999,9999,2037734456
106,18,15,Jits_Phase_8,163,9999,9999,9999,2038534212
106,18,15,Jits_Phase_8,164,9999,9999,9999,2039335016
106,18,15,Jits_Phase_8,165,9999,9999,9999,2040134772
106,18,15,Jits_Phase_8,166,9999,9999,9999,2040934476
106,18,15,Jits_Phase_8,167,9999,9999,9999,2041734236
106,18,15,Jits_Phase_8,168,9999,9999,9999,2042534984
106,18,15,Jits_Phase_8,169,9999,9999,9999,2043334780
106,19,19,Jits_Linear_5,0,5,56,103,2102281660
106,19,19,Jits_Linear_5,1,5,63,98,2102284680
106,19,19,Jits_Linear_5,2,5,80,127,2102287880
106,19,19,Jits_Linear_5,0,5,56,103,2102761968
106,19,19,Jits_Linear_5,1,5,63,98,2102764916
106,19,19,Jits_Linear_5,2,5,80,127,2102767964
106,19,19,Jits_Linear_5,0,5,56,103,2103242072
106,19,19,Jits_Linear_5,1,5,80,127,2103252492
106,19,19,Jits_Linear_5,2,5,63,98,2103271756
106,19,19,Jits_Linear_5,0,5,63,98,2103672324
106,19,19,Jits_Linear_5,1,5,80,127,2103701780
106,19,19,Jits_Linear_5,2,5,56,103,2103712052
106,19,19,Jits_Linear_5,0,5,80,127,2104211684
106,19,19,Jits_Linear_5,1,5,56,103,2104222028
106,19,19,Jits_Linear_5,2,5,63,98,2104251704
106,19,19,Jits_Linear_5,0,5,63,98,2104692164
106,19,19,Jits_Linear_5,1,5,56,103,2104721840
106,19,19,Jits_Linear_5,2,5,80,127,2104732112
106,19,19,Jits_Linear_5,0,5,56,103,2105132544
106,19,19,Jits_Linear_5,1,5,63,98,2105181700
106,19,19,Jits_Linear_5,2,5,80,127,2105201936
106,19,19,Jits_Linear_5,0,5,80,127,2105621864
106,19,19,Jits_Linear_5,1,5,63,98,2105671996
106,19,19,Jits_Linear_5,2,5,56,103,2105712012
106,19,19,Jits_Linear_5,0,5,56,103,2106112312
106,19,19,Jits_Linear_5,1,5,63,98,2106141988
106,19,19,Jits_Linear_5,2,1,48,61,2106156044
106,19,19,Jits_Linear_5,3,5,80,127,2106211736
106,19,19,Jits_Linear_5,0,5,56,103,2106601748
106,19,19,Jits_Linear_5,1,1,48,59,2106618496
106,19,19,Jits_Linear_5,2,5,80,127,2106662208
106,19,19,Jits_Linear_5,3,5,63,98,2106691888
106,19,19,Jits_Linear_5,0,5,56,103,2107101600
106,19,19,Jits_Linear_5,1,5,63,98,2107111724
106,19,19,Jits_Linear_5,2,5,80,127,2107151588
106,19,19,Jits_Linear_5,3,1,48,63,2107159340
106,19,19,Jits_Linear_5,0,5,63,98,2107592008
106,19,19,Jits_Linear_5,1,1,48,67,2107667196
106,19,19,Jits_Linear_5,2,5,80,127,2107671952
106,19,19,Jits_Linear_5,3,5,56,103,2107682072
106,19,19,Jits_Linear_5,0,5,63,98,2108141972
106,19,19,Jits_Linear_5,1,1,48,62,2108145612
106,19,19,Jits_Linear_5,2,5,56,103,2108181904
106,19,19,Jits_Linear_5,3,5,80,127,2108185044
106,19,19,Jits_Linear_5,0,5,56,103,2108601768
106,19,19,Jits_Linear_5,1,5,63,98,2108611992
106,19,19,Jits_Linear_5,2,1,48,73,2108648520
106,19,19,Jits_Linear_5,3,5,80,127,2108651776
106,19,19,Jits_Linear_5,0,5,56,103,2109092400
106,19,19,Jits_Linear_5,1,5,63,98,2109095244
106,19,19,Jits_Linear_5,2,5,80,127,2109111588
106,19,19,Jits_Linear_5,3,1,48,64,2109130248
106,19,19,Jits_Linear_5,0,5,80,127,2109612620
106,19,19,Jits_Linear_5,1,5,56,103,2109621620
106,19,19,Jits_Linear_5,2,1,48,68,2109630888
106,19,19,Jits_Linear_5,3,5,63,98,2109692264
106,19,19,Jits_Linear_5,0,5,63,98,2110112068
106,19,19,Jits_Linear_5,1,5,56,103,2110131556
106,19,19,Jits_Linear_5,2,1,48,64,2110147880
106,19,19,Jits_Linear_5,3,5,80,127,2110211596
106,19,19,Jits_Linear_5,0,5,56,103,2110632432
106,19,19,Jits_Linear_5,1,1,48,70,2110641480
106,19,19,Jits_Linear_5,2,5,80,127,2110672540
106,19,19,Jits_Linear_5,3,5,63,98,2110681540
106,19,19,Jits_Linear_5,0,5,80,127,2111131908
106,19,19,Jits_Linear_5,1,1,48,73,2111144616
106,19,19,Jits_Linear_5,2,5,63,98,2111161656
106,19,19,Jits_Linear_5,3,5,56,103,2111201692
106,19,19,Jits_Linear_5,0,5,56,103,2111661356
106,19,19,Jits_Linear_5,1,1,48,71,2111679792
106,19,19,Jits_Linear_5,2,5,63,98,2111692096
106,19,19,Jits_Linear_5,3,5,80,127,2111742524
106,19,19,Jits_Linear_5,0,5,80,127,2112172596
106,19,19,Jits_Linear_5,1,5,56,103,2112212488
106,19,19,Jits_Linear_5,2,5,63,98,2112221712
106,19,19,Jits_Linear_5,3,1,48,73,2112222680
106,19,19,Jits_Linear_5,0,5,80,127,2112672144
106,19,19,Jits_Linear_5,1,5,63,98,2112711964
106,19,19,Jits_Linear_5,2,1,48,71,2112769940
106,19,19,Jits_Linear_5,3,5,56,103,2112771600
106,19,19,Jits_Linear_5,0,5,56,103,2113192300
106,19,19,Jits_Linear_5,1,5,80,127,2113201744
106,19,19,Jits_Linear_5,2,1,48,62,2113246916
106,19,19,Jits_Linear_5,3,5,63,98,2113282536
106,19,19,Jits_Linear_5,0,5,80,127,2113711628
106,19,19,Jits_Linear_5,1,1,48,58,2113756876
106,19,19,Jits_Linear_5,2,5,63,98,2113771820
106,19,19,Jits_Linear_5,3,5,56,103,2113801496
106,19,19,Jits_Linear_5,0,5,56,103,2114231636
106,19,19,Jits_Linear_5,1,1,48,57,2114274564
106,19,19,Jits_Linear_5,2,5,80,127,2114292048
106,19,19,Jits_Linear_5,3,5,63,98,2114331988
106,19,19,Jits_Linear_5,0,5,56,103,2114812208
106,19,19,Jits_Linear_5,1,5,63,98,2114821432
106,19,19,Jits_Linear_5,2,5,80,127,2114824868
106,19,19,Jits_Linear_5,3,1,48,50,2114833240
106,19,19,Jits_Linear_5,0,5,80,127,2115291520
106,19,19,Jits_Linear_5,1,1,48,57,2115341168
106,19,19,Jits_Linear_5,2,5,63,98,2115381576
106,19,19,Jits_Linear_5,3,5,56,103,2115391772
106,19,19,Jits_Linear_5,0,5,56,103,2115821848
106,19,19,Jits_Linear_5,1,5,63,98,2115825020
106,19,19,Jits_Linear_5,2,5,80,127,2115828144
106,19,19,Jits_Linear_5,3,1,48,55,2115900728
106,19,19,Jits_Linear_5,0,5,80,127,2116371740
106,19,19,Jits_Linear_5,1,1,48,54,2116377476
106,19,19,Jits_Linear_5,2,5,63,98,2116421940
106,19,19,Jits_Linear_5,3,5,56,103,2116451616
106,19,19,Jits_Linear_5,0,5,56,103,2116881636
106,19,19,Jits_Linear_5,1,5,80,127,2116892056
106,19,19,Jits_Linear_5,2,1,48,61,2116898464
106,19,19,Jits_Linear_5,3,5,63,98,2116961732
106,19,19,Jits_Linear_5,0,5,56,103,2117421496
106,19,19,Jits_Linear_5,1,1,48,56,2117437868
106,19,19,Jits_Linear_5,2,5,63,98,2117442020
106,19,19,Jits_Linear_5,3,5,80,127,2117502564
106,19,19,Jits_Linear_5,0,5,80,127,2117951988
106,19,19,Jits_Linear_5,1,1,48,59,2117974736
106,19,19,Jits_Linear_5,2,5,63,98,2118021592
106,19,19,Jits_Linear_5,3,5,56,103,2118041900
106,19,19,Jits_Linear_5,0,5,80,127,2118512080
106,19,19,Jits_Linear_5,1,5,56,103,2118522424
106,19,19,Jits_Linear_5,2,5,63,98,2118531572
106,19,19,Jits_Linear_5,3,1,48,56,2118532540
106,19,19,Jits_Linear_5,0,5,80,127,2119042568
106,19,19,Jits_Linear_5,1,1,48,55,2119049664
106,19,19,Jits_Linear_5,2,5,56,103,2119061824
106,19,19,Jits_Linear_5,3,5,63,98,2119131384
106,19,19,Jits_Linear_5,0,1,48,55,2119587472
106,19,19,Jits_Linear_5,1,5,56,103,2119592376
106,19,19,Jits_Linear_5,2,5,80,127,2119621932
106,19,19,Jits_Linear_5,3,5,63,98,2119641420
106,19,19,Jits_Linear_5,0,1,48,63,2120112648
106,19,19,Jits_Linear_5,1,5,63,98,2120131876
106,19,19,Jits_Linear_5,2,5,56,103,2120192568
106,19,19,Jits_Linear_5,3,5,80,127,2120221932
106,19,19,Jits_Linear_5,0,5,63,98,2120671576
106,19,19,Jits_Linear_5,1,5,80,127,2120674864
106,19,19,Jits_Linear_5,2,1,48,68,2120679572
106,19,19,Jits_Linear_5,3,5,56,103,2120761628
106,19,19,Jits_Linear_5,0,5,56,103,2121241980
106,19,19,Jits_Linear_5,1,1,48,63,2121251472
106,19,19,Jits_Linear_5,2,5,63,98,2121271576
106,19,19,Jits_Linear_5,3,5,80,127,2121311588
106,19,19,Jits_Linear_5,0,5,63,98,2121791804
106,19,19,Jits_Linear_5,1,1,48,57,2121794628
106,19,19,Jits_Linear_5,2,5,56,103,2121831668
106,19,19,Jits_Linear_5,3,5,80,127,2121852496
106,19,19,Jits_Linear_5,0,1,48,57,2122310720
106,19,19,Jits_Linear_5,1,5,63,98,2122352024
106,19,19,Jits_Linear_5,2,5,56,103,2122391964
106,19,19,Jits_Linear_5,3,5,80,127,2122402308
106,19,19,Jits_Linear_5,0,1,48,63,2122850640
106,19,19,Jits_Linear_5,1,5,80,127,2122882576
106,19,19,Jits_Linear_5,2,5,63,98,2122952124
106,19,19,Jits_Linear_5,3,5,56,103,2122971464
106,19,19,Jits_Linear_5,0,1,48,62,2123423152
106,19,19,Jits_Linear_5,1,5,56,103,2123432464
106,19,19,Jits_Linear_5,2,5,80,127,2123451728
106,19,19,Jits_Linear_5,3,5,63,98,2123491840
106,19,19,Jits_Linear_5,0,1,48,56,2123993884
106,19,19,Jits_Linear_5,1,5,63,98,2124001628
106,19,19,Jits_Linear_5,2,5,80,127,2124022236
106,19,19,Jits_Linear_5,3,5,56,103,2124062028
106,19,19,Jits_Linear_5,0,1,48,54,2124550364
106,19,19,Jits_Linear_5,1,5,63,98,2124561772
106,19,19,Jits_Linear_5,2,5,56,103,2124582380
106,19,19,Jits_Linear_5,3,5,80,127,2124591456
106,19,19,Jits_Linear_5,0,1,48,60,2125108396
106,19,19,Jits_Linear_5,1,5,80,127,2125121992
106,19,19,Jits_Linear_5,2,5,56,103,2125142304
106,19,19,Jits_Linear_5,3,5,63,98,2125172052
106,19,19,Jits_Linear_5,0,1,48,53,2125667192
106,19,19,Jits_Linear_5,1,5,56,103,2125762468
106,19,19,Jits_Linear_5,2,5,80,127,2125765528
106,19,19,Jits_Linear_5,3,5,63,98,2125782328
106,19,19,Jits_Linear_5,0,5,63,98,2126261544
106,19,19,Jits_Linear_5,1,1,48,56,2126280500
106,19,19,Jits_Linear_5,2,5,56,103,2126292512
106,19,19,Jits_Linear_5,3,5,80,127,2126351632
106,19,19,Jits_Linear_5,0,1,48,65,2126845432
106,19,19,Jits_Linear_5,1,5,63,98,2126911992
106,19,19,Jits_Linear_5,2,5,56,103,2126922040
106,19,19,Jits_Linear_5,3,5,80,127,2126932312
106,19,19,Jits_Linear_5,0,5,56,103,2127432072
106,19,19,Jits_Linear_5,1,1,48,56,2127451532
106,19,19,Jits_Linear_5,2,5,80,127,2127461744
106,19,19,Jits_Linear_5,3,5,63,98,2127472088
106,19,19,Jits_Linear_5,0,1,48,54,2128027036
106,19,19,Jits_Linear_5,1,5,63,98,2128042428
106,19,19,Jits_Linear_5,2,5,56,103,2128051504
106,19,19,Jits_Linear_5,3,5,80,127,2128071912
106,19,19,Jits_Linear_5,0,5,56,103,2128542048
106,19,19,Jits_Linear_5,1,5,63,98,2128601568
106,19,19,Jits_Linear_5,2,5,80,127,2128604708
106,19,19,Jits_Linear_5,3,1,48,74,2128624612
106,19,19,Jits_Linear_5,0,5,80,127,2129142308
106,19,19,Jits_Linear_5,1,5,56,103,2129152360
106,19,19,Jits_Linear_5,2,1,48,55,2129215408
106,19,19,Jits_Linear_5,3,5,63,98,2129222036
106,19,19,Jits_Linear_5,0,5,80,127,2129711468
106,19,19,Jits_Linear_5,1,1,48,68,2129772732
106,19,19,Jits_Linear_5,2,5,56,103,2129782192
106,19,19,Jits_Linear_5,3,5,63,98,2129792316
106,19,19,Jits_Linear_5,0,5,63,98,2130331948
106,19,19,Jits_Linear_5,1,5,56,103,2130342220
106,19,19,Jits_Linear_5,2,5,80,127,2130361780
106,19,19,Jits_Linear_5,3,1,48,73,2130374512
106,19,19,Jits_Linear_5,0,5,80,127,2130861444
106,19,19,Jits_Linear_5,1,5,63,98,2130921864
106,19,19,Jits_Linear_5,2,1,48,61,2130943264
106,19,19,Jits_Linear_5,3,5,56,103,2130961868
106,19,19,Jits_Linear_5,0,5,56,103,2131492360
106,19,19,Jits_Linear_5,1,5,63,98,2131501288
106,19,19,Jits_Linear_5,2,1,48,60,2131531980
106,19,19,Jits_Linear_5,3,5,80,127,2131542488
106,19,19,Jits_Linear_5,0,5,56,103,2132052296
106,19,19,Jits_Linear_5,1,5,80,127,2132081972
106,19,19,Jits_Linear_5,2,1,48,63,2132107112
106,19,19,Jits_Linear_5,3,5,63,98,2132132392
106,19,19,Jits_Linear_5,0,5,56,103,2132682232
106,19,19,Jits_Linear_5,1,1,48,48,2132708576
106,19,19,Jits_Linear_5,2,5,63,98,2132722168
106,19,19,Jits_Linear_5,3,5,80,127,2132725456
106,19,19,Jits_Linear_5,0,5,56,103,2133271912
106,19,19,Jits_Linear_5,1,5,63,98,2133282184
106,19,19,Jits_Linear_5,2,1,48,72,2133287320
106,19,19,Jits_Linear_5,3,5,80,127,2133301588
106,19,19,Jits_Linear_5,0,5,56,103,2133821652
106,19,19,Jits_Linear_5,1,5,80,127,2133824876
106,19,19,Jits_Linear_5,2,5,63,98,2133861748
106,19,19,Jits_Linear_5,3,1,48,69,2133884716
106,19,19,Jits_Linear_5,0,5,63,98,2134451564
106,19,19,Jits_Linear_5,1,1,48,56,2134470972
106,19,19,Jits_Linear_5,2,5,56,103,2134482380
106,19,19,Jits_Linear_5,3,5,80,127,2134501644
106,19,19,Jits_Linear_5,0,5,80,127,2135021848
106,19,19,Jits_Linear_5,1,5,56,103,2135032192
106,19,19,Jits_Linear_5,2,5,63,98,2135042316
106,19,19,Jits_Linear_5,3,1,48,61,2135043284
106,19,19,Jits_Linear_5,0,1,48,70,2135599364
106,19,19,Jits_Linear_5,1,5,56,103,2135621932
106,19,19,Jits_Linear_5,2,5,80,127,2135661948
106,19,19,Jits_Linear_5,3,5,63,98,2135691552
106,19,19,Jits_Linear_5,0,1,48,56,2136199888
106,19,19,Jits_Linear_5,1,5,63,98,2136232352
106,19,19,Jits_Linear_5,2,5,80,127,2136241504
106,19,19,Jits_Linear_5,3,5,56,103,2136251624
106,19,19,Jits_Linear_5,0,5,56,103,2136811784
106,19,19,Jits_Linear_5,1,1,48,61,2136819540
106,19,19,Jits_Linear_5,2,5,63,98,2136881464
106,19,19,Jits_Linear_5,3,5,80,127,2136891736
106,19,19,Jits_Linear_5,0,5,80,127,2137422368
106,19,19,Jits_Linear_5,1,5,56,103,2137432416
106,19,19,Jits_Linear_5,2,1,48,56,2137449384
106,19,19,Jits_Linear_5,3,5,63,98,2137481568
106,19,19,Jits_Linear_5,0,5,80,127,2138041572
106,19,19,Jits_Linear_5,1,1,48,66,2138042540
106,19,19,Jits_Linear_5,2,5,56,103,2138102204
106,19,19,Jits_Linear_5,3,5,63,98,2138131732
106,19,19,Jits_Linear_5,0,5,56,103,2138652332
106,19,19,Jits_Linear_5,1,5,80,127,2138655320
106,19,19,Jits_Linear_5,2,1,48,51,2138688404
106,19,19,Jits_Linear_5,3,5,63,98,2138692112
106,19,19,Jits_Linear_5,0,1,48,63,2139267060
106,19,19,Jits_Linear_5,1,5,56,103,2139292192
106,19,19,Jits_Linear_5,2,5,63,98,2139321648
106,19,19,Jits_Linear_5,3,5,80,127,2139332240
106,19,19,Jits_Linear_5,0,1,48,54,2139901420
106,19,19,Jits_Linear_5,1,5,63,98,2139911632
106,19,19,Jits_Linear_5,2,5,80,127,2139921756
106,19,19,Jits_Linear_5,3,5,56,103,2139932100
106,19,19,Jits_Linear_5,0,5,80,127,2140471564
106,19,19,Jits_Linear_5,1,1,48,58,2140497528
106,19,19,Jits_Linear_5,2,5,56,103,2140521908
106,19,19,Jits_Linear_5,3,5,63,98,2140525200
106,19,19,Jits_Linear_5,0,1,48,69,2141112972
106,19,19,Jits_Linear_5,1,5,56,103,2141121788
106,19,19,Jits_Linear_5,2,5,80,127,2141142324
106,19,19,Jits_Linear_5,3,5,63,98,2141151472
106,19,19,Jits_Linear_5,0,5,63,98,2141722172
106,19,19,Jits_Linear_5,1,1,48,67,2141752076
106,19,19,Jits_Linear_5,2,5,56,103,2141753264
106,19,19,Jits_Linear_5,3,5,80,127,2141772376
106,19,19,Jits_Linear_5,0,5,56,103,2142351696
106,19,19,Jits_Linear_5,1,5,80,127,2142362116
106,19,19,Jits_Linear_5,2,1,48,58,2142393184
106,19,19,Jits_Linear_5,3,5,63,98,2142431592
106,19,19,Jits_Linear_5,0,5,63,98,2142962376
106,19,19,Jits_Linear_5,1,1,48,61,2142997036
106,19,19,Jits_Linear_5,2,5,80,127,2143001940
106,19,19,Jits_Linear_5,3,5,56,103,2143041804
106,19,19,Jits_Linear_5,0,5,56,103,2143602244
106,19,19,Jits_Linear_5,1,5,63,98,2143612216
106,19,19,Jits_Linear_5,2,1,48,70,2143619076
106,19,19,Jits_Linear_5,3,5,80,127,2143631848
106,19,19,Jits_Linear_5,0,1,48,69,2144202032
106,19,19,Jits_Linear_5,1,5,63,98,2144271592
106,19,19,Jits_Linear_5,2,5,80,127,2144293380
106,19,19,Jits_Linear_5,3,5,56,103,2144311596
106,19,19,Jits_Linear_5,0,5,56,103,2144842304
106,19,19,Jits_Linear_5,1,1,48,58,2144871584
106,19,19,Jits_Linear_5,2,5,80,127,2144922100
106,19,19,Jits_Linear_5,3,5,63,98,2144932296
106,19,19,Jits_Linear_5,0,1,48,66,2145510216
106,19,19,Jits_Linear_5,1,5,80,127,2145511728
106,19,19,Jits_Linear_5,2,5,63,98,2145522224
106,19,19,Jits_Linear_5,3,5,56,103,2145551676
106,19,19,Jits_Linear_5,0,5,63,98,2146101552
106,19,19,Jits_Linear_5,1,5,80,127,2146141492
106,19,19,Jits_Linear_5,2,1,48,66,2146151436
106,19,19,Jits_Linear_5,3,5,56,103,2146202172
106,19,19,Jits_Linear_5,0,5,63,98,2146741568
106,19,19,Jits_Linear_5,1,1,48,63,2146765916
106,19,19,Jits_Linear_5,2,5,56,103,2146791716
106,19,19,Jits_Linear_5,3,5,80,127,2146821392
106,19,19,Jits_Linear_5,0,1,48,57,2147371684
106,19,19,Jits_Linear_5,1,5,80,127,2147391788
106,19,19,Jits_Linear_5,2,5,63,98,2147402360
106,19,19,Jits_Linear_5,3,5,56,103,2147471652
106,19,19,Jits_Linear_5,0,1,48,54,2148021064
106,19,19,Jits_Linear_5,1,5,80,127,2148101436
106,19,19,Jits_Linear_5,2,5,56,103,2148111624
106,19,19,Jits_Linear_5,3,5,63,98,2148115144
106,19,19,Jits_Linear_5,0,5,56,103,2148682112
106,19,19,Jits_Linear_5,1,5,80,127,2148701524
106,19,19,Jits_Linear_5,2,1,48,59,2148709976
106,19,19,Jits_Linear_5,3,5,63,98,2148711716
106,19,19,Jits_Linear_5,0,1,48,65,2149314484
106,19,19,Jits_Linear_5,1,5,63,98,2149332200
106,19,19,Jits_Linear_5,2,5,56,103,2149372364
106,19,19,Jits_Linear_5,3,5,80,127,2149391776
106,19,19,Jits_Linear_5,0,1,48,63,2149950020
106,19,19,Jits_Linear_5,1,5,63,98,2149981512
106,19,19,Jits_Linear_5,2,5,56,103,2150042200
106,19,19,Jits_Linear_5,3,5,80,127,2150046076
106,19,19,Jits_Linear_5,0,5,56,103,2150591728
106,19,19,Jits_Linear_5,1,5,80,127,2150612412
106,19,19,Jits_Linear_5,2,1,48,62,2150618820
106,19,19,Jits_Linear_5,3,5,63,98,2150652344
106,19,19,Jits_Linear_5,0,1,48,59,2151272136
106,19,19,Jits_Linear_5,1,5,56,103,2151273324
106,19,19,Jits_Linear_5,2,5,63,98,2151292216
106,19,19,Jits_Linear_5,3,5,80,127,2151301444
106,19,19,Jits_Linear_5,0,5,80,127,2151892388
106,19,19,Jits_Linear_5,1,1,48,64,2151903076
106,19,19,Jits_Linear_5,2,5,56,103,2151922208
106,19,19,Jits_Linear_5,3,5,63,98,2151962072
106,19,19,Jits_Linear_5,0,1,48,59,2152523092
106,19,19,Jits_Linear_5,1,5,80,127,2152551736
106,19,19,Jits_Linear_5,2,5,56,103,2152572124
106,19,19,Jits_Linear_5,3,5,63,98,2152631604
106,19,19,Jits_Linear_5,0,1,48,52,2153167916
106,19,19,Jits_Linear_5,1,5,56,103,2153212232
106,19,19,Jits_Linear_5,2,5,80,127,2153232164
106,19,19,Jits_Linear_5,3,5,63,98,2153292316
106,19,19,Jits_Linear_5,0,5,80,127,2153852252
106,19,19,Jits_Linear_5,1,5,56,103,2153861476
106,19,19,Jits_Linear_5,2,1,48,50,2153877024
106,19,19,Jits_Linear_5,3,5,63,98,2153901408
106,19,19,Jits_Linear_5,0,5,63,98,2154511628
106,19,19,Jits_Linear_5,1,1,48,62,2154524264
106,19,19,Jits_Linear_5,2,5,56,103,2154551784
106,19,19,Jits_Linear_5,3,5,80,127,2154554628
106,19,19,Jits_Linear_5,0,1,48,72,2155175340
106,19,19,Jits_Linear_5,1,5,63,98,2155191852
106,19,19,Jits_Linear_5,2,5,80,127,2155231896
106,19,19,Jits_Linear_5,3,5,56,103,2155262244
106,19,19,Jits_Linear_5,0,5,56,103,2155841864
106,19,19,Jits_Linear_5,1,5,63,98,2155852136
106,19,19,Jits_Linear_5,2,5,80,127,2155881960
106,19,19,Jits_Linear_5,3,1,48,66,2155890860
106,19,19,Jits_Linear_5,0,5,80,127,2156502368
106,19,19,Jits_Linear_5,1,1,48,65,2156543996
106,19,19,Jits_Linear_5,2,5,63,98,2156571972
106,19,19,Jits_Linear_5,3,5,56,103,2156582240
106,19,19,Jits_Linear_5,0,5,63,98,2157172216
106,19,19,Jits_Linear_5,1,1,48,66,2157227848
106,19,19,Jits_Linear_5,2,5,56,103,2157241744
106,19,19,Jits_Linear_5,3,5,80,127,2157252188
106,19,19,Jits_Linear_5,0,5,63,98,2157841848
106,19,19,Jits_Linear_5,1,5,56,103,2157862384
106,19,19,Jits_Linear_5,2,5,80,127,2157902320
106,19,19,Jits_Linear_5,3,1,48,61,2157907012
106,19,19,Jits_Linear_5,0,5,56,103,2158521716
106,19,19,Jits_Linear_5,1,5,63,98,2158532088
106,19,19,Jits_Linear_5,2,1,48,55,2158550500
106,19,19,Jits_Linear_5,3,5,80,127,2158612024
106,19,19,Jits_Linear_5,0,5,63,98,2159182224
106,19,19,Jits_Linear_5,1,1,48,63,2159186992
106,19,19,Jits_Linear_5,2,5,56,103,2159211896
106,19,19,Jits_Linear_5,3,5,80,127,2159252056
106,19,19,Jits_Linear_5,0,1,48,62,2159848520
106,19,19,Jits_Linear_5,1,5,56,103,2159852000
106,19,19,Jits_Linear_5,2,5,63,98,2159891868
106,19,19,Jits_Linear_5,3,5,80,127,2159932028
106,19,19,Jits_Linear_5,0,1,48,54,2160492208
106,19,19,Jits_Linear_5,1,5,80,127,2160531944
106,19,19,Jits_Linear_5,2,5,56,103,2160611680
106,19,19,Jits_Linear_5,3,5,63,98,2160622100
106,19,19,Jits_Linear_5,0,1,48,65,2161198768
106,19,19,Jits_Linear_5,1,5,56,103,2161251628
106,19,19,Jits_Linear_5,2,5,63,98,2161254620
106,19,19,Jits_Linear_5,3,5,80,127,2161262120
106,19,19,Jits_Linear_5,0,1,48,61,2161907356
106,19,19,Jits_Linear_5,1,5,56,103,2161952120
106,19,19,Jits_Linear_5,2,5,63,98,2161971536
106,19,19,Jits_Linear_5,3,5,80,127,2161982028
106,19,19,Jits_Linear_5,0,5,63,98,2162591996
106,19,19,Jits_Linear_5,1,5,80,127,2162602340
106,19,19,Jits_Linear_5,2,1,48,57,2162619308
106,19,19,Jits_Linear_5,3,5,56,103,2162622144
106,19,19,Jits_Linear_5,0,5,63,98,2163282156
106,19,19,Jits_Linear_5,1,1,48,55,2163299052
106,19,19,Jits_Linear_5,2,5,56,103,2163362016
106,19,19,Jits_Linear_5,3,5,80,127,2163365164
106,19,19,Jits_Linear_5,0,5,63,98,2163971488
106,19,19,Jits_Linear_5,1,1,48,62,2163988308
106,19,19,Jits_Linear_5,2,5,56,103,2163992092
106,19,19,Jits_Linear_5,3,5,80,127,2164021544
106,19,19,Jits_Linear_5,0,1,48,62,2164646000
106,19,19,Jits_Linear_5,1,5,56,103,2164661612
106,19,19,Jits_Linear_5,2,5,63,98,2164682024
106,19,19,Jits_Linear_5,3,5,80,127,2164692368
106,19,19,Jits_Linear_5,0,1,48,54,2165335336
106,19,19,Jits_Linear_5,1,5,56,103,2165381520
106,19,19,Jits_Linear_5,2,5,63,98,2165412088
106,19,19,Jits_Linear_5,3,5,80,127,2165415456
106,19,19,Jits_Linear_5,0,5,56,103,2166021556
106,19,19,Jits_Linear_5,1,5,63,98,2166061496
106,19,19,Jits_Linear_5,2,1,48,59,2166079908
106,19,19,Jits_Linear_5,3,5,80,127,2166122028
106,19,19,Jits_Linear_5,0,5,56,103,2166732184
106,19,19,Jits_Linear_5,1,5,63,98,2166742308
106,19,19,Jits_Linear_5,2,1,48,53,2166794872
106,19,19,Jits_Linear_5,3,5,80,127,2166801940
106,19,19,Jits_Linear_5,0,5,56,103,2167431624
106,19,19,Jits_Linear_5,1,1,48,53,2167452232
106,19,19,Jits_Linear_5,2,5,80,127,2167453572
106,19,19,Jits_Linear_5,3,5,63,98,2167481828
106,19,19,Jits_Linear_5,0,1,48,60,2168108792
106,19,19,Jits_Linear_5,1,5,80,127,2168132056
106,19,19,Jits_Linear_5,2,5,56,103,2168142180
106,19,19,Jits_Linear_5,3,5,63,98,2168161740
106,19,19,Jits_Linear_5,0,1,48,56,2168792896
106,19,19,Jits_Linear_5,1,5,63,98,2168822068
106,19,19,Jits_Linear_5,2,5,80,127,2168902000
106,19,19,Jits_Linear_5,3,5,56,103,2168912196
106,19,19,Jits_Linear_5,0,1,48,55,2169525884
106,19,19,Jits_Linear_5,1,5,80,127,2169581984
106,19,19,Jits_Linear_5,2,5,56,103,2169602368
106,19,19,Jits_Linear_5,3,5,63,98,2169605360
106,19,19,Jits_Linear_5,0,5,63,98,2170262080
106,19,19,Jits_Linear_5,1,5,80,127,2170265296
106,19,19,Jits_Linear_5,2,1,48,69,2170287820
106,19,19,Jits_Linear_5,3,5,56,103,2170322268
106,19,19,Jits_Linear_5,0,5,56,103,2170952160
106,19,19,Jits_Linear_5,1,5,80,127,2170962428
106,19,19,Jits_Linear_5,2,5,63,98,2171002368
106,19,19,Jits_Linear_5,3,1,48,66,2171006536
106,19,19,Jits_Linear_5,0,5,56,103,2171642180
106,19,19,Jits_Linear_5,1,1,48,61,2171697740
106,19,19,Jits_Linear_5,2,5,63,98,2171701596
106,19,19,Jits_Linear_5,3,5,80,127,2171712016
106,19,19,Jits_Linear_5,0,5,63,98,2172362028
106,19,19,Jits_Linear_5,1,1,48,56,2172397060
106,19,19,Jits_Linear_5,2,5,80,127,2172401888
106,19,19,Jits_Linear_5,3,5,56,103,2172442052
106,19,19,Jits_Linear_5,0,1,48,68,2173069200
106,19,19,Jits_Linear_5,1,5,56,103,2173072084
106,19,19,Jits_Linear_5,2,5,63,98,2173151836
106,19,19,Jits_Linear_5,3,5,80,127,2173155124
106,19,19,Jits_Linear_5,0,1,48,57,2173788804
106,19,19,Jits_Linear_5,1,5,80,127,2173841892
106,19,19,Jits_Linear_5,2,5,56,103,2173871416
106,19,19,Jits_Linear_5,3,5,63,98,2173874408
106,19,19,Jits_Linear_5,0,5,56,103,2174522008
106,19,19,Jits_Linear_5,1,5,80,127,2174542172
106,19,19,Jits_Linear_5,2,1,48,65,2174554284
106,19,19,Jits_Linear_5,3,5,63,98,2174582104
106,19,19,Jits_Linear_5,0,5,80,127,2175222144
106,19,19,Jits_Linear_5,1,1,48,62,2175241928
106,19,19,Jits_Linear_5,2,5,63,98,2175243120
106,19,19,Jits_Linear_5,3,5,56,103,2175302016
106,19,19,Jits_Linear_5,0,1,48,72,2175942784
106,19,19,Jits_Linear_5,1,5,63,98,2175952096
106,19,19,Jits_Linear_5,2,5,56,103,2175961396
106,19,19,Jits_Linear_5,3,5,80,127,2176011820
106,19,19,Jits_Linear_5,0,1,48,66,2176638224
106,19,19,Jits_Linear_5,1,5,56,103,2176662008
106,19,19,Jits_Linear_5,2,5,63,98,2176682244
106,19,19,Jits_Linear_5,3,5,80,127,2176691768
106,19,19,Jits_Linear_5,0,1,48,60,2177367860
106,19,19,Jits_Linear_5,1,5,56,103,2177381832
106,19,19,Jits_Linear_5,2,5,63,98,2177384748
106,19,19,Jits_Linear_5,3,5,80,127,2177402364
106,19,19,Jits_Linear_5,0,1,48,61,2178070304
106,19,19,Jits_Linear_5,1,5,63,98,2178151920
106,19,19,Jits_Linear_5,2,5,56,103,2178181360
106,19,19,Jits_Linear_5,3,5,80,127,2178212308
106,19,19,Jits_Linear_5,0,5,80,127,2178841940
106,19,19,Jits_Linear_5,1,1,48,63,2178856520
106,19,19,Jits_Linear_5,2,5,56,103,2178932144
106,19,19,Jits_Linear_5,3,5,63,98,2178935064
106,19,19,Jits_Linear_5,0,5,56,103,2179571952
106,19,19,Jits_Linear_5,1,5,80,127,2179575100
106,19,19,Jits_Linear_5,2,1,48,58,2179623404
106,19,19,Jits_Linear_5,3,5,63,98,2179651896
106,19,19,Jits_Linear_5,0,5,80,127,2180302132
106,19,19,Jits_Linear_5,1,1,48,62,2180337460
106,19,19,Jits_Linear_5,2,5,63,98,2180361696
106,19,19,Jits_Linear_5,3,5,56,103,2180392268
106,19,19,Jits_Linear_5,0,5,63,98,2181032212
106,19,19,Jits_Linear_5,1,5,80,127,2181041660
106,19,19,Jits_Linear_5,2,1,48,59,2181053800
106,19,19,Jits_Linear_5,3,5,56,103,2181112108
106,19,19,Jits_Linear_5,0,1,48,58,2181768852
106,19,19,Jits_Linear_5,1,5,56,103,2181781852
106,19,19,Jits_Linear_5,2,5,80,127,2181811680
106,19,19,Jits_Linear_5,3,5,63,98,2181861832
106,19,19,Jits_Linear_5,0,1,48,51,2182542036
106,19,19,Jits_Linear_5,1,5,63,98,2182562216
106,19,19,Jits_Linear_5,2,5,56,103,2182591992
106,19,19,Jits_Linear_5,3,5,80,127,2182595060
106,19,19,Jits_Linear_5,0,1,48,59,2183286576
106,19,19,Jits_Linear_5,1,5,63,98,2183301444
106,19,19,Jits_Linear_5,2,5,80,127,2183321832
106,19,19,Jits_Linear_5,3,5,56,103,2183332400
106,19,19,Jits_Linear_5,0,1,48,50,2184052296
106,19,19,Jits_Linear_5,1,5,56,103,2184053812
106,19,19,Jits_Linear_5,2,5,63,98,2184056476
106,19,19,Jits_Linear_5,3,5,80,127,2184071552
106,19,19,Jits_Linear_5,0,5,56,103,2184751516
106,19,19,Jits_Linear_5,1,5,63,98,2184761936
106,19,19,Jits_Linear_5,2,5,80,127,2184792364
106,19,19,Jits_Linear_5,3,1,48,61,2184809560
106,19,19,Jits_Linear_5,0,1,48,62,2185501748
106,19,19,Jits_Linear_5,1,5,63,98,2185521552
106,19,19,Jits_Linear_5,2,5,80,127,2185541936
106,19,19,Jits_Linear_5,3,5,56,103,2185581952
106,19,19,Jits_Linear_5,0,1,48,54,2186278352
106,19,19,Jits_Linear_5,1,5,56,103,2186301764
106,19,19,Jits_Linear_5,2,5,63,98,2186341852
106,19,19,Jits_Linear_5,3,5,80,127,2186345144
106,19,19,Jits_Linear_5,0,5,80,127,2186991924
106,19,19,Jits_Linear_5,1,5,56,103,2187032088
106,19,19,Jits_Linear_5,2,1,48,61,2187032980
106,19,19,Jits_Linear_5,3,5,63,98,2187082060
106,19,19,Jits_Linear_5,0,1,48,65,2187798040
106,19,19,Jits_Linear_5,1,5,56,103,2187801824
106,19,19,Jits_Linear_5,2,5,80,127,2187812240
106,19,19,Jits_Linear_5,3,5,63,98,2187841844
106,19,19,Jits_Linear_5,0,5,56,103,2188511548
106,19,19,Jits_Linear_5,1,5,80,127,2188551636
106,19,19,Jits_Linear_5,2,5,63,98,2188601840
106,19,19,Jits_Linear_5,3,1,48,60,2188609292
106,19,19,Jits_Linear_5,0,5,56,103,2189272372
106,19,19,Jits_Linear_5,1,5,80,127,2189312312
106,19,19,Jits_Linear_5,2,5,63,98,2189361692
106,19,19,Jits_Linear_5,3,1,48,58,2189375672
106,19,19,Jits_Linear_5,0,5,80,127,2190021884
106,19,19,Jits_Linear_5,1,1,48,57,2190096476
106,19,19,Jits_Linear_5,2,5,63,98,2190101976
106,19,19,Jits_Linear_5,3,5,56,103,2190112096
106,19,19,Jits_Linear_5,0,5,80,127,2190831864
106,19,19,Jits_Linear_5,1,5,56,103,2190842208
106,19,19,Jits_Linear_5,2,1,48,60,2190856864
106,19,19,Jits_Linear_5,3,5,63,98,2190861840
106,19,19,Jits_Linear_5,0,5,63,98,2191562048
106,19,19,Jits_Linear_5,1,1,48,57,2191617904
106,19,19,Jits_Linear_5,2,5,56,103,2191631644
106,19,19,Jits_Linear_5,3,5,80,127,2191634792
106,19,19,Jits_Linear_5,0,5,80,127,2192321880
106,19,19,Jits_Linear_5,1,1,48,53,2192363136
106,19,19,Jits_Linear_5,2,5,63,98,2192372152
106,19,19,Jits_Linear_5,3,5,56,103,2192412016
106,19,19,Jits_Linear_5,0,5,63,98,2193131856
106,19,19,Jits_Linear_5,1,1,48,54,2193138560
106,19,19,Jits_Linear_5,2,5,56,103,2193171792
106,19,19,Jits_Linear_5,3,5,80,127,2193182208
106,19,19,Jits_Linear_5,0,5,63,98,2193891700
106,19,19,Jits_Linear_5,1,5,56,103,2193912160
106,19,19,Jits_Linear_5,2,1,48,60,2193915652
106,19,19,Jits_Linear_5,3,5,80,127,2193931788
106,19,19,Jits_Linear_5,0,5,80,127,2194621792
106,19,19,Jits_Linear_5,1,5,56,103,2194631988
106,19,19,Jits_Linear_5,2,5,63,98,2194651700
106,19,19,Jits_Linear_5,3,1,48,57,2194678780
106,19,19,Jits_Linear_5,0,1,48,46,2195075628
106,19,19,Jits_Linear_5,1,5,63,98,2195421852
106,19,19,Jits_Linear_5,2,5,56,103,2195461568
106,19,19,Jits_Linear_5,3,5,80,127,2195492144
106,19,19,Jits_Linear_5,4,1,48,53,2195494812
106,19,19,Jits_Linear_5,0,5,56,103,2196201696
106,19,19,Jits_Linear_5,1,5,63,98,2196231744
106,19,19,Jits_Linear_5,2,5,80,127,2196262244
106,19,19,Jits_Linear_5,3,1,48,53,2196278616
106,19,19,Jits_Linear_5,0,5,80,127,2196952704
106,19,19,Jits_Linear_5,1,1,48,50,2196974404
106,19,19,Jits_Linear_5,2,5,56,103,2197022156
106,19,19,Jits_Linear_5,3,5,63,98,2197025072
106,19,19,Jits_Linear_5,0,5,56,103,2197741920
106,19,19,Jits_Linear_5,1,1,48,52,2197758368
106,19,19,Jits_Linear_5,2,5,63,98,2197791968
106,19,19,Jits_Linear_5,3,5,80,127,2197821716
106,19,19,Jits_Linear_5,0,5,63,98,2198501844
106,19,19,Jits_Linear_5,1,5,80,127,2198505208
106,19,19,Jits_Linear_5,2,1,48,49,2198526832
106,19,19,Jits_Linear_5,3,5,56,103,2198562076
106,19,19,Jits_Linear_5,0,1,48,58,2199310512
106,19,19,Jits_Linear_5,1,5,56,103,2199312008
106,19,19,Jits_Linear_5,2,5,80,127,2199321984
106,19,19,Jits_Linear_5,3,5,63,98,2199372112
106,19,19,Jits_Linear_5,0,5,63,98,2200071480
106,19,19,Jits_Linear_5,1,5,56,103,2200081676
106,19,19,Jits_Linear_5,2,1,48,53,2200085772
106,19,19,Jits_Linear_5,3,5,80,127,2200111644
106,19,19,Jits_Linear_5,0,1,48,53,2200853232
106,19,19,Jits_Linear_5,1,5,63,98,2200891692
106,19,19,Jits_Linear_5,2,5,80,127,2200894908
106,19,19,Jits_Linear_5,3,5,56,103,2200921668
106,19,19,Jits_Linear_5,0,1,48,53,2201689708
106,19,19,Jits_Linear_5,1,5,63,98,2201701792
106,19,19,Jits_Linear_5,2,5,56,103,2201722252
106,19,19,Jits_Linear_5,3,5,80,127,2201725320
106,19,19,Jits_Linear_5,0,5,63,98,2202452632
106,19,19,Jits_Linear_5,1,1,48,48,2202487292
106,19,19,Jits_Linear_5,2,5,56,103,2202521936
106,19,19,Jits_Linear_5,3,5,80,127,2202541572
106,19,19,Jits_Linear_5,0,5,56,103,2203231724
106,19,19,Jits_Linear_5,1,5,63,98,2203241848
106,19,19,Jits_Linear_5,2,1,48,57,2203282956
106,19,19,Jits_Linear_5,3,5,80,127,2203332004
106,19,19,Jits_Linear_5,0,1,48,64,2204028696
106,19,19,Jits_Linear_5,1,5,56,103,2204051960
106,19,19,Jits_Linear_5,2,5,80,127,2204091924
106,19,19,Jits_Linear_5,3,5,63,98,2204101972
106,19,19,Jits_Linear_5,0,1,48,59,2204831252
106,19,19,Jits_Linear_5,1,5,56,103,2204872060
106,19,19,Jits_Linear_5,2,5,63,98,2204901736
106,19,19,Jits_Linear_5,3,5,80,127,2204931696
106,19,19,Jits_Linear_5,0,5,80,127,2205631900
106,19,19,Jits_Linear_5,1,5,63,98,2205671768
106,19,19,Jits_Linear_5,2,1,48,50,2205684548
106,19,19,Jits_Linear_5,3,5,56,103,2205692220
106,19,19,Jits_Linear_5,0,5,56,103,2206481736
106,19,19,Jits_Linear_5,1,1,48,48,2206492348
106,19,19,Jits_Linear_5,2,5,80,127,2206502336
106,19,19,Jits_Linear_5,3,5,63,98,2206521600
106,19,19,Jits_Linear_5,0,5,63,98,2207251996
106,19,19,Jits_Linear_5,1,5,56,103,2207262044
106,19,19,Jits_Linear_5,2,1,48,47,2207270564
106,19,19,Jits_Linear_5,3,5,80,127,2207321680
106,19,19,Jits_Linear_5,0,5,56,103,2208061956
106,19,19,Jits_Linear_5,1,1,48,54,2208079820
106,19,19,Jits_Linear_5,2,5,63,98,2208131708
106,19,19,Jits_Linear_5,3,5,80,127,2208151944
106,19,19,Jits_Linear_5,0,5,56,103,2208871708
106,19,19,Jits_Linear_5,1,1,48,48,2208896996
106,19,19,Jits_Linear_5,2,5,63,98,2208901452
106,19,19,Jits_Linear_5,3,5,80,127,2208941688
106,19,19,Jits_Linear_5,0,5,63,98,2209671412
106,19,19,Jits_Linear_5,1,1,48,53,2209712596
106,19,19,Jits_Linear_5,2,5,56,103,2209721760
106,19,19,Jits_Linear_5,3,5,80,127,2209731980
106,19,19,Jits_Linear_5,0,5,56,103,2210521704
106,19,19,Jits_Linear_5,1,1,48,50,2210532472
106,19,19,Jits_Linear_5,2,5,63,98,2210571604
106,19,19,Jits_Linear_5,3,5,80,127,2210581800
106,19,19,Jits_Linear_5,0,5,56,103,2211301716
106,19,19,Jits_Linear_5,1,5,63,98,2211311912
106,19,19,Jits_Linear_5,2,1,48,59,2211344172
106,19,19,Jits_Linear_5,3,5,80,127,2211391924
106,19,19,Jits_Linear_5,0,9999,9999,9999,2102519892
106,19,19,Jits_Linear_5,1,9999,9999,9999,2102999152
106,19,19,Jits_Linear_5,2,9999,9999,9999,2103479384
106,19,19,Jits_Linear_5,3,9999,9999,9999,2103959636
106,19,19,Jits_Linear_5,4,9999,9999,9999,2104439880
106,19,19,Jits_Linear_5,5,9999,9999,9999,2104929356
106,19,19,Jits_Linear_5,6,9999,9999,9999,2105419856
106,19,19,Jits_Linear_5,7,9999,9999,9999,2105909328
106,19,19,Jits_Linear_5,8,9999,9999,9999,2106399824
106,19,19,Jits_Linear_5,9,9999,9999,9999,2106889340
106,19,19,Jits_Linear_5,10,9999,9999,9999,2107390012
106,19,19,Jits_Linear_5,11,9999,9999,9999,2107889788
106,19,19,Jits_Linear_5,12,9999,9999,9999,2108389472
106,19,19,Jits_Linear_5,13,9999,9999,9999,2108889160
106,19,19,Jits_Linear_5,14,9999,9999,9999,2109389892
106,19,19,Jits_Linear_5,15,9999,9999,9999,2109899832
106,19,19,Jits_Linear_5,16,9999,9999,9999,2110409796
106,19,19,Jits_Linear_5,17,9999,9999,9999,2110919748
106,19,19,Jits_Linear_5,18,9999,9999,9999,2111429712
106,19,19,Jits_Linear_5,19,9999,9999,9999,2111939680
106,19,19,Jits_Linear_5,20,9999,9999,9999,2112459836
106,19,19,Jits_Linear_5,21,9999,9999,9999,2112980064
106,19,19,Jits_Linear_5,22,9999,9999,9999,2113499244
106,19,19,Jits_Linear_5,23,9999,9999,9999,2114019396
106,19,19,Jits_Linear_5,24,9999,9999,9999,2114539628
106,19,19,Jits_Linear_5,25,9999,9999,9999,2115070040
106,19,19,Jits_Linear_5,26,9999,9999,9999,2115599488
106,19,19,Jits_Linear_5,27,9999,9999,9999,2116129880
106,19,19,Jits_Linear_5,28,9999,9999,9999,2116659256
106,19,19,Jits_Linear_5,29,9999,9999,9999,2117189748
106,19,19,Jits_Linear_5,30,9999,9999,9999,2117729384
106,19,19,Jits_Linear_5,31,9999,9999,9999,2118270068
106,19,19,Jits_Linear_5,32,9999,9999,9999,2118809700
106,19,19,Jits_Linear_5,33,9999,9999,9999,2119349336
106,19,19,Jits_Linear_5,34,9999,9999,9999,2119890036
106,19,19,Jits_Linear_5,35,9999,9999,9999,2120439924
106,19,19,Jits_Linear_5,36,9999,9999,9999,2120989796
106,19,19,Jits_Linear_5,37,9999,9999,9999,2121539680
106,19,19,Jits_Linear_5,38,9999,9999,9999,2122089580
106,19,19,Jits_Linear_5,39,9999,9999,9999,2122639468
106,19,19,Jits_Linear_5,40,9999,9999,9999,2123199568
106,19,19,Jits_Linear_5,41,9999,9999,9999,2123759716
106,19,19,Jits_Linear_5,42,9999,9999,9999,2124319860
106,19,19,Jits_Linear_5,43,9999,9999,9999,2124879928
106,19,19,Jits_Linear_5,44,9999,9999,9999,2125440076
106,19,19,Jits_Linear_5,45,9999,9999,9999,2126019648
106,19,19,Jits_Linear_5,46,9999,9999,9999,2126590060
106,19,19,Jits_Linear_5,47,9999,9999,9999,2127159356
106,19,19,Jits_Linear_5,48,9999,9999,9999,2127729772
106,19,19,Jits_Linear_5,49,9999,9999,9999,2128299084
106,19,19,Jits_Linear_5,50,9999,9999,9999,2128879696
106,19,19,Jits_Linear_5,51,9999,9999,9999,2129459268
106,19,19,Jits_Linear_5,52,9999,9999,9999,2130039884
106,19,19,Jits_Linear_5,53,9999,9999,9999,2130619456
106,19,19,Jits_Linear_5,54,9999,9999,9999,2131200076
106,19,19,Jits_Linear_5,55,9999,9999,9999,2131799128
106,19,19,Jits_Linear_5,56,9999,9999,9999,2132390000
106,19,19,Jits_Linear_5,57,9999,9999,9999,2132979776
106,19,19,Jits_Linear_5,58,9999,9999,9999,2133569612
106,19,19,Jits_Linear_5,59,9999,9999,9999,2134159428
106,19,19,Jits_Linear_5,60,9999,9999,9999,2134759552
106,19,19,Jits_Linear_5,61,9999,9999,9999,2135359552
106,19,19,Jits_Linear_5,62,9999,9999,9999,2135959648
106,19,19,Jits_Linear_5,63,9999,9999,9999,2136559672
106,19,19,Jits_Linear_5,64,9999,9999,9999,2137159756
106,19,19,Jits_Linear_5,65,9999,9999,9999,2137770040
106,19,19,Jits_Linear_5,66,9999,9999,9999,2138379380
106,19,19,Jits_Linear_5,67,9999,9999,9999,2138989652
106,19,19,Jits_Linear_5,68,9999,9999,9999,2139599964
106,19,19,Jits_Linear_5,69,9999,9999,9999,2140209264
106,19,19,Jits_Linear_5,70,9999,9999,9999,2140829788
106,19,19,Jits_Linear_5,71,9999,9999,9999,2141449308
106,19,19,Jits_Linear_5,72,9999,9999,9999,2142069840
106,19,19,Jits_Linear_5,73,9999,9999,9999,2142689352
106,19,19,Jits_Linear_5,74,9999,9999,9999,2143309900
106,19,19,Jits_Linear_5,75,9999,9999,9999,2143939676
106,19,19,Jits_Linear_5,76,9999,9999,9999,2144569444
106,19,19,Jits_Linear_5,77,9999,9999,9999,2145199192
106,19,19,Jits_Linear_5,78,9999,9999,9999,2145829960
106,19,19,Jits_Linear_5,79,9999,9999,9999,2146459708
106,19,19,Jits_Linear_5,80,9999,9999,9999,2147099748
106,19,19,Jits_Linear_5,81,9999,9999,9999,2147739764
106,19,19,Jits_Linear_5,82,9999,9999,9999,2148379728
106,19,19,Jits_Linear_5,83,9999,9999,9999,2149019740
106,19,19,Jits_Linear_5,84,9999,9999,9999,2149659724
106,19,19,Jits_Linear_5,85,9999,9999,9999,2150310000
106,19,19,Jits_Linear_5,86,9999,9999,9999,2150959176
106,19,19,Jits_Linear_5,87,9999,9999,9999,2151609468
106,19,19,Jits_Linear_5,88,9999,9999,9999,2152259684
106,19,19,Jits_Linear_5,89,9999,9999,9999,2152909928
106,19,19,Jits_Linear_5,90,9999,9999,9999,2153569348
106,19,19,Jits_Linear_5,91,9999,9999,9999,2154229832
106,19,19,Jits_Linear_5,92,9999,9999,9999,2154889328
106,19,19,Jits_Linear_5,93,9999,9999,9999,2155549816
106,19,19,Jits_Linear_5,94,9999,9999,9999,2156209236
106,19,19,Jits_Linear_5,95,9999,9999,9999,2156879932
106,19,19,Jits_Linear_5,96,9999,9999,9999,2157549652
106,19,19,Jits_Linear_5,97,9999,9999,9999,2158219332
106,19,19,Jits_Linear_5,98,9999,9999,9999,2158890088
106,19,19,Jits_Linear_5,99,9999,9999,9999,2159559736
106,19,19,Jits_Linear_5,100,9999,9999,9999,2160239684
106,19,19,Jits_Linear_5,101,9999,9999,9999,2160919656
106,19,19,Jits_Linear_5,102,9999,9999,9999,2161599544
106,19,19,Jits_Linear_5,103,9999,9999,9999,2162279492
106,19,19,Jits_Linear_5,104,9999,9999,9999,2162959464
106,19,19,Jits_Linear_5,105,9999,9999,9999,2163649620
106,19,19,Jits_Linear_5,106,9999,9999,9999,2164339832
106,19,19,Jits_Linear_5,107,9999,9999,9999,2165029988
106,19,19,Jits_Linear_5,108,9999,9999,9999,2165719100
106,19,19,Jits_Linear_5,109,9999,9999,9999,2166409308
106,19,19,Jits_Linear_5,110,9999,9999,9999,2167109744
106,19,19,Jits_Linear_5,111,9999,9999,9999,2167809132
106,19,19,Jits_Linear_5,112,9999,9999,9999,2168509496
106,19,19,Jits_Linear_5,113,9999,9999,9999,2169209972
106,19,19,Jits_Linear_5,114,9999,9999,9999,2169909348
106,19,19,Jits_Linear_5,115,9999,9999,9999,2170620028
106,19,19,Jits_Linear_5,116,9999,9999,9999,2171329596
106,19,19,Jits_Linear_5,117,9999,9999,9999,2172039224
106,19,19,Jits_Linear_5,118,9999,9999,9999,2172749928
106,19,19,Jits_Linear_5,119,9999,9999,9999,2173459564
106,19,19,Jits_Linear_5,120,9999,9999,9999,2174179392
106,19,19,Jits_Linear_5,121,9999,9999,9999,2174899272
106,19,19,Jits_Linear_5,122,9999,9999,9999,2175619184
106,19,19,Jits_Linear_5,123,9999,9999,9999,2176340072
106,19,19,Jits_Linear_5,124,9999,9999,9999,2177059900
106,19,19,Jits_Linear_5,125,9999,9999,9999,2177790052
106,19,19,Jits_Linear_5,126,9999,9999,9999,2178519104
106,19,19,Jits_Linear_5,127,9999,9999,9999,2179249240
106,19,19,Jits_Linear_5,128,9999,9999,9999,2179979328
106,19,19,Jits_Linear_5,129,9999,9999,9999,2180709436
106,19,19,Jits_Linear_5,130,9999,9999,9999,2181449800
106,19,19,Jits_Linear_5,131,9999,9999,9999,2182189112
106,19,19,Jits_Linear_5,132,9999,9999,9999,2182929536
106,19,19,Jits_Linear_5,133,9999,9999,9999,2183669820
106,19,19,Jits_Linear_5,134,9999,9999,9999,2184409196
106,19,19,Jits_Linear_5,135,9999,9999,9999,2185159736
106,19,19,Jits_Linear_5,136,9999,9999,9999,2185909304
106,19,19,Jits_Linear_5,137,9999,9999,9999,2186659916
106,19,19,Jits_Linear_5,138,9999,9999,9999,2187409492
106,19,19,Jits_Linear_5,139,9999,9999,9999,2188160060
106,19,19,Jits_Linear_5,140,9999,9999,9999,2188929112
106,19,19,Jits_Linear_5,141,9999,9999,9999,2189689936
106,19,19,Jits_Linear_5,142,9999,9999,9999,2190449792
106,19,19,Jits_Linear_5,143,9999,9999,9999,2191209572
106,19,19,Jits_Linear_5,144,9999,9999,9999,2191969344
106,19,19,Jits_Linear_5,145,9999,9999,9999,2192739448
106,19,19,Jits_Linear_5,146,9999,9999,9999,2193509492
106,19,19,Jits_Linear_5,147,9999,9999,9999,2194279520
106,19,19,Jits_Linear_5,148,9999,9999,9999,2195049540
106,19,19,Jits_Linear_5,149,9999,9999,9999,2195819640
106,19,19,Jits_Linear_5,150,9999,9999,9999,2196599928
106,19,19,Jits_Linear_5,151,9999,9999,9999,2197379176
106,19,19,Jits_Linear_5,152,9999,9999,9999,2198159484
106,19,19,Jits_Linear_5,153,9999,9999,9999,2198939772
106,19,19,Jits_Linear_5,154,9999,9999,9999,2199719992
106,19,19,Jits_Linear_5,155,9999,9999,9999,2200509520
106,19,19,Jits_Linear_5,156,9999,9999,9999,2201300060
106,19,19,Jits_Linear_5,157,9999,9999,9999,2202089560
106,19,19,Jits_Linear_5,158,9999,9999,9999,2202880116
106,19,19,Jits_Linear_5,159,9999,9999,9999,2203679808
106,19,19,Jits_Linear_5,160,9999,9999,9999,2204479592
106,19,19,Jits_Linear_5,161,9999,9999,9999,2205279292
106,19,19,Jits_Linear_5,162,9999,9999,9999,2206080104
106,19,19,Jits_Linear_5,163,9999,9999,9999,2206890080
106,19,19,Jits_Linear_5,164,9999,9999,9999,2207689812
106,19,19,Jits_Linear_5,165,9999,9999,9999,2208499772
106,19,19,Jits_Linear_5,166,9999,9999,9999,2209309820
106,19,19,Jits_Linear_5,167,9999,9999,9999,2210119792
106,19,19,Jits_Linear_5,168,9999,9999,9999,2210929756
106,19,19,Jits_Linear_5,169,9999,9999,9999,2211739728
106,20,18,Jits_Linear_8,0,5,56,103,2221348284
106,20,18,Jits_Linear_8,1,5,63,98,2221351232
106,20,18,Jits_Linear_8,2,5,80,127,2221354508
106,20,18,Jits_Linear_8,0,5,56,103,2222168292
106,20,18,Jits_Linear_8,1,5,63,98,2222171320
106,20,18,Jits_Linear_8,2,5,80,127,2222174592
106,20,18,Jits_Linear_8,0,5,80,127,2222928236
106,20,18,Jits_Linear_8,1,5,63,98,2223018448
106,20,18,Jits_Linear_8,2,5,56,103,2223027520
106,20,18,Jits_Linear_8,0,5,56,103,2223767896
106,20,18,Jits_Linear_8,1,5,63,98,2223778540
106,20,18,Jits_Linear_8,2,5,80,127,2223868252
106,20,18,Jits_Linear_8,0,5,63,98,2224557508
106,20,18,Jits_Linear_8,1,5,80,127,2224588332
106,20,18,Jits_Linear_8,2,5,56,103,2224617784
106,20,18,Jits_Linear_8,0,5,56,103,2225377696
106,20,18,Jits_Linear_8,1,5,80,127,2225477872
106,20,18,Jits_Linear_8,2,5,63,98,2225528444
106,20,18,Jits_Linear_8,0,5,56,103,2226187680
106,20,18,Jits_Linear_8,1,5,80,127,2226237884
106,20,18,Jits_Linear_8,2,5,63,98,2226277676
106,20,18,Jits_Linear_8,0,5,80,127,2227028460
106,20,18,Jits_Linear_8,1,5,63,98,2227058136
106,20,18,Jits_Linear_8,2,5,56,103,2227127520
106,20,18,Jits_Linear_8,0,5,63,98,2227867952
106,20,18,Jits_Linear_8,1,1,48,44,2227893324
106,20,18,Jits_Linear_8,2,5,56,103,2227897940
106,20,18,Jits_Linear_8,3,5,80,127,2227958328
106,20,18,Jits_Linear_8,0,5,56,103,2228617580
106,20,18,Jits_Linear_8,1,5,80,127,2228620644
106,20,18,Jits_Linear_8,2,1,48,42,2228638232
106,20,18,Jits_Linear_8,3,5,63,98,2228738356
106,20,18,Jits_Linear_8,0,1,48,46,2229458092
106,20,18,Jits_Linear_8,1,5,56,103,2229498200
106,20,18,Jits_Linear_8,2,5,80,127,2229538288
106,20,18,Jits_Linear_8,3,5,63,98,2229548408
106,20,18,Jits_Linear_8,0,5,56,103,2230258176
106,20,18,Jits_Linear_8,1,1,48,47,2230263240
106,20,18,Jits_Linear_8,2,5,80,127,2230277436
106,20,18,Jits_Linear_8,3,5,63,98,2230358424
106,20,18,Jits_Linear_8,0,5,80,127,2231047608
106,20,18,Jits_Linear_8,1,1,48,54,2231109616
106,20,18,Jits_Linear_8,2,5,56,103,2231147852
106,20,18,Jits_Linear_8,3,5,63,98,2231158420
106,20,18,Jits_Linear_8,0,5,63,98,2231817712
106,20,18,Jits_Linear_8,1,5,80,127,2231878104
106,20,18,Jits_Linear_8,2,5,56,103,2231888228
106,20,18,Jits_Linear_8,3,1,48,63,2231925800
106,20,18,Jits_Linear_8,0,5,56,103,2232618360
106,20,18,Jits_Linear_8,1,1,48,58,2232635872
106,20,18,Jits_Linear_8,2,5,63,98,2232688260
106,20,18,Jits_Linear_8,3,5,80,127,2232691400
106,20,18,Jits_Linear_8,0,1,48,50,2233419132
106,20,18,Jits_Linear_8,1,5,63,98,2233447780
106,20,18,Jits_Linear_8,2,5,56,103,2233498056
106,20,18,Jits_Linear_8,3,5,80,127,2233501124
106,20,18,Jits_Linear_8,0,5,56,103,2234198456
106,20,18,Jits_Linear_8,1,1,48,55,2234199512
106,20,18,Jits_Linear_8,2,5,80,127,2234202636
106,20,18,Jits_Linear_8,3,5,63,98,2234287388
106,20,18,Jits_Linear_8,0,1,48,59,2235004392
106,20,18,Jits_Linear_8,1,5,63,98,2235027728
106,20,18,Jits_Linear_8,2,5,56,103,2235117948
106,20,18,Jits_Linear_8,3,5,80,127,2235147548
106,20,18,Jits_Linear_8,0,5,56,103,2235808312
106,20,18,Jits_Linear_8,1,1,48,62,2235830392
106,20,18,Jits_Linear_8,2,5,63,98,2235907388
106,20,18,Jits_Linear_8,3,5,80,127,2235938320
106,20,18,Jits_Linear_8,0,5,63,98,2236618228
106,20,18,Jits_Linear_8,1,5,56,103,2236628352
106,20,18,Jits_Linear_8,2,1,48,60,2236703164
106,20,18,Jits_Linear_8,3,5,80,127,2236717356
106,20,18,Jits_Linear_8,0,5,63,98,2237428248
106,20,18,Jits_Linear_8,1,1,48,62,2237471080
106,20,18,Jits_Linear_8,2,5,56,103,2237507964
106,20,18,Jits_Linear_8,3,5,80,127,2237511180
106,20,18,Jits_Linear_8,0,5,80,127,2238168364
106,20,18,Jits_Linear_8,1,5,63,98,2238187852
106,20,18,Jits_Linear_8,2,5,56,103,2238248392
106,20,18,Jits_Linear_8,3,1,48,60,2238286208
106,20,18,Jits_Linear_8,0,5,56,103,2238987616
106,20,18,Jits_Linear_8,1,5,63,98,2239008220
106,20,18,Jits_Linear_8,2,5,80,127,2239011364
106,20,18,Jits_Linear_8,3,1,48,69,2239050824
106,20,18,Jits_Linear_8,0,5,63,98,2239707436
106,20,18,Jits_Linear_8,1,5,80,127,2239788356
106,20,18,Jits_Linear_8,2,5,56,103,2239797580
106,20,18,Jits_Linear_8,3,1,48,59,2239811256
106,20,18,Jits_Linear_8,0,5,63,98,2240508164
106,20,18,Jits_Linear_8,1,5,56,103,2240527652
106,20,18,Jits_Linear_8,2,1,48,58,2240575960
106,20,18,Jits_Linear_8,3,5,80,127,2240577992
106,20,18,Jits_Linear_8,0,5,80,127,2241287608
106,20,18,Jits_Linear_8,1,5,63,98,2241327396
106,20,18,Jits_Linear_8,2,1,48,58,2241341152
106,20,18,Jits_Linear_8,3,5,56,103,2241348224
106,20,18,Jits_Linear_8,0,5,56,103,2242097484
106,20,18,Jits_Linear_8,1,5,63,98,2242107756
106,20,18,Jits_Linear_8,2,1,48,57,2242123012
106,20,18,Jits_Linear_8,3,5,80,127,2242128284
106,20,18,Jits_Linear_8,0,5,56,103,2242798200
106,20,18,Jits_Linear_8,1,5,63,98,2242888112
106,20,18,Jits_Linear_8,2,1,48,51,2242896116
106,20,18,Jits_Linear_8,3,5,80,127,2242947376
106,20,18,Jits_Linear_8,0,5,80,127,2243597676
106,20,18,Jits_Linear_8,1,5,56,103,2243608316
106,20,18,Jits_Linear_8,2,1,48,56,2243647556
106,20,18,Jits_Linear_8,3,5,63,98,2243677468
106,20,18,Jits_Linear_8,0,5,63,98,2244397372
106,20,18,Jits_Linear_8,1,1,48,56,2244398336
106,20,18,Jits_Linear_8,2,5,80,127,2244487500
106,20,18,Jits_Linear_8,3,5,56,103,2244498200
106,20,18,Jits_Linear_8,0,5,63,98,2245097784
106,20,18,Jits_Linear_8,1,5,80,127,2245148136
106,20,18,Jits_Linear_8,2,1,48,54,2245188196
106,20,18,Jits_Linear_8,3,5,56,103,2245208296
106,20,18,Jits_Linear_8,0,5,56,103,2245888388
106,20,18,Jits_Linear_8,1,1,48,57,2245925440
106,20,18,Jits_Linear_8,2,5,80,127,2245937616
106,20,18,Jits_Linear_8,3,5,63,98,2245958000
106,20,18,Jits_Linear_8,0,5,56,103,2246617580
106,20,18,Jits_Linear_8,1,1,48,56,2246661532
106,20,18,Jits_Linear_8,2,5,80,127,2246678116
106,20,18,Jits_Linear_8,3,5,63,98,2246747500
106,20,18,Jits_Linear_8,0,5,56,103,2247378388
106,20,18,Jits_Linear_8,1,5,80,127,2247408064
106,20,18,Jits_Linear_8,2,5,63,98,2247437664
106,20,18,Jits_Linear_8,3,1,48,59,2247450520
106,20,18,Jits_Linear_8,0,5,56,103,2248178152
106,20,18,Jits_Linear_8,1,5,80,127,2248197344
106,20,18,Jits_Linear_8,2,1,48,47,2248199280
106,20,18,Jits_Linear_8,3,5,63,98,2248258024
106,20,18,Jits_Linear_8,0,1,48,48,2248981112
106,20,18,Jits_Linear_8,1,5,80,127,2249017704
106,20,18,Jits_Linear_8,2,5,56,103,2249028052
106,20,18,Jits_Linear_8,3,5,63,98,2249038096
106,20,18,Jits_Linear_8,0,5,56,103,2249728320
106,20,18,Jits_Linear_8,1,5,80,127,2249768332
106,20,18,Jits_Linear_8,2,1,48,51,2249769372
106,20,18,Jits_Linear_8,3,5,63,98,2249798152
106,20,18,Jits_Linear_8,0,5,56,103,2250448372
106,20,18,Jits_Linear_8,1,5,63,98,2250478124
106,20,18,Jits_Linear_8,2,5,80,127,2250518064
106,20,18,Jits_Linear_8,3,1,48,49,2250540660
106,20,18,Jits_Linear_8,0,5,80,127,2251147500
106,20,18,Jits_Linear_8,1,5,63,98,2251197952
106,20,18,Jits_Linear_8,2,5,56,103,2251218188
106,20,18,Jits_Linear_8,3,1,48,50,2251263480
106,20,18,Jits_Linear_8,0,5,56,103,2251928160
106,20,18,Jits_Linear_8,1,1,48,55,2251970488
106,20,18,Jits_Linear_8,2,5,80,127,2251997492
106,20,18,Jits_Linear_8,3,5,63,98,2252058180
106,20,18,Jits_Linear_8,0,5,80,127,2252668148
106,20,18,Jits_Linear_8,1,1,48,54,2252754976
106,20,18,Jits_Linear_8,2,5,63,98,2252758456
106,20,18,Jits_Linear_8,3,5,56,103,2252778016
106,20,18,Jits_Linear_8,0,5,63,98,2253428292
106,20,18,Jits_Linear_8,1,5,56,103,2253447408
106,20,18,Jits_Linear_8,2,5,80,127,2253487496
106,20,18,Jits_Linear_8,3,1,48,67,2253529744
106,20,18,Jits_Linear_8,0,5,80,127,2254127576
106,20,18,Jits_Linear_8,1,5,63,98,2254147964
106,20,18,Jits_Linear_8,2,1,48,61,2254226092
106,20,18,Jits_Linear_8,3,5,56,103,2254227752
106,20,18,Jits_Linear_8,0,5,63,98,2254857596
106,20,18,Jits_Linear_8,1,1,48,60,2254896980
106,20,18,Jits_Linear_8,2,5,56,103,2254968172
106,20,18,Jits_Linear_8,3,5,80,127,2254971244
106,20,18,Jits_Linear_8,0,5,63,98,2255618528
106,20,18,Jits_Linear_8,1,5,56,103,2255627524
106,20,18,Jits_Linear_8,2,5,80,127,2255630820
106,20,18,Jits_Linear_8,3,1,48,63,2255665564
106,20,18,Jits_Linear_8,0,5,56,103,2256338252
106,20,18,Jits_Linear_8,1,1,48,63,2256374628
106,20,18,Jits_Linear_8,2,5,80,127,2256458052
106,20,18,Jits_Linear_8,3,5,63,98,2256498124
106,20,18,Jits_Linear_8,0,5,56,103,2257087828
106,20,18,Jits_Linear_8,1,5,80,127,2257167776
106,20,18,Jits_Linear_8,2,1,48,58,2257170296
106,20,18,Jits_Linear_8,3,5,63,98,2257188304
106,20,18,Jits_Linear_8,0,5,56,103,2257818124
106,20,18,Jits_Linear_8,1,5,63,98,2257927468
106,20,18,Jits_Linear_8,2,5,80,127,2257930756
106,20,18,Jits_Linear_8,3,1,48,62,2257935220
106,20,18,Jits_Linear_8,0,5,56,103,2258578032
106,20,18,Jits_Linear_8,1,5,80,127,2258607484
106,20,18,Jits_Linear_8,2,5,63,98,2258628044
106,20,18,Jits_Linear_8,3,1,48,65,2258663452
106,20,18,Jits_Linear_8,0,5,63,98,2259288424
106,20,18,Jits_Linear_8,1,5,56,103,2259297868
106,20,18,Jits_Linear_8,2,5,80,127,2259307844
106,20,18,Jits_Linear_8,3,1,48,61,2259374112
106,20,18,Jits_Linear_8,0,5,80,127,2259998116
106,20,18,Jits_Linear_8,1,1,48,57,2260033076
106,20,18,Jits_Linear_8,2,5,56,103,2260048092
106,20,18,Jits_Linear_8,3,5,63,98,2260088104
106,20,18,Jits_Linear_8,0,1,48,59,2260738324
106,20,18,Jits_Linear_8,1,5,80,127,2260739588
106,20,18,Jits_Linear_8,2,5,63,98,2260758028
106,20,18,Jits_Linear_8,3,5,56,103,2260808008
106,20,18,Jits_Linear_8,0,5,80,127,2261467432
106,20,18,Jits_Linear_8,1,1,48,54,2261468400
106,20,18,Jits_Linear_8,2,5,56,103,2261498300
106,20,18,Jits_Linear_8,3,5,63,98,2261568112
106,20,18,Jits_Linear_8,0,1,48,53,2262208212
106,20,18,Jits_Linear_8,1,5,56,103,2262237532
106,20,18,Jits_Linear_8,2,5,80,127,2262247728
106,20,18,Jits_Linear_8,3,5,63,98,2262287816
106,20,18,Jits_Linear_8,0,5,56,103,2262868248
106,20,18,Jits_Linear_8,1,5,63,98,2262888036
106,20,18,Jits_Linear_8,2,5,80,127,2262957344
106,20,18,Jits_Linear_8,3,1,48,54,2262960908
106,20,18,Jits_Linear_8,0,1,48,52,2263601304
106,20,18,Jits_Linear_8,1,5,63,98,2263607848
106,20,18,Jits_Linear_8,2,5,80,127,2263668016
106,20,18,Jits_Linear_8,3,5,56,103,2263687428
106,20,18,Jits_Linear_8,0,5,80,127,2264318380
106,20,18,Jits_Linear_8,1,5,56,103,2264347980
106,20,18,Jits_Linear_8,2,1,48,45,2264353872
106,20,18,Jits_Linear_8,3,5,63,98,2264377800
106,20,18,Jits_Linear_8,0,5,56,103,2265027944
106,20,18,Jits_Linear_8,1,1,48,51,2265080732
106,20,18,Jits_Linear_8,2,5,63,98,2265088256
106,20,18,Jits_Linear_8,3,5,80,127,2265147972
106,20,18,Jits_Linear_8,0,5,80,127,2265758164
106,20,18,Jits_Linear_8,1,5,56,103,2265777504
106,20,18,Jits_Linear_8,2,1,48,66,2265823944
106,20,18,Jits_Linear_8,3,5,63,98,2265848176
106,20,18,Jits_Linear_8,0,5,80,127,2266467880
106,20,18,Jits_Linear_8,1,5,63,98,2266488196
106,20,18,Jits_Linear_8,2,5,56,103,2266518020
106,20,18,Jits_Linear_8,3,1,48,52,2266542488
106,20,18,Jits_Linear_8,0,5,80,127,2267157968
106,20,18,Jits_Linear_8,1,5,63,98,2267178428
106,20,18,Jits_Linear_8,2,1,48,58,2267215404
106,20,18,Jits_Linear_8,3,5,56,103,2267237840
106,20,18,Jits_Linear_8,0,5,80,127,2267858316
106,20,18,Jits_Linear_8,1,1,48,59,2267956620
106,20,18,Jits_Linear_8,2,5,56,103,2267958184
106,20,18,Jits_Linear_8,3,5,63,98,2267988460
106,20,18,Jits_Linear_8,0,5,63,98,2268547708
106,20,18,Jits_Linear_8,1,5,80,127,2268597760
106,20,18,Jits_Linear_8,2,5,56,103,2268617996
106,20,18,Jits_Linear_8,3,1,48,62,2268685700
106,20,18,Jits_Linear_8,0,5,80,127,2269287876
106,20,18,Jits_Linear_8,1,5,56,103,2269317628
106,20,18,Jits_Linear_8,2,5,63,98,2269320692
106,20,18,Jits_Linear_8,3,1,48,63,2269350412
106,20,18,Jits_Linear_8,0,5,63,98,2270018036
106,20,18,Jits_Linear_8,1,1,48,65,2270045964
106,20,18,Jits_Linear_8,2,5,56,103,2270057896
106,20,18,Jits_Linear_8,3,5,80,127,2270078280
106,20,18,Jits_Linear_8,0,5,80,127,2270657992
106,20,18,Jits_Linear_8,1,1,48,62,2270735824
106,20,18,Jits_Linear_8,2,5,63,98,2270737712
106,20,18,Jits_Linear_8,3,5,56,103,2270777872
106,20,18,Jits_Linear_8,0,5,63,98,2271367468
106,20,18,Jits_Linear_8,1,1,48,62,2271441856
106,20,18,Jits_Linear_8,2,5,80,127,2271448480
106,20,18,Jits_Linear_8,3,5,56,103,2271467964
106,20,18,Jits_Linear_8,0,5,56,103,2272097852
106,20,18,Jits_Linear_8,1,5,63,98,2272107900
106,20,18,Jits_Linear_8,2,1,48,63,2272116420
106,20,18,Jits_Linear_8,3,5,80,127,2272147904
106,20,18,Jits_Linear_8,0,5,56,103,2272707920
106,20,18,Jits_Linear_8,1,5,80,127,2272710840
106,20,18,Jits_Linear_8,2,1,48,59,2272793896
106,20,18,Jits_Linear_8,3,5,63,98,2272848316
106,20,18,Jits_Linear_8,0,5,56,103,2273387784
106,20,18,Jits_Linear_8,1,5,63,98,2273477948
106,20,18,Jits_Linear_8,2,1,48,59,2273511180
106,20,18,Jits_Linear_8,3,5,80,127,2273547696
106,20,18,Jits_Linear_8,0,5,63,98,2274147848
106,20,18,Jits_Linear_8,1,5,80,127,2274151140
106,20,18,Jits_Linear_8,2,1,48,60,2274195928
106,20,18,Jits_Linear_8,3,5,56,103,2274208084
106,20,18,Jits_Linear_8,0,5,80,127,2274867588
106,20,18,Jits_Linear_8,1,5,56,103,2274888120
106,20,18,Jits_Linear_8,2,1,48,57,2274897040
106,20,18,Jits_Linear_8,3,5,63,98,2274898684
106,20,18,Jits_Linear_8,0,5,56,103,2275458608
106,20,18,Jits_Linear_8,1,5,63,98,2275467832
106,20,18,Jits_Linear_8,2,5,80,127,2275538508
106,20,18,Jits_Linear_8,3,1,48,65,2275601108
106,20,18,Jits_Linear_8,0,5,80,127,2276138428
106,20,18,Jits_Linear_8,1,5,56,103,2276187584
106,20,18,Jits_Linear_8,2,1,48,56,2276226596
106,20,18,Jits_Linear_8,3,5,63,98,2276237780
106,20,18,Jits_Linear_8,0,5,56,103,2276898116
106,20,18,Jits_Linear_8,1,5,63,98,2276908316
106,20,18,Jits_Linear_8,2,1,48,60,2276939904
106,20,18,Jits_Linear_8,3,5,80,127,2276948320
106,20,18,Jits_Linear_8,0,5,56,103,2277517612
106,20,18,Jits_Linear_8,1,5,63,98,2277557776
106,20,18,Jits_Linear_8,2,1,48,62,2277606648
106,20,18,Jits_Linear_8,3,5,80,127,2277608220
106,20,18,Jits_Linear_8,0,5,80,127,2278157876
106,20,18,Jits_Linear_8,1,5,56,103,2278207780
106,20,18,Jits_Linear_8,2,5,63,98,2278228388
106,20,18,Jits_Linear_8,3,1,48,57,2278279156
106,20,18,Jits_Linear_8,0,5,80,127,2278837748
106,20,18,Jits_Linear_8,1,5,63,98,2278897996
106,20,18,Jits_Linear_8,2,1,48,63,2278924928
106,20,18,Jits_Linear_8,3,5,56,103,2278977856
106,20,18,Jits_Linear_8,0,5,80,127,2279487808
106,20,18,Jits_Linear_8,1,5,56,103,2279527672
106,20,18,Jits_Linear_8,2,5,63,98,2279548132
106,20,18,Jits_Linear_8,3,1,48,57,2279645132
106,20,18,Jits_Linear_8,0,5,56,103,2280207788
106,20,18,Jits_Linear_8,1,5,80,127,2280217912
106,20,18,Jits_Linear_8,2,1,48,63,2280231292
106,20,18,Jits_Linear_8,3,5,63,98,2280257916
106,20,18,Jits_Linear_8,0,1,48,58,2280910204
106,20,18,Jits_Linear_8,1,5,56,103,2280937804
106,20,18,Jits_Linear_8,2,5,63,98,2280977816
106,20,18,Jits_Linear_8,3,5,80,127,2280981180
106,20,18,Jits_Linear_8,0,5,63,98,2281487828
106,20,18,Jits_Linear_8,1,5,80,127,2281527620
106,20,18,Jits_Linear_8,2,5,56,103,2281598272
106,20,18,Jits_Linear_8,3,1,48,52,2281666224
106,20,18,Jits_Linear_8,0,5,63,98,2282137940
106,20,18,Jits_Linear_8,1,5,56,103,2282218064
106,20,18,Jits_Linear_8,2,1,48,56,2282274072
106,20,18,Jits_Linear_8,3,5,80,127,2282278220
106,20,18,Jits_Linear_8,0,5,80,127,2282807636
106,20,18,Jits_Linear_8,1,5,63,98,2282857840
106,20,18,Jits_Linear_8,2,5,56,103,2282887588
106,20,18,Jits_Linear_8,3,1,48,48,2282963468
106,20,18,Jits_Linear_8,0,5,56,103,2283457860
106,20,18,Jits_Linear_8,1,5,63,98,2283507992
106,20,18,Jits_Linear_8,2,5,80,127,2283518188
106,20,18,Jits_Linear_8,3,1,48,51,2283561680
106,20,18,Jits_Linear_8,0,5,56,103,2284127692
106,20,18,Jits_Linear_8,1,1,48,60,2284143020
106,20,18,Jits_Linear_8,2,5,63,98,2284238152
106,20,18,Jits_Linear_8,3,5,80,127,2284257624
106,20,18,Jits_Linear_8,0,5,63,98,2284777780
106,20,18,Jits_Linear_8,1,5,80,127,2284827980
106,20,18,Jits_Linear_8,2,1,48,63,2284846912
106,20,18,Jits_Linear_8,3,5,56,103,2284918108
106,20,18,Jits_Linear_8,0,5,63,98,2285417852
106,20,18,Jits_Linear_8,1,5,80,127,2285447676
106,20,18,Jits_Linear_8,2,1,48,63,2285528144
106,20,18,Jits_Linear_8,3,5,56,103,2285537828
106,20,18,Jits_Linear_8,0,5,63,98,2286068064
106,20,18,Jits_Linear_8,1,5,56,103,2286078632
106,20,18,Jits_Linear_8,2,1,48,49,2286177832
106,20,18,Jits_Linear_8,3,5,80,127,2286179244
106,20,18,Jits_Linear_8,0,1,48,58,2286807632
106,20,18,Jits_Linear_8,1,5,63,98,2286817544
106,20,18,Jits_Linear_8,2,5,80,127,2286848416
106,20,18,Jits_Linear_8,3,5,56,103,2286878168
106,20,18,Jits_Linear_8,0,5,80,127,2287478240
106,20,18,Jits_Linear_8,1,5,63,98,2287488584
106,20,18,Jits_Linear_8,2,5,56,103,2287518036
106,20,18,Jits_Linear_8,3,1,48,53,2287536672
106,20,18,Jits_Linear_8,0,5,80,127,2288017792
106,20,18,Jits_Linear_8,1,5,63,98,2288038404
106,20,18,Jits_Linear_8,2,5,56,103,2288088704
106,20,18,Jits_Linear_8,3,1,48,58,2288209220
106,20,18,Jits_Linear_8,0,5,63,98,2288687728
106,20,18,Jits_Linear_8,1,5,80,127,2288747824
106,20,18,Jits_Linear_8,2,5,56,103,2288768656
106,20,18,Jits_Linear_8,3,1,48,51,2288813796
106,20,18,Jits_Linear_8,0,5,63,98,2289287500
106,20,18,Jits_Linear_8,1,5,56,103,2289337652
106,20,18,Jits_Linear_8,2,5,80,127,2289347848
106,20,18,Jits_Linear_8,3,1,48,43,2289434792
106,20,18,Jits_Linear_8,0,5,56,103,2289958536
106,20,18,Jits_Linear_8,1,5,80,127,2289967612
106,20,18,Jits_Linear_8,2,1,48,54,2290038912
106,20,18,Jits_Linear_8,3,5,63,98,2290067780
106,20,18,Jits_Linear_8,0,5,80,127,2290558396
106,20,18,Jits_Linear_8,1,5,63,98,2290567844
106,20,18,Jits_Linear_8,2,1,48,53,2290660444
106,20,18,Jits_Linear_8,3,5,56,103,2290718004
106,20,18,Jits_Linear_8,0,5,63,98,2291198516
106,20,18,Jits_Linear_8,1,5,80,127,2291238308
106,20,18,Jits_Linear_8,2,5,56,103,2291318104
106,20,18,Jits_Linear_8,3,1,48,50,2291319516
106,20,18,Jits_Linear_8,0,5,56,103,2291817696
106,20,18,Jits_Linear_8,1,5,80,127,2291918120
106,20,18,Jits_Linear_8,2,5,63,98,2291937756
106,20,18,Jits_Linear_8,3,1,48,37,2292029800
106,20,18,Jits_Linear_8,0,5,80,127,2292508008
106,20,18,Jits_Linear_8,1,5,56,103,2292518132
106,20,18,Jits_Linear_8,2,5,63,98,2292608412
106,20,18,Jits_Linear_8,3,1,48,61,2292658508
106,20,18,Jits_Linear_8,0,5,56,103,2293137692
106,20,18,Jits_Linear_8,1,5,63,98,2293158524
106,20,18,Jits_Linear_8,2,5,80,127,2293238044
106,20,18,Jits_Linear_8,3,1,48,59,2293301620
106,20,18,Jits_Linear_8,0,5,63,98,2293708284
106,20,18,Jits_Linear_8,1,5,56,103,2293798420
106,20,18,Jits_Linear_8,2,5,80,127,2293801336
106,20,18,Jits_Linear_8,3,1,48,56,2293854500
106,20,18,Jits_Linear_8,0,5,56,103,2294358396
106,20,18,Jits_Linear_8,1,5,80,127,2294417820
106,20,18,Jits_Linear_8,2,5,63,98,2294427940
106,20,18,Jits_Linear_8,3,1,48,57,2294502996
106,20,18,Jits_Linear_8,0,5,80,127,2295027956
106,20,18,Jits_Linear_8,1,5,56,103,2295038448
106,20,18,Jits_Linear_8,2,5,63,98,2295041664
106,20,18,Jits_Linear_8,3,1,48,50,2295097392
106,20,18,Jits_Linear_8,0,5,56,103,2295607656
106,20,18,Jits_Linear_8,1,5,80,127,2295617852
106,20,18,Jits_Linear_8,2,5,63,98,2295638460
106,20,18,Jits_Linear_8,3,1,48,58,2295721436
106,20,18,Jits_Linear_8,0,5,63,98,2296197620
106,20,18,Jits_Linear_8,1,5,80,127,2296257892
106,20,18,Jits_Linear_8,2,5,56,103,2296308020
106,20,18,Jits_Linear_8,3,1,48,48,2296319380
106,20,18,Jits_Linear_8,0,1,48,63,2296886552
106,20,18,Jits_Linear_8,1,5,63,98,2296897960
106,20,18,Jits_Linear_8,2,5,56,103,2296908376
106,20,18,Jits_Linear_8,3,5,80,127,2296958652
106,20,18,Jits_Linear_8,0,5,63,98,2297407760
106,20,18,Jits_Linear_8,1,5,80,127,2297428440
106,20,18,Jits_Linear_8,2,5,56,103,2297437592
106,20,18,Jits_Linear_8,3,1,48,64,2297532504
106,20,18,Jits_Linear_8,0,5,63,98,2298018304
106,20,18,Jits_Linear_8,1,5,80,127,2298021520
106,20,18,Jits_Linear_8,2,5,56,103,2298058044
106,20,18,Jits_Linear_8,3,1,48,57,2298154872
106,20,18,Jits_Linear_8,0,1,48,51,2298677320
106,20,18,Jits_Linear_8,1,5,63,98,2298698020
106,20,18,Jits_Linear_8,2,5,80,127,2298727700
106,20,18,Jits_Linear_8,3,5,56,103,2298737968
106,20,18,Jits_Linear_8,0,5,56,103,2299258240
106,20,18,Jits_Linear_8,1,5,80,127,2299287916
106,20,18,Jits_Linear_8,2,1,48,53,2299317296
106,20,18,Jits_Linear_8,3,5,63,98,2299318808
106,20,18,Jits_Linear_8,0,1,48,59,2299942596
106,20,18,Jits_Linear_8,1,5,63,98,2299957692
106,20,18,Jits_Linear_8,2,5,56,103,2299997704
106,20,18,Jits_Linear_8,3,5,80,127,2300000624
106,20,18,Jits_Linear_8,0,5,80,127,2300458492
106,20,18,Jits_Linear_8,1,5,56,103,2300538512
106,20,18,Jits_Linear_8,2,1,48,56,2300571376
106,20,18,Jits_Linear_8,3,5,63,98,2300588708
106,20,18,Jits_Linear_8,0,5,80,127,2301037904
106,20,18,Jits_Linear_8,1,5,56,103,2301058512
106,20,18,Jits_Linear_8,2,5,63,98,2301147472
106,20,18,Jits_Linear_8,3,1,48,62,2301180480
106,20,18,Jits_Linear_8,0,5,80,127,2301677868
106,20,18,Jits_Linear_8,1,5,63,98,2301717884
106,20,18,Jits_Linear_8,2,5,56,103,2301757748
106,20,18,Jits_Linear_8,3,1,48,63,2301766268
106,20,18,Jits_Linear_8,0,5,63,98,2302248432
106,20,18,Jits_Linear_8,1,5,80,127,2302307556
106,20,18,Jits_Linear_8,2,5,56,103,2302338648
106,20,18,Jits_Linear_8,3,1,48,64,2302365436
106,20,18,Jits_Linear_8,0,5,56,103,2302848572
106,20,18,Jits_Linear_8,1,5,80,127,2302878028
106,20,18,Jits_Linear_8,2,1,48,49,2302957216
106,20,18,Jits_Linear_8,3,5,63,98,2302968328
106,20,18,Jits_Linear_8,0,5,56,103,2303448384
106,20,18,Jits_Linear_8,1,5,80,127,2303557852
106,20,18,Jits_Linear_8,2,1,48,54,2303564632
106,20,18,Jits_Linear_8,3,5,63,98,2303587672
106,20,18,Jits_Linear_8,0,5,56,103,2304088560
106,20,18,Jits_Linear_8,1,5,63,98,2304147760
106,20,18,Jits_Linear_8,2,1,48,62,2304164356
106,20,18,Jits_Linear_8,3,5,80,127,2304177504
106,20,18,Jits_Linear_8,0,5,56,103,2304647672
106,20,18,Jits_Linear_8,1,5,63,98,2304718428
106,20,18,Jits_Linear_8,2,5,80,127,2304737620
106,20,18,Jits_Linear_8,3,1,48,65,2304758640
106,20,18,Jits_Linear_8,0,5,80,127,2305207624
106,20,18,Jits_Linear_8,1,5,63,98,2305228084
106,20,18,Jits_Linear_8,2,5,56,103,2305278508
106,20,18,Jits_Linear_8,3,1,48,63,2305336996
106,20,18,Jits_Linear_8,0,5,63,98,2305807632
106,20,18,Jits_Linear_8,1,5,80,127,2305817904
106,20,18,Jits_Linear_8,2,5,56,103,2305868104
106,20,18,Jits_Linear_8,3,1,48,51,2305878492
106,20,18,Jits_Linear_8,0,5,63,98,2306388444
106,20,18,Jits_Linear_8,1,1,48,53,2306436300
106,20,18,Jits_Linear_8,2,5,80,127,2306457972
106,20,18,Jits_Linear_8,3,5,56,103,2306477384
106,20,18,Jits_Linear_8,0,1,48,59,2306995524
106,20,18,Jits_Linear_8,1,5,63,98,2306997568
106,20,18,Jits_Linear_8,2,5,80,127,2307000864
106,20,18,Jits_Linear_8,3,5,56,103,2307068376
106,20,18,Jits_Linear_8,0,5,80,127,2307528112
106,20,18,Jits_Linear_8,1,5,56,103,2307547600
106,20,18,Jits_Linear_8,2,1,48,61,2307557648
106,20,18,Jits_Linear_8,3,5,63,98,2307558984
106,20,18,Jits_Linear_8,0,1,48,52,2308104548
106,20,18,Jits_Linear_8,1,5,56,103,2308128104
106,20,18,Jits_Linear_8,2,5,63,98,2308218152
106,20,18,Jits_Linear_8,3,5,80,127,2308221440
106,20,18,Jits_Linear_8,0,5,80,127,2308678048
106,20,18,Jits_Linear_8,1,5,56,103,2308688396
106,20,18,Jits_Linear_8,2,5,63,98,2308707660
106,20,18,Jits_Linear_8,3,1,48,61,2308710556
106,20,18,Jits_Linear_8,0,5,63,98,2309248376
106,20,18,Jits_Linear_8,1,1,48,61,2309259368
106,20,18,Jits_Linear_8,2,5,80,127,2309307740
106,20,18,Jits_Linear_8,3,5,56,103,2309318084
106,20,18,Jits_Linear_8,0,1,48,66,2309835612
106,20,18,Jits_Linear_8,1,5,63,98,2309888320
106,20,18,Jits_Linear_8,2,5,80,127,2309917924
106,20,18,Jits_Linear_8,3,5,56,103,2309958072
106,20,18,Jits_Linear_8,0,1,48,52,2310445452
106,20,18,Jits_Linear_8,1,5,56,103,2310447416
106,20,18,Jits_Linear_8,2,5,80,127,2310457764
106,20,18,Jits_Linear_8,3,5,63,98,2310497776
106,20,18,Jits_Linear_8,0,5,80,127,2310977892
106,20,18,Jits_Linear_8,1,1,48,52,2310992764
106,20,18,Jits_Linear_8,2,5,56,103,2311057680
106,20,18,Jits_Linear_8,3,5,63,98,2311067952
106,20,18,Jits_Linear_8,0,1,48,55,2311584828
106,20,18,Jits_Linear_8,1,5,80,127,2311588308
106,20,18,Jits_Linear_8,2,5,56,103,2311668352
106,20,18,Jits_Linear_8,3,5,63,98,2311678552
106,20,18,Jits_Linear_8,0,5,80,127,2312108524
106,20,18,Jits_Linear_8,1,5,56,103,2312157488
106,20,18,Jits_Linear_8,2,1,48,65,2312200388
106,20,18,Jits_Linear_8,3,5,63,98,2312207608
106,20,18,Jits_Linear_8,0,5,56,103,2312727900
106,20,18,Jits_Linear_8,1,5,63,98,2312730968
106,20,18,Jits_Linear_8,2,1,48,59,2312741656
106,20,18,Jits_Linear_8,3,5,80,127,2312778168
106,20,18,Jits_Linear_8,0,1,48,49,2313283364
106,20,18,Jits_Linear_8,1,5,56,103,2313307376
106,20,18,Jits_Linear_8,2,5,63,98,2313338248
106,20,18,Jits_Linear_8,3,5,80,127,2313347396
106,20,18,Jits_Linear_8,0,5,63,98,2313777616
106,20,18,Jits_Linear_8,1,5,56,103,2313848272
106,20,18,Jits_Linear_8,2,1,48,62,2313855580
106,20,18,Jits_Linear_8,3,5,80,127,2313898320
106,20,18,Jits_Linear_8,0,5,63,98,2314368472
106,20,18,Jits_Linear_8,1,5,56,103,2314377544
106,20,18,Jits_Linear_8,2,5,80,127,2314380612
106,20,18,Jits_Linear_8,3,1,48,63,2314389280
106,20,18,Jits_Linear_8,0,5,80,127,2314868432
106,20,18,Jits_Linear_8,1,1,48,65,2314904812
106,20,18,Jits_Linear_8,2,5,56,103,2314927476
106,20,18,Jits_Linear_8,3,5,63,98,2315017468
106,20,18,Jits_Linear_8,0,5,80,127,2315418100
106,20,18,Jits_Linear_8,1,1,48,57,2315473236
106,20,18,Jits_Linear_8,2,5,56,103,2315518292
106,20,18,Jits_Linear_8,3,5,63,98,2315558528
106,20,18,Jits_Linear_8,0,5,56,103,2316018136
106,20,18,Jits_Linear_8,1,1,48,59,2316025520
106,20,18,Jits_Linear_8,2,5,63,98,2316037472
106,20,18,Jits_Linear_8,3,5,80,127,2316077408
106,20,18,Jits_Linear_8,0,5,63,98,2316538356
106,20,18,Jits_Linear_8,1,5,56,103,2316557620
106,20,18,Jits_Linear_8,2,1,48,62,2316558588
106,20,18,Jits_Linear_8,3,5,80,127,2316658220
106,20,18,Jits_Linear_8,0,5,63,98,2317067704
106,20,18,Jits_Linear_8,1,1,48,56,2317107468
106,20,18,Jits_Linear_8,2,5,80,127,2317178360
106,20,18,Jits_Linear_8,3,5,56,103,2317207800
106,20,18,Jits_Linear_8,0,5,56,103,2317627772
106,20,18,Jits_Linear_8,1,5,63,98,2317657448
106,20,18,Jits_Linear_8,2,5,80,127,2317707504
106,20,18,Jits_Linear_8,3,1,48,57,2317715332
106,20,18,Jits_Linear_8,0,5,63,98,2318137576
106,20,18,Jits_Linear_8,1,5,56,103,2318168376
106,20,18,Jits_Linear_8,2,5,80,127,2318217604
106,20,18,Jits_Linear_8,3,1,48,66,2318246128
106,20,18,Jits_Linear_8,0,5,56,103,2318708196
106,20,18,Jits_Linear_8,1,5,63,98,2318727388
106,20,18,Jits_Linear_8,2,1,48,57,2318753280
106,20,18,Jits_Linear_8,3,5,80,127,2318808396
106,20,18,Jits_Linear_8,0,5,63,98,2319218220
106,20,18,Jits_Linear_8,1,5,56,103,2319277492
106,20,18,Jits_Linear_8,2,1,48,64,2319288508
106,20,18,Jits_Linear_8,3,5,80,127,2319308308
106,20,18,Jits_Linear_8,0,5,56,103,2319797788
106,20,18,Jits_Linear_8,1,1,48,63,2319803004
106,20,18,Jits_Linear_8,2,5,80,127,2319858176
106,20,18,Jits_Linear_8,3,5,63,98,2319898188
106,20,18,Jits_Linear_8,0,5,63,98,2320307500
106,20,18,Jits_Linear_8,1,1,48,66,2320335508
106,20,18,Jits_Linear_8,2,5,56,103,2320367988
106,20,18,Jits_Linear_8,3,5,80,127,2320437652
106,20,18,Jits_Linear_8,0,1,48,58,2320892800
106,20,18,Jits_Linear_8,1,5,56,103,2320917860
106,20,18,Jits_Linear_8,2,5,63,98,2320928056
106,20,18,Jits_Linear_8,3,5,80,127,2320931640
106,20,18,Jits_Linear_8,0,5,63,98,2321388164
106,20,18,Jits_Linear_8,1,1,48,61,2321406428
106,20,18,Jits_Linear_8,2,5,56,103,2321448472
106,20,18,Jits_Linear_8,3,5,80,127,2321451468
106,20,18,Jits_Linear_8,0,5,63,98,2321897800
106,20,18,Jits_Linear_8,1,5,80,127,2321927404
106,20,18,Jits_Linear_8,2,1,48,48,2321944896
106,20,18,Jits_Linear_8,3,5,56,103,2321948224
106,20,18,Jits_Linear_8,0,5,56,103,2322428268
106,20,18,Jits_Linear_8,1,1,48,55,2322464272
106,20,18,Jits_Linear_8,2,5,63,98,2322477416
106,20,18,Jits_Linear_8,3,5,80,127,2322558616
106,20,18,Jits_Linear_8,0,5,80,127,2322928184
106,20,18,Jits_Linear_8,1,5,63,98,2322967828
106,20,18,Jits_Linear_8,2,1,48,47,2322982628
106,20,18,Jits_Linear_8,3,5,56,103,2322988428
106,20,18,Jits_Linear_8,0,1,48,57,2323470316
106,20,18,Jits_Linear_8,1,5,56,103,2323517700
106,20,18,Jits_Linear_8,2,5,80,127,2323528120
106,20,18,Jits_Linear_8,3,5,63,98,2323547608
106,20,18,Jits_Linear_8,0,1,48,62,2324016936
106,20,18,Jits_Linear_8,1,5,56,103,2324018504
106,20,18,Jits_Linear_8,2,5,63,98,2324067660
106,20,18,Jits_Linear_8,3,5,80,127,2324098532
106,20,18,Jits_Linear_8,0,5,56,103,2324487472
106,20,18,Jits_Linear_8,1,5,63,98,2324497668
106,20,18,Jits_Linear_8,2,5,80,127,2324548092
106,20,18,Jits_Linear_8,3,1,48,54,2324561400
106,20,18,Jits_Linear_8,0,5,56,103,2324997496
106,20,18,Jits_Linear_8,1,5,80,127,2325000488
106,20,18,Jits_Linear_8,2,1,48,38,2325069388
106,20,18,Jits_Linear_8,3,5,63,98,2325158192
106,20,18,Jits_Linear_8,0,5,63,98,2325528120
106,20,18,Jits_Linear_8,1,1,48,47,2325561956
106,20,18,Jits_Linear_8,2,5,56,103,2325597572
106,20,18,Jits_Linear_8,3,5,80,127,2325637512
106,20,18,Jits_Linear_8,0,1,48,52,2326056172
106,20,18,Jits_Linear_8,1,5,63,98,2326077768
106,20,18,Jits_Linear_8,2,5,56,103,2326168036
106,20,18,Jits_Linear_8,3,5,80,127,2326171104
106,20,18,Jits_Linear_8,0,5,56,103,2326568236
106,20,18,Jits_Linear_8,1,1,48,56,2326597208
106,20,18,Jits_Linear_8,2,5,63,98,2326658364
106,20,18,Jits_Linear_8,3,5,80,127,2326667516
106,20,18,Jits_Linear_8,0,5,56,103,2327047552
106,20,18,Jits_Linear_8,1,5,63,98,2327097684
106,20,18,Jits_Linear_8,2,5,80,127,2327128552
106,20,18,Jits_Linear_8,3,1,48,62,2327165452
106,20,18,Jits_Linear_8,0,5,63,98,2327628384
106,20,18,Jits_Linear_8,1,5,80,127,2327638504
106,20,18,Jits_Linear_8,2,1,48,64,2327681776
106,20,18,Jits_Linear_8,3,5,56,103,2327697764
106,20,18,Jits_Linear_8,0,5,63,98,2328048124
106,20,18,Jits_Linear_8,1,5,80,127,2328108444
106,20,18,Jits_Linear_8,2,5,56,103,2328148308
106,20,18,Jits_Linear_8,3,1,48,56,2328203036
106,20,18,Jits_Linear_8,0,5,56,103,2328648196
106,20,18,Jits_Linear_8,1,1,48,59,2328654308
106,20,18,Jits_Linear_8,2,5,80,127,2328667528
106,20,18,Jits_Linear_8,3,5,63,98,2328688064
106,20,18,Jits_Linear_8,0,5,63,98,2329068104
106,20,18,Jits_Linear_8,1,5,56,103,2329088340
106,20,18,Jits_Linear_8,2,5,80,127,2329128428
106,20,18,Jits_Linear_8,3,1,48,61,2329179720
106,20,18,Jits_Linear_8,0,5,63,98,2329577748
106,20,18,Jits_Linear_8,1,5,80,127,2329607428
106,20,18,Jits_Linear_8,2,5,56,103,2329628108
106,20,18,Jits_Linear_8,3,1,48,56,2329669960
106,20,18,Jits_Linear_8,0,5,80,127,2330047832
106,20,18,Jits_Linear_8,1,5,56,103,2330098108
106,20,18,Jits_Linear_8,2,1,48,57,2330146784
106,20,18,Jits_Linear_8,3,5,63,98,2330157448
106,20,18,Jits_Linear_8,0,5,63,98,2330528316
106,20,18,Jits_Linear_8,1,1,48,55,2330627888
106,20,18,Jits_Linear_8,2,5,56,103,2330648140
106,20,18,Jits_Linear_8,3,5,80,127,2330677668
106,20,18,Jits_Linear_8,0,5,80,127,2331057448
106,20,18,Jits_Linear_8,1,5,63,98,2331078232
106,20,18,Jits_Linear_8,2,1,48,55,2331106384
106,20,18,Jits_Linear_8,3,5,56,103,2331147608
106,20,18,Jits_Linear_8,0,5,63,98,2331567332
106,20,18,Jits_Linear_8,1,5,56,103,2331577780
106,20,18,Jits_Linear_8,2,1,48,46,2331607500
106,20,18,Jits_Linear_8,3,5,80,127,2331657492
106,20,18,Jits_Linear_8,0,1,48,51,2332081732
106,20,18,Jits_Linear_8,1,5,56,103,2332118424
106,20,18,Jits_Linear_8,2,5,80,127,2332148248
106,20,18,Jits_Linear_8,3,5,63,98,2332158444
106,20,18,Jits_Linear_8,0,9999,9999,9999,2221755472
106,20,18,Jits_Linear_8,1,9999,9999,9999,2222575708
106,20,18,Jits_Linear_8,2,9999,9999,9999,2223395960
106,20,18,Jits_Linear_8,3,9999,9999,9999,2224215096
106,20,18,Jits_Linear_8,4,9999,9999,9999,2225035344
106,20,18,Jits_Linear_8,5,9999,9999,9999,2225845324
106,20,18,Jits_Linear_8,6,9999,9999,9999,2226655332
106,20,18,Jits_Linear_8,7,9999,9999,9999,2227465296
106,20,18,Jits_Linear_8,8,9999,9999,9999,2228275268
106,20,18,Jits_Linear_8,9,9999,9999,9999,2229085272
106,20,18,Jits_Linear_8,10,9999,9999,9999,2229886020
106,20,18,Jits_Linear_8,11,9999,9999,9999,2230685776
106,20,18,Jits_Linear_8,12,9999,9999,9999,2231485500
106,20,18,Jits_Linear_8,13,9999,9999,9999,2232285264
106,20,18,Jits_Linear_8,14,9999,9999,9999,2233086052
106,20,18,Jits_Linear_8,15,9999,9999,9999,2233875552
106,20,18,Jits_Linear_8,16,9999,9999,9999,2234666072
106,20,18,Jits_Linear_8,17,9999,9999,9999,2235455584
106,20,18,Jits_Linear_8,18,9999,9999,9999,2236246132
106,20,18,Jits_Linear_8,19,9999,9999,9999,2237045828
106,20,18,Jits_Linear_8,20,9999,9999,9999,2237825128
106,20,18,Jits_Linear_8,21,9999,9999,9999,2238605404
106,20,18,Jits_Linear_8,22,9999,9999,9999,2239385684
106,20,18,Jits_Linear_8,23,9999,9999,9999,2240165972
106,20,18,Jits_Linear_8,24,9999,9999,9999,2240945272
106,20,18,Jits_Linear_8,25,9999,9999,9999,2241715280
106,20,18,Jits_Linear_8,26,9999,9999,9999,2242485300
106,20,18,Jits_Linear_8,27,9999,9999,9999,2243255400
106,20,18,Jits_Linear_8,28,9999,9999,9999,2244025448
106,20,18,Jits_Linear_8,29,9999,9999,9999,2244795480
106,20,18,Jits_Linear_8,30,9999,9999,9999,2245555276
106,20,18,Jits_Linear_8,31,9999,9999,9999,2246315092
106,20,18,Jits_Linear_8,32,9999,9999,9999,2247075896
106,20,18,Jits_Linear_8,33,9999,9999,9999,2247835724
106,20,18,Jits_Linear_8,34,9999,9999,9999,2248595560
106,20,18,Jits_Linear_8,35,9999,9999,9999,2249345144
106,20,18,Jits_Linear_8,36,9999,9999,9999,2250095684
106,20,18,Jits_Linear_8,37,9999,9999,9999,2250845256
106,20,18,Jits_Linear_8,38,9999,9999,9999,2251595872
106,20,18,Jits_Linear_8,39,9999,9999,9999,2252345452
106,20,18,Jits_Linear_8,40,9999,9999,9999,2253085812
106,20,18,Jits_Linear_8,41,9999,9999,9999,2253825128
106,20,18,Jits_Linear_8,42,9999,9999,9999,2254565464
106,20,18,Jits_Linear_8,43,9999,9999,9999,2255305816
106,20,18,Jits_Linear_8,44,9999,9999,9999,2256045140
106,20,18,Jits_Linear_8,45,9999,9999,9999,2256775228
106,20,18,Jits_Linear_8,46,9999,9999,9999,2257505392
106,20,18,Jits_Linear_8,47,9999,9999,9999,2258235484
106,20,18,Jits_Linear_8,48,9999,9999,9999,2258965576
106,20,18,Jits_Linear_8,49,9999,9999,9999,2259695736
106,20,18,Jits_Linear_8,50,9999,9999,9999,2260415552
106,20,18,Jits_Linear_8,51,9999,9999,9999,2261135432
106,20,18,Jits_Linear_8,52,9999,9999,9999,2261855328
106,20,18,Jits_Linear_8,53,9999,9999,9999,2262575164
106,20,18,Jits_Linear_8,54,9999,9999,9999,2263296096
106,20,18,Jits_Linear_8,55,9999,9999,9999,2264015928
106,20,18,Jits_Linear_8,56,9999,9999,9999,2264725600
106,20,18,Jits_Linear_8,57,9999,9999,9999,2265435244
106,20,18,Jits_Linear_8,58,9999,9999,9999,2266145860
106,20,18,Jits_Linear_8,59,9999,9999,9999,2266855500
106,20,18,Jits_Linear_8,60,9999,9999,9999,2267555900
106,20,18,Jits_Linear_8,61,9999,9999,9999,2268255356
106,20,18,Jits_Linear_8,62,9999,9999,9999,2268955752
106,20,18,Jits_Linear_8,63,9999,9999,9999,2269655108
106,20,18,Jits_Linear_8,64,9999,9999,9999,2270355516
106,20,18,Jits_Linear_8,65,9999,9999,9999,2271045740
106,20,18,Jits_Linear_8,66,9999,9999,9999,2271735908
106,20,18,Jits_Linear_8,67,9999,9999,9999,2272426108
106,20,18,Jits_Linear_8,68,9999,9999,9999,2273115212
106,20,18,Jits_Linear_8,69,9999,9999,9999,2273805376
106,20,18,Jits_Linear_8,70,9999,9999,9999,2274485320
106,20,18,Jits_Linear_8,71,9999,9999,9999,2275165284
106,20,18,Jits_Linear_8,72,9999,9999,9999,2275845180
106,20,18,Jits_Linear_8,73,9999,9999,9999,2276525128
106,20,18,Jits_Linear_8,74,9999,9999,9999,2277206076
106,20,18,Jits_Linear_8,75,9999,9999,9999,2277886052
106,20,18,Jits_Linear_8,76,9999,9999,9999,2278555736
106,20,18,Jits_Linear_8,77,9999,9999,9999,2279225424
106,20,18,Jits_Linear_8,78,9999,9999,9999,2279895128
106,20,18,Jits_Linear_8,79,9999,9999,9999,2280565860
106,20,18,Jits_Linear_8,80,9999,9999,9999,2281225312
106,20,18,Jits_Linear_8,81,9999,9999,9999,2281885764
106,20,18,Jits_Linear_8,82,9999,9999,9999,2282545268
106,20,18,Jits_Linear_8,83,9999,9999,9999,2283205740
106,20,18,Jits_Linear_8,84,9999,9999,9999,2283865156
106,20,18,Jits_Linear_8,85,9999,9999,9999,2284515392
106,20,18,Jits_Linear_8,86,9999,9999,9999,2285165672
106,20,18,Jits_Linear_8,87,9999,9999,9999,2285815884
106,20,18,Jits_Linear_8,88,9999,9999,9999,2286465100
106,20,18,Jits_Linear_8,89,9999,9999,9999,2287115324
106,20,18,Jits_Linear_8,90,9999,9999,9999,2287755336
106,20,18,Jits_Linear_8,91,9999,9999,9999,2288395376
106,20,18,Jits_Linear_8,92,9999,9999,9999,2289035320
106,20,18,Jits_Linear_8,93,9999,9999,9999,2289675340
106,20,18,Jits_Linear_8,94,9999,9999,9999,2290315348
106,20,18,Jits_Linear_8,95,9999,9999,9999,2290945124
106,20,18,Jits_Linear_8,96,9999,9999,9999,2291575924
106,20,18,Jits_Linear_8,97,9999,9999,9999,2292205692
106,20,18,Jits_Linear_8,98,9999,9999,9999,2292835448
106,20,18,Jits_Linear_8,99,9999,9999,9999,2293465156
106,20,18,Jits_Linear_8,100,9999,9999,9999,2294085756
106,20,18,Jits_Linear_8,101,9999,9999,9999,2294705240
106,20,18,Jits_Linear_8,102,9999,9999,9999,2295325792
106,20,18,Jits_Linear_8,103,9999,9999,9999,2295945280
106,20,18,Jits_Linear_8,104,9999,9999,9999,2296565840
106,20,18,Jits_Linear_8,105,9999,9999,9999,2297175136
106,20,18,Jits_Linear_8,106,9999,9999,9999,2297785412
106,20,18,Jits_Linear_8,107,9999,9999,9999,2298395724
106,20,18,Jits_Linear_8,108,9999,9999,9999,2299006060
106,20,18,Jits_Linear_8,109,9999,9999,9999,2299615292
106,20,18,Jits_Linear_8,110,9999,9999,9999,2300215380
106,20,18,Jits_Linear_8,111,9999,9999,9999,2300815456
106,20,18,Jits_Linear_8,112,9999,9999,9999,2301415484
106,20,18,Jits_Linear_8,113,9999,9999,9999,2302015568
106,20,18,Jits_Linear_8,114,9999,9999,9999,2302615652
106,20,18,Jits_Linear_8,115,9999,9999,9999,2303205480
106,20,18,Jits_Linear_8,116,9999,9999,9999,2303795308
106,20,18,Jits_Linear_8,117,9999,9999,9999,2304385144
106,20,18,Jits_Linear_8,118,9999,9999,9999,2304975960
106,20,18,Jits_Linear_8,119,9999,9999,9999,2305565776
106,20,18,Jits_Linear_8,120,9999,9999,9999,2306145404
106,20,18,Jits_Linear_8,121,9999,9999,9999,2306726000
106,20,18,Jits_Linear_8,122,9999,9999,9999,2307305532
106,20,18,Jits_Linear_8,123,9999,9999,9999,2307885140
106,20,18,Jits_Linear_8,124,9999,9999,9999,2308465732
106,20,18,Jits_Linear_8,125,9999,9999,9999,2309035076
106,20,18,Jits_Linear_8,126,9999,9999,9999,2309605432
106,20,18,Jits_Linear_8,127,9999,9999,9999,2310175836
106,20,18,Jits_Linear_8,128,9999,9999,9999,2310745196
106,20,18,Jits_Linear_8,129,9999,9999,9999,2311315520
106,20,18,Jits_Linear_8,130,9999,9999,9999,2311875704
106,20,18,Jits_Linear_8,131,9999,9999,9999,2312435772
106,20,18,Jits_Linear_8,132,9999,9999,9999,2312995920
106,20,18,Jits_Linear_8,133,9999,9999,9999,2313556084
106,20,18,Jits_Linear_8,134,9999,9999,9999,2314115172
106,20,18,Jits_Linear_8,135,9999,9999,9999,2314666080
106,20,18,Jits_Linear_8,136,9999,9999,9999,2315215980
106,20,18,Jits_Linear_8,137,9999,9999,9999,2315765868
106,20,18,Jits_Linear_8,138,9999,9999,9999,2316315760
106,20,18,Jits_Linear_8,139,9999,9999,9999,2316865648
106,20,18,Jits_Linear_8,140,9999,9999,9999,2317405264
106,20,18,Jits_Linear_8,141,9999,9999,9999,2317945924
106,20,18,Jits_Linear_8,142,9999,9999,9999,2318485616
106,20,18,Jits_Linear_8,143,9999,9999,9999,2319025224
106,20,18,Jits_Linear_8,144,9999,9999,9999,2319565912
106,20,18,Jits_Linear_8,145,9999,9999,9999,2320095340
106,20,18,Jits_Linear_8,146,9999,9999,9999,2320625752
106,20,18,Jits_Linear_8,147,9999,9999,9999,2321155168
106,20,18,Jits_Linear_8,148,9999,9999,9999,2321685628
106,20,18,Jits_Linear_8,149,9999,9999,9999,2322216020
106,20,18,Jits_Linear_8,150,9999,9999,9999,2322735184
106,20,18,Jits_Linear_8,151,9999,9999,9999,2323255400
106,20,18,Jits_Linear_8,152,9999,9999,9999,2323775548
106,20,18,Jits_Linear_8,153,9999,9999,9999,2324295756
106,20,18,Jits_Linear_8,154,9999,9999,9999,2324815956
106,20,18,Jits_Linear_8,155,9999,9999,9999,2325325904
106,20,18,Jits_Linear_8,156,9999,9999,9999,2325835860
106,20,18,Jits_Linear_8,157,9999,9999,9999,2326345804
106,20,18,Jits_Linear_8,158,9999,9999,9999,2326855748
106,20,18,Jits_Linear_8,159,9999,9999,9999,2327365704
106,20,18,Jits_Linear_8,160,9999,9999,9999,2327865400
106,20,18,Jits_Linear_8,161,9999,9999,9999,2328365152
106,20,18,Jits_Linear_8,162,9999,9999,9999,2328865888
106,20,18,Jits_Linear_8,163,9999,9999,9999,2329365580
106,20,18,Jits_Linear_8,164,9999,9999,9999,2329865332
106,20,18,Jits_Linear_8,165,9999,9999,9999,2330355796
106,20,18,Jits_Linear_8,166,9999,9999,9999,2330845304
106,20,18,Jits_Linear_8,167,9999,9999,9999,2331335768
106,20,18,Jits_Linear_8,168,9999,9999,9999,2331825252
106,20,18,Jits_Linear_8,169,9999,9999,9999,2332315720
106,22,5,ISIP_5,0,5,42,127,2528079172
106,22,5,ISIP_5,1,5,42,127,2528578960
106,22,5,ISIP_5,2,5,42,127,2529078976
106,22,5,ISIP_5,3,5,42,127,2529579368
106,22,5,ISIP_5,4,5,42,127,2530079012
106,22,5,ISIP_5,5,5,42,127,2530578728
106,22,5,ISIP_5,6,5,42,127,2531078816
106,22,5,ISIP_5,7,5,42,127,2531579208
106,22,5,ISIP_5,8,1,48,48,2532078396
106,22,5,ISIP_5,9,5,42,127,2532079888
106,22,5,ISIP_5,10,5,42,127,2532578840
106,22,5,ISIP_5,11,1,48,57,2532595728
106,22,5,ISIP_5,12,5,42,127,2533079508
106,22,5,ISIP_5,13,1,48,57,2533105292
106,22,5,ISIP_5,14,5,42,127,2533579208
106,22,5,ISIP_5,15,1,48,67,2533629000
106,22,5,ISIP_5,16,5,42,127,2534078824
106,22,5,ISIP_5,17,1,48,69,2534139316
106,22,5,ISIP_5,18,5,42,127,2534578668
106,22,5,ISIP_5,19,1,48,66,2534629060
106,22,5,ISIP_5,20,5,42,127,2535079388
106,22,5,ISIP_5,21,1,48,71,2535118064
106,22,5,ISIP_5,22,5,42,127,2535579084
106,22,5,ISIP_5,23,1,48,67,2535617456
106,22,5,ISIP_5,24,5,42,127,2536078704
106,22,5,ISIP_5,25,1,48,63,2536101948
106,22,5,ISIP_5,26,5,42,127,2536578548
106,22,5,ISIP_5,27,1,48,63,2536595128
106,22,5,ISIP_5,28,5,42,127,2537079140
106,22,5,ISIP_5,29,1,48,68,2537088912
106,22,5,ISIP_5,30,5,42,127,2537578760
106,22,5,ISIP_5,31,1,48,68,2537594072
106,22,5,ISIP_5,32,5,42,127,2538078528
106,22,5,ISIP_5,33,1,48,57,2538100644
106,22,5,ISIP_5,34,5,42,127,2538579272
106,22,5,ISIP_5,35,1,48,67,2538586052
106,22,5,ISIP_5,36,1,48,64,2539071216
106,22,5,ISIP_5,37,5,42,127,2539078884
106,22,5,ISIP_5,38,1,48,68,2539572932
106,22,5,ISIP_5,39,5,42,127,2539578800
106,22,5,ISIP_5,40,5,42,127,2540078576
106,22,5,ISIP_5,41,1,48,76,2540081548
106,22,5,ISIP_5,42,1,48,71,2540573220
106,22,5,ISIP_5,43,5,42,127,2540579312
106,22,5,ISIP_5,44,5,42,127,2541078792
106,22,5,ISIP_5,45,1,48,76,2541085496
106,22,5,ISIP_5,46,5,42,127,2541578560
106,22,5,ISIP_5,47,1,48,66,2541592824
106,22,5,ISIP_5,48,1,48,67,2542069608
106,22,5,ISIP_5,49,5,42,127,2542079440
106,22,5,ISIP_5,50,1,48,74,2542561304
106,22,5,ISIP_5,51,5,42,127,2542578912
106,22,5,ISIP_5,52,1,48,74,2543058980
106,22,5,ISIP_5,53,5,42,127,2543078684
106,22,5,ISIP_5,54,1,48,71,2543553812
106,22,5,ISIP_5,55,5,42,127,2543578600
106,22,5,ISIP_5,56,1,48,73,2544067116
106,22,5,ISIP_5,57,5,42,127,2544079416
106,22,5,ISIP_5,58,5,42,127,2544578896
106,22,5,ISIP_5,59,1,48,69,2544588148
106,22,5,ISIP_5,60,5,42,127,2545078516
106,22,5,ISIP_5,61,1,48,62,2545090160
106,22,5,ISIP_5,62,1,48,62,2545566028
106,22,5,ISIP_5,63,5,42,127,2545579696
106,22,5,ISIP_5,64,1,48,70,2546073272
106,22,5,ISIP_5,65,5,42,127,2546079292
106,22,5,ISIP_5,66,5,42,127,2546578920
106,22,5,ISIP_5,67,1,48,64,2546592064
106,22,5,ISIP_5,68,5,42,127,2547078464
106,22,5,ISIP_5,69,1,48,68,2547102752
106,22,5,ISIP_5,70,5,42,127,2547579428
106,22,5,ISIP_5,71,1,48,70,2547606860
106,22,5,ISIP_5,72,1,48,67,2548104680
106,22,5,ISIP_5,73,1,48,60,2548820556
106,22,5,ISIP_5,74,1,48,70,2549364980
106,22,5,ISIP_5,75,1,48,75,2549902816
106,22,5,ISIP_5,76,1,48,76,2550425096
106,22,5,ISIP_5,77,1,48,66,2550938996
106,22,5,ISIP_5,78,1,48,73,2551447508
106,22,5,ISIP_5,79,1,48,66,2551977940
106,22,5,ISIP_5,80,1,48,72,2552497756
106,22,5,ISIP_5,81,1,48,70,2553024528
106,22,5,ISIP_5,82,1,48,68,2553559372
106,22,5,ISIP_5,83,1,48,72,2554097748
106,22,5,ISIP_5,84,1,48,63,2554631840
106,22,5,ISIP_5,85,1,48,71,2555140956
106,22,5,ISIP_5,86,1,48,71,2555650148
106,22,5,ISIP_5,87,1,48,72,2556168012
106,22,5,ISIP_5,88,1,48,74,2556682292
106,22,5,ISIP_5,89,1,48,72,2557192380
106,22,5,ISIP_5,90,1,48,69,2557706200
106,22,5,ISIP_5,91,1,48,73,2558222124
106,22,5,ISIP_5,92,1,48,73,2558745752
106,22,5,ISIP_5,93,1,48,71,2559262640
106,22,5,ISIP_5,94,1,48,76,2559775276
106,22,5,ISIP_5,95,1,48,78,2560272504
106,22,5,ISIP_5,96,1,48,74,2560774880
106,22,5,ISIP_5,97,1,48,73,2561278684
106,22,5,ISIP_5,98,1,48,76,2561802012
106,22,5,ISIP_5,99,1,48,75,2562322500
106,22,5,ISIP_5,100,1,48,78,2562837896
106,22,5,ISIP_5,101,1,48,79,2563353968
106,22,5,ISIP_5,102,1,48,76,2563859040
106,22,5,ISIP_5,103,1,48,76,2564364716
106,22,5,ISIP_5,104,1,48,76,2564874584
106,22,5,ISIP_5,105,1,48,81,2565386540
106,22,5,ISIP_5,106,1,48,77,2565907548
106,22,5,ISIP_5,107,1,48,71,2566425788
106,22,5,ISIP_5,108,1,48,75,2566925028
106,22,5,ISIP_5,109,1,48,78,2567427784
106,22,5,ISIP_5,110,1,48,74,2567923212
106,22,5,ISIP_5,111,1,48,67,2568430832
106,22,5,ISIP_5,112,1,48,76,2568932472
106,22,5,ISIP_5,113,1,48,80,2569425052
106,22,5,ISIP_5,114,1,48,74,2569926608
106,22,5,ISIP_5,115,1,48,77,2570441408
106,22,5,ISIP_5,116,1,48,76,2570939904
106,22,5,ISIP_5,117,1,48,78,2571428424
106,22,5,ISIP_5,118,1,48,75,2571912260
106,22,5,ISIP_5,119,1,48,78,2572412100
106,22,5,ISIP_5,120,1,48,78,2572915304
106,22,5,ISIP_5,121,1,48,62,2573402428
106,22,5,ISIP_5,122,1,48,73,2573878632
106,22,5,ISIP_5,123,1,48,75,2574343764
106,22,5,ISIP_5,124,1,48,75,2574831188
106,22,5,ISIP_5,125,1,48,79,2575338660
106,22,5,ISIP_5,126,1,48,75,2575832516
106,22,5,ISIP_5,127,1,48,82,2576312832
106,22,5,ISIP_5,128,1,48,82,2576796268
106,22,5,ISIP_5,129,1,48,81,2577273592
106,22,5,ISIP_5,130,1,48,69,2577765804
106,22,5,ISIP_5,131,1,48,80,2578250084
106,22,5,ISIP_5,132,1,48,82,2578739232
106,22,5,ISIP_5,133,1,48,81,2579213788
106,22,5,ISIP_5,134,1,48,76,2579690364
106,22,5,ISIP_5,135,1,48,74,2580186172
106,22,5,ISIP_5,136,1,48,79,2580685708
106,22,5,ISIP_5,137,1,48,78,2581168720
106,22,5,ISIP_5,138,1,48,84,2581637420
106,22,5,ISIP_5,139,1,48,68,2582116764
106,22,5,ISIP_5,140,1,48,79,2582606428
106,22,5,ISIP_5,141,1,48,80,2583083680
106,22,5,ISIP_5,142,1,48,68,2583544684
106,22,5,ISIP_5,143,1,48,73,2584033756
106,22,5,ISIP_5,144,1,48,78,2584532176
106,22,5,ISIP_5,145,1,48,78,2585038972
106,22,5,ISIP_5,146,1,48,75,2585509836
106,22,5,ISIP_5,147,1,48,78,2586007212
106,22,5,ISIP_5,148,1,48,81,2586503536
106,22,5,ISIP_5,149,1,48,80,2586988264
106,22,5,ISIP_5,150,1,48,67,2587465220
106,22,5,ISIP_5,151,1,48,74,2587955264
106,22,5,ISIP_5,152,1,48,81,2588452556
106,22,5,ISIP_5,153,1,48,72,2588960324
106,22,5,ISIP_5,154,1,48,79,2589459568
106,22,5,ISIP_5,155,1,48,70,2589961576
106,22,5,ISIP_5,156,1,48,81,2590455284
106,22,5,ISIP_5,157,1,48,73,2590949884
106,22,5,ISIP_5,158,1,48,84,2591427592
106,22,5,ISIP_5,159,1,48,70,2591935056
106,22,5,ISIP_5,160,1,48,78,2592408244
106,22,5,ISIP_5,161,1,48,78,2592888040
106,22,5,ISIP_5,162,1,48,79,2593380400
106,22,5,ISIP_5,163,1,48,82,2593880612
106,22,5,ISIP_5,164,1,48,85,2594378208
106,22,5,ISIP_5,165,1,48,86,2594876104
106,22,5,ISIP_5,166,1,48,78,2595377444
106,22,5,ISIP_5,167,1,48,72,2595850200
106,22,5,ISIP_5,168,1,48,76,2596331868
106,22,5,ISIP_5,169,1,48,70,2596832008
106,22,5,ISIP_5,170,1,48,73,2597320180
106,22,5,ISIP_5,171,1,48,78,2597824660
106,22,5,ISIP_5,172,1,48,80,2598316944
106,22,5,ISIP_5,173,1,48,77,2598800372
106,22,5,ISIP_5,174,1,48,75,2599300668
106,22,5,ISIP_5,175,1,48,81,2599813672
106,22,5,ISIP_5,176,1,48,77,2600327424
106,22,5,ISIP_5,177,1,48,67,2600826968
106,22,5,ISIP_5,178,1,48,78,2601302200
106,22,5,ISIP_5,179,1,48,75,2601795832
106,22,5,ISIP_5,180,1,48,79,2602289008
106,22,5,ISIP_5,181,1,48,75,2602774864
106,22,5,ISIP_5,182,1,48,78,2603257648
106,22,5,ISIP_5,183,1,48,81,2603732804
106,22,5,ISIP_5,184,1,48,72,2604228236
106,22,5,ISIP_5,185,1,48,68,2604724784
106,22,5,ISIP_5,186,1,48,79,2605223328
106,22,5,ISIP_5,187,1,48,81,2605690160
106,22,5,ISIP_5,188,1,48,81,2606175108
106,22,5,ISIP_5,189,1,48,81,2606653636
106,22,5,ISIP_5,190,1,48,80,2607139488
106,22,5,ISIP_5,191,1,48,80,2607625492
106,22,5,ISIP_5,0,9999,9999,9999,2528076884
106,22,5,ISIP_5,1,9999,9999,9999,2528576600
106,22,5,ISIP_5,2,9999,9999,9999,2529076320
106,22,5,ISIP_5,3,9999,9999,9999,2529577008
106,22,5,ISIP_5,4,9999,9999,9999,2530076724
106,22,5,ISIP_5,5,9999,9999,9999,2530576440
106,22,5,ISIP_5,6,9999,9999,9999,2531076156
106,22,5,ISIP_5,7,9999,9999,9999,2531576920
106,22,5,ISIP_5,8,9999,9999,9999,2532076636
106,22,5,ISIP_5,9,9999,9999,9999,2532576332
106,22,5,ISIP_5,10,9999,9999,9999,2533077072
106,22,5,ISIP_5,11,9999,9999,9999,2533576768
106,22,5,ISIP_5,12,9999,9999,9999,2534076464
106,22,5,ISIP_5,13,9999,9999,9999,2534576236
106,22,5,ISIP_5,14,9999,9999,9999,2535076952
106,22,5,ISIP_5,15,9999,9999,9999,2535576648
106,22,5,ISIP_5,16,9999,9999,9999,2536076344
106,22,5,ISIP_5,17,9999,9999,9999,2536576112
106,22,5,ISIP_5,18,9999,9999,9999,2537076852
106,22,5,ISIP_5,19,9999,9999,9999,2537576548
106,22,5,ISIP_5,20,9999,9999,9999,2538076240
106,22,5,ISIP_5,21,9999,9999,9999,2538576984
106,22,5,ISIP_5,22,9999,9999,9999,2539076672
106,22,5,ISIP_5,23,9999,9999,9999,2539576440
106,22,5,ISIP_5,24,9999,9999,9999,2540076140
106,22,5,ISIP_5,25,9999,9999,9999,2540576876
106,22,5,ISIP_5,26,9999,9999,9999,2541076576
106,22,5,ISIP_5,27,9999,9999,9999,2541576272
106,22,5,ISIP_5,28,9999,9999,9999,2542077008
106,22,5,ISIP_5,29,9999,9999,9999,2542576700
106,22,5,ISIP_5,30,9999,9999,9999,2543076472
106,22,5,ISIP_5,31,9999,9999,9999,2543576168
106,22,5,ISIP_5,32,9999,9999,9999,2544076908
106,22,5,ISIP_5,33,9999,9999,9999,2544576608
106,22,5,ISIP_5,34,9999,9999,9999,2545076304
106,22,5,ISIP_5,35,9999,9999,9999,2545577012
106,22,5,ISIP_5,36,9999,9999,9999,2546076780
106,22,5,ISIP_5,37,9999,9999,9999,2546576484
106,22,5,ISIP_5,38,9999,9999,9999,2547076176
106,22,5,ISIP_5,39,9999,9999,9999,2547576920
106,22,5,ISIP_5,40,9999,9999,9999,2548076612
106,22,5,ISIP_5,41,9999,9999,9999,2548576376
106,22,5,ISIP_5,42,9999,9999,9999,2549077112
106,22,5,ISIP_5,43,9999,9999,9999,2549576808
106,22,5,ISIP_5,44,9999,9999,9999,2550076496
106,22,5,ISIP_5,45,9999,9999,9999,2550576188
106,22,5,ISIP_5,46,9999,9999,9999,2551076924
106,22,5,ISIP_5,47,9999,9999,9999,2551576688
106,22,5,ISIP_5,48,9999,9999,9999,2552076356
106,22,5,ISIP_5,49,9999,9999,9999,2552576060
106,22,5,ISIP_5,50,9999,9999,9999,2553076800
106,22,5,ISIP_5,51,9999,9999,9999,2553576564
106,22,5,ISIP_5,52,9999,9999,9999,2554076264
106,22,5,ISIP_5,53,9999,9999,9999,2554577000
106,22,5,ISIP_5,54,9999,9999,9999,2555076688
106,22,5,ISIP_5,55,9999,9999,9999,2555576380
106,22,5,ISIP_5,56,9999,9999,9999,2556076148
106,22,5,ISIP_5,57,9999,9999,9999,2556576856
106,22,5,ISIP_5,58,9999,9999,9999,2557076548
106,22,5,ISIP_5,59,9999,9999,9999,2557576240
106,22,5,ISIP_5,60,9999,9999,9999,2558076976
106,22,5,ISIP_5,61,9999,9999,9999,2558576740
106,22,5,ISIP_5,62,9999,9999,9999,2559076432
106,22,5,ISIP_5,63,9999,9999,9999,2559576124
106,22,5,ISIP_5,64,9999,9999,9999,2560076860
106,22,5,ISIP_5,65,9999,9999,9999,2560576628
106,22,5,ISIP_5,66,9999,9999,9999,2561076316
106,22,5,ISIP_5,67,9999,9999,9999,2561577056
106,22,5,ISIP_5,68,9999,9999,9999,2562076744
106,22,5,ISIP_5,69,9999,9999,9999,2562576436
106,22,5,ISIP_5,70,9999,9999,9999,2563076200
106,22,5,ISIP_5,71,9999,9999,9999,2563576940
106,22,5,ISIP_5,72,9999,9999,9999,2564076628
106,22,5,ISIP_5,73,9999,9999,9999,2564576320
106,22,5,ISIP_5,74,9999,9999,9999,2565077060
106,22,5,ISIP_5,75,9999,9999,9999,2565576824
106,22,5,ISIP_5,76,9999,9999,9999,2566076516
106,22,5,ISIP_5,77,9999,9999,9999,2566576208
106,22,5,ISIP_5,78,9999,9999,9999,2567076920
106,22,5,ISIP_5,79,9999,9999,9999,2567576684
106,22,5,ISIP_5,80,9999,9999,9999,2568076376
106,22,5,ISIP_5,81,9999,9999,9999,2568576064
106,22,5,ISIP_5,82,9999,9999,9999,2569076804
106,22,5,ISIP_5,83,9999,9999,9999,2569576568
106,22,5,ISIP_5,84,9999,9999,9999,2570076256
106,22,5,ISIP_5,85,9999,9999,9999,2570576996
106,22,5,ISIP_5,86,9999,9999,9999,2571076684
106,22,5,ISIP_5,87,9999,9999,9999,2571576376
106,22,5,ISIP_5,88,9999,9999,9999,2572076140
106,22,5,ISIP_5,89,9999,9999,9999,2572576876
106,22,5,ISIP_5,90,9999,9999,9999,2573076568
106,22,5,ISIP_5,91,9999,9999,9999,2573576260
106,22,5,ISIP_5,92,9999,9999,9999,2574076996
106,22,5,ISIP_5,93,9999,9999,9999,2574576760
106,22,5,ISIP_5,94,9999,9999,9999,2575076452
106,22,5,ISIP_5,95,9999,9999,9999,2575576144
106,22,5,ISIP_5,96,9999,9999,9999,2576076880
106,22,5,ISIP_5,97,9999,9999,9999,2576576572
106,22,5,ISIP_5,98,9999,9999,9999,2577076336
106,22,5,ISIP_5,99,9999,9999,9999,2577577072
106,22,5,ISIP_5,100,9999,9999,9999,2578076740
106,22,5,ISIP_5,101,9999,9999,9999,2578576504
106,22,5,ISIP_5,102,9999,9999,9999,2579076196
106,22,5,ISIP_5,103,9999,9999,9999,2579576932
106,22,5,ISIP_5,104,9999,9999,9999,2580076624
106,22,5,ISIP_5,105,9999,9999,9999,2580576312
106,22,5,ISIP_5,106,9999,9999,9999,2581077052
106,22,5,ISIP_5,107,9999,9999,9999,2581576816
106,22,5,ISIP_5,108,9999,9999,9999,2582076504
106,22,5,ISIP_5,109,9999,9999,9999,2582576196
106,22,5,ISIP_5,110,9999,9999,9999,2583076932
106,22,5,ISIP_5,111,9999,9999,9999,2583576692
106,22,5,ISIP_5,112,9999,9999,9999,2584076384
106,22,5,ISIP_5,113,9999,9999,9999,2584576072
106,22,5,ISIP_5,114,9999,9999,9999,2585076812
106,22,5,ISIP_5,115,9999,9999,9999,2585576504
106,22,5,ISIP_5,116,9999,9999,9999,2586076268
106,22,5,ISIP_5,117,9999,9999,9999,2586577004
106,22,5,ISIP_5,118,9999,9999,9999,2587076692
106,22,5,ISIP_5,119,9999,9999,9999,2587576368
106,22,5,ISIP_5,120,9999,9999,9999,2588076136
106,22,5,ISIP_5,121,9999,9999,9999,2588576848
106,22,5,ISIP_5,122,9999,9999,9999,2589076536
106,22,5,ISIP_5,123,9999,9999,9999,2589576304
106,22,5,ISIP_5,124,9999,9999,9999,2590077040
106,22,5,ISIP_5,125,9999,9999,9999,2590576732
106,22,5,ISIP_5,126,9999,9999,9999,2591076420
106,22,5,ISIP_5,127,9999,9999,9999,2591576112
106,22,5,ISIP_5,128,9999,9999,9999,2592076852
106,22,5,ISIP_5,129,9999,9999,9999,2592576616
106,22,5,ISIP_5,130,9999,9999,9999,2593076304
106,22,5,ISIP_5,131,9999,9999,9999,2593577044
106,22,5,ISIP_5,132,9999,9999,9999,2594076732
106,22,5,ISIP_5,133,9999,9999,9999,2594576500
106,22,5,ISIP_5,134,9999,9999,9999,2595076188
106,22,5,ISIP_5,135,9999,9999,9999,2595576928
106,22,5,ISIP_5,136,9999,9999,9999,2596076620
106,22,5,ISIP_5,137,9999,9999,9999,2596576308
106,22,5,ISIP_5,138,9999,9999,9999,2597077048
106,22,5,ISIP_5,139,9999,9999,9999,2597576812
106,22,5,ISIP_5,140,9999,9999,9999,2598076504
106,22,5,ISIP_5,141,9999,9999,9999,2598576196
106,22,5,ISIP_5,142,9999,9999,9999,2599076980
106,22,5,ISIP_5,143,9999,9999,9999,2599576672
106,22,5,ISIP_5,144,9999,9999,9999,2600076364
106,22,5,ISIP_5,145,9999,9999,9999,2600576052
106,22,5,ISIP_5,146,9999,9999,9999,2601076788
106,22,5,ISIP_5,147,9999,9999,9999,2601576556
106,22,5,ISIP_5,148,9999,9999,9999,2602076244
106,22,5,ISIP_5,149,9999,9999,9999,2602576984
106,22,5,ISIP_5,150,9999,9999,9999,2603076672
106,22,5,ISIP_5,151,9999,9999,9999,2603576440
106,22,5,ISIP_5,152,9999,9999,9999,2604076132
106,22,5,ISIP_5,153,9999,9999,9999,2604576868
106,22,5,ISIP_5,154,9999,9999,9999,2605076560
106,22,5,ISIP_5,155,9999,9999,9999,2605576300
106,22,5,ISIP_5,156,9999,9999,9999,2606077036
106,22,5,ISIP_5,157,9999,9999,9999,2606576728
106,22,5,ISIP_5,158,9999,9999,9999,2607076416
106,22,5,ISIP_5,159,9999,9999,9999,2607576184
106,23,3,ISIP_8,0,5,42,127,2656030328
106,23,3,ISIP_8,1,5,42,127,2656829936
106,23,3,ISIP_8,2,5,42,127,2657629616
106,23,3,ISIP_8,3,5,42,127,2658430268
106,23,3,ISIP_8,4,5,42,127,2659230320
106,23,3,ISIP_8,5,5,42,127,2660029728
106,23,3,ISIP_8,6,5,42,127,2660829560
106,23,3,ISIP_8,7,5,42,127,2661630360
106,23,3,ISIP_8,8,1,48,77,2662409056
106,23,3,ISIP_8,9,5,42,127,2662430408
106,23,3,ISIP_8,10,1,48,63,2663226448
106,23,3,ISIP_8,11,5,42,127,2663229768
106,23,3,ISIP_8,12,5,42,127,2664029508
106,23,3,ISIP_8,13,1,48,62,2664038688
106,23,3,ISIP_8,14,5,42,127,2664830288
106,23,3,ISIP_8,15,1,48,85,2664835800
106,23,3,ISIP_8,16,5,42,127,2665630096
106,23,3,ISIP_8,17,1,48,81,2665646332
106,23,3,ISIP_8,18,5,42,127,2666429708
106,23,3,ISIP_8,19,1,48,78,2666459076
106,23,3,ISIP_8,20,5,42,127,2667229440
106,23,3,ISIP_8,21,1,48,66,2667254324
106,23,3,ISIP_8,22,5,42,127,2668030220
106,23,3,ISIP_8,23,1,48,76,2668047996
106,23,3,ISIP_8,24,5,42,127,2668829952
106,23,3,ISIP_8,25,1,48,76,2668830920
106,23,3,ISIP_8,26,5,42,127,2669629688
106,23,3,ISIP_8,27,1,48,79,2669670432
106,23,3,ISIP_8,28,5,42,127,2670429492
106,23,3,ISIP_8,29,1,48,76,2670432160
106,23,3,ISIP_8,30,5,42,127,2671230272
106,23,3,ISIP_8,31,1,48,62,2671252092
106,23,3,ISIP_8,32,1,48,71,2672027420
106,23,3,ISIP_8,33,5,42,127,2672030148
106,23,3,ISIP_8,34,1,48,75,2672813044
106,23,3,ISIP_8,35,5,42,127,2672829760
106,23,3,ISIP_8,36,1,48,83,2673623924
106,23,3,ISIP_8,37,5,42,127,2673629420
106,23,3,ISIP_8,38,1,48,79,2674430204
106,23,3,ISIP_8,39,5,42,127,2674431616
106,23,3,ISIP_8,40,5,42,127,2675230012
106,23,3,ISIP_8,41,1,48,70,2675239264
106,23,3,ISIP_8,42,1,48,73,2676018932
106,23,3,ISIP_8,43,5,42,127,2676029740
106,23,3,ISIP_8,44,1,48,76,2676811484
106,23,3,ISIP_8,45,5,42,127,2676829620
106,23,3,ISIP_8,46,1,48,71,2677615112
106,23,3,ISIP_8,47,5,42,127,2677630252
106,23,3,ISIP_8,48,1,48,73,2678425692
106,23,3,ISIP_8,49,5,42,127,2678429984
106,23,3,ISIP_8,50,1,48,73,2679218792
106,23,3,ISIP_8,51,5,42,127,2679229892
106,23,3,ISIP_8,52,1,48,73,2680049732
106,23,3,ISIP_8,53,1,48,62,2680860008
106,23,3,ISIP_8,54,1,48,79,2681659884
106,23,3,ISIP_8,55,1,48,74,2682487064
106,23,3,ISIP_8,56,1,48,74,2683295396
106,23,3,ISIP_8,57,1,48,82,2684110704
106,23,3,ISIP_8,58,1,48,77,2684906172
106,23,3,ISIP_8,59,1,48,82,2685718620
106,23,3,ISIP_8,60,1,48,79,2686536972
106,23,3,ISIP_8,61,1,48,80,2687364228
106,23,3,ISIP_8,62,1,48,74,2688195096
106,23,3,ISIP_8,63,1,48,81,2689014872
106,23,3,ISIP_8,64,1,48,78,2689829856
106,23,3,ISIP_8,65,1,48,77,2690660104
106,23,3,ISIP_8,66,1,48,81,2691498084
106,23,3,ISIP_8,67,1,48,75,2692334612
106,23,3,ISIP_8,68,1,48,78,2693161788
106,23,3,ISIP_8,69,1,48,83,2693982616
106,23,3,ISIP_8,70,1,48,71,2694787876
106,23,3,ISIP_8,71,1,48,78,2695638868
106,23,3,ISIP_8,72,1,48,77,2696477868
106,23,3,ISIP_8,73,1,48,80,2697327408
106,23,3,ISIP_8,74,1,48,83,2698171368
106,23,3,ISIP_8,75,1,48,83,2699033932
106,23,3,ISIP_8,76,1,48,84,2699890880
106,23,3,ISIP_8,77,1,48,78,2700727884
106,23,3,ISIP_8,78,1,48,79,2701546088
106,23,3,ISIP_8,79,1,48,79,2702376856
106,23,3,ISIP_8,80,1,48,81,2703217804
106,23,3,ISIP_8,81,1,48,82,2704025528
106,23,3,ISIP_8,82,1,48,89,2704844972
106,23,3,ISIP_8,83,1,48,82,2705686816
106,23,3,ISIP_8,84,1,48,78,2706510104
106,23,3,ISIP_8,85,1,48,78,2707324492
106,23,3,ISIP_8,86,1,48,89,2708162388
106,23,3,ISIP_8,87,1,48,79,2708993832
106,23,3,ISIP_8,88,1,48,82,2709824980
106,23,3,ISIP_8,89,1,48,74,2710662932
106,23,3,ISIP_8,90,1,48,79,2711493728
106,23,3,ISIP_8,91,1,48,84,2712322180
106,23,3,ISIP_8,92,1,48,82,2713152952
106,23,3,ISIP_8,93,1,48,82,2713976016
106,23,3,ISIP_8,94,1,48,81,2714796560
106,23,3,ISIP_8,95,1,48,80,2715663688
106,23,3,ISIP_8,96,1,48,89,2716504700
106,23,3,ISIP_8,97,1,48,82,2717332252
106,23,3,ISIP_8,98,1,48,74,2718190804
106,23,3,ISIP_8,99,1,48,77,2719067572
106,23,3,ISIP_8,100,1,48,86,2719941296
106,23,3,ISIP_8,101,1,48,84,2720821436
106,23,3,ISIP_8,102,1,48,82,2721667108
106,23,3,ISIP_8,103,1,48,81,2722533276
106,23,3,ISIP_8,104,1,48,77,2723392168
106,23,3,ISIP_8,105,1,48,82,2724235584
106,23,3,ISIP_8,106,1,48,79,2725084928
106,23,3,ISIP_8,107,1,48,72,2725927812
106,23,3,ISIP_8,108,1,48,87,2726782668
106,23,3,ISIP_8,109,1,48,72,2727632684
106,23,3,ISIP_8,110,1,48,85,2728473856
106,23,3,ISIP_8,111,1,48,78,2729341872
106,23,3,ISIP_8,112,1,48,82,2730219568
106,23,3,ISIP_8,113,1,48,73,2731062304
106,23,3,ISIP_8,114,1,48,80,2731934960
106,23,3,ISIP_8,115,1,48,84,2732810412
106,23,3,ISIP_8,116,1,48,86,2733703576
106,23,3,ISIP_8,117,1,48,82,2734587848
106,23,3,ISIP_8,118,1,48,81,2735480624
106,23,3,ISIP_8,119,1,48,83,2736381432
106,23,3,ISIP_8,120,1,48,86,2737305780
106,23,3,ISIP_8,121,1,48,86,2738214660
106,23,3,ISIP_8,122,1,48,80,2739101080
106,23,3,ISIP_8,123,1,48,70,2740001508
106,23,3,ISIP_8,124,1,48,85,2740889364
106,23,3,ISIP_8,125,1,48,75,2741726444
106,23,3,ISIP_8,126,1,48,81,2742629768
106,23,3,ISIP_8,127,1,48,79,2743488984
106,23,3,ISIP_8,128,1,48,83,2744324244
106,23,3,ISIP_8,129,1,48,85,2745186652
106,23,3,ISIP_8,130,1,48,83,2746043996
106,23,3,ISIP_8,131,1,48,70,2746893620
106,23,3,ISIP_8,132,1,48,70,2747766424
106,23,3,ISIP_8,133,1,48,86,2748619884
106,23,3,ISIP_8,134,1,48,85,2749453120
106,23,3,ISIP_8,135,1,48,74,2750350160
106,23,3,ISIP_8,136,1,48,83,2751246420
106,23,3,ISIP_8,137,1,48,91,2752157596
106,23,3,ISIP_8,138,1,48,82,2753030280
106,23,3,ISIP_8,139,1,48,88,2753905548
106,23,3,ISIP_8,140,1,48,86,2754803664
106,23,3,ISIP_8,141,1,48,81,2755635032
106,23,3,ISIP_8,142,1,48,86,2756538388
106,23,3,ISIP_8,143,1,48,84,2757397204
106,23,3,ISIP_8,144,1,48,74,2758257516
106,23,3,ISIP_8,145,1,48,82,2759158928
106,23,3,ISIP_8,146,1,48,79,2760009892
106,23,3,ISIP_8,147,1,48,84,2760916396
106,23,3,ISIP_8,148,1,48,83,2761790920
106,23,3,ISIP_8,149,1,48,78,2762646224
106,23,3,ISIP_8,150,1,48,74,2763516064
106,23,3,ISIP_8,151,1,48,86,2764434420
106,23,3,ISIP_8,152,1,48,76,2765334328
106,23,3,ISIP_8,153,1,48,84,2766240660
106,23,3,ISIP_8,154,1,48,77,2767095668
106,23,3,ISIP_8,155,1,48,88,2767943416
106,23,3,ISIP_8,156,1,48,86,2768868548
106,23,3,ISIP_8,157,1,48,81,2769760800
106,23,3,ISIP_8,158,1,48,79,2770652260
106,23,3,ISIP_8,159,1,48,88,2771569868
106,23,3,ISIP_8,160,1,48,83,2772488024
106,23,3,ISIP_8,161,1,48,82,2773395988
106,23,3,ISIP_8,162,1,48,76,2774303900
106,23,3,ISIP_8,163,1,48,81,2775225124
106,23,3,ISIP_8,0,9999,9999,9999,2656027740
106,23,3,ISIP_8,1,9999,9999,9999,2656827496
106,23,3,ISIP_8,2,9999,9999,9999,2657627252
106,23,3,ISIP_8,3,9999,9999,9999,2658427980
106,23,3,ISIP_8,4,9999,9999,9999,2659227736
106,23,3,ISIP_8,5,9999,9999,9999,2660027440
106,23,3,ISIP_8,6,9999,9999,9999,2660827196
106,23,3,ISIP_8,7,9999,9999,9999,2661628000
106,23,3,ISIP_8,8,9999,9999,9999,2662427748
106,23,3,ISIP_8,9,9999,9999,9999,2663227480
106,23,3,ISIP_8,10,9999,9999,9999,2664027220
106,23,3,ISIP_8,11,9999,9999,9999,2664828000
106,23,3,ISIP_8,12,9999,9999,9999,2665627736
106,23,3,ISIP_8,13,9999,9999,9999,2666427492
106,23,3,ISIP_8,14,9999,9999,9999,2667227228
106,23,3,ISIP_8,15,9999,9999,9999,2668028004
106,23,3,ISIP_8,16,9999,9999,9999,2668827740
106,23,3,ISIP_8,17,9999,9999,9999,2669627472
106,23,3,ISIP_8,18,9999,9999,9999,2670427204
106,23,3,ISIP_8,19,9999,9999,9999,2671227984
106,23,3,ISIP_8,20,9999,9999,9999,2672027712
106,23,3,ISIP_8,21,9999,9999,9999,2672827472
106,23,3,ISIP_8,22,9999,9999,9999,2673627204
106,23,3,ISIP_8,23,9999,9999,9999,2674427992
106,23,3,ISIP_8,24,9999,9999,9999,2675227724
106,23,3,ISIP_8,25,9999,9999,9999,2676027452
106,23,3,ISIP_8,26,9999,9999,9999,2676827184
106,23,3,ISIP_8,27,9999,9999,9999,2677627964
106,23,3,ISIP_8,28,9999,9999,9999,2678427696
106,23,3,ISIP_8,29,9999,9999,9999,2679227456
106,23,3,ISIP_8,30,9999,9999,9999,2680027196
106,23,3,ISIP_8,31,9999,9999,9999,2680827976
106,23,3,ISIP_8,32,9999,9999,9999,2681627704
106,23,3,ISIP_8,33,9999,9999,9999,2682427508
106,23,3,ISIP_8,34,9999,9999,9999,2683227236
106,23,3,ISIP_8,35,9999,9999,9999,2684028012
106,23,3,ISIP_8,36,9999,9999,9999,2684827744
106,23,3,ISIP_8,37,9999,9999,9999,2685627496
106,23,3,ISIP_8,38,9999,9999,9999,2686427228
106,23,3,ISIP_8,39,9999,9999,9999,2687228000
106,23,3,ISIP_8,40,9999,9999,9999,2688027728
106,23,3,ISIP_8,41,9999,9999,9999,2688827460
106,23,3,ISIP_8,42,9999,9999,9999,2689627188
106,23,3,ISIP_8,43,9999,9999,9999,2690427964
106,23,3,ISIP_8,44,9999,9999,9999,2691227696
106,23,3,ISIP_8,45,9999,9999,9999,2692027448
106,23,3,ISIP_8,46,9999,9999,9999,2692827252
106,23,3,ISIP_8,47,9999,9999,9999,2693627956
106,23,3,ISIP_8,48,9999,9999,9999,2694427760
106,23,3,ISIP_8,49,9999,9999,9999,2695227488
106,23,3,ISIP_8,50,9999,9999,9999,2696027216
106,23,3,ISIP_8,51,9999,9999,9999,2696827992
106,23,3,ISIP_8,52,9999,9999,9999,2697627724
106,23,3,ISIP_8,53,9999,9999,9999,2698427476
106,23,3,ISIP_8,54,9999,9999,9999,2699227208
106,23,3,ISIP_8,55,9999,9999,9999,2700027980
106,23,3,ISIP_8,56,9999,9999,9999,2700827712
106,23,3,ISIP_8,57,9999,9999,9999,2701627456
106,23,3,ISIP_8,58,9999,9999,9999,2702427184
106,23,3,ISIP_8,59,9999,9999,9999,2703227960
106,23,3,ISIP_8,60,9999,9999,9999,2704027764
106,23,3,ISIP_8,61,9999,9999,9999,2704827452
106,23,3,ISIP_8,62,9999,9999,9999,2705627180
106,23,3,ISIP_8,63,9999,9999,9999,2706427956
106,23,3,ISIP_8,64,9999,9999,9999,2707227760
106,23,3,ISIP_8,65,9999,9999,9999,2708027488
106,23,3,ISIP_8,66,9999,9999,9999,2708827216
106,23,3,ISIP_8,67,9999,9999,9999,2709627996
106,23,3,ISIP_8,68,9999,9999,9999,2710427724
106,23,3,ISIP_8,69,9999,9999,9999,2711227480
106,23,3,ISIP_8,70,9999,9999,9999,2712027208
106,23,3,ISIP_8,71,9999,9999,9999,2712827984
106,23,3,ISIP_8,72,9999,9999,9999,2713627712
106,23,3,ISIP_8,73,9999,9999,9999,2714427440
106,23,3,ISIP_8,74,9999,9999,9999,2715227248
106,23,3,ISIP_8,75,9999,9999,9999,2716028020
106,23,3,ISIP_8,76,9999,9999,9999,2716827752
106,23,3,ISIP_8,77,9999,9999,9999,2717627504
106,23,3,ISIP_8,78,9999,9999,9999,2718427232
106,23,3,ISIP_8,79,9999,9999,9999,2719228008
106,23,3,ISIP_8,80,9999,9999,9999,2720027752
106,23,3,ISIP_8,81,9999,9999,9999,2720827484
106,23,3,ISIP_8,82,9999,9999,9999,2721627220
106,23,3,ISIP_8,83,9999,9999,9999,2722427992
106,23,3,ISIP_8,84,9999,9999,9999,2723227724
106,23,3,ISIP_8,85,9999,9999,9999,2724027476
106,23,3,ISIP_8,86,9999,9999,9999,2724827204
106,23,3,ISIP_8,87,9999,9999,9999,2725627984
106,23,3,ISIP_8,88,9999,9999,9999,2726427712
106,23,3,ISIP_8,89,9999,9999,9999,2727227440
106,23,3,ISIP_8,90,9999,9999,9999,2728027244
106,23,3,ISIP_8,91,9999,9999,9999,2728828020
106,23,3,ISIP_8,92,9999,9999,9999,2729627748
106,23,3,ISIP_8,93,9999,9999,9999,2730427500
106,23,3,ISIP_8,94,9999,9999,9999,2731227232
106,23,3,ISIP_8,95,9999,9999,9999,2732028020
106,23,3,ISIP_8,96,9999,9999,9999,2732827752
106,23,3,ISIP_8,97,9999,9999,9999,2733627488
106,23,3,ISIP_8,98,9999,9999,9999,2734427216
106,23,3,ISIP_8,99,9999,9999,9999,2735227992
106,23,3,ISIP_8,100,9999,9999,9999,2736027720
106,23,3,ISIP_8,101,9999,9999,9999,2736827476
106,23,3,ISIP_8,102,9999,9999,9999,2737627208
106,23,3,ISIP_8,103,9999,9999,9999,2738427980
106,23,3,ISIP_8,104,9999,9999,9999,2739227712
106,23,3,ISIP_8,105,9999,9999,9999,2740027456
106,23,3,ISIP_8,106,9999,9999,9999,2740827192
106,23,3,ISIP_8,107,9999,9999,9999,2741627964
106,23,3,ISIP_8,108,9999,9999,9999,2742427696
106,23,3,ISIP_8,109,9999,9999,9999,2743227448
106,23,3,ISIP_8,110,9999,9999,9999,2744027252
106,23,3,ISIP_8,111,9999,9999,9999,2744827952
106,23,3,ISIP_8,112,9999,9999,9999,2745627756
106,23,3,ISIP_8,113,9999,9999,9999,2746427484
106,23,3,ISIP_8,114,9999,9999,9999,2747227216
106,23,3,ISIP_8,115,9999,9999,9999,2748027988
106,23,3,ISIP_8,116,9999,9999,9999,2748827720
106,23,3,ISIP_8,117,9999,9999,9999,2749627476
106,23,3,ISIP_8,118,9999,9999,9999,2750427216
106,23,3,ISIP_8,119,9999,9999,9999,2751228000
106,23,3,ISIP_8,120,9999,9999,9999,2752027728
106,23,3,ISIP_8,121,9999,9999,9999,2752827460
106,23,3,ISIP_8,122,9999,9999,9999,2753627188
106,23,3,ISIP_8,123,9999,9999,9999,2754427964
106,23,3,ISIP_8,124,9999,9999,9999,2755227692
106,23,3,ISIP_8,125,9999,9999,9999,2756027448
106,23,3,ISIP_8,126,9999,9999,9999,2756827252
106,23,3,ISIP_8,127,9999,9999,9999,2757627952
106,23,3,ISIP_8,128,9999,9999,9999,2758427756
106,23,3,ISIP_8,129,9999,9999,9999,2759227504
106,23,3,ISIP_8,130,9999,9999,9999,2760027232
106,23,3,ISIP_8,131,9999,9999,9999,2760828012
106,23,3,ISIP_8,132,9999,9999,9999,2761627744
106,23,3,ISIP_8,133,9999,9999,9999,2762427496
106,23,3,ISIP_8,134,9999,9999,9999,2763227228
106,23,3,ISIP_8,135,9999,9999,9999,2764028004
106,23,3,ISIP_8,136,9999,9999,9999,2764827732
106,23,3,ISIP_8,137,9999,9999,9999,2765627460
106,23,3,ISIP_8,138,9999,9999,9999,2766427184
106,23,3,ISIP_8,139,9999,9999,9999,2767227960
106,23,3,ISIP_8,140,9999,9999,9999,2768027704
106,23,3,ISIP_8,141,9999,9999,9999,2768827464
106,23,3,ISIP_8,142,9999,9999,9999,2769627196
106,23,3,ISIP_8,143,9999,9999,9999,2770427972
106,23,3,ISIP_8,144,9999,9999,9999,2771227700
106,23,3,ISIP_8,145,9999,9999,9999,2772027504
106,23,3,ISIP_8,146,9999,9999,9999,2772827232
106,23,3,ISIP_8,147,9999,9999,9999,2773628008
106,23,3,ISIP_8,148,9999,9999,9999,2774427736
106,23,3,ISIP_8,149,9999,9999,9999,2775227508
106,24,11,Pattern_Practice,0,5,42,127,2879746544
106,24,11,Pattern_Practice,1,5,42,127,2880246036
106,24,11,Pattern_Practice,2,5,42,127,2880745752
106,24,11,Pattern_Practice,3,5,42,127,2881245472
106,24,11,Pattern_Practice,4,5,42,127,2881746384
106,24,11,Pattern_Practice,5,1,48,50,2881764688
106,24,11,Pattern_Practice,6,5,42,127,2882245928
106,24,11,Pattern_Practice,7,5,42,127,2882745644
106,24,11,Pattern_Practice,8,5,42,127,2883245436
106,24,11,Pattern_Practice,9,5,42,127,2883746420
106,24,11,Pattern_Practice,10,1,48,31,2883773176
106,24,11,Pattern_Practice,11,5,42,127,2884245940
106,24,11,Pattern_Practice,12,5,42,127,2884745508
106,24,11,Pattern_Practice,13,5,42,127,2885246496
106,24,11,Pattern_Practice,14,1,48,62,2885737572
106,24,11,Pattern_Practice,15,5,42,127,2885745980
106,24,11,Pattern_Practice,16,5,42,127,2886245904
106,24,11,Pattern_Practice,17,5,42,127,2886745400
106,24,11,Pattern_Practice,18,5,42,127,2887246384
106,24,11,Pattern_Practice,19,1,48,50,2887734840
106,24,11,Pattern_Practice,20,5,42,127,2887745872
106,24,11,Pattern_Practice,21,1,48,54,2888235956
106,24,11,Pattern_Practice,22,5,42,127,2888245568
106,24,11,Pattern_Practice,23,1,48,52,2888725780
106,24,11,Pattern_Practice,24,5,42,127,2888746532
106,24,11,Pattern_Practice,25,1,48,58,2889227792
106,24,11,Pattern_Practice,26,5,42,127,2889245928
106,24,11,Pattern_Practice,27,1,38,48,2889517284
106,24,11,Pattern_Practice,28,5,42,127,2889745756
106,24,11,Pattern_Practice,29,1,48,56,2889752916
106,24,11,Pattern_Practice,30,1,48,50,2890222520
106,24,11,Pattern_Practice,31,5,42,127,2890245372
106,24,11,Pattern_Practice,32,1,48,55,2890731412
106,24,11,Pattern_Practice,33,5,42,127,2890746408
106,24,11,Pattern_Practice,34,1,48,58,2891217720
106,24,11,Pattern_Practice,35,5,42,127,2891245884
106,24,11,Pattern_Practice,36,1,38,46,2891586648
106,24,11,Pattern_Practice,37,1,48,44,2891735792
106,24,11,Pattern_Practice,38,5,42,127,2891745704
106,24,11,Pattern_Practice,39,1,48,53,2892224196
106,24,11,Pattern_Practice,40,5,42,127,2892246520
106,24,11,Pattern_Practice,41,1,48,57,2892743336
106,24,11,Pattern_Practice,42,5,42,127,2892746064
106,24,11,Pattern_Practice,43,1,48,57,2893213040
106,24,11,Pattern_Practice,44,5,42,127,2893245760
106,24,11,Pattern_Practice,45,1,38,37,2893593328
106,24,11,Pattern_Practice,46,5,42,127,2893745516
106,24,11,Pattern_Practice,47,1,48,57,2893758880
106,24,11,Pattern_Practice,48,5,42,127,2894246480
106,24,11,Pattern_Practice,49,1,48,61,2894261868
106,24,11,Pattern_Practice,50,5,42,127,2894745928
106,24,11,Pattern_Practice,51,1,48,54,2894749344
106,24,11,Pattern_Practice,52,1,48,53,2895241964
106,24,11,Pattern_Practice,53,5,42,127,2895245812
106,24,11,Pattern_Practice,54,1,38,46,2895621240
106,24,11,Pattern_Practice,55,1,48,59,2895739392
106,24,11,Pattern_Practice,56,5,42,127,2895746536
106,24,11,Pattern_Practice,57,5,42,127,2896246312
106,24,11,Pattern_Practice,58,1,48,50,2896255784
106,24,11,Pattern_Practice,59,5,42,127,2896745856
106,24,11,Pattern_Practice,60,1,48,43,2896769172
106,24,11,Pattern_Practice,61,1,48,57,2897228380
106,24,11,Pattern_Practice,62,5,42,127,2897245544
106,24,11,Pattern_Practice,63,1,48,24,2897530136
106,24,11,Pattern_Practice,64,1,48,48,2897683776
106,24,11,Pattern_Practice,65,5,42,127,2897746416
106,24,11,Pattern_Practice,66,1,48,35,2898006772
106,24,11,Pattern_Practice,67,1,48,54,2898179780
106,24,11,Pattern_Practice,68,5,42,127,2898246160
106,24,11,Pattern_Practice,69,1,48,21,2898511232
106,24,11,Pattern_Practice,70,1,48,53,2898683272
106,24,11,Pattern_Practice,71,5,42,127,2898745760
106,24,11,Pattern_Practice,72,1,48,22,2899029008
106,24,11,Pattern_Practice,73,1,48,51,2899232012
106,24,11,Pattern_Practice,74,5,42,127,2899245432
106,24,11,Pattern_Practice,75,1,48,23,2899556580
106,24,11,Pattern_Practice,76,5,42,127,2899746160
106,24,11,Pattern_Practice,77,1,48,50,2899752268
106,24,11,Pattern_Practice,78,1,48,21,2900084520
106,24,11,Pattern_Practice,79,5,42,127,2900245980
106,24,11,Pattern_Practice,80,1,48,54,2900251120
106,24,11,Pattern_Practice,81,1,48,17,2900562800
106,24,11,Pattern_Practice,82,5,42,127,2900745504
106,24,11,Pattern_Practice,83,1,48,54,2900776224
106,24,11,Pattern_Practice,84,1,48,30,2901044072
106,24,11,Pattern_Practice,85,1,48,60,2901235260
106,24,11,Pattern_Practice,86,5,42,127,2901246216
106,24,11,Pattern_Practice,87,1,48,64,2901732936
106,24,11,Pattern_Practice,88,5,42,127,2901746136
106,24,11,Pattern_Practice,89,1,48,38,2902230008
106,24,11,Pattern_Practice,90,5,42,127,2902245680
106,24,11,Pattern_Practice,91,1,38,43,2902546652
106,24,11,Pattern_Practice,92,1,48,53,2902728716
106,24,11,Pattern_Practice,93,5,42,127,2902745428
106,24,11,Pattern_Practice,94,5,42,127,2903246324
106,24,11,Pattern_Practice,95,1,48,56,2903273976
106,24,11,Pattern_Practice,96,5,42,127,2903745796
106,24,11,Pattern_Practice,97,1,48,54,2903774044
106,24,11,Pattern_Practice,98,5,42,127,2904245492
106,24,11,Pattern_Practice,99,1,48,49,2904246456
106,24,11,Pattern_Practice,100,1,38,38,2904614296
106,24,11,Pattern_Practice,101,5,42,127,2904746360
106,24,11,Pattern_Practice,102,1,48,52,2904769824
106,24,11,Pattern_Practice,103,5,42,127,2905246128
106,24,11,Pattern_Practice,104,1,48,53,2905288664
106,24,11,Pattern_Practice,105,5,42,127,2905745652
106,24,11,Pattern_Practice,106,1,48,53,2905773180
106,24,11,Pattern_Practice,107,5,42,127,2906245568
106,24,11,Pattern_Practice,108,1,48,55,2906265064
106,24,11,Pattern_Practice,109,1,38,45,2906642652
106,24,11,Pattern_Practice,110,1,48,53,2906746116
106,24,11,Pattern_Practice,111,5,42,127,2906747452
106,24,11,Pattern_Practice,112,5,42,127,2907246032
106,24,11,Pattern_Practice,113,1,48,43,2907300784
106,24,11,Pattern_Practice,114,5,42,127,2907745576
106,24,11,Pattern_Practice,115,1,48,57,2907754608
106,24,11,Pattern_Practice,116,1,48,54,2908212620
106,24,11,Pattern_Practice,117,5,42,127,2908246236
106,24,11,Pattern_Practice,118,1,48,49,2908626596
106,24,11,Pattern_Practice,119,5,42,127,2908746064
106,24,11,Pattern_Practice,120,5,42,127,2909245932
106,24,11,Pattern_Practice,121,5,42,127,2909745500
106,24,11,Pattern_Practice,122,1,48,64,2909763952
106,24,11,Pattern_Practice,123,5,42,127,2910246240
106,24,11,Pattern_Practice,124,1,48,56,2910267984
106,24,11,Pattern_Practice,125,5,42,127,2910746084
106,24,11,Pattern_Practice,126,1,48,63,2910747052
106,24,11,Pattern_Practice,127,1,48,59,2911239384
106,24,11,Pattern_Practice,128,5,42,127,2911245624
106,24,11,Pattern_Practice,129,1,48,24,2911560060
106,24,11,Pattern_Practice,130,1,48,59,2911727984
106,24,11,Pattern_Practice,131,5,42,127,2911746420
106,24,11,Pattern_Practice,132,1,48,58,2912227532
106,24,11,Pattern_Practice,133,5,42,127,2912246116
106,24,11,Pattern_Practice,134,5,42,127,2912745816
106,24,11,Pattern_Practice,135,1,48,50,2912751476
106,24,11,Pattern_Practice,136,5,42,127,2913245660
106,24,11,Pattern_Practice,137,1,48,51,2913249676
106,24,11,Pattern_Practice,138,1,48,45,2913619032
106,24,11,Pattern_Practice,139,1,48,50,2913738788
106,24,11,Pattern_Practice,140,5,42,127,2913746224
106,24,11,Pattern_Practice,141,5,42,127,2914245928
106,24,11,Pattern_Practice,142,1,48,57,2914253160
106,24,11,Pattern_Practice,143,1,48,56,2914725308
106,24,11,Pattern_Practice,144,5,42,127,2914745836
106,24,11,Pattern_Practice,145,1,48,56,2915221460
106,24,11,Pattern_Practice,146,5,42,127,2915245312
106,24,11,Pattern_Practice,147,1,48,44,2915597596
106,24,11,Pattern_Practice,148,1,48,60,2915731760
106,24,11,Pattern_Practice,149,5,42,127,2915746252
106,24,11,Pattern_Practice,150,1,48,44,2916099584
106,24,11,Pattern_Practice,151,1,48,54,2916234352
106,24,11,Pattern_Practice,152,5,42,127,2916245976
106,24,11,Pattern_Practice,153,1,48,37,2916605240
106,24,11,Pattern_Practice,154,5,42,127,2916745504
106,24,11,Pattern_Practice,155,1,48,58,2916767272
106,24,11,Pattern_Practice,156,1,48,57,2917242760
106,24,11,Pattern_Practice,157,5,42,127,2917246316
106,24,11,Pattern_Practice,158,1,48,59,2917734756
106,24,11,Pattern_Practice,159,5,42,127,2917746084
106,24,11,Pattern_Practice,160,1,48,61,2918132424
106,24,11,Pattern_Practice,161,5,42,127,2918245616
106,24,11,Pattern_Practice,162,5,42,127,2918745332
106,24,11,Pattern_Practice,163,5,42,127,2919246244
106,24,11,Pattern_Practice,0,9999,9999,9999,2879744108
106,24,11,Pattern_Practice,1,9999,9999,9999,2880243824
106,24,11,Pattern_Practice,2,9999,9999,9999,2880743540
106,24,11,Pattern_Practice,3,9999,9999,9999,2881243256
106,24,11,Pattern_Practice,4,9999,9999,9999,2881743948
106,24,11,Pattern_Practice,5,9999,9999,9999,2882243640
106,24,11,Pattern_Practice,6,9999,9999,9999,2882743356
106,24,11,Pattern_Practice,7,9999,9999,9999,2883243072
106,24,11,Pattern_Practice,8,9999,9999,9999,2883743836
106,24,11,Pattern_Practice,9,9999,9999,9999,2884243504
106,24,11,Pattern_Practice,10,9999,9999,9999,2884743220
106,24,11,Pattern_Practice,11,9999,9999,9999,2885243984
106,24,11,Pattern_Practice,12,9999,9999,9999,2885743696
106,24,11,Pattern_Practice,13,9999,9999,9999,2886243396
106,24,11,Pattern_Practice,14,9999,9999,9999,2886743112
106,24,11,Pattern_Practice,15,9999,9999,9999,2887243876
106,24,11,Pattern_Practice,16,9999,9999,9999,2887743584
106,24,11,Pattern_Practice,17,9999,9999,9999,2888243280
106,24,11,Pattern_Practice,18,9999,9999,9999,2888744020
106,24,11,Pattern_Practice,19,9999,9999,9999,2889243716
106,24,11,Pattern_Practice,20,9999,9999,9999,2889743468
106,24,11,Pattern_Practice,21,9999,9999,9999,2890243156
106,24,11,Pattern_Practice,22,9999,9999,9999,2890743900
106,24,11,Pattern_Practice,23,9999,9999,9999,2891243596
106,24,11,Pattern_Practice,24,9999,9999,9999,2891743340
106,24,11,Pattern_Practice,25,9999,9999,9999,2892244084
106,24,11,Pattern_Practice,26,9999,9999,9999,2892743776
106,24,11,Pattern_Practice,27,9999,9999,9999,2893243472
106,24,11,Pattern_Practice,28,9999,9999,9999,2893743152
106,24,11,Pattern_Practice,29,9999,9999,9999,2894243896
106,24,11,Pattern_Practice,30,9999,9999,9999,2894743640
106,24,11,Pattern_Practice,31,9999,9999,9999,2895243376
106,24,11,Pattern_Practice,32,9999,9999,9999,2895744100
106,24,11,Pattern_Practice,33,9999,9999,9999,2896243800
106,24,11,Pattern_Practice,34,9999,9999,9999,2896743492
106,24,11,Pattern_Practice,35,9999,9999,9999,2897243256
106,24,11,Pattern_Practice,36,9999,9999,9999,2897743980
106,24,11,Pattern_Practice,37,9999,9999,9999,2898243652
106,24,11,Pattern_Practice,38,9999,9999,9999,2898743400
106,24,11,Pattern_Practice,39,9999,9999,9999,2899243072
106,24,11,Pattern_Practice,40,9999,9999,9999,2899743796
106,24,11,Pattern_Practice,41,9999,9999,9999,2900243544
106,24,11,Pattern_Practice,42,9999,9999,9999,2900743216
106,24,11,Pattern_Practice,43,9999,9999,9999,2901244004
106,24,11,Pattern_Practice,44,9999,9999,9999,2901743700
106,24,11,Pattern_Practice,45,9999,9999,9999,2902243392
106,24,11,Pattern_Practice,46,9999,9999,9999,2902743140
106,24,11,Pattern_Practice,47,9999,9999,9999,2903243888
106,24,11,Pattern_Practice,48,9999,9999,9999,2903743584
106,24,11,Pattern_Practice,49,9999,9999,9999,2904243276
106,24,11,Pattern_Practice,50,9999,9999,9999,2904743996
106,24,11,Pattern_Practice,51,9999,9999,9999,2905243768
106,24,11,Pattern_Practice,52,9999,9999,9999,2905743436
106,24,11,Pattern_Practice,53,9999,9999,9999,2906243132
106,24,11,Pattern_Practice,54,9999,9999,9999,2906743900
106,24,11,Pattern_Practice,55,9999,9999,9999,2907243596
106,24,11,Pattern_Practice,56,9999,9999,9999,2907743288
106,24,11,Pattern_Practice,57,9999,9999,9999,2908244024
106,24,11,Pattern_Practice,58,9999,9999,9999,2908743780
106,24,11,Pattern_Practice,59,9999,9999,9999,2909243496
106,24,11,Pattern_Practice,60,9999,9999,9999,2909743212
106,24,11,Pattern_Practice,61,9999,9999,9999,2910243952
106,24,11,Pattern_Practice,62,9999,9999,9999,2910743648
106,24,11,Pattern_Practice,63,9999,9999,9999,2911243336
106,24,11,Pattern_Practice,64,9999,9999,9999,2911744056
106,24,11,Pattern_Practice,65,9999,9999,9999,2912243828
106,24,11,Pattern_Practice,66,9999,9999,9999,2912743528
106,24,11,Pattern_Practice,67,9999,9999,9999,2913243224
106,24,11,Pattern_Practice,68,9999,9999,9999,2913743936
106,24,11,Pattern_Practice,69,9999,9999,9999,2914243640
106,24,11,Pattern_Practice,70,9999,9999,9999,2914743400
106,24,11,Pattern_Practice,71,9999,9999,9999,2915243096
106,24,11,Pattern_Practice,72,9999,9999,9999,2915743816
106,24,11,Pattern_Practice,73,9999,9999,9999,2916243540
106,24,11,Pattern_Practice,74,9999,9999,9999,2916743216
106,24,11,Pattern_Practice,75,9999,9999,9999,2917243952
106,24,11,Pattern_Practice,76,9999,9999,9999,2917743720
106,24,11,Pattern_Practice,77,9999,9999,9999,2918243400
106,24,11,Pattern_Practice,78,9999,9999,9999,2918743116
106,24,11,Pattern_Practice,79,9999,9999,9999,2919243880
106,25,13,Improv_Metronome,0,5,42,127,2967071088
106,25,13,Improv_Metronome,1,5,42,127,2967570880
106,25,13,Improv_Metronome,2,5,42,127,2968070520
106,25,13,Improv_Metronome,3,5,42,127,2968571656
106,25,13,Improv_Metronome,4,5,42,127,2969071000
106,25,13,Improv_Metronome,5,5,42,127,2969570640
106,25,13,Improv_Metronome,6,5,42,127,2970071628
106,25,13,Improv_Metronome,7,5,42,127,2970570972
106,25,13,Improv_Metronome,8,5,42,127,2971070764
106,25,13,Improv_Metronome,9,1,48,42,2971073956
106,25,13,Improv_Metronome,10,1,48,24,2971428128
106,25,13,Improv_Metronome,11,1,48,40,2971546912
106,25,13,Improv_Metronome,12,5,42,127,2971570504
106,25,13,Improv_Metronome,13,1,48,23,2971837520
106,25,13,Improv_Metronome,14,1,48,40,2972041248
106,25,13,Improv_Metronome,15,5,42,127,2972071448
106,25,13,Improv_Metronome,16,5,42,127,2972571076
106,25,13,Improv_Metronome,17,5,42,127,2973070616
106,25,13,Improv_Metronome,18,1,48,39,2973093136
106,25,13,Improv_Metronome,19,5,42,127,2973570388
106,25,13,Improv_Metronome,20,1,48,44,2973593876
106,25,13,Improv_Metronome,21,1,48,33,2973955080
106,25,13,Improv_Metronome,22,1,48,37,2974034712
106,25,13,Improv_Metronome,23,5,42,127,2974071248
106,25,13,Improv_Metronome,24,1,48,38,2974156504
106,25,13,Improv_Metronome,25,5,42,127,2974570780
106,25,13,Improv_Metronome,26,5,42,127,2975070496
106,25,13,Improv_Metronome,27,1,48,40,2975101288
106,25,13,Improv_Metronome,28,1,48,32,2975567828
106,25,13,Improv_Metronome,29,5,42,127,2975571304
106,25,13,Improv_Metronome,30,1,48,33,2975905140
106,25,13,Improv_Metronome,31,1,48,43,2975932340
106,25,13,Improv_Metronome,32,5,42,127,2976071036
106,25,13,Improv_Metronome,33,1,48,39,2976108412
106,25,13,Improv_Metronome,34,5,42,127,2976570732
106,25,13,Improv_Metronome,35,5,42,127,2977070448
106,25,13,Improv_Metronome,36,1,48,41,2977118372
106,25,13,Improv_Metronome,37,1,48,49,2977131140
106,25,13,Improv_Metronome,38,5,42,127,2977571316
106,25,13,Improv_Metronome,39,1,48,45,2977595152
106,25,13,Improv_Metronome,40,1,48,45,2978048608
106,25,13,Improv_Metronome,41,5,42,127,2978070856
106,25,13,Improv_Metronome,42,1,48,46,2978075980
106,25,13,Improv_Metronome,43,1,48,26,2978564736
106,25,13,Improv_Metronome,44,5,42,127,2978570680
106,25,13,Improv_Metronome,45,1,48,41,2978579092
106,25,13,Improv_Metronome,46,5,42,127,2979071480
106,25,13,Improv_Metronome,47,1,48,43,2979072448
106,25,13,Improv_Metronome,48,1,48,41,2979435276
106,25,13,Improv_Metronome,49,5,42,127,2979571152
106,25,13,Improv_Metronome,50,1,48,48,2979580108
106,25,13,Improv_Metronome,51,1,48,31,2979935772
106,25,13,Improv_Metronome,52,5,42,127,2980070752
106,25,13,Improv_Metronome,53,1,48,47,2980082772
106,25,13,Improv_Metronome,54,5,42,127,2980570448
106,25,13,Improv_Metronome,55,1,48,42,2980571412
106,25,13,Improv_Metronome,56,5,42,127,2981071188
106,25,13,Improv_Metronome,57,1,48,48,2981087548
106,25,13,Improv_Metronome,58,1,48,34,2981451288
106,25,13,Improv_Metronome,59,5,42,127,2981570860
106,25,13,Improv_Metronome,60,1,48,40,2981574800
106,25,13,Improv_Metronome,61,5,42,127,2982070556
106,25,13,Improv_Metronome,62,1,48,47,2982071520
106,25,13,Improv_Metronome,63,1,48,47,2982551812
106,25,13,Improv_Metronome,64,5,42,127,2982571364
106,25,13,Improv_Metronome,65,1,48,40,2982584040
106,25,13,Improv_Metronome,66,1,48,53,2983041804
106,25,13,Improv_Metronome,67,5,42,127,2983071184
106,25,13,Improv_Metronome,68,1,48,27,2983423768
106,25,13,Improv_Metronome,69,1,48,46,2983543796
106,25,13,Improv_Metronome,70,5,42,127,2983570760
106,25,13,Improv_Metronome,71,1,48,25,2983879912
106,25,13,Improv_Metronome,72,1,48,40,2984050500
106,25,13,Improv_Metronome,73,5,42,127,2984070432
106,25,13,Improv_Metronome,74,5,42,127,2984571180
106,25,13,Improv_Metronome,75,1,48,38,2984574820
106,25,13,Improv_Metronome,76,1,48,44,2985070348
106,25,13,Improv_Metronome,77,5,42,127,2985072064
106,25,13,Improv_Metronome,78,1,48,27,2985302432
106,25,13,Improv_Metronome,79,1,48,34,2985411112
106,25,13,Improv_Metronome,80,1,48,33,2985557916
106,25,13,Improv_Metronome,81,5,42,127,2985570520
106,25,13,Improv_Metronome,82,1,48,47,2986050208
106,25,13,Improv_Metronome,83,5,42,127,2986071336
106,25,13,Improv_Metronome,84,1,48,24,2986277096
106,25,13,Improv_Metronome,85,1,48,23,2986397820
106,25,13,Improv_Metronome,86,1,48,24,2986562352
106,25,13,Improv_Metronome,87,5,42,127,2986571212
106,25,13,Improv_Metronome,88,1,48,56,2987014252
106,25,13,Improv_Metronome,89,5,42,127,2987070684
106,25,13,Improv_Metronome,90,1,48,36,2987231708
106,25,13,Improv_Metronome,91,1,48,32,2987367596
106,25,13,Improv_Metronome,92,1,48,32,2987542776
106,25,13,Improv_Metronome,93,5,42,127,2987570484
106,25,13,Improv_Metronome,94,1,48,41,2987716472
106,25,13,Improv_Metronome,95,1,48,26,2987933988
106,25,13,Improv_Metronome,96,5,42,127,2988071412
106,25,13,Improv_Metronome,97,1,48,39,2988083208
106,25,13,Improv_Metronome,98,1,48,23,2988287480
106,25,13,Improv_Metronome,99,1,48,31,2988442840
106,25,13,Improv_Metronome,100,5,42,127,2988571060
106,25,13,Improv_Metronome,101,1,48,31,2988598788
106,25,13,Improv_Metronome,102,1,48,49,2989062712
106,25,13,Improv_Metronome,103,5,42,127,2989070676
106,25,13,Improv_Metronome,104,5,42,127,2989570376
106,25,13,Improv_Metronome,105,1,48,52,2989591672
106,25,13,Improv_Metronome,106,5,42,127,2990071044
106,25,13,Improv_Metronome,107,1,48,38,2990096900
106,25,13,Improv_Metronome,108,1,48,21,2990414344
106,25,13,Improv_Metronome,109,1,48,42,2990490644
106,25,13,Improv_Metronome,110,5,42,127,2990570708
106,25,13,Improv_Metronome,111,1,48,29,2990636124
106,25,13,Improv_Metronome,112,5,42,127,2991070612
106,25,13,Improv_Metronome,113,1,48,43,2991134844
106,25,13,Improv_Metronome,114,5,42,127,2991571280
106,25,13,Improv_Metronome,115,1,48,44,2991621748
106,25,13,Improv_Metronome,116,5,42,127,2992071124
106,25,13,Improv_Metronome,117,1,48,46,2992105512
106,25,13,Improv_Metronome,118,1,48,24,2992381664
106,25,13,Improv_Metronome,119,1,48,37,2992480148
106,25,13,Improv_Metronome,120,5,42,127,2992570792
106,25,13,Improv_Metronome,121,1,48,19,2992572936
106,25,13,Improv_Metronome,122,5,42,127,2993070472
106,25,13,Improv_Metronome,123,1,48,44,2993096548
106,25,13,Improv_Metronome,124,5,42,127,2993571064
106,25,13,Improv_Metronome,125,1,48,48,2993574700
106,25,13,Improv_Metronome,126,1,48,45,2994055656
106,25,13,Improv_Metronome,127,5,42,127,2994070972
106,25,13,Improv_Metronome,128,1,48,32,2994349136
106,25,13,Improv_Metronome,129,1,48,38,2994460864
106,25,13,Improv_Metronome,130,1,48,37,2994565184
106,25,13,Improv_Metronome,131,5,42,127,2994570600
106,25,13,Improv_Metronome,132,1,48,36,2994877732
106,25,13,Improv_Metronome,133,1,48,30,2994976820
106,25,13,Improv_Metronome,134,5,42,127,2995071380
106,25,13,Improv_Metronome,135,1,48,35,2995130924
106,25,13,Improv_Metronome,136,1,48,34,2995408128
106,25,13,Improv_Metronome,137,1,48,40,2995462104
106,25,13,Improv_Metronome,138,5,42,127,2995571108
106,25,13,Improv_Metronome,139,1,48,28,2995622048
106,25,13,Improv_Metronome,140,1,48,37,2995858612
106,25,13,Improv_Metronome,141,1,48,29,2995944404
106,25,13,Improv_Metronome,142,5,42,127,2996070684
106,25,13,Improv_Metronome,143,1,48,41,2996082780
106,25,13,Improv_Metronome,144,1,48,37,2996370676
106,25,13,Improv_Metronome,145,1,48,39,2996441884
106,25,13,Improv_Metronome,146,1,48,25,2996556304
106,25,13,Improv_Metronome,147,5,42,127,2996570548
106,25,13,Improv_Metronome,148,1,48,38,2996834352
106,25,13,Improv_Metronome,149,1,48,29,2996946248
106,25,13,Improv_Metronome,150,5,42,127,2997071180
106,25,13,Improv_Metronome,151,1,48,41,2997088732
106,25,13,Improv_Metronome,152,1,48,32,2997339236
106,25,13,Improv_Metronome,153,1,48,45,2997449336
106,25,13,Improv_Metronome,154,5,42,127,2997571348
106,25,13,Improv_Metronome,155,1,48,37,2997596536
106,25,13,Improv_Metronome,156,1,48,42,2997851228
106,25,13,Improv_Metronome,157,1,48,34,2997956096
106,25,13,Improv_Metronome,158,5,42,127,2998070704
106,25,13,Improv_Metronome,159,1,48,38,2998112940
106,25,13,Improv_Metronome,160,1,48,29,2998233148
106,25,13,Improv_Metronome,161,1,48,42,2998346736
106,25,13,Improv_Metronome,162,1,48,43,2998516532
106,25,13,Improv_Metronome,163,5,42,127,2998571392
106,25,13,Improv_Metronome,164,1,48,46,2998575992
106,25,13,Improv_Metronome,165,1,48,43,2998754316
106,25,13,Improv_Metronome,166,1,48,42,2998846668
106,25,13,Improv_Metronome,167,5,42,127,2999071176
106,25,13,Improv_Metronome,168,5,42,127,2999570744
106,25,13,Improv_Metronome,169,5,42,127,3000070536
106,25,13,Improv_Metronome,170,1,48,46,3000533708
106,25,13,Improv_Metronome,171,5,42,127,3000571368
106,25,13,Improv_Metronome,172,1,48,53,3001039240
106,25,13,Improv_Metronome,173,5,42,127,3001071212
106,25,13,Improv_Metronome,174,5,42,127,3001570984
106,25,13,Improv_Metronome,175,1,48,42,3001595496
106,25,13,Improv_Metronome,176,1,48,38,3002067424
106,25,13,Improv_Metronome,177,5,42,127,3002071348
106,25,13,Improv_Metronome,178,1,48,38,3002555224
106,25,13,Improv_Metronome,179,5,42,127,3002571268
106,25,13,Improv_Metronome,180,1,38,36,3002914500
106,25,13,Improv_Metronome,181,5,42,127,3003071020
106,25,13,Improv_Metronome,182,1,48,44,3003076084
106,25,13,Improv_Metronome,183,1,48,46,3003541424
106,25,13,Improv_Metronome,184,5,42,127,3003570412
106,25,13,Improv_Metronome,185,1,48,45,3004036984
106,25,13,Improv_Metronome,186,5,42,127,3004071228
106,25,13,Improv_Metronome,187,1,48,48,3004539520
106,25,13,Improv_Metronome,188,5,42,127,3004571144
106,25,13,Improv_Metronome,189,1,38,38,3004949536
106,25,13,Improv_Metronome,190,1,48,46,3005054824
106,25,13,Improv_Metronome,191,5,42,127,3005070720
106,25,13,Improv_Metronome,192,1,48,48,3005543224
106,25,13,Improv_Metronome,193,5,42,127,3005570336
106,25,13,Improv_Metronome,194,1,48,43,3006033792
106,25,13,Improv_Metronome,195,5,42,127,3006071228
106,25,13,Improv_Metronome,196,1,48,44,3006530048
106,25,13,Improv_Metronome,197,5,42,127,3006571148
106,25,13,Improv_Metronome,198,1,38,27,3006929964
106,25,13,Improv_Metronome,199,1,48,47,3007043412
106,25,13,Improv_Metronome,200,5,42,127,3007070672
106,25,13,Improv_Metronome,201,1,38,41,3007356240
106,25,13,Improv_Metronome,202,1,48,39,3007516532
106,25,13,Improv_Metronome,203,5,42,127,3007571244
106,25,13,Improv_Metronome,204,1,38,33,3007904256
106,25,13,Improv_Metronome,205,1,48,46,3008037224
106,25,13,Improv_Metronome,206,5,42,127,3008070992
106,25,13,Improv_Metronome,207,5,42,127,3008570916
106,25,13,Improv_Metronome,208,1,48,42,3008576584
106,25,13,Improv_Metronome,209,1,48,48,3009054044
106,25,13,Improv_Metronome,210,5,42,127,3009070532
106,25,13,Improv_Metronome,211,1,48,50,3009556352
106,25,13,Improv_Metronome,212,5,42,127,3009571120
106,25,13,Improv_Metronome,213,1,48,25,3010048048
106,25,13,Improv_Metronome,214,1,48,46,3010064928
106,25,13,Improv_Metronome,215,5,42,127,3010071020
106,25,13,Improv_Metronome,216,5,42,127,3010570572
106,25,13,Improv_Metronome,217,1,48,51,3011044816
106,25,13,Improv_Metronome,218,5,42,127,3011071328
106,25,13,Improv_Metronome,219,1,48,24,3011397812
106,25,13,Improv_Metronome,220,1,48,43,3011520252
106,25,13,Improv_Metronome,221,5,42,127,3011571000
106,25,13,Improv_Metronome,222,1,48,24,3011858356
106,25,13,Improv_Metronome,223,1,48,43,3012035332
106,25,13,Improv_Metronome,224,5,42,127,3012070972
106,25,13,Improv_Metronome,225,1,48,21,3012563752
106,25,13,Improv_Metronome,226,5,42,127,3012570520
106,25,13,Improv_Metronome,227,1,48,43,3012579080
106,25,13,Improv_Metronome,228,5,42,127,3013071172
106,25,13,Improv_Metronome,229,1,48,42,3013092392
106,25,13,Improv_Metronome,230,1,48,15,3013451872
106,25,13,Improv_Metronome,231,5,42,127,3013570916
106,25,13,Improv_Metronome,232,1,48,42,3013585776
106,25,13,Improv_Metronome,233,1,48,24,3013913544
106,25,13,Improv_Metronome,234,5,42,127,3014070740
106,25,13,Improv_Metronome,235,1,48,39,3014081188
106,25,13,Improv_Metronome,236,5,42,127,3014571480
106,25,13,Improv_Metronome,237,1,48,45,3014590684
106,25,13,Improv_Metronome,238,5,42,127,3015071176
106,25,13,Improv_Metronome,239,1,48,42,3015095984
106,25,13,Improv_Metronome,240,1,48,22,3015462792
106,25,13,Improv_Metronome,241,5,42,127,3015570748
106,25,13,Improv_Metronome,242,1,48,41,3015578452
106,25,13,Improv_Metronome,243,1,48,16,3015941152
106,25,13,Improv_Metronome,244,1,48,38,3016069436
106,25,13,Improv_Metronome,245,5,42,127,3016071084
106,25,13,Improv_Metronome,246,1,48,18,3016420556
106,25,13,Improv_Metronome,247,1,48,35,3016565488
106,25,13,Improv_Metronome,248,5,42,127,3016571432
106,25,13,Improv_Metronome,249,1,48,20,3016888960
106,25,13,Improv_Metronome,250,1,48,39,3017052820
106,25,13,Improv_Metronome,251,5,42,127,3017070808
106,25,13,Improv_Metronome,252,1,48,26,3017420644
106,25,13,Improv_Metronome,253,1,48,39,3017556012
106,25,13,Improv_Metronome,254,5,42,127,3017570628
106,25,13,Improv_Metronome,255,1,48,25,3017890104
106,25,13,Improv_Metronome,256,1,48,39,3018060692
106,25,13,Improv_Metronome,257,5,42,127,3018071424
106,25,13,Improv_Metronome,258,1,48,32,3018570600
106,25,13,Improv_Metronome,259,5,42,127,3018571944
106,25,13,Improv_Metronome,260,1,48,43,3018583276
106,25,13,Improv_Metronome,261,1,48,43,3019067544
106,25,13,Improv_Metronome,262,5,42,127,3019070792
106,25,13,Improv_Metronome,263,5,42,127,3019570492
106,25,13,Improv_Metronome,264,1,48,40,3020054764
106,25,13,Improv_Metronome,265,5,42,127,3020071324
106,25,13,Improv_Metronome,266,1,48,27,3020441580
106,25,13,Improv_Metronome,267,1,48,45,3020554956
106,25,13,Improv_Metronome,268,5,42,127,3020570848
106,25,13,Improv_Metronome,269,5,42,127,3021070624
106,25,13,Improv_Metronome,270,1,48,43,3021128944
106,25,13,Improv_Metronome,271,1,48,22,3021446012
106,25,13,Improv_Metronome,272,1,48,43,3021567116
106,25,13,Improv_Metronome,273,5,42,127,3021570512
106,25,13,Improv_Metronome,274,5,42,127,3022071112
106,25,13,Improv_Metronome,275,1,48,39,3022095476
106,25,13,Improv_Metronome,276,1,48,14,3022425112
106,25,13,Improv_Metronome,277,1,48,42,3022547924
106,25,13,Improv_Metronome,278,5,42,127,3022571000
106,25,13,Improv_Metronome,279,1,48,25,3022901296
106,25,13,Improv_Metronome,280,1,48,45,3023003320
106,25,13,Improv_Metronome,281,5,42,127,3023070672
106,25,13,Improv_Metronome,282,1,48,28,3023405904
106,25,13,Improv_Metronome,283,1,48,44,3023549668
106,25,13,Improv_Metronome,284,5,42,127,3023571172
106,25,13,Improv_Metronome,285,5,42,127,3024071168
106,25,13,Improv_Metronome,286,1,48,42,3024105032
106,25,13,Improv_Metronome,287,5,42,127,3024570716
106,25,13,Improv_Metronome,288,1,48,43,3024613100
106,25,13,Improv_Metronome,289,5,42,127,3025070408
106,25,13,Improv_Metronome,290,1,48,41,3025096636
106,25,13,Improv_Metronome,291,1,48,22,3025395532
106,25,13,Improv_Metronome,292,1,48,39,3025478764
106,25,13,Improv_Metronome,293,5,42,127,3025571120
106,25,13,Improv_Metronome,294,1,48,28,3025619104
106,25,13,Improv_Metronome,295,1,48,38,3025934384
106,25,13,Improv_Metronome,296,1,48,23,3026006684
106,25,13,Improv_Metronome,297,5,42,127,3026070848
106,25,13,Improv_Metronome,298,1,48,42,3026143364
106,25,13,Improv_Metronome,299,5,42,127,3026570724
106,25,13,Improv_Metronome,300,1,48,48,3026604164
106,25,13,Improv_Metronome,301,5,42,127,3027071464
106,25,13,Improv_Metronome,302,1,48,49,3027072952
106,25,13,Improv_Metronome,303,1,48,16,3027392276
106,25,13,Improv_Metronome,304,1,48,42,3027500788
106,25,13,Improv_Metronome,305,5,42,127,3027570984
106,25,13,Improv_Metronome,306,1,48,23,3027638292
106,25,13,Improv_Metronome,307,1,48,40,3027894548
106,25,13,Improv_Metronome,308,1,48,18,3028000816
106,25,13,Improv_Metronome,309,5,42,127,3028070784
106,25,13,Improv_Metronome,310,1,48,43,3028141752
106,25,13,Improv_Metronome,311,5,42,127,3028570612
106,25,13,Improv_Metronome,312,1,48,49,3028607464
106,25,13,Improv_Metronome,313,5,42,127,3029071204
106,25,13,Improv_Metronome,314,1,48,46,3029073068
106,25,13,Improv_Metronome,315,1,48,26,3029335596
106,25,13,Improv_Metronome,316,1,48,43,3029484292
106,25,13,Improv_Metronome,317,5,42,127,3029570872
106,25,13,Improv_Metronome,318,1,48,19,3029600000
106,25,13,Improv_Metronome,319,1,48,36,3029854840
106,25,13,Improv_Metronome,320,1,48,16,3029958288
106,25,13,Improv_Metronome,321,5,42,127,3030070656
106,25,13,Improv_Metronome,322,1,48,40,3030103692
106,25,13,Improv_Metronome,323,1,48,20,3030364740
106,25,13,Improv_Metronome,324,1,48,44,3030433556
106,25,13,Improv_Metronome,325,5,42,127,3030571280
106,25,13,Improv_Metronome,326,1,48,16,3030589056
106,25,13,Improv_Metronome,327,1,48,45,3030798120
106,25,13,Improv_Metronome,328,1,48,21,3030936724
106,25,13,Improv_Metronome,329,1,48,44,3031050544
106,25,13,Improv_Metronome,330,5,42,127,3031071072
106,25,13,Improv_Metronome,331,1,48,22,3031322980
106,25,13,Improv_Metronome,332,1,48,40,3031426024
106,25,13,Improv_Metronome,333,5,42,127,3031570732
106,25,13,Improv_Metronome,334,1,48,15,3031585516
106,25,13,Improv_Metronome,335,1,48,46,3031829884
106,25,13,Improv_Metronome,336,1,48,24,3031979480
106,25,13,Improv_Metronome,337,5,42,127,3032070620
106,25,13,Improv_Metronome,338,1,48,47,3032084496
106,25,13,Improv_Metronome,339,1,48,21,3032333124
106,25,13,Improv_Metronome,340,1,48,48,3032458984
106,25,13,Improv_Metronome,341,5,42,127,3032571376
106,25,13,Improv_Metronome,342,1,48,23,3032586540
106,25,13,Improv_Metronome,343,1,48,44,3032849608
106,25,13,Improv_Metronome,344,1,48,23,3032926924
106,25,13,Improv_Metronome,345,5,42,127,3033070808
106,25,13,Improv_Metronome,346,1,48,45,3033095840
106,25,13,Improv_Metronome,347,1,48,20,3033331832
106,25,13,Improv_Metronome,348,1,48,47,3033438544
106,25,13,Improv_Metronome,349,5,42,127,3033570604
106,25,13,Improv_Metronome,350,1,48,17,3033604764
106,25,13,Improv_Metronome,351,1,48,46,3033678344
106,25,13,Improv_Metronome,352,1,48,27,3033849184
106,25,13,Improv_Metronome,353,1,48,43,3033944308
106,25,13,Improv_Metronome,354,5,42,127,3034071656
106,25,13,Improv_Metronome,355,1,48,24,3034093700
106,25,13,Improv_Metronome,356,1,48,44,3034172964
106,25,13,Improv_Metronome,357,1,48,22,3034354644
106,25,13,Improv_Metronome,358,1,48,38,3034438472
106,25,13,Improv_Metronome,359,5,42,127,3034571060
106,25,13,Improv_Metronome,360,1,48,27,3034613000
106,25,13,Improv_Metronome,361,1,48,45,3034692864
106,25,13,Improv_Metronome,362,1,48,21,3034848668
106,25,13,Improv_Metronome,363,1,48,45,3034960168
106,25,13,Improv_Metronome,364,5,42,127,3035070764
106,25,13,Improv_Metronome,365,1,48,33,3035114724
106,25,13,Improv_Metronome,366,5,42,127,3035570608
106,25,13,Improv_Metronome,367,1,48,41,3035598188
106,25,13,Improv_Metronome,368,1,48,52,3035610880
106,25,13,Improv_Metronome,369,5,42,127,3036071256
106,25,13,Improv_Metronome,370,1,48,50,3036107812
106,25,13,Improv_Metronome,371,5,42,127,3036570872
106,25,13,Improv_Metronome,0,9999,9999,9999,2967068724
106,25,13,Improv_Metronome,1,9999,9999,9999,2967568440
106,25,13,Improv_Metronome,2,9999,9999,9999,2968068160
106,25,13,Improv_Metronome,3,9999,9999,9999,2968568920
106,25,13,Improv_Metronome,4,9999,9999,9999,2969068636
106,25,13,Improv_Metronome,5,9999,9999,9999,2969568352
106,25,13,Improv_Metronome,6,9999,9999,9999,2970069040
106,25,13,Improv_Metronome,7,9999,9999,9999,2970568760
106,25,13,Improv_Metronome,8,9999,9999,9999,2971068476
106,25,13,Improv_Metronome,9,9999,9999,9999,2971568216
106,25,13,Improv_Metronome,10,9999,9999,9999,2972068936
106,25,13,Improv_Metronome,11,9999,9999,9999,2972568636
106,25,13,Improv_Metronome,12,9999,9999,9999,2973068404
106,25,13,Improv_Metronome,13,9999,9999,9999,2973568100
106,25,13,Improv_Metronome,14,9999,9999,9999,2974068812
106,25,13,Improv_Metronome,15,9999,9999,9999,2974568568
106,25,13,Improv_Metronome,16,9999,9999,9999,2975068208
106,25,13,Improv_Metronome,17,9999,9999,9999,2975569016
106,25,13,Improv_Metronome,18,9999,9999,9999,2976068676
106,25,13,Improv_Metronome,19,9999,9999,9999,2976568368
106,25,13,Improv_Metronome,20,9999,9999,9999,2977068084
106,25,13,Improv_Metronome,21,9999,9999,9999,2977568880
106,25,13,Improv_Metronome,22,9999,9999,9999,2978068568
106,25,13,Improv_Metronome,23,9999,9999,9999,2978568244
106,25,13,Improv_Metronome,24,9999,9999,9999,2979069044
106,25,13,Improv_Metronome,25,9999,9999,9999,2979568716
106,25,13,Improv_Metronome,26,9999,9999,9999,2980068464
106,25,13,Improv_Metronome,27,9999,9999,9999,2980568160
106,25,13,Improv_Metronome,28,9999,9999,9999,2981068900
106,25,13,Improv_Metronome,29,9999,9999,9999,2981568572
106,25,13,Improv_Metronome,30,9999,9999,9999,2982068340
106,25,13,Improv_Metronome,31,9999,9999,9999,2982569076
106,25,13,Improv_Metronome,32,9999,9999,9999,2983068748
106,25,13,Improv_Metronome,33,9999,9999,9999,2983568472
106,25,13,Improv_Metronome,34,9999,9999,9999,2984068148
106,25,13,Improv_Metronome,35,9999,9999,9999,2984568892
106,25,13,Improv_Metronome,36,9999,9999,9999,2985068664
106,25,13,Improv_Metronome,37,9999,9999,9999,2985568308
106,25,13,Improv_Metronome,38,9999,9999,9999,2986069048
106,25,13,Improv_Metronome,39,9999,9999,9999,2986568776
106,25,13,Improv_Metronome,40,9999,9999,9999,2987068472
106,25,13,Improv_Metronome,41,9999,9999,9999,2987568196
106,25,13,Improv_Metronome,42,9999,9999,9999,2988068972
106,25,13,Improv_Metronome,43,9999,9999,9999,2988568624
106,25,13,Improv_Metronome,44,9999,9999,9999,2989068388
106,25,13,Improv_Metronome,45,9999,9999,9999,2989568088
106,25,13,Improv_Metronome,46,9999,9999,9999,2990068828
106,25,13,Improv_Metronome,47,9999,9999,9999,2990568496
106,25,13,Improv_Metronome,48,9999,9999,9999,2991068248
106,25,13,Improv_Metronome,49,9999,9999,9999,2991568992
106,25,13,Improv_Metronome,50,9999,9999,9999,2992068688
106,25,13,Improv_Metronome,51,9999,9999,9999,2992568428
106,25,13,Improv_Metronome,52,9999,9999,9999,2993068108
106,25,13,Improv_Metronome,53,9999,9999,9999,2993568848
106,25,13,Improv_Metronome,54,9999,9999,9999,2994068588
106,25,13,Improv_Metronome,55,9999,9999,9999,2994568312
106,25,13,Improv_Metronome,56,9999,9999,9999,2995069016
106,25,13,Improv_Metronome,57,9999,9999,9999,2995568744
106,25,13,Improv_Metronome,58,9999,9999,9999,2996068472
106,25,13,Improv_Metronome,59,9999,9999,9999,2996568112
106,25,13,Improv_Metronome,60,9999,9999,9999,2997068892
106,25,13,Improv_Metronome,61,9999,9999,9999,2997568616
106,25,13,Improv_Metronome,62,9999,9999,9999,2998068340
106,25,13,Improv_Metronome,63,9999,9999,9999,2998569032
106,25,13,Improv_Metronome,64,9999,9999,9999,2999068740
106,25,13,Improv_Metronome,65,9999,9999,9999,2999568456
106,25,13,Improv_Metronome,66,9999,9999,9999,3000068172
106,25,13,Improv_Metronome,67,9999,9999,9999,3000568932
106,25,13,Improv_Metronome,68,9999,9999,9999,3001068624
106,25,13,Improv_Metronome,69,9999,9999,9999,3001568324
106,25,13,Improv_Metronome,70,9999,9999,9999,3002069060
106,25,13,Improv_Metronome,71,9999,9999,9999,3002568756
106,25,13,Improv_Metronome,72,9999,9999,9999,3003068508
106,25,13,Improv_Metronome,73,9999,9999,9999,3003568196
106,25,13,Improv_Metronome,74,9999,9999,9999,3004068940
106,25,13,Improv_Metronome,75,9999,9999,9999,3004568632
106,25,13,Improv_Metronome,76,9999,9999,9999,3005068356
106,25,13,Improv_Metronome,77,9999,9999,9999,3005568052
106,25,13,Improv_Metronome,78,9999,9999,9999,3006068792
106,25,13,Improv_Metronome,79,9999,9999,9999,3006568564
106,25,13,Improv_Metronome,80,9999,9999,9999,3007068236
106,25,13,Improv_Metronome,81,9999,9999,9999,3007568956
106,25,13,Improv_Metronome,82,9999,9999,9999,3008068704
106,25,13,Improv_Metronome,83,9999,9999,9999,3008568404
106,25,13,Improv_Metronome,84,9999,9999,9999,3009068096
106,25,13,Improv_Metronome,85,9999,9999,9999,3009568836
106,25,13,Improv_Metronome,86,9999,9999,9999,3010068584
106,25,13,Improv_Metronome,87,9999,9999,9999,3010568284
106,25,13,Improv_Metronome,88,9999,9999,9999,3011069040
106,25,13,Improv_Metronome,89,9999,9999,9999,3011568716
106,25,13,Improv_Metronome,90,9999,9999,9999,3012068460
106,25,13,Improv_Metronome,91,9999,9999,9999,3012568156
106,25,13,Improv_Metronome,92,9999,9999,9999,3013068884
106,25,13,Improv_Metronome,93,9999,9999,9999,3013568628
106,25,13,Improv_Metronome,94,9999,9999,9999,3014068304
106,25,13,Improv_Metronome,95,9999,9999,9999,3014569044
106,25,13,Improv_Metronome,96,9999,9999,9999,3015068736
106,25,13,Improv_Metronome,97,9999,9999,9999,3015568460
106,25,13,Improv_Metronome,98,9999,9999,9999,3016068208
106,25,13,Improv_Metronome,99,9999,9999,9999,3016568920
106,25,13,Improv_Metronome,100,9999,9999,9999,3017068596
106,25,13,Improv_Metronome,101,9999,9999,9999,3017568344
106,25,13,Improv_Metronome,102,9999,9999,9999,3018069064
106,25,13,Improv_Metronome,103,9999,9999,9999,3018568764
106,25,13,Improv_Metronome,104,9999,9999,9999,3019068504
106,25,13,Improv_Metronome,105,9999,9999,9999,3019568204
106,25,13,Improv_Metronome,106,9999,9999,9999,3020068964
106,25,13,Improv_Metronome,107,9999,9999,9999,3020568636
106,25,13,Improv_Metronome,108,9999,9999,9999,3021068336
106,25,13,Improv_Metronome,109,9999,9999,9999,3021568076
106,25,13,Improv_Metronome,110,9999,9999,9999,3022068824
106,25,13,Improv_Metronome,111,9999,9999,9999,3022568564
106,25,13,Improv_Metronome,112,9999,9999,9999,3023068236
106,25,13,Improv_Metronome,113,9999,9999,9999,3023568956
106,25,13,Improv_Metronome,114,9999,9999,9999,3024068660
106,25,13,Improv_Metronome,115,9999,9999,9999,3024568428
106,25,13,Improv_Metronome,116,9999,9999,9999,3025068120
106,25,13,Improv_Metronome,117,9999,9999,9999,3025568832
106,25,13,Improv_Metronome,118,9999,9999,9999,3026068560
106,25,13,Improv_Metronome,119,9999,9999,9999,3026568288
106,25,13,Improv_Metronome,120,9999,9999,9999,3027069028
106,25,13,Improv_Metronome,121,9999,9999,9999,3027568696
106,25,13,Improv_Metronome,122,9999,9999,9999,3028068424
106,25,13,Improv_Metronome,123,9999,9999,9999,3028568176
106,25,13,Improv_Metronome,124,9999,9999,9999,3029068916
106,25,13,Improv_Metronome,125,9999,9999,9999,3029568584
106,25,13,Improv_Metronome,126,9999,9999,9999,3030068292
106,25,13,Improv_Metronome,127,9999,9999,9999,3030569064
106,25,13,Improv_Metronome,128,9999,9999,9999,3031068784
106,25,13,Improv_Metronome,129,9999,9999,9999,3031568444
106,25,13,Improv_Metronome,130,9999,9999,9999,3032068184
106,25,13,Improv_Metronome,131,9999,9999,9999,3032568940
106,25,13,Improv_Metronome,132,9999,9999,9999,3033068592
106,25,13,Improv_Metronome,133,9999,9999,9999,3033568316
106,25,13,Improv_Metronome,134,9999,9999,9999,3034069068
106,25,13,Improv_Metronome,135,9999,9999,9999,3034568772
106,25,13,Improv_Metronome,136,9999,9999,9999,3035068476
106,25,13,Improv_Metronome,137,9999,9999,9999,3035568248
106,25,13,Improv_Metronome,138,9999,9999,9999,3036068968
106,25,13,Improv_Metronome,139,9999,9999,9999,3036568660
106,26,14,Improv_Melody,0,2,48,80,3090895320
106,26,14,Improv_Melody,1,2,72,80,3090897632
106,26,14,Improv_Melody,2,5,42,127,3090900244
106,26,14,Improv_Melody,3,5,42,110,3091393008
106,26,14,Improv_Melody,4,5,42,110,3091892880
106,26,14,Improv_Melody,5,5,42,110,3092393276
106,26,14,Improv_Melody,6,5,42,127,3092893148
106,26,14,Improv_Melody,7,5,42,110,3093392868
106,26,14,Improv_Melody,8,5,42,110,3093892416
106,26,14,Improv_Melody,9,5,42,110,3094393108
106,26,14,Improv_Melody,10,2,43,80,3094895332
106,26,14,Improv_Melody,11,2,67,80,3094897484
106,26,14,Improv_Melody,12,5,42,127,3094900096
106,26,14,Improv_Melody,13,5,42,110,3095392716
106,26,14,Improv_Melody,14,5,42,110,3095893260
106,26,14,Improv_Melody,15,5,42,110,3096392980
106,26,14,Improv_Melody,16,5,42,127,3096892704
106,26,14,Improv_Melody,17,5,42,110,3097392352
106,26,14,Improv_Melody,18,1,48,27,3097861288
106,26,14,Improv_Melody,19,1,48,33,3097876148
106,26,14,Improv_Melody,20,5,42,110,3097893092
106,26,14,Improv_Melody,21,5,42,110,3098392800
106,26,14,Improv_Melody,22,1,48,25,3098866296
106,26,14,Improv_Melody,23,2,45,80,3098895016
106,26,14,Improv_Melody,24,2,69,80,3098897392
106,26,14,Improv_Melody,25,5,42,127,3098899928
106,26,14,Improv_Melody,26,5,42,110,3099393504
106,26,14,Improv_Melody,27,5,42,110,3099893152
106,26,14,Improv_Melody,28,1,48,39,3099902180
106,26,14,Improv_Melody,29,5,42,110,3100392776
106,26,14,Improv_Melody,30,5,42,127,3100892572
106,26,14,Improv_Melody,31,1,48,40,3100898312
106,26,14,Improv_Melody,32,5,42,110,3101393172
106,26,14,Improv_Melody,33,1,48,38,3101864868
106,26,14,Improv_Melody,34,5,42,110,3101892888
106,26,14,Improv_Melody,35,5,42,110,3102392744
106,26,14,Improv_Melody,36,1,48,43,3102869008
106,26,14,Improv_Melody,37,2,41,80,3102896084
106,26,14,Improv_Melody,38,2,65,80,3102898084
106,26,14,Improv_Melody,39,5,42,127,3102900772
106,26,14,Improv_Melody,40,5,42,110,3103393152
106,26,14,Improv_Melody,41,1,48,34,3103880908
106,26,14,Improv_Melody,42,5,42,110,3103892792
106,26,14,Improv_Melody,43,1,48,31,3104337080
106,26,14,Improv_Melody,44,5,42,110,3104392616
106,26,14,Improv_Melody,45,1,48,40,3104826384
106,26,14,Improv_Melody,46,5,42,127,3104893288
106,26,14,Improv_Melody,47,5,42,110,3105393068
106,26,14,Improv_Melody,48,1,48,30,3105864924
106,26,14,Improv_Melody,49,5,42,110,3105892712
106,26,14,Improv_Melody,50,5,42,110,3106392564
106,26,14,Improv_Melody,51,1,48,33,3106879824
106,26,14,Improv_Melody,52,2,48,80,3106895832
106,26,14,Improv_Melody,53,2,72,80,3106897904
106,26,14,Improv_Melody,54,5,42,127,3106900520
106,26,14,Improv_Melody,55,5,42,110,3107392748
106,26,14,Improv_Melody,56,1,48,37,3107888832
106,26,14,Improv_Melody,57,5,42,110,3107892688
106,26,14,Improv_Melody,58,5,42,110,3108393588
106,26,14,Improv_Melody,59,1,48,36,3108886836
106,26,14,Improv_Melody,60,5,42,127,3108893080
106,26,14,Improv_Melody,61,1,48,32,3109348160
106,26,14,Improv_Melody,62,5,42,110,3109392632
106,26,14,Improv_Melody,63,1,48,32,3109853624
106,26,14,Improv_Melody,64,5,42,110,3109892484
106,26,14,Improv_Melody,65,5,42,110,3110393236
106,26,14,Improv_Melody,66,1,48,36,3110895768
106,26,14,Improv_Melody,67,2,43,80,3110897104
106,26,14,Improv_Melody,68,2,67,80,3110898956
106,26,14,Improv_Melody,69,5,42,127,3110901340
106,26,14,Improv_Melody,70,5,42,110,3111392524
106,26,14,Improv_Melody,71,1,48,33,3111403648
106,26,14,Improv_Melody,72,1,48,26,3111879760
106,26,14,Improv_Melody,73,5,42,110,3111893632
106,26,14,Improv_Melody,74,1,48,41,3111896232
106,26,14,Improv_Melody,75,5,42,110,3112393172
106,26,14,Improv_Melody,76,1,48,26,3112411696
106,26,14,Improv_Melody,77,1,48,38,3112892268
106,26,14,Improv_Melody,78,5,42,127,3112893760
106,26,14,Improv_Melody,79,5,42,110,3113392496
106,26,14,Improv_Melody,80,1,48,37,3113396588
106,26,14,Improv_Melody,81,5,42,110,3113893096
106,26,14,Improv_Melody,82,1,48,32,3113896584
106,26,14,Improv_Melody,83,5,42,110,3114392868
106,26,14,Improv_Melody,84,1,48,30,3114891224
106,26,14,Improv_Melody,85,2,45,80,3114894828
106,26,14,Improv_Melody,86,2,69,80,3114897552
106,26,14,Improv_Melody,87,5,42,127,3114899788
106,26,14,Improv_Melody,88,5,42,110,3115393784
106,26,14,Improv_Melody,89,1,48,29,3115419220
106,26,14,Improv_Melody,90,1,48,40,3115887904
106,26,14,Improv_Melody,91,5,42,110,3115893104
106,26,14,Improv_Melody,92,5,42,110,3116392736
106,26,14,Improv_Melody,93,1,48,37,3116410288
106,26,14,Improv_Melody,94,1,48,43,3116881172
106,26,14,Improv_Melody,95,5,42,127,3116892428
106,26,14,Improv_Melody,96,1,48,35,3116913036
106,26,14,Improv_Melody,97,1,48,34,3117391112
106,26,14,Improv_Melody,98,5,42,110,3117393152
106,26,14,Improv_Melody,99,1,48,38,3117879124
106,26,14,Improv_Melody,100,5,42,110,3117892928
106,26,14,Improv_Melody,101,5,42,110,3118392560
106,26,14,Improv_Melody,102,2,41,80,3118895904
106,26,14,Improv_Melody,103,2,65,80,3118898132
106,26,14,Improv_Melody,104,5,42,127,3118900596
106,26,14,Improv_Melody,105,1,48,36,3118910676
106,26,14,Improv_Melody,106,5,42,110,3119393268
106,26,14,Improv_Melody,107,1,48,36,3119415984
106,26,14,Improv_Melody,108,5,42,110,3119892744
106,26,14,Improv_Melody,109,1,48,35,3119920468
106,26,14,Improv_Melody,110,5,42,110,3120392664
106,26,14,Improv_Melody,111,1,48,31,3120398404
106,26,14,Improv_Melody,112,1,48,37,3120874744
106,26,14,Improv_Melody,113,5,42,127,3120893480
106,26,14,Improv_Melody,114,1,48,27,3121376160
106,26,14,Improv_Melody,115,5,42,110,3121392956
106,26,14,Improv_Melody,116,1,48,36,3121872948
106,26,14,Improv_Melody,117,5,42,110,3121892732
106,26,14,Improv_Melody,118,1,48,35,3122360456
106,26,14,Improv_Melody,119,5,42,110,3122392580
106,26,14,Improv_Melody,120,1,48,38,3122864040
106,26,14,Improv_Melody,121,2,48,80,3122895604
106,26,14,Improv_Melody,122,2,72,80,3122897608
106,26,14,Improv_Melody,123,5,42,127,3122900224
106,26,14,Improv_Melody,124,1,48,41,3123377520
106,26,14,Improv_Melody,125,5,42,110,3123392816
106,26,14,Improv_Melody,126,1,48,35,3123890936
106,26,14,Improv_Melody,127,5,42,110,3123892516
106,26,14,Improv_Melody,128,1,48,39,3124384548
106,26,14,Improv_Melody,129,5,42,110,3124393488
106,26,14,Improv_Melody,130,1,48,46,3124877792
106,26,14,Improv_Melody,131,5,42,127,3124893040
106,26,14,Improv_Melody,132,1,48,45,3125378464
106,26,14,Improv_Melody,133,5,42,110,3125392664
106,26,14,Improv_Melody,134,1,48,32,3125881304
106,26,14,Improv_Melody,135,5,42,110,3125892488
106,26,14,Improv_Melody,136,1,48,36,3126388260
106,26,14,Improv_Melody,137,5,42,110,3126393160
106,26,14,Improv_Melody,138,1,48,40,3126893728
106,26,14,Improv_Melody,139,2,43,80,3126896656
106,26,14,Improv_Melody,140,2,67,80,3126898652
106,26,14,Improv_Melody,141,5,42,127,3126901192
106,26,14,Improv_Melody,142,1,48,37,3127393116
106,26,14,Improv_Melody,143,5,42,110,3127394156
106,26,14,Improv_Melody,144,1,48,43,3127408856
106,26,14,Improv_Melody,145,5,42,110,3127893396
106,26,14,Improv_Melody,146,1,48,31,3127899284
106,26,14,Improv_Melody,147,1,48,37,3127915340
106,26,14,Improv_Melody,148,5,42,110,3128393148
106,26,14,Improv_Melody,149,1,48,39,3128405468
106,26,14,Improv_Melody,150,5,42,127,3128892772
106,26,14,Improv_Melody,151,1,48,38,3128914740
106,26,14,Improv_Melody,152,1,48,41,3129391112
106,26,14,Improv_Melody,153,5,42,110,3129392688
106,26,14,Improv_Melody,154,1,48,39,3129893664
106,26,14,Improv_Melody,155,5,42,110,3129894856
106,26,14,Improv_Melody,156,1,48,39,3130374696
106,26,14,Improv_Melody,157,5,42,110,3130392836
106,26,14,Improv_Melody,158,2,45,80,3130895272
106,26,14,Improv_Melody,159,1,48,43,3130896840
106,26,14,Improv_Melody,160,2,69,80,3130898776
106,26,14,Improv_Melody,161,5,42,127,3130901088
106,26,14,Improv_Melody,162,5,42,110,3131393392
106,26,14,Improv_Melody,163,1,48,42,3131396140
106,26,14,Improv_Melody,164,5,42,110,3131893240
106,26,14,Improv_Melody,165,1,48,38,3131902940
106,26,14,Improv_Melody,166,5,42,110,3132392868
106,26,14,Improv_Melody,167,1,48,37,3132409596
106,26,14,Improv_Melody,168,1,48,43,3132888260
106,26,14,Improv_Melody,169,5,42,127,3132892636
106,26,14,Improv_Melody,170,1,48,38,3133386612
106,26,14,Improv_Melody,171,5,42,110,3133393384
106,26,14,Improv_Melody,172,1,48,40,3133860804
106,26,14,Improv_Melody,173,5,42,110,3133892936
106,26,14,Improv_Melody,174,1,48,43,3134381672
106,26,14,Improv_Melody,175,5,42,110,3134392636
106,26,14,Improv_Melody,176,2,41,80,3134895740
106,26,14,Improv_Melody,177,2,65,80,3134898116
106,26,14,Improv_Melody,178,1,48,48,3134900284
106,26,14,Improv_Melody,179,5,42,127,3134901772
106,26,14,Improv_Melody,180,5,42,110,3135393176
106,26,14,Improv_Melody,181,1,48,39,3135403476
106,26,14,Improv_Melody,182,5,42,110,3135892800
106,26,14,Improv_Melody,183,1,48,45,3135901008
106,26,14,Improv_Melody,184,5,42,110,3136392700
106,26,14,Improv_Melody,185,1,48,40,3136411548
106,26,14,Improv_Melody,186,5,42,127,3136893372
106,26,14,Improv_Melody,187,1,48,43,3136915288
106,26,14,Improv_Melody,188,5,42,110,3137393144
106,26,14,Improv_Melody,189,1,48,40,3137412944
106,26,14,Improv_Melody,190,1,48,33,3137869016
106,26,14,Improv_Melody,191,1,48,46,3137890232
106,26,14,Improv_Melody,192,5,42,110,3137892668
106,26,14,Improv_Melody,193,1,48,57,3138373476
106,26,14,Improv_Melody,194,5,42,110,3138392368
106,26,14,Improv_Melody,195,1,48,53,3138847900
106,26,14,Improv_Melody,196,2,48,80,3138895768
106,26,14,Improv_Melody,197,2,72,80,3138897996
106,26,14,Improv_Melody,198,5,42,127,3138900528
106,26,14,Improv_Melody,199,5,42,110,3139392836
106,26,14,Improv_Melody,200,1,48,37,3139395500
106,26,14,Improv_Melody,201,5,42,110,3139892532
106,26,14,Improv_Melody,202,1,48,47,3139896400
106,26,14,Improv_Melody,203,5,42,110,3140393280
106,26,14,Improv_Melody,204,1,48,47,3140400216
106,26,14,Improv_Melody,205,1,48,41,3140874756
106,26,14,Improv_Melody,206,5,42,127,3140893120
106,26,14,Improv_Melody,207,1,48,29,3141349920
106,26,14,Improv_Melody,208,1,48,39,3141366060
106,26,14,Improv_Melody,209,5,42,110,3141392800
106,26,14,Improv_Melody,210,5,42,110,3141892432
106,26,14,Improv_Melody,211,1,48,30,3141898544
106,26,14,Improv_Melody,212,1,48,40,3142384232
106,26,14,Improv_Melody,213,5,42,110,3142393172
106,26,14,Improv_Melody,214,1,48,50,3142887072
106,26,14,Improv_Melody,215,2,43,80,3142895452
106,26,14,Improv_Melody,216,2,67,80,3142897756
106,26,14,Improv_Melody,217,5,42,127,3142900364
106,26,14,Improv_Melody,218,1,48,47,3143391152
106,26,14,Improv_Melody,219,5,42,110,3143392588
106,26,14,Improv_Melody,220,5,42,110,3143893340
106,26,14,Improv_Melody,221,1,48,40,3143901844
106,26,14,Improv_Melody,222,5,42,110,3144393340
106,26,14,Improv_Melody,223,1,48,43,3144400200
106,26,14,Improv_Melody,224,5,42,127,3144892892
106,26,14,Improv_Melody,225,1,48,47,3144898252
106,26,14,Improv_Melody,226,5,42,110,3145392368
106,26,14,Improv_Melody,227,1,48,40,3145404088
106,26,14,Improv_Melody,228,5,42,110,3145893412
106,26,14,Improv_Melody,229,1,48,42,3145897132
106,26,14,Improv_Melody,230,5,42,110,3146393112
106,26,14,Improv_Melody,231,1,48,40,3146413360
106,26,14,Improv_Melody,232,2,45,80,3146895412
106,26,14,Improv_Melody,233,2,69,80,3146897708
106,26,14,Improv_Melody,234,5,42,127,3146900168
106,26,14,Improv_Melody,235,1,48,41,3146906204
106,26,14,Improv_Melody,236,1,48,28,3147248036
106,26,14,Improv_Melody,237,1,48,46,3147382720
106,26,14,Improv_Melody,238,5,42,110,3147393532
106,26,14,Improv_Melody,239,5,42,110,3147893240
106,26,14,Improv_Melody,240,1,48,39,3147927348
106,26,14,Improv_Melody,241,5,42,110,3148392792
106,26,14,Improv_Melody,242,1,48,32,3148435276
106,26,14,Improv_Melody,243,1,48,45,3148446696
106,26,14,Improv_Melody,244,5,42,127,3148892620
106,26,14,Improv_Melody,245,1,48,43,3148936280
106,26,14,Improv_Melody,246,1,48,29,3149243348
106,26,14,Improv_Melody,247,1,48,40,3149389632
106,26,14,Improv_Melody,248,5,42,110,3149393336
106,26,14,Improv_Melody,249,5,42,110,3149893192
106,26,14,Improv_Melody,250,1,48,46,3149894908
106,26,14,Improv_Melody,251,1,48,33,3150377812
106,26,14,Improv_Melody,252,1,48,42,3150392352
106,26,14,Improv_Melody,253,5,42,110,3150393616
106,26,14,Improv_Melody,254,1,48,50,3150894860
106,26,14,Improv_Melody,255,2,41,80,3150897332
106,26,14,Improv_Melody,256,2,65,80,3150899176
106,26,14,Improv_Melody,257,5,42,127,3150901716
106,26,14,Improv_Melody,258,1,48,21,3151259936
106,26,14,Improv_Melody,259,1,48,42,3151391968
106,26,14,Improv_Melody,260,5,42,110,3151393540
106,26,14,Improv_Melody,261,1,48,49,3151885800
106,26,14,Improv_Melody,262,5,42,110,3151893092
106,26,14,Improv_Melody,263,1,48,43,3152375620
106,26,14,Improv_Melody,264,5,42,110,3152392420
106,26,14,Improv_Melody,265,1,48,47,3152847648
106,26,14,Improv_Melody,266,5,42,127,3152893240
106,26,14,Improv_Melody,267,1,48,27,3153213516
106,26,14,Improv_Melody,268,1,48,35,3153344712
106,26,14,Improv_Melody,269,5,42,110,3153393292
106,26,14,Improv_Melody,270,1,48,40,3153879636
106,26,14,Improv_Melody,271,5,42,110,3153893064
106,26,14,Improv_Melody,272,1,48,43,3154364004
106,26,14,Improv_Melody,273,5,42,110,3154392392
106,26,14,Improv_Melody,274,1,48,33,3154874100
106,26,14,Improv_Melody,275,2,48,80,3154895792
106,26,14,Improv_Melody,276,2,72,80,3154897792
106,26,14,Improv_Melody,277,5,42,127,3154900184
106,26,14,Improv_Melody,278,5,42,110,3155393084
106,26,14,Improv_Melody,279,1,48,39,3155422384
106,26,14,Improv_Melody,280,1,48,43,3155888328
106,26,14,Improv_Melody,281,5,42,110,3155892480
106,26,14,Improv_Melody,282,1,48,36,3156384136
106,26,14,Improv_Melody,283,5,42,110,3156393228
106,26,14,Improv_Melody,284,1,48,47,3156886680
106,26,14,Improv_Melody,285,5,42,127,3156893148
106,26,14,Improv_Melody,286,1,48,48,3157390584
106,26,14,Improv_Melody,287,5,42,110,3157392996
106,26,14,Improv_Melody,288,1,48,39,3157861820
106,26,14,Improv_Melody,289,5,42,110,3157892452
106,26,14,Improv_Melody,290,1,48,44,3158382912
106,26,14,Improv_Melody,291,5,42,110,3158393344
106,26,14,Improv_Melody,292,2,43,80,3158895640
106,26,14,Improv_Melody,293,2,67,80,3158897788
106,26,14,Improv_Melody,294,5,42,127,3158900320
106,26,14,Improv_Melody,295,1,48,45,3158913760
106,26,14,Improv_Melody,296,5,42,110,3159392620
106,26,14,Improv_Melody,297,1,48,47,3159408524
106,26,14,Improv_Melody,298,5,42,110,3159893364
106,26,14,Improv_Melody,299,1,48,48,3159894328
106,26,14,Improv_Melody,300,1,48,48,3160389500
106,26,14,Improv_Melody,301,5,42,110,3160393060
106,26,14,Improv_Melody,302,1,48,57,3160888980
106,26,14,Improv_Melody,303,5,42,127,3160892908
106,26,14,Improv_Melody,304,5,42,110,3161392540
106,26,14,Improv_Melody,305,1,48,46,3161402692
106,26,14,Improv_Melody,306,1,48,46,3161874316
106,26,14,Improv_Melody,307,5,42,110,3161893356
106,26,14,Improv_Melody,308,1,48,40,3162381192
106,26,14,Improv_Melody,309,5,42,110,3162392904
106,26,14,Improv_Melody,310,1,48,48,3162877900
106,26,14,Improv_Melody,311,2,45,80,3162895104
106,26,14,Improv_Melody,312,2,69,80,3162897412
106,26,14,Improv_Melody,313,5,42,127,3162899944
106,26,14,Improv_Melody,314,1,48,31,3163262924
106,26,14,Improv_Melody,315,1,48,48,3163343940
106,26,14,Improv_Melody,316,5,42,110,3163393420
106,26,14,Improv_Melody,317,1,48,46,3163864728
106,26,14,Improv_Melody,318,5,42,110,3163892968
106,26,14,Improv_Melody,319,1,48,50,3164369968
106,26,14,Improv_Melody,320,5,42,110,3164392968
106,26,14,Improv_Melody,321,1,48,51,3164878712
106,26,14,Improv_Melody,322,5,42,127,3164892520
106,26,14,Improv_Melody,323,1,48,22,3165245552
106,26,14,Improv_Melody,324,1,48,45,3165352364
106,26,14,Improv_Melody,325,5,42,110,3165393168
106,26,14,Improv_Melody,326,5,42,110,3165892876
106,26,14,Improv_Melody,327,1,48,41,3165917908
106,26,14,Improv_Melody,328,5,42,110,3166392724
106,26,14,Improv_Melody,329,1,48,43,3166404820
106,26,14,Improv_Melody,330,2,41,80,3166895976
106,26,14,Improv_Melody,331,2,65,80,3166898356
106,26,14,Improv_Melody,332,1,48,32,3166899768
106,26,14,Improv_Melody,333,5,42,127,3166902076
106,26,14,Improv_Melody,334,1,48,41,3166913188
106,26,14,Improv_Melody,335,5,42,110,3167393016
106,26,14,Improv_Melody,336,1,48,45,3167413936
106,26,14,Improv_Melody,337,1,48,47,3167890668
106,26,14,Improv_Melody,338,5,42,110,3167892784
106,26,14,Improv_Melody,339,1,48,47,3168372296
106,26,14,Improv_Melody,340,5,42,110,3168392756
106,26,14,Improv_Melody,341,1,48,52,3168859208
106,26,14,Improv_Melody,342,5,42,127,3168893352
106,26,14,Improv_Melody,343,1,48,53,3169378952
106,26,14,Improv_Melody,344,5,42,110,3169392904
106,26,14,Improv_Melody,345,1,48,51,3169869748
106,26,14,Improv_Melody,346,5,42,110,3169892828
106,26,14,Improv_Melody,347,1,48,43,3170388376
106,26,14,Improv_Melody,348,5,42,110,3170392304
106,26,14,Improv_Melody,349,1,48,52,3170881644
106,26,14,Improv_Melody,350,2,48,80,3170895628
106,26,14,Improv_Melody,351,2,72,80,3170897936
106,26,14,Improv_Melody,352,5,42,127,3170900616
106,26,14,Improv_Melody,353,1,48,14,3171317256
106,26,14,Improv_Melody,354,1,48,52,3171393124
106,26,14,Improv_Melody,355,5,42,110,3171394240
106,26,14,Improv_Melody,0,9999,9999,9999,3090890864
106,26,14,Improv_Melody,1,9999,9999,9999,3091390568
106,26,14,Improv_Melody,2,9999,9999,9999,3091890288
106,26,14,Improv_Melody,3,9999,9999,9999,3092390984
106,26,14,Improv_Melody,4,9999,9999,9999,3092890704
106,26,14,Improv_Melody,5,9999,9999,9999,3093390400
106,26,14,Improv_Melody,6,9999,9999,9999,3093890124
106,26,14,Improv_Melody,7,9999,9999,9999,3094390892
106,26,14,Improv_Melody,8,9999,9999,9999,3094890612
106,26,14,Improv_Melody,9,9999,9999,9999,3095390272
106,26,14,Improv_Melody,10,9999,9999,9999,3095891040
106,26,14,Improv_Melody,11,9999,9999,9999,3096390764
106,26,14,Improv_Melody,12,9999,9999,9999,3096890484
106,26,14,Improv_Melody,13,9999,9999,9999,3097390132
106,26,14,Improv_Melody,14,9999,9999,9999,3097890872
106,26,14,Improv_Melody,15,9999,9999,9999,3098390580
106,26,14,Improv_Melody,16,9999,9999,9999,3098890296
106,26,14,Improv_Melody,17,9999,9999,9999,3099391064
106,26,14,Improv_Melody,18,9999,9999,9999,3099890784
106,26,14,Improv_Melody,19,9999,9999,9999,3100390484
106,26,14,Improv_Melody,20,9999,9999,9999,3100890204
106,26,14,Improv_Melody,21,9999,9999,9999,3101390952
106,26,14,Improv_Melody,22,9999,9999,9999,3101890668
106,26,14,Improv_Melody,23,9999,9999,9999,3102390376
106,26,14,Improv_Melody,24,9999,9999,9999,3102891064
106,26,14,Improv_Melody,25,9999,9999,9999,3103390784
106,26,14,Improv_Melody,26,9999,9999,9999,3103890500
106,26,14,Improv_Melody,27,9999,9999,9999,3104390252
106,26,14,Improv_Melody,28,9999,9999,9999,3104890996
106,26,14,Improv_Melody,29,9999,9999,9999,3105390700
106,26,14,Improv_Melody,30,9999,9999,9999,3105890420
106,26,14,Improv_Melody,31,9999,9999,9999,3106390124
106,26,14,Improv_Melody,32,9999,9999,9999,3106890812
106,26,14,Improv_Melody,33,9999,9999,9999,3107390532
106,26,14,Improv_Melody,34,9999,9999,9999,3107890244
106,26,14,Improv_Melody,35,9999,9999,9999,3108390996
106,26,14,Improv_Melody,36,9999,9999,9999,3108890716
106,26,14,Improv_Melody,37,9999,9999,9999,3109390412
106,26,14,Improv_Melody,38,9999,9999,9999,3109890116
106,26,14,Improv_Melody,39,9999,9999,9999,3110390868
106,26,14,Improv_Melody,40,9999,9999,9999,3110890588
106,26,14,Improv_Melody,41,9999,9999,9999,3111390304
106,26,14,Improv_Melody,42,9999,9999,9999,3111891044
106,26,14,Improv_Melody,43,9999,9999,9999,3112390728
106,26,14,Improv_Melody,44,9999,9999,9999,3112890428
106,26,14,Improv_Melody,45,9999,9999,9999,3113390204
106,26,14,Improv_Melody,46,9999,9999,9999,3113890876
106,26,14,Improv_Melody,47,9999,9999,9999,3114390648
106,26,14,Improv_Melody,48,9999,9999,9999,3114890344
106,26,14,Improv_Melody,49,9999,9999,9999,3115391044
106,26,14,Improv_Melody,50,9999,9999,9999,3115890736
106,26,14,Improv_Melody,51,9999,9999,9999,3116390520
106,26,14,Improv_Melody,52,9999,9999,9999,3116890212
106,26,14,Improv_Melody,53,9999,9999,9999,3117390900
106,26,14,Improv_Melody,54,9999,9999,9999,3117890636
106,26,14,Improv_Melody,55,9999,9999,9999,3118390344
106,26,14,Improv_Melody,56,9999,9999,9999,3118891112
106,26,14,Improv_Melody,57,9999,9999,9999,3119390824
106,26,14,Improv_Melody,58,9999,9999,9999,3119890524
106,26,14,Improv_Melody,59,9999,9999,9999,3120390224
106,26,14,Improv_Melody,60,9999,9999,9999,3120890964
106,26,14,Improv_Melody,61,9999,9999,9999,3121390664
106,26,14,Improv_Melody,62,9999,9999,9999,3121890364
106,26,14,Improv_Melody,63,9999,9999,9999,3122390064
106,26,14,Improv_Melody,64,9999,9999,9999,3122890812
106,26,14,Improv_Melody,65,9999,9999,9999,3123390524
106,26,14,Improv_Melody,66,9999,9999,9999,3123890236
106,26,14,Improv_Melody,67,9999,9999,9999,3124390972
106,26,14,Improv_Melody,68,9999,9999,9999,3124890748
106,26,14,Improv_Melody,69,9999,9999,9999,3125390448
106,26,14,Improv_Melody,70,9999,9999,9999,3125890120
106,26,14,Improv_Melody,71,9999,9999,9999,3126390868
106,26,14,Improv_Melody,72,9999,9999,9999,3126890576
106,26,14,Improv_Melody,73,9999,9999,9999,3127390304
106,26,14,Improv_Melody,74,9999,9999,9999,3127891028
106,26,14,Improv_Melody,75,9999,9999,9999,3128390708
106,26,14,Improv_Melody,76,9999,9999,9999,3128890480
106,26,14,Improv_Melody,77,9999,9999,9999,3129390180
106,26,14,Improv_Melody,78,9999,9999,9999,3129890928
106,26,14,Improv_Melody,79,9999,9999,9999,3130390620
106,26,14,Improv_Melody,80,9999,9999,9999,3130890328
106,26,14,Improv_Melody,81,9999,9999,9999,3131391100
106,26,14,Improv_Melody,82,9999,9999,9999,3131890800
106,26,14,Improv_Melody,83,9999,9999,9999,3132390500
106,26,14,Improv_Melody,84,9999,9999,9999,3132890196
106,26,14,Improv_Melody,85,9999,9999,9999,3133390940
106,26,14,Improv_Melody,86,9999,9999,9999,3133890644
106,26,14,Improv_Melody,87,9999,9999,9999,3134390344
106,26,14,Improv_Melody,88,9999,9999,9999,3134891096
106,26,14,Improv_Melody,89,9999,9999,9999,3135390808
106,26,14,Improv_Melody,90,9999,9999,9999,3135890508
106,26,14,Improv_Melody,91,9999,9999,9999,3136390260
106,26,14,Improv_Melody,92,9999,9999,9999,3136890932
106,26,14,Improv_Melody,93,9999,9999,9999,3137390704
106,26,14,Improv_Melody,94,9999,9999,9999,3137890376
106,26,14,Improv_Melody,95,9999,9999,9999,3138390072
106,26,14,Improv_Melody,96,9999,9999,9999,3138890820
106,26,14,Improv_Melody,97,9999,9999,9999,3139390540
106,26,14,Improv_Melody,98,9999,9999,9999,3139890240
106,26,14,Improv_Melody,99,9999,9999,9999,3140390988
106,26,14,Improv_Melody,100,9999,9999,9999,3140890680
106,26,14,Improv_Melody,101,9999,9999,9999,3141390432
106,26,14,Improv_Melody,102,9999,9999,9999,3141890140
106,26,14,Improv_Melody,103,9999,9999,9999,3142390880
106,26,14,Improv_Melody,104,9999,9999,9999,3142890580
106,26,14,Improv_Melody,105,9999,9999,9999,3143390304
106,26,14,Improv_Melody,106,9999,9999,9999,3143891048
106,26,14,Improv_Melody,107,9999,9999,9999,3144390748
106,26,14,Improv_Melody,108,9999,9999,9999,3144890452
106,26,14,Improv_Melody,109,9999,9999,9999,3145390148
106,26,14,Improv_Melody,110,9999,9999,9999,3145890896
106,26,14,Improv_Melody,111,9999,9999,9999,3146390596
106,26,14,Improv_Melody,112,9999,9999,9999,3146890344
106,26,14,Improv_Melody,113,9999,9999,9999,3147391092
106,26,14,Improv_Melody,114,9999,9999,9999,3147890796
106,26,14,Improv_Melody,115,9999,9999,9999,3148390496
106,26,14,Improv_Melody,116,9999,9999,9999,3148890176
106,26,14,Improv_Melody,117,9999,9999,9999,3149390972
106,26,14,Improv_Melody,118,9999,9999,9999,3149890676
106,26,14,Improv_Melody,119,9999,9999,9999,3150390372
106,26,14,Improv_Melody,120,9999,9999,9999,3150891104
106,26,14,Improv_Melody,121,9999,9999,9999,3151390808
106,26,14,Improv_Melody,122,9999,9999,9999,3151890500
106,26,14,Improv_Melody,123,9999,9999,9999,3152390200
106,26,14,Improv_Melody,124,9999,9999,9999,3152890948
106,26,14,Improv_Melody,125,9999,9999,9999,3153390700
106,26,14,Improv_Melody,126,9999,9999,9999,3153890400
106,26,14,Improv_Melody,127,9999,9999,9999,3154390100
106,26,14,Improv_Melody,128,9999,9999,9999,3154890848
106,26,14,Improv_Melody,129,9999,9999,9999,3155390568
106,26,14,Improv_Melody,130,9999,9999,9999,3155890260
106,26,14,Improv_Melody,131,9999,9999,9999,3156391008
106,26,14,Improv_Melody,132,9999,9999,9999,3156890708
106,26,14,Improv_Melody,133,9999,9999,9999,3157390444
106,26,14,Improv_Melody,134,9999,9999,9999,3157890160
106,26,14,Improv_Melody,135,9999,9999,9999,3158390904
106,26,14,Improv_Melody,136,9999,9999,9999,3158890612
106,26,14,Improv_Melody,137,9999,9999,9999,3159390324
106,26,14,Improv_Melody,138,9999,9999,9999,3159890996
106,26,14,Improv_Melody,139,9999,9999,9999,3160390768
106,26,14,Improv_Melody,140,9999,9999,9999,3160890468
106,26,14,Improv_Melody,141,9999,9999,9999,3161390172
106,26,14,Improv_Melody,142,9999,9999,9999,3161890912
106,26,14,Improv_Melody,143,9999,9999,9999,3162390612
106,26,14,Improv_Melody,144,9999,9999,9999,3162890312
106,26,14,Improv_Melody,145,9999,9999,9999,3163391052
106,26,14,Improv_Melody,146,9999,9999,9999,3163890752
106,26,14,Improv_Melody,147,9999,9999,9999,3164390452
106,26,14,Improv_Melody,148,9999,9999,9999,3164890228
106,26,14,Improv_Melody,149,9999,9999,9999,3165390952
106,26,14,Improv_Melody,150,9999,9999,9999,3165890656
106,26,14,Improv_Melody,151,9999,9999,9999,3166390356
106,26,14,Improv_Melody,152,9999,9999,9999,3166891104
106,26,14,Improv_Melody,153,9999,9999,9999,3167390796
106,26,14,Improv_Melody,154,9999,9999,9999,3167890536
106,26,14,Improv_Melody,155,9999,9999,9999,3168390240
106,26,14,Improv_Melody,156,9999,9999,9999,3168890988
106,26,14,Improv_Melody,157,9999,9999,9999,3169390688
106,26,14,Improv_Melody,158,9999,9999,9999,3169890388
106,26,14,Improv_Melody,159,9999,9999,9999,3170390088
106,26,14,Improv_Melody,160,9999,9999,9999,3170890836
106,26,14,Improv_Melody,161,9999,9999,9999,3171390552
