taskRunCount,taskID,taskName,i,channel,pitch,velocity,microseconds
1,1,Ticks_Pract_5,0,5,42,127,370727368
1,1,Ticks_Pract_5,1,5,42,127,371227084
1,1,Ticks_Pract_5,2,5,42,127,371726724
1,1,Ticks_Pract_5,3,5,42,127,372226664
1,1,Ticks_Pract_5,4,5,42,127,372727128
1,1,Ticks_Pract_5,5,1,48,36,372746704
1,1,Ticks_Pract_5,6,5,42,127,373226900
1,1,Ticks_Pract_5,7,1,48,47,373229344
1,1,Ticks_Pract_5,8,5,42,127,373726444
1,1,Ticks_Pract_5,9,1,48,48,373759780
1,1,Ticks_Pract_5,10,5,42,127,374227484
1,1,Ticks_Pract_5,11,1,48,32,374274136
1,1,Ticks_Pract_5,12,5,42,127,374727004
1,1,Ticks_Pract_5,13,1,48,44,374773528
1,1,Ticks_Pract_5,14,5,42,127,375226772
1,1,Ticks_Pract_5,15,1,48,43,375264096
1,1,Ticks_Pract_5,16,5,42,127,375726616
1,1,Ticks_Pract_5,17,1,48,48,375744696
1,1,Ticks_Pract_5,18,5,42,127,376227208
1,1,Ticks_Pract_5,19,1,48,45,376239824
1,1,Ticks_Pract_5,20,1,48,47,376724932
1,1,Ticks_Pract_5,21,5,42,127,376726748
1,1,Ticks_Pract_5,22,5,42,127,377226672
1,1,Ticks_Pract_5,23,1,48,49,377240484
1,1,Ticks_Pract_5,24,1,48,46,377724676
1,1,Ticks_Pract_5,25,5,42,127,377727336
1,1,Ticks_Pract_5,26,5,42,127,378226960
1,1,Ticks_Pract_5,27,1,48,48,378238008
1,1,Ticks_Pract_5,28,5,42,127,378726804
1,1,Ticks_Pract_5,29,1,48,43,378739872
1,1,Ticks_Pract_5,30,5,42,127,379226572
1,1,Ticks_Pract_5,31,1,48,46,379252804
1,1,Ticks_Pract_5,32,5,42,127,379727316
1,1,Ticks_Pract_5,33,1,48,45,379731924
1,1,Ticks_Pract_5,34,5,42,127,380226860
1,1,Ticks_Pract_5,35,1,48,43,380231324
1,1,Ticks_Pract_5,36,5,42,127,380726556
1,1,Ticks_Pract_5,37,1,48,49,380750836
1,1,Ticks_Pract_5,38,1,48,55,381207060
1,1,Ticks_Pract_5,39,5,42,127,381227292
1,1,Ticks_Pract_5,40,1,48,46,381701064
1,1,Ticks_Pract_5,41,5,42,127,381727284
1,1,Ticks_Pract_5,42,1,48,32,382214228
1,1,Ticks_Pract_5,43,5,42,127,382226680
1,1,Ticks_Pract_5,44,1,48,40,382711524
1,1,Ticks_Pract_5,45,5,42,127,382726448
1,1,Ticks_Pract_5,46,1,48,46,383227120
1,1,Ticks_Pract_5,47,5,42,127,383228532
1,1,Ticks_Pract_5,48,1,48,50,383718548
1,1,Ticks_Pract_5,49,5,42,127,383726884
1,1,Ticks_Pract_5,50,1,48,45,384214576
1,1,Ticks_Pract_5,51,5,42,127,384226580
1,1,Ticks_Pract_5,52,1,48,53,384714996
1,1,Ticks_Pract_5,53,5,42,127,384727396
1,1,Ticks_Pract_5,54,1,48,33,385221944
1,1,Ticks_Pract_5,55,5,42,127,385227216
1,1,Ticks_Pract_5,56,5,42,127,385726916
1,1,Ticks_Pract_5,57,1,48,31,385758856
1,1,Ticks_Pract_5,58,5,42,127,386226612
1,1,Ticks_Pract_5,59,1,48,43,386227652
1,1,Ticks_Pract_5,60,1,48,51,386712876
1,1,Ticks_Pract_5,61,5,42,127,386727272
1,1,Ticks_Pract_5,62,1,48,54,387189680
1,1,Ticks_Pract_5,63,5,42,127,387227116
1,1,Ticks_Pract_5,64,1,48,48,387702908
1,1,Ticks_Pract_5,65,5,42,127,387726580
1,1,Ticks_Pract_5,66,5,42,127,388226356
1,1,Ticks_Pract_5,67,1,48,56,388231272
1,1,Ticks_Pract_5,68,5,42,127,388727244
1,1,Ticks_Pract_5,69,1,48,52,388770600
1,1,Ticks_Pract_5,70,5,42,127,389226940
1,1,Ticks_Pract_5,71,1,48,53,389233724
1,1,Ticks_Pract_5,72,5,42,127,389726708
1,1,Ticks_Pract_5,73,1,48,50,389742464
1,1,Ticks_Pract_5,74,1,48,53,390220304
1,1,Ticks_Pract_5,75,5,42,127,390227368
1,1,Ticks_Pract_5,0,9999,9999,9999,9999,370724928
1,1,Ticks_Pract_5,1,9999,9999,9999,9999,371224644
1,1,Ticks_Pract_5,2,9999,9999,9999,9999,371724360
1,1,Ticks_Pract_5,3,9999,9999,9999,9999,372224076
1,1,Ticks_Pract_5,4,9999,9999,9999,9999,372724840
1,1,Ticks_Pract_5,5,9999,9999,9999,9999,373224536
1,1,Ticks_Pract_5,6,9999,9999,9999,9999,373724228
1,1,Ticks_Pract_5,7,9999,9999,9999,9999,374224968
1,1,Ticks_Pract_5,8,9999,9999,9999,9999,374724716
1,1,Ticks_Pract_5,9,9999,9999,9999,9999,375224408
1,1,Ticks_Pract_5,10,9999,9999,9999,9999,375724104
1,1,Ticks_Pract_5,11,9999,9999,9999,9999,376224844
1,1,Ticks_Pract_5,12,9999,9999,9999,9999,376724560
1,1,Ticks_Pract_5,13,9999,9999,9999,9999,377224308
1,1,Ticks_Pract_5,14,9999,9999,9999,9999,377725044
1,1,Ticks_Pract_5,15,9999,9999,9999,9999,378224744
1,1,Ticks_Pract_5,16,9999,9999,9999,9999,378724440
1,1,Ticks_Pract_5,17,9999,9999,9999,9999,379224132
1,1,Ticks_Pract_5,18,9999,9999,9999,9999,379724876
1,1,Ticks_Pract_5,19,9999,9999,9999,9999,380224572
1,1,Ticks_Pract_5,20,9999,9999,9999,9999,380724340
1,1,Ticks_Pract_5,21,9999,9999,9999,9999,381225076
1,1,Ticks_Pract_5,22,9999,9999,9999,9999,381724768
1,1,Ticks_Pract_5,23,9999,9999,9999,9999,382224464
1,1,Ticks_Pract_5,24,9999,9999,9999,9999,382724160
1,1,Ticks_Pract_5,25,9999,9999,9999,9999,383224904
1,1,Ticks_Pract_5,26,9999,9999,9999,9999,383724592
1,1,Ticks_Pract_5,27,9999,9999,9999,9999,384224364
1,1,Ticks_Pract_5,28,9999,9999,9999,9999,384725108
1,1,Ticks_Pract_5,29,9999,9999,9999,9999,385224776
1,1,Ticks_Pract_5,30,9999,9999,9999,9999,385724476
1,1,Ticks_Pract_5,31,9999,9999,9999,9999,386224248
1,1,Ticks_Pract_5,32,9999,9999,9999,9999,386724984
1,1,Ticks_Pract_5,33,9999,9999,9999,9999,387224676
1,1,Ticks_Pract_5,34,9999,9999,9999,9999,387724364
1,1,Ticks_Pract_5,35,9999,9999,9999,9999,388224064
1,1,Ticks_Pract_5,36,9999,9999,9999,9999,388724804
1,1,Ticks_Pract_5,37,9999,9999,9999,9999,389224500
1,1,Ticks_Pract_5,38,9999,9999,9999,9999,389724268
1,1,Ticks_Pract_5,39,9999,9999,9999,9999,390225004
2,0,Ticks_Pract_8,0,5,42,127,412099900
2,0,Ticks_Pract_8,1,5,42,127,412899756
2,0,Ticks_Pract_8,2,5,42,127,413699364
2,0,Ticks_Pract_8,3,5,42,127,414500388
2,0,Ticks_Pract_8,4,1,48,31,414565740
2,0,Ticks_Pract_8,5,1,48,48,415292752
2,0,Ticks_Pract_8,6,5,42,127,415300040
2,0,Ticks_Pract_8,7,1,48,48,416097512
2,0,Ticks_Pract_8,8,5,42,127,416099700
2,0,Ticks_Pract_8,9,5,42,127,416899368
2,0,Ticks_Pract_8,10,1,48,51,416915124
2,0,Ticks_Pract_8,11,5,42,127,417700296
2,0,Ticks_Pract_8,12,1,48,47,417795444
2,0,Ticks_Pract_8,13,5,42,127,418500032
2,0,Ticks_Pract_8,14,1,48,41,418501516
2,0,Ticks_Pract_8,15,1,48,48,419263672
2,0,Ticks_Pract_8,16,5,42,127,419299636
2,0,Ticks_Pract_8,17,1,48,53,420067020
2,0,Ticks_Pract_8,18,5,42,127,420099440
2,0,Ticks_Pract_8,19,5,42,127,420900156
2,0,Ticks_Pract_8,20,1,48,47,420919204
2,0,Ticks_Pract_8,21,5,42,127,421700184
2,0,Ticks_Pract_8,22,1,48,50,421714892
2,0,Ticks_Pract_8,23,5,42,127,422499768
2,0,Ticks_Pract_8,24,1,48,42,422548440
2,0,Ticks_Pract_8,25,5,42,127,423299356
2,0,Ticks_Pract_8,26,1,48,57,423350716
2,0,Ticks_Pract_8,27,5,42,127,424100060
2,0,Ticks_Pract_8,28,1,48,50,424131300
2,0,Ticks_Pract_8,29,5,42,127,424900092
2,0,Ticks_Pract_8,30,1,48,47,424941908
2,0,Ticks_Pract_8,31,5,42,127,425699700
2,0,Ticks_Pract_8,32,1,48,51,425716428
2,0,Ticks_Pract_8,33,1,48,50,426476204
2,0,Ticks_Pract_8,34,5,42,127,426499356
2,0,Ticks_Pract_8,35,1,48,56,427266744
2,0,Ticks_Pract_8,36,5,42,127,427300136
2,0,Ticks_Pract_8,37,5,42,127,428100100
2,0,Ticks_Pract_8,38,1,48,51,428134036
2,0,Ticks_Pract_8,39,5,42,127,428899984
2,0,Ticks_Pract_8,40,1,48,41,428994132
2,0,Ticks_Pract_8,41,1,48,50,429694292
2,0,Ticks_Pract_8,42,5,42,127,429699412
2,0,Ticks_Pract_8,43,1,48,45,430477648
2,0,Ticks_Pract_8,44,5,42,127,430500268
2,0,Ticks_Pract_8,45,1,48,47,431295780
2,0,Ticks_Pract_8,46,5,42,127,431300076
2,0,Ticks_Pract_8,47,5,42,127,432099988
2,0,Ticks_Pract_8,48,1,48,37,432108648
2,0,Ticks_Pract_8,49,5,42,127,432899424
2,0,Ticks_Pract_8,50,1,48,46,432969040
2,0,Ticks_Pract_8,51,1,48,49,433683708
2,0,Ticks_Pract_8,52,5,42,127,433700272
2,0,Ticks_Pract_8,53,5,42,127,434499864
2,0,Ticks_Pract_8,54,5,42,127,435299920
2,0,Ticks_Pract_8,55,1,48,37,435313884
2,0,Ticks_Pract_8,56,1,48,55,436073808
2,0,Ticks_Pract_8,0,9999,9999,9999,9999,412097612
2,0,Ticks_Pract_8,1,9999,9999,9999,9999,412897392
2,0,Ticks_Pract_8,2,9999,9999,9999,9999,413697072
2,0,Ticks_Pract_8,3,9999,9999,9999,9999,414497876
2,0,Ticks_Pract_8,4,9999,9999,9999,9999,415297604
2,0,Ticks_Pract_8,5,9999,9999,9999,9999,416097384
2,0,Ticks_Pract_8,6,9999,9999,9999,9999,416897080
2,0,Ticks_Pract_8,7,9999,9999,9999,9999,417697860
2,0,Ticks_Pract_8,8,9999,9999,9999,9999,418497596
2,0,Ticks_Pract_8,9,9999,9999,9999,9999,419297348
2,0,Ticks_Pract_8,10,9999,9999,9999,9999,420097080
2,0,Ticks_Pract_8,11,9999,9999,9999,9999,420897868
2,0,Ticks_Pract_8,12,9999,9999,9999,9999,421697600
2,0,Ticks_Pract_8,13,9999,9999,9999,9999,422497332
2,0,Ticks_Pract_8,14,9999,9999,9999,9999,423297140
2,0,Ticks_Pract_8,15,9999,9999,9999,9999,424097844
2,0,Ticks_Pract_8,16,9999,9999,9999,9999,424897656
2,0,Ticks_Pract_8,17,9999,9999,9999,9999,425697340
2,0,Ticks_Pract_8,18,9999,9999,9999,9999,426497144
2,0,Ticks_Pract_8,19,9999,9999,9999,9999,427297848
2,0,Ticks_Pract_8,20,9999,9999,9999,9999,428097588
2,0,Ticks_Pract_8,21,9999,9999,9999,9999,428897396
2,0,Ticks_Pract_8,22,9999,9999,9999,9999,429697124
2,0,Ticks_Pract_8,23,9999,9999,9999,9999,430497904
2,0,Ticks_Pract_8,24,9999,9999,9999,9999,431297640
2,0,Ticks_Pract_8,25,9999,9999,9999,9999,432097328
2,0,Ticks_Pract_8,26,9999,9999,9999,9999,432897136
2,0,Ticks_Pract_8,27,9999,9999,9999,9999,433697912
2,0,Ticks_Pract_8,28,9999,9999,9999,9999,434497652
2,0,Ticks_Pract_8,29,9999,9999,9999,9999,435297332
3,4,T1_SMS_5,0,5,42,127,542548420
3,4,T1_SMS_5,1,5,42,127,543048136
3,4,T1_SMS_5,2,5,42,127,543547632
3,4,T1_SMS_5,3,5,42,127,544047716
3,4,T1_SMS_5,4,1,48,46,544483740
3,4,T1_SMS_5,5,5,42,127,544548400
3,4,T1_SMS_5,6,1,48,39,544964484
3,4,T1_SMS_5,7,5,42,127,545047872
3,4,T1_SMS_5,8,1,48,46,545485148
3,4,T1_SMS_5,9,5,42,127,545547564
3,4,T1_SMS_5,10,1,48,40,546014536
3,4,T1_SMS_5,11,5,42,127,546048456
3,4,T1_SMS_5,12,1,48,43,546507352
3,4,T1_SMS_5,13,5,42,127,546548152
3,4,T1_SMS_5,14,5,42,127,547047852
3,4,T1_SMS_5,15,1,48,42,547069072
3,4,T1_SMS_5,16,1,48,50,547538984
3,4,T1_SMS_5,17,5,42,127,547547616
3,4,T1_SMS_5,18,1,48,54,548018080
3,4,T1_SMS_5,19,5,42,127,548048208
3,4,T1_SMS_5,20,1,48,46,548522336
3,4,T1_SMS_5,21,5,42,127,548548028
3,4,T1_SMS_5,22,1,48,49,549015828
3,4,T1_SMS_5,23,5,42,127,549047576
3,4,T1_SMS_5,24,1,48,49,549504524
3,4,T1_SMS_5,25,5,42,127,549548392
3,4,T1_SMS_5,26,1,48,49,550027108
3,4,T1_SMS_5,27,5,42,127,550048088
3,4,T1_SMS_5,28,1,48,51,550522992
3,4,T1_SMS_5,29,5,42,127,550547784
3,4,T1_SMS_5,30,1,48,53,550995012
3,4,T1_SMS_5,31,5,42,127,551047628
3,4,T1_SMS_5,32,1,48,52,551530384
3,4,T1_SMS_5,33,5,42,127,551548372
3,4,T1_SMS_5,34,1,48,50,552036712
3,4,T1_SMS_5,35,5,42,127,552047892
3,4,T1_SMS_5,36,1,48,51,552532516
3,4,T1_SMS_5,37,5,42,127,552547660
3,4,T1_SMS_5,38,5,42,127,553048408
3,4,T1_SMS_5,39,1,48,51,553053168
3,4,T1_SMS_5,40,1,48,48,553534292
3,4,T1_SMS_5,41,5,42,127,553548020
3,4,T1_SMS_5,42,1,48,53,554012448
3,4,T1_SMS_5,43,5,42,127,554047716
3,4,T1_SMS_5,44,1,48,21,554100560
3,4,T1_SMS_5,45,1,48,45,554509204
3,4,T1_SMS_5,46,5,42,127,554547540
3,4,T1_SMS_5,47,1,48,39,555037400
3,4,T1_SMS_5,48,5,42,127,555048280
3,4,T1_SMS_5,49,1,48,54,555528496
3,4,T1_SMS_5,50,5,42,127,555547976
3,4,T1_SMS_5,51,1,48,41,556046924
3,4,T1_SMS_5,52,5,42,127,556048568
3,4,T1_SMS_5,53,5,42,127,556547448
3,4,T1_SMS_5,54,1,48,54,556557600
3,4,T1_SMS_5,55,5,42,127,557048412
3,4,T1_SMS_5,56,1,48,49,557055644
3,4,T1_SMS_5,57,1,48,50,557539312
3,4,T1_SMS_5,58,5,42,127,557547876
3,4,T1_SMS_5,59,5,42,127,558047580
3,4,T1_SMS_5,60,1,48,51,558050844
3,4,T1_SMS_5,61,1,48,53,558548172
3,4,T1_SMS_5,62,5,42,127,558549584
3,4,T1_SMS_5,63,1,48,45,559013760
3,4,T1_SMS_5,64,5,42,127,559048304
3,4,T1_SMS_5,65,1,48,45,559534700
3,4,T1_SMS_5,66,5,42,127,559547680
3,4,T1_SMS_5,67,1,48,42,559997300
3,4,T1_SMS_5,68,5,42,127,560047448
3,4,T1_SMS_5,69,1,48,47,560537836
3,4,T1_SMS_5,70,5,42,127,560548412
3,4,T1_SMS_5,71,1,48,57,561028404
3,4,T1_SMS_5,72,5,42,127,561048036
3,4,T1_SMS_5,73,1,48,49,561524504
3,4,T1_SMS_5,74,5,42,127,561547508
3,4,T1_SMS_5,75,1,48,59,562003556
3,4,T1_SMS_5,76,5,42,127,562048548
3,4,T1_SMS_5,77,1,48,53,562530180
3,4,T1_SMS_5,78,5,42,127,562548316
3,4,T1_SMS_5,79,1,48,56,563018284
3,4,T1_SMS_5,80,5,42,127,563047640
3,4,T1_SMS_5,81,1,48,54,563527704
3,4,T1_SMS_5,82,5,42,127,563547484
3,4,T1_SMS_5,83,1,48,49,564025376
3,4,T1_SMS_5,84,5,42,127,564048448
3,4,T1_SMS_5,85,1,48,54,564535692
3,4,T1_SMS_5,86,5,42,127,564547920
3,4,T1_SMS_5,87,1,48,47,565015488
3,4,T1_SMS_5,88,5,42,127,565047540
3,4,T1_SMS_5,89,1,48,50,565511144
3,4,T1_SMS_5,90,5,42,127,565548356
3,4,T1_SMS_5,91,1,48,47,566003888
3,4,T1_SMS_5,92,5,42,127,566048276
3,4,T1_SMS_5,93,5,42,127,566547756
3,4,T1_SMS_5,94,1,48,56,566558056
3,4,T1_SMS_5,95,1,48,52,567037832
3,4,T1_SMS_5,96,5,42,127,567047444
3,4,T1_SMS_5,97,1,48,52,567524136
3,4,T1_SMS_5,98,5,42,127,567548408
3,4,T1_SMS_5,99,1,48,46,568014708
3,4,T1_SMS_5,100,5,42,127,568048400
3,4,T1_SMS_5,101,1,48,52,568525100
3,4,T1_SMS_5,102,5,42,127,568547652
3,4,T1_SMS_5,103,1,48,52,569041624
3,4,T1_SMS_5,104,5,42,127,569048392
3,4,T1_SMS_5,105,1,48,47,569538152
3,4,T1_SMS_5,106,5,42,127,569548384
3,4,T1_SMS_5,107,1,48,54,570023040
3,4,T1_SMS_5,108,5,42,127,570047832
3,4,T1_SMS_5,109,1,48,52,570529316
3,4,T1_SMS_5,110,5,42,127,570547452
3,4,T1_SMS_5,111,1,48,44,571030804
3,4,T1_SMS_5,112,5,42,127,571048416
3,4,T1_SMS_5,113,1,48,49,571538352
3,4,T1_SMS_5,114,5,42,127,571548112
3,4,T1_SMS_5,115,1,48,46,572028028
3,4,T1_SMS_5,116,5,42,127,572047584
3,4,T1_SMS_5,117,1,48,54,572535572
3,4,T1_SMS_5,118,5,42,127,572547428
3,4,T1_SMS_5,119,1,48,40,573035268
3,4,T1_SMS_5,120,5,42,127,573048244
3,4,T1_SMS_5,121,1,48,50,573544012
3,4,T1_SMS_5,122,5,42,127,573547788
3,4,T1_SMS_5,123,1,48,47,574021648
3,4,T1_SMS_5,124,5,42,127,574047708
3,4,T1_SMS_5,125,1,48,51,574526124
3,4,T1_SMS_5,126,5,42,127,574548452
3,4,T1_SMS_5,127,1,48,55,575014228
3,4,T1_SMS_5,128,5,42,127,575048144
3,4,T1_SMS_5,129,1,48,53,575510784
3,4,T1_SMS_5,130,5,42,127,575547696
3,4,T1_SMS_5,131,5,42,127,576047320
3,4,T1_SMS_5,132,1,48,51,576056872
3,4,T1_SMS_5,133,5,42,127,576548284
3,4,T1_SMS_5,134,1,48,56,576564268
3,4,T1_SMS_5,135,1,48,50,577042180
3,4,T1_SMS_5,136,5,42,127,577048048
3,4,T1_SMS_5,137,5,42,127,577547600
3,4,T1_SMS_5,138,1,48,52,577574652
3,4,T1_SMS_5,139,5,42,127,578048344
3,4,T1_SMS_5,140,1,48,49,578052584
3,4,T1_SMS_5,141,5,42,127,578548116
3,4,T1_SMS_5,142,1,48,64,578567764
3,4,T1_SMS_5,143,5,42,127,579047736
3,4,T1_SMS_5,144,1,48,53,579052196
3,4,T1_SMS_5,145,5,42,127,579547356
3,4,T1_SMS_5,146,1,48,53,579562740
3,4,T1_SMS_5,147,5,42,127,580048244
3,4,T1_SMS_5,148,1,48,46,580054576
3,4,T1_SMS_5,149,1,48,61,580524088
3,4,T1_SMS_5,150,5,42,127,580548132
3,4,T1_SMS_5,151,1,48,46,580552304
3,4,T1_SMS_5,152,5,42,127,581047588
3,4,T1_SMS_5,153,1,48,51,581067636
3,4,T1_SMS_5,154,1,48,49,581524504
3,4,T1_SMS_5,155,5,42,127,581548248
3,4,T1_SMS_5,156,1,48,54,582019264
3,4,T1_SMS_5,157,5,42,127,582048092
3,4,T1_SMS_5,158,1,48,65,582521876
3,4,T1_SMS_5,159,5,42,127,582547864
3,4,T1_SMS_5,160,1,48,48,582557924
3,4,T1_SMS_5,161,1,48,44,583026784
3,4,T1_SMS_5,162,5,42,127,583047460
3,4,T1_SMS_5,163,1,48,45,583505156
3,4,T1_SMS_5,164,5,42,127,583548200
3,4,T1_SMS_5,165,1,48,45,584009116
3,4,T1_SMS_5,166,5,42,127,584047968
3,4,T1_SMS_5,167,5,42,127,584547820
3,4,T1_SMS_5,168,1,48,55,584554680
3,4,T1_SMS_5,169,1,48,47,585046900
3,4,T1_SMS_5,170,5,42,127,585048408
3,4,T1_SMS_5,171,5,42,127,585548184
3,4,T1_SMS_5,172,1,48,47,585555040
3,4,T1_SMS_5,173,5,42,127,586047804
3,4,T1_SMS_5,174,1,48,42,586066328
3,4,T1_SMS_5,175,1,48,56,586546368
3,4,T1_SMS_5,176,5,42,127,586547940
3,4,T1_SMS_5,177,1,48,48,587042288
3,4,T1_SMS_5,178,5,42,127,587048308
3,4,T1_SMS_5,179,1,48,50,587546264
3,4,T1_SMS_5,180,5,42,127,587548004
3,4,T1_SMS_5,181,1,48,45,588048004
3,4,T1_SMS_5,182,5,42,127,588049340
3,4,T1_SMS_5,183,5,42,127,588547328
3,4,T1_SMS_5,184,1,48,48,588552012
3,4,T1_SMS_5,185,1,48,48,589046096
3,4,T1_SMS_5,186,5,42,127,589048064
3,4,T1_SMS_5,187,5,42,127,589547916
3,4,T1_SMS_5,188,1,48,45,589568312
3,4,T1_SMS_5,189,1,48,48,590040316
3,4,T1_SMS_5,190,5,42,127,590047456
3,4,T1_SMS_5,191,5,42,127,590548352
3,4,T1_SMS_5,192,1,48,58,590556928
3,4,T1_SMS_5,193,1,48,45,590588028
3,4,T1_SMS_5,194,5,42,127,591048096
3,4,T1_SMS_5,195,1,48,42,591065428
3,4,T1_SMS_5,196,5,42,127,591547916
3,4,T1_SMS_5,197,1,48,47,591586136
3,4,T1_SMS_5,198,5,42,127,592047388
3,4,T1_SMS_5,199,1,48,43,592064792
3,4,T1_SMS_5,200,1,48,51,592548648
3,4,T1_SMS_5,201,5,42,127,592549836
3,4,T1_SMS_5,202,5,42,127,593047972
3,4,T1_SMS_5,203,1,48,44,593083028
3,4,T1_SMS_5,204,1,48,43,593544856
3,4,T1_SMS_5,205,5,42,127,593547512
3,4,T1_SMS_5,206,5,42,127,594048408
3,4,T1_SMS_5,207,1,48,53,594075460
3,4,T1_SMS_5,208,5,42,127,594548104
3,4,T1_SMS_5,209,1,48,62,594551148
3,4,T1_SMS_5,210,5,42,127,595047948
3,4,T1_SMS_5,211,1,48,53,595052564
3,4,T1_SMS_5,212,1,48,43,595531296
3,4,T1_SMS_5,213,5,42,127,595547412
3,4,T1_SMS_5,214,1,48,49,596002192
3,4,T1_SMS_5,215,5,42,127,596048300
3,4,T1_SMS_5,216,5,42,127,596548080
3,4,T1_SMS_5,217,1,48,58,596576708
3,4,T1_SMS_5,218,5,42,127,597047552
3,4,T1_SMS_5,219,1,48,43,597057556
3,4,T1_SMS_5,220,5,42,127,597548368
3,4,T1_SMS_5,221,1,48,48,597568988
3,4,T1_SMS_5,222,1,48,46,598027604
3,4,T1_SMS_5,223,5,42,127,598048128
3,4,T1_SMS_5,224,5,42,127,598548280
3,4,T1_SMS_5,225,1,48,57,598566956
3,4,T1_SMS_5,226,1,48,49,599045780
3,4,T1_SMS_5,227,5,42,127,599047520
3,4,T1_SMS_5,228,1,48,44,599536032
3,4,T1_SMS_5,229,5,42,127,599548264
3,4,T1_SMS_5,230,1,48,47,600006324
3,4,T1_SMS_5,231,5,42,127,600048176
3,4,T1_SMS_5,232,1,48,59,600546060
3,4,T1_SMS_5,233,5,42,127,600547648
3,4,T1_SMS_5,234,5,42,127,601048320
3,4,T1_SMS_5,235,1,48,45,601055172
3,4,T1_SMS_5,236,1,48,44,601542960
3,4,T1_SMS_5,237,5,42,127,601548084
3,4,T1_SMS_5,238,1,48,45,602033432
3,4,T1_SMS_5,239,5,42,127,602048052
3,4,T1_SMS_5,240,5,42,127,602547900
3,4,T1_SMS_5,241,1,48,51,602563436
3,4,T1_SMS_5,242,1,48,42,603025492
3,4,T1_SMS_5,243,5,42,127,603048188
3,4,T1_SMS_5,244,1,48,50,603528028
3,4,T1_SMS_5,245,5,42,127,603548180
3,4,T1_SMS_5,246,1,48,49,604026076
3,4,T1_SMS_5,247,5,42,127,604047952
3,4,T1_SMS_5,248,5,42,127,604547428
3,4,T1_SMS_5,249,1,48,60,604572688
3,4,T1_SMS_5,250,1,48,44,605022848
3,4,T1_SMS_5,251,5,42,127,605048164
3,4,T1_SMS_5,252,5,42,127,605548088
3,4,T1_SMS_5,253,1,48,48,605558312
3,4,T1_SMS_5,254,1,48,49,606045664
3,4,T1_SMS_5,255,5,42,127,606047556
3,4,T1_SMS_5,256,5,42,127,606548376
3,4,T1_SMS_5,257,1,48,54,606552988
3,4,T1_SMS_5,258,5,42,127,607048072
3,4,T1_SMS_5,259,1,48,51,607075352
3,4,T1_SMS_5,0,9999,9999,9999,9999,542545980
3,4,T1_SMS_5,1,9999,9999,9999,9999,543045696
3,4,T1_SMS_5,2,9999,9999,9999,9999,543545412
3,4,T1_SMS_5,3,9999,9999,9999,9999,544045128
3,4,T1_SMS_5,4,9999,9999,9999,9999,544545888
3,4,T1_SMS_5,5,9999,9999,9999,9999,545045580
3,4,T1_SMS_5,6,9999,9999,9999,9999,545545276
3,4,T1_SMS_5,7,9999,9999,9999,9999,546046016
3,4,T1_SMS_5,8,9999,9999,9999,9999,546545712
3,4,T1_SMS_5,9,9999,9999,9999,9999,547045488
3,4,T1_SMS_5,10,9999,9999,9999,9999,547545176
3,4,T1_SMS_5,11,9999,9999,9999,9999,548045920
3,4,T1_SMS_5,12,9999,9999,9999,9999,548545588
3,4,T1_SMS_5,13,9999,9999,9999,9999,549045360
3,4,T1_SMS_5,14,9999,9999,9999,9999,549546104
3,4,T1_SMS_5,15,9999,9999,9999,9999,550045800
3,4,T1_SMS_5,16,9999,9999,9999,9999,550545496
3,4,T1_SMS_5,17,9999,9999,9999,9999,551045188
3,4,T1_SMS_5,18,9999,9999,9999,9999,551545932
3,4,T1_SMS_5,19,9999,9999,9999,9999,552045676
3,4,T1_SMS_5,20,9999,9999,9999,9999,552545368
3,4,T1_SMS_5,21,9999,9999,9999,9999,553046120
3,4,T1_SMS_5,22,9999,9999,9999,9999,553545804
3,4,T1_SMS_5,23,9999,9999,9999,9999,554045500
3,4,T1_SMS_5,24,9999,9999,9999,9999,554545248
3,4,T1_SMS_5,25,9999,9999,9999,9999,555045992
3,4,T1_SMS_5,26,9999,9999,9999,9999,555545688
3,4,T1_SMS_5,27,9999,9999,9999,9999,556045388
3,4,T1_SMS_5,28,9999,9999,9999,9999,556545084
3,4,T1_SMS_5,29,9999,9999,9999,9999,557045824
3,4,T1_SMS_5,30,9999,9999,9999,9999,557545588
3,4,T1_SMS_5,31,9999,9999,9999,9999,558045288
3,4,T1_SMS_5,32,9999,9999,9999,9999,558546032
3,4,T1_SMS_5,33,9999,9999,9999,9999,559045692
3,4,T1_SMS_5,34,9999,9999,9999,9999,559545464
3,4,T1_SMS_5,35,9999,9999,9999,9999,560045160
3,4,T1_SMS_5,36,9999,9999,9999,9999,560545900
3,4,T1_SMS_5,37,9999,9999,9999,9999,561045596
3,4,T1_SMS_5,38,9999,9999,9999,9999,561545288
3,4,T1_SMS_5,39,9999,9999,9999,9999,562046032
3,4,T1_SMS_5,40,9999,9999,9999,9999,562545728
3,4,T1_SMS_5,41,9999,9999,9999,9999,563045424
3,4,T1_SMS_5,42,9999,9999,9999,9999,563545192
3,4,T1_SMS_5,43,9999,9999,9999,9999,564045936
3,4,T1_SMS_5,44,9999,9999,9999,9999,564545632
3,4,T1_SMS_5,45,9999,9999,9999,9999,565045324
3,4,T1_SMS_5,46,9999,9999,9999,9999,565546068
3,4,T1_SMS_5,47,9999,9999,9999,9999,566045764
3,4,T1_SMS_5,48,9999,9999,9999,9999,566545464
3,4,T1_SMS_5,49,9999,9999,9999,9999,567045228
3,4,T1_SMS_5,50,9999,9999,9999,9999,567545972
3,4,T1_SMS_5,51,9999,9999,9999,9999,568045668
3,4,T1_SMS_5,52,9999,9999,9999,9999,568545360
3,4,T1_SMS_5,53,9999,9999,9999,9999,569046108
3,4,T1_SMS_5,54,9999,9999,9999,9999,569545796
3,4,T1_SMS_5,55,9999,9999,9999,9999,570045540
3,4,T1_SMS_5,56,9999,9999,9999,9999,570545236
3,4,T1_SMS_5,57,9999,9999,9999,9999,571045976
3,4,T1_SMS_5,58,9999,9999,9999,9999,571545676
3,4,T1_SMS_5,59,9999,9999,9999,9999,572045368
3,4,T1_SMS_5,60,9999,9999,9999,9999,572545140
3,4,T1_SMS_5,61,9999,9999,9999,9999,573045880
3,4,T1_SMS_5,62,9999,9999,9999,9999,573545576
3,4,T1_SMS_5,63,9999,9999,9999,9999,574045268
3,4,T1_SMS_5,64,9999,9999,9999,9999,574546012
3,4,T1_SMS_5,65,9999,9999,9999,9999,575045708
3,4,T1_SMS_5,66,9999,9999,9999,9999,575545404
3,4,T1_SMS_5,67,9999,9999,9999,9999,576045104
3,4,T1_SMS_5,68,9999,9999,9999,9999,576545844
3,4,T1_SMS_5,69,9999,9999,9999,9999,577045612
3,4,T1_SMS_5,70,9999,9999,9999,9999,577545312
3,4,T1_SMS_5,71,9999,9999,9999,9999,578046056
3,4,T1_SMS_5,72,9999,9999,9999,9999,578545752
3,4,T1_SMS_5,73,9999,9999,9999,9999,579045444
3,4,T1_SMS_5,74,9999,9999,9999,9999,579545140
3,4,T1_SMS_5,75,9999,9999,9999,9999,580045880
3,4,T1_SMS_5,76,9999,9999,9999,9999,580545620
3,4,T1_SMS_5,77,9999,9999,9999,9999,581045300
3,4,T1_SMS_5,78,9999,9999,9999,9999,581546032
3,4,T1_SMS_5,79,9999,9999,9999,9999,582045800
3,4,T1_SMS_5,80,9999,9999,9999,9999,582545496
3,4,T1_SMS_5,81,9999,9999,9999,9999,583045168
3,4,T1_SMS_5,82,9999,9999,9999,9999,583545912
3,4,T1_SMS_5,83,9999,9999,9999,9999,584045680
3,4,T1_SMS_5,84,9999,9999,9999,9999,584545380
3,4,T1_SMS_5,85,9999,9999,9999,9999,585046128
3,4,T1_SMS_5,86,9999,9999,9999,9999,585545820
3,4,T1_SMS_5,87,9999,9999,9999,9999,586045512
3,4,T1_SMS_5,88,9999,9999,9999,9999,586545208
3,4,T1_SMS_5,89,9999,9999,9999,9999,587045944
3,4,T1_SMS_5,90,9999,9999,9999,9999,587545652
3,4,T1_SMS_5,91,9999,9999,9999,9999,588045416
3,4,T1_SMS_5,92,9999,9999,9999,9999,588545112
3,4,T1_SMS_5,93,9999,9999,9999,9999,589045812
3,4,T1_SMS_5,94,9999,9999,9999,9999,589545552
3,4,T1_SMS_5,95,9999,9999,9999,9999,590045240
3,4,T1_SMS_5,96,9999,9999,9999,9999,590545988
3,4,T1_SMS_5,97,9999,9999,9999,9999,591045708
3,4,T1_SMS_5,98,9999,9999,9999,9999,591545404
3,4,T1_SMS_5,99,9999,9999,9999,9999,592045172
3,4,T1_SMS_5,100,9999,9999,9999,9999,592545912
3,4,T1_SMS_5,101,9999,9999,9999,9999,593045608
3,4,T1_SMS_5,102,9999,9999,9999,9999,593545296
3,4,T1_SMS_5,103,9999,9999,9999,9999,594046044
3,4,T1_SMS_5,104,9999,9999,9999,9999,594545740
3,4,T1_SMS_5,105,9999,9999,9999,9999,595045432
3,4,T1_SMS_5,106,9999,9999,9999,9999,595545196
3,4,T1_SMS_5,107,9999,9999,9999,9999,596045936
3,4,T1_SMS_5,108,9999,9999,9999,9999,596545640
3,4,T1_SMS_5,109,9999,9999,9999,9999,597045336
3,4,T1_SMS_5,110,9999,9999,9999,9999,597546076
3,4,T1_SMS_5,111,9999,9999,9999,9999,598045764
3,4,T1_SMS_5,112,9999,9999,9999,9999,598545468
3,4,T1_SMS_5,113,9999,9999,9999,9999,599045180
3,4,T1_SMS_5,114,9999,9999,9999,9999,599545972
3,4,T1_SMS_5,115,9999,9999,9999,9999,600045660
3,4,T1_SMS_5,116,9999,9999,9999,9999,600545364
3,4,T1_SMS_5,117,9999,9999,9999,9999,601046108
3,4,T1_SMS_5,118,9999,9999,9999,9999,601545792
3,4,T1_SMS_5,119,9999,9999,9999,9999,602045536
3,4,T1_SMS_5,120,9999,9999,9999,9999,602545240
3,4,T1_SMS_5,121,9999,9999,9999,9999,603045972
3,4,T1_SMS_5,122,9999,9999,9999,9999,603545668
3,4,T1_SMS_5,123,9999,9999,9999,9999,604045364
3,4,T1_SMS_5,124,9999,9999,9999,9999,604545140
3,4,T1_SMS_5,125,9999,9999,9999,9999,605045876
3,4,T1_SMS_5,126,9999,9999,9999,9999,605545576
3,4,T1_SMS_5,127,9999,9999,9999,9999,606045288
3,4,T1_SMS_5,128,9999,9999,9999,9999,606546012
3,4,T1_SMS_5,129,9999,9999,9999,9999,607045708
4,2,T1_SMS_8,0,5,42,127,662607160
4,2,T1_SMS_8,1,5,42,127,663406988
4,2,T1_SMS_8,2,1,48,28,663466132
4,2,T1_SMS_8,3,5,42,127,664206724
4,2,T1_SMS_8,4,1,48,32,664235420
4,2,T1_SMS_8,5,5,42,127,665006380
4,2,T1_SMS_8,6,1,48,38,665018476
4,2,T1_SMS_8,7,5,42,127,665807260
4,2,T1_SMS_8,8,1,48,32,665835808
4,2,T1_SMS_8,9,5,42,127,666606996
4,2,T1_SMS_8,10,1,48,39,666658504
4,2,T1_SMS_8,11,5,42,127,667406652
4,2,T1_SMS_8,12,1,48,36,667420768
4,2,T1_SMS_8,13,5,42,127,668206536
4,2,T1_SMS_8,14,1,48,36,668233660
4,2,T1_SMS_8,15,5,42,127,669007316
4,2,T1_SMS_8,16,1,48,39,669036308
4,2,T1_SMS_8,17,5,42,127,669806824
4,2,T1_SMS_8,18,1,48,38,669879876
4,2,T1_SMS_8,19,1,48,42,670605424
4,2,T1_SMS_8,20,5,42,127,670606848
4,2,T1_SMS_8,21,5,42,127,671406364
4,2,T1_SMS_8,22,1,48,40,671417184
4,2,T1_SMS_8,23,5,42,127,672207320
4,2,T1_SMS_8,24,1,48,42,672209688
4,2,T1_SMS_8,25,5,42,127,673007052
4,2,T1_SMS_8,26,1,48,44,673035528
4,2,T1_SMS_8,27,5,42,127,673806640
4,2,T1_SMS_8,28,1,48,47,673828156
4,2,T1_SMS_8,29,5,42,127,674606372
4,2,T1_SMS_8,30,1,48,39,674631856
4,2,T1_SMS_8,31,1,48,42,675407672
4,2,T1_SMS_8,32,5,42,127,675408788
4,2,T1_SMS_8,33,5,42,127,676207036
4,2,T1_SMS_8,34,1,48,46,676240296
4,2,T1_SMS_8,35,1,48,43,677005936
4,2,T1_SMS_8,36,5,42,127,677007440
4,2,T1_SMS_8,37,1,48,46,677790832
4,2,T1_SMS_8,38,5,42,127,677806424
4,2,T1_SMS_8,39,5,42,127,678607308
4,2,T1_SMS_8,40,1,48,47,678610428
4,2,T1_SMS_8,41,5,42,127,679407192
4,2,T1_SMS_8,42,1,48,30,679442024
4,2,T1_SMS_8,43,5,42,127,680206628
4,2,T1_SMS_8,44,1,48,47,680243024
4,2,T1_SMS_8,45,1,48,37,680984924
4,2,T1_SMS_8,46,5,42,127,681006428
4,2,T1_SMS_8,47,1,48,42,681784208
4,2,T1_SMS_8,48,5,42,127,681807208
4,2,T1_SMS_8,49,1,48,43,682590228
4,2,T1_SMS_8,50,5,42,127,682607240
4,2,T1_SMS_8,51,1,48,39,683399608
4,2,T1_SMS_8,52,5,42,127,683406600
4,2,T1_SMS_8,53,5,42,127,684206340
4,2,T1_SMS_8,54,1,48,43,684212448
4,2,T1_SMS_8,55,5,42,127,685007216
4,2,T1_SMS_8,56,1,48,43,685049232
4,2,T1_SMS_8,57,1,48,47,685797936
4,2,T1_SMS_8,58,5,42,127,685807240
4,2,T1_SMS_8,59,1,48,48,686580092
4,2,T1_SMS_8,60,5,42,127,686606604
4,2,T1_SMS_8,61,1,48,39,687379972
4,2,T1_SMS_8,62,5,42,127,687406336
4,2,T1_SMS_8,63,1,48,48,688144476
4,2,T1_SMS_8,64,5,42,127,688207264
4,2,T1_SMS_8,65,1,48,46,688988268
4,2,T1_SMS_8,66,5,42,127,689006924
4,2,T1_SMS_8,67,1,48,39,689761068
4,2,T1_SMS_8,68,5,42,127,689806584
4,2,T1_SMS_8,69,1,48,42,690589976
4,2,T1_SMS_8,70,5,42,127,690606392
4,2,T1_SMS_8,71,5,42,127,691407200
4,2,T1_SMS_8,72,1,48,37,691434252
4,2,T1_SMS_8,73,1,48,37,692177796
4,2,T1_SMS_8,74,5,42,127,692206928
4,2,T1_SMS_8,75,1,48,40,692955012
4,2,T1_SMS_8,76,5,42,127,693006960
4,2,T1_SMS_8,77,1,48,40,693794612
4,2,T1_SMS_8,78,5,42,127,693806396
4,2,T1_SMS_8,79,1,48,39,694588596
4,2,T1_SMS_8,80,5,42,127,694607104
4,2,T1_SMS_8,81,5,42,127,695407064
4,2,T1_SMS_8,82,1,48,47,695417736
4,2,T1_SMS_8,83,5,42,127,696206800
4,2,T1_SMS_8,84,1,48,45,696211936
4,2,T1_SMS_8,85,1,48,47,697004636
4,2,T1_SMS_8,86,5,42,127,697006300
4,2,T1_SMS_8,87,5,42,127,697807264
4,2,T1_SMS_8,88,1,48,48,697818908
4,2,T1_SMS_8,89,1,48,42,698604800
4,2,T1_SMS_8,90,5,42,127,698606844
4,2,T1_SMS_8,91,5,42,127,699406804
4,2,T1_SMS_8,92,1,48,38,699435576
4,2,T1_SMS_8,93,1,48,43,700195052
4,2,T1_SMS_8,94,5,42,127,700206460
4,2,T1_SMS_8,95,1,48,47,701005884
4,2,T1_SMS_8,96,5,42,127,701007384
4,2,T1_SMS_8,97,5,42,127,701807052
4,2,T1_SMS_8,98,1,48,50,701819892
4,2,T1_SMS_8,99,5,42,127,702606784
4,2,T1_SMS_8,100,1,48,47,702676720
4,2,T1_SMS_8,101,1,48,39,703391292
4,2,T1_SMS_8,102,5,42,127,703406436
4,2,T1_SMS_8,103,1,48,38,704134924
4,2,T1_SMS_8,104,5,42,127,704207240
4,2,T1_SMS_8,105,1,48,35,704980536
4,2,T1_SMS_8,106,5,42,127,705007048
4,2,T1_SMS_8,107,1,48,48,705797024
4,2,T1_SMS_8,108,5,42,127,705806784
4,2,T1_SMS_8,109,1,48,46,706589732
4,2,T1_SMS_8,110,5,42,127,706606592
4,2,T1_SMS_8,111,1,48,46,707376372
4,2,T1_SMS_8,112,5,42,127,707407148
4,2,T1_SMS_8,113,1,48,42,708207332
4,2,T1_SMS_8,114,5,42,127,708208448
4,2,T1_SMS_8,115,5,42,127,709006844
4,2,T1_SMS_8,116,1,48,35,709007960
4,2,T1_SMS_8,117,5,42,127,709806580
4,2,T1_SMS_8,118,1,48,44,709818676
4,2,T1_SMS_8,119,5,42,127,710607088
4,2,T1_SMS_8,120,1,48,46,710621352
4,2,T1_SMS_8,121,5,42,127,711406968
4,2,T1_SMS_8,122,1,48,40,711422872
4,2,T1_SMS_8,123,1,48,40,712167316
4,2,T1_SMS_8,124,5,42,127,712206992
4,2,T1_SMS_8,125,1,48,44,713000556
4,2,T1_SMS_8,126,5,42,127,713006428
4,2,T1_SMS_8,127,5,42,127,713807140
4,2,T1_SMS_8,128,1,48,44,713809884
4,2,T1_SMS_8,129,5,42,127,714607100
4,2,T1_SMS_8,130,1,48,40,714610664
4,2,T1_SMS_8,131,1,48,38,715401556
4,2,T1_SMS_8,132,5,42,127,715406972
4,2,T1_SMS_8,133,1,48,40,716203828
4,2,T1_SMS_8,134,5,42,127,716206856
4,2,T1_SMS_8,135,1,48,42,716964516
4,2,T1_SMS_8,136,5,42,127,717007140
4,2,T1_SMS_8,137,5,42,127,717806880
4,2,T1_SMS_8,138,1,48,45,717813064
4,2,T1_SMS_8,139,5,42,127,718606912
4,2,T1_SMS_8,140,1,48,44,718624844
4,2,T1_SMS_8,141,5,42,127,719406424
4,2,T1_SMS_8,142,1,48,35,719414776
4,2,T1_SMS_8,143,1,48,45,720206068
4,2,T1_SMS_8,144,5,42,127,720207716
4,2,T1_SMS_8,145,5,42,127,721006864
4,2,T1_SMS_8,146,1,48,31,721008200
4,2,T1_SMS_8,147,5,42,127,721806668
4,2,T1_SMS_8,148,1,48,41,721830356
4,2,T1_SMS_8,149,1,48,43,722597240
4,2,T1_SMS_8,150,5,42,127,722606324
4,2,T1_SMS_8,151,1,48,49,723390088
4,2,T1_SMS_8,152,5,42,127,723407128
4,2,T1_SMS_8,153,1,48,43,724171896
4,2,T1_SMS_8,154,5,42,127,724206860
4,2,T1_SMS_8,155,1,48,40,724980832
4,2,T1_SMS_8,156,5,42,127,725006668
4,2,T1_SMS_8,157,1,48,31,725795816
4,2,T1_SMS_8,158,5,42,127,725806404
4,2,T1_SMS_8,159,1,48,31,726599516
4,2,T1_SMS_8,160,5,42,127,726607184
4,2,T1_SMS_8,161,1,48,40,727384440
4,2,T1_SMS_8,162,5,42,127,727406916
4,2,T1_SMS_8,163,5,42,127,728206580
4,2,T1_SMS_8,164,1,48,46,728217928
4,2,T1_SMS_8,165,5,42,127,729006388
4,2,T1_SMS_8,166,1,48,43,729028008
4,2,T1_SMS_8,167,5,42,127,729807192
4,2,T1_SMS_8,168,1,48,42,729840080
4,2,T1_SMS_8,169,5,42,127,730606852
4,2,T1_SMS_8,170,1,48,36,730650212
4,2,T1_SMS_8,171,5,42,127,731406660
4,2,T1_SMS_8,172,1,48,41,731420924
4,2,T1_SMS_8,173,1,48,48,732202836
4,2,T1_SMS_8,174,5,42,127,732206536
4,2,T1_SMS_8,175,1,48,39,732989708
4,2,T1_SMS_8,176,5,42,127,733007168
4,2,T1_SMS_8,177,1,48,46,733787720
4,2,T1_SMS_8,178,5,42,127,733806976
4,2,T1_SMS_8,179,1,48,40,734595156
4,2,T1_SMS_8,180,5,42,127,734606636
4,2,T1_SMS_8,181,1,48,42,735398108
4,2,T1_SMS_8,182,5,42,127,735406592
4,2,T1_SMS_8,183,5,42,127,736207256
4,2,T1_SMS_8,184,1,48,42,736219872
4,2,T1_SMS_8,185,5,42,127,737006912
4,2,T1_SMS_8,186,1,48,40,737021772
4,2,T1_SMS_8,187,5,42,127,737806868
4,2,T1_SMS_8,188,1,48,39,737819864
4,2,T1_SMS_8,189,5,42,127,738606604
4,2,T1_SMS_8,190,1,48,39,738617728
4,2,T1_SMS_8,191,5,42,127,739407160
4,2,T1_SMS_8,192,1,48,37,739436688
4,2,T1_SMS_8,193,5,42,127,740206896
4,2,T1_SMS_8,194,1,48,36,740213524
4,2,T1_SMS_8,195,1,48,45,740996492
4,2,T1_SMS_8,196,5,42,127,741006696
4,2,T1_SMS_8,197,5,42,127,741806508
4,2,T1_SMS_8,198,1,48,44,741847800
4,2,T1_SMS_8,199,1,48,43,742604652
4,2,T1_SMS_8,200,5,42,127,742607236
4,2,T1_SMS_8,201,5,42,127,743406900
4,2,T1_SMS_8,202,1,48,42,743425496
4,2,T1_SMS_8,203,5,42,127,744206560
4,2,T1_SMS_8,204,1,48,37,744230920
4,2,T1_SMS_8,205,5,42,127,745006664
4,2,T1_SMS_8,206,1,48,40,745022196
4,2,T1_SMS_8,207,1,48,39,745805472
4,2,T1_SMS_8,208,5,42,127,745807064
4,2,T1_SMS_8,209,5,42,127,746607028
4,2,T1_SMS_8,210,1,48,40,746612916
4,2,T1_SMS_8,211,5,42,127,747406836
4,2,T1_SMS_8,212,1,48,42,747414216
4,2,T1_SMS_8,213,5,42,127,748206644
4,2,T1_SMS_8,214,1,48,41,748256156
4,2,T1_SMS_8,215,5,42,127,749007152
4,2,T1_SMS_8,216,1,48,38,749022536
4,2,T1_SMS_8,217,5,42,127,749807032
4,2,T1_SMS_8,218,1,48,41,749816580
4,2,T1_SMS_8,219,5,42,127,750606692
4,2,T1_SMS_8,220,1,48,29,750655884
4,2,T1_SMS_8,221,5,42,127,751406572
4,2,T1_SMS_8,222,1,48,37,751468256
4,2,T1_SMS_8,223,5,42,127,752207204
4,2,T1_SMS_8,224,1,48,37,752267168
4,2,T1_SMS_8,225,5,42,127,753006936
4,2,T1_SMS_8,226,1,48,40,753010128
4,2,T1_SMS_8,227,1,48,39,753758536
4,2,T1_SMS_8,228,5,42,127,753806664
4,2,T1_SMS_8,229,1,48,38,754546592
4,2,T1_SMS_8,230,5,42,127,754606396
4,2,T1_SMS_8,231,5,42,127,755407356
4,2,T1_SMS_8,232,1,48,45,755419896
4,2,T1_SMS_8,233,1,48,41,756193808
4,2,T1_SMS_8,234,5,42,127,756206860
4,2,T1_SMS_8,235,1,48,46,756991076
4,2,T1_SMS_8,236,5,42,127,757006592
4,2,T1_SMS_8,237,5,42,127,757806336
4,2,T1_SMS_8,238,1,48,40,757826808
4,2,T1_SMS_8,0,9999,9999,9999,9999,662604868
4,2,T1_SMS_8,1,9999,9999,9999,9999,663404624
4,2,T1_SMS_8,2,9999,9999,9999,9999,664204356
4,2,T1_SMS_8,3,9999,9999,9999,9999,665004088
4,2,T1_SMS_8,4,9999,9999,9999,9999,665804892
4,2,T1_SMS_8,5,9999,9999,9999,9999,666604628
4,2,T1_SMS_8,6,9999,9999,9999,9999,667404360
4,2,T1_SMS_8,7,9999,9999,9999,9999,668204096
4,2,T1_SMS_8,8,9999,9999,9999,9999,669004872
4,2,T1_SMS_8,9,9999,9999,9999,9999,669804608
4,2,T1_SMS_8,10,9999,9999,9999,9999,670604340
4,2,T1_SMS_8,11,9999,9999,9999,9999,671404148
4,2,T1_SMS_8,12,9999,9999,9999,9999,672204880
4,2,T1_SMS_8,13,9999,9999,9999,9999,673004612
4,2,T1_SMS_8,14,9999,9999,9999,9999,673804348
4,2,T1_SMS_8,15,9999,9999,9999,9999,674604080
4,2,T1_SMS_8,16,9999,9999,9999,9999,675404860
4,2,T1_SMS_8,17,9999,9999,9999,9999,676204596
4,2,T1_SMS_8,18,9999,9999,9999,9999,677004404
4,2,T1_SMS_8,19,9999,9999,9999,9999,677804132
4,2,T1_SMS_8,20,9999,9999,9999,9999,678604868
4,2,T1_SMS_8,21,9999,9999,9999,9999,679404600
4,2,T1_SMS_8,22,9999,9999,9999,9999,680204336
4,2,T1_SMS_8,23,9999,9999,9999,9999,681004136
4,2,T1_SMS_8,24,9999,9999,9999,9999,681804916
4,2,T1_SMS_8,25,9999,9999,9999,9999,682604648
4,2,T1_SMS_8,26,9999,9999,9999,9999,683404384
4,2,T1_SMS_8,27,9999,9999,9999,9999,684204124
4,2,T1_SMS_8,28,9999,9999,9999,9999,685004852
4,2,T1_SMS_8,29,9999,9999,9999,9999,685804652
4,2,T1_SMS_8,30,9999,9999,9999,9999,686604388
4,2,T1_SMS_8,31,9999,9999,9999,9999,687404120
4,2,T1_SMS_8,32,9999,9999,9999,9999,688204900
4,2,T1_SMS_8,33,9999,9999,9999,9999,689004632
4,2,T1_SMS_8,34,9999,9999,9999,9999,689804368
4,2,T1_SMS_8,35,9999,9999,9999,9999,690604100
4,2,T1_SMS_8,36,9999,9999,9999,9999,691404908
4,2,T1_SMS_8,37,9999,9999,9999,9999,692204636
4,2,T1_SMS_8,38,9999,9999,9999,9999,693004372
4,2,T1_SMS_8,39,9999,9999,9999,9999,693804104
4,2,T1_SMS_8,40,9999,9999,9999,9999,694604884
4,2,T1_SMS_8,41,9999,9999,9999,9999,695404624
4,2,T1_SMS_8,42,9999,9999,9999,9999,696204356
4,2,T1_SMS_8,43,9999,9999,9999,9999,697004108
4,2,T1_SMS_8,44,9999,9999,9999,9999,697804896
4,2,T1_SMS_8,45,9999,9999,9999,9999,698604664
4,2,T1_SMS_8,46,9999,9999,9999,9999,699404364
4,2,T1_SMS_8,47,9999,9999,9999,9999,700204092
4,2,T1_SMS_8,48,9999,9999,9999,9999,701004876
4,2,T1_SMS_8,49,9999,9999,9999,9999,701804612
4,2,T1_SMS_8,50,9999,9999,9999,9999,702604344
4,2,T1_SMS_8,51,9999,9999,9999,9999,703404144
4,2,T1_SMS_8,52,9999,9999,9999,9999,704204876
4,2,T1_SMS_8,53,9999,9999,9999,9999,705004608
4,2,T1_SMS_8,54,9999,9999,9999,9999,705804344
4,2,T1_SMS_8,55,9999,9999,9999,9999,706604152
4,2,T1_SMS_8,56,9999,9999,9999,9999,707404856
4,2,T1_SMS_8,57,9999,9999,9999,9999,708204596
4,2,T1_SMS_8,58,9999,9999,9999,9999,709004404
4,2,T1_SMS_8,59,9999,9999,9999,9999,709804140
4,2,T1_SMS_8,60,9999,9999,9999,9999,710604868
4,2,T1_SMS_8,61,9999,9999,9999,9999,711404600
4,2,T1_SMS_8,62,9999,9999,9999,9999,712204404
4,2,T1_SMS_8,63,9999,9999,9999,9999,713004136
4,2,T1_SMS_8,64,9999,9999,9999,9999,713804852
4,2,T1_SMS_8,65,9999,9999,9999,9999,714604660
4,2,T1_SMS_8,66,9999,9999,9999,9999,715404384
4,2,T1_SMS_8,67,9999,9999,9999,9999,716204116
4,2,T1_SMS_8,68,9999,9999,9999,9999,717004848
4,2,T1_SMS_8,69,9999,9999,9999,9999,717804664
4,2,T1_SMS_8,70,9999,9999,9999,9999,718604396
4,2,T1_SMS_8,71,9999,9999,9999,9999,719404132
4,2,T1_SMS_8,72,9999,9999,9999,9999,720204912
4,2,T1_SMS_8,73,9999,9999,9999,9999,721004644
4,2,T1_SMS_8,74,9999,9999,9999,9999,721804380
4,2,T1_SMS_8,75,9999,9999,9999,9999,722604108
4,2,T1_SMS_8,76,9999,9999,9999,9999,723404912
4,2,T1_SMS_8,77,9999,9999,9999,9999,724204644
4,2,T1_SMS_8,78,9999,9999,9999,9999,725004376
4,2,T1_SMS_8,79,9999,9999,9999,9999,725804112
4,2,T1_SMS_8,80,9999,9999,9999,9999,726604892
4,2,T1_SMS_8,81,9999,9999,9999,9999,727404624
4,2,T1_SMS_8,82,9999,9999,9999,9999,728204364
4,2,T1_SMS_8,83,9999,9999,9999,9999,729004096
4,2,T1_SMS_8,84,9999,9999,9999,9999,729804900
4,2,T1_SMS_8,85,9999,9999,9999,9999,730604636
4,2,T1_SMS_8,86,9999,9999,9999,9999,731404368
4,2,T1_SMS_8,87,9999,9999,9999,9999,732204096
4,2,T1_SMS_8,88,9999,9999,9999,9999,733004876
4,2,T1_SMS_8,89,9999,9999,9999,9999,733804612
4,2,T1_SMS_8,90,9999,9999,9999,9999,734604344
4,2,T1_SMS_8,91,9999,9999,9999,9999,735404152
4,2,T1_SMS_8,92,9999,9999,9999,9999,736204888
4,2,T1_SMS_8,93,9999,9999,9999,9999,737004620
4,2,T1_SMS_8,94,9999,9999,9999,9999,737804356
4,2,T1_SMS_8,95,9999,9999,9999,9999,738604088
4,2,T1_SMS_8,96,9999,9999,9999,9999,739404868
4,2,T1_SMS_8,97,9999,9999,9999,9999,740204604
4,2,T1_SMS_8,98,9999,9999,9999,9999,741004404
4,2,T1_SMS_8,99,9999,9999,9999,9999,741804144
4,2,T1_SMS_8,100,9999,9999,9999,9999,742604868
4,2,T1_SMS_8,101,9999,9999,9999,9999,743404608
4,2,T1_SMS_8,102,9999,9999,9999,9999,744204340
4,2,T1_SMS_8,103,9999,9999,9999,9999,745004148
4,2,T1_SMS_8,104,9999,9999,9999,9999,745804872
4,2,T1_SMS_8,105,9999,9999,9999,9999,746604664
4,2,T1_SMS_8,106,9999,9999,9999,9999,747404396
4,2,T1_SMS_8,107,9999,9999,9999,9999,748204128
4,2,T1_SMS_8,108,9999,9999,9999,9999,749004860
4,2,T1_SMS_8,109,9999,9999,9999,9999,749804592
4,2,T1_SMS_8,110,9999,9999,9999,9999,750604400
4,2,T1_SMS_8,111,9999,9999,9999,9999,751404132
4,2,T1_SMS_8,112,9999,9999,9999,9999,752204912
4,2,T1_SMS_8,113,9999,9999,9999,9999,753004644
4,2,T1_SMS_8,114,9999,9999,9999,9999,753804372
4,2,T1_SMS_8,115,9999,9999,9999,9999,754604104
4,2,T1_SMS_8,116,9999,9999,9999,9999,755404916
4,2,T1_SMS_8,117,9999,9999,9999,9999,756204644
4,2,T1_SMS_8,118,9999,9999,9999,9999,757004376
4,2,T1_SMS_8,119,9999,9999,9999,9999,757804116
5,23,Ticks_Phase_5,0,5,42,127,769838368
5,23,Ticks_Phase_5,1,5,42,127,770339272
5,23,Ticks_Phase_5,2,5,42,127,770838760
5,23,Ticks_Phase_5,3,5,42,127,771338544
5,23,Ticks_Phase_5,4,5,42,127,771839228
5,23,Ticks_Phase_5,5,1,48,32,771848188
5,23,Ticks_Phase_5,6,1,48,38,772331764
5,23,Ticks_Phase_5,7,5,42,127,772339132
5,23,Ticks_Phase_5,8,1,48,36,772833768
5,23,Ticks_Phase_5,9,5,42,127,772838748
5,23,Ticks_Phase_5,10,5,42,127,773338516
5,23,Ticks_Phase_5,11,1,48,44,773356524
5,23,Ticks_Phase_5,12,5,42,127,773839324
5,23,Ticks_Phase_5,13,1,48,45,773848592
5,23,Ticks_Phase_5,14,1,48,46,774316196
5,23,Ticks_Phase_5,15,5,42,127,774338784
5,23,Ticks_Phase_5,16,1,48,40,774825156
5,23,Ticks_Phase_5,17,5,42,127,774838596
5,23,Ticks_Phase_5,18,1,48,46,775334724
5,23,Ticks_Phase_5,19,5,42,127,775339404
5,23,Ticks_Phase_5,20,5,42,127,775839100
5,23,Ticks_Phase_5,21,1,48,42,775841692
5,23,Ticks_Phase_5,22,1,48,39,776337348
5,23,Ticks_Phase_5,23,5,42,127,776338784
5,23,Ticks_Phase_5,24,1,48,44,776833272
5,23,Ticks_Phase_5,25,5,42,127,776838472
5,23,Ticks_Phase_5,26,5,42,127,777339140
5,23,Ticks_Phase_5,27,1,48,46,777348108
5,23,Ticks_Phase_5,28,5,42,127,777838976
5,23,Ticks_Phase_5,29,1,48,40,777856480
5,23,Ticks_Phase_5,30,1,48,42,778338136
5,23,Ticks_Phase_5,31,5,42,127,778339556
5,23,Ticks_Phase_5,32,5,42,127,778839396
5,23,Ticks_Phase_5,33,1,48,35,778845128
5,23,Ticks_Phase_5,34,5,42,127,779339308
5,23,Ticks_Phase_5,35,1,48,43,779360028
5,23,Ticks_Phase_5,36,5,42,127,779838772
5,23,Ticks_Phase_5,37,1,48,43,779842412
5,23,Ticks_Phase_5,38,5,42,127,780338536
5,23,Ticks_Phase_5,39,1,48,39,780354980
5,23,Ticks_Phase_5,40,1,48,39,780815112
5,23,Ticks_Phase_5,41,5,42,127,780839264
5,23,Ticks_Phase_5,42,5,42,127,781339256
5,23,Ticks_Phase_5,43,1,48,43,781353384
5,23,Ticks_Phase_5,44,1,48,40,781806100
5,23,Ticks_Phase_5,45,5,42,127,781838640
5,23,Ticks_Phase_5,46,5,42,127,782338336
5,23,Ticks_Phase_5,47,1,48,36,782372156
5,23,Ticks_Phase_5,48,5,42,127,782839292
5,23,Ticks_Phase_5,49,1,48,42,782863152
5,23,Ticks_Phase_5,50,5,42,127,783339056
5,23,Ticks_Phase_5,51,1,48,43,783354824
5,23,Ticks_Phase_5,52,5,42,127,783838596
5,23,Ticks_Phase_5,53,1,48,43,783874660
5,23,Ticks_Phase_5,54,5,42,127,784339256
5,23,Ticks_Phase_5,55,1,48,40,784348144
5,23,Ticks_Phase_5,56,5,42,127,784828812
5,23,Ticks_Phase_5,57,1,48,46,784836140
5,23,Ticks_Phase_5,58,1,48,42,785308244
5,23,Ticks_Phase_5,59,5,42,127,785328492
5,23,Ticks_Phase_5,60,1,48,43,785820288
5,23,Ticks_Phase_5,61,5,42,127,785829304
5,23,Ticks_Phase_5,62,1,48,44,786317660
5,23,Ticks_Phase_5,63,5,42,127,786329212
5,23,Ticks_Phase_5,64,5,42,127,786828684
5,23,Ticks_Phase_5,65,1,48,43,786837652
5,23,Ticks_Phase_5,66,1,48,49,787311184
5,23,Ticks_Phase_5,67,5,42,127,787329336
5,23,Ticks_Phase_5,68,5,42,127,787829328
5,23,Ticks_Phase_5,69,1,48,46,787849152
5,23,Ticks_Phase_5,70,1,48,51,788327664
5,23,Ticks_Phase_5,71,5,42,127,788329308
5,23,Ticks_Phase_5,72,5,42,127,788828412
5,23,Ticks_Phase_5,73,1,48,36,788875104
5,23,Ticks_Phase_5,74,1,48,45,789323940
5,23,Ticks_Phase_5,75,5,42,127,789329212
5,23,Ticks_Phase_5,76,5,42,127,789829060
5,23,Ticks_Phase_5,77,1,48,44,789839296
5,23,Ticks_Phase_5,78,5,42,127,790328820
5,23,Ticks_Phase_5,79,1,48,46,790364364
5,23,Ticks_Phase_5,80,5,42,127,790829556
5,23,Ticks_Phase_5,81,1,48,41,790857544
5,23,Ticks_Phase_5,82,1,48,41,791310416
5,23,Ticks_Phase_5,83,5,42,127,791339272
5,23,Ticks_Phase_5,84,1,48,51,791834504
5,23,Ticks_Phase_5,85,5,42,127,791839260
5,23,Ticks_Phase_5,86,5,42,127,792338732
5,23,Ticks_Phase_5,87,1,48,46,792347620
5,23,Ticks_Phase_5,88,5,42,127,792838568
5,23,Ticks_Phase_5,89,1,48,46,792841316
5,23,Ticks_Phase_5,90,5,42,127,793339380
5,23,Ticks_Phase_5,91,1,48,40,793360100
5,23,Ticks_Phase_5,92,1,48,41,793847436
5,23,Ticks_Phase_5,93,5,42,127,793849100
5,23,Ticks_Phase_5,94,1,48,46,794316848
5,23,Ticks_Phase_5,95,5,42,127,794349084
5,23,Ticks_Phase_5,96,1,48,37,794828080
5,23,Ticks_Phase_5,97,5,42,127,794848548
5,23,Ticks_Phase_5,98,1,48,39,795335020
5,23,Ticks_Phase_5,99,5,42,127,795349356
5,23,Ticks_Phase_5,100,1,48,48,795830424
5,23,Ticks_Phase_5,101,5,42,127,795849120
5,23,Ticks_Phase_5,102,5,42,127,796348940
5,23,Ticks_Phase_5,103,1,48,44,796389056
5,23,Ticks_Phase_5,104,1,48,44,796837940
5,23,Ticks_Phase_5,105,5,42,127,796848372
5,23,Ticks_Phase_5,106,1,48,31,797315968
5,23,Ticks_Phase_5,107,5,42,127,797349256
5,23,Ticks_Phase_5,108,5,42,127,797849100
5,23,Ticks_Phase_5,109,1,48,49,797858812
5,23,Ticks_Phase_5,110,1,48,35,798332348
5,23,Ticks_Phase_5,111,5,42,127,798348556
5,23,Ticks_Phase_5,112,5,42,127,798849372
5,23,Ticks_Phase_5,113,1,48,43,798871592
5,23,Ticks_Phase_5,114,5,42,127,799349136
5,23,Ticks_Phase_5,115,1,48,37,799385420
5,23,Ticks_Phase_5,116,5,42,127,799848972
5,23,Ticks_Phase_5,117,1,48,51,799852840
5,23,Ticks_Phase_5,118,5,42,127,800348660
5,23,Ticks_Phase_5,119,1,48,39,800372448
5,23,Ticks_Phase_5,120,5,42,127,800849396
5,23,Ticks_Phase_5,121,1,48,44,800857688
5,23,Ticks_Phase_5,122,5,42,127,801349008
5,23,Ticks_Phase_5,123,1,48,41,801385220
5,23,Ticks_Phase_5,124,5,42,127,801869216
5,23,Ticks_Phase_5,125,1,48,46,801889340
5,23,Ticks_Phase_5,126,1,48,35,802341984
5,23,Ticks_Phase_5,127,5,42,127,802369120
5,23,Ticks_Phase_5,128,1,48,45,802866932
5,23,Ticks_Phase_5,129,5,42,127,802868440
5,23,Ticks_Phase_5,130,5,42,127,803369328
5,23,Ticks_Phase_5,131,1,48,43,803374764
5,23,Ticks_Phase_5,132,5,42,127,803869020
5,23,Ticks_Phase_5,133,1,48,53,803883816
5,23,Ticks_Phase_5,134,5,42,127,804369008
5,23,Ticks_Phase_5,135,1,48,46,804391004
5,23,Ticks_Phase_5,136,1,48,44,804857652
5,23,Ticks_Phase_5,137,5,42,127,804868392
5,23,Ticks_Phase_5,138,1,48,44,805369060
5,23,Ticks_Phase_5,139,5,42,127,805370544
5,23,Ticks_Phase_5,140,5,42,127,805869044
5,23,Ticks_Phase_5,141,1,48,54,805888200
5,23,Ticks_Phase_5,142,5,42,127,806368512
5,23,Ticks_Phase_5,143,1,48,41,806378072
5,23,Ticks_Phase_5,144,1,48,42,806860300
5,23,Ticks_Phase_5,145,5,42,127,806869312
5,23,Ticks_Phase_5,146,1,48,40,807345352
5,23,Ticks_Phase_5,147,5,42,127,807369000
5,23,Ticks_Phase_5,148,1,48,54,807849168
5,23,Ticks_Phase_5,149,5,42,127,807869060
5,23,Ticks_Phase_5,150,5,42,127,808368436
5,23,Ticks_Phase_5,151,1,48,39,808377924
5,23,Ticks_Phase_5,152,1,48,43,808811092
5,23,Ticks_Phase_5,153,5,42,127,808869236
5,23,Ticks_Phase_5,154,5,42,127,809368932
5,23,Ticks_Phase_5,155,1,48,40,809387264
5,23,Ticks_Phase_5,156,5,42,127,809868920
5,23,Ticks_Phase_5,157,1,48,56,809915240
5,23,Ticks_Phase_5,158,5,42,127,810348988
5,23,Ticks_Phase_5,159,1,48,41,810382808
5,23,Ticks_Phase_5,160,5,42,127,810848824
5,23,Ticks_Phase_5,161,1,48,44,810874180
5,23,Ticks_Phase_5,162,5,42,127,811349336
5,23,Ticks_Phase_5,163,1,48,46,811357480
5,23,Ticks_Phase_5,164,5,42,127,811848952
5,23,Ticks_Phase_5,165,1,48,54,811855580
5,23,Ticks_Phase_5,166,5,42,127,812348936
5,23,Ticks_Phase_5,167,1,48,46,812357452
5,23,Ticks_Phase_5,168,5,42,127,812848476
5,23,Ticks_Phase_5,169,1,48,46,812871512
5,23,Ticks_Phase_5,170,5,42,127,813349136
5,23,Ticks_Phase_5,171,1,48,47,813350104
5,23,Ticks_Phase_5,172,5,42,127,813848900
5,23,Ticks_Phase_5,173,1,48,55,813858612
5,23,Ticks_Phase_5,174,5,42,127,814348736
5,23,Ticks_Phase_5,175,1,48,42,814350072
5,23,Ticks_Phase_5,176,5,42,127,814849248
5,23,Ticks_Phase_5,177,1,48,44,814862848
5,23,Ticks_Phase_5,178,1,48,46,815345592
5,23,Ticks_Phase_5,179,5,42,127,815349152
5,23,Ticks_Phase_5,180,5,42,127,815848772
5,23,Ticks_Phase_5,181,1,48,55,815854208
5,23,Ticks_Phase_5,182,1,48,44,816324976
5,23,Ticks_Phase_5,183,5,42,127,816348676
5,23,Ticks_Phase_5,184,5,42,127,816849272
5,23,Ticks_Phase_5,185,1,48,42,816874252
5,23,Ticks_Phase_5,186,1,48,49,817334516
5,23,Ticks_Phase_5,187,5,42,127,817349100
5,23,Ticks_Phase_5,188,5,42,127,817848772
5,23,Ticks_Phase_5,189,1,48,54,817881128
5,23,Ticks_Phase_5,190,5,42,127,818299260
5,23,Ticks_Phase_5,191,1,48,47,818342588
5,23,Ticks_Phase_5,192,5,42,127,818799096
5,23,Ticks_Phase_5,193,1,48,42,818816972
5,23,Ticks_Phase_5,194,1,48,44,819269696
5,23,Ticks_Phase_5,195,5,42,127,819298628
5,23,Ticks_Phase_5,196,5,42,127,819799296
5,23,Ticks_Phase_5,197,1,48,52,819824728
5,23,Ticks_Phase_5,198,1,48,48,820287044
5,23,Ticks_Phase_5,199,5,42,127,820299052
5,23,Ticks_Phase_5,200,1,48,50,820790476
5,23,Ticks_Phase_5,201,5,42,127,820798816
5,23,Ticks_Phase_5,202,1,48,48,821280052
5,23,Ticks_Phase_5,203,5,42,127,821298728
5,23,Ticks_Phase_5,204,5,42,127,821799244
5,23,Ticks_Phase_5,205,1,48,49,821804756
5,23,Ticks_Phase_5,206,1,48,41,822286228
5,23,Ticks_Phase_5,207,5,42,127,822299000
5,23,Ticks_Phase_5,208,1,48,43,822775212
5,23,Ticks_Phase_5,209,5,42,127,822798764
5,23,Ticks_Phase_5,210,1,48,49,823264496
5,23,Ticks_Phase_5,211,5,42,127,823298452
5,23,Ticks_Phase_5,212,1,48,56,823787708
5,23,Ticks_Phase_5,213,5,42,127,823799116
5,23,Ticks_Phase_5,214,1,48,38,823824228
5,23,Ticks_Phase_5,215,1,48,42,824265268
5,23,Ticks_Phase_5,216,5,42,127,824298932
5,23,Ticks_Phase_5,217,1,48,47,824788852
5,23,Ticks_Phase_5,218,5,42,127,824798692
5,23,Ticks_Phase_5,219,5,42,127,825299284
5,23,Ticks_Phase_5,220,1,48,46,825301952
5,23,Ticks_Phase_5,221,5,42,127,825798972
5,23,Ticks_Phase_5,222,1,48,53,825823436
5,23,Ticks_Phase_5,223,1,48,43,826296968
5,23,Ticks_Phase_5,224,5,42,127,826298704
5,23,Ticks_Phase_5,225,1,48,49,826763612
5,23,Ticks_Phase_5,226,5,42,127,826848816
5,23,Ticks_Phase_5,227,1,48,42,827311232
5,23,Ticks_Phase_5,228,5,42,127,827349328
5,23,Ticks_Phase_5,229,1,48,55,827843744
5,23,Ticks_Phase_5,230,5,42,127,827849016
5,23,Ticks_Phase_5,231,1,48,41,828322584
5,23,Ticks_Phase_5,232,5,42,127,828348856
5,23,Ticks_Phase_5,233,1,48,42,828833280
5,23,Ticks_Phase_5,234,5,42,127,828848740
5,23,Ticks_Phase_5,235,1,48,47,829345320
5,23,Ticks_Phase_5,236,5,42,127,829349104
5,23,Ticks_Phase_5,237,5,42,127,829848876
5,23,Ticks_Phase_5,238,1,48,59,829854532
5,23,Ticks_Phase_5,239,1,48,39,830343504
5,23,Ticks_Phase_5,240,5,42,127,830348852
5,23,Ticks_Phase_5,241,5,42,127,830849596
5,23,Ticks_Phase_5,242,1,48,39,830870916
5,23,Ticks_Phase_5,243,5,42,127,831349060
5,23,Ticks_Phase_5,244,1,48,40,831350100
5,23,Ticks_Phase_5,245,5,42,127,831848748
5,23,Ticks_Phase_5,246,1,48,49,831875820
5,23,Ticks_Phase_5,247,5,42,127,832348808
5,23,Ticks_Phase_5,248,1,48,40,832355140
5,23,Ticks_Phase_5,249,1,48,45,832841944
5,23,Ticks_Phase_5,250,5,42,127,832849236
5,23,Ticks_Phase_5,251,1,48,37,833335256
5,23,Ticks_Phase_5,252,5,42,127,833349000
5,23,Ticks_Phase_5,253,1,48,51,833836756
5,23,Ticks_Phase_5,254,5,42,127,833848840
5,23,Ticks_Phase_5,255,5,42,127,834349432
5,23,Ticks_Phase_5,256,1,48,44,834355088
5,23,Ticks_Phase_5,257,1,48,39,834855516
5,23,Ticks_Phase_5,258,5,42,127,834859448
5,23,Ticks_Phase_5,259,1,48,48,835340684
5,23,Ticks_Phase_5,260,5,42,127,835458572
5,23,Ticks_Phase_5,261,1,48,44,835882680
5,23,Ticks_Phase_5,262,5,42,127,835959100
5,23,Ticks_Phase_5,263,5,42,127,836458796
5,23,Ticks_Phase_5,264,1,48,21,836521224
5,23,Ticks_Phase_5,265,5,42,127,836958556
5,23,Ticks_Phase_5,266,1,48,42,836969544
5,23,Ticks_Phase_5,267,5,42,127,837459440
5,23,Ticks_Phase_5,268,1,48,43,837483824
5,23,Ticks_Phase_5,269,5,42,127,837958980
5,23,Ticks_Phase_5,270,1,48,48,837981420
5,23,Ticks_Phase_5,271,1,48,44,838454200
5,23,Ticks_Phase_5,272,5,42,127,838458880
5,23,Ticks_Phase_5,273,5,42,127,838958576
5,23,Ticks_Phase_5,274,1,48,44,838975620
5,23,Ticks_Phase_5,275,1,48,46,839429772
5,23,Ticks_Phase_5,276,5,42,127,839459084
5,23,Ticks_Phase_5,277,1,48,44,839958704
5,23,Ticks_Phase_5,278,5,42,127,839959968
5,23,Ticks_Phase_5,279,1,48,47,840447128
5,23,Ticks_Phase_5,280,5,42,127,840458460
5,23,Ticks_Phase_5,281,5,42,127,840959348
5,23,Ticks_Phase_5,282,1,48,42,840977376
5,23,Ticks_Phase_5,283,1,48,37,841456844
5,23,Ticks_Phase_5,284,5,42,127,841458956
5,23,Ticks_Phase_5,285,5,42,127,841958876
5,23,Ticks_Phase_5,286,1,48,42,841959840
5,23,Ticks_Phase_5,287,1,48,44,842445864
5,23,Ticks_Phase_5,288,5,42,127,842458480
5,23,Ticks_Phase_5,289,5,42,127,842959148
5,23,Ticks_Phase_5,290,1,48,44,842968712
5,23,Ticks_Phase_5,291,1,48,41,843457704
5,23,Ticks_Phase_5,292,5,42,127,843459128
5,23,Ticks_Phase_5,293,5,42,127,843958576
5,23,Ticks_Phase_5,294,1,48,44,843965608
5,23,Ticks_Phase_5,295,5,42,127,844459608
5,23,Ticks_Phase_5,296,1,48,40,844473284
5,23,Ticks_Phase_5,297,5,42,127,844858728
5,23,Ticks_Phase_5,298,1,48,44,844966676
5,23,Ticks_Phase_5,299,5,42,127,845358712
5,23,Ticks_Phase_5,300,1,48,23,845462104
5,23,Ticks_Phase_5,301,5,42,127,845859152
5,23,Ticks_Phase_5,302,1,48,30,845891548
5,23,Ticks_Phase_5,303,1,48,43,846341872
5,23,Ticks_Phase_5,304,5,42,127,846358756
5,23,Ticks_Phase_5,305,5,42,127,846858824
5,23,Ticks_Phase_5,306,1,48,46,846864712
5,23,Ticks_Phase_5,307,5,42,127,847359484
5,23,Ticks_Phase_5,308,1,48,43,847382672
5,23,Ticks_Phase_5,309,1,48,44,847857204
5,23,Ticks_Phase_5,310,5,42,127,847859016
5,23,Ticks_Phase_5,311,5,42,127,848358712
5,23,Ticks_Phase_5,312,1,48,42,848371488
5,23,Ticks_Phase_5,313,5,42,127,848858548
5,23,Ticks_Phase_5,314,1,48,45,848877172
5,23,Ticks_Phase_5,315,5,42,127,849359208
5,23,Ticks_Phase_5,316,1,48,42,849360172
5,23,Ticks_Phase_5,317,5,42,127,849858896
5,23,Ticks_Phase_5,318,1,48,42,849877060
5,23,Ticks_Phase_5,319,5,42,127,850358560
5,23,Ticks_Phase_5,320,1,48,42,850361380
5,23,Ticks_Phase_5,321,5,42,127,850859516
5,23,Ticks_Phase_5,322,1,48,43,850879668
5,23,Ticks_Phase_5,323,1,48,38,851349736
5,23,Ticks_Phase_5,324,5,42,127,851358976
5,23,Ticks_Phase_5,325,5,42,127,851858744
5,23,Ticks_Phase_5,326,1,48,38,851861716
5,23,Ticks_Phase_5,327,1,48,40,852354572
5,23,Ticks_Phase_5,328,5,42,127,852358504
5,23,Ticks_Phase_5,329,1,48,42,852836600
5,23,Ticks_Phase_5,330,5,42,127,852859384
5,23,Ticks_Phase_5,331,1,48,41,853343464
5,23,Ticks_Phase_5,332,5,42,127,853358924
5,23,Ticks_Phase_5,333,5,42,127,853858548
5,23,Ticks_Phase_5,334,1,48,38,853865776
5,23,Ticks_Phase_5,335,5,42,127,854359580
5,23,Ticks_Phase_5,0,9999,9999,9999,9999,769836156
5,23,Ticks_Phase_5,1,9999,9999,9999,9999,770336836
5,23,Ticks_Phase_5,2,9999,9999,9999,9999,770836548
5,23,Ticks_Phase_5,3,9999,9999,9999,9999,771336256
5,23,Ticks_Phase_5,4,9999,9999,9999,9999,771837016
5,23,Ticks_Phase_5,5,9999,9999,9999,9999,772336696
5,23,Ticks_Phase_5,6,9999,9999,9999,9999,772836460
5,23,Ticks_Phase_5,7,9999,9999,9999,9999,773336156
5,23,Ticks_Phase_5,8,9999,9999,9999,9999,773836888
5,23,Ticks_Phase_5,9,9999,9999,9999,9999,774336572
5,23,Ticks_Phase_5,10,9999,9999,9999,9999,774836308
5,23,Ticks_Phase_5,11,9999,9999,9999,9999,775337044
5,23,Ticks_Phase_5,12,9999,9999,9999,9999,775836740
5,23,Ticks_Phase_5,13,9999,9999,9999,9999,776336504
5,23,Ticks_Phase_5,14,9999,9999,9999,9999,776836184
5,23,Ticks_Phase_5,15,9999,9999,9999,9999,777336928
5,23,Ticks_Phase_5,16,9999,9999,9999,9999,777836616
5,23,Ticks_Phase_5,17,9999,9999,9999,9999,778336376
5,23,Ticks_Phase_5,18,9999,9999,9999,9999,778837112
5,23,Ticks_Phase_5,19,9999,9999,9999,9999,779336800
5,23,Ticks_Phase_5,20,9999,9999,9999,9999,779836488
5,23,Ticks_Phase_5,21,9999,9999,9999,9999,780336252
5,23,Ticks_Phase_5,22,9999,9999,9999,9999,780836976
5,23,Ticks_Phase_5,23,9999,9999,9999,9999,781336672
5,23,Ticks_Phase_5,24,9999,9999,9999,9999,781836356
5,23,Ticks_Phase_5,25,9999,9999,9999,9999,782336124
5,23,Ticks_Phase_5,26,9999,9999,9999,9999,782836856
5,23,Ticks_Phase_5,27,9999,9999,9999,9999,783336548
5,23,Ticks_Phase_5,28,9999,9999,9999,9999,783836236
5,23,Ticks_Phase_5,29,9999,9999,9999,9999,784336968
5,23,Ticks_Phase_5,30,9999,9999,9999,9999,784826448
5,23,Ticks_Phase_5,31,9999,9999,9999,9999,785326204
5,23,Ticks_Phase_5,32,9999,9999,9999,9999,785826940
5,23,Ticks_Phase_5,33,9999,9999,9999,9999,786326628
5,23,Ticks_Phase_5,34,9999,9999,9999,9999,786826324
5,23,Ticks_Phase_5,35,9999,9999,9999,9999,787327052
5,23,Ticks_Phase_5,36,9999,9999,9999,9999,787826744
5,23,Ticks_Phase_5,37,9999,9999,9999,9999,788326508
5,23,Ticks_Phase_5,38,9999,9999,9999,9999,788826200
5,23,Ticks_Phase_5,39,9999,9999,9999,9999,789326928
5,23,Ticks_Phase_5,40,9999,9999,9999,9999,789826624
5,23,Ticks_Phase_5,41,9999,9999,9999,9999,790326384
5,23,Ticks_Phase_5,42,9999,9999,9999,9999,790827120
5,23,Ticks_Phase_5,43,9999,9999,9999,9999,791337060
5,23,Ticks_Phase_5,44,9999,9999,9999,9999,791836748
5,23,Ticks_Phase_5,45,9999,9999,9999,9999,792336444
5,23,Ticks_Phase_5,46,9999,9999,9999,9999,792836208
5,23,Ticks_Phase_5,47,9999,9999,9999,9999,793336944
5,23,Ticks_Phase_5,48,9999,9999,9999,9999,793846912
5,23,Ticks_Phase_5,49,9999,9999,9999,9999,794346576
5,23,Ticks_Phase_5,50,9999,9999,9999,9999,794846336
5,23,Ticks_Phase_5,51,9999,9999,9999,9999,795347072
5,23,Ticks_Phase_5,52,9999,9999,9999,9999,795846760
5,23,Ticks_Phase_5,53,9999,9999,9999,9999,796346428
5,23,Ticks_Phase_5,54,9999,9999,9999,9999,796846160
5,23,Ticks_Phase_5,55,9999,9999,9999,9999,797346896
5,23,Ticks_Phase_5,56,9999,9999,9999,9999,797846588
5,23,Ticks_Phase_5,57,9999,9999,9999,9999,798346344
5,23,Ticks_Phase_5,58,9999,9999,9999,9999,798847088
5,23,Ticks_Phase_5,59,9999,9999,9999,9999,799346772
5,23,Ticks_Phase_5,60,9999,9999,9999,9999,799846464
5,23,Ticks_Phase_5,61,9999,9999,9999,9999,800346224
5,23,Ticks_Phase_5,62,9999,9999,9999,9999,800846960
5,23,Ticks_Phase_5,63,9999,9999,9999,9999,801346648
5,23,Ticks_Phase_5,64,9999,9999,9999,9999,801866856
5,23,Ticks_Phase_5,65,9999,9999,9999,9999,802366536
5,23,Ticks_Phase_5,66,9999,9999,9999,9999,802866240
5,23,Ticks_Phase_5,67,9999,9999,9999,9999,803366968
5,23,Ticks_Phase_5,68,9999,9999,9999,9999,803866732
5,23,Ticks_Phase_5,69,9999,9999,9999,9999,804366424
5,23,Ticks_Phase_5,70,9999,9999,9999,9999,804866104
5,23,Ticks_Phase_5,71,9999,9999,9999,9999,805366844
5,23,Ticks_Phase_5,72,9999,9999,9999,9999,805866608
5,23,Ticks_Phase_5,73,9999,9999,9999,9999,806366300
5,23,Ticks_Phase_5,74,9999,9999,9999,9999,806867028
5,23,Ticks_Phase_5,75,9999,9999,9999,9999,807366716
5,23,Ticks_Phase_5,76,9999,9999,9999,9999,807866452
5,23,Ticks_Phase_5,77,9999,9999,9999,9999,808366148
5,23,Ticks_Phase_5,78,9999,9999,9999,9999,808866876
5,23,Ticks_Phase_5,79,9999,9999,9999,9999,809366644
5,23,Ticks_Phase_5,80,9999,9999,9999,9999,809866336
5,23,Ticks_Phase_5,81,9999,9999,9999,9999,810346624
5,23,Ticks_Phase_5,82,9999,9999,9999,9999,810846316
5,23,Ticks_Phase_5,83,9999,9999,9999,9999,811347048
5,23,Ticks_Phase_5,84,9999,9999,9999,9999,811846736
5,23,Ticks_Phase_5,85,9999,9999,9999,9999,812346428
5,23,Ticks_Phase_5,86,9999,9999,9999,9999,812846188
5,23,Ticks_Phase_5,87,9999,9999,9999,9999,813346924
5,23,Ticks_Phase_5,88,9999,9999,9999,9999,813846612
5,23,Ticks_Phase_5,89,9999,9999,9999,9999,814346300
5,23,Ticks_Phase_5,90,9999,9999,9999,9999,814847036
5,23,Ticks_Phase_5,91,9999,9999,9999,9999,815346792
5,23,Ticks_Phase_5,92,9999,9999,9999,9999,815846484
5,23,Ticks_Phase_5,93,9999,9999,9999,9999,816346168
5,23,Ticks_Phase_5,94,9999,9999,9999,9999,816846908
5,23,Ticks_Phase_5,95,9999,9999,9999,9999,817346668
5,23,Ticks_Phase_5,96,9999,9999,9999,9999,817846336
5,23,Ticks_Phase_5,97,9999,9999,9999,9999,818296896
5,23,Ticks_Phase_5,98,9999,9999,9999,9999,818796660
5,23,Ticks_Phase_5,99,9999,9999,9999,9999,819296340
5,23,Ticks_Phase_5,100,9999,9999,9999,9999,819797084
5,23,Ticks_Phase_5,101,9999,9999,9999,9999,820296764
5,23,Ticks_Phase_5,102,9999,9999,9999,9999,820796528
5,23,Ticks_Phase_5,103,9999,9999,9999,9999,821296216
5,23,Ticks_Phase_5,104,9999,9999,9999,9999,821796956
5,23,Ticks_Phase_5,105,9999,9999,9999,9999,822296640
5,23,Ticks_Phase_5,106,9999,9999,9999,9999,822796404
5,23,Ticks_Phase_5,107,9999,9999,9999,9999,823296092
5,23,Ticks_Phase_5,108,9999,9999,9999,9999,823796828
5,23,Ticks_Phase_5,109,9999,9999,9999,9999,824296572
5,23,Ticks_Phase_5,110,9999,9999,9999,9999,824796256
5,23,Ticks_Phase_5,111,9999,9999,9999,9999,825297000
5,23,Ticks_Phase_5,112,9999,9999,9999,9999,825796688
5,23,Ticks_Phase_5,113,9999,9999,9999,9999,826296444
5,23,Ticks_Phase_5,114,9999,9999,9999,9999,826846304
5,23,Ticks_Phase_5,115,9999,9999,9999,9999,827347040
5,23,Ticks_Phase_5,116,9999,9999,9999,9999,827846732
5,23,Ticks_Phase_5,117,9999,9999,9999,9999,828346468
5,23,Ticks_Phase_5,118,9999,9999,9999,9999,828846156
5,23,Ticks_Phase_5,119,9999,9999,9999,9999,829346892
5,23,Ticks_Phase_5,120,9999,9999,9999,9999,829846588
5,23,Ticks_Phase_5,121,9999,9999,9999,9999,830346344
5,23,Ticks_Phase_5,122,9999,9999,9999,9999,830847084
5,23,Ticks_Phase_5,123,9999,9999,9999,9999,831346772
5,23,Ticks_Phase_5,124,9999,9999,9999,9999,831846460
5,23,Ticks_Phase_5,125,9999,9999,9999,9999,832346224
5,23,Ticks_Phase_5,126,9999,9999,9999,9999,832846948
5,23,Ticks_Phase_5,127,9999,9999,9999,9999,833346640
5,23,Ticks_Phase_5,128,9999,9999,9999,9999,833846328
5,23,Ticks_Phase_5,129,9999,9999,9999,9999,834347068
5,23,Ticks_Phase_5,130,9999,9999,9999,9999,834857084
5,23,Ticks_Phase_5,131,9999,9999,9999,9999,835456060
5,23,Ticks_Phase_5,132,9999,9999,9999,9999,835956812
5,23,Ticks_Phase_5,133,9999,9999,9999,9999,836456508
5,23,Ticks_Phase_5,134,9999,9999,9999,9999,836956268
5,23,Ticks_Phase_5,135,9999,9999,9999,9999,837457004
5,23,Ticks_Phase_5,136,9999,9999,9999,9999,837956692
5,23,Ticks_Phase_5,137,9999,9999,9999,9999,838456448
5,23,Ticks_Phase_5,138,9999,9999,9999,9999,838956140
5,23,Ticks_Phase_5,139,9999,9999,9999,9999,839456872
5,23,Ticks_Phase_5,140,9999,9999,9999,9999,839956564
5,23,Ticks_Phase_5,141,9999,9999,9999,9999,840456248
5,23,Ticks_Phase_5,142,9999,9999,9999,9999,840956988
5,23,Ticks_Phase_5,143,9999,9999,9999,9999,841456708
5,23,Ticks_Phase_5,144,9999,9999,9999,9999,841956440
5,23,Ticks_Phase_5,145,9999,9999,9999,9999,842456120
5,23,Ticks_Phase_5,146,9999,9999,9999,9999,842956860
5,23,Ticks_Phase_5,147,9999,9999,9999,9999,843456624
5,23,Ticks_Phase_5,148,9999,9999,9999,9999,843956288
5,23,Ticks_Phase_5,149,9999,9999,9999,9999,844457024
5,23,Ticks_Phase_5,150,9999,9999,9999,9999,844856440
5,23,Ticks_Phase_5,151,9999,9999,9999,9999,845356128
5,23,Ticks_Phase_5,152,9999,9999,9999,9999,845856864
5,23,Ticks_Phase_5,153,9999,9999,9999,9999,846356544
5,23,Ticks_Phase_5,154,9999,9999,9999,9999,846856312
5,23,Ticks_Phase_5,155,9999,9999,9999,9999,847357048
5,23,Ticks_Phase_5,156,9999,9999,9999,9999,847856752
5,23,Ticks_Phase_5,157,9999,9999,9999,9999,848356424
5,23,Ticks_Phase_5,158,9999,9999,9999,9999,848856188
5,23,Ticks_Phase_5,159,9999,9999,9999,9999,849356920
5,23,Ticks_Phase_5,160,9999,9999,9999,9999,849856608
5,23,Ticks_Phase_5,161,9999,9999,9999,9999,850356348
5,23,Ticks_Phase_5,162,9999,9999,9999,9999,850857080
5,23,Ticks_Phase_5,163,9999,9999,9999,9999,851356764
5,23,Ticks_Phase_5,164,9999,9999,9999,9999,851856460
5,23,Ticks_Phase_5,165,9999,9999,9999,9999,852356216
5,23,Ticks_Phase_5,166,9999,9999,9999,9999,852856948
5,23,Ticks_Phase_5,167,9999,9999,9999,9999,853356640
5,23,Ticks_Phase_5,168,9999,9999,9999,9999,853856332
5,23,Ticks_Phase_5,169,9999,9999,9999,9999,854357068
6,22,Ticks_Phase_8,0,5,42,127,864445776
6,22,Ticks_Phase_8,1,5,42,127,865245512
6,22,Ticks_Phase_8,2,5,42,127,866046440
6,22,Ticks_Phase_8,3,1,48,51,866083704
6,22,Ticks_Phase_8,4,5,42,127,866846228
6,22,Ticks_Phase_8,5,1,48,50,866860876
6,22,Ticks_Phase_8,6,5,42,127,867645716
6,22,Ticks_Phase_8,7,1,48,50,867681108
6,22,Ticks_Phase_8,8,5,42,127,868445576
6,22,Ticks_Phase_8,9,1,48,51,868456716
6,22,Ticks_Phase_8,10,5,42,127,869246260
6,22,Ticks_Phase_8,11,1,48,43,869289520
6,22,Ticks_Phase_8,12,5,42,127,870046268
6,22,Ticks_Phase_8,13,1,48,47,870079072
6,22,Ticks_Phase_8,14,5,42,127,870845784
6,22,Ticks_Phase_8,15,1,48,44,870912996
6,22,Ticks_Phase_8,16,5,42,127,871645496
6,22,Ticks_Phase_8,17,1,48,47,871672124
6,22,Ticks_Phase_8,18,5,42,127,872446252
6,22,Ticks_Phase_8,19,1,48,48,872490260
6,22,Ticks_Phase_8,20,5,42,127,873246188
6,22,Ticks_Phase_8,21,1,48,46,873299780
6,22,Ticks_Phase_8,22,5,42,127,874045748
6,22,Ticks_Phase_8,23,1,48,39,874102036
6,22,Ticks_Phase_8,24,5,42,127,874845460
6,22,Ticks_Phase_8,25,1,48,47,874879432
6,22,Ticks_Phase_8,26,5,42,127,875646292
6,22,Ticks_Phase_8,27,1,48,49,875670304
6,22,Ticks_Phase_8,28,5,42,127,876446152
6,22,Ticks_Phase_8,29,1,48,50,876463732
6,22,Ticks_Phase_8,30,5,42,127,877245892
6,22,Ticks_Phase_8,31,1,48,54,877264292
6,22,Ticks_Phase_8,32,1,48,52,878044848
6,22,Ticks_Phase_8,33,5,42,127,878046424
6,22,Ticks_Phase_8,34,5,42,127,878846288
6,22,Ticks_Phase_8,35,1,48,48,878856748
6,22,Ticks_Phase_8,36,5,42,127,879646072
6,22,Ticks_Phase_8,37,1,48,49,879655412
6,22,Ticks_Phase_8,38,5,42,127,880445712
6,22,Ticks_Phase_8,39,1,48,49,880460284
6,22,Ticks_Phase_8,40,5,42,127,881245496
6,22,Ticks_Phase_8,41,1,48,51,881267564
6,22,Ticks_Phase_8,42,5,42,127,882046404
6,22,Ticks_Phase_8,43,1,48,50,882074096
6,22,Ticks_Phase_8,44,5,42,127,882846264
6,22,Ticks_Phase_8,45,1,48,50,882885960
6,22,Ticks_Phase_8,46,5,42,127,883645852
6,22,Ticks_Phase_8,47,1,48,50,883669192
6,22,Ticks_Phase_8,48,5,42,127,884445412
6,22,Ticks_Phase_8,49,1,48,52,884459092
6,22,Ticks_Phase_8,50,5,42,127,885246248
6,22,Ticks_Phase_8,51,1,48,50,885286364
6,22,Ticks_Phase_8,52,5,42,127,886046108
6,22,Ticks_Phase_8,53,1,48,49,886099180
6,22,Ticks_Phase_8,54,5,42,127,886845672
6,22,Ticks_Phase_8,55,1,48,50,886877776
6,22,Ticks_Phase_8,56,1,48,50,887642128
6,22,Ticks_Phase_8,57,5,42,127,887645528
6,22,Ticks_Phase_8,58,5,42,127,888425780
6,22,Ticks_Phase_8,59,1,48,54,888487240
6,22,Ticks_Phase_8,60,1,48,41,889207932
6,22,Ticks_Phase_8,61,5,42,127,889225632
6,22,Ticks_Phase_8,62,1,48,44,889998356
6,22,Ticks_Phase_8,63,5,42,127,890026240
6,22,Ticks_Phase_8,64,1,48,51,890774780
6,22,Ticks_Phase_8,65,5,42,127,890826348
6,22,Ticks_Phase_8,66,1,48,53,891591356
6,22,Ticks_Phase_8,67,5,42,127,891626136
6,22,Ticks_Phase_8,68,5,42,127,892425556
6,22,Ticks_Phase_8,69,1,48,55,892443496
6,22,Ticks_Phase_8,70,1,48,52,893190104
6,22,Ticks_Phase_8,71,5,42,127,893226384
6,22,Ticks_Phase_8,72,1,48,51,894014988
6,22,Ticks_Phase_8,73,5,42,127,894026168
6,22,Ticks_Phase_8,74,1,48,53,894813728
6,22,Ticks_Phase_8,75,5,42,127,894826104
6,22,Ticks_Phase_8,76,1,48,53,895594488
6,22,Ticks_Phase_8,77,5,42,127,895625444
6,22,Ticks_Phase_8,78,1,48,54,896383704
6,22,Ticks_Phase_8,79,5,42,127,896426276
6,22,Ticks_Phase_8,80,1,48,52,897201396
6,22,Ticks_Phase_8,81,5,42,127,897226236
6,22,Ticks_Phase_8,82,5,42,127,898026028
6,22,Ticks_Phase_8,83,1,48,52,898041280
6,22,Ticks_Phase_8,84,1,48,54,898821956
6,22,Ticks_Phase_8,85,5,42,127,898825660
6,22,Ticks_Phase_8,86,1,48,55,899615312
6,22,Ticks_Phase_8,87,5,42,127,899626492
6,22,Ticks_Phase_8,88,1,48,50,900409176
6,22,Ticks_Phase_8,89,5,42,127,900426056
6,22,Ticks_Phase_8,90,1,48,56,901199004
6,22,Ticks_Phase_8,91,5,42,127,901225840
6,22,Ticks_Phase_8,92,1,48,50,902018784
6,22,Ticks_Phase_8,93,5,42,127,902025704
6,22,Ticks_Phase_8,94,5,42,127,902845964
6,22,Ticks_Phase_8,95,1,48,55,902857548
6,22,Ticks_Phase_8,96,5,42,127,903645456
6,22,Ticks_Phase_8,97,1,48,49,903685496
6,22,Ticks_Phase_8,98,5,42,127,904446360
6,22,Ticks_Phase_8,99,1,48,54,904463940
6,22,Ticks_Phase_8,100,5,42,127,905246148
6,22,Ticks_Phase_8,101,1,48,48,905289784
6,22,Ticks_Phase_8,102,5,42,127,906045936
6,22,Ticks_Phase_8,103,1,48,50,906069200
6,22,Ticks_Phase_8,104,1,48,55,906837748
6,22,Ticks_Phase_8,105,5,42,127,906845492
6,22,Ticks_Phase_8,106,1,48,55,907644136
6,22,Ticks_Phase_8,107,5,42,127,907646252
6,22,Ticks_Phase_8,108,1,48,48,908435080
6,22,Ticks_Phase_8,109,5,42,127,908445964
6,22,Ticks_Phase_8,110,1,48,53,909244724
6,22,Ticks_Phase_8,111,5,42,127,909246072
6,22,Ticks_Phase_8,112,5,42,127,910045568
6,22,Ticks_Phase_8,113,1,48,62,910057604
6,22,Ticks_Phase_8,114,5,42,127,910846328
6,22,Ticks_Phase_8,115,1,48,46,910877084
6,22,Ticks_Phase_8,116,5,42,127,911645964
6,22,Ticks_Phase_8,117,1,48,54,911684812
6,22,Ticks_Phase_8,118,5,42,127,912445824
6,22,Ticks_Phase_8,119,1,48,58,912516348
6,22,Ticks_Phase_8,120,5,42,127,913245684
6,22,Ticks_Phase_8,121,1,48,55,913300700
6,22,Ticks_Phase_8,122,5,42,127,914046368
6,22,Ticks_Phase_8,123,1,48,55,914090004
6,22,Ticks_Phase_8,124,1,48,35,914133880
6,22,Ticks_Phase_8,125,1,48,56,914828272
6,22,Ticks_Phase_8,126,5,42,127,914846128
6,22,Ticks_Phase_8,127,1,48,54,915611884
6,22,Ticks_Phase_8,128,5,42,127,915685928
6,22,Ticks_Phase_8,129,1,48,53,916462316
6,22,Ticks_Phase_8,130,5,42,127,916485416
6,22,Ticks_Phase_8,131,1,48,45,917234708
6,22,Ticks_Phase_8,132,5,42,127,917286400
6,22,Ticks_Phase_8,133,1,48,49,918034040
6,22,Ticks_Phase_8,134,5,42,127,918085964
6,22,Ticks_Phase_8,135,1,48,57,918836596
6,22,Ticks_Phase_8,136,5,42,127,918885824
6,22,Ticks_Phase_8,137,1,48,50,919630832
6,22,Ticks_Phase_8,138,5,42,127,919685832
6,22,Ticks_Phase_8,139,1,48,49,920425760
6,22,Ticks_Phase_8,140,5,42,127,920486292
6,22,Ticks_Phase_8,141,1,48,58,921276572
6,22,Ticks_Phase_8,142,5,42,127,921285880
6,22,Ticks_Phase_8,143,5,42,127,922085676
6,22,Ticks_Phase_8,144,1,48,57,922175740
6,22,Ticks_Phase_8,145,5,42,127,922885608
6,22,Ticks_Phase_8,146,1,48,53,922910892
6,22,Ticks_Phase_8,147,5,42,127,923686220
6,22,Ticks_Phase_8,148,1,48,58,923694884
6,22,Ticks_Phase_8,149,1,48,42,923727660
6,22,Ticks_Phase_8,150,5,42,127,924486056
6,22,Ticks_Phase_8,151,1,48,51,924491272
6,22,Ticks_Phase_8,152,1,48,46,925271576
6,22,Ticks_Phase_8,153,5,42,127,925285764
6,22,Ticks_Phase_8,154,1,48,48,926025088
6,22,Ticks_Phase_8,155,5,42,127,926085548
6,22,Ticks_Phase_8,156,1,48,62,926784064
6,22,Ticks_Phase_8,157,5,42,127,926886144
6,22,Ticks_Phase_8,158,1,48,53,927659108
6,22,Ticks_Phase_8,159,5,42,127,927686044
6,22,Ticks_Phase_8,160,1,48,55,928432228
6,22,Ticks_Phase_8,161,5,42,127,928485832
6,22,Ticks_Phase_8,162,1,48,52,929224556
6,22,Ticks_Phase_8,163,5,42,127,929245704
6,22,Ticks_Phase_8,164,1,48,48,930022912
6,22,Ticks_Phase_8,165,5,42,127,930046312
6,22,Ticks_Phase_8,166,1,48,57,930809900
6,22,Ticks_Phase_8,167,5,42,127,930846100
6,22,Ticks_Phase_8,168,1,48,54,931625640
6,22,Ticks_Phase_8,169,5,42,127,931645812
6,22,Ticks_Phase_8,170,1,48,51,932391272
6,22,Ticks_Phase_8,171,5,42,127,932445748
6,22,Ticks_Phase_8,172,1,48,48,933226712
6,22,Ticks_Phase_8,173,5,42,127,933246432
6,22,Ticks_Phase_8,174,1,48,58,934001548
6,22,Ticks_Phase_8,175,5,42,127,934046144
6,22,Ticks_Phase_8,176,1,48,58,934786296
6,22,Ticks_Phase_8,177,5,42,127,934845804
6,22,Ticks_Phase_8,178,1,48,53,935596488
6,22,Ticks_Phase_8,179,5,42,127,935645812
6,22,Ticks_Phase_8,180,1,48,56,936404908
6,22,Ticks_Phase_8,181,5,42,127,936446348
6,22,Ticks_Phase_8,182,1,48,59,937221836
6,22,Ticks_Phase_8,183,5,42,127,937246208
6,22,Ticks_Phase_8,184,1,48,58,938020652
6,22,Ticks_Phase_8,185,5,42,127,938045776
6,22,Ticks_Phase_8,186,5,42,127,938845492
6,22,Ticks_Phase_8,187,1,48,58,938848540
6,22,Ticks_Phase_8,188,1,48,62,939639400
6,22,Ticks_Phase_8,189,5,42,127,939646468
6,22,Ticks_Phase_8,190,1,48,57,940420836
6,22,Ticks_Phase_8,191,5,42,127,940446180
6,22,Ticks_Phase_8,192,5,42,127,941245776
6,22,Ticks_Phase_8,193,1,48,60,941274736
6,22,Ticks_Phase_8,194,5,42,127,941965780
6,22,Ticks_Phase_8,195,1,48,57,942030704
6,22,Ticks_Phase_8,196,5,42,127,942765644
6,22,Ticks_Phase_8,197,1,48,49,942768392
6,22,Ticks_Phase_8,198,1,48,59,943523300
6,22,Ticks_Phase_8,199,5,42,127,943566120
6,22,Ticks_Phase_8,200,1,48,49,944356892
6,22,Ticks_Phase_8,201,5,42,127,944366056
6,22,Ticks_Phase_8,202,1,48,55,945091748
6,22,Ticks_Phase_8,203,5,42,127,945165692
6,22,Ticks_Phase_8,204,1,48,48,945918496
6,22,Ticks_Phase_8,205,5,42,127,945965628
6,22,Ticks_Phase_8,206,1,48,54,946734832
6,22,Ticks_Phase_8,207,5,42,127,946766388
6,22,Ticks_Phase_8,208,1,48,53,947553108
6,22,Ticks_Phase_8,209,5,42,127,947565876
6,22,Ticks_Phase_8,210,5,42,127,948365592
6,22,Ticks_Phase_8,211,1,48,51,948372976
6,22,Ticks_Phase_8,212,5,42,127,949165676
6,22,Ticks_Phase_8,213,1,48,53,949202664
6,22,Ticks_Phase_8,214,5,42,127,949966236
6,22,Ticks_Phase_8,215,1,48,47,949976772
6,22,Ticks_Phase_8,216,1,48,55,950763060
6,22,Ticks_Phase_8,217,5,42,127,950765868
6,22,Ticks_Phase_8,218,1,48,52,951545332
6,22,Ticks_Phase_8,219,5,42,127,951565652
6,22,Ticks_Phase_8,220,1,48,57,952326020
6,22,Ticks_Phase_8,221,5,42,127,952365588
6,22,Ticks_Phase_8,222,1,48,62,953121908
6,22,Ticks_Phase_8,223,5,42,127,953166124
6,22,Ticks_Phase_8,224,1,48,55,953961456
6,22,Ticks_Phase_8,225,5,42,127,953966132
6,22,Ticks_Phase_8,226,5,42,127,954765628
6,22,Ticks_Phase_8,227,1,48,55,954787024
6,22,Ticks_Phase_8,228,1,48,57,955606224
6,22,Ticks_Phase_8,229,5,42,127,955646312
6,22,Ticks_Phase_8,230,1,48,56,956430344
6,22,Ticks_Phase_8,231,5,42,127,956446172
6,22,Ticks_Phase_8,232,1,48,55,957212000
6,22,Ticks_Phase_8,233,5,42,127,957245736
6,22,Ticks_Phase_8,234,1,48,50,958006100
6,22,Ticks_Phase_8,235,5,42,127,958045520
6,22,Ticks_Phase_8,236,5,42,127,958846360
6,22,Ticks_Phase_8,237,1,48,49,958848372
6,22,Ticks_Phase_8,238,5,42,127,959645996
6,22,Ticks_Phase_8,239,1,48,52,959656904
6,22,Ticks_Phase_8,240,5,42,127,960445736
6,22,Ticks_Phase_8,241,1,48,54,960473200
6,22,Ticks_Phase_8,242,1,48,56,961221516
6,22,Ticks_Phase_8,243,5,42,127,961245516
6,22,Ticks_Phase_8,244,1,48,54,962015320
6,22,Ticks_Phase_8,245,5,42,127,962046272
6,22,Ticks_Phase_8,246,1,48,55,962830752
6,22,Ticks_Phase_8,247,5,42,127,962846280
6,22,Ticks_Phase_8,248,1,48,62,963628072
6,22,Ticks_Phase_8,249,5,42,127,963645696
6,22,Ticks_Phase_8,250,1,48,57,964403056
6,22,Ticks_Phase_8,251,5,42,127,964445480
6,22,Ticks_Phase_8,252,5,42,127,965246396
6,22,Ticks_Phase_8,253,1,48,52,965247884
6,22,Ticks_Phase_8,254,5,42,127,966046032
6,22,Ticks_Phase_8,255,1,48,57,966060684
6,22,Ticks_Phase_8,256,1,48,56,966832672
6,22,Ticks_Phase_8,257,5,42,127,966845836
6,22,Ticks_Phase_8,258,1,48,47,967595472
6,22,Ticks_Phase_8,259,5,42,127,967645548
6,22,Ticks_Phase_8,260,1,48,57,968398204
6,22,Ticks_Phase_8,261,5,42,127,968446456
6,22,Ticks_Phase_8,262,1,48,54,969197840
6,22,Ticks_Phase_8,263,5,42,127,969405840
6,22,Ticks_Phase_8,264,1,48,34,970201864
6,22,Ticks_Phase_8,265,5,42,127,970205568
6,22,Ticks_Phase_8,266,5,42,127,971006256
6,22,Ticks_Phase_8,267,1,48,54,971012444
6,22,Ticks_Phase_8,268,1,48,56,971771036
6,22,Ticks_Phase_8,269,5,42,127,971806184
6,22,Ticks_Phase_8,270,1,48,53,972598228
6,22,Ticks_Phase_8,271,5,42,127,972605824
6,22,Ticks_Phase_8,272,1,48,52,973322000
6,22,Ticks_Phase_8,273,5,42,127,973405536
6,22,Ticks_Phase_8,274,1,48,60,974163644
6,22,Ticks_Phase_8,275,5,42,127,974206292
6,22,Ticks_Phase_8,276,1,48,50,974989500
6,22,Ticks_Phase_8,277,5,42,127,975006076
6,22,Ticks_Phase_8,278,1,48,43,975776480
6,22,Ticks_Phase_8,279,5,42,127,975805664
6,22,Ticks_Phase_8,280,1,48,58,976573824
6,22,Ticks_Phase_8,281,5,42,127,976605600
6,22,Ticks_Phase_8,282,1,48,44,977373980
6,22,Ticks_Phase_8,283,5,42,127,977406356
6,22,Ticks_Phase_8,284,1,48,56,978172484
6,22,Ticks_Phase_8,285,5,42,127,978206216
6,22,Ticks_Phase_8,286,1,48,48,978981708
6,22,Ticks_Phase_8,287,5,42,127,979005780
6,22,Ticks_Phase_8,288,1,48,56,979767124
6,22,Ticks_Phase_8,289,5,42,127,979805420
6,22,Ticks_Phase_8,290,1,48,57,980545340
6,22,Ticks_Phase_8,291,5,42,127,980606400
6,22,Ticks_Phase_8,292,1,48,48,981390056
6,22,Ticks_Phase_8,293,5,42,127,981406188
6,22,Ticks_Phase_8,294,1,48,54,982152548
6,22,Ticks_Phase_8,295,5,42,127,982205996
6,22,Ticks_Phase_8,296,5,42,127,983005492
6,22,Ticks_Phase_8,297,1,48,53,983032568
6,22,Ticks_Phase_8,298,1,48,46,983802020
6,22,Ticks_Phase_8,299,5,42,127,983806320
6,22,Ticks_Phase_8,300,5,42,127,984446352
6,22,Ticks_Phase_8,301,1,48,51,984632292
6,22,Ticks_Phase_8,302,5,42,127,985246436
6,22,Ticks_Phase_8,303,1,48,51,985348960
6,22,Ticks_Phase_8,304,5,42,127,986045728
6,22,Ticks_Phase_8,305,1,48,50,986103972
6,22,Ticks_Phase_8,306,5,42,127,986845664
6,22,Ticks_Phase_8,307,1,48,56,986848712
6,22,Ticks_Phase_8,308,5,42,127,987646276
6,22,Ticks_Phase_8,309,1,48,58,987650144
6,22,Ticks_Phase_8,310,1,48,59,988440476
6,22,Ticks_Phase_8,311,5,42,127,988445980
6,22,Ticks_Phase_8,312,5,42,127,989245700
6,22,Ticks_Phase_8,313,1,48,52,989253156
6,22,Ticks_Phase_8,314,5,42,127,990045488
6,22,Ticks_Phase_8,315,1,48,58,990068156
6,22,Ticks_Phase_8,316,5,42,127,990846172
6,22,Ticks_Phase_8,317,1,48,57,990867644
6,22,Ticks_Phase_8,318,1,48,58,991615892
6,22,Ticks_Phase_8,319,5,42,127,991646176
6,22,Ticks_Phase_8,320,5,42,127,992445992
6,22,Ticks_Phase_8,321,1,48,58,992490900
6,22,Ticks_Phase_8,322,1,48,51,993231732
6,22,Ticks_Phase_8,323,5,42,127,993245548
6,22,Ticks_Phase_8,324,1,48,55,994021936
6,22,Ticks_Phase_8,325,5,42,127,994046380
6,22,Ticks_Phase_8,326,1,48,51,994839624
6,22,Ticks_Phase_8,327,5,42,127,994846092
6,22,Ticks_Phase_8,328,1,48,56,995642248
6,22,Ticks_Phase_8,329,5,42,127,995646028
6,22,Ticks_Phase_8,330,1,48,52,996415084
6,22,Ticks_Phase_8,331,5,42,127,996445588
6,22,Ticks_Phase_8,332,5,42,127,997246280
6,22,Ticks_Phase_8,333,1,48,52,997255992
6,22,Ticks_Phase_8,334,5,42,127,998046068
6,22,Ticks_Phase_8,335,1,48,51,998063796
6,22,Ticks_Phase_8,336,1,48,52,998775572
6,22,Ticks_Phase_8,337,5,42,127,998845868
6,22,Ticks_Phase_8,338,1,48,46,999632740
6,22,Ticks_Phase_8,339,5,42,127,999645508
6,22,Ticks_Phase_8,0,9999,9999,9999,9999,864443488
6,22,Ticks_Phase_8,1,9999,9999,9999,9999,865243224
6,22,Ticks_Phase_8,2,9999,9999,9999,9999,866044004
6,22,Ticks_Phase_8,3,9999,9999,9999,9999,866843716
6,22,Ticks_Phase_8,4,9999,9999,9999,9999,867643504
6,22,Ticks_Phase_8,5,9999,9999,9999,9999,868443216
6,22,Ticks_Phase_8,6,9999,9999,9999,9999,869243972
6,22,Ticks_Phase_8,7,9999,9999,9999,9999,870043760
6,22,Ticks_Phase_8,8,9999,9999,9999,9999,870843496
6,22,Ticks_Phase_8,9,9999,9999,9999,9999,871643208
6,22,Ticks_Phase_8,10,9999,9999,9999,9999,872443964
6,22,Ticks_Phase_8,11,9999,9999,9999,9999,873243752
6,22,Ticks_Phase_8,12,9999,9999,9999,9999,874043460
6,22,Ticks_Phase_8,13,9999,9999,9999,9999,874843248
6,22,Ticks_Phase_8,14,9999,9999,9999,9999,875644008
6,22,Ticks_Phase_8,15,9999,9999,9999,9999,876443720
6,22,Ticks_Phase_8,16,9999,9999,9999,9999,877243456
6,22,Ticks_Phase_8,17,9999,9999,9999,9999,878043240
6,22,Ticks_Phase_8,18,9999,9999,9999,9999,878844000
6,22,Ticks_Phase_8,19,9999,9999,9999,9999,879643712
6,22,Ticks_Phase_8,20,9999,9999,9999,9999,880443500
6,22,Ticks_Phase_8,21,9999,9999,9999,9999,881243208
6,22,Ticks_Phase_8,22,9999,9999,9999,9999,882043968
6,22,Ticks_Phase_8,23,9999,9999,9999,9999,882843756
6,22,Ticks_Phase_8,24,9999,9999,9999,9999,883643492
6,22,Ticks_Phase_8,25,9999,9999,9999,9999,884443200
6,22,Ticks_Phase_8,26,9999,9999,9999,9999,885243960
6,22,Ticks_Phase_8,27,9999,9999,9999,9999,886043748
6,22,Ticks_Phase_8,28,9999,9999,9999,9999,886843460
6,22,Ticks_Phase_8,29,9999,9999,9999,9999,887643244
6,22,Ticks_Phase_8,30,9999,9999,9999,9999,888423492
6,22,Ticks_Phase_8,31,9999,9999,9999,9999,889223272
6,22,Ticks_Phase_8,32,9999,9999,9999,9999,890024028
6,22,Ticks_Phase_8,33,9999,9999,9999,9999,890823764
6,22,Ticks_Phase_8,34,9999,9999,9999,9999,891623476
6,22,Ticks_Phase_8,35,9999,9999,9999,9999,892423272
6,22,Ticks_Phase_8,36,9999,9999,9999,9999,893224024
6,22,Ticks_Phase_8,37,9999,9999,9999,9999,894023736
6,22,Ticks_Phase_8,38,9999,9999,9999,9999,894823520
6,22,Ticks_Phase_8,39,9999,9999,9999,9999,895623232
6,22,Ticks_Phase_8,40,9999,9999,9999,9999,896423992
6,22,Ticks_Phase_8,41,9999,9999,9999,9999,897223804
6,22,Ticks_Phase_8,42,9999,9999,9999,9999,898023520
6,22,Ticks_Phase_8,43,9999,9999,9999,9999,898823224
6,22,Ticks_Phase_8,44,9999,9999,9999,9999,899624056
6,22,Ticks_Phase_8,45,9999,9999,9999,9999,900423768
6,22,Ticks_Phase_8,46,9999,9999,9999,9999,901223480
6,22,Ticks_Phase_8,47,9999,9999,9999,9999,902023268
6,22,Ticks_Phase_8,48,9999,9999,9999,9999,902843456
6,22,Ticks_Phase_8,49,9999,9999,9999,9999,903643240
6,22,Ticks_Phase_8,50,9999,9999,9999,9999,904444000
6,22,Ticks_Phase_8,51,9999,9999,9999,9999,905243712
6,22,Ticks_Phase_8,52,9999,9999,9999,9999,906043496
6,22,Ticks_Phase_8,53,9999,9999,9999,9999,906843204
6,22,Ticks_Phase_8,54,9999,9999,9999,9999,907644004
6,22,Ticks_Phase_8,55,9999,9999,9999,9999,908443752
6,22,Ticks_Phase_8,56,9999,9999,9999,9999,909243496
6,22,Ticks_Phase_8,57,9999,9999,9999,9999,910043208
6,22,Ticks_Phase_8,58,9999,9999,9999,9999,910843964
6,22,Ticks_Phase_8,59,9999,9999,9999,9999,911643752
6,22,Ticks_Phase_8,60,9999,9999,9999,9999,912443464
6,22,Ticks_Phase_8,61,9999,9999,9999,9999,913243252
6,22,Ticks_Phase_8,62,9999,9999,9999,9999,914044008
6,22,Ticks_Phase_8,63,9999,9999,9999,9999,914843764
6,22,Ticks_Phase_8,64,9999,9999,9999,9999,915683420
6,22,Ticks_Phase_8,65,9999,9999,9999,9999,916483132
6,22,Ticks_Phase_8,66,9999,9999,9999,9999,917283964
6,22,Ticks_Phase_8,67,9999,9999,9999,9999,918083676
6,22,Ticks_Phase_8,68,9999,9999,9999,9999,918883388
6,22,Ticks_Phase_8,69,9999,9999,9999,9999,919683172
6,22,Ticks_Phase_8,70,9999,9999,9999,9999,920483932
6,22,Ticks_Phase_8,71,9999,9999,9999,9999,921283668
6,22,Ticks_Phase_8,72,9999,9999,9999,9999,922083388
6,22,Ticks_Phase_8,73,9999,9999,9999,9999,922883172
6,22,Ticks_Phase_8,74,9999,9999,9999,9999,923683932
6,22,Ticks_Phase_8,75,9999,9999,9999,9999,924483696
6,22,Ticks_Phase_8,76,9999,9999,9999,9999,925283404
6,22,Ticks_Phase_8,77,9999,9999,9999,9999,926083188
6,22,Ticks_Phase_8,78,9999,9999,9999,9999,926883932
6,22,Ticks_Phase_8,79,9999,9999,9999,9999,927683684
6,22,Ticks_Phase_8,80,9999,9999,9999,9999,928483396
6,22,Ticks_Phase_8,81,9999,9999,9999,9999,929243192
6,22,Ticks_Phase_8,82,9999,9999,9999,9999,930044024
6,22,Ticks_Phase_8,83,9999,9999,9999,9999,930843736
6,22,Ticks_Phase_8,84,9999,9999,9999,9999,931643452
6,22,Ticks_Phase_8,85,9999,9999,9999,9999,932443236
6,22,Ticks_Phase_8,86,9999,9999,9999,9999,933243996
6,22,Ticks_Phase_8,87,9999,9999,9999,9999,934043708
6,22,Ticks_Phase_8,88,9999,9999,9999,9999,934843516
6,22,Ticks_Phase_8,89,9999,9999,9999,9999,935643228
6,22,Ticks_Phase_8,90,9999,9999,9999,9999,936443988
6,22,Ticks_Phase_8,91,9999,9999,9999,9999,937243776
6,22,Ticks_Phase_8,92,9999,9999,9999,9999,938043488
6,22,Ticks_Phase_8,93,9999,9999,9999,9999,938843208
6,22,Ticks_Phase_8,94,9999,9999,9999,9999,939643960
6,22,Ticks_Phase_8,95,9999,9999,9999,9999,940443744
6,22,Ticks_Phase_8,96,9999,9999,9999,9999,941243488
6,22,Ticks_Phase_8,97,9999,9999,9999,9999,941963344
6,22,Ticks_Phase_8,98,9999,9999,9999,9999,942763132
6,22,Ticks_Phase_8,99,9999,9999,9999,9999,943563836
6,22,Ticks_Phase_8,100,9999,9999,9999,9999,944363620
6,22,Ticks_Phase_8,101,9999,9999,9999,9999,945163332
6,22,Ticks_Phase_8,102,9999,9999,9999,9999,945963116
6,22,Ticks_Phase_8,103,9999,9999,9999,9999,946763876
6,22,Ticks_Phase_8,104,9999,9999,9999,9999,947563588
6,22,Ticks_Phase_8,105,9999,9999,9999,9999,948363380
6,22,Ticks_Phase_8,106,9999,9999,9999,9999,949163092
6,22,Ticks_Phase_8,107,9999,9999,9999,9999,949963876
6,22,Ticks_Phase_8,108,9999,9999,9999,9999,950763580
6,22,Ticks_Phase_8,109,9999,9999,9999,9999,951563368
6,22,Ticks_Phase_8,110,9999,9999,9999,9999,952363080
6,22,Ticks_Phase_8,111,9999,9999,9999,9999,953163840
6,22,Ticks_Phase_8,112,9999,9999,9999,9999,953963624
6,22,Ticks_Phase_8,113,9999,9999,9999,9999,954763340
6,22,Ticks_Phase_8,114,9999,9999,9999,9999,955644024
6,22,Ticks_Phase_8,115,9999,9999,9999,9999,956443736
6,22,Ticks_Phase_8,116,9999,9999,9999,9999,957243448
6,22,Ticks_Phase_8,117,9999,9999,9999,9999,958043232
6,22,Ticks_Phase_8,118,9999,9999,9999,9999,958844000
6,22,Ticks_Phase_8,119,9999,9999,9999,9999,959643712
6,22,Ticks_Phase_8,120,9999,9999,9999,9999,960443448
6,22,Ticks_Phase_8,121,9999,9999,9999,9999,961243228
6,22,Ticks_Phase_8,122,9999,9999,9999,9999,962043984
6,22,Ticks_Phase_8,123,9999,9999,9999,9999,962843772
6,22,Ticks_Phase_8,124,9999,9999,9999,9999,963643484
6,22,Ticks_Phase_8,125,9999,9999,9999,9999,964443196
6,22,Ticks_Phase_8,126,9999,9999,9999,9999,965243960
6,22,Ticks_Phase_8,127,9999,9999,9999,9999,966043744
6,22,Ticks_Phase_8,128,9999,9999,9999,9999,966843476
6,22,Ticks_Phase_8,129,9999,9999,9999,9999,967643260
6,22,Ticks_Phase_8,130,9999,9999,9999,9999,968444020
6,22,Ticks_Phase_8,131,9999,9999,9999,9999,969403476
6,22,Ticks_Phase_8,132,9999,9999,9999,9999,970203208
6,22,Ticks_Phase_8,133,9999,9999,9999,9999,971003972
6,22,Ticks_Phase_8,134,9999,9999,9999,9999,971803752
6,22,Ticks_Phase_8,135,9999,9999,9999,9999,972603464
6,22,Ticks_Phase_8,136,9999,9999,9999,9999,973403248
6,22,Ticks_Phase_8,137,9999,9999,9999,9999,974204008
6,22,Ticks_Phase_8,138,9999,9999,9999,9999,975003716
6,22,Ticks_Phase_8,139,9999,9999,9999,9999,975803452
6,22,Ticks_Phase_8,140,9999,9999,9999,9999,976603240
6,22,Ticks_Phase_8,141,9999,9999,9999,9999,977403996
6,22,Ticks_Phase_8,142,9999,9999,9999,9999,978203708
6,22,Ticks_Phase_8,143,9999,9999,9999,9999,979003496
6,22,Ticks_Phase_8,144,9999,9999,9999,9999,979803208
6,22,Ticks_Phase_8,145,9999,9999,9999,9999,980603968
6,22,Ticks_Phase_8,146,9999,9999,9999,9999,981403752
6,22,Ticks_Phase_8,147,9999,9999,9999,9999,982203488
6,22,Ticks_Phase_8,148,9999,9999,9999,9999,983003208
6,22,Ticks_Phase_8,149,9999,9999,9999,9999,983803956
6,22,Ticks_Phase_8,150,9999,9999,9999,9999,984443992
6,22,Ticks_Phase_8,151,9999,9999,9999,9999,985243704
6,22,Ticks_Phase_8,152,9999,9999,9999,9999,986043516
6,22,Ticks_Phase_8,153,9999,9999,9999,9999,986843228
6,22,Ticks_Phase_8,154,9999,9999,9999,9999,987643988
6,22,Ticks_Phase_8,155,9999,9999,9999,9999,988443768
6,22,Ticks_Phase_8,156,9999,9999,9999,9999,989243488
6,22,Ticks_Phase_8,157,9999,9999,9999,9999,990043200
6,22,Ticks_Phase_8,158,9999,9999,9999,9999,990843960
6,22,Ticks_Phase_8,159,9999,9999,9999,9999,991643740
6,22,Ticks_Phase_8,160,9999,9999,9999,9999,992443484
6,22,Ticks_Phase_8,161,9999,9999,9999,9999,993243264
6,22,Ticks_Phase_8,162,9999,9999,9999,9999,994044020
6,22,Ticks_Phase_8,163,9999,9999,9999,9999,994843732
6,22,Ticks_Phase_8,164,9999,9999,9999,9999,995643516
6,22,Ticks_Phase_8,165,9999,9999,9999,9999,996443228
6,22,Ticks_Phase_8,166,9999,9999,9999,9999,997243996
6,22,Ticks_Phase_8,167,9999,9999,9999,9999,998043704
6,22,Ticks_Phase_8,168,9999,9999,9999,9999,998843508
6,22,Ticks_Phase_8,169,9999,9999,9999,9999,999643220
7,21,Ticks_Linear_5,0,5,42,127,1009099196
7,21,Ticks_Linear_5,1,5,42,127,1009579496
7,21,Ticks_Linear_5,2,5,42,127,1010058700
7,21,Ticks_Linear_5,3,1,48,15,1010460944
7,21,Ticks_Linear_5,4,5,42,127,1010539092
7,21,Ticks_Linear_5,5,1,48,33,1011014480
7,21,Ticks_Linear_5,6,5,42,127,1011019172
7,21,Ticks_Linear_5,7,1,48,42,1011493588
7,21,Ticks_Linear_5,8,5,42,127,1011508612
7,21,Ticks_Linear_5,9,1,48,46,1011990600
7,21,Ticks_Linear_5,10,5,42,127,1011999176
7,21,Ticks_Linear_5,11,5,42,127,1012488476
7,21,Ticks_Linear_5,12,1,48,46,1012489592
7,21,Ticks_Linear_5,13,5,42,127,1012979036
7,21,Ticks_Linear_5,14,1,48,46,1013002896
7,21,Ticks_Linear_5,15,1,48,46,1013466660
7,21,Ticks_Linear_5,16,5,42,127,1013468396
7,21,Ticks_Linear_5,17,1,48,46,1013938600
7,21,Ticks_Linear_5,18,5,42,127,1013969292
7,21,Ticks_Linear_5,19,1,48,48,1014440468
7,21,Ticks_Linear_5,20,5,42,127,1014468840
7,21,Ticks_Linear_5,21,1,48,47,1014948556
7,21,Ticks_Linear_5,22,5,42,127,1014968688
7,21,Ticks_Linear_5,23,1,48,44,1015440692
7,21,Ticks_Linear_5,24,5,42,127,1015469412
7,21,Ticks_Linear_5,25,1,48,46,1015944948
7,21,Ticks_Linear_5,26,5,42,127,1015979296
7,21,Ticks_Linear_5,27,1,48,46,1016449896
7,21,Ticks_Linear_5,28,5,42,127,1016489256
7,21,Ticks_Linear_5,29,1,48,43,1016980076
7,21,Ticks_Linear_5,30,5,42,127,1016999288
7,21,Ticks_Linear_5,31,1,48,48,1017505156
7,21,Ticks_Linear_5,32,5,42,127,1017509172
7,21,Ticks_Linear_5,33,1,48,42,1018010028
7,21,Ticks_Linear_5,34,5,42,127,1018019132
7,21,Ticks_Linear_5,35,1,48,43,1018489212
7,21,Ticks_Linear_5,36,5,42,127,1018529312
7,21,Ticks_Linear_5,37,1,48,47,1019019316
7,21,Ticks_Linear_5,38,5,42,127,1019049236
7,21,Ticks_Linear_5,39,1,48,48,1019537516
7,21,Ticks_Linear_5,40,5,42,127,1019568480
7,21,Ticks_Linear_5,41,1,48,44,1020050840
7,21,Ticks_Linear_5,42,5,42,127,1020088872
7,21,Ticks_Linear_5,43,1,48,46,1020579816
7,21,Ticks_Linear_5,44,5,42,127,1020609016
7,21,Ticks_Linear_5,45,1,48,43,1021110548
7,21,Ticks_Linear_5,46,5,42,127,1021129160
7,21,Ticks_Linear_5,47,1,48,41,1021642740
7,21,Ticks_Linear_5,48,5,42,127,1021658364
7,21,Ticks_Linear_5,49,1,48,45,1022128572
7,21,Ticks_Linear_5,50,5,42,127,1022188916
7,21,Ticks_Linear_5,51,1,48,44,1022693960
7,21,Ticks_Linear_5,52,5,42,127,1022719244
7,21,Ticks_Linear_5,53,1,48,41,1023217712
7,21,Ticks_Linear_5,54,5,42,127,1023248972
7,21,Ticks_Linear_5,55,1,48,44,1023736956
7,21,Ticks_Linear_5,56,5,42,127,1023779228
7,21,Ticks_Linear_5,57,1,48,46,1024292808
7,21,Ticks_Linear_5,58,5,42,127,1024318840
7,21,Ticks_Linear_5,59,1,48,46,1024829736
7,21,Ticks_Linear_5,60,5,42,127,1024858384
7,21,Ticks_Linear_5,61,1,48,43,1025362824
7,21,Ticks_Linear_5,62,5,42,127,1025399268
7,21,Ticks_Linear_5,63,1,48,44,1025863948
7,21,Ticks_Linear_5,64,5,42,127,1025938880
7,21,Ticks_Linear_5,65,1,48,45,1026416140
7,21,Ticks_Linear_5,66,5,42,127,1026478496
7,21,Ticks_Linear_5,67,1,48,39,1027007544
7,21,Ticks_Linear_5,68,5,42,127,1027029440
7,21,Ticks_Linear_5,69,1,48,41,1027576644
7,21,Ticks_Linear_5,70,5,42,127,1027579316
7,21,Ticks_Linear_5,71,5,42,127,1028129272
7,21,Ticks_Linear_5,72,1,48,38,1028130236
7,21,Ticks_Linear_5,73,5,42,127,1028679148
7,21,Ticks_Linear_5,74,1,48,44,1028704052
7,21,Ticks_Linear_5,75,5,42,127,1029229020
7,21,Ticks_Linear_5,76,1,48,40,1029261796
7,21,Ticks_Linear_5,77,1,48,41,1029715856
7,21,Ticks_Linear_5,78,5,42,127,1029788996
7,21,Ticks_Linear_5,79,1,48,39,1030288356
7,21,Ticks_Linear_5,80,5,42,127,1030349232
7,21,Ticks_Linear_5,81,1,48,41,1030890680
7,21,Ticks_Linear_5,82,5,42,127,1030909292
7,21,Ticks_Linear_5,83,5,42,127,1031469652
7,21,Ticks_Linear_5,84,1,48,44,1031484676
7,21,Ticks_Linear_5,85,5,42,127,1032038848
7,21,Ticks_Linear_5,86,1,48,40,1032069236
7,21,Ticks_Linear_5,87,5,42,127,1032609168
7,21,Ticks_Linear_5,88,1,48,40,1032610132
7,21,Ticks_Linear_5,89,1,48,35,1033163960
7,21,Ticks_Linear_5,90,5,42,127,1033178608
7,21,Ticks_Linear_5,91,1,48,38,1033711212
7,21,Ticks_Linear_5,92,5,42,127,1033748776
7,21,Ticks_Linear_5,93,1,48,39,1034317660
7,21,Ticks_Linear_5,94,5,42,127,1034319168
7,21,Ticks_Linear_5,95,5,42,127,1034888816
7,21,Ticks_Linear_5,96,1,48,36,1034901672
7,21,Ticks_Linear_5,97,1,48,38,1035467988
7,21,Ticks_Linear_5,98,5,42,127,1035469708
7,21,Ticks_Linear_5,99,1,48,38,1036041636
7,21,Ticks_Linear_5,100,5,42,127,1036048720
7,21,Ticks_Linear_5,101,1,48,41,1036627560
7,21,Ticks_Linear_5,102,5,42,127,1036629444
7,21,Ticks_Linear_5,103,5,42,127,1037208832
7,21,Ticks_Linear_5,104,1,48,40,1037225720
7,21,Ticks_Linear_5,105,1,48,39,1037778604
7,21,Ticks_Linear_5,106,5,42,127,1037788532
7,21,Ticks_Linear_5,107,1,48,46,1038367424
7,21,Ticks_Linear_5,108,5,42,127,1038379588
7,21,Ticks_Linear_5,109,1,48,42,1038949196
7,21,Ticks_Linear_5,110,5,42,127,1038969156
7,21,Ticks_Linear_5,111,1,48,41,1039551888
7,21,Ticks_Linear_5,112,5,42,127,1039558896
7,21,Ticks_Linear_5,113,5,42,127,1040148840
7,21,Ticks_Linear_5,114,1,48,46,1040153152
7,21,Ticks_Linear_5,115,5,42,127,1040738704
7,21,Ticks_Linear_5,116,1,48,47,1040762192
7,21,Ticks_Linear_5,117,1,48,46,1041318940
7,21,Ticks_Linear_5,118,5,42,127,1041338696
7,21,Ticks_Linear_5,119,1,48,42,1041935100
7,21,Ticks_Linear_5,120,5,42,127,1041938820
7,21,Ticks_Linear_5,121,1,48,33,1042538504
7,21,Ticks_Linear_5,122,5,42,127,1042539988
7,21,Ticks_Linear_5,123,1,48,44,1043101428
7,21,Ticks_Linear_5,124,5,42,127,1043138868
7,21,Ticks_Linear_5,125,1,48,45,1043701880
7,21,Ticks_Linear_5,126,5,42,127,1043739064
7,21,Ticks_Linear_5,127,1,48,46,1044324688
7,21,Ticks_Linear_5,128,5,42,127,1044349372
7,21,Ticks_Linear_5,129,1,48,43,1044909468
7,21,Ticks_Linear_5,130,5,42,127,1044958656
7,21,Ticks_Linear_5,131,1,48,43,1045507224
7,21,Ticks_Linear_5,132,5,42,127,1045568816
7,21,Ticks_Linear_5,133,1,48,45,1046105760
7,21,Ticks_Linear_5,134,5,42,127,1046179200
7,21,Ticks_Linear_5,135,1,48,48,1046737896
7,21,Ticks_Linear_5,136,5,42,127,1046788632
7,21,Ticks_Linear_5,137,5,42,127,1047408984
7,21,Ticks_Linear_5,138,1,48,46,1047416892
7,21,Ticks_Linear_5,139,5,42,127,1048028676
7,21,Ticks_Linear_5,140,1,48,40,1048078080
7,21,Ticks_Linear_5,141,5,42,127,1048649096
7,21,Ticks_Linear_5,142,1,48,47,1048655504
7,21,Ticks_Linear_5,143,5,42,127,1049268640
7,21,Ticks_Linear_5,144,1,48,47,1049277084
7,21,Ticks_Linear_5,145,1,48,51,1049887928
7,21,Ticks_Linear_5,146,5,42,127,1049889572
7,21,Ticks_Linear_5,147,1,48,46,1050450864
7,21,Ticks_Linear_5,148,5,42,127,1050518980
7,21,Ticks_Linear_5,149,1,48,46,1051075948
7,21,Ticks_Linear_5,150,5,42,127,1051148712
7,21,Ticks_Linear_5,151,1,48,45,1051732392
7,21,Ticks_Linear_5,152,5,42,127,1051778492
7,21,Ticks_Linear_5,153,1,48,46,1052381444
7,21,Ticks_Linear_5,154,5,42,127,1052409196
7,21,Ticks_Linear_5,155,1,48,50,1053025376
7,21,Ticks_Linear_5,156,5,42,127,1053039052
7,21,Ticks_Linear_5,157,1,48,47,1053675024
7,21,Ticks_Linear_5,158,5,42,127,1053678964
7,21,Ticks_Linear_5,159,1,48,42,1054296724
7,21,Ticks_Linear_5,160,5,42,127,1054318852
7,21,Ticks_Linear_5,161,1,48,43,1054905696
7,21,Ticks_Linear_5,162,5,42,127,1054958988
7,21,Ticks_Linear_5,163,1,48,45,1055550012
7,21,Ticks_Linear_5,164,5,42,127,1055598880
7,21,Ticks_Linear_5,165,1,48,44,1056186636
7,21,Ticks_Linear_5,166,5,42,127,1056239016
7,21,Ticks_Linear_5,167,1,48,49,1056808472
7,21,Ticks_Linear_5,168,5,42,127,1056889460
7,21,Ticks_Linear_5,169,1,48,45,1057459016
7,21,Ticks_Linear_5,170,5,42,127,1057538364
7,21,Ticks_Linear_5,171,1,48,45,1058120548
7,21,Ticks_Linear_5,172,5,42,127,1058188736
7,21,Ticks_Linear_5,173,1,48,41,1058837252
7,21,Ticks_Linear_5,174,5,42,127,1058838836
7,21,Ticks_Linear_5,175,5,42,127,1059489140
7,21,Ticks_Linear_5,176,1,48,45,1059510708
7,21,Ticks_Linear_5,177,5,42,127,1060148600
7,21,Ticks_Linear_5,178,1,48,43,1060149864
7,21,Ticks_Linear_5,179,5,42,127,1060809180
7,21,Ticks_Linear_5,180,1,48,41,1060816188
7,21,Ticks_Linear_5,181,1,48,47,1061421092
7,21,Ticks_Linear_5,182,5,42,127,1061468608
7,21,Ticks_Linear_5,183,1,48,46,1062097328
7,21,Ticks_Linear_5,184,5,42,127,1062128892
7,21,Ticks_Linear_5,185,1,48,45,1062779452
7,21,Ticks_Linear_5,186,5,42,127,1062788480
7,21,Ticks_Linear_5,187,1,48,44,1063420940
7,21,Ticks_Linear_5,188,5,42,127,1063459392
7,21,Ticks_Linear_5,189,1,48,48,1064119564
7,21,Ticks_Linear_5,190,5,42,127,1064128816
7,21,Ticks_Linear_5,191,1,48,50,1064779744
7,21,Ticks_Linear_5,192,5,42,127,1064798732
7,21,Ticks_Linear_5,193,1,48,48,1065456344
7,21,Ticks_Linear_5,194,5,42,127,1065469496
7,21,Ticks_Linear_5,195,1,48,48,1066136784
7,21,Ticks_Linear_5,196,5,42,127,1066138896
7,21,Ticks_Linear_5,197,1,48,47,1066797272
7,21,Ticks_Linear_5,198,5,42,127,1066818948
7,21,Ticks_Linear_5,199,1,48,49,1067463384
7,21,Ticks_Linear_5,200,5,42,127,1067498928
7,21,Ticks_Linear_5,201,1,48,46,1068151352
7,21,Ticks_Linear_5,202,5,42,127,1068178732
7,21,Ticks_Linear_5,203,1,48,43,1068804668
7,21,Ticks_Linear_5,204,5,42,127,1068858708
7,21,Ticks_Linear_5,205,1,48,44,1069487476
7,21,Ticks_Linear_5,206,5,42,127,1069538612
7,21,Ticks_Linear_5,207,1,48,42,1070159812
7,21,Ticks_Linear_5,208,5,42,127,1070228824
7,21,Ticks_Linear_5,209,1,48,48,1070865472
7,21,Ticks_Linear_5,210,5,42,127,1070918988
7,21,Ticks_Linear_5,211,1,48,45,1071571364
7,21,Ticks_Linear_5,212,5,42,127,1071609372
7,21,Ticks_Linear_5,213,1,48,49,1072240160
7,21,Ticks_Linear_5,214,5,42,127,1072299364
7,21,Ticks_Linear_5,215,1,48,47,1072915488
7,21,Ticks_Linear_5,216,5,42,127,1072988476
7,21,Ticks_Linear_5,217,1,48,45,1073615832
7,21,Ticks_Linear_5,218,5,42,127,1073688828
7,21,Ticks_Linear_5,219,1,48,51,1074349196
7,21,Ticks_Linear_5,220,5,42,127,1074389320
7,21,Ticks_Linear_5,221,1,48,50,1075044592
7,21,Ticks_Linear_5,222,5,42,127,1075088748
7,21,Ticks_Linear_5,223,1,48,47,1075711168
7,21,Ticks_Linear_5,224,5,42,127,1075789388
7,21,Ticks_Linear_5,225,1,48,46,1076465056
7,21,Ticks_Linear_5,226,5,42,127,1076488544
7,21,Ticks_Linear_5,227,1,48,51,1077147340
7,21,Ticks_Linear_5,228,5,42,127,1077199300
7,21,Ticks_Linear_5,229,1,48,52,1077822072
7,21,Ticks_Linear_5,230,5,42,127,1077908760
7,21,Ticks_Linear_5,231,1,48,46,1078506700
7,21,Ticks_Linear_5,232,5,42,127,1078618452
7,21,Ticks_Linear_5,233,1,48,44,1079241264
7,21,Ticks_Linear_5,234,5,42,127,1079329296
7,21,Ticks_Linear_5,235,1,48,47,1080005256
7,21,Ticks_Linear_5,236,5,42,127,1080038708
7,21,Ticks_Linear_5,237,1,48,48,1080724008
7,21,Ticks_Linear_5,238,5,42,127,1080758604
7,21,Ticks_Linear_5,239,1,48,50,1081466736
7,21,Ticks_Linear_5,240,5,42,127,1081478396
7,21,Ticks_Linear_5,241,1,48,48,1082188368
7,21,Ticks_Linear_5,242,5,42,127,1082199412
7,21,Ticks_Linear_5,243,1,48,46,1082900092
7,21,Ticks_Linear_5,244,5,42,127,1082919232
7,21,Ticks_Linear_5,245,1,48,50,1083627780
7,21,Ticks_Linear_5,246,5,42,127,1083639052
7,21,Ticks_Linear_5,247,1,48,46,1084312596
7,21,Ticks_Linear_5,248,5,42,127,1084369352
7,21,Ticks_Linear_5,249,1,48,48,1085043796
7,21,Ticks_Linear_5,250,5,42,127,1085099256
7,21,Ticks_Linear_5,251,1,48,48,1085761596
7,21,Ticks_Linear_5,252,5,42,127,1085828584
7,21,Ticks_Linear_5,253,1,48,48,1086536516
7,21,Ticks_Linear_5,254,5,42,127,1086558736
7,21,Ticks_Linear_5,255,5,42,127,1087288596
7,21,Ticks_Linear_5,256,1,48,50,1087298984
7,21,Ticks_Linear_5,257,1,48,50,1088025660
7,21,Ticks_Linear_5,258,5,42,127,1088029000
7,21,Ticks_Linear_5,259,1,48,47,1088765172
7,21,Ticks_Linear_5,260,5,42,127,1088769412
7,21,Ticks_Linear_5,261,1,48,46,1089446920
7,21,Ticks_Linear_5,262,5,42,127,1089508776
7,21,Ticks_Linear_5,263,1,48,46,1090193252
7,21,Ticks_Linear_5,264,5,42,127,1090249260
7,21,Ticks_Linear_5,265,1,48,50,1090962872
7,21,Ticks_Linear_5,266,5,42,127,1090989572
7,21,Ticks_Linear_5,267,1,48,48,1091653232
7,21,Ticks_Linear_5,268,5,42,127,1091749208
7,21,Ticks_Linear_5,269,1,48,44,1092445912
7,21,Ticks_Linear_5,270,5,42,127,1092498980
7,21,Ticks_Linear_5,271,1,48,40,1093210072
7,21,Ticks_Linear_5,272,5,42,127,1093249352
7,21,Ticks_Linear_5,273,1,48,48,1093938508
7,21,Ticks_Linear_5,274,5,42,127,1093999204
7,21,Ticks_Linear_5,275,1,48,42,1094683628
7,21,Ticks_Linear_5,276,5,42,127,1094748456
7,21,Ticks_Linear_5,277,1,48,42,1095392068
7,21,Ticks_Linear_5,278,5,42,127,1095509296
7,21,Ticks_Linear_5,279,1,48,40,1096208724
7,21,Ticks_Linear_5,280,5,42,127,1096269120
7,21,Ticks_Linear_5,281,1,48,45,1096981856
7,21,Ticks_Linear_5,282,5,42,127,1097029000
7,21,Ticks_Linear_5,283,1,48,43,1097701148
7,21,Ticks_Linear_5,284,5,42,127,1097788884
7,21,Ticks_Linear_5,285,1,48,47,1098497952
7,21,Ticks_Linear_5,286,5,42,127,1098548544
7,21,Ticks_Linear_5,287,1,48,45,1099273856
7,21,Ticks_Linear_5,288,5,42,127,1099318536
7,21,Ticks_Linear_5,289,1,48,44,1099964992
7,21,Ticks_Linear_5,290,5,42,127,1100088740
7,21,Ticks_Linear_5,291,1,48,44,1100767424
7,21,Ticks_Linear_5,292,5,42,127,1100858968
7,21,Ticks_Linear_5,293,1,48,40,1101609900
7,21,Ticks_Linear_5,294,5,42,127,1101628888
7,21,Ticks_Linear_5,295,1,48,35,1102338192
7,21,Ticks_Linear_5,296,5,42,127,1102399184
7,21,Ticks_Linear_5,297,1,48,47,1103089088
7,21,Ticks_Linear_5,298,5,42,127,1103179212
7,21,Ticks_Linear_5,299,1,48,47,1103904828
7,21,Ticks_Linear_5,300,5,42,127,1103959316
7,21,Ticks_Linear_5,301,1,48,44,1104704924
7,21,Ticks_Linear_5,302,5,42,127,1104738820
7,21,Ticks_Linear_5,303,1,48,39,1105459120
7,21,Ticks_Linear_5,304,5,42,127,1105519144
7,21,Ticks_Linear_5,305,5,42,127,1106299256
7,21,Ticks_Linear_5,306,1,48,47,1106304468
7,21,Ticks_Linear_5,307,1,48,42,1107053996
7,21,Ticks_Linear_5,308,5,42,127,1107089012
7,21,Ticks_Linear_5,309,1,48,41,1107847960
7,21,Ticks_Linear_5,310,5,42,127,1107879224
7,21,Ticks_Linear_5,311,1,48,43,1108636360
7,21,Ticks_Linear_5,312,5,42,127,1108669012
7,21,Ticks_Linear_5,313,5,42,127,1109459308
7,21,Ticks_Linear_5,314,1,48,45,1109500768
7,21,Ticks_Linear_5,315,1,48,39,1110238544
7,21,Ticks_Linear_5,316,5,42,127,1110248916
7,21,Ticks_Linear_5,317,1,48,38,1110935184
7,21,Ticks_Linear_5,318,5,42,127,1111048548
7,21,Ticks_Linear_5,319,1,48,46,1111799196
7,21,Ticks_Linear_5,320,5,42,127,1111849332
7,21,Ticks_Linear_5,321,5,42,127,1112649140
7,21,Ticks_Linear_5,322,1,48,46,1112659152
7,21,Ticks_Linear_5,323,1,48,40,1113433684
7,21,Ticks_Linear_5,324,5,42,127,1113448856
7,21,Ticks_Linear_5,325,1,48,42,1114222324
7,21,Ticks_Linear_5,326,5,42,127,1114248656
7,21,Ticks_Linear_5,327,1,48,37,1114999892
7,21,Ticks_Linear_5,328,5,42,127,1115058740
7,21,Ticks_Linear_5,329,1,48,37,1115818484
7,21,Ticks_Linear_5,330,5,42,127,1115868720
7,21,Ticks_Linear_5,331,1,48,35,1116606012
7,21,Ticks_Linear_5,332,5,42,127,1116678776
7,21,Ticks_Linear_5,333,1,48,40,1117475308
7,21,Ticks_Linear_5,334,5,42,127,1117488612
7,21,Ticks_Linear_5,335,5,42,127,1118298528
7,21,Ticks_Linear_5,336,1,48,46,1118302764
7,21,Ticks_Linear_5,0,9999,9999,9999,9999,1009096824
7,21,Ticks_Linear_5,1,9999,9999,9999,9999,1009577048
7,21,Ticks_Linear_5,2,9999,9999,9999,9999,1010056252
7,21,Ticks_Linear_5,3,9999,9999,9999,9999,1010536568
7,21,Ticks_Linear_5,4,9999,9999,9999,9999,1011016796
7,21,Ticks_Linear_5,5,9999,9999,9999,9999,1011506240
7,21,Ticks_Linear_5,6,9999,9999,9999,9999,1011996728
7,21,Ticks_Linear_5,7,9999,9999,9999,9999,1012486252
7,21,Ticks_Linear_5,8,9999,9999,9999,9999,1012976736
7,21,Ticks_Linear_5,9,9999,9999,9999,9999,1013466196
7,21,Ticks_Linear_5,10,9999,9999,9999,9999,1013966920
7,21,Ticks_Linear_5,11,9999,9999,9999,9999,1014466616
7,21,Ticks_Linear_5,12,9999,9999,9999,9999,1014966392
7,21,Ticks_Linear_5,13,9999,9999,9999,9999,1015467112
7,21,Ticks_Linear_5,14,9999,9999,9999,9999,1015977072
7,21,Ticks_Linear_5,15,9999,9999,9999,9999,1016487032
7,21,Ticks_Linear_5,16,9999,9999,9999,9999,1016996988
7,21,Ticks_Linear_5,17,9999,9999,9999,9999,1017506872
7,21,Ticks_Linear_5,18,9999,9999,9999,9999,1018016832
7,21,Ticks_Linear_5,19,9999,9999,9999,9999,1018526792
7,21,Ticks_Linear_5,20,9999,9999,9999,9999,1019047012
7,21,Ticks_Linear_5,21,9999,9999,9999,9999,1019566184
7,21,Ticks_Linear_5,22,9999,9999,9999,9999,1020086352
7,21,Ticks_Linear_5,23,9999,9999,9999,9999,1020606568
7,21,Ticks_Linear_5,24,9999,9999,9999,9999,1021126784
7,21,Ticks_Linear_5,25,9999,9999,9999,9999,1021656140
7,21,Ticks_Linear_5,26,9999,9999,9999,9999,1022186620
7,21,Ticks_Linear_5,27,9999,9999,9999,9999,1022717020
7,21,Ticks_Linear_5,28,9999,9999,9999,9999,1023246452
7,21,Ticks_Linear_5,29,9999,9999,9999,9999,1023776852
7,21,Ticks_Linear_5,30,9999,9999,9999,9999,1024316544
7,21,Ticks_Linear_5,31,9999,9999,9999,9999,1024856156
7,21,Ticks_Linear_5,32,9999,9999,9999,9999,1025396820
7,21,Ticks_Linear_5,33,9999,9999,9999,9999,1025936508
7,21,Ticks_Linear_5,34,9999,9999,9999,9999,1026476124
7,21,Ticks_Linear_5,35,9999,9999,9999,9999,1027027068
7,21,Ticks_Linear_5,36,9999,9999,9999,9999,1027576944
7,21,Ticks_Linear_5,37,9999,9999,9999,9999,1028126824
7,21,Ticks_Linear_5,38,9999,9999,9999,9999,1028676700
7,21,Ticks_Linear_5,39,9999,9999,9999,9999,1029226572
7,21,Ticks_Linear_5,40,9999,9999,9999,9999,1029786700
7,21,Ticks_Linear_5,41,9999,9999,9999,9999,1030346856
7,21,Ticks_Linear_5,42,9999,9999,9999,9999,1030906992
7,21,Ticks_Linear_5,43,9999,9999,9999,9999,1031467132
7,21,Ticks_Linear_5,44,9999,9999,9999,9999,1032036476
7,21,Ticks_Linear_5,45,9999,9999,9999,9999,1032606796
7,21,Ticks_Linear_5,46,9999,9999,9999,9999,1033176160
7,21,Ticks_Linear_5,47,9999,9999,9999,9999,1033746552
7,21,Ticks_Linear_5,48,9999,9999,9999,9999,1034316876
7,21,Ticks_Linear_5,49,9999,9999,9999,9999,1034886220
7,21,Ticks_Linear_5,50,9999,9999,9999,9999,1035466820
7,21,Ticks_Linear_5,51,9999,9999,9999,9999,1036046420
7,21,Ticks_Linear_5,52,9999,9999,9999,9999,1036627024
7,21,Ticks_Linear_5,53,9999,9999,9999,9999,1037206608
7,21,Ticks_Linear_5,54,9999,9999,9999,9999,1037786228
7,21,Ticks_Linear_5,55,9999,9999,9999,9999,1038377068
7,21,Ticks_Linear_5,56,9999,9999,9999,9999,1038966856
7,21,Ticks_Linear_5,57,9999,9999,9999,9999,1039556672
7,21,Ticks_Linear_5,58,9999,9999,9999,9999,1040146540
7,21,Ticks_Linear_5,59,9999,9999,9999,9999,1040736332
7,21,Ticks_Linear_5,60,9999,9999,9999,9999,1041336400
7,21,Ticks_Linear_5,61,9999,9999,9999,9999,1041936448
7,21,Ticks_Linear_5,62,9999,9999,9999,9999,1042536576
7,21,Ticks_Linear_5,63,9999,9999,9999,9999,1043136568
7,21,Ticks_Linear_5,64,9999,9999,9999,9999,1043736692
7,21,Ticks_Linear_5,65,9999,9999,9999,9999,1044347000
7,21,Ticks_Linear_5,66,9999,9999,9999,9999,1044956284
7,21,Ticks_Linear_5,67,9999,9999,9999,9999,1045566592
7,21,Ticks_Linear_5,68,9999,9999,9999,9999,1046176828
7,21,Ticks_Linear_5,69,9999,9999,9999,9999,1046786112
7,21,Ticks_Linear_5,70,9999,9999,9999,9999,1047406684
7,21,Ticks_Linear_5,71,9999,9999,9999,9999,1048026228
7,21,Ticks_Linear_5,72,9999,9999,9999,9999,1048646724
7,21,Ticks_Linear_5,73,9999,9999,9999,9999,1049266268
7,21,Ticks_Linear_5,74,9999,9999,9999,9999,1049886836
7,21,Ticks_Linear_5,75,9999,9999,9999,9999,1050516608
7,21,Ticks_Linear_5,76,9999,9999,9999,9999,1051146340
7,21,Ticks_Linear_5,77,9999,9999,9999,9999,1051776120
7,21,Ticks_Linear_5,78,9999,9999,9999,9999,1052406896
7,21,Ticks_Linear_5,79,9999,9999,9999,9999,1053036604
7,21,Ticks_Linear_5,80,9999,9999,9999,9999,1053676668
7,21,Ticks_Linear_5,81,9999,9999,9999,9999,1054316628
7,21,Ticks_Linear_5,82,9999,9999,9999,9999,1054956616
7,21,Ticks_Linear_5,83,9999,9999,9999,9999,1055596656
7,21,Ticks_Linear_5,84,9999,9999,9999,9999,1056236644
7,21,Ticks_Linear_5,85,9999,9999,9999,9999,1056886864
7,21,Ticks_Linear_5,86,9999,9999,9999,9999,1057536064
7,21,Ticks_Linear_5,87,9999,9999,9999,9999,1058186364
7,21,Ticks_Linear_5,88,9999,9999,9999,9999,1058836548
7,21,Ticks_Linear_5,89,9999,9999,9999,9999,1059486840
7,21,Ticks_Linear_5,90,9999,9999,9999,9999,1060146300
7,21,Ticks_Linear_5,91,9999,9999,9999,9999,1060806732
7,21,Ticks_Linear_5,92,9999,9999,9999,9999,1061466236
7,21,Ticks_Linear_5,93,9999,9999,9999,9999,1062126668
7,21,Ticks_Linear_5,94,9999,9999,9999,9999,1062786104
7,21,Ticks_Linear_5,95,9999,9999,9999,9999,1063456872
7,21,Ticks_Linear_5,96,9999,9999,9999,9999,1064126592
7,21,Ticks_Linear_5,97,9999,9999,9999,9999,1064796284
7,21,Ticks_Linear_5,98,9999,9999,9999,9999,1065466976
7,21,Ticks_Linear_5,99,9999,9999,9999,9999,1066136640
7,21,Ticks_Linear_5,100,9999,9999,9999,9999,1066816576
7,21,Ticks_Linear_5,101,9999,9999,9999,9999,1067496556
7,21,Ticks_Linear_5,102,9999,9999,9999,9999,1068176508
7,21,Ticks_Linear_5,103,9999,9999,9999,9999,1068856412
7,21,Ticks_Linear_5,104,9999,9999,9999,9999,1069536312
7,21,Ticks_Linear_5,105,9999,9999,9999,9999,1070226528
7,21,Ticks_Linear_5,106,9999,9999,9999,9999,1070916688
7,21,Ticks_Linear_5,107,9999,9999,9999,9999,1071606852
7,21,Ticks_Linear_5,108,9999,9999,9999,9999,1072297064
7,21,Ticks_Linear_5,109,9999,9999,9999,9999,1072986180
7,21,Ticks_Linear_5,110,9999,9999,9999,9999,1073686604
7,21,Ticks_Linear_5,111,9999,9999,9999,9999,1074387024
7,21,Ticks_Linear_5,112,9999,9999,9999,9999,1075086448
7,21,Ticks_Linear_5,113,9999,9999,9999,9999,1075786868
7,21,Ticks_Linear_5,114,9999,9999,9999,9999,1076486244
7,21,Ticks_Linear_5,115,9999,9999,9999,9999,1077196928
7,21,Ticks_Linear_5,116,9999,9999,9999,9999,1077906536
7,21,Ticks_Linear_5,117,9999,9999,9999,9999,1078616156
7,21,Ticks_Linear_5,118,9999,9999,9999,9999,1079326848
7,21,Ticks_Linear_5,119,9999,9999,9999,9999,1080036408
7,21,Ticks_Linear_5,120,9999,9999,9999,9999,1080756304
7,21,Ticks_Linear_5,121,9999,9999,9999,9999,1081476172
7,21,Ticks_Linear_5,122,9999,9999,9999,9999,1082197116
7,21,Ticks_Linear_5,123,9999,9999,9999,9999,1082916932
7,21,Ticks_Linear_5,124,9999,9999,9999,9999,1083636828
7,21,Ticks_Linear_5,125,9999,9999,9999,9999,1084366904
7,21,Ticks_Linear_5,126,9999,9999,9999,9999,1085097032
7,21,Ticks_Linear_5,127,9999,9999,9999,9999,1085826136
7,21,Ticks_Linear_5,128,9999,9999,9999,9999,1086556288
7,21,Ticks_Linear_5,129,9999,9999,9999,9999,1087286372
7,21,Ticks_Linear_5,130,9999,9999,9999,9999,1088026704
7,21,Ticks_Linear_5,131,9999,9999,9999,9999,1088767040
7,21,Ticks_Linear_5,132,9999,9999,9999,9999,1089506404
7,21,Ticks_Linear_5,133,9999,9999,9999,9999,1090246740
7,21,Ticks_Linear_5,134,9999,9999,9999,9999,1090987124
7,21,Ticks_Linear_5,135,9999,9999,9999,9999,1091746908
7,21,Ticks_Linear_5,136,9999,9999,9999,9999,1092496460
7,21,Ticks_Linear_5,137,9999,9999,9999,9999,1093247056
7,21,Ticks_Linear_5,138,9999,9999,9999,9999,1093996604
7,21,Ticks_Linear_5,139,9999,9999,9999,9999,1094746232
7,21,Ticks_Linear_5,140,9999,9999,9999,9999,1095507072
7,21,Ticks_Linear_5,141,9999,9999,9999,9999,1096266820
7,21,Ticks_Linear_5,142,9999,9999,9999,9999,1097026628
7,21,Ticks_Linear_5,143,9999,9999,9999,9999,1097786436
7,21,Ticks_Linear_5,144,9999,9999,9999,9999,1098546244
7,21,Ticks_Linear_5,145,9999,9999,9999,9999,1099316312
7,21,Ticks_Linear_5,146,9999,9999,9999,9999,1100086368
7,21,Ticks_Linear_5,147,9999,9999,9999,9999,1100856448
7,21,Ticks_Linear_5,148,9999,9999,9999,9999,1101626444
7,21,Ticks_Linear_5,149,9999,9999,9999,9999,1102396512
7,21,Ticks_Linear_5,150,9999,9999,9999,9999,1103176764
7,21,Ticks_Linear_5,151,9999,9999,9999,9999,1103957092
7,21,Ticks_Linear_5,152,9999,9999,9999,9999,1104736372
7,21,Ticks_Linear_5,153,9999,9999,9999,9999,1105516624
7,21,Ticks_Linear_5,154,9999,9999,9999,9999,1106296956
7,21,Ticks_Linear_5,155,9999,9999,9999,9999,1107086416
7,21,Ticks_Linear_5,156,9999,9999,9999,9999,1107876928
7,21,Ticks_Linear_5,157,9999,9999,9999,9999,1108666492
7,21,Ticks_Linear_5,158,9999,9999,9999,9999,1109457008
7,21,Ticks_Linear_5,159,9999,9999,9999,9999,1110246468
7,21,Ticks_Linear_5,160,9999,9999,9999,9999,1111046252
7,21,Ticks_Linear_5,161,9999,9999,9999,9999,1111847036
7,21,Ticks_Linear_5,162,9999,9999,9999,9999,1112646764
7,21,Ticks_Linear_5,163,9999,9999,9999,9999,1113446484
7,21,Ticks_Linear_5,164,9999,9999,9999,9999,1114246208
7,21,Ticks_Linear_5,165,9999,9999,9999,9999,1115056220
7,21,Ticks_Linear_5,166,9999,9999,9999,9999,1115866200
7,21,Ticks_Linear_5,167,9999,9999,9999,9999,1116676184
7,21,Ticks_Linear_5,168,9999,9999,9999,9999,1117486164
7,21,Ticks_Linear_5,169,9999,9999,9999,9999,1118296152
8,20,Ticks_Linear_8,0,5,42,127,1128239612
8,20,Ticks_Linear_8,1,5,42,127,1129059804
8,20,Ticks_Linear_8,2,5,42,127,1129879992
8,20,Ticks_Linear_8,3,1,48,53,1129917592
8,20,Ticks_Linear_8,4,1,48,53,1130684404
8,20,Ticks_Linear_8,5,5,42,127,1130700180
8,20,Ticks_Linear_8,6,1,48,43,1130711820
8,20,Ticks_Linear_8,7,1,48,51,1131500816
8,20,Ticks_Linear_8,8,5,42,127,1131520328
8,20,Ticks_Linear_8,9,1,48,52,1132329184
8,20,Ticks_Linear_8,10,5,42,127,1132330756
8,20,Ticks_Linear_8,11,5,42,127,1133140224
8,20,Ticks_Linear_8,12,1,48,49,1133155920
8,20,Ticks_Linear_8,13,1,48,48,1133939376
8,20,Ticks_Linear_8,14,5,42,127,1133950200
8,20,Ticks_Linear_8,15,1,48,45,1134751452
8,20,Ticks_Linear_8,16,5,42,127,1134760332
8,20,Ticks_Linear_8,17,5,42,127,1135570272
8,20,Ticks_Linear_8,18,1,48,44,1135571240
8,20,Ticks_Linear_8,19,5,42,127,1136369924
8,20,Ticks_Linear_8,20,1,48,43,1136403744
8,20,Ticks_Linear_8,21,5,42,127,1137169796
8,20,Ticks_Linear_8,22,1,48,43,1137183028
8,20,Ticks_Linear_8,23,5,42,127,1137969668
8,20,Ticks_Linear_8,24,1,48,50,1137983344
8,20,Ticks_Linear_8,25,5,42,127,1138770292
8,20,Ticks_Linear_8,26,1,48,49,1138786136
8,20,Ticks_Linear_8,27,5,42,127,1139569944
8,20,Ticks_Linear_8,28,1,48,44,1139570908
8,20,Ticks_Linear_8,29,5,42,127,1140359704
8,20,Ticks_Linear_8,30,1,48,41,1140381320
8,20,Ticks_Linear_8,31,1,48,42,1141142904
8,20,Ticks_Linear_8,32,5,42,127,1141150060
8,20,Ticks_Linear_8,33,5,42,127,1141939556
8,20,Ticks_Linear_8,34,1,48,39,1141965960
8,20,Ticks_Linear_8,35,5,42,127,1142730068
8,20,Ticks_Linear_8,36,1,48,44,1142747424
8,20,Ticks_Linear_8,37,1,48,39,1143508256
8,20,Ticks_Linear_8,38,5,42,127,1143519600
8,20,Ticks_Linear_8,39,5,42,127,1144299860
8,20,Ticks_Linear_8,40,1,48,40,1144342364
8,20,Ticks_Linear_8,41,1,48,39,1145071152
8,20,Ticks_Linear_8,42,5,42,127,1145080180
8,20,Ticks_Linear_8,43,5,42,127,1145859616
8,20,Ticks_Linear_8,44,1,48,43,1145873740
8,20,Ticks_Linear_8,45,1,48,45,1146612260
8,20,Ticks_Linear_8,46,5,42,127,1146639640
8,20,Ticks_Linear_8,47,5,42,127,1147419900
8,20,Ticks_Linear_8,48,1,48,46,1147428940
8,20,Ticks_Linear_8,49,5,42,127,1148189964
8,20,Ticks_Linear_8,50,1,48,46,1148206112
8,20,Ticks_Linear_8,51,5,42,127,1148960180
8,20,Ticks_Linear_8,52,1,48,42,1148983520
8,20,Ticks_Linear_8,53,5,42,127,1149730252
8,20,Ticks_Linear_8,54,1,48,44,1149740412
8,20,Ticks_Linear_8,55,1,48,40,1150470544
8,20,Ticks_Linear_8,56,5,42,127,1150500164
8,20,Ticks_Linear_8,57,1,48,40,1151203616
8,20,Ticks_Linear_8,58,5,42,127,1151270532
8,20,Ticks_Linear_8,59,5,42,127,1152030048
8,20,Ticks_Linear_8,60,1,48,38,1152040804
8,20,Ticks_Linear_8,61,5,42,127,1152789860
8,20,Ticks_Linear_8,62,1,48,43,1152824724
8,20,Ticks_Linear_8,63,1,48,43,1153526024
8,20,Ticks_Linear_8,64,5,42,127,1153549660
8,20,Ticks_Linear_8,65,1,48,44,1154289360
8,20,Ticks_Linear_8,66,5,42,127,1154309620
8,20,Ticks_Linear_8,67,1,48,42,1155069504
8,20,Ticks_Linear_8,68,5,42,127,1155071224
8,20,Ticks_Linear_8,69,5,42,127,1155819808
8,20,Ticks_Linear_8,70,1,48,41,1155822780
8,20,Ticks_Linear_8,71,1,48,43,1156565260
8,20,Ticks_Linear_8,72,5,42,127,1156569576
8,20,Ticks_Linear_8,73,1,48,41,1157315932
8,20,Ticks_Linear_8,74,5,42,127,1157320172
8,20,Ticks_Linear_8,75,1,48,45,1158067208
8,20,Ticks_Linear_8,76,5,42,127,1158069648
8,20,Ticks_Linear_8,77,5,42,127,1158820300
8,20,Ticks_Linear_8,78,1,48,46,1158861116
8,20,Ticks_Linear_8,79,5,42,127,1159559664
8,20,Ticks_Linear_8,80,1,48,43,1159560632
8,20,Ticks_Linear_8,81,1,48,37,1160237952
8,20,Ticks_Linear_8,82,5,42,127,1160299920
8,20,Ticks_Linear_8,83,1,48,44,1160964500
8,20,Ticks_Linear_8,84,5,42,127,1161040408
8,20,Ticks_Linear_8,85,1,48,44,1161769548
8,20,Ticks_Linear_8,86,5,42,127,1161779696
8,20,Ticks_Linear_8,87,1,48,47,1162518000
8,20,Ticks_Linear_8,88,5,42,127,1162519812
8,20,Ticks_Linear_8,89,1,48,45,1163233220
8,20,Ticks_Linear_8,90,5,42,127,1163250188
8,20,Ticks_Linear_8,91,1,48,47,1163932572
8,20,Ticks_Linear_8,92,5,42,127,1163980344
8,20,Ticks_Linear_8,93,1,48,48,1164679284
8,20,Ticks_Linear_8,94,5,42,127,1164710248
8,20,Ticks_Linear_8,95,5,42,127,1165440256
8,20,Ticks_Linear_8,96,1,48,47,1165445396
8,20,Ticks_Linear_8,97,1,48,51,1166149396
8,20,Ticks_Linear_8,98,5,42,127,1166169508
8,20,Ticks_Linear_8,99,1,48,46,1166832144
8,20,Ticks_Linear_8,100,5,42,127,1166890224
8,20,Ticks_Linear_8,101,1,48,40,1167565808
8,20,Ticks_Linear_8,102,5,42,127,1167610488
8,20,Ticks_Linear_8,103,1,48,44,1168309900
8,20,Ticks_Linear_8,104,5,42,127,1168330236
8,20,Ticks_Linear_8,105,5,42,127,1169050260
8,20,Ticks_Linear_8,106,1,48,40,1169057196
8,20,Ticks_Linear_8,107,1,48,38,1169755116
8,20,Ticks_Linear_8,108,5,42,127,1169769772
8,20,Ticks_Linear_8,109,1,48,40,1170458700
8,20,Ticks_Linear_8,110,5,42,127,1170479628
8,20,Ticks_Linear_8,111,1,48,43,1171175440
8,20,Ticks_Linear_8,112,5,42,127,1171190236
8,20,Ticks_Linear_8,113,1,48,39,1171866472
8,20,Ticks_Linear_8,114,5,42,127,1171899648
8,20,Ticks_Linear_8,115,1,48,37,1172534848
8,20,Ticks_Linear_8,116,5,42,127,1172610380
8,20,Ticks_Linear_8,117,1,48,34,1173270996
8,20,Ticks_Linear_8,118,5,42,127,1173330272
8,20,Ticks_Linear_8,119,1,48,47,1174027988
8,20,Ticks_Linear_8,120,5,42,127,1174029648
8,20,Ticks_Linear_8,121,5,42,127,1174730228
8,20,Ticks_Linear_8,122,1,48,42,1174775724
8,20,Ticks_Linear_8,123,5,42,127,1175429428
8,20,Ticks_Linear_8,124,1,48,39,1175460256
8,20,Ticks_Linear_8,125,1,48,42,1176100596
8,20,Ticks_Linear_8,126,5,42,127,1176129768
8,20,Ticks_Linear_8,127,1,48,43,1176795472
8,20,Ticks_Linear_8,128,5,42,127,1176830264
8,20,Ticks_Linear_8,129,5,42,127,1177519536
8,20,Ticks_Linear_8,130,1,48,41,1177546992
8,20,Ticks_Linear_8,131,5,42,127,1178209528
8,20,Ticks_Linear_8,132,1,48,42,1178221032
8,20,Ticks_Linear_8,133,1,48,38,1178895216
8,20,Ticks_Linear_8,134,5,42,127,1178900056
8,20,Ticks_Linear_8,135,1,48,45,1179558556
8,20,Ticks_Linear_8,136,5,42,127,1179590144
8,20,Ticks_Linear_8,137,1,48,46,1180273420
8,20,Ticks_Linear_8,138,5,42,127,1180280060
8,20,Ticks_Linear_8,139,5,42,127,1180960116
8,20,Ticks_Linear_8,140,1,48,48,1180972224
8,20,Ticks_Linear_8,141,5,42,127,1181640244
8,20,Ticks_Linear_8,142,1,48,44,1181657676
8,20,Ticks_Linear_8,143,5,42,127,1182320272
8,20,Ticks_Linear_8,144,1,48,45,1182348340
8,20,Ticks_Linear_8,145,5,42,127,1183000104
8,20,Ticks_Linear_8,146,1,48,46,1183040368
8,20,Ticks_Linear_8,147,5,42,127,1183679784
8,20,Ticks_Linear_8,148,1,48,45,1183680752
8,20,Ticks_Linear_8,149,1,48,48,1184310788
8,20,Ticks_Linear_8,150,5,42,127,1184349548
8,20,Ticks_Linear_8,151,1,48,45,1184992108
8,20,Ticks_Linear_8,152,5,42,127,1185020240
8,20,Ticks_Linear_8,153,5,42,127,1185690236
8,20,Ticks_Linear_8,154,1,48,47,1185709192
8,20,Ticks_Linear_8,155,5,42,127,1186359656
8,20,Ticks_Linear_8,156,1,48,40,1186366592
8,20,Ticks_Linear_8,157,1,48,44,1187009112
8,20,Ticks_Linear_8,158,5,42,127,1187030268
8,20,Ticks_Linear_8,159,1,48,46,1187679332
8,20,Ticks_Linear_8,160,5,42,127,1187690076
8,20,Ticks_Linear_8,161,5,42,127,1188350216
8,20,Ticks_Linear_8,162,1,48,42,1188353708
8,20,Ticks_Linear_8,163,5,42,127,1189009652
8,20,Ticks_Linear_8,164,1,48,43,1189013140
8,20,Ticks_Linear_8,165,1,48,39,1189650264
8,20,Ticks_Linear_8,166,5,42,127,1189670152
8,20,Ticks_Linear_8,167,1,48,42,1190301088
8,20,Ticks_Linear_8,168,5,42,127,1190329688
8,20,Ticks_Linear_8,169,1,48,44,1190965632
8,20,Ticks_Linear_8,170,5,42,127,1190980056
8,20,Ticks_Linear_8,171,5,42,127,1191630164
8,20,Ticks_Linear_8,172,1,48,43,1191638608
8,20,Ticks_Linear_8,173,5,42,127,1192280312
8,20,Ticks_Linear_8,174,1,48,41,1192324468
8,20,Ticks_Linear_8,175,1,48,45,1192940144
8,20,Ticks_Linear_8,176,5,42,127,1192941332
8,20,Ticks_Linear_8,177,1,48,44,1193563360
8,20,Ticks_Linear_8,178,5,42,127,1193590136
8,20,Ticks_Linear_8,179,1,48,42,1194198416
8,20,Ticks_Linear_8,180,5,42,127,1194230052
8,20,Ticks_Linear_8,181,1,48,38,1194836344
8,20,Ticks_Linear_8,182,5,42,127,1194870240
8,20,Ticks_Linear_8,183,1,48,48,1195452148
8,20,Ticks_Linear_8,184,5,42,127,1195510080
8,20,Ticks_Linear_8,185,1,48,44,1196145052
8,20,Ticks_Linear_8,186,5,42,127,1196150192
8,20,Ticks_Linear_8,187,5,42,127,1196790040
8,20,Ticks_Linear_8,188,1,48,46,1196819072
8,20,Ticks_Linear_8,189,5,42,127,1197419968
8,20,Ticks_Linear_8,190,1,48,45,1197426976
8,20,Ticks_Linear_8,191,5,42,127,1198049624
8,20,Ticks_Linear_8,192,1,48,46,1198058064
8,20,Ticks_Linear_8,193,5,42,127,1198680448
8,20,Ticks_Linear_8,194,1,48,43,1198738388
8,20,Ticks_Linear_8,195,5,42,127,1199320512
8,20,Ticks_Linear_8,196,1,48,42,1199325796
8,20,Ticks_Linear_8,197,1,48,43,1199952708
8,20,Ticks_Linear_8,198,5,42,127,1199960392
8,20,Ticks_Linear_8,199,1,48,43,1200582516
8,20,Ticks_Linear_8,200,5,42,127,1200590200
8,20,Ticks_Linear_8,201,5,42,127,1201209948
8,20,Ticks_Linear_8,202,1,48,44,1201219816
8,20,Ticks_Linear_8,203,5,42,127,1201830292
8,20,Ticks_Linear_8,204,1,48,41,1201842048
8,20,Ticks_Linear_8,205,1,48,46,1202434804
8,20,Ticks_Linear_8,206,5,42,127,1202449756
8,20,Ticks_Linear_8,207,1,48,44,1203063684
8,20,Ticks_Linear_8,208,5,42,127,1203070248
8,20,Ticks_Linear_8,209,5,42,127,1203679768
8,20,Ticks_Linear_8,210,1,48,43,1203720484
8,20,Ticks_Linear_8,211,5,42,127,1204290072
8,20,Ticks_Linear_8,212,1,48,42,1204310944
8,20,Ticks_Linear_8,213,5,42,127,1204900232
8,20,Ticks_Linear_8,214,1,48,43,1204916628
8,20,Ticks_Linear_8,215,1,48,45,1205462884
8,20,Ticks_Linear_8,216,5,42,127,1205509584
8,20,Ticks_Linear_8,217,5,42,127,1206119828
8,20,Ticks_Linear_8,218,1,48,42,1206129168
8,20,Ticks_Linear_8,219,5,42,127,1206720124
8,20,Ticks_Linear_8,220,1,48,46,1206803220
8,20,Ticks_Linear_8,221,5,42,127,1207319876
8,20,Ticks_Linear_8,222,1,48,38,1207430460
8,20,Ticks_Linear_8,223,5,42,127,1207920000
8,20,Ticks_Linear_8,224,1,48,43,1208001028
8,20,Ticks_Linear_8,225,5,42,127,1208520148
8,20,Ticks_Linear_8,226,1,48,42,1208556888
8,20,Ticks_Linear_8,227,5,42,127,1209120124
8,20,Ticks_Linear_8,228,1,48,46,1209187264
8,20,Ticks_Linear_8,229,5,42,127,1209709912
8,20,Ticks_Linear_8,230,1,48,43,1209752796
8,20,Ticks_Linear_8,231,5,42,127,1210299948
8,20,Ticks_Linear_8,232,1,48,46,1210353768
8,20,Ticks_Linear_8,233,5,42,127,1210889740
8,20,Ticks_Linear_8,234,1,48,51,1210937724
8,20,Ticks_Linear_8,235,5,42,127,1211480504
8,20,Ticks_Linear_8,236,1,48,48,1211484816
8,20,Ticks_Linear_8,237,5,42,127,1212079528
8,20,Ticks_Linear_8,238,1,48,47,1212124580
8,20,Ticks_Linear_8,239,5,42,127,1212659956
8,20,Ticks_Linear_8,240,1,48,47,1212755108
8,20,Ticks_Linear_8,241,5,42,127,1213239932
8,20,Ticks_Linear_8,242,1,48,39,1213314120
8,20,Ticks_Linear_8,243,5,42,127,1213820288
8,20,Ticks_Linear_8,244,1,48,43,1213878408
8,20,Ticks_Linear_8,245,5,42,127,1214399768
8,20,Ticks_Linear_8,246,1,48,41,1214488864
8,20,Ticks_Linear_8,247,5,42,127,1214979600
8,20,Ticks_Linear_8,248,1,48,42,1215104112
8,20,Ticks_Linear_8,249,5,42,127,1215549992
8,20,Ticks_Linear_8,250,1,48,41,1215628152
8,20,Ticks_Linear_8,251,5,42,127,1216120160
8,20,Ticks_Linear_8,252,1,48,39,1216178876
8,20,Ticks_Linear_8,253,5,42,127,1216689460
8,20,Ticks_Linear_8,254,1,48,38,1216703584
8,20,Ticks_Linear_8,255,5,42,127,1217259776
8,20,Ticks_Linear_8,256,1,48,46,1217329252
8,20,Ticks_Linear_8,257,5,42,127,1217830172
8,20,Ticks_Linear_8,258,1,48,38,1217899416
8,20,Ticks_Linear_8,259,5,42,127,1218390304
8,20,Ticks_Linear_8,260,1,48,40,1218456996
8,20,Ticks_Linear_8,261,5,42,127,1218949688
8,20,Ticks_Linear_8,262,1,48,42,1218968092
8,20,Ticks_Linear_8,263,1,48,46,1219491796
8,20,Ticks_Linear_8,264,5,42,127,1219509840
8,20,Ticks_Linear_8,265,1,48,39,1220041176
8,20,Ticks_Linear_8,266,5,42,127,1220069972
8,20,Ticks_Linear_8,267,1,48,44,1220612840
8,20,Ticks_Linear_8,268,5,42,127,1220629812
8,20,Ticks_Linear_8,269,1,48,44,1221173280
8,20,Ticks_Linear_8,270,5,42,127,1221179908
8,20,Ticks_Linear_8,271,5,42,127,1221729864
8,20,Ticks_Linear_8,272,1,48,44,1221742568
8,20,Ticks_Linear_8,273,1,48,42,1222266576
8,20,Ticks_Linear_8,274,5,42,127,1222279732
8,20,Ticks_Linear_8,275,1,48,41,1222824172
8,20,Ticks_Linear_8,276,5,42,127,1222829556
8,20,Ticks_Linear_8,277,5,42,127,1223380560
8,20,Ticks_Linear_8,278,1,48,36,1223383004
8,20,Ticks_Linear_8,279,5,42,127,1223919952
8,20,Ticks_Linear_8,280,1,48,37,1223920916
8,20,Ticks_Linear_8,281,5,42,127,1224459644
8,20,Ticks_Linear_8,282,1,48,37,1224478564
8,20,Ticks_Linear_8,283,5,42,127,1225000376
8,20,Ticks_Linear_8,284,1,48,31,1225016748
8,20,Ticks_Linear_8,285,1,48,30,1225529236
8,20,Ticks_Linear_8,286,5,42,127,1225539988
8,20,Ticks_Linear_8,287,1,48,32,1226056716
8,20,Ticks_Linear_8,288,5,42,127,1226079904
8,20,Ticks_Linear_8,289,1,48,36,1226581064
8,20,Ticks_Linear_8,290,5,42,127,1226610012
8,20,Ticks_Linear_8,291,1,48,37,1227118580
8,20,Ticks_Linear_8,292,5,42,127,1227139740
8,20,Ticks_Linear_8,293,1,48,36,1227659244
8,20,Ticks_Linear_8,294,5,42,127,1227669844
8,20,Ticks_Linear_8,295,1,48,35,1228197872
8,20,Ticks_Linear_8,296,5,42,127,1228200248
8,20,Ticks_Linear_8,297,1,48,38,1228711512
8,20,Ticks_Linear_8,298,5,42,127,1228729776
8,20,Ticks_Linear_8,299,1,48,38,1229239476
8,20,Ticks_Linear_8,300,5,42,127,1229249848
8,20,Ticks_Linear_8,301,5,42,127,1229770072
8,20,Ticks_Linear_8,302,1,48,33,1229776932
8,20,Ticks_Linear_8,303,1,48,34,1230273168
8,20,Ticks_Linear_8,304,5,42,127,1230290360
8,20,Ticks_Linear_8,305,1,48,36,1230804396
8,20,Ticks_Linear_8,306,5,42,127,1230809684
8,20,Ticks_Linear_8,307,1,48,39,1231292864
8,20,Ticks_Linear_8,308,5,42,127,1231329828
8,20,Ticks_Linear_8,309,5,42,127,1231839796
8,20,Ticks_Linear_8,310,1,48,41,1231847940
8,20,Ticks_Linear_8,311,5,42,127,1232349532
8,20,Ticks_Linear_8,312,1,48,43,1232389944
8,20,Ticks_Linear_8,313,5,42,127,1232859492
8,20,Ticks_Linear_8,314,1,48,41,1232866648
8,20,Ticks_Linear_8,315,1,48,41,1233358844
8,20,Ticks_Linear_8,316,5,42,127,1233369592
8,20,Ticks_Linear_8,317,1,48,40,1233828788
8,20,Ticks_Linear_8,318,5,42,127,1233880524
8,20,Ticks_Linear_8,319,5,42,127,1234390564
8,20,Ticks_Linear_8,320,1,48,43,1234411136
8,20,Ticks_Linear_8,321,5,42,127,1234890040
8,20,Ticks_Linear_8,322,1,48,37,1234920420
8,20,Ticks_Linear_8,323,5,42,127,1235389816
8,20,Ticks_Linear_8,324,1,48,34,1235400876
8,20,Ticks_Linear_8,325,1,48,33,1235864652
8,20,Ticks_Linear_8,326,5,42,127,1235889732
8,20,Ticks_Linear_8,327,1,48,33,1236373564
8,20,Ticks_Linear_8,328,5,42,127,1236390380
8,20,Ticks_Linear_8,329,1,48,32,1236817836
8,20,Ticks_Linear_8,330,5,42,127,1236879744
8,20,Ticks_Linear_8,331,5,42,127,1237370092
8,20,Ticks_Linear_8,332,1,48,39,1237371056
8,20,Ticks_Linear_8,333,5,42,127,1237859684
8,20,Ticks_Linear_8,334,1,48,48,1237891336
8,20,Ticks_Linear_8,335,5,42,127,1238350168
8,20,Ticks_Linear_8,336,1,48,42,1238378904
8,20,Ticks_Linear_8,337,5,42,127,1238839760
8,20,Ticks_Linear_8,0,9999,9999,9999,9999,1128237168
8,20,Ticks_Linear_8,1,9999,9999,9999,9999,1129057356
8,20,Ticks_Linear_8,2,9999,9999,9999,9999,1129877620
8,20,Ticks_Linear_8,3,9999,9999,9999,9999,1130697804
8,20,Ticks_Linear_8,4,9999,9999,9999,9999,1131518028
8,20,Ticks_Linear_8,5,9999,9999,9999,9999,1132328016
8,20,Ticks_Linear_8,6,9999,9999,9999,9999,1133138000
8,20,Ticks_Linear_8,7,9999,9999,9999,9999,1133947976
8,20,Ticks_Linear_8,8,9999,9999,9999,9999,1134757960
8,20,Ticks_Linear_8,9,9999,9999,9999,9999,1135567972
8,20,Ticks_Linear_8,10,9999,9999,9999,9999,1136367696
8,20,Ticks_Linear_8,11,9999,9999,9999,9999,1137167424
8,20,Ticks_Linear_8,12,9999,9999,9999,9999,1137967224
8,20,Ticks_Linear_8,13,9999,9999,9999,9999,1138767996
8,20,Ticks_Linear_8,14,9999,9999,9999,9999,1139567716
8,20,Ticks_Linear_8,15,9999,9999,9999,9999,1140357184
8,20,Ticks_Linear_8,16,9999,9999,9999,9999,1141147760
8,20,Ticks_Linear_8,17,9999,9999,9999,9999,1141937256
8,20,Ticks_Linear_8,18,9999,9999,9999,9999,1142727768
8,20,Ticks_Linear_8,19,9999,9999,9999,9999,1143517300
8,20,Ticks_Linear_8,20,9999,9999,9999,9999,1144297560
8,20,Ticks_Linear_8,21,9999,9999,9999,9999,1145077880
8,20,Ticks_Linear_8,22,9999,9999,9999,9999,1145857092
8,20,Ticks_Linear_8,23,9999,9999,9999,9999,1146637416
8,20,Ticks_Linear_8,24,9999,9999,9999,9999,1147417672
8,20,Ticks_Linear_8,25,9999,9999,9999,9999,1148187740
8,20,Ticks_Linear_8,26,9999,9999,9999,9999,1148957808
8,20,Ticks_Linear_8,27,9999,9999,9999,9999,1149727804
8,20,Ticks_Linear_8,28,9999,9999,9999,9999,1150497864
8,20,Ticks_Linear_8,29,9999,9999,9999,9999,1151267932
8,20,Ticks_Linear_8,30,9999,9999,9999,9999,1152027748
8,20,Ticks_Linear_8,31,9999,9999,9999,9999,1152787560
8,20,Ticks_Linear_8,32,9999,9999,9999,9999,1153547364
8,20,Ticks_Linear_8,33,9999,9999,9999,9999,1154307172
8,20,Ticks_Linear_8,34,9999,9999,9999,9999,1155067960
8,20,Ticks_Linear_8,35,9999,9999,9999,9999,1155817584
8,20,Ticks_Linear_8,36,9999,9999,9999,9999,1156567128
8,20,Ticks_Linear_8,37,9999,9999,9999,9999,1157317724
8,20,Ticks_Linear_8,38,9999,9999,9999,9999,1158067276
8,20,Ticks_Linear_8,39,9999,9999,9999,9999,1158817852
8,20,Ticks_Linear_8,40,9999,9999,9999,9999,1159557220
8,20,Ticks_Linear_8,41,9999,9999,9999,9999,1160297548
8,20,Ticks_Linear_8,42,9999,9999,9999,9999,1161037884
8,20,Ticks_Linear_8,43,9999,9999,9999,9999,1161777248
8,20,Ticks_Linear_8,44,9999,9999,9999,9999,1162517616
8,20,Ticks_Linear_8,45,9999,9999,9999,9999,1163247744
8,20,Ticks_Linear_8,46,9999,9999,9999,9999,1163977820
8,20,Ticks_Linear_8,47,9999,9999,9999,9999,1164707948
8,20,Ticks_Linear_8,48,9999,9999,9999,9999,1165438032
8,20,Ticks_Linear_8,49,9999,9999,9999,9999,1166167132
8,20,Ticks_Linear_8,50,9999,9999,9999,9999,1166888000
8,20,Ticks_Linear_8,51,9999,9999,9999,9999,1167607892
8,20,Ticks_Linear_8,52,9999,9999,9999,9999,1168327788
8,20,Ticks_Linear_8,53,9999,9999,9999,9999,1169047664
8,20,Ticks_Linear_8,54,9999,9999,9999,9999,1169767548
8,20,Ticks_Linear_8,55,9999,9999,9999,9999,1170477184
8,20,Ticks_Linear_8,56,9999,9999,9999,9999,1171187788
8,20,Ticks_Linear_8,57,9999,9999,9999,9999,1171897424
8,20,Ticks_Linear_8,58,9999,9999,9999,9999,1172608080
8,20,Ticks_Linear_8,59,9999,9999,9999,9999,1173327976
8,20,Ticks_Linear_8,60,9999,9999,9999,9999,1174027376
8,20,Ticks_Linear_8,61,9999,9999,9999,9999,1174727780
8,20,Ticks_Linear_8,62,9999,9999,9999,9999,1175427128
8,20,Ticks_Linear_8,63,9999,9999,9999,9999,1176127544
8,20,Ticks_Linear_8,64,9999,9999,9999,9999,1176827964
8,20,Ticks_Linear_8,65,9999,9999,9999,9999,1177517164
8,20,Ticks_Linear_8,66,9999,9999,9999,9999,1178207300
8,20,Ticks_Linear_8,67,9999,9999,9999,9999,1178897532
8,20,Ticks_Linear_8,68,9999,9999,9999,9999,1179587696
8,20,Ticks_Linear_8,69,9999,9999,9999,9999,1180277836
8,20,Ticks_Linear_8,70,9999,9999,9999,9999,1180957820
8,20,Ticks_Linear_8,71,9999,9999,9999,9999,1181637724
8,20,Ticks_Linear_8,72,9999,9999,9999,9999,1182317676
8,20,Ticks_Linear_8,73,9999,9999,9999,9999,1182997580
8,20,Ticks_Linear_8,74,9999,9999,9999,9999,1183677560
8,20,Ticks_Linear_8,75,9999,9999,9999,9999,1184347248
8,20,Ticks_Linear_8,76,9999,9999,9999,9999,1185017940
8,20,Ticks_Linear_8,77,9999,9999,9999,9999,1185687640
8,20,Ticks_Linear_8,78,9999,9999,9999,9999,1186357360
8,20,Ticks_Linear_8,79,9999,9999,9999,9999,1187028044
8,20,Ticks_Linear_8,80,9999,9999,9999,9999,1187687480
8,20,Ticks_Linear_8,81,9999,9999,9999,9999,1188347992
8,20,Ticks_Linear_8,82,9999,9999,9999,9999,1189007428
8,20,Ticks_Linear_8,83,9999,9999,9999,9999,1189667928
8,20,Ticks_Linear_8,84,9999,9999,9999,9999,1190327388
8,20,Ticks_Linear_8,85,9999,9999,9999,9999,1190977612
8,20,Ticks_Linear_8,86,9999,9999,9999,9999,1191627868
8,20,Ticks_Linear_8,87,9999,9999,9999,9999,1192278088
8,20,Ticks_Linear_8,88,9999,9999,9999,9999,1192937548
8,20,Ticks_Linear_8,89,9999,9999,9999,9999,1193587840
8,20,Ticks_Linear_8,90,9999,9999,9999,9999,1194227828
8,20,Ticks_Linear_8,91,9999,9999,9999,9999,1194867792
8,20,Ticks_Linear_8,92,9999,9999,9999,9999,1195507780
8,20,Ticks_Linear_8,93,9999,9999,9999,9999,1196147820
8,20,Ticks_Linear_8,94,9999,9999,9999,9999,1196787812
8,20,Ticks_Linear_8,95,9999,9999,9999,9999,1197417592
8,20,Ticks_Linear_8,96,9999,9999,9999,9999,1198047324
8,20,Ticks_Linear_8,97,9999,9999,9999,9999,1198678076
8,20,Ticks_Linear_8,98,9999,9999,9999,9999,1199318136
8,20,Ticks_Linear_8,99,9999,9999,9999,9999,1199958096
8,20,Ticks_Linear_8,100,9999,9999,9999,9999,1200587900
8,20,Ticks_Linear_8,101,9999,9999,9999,9999,1201207352
8,20,Ticks_Linear_8,102,9999,9999,9999,9999,1201827920
8,20,Ticks_Linear_8,103,9999,9999,9999,9999,1202447456
8,20,Ticks_Linear_8,104,9999,9999,9999,9999,1203068024
8,20,Ticks_Linear_8,105,9999,9999,9999,9999,1203677244
8,20,Ticks_Linear_8,106,9999,9999,9999,9999,1204287552
8,20,Ticks_Linear_8,107,9999,9999,9999,9999,1204897860
8,20,Ticks_Linear_8,108,9999,9999,9999,9999,1205507136
8,20,Ticks_Linear_8,109,9999,9999,9999,9999,1206117452
8,20,Ticks_Linear_8,110,9999,9999,9999,9999,1206717528
8,20,Ticks_Linear_8,111,9999,9999,9999,9999,1207317576
8,20,Ticks_Linear_8,112,9999,9999,9999,9999,1207917624
8,20,Ticks_Linear_8,113,9999,9999,9999,9999,1208517700
8,20,Ticks_Linear_8,114,9999,9999,9999,9999,1209117824
8,20,Ticks_Linear_8,115,9999,9999,9999,9999,1209707612
8,20,Ticks_Linear_8,116,9999,9999,9999,9999,1210297428
8,20,Ticks_Linear_8,117,9999,9999,9999,9999,1210887292
8,20,Ticks_Linear_8,118,9999,9999,9999,9999,1211478128
8,20,Ticks_Linear_8,119,9999,9999,9999,9999,1212077156
8,20,Ticks_Linear_8,120,9999,9999,9999,9999,1212657732
8,20,Ticks_Linear_8,121,9999,9999,9999,9999,1213237336
8,20,Ticks_Linear_8,122,9999,9999,9999,9999,1213817916
8,20,Ticks_Linear_8,123,9999,9999,9999,9999,1214397544
8,20,Ticks_Linear_8,124,9999,9999,9999,9999,1214977152
8,20,Ticks_Linear_8,125,9999,9999,9999,9999,1215547472
8,20,Ticks_Linear_8,126,9999,9999,9999,9999,1216117860
8,20,Ticks_Linear_8,127,9999,9999,9999,9999,1216687160
8,20,Ticks_Linear_8,128,9999,9999,9999,9999,1217257552
8,20,Ticks_Linear_8,129,9999,9999,9999,9999,1217827948
8,20,Ticks_Linear_8,130,9999,9999,9999,9999,1218388080
8,20,Ticks_Linear_8,131,9999,9999,9999,9999,1218947164
8,20,Ticks_Linear_8,132,9999,9999,9999,9999,1219507316
8,20,Ticks_Linear_8,133,9999,9999,9999,9999,1220067452
8,20,Ticks_Linear_8,134,9999,9999,9999,9999,1220627512
8,20,Ticks_Linear_8,135,9999,9999,9999,9999,1221177464
8,20,Ticks_Linear_8,136,9999,9999,9999,9999,1221727344
8,20,Ticks_Linear_8,137,9999,9999,9999,9999,1222277212
8,20,Ticks_Linear_8,138,9999,9999,9999,9999,1222827108
8,20,Ticks_Linear_8,139,9999,9999,9999,9999,1223378036
8,20,Ticks_Linear_8,140,9999,9999,9999,9999,1223917652
8,20,Ticks_Linear_8,141,9999,9999,9999,9999,1224457344
8,20,Ticks_Linear_8,142,9999,9999,9999,9999,1224998004
8,20,Ticks_Linear_8,143,9999,9999,9999,9999,1225537612
8,20,Ticks_Linear_8,144,9999,9999,9999,9999,1226077308
8,20,Ticks_Linear_8,145,9999,9999,9999,9999,1226607712
8,20,Ticks_Linear_8,146,9999,9999,9999,9999,1227137140
8,20,Ticks_Linear_8,147,9999,9999,9999,9999,1227667544
8,20,Ticks_Linear_8,148,9999,9999,9999,9999,1228197948
8,20,Ticks_Linear_8,149,9999,9999,9999,9999,1228727404
8,20,Ticks_Linear_8,150,9999,9999,9999,9999,1229247548
8,20,Ticks_Linear_8,151,9999,9999,9999,9999,1229767776
8,20,Ticks_Linear_8,152,9999,9999,9999,9999,1230287988
8,20,Ticks_Linear_8,153,9999,9999,9999,9999,1230807160
8,20,Ticks_Linear_8,154,9999,9999,9999,9999,1231327304
8,20,Ticks_Linear_8,155,9999,9999,9999,9999,1231837272
8,20,Ticks_Linear_8,156,9999,9999,9999,9999,1232347232
8,20,Ticks_Linear_8,157,9999,9999,9999,9999,1232857192
8,20,Ticks_Linear_8,158,9999,9999,9999,9999,1233367144
8,20,Ticks_Linear_8,159,9999,9999,9999,9999,1233878076
8,20,Ticks_Linear_8,160,9999,9999,9999,9999,1234388040
8,20,Ticks_Linear_8,161,9999,9999,9999,9999,1234887744
8,20,Ticks_Linear_8,162,9999,9999,9999,9999,1235387516
8,20,Ticks_Linear_8,163,9999,9999,9999,9999,1235887208
8,20,Ticks_Linear_8,164,9999,9999,9999,9999,1236387932
8,20,Ticks_Linear_8,165,9999,9999,9999,9999,1236877372
8,20,Ticks_Linear_8,166,9999,9999,9999,9999,1237367868
8,20,Ticks_Linear_8,167,9999,9999,9999,9999,1237857384
8,20,Ticks_Linear_8,168,9999,9999,9999,9999,1238347872
8,20,Ticks_Linear_8,169,9999,9999,9999,9999,1238837312
9,10,Ticks_ISO_T2_5,0,5,42,127,1247467772
9,10,Ticks_ISO_T2_5,1,5,42,127,1247967560
9,10,Ticks_ISO_T2_5,2,1,48,34,1248453920
9,10,Ticks_ISO_T2_5,3,5,42,127,1248468464
9,10,Ticks_ISO_T2_5,4,1,48,42,1248892480
9,10,Ticks_ISO_T2_5,5,5,42,127,1248967936
9,10,Ticks_ISO_T2_5,6,1,48,44,1249438252
9,10,Ticks_ISO_T2_5,7,5,42,127,1249467632
9,10,Ticks_ISO_T2_5,8,1,48,38,1249950508
9,10,Ticks_ISO_T2_5,9,5,42,127,1249967328
9,10,Ticks_ISO_T2_5,10,1,48,43,1250452600
9,10,Ticks_ISO_T2_5,11,5,42,127,1250468488
9,10,Ticks_ISO_T2_5,12,1,48,38,1250963960
9,10,Ticks_ISO_T2_5,13,5,42,127,1250967812
9,10,Ticks_ISO_T2_5,14,5,42,127,1251467664
9,10,Ticks_ISO_T2_5,15,1,48,39,1251495684
9,10,Ticks_ISO_T2_5,16,1,48,36,1251964468
9,10,Ticks_ISO_T2_5,17,5,42,127,1251968620
9,10,Ticks_ISO_T2_5,18,1,48,33,1252460876
9,10,Ticks_ISO_T2_5,19,5,42,127,1252468092
9,10,Ticks_ISO_T2_5,20,1,48,32,1252936864
9,10,Ticks_ISO_T2_5,21,5,42,127,1252967860
9,10,Ticks_ISO_T2_5,22,1,48,38,1253439700
9,10,Ticks_ISO_T2_5,23,5,42,127,1253467408
9,10,Ticks_ISO_T2_5,24,1,48,37,1253946648
9,10,Ticks_ISO_T2_5,25,5,42,127,1253968448
9,10,Ticks_ISO_T2_5,26,1,48,32,1254447984
9,10,Ticks_ISO_T2_5,27,5,42,127,1254467916
9,10,Ticks_ISO_T2_5,28,5,42,127,1254967544
9,10,Ticks_ISO_T2_5,29,1,48,28,1254979040
9,10,Ticks_ISO_T2_5,30,1,48,35,1255439448
9,10,Ticks_ISO_T2_5,31,5,42,127,1255468504
9,10,Ticks_ISO_T2_5,32,1,48,34,1255947820
9,10,Ticks_ISO_T2_5,33,5,42,127,1255968272
9,10,Ticks_ISO_T2_5,34,1,48,33,1256451024
9,10,Ticks_ISO_T2_5,35,5,42,127,1256467816
9,10,Ticks_ISO_T2_5,36,5,42,127,1256967516
9,10,Ticks_ISO_T2_5,37,1,48,32,1256974600
9,10,Ticks_ISO_T2_5,38,5,42,127,1257468484
9,10,Ticks_ISO_T2_5,39,1,48,28,1257496660
9,10,Ticks_ISO_T2_5,40,1,48,31,1257936048
9,10,Ticks_ISO_T2_5,41,5,42,127,1257968020
9,10,Ticks_ISO_T2_5,42,5,42,127,1258467648
9,10,Ticks_ISO_T2_5,43,1,48,35,1258492084
9,10,Ticks_ISO_T2_5,44,5,42,127,1258968388
9,10,Ticks_ISO_T2_5,45,1,48,33,1258981304
9,10,Ticks_ISO_T2_5,46,5,42,127,1259468308
9,10,Ticks_ISO_T2_5,47,1,48,28,1259476064
9,10,Ticks_ISO_T2_5,48,1,48,27,1259967704
9,10,Ticks_ISO_T2_5,49,5,42,127,1259969192
9,10,Ticks_ISO_T2_5,50,5,42,127,1260467696
9,10,Ticks_ISO_T2_5,51,1,48,24,1260479644
9,10,Ticks_ISO_T2_5,52,5,42,127,1260968512
9,10,Ticks_ISO_T2_5,53,1,48,31,1260977320
9,10,Ticks_ISO_T2_5,54,5,42,127,1261468180
9,10,Ticks_ISO_T2_5,55,1,48,36,1261471672
9,10,Ticks_ISO_T2_5,56,1,48,33,1261925428
9,10,Ticks_ISO_T2_5,57,5,42,127,1261967796
9,10,Ticks_ISO_T2_5,58,5,42,127,1262467496
9,10,Ticks_ISO_T2_5,59,1,48,24,1262529732
9,10,Ticks_ISO_T2_5,60,5,42,127,1262968460
9,10,Ticks_ISO_T2_5,61,1,48,25,1262991176
9,10,Ticks_ISO_T2_5,62,5,42,127,1263468008
9,10,Ticks_ISO_T2_5,63,1,48,27,1263470680
9,10,Ticks_ISO_T2_5,64,5,42,127,1263967552
9,10,Ticks_ISO_T2_5,65,1,48,29,1264021832
9,10,Ticks_ISO_T2_5,66,1,48,32,1264453964
9,10,Ticks_ISO_T2_5,67,5,42,127,1264468436
9,10,Ticks_ISO_T2_5,68,1,48,26,1264957320
9,10,Ticks_ISO_T2_5,69,5,42,127,1264968128
9,10,Ticks_ISO_T2_5,70,1,48,28,1265455224
9,10,Ticks_ISO_T2_5,71,5,42,127,1265467752
9,10,Ticks_ISO_T2_5,72,5,42,127,1265967528
9,10,Ticks_ISO_T2_5,73,1,48,33,1265981864
9,10,Ticks_ISO_T2_5,74,5,42,127,1266468268
9,10,Ticks_ISO_T2_5,75,1,48,36,1266469308
9,10,Ticks_ISO_T2_5,76,5,42,127,1266967888
9,10,Ticks_ISO_T2_5,77,1,48,28,1266973324
9,10,Ticks_ISO_T2_5,78,1,48,27,1267447348
9,10,Ticks_ISO_T2_5,79,5,42,127,1267467652
9,10,Ticks_ISO_T2_5,80,5,42,127,1267968328
9,10,Ticks_ISO_T2_5,81,1,48,34,1267977432
9,10,Ticks_ISO_T2_5,82,1,48,32,1268442324
9,10,Ticks_ISO_T2_5,83,5,42,127,1268468088
9,10,Ticks_ISO_T2_5,84,5,42,127,1268967640
9,10,Ticks_ISO_T2_5,85,1,48,32,1268982952
9,10,Ticks_ISO_T2_5,86,5,42,127,1269467484
9,10,Ticks_ISO_T2_5,87,1,48,31,1269486380
9,10,Ticks_ISO_T2_5,88,1,48,24,1269968152
9,10,Ticks_ISO_T2_5,89,5,42,127,1269969488
9,10,Ticks_ISO_T2_5,90,5,42,127,1270468144
9,10,Ticks_ISO_T2_5,91,1,48,25,1270497064
9,10,Ticks_ISO_T2_5,92,1,48,27,1270967160
9,10,Ticks_ISO_T2_5,93,5,42,127,1270968728
9,10,Ticks_ISO_T2_5,94,1,48,23,1271430140
9,10,Ticks_ISO_T2_5,95,5,42,127,1271468352
9,10,Ticks_ISO_T2_5,96,1,48,26,1271962676
9,10,Ticks_ISO_T2_5,97,5,42,127,1271968168
9,10,Ticks_ISO_T2_5,98,5,42,127,1272467796
9,10,Ticks_ISO_T2_5,99,1,48,26,1272513272
9,10,Ticks_ISO_T2_5,100,5,42,127,1272967568
9,10,Ticks_ISO_T2_5,101,1,48,27,1272974576
9,10,Ticks_ISO_T2_5,102,5,42,127,1273468232
9,10,Ticks_ISO_T2_5,103,1,48,26,1273487132
9,10,Ticks_ISO_T2_5,104,1,48,26,1273929664
9,10,Ticks_ISO_T2_5,105,5,42,127,1273968072
9,10,Ticks_ISO_T2_5,106,1,48,28,1274467172
9,10,Ticks_ISO_T2_5,107,5,42,127,1274468740
9,10,Ticks_ISO_T2_5,108,5,42,127,1274968368
9,10,Ticks_ISO_T2_5,109,1,48,24,1274994820
9,10,Ticks_ISO_T2_5,110,1,48,23,1275451864
9,10,Ticks_ISO_T2_5,111,5,42,127,1275468128
9,10,Ticks_ISO_T2_5,112,5,42,127,1275967976
9,10,Ticks_ISO_T2_5,113,1,48,27,1275980368
9,10,Ticks_ISO_T2_5,114,5,42,127,1276467448
9,10,Ticks_ISO_T2_5,115,1,48,29,1276489192
9,10,Ticks_ISO_T2_5,116,5,42,127,1276968188
9,10,Ticks_ISO_T2_5,117,1,48,25,1276982452
9,10,Ticks_ISO_T2_5,118,1,48,26,1277467056
9,10,Ticks_ISO_T2_5,119,5,42,127,1277468548
9,10,Ticks_ISO_T2_5,120,5,42,127,1277967656
9,10,Ticks_ISO_T2_5,121,1,48,27,1277987376
9,10,Ticks_ISO_T2_5,122,1,48,27,1278460572
9,10,Ticks_ISO_T2_5,123,5,42,127,1278467416
9,10,Ticks_ISO_T2_5,124,5,42,127,1278968312
9,10,Ticks_ISO_T2_5,125,1,48,27,1278994168
9,10,Ticks_ISO_T2_5,126,5,42,127,1279468008
9,10,Ticks_ISO_T2_5,127,1,48,27,1279478088
9,10,Ticks_ISO_T2_5,128,1,48,28,1279959140
9,10,Ticks_ISO_T2_5,129,5,42,127,1279967624
9,10,Ticks_ISO_T2_5,130,5,42,127,1280468296
9,10,Ticks_ISO_T2_5,131,1,48,28,1280488020
9,10,Ticks_ISO_T2_5,132,1,48,25,1280953812
9,10,Ticks_ISO_T2_5,133,5,42,127,1280968132
9,10,Ticks_ISO_T2_5,134,1,48,28,1281456428
9,10,Ticks_ISO_T2_5,135,5,42,127,1281467904
9,10,Ticks_ISO_T2_5,136,1,48,23,1281936872
9,10,Ticks_ISO_T2_5,137,5,42,127,1281967524
9,10,Ticks_ISO_T2_5,138,1,48,27,1282446664
9,10,Ticks_ISO_T2_5,139,5,42,127,1282468316
9,10,Ticks_ISO_T2_5,140,1,48,23,1282944564
9,10,Ticks_ISO_T2_5,141,5,42,127,1282967936
9,10,Ticks_ISO_T2_5,142,5,42,127,1283467492
9,10,Ticks_ISO_T2_5,143,1,48,27,1283475316
9,10,Ticks_ISO_T2_5,144,5,42,127,1283968452
9,10,Ticks_ISO_T2_5,145,1,48,23,1283980548
9,10,Ticks_ISO_T2_5,146,5,42,127,1284468224
9,10,Ticks_ISO_T2_5,147,1,48,22,1284478892
9,10,Ticks_ISO_T2_5,148,5,42,127,1284967916
9,10,Ticks_ISO_T2_5,149,1,48,25,1285004092
9,10,Ticks_ISO_T2_5,150,1,48,28,1285459788
9,10,Ticks_ISO_T2_5,151,5,42,127,1285467456
9,10,Ticks_ISO_T2_5,152,1,48,24,1285935252
9,10,Ticks_ISO_T2_5,153,5,42,127,1285968272
9,10,Ticks_ISO_T2_5,154,1,48,23,1286448188
9,10,Ticks_ISO_T2_5,155,5,42,127,1286468040
9,10,Ticks_ISO_T2_5,156,1,48,27,1286955656
9,10,Ticks_ISO_T2_5,157,5,42,127,1286967588
9,10,Ticks_ISO_T2_5,158,1,48,30,1287463060
9,10,Ticks_ISO_T2_5,159,5,42,127,1287468476
9,10,Ticks_ISO_T2_5,160,1,48,23,1287935372
9,10,Ticks_ISO_T2_5,161,5,42,127,1287968096
9,10,Ticks_ISO_T2_5,162,1,48,24,1288459532
9,10,Ticks_ISO_T2_5,163,5,42,127,1288468016
9,10,Ticks_ISO_T2_5,164,5,42,127,1288967492
9,10,Ticks_ISO_T2_5,165,1,48,27,1288975920
9,10,Ticks_ISO_T2_5,166,5,42,127,1289468236
9,10,Ticks_ISO_T2_5,167,1,48,23,1289473448
9,10,Ticks_ISO_T2_5,168,1,48,24,1289951956
9,10,Ticks_ISO_T2_5,169,5,42,127,1289968148
9,10,Ticks_ISO_T2_5,170,1,48,25,1290438264
9,10,Ticks_ISO_T2_5,171,5,42,127,1290467916
9,10,Ticks_ISO_T2_5,172,1,48,24,1290930404
9,10,Ticks_ISO_T2_5,173,5,42,127,1290968436
9,10,Ticks_ISO_T2_5,174,1,48,23,1291452312
9,10,Ticks_ISO_T2_5,175,5,42,127,1291468132
9,10,Ticks_ISO_T2_5,176,1,48,24,1291940688
9,10,Ticks_ISO_T2_5,177,5,42,127,1291968048
9,10,Ticks_ISO_T2_5,178,5,42,127,1292467528
9,10,Ticks_ISO_T2_5,179,1,48,25,1292477676
9,10,Ticks_ISO_T2_5,180,5,42,127,1292968340
9,10,Ticks_ISO_T2_5,181,1,48,19,1292986944
9,10,Ticks_ISO_T2_5,182,1,48,22,1293452488
9,10,Ticks_ISO_T2_5,183,5,42,127,1293468152
9,10,Ticks_ISO_T2_5,184,1,48,24,1293935052
9,10,Ticks_ISO_T2_5,185,5,42,127,1293967996
9,10,Ticks_ISO_T2_5,186,1,48,24,1294434220
9,10,Ticks_ISO_T2_5,187,5,42,127,1294467392
9,10,Ticks_ISO_T2_5,188,1,48,24,1294921952
9,10,Ticks_ISO_T2_5,189,5,42,127,1294968136
9,10,Ticks_ISO_T2_5,190,1,48,24,1295432340
9,10,Ticks_ISO_T2_5,191,5,42,127,1295468052
9,10,Ticks_ISO_T2_5,192,1,48,25,1295945644
9,10,Ticks_ISO_T2_5,193,5,42,127,1295967600
9,10,Ticks_ISO_T2_5,194,1,48,21,1296445416
9,10,Ticks_ISO_T2_5,195,5,42,127,1296468340
9,10,Ticks_ISO_T2_5,196,1,48,21,1296936360
9,10,Ticks_ISO_T2_5,197,5,42,127,1296968036
9,10,Ticks_ISO_T2_5,198,1,48,21,1297437932
9,10,Ticks_ISO_T2_5,199,5,42,127,1297468032
9,10,Ticks_ISO_T2_5,200,1,48,21,1297954528
9,10,Ticks_ISO_T2_5,201,5,42,127,1297967504
9,10,Ticks_ISO_T2_5,202,5,42,127,1298468176
9,10,Ticks_ISO_T2_5,203,1,48,21,1298473240
9,10,Ticks_ISO_T2_5,204,5,42,127,1298968020
9,10,Ticks_ISO_T2_5,205,1,48,25,1298971816
9,10,Ticks_ISO_T2_5,206,5,42,127,1299467792
9,10,Ticks_ISO_T2_5,207,1,48,24,1299469128
9,10,Ticks_ISO_T2_5,208,5,42,127,1299968308
9,10,Ticks_ISO_T2_5,209,1,48,19,1299981676
9,10,Ticks_ISO_T2_5,210,5,42,127,1300468004
9,10,Ticks_ISO_T2_5,211,1,48,22,1300475984
9,10,Ticks_ISO_T2_5,212,1,48,25,1300946188
9,10,Ticks_ISO_T2_5,213,5,42,127,1300967988
9,10,Ticks_ISO_T2_5,214,1,48,24,1301445356
9,10,Ticks_ISO_T2_5,215,5,42,127,1301467388
9,10,Ticks_ISO_T2_5,216,1,48,23,1301935028
9,10,Ticks_ISO_T2_5,217,5,42,127,1301968352
9,10,Ticks_ISO_T2_5,218,1,48,20,1302414880
9,10,Ticks_ISO_T2_5,219,5,42,127,1302468044
9,10,Ticks_ISO_T2_5,220,5,42,127,1302967820
9,10,Ticks_ISO_T2_5,221,1,48,26,1302975800
9,10,Ticks_ISO_T2_5,222,5,42,127,1303468564
9,10,Ticks_ISO_T2_5,223,1,48,29,1303501904
9,10,Ticks_ISO_T2_5,224,1,48,24,1303960936
9,10,Ticks_ISO_T2_5,225,5,42,127,1303968004
9,10,Ticks_ISO_T2_5,226,1,48,21,1304446864
9,10,Ticks_ISO_T2_5,227,5,42,127,1304467996
9,10,Ticks_ISO_T2_5,228,1,48,21,1304952996
9,10,Ticks_ISO_T2_5,229,5,42,127,1304967544
9,10,Ticks_ISO_T2_5,230,1,48,20,1305441772
9,10,Ticks_ISO_T2_5,231,5,42,127,1305468208
9,10,Ticks_ISO_T2_5,232,1,48,22,1305927928
9,10,Ticks_ISO_T2_5,233,5,42,127,1305967980
9,10,Ticks_ISO_T2_5,234,1,48,23,1306465856
9,10,Ticks_ISO_T2_5,235,5,42,127,1306467596
9,10,Ticks_ISO_T2_5,236,1,48,17,1306955736
9,10,Ticks_ISO_T2_5,237,5,42,127,1306968416
9,10,Ticks_ISO_T2_5,238,1,48,19,1307443912
9,10,Ticks_ISO_T2_5,239,5,42,127,1307468108
9,10,Ticks_ISO_T2_5,240,5,42,127,1307967884
9,10,Ticks_ISO_T2_5,241,1,48,25,1307981100
9,10,Ticks_ISO_T2_5,242,5,42,127,1308467652
9,10,Ticks_ISO_T2_5,243,1,48,19,1308486704
9,10,Ticks_ISO_T2_5,244,1,48,21,1308956308
9,10,Ticks_ISO_T2_5,245,5,42,127,1308968240
9,10,Ticks_ISO_T2_5,246,1,48,16,1309462436
9,10,Ticks_ISO_T2_5,247,5,42,127,1309468008
9,10,Ticks_ISO_T2_5,248,5,42,127,1309967712
9,10,Ticks_ISO_T2_5,249,1,48,21,1309978760
9,10,Ticks_ISO_T2_5,250,1,48,22,1310425252
9,10,Ticks_ISO_T2_5,251,5,42,127,1310467400
9,10,Ticks_ISO_T2_5,252,5,42,127,1310968296
9,10,Ticks_ISO_T2_5,253,1,48,26,1310978224
9,10,Ticks_ISO_T2_5,254,1,48,24,1311462712
9,10,Ticks_ISO_T2_5,255,5,42,127,1311467908
9,10,Ticks_ISO_T2_5,256,1,48,21,1311965412
9,10,Ticks_ISO_T2_5,257,5,42,127,1311967604
9,10,Ticks_ISO_T2_5,258,1,48,22,1312452976
9,10,Ticks_ISO_T2_5,0,9999,9999,9999,9999,1247465556
9,10,Ticks_ISO_T2_5,1,9999,9999,9999,9999,1247965268
9,10,Ticks_ISO_T2_5,2,9999,9999,9999,9999,1248466028
9,10,Ticks_ISO_T2_5,3,9999,9999,9999,9999,1248965720
9,10,Ticks_ISO_T2_5,4,9999,9999,9999,9999,1249465416
9,10,Ticks_ISO_T2_5,5,9999,9999,9999,9999,1249965112
9,10,Ticks_ISO_T2_5,6,9999,9999,9999,9999,1250465900
9,10,Ticks_ISO_T2_5,7,9999,9999,9999,9999,1250965596
9,10,Ticks_ISO_T2_5,8,9999,9999,9999,9999,1251465296
9,10,Ticks_ISO_T2_5,9,9999,9999,9999,9999,1251966032
9,10,Ticks_ISO_T2_5,10,9999,9999,9999,9999,1252465728
9,10,Ticks_ISO_T2_5,11,9999,9999,9999,9999,1252965496
9,10,Ticks_ISO_T2_5,12,9999,9999,9999,9999,1253465192
9,10,Ticks_ISO_T2_5,13,9999,9999,9999,9999,1253965932
9,10,Ticks_ISO_T2_5,14,9999,9999,9999,9999,1254465628
9,10,Ticks_ISO_T2_5,15,9999,9999,9999,9999,1254965328
9,10,Ticks_ISO_T2_5,16,9999,9999,9999,9999,1255466064
9,10,Ticks_ISO_T2_5,17,9999,9999,9999,9999,1255965760
9,10,Ticks_ISO_T2_5,18,9999,9999,9999,9999,1256465528
9,10,Ticks_ISO_T2_5,19,9999,9999,9999,9999,1256965228
9,10,Ticks_ISO_T2_5,20,9999,9999,9999,9999,1257465968
9,10,Ticks_ISO_T2_5,21,9999,9999,9999,9999,1257965656
9,10,Ticks_ISO_T2_5,22,9999,9999,9999,9999,1258465356
9,10,Ticks_ISO_T2_5,23,9999,9999,9999,9999,1258966100
9,10,Ticks_ISO_T2_5,24,9999,9999,9999,9999,1259465796
9,10,Ticks_ISO_T2_5,25,9999,9999,9999,9999,1259965488
9,10,Ticks_ISO_T2_5,26,9999,9999,9999,9999,1260465260
9,10,Ticks_ISO_T2_5,27,9999,9999,9999,9999,1260965972
9,10,Ticks_ISO_T2_5,28,9999,9999,9999,9999,1261465668
9,10,Ticks_ISO_T2_5,29,9999,9999,9999,9999,1261965432
9,10,Ticks_ISO_T2_5,30,9999,9999,9999,9999,1262465132
9,10,Ticks_ISO_T2_5,31,9999,9999,9999,9999,1262965872
9,10,Ticks_ISO_T2_5,32,9999,9999,9999,9999,1263465568
9,10,Ticks_ISO_T2_5,33,9999,9999,9999,9999,1263965264
9,10,Ticks_ISO_T2_5,34,9999,9999,9999,9999,1264465996
9,10,Ticks_ISO_T2_5,35,9999,9999,9999,9999,1264965692
9,10,Ticks_ISO_T2_5,36,9999,9999,9999,9999,1265465460
9,10,Ticks_ISO_T2_5,37,9999,9999,9999,9999,1265965164
9,10,Ticks_ISO_T2_5,38,9999,9999,9999,9999,1266465904
9,10,Ticks_ISO_T2_5,39,9999,9999,9999,9999,1266965600
9,10,Ticks_ISO_T2_5,40,9999,9999,9999,9999,1267465288
9,10,Ticks_ISO_T2_5,41,9999,9999,9999,9999,1267966036
9,10,Ticks_ISO_T2_5,42,9999,9999,9999,9999,1268465724
9,10,Ticks_ISO_T2_5,43,9999,9999,9999,9999,1268965424
9,10,Ticks_ISO_T2_5,44,9999,9999,9999,9999,1269465192
9,10,Ticks_ISO_T2_5,45,9999,9999,9999,9999,1269965936
9,10,Ticks_ISO_T2_5,46,9999,9999,9999,9999,1270465628
9,10,Ticks_ISO_T2_5,47,9999,9999,9999,9999,1270965324
9,10,Ticks_ISO_T2_5,48,9999,9999,9999,9999,1271466060
9,10,Ticks_ISO_T2_5,49,9999,9999,9999,9999,1271965804
9,10,Ticks_ISO_T2_5,50,9999,9999,9999,9999,1272465508
9,10,Ticks_ISO_T2_5,51,9999,9999,9999,9999,1272965204
9,10,Ticks_ISO_T2_5,52,9999,9999,9999,9999,1273465944
9,10,Ticks_ISO_T2_5,53,9999,9999,9999,9999,1273965632
9,10,Ticks_ISO_T2_5,54,9999,9999,9999,9999,1274465332
9,10,Ticks_ISO_T2_5,55,9999,9999,9999,9999,1274966080
9,10,Ticks_ISO_T2_5,56,9999,9999,9999,9999,1275465840
9,10,Ticks_ISO_T2_5,57,9999,9999,9999,9999,1275965540
9,10,Ticks_ISO_T2_5,58,9999,9999,9999,9999,1276465232
9,10,Ticks_ISO_T2_5,59,9999,9999,9999,9999,1276965972
9,10,Ticks_ISO_T2_5,60,9999,9999,9999,9999,1277465668
9,10,Ticks_ISO_T2_5,61,9999,9999,9999,9999,1277965364
9,10,Ticks_ISO_T2_5,62,9999,9999,9999,9999,1278465128
9,10,Ticks_ISO_T2_5,63,9999,9999,9999,9999,1278965876
9,10,Ticks_ISO_T2_5,64,9999,9999,9999,9999,1279465572
9,10,Ticks_ISO_T2_5,65,9999,9999,9999,9999,1279965260
9,10,Ticks_ISO_T2_5,66,9999,9999,9999,9999,1280466008
9,10,Ticks_ISO_T2_5,67,9999,9999,9999,9999,1280965696
9,10,Ticks_ISO_T2_5,68,9999,9999,9999,9999,1281465464
9,10,Ticks_ISO_T2_5,69,9999,9999,9999,9999,1281965160
9,10,Ticks_ISO_T2_5,70,9999,9999,9999,9999,1282465876
9,10,Ticks_ISO_T2_5,71,9999,9999,9999,9999,1282965572
9,10,Ticks_ISO_T2_5,72,9999,9999,9999,9999,1283465276
9,10,Ticks_ISO_T2_5,73,9999,9999,9999,9999,1283966016
9,10,Ticks_ISO_T2_5,74,9999,9999,9999,9999,1284465784
9,10,Ticks_ISO_T2_5,75,9999,9999,9999,9999,1284965476
9,10,Ticks_ISO_T2_5,76,9999,9999,9999,9999,1285465164
9,10,Ticks_ISO_T2_5,77,9999,9999,9999,9999,1285965908
9,10,Ticks_ISO_T2_5,78,9999,9999,9999,9999,1286465600
9,10,Ticks_ISO_T2_5,79,9999,9999,9999,9999,1286965296
9,10,Ticks_ISO_T2_5,80,9999,9999,9999,9999,1287466040
9,10,Ticks_ISO_T2_5,81,9999,9999,9999,9999,1287965808
9,10,Ticks_ISO_T2_5,82,9999,9999,9999,9999,1288465500
9,10,Ticks_ISO_T2_5,83,9999,9999,9999,9999,1288965204
9,10,Ticks_ISO_T2_5,84,9999,9999,9999,9999,1289465948
9,10,Ticks_ISO_T2_5,85,9999,9999,9999,9999,1289965636
9,10,Ticks_ISO_T2_5,86,9999,9999,9999,9999,1290465328
9,10,Ticks_ISO_T2_5,87,9999,9999,9999,9999,1290966076
9,10,Ticks_ISO_T2_5,88,9999,9999,9999,9999,1291465840
9,10,Ticks_ISO_T2_5,89,9999,9999,9999,9999,1291965536
9,10,Ticks_ISO_T2_5,90,9999,9999,9999,9999,1292465236
9,10,Ticks_ISO_T2_5,91,9999,9999,9999,9999,1292965976
9,10,Ticks_ISO_T2_5,92,9999,9999,9999,9999,1293465716
9,10,Ticks_ISO_T2_5,93,9999,9999,9999,9999,1293965412
9,10,Ticks_ISO_T2_5,94,9999,9999,9999,9999,1294465104
9,10,Ticks_ISO_T2_5,95,9999,9999,9999,9999,1294965844
9,10,Ticks_ISO_T2_5,96,9999,9999,9999,9999,1295465540
9,10,Ticks_ISO_T2_5,97,9999,9999,9999,9999,1295965236
9,10,Ticks_ISO_T2_5,98,9999,9999,9999,9999,1296465976
9,10,Ticks_ISO_T2_5,99,9999,9999,9999,9999,1296965748
9,10,Ticks_ISO_T2_5,100,9999,9999,9999,9999,1297465444
9,10,Ticks_ISO_T2_5,101,9999,9999,9999,9999,1297965140
9,10,Ticks_ISO_T2_5,102,9999,9999,9999,9999,1298465888
9,10,Ticks_ISO_T2_5,103,9999,9999,9999,9999,1298965584
9,10,Ticks_ISO_T2_5,104,9999,9999,9999,9999,1299465276
9,10,Ticks_ISO_T2_5,105,9999,9999,9999,9999,1299966016
9,10,Ticks_ISO_T2_5,106,9999,9999,9999,9999,1300465712
9,10,Ticks_ISO_T2_5,107,9999,9999,9999,9999,1300965476
9,10,Ticks_ISO_T2_5,108,9999,9999,9999,9999,1301465172
9,10,Ticks_ISO_T2_5,109,9999,9999,9999,9999,1301965912
9,10,Ticks_ISO_T2_5,110,9999,9999,9999,9999,1302465608
9,10,Ticks_ISO_T2_5,111,9999,9999,9999,9999,1302965308
9,10,Ticks_ISO_T2_5,112,9999,9999,9999,9999,1303466052
9,10,Ticks_ISO_T2_5,113,9999,9999,9999,9999,1303965788
9,10,Ticks_ISO_T2_5,114,9999,9999,9999,9999,1304465484
9,10,Ticks_ISO_T2_5,115,9999,9999,9999,9999,1304965176
9,10,Ticks_ISO_T2_5,116,9999,9999,9999,9999,1305465920
9,10,Ticks_ISO_T2_5,117,9999,9999,9999,9999,1305965688
9,10,Ticks_ISO_T2_5,118,9999,9999,9999,9999,1306465332
9,10,Ticks_ISO_T2_5,119,9999,9999,9999,9999,1306966128
9,10,Ticks_ISO_T2_5,120,9999,9999,9999,9999,1307465820
9,10,Ticks_ISO_T2_5,121,9999,9999,9999,9999,1307965520
9,10,Ticks_ISO_T2_5,122,9999,9999,9999,9999,1308465216
9,10,Ticks_ISO_T2_5,123,9999,9999,9999,9999,1308965948
9,10,Ticks_ISO_T2_5,124,9999,9999,9999,9999,1309465716
9,10,Ticks_ISO_T2_5,125,9999,9999,9999,9999,1309965420
9,10,Ticks_ISO_T2_5,126,9999,9999,9999,9999,1310465108
9,10,Ticks_ISO_T2_5,127,9999,9999,9999,9999,1310965856
9,10,Ticks_ISO_T2_5,128,9999,9999,9999,9999,1311465544
9,10,Ticks_ISO_T2_5,129,9999,9999,9999,9999,1311965284
10,9,Ticks_ISO_T2_8,0,5,42,127,1321837792
10,9,Ticks_ISO_T2_8,1,1,48,19,1322305680
10,9,Ticks_ISO_T2_8,2,5,42,127,1322637824
10,9,Ticks_ISO_T2_8,3,1,48,16,1322875456
10,9,Ticks_ISO_T2_8,4,5,42,127,1323437656
10,9,Ticks_ISO_T2_8,5,1,48,18,1323438992
10,9,Ticks_ISO_T2_8,6,5,42,127,1324238064
10,9,Ticks_ISO_T2_8,7,1,48,35,1324265112
10,9,Ticks_ISO_T2_8,8,5,42,127,1325037948
10,9,Ticks_ISO_T2_8,9,1,48,31,1325081008
10,9,Ticks_ISO_T2_8,10,5,42,127,1325837532
10,9,Ticks_ISO_T2_8,11,1,48,33,1325858828
10,9,Ticks_ISO_T2_8,12,5,42,127,1326637636
10,9,Ticks_ISO_T2_8,13,1,48,27,1326675680
10,9,Ticks_ISO_T2_8,14,5,42,127,1327438264
10,9,Ticks_ISO_T2_8,15,1,48,26,1327467568
10,9,Ticks_ISO_T2_8,16,5,42,127,1328237848
10,9,Ticks_ISO_T2_8,17,1,48,33,1328238816
10,9,Ticks_ISO_T2_8,18,5,42,127,1329037656
10,9,Ticks_ISO_T2_8,19,1,48,35,1329047736
10,9,Ticks_ISO_T2_8,20,1,48,30,1329833556
10,9,Ticks_ISO_T2_8,21,5,42,127,1329837708
10,9,Ticks_ISO_T2_8,22,5,42,127,1330638272
10,9,Ticks_ISO_T2_8,23,1,48,29,1330665696
10,9,Ticks_ISO_T2_8,24,1,48,38,1331433848
10,9,Ticks_ISO_T2_8,25,5,42,127,1331438072
10,9,Ticks_ISO_T2_8,26,1,48,30,1332205452
10,9,Ticks_ISO_T2_8,27,5,42,127,1332237580
10,9,Ticks_ISO_T2_8,28,1,48,27,1332980432
10,9,Ticks_ISO_T2_8,29,5,42,127,1333037540
10,9,Ticks_ISO_T2_8,30,1,48,28,1333827140
10,9,Ticks_ISO_T2_8,31,5,42,127,1333838316
10,9,Ticks_ISO_T2_8,32,1,48,34,1334622536
10,9,Ticks_ISO_T2_8,33,5,42,127,1334637976
10,9,Ticks_ISO_T2_8,34,5,42,127,1335437644
10,9,Ticks_ISO_T2_8,35,1,48,27,1335447720
10,9,Ticks_ISO_T2_8,36,5,42,127,1336237552
10,9,Ticks_ISO_T2_8,37,1,48,29,1336290560
10,9,Ticks_ISO_T2_8,38,1,48,29,1337023028
10,9,Ticks_ISO_T2_8,39,5,42,127,1337038324
10,9,Ticks_ISO_T2_8,40,1,48,29,1337809300
10,9,Ticks_ISO_T2_8,41,5,42,127,1337837908
10,9,Ticks_ISO_T2_8,42,1,48,39,1338624888
10,9,Ticks_ISO_T2_8,43,5,42,127,1338637640
10,9,Ticks_ISO_T2_8,44,1,48,36,1339412132
10,9,Ticks_ISO_T2_8,45,5,42,127,1339437524
10,9,Ticks_ISO_T2_8,46,1,48,32,1340215080
10,9,Ticks_ISO_T2_8,47,5,42,127,1340238452
10,9,Ticks_ISO_T2_8,48,5,42,127,1341037896
10,9,Ticks_ISO_T2_8,49,1,48,37,1341063824
10,9,Ticks_ISO_T2_8,50,5,42,127,1341837556
10,9,Ticks_ISO_T2_8,51,1,48,28,1341849424
10,9,Ticks_ISO_T2_8,52,1,48,29,1342602468
10,9,Ticks_ISO_T2_8,53,5,42,127,1342637308
10,9,Ticks_ISO_T2_8,54,5,42,127,1343438388
10,9,Ticks_ISO_T2_8,55,1,48,34,1343444648
10,9,Ticks_ISO_T2_8,56,5,42,127,1344237828
10,9,Ticks_ISO_T2_8,57,1,48,24,1344257996
10,9,Ticks_ISO_T2_8,58,5,42,127,1345037560
10,9,Ticks_ISO_T2_8,59,1,48,31,1345044340
10,9,Ticks_ISO_T2_8,60,5,42,127,1345837368
10,9,Ticks_ISO_T2_8,61,1,48,28,1345845272
10,9,Ticks_ISO_T2_8,62,5,42,127,1346638592
10,9,Ticks_ISO_T2_8,63,1,48,28,1346645900
10,9,Ticks_ISO_T2_8,64,5,42,127,1347437956
10,9,Ticks_ISO_T2_8,65,1,48,33,1347440700
10,9,Ticks_ISO_T2_8,66,5,42,127,1348237688
10,9,Ticks_ISO_T2_8,67,1,48,32,1348255536
10,9,Ticks_ISO_T2_8,68,5,42,127,1349037520
10,9,Ticks_ISO_T2_8,69,1,48,29,1349038488
10,9,Ticks_ISO_T2_8,70,5,42,127,1349838376
10,9,Ticks_ISO_T2_8,71,1,48,24,1349851592
10,9,Ticks_ISO_T2_8,72,1,48,27,1350620492
10,9,Ticks_ISO_T2_8,73,5,42,127,1350637880
10,9,Ticks_ISO_T2_8,74,1,48,32,1351404512
10,9,Ticks_ISO_T2_8,75,5,42,127,1351437684
10,9,Ticks_ISO_T2_8,76,5,42,127,1352237500
10,9,Ticks_ISO_T2_8,77,1,48,30,1352245776
10,9,Ticks_ISO_T2_8,78,5,42,127,1353038280
10,9,Ticks_ISO_T2_8,79,1,48,38,1353061448
10,9,Ticks_ISO_T2_8,80,5,42,127,1353837788
10,9,Ticks_ISO_T2_8,81,1,48,34,1353854148
10,9,Ticks_ISO_T2_8,82,1,48,28,1354619456
10,9,Ticks_ISO_T2_8,83,5,42,127,1354637668
10,9,Ticks_ISO_T2_8,84,1,48,31,1355433720
10,9,Ticks_ISO_T2_8,85,5,42,127,1355437424
10,9,Ticks_ISO_T2_8,86,1,48,32,1356215128
10,9,Ticks_ISO_T2_8,87,5,42,127,1356238280
10,9,Ticks_ISO_T2_8,88,1,48,32,1357022120
10,9,Ticks_ISO_T2_8,89,5,42,127,1357038016
10,9,Ticks_ISO_T2_8,90,5,42,127,1357837680
10,9,Ticks_ISO_T2_8,91,1,48,33,1357868548
10,9,Ticks_ISO_T2_8,92,1,48,30,1358631536
10,9,Ticks_ISO_T2_8,93,5,42,127,1358637404
10,9,Ticks_ISO_T2_8,94,1,48,31,1359430748
10,9,Ticks_ISO_T2_8,95,5,42,127,1359438184
10,9,Ticks_ISO_T2_8,96,5,42,127,1360238000
10,9,Ticks_ISO_T2_8,97,1,48,31,1360259148
10,9,Ticks_ISO_T2_8,98,5,42,127,1361037660
10,9,Ticks_ISO_T2_8,99,1,48,32,1361058884
10,9,Ticks_ISO_T2_8,100,5,42,127,1361837468
10,9,Ticks_ISO_T2_8,101,1,48,31,1361841108
10,9,Ticks_ISO_T2_8,102,1,48,26,1362614720
10,9,Ticks_ISO_T2_8,103,5,42,127,1362638240
10,9,Ticks_ISO_T2_8,104,1,48,33,1363403680
10,9,Ticks_ISO_T2_8,105,5,42,127,1363438048
10,9,Ticks_ISO_T2_8,106,1,48,26,1364197660
10,9,Ticks_ISO_T2_8,107,5,42,127,1364237560
10,9,Ticks_ISO_T2_8,108,1,48,32,1365002172
10,9,Ticks_ISO_T2_8,109,5,42,127,1365037516
10,9,Ticks_ISO_T2_8,110,5,42,127,1365838376
10,9,Ticks_ISO_T2_8,111,1,48,35,1365875900
10,9,Ticks_ISO_T2_8,112,5,42,127,1366637812
10,9,Ticks_ISO_T2_8,113,1,48,43,1366688572
10,9,Ticks_ISO_T2_8,114,5,42,127,1367437544
10,9,Ticks_ISO_T2_8,115,1,48,24,1367458016
10,9,Ticks_ISO_T2_8,116,1,48,35,1368204844
10,9,Ticks_ISO_T2_8,117,5,42,127,1368237444
10,9,Ticks_ISO_T2_8,118,1,48,39,1369035120
10,9,Ticks_ISO_T2_8,119,5,42,127,1369038296
10,9,Ticks_ISO_T2_8,120,1,48,36,1369812264
10,9,Ticks_ISO_T2_8,121,5,42,127,1369838104
10,9,Ticks_ISO_T2_8,122,1,48,31,1370590756
10,9,Ticks_ISO_T2_8,123,5,42,127,1370637616
10,9,Ticks_ISO_T2_8,124,1,48,31,1371382632
10,9,Ticks_ISO_T2_8,125,5,42,127,1371437348
10,9,Ticks_ISO_T2_8,126,1,48,27,1372202636
10,9,Ticks_ISO_T2_8,127,5,42,127,1372238276
10,9,Ticks_ISO_T2_8,128,1,48,31,1373006860
10,9,Ticks_ISO_T2_8,129,5,42,127,1373038308
10,9,Ticks_ISO_T2_8,130,1,48,27,1373800684
10,9,Ticks_ISO_T2_8,131,5,42,127,1373837668
10,9,Ticks_ISO_T2_8,132,1,48,28,1374598996
10,9,Ticks_ISO_T2_8,133,5,42,127,1374637352
10,9,Ticks_ISO_T2_8,134,1,48,30,1375420448
10,9,Ticks_ISO_T2_8,135,5,42,127,1375438204
10,9,Ticks_ISO_T2_8,136,1,48,26,1376195044
10,9,Ticks_ISO_T2_8,137,5,42,127,1376238164
10,9,Ticks_ISO_T2_8,138,1,48,27,1376991040
10,9,Ticks_ISO_T2_8,139,5,42,127,1377037748
10,9,Ticks_ISO_T2_8,140,1,48,24,1377800276
10,9,Ticks_ISO_T2_8,141,5,42,127,1377837556
10,9,Ticks_ISO_T2_8,142,5,42,127,1378638268
10,9,Ticks_ISO_T2_8,143,1,48,29,1378640860
10,9,Ticks_ISO_T2_8,144,1,48,27,1379429060
10,9,Ticks_ISO_T2_8,145,5,42,127,1379438144
10,9,Ticks_ISO_T2_8,146,1,48,28,1380191468
10,9,Ticks_ISO_T2_8,147,5,42,127,1380237728
10,9,Ticks_ISO_T2_8,148,1,48,28,1380994568
10,9,Ticks_ISO_T2_8,149,5,42,127,1381037336
10,9,Ticks_ISO_T2_8,150,1,48,32,1381834040
10,9,Ticks_ISO_T2_8,151,5,42,127,1381838116
10,9,Ticks_ISO_T2_8,152,1,48,27,1382620760
10,9,Ticks_ISO_T2_8,153,5,42,127,1382638072
10,9,Ticks_ISO_T2_8,154,1,48,29,1383409348
10,9,Ticks_ISO_T2_8,155,5,42,127,1383437952
10,9,Ticks_ISO_T2_8,156,1,48,30,1384199056
10,9,Ticks_ISO_T2_8,157,5,42,127,1384237392
10,9,Ticks_ISO_T2_8,158,1,48,26,1385020332
10,9,Ticks_ISO_T2_8,159,5,42,127,1385038172
10,9,Ticks_ISO_T2_8,160,5,42,127,1385838060
10,9,Ticks_ISO_T2_8,161,1,48,31,1385844692
10,9,Ticks_ISO_T2_8,162,5,42,127,1386637944
10,9,Ticks_ISO_T2_8,163,1,48,30,1386645248
10,9,Ticks_ISO_T2_8,164,1,48,29,1387422152
10,9,Ticks_ISO_T2_8,165,5,42,127,1387437324
10,9,Ticks_ISO_T2_8,166,5,42,127,1388238184
10,9,Ticks_ISO_T2_8,167,1,48,29,1388260676
10,9,Ticks_ISO_T2_8,168,1,48,27,1389030396
10,9,Ticks_ISO_T2_8,169,5,42,127,1389037836
10,9,Ticks_ISO_T2_8,170,1,48,28,1389823028
10,9,Ticks_ISO_T2_8,171,5,42,127,1389837644
10,9,Ticks_ISO_T2_8,172,1,48,29,1390588800
10,9,Ticks_ISO_T2_8,173,5,42,127,1390637380
10,9,Ticks_ISO_T2_8,174,1,48,24,1391375592
10,9,Ticks_ISO_T2_8,175,5,42,127,1391438156
10,9,Ticks_ISO_T2_8,176,5,42,127,1392237900
10,9,Ticks_ISO_T2_8,177,1,48,29,1392255304
10,9,Ticks_ISO_T2_8,178,1,48,31,1392995628
10,9,Ticks_ISO_T2_8,179,5,42,127,1393037776
10,9,Ticks_ISO_T2_8,180,1,48,27,1393819148
10,9,Ticks_ISO_T2_8,181,5,42,127,1393837456
10,9,Ticks_ISO_T2_8,182,5,42,127,1394638168
10,9,Ticks_ISO_T2_8,183,1,48,28,1394639208
10,9,Ticks_ISO_T2_8,184,5,42,127,1395438052
10,9,Ticks_ISO_T2_8,185,1,48,27,1395473404
10,9,Ticks_ISO_T2_8,186,1,48,33,1396237412
10,9,Ticks_ISO_T2_8,187,5,42,127,1396238900
10,9,Ticks_ISO_T2_8,188,5,42,127,1397037296
10,9,Ticks_ISO_T2_8,189,1,48,32,1397074516
10,9,Ticks_ISO_T2_8,190,5,42,127,1397838076
10,9,Ticks_ISO_T2_8,191,1,48,28,1397843136
10,9,Ticks_ISO_T2_8,192,5,42,127,1398637956
10,9,Ticks_ISO_T2_8,193,1,48,35,1398648404
10,9,Ticks_ISO_T2_8,194,1,48,33,1399435328
10,9,Ticks_ISO_T2_8,195,5,42,127,1399437904
10,9,Ticks_ISO_T2_8,196,1,48,32,1400224588
10,9,Ticks_ISO_T2_8,197,5,42,127,1400237364
10,9,Ticks_ISO_T2_8,198,1,48,28,1401013280
10,9,Ticks_ISO_T2_8,199,5,42,127,1401038072
10,9,Ticks_ISO_T2_8,200,1,48,27,1401755764
10,9,Ticks_ISO_T2_8,201,5,42,127,1401837952
10,9,Ticks_ISO_T2_8,202,1,48,31,1402623216
10,9,Ticks_ISO_T2_8,203,5,42,127,1402637760
10,9,Ticks_ISO_T2_8,204,1,48,31,1403434616
10,9,Ticks_ISO_T2_8,205,5,42,127,1403437272
10,9,Ticks_ISO_T2_8,206,5,42,127,1404238060
10,9,Ticks_ISO_T2_8,207,1,48,22,1404248732
10,9,Ticks_ISO_T2_8,208,1,48,30,1405004464
10,9,Ticks_ISO_T2_8,209,5,42,127,1405038008
10,9,Ticks_ISO_T2_8,210,5,42,127,1405837972
10,9,Ticks_ISO_T2_8,211,1,48,24,1405840644
10,9,Ticks_ISO_T2_8,212,1,48,24,1406633872
10,9,Ticks_ISO_T2_8,213,5,42,127,1406637500
10,9,Ticks_ISO_T2_8,214,1,48,19,1407405256
10,9,Ticks_ISO_T2_8,215,5,42,127,1407438056
10,9,Ticks_ISO_T2_8,216,5,42,127,1408237796
10,9,Ticks_ISO_T2_8,217,1,48,34,1408241432
10,9,Ticks_ISO_T2_8,218,5,42,127,1409037828
10,9,Ticks_ISO_T2_8,219,1,48,21,1409062936
10,9,Ticks_ISO_T2_8,220,5,42,127,1409837560
10,9,Ticks_ISO_T2_8,221,1,48,27,1409841124
10,9,Ticks_ISO_T2_8,222,1,48,29,1410608828
10,9,Ticks_ISO_T2_8,223,5,42,127,1410638184
10,9,Ticks_ISO_T2_8,224,1,48,27,1411431076
10,9,Ticks_ISO_T2_8,225,5,42,127,1411437916
10,9,Ticks_ISO_T2_8,226,1,48,25,1412230216
10,9,Ticks_ISO_T2_8,227,5,42,127,1412237800
10,9,Ticks_ISO_T2_8,228,1,48,29,1413010948
10,9,Ticks_ISO_T2_8,229,5,42,127,1413037412
10,9,Ticks_ISO_T2_8,230,5,42,127,1413838196
10,9,Ticks_ISO_T2_8,231,1,48,28,1413840864
10,9,Ticks_ISO_T2_8,232,5,42,127,1414637784
10,9,Ticks_ISO_T2_8,233,1,48,24,1414640828
10,9,Ticks_ISO_T2_8,234,5,42,127,1415437592
10,9,Ticks_ISO_T2_8,235,1,48,27,1415449612
10,9,Ticks_ISO_T2_8,236,5,42,127,1416237696
10,9,Ticks_ISO_T2_8,237,1,48,28,1416243656
10,9,Ticks_ISO_T2_8,238,1,48,22,1417037348
10,9,Ticks_ISO_T2_8,239,5,42,127,1417038692
10,9,Ticks_ISO_T2_8,240,1,48,27,1417818276
10,9,Ticks_ISO_T2_8,0,9999,9999,9999,9999,1321835576
10,9,Ticks_ISO_T2_8,1,9999,9999,9999,9999,1322635384
10,9,Ticks_ISO_T2_8,2,9999,9999,9999,9999,1323435068
10,9,Ticks_ISO_T2_8,3,9999,9999,9999,9999,1324235848
10,9,Ticks_ISO_T2_8,4,9999,9999,9999,9999,1325035580
10,9,Ticks_ISO_T2_8,5,9999,9999,9999,9999,1325835312
10,9,Ticks_ISO_T2_8,6,9999,9999,9999,9999,1326635120
10,9,Ticks_ISO_T2_8,7,9999,9999,9999,9999,1327435824
10,9,Ticks_ISO_T2_8,8,9999,9999,9999,9999,1328235632
10,9,Ticks_ISO_T2_8,9,9999,9999,9999,9999,1329035368
10,9,Ticks_ISO_T2_8,10,9999,9999,9999,9999,1329835116
10,9,Ticks_ISO_T2_8,11,9999,9999,9999,9999,1330635828
10,9,Ticks_ISO_T2_8,12,9999,9999,9999,9999,1331435632
10,9,Ticks_ISO_T2_8,13,9999,9999,9999,9999,1332235364
10,9,Ticks_ISO_T2_8,14,9999,9999,9999,9999,1333035100
10,9,Ticks_ISO_T2_8,15,9999,9999,9999,9999,1333835876
10,9,Ticks_ISO_T2_8,16,9999,9999,9999,9999,1334635612
10,9,Ticks_ISO_T2_8,17,9999,9999,9999,9999,1335435352
10,9,Ticks_ISO_T2_8,18,9999,9999,9999,9999,1336235108
10,9,Ticks_ISO_T2_8,19,9999,9999,9999,9999,1337035884
10,9,Ticks_ISO_T2_8,20,9999,9999,9999,9999,1337835616
10,9,Ticks_ISO_T2_8,21,9999,9999,9999,9999,1338635348
10,9,Ticks_ISO_T2_8,22,9999,9999,9999,9999,1339435084
10,9,Ticks_ISO_T2_8,23,9999,9999,9999,9999,1340235864
10,9,Ticks_ISO_T2_8,24,9999,9999,9999,9999,1341035604
10,9,Ticks_ISO_T2_8,25,9999,9999,9999,9999,1341835340
10,9,Ticks_ISO_T2_8,26,9999,9999,9999,9999,1342635088
10,9,Ticks_ISO_T2_8,27,9999,9999,9999,9999,1343435876
10,9,Ticks_ISO_T2_8,28,9999,9999,9999,9999,1344235608
10,9,Ticks_ISO_T2_8,29,9999,9999,9999,9999,1345035344
10,9,Ticks_ISO_T2_8,30,9999,9999,9999,9999,1345835076
10,9,Ticks_ISO_T2_8,31,9999,9999,9999,9999,1346635856
10,9,Ticks_ISO_T2_8,32,9999,9999,9999,9999,1347435588
10,9,Ticks_ISO_T2_8,33,9999,9999,9999,9999,1348235324
10,9,Ticks_ISO_T2_8,34,9999,9999,9999,9999,1349035080
10,9,Ticks_ISO_T2_8,35,9999,9999,9999,9999,1349835860
10,9,Ticks_ISO_T2_8,36,9999,9999,9999,9999,1350635588
10,9,Ticks_ISO_T2_8,37,9999,9999,9999,9999,1351435320
10,9,Ticks_ISO_T2_8,38,9999,9999,9999,9999,1352235060
10,9,Ticks_ISO_T2_8,39,9999,9999,9999,9999,1353035840
10,9,Ticks_ISO_T2_8,40,9999,9999,9999,9999,1353835572
10,9,Ticks_ISO_T2_8,41,9999,9999,9999,9999,1354635376
10,9,Ticks_ISO_T2_8,42,9999,9999,9999,9999,1355435060
10,9,Ticks_ISO_T2_8,43,9999,9999,9999,9999,1356235840
10,9,Ticks_ISO_T2_8,44,9999,9999,9999,9999,1357035576
10,9,Ticks_ISO_T2_8,45,9999,9999,9999,9999,1357835312
10,9,Ticks_ISO_T2_8,46,9999,9999,9999,9999,1358635116
10,9,Ticks_ISO_T2_8,47,9999,9999,9999,9999,1359435892
10,9,Ticks_ISO_T2_8,48,9999,9999,9999,9999,1360235636
10,9,Ticks_ISO_T2_8,49,9999,9999,9999,9999,1361035368
10,9,Ticks_ISO_T2_8,50,9999,9999,9999,9999,1361835100
10,9,Ticks_ISO_T2_8,51,9999,9999,9999,9999,1362635876
10,9,Ticks_ISO_T2_8,52,9999,9999,9999,9999,1363435608
10,9,Ticks_ISO_T2_8,53,9999,9999,9999,9999,1364235340
10,9,Ticks_ISO_T2_8,54,9999,9999,9999,9999,1365035076
10,9,Ticks_ISO_T2_8,55,9999,9999,9999,9999,1365835860
10,9,Ticks_ISO_T2_8,56,9999,9999,9999,9999,1366635592
10,9,Ticks_ISO_T2_8,57,9999,9999,9999,9999,1367435324
10,9,Ticks_ISO_T2_8,58,9999,9999,9999,9999,1368235076
10,9,Ticks_ISO_T2_8,59,9999,9999,9999,9999,1369035856
10,9,Ticks_ISO_T2_8,60,9999,9999,9999,9999,1369835588
10,9,Ticks_ISO_T2_8,61,9999,9999,9999,9999,1370635324
10,9,Ticks_ISO_T2_8,62,9999,9999,9999,9999,1371435056
10,9,Ticks_ISO_T2_8,63,9999,9999,9999,9999,1372235836
10,9,Ticks_ISO_T2_8,64,9999,9999,9999,9999,1373035568
10,9,Ticks_ISO_T2_8,65,9999,9999,9999,9999,1373835376
10,9,Ticks_ISO_T2_8,66,9999,9999,9999,9999,1374635060
10,9,Ticks_ISO_T2_8,67,9999,9999,9999,9999,1375435840
10,9,Ticks_ISO_T2_8,68,9999,9999,9999,9999,1376235576
10,9,Ticks_ISO_T2_8,69,9999,9999,9999,9999,1377035384
10,9,Ticks_ISO_T2_8,70,9999,9999,9999,9999,1377835116
10,9,Ticks_ISO_T2_8,71,9999,9999,9999,9999,1378635828
10,9,Ticks_ISO_T2_8,72,9999,9999,9999,9999,1379435628
10,9,Ticks_ISO_T2_8,73,9999,9999,9999,9999,1380235360
10,9,Ticks_ISO_T2_8,74,9999,9999,9999,9999,1381035120
10,9,Ticks_ISO_T2_8,75,9999,9999,9999,9999,1381835824
10,9,Ticks_ISO_T2_8,76,9999,9999,9999,9999,1382635632
10,9,Ticks_ISO_T2_8,77,9999,9999,9999,9999,1383435364
10,9,Ticks_ISO_T2_8,78,9999,9999,9999,9999,1384235100
10,9,Ticks_ISO_T2_8,79,9999,9999,9999,9999,1385035880
10,9,Ticks_ISO_T2_8,80,9999,9999,9999,9999,1385835620
10,9,Ticks_ISO_T2_8,81,9999,9999,9999,9999,1386635356
10,9,Ticks_ISO_T2_8,82,9999,9999,9999,9999,1387435108
10,9,Ticks_ISO_T2_8,83,9999,9999,9999,9999,1388235892
10,9,Ticks_ISO_T2_8,84,9999,9999,9999,9999,1389035620
10,9,Ticks_ISO_T2_8,85,9999,9999,9999,9999,1389835352
10,9,Ticks_ISO_T2_8,86,9999,9999,9999,9999,1390635088
10,9,Ticks_ISO_T2_8,87,9999,9999,9999,9999,1391435868
10,9,Ticks_ISO_T2_8,88,9999,9999,9999,9999,1392235608
10,9,Ticks_ISO_T2_8,89,9999,9999,9999,9999,1393035336
10,9,Ticks_ISO_T2_8,90,9999,9999,9999,9999,1393835092
10,9,Ticks_ISO_T2_8,91,9999,9999,9999,9999,1394635876
10,9,Ticks_ISO_T2_8,92,9999,9999,9999,9999,1395435612
10,9,Ticks_ISO_T2_8,93,9999,9999,9999,9999,1396235344
10,9,Ticks_ISO_T2_8,94,9999,9999,9999,9999,1397035076
10,9,Ticks_ISO_T2_8,95,9999,9999,9999,9999,1397835856
10,9,Ticks_ISO_T2_8,96,9999,9999,9999,9999,1398635592
10,9,Ticks_ISO_T2_8,97,9999,9999,9999,9999,1399435392
10,9,Ticks_ISO_T2_8,98,9999,9999,9999,9999,1400235072
10,9,Ticks_ISO_T2_8,99,9999,9999,9999,9999,1401035856
10,9,Ticks_ISO_T2_8,100,9999,9999,9999,9999,1401835588
10,9,Ticks_ISO_T2_8,101,9999,9999,9999,9999,1402635320
10,9,Ticks_ISO_T2_8,102,9999,9999,9999,9999,1403435056
10,9,Ticks_ISO_T2_8,103,9999,9999,9999,9999,1404235840
10,9,Ticks_ISO_T2_8,104,9999,9999,9999,9999,1405035568
10,9,Ticks_ISO_T2_8,105,9999,9999,9999,9999,1405835380
10,9,Ticks_ISO_T2_8,106,9999,9999,9999,9999,1406635060
10,9,Ticks_ISO_T2_8,107,9999,9999,9999,9999,1407435836
10,9,Ticks_ISO_T2_8,108,9999,9999,9999,9999,1408235576
10,9,Ticks_ISO_T2_8,109,9999,9999,9999,9999,1409035312
10,9,Ticks_ISO_T2_8,110,9999,9999,9999,9999,1409835120
10,9,Ticks_ISO_T2_8,111,9999,9999,9999,9999,1410635892
10,9,Ticks_ISO_T2_8,112,9999,9999,9999,9999,1411435624
10,9,Ticks_ISO_T2_8,113,9999,9999,9999,9999,1412235360
10,9,Ticks_ISO_T2_8,114,9999,9999,9999,9999,1413035120
10,9,Ticks_ISO_T2_8,115,9999,9999,9999,9999,1413835832
10,9,Ticks_ISO_T2_8,116,9999,9999,9999,9999,1414635564
10,9,Ticks_ISO_T2_8,117,9999,9999,9999,9999,1415435372
10,9,Ticks_ISO_T2_8,118,9999,9999,9999,9999,1416235104
10,9,Ticks_ISO_T2_8,119,9999,9999,9999,9999,1417035884
11,25,Jits_Pract_5,0,5,56,103,1461308820
11,25,Jits_Pract_5,1,5,63,98,1461312140
11,25,Jits_Pract_5,2,5,80,127,1461315260
11,25,Jits_Pract_5,0,5,56,103,1461808468
11,25,Jits_Pract_5,1,5,63,98,1461811564
11,25,Jits_Pract_5,2,5,80,127,1461814760
11,25,Jits_Pract_5,0,5,56,103,1462309184
11,25,Jits_Pract_5,1,5,80,127,1462318408
11,25,Jits_Pract_5,2,5,63,98,1462339088
11,25,Jits_Pract_5,0,5,63,98,1462758732
11,25,Jits_Pract_5,1,5,80,127,1462788336
11,25,Jits_Pract_5,2,5,56,103,1462798828
11,25,Jits_Pract_5,0,5,80,127,1463318848
11,25,Jits_Pract_5,1,5,56,103,1463329044
11,25,Jits_Pract_5,2,5,63,98,1463359016
11,25,Jits_Pract_5,0,5,63,98,1463809452
11,25,Jits_Pract_5,1,5,56,103,1463839204
11,25,Jits_Pract_5,2,5,80,127,1463849400
11,25,Jits_Pract_5,0,5,56,103,1464259064
11,25,Jits_Pract_5,1,5,63,98,1464309192
11,25,Jits_Pract_5,2,5,80,127,1464328456
11,25,Jits_Pract_5,0,5,80,127,1464758508
11,25,Jits_Pract_5,1,5,63,98,1464809080
11,25,Jits_Pract_5,2,5,56,103,1464848720
11,25,Jits_Pract_5,0,5,56,103,1465259444
11,25,Jits_Pract_5,1,5,63,98,1465289196
11,25,Jits_Pract_5,2,5,80,127,1465358652
11,25,Jits_Pract_5,0,5,56,103,1465759044
11,25,Jits_Pract_5,1,5,80,127,1465818460
11,25,Jits_Pract_5,2,5,63,98,1465849184
11,25,Jits_Pract_5,0,5,56,103,1466269028
11,25,Jits_Pract_5,1,5,63,98,1466279248
11,25,Jits_Pract_5,2,5,80,127,1466319112
11,25,Jits_Pract_5,0,5,63,98,1466758656
11,25,Jits_Pract_5,1,5,80,127,1466839300
11,25,Jits_Pract_5,2,5,56,103,1466848672
11,25,Jits_Pract_5,0,5,63,98,1467309508
11,25,Jits_Pract_5,1,5,56,103,1467349296
11,25,Jits_Pract_5,2,5,80,127,1467352364
11,25,Jits_Pract_5,0,5,56,103,1467769128
11,25,Jits_Pract_5,1,5,63,98,1467778276
11,25,Jits_Pract_5,2,5,80,127,1467819508
11,25,Jits_Pract_5,0,5,56,103,1468258520
11,25,Jits_Pract_5,1,5,63,98,1468261516
11,25,Jits_Pract_5,2,5,80,127,1468279204
11,25,Jits_Pract_5,0,9999,9999,9999,9999,1461556332
11,25,Jits_Pract_5,1,9999,9999,9999,9999,1462057028
11,25,Jits_Pract_5,2,9999,9999,9999,9999,1462556772
11,25,Jits_Pract_5,3,9999,9999,9999,9999,1463056440
11,25,Jits_Pract_5,4,9999,9999,9999,9999,1463556176
11,25,Jits_Pract_5,5,9999,9999,9999,9999,1464056896
11,25,Jits_Pract_5,6,9999,9999,9999,9999,1464556624
11,25,Jits_Pract_5,7,9999,9999,9999,9999,1465056368
11,25,Jits_Pract_5,8,9999,9999,9999,9999,1465557080
11,25,Jits_Pract_5,9,9999,9999,9999,9999,1466056756
11,25,Jits_Pract_5,10,9999,9999,9999,9999,1466556496
11,25,Jits_Pract_5,11,9999,9999,9999,9999,1467056244
11,25,Jits_Pract_5,12,9999,9999,9999,9999,1467556944
11,25,Jits_Pract_5,13,9999,9999,9999,9999,1468056644
11,25,Jits_Pract_5,14,9999,9999,9999,9999,1468556368
12,25,Jits_Pract_5,0,5,56,103,1521069396
12,25,Jits_Pract_5,1,5,63,98,1521072488
12,25,Jits_Pract_5,2,5,80,127,1521075688
12,25,Jits_Pract_5,0,5,56,103,1521570544
12,25,Jits_Pract_5,1,5,63,98,1521573416
12,25,Jits_Pract_5,2,5,80,127,1521576532
12,25,Jits_Pract_5,0,1,48,33,1522056724
12,25,Jits_Pract_5,1,5,56,103,1522069724
12,25,Jits_Pract_5,2,5,80,127,1522080316
12,25,Jits_Pract_5,3,5,63,98,1522099580
12,25,Jits_Pract_5,0,5,63,98,1522520348
12,25,Jits_Pract_5,1,5,80,127,1522550396
12,25,Jits_Pract_5,2,1,48,37,1522552112
12,25,Jits_Pract_5,3,5,56,103,1522560584
12,25,Jits_Pract_5,0,1,48,39,1523025612
12,25,Jits_Pract_5,1,5,80,127,1523079596
12,25,Jits_Pract_5,2,5,56,103,1523089864
12,25,Jits_Pract_5,3,5,63,98,1523119400
12,25,Jits_Pract_5,0,1,48,38,1523557772
12,25,Jits_Pract_5,1,5,63,98,1523570224
12,25,Jits_Pract_5,2,5,56,103,1523599604
12,25,Jits_Pract_5,3,5,80,127,1523610096
12,25,Jits_Pract_5,0,5,56,103,1524019580
12,25,Jits_Pract_5,1,5,63,98,1524069708
12,25,Jits_Pract_5,2,5,80,127,1524090240
12,25,Jits_Pract_5,3,1,48,32,1524091208
12,25,Jits_Pract_5,0,5,80,127,1524520184
12,25,Jits_Pract_5,1,1,48,34,1524543528
12,25,Jits_Pract_5,2,5,63,98,1524569404
12,25,Jits_Pract_5,3,5,56,103,1524610316
12,25,Jits_Pract_5,0,5,56,103,1525019964
12,25,Jits_Pract_5,1,1,48,33,1525026072
12,25,Jits_Pract_5,2,5,63,98,1525049708
12,25,Jits_Pract_5,3,5,80,127,1525120360
12,25,Jits_Pract_5,0,5,56,103,1525519744
12,25,Jits_Pract_5,1,1,48,25,1525547520
12,25,Jits_Pract_5,2,5,80,127,1525580280
12,25,Jits_Pract_5,3,5,63,98,1525609804
12,25,Jits_Pract_5,0,5,56,103,1526029716
12,25,Jits_Pract_5,1,5,63,98,1526040136
12,25,Jits_Pract_5,2,1,48,24,1526059220
12,25,Jits_Pract_5,3,5,80,127,1526079992
12,25,Jits_Pract_5,0,5,63,98,1526520200
12,25,Jits_Pract_5,1,1,48,21,1526568728
12,25,Jits_Pract_5,2,5,80,127,1526600064
12,25,Jits_Pract_5,3,5,56,103,1526610264
12,25,Jits_Pract_5,0,1,48,25,1527067204
12,25,Jits_Pract_5,1,5,63,98,1527070236
12,25,Jits_Pract_5,2,5,56,103,1527110100
12,25,Jits_Pract_5,3,5,80,127,1527113092
12,25,Jits_Pract_5,0,5,56,103,1527529772
12,25,Jits_Pract_5,1,5,63,98,1527540192
12,25,Jits_Pract_5,2,1,48,24,1527579152
12,25,Jits_Pract_5,3,5,80,127,1527580724
12,25,Jits_Pract_5,0,5,56,103,1528020332
12,25,Jits_Pract_5,1,5,63,98,1528023620
12,25,Jits_Pract_5,2,5,80,127,1528039744
12,25,Jits_Pract_5,3,1,48,28,1528050652
12,25,Jits_Pract_5,0,9999,9999,9999,9999,1521317952
12,25,Jits_Pract_5,1,9999,9999,9999,9999,1521817652
12,25,Jits_Pract_5,2,9999,9999,9999,9999,1522317372
12,25,Jits_Pract_5,3,9999,9999,9999,9999,1522817136
12,25,Jits_Pract_5,4,9999,9999,9999,9999,1523317880
12,25,Jits_Pract_5,5,9999,9999,9999,9999,1523817576
12,25,Jits_Pract_5,6,9999,9999,9999,9999,1524317268
12,25,Jits_Pract_5,7,9999,9999,9999,9999,1524818020
12,25,Jits_Pract_5,8,9999,9999,9999,9999,1525317724
12,25,Jits_Pract_5,9,9999,9999,9999,9999,1525817432
12,25,Jits_Pract_5,10,9999,9999,9999,9999,1526317140
12,25,Jits_Pract_5,11,9999,9999,9999,9999,1526817896
12,25,Jits_Pract_5,12,9999,9999,9999,9999,1527317580
12,25,Jits_Pract_5,13,9999,9999,9999,9999,1527817268
12,25,Jits_Pract_5,14,9999,9999,9999,9999,1528318008
13,24,Jits_Pract_8,0,5,56,103,1535992128
13,24,Jits_Pract_8,1,5,63,98,1535995148
13,24,Jits_Pract_8,2,5,80,127,1535998272
13,24,Jits_Pract_8,0,5,56,103,1536791920
13,24,Jits_Pract_8,1,5,63,98,1536794868
13,24,Jits_Pract_8,2,5,80,127,1536798140
13,24,Jits_Pract_8,3,1,48,27,1536950076
13,24,Jits_Pract_8,0,5,80,127,1537532204
13,24,Jits_Pract_8,1,1,48,37,1537568056
13,24,Jits_Pract_8,2,5,63,98,1537622476
13,24,Jits_Pract_8,3,5,56,103,1537631552
13,24,Jits_Pract_8,0,1,48,41,1538341012
13,24,Jits_Pract_8,1,5,56,103,1538351372
13,24,Jits_Pract_8,2,5,63,98,1538361644
13,24,Jits_Pract_8,3,5,80,127,1538451756
13,24,Jits_Pract_8,0,1,48,28,1539120100
13,24,Jits_Pract_8,1,5,63,98,1539121608
13,24,Jits_Pract_8,2,5,80,127,1539152180
13,24,Jits_Pract_8,3,5,56,103,1539182080
13,24,Jits_Pract_8,0,1,48,36,1539902076
13,24,Jits_Pract_8,1,5,56,103,1539922180
13,24,Jits_Pract_8,2,5,80,127,1540021468
13,24,Jits_Pract_8,3,5,63,98,1540071744
13,24,Jits_Pract_8,0,5,56,103,1540721948
13,24,Jits_Pract_8,1,5,80,127,1540772324
13,24,Jits_Pract_8,2,1,48,32,1540784512
13,24,Jits_Pract_8,3,5,63,98,1540812256
13,24,Jits_Pract_8,0,1,48,26,1541512168
13,24,Jits_Pract_8,1,5,80,127,1541551476
13,24,Jits_Pract_8,2,5,63,98,1541582128
13,24,Jits_Pract_8,3,5,56,103,1541652012
13,24,Jits_Pract_8,0,5,63,98,1542382180
13,24,Jits_Pract_8,1,5,56,103,1542411488
13,24,Jits_Pract_8,2,1,48,24,1542421052
13,24,Jits_Pract_8,3,5,80,127,1542472164
13,24,Jits_Pract_8,0,5,56,103,1543122148
13,24,Jits_Pract_8,1,5,80,127,1543125220
13,24,Jits_Pract_8,2,1,48,34,1543159204
13,24,Jits_Pract_8,3,5,63,98,1543242092
13,24,Jits_Pract_8,0,5,56,103,1544001856
13,24,Jits_Pract_8,1,1,48,27,1544003720
13,24,Jits_Pract_8,2,5,80,127,1544041940
13,24,Jits_Pract_8,3,5,63,98,1544052208
13,24,Jits_Pract_8,0,5,56,103,1544761924
13,24,Jits_Pract_8,1,5,80,127,1544782232
13,24,Jits_Pract_8,2,1,48,36,1544813520
13,24,Jits_Pract_8,3,5,63,98,1544862044
13,24,Jits_Pract_8,0,5,80,127,1545552108
13,24,Jits_Pract_8,1,1,48,38,1545593508
13,24,Jits_Pract_8,2,5,56,103,1545651700
13,24,Jits_Pract_8,3,5,63,98,1545661896
13,24,Jits_Pract_8,0,5,63,98,1546322360
13,24,Jits_Pract_8,1,5,80,127,1546381632
13,24,Jits_Pract_8,2,5,56,103,1546392124
13,24,Jits_Pract_8,3,1,48,34,1546454156
13,24,Jits_Pract_8,0,5,56,103,1547121968
13,24,Jits_Pract_8,1,1,48,14,1547160080
13,24,Jits_Pract_8,2,5,63,98,1547191740
13,24,Jits_Pract_8,3,5,80,127,1547195028
13,24,Jits_Pract_8,0,9999,9999,9999,9999,1536389236
13,24,Jits_Pract_8,1,9999,9999,9999,9999,1537190004
13,24,Jits_Pract_8,2,9999,9999,9999,9999,1537989704
13,24,Jits_Pract_8,3,9999,9999,9999,9999,1538789472
13,24,Jits_Pract_8,4,9999,9999,9999,9999,1539589224
13,24,Jits_Pract_8,5,9999,9999,9999,9999,1540389956
13,24,Jits_Pract_8,6,9999,9999,9999,9999,1541189708
13,24,Jits_Pract_8,7,9999,9999,9999,9999,1541989484
13,24,Jits_Pract_8,8,9999,9999,9999,9999,1542789244
13,24,Jits_Pract_8,9,9999,9999,9999,9999,1543589984
13,24,Jits_Pract_8,10,9999,9999,9999,9999,1544389684
13,24,Jits_Pract_8,11,9999,9999,9999,9999,1545189460
13,24,Jits_Pract_8,12,9999,9999,9999,9999,1545989236
13,24,Jits_Pract_8,13,9999,9999,9999,9999,1546789976
13,24,Jits_Pract_8,14,9999,9999,9999,9999,1547589720
14,17,Jits_Phase_5,0,5,56,103,1577418048
14,17,Jits_Phase_5,1,5,63,98,1577421224
14,17,Jits_Phase_5,2,5,80,127,1577424272
14,17,Jits_Phase_5,0,5,56,103,1577917756
14,17,Jits_Phase_5,1,5,63,98,1577920860
14,17,Jits_Phase_5,2,5,80,127,1577923908
14,17,Jits_Phase_5,3,1,48,34,1578110488
14,17,Jits_Phase_5,0,5,56,103,1578417896
14,17,Jits_Phase_5,1,5,80,127,1578427648
14,17,Jits_Phase_5,2,5,63,98,1578448404
14,17,Jits_Phase_5,3,1,48,28,1578495044
14,17,Jits_Phase_5,0,5,63,98,1578868044
14,17,Jits_Phase_5,1,5,80,127,1578897796
14,17,Jits_Phase_5,2,1,48,37,1578899356
14,17,Jits_Phase_5,3,5,56,103,1578908008
14,17,Jits_Phase_5,0,1,48,33,1579336820
14,17,Jits_Phase_5,1,5,80,127,1579428120
14,17,Jits_Phase_5,2,5,56,103,1579437404
14,17,Jits_Phase_5,3,5,63,98,1579468124
14,17,Jits_Phase_5,0,5,63,98,1579917660
14,17,Jits_Phase_5,1,1,48,26,1579944024
14,17,Jits_Phase_5,2,5,56,103,1579948548
14,17,Jits_Phase_5,3,5,80,127,1579957548
14,17,Jits_Phase_5,0,5,56,103,1580368412
14,17,Jits_Phase_5,1,5,63,98,1580418540
14,17,Jits_Phase_5,2,5,80,127,1580437728
14,17,Jits_Phase_5,3,1,48,25,1580467992
14,17,Jits_Phase_5,0,5,80,127,1580867952
14,17,Jits_Phase_5,1,5,63,98,1580918080
14,17,Jits_Phase_5,2,1,48,23,1580945088
14,17,Jits_Phase_5,3,5,56,103,1580958032
14,17,Jits_Phase_5,0,5,56,103,1581367568
14,17,Jits_Phase_5,1,5,63,98,1581398440
14,17,Jits_Phase_5,2,1,48,22,1581426584
14,17,Jits_Phase_5,3,5,80,127,1581468060
14,17,Jits_Phase_5,0,5,56,103,1581868676
14,17,Jits_Phase_5,1,1,48,20,1581890228
14,17,Jits_Phase_5,2,5,80,127,1581927716
14,17,Jits_Phase_5,3,5,63,98,1581957540
14,17,Jits_Phase_5,0,5,56,103,1582387700
14,17,Jits_Phase_5,1,1,48,24,1582390296
14,17,Jits_Phase_5,2,5,63,98,1582397664
14,17,Jits_Phase_5,3,5,80,127,1582437676
14,17,Jits_Phase_5,0,5,63,98,1582878020
14,17,Jits_Phase_5,1,1,48,21,1582928712
14,17,Jits_Phase_5,2,5,80,127,1582957884
14,17,Jits_Phase_5,3,5,56,103,1582968300
14,17,Jits_Phase_5,0,1,48,23,1583422380
14,17,Jits_Phase_5,1,5,63,98,1583428036
14,17,Jits_Phase_5,2,5,56,103,1583467972
14,17,Jits_Phase_5,3,5,80,127,1583471040
14,17,Jits_Phase_5,0,5,56,103,1583887704
14,17,Jits_Phase_5,1,5,63,98,1583898048
14,17,Jits_Phase_5,2,1,48,23,1583931956
14,17,Jits_Phase_5,3,5,80,127,1583937756
14,17,Jits_Phase_5,0,5,56,103,1584378472
14,17,Jits_Phase_5,1,5,63,98,1584381092
14,17,Jits_Phase_5,2,1,48,25,1584382056
14,17,Jits_Phase_5,3,5,80,127,1584397728
14,17,Jits_Phase_5,0,1,48,23,1584844688
14,17,Jits_Phase_5,1,5,80,127,1584888180
14,17,Jits_Phase_5,2,5,56,103,1584898452
14,17,Jits_Phase_5,3,5,63,98,1584967968
14,17,Jits_Phase_5,0,5,63,98,1585377600
14,17,Jits_Phase_5,1,1,48,25,1585387020
14,17,Jits_Phase_5,2,5,56,103,1585398056
14,17,Jits_Phase_5,3,5,80,127,1585478068
14,17,Jits_Phase_5,0,5,56,103,1585887688
14,17,Jits_Phase_5,1,1,48,27,1585898376
14,17,Jits_Phase_5,2,5,80,127,1585927696
14,17,Jits_Phase_5,3,5,63,98,1585937816
14,17,Jits_Phase_5,0,1,48,27,1586384712
14,17,Jits_Phase_5,1,5,80,127,1586388496
14,17,Jits_Phase_5,2,5,63,98,1586418096
14,17,Jits_Phase_5,3,5,56,103,1586458108
14,17,Jits_Phase_5,0,1,48,26,1586907128
14,17,Jits_Phase_5,1,5,56,103,1586908472
14,17,Jits_Phase_5,2,5,63,98,1586938444
14,17,Jits_Phase_5,3,5,80,127,1586988348
14,17,Jits_Phase_5,0,1,48,30,1587396436
14,17,Jits_Phase_5,1,5,80,127,1587408372
14,17,Jits_Phase_5,2,5,56,103,1587448456
14,17,Jits_Phase_5,3,5,63,98,1587458800
14,17,Jits_Phase_5,0,5,80,127,1587887600
14,17,Jits_Phase_5,1,1,48,26,1587920388
14,17,Jits_Phase_5,2,5,63,98,1587928428
14,17,Jits_Phase_5,3,5,56,103,1587987844
14,17,Jits_Phase_5,0,5,56,103,1588388484
14,17,Jits_Phase_5,1,5,80,127,1588397484
14,17,Jits_Phase_5,2,1,48,26,1588441952
14,17,Jits_Phase_5,3,5,63,98,1588478464
14,17,Jits_Phase_5,0,5,80,127,1588887848
14,17,Jits_Phase_5,1,1,48,28,1588905440
14,17,Jits_Phase_5,2,5,63,98,1588948628
14,17,Jits_Phase_5,3,5,56,103,1588977928
14,17,Jits_Phase_5,0,5,56,103,1589387612
14,17,Jits_Phase_5,1,1,48,27,1589415840
14,17,Jits_Phase_5,2,5,80,127,1589447944
14,17,Jits_Phase_5,3,5,63,98,1589487956
14,17,Jits_Phase_5,0,1,48,29,1589886748
14,17,Jits_Phase_5,1,5,56,103,1589937516
14,17,Jits_Phase_5,2,5,63,98,1589947860
14,17,Jits_Phase_5,3,5,80,127,1589951296
14,17,Jits_Phase_5,0,5,80,127,1590388164
14,17,Jits_Phase_5,1,1,48,24,1590400800
14,17,Jits_Phase_5,2,5,63,98,1590478316
14,17,Jits_Phase_5,3,5,56,103,1590488364
14,17,Jits_Phase_5,0,5,56,103,1590887840
14,17,Jits_Phase_5,1,5,63,98,1590890936
14,17,Jits_Phase_5,2,5,80,127,1590894208
14,17,Jits_Phase_5,3,1,48,24,1590923480
14,17,Jits_Phase_5,0,1,48,22,1591391448
14,17,Jits_Phase_5,1,5,80,127,1591407884
14,17,Jits_Phase_5,2,5,63,98,1591458112
14,17,Jits_Phase_5,3,5,56,103,1591487788
14,17,Jits_Phase_5,0,5,56,103,1591888460
14,17,Jits_Phase_5,1,5,80,127,1591897388
14,17,Jits_Phase_5,2,1,48,23,1591920580
14,17,Jits_Phase_5,3,5,63,98,1591968204
14,17,Jits_Phase_5,0,5,56,103,1592398412
14,17,Jits_Phase_5,1,1,48,25,1592416320
14,17,Jits_Phase_5,2,5,63,98,1592417892
14,17,Jits_Phase_5,3,5,80,127,1592478008
14,17,Jits_Phase_5,0,5,80,127,1592877504
14,17,Jits_Phase_5,1,1,48,23,1592917112
14,17,Jits_Phase_5,2,5,63,98,1592948000
14,17,Jits_Phase_5,3,5,56,103,1592967564
14,17,Jits_Phase_5,0,5,80,127,1593397500
14,17,Jits_Phase_5,1,5,56,103,1593407920
14,17,Jits_Phase_5,2,5,63,98,1593418264
14,17,Jits_Phase_5,3,1,48,24,1593429772
14,17,Jits_Phase_5,0,5,80,127,1593888120
14,17,Jits_Phase_5,1,1,48,23,1593902252
14,17,Jits_Phase_5,2,5,56,103,1593907528
14,17,Jits_Phase_5,3,5,63,98,1593978324
14,17,Jits_Phase_5,0,1,48,21,1594352480
14,17,Jits_Phase_5,1,5,56,103,1594397916
14,17,Jits_Phase_5,2,5,80,127,1594427740
14,17,Jits_Phase_5,3,5,63,98,1594448404
14,17,Jits_Phase_5,0,1,48,19,1594857408
14,17,Jits_Phase_5,1,5,63,98,1594887404
14,17,Jits_Phase_5,2,5,56,103,1594947940
14,17,Jits_Phase_5,3,5,80,127,1594977676
14,17,Jits_Phase_5,0,1,48,24,1595374608
14,17,Jits_Phase_5,1,5,63,98,1595378156
14,17,Jits_Phase_5,2,5,80,127,1595381524
14,17,Jits_Phase_5,3,5,56,103,1595468948
14,17,Jits_Phase_5,0,1,48,23,1595866788
14,17,Jits_Phase_5,1,5,56,103,1595898648
14,17,Jits_Phase_5,2,5,63,98,1595927876
14,17,Jits_Phase_5,3,5,80,127,1595967800
14,17,Jits_Phase_5,0,5,63,98,1596397884
14,17,Jits_Phase_5,1,1,48,25,1596403620
14,17,Jits_Phase_5,2,5,56,103,1596437892
14,17,Jits_Phase_5,3,5,80,127,1596458424
14,17,Jits_Phase_5,0,1,48,19,1596881344
14,17,Jits_Phase_5,1,5,63,98,1596907824
14,17,Jits_Phase_5,2,5,56,103,1596947836
14,17,Jits_Phase_5,3,5,80,127,1596958476
14,17,Jits_Phase_5,0,5,80,127,1597388324
14,17,Jits_Phase_5,1,1,48,20,1597398788
14,17,Jits_Phase_5,2,5,63,98,1597457772
14,17,Jits_Phase_5,3,5,56,103,1597478380
14,17,Jits_Phase_5,0,5,56,103,1597877532
14,17,Jits_Phase_5,1,1,48,22,1597884236
14,17,Jits_Phase_5,2,5,80,127,1597898280
14,17,Jits_Phase_5,3,5,63,98,1597938068
14,17,Jits_Phase_5,0,1,48,27,1598382496
14,17,Jits_Phase_5,1,5,63,98,1598387620
14,17,Jits_Phase_5,2,5,80,127,1598408008
14,17,Jits_Phase_5,3,5,56,103,1598447868
14,17,Jits_Phase_5,0,5,63,98,1598888348
14,17,Jits_Phase_5,1,5,56,103,1598907688
14,17,Jits_Phase_5,2,5,80,127,1598917956
14,17,Jits_Phase_5,3,1,48,27,1598940104
14,17,Jits_Phase_5,0,1,48,24,1599381068
14,17,Jits_Phase_5,1,5,80,127,1599388164
14,17,Jits_Phase_5,2,5,56,103,1599407428
14,17,Jits_Phase_5,3,5,63,98,1599438372
14,17,Jits_Phase_5,0,1,48,31,1599861188
14,17,Jits_Phase_5,1,5,56,103,1599958844
14,17,Jits_Phase_5,2,5,80,127,1599961908
14,17,Jits_Phase_5,3,5,63,98,1599977732
14,17,Jits_Phase_5,0,5,63,98,1600378204
14,17,Jits_Phase_5,1,5,56,103,1600407804
14,17,Jits_Phase_5,2,1,48,20,1600446432
14,17,Jits_Phase_5,3,5,80,127,1600468480
14,17,Jits_Phase_5,0,1,48,20,1600861180
14,17,Jits_Phase_5,1,5,63,98,1600957956
14,17,Jits_Phase_5,2,5,56,103,1600968364
14,17,Jits_Phase_5,3,5,80,127,1600978408
14,17,Jits_Phase_5,0,1,48,18,1601399900
14,17,Jits_Phase_5,1,5,56,103,1601417456
14,17,Jits_Phase_5,2,5,80,127,1601448428
14,17,Jits_Phase_5,3,5,63,98,1601457500
14,17,Jits_Phase_5,0,1,48,21,1601909380
14,17,Jits_Phase_5,1,5,63,98,1601958428
14,17,Jits_Phase_5,2,5,56,103,1601967432
14,17,Jits_Phase_5,3,5,80,127,1601987816
14,17,Jits_Phase_5,0,5,56,103,1602388416
14,17,Jits_Phase_5,1,1,48,19,1602441656
14,17,Jits_Phase_5,2,5,63,98,1602447676
14,17,Jits_Phase_5,3,5,80,127,1602450892
14,17,Jits_Phase_5,0,1,48,20,1602906672
14,17,Jits_Phase_5,1,5,80,127,1602908316
14,17,Jits_Phase_5,2,5,56,103,1602917688
14,17,Jits_Phase_5,3,5,63,98,1602988364
14,17,Jits_Phase_5,0,5,80,127,1603398180
14,17,Jits_Phase_5,1,1,48,26,1603404892
14,17,Jits_Phase_5,2,5,56,103,1603467560
14,17,Jits_Phase_5,3,5,63,98,1603477828
14,17,Jits_Phase_5,0,1,48,23,1603915284
14,17,Jits_Phase_5,1,5,63,98,1603937576
14,17,Jits_Phase_5,2,5,56,103,1603947844
14,17,Jits_Phase_5,3,5,80,127,1603968456
14,17,Jits_Phase_5,0,5,80,127,1604388336
14,17,Jits_Phase_5,1,1,48,24,1604401496
14,17,Jits_Phase_5,2,5,63,98,1604447744
14,17,Jits_Phase_5,3,5,56,103,1604487536
14,17,Jits_Phase_5,0,1,48,25,1604883336
14,17,Jits_Phase_5,1,5,56,103,1604927800
14,17,Jits_Phase_5,2,5,63,98,1604938220
14,17,Jits_Phase_5,3,5,80,127,1604978232
14,17,Jits_Phase_5,0,5,56,103,1605387624
14,17,Jits_Phase_5,1,5,80,127,1605418348
14,17,Jits_Phase_5,2,1,48,21,1605422884
14,17,Jits_Phase_5,3,5,63,98,1605467420
14,17,Jits_Phase_5,0,1,48,20,1605921140
14,17,Jits_Phase_5,1,5,56,103,1605928360
14,17,Jits_Phase_5,2,5,63,98,1605968372
14,17,Jits_Phase_5,3,5,80,127,1605971884
14,17,Jits_Phase_5,0,5,56,103,1606428108
14,17,Jits_Phase_5,1,5,63,98,1606438304
14,17,Jits_Phase_5,2,1,48,21,1606441128
14,17,Jits_Phase_5,3,5,80,127,1606457712
14,17,Jits_Phase_5,0,5,56,103,1606887716
14,17,Jits_Phase_5,1,5,80,127,1606890712
14,17,Jits_Phase_5,2,5,63,98,1606927656
14,17,Jits_Phase_5,3,1,48,23,1606965300
14,17,Jits_Phase_5,0,1,48,19,1607404780
14,17,Jits_Phase_5,1,5,63,98,1607427292
14,17,Jits_Phase_5,2,5,56,103,1607458240
14,17,Jits_Phase_5,3,5,80,127,1607477504
14,17,Jits_Phase_5,0,5,80,127,1607897384
14,17,Jits_Phase_5,1,5,56,103,1607907656
14,17,Jits_Phase_5,2,5,63,98,1607917852
14,17,Jits_Phase_5,3,1,48,20,1607926740
14,17,Jits_Phase_5,0,5,56,103,1608398268
14,17,Jits_Phase_5,1,1,48,18,1608425596
14,17,Jits_Phase_5,2,5,80,127,1608438124
14,17,Jits_Phase_5,3,5,63,98,1608467800
14,17,Jits_Phase_5,0,5,63,98,1608908368
14,17,Jits_Phase_5,1,1,48,22,1608913356
14,17,Jits_Phase_5,2,5,80,127,1608918480
14,17,Jits_Phase_5,3,5,56,103,1608927780
14,17,Jits_Phase_5,0,5,56,103,1609397628
14,17,Jits_Phase_5,1,1,48,22,1609405556
14,17,Jits_Phase_5,2,5,63,98,1609468204
14,17,Jits_Phase_5,3,5,80,127,1609477424
14,17,Jits_Phase_5,0,1,48,22,1609899536
14,17,Jits_Phase_5,1,5,80,127,1609907580
14,17,Jits_Phase_5,2,5,56,103,1609917700
14,17,Jits_Phase_5,3,5,63,98,1609968124
14,17,Jits_Phase_5,0,1,48,23,1610408124
14,17,Jits_Phase_5,1,5,80,127,1610417584
14,17,Jits_Phase_5,2,5,56,103,1610477904
14,17,Jits_Phase_5,3,5,63,98,1610507636
14,17,Jits_Phase_5,0,5,56,103,1610918388
14,17,Jits_Phase_5,1,5,80,127,1610921308
14,17,Jits_Phase_5,2,1,48,20,1610939264
14,17,Jits_Phase_5,3,5,63,98,1610958096
14,17,Jits_Phase_5,0,1,48,26,1611439088
14,17,Jits_Phase_5,1,5,56,103,1611447584
14,17,Jits_Phase_5,2,5,63,98,1611478380
14,17,Jits_Phase_5,3,5,80,127,1611487528
14,17,Jits_Phase_5,0,5,63,98,1611957604
14,17,Jits_Phase_5,1,1,48,24,1611961320
14,17,Jits_Phase_5,2,5,80,127,1611967724
14,17,Jits_Phase_5,3,5,56,103,1611978364
14,17,Jits_Phase_5,0,5,80,127,1612408184
14,17,Jits_Phase_5,1,1,48,24,1612433396
14,17,Jits_Phase_5,2,5,56,103,1612458400
14,17,Jits_Phase_5,3,5,63,98,1612461320
14,17,Jits_Phase_5,0,1,48,24,1612921684
14,17,Jits_Phase_5,1,5,56,103,1612937524
14,17,Jits_Phase_5,2,5,80,127,1612958232
14,17,Jits_Phase_5,3,5,63,98,1612968428
14,17,Jits_Phase_5,0,5,63,98,1613418172
14,17,Jits_Phase_5,1,1,48,19,1613419284
14,17,Jits_Phase_5,2,5,56,103,1613447544
14,17,Jits_Phase_5,3,5,80,127,1613468176
14,17,Jits_Phase_5,0,1,48,19,1613881176
14,17,Jits_Phase_5,1,5,56,103,1613927804
14,17,Jits_Phase_5,2,5,80,127,1613938148
14,17,Jits_Phase_5,3,5,63,98,1614007616
14,17,Jits_Phase_5,0,5,63,98,1614418268
14,17,Jits_Phase_5,1,1,48,20,1614429408
14,17,Jits_Phase_5,2,5,80,127,1614458124
14,17,Jits_Phase_5,3,5,56,103,1614498308
14,17,Jits_Phase_5,0,5,56,103,1614928280
14,17,Jits_Phase_5,1,5,63,98,1614937432
14,17,Jits_Phase_5,2,1,48,21,1614938992
14,17,Jits_Phase_5,3,5,80,127,1614958104
14,17,Jits_Phase_5,0,1,48,21,1615454300
14,17,Jits_Phase_5,1,5,63,98,1615467820
14,17,Jits_Phase_5,2,5,80,127,1615488356
14,17,Jits_Phase_5,3,5,56,103,1615507692
14,17,Jits_Phase_5,0,5,56,103,1615908092
14,17,Jits_Phase_5,1,1,48,22,1615951144
14,17,Jits_Phase_5,2,5,80,127,1615988328
14,17,Jits_Phase_5,3,5,63,98,1615998376
14,17,Jits_Phase_5,0,1,48,19,1616441012
14,17,Jits_Phase_5,1,5,80,127,1616447860
14,17,Jits_Phase_5,2,5,63,98,1616458280
14,17,Jits_Phase_5,3,5,56,103,1616487656
14,17,Jits_Phase_5,0,5,63,98,1616907536
14,17,Jits_Phase_5,1,5,80,127,1616947696
14,17,Jits_Phase_5,2,1,48,19,1616965644
14,17,Jits_Phase_5,3,5,56,103,1617007928
14,17,Jits_Phase_5,0,5,63,98,1617417548
14,17,Jits_Phase_5,1,1,48,20,1617459024
14,17,Jits_Phase_5,2,5,56,103,1617467668
14,17,Jits_Phase_5,3,5,80,127,1617497416
14,17,Jits_Phase_5,0,5,80,127,1617918196
14,17,Jits_Phase_5,1,1,48,23,1617919164
14,17,Jits_Phase_5,2,5,63,98,1617927564
14,17,Jits_Phase_5,3,5,56,103,1617998288
14,17,Jits_Phase_5,0,1,48,19,1618474192
14,17,Jits_Phase_5,1,5,80,127,1618477300
14,17,Jits_Phase_5,2,5,56,103,1618487716
14,17,Jits_Phase_5,3,5,63,98,1618491080
14,17,Jits_Phase_5,0,5,56,103,1618917940
14,17,Jits_Phase_5,1,5,80,127,1618938176
14,17,Jits_Phase_5,2,5,63,98,1618947324
14,17,Jits_Phase_5,3,1,48,24,1618969024
14,17,Jits_Phase_5,0,5,63,98,1619427968
14,17,Jits_Phase_5,1,1,48,20,1619434604
14,17,Jits_Phase_5,2,5,56,103,1619467752
14,17,Jits_Phase_5,3,5,80,127,1619488284
14,17,Jits_Phase_5,0,1,48,19,1619922884
14,17,Jits_Phase_5,1,5,63,98,1619928388
14,17,Jits_Phase_5,2,5,56,103,1619987804
14,17,Jits_Phase_5,3,5,80,127,1619991020
14,17,Jits_Phase_5,0,5,56,103,1620388208
14,17,Jits_Phase_5,1,5,80,127,1620407544
14,17,Jits_Phase_5,2,1,48,23,1620415912
14,17,Jits_Phase_5,3,5,63,98,1620447548
14,17,Jits_Phase_5,0,1,48,22,1620889808
14,17,Jits_Phase_5,1,5,56,103,1620917480
14,17,Jits_Phase_5,2,5,63,98,1620938236
14,17,Jits_Phase_5,3,5,80,127,1620948280
14,17,Jits_Phase_5,0,5,80,127,1621387612
14,17,Jits_Phase_5,1,1,48,25,1621417228
14,17,Jits_Phase_5,2,5,56,103,1621418800
14,17,Jits_Phase_5,3,5,63,98,1621458364
14,17,Jits_Phase_5,0,1,48,22,1621887864
14,17,Jits_Phase_5,1,5,80,127,1621897484
14,17,Jits_Phase_5,2,5,56,103,1621918188
14,17,Jits_Phase_5,3,1,48,19,1621941524
14,17,Jits_Phase_5,4,5,63,98,1621977364
14,17,Jits_Phase_5,0,1,48,19,1622407612
14,17,Jits_Phase_5,1,5,56,103,1622409096
14,17,Jits_Phase_5,2,5,80,127,1622428236
14,17,Jits_Phase_5,3,5,63,98,1622488404
14,17,Jits_Phase_5,0,5,80,127,1622888180
14,17,Jits_Phase_5,1,5,56,103,1622898004
14,17,Jits_Phase_5,2,1,48,19,1622911684
14,17,Jits_Phase_5,3,5,63,98,1622938256
14,17,Jits_Phase_5,0,1,48,24,1623360928
14,17,Jits_Phase_5,1,5,63,98,1623387552
14,17,Jits_Phase_5,2,5,56,103,1623427564
14,17,Jits_Phase_5,3,5,80,127,1623430780
14,17,Jits_Phase_5,0,1,48,21,1623871000
14,17,Jits_Phase_5,1,5,63,98,1623907668
14,17,Jits_Phase_5,2,5,80,127,1623947604
14,17,Jits_Phase_5,3,5,56,103,1623978484
14,17,Jits_Phase_5,0,5,56,103,1624398212
14,17,Jits_Phase_5,1,1,48,21,1624405668
14,17,Jits_Phase_5,2,5,63,98,1624408400
14,17,Jits_Phase_5,3,5,80,127,1624438224
14,17,Jits_Phase_5,0,5,80,127,1624887708
14,17,Jits_Phase_5,1,1,48,24,1624918476
14,17,Jits_Phase_5,2,5,63,98,1624958352
14,17,Jits_Phase_5,3,5,56,103,1624967428
14,17,Jits_Phase_5,0,5,63,98,1625388296
14,17,Jits_Phase_5,1,1,48,21,1625416592
14,17,Jits_Phase_5,2,5,56,103,1625458044
14,17,Jits_Phase_5,3,5,80,127,1625468240
14,17,Jits_Phase_5,0,5,63,98,1625867520
14,17,Jits_Phase_5,1,1,48,21,1625878588
14,17,Jits_Phase_5,2,5,56,103,1625888272
14,17,Jits_Phase_5,3,5,80,127,1625928132
14,17,Jits_Phase_5,0,5,56,103,1626358052
14,17,Jits_Phase_5,1,1,48,19,1626364832
14,17,Jits_Phase_5,2,5,63,98,1626368464
14,17,Jits_Phase_5,3,5,80,127,1626448256
14,17,Jits_Phase_5,0,1,48,21,1626822412
14,17,Jits_Phase_5,1,5,63,98,1626847696
14,17,Jits_Phase_5,2,5,56,103,1626878268
14,17,Jits_Phase_5,3,5,80,127,1626918484
14,17,Jits_Phase_5,0,5,56,103,1627348344
14,17,Jits_Phase_5,1,1,48,23,1627361504
14,17,Jits_Phase_5,2,5,63,98,1627388128
14,17,Jits_Phase_5,3,5,80,127,1627428064
14,17,Jits_Phase_5,0,1,48,21,1627813680
14,17,Jits_Phase_5,1,5,80,127,1627847956
14,17,Jits_Phase_5,2,5,56,103,1627928032
14,17,Jits_Phase_5,3,5,63,98,1627938300
14,17,Jits_Phase_5,0,1,48,20,1628344072
14,17,Jits_Phase_5,1,5,56,103,1628387636
14,17,Jits_Phase_5,2,5,63,98,1628390704
14,17,Jits_Phase_5,3,5,80,127,1628397904
14,17,Jits_Phase_5,0,1,48,22,1628876940
14,17,Jits_Phase_5,1,5,56,103,1628907904
14,17,Jits_Phase_5,2,5,63,98,1628928288
14,17,Jits_Phase_5,3,5,80,127,1628937584
14,17,Jits_Phase_5,0,5,63,98,1629367580
14,17,Jits_Phase_5,1,5,80,127,1629378148
14,17,Jits_Phase_5,2,1,48,22,1629388316
14,17,Jits_Phase_5,3,5,56,103,1629398376
14,17,Jits_Phase_5,0,5,63,98,1629868304
14,17,Jits_Phase_5,1,1,48,24,1629871348
14,17,Jits_Phase_5,2,5,56,103,1629948312
14,17,Jits_Phase_5,3,5,80,127,1629951304
14,17,Jits_Phase_5,0,1,48,25,1630360748
14,17,Jits_Phase_5,1,5,63,98,1630368116
14,17,Jits_Phase_5,2,5,56,103,1630387528
14,17,Jits_Phase_5,3,5,80,127,1630418248
14,17,Jits_Phase_5,0,1,48,24,1630828256
14,17,Jits_Phase_5,1,5,56,103,1630867988
14,17,Jits_Phase_5,2,5,63,98,1630888324
14,17,Jits_Phase_5,3,5,80,127,1630897620
14,17,Jits_Phase_5,0,1,48,18,1631348084
14,17,Jits_Phase_5,1,5,56,103,1631398252
14,17,Jits_Phase_5,2,5,63,98,1631427928
14,17,Jits_Phase_5,3,5,80,127,1631431216
14,17,Jits_Phase_5,0,5,56,103,1631847932
14,17,Jits_Phase_5,1,5,63,98,1631887944
14,17,Jits_Phase_5,2,1,48,21,1631892260
14,17,Jits_Phase_5,3,5,80,127,1631948200
14,17,Jits_Phase_5,0,1,48,19,1632367624
14,17,Jits_Phase_5,1,5,56,103,1632368960
14,17,Jits_Phase_5,2,5,63,98,1632378184
14,17,Jits_Phase_5,3,5,80,127,1632437772
14,17,Jits_Phase_5,0,5,56,103,1632867820
14,17,Jits_Phase_5,1,5,80,127,1632888128
14,17,Jits_Phase_5,2,1,48,27,1632891692
14,17,Jits_Phase_5,3,5,63,98,1632918020
14,17,Jits_Phase_5,0,5,80,127,1633368308
14,17,Jits_Phase_5,1,1,48,26,1633377228
14,17,Jits_Phase_5,2,5,56,103,1633378796
14,17,Jits_Phase_5,3,5,63,98,1633398132
14,17,Jits_Phase_5,0,5,63,98,1633857884
14,17,Jits_Phase_5,1,1,48,26,1633863992
14,17,Jits_Phase_5,2,5,80,127,1633937892
14,17,Jits_Phase_5,3,5,56,103,1633948188
14,17,Jits_Phase_5,0,1,48,22,1634434980
14,17,Jits_Phase_5,1,5,80,127,1634447904
14,17,Jits_Phase_5,2,5,56,103,1634468240
14,17,Jits_Phase_5,3,5,63,98,1634471232
14,17,Jits_Phase_5,0,1,48,24,1634926652
14,17,Jits_Phase_5,1,5,63,98,1634938356
14,17,Jits_Phase_5,2,5,80,127,1634941500
14,17,Jits_Phase_5,3,1,48,19,1634980896
14,17,Jits_Phase_5,4,5,56,103,1634997480
14,17,Jits_Phase_5,0,5,56,103,1635417464
14,17,Jits_Phase_5,1,1,48,20,1635427808
14,17,Jits_Phase_5,2,5,80,127,1635429220
14,17,Jits_Phase_5,3,5,63,98,1635467516
14,17,Jits_Phase_5,0,5,56,103,1635897672
14,17,Jits_Phase_5,1,1,48,22,1635957308
14,17,Jits_Phase_5,2,5,63,98,1635958952
14,17,Jits_Phase_5,3,5,80,127,1635968400
14,17,Jits_Phase_5,0,5,63,98,1636408072
14,17,Jits_Phase_5,1,1,48,25,1636409036
14,17,Jits_Phase_5,2,5,80,127,1636447560
14,17,Jits_Phase_5,3,1,48,18,1636473280
14,17,Jits_Phase_5,4,5,56,103,1636487624
14,17,Jits_Phase_5,0,5,56,103,1636908308
14,17,Jits_Phase_5,1,1,48,19,1636929636
14,17,Jits_Phase_5,2,5,63,98,1636988316
14,17,Jits_Phase_5,3,5,80,127,1636991828
14,17,Jits_Phase_5,0,1,48,21,1637413792
14,17,Jits_Phase_5,1,5,80,127,1637467472
14,17,Jits_Phase_5,2,5,56,103,1637498340
14,17,Jits_Phase_5,3,5,63,98,1637501336
14,17,Jits_Phase_5,0,5,56,103,1637928268
14,17,Jits_Phase_5,1,1,48,16,1637932432
14,17,Jits_Phase_5,2,5,80,127,1637947748
14,17,Jits_Phase_5,3,5,63,98,1637987684
14,17,Jits_Phase_5,0,5,80,127,1638407508
14,17,Jits_Phase_5,1,5,63,98,1638427964
14,17,Jits_Phase_5,2,1,48,20,1638480008
14,17,Jits_Phase_5,3,5,56,103,1638488568
14,17,Jits_Phase_5,0,1,48,19,1638914268
14,17,Jits_Phase_5,1,5,63,98,1638917448
14,17,Jits_Phase_5,2,5,56,103,1638927868
14,17,Jits_Phase_5,3,5,80,127,1638977844
14,17,Jits_Phase_5,0,1,48,19,1639389520
14,17,Jits_Phase_5,1,5,56,103,1639408124
14,17,Jits_Phase_5,2,5,63,98,1639427464
14,17,Jits_Phase_5,3,5,80,127,1639437808
14,17,Jits_Phase_5,0,1,48,19,1639890164
14,17,Jits_Phase_5,1,5,56,103,1639897456
14,17,Jits_Phase_5,2,5,63,98,1639900448
14,17,Jits_Phase_5,3,5,80,127,1639918064
14,17,Jits_Phase_5,0,1,48,19,1640361572
14,17,Jits_Phase_5,1,5,63,98,1640438244
14,17,Jits_Phase_5,2,5,56,103,1640468052
14,17,Jits_Phase_5,3,5,80,127,1640497656
14,17,Jits_Phase_5,0,5,80,127,1640897996
14,17,Jits_Phase_5,1,1,48,20,1640906660
14,17,Jits_Phase_5,2,5,56,103,1640988044
14,17,Jits_Phase_5,3,5,63,98,1640991260
14,17,Jits_Phase_5,0,5,56,103,1641397824
14,17,Jits_Phase_5,1,5,80,127,1641400888
14,17,Jits_Phase_5,2,5,63,98,1641477540
14,17,Jits_Phase_5,3,1,48,21,1641492792
14,17,Jits_Phase_5,0,5,80,127,1641898324
14,17,Jits_Phase_5,1,1,48,25,1641915448
14,17,Jits_Phase_5,2,5,63,98,1641958032
14,17,Jits_Phase_5,3,5,56,103,1641987336
14,17,Jits_Phase_5,0,5,63,98,1642398012
14,17,Jits_Phase_5,1,5,80,127,1642408208
14,17,Jits_Phase_5,2,1,48,25,1642446992
14,17,Jits_Phase_5,3,5,56,103,1642478028
14,17,Jits_Phase_5,0,1,48,26,1642893944
14,17,Jits_Phase_5,1,5,56,103,1642958060
14,17,Jits_Phase_5,2,5,80,127,1642987888
14,17,Jits_Phase_5,3,5,63,98,1643037996
14,17,Jits_Phase_5,0,1,48,26,1643444508
14,17,Jits_Phase_5,1,5,63,98,1643547992
14,17,Jits_Phase_5,2,5,56,103,1643577812
14,17,Jits_Phase_5,3,5,80,127,1643580732
14,17,Jits_Phase_5,0,1,48,26,1643981040
14,17,Jits_Phase_5,1,5,63,98,1644047820
14,17,Jits_Phase_5,2,5,80,127,1644068204
14,17,Jits_Phase_5,3,5,56,103,1644077340
14,17,Jits_Phase_5,0,1,48,19,1644546724
14,17,Jits_Phase_5,1,5,56,103,1644557612
14,17,Jits_Phase_5,2,5,63,98,1644560680
14,17,Jits_Phase_5,3,5,80,127,1644578144
14,17,Jits_Phase_5,0,5,56,103,1645008136
14,17,Jits_Phase_5,1,5,63,98,1645017508
14,17,Jits_Phase_5,2,1,48,20,1645042052
14,17,Jits_Phase_5,3,5,80,127,1645048148
14,17,Jits_Phase_5,0,5,63,98,1645528572
14,17,Jits_Phase_5,1,1,48,23,1645539636
14,17,Jits_Phase_5,2,5,80,127,1645547900
14,17,Jits_Phase_5,3,5,56,103,1645587984
14,17,Jits_Phase_5,0,1,48,23,1646031432
14,17,Jits_Phase_5,1,5,56,103,1646057760
14,17,Jits_Phase_5,2,5,63,98,1646097992
14,17,Jits_Phase_5,3,5,80,127,1646101280
14,17,Jits_Phase_5,0,5,80,127,1646498172
14,17,Jits_Phase_5,1,1,48,25,1646534772
14,17,Jits_Phase_5,2,5,56,103,1646538028
14,17,Jits_Phase_5,3,5,63,98,1646588300
14,17,Jits_Phase_5,0,1,48,23,1647029744
14,17,Jits_Phase_5,1,5,56,103,1647058164
14,17,Jits_Phase_5,2,5,80,127,1647067684
14,17,Jits_Phase_5,3,5,63,98,1647098184
14,17,Jits_Phase_5,0,5,56,103,1647507704
14,17,Jits_Phase_5,1,5,80,127,1647548012
14,17,Jits_Phase_5,2,5,63,98,1647597912
14,17,Jits_Phase_5,3,1,48,23,1647601404
14,17,Jits_Phase_5,0,5,56,103,1648007516
14,17,Jits_Phase_5,1,5,80,127,1648047480
14,17,Jits_Phase_5,2,1,48,22,1648085052
14,17,Jits_Phase_5,3,5,63,98,1648097892
14,17,Jits_Phase_5,0,5,80,127,1648497988
14,17,Jits_Phase_5,1,5,63,98,1648577956
14,17,Jits_Phase_5,2,5,56,103,1648588000
14,17,Jits_Phase_5,3,1,48,24,1648598612
14,17,Jits_Phase_5,0,5,80,127,1649047972
14,17,Jits_Phase_5,1,5,56,103,1649058092
14,17,Jits_Phase_5,2,5,63,98,1649077728
14,17,Jits_Phase_5,3,1,48,23,1649095748
14,17,Jits_Phase_5,0,5,63,98,1649517816
14,17,Jits_Phase_5,1,5,56,103,1649587740
14,17,Jits_Phase_5,2,5,80,127,1649590732
14,17,Jits_Phase_5,3,1,48,19,1649593100
14,17,Jits_Phase_5,0,5,80,127,1650008712
14,17,Jits_Phase_5,1,1,48,24,1650044192
14,17,Jits_Phase_5,2,5,63,98,1650057712
14,17,Jits_Phase_5,3,5,56,103,1650097672
14,17,Jits_Phase_5,0,5,63,98,1650548036
14,17,Jits_Phase_5,1,1,48,22,1650549524
14,17,Jits_Phase_5,2,5,56,103,1650587992
14,17,Jits_Phase_5,3,5,80,127,1650598188
14,17,Jits_Phase_5,0,5,63,98,1651037748
14,17,Jits_Phase_5,1,5,56,103,1651058060
14,17,Jits_Phase_5,2,5,80,127,1651077620
14,17,Jits_Phase_5,3,1,48,21,1651081860
14,17,Jits_Phase_5,0,5,80,127,1651498392
14,17,Jits_Phase_5,1,5,56,103,1651507616
14,17,Jits_Phase_5,2,5,63,98,1651528000
14,17,Jits_Phase_5,3,1,48,25,1651553060
14,17,Jits_Phase_5,0,5,63,98,1652027820
14,17,Jits_Phase_5,1,1,48,23,1652056040
14,17,Jits_Phase_5,2,5,56,103,1652067828
14,17,Jits_Phase_5,3,5,80,127,1652098396
14,17,Jits_Phase_5,0,5,56,103,1652487492
14,17,Jits_Phase_5,1,5,63,98,1652518216
14,17,Jits_Phase_5,2,1,48,19,1652541932
14,17,Jits_Phase_5,3,5,80,127,1652547880
14,17,Jits_Phase_5,0,5,80,127,1652908372
14,17,Jits_Phase_5,1,1,48,21,1652977364
14,17,Jits_Phase_5,2,5,56,103,1652978960
14,17,Jits_Phase_5,3,5,63,98,1652981704
14,17,Jits_Phase_5,0,5,56,103,1653418244
14,17,Jits_Phase_5,1,1,48,25,1653459644
14,17,Jits_Phase_5,2,5,63,98,1653467616
14,17,Jits_Phase_5,3,5,80,127,1653498184
14,17,Jits_Phase_5,0,1,48,24,1653876224
14,17,Jits_Phase_5,1,5,63,98,1653897744
14,17,Jits_Phase_5,2,5,80,127,1653900960
14,17,Jits_Phase_5,3,5,56,103,1653958008
14,17,Jits_Phase_5,0,5,56,103,1654428004
14,17,Jits_Phase_5,1,1,48,24,1654435684
14,17,Jits_Phase_5,2,5,80,127,1654438344
14,17,Jits_Phase_5,3,5,63,98,1654488544
14,17,Jits_Phase_5,0,5,63,98,1654898076
14,17,Jits_Phase_5,1,5,56,103,1654908272
14,17,Jits_Phase_5,2,5,80,127,1654938044
14,17,Jits_Phase_5,3,1,48,27,1654940944
14,17,Jits_Phase_5,0,1,48,19,1655410372
14,17,Jits_Phase_5,1,5,63,98,1655427712
14,17,Jits_Phase_5,2,5,80,127,1655430920
14,17,Jits_Phase_5,3,5,56,103,1655458080
14,17,Jits_Phase_5,0,5,63,98,1655947676
14,17,Jits_Phase_5,1,5,56,103,1655968004
14,17,Jits_Phase_5,2,5,80,127,1655971152
14,17,Jits_Phase_5,0,5,63,98,1656408648
14,17,Jits_Phase_5,1,1,48,22,1656432216
14,17,Jits_Phase_5,2,5,56,103,1656477972
14,17,Jits_Phase_5,3,5,80,127,1656497904
14,17,Jits_Phase_5,0,5,56,103,1656897836
14,17,Jits_Phase_5,1,1,48,20,1656899248
14,17,Jits_Phase_5,2,5,63,98,1656908248
14,17,Jits_Phase_5,3,5,80,127,1656998460
14,17,Jits_Phase_5,0,5,56,103,1657417972
14,17,Jits_Phase_5,1,1,48,16,1657420716
14,17,Jits_Phase_5,2,5,80,127,1657457904
14,17,Jits_Phase_5,3,5,63,98,1657468176
14,17,Jits_Phase_5,0,1,48,22,1657905500
14,17,Jits_Phase_5,1,5,56,103,1657938260
14,17,Jits_Phase_5,2,5,63,98,1657968012
14,17,Jits_Phase_5,3,5,80,127,1657997892
14,17,Jits_Phase_5,0,5,80,127,1658398084
14,17,Jits_Phase_5,1,1,48,21,1658425168
14,17,Jits_Phase_5,2,5,63,98,1658438016
14,17,Jits_Phase_5,3,5,56,103,1658457428
14,17,Jits_Phase_5,0,1,48,22,1658907032
14,17,Jits_Phase_5,1,5,56,103,1658937920
14,17,Jits_Phase_5,2,5,80,127,1658958380
14,17,Jits_Phase_5,3,5,63,98,1658977644
14,17,Jits_Phase_5,0,5,63,98,1659407636
14,17,Jits_Phase_5,1,5,56,103,1659417908
14,17,Jits_Phase_5,2,1,48,17,1659427620
14,17,Jits_Phase_5,3,5,80,127,1659478440
14,17,Jits_Phase_5,0,1,48,20,1659894080
14,17,Jits_Phase_5,1,5,56,103,1659907600
14,17,Jits_Phase_5,2,5,63,98,1659977956
14,17,Jits_Phase_5,3,5,80,127,1659997796
14,17,Jits_Phase_5,0,1,48,23,1660402000
14,17,Jits_Phase_5,1,5,56,103,1660408320
14,17,Jits_Phase_5,2,5,63,98,1660437924
14,17,Jits_Phase_5,3,5,80,127,1660477932
14,17,Jits_Phase_5,0,1,48,20,1660895844
14,17,Jits_Phase_5,1,5,63,98,1660897580
14,17,Jits_Phase_5,2,5,56,103,1660947780
14,17,Jits_Phase_5,3,5,80,127,1660958200
14,17,Jits_Phase_5,0,1,48,23,1661365768
14,17,Jits_Phase_5,1,5,56,103,1661438236
14,17,Jits_Phase_5,2,5,63,98,1661487896
14,17,Jits_Phase_5,3,5,80,127,1661497796
14,17,Jits_Phase_5,0,1,48,24,1661885356
14,17,Jits_Phase_5,1,5,56,103,1661917536
14,17,Jits_Phase_5,2,5,63,98,1661927880
14,17,Jits_Phase_5,3,5,80,127,1662007804
14,17,Jits_Phase_5,0,9999,9999,9999,9999,1577665632
14,17,Jits_Phase_5,1,9999,9999,9999,9999,1578165336
14,17,Jits_Phase_5,2,9999,9999,9999,9999,1578666064
14,17,Jits_Phase_5,3,9999,9999,9999,9999,1579165824
14,17,Jits_Phase_5,4,9999,9999,9999,9999,1579665476
14,17,Jits_Phase_5,5,9999,9999,9999,9999,1580165224
14,17,Jits_Phase_5,6,9999,9999,9999,9999,1580665944
14,17,Jits_Phase_5,7,9999,9999,9999,9999,1581165636
14,17,Jits_Phase_5,8,9999,9999,9999,9999,1581665400
14,17,Jits_Phase_5,9,9999,9999,9999,9999,1582166136
14,17,Jits_Phase_5,10,9999,9999,9999,9999,1582676088
14,17,Jits_Phase_5,11,9999,9999,9999,9999,1583175776
14,17,Jits_Phase_5,12,9999,9999,9999,9999,1583675448
14,17,Jits_Phase_5,13,9999,9999,9999,9999,1584175192
14,17,Jits_Phase_5,14,9999,9999,9999,9999,1584675916
14,17,Jits_Phase_5,15,9999,9999,9999,9999,1585175608
14,17,Jits_Phase_5,16,9999,9999,9999,9999,1585675356
14,17,Jits_Phase_5,17,9999,9999,9999,9999,1586176080
14,17,Jits_Phase_5,18,9999,9999,9999,9999,1586686032
14,17,Jits_Phase_5,19,9999,9999,9999,9999,1587185784
14,17,Jits_Phase_5,20,9999,9999,9999,9999,1587685460
14,17,Jits_Phase_5,21,9999,9999,9999,9999,1588185208
14,17,Jits_Phase_5,22,9999,9999,9999,9999,1588685940
14,17,Jits_Phase_5,23,9999,9999,9999,9999,1589185628
14,17,Jits_Phase_5,24,9999,9999,9999,9999,1589685320
14,17,Jits_Phase_5,25,9999,9999,9999,9999,1590186048
14,17,Jits_Phase_5,26,9999,9999,9999,9999,1590685800
14,17,Jits_Phase_5,27,9999,9999,9999,9999,1591185512
14,17,Jits_Phase_5,28,9999,9999,9999,9999,1591685200
14,17,Jits_Phase_5,29,9999,9999,9999,9999,1592185916
14,17,Jits_Phase_5,30,9999,9999,9999,9999,1592675420
14,17,Jits_Phase_5,31,9999,9999,9999,9999,1593175112
14,17,Jits_Phase_5,32,9999,9999,9999,9999,1593675848
14,17,Jits_Phase_5,33,9999,9999,9999,9999,1594175612
14,17,Jits_Phase_5,34,9999,9999,9999,9999,1594675300
14,17,Jits_Phase_5,35,9999,9999,9999,9999,1595176024
14,17,Jits_Phase_5,36,9999,9999,9999,9999,1595675764
14,17,Jits_Phase_5,37,9999,9999,9999,9999,1596175436
14,17,Jits_Phase_5,38,9999,9999,9999,9999,1596675192
14,17,Jits_Phase_5,39,9999,9999,9999,9999,1597175920
14,17,Jits_Phase_5,40,9999,9999,9999,9999,1597675596
14,17,Jits_Phase_5,41,9999,9999,9999,9999,1598175356
14,17,Jits_Phase_5,42,9999,9999,9999,9999,1598676092
14,17,Jits_Phase_5,43,9999,9999,9999,9999,1599175764
14,17,Jits_Phase_5,44,9999,9999,9999,9999,1599675512
14,17,Jits_Phase_5,45,9999,9999,9999,9999,1600175184
14,17,Jits_Phase_5,46,9999,9999,9999,9999,1600675956
14,17,Jits_Phase_5,47,9999,9999,9999,9999,1601175640
14,17,Jits_Phase_5,48,9999,9999,9999,9999,1601685624
14,17,Jits_Phase_5,49,9999,9999,9999,9999,1602185304
14,17,Jits_Phase_5,50,9999,9999,9999,9999,1602686012
14,17,Jits_Phase_5,51,9999,9999,9999,9999,1603185776
14,17,Jits_Phase_5,52,9999,9999,9999,9999,1603685452
14,17,Jits_Phase_5,53,9999,9999,9999,9999,1604185144
14,17,Jits_Phase_5,54,9999,9999,9999,9999,1604685944
14,17,Jits_Phase_5,55,9999,9999,9999,9999,1605185632
14,17,Jits_Phase_5,56,9999,9999,9999,9999,1605685304
14,17,Jits_Phase_5,57,9999,9999,9999,9999,1606186112
14,17,Jits_Phase_5,58,9999,9999,9999,9999,1606685788
14,17,Jits_Phase_5,59,9999,9999,9999,9999,1607185512
14,17,Jits_Phase_5,60,9999,9999,9999,9999,1607685204
14,17,Jits_Phase_5,61,9999,9999,9999,9999,1608185920
14,17,Jits_Phase_5,62,9999,9999,9999,9999,1608685684
14,17,Jits_Phase_5,63,9999,9999,9999,9999,1609185372
14,17,Jits_Phase_5,64,9999,9999,9999,9999,1609705572
14,17,Jits_Phase_5,65,9999,9999,9999,9999,1610205264
14,17,Jits_Phase_5,66,9999,9999,9999,9999,1610705988
14,17,Jits_Phase_5,67,9999,9999,9999,9999,1611205724
14,17,Jits_Phase_5,68,9999,9999,9999,9999,1611705416
14,17,Jits_Phase_5,69,9999,9999,9999,9999,1612205168
14,17,Jits_Phase_5,70,9999,9999,9999,9999,1612705880
14,17,Jits_Phase_5,71,9999,9999,9999,9999,1613205620
14,17,Jits_Phase_5,72,9999,9999,9999,9999,1613705292
14,17,Jits_Phase_5,73,9999,9999,9999,9999,1614206012
14,17,Jits_Phase_5,74,9999,9999,9999,9999,1614705764
14,17,Jits_Phase_5,75,9999,9999,9999,9999,1615205436
14,17,Jits_Phase_5,76,9999,9999,9999,9999,1615705204
14,17,Jits_Phase_5,77,9999,9999,9999,9999,1616205928
14,17,Jits_Phase_5,78,9999,9999,9999,9999,1616705616
14,17,Jits_Phase_5,79,9999,9999,9999,9999,1617205368
14,17,Jits_Phase_5,80,9999,9999,9999,9999,1617706088
14,17,Jits_Phase_5,81,9999,9999,9999,9999,1618185316
14,17,Jits_Phase_5,82,9999,9999,9999,9999,1618686052
14,17,Jits_Phase_5,83,9999,9999,9999,9999,1619185728
14,17,Jits_Phase_5,84,9999,9999,9999,9999,1619685496
14,17,Jits_Phase_5,85,9999,9999,9999,9999,1620185168
14,17,Jits_Phase_5,86,9999,9999,9999,9999,1620685884
14,17,Jits_Phase_5,87,9999,9999,9999,9999,1621185648
14,17,Jits_Phase_5,88,9999,9999,9999,9999,1621685316
14,17,Jits_Phase_5,89,9999,9999,9999,9999,1622186108
14,17,Jits_Phase_5,90,9999,9999,9999,9999,1622685768
14,17,Jits_Phase_5,91,9999,9999,9999,9999,1623185484
14,17,Jits_Phase_5,92,9999,9999,9999,9999,1623685228
14,17,Jits_Phase_5,93,9999,9999,9999,9999,1624185952
14,17,Jits_Phase_5,94,9999,9999,9999,9999,1624685628
14,17,Jits_Phase_5,95,9999,9999,9999,9999,1625185392
14,17,Jits_Phase_5,96,9999,9999,9999,9999,1625686128
14,17,Jits_Phase_5,97,9999,9999,9999,9999,1626145872
14,17,Jits_Phase_5,98,9999,9999,9999,9999,1626645620
14,17,Jits_Phase_5,99,9999,9999,9999,9999,1627145308
14,17,Jits_Phase_5,100,9999,9999,9999,9999,1627646028
14,17,Jits_Phase_5,101,9999,9999,9999,9999,1628145716
14,17,Jits_Phase_5,102,9999,9999,9999,9999,1628645456
14,17,Jits_Phase_5,103,9999,9999,9999,9999,1629145212
14,17,Jits_Phase_5,104,9999,9999,9999,9999,1629645928
14,17,Jits_Phase_5,105,9999,9999,9999,9999,1630145600
14,17,Jits_Phase_5,106,9999,9999,9999,9999,1630645348
14,17,Jits_Phase_5,107,9999,9999,9999,9999,1631146072
14,17,Jits_Phase_5,108,9999,9999,9999,9999,1631645816
14,17,Jits_Phase_5,109,9999,9999,9999,9999,1632145464
14,17,Jits_Phase_5,110,9999,9999,9999,9999,1632645224
14,17,Jits_Phase_5,111,9999,9999,9999,9999,1633145920
14,17,Jits_Phase_5,112,9999,9999,9999,9999,1633645684
14,17,Jits_Phase_5,113,9999,9999,9999,9999,1634145376
14,17,Jits_Phase_5,114,9999,9999,9999,9999,1634695244
14,17,Jits_Phase_5,115,9999,9999,9999,9999,1635196012
14,17,Jits_Phase_5,116,9999,9999,9999,9999,1635695740
14,17,Jits_Phase_5,117,9999,9999,9999,9999,1636195428
14,17,Jits_Phase_5,118,9999,9999,9999,9999,1636695100
14,17,Jits_Phase_5,119,9999,9999,9999,9999,1637195868
14,17,Jits_Phase_5,120,9999,9999,9999,9999,1637695556
14,17,Jits_Phase_5,121,9999,9999,9999,9999,1638195308
14,17,Jits_Phase_5,122,9999,9999,9999,9999,1638696044
14,17,Jits_Phase_5,123,9999,9999,9999,9999,1639195728
14,17,Jits_Phase_5,124,9999,9999,9999,9999,1639695476
14,17,Jits_Phase_5,125,9999,9999,9999,9999,1640195132
14,17,Jits_Phase_5,126,9999,9999,9999,9999,1640695928
14,17,Jits_Phase_5,127,9999,9999,9999,9999,1641195596
14,17,Jits_Phase_5,128,9999,9999,9999,9999,1641695344
14,17,Jits_Phase_5,129,9999,9999,9999,9999,1642196080
14,17,Jits_Phase_5,130,9999,9999,9999,9999,1642695764
14,17,Jits_Phase_5,131,9999,9999,9999,9999,1643295824
14,17,Jits_Phase_5,132,9999,9999,9999,9999,1643795564
14,17,Jits_Phase_5,133,9999,9999,9999,9999,1644295244
14,17,Jits_Phase_5,134,9999,9999,9999,9999,1644796028
14,17,Jits_Phase_5,135,9999,9999,9999,9999,1645295700
14,17,Jits_Phase_5,136,9999,9999,9999,9999,1645795388
14,17,Jits_Phase_5,137,9999,9999,9999,9999,1646295132
14,17,Jits_Phase_5,138,9999,9999,9999,9999,1646795852
14,17,Jits_Phase_5,139,9999,9999,9999,9999,1647295544
14,17,Jits_Phase_5,140,9999,9999,9999,9999,1647795268
14,17,Jits_Phase_5,141,9999,9999,9999,9999,1648296004
14,17,Jits_Phase_5,142,9999,9999,9999,9999,1648795768
14,17,Jits_Phase_5,143,9999,9999,9999,9999,1649295432
14,17,Jits_Phase_5,144,9999,9999,9999,9999,1649795184
14,17,Jits_Phase_5,145,9999,9999,9999,9999,1650295908
14,17,Jits_Phase_5,146,9999,9999,9999,9999,1650795600
14,17,Jits_Phase_5,147,9999,9999,9999,9999,1651295352
14,17,Jits_Phase_5,148,9999,9999,9999,9999,1651796068
14,17,Jits_Phase_5,149,9999,9999,9999,9999,1652295760
14,17,Jits_Phase_5,150,9999,9999,9999,9999,1652695132
14,17,Jits_Phase_5,151,9999,9999,9999,9999,1653195856
14,17,Jits_Phase_5,152,9999,9999,9999,9999,1653695548
14,17,Jits_Phase_5,153,9999,9999,9999,9999,1654195300
14,17,Jits_Phase_5,154,9999,9999,9999,9999,1654696020
14,17,Jits_Phase_5,155,9999,9999,9999,9999,1655195704
14,17,Jits_Phase_5,156,9999,9999,9999,9999,1655695420
14,17,Jits_Phase_5,157,9999,9999,9999,9999,1656195176
14,17,Jits_Phase_5,158,9999,9999,9999,9999,1656695916
14,17,Jits_Phase_5,159,9999,9999,9999,9999,1657195592
14,17,Jits_Phase_5,160,9999,9999,9999,9999,1657695352
14,17,Jits_Phase_5,161,9999,9999,9999,9999,1658196092
14,17,Jits_Phase_5,162,9999,9999,9999,9999,1658695768
14,17,Jits_Phase_5,163,9999,9999,9999,9999,1659195456
14,17,Jits_Phase_5,164,9999,9999,9999,9999,1659695204
14,17,Jits_Phase_5,165,9999,9999,9999,9999,1660195924
14,17,Jits_Phase_5,166,9999,9999,9999,9999,1660695672
14,17,Jits_Phase_5,167,9999,9999,9999,9999,1661195344
14,17,Jits_Phase_5,168,9999,9999,9999,9999,1661696068
14,17,Jits_Phase_5,169,9999,9999,9999,9999,1662206008
15,15,Jits_Phase_8,0,5,56,103,1671724572
15,15,Jits_Phase_8,1,5,63,98,1671727672
15,15,Jits_Phase_8,2,5,80,127,1671730644
15,15,Jits_Phase_8,0,5,56,103,1672524140
15,15,Jits_Phase_8,1,5,63,98,1672527088
15,15,Jits_Phase_8,2,5,80,127,1672530512
15,15,Jits_Phase_8,3,1,48,18,1672696372
15,15,Jits_Phase_8,0,5,80,127,1673263600
15,15,Jits_Phase_8,1,1,48,25,1673321552
15,15,Jits_Phase_8,2,5,63,98,1673353728
15,15,Jits_Phase_8,3,5,56,103,1673363848
15,15,Jits_Phase_8,0,5,56,103,1674083676
15,15,Jits_Phase_8,1,5,63,98,1674093876
15,15,Jits_Phase_8,2,1,48,30,1674096844
15,15,Jits_Phase_8,3,5,80,127,1674184020
15,15,Jits_Phase_8,0,5,63,98,1674853780
15,15,Jits_Phase_8,1,1,48,30,1674874508
15,15,Jits_Phase_8,2,5,80,127,1674883672
15,15,Jits_Phase_8,3,5,56,103,1674914196
15,15,Jits_Phase_8,0,1,48,30,1675586440
15,15,Jits_Phase_8,1,5,56,103,1675653528
15,15,Jits_Phase_8,2,5,80,127,1675753784
15,15,Jits_Phase_8,3,5,63,98,1675803984
15,15,Jits_Phase_8,0,5,56,103,1676454512
15,15,Jits_Phase_8,1,1,48,23,1676484012
15,15,Jits_Phase_8,2,5,80,127,1676504632
15,15,Jits_Phase_8,3,5,63,98,1676544572
15,15,Jits_Phase_8,0,1,48,25,1677253576
15,15,Jits_Phase_8,1,5,80,127,1677283648
15,15,Jits_Phase_8,2,5,63,98,1677314740
15,15,Jits_Phase_8,3,5,56,103,1677384180
15,15,Jits_Phase_8,0,5,63,98,1678114056
15,15,Jits_Phase_8,1,1,48,27,1678117548
15,15,Jits_Phase_8,2,5,56,103,1678143948
15,15,Jits_Phase_8,3,5,80,127,1678204484
15,15,Jits_Phase_8,0,5,56,103,1678853732
15,15,Jits_Phase_8,1,5,80,127,1678856716
15,15,Jits_Phase_8,2,1,48,26,1678956328
15,15,Jits_Phase_8,3,5,63,98,1678974412
15,15,Jits_Phase_8,0,1,48,23,1679702384
15,15,Jits_Phase_8,1,5,56,103,1679734244
15,15,Jits_Phase_8,2,5,80,127,1679774136
15,15,Jits_Phase_8,3,5,63,98,1679784480
15,15,Jits_Phase_8,0,5,56,103,1680493932
15,15,Jits_Phase_8,1,5,80,127,1680514616
15,15,Jits_Phase_8,2,1,48,25,1680551764
15,15,Jits_Phase_8,3,5,63,98,1680594428
15,15,Jits_Phase_8,0,5,80,127,1681283516
15,15,Jits_Phase_8,1,1,48,26,1681340968
15,15,Jits_Phase_8,2,5,56,103,1681383784
15,15,Jits_Phase_8,3,5,63,98,1681394128
15,15,Jits_Phase_8,0,5,63,98,1682053620
15,15,Jits_Phase_8,1,5,80,127,1682113888
15,15,Jits_Phase_8,2,5,56,103,1682124232
15,15,Jits_Phase_8,3,1,48,28,1682183016
15,15,Jits_Phase_8,0,5,56,103,1682854296
15,15,Jits_Phase_8,1,1,48,27,1682890744
15,15,Jits_Phase_8,2,5,63,98,1682923820
15,15,Jits_Phase_8,3,5,80,127,1682927332
15,15,Jits_Phase_8,0,1,48,29,1683640076
15,15,Jits_Phase_8,1,5,63,98,1683683644
15,15,Jits_Phase_8,2,5,56,103,1683734664
15,15,Jits_Phase_8,3,5,80,127,1683737560
15,15,Jits_Phase_8,0,5,56,103,1684443456
15,15,Jits_Phase_8,1,5,80,127,1684446524
15,15,Jits_Phase_8,2,1,48,29,1684467472
15,15,Jits_Phase_8,3,5,63,98,1684533508
15,15,Jits_Phase_8,0,5,63,98,1685284344
15,15,Jits_Phase_8,1,1,48,33,1685290084
15,15,Jits_Phase_8,2,5,56,103,1685374396
15,15,Jits_Phase_8,3,5,80,127,1685404080
15,15,Jits_Phase_8,0,5,56,103,1686073692
15,15,Jits_Phase_8,1,1,48,32,1686136148
15,15,Jits_Phase_8,2,5,63,98,1686174180
15,15,Jits_Phase_8,3,5,80,127,1686203708
15,15,Jits_Phase_8,0,5,63,98,1686893920
15,15,Jits_Phase_8,1,5,56,103,1686904412
15,15,Jits_Phase_8,2,1,48,30,1686933564
15,15,Jits_Phase_8,3,5,80,127,1686994412
15,15,Jits_Phase_8,0,1,48,29,1687679700
15,15,Jits_Phase_8,1,5,63,98,1687714372
15,15,Jits_Phase_8,2,5,56,103,1687793920
15,15,Jits_Phase_8,3,5,80,127,1687797068
15,15,Jits_Phase_8,0,5,80,127,1688473904
15,15,Jits_Phase_8,1,5,63,98,1688493464
15,15,Jits_Phase_8,2,1,48,32,1688525424
15,15,Jits_Phase_8,3,5,56,103,1688553920
15,15,Jits_Phase_8,0,5,56,103,1689313752
15,15,Jits_Phase_8,1,1,48,35,1689327428
15,15,Jits_Phase_8,2,5,63,98,1689334052
15,15,Jits_Phase_8,3,5,80,127,1689337640
15,15,Jits_Phase_8,0,5,63,98,1690054024
15,15,Jits_Phase_8,1,1,48,39,1690121040
15,15,Jits_Phase_8,2,5,80,127,1690133888
15,15,Jits_Phase_8,3,5,56,103,1690144380
15,15,Jits_Phase_8,0,1,48,35,1690857488
15,15,Jits_Phase_8,1,5,63,98,1690874224
15,15,Jits_Phase_8,2,5,56,103,1690893784
15,15,Jits_Phase_8,3,5,80,127,1690943912
15,15,Jits_Phase_8,0,5,80,127,1691673984
15,15,Jits_Phase_8,1,1,48,34,1691690360
15,15,Jits_Phase_8,2,5,63,98,1691713916
15,15,Jits_Phase_8,3,5,56,103,1691734300
15,15,Jits_Phase_8,0,1,48,32,1692494176
15,15,Jits_Phase_8,1,5,56,103,1692513756
15,15,Jits_Phase_8,2,5,63,98,1692524100
15,15,Jits_Phase_8,3,5,80,127,1692544484
15,15,Jits_Phase_8,0,5,56,103,1693243692
15,15,Jits_Phase_8,1,1,48,30,1693302556
15,15,Jits_Phase_8,2,5,63,98,1693333768
15,15,Jits_Phase_8,3,5,80,127,1693394380
15,15,Jits_Phase_8,0,5,80,127,1694074256
15,15,Jits_Phase_8,1,5,56,103,1694083556
15,15,Jits_Phase_8,2,1,48,33,1694120256
15,15,Jits_Phase_8,3,5,63,98,1694154300
15,15,Jits_Phase_8,0,1,48,35,1694889964
15,15,Jits_Phase_8,1,5,63,98,1694903564
15,15,Jits_Phase_8,2,5,80,127,1694993836
15,15,Jits_Phase_8,3,5,56,103,1695004180
15,15,Jits_Phase_8,0,5,63,98,1695633708
15,15,Jits_Phase_8,1,5,80,127,1695684084
15,15,Jits_Phase_8,2,5,56,103,1695744324
15,15,Jits_Phase_8,3,1,48,38,1695765800
15,15,Jits_Phase_8,0,5,56,103,1696454096
15,15,Jits_Phase_8,1,1,48,38,1696487856
15,15,Jits_Phase_8,2,5,80,127,1696504144
15,15,Jits_Phase_8,3,5,63,98,1696523704
15,15,Jits_Phase_8,0,5,56,103,1697224272
15,15,Jits_Phase_8,1,1,48,34,1697275268
15,15,Jits_Phase_8,2,5,80,127,1697283384
15,15,Jits_Phase_8,3,5,63,98,1697354332
15,15,Jits_Phase_8,0,5,56,103,1698023744
15,15,Jits_Phase_8,1,5,80,127,1698053420
15,15,Jits_Phase_8,2,1,48,38,1698065080
15,15,Jits_Phase_8,3,5,63,98,1698084280
15,15,Jits_Phase_8,0,1,48,35,1698842808
15,15,Jits_Phase_8,1,5,56,103,1698863436
15,15,Jits_Phase_8,2,5,80,127,1698883972
15,15,Jits_Phase_8,3,5,63,98,1698944344
15,15,Jits_Phase_8,0,1,48,35,1699667580
15,15,Jits_Phase_8,1,5,80,127,1699744204
15,15,Jits_Phase_8,2,5,56,103,1699754476
15,15,Jits_Phase_8,3,5,63,98,1699763536
15,15,Jits_Phase_8,0,5,56,103,1700504044
15,15,Jits_Phase_8,1,1,48,35,1700525672
15,15,Jits_Phase_8,2,5,80,127,1700543828
15,15,Jits_Phase_8,3,5,63,98,1700573652
15,15,Jits_Phase_8,0,5,56,103,1701274076
15,15,Jits_Phase_8,1,1,48,35,1701279892
15,15,Jits_Phase_8,2,5,63,98,1701303524
15,15,Jits_Phase_8,3,5,80,127,1701343536
15,15,Jits_Phase_8,0,5,80,127,1702023480
15,15,Jits_Phase_8,1,5,63,98,1702073856
15,15,Jits_Phase_8,2,1,48,32,1702076020
15,15,Jits_Phase_8,3,5,56,103,1702094236
15,15,Jits_Phase_8,0,1,48,31,1702836348
15,15,Jits_Phase_8,1,5,56,103,1702854204
15,15,Jits_Phase_8,2,5,80,127,1702923588
15,15,Jits_Phase_8,3,5,63,98,1702984260
15,15,Jits_Phase_8,0,5,80,127,1703653748
15,15,Jits_Phase_8,1,1,48,34,1703674772
15,15,Jits_Phase_8,2,5,63,98,1703743728
15,15,Jits_Phase_8,3,5,56,103,1703764408
15,15,Jits_Phase_8,0,5,63,98,1704474052
15,15,Jits_Phase_8,1,5,56,103,1704493316
15,15,Jits_Phase_8,2,1,48,33,1704525428
15,15,Jits_Phase_8,3,5,80,127,1704534440
15,15,Jits_Phase_8,0,5,80,127,1705233648
15,15,Jits_Phase_8,1,5,63,98,1705254184
15,15,Jits_Phase_8,2,1,48,38,1705273788
15,15,Jits_Phase_8,3,5,56,103,1705334116
15,15,Jits_Phase_8,0,5,63,98,1706024272
15,15,Jits_Phase_8,1,1,48,33,1706036080
15,15,Jits_Phase_8,2,5,56,103,1706134108
15,15,Jits_Phase_8,3,5,80,127,1706137248
15,15,Jits_Phase_8,0,5,63,98,1706843424
15,15,Jits_Phase_8,1,5,56,103,1706853692
15,15,Jits_Phase_8,2,5,80,127,1706856756
15,15,Jits_Phase_8,3,1,48,33,1706863032
15,15,Jits_Phase_8,0,1,48,33,1707570520
15,15,Jits_Phase_8,1,5,56,103,1707623676
15,15,Jits_Phase_8,2,5,80,127,1707743612
15,15,Jits_Phase_8,3,5,63,98,1707783624
15,15,Jits_Phase_8,0,1,48,37,1708382856
15,15,Jits_Phase_8,1,5,56,103,1708444188
15,15,Jits_Phase_8,2,5,80,127,1708523968
15,15,Jits_Phase_8,3,5,63,98,1708544352
15,15,Jits_Phase_8,0,1,48,37,1709210872
15,15,Jits_Phase_8,1,5,56,103,1709243720
15,15,Jits_Phase_8,2,5,63,98,1709354292
15,15,Jits_Phase_8,3,5,80,127,1709357432
15,15,Jits_Phase_8,0,5,56,103,1710083336
15,15,Jits_Phase_8,1,5,80,127,1710114284
15,15,Jits_Phase_8,2,1,48,35,1710129240
15,15,Jits_Phase_8,3,5,63,98,1710133468
15,15,Jits_Phase_8,0,5,63,98,1710874188
15,15,Jits_Phase_8,1,5,56,103,1710884312
15,15,Jits_Phase_8,2,1,48,36,1710891264
15,15,Jits_Phase_8,3,5,80,127,1710893600
15,15,Jits_Phase_8,0,1,48,31,1711627604
15,15,Jits_Phase_8,1,5,80,127,1711663596
15,15,Jits_Phase_8,2,5,56,103,1711713648
15,15,Jits_Phase_8,3,5,63,98,1711753644
15,15,Jits_Phase_8,0,1,48,32,1712473444
15,15,Jits_Phase_8,1,5,80,127,1712483656
15,15,Jits_Phase_8,2,5,63,98,1712504264
15,15,Jits_Phase_8,3,5,56,103,1712554488
15,15,Jits_Phase_8,0,1,48,35,1713270268
15,15,Jits_Phase_8,1,5,80,127,1713293752
15,15,Jits_Phase_8,2,5,56,103,1713324276
15,15,Jits_Phase_8,3,5,63,98,1713394160
15,15,Jits_Phase_8,0,1,48,41,1714050696
15,15,Jits_Phase_8,1,5,56,103,1714143572
15,15,Jits_Phase_8,2,5,80,127,1714153916
15,15,Jits_Phase_8,3,5,63,98,1714194148
15,15,Jits_Phase_8,0,5,56,103,1714854344
15,15,Jits_Phase_8,1,5,63,98,1714873684
15,15,Jits_Phase_8,2,1,48,31,1714906244
15,15,Jits_Phase_8,3,5,80,127,1714944328
15,15,Jits_Phase_8,0,1,48,30,1715649732
15,15,Jits_Phase_8,1,5,63,98,1715673440
15,15,Jits_Phase_8,2,5,80,127,1715734128
15,15,Jits_Phase_8,3,5,56,103,1715754424
15,15,Jits_Phase_8,0,5,80,127,1716464060
15,15,Jits_Phase_8,1,1,48,36,1716481352
15,15,Jits_Phase_8,2,5,56,103,1716493732
15,15,Jits_Phase_8,3,5,63,98,1716524304
15,15,Jits_Phase_8,0,5,56,103,1717263608
15,15,Jits_Phase_8,1,1,48,40,1717265092
15,15,Jits_Phase_8,2,5,63,98,1717324288
15,15,Jits_Phase_8,3,5,80,127,1717383468
15,15,Jits_Phase_8,0,1,48,28,1718055624
15,15,Jits_Phase_8,1,5,80,127,1718084048
15,15,Jits_Phase_8,2,5,56,103,1718104508
15,15,Jits_Phase_8,3,5,63,98,1718174048
15,15,Jits_Phase_8,0,1,48,32,1718852920
15,15,Jits_Phase_8,1,5,80,127,1718883584
15,15,Jits_Phase_8,2,5,63,98,1718904192
15,15,Jits_Phase_8,3,5,56,103,1718933968
15,15,Jits_Phase_8,0,1,48,36,1719642560
15,15,Jits_Phase_8,1,5,80,127,1719674200
15,15,Jits_Phase_8,2,5,63,98,1719693536
15,15,Jits_Phase_8,3,5,56,103,1719754232
15,15,Jits_Phase_8,0,1,48,35,1720455944
15,15,Jits_Phase_8,1,5,80,127,1720474052
15,15,Jits_Phase_8,2,5,56,103,1720574288
15,15,Jits_Phase_8,3,5,63,98,1720604036
15,15,Jits_Phase_8,0,5,63,98,1721263480
15,15,Jits_Phase_8,1,5,80,127,1721313536
15,15,Jits_Phase_8,2,5,56,103,1721334216
15,15,Jits_Phase_8,3,1,48,31,1721343632
15,15,Jits_Phase_8,0,1,48,32,1722034288
15,15,Jits_Phase_8,1,5,80,127,1722104136
15,15,Jits_Phase_8,2,5,56,103,1722134168
15,15,Jits_Phase_8,3,5,63,98,1722137156
15,15,Jits_Phase_8,0,1,48,36,1722851248
15,15,Jits_Phase_8,1,5,63,98,1722954140
15,15,Jits_Phase_8,2,5,56,103,1722994080
15,15,Jits_Phase_8,3,5,80,127,1723013568
15,15,Jits_Phase_8,0,5,80,127,1723714212
15,15,Jits_Phase_8,1,1,48,30,1723716508
15,15,Jits_Phase_8,2,5,63,98,1723793852
15,15,Jits_Phase_8,3,5,56,103,1723834148
15,15,Jits_Phase_8,0,5,63,98,1724534044
15,15,Jits_Phase_8,1,1,48,36,1724604768
15,15,Jits_Phase_8,2,5,80,127,1724613932
15,15,Jits_Phase_8,3,5,56,103,1724633568
15,15,Jits_Phase_8,0,5,56,103,1725373908
15,15,Jits_Phase_8,1,1,48,35,1725382592
15,15,Jits_Phase_8,2,5,63,98,1725384176
15,15,Jits_Phase_8,3,5,80,127,1725423888
15,15,Jits_Phase_8,0,5,56,103,1726093648
15,15,Jits_Phase_8,1,5,80,127,1726096936
15,15,Jits_Phase_8,2,1,48,39,1726179496
15,15,Jits_Phase_8,3,5,63,98,1726233988
15,15,Jits_Phase_8,0,5,56,103,1726884140
15,15,Jits_Phase_8,1,1,48,34,1726950332
15,15,Jits_Phase_8,2,5,63,98,1726974196
15,15,Jits_Phase_8,3,5,80,127,1727043948
15,15,Jits_Phase_8,0,1,48,29,1727695948
15,15,Jits_Phase_8,1,5,63,98,1727764072
15,15,Jits_Phase_8,2,5,80,127,1727767360
15,15,Jits_Phase_8,3,5,56,103,1727824224
15,15,Jits_Phase_8,0,1,48,34,1728518548
15,15,Jits_Phase_8,1,5,80,127,1728603612
15,15,Jits_Phase_8,2,5,56,103,1728623908
15,15,Jits_Phase_8,3,5,63,98,1728634256
15,15,Jits_Phase_8,0,5,56,103,1729314300
15,15,Jits_Phase_8,1,5,63,98,1729324496
15,15,Jits_Phase_8,2,1,48,33,1729368664
15,15,Jits_Phase_8,3,5,80,127,1729394020
15,15,Jits_Phase_8,0,5,80,127,1730113996
15,15,Jits_Phase_8,1,1,48,34,1730129840
15,15,Jits_Phase_8,2,5,56,103,1730164116
15,15,Jits_Phase_8,3,5,63,98,1730214192
15,15,Jits_Phase_8,0,1,48,34,1730920472
15,15,Jits_Phase_8,1,5,56,103,1730993504
15,15,Jits_Phase_8,2,5,63,98,1731004000
15,15,Jits_Phase_8,3,5,80,127,1731043848
15,15,Jits_Phase_8,0,1,48,38,1731730600
15,15,Jits_Phase_8,1,5,56,103,1731734004
15,15,Jits_Phase_8,2,5,63,98,1731774168
15,15,Jits_Phase_8,3,5,80,127,1731824068
15,15,Jits_Phase_8,0,5,80,127,1732493812
15,15,Jits_Phase_8,1,1,48,36,1732506616
15,15,Jits_Phase_8,2,5,56,103,1732543884
15,15,Jits_Phase_8,3,5,63,98,1732564268
15,15,Jits_Phase_8,0,5,80,127,1733303644
15,15,Jits_Phase_8,1,1,48,31,1733331032
15,15,Jits_Phase_8,2,5,63,98,1733364180
15,15,Jits_Phase_8,3,5,56,103,1733443808
15,15,Jits_Phase_8,0,5,80,127,1734083864
15,15,Jits_Phase_8,1,1,48,33,1734122976
15,15,Jits_Phase_8,2,5,56,103,1734124540
15,15,Jits_Phase_8,3,5,63,98,1734144480
15,15,Jits_Phase_8,0,1,48,37,1734925476
15,15,Jits_Phase_8,1,5,56,103,1734933968
15,15,Jits_Phase_8,2,5,80,127,1734944088
15,15,Jits_Phase_8,3,5,63,98,1734984028
15,15,Jits_Phase_8,0,1,48,41,1735639740
15,15,Jits_Phase_8,1,5,56,103,1735804140
15,15,Jits_Phase_8,2,5,63,98,1735844096
15,15,Jits_Phase_8,3,5,80,127,1735847388
15,15,Jits_Phase_8,0,5,63,98,1736474004
15,15,Jits_Phase_8,1,5,80,127,1736513872
15,15,Jits_Phase_8,2,5,56,103,1736583624
15,15,Jits_Phase_8,3,1,48,35,1736593264
15,15,Jits_Phase_8,0,5,63,98,1737243996
15,15,Jits_Phase_8,1,5,56,103,1737324016
15,15,Jits_Phase_8,2,1,48,32,1737347288
15,15,Jits_Phase_8,3,5,80,127,1737384196
15,15,Jits_Phase_8,0,5,80,127,1738053940
15,15,Jits_Phase_8,1,1,48,29,1738090464
15,15,Jits_Phase_8,2,5,63,98,1738104136
15,15,Jits_Phase_8,3,5,56,103,1738133984
15,15,Jits_Phase_8,0,5,56,103,1738843368
15,15,Jits_Phase_8,1,5,63,98,1738893796
15,15,Jits_Phase_8,2,5,80,127,1738903792
15,15,Jits_Phase_8,3,1,48,29,1738907356
15,15,Jits_Phase_8,0,5,56,103,1739653472
15,15,Jits_Phase_8,1,1,48,33,1739699764
15,15,Jits_Phase_8,2,5,63,98,1739764228
15,15,Jits_Phase_8,3,5,80,127,1739783488
15,15,Jits_Phase_8,0,5,63,98,1740454172
15,15,Jits_Phase_8,1,1,48,28,1740483820
15,15,Jits_Phase_8,2,5,80,127,1740504292
15,15,Jits_Phase_8,3,5,56,103,1740593508
15,15,Jits_Phase_8,0,5,63,98,1741243964
15,15,Jits_Phase_8,1,5,80,127,1741273488
15,15,Jits_Phase_8,2,1,48,34,1741291284
15,15,Jits_Phase_8,3,5,56,103,1741363760
15,15,Jits_Phase_8,0,1,48,34,1742039108
15,15,Jits_Phase_8,1,5,63,98,1742043484
15,15,Jits_Phase_8,2,5,56,103,1742053904
15,15,Jits_Phase_8,3,5,80,127,1742154060
15,15,Jits_Phase_8,0,1,48,36,1742877744
15,15,Jits_Phase_8,1,5,63,98,1742943704
15,15,Jits_Phase_8,2,5,80,127,1742974204
15,15,Jits_Phase_8,3,5,56,103,1743004036
15,15,Jits_Phase_8,0,5,80,127,1743763804
15,15,Jits_Phase_8,1,1,48,29,1743767000
15,15,Jits_Phase_8,2,5,63,98,1743773920
15,15,Jits_Phase_8,3,5,56,103,1743803892
15,15,Jits_Phase_8,0,5,80,127,1744464140
15,15,Jits_Phase_8,1,5,63,98,1744483924
15,15,Jits_Phase_8,2,5,56,103,1744533776
15,15,Jits_Phase_8,3,1,48,26,1744553752
15,15,Jits_Phase_8,0,1,48,32,1745292284
15,15,Jits_Phase_8,1,5,63,98,1745293864
15,15,Jits_Phase_8,2,5,80,127,1745354060
15,15,Jits_Phase_8,3,5,56,103,1745373840
15,15,Jits_Phase_8,0,5,63,98,1746053700
15,15,Jits_Phase_8,1,1,48,38,1746071836
15,15,Jits_Phase_8,2,5,56,103,1746103844
15,15,Jits_Phase_8,3,5,80,127,1746113892
15,15,Jits_Phase_8,0,1,48,33,1746850212
15,15,Jits_Phase_8,1,5,56,103,1746883884
15,15,Jits_Phase_8,2,5,80,127,1746894080
15,15,Jits_Phase_8,3,5,63,98,1746993932
15,15,Jits_Phase_8,0,5,80,127,1747643864
15,15,Jits_Phase_8,1,5,63,98,1747653912
15,15,Jits_Phase_8,2,1,48,35,1747732704
15,15,Jits_Phase_8,3,5,56,103,1747803740
15,15,Jits_Phase_8,0,5,63,98,1748453676
15,15,Jits_Phase_8,1,5,80,127,1748493912
15,15,Jits_Phase_8,2,1,48,32,1748509092
15,15,Jits_Phase_8,3,5,56,103,1748573624
15,15,Jits_Phase_8,0,5,56,103,1749204432
15,15,Jits_Phase_8,1,1,48,33,1749277976
15,15,Jits_Phase_8,2,5,80,127,1749303848
15,15,Jits_Phase_8,3,5,63,98,1749324084
15,15,Jits_Phase_8,0,5,80,127,1750023608
15,15,Jits_Phase_8,1,1,48,32,1750024648
15,15,Jits_Phase_8,2,5,56,103,1750033652
15,15,Jits_Phase_8,3,5,63,98,1750123912
15,15,Jits_Phase_8,0,5,56,103,1750824652
15,15,Jits_Phase_8,1,1,48,30,1750825544
15,15,Jits_Phase_8,2,5,63,98,1750843688
15,15,Jits_Phase_8,3,5,80,127,1750923912
15,15,Jits_Phase_8,0,5,63,98,1751573860
15,15,Jits_Phase_8,1,1,48,38,1751608068
15,15,Jits_Phase_8,2,5,56,103,1751664060
15,15,Jits_Phase_8,3,5,80,127,1751666904
15,15,Jits_Phase_8,0,1,48,32,1752331700
15,15,Jits_Phase_8,1,5,56,103,1752404320
15,15,Jits_Phase_8,2,5,80,127,1752463648
15,15,Jits_Phase_8,3,5,63,98,1752473944
15,15,Jits_Phase_8,0,1,48,33,1753146280
15,15,Jits_Phase_8,1,5,80,127,1753254284
15,15,Jits_Phase_8,2,5,56,103,1753263432
15,15,Jits_Phase_8,3,5,63,98,1753266720
15,15,Jits_Phase_8,0,5,56,103,1754014124
15,15,Jits_Phase_8,1,5,80,127,1754024248
15,15,Jits_Phase_8,2,5,63,98,1754043736
15,15,Jits_Phase_8,3,1,48,37,1754060856
15,15,Jits_Phase_8,0,5,63,98,1754784152
15,15,Jits_Phase_8,1,1,48,31,1754834848
15,15,Jits_Phase_8,2,5,80,127,1754843640
15,15,Jits_Phase_8,3,5,56,103,1754893616
15,15,Jits_Phase_8,0,1,48,31,1755638712
15,15,Jits_Phase_8,1,5,63,98,1755663772
15,15,Jits_Phase_8,2,5,56,103,1755673896
15,15,Jits_Phase_8,3,5,80,127,1755724092
15,15,Jits_Phase_8,0,5,63,98,1756364264
15,15,Jits_Phase_8,1,5,80,127,1756383824
15,15,Jits_Phase_8,2,5,56,103,1756393948
15,15,Jits_Phase_8,3,1,48,27,1756483748
15,15,Jits_Phase_8,0,1,48,21,1757159856
15,15,Jits_Phase_8,1,5,63,98,1757164008
15,15,Jits_Phase_8,2,5,80,127,1757167372
15,15,Jits_Phase_8,3,5,56,103,1757203796
15,15,Jits_Phase_8,0,1,48,26,1757985524
15,15,Jits_Phase_8,1,5,63,98,1758034180
15,15,Jits_Phase_8,2,5,80,127,1758064076
15,15,Jits_Phase_8,3,5,56,103,1758074200
15,15,Jits_Phase_8,0,5,56,103,1758783896
15,15,Jits_Phase_8,1,1,48,30,1758802680
15,15,Jits_Phase_8,2,5,80,127,1758813716
15,15,Jits_Phase_8,3,5,63,98,1758844360
15,15,Jits_Phase_8,0,1,48,33,1759608724
15,15,Jits_Phase_8,1,5,63,98,1759683932
15,15,Jits_Phase_8,2,5,56,103,1759723772
15,15,Jits_Phase_8,3,5,80,127,1759726992
15,15,Jits_Phase_8,0,5,80,127,1760384472
15,15,Jits_Phase_8,1,5,56,103,1760464220
15,15,Jits_Phase_8,2,1,48,31,1760492968
15,15,Jits_Phase_8,3,5,63,98,1760514488
15,15,Jits_Phase_8,0,5,80,127,1761163496
15,15,Jits_Phase_8,1,5,56,103,1761184204
15,15,Jits_Phase_8,2,1,48,34,1761267180
15,15,Jits_Phase_8,3,5,63,98,1761274104
15,15,Jits_Phase_8,0,5,80,127,1762004196
15,15,Jits_Phase_8,1,1,48,37,1762013688
15,15,Jits_Phase_8,2,5,63,98,1762044132
15,15,Jits_Phase_8,3,5,56,103,1762084068
15,15,Jits_Phase_8,0,5,63,98,1762814524
15,15,Jits_Phase_8,1,1,48,34,1762816464
15,15,Jits_Phase_8,2,5,80,127,1762873640
15,15,Jits_Phase_8,3,5,56,103,1762904656
15,15,Jits_Phase_8,0,1,48,34,1763650724
15,15,Jits_Phase_8,1,5,56,103,1763653904
15,15,Jits_Phase_8,2,5,80,127,1763683728
15,15,Jits_Phase_8,3,5,63,98,1763773944
15,15,Jits_Phase_8,0,5,56,103,1764464080
15,15,Jits_Phase_8,1,1,48,35,1764516152
15,15,Jits_Phase_8,2,5,80,127,1764573716
15,15,Jits_Phase_8,3,5,63,98,1764604140
15,15,Jits_Phase_8,0,5,56,103,1765313856
15,15,Jits_Phase_8,1,5,63,98,1765374472
15,15,Jits_Phase_8,2,1,48,33,1765383444
15,15,Jits_Phase_8,3,5,80,127,1765403916
15,15,Jits_Phase_8,0,5,56,103,1766084040
15,15,Jits_Phase_8,1,5,63,98,1766153648
15,15,Jits_Phase_8,2,1,48,35,1766163596
15,15,Jits_Phase_8,3,5,80,127,1766173952
15,15,Jits_Phase_8,0,5,80,127,1766853924
15,15,Jits_Phase_8,1,5,63,98,1766873560
15,15,Jits_Phase_8,2,5,56,103,1766923760
15,15,Jits_Phase_8,3,1,48,40,1767024868
15,15,Jits_Phase_8,0,5,63,98,1767674216
15,15,Jits_Phase_8,1,5,80,127,1767683516
15,15,Jits_Phase_8,2,1,48,28,1767724620
15,15,Jits_Phase_8,3,5,56,103,1767733708
15,15,Jits_Phase_8,0,5,63,98,1768473824
15,15,Jits_Phase_8,1,1,48,35,1768524148
15,15,Jits_Phase_8,2,5,80,127,1768543648
15,15,Jits_Phase_8,3,5,56,103,1768564032
15,15,Jits_Phase_8,0,1,48,31,1769293932
15,15,Jits_Phase_8,1,5,63,98,1769304588
15,15,Jits_Phase_8,2,5,80,127,1769307804
15,15,Jits_Phase_8,3,5,56,103,1769373992
15,15,Jits_Phase_8,0,5,80,127,1770053924
15,15,Jits_Phase_8,1,5,56,103,1770073560
15,15,Jits_Phase_8,2,1,48,34,1770082552
15,15,Jits_Phase_8,3,5,63,98,1770084120
15,15,Jits_Phase_8,0,5,56,103,1770874512
15,15,Jits_Phase_8,1,1,48,36,1770880552
15,15,Jits_Phase_8,2,5,63,98,1770964512
15,15,Jits_Phase_8,3,5,80,127,1770967656
15,15,Jits_Phase_8,0,5,80,127,1771644388
15,15,Jits_Phase_8,1,5,56,103,1771653684
15,15,Jits_Phase_8,2,5,63,98,1771674020
15,15,Jits_Phase_8,3,1,48,37,1771740288
15,15,Jits_Phase_8,0,5,63,98,1772443948
15,15,Jits_Phase_8,1,1,48,37,1772484380
15,15,Jits_Phase_8,2,5,80,127,1772504408
15,15,Jits_Phase_8,3,5,56,103,1772513632
15,15,Jits_Phase_8,0,1,48,36,1773296560
15,15,Jits_Phase_8,1,5,63,98,1773314568
15,15,Jits_Phase_8,2,5,80,127,1773344320
15,15,Jits_Phase_8,3,5,56,103,1773384184
15,15,Jits_Phase_8,0,1,48,35,1774092660
15,15,Jits_Phase_8,1,5,56,103,1774103920
15,15,Jits_Phase_8,2,5,80,127,1774114116
15,15,Jits_Phase_8,3,5,63,98,1774154052
15,15,Jits_Phase_8,0,5,80,127,1774863676
15,15,Jits_Phase_8,1,1,48,33,1774883280
15,15,Jits_Phase_8,2,5,56,103,1774943540
15,15,Jits_Phase_8,3,5,63,98,1774953884
15,15,Jits_Phase_8,0,1,48,32,1775665060
15,15,Jits_Phase_8,1,5,80,127,1775713564
15,15,Jits_Phase_8,2,5,56,103,1775793596
15,15,Jits_Phase_8,3,5,63,98,1775803720
15,15,Jits_Phase_8,0,1,48,32,1776539396
15,15,Jits_Phase_8,1,5,80,127,1776554564
15,15,Jits_Phase_8,2,5,56,103,1776603568
15,15,Jits_Phase_8,3,5,63,98,1776653684
15,15,Jits_Phase_8,0,1,48,31,1777363728
15,15,Jits_Phase_8,1,5,56,103,1777494548
15,15,Jits_Phase_8,2,5,63,98,1777497468
15,15,Jits_Phase_8,3,5,80,127,1777543480
15,15,Jits_Phase_8,0,1,48,30,1778264404
15,15,Jits_Phase_8,1,5,56,103,1778313576
15,15,Jits_Phase_8,2,5,63,98,1778344400
15,15,Jits_Phase_8,3,5,80,127,1778353624
15,15,Jits_Phase_8,0,5,63,98,1779024340
15,15,Jits_Phase_8,1,5,56,103,1779093824
15,15,Jits_Phase_8,2,1,48,31,1779130500
15,15,Jits_Phase_8,3,5,80,127,1779144016
15,15,Jits_Phase_8,0,5,63,98,1779853696
15,15,Jits_Phase_8,1,5,56,103,1779863892
15,15,Jits_Phase_8,2,5,80,127,1779866956
15,15,Jits_Phase_8,3,1,48,24,1779921088
15,15,Jits_Phase_8,0,5,80,127,1780604264
15,15,Jits_Phase_8,1,5,56,103,1780663636
15,15,Jits_Phase_8,2,1,48,24,1780687724
15,15,Jits_Phase_8,3,5,63,98,1780753760
15,15,Jits_Phase_8,0,5,80,127,1781404064
15,15,Jits_Phase_8,1,1,48,28,1781491308
15,15,Jits_Phase_8,2,5,56,103,1781504528
15,15,Jits_Phase_8,3,5,63,98,1781544320
15,15,Jits_Phase_8,0,5,56,103,1782253812
15,15,Jits_Phase_8,1,5,63,98,1782274496
15,15,Jits_Phase_8,2,5,80,127,1782314580
15,15,Jits_Phase_8,3,1,48,21,1782319644
15,15,Jits_Phase_8,0,5,63,98,1783023988
15,15,Jits_Phase_8,1,5,56,103,1783043552
15,15,Jits_Phase_8,2,5,80,127,1783143644
15,15,Jits_Phase_8,3,1,48,23,1783144612
15,15,Jits_Phase_8,0,5,63,98,1783813556
15,15,Jits_Phase_8,1,1,48,25,1783901568
15,15,Jits_Phase_8,2,5,80,127,1783924208
15,15,Jits_Phase_8,3,5,56,103,1783953836
15,15,Jits_Phase_8,0,5,56,103,1784633768
15,15,Jits_Phase_8,1,1,48,27,1784660928
15,15,Jits_Phase_8,2,5,63,98,1784664484
15,15,Jits_Phase_8,3,5,80,127,1784713564
15,15,Jits_Phase_8,0,5,63,98,1785403644
15,15,Jits_Phase_8,1,5,56,103,1785433544
15,15,Jits_Phase_8,2,1,48,28,1785450440
15,15,Jits_Phase_8,3,5,80,127,1785483592
15,15,Jits_Phase_8,0,1,48,29,1786168596
15,15,Jits_Phase_8,1,5,56,103,1786234184
15,15,Jits_Phase_8,2,5,63,98,1786253668
15,15,Jits_Phase_8,3,5,80,127,1786333620
15,15,Jits_Phase_8,0,5,63,98,1787004348
15,15,Jits_Phase_8,1,1,48,22,1787014140
15,15,Jits_Phase_8,2,5,56,103,1787063636
15,15,Jits_Phase_8,3,5,80,127,1787094356
15,15,Jits_Phase_8,0,1,48,33,1787768104
15,15,Jits_Phase_8,1,5,56,103,1787843828
15,15,Jits_Phase_8,2,5,80,127,1787904428
15,15,Jits_Phase_8,3,5,63,98,1787944588
15,15,Jits_Phase_8,0,5,63,98,1788624340
15,15,Jits_Phase_8,1,1,48,34,1788635028
15,15,Jits_Phase_8,2,5,56,103,1788683532
15,15,Jits_Phase_8,3,5,80,127,1788754316
15,15,Jits_Phase_8,0,1,48,29,1789473820
15,15,Jits_Phase_8,1,5,56,103,1789503736
15,15,Jits_Phase_8,2,5,63,98,1789514376
15,15,Jits_Phase_8,3,5,80,127,1789517664
15,15,Jits_Phase_8,0,5,63,98,1790244304
15,15,Jits_Phase_8,1,5,56,103,1790303572
15,15,Jits_Phase_8,2,5,80,127,1790306564
15,15,Jits_Phase_8,3,1,48,27,1790312088
15,15,Jits_Phase_8,0,5,63,98,1791023528
15,15,Jits_Phase_8,1,5,80,127,1791054248
15,15,Jits_Phase_8,2,1,48,26,1791071144
15,15,Jits_Phase_8,3,5,56,103,1791073652
15,15,Jits_Phase_8,0,5,56,103,1791753528
15,15,Jits_Phase_8,1,5,63,98,1791803732
15,15,Jits_Phase_8,2,1,48,25,1791810592
15,15,Jits_Phase_8,3,5,80,127,1791883592
15,15,Jits_Phase_8,0,5,80,127,1792454268
15,15,Jits_Phase_8,1,5,63,98,1792494060
15,15,Jits_Phase_8,2,5,56,103,1792514516
15,15,Jits_Phase_8,3,1,48,21,1792578384
15,15,Jits_Phase_8,0,1,48,26,1793289732
15,15,Jits_Phase_8,1,5,56,103,1793324304
15,15,Jits_Phase_8,2,5,80,127,1793333528
15,15,Jits_Phase_8,3,5,63,98,1793354284
15,15,Jits_Phase_8,0,1,48,30,1794090092
15,15,Jits_Phase_8,1,5,56,103,1794103612
15,15,Jits_Phase_8,2,5,63,98,1794153964
15,15,Jits_Phase_8,3,5,80,127,1794183640
15,15,Jits_Phase_8,0,5,56,103,1794854228
15,15,Jits_Phase_8,1,5,63,98,1794863376
15,15,Jits_Phase_8,2,1,48,29,1794899824
15,15,Jits_Phase_8,3,5,80,127,1794913720
15,15,Jits_Phase_8,0,5,56,103,1795643728
15,15,Jits_Phase_8,1,5,80,127,1795646868
15,15,Jits_Phase_8,2,1,48,26,1795664828
15,15,Jits_Phase_8,3,5,63,98,1795803384
15,15,Jits_Phase_8,0,5,63,98,1796464168
15,15,Jits_Phase_8,1,1,48,27,1796509864
15,15,Jits_Phase_8,2,5,56,103,1796533572
15,15,Jits_Phase_8,3,5,80,127,1796573580
15,15,Jits_Phase_8,0,1,48,27,1797246508
15,15,Jits_Phase_8,1,5,63,98,1797303728
15,15,Jits_Phase_8,2,5,56,103,1797393772
15,15,Jits_Phase_8,3,5,80,127,1797397136
15,15,Jits_Phase_8,0,5,56,103,1798084236
15,15,Jits_Phase_8,1,1,48,36,1798110724
15,15,Jits_Phase_8,2,5,63,98,1798174140
15,15,Jits_Phase_8,3,5,80,127,1798184336
15,15,Jits_Phase_8,0,5,56,103,1798854340
15,15,Jits_Phase_8,1,5,63,98,1798904320
15,15,Jits_Phase_8,2,5,80,127,1798933772
15,15,Jits_Phase_8,3,1,48,30,1798943636
15,15,Jits_Phase_8,0,1,48,29,1799695588
15,15,Jits_Phase_8,1,5,63,98,1799733600
15,15,Jits_Phase_8,2,5,80,127,1799743872
15,15,Jits_Phase_8,3,5,56,103,1799804172
15,15,Jits_Phase_8,0,5,63,98,1800453428
15,15,Jits_Phase_8,1,5,80,127,1800514120
15,15,Jits_Phase_8,2,1,48,27,1800518060
15,15,Jits_Phase_8,3,5,56,103,1800553824
15,15,Jits_Phase_8,0,1,48,24,1801282000
15,15,Jits_Phase_8,1,5,56,103,1801353496
15,15,Jits_Phase_8,2,5,80,127,1801375236
15,15,Jits_Phase_8,3,5,63,98,1801393528
15,15,Jits_Phase_8,0,5,63,98,1802073404
15,15,Jits_Phase_8,1,5,56,103,1802094160
15,15,Jits_Phase_8,2,1,48,26,1802120572
15,15,Jits_Phase_8,3,5,80,127,1802134040
15,15,Jits_Phase_8,0,5,63,98,1802883424
15,15,Jits_Phase_8,1,5,80,127,1802914320
15,15,Jits_Phase_8,2,5,56,103,1802933508
15,15,Jits_Phase_8,3,1,48,28,1802939092
15,15,Jits_Phase_8,0,5,80,127,1803653508
15,15,Jits_Phase_8,1,5,56,103,1803703588
15,15,Jits_Phase_8,2,1,48,29,1803712480
15,15,Jits_Phase_8,3,5,63,98,1803764044
15,15,Jits_Phase_8,0,5,63,98,1804444236
15,15,Jits_Phase_8,1,1,48,17,1804550368
15,15,Jits_Phase_8,2,5,56,103,1804563960
15,15,Jits_Phase_8,3,5,80,127,1804593484
15,15,Jits_Phase_8,0,5,80,127,1805283856
15,15,Jits_Phase_8,1,1,48,27,1805298208
15,15,Jits_Phase_8,2,5,63,98,1805304232
15,15,Jits_Phase_8,3,5,56,103,1805373840
15,15,Jits_Phase_8,0,1,48,19,1806092520
15,15,Jits_Phase_8,1,5,63,98,1806104148
15,15,Jits_Phase_8,2,5,56,103,1806114268
15,15,Jits_Phase_8,3,5,80,127,1806194124
15,15,Jits_Phase_8,0,1,48,26,1806945392
15,15,Jits_Phase_8,1,5,56,103,1806964000
15,15,Jits_Phase_8,2,5,80,127,1806993700
15,15,Jits_Phase_8,3,5,63,98,1807004044
15,15,Jits_Phase_8,0,9999,9999,9999,9999,1672121412
15,15,Jits_Phase_8,1,9999,9999,9999,9999,1672921180
15,15,Jits_Phase_8,2,9999,9999,9999,9999,1673721928
15,15,Jits_Phase_8,3,9999,9999,9999,9999,1674521700
15,15,Jits_Phase_8,4,9999,9999,9999,9999,1675321468
15,15,Jits_Phase_8,5,9999,9999,9999,9999,1676121152
15,15,Jits_Phase_8,6,9999,9999,9999,9999,1676921952
15,15,Jits_Phase_8,7,9999,9999,9999,9999,1677721676
15,15,Jits_Phase_8,8,9999,9999,9999,9999,1678521440
15,15,Jits_Phase_8,9,9999,9999,9999,9999,1679321184
15,15,Jits_Phase_8,10,9999,9999,9999,9999,1680121936
15,15,Jits_Phase_8,11,9999,9999,9999,9999,1680921692
15,15,Jits_Phase_8,12,9999,9999,9999,9999,1681721468
15,15,Jits_Phase_8,13,9999,9999,9999,9999,1682521164
15,15,Jits_Phase_8,14,9999,9999,9999,9999,1683321948
15,15,Jits_Phase_8,15,9999,9999,9999,9999,1684121660
15,15,Jits_Phase_8,16,9999,9999,9999,9999,1684921400
15,15,Jits_Phase_8,17,9999,9999,9999,9999,1685721176
15,15,Jits_Phase_8,18,9999,9999,9999,9999,1686521984
15,15,Jits_Phase_8,19,9999,9999,9999,9999,1687321680
15,15,Jits_Phase_8,20,9999,9999,9999,9999,1688121432
15,15,Jits_Phase_8,21,9999,9999,9999,9999,1688921188
15,15,Jits_Phase_8,22,9999,9999,9999,9999,1689721920
15,15,Jits_Phase_8,23,9999,9999,9999,9999,1690521716
15,15,Jits_Phase_8,24,9999,9999,9999,9999,1691321468
15,15,Jits_Phase_8,25,9999,9999,9999,9999,1692121148
15,15,Jits_Phase_8,26,9999,9999,9999,9999,1692921968
15,15,Jits_Phase_8,27,9999,9999,9999,9999,1693721724
15,15,Jits_Phase_8,28,9999,9999,9999,9999,1694521420
15,15,Jits_Phase_8,29,9999,9999,9999,9999,1695321200
15,15,Jits_Phase_8,30,9999,9999,9999,9999,1696101476
15,15,Jits_Phase_8,31,9999,9999,9999,9999,1696901236
15,15,Jits_Phase_8,32,9999,9999,9999,9999,1697702000
15,15,Jits_Phase_8,33,9999,9999,9999,9999,1698501692
15,15,Jits_Phase_8,34,9999,9999,9999,9999,1699301464
15,15,Jits_Phase_8,35,9999,9999,9999,9999,1700101228
15,15,Jits_Phase_8,36,9999,9999,9999,9999,1700901964
15,15,Jits_Phase_8,37,9999,9999,9999,9999,1701701740
15,15,Jits_Phase_8,38,9999,9999,9999,9999,1702501432
15,15,Jits_Phase_8,39,9999,9999,9999,9999,1703301204
15,15,Jits_Phase_8,40,9999,9999,9999,9999,1704101964
15,15,Jits_Phase_8,41,9999,9999,9999,9999,1704901736
15,15,Jits_Phase_8,42,9999,9999,9999,9999,1705701488
15,15,Jits_Phase_8,43,9999,9999,9999,9999,1706501244
15,15,Jits_Phase_8,44,9999,9999,9999,9999,1707301956
15,15,Jits_Phase_8,45,9999,9999,9999,9999,1708101692
15,15,Jits_Phase_8,46,9999,9999,9999,9999,1708901448
15,15,Jits_Phase_8,47,9999,9999,9999,9999,1709701200
15,15,Jits_Phase_8,48,9999,9999,9999,9999,1710521432
15,15,Jits_Phase_8,49,9999,9999,9999,9999,1711321200
15,15,Jits_Phase_8,50,9999,9999,9999,9999,1712121928
15,15,Jits_Phase_8,51,9999,9999,9999,9999,1712921684
15,15,Jits_Phase_8,52,9999,9999,9999,9999,1713721444
15,15,Jits_Phase_8,53,9999,9999,9999,9999,1714521208
15,15,Jits_Phase_8,54,9999,9999,9999,9999,1715321932
15,15,Jits_Phase_8,55,9999,9999,9999,9999,1716121660
15,15,Jits_Phase_8,56,9999,9999,9999,9999,1716921412
15,15,Jits_Phase_8,57,9999,9999,9999,9999,1717721184
15,15,Jits_Phase_8,58,9999,9999,9999,9999,1718521932
15,15,Jits_Phase_8,59,9999,9999,9999,9999,1719321688
15,15,Jits_Phase_8,60,9999,9999,9999,9999,1720121444
15,15,Jits_Phase_8,61,9999,9999,9999,9999,1720921204
15,15,Jits_Phase_8,62,9999,9999,9999,9999,1721721928
15,15,Jits_Phase_8,63,9999,9999,9999,9999,1722521704
15,15,Jits_Phase_8,64,9999,9999,9999,9999,1723361396
15,15,Jits_Phase_8,65,9999,9999,9999,9999,1724161132
15,15,Jits_Phase_8,66,9999,9999,9999,9999,1724961880
15,15,Jits_Phase_8,67,9999,9999,9999,9999,1725761644
15,15,Jits_Phase_8,68,9999,9999,9999,9999,1726561404
15,15,Jits_Phase_8,69,9999,9999,9999,9999,1727361104
15,15,Jits_Phase_8,70,9999,9999,9999,9999,1728161868
15,15,Jits_Phase_8,71,9999,9999,9999,9999,1728961636
15,15,Jits_Phase_8,72,9999,9999,9999,9999,1729761388
15,15,Jits_Phase_8,73,9999,9999,9999,9999,1730561088
15,15,Jits_Phase_8,74,9999,9999,9999,9999,1731361916
15,15,Jits_Phase_8,75,9999,9999,9999,9999,1732161600
15,15,Jits_Phase_8,76,9999,9999,9999,9999,1732961352
15,15,Jits_Phase_8,77,9999,9999,9999,9999,1733761128
15,15,Jits_Phase_8,78,9999,9999,9999,9999,1734561888
15,15,Jits_Phase_8,79,9999,9999,9999,9999,1735361656
15,15,Jits_Phase_8,80,9999,9999,9999,9999,1736161344
15,15,Jits_Phase_8,81,9999,9999,9999,9999,1736921144
15,15,Jits_Phase_8,82,9999,9999,9999,9999,1737721952
15,15,Jits_Phase_8,83,9999,9999,9999,9999,1738521704
15,15,Jits_Phase_8,84,9999,9999,9999,9999,1739321468
15,15,Jits_Phase_8,85,9999,9999,9999,9999,1740121168
15,15,Jits_Phase_8,86,9999,9999,9999,9999,1740921912
15,15,Jits_Phase_8,87,9999,9999,9999,9999,1741721692
15,15,Jits_Phase_8,88,9999,9999,9999,9999,1742521444
15,15,Jits_Phase_8,89,9999,9999,9999,9999,1743321204
15,15,Jits_Phase_8,90,9999,9999,9999,9999,1744121944
15,15,Jits_Phase_8,91,9999,9999,9999,9999,1744921712
15,15,Jits_Phase_8,92,9999,9999,9999,9999,1745721412
15,15,Jits_Phase_8,93,9999,9999,9999,9999,1746521164
15,15,Jits_Phase_8,94,9999,9999,9999,9999,1747321964
15,15,Jits_Phase_8,95,9999,9999,9999,9999,1748121672
15,15,Jits_Phase_8,96,9999,9999,9999,9999,1748921440
15,15,Jits_Phase_8,97,9999,9999,9999,9999,1749641312
15,15,Jits_Phase_8,98,9999,9999,9999,9999,1750442080
15,15,Jits_Phase_8,99,9999,9999,9999,9999,1751241856
15,15,Jits_Phase_8,100,9999,9999,9999,9999,1752041544
15,15,Jits_Phase_8,101,9999,9999,9999,9999,1752841300
15,15,Jits_Phase_8,102,9999,9999,9999,9999,1753642100
15,15,Jits_Phase_8,103,9999,9999,9999,9999,1754441784
15,15,Jits_Phase_8,104,9999,9999,9999,9999,1755241556
15,15,Jits_Phase_8,105,9999,9999,9999,9999,1756041324
15,15,Jits_Phase_8,106,9999,9999,9999,9999,1756842064
15,15,Jits_Phase_8,107,9999,9999,9999,9999,1757641804
15,15,Jits_Phase_8,108,9999,9999,9999,9999,1758441568
15,15,Jits_Phase_8,109,9999,9999,9999,9999,1759241320
15,15,Jits_Phase_8,110,9999,9999,9999,9999,1760042068
15,15,Jits_Phase_8,111,9999,9999,9999,9999,1760841828
15,15,Jits_Phase_8,112,9999,9999,9999,9999,1761641596
15,15,Jits_Phase_8,113,9999,9999,9999,9999,1762441296
15,15,Jits_Phase_8,114,9999,9999,9999,9999,1763321920
15,15,Jits_Phase_8,115,9999,9999,9999,9999,1764121676
15,15,Jits_Phase_8,116,9999,9999,9999,9999,1764921440
15,15,Jits_Phase_8,117,9999,9999,9999,9999,1765721148
15,15,Jits_Phase_8,118,9999,9999,9999,9999,1766521968
15,15,Jits_Phase_8,119,9999,9999,9999,9999,1767321684
15,15,Jits_Phase_8,120,9999,9999,9999,9999,1768121452
15,15,Jits_Phase_8,121,9999,9999,9999,9999,1768921212
15,15,Jits_Phase_8,122,9999,9999,9999,9999,1769721932
15,15,Jits_Phase_8,123,9999,9999,9999,9999,1770521684
15,15,Jits_Phase_8,124,9999,9999,9999,9999,1771321448
15,15,Jits_Phase_8,125,9999,9999,9999,9999,1772121212
15,15,Jits_Phase_8,126,9999,9999,9999,9999,1772921952
15,15,Jits_Phase_8,127,9999,9999,9999,9999,1773721664
15,15,Jits_Phase_8,128,9999,9999,9999,9999,1774521420
15,15,Jits_Phase_8,129,9999,9999,9999,9999,1775321180
15,15,Jits_Phase_8,130,9999,9999,9999,9999,1776121932
15,15,Jits_Phase_8,131,9999,9999,9999,9999,1777081444
15,15,Jits_Phase_8,132,9999,9999,9999,9999,1777881200
15,15,Jits_Phase_8,133,9999,9999,9999,9999,1778681940
15,15,Jits_Phase_8,134,9999,9999,9999,9999,1779481696
15,15,Jits_Phase_8,135,9999,9999,9999,9999,1780281420
15,15,Jits_Phase_8,136,9999,9999,9999,9999,1781081176
15,15,Jits_Phase_8,137,9999,9999,9999,9999,1781881924
15,15,Jits_Phase_8,138,9999,9999,9999,9999,1782681720
15,15,Jits_Phase_8,139,9999,9999,9999,9999,1783481416
15,15,Jits_Phase_8,140,9999,9999,9999,9999,1784281176
15,15,Jits_Phase_8,141,9999,9999,9999,9999,1785081984
15,15,Jits_Phase_8,142,9999,9999,9999,9999,1785881672
15,15,Jits_Phase_8,143,9999,9999,9999,9999,1786681428
15,15,Jits_Phase_8,144,9999,9999,9999,9999,1787481180
15,15,Jits_Phase_8,145,9999,9999,9999,9999,1788281912
15,15,Jits_Phase_8,146,9999,9999,9999,9999,1789081696
15,15,Jits_Phase_8,147,9999,9999,9999,9999,1789881448
15,15,Jits_Phase_8,148,9999,9999,9999,9999,1790681196
15,15,Jits_Phase_8,149,9999,9999,9999,9999,1791481924
15,15,Jits_Phase_8,150,9999,9999,9999,9999,1792121936
15,15,Jits_Phase_8,151,9999,9999,9999,9999,1792921656
15,15,Jits_Phase_8,152,9999,9999,9999,9999,1793721432
15,15,Jits_Phase_8,153,9999,9999,9999,9999,1794521192
15,15,Jits_Phase_8,154,9999,9999,9999,9999,1795321912
15,15,Jits_Phase_8,155,9999,9999,9999,9999,1796121672
15,15,Jits_Phase_8,156,9999,9999,9999,9999,1796921448
15,15,Jits_Phase_8,157,9999,9999,9999,9999,1797721204
15,15,Jits_Phase_8,158,9999,9999,9999,9999,1798521940
15,15,Jits_Phase_8,159,9999,9999,9999,9999,1799321660
15,15,Jits_Phase_8,160,9999,9999,9999,9999,1800121440
15,15,Jits_Phase_8,161,9999,9999,9999,9999,1800921192
15,15,Jits_Phase_8,162,9999,9999,9999,9999,1801721932
15,15,Jits_Phase_8,163,9999,9999,9999,9999,1802521684
15,15,Jits_Phase_8,164,9999,9999,9999,9999,1803321444
15,15,Jits_Phase_8,165,9999,9999,9999,9999,1804121200
15,15,Jits_Phase_8,166,9999,9999,9999,9999,1804921944
15,15,Jits_Phase_8,167,9999,9999,9999,9999,1805721656
15,15,Jits_Phase_8,168,9999,9999,9999,9999,1806521432
15,15,Jits_Phase_8,169,9999,9999,9999,9999,1807321200
16,19,Jits_Linear_5,0,5,56,103,1815972252
16,19,Jits_Linear_5,1,5,63,98,1815975272
16,19,Jits_Linear_5,2,5,80,127,1815978548
16,19,Jits_Linear_5,0,5,56,103,1816451492
16,19,Jits_Linear_5,1,5,63,98,1816454512
16,19,Jits_Linear_5,2,5,80,127,1816457936
16,19,Jits_Linear_5,0,5,56,103,1816931820
16,19,Jits_Linear_5,1,5,80,127,1816942240
16,19,Jits_Linear_5,2,1,48,20,1816943504
16,19,Jits_Linear_5,3,5,63,98,1816962320
16,19,Jits_Linear_5,0,5,63,98,1817361924
16,19,Jits_Linear_5,1,1,48,35,1817387292
16,19,Jits_Linear_5,2,5,80,127,1817391520
16,19,Jits_Linear_5,3,5,56,103,1817401788
16,19,Jits_Linear_5,0,1,48,38,1817837512
16,19,Jits_Linear_5,1,5,80,127,1817901464
16,19,Jits_Linear_5,2,5,56,103,1817911884
16,19,Jits_Linear_5,3,5,63,98,1817942516
16,19,Jits_Linear_5,0,5,63,98,1818381980
16,19,Jits_Linear_5,1,1,48,40,1818389980
16,19,Jits_Linear_5,2,5,56,103,1818412400
16,19,Jits_Linear_5,3,5,80,127,1818421700
16,19,Jits_Linear_5,0,5,56,103,1818822108
16,19,Jits_Linear_5,1,5,63,98,1818872164
16,19,Jits_Linear_5,2,5,80,127,1818891504
16,19,Jits_Linear_5,3,1,48,40,1818898284
16,19,Jits_Linear_5,0,5,80,127,1819311328
16,19,Jits_Linear_5,1,5,63,98,1819361532
16,19,Jits_Linear_5,2,1,48,39,1819374088
16,19,Jits_Linear_5,3,5,56,103,1819401540
16,19,Jits_Linear_5,0,5,56,103,1819801964
16,19,Jits_Linear_5,1,5,63,98,1819831644
16,19,Jits_Linear_5,2,1,48,38,1819862260
16,19,Jits_Linear_5,3,5,80,127,1819902216
16,19,Jits_Linear_5,0,5,56,103,1820291380
16,19,Jits_Linear_5,1,1,48,30,1820334532
16,19,Jits_Linear_5,2,5,80,127,1820351940
16,19,Jits_Linear_5,3,5,63,98,1820381468
16,19,Jits_Linear_5,0,5,56,103,1820792132
16,19,Jits_Linear_5,1,5,63,98,1820802400
16,19,Jits_Linear_5,2,1,48,34,1820812940
16,19,Jits_Linear_5,3,5,80,127,1820842284
16,19,Jits_Linear_5,0,5,63,98,1821281568
16,19,Jits_Linear_5,1,1,48,27,1821292480
16,19,Jits_Linear_5,2,5,80,127,1821361460
16,19,Jits_Linear_5,3,5,56,103,1821371880
16,19,Jits_Linear_5,0,5,63,98,1821831524
16,19,Jits_Linear_5,1,1,48,37,1821843812
16,19,Jits_Linear_5,2,5,56,103,1821871484
16,19,Jits_Linear_5,3,5,80,127,1821874400
16,19,Jits_Linear_5,0,5,56,103,1822301464
16,19,Jits_Linear_5,1,5,63,98,1822311884
16,19,Jits_Linear_5,2,1,48,44,1822348636
16,19,Jits_Linear_5,3,5,80,127,1822351840
16,19,Jits_Linear_5,0,5,56,103,1822792020
16,19,Jits_Linear_5,1,5,63,98,1822795012
16,19,Jits_Linear_5,2,5,80,127,1822811432
16,19,Jits_Linear_5,3,1,48,38,1822840476
16,19,Jits_Linear_5,0,1,48,36,1823284776
16,19,Jits_Linear_5,1,5,80,127,1823312228
16,19,Jits_Linear_5,2,5,56,103,1823321824
16,19,Jits_Linear_5,3,5,63,98,1823392044
16,19,Jits_Linear_5,0,5,63,98,1823811848
16,19,Jits_Linear_5,1,5,56,103,1823832384
16,19,Jits_Linear_5,2,1,48,36,1823835048
16,19,Jits_Linear_5,3,5,80,127,1823912272
16,19,Jits_Linear_5,0,5,56,103,1824332064
16,19,Jits_Linear_5,1,1,48,39,1824344696
16,19,Jits_Linear_5,2,5,80,127,1824372000
16,19,Jits_Linear_5,3,5,63,98,1824382344
16,19,Jits_Linear_5,0,5,80,127,1824832140
16,19,Jits_Linear_5,1,1,48,37,1824856384
16,19,Jits_Linear_5,2,5,63,98,1824861660
16,19,Jits_Linear_5,3,5,56,103,1824901376
16,19,Jits_Linear_5,0,5,56,103,1825362260
16,19,Jits_Linear_5,1,1,48,33,1825378256
16,19,Jits_Linear_5,2,5,63,98,1825392004
16,19,Jits_Linear_5,3,5,80,127,1825442080
16,19,Jits_Linear_5,0,5,80,127,1825872300
16,19,Jits_Linear_5,1,1,48,37,1825894972
16,19,Jits_Linear_5,2,5,56,103,1825912236
16,19,Jits_Linear_5,3,5,63,98,1825922356
16,19,Jits_Linear_5,0,5,80,127,1826371924
16,19,Jits_Linear_5,1,5,63,98,1826411868
16,19,Jits_Linear_5,2,1,48,34,1826419620
16,19,Jits_Linear_5,3,5,56,103,1826472352
16,19,Jits_Linear_5,0,5,56,103,1826892008
16,19,Jits_Linear_5,1,5,80,127,1826902352
16,19,Jits_Linear_5,2,1,48,37,1826930804
16,19,Jits_Linear_5,3,5,63,98,1826982168
16,19,Jits_Linear_5,0,5,80,127,1827421600
16,19,Jits_Linear_5,1,1,48,37,1827452444
16,19,Jits_Linear_5,2,5,63,98,1827482016
16,19,Jits_Linear_5,3,5,56,103,1827511764
16,19,Jits_Linear_5,0,5,56,103,1827941828
16,19,Jits_Linear_5,1,1,48,41,1827970360
16,19,Jits_Linear_5,2,5,80,127,1828002020
16,19,Jits_Linear_5,3,5,63,98,1828041960
16,19,Jits_Linear_5,0,1,48,38,1828483240
16,19,Jits_Linear_5,1,5,56,103,1828522248
16,19,Jits_Linear_5,2,5,63,98,1828531544
16,19,Jits_Linear_5,3,5,80,127,1828535132
16,19,Jits_Linear_5,0,5,80,127,1829001452
16,19,Jits_Linear_5,1,1,48,39,1829012092
16,19,Jits_Linear_5,2,5,63,98,1829091984
16,19,Jits_Linear_5,3,5,56,103,1829101956
16,19,Jits_Linear_5,0,5,56,103,1829532108
16,19,Jits_Linear_5,1,5,63,98,1829535128
16,19,Jits_Linear_5,2,5,80,127,1829538328
16,19,Jits_Linear_5,3,1,48,40,1829577412
16,19,Jits_Linear_5,0,1,48,39,1830063836
16,19,Jits_Linear_5,1,5,80,127,1830081996
16,19,Jits_Linear_5,2,5,63,98,1830132124
16,19,Jits_Linear_5,3,5,56,103,1830161936
16,19,Jits_Linear_5,0,5,56,103,1830591956
16,19,Jits_Linear_5,1,5,80,127,1830602004
16,19,Jits_Linear_5,2,1,48,30,1830611272
16,19,Jits_Linear_5,3,5,63,98,1830671828
16,19,Jits_Linear_5,0,1,48,34,1831116492
16,19,Jits_Linear_5,1,5,56,103,1831131588
16,19,Jits_Linear_5,2,5,63,98,1831151972
16,19,Jits_Linear_5,3,5,80,127,1831212348
16,19,Jits_Linear_5,0,1,48,34,1831626072
16,19,Jits_Linear_5,1,5,80,127,1831661920
16,19,Jits_Linear_5,2,5,63,98,1831731516
16,19,Jits_Linear_5,3,5,56,103,1831752048
16,19,Jits_Linear_5,0,1,48,37,1832204808
16,19,Jits_Linear_5,1,5,80,127,1832221996
16,19,Jits_Linear_5,2,5,56,103,1832232340
16,19,Jits_Linear_5,3,5,63,98,1832241644
16,19,Jits_Linear_5,0,5,80,127,1832751432
16,19,Jits_Linear_5,1,1,48,33,1832753220
16,19,Jits_Linear_5,2,5,56,103,1832771884
16,19,Jits_Linear_5,3,5,63,98,1832841864
16,19,Jits_Linear_5,0,1,48,36,1833284336
16,19,Jits_Linear_5,1,5,56,103,1833302348
16,19,Jits_Linear_5,2,5,80,127,1833332024
16,19,Jits_Linear_5,3,5,63,98,1833351812
16,19,Jits_Linear_5,0,1,48,37,1833788360
16,19,Jits_Linear_5,1,5,63,98,1833841972
16,19,Jits_Linear_5,2,5,56,103,1833901552
16,19,Jits_Linear_5,3,5,80,127,1833932128
16,19,Jits_Linear_5,0,1,48,41,1834378560
16,19,Jits_Linear_5,1,5,63,98,1834391956
16,19,Jits_Linear_5,2,5,80,127,1834395244
16,19,Jits_Linear_5,3,5,56,103,1834482076
16,19,Jits_Linear_5,0,1,48,36,1834957832
16,19,Jits_Linear_5,1,5,56,103,1834962436
16,19,Jits_Linear_5,2,5,63,98,1834991964
16,19,Jits_Linear_5,3,5,80,127,1835032052
16,19,Jits_Linear_5,0,5,63,98,1835522300
16,19,Jits_Linear_5,1,5,56,103,1835562240
16,19,Jits_Linear_5,2,1,48,37,1835566924
16,19,Jits_Linear_5,3,5,80,127,1835581868
16,19,Jits_Linear_5,0,5,63,98,1836081548
16,19,Jits_Linear_5,1,5,56,103,1836121564
16,19,Jits_Linear_5,2,1,48,40,1836130244
16,19,Jits_Linear_5,3,5,80,127,1836131900
16,19,Jits_Linear_5,0,5,80,127,1836612028
16,19,Jits_Linear_5,1,1,48,36,1836657620
16,19,Jits_Linear_5,2,5,63,98,1836681708
16,19,Jits_Linear_5,3,5,56,103,1836702044
16,19,Jits_Linear_5,0,5,56,103,1837161856
16,19,Jits_Linear_5,1,5,80,127,1837182240
16,19,Jits_Linear_5,2,1,48,38,1837197444
16,19,Jits_Linear_5,3,5,63,98,1837222124
16,19,Jits_Linear_5,0,1,48,35,1837702204
16,19,Jits_Linear_5,1,5,63,98,1837732144
16,19,Jits_Linear_5,2,5,80,127,1837751784
16,19,Jits_Linear_5,3,5,56,103,1837791796
16,19,Jits_Linear_5,0,1,48,35,1838264468
16,19,Jits_Linear_5,1,5,63,98,1838292368
16,19,Jits_Linear_5,2,5,56,103,1838311780
16,19,Jits_Linear_5,3,5,80,127,1838321904
16,19,Jits_Linear_5,0,1,48,36,1838787292
16,19,Jits_Linear_5,1,5,80,127,1838851392
16,19,Jits_Linear_5,2,5,56,103,1838871852
16,19,Jits_Linear_5,3,5,63,98,1838901660
16,19,Jits_Linear_5,0,1,48,30,1839392180
16,19,Jits_Linear_5,1,5,56,103,1839491688
16,19,Jits_Linear_5,2,5,80,127,1839494756
16,19,Jits_Linear_5,3,5,63,98,1839511876
16,19,Jits_Linear_5,0,5,63,98,1839982024
16,19,Jits_Linear_5,1,5,56,103,1840011628
16,19,Jits_Linear_5,2,1,48,38,1840063316
16,19,Jits_Linear_5,3,5,80,127,1840072184
16,19,Jits_Linear_5,0,1,48,35,1840551388
16,19,Jits_Linear_5,1,5,63,98,1840632032
16,19,Jits_Linear_5,2,5,56,103,1840642300
16,19,Jits_Linear_5,3,5,80,127,1840652252
16,19,Jits_Linear_5,0,5,56,103,1841152480
16,19,Jits_Linear_5,1,5,80,127,1841182008
16,19,Jits_Linear_5,2,5,63,98,1841192724
16,19,Jits_Linear_5,3,1,48,42,1841198240
16,19,Jits_Linear_5,0,5,63,98,1841761696
16,19,Jits_Linear_5,1,5,56,103,1841771816
16,19,Jits_Linear_5,2,1,48,40,1841772856
16,19,Jits_Linear_5,3,5,80,127,1841792344
16,19,Jits_Linear_5,4,1,48,28,1841818464
16,19,Jits_Linear_5,0,5,56,103,1842262480
16,19,Jits_Linear_5,1,5,63,98,1842321776
16,19,Jits_Linear_5,2,5,80,127,1842325140
16,19,Jits_Linear_5,3,1,48,35,1842335380
16,19,Jits_Linear_5,0,5,80,127,1842861692
16,19,Jits_Linear_5,1,5,56,103,1842871888
16,19,Jits_Linear_5,2,1,48,39,1842899796
16,19,Jits_Linear_5,3,5,63,98,1842942760
16,19,Jits_Linear_5,0,5,80,127,1843431896
16,19,Jits_Linear_5,1,1,48,41,1843449840
16,19,Jits_Linear_5,2,1,48,30,1843499368
16,19,Jits_Linear_5,3,5,56,103,1843501556
16,19,Jits_Linear_5,4,5,63,98,1843511752
16,19,Jits_Linear_5,0,1,48,40,1844042804
16,19,Jits_Linear_5,1,5,63,98,1844052268
16,19,Jits_Linear_5,2,5,56,103,1844061792
16,19,Jits_Linear_5,3,5,80,127,1844082028
16,19,Jits_Linear_5,0,5,80,127,1844581856
16,19,Jits_Linear_5,1,1,48,37,1844635268
16,19,Jits_Linear_5,2,5,63,98,1844642120
16,19,Jits_Linear_5,3,5,56,103,1844681984
16,19,Jits_Linear_5,0,5,56,103,1845211648
16,19,Jits_Linear_5,1,1,48,40,1845213512
16,19,Jits_Linear_5,2,5,63,98,1845221616
16,19,Jits_Linear_5,3,5,80,127,1845261556
16,19,Jits_Linear_5,0,5,56,103,1845762668
16,19,Jits_Linear_5,1,1,48,42,1845790000
16,19,Jits_Linear_5,2,5,80,127,1845792040
16,19,Jits_Linear_5,3,5,63,98,1845842244
16,19,Jits_Linear_5,0,1,48,37,1846364228
16,19,Jits_Linear_5,1,5,56,103,1846392124
16,19,Jits_Linear_5,2,5,63,98,1846432236
16,19,Jits_Linear_5,3,5,80,127,1846435524
16,19,Jits_Linear_5,0,1,48,37,1846954808
16,19,Jits_Linear_5,1,5,56,103,1846982036
16,19,Jits_Linear_5,2,5,63,98,1846992384
16,19,Jits_Linear_5,3,5,80,127,1847011572
16,19,Jits_Linear_5,0,1,48,40,1847531384
16,19,Jits_Linear_5,1,5,56,103,1847532752
16,19,Jits_Linear_5,2,5,80,127,1847535660
16,19,Jits_Linear_5,3,5,63,98,1847571856
16,19,Jits_Linear_5,0,1,48,38,1848116144
16,19,Jits_Linear_5,1,5,63,98,1848161732
16,19,Jits_Linear_5,2,5,56,103,1848192308
16,19,Jits_Linear_5,3,5,80,127,1848211956
16,19,Jits_Linear_5,0,1,48,39,1848699588
16,19,Jits_Linear_5,1,5,80,127,1848731944
16,19,Jits_Linear_5,2,5,56,103,1848742436
16,19,Jits_Linear_5,3,1,48,30,1848745992
16,19,Jits_Linear_5,4,5,63,98,1848751640
16,19,Jits_Linear_5,0,1,48,41,1849318620
16,19,Jits_Linear_5,1,5,56,103,1849332068
16,19,Jits_Linear_5,2,1,48,27,1849368656
16,19,Jits_Linear_5,3,5,80,127,1849371912
16,19,Jits_Linear_5,4,5,63,98,1849401664
16,19,Jits_Linear_5,0,1,48,43,1849889828
16,19,Jits_Linear_5,1,1,48,33,1849932672
16,19,Jits_Linear_5,2,5,63,98,1849942364
16,19,Jits_Linear_5,3,5,80,127,1849951736
16,19,Jits_Linear_5,4,5,56,103,1849961784
16,19,Jits_Linear_5,0,1,48,38,1850496252
16,19,Jits_Linear_5,1,5,56,103,1850521932
16,19,Jits_Linear_5,2,5,63,98,1850591544
16,19,Jits_Linear_5,3,5,80,127,1850601724
16,19,Jits_Linear_5,0,1,48,36,1851088112
16,19,Jits_Linear_5,1,5,80,127,1851132128
16,19,Jits_Linear_5,2,5,56,103,1851141572
16,19,Jits_Linear_5,3,5,63,98,1851191836
16,19,Jits_Linear_5,0,1,48,36,1851677248
16,19,Jits_Linear_5,1,5,80,127,1851751908
16,19,Jits_Linear_5,2,5,56,103,1851812164
16,19,Jits_Linear_5,3,5,63,98,1851841840
16,19,Jits_Linear_5,0,1,48,37,1852327852
16,19,Jits_Linear_5,1,5,56,103,1852362052
16,19,Jits_Linear_5,2,5,80,127,1852365196
16,19,Jits_Linear_5,3,5,63,98,1852402068
16,19,Jits_Linear_5,0,1,48,34,1852963740
16,19,Jits_Linear_5,1,5,56,103,1853002060
16,19,Jits_Linear_5,2,5,63,98,1853031736
16,19,Jits_Linear_5,3,5,80,127,1853042008
16,19,Jits_Linear_5,0,1,48,36,1853572968
16,19,Jits_Linear_5,1,5,63,98,1853621720
16,19,Jits_Linear_5,2,5,80,127,1853631844
16,19,Jits_Linear_5,3,5,56,103,1853641964
16,19,Jits_Linear_5,0,5,80,127,1854181724
16,19,Jits_Linear_5,1,1,48,37,1854201332
16,19,Jits_Linear_5,2,5,56,103,1854231996
16,19,Jits_Linear_5,3,5,63,98,1854234912
16,19,Jits_Linear_5,0,5,56,103,1854831932
16,19,Jits_Linear_5,1,1,48,33,1854837664
16,19,Jits_Linear_5,2,5,80,127,1854851636
16,19,Jits_Linear_5,3,5,63,98,1854861708
16,19,Jits_Linear_5,0,5,63,98,1855431976
16,19,Jits_Linear_5,1,1,48,40,1855454124
16,19,Jits_Linear_5,2,5,56,103,1855461724
16,19,Jits_Linear_5,3,5,80,127,1855482332
16,19,Jits_Linear_5,0,1,48,36,1856039428
16,19,Jits_Linear_5,1,5,56,103,1856061796
16,19,Jits_Linear_5,2,5,80,127,1856071916
16,19,Jits_Linear_5,3,5,63,98,1856141608
16,19,Jits_Linear_5,0,5,63,98,1856672096
16,19,Jits_Linear_5,1,1,48,37,1856706376
16,19,Jits_Linear_5,2,5,80,127,1856712028
16,19,Jits_Linear_5,3,5,56,103,1856751892
16,19,Jits_Linear_5,0,1,48,29,1857283308
16,19,Jits_Linear_5,1,5,56,103,1857312104
16,19,Jits_Linear_5,2,5,63,98,1857322524
16,19,Jits_Linear_5,3,5,80,127,1857341712
16,19,Jits_Linear_5,0,1,48,38,1857854380
16,19,Jits_Linear_5,1,5,63,98,1857981724
16,19,Jits_Linear_5,2,5,80,127,1858002480
16,19,Jits_Linear_5,3,5,56,103,1858021744
16,19,Jits_Linear_5,0,1,48,41,1858546048
16,19,Jits_Linear_5,1,5,56,103,1858552072
16,19,Jits_Linear_5,2,5,80,127,1858632172
16,19,Jits_Linear_5,3,5,63,98,1858642352
16,19,Jits_Linear_5,0,5,80,127,1859221944
16,19,Jits_Linear_5,1,5,63,98,1859232584
16,19,Jits_Linear_5,2,1,48,44,1859234228
16,19,Jits_Linear_5,3,5,56,103,1859261736
16,19,Jits_Linear_5,0,5,63,98,1859811700
16,19,Jits_Linear_5,1,1,48,39,1859825452
16,19,Jits_Linear_5,2,5,80,127,1859851636
16,19,Jits_Linear_5,3,5,56,103,1859912100
16,19,Jits_Linear_5,0,1,48,45,1860410928
16,19,Jits_Linear_5,1,5,63,98,1860451860
16,19,Jits_Linear_5,2,1,48,34,1860455860
16,19,Jits_Linear_5,3,5,56,103,1860501844
16,19,Jits_Linear_5,4,5,80,127,1860531520
16,19,Jits_Linear_5,0,1,48,36,1861050940
16,19,Jits_Linear_5,1,5,80,127,1861101836
16,19,Jits_Linear_5,2,5,63,98,1861112036
16,19,Jits_Linear_5,3,5,56,103,1861181848
16,19,Jits_Linear_5,0,1,48,35,1861735676
16,19,Jits_Linear_5,1,5,80,127,1861811556
16,19,Jits_Linear_5,2,5,56,103,1861821824
16,19,Jits_Linear_5,3,5,63,98,1861824892
16,19,Jits_Linear_5,0,5,56,103,1862392380
16,19,Jits_Linear_5,1,5,80,127,1862411644
16,19,Jits_Linear_5,2,1,48,33,1862417904
16,19,Jits_Linear_5,3,5,63,98,1862421836
16,19,Jits_Linear_5,0,1,48,28,1863021444
16,19,Jits_Linear_5,1,5,63,98,1863042672
16,19,Jits_Linear_5,2,5,56,103,1863082488
16,19,Jits_Linear_5,3,5,80,127,1863101824
16,19,Jits_Linear_5,0,1,48,19,1863628728
16,19,Jits_Linear_5,1,5,63,98,1863692080
16,19,Jits_Linear_5,2,5,56,103,1863752012
16,19,Jits_Linear_5,3,5,80,127,1863755148
16,19,Jits_Linear_5,0,5,56,103,1864301832
16,19,Jits_Linear_5,1,1,48,35,1864311620
16,19,Jits_Linear_5,2,5,80,127,1864322508
16,19,Jits_Linear_5,3,5,63,98,1864362620
16,19,Jits_Linear_5,0,1,48,34,1864963424
16,19,Jits_Linear_5,1,5,56,103,1864981884
16,19,Jits_Linear_5,2,5,63,98,1865002492
16,19,Jits_Linear_5,3,5,80,127,1865011640
16,19,Jits_Linear_5,0,1,48,30,1865545440
16,19,Jits_Linear_5,1,5,80,127,1865602636
16,19,Jits_Linear_5,2,5,56,103,1865632040
16,19,Jits_Linear_5,3,5,63,98,1865672040
16,19,Jits_Linear_5,0,1,48,28,1866230740
16,19,Jits_Linear_5,1,5,80,127,1866261784
16,19,Jits_Linear_5,2,1,48,23,1866278292
16,19,Jits_Linear_5,3,5,56,103,1866282444
16,19,Jits_Linear_5,4,5,63,98,1866341712
16,19,Jits_Linear_5,0,1,48,30,1866888696
16,19,Jits_Linear_5,1,5,56,103,1866922544
16,19,Jits_Linear_5,2,1,48,24,1866934940
16,19,Jits_Linear_5,3,5,80,127,1866941860
16,19,Jits_Linear_5,4,5,63,98,1867002180
16,19,Jits_Linear_5,0,5,80,127,1867562460
16,19,Jits_Linear_5,1,5,56,103,1867571612
16,19,Jits_Linear_5,2,5,63,98,1867611476
16,19,Jits_Linear_5,3,1,48,29,1867621496
16,19,Jits_Linear_5,0,1,48,24,1868206516
16,19,Jits_Linear_5,1,5,63,98,1868221836
16,19,Jits_Linear_5,2,5,56,103,1868261700
16,19,Jits_Linear_5,3,5,80,127,1868264840
16,19,Jits_Linear_5,0,1,48,24,1868826580
16,19,Jits_Linear_5,1,5,63,98,1868901844
16,19,Jits_Linear_5,2,5,80,127,1868941720
16,19,Jits_Linear_5,3,5,56,103,1868972444
16,19,Jits_Linear_5,0,1,48,29,1869490084
16,19,Jits_Linear_5,1,5,56,103,1869551992
16,19,Jits_Linear_5,2,5,63,98,1869562488
16,19,Jits_Linear_5,3,5,80,127,1869591776
16,19,Jits_Linear_5,0,1,48,29,1870182308
16,19,Jits_Linear_5,1,5,80,127,1870211632
16,19,Jits_Linear_5,2,5,63,98,1870282076
16,19,Jits_Linear_5,3,5,56,103,1870292568
16,19,Jits_Linear_5,0,1,48,33,1870862960
16,19,Jits_Linear_5,1,5,63,98,1870882092
16,19,Jits_Linear_5,2,5,56,103,1870951704
16,19,Jits_Linear_5,3,5,80,127,1870961884
16,19,Jits_Linear_5,0,5,63,98,1871551736
16,19,Jits_Linear_5,1,1,48,33,1871566536
16,19,Jits_Linear_5,2,5,56,103,1871572484
16,19,Jits_Linear_5,3,5,80,127,1871612572
16,19,Jits_Linear_5,0,1,48,35,1872222952
16,19,Jits_Linear_5,1,5,56,103,1872231824
16,19,Jits_Linear_5,2,5,63,98,1872241944
16,19,Jits_Linear_5,3,5,80,127,1872322348
16,19,Jits_Linear_5,0,1,48,26,1872858712
16,19,Jits_Linear_5,1,5,63,98,1872892464
16,19,Jits_Linear_5,2,5,56,103,1872921916
16,19,Jits_Linear_5,3,5,80,127,1872961916
16,19,Jits_Linear_5,0,1,48,24,1873510952
16,19,Jits_Linear_5,1,5,56,103,1873561948
16,19,Jits_Linear_5,2,5,63,98,1873601888
16,19,Jits_Linear_5,3,5,80,127,1873641812
16,19,Jits_Linear_5,0,1,48,24,1874219324
16,19,Jits_Linear_5,1,5,80,127,1874241820
16,19,Jits_Linear_5,2,5,56,103,1874321704
16,19,Jits_Linear_5,3,5,63,98,1874331976
16,19,Jits_Linear_5,0,1,48,26,1874918460
16,19,Jits_Linear_5,1,5,56,103,1874961724
16,19,Jits_Linear_5,2,5,63,98,1874964792
16,19,Jits_Linear_5,3,5,80,127,1874972072
16,19,Jits_Linear_5,0,1,48,26,1875602928
16,19,Jits_Linear_5,1,5,56,103,1875662144
16,19,Jits_Linear_5,2,5,63,98,1875681632
16,19,Jits_Linear_5,3,5,80,127,1875691900
16,19,Jits_Linear_5,0,1,48,30,1876289084
16,19,Jits_Linear_5,1,5,63,98,1876302456
16,19,Jits_Linear_5,2,5,80,127,1876312576
16,19,Jits_Linear_5,3,5,56,103,1876331916
16,19,Jits_Linear_5,0,1,48,31,1876944484
16,19,Jits_Linear_5,1,5,63,98,1876992468
16,19,Jits_Linear_5,2,5,56,103,1877072400
16,19,Jits_Linear_5,3,5,80,127,1877075540
16,19,Jits_Linear_5,0,1,48,30,1877657560
16,19,Jits_Linear_5,1,5,63,98,1877681576
16,19,Jits_Linear_5,2,5,56,103,1877701888
16,19,Jits_Linear_5,3,5,80,127,1877731636
16,19,Jits_Linear_5,0,1,48,26,1878344860
16,19,Jits_Linear_5,1,5,56,103,1878371636
16,19,Jits_Linear_5,2,5,63,98,1878392396
16,19,Jits_Linear_5,3,5,80,127,1878402368
16,19,Jits_Linear_5,0,1,48,24,1879038756
16,19,Jits_Linear_5,1,5,56,103,1879091616
16,19,Jits_Linear_5,2,5,63,98,1879122564
16,19,Jits_Linear_5,3,5,80,127,1879125628
16,19,Jits_Linear_5,0,5,56,103,1879731652
16,19,Jits_Linear_5,1,1,48,24,1879734172
16,19,Jits_Linear_5,2,5,63,98,1879771440
16,19,Jits_Linear_5,3,5,80,127,1879831816
16,19,Jits_Linear_5,0,1,48,28,1880432560
16,19,Jits_Linear_5,1,5,56,103,1880442476
16,19,Jits_Linear_5,2,5,63,98,1880451404
16,19,Jits_Linear_5,3,5,80,127,1880511744
16,19,Jits_Linear_5,0,5,56,103,1881141564
16,19,Jits_Linear_5,1,1,48,29,1881142528
16,19,Jits_Linear_5,2,5,80,127,1881162240
16,19,Jits_Linear_5,3,5,63,98,1881191764
16,19,Jits_Linear_5,0,1,48,23,1881821812
16,19,Jits_Linear_5,1,5,80,127,1881842288
16,19,Jits_Linear_5,2,5,56,103,1881852488
16,19,Jits_Linear_5,3,5,63,98,1881871676
16,19,Jits_Linear_5,0,1,48,26,1882507616
16,19,Jits_Linear_5,1,5,63,98,1882532300
16,19,Jits_Linear_5,2,5,80,127,1882612160
16,19,Jits_Linear_5,3,5,56,103,1882622428
16,19,Jits_Linear_5,0,1,48,22,1883202480
16,19,Jits_Linear_5,1,5,80,127,1883292220
16,19,Jits_Linear_5,2,5,56,103,1883311388
16,19,Jits_Linear_5,3,5,63,98,1883314532
16,19,Jits_Linear_5,0,5,63,98,1883972092
16,19,Jits_Linear_5,1,5,80,127,1883975308
16,19,Jits_Linear_5,2,1,48,28,1883997832
16,19,Jits_Linear_5,3,5,56,103,1884032476
16,19,Jits_Linear_5,0,5,56,103,1884662248
16,19,Jits_Linear_5,1,5,80,127,1884672444
16,19,Jits_Linear_5,2,5,63,98,1884712460
16,19,Jits_Linear_5,3,1,48,31,1884713648
16,19,Jits_Linear_5,0,5,56,103,1885352276
16,19,Jits_Linear_5,1,1,48,30,1885367604
16,19,Jits_Linear_5,2,5,63,98,1885411840
16,19,Jits_Linear_5,3,5,80,127,1885422108
16,19,Jits_Linear_5,0,1,48,26,1886032728
16,19,Jits_Linear_5,1,5,63,98,1886072464
16,19,Jits_Linear_5,2,5,80,127,1886112284
16,19,Jits_Linear_5,3,5,56,103,1886152428
16,19,Jits_Linear_5,0,5,56,103,1886781668
16,19,Jits_Linear_5,1,1,48,28,1886843004
16,19,Jits_Linear_5,2,5,63,98,1886861704
16,19,Jits_Linear_5,3,5,80,127,1886865140
16,19,Jits_Linear_5,0,1,48,29,1887519216
16,19,Jits_Linear_5,1,5,80,127,1887551996
16,19,Jits_Linear_5,2,5,56,103,1887581596
16,19,Jits_Linear_5,3,5,63,98,1887584588
16,19,Jits_Linear_5,0,5,56,103,1888231816
16,19,Jits_Linear_5,1,1,48,24,1888251448
16,19,Jits_Linear_5,2,5,80,127,1888253020
16,19,Jits_Linear_5,3,5,63,98,1888292208
16,19,Jits_Linear_5,0,1,48,28,1888921736
16,19,Jits_Linear_5,1,5,80,127,1888932172
16,19,Jits_Linear_5,2,5,63,98,1888951808
16,19,Jits_Linear_5,3,5,56,103,1889012348
16,19,Jits_Linear_5,0,5,63,98,1889662468
16,19,Jits_Linear_5,1,5,56,103,1889671544
16,19,Jits_Linear_5,2,1,48,28,1889715296
16,19,Jits_Linear_5,3,5,80,127,1889721616
16,19,Jits_Linear_5,0,5,56,103,1890372032
16,19,Jits_Linear_5,1,5,63,98,1890392420
16,19,Jits_Linear_5,2,5,80,127,1890401568
16,19,Jits_Linear_5,3,1,48,28,1890421620
16,19,Jits_Linear_5,0,1,48,25,1891041192
16,19,Jits_Linear_5,1,5,56,103,1891092244
16,19,Jits_Linear_5,2,5,63,98,1891095228
16,19,Jits_Linear_5,3,5,80,127,1891112324
16,19,Jits_Linear_5,0,1,48,25,1891717368
16,19,Jits_Linear_5,1,5,63,98,1891861868
16,19,Jits_Linear_5,2,5,56,103,1891891544
16,19,Jits_Linear_5,3,5,80,127,1891922268
16,19,Jits_Linear_5,0,1,48,32,1892547284
16,19,Jits_Linear_5,1,5,80,127,1892552188
16,19,Jits_Linear_5,2,5,56,103,1892642324
16,19,Jits_Linear_5,3,5,63,98,1892645316
16,19,Jits_Linear_5,0,5,56,103,1893282352
16,19,Jits_Linear_5,1,5,80,127,1893285268
16,19,Jits_Linear_5,2,1,48,27,1893332748
16,19,Jits_Linear_5,3,5,63,98,1893362140
16,19,Jits_Linear_5,0,1,48,32,1893974852
16,19,Jits_Linear_5,1,5,80,127,1894012420
16,19,Jits_Linear_5,2,5,63,98,1894071628
16,19,Jits_Linear_5,3,5,56,103,1894102352
16,19,Jits_Linear_5,0,5,63,98,1894742376
16,19,Jits_Linear_5,1,1,48,26,1894745720
16,19,Jits_Linear_5,2,5,80,127,1894751520
16,19,Jits_Linear_5,3,5,56,103,1894822276
16,19,Jits_Linear_5,0,5,56,103,1895492172
16,19,Jits_Linear_5,1,1,48,40,1895521924
16,19,Jits_Linear_5,2,5,80,127,1895523264
16,19,Jits_Linear_5,3,5,63,98,1895571772
16,19,Jits_Linear_5,0,1,48,36,1896200676
16,19,Jits_Linear_5,1,5,63,98,1896272324
16,19,Jits_Linear_5,2,5,56,103,1896302132
16,19,Jits_Linear_5,3,5,80,127,1896305272
16,19,Jits_Linear_5,0,1,48,40,1896954428
16,19,Jits_Linear_5,1,1,48,34,1896999504
16,19,Jits_Linear_5,2,5,63,98,1897011604
16,19,Jits_Linear_5,3,5,80,127,1897032212
16,19,Jits_Linear_5,4,5,56,103,1897042264
16,19,Jits_Linear_5,0,1,48,41,1897705996
16,19,Jits_Linear_5,1,1,48,36,1897750116
16,19,Jits_Linear_5,2,5,56,103,1897762196
16,19,Jits_Linear_5,3,5,63,98,1897765116
16,19,Jits_Linear_5,4,5,80,127,1897781760
16,19,Jits_Linear_5,0,1,48,35,1898446912
16,19,Jits_Linear_5,1,5,56,103,1898461480
16,19,Jits_Linear_5,2,5,63,98,1898471680
16,19,Jits_Linear_5,3,1,48,31,1898488412
16,19,Jits_Linear_5,4,5,80,127,1898501484
16,19,Jits_Linear_5,0,1,48,39,1899168884
16,19,Jits_Linear_5,1,1,48,34,1899220872
16,19,Jits_Linear_5,2,5,63,98,1899231536
16,19,Jits_Linear_5,3,5,80,127,1899251996
16,19,Jits_Linear_5,4,5,56,103,1899292308
16,19,Jits_Linear_5,0,1,48,34,1899966688
16,19,Jits_Linear_5,1,5,56,103,1900012048
16,19,Jits_Linear_5,2,1,48,29,1900014048
16,19,Jits_Linear_5,3,5,63,98,1900052040
16,19,Jits_Linear_5,4,5,80,127,1900055404
16,19,Jits_Linear_5,0,5,80,127,1900702112
16,19,Jits_Linear_5,1,5,56,103,1900741976
16,19,Jits_Linear_5,2,1,48,26,1900752072
16,19,Jits_Linear_5,3,5,63,98,1900792172
16,19,Jits_Linear_5,4,1,48,23,1900797592
16,19,Jits_Linear_5,0,1,48,32,1901483036
16,19,Jits_Linear_5,1,5,56,103,1901511980
16,19,Jits_Linear_5,2,5,80,127,1901522328
16,19,Jits_Linear_5,3,5,63,98,1901552076
16,19,Jits_Linear_5,0,5,56,103,1902211344
16,19,Jits_Linear_5,1,5,80,127,1902252356
16,19,Jits_Linear_5,2,1,48,35,1902255400
16,19,Jits_Linear_5,3,5,63,98,1902301504
16,19,Jits_Linear_5,0,1,48,35,1902923356
16,19,Jits_Linear_5,1,1,48,26,1902970100
16,19,Jits_Linear_5,2,5,56,103,1902972360
16,19,Jits_Linear_5,3,5,80,127,1903012328
16,19,Jits_Linear_5,4,5,63,98,1903062368
16,19,Jits_Linear_5,0,1,48,31,1903709080
16,19,Jits_Linear_5,1,5,80,127,1903722004
16,19,Jits_Linear_5,2,5,63,98,1903802260
16,19,Jits_Linear_5,3,5,56,103,1903812012
16,19,Jits_Linear_5,0,1,48,28,1904502424
16,19,Jits_Linear_5,1,5,80,127,1904532068
16,19,Jits_Linear_5,2,5,56,103,1904542188
16,19,Jits_Linear_5,3,5,63,98,1904561380
16,19,Jits_Linear_5,0,1,48,28,1905209272
16,19,Jits_Linear_5,1,5,63,98,1905262060
16,19,Jits_Linear_5,2,5,56,103,1905331680
16,19,Jits_Linear_5,3,5,80,127,1905334596
16,19,Jits_Linear_5,0,1,48,30,1906020008
16,19,Jits_Linear_5,1,5,80,127,1906021672
16,19,Jits_Linear_5,2,5,63,98,1906071900
16,19,Jits_Linear_5,3,5,56,103,1906112136
16,19,Jits_Linear_5,0,1,48,26,1906794592
16,19,Jits_Linear_5,1,5,63,98,1906831736
16,19,Jits_Linear_5,2,5,56,103,1906871600
16,19,Jits_Linear_5,3,5,80,127,1906882092
16,19,Jits_Linear_5,0,1,48,19,1907513380
16,19,Jits_Linear_5,1,5,63,98,1907591552
16,19,Jits_Linear_5,2,5,56,103,1907612144
16,19,Jits_Linear_5,3,5,80,127,1907631412
16,19,Jits_Linear_5,0,5,80,127,1908321776
16,19,Jits_Linear_5,1,5,56,103,1908331972
16,19,Jits_Linear_5,2,1,48,23,1908337184
16,19,Jits_Linear_5,3,5,63,98,1908352428
16,19,Jits_Linear_5,0,1,48,23,1909070508
16,19,Jits_Linear_5,1,5,63,98,1909122304
16,19,Jits_Linear_5,2,5,56,103,1909162268
16,19,Jits_Linear_5,3,5,80,127,1909192228
16,19,Jits_Linear_5,0,1,48,23,1909874700
16,19,Jits_Linear_5,1,5,56,103,1909901648
16,19,Jits_Linear_5,2,5,63,98,1909932300
16,19,Jits_Linear_5,3,5,80,127,1909962124
16,19,Jits_Linear_5,0,5,80,127,1910652404
16,19,Jits_Linear_5,1,5,56,103,1910722036
16,19,Jits_Linear_5,2,5,63,98,1910725028
16,19,Jits_Linear_5,0,1,48,28,1911432404
16,19,Jits_Linear_5,1,5,56,103,1911441892
16,19,Jits_Linear_5,2,5,63,98,1911492100
16,19,Jits_Linear_5,3,5,80,127,1911521628
16,19,Jits_Linear_5,0,5,63,98,1912201812
16,19,Jits_Linear_5,1,1,48,32,1912204140
16,19,Jits_Linear_5,2,5,80,127,1912206212
16,19,Jits_Linear_5,3,5,56,103,1912261900
16,19,Jits_Linear_5,0,1,48,32,1912975984
16,19,Jits_Linear_5,1,5,56,103,1913011604
16,19,Jits_Linear_5,2,5,80,127,1913021952
16,19,Jits_Linear_5,3,5,63,98,1913072812
16,19,Jits_Linear_5,0,1,48,30,1913722992
16,19,Jits_Linear_5,1,5,63,98,1913772416
16,19,Jits_Linear_5,2,5,56,103,1913781716
16,19,Jits_Linear_5,3,5,80,127,1913812288
16,19,Jits_Linear_5,0,1,48,35,1914489328
16,19,Jits_Linear_5,1,1,48,32,1914527396
16,19,Jits_Linear_5,2,5,63,98,1914591568
16,19,Jits_Linear_5,3,5,80,127,1914595004
16,19,Jits_Linear_5,4,5,56,103,1914622288
16,19,Jits_Linear_5,0,1,48,36,1915243216
16,19,Jits_Linear_5,1,5,63,98,1915401720
16,19,Jits_Linear_5,2,5,56,103,1915422104
16,19,Jits_Linear_5,3,5,80,127,1915425168
16,19,Jits_Linear_5,0,1,48,35,1916112464
16,19,Jits_Linear_5,1,5,63,98,1916152124
16,19,Jits_Linear_5,2,5,56,103,1916221944
16,19,Jits_Linear_5,3,5,80,127,1916242256
16,19,Jits_Linear_5,0,1,48,34,1916885852
16,19,Jits_Linear_5,1,5,56,103,1916931296
16,19,Jits_Linear_5,2,5,63,98,1916941936
16,19,Jits_Linear_5,3,5,80,127,1917031832
16,19,Jits_Linear_5,0,1,48,33,1917668912
16,19,Jits_Linear_5,1,5,56,103,1917741404
16,19,Jits_Linear_5,2,5,80,127,1917782304
16,19,Jits_Linear_5,3,5,63,98,1917791748
16,19,Jits_Linear_5,0,1,48,34,1918449728
16,19,Jits_Linear_5,1,5,56,103,1918561912
16,19,Jits_Linear_5,2,5,63,98,1918592264
16,19,Jits_Linear_5,3,5,80,127,1918622112
16,19,Jits_Linear_5,0,1,48,34,1919302864
16,19,Jits_Linear_5,1,5,80,127,1919321544
16,19,Jits_Linear_5,2,5,63,98,1919362528
16,19,Jits_Linear_5,3,5,56,103,1919381968
16,19,Jits_Linear_5,0,1,48,35,1920097304
16,19,Jits_Linear_5,1,5,56,103,1920162168
16,19,Jits_Linear_5,2,5,80,127,1920181584
16,19,Jits_Linear_5,3,5,63,98,1920202028
16,19,Jits_Linear_5,0,1,48,35,1920891164
16,19,Jits_Linear_5,1,5,63,98,1920932264
16,19,Jits_Linear_5,2,5,56,103,1920941564
16,19,Jits_Linear_5,3,5,80,127,1921002016
16,19,Jits_Linear_5,0,1,48,31,1921706156
16,19,Jits_Linear_5,1,5,56,103,1921742076
16,19,Jits_Linear_5,2,5,63,98,1921812044
16,19,Jits_Linear_5,3,5,80,127,1921832280
16,19,Jits_Linear_5,0,1,48,26,1922494380
16,19,Jits_Linear_5,1,5,56,103,1922552104
16,19,Jits_Linear_5,2,5,63,98,1922581932
16,19,Jits_Linear_5,3,5,80,127,1922622004
16,19,Jits_Linear_5,0,1,48,29,1923291984
16,19,Jits_Linear_5,1,5,63,98,1923351876
16,19,Jits_Linear_5,2,5,56,103,1923401992
16,19,Jits_Linear_5,3,5,80,127,1923412264
16,19,Jits_Linear_5,0,1,48,33,1924169064
16,19,Jits_Linear_5,1,5,56,103,1924201920
16,19,Jits_Linear_5,2,5,63,98,1924252000
16,19,Jits_Linear_5,3,5,80,127,1924262196
16,19,Jits_Linear_5,0,1,48,29,1924974240
16,19,Jits_Linear_5,1,5,56,103,1924982060
16,19,Jits_Linear_5,2,5,63,98,1924992332
16,19,Jits_Linear_5,3,5,80,127,1925072140
16,19,Jits_Linear_5,0,9999,9999,9999,9999,1816209516
16,19,Jits_Linear_5,1,9999,9999,9999,9999,1816689728
16,19,Jits_Linear_5,2,9999,9999,9999,9999,1817170040
16,19,Jits_Linear_5,3,9999,9999,9999,9999,1817649212
16,19,Jits_Linear_5,4,9999,9999,9999,9999,1818129500
16,19,Jits_Linear_5,5,9999,9999,9999,9999,1818619976
16,19,Jits_Linear_5,6,9999,9999,9999,9999,1819109476
16,19,Jits_Linear_5,7,9999,9999,9999,9999,1819599964
16,19,Jits_Linear_5,8,9999,9999,9999,9999,1820089404
16,19,Jits_Linear_5,9,9999,9999,9999,9999,1820579968
16,19,Jits_Linear_5,10,9999,9999,9999,9999,1821079668
16,19,Jits_Linear_5,11,9999,9999,9999,9999,1821579348
16,19,Jits_Linear_5,12,9999,9999,9999,9999,1822080072
16,19,Jits_Linear_5,13,9999,9999,9999,9999,1822590020
16,19,Jits_Linear_5,14,9999,9999,9999,9999,1823089784
16,19,Jits_Linear_5,15,9999,9999,9999,9999,1823599676
16,19,Jits_Linear_5,16,9999,9999,9999,9999,1824109628
16,19,Jits_Linear_5,17,9999,9999,9999,9999,1824619580
16,19,Jits_Linear_5,18,9999,9999,9999,9999,1825129544
16,19,Jits_Linear_5,19,9999,9999,9999,9999,1825639512
16,19,Jits_Linear_5,20,9999,9999,9999,9999,1826159740
16,19,Jits_Linear_5,21,9999,9999,9999,9999,1826679892
16,19,Jits_Linear_5,22,9999,9999,9999,9999,1827200120
16,19,Jits_Linear_5,23,9999,9999,9999,9999,1827729520
16,19,Jits_Linear_5,24,9999,9999,9999,9999,1828249676
16,19,Jits_Linear_5,25,9999,9999,9999,9999,1828779116
16,19,Jits_Linear_5,26,9999,9999,9999,9999,1829309524
16,19,Jits_Linear_5,27,9999,9999,9999,9999,1829839992
16,19,Jits_Linear_5,28,9999,9999,9999,9999,1830369368
16,19,Jits_Linear_5,29,9999,9999,9999,9999,1830899772
16,19,Jits_Linear_5,30,9999,9999,9999,9999,1831439484
16,19,Jits_Linear_5,31,9999,9999,9999,9999,1831979108
16,19,Jits_Linear_5,32,9999,9999,9999,9999,1832519780
16,19,Jits_Linear_5,33,9999,9999,9999,9999,1833059448
16,19,Jits_Linear_5,34,9999,9999,9999,9999,1833600060
16,19,Jits_Linear_5,35,9999,9999,9999,9999,1834159188
16,19,Jits_Linear_5,36,9999,9999,9999,9999,1834710108
16,19,Jits_Linear_5,37,9999,9999,9999,9999,1835269212
16,19,Jits_Linear_5,38,9999,9999,9999,9999,1835819100
16,19,Jits_Linear_5,39,9999,9999,9999,9999,1836370036
16,19,Jits_Linear_5,40,9999,9999,9999,9999,1836929136
16,19,Jits_Linear_5,41,9999,9999,9999,9999,1837489248
16,19,Jits_Linear_5,42,9999,9999,9999,9999,1838049408
16,19,Jits_Linear_5,43,9999,9999,9999,9999,1838609476
16,19,Jits_Linear_5,44,9999,9999,9999,9999,1839169624
16,19,Jits_Linear_5,45,9999,9999,9999,9999,1839740032
16,19,Jits_Linear_5,46,9999,9999,9999,9999,1840309348
16,19,Jits_Linear_5,47,9999,9999,9999,9999,1840879692
16,19,Jits_Linear_5,48,9999,9999,9999,9999,1841450080
16,19,Jits_Linear_5,49,9999,9999,9999,9999,1842019444
16,19,Jits_Linear_5,50,9999,9999,9999,9999,1842600056
16,19,Jits_Linear_5,51,9999,9999,9999,9999,1843179624
16,19,Jits_Linear_5,52,9999,9999,9999,9999,1843759172
16,19,Jits_Linear_5,53,9999,9999,9999,9999,1844339788
16,19,Jits_Linear_5,54,9999,9999,9999,9999,1844919364
16,19,Jits_Linear_5,55,9999,9999,9999,9999,1845509200
16,19,Jits_Linear_5,56,9999,9999,9999,9999,1846100076
16,19,Jits_Linear_5,57,9999,9999,9999,9999,1846689852
16,19,Jits_Linear_5,58,9999,9999,9999,9999,1847279740
16,19,Jits_Linear_5,59,9999,9999,9999,9999,1847869548
16,19,Jits_Linear_5,60,9999,9999,9999,9999,1848469580
16,19,Jits_Linear_5,61,9999,9999,9999,9999,1849069632
16,19,Jits_Linear_5,62,9999,9999,9999,9999,1849669760
16,19,Jits_Linear_5,63,9999,9999,9999,9999,1850269764
16,19,Jits_Linear_5,64,9999,9999,9999,9999,1850869836
16,19,Jits_Linear_5,65,9999,9999,9999,9999,1851479132
16,19,Jits_Linear_5,66,9999,9999,9999,9999,1852089424
16,19,Jits_Linear_5,67,9999,9999,9999,9999,1852699756
16,19,Jits_Linear_5,68,9999,9999,9999,9999,1853310028
16,19,Jits_Linear_5,69,9999,9999,9999,9999,1853919352
16,19,Jits_Linear_5,70,9999,9999,9999,9999,1854539872
16,19,Jits_Linear_5,71,9999,9999,9999,9999,1855159400
16,19,Jits_Linear_5,72,9999,9999,9999,9999,1855779944
16,19,Jits_Linear_5,73,9999,9999,9999,9999,1856399460
16,19,Jits_Linear_5,74,9999,9999,9999,9999,1857019992
16,19,Jits_Linear_5,75,9999,9999,9999,9999,1857649740
16,19,Jits_Linear_5,76,9999,9999,9999,9999,1858279516
16,19,Jits_Linear_5,77,9999,9999,9999,9999,1858909268
16,19,Jits_Linear_5,78,9999,9999,9999,9999,1859540096
16,19,Jits_Linear_5,79,9999,9999,9999,9999,1860169784
16,19,Jits_Linear_5,80,9999,9999,9999,9999,1860809804
16,19,Jits_Linear_5,81,9999,9999,9999,9999,1861449812
16,19,Jits_Linear_5,82,9999,9999,9999,9999,1862089848
16,19,Jits_Linear_5,83,9999,9999,9999,9999,1862729788
16,19,Jits_Linear_5,84,9999,9999,9999,9999,1863369844
16,19,Jits_Linear_5,85,9999,9999,9999,9999,1864020048
16,19,Jits_Linear_5,86,9999,9999,9999,9999,1864669300
16,19,Jits_Linear_5,87,9999,9999,9999,9999,1865319520
16,19,Jits_Linear_5,88,9999,9999,9999,9999,1865969744
16,19,Jits_Linear_5,89,9999,9999,9999,9999,1866620000
16,19,Jits_Linear_5,90,9999,9999,9999,9999,1867279416
16,19,Jits_Linear_5,91,9999,9999,9999,9999,1867939896
16,19,Jits_Linear_5,92,9999,9999,9999,9999,1868599392
16,19,Jits_Linear_5,93,9999,9999,9999,9999,1869259884
16,19,Jits_Linear_5,94,9999,9999,9999,9999,1869919296
16,19,Jits_Linear_5,95,9999,9999,9999,9999,1870590052
16,19,Jits_Linear_5,96,9999,9999,9999,9999,1871259764
16,19,Jits_Linear_5,97,9999,9999,9999,9999,1871929444
16,19,Jits_Linear_5,98,9999,9999,9999,9999,1872599156
16,19,Jits_Linear_5,99,9999,9999,9999,9999,1873269884
16,19,Jits_Linear_5,100,9999,9999,9999,9999,1873949780
16,19,Jits_Linear_5,101,9999,9999,9999,9999,1874629752
16,19,Jits_Linear_5,102,9999,9999,9999,9999,1875309688
16,19,Jits_Linear_5,103,9999,9999,9999,9999,1875989592
16,19,Jits_Linear_5,104,9999,9999,9999,9999,1876669560
16,19,Jits_Linear_5,105,9999,9999,9999,9999,1877359692
16,19,Jits_Linear_5,106,9999,9999,9999,9999,1878049852
16,19,Jits_Linear_5,107,9999,9999,9999,9999,1878740088
16,19,Jits_Linear_5,108,9999,9999,9999,9999,1879429244
16,19,Jits_Linear_5,109,9999,9999,9999,9999,1880119404
16,19,Jits_Linear_5,110,9999,9999,9999,9999,1880819768
16,19,Jits_Linear_5,111,9999,9999,9999,9999,1881519220
16,19,Jits_Linear_5,112,9999,9999,9999,9999,1882219632
16,19,Jits_Linear_5,113,9999,9999,9999,9999,1882920060
16,19,Jits_Linear_5,114,9999,9999,9999,9999,1883619436
16,19,Jits_Linear_5,115,9999,9999,9999,9999,1884330040
16,19,Jits_Linear_5,116,9999,9999,9999,9999,1885039736
16,19,Jits_Linear_5,117,9999,9999,9999,9999,1885749320
16,19,Jits_Linear_5,118,9999,9999,9999,9999,1886460024
16,19,Jits_Linear_5,119,9999,9999,9999,9999,1887169656
16,19,Jits_Linear_5,120,9999,9999,9999,9999,1887889496
16,19,Jits_Linear_5,121,9999,9999,9999,9999,1888609376
16,19,Jits_Linear_5,122,9999,9999,9999,9999,1889329220
16,19,Jits_Linear_5,123,9999,9999,9999,9999,1890049124
16,19,Jits_Linear_5,124,9999,9999,9999,9999,1890769996
16,19,Jits_Linear_5,125,9999,9999,9999,9999,1891499116
16,19,Jits_Linear_5,126,9999,9999,9999,9999,1892229188
16,19,Jits_Linear_5,127,9999,9999,9999,9999,1892959340
16,19,Jits_Linear_5,128,9999,9999,9999,9999,1893689424
16,19,Jits_Linear_5,129,9999,9999,9999,9999,1894419532
16,19,Jits_Linear_5,130,9999,9999,9999,9999,1895159892
16,19,Jits_Linear_5,131,9999,9999,9999,9999,1895899204
16,19,Jits_Linear_5,132,9999,9999,9999,9999,1896639568
16,19,Jits_Linear_5,133,9999,9999,9999,9999,1897379904
16,19,Jits_Linear_5,134,9999,9999,9999,9999,1898119232
16,19,Jits_Linear_5,135,9999,9999,9999,9999,1898869816
16,19,Jits_Linear_5,136,9999,9999,9999,9999,1899619440
16,19,Jits_Linear_5,137,9999,9999,9999,9999,1900370036
16,19,Jits_Linear_5,138,9999,9999,9999,9999,1901119584
16,19,Jits_Linear_5,139,9999,9999,9999,9999,1901869172
16,19,Jits_Linear_5,140,9999,9999,9999,9999,1902629980
16,19,Jits_Linear_5,141,9999,9999,9999,9999,1903389812
16,19,Jits_Linear_5,142,9999,9999,9999,9999,1904149572
16,19,Jits_Linear_5,143,9999,9999,9999,9999,1904909408
16,19,Jits_Linear_5,144,9999,9999,9999,9999,1905669240
16,19,Jits_Linear_5,145,9999,9999,9999,9999,1906439268
16,19,Jits_Linear_5,146,9999,9999,9999,9999,1907209304
16,19,Jits_Linear_5,147,9999,9999,9999,9999,1907979380
16,19,Jits_Linear_5,148,9999,9999,9999,9999,1908749404
16,19,Jits_Linear_5,149,9999,9999,9999,9999,1909519452
16,19,Jits_Linear_5,150,9999,9999,9999,9999,1910299744
16,19,Jits_Linear_5,151,9999,9999,9999,9999,1911080048
16,19,Jits_Linear_5,152,9999,9999,9999,9999,1911859320
16,19,Jits_Linear_5,153,9999,9999,9999,9999,1912639596
16,19,Jits_Linear_5,154,9999,9999,9999,9999,1913419884
16,19,Jits_Linear_5,155,9999,9999,9999,9999,1914209392
16,19,Jits_Linear_5,156,9999,9999,9999,9999,1914999912
16,19,Jits_Linear_5,157,9999,9999,9999,9999,1915789432
16,19,Jits_Linear_5,158,9999,9999,9999,9999,1916579912
16,19,Jits_Linear_5,159,9999,9999,9999,9999,1917369420
16,19,Jits_Linear_5,160,9999,9999,9999,9999,1918169192
16,19,Jits_Linear_5,161,9999,9999,9999,9999,1918969940
16,19,Jits_Linear_5,162,9999,9999,9999,9999,1919769704
16,19,Jits_Linear_5,163,9999,9999,9999,9999,1920569404
16,19,Jits_Linear_5,164,9999,9999,9999,9999,1921369168
16,19,Jits_Linear_5,165,9999,9999,9999,9999,1922179132
16,19,Jits_Linear_5,166,9999,9999,9999,9999,1922989184
16,19,Jits_Linear_5,167,9999,9999,9999,9999,1923799144
16,19,Jits_Linear_5,168,9999,9999,9999,9999,1924609108
16,19,Jits_Linear_5,169,9999,9999,9999,9999,1925419064
17,18,Jits_Linear_8,0,5,56,103,1935479232
17,18,Jits_Linear_8,1,5,63,98,1935482256
17,18,Jits_Linear_8,2,5,80,127,1935485600
17,18,Jits_Linear_8,0,1,48,40,1936070408
17,18,Jits_Linear_8,1,5,56,103,1936299324
17,18,Jits_Linear_8,2,5,63,98,1936302272
17,18,Jits_Linear_8,3,5,80,127,1936305764
17,18,Jits_Linear_8,0,1,48,41,1936988748
17,18,Jits_Linear_8,1,5,80,127,1937059228
17,18,Jits_Linear_8,2,5,63,98,1937149272
17,18,Jits_Linear_8,3,5,56,103,1937158720
17,18,Jits_Linear_8,0,5,56,103,1937898996
17,18,Jits_Linear_8,1,5,63,98,1937909044
17,18,Jits_Linear_8,2,1,48,48,1937948648
17,18,Jits_Linear_8,3,1,48,38,1937982860
17,18,Jits_Linear_8,4,5,80,127,1937999148
17,18,Jits_Linear_8,0,5,63,98,1938698740
17,18,Jits_Linear_8,1,1,48,42,1938718948
17,18,Jits_Linear_8,2,5,80,127,1938729308
17,18,Jits_Linear_8,3,5,56,103,1938758980
17,18,Jits_Linear_8,0,1,48,37,1939503840
17,18,Jits_Linear_8,1,5,56,103,1939518860
17,18,Jits_Linear_8,2,5,80,127,1939619196
17,18,Jits_Linear_8,3,5,63,98,1939669324
17,18,Jits_Linear_8,0,5,56,103,1940328816
17,18,Jits_Linear_8,1,1,48,42,1940375256
17,18,Jits_Linear_8,2,5,80,127,1940378964
17,18,Jits_Linear_8,3,1,48,34,1940408216
17,18,Jits_Linear_8,4,5,63,98,1940418808
17,18,Jits_Linear_8,0,1,48,38,1941138068
17,18,Jits_Linear_8,1,5,80,127,1941168656
17,18,Jits_Linear_8,2,5,63,98,1941199160
17,18,Jits_Linear_8,3,5,56,103,1941268824
17,18,Jits_Linear_8,0,1,48,41,1942008728
17,18,Jits_Linear_8,1,5,63,98,1942010144
17,18,Jits_Linear_8,2,5,56,103,1942038848
17,18,Jits_Linear_8,3,5,80,127,1942099312
17,18,Jits_Linear_8,0,5,56,103,1942758736
17,18,Jits_Linear_8,1,5,80,127,1942761804
17,18,Jits_Linear_8,2,1,48,42,1942792348
17,18,Jits_Linear_8,3,5,63,98,1942878532
17,18,Jits_Linear_8,0,1,48,36,1943571420
17,18,Jits_Linear_8,1,5,56,103,1943639556
17,18,Jits_Linear_8,2,5,80,127,1943679628
17,18,Jits_Linear_8,3,5,63,98,1943688652
17,18,Jits_Linear_8,0,5,56,103,1944399164
17,18,Jits_Linear_8,1,5,80,127,1944418576
17,18,Jits_Linear_8,2,1,48,38,1944443268
17,18,Jits_Linear_8,3,5,63,98,1944498464
17,18,Jits_Linear_8,0,5,80,127,1945188672
17,18,Jits_Linear_8,1,1,48,40,1945214112
17,18,Jits_Linear_8,2,5,56,103,1945289088
17,18,Jits_Linear_8,3,5,63,98,1945299656
17,18,Jits_Linear_8,0,5,63,98,1945958700
17,18,Jits_Linear_8,1,1,48,46,1946017600
17,18,Jits_Linear_8,2,5,80,127,1946019112
17,18,Jits_Linear_8,3,5,56,103,1946029604
17,18,Jits_Linear_8,4,1,48,37,1946050844
17,18,Jits_Linear_8,0,1,48,33,1946747900
17,18,Jits_Linear_8,1,5,56,103,1946758640
17,18,Jits_Linear_8,2,5,63,98,1946829096
17,18,Jits_Linear_8,3,5,80,127,1946832680
17,18,Jits_Linear_8,0,1,48,34,1947563692
17,18,Jits_Linear_8,1,5,63,98,1947588976
17,18,Jits_Linear_8,2,5,56,103,1947639104
17,18,Jits_Linear_8,3,5,80,127,1947642168
17,18,Jits_Linear_8,0,5,56,103,1948338748
17,18,Jits_Linear_8,1,5,80,127,1948341740
17,18,Jits_Linear_8,2,1,48,32,1948367420
17,18,Jits_Linear_8,3,5,63,98,1948428576
17,18,Jits_Linear_8,0,1,48,37,1949113816
17,18,Jits_Linear_8,1,5,63,98,1949168920
17,18,Jits_Linear_8,2,5,56,103,1949259112
17,18,Jits_Linear_8,3,5,80,127,1949288864
17,18,Jits_Linear_8,0,5,56,103,1949949576
17,18,Jits_Linear_8,1,1,48,43,1949956604
17,18,Jits_Linear_8,2,1,48,33,1949993060
17,18,Jits_Linear_8,3,5,63,98,1950048680
17,18,Jits_Linear_8,4,5,80,127,1950079552
17,18,Jits_Linear_8,0,5,63,98,1950759440
17,18,Jits_Linear_8,1,5,56,103,1950768592
17,18,Jits_Linear_8,2,1,48,36,1950781372
17,18,Jits_Linear_8,3,5,80,127,1950858592
17,18,Jits_Linear_8,0,5,63,98,1951558976
17,18,Jits_Linear_8,1,1,48,37,1951563440
17,18,Jits_Linear_8,2,5,56,103,1951638864
17,18,Jits_Linear_8,3,5,80,127,1951642008
17,18,Jits_Linear_8,0,5,80,127,1952299464
17,18,Jits_Linear_8,1,5,63,98,1952318800
17,18,Jits_Linear_8,2,1,48,38,1952330388
17,18,Jits_Linear_8,3,5,56,103,1952379632
17,18,Jits_Linear_8,0,5,56,103,1953118564
17,18,Jits_Linear_8,1,1,48,40,1953121836
17,18,Jits_Linear_8,2,5,63,98,1953139164
17,18,Jits_Linear_8,3,5,80,127,1953142604
17,18,Jits_Linear_8,0,5,63,98,1953838456
17,18,Jits_Linear_8,1,5,80,127,1953919452
17,18,Jits_Linear_8,2,1,48,38,1953928628
17,18,Jits_Linear_8,3,5,56,103,1953930040
17,18,Jits_Linear_8,0,5,63,98,1954639480
17,18,Jits_Linear_8,1,1,48,41,1954644472
17,18,Jits_Linear_8,2,5,56,103,1954658812
17,18,Jits_Linear_8,3,5,80,127,1954708816
17,18,Jits_Linear_8,0,5,80,127,1955418556
17,18,Jits_Linear_8,1,1,48,40,1955449104
17,18,Jits_Linear_8,2,5,63,98,1955458492
17,18,Jits_Linear_8,3,5,56,103,1955478828
17,18,Jits_Linear_8,0,1,48,38,1956201360
17,18,Jits_Linear_8,1,5,56,103,1956228584
17,18,Jits_Linear_8,2,5,63,98,1956238808
17,18,Jits_Linear_8,3,5,80,127,1956259340
17,18,Jits_Linear_8,0,1,48,30,1956920652
17,18,Jits_Linear_8,1,5,56,103,1956928916
17,18,Jits_Linear_8,2,5,63,98,1957020188
17,18,Jits_Linear_8,3,5,80,127,1957079532
17,18,Jits_Linear_8,0,1,48,38,1957715676
17,18,Jits_Linear_8,1,5,80,127,1957728676
17,18,Jits_Linear_8,2,5,56,103,1957739020
17,18,Jits_Linear_8,3,5,63,98,1957808652
17,18,Jits_Linear_8,0,1,48,40,1958507660
17,18,Jits_Linear_8,1,5,63,98,1958529332
17,18,Jits_Linear_8,2,5,80,127,1958618504
17,18,Jits_Linear_8,3,5,56,103,1958628700
17,18,Jits_Linear_8,0,5,63,98,1959228856
17,18,Jits_Linear_8,1,5,80,127,1959278912
17,18,Jits_Linear_8,2,5,56,103,1959339400
17,18,Jits_Linear_8,3,1,48,46,1959358180
17,18,Jits_Linear_8,0,5,56,103,1960019540
17,18,Jits_Linear_8,1,5,80,127,1960068400
17,18,Jits_Linear_8,2,5,63,98,1960089036
17,18,Jits_Linear_8,3,1,48,39,1960091932
17,18,Jits_Linear_8,0,5,56,103,1960749336
17,18,Jits_Linear_8,1,1,48,40,1960785488
17,18,Jits_Linear_8,2,5,80,127,1960808676
17,18,Jits_Linear_8,3,5,63,98,1960878664
17,18,Jits_Linear_8,0,5,56,103,1961509468
17,18,Jits_Linear_8,1,5,80,127,1961538924
17,18,Jits_Linear_8,2,1,48,44,1961561068
17,18,Jits_Linear_8,3,5,63,98,1961568516
17,18,Jits_Linear_8,0,5,56,103,1962308936
17,18,Jits_Linear_8,1,1,48,44,1962318356
17,18,Jits_Linear_8,2,5,80,127,1962328420
17,18,Jits_Linear_8,3,1,48,37,1962353992
17,18,Jits_Linear_8,4,5,63,98,1962388960
17,18,Jits_Linear_8,0,1,48,36,1963082128
17,18,Jits_Linear_8,1,5,80,127,1963148564
17,18,Jits_Linear_8,2,5,56,103,1963158832
17,18,Jits_Linear_8,3,5,63,98,1963169252
17,18,Jits_Linear_8,0,5,56,103,1963859300
17,18,Jits_Linear_8,1,1,48,43,1963868116
17,18,Jits_Linear_8,2,5,80,127,1963899456
17,18,Jits_Linear_8,3,1,48,34,1963904280
17,18,Jits_Linear_8,4,5,63,98,1963928908
17,18,Jits_Linear_8,0,5,56,103,1964579404
17,18,Jits_Linear_8,1,5,63,98,1964608932
17,18,Jits_Linear_8,2,5,80,127,1964648944
17,18,Jits_Linear_8,3,1,48,37,1964654760
17,18,Jits_Linear_8,0,5,80,127,1965278560
17,18,Jits_Linear_8,1,5,63,98,1965328836
17,18,Jits_Linear_8,2,5,56,103,1965349368
17,18,Jits_Linear_8,3,1,48,43,1965404848
17,18,Jits_Linear_8,0,1,48,33,1966047128
17,18,Jits_Linear_8,1,5,56,103,1966059064
17,18,Jits_Linear_8,2,5,80,127,1966128524
17,18,Jits_Linear_8,3,5,63,98,1966188900
17,18,Jits_Linear_8,0,5,80,127,1966799196
17,18,Jits_Linear_8,1,1,48,43,1966884796
17,18,Jits_Linear_8,2,5,63,98,1966889476
17,18,Jits_Linear_8,3,5,56,103,1966908888
17,18,Jits_Linear_8,0,5,63,98,1967558892
17,18,Jits_Linear_8,1,5,56,103,1967578528
17,18,Jits_Linear_8,2,5,80,127,1967618468
17,18,Jits_Linear_8,3,1,48,45,1967622188
17,18,Jits_Linear_8,4,1,48,36,1967659548
17,18,Jits_Linear_8,0,5,80,127,1968258496
17,18,Jits_Linear_8,1,5,63,98,1968278832
17,18,Jits_Linear_8,2,1,48,42,1968332144
17,18,Jits_Linear_8,3,5,56,103,1968358844
17,18,Jits_Linear_8,0,1,48,34,1968987452
17,18,Jits_Linear_8,1,5,63,98,1968988876
17,18,Jits_Linear_8,2,5,56,103,1969099400
17,18,Jits_Linear_8,3,5,80,127,1969102392
17,18,Jits_Linear_8,0,5,63,98,1969749220
17,18,Jits_Linear_8,1,1,48,35,1969756988
17,18,Jits_Linear_8,2,5,56,103,1969758584
17,18,Jits_Linear_8,3,5,80,127,1969761504
17,18,Jits_Linear_8,0,5,56,103,1970469392
17,18,Jits_Linear_8,1,1,48,39,1970495956
17,18,Jits_Linear_8,2,5,80,127,1970590172
17,18,Jits_Linear_8,3,5,63,98,1970628992
17,18,Jits_Linear_8,0,5,56,103,1971218748
17,18,Jits_Linear_8,1,1,48,37,1971232952
17,18,Jits_Linear_8,2,5,80,127,1971298540
17,18,Jits_Linear_8,3,5,63,98,1971319296
17,18,Jits_Linear_8,0,5,56,103,1971948988
17,18,Jits_Linear_8,1,1,48,40,1971953600
17,18,Jits_Linear_8,2,1,48,35,1971989104
17,18,Jits_Linear_8,3,5,63,98,1972058576
17,18,Jits_Linear_8,4,5,80,127,1972061792
17,18,Jits_Linear_8,0,1,48,39,1972686796
17,18,Jits_Linear_8,1,5,56,103,1972708864
17,18,Jits_Linear_8,2,5,80,127,1972738540
17,18,Jits_Linear_8,3,5,63,98,1972758924
17,18,Jits_Linear_8,0,5,63,98,1973419320
17,18,Jits_Linear_8,1,5,56,103,1973428544
17,18,Jits_Linear_8,2,5,80,127,1973438960
17,18,Jits_Linear_8,3,1,48,41,1973456908
17,18,Jits_Linear_8,0,5,80,127,1974129140
17,18,Jits_Linear_8,1,1,48,40,1974138260
17,18,Jits_Linear_8,2,5,56,103,1974179212
17,18,Jits_Linear_8,3,5,63,98,1974219300
17,18,Jits_Linear_8,0,1,48,37,1974843464
17,18,Jits_Linear_8,1,5,80,127,1974869264
17,18,Jits_Linear_8,2,5,63,98,1974888904
17,18,Jits_Linear_8,3,5,56,103,1974939712
17,18,Jits_Linear_8,0,1,48,38,1975591824
17,18,Jits_Linear_8,1,5,80,127,1975598448
17,18,Jits_Linear_8,2,5,56,103,1975629244
17,18,Jits_Linear_8,3,5,63,98,1975698784
17,18,Jits_Linear_8,0,1,48,33,1976300636
17,18,Jits_Linear_8,1,5,56,103,1976368464
17,18,Jits_Linear_8,2,5,80,127,1976378884
17,18,Jits_Linear_8,3,5,63,98,1976418808
17,18,Jits_Linear_8,0,5,56,103,1976999276
17,18,Jits_Linear_8,1,5,63,98,1977018764
17,18,Jits_Linear_8,2,1,48,37,1977031996
17,18,Jits_Linear_8,3,5,80,127,1977089340
17,18,Jits_Linear_8,0,5,63,98,1977738732
17,18,Jits_Linear_8,1,1,48,39,1977753984
17,18,Jits_Linear_8,2,5,80,127,1977799192
17,18,Jits_Linear_8,3,5,56,103,1977818604
17,18,Jits_Linear_8,0,1,48,41,1978438968
17,18,Jits_Linear_8,1,5,80,127,1978440380
17,18,Jits_Linear_8,2,5,56,103,1978468640
17,18,Jits_Linear_8,3,5,63,98,1978498464
17,18,Jits_Linear_8,0,5,56,103,1979148668
17,18,Jits_Linear_8,1,1,48,46,1979170296
17,18,Jits_Linear_8,2,5,63,98,1979209052
17,18,Jits_Linear_8,3,5,80,127,1979269356
17,18,Jits_Linear_8,0,1,48,34,1979867872
17,18,Jits_Linear_8,1,5,80,127,1979878760
17,18,Jits_Linear_8,2,5,56,103,1979899216
17,18,Jits_Linear_8,3,5,63,98,1979968960
17,18,Jits_Linear_8,0,5,80,127,1980589292
17,18,Jits_Linear_8,1,1,48,36,1980590260
17,18,Jits_Linear_8,2,5,63,98,1980609220
17,18,Jits_Linear_8,3,5,56,103,1980638672
17,18,Jits_Linear_8,0,5,80,127,1981278680
17,18,Jits_Linear_8,1,5,63,98,1981299212
17,18,Jits_Linear_8,2,1,48,38,1981307288
17,18,Jits_Linear_8,3,5,56,103,1981358576
17,18,Jits_Linear_8,0,5,80,127,1981979256
17,18,Jits_Linear_8,1,1,48,42,1982038868
17,18,Jits_Linear_8,2,5,56,103,1982079276
17,18,Jits_Linear_8,3,5,63,98,1982109200
17,18,Jits_Linear_8,0,5,63,98,1982669272
17,18,Jits_Linear_8,1,5,80,127,1982719324
17,18,Jits_Linear_8,2,1,48,38,1982732856
17,18,Jits_Linear_8,3,5,56,103,1982738732
17,18,Jits_Linear_8,0,5,80,127,1983408416
17,18,Jits_Linear_8,1,1,48,34,1983419556
17,18,Jits_Linear_8,2,5,56,103,1983439280
17,18,Jits_Linear_8,3,5,63,98,1983442348
17,18,Jits_Linear_8,0,1,48,37,1984101132
17,18,Jits_Linear_8,1,5,63,98,1984138572
17,18,Jits_Linear_8,2,5,56,103,1984178436
17,18,Jits_Linear_8,3,5,80,127,1984200228
17,18,Jits_Linear_8,0,5,80,127,1984778584
17,18,Jits_Linear_8,1,1,48,34,1984825600
17,18,Jits_Linear_8,2,5,63,98,1984858448
17,18,Jits_Linear_8,3,5,56,103,1984898388
17,18,Jits_Linear_8,0,5,63,98,1985489200
17,18,Jits_Linear_8,1,1,48,41,1985561628
17,18,Jits_Linear_8,2,5,80,127,1985568992
17,18,Jits_Linear_8,3,5,56,103,1985588556
17,18,Jits_Linear_8,0,5,56,103,1986219368
17,18,Jits_Linear_8,1,5,63,98,1986228664
17,18,Jits_Linear_8,2,1,48,35,1986235748
17,18,Jits_Linear_8,3,5,80,127,1986268448
17,18,Jits_Linear_8,0,5,56,103,1986828592
17,18,Jits_Linear_8,1,5,80,127,1986831660
17,18,Jits_Linear_8,2,1,48,37,1986897944
17,18,Jits_Linear_8,3,5,63,98,1986968936
17,18,Jits_Linear_8,0,5,56,103,1987508556
17,18,Jits_Linear_8,1,1,48,37,1987561048
17,18,Jits_Linear_8,2,5,63,98,1987598612
17,18,Jits_Linear_8,3,5,80,127,1987669396
17,18,Jits_Linear_8,0,1,48,43,1988223528
17,18,Jits_Linear_8,1,5,63,98,1988269440
17,18,Jits_Linear_8,2,5,80,127,1988272728
17,18,Jits_Linear_8,3,5,56,103,1988328768
17,18,Jits_Linear_8,0,1,48,40,1988935544
17,18,Jits_Linear_8,1,5,80,127,1988989228
17,18,Jits_Linear_8,2,5,56,103,1989008740
17,18,Jits_Linear_8,3,5,63,98,1989019084
17,18,Jits_Linear_8,0,5,56,103,1989579144
17,18,Jits_Linear_8,1,5,63,98,1989589340
17,18,Jits_Linear_8,2,5,80,127,1989658948
17,18,Jits_Linear_8,3,1,48,42,1989684156
17,18,Jits_Linear_8,0,5,80,127,1990259164
17,18,Jits_Linear_8,1,5,56,103,1990309168
17,18,Jits_Linear_8,2,1,48,35,1990346068
17,18,Jits_Linear_8,3,5,63,98,1990359364
17,18,Jits_Linear_8,0,5,56,103,1991018936
17,18,Jits_Linear_8,1,5,63,98,1991029060
17,18,Jits_Linear_8,2,1,48,37,1991046448
17,18,Jits_Linear_8,3,5,80,127,1991069164
17,18,Jits_Linear_8,0,5,56,103,1991639280
17,18,Jits_Linear_8,1,5,63,98,1991679368
17,18,Jits_Linear_8,2,5,80,127,1991728448
17,18,Jits_Linear_8,3,1,48,38,1991733736
17,18,Jits_Linear_8,0,5,80,127,1992269180
17,18,Jits_Linear_8,1,5,56,103,1992319312
17,18,Jits_Linear_8,2,5,63,98,1992338748
17,18,Jits_Linear_8,3,1,48,37,1992378056
17,18,Jits_Linear_8,0,5,80,127,1992949228
17,18,Jits_Linear_8,1,5,63,98,1993008424
17,18,Jits_Linear_8,2,1,48,37,1993024052
17,18,Jits_Linear_8,3,5,56,103,1993089336
17,18,Jits_Linear_8,0,5,80,127,1993599360
17,18,Jits_Linear_8,1,5,56,103,1993639176
17,18,Jits_Linear_8,2,5,63,98,1993658812
17,18,Jits_Linear_8,3,1,48,34,1993693616
17,18,Jits_Linear_8,0,1,48,38,1994306876
17,18,Jits_Linear_8,1,5,56,103,1994319256
17,18,Jits_Linear_8,2,5,80,127,1994328408
17,18,Jits_Linear_8,3,5,63,98,1994369544
17,18,Jits_Linear_8,0,1,48,39,1994994316
17,18,Jits_Linear_8,1,5,56,103,1995049344
17,18,Jits_Linear_8,2,5,63,98,1995089356
17,18,Jits_Linear_8,3,5,80,127,1995092796
17,18,Jits_Linear_8,0,5,63,98,1995599296
17,18,Jits_Linear_8,1,5,80,127,1995639236
17,18,Jits_Linear_8,2,5,56,103,1995708868
17,18,Jits_Linear_8,3,1,48,39,1995711384
17,18,Jits_Linear_8,0,5,63,98,1996248464
17,18,Jits_Linear_8,1,5,56,103,1996329384
17,18,Jits_Linear_8,2,1,48,38,1996360372
17,18,Jits_Linear_8,3,5,80,127,1996389016
17,18,Jits_Linear_8,0,5,80,127,1996919028
17,18,Jits_Linear_8,1,5,63,98,1996969408
17,18,Jits_Linear_8,2,1,48,30,1996973648
17,18,Jits_Linear_8,3,5,56,103,1996999004
17,18,Jits_Linear_8,0,5,56,103,1997569260
17,18,Jits_Linear_8,1,1,48,34,1997587364
17,18,Jits_Linear_8,2,5,63,98,1997618480
17,18,Jits_Linear_8,3,5,80,127,1997629124
17,18,Jits_Linear_8,0,1,48,40,1998235772
17,18,Jits_Linear_8,1,5,56,103,1998238956
17,18,Jits_Linear_8,2,5,63,98,1998348780
17,18,Jits_Linear_8,3,5,80,127,1998369088
17,18,Jits_Linear_8,0,5,63,98,1998889304
17,18,Jits_Linear_8,1,1,48,38,1998917004
17,18,Jits_Linear_8,2,5,80,127,1998938380
17,18,Jits_Linear_8,3,5,56,103,1999028672
17,18,Jits_Linear_8,0,5,63,98,1999529252
17,18,Jits_Linear_8,1,5,80,127,1999559004
17,18,Jits_Linear_8,2,1,48,38,1999576888
17,18,Jits_Linear_8,3,5,56,103,1999649280
17,18,Jits_Linear_8,0,5,63,98,2000178764
17,18,Jits_Linear_8,1,5,56,103,2000188888
17,18,Jits_Linear_8,2,1,48,45,2000238688
17,18,Jits_Linear_8,3,5,80,127,2000289004
17,18,Jits_Linear_8,0,1,48,42,2000891352
17,18,Jits_Linear_8,1,5,63,98,2000929216
17,18,Jits_Linear_8,2,5,80,127,2000959116
17,18,Jits_Linear_8,3,5,56,103,2000988480
17,18,Jits_Linear_8,0,1,48,42,2001569832
17,18,Jits_Linear_8,1,5,80,127,2001588884
17,18,Jits_Linear_8,2,5,63,98,2001598932
17,18,Jits_Linear_8,3,5,56,103,2001628532
17,18,Jits_Linear_8,0,5,80,127,2002129252
17,18,Jits_Linear_8,1,5,63,98,2002149040
17,18,Jits_Linear_8,2,5,56,103,2002199164
17,18,Jits_Linear_8,3,1,48,44,2002219596
17,18,Jits_Linear_8,0,5,63,98,2002798860
17,18,Jits_Linear_8,1,1,48,41,2002831600
17,18,Jits_Linear_8,2,5,80,127,2002859344
17,18,Jits_Linear_8,3,5,56,103,2002878832
17,18,Jits_Linear_8,0,5,63,98,2003399100
17,18,Jits_Linear_8,1,5,56,103,2003449084
17,18,Jits_Linear_8,2,5,80,127,2003458384
17,18,Jits_Linear_8,3,1,48,38,2003490348
17,18,Jits_Linear_8,0,5,56,103,2004068844
17,18,Jits_Linear_8,1,1,48,41,2004071592
17,18,Jits_Linear_8,2,5,80,127,2004079108
17,18,Jits_Linear_8,3,5,63,98,2004179292
17,18,Jits_Linear_8,0,5,80,127,2004668880
17,18,Jits_Linear_8,1,5,63,98,2004679152
17,18,Jits_Linear_8,2,1,48,40,2004734632
17,18,Jits_Linear_8,3,5,56,103,2004828448
17,18,Jits_Linear_8,0,5,63,98,2005308896
17,18,Jits_Linear_8,1,5,80,127,2005348836
17,18,Jits_Linear_8,2,1,48,41,2005363564
17,18,Jits_Linear_8,3,5,56,103,2005428724
17,18,Jits_Linear_8,0,5,56,103,2005929216
17,18,Jits_Linear_8,1,1,48,37,2005991152
17,18,Jits_Linear_8,2,5,80,127,2006029012
17,18,Jits_Linear_8,3,5,63,98,2006049100
17,18,Jits_Linear_8,0,1,48,30,2006614376
17,18,Jits_Linear_8,1,5,80,127,2006618528
17,18,Jits_Linear_8,2,5,56,103,2006629020
17,18,Jits_Linear_8,3,5,63,98,2006719164
17,18,Jits_Linear_8,0,5,56,103,2007249276
17,18,Jits_Linear_8,1,5,63,98,2007268984
17,18,Jits_Linear_8,2,1,48,34,2007339092
17,18,Jits_Linear_8,3,5,80,127,2007348848
17,18,Jits_Linear_8,0,5,63,98,2007818720
17,18,Jits_Linear_8,1,5,56,103,2007908928
17,18,Jits_Linear_8,2,5,80,127,2007911996
17,18,Jits_Linear_8,3,1,48,34,2007971628
17,18,Jits_Linear_8,0,5,56,103,2008469004
17,18,Jits_Linear_8,1,5,80,127,2008529172
17,18,Jits_Linear_8,2,1,48,36,2008538696
17,18,Jits_Linear_8,3,5,63,98,2008540108
17,18,Jits_Linear_8,0,5,80,127,2009138768
17,18,Jits_Linear_8,1,5,56,103,2009149192
17,18,Jits_Linear_8,2,5,63,98,2009152028
17,18,Jits_Linear_8,3,1,48,35,2009175228
17,18,Jits_Linear_8,0,5,56,103,2009719140
17,18,Jits_Linear_8,1,5,80,127,2009729484
17,18,Jits_Linear_8,2,5,63,98,2009748920
17,18,Jits_Linear_8,3,1,48,37,2009793016
17,18,Jits_Linear_8,0,5,63,98,2010308832
17,18,Jits_Linear_8,1,1,48,31,2010356368
17,18,Jits_Linear_8,2,5,80,127,2010369368
17,18,Jits_Linear_8,3,5,56,103,2010418668
17,18,Jits_Linear_8,0,1,48,33,2010882640
17,18,Jits_Linear_8,1,5,63,98,2011009356
17,18,Jits_Linear_8,2,5,56,103,2011018752
17,18,Jits_Linear_8,3,5,80,127,2011068876
17,18,Jits_Linear_8,0,5,63,98,2011519244
17,18,Jits_Linear_8,1,1,48,35,2011532876
17,18,Jits_Linear_8,2,5,80,127,2011538972
17,18,Jits_Linear_8,3,5,56,103,2011549020
17,18,Jits_Linear_8,0,5,63,98,2012128768
17,18,Jits_Linear_8,1,5,80,127,2012132060
17,18,Jits_Linear_8,2,1,48,43,2012136620
17,18,Jits_Linear_8,3,5,56,103,2012168776
17,18,Jits_Linear_8,0,1,48,40,2012750816
17,18,Jits_Linear_8,1,5,63,98,2012808636
17,18,Jits_Linear_8,2,5,80,127,2012839284
17,18,Jits_Linear_8,3,5,56,103,2012848792
17,18,Jits_Linear_8,0,5,56,103,2013368708
17,18,Jits_Linear_8,1,5,80,127,2013399360
17,18,Jits_Linear_8,2,5,63,98,2013429032
17,18,Jits_Linear_8,3,1,48,35,2013450288
17,18,Jits_Linear_8,0,1,48,40,2014042332
17,18,Jits_Linear_8,1,5,63,98,2014069032
17,18,Jits_Linear_8,2,5,56,103,2014108996
17,18,Jits_Linear_8,3,5,80,127,2014112136
17,18,Jits_Linear_8,0,5,80,127,2014568712
17,18,Jits_Linear_8,1,5,56,103,2014648832
17,18,Jits_Linear_8,2,5,63,98,2014698812
17,18,Jits_Linear_8,3,1,48,35,2014723052
17,18,Jits_Linear_8,0,5,80,127,2015149420
17,18,Jits_Linear_8,1,5,56,103,2015168828
17,18,Jits_Linear_8,2,5,63,98,2015259036
17,18,Jits_Linear_8,3,1,48,41,2015320888
17,18,Jits_Linear_8,0,5,80,127,2015789284
17,18,Jits_Linear_8,1,5,63,98,2015829300
17,18,Jits_Linear_8,2,5,56,103,2015869384
17,18,Jits_Linear_8,3,1,48,31,2015882120
17,18,Jits_Linear_8,0,5,63,98,2016358868
17,18,Jits_Linear_8,1,5,80,127,2016419288
17,18,Jits_Linear_8,2,1,48,35,2016448964
17,18,Jits_Linear_8,3,5,56,103,2016450228
17,18,Jits_Linear_8,0,5,56,103,2016958884
17,18,Jits_Linear_8,1,5,80,127,2016988860
17,18,Jits_Linear_8,2,1,48,38,2017012812
17,18,Jits_Linear_8,3,5,63,98,2017078692
17,18,Jits_Linear_8,0,5,56,103,2017558896
17,18,Jits_Linear_8,1,1,48,37,2017615796
17,18,Jits_Linear_8,2,5,80,127,2017668904
17,18,Jits_Linear_8,3,5,63,98,2017699252
17,18,Jits_Linear_8,0,5,56,103,2018198796
17,18,Jits_Linear_8,1,1,48,36,2018223564
17,18,Jits_Linear_8,2,5,63,98,2018259332
17,18,Jits_Linear_8,3,5,80,127,2018289080
17,18,Jits_Linear_8,0,5,56,103,2018758956
17,18,Jits_Linear_8,1,5,63,98,2018828716
17,18,Jits_Linear_8,2,1,48,44,2018847052
17,18,Jits_Linear_8,3,5,80,127,2018849092
17,18,Jits_Linear_8,4,1,48,37,2018879392
17,18,Jits_Linear_8,0,5,80,127,2019319008
17,18,Jits_Linear_8,1,5,63,98,2019338716
17,18,Jits_Linear_8,2,5,56,103,2019388916
17,18,Jits_Linear_8,3,1,48,41,2019420656
17,18,Jits_Linear_8,0,5,63,98,2019919160
17,18,Jits_Linear_8,1,5,80,127,2019928756
17,18,Jits_Linear_8,2,5,56,103,2019978760
17,18,Jits_Linear_8,3,1,48,37,2020003156
17,18,Jits_Linear_8,0,5,63,98,2020498728
17,18,Jits_Linear_8,1,5,80,127,2020568560
17,18,Jits_Linear_8,2,1,48,37,2020570200
17,18,Jits_Linear_8,3,5,56,103,2020588936
17,18,Jits_Linear_8,0,5,63,98,2021109132
17,18,Jits_Linear_8,1,5,80,127,2021112572
17,18,Jits_Linear_8,2,1,48,40,2021132408
17,18,Jits_Linear_8,3,5,56,103,2021178808
17,18,Jits_Linear_8,0,5,80,127,2021638620
17,18,Jits_Linear_8,1,5,56,103,2021658932
17,18,Jits_Linear_8,2,5,63,98,2021669428
17,18,Jits_Linear_8,3,1,48,39,2021694192
17,18,Jits_Linear_8,0,1,48,40,2022223976
17,18,Jits_Linear_8,1,5,56,103,2022238916
17,18,Jits_Linear_8,2,5,63,98,2022328616
17,18,Jits_Linear_8,3,5,80,127,2022331904
17,18,Jits_Linear_8,0,5,80,127,2022788816
17,18,Jits_Linear_8,1,5,56,103,2022799012
17,18,Jits_Linear_8,2,5,63,98,2022819248
17,18,Jits_Linear_8,3,1,48,36,2022856444
17,18,Jits_Linear_8,0,5,63,98,2023358772
17,18,Jits_Linear_8,1,1,48,39,2023410592
17,18,Jits_Linear_8,2,5,80,127,2023419160
17,18,Jits_Linear_8,3,5,56,103,2023428828
17,18,Jits_Linear_8,0,1,48,36,2023968780
17,18,Jits_Linear_8,1,5,63,98,2023998772
17,18,Jits_Linear_8,2,5,80,127,2024028672
17,18,Jits_Linear_8,3,5,56,103,2024068816
17,18,Jits_Linear_8,0,1,48,37,2024557528
17,18,Jits_Linear_8,1,5,56,103,2024559036
17,18,Jits_Linear_8,2,5,80,127,2024569232
17,18,Jits_Linear_8,3,5,63,98,2024609120
17,18,Jits_Linear_8,0,5,80,127,2025089440
17,18,Jits_Linear_8,1,1,48,38,2025157024
17,18,Jits_Linear_8,2,5,56,103,2025169180
17,18,Jits_Linear_8,3,5,63,98,2025178700
17,18,Jits_Linear_8,0,5,80,127,2025698764
17,18,Jits_Linear_8,1,1,48,38,2025721964
17,18,Jits_Linear_8,2,5,56,103,2025778704
17,18,Jits_Linear_8,3,5,63,98,2025788752
17,18,Jits_Linear_8,0,5,80,127,2026218840
17,18,Jits_Linear_8,1,5,56,103,2026268892
17,18,Jits_Linear_8,2,1,48,40,2026306164
17,18,Jits_Linear_8,3,5,63,98,2026319160
17,18,Jits_Linear_8,0,1,48,39,2026827068
17,18,Jits_Linear_8,1,5,56,103,2026839676
17,18,Jits_Linear_8,2,5,63,98,2026842660
17,18,Jits_Linear_8,3,5,80,127,2026888552
17,18,Jits_Linear_8,0,1,48,37,2027411940
17,18,Jits_Linear_8,1,5,56,103,2027418864
17,18,Jits_Linear_8,2,5,63,98,2027448616
17,18,Jits_Linear_8,3,5,80,127,2027458960
17,18,Jits_Linear_8,0,5,63,98,2027889008
17,18,Jits_Linear_8,1,5,56,103,2027958568
17,18,Jits_Linear_8,2,1,48,35,2027973444
17,18,Jits_Linear_8,3,5,80,127,2028008764
17,18,Jits_Linear_8,0,5,63,98,2028478772
17,18,Jits_Linear_8,1,5,56,103,2028488960
17,18,Jits_Linear_8,2,5,80,127,2028492032
17,18,Jits_Linear_8,3,1,48,39,2028516888
17,18,Jits_Linear_8,0,5,80,127,2028978584
17,18,Jits_Linear_8,1,1,48,43,2029030408
17,18,Jits_Linear_8,2,5,56,103,2029038896
17,18,Jits_Linear_8,3,5,63,98,2029129684
17,18,Jits_Linear_8,0,5,80,127,2029528472
17,18,Jits_Linear_8,1,5,56,103,2029628724
17,18,Jits_Linear_8,2,1,48,39,2029637020
17,18,Jits_Linear_8,3,5,63,98,2029668656
17,18,Jits_Linear_8,0,5,56,103,2030128784
17,18,Jits_Linear_8,1,5,63,98,2030149020
17,18,Jits_Linear_8,2,5,80,127,2030188812
17,18,Jits_Linear_8,3,1,48,40,2030224236
17,18,Jits_Linear_8,0,5,63,98,2030648632
17,18,Jits_Linear_8,1,5,56,103,2030669240
17,18,Jits_Linear_8,2,1,48,39,2030711764
17,18,Jits_Linear_8,3,5,80,127,2030768608
17,18,Jits_Linear_8,0,5,63,98,2031179020
17,18,Jits_Linear_8,1,1,48,32,2031214948
17,18,Jits_Linear_8,2,5,80,127,2031288652
17,18,Jits_Linear_8,3,5,56,103,2031319584
17,18,Jits_Linear_8,0,5,56,103,2031739460
17,18,Jits_Linear_8,1,1,48,40,2031743628
17,18,Jits_Linear_8,2,5,63,98,2031768860
17,18,Jits_Linear_8,3,5,80,127,2031819208
17,18,Jits_Linear_8,0,5,63,98,2032249340
17,18,Jits_Linear_8,1,5,56,103,2032278968
17,18,Jits_Linear_8,2,1,48,22,2032294968
17,18,Jits_Linear_8,3,5,80,127,2032329088
17,18,Jits_Linear_8,0,1,48,39,2032778752
17,18,Jits_Linear_8,1,5,56,103,2032818708
17,18,Jits_Linear_8,2,5,63,98,2032839168
17,18,Jits_Linear_8,3,5,80,127,2032919024
17,18,Jits_Linear_8,0,5,63,98,2033328580
17,18,Jits_Linear_8,1,1,48,37,2033354396
17,18,Jits_Linear_8,2,5,56,103,2033388892
17,18,Jits_Linear_8,3,5,80,127,2033418716
17,18,Jits_Linear_8,0,1,48,41,2033886124
17,18,Jits_Linear_8,1,5,56,103,2033909612
17,18,Jits_Linear_8,2,5,80,127,2033968588
17,18,Jits_Linear_8,3,5,63,98,2034008660
17,18,Jits_Linear_8,0,5,63,98,2034419192
17,18,Jits_Linear_8,1,5,56,103,2034478540
17,18,Jits_Linear_8,2,1,48,40,2034521964
17,18,Jits_Linear_8,3,5,80,127,2034549036
17,18,Jits_Linear_8,0,5,56,103,2035029608
17,18,Jits_Linear_8,1,5,63,98,2035038456
17,18,Jits_Linear_8,2,5,80,127,2035041752
17,18,Jits_Linear_8,3,1,48,40,2035058964
17,18,Jits_Linear_8,0,5,63,98,2035499408
17,18,Jits_Linear_8,1,5,56,103,2035558752
17,18,Jits_Linear_8,2,5,80,127,2035561744
17,18,Jits_Linear_8,3,1,48,35,2035585008
17,18,Jits_Linear_8,0,5,63,98,2036009340
17,18,Jits_Linear_8,1,5,80,127,2036039016
17,18,Jits_Linear_8,2,5,56,103,2036058728
17,18,Jits_Linear_8,3,1,48,35,2036116644
17,18,Jits_Linear_8,0,5,56,103,2036538832
17,18,Jits_Linear_8,1,5,63,98,2036588888
17,18,Jits_Linear_8,2,1,48,35,2036620356
17,18,Jits_Linear_8,3,5,80,127,2036668776
17,18,Jits_Linear_8,0,5,80,127,2037038456
17,18,Jits_Linear_8,1,5,63,98,2037079592
17,18,Jits_Linear_8,2,1,48,33,2037097572
17,18,Jits_Linear_8,3,5,56,103,2037099068
17,18,Jits_Linear_8,0,5,56,103,2037629396
17,18,Jits_Linear_8,1,5,80,127,2037638648
17,18,Jits_Linear_8,2,1,48,40,2037640512
17,18,Jits_Linear_8,3,5,63,98,2037658876
17,18,Jits_Linear_8,0,5,56,103,2038128864
17,18,Jits_Linear_8,1,1,48,38,2038156964
17,18,Jits_Linear_8,2,5,63,98,2038179384
17,18,Jits_Linear_8,3,5,80,127,2038208988
17,18,Jits_Linear_8,0,5,56,103,2038598892
17,18,Jits_Linear_8,1,5,63,98,2038609532
17,18,Jits_Linear_8,2,5,80,127,2038658392
17,18,Jits_Linear_8,3,1,48,29,2038699520
17,18,Jits_Linear_8,0,5,56,103,2039109064
17,18,Jits_Linear_8,1,5,80,127,2039112056
17,18,Jits_Linear_8,2,1,48,36,2039211548
17,18,Jits_Linear_8,3,1,48,30,2039246648
17,18,Jits_Linear_8,4,5,63,98,2039268864
17,18,Jits_Linear_8,0,5,63,98,2039639364
17,18,Jits_Linear_8,1,5,56,103,2039708996
17,18,Jits_Linear_8,2,1,48,29,2039721108
17,18,Jits_Linear_8,3,5,80,127,2039748852
17,18,Jits_Linear_8,0,5,63,98,2040189392
17,18,Jits_Linear_8,1,1,48,34,2040220036
17,18,Jits_Linear_8,2,5,56,103,2040279620
17,18,Jits_Linear_8,3,5,80,127,2040282536
17,18,Jits_Linear_8,0,5,56,103,2040678728
17,18,Jits_Linear_8,1,1,48,25,2040715952
17,18,Jits_Linear_8,2,5,63,98,2040768884
17,18,Jits_Linear_8,3,5,80,127,2040779156
17,18,Jits_Linear_8,0,5,56,103,2041159020
17,18,Jits_Linear_8,1,5,63,98,2041209300
17,18,Jits_Linear_8,2,5,80,127,2041238924
17,18,Jits_Linear_8,3,1,48,36,2041252824
17,18,Jits_Linear_8,0,5,63,98,2041738604
17,18,Jits_Linear_8,1,5,80,127,2041748952
17,18,Jits_Linear_8,2,1,48,22,2041756800
17,18,Jits_Linear_8,3,5,56,103,2041809260
17,18,Jits_Linear_8,0,5,63,98,2042158540
17,18,Jits_Linear_8,1,5,80,127,2042218860
17,18,Jits_Linear_8,2,5,56,103,2042258748
17,18,Jits_Linear_8,3,1,48,35,2042311308
17,18,Jits_Linear_8,0,5,56,103,2042758568
17,18,Jits_Linear_8,1,5,80,127,2042778952
17,18,Jits_Linear_8,2,5,63,98,2042798440
17,18,Jits_Linear_8,3,1,48,38,2042811220
17,18,Jits_Linear_8,0,5,63,98,2043179644
17,18,Jits_Linear_8,1,5,56,103,2043198836
17,18,Jits_Linear_8,2,5,80,127,2043238776
17,18,Jits_Linear_8,3,1,48,29,2043328824
17,18,Jits_Linear_8,0,5,63,98,2043689440
17,18,Jits_Linear_8,1,5,80,127,2043718968
17,18,Jits_Linear_8,2,5,56,103,2043738604
17,18,Jits_Linear_8,3,1,48,33,2043822724
17,18,Jits_Linear_8,0,5,80,127,2044159520
17,18,Jits_Linear_8,1,5,56,103,2044208604
17,18,Jits_Linear_8,2,5,63,98,2044268844
17,18,Jits_Linear_8,3,1,48,38,2044296256
17,18,Jits_Linear_8,0,5,63,98,2044638464
17,18,Jits_Linear_8,1,5,56,103,2044759320
17,18,Jits_Linear_8,2,1,48,33,2044780648
17,18,Jits_Linear_8,3,5,80,127,2044789136
17,18,Jits_Linear_8,0,5,80,127,2045168868
17,18,Jits_Linear_8,1,5,63,98,2045188504
17,18,Jits_Linear_8,2,1,48,24,2045233048
17,18,Jits_Linear_8,3,5,56,103,2045259300
17,18,Jits_Linear_8,0,5,63,98,2045678904
17,18,Jits_Linear_8,1,5,56,103,2045689320
17,18,Jits_Linear_8,2,1,48,32,2045722256
17,18,Jits_Linear_8,3,5,80,127,2045769108
17,18,Jits_Linear_8,0,1,48,29,2046186652
17,18,Jits_Linear_8,1,5,56,103,2046228780
17,18,Jits_Linear_8,2,5,80,127,2046258528
17,18,Jits_Linear_8,3,5,63,98,2046268724
17,18,Jits_Linear_8,0,9999,9999,9999,9999,1935886416
17,18,Jits_Linear_8,1,9999,9999,9999,9999,1936706632
17,18,Jits_Linear_8,2,9999,9999,9999,9999,1937526912
17,18,Jits_Linear_8,3,9999,9999,9999,9999,1938347120
17,18,Jits_Linear_8,4,9999,9999,9999,9999,1939176548
17,18,Jits_Linear_8,5,9999,9999,9999,9999,1939986500
17,18,Jits_Linear_8,6,9999,9999,9999,9999,1940796496
17,18,Jits_Linear_8,7,9999,9999,9999,9999,1941606524
17,18,Jits_Linear_8,8,9999,9999,9999,9999,1942416496
17,18,Jits_Linear_8,9,9999,9999,9999,9999,1943226432
17,18,Jits_Linear_8,10,9999,9999,9999,9999,1944026204
17,18,Jits_Linear_8,11,9999,9999,9999,9999,1944826932
17,18,Jits_Linear_8,12,9999,9999,9999,9999,1945626708
17,18,Jits_Linear_8,13,9999,9999,9999,9999,1946426452
17,18,Jits_Linear_8,14,9999,9999,9999,9999,1947226188
17,18,Jits_Linear_8,15,9999,9999,9999,9999,1948016716
17,18,Jits_Linear_8,16,9999,9999,9999,9999,1948806264
17,18,Jits_Linear_8,17,9999,9999,9999,9999,1949596772
17,18,Jits_Linear_8,18,9999,9999,9999,9999,1950386248
17,18,Jits_Linear_8,19,9999,9999,9999,9999,1951176800
17,18,Jits_Linear_8,20,9999,9999,9999,9999,1951957072
17,18,Jits_Linear_8,21,9999,9999,9999,9999,1952736376
17,18,Jits_Linear_8,22,9999,9999,9999,9999,1953516656
17,18,Jits_Linear_8,23,9999,9999,9999,9999,1954296944
17,18,Jits_Linear_8,24,9999,9999,9999,9999,1955076168
17,18,Jits_Linear_8,25,9999,9999,9999,9999,1955846252
17,18,Jits_Linear_8,26,9999,9999,9999,9999,1956616284
17,18,Jits_Linear_8,27,9999,9999,9999,9999,1957386292
17,18,Jits_Linear_8,28,9999,9999,9999,9999,1958156380
17,18,Jits_Linear_8,29,9999,9999,9999,9999,1958926400
17,18,Jits_Linear_8,30,9999,9999,9999,9999,1959686220
17,18,Jits_Linear_8,31,9999,9999,9999,9999,1960447092
17,18,Jits_Linear_8,32,9999,9999,9999,9999,1961206852
17,18,Jits_Linear_8,33,9999,9999,9999,9999,1961966684
17,18,Jits_Linear_8,34,9999,9999,9999,9999,1962726500
17,18,Jits_Linear_8,35,9999,9999,9999,9999,1963477052
17,18,Jits_Linear_8,36,9999,9999,9999,9999,1964226668
17,18,Jits_Linear_8,37,9999,9999,9999,9999,1964976236
17,18,Jits_Linear_8,38,9999,9999,9999,9999,1965726780
17,18,Jits_Linear_8,39,9999,9999,9999,9999,1966476360
17,18,Jits_Linear_8,40,9999,9999,9999,9999,1967216760
17,18,Jits_Linear_8,41,9999,9999,9999,9999,1967957096
17,18,Jits_Linear_8,42,9999,9999,9999,9999,1968696380
17,18,Jits_Linear_8,43,9999,9999,9999,9999,1969436728
17,18,Jits_Linear_8,44,9999,9999,9999,9999,1970176080
17,18,Jits_Linear_8,45,9999,9999,9999,9999,1970906236
17,18,Jits_Linear_8,46,9999,9999,9999,9999,1971636336
17,18,Jits_Linear_8,47,9999,9999,9999,9999,1972366396
17,18,Jits_Linear_8,48,9999,9999,9999,9999,1973096536
17,18,Jits_Linear_8,49,9999,9999,9999,9999,1973826684
17,18,Jits_Linear_8,50,9999,9999,9999,9999,1974546500
17,18,Jits_Linear_8,51,9999,9999,9999,9999,1975266404
17,18,Jits_Linear_8,52,9999,9999,9999,9999,1975986296
17,18,Jits_Linear_8,53,9999,9999,9999,9999,1976706168
17,18,Jits_Linear_8,54,9999,9999,9999,9999,1977427020
17,18,Jits_Linear_8,55,9999,9999,9999,9999,1978136664
17,18,Jits_Linear_8,56,9999,9999,9999,9999,1978846288
17,18,Jits_Linear_8,57,9999,9999,9999,9999,1979556964
17,18,Jits_Linear_8,58,9999,9999,9999,9999,1980266584
17,18,Jits_Linear_8,59,9999,9999,9999,9999,1980976208
17,18,Jits_Linear_8,60,9999,9999,9999,9999,1981676636
17,18,Jits_Linear_8,61,9999,9999,9999,9999,1982377064
17,18,Jits_Linear_8,62,9999,9999,9999,9999,1983076416
17,18,Jits_Linear_8,63,9999,9999,9999,9999,1983776892
17,18,Jits_Linear_8,64,9999,9999,9999,9999,1984476280
17,18,Jits_Linear_8,65,9999,9999,9999,9999,1985166428
17,18,Jits_Linear_8,66,9999,9999,9999,9999,1985856572
17,18,Jits_Linear_8,67,9999,9999,9999,9999,1986546800
17,18,Jits_Linear_8,68,9999,9999,9999,9999,1987236952
17,18,Jits_Linear_8,69,9999,9999,9999,9999,1987926120
17,18,Jits_Linear_8,70,9999,9999,9999,9999,1988607060
17,18,Jits_Linear_8,71,9999,9999,9999,9999,1989287028
17,18,Jits_Linear_8,72,9999,9999,9999,9999,1989966960
17,18,Jits_Linear_8,73,9999,9999,9999,9999,1990646860
17,18,Jits_Linear_8,74,9999,9999,9999,9999,1991326840
17,18,Jits_Linear_8,75,9999,9999,9999,9999,1991996532
17,18,Jits_Linear_8,76,9999,9999,9999,9999,1992666240
17,18,Jits_Linear_8,77,9999,9999,9999,9999,1993336900
17,18,Jits_Linear_8,78,9999,9999,9999,9999,1994006604
17,18,Jits_Linear_8,79,9999,9999,9999,9999,1994676320
17,18,Jits_Linear_8,80,9999,9999,9999,9999,1995336772
17,18,Jits_Linear_8,81,9999,9999,9999,9999,1995996280
17,18,Jits_Linear_8,82,9999,9999,9999,9999,1996656736
17,18,Jits_Linear_8,83,9999,9999,9999,9999,1997316164
17,18,Jits_Linear_8,84,9999,9999,9999,9999,1997976652
17,18,Jits_Linear_8,85,9999,9999,9999,9999,1998626932
17,18,Jits_Linear_8,86,9999,9999,9999,9999,1999276100
17,18,Jits_Linear_8,87,9999,9999,9999,9999,1999926360
17,18,Jits_Linear_8,88,9999,9999,9999,9999,2000576572
17,18,Jits_Linear_8,89,9999,9999,9999,9999,2001226844
17,18,Jits_Linear_8,90,9999,9999,9999,9999,2001866808
17,18,Jits_Linear_8,91,9999,9999,9999,9999,2002506880
17,18,Jits_Linear_8,92,9999,9999,9999,9999,2003146848
17,18,Jits_Linear_8,93,9999,9999,9999,9999,2003786844
17,18,Jits_Linear_8,94,9999,9999,9999,9999,2004426872
17,18,Jits_Linear_8,95,9999,9999,9999,9999,2005056628
17,18,Jits_Linear_8,96,9999,9999,9999,9999,2005686328
17,18,Jits_Linear_8,97,9999,9999,9999,9999,2006316140
17,18,Jits_Linear_8,98,9999,9999,9999,9999,2006946896
17,18,Jits_Linear_8,99,9999,9999,9999,9999,2007576640
17,18,Jits_Linear_8,100,9999,9999,9999,9999,2008196192
17,18,Jits_Linear_8,101,9999,9999,9999,9999,2008816740
17,18,Jits_Linear_8,102,9999,9999,9999,9999,2009436224
17,18,Jits_Linear_8,103,9999,9999,9999,9999,2010056784
17,18,Jits_Linear_8,104,9999,9999,9999,9999,2010676352
17,18,Jits_Linear_8,105,9999,9999,9999,9999,2011286644
17,18,Jits_Linear_8,106,9999,9999,9999,9999,2011896892
17,18,Jits_Linear_8,107,9999,9999,9999,9999,2012506164
17,18,Jits_Linear_8,108,9999,9999,9999,9999,2013116528
17,18,Jits_Linear_8,109,9999,9999,9999,9999,2013726784
17,18,Jits_Linear_8,110,9999,9999,9999,9999,2014326868
17,18,Jits_Linear_8,111,9999,9999,9999,9999,2014926968
17,18,Jits_Linear_8,112,9999,9999,9999,9999,2015526972
17,18,Jits_Linear_8,113,9999,9999,9999,9999,2016127060
17,18,Jits_Linear_8,114,9999,9999,9999,9999,2016726112
17,18,Jits_Linear_8,115,9999,9999,9999,9999,2017316964
17,18,Jits_Linear_8,116,9999,9999,9999,9999,2017906788
17,18,Jits_Linear_8,117,9999,9999,9999,9999,2018496568
17,18,Jits_Linear_8,118,9999,9999,9999,9999,2019086448
17,18,Jits_Linear_8,119,9999,9999,9999,9999,2019676256
17,18,Jits_Linear_8,120,9999,9999,9999,9999,2020256884
17,18,Jits_Linear_8,121,9999,9999,9999,9999,2020836428
17,18,Jits_Linear_8,122,9999,9999,9999,9999,2021417084
17,18,Jits_Linear_8,123,9999,9999,9999,9999,2021996620
17,18,Jits_Linear_8,124,9999,9999,9999,9999,2022576196
17,18,Jits_Linear_8,125,9999,9999,9999,9999,2023146588
17,18,Jits_Linear_8,126,9999,9999,9999,9999,2023716924
17,18,Jits_Linear_8,127,9999,9999,9999,9999,2024286336
17,18,Jits_Linear_8,128,9999,9999,9999,9999,2024856688
17,18,Jits_Linear_8,129,9999,9999,9999,9999,2025427016
17,18,Jits_Linear_8,130,9999,9999,9999,9999,2025986128
17,18,Jits_Linear_8,131,9999,9999,9999,9999,2026546276
17,18,Jits_Linear_8,132,9999,9999,9999,9999,2027106428
17,18,Jits_Linear_8,133,9999,9999,9999,9999,2027666524
17,18,Jits_Linear_8,134,9999,9999,9999,9999,2028226664
17,18,Jits_Linear_8,135,9999,9999,9999,9999,2028776528
17,18,Jits_Linear_8,136,9999,9999,9999,9999,2029326404
17,18,Jits_Linear_8,137,9999,9999,9999,9999,2029876292
17,18,Jits_Linear_8,138,9999,9999,9999,9999,2030426180
17,18,Jits_Linear_8,139,9999,9999,9999,9999,2030976072
17,18,Jits_Linear_8,140,9999,9999,9999,9999,2031516752
17,18,Jits_Linear_8,141,9999,9999,9999,9999,2032056436
17,18,Jits_Linear_8,142,9999,9999,9999,9999,2032597104
17,18,Jits_Linear_8,143,9999,9999,9999,9999,2033136716
17,18,Jits_Linear_8,144,9999,9999,9999,9999,2033676396
17,18,Jits_Linear_8,145,9999,9999,9999,9999,2034206796
17,18,Jits_Linear_8,146,9999,9999,9999,9999,2034736224
17,18,Jits_Linear_8,147,9999,9999,9999,9999,2035266616
17,18,Jits_Linear_8,148,9999,9999,9999,9999,2035797092
17,18,Jits_Linear_8,149,9999,9999,9999,9999,2036326512
17,18,Jits_Linear_8,150,9999,9999,9999,9999,2036846644
17,18,Jits_Linear_8,151,9999,9999,9999,9999,2037366864
17,18,Jits_Linear_8,152,9999,9999,9999,9999,2037887088
17,18,Jits_Linear_8,153,9999,9999,9999,9999,2038406212
17,18,Jits_Linear_8,154,9999,9999,9999,9999,2038926424
17,18,Jits_Linear_8,155,9999,9999,9999,9999,2039436348
17,18,Jits_Linear_8,156,9999,9999,9999,9999,2039946300
17,18,Jits_Linear_8,157,9999,9999,9999,9999,2040456316
17,18,Jits_Linear_8,158,9999,9999,9999,9999,2040966268
17,18,Jits_Linear_8,159,9999,9999,9999,9999,2041476220
17,18,Jits_Linear_8,160,9999,9999,9999,9999,2041976944
17,18,Jits_Linear_8,161,9999,9999,9999,9999,2042476616
17,18,Jits_Linear_8,162,9999,9999,9999,9999,2042976380
17,18,Jits_Linear_8,163,9999,9999,9999,9999,2043477120
17,18,Jits_Linear_8,164,9999,9999,9999,9999,2043976796
17,18,Jits_Linear_8,165,9999,9999,9999,9999,2044466288
17,18,Jits_Linear_8,166,9999,9999,9999,9999,2044956768
17,18,Jits_Linear_8,167,9999,9999,9999,9999,2045446264
17,18,Jits_Linear_8,168,9999,9999,9999,9999,2045936744
17,18,Jits_Linear_8,169,9999,9999,9999,9999,2046426172
18,16,Jits_ISO_5,0,5,56,103,2055192932
18,16,Jits_ISO_5,1,5,63,98,2055196180
18,16,Jits_ISO_5,2,5,80,127,2055199300
18,16,Jits_ISO_5,0,5,56,103,2055692576
18,16,Jits_ISO_5,1,5,63,98,2055695748
18,16,Jits_ISO_5,2,5,80,127,2055698872
18,16,Jits_ISO_5,3,1,48,15,2055777204
18,16,Jits_ISO_5,0,1,48,38,2056178640
18,16,Jits_ISO_5,1,5,56,103,2056193284
18,16,Jits_ISO_5,2,5,80,127,2056202584
18,16,Jits_ISO_5,3,5,63,98,2056223336
18,16,Jits_ISO_5,0,5,63,98,2056642832
18,16,Jits_ISO_5,1,5,80,127,2056672584
18,16,Jits_ISO_5,2,5,56,103,2056682776
18,16,Jits_ISO_5,3,1,48,40,2056685748
18,16,Jits_ISO_5,0,1,48,35,2057170908
18,16,Jits_ISO_5,1,5,80,127,2057203236
18,16,Jits_ISO_5,2,5,56,103,2057213432
18,16,Jits_ISO_5,3,5,63,98,2057243180
18,16,Jits_ISO_5,0,5,63,98,2057692568
18,16,Jits_ISO_5,1,1,48,39,2057710584
18,16,Jits_ISO_5,2,5,56,103,2057723432
18,16,Jits_ISO_5,3,5,80,127,2057732432
18,16,Jits_ISO_5,0,5,56,103,2058143304
18,16,Jits_ISO_5,1,5,63,98,2058193284
18,16,Jits_ISO_5,2,1,48,40,2058209732
18,16,Jits_ISO_5,3,5,80,127,2058212840
18,16,Jits_ISO_5,0,5,80,127,2058642756
18,16,Jits_ISO_5,1,1,48,38,2058681916
18,16,Jits_ISO_5,2,5,63,98,2058692952
18,16,Jits_ISO_5,3,5,56,103,2058732888
18,16,Jits_ISO_5,0,5,56,103,2059142432
18,16,Jits_ISO_5,1,5,63,98,2059173448
18,16,Jits_ISO_5,2,1,48,43,2059177320
18,16,Jits_ISO_5,3,5,80,127,2059243044
18,16,Jits_ISO_5,0,1,48,45,2059627200
18,16,Jits_ISO_5,1,5,56,103,2059643264
18,16,Jits_ISO_5,2,1,48,33,2059670756
18,16,Jits_ISO_5,3,5,80,127,2059702612
18,16,Jits_ISO_5,4,5,63,98,2059733332
18,16,Jits_ISO_5,0,5,56,103,2060153208
18,16,Jits_ISO_5,1,5,63,98,2060162432
18,16,Jits_ISO_5,2,1,48,48,2060178732
18,16,Jits_ISO_5,3,5,80,127,2060203260
18,16,Jits_ISO_5,4,1,48,28,2060230180
18,16,Jits_ISO_5,0,5,63,98,2060642608
18,16,Jits_ISO_5,1,1,48,41,2060663112
18,16,Jits_ISO_5,2,5,80,127,2060722420
18,16,Jits_ISO_5,3,5,56,103,2060732764
18,16,Jits_ISO_5,0,1,48,44,2061176996
18,16,Jits_ISO_5,1,5,63,98,2061192484
18,16,Jits_ISO_5,2,5,56,103,2061232412
18,16,Jits_ISO_5,3,5,80,127,2061235484
18,16,Jits_ISO_5,0,5,56,103,2061653224
18,16,Jits_ISO_5,1,5,63,98,2061662448
18,16,Jits_ISO_5,2,5,80,127,2061702408
18,16,Jits_ISO_5,3,1,48,46,2061719608
18,16,Jits_ISO_5,4,1,48,31,2061771808
18,16,Jits_ISO_5,0,5,56,103,2062142796
18,16,Jits_ISO_5,1,5,63,98,2062145936
18,16,Jits_ISO_5,2,5,80,127,2062163328
18,16,Jits_ISO_5,3,1,48,40,2062180988
18,16,Jits_ISO_5,0,1,48,38,2062629300
18,16,Jits_ISO_5,1,5,80,127,2062652788
18,16,Jits_ISO_5,2,5,56,103,2062663428
18,16,Jits_ISO_5,3,5,63,98,2062732520
18,16,Jits_ISO_5,0,1,48,45,2063136908
18,16,Jits_ISO_5,1,5,63,98,2063143228
18,16,Jits_ISO_5,2,5,56,103,2063162716
18,16,Jits_ISO_5,3,5,80,127,2063242584
18,16,Jits_ISO_5,0,1,48,44,2063624276
18,16,Jits_ISO_5,1,5,56,103,2063653216
18,16,Jits_ISO_5,2,5,80,127,2063693080
18,16,Jits_ISO_5,3,5,63,98,2063703352
18,16,Jits_ISO_5,0,1,48,43,2064142692
18,16,Jits_ISO_5,1,5,80,127,2064144180
18,16,Jits_ISO_5,2,5,63,98,2064173480
18,16,Jits_ISO_5,3,5,56,103,2064213416
18,16,Jits_ISO_5,0,1,48,41,2064663172
18,16,Jits_ISO_5,1,5,56,103,2064664364
18,16,Jits_ISO_5,2,5,63,98,2064692544
18,16,Jits_ISO_5,3,5,80,127,2064742892
18,16,Jits_ISO_5,0,5,80,127,2065162460
18,16,Jits_ISO_5,1,5,56,103,2065202400
18,16,Jits_ISO_5,2,1,48,45,2065205140
18,16,Jits_ISO_5,3,5,63,98,2065212736
18,16,Jits_ISO_5,0,5,80,127,2065642952
18,16,Jits_ISO_5,1,5,63,98,2065682888
18,16,Jits_ISO_5,2,5,56,103,2065743200
18,16,Jits_ISO_5,3,1,48,44,2065750972
18,16,Jits_ISO_5,0,5,56,103,2066142628
18,16,Jits_ISO_5,1,5,80,127,2066152748
18,16,Jits_ISO_5,2,1,48,43,2066198260
18,16,Jits_ISO_5,3,5,63,98,2066232604
18,16,Jits_ISO_5,0,5,80,127,2066643416
18,16,Jits_ISO_5,1,1,48,43,2066652836
18,16,Jits_ISO_5,2,5,63,98,2066702604
18,16,Jits_ISO_5,3,5,56,103,2066733400
18,16,Jits_ISO_5,0,5,56,103,2067143088
18,16,Jits_ISO_5,1,1,48,38,2067170640
18,16,Jits_ISO_5,2,5,80,127,2067202276
18,16,Jits_ISO_5,3,5,63,98,2067243408
18,16,Jits_ISO_5,0,1,48,43,2067660856
18,16,Jits_ISO_5,1,5,56,103,2067693028
18,16,Jits_ISO_5,2,5,63,98,2067703296
18,16,Jits_ISO_5,3,5,80,127,2067706512
18,16,Jits_ISO_5,0,5,80,127,2068142412
18,16,Jits_ISO_5,1,1,48,38,2068148676
18,16,Jits_ISO_5,2,5,63,98,2068232540
18,16,Jits_ISO_5,3,5,56,103,2068242660
18,16,Jits_ISO_5,0,5,56,103,2068643268
18,16,Jits_ISO_5,1,5,63,98,2068646288
18,16,Jits_ISO_5,2,5,80,127,2068649564
18,16,Jits_ISO_5,3,1,48,45,2068678012
18,16,Jits_ISO_5,0,1,48,41,2069148888
18,16,Jits_ISO_5,1,5,80,127,2069163376
18,16,Jits_ISO_5,2,5,63,98,2069212532
18,16,Jits_ISO_5,3,5,56,103,2069243248
18,16,Jits_ISO_5,0,5,56,103,2069642588
18,16,Jits_ISO_5,1,5,80,127,2069652708
18,16,Jits_ISO_5,2,1,48,40,2069706464
18,16,Jits_ISO_5,3,5,63,98,2069722528
18,16,Jits_ISO_5,0,5,56,103,2070152596
18,16,Jits_ISO_5,1,5,63,98,2070173204
18,16,Jits_ISO_5,2,1,48,44,2070221128
18,16,Jits_ISO_5,3,5,80,127,2070232460
18,16,Jits_ISO_5,0,5,80,127,2070643176
18,16,Jits_ISO_5,1,1,48,41,2070663332
18,16,Jits_ISO_5,2,5,63,98,2070712576
18,16,Jits_ISO_5,3,5,56,103,2070733256
18,16,Jits_ISO_5,0,5,80,127,2071163152
18,16,Jits_ISO_5,1,1,48,44,2071172624
18,16,Jits_ISO_5,2,5,56,103,2071173960
18,16,Jits_ISO_5,3,5,63,98,2071182664
18,16,Jits_ISO_5,0,5,80,127,2071652708
18,16,Jits_ISO_5,1,5,56,103,2071673096
18,16,Jits_ISO_5,2,1,48,41,2071683656
18,16,Jits_ISO_5,3,5,63,98,2071742788
18,16,Jits_ISO_5,0,5,56,103,2072162648
18,16,Jits_ISO_5,1,1,48,40,2072168460
18,16,Jits_ISO_5,2,5,80,127,2072193288
18,16,Jits_ISO_5,3,5,63,98,2072212944
18,16,Jits_ISO_5,0,5,63,98,2072653172
18,16,Jits_ISO_5,1,1,48,48,2072665056
18,16,Jits_ISO_5,2,5,56,103,2072712460
18,16,Jits_ISO_5,3,5,80,127,2072743328
18,16,Jits_ISO_5,0,5,63,98,2073142568
18,16,Jits_ISO_5,1,5,80,127,2073146152
18,16,Jits_ISO_5,2,1,48,48,2073179836
18,16,Jits_ISO_5,3,5,56,103,2073232712
18,16,Jits_ISO_5,0,1,48,45,2073620440
18,16,Jits_ISO_5,1,5,56,103,2073662736
18,16,Jits_ISO_5,2,5,63,98,2073692484
18,16,Jits_ISO_5,3,5,80,127,2073732432
18,16,Jits_ISO_5,0,1,48,45,2074161108
18,16,Jits_ISO_5,1,5,63,98,2074162616
18,16,Jits_ISO_5,2,5,56,103,2074202404
18,16,Jits_ISO_5,3,1,48,32,2074206780
18,16,Jits_ISO_5,4,5,80,127,2074223064
18,16,Jits_ISO_5,0,1,48,39,2074665632
18,16,Jits_ISO_5,1,5,63,98,2074672556
18,16,Jits_ISO_5,2,5,56,103,2074712492
18,16,Jits_ISO_5,3,5,80,127,2074722612
18,16,Jits_ISO_5,0,5,80,127,2075152964
18,16,Jits_ISO_5,1,1,48,47,2075163656
18,16,Jits_ISO_5,2,5,63,98,2075223388
18,16,Jits_ISO_5,3,5,56,103,2075243096
18,16,Jits_ISO_5,0,5,56,103,2075643128
18,16,Jits_ISO_5,1,5,80,127,2075662988
18,16,Jits_ISO_5,2,5,63,98,2075702552
18,16,Jits_ISO_5,3,1,48,47,2075708360
18,16,Jits_ISO_5,4,1,48,39,2075738304
18,16,Jits_ISO_5,0,5,63,98,2076153076
18,16,Jits_ISO_5,1,5,80,127,2076172860
18,16,Jits_ISO_5,2,1,48,40,2076207144
18,16,Jits_ISO_5,3,5,56,103,2076212644
18,16,Jits_ISO_5,0,1,48,38,2076644984
18,16,Jits_ISO_5,1,5,63,98,2076653028
18,16,Jits_ISO_5,2,5,56,103,2076673488
18,16,Jits_ISO_5,3,5,80,127,2076682488
18,16,Jits_ISO_5,0,1,48,38,2077145392
18,16,Jits_ISO_5,1,5,80,127,2077152688
18,16,Jits_ISO_5,2,5,56,103,2077173148
18,16,Jits_ISO_5,3,5,63,98,2077202744
18,16,Jits_ISO_5,0,1,48,40,2077610576
18,16,Jits_ISO_5,1,1,48,29,2077656640
18,16,Jits_ISO_5,2,5,56,103,2077722968
18,16,Jits_ISO_5,3,5,80,127,2077726108
18,16,Jits_ISO_5,4,5,63,98,2077742384
18,16,Jits_ISO_5,0,5,63,98,2078143176
18,16,Jits_ISO_5,1,1,48,35,2078151252
18,16,Jits_ISO_5,2,5,56,103,2078172548
18,16,Jits_ISO_5,3,5,80,127,2078233084
18,16,Jits_ISO_5,0,1,48,35,2078649916
18,16,Jits_ISO_5,1,5,63,98,2078722548
18,16,Jits_ISO_5,2,5,56,103,2078732596
18,16,Jits_ISO_5,3,5,80,127,2078742940
18,16,Jits_ISO_5,0,5,56,103,2079173072
18,16,Jits_ISO_5,1,5,80,127,2079202596
18,16,Jits_ISO_5,2,5,63,98,2079213164
18,16,Jits_ISO_5,3,1,48,43,2079227296
18,16,Jits_ISO_5,4,1,48,31,2079270860
18,16,Jits_ISO_5,0,1,48,39,2079711180
18,16,Jits_ISO_5,1,5,63,98,2079712612
18,16,Jits_ISO_5,2,5,56,103,2079722956
18,16,Jits_ISO_5,3,5,80,127,2079743264
18,16,Jits_ISO_5,0,5,56,103,2080142980
18,16,Jits_ISO_5,1,1,48,32,2080194200
18,16,Jits_ISO_5,2,5,63,98,2080203212
18,16,Jits_ISO_5,3,5,80,127,2080206424
18,16,Jits_ISO_5,0,1,48,35,2080663320
18,16,Jits_ISO_5,1,5,80,127,2080664588
18,16,Jits_ISO_5,2,5,56,103,2080672988
18,16,Jits_ISO_5,3,5,63,98,2080742960
18,16,Jits_ISO_5,0,5,80,127,2081153516
18,16,Jits_ISO_5,1,1,48,32,2081199928
18,16,Jits_ISO_5,2,5,56,103,2081223040
18,16,Jits_ISO_5,3,5,63,98,2081233236
18,16,Jits_ISO_5,0,5,63,98,2081693120
18,16,Jits_ISO_5,1,5,56,103,2081703244
18,16,Jits_ISO_5,2,5,80,127,2081722880
18,16,Jits_ISO_5,3,1,48,32,2081726368
18,16,Jits_ISO_5,0,5,80,127,2082142488
18,16,Jits_ISO_5,1,1,48,37,2082185416
18,16,Jits_ISO_5,2,5,63,98,2082203120
18,16,Jits_ISO_5,3,5,56,103,2082242908
18,16,Jits_ISO_5,0,1,48,40,2082662356
18,16,Jits_ISO_5,1,5,56,103,2082683360
18,16,Jits_ISO_5,2,5,63,98,2082692384
18,16,Jits_ISO_5,3,5,80,127,2082733440
18,16,Jits_ISO_5,0,5,56,103,2083143160
18,16,Jits_ISO_5,1,5,80,127,2083172688
18,16,Jits_ISO_5,2,1,48,40,2083173652
18,16,Jits_ISO_5,3,5,63,98,2083222832
18,16,Jits_ISO_5,0,1,48,40,2083644456
18,16,Jits_ISO_5,1,5,56,103,2083682540
18,16,Jits_ISO_5,2,5,63,98,2083722648
18,16,Jits_ISO_5,3,5,80,127,2083726232
18,16,Jits_ISO_5,0,5,56,103,2084183320
18,16,Jits_ISO_5,1,5,63,98,2084192840
18,16,Jits_ISO_5,2,1,48,35,2084201884
18,16,Jits_ISO_5,3,5,80,127,2084213216
18,16,Jits_ISO_5,0,5,56,103,2084643280
18,16,Jits_ISO_5,1,5,80,127,2084646200
18,16,Jits_ISO_5,2,1,48,39,2084647168
18,16,Jits_ISO_5,3,5,63,98,2084683212
18,16,Jits_ISO_5,0,1,48,38,2085157292
18,16,Jits_ISO_5,1,5,63,98,2085183016
18,16,Jits_ISO_5,2,5,56,103,2085212396
18,16,Jits_ISO_5,3,5,80,127,2085233152
18,16,Jits_ISO_5,0,5,80,127,2085653164
18,16,Jits_ISO_5,1,5,56,103,2085663212
18,16,Jits_ISO_5,2,1,48,41,2085672052
18,16,Jits_ISO_5,3,5,63,98,2085673472
18,16,Jits_ISO_5,0,1,48,41,2086151260
18,16,Jits_ISO_5,1,5,56,103,2086152684
18,16,Jits_ISO_5,2,5,80,127,2086192396
18,16,Jits_ISO_5,3,5,63,98,2086223192
18,16,Jits_ISO_5,0,1,48,40,2086662464
18,16,Jits_ISO_5,1,5,63,98,2086663872
18,16,Jits_ISO_5,2,5,80,127,2086672876
18,16,Jits_ISO_5,3,5,56,103,2086682920
18,16,Jits_ISO_5,0,5,56,103,2087143160
18,16,Jits_ISO_5,1,1,48,41,2087145380
18,16,Jits_ISO_5,2,1,48,33,2087186036
18,16,Jits_ISO_5,3,5,63,98,2087213412
18,16,Jits_ISO_5,4,5,80,127,2087222784
18,16,Jits_ISO_5,0,5,80,127,2087642552
18,16,Jits_ISO_5,1,5,56,103,2087652896
18,16,Jits_ISO_5,2,1,48,41,2087665452
18,16,Jits_ISO_5,3,1,48,34,2087701032
18,16,Jits_ISO_5,4,5,63,98,2087703064
18,16,Jits_ISO_5,0,5,80,127,2088152500
18,16,Jits_ISO_5,1,1,48,39,2088179064
18,16,Jits_ISO_5,2,5,56,103,2088213108
18,16,Jits_ISO_5,3,5,63,98,2088242484
18,16,Jits_ISO_5,0,5,56,103,2088653148
18,16,Jits_ISO_5,1,5,80,127,2088656212
18,16,Jits_ISO_5,2,1,48,36,2088666828
18,16,Jits_ISO_5,3,5,63,98,2088693076
18,16,Jits_ISO_5,0,1,48,37,2089139956
18,16,Jits_ISO_5,1,5,56,103,2089182472
18,16,Jits_ISO_5,2,5,63,98,2089213416
18,16,Jits_ISO_5,3,5,80,127,2089222492
18,16,Jits_ISO_5,0,5,63,98,2089692624
18,16,Jits_ISO_5,1,1,48,38,2089698884
18,16,Jits_ISO_5,2,5,80,127,2089703184
18,16,Jits_ISO_5,3,5,56,103,2089713084
18,16,Jits_ISO_5,0,5,80,127,2090143060
18,16,Jits_ISO_5,1,1,48,40,2090185888
18,16,Jits_ISO_5,2,5,56,103,2090193328
18,16,Jits_ISO_5,3,5,63,98,2090196396
18,16,Jits_ISO_5,0,1,48,42,2090659540
18,16,Jits_ISO_5,1,5,56,103,2090672388
18,16,Jits_ISO_5,2,5,80,127,2090693068
18,16,Jits_ISO_5,3,5,63,98,2090703188
18,16,Jits_ISO_5,4,1,48,27,2090708240
18,16,Jits_ISO_5,0,5,63,98,2091153032
18,16,Jits_ISO_5,1,1,48,39,2091154220
18,16,Jits_ISO_5,2,5,56,103,2091182328
18,16,Jits_ISO_5,3,5,80,127,2091202936
18,16,Jits_ISO_5,0,1,48,39,2091637796
18,16,Jits_ISO_5,1,5,56,103,2091663096
18,16,Jits_ISO_5,2,5,80,127,2091672920
18,16,Jits_ISO_5,3,1,48,31,2091677820
18,16,Jits_ISO_5,4,5,63,98,2091742572
18,16,Jits_ISO_5,0,5,63,98,2092153164
18,16,Jits_ISO_5,1,1,48,40,2092155028
18,16,Jits_ISO_5,2,5,80,127,2092193268
18,16,Jits_ISO_5,3,1,48,30,2092201472
18,16,Jits_ISO_5,4,5,56,103,2092233032
18,16,Jits_ISO_5,0,5,56,103,2092663028
18,16,Jits_ISO_5,1,5,63,98,2092673400
18,16,Jits_ISO_5,2,5,80,127,2092692808
18,16,Jits_ISO_5,3,1,48,33,2092724692
18,16,Jits_ISO_5,0,1,48,40,2093175772
18,16,Jits_ISO_5,1,5,63,98,2093202876
18,16,Jits_ISO_5,2,5,80,127,2093223260
18,16,Jits_ISO_5,3,5,56,103,2093242820
18,16,Jits_ISO_5,0,5,56,103,2093643108
18,16,Jits_ISO_5,1,1,48,38,2093660844
18,16,Jits_ISO_5,2,1,48,27,2093713132
18,16,Jits_ISO_5,3,5,80,127,2093723048
18,16,Jits_ISO_5,4,5,63,98,2093733244
18,16,Jits_ISO_5,0,5,80,127,2094182876
18,16,Jits_ISO_5,1,1,48,43,2094188460
18,16,Jits_ISO_5,2,5,63,98,2094193212
18,16,Jits_ISO_5,3,5,56,103,2094222984
18,16,Jits_ISO_5,4,1,48,31,2094245640
18,16,Jits_ISO_5,0,5,63,98,2094642708
18,16,Jits_ISO_5,1,5,80,127,2094682644
18,16,Jits_ISO_5,2,1,48,42,2094685240
18,16,Jits_ISO_5,3,1,48,28,2094738348
18,16,Jits_ISO_5,4,5,56,103,2094742952
18,16,Jits_ISO_5,0,5,63,98,2095152868
18,16,Jits_ISO_5,1,1,48,40,2095164828
18,16,Jits_ISO_5,2,5,56,103,2095202836
18,16,Jits_ISO_5,3,1,48,27,2095216052
18,16,Jits_ISO_5,4,5,80,127,2095233484
18,16,Jits_ISO_5,0,1,48,44,2095644720
18,16,Jits_ISO_5,1,5,80,127,2095662428
18,16,Jits_ISO_5,2,5,63,98,2095672848
18,16,Jits_ISO_5,3,1,48,33,2095694980
18,16,Jits_ISO_5,4,5,56,103,2095743324
18,16,Jits_ISO_5,0,1,48,40,2096098316
18,16,Jits_ISO_5,1,5,80,127,2096232960
18,16,Jits_ISO_5,2,5,56,103,2096243080
18,16,Jits_ISO_5,3,5,63,98,2096246292
18,16,Jits_ISO_5,0,1,48,43,2096638500
18,16,Jits_ISO_5,1,5,56,103,2096672996
18,16,Jits_ISO_5,2,1,48,33,2096689208
18,16,Jits_ISO_5,3,5,80,127,2096692756
18,16,Jits_ISO_5,4,5,63,98,2096702952
18,16,Jits_ISO_5,0,1,48,40,2097132792
18,16,Jits_ISO_5,1,1,48,32,2097183072
18,16,Jits_ISO_5,2,5,63,98,2097184332
18,16,Jits_ISO_5,3,5,56,103,2097223152
18,16,Jits_ISO_5,4,5,80,127,2097242560
18,16,Jits_ISO_5,0,1,48,39,2097676668
18,16,Jits_ISO_5,1,5,63,98,2097682768
18,16,Jits_ISO_5,2,5,56,103,2097743156
18,16,Jits_ISO_5,3,5,80,127,2097746296
18,16,Jits_ISO_5,0,5,56,103,2098142792
18,16,Jits_ISO_5,1,5,80,127,2098163028
18,16,Jits_ISO_5,2,5,63,98,2098202888
18,16,Jits_ISO_5,3,1,48,44,2098204376
18,16,Jits_ISO_5,4,1,48,34,2098250176
18,16,Jits_ISO_5,0,5,56,103,2098672968
18,16,Jits_ISO_5,1,1,48,38,2098677136
18,16,Jits_ISO_5,2,5,63,98,2098692376
18,16,Jits_ISO_5,3,5,80,127,2098702796
18,16,Jits_ISO_5,4,1,48,29,2098734440
18,16,Jits_ISO_5,0,5,80,127,2099142988
18,16,Jits_ISO_5,1,5,56,103,2099172960
18,16,Jits_ISO_5,2,1,48,35,2099185592
18,16,Jits_ISO_5,3,5,63,98,2099212740
18,16,Jits_ISO_5,4,1,48,25,2099234796
18,16,Jits_ISO_5,0,5,80,127,2099653012
18,16,Jits_ISO_5,1,1,48,36,2099670984
18,16,Jits_ISO_5,2,5,56,103,2099672420
18,16,Jits_ISO_5,3,5,63,98,2099733028
18,16,Jits_ISO_5,0,5,56,103,2100163020
18,16,Jits_ISO_5,1,5,80,127,2100183700
18,16,Jits_ISO_5,2,1,48,35,2100187044
18,16,Jits_ISO_5,3,5,63,98,2100242812
18,16,Jits_ISO_5,0,5,80,127,2100643136
18,16,Jits_ISO_5,1,5,56,103,2100653780
18,16,Jits_ISO_5,2,1,48,42,2100663048
18,16,Jits_ISO_5,3,5,63,98,2100693340
18,16,Jits_ISO_5,4,1,48,27,2100718460
18,16,Jits_ISO_5,0,5,63,98,2101142748
18,16,Jits_ISO_5,1,1,48,38,2101143712
18,16,Jits_ISO_5,2,5,56,103,2101182824
18,16,Jits_ISO_5,3,5,80,127,2101185964
18,16,Jits_ISO_5,4,1,48,28,2101204880
18,16,Jits_ISO_5,0,1,48,40,2101626012
18,16,Jits_ISO_5,1,5,63,98,2101663076
18,16,Jits_ISO_5,2,1,48,31,2101684612
18,16,Jits_ISO_5,3,5,80,127,2101702916
18,16,Jits_ISO_5,4,5,56,103,2101732888
18,16,Jits_ISO_5,0,1,48,42,2102126960
18,16,Jits_ISO_5,1,5,56,103,2102152636
18,16,Jits_ISO_5,2,5,63,98,2102162980
18,16,Jits_ISO_5,3,1,48,32,2102178220
18,16,Jits_ISO_5,4,5,80,127,2102192632
18,16,Jits_ISO_5,0,1,48,40,2102625876
18,16,Jits_ISO_5,1,5,80,127,2102642992
18,16,Jits_ISO_5,2,1,48,30,2102677132
18,16,Jits_ISO_5,3,5,63,98,2102712824
18,16,Jits_ISO_5,4,5,56,103,2102723016
18,16,Jits_ISO_5,0,5,63,98,2103142744
18,16,Jits_ISO_5,1,1,48,38,2103147280
18,16,Jits_ISO_5,2,5,56,103,2103213412
18,16,Jits_ISO_5,3,5,80,127,2103222932
18,16,Jits_ISO_5,0,5,63,98,2103642624
18,16,Jits_ISO_5,1,5,56,103,2103663084
18,16,Jits_ISO_5,2,1,48,42,2103672572
18,16,Jits_ISO_5,3,5,80,127,2103703036
18,16,Jits_ISO_5,0,1,48,51,2104134524
18,16,Jits_ISO_5,1,5,56,103,2104152536
18,16,Jits_ISO_5,2,5,63,98,2104162952
18,16,Jits_ISO_5,3,1,48,36,2104187556
18,16,Jits_ISO_5,4,5,80,127,2104242824
18,16,Jits_ISO_5,0,1,48,50,2104625724
18,16,Jits_ISO_5,1,5,63,98,2104642836
18,16,Jits_ISO_5,2,5,56,103,2104672808
18,16,Jits_ISO_5,3,1,48,33,2104684452
18,16,Jits_ISO_5,4,5,80,127,2104712672
18,16,Jits_ISO_5,0,1,48,46,2105113408
18,16,Jits_ISO_5,1,5,56,103,2105142656
18,16,Jits_ISO_5,2,5,63,98,2105182816
18,16,Jits_ISO_5,3,5,80,127,2105222684
18,16,Jits_ISO_5,0,1,48,49,2105620096
18,16,Jits_ISO_5,1,5,80,127,2105643656
18,16,Jits_ISO_5,2,1,48,27,2105689164
18,16,Jits_ISO_5,3,5,56,103,2105723204
18,16,Jits_ISO_5,4,5,63,98,2105732752
18,16,Jits_ISO_5,0,1,48,46,2106173876
18,16,Jits_ISO_5,1,5,56,103,2106182964
18,16,Jits_ISO_5,2,5,63,98,2106186104
18,16,Jits_ISO_5,3,5,80,127,2106193156
18,16,Jits_ISO_5,4,1,48,28,2106237608
18,16,Jits_ISO_5,0,1,48,44,2106665368
18,16,Jits_ISO_5,1,5,56,103,2106703156
18,16,Jits_ISO_5,2,5,63,98,2106722716
18,16,Jits_ISO_5,3,5,80,127,2106732836
18,16,Jits_ISO_5,0,1,48,44,2107155064
18,16,Jits_ISO_5,1,5,63,98,2107162960
18,16,Jits_ISO_5,2,5,80,127,2107173228
18,16,Jits_ISO_5,3,5,56,103,2107192716
18,16,Jits_ISO_5,4,1,48,29,2107221668
18,16,Jits_ISO_5,0,1,48,45,2107651896
18,16,Jits_ISO_5,1,5,63,98,2107662856
18,16,Jits_ISO_5,2,1,48,32,2107714660
18,16,Jits_ISO_5,3,5,56,103,2107743004
18,16,Jits_ISO_5,4,5,80,127,2107745916
18,16,Jits_ISO_5,0,5,63,98,2108162604
18,16,Jits_ISO_5,1,5,56,103,2108182840
18,16,Jits_ISO_5,2,1,48,50,2108186552
18,16,Jits_ISO_5,3,5,80,127,2108212728
18,16,Jits_ISO_5,4,1,48,34,2108256732
18,16,Jits_ISO_5,0,5,56,103,2108663024
18,16,Jits_ISO_5,1,1,48,45,2108674832
18,16,Jits_ISO_5,2,5,63,98,2108682800
18,16,Jits_ISO_5,3,5,80,127,2108692776
18,16,Jits_ISO_5,4,1,48,33,2108738124
18,16,Jits_ISO_5,0,1,48,42,2109159000
18,16,Jits_ISO_5,1,5,56,103,2109192744
18,16,Jits_ISO_5,2,1,48,35,2109209704
18,16,Jits_ISO_5,3,5,63,98,2109223140
18,16,Jits_ISO_5,4,5,80,127,2109226808
18,16,Jits_ISO_5,0,5,56,103,2109643048
18,16,Jits_ISO_5,1,1,48,38,2109674484
18,16,Jits_ISO_5,2,5,63,98,2109683052
18,16,Jits_ISO_5,3,1,48,24,2109731484
18,16,Jits_ISO_5,4,5,80,127,2109742668
18,16,Jits_ISO_5,0,1,48,43,2110119020
18,16,Jits_ISO_5,1,5,56,103,2110163404
18,16,Jits_ISO_5,2,5,63,98,2110172700
18,16,Jits_ISO_5,3,1,48,29,2110184648
18,16,Jits_ISO_5,4,5,80,127,2110232916
18,16,Jits_ISO_5,0,1,48,41,2110629848
18,16,Jits_ISO_5,1,5,56,103,2110662928
18,16,Jits_ISO_5,2,5,80,127,2110682712
18,16,Jits_ISO_5,3,5,63,98,2110713136
18,16,Jits_ISO_5,0,1,48,36,2111154688
18,16,Jits_ISO_5,1,5,80,127,2111162660
18,16,Jits_ISO_5,2,5,56,103,2111173076
18,16,Jits_ISO_5,3,5,63,98,2111192636
18,16,Jits_ISO_5,0,1,48,39,2111633072
18,16,Jits_ISO_5,1,5,63,98,2111653172
18,16,Jits_ISO_5,2,1,48,30,2111691568
18,16,Jits_ISO_5,3,5,80,127,2111733244
18,16,Jits_ISO_5,4,5,56,103,2111743512
18,16,Jits_ISO_5,0,1,48,40,2112159112
18,16,Jits_ISO_5,1,5,80,127,2112213236
18,16,Jits_ISO_5,2,1,48,26,2112215160
18,16,Jits_ISO_5,3,5,56,103,2112232920
18,16,Jits_ISO_5,4,5,63,98,2112235912
18,16,Jits_ISO_5,0,5,63,98,2112683316
18,16,Jits_ISO_5,1,5,80,127,2112686680
18,16,Jits_ISO_5,2,1,48,40,2112727260
18,16,Jits_ISO_5,3,5,56,103,2112742796
18,16,Jits_ISO_5,0,5,56,103,2113162588
18,16,Jits_ISO_5,1,5,80,127,2113172784
18,16,Jits_ISO_5,2,1,48,47,2113187584
18,16,Jits_ISO_5,3,5,63,98,2113212712
18,16,Jits_ISO_5,4,1,48,32,2113261068
18,16,Jits_ISO_5,0,5,56,103,2113642844
18,16,Jits_ISO_5,1,1,48,45,2113669656
18,16,Jits_ISO_5,2,5,63,98,2113703176
18,16,Jits_ISO_5,3,5,80,127,2113712624
18,16,Jits_ISO_5,4,1,48,32,2113736324
18,16,Jits_ISO_5,0,1,48,40,2114134704
18,16,Jits_ISO_5,1,5,63,98,2114152788
18,16,Jits_ISO_5,2,1,48,27,2114183936
18,16,Jits_ISO_5,3,5,80,127,2114192804
18,16,Jits_ISO_5,4,5,56,103,2114232664
18,16,Jits_ISO_5,0,1,48,40,2114617816
18,16,Jits_ISO_5,1,5,56,103,2114652612
18,16,Jits_ISO_5,2,1,48,26,2114689220
18,16,Jits_ISO_5,3,5,63,98,2114733448
18,16,Jits_ISO_5,4,5,80,127,2114736812
18,16,Jits_ISO_5,0,9999,9999,9999,9999,2055440508
18,16,Jits_ISO_5,1,9999,9999,9999,9999,2055940204
18,16,Jits_ISO_5,2,9999,9999,9999,9999,2056440928
18,16,Jits_ISO_5,3,9999,9999,9999,9999,2056940656
18,16,Jits_ISO_5,4,9999,9999,9999,9999,2057440320
18,16,Jits_ISO_5,5,9999,9999,9999,9999,2057941104
18,16,Jits_ISO_5,6,9999,9999,9999,9999,2058440760
18,16,Jits_ISO_5,7,9999,9999,9999,9999,2058940512
18,16,Jits_ISO_5,8,9999,9999,9999,9999,2059440184
18,16,Jits_ISO_5,9,9999,9999,9999,9999,2059940956
18,16,Jits_ISO_5,10,9999,9999,9999,9999,2060440676
18,16,Jits_ISO_5,11,9999,9999,9999,9999,2060940388
18,16,Jits_ISO_5,12,9999,9999,9999,9999,2061440092
18,16,Jits_ISO_5,13,9999,9999,9999,9999,2061940840
18,16,Jits_ISO_5,14,9999,9999,9999,9999,2062440532
18,16,Jits_ISO_5,15,9999,9999,9999,9999,2062940280
18,16,Jits_ISO_5,16,9999,9999,9999,9999,2063440980
18,16,Jits_ISO_5,17,9999,9999,9999,9999,2063940712
18,16,Jits_ISO_5,18,9999,9999,9999,9999,2064440444
18,16,Jits_ISO_5,19,9999,9999,9999,9999,2064940104
18,16,Jits_ISO_5,20,9999,9999,9999,9999,2065440884
18,16,Jits_ISO_5,21,9999,9999,9999,9999,2065940556
18,16,Jits_ISO_5,22,9999,9999,9999,9999,2066440300
18,16,Jits_ISO_5,23,9999,9999,9999,9999,2066941020
18,16,Jits_ISO_5,24,9999,9999,9999,9999,2067440696
18,16,Jits_ISO_5,25,9999,9999,9999,9999,2067940436
18,16,Jits_ISO_5,26,9999,9999,9999,9999,2068440168
18,16,Jits_ISO_5,27,9999,9999,9999,9999,2068940864
18,16,Jits_ISO_5,28,9999,9999,9999,9999,2069440612
18,16,Jits_ISO_5,29,9999,9999,9999,9999,2069940340
18,16,Jits_ISO_5,30,9999,9999,9999,9999,2070441056
18,16,Jits_ISO_5,31,9999,9999,9999,9999,2070940728
18,16,Jits_ISO_5,32,9999,9999,9999,9999,2071440476
18,16,Jits_ISO_5,33,9999,9999,9999,9999,2071940148
18,16,Jits_ISO_5,34,9999,9999,9999,9999,2072440920
18,16,Jits_ISO_5,35,9999,9999,9999,9999,2072940664
18,16,Jits_ISO_5,36,9999,9999,9999,9999,2073440308
18,16,Jits_ISO_5,37,9999,9999,9999,9999,2073941088
18,16,Jits_ISO_5,38,9999,9999,9999,9999,2074440800
18,16,Jits_ISO_5,39,9999,9999,9999,9999,2074940500
18,16,Jits_ISO_5,40,9999,9999,9999,9999,2075440236
18,16,Jits_ISO_5,41,9999,9999,9999,9999,2075940928
18,16,Jits_ISO_5,42,9999,9999,9999,9999,2076440640
18,16,Jits_ISO_5,43,9999,9999,9999,9999,2076940372
18,16,Jits_ISO_5,44,9999,9999,9999,9999,2077440108
18,16,Jits_ISO_5,45,9999,9999,9999,9999,2077940788
18,16,Jits_ISO_5,46,9999,9999,9999,9999,2078440556
18,16,Jits_ISO_5,47,9999,9999,9999,9999,2078940224
18,16,Jits_ISO_5,48,9999,9999,9999,9999,2079440984
18,16,Jits_ISO_5,49,9999,9999,9999,9999,2079940700
18,16,Jits_ISO_5,50,9999,9999,9999,9999,2080440424
18,16,Jits_ISO_5,51,9999,9999,9999,9999,2080940100
18,16,Jits_ISO_5,52,9999,9999,9999,9999,2081440856
18,16,Jits_ISO_5,53,9999,9999,9999,9999,2081940536
18,16,Jits_ISO_5,54,9999,9999,9999,9999,2082440268
18,16,Jits_ISO_5,55,9999,9999,9999,9999,2082941036
18,16,Jits_ISO_5,56,9999,9999,9999,9999,2083440692
18,16,Jits_ISO_5,57,9999,9999,9999,9999,2083940432
18,16,Jits_ISO_5,58,9999,9999,9999,9999,2084440168
18,16,Jits_ISO_5,59,9999,9999,9999,9999,2084940872
18,16,Jits_ISO_5,60,9999,9999,9999,9999,2085440624
18,16,Jits_ISO_5,61,9999,9999,9999,9999,2085940280
18,16,Jits_ISO_5,62,9999,9999,9999,9999,2086441076
18,16,Jits_ISO_5,63,9999,9999,9999,9999,2086940736
18,16,Jits_ISO_5,64,9999,9999,9999,9999,2087440444
18,16,Jits_ISO_5,65,9999,9999,9999,9999,2087940204
18,16,Jits_ISO_5,66,9999,9999,9999,9999,2088440892
18,16,Jits_ISO_5,67,9999,9999,9999,9999,2088940624
18,16,Jits_ISO_5,68,9999,9999,9999,9999,2089440376
18,16,Jits_ISO_5,69,9999,9999,9999,9999,2089941080
18,16,Jits_ISO_5,70,9999,9999,9999,9999,2090440804
18,16,Jits_ISO_5,71,9999,9999,9999,9999,2090940528
18,16,Jits_ISO_5,72,9999,9999,9999,9999,2091440224
18,16,Jits_ISO_5,73,9999,9999,9999,9999,2091940980
18,16,Jits_ISO_5,74,9999,9999,9999,9999,2092440656
18,16,Jits_ISO_5,75,9999,9999,9999,9999,2092940352
18,16,Jits_ISO_5,76,9999,9999,9999,9999,2093440080
18,16,Jits_ISO_5,77,9999,9999,9999,9999,2093940840
18,16,Jits_ISO_5,78,9999,9999,9999,9999,2094440524
18,16,Jits_ISO_5,79,9999,9999,9999,9999,2094940212
18,16,Jits_ISO_5,80,9999,9999,9999,9999,2095441008
18,16,Jits_ISO_5,81,9999,9999,9999,9999,2095940684
18,16,Jits_ISO_5,82,9999,9999,9999,9999,2096440380
18,16,Jits_ISO_5,83,9999,9999,9999,9999,2096940092
18,16,Jits_ISO_5,84,9999,9999,9999,9999,2097440820
18,16,Jits_ISO_5,85,9999,9999,9999,9999,2097940592
18,16,Jits_ISO_5,86,9999,9999,9999,9999,2098440296
18,16,Jits_ISO_5,87,9999,9999,9999,9999,2098941032
18,16,Jits_ISO_5,88,9999,9999,9999,9999,2099440716
18,16,Jits_ISO_5,89,9999,9999,9999,9999,2099940428
18,16,Jits_ISO_5,90,9999,9999,9999,9999,2100440172
18,16,Jits_ISO_5,91,9999,9999,9999,9999,2100940864
18,16,Jits_ISO_5,92,9999,9999,9999,9999,2101440616
18,16,Jits_ISO_5,93,9999,9999,9999,9999,2101940288
18,16,Jits_ISO_5,94,9999,9999,9999,9999,2102441080
18,16,Jits_ISO_5,95,9999,9999,9999,9999,2102940752
18,16,Jits_ISO_5,96,9999,9999,9999,9999,2103440448
18,16,Jits_ISO_5,97,9999,9999,9999,9999,2103940172
18,16,Jits_ISO_5,98,9999,9999,9999,9999,2104440908
18,16,Jits_ISO_5,99,9999,9999,9999,9999,2104940644
18,16,Jits_ISO_5,100,9999,9999,9999,9999,2105440336
18,16,Jits_ISO_5,101,9999,9999,9999,9999,2105941096
18,16,Jits_ISO_5,102,9999,9999,9999,9999,2106440760
18,16,Jits_ISO_5,103,9999,9999,9999,9999,2106940536
18,16,Jits_ISO_5,104,9999,9999,9999,9999,2107440244
18,16,Jits_ISO_5,105,9999,9999,9999,9999,2107940960
18,16,Jits_ISO_5,106,9999,9999,9999,9999,2108440632
18,16,Jits_ISO_5,107,9999,9999,9999,9999,2108940376
18,16,Jits_ISO_5,108,9999,9999,9999,9999,2109440056
18,16,Jits_ISO_5,109,9999,9999,9999,9999,2109940852
18,16,Jits_ISO_5,110,9999,9999,9999,9999,2110440540
18,16,Jits_ISO_5,111,9999,9999,9999,9999,2110940236
18,16,Jits_ISO_5,112,9999,9999,9999,9999,2111441012
18,16,Jits_ISO_5,113,9999,9999,9999,9999,2111940724
18,16,Jits_ISO_5,114,9999,9999,9999,9999,2112440396
18,16,Jits_ISO_5,115,9999,9999,9999,9999,2112940080
18,16,Jits_ISO_5,116,9999,9999,9999,9999,2113440840
18,16,Jits_ISO_5,117,9999,9999,9999,9999,2113940600
18,16,Jits_ISO_5,118,9999,9999,9999,9999,2114440288
18,16,Jits_ISO_5,119,9999,9999,9999,9999,2114941044
19,7,Jits_ISO_8,0,5,56,103,2123873500
19,7,Jits_ISO_8,1,5,63,98,2123876752
19,7,Jits_ISO_8,2,5,80,127,2123879876
19,7,Jits_ISO_8,0,5,56,103,2124674428
19,7,Jits_ISO_8,1,5,63,98,2124677452
19,7,Jits_ISO_8,2,5,80,127,2124680648
19,7,Jits_ISO_8,3,1,48,29,2124900944
19,7,Jits_ISO_8,0,5,80,127,2125413812
19,7,Jits_ISO_8,1,1,48,45,2125438208
19,7,Jits_ISO_8,2,5,63,98,2125503744
19,7,Jits_ISO_8,3,5,56,103,2125514164
19,7,Jits_ISO_8,0,1,48,47,2126177464
19,7,Jits_ISO_8,1,5,56,103,2126233860
19,7,Jits_ISO_8,2,5,63,98,2126244352
19,7,Jits_ISO_8,3,5,80,127,2126334396
19,7,Jits_ISO_8,0,1,48,51,2126993980
19,7,Jits_ISO_8,1,5,63,98,2127003972
19,7,Jits_ISO_8,2,5,80,127,2127033720
19,7,Jits_ISO_8,3,5,56,103,2127064592
19,7,Jits_ISO_8,0,1,48,51,2127752332
19,7,Jits_ISO_8,1,1,48,36,2127798748
19,7,Jits_ISO_8,2,5,56,103,2127803800
19,7,Jits_ISO_8,3,5,80,127,2127903964
19,7,Jits_ISO_8,4,5,63,98,2127954536
19,7,Jits_ISO_8,0,5,56,103,2128603540
19,7,Jits_ISO_8,1,5,80,127,2128653596
19,7,Jits_ISO_8,2,1,48,42,2128684884
19,7,Jits_ISO_8,3,5,63,98,2128693676
19,7,Jits_ISO_8,0,5,80,127,2129433980
19,7,Jits_ISO_8,1,5,63,98,2129463584
19,7,Jits_ISO_8,2,1,48,46,2129477864
19,7,Jits_ISO_8,3,1,48,33,2129527360
19,7,Jits_ISO_8,4,5,56,103,2129534432
19,7,Jits_ISO_8,0,1,48,39,2130233000
19,7,Jits_ISO_8,1,5,63,98,2130264636
19,7,Jits_ISO_8,2,5,56,103,2130294092
19,7,Jits_ISO_8,3,5,80,127,2130353520
19,7,Jits_ISO_8,0,5,56,103,2131003744
19,7,Jits_ISO_8,1,5,80,127,2131006960
19,7,Jits_ISO_8,2,1,48,38,2131029340
19,7,Jits_ISO_8,3,1,48,25,2131082468
19,7,Jits_ISO_8,4,5,63,98,2131123544
19,7,Jits_ISO_8,0,1,48,30,2131829636
19,7,Jits_ISO_8,1,5,56,103,2131884540
19,7,Jits_ISO_8,2,5,80,127,2131924328
19,7,Jits_ISO_8,3,5,63,98,2131933612
19,7,Jits_ISO_8,0,1,48,30,2132624364
19,7,Jits_ISO_8,1,5,56,103,2132644468
19,7,Jits_ISO_8,2,5,80,127,2132663732
19,7,Jits_ISO_8,3,5,63,98,2132743512
19,7,Jits_ISO_8,0,1,48,44,2133433320
19,7,Jits_ISO_8,1,5,80,127,2133434884
19,7,Jits_ISO_8,2,1,48,35,2133468108
19,7,Jits_ISO_8,3,5,56,103,2133533996
19,7,Jits_ISO_8,4,5,63,98,2133544488
19,7,Jits_ISO_8,0,5,63,98,2134203740
19,7,Jits_ISO_8,1,5,80,127,2134264580
19,7,Jits_ISO_8,2,5,56,103,2134274552
19,7,Jits_ISO_8,3,1,48,38,2134300440
19,7,Jits_ISO_8,0,5,56,103,2135003596
19,7,Jits_ISO_8,1,1,48,40,2135008364
19,7,Jits_ISO_8,2,5,63,98,2135074316
19,7,Jits_ISO_8,3,5,80,127,2135077680
19,7,Jits_ISO_8,0,1,48,28,2135804772
19,7,Jits_ISO_8,1,5,63,98,2135833944
19,7,Jits_ISO_8,2,5,56,103,2135884220
19,7,Jits_ISO_8,3,5,80,127,2135887364
19,7,Jits_ISO_8,0,5,56,103,2136593716
19,7,Jits_ISO_8,1,5,80,127,2136596784
19,7,Jits_ISO_8,2,1,48,32,2136655200
19,7,Jits_ISO_8,3,5,63,98,2136683916
19,7,Jits_ISO_8,0,1,48,35,2137411436
19,7,Jits_ISO_8,1,5,63,98,2137433576
19,7,Jits_ISO_8,2,5,56,103,2137523504
19,7,Jits_ISO_8,3,5,80,127,2137554224
19,7,Jits_ISO_8,0,5,56,103,2138223932
19,7,Jits_ISO_8,1,1,48,35,2138268356
19,7,Jits_ISO_8,2,5,63,98,2138324424
19,7,Jits_ISO_8,3,5,80,127,2138354248
19,7,Jits_ISO_8,0,5,63,98,2139044288
19,7,Jits_ISO_8,1,5,56,103,2139053440
19,7,Jits_ISO_8,2,1,48,35,2139073868
19,7,Jits_ISO_8,3,5,80,127,2139143564
19,7,Jits_ISO_8,0,1,48,36,2139827028
19,7,Jits_ISO_8,1,5,63,98,2139864448
19,7,Jits_ISO_8,2,5,56,103,2139944376
19,7,Jits_ISO_8,3,5,80,127,2139947372
19,7,Jits_ISO_8,0,5,80,127,2140624228
19,7,Jits_ISO_8,1,5,63,98,2140643716
19,7,Jits_ISO_8,2,1,48,35,2140677176
19,7,Jits_ISO_8,3,5,56,103,2140704320
19,7,Jits_ISO_8,0,1,48,33,2141435748
19,7,Jits_ISO_8,1,5,56,103,2141464024
19,7,Jits_ISO_8,2,5,63,98,2141484336
19,7,Jits_ISO_8,3,5,80,127,2141487700
19,7,Jits_ISO_8,0,5,63,98,2142204244
19,7,Jits_ISO_8,1,5,80,127,2142284340
19,7,Jits_ISO_8,2,1,48,33,2142285676
19,7,Jits_ISO_8,3,5,56,103,2142294380
19,7,Jits_ISO_8,0,1,48,38,2143002500
19,7,Jits_ISO_8,1,5,63,98,2143023504
19,7,Jits_ISO_8,2,5,56,103,2143043812
19,7,Jits_ISO_8,3,5,80,127,2143094384
19,7,Jits_ISO_8,0,1,48,36,2143781964
19,7,Jits_ISO_8,1,5,80,127,2143824328
19,7,Jits_ISO_8,2,5,63,98,2143864272
19,7,Jits_ISO_8,3,5,56,103,2143883620
19,7,Jits_ISO_8,0,1,48,36,2144642700
19,7,Jits_ISO_8,1,5,56,103,2144663776
19,7,Jits_ISO_8,2,5,63,98,2144674272
19,7,Jits_ISO_8,3,5,80,127,2144693608
19,7,Jits_ISO_8,0,5,56,103,2145394232
19,7,Jits_ISO_8,1,5,63,98,2145484320
19,7,Jits_ISO_8,2,1,48,42,2145485732
19,7,Jits_ISO_8,3,5,80,127,2145543656
19,7,Jits_ISO_8,0,5,80,127,2146223504
19,7,Jits_ISO_8,1,5,56,103,2146233776
19,7,Jits_ISO_8,2,1,48,40,2146299372
19,7,Jits_ISO_8,3,5,63,98,2146304348
19,7,Jits_ISO_8,0,1,48,35,2147001476
19,7,Jits_ISO_8,1,5,63,98,2147054012
19,7,Jits_ISO_8,2,5,80,127,2147144132
19,7,Jits_ISO_8,3,5,56,103,2147154480
19,7,Jits_ISO_8,0,5,63,98,2147794396
19,7,Jits_ISO_8,1,5,80,127,2147843404
19,7,Jits_ISO_8,2,1,48,40,2147888400
19,7,Jits_ISO_8,3,5,56,103,2147903784
19,7,Jits_ISO_8,0,5,56,103,2148623696
19,7,Jits_ISO_8,1,1,48,36,2148624888
19,7,Jits_ISO_8,2,5,80,127,2148674192
19,7,Jits_ISO_8,3,5,63,98,2148694352
19,7,Jits_ISO_8,0,5,56,103,2149393748
19,7,Jits_ISO_8,1,1,48,38,2149438820
19,7,Jits_ISO_8,2,5,80,127,2149454208
19,7,Jits_ISO_8,3,5,63,98,2149523692
19,7,Jits_ISO_8,0,5,56,103,2150193472
19,7,Jits_ISO_8,1,5,80,127,2150224344
19,7,Jits_ISO_8,2,1,48,37,2150227540
19,7,Jits_ISO_8,3,5,63,98,2150253788
19,7,Jits_ISO_8,0,1,48,41,2150995032
19,7,Jits_ISO_8,1,5,56,103,2151034316
19,7,Jits_ISO_8,2,5,80,127,2151053604
19,7,Jits_ISO_8,3,5,63,98,2151114276
19,7,Jits_ISO_8,0,1,48,34,2151846236
19,7,Jits_ISO_8,1,5,80,127,2151913768
19,7,Jits_ISO_8,2,5,56,103,2151924336
19,7,Jits_ISO_8,3,5,63,98,2151934312
19,7,Jits_ISO_8,0,5,56,103,2152673784
19,7,Jits_ISO_8,1,5,80,127,2152713500
19,7,Jits_ISO_8,2,1,48,39,2152730468
19,7,Jits_ISO_8,3,5,63,98,2152744288
19,7,Jits_ISO_8,0,5,56,103,2153443692
19,7,Jits_ISO_8,1,5,63,98,2153474416
19,7,Jits_ISO_8,2,5,80,127,2153514280
19,7,Jits_ISO_8,3,1,48,39,2153548632
19,7,Jits_ISO_8,0,5,80,127,2154194264
19,7,Jits_ISO_8,1,5,63,98,2154243420
19,7,Jits_ISO_8,2,5,56,103,2154264028
19,7,Jits_ISO_8,3,1,48,41,2154283408
19,7,Jits_ISO_8,0,5,56,103,2155023876
19,7,Jits_ISO_8,1,1,48,43,2155037708
19,7,Jits_ISO_8,2,5,80,127,2155094448
19,7,Jits_ISO_8,3,5,63,98,2155153728
19,7,Jits_ISO_8,0,5,80,127,2155823452
19,7,Jits_ISO_8,1,1,48,36,2155879160
19,7,Jits_ISO_8,2,5,63,98,2155913604
19,7,Jits_ISO_8,3,5,56,103,2155934288
19,7,Jits_ISO_8,0,5,63,98,2156643560
19,7,Jits_ISO_8,1,5,56,103,2156664240
19,7,Jits_ISO_8,2,5,80,127,2156704056
19,7,Jits_ISO_8,3,1,48,43,2156725076
19,7,Jits_ISO_8,4,1,48,34,2156760780
19,7,Jits_ISO_8,0,5,80,127,2157403476
19,7,Jits_ISO_8,1,5,63,98,2157424308
19,7,Jits_ISO_8,2,1,48,37,2157468432
19,7,Jits_ISO_8,3,5,56,103,2157503976
19,7,Jits_ISO_8,0,5,63,98,2158194056
19,7,Jits_ISO_8,1,1,48,32,2158213468
19,7,Jits_ISO_8,2,5,56,103,2158303616
19,7,Jits_ISO_8,3,5,80,127,2158307416
19,7,Jits_ISO_8,0,1,48,35,2159010372
19,7,Jits_ISO_8,1,5,63,98,2159014156
19,7,Jits_ISO_8,2,5,56,103,2159023452
19,7,Jits_ISO_8,3,5,80,127,2159026592
19,7,Jits_ISO_8,0,1,48,39,2159778448
19,7,Jits_ISO_8,1,5,56,103,2159793540
19,7,Jits_ISO_8,2,5,80,127,2159914380
19,7,Jits_ISO_8,3,5,63,98,2159954392
19,7,Jits_ISO_8,0,1,48,36,2160586108
19,7,Jits_ISO_8,1,5,56,103,2160614080
19,7,Jits_ISO_8,2,5,80,127,2160693492
19,7,Jits_ISO_8,3,5,63,98,2160714172
19,7,Jits_ISO_8,0,5,56,103,2161413348
19,7,Jits_ISO_8,1,1,48,40,2161429124
19,7,Jits_ISO_8,2,5,63,98,2161523984
19,7,Jits_ISO_8,3,5,80,127,2161527356
19,7,Jits_ISO_8,0,5,56,103,2162244156
19,7,Jits_ISO_8,1,1,48,41,2162256120
19,7,Jits_ISO_8,2,5,80,127,2162273900
19,7,Jits_ISO_8,3,5,63,98,2162294060
19,7,Jits_ISO_8,0,5,63,98,2163024176
19,7,Jits_ISO_8,1,5,56,103,2163033400
19,7,Jits_ISO_8,2,5,80,127,2163043820
19,7,Jits_ISO_8,3,1,48,40,2163058028
19,7,Jits_ISO_8,0,5,80,127,2163813764
19,7,Jits_ISO_8,1,1,48,37,2163829612
19,7,Jits_ISO_8,2,5,56,103,2163864060
19,7,Jits_ISO_8,3,5,63,98,2163904000
19,7,Jits_ISO_8,0,1,48,37,2164610844
19,7,Jits_ISO_8,1,5,80,127,2164634256
19,7,Jits_ISO_8,2,5,63,98,2164653372
19,7,Jits_ISO_8,3,5,56,103,2164703572
19,7,Jits_ISO_8,0,1,48,40,2165444308
19,7,Jits_ISO_8,1,5,80,127,2165445572
19,7,Jits_ISO_8,2,5,56,103,2165473536
19,7,Jits_ISO_8,3,5,63,98,2165544320
19,7,Jits_ISO_8,0,5,56,103,2166293996
19,7,Jits_ISO_8,1,1,48,41,2166301452
19,7,Jits_ISO_8,2,5,80,127,2166304184
19,7,Jits_ISO_8,3,5,63,98,2166344124
19,7,Jits_ISO_8,0,5,56,103,2167003516
19,7,Jits_ISO_8,1,5,63,98,2167023904
19,7,Jits_ISO_8,2,5,80,127,2167093508
19,7,Jits_ISO_8,3,1,48,35,2167102924
19,7,Jits_ISO_8,0,5,63,98,2167823688
19,7,Jits_ISO_8,1,1,48,39,2167851076
19,7,Jits_ISO_8,2,5,80,127,2167884076
19,7,Jits_ISO_8,3,5,56,103,2167903708
19,7,Jits_ISO_8,0,1,48,40,2168610392
19,7,Jits_ISO_8,1,5,80,127,2168614248
19,7,Jits_ISO_8,2,5,56,103,2168644220
19,7,Jits_ISO_8,3,5,63,98,2168673824
19,7,Jits_ISO_8,0,5,56,103,2169413960
19,7,Jits_ISO_8,1,1,48,40,2169439404
19,7,Jits_ISO_8,2,5,63,98,2169474372
19,7,Jits_ISO_8,3,5,80,127,2169533924
19,7,Jits_ISO_8,0,5,80,127,2170234212
19,7,Jits_ISO_8,1,1,48,40,2170235548
19,7,Jits_ISO_8,2,5,56,103,2170253692
19,7,Jits_ISO_8,3,5,63,98,2170324272
19,7,Jits_ISO_8,0,5,80,127,2171034088
19,7,Jits_ISO_8,1,1,48,35,2171050388
19,7,Jits_ISO_8,2,5,63,98,2171053492
19,7,Jits_ISO_8,3,5,56,103,2171084288
19,7,Jits_ISO_8,0,5,80,127,2171823468
19,7,Jits_ISO_8,1,5,63,98,2171844076
19,7,Jits_ISO_8,2,1,48,31,2171872148
19,7,Jits_ISO_8,3,5,56,103,2171904308
19,7,Jits_ISO_8,0,5,80,127,2172624160
19,7,Jits_ISO_8,1,1,48,30,2172668632
19,7,Jits_ISO_8,2,5,56,103,2172723508
19,7,Jits_ISO_8,3,5,63,98,2172754156
19,7,Jits_ISO_8,0,5,63,98,2173413848
19,7,Jits_ISO_8,1,5,80,127,2173464124
19,7,Jits_ISO_8,2,5,56,103,2173484288
19,7,Jits_ISO_8,3,1,48,31,2173520732
19,7,Jits_ISO_8,0,5,80,127,2174253564
19,7,Jits_ISO_8,1,1,48,35,2174265148
19,7,Jits_ISO_8,2,5,56,103,2174284128
19,7,Jits_ISO_8,3,5,63,98,2174287344
19,7,Jits_ISO_8,0,1,48,35,2175040052
19,7,Jits_ISO_8,1,5,63,98,2175084140
19,7,Jits_ISO_8,2,5,56,103,2175123956
19,7,Jits_ISO_8,3,5,80,127,2175144252
19,7,Jits_ISO_8,0,5,80,127,2175824148
19,7,Jits_ISO_8,1,1,48,41,2175856484
19,7,Jits_ISO_8,2,5,63,98,2175904112
19,7,Jits_ISO_8,3,5,56,103,2175944200
19,7,Jits_ISO_8,0,5,63,98,2176643456
19,7,Jits_ISO_8,1,1,48,39,2176706884
19,7,Jits_ISO_8,2,5,80,127,2176724368
19,7,Jits_ISO_8,3,5,56,103,2176743928
19,7,Jits_ISO_8,0,5,56,103,2177484000
19,7,Jits_ISO_8,1,5,63,98,2177494568
19,7,Jits_ISO_8,2,1,48,33,2177505408
19,7,Jits_ISO_8,3,5,80,127,2177534424
19,7,Jits_ISO_8,0,5,56,103,2178204152
19,7,Jits_ISO_8,1,5,80,127,2178206996
19,7,Jits_ISO_8,2,1,48,36,2178239108
19,7,Jits_ISO_8,3,5,63,98,2178344156
19,7,Jits_ISO_8,0,5,56,103,2178993380
19,7,Jits_ISO_8,1,1,48,41,2179030948
19,7,Jits_ISO_8,2,5,63,98,2179083880
19,7,Jits_ISO_8,3,5,80,127,2179154144
19,7,Jits_ISO_8,0,1,48,39,2179855032
19,7,Jits_ISO_8,1,5,63,98,2179874004
19,7,Jits_ISO_8,2,5,80,127,2179877228
19,7,Jits_ISO_8,3,5,56,103,2179933504
19,7,Jits_ISO_8,0,1,48,37,2180660192
19,7,Jits_ISO_8,1,5,80,127,2180714096
19,7,Jits_ISO_8,2,5,56,103,2180734212
19,7,Jits_ISO_8,3,5,63,98,2180743656
19,7,Jits_ISO_8,0,5,56,103,2181423468
19,7,Jits_ISO_8,1,5,63,98,2181433884
19,7,Jits_ISO_8,2,5,80,127,2181504416
19,7,Jits_ISO_8,3,1,48,41,2181518844
19,7,Jits_ISO_8,0,5,80,127,2182224236
19,7,Jits_ISO_8,1,1,48,40,2182251172
19,7,Jits_ISO_8,2,5,56,103,2182274308
19,7,Jits_ISO_8,3,5,63,98,2182323536
19,7,Jits_ISO_8,0,1,48,44,2183068004
19,7,Jits_ISO_8,1,5,56,103,2183103996
19,7,Jits_ISO_8,2,5,63,98,2183114040
19,7,Jits_ISO_8,3,5,80,127,2183154056
19,7,Jits_ISO_8,0,5,56,103,2183844080
19,7,Jits_ISO_8,1,1,48,38,2183871708
19,7,Jits_ISO_8,2,5,63,98,2183884084
19,7,Jits_ISO_8,3,5,80,127,2183934288
19,7,Jits_ISO_8,0,5,80,127,2184603940
19,7,Jits_ISO_8,1,1,48,38,2184649608
19,7,Jits_ISO_8,2,5,56,103,2184654212
19,7,Jits_ISO_8,3,5,63,98,2184673700
19,7,Jits_ISO_8,0,5,80,127,2185414000
19,7,Jits_ISO_8,1,1,48,41,2185436748
19,7,Jits_ISO_8,2,5,63,98,2185474612
19,7,Jits_ISO_8,3,5,56,103,2185554316
19,7,Jits_ISO_8,0,5,80,127,2186194244
19,7,Jits_ISO_8,1,5,56,103,2186234112
19,7,Jits_ISO_8,2,5,63,98,2186253896
19,7,Jits_ISO_8,3,1,48,40,2186277020
19,7,Jits_ISO_8,0,1,48,41,2186994008
19,7,Jits_ISO_8,1,5,56,103,2187044084
19,7,Jits_ISO_8,2,5,80,127,2187053308
19,7,Jits_ISO_8,3,5,63,98,2187094276
19,7,Jits_ISO_8,0,1,48,38,2187826076
19,7,Jits_ISO_8,1,5,56,103,2187913868
19,7,Jits_ISO_8,2,5,63,98,2187953492
19,7,Jits_ISO_8,3,5,80,127,2187956780
19,7,Jits_ISO_8,0,5,63,98,2188604020
19,7,Jits_ISO_8,1,5,80,127,2188643884
19,7,Jits_ISO_8,2,1,48,40,2188696704
19,7,Jits_ISO_8,3,5,56,103,2188714332
19,7,Jits_ISO_8,0,5,63,98,2189394212
19,7,Jits_ISO_8,1,1,48,42,2189467784
19,7,Jits_ISO_8,2,5,56,103,2189474104
19,7,Jits_ISO_8,3,5,80,127,2189533744
19,7,Jits_ISO_8,0,5,80,127,2190204256
19,7,Jits_ISO_8,1,5,63,98,2190253416
19,7,Jits_ISO_8,2,5,56,103,2190284136
19,7,Jits_ISO_8,3,1,48,43,2190288376
19,7,Jits_ISO_8,0,5,56,103,2190993716
19,7,Jits_ISO_8,1,5,63,98,2191043844
19,7,Jits_ISO_8,2,5,80,127,2191054112
19,7,Jits_ISO_8,3,1,48,38,2191055524
19,7,Jits_ISO_8,0,5,56,103,2191803920
19,7,Jits_ISO_8,1,1,48,39,2191826968
19,7,Jits_ISO_8,2,5,63,98,2191914424
19,7,Jits_ISO_8,3,5,80,127,2191933824
19,7,Jits_ISO_8,0,1,48,36,2192599932
19,7,Jits_ISO_8,1,5,63,98,2192603712
19,7,Jits_ISO_8,2,5,80,127,2192653768
19,7,Jits_ISO_8,3,5,56,103,2192743884
19,7,Jits_ISO_8,0,5,63,98,2193393984
19,7,Jits_ISO_8,1,1,48,36,2193423964
19,7,Jits_ISO_8,2,5,80,127,2193425224
19,7,Jits_ISO_8,3,5,56,103,2193513792
19,7,Jits_ISO_8,0,5,63,98,2194193772
19,7,Jits_ISO_8,1,5,56,103,2194203892
19,7,Jits_ISO_8,2,1,48,41,2194235104
19,7,Jits_ISO_8,3,5,80,127,2194304232
19,7,Jits_ISO_8,0,1,48,41,2194997108
19,7,Jits_ISO_8,1,5,63,98,2195093964
19,7,Jits_ISO_8,2,5,80,127,2195123848
19,7,Jits_ISO_8,3,5,56,103,2195154200
19,7,Jits_ISO_8,0,1,48,38,2195888556
19,7,Jits_ISO_8,1,5,80,127,2195914060
19,7,Jits_ISO_8,2,5,63,98,2195924332
19,7,Jits_ISO_8,3,5,56,103,2195954004
19,7,Jits_ISO_8,0,5,80,127,2196613760
19,7,Jits_ISO_8,1,5,63,98,2196633924
19,7,Jits_ISO_8,2,5,56,103,2196684272
19,7,Jits_ISO_8,3,1,48,40,2196689340
19,7,Jits_ISO_8,0,5,63,98,2197443900
19,7,Jits_ISO_8,1,1,48,39,2197498116
19,7,Jits_ISO_8,2,5,80,127,2197504656
19,7,Jits_ISO_8,3,5,56,103,2197523772
19,7,Jits_ISO_8,0,5,63,98,2198203752
19,7,Jits_ISO_8,1,5,56,103,2198253880
19,7,Jits_ISO_8,2,5,80,127,2198264076
19,7,Jits_ISO_8,3,1,48,38,2198273568
19,7,Jits_ISO_8,0,5,56,103,2199034176
19,7,Jits_ISO_8,1,5,80,127,2199043696
19,7,Jits_ISO_8,2,1,48,36,2199093944
19,7,Jits_ISO_8,3,5,63,98,2199143788
19,7,Jits_ISO_8,0,5,80,127,2199794116
19,7,Jits_ISO_8,1,5,63,98,2199804240
19,7,Jits_ISO_8,2,1,48,36,2199938860
19,7,Jits_ISO_8,3,5,56,103,2199953800
19,7,Jits_ISO_8,0,5,63,98,2200604028
19,7,Jits_ISO_8,1,5,80,127,2200643896
19,7,Jits_ISO_8,2,1,48,39,2200679072
19,7,Jits_ISO_8,3,5,56,103,2200723928
19,7,Jits_ISO_8,0,5,56,103,2201393620
19,7,Jits_ISO_8,1,1,48,41,2201456376
19,7,Jits_ISO_8,2,5,80,127,2201494040
19,7,Jits_ISO_8,3,5,63,98,2201514720
19,7,Jits_ISO_8,0,5,80,127,2202253760
19,7,Jits_ISO_8,1,1,48,38,2202257780
19,7,Jits_ISO_8,2,5,56,103,2202263800
19,7,Jits_ISO_8,3,5,63,98,2202354064
19,7,Jits_ISO_8,0,5,56,103,2203053632
19,7,Jits_ISO_8,1,5,63,98,2203073796
19,7,Jits_ISO_8,2,5,80,127,2203153812
19,7,Jits_ISO_8,3,1,48,43,2203180896
19,7,Jits_ISO_8,0,5,63,98,2203803984
19,7,Jits_ISO_8,1,5,56,103,2203894192
19,7,Jits_ISO_8,2,5,80,127,2203897484
19,7,Jits_ISO_8,3,1,48,43,2203928176
19,7,Jits_ISO_8,0,5,56,103,2204633652
19,7,Jits_ISO_8,1,1,48,37,2204662552
19,7,Jits_ISO_8,2,5,80,127,2204693816
19,7,Jits_ISO_8,3,5,63,98,2204704160
19,7,Jits_ISO_8,0,1,48,41,2205403972
19,7,Jits_ISO_8,1,5,80,127,2205484540
19,7,Jits_ISO_8,2,5,56,103,2205493688
19,7,Jits_ISO_8,3,5,63,98,2205496832
19,7,Jits_ISO_8,0,1,48,39,2206242728
19,7,Jits_ISO_8,1,5,56,103,2206244160
19,7,Jits_ISO_8,2,5,80,127,2206253608
19,7,Jits_ISO_8,3,5,63,98,2206273768
19,7,Jits_ISO_8,0,1,48,39,2207014280
19,7,Jits_ISO_8,1,5,63,98,2207015544
19,7,Jits_ISO_8,2,5,80,127,2207073620
19,7,Jits_ISO_8,3,5,56,103,2207123680
19,7,Jits_ISO_8,0,1,48,43,2207873256
19,7,Jits_ISO_8,1,5,63,98,2207893804
19,7,Jits_ISO_8,2,5,56,103,2207904076
19,7,Jits_ISO_8,3,5,80,127,2207954424
19,7,Jits_ISO_8,0,5,63,98,2208594300
19,7,Jits_ISO_8,1,5,80,127,2208613716
19,7,Jits_ISO_8,2,5,56,103,2208623908
19,7,Jits_ISO_8,3,1,48,41,2208725936
19,7,Jits_ISO_8,0,5,63,98,2209393996
19,7,Jits_ISO_8,1,5,80,127,2209397436
19,7,Jits_ISO_8,2,5,56,103,2209433884
19,7,Jits_ISO_8,3,1,48,37,2209507272
19,7,Jits_ISO_8,0,5,63,98,2210264440
19,7,Jits_ISO_8,1,1,48,40,2210267108
19,7,Jits_ISO_8,2,5,80,127,2210294184
19,7,Jits_ISO_8,3,5,56,103,2210304456
19,7,Jits_ISO_8,0,5,56,103,2211013956
19,7,Jits_ISO_8,1,5,80,127,2211043708
19,7,Jits_ISO_8,2,5,63,98,2211074504
19,7,Jits_ISO_8,3,1,48,41,2211082872
19,7,Jits_ISO_8,0,1,48,37,2211842276
19,7,Jits_ISO_8,1,5,63,98,2211913996
19,7,Jits_ISO_8,2,5,56,103,2211954068
19,7,Jits_ISO_8,3,5,80,127,2211957208
19,7,Jits_ISO_8,0,5,80,127,2212613460
19,7,Jits_ISO_8,1,5,56,103,2212694380
19,7,Jits_ISO_8,2,1,48,42,2212695344
19,7,Jits_ISO_8,3,5,63,98,2212743628
19,7,Jits_ISO_8,0,5,80,127,2213393628
19,7,Jits_ISO_8,1,5,56,103,2213414460
19,7,Jits_ISO_8,2,1,48,40,2213498192
19,7,Jits_ISO_8,3,5,63,98,2213504464
19,7,Jits_ISO_8,0,5,80,127,2214233580
19,7,Jits_ISO_8,1,5,63,98,2214274516
19,7,Jits_ISO_8,2,5,56,103,2214314452
19,7,Jits_ISO_8,3,1,48,40,2214324992
19,7,Jits_ISO_8,0,5,63,98,2215003560
19,7,Jits_ISO_8,1,5,80,127,2215063904
19,7,Jits_ISO_8,2,5,56,103,2215093652
19,7,Jits_ISO_8,3,1,48,38,2215108528
19,7,Jits_ISO_8,0,5,56,103,2215804488
19,7,Jits_ISO_8,1,5,80,127,2215833868
19,7,Jits_ISO_8,2,1,48,41,2215876620
19,7,Jits_ISO_8,3,5,63,98,2215924064
19,7,Jits_ISO_8,0,5,56,103,2216614696
19,7,Jits_ISO_8,1,1,48,39,2216675660
19,7,Jits_ISO_8,2,5,80,127,2216723936
19,7,Jits_ISO_8,3,5,63,98,2216753536
19,7,Jits_ISO_8,0,5,56,103,2217464324
19,7,Jits_ISO_8,1,5,63,98,2217523672
19,7,Jits_ISO_8,2,1,48,37,2217524784
19,7,Jits_ISO_8,3,5,80,127,2217554536
19,7,Jits_ISO_8,0,5,56,103,2218234460
19,7,Jits_ISO_8,1,5,63,98,2218303992
19,7,Jits_ISO_8,2,5,80,127,2218324304
19,7,Jits_ISO_8,3,1,48,39,2218329516
19,7,Jits_ISO_8,0,5,80,127,2219004440
19,7,Jits_ISO_8,1,5,63,98,2219023704
19,7,Jits_ISO_8,2,5,56,103,2219073980
19,7,Jits_ISO_8,3,1,48,38,2219151436
19,7,Jits_ISO_8,0,9999,9999,9999,9999,2124271700
19,7,Jits_ISO_8,1,9999,9999,9999,9999,2125071452
19,7,Jits_ISO_8,2,9999,9999,9999,9999,2125871176
19,7,Jits_ISO_8,3,9999,9999,9999,9999,2126671948
19,7,Jits_ISO_8,4,9999,9999,9999,9999,2127471724
19,7,Jits_ISO_8,5,9999,9999,9999,9999,2128271436
19,7,Jits_ISO_8,6,9999,9999,9999,9999,2129071164
19,7,Jits_ISO_8,7,9999,9999,9999,9999,2129871988
19,7,Jits_ISO_8,8,9999,9999,9999,9999,2130671668
19,7,Jits_ISO_8,9,9999,9999,9999,9999,2131471416
19,7,Jits_ISO_8,10,9999,9999,9999,9999,2132271164
19,7,Jits_ISO_8,11,9999,9999,9999,9999,2133071924
19,7,Jits_ISO_8,12,9999,9999,9999,9999,2133871688
19,7,Jits_ISO_8,13,9999,9999,9999,9999,2134671440
19,7,Jits_ISO_8,14,9999,9999,9999,9999,2135471212
19,7,Jits_ISO_8,15,9999,9999,9999,9999,2136271972
19,7,Jits_ISO_8,16,9999,9999,9999,9999,2137071668
19,7,Jits_ISO_8,17,9999,9999,9999,9999,2137871472
19,7,Jits_ISO_8,18,9999,9999,9999,9999,2138671188
19,7,Jits_ISO_8,19,9999,9999,9999,9999,2139471960
19,7,Jits_ISO_8,20,9999,9999,9999,9999,2140271668
19,7,Jits_ISO_8,21,9999,9999,9999,9999,2141071476
19,7,Jits_ISO_8,22,9999,9999,9999,9999,2141871188
19,7,Jits_ISO_8,23,9999,9999,9999,9999,2142671944
19,7,Jits_ISO_8,24,9999,9999,9999,9999,2143471728
19,7,Jits_ISO_8,25,9999,9999,9999,9999,2144271436
19,7,Jits_ISO_8,26,9999,9999,9999,9999,2145071224
19,7,Jits_ISO_8,27,9999,9999,9999,9999,2145871976
19,7,Jits_ISO_8,28,9999,9999,9999,9999,2146671700
19,7,Jits_ISO_8,29,9999,9999,9999,9999,2147471456
19,7,Jits_ISO_8,30,9999,9999,9999,9999,2148271160
19,7,Jits_ISO_8,31,9999,9999,9999,9999,2149071992
19,7,Jits_ISO_8,32,9999,9999,9999,9999,2149871712
19,7,Jits_ISO_8,33,9999,9999,9999,9999,2150671432
19,7,Jits_ISO_8,34,9999,9999,9999,9999,2151471156
19,7,Jits_ISO_8,35,9999,9999,9999,9999,2152271996
19,7,Jits_ISO_8,36,9999,9999,9999,9999,2153071712
19,7,Jits_ISO_8,37,9999,9999,9999,9999,2153871460
19,7,Jits_ISO_8,38,9999,9999,9999,9999,2154671176
19,7,Jits_ISO_8,39,9999,9999,9999,9999,2155471948
19,7,Jits_ISO_8,40,9999,9999,9999,9999,2156271676
19,7,Jits_ISO_8,41,9999,9999,9999,9999,2157071452
19,7,Jits_ISO_8,42,9999,9999,9999,9999,2157871176
19,7,Jits_ISO_8,43,9999,9999,9999,9999,2158671940
19,7,Jits_ISO_8,44,9999,9999,9999,9999,2159471708
19,7,Jits_ISO_8,45,9999,9999,9999,9999,2160271444
19,7,Jits_ISO_8,46,9999,9999,9999,9999,2161071152
19,7,Jits_ISO_8,47,9999,9999,9999,9999,2161871976
19,7,Jits_ISO_8,48,9999,9999,9999,9999,2162671700
19,7,Jits_ISO_8,49,9999,9999,9999,9999,2163471420
19,7,Jits_ISO_8,50,9999,9999,9999,9999,2164271200
19,7,Jits_ISO_8,51,9999,9999,9999,9999,2165071972
19,7,Jits_ISO_8,52,9999,9999,9999,9999,2165871680
19,7,Jits_ISO_8,53,9999,9999,9999,9999,2166671420
19,7,Jits_ISO_8,54,9999,9999,9999,9999,2167471212
19,7,Jits_ISO_8,55,9999,9999,9999,9999,2168271984
19,7,Jits_ISO_8,56,9999,9999,9999,9999,2169071688
19,7,Jits_ISO_8,57,9999,9999,9999,9999,2169871472
19,7,Jits_ISO_8,58,9999,9999,9999,9999,2170671172
19,7,Jits_ISO_8,59,9999,9999,9999,9999,2171471944
19,7,Jits_ISO_8,60,9999,9999,9999,9999,2172271736
19,7,Jits_ISO_8,61,9999,9999,9999,9999,2173071416
19,7,Jits_ISO_8,62,9999,9999,9999,9999,2173871208
19,7,Jits_ISO_8,63,9999,9999,9999,9999,2174671956
19,7,Jits_ISO_8,64,9999,9999,9999,9999,2175471688
19,7,Jits_ISO_8,65,9999,9999,9999,9999,2176271472
19,7,Jits_ISO_8,66,9999,9999,9999,9999,2177071204
19,7,Jits_ISO_8,67,9999,9999,9999,9999,2177871960
19,7,Jits_ISO_8,68,9999,9999,9999,9999,2178671668
19,7,Jits_ISO_8,69,9999,9999,9999,9999,2179471420
19,7,Jits_ISO_8,70,9999,9999,9999,9999,2180271212
19,7,Jits_ISO_8,71,9999,9999,9999,9999,2181071976
19,7,Jits_ISO_8,72,9999,9999,9999,9999,2181871684
19,7,Jits_ISO_8,73,9999,9999,9999,9999,2182671484
19,7,Jits_ISO_8,74,9999,9999,9999,9999,2183471216
19,7,Jits_ISO_8,75,9999,9999,9999,9999,2184271972
19,7,Jits_ISO_8,76,9999,9999,9999,9999,2185071692
19,7,Jits_ISO_8,77,9999,9999,9999,9999,2185871440
19,7,Jits_ISO_8,78,9999,9999,9999,9999,2186671160
19,7,Jits_ISO_8,79,9999,9999,9999,9999,2187471932
19,7,Jits_ISO_8,80,9999,9999,9999,9999,2188271712
19,7,Jits_ISO_8,81,9999,9999,9999,9999,2189071420
19,7,Jits_ISO_8,82,9999,9999,9999,9999,2189871204
19,7,Jits_ISO_8,83,9999,9999,9999,9999,2190671932
19,7,Jits_ISO_8,84,9999,9999,9999,9999,2191471724
19,7,Jits_ISO_8,85,9999,9999,9999,9999,2192271472
19,7,Jits_ISO_8,86,9999,9999,9999,9999,2193071196
19,7,Jits_ISO_8,87,9999,9999,9999,9999,2193871952
19,7,Jits_ISO_8,88,9999,9999,9999,9999,2194671728
19,7,Jits_ISO_8,89,9999,9999,9999,9999,2195471448
19,7,Jits_ISO_8,90,9999,9999,9999,9999,2196271164
19,7,Jits_ISO_8,91,9999,9999,9999,9999,2197071992
19,7,Jits_ISO_8,92,9999,9999,9999,9999,2197871716
19,7,Jits_ISO_8,93,9999,9999,9999,9999,2198671448
19,7,Jits_ISO_8,94,9999,9999,9999,9999,2199471164
19,7,Jits_ISO_8,95,9999,9999,9999,9999,2200271932
19,7,Jits_ISO_8,96,9999,9999,9999,9999,2201071728
19,7,Jits_ISO_8,97,9999,9999,9999,9999,2201871436
19,7,Jits_ISO_8,98,9999,9999,9999,9999,2202671168
19,7,Jits_ISO_8,99,9999,9999,9999,9999,2203471940
19,7,Jits_ISO_8,100,9999,9999,9999,9999,2204271724
19,7,Jits_ISO_8,101,9999,9999,9999,9999,2205071460
19,7,Jits_ISO_8,102,9999,9999,9999,9999,2205871176
19,7,Jits_ISO_8,103,9999,9999,9999,9999,2206671932
19,7,Jits_ISO_8,104,9999,9999,9999,9999,2207471720
19,7,Jits_ISO_8,105,9999,9999,9999,9999,2208271436
19,7,Jits_ISO_8,106,9999,9999,9999,9999,2209071212
19,7,Jits_ISO_8,107,9999,9999,9999,9999,2209871948
19,7,Jits_ISO_8,108,9999,9999,9999,9999,2210671732
19,7,Jits_ISO_8,109,9999,9999,9999,9999,2211471464
19,7,Jits_ISO_8,110,9999,9999,9999,9999,2212271192
19,7,Jits_ISO_8,111,9999,9999,9999,9999,2213071948
19,7,Jits_ISO_8,112,9999,9999,9999,9999,2213871736
19,7,Jits_ISO_8,113,9999,9999,9999,9999,2214671464
19,7,Jits_ISO_8,114,9999,9999,9999,9999,2215471188
19,7,Jits_ISO_8,115,9999,9999,9999,9999,2216271940
19,7,Jits_ISO_8,116,9999,9999,9999,9999,2217071668
19,7,Jits_ISO_8,117,9999,9999,9999,9999,2217871420
19,7,Jits_ISO_8,118,9999,9999,9999,9999,2218671224
19,7,Jits_ISO_8,119,9999,9999,9999,9999,2219471988
20,5,ISIP_5,0,5,42,127,2281777456
20,5,ISIP_5,1,5,42,127,2282278368
20,5,ISIP_5,2,1,48,32,2282743632
20,5,ISIP_5,3,5,42,127,2282777928
20,5,ISIP_5,4,1,48,38,2283275272
20,5,ISIP_5,5,5,42,127,2283277696
20,5,ISIP_5,6,5,42,127,2283778668
20,5,ISIP_5,7,1,48,36,2283807368
20,5,ISIP_5,8,5,42,127,2284278068
20,5,ISIP_5,9,1,48,33,2284320008
20,5,ISIP_5,10,5,42,127,2284777760
20,5,ISIP_5,11,1,48,33,2284778800
20,5,ISIP_5,12,1,48,37,2285277976
20,5,ISIP_5,13,5,42,127,2285279164
20,5,ISIP_5,14,1,48,36,2285766408
20,5,ISIP_5,15,5,42,127,2285778564
20,5,ISIP_5,16,1,48,38,2286274112
20,5,ISIP_5,17,5,42,127,2286277888
20,5,ISIP_5,18,5,42,127,2286777588
20,5,ISIP_5,19,1,48,38,2286788484
20,5,ISIP_5,20,5,42,127,2287277508
20,5,ISIP_5,21,1,48,38,2287299324
20,5,ISIP_5,22,5,42,127,2287778100
20,5,ISIP_5,23,1,48,40,2287784880
20,5,ISIP_5,24,5,42,127,2288277796
20,5,ISIP_5,25,1,48,37,2288280912
20,5,ISIP_5,26,5,42,127,2288777640
20,5,ISIP_5,27,1,48,36,2288802076
20,5,ISIP_5,28,5,42,127,2289278604
20,5,ISIP_5,29,1,48,36,2289303940
20,5,ISIP_5,30,5,42,127,2289777976
20,5,ISIP_5,31,1,48,38,2289801160
20,5,ISIP_5,32,1,48,37,2290271348
20,5,ISIP_5,33,5,42,127,2290277664
20,5,ISIP_5,34,1,48,34,2290769620
20,5,ISIP_5,35,5,42,127,2290777508
20,5,ISIP_5,36,5,42,127,2291278404
20,5,ISIP_5,37,1,48,33,2291285340
20,5,ISIP_5,38,1,48,43,2291753080
20,5,ISIP_5,39,5,42,127,2291777796
20,5,ISIP_5,40,1,48,45,2292250452
20,5,ISIP_5,41,5,42,127,2292277492
20,5,ISIP_5,42,1,48,38,2292748728
20,5,ISIP_5,43,5,42,127,2292778604
20,5,ISIP_5,44,1,48,43,2293246176
20,5,ISIP_5,45,5,42,127,2293277928
20,5,ISIP_5,46,1,48,37,2293755444
20,5,ISIP_5,47,5,42,127,2293777768
20,5,ISIP_5,48,1,48,37,2294255436
20,5,ISIP_5,49,5,42,127,2294277464
20,5,ISIP_5,50,5,42,127,2294778436
20,5,ISIP_5,51,1,48,36,2294791656
20,5,ISIP_5,52,1,48,32,2295276012
20,5,ISIP_5,53,5,42,127,2295277900
20,5,ISIP_5,54,1,48,32,2295775628
20,5,ISIP_5,55,5,42,127,2295777596
20,5,ISIP_5,56,5,42,127,2296278496
20,5,ISIP_5,57,1,48,39,2296288424
20,5,ISIP_5,58,1,48,38,2296771488
20,5,ISIP_5,59,5,42,127,2296777960
20,5,ISIP_5,60,5,42,127,2297277736
20,5,ISIP_5,61,1,48,31,2297282348
20,5,ISIP_5,62,1,48,42,2297744552
20,5,ISIP_5,63,5,42,127,2297777644
20,5,ISIP_5,64,1,48,40,2298264596
20,5,ISIP_5,65,5,42,127,2298278388
20,5,ISIP_5,66,1,48,41,2298744316
20,5,ISIP_5,67,5,42,127,2298778084
20,5,ISIP_5,68,1,48,38,2299247572
20,5,ISIP_5,69,5,42,127,2299277628
20,5,ISIP_5,70,1,48,41,2299755048
20,5,ISIP_5,71,5,42,127,2299778372
20,5,ISIP_5,72,1,48,40,2300258564
20,5,ISIP_5,73,5,42,127,2300278340
20,5,ISIP_5,74,1,48,40,2300754364
20,5,ISIP_5,75,5,42,127,2300777884
20,5,ISIP_5,76,1,48,38,2301261840
20,5,ISIP_5,77,5,42,127,2301277432
20,5,ISIP_5,78,1,48,36,2301772228
20,5,ISIP_5,79,1,48,42,2302269224
20,5,ISIP_5,80,1,48,43,2302777384
20,5,ISIP_5,81,1,48,40,2303279392
20,5,ISIP_5,82,1,48,43,2303796884
20,5,ISIP_5,83,1,48,38,2304266864
20,5,ISIP_5,84,1,48,43,2304765060
20,5,ISIP_5,85,1,48,43,2305287580
20,5,ISIP_5,86,1,48,43,2305763768
20,5,ISIP_5,87,1,48,43,2306291824
20,5,ISIP_5,88,1,48,43,2306810888
20,5,ISIP_5,89,1,48,44,2307309756
20,5,ISIP_5,90,1,48,47,2307815504
20,5,ISIP_5,91,1,48,33,2307854000
20,5,ISIP_5,92,1,48,39,2308308440
20,5,ISIP_5,93,1,48,42,2308825028
20,5,ISIP_5,94,1,48,39,2309306096
20,5,ISIP_5,95,1,48,42,2309822096
20,5,ISIP_5,96,1,48,44,2310308768
20,5,ISIP_5,97,1,48,43,2310794628
20,5,ISIP_5,98,1,48,46,2311335304
20,5,ISIP_5,99,1,48,35,2311370660
20,5,ISIP_5,100,1,48,42,2311831984
20,5,ISIP_5,101,1,48,41,2312335260
20,5,ISIP_5,102,1,48,46,2312824556
20,5,ISIP_5,103,1,48,43,2313299244
20,5,ISIP_5,104,1,48,47,2313841116
20,5,ISIP_5,105,1,48,44,2314339536
20,5,ISIP_5,106,1,48,46,2314807440
20,5,ISIP_5,107,1,48,34,2314846536
20,5,ISIP_5,108,1,48,46,2315333664
20,5,ISIP_5,109,1,48,34,2315374928
20,5,ISIP_5,110,1,48,46,2315828692
20,5,ISIP_5,111,1,48,44,2316337056
20,5,ISIP_5,112,1,48,27,2316387000
20,5,ISIP_5,113,1,48,46,2316844280
20,5,ISIP_5,114,1,48,33,2316891456
20,5,ISIP_5,115,1,48,45,2317358684
20,5,ISIP_5,116,1,48,31,2317402716
20,5,ISIP_5,117,1,48,43,2317832248
20,5,ISIP_5,118,1,48,46,2318338148
20,5,ISIP_5,119,1,48,47,2318811808
20,5,ISIP_5,120,1,48,35,2318849708
20,5,ISIP_5,121,1,48,44,2319296816
20,5,ISIP_5,122,1,48,41,2319792616
20,5,ISIP_5,123,1,48,43,2320284452
20,5,ISIP_5,124,1,48,47,2320778908
20,5,ISIP_5,125,1,48,33,2320820172
20,5,ISIP_5,126,1,48,45,2321294436
20,5,ISIP_5,127,1,48,45,2321774560
20,5,ISIP_5,128,1,48,45,2322269988
20,5,ISIP_5,129,1,48,35,2322307928
20,5,ISIP_5,130,1,48,43,2322769880
20,5,ISIP_5,131,1,48,43,2323300780
20,5,ISIP_5,132,1,48,43,2323799052
20,5,ISIP_5,133,1,48,47,2324279964
20,5,ISIP_5,134,1,48,48,2324783172
20,5,ISIP_5,135,1,48,36,2324818600
20,5,ISIP_5,136,1,48,49,2325303484
20,5,ISIP_5,137,1,48,51,2325825384
20,5,ISIP_5,138,1,48,38,2325860524
20,5,ISIP_5,139,1,48,44,2326322220
20,5,ISIP_5,140,1,48,46,2326823104
20,5,ISIP_5,141,1,48,38,2326853000
20,5,ISIP_5,142,1,48,50,2327325536
20,5,ISIP_5,143,1,48,38,2327359324
20,5,ISIP_5,144,1,48,47,2327854824
20,5,ISIP_5,145,1,48,50,2328357804
20,5,ISIP_5,146,1,48,40,2328390924
20,5,ISIP_5,147,1,48,48,2328835856
20,5,ISIP_5,148,1,48,38,2328868372
20,5,ISIP_5,149,1,48,48,2329371428
20,5,ISIP_5,150,1,48,37,2329414268
20,5,ISIP_5,151,1,48,43,2329841780
20,5,ISIP_5,152,1,48,51,2330384028
20,5,ISIP_5,153,1,48,41,2330418788
20,5,ISIP_5,154,1,48,48,2330848844
20,5,ISIP_5,155,1,48,36,2330885548
20,5,ISIP_5,156,1,48,47,2331369680
20,5,ISIP_5,157,1,48,33,2331411992
20,5,ISIP_5,158,1,48,47,2331863216
20,5,ISIP_5,159,1,48,35,2331902536
20,5,ISIP_5,160,1,48,43,2332334088
20,5,ISIP_5,161,1,48,47,2332852328
20,5,ISIP_5,162,1,48,50,2333389416
20,5,ISIP_5,163,1,48,36,2333429036
20,5,ISIP_5,164,1,48,53,2333864176
20,5,ISIP_5,165,1,48,40,2333900652
20,5,ISIP_5,166,1,48,49,2334392420
20,5,ISIP_5,167,1,48,37,2334428896
20,5,ISIP_5,168,1,48,45,2334877052
20,5,ISIP_5,169,1,48,43,2335408456
20,5,ISIP_5,170,1,48,48,2335909788
20,5,ISIP_5,171,1,48,37,2335945076
20,5,ISIP_5,172,1,48,46,2336410808
20,5,ISIP_5,173,1,48,35,2336446012
20,5,ISIP_5,174,1,48,46,2336896192
20,5,ISIP_5,175,1,48,45,2337410540
20,5,ISIP_5,176,1,48,34,2337449264
20,5,ISIP_5,177,1,48,43,2337908092
20,5,ISIP_5,178,1,48,47,2338413764
20,5,ISIP_5,179,1,48,33,2338452888
20,5,ISIP_5,180,1,48,48,2338926672
20,5,ISIP_5,181,1,48,36,2338964072
20,5,ISIP_5,182,1,48,50,2339471092
20,5,ISIP_5,183,1,48,47,2339956848
20,5,ISIP_5,184,1,48,37,2339995492
20,5,ISIP_5,185,1,48,46,2340462700
20,5,ISIP_5,186,1,48,38,2340497404
20,5,ISIP_5,187,1,48,46,2340977620
20,5,ISIP_5,188,1,48,36,2341012632
20,5,ISIP_5,189,1,48,47,2341458220
20,5,ISIP_5,190,1,48,36,2341497788
20,5,ISIP_5,191,1,48,51,2342009596
20,5,ISIP_5,192,1,48,40,2342041064
20,5,ISIP_5,193,1,48,48,2342493980
20,5,ISIP_5,194,1,48,36,2342536916
20,5,ISIP_5,195,1,48,45,2343001052
20,5,ISIP_5,196,1,48,51,2343505604
20,5,ISIP_5,197,1,48,37,2343548396
20,5,ISIP_5,198,1,48,46,2343982012
20,5,ISIP_5,199,1,48,52,2344514916
20,5,ISIP_5,200,1,48,39,2344559700
20,5,ISIP_5,201,1,48,49,2345017048
20,5,ISIP_5,202,1,48,40,2345055024
20,5,ISIP_5,203,1,48,47,2345496600
20,5,ISIP_5,204,1,48,38,2345533604
20,5,ISIP_5,205,1,48,49,2346011224
20,5,ISIP_5,206,1,48,40,2346049800
20,5,ISIP_5,207,1,48,51,2346555848
20,5,ISIP_5,208,1,48,40,2346595016
20,5,ISIP_5,209,1,48,50,2347050132
20,5,ISIP_5,210,1,48,43,2347088404
20,5,ISIP_5,211,1,48,49,2347552120
20,5,ISIP_5,212,1,48,39,2347585756
20,5,ISIP_5,213,1,48,46,2348044152
20,5,ISIP_5,214,1,48,38,2348079812
20,5,ISIP_5,215,1,48,48,2348561704
20,5,ISIP_5,216,1,48,39,2348597508
20,5,ISIP_5,217,1,48,47,2349051716
20,5,ISIP_5,218,1,48,40,2349081696
20,5,ISIP_5,219,1,48,48,2349553628
20,5,ISIP_5,220,1,48,51,2350064244
20,5,ISIP_5,221,1,48,41,2350099004
20,5,ISIP_5,222,1,48,49,2350600416
20,5,ISIP_5,223,1,48,40,2350635472
20,5,ISIP_5,224,1,48,54,2351106440
20,5,ISIP_5,225,1,48,43,2351137456
20,5,ISIP_5,226,1,48,50,2351642836
20,5,ISIP_5,227,1,48,39,2351678340
20,5,ISIP_5,228,1,48,51,2352119760
20,5,ISIP_5,229,1,48,39,2352158788
20,5,ISIP_5,230,1,48,51,2352629528
20,5,ISIP_5,231,1,48,41,2352670796
20,5,ISIP_5,232,1,48,49,2353117076
20,5,ISIP_5,233,1,48,39,2353158120
20,5,ISIP_5,234,1,48,47,2353610388
20,5,ISIP_5,235,1,48,36,2353644104
20,5,ISIP_5,236,1,48,46,2354116944
20,5,ISIP_5,237,1,48,36,2354153500
20,5,ISIP_5,238,1,48,51,2354604792
20,5,ISIP_5,239,1,48,40,2354642172
20,5,ISIP_5,240,1,48,50,2355097732
20,5,ISIP_5,241,1,48,38,2355137800
20,5,ISIP_5,242,1,48,48,2355578028
20,5,ISIP_5,243,1,48,38,2355623556
20,5,ISIP_5,244,1,48,50,2356081036
20,5,ISIP_5,245,1,48,42,2356120608
20,5,ISIP_5,246,1,48,47,2356594240
20,5,ISIP_5,247,1,48,35,2356638600
20,5,ISIP_5,248,1,48,46,2357066532
20,5,ISIP_5,249,1,48,36,2357105628
20,5,ISIP_5,250,1,48,50,2357616692
20,5,ISIP_5,251,1,48,50,2358115636
20,5,ISIP_5,252,1,48,38,2358159840
20,5,ISIP_5,253,1,48,51,2358610140
20,5,ISIP_5,254,1,48,43,2358653524
20,5,ISIP_5,255,1,48,49,2359099564
20,5,ISIP_5,256,1,48,38,2359141052
20,5,ISIP_5,257,1,48,48,2359613964
20,5,ISIP_5,258,1,48,35,2359656276
20,5,ISIP_5,259,1,48,53,2360118720
20,5,ISIP_5,260,1,48,41,2360163128
20,5,ISIP_5,261,1,48,54,2360631252
20,5,ISIP_5,262,1,48,42,2360678132
20,5,ISIP_5,263,1,48,54,2361125536
20,5,ISIP_5,264,1,48,43,2361165084
20,5,ISIP_5,265,1,48,52,2361643828
20,5,ISIP_5,266,1,48,44,2361687640
20,5,ISIP_5,0,9999,9999,9999,9999,2281775164
20,5,ISIP_5,1,9999,9999,9999,9999,2282275928
20,5,ISIP_5,2,9999,9999,9999,9999,2282775640
20,5,ISIP_5,3,9999,9999,9999,9999,2283275332
20,5,ISIP_5,4,9999,9999,9999,9999,2283776084
20,5,ISIP_5,5,9999,9999,9999,9999,2284275780
20,5,ISIP_5,6,9999,9999,9999,9999,2284775472
20,5,ISIP_5,7,9999,9999,9999,9999,2285275240
20,5,ISIP_5,8,9999,9999,9999,9999,2285775976
20,5,ISIP_5,9,9999,9999,9999,9999,2286275672
20,5,ISIP_5,10,9999,9999,9999,9999,2286775376
20,5,ISIP_5,11,9999,9999,9999,9999,2287275068
20,5,ISIP_5,12,9999,9999,9999,9999,2287775808
20,5,ISIP_5,13,9999,9999,9999,9999,2288275504
20,5,ISIP_5,14,9999,9999,9999,9999,2288775276
20,5,ISIP_5,15,9999,9999,9999,9999,2289276016
20,5,ISIP_5,16,9999,9999,9999,9999,2289775684
20,5,ISIP_5,17,9999,9999,9999,9999,2290275376
20,5,ISIP_5,18,9999,9999,9999,9999,2290775144
20,5,ISIP_5,19,9999,9999,9999,9999,2291275892
20,5,ISIP_5,20,9999,9999,9999,9999,2291775584
20,5,ISIP_5,21,9999,9999,9999,9999,2292275276
20,5,ISIP_5,22,9999,9999,9999,9999,2292776016
20,5,ISIP_5,23,9999,9999,9999,9999,2293275712
20,5,ISIP_5,24,9999,9999,9999,9999,2293775480
20,5,ISIP_5,25,9999,9999,9999,9999,2294275176
20,5,ISIP_5,26,9999,9999,9999,9999,2294775924
20,5,ISIP_5,27,9999,9999,9999,9999,2295275644
20,5,ISIP_5,28,9999,9999,9999,9999,2295775344
20,5,ISIP_5,29,9999,9999,9999,9999,2296276056
20,5,ISIP_5,30,9999,9999,9999,9999,2296775744
20,5,ISIP_5,31,9999,9999,9999,9999,2297275448
20,5,ISIP_5,32,9999,9999,9999,9999,2297775208
20,5,ISIP_5,33,9999,9999,9999,9999,2298275952
20,5,ISIP_5,34,9999,9999,9999,9999,2298775648
20,5,ISIP_5,35,9999,9999,9999,9999,2299275340
20,5,ISIP_5,36,9999,9999,9999,9999,2299776084
20,5,ISIP_5,37,9999,9999,9999,9999,2300275828
20,5,ISIP_5,38,9999,9999,9999,9999,2300775520
20,5,ISIP_5,39,9999,9999,9999,9999,2301275216
20,5,ISIP_5,40,9999,9999,9999,9999,2301775960
20,5,ISIP_5,41,9999,9999,9999,9999,2302275648
20,5,ISIP_5,42,9999,9999,9999,9999,2302775348
20,5,ISIP_5,43,9999,9999,9999,9999,2303275112
20,5,ISIP_5,44,9999,9999,9999,9999,2303775848
20,5,ISIP_5,45,9999,9999,9999,9999,2304275532
20,5,ISIP_5,46,9999,9999,9999,9999,2304775224
20,5,ISIP_5,47,9999,9999,9999,9999,2305275968
20,5,ISIP_5,48,9999,9999,9999,9999,2305775724
20,5,ISIP_5,49,9999,9999,9999,9999,2306275420
20,5,ISIP_5,50,9999,9999,9999,9999,2306775116
20,5,ISIP_5,51,9999,9999,9999,9999,2307275852
20,5,ISIP_5,52,9999,9999,9999,9999,2307775544
20,5,ISIP_5,53,9999,9999,9999,9999,2308275288
20,5,ISIP_5,54,9999,9999,9999,9999,2308776024
20,5,ISIP_5,55,9999,9999,9999,9999,2309275716
20,5,ISIP_5,56,9999,9999,9999,9999,2309775480
20,5,ISIP_5,57,9999,9999,9999,9999,2310275172
20,5,ISIP_5,58,9999,9999,9999,9999,2310775908
20,5,ISIP_5,59,9999,9999,9999,9999,2311275576
20,5,ISIP_5,60,9999,9999,9999,9999,2311775320
20,5,ISIP_5,61,9999,9999,9999,9999,2312276056
20,5,ISIP_5,62,9999,9999,9999,9999,2312775748
20,5,ISIP_5,63,9999,9999,9999,9999,2313275512
20,5,ISIP_5,64,9999,9999,9999,9999,2313775204
20,5,ISIP_5,65,9999,9999,9999,9999,2314275940
20,5,ISIP_5,66,9999,9999,9999,9999,2314775632
20,5,ISIP_5,67,9999,9999,9999,9999,2315275376
20,5,ISIP_5,68,9999,9999,9999,9999,2315776092
20,5,ISIP_5,69,9999,9999,9999,9999,2316275780
20,5,ISIP_5,70,9999,9999,9999,9999,2316775524
20,5,ISIP_5,71,9999,9999,9999,9999,2317275192
20,5,ISIP_5,72,9999,9999,9999,9999,2317775980
20,5,ISIP_5,73,9999,9999,9999,9999,2318275672
20,5,ISIP_5,74,9999,9999,9999,9999,2318775364
20,5,ISIP_5,75,9999,9999,9999,9999,2319275104
20,5,ISIP_5,76,9999,9999,9999,9999,2319775844
20,5,ISIP_5,77,9999,9999,9999,9999,2320275536
20,5,ISIP_5,78,9999,9999,9999,9999,2320775224
20,5,ISIP_5,79,9999,9999,9999,9999,2321276016
20,5,ISIP_5,80,9999,9999,9999,9999,2321775676
20,5,ISIP_5,81,9999,9999,9999,9999,2322275440
20,5,ISIP_5,82,9999,9999,9999,9999,2322775112
20,5,ISIP_5,83,9999,9999,9999,9999,2323275852
20,5,ISIP_5,84,9999,9999,9999,9999,2323775544
20,5,ISIP_5,85,9999,9999,9999,9999,2324275308
20,5,ISIP_5,86,9999,9999,9999,9999,2324776048
20,5,ISIP_5,87,9999,9999,9999,9999,2325275716
20,5,ISIP_5,88,9999,9999,9999,9999,2325775480
20,5,ISIP_5,89,9999,9999,9999,9999,2326275152
20,5,ISIP_5,90,9999,9999,9999,9999,2326775888
20,5,ISIP_5,91,9999,9999,9999,9999,2327275628
20,5,ISIP_5,92,9999,9999,9999,9999,2327775300
20,5,ISIP_5,93,9999,9999,9999,9999,2328276036
20,5,ISIP_5,94,9999,9999,9999,9999,2328775780
20,5,ISIP_5,95,9999,9999,9999,9999,2329275448
20,5,ISIP_5,96,9999,9999,9999,9999,2329775188
20,5,ISIP_5,97,9999,9999,9999,9999,2330275928
20,5,ISIP_5,98,9999,9999,9999,9999,2330775672
20,5,ISIP_5,99,9999,9999,9999,9999,2331275340
20,5,ISIP_5,100,9999,9999,9999,9999,2331776060
20,5,ISIP_5,101,9999,9999,9999,9999,2332275776
20,5,ISIP_5,102,9999,9999,9999,9999,2332775540
20,5,ISIP_5,103,9999,9999,9999,9999,2333275232
20,5,ISIP_5,104,9999,9999,9999,9999,2333775948
20,5,ISIP_5,105,9999,9999,9999,9999,2334275692
20,5,ISIP_5,106,9999,9999,9999,9999,2334775360
20,5,ISIP_5,107,9999,9999,9999,9999,2335275124
20,5,ISIP_5,108,9999,9999,9999,9999,2335775860
20,5,ISIP_5,109,9999,9999,9999,9999,2336275532
20,5,ISIP_5,110,9999,9999,9999,9999,2336775272
20,5,ISIP_5,111,9999,9999,9999,9999,2337276012
20,5,ISIP_5,112,9999,9999,9999,9999,2337775680
20,5,ISIP_5,113,9999,9999,9999,9999,2338275444
20,5,ISIP_5,114,9999,9999,9999,9999,2338775116
20,5,ISIP_5,115,9999,9999,9999,9999,2339275828
20,5,ISIP_5,116,9999,9999,9999,9999,2339775592
20,5,ISIP_5,117,9999,9999,9999,9999,2340275312
20,5,ISIP_5,118,9999,9999,9999,9999,2340776028
20,5,ISIP_5,119,9999,9999,9999,9999,2341275768
20,5,ISIP_5,120,9999,9999,9999,9999,2341775440
20,5,ISIP_5,121,9999,9999,9999,9999,2342275184
20,5,ISIP_5,122,9999,9999,9999,9999,2342775896
20,5,ISIP_5,123,9999,9999,9999,9999,2343275636
20,5,ISIP_5,124,9999,9999,9999,9999,2343775308
20,5,ISIP_5,125,9999,9999,9999,9999,2344276044
20,5,ISIP_5,126,9999,9999,9999,9999,2344775784
20,5,ISIP_5,127,9999,9999,9999,9999,2345275456
20,5,ISIP_5,128,9999,9999,9999,9999,2345775196
20,5,ISIP_5,129,9999,9999,9999,9999,2346275912
20,5,ISIP_5,130,9999,9999,9999,9999,2346775656
20,5,ISIP_5,131,9999,9999,9999,9999,2347275324
20,5,ISIP_5,132,9999,9999,9999,9999,2347776116
20,5,ISIP_5,133,9999,9999,9999,9999,2348275784
20,5,ISIP_5,134,9999,9999,9999,9999,2348775524
20,5,ISIP_5,135,9999,9999,9999,9999,2349275192
20,5,ISIP_5,136,9999,9999,9999,9999,2349775928
20,5,ISIP_5,137,9999,9999,9999,9999,2350275672
20,5,ISIP_5,138,9999,9999,9999,9999,2350775416
20,5,ISIP_5,139,9999,9999,9999,9999,2351275084
20,5,ISIP_5,140,9999,9999,9999,9999,2351775800
20,5,ISIP_5,141,9999,9999,9999,9999,2352275544
20,5,ISIP_5,142,9999,9999,9999,9999,2352775288
20,5,ISIP_5,143,9999,9999,9999,9999,2353276004
20,5,ISIP_5,144,9999,9999,9999,9999,2353775720
20,5,ISIP_5,145,9999,9999,9999,9999,2354275392
20,5,ISIP_5,146,9999,9999,9999,9999,2354775136
20,5,ISIP_5,147,9999,9999,9999,9999,2355275852
20,5,ISIP_5,148,9999,9999,9999,9999,2355775596
20,5,ISIP_5,149,9999,9999,9999,9999,2356275264
20,5,ISIP_5,150,9999,9999,9999,9999,2356776052
20,5,ISIP_5,151,9999,9999,9999,9999,2357275720
20,5,ISIP_5,152,9999,9999,9999,9999,2357775412
20,5,ISIP_5,153,9999,9999,9999,9999,2358275156
20,5,ISIP_5,154,9999,9999,9999,9999,2358775872
20,5,ISIP_5,155,9999,9999,9999,9999,2359275612
20,5,ISIP_5,156,9999,9999,9999,9999,2359775284
20,5,ISIP_5,157,9999,9999,9999,9999,2360276072
20,5,ISIP_5,158,9999,9999,9999,9999,2360775740
20,5,ISIP_5,159,9999,9999,9999,9999,2361275484
21,3,ISIP_8,0,5,42,127,2387042596
21,3,ISIP_8,1,5,42,127,2387842376
21,3,ISIP_8,2,5,42,127,2388643328
21,3,ISIP_8,3,1,48,42,2388650708
21,3,ISIP_8,4,5,42,127,2389442988
21,3,ISIP_8,5,1,48,43,2389444100
21,3,ISIP_8,6,5,42,127,2390242644
21,3,ISIP_8,7,1,48,47,2390277704
21,3,ISIP_8,8,5,42,127,2391042380
21,3,ISIP_8,9,1,48,43,2391093140
21,3,ISIP_8,10,5,42,127,2391843528
21,3,ISIP_8,11,1,48,46,2391872232
21,3,ISIP_8,12,5,42,127,2392643336
21,3,ISIP_8,13,1,48,46,2392679368
21,3,ISIP_8,14,5,42,127,2393442624
21,3,ISIP_8,15,1,48,50,2393464020
21,3,ISIP_8,16,5,42,127,2394242456
21,3,ISIP_8,17,1,48,48,2394260984
21,3,ISIP_8,18,1,48,44,2395027264
21,3,ISIP_8,19,5,42,127,2395043304
21,3,ISIP_8,20,5,42,127,2395842896
21,3,ISIP_8,21,1,48,43,2395849380
21,3,ISIP_8,22,5,42,127,2396642776
21,3,ISIP_8,23,1,48,44,2396647472
21,3,ISIP_8,24,5,42,127,2397442364
21,3,ISIP_8,25,1,48,35,2397478320
21,3,ISIP_8,26,1,48,46,2398243516
21,3,ISIP_8,27,5,42,127,2398244776
21,3,ISIP_8,28,5,42,127,2399042876
21,3,ISIP_8,29,1,48,43,2399064472
21,3,ISIP_8,30,1,48,47,2399834040
21,3,ISIP_8,31,5,42,127,2399842676
21,3,ISIP_8,32,1,48,31,2399878344
21,3,ISIP_8,33,1,48,44,2400622160
21,3,ISIP_8,34,5,42,127,2400642264
21,3,ISIP_8,35,1,48,50,2401393696
21,3,ISIP_8,36,1,48,33,2401439024
21,3,ISIP_8,37,5,42,127,2401443244
21,3,ISIP_8,38,1,48,51,2402199336
21,3,ISIP_8,39,5,42,127,2402243052
21,3,ISIP_8,40,1,48,35,2402244972
21,3,ISIP_8,41,1,48,51,2403005928
21,3,ISIP_8,42,5,42,127,2403042688
21,3,ISIP_8,43,1,48,54,2403818156
21,3,ISIP_8,44,5,42,127,2403842424
21,3,ISIP_8,45,1,48,35,2403864076
21,3,ISIP_8,46,1,48,52,2404615176
21,3,ISIP_8,47,5,42,127,2404643180
21,3,ISIP_8,48,1,48,33,2404663188
21,3,ISIP_8,49,1,48,53,2405429400
21,3,ISIP_8,50,5,42,127,2405442892
21,3,ISIP_8,51,1,48,36,2405474348
21,3,ISIP_8,52,5,42,127,2406242612
21,3,ISIP_8,53,1,48,52,2406257396
21,3,ISIP_8,54,1,48,36,2406301604
21,3,ISIP_8,55,5,42,127,2407042348
21,3,ISIP_8,56,1,48,54,2407045984
21,3,ISIP_8,57,1,48,37,2407088156
21,3,ISIP_8,58,1,48,53,2407824212
21,3,ISIP_8,59,5,42,127,2407843172
21,3,ISIP_8,60,1,48,36,2407868644
21,3,ISIP_8,61,1,48,50,2408612336
21,3,ISIP_8,62,5,42,127,2408643036
21,3,ISIP_8,63,1,48,34,2408671044
21,3,ISIP_8,64,1,48,51,2409427156
21,3,ISIP_8,65,5,42,127,2409442524
21,3,ISIP_8,66,1,48,53,2410227188
21,3,ISIP_8,67,5,42,127,2410242552
21,3,ISIP_8,68,1,48,24,2410290536
21,3,ISIP_8,69,1,48,53,2411053836
21,3,ISIP_8,70,1,48,58,2411833280
21,3,ISIP_8,71,1,48,35,2411889372
21,3,ISIP_8,72,1,48,54,2412628776
21,3,ISIP_8,73,1,48,54,2413403824
21,3,ISIP_8,74,1,48,33,2413455224
21,3,ISIP_8,75,1,48,55,2414191112
21,3,ISIP_8,76,1,48,37,2414233376
21,3,ISIP_8,77,1,48,53,2414984860
21,3,ISIP_8,78,1,48,33,2415038696
21,3,ISIP_8,79,1,48,56,2415783448
21,3,ISIP_8,80,1,48,54,2416572632
21,3,ISIP_8,81,1,48,31,2416633716
21,3,ISIP_8,82,1,48,54,2417349372
21,3,ISIP_8,83,1,48,34,2417404404
21,3,ISIP_8,84,1,48,52,2418131652
21,3,ISIP_8,85,1,48,54,2418883436
21,3,ISIP_8,86,1,48,33,2418938920
21,3,ISIP_8,87,1,48,53,2419637296
21,3,ISIP_8,88,1,48,37,2419681248
21,3,ISIP_8,89,1,48,52,2420434160
21,3,ISIP_8,90,1,48,33,2420481188
21,3,ISIP_8,91,1,48,52,2421227808
21,3,ISIP_8,92,1,48,51,2422002932
21,3,ISIP_8,93,1,48,49,2422781488
21,3,ISIP_8,94,1,48,56,2423561920
21,3,ISIP_8,95,1,48,36,2423610364
21,3,ISIP_8,96,1,48,53,2424376136
21,3,ISIP_8,97,1,48,50,2425167340
21,3,ISIP_8,98,1,48,26,2425222768
21,3,ISIP_8,99,1,48,52,2425957476
21,3,ISIP_8,100,1,48,36,2426002276
21,3,ISIP_8,101,1,48,48,2426755032
21,3,ISIP_8,102,1,48,28,2426804604
21,3,ISIP_8,103,1,48,49,2427564096
21,3,ISIP_8,104,1,48,48,2428329488
21,3,ISIP_8,105,1,48,31,2428382796
21,3,ISIP_8,106,1,48,48,2429108852
21,3,ISIP_8,107,1,48,47,2429895940
21,3,ISIP_8,108,1,48,49,2430663880
21,3,ISIP_8,109,1,48,28,2430718904
21,3,ISIP_8,110,1,48,42,2431473532
21,3,ISIP_8,111,1,48,51,2432265560
21,3,ISIP_8,112,1,48,46,2433020936
21,3,ISIP_8,113,1,48,47,2433816248
21,3,ISIP_8,114,1,48,51,2434595556
21,3,ISIP_8,115,1,48,50,2435376740
21,3,ISIP_8,116,1,48,52,2436174976
21,3,ISIP_8,117,1,48,50,2436977044
21,3,ISIP_8,118,1,48,29,2437023852
21,3,ISIP_8,119,1,48,45,2437792236
21,3,ISIP_8,120,1,48,43,2438568108
21,3,ISIP_8,121,1,48,46,2439331480
21,3,ISIP_8,122,1,48,47,2440121564
21,3,ISIP_8,123,1,48,48,2440927124
21,3,ISIP_8,124,1,48,48,2441701500
21,3,ISIP_8,125,1,48,45,2442493300
21,3,ISIP_8,126,1,48,44,2443315544
21,3,ISIP_8,127,1,48,43,2444099488
21,3,ISIP_8,128,1,48,47,2444895924
21,3,ISIP_8,129,1,48,44,2445681696
21,3,ISIP_8,130,1,48,49,2446470124
21,3,ISIP_8,131,1,48,51,2447220044
21,3,ISIP_8,132,1,48,48,2448042660
21,3,ISIP_8,133,1,48,50,2448869544
21,3,ISIP_8,134,1,48,48,2449657380
21,3,ISIP_8,135,1,48,56,2450451200
21,3,ISIP_8,136,1,48,50,2451248084
21,3,ISIP_8,137,1,48,49,2452073624
21,3,ISIP_8,138,1,48,48,2452879284
21,3,ISIP_8,139,1,48,52,2453682976
21,3,ISIP_8,140,1,48,49,2454468648
21,3,ISIP_8,141,1,48,45,2455281988
21,3,ISIP_8,142,1,48,46,2456044464
21,3,ISIP_8,143,1,48,50,2456859832
21,3,ISIP_8,144,1,48,51,2457650732
21,3,ISIP_8,145,1,48,37,2457685936
21,3,ISIP_8,146,1,48,51,2458471832
21,3,ISIP_8,147,1,48,54,2459274872
21,3,ISIP_8,148,1,48,43,2459304844
21,3,ISIP_8,149,1,48,48,2460091184
21,3,ISIP_8,150,1,48,56,2460894204
21,3,ISIP_8,151,1,48,52,2461719144
21,3,ISIP_8,152,1,48,39,2461753828
21,3,ISIP_8,153,1,48,48,2462535676
21,3,ISIP_8,154,1,48,48,2463338928
21,3,ISIP_8,155,1,48,45,2464147352
21,3,ISIP_8,156,1,48,47,2464930776
21,3,ISIP_8,157,1,48,47,2465727596
21,3,ISIP_8,158,1,48,48,2466558140
21,3,ISIP_8,159,1,48,51,2467398784
21,3,ISIP_8,160,1,48,50,2468222396
21,3,ISIP_8,161,1,48,52,2469040452
21,3,ISIP_8,162,1,48,53,2469888200
21,3,ISIP_8,163,1,48,54,2470689800
21,3,ISIP_8,164,1,48,42,2470717076
21,3,ISIP_8,165,1,48,52,2471532508
21,3,ISIP_8,166,1,48,38,2471567292
21,3,ISIP_8,167,1,48,45,2472353412
21,3,ISIP_8,168,1,48,51,2473155984
21,3,ISIP_8,169,1,48,39,2473188648
21,3,ISIP_8,170,1,48,46,2473984416
21,3,ISIP_8,171,1,48,53,2474789456
21,3,ISIP_8,172,1,48,40,2474820028
21,3,ISIP_8,173,1,48,50,2475605392
21,3,ISIP_8,174,1,48,37,2475640772
21,3,ISIP_8,175,1,48,45,2476420388
21,3,ISIP_8,176,1,48,56,2477240156
21,3,ISIP_8,177,1,48,42,2477269460
21,3,ISIP_8,178,1,48,51,2478057524
21,3,ISIP_8,179,1,48,56,2478904376
21,3,ISIP_8,180,1,48,43,2478935616
21,3,ISIP_8,181,1,48,50,2479728188
21,3,ISIP_8,182,1,48,48,2480572272
21,3,ISIP_8,183,1,48,39,2480602916
21,3,ISIP_8,184,1,48,52,2481378712
21,3,ISIP_8,185,1,48,52,2482197964
21,3,ISIP_8,186,1,48,53,2483008160
21,3,ISIP_8,187,1,48,41,2483036716
21,3,ISIP_8,188,1,48,51,2483822856
21,3,ISIP_8,189,1,48,51,2484641224
21,3,ISIP_8,190,1,48,53,2485457112
21,3,ISIP_8,191,1,48,57,2486272992
21,3,ISIP_8,192,1,48,43,2486304612
21,3,ISIP_8,193,1,48,48,2487078760
21,3,ISIP_8,194,1,48,36,2487111272
21,3,ISIP_8,195,1,48,52,2487859248
21,3,ISIP_8,196,1,48,40,2487888692
21,3,ISIP_8,197,1,48,56,2488739908
21,3,ISIP_8,198,1,48,41,2488773096
21,3,ISIP_8,199,1,48,55,2489542532
21,3,ISIP_8,200,1,48,41,2489575120
21,3,ISIP_8,201,1,48,49,2490362584
21,3,ISIP_8,202,1,48,54,2491178248
21,3,ISIP_8,203,1,48,38,2491219212
21,3,ISIP_8,204,1,48,51,2492013780
21,3,ISIP_8,205,1,48,48,2492839908
21,3,ISIP_8,206,1,48,55,2493684368
21,3,ISIP_8,207,1,48,38,2493719204
21,3,ISIP_8,208,1,48,51,2494478620
21,3,ISIP_8,209,1,48,55,2495312904
21,3,ISIP_8,210,1,48,42,2495344992
21,3,ISIP_8,211,1,48,50,2496123552
21,3,ISIP_8,212,1,48,39,2496156144
21,3,ISIP_8,213,1,48,49,2496975320
21,3,ISIP_8,214,1,48,35,2497014044
21,3,ISIP_8,215,1,48,53,2497793060
21,3,ISIP_8,216,1,48,57,2498587248
21,3,ISIP_8,217,1,48,40,2498627244
21,3,ISIP_8,218,1,48,52,2499418300
21,3,ISIP_8,219,1,48,51,2500212964
21,3,ISIP_8,220,1,48,39,2500248396
21,3,ISIP_8,221,1,48,52,2501010728
21,3,ISIP_8,222,1,48,38,2501043320
21,3,ISIP_8,223,1,48,51,2501824196
21,3,ISIP_8,224,1,48,37,2501860604
21,3,ISIP_8,225,1,48,53,2502634976
21,3,ISIP_8,226,1,48,35,2502674448
21,3,ISIP_8,227,1,48,53,2503475144
21,3,ISIP_8,228,1,48,38,2503514840
21,3,ISIP_8,229,1,48,57,2504285920
21,3,ISIP_8,230,1,48,39,2504328112
21,3,ISIP_8,231,1,48,57,2505121408
21,3,ISIP_8,232,1,48,37,2505171204
21,3,ISIP_8,233,1,48,51,2505934280
21,3,ISIP_8,234,1,48,57,2506729672
21,3,ISIP_8,235,1,48,40,2506768620
21,3,ISIP_8,0,9999,9999,9999,9999,2387040308
21,3,ISIP_8,1,9999,9999,9999,9999,2387840088
21,3,ISIP_8,2,9999,9999,9999,9999,2388640816
21,3,ISIP_8,3,9999,9999,9999,9999,2389440624
21,3,ISIP_8,4,9999,9999,9999,9999,2390240356
21,3,ISIP_8,5,9999,9999,9999,9999,2391040088
21,3,ISIP_8,6,9999,9999,9999,9999,2391840868
21,3,ISIP_8,7,9999,9999,9999,9999,2392640600
21,3,ISIP_8,8,9999,9999,9999,9999,2393440336
21,3,ISIP_8,9,9999,9999,9999,9999,2394240092
21,3,ISIP_8,10,9999,9999,9999,9999,2395040868
21,3,ISIP_8,11,9999,9999,9999,9999,2395840608
21,3,ISIP_8,12,9999,9999,9999,9999,2396640340
21,3,ISIP_8,13,9999,9999,9999,9999,2397440076
21,3,ISIP_8,14,9999,9999,9999,9999,2398240852
21,3,ISIP_8,15,9999,9999,9999,9999,2399040588
21,3,ISIP_8,16,9999,9999,9999,9999,2399840316
21,3,ISIP_8,17,9999,9999,9999,9999,2400640048
21,3,ISIP_8,18,9999,9999,9999,9999,2401440880
21,3,ISIP_8,19,9999,9999,9999,9999,2402240612
21,3,ISIP_8,20,9999,9999,9999,9999,2403040328
21,3,ISIP_8,21,9999,9999,9999,9999,2403840060
21,3,ISIP_8,22,9999,9999,9999,9999,2404640816
21,3,ISIP_8,23,9999,9999,9999,9999,2405440604
21,3,ISIP_8,24,9999,9999,9999,9999,2406240320
21,3,ISIP_8,25,9999,9999,9999,9999,2407040056
21,3,ISIP_8,26,9999,9999,9999,9999,2407840884
21,3,ISIP_8,27,9999,9999,9999,9999,2408640596
21,3,ISIP_8,28,9999,9999,9999,9999,2409440308
21,3,ISIP_8,29,9999,9999,9999,9999,2410240116
21,3,ISIP_8,30,9999,9999,9999,9999,2411040880
21,3,ISIP_8,31,9999,9999,9999,9999,2411840604
21,3,ISIP_8,32,9999,9999,9999,9999,2412640360
21,3,ISIP_8,33,9999,9999,9999,9999,2413440116
21,3,ISIP_8,34,9999,9999,9999,9999,2414240844
21,3,ISIP_8,35,9999,9999,9999,9999,2415040628
21,3,ISIP_8,36,9999,9999,9999,9999,2415840356
21,3,ISIP_8,37,9999,9999,9999,9999,2416640064
21,3,ISIP_8,38,9999,9999,9999,9999,2417440820
21,3,ISIP_8,39,9999,9999,9999,9999,2418240608
21,3,ISIP_8,40,9999,9999,9999,9999,2419040316
21,3,ISIP_8,41,9999,9999,9999,9999,2419840048
21,3,ISIP_8,42,9999,9999,9999,9999,2420640876
21,3,ISIP_8,43,9999,9999,9999,9999,2421440608
21,3,ISIP_8,44,9999,9999,9999,9999,2422240336
21,3,ISIP_8,45,9999,9999,9999,9999,2423040064
21,3,ISIP_8,46,9999,9999,9999,9999,2423840820
21,3,ISIP_8,47,9999,9999,9999,9999,2424640620
21,3,ISIP_8,48,9999,9999,9999,9999,2425440328
21,3,ISIP_8,49,9999,9999,9999,9999,2426240060
21,3,ISIP_8,50,9999,9999,9999,9999,2427040812
21,3,ISIP_8,51,9999,9999,9999,9999,2427840616
21,3,ISIP_8,52,9999,9999,9999,9999,2428640324
21,3,ISIP_8,53,9999,9999,9999,9999,2429440056
21,3,ISIP_8,54,9999,9999,9999,9999,2430240828
21,3,ISIP_8,55,9999,9999,9999,9999,2431040612
21,3,ISIP_8,56,9999,9999,9999,9999,2431840344
21,3,ISIP_8,57,9999,9999,9999,9999,2432640096
21,3,ISIP_8,58,9999,9999,9999,9999,2433440872
21,3,ISIP_8,59,9999,9999,9999,9999,2434240600
21,3,ISIP_8,60,9999,9999,9999,9999,2435040332
21,3,ISIP_8,61,9999,9999,9999,9999,2435840060
21,3,ISIP_8,62,9999,9999,9999,9999,2436640836
21,3,ISIP_8,63,9999,9999,9999,9999,2437440620
21,3,ISIP_8,64,9999,9999,9999,9999,2438240348
21,3,ISIP_8,65,9999,9999,9999,9999,2439040104
21,3,ISIP_8,66,9999,9999,9999,9999,2439840880
21,3,ISIP_8,67,9999,9999,9999,9999,2440640608
21,3,ISIP_8,68,9999,9999,9999,9999,2441440336
21,3,ISIP_8,69,9999,9999,9999,9999,2442240064
21,3,ISIP_8,70,9999,9999,9999,9999,2443040840
21,3,ISIP_8,71,9999,9999,9999,9999,2443840572
21,3,ISIP_8,72,9999,9999,9999,9999,2444640376
21,3,ISIP_8,73,9999,9999,9999,9999,2445440056
21,3,ISIP_8,74,9999,9999,9999,9999,2446240828
21,3,ISIP_8,75,9999,9999,9999,9999,2447040560
21,3,ISIP_8,76,9999,9999,9999,9999,2447840364
21,3,ISIP_8,77,9999,9999,9999,9999,2448640092
21,3,ISIP_8,78,9999,9999,9999,9999,2449440872
21,3,ISIP_8,79,9999,9999,9999,9999,2450240600
21,3,ISIP_8,80,9999,9999,9999,9999,2451040332
21,3,ISIP_8,81,9999,9999,9999,9999,2451840084
21,3,ISIP_8,82,9999,9999,9999,9999,2452640860
21,3,ISIP_8,83,9999,9999,9999,9999,2453440588
21,3,ISIP_8,84,9999,9999,9999,9999,2454240320
21,3,ISIP_8,85,9999,9999,9999,9999,2455040048
21,3,ISIP_8,86,9999,9999,9999,9999,2455840824
21,3,ISIP_8,87,9999,9999,9999,9999,2456640628
21,3,ISIP_8,88,9999,9999,9999,9999,2457440356
21,3,ISIP_8,89,9999,9999,9999,9999,2458240088
21,3,ISIP_8,90,9999,9999,9999,9999,2459040864
21,3,ISIP_8,91,9999,9999,9999,9999,2459840572
21,3,ISIP_8,92,9999,9999,9999,9999,2460640376
21,3,ISIP_8,93,9999,9999,9999,9999,2461440104
21,3,ISIP_8,94,9999,9999,9999,9999,2462240860
21,3,ISIP_8,95,9999,9999,9999,9999,2463040588
21,3,ISIP_8,96,9999,9999,9999,9999,2463840316
21,3,ISIP_8,97,9999,9999,9999,9999,2464640072
21,3,ISIP_8,98,9999,9999,9999,9999,2465440848
21,3,ISIP_8,99,9999,9999,9999,9999,2466240576
21,3,ISIP_8,100,9999,9999,9999,9999,2467040308
21,3,ISIP_8,101,9999,9999,9999,9999,2467840112
21,3,ISIP_8,102,9999,9999,9999,9999,2468640884
21,3,ISIP_8,103,9999,9999,9999,9999,2469440616
21,3,ISIP_8,104,9999,9999,9999,9999,2470240344
21,3,ISIP_8,105,9999,9999,9999,9999,2471040076
21,3,ISIP_8,106,9999,9999,9999,9999,2471840832
21,3,ISIP_8,107,9999,9999,9999,9999,2472640560
21,3,ISIP_8,108,9999,9999,9999,9999,2473440344
21,3,ISIP_8,109,9999,9999,9999,9999,2474240072
21,3,ISIP_8,110,9999,9999,9999,9999,2475040824
21,3,ISIP_8,111,9999,9999,9999,9999,2475840608
21,3,ISIP_8,112,9999,9999,9999,9999,2476640340
21,3,ISIP_8,113,9999,9999,9999,9999,2477440072
21,3,ISIP_8,114,9999,9999,9999,9999,2478240848
21,3,ISIP_8,115,9999,9999,9999,9999,2479040628
21,3,ISIP_8,116,9999,9999,9999,9999,2479840360
21,3,ISIP_8,117,9999,9999,9999,9999,2480640080
21,3,ISIP_8,118,9999,9999,9999,9999,2481440856
21,3,ISIP_8,119,9999,9999,9999,9999,2482240584
21,3,ISIP_8,120,9999,9999,9999,9999,2483040368
21,3,ISIP_8,121,9999,9999,9999,9999,2483840048
21,3,ISIP_8,122,9999,9999,9999,9999,2484640856
21,3,ISIP_8,123,9999,9999,9999,9999,2485440560
21,3,ISIP_8,124,9999,9999,9999,9999,2486240364
21,3,ISIP_8,125,9999,9999,9999,9999,2487040072
21,3,ISIP_8,126,9999,9999,9999,9999,2487840828
21,3,ISIP_8,127,9999,9999,9999,9999,2488640608
21,3,ISIP_8,128,9999,9999,9999,9999,2489440316
21,3,ISIP_8,129,9999,9999,9999,9999,2490240048
21,3,ISIP_8,130,9999,9999,9999,9999,2491040824
21,3,ISIP_8,131,9999,9999,9999,9999,2491840604
21,3,ISIP_8,132,9999,9999,9999,9999,2492640308
21,3,ISIP_8,133,9999,9999,9999,9999,2493440112
21,3,ISIP_8,134,9999,9999,9999,9999,2494240864
21,3,ISIP_8,135,9999,9999,9999,9999,2495040596
21,3,ISIP_8,136,9999,9999,9999,9999,2495840304
21,3,ISIP_8,137,9999,9999,9999,9999,2496640108
21,3,ISIP_8,138,9999,9999,9999,9999,2497440864
21,3,ISIP_8,139,9999,9999,9999,9999,2498240592
21,3,ISIP_8,140,9999,9999,9999,9999,2499040300
21,3,ISIP_8,141,9999,9999,9999,9999,2499840104
21,3,ISIP_8,142,9999,9999,9999,9999,2500640860
21,3,ISIP_8,143,9999,9999,9999,9999,2501440568
21,3,ISIP_8,144,9999,9999,9999,9999,2502240348
21,3,ISIP_8,145,9999,9999,9999,9999,2503040080
21,3,ISIP_8,146,9999,9999,9999,9999,2503840836
21,3,ISIP_8,147,9999,9999,9999,9999,2504640616
21,3,ISIP_8,148,9999,9999,9999,9999,2505440324
21,3,ISIP_8,149,9999,9999,9999,9999,2506240052
22,11,Pattern_Practice,0,5,42,127,2626852260
22,11,Pattern_Practice,1,5,42,127,2627351904
22,11,Pattern_Practice,2,5,42,127,2627851544
22,11,Pattern_Practice,3,5,42,127,2628352308
22,11,Pattern_Practice,4,5,42,127,2628852172
22,11,Pattern_Practice,5,1,48,44,2628893740
22,11,Pattern_Practice,6,5,42,127,2629351720
22,11,Pattern_Practice,7,1,48,38,2629378844
22,11,Pattern_Practice,8,5,42,127,2629851416
22,11,Pattern_Practice,9,1,48,41,2629934936
22,11,Pattern_Practice,10,5,42,127,2630352380
22,11,Pattern_Practice,11,1,48,33,2630396856
22,11,Pattern_Practice,12,5,42,127,2630852148
22,11,Pattern_Practice,13,1,48,45,2630865288
22,11,Pattern_Practice,14,1,38,33,2631183108
22,11,Pattern_Practice,15,5,42,127,2631351596
22,11,Pattern_Practice,16,1,48,40,2631477460
22,11,Pattern_Practice,17,1,38,23,2631773736
22,11,Pattern_Practice,18,5,42,127,2631852260
22,11,Pattern_Practice,19,5,42,127,2632352108
22,11,Pattern_Practice,20,5,42,127,2632851676
22,11,Pattern_Practice,21,5,42,127,2633351392
22,11,Pattern_Practice,22,5,42,127,2633852156
22,11,Pattern_Practice,23,1,38,42,2633906132
22,11,Pattern_Practice,24,1,48,44,2634172120
22,11,Pattern_Practice,25,5,42,127,2634352056
22,11,Pattern_Practice,26,1,38,37,2634453088
22,11,Pattern_Practice,27,5,42,127,2634851576
22,11,Pattern_Practice,28,1,38,33,2634976036
22,11,Pattern_Practice,29,5,42,127,2635352392
22,11,Pattern_Practice,30,1,38,34,2635410588
22,11,Pattern_Practice,31,5,42,127,2635852088
22,11,Pattern_Practice,32,1,38,44,2635860664
22,11,Pattern_Practice,33,1,38,43,2636342836
22,11,Pattern_Practice,34,5,42,127,2636351924
22,11,Pattern_Practice,35,1,38,46,2636586324
22,11,Pattern_Practice,36,1,38,59,2636845132
22,11,Pattern_Practice,37,5,42,127,2636851448
22,11,Pattern_Practice,38,1,38,54,2637345948
22,11,Pattern_Practice,39,5,42,127,2637352264
22,11,Pattern_Practice,40,5,42,127,2637852112
22,11,Pattern_Practice,41,1,38,55,2637866152
22,11,Pattern_Practice,42,5,42,127,2638351588
22,11,Pattern_Practice,43,1,38,49,2638360616
22,11,Pattern_Practice,44,1,38,41,2638603708
22,11,Pattern_Practice,45,5,42,127,2638851480
22,11,Pattern_Practice,46,1,38,53,2638866492
22,11,Pattern_Practice,47,1,38,34,2638909104
22,11,Pattern_Practice,48,5,42,127,2639352128
22,11,Pattern_Practice,49,1,38,51,2639391224
22,11,Pattern_Practice,50,5,42,127,2639851972
22,11,Pattern_Practice,51,1,38,52,2639856136
22,11,Pattern_Practice,52,1,38,29,2639908476
22,11,Pattern_Practice,53,5,42,127,2640351720
22,11,Pattern_Practice,54,1,38,50,2640381096
22,11,Pattern_Practice,55,1,38,56,2640642220
22,11,Pattern_Practice,56,5,42,127,2640852368
22,11,Pattern_Practice,57,1,38,62,2640916444
22,11,Pattern_Practice,58,1,48,40,2640926300
22,11,Pattern_Practice,59,5,42,127,2641352012
22,11,Pattern_Practice,60,1,38,57,2641434644
22,11,Pattern_Practice,61,5,42,127,2641851708
22,11,Pattern_Practice,62,1,38,50,2641897836
22,11,Pattern_Practice,63,5,42,127,2642351480
22,11,Pattern_Practice,64,1,38,54,2642394612
22,11,Pattern_Practice,65,1,38,53,2642635916
22,11,Pattern_Practice,66,5,42,127,2642852196
22,11,Pattern_Practice,67,1,38,62,2642893612
22,11,Pattern_Practice,68,1,48,46,2642926952
22,11,Pattern_Practice,69,5,42,127,2643351920
22,11,Pattern_Practice,70,1,38,55,2643410164
22,11,Pattern_Practice,71,1,38,32,2643454792
22,11,Pattern_Practice,72,5,42,127,2643851592
22,11,Pattern_Practice,73,1,38,48,2643877224
22,11,Pattern_Practice,74,5,42,127,2644352332
22,11,Pattern_Practice,75,1,38,43,2644375948
22,11,Pattern_Practice,76,1,38,41,2644609988
22,11,Pattern_Practice,77,5,42,127,2644851932
22,11,Pattern_Practice,78,1,38,54,2644855648
22,11,Pattern_Practice,79,1,48,55,2644872684
22,11,Pattern_Practice,80,1,38,39,2644890692
22,11,Pattern_Practice,81,5,42,127,2645351932
22,11,Pattern_Practice,82,1,38,52,2645373304
22,11,Pattern_Practice,83,1,38,49,2645839000
22,11,Pattern_Practice,84,5,42,127,2645851448
22,11,Pattern_Practice,85,1,38,46,2646349388
22,11,Pattern_Practice,86,5,42,127,2646352116
22,11,Pattern_Practice,87,1,38,44,2646610156
22,11,Pattern_Practice,88,5,42,127,2646851944
22,11,Pattern_Practice,89,1,38,51,2646856552
22,11,Pattern_Practice,90,1,48,58,2646881892
22,11,Pattern_Practice,91,1,48,36,2646936048
22,11,Pattern_Practice,92,5,42,127,2647351568
22,11,Pattern_Practice,93,1,38,49,2647354764
22,11,Pattern_Practice,94,1,38,47,2647831852
22,11,Pattern_Practice,95,5,42,127,2647852308
22,11,Pattern_Practice,96,1,38,49,2648328556
22,11,Pattern_Practice,97,5,42,127,2648352076
22,11,Pattern_Practice,98,1,38,52,2648556112
22,11,Pattern_Practice,99,1,38,62,2648805420
22,11,Pattern_Practice,100,1,48,54,2648840776
22,11,Pattern_Practice,101,5,42,127,2648852176
22,11,Pattern_Practice,102,1,48,32,2648901284
22,11,Pattern_Practice,103,1,38,56,2649325848
22,11,Pattern_Practice,104,5,42,127,2649351612
22,11,Pattern_Practice,105,1,38,59,2649795924
22,11,Pattern_Practice,106,5,42,127,2649852208
22,11,Pattern_Practice,107,1,38,61,2650306840
22,11,Pattern_Practice,108,5,42,127,2650352124
22,11,Pattern_Practice,109,1,48,52,2650504700
22,11,Pattern_Practice,110,1,38,57,2650614856
22,11,Pattern_Practice,111,5,42,127,2650851856
22,11,Pattern_Practice,112,1,38,62,2650931348
22,11,Pattern_Practice,113,5,42,127,2651352448
22,11,Pattern_Practice,114,1,38,49,2651450412
22,11,Pattern_Practice,115,5,42,127,2651852068
22,11,Pattern_Practice,116,1,38,51,2651963944
22,11,Pattern_Practice,117,5,42,127,2652352060
22,11,Pattern_Practice,118,1,38,53,2652444188
22,11,Pattern_Practice,119,1,48,48,2652592964
22,11,Pattern_Practice,120,1,38,52,2652739628
22,11,Pattern_Practice,121,5,42,127,2652851492
22,11,Pattern_Practice,122,1,38,56,2653059284
22,11,Pattern_Practice,123,5,42,127,2653352156
22,11,Pattern_Practice,124,1,38,50,2653591960
22,11,Pattern_Practice,125,5,42,127,2653852000
22,11,Pattern_Practice,126,1,38,43,2654080288
22,11,Pattern_Practice,127,5,42,127,2654351920
22,11,Pattern_Practice,128,1,38,41,2654752240
22,11,Pattern_Practice,129,5,42,127,2654851392
22,11,Pattern_Practice,130,1,38,40,2655083864
22,11,Pattern_Practice,131,1,38,55,2655348276
22,11,Pattern_Practice,132,5,42,127,2655352052
22,11,Pattern_Practice,133,5,42,127,2655851976
22,11,Pattern_Practice,134,1,38,58,2655882624
22,11,Pattern_Practice,135,5,42,127,2656351796
22,11,Pattern_Practice,136,1,38,72,2656401540
22,11,Pattern_Practice,137,5,42,127,2656852312
22,11,Pattern_Practice,138,1,38,57,2656907212
22,11,Pattern_Practice,139,1,38,58,2657124256
22,11,Pattern_Practice,140,5,42,127,2657351984
22,11,Pattern_Practice,141,1,38,57,2657366472
22,11,Pattern_Practice,142,1,48,50,2657409796
22,11,Pattern_Practice,143,1,38,58,2657846964
22,11,Pattern_Practice,144,5,42,127,2657852012
22,11,Pattern_Practice,145,5,42,127,2658351416
22,11,Pattern_Practice,146,1,38,53,2658356852
22,11,Pattern_Practice,147,5,42,127,2658852232
22,11,Pattern_Practice,148,1,38,51,2658876140
22,11,Pattern_Practice,149,1,38,59,2659111088
22,11,Pattern_Practice,150,5,42,127,2659352052
22,11,Pattern_Practice,151,1,38,54,2659368040
22,11,Pattern_Practice,152,1,38,40,2659400032
22,11,Pattern_Practice,153,1,48,55,2659411676
22,11,Pattern_Practice,154,5,42,127,2659851904
22,11,Pattern_Practice,155,1,38,57,2659882992
22,11,Pattern_Practice,156,1,48,56,2659894944
22,11,Pattern_Practice,157,1,38,40,2659919084
22,11,Pattern_Practice,158,5,42,127,2660352500
22,11,Pattern_Practice,159,1,38,55,2660367440
22,11,Pattern_Practice,160,5,42,127,2660851972
22,11,Pattern_Practice,161,1,38,57,2660899592
22,11,Pattern_Practice,162,1,38,53,2661132140
22,11,Pattern_Practice,163,5,42,127,2661352092
22,11,Pattern_Practice,164,1,38,70,2661395152
22,11,Pattern_Practice,165,1,48,51,2661419812
22,11,Pattern_Practice,166,1,38,40,2661435876
22,11,Pattern_Practice,167,5,42,127,2661851716
22,11,Pattern_Practice,168,1,48,57,2661889096
22,11,Pattern_Practice,169,1,38,55,2661901340
22,11,Pattern_Practice,170,1,38,37,2661942904
22,11,Pattern_Practice,171,1,48,24,2661963904
22,11,Pattern_Practice,172,5,42,127,2662352292
22,11,Pattern_Practice,173,1,38,55,2662393260
22,11,Pattern_Practice,174,5,42,127,2662851836
22,11,Pattern_Practice,175,1,38,58,2662860784
22,11,Pattern_Practice,176,1,38,54,2663120488
22,11,Pattern_Practice,177,1,38,57,2663348924
22,11,Pattern_Practice,178,5,42,127,2663351948
22,11,Pattern_Practice,179,1,38,41,2663381088
22,11,Pattern_Practice,180,1,48,57,2663396096
22,11,Pattern_Practice,181,1,48,56,2663851956
22,11,Pattern_Practice,182,5,42,127,2663853596
22,11,Pattern_Practice,183,1,38,55,2663862100
22,11,Pattern_Practice,184,5,42,127,2664352140
22,11,Pattern_Practice,185,1,38,61,2664357056
22,11,Pattern_Practice,186,1,38,36,2664394652
22,11,Pattern_Practice,187,1,38,57,2664850680
22,11,Pattern_Practice,188,5,42,127,2664853376
22,11,Pattern_Practice,189,1,38,53,2665114932
22,11,Pattern_Practice,190,5,42,127,2665351488
22,11,Pattern_Practice,191,1,38,66,2665368816
22,11,Pattern_Practice,192,1,38,44,2665401028
22,11,Pattern_Practice,193,1,48,67,2665416196
22,11,Pattern_Practice,194,5,42,127,2665852232
22,11,Pattern_Practice,195,1,48,61,2665864700
22,11,Pattern_Practice,196,1,38,58,2665872536
22,11,Pattern_Practice,197,1,38,64,2666331248
22,11,Pattern_Practice,198,5,42,127,2666351948
22,11,Pattern_Practice,199,1,38,56,2666813736
22,11,Pattern_Practice,0,9999,9999,9999,9999,2626849896
22,11,Pattern_Practice,1,9999,9999,9999,9999,2627349616
22,11,Pattern_Practice,2,9999,9999,9999,9999,2627849332
22,11,Pattern_Practice,3,9999,9999,9999,9999,2628350020
22,11,Pattern_Practice,4,9999,9999,9999,9999,2628849736
22,11,Pattern_Practice,5,9999,9999,9999,9999,2629349432
22,11,Pattern_Practice,6,9999,9999,9999,9999,2629849200
22,11,Pattern_Practice,7,9999,9999,9999,9999,2630349944
22,11,Pattern_Practice,8,9999,9999,9999,9999,2630849636
22,11,Pattern_Practice,9,9999,9999,9999,9999,2631349308
22,11,Pattern_Practice,10,9999,9999,9999,9999,2631850044
22,11,Pattern_Practice,11,9999,9999,9999,9999,2632349748
22,11,Pattern_Practice,12,9999,9999,9999,9999,2632849464
22,11,Pattern_Practice,13,9999,9999,9999,9999,2633349180
22,11,Pattern_Practice,14,9999,9999,9999,9999,2633849944
22,11,Pattern_Practice,15,9999,9999,9999,9999,2634349620
22,11,Pattern_Practice,16,9999,9999,9999,9999,2634849364
22,11,Pattern_Practice,17,9999,9999,9999,9999,2635350104
22,11,Pattern_Practice,18,9999,9999,9999,9999,2635849800
22,11,Pattern_Practice,19,9999,9999,9999,9999,2636349560
22,11,Pattern_Practice,20,9999,9999,9999,9999,2636849236
22,11,Pattern_Practice,21,9999,9999,9999,9999,2637349976
22,11,Pattern_Practice,22,9999,9999,9999,9999,2637849676
22,11,Pattern_Practice,23,9999,9999,9999,9999,2638349372
22,11,Pattern_Practice,24,9999,9999,9999,9999,2638849120
22,11,Pattern_Practice,25,9999,9999,9999,9999,2639349840
22,11,Pattern_Practice,26,9999,9999,9999,9999,2639849536
22,11,Pattern_Practice,27,9999,9999,9999,9999,2640349284
22,11,Pattern_Practice,28,9999,9999,9999,9999,2640850004
22,11,Pattern_Practice,29,9999,9999,9999,9999,2641349724
22,11,Pattern_Practice,30,9999,9999,9999,9999,2641849420
22,11,Pattern_Practice,31,9999,9999,9999,9999,2642349116
22,11,Pattern_Practice,32,9999,9999,9999,9999,2642849912
22,11,Pattern_Practice,33,9999,9999,9999,9999,2643349556
22,11,Pattern_Practice,34,9999,9999,9999,9999,2643849304
22,11,Pattern_Practice,35,9999,9999,9999,9999,2644350044
22,11,Pattern_Practice,36,9999,9999,9999,9999,2644849720
22,11,Pattern_Practice,37,9999,9999,9999,9999,2645349472
22,11,Pattern_Practice,38,9999,9999,9999,9999,2645849160
22,11,Pattern_Practice,39,9999,9999,9999,9999,2646349904
22,11,Pattern_Practice,40,9999,9999,9999,9999,2646849656
22,11,Pattern_Practice,41,9999,9999,9999,9999,2647349356
22,11,Pattern_Practice,42,9999,9999,9999,9999,2647850092
22,11,Pattern_Practice,43,9999,9999,9999,9999,2648349788
22,11,Pattern_Practice,44,9999,9999,9999,9999,2648849520
22,11,Pattern_Practice,45,9999,9999,9999,9999,2649349176
22,11,Pattern_Practice,46,9999,9999,9999,9999,2649849920
22,11,Pattern_Practice,47,9999,9999,9999,9999,2650349688
22,11,Pattern_Practice,48,9999,9999,9999,9999,2650849344
22,11,Pattern_Practice,49,9999,9999,9999,9999,2651350088
22,11,Pattern_Practice,50,9999,9999,9999,9999,2651849784
22,11,Pattern_Practice,51,9999,9999,9999,9999,2652349552
22,11,Pattern_Practice,52,9999,9999,9999,9999,2652849204
22,11,Pattern_Practice,53,9999,9999,9999,9999,2653349944
22,11,Pattern_Practice,54,9999,9999,9999,9999,2653849712
22,11,Pattern_Practice,55,9999,9999,9999,9999,2654349408
22,11,Pattern_Practice,56,9999,9999,9999,9999,2654849104
22,11,Pattern_Practice,57,9999,9999,9999,9999,2655349840
22,11,Pattern_Practice,58,9999,9999,9999,9999,2655849540
22,11,Pattern_Practice,59,9999,9999,9999,9999,2656349284
22,11,Pattern_Practice,60,9999,9999,9999,9999,2656850024
22,11,Pattern_Practice,61,9999,9999,9999,9999,2657349696
22,11,Pattern_Practice,62,9999,9999,9999,9999,2657849424
22,11,Pattern_Practice,63,9999,9999,9999,9999,2658349128
22,11,Pattern_Practice,64,9999,9999,9999,9999,2658849868
22,11,Pattern_Practice,65,9999,9999,9999,9999,2659349616
22,11,Pattern_Practice,66,9999,9999,9999,9999,2659849316
22,11,Pattern_Practice,67,9999,9999,9999,9999,2660350064
22,11,Pattern_Practice,68,9999,9999,9999,9999,2660849760
22,11,Pattern_Practice,69,9999,9999,9999,9999,2661349432
22,11,Pattern_Practice,70,9999,9999,9999,9999,2661849204
22,11,Pattern_Practice,71,9999,9999,9999,9999,2662349932
22,11,Pattern_Practice,72,9999,9999,9999,9999,2662849624
22,11,Pattern_Practice,73,9999,9999,9999,9999,2663349364
22,11,Pattern_Practice,74,9999,9999,9999,9999,2663850044
22,11,Pattern_Practice,75,9999,9999,9999,9999,2664349776
22,11,Pattern_Practice,76,9999,9999,9999,9999,2664849528
22,11,Pattern_Practice,77,9999,9999,9999,9999,2665349200
22,11,Pattern_Practice,78,9999,9999,9999,9999,2665849944
22,11,Pattern_Practice,79,9999,9999,9999,9999,2666349660
23,13,Improv_Metronome,0,5,42,127,2701657408
23,13,Improv_Metronome,1,5,42,127,2702158320
23,13,Improv_Metronome,2,5,42,127,2702657888
23,13,Improv_Metronome,3,5,42,127,2703157680
23,13,Improv_Metronome,4,1,38,48,2703645088
23,13,Improv_Metronome,5,5,42,127,2703658360
23,13,Improv_Metronome,6,5,42,127,2704158212
23,13,Improv_Metronome,7,1,38,50,2704167612
23,13,Improv_Metronome,8,5,42,127,2704657760
23,13,Improv_Metronome,9,1,38,43,2704683244
23,13,Improv_Metronome,10,5,42,127,2705157380
23,13,Improv_Metronome,11,1,38,54,2705183384
23,13,Improv_Metronome,12,1,48,46,2705186576
23,13,Improv_Metronome,13,1,38,47,2705416780
23,13,Improv_Metronome,14,1,48,50,2705438304
23,13,Improv_Metronome,15,5,42,127,2705658300
23,13,Improv_Metronome,16,1,38,59,2705676752
23,13,Improv_Metronome,17,5,42,127,2706158216
23,13,Improv_Metronome,18,1,38,52,2706169116
23,13,Improv_Metronome,19,5,42,127,2706657616
23,13,Improv_Metronome,20,1,38,51,2706674416
23,13,Improv_Metronome,21,1,38,54,2707153376
23,13,Improv_Metronome,22,5,42,127,2707158348
23,13,Improv_Metronome,23,1,38,55,2707430452
23,13,Improv_Metronome,24,5,42,127,2707658328
23,13,Improv_Metronome,25,1,38,66,2707679324
23,13,Improv_Metronome,26,1,48,67,2707699124
23,13,Improv_Metronome,27,1,48,33,2707761560
23,13,Improv_Metronome,28,1,38,62,2708148948
23,13,Improv_Metronome,29,5,42,127,2708157884
23,13,Improv_Metronome,30,1,38,65,2708657512
23,13,Improv_Metronome,31,5,42,127,2708660196
23,13,Improv_Metronome,32,5,42,127,2709158180
23,13,Improv_Metronome,33,1,38,57,2709167804
23,13,Improv_Metronome,34,1,38,59,2709394820
23,13,Improv_Metronome,35,1,38,68,2709654292
23,13,Improv_Metronome,36,5,42,127,2709658072
23,13,Improv_Metronome,37,1,48,66,2709695292
23,13,Improv_Metronome,38,1,38,71,2710147820
23,13,Improv_Metronome,39,5,42,127,2710157656
23,13,Improv_Metronome,40,1,38,62,2710636368
23,13,Improv_Metronome,41,5,42,127,2710658472
23,13,Improv_Metronome,42,1,38,65,2711127220
23,13,Improv_Metronome,43,5,42,127,2711158020
23,13,Improv_Metronome,44,1,48,60,2711166072
23,13,Improv_Metronome,45,1,38,57,2711374932
23,13,Improv_Metronome,46,1,48,58,2711414516
23,13,Improv_Metronome,47,1,38,70,2711644916
23,13,Improv_Metronome,48,5,42,127,2711657768
23,13,Improv_Metronome,49,1,38,67,2712150300
23,13,Improv_Metronome,50,5,42,127,2712157516
23,13,Improv_Metronome,51,1,38,49,2712174108
23,13,Improv_Metronome,52,5,42,127,2712658316
23,13,Improv_Metronome,53,1,38,64,2712660984
23,13,Improv_Metronome,54,1,38,48,2712685672
23,13,Improv_Metronome,55,1,48,65,2713119500
23,13,Improv_Metronome,56,1,38,70,2713143116
23,13,Improv_Metronome,57,5,42,127,2713157964
23,13,Improv_Metronome,58,1,48,43,2713171316
23,13,Improv_Metronome,59,1,38,58,2713386556
23,13,Improv_Metronome,60,1,48,64,2713423188
23,13,Improv_Metronome,61,1,48,40,2713475024
23,13,Improv_Metronome,62,5,42,127,2713657672
23,13,Improv_Metronome,63,1,38,63,2713677768
23,13,Improv_Metronome,64,5,42,127,2714157368
23,13,Improv_Metronome,65,1,38,60,2714168112
23,13,Improv_Metronome,66,1,38,43,2714198608
23,13,Improv_Metronome,67,1,38,70,2714649516
23,13,Improv_Metronome,68,5,42,127,2714658156
23,13,Improv_Metronome,69,1,38,64,2715138148
23,13,Improv_Metronome,70,5,42,127,2715158076
23,13,Improv_Metronome,71,1,38,57,2715350144
23,13,Improv_Metronome,72,1,38,69,2715639164
23,13,Improv_Metronome,73,5,42,127,2715657448
23,13,Improv_Metronome,74,1,48,73,2715663708
23,13,Improv_Metronome,75,1,38,48,2715668172
23,13,Improv_Metronome,76,1,38,70,2716134236
23,13,Improv_Metronome,77,5,42,127,2716158208
23,13,Improv_Metronome,78,1,38,44,2716164976
23,13,Improv_Metronome,79,1,38,64,2716611468
23,13,Improv_Metronome,80,5,42,127,2716658032
23,13,Improv_Metronome,81,5,42,127,2717157880
23,13,Improv_Metronome,82,1,38,65,2717165712
23,13,Improv_Metronome,83,1,38,64,2717394888
23,13,Improv_Metronome,84,5,42,127,2717657480
23,13,Improv_Metronome,85,1,38,78,2717674060
23,13,Improv_Metronome,86,1,38,54,2717701640
23,13,Improv_Metronome,87,1,48,67,2717708124
23,13,Improv_Metronome,88,5,42,127,2718158236
23,13,Improv_Metronome,89,1,38,73,2718167192
23,13,Improv_Metronome,90,1,38,61,2718653104
23,13,Improv_Metronome,91,5,42,127,2718657924
23,13,Improv_Metronome,92,1,48,60,2719093036
23,13,Improv_Metronome,93,1,38,68,2719101912
23,13,Improv_Metronome,94,1,48,41,2719145428
23,13,Improv_Metronome,95,5,42,127,2719157580
23,13,Improv_Metronome,96,1,38,62,2719329328
23,13,Improv_Metronome,97,1,48,63,2719399576
23,13,Improv_Metronome,98,1,38,80,2719630000
23,13,Improv_Metronome,99,5,42,127,2719658236
23,13,Improv_Metronome,100,1,38,78,2720128428
23,13,Improv_Metronome,101,5,42,127,2720158080
23,13,Improv_Metronome,102,1,38,49,2720162232
23,13,Improv_Metronome,103,1,38,78,2720645004
23,13,Improv_Metronome,104,5,42,127,2720657756
23,13,Improv_Metronome,105,1,38,44,2720682400
23,13,Improv_Metronome,106,1,38,76,2721118548
23,13,Improv_Metronome,107,1,48,72,2721139212
23,13,Improv_Metronome,108,1,38,49,2721150704
23,13,Improv_Metronome,109,5,42,127,2721157472
23,13,Improv_Metronome,110,1,38,65,2721359808
23,13,Improv_Metronome,111,1,48,62,2721406276
23,13,Improv_Metronome,112,5,42,127,2721658212
23,13,Improv_Metronome,113,1,38,66,2721659180
23,13,Improv_Metronome,114,1,38,44,2721687336
23,13,Improv_Metronome,115,5,42,127,2722158036
23,13,Improv_Metronome,116,1,38,70,2722170428
23,13,Improv_Metronome,117,1,38,52,2722200780
23,13,Improv_Metronome,118,5,42,127,2722657612
23,13,Improv_Metronome,119,1,38,71,2722665388
23,13,Improv_Metronome,120,1,38,73,2723144548
23,13,Improv_Metronome,121,5,42,127,2723158424
23,13,Improv_Metronome,122,1,48,62,2723163036
23,13,Improv_Metronome,123,1,38,40,2723182936
23,13,Improv_Metronome,124,1,38,67,2723389104
23,13,Improv_Metronome,125,1,38,51,2723416236
23,13,Improv_Metronome,126,1,48,63,2723434348
23,13,Improv_Metronome,127,5,42,127,2723658212
23,13,Improv_Metronome,128,1,38,70,2723662008
23,13,Improv_Metronome,129,1,38,50,2723688784
23,13,Improv_Metronome,130,1,38,83,2724156368
23,13,Improv_Metronome,131,5,42,127,2724159224
23,13,Improv_Metronome,132,1,38,55,2724185516
23,13,Improv_Metronome,133,1,38,76,2724657032
23,13,Improv_Metronome,134,5,42,127,2724659792
23,13,Improv_Metronome,135,1,38,57,2724686456
23,13,Improv_Metronome,136,5,42,127,2725158352
23,13,Improv_Metronome,137,1,38,80,2725181360
23,13,Improv_Metronome,138,1,38,47,2725222508
23,13,Improv_Metronome,139,1,38,73,2725442988
23,13,Improv_Metronome,140,1,38,41,2725480692
23,13,Improv_Metronome,141,5,42,127,2725657904
23,13,Improv_Metronome,142,1,38,73,2725683612
23,13,Improv_Metronome,143,1,38,56,2725711044
23,13,Improv_Metronome,144,1,48,66,2725724932
23,13,Improv_Metronome,145,5,42,127,2726157828
23,13,Improv_Metronome,146,1,38,82,2726209640
23,13,Improv_Metronome,147,1,38,41,2726256092
23,13,Improv_Metronome,148,5,42,127,2726658396
23,13,Improv_Metronome,149,1,38,77,2726676848
23,13,Improv_Metronome,150,1,38,53,2726714748
23,13,Improv_Metronome,151,1,48,66,2727083828
23,13,Improv_Metronome,152,5,42,127,2727158064
23,13,Improv_Metronome,153,1,48,55,2727361948
23,13,Improv_Metronome,154,1,48,73,2727645056
23,13,Improv_Metronome,155,5,42,127,2727657884
23,13,Improv_Metronome,156,1,48,56,2727681036
23,13,Improv_Metronome,157,5,42,127,2728157416
23,13,Improv_Metronome,158,1,48,48,2728170256
23,13,Improv_Metronome,159,1,38,68,2728190880
23,13,Improv_Metronome,160,1,48,68,2728629572
23,13,Improv_Metronome,161,5,42,127,2728658180
23,13,Improv_Metronome,162,1,48,42,2728691352
23,13,Improv_Metronome,163,5,42,127,2729158008
23,13,Improv_Metronome,164,1,48,71,2729168456
23,13,Improv_Metronome,165,1,48,56,2729432496
23,13,Improv_Metronome,166,5,42,127,2729657684
23,13,Improv_Metronome,167,1,48,74,2729697076
23,13,Improv_Metronome,168,1,38,76,2729714116
23,13,Improv_Metronome,169,5,42,127,2730157408
23,13,Improv_Metronome,170,1,48,67,2730207796
23,13,Improv_Metronome,171,5,42,127,2730658148
23,13,Improv_Metronome,172,1,48,71,2730687072
23,13,Improv_Metronome,173,5,42,127,2731157992
23,13,Improv_Metronome,174,1,48,73,2731182356
23,13,Improv_Metronome,175,1,48,56,2731435324
23,13,Improv_Metronome,176,5,42,127,2731657664
23,13,Improv_Metronome,177,1,48,67,2731707756
23,13,Improv_Metronome,178,1,38,69,2731725912
23,13,Improv_Metronome,179,5,42,127,2732158284
23,13,Improv_Metronome,180,1,48,67,2732202692
23,13,Improv_Metronome,181,1,38,45,2732230872
23,13,Improv_Metronome,182,1,48,56,2732620916
23,13,Improv_Metronome,183,5,42,127,2732657924
23,13,Improv_Metronome,184,1,48,40,2732672624
23,13,Improv_Metronome,185,5,42,127,2733157980
23,13,Improv_Metronome,186,1,48,72,2733168128
23,13,Improv_Metronome,187,1,48,44,2733456628
23,13,Improv_Metronome,188,5,42,127,2733657328
23,13,Improv_Metronome,189,1,48,74,2733727868
23,13,Improv_Metronome,190,1,38,66,2733743404
23,13,Improv_Metronome,191,5,42,127,2734158096
23,13,Improv_Metronome,192,1,48,74,2734264984
23,13,Improv_Metronome,193,5,42,127,2734657868
23,13,Improv_Metronome,194,1,48,66,2734747704
23,13,Improv_Metronome,195,5,42,127,2735157864
23,13,Improv_Metronome,196,1,48,61,2735189852
23,13,Improv_Metronome,197,1,48,59,2735437656
23,13,Improv_Metronome,198,5,42,127,2735658284
23,13,Improv_Metronome,199,1,38,74,2735690800
23,13,Improv_Metronome,200,5,42,127,2736158052
23,13,Improv_Metronome,201,1,38,77,2736175904
23,13,Improv_Metronome,202,1,38,51,2736211712
23,13,Improv_Metronome,203,5,42,127,2736657948
23,13,Improv_Metronome,204,1,38,62,2736696672
23,13,Improv_Metronome,205,1,38,40,2736737940
23,13,Improv_Metronome,206,5,42,127,2737157524
23,13,Improv_Metronome,207,1,38,65,2737199008
23,13,Improv_Metronome,208,1,38,56,2737407028
23,13,Improv_Metronome,209,5,42,127,2737658316
23,13,Improv_Metronome,210,1,48,68,2737713944
23,13,Improv_Metronome,211,1,48,41,2737771620
23,13,Improv_Metronome,212,5,42,127,2738157916
23,13,Improv_Metronome,213,1,48,68,2738212048
23,13,Improv_Metronome,214,5,42,127,2738657908
23,13,Improv_Metronome,215,1,48,67,2738685336
23,13,Improv_Metronome,216,5,42,127,2739158352
23,13,Improv_Metronome,217,1,48,59,2739172840
23,13,Improv_Metronome,218,1,48,60,2739442788
23,13,Improv_Metronome,219,5,42,127,2739658096
23,13,Improv_Metronome,220,1,38,71,2739720680
23,13,Improv_Metronome,221,5,42,127,2740157868
23,13,Improv_Metronome,222,1,38,68,2740208856
23,13,Improv_Metronome,223,5,42,127,2740657712
23,13,Improv_Metronome,224,1,38,60,2740695388
23,13,Improv_Metronome,225,1,48,70,2741147264
23,13,Improv_Metronome,226,1,38,74,2741157756
23,13,Improv_Metronome,227,5,42,127,2741160220
23,13,Improv_Metronome,228,1,38,64,2741392276
23,13,Improv_Metronome,229,1,48,61,2741424496
23,13,Improv_Metronome,230,5,42,127,2741657884
23,13,Improv_Metronome,231,1,38,78,2741673196
23,13,Improv_Metronome,232,1,38,44,2741710048
23,13,Improv_Metronome,233,5,42,127,2742157928
23,13,Improv_Metronome,234,1,38,72,2742176676
23,13,Improv_Metronome,235,5,42,127,2742658372
23,13,Improv_Metronome,236,1,38,76,2742660460
23,13,Improv_Metronome,237,1,38,85,2743127560
23,13,Improv_Metronome,238,1,48,68,2743135392
23,13,Improv_Metronome,239,5,42,127,2743158040
23,13,Improv_Metronome,240,1,38,47,2743177972
23,13,Improv_Metronome,241,1,38,67,2743372692
23,13,Improv_Metronome,242,1,48,57,2743420136
23,13,Improv_Metronome,243,5,42,127,2743657784
23,13,Improv_Metronome,244,1,38,60,2743671976
23,13,Improv_Metronome,245,1,38,74,2744156396
23,13,Improv_Metronome,246,5,42,127,2744159016
23,13,Improv_Metronome,247,1,38,51,2744197752
23,13,Improv_Metronome,248,5,42,127,2744658176
23,13,Improv_Metronome,249,1,38,70,2744665928
23,13,Improv_Metronome,250,1,38,71,2745105992
23,13,Improv_Metronome,251,1,48,68,2745129460
23,13,Improv_Metronome,252,5,42,127,2745157920
23,13,Improv_Metronome,253,1,38,68,2745378980
23,13,Improv_Metronome,254,1,38,43,2745415380
23,13,Improv_Metronome,255,1,48,57,2745418132
23,13,Improv_Metronome,256,5,42,127,2745657800
23,13,Improv_Metronome,257,1,38,66,2745705672
23,13,Improv_Metronome,258,5,42,127,2746157344
23,13,Improv_Metronome,259,1,38,76,2746190604
23,13,Improv_Metronome,260,1,38,55,2746228760
23,13,Improv_Metronome,261,5,42,127,2746658140
23,13,Improv_Metronome,262,1,38,74,2746677416
23,13,Improv_Metronome,263,1,38,73,2747148520
23,13,Improv_Metronome,264,5,42,127,2747157828
23,13,Improv_Metronome,265,1,48,73,2747168572
23,13,Improv_Metronome,266,1,38,46,2747192860
23,13,Improv_Metronome,267,1,38,68,2747390076
23,13,Improv_Metronome,268,1,38,48,2747425356
23,13,Improv_Metronome,269,1,48,64,2747428032
23,13,Improv_Metronome,270,5,42,127,2747657748
23,13,Improv_Metronome,271,1,38,91,2747690116
23,13,Improv_Metronome,272,1,38,57,2747722780
23,13,Improv_Metronome,273,5,42,127,2748158396
23,13,Improv_Metronome,274,1,38,81,2748212232
23,13,Improv_Metronome,275,1,38,51,2748249456
23,13,Improv_Metronome,276,5,42,127,2748657920
23,13,Improv_Metronome,277,1,38,80,2748697616
23,13,Improv_Metronome,278,5,42,127,2749157688
23,13,Improv_Metronome,279,1,38,69,2749169860
23,13,Improv_Metronome,280,1,38,67,2749406820
23,13,Improv_Metronome,281,5,42,127,2749657808
23,13,Improv_Metronome,282,1,38,76,2749674464
23,13,Improv_Metronome,283,1,38,50,2749709528
23,13,Improv_Metronome,284,1,48,62,2749712272
23,13,Improv_Metronome,285,1,38,86,2750149840
23,13,Improv_Metronome,286,5,42,127,2750158176
23,13,Improv_Metronome,287,1,38,49,2750192320
23,13,Improv_Metronome,288,1,38,72,2750620192
23,13,Improv_Metronome,289,1,38,51,2750658356
23,13,Improv_Metronome,290,5,42,127,2750660820
23,13,Improv_Metronome,291,1,38,89,2751137736
23,13,Improv_Metronome,292,5,42,127,2751157596
23,13,Improv_Metronome,293,1,38,51,2751174912
23,13,Improv_Metronome,294,1,48,67,2751199576
23,13,Improv_Metronome,295,1,38,73,2751385420
23,13,Improv_Metronome,296,1,38,54,2751414944
23,13,Improv_Metronome,297,1,48,62,2751447688
23,13,Improv_Metronome,298,1,38,74,2751637496
23,13,Improv_Metronome,299,5,42,127,2751658476
23,13,Improv_Metronome,300,1,38,44,2751671680
23,13,Improv_Metronome,301,1,38,82,2752155644
23,13,Improv_Metronome,302,5,42,127,2752158148
23,13,Improv_Metronome,303,1,38,48,2752192596
23,13,Improv_Metronome,304,1,38,80,2752634224
23,13,Improv_Metronome,305,5,42,127,2752657820
23,13,Improv_Metronome,306,1,38,51,2752672592
23,13,Improv_Metronome,307,1,48,73,2753083684
23,13,Improv_Metronome,308,1,38,67,2753092644
23,13,Improv_Metronome,309,5,42,127,2753157620
23,13,Improv_Metronome,310,1,38,63,2753325180
23,13,Improv_Metronome,311,1,38,42,2753356792
23,13,Improv_Metronome,312,1,48,57,2753374576
23,13,Improv_Metronome,313,1,38,72,2753653276
23,13,Improv_Metronome,314,5,42,127,2753658096
23,13,Improv_Metronome,315,1,38,41,2753698744
23,13,Improv_Metronome,316,5,42,127,2754157852
23,13,Improv_Metronome,317,1,38,95,2754162840
23,13,Improv_Metronome,318,1,38,58,2754203732
23,13,Improv_Metronome,319,1,38,39,2754238568
23,13,Improv_Metronome,320,5,42,127,2754657652
23,13,Improv_Metronome,321,1,38,68,2754674232
23,13,Improv_Metronome,322,1,38,37,2754726492
23,13,Improv_Metronome,323,1,48,67,2755106020
23,13,Improv_Metronome,324,1,38,71,2755109292
23,13,Improv_Metronome,325,1,38,47,2755157924
23,13,Improv_Metronome,326,5,42,127,2755160092
23,13,Improv_Metronome,327,1,38,71,2755364024
23,13,Improv_Metronome,328,1,38,49,2755398860
23,13,Improv_Metronome,329,1,48,61,2755401604
23,13,Improv_Metronome,330,5,42,127,2755658100
23,13,Improv_Metronome,331,1,38,76,2755708888
23,13,Improv_Metronome,332,5,42,127,2756157796
23,13,Improv_Metronome,333,1,38,82,2756188888
23,13,Improv_Metronome,334,1,38,47,2756244464
23,13,Improv_Metronome,335,5,42,127,2756657468
23,13,Improv_Metronome,336,1,38,78,2756659988
23,13,Improv_Metronome,337,1,38,41,2756719756
23,13,Improv_Metronome,338,1,48,71,2757097260
23,13,Improv_Metronome,339,1,38,69,2757100612
23,13,Improv_Metronome,340,1,38,44,2757151296
23,13,Improv_Metronome,341,5,42,127,2757158364
23,13,Improv_Metronome,342,1,38,70,2757359992
23,13,Improv_Metronome,343,1,48,62,2757368124
23,13,Improv_Metronome,344,1,38,49,2757399816
23,13,Improv_Metronome,345,5,42,127,2757657976
23,13,Improv_Metronome,346,1,38,71,2757661688
23,13,Improv_Metronome,347,1,38,37,2757714328
23,13,Improv_Metronome,348,5,42,127,2758157572
23,13,Improv_Metronome,349,1,38,86,2758192404
23,13,Improv_Metronome,350,5,42,127,2758658388
23,13,Improv_Metronome,351,1,38,70,2758659352
23,13,Improv_Metronome,352,1,38,46,2758709732
23,13,Improv_Metronome,353,1,48,70,2759142616
23,13,Improv_Metronome,354,1,38,74,2759150896
23,13,Improv_Metronome,355,5,42,127,2759158112
23,13,Improv_Metronome,356,1,38,35,2759200932
23,13,Improv_Metronome,357,1,38,72,2759362032
23,13,Improv_Metronome,358,1,38,54,2759394096
23,13,Improv_Metronome,359,1,48,66,2759397292
23,13,Improv_Metronome,360,1,48,33,2759452324
23,13,Improv_Metronome,361,5,42,127,2759657824
23,13,Improv_Metronome,362,1,38,87,2759679344
23,13,Improv_Metronome,363,1,38,59,2759714624
23,13,Improv_Metronome,364,5,42,127,2760157648
23,13,Improv_Metronome,365,1,38,84,2760214392
23,13,Improv_Metronome,366,1,38,55,2760255136
23,13,Improv_Metronome,367,1,38,80,2760658592
23,13,Improv_Metronome,368,5,42,127,2760660824
23,13,Improv_Metronome,369,1,38,57,2760692428
23,13,Improv_Metronome,370,5,42,127,2761158112
23,13,Improv_Metronome,371,1,48,74,2761164900
23,13,Improv_Metronome,372,1,48,64,2761412404
23,13,Improv_Metronome,373,5,42,127,2761657564
23,13,Improv_Metronome,374,1,38,88,2761700096
23,13,Improv_Metronome,375,1,38,56,2761737172
23,13,Improv_Metronome,376,5,42,127,2762157384
23,13,Improv_Metronome,377,1,38,85,2762190196
23,13,Improv_Metronome,378,1,38,41,2762240216
23,13,Improv_Metronome,379,5,42,127,2762658104
23,13,Improv_Metronome,380,1,38,98,2762694652
23,13,Improv_Metronome,381,1,38,60,2762730836
23,13,Improv_Metronome,382,1,38,42,2762759316
23,13,Improv_Metronome,383,1,48,75,2763108200
23,13,Improv_Metronome,384,5,42,127,2763157752
23,13,Improv_Metronome,385,1,48,62,2763377792
23,13,Improv_Metronome,386,1,48,42,2763415316
23,13,Improv_Metronome,387,5,42,127,2763657556
23,13,Improv_Metronome,388,1,38,85,2763667256
23,13,Improv_Metronome,389,1,38,51,2763723784
23,13,Improv_Metronome,390,5,42,127,2764158500
23,13,Improv_Metronome,391,1,38,84,2764178296
23,13,Improv_Metronome,392,1,38,49,2764230712
23,13,Improv_Metronome,393,1,38,96,2764654916
23,13,Improv_Metronome,394,5,42,127,2764658016
23,13,Improv_Metronome,395,1,38,52,2764704648
23,13,Improv_Metronome,396,1,48,76,2765128532
23,13,Improv_Metronome,397,5,42,127,2765157688
23,13,Improv_Metronome,398,1,48,64,2765393264
23,13,Improv_Metronome,399,1,48,24,2765477340
23,13,Improv_Metronome,400,5,42,127,2765657396
23,13,Improv_Metronome,401,1,38,87,2765680432
23,13,Improv_Metronome,402,1,38,39,2765741596
23,13,Improv_Metronome,403,5,42,127,2766158412
23,13,Improv_Metronome,404,1,38,76,2766177036
23,13,Improv_Metronome,405,1,38,71,2766646624
23,13,Improv_Metronome,406,5,42,127,2766657804
23,13,Improv_Metronome,407,1,38,46,2766699752
23,13,Improv_Metronome,408,1,48,69,2767109200
23,13,Improv_Metronome,409,5,42,127,2767157552
23,13,Improv_Metronome,410,1,48,62,2767388964
23,13,Improv_Metronome,411,1,38,85,2767657748
23,13,Improv_Metronome,412,5,42,127,2767660288
23,13,Improv_Metronome,413,1,38,40,2767714432
23,13,Improv_Metronome,414,1,38,82,2768126344
23,13,Improv_Metronome,415,5,42,127,2768158016
23,13,Improv_Metronome,416,1,38,36,2768188720
23,13,Improv_Metronome,417,1,38,85,2768652720
23,13,Improv_Metronome,418,5,42,127,2768657912
23,13,Improv_Metronome,419,1,38,54,2768694528
23,13,Improv_Metronome,420,5,42,127,2769157592
23,13,Improv_Metronome,421,1,48,69,2769166544
23,13,Improv_Metronome,422,1,48,69,2769445244
23,13,Improv_Metronome,423,5,42,127,2769658384
23,13,Improv_Metronome,424,1,38,88,2769703392
23,13,Improv_Metronome,425,1,38,39,2769757224
23,13,Improv_Metronome,426,5,42,127,2770157908
23,13,Improv_Metronome,427,1,38,81,2770171052
23,13,Improv_Metronome,428,1,38,47,2770210220
23,13,Improv_Metronome,429,5,42,127,2770657656
23,13,Improv_Metronome,430,1,38,82,2770673040
23,13,Improv_Metronome,431,1,38,52,2770714304
23,13,Improv_Metronome,432,5,42,127,2771158524
23,13,Improv_Metronome,433,1,48,77,2771173308
23,13,Improv_Metronome,434,1,48,75,2771444676
23,13,Improv_Metronome,0,9999,9999,9999,9999,2701655120
23,13,Improv_Metronome,1,9999,9999,9999,9999,2702155884
23,13,Improv_Metronome,2,9999,9999,9999,9999,2702655600
23,13,Improv_Metronome,3,9999,9999,9999,9999,2703155316
23,13,Improv_Metronome,4,9999,9999,9999,9999,2703656000
23,13,Improv_Metronome,5,9999,9999,9999,9999,2704155700
23,13,Improv_Metronome,6,9999,9999,9999,9999,2704655468
23,13,Improv_Metronome,7,9999,9999,9999,9999,2705155164
23,13,Improv_Metronome,8,9999,9999,9999,9999,2705655864
23,13,Improv_Metronome,9,9999,9999,9999,9999,2706155632
23,13,Improv_Metronome,10,9999,9999,9999,9999,2706655324
23,13,Improv_Metronome,11,9999,9999,9999,9999,2707156060
23,13,Improv_Metronome,12,9999,9999,9999,9999,2707655740
23,13,Improv_Metronome,13,9999,9999,9999,9999,2708155448
23,13,Improv_Metronome,14,9999,9999,9999,9999,2708655224
23,13,Improv_Metronome,15,9999,9999,9999,9999,2709155888
23,13,Improv_Metronome,16,9999,9999,9999,9999,2709655632
23,13,Improv_Metronome,17,9999,9999,9999,9999,2710155368
23,13,Improv_Metronome,18,9999,9999,9999,9999,2710656112
23,13,Improv_Metronome,19,9999,9999,9999,9999,2711155804
23,13,Improv_Metronome,20,9999,9999,9999,9999,2711655480
23,13,Improv_Metronome,21,9999,9999,9999,9999,2712155228
23,13,Improv_Metronome,22,9999,9999,9999,9999,2712655952
23,13,Improv_Metronome,23,9999,9999,9999,9999,2713155676
23,13,Improv_Metronome,24,9999,9999,9999,9999,2713655384
23,13,Improv_Metronome,25,9999,9999,9999,9999,2714155076
23,13,Improv_Metronome,26,9999,9999,9999,9999,2714655792
23,13,Improv_Metronome,27,9999,9999,9999,9999,2715155564
23,13,Improv_Metronome,28,9999,9999,9999,9999,2715655236
23,13,Improv_Metronome,29,9999,9999,9999,9999,2716155992
23,13,Improv_Metronome,30,9999,9999,9999,9999,2716655668
23,13,Improv_Metronome,31,9999,9999,9999,9999,2717155444
23,13,Improv_Metronome,32,9999,9999,9999,9999,2717655116
23,13,Improv_Metronome,33,9999,9999,9999,9999,2718155872
23,13,Improv_Metronome,34,9999,9999,9999,9999,2718655564
23,13,Improv_Metronome,35,9999,9999,9999,9999,2719155292
23,13,Improv_Metronome,36,9999,9999,9999,9999,2719656024
23,13,Improv_Metronome,37,9999,9999,9999,9999,2720155720
23,13,Improv_Metronome,38,9999,9999,9999,9999,2720655468
23,13,Improv_Metronome,39,9999,9999,9999,9999,2721155184
23,13,Improv_Metronome,40,9999,9999,9999,9999,2721655924
23,13,Improv_Metronome,41,9999,9999,9999,9999,2722155596
23,13,Improv_Metronome,42,9999,9999,9999,9999,2722655324
23,13,Improv_Metronome,43,9999,9999,9999,9999,2723156060
23,13,Improv_Metronome,44,9999,9999,9999,9999,2723655776
23,13,Improv_Metronome,45,9999,9999,9999,9999,2724155448
23,13,Improv_Metronome,46,9999,9999,9999,9999,2724655196
23,13,Improv_Metronome,47,9999,9999,9999,9999,2725155912
23,13,Improv_Metronome,48,9999,9999,9999,9999,2725655616
23,13,Improv_Metronome,49,9999,9999,9999,9999,2726155316
23,13,Improv_Metronome,50,9999,9999,9999,9999,2726656108
23,13,Improv_Metronome,51,9999,9999,9999,9999,2727155776
23,13,Improv_Metronome,52,9999,9999,9999,9999,2727655520
23,13,Improv_Metronome,53,9999,9999,9999,9999,2728155204
23,13,Improv_Metronome,54,9999,9999,9999,9999,2728655964
23,13,Improv_Metronome,55,9999,9999,9999,9999,2729155644
23,13,Improv_Metronome,56,9999,9999,9999,9999,2729655396
23,13,Improv_Metronome,57,9999,9999,9999,9999,2730155116
23,13,Improv_Metronome,58,9999,9999,9999,9999,2730655860
23,13,Improv_Metronome,59,9999,9999,9999,9999,2731155556
23,13,Improv_Metronome,60,9999,9999,9999,9999,2731655228
23,13,Improv_Metronome,61,9999,9999,9999,9999,2732155996
23,13,Improv_Metronome,62,9999,9999,9999,9999,2732655712
23,13,Improv_Metronome,63,9999,9999,9999,9999,2733155392
23,13,Improv_Metronome,64,9999,9999,9999,9999,2733655116
23,13,Improv_Metronome,65,9999,9999,9999,9999,2734155884
23,13,Improv_Metronome,66,9999,9999,9999,9999,2734655580
23,13,Improv_Metronome,67,9999,9999,9999,9999,2735155276
23,13,Improv_Metronome,68,9999,9999,9999,9999,2735655996
23,13,Improv_Metronome,69,9999,9999,9999,9999,2736155764
23,13,Improv_Metronome,70,9999,9999,9999,9999,2736655436
23,13,Improv_Metronome,71,9999,9999,9999,9999,2737155160
23,13,Improv_Metronome,72,9999,9999,9999,9999,2737655880
23,13,Improv_Metronome,73,9999,9999,9999,9999,2738155624
23,13,Improv_Metronome,74,9999,9999,9999,9999,2738655320
23,13,Improv_Metronome,75,9999,9999,9999,9999,2739156064
23,13,Improv_Metronome,76,9999,9999,9999,9999,2739655736
23,13,Improv_Metronome,77,9999,9999,9999,9999,2740155504
23,13,Improv_Metronome,78,9999,9999,9999,9999,2740655200
23,13,Improv_Metronome,79,9999,9999,9999,9999,2741155932
23,13,Improv_Metronome,80,9999,9999,9999,9999,2741655668
23,13,Improv_Metronome,81,9999,9999,9999,9999,2742155340
23,13,Improv_Metronome,82,9999,9999,9999,9999,2742656084
23,13,Improv_Metronome,83,9999,9999,9999,9999,2743155824
23,13,Improv_Metronome,84,9999,9999,9999,9999,2743655496
23,13,Improv_Metronome,85,9999,9999,9999,9999,2744155240
23,13,Improv_Metronome,86,9999,9999,9999,9999,2744655960
23,13,Improv_Metronome,87,9999,9999,9999,9999,2745155704
23,13,Improv_Metronome,88,9999,9999,9999,9999,2745655364
23,13,Improv_Metronome,89,9999,9999,9999,9999,2746155056
23,13,Improv_Metronome,90,9999,9999,9999,9999,2746655848
23,13,Improv_Metronome,91,9999,9999,9999,9999,2747155536
23,13,Improv_Metronome,92,9999,9999,9999,9999,2747655236
23,13,Improv_Metronome,93,9999,9999,9999,9999,2748155956
23,13,Improv_Metronome,94,9999,9999,9999,9999,2748655704
23,13,Improv_Metronome,95,9999,9999,9999,9999,2749155400
23,13,Improv_Metronome,96,9999,9999,9999,9999,2749655148
23,13,Improv_Metronome,97,9999,9999,9999,9999,2750155888
23,13,Improv_Metronome,98,9999,9999,9999,9999,2750655560
23,13,Improv_Metronome,99,9999,9999,9999,9999,2751155308
23,13,Improv_Metronome,100,9999,9999,9999,9999,2751656040
23,13,Improv_Metronome,101,9999,9999,9999,9999,2752155712
23,13,Improv_Metronome,102,9999,9999,9999,9999,2752655460
23,13,Improv_Metronome,103,9999,9999,9999,9999,2753155184
23,13,Improv_Metronome,104,9999,9999,9999,9999,2753655884
23,13,Improv_Metronome,105,9999,9999,9999,9999,2754155636
23,13,Improv_Metronome,106,9999,9999,9999,9999,2754655336
23,13,Improv_Metronome,107,9999,9999,9999,9999,2755156032
23,13,Improv_Metronome,108,9999,9999,9999,9999,2755655740
23,13,Improv_Metronome,109,9999,9999,9999,9999,2756155508
23,13,Improv_Metronome,110,9999,9999,9999,9999,2756655180
23,13,Improv_Metronome,111,9999,9999,9999,9999,2757155928
23,13,Improv_Metronome,112,9999,9999,9999,9999,2757655608
23,13,Improv_Metronome,113,9999,9999,9999,9999,2758155356
23,13,Improv_Metronome,114,9999,9999,9999,9999,2758656100
23,13,Improv_Metronome,115,9999,9999,9999,9999,2759155824
23,13,Improv_Metronome,116,9999,9999,9999,9999,2759655536
23,13,Improv_Metronome,117,9999,9999,9999,9999,2760155208
23,13,Improv_Metronome,118,9999,9999,9999,9999,2760655928
23,13,Improv_Metronome,119,9999,9999,9999,9999,2761155676
23,13,Improv_Metronome,120,9999,9999,9999,9999,2761655348
23,13,Improv_Metronome,121,9999,9999,9999,9999,2762155096
23,13,Improv_Metronome,122,9999,9999,9999,9999,2762655816
23,13,Improv_Metronome,123,9999,9999,9999,9999,2763155536
23,13,Improv_Metronome,124,9999,9999,9999,9999,2763655268
23,13,Improv_Metronome,125,9999,9999,9999,9999,2764155988
23,13,Improv_Metronome,126,9999,9999,9999,9999,2764655728
23,13,Improv_Metronome,127,9999,9999,9999,9999,2765155400
23,13,Improv_Metronome,128,9999,9999,9999,9999,2765655108
23,13,Improv_Metronome,129,9999,9999,9999,9999,2766155824
23,13,Improv_Metronome,130,9999,9999,9999,9999,2766655588
23,13,Improv_Metronome,131,9999,9999,9999,9999,2767155264
23,13,Improv_Metronome,132,9999,9999,9999,9999,2767655988
23,13,Improv_Metronome,133,9999,9999,9999,9999,2768155728
23,13,Improv_Metronome,134,9999,9999,9999,9999,2768655476
23,13,Improv_Metronome,135,9999,9999,9999,9999,2769155152
23,13,Improv_Metronome,136,9999,9999,9999,9999,2769655872
23,13,Improv_Metronome,137,9999,9999,9999,9999,2770155620
23,13,Improv_Metronome,138,9999,9999,9999,9999,2770655292
23,13,Improv_Metronome,139,9999,9999,9999,9999,2771156088
24,14,Improv_Melody,0,2,48,80,2827279832
24,14,Improv_Melody,1,2,72,80,2827281844
24,14,Improv_Melody,2,5,42,127,2827284448
24,14,Improv_Melody,3,5,42,110,2827778640
24,14,Improv_Melody,4,5,42,110,2828278136
24,14,Improv_Melody,5,5,42,110,2828777784
24,14,Improv_Melody,6,5,42,127,2829277504
24,14,Improv_Melody,7,5,42,110,2829778496
24,14,Improv_Melody,8,5,42,110,2830277996
24,14,Improv_Melody,9,5,42,110,2830777568
24,14,Improv_Melody,10,2,43,80,2831279788
24,14,Improv_Melody,11,2,67,80,2831282092
24,14,Improv_Melody,12,5,42,127,2831284632
24,14,Improv_Melody,13,5,42,110,2831778144
24,14,Improv_Melody,14,5,42,110,2832277868
24,14,Improv_Melody,15,5,42,110,2832777592
24,14,Improv_Melody,16,5,42,127,2833278584
24,14,Improv_Melody,17,5,42,110,2833778008
24,14,Improv_Melody,18,5,42,110,2834277728
24,14,Improv_Melody,19,5,42,110,2834777500
24,14,Improv_Melody,20,2,45,80,2835280848
24,14,Improv_Melody,21,2,69,80,2835283004
24,14,Improv_Melody,22,5,42,127,2835285612
24,14,Improv_Melody,23,5,42,110,2835777928
24,14,Improv_Melody,24,5,42,110,2836277504
24,14,Improv_Melody,25,5,42,110,2836778568
24,14,Improv_Melody,26,5,42,127,2837278068
24,14,Improv_Melody,27,5,42,110,2837777716
24,14,Improv_Melody,28,5,42,110,2838277512
24,14,Improv_Melody,29,5,42,110,2838778356
24,14,Improv_Melody,30,2,41,80,2839280664
24,14,Improv_Melody,31,2,65,80,2839282508
24,14,Improv_Melody,32,5,42,127,2839285048
24,14,Improv_Melody,33,5,42,110,2839777588
24,14,Improv_Melody,34,5,42,110,2840278356
24,14,Improv_Melody,35,5,42,110,2840778304
24,14,Improv_Melody,36,5,42,127,2841277876
24,14,Improv_Melody,37,5,42,110,2841777448
24,14,Improv_Melody,38,5,42,110,2842278364
24,14,Improv_Melody,39,5,42,110,2842777864
24,14,Improv_Melody,40,2,48,80,2843280240
24,14,Improv_Melody,41,2,72,80,2843282468
24,14,Improv_Melody,42,5,42,127,2843284776
24,14,Improv_Melody,43,1,38,72,2843326792
24,14,Improv_Melody,44,1,48,56,2843424676
24,14,Improv_Melody,45,5,42,110,2843778396
24,14,Improv_Melody,46,1,38,35,2843828344
24,14,Improv_Melody,47,1,38,47,2844233372
24,14,Improv_Melody,48,5,42,110,2844278240
24,14,Improv_Melody,49,1,38,62,2844750276
24,14,Improv_Melody,50,5,42,110,2844777864
24,14,Improv_Melody,51,1,38,64,2845237180
24,14,Improv_Melody,52,5,42,127,2845277564
24,14,Improv_Melody,53,1,38,26,2845725740
24,14,Improv_Melody,54,5,42,110,2845778360
24,14,Improv_Melody,55,1,38,57,2846249152
24,14,Improv_Melody,56,5,42,110,2846278060
24,14,Improv_Melody,57,1,38,31,2846306844
24,14,Improv_Melody,58,1,38,71,2846758848
24,14,Improv_Melody,59,5,42,110,2846777588
24,14,Improv_Melody,60,1,48,62,2847163032
24,14,Improv_Melody,61,2,43,80,2847280156
24,14,Improv_Melody,62,2,67,80,2847282232
24,14,Improv_Melody,63,5,42,127,2847284540
24,14,Improv_Melody,64,1,38,78,2847310548
24,14,Improv_Melody,65,1,38,30,2847364776
24,14,Improv_Melody,66,5,42,110,2847778236
24,14,Improv_Melody,67,1,38,76,2847826380
24,14,Improv_Melody,68,1,38,34,2847887268
24,14,Improv_Melody,69,5,42,110,2848278060
24,14,Improv_Melody,70,1,38,67,2848303396
24,14,Improv_Melody,71,5,42,110,2848777464
24,14,Improv_Melody,72,1,38,69,2848786264
24,14,Improv_Melody,73,1,38,42,2848838156
24,14,Improv_Melody,74,5,42,127,2849278264
24,14,Improv_Melody,75,1,38,66,2849285644
24,14,Improv_Melody,76,1,38,46,2849335212
24,14,Improv_Melody,77,1,38,61,2849756876
24,14,Improv_Melody,78,5,42,110,2849778232
24,14,Improv_Melody,79,1,38,45,2849801156
24,14,Improv_Melody,80,1,38,66,2850270468
24,14,Improv_Melody,81,5,42,110,2850277616
24,14,Improv_Melody,82,1,38,46,2850316320
24,14,Improv_Melody,83,1,38,70,2850767748
24,14,Improv_Melody,84,5,42,110,2850777440
24,14,Improv_Melody,85,1,38,49,2850810536
24,14,Improv_Melody,86,1,48,65,2851151244
24,14,Improv_Melody,87,2,45,80,2851280648
24,14,Improv_Melody,88,2,69,80,2851282956
24,14,Improv_Melody,89,5,42,127,2851285488
24,14,Improv_Melody,90,1,38,81,2851301552
24,14,Improv_Melody,91,1,38,42,2851351192
24,14,Improv_Melody,92,5,42,110,2851777840
24,14,Improv_Melody,93,1,38,84,2851827700
24,14,Improv_Melody,94,1,38,43,2851878544
24,14,Improv_Melody,95,5,42,110,2852277592
24,14,Improv_Melody,96,1,38,78,2852291708
24,14,Improv_Melody,97,1,38,46,2852340752
24,14,Improv_Melody,98,5,42,110,2852778244
24,14,Improv_Melody,99,1,38,69,2852819284
24,14,Improv_Melody,100,1,38,26,2852882468
24,14,Improv_Melody,101,5,42,127,2853277996
24,14,Improv_Melody,102,1,38,67,2853297348
24,14,Improv_Melody,103,1,38,33,2853359632
24,14,Improv_Melody,104,5,42,110,2853777748
24,14,Improv_Melody,105,1,38,69,2853789992
24,14,Improv_Melody,106,1,38,40,2853841280
24,14,Improv_Melody,107,5,42,110,2854277352
24,14,Improv_Melody,108,1,38,68,2854305672
24,14,Improv_Melody,109,1,38,39,2854358684
24,14,Improv_Melody,110,5,42,110,2854778152
24,14,Improv_Melody,111,1,38,76,2854822108
24,14,Improv_Melody,112,1,38,33,2854885812
24,14,Improv_Melody,113,1,38,75,2855177976
24,14,Improv_Melody,114,1,38,39,2855231284
24,14,Improv_Melody,115,2,41,80,2855280528
24,14,Improv_Melody,116,2,65,80,2855282760
24,14,Improv_Melody,117,5,42,127,2855285364
24,14,Improv_Melody,118,1,48,73,2855384808
24,14,Improv_Melody,119,5,42,110,2855777648
24,14,Improv_Melody,120,1,38,81,2855799684
24,14,Improv_Melody,121,1,38,38,2855855392
24,14,Improv_Melody,122,5,42,110,2856278496
24,14,Improv_Melody,123,1,38,81,2856305052
24,14,Improv_Melody,124,1,38,87,2856774260
24,14,Improv_Melody,125,5,42,110,2856778040
24,14,Improv_Melody,126,1,38,50,2856825596
24,14,Improv_Melody,127,5,42,127,2857277724
24,14,Improv_Melody,128,1,38,30,2857291388
24,14,Improv_Melody,129,1,48,16,2857304384
24,14,Improv_Melody,130,1,38,75,2857766260
24,14,Improv_Melody,131,5,42,110,2857777444
24,14,Improv_Melody,132,1,38,46,2857822316
24,14,Improv_Melody,133,1,38,71,2858262200
24,14,Improv_Melody,134,5,42,110,2858278248
24,14,Improv_Melody,135,1,38,44,2858329968
24,14,Improv_Melody,136,1,38,69,2858773920
24,14,Improv_Melody,137,5,42,110,2858778072
24,14,Improv_Melody,138,1,38,47,2858824336
24,14,Improv_Melody,139,2,48,80,2859280336
24,14,Improv_Melody,140,2,72,80,2859282492
24,14,Improv_Melody,141,5,42,127,2859285100
24,14,Improv_Melody,142,1,38,77,2859305124
24,14,Improv_Melody,143,1,48,63,2859775108
24,14,Improv_Melody,144,5,42,110,2859778288
24,14,Improv_Melody,145,1,38,86,2860093844
24,14,Improv_Melody,146,5,42,110,2860278120
24,14,Improv_Melody,147,1,38,66,2860683100
24,14,Improv_Melody,148,5,42,110,2860777984
24,14,Improv_Melody,149,1,38,67,2861217580
24,14,Improv_Melody,150,5,42,127,2861277608
24,14,Improv_Melody,151,1,38,71,2861742936
24,14,Improv_Melody,152,5,42,110,2861778280
24,14,Improv_Melody,153,1,38,48,2861783480
24,14,Improv_Melody,154,1,38,70,2862255856
24,14,Improv_Melody,155,5,42,110,2862278036
24,14,Improv_Melody,156,1,38,48,2862299244
24,14,Improv_Melody,157,1,38,70,2862763836
24,14,Improv_Melody,158,5,42,110,2862777640
24,14,Improv_Melody,159,1,38,44,2862812384
24,14,Improv_Melody,160,1,48,66,2863135212
24,14,Improv_Melody,161,1,38,81,2863257888
24,14,Improv_Melody,162,2,43,80,2863280024
24,14,Improv_Melody,163,2,67,80,2863282180
24,14,Improv_Melody,164,5,42,127,2863284864
24,14,Improv_Melody,165,1,38,21,2863355508
24,14,Improv_Melody,166,5,42,110,2863778192
24,14,Improv_Melody,167,1,38,67,2863797164
24,14,Improv_Melody,168,1,38,42,2863853096
24,14,Improv_Melody,169,5,42,110,2864278316
24,14,Improv_Melody,170,1,38,66,2864293332
24,14,Improv_Melody,171,1,38,21,2864388452
24,14,Improv_Melody,172,1,38,70,2864762688
24,14,Improv_Melody,173,5,42,110,2864777616
24,14,Improv_Melody,174,1,38,54,2864796200
24,14,Improv_Melody,175,5,42,127,2865278348
24,14,Improv_Melody,176,1,38,69,2865282512
24,14,Improv_Melody,177,1,38,48,2865326020
24,14,Improv_Melody,178,1,38,75,2865776056
24,14,Improv_Melody,179,5,42,110,2865778696
24,14,Improv_Melody,180,1,38,51,2865819944
24,14,Improv_Melody,181,5,42,110,2866277704
24,14,Improv_Melody,182,1,38,76,2866295776
24,14,Improv_Melody,183,1,38,48,2866344376
24,14,Improv_Melody,184,5,42,110,2866777432
24,14,Improv_Melody,185,1,38,68,2866813684
24,14,Improv_Melody,186,1,38,45,2866859144
24,14,Improv_Melody,187,1,48,64,2867193488
24,14,Improv_Melody,188,2,45,80,2867280552
24,14,Improv_Melody,189,2,69,80,2867282928
24,14,Improv_Melody,190,5,42,127,2867286200
24,14,Improv_Melody,191,1,38,88,2867333548
24,14,Improv_Melody,192,1,38,54,2867374368
24,14,Improv_Melody,193,5,42,110,2867778172
24,14,Improv_Melody,194,1,38,86,2867811160
24,14,Improv_Melody,195,1,38,48,2867869408
24,14,Improv_Melody,196,5,42,110,2868277556
24,14,Improv_Melody,197,1,38,83,2868293016
24,14,Improv_Melody,198,5,42,110,2868778376
24,14,Improv_Melody,199,1,38,83,2868801988
24,14,Improv_Melody,200,1,38,51,2868852552
24,14,Improv_Melody,201,5,42,127,2869278128
24,14,Improv_Melody,202,1,38,76,2869308396
24,14,Improv_Melody,203,1,38,43,2869370852
24,14,Improv_Melody,204,5,42,110,2869777956
24,14,Improv_Melody,205,1,38,69,2869794840
24,14,Improv_Melody,206,1,38,44,2869858644
24,14,Improv_Melody,207,5,42,110,2870277484
24,14,Improv_Melody,208,1,38,79,2870287108
24,14,Improv_Melody,209,1,38,50,2870337200
24,14,Improv_Melody,210,5,42,110,2870778208
24,14,Improv_Melody,211,1,38,75,2870809524
24,14,Improv_Melody,212,1,38,46,2870858948
24,14,Improv_Melody,213,1,48,73,2871187488
24,14,Improv_Melody,214,1,48,28,2871264128
24,14,Improv_Melody,215,2,41,80,2871280432
24,14,Improv_Melody,216,2,65,80,2871282740
24,14,Improv_Melody,217,5,42,127,2871285200
24,14,Improv_Melody,218,1,38,102,2871363400
24,14,Improv_Melody,219,1,38,54,2871412324
24,14,Improv_Melody,220,1,38,23,2871477452
24,14,Improv_Melody,221,5,42,110,2871777736
24,14,Improv_Melody,222,1,38,64,2871819748
24,14,Improv_Melody,223,1,38,40,2871865356
24,14,Improv_Melody,224,1,38,75,2872275644
24,14,Improv_Melody,225,5,42,110,2872278304
24,14,Improv_Melody,226,1,38,40,2872331300
24,14,Improv_Melody,227,5,42,110,2872777988
24,14,Improv_Melody,228,1,38,77,2872780000
24,14,Improv_Melody,229,1,38,47,2872830304
24,14,Improv_Melody,230,5,42,127,2873278260
24,14,Improv_Melody,231,1,38,81,2873301204
24,14,Improv_Melody,232,1,38,30,2873375380
24,14,Improv_Melody,233,5,42,110,2873777568
24,14,Improv_Melody,234,1,38,69,2873815912
24,14,Improv_Melody,235,1,38,39,2873876928
24,14,Improv_Melody,236,5,42,110,2874278296
24,14,Improv_Melody,237,1,38,61,2874297572
24,14,Improv_Melody,238,1,38,46,2874343480
24,14,Improv_Melody,239,1,38,67,2874778196
24,14,Improv_Melody,240,5,42,110,2874780808
24,14,Improv_Melody,241,1,38,44,2874825572
24,14,Improv_Melody,242,1,48,75,2875154764
24,14,Improv_Melody,243,2,48,80,2875280440
24,14,Improv_Melody,244,2,72,80,2875282664
24,14,Improv_Melody,245,5,42,127,2875285048
24,14,Improv_Melody,246,1,38,92,2875311580
24,14,Improv_Melody,247,1,38,28,2875375808
24,14,Improv_Melody,248,5,42,110,2875778444
24,14,Improv_Melody,249,1,38,82,2875815520
24,14,Improv_Melody,250,1,38,44,2875867188
24,14,Improv_Melody,251,5,42,110,2876278196
24,14,Improv_Melody,252,1,38,83,2876289172
24,14,Improv_Melody,253,1,38,57,2876329760
24,14,Improv_Melody,254,5,42,110,2876777948
24,14,Improv_Melody,255,1,38,69,2876783912
24,14,Improv_Melody,256,1,38,49,2876833404
24,14,Improv_Melody,257,5,42,127,2877277552
24,14,Improv_Melody,258,1,38,67,2877301536
24,14,Improv_Melody,259,1,38,45,2877347592
24,14,Improv_Melody,260,5,42,110,2877778180
24,14,Improv_Melody,261,1,38,62,2877797324
24,14,Improv_Melody,262,1,38,38,2877845324
24,14,Improv_Melody,263,5,42,110,2878278008
24,14,Improv_Melody,264,1,38,72,2878310548
24,14,Improv_Melody,265,1,38,46,2878364756
24,14,Improv_Melody,266,5,42,110,2878777760
24,14,Improv_Melody,267,1,38,67,2878800700
24,14,Improv_Melody,268,1,38,44,2878852392
24,14,Improv_Melody,269,1,48,67,2879178140
24,14,Improv_Melody,270,2,43,80,2879280072
24,14,Improv_Melody,271,2,67,80,2879282072
24,14,Improv_Melody,272,5,42,127,2879284908
24,14,Improv_Melody,273,1,38,81,2879315852
24,14,Improv_Melody,274,1,38,49,2879361484
24,14,Improv_Melody,275,5,42,110,2879778156
24,14,Improv_Melody,276,1,38,78,2879817700
24,14,Improv_Melody,277,1,38,46,2879878220
24,14,Improv_Melody,278,5,42,110,2880277836
24,14,Improv_Melody,279,1,38,73,2880311844
24,14,Improv_Melody,280,1,38,46,2880363156
24,14,Improv_Melody,281,5,42,110,2880777664
24,14,Improv_Melody,282,1,38,75,2880811968
24,14,Improv_Melody,283,1,38,47,2880863808
24,14,Improv_Melody,284,5,42,127,2881278312
24,14,Improv_Melody,285,1,38,69,2881305584
24,14,Improv_Melody,286,1,38,46,2881366600
24,14,Improv_Melody,287,5,42,110,2881777988
24,14,Improv_Melody,288,1,38,67,2881819476
24,14,Improv_Melody,289,5,42,110,2882277840
24,14,Improv_Melody,290,1,38,69,2882300404
24,14,Improv_Melody,291,1,38,89,2882773452
24,14,Improv_Melody,292,5,42,110,2882777456
24,14,Improv_Melody,293,1,38,58,2882818032
24,14,Improv_Melody,294,1,38,42,2882853688
24,14,Improv_Melody,295,1,48,73,2883142116
24,14,Improv_Melody,296,1,48,44,2883203972
24,14,Improv_Melody,297,2,45,80,2883280792
24,14,Improv_Melody,298,2,69,80,2883282868
24,14,Improv_Melody,299,5,42,127,2883285408
24,14,Improv_Melody,300,1,38,91,2883325608
24,14,Improv_Melody,301,1,38,59,2883366132
24,14,Improv_Melody,302,5,42,110,2883777816
24,14,Improv_Melody,303,1,38,82,2883815412
24,14,Improv_Melody,304,1,38,35,2883867832
24,14,Improv_Melody,305,5,42,110,2884277720
24,14,Improv_Melody,306,1,38,68,2884290936
24,14,Improv_Melody,307,1,38,40,2884336688
24,14,Improv_Melody,308,5,42,110,2884778296
24,14,Improv_Melody,309,1,38,74,2884787248
24,14,Improv_Melody,310,1,38,50,2884835168
24,14,Improv_Melody,311,5,42,127,2885278196
24,14,Improv_Melody,312,1,38,82,2885295748
24,14,Improv_Melody,313,1,38,51,2885341952
24,14,Improv_Melody,314,5,42,110,2885777724
24,14,Improv_Melody,315,1,38,71,2885813384
24,14,Improv_Melody,316,1,38,46,2885862652
24,14,Improv_Melody,317,5,42,110,2886277628
24,14,Improv_Melody,318,1,38,71,2886288224
24,14,Improv_Melody,319,1,38,50,2886332184
24,14,Improv_Melody,320,5,42,110,2886778276
24,14,Improv_Melody,321,1,38,80,2886781396
24,14,Improv_Melody,322,1,38,47,2886835076
24,14,Improv_Melody,323,1,48,80,2887152680
24,14,Improv_Melody,324,1,48,51,2887203664
24,14,Improv_Melody,325,2,41,80,2887280580
24,14,Improv_Melody,326,2,65,80,2887282656
24,14,Improv_Melody,327,5,42,127,2887285120
24,14,Improv_Melody,328,1,38,92,2887337072
24,14,Improv_Melody,329,1,38,35,2887402796
24,14,Improv_Melody,330,5,42,110,2887777752
24,14,Improv_Melody,331,1,38,80,2887807052
24,14,Improv_Melody,332,1,38,44,2887852136
24,14,Improv_Melody,333,5,42,110,2888278604
24,14,Improv_Melody,334,1,38,82,2888285192
24,14,Improv_Melody,335,1,38,47,2888339316
24,14,Improv_Melody,336,5,42,110,2888777984
24,14,Improv_Melody,337,1,38,81,2888804612
24,14,Improv_Melody,338,1,38,35,2888863456
24,14,Improv_Melody,339,5,42,127,2889277736
24,14,Improv_Melody,340,1,38,76,2889311168
24,14,Improv_Melody,341,1,38,42,2889375696
24,14,Improv_Melody,342,5,42,110,2889777636
24,14,Improv_Melody,343,1,38,77,2889798112
24,14,Improv_Melody,344,1,38,35,2889862440
24,14,Improv_Melody,345,5,42,110,2890278216
24,14,Improv_Melody,346,1,38,75,2890290904
24,14,Improv_Melody,347,1,38,33,2890349632
24,14,Improv_Melody,348,5,42,110,2890777820
24,14,Improv_Melody,349,1,38,89,2890796052
24,14,Improv_Melody,350,1,38,55,2890838288
24,14,Improv_Melody,351,1,38,34,2890880552
24,14,Improv_Melody,352,1,48,70,2891187676
24,14,Improv_Melody,353,2,48,80,2891281096
24,14,Improv_Melody,354,2,72,80,2891283320
24,14,Improv_Melody,355,5,42,127,2891285784
24,14,Improv_Melody,356,1,38,99,2891353828
24,14,Improv_Melody,357,1,38,52,2891401700
24,14,Improv_Melody,358,5,42,110,2891778284
24,14,Improv_Melody,359,1,38,72,2891834584
24,14,Improv_Melody,360,1,38,38,2891888964
24,14,Improv_Melody,361,5,42,110,2892278184
24,14,Improv_Melody,362,1,38,73,2892313316
24,14,Improv_Melody,363,1,38,20,2892398364
24,14,Improv_Melody,364,5,42,110,2892777788
24,14,Improv_Melody,365,1,38,74,2892790552
24,14,Improv_Melody,366,1,38,45,2892842148
24,14,Improv_Melody,367,5,42,127,2893277540
24,14,Improv_Melody,368,1,38,66,2893319256
24,14,Improv_Melody,369,5,42,110,2893778436
24,14,Improv_Melody,370,1,38,70,2893795988
24,14,Improv_Melody,371,1,38,48,2893856628
24,14,Improv_Melody,372,5,42,110,2894277892
24,14,Improv_Melody,373,1,38,74,2894281532
24,14,Improv_Melody,374,1,38,49,2894343220
24,14,Improv_Melody,375,5,42,110,2894777792
24,14,Improv_Melody,376,1,38,63,2894790632
24,14,Improv_Melody,377,1,38,51,2894845436
24,14,Improv_Melody,378,1,48,65,2895176048
24,14,Improv_Melody,379,2,43,80,2895280104
24,14,Improv_Melody,380,2,67,80,2895282260
24,14,Improv_Melody,381,5,42,127,2895284792
24,14,Improv_Melody,382,1,38,94,2895322840
24,14,Improv_Melody,383,1,38,47,2895378844
24,14,Improv_Melody,384,5,42,110,2895778260
24,14,Improv_Melody,385,1,38,84,2895858872
24,14,Improv_Melody,386,5,42,110,2896277888
24,14,Improv_Melody,387,1,38,83,2896316084
24,14,Improv_Melody,388,1,38,34,2896380016
24,14,Improv_Melody,389,5,42,110,2896777564
24,14,Improv_Melody,390,1,38,84,2896813816
24,14,Improv_Melody,391,1,38,35,2896878724
24,14,Improv_Melody,392,5,42,127,2897278588
24,14,Improv_Melody,393,1,38,79,2897332496
24,14,Improv_Melody,394,5,42,110,2897777992
24,14,Improv_Melody,395,1,38,68,2897839304
24,14,Improv_Melody,396,5,42,110,2898277840
24,14,Improv_Melody,397,1,38,65,2898288668
24,14,Improv_Melody,398,1,38,37,2898346980
24,14,Improv_Melody,399,5,42,110,2898777420
24,14,Improv_Melody,400,1,38,69,2898792756
24,14,Improv_Melody,401,1,38,28,2898862816
24,14,Improv_Melody,402,1,48,76,2899184524
24,14,Improv_Melody,403,2,45,80,2899280936
24,14,Improv_Melody,404,2,69,80,2899282780
24,14,Improv_Melody,405,5,42,127,2899285544
24,14,Improv_Melody,406,1,38,67,2899326832
24,14,Improv_Melody,407,5,42,110,2899777840
24,14,Improv_Melody,408,1,38,79,2899783572
24,14,Improv_Melody,409,1,38,39,2899839972
24,14,Improv_Melody,410,5,42,110,2900277740
24,14,Improv_Melody,411,1,38,89,2900278708
24,14,Improv_Melody,412,5,42,110,2900778636
24,14,Improv_Melody,413,1,38,83,2900797388
24,14,Improv_Melody,414,1,38,46,2900855584
24,14,Improv_Melody,415,5,42,127,2901278016
24,14,Improv_Melody,416,1,38,78,2901299312
24,14,Improv_Melody,417,1,38,28,2901361696
24,14,Improv_Melody,418,5,42,110,2901777696
24,14,Improv_Melody,419,1,38,71,2901790684
24,14,Improv_Melody,420,1,38,25,2901855760
24,14,Improv_Melody,421,5,42,110,2902277448
24,14,Improv_Melody,422,1,38,73,2902298440
24,14,Improv_Melody,423,1,38,36,2902356980
24,14,Improv_Melody,424,5,42,110,2902778468
24,14,Improv_Melody,425,1,38,73,2902786376
24,14,Improv_Melody,426,1,38,43,2902844472
24,14,Improv_Melody,427,1,48,65,2903155808
24,14,Improv_Melody,428,2,41,80,2903280708
24,14,Improv_Melody,429,2,65,80,2903282556
24,14,Improv_Melody,430,5,42,127,2903285468
24,14,Improv_Melody,431,1,38,81,2903295024
24,14,Improv_Melody,432,1,38,51,2903346536
24,14,Improv_Melody,433,5,42,110,2903777668
24,14,Improv_Melody,434,1,38,78,2903839204
24,14,Improv_Melody,435,1,38,29,2903921932
24,14,Improv_Melody,436,5,42,110,2904278316
24,14,Improv_Melody,437,1,38,71,2904292204
24,14,Improv_Melody,438,1,38,22,2904365112
24,14,Improv_Melody,439,5,42,110,2904777996
24,14,Improv_Melody,440,1,38,73,2904795920
24,14,Improv_Melody,441,1,38,31,2904876308
24,14,Improv_Melody,442,5,42,127,2905277968
24,14,Improv_Melody,443,1,38,75,2905291708
24,14,Improv_Melody,444,5,42,110,2905777596
24,14,Improv_Melody,445,1,38,73,2905796196
24,14,Improv_Melody,446,1,38,29,2905862596
24,14,Improv_Melody,447,5,42,110,2906278396
24,14,Improv_Melody,448,1,38,66,2906294904
24,14,Improv_Melody,449,1,38,44,2906358312
24,14,Improv_Melody,450,5,42,110,2906777924
24,14,Improv_Melody,451,1,38,77,2906799892
24,14,Improv_Melody,452,1,38,53,2906855820
24,14,Improv_Melody,453,1,38,32,2906911824
24,14,Improv_Melody,454,1,48,76,2907200692
24,14,Improv_Melody,455,2,48,80,2907280000
24,14,Improv_Melody,456,2,72,80,2907282376
24,14,Improv_Melody,457,5,42,127,2907284916
24,14,Improv_Melody,458,1,38,88,2907362372
24,14,Improv_Melody,459,5,42,110,2907778468
24,14,Improv_Melody,460,1,38,81,2907807016
24,14,Improv_Melody,461,1,38,55,2907845440
24,14,Improv_Melody,462,1,38,39,2907880200
24,14,Improv_Melody,0,9999,9999,9999,9999,2827275372
24,14,Improv_Melody,1,9999,9999,9999,9999,2827776120
24,14,Improv_Melody,2,9999,9999,9999,9999,2828275768
24,14,Improv_Melody,3,9999,9999,9999,9999,2828775492
24,14,Improv_Melody,4,9999,9999,9999,9999,2829275212
24,14,Improv_Melody,5,9999,9999,9999,9999,2829775980
24,14,Improv_Melody,6,9999,9999,9999,9999,2830275700
24,14,Improv_Melody,7,9999,9999,9999,9999,2830775348
24,14,Improv_Melody,8,9999,9999,9999,9999,2831275072
24,14,Improv_Melody,9,9999,9999,9999,9999,2831775852
24,14,Improv_Melody,10,9999,9999,9999,9999,2832275576
24,14,Improv_Melody,11,9999,9999,9999,9999,2832775224
24,14,Improv_Melody,12,9999,9999,9999,9999,2833275992
24,14,Improv_Melody,13,9999,9999,9999,9999,2833775712
24,14,Improv_Melody,14,9999,9999,9999,9999,2834275436
24,14,Improv_Melody,15,9999,9999,9999,9999,2834775132
24,14,Improv_Melody,16,9999,9999,9999,9999,2835275828
24,14,Improv_Melody,17,9999,9999,9999,9999,2835775560
24,14,Improv_Melody,18,9999,9999,9999,9999,2836275284
24,14,Improv_Melody,19,9999,9999,9999,9999,2836776052
24,14,Improv_Melody,20,9999,9999,9999,9999,2837275700
24,14,Improv_Melody,21,9999,9999,9999,9999,2837775424
24,14,Improv_Melody,22,9999,9999,9999,9999,2838275144
24,14,Improv_Melody,23,9999,9999,9999,9999,2838775912
24,14,Improv_Melody,24,9999,9999,9999,9999,2839275636
24,14,Improv_Melody,25,9999,9999,9999,9999,2839775292
24,14,Improv_Melody,26,9999,9999,9999,9999,2840276064
24,14,Improv_Melody,27,9999,9999,9999,9999,2840775784
24,14,Improv_Melody,28,9999,9999,9999,9999,2841275504
24,14,Improv_Melody,29,9999,9999,9999,9999,2841775156
24,14,Improv_Melody,30,9999,9999,9999,9999,2842275924
24,14,Improv_Melody,31,9999,9999,9999,9999,2842775644
24,14,Improv_Melody,32,9999,9999,9999,9999,2843275364
24,14,Improv_Melody,33,9999,9999,9999,9999,2843776104
24,14,Improv_Melody,34,9999,9999,9999,9999,2844275796
24,14,Improv_Melody,35,9999,9999,9999,9999,2844775496
24,14,Improv_Melody,36,9999,9999,9999,9999,2845275248
24,14,Improv_Melody,37,9999,9999,9999,9999,2845775992
24,14,Improv_Melody,38,9999,9999,9999,9999,2846275692
24,14,Improv_Melody,39,9999,9999,9999,9999,2846775368
24,14,Improv_Melody,40,9999,9999,9999,9999,2847275128
24,14,Improv_Melody,41,9999,9999,9999,9999,2847775792
24,14,Improv_Melody,42,9999,9999,9999,9999,2848275544
24,14,Improv_Melody,43,9999,9999,9999,9999,2848775244
24,14,Improv_Melody,44,9999,9999,9999,9999,2849275972
24,14,Improv_Melody,45,9999,9999,9999,9999,2849775716
24,14,Improv_Melody,46,9999,9999,9999,9999,2850275396
24,14,Improv_Melody,47,9999,9999,9999,9999,2850775144
24,14,Improv_Melody,48,9999,9999,9999,9999,2851275856
24,14,Improv_Melody,49,9999,9999,9999,9999,2851775544
24,14,Improv_Melody,50,9999,9999,9999,9999,2852275296
24,14,Improv_Melody,51,9999,9999,9999,9999,2852776024
24,14,Improv_Melody,52,9999,9999,9999,9999,2853275700
24,14,Improv_Melody,53,9999,9999,9999,9999,2853775452
24,14,Improv_Melody,54,9999,9999,9999,9999,2854275132
24,14,Improv_Melody,55,9999,9999,9999,9999,2854775856
24,14,Improv_Melody,56,9999,9999,9999,9999,2855275580
24,14,Improv_Melody,57,9999,9999,9999,9999,2855775352
24,14,Improv_Melody,58,9999,9999,9999,9999,2856276056
24,14,Improv_Melody,59,9999,9999,9999,9999,2856775748
24,14,Improv_Melody,60,9999,9999,9999,9999,2857275504
24,14,Improv_Melody,61,9999,9999,9999,9999,2857775152
24,14,Improv_Melody,62,9999,9999,9999,9999,2858275952
24,14,Improv_Melody,63,9999,9999,9999,9999,2858775632
24,14,Improv_Melody,64,9999,9999,9999,9999,2859275316
24,14,Improv_Melody,65,9999,9999,9999,9999,2859776068
24,14,Improv_Melody,66,9999,9999,9999,9999,2860275828
24,14,Improv_Melody,67,9999,9999,9999,9999,2860775540
24,14,Improv_Melody,68,9999,9999,9999,9999,2861275240
24,14,Improv_Melody,69,9999,9999,9999,9999,2861775988
24,14,Improv_Melody,70,9999,9999,9999,9999,2862275668
24,14,Improv_Melody,71,9999,9999,9999,9999,2862775348
24,14,Improv_Melody,72,9999,9999,9999,9999,2863275080
24,14,Improv_Melody,73,9999,9999,9999,9999,2863775824
24,14,Improv_Melody,74,9999,9999,9999,9999,2864275576
24,14,Improv_Melody,75,9999,9999,9999,9999,2864775248
24,14,Improv_Melody,76,9999,9999,9999,9999,2865275980
24,14,Improv_Melody,77,9999,9999,9999,9999,2865775680
24,14,Improv_Melody,78,9999,9999,9999,9999,2866275408
24,14,Improv_Melody,79,9999,9999,9999,9999,2866775136
24,14,Improv_Melody,80,9999,9999,9999,9999,2867275832
24,14,Improv_Melody,81,9999,9999,9999,9999,2867775580
24,14,Improv_Melody,82,9999,9999,9999,9999,2868275260
24,14,Improv_Melody,83,9999,9999,9999,9999,2868776008
24,14,Improv_Melody,84,9999,9999,9999,9999,2869275760
24,14,Improv_Melody,85,9999,9999,9999,9999,2869775440
24,14,Improv_Melody,86,9999,9999,9999,9999,2870275192
24,14,Improv_Melody,87,9999,9999,9999,9999,2870775916
24,14,Improv_Melody,88,9999,9999,9999,9999,2871275640
24,14,Improv_Melody,89,9999,9999,9999,9999,2871775292
24,14,Improv_Melody,90,9999,9999,9999,9999,2872276084
24,14,Improv_Melody,91,9999,9999,9999,9999,2872775768
24,14,Improv_Melody,92,9999,9999,9999,9999,2873275448
24,14,Improv_Melody,93,9999,9999,9999,9999,2873775200
24,14,Improv_Melody,94,9999,9999,9999,9999,2874275924
24,14,Improv_Melody,95,9999,9999,9999,9999,2874775604
24,14,Improv_Melody,96,9999,9999,9999,9999,2875275336
24,14,Improv_Melody,97,9999,9999,9999,9999,2875776076
24,14,Improv_Melody,98,9999,9999,9999,9999,2876275828
24,14,Improv_Melody,99,9999,9999,9999,9999,2876775508
24,14,Improv_Melody,100,9999,9999,9999,9999,2877275184
24,14,Improv_Melody,101,9999,9999,9999,9999,2877775960
24,14,Improv_Melody,102,9999,9999,9999,9999,2878275640
24,14,Improv_Melody,103,9999,9999,9999,9999,2878775392
24,14,Improv_Melody,104,9999,9999,9999,9999,2879275124
24,14,Improv_Melody,105,9999,9999,9999,9999,2879775864
24,14,Improv_Melody,106,9999,9999,9999,9999,2880275540
24,14,Improv_Melody,107,9999,9999,9999,9999,2880775220
24,14,Improv_Melody,108,9999,9999,9999,9999,2881276016
24,14,Improv_Melody,109,9999,9999,9999,9999,2881775696
24,14,Improv_Melody,110,9999,9999,9999,9999,2882275396
24,14,Improv_Melody,111,9999,9999,9999,9999,2882775088
24,14,Improv_Melody,112,9999,9999,9999,9999,2883275848
24,14,Improv_Melody,113,9999,9999,9999,9999,2883775596
24,14,Improv_Melody,114,9999,9999,9999,9999,2884275276
24,14,Improv_Melody,115,9999,9999,9999,9999,2884776000
24,14,Improv_Melody,116,9999,9999,9999,9999,2885275752
24,14,Improv_Melody,117,9999,9999,9999,9999,2885775432
24,14,Improv_Melody,118,9999,9999,9999,9999,2886275184
24,14,Improv_Melody,119,9999,9999,9999,9999,2886775908
24,14,Improv_Melody,120,9999,9999,9999,9999,2887275636
24,14,Improv_Melody,121,9999,9999,9999,9999,2887775308
24,14,Improv_Melody,122,9999,9999,9999,9999,2888276088
24,14,Improv_Melody,123,9999,9999,9999,9999,2888775764
24,14,Improv_Melody,124,9999,9999,9999,9999,2889275440
24,14,Improv_Melody,125,9999,9999,9999,9999,2889775196
24,14,Improv_Melody,126,9999,9999,9999,9999,2890275920
24,14,Improv_Melody,127,9999,9999,9999,9999,2890775600
24,14,Improv_Melody,128,9999,9999,9999,9999,2891275328
24,14,Improv_Melody,129,9999,9999,9999,9999,2891776064
24,14,Improv_Melody,130,9999,9999,9999,9999,2892275816
24,14,Improv_Melody,131,9999,9999,9999,9999,2892775496
24,14,Improv_Melody,132,9999,9999,9999,9999,2893275244
24,14,Improv_Melody,133,9999,9999,9999,9999,2893775992
24,14,Improv_Melody,134,9999,9999,9999,9999,2894275672
24,14,Improv_Melody,135,9999,9999,9999,9999,2894775348
24,14,Improv_Melody,136,9999,9999,9999,9999,2895275080
24,14,Improv_Melody,137,9999,9999,9999,9999,2895775816
24,14,Improv_Melody,138,9999,9999,9999,9999,2896275520
24,14,Improv_Melody,139,9999,9999,9999,9999,2896775272
24,14,Improv_Melody,140,9999,9999,9999,9999,2897275996
24,14,Improv_Melody,141,9999,9999,9999,9999,2897775700
24,14,Improv_Melody,142,9999,9999,9999,9999,2898275400
24,14,Improv_Melody,143,9999,9999,9999,9999,2898775128
24,14,Improv_Melody,144,9999,9999,9999,9999,2899275832
24,14,Improv_Melody,145,9999,9999,9999,9999,2899775544
24,14,Improv_Melody,146,9999,9999,9999,9999,2900275300
24,14,Improv_Melody,147,9999,9999,9999,9999,2900776044
24,14,Improv_Melody,148,9999,9999,9999,9999,2901275724
24,14,Improv_Melody,149,9999,9999,9999,9999,2901775476
24,14,Improv_Melody,150,9999,9999,9999,9999,2902275152
24,14,Improv_Melody,151,9999,9999,9999,9999,2902775876
24,14,Improv_Melody,152,9999,9999,9999,9999,2903275608
24,14,Improv_Melody,153,9999,9999,9999,9999,2903775300
24,14,Improv_Melody,154,9999,9999,9999,9999,2904276024
24,14,Improv_Melody,155,9999,9999,9999,9999,2904775776
24,14,Improv_Melody,156,9999,9999,9999,9999,2905275452
24,14,Improv_Melody,157,9999,9999,9999,9999,2905775152
24,14,Improv_Melody,158,9999,9999,9999,9999,2906275952
24,14,Improv_Melody,159,9999,9999,9999,9999,2906775632
24,14,Improv_Melody,160,9999,9999,9999,9999,2907275356
24,14,Improv_Melody,161,9999,9999,9999,9999,2907776100
