pid,taskRunCount,taskID,taskName,i,channel,pitch,velocity,microseconds
109,1,1,Ticks_Pract_5,0,5,42,127,105044240
109,1,1,Ticks_Pract_5,1,5,42,127,105544104
109,1,1,Ticks_Pract_5,2,5,42,127,106043968
109,1,1,Ticks_Pract_5,3,5,42,127,106543388
109,1,1,Ticks_Pract_5,4,1,38,29,107016512
109,1,1,Ticks_Pract_5,5,5,42,127,107044144
109,1,1,Ticks_Pract_5,6,1,38,31,107476016
109,1,1,Ticks_Pract_5,7,5,42,127,107544136
109,1,1,Ticks_Pract_5,8,1,38,35,108020816
109,1,1,Ticks_Pract_5,9,5,42,127,108043832
109,1,1,Ticks_Pract_5,10,5,42,127,108544332
109,1,1,Ticks_Pract_5,11,1,38,43,108547084
109,1,1,Ticks_Pract_5,12,5,42,127,109044024
109,1,1,Ticks_Pract_5,13,1,38,36,109084192
109,1,1,Ticks_Pract_5,14,5,42,127,109544016
109,1,1,Ticks_Pract_5,15,1,38,40,109592264
109,1,1,Ticks_Pract_5,16,5,42,127,110043784
109,1,1,Ticks_Pract_5,17,1,38,35,110063812
109,1,1,Ticks_Pract_5,18,5,42,127,110544304
109,1,1,Ticks_Pract_5,19,1,38,38,110545420
109,1,1,Ticks_Pract_5,20,5,42,127,111043924
109,1,1,Ticks_Pract_5,21,1,38,36,111070080
109,1,1,Ticks_Pract_5,22,5,42,127,111543840
109,1,1,Ticks_Pract_5,23,1,38,42,111551148
109,1,1,Ticks_Pract_5,24,5,42,127,112044508
109,1,1,Ticks_Pract_5,25,1,38,39,112058172
109,1,1,Ticks_Pract_5,26,5,42,127,112543980
109,1,1,Ticks_Pract_5,27,1,38,40,112548072
109,1,1,Ticks_Pract_5,28,5,42,127,113043820
109,1,1,Ticks_Pract_5,29,1,38,41,113073344
109,1,1,Ticks_Pract_5,30,5,42,127,113543664
109,1,1,Ticks_Pract_5,31,1,38,40,113574752
109,1,1,Ticks_Pract_5,32,5,42,127,114044256
109,1,1,Ticks_Pract_5,33,1,38,37,114054852
109,1,1,Ticks_Pract_5,34,5,42,127,114543948
109,1,1,Ticks_Pract_5,35,1,38,41,114560980
109,1,1,Ticks_Pract_5,36,5,42,127,115043792
109,1,1,Ticks_Pract_5,37,1,38,39,115076684
109,1,1,Ticks_Pract_5,38,5,42,127,115544312
109,1,1,Ticks_Pract_5,39,1,38,39,115553788
109,1,1,Ticks_Pract_5,40,1,38,38,116042800
109,1,1,Ticks_Pract_5,41,5,42,127,116045192
109,1,1,Ticks_Pract_5,42,5,42,127,116543772
109,1,1,Ticks_Pract_5,43,1,38,39,116561776
109,1,1,Ticks_Pract_5,44,5,42,127,117043616
109,1,1,Ticks_Pract_5,45,1,38,38,117061320
109,1,1,Ticks_Pract_5,46,5,42,127,117544284
109,1,1,Ticks_Pract_5,47,1,38,42,117559220
109,1,1,Ticks_Pract_5,48,5,42,127,118043904
109,1,1,Ticks_Pract_5,49,1,38,38,118045388
109,1,1,Ticks_Pract_5,50,5,42,127,118543744
109,1,1,Ticks_Pract_5,51,1,38,39,118588376
109,1,1,Ticks_Pract_5,52,5,42,127,119043636
109,1,1,Ticks_Pract_5,53,1,38,42,119053712
109,1,1,Ticks_Pract_5,54,1,38,43,119534068
109,1,1,Ticks_Pract_5,55,5,42,127,119544200
109,1,1,Ticks_Pract_5,56,1,38,39,120041780
109,1,1,Ticks_Pract_5,57,5,42,127,120044192
109,1,1,Ticks_Pract_5,58,1,38,32,120531660
109,1,1,Ticks_Pract_5,59,5,42,127,120543588
109,1,1,Ticks_Pract_5,60,1,38,35,121004060
109,1,1,Ticks_Pract_5,61,5,42,127,121044404
109,1,1,Ticks_Pract_5,62,1,38,34,121508760
109,1,1,Ticks_Pract_5,63,5,42,127,121543952
109,1,1,Ticks_Pract_5,64,1,38,31,121991852
109,1,1,Ticks_Pract_5,65,5,42,127,122043720
109,1,1,Ticks_Pract_5,66,1,38,39,122502840
109,1,1,Ticks_Pract_5,67,5,42,127,122543564
109,1,1,Ticks_Pract_5,68,1,38,35,123026996
109,1,1,Ticks_Pract_5,69,5,42,127,123044080
109,1,1,Ticks_Pract_5,70,1,38,30,123530728
109,1,1,Ticks_Pract_5,71,5,42,127,123543776
109,1,1,Ticks_Pract_5,72,1,38,29,124024732
109,1,1,Ticks_Pract_5,73,5,42,127,124043620
109,1,1,Ticks_Pract_5,74,1,38,33,124524352
109,1,1,Ticks_Pract_5,75,5,42,127,124544284
109,1,1,Ticks_Pract_5,0,9999,9999,9999,105042028
109,1,1,Ticks_Pract_5,1,9999,9999,9999,105541744
109,1,1,Ticks_Pract_5,2,9999,9999,9999,106041460
109,1,1,Ticks_Pract_5,3,9999,9999,9999,106541176
109,1,1,Ticks_Pract_5,4,9999,9999,9999,107041860
109,1,1,Ticks_Pract_5,5,9999,9999,9999,107541552
109,1,1,Ticks_Pract_5,6,9999,9999,9999,108041324
109,1,1,Ticks_Pract_5,7,9999,9999,9999,108542044
109,1,1,Ticks_Pract_5,8,9999,9999,9999,109041740
109,1,1,Ticks_Pract_5,9,9999,9999,9999,109541432
109,1,1,Ticks_Pract_5,10,9999,9999,9999,110041204
109,1,1,Ticks_Pract_5,11,9999,9999,9999,110541944
109,1,1,Ticks_Pract_5,12,9999,9999,9999,111041636
109,1,1,Ticks_Pract_5,13,9999,9999,9999,111541332
109,1,1,Ticks_Pract_5,14,9999,9999,9999,112042072
109,1,1,Ticks_Pract_5,15,9999,9999,9999,112541768
109,1,1,Ticks_Pract_5,16,9999,9999,9999,113041460
109,1,1,Ticks_Pract_5,17,9999,9999,9999,113541228
109,1,1,Ticks_Pract_5,18,9999,9999,9999,114041968
109,1,1,Ticks_Pract_5,19,9999,9999,9999,114541664
109,1,1,Ticks_Pract_5,20,9999,9999,9999,115041356
109,1,1,Ticks_Pract_5,21,9999,9999,9999,115542100
109,1,1,Ticks_Pract_5,22,9999,9999,9999,116041792
109,1,1,Ticks_Pract_5,23,9999,9999,9999,116541560
109,1,1,Ticks_Pract_5,24,9999,9999,9999,117041256
109,1,1,Ticks_Pract_5,25,9999,9999,9999,117541996
109,1,1,Ticks_Pract_5,26,9999,9999,9999,118041692
109,1,1,Ticks_Pract_5,27,9999,9999,9999,118541384
109,1,1,Ticks_Pract_5,28,9999,9999,9999,119041128
109,1,1,Ticks_Pract_5,29,9999,9999,9999,119541836
109,1,1,Ticks_Pract_5,30,9999,9999,9999,120041572
109,1,1,Ticks_Pract_5,31,9999,9999,9999,120541304
109,1,1,Ticks_Pract_5,32,9999,9999,9999,121041972
109,1,1,Ticks_Pract_5,33,9999,9999,9999,121541740
109,1,1,Ticks_Pract_5,34,9999,9999,9999,122041436
109,1,1,Ticks_Pract_5,35,9999,9999,9999,122541128
109,1,1,Ticks_Pract_5,36,9999,9999,9999,123041868
109,1,1,Ticks_Pract_5,37,9999,9999,9999,123541564
109,1,1,Ticks_Pract_5,38,9999,9999,9999,124041332
109,1,1,Ticks_Pract_5,39,9999,9999,9999,124542000
109,2,0,Ticks_Pract_8,0,5,42,127,156477832
109,2,0,Ticks_Pract_8,1,5,42,127,157277440
109,2,0,Ticks_Pract_8,2,5,42,127,158078244
109,2,0,Ticks_Pract_8,3,1,38,23,158121300
109,2,0,Ticks_Pract_8,4,5,42,127,158878124
109,2,0,Ticks_Pract_8,5,1,38,34,158888348
109,2,0,Ticks_Pract_8,6,5,42,127,159678004
109,2,0,Ticks_Pract_8,7,1,38,27,159684788
109,2,0,Ticks_Pract_8,8,5,42,127,160477592
109,2,0,Ticks_Pract_8,9,1,38,28,160514740
109,2,0,Ticks_Pract_8,10,5,42,127,161278296
109,2,0,Ticks_Pract_8,11,1,38,28,161284656
109,2,0,Ticks_Pract_8,12,1,38,29,162066044
109,2,0,Ticks_Pract_8,13,5,42,127,162078196
109,2,0,Ticks_Pract_8,14,1,38,13,162859348
109,2,0,Ticks_Pract_8,15,5,42,127,162878080
109,2,0,Ticks_Pract_8,16,5,42,127,163677448
109,2,0,Ticks_Pract_8,17,1,48,32,164381048
109,2,0,Ticks_Pract_8,18,5,42,127,164478228
109,2,0,Ticks_Pract_8,19,1,48,34,165183024
109,2,0,Ticks_Pract_8,20,5,42,127,165278036
109,2,0,Ticks_Pract_8,21,1,48,27,165987092
109,2,0,Ticks_Pract_8,22,5,42,127,166078232
109,2,0,Ticks_Pract_8,23,1,48,30,166779276
109,2,0,Ticks_Pract_8,24,5,42,127,166878772
109,2,0,Ticks_Pract_8,25,1,48,26,167595312
109,2,0,Ticks_Pract_8,26,5,42,127,167678300
109,2,0,Ticks_Pract_8,27,1,48,32,168376948
109,2,0,Ticks_Pract_8,28,5,42,127,168477968
109,2,0,Ticks_Pract_8,29,1,48,24,169229884
109,2,0,Ticks_Pract_8,30,5,42,127,169278012
109,2,0,Ticks_Pract_8,31,1,48,29,170016376
109,2,0,Ticks_Pract_8,32,5,42,127,170077820
109,2,0,Ticks_Pract_8,33,1,48,28,170796668
109,2,0,Ticks_Pract_8,34,5,42,127,170878380
109,2,0,Ticks_Pract_8,35,1,48,30,171590192
109,2,0,Ticks_Pract_8,36,5,42,127,171678188
109,2,0,Ticks_Pract_8,37,1,48,30,172442656
109,2,0,Ticks_Pract_8,38,5,42,127,172477844
109,2,0,Ticks_Pract_8,39,1,48,28,173199460
109,2,0,Ticks_Pract_8,40,5,42,127,173277804
109,2,0,Ticks_Pract_8,41,1,48,26,174030304
109,2,0,Ticks_Pract_8,42,5,42,127,174078436
109,2,0,Ticks_Pract_8,43,1,48,29,174795784
109,2,0,Ticks_Pract_8,44,5,42,127,174878116
109,2,0,Ticks_Pract_8,45,1,48,29,175609132
109,2,0,Ticks_Pract_8,46,5,42,127,175677928
109,2,0,Ticks_Pract_8,47,1,48,29,176443740
109,2,0,Ticks_Pract_8,48,5,42,127,176477508
109,2,0,Ticks_Pract_8,49,1,48,26,177216776
109,2,0,Ticks_Pract_8,50,5,42,127,177278220
109,2,0,Ticks_Pract_8,51,1,48,31,178020320
109,2,0,Ticks_Pract_8,52,5,42,127,178078028
109,2,0,Ticks_Pract_8,53,1,48,21,178869352
109,2,0,Ticks_Pract_8,54,5,42,127,178877760
109,2,0,Ticks_Pract_8,55,5,42,127,179677648
109,2,0,Ticks_Pract_8,56,1,48,23,179697148
109,2,0,Ticks_Pract_8,0,9999,9999,9999,156475464
109,2,0,Ticks_Pract_8,1,9999,9999,9999,157275220
109,2,0,Ticks_Pract_8,2,9999,9999,9999,158075952
109,2,0,Ticks_Pract_8,3,9999,9999,9999,158875756
109,2,0,Ticks_Pract_8,4,9999,9999,9999,159675492
109,2,0,Ticks_Pract_8,5,9999,9999,9999,160475224
109,2,0,Ticks_Pract_8,6,9999,9999,9999,161276004
109,2,0,Ticks_Pract_8,7,9999,9999,9999,162075756
109,2,0,Ticks_Pract_8,8,9999,9999,9999,162875492
109,2,0,Ticks_Pract_8,9,9999,9999,9999,163675232
109,2,0,Ticks_Pract_8,10,9999,9999,9999,164476008
109,2,0,Ticks_Pract_8,11,9999,9999,9999,165275744
109,2,0,Ticks_Pract_8,12,9999,9999,9999,166075492
109,2,0,Ticks_Pract_8,13,9999,9999,9999,166875228
109,2,0,Ticks_Pract_8,14,9999,9999,9999,167676008
109,2,0,Ticks_Pract_8,15,9999,9999,9999,168475748
109,2,0,Ticks_Pract_8,16,9999,9999,9999,169275500
109,2,0,Ticks_Pract_8,17,9999,9999,9999,170075232
109,2,0,Ticks_Pract_8,18,9999,9999,9999,170876012
109,2,0,Ticks_Pract_8,19,9999,9999,9999,171675748
109,2,0,Ticks_Pract_8,20,9999,9999,9999,172475480
109,2,0,Ticks_Pract_8,21,9999,9999,9999,173275212
109,2,0,Ticks_Pract_8,22,9999,9999,9999,174075996
109,2,0,Ticks_Pract_8,23,9999,9999,9999,174875752
109,2,0,Ticks_Pract_8,24,9999,9999,9999,175675484
109,2,0,Ticks_Pract_8,25,9999,9999,9999,176475220
109,2,0,Ticks_Pract_8,26,9999,9999,9999,177276000
109,2,0,Ticks_Pract_8,27,9999,9999,9999,178075736
109,2,0,Ticks_Pract_8,28,9999,9999,9999,178875468
109,2,0,Ticks_Pract_8,29,9999,9999,9999,179675208
109,3,4,T1_SMS_5,0,5,42,127,291796416
109,3,4,T1_SMS_5,1,5,42,127,292295908
109,3,4,T1_SMS_5,2,5,42,127,292795848
109,3,4,T1_SMS_5,3,5,42,127,293295492
109,3,4,T1_SMS_5,4,1,48,39,293790156
109,3,4,T1_SMS_5,5,5,42,127,293796100
109,3,4,T1_SMS_5,6,1,48,35,294282452
109,3,4,T1_SMS_5,7,5,42,127,294295868
109,3,4,T1_SMS_5,8,1,48,33,294775036
109,3,4,T1_SMS_5,9,5,42,127,294795564
109,3,4,T1_SMS_5,10,1,48,32,295275928
109,3,4,T1_SMS_5,11,5,42,127,295296532
109,3,4,T1_SMS_5,12,5,42,127,295795932
109,3,4,T1_SMS_5,13,1,48,36,295802788
109,3,4,T1_SMS_5,14,5,42,127,296295776
109,3,4,T1_SMS_5,15,1,48,28,296337720
109,3,4,T1_SMS_5,16,1,48,34,296743816
109,3,4,T1_SMS_5,17,5,42,127,296795612
109,3,4,T1_SMS_5,18,5,42,127,297296140
109,3,4,T1_SMS_5,19,1,48,33,297297108
109,3,4,T1_SMS_5,20,1,48,29,297776944
109,3,4,T1_SMS_5,21,5,42,127,297795976
109,3,4,T1_SMS_5,22,1,48,28,298268792
109,3,4,T1_SMS_5,23,5,42,127,298295744
109,3,4,T1_SMS_5,24,1,48,29,298786208
109,3,4,T1_SMS_5,25,5,42,127,298796564
109,3,4,T1_SMS_5,26,1,48,33,299268252
109,3,4,T1_SMS_5,27,5,42,127,299296032
109,3,4,T1_SMS_5,28,5,42,127,299795808
109,3,4,T1_SMS_5,29,1,48,33,299797372
109,3,4,T1_SMS_5,30,5,42,127,300295504
109,3,4,T1_SMS_5,31,1,48,34,300307152
109,3,4,T1_SMS_5,32,5,42,127,300796544
109,3,4,T1_SMS_5,33,1,48,30,300805352
109,3,4,T1_SMS_5,34,1,48,36,301268800
109,3,4,T1_SMS_5,35,5,42,127,301295912
109,3,4,T1_SMS_5,36,1,48,28,301793332
109,3,4,T1_SMS_5,37,5,42,127,301795828
109,3,4,T1_SMS_5,38,1,48,28,302291080
109,3,4,T1_SMS_5,39,5,42,127,302296796
109,3,4,T1_SMS_5,40,1,48,29,302791668
109,3,4,T1_SMS_5,41,5,42,127,302796040
109,3,4,T1_SMS_5,42,1,48,35,303281720
109,3,4,T1_SMS_5,43,5,42,127,303295812
109,3,4,T1_SMS_5,44,5,42,127,303795516
109,3,4,T1_SMS_5,45,1,48,31,303804316
109,3,4,T1_SMS_5,46,5,42,127,304296256
109,3,4,T1_SMS_5,47,1,48,34,304309776
109,3,4,T1_SMS_5,48,5,42,127,304796024
109,3,4,T1_SMS_5,49,1,48,32,304798776
109,3,4,T1_SMS_5,50,1,48,35,305293060
109,3,4,T1_SMS_5,51,5,42,127,305295716
109,3,4,T1_SMS_5,52,5,42,127,305795564
109,3,4,T1_SMS_5,53,1,48,35,305810804
109,3,4,T1_SMS_5,54,5,42,127,306296084
109,3,4,T1_SMS_5,55,1,48,32,306299056
109,3,4,T1_SMS_5,56,5,42,127,306795928
109,3,4,T1_SMS_5,57,1,48,24,306823508
109,3,4,T1_SMS_5,58,5,42,127,307295696
109,3,4,T1_SMS_5,59,1,48,31,307333820
109,3,4,T1_SMS_5,60,5,42,127,307796364
109,3,4,T1_SMS_5,61,1,48,34,307804868
109,3,4,T1_SMS_5,62,1,48,37,308265724
109,3,4,T1_SMS_5,63,5,42,127,308296128
109,3,4,T1_SMS_5,64,1,48,35,308791304
109,3,4,T1_SMS_5,65,5,42,127,308795672
109,3,4,T1_SMS_5,66,5,42,127,309295452
109,3,4,T1_SMS_5,67,1,48,35,309303280
109,3,4,T1_SMS_5,68,1,48,34,309794988
109,3,4,T1_SMS_5,69,5,42,127,309796484
109,3,4,T1_SMS_5,70,1,48,36,310293692
109,3,4,T1_SMS_5,71,5,42,127,310295808
109,3,4,T1_SMS_5,72,1,48,34,310776592
109,3,4,T1_SMS_5,73,5,42,127,310795724
109,3,4,T1_SMS_5,74,5,42,127,311296328
109,3,4,T1_SMS_5,75,1,48,30,311301172
109,3,4,T1_SMS_5,76,1,48,34,311783468
109,3,4,T1_SMS_5,77,5,42,127,311796288
109,3,4,T1_SMS_5,78,1,48,32,312269024
109,3,4,T1_SMS_5,79,5,42,127,312295756
109,3,4,T1_SMS_5,80,1,48,32,312781356
109,3,4,T1_SMS_5,81,5,42,127,312795380
109,3,4,T1_SMS_5,82,1,48,35,313284340
109,3,4,T1_SMS_5,83,5,42,127,313296344
109,3,4,T1_SMS_5,84,1,48,37,313749332
109,3,4,T1_SMS_5,85,5,42,127,313795816
109,3,4,T1_SMS_5,86,1,48,22,314275504
109,3,4,T1_SMS_5,87,5,42,127,314295584
109,3,4,T1_SMS_5,88,1,48,35,314792776
109,3,4,T1_SMS_5,89,5,42,127,314796480
109,3,4,T1_SMS_5,90,5,42,127,315296176
109,3,4,T1_SMS_5,91,1,48,31,315306628
109,3,4,T1_SMS_5,92,5,42,127,315795800
109,3,4,T1_SMS_5,93,1,48,32,315796768
109,3,4,T1_SMS_5,94,1,48,30,316271368
109,3,4,T1_SMS_5,95,5,42,127,316295484
109,3,4,T1_SMS_5,96,5,42,127,316796236
109,3,4,T1_SMS_5,97,1,48,34,316813116
109,3,4,T1_SMS_5,98,5,42,127,317295856
109,3,4,T1_SMS_5,99,1,48,27,317321788
109,3,4,T1_SMS_5,100,1,48,34,317795100
109,3,4,T1_SMS_5,101,5,42,127,317796596
109,3,4,T1_SMS_5,102,5,42,127,318296372
109,3,4,T1_SMS_5,103,1,48,30,318304276
109,3,4,T1_SMS_5,104,5,42,127,318796360
109,3,4,T1_SMS_5,105,1,48,30,318798960
109,3,4,T1_SMS_5,106,1,48,32,319280536
109,3,4,T1_SMS_5,107,5,42,127,319295752
109,3,4,T1_SMS_5,108,1,48,30,319777684
109,3,4,T1_SMS_5,109,5,42,127,319795596
109,3,4,T1_SMS_5,110,1,48,32,320266312
109,3,4,T1_SMS_5,111,5,42,127,320296264
109,3,4,T1_SMS_5,112,1,48,33,320771616
109,3,4,T1_SMS_5,113,5,42,127,320796032
109,3,4,T1_SMS_5,114,1,48,28,321261188
109,3,4,T1_SMS_5,115,5,42,127,321295652
109,3,4,T1_SMS_5,116,1,48,26,321782200
109,3,4,T1_SMS_5,117,5,42,127,321795348
109,3,4,T1_SMS_5,118,5,42,127,322296072
109,3,4,T1_SMS_5,119,1,48,28,322297044
109,3,4,T1_SMS_5,120,1,48,32,322785628
109,3,4,T1_SMS_5,121,5,42,127,322795760
109,3,4,T1_SMS_5,122,1,48,37,323267000
109,3,4,T1_SMS_5,123,5,42,127,323295456
109,3,4,T1_SMS_5,124,1,48,38,323790404
109,3,4,T1_SMS_5,125,5,42,127,323796196
109,3,4,T1_SMS_5,126,5,42,127,324296048
109,3,4,T1_SMS_5,127,1,48,31,324323556
109,3,4,T1_SMS_5,128,1,48,38,324788148
109,3,4,T1_SMS_5,129,5,42,127,324795664
109,3,4,T1_SMS_5,130,5,42,127,325295364
109,3,4,T1_SMS_5,131,1,48,40,325297380
109,3,4,T1_SMS_5,132,5,42,127,325796328
109,3,4,T1_SMS_5,133,1,48,35,325801544
109,3,4,T1_SMS_5,134,5,42,127,326296100
109,3,4,T1_SMS_5,135,1,48,35,326305424
109,3,4,T1_SMS_5,136,5,42,127,326795568
109,3,4,T1_SMS_5,137,1,48,35,326807140
109,3,4,T1_SMS_5,138,5,42,127,327296240
109,3,4,T1_SMS_5,139,1,48,35,327322168
109,3,4,T1_SMS_5,140,5,42,127,327796156
109,3,4,T1_SMS_5,141,1,48,35,327837952
109,3,4,T1_SMS_5,142,5,42,127,328295776
109,3,4,T1_SMS_5,143,1,48,37,328313332
109,3,4,T1_SMS_5,144,5,42,127,328795472
109,3,4,T1_SMS_5,145,1,48,34,328829704
109,3,4,T1_SMS_5,146,5,42,127,329296288
109,3,4,T1_SMS_5,147,1,48,22,329339648
109,3,4,T1_SMS_5,148,5,42,127,329796204
109,3,4,T1_SMS_5,149,1,48,16,330240760
109,3,4,T1_SMS_5,150,5,42,127,330295544
109,3,4,T1_SMS_5,151,1,48,38,330795768
109,3,4,T1_SMS_5,152,5,42,127,330797336
109,3,4,T1_SMS_5,153,1,48,35,331292284
109,3,4,T1_SMS_5,154,5,42,127,331296280
109,3,4,T1_SMS_5,155,1,48,36,331777544
109,3,4,T1_SMS_5,156,5,42,127,331795976
109,3,4,T1_SMS_5,157,5,42,127,332295528
109,3,4,T1_SMS_5,158,1,48,26,332322956
109,3,4,T1_SMS_5,159,1,48,37,332790072
109,3,4,T1_SMS_5,160,5,42,127,332796412
109,3,4,T1_SMS_5,161,1,48,35,333286320
109,3,4,T1_SMS_5,162,5,42,127,333296156
109,3,4,T1_SMS_5,163,5,42,127,333795632
109,3,4,T1_SMS_5,164,1,48,31,333810496
109,3,4,T1_SMS_5,165,1,48,35,334287136
109,3,4,T1_SMS_5,166,5,42,127,334296296
109,3,4,T1_SMS_5,167,5,42,127,334796068
109,3,4,T1_SMS_5,168,1,48,32,334809140
109,3,4,T1_SMS_5,169,5,42,127,335296060
109,3,4,T1_SMS_5,170,1,48,31,335303516
109,3,4,T1_SMS_5,171,5,42,127,335795532
109,3,4,T1_SMS_5,172,1,48,34,335811968
109,3,4,T1_SMS_5,173,5,42,127,336296348
109,3,4,T1_SMS_5,174,1,48,30,336331932
109,3,4,T1_SMS_5,175,5,42,127,336796116
109,3,4,T1_SMS_5,176,1,48,35,336799240
109,3,4,T1_SMS_5,177,5,42,127,337295664
109,3,4,T1_SMS_5,178,1,48,36,337300728
109,3,4,T1_SMS_5,179,5,42,127,337795432
109,3,4,T1_SMS_5,180,1,48,30,337858988
109,3,4,T1_SMS_5,181,5,42,127,338296024
109,3,4,T1_SMS_5,182,1,48,36,338296992
109,3,4,T1_SMS_5,183,5,42,127,338796092
109,3,4,T1_SMS_5,184,1,48,32,338816420
109,3,4,T1_SMS_5,185,5,42,127,339295564
109,3,4,T1_SMS_5,186,1,48,34,339309904
109,3,4,T1_SMS_5,187,5,42,127,339796304
109,3,4,T1_SMS_5,188,1,48,35,339806980
109,3,4,T1_SMS_5,189,5,42,127,340296000
109,3,4,T1_SMS_5,190,1,48,31,340326500
109,3,4,T1_SMS_5,191,5,42,127,340795992
109,3,4,T1_SMS_5,192,1,48,35,340803680
109,3,4,T1_SMS_5,193,5,42,127,341295392
109,3,4,T1_SMS_5,194,1,48,32,341305916
109,3,4,T1_SMS_5,195,1,48,34,341789736
109,3,4,T1_SMS_5,196,5,42,127,341796124
109,3,4,T1_SMS_5,197,5,42,127,342296052
109,3,4,T1_SMS_5,198,1,48,31,342307624
109,3,4,T1_SMS_5,199,1,48,37,342793928
109,3,4,T1_SMS_5,200,5,42,127,342795740
109,3,4,T1_SMS_5,201,5,42,127,343296344
109,3,4,T1_SMS_5,202,1,48,31,343334388
109,3,4,T1_SMS_5,203,5,42,127,343796012
109,3,4,T1_SMS_5,204,1,48,31,343830344
109,3,4,T1_SMS_5,205,5,42,127,344295852
109,3,4,T1_SMS_5,206,1,48,31,344306832
109,3,4,T1_SMS_5,207,5,42,127,344795548
109,3,4,T1_SMS_5,208,1,48,26,344819388
109,3,4,T1_SMS_5,209,5,42,127,345296216
109,3,4,T1_SMS_5,210,1,48,29,345329712
109,3,4,T1_SMS_5,211,5,42,127,345795912
109,3,4,T1_SMS_5,212,1,48,27,345820652
109,3,4,T1_SMS_5,213,5,42,127,346295684
109,3,4,T1_SMS_5,214,1,48,29,346314656
109,3,4,T1_SMS_5,215,5,42,127,346796428
109,3,4,T1_SMS_5,216,1,48,27,346837692
109,3,4,T1_SMS_5,217,5,42,127,347295968
109,3,4,T1_SMS_5,218,1,48,29,347299988
109,3,4,T1_SMS_5,219,5,42,127,347795888
109,3,4,T1_SMS_5,220,1,48,25,347837156
109,3,4,T1_SMS_5,221,5,42,127,348295656
109,3,4,T1_SMS_5,222,1,48,31,348307080
109,3,4,T1_SMS_5,223,5,42,127,348796176
109,3,4,T1_SMS_5,224,1,48,28,348836316
109,3,4,T1_SMS_5,225,5,42,127,349295868
109,3,4,T1_SMS_5,226,1,48,27,349303700
109,3,4,T1_SMS_5,227,5,42,127,349795788
109,3,4,T1_SMS_5,228,1,48,24,349818656
109,3,4,T1_SMS_5,229,5,42,127,350296384
109,3,4,T1_SMS_5,230,1,48,21,350297348
109,3,4,T1_SMS_5,231,5,42,127,350796000
109,3,4,T1_SMS_5,232,1,48,30,350799568
109,3,4,T1_SMS_5,233,5,42,127,351295992
109,3,4,T1_SMS_5,234,1,48,28,351325444
109,3,4,T1_SMS_5,235,5,42,127,351795688
109,3,4,T1_SMS_5,236,1,48,32,351823640
109,3,4,T1_SMS_5,237,1,48,29,352296056
109,3,4,T1_SMS_5,238,5,42,127,352297396
109,3,4,T1_SMS_5,239,5,42,127,352795976
109,3,4,T1_SMS_5,240,1,48,29,352828416
109,3,4,T1_SMS_5,241,5,42,127,353295596
109,3,4,T1_SMS_5,242,1,48,32,353314948
109,3,4,T1_SMS_5,243,1,48,35,353795292
109,3,4,T1_SMS_5,244,5,42,127,353796780
109,3,4,T1_SMS_5,245,1,48,35,354282276
109,3,4,T1_SMS_5,246,5,42,127,354296224
109,3,4,T1_SMS_5,247,5,42,127,354795924
109,3,4,T1_SMS_5,248,1,48,30,354820760
109,3,4,T1_SMS_5,249,5,42,127,355295620
109,3,4,T1_SMS_5,250,1,48,30,355312576
109,3,4,T1_SMS_5,251,5,42,127,355796288
109,3,4,T1_SMS_5,252,1,48,35,355820800
109,3,4,T1_SMS_5,253,1,48,32,356294776
109,3,4,T1_SMS_5,254,5,42,127,356296272
109,3,4,T1_SMS_5,0,9999,9999,9999,291793980
109,3,4,T1_SMS_5,1,9999,9999,9999,292293696
109,3,4,T1_SMS_5,2,9999,9999,9999,292793416
109,3,4,T1_SMS_5,3,9999,9999,9999,293293132
109,3,4,T1_SMS_5,4,9999,9999,9999,293793888
109,3,4,T1_SMS_5,5,9999,9999,9999,294293584
109,3,4,T1_SMS_5,6,9999,9999,9999,294793280
109,3,4,T1_SMS_5,7,9999,9999,9999,295294020
109,3,4,T1_SMS_5,8,9999,9999,9999,295793720
109,3,4,T1_SMS_5,9,9999,9999,9999,296293488
109,3,4,T1_SMS_5,10,9999,9999,9999,296793180
109,3,4,T1_SMS_5,11,9999,9999,9999,297293928
109,3,4,T1_SMS_5,12,9999,9999,9999,297793616
109,3,4,T1_SMS_5,13,9999,9999,9999,298293312
109,3,4,T1_SMS_5,14,9999,9999,9999,298794052
109,3,4,T1_SMS_5,15,9999,9999,9999,299293748
109,3,4,T1_SMS_5,16,9999,9999,9999,299793524
109,3,4,T1_SMS_5,17,9999,9999,9999,300293216
109,3,4,T1_SMS_5,18,9999,9999,9999,300793936
109,3,4,T1_SMS_5,19,9999,9999,9999,301293624
109,3,4,T1_SMS_5,20,9999,9999,9999,301793396
109,3,4,T1_SMS_5,21,9999,9999,9999,302294136
109,3,4,T1_SMS_5,22,9999,9999,9999,302793828
109,3,4,T1_SMS_5,23,9999,9999,9999,303293528
109,3,4,T1_SMS_5,24,9999,9999,9999,303793228
109,3,4,T1_SMS_5,25,9999,9999,9999,304293968
109,3,4,T1_SMS_5,26,9999,9999,9999,304793664
109,3,4,T1_SMS_5,27,9999,9999,9999,305293428
109,3,4,T1_SMS_5,28,9999,9999,9999,305793128
109,3,4,T1_SMS_5,29,9999,9999,9999,306293872
109,3,4,T1_SMS_5,30,9999,9999,9999,306793568
109,3,4,T1_SMS_5,31,9999,9999,9999,307293260
109,3,4,T1_SMS_5,32,9999,9999,9999,307794004
109,3,4,T1_SMS_5,33,9999,9999,9999,308293692
109,3,4,T1_SMS_5,34,9999,9999,9999,308793460
109,3,4,T1_SMS_5,35,9999,9999,9999,309293164
109,3,4,T1_SMS_5,36,9999,9999,9999,309793908
109,3,4,T1_SMS_5,37,9999,9999,9999,310293564
109,3,4,T1_SMS_5,38,9999,9999,9999,310793292
109,3,4,T1_SMS_5,39,9999,9999,9999,311294040
109,3,4,T1_SMS_5,40,9999,9999,9999,311793776
109,3,4,T1_SMS_5,41,9999,9999,9999,312293472
109,3,4,T1_SMS_5,42,9999,9999,9999,312793168
109,3,4,T1_SMS_5,43,9999,9999,9999,313293908
109,3,4,T1_SMS_5,44,9999,9999,9999,313793604
109,3,4,T1_SMS_5,45,9999,9999,9999,314293300
109,3,4,T1_SMS_5,46,9999,9999,9999,314794040
109,3,4,T1_SMS_5,47,9999,9999,9999,315293816
109,3,4,T1_SMS_5,48,9999,9999,9999,315793512
109,3,4,T1_SMS_5,49,9999,9999,9999,316293200
109,3,4,T1_SMS_5,50,9999,9999,9999,316793948
109,3,4,T1_SMS_5,51,9999,9999,9999,317293644
109,3,4,T1_SMS_5,52,9999,9999,9999,317793340
109,3,4,T1_SMS_5,53,9999,9999,9999,318294080
109,3,4,T1_SMS_5,54,9999,9999,9999,318793848
109,3,4,T1_SMS_5,55,9999,9999,9999,319293540
109,3,4,T1_SMS_5,56,9999,9999,9999,319793236
109,3,4,T1_SMS_5,57,9999,9999,9999,320293976
109,3,4,T1_SMS_5,58,9999,9999,9999,320793672
109,3,4,T1_SMS_5,59,9999,9999,9999,321293368
109,3,4,T1_SMS_5,60,9999,9999,9999,321793136
109,3,4,T1_SMS_5,61,9999,9999,9999,322293860
109,3,4,T1_SMS_5,62,9999,9999,9999,322793548
109,3,4,T1_SMS_5,63,9999,9999,9999,323293244
109,3,4,T1_SMS_5,64,9999,9999,9999,323793984
109,3,4,T1_SMS_5,65,9999,9999,9999,324293688
109,3,4,T1_SMS_5,66,9999,9999,9999,324793452
109,3,4,T1_SMS_5,67,9999,9999,9999,325293152
109,3,4,T1_SMS_5,68,9999,9999,9999,325793892
109,3,4,T1_SMS_5,69,9999,9999,9999,326293588
109,3,4,T1_SMS_5,70,9999,9999,9999,326793280
109,3,4,T1_SMS_5,71,9999,9999,9999,327294024
109,3,4,T1_SMS_5,72,9999,9999,9999,327793720
109,3,4,T1_SMS_5,73,9999,9999,9999,328293488
109,3,4,T1_SMS_5,74,9999,9999,9999,328793184
109,3,4,T1_SMS_5,75,9999,9999,9999,329293928
109,3,4,T1_SMS_5,76,9999,9999,9999,329793620
109,3,4,T1_SMS_5,77,9999,9999,9999,330293332
109,3,4,T1_SMS_5,78,9999,9999,9999,330794080
109,3,4,T1_SMS_5,79,9999,9999,9999,331293772
109,3,4,T1_SMS_5,80,9999,9999,9999,331793464
109,3,4,T1_SMS_5,81,9999,9999,9999,332293240
109,3,4,T1_SMS_5,82,9999,9999,9999,332793976
109,3,4,T1_SMS_5,83,9999,9999,9999,333293644
109,3,4,T1_SMS_5,84,9999,9999,9999,333793348
109,3,4,T1_SMS_5,85,9999,9999,9999,334294080
109,3,4,T1_SMS_5,86,9999,9999,9999,334793784
109,3,4,T1_SMS_5,87,9999,9999,9999,335293552
109,3,4,T1_SMS_5,88,9999,9999,9999,335793248
109,3,4,T1_SMS_5,89,9999,9999,9999,336293984
109,3,4,T1_SMS_5,90,9999,9999,9999,336793680
109,3,4,T1_SMS_5,91,9999,9999,9999,337293376
109,3,4,T1_SMS_5,92,9999,9999,9999,337793144
109,3,4,T1_SMS_5,93,9999,9999,9999,338293812
109,3,4,T1_SMS_5,94,9999,9999,9999,338793580
109,3,4,T1_SMS_5,95,9999,9999,9999,339293276
109,3,4,T1_SMS_5,96,9999,9999,9999,339794020
109,3,4,T1_SMS_5,97,9999,9999,9999,340293712
109,3,4,T1_SMS_5,98,9999,9999,9999,340793408
109,3,4,T1_SMS_5,99,9999,9999,9999,341293104
109,3,4,T1_SMS_5,100,9999,9999,9999,341793912
109,3,4,T1_SMS_5,101,9999,9999,9999,342293616
109,3,4,T1_SMS_5,102,9999,9999,9999,342793328
109,3,4,T1_SMS_5,103,9999,9999,9999,343294052
109,3,4,T1_SMS_5,104,9999,9999,9999,343793724
109,3,4,T1_SMS_5,105,9999,9999,9999,344293492
109,3,4,T1_SMS_5,106,9999,9999,9999,344793188
109,3,4,T1_SMS_5,107,9999,9999,9999,345293932
109,3,4,T1_SMS_5,108,9999,9999,9999,345793624
109,3,4,T1_SMS_5,109,9999,9999,9999,346293324
109,3,4,T1_SMS_5,110,9999,9999,9999,346794064
109,3,4,T1_SMS_5,111,9999,9999,9999,347293756
109,3,4,T1_SMS_5,112,9999,9999,9999,347793528
109,3,4,T1_SMS_5,113,9999,9999,9999,348293220
109,3,4,T1_SMS_5,114,9999,9999,9999,348793964
109,3,4,T1_SMS_5,115,9999,9999,9999,349293656
109,3,4,T1_SMS_5,116,9999,9999,9999,349793352
109,3,4,T1_SMS_5,117,9999,9999,9999,350294092
109,3,4,T1_SMS_5,118,9999,9999,9999,350793788
109,3,4,T1_SMS_5,119,9999,9999,9999,351293556
109,3,4,T1_SMS_5,120,9999,9999,9999,351793252
109,3,4,T1_SMS_5,121,9999,9999,9999,352293992
109,3,4,T1_SMS_5,122,9999,9999,9999,352793688
109,3,4,T1_SMS_5,123,9999,9999,9999,353293384
109,3,4,T1_SMS_5,124,9999,9999,9999,353793080
109,3,4,T1_SMS_5,125,9999,9999,9999,354293864
109,3,4,T1_SMS_5,126,9999,9999,9999,354793564
109,3,4,T1_SMS_5,127,9999,9999,9999,355293260
109,3,4,T1_SMS_5,128,9999,9999,9999,355794000
109,3,4,T1_SMS_5,129,9999,9999,9999,356293692
109,4,2,T1_SMS_8,0,5,42,127,441227568
109,4,2,T1_SMS_8,1,5,42,127,442028372
109,4,2,T1_SMS_8,2,5,42,127,442828352
109,4,2,T1_SMS_8,3,1,48,29,442830948
109,4,2,T1_SMS_8,4,1,48,31,443583236
109,4,2,T1_SMS_8,5,5,42,127,443627852
109,4,2,T1_SMS_8,6,1,48,38,444384764
109,4,2,T1_SMS_8,7,5,42,127,444427536
109,4,2,T1_SMS_8,8,1,48,34,445185568
109,4,2,T1_SMS_8,9,5,42,127,445228464
109,4,2,T1_SMS_8,10,1,48,40,445957336
109,4,2,T1_SMS_8,11,5,42,127,446028200
109,4,2,T1_SMS_8,12,1,48,36,446744872
109,4,2,T1_SMS_8,13,5,42,127,446827860
109,4,2,T1_SMS_8,14,1,48,29,447538096
109,4,2,T1_SMS_8,15,5,42,127,447627516
109,4,2,T1_SMS_8,16,1,48,33,448339480
109,4,2,T1_SMS_8,17,5,42,127,448428372
109,4,2,T1_SMS_8,18,1,48,39,449167488
109,4,2,T1_SMS_8,19,5,42,127,449228032
109,4,2,T1_SMS_8,20,1,48,41,449977840
109,4,2,T1_SMS_8,21,5,42,127,450027988
109,4,2,T1_SMS_8,22,1,48,43,450812304
109,4,2,T1_SMS_8,23,5,42,127,450827748
109,4,2,T1_SMS_8,24,1,48,36,451607472
109,4,2,T1_SMS_8,25,5,42,127,451628380
109,4,2,T1_SMS_8,26,1,48,35,452381852
109,4,2,T1_SMS_8,27,5,42,127,452428184
109,4,2,T1_SMS_8,28,1,48,38,453178220
109,4,2,T1_SMS_8,29,5,42,127,453227992
109,4,2,T1_SMS_8,30,1,48,39,453980720
109,4,2,T1_SMS_8,31,5,42,127,454027728
109,4,2,T1_SMS_8,32,1,48,39,454798632
109,4,2,T1_SMS_8,33,5,42,127,454828432
109,4,2,T1_SMS_8,34,1,48,37,455616988
109,4,2,T1_SMS_8,35,5,42,127,455628092
109,4,2,T1_SMS_8,36,1,48,36,456416348
109,4,2,T1_SMS_8,37,5,42,127,456427976
109,4,2,T1_SMS_8,38,1,48,39,457190872
109,4,2,T1_SMS_8,39,5,42,127,457227584
109,4,2,T1_SMS_8,40,5,42,127,458028444
109,4,2,T1_SMS_8,41,1,48,40,458035676
109,4,2,T1_SMS_8,42,1,48,41,458806296
109,4,2,T1_SMS_8,43,5,42,127,458828096
109,4,2,T1_SMS_8,44,1,48,37,459617024
109,4,2,T1_SMS_8,45,5,42,127,459627904
109,4,2,T1_SMS_8,46,5,42,127,460427792
109,4,2,T1_SMS_8,47,1,48,36,460460532
109,4,2,T1_SMS_8,48,1,48,36,461182828
109,4,2,T1_SMS_8,49,5,42,127,461228268
109,4,2,T1_SMS_8,50,1,48,40,462013460
109,4,2,T1_SMS_8,51,5,42,127,462028076
109,4,2,T1_SMS_8,52,1,48,36,462798980
109,4,2,T1_SMS_8,53,5,42,127,462828032
109,4,2,T1_SMS_8,54,1,48,30,463591532
109,4,2,T1_SMS_8,55,5,42,127,463627496
109,4,2,T1_SMS_8,56,1,48,37,464378648
109,4,2,T1_SMS_8,57,5,42,127,464428424
109,4,2,T1_SMS_8,58,1,48,39,465205156
109,4,2,T1_SMS_8,59,5,42,127,465228156
109,4,2,T1_SMS_8,60,5,42,127,466028044
109,4,2,T1_SMS_8,61,1,48,41,466028936
109,4,2,T1_SMS_8,62,1,48,40,466825664
109,4,2,T1_SMS_8,63,5,42,127,466827552
109,4,2,T1_SMS_8,64,1,48,38,467621040
109,4,2,T1_SMS_8,65,5,42,127,467628404
109,4,2,T1_SMS_8,66,5,42,127,468428220
109,4,2,T1_SMS_8,67,1,48,28,468446144
109,4,2,T1_SMS_8,68,1,48,42,469217592
109,4,2,T1_SMS_8,69,5,42,127,469227944
109,4,2,T1_SMS_8,70,1,48,41,469977604
109,4,2,T1_SMS_8,71,5,42,127,470027852
109,4,2,T1_SMS_8,72,5,42,127,470828268
109,4,2,T1_SMS_8,73,1,48,38,470847016
109,4,2,T1_SMS_8,74,5,42,127,471628224
109,4,2,T1_SMS_8,75,1,48,41,471633880
109,4,2,T1_SMS_8,76,5,42,127,472427880
109,4,2,T1_SMS_8,77,1,48,32,472449476
109,4,2,T1_SMS_8,78,1,48,41,473201992
109,4,2,T1_SMS_8,79,5,42,127,473227904
109,4,2,T1_SMS_8,80,5,42,127,474028320
109,4,2,T1_SMS_8,81,1,48,40,474033456
109,4,2,T1_SMS_8,82,1,48,37,474814320
109,4,2,T1_SMS_8,83,5,42,127,474828120
109,4,2,T1_SMS_8,84,1,48,39,475584360
109,4,2,T1_SMS_8,85,5,42,127,475627856
109,4,2,T1_SMS_8,86,1,48,44,476407756
109,4,2,T1_SMS_8,87,5,42,127,476427984
109,4,2,T1_SMS_8,88,1,48,40,477213544
109,4,2,T1_SMS_8,89,5,42,127,477228392
109,4,2,T1_SMS_8,90,1,48,43,478006552
109,4,2,T1_SMS_8,91,5,42,127,478028052
109,4,2,T1_SMS_8,92,5,42,127,478827940
109,4,2,T1_SMS_8,93,1,48,43,478846992
109,4,2,T1_SMS_8,94,5,42,127,479627748
109,4,2,T1_SMS_8,95,1,48,43,479645752
109,4,2,T1_SMS_8,96,5,42,127,480428528
109,4,2,T1_SMS_8,97,1,48,43,480450648
109,4,2,T1_SMS_8,98,1,48,39,481206608
109,4,2,T1_SMS_8,99,5,42,127,481228108
109,4,2,T1_SMS_8,100,5,42,127,482027848
109,4,2,T1_SMS_8,101,1,48,40,482058068
109,4,2,T1_SMS_8,102,1,48,35,482808564
109,4,2,T1_SMS_8,103,5,42,127,482827600
109,4,2,T1_SMS_8,104,1,48,43,483612936
109,4,2,T1_SMS_8,105,5,42,127,483628528
109,4,2,T1_SMS_8,106,5,42,127,484428196
109,4,2,T1_SMS_8,107,1,48,35,484433852
109,4,2,T1_SMS_8,108,1,48,36,485213748
109,4,2,T1_SMS_8,109,5,42,127,485227772
109,4,2,T1_SMS_8,110,1,48,41,486010268
109,4,2,T1_SMS_8,111,5,42,127,486027656
109,4,2,T1_SMS_8,112,5,42,127,486828664
109,4,2,T1_SMS_8,113,1,48,41,486834772
109,4,2,T1_SMS_8,114,1,48,42,487606372
109,4,2,T1_SMS_8,115,5,42,127,487628092
109,4,2,T1_SMS_8,116,5,42,127,488427760
109,4,2,T1_SMS_8,117,1,48,38,488470468
109,4,2,T1_SMS_8,118,5,42,127,489227516
109,4,2,T1_SMS_8,119,1,48,44,489239984
109,4,2,T1_SMS_8,120,5,42,127,490028596
109,4,2,T1_SMS_8,121,1,48,34,490078244
109,4,2,T1_SMS_8,122,1,48,42,490816700
109,4,2,T1_SMS_8,123,5,42,127,490828024
109,4,2,T1_SMS_8,124,5,42,127,491627764
109,4,2,T1_SMS_8,125,1,48,37,491654064
109,4,2,T1_SMS_8,126,1,48,43,492409136
109,4,2,T1_SMS_8,127,5,42,127,492427644
109,4,2,T1_SMS_8,128,5,42,127,493228576
109,4,2,T1_SMS_8,129,1,48,32,493243284
109,4,2,T1_SMS_8,130,5,42,127,494028160
109,4,2,T1_SMS_8,131,1,48,37,494034420
109,4,2,T1_SMS_8,132,5,42,127,494827820
109,4,2,T1_SMS_8,133,1,48,42,494850188
109,4,2,T1_SMS_8,134,1,48,37,495627800
109,4,2,T1_SMS_8,135,5,42,127,495629064
109,4,2,T1_SMS_8,136,5,42,127,496428432
109,4,2,T1_SMS_8,137,1,48,41,496450472
109,4,2,T1_SMS_8,138,1,48,42,497214060
109,4,2,T1_SMS_8,139,5,42,127,497228160
109,4,2,T1_SMS_8,140,1,48,42,498020528
109,4,2,T1_SMS_8,141,5,42,127,498027744
109,4,2,T1_SMS_8,142,1,48,43,498827180
109,4,2,T1_SMS_8,143,5,42,127,498828672
109,4,2,T1_SMS_8,144,5,42,127,499628336
109,4,2,T1_SMS_8,145,1,48,39,499666012
109,4,2,T1_SMS_8,146,5,42,127,500427996
109,4,2,T1_SMS_8,147,1,48,38,500451156
109,4,2,T1_SMS_8,148,5,42,127,501227952
109,4,2,T1_SMS_8,149,1,48,46,501274628
109,4,2,T1_SMS_8,150,1,48,37,502002460
109,4,2,T1_SMS_8,151,5,42,127,502027628
109,4,2,T1_SMS_8,152,1,48,43,502806456
109,4,2,T1_SMS_8,153,5,42,127,502828336
109,4,2,T1_SMS_8,154,5,42,127,503628224
109,4,2,T1_SMS_8,155,1,48,37,503656024
109,4,2,T1_SMS_8,156,1,48,41,504416924
109,4,2,T1_SMS_8,157,5,42,127,504427804
109,4,2,T1_SMS_8,158,1,48,37,505225868
109,4,2,T1_SMS_8,159,5,42,127,505227536
109,4,2,T1_SMS_8,160,1,48,34,506016988
109,4,2,T1_SMS_8,161,5,42,127,506028392
109,4,2,T1_SMS_8,162,1,48,45,506823080
109,4,2,T1_SMS_8,163,5,42,127,506828348
109,4,2,T1_SMS_8,164,5,42,127,507627864
109,4,2,T1_SMS_8,165,1,48,45,507637364
109,4,2,T1_SMS_8,166,1,48,38,508416216
109,4,2,T1_SMS_8,167,5,42,127,508427616
109,4,2,T1_SMS_8,168,1,48,36,509211832
109,4,2,T1_SMS_8,169,5,42,127,509228472
109,4,2,T1_SMS_8,170,5,42,127,510028284
109,4,2,T1_SMS_8,171,1,48,33,510029252
109,4,2,T1_SMS_8,172,5,42,127,510828020
109,4,2,T1_SMS_8,173,1,48,45,510842652
109,4,2,T1_SMS_8,174,1,48,47,511620900
109,4,2,T1_SMS_8,175,5,42,127,511627668
109,4,2,T1_SMS_8,176,5,42,127,512428456
109,4,2,T1_SMS_8,177,1,48,41,512456552
109,4,2,T1_SMS_8,178,5,42,127,513228112
109,4,2,T1_SMS_8,179,1,48,39,513229976
109,4,2,T1_SMS_8,180,5,42,127,514027996
109,4,2,T1_SMS_8,181,1,48,30,514104888
109,4,2,T1_SMS_8,182,1,48,40,514823228
109,4,2,T1_SMS_8,183,5,42,127,514827600
109,4,2,T1_SMS_8,184,1,48,43,515608676
109,4,2,T1_SMS_8,185,5,42,127,515628600
109,4,2,T1_SMS_8,186,1,48,40,516408856
109,4,2,T1_SMS_8,187,5,42,127,516428112
109,4,2,T1_SMS_8,188,1,48,41,517192732
109,4,2,T1_SMS_8,189,5,42,127,517227996
109,4,2,T1_SMS_8,190,1,48,38,517997928
109,4,2,T1_SMS_8,191,5,42,127,518027504
109,4,2,T1_SMS_8,192,1,48,49,518804088
109,4,2,T1_SMS_8,193,5,42,127,518828288
109,4,2,T1_SMS_8,194,5,42,127,519628100
109,4,2,T1_SMS_8,195,1,48,38,519651112
109,4,2,T1_SMS_8,196,5,42,127,520427908
109,4,2,T1_SMS_8,197,1,48,39,520489840
109,4,2,T1_SMS_8,198,1,48,46,521203840
109,4,2,T1_SMS_8,199,5,42,127,521227808
109,4,2,T1_SMS_8,200,5,42,127,522028524
109,4,2,T1_SMS_8,201,1,48,41,522046976
109,4,2,T1_SMS_8,202,5,42,127,522828256
109,4,2,T1_SMS_8,203,1,48,39,522873112
109,4,2,T1_SMS_8,204,1,48,46,523622416
109,4,2,T1_SMS_8,205,5,42,127,523627832
109,4,2,T1_SMS_8,206,5,42,127,524427500
109,4,2,T1_SMS_8,207,1,48,45,524428912
109,4,2,T1_SMS_8,208,1,48,44,525228552
109,4,2,T1_SMS_8,209,5,42,127,525229888
109,4,2,T1_SMS_8,210,1,48,39,526000044
109,4,2,T1_SMS_8,211,5,42,127,526028128
109,4,2,T1_SMS_8,212,5,42,127,526828168
109,4,2,T1_SMS_8,213,1,48,46,526830536
109,4,2,T1_SMS_8,214,1,48,46,527597648
109,4,2,T1_SMS_8,215,5,42,127,527627620
109,4,2,T1_SMS_8,216,1,48,47,528375260
109,4,2,T1_SMS_8,217,5,42,127,528428328
109,4,2,T1_SMS_8,218,1,48,42,529202296
109,4,2,T1_SMS_8,219,5,42,127,529228284
109,4,2,T1_SMS_8,220,1,48,43,530001132
109,4,2,T1_SMS_8,221,5,42,127,530028092
109,4,2,T1_SMS_8,222,5,42,127,530827612
109,4,2,T1_SMS_8,223,1,48,43,530849204
109,4,2,T1_SMS_8,224,5,42,127,531628392
109,4,2,T1_SMS_8,225,1,48,43,531652152
109,4,2,T1_SMS_8,226,5,42,127,532428048
109,4,2,T1_SMS_8,227,1,48,49,532429912
109,4,2,T1_SMS_8,228,5,42,127,533228004
109,4,2,T1_SMS_8,229,1,48,49,533251196
109,4,2,T1_SMS_8,230,5,42,127,534027988
109,4,2,T1_SMS_8,231,1,48,45,534048836
109,4,2,T1_SMS_8,232,5,42,127,534828248
109,4,2,T1_SMS_8,233,1,48,39,534838620
109,4,2,T1_SMS_8,234,5,42,127,535628128
109,4,2,T1_SMS_8,235,1,48,45,535657276
109,4,2,T1_SMS_8,236,5,42,127,536427860
109,4,2,T1_SMS_8,237,1,48,46,536442348
109,4,2,T1_SMS_8,0,9999,9999,9999,441225276
109,4,2,T1_SMS_8,1,9999,9999,9999,442026080
109,4,2,T1_SMS_8,2,9999,9999,9999,442825836
109,4,2,T1_SMS_8,3,9999,9999,9999,443625560
109,4,2,T1_SMS_8,4,9999,9999,9999,444425320
109,4,2,T1_SMS_8,5,9999,9999,9999,445226096
109,4,2,T1_SMS_8,6,9999,9999,9999,446025832
109,4,2,T1_SMS_8,7,9999,9999,9999,446825568
109,4,2,T1_SMS_8,8,9999,9999,9999,447625300
109,4,2,T1_SMS_8,9,9999,9999,9999,448426080
109,4,2,T1_SMS_8,10,9999,9999,9999,449225812
109,4,2,T1_SMS_8,11,9999,9999,9999,450025548
109,4,2,T1_SMS_8,12,9999,9999,9999,450825308
109,4,2,T1_SMS_8,13,9999,9999,9999,451626088
109,4,2,T1_SMS_8,14,9999,9999,9999,452425820
109,4,2,T1_SMS_8,15,9999,9999,9999,453225552
109,4,2,T1_SMS_8,16,9999,9999,9999,454025288
109,4,2,T1_SMS_8,17,9999,9999,9999,454826068
109,4,2,T1_SMS_8,18,9999,9999,9999,455625800
109,4,2,T1_SMS_8,19,9999,9999,9999,456425536
109,4,2,T1_SMS_8,20,9999,9999,9999,457225292
109,4,2,T1_SMS_8,21,9999,9999,9999,458026080
109,4,2,T1_SMS_8,22,9999,9999,9999,458825804
109,4,2,T1_SMS_8,23,9999,9999,9999,459625540
109,4,2,T1_SMS_8,24,9999,9999,9999,460425280
109,4,2,T1_SMS_8,25,9999,9999,9999,461226052
109,4,2,T1_SMS_8,26,9999,9999,9999,462025784
109,4,2,T1_SMS_8,27,9999,9999,9999,462825520
109,4,2,T1_SMS_8,28,9999,9999,9999,463625276
109,4,2,T1_SMS_8,29,9999,9999,9999,464426056
109,4,2,T1_SMS_8,30,9999,9999,9999,465225792
109,4,2,T1_SMS_8,31,9999,9999,9999,466025528
109,4,2,T1_SMS_8,32,9999,9999,9999,466825284
109,4,2,T1_SMS_8,33,9999,9999,9999,467626040
109,4,2,T1_SMS_8,34,9999,9999,9999,468425780
109,4,2,T1_SMS_8,35,9999,9999,9999,469225580
109,4,2,T1_SMS_8,36,9999,9999,9999,470025264
109,4,2,T1_SMS_8,37,9999,9999,9999,470826048
109,4,2,T1_SMS_8,38,9999,9999,9999,471625780
109,4,2,T1_SMS_8,39,9999,9999,9999,472425588
109,4,2,T1_SMS_8,40,9999,9999,9999,473225316
109,4,2,T1_SMS_8,41,9999,9999,9999,474026104
109,4,2,T1_SMS_8,42,9999,9999,9999,474825832
109,4,2,T1_SMS_8,43,9999,9999,9999,475625564
109,4,2,T1_SMS_8,44,9999,9999,9999,476425320
109,4,2,T1_SMS_8,45,9999,9999,9999,477226100
109,4,2,T1_SMS_8,46,9999,9999,9999,478025836
109,4,2,T1_SMS_8,47,9999,9999,9999,478825576
109,4,2,T1_SMS_8,48,9999,9999,9999,479625308
109,4,2,T1_SMS_8,49,9999,9999,9999,480426088
109,4,2,T1_SMS_8,50,9999,9999,9999,481225816
109,4,2,T1_SMS_8,51,9999,9999,9999,482025556
109,4,2,T1_SMS_8,52,9999,9999,9999,482825308
109,4,2,T1_SMS_8,53,9999,9999,9999,483626088
109,4,2,T1_SMS_8,54,9999,9999,9999,484425828
109,4,2,T1_SMS_8,55,9999,9999,9999,485225556
109,4,2,T1_SMS_8,56,9999,9999,9999,486025288
109,4,2,T1_SMS_8,57,9999,9999,9999,486826076
109,4,2,T1_SMS_8,58,9999,9999,9999,487625800
109,4,2,T1_SMS_8,59,9999,9999,9999,488425544
109,4,2,T1_SMS_8,60,9999,9999,9999,489225300
109,4,2,T1_SMS_8,61,9999,9999,9999,490026080
109,4,2,T1_SMS_8,62,9999,9999,9999,490825808
109,4,2,T1_SMS_8,63,9999,9999,9999,491625548
109,4,2,T1_SMS_8,64,9999,9999,9999,492425276
109,4,2,T1_SMS_8,65,9999,9999,9999,493226060
109,4,2,T1_SMS_8,66,9999,9999,9999,494025796
109,4,2,T1_SMS_8,67,9999,9999,9999,494825528
109,4,2,T1_SMS_8,68,9999,9999,9999,495625284
109,4,2,T1_SMS_8,69,9999,9999,9999,496426068
109,4,2,T1_SMS_8,70,9999,9999,9999,497225792
109,4,2,T1_SMS_8,71,9999,9999,9999,498025524
109,4,2,T1_SMS_8,72,9999,9999,9999,498825268
109,4,2,T1_SMS_8,73,9999,9999,9999,499626044
109,4,2,T1_SMS_8,74,9999,9999,9999,500425780
109,4,2,T1_SMS_8,75,9999,9999,9999,501225588
109,4,2,T1_SMS_8,76,9999,9999,9999,502025264
109,4,2,T1_SMS_8,77,9999,9999,9999,502826044
109,4,2,T1_SMS_8,78,9999,9999,9999,503625784
109,4,2,T1_SMS_8,79,9999,9999,9999,504425588
109,4,2,T1_SMS_8,80,9999,9999,9999,505225268
109,4,2,T1_SMS_8,81,9999,9999,9999,506026100
109,4,2,T1_SMS_8,82,9999,9999,9999,506825832
109,4,2,T1_SMS_8,83,9999,9999,9999,507625572
109,4,2,T1_SMS_8,84,9999,9999,9999,508425324
109,4,2,T1_SMS_8,85,9999,9999,9999,509226028
109,4,2,T1_SMS_8,86,9999,9999,9999,510025844
109,4,2,T1_SMS_8,87,9999,9999,9999,510825576
109,4,2,T1_SMS_8,88,9999,9999,9999,511625304
109,4,2,T1_SMS_8,89,9999,9999,9999,512426088
109,4,2,T1_SMS_8,90,9999,9999,9999,513225820
109,4,2,T1_SMS_8,91,9999,9999,9999,514025556
109,4,2,T1_SMS_8,92,9999,9999,9999,514825308
109,4,2,T1_SMS_8,93,9999,9999,9999,515626088
109,4,2,T1_SMS_8,94,9999,9999,9999,516425820
109,4,2,T1_SMS_8,95,9999,9999,9999,517225556
109,4,2,T1_SMS_8,96,9999,9999,9999,518025288
109,4,2,T1_SMS_8,97,9999,9999,9999,518826068
109,4,2,T1_SMS_8,98,9999,9999,9999,519625808
109,4,2,T1_SMS_8,99,9999,9999,9999,520425540
109,4,2,T1_SMS_8,100,9999,9999,9999,521225292
109,4,2,T1_SMS_8,101,9999,9999,9999,522026080
109,4,2,T1_SMS_8,102,9999,9999,9999,522825816
109,4,2,T1_SMS_8,103,9999,9999,9999,523625540
109,4,2,T1_SMS_8,104,9999,9999,9999,524425280
109,4,2,T1_SMS_8,105,9999,9999,9999,525226036
109,4,2,T1_SMS_8,106,9999,9999,9999,526025840
109,4,2,T1_SMS_8,107,9999,9999,9999,526825580
109,4,2,T1_SMS_8,108,9999,9999,9999,527625332
109,4,2,T1_SMS_8,109,9999,9999,9999,528426036
109,4,2,T1_SMS_8,110,9999,9999,9999,529225844
109,4,2,T1_SMS_8,111,9999,9999,9999,530025576
109,4,2,T1_SMS_8,112,9999,9999,9999,530825320
109,4,2,T1_SMS_8,113,9999,9999,9999,531626100
109,4,2,T1_SMS_8,114,9999,9999,9999,532425832
109,4,2,T1_SMS_8,115,9999,9999,9999,533225564
109,4,2,T1_SMS_8,116,9999,9999,9999,534025324
109,4,2,T1_SMS_8,117,9999,9999,9999,534826028
109,4,2,T1_SMS_8,118,9999,9999,9999,535625836
109,4,2,T1_SMS_8,119,9999,9999,9999,536425572
109,5,21,Ticks_Linear_5,0,5,42,127,547604800
109,5,21,Ticks_Linear_5,1,5,42,127,548085048
109,5,21,Ticks_Linear_5,2,5,42,127,548565572
109,5,21,Ticks_Linear_5,3,5,42,127,549044924
109,5,21,Ticks_Linear_5,4,5,42,127,549524728
109,5,21,Ticks_Linear_5,5,1,48,43,549527324
109,5,21,Ticks_Linear_5,6,1,48,46,549979740
109,5,21,Ticks_Linear_5,7,5,42,127,550015580
109,5,21,Ticks_Linear_5,8,1,48,42,550492704
109,5,21,Ticks_Linear_5,9,5,42,127,550504944
109,5,21,Ticks_Linear_5,10,1,48,46,550974656
109,5,21,Ticks_Linear_5,11,5,42,127,550995432
109,5,21,Ticks_Linear_5,12,1,48,48,551454432
109,5,21,Ticks_Linear_5,13,5,42,127,551484800
109,5,21,Ticks_Linear_5,14,1,48,43,551943872
109,5,21,Ticks_Linear_5,15,5,42,127,551975512
109,5,21,Ticks_Linear_5,16,1,48,50,552419276
109,5,21,Ticks_Linear_5,17,5,42,127,552474916
109,5,21,Ticks_Linear_5,18,1,48,44,552926020
109,5,21,Ticks_Linear_5,19,5,42,127,552974688
109,5,21,Ticks_Linear_5,20,1,48,46,553421972
109,5,21,Ticks_Linear_5,21,5,42,127,553474612
109,5,21,Ticks_Linear_5,22,1,48,47,553934036
109,5,21,Ticks_Linear_5,23,5,42,127,553975284
109,5,21,Ticks_Linear_5,24,1,48,48,554436424
109,5,21,Ticks_Linear_5,25,5,42,127,554474884
109,5,21,Ticks_Linear_5,26,1,48,46,554945788
109,5,21,Ticks_Linear_5,27,5,42,127,554984768
109,5,21,Ticks_Linear_5,28,1,48,43,555466524
109,5,21,Ticks_Linear_5,29,5,42,127,555494724
109,5,21,Ticks_Linear_5,30,1,48,46,555974992
109,5,21,Ticks_Linear_5,31,5,42,127,556004684
109,5,21,Ticks_Linear_5,32,1,48,41,556502328
109,5,21,Ticks_Linear_5,33,5,42,127,556514568
109,5,21,Ticks_Linear_5,34,5,42,127,557024536
109,5,21,Ticks_Linear_5,35,1,48,44,557032436
109,5,21,Ticks_Linear_5,36,5,42,127,557544752
109,5,21,Ticks_Linear_5,37,1,48,43,557559724
109,5,21,Ticks_Linear_5,38,1,48,41,558037588
109,5,21,Ticks_Linear_5,39,5,42,127,558064916
109,5,21,Ticks_Linear_5,40,1,48,48,558566944
109,5,21,Ticks_Linear_5,41,5,42,127,558585428
109,5,21,Ticks_Linear_5,42,1,48,47,559087112
109,5,21,Ticks_Linear_5,43,5,42,127,559105424
109,5,21,Ticks_Linear_5,44,1,48,47,559610544
109,5,21,Ticks_Linear_5,45,5,42,127,559624592
109,5,21,Ticks_Linear_5,46,1,48,46,560144248
109,5,21,Ticks_Linear_5,47,5,42,127,560154996
109,5,21,Ticks_Linear_5,48,1,48,44,560669552
109,5,21,Ticks_Linear_5,49,5,42,127,560685400
109,5,21,Ticks_Linear_5,50,1,48,38,561174348
109,5,21,Ticks_Linear_5,51,5,42,127,561224940
109,5,21,Ticks_Linear_5,52,1,48,47,561744668
109,5,21,Ticks_Linear_5,53,5,42,127,561754668
109,5,21,Ticks_Linear_5,54,5,42,127,562284780
109,5,21,Ticks_Linear_5,55,1,48,47,562289920
109,5,21,Ticks_Linear_5,56,1,48,43,562790568
109,5,21,Ticks_Linear_5,57,5,42,127,562824612
109,5,21,Ticks_Linear_5,58,1,48,49,563313340
109,5,21,Ticks_Linear_5,59,5,42,127,563365348
109,5,21,Ticks_Linear_5,60,1,48,50,563877216
109,5,21,Ticks_Linear_5,61,5,42,127,563904888
109,5,21,Ticks_Linear_5,62,1,48,43,564404172
109,5,21,Ticks_Linear_5,63,5,42,127,564444504
109,5,21,Ticks_Linear_5,64,1,48,48,564921468
109,5,21,Ticks_Linear_5,65,5,42,127,564985340
109,5,21,Ticks_Linear_5,66,1,48,45,565509264
109,5,21,Ticks_Linear_5,67,5,42,127,565535064
109,5,21,Ticks_Linear_5,68,1,48,46,566048952
109,5,21,Ticks_Linear_5,69,5,42,127,566084864
109,5,21,Ticks_Linear_5,70,1,48,46,566586396
109,5,21,Ticks_Linear_5,71,5,42,127,566634812
109,5,21,Ticks_Linear_5,72,1,48,43,567166820
109,5,21,Ticks_Linear_5,73,5,42,127,567184688
109,5,21,Ticks_Linear_5,74,1,48,48,567671984
109,5,21,Ticks_Linear_5,75,5,42,127,567734560
109,5,21,Ticks_Linear_5,76,1,48,43,568271580
109,5,21,Ticks_Linear_5,77,5,42,127,568294696
109,5,21,Ticks_Linear_5,78,1,48,40,568832948
109,5,21,Ticks_Linear_5,79,5,42,127,568855000
109,5,21,Ticks_Linear_5,80,1,48,40,569397572
109,5,21,Ticks_Linear_5,81,5,42,127,569414912
109,5,21,Ticks_Linear_5,82,5,42,127,569975420
109,5,21,Ticks_Linear_5,83,1,48,38,569990448
109,5,21,Ticks_Linear_5,84,1,48,42,570530192
109,5,21,Ticks_Linear_5,85,5,42,127,570535548
109,5,21,Ticks_Linear_5,86,1,48,39,571095200
109,5,21,Ticks_Linear_5,87,5,42,127,571104748
109,5,21,Ticks_Linear_5,88,5,42,127,571675020
109,5,21,Ticks_Linear_5,89,1,48,35,571685556
109,5,21,Ticks_Linear_5,90,5,42,127,572245484
109,5,21,Ticks_Linear_5,91,1,48,36,572261256
109,5,21,Ticks_Linear_5,92,5,42,127,572814684
109,5,21,Ticks_Linear_5,93,1,48,40,572862892
109,5,21,Ticks_Linear_5,94,5,42,127,573385152
109,5,21,Ticks_Linear_5,95,1,48,42,573406020
109,5,21,Ticks_Linear_5,96,5,42,127,573964784
109,5,21,Ticks_Linear_5,97,1,48,37,574001224
109,5,21,Ticks_Linear_5,98,5,42,127,574545360
109,5,21,Ticks_Linear_5,99,1,48,43,574565780
109,5,21,Ticks_Linear_5,100,5,42,127,575125040
109,5,21,Ticks_Linear_5,101,1,48,40,575130176
109,5,21,Ticks_Linear_5,102,5,42,127,575704420
109,5,21,Ticks_Linear_5,103,1,48,40,575705904
109,5,21,Ticks_Linear_5,104,5,42,127,576285096
109,5,21,Ticks_Linear_5,105,1,48,42,576286060
109,5,21,Ticks_Linear_5,106,1,48,39,576875032
109,5,21,Ticks_Linear_5,107,5,42,127,576876372
109,5,21,Ticks_Linear_5,108,1,48,40,577441780
109,5,21,Ticks_Linear_5,109,5,42,127,577464892
109,5,21,Ticks_Linear_5,110,1,48,41,578040212
109,5,21,Ticks_Linear_5,111,5,42,127,578054408
109,5,21,Ticks_Linear_5,112,1,48,40,578643580
109,5,21,Ticks_Linear_5,113,5,42,127,578645244
109,5,21,Ticks_Linear_5,114,1,48,39,579223016
109,5,21,Ticks_Linear_5,115,5,42,127,579235332
109,5,21,Ticks_Linear_5,116,1,48,41,579808080
109,5,21,Ticks_Linear_5,117,5,42,127,579835404
109,5,21,Ticks_Linear_5,118,1,48,40,580424256
109,5,21,Ticks_Linear_5,119,5,42,127,580435304
109,5,21,Ticks_Linear_5,120,1,48,40,581007756
109,5,21,Ticks_Linear_5,121,5,42,127,581035276
109,5,21,Ticks_Linear_5,122,1,48,35,581598140
109,5,21,Ticks_Linear_5,123,5,42,127,581634528
109,5,21,Ticks_Linear_5,124,1,48,42,582212512
109,5,21,Ticks_Linear_5,125,5,42,127,582234428
109,5,21,Ticks_Linear_5,126,1,48,44,582830688
109,5,21,Ticks_Linear_5,127,5,42,127,582844888
109,5,21,Ticks_Linear_5,128,5,42,127,583455152
109,5,21,Ticks_Linear_5,129,1,48,44,583456192
109,5,21,Ticks_Linear_5,130,5,42,127,584065532
109,5,21,Ticks_Linear_5,131,1,48,42,584073456
109,5,21,Ticks_Linear_5,132,1,48,44,584668680
109,5,21,Ticks_Linear_5,133,5,42,127,584674564
109,5,21,Ticks_Linear_5,134,1,48,44,585261856
109,5,21,Ticks_Linear_5,135,5,42,127,585284972
109,5,21,Ticks_Linear_5,136,5,42,127,585904496
109,5,21,Ticks_Linear_5,137,1,48,34,585921544
109,5,21,Ticks_Linear_5,138,1,48,48,586502508
109,5,21,Ticks_Linear_5,139,5,42,127,586525008
109,5,21,Ticks_Linear_5,140,5,42,127,587144536
109,5,21,Ticks_Linear_5,141,1,48,42,587146548
109,5,21,Ticks_Linear_5,142,1,48,41,587760580
109,5,21,Ticks_Linear_5,143,5,42,127,587765344
109,5,21,Ticks_Linear_5,144,1,48,46,588354200
109,5,21,Ticks_Linear_5,145,5,42,127,588384568
109,5,21,Ticks_Linear_5,146,5,42,127,589015328
109,5,21,Ticks_Linear_5,147,1,48,38,589018892
109,5,21,Ticks_Linear_5,148,1,48,35,589623744
109,5,21,Ticks_Linear_5,149,5,42,127,589645196
109,5,21,Ticks_Linear_5,150,1,48,43,590235848
109,5,21,Ticks_Linear_5,151,5,42,127,590274976
109,5,21,Ticks_Linear_5,152,1,48,46,590903052
109,5,21,Ticks_Linear_5,153,5,42,127,590904708
109,5,21,Ticks_Linear_5,154,1,48,45,591529648
109,5,21,Ticks_Linear_5,155,5,42,127,591534412
109,5,21,Ticks_Linear_5,156,5,42,127,592174332
109,5,21,Ticks_Linear_5,157,1,48,38,592186960
109,5,21,Ticks_Linear_5,158,1,48,46,592800016
109,5,21,Ticks_Linear_5,159,5,42,127,592814436
109,5,21,Ticks_Linear_5,160,5,42,127,593454432
109,5,21,Ticks_Linear_5,161,1,48,42,593467516
109,5,21,Ticks_Linear_5,162,1,48,48,594063872
109,5,21,Ticks_Linear_5,163,5,42,127,594094316
109,5,21,Ticks_Linear_5,164,1,48,43,594687904
109,5,21,Ticks_Linear_5,165,5,42,127,594734452
109,5,21,Ticks_Linear_5,166,5,42,127,595385056
109,5,21,Ticks_Linear_5,167,1,48,40,595396868
109,5,21,Ticks_Linear_5,168,1,48,44,596018632
109,5,21,Ticks_Linear_5,169,5,42,127,596034848
109,5,21,Ticks_Linear_5,170,1,48,45,596663988
109,5,21,Ticks_Linear_5,171,5,42,127,596685144
109,5,21,Ticks_Linear_5,172,5,42,127,597335400
109,5,21,Ticks_Linear_5,173,1,48,32,597345936
109,5,21,Ticks_Linear_5,174,5,42,127,597984576
109,5,21,Ticks_Linear_5,175,1,48,37,598006972
109,5,21,Ticks_Linear_5,176,1,48,38,598621516
109,5,21,Ticks_Linear_5,177,5,42,127,598645076
109,5,21,Ticks_Linear_5,178,1,48,40,599268376
109,5,21,Ticks_Linear_5,179,5,42,127,599304684
109,5,21,Ticks_Linear_5,180,1,48,51,599862836
109,5,21,Ticks_Linear_5,181,5,42,127,599965152
109,5,21,Ticks_Linear_5,182,1,48,38,600570660
109,5,21,Ticks_Linear_5,183,5,42,127,600624476
109,5,21,Ticks_Linear_5,184,1,48,42,601224860
109,5,21,Ticks_Linear_5,185,5,42,127,601285032
109,5,21,Ticks_Linear_5,186,1,48,42,601862384
109,5,21,Ticks_Linear_5,187,5,42,127,601954900
109,5,21,Ticks_Linear_5,188,1,48,42,602513504
109,5,21,Ticks_Linear_5,189,5,42,127,602625280
109,5,21,Ticks_Linear_5,190,1,48,42,603210172
109,5,21,Ticks_Linear_5,191,5,42,127,603295212
109,5,21,Ticks_Linear_5,192,1,48,44,603839348
109,5,21,Ticks_Linear_5,193,5,42,127,603964916
109,5,21,Ticks_Linear_5,194,1,48,47,604493200
109,5,21,Ticks_Linear_5,195,5,42,127,604634460
109,5,21,Ticks_Linear_5,196,1,48,43,605198036
109,5,21,Ticks_Linear_5,197,5,42,127,605314516
109,5,21,Ticks_Linear_5,198,1,48,42,605893724
109,5,21,Ticks_Linear_5,199,5,42,127,605995316
109,5,21,Ticks_Linear_5,200,1,48,41,606633460
109,5,21,Ticks_Linear_5,201,5,42,127,606675208
109,5,21,Ticks_Linear_5,202,1,48,45,607329684
109,5,21,Ticks_Linear_5,203,5,42,127,607355260
109,5,21,Ticks_Linear_5,204,1,48,38,608024944
109,5,21,Ticks_Linear_5,205,5,42,127,608035164
109,5,21,Ticks_Linear_5,206,1,48,42,608688116
109,5,21,Ticks_Linear_5,207,5,42,127,608725228
109,5,21,Ticks_Linear_5,208,1,48,44,609405996
109,5,21,Ticks_Linear_5,209,5,42,127,609414792
109,5,21,Ticks_Linear_5,210,1,48,45,610074512
109,5,21,Ticks_Linear_5,211,5,42,127,610104808
109,5,21,Ticks_Linear_5,212,1,48,42,610770856
109,5,21,Ticks_Linear_5,213,5,42,127,610795020
109,5,21,Ticks_Linear_5,214,5,42,127,611485112
109,5,21,Ticks_Linear_5,215,1,48,40,611487708
109,5,21,Ticks_Linear_5,216,1,48,44,612178004
109,5,21,Ticks_Linear_5,217,5,42,127,612184484
109,5,21,Ticks_Linear_5,218,5,42,127,612884984
109,5,21,Ticks_Linear_5,219,1,48,42,612889680
109,5,21,Ticks_Linear_5,220,5,42,127,613585232
109,5,21,Ticks_Linear_5,221,1,48,42,613598392
109,5,21,Ticks_Linear_5,222,5,42,127,614284756
109,5,21,Ticks_Linear_5,223,1,48,46,614299036
109,5,21,Ticks_Linear_5,224,5,42,127,614985180
109,5,21,Ticks_Linear_5,225,1,48,31,615055028
109,5,21,Ticks_Linear_5,226,1,48,43,615620296
109,5,21,Ticks_Linear_5,227,5,42,127,615694584
109,5,21,Ticks_Linear_5,228,1,48,40,616308744
109,5,21,Ticks_Linear_5,229,5,42,127,616405300
109,5,21,Ticks_Linear_5,230,1,48,32,617057992
109,5,21,Ticks_Linear_5,231,5,42,127,617115024
109,5,21,Ticks_Linear_5,232,5,42,127,617824740
109,5,21,Ticks_Linear_5,233,1,48,40,617867476
109,5,21,Ticks_Linear_5,234,5,42,127,618535492
109,5,21,Ticks_Linear_5,235,1,48,40,618543036
109,5,21,Ticks_Linear_5,236,1,48,45,619227236
109,5,21,Ticks_Linear_5,237,5,42,127,619255156
109,5,21,Ticks_Linear_5,238,1,48,42,619922484
109,5,21,Ticks_Linear_5,239,5,42,127,619975100
109,5,21,Ticks_Linear_5,240,1,48,46,620647996
109,5,21,Ticks_Linear_5,241,5,42,127,620694844
109,5,21,Ticks_Linear_5,242,1,48,28,621397396
109,5,21,Ticks_Linear_5,243,5,42,127,621414664
109,5,21,Ticks_Linear_5,244,1,48,39,622126504
109,5,21,Ticks_Linear_5,245,5,42,127,622134556
109,5,21,Ticks_Linear_5,246,1,48,38,622830668
109,5,21,Ticks_Linear_5,247,5,42,127,622864784
109,5,21,Ticks_Linear_5,248,1,48,39,623561612
109,5,21,Ticks_Linear_5,249,5,42,127,623594764
109,5,21,Ticks_Linear_5,250,1,48,39,624292292
109,5,21,Ticks_Linear_5,251,5,42,127,624324916
109,5,21,Ticks_Linear_5,252,1,48,41,625016460
109,5,21,Ticks_Linear_5,253,5,42,127,625054992
109,5,21,Ticks_Linear_5,254,1,48,40,625747808
109,5,21,Ticks_Linear_5,255,5,42,127,625785368
109,5,21,Ticks_Linear_5,256,1,48,41,626504328
109,5,21,Ticks_Linear_5,257,5,42,127,626524584
109,5,21,Ticks_Linear_5,258,1,48,41,627165260
109,5,21,Ticks_Linear_5,259,5,42,127,627264832
109,5,21,Ticks_Linear_5,260,1,48,29,627983732
109,5,21,Ticks_Linear_5,261,5,42,127,628005408
109,5,21,Ticks_Linear_5,262,1,48,40,628732740
109,5,21,Ticks_Linear_5,263,5,42,127,628744624
109,5,21,Ticks_Linear_5,264,1,48,39,629444236
109,5,21,Ticks_Linear_5,265,5,42,127,629484888
109,5,21,Ticks_Linear_5,266,1,48,38,630163304
109,5,21,Ticks_Linear_5,267,5,42,127,630234560
109,5,21,Ticks_Linear_5,268,1,48,35,630899896
109,5,21,Ticks_Linear_5,269,5,42,127,630985156
109,5,21,Ticks_Linear_5,270,5,42,127,631734640
109,5,21,Ticks_Linear_5,271,1,48,42,631845176
109,5,21,Ticks_Linear_5,272,5,42,127,632485312
109,5,21,Ticks_Linear_5,273,5,42,127,633234732
109,5,21,Ticks_Linear_5,274,5,42,127,633994564
109,5,21,Ticks_Linear_5,275,1,48,37,634007192
109,5,21,Ticks_Linear_5,276,1,48,35,634744512
109,5,21,Ticks_Linear_5,277,5,42,127,634754512
109,5,21,Ticks_Linear_5,278,1,48,33,635463656
109,5,21,Ticks_Linear_5,279,5,42,127,635515368
109,5,21,Ticks_Linear_5,280,5,42,127,636275256
109,5,21,Ticks_Linear_5,281,1,48,29,636279496
109,5,21,Ticks_Linear_5,282,1,48,35,637002284
109,5,21,Ticks_Linear_5,283,5,42,127,637035132
109,5,21,Ticks_Linear_5,284,1,48,33,637751464
109,5,21,Ticks_Linear_5,285,5,42,127,637804904
109,5,21,Ticks_Linear_5,286,1,48,34,638568492
109,5,21,Ticks_Linear_5,287,5,42,127,638574896
109,5,21,Ticks_Linear_5,288,5,42,127,639345192
109,5,21,Ticks_Linear_5,289,1,48,39,639354308
109,5,21,Ticks_Linear_5,290,1,48,25,639429168
109,5,21,Ticks_Linear_5,291,5,42,127,640115236
109,5,21,Ticks_Linear_5,292,1,48,33,640132520
109,5,21,Ticks_Linear_5,293,5,42,127,640885232
109,5,21,Ticks_Linear_5,294,1,48,30,641571848
109,5,21,Ticks_Linear_5,295,5,42,127,641665496
109,5,21,Ticks_Linear_5,296,1,48,29,642335180
109,5,21,Ticks_Linear_5,297,5,42,127,642444616
109,5,21,Ticks_Linear_5,298,1,48,31,643137972
109,5,21,Ticks_Linear_5,299,5,42,127,643224956
109,5,21,Ticks_Linear_5,300,1,48,21,643955444
109,5,21,Ticks_Linear_5,301,5,42,127,644005208
109,5,21,Ticks_Linear_5,302,1,48,30,644757188
109,5,21,Ticks_Linear_5,303,5,42,127,644784488
109,5,21,Ticks_Linear_5,304,1,48,25,645524412
109,5,21,Ticks_Linear_5,305,5,42,127,645575076
109,5,21,Ticks_Linear_5,306,1,48,30,646317992
109,5,21,Ticks_Linear_5,307,5,42,127,646364392
109,5,21,Ticks_Linear_5,308,1,48,19,646391180
109,5,21,Ticks_Linear_5,309,1,48,33,647102260
109,5,21,Ticks_Linear_5,310,5,42,127,647155128
109,5,21,Ticks_Linear_5,311,1,48,24,647907460
109,5,21,Ticks_Linear_5,312,5,42,127,647944444
109,5,21,Ticks_Linear_5,313,1,48,21,648706980
109,5,21,Ticks_Linear_5,314,5,42,127,648735180
109,5,21,Ticks_Linear_5,315,1,48,19,649470160
109,5,21,Ticks_Linear_5,316,5,42,127,649534976
109,5,21,Ticks_Linear_5,317,1,48,25,650280884
109,5,21,Ticks_Linear_5,318,5,42,127,650334480
109,5,21,Ticks_Linear_5,319,5,42,127,651135480
109,5,21,Ticks_Linear_5,320,1,48,14,651147064
109,5,21,Ticks_Linear_5,321,1,48,24,651920628
109,5,21,Ticks_Linear_5,322,5,42,127,651935196
109,5,21,Ticks_Linear_5,323,1,48,28,652730384
109,5,21,Ticks_Linear_5,324,5,42,127,652734920
109,5,21,Ticks_Linear_5,325,1,48,22,653538648
109,5,21,Ticks_Linear_5,326,5,42,127,653544904
109,5,21,Ticks_Linear_5,327,1,48,24,654335476
109,5,21,Ticks_Linear_5,328,5,42,127,654354912
109,5,21,Ticks_Linear_5,329,1,48,24,655156164
109,5,21,Ticks_Linear_5,330,5,42,127,655164896
109,5,21,Ticks_Linear_5,331,1,48,31,655960084
109,5,21,Ticks_Linear_5,332,5,42,127,655974728
109,5,21,Ticks_Linear_5,333,1,48,28,656758752
109,5,21,Ticks_Linear_5,334,5,42,127,656784932
109,5,21,Ticks_Linear_5,0,9999,9999,9999,547602500
109,5,21,Ticks_Linear_5,1,9999,9999,9999,548082752
109,5,21,Ticks_Linear_5,2,9999,9999,9999,548563052
109,5,21,Ticks_Linear_5,3,9999,9999,9999,549042252
109,5,21,Ticks_Linear_5,4,9999,9999,9999,549522504
109,5,21,Ticks_Linear_5,5,9999,9999,9999,550012984
109,5,21,Ticks_Linear_5,6,9999,9999,9999,550502500
109,5,21,Ticks_Linear_5,7,9999,9999,9999,550992988
109,5,21,Ticks_Linear_5,8,9999,9999,9999,551482428
109,5,21,Ticks_Linear_5,9,9999,9999,9999,551972988
109,5,21,Ticks_Linear_5,10,9999,9999,9999,552472692
109,5,21,Ticks_Linear_5,11,9999,9999,9999,552972388
109,5,21,Ticks_Linear_5,12,9999,9999,9999,553472088
109,5,21,Ticks_Linear_5,13,9999,9999,9999,553972836
109,5,21,Ticks_Linear_5,14,9999,9999,9999,554472512
109,5,21,Ticks_Linear_5,15,9999,9999,9999,554982472
109,5,21,Ticks_Linear_5,16,9999,9999,9999,555492428
109,5,21,Ticks_Linear_5,17,9999,9999,9999,556002388
109,5,21,Ticks_Linear_5,18,9999,9999,9999,556512344
109,5,21,Ticks_Linear_5,19,9999,9999,9999,557022308
109,5,21,Ticks_Linear_5,20,9999,9999,9999,557542456
109,5,21,Ticks_Linear_5,21,9999,9999,9999,558062692
109,5,21,Ticks_Linear_5,22,9999,9999,9999,558582908
109,5,21,Ticks_Linear_5,23,9999,9999,9999,559103052
109,5,21,Ticks_Linear_5,24,9999,9999,9999,559622220
109,5,21,Ticks_Linear_5,25,9999,9999,9999,560152700
109,5,21,Ticks_Linear_5,26,9999,9999,9999,560683100
109,5,21,Ticks_Linear_5,27,9999,9999,9999,561222716
109,5,21,Ticks_Linear_5,28,9999,9999,9999,561752148
109,5,21,Ticks_Linear_5,29,9999,9999,9999,562282556
109,5,21,Ticks_Linear_5,30,9999,9999,9999,562822240
109,5,21,Ticks_Linear_5,31,9999,9999,9999,563362904
109,5,21,Ticks_Linear_5,32,9999,9999,9999,563902592
109,5,21,Ticks_Linear_5,33,9999,9999,9999,564442208
109,5,21,Ticks_Linear_5,34,9999,9999,9999,564982892
109,5,21,Ticks_Linear_5,35,9999,9999,9999,565532764
109,5,21,Ticks_Linear_5,36,9999,9999,9999,566082640
109,5,21,Ticks_Linear_5,37,9999,9999,9999,566632516
109,5,21,Ticks_Linear_5,38,9999,9999,9999,567182464
109,5,21,Ticks_Linear_5,39,9999,9999,9999,567732336
109,5,21,Ticks_Linear_5,40,9999,9999,9999,568292468
109,5,21,Ticks_Linear_5,41,9999,9999,9999,568852556
109,5,21,Ticks_Linear_5,42,9999,9999,9999,569412688
109,5,21,Ticks_Linear_5,43,9999,9999,9999,569972828
109,5,21,Ticks_Linear_5,44,9999,9999,9999,570532952
109,5,21,Ticks_Linear_5,45,9999,9999,9999,571102300
109,5,21,Ticks_Linear_5,46,9999,9999,9999,571672648
109,5,21,Ticks_Linear_5,47,9999,9999,9999,572243040
109,5,21,Ticks_Linear_5,48,9999,9999,9999,572812388
109,5,21,Ticks_Linear_5,49,9999,9999,9999,573382780
109,5,21,Ticks_Linear_5,50,9999,9999,9999,573962336
109,5,21,Ticks_Linear_5,51,9999,9999,9999,574542912
109,5,21,Ticks_Linear_5,52,9999,9999,9999,575122516
109,5,21,Ticks_Linear_5,53,9999,9999,9999,575702120
109,5,21,Ticks_Linear_5,54,9999,9999,9999,576282720
109,5,21,Ticks_Linear_5,55,9999,9999,9999,576872512
109,5,21,Ticks_Linear_5,56,9999,9999,9999,577462372
109,5,21,Ticks_Linear_5,57,9999,9999,9999,578052184
109,5,21,Ticks_Linear_5,58,9999,9999,9999,578643044
109,5,21,Ticks_Linear_5,59,9999,9999,9999,579232884
109,5,21,Ticks_Linear_5,60,9999,9999,9999,579832960
109,5,21,Ticks_Linear_5,61,9999,9999,9999,580433008
109,5,21,Ticks_Linear_5,62,9999,9999,9999,581033056
109,5,21,Ticks_Linear_5,63,9999,9999,9999,581632080
109,5,21,Ticks_Linear_5,64,9999,9999,9999,582232132
109,5,21,Ticks_Linear_5,65,9999,9999,9999,582842440
109,5,21,Ticks_Linear_5,66,9999,9999,9999,583452776
109,5,21,Ticks_Linear_5,67,9999,9999,9999,584063084
109,5,21,Ticks_Linear_5,68,9999,9999,9999,584672340
109,5,21,Ticks_Linear_5,69,9999,9999,9999,585282672
109,5,21,Ticks_Linear_5,70,9999,9999,9999,585902200
109,5,21,Ticks_Linear_5,71,9999,9999,9999,586522708
109,5,21,Ticks_Linear_5,72,9999,9999,9999,587142236
109,5,21,Ticks_Linear_5,73,9999,9999,9999,587762748
109,5,21,Ticks_Linear_5,74,9999,9999,9999,588382268
109,5,21,Ticks_Linear_5,75,9999,9999,9999,589013100
109,5,21,Ticks_Linear_5,76,9999,9999,9999,589642824
109,5,21,Ticks_Linear_5,77,9999,9999,9999,590272604
109,5,21,Ticks_Linear_5,78,9999,9999,9999,590902340
109,5,21,Ticks_Linear_5,79,9999,9999,9999,591532112
109,5,21,Ticks_Linear_5,80,9999,9999,9999,592172108
109,5,21,Ticks_Linear_5,81,9999,9999,9999,592812140
109,5,21,Ticks_Linear_5,82,9999,9999,9999,593452136
109,5,21,Ticks_Linear_5,83,9999,9999,9999,594092092
109,5,21,Ticks_Linear_5,84,9999,9999,9999,594732156
109,5,21,Ticks_Linear_5,85,9999,9999,9999,595382384
109,5,21,Ticks_Linear_5,86,9999,9999,9999,596032624
109,5,21,Ticks_Linear_5,87,9999,9999,9999,596682848
109,5,21,Ticks_Linear_5,88,9999,9999,9999,597333104
109,5,21,Ticks_Linear_5,89,9999,9999,9999,597982276
109,5,21,Ticks_Linear_5,90,9999,9999,9999,598642776
109,5,21,Ticks_Linear_5,91,9999,9999,9999,599302240
109,5,21,Ticks_Linear_5,92,9999,9999,9999,599962704
109,5,21,Ticks_Linear_5,93,9999,9999,9999,600622180
109,5,21,Ticks_Linear_5,94,9999,9999,9999,601282660
109,5,21,Ticks_Linear_5,95,9999,9999,9999,601952380
109,5,21,Ticks_Linear_5,96,9999,9999,9999,602623052
109,5,21,Ticks_Linear_5,97,9999,9999,9999,603292764
109,5,21,Ticks_Linear_5,98,9999,9999,9999,603962468
109,5,21,Ticks_Linear_5,99,9999,9999,9999,604632160
109,5,21,Ticks_Linear_5,100,9999,9999,9999,605312068
109,5,21,Ticks_Linear_5,101,9999,9999,9999,605993016
109,5,21,Ticks_Linear_5,102,9999,9999,9999,606672984
109,5,21,Ticks_Linear_5,103,9999,9999,9999,607352888
109,5,21,Ticks_Linear_5,104,9999,9999,9999,608032868
109,5,21,Ticks_Linear_5,105,9999,9999,9999,608723004
109,5,21,Ticks_Linear_5,106,9999,9999,9999,609412196
109,5,21,Ticks_Linear_5,107,9999,9999,9999,610102360
109,5,21,Ticks_Linear_5,108,9999,9999,9999,610792572
109,5,21,Ticks_Linear_5,109,9999,9999,9999,611482740
109,5,21,Ticks_Linear_5,110,9999,9999,9999,612182112
109,5,21,Ticks_Linear_5,111,9999,9999,9999,612882540
109,5,21,Ticks_Linear_5,112,9999,9999,9999,613582936
109,5,21,Ticks_Linear_5,113,9999,9999,9999,614282308
109,5,21,Ticks_Linear_5,114,9999,9999,9999,614982732
109,5,21,Ticks_Linear_5,115,9999,9999,9999,615692360
109,5,21,Ticks_Linear_5,116,9999,9999,9999,616403000
109,5,21,Ticks_Linear_5,117,9999,9999,9999,617112652
109,5,21,Ticks_Linear_5,118,9999,9999,9999,617822292
109,5,21,Ticks_Linear_5,119,9999,9999,9999,618532972
109,5,21,Ticks_Linear_5,120,9999,9999,9999,619252856
109,5,21,Ticks_Linear_5,121,9999,9999,9999,619972728
109,5,21,Ticks_Linear_5,122,9999,9999,9999,620692544
109,5,21,Ticks_Linear_5,123,9999,9999,9999,621412440
109,5,21,Ticks_Linear_5,124,9999,9999,9999,622132332
109,5,21,Ticks_Linear_5,125,9999,9999,9999,622862412
109,5,21,Ticks_Linear_5,126,9999,9999,9999,623592540
109,5,21,Ticks_Linear_5,127,9999,9999,9999,624322616
109,5,21,Ticks_Linear_5,128,9999,9999,9999,625052768
109,5,21,Ticks_Linear_5,129,9999,9999,9999,625782848
109,5,21,Ticks_Linear_5,130,9999,9999,9999,626522212
109,5,21,Ticks_Linear_5,131,9999,9999,9999,627262532
109,5,21,Ticks_Linear_5,132,9999,9999,9999,628002888
109,5,21,Ticks_Linear_5,133,9999,9999,9999,628742252
109,5,21,Ticks_Linear_5,134,9999,9999,9999,629482588
109,5,21,Ticks_Linear_5,135,9999,9999,9999,630232188
109,5,21,Ticks_Linear_5,136,9999,9999,9999,630982712
109,5,21,Ticks_Linear_5,137,9999,9999,9999,631732340
109,5,21,Ticks_Linear_5,138,9999,9999,9999,632482936
109,5,21,Ticks_Linear_5,139,9999,9999,9999,633232508
109,5,21,Ticks_Linear_5,140,9999,9999,9999,633992264
109,5,21,Ticks_Linear_5,141,9999,9999,9999,634752064
109,5,21,Ticks_Linear_5,142,9999,9999,9999,635512920
109,5,21,Ticks_Linear_5,143,9999,9999,9999,636272732
109,5,21,Ticks_Linear_5,144,9999,9999,9999,637032536
109,5,21,Ticks_Linear_5,145,9999,9999,9999,637802604
109,5,21,Ticks_Linear_5,146,9999,9999,9999,638572596
109,5,21,Ticks_Linear_5,147,9999,9999,9999,639342672
109,5,21,Ticks_Linear_5,148,9999,9999,9999,640112716
109,5,21,Ticks_Linear_5,149,9999,9999,9999,640882784
109,5,21,Ticks_Linear_5,150,9999,9999,9999,641663052
109,5,21,Ticks_Linear_5,151,9999,9999,9999,642442316
109,5,21,Ticks_Linear_5,152,9999,9999,9999,643222584
109,5,21,Ticks_Linear_5,153,9999,9999,9999,644002908
109,5,21,Ticks_Linear_5,154,9999,9999,9999,644782188
109,5,21,Ticks_Linear_5,155,9999,9999,9999,645572700
109,5,21,Ticks_Linear_5,156,9999,9999,9999,646362168
109,5,21,Ticks_Linear_5,157,9999,9999,9999,647152756
109,5,21,Ticks_Linear_5,158,9999,9999,9999,647942220
109,5,21,Ticks_Linear_5,159,9999,9999,9999,648732732
109,5,21,Ticks_Linear_5,160,9999,9999,9999,649532532
109,5,21,Ticks_Linear_5,161,9999,9999,9999,650332256
109,5,21,Ticks_Linear_5,162,9999,9999,9999,651133032
109,5,21,Ticks_Linear_5,163,9999,9999,9999,651932748
109,5,21,Ticks_Linear_5,164,9999,9999,9999,652732472
109,5,21,Ticks_Linear_5,165,9999,9999,9999,653542456
109,5,21,Ticks_Linear_5,166,9999,9999,9999,654352464
109,5,21,Ticks_Linear_5,167,9999,9999,9999,655162448
109,5,21,Ticks_Linear_5,168,9999,9999,9999,655972432
109,5,21,Ticks_Linear_5,169,9999,9999,9999,656782412
109,6,20,Ticks_Linear_8,0,5,42,127,666767848
109,6,20,Ticks_Linear_8,1,5,42,127,667587964
109,6,20,Ticks_Linear_8,2,5,42,127,668408180
109,6,20,Ticks_Linear_8,3,5,42,127,669228296
109,6,20,Ticks_Linear_8,4,5,42,127,670047884
109,6,20,Ticks_Linear_8,5,1,48,36,670128444
109,6,20,Ticks_Linear_8,6,1,48,37,670850028
109,6,20,Ticks_Linear_8,7,5,42,127,670857860
109,6,20,Ticks_Linear_8,8,1,48,39,671606024
109,6,20,Ticks_Linear_8,9,5,42,127,671667768
109,6,20,Ticks_Linear_8,10,1,48,36,672388896
109,6,20,Ticks_Linear_8,11,5,42,127,672477752
109,6,20,Ticks_Linear_8,12,1,48,37,673185612
109,6,20,Ticks_Linear_8,13,5,42,127,673287820
109,6,20,Ticks_Linear_8,14,1,48,28,674010732
109,6,20,Ticks_Linear_8,15,5,42,127,674097744
109,6,20,Ticks_Linear_8,16,1,48,34,674844100
109,6,20,Ticks_Linear_8,17,5,42,127,674898216
109,6,20,Ticks_Linear_8,18,1,48,26,675683440
109,6,20,Ticks_Linear_8,19,5,42,127,675698016
109,6,20,Ticks_Linear_8,20,5,42,127,676497748
109,6,20,Ticks_Linear_8,21,1,48,33,676500940
109,6,20,Ticks_Linear_8,22,5,42,127,677297692
109,6,20,Ticks_Linear_8,23,1,48,32,677314960
109,6,20,Ticks_Linear_8,24,1,48,32,678065164
109,6,20,Ticks_Linear_8,25,5,42,127,678098384
109,6,20,Ticks_Linear_8,26,1,48,25,678831416
109,6,20,Ticks_Linear_8,27,5,42,127,678887776
109,6,20,Ticks_Linear_8,28,1,48,35,679641844
109,6,20,Ticks_Linear_8,29,5,42,127,679678460
109,6,20,Ticks_Linear_8,30,1,48,26,680465660
109,6,20,Ticks_Linear_8,31,5,42,127,680467776
109,6,20,Ticks_Linear_8,32,5,42,127,681258516
109,6,20,Ticks_Linear_8,33,1,48,30,681260004
109,6,20,Ticks_Linear_8,34,5,42,127,682047832
109,6,20,Ticks_Linear_8,35,1,48,23,682069600
109,6,20,Ticks_Linear_8,36,1,48,30,682822720
109,6,20,Ticks_Linear_8,37,5,42,127,682828080
109,6,20,Ticks_Linear_8,38,5,42,127,683608412
109,6,20,Ticks_Linear_8,39,1,48,19,683698704
109,6,20,Ticks_Linear_8,40,5,42,127,684397876
109,6,20,Ticks_Linear_8,41,1,48,29,684400468
109,6,20,Ticks_Linear_8,42,1,48,26,685150744
109,6,20,Ticks_Linear_8,43,5,42,127,685178272
109,6,20,Ticks_Linear_8,44,1,48,35,685876636
109,6,20,Ticks_Linear_8,45,5,42,127,685957404
109,6,20,Ticks_Linear_8,46,5,42,127,686727404
109,6,20,Ticks_Linear_8,47,1,48,24,686743096
109,6,20,Ticks_Linear_8,48,1,48,43,687496944
109,6,20,Ticks_Linear_8,49,5,42,127,687498584
109,6,20,Ticks_Linear_8,50,5,42,127,688267688
109,6,20,Ticks_Linear_8,51,1,48,38,688281888
109,6,20,Ticks_Linear_8,52,5,42,127,689037608
109,6,20,Ticks_Linear_8,53,1,48,39,689058252
109,6,20,Ticks_Linear_8,54,5,42,127,689807676
109,6,20,Ticks_Linear_8,55,1,48,27,689873996
109,6,20,Ticks_Linear_8,56,5,42,127,690567484
109,6,20,Ticks_Linear_8,57,1,48,39,690583928
109,6,20,Ticks_Linear_8,58,5,42,127,691328340
109,6,20,Ticks_Linear_8,59,1,48,35,691389576
109,6,20,Ticks_Linear_8,60,5,42,127,692088372
109,6,20,Ticks_Linear_8,61,1,48,37,692103020
109,6,20,Ticks_Linear_8,62,1,48,34,692828444
109,6,20,Ticks_Linear_8,63,5,42,127,692847876
109,6,20,Ticks_Linear_8,64,5,42,127,693607768
109,6,20,Ticks_Linear_8,65,1,48,32,693615592
109,6,20,Ticks_Linear_8,66,5,42,127,694358440
109,6,20,Ticks_Linear_8,67,1,48,34,694405820
109,6,20,Ticks_Linear_8,68,1,48,40,695078808
109,6,20,Ticks_Linear_8,69,5,42,127,695107908
109,6,20,Ticks_Linear_8,70,1,48,36,695842064
109,6,20,Ticks_Linear_8,71,5,42,127,695857384
109,6,20,Ticks_Linear_8,72,5,42,127,696608284
109,6,20,Ticks_Linear_8,73,1,48,36,696627216
109,6,20,Ticks_Linear_8,74,5,42,127,697357688
109,6,20,Ticks_Linear_8,75,1,48,31,697383640
109,6,20,Ticks_Linear_8,76,5,42,127,698098248
109,6,20,Ticks_Linear_8,77,1,48,39,698157316
109,6,20,Ticks_Linear_8,78,5,42,127,698838336
109,6,20,Ticks_Linear_8,79,1,48,39,698898848
109,6,20,Ticks_Linear_8,80,5,42,127,699577700
109,6,20,Ticks_Linear_8,81,1,48,36,699636564
109,6,20,Ticks_Linear_8,82,5,42,127,700318112
109,6,20,Ticks_Linear_8,83,1,48,28,700353428
109,6,20,Ticks_Linear_8,84,5,42,127,701058452
109,6,20,Ticks_Linear_8,85,1,48,34,701071304
109,6,20,Ticks_Linear_8,86,5,42,127,701797820
109,6,20,Ticks_Linear_8,87,1,48,29,701823920
109,6,20,Ticks_Linear_8,88,1,48,38,702472280
109,6,20,Ticks_Linear_8,89,5,42,127,702527816
109,6,20,Ticks_Linear_8,90,1,48,36,703218612
109,6,20,Ticks_Linear_8,91,5,42,127,703258116
109,6,20,Ticks_Linear_8,92,1,48,24,703970680
109,6,20,Ticks_Linear_8,93,5,42,127,703988268
109,6,20,Ticks_Linear_8,94,5,42,127,704718180
109,6,20,Ticks_Linear_8,95,1,48,36,704720624
109,6,20,Ticks_Linear_8,96,5,42,127,705438520
109,6,20,Ticks_Linear_8,97,1,48,35,705503192
109,6,20,Ticks_Linear_8,98,1,48,35,706134844
109,6,20,Ticks_Linear_8,99,5,42,127,706157960
109,6,20,Ticks_Linear_8,100,5,42,127,706877712
109,6,20,Ticks_Linear_8,101,5,42,127,707597552
109,6,20,Ticks_Linear_8,102,1,48,41,708301812
109,6,20,Ticks_Linear_8,103,5,42,127,708317440
109,6,20,Ticks_Linear_8,104,1,48,39,708988316
109,6,20,Ticks_Linear_8,105,5,42,127,709028340
109,6,20,Ticks_Linear_8,106,1,48,39,709715384
109,6,20,Ticks_Linear_8,107,5,42,127,709737976
109,6,20,Ticks_Linear_8,108,1,48,40,710442772
109,6,20,Ticks_Linear_8,109,5,42,127,710447464
109,6,20,Ticks_Linear_8,110,5,42,127,711158148
109,6,20,Ticks_Linear_8,111,1,48,36,711199612
109,6,20,Ticks_Linear_8,112,5,42,127,711867760
109,6,20,Ticks_Linear_8,113,1,48,28,711898292
109,6,20,Ticks_Linear_8,114,5,42,127,712568256
109,6,20,Ticks_Linear_8,115,1,48,32,712581484
109,6,20,Ticks_Linear_8,116,5,42,127,713267708
109,6,20,Ticks_Linear_8,117,1,48,33,713302948
109,6,20,Ticks_Linear_8,118,5,42,127,713968052
109,6,20,Ticks_Linear_8,119,1,48,38,713988624
109,6,20,Ticks_Linear_8,120,5,42,127,714668376
109,6,20,Ticks_Linear_8,121,1,48,31,714691112
109,6,20,Ticks_Linear_8,122,5,42,127,715367900
109,6,20,Ticks_Linear_8,123,1,48,35,715402620
109,6,20,Ticks_Linear_8,124,5,42,127,716057988
109,6,20,Ticks_Linear_8,125,1,48,34,716104532
109,6,20,Ticks_Linear_8,126,1,48,40,716739168
109,6,20,Ticks_Linear_8,127,5,42,127,716748120
109,6,20,Ticks_Linear_8,128,1,48,40,717432696
109,6,20,Ticks_Linear_8,129,5,42,127,717438288
109,6,20,Ticks_Linear_8,130,1,48,19,717523240
109,6,20,Ticks_Linear_8,131,5,42,127,718127460
109,6,20,Ticks_Linear_8,132,1,48,29,718141432
109,6,20,Ticks_Linear_8,133,5,42,127,718817672
109,6,20,Ticks_Linear_8,134,1,48,27,718853088
109,6,20,Ticks_Linear_8,135,5,42,127,719497580
109,6,20,Ticks_Linear_8,136,1,48,35,719519344
109,6,20,Ticks_Linear_8,137,5,42,127,720177484
109,6,20,Ticks_Linear_8,138,1,48,37,720192952
109,6,20,Ticks_Linear_8,139,5,42,127,720857364
109,6,20,Ticks_Linear_8,140,1,48,21,720893896
109,6,20,Ticks_Linear_8,141,1,48,39,721536268
109,6,20,Ticks_Linear_8,142,5,42,127,721538456
109,6,20,Ticks_Linear_8,143,1,48,36,722210676
109,6,20,Ticks_Linear_8,144,5,42,127,722227500
109,6,20,Ticks_Linear_8,145,5,42,127,722898324
109,6,20,Ticks_Linear_8,146,1,48,21,722943176
109,6,20,Ticks_Linear_8,147,5,42,127,723567968
109,6,20,Ticks_Linear_8,148,1,48,27,723625148
109,6,20,Ticks_Linear_8,149,5,42,127,724237760
109,6,20,Ticks_Linear_8,150,1,48,22,724253832
109,6,20,Ticks_Linear_8,151,1,48,33,724908724
109,6,20,Ticks_Linear_8,152,5,42,127,724909840
109,6,20,Ticks_Linear_8,153,5,42,127,725578224
109,6,20,Ticks_Linear_8,154,1,48,29,725615796
109,6,20,Ticks_Linear_8,155,5,42,127,726237656
109,6,20,Ticks_Linear_8,156,1,48,16,726372076
109,6,20,Ticks_Linear_8,157,5,42,127,726898016
109,6,20,Ticks_Linear_8,158,5,42,127,727557644
109,6,20,Ticks_Linear_8,159,1,48,33,728193008
109,6,20,Ticks_Linear_8,160,5,42,127,728217920
109,6,20,Ticks_Linear_8,161,5,42,127,728877388
109,6,20,Ticks_Linear_8,162,1,48,24,728904840
109,6,20,Ticks_Linear_8,163,5,42,127,729527836
109,6,20,Ticks_Linear_8,164,1,48,32,729543156
109,6,20,Ticks_Linear_8,165,5,42,127,730177788
109,6,20,Ticks_Linear_8,166,1,48,20,730247412
109,6,20,Ticks_Linear_8,167,5,42,127,730828008
109,6,20,Ticks_Linear_8,168,1,48,26,730889788
109,6,20,Ticks_Linear_8,169,5,42,127,731478332
109,6,20,Ticks_Linear_8,170,1,48,25,731541884
109,6,20,Ticks_Linear_8,171,5,42,127,732127656
109,6,20,Ticks_Linear_8,172,1,48,35,732138744
109,6,20,Ticks_Linear_8,173,5,42,127,732767572
109,6,20,Ticks_Linear_8,174,1,48,37,732791884
109,6,20,Ticks_Linear_8,175,5,42,127,733407836
109,6,20,Ticks_Linear_8,176,1,48,29,733431496
109,6,20,Ticks_Linear_8,177,5,42,127,734047824
109,6,20,Ticks_Linear_8,178,5,42,127,734687808
109,6,20,Ticks_Linear_8,179,1,48,24,734777004
109,6,20,Ticks_Linear_8,180,5,42,127,735327724
109,6,20,Ticks_Linear_8,181,1,48,28,735336468
109,6,20,Ticks_Linear_8,182,5,42,127,735958400
109,6,20,Ticks_Linear_8,183,1,48,28,735989480
109,6,20,Ticks_Linear_8,184,5,42,127,736588132
109,6,20,Ticks_Linear_8,185,1,48,28,736597620
109,6,20,Ticks_Linear_8,186,1,48,33,737190824
109,6,20,Ticks_Linear_8,187,5,42,127,737217980
109,6,20,Ticks_Linear_8,188,1,48,13,737292324
109,6,20,Ticks_Linear_8,189,1,48,31,737840080
109,6,20,Ticks_Linear_8,190,5,42,127,737847912
109,6,20,Ticks_Linear_8,191,5,42,127,738477700
109,6,20,Ticks_Linear_8,192,1,48,24,738522828
109,6,20,Ticks_Linear_8,193,5,42,127,739097920
109,6,20,Ticks_Linear_8,194,1,48,26,739122148
109,6,20,Ticks_Linear_8,195,5,42,127,739717588
109,6,20,Ticks_Linear_8,196,1,48,26,739737936
109,6,20,Ticks_Linear_8,197,5,42,127,740338108
109,6,20,Ticks_Linear_8,198,1,48,25,740354024
109,6,20,Ticks_Linear_8,199,5,42,127,740957700
109,6,20,Ticks_Linear_8,200,1,48,31,740963736
109,6,20,Ticks_Linear_8,201,5,42,127,741578268
109,6,20,Ticks_Linear_8,202,1,48,25,741593440
109,6,20,Ticks_Linear_8,203,5,42,127,742188676
109,6,20,Ticks_Linear_8,204,1,48,27,742215916
109,6,20,Ticks_Linear_8,205,5,42,127,742797640
109,6,20,Ticks_Linear_8,206,1,48,19,742876924
109,6,20,Ticks_Linear_8,207,5,42,127,743407972
109,6,20,Ticks_Linear_8,208,1,48,26,743427644
109,6,20,Ticks_Linear_8,209,5,42,127,744018280
109,6,20,Ticks_Linear_8,210,1,48,25,744038172
109,6,20,Ticks_Linear_8,211,5,42,127,744627688
109,6,20,Ticks_Linear_8,212,1,48,25,744659936
109,6,20,Ticks_Linear_8,213,5,42,127,745227540
109,6,20,Ticks_Linear_8,214,5,42,127,745827832
109,6,20,Ticks_Linear_8,215,5,42,127,746427756
109,6,20,Ticks_Linear_8,216,1,48,36,747005328
109,6,20,Ticks_Linear_8,217,5,42,127,747027768
109,6,20,Ticks_Linear_8,218,1,48,32,747612040
109,6,20,Ticks_Linear_8,219,5,42,127,747627820
109,6,20,Ticks_Linear_8,220,5,42,127,748217612
109,6,20,Ticks_Linear_8,221,1,48,35,748222972
109,6,20,Ticks_Linear_8,222,5,42,127,748807800
109,6,20,Ticks_Linear_8,223,1,48,34,748863864
109,6,20,Ticks_Linear_8,224,1,48,27,749398564
109,6,20,Ticks_Linear_8,225,5,42,127,749399900
109,6,20,Ticks_Linear_8,226,5,42,127,749988276
109,6,20,Ticks_Linear_8,227,1,48,27,750038580
109,6,20,Ticks_Linear_8,228,5,42,127,750578168
109,6,20,Ticks_Linear_8,229,1,48,25,750641864
109,6,20,Ticks_Linear_8,230,5,42,127,751157696
109,6,20,Ticks_Linear_8,231,1,48,25,751175712
109,6,20,Ticks_Linear_8,232,1,48,25,751733204
109,6,20,Ticks_Linear_8,233,5,42,127,751738192
109,6,20,Ticks_Linear_8,234,1,48,24,752298884
109,6,20,Ticks_Linear_8,235,5,42,127,752317724
109,6,20,Ticks_Linear_8,236,5,42,127,752898628
109,6,20,Ticks_Linear_8,237,1,48,21,752926168
109,6,20,Ticks_Linear_8,238,5,42,127,753488344
109,6,20,Ticks_Linear_8,239,1,48,24,753494004
109,6,20,Ticks_Linear_8,240,5,42,127,754057544
109,6,20,Ticks_Linear_8,241,1,48,26,754060884
109,6,20,Ticks_Linear_8,242,5,42,127,754628084
109,6,20,Ticks_Linear_8,243,1,48,25,754664696
109,6,20,Ticks_Linear_8,244,5,42,127,755198424
109,6,20,Ticks_Linear_8,245,1,48,21,755272160
109,6,20,Ticks_Linear_8,246,5,42,127,755767696
109,6,20,Ticks_Linear_8,247,1,48,31,755789464
109,6,20,Ticks_Linear_8,248,5,42,127,756337944
109,6,20,Ticks_Linear_8,249,1,48,29,756345620
109,6,20,Ticks_Linear_8,250,5,42,127,756898448
109,6,20,Ticks_Linear_8,251,1,48,28,756941780
109,6,20,Ticks_Linear_8,252,5,42,127,757458432
109,6,20,Ticks_Linear_8,253,1,48,28,757514144
109,6,20,Ticks_Linear_8,254,5,42,127,758018520
109,6,20,Ticks_Linear_8,255,1,48,27,758082820
109,6,20,Ticks_Linear_8,256,1,48,23,758584212
109,6,20,Ticks_Linear_8,257,5,42,127,758587708
109,6,20,Ticks_Linear_8,258,5,42,127,759147924
109,6,20,Ticks_Linear_8,259,1,48,17,759196500
109,6,20,Ticks_Linear_8,260,5,42,127,759697876
109,6,20,Ticks_Linear_8,261,1,48,21,759747576
109,6,20,Ticks_Linear_8,262,1,48,31,760228084
109,6,20,Ticks_Linear_8,263,5,42,127,760247592
109,6,20,Ticks_Linear_8,264,1,48,28,760797328
109,6,20,Ticks_Linear_8,265,5,42,127,760798740
109,6,20,Ticks_Linear_8,266,5,42,127,761347448
109,6,20,Ticks_Linear_8,267,1,48,33,761359556
109,6,20,Ticks_Linear_8,268,5,42,127,761898296
109,6,20,Ticks_Linear_8,269,1,48,35,761916472
109,6,20,Ticks_Linear_8,270,5,42,127,762438060
109,6,20,Ticks_Linear_8,271,1,48,29,762464316
109,6,20,Ticks_Linear_8,272,5,42,127,762977528
109,6,20,Ticks_Linear_8,273,1,48,30,763019588
109,6,20,Ticks_Linear_8,274,5,42,127,763518188
109,6,20,Ticks_Linear_8,275,1,48,34,763558824
109,6,20,Ticks_Linear_8,276,5,42,127,764058176
109,6,20,Ticks_Linear_8,277,1,48,19,764144964
109,6,20,Ticks_Linear_8,278,5,42,127,764597572
109,6,20,Ticks_Linear_8,279,1,48,28,764684880
109,6,20,Ticks_Linear_8,280,5,42,127,765128196
109,6,20,Ticks_Linear_8,281,5,42,127,765657500
109,6,20,Ticks_Linear_8,282,5,42,127,766187804
109,6,20,Ticks_Linear_8,283,5,42,127,766718300
109,6,20,Ticks_Linear_8,284,5,42,127,767247756
109,6,20,Ticks_Linear_8,285,5,42,127,767768144
109,6,20,Ticks_Linear_8,286,1,48,35,767794400
109,6,20,Ticks_Linear_8,287,5,42,127,768288288
109,6,20,Ticks_Linear_8,288,1,48,30,768357312
109,6,20,Ticks_Linear_8,289,5,42,127,768808284
109,6,20,Ticks_Linear_8,290,1,48,38,768877084
109,6,20,Ticks_Linear_8,291,5,42,127,769327532
109,6,20,Ticks_Linear_8,292,1,48,31,769403964
109,6,20,Ticks_Linear_8,293,5,42,127,769847676
109,6,20,Ticks_Linear_8,294,1,48,32,769917076
109,6,20,Ticks_Linear_8,295,5,42,127,770357488
109,6,20,Ticks_Linear_8,296,1,48,26,770434736
109,6,20,Ticks_Linear_8,297,5,42,127,770867520
109,6,20,Ticks_Linear_8,298,1,48,26,770970460
109,6,20,Ticks_Linear_8,299,5,42,127,771377404
109,6,20,Ticks_Linear_8,300,1,48,27,771504232
109,6,20,Ticks_Linear_8,301,5,42,127,771887588
109,6,20,Ticks_Linear_8,302,1,48,24,772068516
109,6,20,Ticks_Linear_8,303,5,42,127,772397324
109,6,20,Ticks_Linear_8,304,1,48,33,772580192
109,6,20,Ticks_Linear_8,305,5,42,127,772898072
109,6,20,Ticks_Linear_8,306,1,48,28,773188112
109,6,20,Ticks_Linear_8,307,5,42,127,773397996
109,6,20,Ticks_Linear_8,308,1,48,24,773824548
109,6,20,Ticks_Linear_8,309,5,42,127,773897560
109,6,20,Ticks_Linear_8,310,5,42,127,774398312
109,6,20,Ticks_Linear_8,311,1,48,26,774474364
109,6,20,Ticks_Linear_8,312,5,42,127,774898088
109,6,20,Ticks_Linear_8,313,1,48,27,775068960
109,6,20,Ticks_Linear_8,314,5,42,127,775387652
109,6,20,Ticks_Linear_8,315,1,48,33,775632456
109,6,20,Ticks_Linear_8,316,5,42,127,775878216
109,6,20,Ticks_Linear_8,317,1,48,31,776263832
109,6,20,Ticks_Linear_8,318,5,42,127,776367432
109,6,20,Ticks_Linear_8,319,5,42,127,776857944
109,6,20,Ticks_Linear_8,320,1,48,32,776912284
109,6,20,Ticks_Linear_8,321,5,42,127,777347460
109,6,20,Ticks_Linear_8,0,9999,9999,9999,666765400
109,6,20,Ticks_Linear_8,1,9999,9999,9999,667585664
109,6,20,Ticks_Linear_8,2,9999,9999,9999,668405880
109,6,20,Ticks_Linear_8,3,9999,9999,9999,669226068
109,6,20,Ticks_Linear_8,4,9999,9999,9999,670045284
109,6,20,Ticks_Linear_8,5,9999,9999,9999,670855264
109,6,20,Ticks_Linear_8,6,9999,9999,9999,671665244
109,6,20,Ticks_Linear_8,7,9999,9999,9999,672475228
109,6,20,Ticks_Linear_8,8,9999,9999,9999,673285220
109,6,20,Ticks_Linear_8,9,9999,9999,9999,674095220
109,6,20,Ticks_Linear_8,10,9999,9999,9999,674895992
109,6,20,Ticks_Linear_8,11,9999,9999,9999,675695712
109,6,20,Ticks_Linear_8,12,9999,9999,9999,676495444
109,6,20,Ticks_Linear_8,13,9999,9999,9999,677295168
109,6,20,Ticks_Linear_8,14,9999,9999,9999,678095932
109,6,20,Ticks_Linear_8,15,9999,9999,9999,678885472
109,6,20,Ticks_Linear_8,16,9999,9999,9999,679676008
109,6,20,Ticks_Linear_8,17,9999,9999,9999,680465512
109,6,20,Ticks_Linear_8,18,9999,9999,9999,681255992
109,6,20,Ticks_Linear_8,19,9999,9999,9999,682045532
109,6,20,Ticks_Linear_8,20,9999,9999,9999,682825852
109,6,20,Ticks_Linear_8,21,9999,9999,9999,683606112
109,6,20,Ticks_Linear_8,22,9999,9999,9999,684395576
109,6,20,Ticks_Linear_8,23,9999,9999,9999,685175896
109,6,20,Ticks_Linear_8,24,9999,9999,9999,685955176
109,6,20,Ticks_Linear_8,25,9999,9999,9999,686725176
109,6,20,Ticks_Linear_8,26,9999,9999,9999,687495244
109,6,20,Ticks_Linear_8,27,9999,9999,9999,688265312
109,6,20,Ticks_Linear_8,28,9999,9999,9999,689035380
109,6,20,Ticks_Linear_8,29,9999,9999,9999,689805372
109,6,20,Ticks_Linear_8,30,9999,9999,9999,690565184
109,6,20,Ticks_Linear_8,31,9999,9999,9999,691326040
109,6,20,Ticks_Linear_8,32,9999,9999,9999,692085848
109,6,20,Ticks_Linear_8,33,9999,9999,9999,692845652
109,6,20,Ticks_Linear_8,34,9999,9999,9999,693605464
109,6,20,Ticks_Linear_8,35,9999,9999,9999,694356064
109,6,20,Ticks_Linear_8,36,9999,9999,9999,695105608
109,6,20,Ticks_Linear_8,37,9999,9999,9999,695855160
109,6,20,Ticks_Linear_8,38,9999,9999,9999,696605760
109,6,20,Ticks_Linear_8,39,9999,9999,9999,697355384
109,6,20,Ticks_Linear_8,40,9999,9999,9999,698095720
109,6,20,Ticks_Linear_8,41,9999,9999,9999,698836036
109,6,20,Ticks_Linear_8,42,9999,9999,9999,699575400
109,6,20,Ticks_Linear_8,43,9999,9999,9999,700315736
109,6,20,Ticks_Linear_8,44,9999,9999,9999,701056076
109,6,20,Ticks_Linear_8,45,9999,9999,9999,701795444
109,6,20,Ticks_Linear_8,46,9999,9999,9999,702525516
109,6,20,Ticks_Linear_8,47,9999,9999,9999,703255668
109,6,20,Ticks_Linear_8,48,9999,9999,9999,703985744
109,6,20,Ticks_Linear_8,49,9999,9999,9999,704715880
109,6,20,Ticks_Linear_8,50,9999,9999,9999,705435772
109,6,20,Ticks_Linear_8,51,9999,9999,9999,706155584
109,6,20,Ticks_Linear_8,52,9999,9999,9999,706875488
109,6,20,Ticks_Linear_8,53,9999,9999,9999,707595328
109,6,20,Ticks_Linear_8,54,9999,9999,9999,708315212
109,6,20,Ticks_Linear_8,55,9999,9999,9999,709025892
109,6,20,Ticks_Linear_8,56,9999,9999,9999,709735528
109,6,20,Ticks_Linear_8,57,9999,9999,9999,710445160
109,6,20,Ticks_Linear_8,58,9999,9999,9999,711155772
109,6,20,Ticks_Linear_8,59,9999,9999,9999,711865460
109,6,20,Ticks_Linear_8,60,9999,9999,9999,712565880
109,6,20,Ticks_Linear_8,61,9999,9999,9999,713265256
109,6,20,Ticks_Linear_8,62,9999,9999,9999,713965680
109,6,20,Ticks_Linear_8,63,9999,9999,9999,714666076
109,6,20,Ticks_Linear_8,64,9999,9999,9999,715365448
109,6,20,Ticks_Linear_8,65,9999,9999,9999,716055612
109,6,20,Ticks_Linear_8,66,9999,9999,9999,716745820
109,6,20,Ticks_Linear_8,67,9999,9999,9999,717435984
109,6,20,Ticks_Linear_8,68,9999,9999,9999,718125160
109,6,20,Ticks_Linear_8,69,9999,9999,9999,718815296
109,6,20,Ticks_Linear_8,70,9999,9999,9999,719495276
109,6,20,Ticks_Linear_8,71,9999,9999,9999,720175180
109,6,20,Ticks_Linear_8,72,9999,9999,9999,720855136
109,6,20,Ticks_Linear_8,73,9999,9999,9999,721536120
109,6,20,Ticks_Linear_8,74,9999,9999,9999,722225272
109,6,20,Ticks_Linear_8,75,9999,9999,9999,722895948
109,6,20,Ticks_Linear_8,76,9999,9999,9999,723565664
109,6,20,Ticks_Linear_8,77,9999,9999,9999,724235384
109,6,20,Ticks_Linear_8,78,9999,9999,9999,724906052
109,6,20,Ticks_Linear_8,79,9999,9999,9999,725575772
109,6,20,Ticks_Linear_8,80,9999,9999,9999,726235208
109,6,20,Ticks_Linear_8,81,9999,9999,9999,726895716
109,6,20,Ticks_Linear_8,82,9999,9999,9999,727555196
109,6,20,Ticks_Linear_8,83,9999,9999,9999,728215620
109,6,20,Ticks_Linear_8,84,9999,9999,9999,728875088
109,6,20,Ticks_Linear_8,85,9999,9999,9999,729525308
109,6,20,Ticks_Linear_8,86,9999,9999,9999,730175560
109,6,20,Ticks_Linear_8,87,9999,9999,9999,730825784
109,6,20,Ticks_Linear_8,88,9999,9999,9999,731476028
109,6,20,Ticks_Linear_8,89,9999,9999,9999,732125280
109,6,20,Ticks_Linear_8,90,9999,9999,9999,732765272
109,6,20,Ticks_Linear_8,91,9999,9999,9999,733405312
109,6,20,Ticks_Linear_8,92,9999,9999,9999,734045300
109,6,20,Ticks_Linear_8,93,9999,9999,9999,734685284
109,6,20,Ticks_Linear_8,94,9999,9999,9999,735325272
109,6,20,Ticks_Linear_8,95,9999,9999,9999,735956024
109,6,20,Ticks_Linear_8,96,9999,9999,9999,736585832
109,6,20,Ticks_Linear_8,97,9999,9999,9999,737215604
109,6,20,Ticks_Linear_8,98,9999,9999,9999,737845312
109,6,20,Ticks_Linear_8,99,9999,9999,9999,738475100
109,6,20,Ticks_Linear_8,100,9999,9999,9999,739095616
109,6,20,Ticks_Linear_8,101,9999,9999,9999,739715140
109,6,20,Ticks_Linear_8,102,9999,9999,9999,740335728
109,6,20,Ticks_Linear_8,103,9999,9999,9999,740955252
109,6,20,Ticks_Linear_8,104,9999,9999,9999,741575744
109,6,20,Ticks_Linear_8,105,9999,9999,9999,742186076
109,6,20,Ticks_Linear_8,106,9999,9999,9999,742795336
109,6,20,Ticks_Linear_8,107,9999,9999,9999,743405668
109,6,20,Ticks_Linear_8,108,9999,9999,9999,744015976
109,6,20,Ticks_Linear_8,109,9999,9999,9999,744625236
109,6,20,Ticks_Linear_8,110,9999,9999,9999,745225312
109,6,20,Ticks_Linear_8,111,9999,9999,9999,745825384
109,6,20,Ticks_Linear_8,112,9999,9999,9999,746425452
109,6,20,Ticks_Linear_8,113,9999,9999,9999,747025468
109,6,20,Ticks_Linear_8,114,9999,9999,9999,747625592
109,6,20,Ticks_Linear_8,115,9999,9999,9999,748215388
109,6,20,Ticks_Linear_8,116,9999,9999,9999,748805204
109,6,20,Ticks_Linear_8,117,9999,9999,9999,749396040
109,6,20,Ticks_Linear_8,118,9999,9999,9999,749985900
109,6,20,Ticks_Linear_8,119,9999,9999,9999,750575716
109,6,20,Ticks_Linear_8,120,9999,9999,9999,751155320
109,6,20,Ticks_Linear_8,121,9999,9999,9999,751735892
109,6,20,Ticks_Linear_8,122,9999,9999,9999,752315496
109,6,20,Ticks_Linear_8,123,9999,9999,9999,752896108
109,6,20,Ticks_Linear_8,124,9999,9999,9999,753485896
109,6,20,Ticks_Linear_8,125,9999,9999,9999,754055240
109,6,20,Ticks_Linear_8,126,9999,9999,9999,754625632
109,6,20,Ticks_Linear_8,127,9999,9999,9999,755195976
109,6,20,Ticks_Linear_8,128,9999,9999,9999,755765320
109,6,20,Ticks_Linear_8,129,9999,9999,9999,756335716
109,6,20,Ticks_Linear_8,130,9999,9999,9999,756895848
109,6,20,Ticks_Linear_8,131,9999,9999,9999,757455984
109,6,20,Ticks_Linear_8,132,9999,9999,9999,758016072
109,6,20,Ticks_Linear_8,133,9999,9999,9999,758585408
109,6,20,Ticks_Linear_8,134,9999,9999,9999,759145548
109,6,20,Ticks_Linear_8,135,9999,9999,9999,759695424
109,6,20,Ticks_Linear_8,136,9999,9999,9999,760245368
109,6,20,Ticks_Linear_8,137,9999,9999,9999,760795248
109,6,20,Ticks_Linear_8,138,9999,9999,9999,761345148
109,6,20,Ticks_Linear_8,139,9999,9999,9999,761895992
109,6,20,Ticks_Linear_8,140,9999,9999,9999,762435684
109,6,20,Ticks_Linear_8,141,9999,9999,9999,762975300
109,6,20,Ticks_Linear_8,142,9999,9999,9999,763515960
109,6,20,Ticks_Linear_8,143,9999,9999,9999,764055652
109,6,20,Ticks_Linear_8,144,9999,9999,9999,764595268
109,6,20,Ticks_Linear_8,145,9999,9999,9999,765125748
109,6,20,Ticks_Linear_8,146,9999,9999,9999,765655124
109,6,20,Ticks_Linear_8,147,9999,9999,9999,766185576
109,6,20,Ticks_Linear_8,148,9999,9999,9999,766716000
109,6,20,Ticks_Linear_8,149,9999,9999,9999,767245380
109,6,20,Ticks_Linear_8,150,9999,9999,9999,767765620
109,6,20,Ticks_Linear_8,151,9999,9999,9999,768285764
109,6,20,Ticks_Linear_8,152,9999,9999,9999,768805984
109,6,20,Ticks_Linear_8,153,9999,9999,9999,769325156
109,6,20,Ticks_Linear_8,154,9999,9999,9999,769845372
109,6,20,Ticks_Linear_8,155,9999,9999,9999,770355260
109,6,20,Ticks_Linear_8,156,9999,9999,9999,770865220
109,6,20,Ticks_Linear_8,157,9999,9999,9999,771375176
109,6,20,Ticks_Linear_8,158,9999,9999,9999,771885136
109,6,20,Ticks_Linear_8,159,9999,9999,9999,772395096
109,6,20,Ticks_Linear_8,160,9999,9999,9999,772895844
109,6,20,Ticks_Linear_8,161,9999,9999,9999,773395544
109,6,20,Ticks_Linear_8,162,9999,9999,9999,773895260
109,6,20,Ticks_Linear_8,163,9999,9999,9999,774396012
109,6,20,Ticks_Linear_8,164,9999,9999,9999,774895712
109,6,20,Ticks_Linear_8,165,9999,9999,9999,775385204
109,6,20,Ticks_Linear_8,166,9999,9999,9999,775875692
109,6,20,Ticks_Linear_8,167,9999,9999,9999,776365132
109,6,20,Ticks_Linear_8,168,9999,9999,9999,776855644
109,6,20,Ticks_Linear_8,169,9999,9999,9999,777345084
109,7,10,Ticks_ISO_T2_5,0,5,42,127,821929312
109,7,10,Ticks_ISO_T2_5,1,5,42,127,822429328
109,7,10,Ticks_ISO_T2_5,2,5,42,127,822928748
109,7,10,Ticks_ISO_T2_5,3,5,42,127,823428388
109,7,10,Ticks_ISO_T2_5,4,5,42,127,823929524
109,7,10,Ticks_ISO_T2_5,5,5,42,127,824428944
109,7,10,Ticks_ISO_T2_5,6,5,42,127,824928584
109,7,10,Ticks_ISO_T2_5,7,5,42,127,825429348
109,7,10,Ticks_ISO_T2_5,8,5,42,127,825929360
109,7,10,Ticks_ISO_T2_5,9,1,48,44,825943104
109,7,10,Ticks_ISO_T2_5,10,5,42,127,826428760
109,7,10,Ticks_ISO_T2_5,11,1,48,37,826450428
109,7,10,Ticks_ISO_T2_5,12,1,48,38,826921680
109,7,10,Ticks_ISO_T2_5,13,5,42,127,826928524
109,7,10,Ticks_ISO_T2_5,14,1,48,36,827415016
109,7,10,Ticks_ISO_T2_5,15,5,42,127,827429116
109,7,10,Ticks_ISO_T2_5,16,5,42,127,827929116
109,7,10,Ticks_ISO_T2_5,17,1,48,38,827933880
109,7,10,Ticks_ISO_T2_5,18,5,42,127,828428588
109,7,10,Ticks_ISO_T2_5,19,1,48,30,828438212
109,7,10,Ticks_ISO_T2_5,20,5,42,127,828929252
109,7,10,Ticks_ISO_T2_5,21,1,48,38,828954960
109,7,10,Ticks_ISO_T2_5,22,5,42,127,829429024
109,7,10,Ticks_ISO_T2_5,23,1,48,40,829431616
109,7,10,Ticks_ISO_T2_5,24,1,48,41,829928940
109,7,10,Ticks_ISO_T2_5,25,5,42,127,829930204
109,7,10,Ticks_ISO_T2_5,26,5,42,127,830428536
109,7,10,Ticks_ISO_T2_5,27,1,48,40,830442824
109,7,10,Ticks_ISO_T2_5,28,1,48,38,830915624
109,7,10,Ticks_ISO_T2_5,29,5,42,127,830929196
109,7,10,Ticks_ISO_T2_5,30,5,42,127,831429044
109,7,10,Ticks_ISO_T2_5,31,1,48,26,831442412
109,7,10,Ticks_ISO_T2_5,32,5,42,127,831928816
109,7,10,Ticks_ISO_T2_5,33,1,48,29,831941956
109,7,10,Ticks_ISO_T2_5,34,1,48,34,832420092
109,7,10,Ticks_ISO_T2_5,35,5,42,127,832429476
109,7,10,Ticks_ISO_T2_5,36,5,42,127,832929104
109,7,10,Ticks_ISO_T2_5,37,1,48,35,832940300
109,7,10,Ticks_ISO_T2_5,38,1,48,37,833427740
109,7,10,Ticks_ISO_T2_5,39,5,42,127,833429312
109,7,10,Ticks_ISO_T2_5,40,5,42,127,833928420
109,7,10,Ticks_ISO_T2_5,41,1,48,33,833954872
109,7,10,Ticks_ISO_T2_5,42,1,48,36,834421488
109,7,10,Ticks_ISO_T2_5,43,5,42,127,834429300
109,7,10,Ticks_ISO_T2_5,44,1,48,43,834926644
109,7,10,Ticks_ISO_T2_5,45,5,42,127,834928996
109,7,10,Ticks_ISO_T2_5,46,5,42,127,835428848
109,7,10,Ticks_ISO_T2_5,47,1,48,40,835454700
109,7,10,Ticks_ISO_T2_5,48,5,42,127,835928392
109,7,10,Ticks_ISO_T2_5,49,1,48,40,835955968
109,7,10,Ticks_ISO_T2_5,50,5,42,127,836429060
109,7,10,Ticks_ISO_T2_5,51,1,48,40,836441000
109,7,10,Ticks_ISO_T2_5,52,5,42,127,836929052
109,7,10,Ticks_ISO_T2_5,53,1,48,40,836945188
109,7,10,Ticks_ISO_T2_5,54,5,42,127,837428524
109,7,10,Ticks_ISO_T2_5,55,1,48,40,837444504
109,7,10,Ticks_ISO_T2_5,56,5,42,127,837929264
109,7,10,Ticks_ISO_T2_5,57,1,48,39,837947340
109,7,10,Ticks_ISO_T2_5,58,5,42,127,838428888
109,7,10,Ticks_ISO_T2_5,59,1,48,46,838430296
109,7,10,Ticks_ISO_T2_5,60,1,48,44,838924652
109,7,10,Ticks_ISO_T2_5,61,5,42,127,838928872
109,7,10,Ticks_ISO_T2_5,62,5,42,127,839428576
109,7,10,Ticks_ISO_T2_5,63,1,48,47,839434832
109,7,10,Ticks_ISO_T2_5,64,1,48,44,839905188
109,7,10,Ticks_ISO_T2_5,65,5,42,127,839929236
109,7,10,Ticks_ISO_T2_5,66,5,42,127,840428940
109,7,10,Ticks_ISO_T2_5,67,1,48,42,840430276
109,7,10,Ticks_ISO_T2_5,68,5,42,127,840928708
109,7,10,Ticks_ISO_T2_5,69,1,48,42,840940952
109,7,10,Ticks_ISO_T2_5,70,1,48,44,841417868
109,7,10,Ticks_ISO_T2_5,71,5,42,127,841429268
109,7,10,Ticks_ISO_T2_5,72,5,42,127,841929116
109,7,10,Ticks_ISO_T2_5,73,1,48,43,841956120
109,7,10,Ticks_ISO_T2_5,74,5,42,127,842428888
109,7,10,Ticks_ISO_T2_5,75,1,48,42,842441132
109,7,10,Ticks_ISO_T2_5,76,5,42,127,842928580
109,7,10,Ticks_ISO_T2_5,77,1,48,43,842947480
109,7,10,Ticks_ISO_T2_5,78,5,42,127,843429100
109,7,10,Ticks_ISO_T2_5,79,1,48,44,843442240
109,7,10,Ticks_ISO_T2_5,80,5,42,127,843928792
109,7,10,Ticks_ISO_T2_5,81,1,48,37,843976488
109,7,10,Ticks_ISO_T2_5,82,5,42,127,844428784
109,7,10,Ticks_ISO_T2_5,83,1,48,47,844442900
109,7,10,Ticks_ISO_T2_5,84,5,42,127,844929304
109,7,10,Ticks_ISO_T2_5,85,1,48,47,844948128
109,7,10,Ticks_ISO_T2_5,86,5,42,127,845428996
109,7,10,Ticks_ISO_T2_5,87,1,48,43,845452084
109,7,10,Ticks_ISO_T2_5,88,5,42,127,845928988
109,7,10,Ticks_ISO_T2_5,89,1,48,45,845950136
109,7,10,Ticks_ISO_T2_5,90,5,42,127,846428384
109,7,10,Ticks_ISO_T2_5,91,1,48,30,846506596
109,7,10,Ticks_ISO_T2_5,92,1,48,39,846929200
109,7,10,Ticks_ISO_T2_5,93,5,42,127,846930688
109,7,10,Ticks_ISO_T2_5,94,5,42,127,847429120
109,7,10,Ticks_ISO_T2_5,95,1,48,39,847450268
109,7,10,Ticks_ISO_T2_5,96,5,42,127,847928888
109,7,10,Ticks_ISO_T2_5,97,1,48,40,847945772
109,7,10,Ticks_ISO_T2_5,98,1,48,43,848414624
109,7,10,Ticks_ISO_T2_5,99,5,42,127,848429548
109,7,10,Ticks_ISO_T2_5,100,5,42,127,848929104
109,7,10,Ticks_ISO_T2_5,101,1,48,33,848965880
109,7,10,Ticks_ISO_T2_5,102,5,42,127,849428796
109,7,10,Ticks_ISO_T2_5,103,1,48,40,849435128
109,7,10,Ticks_ISO_T2_5,104,5,42,127,849928492
109,7,10,Ticks_ISO_T2_5,105,1,48,37,849934376
109,7,10,Ticks_ISO_T2_5,106,1,48,47,850422084
109,7,10,Ticks_ISO_T2_5,107,5,42,127,850429224
109,7,10,Ticks_ISO_T2_5,108,5,42,127,850929004
109,7,10,Ticks_ISO_T2_5,109,1,48,41,850952836
109,7,10,Ticks_ISO_T2_5,110,5,42,127,851428920
109,7,10,Ticks_ISO_T2_5,111,1,48,43,851450588
109,7,10,Ticks_ISO_T2_5,112,5,42,127,851928292
109,7,10,Ticks_ISO_T2_5,113,1,48,43,851942880
109,7,10,Ticks_ISO_T2_5,114,1,48,33,852427832
109,7,10,Ticks_ISO_T2_5,115,5,42,127,852429328
109,7,10,Ticks_ISO_T2_5,116,1,48,30,852927828
109,7,10,Ticks_ISO_T2_5,117,5,42,127,852929392
109,7,10,Ticks_ISO_T2_5,118,1,48,30,853408112
109,7,10,Ticks_ISO_T2_5,119,5,42,127,853428788
109,7,10,Ticks_ISO_T2_5,120,5,42,127,853929312
109,7,10,Ticks_ISO_T2_5,121,1,48,38,853939836
109,7,10,Ticks_ISO_T2_5,122,5,42,127,854429008
109,7,10,Ticks_ISO_T2_5,123,1,48,46,854436388
109,7,10,Ticks_ISO_T2_5,124,1,48,46,854924548
109,7,10,Ticks_ISO_T2_5,125,5,42,127,854928920
109,7,10,Ticks_ISO_T2_5,126,5,42,127,855428472
109,7,10,Ticks_ISO_T2_5,127,1,48,47,855431216
109,7,10,Ticks_ISO_T2_5,128,5,42,127,855929136
109,7,10,Ticks_ISO_T2_5,129,1,48,36,855956040
109,7,10,Ticks_ISO_T2_5,130,1,48,47,856425344
109,7,10,Ticks_ISO_T2_5,131,5,42,127,856428976
109,7,10,Ticks_ISO_T2_5,132,5,42,127,856928824
109,7,10,Ticks_ISO_T2_5,133,1,48,33,856956772
109,7,10,Ticks_ISO_T2_5,134,5,42,127,857429492
109,7,10,Ticks_ISO_T2_5,135,1,48,44,857451232
109,7,10,Ticks_ISO_T2_5,136,5,42,127,857929036
109,7,10,Ticks_ISO_T2_5,137,1,48,45,857975088
109,7,10,Ticks_ISO_T2_5,138,5,42,127,858428808
109,7,10,Ticks_ISO_T2_5,139,1,48,48,858429848
109,7,10,Ticks_ISO_T2_5,140,5,42,127,858928724
109,7,10,Ticks_ISO_T2_5,141,1,48,43,858946428
109,7,10,Ticks_ISO_T2_5,142,5,42,127,859429172
109,7,10,Ticks_ISO_T2_5,143,1,48,45,859443132
109,7,10,Ticks_ISO_T2_5,144,1,48,48,859924184
109,7,10,Ticks_ISO_T2_5,145,5,42,127,859929084
109,7,10,Ticks_ISO_T2_5,146,5,42,127,860428784
109,7,10,Ticks_ISO_T2_5,147,1,48,42,860443644
109,7,10,Ticks_ISO_T2_5,148,1,48,49,860926940
109,7,10,Ticks_ISO_T2_5,149,5,42,127,860929520
109,7,10,Ticks_ISO_T2_5,150,5,42,127,861429000
109,7,10,Ticks_ISO_T2_5,151,1,48,45,861440940
109,7,10,Ticks_ISO_T2_5,152,5,42,127,861928916
109,7,10,Ticks_ISO_T2_5,153,1,48,46,861938464
109,7,10,Ticks_ISO_T2_5,154,5,42,127,862428660
109,7,10,Ticks_ISO_T2_5,155,1,48,47,862429924
109,7,10,Ticks_ISO_T2_5,156,5,42,127,862929404
109,7,10,Ticks_ISO_T2_5,157,1,48,47,862982288
109,7,10,Ticks_ISO_T2_5,158,5,42,127,863429024
109,7,10,Ticks_ISO_T2_5,159,1,48,47,863476148
109,7,10,Ticks_ISO_T2_5,160,5,42,127,863928792
109,7,10,Ticks_ISO_T2_5,161,1,48,48,863957864
109,7,10,Ticks_ISO_T2_5,162,5,42,127,864429536
109,7,10,Ticks_ISO_T2_5,163,1,48,46,864436396
109,7,10,Ticks_ISO_T2_5,164,5,42,127,864929156
109,7,10,Ticks_ISO_T2_5,165,1,48,46,864948052
109,7,10,Ticks_ISO_T2_5,166,5,42,127,865428924
109,7,10,Ticks_ISO_T2_5,167,1,48,44,865455156
109,7,10,Ticks_ISO_T2_5,168,5,42,127,865928692
109,7,10,Ticks_ISO_T2_5,169,1,48,43,865934876
109,7,10,Ticks_ISO_T2_5,170,5,42,127,866429432
109,7,10,Ticks_ISO_T2_5,171,1,48,44,866442048
109,7,10,Ticks_ISO_T2_5,172,5,42,127,866928904
109,7,10,Ticks_ISO_T2_5,173,1,48,46,866934564
109,7,10,Ticks_ISO_T2_5,174,5,42,127,867428600
109,7,10,Ticks_ISO_T2_5,175,1,48,43,867437476
109,7,10,Ticks_ISO_T2_5,176,1,48,47,867926780
109,7,10,Ticks_ISO_T2_5,177,5,42,127,867928436
109,7,10,Ticks_ISO_T2_5,178,5,42,127,868429260
109,7,10,Ticks_ISO_T2_5,179,1,48,44,868430300
109,7,10,Ticks_ISO_T2_5,180,5,42,127,868928876
109,7,10,Ticks_ISO_T2_5,181,1,48,50,868930512
109,7,10,Ticks_ISO_T2_5,182,1,48,45,869416044
109,7,10,Ticks_ISO_T2_5,183,5,42,127,869428716
109,7,10,Ticks_ISO_T2_5,184,1,48,49,869929612
109,7,10,Ticks_ISO_T2_5,185,5,42,127,869930952
109,7,10,Ticks_ISO_T2_5,186,1,48,44,870405484
109,7,10,Ticks_ISO_T2_5,187,5,42,127,870429080
109,7,10,Ticks_ISO_T2_5,188,5,42,127,870928708
109,7,10,Ticks_ISO_T2_5,189,1,48,47,870932724
109,7,10,Ticks_ISO_T2_5,190,1,48,50,871397096
109,7,10,Ticks_ISO_T2_5,191,5,42,127,871428544
109,7,10,Ticks_ISO_T2_5,192,1,48,48,871908464
109,7,10,Ticks_ISO_T2_5,193,5,42,127,871929288
109,7,10,Ticks_ISO_T2_5,194,1,48,44,872416536
109,7,10,Ticks_ISO_T2_5,195,5,42,127,872428912
109,7,10,Ticks_ISO_T2_5,196,1,48,46,872886132
109,7,10,Ticks_ISO_T2_5,197,5,42,127,872928604
109,7,10,Ticks_ISO_T2_5,198,1,48,40,873393904
109,7,10,Ticks_ISO_T2_5,199,5,42,127,873429472
109,7,10,Ticks_ISO_T2_5,200,1,48,45,873889412
109,7,10,Ticks_ISO_T2_5,201,5,42,127,873929092
109,7,10,Ticks_ISO_T2_5,202,1,48,44,874373180
109,7,10,Ticks_ISO_T2_5,203,5,42,127,874428860
109,7,10,Ticks_ISO_T2_5,204,1,48,46,874889776
109,7,10,Ticks_ISO_T2_5,205,5,42,127,874928480
109,7,10,Ticks_ISO_T2_5,206,1,48,43,875414448
109,7,10,Ticks_ISO_T2_5,207,5,42,127,875429372
109,7,10,Ticks_ISO_T2_5,208,1,48,49,875921028
109,7,10,Ticks_ISO_T2_5,209,5,42,127,875929068
109,7,10,Ticks_ISO_T2_5,210,1,48,47,876416240
109,7,10,Ticks_ISO_T2_5,211,5,42,127,876428612
109,7,10,Ticks_ISO_T2_5,212,5,42,127,876929584
109,7,10,Ticks_ISO_T2_5,213,1,48,43,876943920
109,7,10,Ticks_ISO_T2_5,214,1,48,45,877395652
109,7,10,Ticks_ISO_T2_5,215,5,42,127,877429196
109,7,10,Ticks_ISO_T2_5,216,5,42,127,877928676
109,7,10,Ticks_ISO_T2_5,217,1,48,44,877931416
109,7,10,Ticks_ISO_T2_5,218,1,48,40,878412544
109,7,10,Ticks_ISO_T2_5,219,5,42,127,878428588
109,7,10,Ticks_ISO_T2_5,220,1,48,40,878885912
109,7,10,Ticks_ISO_T2_5,221,5,42,127,878929476
109,7,10,Ticks_ISO_T2_5,222,1,48,48,879389344
109,7,10,Ticks_ISO_T2_5,223,5,42,127,879428948
109,7,10,Ticks_ISO_T2_5,224,1,48,46,879880216
109,7,10,Ticks_ISO_T2_5,225,5,42,127,879928644
109,7,10,Ticks_ISO_T2_5,226,1,48,45,880364496
109,7,10,Ticks_ISO_T2_5,227,5,42,127,880429460
109,7,10,Ticks_ISO_T2_5,228,1,48,43,880891568
109,7,10,Ticks_ISO_T2_5,229,5,42,127,880929376
109,7,10,Ticks_ISO_T2_5,230,1,48,35,881410640
109,7,10,Ticks_ISO_T2_5,231,5,42,127,881428852
109,7,10,Ticks_ISO_T2_5,232,1,48,43,881911008
109,7,10,Ticks_ISO_T2_5,233,5,42,127,881928544
109,7,10,Ticks_ISO_T2_5,234,1,48,48,882416240
109,7,10,Ticks_ISO_T2_5,235,5,42,127,882429440
109,7,10,Ticks_ISO_T2_5,236,5,42,127,882929288
109,7,10,Ticks_ISO_T2_5,237,1,48,45,882930180
109,7,10,Ticks_ISO_T2_5,238,5,42,127,883428688
109,7,10,Ticks_ISO_T2_5,239,1,48,49,883435240
109,7,10,Ticks_ISO_T2_5,240,1,48,51,883915296
109,7,10,Ticks_ISO_T2_5,241,5,42,127,883928500
109,7,10,Ticks_ISO_T2_5,242,1,48,42,884428420
109,7,10,Ticks_ISO_T2_5,243,5,42,127,884430064
109,7,10,Ticks_ISO_T2_5,244,5,42,127,884928868
109,7,10,Ticks_ISO_T2_5,245,1,48,47,884935496
109,7,10,Ticks_ISO_T2_5,246,1,48,47,885414904
109,7,10,Ticks_ISO_T2_5,247,5,42,127,885428556
109,7,10,Ticks_ISO_T2_5,248,1,48,45,885928024
109,7,10,Ticks_ISO_T2_5,249,5,42,127,885929520
109,7,10,Ticks_ISO_T2_5,250,5,42,127,886429368
109,7,10,Ticks_ISO_T2_5,251,1,48,44,886430412
109,7,10,Ticks_ISO_T2_5,252,1,48,42,886902768
109,7,10,Ticks_ISO_T2_5,0,9999,9999,9999,821927024
109,7,10,Ticks_ISO_T2_5,1,9999,9999,9999,822426744
109,7,10,Ticks_ISO_T2_5,2,9999,9999,9999,822926460
109,7,10,Ticks_ISO_T2_5,3,9999,9999,9999,823426100
109,7,10,Ticks_ISO_T2_5,4,9999,9999,9999,823926864
109,7,10,Ticks_ISO_T2_5,5,9999,9999,9999,824426580
109,7,10,Ticks_ISO_T2_5,6,9999,9999,9999,824926296
109,7,10,Ticks_ISO_T2_5,7,9999,9999,9999,825427060
109,7,10,Ticks_ISO_T2_5,8,9999,9999,9999,825926776
109,7,10,Ticks_ISO_T2_5,9,9999,9999,9999,826426476
109,7,10,Ticks_ISO_T2_5,10,9999,9999,9999,826926164
109,7,10,Ticks_ISO_T2_5,11,9999,9999,9999,827426904
109,7,10,Ticks_ISO_T2_5,12,9999,9999,9999,827926604
109,7,10,Ticks_ISO_T2_5,13,9999,9999,9999,828426300
109,7,10,Ticks_ISO_T2_5,14,9999,9999,9999,828927040
109,7,10,Ticks_ISO_T2_5,15,9999,9999,9999,829426812
109,7,10,Ticks_ISO_T2_5,16,9999,9999,9999,829926504
109,7,10,Ticks_ISO_T2_5,17,9999,9999,9999,830426176
109,7,10,Ticks_ISO_T2_5,18,9999,9999,9999,830926908
109,7,10,Ticks_ISO_T2_5,19,9999,9999,9999,831426684
109,7,10,Ticks_ISO_T2_5,20,9999,9999,9999,831926380
109,7,10,Ticks_ISO_T2_5,21,9999,9999,9999,832427116
109,7,10,Ticks_ISO_T2_5,22,9999,9999,9999,832926816
109,7,10,Ticks_ISO_T2_5,23,9999,9999,9999,833426512
109,7,10,Ticks_ISO_T2_5,24,9999,9999,9999,833926208
109,7,10,Ticks_ISO_T2_5,25,9999,9999,9999,834426940
109,7,10,Ticks_ISO_T2_5,26,9999,9999,9999,834926712
109,7,10,Ticks_ISO_T2_5,27,9999,9999,9999,835426412
109,7,10,Ticks_ISO_T2_5,28,9999,9999,9999,835926104
109,7,10,Ticks_ISO_T2_5,29,9999,9999,9999,836426848
109,7,10,Ticks_ISO_T2_5,30,9999,9999,9999,836926540
109,7,10,Ticks_ISO_T2_5,31,9999,9999,9999,837426240
109,7,10,Ticks_ISO_T2_5,32,9999,9999,9999,837926980
109,7,10,Ticks_ISO_T2_5,33,9999,9999,9999,838426676
109,7,10,Ticks_ISO_T2_5,34,9999,9999,9999,838926440
109,7,10,Ticks_ISO_T2_5,35,9999,9999,9999,839426140
109,7,10,Ticks_ISO_T2_5,36,9999,9999,9999,839926876
109,7,10,Ticks_ISO_T2_5,37,9999,9999,9999,840426576
109,7,10,Ticks_ISO_T2_5,38,9999,9999,9999,840926320
109,7,10,Ticks_ISO_T2_5,39,9999,9999,9999,841427056
109,7,10,Ticks_ISO_T2_5,40,9999,9999,9999,841926756
109,7,10,Ticks_ISO_T2_5,41,9999,9999,9999,842426452
109,7,10,Ticks_ISO_T2_5,42,9999,9999,9999,842926144
109,7,10,Ticks_ISO_T2_5,43,9999,9999,9999,843426888
109,7,10,Ticks_ISO_T2_5,44,9999,9999,9999,843926580
109,7,10,Ticks_ISO_T2_5,45,9999,9999,9999,844426348
109,7,10,Ticks_ISO_T2_5,46,9999,9999,9999,844927088
109,7,10,Ticks_ISO_T2_5,47,9999,9999,9999,845426784
109,7,10,Ticks_ISO_T2_5,48,9999,9999,9999,845926476
109,7,10,Ticks_ISO_T2_5,49,9999,9999,9999,846426172
109,7,10,Ticks_ISO_T2_5,50,9999,9999,9999,846926912
109,7,10,Ticks_ISO_T2_5,51,9999,9999,9999,847426684
109,7,10,Ticks_ISO_T2_5,52,9999,9999,9999,847926380
109,7,10,Ticks_ISO_T2_5,53,9999,9999,9999,848427116
109,7,10,Ticks_ISO_T2_5,54,9999,9999,9999,848926816
109,7,10,Ticks_ISO_T2_5,55,9999,9999,9999,849426512
109,7,10,Ticks_ISO_T2_5,56,9999,9999,9999,849926204
109,7,10,Ticks_ISO_T2_5,57,9999,9999,9999,850426940
109,7,10,Ticks_ISO_T2_5,58,9999,9999,9999,850926716
109,7,10,Ticks_ISO_T2_5,59,9999,9999,9999,851426408
109,7,10,Ticks_ISO_T2_5,60,9999,9999,9999,851926080
109,7,10,Ticks_ISO_T2_5,61,9999,9999,9999,852426824
109,7,10,Ticks_ISO_T2_5,62,9999,9999,9999,852926516
109,7,10,Ticks_ISO_T2_5,63,9999,9999,9999,853426280
109,7,10,Ticks_ISO_T2_5,64,9999,9999,9999,853927028
109,7,10,Ticks_ISO_T2_5,65,9999,9999,9999,854426720
109,7,10,Ticks_ISO_T2_5,66,9999,9999,9999,854926408
109,7,10,Ticks_ISO_T2_5,67,9999,9999,9999,855426108
109,7,10,Ticks_ISO_T2_5,68,9999,9999,9999,855926852
109,7,10,Ticks_ISO_T2_5,69,9999,9999,9999,856426612
109,7,10,Ticks_ISO_T2_5,70,9999,9999,9999,856926312
109,7,10,Ticks_ISO_T2_5,71,9999,9999,9999,857427056
109,7,10,Ticks_ISO_T2_5,72,9999,9999,9999,857926752
109,7,10,Ticks_ISO_T2_5,73,9999,9999,9999,858426448
109,7,10,Ticks_ISO_T2_5,74,9999,9999,9999,858926144
109,7,10,Ticks_ISO_T2_5,75,9999,9999,9999,859426884
109,7,10,Ticks_ISO_T2_5,76,9999,9999,9999,859926648
109,7,10,Ticks_ISO_T2_5,77,9999,9999,9999,860426352
109,7,10,Ticks_ISO_T2_5,78,9999,9999,9999,860927084
109,7,10,Ticks_ISO_T2_5,79,9999,9999,9999,861426784
109,7,10,Ticks_ISO_T2_5,80,9999,9999,9999,861926480
109,7,10,Ticks_ISO_T2_5,81,9999,9999,9999,862426224
109,7,10,Ticks_ISO_T2_5,82,9999,9999,9999,862926968
109,7,10,Ticks_ISO_T2_5,83,9999,9999,9999,863426660
109,7,10,Ticks_ISO_T2_5,84,9999,9999,9999,863926360
109,7,10,Ticks_ISO_T2_5,85,9999,9999,9999,864427100
109,7,10,Ticks_ISO_T2_5,86,9999,9999,9999,864926792
109,7,10,Ticks_ISO_T2_5,87,9999,9999,9999,865426488
109,7,10,Ticks_ISO_T2_5,88,9999,9999,9999,865926256
109,7,10,Ticks_ISO_T2_5,89,9999,9999,9999,866427000
109,7,10,Ticks_ISO_T2_5,90,9999,9999,9999,866926692
109,7,10,Ticks_ISO_T2_5,91,9999,9999,9999,867426388
109,7,10,Ticks_ISO_T2_5,92,9999,9999,9999,867926088
109,7,10,Ticks_ISO_T2_5,93,9999,9999,9999,868426824
109,7,10,Ticks_ISO_T2_5,94,9999,9999,9999,868926516
109,7,10,Ticks_ISO_T2_5,95,9999,9999,9999,869426280
109,7,10,Ticks_ISO_T2_5,96,9999,9999,9999,869927028
109,7,10,Ticks_ISO_T2_5,97,9999,9999,9999,870426720
109,7,10,Ticks_ISO_T2_5,98,9999,9999,9999,870926420
109,7,10,Ticks_ISO_T2_5,99,9999,9999,9999,871426112
109,7,10,Ticks_ISO_T2_5,100,9999,9999,9999,871926856
109,7,10,Ticks_ISO_T2_5,101,9999,9999,9999,872426552
109,7,10,Ticks_ISO_T2_5,102,9999,9999,9999,872926320
109,7,10,Ticks_ISO_T2_5,103,9999,9999,9999,873427036
109,7,10,Ticks_ISO_T2_5,104,9999,9999,9999,873926732
109,7,10,Ticks_ISO_T2_5,105,9999,9999,9999,874426428
109,7,10,Ticks_ISO_T2_5,106,9999,9999,9999,874926196
109,7,10,Ticks_ISO_T2_5,107,9999,9999,9999,875426936
109,7,10,Ticks_ISO_T2_5,108,9999,9999,9999,875926632
109,7,10,Ticks_ISO_T2_5,109,9999,9999,9999,876426328
109,7,10,Ticks_ISO_T2_5,110,9999,9999,9999,876927072
109,7,10,Ticks_ISO_T2_5,111,9999,9999,9999,877426760
109,7,10,Ticks_ISO_T2_5,112,9999,9999,9999,877926464
109,7,10,Ticks_ISO_T2_5,113,9999,9999,9999,878426228
109,7,10,Ticks_ISO_T2_5,114,9999,9999,9999,878926968
109,7,10,Ticks_ISO_T2_5,115,9999,9999,9999,879426664
109,7,10,Ticks_ISO_T2_5,116,9999,9999,9999,879926356
109,7,10,Ticks_ISO_T2_5,117,9999,9999,9999,880427100
109,7,10,Ticks_ISO_T2_5,118,9999,9999,9999,880926792
109,7,10,Ticks_ISO_T2_5,119,9999,9999,9999,881426492
109,7,10,Ticks_ISO_T2_5,120,9999,9999,9999,881926260
109,7,10,Ticks_ISO_T2_5,121,9999,9999,9999,882427004
109,7,10,Ticks_ISO_T2_5,122,9999,9999,9999,882926704
109,7,10,Ticks_ISO_T2_5,123,9999,9999,9999,883426400
109,7,10,Ticks_ISO_T2_5,124,9999,9999,9999,883926136
109,7,10,Ticks_ISO_T2_5,125,9999,9999,9999,884426812
109,7,10,Ticks_ISO_T2_5,126,9999,9999,9999,884926580
109,7,10,Ticks_ISO_T2_5,127,9999,9999,9999,885426268
109,7,10,Ticks_ISO_T2_5,128,9999,9999,9999,885927016
109,7,10,Ticks_ISO_T2_5,129,9999,9999,9999,886426712
109,8,9,Ticks_ISO_T2_8,0,5,42,127,896925132
109,8,9,Ticks_ISO_T2_8,1,5,42,127,897724964
109,8,9,Ticks_ISO_T2_8,2,5,42,127,898524496
109,8,9,Ticks_ISO_T2_8,3,5,42,127,899325248
109,8,9,Ticks_ISO_T2_8,4,5,42,127,900125004
109,8,9,Ticks_ISO_T2_8,5,5,42,127,900924984
109,8,9,Ticks_ISO_T2_8,6,5,42,127,901724592
109,8,9,Ticks_ISO_T2_8,7,5,42,127,902525316
109,8,9,Ticks_ISO_T2_8,8,5,42,127,903324996
109,8,9,Ticks_ISO_T2_8,9,1,48,38,903354072
109,8,9,Ticks_ISO_T2_8,10,1,48,33,904080416
109,8,9,Ticks_ISO_T2_8,11,5,42,127,904124800
109,8,9,Ticks_ISO_T2_8,12,1,48,31,904886504
109,8,9,Ticks_ISO_T2_8,13,5,42,127,904924456
109,8,9,Ticks_ISO_T2_8,14,5,42,127,905725168
109,8,9,Ticks_ISO_T2_8,15,1,48,41,905737116
109,8,9,Ticks_ISO_T2_8,16,1,48,38,906504520
109,8,9,Ticks_ISO_T2_8,17,5,42,127,906525044
109,8,9,Ticks_ISO_T2_8,18,1,48,41,907286828
109,8,9,Ticks_ISO_T2_8,19,5,42,127,907324852
109,8,9,Ticks_ISO_T2_8,20,1,48,43,908065916
109,8,9,Ticks_ISO_T2_8,21,5,42,127,908124660
109,8,9,Ticks_ISO_T2_8,22,1,48,38,908868044
109,8,9,Ticks_ISO_T2_8,23,5,42,127,908925220
109,8,9,Ticks_ISO_T2_8,24,1,48,34,909674656
109,8,9,Ticks_ISO_T2_8,25,5,42,127,909724952
109,8,9,Ticks_ISO_T2_8,26,1,48,41,910490772
109,8,9,Ticks_ISO_T2_8,27,5,42,127,910524908
109,8,9,Ticks_ISO_T2_8,28,1,48,35,911316232
109,8,9,Ticks_ISO_T2_8,29,5,42,127,911324964
109,8,9,Ticks_ISO_T2_8,30,5,42,127,912125304
109,8,9,Ticks_ISO_T2_8,31,1,48,32,912129844
109,8,9,Ticks_ISO_T2_8,32,1,48,40,912923148
109,8,9,Ticks_ISO_T2_8,33,5,42,127,912924956
109,8,9,Ticks_ISO_T2_8,34,1,48,29,913680604
109,8,9,Ticks_ISO_T2_8,35,5,42,127,913724840
109,8,9,Ticks_ISO_T2_8,36,1,48,41,914474352
109,8,9,Ticks_ISO_T2_8,37,5,42,127,914524500
109,8,9,Ticks_ISO_T2_8,38,1,48,38,915286876
109,8,9,Ticks_ISO_T2_8,39,5,42,127,915325352
109,8,9,Ticks_ISO_T2_8,40,1,48,40,916087656
109,8,9,Ticks_ISO_T2_8,41,5,42,127,916125160
109,8,9,Ticks_ISO_T2_8,42,1,48,38,916894944
109,8,9,Ticks_ISO_T2_8,43,5,42,127,916924820
109,8,9,Ticks_ISO_T2_8,44,1,48,48,917702980
109,8,9,Ticks_ISO_T2_8,45,5,42,127,917724728
109,8,9,Ticks_ISO_T2_8,46,1,48,44,918522560
109,8,9,Ticks_ISO_T2_8,47,5,42,127,918525212
109,8,9,Ticks_ISO_T2_8,48,1,48,40,919324272
109,8,9,Ticks_ISO_T2_8,49,5,42,127,919325844
109,8,9,Ticks_ISO_T2_8,50,1,48,43,920124080
109,8,9,Ticks_ISO_T2_8,51,5,42,127,920125724
109,8,9,Ticks_ISO_T2_8,52,5,42,127,920924716
109,8,9,Ticks_ISO_T2_8,53,1,48,45,920971968
109,8,9,Ticks_ISO_T2_8,54,1,48,40,921717676
109,8,9,Ticks_ISO_T2_8,55,5,42,127,921725192
109,8,9,Ticks_ISO_T2_8,56,1,48,36,922496324
109,8,9,Ticks_ISO_T2_8,57,5,42,127,922525000
109,8,9,Ticks_ISO_T2_8,58,1,48,42,923247360
109,8,9,Ticks_ISO_T2_8,59,5,42,127,923324732
109,8,9,Ticks_ISO_T2_8,60,1,48,36,924040216
109,8,9,Ticks_ISO_T2_8,61,5,42,127,924124716
109,8,9,Ticks_ISO_T2_8,62,1,48,43,924883700
109,8,9,Ticks_ISO_T2_8,63,5,42,127,924925568
109,8,9,Ticks_ISO_T2_8,64,5,42,127,925725012
109,8,9,Ticks_ISO_T2_8,65,1,48,36,925730300
109,8,9,Ticks_ISO_T2_8,66,5,42,127,926524896
109,8,9,Ticks_ISO_T2_8,67,1,48,39,926552996
109,8,9,Ticks_ISO_T2_8,68,5,42,127,927324776
109,8,9,Ticks_ISO_T2_8,69,1,48,43,927336348
109,8,9,Ticks_ISO_T2_8,70,1,48,40,928108540
109,8,9,Ticks_ISO_T2_8,71,5,42,127,928125404
109,8,9,Ticks_ISO_T2_8,72,1,48,40,928907976
109,8,9,Ticks_ISO_T2_8,73,5,42,127,928925060
109,8,9,Ticks_ISO_T2_8,74,1,48,38,929722908
109,8,9,Ticks_ISO_T2_8,75,5,42,127,929724724
109,8,9,Ticks_ISO_T2_8,76,5,42,127,930524636
109,8,9,Ticks_ISO_T2_8,77,1,48,43,930546304
109,8,9,Ticks_ISO_T2_8,78,1,48,43,931311988
109,8,9,Ticks_ISO_T2_8,79,5,42,127,931325336
109,8,9,Ticks_ISO_T2_8,80,1,48,39,932098856
109,8,9,Ticks_ISO_T2_8,81,5,42,127,932124996
109,8,9,Ticks_ISO_T2_8,82,1,48,43,932858276
109,8,9,Ticks_ISO_T2_8,83,5,42,127,932924652
109,8,9,Ticks_ISO_T2_8,84,1,48,40,933658760
109,8,9,Ticks_ISO_T2_8,85,5,42,127,933724536
109,8,9,Ticks_ISO_T2_8,86,1,48,42,934497232
109,8,9,Ticks_ISO_T2_8,87,5,42,127,934525388
109,8,9,Ticks_ISO_T2_8,88,5,42,127,935325204
109,8,9,Ticks_ISO_T2_8,89,1,48,45,935326616
109,8,9,Ticks_ISO_T2_8,90,5,42,127,936124716
109,8,9,Ticks_ISO_T2_8,91,1,48,45,936139576
109,8,9,Ticks_ISO_T2_8,92,5,42,127,936924548
109,8,9,Ticks_ISO_T2_8,93,1,48,44,936979804
109,8,9,Ticks_ISO_T2_8,94,1,48,43,937702552
109,8,9,Ticks_ISO_T2_8,95,5,42,127,937725320
109,8,9,Ticks_ISO_T2_8,96,1,48,43,938519188
109,8,9,Ticks_ISO_T2_8,97,5,42,127,938524980
109,8,9,Ticks_ISO_T2_8,98,1,48,42,939316752
109,8,9,Ticks_ISO_T2_8,99,5,42,127,939324788
109,8,9,Ticks_ISO_T2_8,100,1,48,43,940103468
109,8,9,Ticks_ISO_T2_8,101,5,42,127,940124596
109,8,9,Ticks_ISO_T2_8,102,1,48,43,940911204
109,8,9,Ticks_ISO_T2_8,103,5,42,127,940925300
109,8,9,Ticks_ISO_T2_8,104,1,48,41,941702712
109,8,9,Ticks_ISO_T2_8,105,5,42,127,941724960
109,8,9,Ticks_ISO_T2_8,106,1,48,39,942466396
109,8,9,Ticks_ISO_T2_8,107,5,42,127,942524768
109,8,9,Ticks_ISO_T2_8,108,1,48,39,943236508
109,8,9,Ticks_ISO_T2_8,109,5,42,127,943324524
109,8,9,Ticks_ISO_T2_8,110,1,48,35,944076108
109,8,9,Ticks_ISO_T2_8,111,5,42,127,944125452
109,8,9,Ticks_ISO_T2_8,112,1,48,40,944867188
109,8,9,Ticks_ISO_T2_8,113,5,42,127,944925112
109,8,9,Ticks_ISO_T2_8,114,1,48,40,945674400
109,8,9,Ticks_ISO_T2_8,115,5,42,127,945724772
109,8,9,Ticks_ISO_T2_8,116,1,48,45,946487304
109,8,9,Ticks_ISO_T2_8,117,5,42,127,946524432
109,8,9,Ticks_ISO_T2_8,118,1,48,48,947216344
109,8,9,Ticks_ISO_T2_8,119,5,42,127,947325344
109,8,9,Ticks_ISO_T2_8,120,1,48,39,948043604
109,8,9,Ticks_ISO_T2_8,121,5,42,127,948125168
109,8,9,Ticks_ISO_T2_8,122,1,48,38,948877972
109,8,9,Ticks_ISO_T2_8,123,5,42,127,948924752
109,8,9,Ticks_ISO_T2_8,124,1,48,44,949653020
109,8,9,Ticks_ISO_T2_8,125,5,42,127,949724436
109,8,9,Ticks_ISO_T2_8,126,1,48,38,950478484
109,8,9,Ticks_ISO_T2_8,127,5,42,127,950525364
109,8,9,Ticks_ISO_T2_8,128,5,42,127,951325252
109,8,9,Ticks_ISO_T2_8,129,1,48,40,951353276
109,8,9,Ticks_ISO_T2_8,130,1,48,43,952088748
109,8,9,Ticks_ISO_T2_8,131,5,42,127,952124680
109,8,9,Ticks_ISO_T2_8,132,1,48,36,952923816
109,8,9,Ticks_ISO_T2_8,133,5,42,127,952925460
109,8,9,Ticks_ISO_T2_8,134,5,42,127,953725348
109,8,9,Ticks_ISO_T2_8,135,1,48,41,953732136
109,8,9,Ticks_ISO_T2_8,136,5,42,127,954525304
109,8,9,Ticks_ISO_T2_8,137,1,48,39,954599208
109,8,9,Ticks_ISO_T2_8,138,5,42,127,955324816
109,8,9,Ticks_ISO_T2_8,139,1,48,36,955354884
109,8,9,Ticks_ISO_T2_8,140,5,42,127,956124648
109,8,9,Ticks_ISO_T2_8,141,1,48,40,956143104
109,8,9,Ticks_ISO_T2_8,142,1,48,47,956913496
109,8,9,Ticks_ISO_T2_8,143,5,42,127,956925200
109,8,9,Ticks_ISO_T2_8,144,5,42,127,957725164
109,8,9,Ticks_ISO_T2_8,145,1,48,37,957747512
109,8,9,Ticks_ISO_T2_8,146,5,42,127,958524972
109,8,9,Ticks_ISO_T2_8,147,1,48,47,958531160
109,8,9,Ticks_ISO_T2_8,148,5,42,127,959324556
109,8,9,Ticks_ISO_T2_8,149,1,48,41,959350340
109,8,9,Ticks_ISO_T2_8,150,5,42,127,960125164
109,8,9,Ticks_ISO_T2_8,151,1,48,48,960152144
109,8,9,Ticks_ISO_T2_8,152,1,48,43,960912960
109,8,9,Ticks_ISO_T2_8,153,5,42,127,960924964
109,8,9,Ticks_ISO_T2_8,154,1,48,38,961686140
109,8,9,Ticks_ISO_T2_8,155,5,42,127,961725068
109,8,9,Ticks_ISO_T2_8,156,1,48,37,962514596
109,8,9,Ticks_ISO_T2_8,157,5,42,127,962524380
109,8,9,Ticks_ISO_T2_8,158,1,48,43,963287408
109,8,9,Ticks_ISO_T2_8,159,5,42,127,963325236
109,8,9,Ticks_ISO_T2_8,160,1,48,43,964077364
109,8,9,Ticks_ISO_T2_8,161,5,42,127,964124892
109,8,9,Ticks_ISO_T2_8,162,1,48,39,964891760
109,8,9,Ticks_ISO_T2_8,163,5,42,127,964924924
109,8,9,Ticks_ISO_T2_8,164,1,48,39,965698300
109,8,9,Ticks_ISO_T2_8,165,5,42,127,965724512
109,8,9,Ticks_ISO_T2_8,166,1,48,39,966502292
109,8,9,Ticks_ISO_T2_8,167,5,42,127,966525440
109,8,9,Ticks_ISO_T2_8,168,5,42,127,967324956
109,8,9,Ticks_ISO_T2_8,169,1,48,39,967337500
109,8,9,Ticks_ISO_T2_8,170,5,42,127,968124912
109,8,9,Ticks_ISO_T2_8,171,1,48,43,968169048
109,8,9,Ticks_ISO_T2_8,172,1,48,45,968887364
109,8,9,Ticks_ISO_T2_8,173,5,42,127,968924960
109,8,9,Ticks_ISO_T2_8,174,1,48,46,969680960
109,8,9,Ticks_ISO_T2_8,175,5,42,127,969725296
109,8,9,Ticks_ISO_T2_8,176,1,48,46,970505328
109,8,9,Ticks_ISO_T2_8,177,5,42,127,970525104
109,8,9,Ticks_ISO_T2_8,178,1,48,42,971275212
109,8,9,Ticks_ISO_T2_8,179,5,42,127,971324912
109,8,9,Ticks_ISO_T2_8,180,1,48,46,972080708
109,8,9,Ticks_ISO_T2_8,181,5,42,127,972124424
109,8,9,Ticks_ISO_T2_8,182,1,48,46,972874456
109,8,9,Ticks_ISO_T2_8,183,5,42,127,972925200
109,8,9,Ticks_ISO_T2_8,184,1,48,45,973712784
109,8,9,Ticks_ISO_T2_8,185,5,42,127,973725008
109,8,9,Ticks_ISO_T2_8,186,1,48,38,974520220
109,8,9,Ticks_ISO_T2_8,187,5,42,127,974524892
109,8,9,Ticks_ISO_T2_8,188,5,42,127,975324584
109,8,9,Ticks_ISO_T2_8,189,1,48,47,975343036
109,8,9,Ticks_ISO_T2_8,190,1,48,46,976121660
109,8,9,Ticks_ISO_T2_8,191,5,42,127,976125284
109,8,9,Ticks_ISO_T2_8,192,5,42,127,976925024
109,8,9,Ticks_ISO_T2_8,193,1,48,48,976959332
109,8,9,Ticks_ISO_T2_8,194,5,42,127,977724684
109,8,9,Ticks_ISO_T2_8,195,1,48,35,977784348
109,8,9,Ticks_ISO_T2_8,196,1,48,46,978510512
109,8,9,Ticks_ISO_T2_8,197,5,42,127,978524608
109,8,9,Ticks_ISO_T2_8,198,1,48,31,979322436
109,8,9,Ticks_ISO_T2_8,199,5,42,127,979325164
109,8,9,Ticks_ISO_T2_8,200,5,42,127,980124904
109,8,9,Ticks_ISO_T2_8,201,1,48,36,980140368
109,8,9,Ticks_ISO_T2_8,202,1,48,48,980915168
109,8,9,Ticks_ISO_T2_8,203,5,42,127,980924704
109,8,9,Ticks_ISO_T2_8,204,1,48,40,981686860
109,8,9,Ticks_ISO_T2_8,205,5,42,127,981724612
109,8,9,Ticks_ISO_T2_8,206,1,48,38,982497464
109,8,9,Ticks_ISO_T2_8,207,5,42,127,982525244
109,8,9,Ticks_ISO_T2_8,208,1,48,43,983313124
109,8,9,Ticks_ISO_T2_8,209,5,42,127,983324976
109,8,9,Ticks_ISO_T2_8,210,5,42,127,984124792
109,8,9,Ticks_ISO_T2_8,211,1,48,40,984132628
109,8,9,Ticks_ISO_T2_8,212,5,42,127,984924600
109,8,9,Ticks_ISO_T2_8,213,1,48,46,984925564
109,8,9,Ticks_ISO_T2_8,214,5,42,127,985725232
109,8,9,Ticks_ISO_T2_8,215,1,48,43,985727900
109,8,9,Ticks_ISO_T2_8,216,1,48,44,986514376
109,8,9,Ticks_ISO_T2_8,217,5,42,127,986525032
109,8,9,Ticks_ISO_T2_8,218,1,48,41,987286360
109,8,9,Ticks_ISO_T2_8,219,5,42,127,987324840
109,8,9,Ticks_ISO_T2_8,220,5,42,127,988124604
109,8,9,Ticks_ISO_T2_8,221,1,48,37,988126980
109,8,9,Ticks_ISO_T2_8,222,1,48,45,988897972
109,8,9,Ticks_ISO_T2_8,223,5,42,127,988925228
109,8,9,Ticks_ISO_T2_8,224,5,42,127,989724968
109,8,9,Ticks_ISO_T2_8,225,1,48,30,989744016
109,8,9,Ticks_ISO_T2_8,226,5,42,127,990524628
109,8,9,Ticks_ISO_T2_8,227,1,48,42,990539868
109,8,9,Ticks_ISO_T2_8,228,1,48,44,991317444
109,8,9,Ticks_ISO_T2_8,229,5,42,127,991324652
109,8,9,Ticks_ISO_T2_8,230,1,48,48,992096228
109,8,9,Ticks_ISO_T2_8,231,5,42,127,992125284
109,8,9,Ticks_ISO_T2_8,232,1,48,42,992892224
109,8,9,Ticks_ISO_T2_8,0,9999,9999,9999,896922696
109,8,9,Ticks_ISO_T2_8,1,9999,9999,9999,897722452
109,8,9,Ticks_ISO_T2_8,2,9999,9999,9999,898522208
109,8,9,Ticks_ISO_T2_8,3,9999,9999,9999,899322960
109,8,9,Ticks_ISO_T2_8,4,9999,9999,9999,900122716
109,8,9,Ticks_ISO_T2_8,5,9999,9999,9999,900922472
109,8,9,Ticks_ISO_T2_8,6,9999,9999,9999,901722228
109,8,9,Ticks_ISO_T2_8,7,9999,9999,9999,902522956
109,8,9,Ticks_ISO_T2_8,8,9999,9999,9999,903322708
109,8,9,Ticks_ISO_T2_8,9,9999,9999,9999,904122436
109,8,9,Ticks_ISO_T2_8,10,9999,9999,9999,904922168
109,8,9,Ticks_ISO_T2_8,11,9999,9999,9999,905722956
109,8,9,Ticks_ISO_T2_8,12,9999,9999,9999,906522684
109,8,9,Ticks_ISO_T2_8,13,9999,9999,9999,907322416
109,8,9,Ticks_ISO_T2_8,14,9999,9999,9999,908122224
109,8,9,Ticks_ISO_T2_8,15,9999,9999,9999,908922932
109,8,9,Ticks_ISO_T2_8,16,9999,9999,9999,909722740
109,8,9,Ticks_ISO_T2_8,17,9999,9999,9999,910522472
109,8,9,Ticks_ISO_T2_8,18,9999,9999,9999,911322204
109,8,9,Ticks_ISO_T2_8,19,9999,9999,9999,912122944
109,8,9,Ticks_ISO_T2_8,20,9999,9999,9999,912922692
109,8,9,Ticks_ISO_T2_8,21,9999,9999,9999,913722476
109,8,9,Ticks_ISO_T2_8,22,9999,9999,9999,914522212
109,8,9,Ticks_ISO_T2_8,23,9999,9999,9999,915322992
109,8,9,Ticks_ISO_T2_8,24,9999,9999,9999,916122724
109,8,9,Ticks_ISO_T2_8,25,9999,9999,9999,916922460
109,8,9,Ticks_ISO_T2_8,26,9999,9999,9999,917722192
109,8,9,Ticks_ISO_T2_8,27,9999,9999,9999,918522996
109,8,9,Ticks_ISO_T2_8,28,9999,9999,9999,919322736
109,8,9,Ticks_ISO_T2_8,29,9999,9999,9999,920122472
109,8,9,Ticks_ISO_T2_8,30,9999,9999,9999,920922204
109,8,9,Ticks_ISO_T2_8,31,9999,9999,9999,921722976
109,8,9,Ticks_ISO_T2_8,32,9999,9999,9999,922522712
109,8,9,Ticks_ISO_T2_8,33,9999,9999,9999,923322444
109,8,9,Ticks_ISO_T2_8,34,9999,9999,9999,924122180
109,8,9,Ticks_ISO_T2_8,35,9999,9999,9999,924922984
109,8,9,Ticks_ISO_T2_8,36,9999,9999,9999,925722724
109,8,9,Ticks_ISO_T2_8,37,9999,9999,9999,926522460
109,8,9,Ticks_ISO_T2_8,38,9999,9999,9999,927322192
109,8,9,Ticks_ISO_T2_8,39,9999,9999,9999,928122968
109,8,9,Ticks_ISO_T2_8,40,9999,9999,9999,928922700
109,8,9,Ticks_ISO_T2_8,41,9999,9999,9999,929722456
109,8,9,Ticks_ISO_T2_8,42,9999,9999,9999,930522176
109,8,9,Ticks_ISO_T2_8,43,9999,9999,9999,931322972
109,8,9,Ticks_ISO_T2_8,44,9999,9999,9999,932122708
109,8,9,Ticks_ISO_T2_8,45,9999,9999,9999,932922440
109,8,9,Ticks_ISO_T2_8,46,9999,9999,9999,933722172
109,8,9,Ticks_ISO_T2_8,47,9999,9999,9999,934522952
109,8,9,Ticks_ISO_T2_8,48,9999,9999,9999,935322692
109,8,9,Ticks_ISO_T2_8,49,9999,9999,9999,936122428
109,8,9,Ticks_ISO_T2_8,50,9999,9999,9999,936922160
109,8,9,Ticks_ISO_T2_8,51,9999,9999,9999,937722960
109,8,9,Ticks_ISO_T2_8,52,9999,9999,9999,938522692
109,8,9,Ticks_ISO_T2_8,53,9999,9999,9999,939322424
109,8,9,Ticks_ISO_T2_8,54,9999,9999,9999,940122160
109,8,9,Ticks_ISO_T2_8,55,9999,9999,9999,940922936
109,8,9,Ticks_ISO_T2_8,56,9999,9999,9999,941722672
109,8,9,Ticks_ISO_T2_8,57,9999,9999,9999,942522480
109,8,9,Ticks_ISO_T2_8,58,9999,9999,9999,943322212
109,8,9,Ticks_ISO_T2_8,59,9999,9999,9999,944122944
109,8,9,Ticks_ISO_T2_8,60,9999,9999,9999,944922676
109,8,9,Ticks_ISO_T2_8,61,9999,9999,9999,945722484
109,8,9,Ticks_ISO_T2_8,62,9999,9999,9999,946522216
109,8,9,Ticks_ISO_T2_8,63,9999,9999,9999,947322980
109,8,9,Ticks_ISO_T2_8,64,9999,9999,9999,948122732
109,8,9,Ticks_ISO_T2_8,65,9999,9999,9999,948922464
109,8,9,Ticks_ISO_T2_8,66,9999,9999,9999,949722220
109,8,9,Ticks_ISO_T2_8,67,9999,9999,9999,950522928
109,8,9,Ticks_ISO_T2_8,68,9999,9999,9999,951322740
109,8,9,Ticks_ISO_T2_8,69,9999,9999,9999,952122468
109,8,9,Ticks_ISO_T2_8,70,9999,9999,9999,952922204
109,8,9,Ticks_ISO_T2_8,71,9999,9999,9999,953722988
109,8,9,Ticks_ISO_T2_8,72,9999,9999,9999,954522720
109,8,9,Ticks_ISO_T2_8,73,9999,9999,9999,955322452
109,8,9,Ticks_ISO_T2_8,74,9999,9999,9999,956122212
109,8,9,Ticks_ISO_T2_8,75,9999,9999,9999,956922988
109,8,9,Ticks_ISO_T2_8,76,9999,9999,9999,957722728
109,8,9,Ticks_ISO_T2_8,77,9999,9999,9999,958522460
109,8,9,Ticks_ISO_T2_8,78,9999,9999,9999,959322196
109,8,9,Ticks_ISO_T2_8,79,9999,9999,9999,960122948
109,8,9,Ticks_ISO_T2_8,80,9999,9999,9999,960922676
109,8,9,Ticks_ISO_T2_8,81,9999,9999,9999,961722484
109,8,9,Ticks_ISO_T2_8,82,9999,9999,9999,962522168
109,8,9,Ticks_ISO_T2_8,83,9999,9999,9999,963322948
109,8,9,Ticks_ISO_T2_8,84,9999,9999,9999,964122680
109,8,9,Ticks_ISO_T2_8,85,9999,9999,9999,964922416
109,8,9,Ticks_ISO_T2_8,86,9999,9999,9999,965722224
109,8,9,Ticks_ISO_T2_8,87,9999,9999,9999,966522928
109,8,9,Ticks_ISO_T2_8,88,9999,9999,9999,967322740
109,8,9,Ticks_ISO_T2_8,89,9999,9999,9999,968122476
109,8,9,Ticks_ISO_T2_8,90,9999,9999,9999,968922228
109,8,9,Ticks_ISO_T2_8,91,9999,9999,9999,969722932
109,8,9,Ticks_ISO_T2_8,92,9999,9999,9999,970522740
109,8,9,Ticks_ISO_T2_8,93,9999,9999,9999,971322476
109,8,9,Ticks_ISO_T2_8,94,9999,9999,9999,972122208
109,8,9,Ticks_ISO_T2_8,95,9999,9999,9999,972922988
109,8,9,Ticks_ISO_T2_8,96,9999,9999,9999,973722720
109,8,9,Ticks_ISO_T2_8,97,9999,9999,9999,974522456
109,8,9,Ticks_ISO_T2_8,98,9999,9999,9999,975322220
109,8,9,Ticks_ISO_T2_8,99,9999,9999,9999,976122996
109,8,9,Ticks_ISO_T2_8,100,9999,9999,9999,976922736
109,8,9,Ticks_ISO_T2_8,101,9999,9999,9999,977722468
109,8,9,Ticks_ISO_T2_8,102,9999,9999,9999,978522172
109,8,9,Ticks_ISO_T2_8,103,9999,9999,9999,979322952
109,8,9,Ticks_ISO_T2_8,104,9999,9999,9999,980122692
109,8,9,Ticks_ISO_T2_8,105,9999,9999,9999,980922416
109,8,9,Ticks_ISO_T2_8,106,9999,9999,9999,981722176
109,8,9,Ticks_ISO_T2_8,107,9999,9999,9999,982522956
109,8,9,Ticks_ISO_T2_8,108,9999,9999,9999,983322688
109,8,9,Ticks_ISO_T2_8,109,9999,9999,9999,984122428
109,8,9,Ticks_ISO_T2_8,110,9999,9999,9999,984922164
109,8,9,Ticks_ISO_T2_8,111,9999,9999,9999,985722944
109,8,9,Ticks_ISO_T2_8,112,9999,9999,9999,986522668
109,8,9,Ticks_ISO_T2_8,113,9999,9999,9999,987322476
109,8,9,Ticks_ISO_T2_8,114,9999,9999,9999,988122168
109,8,9,Ticks_ISO_T2_8,115,9999,9999,9999,988922940
109,8,9,Ticks_ISO_T2_8,116,9999,9999,9999,989722680
109,8,9,Ticks_ISO_T2_8,117,9999,9999,9999,990522416
109,8,9,Ticks_ISO_T2_8,118,9999,9999,9999,991322216
109,8,9,Ticks_ISO_T2_8,119,9999,9999,9999,992122996
109,9,23,Ticks_Phase_5,0,5,42,127,1003416928
109,9,23,Ticks_Phase_5,1,5,42,127,1003916712
109,9,23,Ticks_Phase_5,2,5,42,127,1004417392
109,9,23,Ticks_Phase_5,3,5,42,127,1004917400
109,9,23,Ticks_Phase_5,4,5,42,127,1005416740
109,9,23,Ticks_Phase_5,5,5,42,127,1005916596
109,9,23,Ticks_Phase_5,6,5,42,127,1006417428
109,9,23,Ticks_Phase_5,7,5,42,127,1006916840
109,9,23,Ticks_Phase_5,8,5,42,127,1007416628
109,9,23,Ticks_Phase_5,9,5,42,127,1007917384
109,9,23,Ticks_Phase_5,10,5,42,127,1008427504
109,9,23,Ticks_Phase_5,11,5,42,127,1008927288
109,9,23,Ticks_Phase_5,12,5,42,127,1009426848
109,9,23,Ticks_Phase_5,13,1,48,45,1009479992
109,9,23,Ticks_Phase_5,14,5,42,127,1009926388
109,9,23,Ticks_Phase_5,15,1,48,47,1009979080
109,9,23,Ticks_Phase_5,16,5,42,127,1010427344
109,9,23,Ticks_Phase_5,17,1,48,47,1010485136
109,9,23,Ticks_Phase_5,18,5,42,127,1010927184
109,9,23,Ticks_Phase_5,19,1,48,46,1010973060
109,9,23,Ticks_Phase_5,20,5,42,127,1011426724
109,9,23,Ticks_Phase_5,21,1,48,45,1011446920
109,9,23,Ticks_Phase_5,22,5,42,127,1011927356
109,9,23,Ticks_Phase_5,23,1,48,42,1011949724
109,9,23,Ticks_Phase_5,24,5,42,127,1012427468
109,9,23,Ticks_Phase_5,25,1,48,44,1012428884
109,9,23,Ticks_Phase_5,26,5,42,127,1012927084
109,9,23,Ticks_Phase_5,27,1,48,40,1012934780
109,9,23,Ticks_Phase_5,28,5,42,127,1013426548
109,9,23,Ticks_Phase_5,29,1,48,48,1013438276
109,9,23,Ticks_Phase_5,30,5,42,127,1013927432
109,9,23,Ticks_Phase_5,31,1,48,44,1013941180
109,9,23,Ticks_Phase_5,32,1,48,48,1014427192
109,9,23,Ticks_Phase_5,33,5,42,127,1014428532
109,9,23,Ticks_Phase_5,34,5,42,127,1014926660
109,9,23,Ticks_Phase_5,35,1,48,45,1014947008
109,9,23,Ticks_Phase_5,36,5,42,127,1015426348
109,9,23,Ticks_Phase_5,37,1,48,46,1015442264
109,9,23,Ticks_Phase_5,38,1,48,46,1015913256
109,9,23,Ticks_Phase_5,39,5,42,127,1015927148
109,9,23,Ticks_Phase_5,40,1,48,41,1016409804
109,9,23,Ticks_Phase_5,41,5,42,127,1016426984
109,9,23,Ticks_Phase_5,42,1,48,42,1016924712
109,9,23,Ticks_Phase_5,43,5,42,127,1016926452
109,9,23,Ticks_Phase_5,44,5,42,127,1017427344
109,9,23,Ticks_Phase_5,45,1,48,44,1017449636
109,9,23,Ticks_Phase_5,46,1,48,42,1017913512
109,9,23,Ticks_Phase_5,47,5,42,127,1017927104
109,9,23,Ticks_Phase_5,48,1,48,47,1018390360
109,9,23,Ticks_Phase_5,49,5,42,127,1018416456
109,9,23,Ticks_Phase_5,50,1,48,49,1018899492
109,9,23,Ticks_Phase_5,51,5,42,127,1018917268
109,9,23,Ticks_Phase_5,52,1,48,48,1019407720
109,9,23,Ticks_Phase_5,53,5,42,127,1019417032
109,9,23,Ticks_Phase_5,54,1,48,44,1019901780
109,9,23,Ticks_Phase_5,55,5,42,127,1019916792
109,9,23,Ticks_Phase_5,56,1,48,49,1020415188
109,9,23,Ticks_Phase_5,57,5,42,127,1020417304
109,9,23,Ticks_Phase_5,58,5,42,127,1020917076
109,9,23,Ticks_Phase_5,59,1,48,46,1020918636
109,9,23,Ticks_Phase_5,60,5,42,127,1021416988
109,9,23,Ticks_Phase_5,61,1,48,46,1021431188
109,9,23,Ticks_Phase_5,62,1,48,47,1021914780
109,9,23,Ticks_Phase_5,63,5,42,127,1021916372
109,9,23,Ticks_Phase_5,64,1,48,50,1022386200
109,9,23,Ticks_Phase_5,65,5,42,127,1022417156
109,9,23,Ticks_Phase_5,66,1,48,43,1022900412
109,9,23,Ticks_Phase_5,67,5,42,127,1022916920
109,9,23,Ticks_Phase_5,68,5,42,127,1023416540
109,9,23,Ticks_Phase_5,69,1,48,53,1023457728
109,9,23,Ticks_Phase_5,70,5,42,127,1023917348
109,9,23,Ticks_Phase_5,71,1,48,45,1023950124
109,9,23,Ticks_Phase_5,72,5,42,127,1024427372
109,9,23,Ticks_Phase_5,73,1,48,46,1024450260
109,9,23,Ticks_Phase_5,74,5,42,127,1024927060
109,9,23,Ticks_Phase_5,75,1,48,44,1024955424
109,9,23,Ticks_Phase_5,76,5,42,127,1025426748
109,9,23,Ticks_Phase_5,77,1,48,47,1025427712
109,9,23,Ticks_Phase_5,78,5,42,127,1025926512
109,9,23,Ticks_Phase_5,79,1,48,44,1025948200
109,9,23,Ticks_Phase_5,80,5,42,127,1026427244
109,9,23,Ticks_Phase_5,81,1,48,39,1026461584
109,9,23,Ticks_Phase_5,82,1,48,32,1026889076
109,9,23,Ticks_Phase_5,83,5,42,127,1026927076
109,9,23,Ticks_Phase_5,84,5,42,127,1027436956
109,9,23,Ticks_Phase_5,85,1,48,47,1027445248
109,9,23,Ticks_Phase_5,86,5,42,127,1027936496
109,9,23,Ticks_Phase_5,87,1,48,44,1027960504
109,9,23,Ticks_Phase_5,88,5,42,127,1028437232
109,9,23,Ticks_Phase_5,89,1,48,37,1028467912
109,9,23,Ticks_Phase_5,90,5,42,127,1028937068
109,9,23,Ticks_Phase_5,91,1,48,45,1028967748
109,9,23,Ticks_Phase_5,92,5,42,127,1029436828
109,9,23,Ticks_Phase_5,93,1,48,47,1029453568
109,9,23,Ticks_Phase_5,94,5,42,127,1029936444
109,9,23,Ticks_Phase_5,95,1,48,51,1029967720
109,9,23,Ticks_Phase_5,96,5,42,127,1030437180
109,9,23,Ticks_Phase_5,97,1,48,51,1030479688
109,9,23,Ticks_Phase_5,98,5,42,127,1030937016
109,9,23,Ticks_Phase_5,99,1,48,50,1030989560
109,9,23,Ticks_Phase_5,100,5,42,127,1031436780
109,9,23,Ticks_Phase_5,101,1,48,51,1031484224
109,9,23,Ticks_Phase_5,102,5,42,127,1031937368
109,9,23,Ticks_Phase_5,103,1,48,49,1031990132
109,9,23,Ticks_Phase_5,104,5,42,127,1032437060
109,9,23,Ticks_Phase_5,105,1,48,36,1032518736
109,9,23,Ticks_Phase_5,106,5,42,127,1032936748
109,9,23,Ticks_Phase_5,107,1,48,49,1032999844
109,9,23,Ticks_Phase_5,108,5,42,127,1033436656
109,9,23,Ticks_Phase_5,109,1,48,45,1033457752
109,9,23,Ticks_Phase_5,110,5,42,127,1033937216
109,9,23,Ticks_Phase_5,111,1,48,46,1033956392
109,9,23,Ticks_Phase_5,112,5,42,127,1034436908
109,9,23,Ticks_Phase_5,113,1,48,49,1034442192
109,9,23,Ticks_Phase_5,114,5,42,127,1034936820
109,9,23,Ticks_Phase_5,115,1,48,42,1034964640
109,9,23,Ticks_Phase_5,116,5,42,127,1035456800
109,9,23,Ticks_Phase_5,117,1,48,49,1035465768
109,9,23,Ticks_Phase_5,118,1,48,52,1035917884
109,9,23,Ticks_Phase_5,119,5,42,127,1035956708
109,9,23,Ticks_Phase_5,120,1,48,48,1036449852
109,9,23,Ticks_Phase_5,121,5,42,127,1036457292
109,9,23,Ticks_Phase_5,122,5,42,127,1036956988
109,9,23,Ticks_Phase_5,123,1,48,47,1036972756
109,9,23,Ticks_Phase_5,124,5,42,127,1037456752
109,9,23,Ticks_Phase_5,125,1,48,48,1037468556
109,9,23,Ticks_Phase_5,126,5,42,127,1037956660
109,9,23,Ticks_Phase_5,127,1,48,51,1037987268
109,9,23,Ticks_Phase_5,128,5,42,127,1038457248
109,9,23,Ticks_Phase_5,129,1,48,44,1038474292
109,9,23,Ticks_Phase_5,130,5,42,127,1038956936
109,9,23,Ticks_Phase_5,131,1,48,47,1038986868
109,9,23,Ticks_Phase_5,132,5,42,127,1039456848
109,9,23,Ticks_Phase_5,133,1,48,53,1039485804
109,9,23,Ticks_Phase_5,134,5,42,127,1039957432
109,9,23,Ticks_Phase_5,135,1,48,47,1039975536
109,9,23,Ticks_Phase_5,136,5,42,127,1040457048
109,9,23,Ticks_Phase_5,137,1,48,46,1040508996
109,9,23,Ticks_Phase_5,138,5,42,127,1040956736
109,9,23,Ticks_Phase_5,139,1,48,46,1040960528
109,9,23,Ticks_Phase_5,140,5,42,127,1041456720
109,9,23,Ticks_Phase_5,141,1,48,42,1041480504
109,9,23,Ticks_Phase_5,142,5,42,127,1041957156
109,9,23,Ticks_Phase_5,143,1,48,46,1041981388
109,9,23,Ticks_Phase_5,144,5,42,127,1042456844
109,9,23,Ticks_Phase_5,145,1,48,46,1042476516
109,9,23,Ticks_Phase_5,146,5,42,127,1042956680
109,9,23,Ticks_Phase_5,147,1,48,44,1042970732
109,9,23,Ticks_Phase_5,148,5,42,127,1043457344
109,9,23,Ticks_Phase_5,149,1,48,48,1043486448
109,9,23,Ticks_Phase_5,150,5,42,127,1043936736
109,9,23,Ticks_Phase_5,151,1,48,46,1043946372
109,9,23,Ticks_Phase_5,152,5,42,127,1044437448
109,9,23,Ticks_Phase_5,153,1,48,45,1044473584
109,9,23,Ticks_Phase_5,154,5,42,127,1044937036
109,9,23,Ticks_Phase_5,155,1,48,47,1044945404
109,9,23,Ticks_Phase_5,156,1,48,46,1045434280
109,9,23,Ticks_Phase_5,157,5,42,127,1045436796
109,9,23,Ticks_Phase_5,158,1,48,43,1045933152
109,9,23,Ticks_Phase_5,159,5,42,127,1045936632
109,9,23,Ticks_Phase_5,160,1,48,44,1046425356
109,9,23,Ticks_Phase_5,161,5,42,127,1046437216
109,9,23,Ticks_Phase_5,162,1,48,43,1046927288
109,9,23,Ticks_Phase_5,163,5,42,127,1046936832
109,9,23,Ticks_Phase_5,164,5,42,127,1047436752
109,9,23,Ticks_Phase_5,165,1,48,52,1047448708
109,9,23,Ticks_Phase_5,166,5,42,127,1047937260
109,9,23,Ticks_Phase_5,167,1,48,44,1047946300
109,9,23,Ticks_Phase_5,168,1,48,51,1048428520
109,9,23,Ticks_Phase_5,169,5,42,127,1048437164
109,9,23,Ticks_Phase_5,170,5,42,127,1048936860
109,9,23,Ticks_Phase_5,171,1,48,45,1048957060
109,9,23,Ticks_Phase_5,172,5,42,127,1049436844
109,9,23,Ticks_Phase_5,173,1,48,49,1049443776
109,9,23,Ticks_Phase_5,174,1,48,42,1049921216
109,9,23,Ticks_Phase_5,175,5,42,127,1049937128
109,9,23,Ticks_Phase_5,176,5,42,127,1050437120
109,9,23,Ticks_Phase_5,177,1,48,50,1050463968
109,9,23,Ticks_Phase_5,178,1,48,43,1050934536
109,9,23,Ticks_Phase_5,179,5,42,127,1050936652
109,9,23,Ticks_Phase_5,180,5,42,127,1051437544
109,9,23,Ticks_Phase_5,181,1,48,43,1051450996
109,9,23,Ticks_Phase_5,182,5,42,127,1051897092
109,9,23,Ticks_Phase_5,183,1,48,47,1051952332
109,9,23,Ticks_Phase_5,184,5,42,127,1052397004
109,9,23,Ticks_Phase_5,185,1,48,54,1052442432
109,9,23,Ticks_Phase_5,186,5,42,127,1052896544
109,9,23,Ticks_Phase_5,187,1,48,44,1052900636
109,9,23,Ticks_Phase_5,188,5,42,127,1053397876
109,9,23,Ticks_Phase_5,189,1,48,50,1053404672
109,9,23,Ticks_Phase_5,190,5,42,127,1053896944
109,9,23,Ticks_Phase_5,191,1,48,49,1053897912
109,9,23,Ticks_Phase_5,192,1,48,49,1054387312
109,9,23,Ticks_Phase_5,193,5,42,127,1054396848
109,9,23,Ticks_Phase_5,194,1,48,21,1054475240
109,9,23,Ticks_Phase_5,195,5,42,127,1054896520
109,9,23,Ticks_Phase_5,196,1,48,38,1054902252
109,9,23,Ticks_Phase_5,197,5,42,127,1055397184
109,9,23,Ticks_Phase_5,198,1,48,50,1055410108
109,9,23,Ticks_Phase_5,199,5,42,127,1055896944
109,9,23,Ticks_Phase_5,200,1,48,48,1055920728
109,9,23,Ticks_Phase_5,201,5,42,127,1056396780
109,9,23,Ticks_Phase_5,202,1,48,51,1056429484
109,9,23,Ticks_Phase_5,203,5,42,127,1056897664
109,9,23,Ticks_Phase_5,204,1,48,50,1056917568
109,9,23,Ticks_Phase_5,205,5,42,127,1057397056
109,9,23,Ticks_Phase_5,206,1,48,41,1057437692
109,9,23,Ticks_Phase_5,207,5,42,127,1057896744
109,9,23,Ticks_Phase_5,208,1,48,50,1057952728
109,9,23,Ticks_Phase_5,209,5,42,127,1058396432
109,9,23,Ticks_Phase_5,210,1,48,47,1058421264
109,9,23,Ticks_Phase_5,211,1,48,33,1058464824
109,9,23,Ticks_Phase_5,212,5,42,127,1058897444
109,9,23,Ticks_Phase_5,213,1,48,40,1058984356
109,9,23,Ticks_Phase_5,214,5,42,127,1059396908
109,9,23,Ticks_Phase_5,215,1,48,34,1059511608
109,9,23,Ticks_Phase_5,216,5,42,127,1059896672
109,9,23,Ticks_Phase_5,217,1,48,44,1059996544
109,9,23,Ticks_Phase_5,218,5,42,127,1060446536
109,9,23,Ticks_Phase_5,219,1,48,48,1060501468
109,9,23,Ticks_Phase_5,220,5,42,127,1060947420
109,9,23,Ticks_Phase_5,221,1,48,47,1061005284
109,9,23,Ticks_Phase_5,222,5,42,127,1061447108
109,9,23,Ticks_Phase_5,223,1,48,42,1061497260
109,9,23,Ticks_Phase_5,224,5,42,127,1061946720
109,9,23,Ticks_Phase_5,225,1,48,46,1062011920
109,9,23,Ticks_Phase_5,226,5,42,127,1062446484
109,9,23,Ticks_Phase_5,227,1,48,46,1062508912
109,9,23,Ticks_Phase_5,228,5,42,127,1062947292
109,9,23,Ticks_Phase_5,229,1,48,46,1063002752
109,9,23,Ticks_Phase_5,230,5,42,127,1063446832
109,9,23,Ticks_Phase_5,231,1,48,39,1063542204
109,9,23,Ticks_Phase_5,232,5,42,127,1063946592
109,9,23,Ticks_Phase_5,233,1,48,37,1064058820
109,9,23,Ticks_Phase_5,234,5,42,127,1064447328
109,9,23,Ticks_Phase_5,235,1,48,40,1064552516
109,9,23,Ticks_Phase_5,236,5,42,127,1064947164
109,9,23,Ticks_Phase_5,237,1,48,46,1065068760
109,9,23,Ticks_Phase_5,238,5,42,127,1065446632
109,9,23,Ticks_Phase_5,239,1,48,45,1065575712
109,9,23,Ticks_Phase_5,240,5,42,127,1065946616
109,9,23,Ticks_Phase_5,241,1,48,46,1066101600
109,9,23,Ticks_Phase_5,242,5,42,127,1066447228
109,9,23,Ticks_Phase_5,243,1,48,45,1066625464
109,9,23,Ticks_Phase_5,244,1,48,29,1066693732
109,9,23,Ticks_Phase_5,245,5,42,127,1066946820
109,9,23,Ticks_Phase_5,246,5,42,127,1067446608
109,9,23,Ticks_Phase_5,247,1,48,43,1067944324
109,9,23,Ticks_Phase_5,248,5,42,127,1067947356
109,9,23,Ticks_Phase_5,249,5,42,127,1068447124
109,9,23,Ticks_Phase_5,250,1,48,44,1068464480
109,9,23,Ticks_Phase_5,251,1,48,46,1068952384
109,9,23,Ticks_Phase_5,252,5,42,127,1069047328
109,9,23,Ticks_Phase_5,253,1,48,44,1069507652
109,9,23,Ticks_Phase_5,254,5,42,127,1069546720
109,9,23,Ticks_Phase_5,255,5,42,127,1070046564
109,9,23,Ticks_Phase_5,256,1,48,42,1070052144
109,9,23,Ticks_Phase_5,257,5,42,127,1070547348
109,9,23,Ticks_Phase_5,258,1,48,37,1070610776
109,9,23,Ticks_Phase_5,259,5,42,127,1071047184
109,9,23,Ticks_Phase_5,260,1,48,42,1071089944
109,9,23,Ticks_Phase_5,261,5,42,127,1071546648
109,9,23,Ticks_Phase_5,262,1,48,42,1071585668
109,9,23,Ticks_Phase_5,263,5,42,127,1072046412
109,9,23,Ticks_Phase_5,264,1,48,39,1072095540
109,9,23,Ticks_Phase_5,265,5,42,127,1072547296
109,9,23,Ticks_Phase_5,266,1,48,38,1072596648
109,9,23,Ticks_Phase_5,267,5,42,127,1073047132
109,9,23,Ticks_Phase_5,268,1,48,48,1073092484
109,9,23,Ticks_Phase_5,269,5,42,127,1073546524
109,9,23,Ticks_Phase_5,270,1,48,46,1073604148
109,9,23,Ticks_Phase_5,271,5,42,127,1074047408
109,9,23,Ticks_Phase_5,272,1,48,40,1074130800
109,9,23,Ticks_Phase_5,273,5,42,127,1074547320
109,9,23,Ticks_Phase_5,274,1,48,48,1074630868
109,9,23,Ticks_Phase_5,275,5,42,127,1075046784
109,9,23,Ticks_Phase_5,276,1,48,44,1075114596
109,9,23,Ticks_Phase_5,277,5,42,127,1075546700
109,9,23,Ticks_Phase_5,278,1,48,43,1075595876
109,9,23,Ticks_Phase_5,279,5,42,127,1076047208
109,9,23,Ticks_Phase_5,280,1,48,38,1076116080
109,9,23,Ticks_Phase_5,281,5,42,127,1076547196
109,9,23,Ticks_Phase_5,282,1,48,43,1076599516
109,9,23,Ticks_Phase_5,283,5,42,127,1077046732
109,9,23,Ticks_Phase_5,284,1,48,40,1077067304
109,9,23,Ticks_Phase_5,285,5,42,127,1077547320
109,9,23,Ticks_Phase_5,286,1,48,36,1077574540
109,9,23,Ticks_Phase_5,287,5,42,127,1078047084
109,9,23,Ticks_Phase_5,288,1,48,45,1078072516
109,9,23,Ticks_Phase_5,289,5,42,127,1078446400
109,9,23,Ticks_Phase_5,290,1,48,38,1078573920
109,9,23,Ticks_Phase_5,291,5,42,127,1078947284
109,9,23,Ticks_Phase_5,292,1,48,45,1079099076
109,9,23,Ticks_Phase_5,293,5,42,127,1079447196
109,9,23,Ticks_Phase_5,294,1,48,37,1079570460
109,9,23,Ticks_Phase_5,295,5,42,127,1079946732
109,9,23,Ticks_Phase_5,296,1,48,22,1080048280
109,9,23,Ticks_Phase_5,297,5,42,127,1080447468
109,9,23,Ticks_Phase_5,298,1,48,27,1080673548
109,9,23,Ticks_Phase_5,299,5,42,127,1080947304
109,9,23,Ticks_Phase_5,300,5,42,127,1081447092
109,9,23,Ticks_Phase_5,301,5,42,127,1081946428
109,9,23,Ticks_Phase_5,302,1,48,39,1082430220
109,9,23,Ticks_Phase_5,303,5,42,127,1082447176
109,9,23,Ticks_Phase_5,304,1,48,35,1082939720
109,9,23,Ticks_Phase_5,305,5,42,127,1082947164
109,9,23,Ticks_Phase_5,306,1,48,42,1083435892
109,9,23,Ticks_Phase_5,307,5,42,127,1083446704
109,9,23,Ticks_Phase_5,308,5,42,127,1083947372
109,9,23,Ticks_Phase_5,309,1,48,40,1083957084
109,9,23,Ticks_Phase_5,310,1,48,21,1084021984
109,9,23,Ticks_Phase_5,311,1,48,38,1084445040
109,9,23,Ticks_Phase_5,312,5,42,127,1084447008
109,9,23,Ticks_Phase_5,313,5,42,127,1084947000
109,9,23,Ticks_Phase_5,314,1,48,37,1084977384
109,9,23,Ticks_Phase_5,315,5,42,127,1085446464
109,9,23,Ticks_Phase_5,316,1,48,45,1085451900
109,9,23,Ticks_Phase_5,317,1,48,43,1085935936
109,9,23,Ticks_Phase_5,318,5,42,127,1085947268
109,9,23,Ticks_Phase_5,319,5,42,127,1086447112
109,9,23,Ticks_Phase_5,320,1,48,41,1086465212
109,9,23,Ticks_Phase_5,321,5,42,127,1086946948
109,9,23,Ticks_Phase_5,322,1,48,41,1086950288
109,9,23,Ticks_Phase_5,323,5,42,127,1087447536
109,9,23,Ticks_Phase_5,324,1,48,40,1087468256
109,9,23,Ticks_Phase_5,325,5,42,127,1087946976
109,9,23,Ticks_Phase_5,0,9999,9999,9999,1003414636
109,9,23,Ticks_Phase_5,1,9999,9999,9999,1003914348
109,9,23,Ticks_Phase_5,2,9999,9999,9999,1004415028
109,9,23,Ticks_Phase_5,3,9999,9999,9999,1004914812
109,9,23,Ticks_Phase_5,4,9999,9999,9999,1005414524
109,9,23,Ticks_Phase_5,5,9999,9999,9999,1005914236
109,9,23,Ticks_Phase_5,6,9999,9999,9999,1006414916
109,9,23,Ticks_Phase_5,7,9999,9999,9999,1006914624
109,9,23,Ticks_Phase_5,8,9999,9999,9999,1007414336
109,9,23,Ticks_Phase_5,9,9999,9999,9999,1007915096
109,9,23,Ticks_Phase_5,10,9999,9999,9999,1008425064
109,9,23,Ticks_Phase_5,11,9999,9999,9999,1008924772
109,9,23,Ticks_Phase_5,12,9999,9999,9999,1009424484
109,9,23,Ticks_Phase_5,13,9999,9999,9999,1009924172
109,9,23,Ticks_Phase_5,14,9999,9999,9999,1010424904
109,9,23,Ticks_Phase_5,15,9999,9999,9999,1010924668
109,9,23,Ticks_Phase_5,16,9999,9999,9999,1011424356
109,9,23,Ticks_Phase_5,17,9999,9999,9999,1011925068
109,9,23,Ticks_Phase_5,18,9999,9999,9999,1012424804
109,9,23,Ticks_Phase_5,19,9999,9999,9999,1012924496
109,9,23,Ticks_Phase_5,20,9999,9999,9999,1013424184
109,9,23,Ticks_Phase_5,21,9999,9999,9999,1013924916
109,9,23,Ticks_Phase_5,22,9999,9999,9999,1014424680
109,9,23,Ticks_Phase_5,23,9999,9999,9999,1014924368
109,9,23,Ticks_Phase_5,24,9999,9999,9999,1015424056
109,9,23,Ticks_Phase_5,25,9999,9999,9999,1015924860
109,9,23,Ticks_Phase_5,26,9999,9999,9999,1016424548
109,9,23,Ticks_Phase_5,27,9999,9999,9999,1016924260
109,9,23,Ticks_Phase_5,28,9999,9999,9999,1017424980
109,9,23,Ticks_Phase_5,29,9999,9999,9999,1017924664
109,9,23,Ticks_Phase_5,30,9999,9999,9999,1018414168
109,9,23,Ticks_Phase_5,31,9999,9999,9999,1018914904
109,9,23,Ticks_Phase_5,32,9999,9999,9999,1019414592
109,9,23,Ticks_Phase_5,33,9999,9999,9999,1019914356
109,9,23,Ticks_Phase_5,34,9999,9999,9999,1020415060
109,9,23,Ticks_Phase_5,35,9999,9999,9999,1020914784
109,9,23,Ticks_Phase_5,36,9999,9999,9999,1021414472
109,9,23,Ticks_Phase_5,37,9999,9999,9999,1021914180
109,9,23,Ticks_Phase_5,38,9999,9999,9999,1022414940
109,9,23,Ticks_Phase_5,39,9999,9999,9999,1022914628
109,9,23,Ticks_Phase_5,40,9999,9999,9999,1023414324
109,9,23,Ticks_Phase_5,41,9999,9999,9999,1023915132
109,9,23,Ticks_Phase_5,42,9999,9999,9999,1024425080
109,9,23,Ticks_Phase_5,43,9999,9999,9999,1024924768
109,9,23,Ticks_Phase_5,44,9999,9999,9999,1025424456
109,9,23,Ticks_Phase_5,45,9999,9999,9999,1025924220
109,9,23,Ticks_Phase_5,46,9999,9999,9999,1026424952
109,9,23,Ticks_Phase_5,47,9999,9999,9999,1026924636
109,9,23,Ticks_Phase_5,48,9999,9999,9999,1027434592
109,9,23,Ticks_Phase_5,49,9999,9999,9999,1027934280
109,9,23,Ticks_Phase_5,50,9999,9999,9999,1028435016
109,9,23,Ticks_Phase_5,51,9999,9999,9999,1028934776
109,9,23,Ticks_Phase_5,52,9999,9999,9999,1029434464
109,9,23,Ticks_Phase_5,53,9999,9999,9999,1029934156
109,9,23,Ticks_Phase_5,54,9999,9999,9999,1030434888
109,9,23,Ticks_Phase_5,55,9999,9999,9999,1030934652
109,9,23,Ticks_Phase_5,56,9999,9999,9999,1031434344
109,9,23,Ticks_Phase_5,57,9999,9999,9999,1031935076
109,9,23,Ticks_Phase_5,58,9999,9999,9999,1032434768
109,9,23,Ticks_Phase_5,59,9999,9999,9999,1032934456
109,9,23,Ticks_Phase_5,60,9999,9999,9999,1033434220
109,9,23,Ticks_Phase_5,61,9999,9999,9999,1033934928
109,9,23,Ticks_Phase_5,62,9999,9999,9999,1034434616
109,9,23,Ticks_Phase_5,63,9999,9999,9999,1034934380
109,9,23,Ticks_Phase_5,64,9999,9999,9999,1035454584
109,9,23,Ticks_Phase_5,65,9999,9999,9999,1035954268
109,9,23,Ticks_Phase_5,66,9999,9999,9999,1036455004
109,9,23,Ticks_Phase_5,67,9999,9999,9999,1036954700
109,9,23,Ticks_Phase_5,68,9999,9999,9999,1037454460
109,9,23,Ticks_Phase_5,69,9999,9999,9999,1037954148
109,9,23,Ticks_Phase_5,70,9999,9999,9999,1038454884
109,9,23,Ticks_Phase_5,71,9999,9999,9999,1038954572
109,9,23,Ticks_Phase_5,72,9999,9999,9999,1039454336
109,9,23,Ticks_Phase_5,73,9999,9999,9999,1039955068
109,9,23,Ticks_Phase_5,74,9999,9999,9999,1040454756
109,9,23,Ticks_Phase_5,75,9999,9999,9999,1040954444
109,9,23,Ticks_Phase_5,76,9999,9999,9999,1041454208
109,9,23,Ticks_Phase_5,77,9999,9999,9999,1041954940
109,9,23,Ticks_Phase_5,78,9999,9999,9999,1042454628
109,9,23,Ticks_Phase_5,79,9999,9999,9999,1042954316
109,9,23,Ticks_Phase_5,80,9999,9999,9999,1043455052
109,9,23,Ticks_Phase_5,81,9999,9999,9999,1043934296
109,9,23,Ticks_Phase_5,82,9999,9999,9999,1044435012
109,9,23,Ticks_Phase_5,83,9999,9999,9999,1044934748
109,9,23,Ticks_Phase_5,84,9999,9999,9999,1045434428
109,9,23,Ticks_Phase_5,85,9999,9999,9999,1045934192
109,9,23,Ticks_Phase_5,86,9999,9999,9999,1046434928
109,9,23,Ticks_Phase_5,87,9999,9999,9999,1046934616
109,9,23,Ticks_Phase_5,88,9999,9999,9999,1047434312
109,9,23,Ticks_Phase_5,89,9999,9999,9999,1047935044
109,9,23,Ticks_Phase_5,90,9999,9999,9999,1048434800
109,9,23,Ticks_Phase_5,91,9999,9999,9999,1048934496
109,9,23,Ticks_Phase_5,92,9999,9999,9999,1049434184
109,9,23,Ticks_Phase_5,93,9999,9999,9999,1049934912
109,9,23,Ticks_Phase_5,94,9999,9999,9999,1050434680
109,9,23,Ticks_Phase_5,95,9999,9999,9999,1050934328
109,9,23,Ticks_Phase_5,96,9999,9999,9999,1051435104
109,9,23,Ticks_Phase_5,97,9999,9999,9999,1051894876
109,9,23,Ticks_Phase_5,98,9999,9999,9999,1052394568
109,9,23,Ticks_Phase_5,99,9999,9999,9999,1052894328
109,9,23,Ticks_Phase_5,100,9999,9999,9999,1053395040
109,9,23,Ticks_Phase_5,101,9999,9999,9999,1053894728
109,9,23,Ticks_Phase_5,102,9999,9999,9999,1054394484
109,9,23,Ticks_Phase_5,103,9999,9999,9999,1054894156
109,9,23,Ticks_Phase_5,104,9999,9999,9999,1055394892
109,9,23,Ticks_Phase_5,105,9999,9999,9999,1055894656
109,9,23,Ticks_Phase_5,106,9999,9999,9999,1056394344
109,9,23,Ticks_Phase_5,107,9999,9999,9999,1056895076
109,9,23,Ticks_Phase_5,108,9999,9999,9999,1057394768
109,9,23,Ticks_Phase_5,109,9999,9999,9999,1057894456
109,9,23,Ticks_Phase_5,110,9999,9999,9999,1058394216
109,9,23,Ticks_Phase_5,111,9999,9999,9999,1058894932
109,9,23,Ticks_Phase_5,112,9999,9999,9999,1059394616
109,9,23,Ticks_Phase_5,113,9999,9999,9999,1059894380
109,9,23,Ticks_Phase_5,114,9999,9999,9999,1060444244
109,9,23,Ticks_Phase_5,115,9999,9999,9999,1060944980
109,9,23,Ticks_Phase_5,116,9999,9999,9999,1061444668
109,9,23,Ticks_Phase_5,117,9999,9999,9999,1061944432
109,9,23,Ticks_Phase_5,118,9999,9999,9999,1062444120
109,9,23,Ticks_Phase_5,119,9999,9999,9999,1062944852
109,9,23,Ticks_Phase_5,120,9999,9999,9999,1063444540
109,9,23,Ticks_Phase_5,121,9999,9999,9999,1063944304
109,9,23,Ticks_Phase_5,122,9999,9999,9999,1064445036
109,9,23,Ticks_Phase_5,123,9999,9999,9999,1064944728
109,9,23,Ticks_Phase_5,124,9999,9999,9999,1065444416
109,9,23,Ticks_Phase_5,125,9999,9999,9999,1065944180
109,9,23,Ticks_Phase_5,126,9999,9999,9999,1066444864
109,9,23,Ticks_Phase_5,127,9999,9999,9999,1066944604
109,9,23,Ticks_Phase_5,128,9999,9999,9999,1067444316
109,9,23,Ticks_Phase_5,129,9999,9999,9999,1067945064
109,9,23,Ticks_Phase_5,130,9999,9999,9999,1068444760
109,9,23,Ticks_Phase_5,131,9999,9999,9999,1069044816
109,9,23,Ticks_Phase_5,132,9999,9999,9999,1069544504
109,9,23,Ticks_Phase_5,133,9999,9999,9999,1070044272
109,9,23,Ticks_Phase_5,134,9999,9999,9999,1070544984
109,9,23,Ticks_Phase_5,135,9999,9999,9999,1071044672
109,9,23,Ticks_Phase_5,136,9999,9999,9999,1071544432
109,9,23,Ticks_Phase_5,137,9999,9999,9999,1072044120
109,9,23,Ticks_Phase_5,138,9999,9999,9999,1072544856
109,9,23,Ticks_Phase_5,139,9999,9999,9999,1073044548
109,9,23,Ticks_Phase_5,140,9999,9999,9999,1073544308
109,9,23,Ticks_Phase_5,141,9999,9999,9999,1074045044
109,9,23,Ticks_Phase_5,142,9999,9999,9999,1074544732
109,9,23,Ticks_Phase_5,143,9999,9999,9999,1075044420
109,9,23,Ticks_Phase_5,144,9999,9999,9999,1075544184
109,9,23,Ticks_Phase_5,145,9999,9999,9999,1076044920
109,9,23,Ticks_Phase_5,146,9999,9999,9999,1076544608
109,9,23,Ticks_Phase_5,147,9999,9999,9999,1077044296
109,9,23,Ticks_Phase_5,148,9999,9999,9999,1077545028
109,9,23,Ticks_Phase_5,149,9999,9999,9999,1078044792
109,9,23,Ticks_Phase_5,150,9999,9999,9999,1078444108
109,9,23,Ticks_Phase_5,151,9999,9999,9999,1078944844
109,9,23,Ticks_Phase_5,152,9999,9999,9999,1079444608
109,9,23,Ticks_Phase_5,153,9999,9999,9999,1079944296
109,9,23,Ticks_Phase_5,154,9999,9999,9999,1080445028
109,9,23,Ticks_Phase_5,155,9999,9999,9999,1080944720
109,9,23,Ticks_Phase_5,156,9999,9999,9999,1081444428
109,9,23,Ticks_Phase_5,157,9999,9999,9999,1081944140
109,9,23,Ticks_Phase_5,158,9999,9999,9999,1082444888
109,9,23,Ticks_Phase_5,159,9999,9999,9999,1082944576
109,9,23,Ticks_Phase_5,160,9999,9999,9999,1083444340
109,9,23,Ticks_Phase_5,161,9999,9999,9999,1083945080
109,9,23,Ticks_Phase_5,162,9999,9999,9999,1084444756
109,9,23,Ticks_Phase_5,163,9999,9999,9999,1084944488
109,9,23,Ticks_Phase_5,164,9999,9999,9999,1085444176
109,9,23,Ticks_Phase_5,165,9999,9999,9999,1085944904
109,9,23,Ticks_Phase_5,166,9999,9999,9999,1086444600
109,9,23,Ticks_Phase_5,167,9999,9999,9999,1086944360
109,9,23,Ticks_Phase_5,168,9999,9999,9999,1087445096
109,9,23,Ticks_Phase_5,169,9999,9999,9999,1087944760
109,10,22,Ticks_Phase_8,0,5,42,127,1098273200
109,10,22,Ticks_Phase_8,1,5,42,127,1099072860
109,10,22,Ticks_Phase_8,2,5,42,127,1099872892
109,10,22,Ticks_Phase_8,3,5,42,127,1100673300
109,10,22,Ticks_Phase_8,4,5,42,127,1101473184
109,10,22,Ticks_Phase_8,5,5,42,127,1102272844
109,10,22,Ticks_Phase_8,6,5,42,127,1103072900
109,10,22,Ticks_Phase_8,7,5,42,127,1103873528
109,10,22,Ticks_Phase_8,8,1,48,37,1104643948
109,10,22,Ticks_Phase_8,9,5,42,127,1104673180
109,10,22,Ticks_Phase_8,10,1,48,41,1105431380
109,10,22,Ticks_Phase_8,11,5,42,127,1105472896
109,10,22,Ticks_Phase_8,12,1,48,40,1106253184
109,10,22,Ticks_Phase_8,13,5,42,127,1106272608
109,10,22,Ticks_Phase_8,14,1,48,39,1107051396
109,10,22,Ticks_Phase_8,15,5,42,127,1107073512
109,10,22,Ticks_Phase_8,16,5,42,127,1107873084
109,10,22,Ticks_Phase_8,17,1,48,38,1107897916
109,10,22,Ticks_Phase_8,18,5,42,127,1108672948
109,10,22,Ticks_Phase_8,19,1,48,38,1108689392
109,10,22,Ticks_Phase_8,20,5,42,127,1109472760
109,10,22,Ticks_Phase_8,21,1,48,35,1109481052
109,10,22,Ticks_Phase_8,22,1,48,42,1110254240
109,10,22,Ticks_Phase_8,23,5,42,127,1110273660
109,10,22,Ticks_Phase_8,24,1,48,41,1111050664
109,10,22,Ticks_Phase_8,25,5,42,127,1111073224
109,10,22,Ticks_Phase_8,26,1,48,38,1111830976
109,10,22,Ticks_Phase_8,27,5,42,127,1111872936
109,10,22,Ticks_Phase_8,28,5,42,127,1112672580
109,10,22,Ticks_Phase_8,29,1,48,37,1112685432
109,10,22,Ticks_Phase_8,30,1,48,33,1113450536
109,10,22,Ticks_Phase_8,31,5,42,127,1113473632
109,10,22,Ticks_Phase_8,32,5,42,127,1114273200
109,10,22,Ticks_Phase_8,33,1,48,30,1114274464
109,10,22,Ticks_Phase_8,34,5,42,127,1115072840
109,10,22,Ticks_Phase_8,35,1,48,48,1115105112
109,10,22,Ticks_Phase_8,36,5,42,127,1115872576
109,10,22,Ticks_Phase_8,37,1,48,38,1115886252
109,10,22,Ticks_Phase_8,38,5,42,127,1116673708
109,10,22,Ticks_Phase_8,39,1,48,36,1116691364
109,10,22,Ticks_Phase_8,40,5,42,127,1117473348
109,10,22,Ticks_Phase_8,41,1,48,38,1117491824
109,10,22,Ticks_Phase_8,42,1,48,38,1118235128
109,10,22,Ticks_Phase_8,43,5,42,127,1118272976
109,10,22,Ticks_Phase_8,44,1,48,45,1119043232
109,10,22,Ticks_Phase_8,45,5,42,127,1119072764
109,10,22,Ticks_Phase_8,46,1,48,29,1119855368
109,10,22,Ticks_Phase_8,47,5,42,127,1119873596
109,10,22,Ticks_Phase_8,48,5,42,127,1120673388
109,10,22,Ticks_Phase_8,49,1,48,38,1120692688
109,10,22,Ticks_Phase_8,50,5,42,127,1121472880
109,10,22,Ticks_Phase_8,51,1,48,46,1121486032
109,10,22,Ticks_Phase_8,52,1,48,41,1122226348
109,10,22,Ticks_Phase_8,53,5,42,127,1122253264
109,10,22,Ticks_Phase_8,54,1,48,45,1123030808
109,10,22,Ticks_Phase_8,55,5,42,127,1123052852
109,10,22,Ticks_Phase_8,56,1,48,49,1123786828
109,10,22,Ticks_Phase_8,57,5,42,127,1123852636
109,10,22,Ticks_Phase_8,58,1,48,37,1124612632
109,10,22,Ticks_Phase_8,59,5,42,127,1124653396
109,10,22,Ticks_Phase_8,60,1,48,36,1125413992
109,10,22,Ticks_Phase_8,61,5,42,127,1125463296
109,10,22,Ticks_Phase_8,62,1,48,43,1126245752
109,10,22,Ticks_Phase_8,63,5,42,127,1126263084
109,10,22,Ticks_Phase_8,64,1,48,38,1127063320
109,10,22,Ticks_Phase_8,65,5,42,127,1127064508
109,10,22,Ticks_Phase_8,66,1,48,39,1127833720
109,10,22,Ticks_Phase_8,67,5,42,127,1127862656
109,10,22,Ticks_Phase_8,68,1,48,40,1128660708
109,10,22,Ticks_Phase_8,69,5,42,127,1128663364
109,10,22,Ticks_Phase_8,70,1,48,45,1129452192
109,10,22,Ticks_Phase_8,71,5,42,127,1129463304
109,10,22,Ticks_Phase_8,72,5,42,127,1130262872
109,10,22,Ticks_Phase_8,73,1,48,41,1130277448
109,10,22,Ticks_Phase_8,74,1,48,37,1131052588
109,10,22,Ticks_Phase_8,75,5,42,127,1131062576
109,10,22,Ticks_Phase_8,76,1,48,45,1131845932
109,10,22,Ticks_Phase_8,77,5,42,127,1131863336
109,10,22,Ticks_Phase_8,78,1,48,45,1132639872
109,10,22,Ticks_Phase_8,79,5,42,127,1132663124
109,10,22,Ticks_Phase_8,80,5,42,127,1133462988
109,10,22,Ticks_Phase_8,81,1,48,32,1133478836
109,10,22,Ticks_Phase_8,82,5,42,127,1134262704
109,10,22,Ticks_Phase_8,83,1,48,38,1134264188
109,10,22,Ticks_Phase_8,84,5,42,127,1135063488
109,10,22,Ticks_Phase_8,85,1,48,46,1135074020
109,10,22,Ticks_Phase_8,86,5,42,127,1135863124
109,10,22,Ticks_Phase_8,87,1,48,46,1135900384
109,10,22,Ticks_Phase_8,88,5,42,127,1136683280
109,10,22,Ticks_Phase_8,89,1,48,38,1136706316
109,10,22,Ticks_Phase_8,90,1,48,45,1137477264
109,10,22,Ticks_Phase_8,91,5,42,127,1137483136
109,10,22,Ticks_Phase_8,92,1,48,32,1138281720
109,10,22,Ticks_Phase_8,93,5,42,127,1138283144
109,10,22,Ticks_Phase_8,94,5,42,127,1139082564
109,10,22,Ticks_Phase_8,95,1,48,51,1139083828
109,10,22,Ticks_Phase_8,96,5,42,127,1139883248
109,10,22,Ticks_Phase_8,97,1,48,44,1139893264
109,10,22,Ticks_Phase_8,98,1,48,54,1140609532
109,10,22,Ticks_Phase_8,99,5,42,127,1140683104
109,10,22,Ticks_Phase_8,100,1,48,38,1141465140
109,10,22,Ticks_Phase_8,101,5,42,127,1141482988
109,10,22,Ticks_Phase_8,102,1,48,38,1142271668
109,10,22,Ticks_Phase_8,103,5,42,127,1142282552
109,10,22,Ticks_Phase_8,104,5,42,127,1143083316
109,10,22,Ticks_Phase_8,105,1,48,42,1143110244
109,10,22,Ticks_Phase_8,106,1,48,28,1143863448
109,10,22,Ticks_Phase_8,107,5,42,127,1143883168
109,10,22,Ticks_Phase_8,108,5,42,127,1144682964
109,10,22,Ticks_Phase_8,109,1,48,35,1144713044
109,10,22,Ticks_Phase_8,110,1,48,31,1145473948
109,10,22,Ticks_Phase_8,111,5,42,127,1145482592
109,10,22,Ticks_Phase_8,112,5,42,127,1146283508
109,10,22,Ticks_Phase_8,113,1,48,38,1146304528
109,10,22,Ticks_Phase_8,114,1,48,43,1147053680
109,10,22,Ticks_Phase_8,115,5,42,127,1147083064
109,10,22,Ticks_Phase_8,116,1,48,29,1147876924
109,10,22,Ticks_Phase_8,117,5,42,127,1147882872
109,10,22,Ticks_Phase_8,118,5,42,127,1148682668
109,10,22,Ticks_Phase_8,119,1,48,43,1148688556
109,10,22,Ticks_Phase_8,120,1,48,42,1149472236
109,10,22,Ticks_Phase_8,121,5,42,127,1149523336
109,10,22,Ticks_Phase_8,122,1,48,40,1150318896
109,10,22,Ticks_Phase_8,123,5,42,127,1150323048
109,10,22,Ticks_Phase_8,124,5,42,127,1151122916
109,10,22,Ticks_Phase_8,125,1,48,30,1151175908
109,10,22,Ticks_Phase_8,126,5,42,127,1151922400
109,10,22,Ticks_Phase_8,127,1,48,40,1151960896
109,10,22,Ticks_Phase_8,128,5,42,127,1152723336
109,10,22,Ticks_Phase_8,129,1,48,40,1152729744
109,10,22,Ticks_Phase_8,130,1,48,40,1153500012
109,10,22,Ticks_Phase_8,131,5,42,127,1153523112
109,10,22,Ticks_Phase_8,132,5,42,127,1154322908
109,10,22,Ticks_Phase_8,133,1,48,38,1154343924
109,10,22,Ticks_Phase_8,134,5,42,127,1155122692
109,10,22,Ticks_Phase_8,135,1,48,46,1155125812
109,10,22,Ticks_Phase_8,136,5,42,127,1155923452
109,10,22,Ticks_Phase_8,137,1,48,42,1155951516
109,10,22,Ticks_Phase_8,138,1,48,41,1156720348
109,10,22,Ticks_Phase_8,139,5,42,127,1156723156
109,10,22,Ticks_Phase_8,140,5,42,127,1157522876
109,10,22,Ticks_Phase_8,141,1,48,33,1157541280
109,10,22,Ticks_Phase_8,142,5,42,127,1158322660
109,10,22,Ticks_Phase_8,143,1,48,46,1158353072
109,10,22,Ticks_Phase_8,144,5,42,127,1159123444
109,10,22,Ticks_Phase_8,145,1,48,48,1159161692
109,10,22,Ticks_Phase_8,146,1,48,41,1159874944
109,10,22,Ticks_Phase_8,147,5,42,127,1159923076
109,10,22,Ticks_Phase_8,148,5,42,127,1160722940
109,10,22,Ticks_Phase_8,149,1,48,42,1160916820
109,10,22,Ticks_Phase_8,150,5,42,127,1161522728
109,10,22,Ticks_Phase_8,151,1,48,15,1161714588
109,10,22,Ticks_Phase_8,152,5,42,127,1162323412
109,10,22,Ticks_Phase_8,153,5,42,127,1163083232
109,10,22,Ticks_Phase_8,154,1,48,31,1163089124
109,10,22,Ticks_Phase_8,155,5,42,127,1163882872
109,10,22,Ticks_Phase_8,156,1,48,37,1163888160
109,10,22,Ticks_Phase_8,157,5,42,127,1164682956
109,10,22,Ticks_Phase_8,158,1,48,31,1164685476
109,10,22,Ticks_Phase_8,159,5,42,127,1165483488
109,10,22,Ticks_Phase_8,160,1,48,42,1165504588
109,10,22,Ticks_Phase_8,161,5,42,127,1166283200
109,10,22,Ticks_Phase_8,162,1,48,42,1166309556
109,10,22,Ticks_Phase_8,163,5,42,127,1167082936
109,10,22,Ticks_Phase_8,164,1,48,43,1167161100
109,10,22,Ticks_Phase_8,165,5,42,127,1167882872
109,10,22,Ticks_Phase_8,166,1,48,14,1167954072
109,10,22,Ticks_Phase_8,167,5,42,127,1168683560
109,10,22,Ticks_Phase_8,168,1,48,28,1168751088
109,10,22,Ticks_Phase_8,169,1,48,39,1169473876
109,10,22,Ticks_Phase_8,170,5,42,127,1169483116
109,10,22,Ticks_Phase_8,171,5,42,127,1170282832
109,10,22,Ticks_Phase_8,172,1,48,32,1170291128
109,10,22,Ticks_Phase_8,173,5,42,127,1171082696
109,10,22,Ticks_Phase_8,174,1,48,36,1171090988
109,10,22,Ticks_Phase_8,175,1,48,40,1171873756
109,10,22,Ticks_Phase_8,176,5,42,127,1171883372
109,10,22,Ticks_Phase_8,177,1,48,42,1172672576
109,10,22,Ticks_Phase_8,178,5,42,127,1172683008
109,10,22,Ticks_Phase_8,179,1,48,43,1173466012
109,10,22,Ticks_Phase_8,180,5,42,127,1173482748
109,10,22,Ticks_Phase_8,181,1,48,44,1174274036
109,10,22,Ticks_Phase_8,182,5,42,127,1174282532
109,10,22,Ticks_Phase_8,183,1,48,35,1175070224
109,10,22,Ticks_Phase_8,184,5,42,127,1175083368
109,10,22,Ticks_Phase_8,185,5,42,127,1175803104
109,10,22,Ticks_Phase_8,186,1,48,41,1175862092
109,10,22,Ticks_Phase_8,187,1,48,44,1176572008
109,10,22,Ticks_Phase_8,188,5,42,127,1176602960
109,10,22,Ticks_Phase_8,189,1,48,36,1177347744
109,10,22,Ticks_Phase_8,190,5,42,127,1177402744
109,10,22,Ticks_Phase_8,191,1,48,40,1178198456
109,10,22,Ticks_Phase_8,192,5,42,127,1178202680
109,10,22,Ticks_Phase_8,193,5,42,127,1179003372
109,10,22,Ticks_Phase_8,194,1,48,46,1179025812
109,10,22,Ticks_Phase_8,195,1,48,46,1179801264
109,10,22,Ticks_Phase_8,196,5,42,127,1179802924
109,10,22,Ticks_Phase_8,197,1,48,30,1180584040
109,10,22,Ticks_Phase_8,198,5,42,127,1180602788
109,10,22,Ticks_Phase_8,199,5,42,127,1181402604
109,10,22,Ticks_Phase_8,200,1,48,41,1181409088
109,10,22,Ticks_Phase_8,201,1,48,47,1182178388
109,10,22,Ticks_Phase_8,202,5,42,127,1182203356
109,10,22,Ticks_Phase_8,203,1,48,44,1182974804
109,10,22,Ticks_Phase_8,204,5,42,127,1183002920
109,10,22,Ticks_Phase_8,205,5,42,127,1183802936
109,10,22,Ticks_Phase_8,206,1,48,34,1183803900
109,10,22,Ticks_Phase_8,207,1,48,35,1184577372
109,10,22,Ticks_Phase_8,208,5,42,127,1184602416
109,10,22,Ticks_Phase_8,209,5,42,127,1185403332
109,10,22,Ticks_Phase_8,210,1,48,41,1185430480
109,10,22,Ticks_Phase_8,211,5,42,127,1186203040
109,10,22,Ticks_Phase_8,212,1,48,45,1186217916
109,10,22,Ticks_Phase_8,213,5,42,127,1187002680
109,10,22,Ticks_Phase_8,214,1,48,39,1187003572
109,10,22,Ticks_Phase_8,215,1,48,41,1187788200
109,10,22,Ticks_Phase_8,216,5,42,127,1187802484
109,10,22,Ticks_Phase_8,217,5,42,127,1188603324
109,10,22,Ticks_Phase_8,218,1,48,46,1188620372
109,10,22,Ticks_Phase_8,219,1,48,48,1189390112
109,10,22,Ticks_Phase_8,220,5,42,127,1189482716
109,10,22,Ticks_Phase_8,221,5,42,127,1190282580
109,10,22,Ticks_Phase_8,222,1,48,33,1190337072
109,10,22,Ticks_Phase_8,223,5,42,127,1191083340
109,10,22,Ticks_Phase_8,224,1,48,46,1191872252
109,10,22,Ticks_Phase_8,225,5,42,127,1191883360
109,10,22,Ticks_Phase_8,226,5,42,127,1192682732
109,10,22,Ticks_Phase_8,227,1,48,38,1192762544
109,10,22,Ticks_Phase_8,228,5,42,127,1193482524
109,10,22,Ticks_Phase_8,229,1,48,26,1193604488
109,10,22,Ticks_Phase_8,230,5,42,127,1194283428
109,10,22,Ticks_Phase_8,231,5,42,127,1195083236
109,10,22,Ticks_Phase_8,232,5,42,127,1195882824
109,10,22,Ticks_Phase_8,233,1,48,34,1195972144
109,10,22,Ticks_Phase_8,234,5,42,127,1196682536
109,10,22,Ticks_Phase_8,235,1,48,36,1196779280
109,10,22,Ticks_Phase_8,236,5,42,127,1197483296
109,10,22,Ticks_Phase_8,237,1,48,34,1197510220
109,10,22,Ticks_Phase_8,238,1,48,35,1198276300
109,10,22,Ticks_Phase_8,239,5,42,127,1198283148
109,10,22,Ticks_Phase_8,240,1,48,38,1199051756
109,10,22,Ticks_Phase_8,241,5,42,127,1199082884
109,10,22,Ticks_Phase_8,242,1,48,32,1199853140
109,10,22,Ticks_Phase_8,243,5,42,127,1199882524
109,10,22,Ticks_Phase_8,244,5,42,127,1200683512
109,10,22,Ticks_Phase_8,245,1,48,30,1200725352
109,10,22,Ticks_Phase_8,246,1,48,43,1201474880
109,10,22,Ticks_Phase_8,247,5,42,127,1201483072
109,10,22,Ticks_Phase_8,248,5,42,127,1202282940
109,10,22,Ticks_Phase_8,249,1,48,34,1202293324
109,10,22,Ticks_Phase_8,250,1,48,43,1203046668
109,10,22,Ticks_Phase_8,251,5,42,127,1203243360
109,10,22,Ticks_Phase_8,252,5,42,127,1204043020
109,10,22,Ticks_Phase_8,253,1,48,20,1204256744
109,10,22,Ticks_Phase_8,254,5,42,127,1204843032
109,10,22,Ticks_Phase_8,255,5,42,127,1205642544
109,10,22,Ticks_Phase_8,256,5,42,127,1206443324
109,10,22,Ticks_Phase_8,257,1,48,27,1206468156
109,10,22,Ticks_Phase_8,258,5,42,127,1207243108
109,10,22,Ticks_Phase_8,259,1,48,29,1207257908
109,10,22,Ticks_Phase_8,260,5,42,127,1208042820
109,10,22,Ticks_Phase_8,261,1,48,31,1208065484
109,10,22,Ticks_Phase_8,262,5,42,127,1208842532
109,10,22,Ticks_Phase_8,263,1,48,30,1208875232
109,10,22,Ticks_Phase_8,264,5,42,127,1209643292
109,10,22,Ticks_Phase_8,265,1,48,25,1209715156
109,10,22,Ticks_Phase_8,266,1,48,28,1210429108
109,10,22,Ticks_Phase_8,267,5,42,127,1210443144
109,10,22,Ticks_Phase_8,268,1,48,29,1211239828
109,10,22,Ticks_Phase_8,269,5,42,127,1211242932
109,10,22,Ticks_Phase_8,270,1,48,32,1212034976
109,10,22,Ticks_Phase_8,271,5,42,127,1212042572
109,10,22,Ticks_Phase_8,272,1,48,29,1212814096
109,10,22,Ticks_Phase_8,273,5,42,127,1212843480
109,10,22,Ticks_Phase_8,274,5,42,127,1213643048
109,10,22,Ticks_Phase_8,275,1,48,27,1213646464
109,10,22,Ticks_Phase_8,276,5,42,127,1214442836
109,10,22,Ticks_Phase_8,277,1,48,27,1214447976
109,10,22,Ticks_Phase_8,278,1,48,29,1215224988
109,10,22,Ticks_Phase_8,279,5,42,127,1215242544
109,10,22,Ticks_Phase_8,280,1,48,34,1216038928
109,10,22,Ticks_Phase_8,281,5,42,127,1216043228
109,10,22,Ticks_Phase_8,282,1,48,34,1216809728
109,10,22,Ticks_Phase_8,283,5,42,127,1216843088
109,10,22,Ticks_Phase_8,284,5,42,127,1217642732
109,10,22,Ticks_Phase_8,285,1,48,20,1217657456
109,10,22,Ticks_Phase_8,286,5,42,127,1218283008
109,10,22,Ticks_Phase_8,287,1,48,32,1218461896
109,10,22,Ticks_Phase_8,288,5,42,127,1219082720
109,10,22,Ticks_Phase_8,289,1,48,14,1219475424
109,10,22,Ticks_Phase_8,290,5,42,127,1219883328
109,10,22,Ticks_Phase_8,291,5,42,127,1220682988
109,10,22,Ticks_Phase_8,292,1,48,36,1221372156
109,10,22,Ticks_Phase_8,293,5,42,127,1221482924
109,10,22,Ticks_Phase_8,294,5,42,127,1222282880
109,10,22,Ticks_Phase_8,295,1,48,25,1222368248
109,10,22,Ticks_Phase_8,296,5,42,127,1223083272
109,10,22,Ticks_Phase_8,297,1,48,36,1223096576
109,10,22,Ticks_Phase_8,298,5,42,127,1223882980
109,10,22,Ticks_Phase_8,299,1,48,34,1223937424
109,10,22,Ticks_Phase_8,300,5,42,127,1224682940
109,10,22,Ticks_Phase_8,301,1,48,31,1224737884
109,10,22,Ticks_Phase_8,302,5,42,127,1225482804
109,10,22,Ticks_Phase_8,303,1,48,43,1225518720
109,10,22,Ticks_Phase_8,304,5,42,127,1226283336
109,10,22,Ticks_Phase_8,305,1,48,20,1226345620
109,10,22,Ticks_Phase_8,306,5,42,127,1227083048
109,10,22,Ticks_Phase_8,307,1,48,31,1227173712
109,10,22,Ticks_Phase_8,308,5,42,127,1227882908
109,10,22,Ticks_Phase_8,309,1,48,27,1227909244
109,10,22,Ticks_Phase_8,310,5,42,127,1228682992
109,10,22,Ticks_Phase_8,311,1,48,26,1228760732
109,10,22,Ticks_Phase_8,312,5,42,127,1229483380
109,10,22,Ticks_Phase_8,313,1,48,35,1229493764
109,10,22,Ticks_Phase_8,314,5,42,127,1230283092
109,10,22,Ticks_Phase_8,315,1,48,33,1230309596
109,10,22,Ticks_Phase_8,316,5,42,127,1231082828
109,10,22,Ticks_Phase_8,317,1,48,32,1231103620
109,10,22,Ticks_Phase_8,318,5,42,127,1231882616
109,10,22,Ticks_Phase_8,319,1,48,29,1231914788
109,10,22,Ticks_Phase_8,320,1,48,35,1232667836
109,10,22,Ticks_Phase_8,321,5,42,127,1232683516
109,10,22,Ticks_Phase_8,322,1,48,30,1233476760
109,10,22,Ticks_Phase_8,323,5,42,127,1233483080
109,10,22,Ticks_Phase_8,0,9999,9999,9999,1098270836
109,10,22,Ticks_Phase_8,1,9999,9999,9999,1099070572
109,10,22,Ticks_Phase_8,2,9999,9999,9999,1099870308
109,10,22,Ticks_Phase_8,3,9999,9999,9999,1100671088
109,10,22,Ticks_Phase_8,4,9999,9999,9999,1101470824
109,10,22,Ticks_Phase_8,5,9999,9999,9999,1102270556
109,10,22,Ticks_Phase_8,6,9999,9999,9999,1103070316
109,10,22,Ticks_Phase_8,7,9999,9999,9999,1103871092
109,10,22,Ticks_Phase_8,8,9999,9999,9999,1104670820
109,10,22,Ticks_Phase_8,9,9999,9999,9999,1105470532
109,10,22,Ticks_Phase_8,10,9999,9999,9999,1106270320
109,10,22,Ticks_Phase_8,11,9999,9999,9999,1107071080
109,10,22,Ticks_Phase_8,12,9999,9999,9999,1107870796
109,10,22,Ticks_Phase_8,13,9999,9999,9999,1108670584
109,10,22,Ticks_Phase_8,14,9999,9999,9999,1109470324
109,10,22,Ticks_Phase_8,15,9999,9999,9999,1110271076
109,10,22,Ticks_Phase_8,16,9999,9999,9999,1111070788
109,10,22,Ticks_Phase_8,17,9999,9999,9999,1111870576
109,10,22,Ticks_Phase_8,18,9999,9999,9999,1112670296
109,10,22,Ticks_Phase_8,19,9999,9999,9999,1113471048
109,10,22,Ticks_Phase_8,20,9999,9999,9999,1114270840
109,10,22,Ticks_Phase_8,21,9999,9999,9999,1115070552
109,10,22,Ticks_Phase_8,22,9999,9999,9999,1115870288
109,10,22,Ticks_Phase_8,23,9999,9999,9999,1116671048
109,10,22,Ticks_Phase_8,24,9999,9999,9999,1117470836
109,10,22,Ticks_Phase_8,25,9999,9999,9999,1118270540
109,10,22,Ticks_Phase_8,26,9999,9999,9999,1119070328
109,10,22,Ticks_Phase_8,27,9999,9999,9999,1119871084
109,10,22,Ticks_Phase_8,28,9999,9999,9999,1120670804
109,10,22,Ticks_Phase_8,29,9999,9999,9999,1121470592
109,10,22,Ticks_Phase_8,30,9999,9999,9999,1122250824
109,10,22,Ticks_Phase_8,31,9999,9999,9999,1123050564
109,10,22,Ticks_Phase_8,32,9999,9999,9999,1123850352
109,10,22,Ticks_Phase_8,33,9999,9999,9999,1124651112
109,10,22,Ticks_Phase_8,34,9999,9999,9999,1125461084
109,10,22,Ticks_Phase_8,35,9999,9999,9999,1126260796
109,10,22,Ticks_Phase_8,36,9999,9999,9999,1127060588
109,10,22,Ticks_Phase_8,37,9999,9999,9999,1127860292
109,10,22,Ticks_Phase_8,38,9999,9999,9999,1128661080
109,10,22,Ticks_Phase_8,39,9999,9999,9999,1129460792
109,10,22,Ticks_Phase_8,40,9999,9999,9999,1130260584
109,10,22,Ticks_Phase_8,41,9999,9999,9999,1131060292
109,10,22,Ticks_Phase_8,42,9999,9999,9999,1131861048
109,10,22,Ticks_Phase_8,43,9999,9999,9999,1132660836
109,10,22,Ticks_Phase_8,44,9999,9999,9999,1133460556
109,10,22,Ticks_Phase_8,45,9999,9999,9999,1134260340
109,10,22,Ticks_Phase_8,46,9999,9999,9999,1135061052
109,10,22,Ticks_Phase_8,47,9999,9999,9999,1135860836
109,10,22,Ticks_Phase_8,48,9999,9999,9999,1136681068
109,10,22,Ticks_Phase_8,49,9999,9999,9999,1137480776
109,10,22,Ticks_Phase_8,50,9999,9999,9999,1138280568
109,10,22,Ticks_Phase_8,51,9999,9999,9999,1139080280
109,10,22,Ticks_Phase_8,52,9999,9999,9999,1139881036
109,10,22,Ticks_Phase_8,53,9999,9999,9999,1140680816
109,10,22,Ticks_Phase_8,54,9999,9999,9999,1141480556
109,10,22,Ticks_Phase_8,55,9999,9999,9999,1142280264
109,10,22,Ticks_Phase_8,56,9999,9999,9999,1143081032
109,10,22,Ticks_Phase_8,57,9999,9999,9999,1143880808
109,10,22,Ticks_Phase_8,58,9999,9999,9999,1144680528
109,10,22,Ticks_Phase_8,59,9999,9999,9999,1145480308
109,10,22,Ticks_Phase_8,60,9999,9999,9999,1146281072
109,10,22,Ticks_Phase_8,61,9999,9999,9999,1147080776
109,10,22,Ticks_Phase_8,62,9999,9999,9999,1147880512
109,10,22,Ticks_Phase_8,63,9999,9999,9999,1148680304
109,10,22,Ticks_Phase_8,64,9999,9999,9999,1149520972
109,10,22,Ticks_Phase_8,65,9999,9999,9999,1150320760
109,10,22,Ticks_Phase_8,66,9999,9999,9999,1151120480
109,10,22,Ticks_Phase_8,67,9999,9999,9999,1151920188
109,10,22,Ticks_Phase_8,68,9999,9999,9999,1152720972
109,10,22,Ticks_Phase_8,69,9999,9999,9999,1153520752
109,10,22,Ticks_Phase_8,70,9999,9999,9999,1154320472
109,10,22,Ticks_Phase_8,71,9999,9999,9999,1155120184
109,10,22,Ticks_Phase_8,72,9999,9999,9999,1155921016
109,10,22,Ticks_Phase_8,73,9999,9999,9999,1156720720
109,10,22,Ticks_Phase_8,74,9999,9999,9999,1157520440
109,10,22,Ticks_Phase_8,75,9999,9999,9999,1158320228
109,10,22,Ticks_Phase_8,76,9999,9999,9999,1159121008
109,10,22,Ticks_Phase_8,77,9999,9999,9999,1159920716
109,10,22,Ticks_Phase_8,78,9999,9999,9999,1160720508
109,10,22,Ticks_Phase_8,79,9999,9999,9999,1161520220
109,10,22,Ticks_Phase_8,80,9999,9999,9999,1162320976
109,10,22,Ticks_Phase_8,81,9999,9999,9999,1163080796
109,10,22,Ticks_Phase_8,82,9999,9999,9999,1163880508
109,10,22,Ticks_Phase_8,83,9999,9999,9999,1164680296
109,10,22,Ticks_Phase_8,84,9999,9999,9999,1165481052
109,10,22,Ticks_Phase_8,85,9999,9999,9999,1166280764
109,10,22,Ticks_Phase_8,86,9999,9999,9999,1167080500
109,10,22,Ticks_Phase_8,87,9999,9999,9999,1167880288
109,10,22,Ticks_Phase_8,88,9999,9999,9999,1168681048
109,10,22,Ticks_Phase_8,89,9999,9999,9999,1169480828
109,10,22,Ticks_Phase_8,90,9999,9999,9999,1170280548
109,10,22,Ticks_Phase_8,91,9999,9999,9999,1171080260
109,10,22,Ticks_Phase_8,92,9999,9999,9999,1171881084
109,10,22,Ticks_Phase_8,93,9999,9999,9999,1172680796
109,10,22,Ticks_Phase_8,94,9999,9999,9999,1173480536
109,10,22,Ticks_Phase_8,95,9999,9999,9999,1174280244
109,10,22,Ticks_Phase_8,96,9999,9999,9999,1175081080
109,10,22,Ticks_Phase_8,97,9999,9999,9999,1175800892
109,10,22,Ticks_Phase_8,98,9999,9999,9999,1176600672
109,10,22,Ticks_Phase_8,99,9999,9999,9999,1177400384
109,10,22,Ticks_Phase_8,100,9999,9999,9999,1178200172
109,10,22,Ticks_Phase_8,101,9999,9999,9999,1179000936
109,10,22,Ticks_Phase_8,102,9999,9999,9999,1179800664
109,10,22,Ticks_Phase_8,103,9999,9999,9999,1180600424
109,10,22,Ticks_Phase_8,104,9999,9999,9999,1181400168
109,10,22,Ticks_Phase_8,105,9999,9999,9999,1182200920
109,10,22,Ticks_Phase_8,106,9999,9999,9999,1183000632
109,10,22,Ticks_Phase_8,107,9999,9999,9999,1183800424
109,10,22,Ticks_Phase_8,108,9999,9999,9999,1184600132
109,10,22,Ticks_Phase_8,109,9999,9999,9999,1185400896
109,10,22,Ticks_Phase_8,110,9999,9999,9999,1186200680
109,10,22,Ticks_Phase_8,111,9999,9999,9999,1187000392
109,10,22,Ticks_Phase_8,112,9999,9999,9999,1187800124
109,10,22,Ticks_Phase_8,113,9999,9999,9999,1188600888
109,10,22,Ticks_Phase_8,114,9999,9999,9999,1189480500
109,10,22,Ticks_Phase_8,115,9999,9999,9999,1190280292
109,10,22,Ticks_Phase_8,116,9999,9999,9999,1191081052
109,10,22,Ticks_Phase_8,117,9999,9999,9999,1191880776
109,10,22,Ticks_Phase_8,118,9999,9999,9999,1192680520
109,10,22,Ticks_Phase_8,119,9999,9999,9999,1193480308
109,10,22,Ticks_Phase_8,120,9999,9999,9999,1194281068
109,10,22,Ticks_Phase_8,121,9999,9999,9999,1195080800
109,10,22,Ticks_Phase_8,122,9999,9999,9999,1195880536
109,10,22,Ticks_Phase_8,123,9999,9999,9999,1196680248
109,10,22,Ticks_Phase_8,124,9999,9999,9999,1197481080
109,10,22,Ticks_Phase_8,125,9999,9999,9999,1198280788
109,10,22,Ticks_Phase_8,126,9999,9999,9999,1199080524
109,10,22,Ticks_Phase_8,127,9999,9999,9999,1199880312
109,10,22,Ticks_Phase_8,128,9999,9999,9999,1200681076
109,10,22,Ticks_Phase_8,129,9999,9999,9999,1201480784
109,10,22,Ticks_Phase_8,130,9999,9999,9999,1202280504
109,10,22,Ticks_Phase_8,131,9999,9999,9999,1203241072
109,10,22,Ticks_Phase_8,132,9999,9999,9999,1204040808
109,10,22,Ticks_Phase_8,133,9999,9999,9999,1204840520
109,10,22,Ticks_Phase_8,134,9999,9999,9999,1205640256
109,10,22,Ticks_Phase_8,135,9999,9999,9999,1206441036
109,10,22,Ticks_Phase_8,136,9999,9999,9999,1207240820
109,10,22,Ticks_Phase_8,137,9999,9999,9999,1208040532
109,10,22,Ticks_Phase_8,138,9999,9999,9999,1208840244
109,10,22,Ticks_Phase_8,139,9999,9999,9999,1209641076
109,10,22,Ticks_Phase_8,140,9999,9999,9999,1210440784
109,10,22,Ticks_Phase_8,141,9999,9999,9999,1211240572
109,10,22,Ticks_Phase_8,142,9999,9999,9999,1212040284
109,10,22,Ticks_Phase_8,143,9999,9999,9999,1212841044
109,10,22,Ticks_Phase_8,144,9999,9999,9999,1213640764
109,10,22,Ticks_Phase_8,145,9999,9999,9999,1214440548
109,10,22,Ticks_Phase_8,146,9999,9999,9999,1215240256
109,10,22,Ticks_Phase_8,147,9999,9999,9999,1216041016
109,10,22,Ticks_Phase_8,148,9999,9999,9999,1216840800
109,10,22,Ticks_Phase_8,149,9999,9999,9999,1217640520
109,10,22,Ticks_Phase_8,150,9999,9999,9999,1218280572
109,10,22,Ticks_Phase_8,151,9999,9999,9999,1219080284
109,10,22,Ticks_Phase_8,152,9999,9999,9999,1219881044
109,10,22,Ticks_Phase_8,153,9999,9999,9999,1220680776
109,10,22,Ticks_Phase_8,154,9999,9999,9999,1221480564
109,10,22,Ticks_Phase_8,155,9999,9999,9999,1222280300
109,10,22,Ticks_Phase_8,156,9999,9999,9999,1223081060
109,10,22,Ticks_Phase_8,157,9999,9999,9999,1223880768
109,10,22,Ticks_Phase_8,158,9999,9999,9999,1224680504
109,10,22,Ticks_Phase_8,159,9999,9999,9999,1225480292
109,10,22,Ticks_Phase_8,160,9999,9999,9999,1226281048
109,10,22,Ticks_Phase_8,161,9999,9999,9999,1227080764
109,10,22,Ticks_Phase_8,162,9999,9999,9999,1227880548
109,10,22,Ticks_Phase_8,163,9999,9999,9999,1228680260
109,10,22,Ticks_Phase_8,164,9999,9999,9999,1229481020
109,10,22,Ticks_Phase_8,165,9999,9999,9999,1230280804
109,10,22,Ticks_Phase_8,166,9999,9999,9999,1231080540
109,10,22,Ticks_Phase_8,167,9999,9999,9999,1231880252
109,10,22,Ticks_Phase_8,168,9999,9999,9999,1232681080
109,10,22,Ticks_Phase_8,169,9999,9999,9999,1233480792
109,11,25,Jits_Pract_5,0,5,56,103,1281576236
109,11,25,Jits_Pract_5,1,5,63,98,1281579256
109,11,25,Jits_Pract_5,2,5,80,127,1281582604
109,11,25,Jits_Pract_5,0,5,56,103,1282076108
109,11,25,Jits_Pract_5,1,5,63,98,1282079132
109,11,25,Jits_Pract_5,2,5,80,127,1282082332
109,11,25,Jits_Pract_5,0,5,56,103,1282575628
109,11,25,Jits_Pract_5,1,5,80,127,1282585824
109,11,25,Jits_Pract_5,2,5,63,98,1282605680
109,11,25,Jits_Pract_5,0,5,63,98,1283026292
109,11,25,Jits_Pract_5,1,5,80,127,1283055968
109,11,25,Jits_Pract_5,2,5,56,103,1283066316
109,11,25,Jits_Pract_5,0,5,80,127,1283586632
109,11,25,Jits_Pract_5,1,5,56,103,1283595704
109,11,25,Jits_Pract_5,2,5,63,98,1283626204
109,11,25,Jits_Pract_5,0,5,63,98,1284075816
109,11,25,Jits_Pract_5,1,5,56,103,1284105860
109,11,25,Jits_Pract_5,2,5,80,127,1284115760
109,11,25,Jits_Pract_5,0,5,56,103,1284525548
109,11,25,Jits_Pract_5,1,5,63,98,1284575700
109,11,25,Jits_Pract_5,2,5,80,127,1284596084
109,11,25,Jits_Pract_5,0,5,80,127,1285026188
109,11,25,Jits_Pract_5,1,5,63,98,1285076264
109,11,25,Jits_Pract_5,2,5,56,103,1285116204
109,11,25,Jits_Pract_5,0,5,56,103,1285525856
109,11,25,Jits_Pract_5,1,5,63,98,1285555904
109,11,25,Jits_Pract_5,2,5,80,127,1285626280
109,11,25,Jits_Pract_5,0,5,56,103,1286025672
109,11,25,Jits_Pract_5,1,5,80,127,1286085988
109,11,25,Jits_Pract_5,2,5,63,98,1286115764
109,11,25,Jits_Pract_5,0,5,56,103,1286535608
109,11,25,Jits_Pract_5,1,5,63,98,1286545876
109,11,25,Jits_Pract_5,2,5,80,127,1286585812
109,11,25,Jits_Pract_5,0,5,63,98,1287026052
109,11,25,Jits_Pract_5,1,5,80,127,1287105852
109,11,25,Jits_Pract_5,2,5,56,103,1287116220
109,11,25,Jits_Pract_5,0,5,63,98,1287575908
109,11,25,Jits_Pract_5,1,5,56,103,1287615844
109,11,25,Jits_Pract_5,2,5,80,127,1287618912
109,11,25,Jits_Pract_5,0,5,56,103,1288035548
109,11,25,Jits_Pract_5,1,5,63,98,1288046044
109,11,25,Jits_Pract_5,2,5,80,127,1288085756
109,11,25,Jits_Pract_5,0,5,56,103,1288526064
109,11,25,Jits_Pract_5,1,5,63,98,1288529136
109,11,25,Jits_Pract_5,2,5,80,127,1288545780
109,11,25,Jits_Pract_5,0,9999,9999,9999,1281823824
109,11,25,Jits_Pract_5,1,9999,9999,9999,1282323548
109,11,25,Jits_Pract_5,2,9999,9999,9999,1282823292
109,11,25,Jits_Pract_5,3,9999,9999,9999,1283324000
109,11,25,Jits_Pract_5,4,9999,9999,9999,1283823736
109,11,25,Jits_Pract_5,5,9999,9999,9999,1284323408
109,11,25,Jits_Pract_5,6,9999,9999,9999,1284823132
109,11,25,Jits_Pract_5,7,9999,9999,9999,1285323848
109,11,25,Jits_Pract_5,8,9999,9999,9999,1285823564
109,11,25,Jits_Pract_5,9,9999,9999,9999,1286323308
109,11,25,Jits_Pract_5,10,9999,9999,9999,1286824020
109,11,25,Jits_Pract_5,11,9999,9999,9999,1287323768
109,11,25,Jits_Pract_5,12,9999,9999,9999,1287823412
109,11,25,Jits_Pract_5,13,9999,9999,9999,1288323144
109,11,25,Jits_Pract_5,14,9999,9999,9999,1288823916
109,12,25,Jits_Pract_5,0,5,56,103,1338321264
109,12,25,Jits_Pract_5,1,5,63,98,1338324212
109,12,25,Jits_Pract_5,2,5,80,127,1338327708
109,12,25,Jits_Pract_5,0,5,56,103,1338820812
109,12,25,Jits_Pract_5,1,5,63,98,1338824012
109,12,25,Jits_Pract_5,2,5,80,127,1338827060
109,12,25,Jits_Pract_5,0,5,56,103,1339320708
109,12,25,Jits_Pract_5,1,5,80,127,1339330904
109,12,25,Jits_Pract_5,2,5,63,98,1339351612
109,12,25,Jits_Pract_5,0,5,63,98,1339771228
109,12,25,Jits_Pract_5,1,5,80,127,1339800976
109,12,25,Jits_Pract_5,2,5,56,103,1339811100
109,12,25,Jits_Pract_5,0,5,80,127,1340331488
109,12,25,Jits_Pract_5,1,5,56,103,1340340788
109,12,25,Jits_Pract_5,2,5,63,98,1340371236
109,12,25,Jits_Pract_5,0,5,63,98,1340820752
109,12,25,Jits_Pract_5,1,5,56,103,1340850800
109,12,25,Jits_Pract_5,2,5,80,127,1340860772
109,12,25,Jits_Pract_5,0,5,56,103,1341271556
109,12,25,Jits_Pract_5,1,5,63,98,1341320488
109,12,25,Jits_Pract_5,2,5,80,127,1341341020
109,12,25,Jits_Pract_5,0,5,80,127,1341771076
109,12,25,Jits_Pract_5,1,5,63,98,1341821280
109,12,25,Jits_Pract_5,2,5,56,103,1341861216
109,12,25,Jits_Pract_5,0,5,56,103,1342270896
109,12,25,Jits_Pract_5,1,5,63,98,1342300644
109,12,25,Jits_Pract_5,2,1,48,44,1342355604
109,12,25,Jits_Pract_5,3,5,80,127,1342371140
109,12,25,Jits_Pract_5,0,5,56,103,1342770600
109,12,25,Jits_Pract_5,1,1,48,39,1342793716
109,12,25,Jits_Pract_5,2,5,80,127,1342831132
109,12,25,Jits_Pract_5,3,5,63,98,1342860808
109,12,25,Jits_Pract_5,0,5,56,103,1343280716
109,12,25,Jits_Pract_5,1,5,63,98,1343290912
109,12,25,Jits_Pract_5,2,5,80,127,1343330704
109,12,25,Jits_Pract_5,3,1,48,44,1343350084
109,12,25,Jits_Pract_5,0,5,63,98,1343770980
109,12,25,Jits_Pract_5,1,1,48,41,1343846468
109,12,25,Jits_Pract_5,2,5,80,127,1343850844
109,12,25,Jits_Pract_5,3,5,56,103,1343861040
109,12,25,Jits_Pract_5,0,5,63,98,1344320796
109,12,25,Jits_Pract_5,1,1,48,43,1344344660
109,12,25,Jits_Pract_5,2,5,56,103,1344360800
109,12,25,Jits_Pract_5,3,5,80,127,1344363940
109,12,25,Jits_Pract_5,0,5,56,103,1344780692
109,12,25,Jits_Pract_5,1,5,63,98,1344790888
109,12,25,Jits_Pract_5,2,5,80,127,1344830752
109,12,25,Jits_Pract_5,3,1,48,40,1344856412
109,12,25,Jits_Pract_5,0,5,56,103,1345271100
109,12,25,Jits_Pract_5,1,5,63,98,1345274316
109,12,25,Jits_Pract_5,2,5,80,127,1345290736
109,12,25,Jits_Pract_5,3,1,48,37,1345381508
109,12,25,Jits_Pract_5,0,9999,9999,9999,1338568776
109,12,25,Jits_Pract_5,1,9999,9999,9999,1339068476
109,12,25,Jits_Pract_5,2,9999,9999,9999,1339568224
109,12,25,Jits_Pract_5,3,9999,9999,9999,1340068936
109,12,25,Jits_Pract_5,4,9999,9999,9999,1340568668
109,12,25,Jits_Pract_5,5,9999,9999,9999,1341068344
109,12,25,Jits_Pract_5,6,9999,9999,9999,1341568072
109,12,25,Jits_Pract_5,7,9999,9999,9999,1342068788
109,12,25,Jits_Pract_5,8,9999,9999,9999,1342568508
109,12,25,Jits_Pract_5,9,9999,9999,9999,1343068212
109,12,25,Jits_Pract_5,10,9999,9999,9999,1343568964
109,12,25,Jits_Pract_5,11,9999,9999,9999,1344068668
109,12,25,Jits_Pract_5,12,9999,9999,9999,1344568428
109,12,25,Jits_Pract_5,13,9999,9999,9999,1345068116
109,12,25,Jits_Pract_5,14,9999,9999,9999,1345568852
109,13,24,Jits_Pract_8,0,5,56,103,1353248536
109,13,24,Jits_Pract_8,1,5,63,98,1353251484
109,13,24,Jits_Pract_8,2,5,80,127,1353254600
109,13,24,Jits_Pract_8,0,5,56,103,1354047948
109,13,24,Jits_Pract_8,1,5,63,98,1354050968
109,13,24,Jits_Pract_8,2,5,80,127,1354054244
109,13,24,Jits_Pract_8,0,5,80,127,1354788340
109,13,24,Jits_Pract_8,1,1,48,31,1354856576
109,13,24,Jits_Pract_8,2,5,63,98,1354878544
109,13,24,Jits_Pract_8,3,5,56,103,1354887544
109,13,24,Jits_Pract_8,0,5,56,103,1355608416
109,13,24,Jits_Pract_8,1,1,48,33,1355613480
109,13,24,Jits_Pract_8,2,5,63,98,1355617780
109,13,24,Jits_Pract_8,3,5,80,127,1355707672
109,13,24,Jits_Pract_8,0,5,63,98,1356377540
109,13,24,Jits_Pract_8,1,5,80,127,1356408264
109,13,24,Jits_Pract_8,2,1,48,30,1356419328
109,13,24,Jits_Pract_8,3,5,56,103,1356437856
109,13,24,Jits_Pract_8,0,5,56,103,1357178340
109,13,24,Jits_Pract_8,1,1,48,33,1357180708
109,13,24,Jits_Pract_8,2,5,80,127,1357277412
109,13,24,Jits_Pract_8,3,5,63,98,1357327744
109,13,24,Jits_Pract_8,0,5,56,103,1357977888
109,13,24,Jits_Pract_8,1,1,48,31,1358005196
109,13,24,Jits_Pract_8,2,5,80,127,1358028256
109,13,24,Jits_Pract_8,3,5,63,98,1358068344
109,13,24,Jits_Pract_8,0,1,48,35,1358786312
109,13,24,Jits_Pract_8,1,5,80,127,1358808388
109,13,24,Jits_Pract_8,2,5,63,98,1358838212
109,13,24,Jits_Pract_8,3,5,56,103,1358907728
109,13,24,Jits_Pract_8,0,1,48,31,1359621972
109,13,24,Jits_Pract_8,1,5,63,98,1359638040
109,13,24,Jits_Pract_8,2,5,56,103,1359667568
109,13,24,Jits_Pract_8,3,5,80,127,1359728088
109,13,24,Jits_Pract_8,0,5,56,103,1360378388
109,13,24,Jits_Pract_8,1,5,80,127,1360381308
109,13,24,Jits_Pract_8,2,1,48,29,1360394540
109,13,24,Jits_Pract_8,3,5,63,98,1360498164
109,13,24,Jits_Pract_8,0,1,48,30,1361154880
109,13,24,Jits_Pract_8,1,5,56,103,1361257772
109,13,24,Jits_Pract_8,2,5,80,127,1361297712
109,13,24,Jits_Pract_8,3,5,63,98,1361308204
109,13,24,Jits_Pract_8,0,1,48,30,1361985432
109,13,24,Jits_Pract_8,1,5,56,103,1362017688
109,13,24,Jits_Pract_8,2,5,80,127,1362038148
109,13,24,Jits_Pract_8,3,5,63,98,1362118100
109,13,24,Jits_Pract_8,0,5,80,127,1362808308
109,13,24,Jits_Pract_8,1,1,48,30,1362819820
109,13,24,Jits_Pract_8,2,5,56,103,1362907528
109,13,24,Jits_Pract_8,3,5,63,98,1362917932
109,13,24,Jits_Pract_8,0,5,63,98,1363578340
109,13,24,Jits_Pract_8,1,1,48,34,1363605580
109,13,24,Jits_Pract_8,2,5,80,127,1363637752
109,13,24,Jits_Pract_8,3,5,56,103,1363647800
109,13,24,Jits_Pract_8,0,1,48,35,1364357832
109,13,24,Jits_Pract_8,1,5,56,103,1364378160
109,13,24,Jits_Pract_8,2,5,63,98,1364447716
109,13,24,Jits_Pract_8,3,5,80,127,1364451156
109,13,24,Jits_Pract_8,0,9999,9999,9999,1353645116
109,13,24,Jits_Pract_8,1,9999,9999,9999,1354445904
109,13,24,Jits_Pract_8,2,9999,9999,9999,1355245692
109,13,24,Jits_Pract_8,3,9999,9999,9999,1356045388
109,13,24,Jits_Pract_8,4,9999,9999,9999,1356845148
109,13,24,Jits_Pract_8,5,9999,9999,9999,1357645880
109,13,24,Jits_Pract_8,6,9999,9999,9999,1358445648
109,13,24,Jits_Pract_8,7,9999,9999,9999,1359245416
109,13,24,Jits_Pract_8,8,9999,9999,9999,1360045180
109,13,24,Jits_Pract_8,9,9999,9999,9999,1360845916
109,13,24,Jits_Pract_8,10,9999,9999,9999,1361645620
109,13,24,Jits_Pract_8,11,9999,9999,9999,1362445376
109,13,24,Jits_Pract_8,12,9999,9999,9999,1363245136
109,13,24,Jits_Pract_8,13,9999,9999,9999,1364045876
109,13,24,Jits_Pract_8,14,9999,9999,9999,1364845620
109,14,19,Jits_Linear_5,0,5,56,103,1394469148
109,14,19,Jits_Linear_5,1,5,63,98,1394472316
109,14,19,Jits_Linear_5,2,5,80,127,1394475516
109,14,19,Jits_Linear_5,0,5,56,103,1394948560
109,14,19,Jits_Linear_5,1,5,63,98,1394951508
109,14,19,Jits_Linear_5,2,5,80,127,1394954632
109,14,19,Jits_Linear_5,0,5,56,103,1395428664
109,14,19,Jits_Linear_5,1,5,80,127,1395439008
109,14,19,Jits_Linear_5,2,5,63,98,1395458644
109,14,19,Jits_Linear_5,0,5,63,98,1395858844
109,14,19,Jits_Linear_5,1,5,80,127,1395888592
109,14,19,Jits_Linear_5,2,5,56,103,1395898792
109,14,19,Jits_Linear_5,0,1,48,30,1396397220
109,14,19,Jits_Linear_5,1,5,80,127,1396398864
109,14,19,Jits_Linear_5,2,5,56,103,1396408984
109,14,19,Jits_Linear_5,3,5,63,98,1396439588
109,14,19,Jits_Linear_5,0,1,48,30,1396869764
109,14,19,Jits_Linear_5,1,5,63,98,1396878780
109,14,19,Jits_Linear_5,2,5,56,103,1396909356
109,14,19,Jits_Linear_5,3,5,80,127,1396918876
109,14,19,Jits_Linear_5,0,5,56,103,1397318984
109,14,19,Jits_Linear_5,1,5,63,98,1397369188
109,14,19,Jits_Linear_5,2,1,48,34,1397386012
109,14,19,Jits_Linear_5,3,5,80,127,1397388596
109,14,19,Jits_Linear_5,0,5,80,127,1397808648
109,14,19,Jits_Linear_5,1,1,48,27,1397825548
109,14,19,Jits_Linear_5,2,5,63,98,1397858696
109,14,19,Jits_Linear_5,3,5,56,103,1397898784
109,14,19,Jits_Linear_5,0,5,56,103,1398298908
109,14,19,Jits_Linear_5,1,1,48,31,1398328512
109,14,19,Jits_Linear_5,2,5,63,98,1398329848
109,14,19,Jits_Linear_5,3,5,80,127,1398399456
109,14,19,Jits_Linear_5,0,5,56,103,1398788648
109,14,19,Jits_Linear_5,1,1,48,34,1398807660
109,14,19,Jits_Linear_5,2,5,80,127,1398848812
109,14,19,Jits_Linear_5,3,5,63,98,1398878636
109,14,19,Jits_Linear_5,0,5,56,103,1399289100
109,14,19,Jits_Linear_5,1,5,63,98,1399298620
109,14,19,Jits_Linear_5,2,1,48,27,1399330364
109,14,19,Jits_Linear_5,3,5,80,127,1399339452
109,14,19,Jits_Linear_5,0,1,48,35,1399777556
109,14,19,Jits_Linear_5,1,5,63,98,1399779200
109,14,19,Jits_Linear_5,2,5,80,127,1399858700
109,14,19,Jits_Linear_5,3,5,56,103,1399868676
109,14,19,Jits_Linear_5,0,1,48,34,1400292876
109,14,19,Jits_Linear_5,1,5,63,98,1400328572
109,14,19,Jits_Linear_5,2,5,56,103,1400368584
109,14,19,Jits_Linear_5,3,5,80,127,1400371800
109,14,19,Jits_Linear_5,0,5,56,103,1400789372
109,14,19,Jits_Linear_5,1,1,48,35,1400796632
109,14,19,Jits_Linear_5,2,5,63,98,1400798664
109,14,19,Jits_Linear_5,3,5,80,127,1400838604
109,14,19,Jits_Linear_5,0,5,56,103,1401278932
109,14,19,Jits_Linear_5,1,5,63,98,1401281852
109,14,19,Jits_Linear_5,2,1,48,35,1401285668
109,14,19,Jits_Linear_5,3,5,80,127,1401299336
109,14,19,Jits_Linear_5,0,1,48,35,1401755656
109,14,19,Jits_Linear_5,1,5,80,127,1401799096
109,14,19,Jits_Linear_5,2,5,56,103,1401809216
109,14,19,Jits_Linear_5,3,5,63,98,1401878808
109,14,19,Jits_Linear_5,0,1,48,35,1402289140
109,14,19,Jits_Linear_5,1,5,63,98,1402298756
109,14,19,Jits_Linear_5,2,5,56,103,1402319316
109,14,19,Jits_Linear_5,3,5,80,127,1402398948
109,14,19,Jits_Linear_5,0,1,48,35,1402785820
109,14,19,Jits_Linear_5,1,5,56,103,1402818824
109,14,19,Jits_Linear_5,2,5,80,127,1402858764
109,14,19,Jits_Linear_5,3,5,63,98,1402868960
109,14,19,Jits_Linear_5,0,1,48,32,1403307748
109,14,19,Jits_Linear_5,1,5,80,127,1403318560
109,14,19,Jits_Linear_5,2,5,63,98,1403349460
109,14,19,Jits_Linear_5,3,5,56,103,1403389472
109,14,19,Jits_Linear_5,0,1,48,34,1403793188
109,14,19,Jits_Linear_5,1,5,56,103,1403848988
109,14,19,Jits_Linear_5,2,5,63,98,1403878888
109,14,19,Jits_Linear_5,3,5,80,127,1403928856
109,14,19,Jits_Linear_5,0,1,48,35,1404323300
109,14,19,Jits_Linear_5,1,5,80,127,1404359020
109,14,19,Jits_Linear_5,2,5,56,103,1404398884
109,14,19,Jits_Linear_5,3,5,63,98,1404409380
109,14,19,Jits_Linear_5,0,5,80,127,1404858836
109,14,19,Jits_Linear_5,1,1,48,35,1404868732
109,14,19,Jits_Linear_5,2,5,63,98,1404898720
109,14,19,Jits_Linear_5,3,5,56,103,1404959040
109,14,19,Jits_Linear_5,0,1,48,36,1405373404
109,14,19,Jits_Linear_5,1,5,56,103,1405379156
109,14,19,Jits_Linear_5,2,5,80,127,1405389056
109,14,19,Jits_Linear_5,3,5,63,98,1405468912
109,14,19,Jits_Linear_5,0,1,48,35,1405875416
109,14,19,Jits_Linear_5,1,5,80,127,1405899000
109,14,19,Jits_Linear_5,2,5,63,98,1405958496
109,14,19,Jits_Linear_5,3,5,56,103,1405989352
109,14,19,Jits_Linear_5,0,1,48,33,1406398860
109,14,19,Jits_Linear_5,1,5,56,103,1406419360
109,14,19,Jits_Linear_5,2,5,80,127,1406478636
109,14,19,Jits_Linear_5,3,5,63,98,1406518632
109,14,19,Jits_Linear_5,0,1,48,33,1406930564
109,14,19,Jits_Linear_5,1,5,56,103,1406998848
109,14,19,Jits_Linear_5,2,5,63,98,1407009264
109,14,19,Jits_Linear_5,3,5,80,127,1407012780
109,14,19,Jits_Linear_5,0,1,48,36,1407459540
109,14,19,Jits_Linear_5,1,5,80,127,1407479344
109,14,19,Jits_Linear_5,2,5,63,98,1407569540
109,14,19,Jits_Linear_5,3,5,56,103,1407578616
109,14,19,Jits_Linear_5,0,1,48,36,1407996304
109,14,19,Jits_Linear_5,1,5,56,103,1408008612
109,14,19,Jits_Linear_5,2,5,63,98,1408011936
109,14,19,Jits_Linear_5,3,5,80,127,1408014980
109,14,19,Jits_Linear_5,0,1,48,36,1408504512
109,14,19,Jits_Linear_5,1,5,80,127,1408568684
109,14,19,Jits_Linear_5,2,5,63,98,1408618800
109,14,19,Jits_Linear_5,3,5,56,103,1408648624
109,14,19,Jits_Linear_5,0,1,48,35,1409038004
109,14,19,Jits_Linear_5,1,5,56,103,1409078640
109,14,19,Jits_Linear_5,2,5,80,127,1409088836
109,14,19,Jits_Linear_5,3,5,63,98,1409158500
109,14,19,Jits_Linear_5,0,1,48,35,1409606228
109,14,19,Jits_Linear_5,1,5,56,103,1409619448
109,14,19,Jits_Linear_5,2,5,63,98,1409638788
109,14,19,Jits_Linear_5,3,5,80,127,1409699404
109,14,19,Jits_Linear_5,0,1,48,38,1410125464
109,14,19,Jits_Linear_5,1,5,80,127,1410148656
109,14,19,Jits_Linear_5,2,5,63,98,1410219372
109,14,19,Jits_Linear_5,3,5,56,103,1410238860
109,14,19,Jits_Linear_5,0,1,48,37,1410669668
109,14,19,Jits_Linear_5,1,5,80,127,1410708804
109,14,19,Jits_Linear_5,2,5,56,103,1410719296
109,14,19,Jits_Linear_5,3,5,63,98,1410729568
109,14,19,Jits_Linear_5,0,1,48,32,1411218572
109,14,19,Jits_Linear_5,1,5,80,127,1411239416
109,14,19,Jits_Linear_5,2,5,56,103,1411258684
109,14,19,Jits_Linear_5,3,5,63,98,1411329572
109,14,19,Jits_Linear_5,0,1,48,33,1411782108
109,14,19,Jits_Linear_5,1,5,56,103,1411789032
109,14,19,Jits_Linear_5,2,5,80,127,1411818932
109,14,19,Jits_Linear_5,3,5,63,98,1411839540
109,14,19,Jits_Linear_5,0,5,63,98,1412328736
109,14,19,Jits_Linear_5,1,1,48,34,1412329700
109,14,19,Jits_Linear_5,2,5,56,103,1412389420
109,14,19,Jits_Linear_5,3,5,80,127,1412418872
109,14,19,Jits_Linear_5,0,5,63,98,1412868500
109,14,19,Jits_Linear_5,1,1,48,33,1412872092
109,14,19,Jits_Linear_5,2,5,80,127,1412873360
109,14,19,Jits_Linear_5,3,5,56,103,1412958560
109,14,19,Jits_Linear_5,0,1,48,35,1413398120
109,14,19,Jits_Linear_5,1,5,56,103,1413438828
109,14,19,Jits_Linear_5,2,5,63,98,1413468504
109,14,19,Jits_Linear_5,3,5,80,127,1413508428
109,14,19,Jits_Linear_5,0,1,48,31,1413980668
109,14,19,Jits_Linear_5,1,5,63,98,1413988640
109,14,19,Jits_Linear_5,2,5,56,103,1414028580
109,14,19,Jits_Linear_5,3,5,80,127,1414049260
109,14,19,Jits_Linear_5,0,1,48,34,1414515704
109,14,19,Jits_Linear_5,1,5,63,98,1414548788
109,14,19,Jits_Linear_5,2,5,56,103,1414588728
109,14,19,Jits_Linear_5,3,5,80,127,1414598952
109,14,19,Jits_Linear_5,0,5,80,127,1415079496
109,14,19,Jits_Linear_5,1,1,48,30,1415088692
109,14,19,Jits_Linear_5,2,5,63,98,1415148828
109,14,19,Jits_Linear_5,3,5,56,103,1415169360
109,14,19,Jits_Linear_5,0,5,56,103,1415629272
109,14,19,Jits_Linear_5,1,1,48,34,1415634412
109,14,19,Jits_Linear_5,2,5,80,127,1415648532
109,14,19,Jits_Linear_5,3,5,63,98,1415688692
109,14,19,Jits_Linear_5,0,1,48,33,1416176500
109,14,19,Jits_Linear_5,1,5,63,98,1416198496
109,14,19,Jits_Linear_5,2,5,80,127,1416218956
109,14,19,Jits_Linear_5,3,5,56,103,1416258820
109,14,19,Jits_Linear_5,0,1,48,35,1416714400
109,14,19,Jits_Linear_5,1,5,63,98,1416758640
109,14,19,Jits_Linear_5,2,5,56,103,1416779320
109,14,19,Jits_Linear_5,3,5,80,127,1416789220
109,14,19,Jits_Linear_5,0,1,48,27,1417282040
109,14,19,Jits_Linear_5,1,5,80,127,1417318780
109,14,19,Jits_Linear_5,2,5,56,103,1417339464
109,14,19,Jits_Linear_5,3,5,63,98,1417368916
109,14,19,Jits_Linear_5,0,1,48,29,1417834908
109,14,19,Jits_Linear_5,1,5,56,103,1417958728
109,14,19,Jits_Linear_5,2,5,80,127,1417961796
109,14,19,Jits_Linear_5,3,5,63,98,1417979264
109,14,19,Jits_Linear_5,0,1,48,29,1418446252
109,14,19,Jits_Linear_5,1,5,63,98,1418449356
109,14,19,Jits_Linear_5,2,5,56,103,1418478884
109,14,19,Jits_Linear_5,3,5,80,127,1418539428
109,14,19,Jits_Linear_5,0,1,48,30,1419019296
109,14,19,Jits_Linear_5,1,5,63,98,1419098440
109,14,19,Jits_Linear_5,2,5,56,103,1419108712
109,14,19,Jits_Linear_5,3,5,80,127,1419118892
109,14,19,Jits_Linear_5,0,1,48,28,1419584536
109,14,19,Jits_Linear_5,1,5,56,103,1419618660
109,14,19,Jits_Linear_5,2,5,80,127,1419649456
109,14,19,Jits_Linear_5,3,5,63,98,1419658608
109,14,19,Jits_Linear_5,0,1,48,32,1420161252
109,14,19,Jits_Linear_5,1,5,63,98,1420229256
109,14,19,Jits_Linear_5,2,5,56,103,1420239304
109,14,19,Jits_Linear_5,3,5,80,127,1420259528
109,14,19,Jits_Linear_5,0,5,56,103,1420728556
109,14,19,Jits_Linear_5,1,1,48,33,1420746828
109,14,19,Jits_Linear_5,2,5,63,98,1420789416
109,14,19,Jits_Linear_5,3,5,80,127,1420792704
109,14,19,Jits_Linear_5,0,1,48,32,1421323388
109,14,19,Jits_Linear_5,1,5,80,127,1421328736
109,14,19,Jits_Linear_5,2,5,56,103,1421339228
109,14,19,Jits_Linear_5,3,5,63,98,1421408540
109,14,19,Jits_Linear_5,0,1,48,32,1421895436
109,14,19,Jits_Linear_5,1,5,80,127,1421899296
109,14,19,Jits_Linear_5,2,5,56,103,1421968608
109,14,19,Jits_Linear_5,3,5,63,98,1421978952
109,14,19,Jits_Linear_5,0,1,48,34,1422491560
109,14,19,Jits_Linear_5,1,5,63,98,1422518712
109,14,19,Jits_Linear_5,2,5,56,103,1422528912
109,14,19,Jits_Linear_5,3,5,80,127,1422549248
109,14,19,Jits_Linear_5,0,5,80,127,1423049148
109,14,19,Jits_Linear_5,1,1,48,34,1423078196
109,14,19,Jits_Linear_5,2,5,63,98,1423108340
109,14,19,Jits_Linear_5,3,5,56,103,1423149476
109,14,19,Jits_Linear_5,0,1,48,34,1423647800
109,14,19,Jits_Linear_5,1,5,56,103,1423678840
109,14,19,Jits_Linear_5,2,5,63,98,1423689036
109,14,19,Jits_Linear_5,3,5,80,127,1423729196
109,14,19,Jits_Linear_5,0,5,56,103,1424228656
109,14,19,Jits_Linear_5,1,5,80,127,1424258556
109,14,19,Jits_Linear_5,2,1,48,31,1424266316
109,14,19,Jits_Linear_5,3,5,63,98,1424308456
109,14,19,Jits_Linear_5,0,1,48,35,1424830892
109,14,19,Jits_Linear_5,1,5,56,103,1424858440
109,14,19,Jits_Linear_5,2,5,63,98,1424898528
109,14,19,Jits_Linear_5,3,5,80,127,1424901816
109,14,19,Jits_Linear_5,0,1,48,31,1425429796
109,14,19,Jits_Linear_5,1,5,56,103,1425449300
109,14,19,Jits_Linear_5,2,5,63,98,1425458524
109,14,19,Jits_Linear_5,3,5,80,127,1425479204
109,14,19,Jits_Linear_5,0,5,56,103,1425999104
109,14,19,Jits_Linear_5,1,5,80,127,1426002176
109,14,19,Jits_Linear_5,2,1,48,33,1426038900
109,14,19,Jits_Linear_5,3,5,63,98,1426040312
109,14,19,Jits_Linear_5,0,1,48,29,1426616852
109,14,19,Jits_Linear_5,1,5,63,98,1426628960
109,14,19,Jits_Linear_5,2,5,56,103,1426658564
109,14,19,Jits_Linear_5,3,5,80,127,1426679100
109,14,19,Jits_Linear_5,0,1,48,35,1427192748
109,14,19,Jits_Linear_5,1,5,80,127,1427199300
109,14,19,Jits_Linear_5,2,5,56,103,1427208524
109,14,19,Jits_Linear_5,3,5,63,98,1427218792
109,14,19,Jits_Linear_5,0,1,48,34,1427763680
109,14,19,Jits_Linear_5,1,5,56,103,1427799448
109,14,19,Jits_Linear_5,2,5,80,127,1427839240
109,14,19,Jits_Linear_5,3,5,63,98,1427868976
109,14,19,Jits_Linear_5,0,1,48,29,1428357628
109,14,19,Jits_Linear_5,1,5,63,98,1428408672
109,14,19,Jits_Linear_5,2,5,80,127,1428419116
109,14,19,Jits_Linear_5,3,5,56,103,1428429388
109,14,19,Jits_Linear_5,0,5,56,103,1428989300
109,14,19,Jits_Linear_5,1,1,48,27,1428992048
109,14,19,Jits_Linear_5,2,5,63,98,1429059052
109,14,19,Jits_Linear_5,3,5,80,127,1429069176
109,14,19,Jits_Linear_5,0,1,48,36,1429596416
109,14,19,Jits_Linear_5,1,5,80,127,1429598604
109,14,19,Jits_Linear_5,2,5,56,103,1429608728
109,14,19,Jits_Linear_5,3,5,63,98,1429659228
109,14,19,Jits_Linear_5,0,1,48,37,1430198580
109,14,19,Jits_Linear_5,1,5,80,127,1430219080
109,14,19,Jits_Linear_5,2,5,56,103,1430278428
109,14,19,Jits_Linear_5,3,5,63,98,1430309208
109,14,19,Jits_Linear_5,0,5,56,103,1430829280
109,14,19,Jits_Linear_5,1,5,80,127,1430832424
109,14,19,Jits_Linear_5,2,1,48,37,1430836684
109,14,19,Jits_Linear_5,3,5,63,98,1430869292
109,14,19,Jits_Linear_5,0,1,48,36,1431456300
109,14,19,Jits_Linear_5,1,5,56,103,1431469300
109,14,19,Jits_Linear_5,2,5,63,98,1431499076
109,14,19,Jits_Linear_5,3,5,80,127,1431509272
109,14,19,Jits_Linear_5,0,1,48,37,1432088824
109,14,19,Jits_Linear_5,1,5,63,98,1432090160
109,14,19,Jits_Linear_5,2,5,80,127,1432099160
109,14,19,Jits_Linear_5,3,5,56,103,1432109432
109,14,19,Jits_Linear_5,0,5,80,127,1432649044
109,14,19,Jits_Linear_5,1,5,56,103,1432699164
109,14,19,Jits_Linear_5,2,5,63,98,1432702164
109,14,19,Jits_Linear_5,3,1,48,36,1432703204
109,14,19,Jits_Linear_5,0,5,56,103,1433299276
109,14,19,Jits_Linear_5,1,1,48,34,1433310788
109,14,19,Jits_Linear_5,2,5,80,127,1433318904
109,14,19,Jits_Linear_5,3,5,63,98,1433329176
109,14,19,Jits_Linear_5,0,5,63,98,1433899368
109,14,19,Jits_Linear_5,1,5,56,103,1433929196
109,14,19,Jits_Linear_5,2,1,48,35,1433936504
109,14,19,Jits_Linear_5,3,5,80,127,1433948380
109,14,19,Jits_Linear_5,0,1,48,34,1434525180
109,14,19,Jits_Linear_5,1,5,56,103,1434529260
109,14,19,Jits_Linear_5,2,5,80,127,1434539232
109,14,19,Jits_Linear_5,3,5,63,98,1434609164
109,14,19,Jits_Linear_5,0,5,63,98,1435138364
109,14,19,Jits_Linear_5,1,1,48,35,1435155788
109,14,19,Jits_Linear_5,2,5,80,127,1435179492
109,14,19,Jits_Linear_5,3,5,56,103,1435219284
109,14,19,Jits_Linear_5,0,1,48,40,1435764476
109,14,19,Jits_Linear_5,1,5,56,103,1435778448
109,14,19,Jits_Linear_5,2,5,63,98,1435788940
109,14,19,Jits_Linear_5,3,5,80,127,1435809176
109,14,19,Jits_Linear_5,0,1,48,30,1436423324
109,14,19,Jits_Linear_5,1,5,63,98,1436449352
109,14,19,Jits_Linear_5,2,5,80,127,1436468468
109,14,19,Jits_Linear_5,3,5,56,103,1436489224
109,14,19,Jits_Linear_5,0,5,56,103,1437018428
109,14,19,Jits_Linear_5,1,1,48,38,1437033756
109,14,19,Jits_Linear_5,2,5,80,127,1437099344
109,14,19,Jits_Linear_5,3,5,63,98,1437108716
109,14,19,Jits_Linear_5,0,1,48,37,1437650960
109,14,19,Jits_Linear_5,1,5,80,127,1437689196
109,14,19,Jits_Linear_5,2,5,63,98,1437698272
109,14,19,Jits_Linear_5,3,5,56,103,1437729068
109,14,19,Jits_Linear_5,0,5,63,98,1438278944
109,14,19,Jits_Linear_5,1,1,48,36,1438284528
109,14,19,Jits_Linear_5,2,5,80,127,1438319176
109,14,19,Jits_Linear_5,3,5,56,103,1438379848
109,14,19,Jits_Linear_5,0,1,48,35,1438901768
109,14,19,Jits_Linear_5,1,5,63,98,1438919128
109,14,19,Jits_Linear_5,2,5,56,103,1438969108
109,14,19,Jits_Linear_5,3,5,80,127,1438999156
109,14,19,Jits_Linear_5,0,1,48,36,1439525760
109,14,19,Jits_Linear_5,1,5,80,127,1439569256
109,14,19,Jits_Linear_5,2,5,63,98,1439578408
109,14,19,Jits_Linear_5,3,5,56,103,1439649044
109,14,19,Jits_Linear_5,0,1,48,29,1440130200
109,14,19,Jits_Linear_5,1,5,80,127,1440278960
109,14,19,Jits_Linear_5,2,5,56,103,1440289080
109,14,19,Jits_Linear_5,3,5,63,98,1440292072
109,14,19,Jits_Linear_5,0,5,56,103,1440858452
109,14,19,Jits_Linear_5,1,1,48,29,1440870640
109,14,19,Jits_Linear_5,2,5,80,127,1440879128
109,14,19,Jits_Linear_5,3,5,63,98,1440889104
109,14,19,Jits_Linear_5,0,1,48,29,1441490452
109,14,19,Jits_Linear_5,1,5,63,98,1441509060
109,14,19,Jits_Linear_5,2,5,56,103,1441548628
109,14,19,Jits_Linear_5,3,5,80,127,1441569088
109,14,19,Jits_Linear_5,0,1,48,35,1442122228
109,14,19,Jits_Linear_5,1,5,63,98,1442158972
109,14,19,Jits_Linear_5,2,5,56,103,1442219348
109,14,19,Jits_Linear_5,3,5,80,127,1442222488
109,14,19,Jits_Linear_5,0,5,56,103,1442769184
109,14,19,Jits_Linear_5,1,5,80,127,1442788672
109,14,19,Jits_Linear_5,2,1,48,36,1442793432
109,14,19,Jits_Linear_5,3,5,63,98,1442828604
109,14,19,Jits_Linear_5,0,1,48,34,1443411568
109,14,19,Jits_Linear_5,1,5,56,103,1443449064
109,14,19,Jits_Linear_5,2,5,63,98,1443468700
109,14,19,Jits_Linear_5,3,5,80,127,1443478896
109,14,19,Jits_Linear_5,0,1,48,30,1444067064
109,14,19,Jits_Linear_5,1,5,80,127,1444068868
109,14,19,Jits_Linear_5,2,5,56,103,1444098472
109,14,19,Jits_Linear_5,3,5,63,98,1444139308
109,14,19,Jits_Linear_5,0,1,48,35,1444710348
109,14,19,Jits_Linear_5,1,5,80,127,1444729184
109,14,19,Jits_Linear_5,2,5,56,103,1444748892
109,14,19,Jits_Linear_5,3,5,63,98,1444809148
109,14,19,Jits_Linear_5,0,1,48,41,1445329488
109,14,19,Jits_Linear_5,1,5,56,103,1445388628
109,14,19,Jits_Linear_5,2,5,80,127,1445409164
109,14,19,Jits_Linear_5,3,5,63,98,1445468492
109,14,19,Jits_Linear_5,0,1,48,37,1446008316
109,14,19,Jits_Linear_5,1,5,80,127,1446028792
109,14,19,Jits_Linear_5,2,5,56,103,1446038836
109,14,19,Jits_Linear_5,3,5,63,98,1446079076
109,14,19,Jits_Linear_5,0,1,48,32,1446688456
109,14,19,Jits_Linear_5,1,5,63,98,1446690024
109,14,19,Jits_Linear_5,2,5,56,103,1446729064
109,14,19,Jits_Linear_5,3,5,80,127,1446732060
109,14,19,Jits_Linear_5,0,1,48,34,1447328728
109,14,19,Jits_Linear_5,1,5,63,98,1447369012
109,14,19,Jits_Linear_5,2,5,80,127,1447409104
109,14,19,Jits_Linear_5,3,5,56,103,1447438912
109,14,19,Jits_Linear_5,0,1,48,31,1447919388
109,14,19,Jits_Linear_5,1,5,56,103,1448019200
109,14,19,Jits_Linear_5,2,5,63,98,1448028720
109,14,19,Jits_Linear_5,3,5,80,127,1448059296
109,14,19,Jits_Linear_5,0,1,48,33,1448613264
109,14,19,Jits_Linear_5,1,5,80,127,1448678880
109,14,19,Jits_Linear_5,2,5,63,98,1448749448
109,14,19,Jits_Linear_5,3,5,56,103,1448758820
109,14,19,Jits_Linear_5,0,1,48,33,1449327484
109,14,19,Jits_Linear_5,1,5,63,98,1449348412
109,14,19,Jits_Linear_5,2,5,56,103,1449419096
109,14,19,Jits_Linear_5,3,5,80,127,1449429352
109,14,19,Jits_Linear_5,0,1,48,31,1450010904
109,14,19,Jits_Linear_5,1,5,63,98,1450019244
109,14,19,Jits_Linear_5,2,5,56,103,1450038732
109,14,19,Jits_Linear_5,3,5,80,127,1450078820
109,14,19,Jits_Linear_5,0,5,56,103,1450698992
109,14,19,Jits_Linear_5,1,5,63,98,1450709264
109,14,19,Jits_Linear_5,2,1,48,31,1450711128
109,14,19,Jits_Linear_5,3,5,80,127,1450789204
109,14,19,Jits_Linear_5,0,5,63,98,1451358796
109,14,19,Jits_Linear_5,1,1,48,37,1451363864
109,14,19,Jits_Linear_5,2,5,56,103,1451389220
109,14,19,Jits_Linear_5,3,5,80,127,1451429160
109,14,19,Jits_Linear_5,0,5,56,103,1452029252
109,14,19,Jits_Linear_5,1,1,48,32,1452039944
109,14,19,Jits_Linear_5,2,5,63,98,1452069192
109,14,19,Jits_Linear_5,3,5,80,127,1452109204
109,14,19,Jits_Linear_5,0,5,80,127,1452709292
109,14,19,Jits_Linear_5,1,1,48,31,1452720356
109,14,19,Jits_Linear_5,2,5,56,103,1452789032
109,14,19,Jits_Linear_5,3,5,63,98,1452799304
109,14,19,Jits_Linear_5,0,5,56,103,1453429064
109,14,19,Jits_Linear_5,1,5,63,98,1453432128
109,14,19,Jits_Linear_5,2,1,48,33,1453433168
109,14,19,Jits_Linear_5,3,5,80,127,1453439624
109,14,19,Jits_Linear_5,0,1,48,38,1454071848
109,14,19,Jits_Linear_5,1,5,56,103,1454128444
109,14,19,Jits_Linear_5,2,5,63,98,1454148904
109,14,19,Jits_Linear_5,3,5,80,127,1454159248
109,14,19,Jits_Linear_5,0,5,63,98,1454768764
109,14,19,Jits_Linear_5,1,5,80,127,1454778888
109,14,19,Jits_Linear_5,2,1,48,32,1454785468
109,14,19,Jits_Linear_5,3,5,56,103,1454799144
109,14,19,Jits_Linear_5,0,1,48,38,1455426288
109,14,19,Jits_Linear_5,1,5,63,98,1455458920
109,14,19,Jits_Linear_5,2,5,56,103,1455538628
109,14,19,Jits_Linear_5,3,5,80,127,1455541696
109,14,19,Jits_Linear_5,0,1,48,32,1456134952
109,14,19,Jits_Linear_5,1,5,63,98,1456148852
109,14,19,Jits_Linear_5,2,5,56,103,1456169312
109,14,19,Jits_Linear_5,3,5,80,127,1456198988
109,14,19,Jits_Linear_5,0,5,56,103,1456839088
109,14,19,Jits_Linear_5,1,1,48,31,1456840052
109,14,19,Jits_Linear_5,2,5,63,98,1456858568
109,14,19,Jits_Linear_5,3,5,80,127,1456868692
109,14,19,Jits_Linear_5,0,1,48,35,1457504100
109,14,19,Jits_Linear_5,1,5,56,103,1457558832
109,14,19,Jits_Linear_5,2,5,63,98,1457588804
109,14,19,Jits_Linear_5,3,5,80,127,1457592172
109,14,19,Jits_Linear_5,0,1,48,37,1458149836
109,14,19,Jits_Linear_5,1,5,56,103,1458198864
109,14,19,Jits_Linear_5,2,5,63,98,1458238804
109,14,19,Jits_Linear_5,3,5,80,127,1458299180
109,14,19,Jits_Linear_5,0,1,48,36,1458877892
109,14,19,Jits_Linear_5,1,5,56,103,1458908804
109,14,19,Jits_Linear_5,2,5,63,98,1458918704
109,14,19,Jits_Linear_5,3,5,80,127,1458979156
109,14,19,Jits_Linear_5,0,1,48,39,1459567232
109,14,19,Jits_Linear_5,1,5,56,103,1459609060
109,14,19,Jits_Linear_5,2,5,80,127,1459629368
109,14,19,Jits_Linear_5,3,5,63,98,1459659072
109,14,19,Jits_Linear_5,0,1,48,31,1460292820
109,14,19,Jits_Linear_5,1,5,80,127,1460309628
109,14,19,Jits_Linear_5,2,5,56,103,1460318628
109,14,19,Jits_Linear_5,3,5,63,98,1460339164
109,14,19,Jits_Linear_5,0,1,48,32,1460972936
109,14,19,Jits_Linear_5,1,5,63,98,1460998664
109,14,19,Jits_Linear_5,2,5,80,127,1461079348
109,14,19,Jits_Linear_5,3,5,56,103,1461088796
109,14,19,Jits_Linear_5,0,1,48,30,1461713816
109,14,19,Jits_Linear_5,1,5,80,127,1461759480
109,14,19,Jits_Linear_5,2,5,56,103,1461778744
109,14,19,Jits_Linear_5,3,5,63,98,1461781884
109,14,19,Jits_Linear_5,0,5,63,98,1462439584
109,14,19,Jits_Linear_5,1,5,80,127,1462442792
109,14,19,Jits_Linear_5,2,1,48,34,1462454680
109,14,19,Jits_Linear_5,3,5,56,103,1462498716
109,14,19,Jits_Linear_5,0,5,56,103,1463128608
109,14,19,Jits_Linear_5,1,5,80,127,1463138656
109,14,19,Jits_Linear_5,2,1,48,33,1463169348
109,14,19,Jits_Linear_5,3,5,63,98,1463178588
109,14,19,Jits_Linear_5,0,5,56,103,1463818556
109,14,19,Jits_Linear_5,1,1,48,35,1463873596
109,14,19,Jits_Linear_5,2,5,63,98,1463878944
109,14,19,Jits_Linear_5,3,5,80,127,1463889440
109,14,19,Jits_Linear_5,0,1,48,38,1464524876
109,14,19,Jits_Linear_5,1,5,63,98,1464538772
109,14,19,Jits_Linear_5,2,5,80,127,1464578564
109,14,19,Jits_Linear_5,3,5,56,103,1464619608
109,14,19,Jits_Linear_5,0,1,48,37,1465225196
109,14,19,Jits_Linear_5,1,5,56,103,1465249208
109,14,19,Jits_Linear_5,2,5,63,98,1465328864
109,14,19,Jits_Linear_5,3,5,80,127,1465332232
109,14,19,Jits_Linear_5,0,1,48,33,1465979648
109,14,19,Jits_Linear_5,1,5,80,127,1466019308
109,14,19,Jits_Linear_5,2,5,56,103,1466048780
109,14,19,Jits_Linear_5,3,5,63,98,1466052004
109,14,19,Jits_Linear_5,0,5,56,103,1466698984
109,14,19,Jits_Linear_5,1,1,48,33,1466712664
109,14,19,Jits_Linear_5,2,5,80,127,1466718764
109,14,19,Jits_Linear_5,3,5,63,98,1466758480
109,14,19,Jits_Linear_5,0,5,80,127,1467398600
109,14,19,Jits_Linear_5,1,5,63,98,1467418912
109,14,19,Jits_Linear_5,2,1,48,37,1467421808
109,14,19,Jits_Linear_5,3,5,56,103,1467479520
109,14,19,Jits_Linear_5,0,5,63,98,1468128488
109,14,19,Jits_Linear_5,1,5,56,103,1468138908
109,14,19,Jits_Linear_5,2,1,48,35,1468146364
109,14,19,Jits_Linear_5,3,5,80,127,1468188956
109,14,19,Jits_Linear_5,0,1,48,35,1468836932
109,14,19,Jits_Linear_5,1,5,56,103,1468839436
109,14,19,Jits_Linear_5,2,5,63,98,1468858776
109,14,19,Jits_Linear_5,3,5,80,127,1468868996
109,14,19,Jits_Linear_5,0,1,48,34,1469549948
109,14,19,Jits_Linear_5,1,5,56,103,1469559032
109,14,19,Jits_Linear_5,2,5,63,98,1469562252
109,14,19,Jits_Linear_5,3,5,80,127,1469578596
109,14,19,Jits_Linear_5,0,1,48,35,1470263536
109,14,19,Jits_Linear_5,1,5,63,98,1470329572
109,14,19,Jits_Linear_5,2,5,56,103,1470358952
109,14,19,Jits_Linear_5,3,5,80,127,1470388540
109,14,19,Jits_Linear_5,0,1,48,32,1471007884
109,14,19,Jits_Linear_5,1,5,80,127,1471019660
109,14,19,Jits_Linear_5,2,5,56,103,1471108736
109,14,19,Jits_Linear_5,3,5,63,98,1471111656
109,14,19,Jits_Linear_5,0,5,56,103,1471748556
109,14,19,Jits_Linear_5,1,5,80,127,1471751700
109,14,19,Jits_Linear_5,2,1,48,35,1471790860
109,14,19,Jits_Linear_5,3,5,63,98,1471829616
109,14,19,Jits_Linear_5,0,5,80,127,1472478584
109,14,19,Jits_Linear_5,1,1,48,34,1472505516
109,14,19,Jits_Linear_5,2,5,63,98,1472538968
109,14,19,Jits_Linear_5,3,5,56,103,1472568572
109,14,19,Jits_Linear_5,0,5,63,98,1473208592
109,14,19,Jits_Linear_5,1,5,80,127,1473218888
109,14,19,Jits_Linear_5,2,1,48,34,1473226048
109,14,19,Jits_Linear_5,3,5,56,103,1473288636
109,14,19,Jits_Linear_5,0,1,48,37,1473931380
109,14,19,Jits_Linear_5,1,5,56,103,1473959724
109,14,19,Jits_Linear_5,2,5,80,127,1473988908
109,14,19,Jits_Linear_5,3,5,63,98,1474039244
109,14,19,Jits_Linear_5,0,1,48,45,1474699760
109,14,19,Jits_Linear_5,1,5,63,98,1474738600
109,14,19,Jits_Linear_5,2,5,56,103,1474769492
109,14,19,Jits_Linear_5,3,5,80,127,1474772488
109,14,19,Jits_Linear_5,0,1,48,40,1475406008
109,14,19,Jits_Linear_5,1,5,63,98,1475478872
109,14,19,Jits_Linear_5,2,5,80,127,1475499332
109,14,19,Jits_Linear_5,3,5,56,103,1475508540
109,14,19,Jits_Linear_5,0,1,48,39,1476195968
109,14,19,Jits_Linear_5,1,5,56,103,1476228444
109,14,19,Jits_Linear_5,2,5,63,98,1476231436
109,14,19,Jits_Linear_5,3,5,80,127,1476248980
109,14,19,Jits_Linear_5,0,5,56,103,1476928792
109,14,19,Jits_Linear_5,1,5,63,98,1476938992
109,14,19,Jits_Linear_5,2,1,48,36,1476946744
109,14,19,Jits_Linear_5,3,5,80,127,1476968812
109,14,19,Jits_Linear_5,0,1,48,33,1477684780
109,14,19,Jits_Linear_5,1,5,63,98,1477698900
109,14,19,Jits_Linear_5,2,5,80,127,1477719284
109,14,19,Jits_Linear_5,3,5,56,103,1477759600
109,14,19,Jits_Linear_5,0,1,48,36,1478444320
109,14,19,Jits_Linear_5,1,5,56,103,1478479192
109,14,19,Jits_Linear_5,2,5,63,98,1478519428
109,14,19,Jits_Linear_5,3,5,80,127,1478522796
109,14,19,Jits_Linear_5,0,5,80,127,1479169348
109,14,19,Jits_Linear_5,1,5,56,103,1479209512
109,14,19,Jits_Linear_5,2,1,48,35,1479219752
109,14,19,Jits_Linear_5,3,5,63,98,1479258360
109,14,19,Jits_Linear_5,0,1,48,35,1479956672
109,14,19,Jits_Linear_5,1,5,56,103,1479979240
109,14,19,Jits_Linear_5,2,5,80,127,1479988688
109,14,19,Jits_Linear_5,3,5,63,98,1480019484
109,14,19,Jits_Linear_5,0,5,56,103,1480678696
109,14,19,Jits_Linear_5,1,5,80,127,1480718564
109,14,19,Jits_Linear_5,2,1,48,27,1480740264
109,14,19,Jits_Linear_5,3,5,63,98,1480768760
109,14,19,Jits_Linear_5,0,5,56,103,1481438552
109,14,19,Jits_Linear_5,1,5,80,127,1481478416
109,14,19,Jits_Linear_5,2,1,48,40,1481492548
109,14,19,Jits_Linear_5,3,5,63,98,1481528612
109,14,19,Jits_Linear_5,0,5,80,127,1482189336
109,14,19,Jits_Linear_5,1,1,48,34,1482232316
109,14,19,Jits_Linear_5,2,5,63,98,1482268980
109,14,19,Jits_Linear_5,3,5,56,103,1482279476
109,14,19,Jits_Linear_5,0,5,80,127,1482999240
109,14,19,Jits_Linear_5,1,1,48,32,1483000280
109,14,19,Jits_Linear_5,2,5,56,103,1483009356
109,14,19,Jits_Linear_5,3,5,63,98,1483028768
109,14,19,Jits_Linear_5,0,5,63,98,1483729348
109,14,19,Jits_Linear_5,1,1,48,37,1483763856
109,14,19,Jits_Linear_5,2,5,56,103,1483799100
109,14,19,Jits_Linear_5,3,5,80,127,1483802240
109,14,19,Jits_Linear_5,0,5,80,127,1484489104
109,14,19,Jits_Linear_5,1,1,48,30,1484517104
109,14,19,Jits_Linear_5,2,5,63,98,1484539452
109,14,19,Jits_Linear_5,3,5,56,103,1484579464
109,14,19,Jits_Linear_5,0,5,63,98,1485299156
109,14,19,Jits_Linear_5,1,1,48,32,1485313288
109,14,19,Jits_Linear_5,2,5,56,103,1485339240
109,14,19,Jits_Linear_5,3,5,80,127,1485349436
109,14,19,Jits_Linear_5,0,5,63,98,1486058848
109,14,19,Jits_Linear_5,1,5,56,103,1486079384
109,14,19,Jits_Linear_5,2,1,48,36,1486092164
109,14,19,Jits_Linear_5,3,5,80,127,1486098788
109,14,19,Jits_Linear_5,0,5,80,127,1486789164
109,14,19,Jits_Linear_5,1,5,56,103,1486799284
109,14,19,Jits_Linear_5,2,5,63,98,1486818624
109,14,19,Jits_Linear_5,3,1,48,36,1486848864
109,14,19,Jits_Linear_5,0,1,48,31,1487554816
109,14,19,Jits_Linear_5,1,5,63,98,1487588644
109,14,19,Jits_Linear_5,2,5,56,103,1487628656
109,14,19,Jits_Linear_5,3,5,80,127,1487659512
109,14,19,Jits_Linear_5,0,1,48,30,1488310212
109,14,19,Jits_Linear_5,1,5,56,103,1488369084
109,14,19,Jits_Linear_5,2,5,63,98,1488398760
109,14,19,Jits_Linear_5,3,5,80,127,1488429468
109,14,19,Jits_Linear_5,0,1,48,29,1489110616
109,14,19,Jits_Linear_5,1,5,80,127,1489118508
109,14,19,Jits_Linear_5,2,5,56,103,1489189312
109,14,19,Jits_Linear_5,3,5,63,98,1489192304
109,14,19,Jits_Linear_5,0,5,56,103,1489909356
109,14,19,Jits_Linear_5,1,1,48,32,1489932708
109,14,19,Jits_Linear_5,2,5,63,98,1489959184
109,14,19,Jits_Linear_5,3,5,80,127,1489988936
109,14,19,Jits_Linear_5,0,5,63,98,1490668840
109,14,19,Jits_Linear_5,1,5,80,127,1490672204
109,14,19,Jits_Linear_5,2,1,48,37,1490683944
109,14,19,Jits_Linear_5,3,5,56,103,1490729376
109,14,19,Jits_Linear_5,0,1,48,25,1491458384
109,14,19,Jits_Linear_5,1,5,56,103,1491479156
109,14,19,Jits_Linear_5,2,5,80,127,1491489056
109,14,19,Jits_Linear_5,3,5,63,98,1491539256
109,14,19,Jits_Linear_5,0,1,48,35,1492232224
109,14,19,Jits_Linear_5,1,5,63,98,1492238696
109,14,19,Jits_Linear_5,2,5,56,103,1492249044
109,14,19,Jits_Linear_5,3,5,80,127,1492278644
109,14,19,Jits_Linear_5,0,1,48,35,1492969732
109,14,19,Jits_Linear_5,1,5,63,98,1493058988
109,14,19,Jits_Linear_5,2,5,80,127,1493062428
109,14,19,Jits_Linear_5,3,5,56,103,1493088648
109,14,19,Jits_Linear_5,0,1,48,23,1493754868
109,14,19,Jits_Linear_5,1,5,63,98,1493868852
109,14,19,Jits_Linear_5,2,5,56,103,1493889460
109,14,19,Jits_Linear_5,3,5,80,127,1493892600
109,14,19,Jits_Linear_5,0,1,48,34,1494564228
109,14,19,Jits_Linear_5,1,5,63,98,1494618508
109,14,19,Jits_Linear_5,2,5,56,103,1494689224
109,14,19,Jits_Linear_5,3,5,80,127,1494708564
109,14,19,Jits_Linear_5,0,5,56,103,1495398732
109,14,19,Jits_Linear_5,1,1,48,35,1495408320
109,14,19,Jits_Linear_5,2,5,63,98,1495410040
109,14,19,Jits_Linear_5,3,5,80,127,1495499152
109,14,19,Jits_Linear_5,0,5,56,103,1496208704
109,14,19,Jits_Linear_5,1,1,48,33,1496212868
109,14,19,Jits_Linear_5,2,5,80,127,1496248636
109,14,19,Jits_Linear_5,3,5,63,98,1496259008
109,14,19,Jits_Linear_5,0,1,48,33,1497003204
109,14,19,Jits_Linear_5,1,5,56,103,1497029032
109,14,19,Jits_Linear_5,2,5,63,98,1497058636
109,14,19,Jits_Linear_5,3,5,80,127,1497089356
109,14,19,Jits_Linear_5,0,5,80,127,1497789072
109,14,19,Jits_Linear_5,1,5,63,98,1497828816
109,14,19,Jits_Linear_5,2,1,48,30,1497832084
109,14,19,Jits_Linear_5,3,5,56,103,1497849268
109,14,19,Jits_Linear_5,0,5,56,103,1498628368
109,14,19,Jits_Linear_5,1,1,48,24,1498631112
109,14,19,Jits_Linear_5,2,5,80,127,1498649044
109,14,19,Jits_Linear_5,3,5,63,98,1498669284
109,14,19,Jits_Linear_5,0,5,63,98,1499398484
109,14,19,Jits_Linear_5,1,5,56,103,1499408828
109,14,19,Jits_Linear_5,2,1,48,36,1499425648
109,14,19,Jits_Linear_5,3,5,80,127,1499469140
109,14,19,Jits_Linear_5,0,1,48,33,1500208144
109,14,19,Jits_Linear_5,1,5,56,103,1500209704
109,14,19,Jits_Linear_5,2,5,63,98,1500279092
109,14,19,Jits_Linear_5,3,5,80,127,1500298580
109,14,19,Jits_Linear_5,0,5,56,103,1501018628
109,14,19,Jits_Linear_5,1,1,48,33,1501043996
109,14,19,Jits_Linear_5,2,5,63,98,1501049196
109,14,19,Jits_Linear_5,3,5,80,127,1501089208
109,14,19,Jits_Linear_5,0,5,63,98,1501819232
109,14,19,Jits_Linear_5,1,1,48,34,1501858468
109,14,19,Jits_Linear_5,2,5,56,103,1501869504
109,14,19,Jits_Linear_5,3,5,80,127,1501878580
109,14,19,Jits_Linear_5,0,1,48,32,1502633872
109,14,19,Jits_Linear_5,1,5,56,103,1502669144
109,14,19,Jits_Linear_5,2,5,63,98,1502719276
109,14,19,Jits_Linear_5,3,5,80,127,1502728424
109,14,19,Jits_Linear_5,0,5,56,103,1503448548
109,14,19,Jits_Linear_5,1,5,63,98,1503458892
109,14,19,Jits_Linear_5,2,1,48,38,1503511984
109,14,19,Jits_Linear_5,3,5,80,127,1503538532
109,14,19,Jits_Linear_5,0,9999,9999,9999,1394706556
109,14,19,Jits_Linear_5,1,9999,9999,9999,1395186792
109,14,19,Jits_Linear_5,2,9999,9999,9999,1395667048
109,14,19,Jits_Linear_5,3,9999,9999,9999,1396146232
109,14,19,Jits_Linear_5,4,9999,9999,9999,1396626528
109,14,19,Jits_Linear_5,5,9999,9999,9999,1397117004
109,14,19,Jits_Linear_5,6,9999,9999,9999,1397606500
109,14,19,Jits_Linear_5,7,9999,9999,9999,1398096988
109,14,19,Jits_Linear_5,8,9999,9999,9999,1398586428
109,14,19,Jits_Linear_5,9,9999,9999,9999,1399076988
109,14,19,Jits_Linear_5,10,9999,9999,9999,1399576688
109,14,19,Jits_Linear_5,11,9999,9999,9999,1400076392
109,14,19,Jits_Linear_5,12,9999,9999,9999,1400576080
109,14,19,Jits_Linear_5,13,9999,9999,9999,1401076812
109,14,19,Jits_Linear_5,14,9999,9999,9999,1401576576
109,14,19,Jits_Linear_5,15,9999,9999,9999,1402086468
109,14,19,Jits_Linear_5,16,9999,9999,9999,1402596416
109,14,19,Jits_Linear_5,17,9999,9999,9999,1403106416
109,14,19,Jits_Linear_5,18,9999,9999,9999,1403616372
109,14,19,Jits_Linear_5,19,9999,9999,9999,1404126324
109,14,19,Jits_Linear_5,20,9999,9999,9999,1404646464
109,14,19,Jits_Linear_5,21,9999,9999,9999,1405166680
109,14,19,Jits_Linear_5,22,9999,9999,9999,1405686904
109,14,19,Jits_Linear_5,23,9999,9999,9999,1406207048
109,14,19,Jits_Linear_5,24,9999,9999,9999,1406726216
109,14,19,Jits_Linear_5,25,9999,9999,9999,1407256688
109,14,19,Jits_Linear_5,26,9999,9999,9999,1407787096
109,14,19,Jits_Linear_5,27,9999,9999,9999,1408326768
109,14,19,Jits_Linear_5,28,9999,9999,9999,1408856132
109,14,19,Jits_Linear_5,29,9999,9999,9999,1409386608
109,14,19,Jits_Linear_5,30,9999,9999,9999,1409926228
109,14,19,Jits_Linear_5,31,9999,9999,9999,1410466892
109,14,19,Jits_Linear_5,32,9999,9999,9999,1411006584
109,14,19,Jits_Linear_5,33,9999,9999,9999,1411546224
109,14,19,Jits_Linear_5,34,9999,9999,9999,1412086888
109,14,19,Jits_Linear_5,35,9999,9999,9999,1412636776
109,14,19,Jits_Linear_5,36,9999,9999,9999,1413186652
109,14,19,Jits_Linear_5,37,9999,9999,9999,1413736536
109,14,19,Jits_Linear_5,38,9999,9999,9999,1414286420
109,14,19,Jits_Linear_5,39,9999,9999,9999,1414836308
109,14,19,Jits_Linear_5,40,9999,9999,9999,1415396408
109,14,19,Jits_Linear_5,41,9999,9999,9999,1415956568
109,14,19,Jits_Linear_5,42,9999,9999,9999,1416516728
109,14,19,Jits_Linear_5,43,9999,9999,9999,1417076796
109,14,19,Jits_Linear_5,44,9999,9999,9999,1417636940
109,14,19,Jits_Linear_5,45,9999,9999,9999,1418206324
109,14,19,Jits_Linear_5,46,9999,9999,9999,1418776660
109,14,19,Jits_Linear_5,47,9999,9999,9999,1419347000
109,14,19,Jits_Linear_5,48,9999,9999,9999,1419916368
109,14,19,Jits_Linear_5,49,9999,9999,9999,1420486736
109,14,19,Jits_Linear_5,50,9999,9999,9999,1421066356
109,14,19,Jits_Linear_5,51,9999,9999,9999,1421646968
109,14,19,Jits_Linear_5,52,9999,9999,9999,1422226524
109,14,19,Jits_Linear_5,53,9999,9999,9999,1422806108
109,14,19,Jits_Linear_5,54,9999,9999,9999,1423386708
109,14,19,Jits_Linear_5,55,9999,9999,9999,1423976544
109,14,19,Jits_Linear_5,56,9999,9999,9999,1424566364
109,14,19,Jits_Linear_5,57,9999,9999,9999,1425156212
109,14,19,Jits_Linear_5,58,9999,9999,9999,1425747004
109,14,19,Jits_Linear_5,59,9999,9999,9999,1426336880
109,14,19,Jits_Linear_5,60,9999,9999,9999,1426936932
109,14,19,Jits_Linear_5,61,9999,9999,9999,1427537008
109,14,19,Jits_Linear_5,62,9999,9999,9999,1428137016
109,14,19,Jits_Linear_5,63,9999,9999,9999,1428736068
109,14,19,Jits_Linear_5,64,9999,9999,9999,1429336148
109,14,19,Jits_Linear_5,65,9999,9999,9999,1429946432
109,14,19,Jits_Linear_5,66,9999,9999,9999,1430556796
109,14,19,Jits_Linear_5,67,9999,9999,9999,1431167052
109,14,19,Jits_Linear_5,68,9999,9999,9999,1431776324
109,14,19,Jits_Linear_5,69,9999,9999,9999,1432386668
109,14,19,Jits_Linear_5,70,9999,9999,9999,1433006144
109,14,19,Jits_Linear_5,71,9999,9999,9999,1433626716
109,14,19,Jits_Linear_5,72,9999,9999,9999,1434246216
109,14,19,Jits_Linear_5,73,9999,9999,9999,1434866772
109,14,19,Jits_Linear_5,74,9999,9999,9999,1435486336
109,14,19,Jits_Linear_5,75,9999,9999,9999,1436117080
109,14,19,Jits_Linear_5,76,9999,9999,9999,1436746836
109,14,19,Jits_Linear_5,77,9999,9999,9999,1437376596
109,14,19,Jits_Linear_5,78,9999,9999,9999,1438006380
109,14,19,Jits_Linear_5,79,9999,9999,9999,1438636132
109,14,19,Jits_Linear_5,80,9999,9999,9999,1439276096
109,14,19,Jits_Linear_5,81,9999,9999,9999,1439916108
109,14,19,Jits_Linear_5,82,9999,9999,9999,1440556148
109,14,19,Jits_Linear_5,83,9999,9999,9999,1441196156
109,14,19,Jits_Linear_5,84,9999,9999,9999,1441836140
109,14,19,Jits_Linear_5,85,9999,9999,9999,1442486340
109,14,19,Jits_Linear_5,86,9999,9999,9999,1443136632
109,14,19,Jits_Linear_5,87,9999,9999,9999,1443786872
109,14,19,Jits_Linear_5,88,9999,9999,9999,1444437072
109,14,19,Jits_Linear_5,89,9999,9999,9999,1445086328
109,14,19,Jits_Linear_5,90,9999,9999,9999,1445746796
109,14,19,Jits_Linear_5,91,9999,9999,9999,1446406232
109,14,19,Jits_Linear_5,92,9999,9999,9999,1447066684
109,14,19,Jits_Linear_5,93,9999,9999,9999,1447726204
109,14,19,Jits_Linear_5,94,9999,9999,9999,1448386616
109,14,19,Jits_Linear_5,95,9999,9999,9999,1449056376
109,14,19,Jits_Linear_5,96,9999,9999,9999,1449727056
109,14,19,Jits_Linear_5,97,9999,9999,9999,1450396736
109,14,19,Jits_Linear_5,98,9999,9999,9999,1451066440
109,14,19,Jits_Linear_5,99,9999,9999,9999,1451736160
109,14,19,Jits_Linear_5,100,9999,9999,9999,1452416108
109,14,19,Jits_Linear_5,101,9999,9999,9999,1453097068
109,14,19,Jits_Linear_5,102,9999,9999,9999,1453776972
109,14,19,Jits_Linear_5,103,9999,9999,9999,1454456936
109,14,19,Jits_Linear_5,104,9999,9999,9999,1455136836
109,14,19,Jits_Linear_5,105,9999,9999,9999,1455827064
109,14,19,Jits_Linear_5,106,9999,9999,9999,1456516156
109,14,19,Jits_Linear_5,107,9999,9999,9999,1457206388
109,14,19,Jits_Linear_5,108,9999,9999,9999,1457896560
109,14,19,Jits_Linear_5,109,9999,9999,9999,1458586696
109,14,19,Jits_Linear_5,110,9999,9999,9999,1459286076
109,14,19,Jits_Linear_5,111,9999,9999,9999,1459986500
109,14,19,Jits_Linear_5,112,9999,9999,9999,1460686920
109,14,19,Jits_Linear_5,113,9999,9999,9999,1461386352
109,14,19,Jits_Linear_5,114,9999,9999,9999,1462086772
109,14,19,Jits_Linear_5,115,9999,9999,9999,1462796404
109,14,19,Jits_Linear_5,116,9999,9999,9999,1463507016
109,14,19,Jits_Linear_5,117,9999,9999,9999,1464216648
109,14,19,Jits_Linear_5,118,9999,9999,9999,1464926304
109,14,19,Jits_Linear_5,119,9999,9999,9999,1465636984
109,14,19,Jits_Linear_5,120,9999,9999,9999,1466356812
109,14,19,Jits_Linear_5,121,9999,9999,9999,1467076720
109,14,19,Jits_Linear_5,122,9999,9999,9999,1467796540
109,14,19,Jits_Linear_5,123,9999,9999,9999,1468516460
109,14,19,Jits_Linear_5,124,9999,9999,9999,1469236284
109,14,19,Jits_Linear_5,125,9999,9999,9999,1469966436
109,14,19,Jits_Linear_5,126,9999,9999,9999,1470696532
109,14,19,Jits_Linear_5,127,9999,9999,9999,1471426620
109,14,19,Jits_Linear_5,128,9999,9999,9999,1472156752
109,14,19,Jits_Linear_5,129,9999,9999,9999,1472886860
109,14,19,Jits_Linear_5,130,9999,9999,9999,1473626180
109,14,19,Jits_Linear_5,131,9999,9999,9999,1474366540
109,14,19,Jits_Linear_5,132,9999,9999,9999,1475106888
109,14,19,Jits_Linear_5,133,9999,9999,9999,1475846200
109,14,19,Jits_Linear_5,134,9999,9999,9999,1476586624
109,14,19,Jits_Linear_5,135,9999,9999,9999,1477336120
109,14,19,Jits_Linear_5,136,9999,9999,9999,1478086756
109,14,19,Jits_Linear_5,137,9999,9999,9999,1478836300
109,14,19,Jits_Linear_5,138,9999,9999,9999,1479586916
109,14,19,Jits_Linear_5,139,9999,9999,9999,1480336504
109,14,19,Jits_Linear_5,140,9999,9999,9999,1481096264
109,14,19,Jits_Linear_5,141,9999,9999,9999,1481856120
109,14,19,Jits_Linear_5,142,9999,9999,9999,1482616948
109,14,19,Jits_Linear_5,143,9999,9999,9999,1483376724
109,14,19,Jits_Linear_5,144,9999,9999,9999,1484136568
109,14,19,Jits_Linear_5,145,9999,9999,9999,1484906596
109,14,19,Jits_Linear_5,146,9999,9999,9999,1485676644
109,14,19,Jits_Linear_5,147,9999,9999,9999,1486446672
109,14,19,Jits_Linear_5,148,9999,9999,9999,1487216768
109,14,19,Jits_Linear_5,149,9999,9999,9999,1487986812
109,14,19,Jits_Linear_5,150,9999,9999,9999,1488767100
109,14,19,Jits_Linear_5,151,9999,9999,9999,1489546336
109,14,19,Jits_Linear_5,152,9999,9999,9999,1490326628
109,14,19,Jits_Linear_5,153,9999,9999,9999,1491106924
109,14,19,Jits_Linear_5,154,9999,9999,9999,1491886168
109,14,19,Jits_Linear_5,155,9999,9999,9999,1492676668
109,14,19,Jits_Linear_5,156,9999,9999,9999,1493466240
109,14,19,Jits_Linear_5,157,9999,9999,9999,1494256712
109,14,19,Jits_Linear_5,158,9999,9999,9999,1495046224
109,14,19,Jits_Linear_5,159,9999,9999,9999,1495836772
109,14,19,Jits_Linear_5,160,9999,9999,9999,1496636480
109,14,19,Jits_Linear_5,161,9999,9999,9999,1497436264
109,14,19,Jits_Linear_5,162,9999,9999,9999,1498237008
109,14,19,Jits_Linear_5,163,9999,9999,9999,1499036792
109,14,19,Jits_Linear_5,164,9999,9999,9999,1499836500
109,14,19,Jits_Linear_5,165,9999,9999,9999,1500646484
109,14,19,Jits_Linear_5,166,9999,9999,9999,1501456444
109,14,19,Jits_Linear_5,167,9999,9999,9999,1502266492
109,14,19,Jits_Linear_5,168,9999,9999,9999,1503076456
109,14,19,Jits_Linear_5,169,9999,9999,9999,1503886416
109,15,18,Jits_Linear_8,0,5,56,103,1512650032
109,15,18,Jits_Linear_8,1,5,63,98,1512653208
109,15,18,Jits_Linear_8,2,5,80,127,1512656256
109,15,18,Jits_Linear_8,0,5,56,103,1513470272
109,15,18,Jits_Linear_8,1,5,63,98,1513473368
109,15,18,Jits_Linear_8,2,5,80,127,1513476568
109,15,18,Jits_Linear_8,0,5,80,127,1514230212
109,15,18,Jits_Linear_8,1,5,63,98,1514320124
109,15,18,Jits_Linear_8,2,5,56,103,1514329572
109,15,18,Jits_Linear_8,0,5,56,103,1515069872
109,15,18,Jits_Linear_8,1,5,63,98,1515080144
109,15,18,Jits_Linear_8,2,5,80,127,1515170128
109,15,18,Jits_Linear_8,0,5,63,98,1515860236
109,15,18,Jits_Linear_8,1,5,80,127,1515889912
109,15,18,Jits_Linear_8,2,5,56,103,1515920032
109,15,18,Jits_Linear_8,3,1,48,26,1515983260
109,15,18,Jits_Linear_8,0,1,48,29,1516664216
109,15,18,Jits_Linear_8,1,5,56,103,1516679680
109,15,18,Jits_Linear_8,2,5,80,127,1516779868
109,15,18,Jits_Linear_8,3,5,63,98,1516829992
109,15,18,Jits_Linear_8,0,5,56,103,1517489708
109,15,18,Jits_Linear_8,1,5,80,127,1517539864
109,15,18,Jits_Linear_8,2,1,48,31,1517543508
109,15,18,Jits_Linear_8,3,5,63,98,1517579720
109,15,18,Jits_Linear_8,0,5,80,127,1518330184
109,15,18,Jits_Linear_8,1,1,48,31,1518333748
109,15,18,Jits_Linear_8,2,5,63,98,1518359928
109,15,18,Jits_Linear_8,3,5,56,103,1518429740
109,15,18,Jits_Linear_8,0,5,63,98,1519169888
109,15,18,Jits_Linear_8,1,5,56,103,1519199712
109,15,18,Jits_Linear_8,2,1,48,34,1519203280
109,15,18,Jits_Linear_8,3,5,80,127,1519259948
109,15,18,Jits_Linear_8,0,5,56,103,1519919668
109,15,18,Jits_Linear_8,1,5,80,127,1519922660
109,15,18,Jits_Linear_8,2,1,48,28,1520009624
109,15,18,Jits_Linear_8,3,5,63,98,1520040212
109,15,18,Jits_Linear_8,0,1,48,32,1520784800
109,15,18,Jits_Linear_8,1,5,56,103,1520799968
109,15,18,Jits_Linear_8,2,5,80,127,1520839932
109,15,18,Jits_Linear_8,3,5,63,98,1520850204
109,15,18,Jits_Linear_8,0,5,56,103,1521559948
109,15,18,Jits_Linear_8,1,5,80,127,1521580260
109,15,18,Jits_Linear_8,2,1,48,29,1521610744
109,15,18,Jits_Linear_8,3,5,63,98,1521660220
109,15,18,Jits_Linear_8,0,5,80,127,1522349380
109,15,18,Jits_Linear_8,1,5,56,103,1522449656
109,15,18,Jits_Linear_8,2,1,48,29,1522453748
109,15,18,Jits_Linear_8,3,5,63,98,1522460144
109,15,18,Jits_Linear_8,0,5,63,98,1523119632
109,15,18,Jits_Linear_8,1,5,80,127,1523179828
109,15,18,Jits_Linear_8,2,5,56,103,1523190096
109,15,18,Jits_Linear_8,3,1,48,29,1523197184
109,15,18,Jits_Linear_8,0,1,48,28,1523883904
109,15,18,Jits_Linear_8,1,5,56,103,1523920376
109,15,18,Jits_Linear_8,2,5,63,98,1523989820
109,15,18,Jits_Linear_8,3,5,80,127,1523993112
109,15,18,Jits_Linear_8,0,1,48,26,1524710204
109,15,18,Jits_Linear_8,1,5,63,98,1524749788
109,15,18,Jits_Linear_8,2,5,56,103,1524799992
109,15,18,Jits_Linear_8,3,5,80,127,1524802908
109,15,18,Jits_Linear_8,0,5,56,103,1525500380
109,15,18,Jits_Linear_8,1,5,80,127,1525503224
109,15,18,Jits_Linear_8,2,1,48,27,1525571452
109,15,18,Jits_Linear_8,3,5,63,98,1525590508
109,15,18,Jits_Linear_8,0,1,48,31,1526309180
109,15,18,Jits_Linear_8,1,5,63,98,1526329580
109,15,18,Jits_Linear_8,2,5,56,103,1526419776
109,15,18,Jits_Linear_8,3,5,80,127,1526449528
109,15,18,Jits_Linear_8,0,5,56,103,1527110092
109,15,18,Jits_Linear_8,1,1,48,31,1527153744
109,15,18,Jits_Linear_8,2,5,63,98,1527210632
109,15,18,Jits_Linear_8,3,5,80,127,1527240108
109,15,18,Jits_Linear_8,0,5,63,98,1527919980
109,15,18,Jits_Linear_8,1,5,56,103,1527930328
109,15,18,Jits_Linear_8,2,1,48,26,1527991812
109,15,18,Jits_Linear_8,3,5,80,127,1528020552
109,15,18,Jits_Linear_8,0,5,63,98,1528719668
109,15,18,Jits_Linear_8,1,1,48,31,1528754024
109,15,18,Jits_Linear_8,2,5,56,103,1528799704
109,15,18,Jits_Linear_8,3,5,80,127,1528802696
109,15,18,Jits_Linear_8,0,5,80,127,1529460008
109,15,18,Jits_Linear_8,1,5,63,98,1529479568
109,15,18,Jits_Linear_8,2,1,48,20,1529535072
109,15,18,Jits_Linear_8,3,5,56,103,1529540048
109,15,18,Jits_Linear_8,0,1,48,27,1530267672
109,15,18,Jits_Linear_8,1,5,56,103,1530280516
109,15,18,Jits_Linear_8,2,5,63,98,1530299704
109,15,18,Jits_Linear_8,3,5,80,127,1530303092
109,15,18,Jits_Linear_8,0,5,63,98,1531000252
109,15,18,Jits_Linear_8,1,1,48,32,1531038368
109,15,18,Jits_Linear_8,2,5,80,127,1531080068
109,15,18,Jits_Linear_8,3,5,56,103,1531090636
109,15,18,Jits_Linear_8,0,5,63,98,1531799856
109,15,18,Jits_Linear_8,1,5,56,103,1531820392
109,15,18,Jits_Linear_8,2,1,48,30,1531822836
109,15,18,Jits_Linear_8,3,5,80,127,1531869636
109,15,18,Jits_Linear_8,0,5,80,127,1532580428
109,15,18,Jits_Linear_8,1,1,48,29,1532592840
109,15,18,Jits_Linear_8,2,5,63,98,1532620236
109,15,18,Jits_Linear_8,3,5,56,103,1532639576
109,15,18,Jits_Linear_8,0,1,48,30,1533365852
109,15,18,Jits_Linear_8,1,5,56,103,1533390184
109,15,18,Jits_Linear_8,2,5,63,98,1533400680
109,15,18,Jits_Linear_8,3,5,80,127,1533419792
109,15,18,Jits_Linear_8,0,5,56,103,1534089452
109,15,18,Jits_Linear_8,1,1,48,25,1534130560
109,15,18,Jits_Linear_8,2,5,63,98,1534179680
109,15,18,Jits_Linear_8,3,5,80,127,1534240056
109,15,18,Jits_Linear_8,0,5,80,127,1534890492
109,15,18,Jits_Linear_8,1,5,56,103,1534899420
109,15,18,Jits_Linear_8,2,1,48,32,1534904108
109,15,18,Jits_Linear_8,3,5,63,98,1534970388
109,15,18,Jits_Linear_8,0,1,48,35,1535681940
109,15,18,Jits_Linear_8,1,5,63,98,1535689984
109,15,18,Jits_Linear_8,2,5,80,127,1535780404
109,15,18,Jits_Linear_8,3,5,56,103,1535789404
109,15,18,Jits_Linear_8,0,5,63,98,1536399600
109,15,18,Jits_Linear_8,1,5,80,127,1536449976
109,15,18,Jits_Linear_8,2,1,48,36,1536463732
109,15,18,Jits_Linear_8,3,5,56,103,1536510360
109,15,18,Jits_Linear_8,0,5,56,103,1537190356
109,15,18,Jits_Linear_8,1,5,80,127,1537240436
109,15,18,Jits_Linear_8,2,1,48,30,1537250528
109,15,18,Jits_Linear_8,3,5,63,98,1537259840
109,15,18,Jits_Linear_8,0,5,56,103,1537920520
109,15,18,Jits_Linear_8,1,1,48,26,1537974436
109,15,18,Jits_Linear_8,2,5,80,127,1537979860
109,15,18,Jits_Linear_8,3,5,63,98,1538050292
109,15,18,Jits_Linear_8,0,5,56,103,1538680104
109,15,18,Jits_Linear_8,1,5,80,127,1538709780
109,15,18,Jits_Linear_8,2,5,63,98,1538739456
109,15,18,Jits_Linear_8,3,1,48,14,1538758336
109,15,18,Jits_Linear_8,0,5,56,103,1539479796
109,15,18,Jits_Linear_8,1,1,48,18,1539480760
109,15,18,Jits_Linear_8,2,5,80,127,1539500472
109,15,18,Jits_Linear_8,3,5,63,98,1539559688
109,15,18,Jits_Linear_8,0,1,48,33,1540246560
109,15,18,Jits_Linear_8,1,5,80,127,1540319520
109,15,18,Jits_Linear_8,2,5,56,103,1540329716
109,15,18,Jits_Linear_8,3,5,63,98,1540340064
109,15,18,Jits_Linear_8,0,5,56,103,1541030480
109,15,18,Jits_Linear_8,1,1,48,35,1541047228
109,15,18,Jits_Linear_8,2,5,80,127,1541070288
109,15,18,Jits_Linear_8,3,5,63,98,1541099888
109,15,18,Jits_Linear_8,0,5,56,103,1541750312
109,15,18,Jits_Linear_8,1,5,63,98,1541779916
109,15,18,Jits_Linear_8,2,5,80,127,1541819704
109,15,18,Jits_Linear_8,3,1,48,31,1541822676
109,15,18,Jits_Linear_8,0,5,80,127,1542449516
109,15,18,Jits_Linear_8,1,5,63,98,1542499644
109,15,18,Jits_Linear_8,2,5,56,103,1542520252
109,15,18,Jits_Linear_8,3,1,48,21,1542555504
109,15,18,Jits_Linear_8,0,1,48,33,1543199128
109,15,18,Jits_Linear_8,1,5,56,103,1543229720
109,15,18,Jits_Linear_8,2,5,80,127,1543299392
109,15,18,Jits_Linear_8,3,5,63,98,1543359732
109,15,18,Jits_Linear_8,0,5,80,127,1543970448
109,15,18,Jits_Linear_8,1,1,48,32,1544043316
109,15,18,Jits_Linear_8,2,5,63,98,1544060356
109,15,18,Jits_Linear_8,3,5,56,103,1544079692
109,15,18,Jits_Linear_8,0,5,63,98,1544729844
109,15,18,Jits_Linear_8,1,5,56,103,1544749404
109,15,18,Jits_Linear_8,2,5,80,127,1544790464
109,15,18,Jits_Linear_8,3,1,48,30,1544849100
109,15,18,Jits_Linear_8,0,5,80,127,1545430476
109,15,18,Jits_Linear_8,1,5,63,98,1545449888
109,15,18,Jits_Linear_8,2,5,56,103,1545529608
109,15,18,Jits_Linear_8,0,5,63,98,1546159448
109,15,18,Jits_Linear_8,1,5,56,103,1546270208
109,15,18,Jits_Linear_8,2,5,80,127,1546273128
109,15,18,Jits_Linear_8,3,1,48,32,1546371248
109,15,18,Jits_Linear_8,0,5,63,98,1546920384
109,15,18,Jits_Linear_8,1,5,56,103,1546929460
109,15,18,Jits_Linear_8,2,5,80,127,1546932452
109,15,18,Jits_Linear_8,0,5,56,103,1547640364
109,15,18,Jits_Linear_8,1,5,80,127,1547759972
109,15,18,Jits_Linear_8,2,5,63,98,1547799912
109,15,18,Jits_Linear_8,0,5,56,103,1548389828
109,15,18,Jits_Linear_8,1,5,80,127,1548469624
109,15,18,Jits_Linear_8,2,5,63,98,1548490332
109,15,18,Jits_Linear_8,0,1,48,26,1549093692
109,15,18,Jits_Linear_8,1,5,56,103,1549119800
109,15,18,Jits_Linear_8,2,5,63,98,1549229476
109,15,18,Jits_Linear_8,3,5,80,127,1549232912
109,15,18,Jits_Linear_8,0,1,48,32,1549874196
109,15,18,Jits_Linear_8,1,5,56,103,1549879544
109,15,18,Jits_Linear_8,2,5,80,127,1549910416
109,15,18,Jits_Linear_8,3,5,63,98,1549929980
109,15,18,Jits_Linear_8,0,5,63,98,1550590300
109,15,18,Jits_Linear_8,1,5,56,103,1550599524
109,15,18,Jits_Linear_8,2,1,48,35,1550604736
109,15,18,Jits_Linear_8,3,5,80,127,1550609788
109,15,18,Jits_Linear_8,0,5,80,127,1551299924
109,15,18,Jits_Linear_8,1,1,48,31,1551319004
109,15,18,Jits_Linear_8,2,5,56,103,1551350120
109,15,18,Jits_Linear_8,3,5,63,98,1551390060
109,15,18,Jits_Linear_8,0,5,80,127,1552040256
109,15,18,Jits_Linear_8,1,1,48,30,1552044944
109,15,18,Jits_Linear_8,2,5,63,98,1552059764
109,15,18,Jits_Linear_8,3,5,56,103,1552110188
109,15,18,Jits_Linear_8,0,1,48,36,1552768984
109,15,18,Jits_Linear_8,1,5,80,127,1552770344
109,15,18,Jits_Linear_8,2,5,56,103,1552800392
109,15,18,Jits_Linear_8,3,5,63,98,1552869708
109,15,18,Jits_Linear_8,0,1,48,33,1553498680
109,15,18,Jits_Linear_8,1,5,56,103,1553539388
109,15,18,Jits_Linear_8,2,5,80,127,1553549880
109,15,18,Jits_Linear_8,3,5,63,98,1553589596
109,15,18,Jits_Linear_8,0,5,56,103,1554179496
109,15,18,Jits_Linear_8,1,5,63,98,1554199884
109,15,18,Jits_Linear_8,2,1,48,32,1554262560
109,15,18,Jits_Linear_8,3,5,80,127,1554269480
109,15,18,Jits_Linear_8,0,5,63,98,1554919852
109,15,18,Jits_Linear_8,1,1,48,31,1554937496
109,15,18,Jits_Linear_8,2,5,80,127,1554980164
109,15,18,Jits_Linear_8,3,5,56,103,1554999724
109,15,18,Jits_Linear_8,0,5,80,127,1555620240
109,15,18,Jits_Linear_8,1,5,56,103,1555649864
109,15,18,Jits_Linear_8,2,1,48,35,1555671940
109,15,18,Jits_Linear_8,3,5,63,98,1555679460
109,15,18,Jits_Linear_8,0,5,56,103,1556329800
109,15,18,Jits_Linear_8,1,1,48,31,1556338620
109,15,18,Jits_Linear_8,2,5,63,98,1556390260
109,15,18,Jits_Linear_8,3,5,80,127,1556449764
109,15,18,Jits_Linear_8,0,5,80,127,1557060124
109,15,18,Jits_Linear_8,1,5,56,103,1557080288
109,15,18,Jits_Linear_8,2,1,48,30,1557086020
109,15,18,Jits_Linear_8,3,5,63,98,1557150108
109,15,18,Jits_Linear_8,0,5,80,127,1557769688
109,15,18,Jits_Linear_8,1,5,63,98,1557790000
109,15,18,Jits_Linear_8,2,1,48,24,1557793944
109,15,18,Jits_Linear_8,3,5,56,103,1557819672
109,15,18,Jits_Linear_8,0,5,80,127,1558459700
109,15,18,Jits_Linear_8,1,5,63,98,1558480232
109,15,18,Jits_Linear_8,2,1,48,29,1558488160
109,15,18,Jits_Linear_8,3,5,56,103,1558539572
109,15,18,Jits_Linear_8,0,5,80,127,1559160096
109,15,18,Jits_Linear_8,1,1,48,24,1559241608
109,15,18,Jits_Linear_8,2,5,56,103,1559259392
109,15,18,Jits_Linear_8,3,5,63,98,1559290264
109,15,18,Jits_Linear_8,0,5,63,98,1559850336
109,15,18,Jits_Linear_8,1,5,80,127,1559899492
109,15,18,Jits_Linear_8,2,5,56,103,1559919952
109,15,18,Jits_Linear_8,3,1,48,27,1559957224
109,15,18,Jits_Linear_8,0,5,80,127,1560589780
109,15,18,Jits_Linear_8,1,5,56,103,1560620504
109,15,18,Jits_Linear_8,2,5,63,98,1560623496
109,15,18,Jits_Linear_8,3,1,48,21,1560635304
109,15,18,Jits_Linear_8,0,1,48,24,1561316528
109,15,18,Jits_Linear_8,1,5,63,98,1561320008
109,15,18,Jits_Linear_8,2,5,56,103,1561359724
109,15,18,Jits_Linear_8,3,5,80,127,1561380184
109,15,18,Jits_Linear_8,0,5,80,127,1561959720
109,15,18,Jits_Linear_8,1,1,48,30,1562037624
109,15,18,Jits_Linear_8,2,5,63,98,1562039588
109,15,18,Jits_Linear_8,3,5,56,103,1562079552
109,15,18,Jits_Linear_8,0,5,63,98,1562669440
109,15,18,Jits_Linear_8,1,1,48,30,1562721936
109,15,18,Jits_Linear_8,2,5,80,127,1562750428
109,15,18,Jits_Linear_8,3,5,56,103,1562769988
109,15,18,Jits_Linear_8,0,1,48,31,1563385104
109,15,18,Jits_Linear_8,1,5,56,103,1563399596
109,15,18,Jits_Linear_8,2,5,63,98,1563409868
109,15,18,Jits_Linear_8,3,5,80,127,1563449584
109,15,18,Jits_Linear_8,0,5,56,103,1564010008
109,15,18,Jits_Linear_8,1,5,80,127,1564013000
109,15,18,Jits_Linear_8,2,1,48,30,1564125900
109,15,18,Jits_Linear_8,3,5,63,98,1564149984
109,15,18,Jits_Linear_8,0,5,56,103,1564690044
109,15,18,Jits_Linear_8,1,1,48,22,1564770184
109,15,18,Jits_Linear_8,2,5,63,98,1564779952
109,15,18,Jits_Linear_8,3,5,80,127,1564849408
109,15,18,Jits_Linear_8,0,1,48,18,1565398160
109,15,18,Jits_Linear_8,1,5,63,98,1565449724
109,15,18,Jits_Linear_8,2,5,80,127,1565453164
109,15,18,Jits_Linear_8,3,5,56,103,1565510100
109,15,18,Jits_Linear_8,0,1,48,22,1566085940
109,15,18,Jits_Linear_8,1,5,80,127,1566169320
109,15,18,Jits_Linear_8,2,5,56,103,1566190060
109,15,18,Jits_Linear_8,3,5,63,98,1566200256
109,15,18,Jits_Linear_8,0,5,56,103,1566760256
109,15,18,Jits_Linear_8,1,5,63,98,1566769404
109,15,18,Jits_Linear_8,2,1,48,29,1566822116
109,15,18,Jits_Linear_8,3,5,80,127,1566840124
109,15,18,Jits_Linear_8,0,5,80,127,1567440376
109,15,18,Jits_Linear_8,1,1,48,28,1567485892
109,15,18,Jits_Linear_8,2,5,56,103,1567490352
109,15,18,Jits_Linear_8,3,5,63,98,1567539728
109,15,18,Jits_Linear_8,0,1,48,29,1568149292
109,15,18,Jits_Linear_8,1,5,56,103,1568200136
109,15,18,Jits_Linear_8,2,5,63,98,1568210480
109,15,18,Jits_Linear_8,3,5,80,127,1568250180
109,15,18,Jits_Linear_8,0,5,56,103,1568819544
109,15,18,Jits_Linear_8,1,5,63,98,1568859412
109,15,18,Jits_Linear_8,2,1,48,30,1568860380
109,15,18,Jits_Linear_8,3,5,80,127,1568909756
109,15,18,Jits_Linear_8,0,5,80,127,1569450272
109,15,18,Jits_Linear_8,1,5,56,103,1569499456
109,15,18,Jits_Linear_8,2,5,63,98,1569520064
109,15,18,Jits_Linear_8,3,1,48,34,1569527072
109,15,18,Jits_Linear_8,0,5,80,127,1570130244
109,15,18,Jits_Linear_8,1,5,63,98,1570189888
109,15,18,Jits_Linear_8,2,1,48,31,1570202372
109,15,18,Jits_Linear_8,3,5,56,103,1570269996
109,15,18,Jits_Linear_8,0,5,80,127,1570779800
109,15,18,Jits_Linear_8,1,5,56,103,1570819292
109,15,18,Jits_Linear_8,2,5,63,98,1570840052
109,15,18,Jits_Linear_8,3,1,48,27,1570891796
109,15,18,Jits_Linear_8,0,5,56,103,1571509720
109,15,18,Jits_Linear_8,1,5,80,127,1571520240
109,15,18,Jits_Linear_8,2,1,48,27,1571541568
109,15,18,Jits_Linear_8,3,5,63,98,1571559876
109,15,18,Jits_Linear_8,0,1,48,19,1572204420
109,15,18,Jits_Linear_8,1,5,56,103,1572239816
109,15,18,Jits_Linear_8,2,5,63,98,1572280060
109,15,18,Jits_Linear_8,3,5,80,127,1572283192
109,15,18,Jits_Linear_8,0,5,63,98,1572789816
109,15,18,Jits_Linear_8,1,5,80,127,1572829928
109,15,18,Jits_Linear_8,2,5,56,103,1572900208
109,15,18,Jits_Linear_8,3,1,48,22,1572946328
109,15,18,Jits_Linear_8,0,5,63,98,1573439732
109,15,18,Jits_Linear_8,1,1,48,22,1573488188
109,15,18,Jits_Linear_8,2,5,56,103,1573519896
109,15,18,Jits_Linear_8,3,5,80,127,1573580088
109,15,18,Jits_Linear_8,0,5,80,127,1574109652
109,15,18,Jits_Linear_8,1,1,48,25,1574117648
109,15,18,Jits_Linear_8,2,5,63,98,1574159920
109,15,18,Jits_Linear_8,3,5,56,103,1574189300
109,15,18,Jits_Linear_8,0,5,56,103,1574760000
109,15,18,Jits_Linear_8,1,1,48,23,1574809528
109,15,18,Jits_Linear_8,2,5,63,98,1574811096
109,15,18,Jits_Linear_8,3,5,80,127,1574820316
109,15,18,Jits_Linear_8,0,5,56,103,1575429480
109,15,18,Jits_Linear_8,1,1,48,16,1575470512
109,15,18,Jits_Linear_8,2,5,63,98,1575540060
109,15,18,Jits_Linear_8,3,5,80,127,1575559400
109,15,18,Jits_Linear_8,0,5,63,98,1576089948
109,15,18,Jits_Linear_8,1,1,48,24,1576125752
109,15,18,Jits_Linear_8,2,5,80,127,1576140096
109,15,18,Jits_Linear_8,3,5,56,103,1576230212
109,15,18,Jits_Linear_8,0,1,48,28,1576722524
109,15,18,Jits_Linear_8,1,5,63,98,1576729964
109,15,18,Jits_Linear_8,2,5,80,127,1576759864
109,15,18,Jits_Linear_8,3,5,56,103,1576849908
109,15,18,Jits_Linear_8,0,5,63,98,1577380156
109,15,18,Jits_Linear_8,1,5,56,103,1577389380
109,15,18,Jits_Linear_8,2,1,48,21,1577425556
109,15,18,Jits_Linear_8,3,5,80,127,1577489720
109,15,18,Jits_Linear_8,0,1,48,21,1578082708
109,15,18,Jits_Linear_8,1,5,63,98,1578129788
109,15,18,Jits_Linear_8,2,5,80,127,1578159760
109,15,18,Jits_Linear_8,3,5,56,103,1578190048
109,15,18,Jits_Linear_8,0,1,48,18,1578780816
109,15,18,Jits_Linear_8,1,5,80,127,1578790276
109,15,18,Jits_Linear_8,2,5,63,98,1578799576
109,15,18,Jits_Linear_8,3,5,56,103,1578830072
109,15,18,Jits_Linear_8,0,5,80,127,1579329896
109,15,18,Jits_Linear_8,1,5,63,98,1579350284
109,15,18,Jits_Linear_8,2,5,56,103,1579399808
109,15,18,Jits_Linear_8,3,1,48,24,1579448032
109,15,18,Jits_Linear_8,0,5,63,98,1579999604
109,15,18,Jits_Linear_8,1,5,80,127,1580059996
109,15,18,Jits_Linear_8,2,5,56,103,1580079556
109,15,18,Jits_Linear_8,3,1,48,32,1580085740
109,15,18,Jits_Linear_8,0,5,63,98,1580599896
109,15,18,Jits_Linear_8,1,5,56,103,1580649800
109,15,18,Jits_Linear_8,2,5,80,127,1580660072
109,15,18,Jits_Linear_8,3,1,48,36,1580707012
109,15,18,Jits_Linear_8,0,5,56,103,1581270412
109,15,18,Jits_Linear_8,1,5,80,127,1581279860
109,15,18,Jits_Linear_8,2,1,48,30,1581316012
109,15,18,Jits_Linear_8,3,5,63,98,1581380024
109,15,18,Jits_Linear_8,0,5,80,127,1581869596
109,15,18,Jits_Linear_8,1,5,63,98,1581879644
109,15,18,Jits_Linear_8,2,5,56,103,1582030184
109,15,18,Jits_Linear_8,3,1,48,19,1582126640
109,15,18,Jits_Linear_8,0,5,63,98,1582509384
109,15,18,Jits_Linear_8,1,5,80,127,1582550472
109,15,18,Jits_Linear_8,2,5,56,103,1582630340
109,15,18,Jits_Linear_8,0,5,56,103,1583129888
109,15,18,Jits_Linear_8,1,5,80,127,1583230436
109,15,18,Jits_Linear_8,2,5,63,98,1583249848
109,15,18,Jits_Linear_8,0,5,80,127,1583820236
109,15,18,Jits_Linear_8,1,5,56,103,1583830580
109,15,18,Jits_Linear_8,2,5,63,98,1583919664
109,15,18,Jits_Linear_8,0,5,56,103,1584449880
109,15,18,Jits_Linear_8,1,5,63,98,1584470340
109,15,18,Jits_Linear_8,2,1,48,32,1584498716
109,15,18,Jits_Linear_8,3,5,80,127,1584550200
109,15,18,Jits_Linear_8,0,5,63,98,1585020292
109,15,18,Jits_Linear_8,1,5,56,103,1585110456
109,15,18,Jits_Linear_8,2,5,80,127,1585113592
109,15,18,Jits_Linear_8,3,1,48,30,1585140024
109,15,18,Jits_Linear_8,0,5,56,103,1585669676
109,15,18,Jits_Linear_8,1,5,80,127,1585729996
109,15,18,Jits_Linear_8,2,5,63,98,1585740264
109,15,18,Jits_Linear_8,3,1,48,29,1585758148
109,15,18,Jits_Linear_8,0,5,80,127,1586340188
109,15,18,Jits_Linear_8,1,5,56,103,1586349632
109,15,18,Jits_Linear_8,2,5,63,98,1586352772
109,15,18,Jits_Linear_8,3,1,48,32,1586373828
109,15,18,Jits_Linear_8,0,5,56,103,1586919756
109,15,18,Jits_Linear_8,1,5,80,127,1586929956
109,15,18,Jits_Linear_8,2,5,63,98,1586949592
109,15,18,Jits_Linear_8,3,1,48,30,1586982900
109,15,18,Jits_Linear_8,0,5,63,98,1587509580
109,15,18,Jits_Linear_8,1,1,48,31,1587567604
109,15,18,Jits_Linear_8,2,5,80,127,1587569964
109,15,18,Jits_Linear_8,3,5,56,103,1587620316
109,15,18,Jits_Linear_8,0,5,63,98,1588209996
109,15,18,Jits_Linear_8,1,5,56,103,1588220416
109,15,18,Jits_Linear_8,2,1,48,23,1588222132
109,15,18,Jits_Linear_8,3,5,80,127,1588269564
109,15,18,Jits_Linear_8,0,5,63,98,1588720016
109,15,18,Jits_Linear_8,1,5,80,127,1588739652
109,15,18,Jits_Linear_8,2,5,56,103,1588749624
109,15,18,Jits_Linear_8,3,1,48,33,1588842336
109,15,18,Jits_Linear_8,0,5,63,98,1589330636
109,15,18,Jits_Linear_8,1,5,80,127,1589333848
109,15,18,Jits_Linear_8,2,5,56,103,1589370200
109,15,18,Jits_Linear_8,3,1,48,23,1589491704
109,15,18,Jits_Linear_8,0,5,63,98,1590010132
109,15,18,Jits_Linear_8,1,5,80,127,1590039960
109,15,18,Jits_Linear_8,2,5,56,103,1590050080
109,15,18,Jits_Linear_8,0,5,56,103,1590570524
109,15,18,Jits_Linear_8,1,5,80,127,1590599980
109,15,18,Jits_Linear_8,2,5,63,98,1590629728
109,15,18,Jits_Linear_8,0,5,63,98,1591269792
109,15,18,Jits_Linear_8,1,5,56,103,1591309656
109,15,18,Jits_Linear_8,2,5,80,127,1591312720
109,15,18,Jits_Linear_8,0,5,80,127,1591769648
109,15,18,Jits_Linear_8,1,1,48,29,1591826708
109,15,18,Jits_Linear_8,2,5,56,103,1591850340
109,15,18,Jits_Linear_8,3,5,63,98,1591899492
109,15,18,Jits_Linear_8,0,5,80,127,1592350104
109,15,18,Jits_Linear_8,1,5,56,103,1592369668
109,15,18,Jits_Linear_8,2,1,48,19,1592457060
109,15,18,Jits_Linear_8,3,5,63,98,1592459572
109,15,18,Jits_Linear_8,0,1,48,29,1592990268
109,15,18,Jits_Linear_8,1,5,80,127,1592991680
109,15,18,Jits_Linear_8,2,5,63,98,1593029932
109,15,18,Jits_Linear_8,3,5,56,103,1593069944
109,15,18,Jits_Linear_8,0,5,63,98,1593560548
109,15,18,Jits_Linear_8,1,1,48,22,1593587480
109,15,18,Jits_Linear_8,2,5,80,127,1593619808
109,15,18,Jits_Linear_8,3,5,56,103,1593649560
109,15,18,Jits_Linear_8,0,5,56,103,1594159568
109,15,18,Jits_Linear_8,1,5,80,127,1594190216
109,15,18,Jits_Linear_8,2,5,63,98,1594280496
109,15,18,Jits_Linear_8,0,1,48,31,1594752756
109,15,18,Jits_Linear_8,1,5,56,103,1594759680
109,15,18,Jits_Linear_8,2,5,80,127,1594869980
109,15,18,Jits_Linear_8,3,5,63,98,1594899732
109,15,18,Jits_Linear_8,0,1,48,32,1595390476
109,15,18,Jits_Linear_8,1,5,56,103,1595399492
109,15,18,Jits_Linear_8,2,5,63,98,1595459888
109,15,18,Jits_Linear_8,3,5,80,127,1595489620
109,15,18,Jits_Linear_8,0,5,56,103,1595959644
109,15,18,Jits_Linear_8,1,1,48,34,1595988840
109,15,18,Jits_Linear_8,2,5,63,98,1596030516
109,15,18,Jits_Linear_8,3,5,80,127,1596049632
109,15,18,Jits_Linear_8,0,5,80,127,1596519800
109,15,18,Jits_Linear_8,1,5,63,98,1596540336
109,15,18,Jits_Linear_8,2,1,48,28,1596548184
109,15,18,Jits_Linear_8,3,5,56,103,1596589408
109,15,18,Jits_Linear_8,0,1,48,31,1597097656
109,15,18,Jits_Linear_8,1,5,63,98,1597130236
109,15,18,Jits_Linear_8,2,5,80,127,1597140580
109,15,18,Jits_Linear_8,3,5,56,103,1597190840
109,15,18,Jits_Linear_8,0,1,48,27,1597683896
109,15,18,Jits_Linear_8,1,5,63,98,1597709624
109,15,18,Jits_Linear_8,2,5,80,127,1597780580
109,15,18,Jits_Linear_8,3,5,56,103,1597799756
109,15,18,Jits_Linear_8,0,1,48,22,1598281948
109,15,18,Jits_Linear_8,1,5,63,98,1598319960
109,15,18,Jits_Linear_8,2,5,80,127,1598323324
109,15,18,Jits_Linear_8,3,5,56,103,1598389552
109,15,18,Jits_Linear_8,0,5,80,127,1598850576
109,15,18,Jits_Linear_8,1,5,56,103,1598869984
109,15,18,Jits_Linear_8,2,5,63,98,1598880108
109,15,18,Jits_Linear_8,3,1,48,23,1598902252
109,15,18,Jits_Linear_8,0,5,56,103,1599449628
109,15,18,Jits_Linear_8,1,1,48,29,1599453120
109,15,18,Jits_Linear_8,2,5,63,98,1599539608
109,15,18,Jits_Linear_8,3,5,80,127,1599542896
109,15,18,Jits_Linear_8,0,5,80,127,1600000408
109,15,18,Jits_Linear_8,1,5,56,103,1600009704
109,15,18,Jits_Linear_8,2,1,48,32,1600023384
109,15,18,Jits_Linear_8,3,5,63,98,1600030156
109,15,18,Jits_Linear_8,0,5,63,98,1600569836
109,15,18,Jits_Linear_8,1,1,48,30,1600623004
109,15,18,Jits_Linear_8,2,5,80,127,1600630072
109,15,18,Jits_Linear_8,3,5,56,103,1600640420
109,15,18,Jits_Linear_8,0,1,48,37,1601187916
109,15,18,Jits_Linear_8,1,5,63,98,1601209852
109,15,18,Jits_Linear_8,2,5,80,127,1601240428
109,15,18,Jits_Linear_8,3,5,56,103,1601280500
109,15,18,Jits_Linear_8,0,5,56,103,1601769776
109,15,18,Jits_Linear_8,1,5,80,127,1601780416
109,15,18,Jits_Linear_8,2,1,48,32,1601782796
109,15,18,Jits_Linear_8,3,5,63,98,1601819980
109,15,18,Jits_Linear_8,0,5,80,127,1602300256
109,15,18,Jits_Linear_8,1,1,48,28,1602367348
109,15,18,Jits_Linear_8,2,5,56,103,1602380272
109,15,18,Jits_Linear_8,3,5,63,98,1602390320
109,15,18,Jits_Linear_8,0,5,80,127,1602909412
109,15,18,Jits_Linear_8,1,1,48,32,1602935228
109,15,18,Jits_Linear_8,2,5,56,103,1602989504
109,15,18,Jits_Linear_8,3,5,63,98,1602999772
109,15,18,Jits_Linear_8,0,5,80,127,1603429788
109,15,18,Jits_Linear_8,1,5,56,103,1603479916
109,15,18,Jits_Linear_8,2,5,63,98,1603530292
109,15,18,Jits_Linear_8,3,1,48,35,1603535280
109,15,18,Jits_Linear_8,0,5,56,103,1604050276
109,15,18,Jits_Linear_8,1,5,63,98,1604053416
109,15,18,Jits_Linear_8,2,1,48,30,1604085080
109,15,18,Jits_Linear_8,3,5,80,127,1604099496
109,15,18,Jits_Linear_8,0,5,56,103,1604629980
109,15,18,Jits_Linear_8,1,1,48,31,1604655792
109,15,18,Jits_Linear_8,2,5,63,98,1604659500
109,15,18,Jits_Linear_8,3,5,80,127,1604669772
109,15,18,Jits_Linear_8,0,5,63,98,1605099784
109,15,18,Jits_Linear_8,1,5,56,103,1605169540
109,15,18,Jits_Linear_8,2,5,80,127,1605219668
109,15,18,Jits_Linear_8,3,1,48,25,1605255224
109,15,18,Jits_Linear_8,0,5,63,98,1605689668
109,15,18,Jits_Linear_8,1,5,56,103,1605699856
109,15,18,Jits_Linear_8,2,5,80,127,1605703076
109,15,18,Jits_Linear_8,0,5,80,127,1606189508
109,15,18,Jits_Linear_8,1,5,56,103,1606249828
109,15,18,Jits_Linear_8,2,5,63,98,1606340356
109,15,18,Jits_Linear_8,3,1,48,27,1606445432
109,15,18,Jits_Linear_8,0,5,80,127,1606740352
109,15,18,Jits_Linear_8,1,5,56,103,1606839708
109,15,18,Jits_Linear_8,2,5,63,98,1606879524
109,15,18,Jits_Linear_8,3,1,48,26,1606927600
109,15,18,Jits_Linear_8,0,5,56,103,1607340364
109,15,18,Jits_Linear_8,1,5,63,98,1607359876
109,15,18,Jits_Linear_8,2,5,80,127,1607399740
109,15,18,Jits_Linear_8,3,1,48,21,1607441288
109,15,18,Jits_Linear_8,0,5,63,98,1607859532
109,15,18,Jits_Linear_8,1,5,56,103,1607880164
109,15,18,Jits_Linear_8,2,1,48,20,1607943520
109,15,18,Jits_Linear_8,3,5,80,127,1607980408
109,15,18,Jits_Linear_8,0,5,63,98,1608400360
109,15,18,Jits_Linear_8,1,1,48,24,1608421916
109,15,18,Jits_Linear_8,2,5,80,127,1608509748
109,15,18,Jits_Linear_8,3,5,56,103,1608539560
109,15,18,Jits_Linear_8,0,1,48,27,1608951332
109,15,18,Jits_Linear_8,1,5,56,103,1608960572
109,15,18,Jits_Linear_8,2,5,63,98,1608990244
109,15,18,Jits_Linear_8,3,5,80,127,1609040448
109,15,18,Jits_Linear_8,0,5,63,98,1609470512
109,15,18,Jits_Linear_8,1,1,48,27,1609498076
109,15,18,Jits_Linear_8,2,5,56,103,1609500036
109,15,18,Jits_Linear_8,3,5,80,127,1609550456
109,15,18,Jits_Linear_8,0,5,56,103,1610039568
109,15,18,Jits_Linear_8,1,1,48,23,1610042236
109,15,18,Jits_Linear_8,2,5,63,98,1610060244
109,15,18,Jits_Linear_8,3,5,80,127,1610140100
109,15,18,Jits_Linear_8,0,5,63,98,1610549672
109,15,18,Jits_Linear_8,1,1,48,26,1610602012
109,15,18,Jits_Linear_8,2,5,56,103,1610610204
109,15,18,Jits_Linear_8,3,5,80,127,1610639656
109,15,18,Jits_Linear_8,0,5,56,103,1611130184
109,15,18,Jits_Linear_8,1,1,48,25,1611136220
109,15,18,Jits_Linear_8,2,5,80,127,1611189596
109,15,18,Jits_Linear_8,3,5,63,98,1611229484
109,15,18,Jits_Linear_8,0,5,63,98,1611640220
109,15,18,Jits_Linear_8,1,1,48,22,1611698884
109,15,18,Jits_Linear_8,2,5,56,103,1611700456
109,15,18,Jits_Linear_8,3,5,80,127,1611770236
109,15,18,Jits_Linear_8,0,1,48,25,1612244100
109,15,18,Jits_Linear_8,1,5,56,103,1612249376
109,15,18,Jits_Linear_8,2,5,63,98,1612259792
109,15,18,Jits_Linear_8,3,5,80,127,1612263156
109,15,18,Jits_Linear_8,0,5,63,98,1612719360
109,15,18,Jits_Linear_8,1,5,56,103,1612779848
109,15,18,Jits_Linear_8,2,5,80,127,1612782988
109,15,18,Jits_Linear_8,3,1,48,28,1612802892
109,15,18,Jits_Linear_8,0,5,63,98,1613229364
109,15,18,Jits_Linear_8,1,5,80,127,1613260188
109,15,18,Jits_Linear_8,2,5,56,103,1613279600
109,15,18,Jits_Linear_8,3,1,48,27,1613323624
109,15,18,Jits_Linear_8,0,5,56,103,1613759932
109,15,18,Jits_Linear_8,1,5,63,98,1613810212
109,15,18,Jits_Linear_8,2,1,48,28,1613815952
109,15,18,Jits_Linear_8,3,5,80,127,1613889996
109,15,18,Jits_Linear_8,0,5,80,127,1614259604
109,15,18,Jits_Linear_8,1,5,63,98,1614299420
109,15,18,Jits_Linear_8,2,1,48,24,1614305756
109,15,18,Jits_Linear_8,3,5,56,103,1614319948
109,15,18,Jits_Linear_8,0,5,56,103,1614850276
109,15,18,Jits_Linear_8,1,5,80,127,1614859572
109,15,18,Jits_Linear_8,2,5,63,98,1614880256
109,15,18,Jits_Linear_8,0,5,56,103,1615350148
109,15,18,Jits_Linear_8,1,1,48,29,1615359120
109,15,18,Jits_Linear_8,2,5,63,98,1615400272
109,15,18,Jits_Linear_8,3,5,80,127,1615430392
109,15,18,Jits_Linear_8,0,5,56,103,1615820100
109,15,18,Jits_Linear_8,1,5,63,98,1615830296
109,15,18,Jits_Linear_8,2,5,80,127,1615879524
109,15,18,Jits_Linear_8,3,1,48,29,1615904964
109,15,18,Jits_Linear_8,0,5,56,103,1616330048
109,15,18,Jits_Linear_8,1,5,80,127,1616333116
109,15,18,Jits_Linear_8,2,1,48,26,1616389512
109,15,18,Jits_Linear_8,3,5,63,98,1616490132
109,15,18,Jits_Linear_8,0,5,63,98,1616859476
109,15,18,Jits_Linear_8,1,1,48,25,1616900212
109,15,18,Jits_Linear_8,2,5,56,103,1616930276
109,15,18,Jits_Linear_8,3,5,80,127,1616970068
109,15,18,Jits_Linear_8,0,5,63,98,1617410328
109,15,18,Jits_Linear_8,1,1,48,28,1617444164
109,15,18,Jits_Linear_8,2,5,56,103,1617499632
109,15,18,Jits_Linear_8,3,5,80,127,1617502552
109,15,18,Jits_Linear_8,0,5,56,103,1617900040
109,15,18,Jits_Linear_8,1,1,48,21,1617969996
109,15,18,Jits_Linear_8,2,5,63,98,1617990172
109,15,18,Jits_Linear_8,3,5,80,127,1618000292
109,15,18,Jits_Linear_8,0,5,56,103,1618380332
109,15,18,Jits_Linear_8,1,5,63,98,1618430312
109,15,18,Jits_Linear_8,2,5,80,127,1618459988
109,15,18,Jits_Linear_8,3,1,48,30,1618473520
109,15,18,Jits_Linear_8,0,1,48,27,1618959600
109,15,18,Jits_Linear_8,1,5,63,98,1618961012
109,15,18,Jits_Linear_8,2,5,80,127,1618970084
109,15,18,Jits_Linear_8,3,5,56,103,1619030400
109,15,18,Jits_Linear_8,0,5,63,98,1619379536
109,15,18,Jits_Linear_8,1,5,80,127,1619440176
109,15,18,Jits_Linear_8,2,1,48,24,1619462848
109,15,18,Jits_Linear_8,3,5,56,103,1619480032
109,15,18,Jits_Linear_8,0,1,48,24,1619958700
109,15,18,Jits_Linear_8,1,5,56,103,1619979628
109,15,18,Jits_Linear_8,2,5,80,127,1620000384
109,15,18,Jits_Linear_8,3,5,63,98,1620019500
109,15,18,Jits_Linear_8,0,5,63,98,1620399352
109,15,18,Jits_Linear_8,1,5,56,103,1620420060
109,15,18,Jits_Linear_8,2,5,80,127,1620460000
109,15,18,Jits_Linear_8,3,1,48,15,1620480580
109,15,18,Jits_Linear_8,0,5,63,98,1620909292
109,15,18,Jits_Linear_8,1,5,80,127,1620940116
109,15,18,Jits_Linear_8,2,1,48,20,1620957860
109,15,18,Jits_Linear_8,3,5,56,103,1620959448
109,15,18,Jits_Linear_8,0,5,80,127,1621379300
109,15,18,Jits_Linear_8,1,5,56,103,1621429580
109,15,18,Jits_Linear_8,2,1,48,23,1621433524
109,15,18,Jits_Linear_8,3,5,63,98,1621490184
109,15,18,Jits_Linear_8,0,5,63,98,1621859564
109,15,18,Jits_Linear_8,1,1,48,23,1621940900
109,15,18,Jits_Linear_8,2,5,56,103,1621979388
109,15,18,Jits_Linear_8,3,5,80,127,1622010184
109,15,18,Jits_Linear_8,0,5,80,127,1622390108
109,15,18,Jits_Linear_8,1,5,63,98,1622409672
109,15,18,Jits_Linear_8,2,1,48,26,1622462712
109,15,18,Jits_Linear_8,3,5,56,103,1622480196
109,15,18,Jits_Linear_8,0,5,63,98,1622899996
109,15,18,Jits_Linear_8,1,5,56,103,1622910264
109,15,18,Jits_Linear_8,2,1,48,22,1622949952
109,15,18,Jits_Linear_8,3,5,80,127,1622990152
109,15,18,Jits_Linear_8,0,1,48,22,1623438232
109,15,18,Jits_Linear_8,1,5,56,103,1623450168
109,15,18,Jits_Linear_8,2,5,80,127,1623479548
109,15,18,Jits_Linear_8,3,5,63,98,1623490116
109,15,18,Jits_Linear_8,0,9999,9999,9999,1513057348
109,15,18,Jits_Linear_8,1,9999,9999,9999,1513877580
109,15,18,Jits_Linear_8,2,9999,9999,9999,1514697788
109,15,18,Jits_Linear_8,3,9999,9999,9999,1515518044
109,15,18,Jits_Linear_8,4,9999,9999,9999,1516337224
109,15,18,Jits_Linear_8,5,9999,9999,9999,1517147248
109,15,18,Jits_Linear_8,6,9999,9999,9999,1517957188
109,15,18,Jits_Linear_8,7,9999,9999,9999,1518767220
109,15,18,Jits_Linear_8,8,9999,9999,9999,1519577212
109,15,18,Jits_Linear_8,9,9999,9999,9999,1520387140
109,15,18,Jits_Linear_8,10,9999,9999,9999,1521187964
109,15,18,Jits_Linear_8,11,9999,9999,9999,1521987644
109,15,18,Jits_Linear_8,12,9999,9999,9999,1522787420
109,15,18,Jits_Linear_8,13,9999,9999,9999,1523587188
109,15,18,Jits_Linear_8,14,9999,9999,9999,1524387904
109,15,18,Jits_Linear_8,15,9999,9999,9999,1525177460
109,15,18,Jits_Linear_8,16,9999,9999,9999,1525967928
109,15,18,Jits_Linear_8,17,9999,9999,9999,1526757440
109,15,18,Jits_Linear_8,18,9999,9999,9999,1527547984
109,15,18,Jits_Linear_8,19,9999,9999,9999,1528337492
109,15,18,Jits_Linear_8,20,9999,9999,9999,1529117768
109,15,18,Jits_Linear_8,21,9999,9999,9999,1529898040
109,15,18,Jits_Linear_8,22,9999,9999,9999,1530677344
109,15,18,Jits_Linear_8,23,9999,9999,9999,1531457620
109,15,18,Jits_Linear_8,24,9999,9999,9999,1532237888
109,15,18,Jits_Linear_8,25,9999,9999,9999,1533007980
109,15,18,Jits_Linear_8,26,9999,9999,9999,1533778004
109,15,18,Jits_Linear_8,27,9999,9999,9999,1534548092
109,15,18,Jits_Linear_8,28,9999,9999,9999,1535318116
109,15,18,Jits_Linear_8,29,9999,9999,9999,1536097364
109,15,18,Jits_Linear_8,30,9999,9999,9999,1536857188
109,15,18,Jits_Linear_8,31,9999,9999,9999,1537617980
109,15,18,Jits_Linear_8,32,9999,9999,9999,1538377788
109,15,18,Jits_Linear_8,33,9999,9999,9999,1539137616
109,15,18,Jits_Linear_8,34,9999,9999,9999,1539897448
109,15,18,Jits_Linear_8,35,9999,9999,9999,1540648008
109,15,18,Jits_Linear_8,36,9999,9999,9999,1541397572
109,15,18,Jits_Linear_8,37,9999,9999,9999,1542147196
109,15,18,Jits_Linear_8,38,9999,9999,9999,1542897736
109,15,18,Jits_Linear_8,39,9999,9999,9999,1543647320
109,15,18,Jits_Linear_8,40,9999,9999,9999,1544387664
109,15,18,Jits_Linear_8,41,9999,9999,9999,1545127996
109,15,18,Jits_Linear_8,42,9999,9999,9999,1545867384
109,15,18,Jits_Linear_8,43,9999,9999,9999,1546607740
109,15,18,Jits_Linear_8,44,9999,9999,9999,1547348092
109,15,18,Jits_Linear_8,45,9999,9999,9999,1548077160
109,15,18,Jits_Linear_8,46,9999,9999,9999,1548807284
109,15,18,Jits_Linear_8,47,9999,9999,9999,1549537388
109,15,18,Jits_Linear_8,48,9999,9999,9999,1550267468
109,15,18,Jits_Linear_8,49,9999,9999,9999,1550997592
109,15,18,Jits_Linear_8,50,9999,9999,9999,1551717484
109,15,18,Jits_Linear_8,51,9999,9999,9999,1552437316
109,15,18,Jits_Linear_8,52,9999,9999,9999,1553157220
109,15,18,Jits_Linear_8,53,9999,9999,9999,1553878092
109,15,18,Jits_Linear_8,54,9999,9999,9999,1554607168
109,15,18,Jits_Linear_8,55,9999,9999,9999,1555317860
109,15,18,Jits_Linear_8,56,9999,9999,9999,1556027484
109,15,18,Jits_Linear_8,57,9999,9999,9999,1556737128
109,15,18,Jits_Linear_8,58,9999,9999,9999,1557447740
109,15,18,Jits_Linear_8,59,9999,9999,9999,1558157432
109,15,18,Jits_Linear_8,60,9999,9999,9999,1558857852
109,15,18,Jits_Linear_8,61,9999,9999,9999,1559557236
109,15,18,Jits_Linear_8,62,9999,9999,9999,1560257656
109,15,18,Jits_Linear_8,63,9999,9999,9999,1560958036
109,15,18,Jits_Linear_8,64,9999,9999,9999,1561657416
109,15,18,Jits_Linear_8,65,9999,9999,9999,1562347640
109,15,18,Jits_Linear_8,66,9999,9999,9999,1563037784
109,15,18,Jits_Linear_8,67,9999,9999,9999,1563727936
109,15,18,Jits_Linear_8,68,9999,9999,9999,1564417100
109,15,18,Jits_Linear_8,69,9999,9999,9999,1565107316
109,15,18,Jits_Linear_8,70,9999,9999,9999,1565787200
109,15,18,Jits_Linear_8,71,9999,9999,9999,1566467168
109,15,18,Jits_Linear_8,72,9999,9999,9999,1567147100
109,15,18,Jits_Linear_8,73,9999,9999,9999,1567828044
109,15,18,Jits_Linear_8,74,9999,9999,9999,1568508024
109,15,18,Jits_Linear_8,75,9999,9999,9999,1569177700
109,15,18,Jits_Linear_8,76,9999,9999,9999,1569847408
109,15,18,Jits_Linear_8,77,9999,9999,9999,1570518092
109,15,18,Jits_Linear_8,78,9999,9999,9999,1571198032
109,15,18,Jits_Linear_8,79,9999,9999,9999,1571867744
109,15,18,Jits_Linear_8,80,9999,9999,9999,1572527224
109,15,18,Jits_Linear_8,81,9999,9999,9999,1573187700
109,15,18,Jits_Linear_8,82,9999,9999,9999,1573847132
109,15,18,Jits_Linear_8,83,9999,9999,9999,1574507584
109,15,18,Jits_Linear_8,84,9999,9999,9999,1575168068
109,15,18,Jits_Linear_8,85,9999,9999,9999,1575827564
109,15,18,Jits_Linear_8,86,9999,9999,9999,1576477796
109,15,18,Jits_Linear_8,87,9999,9999,9999,1577128056
109,15,18,Jits_Linear_8,88,9999,9999,9999,1577777216
109,15,18,Jits_Linear_8,89,9999,9999,9999,1578427516
109,15,18,Jits_Linear_8,90,9999,9999,9999,1579067452
109,15,18,Jits_Linear_8,91,9999,9999,9999,1579707472
109,15,18,Jits_Linear_8,92,9999,9999,9999,1580347492
109,15,18,Jits_Linear_8,93,9999,9999,9999,1580987516
109,15,18,Jits_Linear_8,94,9999,9999,9999,1581627516
109,15,18,Jits_Linear_8,95,9999,9999,9999,1582257268
109,15,18,Jits_Linear_8,96,9999,9999,9999,1582888032
109,15,18,Jits_Linear_8,97,9999,9999,9999,1583517808
109,15,18,Jits_Linear_8,98,9999,9999,9999,1584147548
109,15,18,Jits_Linear_8,99,9999,9999,9999,1584777316
109,15,18,Jits_Linear_8,100,9999,9999,9999,1585397864
109,15,18,Jits_Linear_8,101,9999,9999,9999,1586017344
109,15,18,Jits_Linear_8,102,9999,9999,9999,1586637896
109,15,18,Jits_Linear_8,103,9999,9999,9999,1587257456
109,15,18,Jits_Linear_8,104,9999,9999,9999,1587877996
109,15,18,Jits_Linear_8,105,9999,9999,9999,1588487244
109,15,18,Jits_Linear_8,106,9999,9999,9999,1589097564
109,15,18,Jits_Linear_8,107,9999,9999,9999,1589707904
109,15,18,Jits_Linear_8,108,9999,9999,9999,1590317140
109,15,18,Jits_Linear_8,109,9999,9999,9999,1590927428
109,15,18,Jits_Linear_8,110,9999,9999,9999,1591527496
109,15,18,Jits_Linear_8,111,9999,9999,9999,1592127584
109,15,18,Jits_Linear_8,112,9999,9999,9999,1592727660
109,15,18,Jits_Linear_8,113,9999,9999,9999,1593327700
109,15,18,Jits_Linear_8,114,9999,9999,9999,1593927768
109,15,18,Jits_Linear_8,115,9999,9999,9999,1594517596
109,15,18,Jits_Linear_8,116,9999,9999,9999,1595107384
109,15,18,Jits_Linear_8,117,9999,9999,9999,1595697272
109,15,18,Jits_Linear_8,118,9999,9999,9999,1596288060
109,15,18,Jits_Linear_8,119,9999,9999,9999,1596887116
109,15,18,Jits_Linear_8,120,9999,9999,9999,1597467716
109,15,18,Jits_Linear_8,121,9999,9999,9999,1598047336
109,15,18,Jits_Linear_8,122,9999,9999,9999,1598627916
109,15,18,Jits_Linear_8,123,9999,9999,9999,1599207548
109,15,18,Jits_Linear_8,124,9999,9999,9999,1599787100
109,15,18,Jits_Linear_8,125,9999,9999,9999,1600357432
109,15,18,Jits_Linear_8,126,9999,9999,9999,1600927840
109,15,18,Jits_Linear_8,127,9999,9999,9999,1601497144
109,15,18,Jits_Linear_8,128,9999,9999,9999,1602067548
109,15,18,Jits_Linear_8,129,9999,9999,9999,1602637888
109,15,18,Jits_Linear_8,130,9999,9999,9999,1603198044
109,15,18,Jits_Linear_8,131,9999,9999,9999,1603757152
109,15,18,Jits_Linear_8,132,9999,9999,9999,1604317248
109,15,18,Jits_Linear_8,133,9999,9999,9999,1604877408
109,15,18,Jits_Linear_8,134,9999,9999,9999,1605437564
109,15,18,Jits_Linear_8,135,9999,9999,9999,1605987448
109,15,18,Jits_Linear_8,136,9999,9999,9999,1606537272
109,15,18,Jits_Linear_8,137,9999,9999,9999,1607087204
109,15,18,Jits_Linear_8,138,9999,9999,9999,1607638084
109,15,18,Jits_Linear_8,139,9999,9999,9999,1608197188
109,15,18,Jits_Linear_8,140,9999,9999,9999,1608737844
109,15,18,Jits_Linear_8,141,9999,9999,9999,1609277528
109,15,18,Jits_Linear_8,142,9999,9999,9999,1609817208
109,15,18,Jits_Linear_8,143,9999,9999,9999,1610357864
109,15,18,Jits_Linear_8,144,9999,9999,9999,1610897484
109,15,18,Jits_Linear_8,145,9999,9999,9999,1611427960
109,15,18,Jits_Linear_8,146,9999,9999,9999,1611957324
109,15,18,Jits_Linear_8,147,9999,9999,9999,1612487732
109,15,18,Jits_Linear_8,148,9999,9999,9999,1613017148
109,15,18,Jits_Linear_8,149,9999,9999,9999,1613547612
109,15,18,Jits_Linear_8,150,9999,9999,9999,1614067820
109,15,18,Jits_Linear_8,151,9999,9999,9999,1614587968
109,15,18,Jits_Linear_8,152,9999,9999,9999,1615107164
109,15,18,Jits_Linear_8,153,9999,9999,9999,1615627320
109,15,18,Jits_Linear_8,154,9999,9999,9999,1616147536
109,15,18,Jits_Linear_8,155,9999,9999,9999,1616657484
109,15,18,Jits_Linear_8,156,9999,9999,9999,1617167440
109,15,18,Jits_Linear_8,157,9999,9999,9999,1617677384
109,15,18,Jits_Linear_8,158,9999,9999,9999,1618187332
109,15,18,Jits_Linear_8,159,9999,9999,9999,1618697288
109,15,18,Jits_Linear_8,160,9999,9999,9999,1619198036
109,15,18,Jits_Linear_8,161,9999,9999,9999,1619697784
109,15,18,Jits_Linear_8,162,9999,9999,9999,1620197472
109,15,18,Jits_Linear_8,163,9999,9999,9999,1620697148
109,15,18,Jits_Linear_8,164,9999,9999,9999,1621197948
109,15,18,Jits_Linear_8,165,9999,9999,9999,1621687412
109,15,18,Jits_Linear_8,166,9999,9999,9999,1622177868
109,15,18,Jits_Linear_8,167,9999,9999,9999,1622667356
109,15,18,Jits_Linear_8,168,9999,9999,9999,1623157836
109,15,18,Jits_Linear_8,169,9999,9999,9999,1623647312
109,16,16,Jits_ISO_5,0,5,56,103,1631929768
109,16,16,Jits_ISO_5,1,5,63,98,1631932716
109,16,16,Jits_ISO_5,2,5,80,127,1631935764
109,16,16,Jits_ISO_5,0,5,56,103,1632429532
109,16,16,Jits_ISO_5,1,5,63,98,1632432408
109,16,16,Jits_ISO_5,2,5,80,127,1632435604
109,16,16,Jits_ISO_5,0,5,56,103,1632930096
109,16,16,Jits_ISO_5,1,5,80,127,1632940364
109,16,16,Jits_ISO_5,2,5,63,98,1632959948
109,16,16,Jits_ISO_5,0,5,63,98,1633379784
109,16,16,Jits_ISO_5,1,5,80,127,1633410436
109,16,16,Jits_ISO_5,2,5,56,103,1633419728
109,16,16,Jits_ISO_5,0,5,80,127,1633939820
109,16,16,Jits_ISO_5,1,5,56,103,1633950016
109,16,16,Jits_ISO_5,2,5,63,98,1633979712
109,16,16,Jits_ISO_5,0,5,63,98,1634430196
109,16,16,Jits_ISO_5,1,5,56,103,1634460096
109,16,16,Jits_ISO_5,2,5,80,127,1634470364
109,16,16,Jits_ISO_5,0,5,56,103,1634879880
109,16,16,Jits_ISO_5,1,5,63,98,1634930080
109,16,16,Jits_ISO_5,2,5,80,127,1634949344
109,16,16,Jits_ISO_5,0,5,80,127,1635379692
109,16,16,Jits_ISO_5,1,5,63,98,1635429892
109,16,16,Jits_ISO_5,2,5,56,103,1635469680
109,16,16,Jits_ISO_5,0,5,56,103,1635880252
109,16,16,Jits_ISO_5,1,5,63,98,1635909928
109,16,16,Jits_ISO_5,2,5,80,127,1635979752
109,16,16,Jits_ISO_5,0,5,56,103,1636380064
109,16,16,Jits_ISO_5,1,5,80,127,1636440308
109,16,16,Jits_ISO_5,2,5,63,98,1636470056
109,16,16,Jits_ISO_5,0,5,56,103,1636889996
109,16,16,Jits_ISO_5,1,5,63,98,1636900340
109,16,16,Jits_ISO_5,2,5,80,127,1636940276
109,16,16,Jits_ISO_5,0,5,63,98,1637379616
109,16,16,Jits_ISO_5,1,5,80,127,1637460384
109,16,16,Jits_ISO_5,2,5,56,103,1637469756
109,16,16,Jits_ISO_5,0,1,48,41,1637894292
109,16,16,Jits_ISO_5,1,5,63,98,1637930208
109,16,16,Jits_ISO_5,2,5,56,103,1637970140
109,16,16,Jits_ISO_5,3,5,80,127,1637973212
109,16,16,Jits_ISO_5,0,5,56,103,1638390084
109,16,16,Jits_ISO_5,1,5,63,98,1638400652
109,16,16,Jits_ISO_5,2,1,48,46,1638406764
109,16,16,Jits_ISO_5,3,5,80,127,1638440284
109,16,16,Jits_ISO_5,0,5,56,103,1638879568
109,16,16,Jits_ISO_5,1,5,63,98,1638882708
109,16,16,Jits_ISO_5,2,1,48,46,1638887864
109,16,16,Jits_ISO_5,3,5,80,127,1638900020
109,16,16,Jits_ISO_5,0,1,48,48,1639352376
109,16,16,Jits_ISO_5,1,5,80,127,1639389784
109,16,16,Jits_ISO_5,2,5,56,103,1639399904
109,16,16,Jits_ISO_5,3,5,63,98,1639469716
109,16,16,Jits_ISO_5,0,5,63,98,1639880004
109,16,16,Jits_ISO_5,1,5,56,103,1639899712
109,16,16,Jits_ISO_5,2,1,48,40,1639905148
109,16,16,Jits_ISO_5,3,5,80,127,1639980544
109,16,16,Jits_ISO_5,0,5,56,103,1640390072
109,16,16,Jits_ISO_5,1,1,48,41,1640402704
109,16,16,Jits_ISO_5,2,5,80,127,1640429928
109,16,16,Jits_ISO_5,3,5,63,98,1640440272
109,16,16,Jits_ISO_5,0,5,80,127,1640879604
109,16,16,Jits_ISO_5,1,1,48,40,1640908156
109,16,16,Jits_ISO_5,2,5,63,98,1640910120
109,16,16,Jits_ISO_5,3,5,56,103,1640950056
109,16,16,Jits_ISO_5,0,5,56,103,1641399900
109,16,16,Jits_ISO_5,1,5,63,98,1641430252
109,16,16,Jits_ISO_5,2,1,48,34,1641439740
109,16,16,Jits_ISO_5,3,5,80,127,1641479768
109,16,16,Jits_ISO_5,0,5,80,127,1641900376
109,16,16,Jits_ISO_5,1,1,48,42,1641934984
109,16,16,Jits_ISO_5,2,5,56,103,1641940404
109,16,16,Jits_ISO_5,3,5,63,98,1641949628
109,16,16,Jits_ISO_5,0,5,80,127,1642379740
109,16,16,Jits_ISO_5,1,5,63,98,1642419680
109,16,16,Jits_ISO_5,2,1,48,40,1642437820
109,16,16,Jits_ISO_5,3,5,56,103,1642479936
109,16,16,Jits_ISO_5,0,5,56,103,1642880388
109,16,16,Jits_ISO_5,1,5,80,127,1642889760
109,16,16,Jits_ISO_5,2,1,48,39,1642962128
109,16,16,Jits_ISO_5,3,5,63,98,1642969720
109,16,16,Jits_ISO_5,0,5,80,127,1643380056
109,16,16,Jits_ISO_5,1,5,63,98,1643439548
109,16,16,Jits_ISO_5,2,1,48,41,1643467480
109,16,16,Jits_ISO_5,3,5,56,103,1643470136
109,16,16,Jits_ISO_5,0,5,56,103,1643879800
109,16,16,Jits_ISO_5,1,5,80,127,1643940264
109,16,16,Jits_ISO_5,2,1,48,32,1643977412
109,16,16,Jits_ISO_5,3,5,63,98,1643980072
109,16,16,Jits_ISO_5,0,5,56,103,1644429672
109,16,16,Jits_ISO_5,1,5,63,98,1644439940
109,16,16,Jits_ISO_5,2,5,80,127,1644443228
109,16,16,Jits_ISO_5,3,1,48,39,1644455712
109,16,16,Jits_ISO_5,0,5,80,127,1644880112
109,16,16,Jits_ISO_5,1,5,63,98,1644970244
109,16,16,Jits_ISO_5,2,5,56,103,1644979840
109,16,16,Jits_ISO_5,3,1,48,28,1644995564
109,16,16,Jits_ISO_5,0,5,56,103,1645380064
109,16,16,Jits_ISO_5,1,5,63,98,1645383012
109,16,16,Jits_ISO_5,2,5,80,127,1645386136
109,16,16,Jits_ISO_5,3,1,48,44,1645462828
109,16,16,Jits_ISO_5,0,5,80,127,1645900032
109,16,16,Jits_ISO_5,1,5,63,98,1645950528
109,16,16,Jits_ISO_5,2,1,48,37,1645958232
109,16,16,Jits_ISO_5,3,5,56,103,1645979972
109,16,16,Jits_ISO_5,0,5,56,103,1646380600
109,16,16,Jits_ISO_5,1,5,80,127,1646389596
109,16,16,Jits_ISO_5,2,1,48,41,1646419612
109,16,16,Jits_ISO_5,3,5,63,98,1646460164
109,16,16,Jits_ISO_5,0,5,56,103,1646899672
109,16,16,Jits_ISO_5,1,1,48,37,1646916568
109,16,16,Jits_ISO_5,2,5,63,98,1646920124
109,16,16,Jits_ISO_5,3,5,80,127,1646979688
109,16,16,Jits_ISO_5,0,5,80,127,1647390128
109,16,16,Jits_ISO_5,1,1,48,29,1647454380
109,16,16,Jits_ISO_5,2,5,63,98,1647459652
109,16,16,Jits_ISO_5,3,5,56,103,1647480112
109,16,16,Jits_ISO_5,0,5,80,127,1647910180
109,16,16,Jits_ISO_5,1,5,56,103,1647919700
109,16,16,Jits_ISO_5,2,5,63,98,1647929748
109,16,16,Jits_ISO_5,3,1,48,37,1647956012
109,16,16,Jits_ISO_5,0,5,80,127,1648399664
109,16,16,Jits_ISO_5,1,5,56,103,1648420124
109,16,16,Jits_ISO_5,2,1,48,31,1648452760
109,16,16,Jits_ISO_5,3,5,63,98,1648489940
109,16,16,Jits_ISO_5,0,5,56,103,1648909672
109,16,16,Jits_ISO_5,1,1,48,35,1648914960
109,16,16,Jits_ISO_5,2,5,80,127,1648940612
109,16,16,Jits_ISO_5,3,5,63,98,1648959724
109,16,16,Jits_ISO_5,0,5,63,98,1649400124
109,16,16,Jits_ISO_5,1,1,48,42,1649411712
109,16,16,Jits_ISO_5,2,5,56,103,1649459536
109,16,16,Jits_ISO_5,3,5,80,127,1649490404
109,16,16,Jits_ISO_5,0,5,63,98,1649889744
109,16,16,Jits_ISO_5,1,5,80,127,1649892884
109,16,16,Jits_ISO_5,2,1,48,33,1649945748
109,16,16,Jits_ISO_5,3,5,56,103,1649979864
109,16,16,Jits_ISO_5,0,5,56,103,1650409844
109,16,16,Jits_ISO_5,1,1,48,38,1650435732
109,16,16,Jits_ISO_5,2,5,63,98,1650439512
109,16,16,Jits_ISO_5,3,5,80,127,1650479672
109,16,16,Jits_ISO_5,0,5,63,98,1650919780
109,16,16,Jits_ISO_5,1,1,48,39,1650936980
109,16,16,Jits_ISO_5,2,5,56,103,1650959788
109,16,16,Jits_ISO_5,3,5,80,127,1650980096
109,16,16,Jits_ISO_5,0,1,48,41,1651422996
109,16,16,Jits_ISO_5,1,5,63,98,1651429848
109,16,16,Jits_ISO_5,2,5,56,103,1651469784
109,16,16,Jits_ISO_5,3,5,80,127,1651480052
109,16,16,Jits_ISO_5,0,5,80,127,1651909956
109,16,16,Jits_ISO_5,1,1,48,36,1651971516
109,16,16,Jits_ISO_5,2,5,63,98,1651979632
109,16,16,Jits_ISO_5,3,5,56,103,1652000016
109,16,16,Jits_ISO_5,0,5,56,103,1652399420
109,16,16,Jits_ISO_5,1,5,80,127,1652419904
109,16,16,Jits_ISO_5,2,5,63,98,1652459840
109,16,16,Jits_ISO_5,3,1,48,43,1652493596
109,16,16,Jits_ISO_5,0,5,63,98,1652909500
109,16,16,Jits_ISO_5,1,5,80,127,1652929836
109,16,16,Jits_ISO_5,2,1,48,40,1652948840
109,16,16,Jits_ISO_5,3,5,56,103,1652969764
109,16,16,Jits_ISO_5,0,5,63,98,1653410128
109,16,16,Jits_ISO_5,1,5,56,103,1653429616
109,16,16,Jits_ISO_5,2,5,80,127,1653439812
109,16,16,Jits_ISO_5,3,1,48,34,1653483080
109,16,16,Jits_ISO_5,0,5,80,127,1653909980
109,16,16,Jits_ISO_5,1,5,56,103,1653930440
109,16,16,Jits_ISO_5,2,1,48,37,1653954784
109,16,16,Jits_ISO_5,3,5,63,98,1653959984
109,16,16,Jits_ISO_5,0,1,48,37,1654463512
109,16,16,Jits_ISO_5,1,5,56,103,1654480320
109,16,16,Jits_ISO_5,2,5,80,127,1654483312
109,16,16,Jits_ISO_5,3,5,63,98,1654499580
109,16,16,Jits_ISO_5,0,5,63,98,1654900016
109,16,16,Jits_ISO_5,1,5,56,103,1654929916
109,16,16,Jits_ISO_5,2,5,80,127,1654990328
109,16,16,Jits_ISO_5,3,1,48,39,1654997040
109,16,16,Jits_ISO_5,0,1,48,40,1655451560
109,16,16,Jits_ISO_5,1,5,63,98,1655479560
109,16,16,Jits_ISO_5,2,5,56,103,1655489904
109,16,16,Jits_ISO_5,3,5,80,127,1655500248
109,16,16,Jits_ISO_5,0,5,56,103,1655930128
109,16,16,Jits_ISO_5,1,5,80,127,1655960028
109,16,16,Jits_ISO_5,2,5,63,98,1655970072
109,16,16,Jits_ISO_5,3,1,48,34,1655971488
109,16,16,Jits_ISO_5,0,1,48,37,1656452920
109,16,16,Jits_ISO_5,1,5,63,98,1656469956
109,16,16,Jits_ISO_5,2,5,56,103,1656480228
109,16,16,Jits_ISO_5,3,5,80,127,1656499636
109,16,16,Jits_ISO_5,0,5,56,103,1656899924
109,16,16,Jits_ISO_5,1,1,48,38,1656960616
109,16,16,Jits_ISO_5,2,5,63,98,1656962124
109,16,16,Jits_ISO_5,3,5,80,127,1656965012
109,16,16,Jits_ISO_5,0,5,80,127,1657420260
109,16,16,Jits_ISO_5,1,5,56,103,1657430460
109,16,16,Jits_ISO_5,2,1,48,39,1657440996
109,16,16,Jits_ISO_5,3,5,63,98,1657499980
109,16,16,Jits_ISO_5,0,5,80,127,1657909596
109,16,16,Jits_ISO_5,1,1,48,39,1657977656
109,16,16,Jits_ISO_5,2,5,56,103,1657980392
109,16,16,Jits_ISO_5,3,5,63,98,1657989616
109,16,16,Jits_ISO_5,0,1,48,41,1658454336
109,16,16,Jits_ISO_5,1,5,63,98,1658459612
109,16,16,Jits_ISO_5,2,5,56,103,1658469808
109,16,16,Jits_ISO_5,3,5,80,127,1658490188
109,16,16,Jits_ISO_5,0,5,80,127,1658910276
109,16,16,Jits_ISO_5,1,1,48,41,1658965464
109,16,16,Jits_ISO_5,2,5,63,98,1658969540
109,16,16,Jits_ISO_5,3,5,56,103,1659010600
109,16,16,Jits_ISO_5,0,5,56,103,1659449664
109,16,16,Jits_ISO_5,1,5,63,98,1659459932
109,16,16,Jits_ISO_5,2,1,48,36,1659497348
109,16,16,Jits_ISO_5,3,5,80,127,1659499860
109,16,16,Jits_ISO_5,0,5,56,103,1659909552
109,16,16,Jits_ISO_5,1,5,80,127,1659940348
109,16,16,Jits_ISO_5,2,1,48,38,1659957636
109,16,16,Jits_ISO_5,3,5,63,98,1659990464
109,16,16,Jits_ISO_5,0,5,56,103,1660450128
109,16,16,Jits_ISO_5,1,1,48,39,1660453468
109,16,16,Jits_ISO_5,2,5,63,98,1660490056
109,16,16,Jits_ISO_5,3,5,80,127,1660493492
109,16,16,Jits_ISO_5,0,1,48,41,1660918000
109,16,16,Jits_ISO_5,1,5,56,103,1660949860
109,16,16,Jits_ISO_5,2,5,63,98,1660960132
109,16,16,Jits_ISO_5,3,5,80,127,1660979616
109,16,16,Jits_ISO_5,0,5,56,103,1661409592
109,16,16,Jits_ISO_5,1,5,80,127,1661412732
109,16,16,Jits_ISO_5,2,1,48,41,1661420132
109,16,16,Jits_ISO_5,3,5,63,98,1661449448
109,16,16,Jits_ISO_5,0,5,63,98,1661950532
109,16,16,Jits_ISO_5,1,1,48,40,1661952172
109,16,16,Jits_ISO_5,2,5,56,103,1661979976
109,16,16,Jits_ISO_5,3,5,80,127,1661999464
109,16,16,Jits_ISO_5,0,5,80,127,1662429444
109,16,16,Jits_ISO_5,1,5,56,103,1662440012
109,16,16,Jits_ISO_5,2,1,48,39,1662441056
109,16,16,Jits_ISO_5,3,5,63,98,1662449980
109,16,16,Jits_ISO_5,0,1,48,39,1662922260
109,16,16,Jits_ISO_5,1,5,56,103,1662930228
109,16,16,Jits_ISO_5,2,5,80,127,1662970388
109,16,16,Jits_ISO_5,3,5,63,98,1662999840
109,16,16,Jits_ISO_5,0,1,48,33,1663429264
109,16,16,Jits_ISO_5,1,5,63,98,1663440224
109,16,16,Jits_ISO_5,2,5,80,127,1663449600
109,16,16,Jits_ISO_5,3,5,56,103,1663459796
109,16,16,Jits_ISO_5,0,5,56,103,1663919484
109,16,16,Jits_ISO_5,1,1,48,37,1663938672
109,16,16,Jits_ISO_5,2,5,63,98,1663990232
109,16,16,Jits_ISO_5,3,5,80,127,1664000428
109,16,16,Jits_ISO_5,0,1,48,35,1664405640
109,16,16,Jits_ISO_5,1,5,80,127,1664420352
109,16,16,Jits_ISO_5,2,5,56,103,1664429504
109,16,16,Jits_ISO_5,3,5,63,98,1664479652
109,16,16,Jits_ISO_5,0,1,48,36,1664916600
109,16,16,Jits_ISO_5,1,5,80,127,1664930196
109,16,16,Jits_ISO_5,2,5,56,103,1664989568
109,16,16,Jits_ISO_5,3,5,63,98,1665020496
109,16,16,Jits_ISO_5,0,1,48,43,1665419868
109,16,16,Jits_ISO_5,1,5,56,103,1665430080
109,16,16,Jits_ISO_5,2,5,80,127,1665433072
109,16,16,Jits_ISO_5,3,5,63,98,1665469744
109,16,16,Jits_ISO_5,0,1,48,36,1665933220
109,16,16,Jits_ISO_5,1,5,56,103,1665960516
109,16,16,Jits_ISO_5,2,5,63,98,1665990216
109,16,16,Jits_ISO_5,3,5,80,127,1666000412
109,16,16,Jits_ISO_5,0,1,48,40,1666445684
109,16,16,Jits_ISO_5,1,5,63,98,1666470512
109,16,16,Jits_ISO_5,2,5,80,127,1666479512
109,16,16,Jits_ISO_5,3,5,56,103,1666489808
109,16,16,Jits_ISO_5,0,5,80,127,1666919836
109,16,16,Jits_ISO_5,1,1,48,40,1666947464
109,16,16,Jits_ISO_5,2,5,56,103,1666970176
109,16,16,Jits_ISO_5,3,5,63,98,1666972948
109,16,16,Jits_ISO_5,0,5,56,103,1667450216
109,16,16,Jits_ISO_5,1,1,48,42,1667462180
109,16,16,Jits_ISO_5,2,5,80,127,1667469620
109,16,16,Jits_ISO_5,3,5,63,98,1667480040
109,16,16,Jits_ISO_5,0,5,63,98,1667929436
109,16,16,Jits_ISO_5,1,1,48,44,1667935252
109,16,16,Jits_ISO_5,2,5,56,103,1667960376
109,16,16,Jits_ISO_5,3,5,80,127,1667979488
109,16,16,Jits_ISO_5,0,1,48,44,1668428916
109,16,16,Jits_ISO_5,1,5,56,103,1668440400
109,16,16,Jits_ISO_5,2,5,80,127,1668449548
109,16,16,Jits_ISO_5,3,5,63,98,1668520268
109,16,16,Jits_ISO_5,0,5,63,98,1668929800
109,16,16,Jits_ISO_5,1,1,48,41,1668954344
109,16,16,Jits_ISO_5,2,5,80,127,1668969732
109,16,16,Jits_ISO_5,3,5,56,103,1669009740
109,16,16,Jits_ISO_5,0,5,56,103,1669439796
109,16,16,Jits_ISO_5,1,1,48,34,1669450512
109,16,16,Jits_ISO_5,2,5,63,98,1669451700
109,16,16,Jits_ISO_5,3,5,80,127,1669469544
109,16,16,Jits_ISO_5,0,1,48,38,1669943700
109,16,16,Jits_ISO_5,1,5,63,98,1669989732
109,16,16,Jits_ISO_5,2,5,80,127,1670010116
109,16,16,Jits_ISO_5,3,5,56,103,1670029824
109,16,16,Jits_ISO_5,0,5,56,103,1670430208
109,16,16,Jits_ISO_5,1,1,48,36,1670454900
109,16,16,Jits_ISO_5,2,5,80,127,1670510072
109,16,16,Jits_ISO_5,3,5,63,98,1670520268
109,16,16,Jits_ISO_5,0,1,48,43,1670962668
109,16,16,Jits_ISO_5,1,5,80,127,1670969588
109,16,16,Jits_ISO_5,2,5,63,98,1670980232
109,16,16,Jits_ISO_5,3,5,56,103,1671009608
109,16,16,Jits_ISO_5,0,5,63,98,1671429548
109,16,16,Jits_ISO_5,1,5,80,127,1671469560
109,16,16,Jits_ISO_5,2,1,48,38,1671484888
109,16,16,Jits_ISO_5,3,5,56,103,1671529792
109,16,16,Jits_ISO_5,0,5,63,98,1671939544
109,16,16,Jits_ISO_5,1,1,48,39,1671969116
109,16,16,Jits_ISO_5,2,5,56,103,1671989664
109,16,16,Jits_ISO_5,3,5,80,127,1672020312
109,16,16,Jits_ISO_5,0,1,48,36,1672445756
109,16,16,Jits_ISO_5,1,5,80,127,1672450360
109,16,16,Jits_ISO_5,2,5,63,98,1672459732
109,16,16,Jits_ISO_5,3,5,56,103,1672530380
109,16,16,Jits_ISO_5,0,1,48,36,1672972168
109,16,16,Jits_ISO_5,1,5,80,127,1673019696
109,16,16,Jits_ISO_5,2,5,56,103,1673030340
109,16,16,Jits_ISO_5,3,5,63,98,1673033404
109,16,16,Jits_ISO_5,0,5,56,103,1673460172
109,16,16,Jits_ISO_5,1,5,80,127,1673479512
109,16,16,Jits_ISO_5,2,5,63,98,1673489704
109,16,16,Jits_ISO_5,3,1,48,35,1673490748
109,16,16,Jits_ISO_5,0,1,48,36,1673948056
109,16,16,Jits_ISO_5,1,5,63,98,1673980368
109,16,16,Jits_ISO_5,2,5,56,103,1674020228
109,16,16,Jits_ISO_5,3,5,80,127,1674040600
109,16,16,Jits_ISO_5,0,1,48,40,1674464188
109,16,16,Jits_ISO_5,1,5,63,98,1674480176
109,16,16,Jits_ISO_5,2,5,56,103,1674540416
109,16,16,Jits_ISO_5,3,5,80,127,1674543408
109,16,16,Jits_ISO_5,0,5,56,103,1674939680
109,16,16,Jits_ISO_5,1,1,48,41,1674960508
109,16,16,Jits_ISO_5,2,5,80,127,1674961772
109,16,16,Jits_ISO_5,3,5,63,98,1675000068
109,16,16,Jits_ISO_5,0,1,48,41,1675465084
109,16,16,Jits_ISO_5,1,5,56,103,1675470360
109,16,16,Jits_ISO_5,2,5,63,98,1675489548
109,16,16,Jits_ISO_5,3,5,80,127,1675500040
109,16,16,Jits_ISO_5,0,5,80,127,1675940108
109,16,16,Jits_ISO_5,1,1,48,44,1675958016
109,16,16,Jits_ISO_5,2,5,56,103,1675970172
109,16,16,Jits_ISO_5,3,5,63,98,1676009960
109,16,16,Jits_ISO_5,0,5,80,127,1676450044
109,16,16,Jits_ISO_5,1,5,56,103,1676469704
109,16,16,Jits_ISO_5,2,1,48,41,1676477460
109,16,16,Jits_ISO_5,3,5,63,98,1676530080
109,16,16,Jits_ISO_5,0,5,56,103,1676960052
109,16,16,Jits_ISO_5,1,5,80,127,1676979612
109,16,16,Jits_ISO_5,2,1,48,41,1676993920
109,16,16,Jits_ISO_5,3,5,63,98,1677040168
109,16,16,Jits_ISO_5,0,5,80,127,1677440248
109,16,16,Jits_ISO_5,1,5,56,103,1677449692
109,16,16,Jits_ISO_5,2,5,63,98,1677489480
109,16,16,Jits_ISO_5,3,1,48,35,1677506848
109,16,16,Jits_ISO_5,0,5,63,98,1677940060
109,16,16,Jits_ISO_5,1,1,48,40,1677971652
109,16,16,Jits_ISO_5,2,5,56,103,1677980212
109,16,16,Jits_ISO_5,3,5,80,127,1677983204
109,16,16,Jits_ISO_5,0,5,63,98,1678460232
109,16,16,Jits_ISO_5,1,1,48,44,1678466788
109,16,16,Jits_ISO_5,2,5,80,127,1678500164
109,16,16,Jits_ISO_5,3,5,56,103,1678529936
109,16,16,Jits_ISO_5,0,5,56,103,1678949628
109,16,16,Jits_ISO_5,1,5,63,98,1678960192
109,16,16,Jits_ISO_5,2,1,48,48,1678963312
109,16,16,Jits_ISO_5,3,5,80,127,1678989712
109,16,16,Jits_ISO_5,0,5,80,127,1679440304
109,16,16,Jits_ISO_5,1,1,48,43,1679494884
109,16,16,Jits_ISO_5,2,5,63,98,1679509828
109,16,16,Jits_ISO_5,3,5,56,103,1679520020
109,16,16,Jits_ISO_5,0,5,63,98,1679940048
109,16,16,Jits_ISO_5,1,5,56,103,1680009580
109,16,16,Jits_ISO_5,2,1,48,41,1680010992
109,16,16,Jits_ISO_5,3,5,80,127,1680019992
109,16,16,Jits_ISO_5,0,5,63,98,1680439632
109,16,16,Jits_ISO_5,1,5,56,103,1680460092
109,16,16,Jits_ISO_5,2,5,80,127,1680500176
109,16,16,Jits_ISO_5,3,1,48,44,1680508996
109,16,16,Jits_ISO_5,0,5,56,103,1680949624
109,16,16,Jits_ISO_5,1,5,63,98,1680959968
109,16,16,Jits_ISO_5,2,1,48,35,1680996492
109,16,16,Jits_ISO_5,3,5,80,127,1681039676
109,16,16,Jits_ISO_5,0,5,63,98,1681450336
109,16,16,Jits_ISO_5,1,5,56,103,1681480236
109,16,16,Jits_ISO_5,2,5,80,127,1681520096
109,16,16,Jits_ISO_5,3,1,48,41,1681523892
109,16,16,Jits_ISO_5,0,5,56,103,1681949992
109,16,16,Jits_ISO_5,1,5,63,98,1681990224
109,16,16,Jits_ISO_5,2,1,48,41,1681994540
109,16,16,Jits_ISO_5,3,5,80,127,1682030004
109,16,16,Jits_ISO_5,0,5,80,127,1682449736
109,16,16,Jits_ISO_5,1,1,48,40,1682504392
109,16,16,Jits_ISO_5,2,5,56,103,1682529600
109,16,16,Jits_ISO_5,3,5,63,98,1682540092
109,16,16,Jits_ISO_5,0,5,56,103,1682989488
109,16,16,Jits_ISO_5,1,5,63,98,1682992408
109,16,16,Jits_ISO_5,2,1,48,43,1682995824
109,16,16,Jits_ISO_5,3,5,80,127,1682999604
109,16,16,Jits_ISO_5,0,1,48,43,1683489644
109,16,16,Jits_ISO_5,1,5,56,103,1683509600
109,16,16,Jits_ISO_5,2,5,63,98,1683530056
109,16,16,Jits_ISO_5,3,5,80,127,1683540476
109,16,16,Jits_ISO_5,0,5,63,98,1683970452
109,16,16,Jits_ISO_5,1,5,80,127,1683979600
109,16,16,Jits_ISO_5,2,1,48,48,1683988572
109,16,16,Jits_ISO_5,3,5,56,103,1684000200
109,16,16,Jits_ISO_5,0,5,63,98,1684470256
109,16,16,Jits_ISO_5,1,1,48,34,1684493076
109,16,16,Jits_ISO_5,2,5,56,103,1684550188
109,16,16,Jits_ISO_5,3,5,80,127,1684553256
109,16,16,Jits_ISO_5,0,5,63,98,1684969984
109,16,16,Jits_ISO_5,1,5,56,103,1684990292
109,16,16,Jits_ISO_5,2,5,80,127,1685020116
109,16,16,Jits_ISO_5,3,1,48,39,1685037008
109,16,16,Jits_ISO_5,0,5,56,103,1685479900
109,16,16,Jits_ISO_5,1,1,48,44,1685498240
109,16,16,Jits_ISO_5,2,5,63,98,1685500204
109,16,16,Jits_ISO_5,3,5,80,127,1685509428
109,16,16,Jits_ISO_5,0,1,48,43,1685993172
109,16,16,Jits_ISO_5,1,5,56,103,1686010356
109,16,16,Jits_ISO_5,2,5,63,98,1686040104
109,16,16,Jits_ISO_5,3,5,80,127,1686043320
109,16,16,Jits_ISO_5,0,5,56,103,1686459968
109,16,16,Jits_ISO_5,1,1,48,40,1686499004
109,16,16,Jits_ISO_5,2,5,63,98,1686500576
109,16,16,Jits_ISO_5,3,5,80,127,1686560212
109,16,16,Jits_ISO_5,0,5,56,103,1686979944
109,16,16,Jits_ISO_5,1,5,63,98,1686990140
109,16,16,Jits_ISO_5,2,1,48,32,1686991108
109,16,16,Jits_ISO_5,3,5,80,127,1687049472
109,16,16,Jits_ISO_5,0,1,48,45,1687478252
109,16,16,Jits_ISO_5,1,5,56,103,1687479984
109,16,16,Jits_ISO_5,2,5,80,127,1687500216
109,16,16,Jits_ISO_5,3,5,63,98,1687529964
109,16,16,Jits_ISO_5,0,1,48,43,1687951944
109,16,16,Jits_ISO_5,1,5,80,127,1687980440
109,16,16,Jits_ISO_5,2,5,56,103,1687989536
109,16,16,Jits_ISO_5,3,5,63,98,1688010144
109,16,16,Jits_ISO_5,0,1,48,48,1688452796
109,16,16,Jits_ISO_5,1,5,63,98,1688469980
109,16,16,Jits_ISO_5,2,5,80,127,1688549724
109,16,16,Jits_ISO_5,3,5,56,103,1688560276
109,16,16,Jits_ISO_5,0,1,48,45,1688943916
109,16,16,Jits_ISO_5,1,5,80,127,1689030124
109,16,16,Jits_ISO_5,2,5,56,103,1689049364
109,16,16,Jits_ISO_5,3,5,63,98,1689052512
109,16,16,Jits_ISO_5,0,1,48,31,1689480288
109,16,16,Jits_ISO_5,1,5,63,98,1689500160
109,16,16,Jits_ISO_5,2,5,80,127,1689503300
109,16,16,Jits_ISO_5,3,5,56,103,1689560496
109,16,16,Jits_ISO_5,0,5,56,103,1689980412
109,16,16,Jits_ISO_5,1,1,48,40,1689989108
109,16,16,Jits_ISO_5,2,5,80,127,1689990676
109,16,16,Jits_ISO_5,3,5,63,98,1690029340
109,16,16,Jits_ISO_5,0,5,56,103,1690459480
109,16,16,Jits_ISO_5,1,1,48,36,1690498788
109,16,16,Jits_ISO_5,2,5,63,98,1690519864
109,16,16,Jits_ISO_5,3,5,80,127,1690530284
109,16,16,Jits_ISO_5,0,5,63,98,1690969416
109,16,16,Jits_ISO_5,1,1,48,41,1690983920
109,16,16,Jits_ISO_5,2,5,80,127,1691010396
109,16,16,Jits_ISO_5,3,5,56,103,1691050328
109,16,16,Jits_ISO_5,0,5,56,103,1691470196
109,16,16,Jits_ISO_5,1,1,48,34,1691483352
109,16,16,Jits_ISO_5,2,5,63,98,1691550204
109,16,16,Jits_ISO_5,3,5,80,127,1691553416
109,16,16,Jits_ISO_5,0,9999,9999,9999,1632177248
109,16,16,Jits_ISO_5,1,9999,9999,9999,1632678008
109,16,16,Jits_ISO_5,2,9999,9999,9999,1633177672
109,16,16,Jits_ISO_5,3,9999,9999,9999,1633677408
109,16,16,Jits_ISO_5,4,9999,9999,9999,1634177136
109,16,16,Jits_ISO_5,5,9999,9999,9999,1634677852
109,16,16,Jits_ISO_5,6,9999,9999,9999,1635177576
109,16,16,Jits_ISO_5,7,9999,9999,9999,1635677244
109,16,16,Jits_ISO_5,8,9999,9999,9999,1636178028
109,16,16,Jits_ISO_5,9,9999,9999,9999,1636677692
109,16,16,Jits_ISO_5,10,9999,9999,9999,1637177432
109,16,16,Jits_ISO_5,11,9999,9999,9999,1637677168
109,16,16,Jits_ISO_5,12,9999,9999,9999,1638177916
109,16,16,Jits_ISO_5,13,9999,9999,9999,1638677572
109,16,16,Jits_ISO_5,14,9999,9999,9999,1639177308
109,16,16,Jits_ISO_5,15,9999,9999,9999,1639678028
109,16,16,Jits_ISO_5,16,9999,9999,9999,1640177756
109,16,16,Jits_ISO_5,17,9999,9999,9999,1640677488
109,16,16,Jits_ISO_5,18,9999,9999,9999,1641177156
109,16,16,Jits_ISO_5,19,9999,9999,9999,1641677876
109,16,16,Jits_ISO_5,20,9999,9999,9999,1642177624
109,16,16,Jits_ISO_5,21,9999,9999,9999,1642677348
109,16,16,Jits_ISO_5,22,9999,9999,9999,1643178064
109,16,16,Jits_ISO_5,23,9999,9999,9999,1643677808
109,16,16,Jits_ISO_5,24,9999,9999,9999,1644177480
109,16,16,Jits_ISO_5,25,9999,9999,9999,1644677220
109,16,16,Jits_ISO_5,26,9999,9999,9999,1645177944
109,16,16,Jits_ISO_5,27,9999,9999,9999,1645677660
109,16,16,Jits_ISO_5,28,9999,9999,9999,1646177336
109,16,16,Jits_ISO_5,29,9999,9999,9999,1646678124
109,16,16,Jits_ISO_5,30,9999,9999,9999,1647188060
109,16,16,Jits_ISO_5,31,9999,9999,9999,1647687736
109,16,16,Jits_ISO_5,32,9999,9999,9999,1648187480
109,16,16,Jits_ISO_5,33,9999,9999,9999,1648687228
109,16,16,Jits_ISO_5,34,9999,9999,9999,1649187944
109,16,16,Jits_ISO_5,35,9999,9999,9999,1649687616
109,16,16,Jits_ISO_5,36,9999,9999,9999,1650187340
109,16,16,Jits_ISO_5,37,9999,9999,9999,1650688120
109,16,16,Jits_ISO_5,38,9999,9999,9999,1651198056
109,16,16,Jits_ISO_5,39,9999,9999,9999,1651697788
109,16,16,Jits_ISO_5,40,9999,9999,9999,1652197452
109,16,16,Jits_ISO_5,41,9999,9999,9999,1652697192
109,16,16,Jits_ISO_5,42,9999,9999,9999,1653197912
109,16,16,Jits_ISO_5,43,9999,9999,9999,1653697616
109,16,16,Jits_ISO_5,44,9999,9999,9999,1654197320
109,16,16,Jits_ISO_5,45,9999,9999,9999,1654698036
109,16,16,Jits_ISO_5,46,9999,9999,9999,1655197768
109,16,16,Jits_ISO_5,47,9999,9999,9999,1655697508
109,16,16,Jits_ISO_5,48,9999,9999,9999,1656197244
109,16,16,Jits_ISO_5,49,9999,9999,9999,1656697944
109,16,16,Jits_ISO_5,50,9999,9999,9999,1657197668
109,16,16,Jits_ISO_5,51,9999,9999,9999,1657697340
109,16,16,Jits_ISO_5,52,9999,9999,9999,1658198136
109,16,16,Jits_ISO_5,53,9999,9999,9999,1658708076
109,16,16,Jits_ISO_5,54,9999,9999,9999,1659207736
109,16,16,Jits_ISO_5,55,9999,9999,9999,1659707484
109,16,16,Jits_ISO_5,56,9999,9999,9999,1660207228
109,16,16,Jits_ISO_5,57,9999,9999,9999,1660707940
109,16,16,Jits_ISO_5,58,9999,9999,9999,1661207616
109,16,16,Jits_ISO_5,59,9999,9999,9999,1661707332
109,16,16,Jits_ISO_5,60,9999,9999,9999,1662208056
109,16,16,Jits_ISO_5,61,9999,9999,9999,1662718052
109,16,16,Jits_ISO_5,62,9999,9999,9999,1663217724
109,16,16,Jits_ISO_5,63,9999,9999,9999,1663717456
109,16,16,Jits_ISO_5,64,9999,9999,9999,1664217192
109,16,16,Jits_ISO_5,65,9999,9999,9999,1664717908
109,16,16,Jits_ISO_5,66,9999,9999,9999,1665217648
109,16,16,Jits_ISO_5,67,9999,9999,9999,1665717364
109,16,16,Jits_ISO_5,68,9999,9999,9999,1666218048
109,16,16,Jits_ISO_5,69,9999,9999,9999,1666717780
109,16,16,Jits_ISO_5,70,9999,9999,9999,1667217504
109,16,16,Jits_ISO_5,71,9999,9999,9999,1667717176
109,16,16,Jits_ISO_5,72,9999,9999,9999,1668217972
109,16,16,Jits_ISO_5,73,9999,9999,9999,1668717632
109,16,16,Jits_ISO_5,74,9999,9999,9999,1669217364
109,16,16,Jits_ISO_5,75,9999,9999,9999,1669718140
109,16,16,Jits_ISO_5,76,9999,9999,9999,1670228080
109,16,16,Jits_ISO_5,77,9999,9999,9999,1670727744
109,16,16,Jits_ISO_5,78,9999,9999,9999,1671227492
109,16,16,Jits_ISO_5,79,9999,9999,9999,1671727228
109,16,16,Jits_ISO_5,80,9999,9999,9999,1672227932
109,16,16,Jits_ISO_5,81,9999,9999,9999,1672727668
109,16,16,Jits_ISO_5,82,9999,9999,9999,1673227328
109,16,16,Jits_ISO_5,83,9999,9999,9999,1673728108
109,16,16,Jits_ISO_5,84,9999,9999,9999,1674238048
109,16,16,Jits_ISO_5,85,9999,9999,9999,1674737776
109,16,16,Jits_ISO_5,86,9999,9999,9999,1675237428
109,16,16,Jits_ISO_5,87,9999,9999,9999,1675737180
109,16,16,Jits_ISO_5,88,9999,9999,9999,1676237884
109,16,16,Jits_ISO_5,89,9999,9999,9999,1676737628
109,16,16,Jits_ISO_5,90,9999,9999,9999,1677237304
109,16,16,Jits_ISO_5,91,9999,9999,9999,1677738068
109,16,16,Jits_ISO_5,92,9999,9999,9999,1678237800
109,16,16,Jits_ISO_5,93,9999,9999,9999,1678737460
109,16,16,Jits_ISO_5,94,9999,9999,9999,1679237184
109,16,16,Jits_ISO_5,95,9999,9999,9999,1679737980
109,16,16,Jits_ISO_5,96,9999,9999,9999,1680237652
109,16,16,Jits_ISO_5,97,9999,9999,9999,1680737380
109,16,16,Jits_ISO_5,98,9999,9999,9999,1681238080
109,16,16,Jits_ISO_5,99,9999,9999,9999,1681748088
109,16,16,Jits_ISO_5,100,9999,9999,9999,1682247740
109,16,16,Jits_ISO_5,101,9999,9999,9999,1682747488
109,16,16,Jits_ISO_5,102,9999,9999,9999,1683247228
109,16,16,Jits_ISO_5,103,9999,9999,9999,1683747948
109,16,16,Jits_ISO_5,104,9999,9999,9999,1684247676
109,16,16,Jits_ISO_5,105,9999,9999,9999,1684747328
109,16,16,Jits_ISO_5,106,9999,9999,9999,1685248104
109,16,16,Jits_ISO_5,107,9999,9999,9999,1685758024
109,16,16,Jits_ISO_5,108,9999,9999,9999,1686257764
109,16,16,Jits_ISO_5,109,9999,9999,9999,1686757496
109,16,16,Jits_ISO_5,110,9999,9999,9999,1687257172
109,16,16,Jits_ISO_5,111,9999,9999,9999,1687757888
109,16,16,Jits_ISO_5,112,9999,9999,9999,1688257620
109,16,16,Jits_ISO_5,113,9999,9999,9999,1688757356
109,16,16,Jits_ISO_5,114,9999,9999,9999,1689258104
109,16,16,Jits_ISO_5,115,9999,9999,9999,1689757756
109,16,16,Jits_ISO_5,116,9999,9999,9999,1690257488
109,16,16,Jits_ISO_5,117,9999,9999,9999,1690757232
109,16,16,Jits_ISO_5,118,9999,9999,9999,1691257952
109,16,16,Jits_ISO_5,119,9999,9999,9999,1691757676
109,17,7,Jits_ISO_8,0,5,56,103,1700784604
109,17,7,Jits_ISO_8,1,5,63,98,1700787876
109,17,7,Jits_ISO_8,2,5,80,127,1700790924
109,17,7,Jits_ISO_8,0,5,56,103,1701585452
109,17,7,Jits_ISO_8,1,5,63,98,1701588400
109,17,7,Jits_ISO_8,2,5,80,127,1701591672
109,17,7,Jits_ISO_8,0,5,80,127,1702324780
109,17,7,Jits_ISO_8,1,5,63,98,1702414692
109,17,7,Jits_ISO_8,2,5,56,103,1702424816
109,17,7,Jits_ISO_8,0,5,56,103,1703144880
109,17,7,Jits_ISO_8,1,5,63,98,1703155152
109,17,7,Jits_ISO_8,2,5,80,127,1703245060
109,17,7,Jits_ISO_8,0,5,63,98,1703914852
109,17,7,Jits_ISO_8,1,5,80,127,1703944680
109,17,7,Jits_ISO_8,2,5,56,103,1703975252
109,17,7,Jits_ISO_8,0,5,56,103,1704714780
109,17,7,Jits_ISO_8,1,5,80,127,1704815028
109,17,7,Jits_ISO_8,2,5,63,98,1704865008
109,17,7,Jits_ISO_8,0,5,56,103,1705515544
109,17,7,Jits_ISO_8,1,5,80,127,1705564628
109,17,7,Jits_ISO_8,2,5,63,98,1705604492
109,17,7,Jits_ISO_8,0,5,80,127,1706344780
109,17,7,Jits_ISO_8,1,5,63,98,1706374532
109,17,7,Jits_ISO_8,2,5,56,103,1706445136
109,17,7,Jits_ISO_8,0,5,63,98,1707175292
109,17,7,Jits_ISO_8,1,5,56,103,1707204996
109,17,7,Jits_ISO_8,2,1,48,45,1707206628
109,17,7,Jits_ISO_8,3,5,80,127,1707265528
109,17,7,Jits_ISO_8,0,5,56,103,1707914692
109,17,7,Jits_ISO_8,1,5,80,127,1707917760
109,17,7,Jits_ISO_8,2,1,48,41,1707962872
109,17,7,Jits_ISO_8,3,5,63,98,1708034660
109,17,7,Jits_ISO_8,0,1,48,44,1708771332
109,17,7,Jits_ISO_8,1,5,56,103,1708795192
109,17,7,Jits_ISO_8,2,5,80,127,1708835280
109,17,7,Jits_ISO_8,3,5,63,98,1708845548
109,17,7,Jits_ISO_8,0,5,56,103,1709555128
109,17,7,Jits_ISO_8,1,5,80,127,1709574464
109,17,7,Jits_ISO_8,2,1,48,43,1709613476
109,17,7,Jits_ISO_8,3,5,63,98,1709655524
109,17,7,Jits_ISO_8,0,5,80,127,1710344736
109,17,7,Jits_ISO_8,1,1,48,37,1710432976
109,17,7,Jits_ISO_8,2,5,56,103,1710444836
109,17,7,Jits_ISO_8,3,5,63,98,1710455032
109,17,7,Jits_ISO_8,0,5,63,98,1711114572
109,17,7,Jits_ISO_8,1,5,80,127,1711174964
109,17,7,Jits_ISO_8,2,5,56,103,1711185160
109,17,7,Jits_ISO_8,3,1,48,38,1711247760
109,17,7,Jits_ISO_8,0,5,56,103,1711915544
109,17,7,Jits_ISO_8,1,5,63,98,1711985080
109,17,7,Jits_ISO_8,2,5,80,127,1711988368
109,17,7,Jits_ISO_8,3,1,48,33,1712002964
109,17,7,Jits_ISO_8,0,5,63,98,1712744928
109,17,7,Jits_ISO_8,1,1,48,42,1712779132
109,17,7,Jits_ISO_8,2,5,56,103,1712795048
109,17,7,Jits_ISO_8,3,5,80,127,1712798040
109,17,7,Jits_ISO_8,0,5,56,103,1713504536
109,17,7,Jits_ISO_8,1,5,80,127,1713507684
109,17,7,Jits_ISO_8,2,1,48,40,1713593868
109,17,7,Jits_ISO_8,3,5,63,98,1713595516
109,17,7,Jits_ISO_8,0,5,63,98,1714345452
109,17,7,Jits_ISO_8,1,1,48,34,1714353972
109,17,7,Jits_ISO_8,2,5,56,103,1714434488
109,17,7,Jits_ISO_8,3,5,80,127,1714465120
109,17,7,Jits_ISO_8,0,5,56,103,1715134704
109,17,7,Jits_ISO_8,1,1,48,37,1715210940
109,17,7,Jits_ISO_8,2,5,63,98,1715235172
109,17,7,Jits_ISO_8,3,5,80,127,1715264848
109,17,7,Jits_ISO_8,0,5,63,98,1715955188
109,17,7,Jits_ISO_8,1,5,56,103,1715965456
109,17,7,Jits_ISO_8,2,1,48,32,1716048216
109,17,7,Jits_ISO_8,3,5,80,127,1716055508
109,17,7,Jits_ISO_8,0,5,63,98,1716775428
109,17,7,Jits_ISO_8,1,1,48,43,1716800872
109,17,7,Jits_ISO_8,2,5,56,103,1716855140
109,17,7,Jits_ISO_8,3,5,80,127,1716858284
109,17,7,Jits_ISO_8,0,5,80,127,1717534976
109,17,7,Jits_ISO_8,1,5,63,98,1717554540
109,17,7,Jits_ISO_8,2,1,48,38,1717612956
109,17,7,Jits_ISO_8,3,5,56,103,1717614920
109,17,7,Jits_ISO_8,0,5,56,103,1718374708
109,17,7,Jits_ISO_8,1,1,48,35,1718393712
109,17,7,Jits_ISO_8,2,5,63,98,1718395452
109,17,7,Jits_ISO_8,3,5,80,127,1718398596
109,17,7,Jits_ISO_8,0,5,63,98,1719115080
109,17,7,Jits_ISO_8,1,1,48,45,1719162244
109,17,7,Jits_ISO_8,2,5,80,127,1719195092
109,17,7,Jits_ISO_8,3,5,56,103,1719205660
109,17,7,Jits_ISO_8,0,5,63,98,1719935392
109,17,7,Jits_ISO_8,1,1,48,40,1719940232
109,17,7,Jits_ISO_8,2,5,56,103,1719954948
109,17,7,Jits_ISO_8,3,5,80,127,1720004876
109,17,7,Jits_ISO_8,0,5,80,127,1720735248
109,17,7,Jits_ISO_8,1,1,48,38,1720745788
109,17,7,Jits_ISO_8,2,5,63,98,1720774980
109,17,7,Jits_ISO_8,3,5,56,103,1720794468
109,17,7,Jits_ISO_8,0,1,48,44,1721490420
109,17,7,Jits_ISO_8,1,5,56,103,1721574696
109,17,7,Jits_ISO_8,2,5,63,98,1721585924
109,17,7,Jits_ISO_8,3,5,80,127,1721604588
109,17,7,Jits_ISO_8,0,5,56,103,1722304808
109,17,7,Jits_ISO_8,1,1,48,38,1722331296
109,17,7,Jits_ISO_8,2,5,63,98,1722394936
109,17,7,Jits_ISO_8,3,5,80,127,1722455536
109,17,7,Jits_ISO_8,0,1,48,40,1723113940
109,17,7,Jits_ISO_8,1,5,80,127,1723135464
109,17,7,Jits_ISO_8,2,5,56,103,1723144616
109,17,7,Jits_ISO_8,3,5,63,98,1723215476
109,17,7,Jits_ISO_8,0,5,63,98,1723964776
109,17,7,Jits_ISO_8,1,1,48,38,1723973072
109,17,7,Jits_ISO_8,2,5,80,127,1724054832
109,17,7,Jits_ISO_8,3,5,56,103,1724065248
109,17,7,Jits_ISO_8,0,5,63,98,1724705372
109,17,7,Jits_ISO_8,1,5,80,127,1724755352
109,17,7,Jits_ISO_8,2,5,56,103,1724814696
109,17,7,Jits_ISO_8,3,1,48,38,1724860764
109,17,7,Jits_ISO_8,0,5,56,103,1725534452
109,17,7,Jits_ISO_8,1,1,48,36,1725569332
109,17,7,Jits_ISO_8,2,5,80,127,1725584796
109,17,7,Jits_ISO_8,3,5,63,98,1725605328
109,17,7,Jits_ISO_8,0,5,56,103,1726304648
109,17,7,Jits_ISO_8,1,5,80,127,1726365268
109,17,7,Jits_ISO_8,2,1,48,39,1726406468
109,17,7,Jits_ISO_8,3,5,63,98,1726434592
109,17,7,Jits_ISO_8,0,5,56,103,1727105420
109,17,7,Jits_ISO_8,1,5,80,127,1727135244
109,17,7,Jits_ISO_8,2,1,48,40,1727151916
109,17,7,Jits_ISO_8,3,5,63,98,1727164788
109,17,7,Jits_ISO_8,0,1,48,40,1727933080
109,17,7,Jits_ISO_8,1,5,56,103,1727945164
109,17,7,Jits_ISO_8,2,5,80,127,1727964500
109,17,7,Jits_ISO_8,3,5,63,98,1728025040
109,17,7,Jits_ISO_8,0,1,48,38,1728709400
109,17,7,Jits_ISO_8,1,5,80,127,1728824576
109,17,7,Jits_ISO_8,2,5,56,103,1728835296
109,17,7,Jits_ISO_8,3,5,63,98,1728845416
109,17,7,Jits_ISO_8,0,1,48,38,1729507920
109,17,7,Jits_ISO_8,1,5,56,103,1729584448
109,17,7,Jits_ISO_8,2,5,80,127,1729624524
109,17,7,Jits_ISO_8,3,5,63,98,1729655320
109,17,7,Jits_ISO_8,0,1,48,21,1730308388
109,17,7,Jits_ISO_8,1,5,56,103,1730354492
109,17,7,Jits_ISO_8,2,5,63,98,1730385216
109,17,7,Jits_ISO_8,3,5,80,127,1730425212
109,17,7,Jits_ISO_8,0,5,80,127,1731105132
109,17,7,Jits_ISO_8,1,1,48,38,1731118512
109,17,7,Jits_ISO_8,2,5,63,98,1731155328
109,17,7,Jits_ISO_8,3,5,56,103,1731174740
109,17,7,Jits_ISO_8,0,1,48,45,1731872904
109,17,7,Jits_ISO_8,1,5,56,103,1731934512
109,17,7,Jits_ISO_8,2,5,80,127,1732005228
109,17,7,Jits_ISO_8,3,5,63,98,1732064672
109,17,7,Jits_ISO_8,0,1,48,46,1732710136
109,17,7,Jits_ISO_8,1,5,80,127,1732735196
109,17,7,Jits_ISO_8,2,5,63,98,1732824444
109,17,7,Jits_ISO_8,3,5,56,103,1732845124
109,17,7,Jits_ISO_8,0,1,48,49,1733512860
109,17,7,Jits_ISO_8,1,5,63,98,1733554488
109,17,7,Jits_ISO_8,2,5,56,103,1733575172
109,17,7,Jits_ISO_8,3,5,80,127,1733615096
109,17,7,Jits_ISO_8,0,1,48,41,1734303572
109,17,7,Jits_ISO_8,1,5,80,127,1734315360
109,17,7,Jits_ISO_8,2,5,63,98,1734334720
109,17,7,Jits_ISO_8,3,5,56,103,1734414648
109,17,7,Jits_ISO_8,0,1,48,41,1735063576
109,17,7,Jits_ISO_8,1,5,63,98,1735104824
109,17,7,Jits_ISO_8,2,5,56,103,1735214428
109,17,7,Jits_ISO_8,3,5,80,127,1735217792
109,17,7,Jits_ISO_8,0,1,48,44,1735918956
109,17,7,Jits_ISO_8,1,5,63,98,1735925056
109,17,7,Jits_ISO_8,2,5,56,103,1735935244
109,17,7,Jits_ISO_8,3,5,80,127,1735938392
109,17,7,Jits_ISO_8,0,1,48,38,1736702236
109,17,7,Jits_ISO_8,1,5,56,103,1736705340
109,17,7,Jits_ISO_8,2,5,80,127,1736825204
109,17,7,Jits_ISO_8,3,5,63,98,1736864996
109,17,7,Jits_ISO_8,0,5,56,103,1737524544
109,17,7,Jits_ISO_8,1,1,48,40,1737547144
109,17,7,Jits_ISO_8,2,5,80,127,1737604484
109,17,7,Jits_ISO_8,3,5,63,98,1737625016
109,17,7,Jits_ISO_8,0,5,56,103,1738325240
109,17,7,Jits_ISO_8,1,1,48,43,1738417136
109,17,7,Jits_ISO_8,2,5,63,98,1738434924
109,17,7,Jits_ISO_8,3,5,80,127,1738438436
109,17,7,Jits_ISO_8,0,5,56,103,1739154976
109,17,7,Jits_ISO_8,1,5,80,127,1739184504
109,17,7,Jits_ISO_8,2,5,63,98,1739205060
109,17,7,Jits_ISO_8,3,1,48,38,1739275976
109,17,7,Jits_ISO_8,0,5,63,98,1739935068
109,17,7,Jits_ISO_8,1,5,56,103,1739945264
109,17,7,Jits_ISO_8,2,5,80,127,1739954440
109,17,7,Jits_ISO_8,3,1,48,40,1740043640
109,17,7,Jits_ISO_8,0,5,80,127,1740724536
109,17,7,Jits_ISO_8,1,5,56,103,1740774740
109,17,7,Jits_ISO_8,2,5,63,98,1740814900
109,17,7,Jits_ISO_8,3,1,48,35,1740843720
109,17,7,Jits_ISO_8,0,5,80,127,1741545008
109,17,7,Jits_ISO_8,1,5,63,98,1741565244
109,17,7,Jits_ISO_8,2,1,48,39,1741574292
109,17,7,Jits_ISO_8,3,5,56,103,1741614392
109,17,7,Jits_ISO_8,0,5,80,127,1742355068
109,17,7,Jits_ISO_8,1,5,56,103,1742384444
109,17,7,Jits_ISO_8,2,1,48,32,1742448244
109,17,7,Jits_ISO_8,3,5,63,98,1742455092
109,17,7,Jits_ISO_8,0,5,56,103,1743204844
109,17,7,Jits_ISO_8,1,5,80,127,1743214892
109,17,7,Jits_ISO_8,2,1,48,42,1743221152
109,17,7,Jits_ISO_8,3,5,63,98,1743254972
109,17,7,Jits_ISO_8,0,5,56,103,1743915264
109,17,7,Jits_ISO_8,1,5,63,98,1743934976
109,17,7,Jits_ISO_8,2,5,80,127,1744004432
109,17,7,Jits_ISO_8,3,1,48,44,1744071772
109,17,7,Jits_ISO_8,0,5,63,98,1744734464
109,17,7,Jits_ISO_8,1,1,48,33,1744778412
109,17,7,Jits_ISO_8,2,5,80,127,1744795072
109,17,7,Jits_ISO_8,3,5,56,103,1744814336
109,17,7,Jits_ISO_8,0,5,80,127,1745525180
109,17,7,Jits_ISO_8,1,5,56,103,1745555004
109,17,7,Jits_ISO_8,2,5,63,98,1745584528
109,17,7,Jits_ISO_8,3,1,48,41,1745610664
109,17,7,Jits_ISO_8,0,5,56,103,1746324820
109,17,7,Jits_ISO_8,1,5,63,98,1746385388
109,17,7,Jits_ISO_8,2,1,48,39,1746388212
109,17,7,Jits_ISO_8,3,5,80,127,1746444800
109,17,7,Jits_ISO_8,0,5,80,127,1747145172
109,17,7,Jits_ISO_8,1,5,56,103,1747164436
109,17,7,Jits_ISO_8,2,1,48,35,1747207708
109,17,7,Jits_ISO_8,3,5,63,98,1747235304
109,17,7,Jits_ISO_8,0,5,80,127,1747944900
109,17,7,Jits_ISO_8,1,5,63,98,1747965208
109,17,7,Jits_ISO_8,2,5,56,103,1747995108
109,17,7,Jits_ISO_8,3,1,48,42,1748011556
109,17,7,Jits_ISO_8,0,5,80,127,1748735476
109,17,7,Jits_ISO_8,1,5,63,98,1748754892
109,17,7,Jits_ISO_8,2,1,48,42,1748791420
109,17,7,Jits_ISO_8,3,5,56,103,1748815348
109,17,7,Jits_ISO_8,0,5,80,127,1749535052
109,17,7,Jits_ISO_8,1,1,48,45,1749600728
109,17,7,Jits_ISO_8,2,5,56,103,1749634400
109,17,7,Jits_ISO_8,3,5,63,98,1749665120
109,17,7,Jits_ISO_8,0,5,63,98,1750324740
109,17,7,Jits_ISO_8,1,5,80,127,1750374944
109,17,7,Jits_ISO_8,2,5,56,103,1750395252
109,17,7,Jits_ISO_8,3,1,48,44,1750422484
109,17,7,Jits_ISO_8,0,5,80,127,1751165204
109,17,7,Jits_ISO_8,1,1,48,42,1751166172
109,17,7,Jits_ISO_8,2,5,56,103,1751195020
109,17,7,Jits_ISO_8,3,5,63,98,1751198016
109,17,7,Jits_ISO_8,0,1,48,44,1751992720
109,17,7,Jits_ISO_8,1,5,63,98,1751994908
109,17,7,Jits_ISO_8,2,5,56,103,1752034776
109,17,7,Jits_ISO_8,3,5,80,127,1752055012
109,17,7,Jits_ISO_8,0,5,80,127,1752735044
109,17,7,Jits_ISO_8,1,1,48,47,1752785764
109,17,7,Jits_ISO_8,2,5,63,98,1752815084
109,17,7,Jits_ISO_8,3,5,56,103,1752855020
109,17,7,Jits_ISO_8,0,5,63,98,1753555248
109,17,7,Jits_ISO_8,1,1,48,49,1753572068
109,17,7,Jits_ISO_8,2,5,80,127,1753635112
109,17,7,Jits_ISO_8,3,5,56,103,1753654748
109,17,7,Jits_ISO_8,0,1,48,49,1754355828
109,17,7,Jits_ISO_8,1,5,56,103,1754395040
109,17,7,Jits_ISO_8,2,5,63,98,1754405308
109,17,7,Jits_ISO_8,3,5,80,127,1754445100
109,17,7,Jits_ISO_8,0,1,48,47,1755105192
109,17,7,Jits_ISO_8,1,5,56,103,1755114884
109,17,7,Jits_ISO_8,2,5,80,127,1755117948
109,17,7,Jits_ISO_8,3,5,63,98,1755255120
109,17,7,Jits_ISO_8,0,5,56,103,1755905372
109,17,7,Jits_ISO_8,1,1,48,42,1755947528
109,17,7,Jits_ISO_8,2,5,63,98,1755994828
109,17,7,Jits_ISO_8,3,5,80,127,1756065020
109,17,7,Jits_ISO_8,0,1,48,44,1756744700
109,17,7,Jits_ISO_8,1,5,63,98,1756784960
109,17,7,Jits_ISO_8,2,5,80,127,1756788324
109,17,7,Jits_ISO_8,3,5,56,103,1756845336
109,17,7,Jits_ISO_8,0,1,48,47,1757595880
109,17,7,Jits_ISO_8,1,5,80,127,1757624848
109,17,7,Jits_ISO_8,2,5,56,103,1757645084
109,17,7,Jits_ISO_8,3,5,63,98,1757655356
109,17,7,Jits_ISO_8,0,5,56,103,1758335312
109,17,7,Jits_ISO_8,1,5,63,98,1758344684
109,17,7,Jits_ISO_8,2,1,48,42,1758401912
109,17,7,Jits_ISO_8,3,5,80,127,1758415280
109,17,7,Jits_ISO_8,0,1,48,41,1759118140
109,17,7,Jits_ISO_8,1,5,80,127,1759134956
109,17,7,Jits_ISO_8,2,5,56,103,1759185480
109,17,7,Jits_ISO_8,3,5,63,98,1759234548
109,17,7,Jits_ISO_8,0,1,48,43,1759965312
109,17,7,Jits_ISO_8,1,5,56,103,1760014860
109,17,7,Jits_ISO_8,2,5,63,98,1760024832
109,17,7,Jits_ISO_8,3,5,80,127,1760064828
109,17,7,Jits_ISO_8,0,5,56,103,1760754944
109,17,7,Jits_ISO_8,1,1,48,44,1760774328
109,17,7,Jits_ISO_8,2,5,63,98,1760794876
109,17,7,Jits_ISO_8,3,5,80,127,1760845228
109,17,7,Jits_ISO_8,0,5,80,127,1761514884
109,17,7,Jits_ISO_8,1,5,56,103,1761565016
109,17,7,Jits_ISO_8,2,5,63,98,1761584648
109,17,7,Jits_ISO_8,3,1,48,46,1761609488
109,17,7,Jits_ISO_8,0,1,48,45,1762315916
109,17,7,Jits_ISO_8,1,5,80,127,1762324860
109,17,7,Jits_ISO_8,2,5,63,98,1762385252
109,17,7,Jits_ISO_8,3,5,56,103,1762465184
109,17,7,Jits_ISO_8,0,5,80,127,1763105096
109,17,7,Jits_ISO_8,1,1,48,43,1763120872
109,17,7,Jits_ISO_8,2,5,56,103,1763145180
109,17,7,Jits_ISO_8,3,5,63,98,1763164516
109,17,7,Jits_ISO_8,0,5,56,103,1763955012
109,17,7,Jits_ISO_8,1,1,48,40,1763962616
109,17,7,Jits_ISO_8,2,5,80,127,1763965276
109,17,7,Jits_ISO_8,3,5,63,98,1764005288
109,17,7,Jits_ISO_8,0,1,48,45,1764752444
109,17,7,Jits_ISO_8,1,5,56,103,1764824652
109,17,7,Jits_ISO_8,2,5,63,98,1764865324
109,17,7,Jits_ISO_8,3,5,80,127,1764868912
109,17,7,Jits_ISO_8,0,5,63,98,1765514804
109,17,7,Jits_ISO_8,1,5,80,127,1765554624
109,17,7,Jits_ISO_8,2,1,48,43,1765565836
109,17,7,Jits_ISO_8,3,5,56,103,1765625344
109,17,7,Jits_ISO_8,0,5,63,98,1766305072
109,17,7,Jits_ISO_8,1,1,48,45,1766351364
109,17,7,Jits_ISO_8,2,5,56,103,1766385040
109,17,7,Jits_ISO_8,3,5,80,127,1766445340
109,17,7,Jits_ISO_8,0,5,80,127,1767115220
109,17,7,Jits_ISO_8,1,1,48,40,1767126284
109,17,7,Jits_ISO_8,2,5,63,98,1767165640
109,17,7,Jits_ISO_8,3,5,56,103,1767195020
109,17,7,Jits_ISO_8,0,5,56,103,1767904604
109,17,7,Jits_ISO_8,1,1,48,42,1767945784
109,17,7,Jits_ISO_8,2,5,63,98,1767954724
109,17,7,Jits_ISO_8,3,5,80,127,1767965072
109,17,7,Jits_ISO_8,0,1,48,38,1768713144
109,17,7,Jits_ISO_8,1,5,56,103,1768714724
109,17,7,Jits_ISO_8,2,5,63,98,1768825300
109,17,7,Jits_ISO_8,3,5,80,127,1768844640
109,17,7,Jits_ISO_8,0,5,63,98,1769515492
109,17,7,Jits_ISO_8,1,1,48,41,1769531496
109,17,7,Jits_ISO_8,2,5,80,127,1769564644
109,17,7,Jits_ISO_8,3,5,56,103,1769654636
109,17,7,Jits_ISO_8,0,5,63,98,1770304860
109,17,7,Jits_ISO_8,1,5,80,127,1770334612
109,17,7,Jits_ISO_8,2,1,48,43,1770348144
109,17,7,Jits_ISO_8,3,5,56,103,1770424540
109,17,7,Jits_ISO_8,0,5,63,98,1771104564
109,17,7,Jits_ISO_8,1,5,56,103,1771114836
109,17,7,Jits_ISO_8,2,1,48,38,1771173928
109,17,7,Jits_ISO_8,3,5,80,127,1771215100
109,17,7,Jits_ISO_8,0,1,48,32,1771994476
109,17,7,Jits_ISO_8,1,5,63,98,1772004612
109,17,7,Jits_ISO_8,2,5,80,127,1772034660
109,17,7,Jits_ISO_8,3,5,56,103,1772065160
109,17,7,Jits_ISO_8,0,1,48,42,1772815544
109,17,7,Jits_ISO_8,1,5,80,127,1772824856
109,17,7,Jits_ISO_8,2,5,63,98,1772835276
109,17,7,Jits_ISO_8,3,5,56,103,1772864952
109,17,7,Jits_ISO_8,0,5,80,127,1773525452
109,17,7,Jits_ISO_8,1,5,63,98,1773544868
109,17,7,Jits_ISO_8,2,5,56,103,1773594992
109,17,7,Jits_ISO_8,3,1,48,43,1773639236
109,17,7,Jits_ISO_8,0,1,48,44,1774351956
109,17,7,Jits_ISO_8,1,5,63,98,1774354688
109,17,7,Jits_ISO_8,2,5,80,127,1774415156
109,17,7,Jits_ISO_8,3,5,56,103,1774434720
109,17,7,Jits_ISO_8,0,5,63,98,1775114476
109,17,7,Jits_ISO_8,1,1,48,46,1775141636
109,17,7,Jits_ISO_8,2,5,56,103,1775164896
109,17,7,Jits_ISO_8,3,5,80,127,1775175020
109,17,7,Jits_ISO_8,0,5,56,103,1775945124
109,17,7,Jits_ISO_8,1,1,48,41,1775946088
109,17,7,Jits_ISO_8,2,5,80,127,1775955388
109,17,7,Jits_ISO_8,3,5,63,98,1776054524
109,17,7,Jits_ISO_8,0,5,80,127,1776704764
109,17,7,Jits_ISO_8,1,5,63,98,1776715256
109,17,7,Jits_ISO_8,2,1,48,27,1776807900
109,17,7,Jits_ISO_8,3,5,56,103,1776864520
109,17,7,Jits_ISO_8,0,5,63,98,1777514748
109,17,7,Jits_ISO_8,1,5,80,127,1777554760
109,17,7,Jits_ISO_8,2,1,48,47,1777593048
109,17,7,Jits_ISO_8,3,5,56,103,1777634648
109,17,7,Jits_ISO_8,0,5,56,103,1778305536
109,17,7,Jits_ISO_8,1,1,48,43,1778357308
109,17,7,Jits_ISO_8,2,5,80,127,1778404608
109,17,7,Jits_ISO_8,3,5,63,98,1778425292
109,17,7,Jits_ISO_8,0,5,80,127,1779164624
109,17,7,Jits_ISO_8,1,1,48,37,1779167596
109,17,7,Jits_ISO_8,2,5,56,103,1779174740
109,17,7,Jits_ISO_8,3,5,63,98,1779264932
109,17,7,Jits_ISO_8,0,5,56,103,1779965400
109,17,7,Jits_ISO_8,1,5,63,98,1779984816
109,17,7,Jits_ISO_8,2,1,48,41,1779990704
109,17,7,Jits_ISO_8,3,5,80,127,1780064604
109,17,7,Jits_ISO_8,0,5,63,98,1780714856
109,17,7,Jits_ISO_8,1,5,56,103,1780804916
109,17,7,Jits_ISO_8,2,5,80,127,1780808056
109,17,7,Jits_ISO_8,3,1,48,40,1780822132
109,17,7,Jits_ISO_8,0,5,56,103,1781545276
109,17,7,Jits_ISO_8,1,5,80,127,1781604696
109,17,7,Jits_ISO_8,2,5,63,98,1781614820
109,17,7,Jits_ISO_8,3,1,48,45,1781618836
109,17,7,Jits_ISO_8,0,5,80,127,1782395348
109,17,7,Jits_ISO_8,1,5,56,103,1782404340
109,17,7,Jits_ISO_8,2,5,63,98,1782407412
109,17,7,Jits_ISO_8,3,1,48,47,1782417504
109,17,7,Jits_ISO_8,0,5,56,103,1783154908
109,17,7,Jits_ISO_8,1,5,80,127,1783165404
109,17,7,Jits_ISO_8,2,5,63,98,1783184740
109,17,7,Jits_ISO_8,3,1,48,44,1783218448
109,17,7,Jits_ISO_8,0,5,63,98,1783925180
109,17,7,Jits_ISO_8,1,5,80,127,1783984480
109,17,7,Jits_ISO_8,2,1,48,43,1784019956
109,17,7,Jits_ISO_8,3,5,56,103,1784034600
109,17,7,Jits_ISO_8,0,1,48,45,1784759568
109,17,7,Jits_ISO_8,1,5,63,98,1784804632
109,17,7,Jits_ISO_8,2,5,56,103,1784815048
109,17,7,Jits_ISO_8,3,5,80,127,1784865236
109,17,7,Jits_ISO_8,0,5,63,98,1785505348
109,17,7,Jits_ISO_8,1,5,80,127,1785524492
109,17,7,Jits_ISO_8,2,5,56,103,1785534912
109,17,7,Jits_ISO_8,3,1,48,45,1785619908
109,17,7,Jits_ISO_8,0,5,63,98,1786305000
109,17,7,Jits_ISO_8,1,5,80,127,1786308288
109,17,7,Jits_ISO_8,2,5,56,103,1786344936
109,17,7,Jits_ISO_8,3,1,48,39,1786384096
109,17,7,Jits_ISO_8,0,1,48,40,1787173912
109,17,7,Jits_ISO_8,1,5,63,98,1787175488
109,17,7,Jits_ISO_8,2,5,80,127,1787205384
109,17,7,Jits_ISO_8,3,5,56,103,1787215212
109,17,7,Jits_ISO_8,0,5,56,103,1787924784
109,17,7,Jits_ISO_8,1,5,80,127,1787954684
109,17,7,Jits_ISO_8,2,1,48,39,1787961316
109,17,7,Jits_ISO_8,3,5,63,98,1787985328
109,17,7,Jits_ISO_8,0,1,48,40,1788719148
109,17,7,Jits_ISO_8,1,5,63,98,1788824956
109,17,7,Jits_ISO_8,2,5,56,103,1788864992
109,17,7,Jits_ISO_8,3,5,80,127,1788868060
109,17,7,Jits_ISO_8,0,5,80,127,1789525264
109,17,7,Jits_ISO_8,1,1,48,39,1789546440
109,17,7,Jits_ISO_8,2,5,56,103,1789605132
109,17,7,Jits_ISO_8,3,5,63,98,1789655272
109,17,7,Jits_ISO_8,0,5,80,127,1790304760
109,17,7,Jits_ISO_8,1,5,56,103,1790325220
109,17,7,Jits_ISO_8,2,1,48,40,1790369992
109,17,7,Jits_ISO_8,3,5,63,98,1790415220
109,17,7,Jits_ISO_8,0,5,80,127,1791145312
109,17,7,Jits_ISO_8,1,1,48,48,1791168012
109,17,7,Jits_ISO_8,2,5,63,98,1791185196
109,17,7,Jits_ISO_8,3,5,56,103,1791225136
109,17,7,Jits_ISO_8,0,5,63,98,1791915368
109,17,7,Jits_ISO_8,1,5,80,127,1791974740
109,17,7,Jits_ISO_8,2,1,48,43,1792000184
109,17,7,Jits_ISO_8,3,5,56,103,1792004408
109,17,7,Jits_ISO_8,0,5,56,103,1792715324
109,17,7,Jits_ISO_8,1,5,80,127,1792745004
109,17,7,Jits_ISO_8,2,1,48,40,1792760700
109,17,7,Jits_ISO_8,3,5,63,98,1792835200
109,17,7,Jits_ISO_8,0,5,56,103,1793525312
109,17,7,Jits_ISO_8,1,1,48,44,1793558852
109,17,7,Jits_ISO_8,2,5,80,127,1793634700
109,17,7,Jits_ISO_8,3,5,63,98,1793665408
109,17,7,Jits_ISO_8,0,1,48,37,1794373960
109,17,7,Jits_ISO_8,1,5,56,103,1794375604
109,17,7,Jits_ISO_8,2,5,63,98,1794434504
109,17,7,Jits_ISO_8,3,5,80,127,1794465300
109,17,7,Jits_ISO_8,0,5,56,103,1795145288
109,17,7,Jits_ISO_8,1,1,48,43,1795209164
109,17,7,Jits_ISO_8,2,5,63,98,1795214668
109,17,7,Jits_ISO_8,3,5,80,127,1795235200
109,17,7,Jits_ISO_8,0,5,80,127,1795915192
109,17,7,Jits_ISO_8,1,5,63,98,1795934460
109,17,7,Jits_ISO_8,2,5,56,103,1795984660
109,17,7,Jits_ISO_8,3,1,48,46,1796006876
109,17,7,Jits_ISO_8,0,9999,9999,9999,1701182572
109,17,7,Jits_ISO_8,1,9999,9999,9999,1701982272
109,17,7,Jits_ISO_8,2,9999,9999,9999,1702783040
109,17,7,Jits_ISO_8,3,9999,9999,9999,1703582832
109,17,7,Jits_ISO_8,4,9999,9999,9999,1704382572
109,17,7,Jits_ISO_8,5,9999,9999,9999,1705182280
109,17,7,Jits_ISO_8,6,9999,9999,9999,1705983044
109,17,7,Jits_ISO_8,7,9999,9999,9999,1706782836
109,17,7,Jits_ISO_8,8,9999,9999,9999,1707582540
109,17,7,Jits_ISO_8,9,9999,9999,9999,1708382308
109,17,7,Jits_ISO_8,10,9999,9999,9999,1709183084
109,17,7,Jits_ISO_8,11,9999,9999,9999,1709982796
109,17,7,Jits_ISO_8,12,9999,9999,9999,1710782552
109,17,7,Jits_ISO_8,13,9999,9999,9999,1711582272
109,17,7,Jits_ISO_8,14,9999,9999,9999,1712383084
109,17,7,Jits_ISO_8,15,9999,9999,9999,1713182800
109,17,7,Jits_ISO_8,16,9999,9999,9999,1713982568
109,17,7,Jits_ISO_8,17,9999,9999,9999,1714782292
109,17,7,Jits_ISO_8,18,9999,9999,9999,1715583056
109,17,7,Jits_ISO_8,19,9999,9999,9999,1716382780
109,17,7,Jits_ISO_8,20,9999,9999,9999,1717182516
109,17,7,Jits_ISO_8,21,9999,9999,9999,1717982296
109,17,7,Jits_ISO_8,22,9999,9999,9999,1718783056
109,17,7,Jits_ISO_8,23,9999,9999,9999,1719582780
109,17,7,Jits_ISO_8,24,9999,9999,9999,1720382564
109,17,7,Jits_ISO_8,25,9999,9999,9999,1721182272
109,17,7,Jits_ISO_8,26,9999,9999,9999,1721983040
109,17,7,Jits_ISO_8,27,9999,9999,9999,1722782824
109,17,7,Jits_ISO_8,28,9999,9999,9999,1723582568
109,17,7,Jits_ISO_8,29,9999,9999,9999,1724382284
109,17,7,Jits_ISO_8,30,9999,9999,9999,1725183040
109,17,7,Jits_ISO_8,31,9999,9999,9999,1725982820
109,17,7,Jits_ISO_8,32,9999,9999,9999,1726782540
109,17,7,Jits_ISO_8,33,9999,9999,9999,1727582332
109,17,7,Jits_ISO_8,34,9999,9999,9999,1728383100
109,17,7,Jits_ISO_8,35,9999,9999,9999,1729182820
109,17,7,Jits_ISO_8,36,9999,9999,9999,1729982560
109,17,7,Jits_ISO_8,37,9999,9999,9999,1730782268
109,17,7,Jits_ISO_8,38,9999,9999,9999,1731583092
109,17,7,Jits_ISO_8,39,9999,9999,9999,1732382816
109,17,7,Jits_ISO_8,40,9999,9999,9999,1733182528
109,17,7,Jits_ISO_8,41,9999,9999,9999,1733982312
109,17,7,Jits_ISO_8,42,9999,9999,9999,1734783060
109,17,7,Jits_ISO_8,43,9999,9999,9999,1735582840
109,17,7,Jits_ISO_8,44,9999,9999,9999,1736382556
109,17,7,Jits_ISO_8,45,9999,9999,9999,1737182268
109,17,7,Jits_ISO_8,46,9999,9999,9999,1737983028
109,17,7,Jits_ISO_8,47,9999,9999,9999,1738782796
109,17,7,Jits_ISO_8,48,9999,9999,9999,1739582520
109,17,7,Jits_ISO_8,49,9999,9999,9999,1740382312
109,17,7,Jits_ISO_8,50,9999,9999,9999,1741183068
109,17,7,Jits_ISO_8,51,9999,9999,9999,1741982788
109,17,7,Jits_ISO_8,52,9999,9999,9999,1742782540
109,17,7,Jits_ISO_8,53,9999,9999,9999,1743582272
109,17,7,Jits_ISO_8,54,9999,9999,9999,1744383036
109,17,7,Jits_ISO_8,55,9999,9999,9999,1745182832
109,17,7,Jits_ISO_8,56,9999,9999,9999,1745982536
109,17,7,Jits_ISO_8,57,9999,9999,9999,1746782260
109,17,7,Jits_ISO_8,58,9999,9999,9999,1747583032
109,17,7,Jits_ISO_8,59,9999,9999,9999,1748382828
109,17,7,Jits_ISO_8,60,9999,9999,9999,1749182576
109,17,7,Jits_ISO_8,61,9999,9999,9999,1749982304
109,17,7,Jits_ISO_8,62,9999,9999,9999,1750783072
109,17,7,Jits_ISO_8,63,9999,9999,9999,1751582776
109,17,7,Jits_ISO_8,64,9999,9999,9999,1752382580
109,17,7,Jits_ISO_8,65,9999,9999,9999,1753182292
109,17,7,Jits_ISO_8,66,9999,9999,9999,1753983068
109,17,7,Jits_ISO_8,67,9999,9999,9999,1754782784
109,17,7,Jits_ISO_8,68,9999,9999,9999,1755582584
109,17,7,Jits_ISO_8,69,9999,9999,9999,1756382292
109,17,7,Jits_ISO_8,70,9999,9999,9999,1757183060
109,17,7,Jits_ISO_8,71,9999,9999,9999,1757982776
109,17,7,Jits_ISO_8,72,9999,9999,9999,1758782560
109,17,7,Jits_ISO_8,73,9999,9999,9999,1759582284
109,17,7,Jits_ISO_8,74,9999,9999,9999,1760383048
109,17,7,Jits_ISO_8,75,9999,9999,9999,1761182836
109,17,7,Jits_ISO_8,76,9999,9999,9999,1761982584
109,17,7,Jits_ISO_8,77,9999,9999,9999,1762782308
109,17,7,Jits_ISO_8,78,9999,9999,9999,1763583056
109,17,7,Jits_ISO_8,79,9999,9999,9999,1764382776
109,17,7,Jits_ISO_8,80,9999,9999,9999,1765182576
109,17,7,Jits_ISO_8,81,9999,9999,9999,1765982284
109,17,7,Jits_ISO_8,82,9999,9999,9999,1766783040
109,17,7,Jits_ISO_8,83,9999,9999,9999,1767582820
109,17,7,Jits_ISO_8,84,9999,9999,9999,1768382560
109,17,7,Jits_ISO_8,85,9999,9999,9999,1769182288
109,17,7,Jits_ISO_8,86,9999,9999,9999,1769983044
109,17,7,Jits_ISO_8,87,9999,9999,9999,1770782824
109,17,7,Jits_ISO_8,88,9999,9999,9999,1771582524
109,17,7,Jits_ISO_8,89,9999,9999,9999,1772382320
109,17,7,Jits_ISO_8,90,9999,9999,9999,1773183084
109,17,7,Jits_ISO_8,91,9999,9999,9999,1773982788
109,17,7,Jits_ISO_8,92,9999,9999,9999,1774782544
109,17,7,Jits_ISO_8,93,9999,9999,9999,1775582324
109,17,7,Jits_ISO_8,94,9999,9999,9999,1776383080
109,17,7,Jits_ISO_8,95,9999,9999,9999,1777182800
109,17,7,Jits_ISO_8,96,9999,9999,9999,1777982524
109,17,7,Jits_ISO_8,97,9999,9999,9999,1778782304
109,17,7,Jits_ISO_8,98,9999,9999,9999,1779583080
109,17,7,Jits_ISO_8,99,9999,9999,9999,1780382808
109,17,7,Jits_ISO_8,100,9999,9999,9999,1781182548
109,17,7,Jits_ISO_8,101,9999,9999,9999,1781982260
109,17,7,Jits_ISO_8,102,9999,9999,9999,1782783100
109,17,7,Jits_ISO_8,103,9999,9999,9999,1783582824
109,17,7,Jits_ISO_8,104,9999,9999,9999,1784382544
109,17,7,Jits_ISO_8,105,9999,9999,9999,1785182260
109,17,7,Jits_ISO_8,106,9999,9999,9999,1785983084
109,17,7,Jits_ISO_8,107,9999,9999,9999,1786782776
109,17,7,Jits_ISO_8,108,9999,9999,9999,1787582588
109,17,7,Jits_ISO_8,109,9999,9999,9999,1788382292
109,17,7,Jits_ISO_8,110,9999,9999,9999,1789183068
109,17,7,Jits_ISO_8,111,9999,9999,9999,1789982780
109,17,7,Jits_ISO_8,112,9999,9999,9999,1790782572
109,17,7,Jits_ISO_8,113,9999,9999,9999,1791582300
109,17,7,Jits_ISO_8,114,9999,9999,9999,1792383068
109,17,7,Jits_ISO_8,115,9999,9999,9999,1793182780
109,17,7,Jits_ISO_8,116,9999,9999,9999,1793982532
109,17,7,Jits_ISO_8,117,9999,9999,9999,1794782264
109,17,7,Jits_ISO_8,118,9999,9999,9999,1795583096
109,17,7,Jits_ISO_8,119,9999,9999,9999,1796382812
109,18,17,Jits_Phase_5,0,5,56,103,1804397848
109,18,17,Jits_Phase_5,1,5,63,98,1804400868
109,18,17,Jits_Phase_5,2,5,80,127,1804404068
109,18,17,Jits_Phase_5,0,5,56,103,1804897776
109,18,17,Jits_Phase_5,1,5,63,98,1804900952
109,18,17,Jits_Phase_5,2,5,80,127,1804904000
109,18,17,Jits_Phase_5,0,5,56,103,1805398324
109,18,17,Jits_Phase_5,1,5,80,127,1805407620
109,18,17,Jits_Phase_5,2,5,63,98,1805428228
109,18,17,Jits_Phase_5,0,5,63,98,1805847856
109,18,17,Jits_Phase_5,1,5,80,127,1805877608
109,18,17,Jits_Phase_5,2,5,56,103,1805888024
109,18,17,Jits_Phase_5,0,5,80,127,1806408024
109,18,17,Jits_Phase_5,1,5,56,103,1806418144
109,18,17,Jits_Phase_5,2,5,63,98,1806447892
109,18,17,Jits_Phase_5,0,5,63,98,1806897488
109,18,17,Jits_Phase_5,1,5,56,103,1806928212
109,18,17,Jits_Phase_5,2,5,80,127,1806937436
109,18,17,Jits_Phase_5,0,5,56,103,1807348204
109,18,17,Jits_Phase_5,1,5,63,98,1807398108
109,18,17,Jits_Phase_5,2,5,80,127,1807417816
109,18,17,Jits_Phase_5,0,5,80,127,1807847928
109,18,17,Jits_Phase_5,1,5,63,98,1807897908
109,18,17,Jits_Phase_5,2,5,56,103,1807938068
109,18,17,Jits_Phase_5,0,5,56,103,1808347436
109,18,17,Jits_Phase_5,1,5,63,98,1808378304
109,18,17,Jits_Phase_5,2,5,80,127,1808447908
109,18,17,Jits_Phase_5,0,1,48,47,1808840452
109,18,17,Jits_Phase_5,1,5,56,103,1808848272
109,18,17,Jits_Phase_5,2,5,80,127,1808907840
109,18,17,Jits_Phase_5,3,5,63,98,1808938992
109,18,17,Jits_Phase_5,0,5,56,103,1809358216
109,18,17,Jits_Phase_5,1,5,63,98,1809368860
109,18,17,Jits_Phase_5,2,5,80,127,1809408276
109,18,17,Jits_Phase_5,3,1,48,43,1809410216
109,18,17,Jits_Phase_5,0,5,63,98,1809847792
109,18,17,Jits_Phase_5,1,1,48,43,1809905292
109,18,17,Jits_Phase_5,2,5,80,127,1809927656
109,18,17,Jits_Phase_5,3,5,56,103,1809938000
109,18,17,Jits_Phase_5,0,5,63,98,1810397736
109,18,17,Jits_Phase_5,1,1,48,43,1810407460
109,18,17,Jits_Phase_5,2,5,56,103,1810437444
109,18,17,Jits_Phase_5,3,5,80,127,1810440512
109,18,17,Jits_Phase_5,0,5,56,103,1810867440
109,18,17,Jits_Phase_5,1,5,63,98,1810878012
109,18,17,Jits_Phase_5,2,5,80,127,1810917872
109,18,17,Jits_Phase_5,3,1,48,43,1810927140
109,18,17,Jits_Phase_5,0,5,56,103,1811358108
109,18,17,Jits_Phase_5,1,5,63,98,1811361100
109,18,17,Jits_Phase_5,2,5,80,127,1811377396
109,18,17,Jits_Phase_5,3,1,48,40,1811433696
109,18,17,Jits_Phase_5,0,5,80,127,1811867972
109,18,17,Jits_Phase_5,1,5,56,103,1811878240
109,18,17,Jits_Phase_5,2,1,48,44,1811909180
109,18,17,Jits_Phase_5,3,5,63,98,1811947936
109,18,17,Jits_Phase_5,0,5,63,98,1812357620
109,18,17,Jits_Phase_5,1,5,56,103,1812377928
109,18,17,Jits_Phase_5,2,1,48,40,1812419732
109,18,17,Jits_Phase_5,3,5,80,127,1812457888
109,18,17,Jits_Phase_5,0,5,56,103,1812867332
109,18,17,Jits_Phase_5,1,5,80,127,1812908316
109,18,17,Jits_Phase_5,2,1,48,43,1812912956
109,18,17,Jits_Phase_5,3,5,63,98,1812917780
109,18,17,Jits_Phase_5,0,5,80,127,1813357796
109,18,17,Jits_Phase_5,1,5,63,98,1813387916
109,18,17,Jits_Phase_5,2,1,48,43,1813392536
109,18,17,Jits_Phase_5,3,5,56,103,1813427724
109,18,17,Jits_Phase_5,0,5,56,103,1813878084
109,18,17,Jits_Phase_5,1,1,48,38,1813889820
109,18,17,Jits_Phase_5,2,5,63,98,1813907680
109,18,17,Jits_Phase_5,3,5,80,127,1813958052
109,18,17,Jits_Phase_5,0,5,80,127,1814377924
109,18,17,Jits_Phase_5,1,1,48,40,1814402544
109,18,17,Jits_Phase_5,2,5,56,103,1814417708
109,18,17,Jits_Phase_5,3,5,63,98,1814428128
109,18,17,Jits_Phase_5,0,5,80,127,1814868248
109,18,17,Jits_Phase_5,1,1,48,45,1814896248
109,18,17,Jits_Phase_5,2,5,63,98,1814908328
109,18,17,Jits_Phase_5,3,5,56,103,1814967768
109,18,17,Jits_Phase_5,0,5,56,103,1815368012
109,18,17,Jits_Phase_5,1,5,80,127,1815378280
109,18,17,Jits_Phase_5,2,1,48,41,1815414508
109,18,17,Jits_Phase_5,3,5,63,98,1815458140
109,18,17,Jits_Phase_5,0,5,80,127,1815867772
109,18,17,Jits_Phase_5,1,1,48,47,1815915700
109,18,17,Jits_Phase_5,2,5,63,98,1815928156
109,18,17,Jits_Phase_5,3,5,56,103,1815957752
109,18,17,Jits_Phase_5,0,5,56,103,1816367608
109,18,17,Jits_Phase_5,1,5,80,127,1816427924
109,18,17,Jits_Phase_5,2,1,48,42,1816430292
109,18,17,Jits_Phase_5,3,5,63,98,1816467780
109,18,17,Jits_Phase_5,0,5,56,103,1816918320
109,18,17,Jits_Phase_5,1,1,48,46,1816922712
109,18,17,Jits_Phase_5,2,5,63,98,1816927688
109,18,17,Jits_Phase_5,3,5,80,127,1816930904
109,18,17,Jits_Phase_5,0,5,80,127,1817367956
109,18,17,Jits_Phase_5,1,1,48,39,1817430488
109,18,17,Jits_Phase_5,2,5,63,98,1817458008
109,18,17,Jits_Phase_5,3,5,56,103,1817468204
109,18,17,Jits_Phase_5,0,5,56,103,1817867712
109,18,17,Jits_Phase_5,1,5,63,98,1817870656
109,18,17,Jits_Phase_5,2,5,80,127,1817873856
109,18,17,Jits_Phase_5,3,1,48,41,1817937516
109,18,17,Jits_Phase_5,0,5,80,127,1818387840
109,18,17,Jits_Phase_5,1,1,48,39,1818431188
109,18,17,Jits_Phase_5,2,5,63,98,1818438036
109,18,17,Jits_Phase_5,3,5,56,103,1818467712
109,18,17,Jits_Phase_5,0,5,56,103,1818868052
109,18,17,Jits_Phase_5,1,5,80,127,1818878248
109,18,17,Jits_Phase_5,2,1,48,45,1818941748
109,18,17,Jits_Phase_5,3,5,63,98,1818947996
109,18,17,Jits_Phase_5,0,5,56,103,1819377932
109,18,17,Jits_Phase_5,1,5,63,98,1819397640
109,18,17,Jits_Phase_5,2,1,48,41,1819432976
109,18,17,Jits_Phase_5,3,5,80,127,1819457948
109,18,17,Jits_Phase_5,0,5,80,127,1819858216
109,18,17,Jits_Phase_5,1,5,63,98,1819927972
109,18,17,Jits_Phase_5,2,1,48,45,1819945468
109,18,17,Jits_Phase_5,3,5,56,103,1819948496
109,18,17,Jits_Phase_5,0,5,80,127,1820377388
109,18,17,Jits_Phase_5,1,5,56,103,1820387880
109,18,17,Jits_Phase_5,2,5,63,98,1820398076
109,18,17,Jits_Phase_5,3,1,48,40,1820438500
109,18,17,Jits_Phase_5,0,5,80,127,1820868080
109,18,17,Jits_Phase_5,1,5,56,103,1820888392
109,18,17,Jits_Phase_5,2,1,48,42,1820936840
109,18,17,Jits_Phase_5,3,5,63,98,1820957988
109,18,17,Jits_Phase_5,0,5,56,103,1821378032
109,18,17,Jits_Phase_5,1,1,48,43,1821393508
109,18,17,Jits_Phase_5,2,5,80,127,1821407552
109,18,17,Jits_Phase_5,3,5,63,98,1821427936
109,18,17,Jits_Phase_5,0,5,63,98,1821868256
109,18,17,Jits_Phase_5,1,1,48,43,1821890808
109,18,17,Jits_Phase_5,2,5,56,103,1821927768
109,18,17,Jits_Phase_5,3,5,80,127,1821957812
109,18,17,Jits_Phase_5,0,5,63,98,1822357820
109,18,17,Jits_Phase_5,1,5,80,127,1822361036
109,18,17,Jits_Phase_5,2,1,48,41,1822389952
109,18,17,Jits_Phase_5,3,5,56,103,1822448112
109,18,17,Jits_Phase_5,0,5,56,103,1822878012
109,18,17,Jits_Phase_5,1,1,48,44,1822907936
109,18,17,Jits_Phase_5,2,5,63,98,1822909420
109,18,17,Jits_Phase_5,3,5,80,127,1822947792
109,18,17,Jits_Phase_5,0,5,63,98,1823377628
109,18,17,Jits_Phase_5,1,1,48,37,1823391760
109,18,17,Jits_Phase_5,2,5,56,103,1823417732
109,18,17,Jits_Phase_5,3,5,80,127,1823438044
109,18,17,Jits_Phase_5,0,5,63,98,1823887708
109,18,17,Jits_Phase_5,1,1,48,44,1823893968
109,18,17,Jits_Phase_5,2,5,56,103,1823927664
109,18,17,Jits_Phase_5,3,5,80,127,1823937936
109,18,17,Jits_Phase_5,0,5,80,127,1824367980
109,18,17,Jits_Phase_5,1,1,48,47,1824393644
109,18,17,Jits_Phase_5,2,5,63,98,1824437532
109,18,17,Jits_Phase_5,3,5,56,103,1824458064
109,18,17,Jits_Phase_5,0,5,56,103,1824857556
109,18,17,Jits_Phase_5,1,5,80,127,1824877868
109,18,17,Jits_Phase_5,2,5,63,98,1824917876
109,18,17,Jits_Phase_5,3,1,48,46,1824920700
109,18,17,Jits_Phase_5,0,5,63,98,1825368700
109,18,17,Jits_Phase_5,1,5,80,127,1825387892
109,18,17,Jits_Phase_5,2,5,56,103,1825427680
109,18,17,Jits_Phase_5,3,1,48,42,1825441356
109,18,17,Jits_Phase_5,0,5,63,98,1825868076
109,18,17,Jits_Phase_5,1,5,56,103,1825887788
109,18,17,Jits_Phase_5,2,5,80,127,1825897832
109,18,17,Jits_Phase_5,3,1,48,41,1825912936
109,18,17,Jits_Phase_5,0,5,80,127,1826367824
109,18,17,Jits_Phase_5,1,5,56,103,1826388280
109,18,17,Jits_Phase_5,2,1,48,43,1826413048
109,18,17,Jits_Phase_5,3,5,63,98,1826418024
109,18,17,Jits_Phase_5,0,1,48,40,1826914372
109,18,17,Jits_Phase_5,1,5,56,103,1826938072
109,18,17,Jits_Phase_5,2,5,80,127,1826941144
109,18,17,Jits_Phase_5,3,5,63,98,1826957788
109,18,17,Jits_Phase_5,0,5,63,98,1827358040
109,18,17,Jits_Phase_5,1,5,56,103,1827387788
109,18,17,Jits_Phase_5,2,1,48,44,1827390456
109,18,17,Jits_Phase_5,3,5,80,127,1827448172
109,18,17,Jits_Phase_5,0,5,63,98,1827937504
109,18,17,Jits_Phase_5,1,1,48,39,1827938472
109,18,17,Jits_Phase_5,2,5,56,103,1827947844
109,18,17,Jits_Phase_5,3,5,80,127,1827958260
109,18,17,Jits_Phase_5,0,5,56,103,1828397700
109,18,17,Jits_Phase_5,1,5,80,127,1828428052
109,18,17,Jits_Phase_5,2,5,63,98,1828438472
109,18,17,Jits_Phase_5,3,1,48,38,1828452528
109,18,17,Jits_Phase_5,0,1,48,43,1828929428
109,18,17,Jits_Phase_5,1,5,63,98,1828937996
109,18,17,Jits_Phase_5,2,5,56,103,1828948340
109,18,17,Jits_Phase_5,3,5,80,127,1828967752
109,18,17,Jits_Phase_5,0,5,56,103,1829368152
109,18,17,Jits_Phase_5,1,5,63,98,1829427496
109,18,17,Jits_Phase_5,2,5,80,127,1829430784
109,18,17,Jits_Phase_5,3,1,48,43,1829458260
109,18,17,Jits_Phase_5,0,5,80,127,1829888436
109,18,17,Jits_Phase_5,1,5,56,103,1829897732
109,18,17,Jits_Phase_5,2,1,48,44,1829936372
109,18,17,Jits_Phase_5,3,5,63,98,1829968376
109,18,17,Jits_Phase_5,0,5,80,127,1830377784
109,18,17,Jits_Phase_5,1,1,48,43,1830408552
109,18,17,Jits_Phase_5,2,5,56,103,1830447532
109,18,17,Jits_Phase_5,3,5,63,98,1830457656
109,18,17,Jits_Phase_5,0,5,63,98,1830917484
109,18,17,Jits_Phase_5,1,5,56,103,1830927832
109,18,17,Jits_Phase_5,2,1,48,42,1830935756
109,18,17,Jits_Phase_5,3,5,80,127,1830948132
109,18,17,Jits_Phase_5,0,5,80,127,1831367936
109,18,17,Jits_Phase_5,1,5,63,98,1831427580
109,18,17,Jits_Phase_5,2,1,48,37,1831431376
109,18,17,Jits_Phase_5,3,5,56,103,1831468556
109,18,17,Jits_Phase_5,0,1,48,44,1831901904
109,18,17,Jits_Phase_5,1,5,56,103,1831907628
109,18,17,Jits_Phase_5,2,5,63,98,1831917900
109,18,17,Jits_Phase_5,3,5,80,127,1831957840
109,18,17,Jits_Phase_5,0,5,56,103,1832367460
109,18,17,Jits_Phase_5,1,5,80,127,1832398256
109,18,17,Jits_Phase_5,2,1,48,42,1832420928
109,18,17,Jits_Phase_5,3,5,63,98,1832448448
109,18,17,Jits_Phase_5,0,1,48,39,1832889368
109,18,17,Jits_Phase_5,1,5,56,103,1832908048
109,18,17,Jits_Phase_5,2,5,63,98,1832948132
109,18,17,Jits_Phase_5,3,5,80,127,1832951648
109,18,17,Jits_Phase_5,0,5,56,103,1833407724
109,18,17,Jits_Phase_5,1,1,48,40,1833415032
109,18,17,Jits_Phase_5,2,5,63,98,1833418212
109,18,17,Jits_Phase_5,3,5,80,127,1833437548
109,18,17,Jits_Phase_5,0,5,56,103,1833867608
109,18,17,Jits_Phase_5,1,5,80,127,1833870748
109,18,17,Jits_Phase_5,2,5,63,98,1833907568
109,18,17,Jits_Phase_5,3,1,48,36,1833943492
109,18,17,Jits_Phase_5,0,1,48,38,1834403956
109,18,17,Jits_Phase_5,1,5,63,98,1834408404
109,18,17,Jits_Phase_5,2,5,56,103,1834437956
109,18,17,Jits_Phase_5,3,5,80,127,1834457444
109,18,17,Jits_Phase_5,0,5,80,127,1834878564
109,18,17,Jits_Phase_5,1,5,56,103,1834887492
109,18,17,Jits_Phase_5,2,5,63,98,1834897984
109,18,17,Jits_Phase_5,3,1,48,41,1834916316
109,18,17,Jits_Phase_5,0,1,48,42,1835376288
109,18,17,Jits_Phase_5,1,5,56,103,1835377948
109,18,17,Jits_Phase_5,2,5,80,127,1835418036
109,18,17,Jits_Phase_5,3,5,63,98,1835447512
109,18,17,Jits_Phase_5,0,5,63,98,1835887968
109,18,17,Jits_Phase_5,1,5,80,127,1835898312
109,18,17,Jits_Phase_5,2,1,48,40,1835899724
109,18,17,Jits_Phase_5,3,5,56,103,1835907604
109,18,17,Jits_Phase_5,0,5,56,103,1836377452
109,18,17,Jits_Phase_5,1,1,48,44,1836384984
109,18,17,Jits_Phase_5,2,5,63,98,1836448100
109,18,17,Jits_Phase_5,3,5,80,127,1836458520
109,18,17,Jits_Phase_5,0,5,80,127,1836888576
109,18,17,Jits_Phase_5,1,5,56,103,1836897576
109,18,17,Jits_Phase_5,2,1,48,49,1836909836
109,18,17,Jits_Phase_5,3,5,63,98,1836947920
109,18,17,Jits_Phase_5,0,5,80,127,1837398452
109,18,17,Jits_Phase_5,1,1,48,42,1837401648
109,18,17,Jits_Phase_5,2,5,56,103,1837457716
109,18,17,Jits_Phase_5,3,5,63,98,1837487640
109,18,17,Jits_Phase_5,0,5,56,103,1837898220
109,18,17,Jits_Phase_5,1,5,80,127,1837901136
109,18,17,Jits_Phase_5,2,1,48,42,1837923364
109,18,17,Jits_Phase_5,3,5,63,98,1837938076
109,18,17,Jits_Phase_5,0,1,48,50,1838397268
109,18,17,Jits_Phase_5,1,5,56,103,1838427488
109,18,17,Jits_Phase_5,2,5,63,98,1838458356
109,18,17,Jits_Phase_5,3,5,80,127,1838467580
109,18,17,Jits_Phase_5,0,1,48,43,1838930960
109,18,17,Jits_Phase_5,1,5,63,98,1838937356
109,18,17,Jits_Phase_5,2,5,80,127,1838947624
109,18,17,Jits_Phase_5,3,5,56,103,1838957968
109,18,17,Jits_Phase_5,0,5,80,127,1839387964
109,18,17,Jits_Phase_5,1,1,48,44,1839391304
109,18,17,Jits_Phase_5,2,5,56,103,1839438452
109,18,17,Jits_Phase_5,3,5,63,98,1839441372
109,18,17,Jits_Phase_5,0,5,56,103,1839917384
109,18,17,Jits_Phase_5,1,1,48,42,1839918348
109,18,17,Jits_Phase_5,2,5,80,127,1839937836
109,18,17,Jits_Phase_5,3,5,63,98,1839948404
109,18,17,Jits_Phase_5,0,5,63,98,1840397744
109,18,17,Jits_Phase_5,1,1,48,44,1840410380
109,18,17,Jits_Phase_5,2,5,56,103,1840428388
109,18,17,Jits_Phase_5,3,5,80,127,1840447800
109,18,17,Jits_Phase_5,0,5,56,103,1840907532
109,18,17,Jits_Phase_5,1,1,48,45,1840910580
109,18,17,Jits_Phase_5,2,5,80,127,1840917720
109,18,17,Jits_Phase_5,3,5,63,98,1840987548
109,18,17,Jits_Phase_5,0,5,63,98,1841398228
109,18,17,Jits_Phase_5,1,1,48,48,1841417160
109,18,17,Jits_Phase_5,2,5,80,127,1841438012
109,18,17,Jits_Phase_5,3,5,56,103,1841477948
109,18,17,Jits_Phase_5,0,5,56,103,1841908096
109,18,17,Jits_Phase_5,1,5,63,98,1841918364
109,18,17,Jits_Phase_5,2,1,48,51,1841926812
109,18,17,Jits_Phase_5,3,5,80,127,1841937772
109,18,17,Jits_Phase_5,0,1,48,47,1842396140
109,18,17,Jits_Phase_5,1,5,63,98,1842447712
109,18,17,Jits_Phase_5,2,5,80,127,1842468320
109,18,17,Jits_Phase_5,3,5,56,103,1842487804
109,18,17,Jits_Phase_5,0,5,56,103,1842887984
109,18,17,Jits_Phase_5,1,1,48,49,1842924360
109,18,17,Jits_Phase_5,2,5,80,127,1842967848
109,18,17,Jits_Phase_5,3,5,63,98,1842978116
109,18,17,Jits_Phase_5,0,1,48,49,1843398136
109,18,17,Jits_Phase_5,1,5,80,127,1843427752
109,18,17,Jits_Phase_5,2,5,63,98,1843438024
109,18,17,Jits_Phase_5,3,5,56,103,1843467624
109,18,17,Jits_Phase_5,0,1,48,49,1843877556
109,18,17,Jits_Phase_5,1,5,63,98,1843887420
109,18,17,Jits_Phase_5,2,5,80,127,1843928404
109,18,17,Jits_Phase_5,3,5,56,103,1843987728
109,18,17,Jits_Phase_5,0,5,63,98,1844397364
109,18,17,Jits_Phase_5,1,1,48,51,1844409400
109,18,17,Jits_Phase_5,2,5,56,103,1844447484
109,18,17,Jits_Phase_5,3,5,80,127,1844478352
109,18,17,Jits_Phase_5,0,5,80,127,1844898432
109,18,17,Jits_Phase_5,1,5,63,98,1844908356
109,18,17,Jits_Phase_5,2,1,48,53,1844911328
109,18,17,Jits_Phase_5,3,5,56,103,1844978028
109,18,17,Jits_Phase_5,0,1,48,48,1845402060
109,18,17,Jits_Phase_5,1,5,80,127,1845458452
109,18,17,Jits_Phase_5,2,5,56,103,1845467452
109,18,17,Jits_Phase_5,3,5,63,98,1845470668
109,18,17,Jits_Phase_5,0,1,48,53,1845892360
109,18,17,Jits_Phase_5,1,5,56,103,1845897708
109,18,17,Jits_Phase_5,2,5,80,127,1845918164
109,18,17,Jits_Phase_5,3,5,63,98,1845928288
109,18,17,Jits_Phase_5,0,1,48,45,1846399672
109,18,17,Jits_Phase_5,1,5,63,98,1846407644
109,18,17,Jits_Phase_5,2,5,56,103,1846447608
109,18,17,Jits_Phase_5,3,5,80,127,1846467844
109,18,17,Jits_Phase_5,0,1,48,49,1846897112
109,18,17,Jits_Phase_5,1,5,63,98,1846908368
109,18,17,Jits_Phase_5,2,5,56,103,1846967588
109,18,17,Jits_Phase_5,3,5,80,127,1846970580
109,18,17,Jits_Phase_5,0,5,56,103,1847368188
109,18,17,Jits_Phase_5,1,1,48,51,1847378056
109,18,17,Jits_Phase_5,2,5,80,127,1847387368
109,18,17,Jits_Phase_5,3,5,63,98,1847427380
109,18,17,Jits_Phase_5,0,1,48,46,1847859672
109,18,17,Jits_Phase_5,1,5,56,103,1847897308
109,18,17,Jits_Phase_5,2,5,63,98,1847918064
109,18,17,Jits_Phase_5,3,5,80,127,1847928260
109,18,17,Jits_Phase_5,0,1,48,43,1848358004
109,18,17,Jits_Phase_5,1,5,80,127,1848367464
109,18,17,Jits_Phase_5,2,5,56,103,1848398408
109,18,17,Jits_Phase_5,3,5,63,98,1848438348
109,18,17,Jits_Phase_5,0,1,48,51,1848857000
109,18,17,Jits_Phase_5,1,5,80,127,1848877472
109,18,17,Jits_Phase_5,2,5,56,103,1848897784
109,18,17,Jits_Phase_5,3,5,63,98,1848958456
109,18,17,Jits_Phase_5,0,1,48,50,1849366484
109,18,17,Jits_Phase_5,1,5,56,103,1849388384
109,18,17,Jits_Phase_5,2,5,80,127,1849407948
109,18,17,Jits_Phase_5,3,5,63,98,1849468392
109,18,17,Jits_Phase_5,0,5,80,127,1849867688
109,18,17,Jits_Phase_5,1,5,56,103,1849877960
109,18,17,Jits_Phase_5,2,1,48,51,1849892684
109,18,17,Jits_Phase_5,3,5,63,98,1849917740
109,18,17,Jits_Phase_5,0,5,63,98,1850368344
109,18,17,Jits_Phase_5,1,1,48,54,1850371240
109,18,17,Jits_Phase_5,2,5,56,103,1850408424
109,18,17,Jits_Phase_5,3,5,80,127,1850411340
109,18,17,Jits_Phase_5,0,1,48,49,1850881676
109,18,17,Jits_Phase_5,1,5,63,98,1850887480
109,18,17,Jits_Phase_5,2,5,80,127,1850927416
109,18,17,Jits_Phase_5,3,5,56,103,1850958288
109,18,17,Jits_Phase_5,0,5,56,103,1851378016
109,18,17,Jits_Phase_5,1,5,63,98,1851388360
109,18,17,Jits_Phase_5,2,1,48,48,1851397104
109,18,17,Jits_Phase_5,3,5,80,127,1851418104
109,18,17,Jits_Phase_5,0,5,80,127,1851867588
109,18,17,Jits_Phase_5,1,1,48,46,1851870560
109,18,17,Jits_Phase_5,2,5,63,98,1851938160
109,18,17,Jits_Phase_5,3,5,56,103,1851948356
109,18,17,Jits_Phase_5,0,5,63,98,1852368324
109,18,17,Jits_Phase_5,1,1,48,47,1852382532
109,18,17,Jits_Phase_5,2,5,56,103,1852438072
109,18,17,Jits_Phase_5,3,5,80,127,1852448268
109,18,17,Jits_Phase_5,0,5,63,98,1852847472
109,18,17,Jits_Phase_5,1,5,56,103,1852868076
109,18,17,Jits_Phase_5,2,1,48,46,1852887756
109,18,17,Jits_Phase_5,3,5,80,127,1852908156
109,18,17,Jits_Phase_5,0,5,56,103,1853327716
109,18,17,Jits_Phase_5,1,5,63,98,1853338208
109,18,17,Jits_Phase_5,2,1,48,51,1853356276
109,18,17,Jits_Phase_5,3,5,80,127,1853417944
109,18,17,Jits_Phase_5,0,5,63,98,1853818116
109,18,17,Jits_Phase_5,1,5,56,103,1853848088
109,18,17,Jits_Phase_5,2,1,48,41,1853867248
109,18,17,Jits_Phase_5,3,5,80,127,1853887868
109,18,17,Jits_Phase_5,0,5,56,103,1854318052
109,18,17,Jits_Phase_5,1,1,48,52,1854339528
109,18,17,Jits_Phase_5,2,5,63,98,1854358060
109,18,17,Jits_Phase_5,3,5,80,127,1854397796
109,18,17,Jits_Phase_5,0,1,48,51,1854799060
109,18,17,Jits_Phase_5,1,5,80,127,1854817592
109,18,17,Jits_Phase_5,2,5,56,103,1854897396
109,18,17,Jits_Phase_5,3,5,63,98,1854907664
109,18,17,Jits_Phase_5,0,1,48,51,1855330352
109,18,17,Jits_Phase_5,1,5,56,103,1855358320
109,18,17,Jits_Phase_5,2,5,63,98,1855361532
109,18,17,Jits_Phase_5,3,5,80,127,1855367540
109,18,17,Jits_Phase_5,0,1,48,48,1855843496
109,18,17,Jits_Phase_5,1,5,56,103,1855887580
109,18,17,Jits_Phase_5,2,5,63,98,1855908188
109,18,17,Jits_Phase_5,3,5,80,127,1855917364
109,18,17,Jits_Phase_5,0,5,63,98,1856347484
109,18,17,Jits_Phase_5,1,5,80,127,1856357684
109,18,17,Jits_Phase_5,2,1,48,46,1856360348
109,18,17,Jits_Phase_5,3,5,56,103,1856378136
109,18,17,Jits_Phase_5,0,5,63,98,1856848132
109,18,17,Jits_Phase_5,1,1,48,54,1856876428
109,18,17,Jits_Phase_5,2,5,56,103,1856928068
109,18,17,Jits_Phase_5,3,5,80,127,1856931208
109,18,17,Jits_Phase_5,0,5,63,98,1857348172
109,18,17,Jits_Phase_5,1,1,48,49,1857361256
109,18,17,Jits_Phase_5,2,5,56,103,1857368400
109,18,17,Jits_Phase_5,3,5,80,127,1857398224
109,18,17,Jits_Phase_5,0,5,56,103,1857847624
109,18,17,Jits_Phase_5,1,5,63,98,1857868156
109,18,17,Jits_Phase_5,2,5,80,127,1857878352
109,18,17,Jits_Phase_5,3,1,48,56,1857885212
109,18,17,Jits_Phase_5,0,5,56,103,1858378024
109,18,17,Jits_Phase_5,1,1,48,54,1858383388
109,18,17,Jits_Phase_5,2,5,63,98,1858407988
109,18,17,Jits_Phase_5,3,5,80,127,1858411204
109,18,17,Jits_Phase_5,0,5,56,103,1858827588
109,18,17,Jits_Phase_5,1,5,63,98,1858867524
109,18,17,Jits_Phase_5,2,1,48,62,1858878064
109,18,17,Jits_Phase_5,3,5,80,127,1858927980
109,18,17,Jits_Phase_5,0,5,56,103,1859348100
109,18,17,Jits_Phase_5,1,5,63,98,1859358224
109,18,17,Jits_Phase_5,2,1,48,59,1859384412
109,18,17,Jits_Phase_5,3,5,80,127,1859417408
109,18,17,Jits_Phase_5,0,5,56,103,1859847420
109,18,17,Jits_Phase_5,1,1,48,54,1859861472
109,18,17,Jits_Phase_5,2,5,80,127,1859868096
109,18,17,Jits_Phase_5,3,5,63,98,1859897620
109,18,17,Jits_Phase_5,0,1,48,57,1860336512
109,18,17,Jits_Phase_5,1,5,80,127,1860348148
109,18,17,Jits_Phase_5,2,5,56,103,1860357372
109,18,17,Jits_Phase_5,3,5,63,98,1860378052
109,18,17,Jits_Phase_5,0,5,63,98,1860837712
109,18,17,Jits_Phase_5,1,1,48,54,1860839576
109,18,17,Jits_Phase_5,2,5,80,127,1860917948
109,18,17,Jits_Phase_5,3,5,56,103,1860927924
109,18,17,Jits_Phase_5,0,1,48,51,1861365072
109,18,17,Jits_Phase_5,1,5,80,127,1861427592
109,18,17,Jits_Phase_5,2,5,56,103,1861447896
109,18,17,Jits_Phase_5,3,5,63,98,1861451044
109,18,17,Jits_Phase_5,0,1,48,58,1861865188
109,18,17,Jits_Phase_5,1,5,63,98,1861918116
109,18,17,Jits_Phase_5,2,5,80,127,1861921256
109,18,17,Jits_Phase_5,3,5,56,103,1861977368
109,18,17,Jits_Phase_5,0,1,48,61,1862363436
109,18,17,Jits_Phase_5,1,5,56,103,1862398304
109,18,17,Jits_Phase_5,2,5,80,127,1862407528
109,18,17,Jits_Phase_5,3,5,63,98,1862447388
109,18,17,Jits_Phase_5,0,5,56,103,1862877532
109,18,17,Jits_Phase_5,1,1,48,62,1862888672
109,18,17,Jits_Phase_5,2,5,63,98,1862938064
109,18,17,Jits_Phase_5,3,5,80,127,1862948188
109,18,17,Jits_Phase_5,0,5,63,98,1863387632
109,18,17,Jits_Phase_5,1,1,48,51,1863412324
109,18,17,Jits_Phase_5,2,5,80,127,1863427568
109,18,17,Jits_Phase_5,3,5,56,103,1863468328
109,18,17,Jits_Phase_5,0,5,56,103,1863888132
109,18,17,Jits_Phase_5,1,1,48,54,1863897996
109,18,17,Jits_Phase_5,2,5,63,98,1863968144
109,18,17,Jits_Phase_5,3,5,80,127,1863971432
109,18,17,Jits_Phase_5,0,1,48,55,1864401116
109,18,17,Jits_Phase_5,1,5,80,127,1864448340
109,18,17,Jits_Phase_5,2,5,56,103,1864478092
109,18,17,Jits_Phase_5,3,5,63,98,1864481084
109,18,17,Jits_Phase_5,0,5,56,103,1864908088
109,18,17,Jits_Phase_5,1,5,80,127,1864927652
109,18,17,Jits_Phase_5,2,1,48,53,1864939764
109,18,17,Jits_Phase_5,3,5,63,98,1864967432
109,18,17,Jits_Phase_5,0,5,80,127,1865388524
109,18,17,Jits_Phase_5,1,5,63,98,1865408308
109,18,17,Jits_Phase_5,2,1,48,56,1865441244
109,18,17,Jits_Phase_5,3,5,56,103,1865468316
109,18,17,Jits_Phase_5,0,1,48,53,1865898080
109,18,17,Jits_Phase_5,1,5,63,98,1865899368
109,18,17,Jits_Phase_5,2,5,56,103,1865907544
109,18,17,Jits_Phase_5,3,5,80,127,1865957668
109,18,17,Jits_Phase_5,0,5,56,103,1866387936
109,18,17,Jits_Phase_5,1,1,48,50,1866400640
109,18,17,Jits_Phase_5,2,5,63,98,1866408236
109,18,17,Jits_Phase_5,3,5,80,127,1866417636
109,18,17,Jits_Phase_5,0,1,48,50,1866873576
109,18,17,Jits_Phase_5,1,5,56,103,1866878400
109,18,17,Jits_Phase_5,2,5,63,98,1866881540
109,18,17,Jits_Phase_5,3,5,80,127,1866897884
109,18,17,Jits_Phase_5,0,1,48,51,1867381176
109,18,17,Jits_Phase_5,1,5,63,98,1867418064
109,18,17,Jits_Phase_5,2,5,56,103,1867447764
109,18,17,Jits_Phase_5,3,5,80,127,1867478396
109,18,17,Jits_Phase_5,0,5,80,127,1867877964
109,18,17,Jits_Phase_5,1,1,48,52,1867883180
109,18,17,Jits_Phase_5,2,5,56,103,1867967816
109,18,17,Jits_Phase_5,3,5,63,98,1867970956
109,18,17,Jits_Phase_5,0,5,56,103,1868377496
109,18,17,Jits_Phase_5,1,5,80,127,1868380784
109,18,17,Jits_Phase_5,2,1,48,51,1868412448
109,18,17,Jits_Phase_5,3,5,63,98,1868458328
109,18,17,Jits_Phase_5,0,5,80,127,1868878120
109,18,17,Jits_Phase_5,1,1,48,51,1868914872
109,18,17,Jits_Phase_5,2,5,63,98,1868937760
109,18,17,Jits_Phase_5,3,5,56,103,1868968256
109,18,17,Jits_Phase_5,0,5,63,98,1869377812
109,18,17,Jits_Phase_5,1,5,80,127,1869388080
109,18,17,Jits_Phase_5,2,1,48,54,1869404004
109,18,17,Jits_Phase_5,3,5,56,103,1869457900
109,18,17,Jits_Phase_5,0,1,48,44,1869922920
109,18,17,Jits_Phase_5,1,5,56,103,1869938160
109,18,17,Jits_Phase_5,2,5,80,127,1869967836
109,18,17,Jits_Phase_5,3,5,63,98,1870017984
109,18,17,Jits_Phase_5,0,1,48,47,1870432404
109,18,17,Jits_Phase_5,1,5,63,98,1870527816
109,18,17,Jits_Phase_5,2,5,56,103,1870557492
109,18,17,Jits_Phase_5,3,5,80,127,1870560928
109,18,17,Jits_Phase_5,0,1,48,56,1870956276
109,18,17,Jits_Phase_5,1,5,63,98,1871027424
109,18,17,Jits_Phase_5,2,5,80,127,1871048104
109,18,17,Jits_Phase_5,3,5,56,103,1871058284
109,18,17,Jits_Phase_5,0,1,48,41,1871531712
109,18,17,Jits_Phase_5,1,5,56,103,1871537512
109,18,17,Jits_Phase_5,2,5,63,98,1871540504
109,18,17,Jits_Phase_5,3,5,80,127,1871558120
109,18,17,Jits_Phase_5,0,5,56,103,1871988164
109,18,17,Jits_Phase_5,1,5,63,98,1871998360
109,18,17,Jits_Phase_5,2,5,80,127,1872028032
109,18,17,Jits_Phase_5,3,1,48,50,1872073872
109,18,17,Jits_Phase_5,0,5,63,98,1872508452
109,18,17,Jits_Phase_5,1,5,80,127,1872527716
109,18,17,Jits_Phase_5,2,1,48,46,1872550832
109,18,17,Jits_Phase_5,3,5,56,103,1872567744
109,18,17,Jits_Phase_5,0,5,56,103,1873037800
109,18,17,Jits_Phase_5,1,1,48,46,1873067916
109,18,17,Jits_Phase_5,2,5,63,98,1873077752
109,18,17,Jits_Phase_5,3,5,80,127,1873081116
109,18,17,Jits_Phase_5,0,5,80,127,1873478144
109,18,17,Jits_Phase_5,1,5,56,103,1873517936
109,18,17,Jits_Phase_5,2,5,63,98,1873567984
109,18,17,Jits_Phase_5,3,1,48,50,1873571476
109,18,17,Jits_Phase_5,0,5,56,103,1874037996
109,18,17,Jits_Phase_5,1,5,80,127,1874048492
109,18,17,Jits_Phase_5,2,1,48,44,1874055964
109,18,17,Jits_Phase_5,3,5,63,98,1874078008
109,18,17,Jits_Phase_5,0,5,56,103,1874487864
109,18,17,Jits_Phase_5,1,5,80,127,1874527580
109,18,17,Jits_Phase_5,2,1,48,46,1874551744
109,18,17,Jits_Phase_5,3,5,63,98,1874577848
109,18,17,Jits_Phase_5,0,5,56,103,1874988308
109,18,17,Jits_Phase_5,1,1,48,47,1875015240
109,18,17,Jits_Phase_5,2,5,80,127,1875028312
109,18,17,Jits_Phase_5,3,5,63,98,1875077612
109,18,17,Jits_Phase_5,0,5,80,127,1875478008
109,18,17,Jits_Phase_5,1,1,48,50,1875492212
109,18,17,Jits_Phase_5,2,5,63,98,1875558092
109,18,17,Jits_Phase_5,3,5,56,103,1875567916
109,18,17,Jits_Phase_5,0,1,48,46,1876000068
109,18,17,Jits_Phase_5,1,5,80,127,1876027740
109,18,17,Jits_Phase_5,2,5,56,103,1876037936
109,18,17,Jits_Phase_5,3,5,63,98,1876057644
109,18,17,Jits_Phase_5,0,5,63,98,1876497900
109,18,17,Jits_Phase_5,1,1,48,47,1876504912
109,18,17,Jits_Phase_5,2,5,56,103,1876568472
109,18,17,Jits_Phase_5,3,5,80,127,1876571536
109,18,17,Jits_Phase_5,0,5,80,127,1876988204
109,18,17,Jits_Phase_5,1,1,48,45,1877012296
109,18,17,Jits_Phase_5,2,5,63,98,1877037352
109,18,17,Jits_Phase_5,3,5,56,103,1877078484
109,18,17,Jits_Phase_5,0,1,48,49,1877504636
109,18,17,Jits_Phase_5,1,5,63,98,1877527972
109,18,17,Jits_Phase_5,2,5,56,103,1877567836
109,18,17,Jits_Phase_5,3,5,80,127,1877578180
109,18,17,Jits_Phase_5,0,1,48,47,1878007772
109,18,17,Jits_Phase_5,1,5,63,98,1878018364
109,18,17,Jits_Phase_5,2,5,56,103,1878037996
109,18,17,Jits_Phase_5,3,5,80,127,1878058308
109,18,17,Jits_Phase_5,0,5,80,127,1878478112
109,18,17,Jits_Phase_5,1,5,56,103,1878488532
109,18,17,Jits_Phase_5,2,1,48,52,1878504684
109,18,17,Jits_Phase_5,3,5,63,98,1878508012
109,18,17,Jits_Phase_5,0,1,48,47,1878992592
109,18,17,Jits_Phase_5,1,5,63,98,1879007832
109,18,17,Jits_Phase_5,2,5,56,103,1879047472
109,18,17,Jits_Phase_5,3,5,80,127,1879078120
109,18,17,Jits_Phase_5,0,5,56,103,1879468336
109,18,17,Jits_Phase_5,1,1,48,52,1879497488
109,18,17,Jits_Phase_5,2,5,63,98,1879498980
109,18,17,Jits_Phase_5,3,5,80,127,1879527752
109,18,17,Jits_Phase_5,0,5,80,127,1879888220
109,18,17,Jits_Phase_5,1,5,56,103,1879957828
109,18,17,Jits_Phase_5,2,5,63,98,1879960892
109,18,17,Jits_Phase_5,3,1,48,47,1879990560
109,18,17,Jits_Phase_5,0,5,56,103,1880398168
109,18,17,Jits_Phase_5,1,5,63,98,1880448372
109,18,17,Jits_Phase_5,2,1,48,51,1880454704
109,18,17,Jits_Phase_5,3,5,80,127,1880477964
109,18,17,Jits_Phase_5,0,5,63,98,1880877700
109,18,17,Jits_Phase_5,1,5,80,127,1880880916
109,18,17,Jits_Phase_5,2,5,56,103,1880937868
109,18,17,Jits_Phase_5,3,1,48,50,1880946912
109,18,17,Jits_Phase_5,0,5,56,103,1881407784
109,18,17,Jits_Phase_5,1,5,80,127,1881418056
109,18,17,Jits_Phase_5,2,1,48,45,1881430616
109,18,17,Jits_Phase_5,3,5,63,98,1881468248
109,18,17,Jits_Phase_5,0,5,63,98,1881877812
109,18,17,Jits_Phase_5,1,5,56,103,1881888008
109,18,17,Jits_Phase_5,2,5,80,127,1881917904
109,18,17,Jits_Phase_5,3,1,48,41,1881918796
109,18,17,Jits_Phase_5,0,1,48,41,1882407880
109,18,17,Jits_Phase_5,1,5,63,98,1882409476
109,18,17,Jits_Phase_5,2,5,80,127,1882412528
109,18,17,Jits_Phase_5,3,5,56,103,1882438012
109,18,17,Jits_Phase_5,0,1,48,36,1882913664
109,18,17,Jits_Phase_5,1,5,63,98,1882927636
109,18,17,Jits_Phase_5,2,5,56,103,1882947864
109,18,17,Jits_Phase_5,3,5,80,127,1882951232
109,18,17,Jits_Phase_5,0,5,63,98,1883388276
109,18,17,Jits_Phase_5,1,1,48,38,1883404048
109,18,17,Jits_Phase_5,2,5,56,103,1883457876
109,18,17,Jits_Phase_5,3,5,80,127,1883478332
109,18,17,Jits_Phase_5,0,1,48,43,1883875716
109,18,17,Jits_Phase_5,1,5,56,103,1883877684
109,18,17,Jits_Phase_5,2,5,63,98,1883888028
109,18,17,Jits_Phase_5,3,5,80,127,1883978144
109,18,17,Jits_Phase_5,0,5,56,103,1884397896
109,18,17,Jits_Phase_5,1,1,48,38,1884402736
109,18,17,Jits_Phase_5,2,5,80,127,1884437828
109,18,17,Jits_Phase_5,3,5,63,98,1884448100
109,18,17,Jits_Phase_5,0,1,48,44,1884901220
109,18,17,Jits_Phase_5,1,5,56,103,1884918108
109,18,17,Jits_Phase_5,2,5,63,98,1884947784
109,18,17,Jits_Phase_5,3,5,80,127,1884977608
109,18,17,Jits_Phase_5,0,5,80,127,1885377856
109,18,17,Jits_Phase_5,1,1,48,43,1885396416
109,18,17,Jits_Phase_5,2,5,63,98,1885417864
109,18,17,Jits_Phase_5,3,5,56,103,1885438172
109,18,17,Jits_Phase_5,0,1,48,40,1885852456
109,18,17,Jits_Phase_5,1,5,56,103,1885917696
109,18,17,Jits_Phase_5,2,5,80,127,1885938008
109,18,17,Jits_Phase_5,3,5,63,98,1885957852
109,18,17,Jits_Phase_5,0,1,48,43,1886377392
109,18,17,Jits_Phase_5,1,5,63,98,1886387680
109,18,17,Jits_Phase_5,2,5,56,103,1886397800
109,18,17,Jits_Phase_5,3,5,80,127,1886458264
109,18,17,Jits_Phase_5,0,5,56,103,1886888312
109,18,17,Jits_Phase_5,1,1,48,43,1886909432
109,18,17,Jits_Phase_5,2,5,63,98,1886957788
109,18,17,Jits_Phase_5,3,5,80,127,1886978692
109,18,17,Jits_Phase_5,0,1,48,39,1887384144
109,18,17,Jits_Phase_5,1,5,56,103,1887388000
109,18,17,Jits_Phase_5,2,5,63,98,1887417772
109,18,17,Jits_Phase_5,3,5,80,127,1887457784
109,18,17,Jits_Phase_5,0,1,48,43,1887857980
109,18,17,Jits_Phase_5,1,5,63,98,1887877560
109,18,17,Jits_Phase_5,2,5,56,103,1887927712
109,18,17,Jits_Phase_5,3,5,80,127,1887937756
109,18,17,Jits_Phase_5,0,1,48,40,1888357352
109,18,17,Jits_Phase_5,1,5,56,103,1888418136
109,18,17,Jits_Phase_5,2,5,63,98,1888468572
109,18,17,Jits_Phase_5,3,5,80,127,1888477496
109,18,17,Jits_Phase_5,0,5,56,103,1888888072
109,18,17,Jits_Phase_5,1,5,63,98,1888898492
109,18,17,Jits_Phase_5,2,1,48,37,1888901168
109,18,17,Jits_Phase_5,3,5,80,127,1888978228
109,18,17,Jits_Phase_5,0,9999,9999,9999,1804645504
109,18,17,Jits_Phase_5,1,9999,9999,9999,1805145212
109,18,17,Jits_Phase_5,2,9999,9999,9999,1805645908
109,18,17,Jits_Phase_5,3,9999,9999,9999,1806145632
109,18,17,Jits_Phase_5,4,9999,9999,9999,1806645348
109,18,17,Jits_Phase_5,5,9999,9999,9999,1807146048
109,18,17,Jits_Phase_5,6,9999,9999,9999,1807645760
109,18,17,Jits_Phase_5,7,9999,9999,9999,1808145488
109,18,17,Jits_Phase_5,8,9999,9999,9999,1808645212
109,18,17,Jits_Phase_5,9,9999,9999,9999,1809145964
109,18,17,Jits_Phase_5,10,9999,9999,9999,1809645636
109,18,17,Jits_Phase_5,11,9999,9999,9999,1810145400
109,18,17,Jits_Phase_5,12,9999,9999,9999,1810646116
109,18,17,Jits_Phase_5,13,9999,9999,9999,1811156056
109,18,17,Jits_Phase_5,14,9999,9999,9999,1811655800
109,18,17,Jits_Phase_5,15,9999,9999,9999,1812155488
109,18,17,Jits_Phase_5,16,9999,9999,9999,1812655176
109,18,17,Jits_Phase_5,17,9999,9999,9999,1813155948
109,18,17,Jits_Phase_5,18,9999,9999,9999,1813655624
109,18,17,Jits_Phase_5,19,9999,9999,9999,1814155316
109,18,17,Jits_Phase_5,20,9999,9999,9999,1814656056
109,18,17,Jits_Phase_5,21,9999,9999,9999,1815166004
109,18,17,Jits_Phase_5,22,9999,9999,9999,1815665768
109,18,17,Jits_Phase_5,23,9999,9999,9999,1816165452
109,18,17,Jits_Phase_5,24,9999,9999,9999,1816665144
109,18,17,Jits_Phase_5,25,9999,9999,9999,1817165948
109,18,17,Jits_Phase_5,26,9999,9999,9999,1817665644
109,18,17,Jits_Phase_5,27,9999,9999,9999,1818165308
109,18,17,Jits_Phase_5,28,9999,9999,9999,1818666048
109,18,17,Jits_Phase_5,29,9999,9999,9999,1819165808
109,18,17,Jits_Phase_5,30,9999,9999,9999,1819655236
109,18,17,Jits_Phase_5,31,9999,9999,9999,1820155976
109,18,17,Jits_Phase_5,32,9999,9999,9999,1820655736
109,18,17,Jits_Phase_5,33,9999,9999,9999,1821155424
109,18,17,Jits_Phase_5,34,9999,9999,9999,1821655112
109,18,17,Jits_Phase_5,35,9999,9999,9999,1822155852
109,18,17,Jits_Phase_5,36,9999,9999,9999,1822655592
109,18,17,Jits_Phase_5,37,9999,9999,9999,1823155268
109,18,17,Jits_Phase_5,38,9999,9999,9999,1823656052
109,18,17,Jits_Phase_5,39,9999,9999,9999,1824155724
109,18,17,Jits_Phase_5,40,9999,9999,9999,1824655476
109,18,17,Jits_Phase_5,41,9999,9999,9999,1825155164
109,18,17,Jits_Phase_5,42,9999,9999,9999,1825655896
109,18,17,Jits_Phase_5,43,9999,9999,9999,1826155644
109,18,17,Jits_Phase_5,44,9999,9999,9999,1826655316
109,18,17,Jits_Phase_5,45,9999,9999,9999,1827156048
109,18,17,Jits_Phase_5,46,9999,9999,9999,1827655796
109,18,17,Jits_Phase_5,47,9999,9999,9999,1828155476
109,18,17,Jits_Phase_5,48,9999,9999,9999,1828665420
109,18,17,Jits_Phase_5,49,9999,9999,9999,1829165116
109,18,17,Jits_Phase_5,50,9999,9999,9999,1829665900
109,18,17,Jits_Phase_5,51,9999,9999,9999,1830165592
109,18,17,Jits_Phase_5,52,9999,9999,9999,1830665280
109,18,17,Jits_Phase_5,53,9999,9999,9999,1831166020
109,18,17,Jits_Phase_5,54,9999,9999,9999,1831665772
109,18,17,Jits_Phase_5,55,9999,9999,9999,1832165468
109,18,17,Jits_Phase_5,56,9999,9999,9999,1832665140
109,18,17,Jits_Phase_5,57,9999,9999,9999,1833165948
109,18,17,Jits_Phase_5,58,9999,9999,9999,1833665624
109,18,17,Jits_Phase_5,59,9999,9999,9999,1834165376
109,18,17,Jits_Phase_5,60,9999,9999,9999,1834666092
109,18,17,Jits_Phase_5,61,9999,9999,9999,1835165756
109,18,17,Jits_Phase_5,62,9999,9999,9999,1835665524
109,18,17,Jits_Phase_5,63,9999,9999,9999,1836165196
109,18,17,Jits_Phase_5,64,9999,9999,9999,1836685372
109,18,17,Jits_Phase_5,65,9999,9999,9999,1837185136
109,18,17,Jits_Phase_5,66,9999,9999,9999,1837685876
109,18,17,Jits_Phase_5,67,9999,9999,9999,1838185552
109,18,17,Jits_Phase_5,68,9999,9999,9999,1838685248
109,18,17,Jits_Phase_5,69,9999,9999,9999,1839186044
109,18,17,Jits_Phase_5,70,9999,9999,9999,1839685708
109,18,17,Jits_Phase_5,71,9999,9999,9999,1840185400
109,18,17,Jits_Phase_5,72,9999,9999,9999,1840685164
109,18,17,Jits_Phase_5,73,9999,9999,9999,1841185884
109,18,17,Jits_Phase_5,74,9999,9999,9999,1841685576
109,18,17,Jits_Phase_5,75,9999,9999,9999,1842185324
109,18,17,Jits_Phase_5,76,9999,9999,9999,1842686068
109,18,17,Jits_Phase_5,77,9999,9999,9999,1843185744
109,18,17,Jits_Phase_5,78,9999,9999,9999,1843685436
109,18,17,Jits_Phase_5,79,9999,9999,9999,1844185184
109,18,17,Jits_Phase_5,80,9999,9999,9999,1844685904
109,18,17,Jits_Phase_5,81,9999,9999,9999,1845165128
109,18,17,Jits_Phase_5,82,9999,9999,9999,1845665908
109,18,17,Jits_Phase_5,83,9999,9999,9999,1846165580
109,18,17,Jits_Phase_5,84,9999,9999,9999,1846665332
109,18,17,Jits_Phase_5,85,9999,9999,9999,1847166048
109,18,17,Jits_Phase_5,86,9999,9999,9999,1847665716
109,18,17,Jits_Phase_5,87,9999,9999,9999,1848165480
109,18,17,Jits_Phase_5,88,9999,9999,9999,1848665152
109,18,17,Jits_Phase_5,89,9999,9999,9999,1849165948
109,18,17,Jits_Phase_5,90,9999,9999,9999,1849665624
109,18,17,Jits_Phase_5,91,9999,9999,9999,1850165368
109,18,17,Jits_Phase_5,92,9999,9999,9999,1850666088
109,18,17,Jits_Phase_5,93,9999,9999,9999,1851165764
109,18,17,Jits_Phase_5,94,9999,9999,9999,1851665508
109,18,17,Jits_Phase_5,95,9999,9999,9999,1852165196
109,18,17,Jits_Phase_5,96,9999,9999,9999,1852665932
109,18,17,Jits_Phase_5,97,9999,9999,9999,1853115488
109,18,17,Jits_Phase_5,98,9999,9999,9999,1853615160
109,18,17,Jits_Phase_5,99,9999,9999,9999,1854115920
109,18,17,Jits_Phase_5,100,9999,9999,9999,1854615664
109,18,17,Jits_Phase_5,101,9999,9999,9999,1855115356
109,18,17,Jits_Phase_5,102,9999,9999,9999,1855616068
109,18,17,Jits_Phase_5,103,9999,9999,9999,1856126012
109,18,17,Jits_Phase_5,104,9999,9999,9999,1856625764
109,18,17,Jits_Phase_5,105,9999,9999,9999,1857125432
109,18,17,Jits_Phase_5,106,9999,9999,9999,1857625180
109,18,17,Jits_Phase_5,107,9999,9999,9999,1858125896
109,18,17,Jits_Phase_5,108,9999,9999,9999,1858625656
109,18,17,Jits_Phase_5,109,9999,9999,9999,1859125344
109,18,17,Jits_Phase_5,110,9999,9999,9999,1859626084
109,18,17,Jits_Phase_5,111,9999,9999,9999,1860125772
109,18,17,Jits_Phase_5,112,9999,9999,9999,1860625532
109,18,17,Jits_Phase_5,113,9999,9999,9999,1861125212
109,18,17,Jits_Phase_5,114,9999,9999,9999,1861675080
109,18,17,Jits_Phase_5,115,9999,9999,9999,1862175868
109,18,17,Jits_Phase_5,116,9999,9999,9999,1862675540
109,18,17,Jits_Phase_5,117,9999,9999,9999,1863175288
109,18,17,Jits_Phase_5,118,9999,9999,9999,1863676028
109,18,17,Jits_Phase_5,119,9999,9999,9999,1864175696
109,18,17,Jits_Phase_5,120,9999,9999,9999,1864675380
109,18,17,Jits_Phase_5,121,9999,9999,9999,1865175132
109,18,17,Jits_Phase_5,122,9999,9999,9999,1865675868
109,18,17,Jits_Phase_5,123,9999,9999,9999,1866175556
109,18,17,Jits_Phase_5,124,9999,9999,9999,1866675304
109,18,17,Jits_Phase_5,125,9999,9999,9999,1867176000
109,18,17,Jits_Phase_5,126,9999,9999,9999,1867675748
109,18,17,Jits_Phase_5,127,9999,9999,9999,1868175420
109,18,17,Jits_Phase_5,128,9999,9999,9999,1868675144
109,18,17,Jits_Phase_5,129,9999,9999,9999,1869175880
109,18,17,Jits_Phase_5,130,9999,9999,9999,1869675640
109,18,17,Jits_Phase_5,131,9999,9999,9999,1870275648
109,18,17,Jits_Phase_5,132,9999,9999,9999,1870775392
109,18,17,Jits_Phase_5,133,9999,9999,9999,1871275068
109,18,17,Jits_Phase_5,134,9999,9999,9999,1871775832
109,18,17,Jits_Phase_5,135,9999,9999,9999,1872275580
109,18,17,Jits_Phase_5,136,9999,9999,9999,1872775272
109,18,17,Jits_Phase_5,137,9999,9999,9999,1873275988
109,18,17,Jits_Phase_5,138,9999,9999,9999,1873775680
109,18,17,Jits_Phase_5,139,9999,9999,9999,1874275448
109,18,17,Jits_Phase_5,140,9999,9999,9999,1874775140
109,18,17,Jits_Phase_5,141,9999,9999,9999,1875275848
109,18,17,Jits_Phase_5,142,9999,9999,9999,1875775544
109,18,17,Jits_Phase_5,143,9999,9999,9999,1876275308
109,18,17,Jits_Phase_5,144,9999,9999,9999,1876776020
109,18,17,Jits_Phase_5,145,9999,9999,9999,1877275776
109,18,17,Jits_Phase_5,146,9999,9999,9999,1877775472
109,18,17,Jits_Phase_5,147,9999,9999,9999,1878275148
109,18,17,Jits_Phase_5,148,9999,9999,9999,1878775868
109,18,17,Jits_Phase_5,149,9999,9999,9999,1879275632
109,18,17,Jits_Phase_5,150,9999,9999,9999,1879676024
109,18,17,Jits_Phase_5,151,9999,9999,9999,1880175708
109,18,17,Jits_Phase_5,152,9999,9999,9999,1880675400
109,18,17,Jits_Phase_5,153,9999,9999,9999,1881175152
109,18,17,Jits_Phase_5,154,9999,9999,9999,1881675876
109,18,17,Jits_Phase_5,155,9999,9999,9999,1882175564
109,18,17,Jits_Phase_5,156,9999,9999,9999,1882675304
109,18,17,Jits_Phase_5,157,9999,9999,9999,1883176016
109,18,17,Jits_Phase_5,158,9999,9999,9999,1883675772
109,18,17,Jits_Phase_5,159,9999,9999,9999,1884175448
109,18,17,Jits_Phase_5,160,9999,9999,9999,1884675128
109,18,17,Jits_Phase_5,161,9999,9999,9999,1885175868
109,18,17,Jits_Phase_5,162,9999,9999,9999,1885675612
109,18,17,Jits_Phase_5,163,9999,9999,9999,1886175308
109,18,17,Jits_Phase_5,164,9999,9999,9999,1886676076
109,18,17,Jits_Phase_5,165,9999,9999,9999,1887175756
109,18,17,Jits_Phase_5,166,9999,9999,9999,1887675448
109,18,17,Jits_Phase_5,167,9999,9999,9999,1888175196
109,18,17,Jits_Phase_5,168,9999,9999,9999,1888675896
109,18,17,Jits_Phase_5,169,9999,9999,9999,1889175640
109,19,15,Jits_Phase_8,0,5,56,103,1897348540
109,19,15,Jits_Phase_8,1,5,63,98,1897351716
109,19,15,Jits_Phase_8,2,5,80,127,1897354908
109,19,15,Jits_Phase_8,0,5,56,103,1898149456
109,19,15,Jits_Phase_8,1,5,63,98,1898152480
109,19,15,Jits_Phase_8,2,5,80,127,1898155624
109,19,15,Jits_Phase_8,0,5,80,127,1898888428
109,19,15,Jits_Phase_8,1,5,63,98,1898978664
109,19,15,Jits_Phase_8,2,5,56,103,1898988932
109,19,15,Jits_Phase_8,0,5,56,103,1899708640
109,19,15,Jits_Phase_8,1,5,63,98,1899718988
109,19,15,Jits_Phase_8,2,5,80,127,1899809340
109,19,15,Jits_Phase_8,0,5,63,98,1900478784
109,19,15,Jits_Phase_8,1,5,80,127,1900508384
109,19,15,Jits_Phase_8,2,5,56,103,1900539328
109,19,15,Jits_Phase_8,0,5,56,103,1901278652
109,19,15,Jits_Phase_8,1,1,48,27,1901315704
109,19,15,Jits_Phase_8,2,5,80,127,1901378972
109,19,15,Jits_Phase_8,3,5,63,98,1901429232
109,19,15,Jits_Phase_8,0,1,48,30,1902064456
109,19,15,Jits_Phase_8,1,5,56,103,1902079472
109,19,15,Jits_Phase_8,2,5,80,127,1902128480
109,19,15,Jits_Phase_8,3,5,63,98,1902168328
109,19,15,Jits_Phase_8,0,1,48,31,1902834464
109,19,15,Jits_Phase_8,1,5,80,127,1902908824
109,19,15,Jits_Phase_8,2,5,63,98,1902938484
109,19,15,Jits_Phase_8,3,5,56,103,1903009136
109,19,15,Jits_Phase_8,0,1,48,23,1903635500
109,19,15,Jits_Phase_8,1,5,63,98,1903739284
109,19,15,Jits_Phase_8,2,5,56,103,1903769036
109,19,15,Jits_Phase_8,3,5,80,127,1903829448
109,19,15,Jits_Phase_8,0,1,48,25,1904456684
109,19,15,Jits_Phase_8,1,5,56,103,1904478676
109,19,15,Jits_Phase_8,2,5,80,127,1904481668
109,19,15,Jits_Phase_8,3,5,63,98,1904599528
109,19,15,Jits_Phase_8,0,1,48,31,1905316296
109,19,15,Jits_Phase_8,1,5,56,103,1905359288
109,19,15,Jits_Phase_8,2,5,80,127,1905399300
109,19,15,Jits_Phase_8,3,5,63,98,1905409424
109,19,15,Jits_Phase_8,0,5,56,103,1906119128
109,19,15,Jits_Phase_8,1,1,48,32,1906132288
109,19,15,Jits_Phase_8,2,5,80,127,1906138608
109,19,15,Jits_Phase_8,3,5,63,98,1906219372
109,19,15,Jits_Phase_8,0,5,80,127,1906908412
109,19,15,Jits_Phase_8,1,1,48,32,1906940376
109,19,15,Jits_Phase_8,2,5,56,103,1907008804
109,19,15,Jits_Phase_8,3,5,63,98,1907019296
109,19,15,Jits_Phase_8,0,5,63,98,1907678524
109,19,15,Jits_Phase_8,1,1,48,21,1907731764
109,19,15,Jits_Phase_8,2,5,80,127,1907739132
109,19,15,Jits_Phase_8,3,5,56,103,1907749176
109,19,15,Jits_Phase_8,0,1,48,37,1908469628
109,19,15,Jits_Phase_8,1,5,56,103,1908479320
109,19,15,Jits_Phase_8,2,5,63,98,1908549072
109,19,15,Jits_Phase_8,3,5,80,127,1908552364
109,19,15,Jits_Phase_8,0,1,48,39,1909269528
109,19,15,Jits_Phase_8,1,5,63,98,1909308660
109,19,15,Jits_Phase_8,2,5,56,103,1909359384
109,19,15,Jits_Phase_8,3,5,80,127,1909362960
109,19,15,Jits_Phase_8,0,5,56,103,1910068628
109,19,15,Jits_Phase_8,1,1,48,33,1910070292
109,19,15,Jits_Phase_8,2,5,80,127,1910072808
109,19,15,Jits_Phase_8,3,5,63,98,1910158676
109,19,15,Jits_Phase_8,0,1,48,36,1910880788
109,19,15,Jits_Phase_8,1,5,63,98,1910909284
109,19,15,Jits_Phase_8,2,5,56,103,1910999428
109,19,15,Jits_Phase_8,3,5,80,127,1911029328
109,19,15,Jits_Phase_8,0,1,48,38,1911689092
109,19,15,Jits_Phase_8,1,5,56,103,1911698784
109,19,15,Jits_Phase_8,2,5,63,98,1911799340
109,19,15,Jits_Phase_8,3,5,80,127,1911828720
109,19,15,Jits_Phase_8,0,1,48,32,1912503112
109,19,15,Jits_Phase_8,1,5,63,98,1912519100
109,19,15,Jits_Phase_8,2,5,56,103,1912529296
109,19,15,Jits_Phase_8,3,5,80,127,1912619336
109,19,15,Jits_Phase_8,0,1,48,39,1913317192
109,19,15,Jits_Phase_8,1,5,63,98,1913339240
109,19,15,Jits_Phase_8,2,5,56,103,1913419244
109,19,15,Jits_Phase_8,3,5,80,127,1913422164
109,19,15,Jits_Phase_8,0,5,80,127,1914099224
109,19,15,Jits_Phase_8,1,5,63,98,1914118412
109,19,15,Jits_Phase_8,2,1,48,36,1914141160
109,19,15,Jits_Phase_8,3,5,56,103,1914179092
109,19,15,Jits_Phase_8,0,1,48,36,1914907060
109,19,15,Jits_Phase_8,1,5,56,103,1914938920
109,19,15,Jits_Phase_8,2,5,63,98,1914959228
109,19,15,Jits_Phase_8,3,5,80,127,1914962444
109,19,15,Jits_Phase_8,0,5,63,98,1915679188
109,19,15,Jits_Phase_8,1,1,48,41,1915680452
109,19,15,Jits_Phase_8,2,5,80,127,1915758980
109,19,15,Jits_Phase_8,3,5,56,103,1915769324
109,19,15,Jits_Phase_8,0,1,48,33,1916470976
109,19,15,Jits_Phase_8,1,5,63,98,1916499248
109,19,15,Jits_Phase_8,2,5,56,103,1916518660
109,19,15,Jits_Phase_8,3,5,80,127,1916568992
109,19,15,Jits_Phase_8,0,1,48,39,1917279872
109,19,15,Jits_Phase_8,1,5,80,127,1917299152
109,19,15,Jits_Phase_8,2,5,63,98,1917339092
109,19,15,Jits_Phase_8,3,5,56,103,1917358380
109,19,15,Jits_Phase_8,0,1,48,33,1918108552
109,19,15,Jits_Phase_8,1,5,56,103,1918138720
109,19,15,Jits_Phase_8,2,5,63,98,1918149140
109,19,15,Jits_Phase_8,3,5,80,127,1918168404
109,19,15,Jits_Phase_8,0,5,56,103,1918869008
109,19,15,Jits_Phase_8,1,1,48,40,1918886432
109,19,15,Jits_Phase_8,2,5,63,98,1918959012
109,19,15,Jits_Phase_8,3,5,80,127,1919019312
109,19,15,Jits_Phase_8,0,5,80,127,1919699376
109,19,15,Jits_Phase_8,1,5,56,103,1919708600
109,19,15,Jits_Phase_8,2,1,48,32,1919714184
109,19,15,Jits_Phase_8,3,5,63,98,1919779096
109,19,15,Jits_Phase_8,0,1,48,41,1920514620
109,19,15,Jits_Phase_8,1,5,63,98,1920528964
109,19,15,Jits_Phase_8,2,5,80,127,1920619080
109,19,15,Jits_Phase_8,3,5,56,103,1920629056
109,19,15,Jits_Phase_8,0,5,63,98,1921258908
109,19,15,Jits_Phase_8,1,5,80,127,1921309184
109,19,15,Jits_Phase_8,2,1,48,38,1921321740
109,19,15,Jits_Phase_8,3,5,56,103,1921368368
109,19,15,Jits_Phase_8,0,1,48,40,1922079264
109,19,15,Jits_Phase_8,1,5,56,103,1922080600
109,19,15,Jits_Phase_8,2,5,80,127,1922129164
109,19,15,Jits_Phase_8,3,5,63,98,1922148800
109,19,15,Jits_Phase_8,0,5,56,103,1922849056
109,19,15,Jits_Phase_8,1,1,48,38,1922864308
109,19,15,Jits_Phase_8,2,5,80,127,1922908392
109,19,15,Jits_Phase_8,3,5,63,98,1922979176
109,19,15,Jits_Phase_8,0,1,48,32,1923647156
109,19,15,Jits_Phase_8,1,5,56,103,1923648964
109,19,15,Jits_Phase_8,2,5,80,127,1923678640
109,19,15,Jits_Phase_8,3,5,63,98,1923709288
109,19,15,Jits_Phase_8,0,1,48,40,1924431160
109,19,15,Jits_Phase_8,1,5,56,103,1924488504
109,19,15,Jits_Phase_8,2,5,80,127,1924509036
109,19,15,Jits_Phase_8,3,5,63,98,1924568536
109,19,15,Jits_Phase_8,0,1,48,36,1925176980
109,19,15,Jits_Phase_8,1,5,80,127,1925369332
109,19,15,Jits_Phase_8,2,5,56,103,1925378332
109,19,15,Jits_Phase_8,3,5,63,98,1925388604
109,19,15,Jits_Phase_8,0,1,48,29,1926028884
109,19,15,Jits_Phase_8,1,5,56,103,1926129164
109,19,15,Jits_Phase_8,2,5,80,127,1926169028
109,19,15,Jits_Phase_8,3,5,63,98,1926199000
109,19,15,Jits_Phase_8,0,1,48,34,1926865376
109,19,15,Jits_Phase_8,1,5,56,103,1926899196
109,19,15,Jits_Phase_8,2,5,63,98,1926928948
109,19,15,Jits_Phase_8,3,5,80,127,1926968796
109,19,15,Jits_Phase_8,0,5,80,127,1927648760
109,19,15,Jits_Phase_8,1,5,63,98,1927698964
109,19,15,Jits_Phase_8,2,1,48,35,1927701784
109,19,15,Jits_Phase_8,3,5,56,103,1927719264
109,19,15,Jits_Phase_8,0,5,56,103,1928479020
109,19,15,Jits_Phase_8,1,1,48,35,1928504308
109,19,15,Jits_Phase_8,2,5,80,127,1928548696
109,19,15,Jits_Phase_8,3,5,63,98,1928609144
109,19,15,Jits_Phase_8,0,5,80,127,1929278944
109,19,15,Jits_Phase_8,1,1,48,33,1929304312
109,19,15,Jits_Phase_8,2,5,63,98,1929368996
109,19,15,Jits_Phase_8,3,5,56,103,1929389408
109,19,15,Jits_Phase_8,0,5,63,98,1930099176
109,19,15,Jits_Phase_8,1,1,48,35,1930101996
109,19,15,Jits_Phase_8,2,5,56,103,1930118508
109,19,15,Jits_Phase_8,3,5,80,127,1930158396
109,19,15,Jits_Phase_8,0,5,80,127,1930858776
109,19,15,Jits_Phase_8,1,5,63,98,1930879312
109,19,15,Jits_Phase_8,2,1,48,33,1930906940
109,19,15,Jits_Phase_8,3,5,56,103,1930959348
109,19,15,Jits_Phase_8,0,1,48,35,1931597680
109,19,15,Jits_Phase_8,1,5,63,98,1931649400
109,19,15,Jits_Phase_8,2,5,56,103,1931759096
109,19,15,Jits_Phase_8,3,5,80,127,1931762012
109,19,15,Jits_Phase_8,0,1,48,27,1932377048
109,19,15,Jits_Phase_8,1,5,63,98,1932468728
109,19,15,Jits_Phase_8,2,5,56,103,1932478832
109,19,15,Jits_Phase_8,3,5,80,127,1932481824
109,19,15,Jits_Phase_8,0,1,48,34,1933163972
109,19,15,Jits_Phase_8,1,5,56,103,1933248840
109,19,15,Jits_Phase_8,2,5,80,127,1933368704
109,19,15,Jits_Phase_8,3,5,63,98,1933408716
109,19,15,Jits_Phase_8,0,1,48,27,1934039656
109,19,15,Jits_Phase_8,1,5,56,103,1934069124
109,19,15,Jits_Phase_8,2,5,80,127,1934148832
109,19,15,Jits_Phase_8,3,5,63,98,1934168540
109,19,15,Jits_Phase_8,0,1,48,26,1934861812
109,19,15,Jits_Phase_8,1,5,56,103,1934868732
109,19,15,Jits_Phase_8,2,5,63,98,1934978480
109,19,15,Jits_Phase_8,3,5,80,127,1934981844
109,19,15,Jits_Phase_8,0,1,48,29,1935697160
109,19,15,Jits_Phase_8,1,5,56,103,1935708792
109,19,15,Jits_Phase_8,2,5,80,127,1935739216
109,19,15,Jits_Phase_8,3,5,63,98,1935758852
109,19,15,Jits_Phase_8,0,1,48,30,1936440500
109,19,15,Jits_Phase_8,1,5,63,98,1936499040
109,19,15,Jits_Phase_8,2,5,56,103,1936509236
109,19,15,Jits_Phase_8,3,5,80,127,1936518756
109,19,15,Jits_Phase_8,0,1,48,33,1937216188
109,19,15,Jits_Phase_8,1,5,80,127,1937288748
109,19,15,Jits_Phase_8,2,5,56,103,1937338884
109,19,15,Jits_Phase_8,3,5,63,98,1937378676
109,19,15,Jits_Phase_8,0,1,48,26,1938058888
109,19,15,Jits_Phase_8,1,5,80,127,1938108908
109,19,15,Jits_Phase_8,2,5,63,98,1938129220
109,19,15,Jits_Phase_8,3,5,56,103,1938178284
109,19,15,Jits_Phase_8,0,1,48,22,1938909688
109,19,15,Jits_Phase_8,1,5,80,127,1938918780
109,19,15,Jits_Phase_8,2,5,56,103,1938948680
109,19,15,Jits_Phase_8,3,5,63,98,1939019020
109,19,15,Jits_Phase_8,0,1,48,24,1939689896
109,19,15,Jits_Phase_8,1,5,56,103,1939768816
109,19,15,Jits_Phase_8,2,5,80,127,1939779012
109,19,15,Jits_Phase_8,3,5,63,98,1939819008
109,19,15,Jits_Phase_8,0,5,56,103,1940479280
109,19,15,Jits_Phase_8,1,1,48,29,1940484196
109,19,15,Jits_Phase_8,2,5,63,98,1940498688
109,19,15,Jits_Phase_8,3,5,80,127,1940568592
109,19,15,Jits_Phase_8,0,1,48,25,1941217736
109,19,15,Jits_Phase_8,1,5,63,98,1941298676
109,19,15,Jits_Phase_8,2,5,80,127,1941358828
109,19,15,Jits_Phase_8,3,5,56,103,1941378536
109,19,15,Jits_Phase_8,0,1,48,33,1942040412
109,19,15,Jits_Phase_8,1,5,80,127,1942089064
109,19,15,Jits_Phase_8,2,5,56,103,1942118816
109,19,15,Jits_Phase_8,3,5,63,98,1942148696
109,19,15,Jits_Phase_8,0,1,48,30,1942847592
109,19,15,Jits_Phase_8,1,5,56,103,1942888744
109,19,15,Jits_Phase_8,2,5,63,98,1942949268
109,19,15,Jits_Phase_8,3,5,80,127,1943008708
109,19,15,Jits_Phase_8,0,1,48,31,1943663896
109,19,15,Jits_Phase_8,1,5,80,127,1943709176
109,19,15,Jits_Phase_8,2,5,56,103,1943728616
109,19,15,Jits_Phase_8,3,5,63,98,1943799028
109,19,15,Jits_Phase_8,0,1,48,26,1944498232
109,19,15,Jits_Phase_8,1,5,80,127,1944508888
109,19,15,Jits_Phase_8,2,5,63,98,1944529272
109,19,15,Jits_Phase_8,3,5,56,103,1944559096
109,19,15,Jits_Phase_8,0,5,80,127,1945299284
109,19,15,Jits_Phase_8,1,5,63,98,1945318700
109,19,15,Jits_Phase_8,2,1,48,31,1945336344
109,19,15,Jits_Phase_8,3,5,56,103,1945379228
109,19,15,Jits_Phase_8,0,5,80,127,1946098984
109,19,15,Jits_Phase_8,1,1,48,21,1946139868
109,19,15,Jits_Phase_8,2,5,56,103,1946199600
109,19,15,Jits_Phase_8,3,5,63,98,1946229052
109,19,15,Jits_Phase_8,0,5,63,98,1946888572
109,19,15,Jits_Phase_8,1,1,48,32,1946931476
109,19,15,Jits_Phase_8,2,5,80,127,1946938772
109,19,15,Jits_Phase_8,3,5,56,103,1946959228
109,19,15,Jits_Phase_8,0,1,48,29,1947713092
109,19,15,Jits_Phase_8,1,5,80,127,1947729376
109,19,15,Jits_Phase_8,2,5,56,103,1947758976
109,19,15,Jits_Phase_8,3,5,63,98,1947761968
109,19,15,Jits_Phase_8,0,1,48,34,1948517120
109,19,15,Jits_Phase_8,1,5,63,98,1948579324
109,19,15,Jits_Phase_8,2,5,56,103,1948619052
109,19,15,Jits_Phase_8,3,5,80,127,1948638612
109,19,15,Jits_Phase_8,0,1,48,33,1949287592
109,19,15,Jits_Phase_8,1,5,80,127,1949338932
109,19,15,Jits_Phase_8,2,5,63,98,1949418812
109,19,15,Jits_Phase_8,3,5,56,103,1949458752
109,19,15,Jits_Phase_8,0,1,48,36,1950139964
109,19,15,Jits_Phase_8,1,5,63,98,1950159396
109,19,15,Jits_Phase_8,2,5,80,127,1950239176
109,19,15,Jits_Phase_8,3,5,56,103,1950258440
109,19,15,Jits_Phase_8,0,1,48,34,1950970524
109,19,15,Jits_Phase_8,1,5,56,103,1950998872
109,19,15,Jits_Phase_8,2,5,63,98,1951009068
109,19,15,Jits_Phase_8,3,5,80,127,1951049080
109,19,15,Jits_Phase_8,0,5,56,103,1951718616
109,19,15,Jits_Phase_8,1,5,80,127,1951721692
109,19,15,Jits_Phase_8,2,1,48,36,1951765184
109,19,15,Jits_Phase_8,3,5,63,98,1951858940
109,19,15,Jits_Phase_8,0,1,48,31,1952479844
109,19,15,Jits_Phase_8,1,5,56,103,1952509460
109,19,15,Jits_Phase_8,2,5,63,98,1952599508
109,19,15,Jits_Phase_8,3,5,80,127,1952669036
109,19,15,Jits_Phase_8,0,1,48,30,1953258780
109,19,15,Jits_Phase_8,1,5,63,98,1953389000
109,19,15,Jits_Phase_8,2,5,80,127,1953392364
109,19,15,Jits_Phase_8,3,5,56,103,1953449488
109,19,15,Jits_Phase_8,0,1,48,29,1954149636
109,19,15,Jits_Phase_8,1,5,80,127,1954228804
109,19,15,Jits_Phase_8,2,5,56,103,1954250072
109,19,15,Jits_Phase_8,3,5,63,98,1954259516
109,19,15,Jits_Phase_8,0,5,56,103,1954939544
109,19,15,Jits_Phase_8,1,1,48,32,1954941912
109,19,15,Jits_Phase_8,2,5,63,98,1954948536
109,19,15,Jits_Phase_8,3,5,80,127,1955018992
109,19,15,Jits_Phase_8,0,1,48,28,1955703020
109,19,15,Jits_Phase_8,1,5,80,127,1955738932
109,19,15,Jits_Phase_8,2,5,56,103,1955789308
109,19,15,Jits_Phase_8,3,5,63,98,1955839420
109,19,15,Jits_Phase_8,0,1,48,31,1956462844
109,19,15,Jits_Phase_8,1,5,56,103,1956618572
109,19,15,Jits_Phase_8,2,5,63,98,1956628992
109,19,15,Jits_Phase_8,3,5,80,127,1956668780
109,19,15,Jits_Phase_8,0,1,48,35,1957291556
109,19,15,Jits_Phase_8,1,5,56,103,1957358940
109,19,15,Jits_Phase_8,2,5,63,98,1957398940
109,19,15,Jits_Phase_8,3,5,80,127,1957449364
109,19,15,Jits_Phase_8,0,1,48,29,1958111772
109,19,15,Jits_Phase_8,1,5,80,127,1958118696
109,19,15,Jits_Phase_8,2,5,56,103,1958168896
109,19,15,Jits_Phase_8,3,5,63,98,1958189504
109,19,15,Jits_Phase_8,0,1,48,33,1958888232
109,19,15,Jits_Phase_8,1,5,80,127,1958928864
109,19,15,Jits_Phase_8,2,5,63,98,1958989316
109,19,15,Jits_Phase_8,3,5,56,103,1959069032
109,19,15,Jits_Phase_8,0,1,48,36,1959648436
109,19,15,Jits_Phase_8,1,5,80,127,1959709140
109,19,15,Jits_Phase_8,2,5,56,103,1959749140
109,19,15,Jits_Phase_8,3,5,63,98,1959768404
109,19,15,Jits_Phase_8,0,1,48,30,1960450356
109,19,15,Jits_Phase_8,1,5,56,103,1960558928
109,19,15,Jits_Phase_8,2,5,80,127,1960569496
109,19,15,Jits_Phase_8,3,5,63,98,1960609136
109,19,15,Jits_Phase_8,0,1,48,28,1961242916
109,19,15,Jits_Phase_8,1,5,56,103,1961429212
109,19,15,Jits_Phase_8,2,5,63,98,1961469224
109,19,15,Jits_Phase_8,3,5,80,127,1961472664
109,19,15,Jits_Phase_8,0,5,63,98,1962099204
109,19,15,Jits_Phase_8,1,1,48,31,1962120832
109,19,15,Jits_Phase_8,2,5,80,127,1962139208
109,19,15,Jits_Phase_8,3,5,56,103,1962208540
109,19,15,Jits_Phase_8,0,5,63,98,1962869220
109,19,15,Jits_Phase_8,1,1,48,29,1962880212
109,19,15,Jits_Phase_8,2,5,56,103,1962949256
109,19,15,Jits_Phase_8,3,5,80,127,1963009484
109,19,15,Jits_Phase_8,0,5,80,127,1963679168
109,19,15,Jits_Phase_8,1,1,48,27,1963697828
109,19,15,Jits_Phase_8,2,5,63,98,1963729240
109,19,15,Jits_Phase_8,3,5,56,103,1963758840
109,19,15,Jits_Phase_8,0,5,56,103,1964468476
109,19,15,Jits_Phase_8,1,1,48,33,1964498940
109,19,15,Jits_Phase_8,2,5,63,98,1964518896
109,19,15,Jits_Phase_8,3,5,80,127,1964529388
109,19,15,Jits_Phase_8,0,1,48,28,1965227236
109,19,15,Jits_Phase_8,1,5,56,103,1965278500
109,19,15,Jits_Phase_8,2,5,63,98,1965389444
109,19,15,Jits_Phase_8,3,5,80,127,1965408484
109,19,15,Jits_Phase_8,0,1,48,24,1966036344
109,19,15,Jits_Phase_8,1,5,63,98,1966079312
109,19,15,Jits_Phase_8,2,5,80,127,1966128468
109,19,15,Jits_Phase_8,3,5,56,103,1966218508
109,19,15,Jits_Phase_8,0,1,48,27,1966861736
109,19,15,Jits_Phase_8,1,5,63,98,1966868808
109,19,15,Jits_Phase_8,2,5,80,127,1966898636
109,19,15,Jits_Phase_8,3,5,56,103,1966988676
109,19,15,Jits_Phase_8,0,5,63,98,1967668572
109,19,15,Jits_Phase_8,1,5,56,103,1967678768
109,19,15,Jits_Phase_8,2,1,48,23,1967698076
109,19,15,Jits_Phase_8,3,5,80,127,1967779304
109,19,15,Jits_Phase_8,0,1,48,27,1968508896
109,19,15,Jits_Phase_8,1,5,63,98,1968568664
109,19,15,Jits_Phase_8,2,5,80,127,1968599532
109,19,15,Jits_Phase_8,3,5,56,103,1968629192
109,19,15,Jits_Phase_8,0,1,48,27,1969320744
109,19,15,Jits_Phase_8,1,5,80,127,1969389104
109,19,15,Jits_Phase_8,2,5,63,98,1969399448
109,19,15,Jits_Phase_8,3,5,56,103,1969428736
109,19,15,Jits_Phase_8,0,5,80,127,1970089452
109,19,15,Jits_Phase_8,1,5,63,98,1970108720
109,19,15,Jits_Phase_8,2,1,48,21,1970128176
109,19,15,Jits_Phase_8,3,5,56,103,1970159208
109,19,15,Jits_Phase_8,0,1,48,28,1970871440
109,19,15,Jits_Phase_8,1,5,63,98,1970918964
109,19,15,Jits_Phase_8,2,5,80,127,1970979264
109,19,15,Jits_Phase_8,3,5,56,103,1970998604
109,19,15,Jits_Phase_8,0,1,48,29,1971645568
109,19,15,Jits_Phase_8,1,5,63,98,1971678644
109,19,15,Jits_Phase_8,2,5,56,103,1971728696
109,19,15,Jits_Phase_8,3,5,80,127,1971739176
109,19,15,Jits_Phase_8,0,1,48,26,1972472520
109,19,15,Jits_Phase_8,1,5,56,103,1972509260
109,19,15,Jits_Phase_8,2,5,80,127,1972519456
109,19,15,Jits_Phase_8,3,5,63,98,1972618640
109,19,15,Jits_Phase_8,0,1,48,31,1973231224
109,19,15,Jits_Phase_8,1,5,80,127,1973268936
109,19,15,Jits_Phase_8,2,5,63,98,1973279356
109,19,15,Jits_Phase_8,3,5,56,103,1973428608
109,19,15,Jits_Phase_8,0,1,48,28,1974028588
109,19,15,Jits_Phase_8,1,5,63,98,1974078956
109,19,15,Jits_Phase_8,2,5,80,127,1974118896
109,19,15,Jits_Phase_8,3,5,56,103,1974198772
109,19,15,Jits_Phase_8,0,1,48,30,1974768108
109,19,15,Jits_Phase_8,1,5,56,103,1974829488
109,19,15,Jits_Phase_8,2,5,80,127,1974928900
109,19,15,Jits_Phase_8,3,5,63,98,1974949136
109,19,15,Jits_Phase_8,0,1,48,25,1975630104
109,19,15,Jits_Phase_8,1,5,80,127,1975648636
109,19,15,Jits_Phase_8,2,5,56,103,1975659204
109,19,15,Jits_Phase_8,3,5,63,98,1975748972
109,19,15,Jits_Phase_8,0,5,56,103,1976449376
109,19,15,Jits_Phase_8,1,1,48,26,1976463808
109,19,15,Jits_Phase_8,2,5,63,98,1976469008
109,19,15,Jits_Phase_8,3,5,80,127,1976548676
109,19,15,Jits_Phase_8,0,5,63,98,1977199176
109,19,15,Jits_Phase_8,1,1,48,32,1977272068
109,19,15,Jits_Phase_8,2,5,56,103,1977289176
109,19,15,Jits_Phase_8,3,5,80,127,1977292244
109,19,15,Jits_Phase_8,0,1,48,27,1977974388
109,19,15,Jits_Phase_8,1,5,56,103,1978029364
109,19,15,Jits_Phase_8,2,5,80,127,1978088768
109,19,15,Jits_Phase_8,3,5,63,98,1978099264
109,19,15,Jits_Phase_8,0,1,48,32,1978769736
109,19,15,Jits_Phase_8,1,5,80,127,1978879308
109,19,15,Jits_Phase_8,2,5,56,103,1978888532
109,19,15,Jits_Phase_8,3,5,63,98,1978891672
109,19,15,Jits_Phase_8,0,1,48,35,1979587128
109,19,15,Jits_Phase_8,1,5,56,103,1979639144
109,19,15,Jits_Phase_8,2,5,80,127,1979649340
109,19,15,Jits_Phase_8,3,5,63,98,1979669272
109,19,15,Jits_Phase_8,0,5,63,98,1980409156
109,19,15,Jits_Phase_8,1,1,48,27,1980455052
109,19,15,Jits_Phase_8,2,5,80,127,1980468572
109,19,15,Jits_Phase_8,3,5,56,103,1980518696
109,19,15,Jits_Phase_8,0,1,48,37,1981212032
109,19,15,Jits_Phase_8,1,5,63,98,1981289004
109,19,15,Jits_Phase_8,2,5,56,103,1981299048
109,19,15,Jits_Phase_8,3,5,80,127,1981349260
109,19,15,Jits_Phase_8,0,5,63,98,1981989132
109,19,15,Jits_Phase_8,1,5,80,127,1982008764
109,19,15,Jits_Phase_8,2,5,56,103,1982018888
109,19,15,Jits_Phase_8,3,1,48,25,1982055260
109,19,15,Jits_Phase_8,0,1,48,36,1982780904
109,19,15,Jits_Phase_8,1,5,63,98,1982789096
109,19,15,Jits_Phase_8,2,5,80,127,1982792236
109,19,15,Jits_Phase_8,3,5,56,103,1982828956
109,19,15,Jits_Phase_8,0,1,48,37,1983562960
109,19,15,Jits_Phase_8,1,5,63,98,1983659348
109,19,15,Jits_Phase_8,2,5,80,127,1983688948
109,19,15,Jits_Phase_8,3,5,56,103,1983699292
109,19,15,Jits_Phase_8,0,1,48,31,1984404748
109,19,15,Jits_Phase_8,1,5,56,103,1984409052
109,19,15,Jits_Phase_8,2,5,80,127,1984438680
109,19,15,Jits_Phase_8,3,5,63,98,1984469400
109,19,15,Jits_Phase_8,0,1,48,34,1985239748
109,19,15,Jits_Phase_8,1,5,63,98,1985309076
109,19,15,Jits_Phase_8,2,5,56,103,1985349000
109,19,15,Jits_Phase_8,3,5,80,127,1985351920
109,19,15,Jits_Phase_8,0,5,80,127,1986008376
109,19,15,Jits_Phase_8,1,5,56,103,1986089444
109,19,15,Jits_Phase_8,2,1,48,29,1986135484
109,19,15,Jits_Phase_8,3,5,63,98,1986138516
109,19,15,Jits_Phase_8,0,5,80,127,1986788816
109,19,15,Jits_Phase_8,1,5,56,103,1986809128
109,19,15,Jits_Phase_8,2,1,48,29,1986849860
109,19,15,Jits_Phase_8,3,5,63,98,1986899252
109,19,15,Jits_Phase_8,0,1,48,33,1987571244
109,19,15,Jits_Phase_8,1,5,80,127,1987629336
109,19,15,Jits_Phase_8,2,1,48,16,1987653940
109,19,15,Jits_Phase_8,3,5,63,98,1987669328
109,19,15,Jits_Phase_8,4,5,56,103,1987709268
109,19,15,Jits_Phase_8,0,5,63,98,1988439400
109,19,15,Jits_Phase_8,1,1,48,32,1988465288
109,19,15,Jits_Phase_8,2,5,80,127,1988499036
109,19,15,Jits_Phase_8,3,5,56,103,1988528440
109,19,15,Jits_Phase_8,0,5,56,103,1989279160
109,19,15,Jits_Phase_8,1,5,80,127,1989309012
109,19,15,Jits_Phase_8,2,1,48,30,1989317308
109,19,15,Jits_Phase_8,3,5,63,98,1989398836
109,19,15,Jits_Phase_8,0,5,56,103,1990088924
109,19,15,Jits_Phase_8,1,5,80,127,1990198612
109,19,15,Jits_Phase_8,2,1,48,35,1990202632
109,19,15,Jits_Phase_8,3,5,63,98,1990229328
109,19,15,Jits_Phase_8,0,5,56,103,1990938976
109,19,15,Jits_Phase_8,1,5,63,98,1990999368
109,19,15,Jits_Phase_8,2,1,48,31,1991012600
109,19,15,Jits_Phase_8,3,5,80,127,1991029108
109,19,15,Jits_Phase_8,0,5,56,103,1991709008
109,19,15,Jits_Phase_8,1,1,48,28,1991740076
109,19,15,Jits_Phase_8,2,5,63,98,1991778760
109,19,15,Jits_Phase_8,3,5,80,127,1991799144
109,19,15,Jits_Phase_8,0,5,80,127,1992479116
109,19,15,Jits_Phase_8,1,5,63,98,1992498752
109,19,15,Jits_Phase_8,2,1,48,32,1992523592
109,19,15,Jits_Phase_8,3,5,56,103,1992548796
109,19,15,Jits_Phase_8,0,5,63,98,1993299260
109,19,15,Jits_Phase_8,1,5,80,127,1993308784
109,19,15,Jits_Phase_8,2,1,48,20,1993323288
109,19,15,Jits_Phase_8,3,5,56,103,1993358828
109,19,15,Jits_Phase_8,0,5,63,98,1994098940
109,19,15,Jits_Phase_8,1,1,48,31,1994110900
109,19,15,Jits_Phase_8,2,5,80,127,1994168640
109,19,15,Jits_Phase_8,3,5,56,103,1994189172
109,19,15,Jits_Phase_8,0,1,48,32,1994875504
109,19,15,Jits_Phase_8,1,5,63,98,1994928684
109,19,15,Jits_Phase_8,2,5,80,127,1994931900
109,19,15,Jits_Phase_8,3,5,56,103,1994999172
109,19,15,Jits_Phase_8,0,5,80,127,1995679044
109,19,15,Jits_Phase_8,1,1,48,31,1995681784
109,19,15,Jits_Phase_8,2,5,56,103,1995698772
109,19,15,Jits_Phase_8,3,5,63,98,1995708744
109,19,15,Jits_Phase_8,0,5,56,103,1996499436
109,19,15,Jits_Phase_8,1,1,48,24,1996510276
109,19,15,Jits_Phase_8,2,5,63,98,1996589412
109,19,15,Jits_Phase_8,3,5,80,127,1996593000
109,19,15,Jits_Phase_8,0,5,80,127,1997269308
109,19,15,Jits_Phase_8,1,5,56,103,1997278680
109,19,15,Jits_Phase_8,2,5,63,98,1997298992
109,19,15,Jits_Phase_8,3,1,48,26,1997339944
109,19,15,Jits_Phase_8,0,1,48,30,1998033224
109,19,15,Jits_Phase_8,1,5,63,98,1998069064
109,19,15,Jits_Phase_8,2,5,80,127,1998128764
109,19,15,Jits_Phase_8,3,5,56,103,1998138888
109,19,15,Jits_Phase_8,0,1,48,29,1998862044
109,19,15,Jits_Phase_8,1,5,63,98,1998938644
109,19,15,Jits_Phase_8,2,5,80,127,1998969132
109,19,15,Jits_Phase_8,3,5,56,103,1999008992
109,19,15,Jits_Phase_8,0,1,48,27,1999682860
109,19,15,Jits_Phase_8,1,5,56,103,1999728964
109,19,15,Jits_Phase_8,2,5,80,127,1999739460
109,19,15,Jits_Phase_8,3,5,63,98,1999779324
109,19,15,Jits_Phase_8,0,5,80,127,2000488700
109,19,15,Jits_Phase_8,1,1,48,29,2000491144
109,19,15,Jits_Phase_8,2,5,56,103,2000568664
109,19,15,Jits_Phase_8,3,5,63,98,2000578860
109,19,15,Jits_Phase_8,0,5,80,127,2001338844
109,19,15,Jits_Phase_8,1,1,48,30,2001354996
109,19,15,Jits_Phase_8,2,5,56,103,2001418708
109,19,15,Jits_Phase_8,3,5,63,98,2001428976
109,19,15,Jits_Phase_8,0,1,48,29,2002133788
109,19,15,Jits_Phase_8,1,5,80,127,2002178552
109,19,15,Jits_Phase_8,2,5,56,103,2002228740
109,19,15,Jits_Phase_8,3,5,63,98,2002278788
109,19,15,Jits_Phase_8,0,1,48,21,2003000900
109,19,15,Jits_Phase_8,1,5,56,103,2003118560
109,19,15,Jits_Phase_8,2,5,63,98,2003121480
109,19,15,Jits_Phase_8,3,5,80,127,2003168540
109,19,15,Jits_Phase_8,0,1,48,22,2003835556
109,19,15,Jits_Phase_8,1,5,56,103,2003938772
109,19,15,Jits_Phase_8,2,5,63,98,2003969568
109,19,15,Jits_Phase_8,3,5,80,127,2003978568
109,19,15,Jits_Phase_8,0,5,63,98,2004649548
109,19,15,Jits_Phase_8,1,1,48,31,2004694992
109,19,15,Jits_Phase_8,2,5,56,103,2004719000
109,19,15,Jits_Phase_8,3,5,80,127,2004769276
109,19,15,Jits_Phase_8,0,5,63,98,2005478680
109,19,15,Jits_Phase_8,1,5,56,103,2005488948
109,19,15,Jits_Phase_8,2,5,80,127,2005491940
109,19,15,Jits_Phase_8,3,1,48,30,2005515736
109,19,15,Jits_Phase_8,0,5,80,127,2006229648
109,19,15,Jits_Phase_8,1,1,48,24,2006285880
109,19,15,Jits_Phase_8,2,5,56,103,2006288688
109,19,15,Jits_Phase_8,3,5,63,98,2006378892
109,19,15,Jits_Phase_8,0,5,80,127,2007029048
109,19,15,Jits_Phase_8,1,1,48,29,2007123196
109,19,15,Jits_Phase_8,2,5,56,103,2007128544
109,19,15,Jits_Phase_8,3,5,63,98,2007169752
109,19,15,Jits_Phase_8,0,5,56,103,2007878948
109,19,15,Jits_Phase_8,1,5,63,98,2007898732
109,19,15,Jits_Phase_8,2,1,48,31,2007931148
109,19,15,Jits_Phase_8,3,5,80,127,2007938592
109,19,15,Jits_Phase_8,0,5,63,98,2008649200
109,19,15,Jits_Phase_8,1,5,56,103,2008668392
109,19,15,Jits_Phase_8,2,1,48,23,2008705664
109,19,15,Jits_Phase_8,3,5,80,127,2008768876
109,19,15,Jits_Phase_8,0,5,63,98,2009438696
109,19,15,Jits_Phase_8,1,1,48,34,2009482868
109,19,15,Jits_Phase_8,2,5,80,127,2009549372
109,19,15,Jits_Phase_8,3,5,56,103,2009578900
109,19,15,Jits_Phase_8,0,5,56,103,2010258760
109,19,15,Jits_Phase_8,1,1,48,26,2010285424
109,19,15,Jits_Phase_8,2,5,63,98,2010288752
109,19,15,Jits_Phase_8,3,5,80,127,2010338656
109,19,15,Jits_Phase_8,0,5,63,98,2011028940
109,19,15,Jits_Phase_8,1,5,56,103,2011058568
109,19,15,Jits_Phase_8,2,1,48,23,2011079664
109,19,15,Jits_Phase_8,3,5,80,127,2011108684
109,19,15,Jits_Phase_8,0,1,48,27,2011817972
109,19,15,Jits_Phase_8,1,5,56,103,2011859576
109,19,15,Jits_Phase_8,2,5,63,98,2011878912
109,19,15,Jits_Phase_8,3,5,80,127,2011958620
109,19,15,Jits_Phase_8,0,5,63,98,2012629448
109,19,15,Jits_Phase_8,1,1,48,25,2012630416
109,19,15,Jits_Phase_8,2,5,56,103,2012688788
109,19,15,Jits_Phase_8,3,5,80,127,2012718536
109,19,15,Jits_Phase_8,0,1,48,27,2013374024
109,19,15,Jits_Phase_8,1,5,56,103,2013468984
109,19,15,Jits_Phase_8,2,5,80,127,2013528536
109,19,15,Jits_Phase_8,3,5,63,98,2013569372
109,19,15,Jits_Phase_8,0,5,63,98,2014249568
109,19,15,Jits_Phase_8,1,1,48,26,2014255380
109,19,15,Jits_Phase_8,2,5,56,103,2014308680
109,19,15,Jits_Phase_8,3,5,80,127,2014379564
109,19,15,Jits_Phase_8,0,1,48,20,2015082480
109,19,15,Jits_Phase_8,1,5,56,103,2015128816
109,19,15,Jits_Phase_8,2,5,63,98,2015139488
109,19,15,Jits_Phase_8,3,5,80,127,2015142772
109,19,15,Jits_Phase_8,0,5,63,98,2015869456
109,19,15,Jits_Phase_8,1,5,56,103,2015928752
109,19,15,Jits_Phase_8,2,5,80,127,2015931820
109,19,15,Jits_Phase_8,3,1,48,24,2015967316
109,19,15,Jits_Phase_8,0,5,63,98,2016648608
109,19,15,Jits_Phase_8,1,5,80,127,2016679428
109,19,15,Jits_Phase_8,2,1,48,31,2016689892
109,19,15,Jits_Phase_8,3,5,56,103,2016698832
109,19,15,Jits_Phase_8,0,5,56,103,2017378680
109,19,15,Jits_Phase_8,1,5,63,98,2017428808
109,19,15,Jits_Phase_8,2,1,48,21,2017441664
109,19,15,Jits_Phase_8,3,5,80,127,2017508916
109,19,15,Jits_Phase_8,0,5,80,127,2018079192
109,19,15,Jits_Phase_8,1,5,63,98,2018119356
109,19,15,Jits_Phase_8,2,5,56,103,2018138468
109,19,15,Jits_Phase_8,3,1,48,21,2018230832
109,19,15,Jits_Phase_8,0,5,56,103,2018948416
109,19,15,Jits_Phase_8,1,1,48,19,2018957408
109,19,15,Jits_Phase_8,2,5,80,127,2018958904
109,19,15,Jits_Phase_8,3,5,63,98,2018979312
109,19,15,Jits_Phase_8,0,5,56,103,2019728636
109,19,15,Jits_Phase_8,1,5,63,98,2019778864
109,19,15,Jits_Phase_8,2,5,80,127,2019808536
109,19,15,Jits_Phase_8,3,1,48,27,2019811584
109,19,15,Jits_Phase_8,0,5,56,103,2020479336
109,19,15,Jits_Phase_8,1,5,63,98,2020488560
109,19,15,Jits_Phase_8,2,5,80,127,2020538860
109,19,15,Jits_Phase_8,3,1,48,24,2020606468
109,19,15,Jits_Phase_8,0,5,56,103,2021268984
109,19,15,Jits_Phase_8,1,5,80,127,2021271828
109,19,15,Jits_Phase_8,2,1,48,21,2021273692
109,19,15,Jits_Phase_8,3,5,63,98,2021428640
109,19,15,Jits_Phase_8,0,5,63,98,2022089152
109,19,15,Jits_Phase_8,1,1,48,25,2022096160
109,19,15,Jits_Phase_8,2,5,56,103,2022158752
109,19,15,Jits_Phase_8,3,5,80,127,2022198600
109,19,15,Jits_Phase_8,0,1,48,22,2022892392
109,19,15,Jits_Phase_8,1,5,63,98,2022928688
109,19,15,Jits_Phase_8,2,5,56,103,2023018956
109,19,15,Jits_Phase_8,3,5,80,127,2023021872
109,19,15,Jits_Phase_8,0,5,56,103,2023709192
109,19,15,Jits_Phase_8,1,1,48,27,2023751944
109,19,15,Jits_Phase_8,2,5,63,98,2023799096
109,19,15,Jits_Phase_8,3,5,80,127,2023809364
109,19,15,Jits_Phase_8,0,5,56,103,2024479224
109,19,15,Jits_Phase_8,1,5,63,98,2024529128
109,19,15,Jits_Phase_8,2,1,48,16,2024556360
109,19,15,Jits_Phase_8,3,5,80,127,2024559020
109,19,15,Jits_Phase_8,0,1,48,29,2025285320
109,19,15,Jits_Phase_8,1,5,63,98,2025358632
109,19,15,Jits_Phase_8,2,5,80,127,2025369048
109,19,15,Jits_Phase_8,3,5,56,103,2025429300
109,19,15,Jits_Phase_8,0,5,63,98,2026078532
109,19,15,Jits_Phase_8,1,1,48,27,2026106292
109,19,15,Jits_Phase_8,2,5,80,127,2026139140
109,19,15,Jits_Phase_8,3,5,56,103,2026178804
109,19,15,Jits_Phase_8,0,1,48,27,2026899232
109,19,15,Jits_Phase_8,1,5,56,103,2026978704
109,19,15,Jits_Phase_8,2,5,80,127,2026999072
109,19,15,Jits_Phase_8,3,5,63,98,2027018708
109,19,15,Jits_Phase_8,0,5,63,98,2027698532
109,19,15,Jits_Phase_8,1,5,56,103,2027719140
109,19,15,Jits_Phase_8,2,1,48,27,2027751556
109,19,15,Jits_Phase_8,3,5,80,127,2027759296
109,19,15,Jits_Phase_8,0,5,63,98,2028508552
109,19,15,Jits_Phase_8,1,1,48,27,2028515416
109,19,15,Jits_Phase_8,2,5,80,127,2028539196
109,19,15,Jits_Phase_8,3,5,56,103,2028558756
109,19,15,Jits_Phase_8,0,5,80,127,2029278568
109,19,15,Jits_Phase_8,1,1,48,33,2029299824
109,19,15,Jits_Phase_8,2,5,56,103,2029328688
109,19,15,Jits_Phase_8,3,5,63,98,2029389300
109,19,15,Jits_Phase_8,0,5,63,98,2030069048
109,19,15,Jits_Phase_8,1,1,48,24,2030123188
109,19,15,Jits_Phase_8,2,5,56,103,2030188992
109,19,15,Jits_Phase_8,3,5,80,127,2030218580
109,19,15,Jits_Phase_8,0,5,80,127,2030908816
109,19,15,Jits_Phase_8,1,1,48,31,2030916200
109,19,15,Jits_Phase_8,2,5,63,98,2030929200
109,19,15,Jits_Phase_8,3,5,56,103,2030999024
109,19,15,Jits_Phase_8,0,5,63,98,2031729120
109,19,15,Jits_Phase_8,1,5,56,103,2031739240
109,19,15,Jits_Phase_8,2,1,48,29,2031750232
109,19,15,Jits_Phase_8,3,5,80,127,2031819124
109,19,15,Jits_Phase_8,0,1,48,26,2032512660
109,19,15,Jits_Phase_8,1,5,56,103,2032589284
109,19,15,Jits_Phase_8,2,5,80,127,2032618796
109,19,15,Jits_Phase_8,3,5,63,98,2032629068
109,19,15,Jits_Phase_8,0,9999,9999,9999,1897746500
109,19,15,Jits_Phase_8,1,9999,9999,9999,1898546296
109,19,15,Jits_Phase_8,2,9999,9999,9999,1899347000
109,19,15,Jits_Phase_8,3,9999,9999,9999,1900146812
109,19,15,Jits_Phase_8,4,9999,9999,9999,1900946544
109,19,15,Jits_Phase_8,5,9999,9999,9999,1901746276
109,19,15,Jits_Phase_8,6,9999,9999,9999,1902547020
109,19,15,Jits_Phase_8,7,9999,9999,9999,1903346780
109,19,15,Jits_Phase_8,8,9999,9999,9999,1904146544
109,19,15,Jits_Phase_8,9,9999,9999,9999,1904946292
109,19,15,Jits_Phase_8,10,9999,9999,9999,1905747028
109,19,15,Jits_Phase_8,11,9999,9999,9999,1906546788
109,19,15,Jits_Phase_8,12,9999,9999,9999,1907346492
109,19,15,Jits_Phase_8,13,9999,9999,9999,1908146288
109,19,15,Jits_Phase_8,14,9999,9999,9999,1908947008
109,19,15,Jits_Phase_8,15,9999,9999,9999,1909746756
109,19,15,Jits_Phase_8,16,9999,9999,9999,1910546496
109,19,15,Jits_Phase_8,17,9999,9999,9999,1911346272
109,19,15,Jits_Phase_8,18,9999,9999,9999,1912147008
109,19,15,Jits_Phase_8,19,9999,9999,9999,1912946768
109,19,15,Jits_Phase_8,20,9999,9999,9999,1913746528
109,19,15,Jits_Phase_8,21,9999,9999,9999,1914546236
109,19,15,Jits_Phase_8,22,9999,9999,9999,1915347048
109,19,15,Jits_Phase_8,23,9999,9999,9999,1916146808
109,19,15,Jits_Phase_8,24,9999,9999,9999,1916946492
109,19,15,Jits_Phase_8,25,9999,9999,9999,1917746252
109,19,15,Jits_Phase_8,26,9999,9999,9999,1918547060
109,19,15,Jits_Phase_8,27,9999,9999,9999,1919346744
109,19,15,Jits_Phase_8,28,9999,9999,9999,1920146516
109,19,15,Jits_Phase_8,29,9999,9999,9999,1920946252
109,19,15,Jits_Phase_8,30,9999,9999,9999,1921726524
109,19,15,Jits_Phase_8,31,9999,9999,9999,1922526284
109,19,15,Jits_Phase_8,32,9999,9999,9999,1923327084
109,19,15,Jits_Phase_8,33,9999,9999,9999,1924126772
109,19,15,Jits_Phase_8,34,9999,9999,9999,1924926532
109,19,15,Jits_Phase_8,35,9999,9999,9999,1925726300
109,19,15,Jits_Phase_8,36,9999,9999,9999,1926527036
109,19,15,Jits_Phase_8,37,9999,9999,9999,1927326792
109,19,15,Jits_Phase_8,38,9999,9999,9999,1928126564
109,19,15,Jits_Phase_8,39,9999,9999,9999,1928926264
109,19,15,Jits_Phase_8,40,9999,9999,9999,1929727088
109,19,15,Jits_Phase_8,41,9999,9999,9999,1930526788
109,19,15,Jits_Phase_8,42,9999,9999,9999,1931326544
109,19,15,Jits_Phase_8,43,9999,9999,9999,1932126308
109,19,15,Jits_Phase_8,44,9999,9999,9999,1932927096
109,19,15,Jits_Phase_8,45,9999,9999,9999,1933726784
109,19,15,Jits_Phase_8,46,9999,9999,9999,1934526560
109,19,15,Jits_Phase_8,47,9999,9999,9999,1935326312
109,19,15,Jits_Phase_8,48,9999,9999,9999,1936146524
109,19,15,Jits_Phase_8,49,9999,9999,9999,1936946280
109,19,15,Jits_Phase_8,50,9999,9999,9999,1937747008
109,19,15,Jits_Phase_8,51,9999,9999,9999,1938546764
109,19,15,Jits_Phase_8,52,9999,9999,9999,1939346524
109,19,15,Jits_Phase_8,53,9999,9999,9999,1940146244
109,19,15,Jits_Phase_8,54,9999,9999,9999,1940947044
109,19,15,Jits_Phase_8,55,9999,9999,9999,1941746744
109,19,15,Jits_Phase_8,56,9999,9999,9999,1942546496
109,19,15,Jits_Phase_8,57,9999,9999,9999,1943346256
109,19,15,Jits_Phase_8,58,9999,9999,9999,1944147060
109,19,15,Jits_Phase_8,59,9999,9999,9999,1944946744
109,19,15,Jits_Phase_8,60,9999,9999,9999,1945746504
109,19,15,Jits_Phase_8,61,9999,9999,9999,1946546232
109,19,15,Jits_Phase_8,62,9999,9999,9999,1947347048
109,19,15,Jits_Phase_8,63,9999,9999,9999,1948146796
109,19,15,Jits_Phase_8,64,9999,9999,9999,1948986496
109,19,15,Jits_Phase_8,65,9999,9999,9999,1949786180
109,19,15,Jits_Phase_8,66,9999,9999,9999,1950586992
109,19,15,Jits_Phase_8,67,9999,9999,9999,1951386684
109,19,15,Jits_Phase_8,68,9999,9999,9999,1952186456
109,19,15,Jits_Phase_8,69,9999,9999,9999,1952986232
109,19,15,Jits_Phase_8,70,9999,9999,9999,1953786960
109,19,15,Jits_Phase_8,71,9999,9999,9999,1954586728
109,19,15,Jits_Phase_8,72,9999,9999,9999,1955386484
109,19,15,Jits_Phase_8,73,9999,9999,9999,1956186180
109,19,15,Jits_Phase_8,74,9999,9999,9999,1956986996
109,19,15,Jits_Phase_8,75,9999,9999,9999,1957786684
109,19,15,Jits_Phase_8,76,9999,9999,9999,1958586468
109,19,15,Jits_Phase_8,77,9999,9999,9999,1959386228
109,19,15,Jits_Phase_8,78,9999,9999,9999,1960186952
109,19,15,Jits_Phase_8,79,9999,9999,9999,1960986708
109,19,15,Jits_Phase_8,80,9999,9999,9999,1961786468
109,19,15,Jits_Phase_8,81,9999,9999,9999,1962546296
109,19,15,Jits_Phase_8,82,9999,9999,9999,1963347028
109,19,15,Jits_Phase_8,83,9999,9999,9999,1964146784
109,19,15,Jits_Phase_8,84,9999,9999,9999,1964946552
109,19,15,Jits_Phase_8,85,9999,9999,9999,1965746276
109,19,15,Jits_Phase_8,86,9999,9999,9999,1966547012
109,19,15,Jits_Phase_8,87,9999,9999,9999,1967346772
109,19,15,Jits_Phase_8,88,9999,9999,9999,1968146524
109,19,15,Jits_Phase_8,89,9999,9999,9999,1968946288
109,19,15,Jits_Phase_8,90,9999,9999,9999,1969747028
109,19,15,Jits_Phase_8,91,9999,9999,9999,1970546784
109,19,15,Jits_Phase_8,92,9999,9999,9999,1971346560
109,19,15,Jits_Phase_8,93,9999,9999,9999,1972146264
109,19,15,Jits_Phase_8,94,9999,9999,9999,1972947072
109,19,15,Jits_Phase_8,95,9999,9999,9999,1973746748
109,19,15,Jits_Phase_8,96,9999,9999,9999,1974546508
109,19,15,Jits_Phase_8,97,9999,9999,9999,1975266380
109,19,15,Jits_Phase_8,98,9999,9999,9999,1976066140
109,19,15,Jits_Phase_8,99,9999,9999,9999,1976866876
109,19,15,Jits_Phase_8,100,9999,9999,9999,1977666636
109,19,15,Jits_Phase_8,101,9999,9999,9999,1978466400
109,19,15,Jits_Phase_8,102,9999,9999,9999,1979266152
109,19,15,Jits_Phase_8,103,9999,9999,9999,1980066884
109,19,15,Jits_Phase_8,104,9999,9999,9999,1980866660
109,19,15,Jits_Phase_8,105,9999,9999,9999,1981666428
109,19,15,Jits_Phase_8,106,9999,9999,9999,1982466108
109,19,15,Jits_Phase_8,107,9999,9999,9999,1983266892
109,19,15,Jits_Phase_8,108,9999,9999,9999,1984066652
109,19,15,Jits_Phase_8,109,9999,9999,9999,1984866408
109,19,15,Jits_Phase_8,110,9999,9999,9999,1985666168
109,19,15,Jits_Phase_8,111,9999,9999,9999,1986466904
109,19,15,Jits_Phase_8,112,9999,9999,9999,1987266620
109,19,15,Jits_Phase_8,113,9999,9999,9999,1988066372
109,19,15,Jits_Phase_8,114,9999,9999,9999,1988947020
109,19,15,Jits_Phase_8,115,9999,9999,9999,1989746780
109,19,15,Jits_Phase_8,116,9999,9999,9999,1990546556
109,19,15,Jits_Phase_8,117,9999,9999,9999,1991346288
109,19,15,Jits_Phase_8,118,9999,9999,9999,1992147036
109,19,15,Jits_Phase_8,119,9999,9999,9999,1992946804
109,19,15,Jits_Phase_8,120,9999,9999,9999,1993746500
109,19,15,Jits_Phase_8,121,9999,9999,9999,1994546256
109,19,15,Jits_Phase_8,122,9999,9999,9999,1995347052
109,19,15,Jits_Phase_8,123,9999,9999,9999,1996146804
109,19,15,Jits_Phase_8,124,9999,9999,9999,1996946496
109,19,15,Jits_Phase_8,125,9999,9999,9999,1997746284
109,19,15,Jits_Phase_8,126,9999,9999,9999,1998547024
109,19,15,Jits_Phase_8,127,9999,9999,9999,1999346784
109,19,15,Jits_Phase_8,128,9999,9999,9999,2000146520
109,19,15,Jits_Phase_8,129,9999,9999,9999,2000946280
109,19,15,Jits_Phase_8,130,9999,9999,9999,2001747028
109,19,15,Jits_Phase_8,131,9999,9999,9999,2002706552
109,19,15,Jits_Phase_8,132,9999,9999,9999,2003506236
109,19,15,Jits_Phase_8,133,9999,9999,9999,2004307044
109,19,15,Jits_Phase_8,134,9999,9999,9999,2005106804
109,19,15,Jits_Phase_8,135,9999,9999,9999,2005906552
109,19,15,Jits_Phase_8,136,9999,9999,9999,2006706260
109,19,15,Jits_Phase_8,137,9999,9999,9999,2007507008
109,19,15,Jits_Phase_8,138,9999,9999,9999,2008306784
109,19,15,Jits_Phase_8,139,9999,9999,9999,2009106556
109,19,15,Jits_Phase_8,140,9999,9999,9999,2009906240
109,19,15,Jits_Phase_8,141,9999,9999,9999,2010707048
109,19,15,Jits_Phase_8,142,9999,9999,9999,2011506744
109,19,15,Jits_Phase_8,143,9999,9999,9999,2012306500
109,19,15,Jits_Phase_8,144,9999,9999,9999,2013106280
109,19,15,Jits_Phase_8,145,9999,9999,9999,2013907012
109,19,15,Jits_Phase_8,146,9999,9999,9999,2014706776
109,19,15,Jits_Phase_8,147,9999,9999,9999,2015506528
109,19,15,Jits_Phase_8,148,9999,9999,9999,2016306276
109,19,15,Jits_Phase_8,149,9999,9999,9999,2017107004
109,19,15,Jits_Phase_8,150,9999,9999,9999,2017747040
109,19,15,Jits_Phase_8,151,9999,9999,9999,2018546808
109,19,15,Jits_Phase_8,152,9999,9999,9999,2019346508
109,19,15,Jits_Phase_8,153,9999,9999,9999,2020146284
109,19,15,Jits_Phase_8,154,9999,9999,9999,2020947024
109,19,15,Jits_Phase_8,155,9999,9999,9999,2021746784
109,19,15,Jits_Phase_8,156,9999,9999,9999,2022546556
109,19,15,Jits_Phase_8,157,9999,9999,9999,2023346260
109,19,15,Jits_Phase_8,158,9999,9999,9999,2024147068
109,19,15,Jits_Phase_8,159,9999,9999,9999,2024946768
109,19,15,Jits_Phase_8,160,9999,9999,9999,2025746544
109,19,15,Jits_Phase_8,161,9999,9999,9999,2026546300
109,19,15,Jits_Phase_8,162,9999,9999,9999,2027347036
109,19,15,Jits_Phase_8,163,9999,9999,9999,2028146792
109,19,15,Jits_Phase_8,164,9999,9999,9999,2028946552
109,19,15,Jits_Phase_8,165,9999,9999,9999,2029746260
109,19,15,Jits_Phase_8,166,9999,9999,9999,2030547008
109,19,15,Jits_Phase_8,167,9999,9999,9999,2031346768
109,19,15,Jits_Phase_8,168,9999,9999,9999,2032146544
109,19,15,Jits_Phase_8,169,9999,9999,9999,2032946236
109,20,5,ISIP_5,0,5,42,127,2103122240
109,20,5,ISIP_5,1,5,42,127,2103621884
109,20,5,ISIP_5,2,5,42,127,2104121896
109,20,5,ISIP_5,3,5,42,127,2104621540
109,20,5,ISIP_5,4,5,42,127,2105122232
109,20,5,ISIP_5,5,1,48,30,2105143824
109,20,5,ISIP_5,6,1,48,32,2105603784
109,20,5,ISIP_5,7,5,42,127,2105621920
109,20,5,ISIP_5,8,5,42,127,2106121768
109,20,5,ISIP_5,9,1,48,30,2106154436
109,20,5,ISIP_5,10,1,48,31,2106618960
109,20,5,ISIP_5,11,5,42,127,2106622284
109,20,5,ISIP_5,12,5,42,127,2107121984
109,20,5,ISIP_5,13,1,48,34,2107128468
109,20,5,ISIP_5,14,5,42,127,2107621828
109,20,5,ISIP_5,15,1,48,37,2107633924
109,20,5,ISIP_5,16,5,42,127,2108121744
109,20,5,ISIP_5,17,1,48,33,2108157700
109,20,5,ISIP_5,18,5,42,127,2108622040
109,20,5,ISIP_5,19,1,48,29,2108635104
109,20,5,ISIP_5,20,5,42,127,2109121884
109,20,5,ISIP_5,21,1,48,26,2109164796
109,20,5,ISIP_5,22,1,48,29,2109615700
109,20,5,ISIP_5,23,5,42,127,2109621720
109,20,5,ISIP_5,24,5,42,127,2110122540
109,20,5,ISIP_5,25,1,48,32,2110129700
109,20,5,ISIP_5,26,5,42,127,2110622312
109,20,5,ISIP_5,27,1,48,27,2110635160
109,20,5,ISIP_5,28,5,42,127,2111121760
109,20,5,ISIP_5,29,1,48,23,2111147420
109,20,5,ISIP_5,30,5,42,127,2111621752
109,20,5,ISIP_5,31,1,48,23,2111650776
109,20,5,ISIP_5,32,5,42,127,2112122120
109,20,5,ISIP_5,33,1,48,28,2112124060
109,20,5,ISIP_5,34,1,48,28,2112606740
109,20,5,ISIP_5,35,5,42,127,2112621808
109,20,5,ISIP_5,36,1,48,28,2113093420
109,20,5,ISIP_5,37,5,42,127,2113121728
109,20,5,ISIP_5,38,1,48,30,2113616600
109,20,5,ISIP_5,39,5,42,127,2113622544
109,20,5,ISIP_5,40,1,48,33,2114098940
109,20,5,ISIP_5,41,5,42,127,2114122236
109,20,5,ISIP_5,42,1,48,29,2114600580
109,20,5,ISIP_5,43,5,42,127,2114621712
109,20,5,ISIP_5,44,1,48,29,2115116508
109,20,5,ISIP_5,45,5,42,127,2115121700
109,20,5,ISIP_5,46,1,48,33,2115616052
109,20,5,ISIP_5,47,5,42,127,2115622296
109,20,5,ISIP_5,48,1,48,35,2116121696
109,20,5,ISIP_5,49,5,42,127,2116123036
109,20,5,ISIP_5,50,5,42,127,2116621616
109,20,5,ISIP_5,51,1,48,36,2116624060
109,20,5,ISIP_5,52,1,48,31,2117102568
109,20,5,ISIP_5,53,5,42,127,2117122500
109,20,5,ISIP_5,54,1,48,32,2117603612
109,20,5,ISIP_5,55,5,42,127,2117622192
109,20,5,ISIP_5,56,1,48,36,2118107120
109,20,5,ISIP_5,57,5,42,127,2118121816
109,20,5,ISIP_5,58,5,42,127,2118621740
109,20,5,ISIP_5,59,1,48,25,2118627632
109,20,5,ISIP_5,60,1,48,33,2119090052
109,20,5,ISIP_5,61,5,42,127,2119122400
109,20,5,ISIP_5,62,5,42,127,2119622104
109,20,5,ISIP_5,63,1,48,30,2119624696
109,20,5,ISIP_5,64,1,48,36,2120122168
109,20,5,ISIP_5,65,5,42,127,2120123360
109,20,5,ISIP_5,66,5,42,127,2120621568
109,20,5,ISIP_5,67,1,48,31,2120630072
109,20,5,ISIP_5,68,5,42,127,2121122160
109,20,5,ISIP_5,69,1,48,32,2121144356
109,20,5,ISIP_5,70,5,42,127,2121621832
109,20,5,ISIP_5,71,1,48,33,2121655792
109,20,5,ISIP_5,72,5,42,127,2122121452
109,20,5,ISIP_5,73,1,48,41,2122140200
109,20,5,ISIP_5,74,5,42,127,2122622416
109,20,5,ISIP_5,75,1,48,38,2122625088
109,20,5,ISIP_5,76,1,48,39,2123138908
109,20,5,ISIP_5,77,1,48,39,2123658796
109,20,5,ISIP_5,78,1,48,35,2124152208
109,20,5,ISIP_5,79,1,48,36,2124630504
109,20,5,ISIP_5,80,1,48,35,2125146276
109,20,5,ISIP_5,81,1,48,35,2125665560
109,20,5,ISIP_5,82,1,48,33,2126194800
109,20,5,ISIP_5,83,1,48,30,2126711020
109,20,5,ISIP_5,84,1,48,32,2127223420
109,20,5,ISIP_5,85,1,48,33,2127717952
109,20,5,ISIP_5,86,1,48,34,2128244048
109,20,5,ISIP_5,87,1,48,33,2128781588
109,20,5,ISIP_5,88,1,48,33,2129291448
109,20,5,ISIP_5,89,1,48,33,2129828264
109,20,5,ISIP_5,90,1,48,30,2130347552
109,20,5,ISIP_5,91,1,48,37,2130873048
109,20,5,ISIP_5,92,1,48,35,2131384336
109,20,5,ISIP_5,93,1,48,35,2131926952
109,20,5,ISIP_5,94,1,48,34,2132450436
109,20,5,ISIP_5,95,1,48,36,2132925140
109,20,5,ISIP_5,96,1,48,35,2133485412
109,20,5,ISIP_5,97,1,48,34,2134008072
109,20,5,ISIP_5,98,1,48,37,2134538504
109,20,5,ISIP_5,99,1,48,37,2135067364
109,20,5,ISIP_5,100,1,48,35,2135608264
109,20,5,ISIP_5,101,1,48,32,2136129436
109,20,5,ISIP_5,102,1,48,37,2136651796
109,20,5,ISIP_5,103,1,48,34,2137191348
109,20,5,ISIP_5,104,1,48,32,2137745792
109,20,5,ISIP_5,105,1,48,32,2138313052
109,20,5,ISIP_5,106,1,48,36,2138823964
109,20,5,ISIP_5,107,1,48,39,2139342056
109,20,5,ISIP_5,108,1,48,35,2139854456
109,20,5,ISIP_5,109,1,48,39,2140391920
109,20,5,ISIP_5,110,1,48,39,2140905372
109,20,5,ISIP_5,111,1,48,34,2141453308
109,20,5,ISIP_5,112,1,48,33,2141986656
109,20,5,ISIP_5,113,1,48,37,2142477824
109,20,5,ISIP_5,114,1,48,32,2143001296
109,20,5,ISIP_5,115,1,48,36,2143527244
109,20,5,ISIP_5,116,1,48,36,2144029176
109,20,5,ISIP_5,117,1,48,38,2144578836
109,20,5,ISIP_5,118,1,48,36,2145107100
109,20,5,ISIP_5,119,1,48,38,2145606188
109,20,5,ISIP_5,120,1,48,30,2146170292
109,20,5,ISIP_5,121,1,48,37,2146674396
109,20,5,ISIP_5,122,1,48,31,2147255264
109,20,5,ISIP_5,123,1,48,35,2147804772
109,20,5,ISIP_5,124,1,48,39,2148339244
109,20,5,ISIP_5,125,1,48,40,2148865860
109,20,5,ISIP_5,126,1,48,35,2149400860
109,20,5,ISIP_5,127,1,48,40,2149928300
109,20,5,ISIP_5,128,1,48,41,2150420136
109,20,5,ISIP_5,129,1,48,42,2150956108
109,20,5,ISIP_5,130,1,48,39,2151492592
109,20,5,ISIP_5,131,1,48,42,2152019436
109,20,5,ISIP_5,132,1,48,43,2152561840
109,20,5,ISIP_5,133,1,48,41,2153110292
109,20,5,ISIP_5,134,1,48,37,2153656772
109,20,5,ISIP_5,135,1,48,42,2154168880
109,20,5,ISIP_5,136,1,48,37,2154723996
109,20,5,ISIP_5,137,1,48,40,2155226828
109,20,5,ISIP_5,138,1,48,34,2155757636
109,20,5,ISIP_5,139,1,48,39,2156294276
109,20,5,ISIP_5,140,1,48,42,2156833608
109,20,5,ISIP_5,141,1,48,44,2157349008
109,20,5,ISIP_5,142,1,48,46,2157888864
109,20,5,ISIP_5,143,1,48,39,2158433708
109,20,5,ISIP_5,144,1,48,41,2158951048
109,20,5,ISIP_5,145,1,48,46,2159470112
109,20,5,ISIP_5,146,1,48,44,2160023356
109,20,5,ISIP_5,147,1,48,44,2160591660
109,20,5,ISIP_5,148,1,48,43,2161115060
109,20,5,ISIP_5,149,1,48,45,2161628080
109,20,5,ISIP_5,150,1,48,39,2162190228
109,20,5,ISIP_5,151,1,48,43,2162718716
109,20,5,ISIP_5,152,1,48,45,2163234492
109,20,5,ISIP_5,153,1,48,39,2163738672
109,20,5,ISIP_5,154,1,48,38,2164338144
109,20,5,ISIP_5,155,1,48,44,2164868500
109,20,5,ISIP_5,156,1,48,48,2165393700
109,20,5,ISIP_5,157,1,48,42,2165935524
109,20,5,ISIP_5,158,1,48,45,2166469696
109,20,5,ISIP_5,159,1,48,46,2166994972
109,20,5,ISIP_5,160,1,48,45,2167537820
109,20,5,ISIP_5,161,1,48,43,2168057700
109,20,5,ISIP_5,162,1,48,47,2168611100
109,20,5,ISIP_5,163,1,48,47,2169140120
109,20,5,ISIP_5,164,1,48,43,2169660304
109,20,5,ISIP_5,165,1,48,45,2170201440
109,20,5,ISIP_5,166,1,48,45,2170714444
109,20,5,ISIP_5,167,1,48,41,2171240536
109,20,5,ISIP_5,168,1,48,39,2171786972
109,20,5,ISIP_5,169,1,48,38,2172304016
109,20,5,ISIP_5,170,1,48,38,2172869104
109,20,5,ISIP_5,171,1,48,41,2173392728
109,20,5,ISIP_5,172,1,48,40,2173921068
109,20,5,ISIP_5,173,1,48,43,2174436840
109,20,5,ISIP_5,174,1,48,42,2174964580
109,20,5,ISIP_5,175,1,48,37,2175517524
109,20,5,ISIP_5,176,1,48,37,2176095976
109,20,5,ISIP_5,177,1,48,37,2176628668
109,20,5,ISIP_5,178,1,48,44,2177141004
109,20,5,ISIP_5,179,1,48,45,2177678688
109,20,5,ISIP_5,180,1,48,41,2178231280
109,20,5,ISIP_5,181,1,48,41,2178759324
109,20,5,ISIP_5,182,1,48,39,2179281228
109,20,5,ISIP_5,183,1,48,43,2179824680
109,20,5,ISIP_5,184,1,48,39,2180341796
109,20,5,ISIP_5,185,1,48,43,2180878660
109,20,5,ISIP_5,186,1,48,42,2181434148
109,20,5,ISIP_5,187,1,48,46,2181941768
109,20,5,ISIP_5,188,1,48,42,2182511168
109,20,5,ISIP_5,189,1,48,42,2183059704
109,20,5,ISIP_5,0,9999,9999,9999,2103119952
109,20,5,ISIP_5,1,9999,9999,9999,2103619668
109,20,5,ISIP_5,2,9999,9999,9999,2104119384
109,20,5,ISIP_5,3,9999,9999,9999,2104619104
109,20,5,ISIP_5,4,9999,9999,9999,2105119792
109,20,5,ISIP_5,5,9999,9999,9999,2105619556
109,20,5,ISIP_5,6,9999,9999,9999,2106119256
109,20,5,ISIP_5,7,9999,9999,9999,2106619996
109,20,5,ISIP_5,8,9999,9999,9999,2107119696
109,20,5,ISIP_5,9,9999,9999,9999,2107619392
109,20,5,ISIP_5,10,9999,9999,9999,2108119160
109,20,5,ISIP_5,11,9999,9999,9999,2108619828
109,20,5,ISIP_5,12,9999,9999,9999,2109119596
109,20,5,ISIP_5,13,9999,9999,9999,2109619284
109,20,5,ISIP_5,14,9999,9999,9999,2110120032
109,20,5,ISIP_5,15,9999,9999,9999,2110619700
109,20,5,ISIP_5,16,9999,9999,9999,2111119472
109,20,5,ISIP_5,17,9999,9999,9999,2111619168
109,20,5,ISIP_5,18,9999,9999,9999,2112119908
109,20,5,ISIP_5,19,9999,9999,9999,2112619596
109,20,5,ISIP_5,20,9999,9999,9999,2113119292
109,20,5,ISIP_5,21,9999,9999,9999,2113620032
109,20,5,ISIP_5,22,9999,9999,9999,2114119728
109,20,5,ISIP_5,23,9999,9999,9999,2114619496
109,20,5,ISIP_5,24,9999,9999,9999,2115119192
109,20,5,ISIP_5,25,9999,9999,9999,2115619932
109,20,5,ISIP_5,26,9999,9999,9999,2116119632
109,20,5,ISIP_5,27,9999,9999,9999,2116619328
109,20,5,ISIP_5,28,9999,9999,9999,2117120064
109,20,5,ISIP_5,29,9999,9999,9999,2117619832
109,20,5,ISIP_5,30,9999,9999,9999,2118119528
109,20,5,ISIP_5,31,9999,9999,9999,2118619232
109,20,5,ISIP_5,32,9999,9999,9999,2119119964
109,20,5,ISIP_5,33,9999,9999,9999,2119619668
109,20,5,ISIP_5,34,9999,9999,9999,2120119360
109,20,5,ISIP_5,35,9999,9999,9999,2120619056
109,20,5,ISIP_5,36,9999,9999,9999,2121119800
109,20,5,ISIP_5,37,9999,9999,9999,2121619544
109,20,5,ISIP_5,38,9999,9999,9999,2122119236
109,20,5,ISIP_5,39,9999,9999,9999,2122619980
109,20,5,ISIP_5,40,9999,9999,9999,2123119672
109,20,5,ISIP_5,41,9999,9999,9999,2123619436
109,20,5,ISIP_5,42,9999,9999,9999,2124119128
109,20,5,ISIP_5,43,9999,9999,9999,2124619864
109,20,5,ISIP_5,44,9999,9999,9999,2125119556
109,20,5,ISIP_5,45,9999,9999,9999,2125619320
109,20,5,ISIP_5,46,9999,9999,9999,2126120056
109,20,5,ISIP_5,47,9999,9999,9999,2126619748
109,20,5,ISIP_5,48,9999,9999,9999,2127119436
109,20,5,ISIP_5,49,9999,9999,9999,2127619128
109,20,5,ISIP_5,50,9999,9999,9999,2128119864
109,20,5,ISIP_5,51,9999,9999,9999,2128619632
109,20,5,ISIP_5,52,9999,9999,9999,2129119320
109,20,5,ISIP_5,53,9999,9999,9999,2129620056
109,20,5,ISIP_5,54,9999,9999,9999,2130119748
109,20,5,ISIP_5,55,9999,9999,9999,2130619440
109,20,5,ISIP_5,56,9999,9999,9999,2131119204
109,20,5,ISIP_5,57,9999,9999,9999,2131619944
109,20,5,ISIP_5,58,9999,9999,9999,2132119608
109,20,5,ISIP_5,59,9999,9999,9999,2132619372
109,20,5,ISIP_5,60,9999,9999,9999,2133120112
109,20,5,ISIP_5,61,9999,9999,9999,2133619800
109,20,5,ISIP_5,62,9999,9999,9999,2134119492
109,20,5,ISIP_5,63,9999,9999,9999,2134619200
109,20,5,ISIP_5,64,9999,9999,9999,2135119936
109,20,5,ISIP_5,65,9999,9999,9999,2135619704
109,20,5,ISIP_5,66,9999,9999,9999,2136119400
109,20,5,ISIP_5,67,9999,9999,9999,2136619088
109,20,5,ISIP_5,68,9999,9999,9999,2137119828
109,20,5,ISIP_5,69,9999,9999,9999,2137619516
109,20,5,ISIP_5,70,9999,9999,9999,2138119280
109,20,5,ISIP_5,71,9999,9999,9999,2138620020
109,20,5,ISIP_5,72,9999,9999,9999,2139119712
109,20,5,ISIP_5,73,9999,9999,9999,2139619404
109,20,5,ISIP_5,74,9999,9999,9999,2140119092
109,20,5,ISIP_5,75,9999,9999,9999,2140619828
109,20,5,ISIP_5,76,9999,9999,9999,2141119596
109,20,5,ISIP_5,77,9999,9999,9999,2141619284
109,20,5,ISIP_5,78,9999,9999,9999,2142120024
109,20,5,ISIP_5,79,9999,9999,9999,2142619716
109,20,5,ISIP_5,80,9999,9999,9999,2143119456
109,20,5,ISIP_5,81,9999,9999,9999,2143619144
109,20,5,ISIP_5,82,9999,9999,9999,2144119896
109,20,5,ISIP_5,83,9999,9999,9999,2144619588
109,20,5,ISIP_5,84,9999,9999,9999,2145119280
109,20,5,ISIP_5,85,9999,9999,9999,2145620016
109,20,5,ISIP_5,86,9999,9999,9999,2146119788
109,20,5,ISIP_5,87,9999,9999,9999,2146619480
109,20,5,ISIP_5,88,9999,9999,9999,2147119168
109,20,5,ISIP_5,89,9999,9999,9999,2147619908
109,20,5,ISIP_5,90,9999,9999,9999,2148119672
109,20,5,ISIP_5,91,9999,9999,9999,2148619364
109,20,5,ISIP_5,92,9999,9999,9999,2149120104
109,20,5,ISIP_5,93,9999,9999,9999,2149619792
109,20,5,ISIP_5,94,9999,9999,9999,2150119484
109,20,5,ISIP_5,95,9999,9999,9999,2150619248
109,20,5,ISIP_5,96,9999,9999,9999,2151119988
109,20,5,ISIP_5,97,9999,9999,9999,2151619676
109,20,5,ISIP_5,98,9999,9999,9999,2152119368
109,20,5,ISIP_5,99,9999,9999,9999,2152619072
109,20,5,ISIP_5,100,9999,9999,9999,2153119812
109,20,5,ISIP_5,101,9999,9999,9999,2153619556
109,20,5,ISIP_5,102,9999,9999,9999,2154119248
109,20,5,ISIP_5,103,9999,9999,9999,2154619984
109,20,5,ISIP_5,104,9999,9999,9999,2155119676
109,20,5,ISIP_5,105,9999,9999,9999,2155619440
109,20,5,ISIP_5,106,9999,9999,9999,2156119132
109,20,5,ISIP_5,107,9999,9999,9999,2156619868
109,20,5,ISIP_5,108,9999,9999,9999,2157119560
109,20,5,ISIP_5,109,9999,9999,9999,2157619252
109,20,5,ISIP_5,110,9999,9999,9999,2158120040
109,20,5,ISIP_5,111,9999,9999,9999,2158619728
109,20,5,ISIP_5,112,9999,9999,9999,2159119420
109,20,5,ISIP_5,113,9999,9999,9999,2159619184
109,20,5,ISIP_5,114,9999,9999,9999,2160119920
109,20,5,ISIP_5,115,9999,9999,9999,2160619628
109,20,5,ISIP_5,116,9999,9999,9999,2161119320
109,20,5,ISIP_5,117,9999,9999,9999,2161620060
109,20,5,ISIP_5,118,9999,9999,9999,2162119752
109,20,5,ISIP_5,119,9999,9999,9999,2162619448
109,20,5,ISIP_5,120,9999,9999,9999,2163119212
109,20,5,ISIP_5,121,9999,9999,9999,2163619948
109,20,5,ISIP_5,122,9999,9999,9999,2164119616
109,20,5,ISIP_5,123,9999,9999,9999,2164619384
109,20,5,ISIP_5,124,9999,9999,9999,2165120120
109,20,5,ISIP_5,125,9999,9999,9999,2165619808
109,20,5,ISIP_5,126,9999,9999,9999,2166119500
109,20,5,ISIP_5,127,9999,9999,9999,2166619192
109,20,5,ISIP_5,128,9999,9999,9999,2167119932
109,20,5,ISIP_5,129,9999,9999,9999,2167619636
109,20,5,ISIP_5,130,9999,9999,9999,2168119400
109,20,5,ISIP_5,131,9999,9999,9999,2168619092
109,20,5,ISIP_5,132,9999,9999,9999,2169119836
109,20,5,ISIP_5,133,9999,9999,9999,2169619528
109,20,5,ISIP_5,134,9999,9999,9999,2170119216
109,20,5,ISIP_5,135,9999,9999,9999,2170619956
109,20,5,ISIP_5,136,9999,9999,9999,2171119720
109,20,5,ISIP_5,137,9999,9999,9999,2171619412
109,20,5,ISIP_5,138,9999,9999,9999,2172119100
109,20,5,ISIP_5,139,9999,9999,9999,2172619840
109,20,5,ISIP_5,140,9999,9999,9999,2173119604
109,20,5,ISIP_5,141,9999,9999,9999,2173619292
109,20,5,ISIP_5,142,9999,9999,9999,2174120032
109,20,5,ISIP_5,143,9999,9999,9999,2174619724
109,20,5,ISIP_5,144,9999,9999,9999,2175119460
109,20,5,ISIP_5,145,9999,9999,9999,2175619152
109,20,5,ISIP_5,146,9999,9999,9999,2176119904
109,20,5,ISIP_5,147,9999,9999,9999,2176619600
109,20,5,ISIP_5,148,9999,9999,9999,2177119292
109,20,5,ISIP_5,149,9999,9999,9999,2177620028
109,20,5,ISIP_5,150,9999,9999,9999,2178119792
109,20,5,ISIP_5,151,9999,9999,9999,2178619484
109,20,5,ISIP_5,152,9999,9999,9999,2179119176
109,20,5,ISIP_5,153,9999,9999,9999,2179619912
109,20,5,ISIP_5,154,9999,9999,9999,2180119604
109,20,5,ISIP_5,155,9999,9999,9999,2180619368
109,20,5,ISIP_5,156,9999,9999,9999,2181120108
109,20,5,ISIP_5,157,9999,9999,9999,2181619796
109,20,5,ISIP_5,158,9999,9999,9999,2182119488
109,20,5,ISIP_5,159,9999,9999,9999,2182619252
109,21,3,ISIP_8,0,5,42,127,2209880388
109,21,3,ISIP_8,1,5,42,127,2210680068
109,21,3,ISIP_8,2,5,42,127,2211479896
109,21,3,ISIP_8,3,5,42,127,2212279824
109,21,3,ISIP_8,4,5,42,127,2213080404
109,21,3,ISIP_8,5,5,42,127,2213880232
109,21,3,ISIP_8,6,5,42,127,2214679916
109,21,3,ISIP_8,7,5,42,127,2215479744
109,21,3,ISIP_8,8,5,42,127,2216280472
109,21,3,ISIP_8,9,1,48,38,2217039644
109,21,3,ISIP_8,10,5,42,127,2217080144
109,21,3,ISIP_8,11,1,48,32,2217817012
109,21,3,ISIP_8,12,5,42,127,2217879952
109,21,3,ISIP_8,13,1,48,36,2218595780
109,21,3,ISIP_8,14,5,42,127,2218679764
109,21,3,ISIP_8,15,1,48,37,2219411072
109,21,3,ISIP_8,16,5,42,127,2219480544
109,21,3,ISIP_8,17,1,48,36,2220256684
109,21,3,ISIP_8,18,5,42,127,2220280276
109,21,3,ISIP_8,19,1,48,40,2221037412
109,21,3,ISIP_8,20,5,42,127,2221080008
109,21,3,ISIP_8,21,1,48,40,2221831764
109,21,3,ISIP_8,22,5,42,127,2221879816
109,21,3,ISIP_8,23,1,48,42,2222678260
109,21,3,ISIP_8,24,5,42,127,2222680672
109,21,3,ISIP_8,25,1,48,43,2223453820
109,21,3,ISIP_8,26,5,42,127,2223480032
109,21,3,ISIP_8,27,1,48,40,2224235004
109,21,3,ISIP_8,28,5,42,127,2224279840
109,21,3,ISIP_8,29,1,48,43,2225044884
109,21,3,ISIP_8,30,5,42,127,2225079648
109,21,3,ISIP_8,31,1,48,42,2225866704
109,21,3,ISIP_8,32,5,42,127,2225880576
109,21,3,ISIP_8,33,1,48,44,2226644824
109,21,3,ISIP_8,34,5,42,127,2226680088
109,21,3,ISIP_8,35,1,48,43,2227452632
109,21,3,ISIP_8,36,5,42,127,2227479892
109,21,3,ISIP_8,37,1,48,36,2228246012
109,21,3,ISIP_8,38,5,42,127,2228279704
109,21,3,ISIP_8,39,1,48,45,2229060252
109,21,3,ISIP_8,40,5,42,127,2229080708
109,21,3,ISIP_8,41,1,48,33,2229843460
109,21,3,ISIP_8,42,5,42,127,2229880144
109,21,3,ISIP_8,43,1,48,38,2230671692
109,21,3,ISIP_8,44,5,42,127,2230679976
109,21,3,ISIP_8,45,1,48,33,2231447336
109,21,3,ISIP_8,46,5,42,127,2231479608
109,21,3,ISIP_8,47,1,48,38,2232227624
109,21,3,ISIP_8,48,5,42,127,2232280464
109,21,3,ISIP_8,49,1,48,30,2232996612
109,21,3,ISIP_8,50,5,42,127,2233080344
109,21,3,ISIP_8,51,1,48,42,2233801888
109,21,3,ISIP_8,52,1,48,31,2234580072
109,21,3,ISIP_8,53,1,48,34,2235425876
109,21,3,ISIP_8,54,1,48,29,2236171152
109,21,3,ISIP_8,55,1,48,41,2236980384
109,21,3,ISIP_8,56,1,48,38,2237766728
109,21,3,ISIP_8,57,1,48,38,2238565704
109,21,3,ISIP_8,58,1,48,37,2239336492
109,21,3,ISIP_8,59,1,48,42,2240095452
109,21,3,ISIP_8,60,1,48,29,2240885160
109,21,3,ISIP_8,61,1,48,42,2241639708
109,21,3,ISIP_8,62,1,48,31,2242421632
109,21,3,ISIP_8,63,1,48,36,2243159136
109,21,3,ISIP_8,64,1,48,33,2243893116
109,21,3,ISIP_8,65,1,48,31,2244647148
109,21,3,ISIP_8,66,1,48,35,2245457124
109,21,3,ISIP_8,67,1,48,49,2246204720
109,21,3,ISIP_8,68,1,48,34,2246996368
109,21,3,ISIP_8,69,1,48,46,2247753164
109,21,3,ISIP_8,70,1,48,32,2248511752
109,21,3,ISIP_8,71,1,48,43,2249275352
109,21,3,ISIP_8,72,1,48,32,2250034764
109,21,3,ISIP_8,73,1,48,42,2250774432
109,21,3,ISIP_8,74,1,48,33,2251490912
109,21,3,ISIP_8,75,1,48,46,2252266992
109,21,3,ISIP_8,76,1,48,34,2253068064
109,21,3,ISIP_8,77,1,48,43,2253843188
109,21,3,ISIP_8,78,1,48,36,2254666476
109,21,3,ISIP_8,79,1,48,45,2255424168
109,21,3,ISIP_8,80,1,48,32,2256136012
109,21,3,ISIP_8,81,1,48,41,2256962596
109,21,3,ISIP_8,82,1,48,34,2257736744
109,21,3,ISIP_8,83,1,48,46,2258466532
109,21,3,ISIP_8,84,1,48,39,2259196624
109,21,3,ISIP_8,85,1,48,47,2260028596
109,21,3,ISIP_8,86,1,48,36,2260766164
109,21,3,ISIP_8,87,1,48,52,2261468132
109,21,3,ISIP_8,88,1,48,35,2262205932
109,21,3,ISIP_8,89,1,48,51,2262993840
109,21,3,ISIP_8,90,1,48,36,2263751312
109,21,3,ISIP_8,91,1,48,38,2264553584
109,21,3,ISIP_8,92,1,48,37,2265345160
109,21,3,ISIP_8,93,1,48,50,2266125288
109,21,3,ISIP_8,94,1,48,34,2266880740
109,21,3,ISIP_8,95,1,48,51,2267651080
109,21,3,ISIP_8,96,1,48,36,2268400388
109,21,3,ISIP_8,97,1,48,48,2269199892
109,21,3,ISIP_8,98,1,48,29,2269958856
109,21,3,ISIP_8,99,1,48,46,2270736144
109,21,3,ISIP_8,100,1,48,38,2271487704
109,21,3,ISIP_8,101,1,48,47,2272241048
109,21,3,ISIP_8,102,1,48,33,2272975032
109,21,3,ISIP_8,103,1,48,46,2273679372
109,21,3,ISIP_8,104,1,48,37,2274488844
109,21,3,ISIP_8,105,1,48,41,2275233596
109,21,3,ISIP_8,106,1,48,37,2276033628
109,21,3,ISIP_8,107,1,48,48,2276814884
109,21,3,ISIP_8,108,1,48,43,2277546248
109,21,3,ISIP_8,109,1,48,48,2278278856
109,21,3,ISIP_8,110,1,48,35,2279046200
109,21,3,ISIP_8,111,1,48,47,2279767764
109,21,3,ISIP_8,112,1,48,37,2280476016
109,21,3,ISIP_8,113,1,48,47,2281252556
109,21,3,ISIP_8,114,1,48,40,2281995292
109,21,3,ISIP_8,115,1,48,50,2282717456
109,21,3,ISIP_8,116,1,48,37,2283506336
109,21,3,ISIP_8,117,1,48,49,2284236868
109,21,3,ISIP_8,118,1,48,35,2284953344
109,21,3,ISIP_8,119,1,48,46,2285703832
109,21,3,ISIP_8,120,1,48,32,2286475808
109,21,3,ISIP_8,121,1,48,46,2287250032
109,21,3,ISIP_8,122,1,48,40,2288006304
109,21,3,ISIP_8,123,1,48,50,2288755392
109,21,3,ISIP_8,124,1,48,42,2289479804
109,21,3,ISIP_8,125,1,48,51,2290261356
109,21,3,ISIP_8,126,1,48,35,2290987632
109,21,3,ISIP_8,127,1,48,49,2291710764
109,21,3,ISIP_8,128,1,48,31,2292438168
109,21,3,ISIP_8,129,1,48,46,2293169236
109,21,3,ISIP_8,130,1,48,37,2293917352
109,21,3,ISIP_8,131,1,48,50,2294659672
109,21,3,ISIP_8,132,1,48,34,2295388420
109,21,3,ISIP_8,133,1,48,53,2296109160
109,21,3,ISIP_8,134,1,48,37,2296876428
109,21,3,ISIP_8,135,1,48,53,2297606744
109,21,3,ISIP_8,136,1,48,36,2298330552
109,21,3,ISIP_8,137,1,48,50,2299066928
109,21,3,ISIP_8,138,1,48,38,2299815420
109,21,3,ISIP_8,139,1,48,49,2300538680
109,21,3,ISIP_8,140,1,48,31,2301309536
109,21,3,ISIP_8,141,1,48,54,2302055712
109,21,3,ISIP_8,142,1,48,33,2302709360
109,21,3,ISIP_8,143,1,48,51,2303452380
109,21,3,ISIP_8,144,1,48,38,2304199228
109,21,3,ISIP_8,145,1,48,51,2304918176
109,21,3,ISIP_8,146,1,48,32,2305682580
109,21,3,ISIP_8,147,1,48,51,2306415356
109,21,3,ISIP_8,148,1,48,28,2307116804
109,21,3,ISIP_8,149,1,48,46,2307893496
109,21,3,ISIP_8,150,1,48,26,2308618124
109,21,3,ISIP_8,151,1,48,47,2309383076
109,21,3,ISIP_8,152,1,48,35,2310123868
109,21,3,ISIP_8,153,1,48,56,2310881108
109,21,3,ISIP_8,154,1,48,35,2311588016
109,21,3,ISIP_8,155,1,48,55,2312326832
109,21,3,ISIP_8,156,1,48,33,2313041132
109,21,3,ISIP_8,157,1,48,43,2313781920
109,21,3,ISIP_8,158,1,48,23,2314523008
109,21,3,ISIP_8,159,1,48,51,2315277412
109,21,3,ISIP_8,160,1,48,46,2315944152
109,21,3,ISIP_8,161,1,48,50,2316752628
109,21,3,ISIP_8,162,1,48,30,2317505836
109,21,3,ISIP_8,163,1,48,57,2318260984
109,21,3,ISIP_8,164,1,48,41,2318964052
109,21,3,ISIP_8,165,1,48,48,2319728700
109,21,3,ISIP_8,166,1,48,41,2320407328
109,21,3,ISIP_8,167,1,48,52,2321123132
109,21,3,ISIP_8,168,1,48,43,2321849024
109,21,3,ISIP_8,169,1,48,50,2322611128
109,21,3,ISIP_8,170,1,48,43,2323291980
109,21,3,ISIP_8,171,1,48,48,2324050420
109,21,3,ISIP_8,172,1,48,42,2324785600
109,21,3,ISIP_8,173,1,48,47,2325577852
109,21,3,ISIP_8,174,1,48,36,2326295448
109,21,3,ISIP_8,175,1,48,55,2326989564
109,21,3,ISIP_8,176,1,48,45,2327721008
109,21,3,ISIP_8,177,1,48,57,2328445464
109,21,3,ISIP_8,178,1,48,40,2329139876
109,21,3,ISIP_8,0,9999,9999,9999,2209878096
109,21,3,ISIP_8,1,9999,9999,9999,2210677852
109,21,3,ISIP_8,2,9999,9999,9999,2211477608
109,21,3,ISIP_8,3,9999,9999,9999,2212277312
109,21,3,ISIP_8,4,9999,9999,9999,2213078116
109,21,3,ISIP_8,5,9999,9999,9999,2213877872
109,21,3,ISIP_8,6,9999,9999,9999,2214677552
109,21,3,ISIP_8,7,9999,9999,9999,2215477308
109,21,3,ISIP_8,8,9999,9999,9999,2216278108
109,21,3,ISIP_8,9,9999,9999,9999,2217077856
109,21,3,ISIP_8,10,9999,9999,9999,2217877592
109,21,3,ISIP_8,11,9999,9999,9999,2218677324
109,21,3,ISIP_8,12,9999,9999,9999,2219478104
109,21,3,ISIP_8,13,9999,9999,9999,2220277840
109,21,3,ISIP_8,14,9999,9999,9999,2221077572
109,21,3,ISIP_8,15,9999,9999,9999,2221877304
109,21,3,ISIP_8,16,9999,9999,9999,2222678132
109,21,3,ISIP_8,17,9999,9999,9999,2223477820
109,21,3,ISIP_8,18,9999,9999,9999,2224277552
109,21,3,ISIP_8,19,9999,9999,9999,2225077360
109,21,3,ISIP_8,20,9999,9999,9999,2225878064
109,21,3,ISIP_8,21,9999,9999,9999,2226677872
109,21,3,ISIP_8,22,9999,9999,9999,2227477608
109,21,3,ISIP_8,23,9999,9999,9999,2228277340
109,21,3,ISIP_8,24,9999,9999,9999,2229078120
109,21,3,ISIP_8,25,9999,9999,9999,2229877856
109,21,3,ISIP_8,26,9999,9999,9999,2230677588
109,21,3,ISIP_8,27,9999,9999,9999,2231477320
109,21,3,ISIP_8,28,9999,9999,9999,2232278100
109,21,3,ISIP_8,29,9999,9999,9999,2233077836
109,21,3,ISIP_8,30,9999,9999,9999,2233877568
109,21,3,ISIP_8,31,9999,9999,9999,2234677300
109,21,3,ISIP_8,32,9999,9999,9999,2235478072
109,21,3,ISIP_8,33,9999,9999,9999,2236277864
109,21,3,ISIP_8,34,9999,9999,9999,2237077592
109,21,3,ISIP_8,35,9999,9999,9999,2237877348
109,21,3,ISIP_8,36,9999,9999,9999,2238678124
109,21,3,ISIP_8,37,9999,9999,9999,2239477852
109,21,3,ISIP_8,38,9999,9999,9999,2240277584
109,21,3,ISIP_8,39,9999,9999,9999,2241077312
109,21,3,ISIP_8,40,9999,9999,9999,2241878088
109,21,3,ISIP_8,41,9999,9999,9999,2242677820
109,21,3,ISIP_8,42,9999,9999,9999,2243477624
109,21,3,ISIP_8,43,9999,9999,9999,2244277304
109,21,3,ISIP_8,44,9999,9999,9999,2245078080
109,21,3,ISIP_8,45,9999,9999,9999,2245877808
109,21,3,ISIP_8,46,9999,9999,9999,2246677612
109,21,3,ISIP_8,47,9999,9999,9999,2247477340
109,21,3,ISIP_8,48,9999,9999,9999,2248278116
109,21,3,ISIP_8,49,9999,9999,9999,2249077844
109,21,3,ISIP_8,50,9999,9999,9999,2249877572
109,21,3,ISIP_8,51,9999,9999,9999,2250677328
109,21,3,ISIP_8,52,9999,9999,9999,2251478104
109,21,3,ISIP_8,53,9999,9999,9999,2252277828
109,21,3,ISIP_8,54,9999,9999,9999,2253077556
109,21,3,ISIP_8,55,9999,9999,9999,2253877360
109,21,3,ISIP_8,56,9999,9999,9999,2254678060
109,21,3,ISIP_8,57,9999,9999,9999,2255477864
109,21,3,ISIP_8,58,9999,9999,9999,2256277576
109,21,3,ISIP_8,59,9999,9999,9999,2257077332
109,21,3,ISIP_8,60,9999,9999,9999,2257878108
109,21,3,ISIP_8,61,9999,9999,9999,2258677836
109,21,3,ISIP_8,62,9999,9999,9999,2259477564
109,21,3,ISIP_8,63,9999,9999,9999,2260277296
109,21,3,ISIP_8,64,9999,9999,9999,2261078072
109,21,3,ISIP_8,65,9999,9999,9999,2261877876
109,21,3,ISIP_8,66,9999,9999,9999,2262677556
109,21,3,ISIP_8,67,9999,9999,9999,2263477360
109,21,3,ISIP_8,68,9999,9999,9999,2264278136
109,21,3,ISIP_8,69,9999,9999,9999,2265077864
109,21,3,ISIP_8,70,9999,9999,9999,2265877592
109,21,3,ISIP_8,71,9999,9999,9999,2266677324
109,21,3,ISIP_8,72,9999,9999,9999,2267478100
109,21,3,ISIP_8,73,9999,9999,9999,2268277828
109,21,3,ISIP_8,74,9999,9999,9999,2269077580
109,21,3,ISIP_8,75,9999,9999,9999,2269877312
109,21,3,ISIP_8,76,9999,9999,9999,2270678088
109,21,3,ISIP_8,77,9999,9999,9999,2271477816
109,21,3,ISIP_8,78,9999,9999,9999,2272277612
109,21,3,ISIP_8,79,9999,9999,9999,2273077328
109,21,3,ISIP_8,80,9999,9999,9999,2273878104
109,21,3,ISIP_8,81,9999,9999,9999,2274677832
109,21,3,ISIP_8,82,9999,9999,9999,2275477588
109,21,3,ISIP_8,83,9999,9999,9999,2276277316
109,21,3,ISIP_8,84,9999,9999,9999,2277078092
109,21,3,ISIP_8,85,9999,9999,9999,2277877824
109,21,3,ISIP_8,86,9999,9999,9999,2278677552
109,21,3,ISIP_8,87,9999,9999,9999,2279477356
109,21,3,ISIP_8,88,9999,9999,9999,2280278132
109,21,3,ISIP_8,89,9999,9999,9999,2281077860
109,21,3,ISIP_8,90,9999,9999,9999,2281877616
109,21,3,ISIP_8,91,9999,9999,9999,2282677344
109,21,3,ISIP_8,92,9999,9999,9999,2283478120
109,21,3,ISIP_8,93,9999,9999,9999,2284277844
109,21,3,ISIP_8,94,9999,9999,9999,2285077556
109,21,3,ISIP_8,95,9999,9999,9999,2285877360
109,21,3,ISIP_8,96,9999,9999,9999,2286678060
109,21,3,ISIP_8,97,9999,9999,9999,2287477864
109,21,3,ISIP_8,98,9999,9999,9999,2288277616
109,21,3,ISIP_8,99,9999,9999,9999,2289077348
109,21,3,ISIP_8,100,9999,9999,9999,2289878124
109,21,3,ISIP_8,101,9999,9999,9999,2290677852
109,21,3,ISIP_8,102,9999,9999,9999,2291477580
109,21,3,ISIP_8,103,9999,9999,9999,2292277308
109,21,3,ISIP_8,104,9999,9999,9999,2293078084
109,21,3,ISIP_8,105,9999,9999,9999,2293877816
109,21,3,ISIP_8,106,9999,9999,9999,2294677564
109,21,3,ISIP_8,107,9999,9999,9999,2295477364
109,21,3,ISIP_8,108,9999,9999,9999,2296278128
109,21,3,ISIP_8,109,9999,9999,9999,2297077856
109,21,3,ISIP_8,110,9999,9999,9999,2297877584
109,21,3,ISIP_8,111,9999,9999,9999,2298677312
109,21,3,ISIP_8,112,9999,9999,9999,2299478088
109,21,3,ISIP_8,113,9999,9999,9999,2300277820
109,21,3,ISIP_8,114,9999,9999,9999,2301077572
109,21,3,ISIP_8,115,9999,9999,9999,2301877300
109,21,3,ISIP_8,116,9999,9999,9999,2302678076
109,21,3,ISIP_8,117,9999,9999,9999,2303477872
109,21,3,ISIP_8,118,9999,9999,9999,2304277604
109,21,3,ISIP_8,119,9999,9999,9999,2305077320
109,21,3,ISIP_8,120,9999,9999,9999,2305878096
109,21,3,ISIP_8,121,9999,9999,9999,2306677824
109,21,3,ISIP_8,122,9999,9999,9999,2307477576
109,21,3,ISIP_8,123,9999,9999,9999,2308277308
109,21,3,ISIP_8,124,9999,9999,9999,2309078084
109,21,3,ISIP_8,125,9999,9999,9999,2309877812
109,21,3,ISIP_8,126,9999,9999,9999,2310677616
109,21,3,ISIP_8,127,9999,9999,9999,2311477348
109,21,3,ISIP_8,128,9999,9999,9999,2312278124
109,21,3,ISIP_8,129,9999,9999,9999,2313077844
109,21,3,ISIP_8,130,9999,9999,9999,2313877584
109,21,3,ISIP_8,131,9999,9999,9999,2314677316
109,21,3,ISIP_8,132,9999,9999,9999,2315478092
109,21,3,ISIP_8,133,9999,9999,9999,2316277820
109,21,3,ISIP_8,134,9999,9999,9999,2317077624
109,21,3,ISIP_8,135,9999,9999,9999,2317877352
109,21,3,ISIP_8,136,9999,9999,9999,2318678128
109,21,3,ISIP_8,137,9999,9999,9999,2319477856
109,21,3,ISIP_8,138,9999,9999,9999,2320277612
109,21,3,ISIP_8,139,9999,9999,9999,2321077340
109,21,3,ISIP_8,140,9999,9999,9999,2321878112
109,21,3,ISIP_8,141,9999,9999,9999,2322677840
109,21,3,ISIP_8,142,9999,9999,9999,2323477552
109,21,3,ISIP_8,143,9999,9999,9999,2324277356
109,21,3,ISIP_8,144,9999,9999,9999,2325078132
109,21,3,ISIP_8,145,9999,9999,9999,2325877860
109,21,3,ISIP_8,146,9999,9999,9999,2326677616
109,21,3,ISIP_8,147,9999,9999,9999,2327477348
109,21,3,ISIP_8,148,9999,9999,9999,2328278124
109,21,3,ISIP_8,149,9999,9999,9999,2329077852
109,22,11,Pattern_Practice,0,5,42,127,2428088856
109,22,11,Pattern_Practice,1,5,42,127,2428589396
109,22,11,Pattern_Practice,2,5,42,127,2429089112
109,22,11,Pattern_Practice,3,5,42,127,2429589052
109,22,11,Pattern_Practice,4,1,48,19,2429873960
109,22,11,Pattern_Practice,5,5,42,127,2430088724
109,22,11,Pattern_Practice,6,1,48,39,2430113408
109,22,11,Pattern_Practice,7,1,48,24,2430583068
109,22,11,Pattern_Practice,8,5,42,127,2430589308
109,22,11,Pattern_Practice,9,1,48,29,2430722144
109,22,11,Pattern_Practice,10,5,42,127,2431088992
109,22,11,Pattern_Practice,11,1,48,43,2431165736
109,22,11,Pattern_Practice,12,5,42,127,2431588832
109,22,11,Pattern_Practice,13,1,48,31,2431699312
109,22,11,Pattern_Practice,14,1,48,15,2432056328
109,22,11,Pattern_Practice,15,5,42,127,2432088896
109,22,11,Pattern_Practice,16,1,48,51,2432221280
109,22,11,Pattern_Practice,17,5,42,127,2432589252
109,22,11,Pattern_Practice,18,1,48,16,2432607332
109,22,11,Pattern_Practice,19,1,48,47,2432744288
109,22,11,Pattern_Practice,20,5,42,127,2433088776
109,22,11,Pattern_Practice,21,1,48,35,2433116804
109,22,11,Pattern_Practice,22,5,42,127,2433588768
109,22,11,Pattern_Practice,23,5,42,127,2434089308
109,22,11,Pattern_Practice,24,5,42,127,2434589024
109,22,11,Pattern_Practice,25,1,48,51,2434622436
109,22,11,Pattern_Practice,26,1,48,21,2435021808
109,22,11,Pattern_Practice,27,5,42,127,2435088936
109,22,11,Pattern_Practice,28,1,48,52,2435118816
109,22,11,Pattern_Practice,29,1,48,21,2435512956
109,22,11,Pattern_Practice,30,5,42,127,2435588464
109,22,11,Pattern_Practice,31,1,48,46,2435617072
109,22,11,Pattern_Practice,32,1,48,16,2435982036
109,22,11,Pattern_Practice,33,5,42,127,2436089092
109,22,11,Pattern_Practice,34,1,48,46,2436115024
109,22,11,Pattern_Practice,35,5,42,127,2436589012
109,22,11,Pattern_Practice,36,1,48,50,2436597292
109,22,11,Pattern_Practice,37,1,48,21,2436899772
109,22,11,Pattern_Practice,38,5,42,127,2437088684
109,22,11,Pattern_Practice,39,1,48,33,2437201012
109,22,11,Pattern_Practice,40,1,48,16,2437476188
109,22,11,Pattern_Practice,41,5,42,127,2437589404
109,22,11,Pattern_Practice,42,1,48,49,2437781260
109,22,11,Pattern_Practice,43,5,42,127,2438089100
109,22,11,Pattern_Practice,44,1,48,22,2438107100
109,22,11,Pattern_Practice,45,1,48,49,2438262284
109,22,11,Pattern_Practice,46,5,42,127,2438588920
109,22,11,Pattern_Practice,47,1,48,23,2438640056
109,22,11,Pattern_Practice,48,1,48,38,2438779160
109,22,11,Pattern_Practice,49,5,42,127,2439088592
109,22,11,Pattern_Practice,50,1,48,44,2439130076
109,22,11,Pattern_Practice,51,1,48,25,2439381852
109,22,11,Pattern_Practice,52,5,42,127,2439589160
109,22,11,Pattern_Practice,53,1,48,19,2439605744
109,22,11,Pattern_Practice,54,1,48,40,2439770504
109,22,11,Pattern_Practice,55,5,42,127,2440088984
109,22,11,Pattern_Practice,56,1,48,32,2440142968
109,22,11,Pattern_Practice,57,1,48,18,2440389800
109,22,11,Pattern_Practice,58,1,48,49,2440472128
109,22,11,Pattern_Practice,59,5,42,127,2440588856
109,22,11,Pattern_Practice,60,1,48,19,2440801856
109,22,11,Pattern_Practice,61,1,48,36,2440939040
109,22,11,Pattern_Practice,62,5,42,127,2441089252
109,22,11,Pattern_Practice,63,1,48,40,2441356980
109,22,11,Pattern_Practice,64,1,48,19,2441527576
109,22,11,Pattern_Practice,65,5,42,127,2441589240
109,22,11,Pattern_Practice,66,1,48,33,2441709052
109,22,11,Pattern_Practice,67,1,48,23,2441888420
109,22,11,Pattern_Practice,68,5,42,127,2442088748
109,22,11,Pattern_Practice,69,1,48,40,2442197804
109,22,11,Pattern_Practice,70,1,48,28,2442562000
109,22,11,Pattern_Practice,71,5,42,127,2442588660
109,22,11,Pattern_Practice,72,1,48,15,2442812144
109,22,11,Pattern_Practice,73,1,48,53,2442954864
109,22,11,Pattern_Practice,74,5,42,127,2443089216
109,22,11,Pattern_Practice,75,1,48,32,2443317428
109,22,11,Pattern_Practice,76,1,48,21,2443474504
109,22,11,Pattern_Practice,77,5,42,127,2443589112
109,22,11,Pattern_Practice,78,1,48,49,2443634416
109,22,11,Pattern_Practice,79,1,48,30,2443943880
109,22,11,Pattern_Practice,80,5,42,127,2444088560
109,22,11,Pattern_Practice,81,1,48,22,2444110080
109,22,11,Pattern_Practice,82,1,48,52,2444244568
109,22,11,Pattern_Practice,83,5,42,127,2444589652
109,22,11,Pattern_Practice,84,1,48,39,2444606384
109,22,11,Pattern_Practice,85,1,48,43,2444887256
109,22,11,Pattern_Practice,86,5,42,127,2445089100
109,22,11,Pattern_Practice,87,1,48,25,2445271088
109,22,11,Pattern_Practice,88,1,48,19,2445445196
109,22,11,Pattern_Practice,89,5,42,127,2445588924
109,22,11,Pattern_Practice,90,1,48,56,2445597952
109,22,11,Pattern_Practice,91,1,48,30,2445907616
109,22,11,Pattern_Practice,92,5,42,127,2446088672
109,22,11,Pattern_Practice,93,1,48,28,2446100840
109,22,11,Pattern_Practice,94,1,48,27,2446275796
109,22,11,Pattern_Practice,95,1,48,42,2446579548
109,22,11,Pattern_Practice,96,5,42,127,2446589380
109,22,11,Pattern_Practice,97,1,48,48,2446923044
109,22,11,Pattern_Practice,98,5,42,127,2447089060
109,22,11,Pattern_Practice,99,1,48,38,2447239680
109,22,11,Pattern_Practice,100,1,38,32,2447531940
109,22,11,Pattern_Practice,101,5,42,127,2447588900
109,22,11,Pattern_Practice,102,1,48,56,2447639200
109,22,11,Pattern_Practice,103,1,48,27,2447907576
109,22,11,Pattern_Practice,104,5,42,127,2448088704
109,22,11,Pattern_Practice,105,1,48,47,2448188912
109,22,11,Pattern_Practice,106,1,48,42,2448367528
109,22,11,Pattern_Practice,107,5,42,127,2448589276
109,22,11,Pattern_Practice,108,1,38,45,2448794372
109,22,11,Pattern_Practice,109,5,42,127,2449088820
109,22,11,Pattern_Practice,110,1,38,30,2449181544
109,22,11,Pattern_Practice,111,5,42,127,2449588736
109,22,11,Pattern_Practice,112,5,42,127,2450089500
109,22,11,Pattern_Practice,113,1,48,40,2450154632
109,22,11,Pattern_Practice,114,1,48,22,2450468332
109,22,11,Pattern_Practice,115,1,48,38,2450583972
109,22,11,Pattern_Practice,116,5,42,127,2450589168
109,22,11,Pattern_Practice,117,1,48,24,2450841900
109,22,11,Pattern_Practice,118,5,42,127,2451088700
109,22,11,Pattern_Practice,119,1,48,25,2451120012
109,22,11,Pattern_Practice,120,5,42,127,2451588740
109,22,11,Pattern_Practice,121,1,48,47,2451747764
109,22,11,Pattern_Practice,122,1,48,32,2452072316
109,22,11,Pattern_Practice,123,5,42,127,2452089104
109,22,11,Pattern_Practice,124,1,48,47,2452216924
109,22,11,Pattern_Practice,125,1,48,27,2452421724
109,22,11,Pattern_Practice,126,5,42,127,2452588988
109,22,11,Pattern_Practice,127,1,48,42,2452733200
109,22,11,Pattern_Practice,128,1,48,25,2452918100
109,22,11,Pattern_Practice,129,1,48,49,2453073880
109,22,11,Pattern_Practice,130,5,42,127,2453088580
109,22,11,Pattern_Practice,131,1,48,21,2453373100
109,22,11,Pattern_Practice,132,1,48,29,2453539524
109,22,11,Pattern_Practice,133,5,42,127,2453589448
109,22,11,Pattern_Practice,134,1,48,17,2453787728
109,22,11,Pattern_Practice,135,1,48,33,2453930960
109,22,11,Pattern_Practice,136,5,42,127,2454089032
109,22,11,Pattern_Practice,137,1,48,17,2454276256
109,22,11,Pattern_Practice,138,1,48,21,2454456668
109,22,11,Pattern_Practice,139,5,42,127,2454588704
109,22,11,Pattern_Practice,140,1,48,53,2454807788
109,22,11,Pattern_Practice,141,5,42,127,2455088548
109,22,11,Pattern_Practice,142,1,48,40,2455162872
109,22,11,Pattern_Practice,143,1,48,48,2455389512
109,22,11,Pattern_Practice,144,5,42,127,2455589192
109,22,11,Pattern_Practice,145,1,48,25,2455604952
109,22,11,Pattern_Practice,146,1,48,38,2455962888
109,22,11,Pattern_Practice,147,5,42,127,2456088792
109,22,11,Pattern_Practice,148,1,48,26,2456175980
109,22,11,Pattern_Practice,149,1,48,33,2456332388
109,22,11,Pattern_Practice,150,5,42,127,2456588760
109,22,11,Pattern_Practice,151,1,48,30,2456708488
109,22,11,Pattern_Practice,152,1,48,42,2457056404
109,22,11,Pattern_Practice,153,5,42,127,2457089420
109,22,11,Pattern_Practice,154,1,48,40,2457461900
109,22,11,Pattern_Practice,155,5,42,127,2457589024
109,22,11,Pattern_Practice,156,1,48,45,2457858372
109,22,11,Pattern_Practice,157,5,42,127,2458088792
109,22,11,Pattern_Practice,158,1,48,29,2458193784
109,22,11,Pattern_Practice,159,1,48,38,2458324980
109,22,11,Pattern_Practice,160,1,48,35,2458548560
109,22,11,Pattern_Practice,161,5,42,127,2458588608
109,22,11,Pattern_Practice,162,1,48,28,2458923320
109,22,11,Pattern_Practice,163,1,48,23,2459084812
109,22,11,Pattern_Practice,164,5,42,127,2459089480
109,22,11,Pattern_Practice,165,1,48,46,2459286936
109,22,11,Pattern_Practice,166,5,42,127,2459589084
109,22,11,Pattern_Practice,167,1,48,31,2459623172
109,22,11,Pattern_Practice,168,1,48,37,2459995220
109,22,11,Pattern_Practice,169,5,42,127,2460088684
109,22,11,Pattern_Practice,170,1,48,39,2460397976
109,22,11,Pattern_Practice,171,5,42,127,2460589424
109,22,11,Pattern_Practice,172,1,48,46,2460784248
109,22,11,Pattern_Practice,173,5,42,127,2461089268
109,22,11,Pattern_Practice,174,1,48,32,2461110860
109,22,11,Pattern_Practice,175,1,48,44,2461239568
109,22,11,Pattern_Practice,176,1,48,30,2461453568
109,22,11,Pattern_Practice,177,5,42,127,2461588692
109,22,11,Pattern_Practice,178,1,48,35,2461780228
109,22,11,Pattern_Practice,179,5,42,127,2462088436
109,22,11,Pattern_Practice,180,1,48,26,2462126216
109,22,11,Pattern_Practice,181,1,48,34,2462498260
109,22,11,Pattern_Practice,182,5,42,127,2462589244
109,22,11,Pattern_Practice,183,1,48,30,2462824172
109,22,11,Pattern_Practice,184,5,42,127,2463089148
109,22,11,Pattern_Practice,185,1,48,38,2463238372
109,22,11,Pattern_Practice,186,5,42,127,2463588768
109,22,11,Pattern_Practice,187,1,48,47,2463626892
109,22,11,Pattern_Practice,188,1,48,51,2464013148
109,22,11,Pattern_Practice,189,5,42,127,2464088356
109,22,11,Pattern_Practice,190,1,48,34,2464431912
109,22,11,Pattern_Practice,191,5,42,127,2464589308
109,22,11,Pattern_Practice,192,1,38,47,2464859552
109,22,11,Pattern_Practice,193,5,42,127,2465089076
109,22,11,Pattern_Practice,194,1,38,37,2465227456
109,22,11,Pattern_Practice,195,5,42,127,2465588548
109,22,11,Pattern_Practice,196,1,38,45,2465603784
109,22,11,Pattern_Practice,197,1,38,17,2465701620
109,22,11,Pattern_Practice,198,1,38,32,2465966484
109,22,11,Pattern_Practice,199,5,42,127,2466089244
109,22,11,Pattern_Practice,200,1,38,32,2466108144
109,22,11,Pattern_Practice,201,1,38,31,2466330444
109,22,11,Pattern_Practice,202,1,38,29,2466519092
109,22,11,Pattern_Practice,203,5,42,127,2466589060
109,22,11,Pattern_Practice,204,1,38,26,2466653944
109,22,11,Pattern_Practice,205,1,38,27,2466875576
109,22,11,Pattern_Practice,206,1,38,36,2467042380
109,22,11,Pattern_Practice,207,5,42,127,2467088708
109,22,11,Pattern_Practice,208,1,38,27,2467245324
109,22,11,Pattern_Practice,209,1,38,30,2467398112
109,22,11,Pattern_Practice,210,1,38,20,2467554964
109,22,11,Pattern_Practice,211,5,42,127,2467588584
109,22,11,Pattern_Practice,212,1,38,26,2467716748
109,22,11,Pattern_Practice,213,1,38,26,2467889084
109,22,11,Pattern_Practice,214,1,38,17,2468042348
109,22,11,Pattern_Practice,0,9999,9999,9999,2428086348
109,22,11,Pattern_Practice,1,9999,9999,9999,2428587108
109,22,11,Pattern_Practice,2,9999,9999,9999,2429086828
109,22,11,Pattern_Practice,3,9999,9999,9999,2429586540
109,22,11,Pattern_Practice,4,9999,9999,9999,2430086212
109,22,11,Pattern_Practice,5,9999,9999,9999,2430586948
109,22,11,Pattern_Practice,6,9999,9999,9999,2431086704
109,22,11,Pattern_Practice,7,9999,9999,9999,2431586400
109,22,11,Pattern_Practice,8,9999,9999,9999,2432086088
109,22,11,Pattern_Practice,9,9999,9999,9999,2432586816
109,22,11,Pattern_Practice,10,9999,9999,9999,2433086564
109,22,11,Pattern_Practice,11,9999,9999,9999,2433586260
109,22,11,Pattern_Practice,12,9999,9999,9999,2434087024
109,22,11,Pattern_Practice,13,9999,9999,9999,2434586740
109,22,11,Pattern_Practice,14,9999,9999,9999,2435086428
109,22,11,Pattern_Practice,15,9999,9999,9999,2435586100
109,22,11,Pattern_Practice,16,9999,9999,9999,2436086880
109,22,11,Pattern_Practice,17,9999,9999,9999,2436586576
109,22,11,Pattern_Practice,18,9999,9999,9999,2437086324
109,22,11,Pattern_Practice,19,9999,9999,9999,2437587040
109,22,11,Pattern_Practice,20,9999,9999,9999,2438086736
109,22,11,Pattern_Practice,21,9999,9999,9999,2438586484
109,22,11,Pattern_Practice,22,9999,9999,9999,2439086156
109,22,11,Pattern_Practice,23,9999,9999,9999,2439586876
109,22,11,Pattern_Practice,24,9999,9999,9999,2440086620
109,22,11,Pattern_Practice,25,9999,9999,9999,2440586324
109,22,11,Pattern_Practice,26,9999,9999,9999,2441087040
109,22,11,Pattern_Practice,27,9999,9999,9999,2441586804
109,22,11,Pattern_Practice,28,9999,9999,9999,2442086464
109,22,11,Pattern_Practice,29,9999,9999,9999,2442586224
109,22,11,Pattern_Practice,30,9999,9999,9999,2443086928
109,22,11,Pattern_Practice,31,9999,9999,9999,2443586676
109,22,11,Pattern_Practice,32,9999,9999,9999,2444086348
109,22,11,Pattern_Practice,33,9999,9999,9999,2444587068
109,22,11,Pattern_Practice,34,9999,9999,9999,2445086816
109,22,11,Pattern_Practice,35,9999,9999,9999,2445586488
109,22,11,Pattern_Practice,36,9999,9999,9999,2446086232
109,22,11,Pattern_Practice,37,9999,9999,9999,2446586948
109,22,11,Pattern_Practice,38,9999,9999,9999,2447086700
109,22,11,Pattern_Practice,39,9999,9999,9999,2447586388
109,22,11,Pattern_Practice,40,9999,9999,9999,2448086120
109,22,11,Pattern_Practice,41,9999,9999,9999,2448586840
109,22,11,Pattern_Practice,42,9999,9999,9999,2449086536
109,22,11,Pattern_Practice,43,9999,9999,9999,2449586228
109,22,11,Pattern_Practice,44,9999,9999,9999,2450086992
109,22,11,Pattern_Practice,45,9999,9999,9999,2450586732
109,22,11,Pattern_Practice,46,9999,9999,9999,2451086412
109,22,11,Pattern_Practice,47,9999,9999,9999,2451586156
109,22,11,Pattern_Practice,48,9999,9999,9999,2452086892
109,22,11,Pattern_Practice,49,9999,9999,9999,2452586552
109,22,11,Pattern_Practice,50,9999,9999,9999,2453086292
109,22,11,Pattern_Practice,51,9999,9999,9999,2453587012
109,22,11,Pattern_Practice,52,9999,9999,9999,2454086744
109,22,11,Pattern_Practice,53,9999,9999,9999,2454586492
109,22,11,Pattern_Practice,54,9999,9999,9999,2455086184
109,22,11,Pattern_Practice,55,9999,9999,9999,2455586904
109,22,11,Pattern_Practice,56,9999,9999,9999,2456086576
109,22,11,Pattern_Practice,57,9999,9999,9999,2456586324
109,22,11,Pattern_Practice,58,9999,9999,9999,2457087060
109,22,11,Pattern_Practice,59,9999,9999,9999,2457586736
109,22,11,Pattern_Practice,60,9999,9999,9999,2458086508
109,22,11,Pattern_Practice,61,9999,9999,9999,2458586172
109,22,11,Pattern_Practice,62,9999,9999,9999,2459086968
109,22,11,Pattern_Practice,63,9999,9999,9999,2459586648
109,22,11,Pattern_Practice,64,9999,9999,9999,2460086368
109,22,11,Pattern_Practice,65,9999,9999,9999,2460587064
109,22,11,Pattern_Practice,66,9999,9999,9999,2461086832
109,22,11,Pattern_Practice,67,9999,9999,9999,2461586480
109,22,11,Pattern_Practice,68,9999,9999,9999,2462086224
109,22,11,Pattern_Practice,69,9999,9999,9999,2462586960
109,22,11,Pattern_Practice,70,9999,9999,9999,2463086712
109,22,11,Pattern_Practice,71,9999,9999,9999,2463586408
109,22,11,Pattern_Practice,72,9999,9999,9999,2464086072
109,22,11,Pattern_Practice,73,9999,9999,9999,2464586872
109,22,11,Pattern_Practice,74,9999,9999,9999,2465086564
109,22,11,Pattern_Practice,75,9999,9999,9999,2465586260
109,22,11,Pattern_Practice,76,9999,9999,9999,2466087032
109,22,11,Pattern_Practice,77,9999,9999,9999,2466586700
109,22,11,Pattern_Practice,78,9999,9999,9999,2467086424
109,22,11,Pattern_Practice,79,9999,9999,9999,2467586148
109,23,13,Improv_Metronome,0,5,42,127,2502635852
109,23,13,Improv_Metronome,1,5,42,127,2503135496
109,23,13,Improv_Metronome,2,5,42,127,2503636632
109,23,13,Improv_Metronome,3,5,42,127,2504136048
109,23,13,Improv_Metronome,4,5,42,127,2504635840
109,23,13,Improv_Metronome,5,5,42,127,2505135560
109,23,13,Improv_Metronome,6,5,42,127,2505636100
109,23,13,Improv_Metronome,7,5,42,127,2506135964
109,23,13,Improv_Metronome,8,1,48,35,2506591108
109,23,13,Improv_Metronome,9,5,42,127,2506635524
109,23,13,Improv_Metronome,10,1,48,49,2506689488
109,23,13,Improv_Metronome,11,1,48,28,2506960936
109,23,13,Improv_Metronome,12,5,42,127,2507136724
109,23,13,Improv_Metronome,13,1,48,41,2507143660
109,23,13,Improv_Metronome,14,5,42,127,2507635972
109,23,13,Improv_Metronome,15,1,48,54,2507871960
109,23,13,Improv_Metronome,16,5,42,127,2508135664
109,23,13,Improv_Metronome,17,1,48,35,2508249056
109,23,13,Improv_Metronome,18,1,48,37,2508472488
109,23,13,Improv_Metronome,19,5,42,127,2508635564
109,23,13,Improv_Metronome,20,1,48,21,2508718592
109,23,13,Improv_Metronome,21,1,48,43,2509094304
109,23,13,Improv_Metronome,22,5,42,127,2509136520
109,23,13,Improv_Metronome,23,1,48,29,2509308768
109,23,13,Improv_Metronome,24,1,48,45,2509493300
109,23,13,Improv_Metronome,25,5,42,127,2509635956
109,23,13,Improv_Metronome,26,1,48,24,2509835068
109,23,13,Improv_Metronome,27,1,48,29,2509958168
109,23,13,Improv_Metronome,28,5,42,127,2510135552
109,23,13,Improv_Metronome,29,1,48,23,2510170612
109,23,13,Improv_Metronome,30,1,48,37,2510368452
109,23,13,Improv_Metronome,31,5,42,127,2510636420
109,23,13,Improv_Metronome,32,1,48,28,2510719944
109,23,13,Improv_Metronome,33,1,48,33,2510860944
109,23,13,Improv_Metronome,34,1,48,17,2511068216
109,23,13,Improv_Metronome,35,5,42,127,2511136164
109,23,13,Improv_Metronome,36,1,48,37,2511222368
109,23,13,Improv_Metronome,37,1,48,31,2511564148
109,23,13,Improv_Metronome,38,5,42,127,2511635764
109,23,13,Improv_Metronome,39,1,48,29,2511705660
109,23,13,Improv_Metronome,40,1,48,22,2511915100
109,23,13,Improv_Metronome,41,1,48,22,2512045992
109,23,13,Improv_Metronome,42,5,42,127,2512135564
109,23,13,Improv_Metronome,43,1,48,23,2512381412
109,23,13,Improv_Metronome,44,1,48,28,2512491644
109,23,13,Improv_Metronome,45,5,42,127,2512636492
109,23,13,Improv_Metronome,46,1,48,27,2512705884
109,23,13,Improv_Metronome,47,1,48,42,2512863484
109,23,13,Improv_Metronome,48,5,42,127,2513135940
109,23,13,Improv_Metronome,49,1,48,19,2513167560
109,23,13,Improv_Metronome,50,1,48,37,2513311616
109,23,13,Improv_Metronome,51,1,48,23,2513506072
109,23,13,Improv_Metronome,52,5,42,127,2513635668
109,23,13,Improv_Metronome,53,1,48,41,2513698472
109,23,13,Improv_Metronome,54,1,48,23,2514026388
109,23,13,Improv_Metronome,55,5,42,127,2514136388
109,23,13,Improv_Metronome,56,1,48,46,2514140332
109,23,13,Improv_Metronome,57,1,48,43,2514496744
109,23,13,Improv_Metronome,58,5,42,127,2514636280
109,23,13,Improv_Metronome,59,1,48,37,2514957320
109,23,13,Improv_Metronome,60,1,48,24,2515103780
109,23,13,Improv_Metronome,61,5,42,127,2515135824
109,23,13,Improv_Metronome,62,1,48,31,2515295028
109,23,13,Improv_Metronome,63,1,48,25,2515481656
109,23,13,Improv_Metronome,64,1,48,41,2515602904
109,23,13,Improv_Metronome,65,5,42,127,2515635548
109,23,13,Improv_Metronome,66,1,48,19,2515920144
109,23,13,Improv_Metronome,67,1,48,28,2516088784
109,23,13,Improv_Metronome,68,5,42,127,2516136416
109,23,13,Improv_Metronome,69,1,48,15,2516262264
109,23,13,Improv_Metronome,70,1,48,47,2516499676
109,23,13,Improv_Metronome,71,5,42,127,2516636148
109,23,13,Improv_Metronome,72,1,48,17,2516913124
109,23,13,Improv_Metronome,73,1,48,36,2517043700
109,23,13,Improv_Metronome,74,5,42,127,2517135688
109,23,13,Improv_Metronome,75,1,48,28,2517423348
109,23,13,Improv_Metronome,76,5,42,127,2517635564
109,23,13,Improv_Metronome,77,1,48,21,2517870204
109,23,13,Improv_Metronome,78,1,48,35,2517933268
109,23,13,Improv_Metronome,79,5,42,127,2518136284
109,23,13,Improv_Metronome,80,1,48,26,2518203376
109,23,13,Improv_Metronome,81,1,48,23,2518379132
109,23,13,Improv_Metronome,82,5,42,127,2518636028
109,23,13,Improv_Metronome,83,1,48,23,2518724516
109,23,13,Improv_Metronome,84,1,48,38,2518829736
109,23,13,Improv_Metronome,85,1,48,27,2519059668
109,23,13,Improv_Metronome,86,5,42,127,2519135624
109,23,13,Improv_Metronome,87,1,48,22,2519235464
109,23,13,Improv_Metronome,88,1,48,27,2519543632
109,23,13,Improv_Metronome,89,5,42,127,2519636344
109,23,13,Improv_Metronome,90,1,48,37,2519707088
109,23,13,Improv_Metronome,91,1,48,28,2519994468
109,23,13,Improv_Metronome,92,5,42,127,2520136148
109,23,13,Improv_Metronome,93,1,48,40,2520137336
109,23,13,Improv_Metronome,94,1,48,29,2520430688
109,23,13,Improv_Metronome,95,1,48,20,2520568240
109,23,13,Improv_Metronome,96,5,42,127,2520635668
109,23,13,Improv_Metronome,97,1,48,25,2520865728
109,23,13,Improv_Metronome,98,1,48,35,2521034404
109,23,13,Improv_Metronome,99,5,42,127,2521135400
109,23,13,Improv_Metronome,100,1,48,15,2521394204
109,23,13,Improv_Metronome,101,1,48,25,2521467408
109,23,13,Improv_Metronome,102,5,42,127,2521636344
109,23,13,Improv_Metronome,103,1,48,23,2521752884
109,23,13,Improv_Metronome,104,1,48,20,2521943224
109,23,13,Improv_Metronome,105,5,42,127,2522136240
109,23,13,Improv_Metronome,106,1,38,39,2522373504
109,23,13,Improv_Metronome,107,5,42,127,2522635636
109,23,13,Improv_Metronome,108,1,38,44,2522858616
109,23,13,Improv_Metronome,109,5,42,127,2523136304
109,23,13,Improv_Metronome,110,1,38,44,2523322252
109,23,13,Improv_Metronome,111,5,42,127,2523636148
109,23,13,Improv_Metronome,112,1,48,51,2523796596
109,23,13,Improv_Metronome,113,5,42,127,2524135844
109,23,13,Improv_Metronome,114,1,38,39,2524341836
109,23,13,Improv_Metronome,115,5,42,127,2524635464
109,23,13,Improv_Metronome,116,1,48,40,2524857688
109,23,13,Improv_Metronome,117,5,42,127,2525136352
109,23,13,Improv_Metronome,118,1,48,16,2525345488
109,23,13,Improv_Metronome,119,5,42,127,2525636048
109,23,13,Improv_Metronome,120,1,48,41,2525802752
109,23,13,Improv_Metronome,121,1,48,43,2525930660
109,23,13,Improv_Metronome,122,5,42,127,2526135572
109,23,13,Improv_Metronome,123,1,48,32,2526228220
109,23,13,Improv_Metronome,124,1,48,40,2526401756
109,23,13,Improv_Metronome,125,5,42,127,2526636440
109,23,13,Improv_Metronome,126,1,48,35,2526716304
109,23,13,Improv_Metronome,127,1,48,51,2526871960
109,23,13,Improv_Metronome,128,5,42,127,2527136264
109,23,13,Improv_Metronome,129,1,48,33,2527199524
109,23,13,Improv_Metronome,130,1,48,46,2527340340
109,23,13,Improv_Metronome,131,5,42,127,2527635788
109,23,13,Improv_Metronome,132,1,48,31,2527656336
109,23,13,Improv_Metronome,133,1,48,48,2527829992
109,23,13,Improv_Metronome,134,1,48,31,2528121704
109,23,13,Improv_Metronome,135,5,42,127,2528135652
109,23,13,Improv_Metronome,136,1,48,36,2528309968
109,23,13,Improv_Metronome,137,5,42,127,2528636208
109,23,13,Improv_Metronome,138,1,48,18,2528648624
109,23,13,Improv_Metronome,139,1,48,45,2528802312
109,23,13,Improv_Metronome,140,1,48,24,2528987960
109,23,13,Improv_Metronome,141,1,48,33,2529103204
109,23,13,Improv_Metronome,142,5,42,127,2529136072
109,23,13,Improv_Metronome,143,1,48,35,2529339736
109,23,13,Improv_Metronome,144,1,48,26,2529508632
109,23,13,Improv_Metronome,145,1,48,38,2529609360
109,23,13,Improv_Metronome,146,5,42,127,2529635576
109,23,13,Improv_Metronome,147,5,42,127,2530136400
109,23,13,Improv_Metronome,148,5,42,127,2530636188
109,23,13,Improv_Metronome,149,5,42,127,2531135832
109,23,13,Improv_Metronome,150,5,42,127,2531635476
109,23,13,Improv_Metronome,151,1,48,17,2531734208
109,23,13,Improv_Metronome,152,1,48,25,2531894104
109,23,13,Improv_Metronome,153,1,48,19,2532076688
109,23,13,Improv_Metronome,154,5,42,127,2532136332
109,23,13,Improv_Metronome,155,1,48,22,2532260112
109,23,13,Improv_Metronome,156,5,42,127,2532635940
109,23,13,Improv_Metronome,157,5,42,127,2533135584
109,23,13,Improv_Metronome,158,5,42,127,2533635376
109,23,13,Improv_Metronome,159,5,42,127,2534136064
109,23,13,Improv_Metronome,160,5,42,127,2534636000
109,23,13,Improv_Metronome,161,5,42,127,2535135720
109,23,13,Improv_Metronome,162,5,42,127,2535636408
109,23,13,Improv_Metronome,163,5,42,127,2536136200
109,23,13,Improv_Metronome,164,5,42,127,2536635692
109,23,13,Improv_Metronome,165,5,42,127,2537135408
109,23,13,Improv_Metronome,166,1,48,38,2537181240
109,23,13,Improv_Metronome,167,1,48,21,2537255940
109,23,13,Improv_Metronome,168,1,48,29,2537600460
109,23,13,Improv_Metronome,169,5,42,127,2537636124
109,23,13,Improv_Metronome,170,1,48,31,2537723596
109,23,13,Improv_Metronome,171,5,42,127,2538136100
109,23,13,Improv_Metronome,172,1,48,36,2538150216
109,23,13,Improv_Metronome,173,1,48,26,2538251548
109,23,13,Improv_Metronome,174,5,42,127,2538635552
109,23,13,Improv_Metronome,175,1,48,40,2538646224
109,23,13,Improv_Metronome,176,1,48,30,2538740448
109,23,13,Improv_Metronome,177,1,48,40,2539136248
109,23,13,Improv_Metronome,178,5,42,127,2539137588
109,23,13,Improv_Metronome,179,1,48,33,2539247976
109,23,13,Improv_Metronome,180,5,42,127,2539636144
109,23,13,Improv_Metronome,181,1,48,40,2539643748
109,23,13,Improv_Metronome,182,1,48,28,2539752588
109,23,13,Improv_Metronome,183,5,42,127,2540136112
109,23,13,Improv_Metronome,184,1,48,33,2540150008
109,23,13,Improv_Metronome,185,1,48,28,2540235576
109,23,13,Improv_Metronome,186,1,48,40,2540606952
109,23,13,Improv_Metronome,187,5,42,127,2540635408
109,23,13,Improv_Metronome,188,1,48,24,2540735172
109,23,13,Improv_Metronome,189,1,48,40,2541078424
109,23,13,Improv_Metronome,190,5,42,127,2541136204
109,23,13,Improv_Metronome,191,1,48,36,2541225200
109,23,13,Improv_Metronome,192,1,48,25,2541569568
109,23,13,Improv_Metronome,193,5,42,127,2541636096
109,23,13,Improv_Metronome,194,1,48,30,2541716416
109,23,13,Improv_Metronome,195,1,48,47,2542056680
109,23,13,Improv_Metronome,196,5,42,127,2542135848
109,23,13,Improv_Metronome,197,1,48,25,2542216016
109,23,13,Improv_Metronome,198,1,48,21,2542572208
109,23,13,Improv_Metronome,199,5,42,127,2542636272
109,23,13,Improv_Metronome,200,1,48,34,2542685072
109,23,13,Improv_Metronome,201,1,48,39,2543056248
109,23,13,Improv_Metronome,202,5,42,127,2543136092
109,23,13,Improv_Metronome,203,1,48,31,2543197160
109,23,13,Improv_Metronome,204,1,48,31,2543528320
109,23,13,Improv_Metronome,205,1,48,24,2543620972
109,23,13,Improv_Metronome,206,5,42,127,2543635968
109,23,13,Improv_Metronome,207,1,48,23,2543837312
109,23,13,Improv_Metronome,208,1,48,39,2544072252
109,23,13,Improv_Metronome,209,5,42,127,2544135564
109,23,13,Improv_Metronome,210,1,48,22,2544147196
109,23,13,Improv_Metronome,211,1,48,27,2544515724
109,23,13,Improv_Metronome,212,1,48,25,2544601224
109,23,13,Improv_Metronome,213,5,42,127,2544636188
109,23,13,Improv_Metronome,214,1,48,19,2544687084
109,23,13,Improv_Metronome,215,1,48,23,2544993536
109,23,13,Improv_Metronome,216,1,48,40,2545134716
109,23,13,Improv_Metronome,217,5,42,127,2545136284
109,23,13,Improv_Metronome,218,1,48,32,2545229000
109,23,13,Improv_Metronome,219,1,48,24,2545412852
109,23,13,Improv_Metronome,220,1,48,34,2545559984
109,23,13,Improv_Metronome,221,5,42,127,2545635860
109,23,13,Improv_Metronome,222,1,48,24,2545697456
109,23,13,Improv_Metronome,223,1,48,23,2545906000
109,23,13,Improv_Metronome,224,1,48,40,2546070256
109,23,13,Improv_Metronome,225,5,42,127,2546136708
109,23,13,Improv_Metronome,226,1,48,29,2546565440
109,23,13,Improv_Metronome,227,5,42,127,2546636252
109,23,13,Improv_Metronome,228,1,48,40,2546660976
109,23,13,Improv_Metronome,229,1,48,39,2546856052
109,23,13,Improv_Metronome,230,1,48,31,2547040780
109,23,13,Improv_Metronome,231,5,42,127,2547136052
109,23,13,Improv_Metronome,232,1,48,31,2547151876
109,23,13,Improv_Metronome,233,1,48,28,2547349264
109,23,13,Improv_Metronome,234,1,48,32,2547527264
109,23,13,Improv_Metronome,235,5,42,127,2547635540
109,23,13,Improv_Metronome,236,1,48,44,2547706872
109,23,13,Improv_Metronome,237,1,48,26,2548051096
109,23,13,Improv_Metronome,238,5,42,127,2548136200
109,23,13,Improv_Metronome,239,1,48,27,2548187624
109,23,13,Improv_Metronome,240,1,48,16,2548338392
109,23,13,Improv_Metronome,241,1,48,34,2548493676
109,23,13,Improv_Metronome,242,5,42,127,2548635984
109,23,13,Improv_Metronome,243,1,48,24,2548651744
109,23,13,Improv_Metronome,244,1,48,29,2548769752
109,23,13,Improv_Metronome,245,1,48,36,2549090344
109,23,13,Improv_Metronome,246,5,42,127,2549135876
109,23,13,Improv_Metronome,247,1,48,35,2549421220
109,23,13,Improv_Metronome,248,1,48,32,2549578640
109,23,13,Improv_Metronome,249,5,42,127,2549635300
109,23,13,Improv_Metronome,250,1,48,36,2549800588
109,23,13,Improv_Metronome,251,5,42,127,2550136176
109,23,13,Improv_Metronome,252,5,42,127,2550635964
109,23,13,Improv_Metronome,253,5,42,127,2551135684
109,23,13,Improv_Metronome,254,1,48,26,2551378552
109,23,13,Improv_Metronome,255,1,48,30,2551549096
109,23,13,Improv_Metronome,256,5,42,127,2551636268
109,23,13,Improv_Metronome,257,1,48,22,2551693176
109,23,13,Improv_Metronome,258,1,48,24,2551878276
109,23,13,Improv_Metronome,259,1,48,28,2552026004
109,23,13,Improv_Metronome,260,5,42,127,2552136052
109,23,13,Improv_Metronome,261,1,48,25,2552156824
109,23,13,Improv_Metronome,262,1,48,35,2552344272
109,23,13,Improv_Metronome,263,1,48,34,2552494916
109,23,13,Improv_Metronome,264,5,42,127,2552635780
109,23,13,Improv_Metronome,265,1,48,30,2552643532
109,23,13,Improv_Metronome,266,1,48,35,2552846688
109,23,13,Improv_Metronome,267,1,48,33,2552984392
109,23,13,Improv_Metronome,268,1,48,24,2553116092
109,23,13,Improv_Metronome,269,5,42,127,2553135572
109,23,13,Improv_Metronome,270,1,48,38,2553396756
109,23,13,Improv_Metronome,271,1,48,28,2553618156
109,23,13,Improv_Metronome,272,5,42,127,2553636216
109,23,13,Improv_Metronome,273,1,48,37,2553808388
109,23,13,Improv_Metronome,274,1,48,42,2554039592
109,23,13,Improv_Metronome,275,5,42,127,2554135876
109,23,13,Improv_Metronome,276,1,48,37,2554199208
109,23,13,Improv_Metronome,277,1,48,39,2554471172
109,23,13,Improv_Metronome,278,1,48,37,2554604388
109,23,13,Improv_Metronome,279,5,42,127,2554635612
109,23,13,Improv_Metronome,280,1,48,28,2554767920
109,23,13,Improv_Metronome,281,1,48,39,2554976880
109,23,13,Improv_Metronome,282,1,48,34,2555116980
109,23,13,Improv_Metronome,283,5,42,127,2555136612
109,23,13,Improv_Metronome,284,1,48,28,2555252432
109,23,13,Improv_Metronome,285,1,48,37,2555422300
109,23,13,Improv_Metronome,286,1,48,38,2555591948
109,23,13,Improv_Metronome,287,5,42,127,2555636036
109,23,13,Improv_Metronome,288,1,48,37,2555741616
109,23,13,Improv_Metronome,289,1,48,36,2555937964
109,23,13,Improv_Metronome,290,1,48,44,2556082400
109,23,13,Improv_Metronome,291,5,42,127,2556135836
109,23,13,Improv_Metronome,292,1,48,32,2556219720
109,23,13,Improv_Metronome,293,1,48,40,2556411956
109,23,13,Improv_Metronome,294,1,48,30,2556562752
109,23,13,Improv_Metronome,295,5,42,127,2556635636
109,23,13,Improv_Metronome,296,1,48,42,2556711592
109,23,13,Improv_Metronome,297,1,48,35,2556921108
109,23,13,Improv_Metronome,298,1,48,39,2557051528
109,23,13,Improv_Metronome,299,5,42,127,2557136112
109,23,13,Improv_Metronome,300,1,48,44,2557192472
109,23,13,Improv_Metronome,301,1,48,30,2557383132
109,23,13,Improv_Metronome,302,1,48,42,2557528368
109,23,13,Improv_Metronome,303,5,42,127,2557635820
109,23,13,Improv_Metronome,304,1,48,43,2557686960
109,23,13,Improv_Metronome,305,1,48,31,2557914204
109,23,13,Improv_Metronome,306,1,48,39,2558041484
109,23,13,Improv_Metronome,307,5,42,127,2558135696
109,23,13,Improv_Metronome,308,1,48,39,2558192072
109,23,13,Improv_Metronome,309,1,48,29,2558432996
109,23,13,Improv_Metronome,310,1,48,35,2558557960
109,23,13,Improv_Metronome,311,5,42,127,2558636260
109,23,13,Improv_Metronome,312,1,48,48,2558727848
109,23,13,Improv_Metronome,313,1,48,36,2559018740
109,23,13,Improv_Metronome,314,5,42,127,2559136140
109,23,13,Improv_Metronome,315,1,48,36,2559146440
109,23,13,Improv_Metronome,316,1,38,46,2559546464
109,23,13,Improv_Metronome,317,5,42,127,2559635756
109,23,13,Improv_Metronome,318,5,42,127,2560135604
109,23,13,Improv_Metronome,319,1,48,33,2560138048
109,23,13,Improv_Metronome,320,1,48,33,2560232652
109,23,13,Improv_Metronome,321,1,48,29,2560470732
109,23,13,Improv_Metronome,322,1,48,31,2560631600
109,23,13,Improv_Metronome,323,5,42,127,2560636196
109,23,13,Improv_Metronome,324,1,48,26,2560998004
109,23,13,Improv_Metronome,325,1,48,35,2561121628
109,23,13,Improv_Metronome,326,5,42,127,2561135872
109,23,13,Improv_Metronome,327,1,48,27,2561271020
109,23,13,Improv_Metronome,328,1,48,33,2561494516
109,23,13,Improv_Metronome,329,1,48,23,2561628308
109,23,13,Improv_Metronome,330,5,42,127,2561635672
109,23,13,Improv_Metronome,331,1,48,21,2561967564
109,23,13,Improv_Metronome,332,1,48,24,2562116532
109,23,13,Improv_Metronome,333,5,42,127,2562136616
109,23,13,Improv_Metronome,334,1,48,29,2562248648
109,23,13,Improv_Metronome,335,1,48,27,2562475664
109,23,13,Improv_Metronome,336,1,48,30,2562634608
109,23,13,Improv_Metronome,337,5,42,127,2562636120
109,23,13,Improv_Metronome,338,1,48,19,2563008248
109,23,13,Improv_Metronome,339,5,42,127,2563135800
109,23,13,Improv_Metronome,340,1,48,29,2563173476
109,23,13,Improv_Metronome,341,1,48,36,2563325688
109,23,13,Improv_Metronome,342,1,48,25,2563583968
109,23,13,Improv_Metronome,343,5,42,127,2563635616
109,23,13,Improv_Metronome,344,1,48,29,2563704020
109,23,13,Improv_Metronome,345,1,48,24,2563958628
109,23,13,Improv_Metronome,346,5,42,127,2564136540
109,23,13,Improv_Metronome,347,1,48,28,2564140856
109,23,13,Improv_Metronome,348,1,48,27,2564580400
109,23,13,Improv_Metronome,349,5,42,127,2564636080
109,23,13,Improv_Metronome,350,1,48,27,2564716300
109,23,13,Improv_Metronome,351,1,48,28,2564939952
109,23,13,Improv_Metronome,352,1,48,40,2565087900
109,23,13,Improv_Metronome,353,5,42,127,2565135656
109,23,13,Improv_Metronome,354,1,48,29,2565234204
109,23,13,Improv_Metronome,355,1,48,29,2565411928
109,23,13,Improv_Metronome,356,1,48,38,2565579596
109,23,13,Improv_Metronome,357,5,42,127,2565635580
109,23,13,Improv_Metronome,358,1,48,29,2565759632
109,23,13,Improv_Metronome,359,1,48,25,2565920596
109,23,13,Improv_Metronome,360,1,48,32,2566079324
109,23,13,Improv_Metronome,361,5,42,127,2566136056
109,23,13,Improv_Metronome,362,1,48,42,2566244628
109,23,13,Improv_Metronome,363,1,48,30,2566420628
109,23,13,Improv_Metronome,364,1,48,52,2566574116
109,23,13,Improv_Metronome,365,5,42,127,2566635780
109,23,13,Improv_Metronome,366,1,48,49,2566733804
109,23,13,Improv_Metronome,367,1,48,30,2566931124
109,23,13,Improv_Metronome,368,1,48,28,2567062172
109,23,13,Improv_Metronome,369,5,42,127,2567135508
109,23,13,Improv_Metronome,370,1,48,29,2567177880
109,23,13,Improv_Metronome,371,1,48,34,2567372284
109,23,13,Improv_Metronome,372,1,48,41,2567552304
109,23,13,Improv_Metronome,373,5,42,127,2567636508
109,23,13,Improv_Metronome,374,1,48,41,2567713736
109,23,13,Improv_Metronome,375,1,48,35,2567884956
109,23,13,Improv_Metronome,376,1,48,25,2568004456
109,23,13,Improv_Metronome,377,5,42,127,2568136072
109,23,13,Improv_Metronome,378,1,48,21,2568147716
109,23,13,Improv_Metronome,379,1,48,26,2568258168
109,23,13,Improv_Metronome,380,1,48,38,2568503060
109,23,13,Improv_Metronome,381,5,42,127,2568635872
109,23,13,Improv_Metronome,382,1,48,44,2568653952
109,23,13,Improv_Metronome,383,1,48,38,2568841620
109,23,13,Improv_Metronome,384,1,48,43,2568987904
109,23,13,Improv_Metronome,385,5,42,127,2569135524
109,23,13,Improv_Metronome,386,1,48,32,2569145296
109,23,13,Improv_Metronome,387,1,48,31,2569342368
109,23,13,Improv_Metronome,388,1,48,38,2569521660
109,23,13,Improv_Metronome,389,5,42,127,2569636068
109,23,13,Improv_Metronome,390,1,48,31,2569693040
109,23,13,Improv_Metronome,391,1,48,35,2569854580
109,23,13,Improv_Metronome,392,1,48,25,2570020940
109,23,13,Improv_Metronome,393,5,42,127,2570135868
109,23,13,Improv_Metronome,394,1,48,25,2570183720
109,23,13,Improv_Metronome,395,1,48,31,2570368672
109,23,13,Improv_Metronome,396,1,48,43,2570551104
109,23,13,Improv_Metronome,397,5,42,127,2570635684
109,23,13,Improv_Metronome,398,1,48,42,2570728548
109,23,13,Improv_Metronome,399,1,48,33,2570948228
109,23,13,Improv_Metronome,400,5,42,127,2571136516
109,23,13,Improv_Metronome,401,1,48,29,2571336828
109,23,13,Improv_Metronome,402,1,48,52,2571583136
109,23,13,Improv_Metronome,403,5,42,127,2571635980
109,23,13,Improv_Metronome,404,1,48,49,2571756164
109,23,13,Improv_Metronome,405,1,48,36,2571940020
109,23,13,Improv_Metronome,406,1,48,32,2572105524
109,23,13,Improv_Metronome,407,5,42,127,2572135780
109,23,13,Improv_Metronome,408,1,48,42,2572313864
109,23,13,Improv_Metronome,0,9999,9999,9999,2502633568
109,23,13,Improv_Metronome,1,9999,9999,9999,2503133284
109,23,13,Improv_Metronome,2,9999,9999,9999,2503633972
109,23,13,Improv_Metronome,3,9999,9999,9999,2504133688
109,23,13,Improv_Metronome,4,9999,9999,9999,2504633404
109,23,13,Improv_Metronome,5,9999,9999,9999,2505133124
109,23,13,Improv_Metronome,6,9999,9999,9999,2505633888
109,23,13,Improv_Metronome,7,9999,9999,9999,2506133604
109,23,13,Improv_Metronome,8,9999,9999,9999,2506633312
109,23,13,Improv_Metronome,9,9999,9999,9999,2507134064
109,23,13,Improv_Metronome,10,9999,9999,9999,2507633760
109,23,13,Improv_Metronome,11,9999,9999,9999,2508133452
109,23,13,Improv_Metronome,12,9999,9999,9999,2508633204
109,23,13,Improv_Metronome,13,9999,9999,9999,2509133936
109,23,13,Improv_Metronome,14,9999,9999,9999,2509633592
109,23,13,Improv_Metronome,15,9999,9999,9999,2510133340
109,23,13,Improv_Metronome,16,9999,9999,9999,2510634060
109,23,13,Improv_Metronome,17,9999,9999,9999,2511133804
109,23,13,Improv_Metronome,18,9999,9999,9999,2511633476
109,23,13,Improv_Metronome,19,9999,9999,9999,2512133204
109,23,13,Improv_Metronome,20,9999,9999,9999,2512633908
109,23,13,Improv_Metronome,21,9999,9999,9999,2513133652
109,23,13,Improv_Metronome,22,9999,9999,9999,2513633380
109,23,13,Improv_Metronome,23,9999,9999,9999,2514134100
109,23,13,Improv_Metronome,24,9999,9999,9999,2514633848
109,23,13,Improv_Metronome,25,9999,9999,9999,2515133536
109,23,13,Improv_Metronome,26,9999,9999,9999,2515633264
109,23,13,Improv_Metronome,27,9999,9999,9999,2516133980
109,23,13,Improv_Metronome,28,9999,9999,9999,2516633712
109,23,13,Improv_Metronome,29,9999,9999,9999,2517133400
109,23,13,Improv_Metronome,30,9999,9999,9999,2517633128
109,23,13,Improv_Metronome,31,9999,9999,9999,2518133848
109,23,13,Improv_Metronome,32,9999,9999,9999,2518633520
109,23,13,Improv_Metronome,33,9999,9999,9999,2519133260
109,23,13,Improv_Metronome,34,9999,9999,9999,2519633984
109,23,13,Improv_Metronome,35,9999,9999,9999,2520133712
109,23,13,Improv_Metronome,36,9999,9999,9999,2520633456
109,23,13,Improv_Metronome,37,9999,9999,9999,2521133116
109,23,13,Improv_Metronome,38,9999,9999,9999,2521633908
109,23,13,Improv_Metronome,39,9999,9999,9999,2522133584
109,23,13,Improv_Metronome,40,9999,9999,9999,2522633276
109,23,13,Improv_Metronome,41,9999,9999,9999,2523134016
109,23,13,Improv_Metronome,42,9999,9999,9999,2523633712
109,23,13,Improv_Metronome,43,9999,9999,9999,2524133480
109,23,13,Improv_Metronome,44,9999,9999,9999,2524633176
109,23,13,Improv_Metronome,45,9999,9999,9999,2525133916
109,23,13,Improv_Metronome,46,9999,9999,9999,2525633612
109,23,13,Improv_Metronome,47,9999,9999,9999,2526133360
109,23,13,Improv_Metronome,48,9999,9999,9999,2526634080
109,23,13,Improv_Metronome,49,9999,9999,9999,2527133752
109,23,13,Improv_Metronome,50,9999,9999,9999,2527633504
109,23,13,Improv_Metronome,51,9999,9999,9999,2528133220
109,23,13,Improv_Metronome,52,9999,9999,9999,2528633920
109,23,13,Improv_Metronome,53,9999,9999,9999,2529133640
109,23,13,Improv_Metronome,54,9999,9999,9999,2529633364
109,23,13,Improv_Metronome,55,9999,9999,9999,2530134112
109,23,13,Improv_Metronome,56,9999,9999,9999,2530633828
109,23,13,Improv_Metronome,57,9999,9999,9999,2531133544
109,23,13,Improv_Metronome,58,9999,9999,9999,2531633264
109,23,13,Improv_Metronome,59,9999,9999,9999,2532133972
109,23,13,Improv_Metronome,60,9999,9999,9999,2532633652
109,23,13,Improv_Metronome,61,9999,9999,9999,2533133372
109,23,13,Improv_Metronome,62,9999,9999,9999,2533633088
109,23,13,Improv_Metronome,63,9999,9999,9999,2534133852
109,23,13,Improv_Metronome,64,9999,9999,9999,2534633568
109,23,13,Improv_Metronome,65,9999,9999,9999,2535133284
109,23,13,Improv_Metronome,66,9999,9999,9999,2535633972
109,23,13,Improv_Metronome,67,9999,9999,9999,2536133688
109,23,13,Improv_Metronome,68,9999,9999,9999,2536633404
109,23,13,Improv_Metronome,69,9999,9999,9999,2537133124
109,23,13,Improv_Metronome,70,9999,9999,9999,2537633912
109,23,13,Improv_Metronome,71,9999,9999,9999,2538133592
109,23,13,Improv_Metronome,72,9999,9999,9999,2538633264
109,23,13,Improv_Metronome,73,9999,9999,9999,2539134036
109,23,13,Improv_Metronome,74,9999,9999,9999,2539633784
109,23,13,Improv_Metronome,75,9999,9999,9999,2540133456
109,23,13,Improv_Metronome,76,9999,9999,9999,2540633196
109,23,13,Improv_Metronome,77,9999,9999,9999,2541133916
109,23,13,Improv_Metronome,78,9999,9999,9999,2541633588
109,23,13,Improv_Metronome,79,9999,9999,9999,2542133336
109,23,13,Improv_Metronome,80,9999,9999,9999,2542634056
109,23,13,Improv_Metronome,81,9999,9999,9999,2543133804
109,23,13,Improv_Metronome,82,9999,9999,9999,2543633456
109,23,13,Improv_Metronome,83,9999,9999,9999,2544133204
109,23,13,Improv_Metronome,84,9999,9999,9999,2544633976
109,23,13,Improv_Metronome,85,9999,9999,9999,2545133632
109,23,13,Improv_Metronome,86,9999,9999,9999,2545633352
109,23,13,Improv_Metronome,87,9999,9999,9999,2546134124
109,23,13,Improv_Metronome,88,9999,9999,9999,2546633816
109,23,13,Improv_Metronome,89,9999,9999,9999,2547133544
109,23,13,Improv_Metronome,90,9999,9999,9999,2547633252
109,23,13,Improv_Metronome,91,9999,9999,9999,2548133988
109,23,13,Improv_Metronome,92,9999,9999,9999,2548633700
109,23,13,Improv_Metronome,93,9999,9999,9999,2549133368
109,23,13,Improv_Metronome,94,9999,9999,9999,2549633088
109,23,13,Improv_Metronome,95,9999,9999,9999,2550133812
109,23,13,Improv_Metronome,96,9999,9999,9999,2550633528
109,23,13,Improv_Metronome,97,9999,9999,9999,2551133248
109,23,13,Improv_Metronome,98,9999,9999,9999,2551633984
109,23,13,Improv_Metronome,99,9999,9999,9999,2552133692
109,23,13,Improv_Metronome,100,9999,9999,9999,2552633420
109,23,13,Improv_Metronome,101,9999,9999,9999,2553133136
109,23,13,Improv_Metronome,102,9999,9999,9999,2553633856
109,23,13,Improv_Metronome,103,9999,9999,9999,2554133608
109,23,13,Improv_Metronome,104,9999,9999,9999,2554633328
109,23,13,Improv_Metronome,105,9999,9999,9999,2555134024
109,23,13,Improv_Metronome,106,9999,9999,9999,2555633752
109,23,13,Improv_Metronome,107,9999,9999,9999,2556133476
109,23,13,Improv_Metronome,108,9999,9999,9999,2556633200
109,23,13,Improv_Metronome,109,9999,9999,9999,2557133900
109,23,13,Improv_Metronome,110,9999,9999,9999,2557633608
109,23,13,Improv_Metronome,111,9999,9999,9999,2558133336
109,23,13,Improv_Metronome,112,9999,9999,9999,2558634048
109,23,13,Improv_Metronome,113,9999,9999,9999,2559133780
109,23,13,Improv_Metronome,114,9999,9999,9999,2559633468
109,23,13,Improv_Metronome,115,9999,9999,9999,2560133220
109,23,13,Improv_Metronome,116,9999,9999,9999,2560633912
109,23,13,Improv_Metronome,117,9999,9999,9999,2561133660
109,23,13,Improv_Metronome,118,9999,9999,9999,2561633384
109,23,13,Improv_Metronome,119,9999,9999,9999,2562134104
109,23,13,Improv_Metronome,120,9999,9999,9999,2562633836
109,23,13,Improv_Metronome,121,9999,9999,9999,2563133512
109,23,13,Improv_Metronome,122,9999,9999,9999,2563633256
109,23,13,Improv_Metronome,123,9999,9999,9999,2564133956
109,23,13,Improv_Metronome,124,9999,9999,9999,2564633720
109,23,13,Improv_Metronome,125,9999,9999,9999,2565133372
109,23,13,Improv_Metronome,126,9999,9999,9999,2565633144
109,23,13,Improv_Metronome,127,9999,9999,9999,2566133844
109,23,13,Improv_Metronome,128,9999,9999,9999,2566633568
109,23,13,Improv_Metronome,129,9999,9999,9999,2567133300
109,23,13,Improv_Metronome,130,9999,9999,9999,2567634000
109,23,13,Improv_Metronome,131,9999,9999,9999,2568133708
109,23,13,Improv_Metronome,132,9999,9999,9999,2568633436
109,23,13,Improv_Metronome,133,9999,9999,9999,2569133160
109,23,13,Improv_Metronome,134,9999,9999,9999,2569633856
109,23,13,Improv_Metronome,135,9999,9999,9999,2570133584
109,23,13,Improv_Metronome,136,9999,9999,9999,2570633324
109,23,13,Improv_Metronome,137,9999,9999,9999,2571134004
109,23,13,Improv_Metronome,138,9999,9999,9999,2571633768
109,23,13,Improv_Metronome,139,9999,9999,9999,2572133492
109,24,14,Improv_Melody,0,1,48,49,2632377276
109,24,14,Improv_Melody,1,2,48,80,2632881468
109,24,14,Improv_Melody,2,2,72,80,2632884292
109,24,14,Improv_Melody,3,5,42,127,2632885480
109,24,14,Improv_Melody,4,5,42,110,2633379292
109,24,14,Improv_Melody,5,5,42,110,2633878788
109,24,14,Improv_Melody,6,5,42,110,2634378660
109,24,14,Improv_Melody,7,1,38,26,2634718548
109,24,14,Improv_Melody,8,1,48,48,2634851888
109,24,14,Improv_Melody,9,5,42,127,2634879228
109,24,14,Improv_Melody,10,1,48,42,2635317408
109,24,14,Improv_Melody,11,5,42,110,2635379224
109,24,14,Improv_Melody,12,5,42,110,2635878712
109,24,14,Improv_Melody,13,5,42,110,2636378360
109,24,14,Improv_Melody,14,1,48,41,2636558920
109,24,14,Improv_Melody,15,1,48,53,2636779276
109,24,14,Improv_Melody,16,2,43,80,2636881884
109,24,14,Improv_Melody,17,2,67,80,2636883960
109,24,14,Improv_Melody,18,5,42,127,2636886576
109,24,14,Improv_Melody,19,1,48,32,2637206140
109,24,14,Improv_Melody,20,1,48,30,2637349728
109,24,14,Improv_Melody,21,5,42,110,2637378868
109,24,14,Improv_Melody,22,1,48,47,2637724820
109,24,14,Improv_Melody,23,5,42,110,2637878628
109,24,14,Improv_Melody,24,1,48,20,2637905752
109,24,14,Improv_Melody,25,1,48,31,2638261372
109,24,14,Improv_Melody,26,5,42,110,2638379500
109,24,14,Improv_Melody,27,1,48,22,2638394888
109,24,14,Improv_Melody,28,1,48,52,2638759032
109,24,14,Improv_Melody,29,5,42,127,2638879252
109,24,14,Improv_Melody,30,1,48,31,2638929716
109,24,14,Improv_Melody,31,1,48,33,2639286684
109,24,14,Improv_Melody,32,5,42,110,2639378948
109,24,14,Improv_Melody,33,1,48,25,2639409124
109,24,14,Improv_Melody,34,5,42,110,2639878484
109,24,14,Improv_Melody,35,5,42,110,2640379252
109,24,14,Improv_Melody,36,2,45,80,2640881476
109,24,14,Improv_Melody,37,2,69,80,2640883700
109,24,14,Improv_Melody,38,5,42,127,2640886316
109,24,14,Improv_Melody,39,5,42,110,2641378560
109,24,14,Improv_Melody,40,5,42,110,2641879404
109,24,14,Improv_Melody,41,5,42,110,2642379348
109,24,14,Improv_Melody,42,1,48,36,2642646232
109,24,14,Improv_Melody,43,1,48,44,2642850724
109,24,14,Improv_Melody,44,5,42,127,2642878964
109,24,14,Improv_Melody,45,1,48,24,2643361200
109,24,14,Improv_Melody,46,5,42,110,2643378440
109,24,14,Improv_Melody,47,1,48,55,2643876908
109,24,14,Improv_Melody,48,5,42,110,2643879412
109,24,14,Improv_Melody,49,5,42,110,2644379120
109,24,14,Improv_Melody,50,1,48,25,2644417620
109,24,14,Improv_Melody,51,1,48,44,2644786376
109,24,14,Improv_Melody,52,2,41,80,2644881316
109,24,14,Improv_Melody,53,2,65,80,2644883472
109,24,14,Improv_Melody,54,5,42,127,2644886664
109,24,14,Improv_Melody,55,1,48,62,2644937276
109,24,14,Improv_Melody,56,5,42,110,2645378432
109,24,14,Improv_Melody,57,1,48,49,2645439896
109,24,14,Improv_Melody,58,5,42,110,2645879080
109,24,14,Improv_Melody,59,1,48,58,2645931220
109,24,14,Improv_Melody,60,5,42,110,2646378932
109,24,14,Improv_Melody,61,1,48,56,2646403840
109,24,14,Improv_Melody,62,1,48,29,2646743576
109,24,14,Improv_Melody,63,5,42,127,2646878536
109,24,14,Improv_Melody,64,1,48,55,2646919304
109,24,14,Improv_Melody,65,5,42,110,2647379356
109,24,14,Improv_Melody,66,1,48,57,2647382996
109,24,14,Improv_Melody,67,1,48,59,2647868836
109,24,14,Improv_Melody,68,5,42,110,2647878976
109,24,14,Improv_Melody,69,5,42,110,2648378608
109,24,14,Improv_Melody,70,1,48,57,2648379572
109,24,14,Improv_Melody,71,1,48,35,2648727316
109,24,14,Improv_Melody,72,2,48,80,2648881012
109,24,14,Improv_Melody,73,2,72,80,2648883164
109,24,14,Improv_Melody,74,5,42,127,2648885776
109,24,14,Improv_Melody,75,1,48,59,2648909916
109,24,14,Improv_Melody,76,1,48,61,2649361648
109,24,14,Improv_Melody,77,5,42,110,2649379188
109,24,14,Improv_Melody,78,5,42,110,2649879044
109,24,14,Improv_Melody,79,1,48,59,2649881716
109,24,14,Improv_Melody,80,1,48,62,2650359924
109,24,14,Improv_Melody,81,5,42,110,2650378512
109,24,14,Improv_Melody,82,1,48,34,2650696312
109,24,14,Improv_Melody,83,1,48,66,2650875384
109,24,14,Improv_Melody,84,5,42,127,2650879236
109,24,14,Improv_Melody,85,1,48,45,2651362064
109,24,14,Improv_Melody,86,5,42,110,2651379160
109,24,14,Improv_Melody,87,5,42,110,2651878864
109,24,14,Improv_Melody,88,1,48,20,2651883480
109,24,14,Improv_Melody,89,5,42,110,2652378416
109,24,14,Improv_Melody,90,1,48,60,2652389688
109,24,14,Improv_Melody,91,1,48,36,2652738996
109,24,14,Improv_Melody,92,2,43,80,2652881644
109,24,14,Improv_Melody,93,2,67,80,2652883944
109,24,14,Improv_Melody,94,5,42,127,2652886412
109,24,14,Improv_Melody,95,1,48,50,2652889004
109,24,14,Improv_Melody,96,5,42,110,2653378932
109,24,14,Improv_Melody,97,1,48,46,2653384444
109,24,14,Improv_Melody,98,1,48,59,2653871332
109,24,14,Improv_Melody,99,5,42,110,2653878552
109,24,14,Improv_Melody,100,5,42,110,2654379228
109,24,14,Improv_Melody,101,1,48,54,2654380196
109,24,14,Improv_Melody,102,1,48,45,2654695604
109,24,14,Improv_Melody,103,1,48,65,2654841288
109,24,14,Improv_Melody,104,5,42,127,2654879272
109,24,14,Improv_Melody,105,1,48,22,2655318176
109,24,14,Improv_Melody,106,5,42,110,2655379044
109,24,14,Improv_Melody,107,1,48,39,2655802988
109,24,14,Improv_Melody,108,5,42,110,2655878448
109,24,14,Improv_Melody,109,1,48,53,2656339340
109,24,14,Improv_Melody,110,5,42,110,2656379244
109,24,14,Improv_Melody,111,1,48,67,2656844200
109,24,14,Improv_Melody,112,2,45,80,2656881372
109,24,14,Improv_Melody,113,2,69,80,2656883756
109,24,14,Improv_Melody,114,5,42,127,2656886212
109,24,14,Improv_Melody,115,1,48,45,2656924572
109,24,14,Improv_Melody,116,1,48,61,2657372840
109,24,14,Improv_Melody,117,5,42,110,2657378936
109,24,14,Improv_Melody,118,5,42,110,2657879392
109,24,14,Improv_Melody,119,1,48,54,2657910336
109,24,14,Improv_Melody,120,1,48,68,2658376896
109,24,14,Improv_Melody,121,5,42,110,2658379012
109,24,14,Improv_Melody,122,1,48,35,2658751816
109,24,14,Improv_Melody,123,5,42,127,2658878996
109,24,14,Improv_Melody,124,1,48,68,2658892732
109,24,14,Improv_Melody,125,1,48,65,2659371912
109,24,14,Improv_Melody,126,5,42,110,2659378836
109,24,14,Improv_Melody,127,1,48,45,2659805940
109,24,14,Improv_Melody,128,5,42,110,2659879284
109,24,14,Improv_Melody,129,5,42,110,2660379068
109,24,14,Improv_Melody,130,1,48,57,2660383908
109,24,14,Improv_Melody,131,1,48,25,2660811700
109,24,14,Improv_Melody,132,2,41,80,2660881264
109,24,14,Improv_Melody,133,2,65,80,2660883568
109,24,14,Improv_Melody,134,5,42,127,2660885952
109,24,14,Improv_Melody,135,1,48,62,2660926680
109,24,14,Improv_Melody,136,5,42,110,2661378380
109,24,14,Improv_Melody,137,1,48,65,2661439316
109,24,14,Improv_Melody,138,5,42,110,2661879200
109,24,14,Improv_Melody,139,1,48,64,2661918372
109,24,14,Improv_Melody,140,5,42,110,2662378976
109,24,14,Improv_Melody,141,1,48,73,2662398180
109,24,14,Improv_Melody,142,1,48,44,2662726772
109,24,14,Improv_Melody,143,5,42,127,2662878804
109,24,14,Improv_Melody,144,1,48,57,2662895764
109,24,14,Improv_Melody,145,1,38,64,2663317348
109,24,14,Improv_Melody,146,5,42,110,2663379392
109,24,14,Improv_Melody,147,1,48,66,2663830960
109,24,14,Improv_Melody,148,5,42,110,2663879020
109,24,14,Improv_Melody,149,1,48,61,2664375912
109,24,14,Improv_Melody,150,5,42,110,2664378868
109,24,14,Improv_Melody,151,1,48,39,2664706920
109,24,14,Improv_Melody,152,1,48,70,2664865344
109,24,14,Improv_Melody,153,2,48,80,2664881208
109,24,14,Improv_Melody,154,2,72,80,2664883432
109,24,14,Improv_Melody,155,5,42,127,2664885816
109,24,14,Improv_Melody,156,1,48,65,2665366476
109,24,14,Improv_Melody,157,5,42,110,2665379160
109,24,14,Improv_Melody,158,1,48,43,2665855160
109,24,14,Improv_Melody,159,5,42,110,2665878932
109,24,14,Improv_Melody,160,1,48,49,2666365404
109,24,14,Improv_Melody,161,5,42,110,2666378704
109,24,14,Improv_Melody,162,1,38,49,2666694636
109,24,14,Improv_Melody,163,5,42,127,2666879336
109,24,14,Improv_Melody,164,1,48,72,2666892508
109,24,14,Improv_Melody,165,5,42,110,2667379036
109,24,14,Improv_Melody,166,1,48,66,2667431472
109,24,14,Improv_Melody,167,1,48,58,2667854384
109,24,14,Improv_Melody,168,5,42,110,2667878880
109,24,14,Improv_Melody,169,1,48,67,2668356400
109,24,14,Improv_Melody,170,5,42,110,2668378656
109,24,14,Improv_Melody,171,1,48,46,2668709948
109,24,14,Improv_Melody,172,1,48,65,2668872608
109,24,14,Improv_Melody,173,2,43,80,2668881656
109,24,14,Improv_Melody,174,2,67,80,2668883664
109,24,14,Improv_Melody,175,5,42,127,2668886204
109,24,14,Improv_Melody,176,1,48,52,2669378656
109,24,14,Improv_Melody,177,5,42,110,2669380140
109,24,14,Improv_Melody,178,1,48,58,2669827372
109,24,14,Improv_Melody,179,5,42,110,2669878796
109,24,14,Improv_Melody,180,1,38,67,2670318244
109,24,14,Improv_Melody,181,5,42,110,2670379244
109,24,14,Improv_Melody,182,1,48,57,2670707292
109,24,14,Improv_Melody,183,5,42,127,2670879076
109,24,14,Improv_Melody,184,1,48,65,2671321080
109,24,14,Improv_Melody,185,5,42,110,2671378716
109,24,14,Improv_Melody,186,1,48,61,2671822500
109,24,14,Improv_Melody,187,5,42,110,2671878564
109,24,14,Improv_Melody,188,1,48,54,2672325796
109,24,14,Improv_Melody,189,5,42,110,2672379312
109,24,14,Improv_Melody,190,1,48,48,2672692176
109,24,14,Improv_Melody,191,1,48,66,2672833996
109,24,14,Improv_Melody,192,2,45,80,2672881644
109,24,14,Improv_Melody,193,2,69,80,2672883644
109,24,14,Improv_Melody,194,5,42,127,2672886180
109,24,14,Improv_Melody,195,1,48,19,2673335056
109,24,14,Improv_Melody,196,5,42,110,2673378628
109,24,14,Improv_Melody,197,5,42,110,2673879532
109,24,14,Improv_Melody,198,1,48,63,2673880868
109,24,14,Improv_Melody,199,1,48,69,2674344032
109,24,14,Improv_Melody,200,5,42,110,2674379000
109,24,14,Improv_Melody,201,1,38,55,2674778632
109,24,14,Improv_Melody,202,5,42,127,2674878836
109,24,14,Improv_Melody,203,1,48,45,2674904988
109,24,14,Improv_Melody,204,1,48,56,2675311968
109,24,14,Improv_Melody,205,5,42,110,2675378600
109,24,14,Improv_Melody,206,1,48,61,2675816904
109,24,14,Improv_Melody,207,5,42,110,2675879420
109,24,14,Improv_Melody,208,1,48,51,2676323036
109,24,14,Improv_Melody,209,5,42,110,2676378896
109,24,14,Improv_Melody,210,1,48,32,2676705676
109,24,14,Improv_Melody,211,1,48,70,2676830268
109,24,14,Improv_Melody,212,2,41,80,2676881304
109,24,14,Improv_Melody,213,2,65,80,2676883304
109,24,14,Improv_Melody,214,5,42,127,2676885844
109,24,14,Improv_Melody,215,1,48,66,2677351296
109,24,14,Improv_Melody,216,5,42,110,2677378588
109,24,14,Improv_Melody,217,1,48,68,2677861164
109,24,14,Improv_Melody,218,5,42,110,2677879012
109,24,14,Improv_Melody,219,1,38,56,2678301404
109,24,14,Improv_Melody,220,5,42,110,2678378784
109,24,14,Improv_Melody,221,1,48,53,2678379748
109,24,14,Improv_Melody,222,1,48,51,2678789712
109,24,14,Improv_Melody,223,5,42,127,2678878688
109,24,14,Improv_Melody,224,1,48,54,2679332124
109,24,14,Improv_Melody,225,5,42,110,2679379584
109,24,14,Improv_Melody,226,1,48,52,2679831224
109,24,14,Improv_Melody,227,5,42,110,2679879060
109,24,14,Improv_Melody,228,1,48,44,2680247000
109,24,14,Improv_Melody,229,1,48,57,2680355964
109,24,14,Improv_Melody,230,5,42,110,2680378592
109,24,14,Improv_Melody,231,1,48,54,2680838308
109,24,14,Improv_Melody,232,2,48,80,2680880792
109,24,14,Improv_Melody,233,2,72,80,2680883020
109,24,14,Improv_Melody,234,5,42,127,2680885632
109,24,14,Improv_Melody,235,1,48,59,2681367792
109,24,14,Improv_Melody,236,5,42,110,2681379420
109,24,14,Improv_Melody,237,5,42,110,2681878908
109,24,14,Improv_Melody,238,1,48,66,2681883076
109,24,14,Improv_Melody,239,1,38,56,2682293140
109,24,14,Improv_Melody,240,5,42,110,2682378748
109,24,14,Improv_Melody,241,1,48,54,2682836152
109,24,14,Improv_Melody,242,5,42,127,2682879496
109,24,14,Improv_Melody,243,1,48,46,2683357320
109,24,14,Improv_Melody,244,5,42,110,2683379344
109,24,14,Improv_Melody,245,1,48,56,2683859408
109,24,14,Improv_Melody,246,5,42,110,2683878672
109,24,14,Improv_Melody,247,1,48,32,2684294560
109,24,14,Improv_Melody,248,5,42,110,2684378448
109,24,14,Improv_Melody,249,1,48,56,2684392624
109,24,14,Improv_Melody,250,1,38,63,2684846596
109,24,14,Improv_Melody,251,2,43,80,2684881676
109,24,14,Improv_Melody,252,2,67,80,2684884208
109,24,14,Improv_Melody,253,5,42,127,2684886664
109,24,14,Improv_Melody,254,5,42,110,2685378896
109,24,14,Improv_Melody,255,1,48,48,2685389788
109,24,14,Improv_Melody,256,5,42,110,2685878596
109,24,14,Improv_Melody,257,1,48,56,2685895176
109,24,14,Improv_Melody,258,5,42,110,2686379564
109,24,14,Improv_Melody,259,1,48,57,2686393680
109,24,14,Improv_Melody,260,5,42,127,2686879340
109,24,14,Improv_Melody,261,1,48,51,2686886128
109,24,14,Improv_Melody,262,1,48,57,2687369424
109,24,14,Improv_Melody,263,5,42,110,2687378736
109,24,14,Improv_Melody,264,1,48,24,2687844492
109,24,14,Improv_Melody,265,5,42,110,2687878436
109,24,14,Improv_Melody,266,1,48,64,2687935992
109,24,14,Improv_Melody,267,1,48,45,2688346188
109,24,14,Improv_Melody,268,5,42,110,2688379508
109,24,14,Improv_Melody,269,1,48,57,2688844240
109,24,14,Improv_Melody,270,2,45,80,2688881720
109,24,14,Improv_Melody,271,2,69,80,2688883940
109,24,14,Improv_Melody,272,5,42,127,2688886400
109,24,14,Improv_Melody,273,1,38,57,2688927172
109,24,14,Improv_Melody,274,5,42,110,2689378596
109,24,14,Improv_Melody,275,1,48,35,2689396600
109,24,14,Improv_Melody,276,1,48,56,2689852672
109,24,14,Improv_Melody,277,5,42,110,2689879336
109,24,14,Improv_Melody,278,1,48,15,2689959580
109,24,14,Improv_Melody,279,1,48,49,2690370296
109,24,14,Improv_Melody,280,5,42,110,2690379388
109,24,14,Improv_Melody,281,1,48,56,2690817792
109,24,14,Improv_Melody,282,5,42,127,2690878792
109,24,14,Improv_Melody,283,1,48,30,2690924832
109,24,14,Improv_Melody,284,1,48,57,2691337212
109,24,14,Improv_Melody,285,5,42,110,2691378616
109,24,14,Improv_Melody,286,1,48,63,2691871028
109,24,14,Improv_Melody,287,5,42,110,2691879364
109,24,14,Improv_Melody,288,1,38,46,2692307668
109,24,14,Improv_Melody,289,5,42,110,2692379140
109,24,14,Improv_Melody,290,1,48,31,2692441032
109,24,14,Improv_Melody,291,1,48,51,2692876580
109,24,14,Improv_Melody,292,2,41,80,2692881324
109,24,14,Improv_Melody,293,2,65,80,2692883252
109,24,14,Improv_Melody,294,5,42,127,2692885716
109,24,14,Improv_Melody,295,1,48,35,2692989200
109,24,14,Improv_Melody,296,1,48,54,2693366808
109,24,14,Improv_Melody,297,5,42,110,2693378512
109,24,14,Improv_Melody,298,1,48,62,2693863736
109,24,14,Improv_Melody,299,5,42,110,2693879332
109,24,14,Improv_Melody,300,1,48,43,2694260116
109,24,14,Improv_Melody,301,1,48,53,2694371940
109,24,14,Improv_Melody,302,5,42,110,2694378788
109,24,14,Improv_Melody,303,1,48,54,2694802756
109,24,14,Improv_Melody,304,5,42,127,2694878564
109,24,14,Improv_Melody,305,1,48,50,2695345388
109,24,14,Improv_Melody,306,5,42,110,2695379236
109,24,14,Improv_Melody,307,1,38,53,2695763308
109,24,14,Improv_Melody,308,5,42,110,2695879144
109,24,14,Improv_Melody,309,1,48,56,2696313124
109,24,14,Improv_Melody,310,5,42,110,2696378636
109,24,14,Improv_Melody,311,1,48,52,2696813944
109,24,14,Improv_Melody,312,2,48,80,2696881136
109,24,14,Improv_Melody,313,2,72,80,2696882988
109,24,14,Improv_Melody,314,5,42,127,2696885528
109,24,14,Improv_Melody,315,1,48,29,2697260552
109,24,14,Improv_Melody,316,5,42,110,2697379156
109,24,14,Improv_Melody,317,1,48,59,2697403892
109,24,14,Improv_Melody,318,1,48,59,2697841160
109,24,14,Improv_Melody,319,5,42,110,2697878996
109,24,14,Improv_Melody,320,1,48,62,2698355220
109,24,14,Improv_Melody,321,5,42,110,2698378548
109,24,14,Improv_Melody,322,1,48,38,2698701808
109,24,14,Improv_Melody,323,1,48,52,2698869108
109,24,14,Improv_Melody,324,5,42,127,2698879420
109,24,14,Improv_Melody,325,1,48,61,2699343376
109,24,14,Improv_Melody,326,5,42,110,2699379020
109,24,14,Improv_Melody,327,1,48,21,2699732008
109,24,14,Improv_Melody,328,5,42,110,2699878856
109,24,14,Improv_Melody,329,1,48,53,2699883172
109,24,14,Improv_Melody,330,1,48,56,2700323012
109,24,14,Improv_Melody,331,5,42,110,2700378548
109,24,14,Improv_Melody,332,1,48,37,2700801468
109,24,14,Improv_Melody,333,2,43,80,2700881572
109,24,14,Improv_Melody,334,2,67,80,2700883652
109,24,14,Improv_Melody,335,5,42,127,2700886268
109,24,14,Improv_Melody,336,1,48,57,2700974292
109,24,14,Improv_Melody,337,1,48,56,2701379068
109,24,14,Improv_Melody,338,5,42,110,2701380332
109,24,14,Improv_Melody,339,1,48,34,2701806992
109,24,14,Improv_Melody,340,5,42,110,2701878688
109,24,14,Improv_Melody,341,1,48,59,2701960052
109,24,14,Improv_Melody,342,1,48,54,2702360076
109,24,14,Improv_Melody,343,5,42,110,2702379264
109,24,14,Improv_Melody,344,1,48,39,2702733216
109,24,14,Improv_Melody,345,5,42,127,2702878948
109,24,14,Improv_Melody,346,1,48,53,2702913708
109,24,14,Improv_Melody,347,1,48,28,2703240072
109,24,14,Improv_Melody,348,5,42,110,2703378924
109,24,14,Improv_Melody,349,1,48,49,2703409868
109,24,14,Improv_Melody,350,1,48,22,2703719764
109,24,14,Improv_Melody,351,5,42,110,2703878380
109,24,14,Improv_Melody,352,1,48,53,2703899076
109,24,14,Improv_Melody,353,1,48,37,2704191312
109,24,14,Improv_Melody,354,5,42,110,2704379256
109,24,14,Improv_Melody,355,1,48,56,2704404288
109,24,14,Improv_Melody,356,1,48,46,2704649928
109,24,14,Improv_Melody,357,2,45,80,2704881360
109,24,14,Improv_Melody,358,2,69,80,2704883664
109,24,14,Improv_Melody,359,5,42,127,2704886200
109,24,14,Improv_Melody,360,1,48,69,2704898300
109,24,14,Improv_Melody,361,5,42,110,2705378720
109,24,14,Improv_Melody,362,1,48,55,2705407720
109,24,14,Improv_Melody,363,5,42,110,2705879544
109,24,14,Improv_Melody,364,1,48,56,2705896424
109,24,14,Improv_Melody,365,1,48,57,2706368800
109,24,14,Improv_Melody,366,5,42,110,2706379012
109,24,14,Improv_Melody,367,1,48,16,2706704968
109,24,14,Improv_Melody,368,1,48,57,2706860328
109,24,14,Improv_Melody,369,5,42,127,2706878916
109,24,14,Improv_Melody,370,1,48,28,2707102692
109,24,14,Improv_Melody,371,1,48,53,2707295124
109,24,14,Improv_Melody,372,5,42,110,2707378516
109,24,14,Improv_Melody,373,1,48,17,2707507360
109,24,14,Improv_Melody,374,1,48,51,2707804976
109,24,14,Improv_Melody,375,5,42,110,2707879316
109,24,14,Improv_Melody,376,1,48,18,2707946444
109,24,14,Improv_Melody,377,1,48,40,2708332332
109,24,14,Improv_Melody,378,5,42,110,2708378996
109,24,14,Improv_Melody,379,1,48,19,2708449044
109,24,14,Improv_Melody,380,1,48,56,2708857740
109,24,14,Improv_Melody,381,2,41,80,2708881252
109,24,14,Improv_Melody,382,2,65,80,2708883484
109,24,14,Improv_Melody,383,5,42,127,2708886088
109,24,14,Improv_Melody,384,1,48,14,2709212200
109,24,14,Improv_Melody,385,5,42,110,2709378372
109,24,14,Improv_Melody,386,1,48,48,2709441704
109,24,14,Improv_Melody,387,1,48,23,2709825792
109,24,14,Improv_Melody,388,5,42,110,2709879088
109,24,14,Improv_Melody,389,1,48,56,2709926720
109,24,14,Improv_Melody,390,1,48,21,2710284256
109,24,14,Improv_Melody,391,5,42,110,2710378916
109,24,14,Improv_Melody,392,1,48,45,2710422888
109,24,14,Improv_Melody,393,5,42,127,2710878528
109,24,14,Improv_Melody,394,1,48,60,2710893240
109,24,14,Improv_Melody,395,1,48,30,2711030948
109,24,14,Improv_Melody,396,5,42,110,2711379180
109,24,14,Improv_Melody,397,1,48,50,2711395088
109,24,14,Improv_Melody,398,1,48,28,2711493156
109,24,14,Improv_Melody,399,1,48,50,2711875220
109,24,14,Improv_Melody,400,5,42,110,2711879000
109,24,14,Improv_Melody,401,1,48,32,2711958200
109,24,14,Improv_Melody,402,1,48,47,2712356952
109,24,14,Improv_Melody,403,5,42,110,2712378904
109,24,14,Improv_Melody,404,1,48,31,2712466932
109,24,14,Improv_Melody,405,1,48,64,2712872188
109,24,14,Improv_Melody,406,2,48,80,2712880936
109,24,14,Improv_Melody,407,2,72,80,2712883012
109,24,14,Improv_Melody,408,5,42,127,2712885700
109,24,14,Improv_Melody,409,5,42,110,2713379124
109,24,14,Improv_Melody,410,1,48,64,2713440208
109,24,14,Improv_Melody,0,9999,9999,9999,2632876116
109,24,14,Improv_Melody,1,9999,9999,9999,2633376852
109,24,14,Improv_Melody,2,9999,9999,9999,2633876572
109,24,14,Improv_Melody,3,9999,9999,9999,2634376292
109,24,14,Improv_Melody,4,9999,9999,9999,2634877012
109,24,14,Improv_Melody,5,9999,9999,9999,2635376712
109,24,14,Improv_Melody,6,9999,9999,9999,2635876420
109,24,14,Improv_Melody,7,9999,9999,9999,2636376140
109,24,14,Improv_Melody,8,9999,9999,9999,2636876912
109,24,14,Improv_Melody,9,9999,9999,9999,2637376576
109,24,14,Improv_Melody,10,9999,9999,9999,2637876336
109,24,14,Improv_Melody,11,9999,9999,9999,2638377060
109,24,14,Improv_Melody,12,9999,9999,9999,2638876736
109,24,14,Improv_Melody,13,9999,9999,9999,2639376508
109,24,14,Improv_Melody,14,9999,9999,9999,2639876192
109,24,14,Improv_Melody,15,9999,9999,9999,2640376884
109,24,14,Improv_Melody,16,9999,9999,9999,2640876604
109,24,14,Improv_Melody,17,9999,9999,9999,2641376344
109,24,14,Improv_Melody,18,9999,9999,9999,2641877108
109,24,14,Improv_Melody,19,9999,9999,9999,2642376756
109,24,14,Improv_Melody,20,9999,9999,9999,2642876524
109,24,14,Improv_Melody,21,9999,9999,9999,2643376224
109,24,14,Improv_Melody,22,9999,9999,9999,2643876972
109,24,14,Improv_Melody,23,9999,9999,9999,2644376676
109,24,14,Improv_Melody,24,9999,9999,9999,2644876372
109,24,14,Improv_Melody,25,9999,9999,9999,2645376116
109,24,14,Improv_Melody,26,9999,9999,9999,2645876788
109,24,14,Improv_Melody,27,9999,9999,9999,2646376564
109,24,14,Improv_Melody,28,9999,9999,9999,2646876244
109,24,14,Improv_Melody,29,9999,9999,9999,2647376988
109,24,14,Improv_Melody,30,9999,9999,9999,2647876684
109,24,14,Improv_Melody,31,9999,9999,9999,2648376388
109,24,14,Improv_Melody,32,9999,9999,9999,2648876140
109,24,14,Improv_Melody,33,9999,9999,9999,2649376820
109,24,14,Improv_Melody,34,9999,9999,9999,2649876600
109,24,14,Improv_Melody,35,9999,9999,9999,2650376296
109,24,14,Improv_Melody,36,9999,9999,9999,2650877020
109,24,14,Improv_Melody,37,9999,9999,9999,2651376720
109,24,14,Improv_Melody,38,9999,9999,9999,2651876424
109,24,14,Improv_Melody,39,9999,9999,9999,2652376124
109,24,14,Improv_Melody,40,9999,9999,9999,2652876848
109,24,14,Improv_Melody,41,9999,9999,9999,2653376564
109,24,14,Improv_Melody,42,9999,9999,9999,2653876332
109,24,14,Improv_Melody,43,9999,9999,9999,2654377012
109,24,14,Improv_Melody,44,9999,9999,9999,2654876756
109,24,14,Improv_Melody,45,9999,9999,9999,2655376456
109,24,14,Improv_Melody,46,9999,9999,9999,2655876156
109,24,14,Improv_Melody,47,9999,9999,9999,2656376952
109,24,14,Improv_Melody,48,9999,9999,9999,2656876652
109,24,14,Improv_Melody,49,9999,9999,9999,2657376348
109,24,14,Improv_Melody,50,9999,9999,9999,2657877100
109,24,14,Improv_Melody,51,9999,9999,9999,2658376764
109,24,14,Improv_Melody,52,9999,9999,9999,2658876480
109,24,14,Improv_Melody,53,9999,9999,9999,2659376248
109,24,14,Improv_Melody,54,9999,9999,9999,2659876920
109,24,14,Improv_Melody,55,9999,9999,9999,2660376624
109,24,14,Improv_Melody,56,9999,9999,9999,2660876392
109,24,14,Improv_Melody,57,9999,9999,9999,2661376088
109,24,14,Improv_Melody,58,9999,9999,9999,2661876836
109,24,14,Improv_Melody,59,9999,9999,9999,2662376536
109,24,14,Improv_Melody,60,9999,9999,9999,2662876216
109,24,14,Improv_Melody,61,9999,9999,9999,2663376952
109,24,14,Improv_Melody,62,9999,9999,9999,2663876728
109,24,14,Improv_Melody,63,9999,9999,9999,2664376428
109,24,14,Improv_Melody,64,9999,9999,9999,2664876108
109,24,14,Improv_Melody,65,9999,9999,9999,2665376868
109,24,14,Improv_Melody,66,9999,9999,9999,2665876568
109,24,14,Improv_Melody,67,9999,9999,9999,2666376264
109,24,14,Improv_Melody,68,9999,9999,9999,2666877048
109,24,14,Improv_Melody,69,9999,9999,9999,2667376748
109,24,14,Improv_Melody,70,9999,9999,9999,2667876440
109,24,14,Improv_Melody,71,9999,9999,9999,2668376140
109,24,14,Improv_Melody,72,9999,9999,9999,2668876864
109,24,14,Improv_Melody,73,9999,9999,9999,2669376584
109,24,14,Improv_Melody,74,9999,9999,9999,2669876280
109,24,14,Improv_Melody,75,9999,9999,9999,2670377024
109,24,14,Improv_Melody,76,9999,9999,9999,2670876784
109,24,14,Improv_Melody,77,9999,9999,9999,2671376500
109,24,14,Improv_Melody,78,9999,9999,9999,2671876200
109,24,14,Improv_Melody,79,9999,9999,9999,2672376944
109,24,14,Improv_Melody,80,9999,9999,9999,2672876624
109,24,14,Improv_Melody,81,9999,9999,9999,2673376336
109,24,14,Improv_Melody,82,9999,9999,9999,2673877088
109,24,14,Improv_Melody,83,9999,9999,9999,2674376784
109,24,14,Improv_Melody,84,9999,9999,9999,2674876468
109,24,14,Improv_Melody,85,9999,9999,9999,2675376236
109,24,14,Improv_Melody,86,9999,9999,9999,2675876980
109,24,14,Improv_Melody,87,9999,9999,9999,2676376680
109,24,14,Improv_Melody,88,9999,9999,9999,2676876360
109,24,14,Improv_Melody,89,9999,9999,9999,2677376072
109,24,14,Improv_Melody,90,9999,9999,9999,2677876792
109,24,14,Improv_Melody,91,9999,9999,9999,2678376568
109,24,14,Improv_Melody,92,9999,9999,9999,2678876248
109,24,14,Improv_Melody,93,9999,9999,9999,2679376992
109,24,14,Improv_Melody,94,9999,9999,9999,2679876696
109,24,14,Improv_Melody,95,9999,9999,9999,2680376372
109,24,14,Improv_Melody,96,9999,9999,9999,2680876148
109,24,14,Improv_Melody,97,9999,9999,9999,2681376832
109,24,14,Improv_Melody,98,9999,9999,9999,2681876540
109,24,14,Improv_Melody,99,9999,9999,9999,2682376308
109,24,14,Improv_Melody,100,9999,9999,9999,2682876980
109,24,14,Improv_Melody,101,9999,9999,9999,2683376756
109,24,14,Improv_Melody,102,9999,9999,9999,2683876456
109,24,14,Improv_Melody,103,9999,9999,9999,2684376156
109,24,14,Improv_Melody,104,9999,9999,9999,2684876880
109,24,14,Improv_Melody,105,9999,9999,9999,2685376604
109,24,14,Improv_Melody,106,9999,9999,9999,2685876304
109,24,14,Improv_Melody,107,9999,9999,9999,2686377048
109,24,14,Improv_Melody,108,9999,9999,9999,2686876752
109,24,14,Improv_Melody,109,9999,9999,9999,2687376444
109,24,14,Improv_Melody,110,9999,9999,9999,2687876144
109,24,14,Improv_Melody,111,9999,9999,9999,2688376920
109,24,14,Improv_Melody,112,9999,9999,9999,2688876616
109,24,14,Improv_Melody,113,9999,9999,9999,2689376304
109,24,14,Improv_Melody,114,9999,9999,9999,2689877044
109,24,14,Improv_Melody,115,9999,9999,9999,2690376800
109,24,14,Improv_Melody,116,9999,9999,9999,2690876500
109,24,14,Improv_Melody,117,9999,9999,9999,2691376176
109,24,14,Improv_Melody,118,9999,9999,9999,2691876924
109,24,14,Improv_Melody,119,9999,9999,9999,2692376624
109,24,14,Improv_Melody,120,9999,9999,9999,2692876340
109,24,14,Improv_Melody,121,9999,9999,9999,2693376072
109,24,14,Improv_Melody,122,9999,9999,9999,2693876816
109,24,14,Improv_Melody,123,9999,9999,9999,2694376496
109,24,14,Improv_Melody,124,9999,9999,9999,2694876272
109,24,14,Improv_Melody,125,9999,9999,9999,2695377016
109,24,14,Improv_Melody,126,9999,9999,9999,2695876704
109,24,14,Improv_Melody,127,9999,9999,9999,2696376420
109,24,14,Improv_Melody,128,9999,9999,9999,2696876116
109,24,14,Improv_Melody,129,9999,9999,9999,2697376860
109,24,14,Improv_Melody,130,9999,9999,9999,2697876556
109,24,14,Improv_Melody,131,9999,9999,9999,2698376256
109,24,14,Improv_Melody,132,9999,9999,9999,2698877028
109,24,14,Improv_Melody,133,9999,9999,9999,2699376728
109,24,14,Improv_Melody,134,9999,9999,9999,2699876416
109,24,14,Improv_Melody,135,9999,9999,9999,2700376184
109,24,14,Improv_Melody,136,9999,9999,9999,2700876856
109,24,14,Improv_Melody,137,9999,9999,9999,2701376628
109,24,14,Improv_Melody,138,9999,9999,9999,2701876320
109,24,14,Improv_Melody,139,9999,9999,9999,2702377044
109,24,14,Improv_Melody,140,9999,9999,9999,2702876732
109,24,14,Improv_Melody,141,9999,9999,9999,2703376484
109,24,14,Improv_Melody,142,9999,9999,9999,2703876164
109,24,14,Improv_Melody,143,9999,9999,9999,2704376888
109,24,14,Improv_Melody,144,9999,9999,9999,2704876640
109,24,14,Improv_Melody,145,9999,9999,9999,2705376356
109,24,14,Improv_Melody,146,9999,9999,9999,2705877100
109,24,14,Improv_Melody,147,9999,9999,9999,2706376796
109,24,14,Improv_Melody,148,9999,9999,9999,2706876476
109,24,14,Improv_Melody,149,9999,9999,9999,2707376224
109,24,14,Improv_Melody,150,9999,9999,9999,2707876948
109,24,14,Improv_Melody,151,9999,9999,9999,2708376632
109,24,14,Improv_Melody,152,9999,9999,9999,2708876384
109,24,14,Improv_Melody,153,9999,9999,9999,2709376080
109,24,14,Improv_Melody,154,9999,9999,9999,2709876796
109,24,14,Improv_Melody,155,9999,9999,9999,2710376552
109,24,14,Improv_Melody,156,9999,9999,9999,2710876240
109,24,14,Improv_Melody,157,9999,9999,9999,2711376964
109,24,14,Improv_Melody,158,9999,9999,9999,2711876712
109,24,14,Improv_Melody,159,9999,9999,9999,2712376388
109,24,14,Improv_Melody,160,9999,9999,9999,2712876144
109,24,14,Improv_Melody,161,9999,9999,9999,2713376832
