pid,taskRunCount,taskID,taskName,i,channel,pitch,velocity,microseconds
100,1,0,Ticks_Pract_8,0,5,42,127,72473896
100,1,0,Ticks_Pract_8,1,5,42,127,73273676
100,1,0,Ticks_Pract_8,2,5,42,127,74073508
100,1,0,Ticks_Pract_8,3,5,42,127,74874160
100,1,0,Ticks_Pract_8,4,5,42,127,75674136
100,1,0,Ticks_Pract_8,5,1,48,48,75677184
100,1,0,Ticks_Pract_8,6,1,48,51,76407040
100,1,0,Ticks_Pract_8,7,5,42,127,76473640
100,1,0,Ticks_Pract_8,8,1,48,49,77257632
100,1,0,Ticks_Pract_8,9,5,42,127,77273376
100,1,0,Ticks_Pract_8,10,1,48,44,78036720
100,1,0,Ticks_Pract_8,11,5,42,127,78074156
100,1,0,Ticks_Pract_8,12,1,48,45,78871160
100,1,0,Ticks_Pract_8,13,5,42,127,78874108
100,1,0,Ticks_Pract_8,14,1,48,41,79656604
100,1,0,Ticks_Pract_8,15,5,42,127,79673572
100,1,0,Ticks_Pract_8,16,5,42,127,80473312
100,1,0,Ticks_Pract_8,17,1,48,41,80487128
100,1,0,Ticks_Pract_8,18,5,42,127,81274240
100,1,0,Ticks_Pract_8,19,1,48,51,81289332
100,1,0,Ticks_Pract_8,20,1,48,33,82072844
100,1,0,Ticks_Pract_8,21,5,42,127,82074264
100,1,0,Ticks_Pract_8,22,1,48,48,82847044
100,1,0,Ticks_Pract_8,23,5,42,127,82873700
100,1,0,Ticks_Pract_8,24,5,42,127,83673516
100,1,0,Ticks_Pract_8,25,1,48,46,83688756
100,1,0,Ticks_Pract_8,26,1,48,38,84469396
100,1,0,Ticks_Pract_8,27,5,42,127,84474144
100,1,0,Ticks_Pract_8,28,5,42,127,85274104
100,1,0,Ticks_Pract_8,29,1,48,47,85275068
100,1,0,Ticks_Pract_8,30,1,48,42,86061112
100,1,0,Ticks_Pract_8,31,5,42,127,86073636
100,1,0,Ticks_Pract_8,32,5,42,127,86873376
100,1,0,Ticks_Pract_8,33,1,48,45,86887116
100,1,0,Ticks_Pract_8,34,1,48,48,87669180
100,1,0,Ticks_Pract_8,35,5,42,127,87674076
100,1,0,Ticks_Pract_8,36,1,48,43,88425300
100,1,0,Ticks_Pract_8,37,5,42,127,88473956
100,1,0,Ticks_Pract_8,38,1,48,38,89223616
100,1,0,Ticks_Pract_8,39,5,42,127,89273688
100,1,0,Ticks_Pract_8,40,5,42,127,90073356
100,1,0,Ticks_Pract_8,41,1,48,44,90076332
100,1,0,Ticks_Pract_8,42,5,42,127,90874136
100,1,0,Ticks_Pract_8,43,1,48,48,90875100
100,1,0,Ticks_Pract_8,44,5,42,127,91674020
100,1,0,Ticks_Pract_8,45,1,48,46,91694664
100,1,0,Ticks_Pract_8,46,1,48,47,92465656
100,1,0,Ticks_Pract_8,47,5,42,127,92473844
100,1,0,Ticks_Pract_8,48,1,48,43,93247216
100,1,0,Ticks_Pract_8,49,5,42,127,93273432
100,1,0,Ticks_Pract_8,50,5,42,127,94074292
100,1,0,Ticks_Pract_8,51,1,48,49,94075256
100,1,0,Ticks_Pract_8,52,5,42,127,94873876
100,1,0,Ticks_Pract_8,53,1,48,46,94885972
100,1,0,Ticks_Pract_8,54,5,42,127,95673832
100,1,0,Ticks_Pract_8,55,1,48,44,95676956
100,1,0,Ticks_Pract_8,56,1,48,44,96457596
100,1,0,Ticks_Pract_8,0,9999,9999,9999,72471612
100,1,0,Ticks_Pract_8,1,9999,9999,9999,73271388
100,1,0,Ticks_Pract_8,2,9999,9999,9999,74071144
100,1,0,Ticks_Pract_8,3,9999,9999,9999,74871872
100,1,0,Ticks_Pract_8,4,9999,9999,9999,75671628
100,1,0,Ticks_Pract_8,5,9999,9999,9999,76471352
100,1,0,Ticks_Pract_8,6,9999,9999,9999,77271088
100,1,0,Ticks_Pract_8,7,9999,9999,9999,78071868
100,1,0,Ticks_Pract_8,8,9999,9999,9999,78871600
100,1,0,Ticks_Pract_8,9,9999,9999,9999,79671356
100,1,0,Ticks_Pract_8,10,9999,9999,9999,80471096
100,1,0,Ticks_Pract_8,11,9999,9999,9999,81271876
100,1,0,Ticks_Pract_8,12,9999,9999,9999,82071612
100,1,0,Ticks_Pract_8,13,9999,9999,9999,82871416
100,1,0,Ticks_Pract_8,14,9999,9999,9999,83671156
100,1,0,Ticks_Pract_8,15,9999,9999,9999,84471856
100,1,0,Ticks_Pract_8,16,9999,9999,9999,85271668
100,1,0,Ticks_Pract_8,17,9999,9999,9999,86071348
100,1,0,Ticks_Pract_8,18,9999,9999,9999,86871088
100,1,0,Ticks_Pract_8,19,9999,9999,9999,87671860
100,1,0,Ticks_Pract_8,20,9999,9999,9999,88471668
100,1,0,Ticks_Pract_8,21,9999,9999,9999,89271404
100,1,0,Ticks_Pract_8,22,9999,9999,9999,90071144
100,1,0,Ticks_Pract_8,23,9999,9999,9999,90871920
100,1,0,Ticks_Pract_8,24,9999,9999,9999,91671656
100,1,0,Ticks_Pract_8,25,9999,9999,9999,92471408
100,1,0,Ticks_Pract_8,26,9999,9999,9999,93271140
100,1,0,Ticks_Pract_8,27,9999,9999,9999,94071856
100,1,0,Ticks_Pract_8,28,9999,9999,9999,94871660
100,1,0,Ticks_Pract_8,29,9999,9999,9999,95671396
100,2,1,Ticks_Pract_5,0,5,42,127,126437628
100,2,1,Ticks_Pract_5,1,5,42,127,126937568
100,2,1,Ticks_Pract_5,2,5,42,127,127438108
100,2,1,Ticks_Pract_5,3,5,42,127,127938048
100,2,1,Ticks_Pract_5,4,5,42,127,128437468
100,2,1,Ticks_Pract_5,5,1,48,50,128469012
100,2,1,Ticks_Pract_5,6,1,48,49,128915504
100,2,1,Ticks_Pract_5,7,5,42,127,128938572
100,2,1,Ticks_Pract_5,8,1,48,51,129413772
100,2,1,Ticks_Pract_5,9,5,42,127,129438192
100,2,1,Ticks_Pract_5,10,1,48,53,129925140
100,2,1,Ticks_Pract_5,11,5,42,127,129937888
100,2,1,Ticks_Pract_5,12,1,48,52,130410920
100,2,1,Ticks_Pract_5,13,5,42,127,130437432
100,2,1,Ticks_Pract_5,14,1,48,52,130902908
100,2,1,Ticks_Pract_5,15,5,42,127,130938176
100,2,1,Ticks_Pract_5,16,1,48,51,131411580
100,2,1,Ticks_Pract_5,17,5,42,127,131437944
100,2,1,Ticks_Pract_5,18,1,48,50,131921448
100,2,1,Ticks_Pract_5,19,5,42,127,131937644
100,2,1,Ticks_Pract_5,20,1,48,51,132390824
100,2,1,Ticks_Pract_5,21,5,42,127,132438532
100,2,1,Ticks_Pract_5,22,1,48,52,132924952
100,2,1,Ticks_Pract_5,23,5,42,127,132938300
100,2,1,Ticks_Pract_5,24,5,42,127,133437928
100,2,1,Ticks_Pract_5,25,1,48,46,133442620
100,2,1,Ticks_Pract_5,26,1,48,48,133932124
100,2,1,Ticks_Pract_5,27,5,42,127,133937768
100,2,1,Ticks_Pract_5,28,1,48,47,134424012
100,2,1,Ticks_Pract_5,29,5,42,127,134438260
100,2,1,Ticks_Pract_5,30,5,42,127,134937960
100,2,1,Ticks_Pract_5,31,1,48,49,134955092
100,2,1,Ticks_Pract_5,32,5,42,127,135437732
100,2,1,Ticks_Pract_5,33,1,48,48,135464260
100,2,1,Ticks_Pract_5,34,5,42,127,135938472
100,2,1,Ticks_Pract_5,35,1,48,52,135961556
100,2,1,Ticks_Pract_5,36,5,42,127,136438240
100,2,1,Ticks_Pract_5,37,1,48,47,136477188
100,2,1,Ticks_Pract_5,38,5,42,127,136937784
100,2,1,Ticks_Pract_5,39,1,48,49,136983836
100,2,1,Ticks_Pract_5,40,5,42,127,137437556
100,2,1,Ticks_Pract_5,41,1,48,54,137459668
100,2,1,Ticks_Pract_5,42,5,42,127,137938220
100,2,1,Ticks_Pract_5,43,1,48,53,137942756
100,2,1,Ticks_Pract_5,44,5,42,127,138437988
100,2,1,Ticks_Pract_5,45,1,48,52,138452844
100,2,1,Ticks_Pract_5,46,1,48,60,138928964
100,2,1,Ticks_Pract_5,47,5,42,127,138937676
100,2,1,Ticks_Pract_5,48,1,48,56,139411532
100,2,1,Ticks_Pract_5,49,5,42,127,139437596
100,2,1,Ticks_Pract_5,50,5,42,127,139938196
100,2,1,Ticks_Pract_5,51,1,48,49,139959864
100,2,1,Ticks_Pract_5,52,5,42,127,140437740
100,2,1,Ticks_Pract_5,53,1,48,54,140455144
100,2,1,Ticks_Pract_5,54,5,42,127,140937660
100,2,1,Ticks_Pract_5,55,1,48,57,140960900
100,2,1,Ticks_Pract_5,56,5,42,127,141438400
100,2,1,Ticks_Pract_5,57,1,48,55,141439516
100,2,1,Ticks_Pract_5,58,1,48,57,141932144
100,2,1,Ticks_Pract_5,59,5,42,127,141938012
100,2,1,Ticks_Pract_5,60,5,42,127,142437640
100,2,1,Ticks_Pract_5,61,1,48,57,142461476
100,2,1,Ticks_Pract_5,62,5,42,127,142937560
100,2,1,Ticks_Pract_5,63,1,48,54,142942472
100,2,1,Ticks_Pract_5,64,1,48,55,143432420
100,2,1,Ticks_Pract_5,65,5,42,127,143438292
100,2,1,Ticks_Pract_5,66,5,42,127,143937844
100,2,1,Ticks_Pract_5,67,1,48,53,143942308
100,2,1,Ticks_Pract_5,68,5,42,127,144437612
100,2,1,Ticks_Pract_5,69,1,48,54,144469304
100,2,1,Ticks_Pract_5,70,5,42,127,144938504
100,2,1,Ticks_Pract_5,71,1,48,45,144957032
100,2,1,Ticks_Pract_5,72,5,42,127,145438172
100,2,1,Ticks_Pract_5,73,1,48,57,145450664
100,2,1,Ticks_Pract_5,74,1,48,47,145927952
100,2,1,Ticks_Pract_5,75,5,42,127,145937784
100,2,1,Ticks_Pract_5,76,1,48,43,146431016
100,2,1,Ticks_Pract_5,0,9999,9999,9999,126435412
100,2,1,Ticks_Pract_5,1,9999,9999,9999,126935128
100,2,1,Ticks_Pract_5,2,9999,9999,9999,127435892
100,2,1,Ticks_Pract_5,3,9999,9999,9999,127935608
100,2,1,Ticks_Pract_5,4,9999,9999,9999,128435252
100,2,1,Ticks_Pract_5,5,9999,9999,9999,128935984
100,2,1,Ticks_Pract_5,6,9999,9999,9999,129435756
100,2,1,Ticks_Pract_5,7,9999,9999,9999,129935448
100,2,1,Ticks_Pract_5,8,9999,9999,9999,130435144
100,2,1,Ticks_Pract_5,9,9999,9999,9999,130935884
100,2,1,Ticks_Pract_5,10,9999,9999,9999,131435580
100,2,1,Ticks_Pract_5,11,9999,9999,9999,131935352
100,2,1,Ticks_Pract_5,12,9999,9999,9999,132436020
100,2,1,Ticks_Pract_5,13,9999,9999,9999,132935788
100,2,1,Ticks_Pract_5,14,9999,9999,9999,133435492
100,2,1,Ticks_Pract_5,15,9999,9999,9999,133935180
100,2,1,Ticks_Pract_5,16,9999,9999,9999,134435896
100,2,1,Ticks_Pract_5,17,9999,9999,9999,134935672
100,2,1,Ticks_Pract_5,18,9999,9999,9999,135435364
100,2,1,Ticks_Pract_5,19,9999,9999,9999,135936112
100,2,1,Ticks_Pract_5,20,9999,9999,9999,136435800
100,2,1,Ticks_Pract_5,21,9999,9999,9999,136935496
100,2,1,Ticks_Pract_5,22,9999,9999,9999,137435192
100,2,1,Ticks_Pract_5,23,9999,9999,9999,137935928
100,2,1,Ticks_Pract_5,24,9999,9999,9999,138435700
100,2,1,Ticks_Pract_5,25,9999,9999,9999,138935388
100,2,1,Ticks_Pract_5,26,9999,9999,9999,139435084
100,2,1,Ticks_Pract_5,27,9999,9999,9999,139935832
100,2,1,Ticks_Pract_5,28,9999,9999,9999,140435524
100,2,1,Ticks_Pract_5,29,9999,9999,9999,140935220
100,2,1,Ticks_Pract_5,30,9999,9999,9999,141435960
100,2,1,Ticks_Pract_5,31,9999,9999,9999,141935724
100,2,1,Ticks_Pract_5,32,9999,9999,9999,142435424
100,2,1,Ticks_Pract_5,33,9999,9999,9999,142935120
100,2,1,Ticks_Pract_5,34,9999,9999,9999,143435852
100,2,1,Ticks_Pract_5,35,9999,9999,9999,143935556
100,2,1,Ticks_Pract_5,36,9999,9999,9999,144435248
100,2,1,Ticks_Pract_5,37,9999,9999,9999,144936040
100,2,1,Ticks_Pract_5,38,9999,9999,9999,145435736
100,2,1,Ticks_Pract_5,39,9999,9999,9999,145935424
100,3,2,T1_SMS_8,0,5,42,127,227738208
100,3,2,T1_SMS_8,1,5,42,127,228537668
100,3,2,T1_SMS_8,2,5,42,127,229337568
100,3,2,T1_SMS_8,3,5,42,127,230138296
100,3,2,T1_SMS_8,4,1,48,58,230924324
100,3,2,T1_SMS_8,5,5,42,127,230938120
100,3,2,T1_SMS_8,6,1,48,55,231734848
100,3,2,T1_SMS_8,7,5,42,127,231737580
100,3,2,T1_SMS_8,8,5,42,127,232537320
100,3,2,T1_SMS_8,9,1,48,61,232570356
100,3,2,T1_SMS_8,10,1,48,53,233329604
100,3,2,T1_SMS_8,11,5,42,127,233338316
100,3,2,T1_SMS_8,12,1,48,47,234134576
100,3,2,T1_SMS_8,13,5,42,127,234137828
100,3,2,T1_SMS_8,14,1,48,52,234883448
100,3,2,T1_SMS_8,15,5,42,127,234937636
100,3,2,T1_SMS_8,16,1,48,46,235728960
100,3,2,T1_SMS_8,17,5,42,127,235737444
100,3,2,T1_SMS_8,18,1,48,47,236509396
100,3,2,T1_SMS_8,19,5,42,127,236538148
100,3,2,T1_SMS_8,20,1,48,43,237328048
100,3,2,T1_SMS_8,21,5,42,127,237337956
100,3,2,T1_SMS_8,22,1,48,42,238104820
100,3,2,T1_SMS_8,23,5,42,127,238137716
100,3,2,T1_SMS_8,24,1,48,45,238936404
100,3,2,T1_SMS_8,25,5,42,127,238937820
100,3,2,T1_SMS_8,26,5,42,127,239738236
100,3,2,T1_SMS_8,27,1,48,43,239753324
100,3,2,T1_SMS_8,28,5,42,127,240538116
100,3,2,T1_SMS_8,29,1,48,46,240556048
100,3,2,T1_SMS_8,30,1,48,44,241298620
100,3,2,T1_SMS_8,31,5,42,127,241337620
100,3,2,T1_SMS_8,32,1,48,42,242120488
100,3,2,T1_SMS_8,33,5,42,127,242137428
100,3,2,T1_SMS_8,34,1,48,46,242918200
100,3,2,T1_SMS_8,35,5,42,127,242938136
100,3,2,T1_SMS_8,36,1,48,42,243729756
100,3,2,T1_SMS_8,37,5,42,127,243738088
100,3,2,T1_SMS_8,38,1,48,46,244535736
100,3,2,T1_SMS_8,39,5,42,127,244537624
100,3,2,T1_SMS_8,40,5,42,127,245337440
100,3,2,T1_SMS_8,41,1,48,42,245346916
100,3,2,T1_SMS_8,42,1,48,42,246125912
100,3,2,T1_SMS_8,43,5,42,127,246138216
100,3,2,T1_SMS_8,44,1,48,50,246924968
100,3,2,T1_SMS_8,45,5,42,127,246938096
100,3,2,T1_SMS_8,46,1,48,51,247708776
100,3,2,T1_SMS_8,47,5,42,127,247737828
100,3,2,T1_SMS_8,48,1,48,41,248529156
100,3,2,T1_SMS_8,49,5,42,127,248537340
100,3,2,T1_SMS_8,50,1,48,43,249308916
100,3,2,T1_SMS_8,51,5,42,127,249338196
100,3,2,T1_SMS_8,52,1,48,51,250104460
100,3,2,T1_SMS_8,53,5,42,127,250138004
100,3,2,T1_SMS_8,54,1,48,38,250900904
100,3,2,T1_SMS_8,55,5,42,127,250937840
100,3,2,T1_SMS_8,56,5,42,127,251737576
100,3,2,T1_SMS_8,57,1,48,38,251780712
100,3,2,T1_SMS_8,58,5,42,127,252538208
100,3,2,T1_SMS_8,59,1,48,46,252541104
100,3,2,T1_SMS_8,60,1,48,50,253317108
100,3,2,T1_SMS_8,61,5,42,127,253338236
100,3,2,T1_SMS_8,62,1,48,46,254085428
100,3,2,T1_SMS_8,63,5,42,127,254137820
100,3,2,T1_SMS_8,64,1,48,48,254906404
100,3,2,T1_SMS_8,65,5,42,127,254937480
100,3,2,T1_SMS_8,66,1,48,49,255681376
100,3,2,T1_SMS_8,67,5,42,127,255738260
100,3,2,T1_SMS_8,68,1,48,45,256495396
100,3,2,T1_SMS_8,69,5,42,127,256538216
100,3,2,T1_SMS_8,70,5,42,127,257337832
100,3,2,T1_SMS_8,71,1,48,42,257349624
100,3,2,T1_SMS_8,72,5,42,127,258137416
100,3,2,T1_SMS_8,73,1,48,49,258152800
100,3,2,T1_SMS_8,74,5,42,127,258938196
100,3,2,T1_SMS_8,75,1,48,46,258959264
100,3,2,T1_SMS_8,76,1,48,42,259737632
100,3,2,T1_SMS_8,77,5,42,127,259739116
100,3,2,T1_SMS_8,78,1,48,46,260535380
100,3,2,T1_SMS_8,79,5,42,127,260537956
100,3,2,T1_SMS_8,80,1,48,47,261282748
100,3,2,T1_SMS_8,81,5,42,127,261337464
100,3,2,T1_SMS_8,82,1,48,43,262092728
100,3,2,T1_SMS_8,83,5,42,127,262138096
100,3,2,T1_SMS_8,84,5,42,127,262938060
100,3,2,T1_SMS_8,85,1,48,43,262939100
100,3,2,T1_SMS_8,86,5,42,127,263737968
100,3,2,T1_SMS_8,87,1,48,46,263757920
100,3,2,T1_SMS_8,88,1,48,35,264508788
100,3,2,T1_SMS_8,89,5,42,127,264537396
100,3,2,T1_SMS_8,90,1,48,45,265318992
100,3,2,T1_SMS_8,91,5,42,127,265338176
100,3,2,T1_SMS_8,92,1,48,48,266110796
100,3,2,T1_SMS_8,93,5,42,127,266137836
100,3,2,T1_SMS_8,94,1,48,43,266883004
100,3,2,T1_SMS_8,95,5,42,127,266937944
100,3,2,T1_SMS_8,96,1,48,40,267714680
100,3,2,T1_SMS_8,97,5,42,127,267737376
100,3,2,T1_SMS_8,98,1,48,43,268505732
100,3,2,T1_SMS_8,99,5,42,127,268538084
100,3,2,T1_SMS_8,100,1,48,32,269320800
100,3,2,T1_SMS_8,101,5,42,127,269337964
100,3,2,T1_SMS_8,102,1,48,46,270128036
100,3,2,T1_SMS_8,103,5,42,127,270137796
100,3,2,T1_SMS_8,104,5,42,127,270937388
100,3,2,T1_SMS_8,105,1,48,52,270938280
100,3,2,T1_SMS_8,106,1,48,48,271738688
100,3,2,T1_SMS_8,107,5,42,127,271739800
100,3,2,T1_SMS_8,108,5,42,127,272538048
100,3,2,T1_SMS_8,109,1,48,51,272548796
100,3,2,T1_SMS_8,110,1,48,37,273306544
100,3,2,T1_SMS_8,111,5,42,127,273337700
100,3,2,T1_SMS_8,112,1,48,44,274126400
100,3,2,T1_SMS_8,113,5,42,127,274137656
100,3,2,T1_SMS_8,114,5,42,127,274938148
100,3,2,T1_SMS_8,115,1,48,35,274949792
100,3,2,T1_SMS_8,116,1,48,46,275712480
100,3,2,T1_SMS_8,117,5,42,127,275737948
100,3,2,T1_SMS_8,118,1,48,44,276516724
100,3,2,T1_SMS_8,119,5,42,127,276537632
100,3,2,T1_SMS_8,120,1,48,48,277327084
100,3,2,T1_SMS_8,121,5,42,127,277337588
100,3,2,T1_SMS_8,122,1,48,40,278100860
100,3,2,T1_SMS_8,123,5,42,127,278138144
100,3,2,T1_SMS_8,124,1,48,46,278892740
100,3,2,T1_SMS_8,125,5,42,127,278937880
100,3,2,T1_SMS_8,126,1,48,27,279716704
100,3,2,T1_SMS_8,127,5,42,127,279737688
100,3,2,T1_SMS_8,128,5,42,127,280537652
100,3,2,T1_SMS_8,129,1,48,43,280546460
100,3,2,T1_SMS_8,130,1,48,46,281289248
100,3,2,T1_SMS_8,131,5,42,127,281338124
100,3,2,T1_SMS_8,132,1,48,44,282121140
100,3,2,T1_SMS_8,133,5,42,127,282137860
100,3,2,T1_SMS_8,134,1,48,48,282921200
100,3,2,T1_SMS_8,135,5,42,127,282937692
100,3,2,T1_SMS_8,136,1,48,48,283705748
100,3,2,T1_SMS_8,137,5,42,127,283737572
100,3,2,T1_SMS_8,138,1,48,47,284474740
100,3,2,T1_SMS_8,139,5,42,127,284538204
100,3,2,T1_SMS_8,140,5,42,127,285338092
100,3,2,T1_SMS_8,141,1,48,45,285343380
100,3,2,T1_SMS_8,142,5,42,127,286137680
100,3,2,T1_SMS_8,143,1,48,44,286162484
100,3,2,T1_SMS_8,144,1,48,44,286929068
100,3,2,T1_SMS_8,145,5,42,127,286937552
100,3,2,T1_SMS_8,146,1,48,33,287709504
100,3,2,T1_SMS_8,147,5,42,127,287738332
100,3,2,T1_SMS_8,148,5,42,127,288537924
100,3,2,T1_SMS_8,149,1,48,45,288543728
100,3,2,T1_SMS_8,150,5,42,127,289337680
100,3,2,T1_SMS_8,151,1,48,40,289391432
100,3,2,T1_SMS_8,152,5,42,127,290137564
100,3,2,T1_SMS_8,153,1,48,42,290150708
100,3,2,T1_SMS_8,154,5,42,127,290938196
100,3,2,T1_SMS_8,155,1,48,46,290950812
100,3,2,T1_SMS_8,156,5,42,127,291737928
100,3,2,T1_SMS_8,157,1,48,44,291765432
100,3,2,T1_SMS_8,158,1,48,38,292537136
100,3,2,T1_SMS_8,159,5,42,127,292538776
100,3,2,T1_SMS_8,160,1,48,37,293312000
100,3,2,T1_SMS_8,161,5,42,127,293337688
100,3,2,T1_SMS_8,162,1,48,46,294127668
100,3,2,T1_SMS_8,163,5,42,127,294138392
100,3,2,T1_SMS_8,164,1,48,52,294908248
100,3,2,T1_SMS_8,165,5,42,127,294937976
100,3,2,T1_SMS_8,166,1,48,52,295699608
100,3,2,T1_SMS_8,167,5,42,127,295737664
100,3,2,T1_SMS_8,168,5,42,127,296537628
100,3,2,T1_SMS_8,169,1,48,52,296574328
100,3,2,T1_SMS_8,170,1,48,47,297335372
100,3,2,T1_SMS_8,171,5,42,127,297338100
100,3,2,T1_SMS_8,172,5,42,127,298137840
100,3,2,T1_SMS_8,173,1,48,54,298144472
100,3,2,T1_SMS_8,174,1,48,54,298908140
100,3,2,T1_SMS_8,175,5,42,127,298937572
100,3,2,T1_SMS_8,176,1,48,50,299690964
100,3,2,T1_SMS_8,177,5,42,127,299737600
100,3,2,T1_SMS_8,178,1,48,48,300456440
100,3,2,T1_SMS_8,179,5,42,127,300538232
100,3,2,T1_SMS_8,180,1,48,49,301294700
100,3,2,T1_SMS_8,181,5,42,127,301337816
100,3,2,T1_SMS_8,182,1,48,54,302129908
100,3,2,T1_SMS_8,183,5,42,127,302137576
100,3,2,T1_SMS_8,184,5,42,127,302937388
100,3,2,T1_SMS_8,185,1,48,51,302939404
100,3,2,T1_SMS_8,186,5,42,127,303738168
100,3,2,T1_SMS_8,187,1,48,55,303746600
100,3,2,T1_SMS_8,188,1,48,49,304523124
100,3,2,T1_SMS_8,189,5,42,127,304537972
100,3,2,T1_SMS_8,190,1,48,54,305334076
100,3,2,T1_SMS_8,191,5,42,127,305337780
100,3,2,T1_SMS_8,192,1,48,52,306132096
100,3,2,T1_SMS_8,193,5,42,127,306137512
100,3,2,T1_SMS_8,194,1,48,45,306900412
100,3,2,T1_SMS_8,195,5,42,127,306938368
100,3,2,T1_SMS_8,196,1,48,46,307652496
100,3,2,T1_SMS_8,197,5,42,127,307737876
100,3,2,T1_SMS_8,198,1,48,43,308445352
100,3,2,T1_SMS_8,199,5,42,127,308537564
100,3,2,T1_SMS_8,200,5,42,127,309337524
100,3,2,T1_SMS_8,201,1,48,51,309354404
100,3,2,T1_SMS_8,202,5,42,127,310138456
100,3,2,T1_SMS_8,203,1,48,52,310163264
100,3,2,T1_SMS_8,204,5,42,127,310937968
100,3,2,T1_SMS_8,205,1,48,51,310957692
100,3,2,T1_SMS_8,206,1,48,52,311675056
100,3,2,T1_SMS_8,207,5,42,127,311737620
100,3,2,T1_SMS_8,208,1,48,49,312526396
100,3,2,T1_SMS_8,209,5,42,127,312537428
100,3,2,T1_SMS_8,210,5,42,127,313338512
100,3,2,T1_SMS_8,211,1,48,36,313363320
100,3,2,T1_SMS_8,212,1,48,50,314087500
100,3,2,T1_SMS_8,213,5,42,127,314138092
100,3,2,T1_SMS_8,214,1,48,46,314930932
100,3,2,T1_SMS_8,215,5,42,127,314937852
100,3,2,T1_SMS_8,216,5,42,127,315737516
100,3,2,T1_SMS_8,217,1,48,45,315780724
100,3,2,T1_SMS_8,218,5,42,127,316538368
100,3,2,T1_SMS_8,219,1,48,53,316570664
100,3,2,T1_SMS_8,220,5,42,127,317338176
100,3,2,T1_SMS_8,221,1,48,41,317342120
100,3,2,T1_SMS_8,222,1,48,50,318097632
100,3,2,T1_SMS_8,223,5,42,127,318137832
100,3,2,T1_SMS_8,224,1,48,40,318902148
100,3,2,T1_SMS_8,225,5,42,127,318937488
100,3,2,T1_SMS_8,226,5,42,127,319738352
100,3,2,T1_SMS_8,227,1,48,38,319745432
100,3,2,T1_SMS_8,228,5,42,127,320537936
100,3,2,T1_SMS_8,229,1,48,47,320568384
100,3,2,T1_SMS_8,230,5,42,127,321337772
100,3,2,T1_SMS_8,231,1,48,45,321346120
100,3,2,T1_SMS_8,232,5,42,127,322137428
100,3,2,T1_SMS_8,233,1,48,42,322147056
100,3,2,T1_SMS_8,234,5,42,127,322938136
100,3,2,T1_SMS_8,235,1,48,46,322944396
100,3,2,T1_SMS_8,0,9999,9999,9999,227735620
100,3,2,T1_SMS_8,1,9999,9999,9999,228535376
100,3,2,T1_SMS_8,2,9999,9999,9999,229335128
100,3,2,T1_SMS_8,3,9999,9999,9999,230135856
100,3,2,T1_SMS_8,4,9999,9999,9999,230935604
100,3,2,T1_SMS_8,5,9999,9999,9999,231735364
100,3,2,T1_SMS_8,6,9999,9999,9999,232535104
100,3,2,T1_SMS_8,7,9999,9999,9999,233335876
100,3,2,T1_SMS_8,8,9999,9999,9999,234135612
100,3,2,T1_SMS_8,9,9999,9999,9999,234935344
100,3,2,T1_SMS_8,10,9999,9999,9999,235735152
100,3,2,T1_SMS_8,11,9999,9999,9999,236535860
100,3,2,T1_SMS_8,12,9999,9999,9999,237335668
100,3,2,T1_SMS_8,13,9999,9999,9999,238135348
100,3,2,T1_SMS_8,14,9999,9999,9999,238935092
100,3,2,T1_SMS_8,15,9999,9999,9999,239735868
100,3,2,T1_SMS_8,16,9999,9999,9999,240535604
100,3,2,T1_SMS_8,17,9999,9999,9999,241335404
100,3,2,T1_SMS_8,18,9999,9999,9999,242135136
100,3,2,T1_SMS_8,19,9999,9999,9999,242935916
100,3,2,T1_SMS_8,20,9999,9999,9999,243735648
100,3,2,T1_SMS_8,21,9999,9999,9999,244535356
100,3,2,T1_SMS_8,22,9999,9999,9999,245335148
100,3,2,T1_SMS_8,23,9999,9999,9999,246135924
100,3,2,T1_SMS_8,24,9999,9999,9999,246935656
100,3,2,T1_SMS_8,25,9999,9999,9999,247735388
100,3,2,T1_SMS_8,26,9999,9999,9999,248535124
100,3,2,T1_SMS_8,27,9999,9999,9999,249335904
100,3,2,T1_SMS_8,28,9999,9999,9999,250135640
100,3,2,T1_SMS_8,29,9999,9999,9999,250935400
100,3,2,T1_SMS_8,30,9999,9999,9999,251735136
100,3,2,T1_SMS_8,31,9999,9999,9999,252535920
100,3,2,T1_SMS_8,32,9999,9999,9999,253335644
100,3,2,T1_SMS_8,33,9999,9999,9999,254135380
100,3,2,T1_SMS_8,34,9999,9999,9999,254935112
100,3,2,T1_SMS_8,35,9999,9999,9999,255735892
100,3,2,T1_SMS_8,36,9999,9999,9999,256535628
100,3,2,T1_SMS_8,37,9999,9999,9999,257335392
100,3,2,T1_SMS_8,38,9999,9999,9999,258135124
100,3,2,T1_SMS_8,39,9999,9999,9999,258935904
100,3,2,T1_SMS_8,40,9999,9999,9999,259735636
100,3,2,T1_SMS_8,41,9999,9999,9999,260535440
100,3,2,T1_SMS_8,42,9999,9999,9999,261335100
100,3,2,T1_SMS_8,43,9999,9999,9999,262135880
100,3,2,T1_SMS_8,44,9999,9999,9999,262935620
100,3,2,T1_SMS_8,45,9999,9999,9999,263735376
100,3,2,T1_SMS_8,46,9999,9999,9999,264535104
100,3,2,T1_SMS_8,47,9999,9999,9999,265335884
100,3,2,T1_SMS_8,48,9999,9999,9999,266135616
100,3,2,T1_SMS_8,49,9999,9999,9999,266935352
100,3,2,T1_SMS_8,50,9999,9999,9999,267735084
100,3,2,T1_SMS_8,51,9999,9999,9999,268535864
100,3,2,T1_SMS_8,52,9999,9999,9999,269335600
100,3,2,T1_SMS_8,53,9999,9999,9999,270135356
100,3,2,T1_SMS_8,54,9999,9999,9999,270935096
100,3,2,T1_SMS_8,55,9999,9999,9999,271735876
100,3,2,T1_SMS_8,56,9999,9999,9999,272535608
100,3,2,T1_SMS_8,57,9999,9999,9999,273335408
100,3,2,T1_SMS_8,58,9999,9999,9999,274135144
100,3,2,T1_SMS_8,59,9999,9999,9999,274935856
100,3,2,T1_SMS_8,60,9999,9999,9999,275735656
100,3,2,T1_SMS_8,61,9999,9999,9999,276535416
100,3,2,T1_SMS_8,62,9999,9999,9999,277335148
100,3,2,T1_SMS_8,63,9999,9999,9999,278135852
100,3,2,T1_SMS_8,64,9999,9999,9999,278935660
100,3,2,T1_SMS_8,65,9999,9999,9999,279735396
100,3,2,T1_SMS_8,66,9999,9999,9999,280535136
100,3,2,T1_SMS_8,67,9999,9999,9999,281335908
100,3,2,T1_SMS_8,68,9999,9999,9999,282135644
100,3,2,T1_SMS_8,69,9999,9999,9999,282935400
100,3,2,T1_SMS_8,70,9999,9999,9999,283735132
100,3,2,T1_SMS_8,71,9999,9999,9999,284535912
100,3,2,T1_SMS_8,72,9999,9999,9999,285335652
100,3,2,T1_SMS_8,73,9999,9999,9999,286135388
100,3,2,T1_SMS_8,74,9999,9999,9999,286935112
100,3,2,T1_SMS_8,75,9999,9999,9999,287735892
100,3,2,T1_SMS_8,76,9999,9999,9999,288535632
100,3,2,T1_SMS_8,77,9999,9999,9999,289335388
100,3,2,T1_SMS_8,78,9999,9999,9999,290135124
100,3,2,T1_SMS_8,79,9999,9999,9999,290935904
100,3,2,T1_SMS_8,80,9999,9999,9999,291735636
100,3,2,T1_SMS_8,81,9999,9999,9999,292535372
100,3,2,T1_SMS_8,82,9999,9999,9999,293335100
100,3,2,T1_SMS_8,83,9999,9999,9999,294135880
100,3,2,T1_SMS_8,84,9999,9999,9999,294935612
100,3,2,T1_SMS_8,85,9999,9999,9999,295735372
100,3,2,T1_SMS_8,86,9999,9999,9999,296535112
100,3,2,T1_SMS_8,87,9999,9999,9999,297335884
100,3,2,T1_SMS_8,88,9999,9999,9999,298135624
100,3,2,T1_SMS_8,89,9999,9999,9999,298935352
100,3,2,T1_SMS_8,90,9999,9999,9999,299735084
100,3,2,T1_SMS_8,91,9999,9999,9999,300535868
100,3,2,T1_SMS_8,92,9999,9999,9999,301335600
100,3,2,T1_SMS_8,93,9999,9999,9999,302135360
100,3,2,T1_SMS_8,94,9999,9999,9999,302935100
100,3,2,T1_SMS_8,95,9999,9999,9999,303735876
100,3,2,T1_SMS_8,96,9999,9999,9999,304535604
100,3,2,T1_SMS_8,97,9999,9999,9999,305335412
100,3,2,T1_SMS_8,98,9999,9999,9999,306135148
100,3,2,T1_SMS_8,99,9999,9999,9999,306935928
100,3,2,T1_SMS_8,100,9999,9999,9999,307735660
100,3,2,T1_SMS_8,101,9999,9999,9999,308535344
100,3,2,T1_SMS_8,102,9999,9999,9999,309335160
100,3,2,T1_SMS_8,103,9999,9999,9999,310135868
100,3,2,T1_SMS_8,104,9999,9999,9999,310935604
100,3,2,T1_SMS_8,105,9999,9999,9999,311735404
100,3,2,T1_SMS_8,106,9999,9999,9999,312535136
100,3,2,T1_SMS_8,107,9999,9999,9999,313335924
100,3,2,T1_SMS_8,108,9999,9999,9999,314135652
100,3,2,T1_SMS_8,109,9999,9999,9999,314935412
100,3,2,T1_SMS_8,110,9999,9999,9999,315735148
100,3,2,T1_SMS_8,111,9999,9999,9999,316535856
100,3,2,T1_SMS_8,112,9999,9999,9999,317335664
100,3,2,T1_SMS_8,113,9999,9999,9999,318135388
100,3,2,T1_SMS_8,114,9999,9999,9999,318935124
100,3,2,T1_SMS_8,115,9999,9999,9999,319735908
100,3,2,T1_SMS_8,116,9999,9999,9999,320535644
100,3,2,T1_SMS_8,117,9999,9999,9999,321335404
100,3,2,T1_SMS_8,118,9999,9999,9999,322135136
100,3,2,T1_SMS_8,119,9999,9999,9999,322935920
100,4,4,T1_SMS_5,0,5,42,127,394925312
100,4,4,T1_SMS_5,1,5,42,127,395425252
100,4,4,T1_SMS_5,2,5,42,127,395925040
100,4,4,T1_SMS_5,3,5,42,127,396424536
100,4,4,T1_SMS_5,4,5,42,127,396925224
100,4,4,T1_SMS_5,5,1,48,51,396934180
100,4,4,T1_SMS_5,6,5,42,127,397425288
100,4,4,T1_SMS_5,7,1,48,48,397448236
100,4,4,T1_SMS_5,8,1,48,49,397901088
100,4,4,T1_SMS_5,9,5,42,127,397924752
100,4,4,T1_SMS_5,10,1,48,49,398406612
100,4,4,T1_SMS_5,11,5,42,127,398424376
100,4,4,T1_SMS_5,12,1,48,43,398920896
100,4,4,T1_SMS_5,13,5,42,127,398925264
100,4,4,T1_SMS_5,14,1,48,47,399405184
100,4,4,T1_SMS_5,15,5,42,127,399424812
100,4,4,T1_SMS_5,16,1,48,43,399894904
100,4,4,T1_SMS_5,17,5,42,127,399924584
100,4,4,T1_SMS_5,18,1,48,46,400415120
100,4,4,T1_SMS_5,19,5,42,127,400425248
100,4,4,T1_SMS_5,20,1,48,50,400912768
100,4,4,T1_SMS_5,21,5,42,127,400925532
100,4,4,T1_SMS_5,22,1,48,44,401390620
100,4,4,T1_SMS_5,23,5,42,127,401424684
100,4,4,T1_SMS_5,24,1,48,53,401888444
100,4,4,T1_SMS_5,25,5,42,127,401924528
100,4,4,T1_SMS_5,26,1,48,53,402396888
100,4,4,T1_SMS_5,27,5,42,127,402425268
100,4,4,T1_SMS_5,28,1,48,51,402882444
100,4,4,T1_SMS_5,29,5,42,127,402925112
100,4,4,T1_SMS_5,30,1,48,51,403391264
100,4,4,T1_SMS_5,31,5,42,127,403424584
100,4,4,T1_SMS_5,32,1,48,48,403904048
100,4,4,T1_SMS_5,33,5,42,127,403925328
100,4,4,T1_SMS_5,34,5,42,127,404425176
100,4,4,T1_SMS_5,35,1,48,53,404430096
100,4,4,T1_SMS_5,36,1,48,42,404910100
100,4,4,T1_SMS_5,37,5,42,127,404924716
100,4,4,T1_SMS_5,38,1,48,51,405405004
100,4,4,T1_SMS_5,39,5,42,127,405424560
100,4,4,T1_SMS_5,40,1,48,48,405917868
100,4,4,T1_SMS_5,41,5,42,127,405925228
100,4,4,T1_SMS_5,42,1,48,65,406382400
100,4,4,T1_SMS_5,43,5,42,127,406425144
100,4,4,T1_SMS_5,44,1,48,47,406885540
100,4,4,T1_SMS_5,45,5,42,127,406924544
100,4,4,T1_SMS_5,46,5,42,127,407425292
100,4,4,T1_SMS_5,47,1,48,50,407435664
100,4,4,T1_SMS_5,48,5,42,127,407925208
100,4,4,T1_SMS_5,49,1,48,48,407956528
100,4,4,T1_SMS_5,50,1,48,41,408417832
100,4,4,T1_SMS_5,51,5,42,127,408424748
100,4,4,T1_SMS_5,52,1,48,43,408910572
100,4,4,T1_SMS_5,53,5,42,127,408924592
100,4,4,T1_SMS_5,54,5,42,127,409425192
100,4,4,T1_SMS_5,55,1,48,40,409440280
100,4,4,T1_SMS_5,56,5,42,127,409925256
100,4,4,T1_SMS_5,57,1,48,46,409932564
100,4,4,T1_SMS_5,58,5,42,127,410424580
100,4,4,T1_SMS_5,59,1,48,50,410458516
100,4,4,T1_SMS_5,60,5,42,127,410925396
100,4,4,T1_SMS_5,61,1,48,48,410930160
100,4,4,T1_SMS_5,62,1,48,41,411417176
100,4,4,T1_SMS_5,63,5,42,127,411425084
100,4,4,T1_SMS_5,64,5,42,127,411924988
100,4,4,T1_SMS_5,65,1,48,44,411927736
100,4,4,T1_SMS_5,66,1,48,47,412409084
100,4,4,T1_SMS_5,67,5,42,127,412424524
100,4,4,T1_SMS_5,68,1,48,43,412877292
100,4,4,T1_SMS_5,69,5,42,127,412925268
100,4,4,T1_SMS_5,70,5,42,127,413424896
100,4,4,T1_SMS_5,71,1,48,37,413425864
100,4,4,T1_SMS_5,72,5,42,127,413924812
100,4,4,T1_SMS_5,73,1,48,46,413933620
100,4,4,T1_SMS_5,74,1,48,46,414424212
100,4,4,T1_SMS_5,75,5,42,127,414425624
100,4,4,T1_SMS_5,76,5,42,127,414925176
100,4,4,T1_SMS_5,77,1,48,38,414933160
100,4,4,T1_SMS_5,78,5,42,127,415425020
100,4,4,T1_SMS_5,79,1,48,50,415445044
100,4,4,T1_SMS_5,80,1,48,43,415906196
100,4,4,T1_SMS_5,81,5,42,127,415924708
100,4,4,T1_SMS_5,82,5,42,127,416425232
100,4,4,T1_SMS_5,83,1,48,45,416429996
100,4,4,T1_SMS_5,84,5,42,127,416925076
100,4,4,T1_SMS_5,85,1,48,47,416964176
100,4,4,T1_SMS_5,86,5,42,127,417424700
100,4,4,T1_SMS_5,87,1,48,38,417477936
100,4,4,T1_SMS_5,88,5,42,127,417924464
100,4,4,T1_SMS_5,89,1,48,36,417993856
100,4,4,T1_SMS_5,90,5,42,127,418425132
100,4,4,T1_SMS_5,91,1,48,50,418493628
100,4,4,T1_SMS_5,92,5,42,127,418924900
100,4,4,T1_SMS_5,93,1,48,50,419028104
100,4,4,T1_SMS_5,94,5,42,127,419424596
100,4,4,T1_SMS_5,95,1,48,37,419439456
100,4,4,T1_SMS_5,96,1,48,39,419920964
100,4,4,T1_SMS_5,97,5,42,127,419925332
100,4,4,T1_SMS_5,98,5,42,127,420425032
100,4,4,T1_SMS_5,99,1,48,48,420453956
100,4,4,T1_SMS_5,100,5,42,127,420924876
100,4,4,T1_SMS_5,101,1,48,54,420950364
100,4,4,T1_SMS_5,102,5,42,127,421424348
100,4,4,T1_SMS_5,103,1,48,53,421439432
100,4,4,T1_SMS_5,104,1,48,44,421921088
100,4,4,T1_SMS_5,105,5,42,127,421925232
100,4,4,T1_SMS_5,106,1,48,50,422418284
100,4,4,T1_SMS_5,107,5,42,127,422424976
100,4,4,T1_SMS_5,108,1,48,43,422910280
100,4,4,T1_SMS_5,109,5,42,127,422924744
100,4,4,T1_SMS_5,110,1,48,52,423407956
100,4,4,T1_SMS_5,111,5,42,127,423425340
100,4,4,T1_SMS_5,112,1,48,51,423899944
100,4,4,T1_SMS_5,113,5,42,127,423925032
100,4,4,T1_SMS_5,114,1,48,51,424392232
100,4,4,T1_SMS_5,115,5,42,127,424424952
100,4,4,T1_SMS_5,116,1,48,24,424454904
100,4,4,T1_SMS_5,117,5,42,127,424924408
100,4,4,T1_SMS_5,118,1,48,48,424947424
100,4,4,T1_SMS_5,119,5,42,127,425425152
100,4,4,T1_SMS_5,120,1,48,47,425434700
100,4,4,T1_SMS_5,121,1,48,50,425913736
100,4,4,T1_SMS_5,122,5,42,127,425924840
100,4,4,T1_SMS_5,123,1,48,45,426377752
100,4,4,T1_SMS_5,124,5,42,127,426424756
100,4,4,T1_SMS_5,125,1,48,50,426907888
100,4,4,T1_SMS_5,126,5,42,127,426925868
100,4,4,T1_SMS_5,127,1,48,46,427419472
100,4,4,T1_SMS_5,128,5,42,127,427425116
100,4,4,T1_SMS_5,129,1,48,44,427919696
100,4,4,T1_SMS_5,130,5,42,127,427924888
100,4,4,T1_SMS_5,131,1,48,51,428419316
100,4,4,T1_SMS_5,132,5,42,127,428424656
100,4,4,T1_SMS_5,133,1,48,48,428919308
100,4,4,T1_SMS_5,134,5,42,127,428925248
100,4,4,T1_SMS_5,135,1,48,45,429416380
100,4,4,T1_SMS_5,136,5,42,127,429425020
100,4,4,T1_SMS_5,137,1,48,47,429909200
100,4,4,T1_SMS_5,138,5,42,127,429924712
100,4,4,T1_SMS_5,139,1,48,46,430394608
100,4,4,T1_SMS_5,140,5,42,127,430424336
100,4,4,T1_SMS_5,141,5,42,127,430925156
100,4,4,T1_SMS_5,142,1,48,50,430928576
100,4,4,T1_SMS_5,143,5,42,127,431424852
100,4,4,T1_SMS_5,144,1,48,50,431462004
100,4,4,T1_SMS_5,145,5,42,127,431924696
100,4,4,T1_SMS_5,146,1,48,44,431953172
100,4,4,T1_SMS_5,147,1,48,48,432419784
100,4,4,T1_SMS_5,148,5,42,127,432425428
100,4,4,T1_SMS_5,149,5,42,127,432925056
100,4,4,T1_SMS_5,150,1,48,44,432931244
100,4,4,T1_SMS_5,151,5,42,127,433424728
100,4,4,T1_SMS_5,152,1,48,48,433427924
100,4,4,T1_SMS_5,153,5,42,127,433924568
100,4,4,T1_SMS_5,154,1,48,45,433958456
100,4,4,T1_SMS_5,155,5,42,127,434425164
100,4,4,T1_SMS_5,156,1,48,45,434435688
100,4,4,T1_SMS_5,157,5,42,127,434924932
100,4,4,T1_SMS_5,158,1,48,41,434928656
100,4,4,T1_SMS_5,159,1,48,44,435423496
100,4,4,T1_SMS_5,160,5,42,127,435424916
100,4,4,T1_SMS_5,161,1,48,46,435919272
100,4,4,T1_SMS_5,162,5,42,127,435925512
100,4,4,T1_SMS_5,163,1,48,48,436414628
100,4,4,T1_SMS_5,164,5,42,127,436425208
100,4,4,T1_SMS_5,165,1,48,39,436909240
100,4,4,T1_SMS_5,166,5,42,127,436924976
100,4,4,T1_SMS_5,167,1,48,43,437420900
100,4,4,T1_SMS_5,168,5,42,127,437424748
100,4,4,T1_SMS_5,169,5,42,127,437925200
100,4,4,T1_SMS_5,170,1,48,47,437937744
100,4,4,T1_SMS_5,171,1,48,39,438422848
100,4,4,T1_SMS_5,172,5,42,127,438424888
100,4,4,T1_SMS_5,173,1,48,45,438912952
100,4,4,T1_SMS_5,174,5,42,127,438924956
100,4,4,T1_SMS_5,175,1,48,51,439405844
100,4,4,T1_SMS_5,176,5,42,127,439425400
100,4,4,T1_SMS_5,177,1,48,48,439914888
100,4,4,T1_SMS_5,178,5,42,127,439925096
100,4,4,T1_SMS_5,179,1,48,49,440417200
100,4,4,T1_SMS_5,180,5,42,127,440424788
100,4,4,T1_SMS_5,181,1,48,48,440896176
100,4,4,T1_SMS_5,182,5,42,127,440924856
100,4,4,T1_SMS_5,183,1,48,35,441399912
100,4,4,T1_SMS_5,184,5,42,127,441425228
100,4,4,T1_SMS_5,185,1,48,45,441900728
100,4,4,T1_SMS_5,186,5,42,127,441924920
100,4,4,T1_SMS_5,187,1,48,35,442409548
100,4,4,T1_SMS_5,188,5,42,127,442424764
100,4,4,T1_SMS_5,189,1,48,40,442896804
100,4,4,T1_SMS_5,190,5,42,127,442925356
100,4,4,T1_SMS_5,191,1,48,40,443387300
100,4,4,T1_SMS_5,192,5,42,127,443425128
100,4,4,T1_SMS_5,193,1,48,46,443895144
100,4,4,T1_SMS_5,194,5,42,127,443924944
100,4,4,T1_SMS_5,195,1,48,36,444415928
100,4,4,T1_SMS_5,196,5,42,127,444424716
100,4,4,T1_SMS_5,197,1,48,39,444879052
100,4,4,T1_SMS_5,198,5,42,127,444925456
100,4,4,T1_SMS_5,199,1,48,45,445392284
100,4,4,T1_SMS_5,200,5,42,127,445424928
100,4,4,T1_SMS_5,201,1,48,51,445902600
100,4,4,T1_SMS_5,202,5,42,127,445924772
100,4,4,T1_SMS_5,203,5,42,127,446424696
100,4,4,T1_SMS_5,204,1,48,49,446457892
100,4,4,T1_SMS_5,205,5,42,127,446925140
100,4,4,T1_SMS_5,206,1,48,54,446938512
100,4,4,T1_SMS_5,207,1,48,51,447399736
100,4,4,T1_SMS_5,208,5,42,127,447424828
100,4,4,T1_SMS_5,209,5,42,127,447924680
100,4,4,T1_SMS_5,210,1,48,54,447948000
100,4,4,T1_SMS_5,211,5,42,127,448425272
100,4,4,T1_SMS_5,212,1,48,51,448435648
100,4,4,T1_SMS_5,213,1,48,51,448908772
100,4,4,T1_SMS_5,214,5,42,127,448924960
100,4,4,T1_SMS_5,215,5,42,127,449424888
100,4,4,T1_SMS_5,216,1,48,54,449426532
100,4,4,T1_SMS_5,217,1,48,52,449919160
100,4,4,T1_SMS_5,218,5,42,127,449924648
100,4,4,T1_SMS_5,219,1,48,53,450424420
100,4,4,T1_SMS_5,220,5,42,127,450425916
100,4,4,T1_SMS_5,221,1,48,48,450915776
100,4,4,T1_SMS_5,222,5,42,127,450924936
100,4,4,T1_SMS_5,223,1,48,52,451393856
100,4,4,T1_SMS_5,224,5,42,127,451424708
100,4,4,T1_SMS_5,225,5,42,127,451925456
100,4,4,T1_SMS_5,226,1,48,48,451930372
100,4,4,T1_SMS_5,227,1,48,47,452412696
100,4,4,T1_SMS_5,228,5,42,127,452424920
100,4,4,T1_SMS_5,229,1,48,49,452901172
100,4,4,T1_SMS_5,230,5,42,127,452924836
100,4,4,T1_SMS_5,231,5,42,127,453424464
100,4,4,T1_SMS_5,232,1,48,50,453427664
100,4,4,T1_SMS_5,233,1,48,48,453919260
100,4,4,T1_SMS_5,234,5,42,127,453925352
100,4,4,T1_SMS_5,235,1,48,49,454397392
100,4,4,T1_SMS_5,236,5,42,127,454424872
100,4,4,T1_SMS_5,237,1,48,50,454911272
100,4,4,T1_SMS_5,238,5,42,127,454924540
100,4,4,T1_SMS_5,239,1,48,47,455392416
100,4,4,T1_SMS_5,240,5,42,127,455425432
100,4,4,T1_SMS_5,241,1,48,50,455903480
100,4,4,T1_SMS_5,242,5,42,127,455925128
100,4,4,T1_SMS_5,243,1,48,46,456416492
100,4,4,T1_SMS_5,244,5,42,127,456424676
100,4,4,T1_SMS_5,245,1,48,50,456907812
100,4,4,T1_SMS_5,246,5,42,127,456924448
100,4,4,T1_SMS_5,247,1,48,49,457415732
100,4,4,T1_SMS_5,248,5,42,127,457425412
100,4,4,T1_SMS_5,249,5,42,127,457924964
100,4,4,T1_SMS_5,250,1,48,53,457926004
100,4,4,T1_SMS_5,251,5,42,127,458424584
100,4,4,T1_SMS_5,252,1,48,51,458428228
100,4,4,T1_SMS_5,253,1,48,51,458898956
100,4,4,T1_SMS_5,254,5,42,127,458925468
100,4,4,T1_SMS_5,255,1,48,45,459417728
100,4,4,T1_SMS_5,256,5,42,127,459425236
100,4,4,T1_SMS_5,0,9999,9999,9999,394923100
100,4,4,T1_SMS_5,1,9999,9999,9999,395422816
100,4,4,T1_SMS_5,2,9999,9999,9999,395922532
100,4,4,T1_SMS_5,3,9999,9999,9999,396422248
100,4,4,T1_SMS_5,4,9999,9999,9999,396922936
100,4,4,T1_SMS_5,5,9999,9999,9999,397422704
100,4,4,T1_SMS_5,6,9999,9999,9999,397922392
100,4,4,T1_SMS_5,7,9999,9999,9999,398422088
100,4,4,T1_SMS_5,8,9999,9999,9999,398922832
100,4,4,T1_SMS_5,9,9999,9999,9999,399422528
100,4,4,T1_SMS_5,10,9999,9999,9999,399922296
100,4,4,T1_SMS_5,11,9999,9999,9999,400422964
100,4,4,T1_SMS_5,12,9999,9999,9999,400922708
100,4,4,T1_SMS_5,13,9999,9999,9999,401422396
100,4,4,T1_SMS_5,14,9999,9999,9999,401922164
100,4,4,T1_SMS_5,15,9999,9999,9999,402422836
100,4,4,T1_SMS_5,16,9999,9999,9999,402922604
100,4,4,T1_SMS_5,17,9999,9999,9999,403422300
100,4,4,T1_SMS_5,18,9999,9999,9999,403923040
100,4,4,T1_SMS_5,19,9999,9999,9999,404422740
100,4,4,T1_SMS_5,20,9999,9999,9999,404922432
100,4,4,T1_SMS_5,21,9999,9999,9999,405422200
100,4,4,T1_SMS_5,22,9999,9999,9999,405922864
100,4,4,T1_SMS_5,23,9999,9999,9999,406422636
100,4,4,T1_SMS_5,24,9999,9999,9999,406922332
100,4,4,T1_SMS_5,25,9999,9999,9999,407423080
100,4,4,T1_SMS_5,26,9999,9999,9999,407922772
100,4,4,T1_SMS_5,27,9999,9999,9999,408422460
100,4,4,T1_SMS_5,28,9999,9999,9999,408922232
100,4,4,T1_SMS_5,29,9999,9999,9999,409422904
100,4,4,T1_SMS_5,30,9999,9999,9999,409922672
100,4,4,T1_SMS_5,31,9999,9999,9999,410422368
100,4,4,T1_SMS_5,32,9999,9999,9999,410923108
100,4,4,T1_SMS_5,33,9999,9999,9999,411422800
100,4,4,T1_SMS_5,34,9999,9999,9999,411922548
100,4,4,T1_SMS_5,35,9999,9999,9999,412422240
100,4,4,T1_SMS_5,36,9999,9999,9999,412922980
100,4,4,T1_SMS_5,37,9999,9999,9999,413422684
100,4,4,T1_SMS_5,38,9999,9999,9999,413922380
100,4,4,T1_SMS_5,39,9999,9999,9999,414422072
100,4,4,T1_SMS_5,40,9999,9999,9999,414922812
100,4,4,T1_SMS_5,41,9999,9999,9999,415422584
100,4,4,T1_SMS_5,42,9999,9999,9999,415922272
100,4,4,T1_SMS_5,43,9999,9999,9999,416423020
100,4,4,T1_SMS_5,44,9999,9999,9999,416922716
100,4,4,T1_SMS_5,45,9999,9999,9999,417422412
100,4,4,T1_SMS_5,46,9999,9999,9999,417922104
100,4,4,T1_SMS_5,47,9999,9999,9999,418422844
100,4,4,T1_SMS_5,48,9999,9999,9999,418922616
100,4,4,T1_SMS_5,49,9999,9999,9999,419422308
100,4,4,T1_SMS_5,50,9999,9999,9999,419923044
100,4,4,T1_SMS_5,51,9999,9999,9999,420422744
100,4,4,T1_SMS_5,52,9999,9999,9999,420922440
100,4,4,T1_SMS_5,53,9999,9999,9999,421422136
100,4,4,T1_SMS_5,54,9999,9999,9999,421922872
100,4,4,T1_SMS_5,55,9999,9999,9999,422422616
100,4,4,T1_SMS_5,56,9999,9999,9999,422922312
100,4,4,T1_SMS_5,57,9999,9999,9999,423423052
100,4,4,T1_SMS_5,58,9999,9999,9999,423922748
100,4,4,T1_SMS_5,59,9999,9999,9999,424422516
100,4,4,T1_SMS_5,60,9999,9999,9999,424922196
100,4,4,T1_SMS_5,61,9999,9999,9999,425422936
100,4,4,T1_SMS_5,62,9999,9999,9999,425922628
100,4,4,T1_SMS_5,63,9999,9999,9999,426422320
100,4,4,T1_SMS_5,64,9999,9999,9999,426923060
100,4,4,T1_SMS_5,65,9999,9999,9999,427422832
100,4,4,T1_SMS_5,66,9999,9999,9999,427922528
100,4,4,T1_SMS_5,67,9999,9999,9999,428422220
100,4,4,T1_SMS_5,68,9999,9999,9999,428922964
100,4,4,T1_SMS_5,69,9999,9999,9999,429422656
100,4,4,T1_SMS_5,70,9999,9999,9999,429922352
100,4,4,T1_SMS_5,71,9999,9999,9999,430422124
100,4,4,T1_SMS_5,72,9999,9999,9999,430922868
100,4,4,T1_SMS_5,73,9999,9999,9999,431422564
100,4,4,T1_SMS_5,74,9999,9999,9999,431922260
100,4,4,T1_SMS_5,75,9999,9999,9999,432422992
100,4,4,T1_SMS_5,76,9999,9999,9999,432922744
100,4,4,T1_SMS_5,77,9999,9999,9999,433422440
100,4,4,T1_SMS_5,78,9999,9999,9999,433922136
100,4,4,T1_SMS_5,79,9999,9999,9999,434422876
100,4,4,T1_SMS_5,80,9999,9999,9999,434922572
100,4,4,T1_SMS_5,81,9999,9999,9999,435422264
100,4,4,T1_SMS_5,82,9999,9999,9999,435923000
100,4,4,T1_SMS_5,83,9999,9999,9999,436422772
100,4,4,T1_SMS_5,84,9999,9999,9999,436922468
100,4,4,T1_SMS_5,85,9999,9999,9999,437422164
100,4,4,T1_SMS_5,86,9999,9999,9999,437922912
100,4,4,T1_SMS_5,87,9999,9999,9999,438422640
100,4,4,T1_SMS_5,88,9999,9999,9999,438922296
100,4,4,T1_SMS_5,89,9999,9999,9999,439423040
100,4,4,T1_SMS_5,90,9999,9999,9999,439922808
100,4,4,T1_SMS_5,91,9999,9999,9999,440422504
100,4,4,T1_SMS_5,92,9999,9999,9999,440922200
100,4,4,T1_SMS_5,93,9999,9999,9999,441422940
100,4,4,T1_SMS_5,94,9999,9999,9999,441922636
100,4,4,T1_SMS_5,95,9999,9999,9999,442422332
100,4,4,T1_SMS_5,96,9999,9999,9999,442923072
100,4,4,T1_SMS_5,97,9999,9999,9999,443422840
100,4,4,T1_SMS_5,98,9999,9999,9999,443922512
100,4,4,T1_SMS_5,99,9999,9999,9999,444422204
100,4,4,T1_SMS_5,100,9999,9999,9999,444922948
100,4,4,T1_SMS_5,101,9999,9999,9999,445422644
100,4,4,T1_SMS_5,102,9999,9999,9999,445922412
100,4,4,T1_SMS_5,103,9999,9999,9999,446422112
100,4,4,T1_SMS_5,104,9999,9999,9999,446922856
100,4,4,T1_SMS_5,105,9999,9999,9999,447422544
100,4,4,T1_SMS_5,106,9999,9999,9999,447922244
100,4,4,T1_SMS_5,107,9999,9999,9999,448422988
100,4,4,T1_SMS_5,108,9999,9999,9999,448922676
100,4,4,T1_SMS_5,109,9999,9999,9999,449422452
100,4,4,T1_SMS_5,110,9999,9999,9999,449922140
100,4,4,T1_SMS_5,111,9999,9999,9999,450422888
100,4,4,T1_SMS_5,112,9999,9999,9999,450922576
100,4,4,T1_SMS_5,113,9999,9999,9999,451422272
100,4,4,T1_SMS_5,114,9999,9999,9999,451923020
100,4,4,T1_SMS_5,115,9999,9999,9999,452422708
100,4,4,T1_SMS_5,116,9999,9999,9999,452922476
100,4,4,T1_SMS_5,117,9999,9999,9999,453422180
100,4,4,T1_SMS_5,118,9999,9999,9999,453922916
100,4,4,T1_SMS_5,119,9999,9999,9999,454422588
100,4,4,T1_SMS_5,120,9999,9999,9999,454922332
100,4,4,T1_SMS_5,121,9999,9999,9999,455423072
100,4,4,T1_SMS_5,122,9999,9999,9999,455922768
100,4,4,T1_SMS_5,123,9999,9999,9999,456422464
100,4,4,T1_SMS_5,124,9999,9999,9999,456922160
100,4,4,T1_SMS_5,125,9999,9999,9999,457422904
100,4,4,T1_SMS_5,126,9999,9999,9999,457922676
100,4,4,T1_SMS_5,127,9999,9999,9999,458422372
100,4,4,T1_SMS_5,128,9999,9999,9999,458923108
100,4,4,T1_SMS_5,129,9999,9999,9999,459422800
100,5,9,Ticks_ISO_T2_8,0,5,42,127,470589760
100,5,9,Ticks_ISO_T2_8,1,5,42,127,471389588
100,5,9,Ticks_ISO_T2_8,2,5,42,127,472190464
100,5,9,Ticks_ISO_T2_8,3,5,42,127,472990000
100,5,9,Ticks_ISO_T2_8,4,5,42,127,473789900
100,5,9,Ticks_ISO_T2_8,5,1,48,56,473791460
100,5,9,Ticks_ISO_T2_8,6,1,48,55,474555260
100,5,9,Ticks_ISO_T2_8,7,5,42,127,474589480
100,5,9,Ticks_ISO_T2_8,8,1,48,48,475340112
100,5,9,Ticks_ISO_T2_8,9,5,42,127,475390184
100,5,9,Ticks_ISO_T2_8,10,1,48,55,476159368
100,5,9,Ticks_ISO_T2_8,11,5,42,127,476190240
100,5,9,Ticks_ISO_T2_8,12,1,48,57,476919156
100,5,9,Ticks_ISO_T2_8,13,5,42,127,476989828
100,5,9,Ticks_ISO_T2_8,14,1,48,57,477767608
100,5,9,Ticks_ISO_T2_8,15,5,42,127,477789408
100,5,9,Ticks_ISO_T2_8,16,1,48,54,478577440
100,5,9,Ticks_ISO_T2_8,17,5,42,127,478590192
100,5,9,Ticks_ISO_T2_8,18,5,42,127,479390228
100,5,9,Ticks_ISO_T2_8,19,1,48,44,479398288
100,5,9,Ticks_ISO_T2_8,20,1,48,40,480158060
100,5,9,Ticks_ISO_T2_8,21,5,42,127,480189884
100,5,9,Ticks_ISO_T2_8,22,5,42,127,480989476
100,5,9,Ticks_ISO_T2_8,23,1,48,44,480997828
100,5,9,Ticks_ISO_T2_8,24,1,48,40,481766728
100,5,9,Ticks_ISO_T2_8,25,5,42,127,481790172
100,5,9,Ticks_ISO_T2_8,26,1,48,51,482570652
100,5,9,Ticks_ISO_T2_8,27,5,42,127,482590156
100,5,9,Ticks_ISO_T2_8,28,1,48,49,483370780
100,5,9,Ticks_ISO_T2_8,29,5,42,127,483389812
100,5,9,Ticks_ISO_T2_8,30,1,48,55,484129596
100,5,9,Ticks_ISO_T2_8,31,5,42,127,484189548
100,5,9,Ticks_ISO_T2_8,32,1,48,45,484971072
100,5,9,Ticks_ISO_T2_8,33,5,42,127,484990180
100,5,9,Ticks_ISO_T2_8,34,1,48,36,485768784
100,5,9,Ticks_ISO_T2_8,35,5,42,127,485790136
100,5,9,Ticks_ISO_T2_8,36,1,48,46,486543980
100,5,9,Ticks_ISO_T2_8,37,5,42,127,486589720
100,5,9,Ticks_ISO_T2_8,38,1,48,45,487362940
100,5,9,Ticks_ISO_T2_8,39,5,42,127,487389528
100,5,9,Ticks_ISO_T2_8,40,1,48,45,488188192
100,5,9,Ticks_ISO_T2_8,41,5,42,127,488190232
100,5,9,Ticks_ISO_T2_8,42,1,48,47,488965772
100,5,9,Ticks_ISO_T2_8,43,5,42,127,488989992
100,5,9,Ticks_ISO_T2_8,44,1,48,45,489753412
100,5,9,Ticks_ISO_T2_8,45,5,42,127,489789948
100,5,9,Ticks_ISO_T2_8,46,1,48,44,490583368
100,5,9,Ticks_ISO_T2_8,47,5,42,127,490589536
100,5,9,Ticks_ISO_T2_8,48,1,48,47,491356548
100,5,9,Ticks_ISO_T2_8,49,5,42,127,491390240
100,5,9,Ticks_ISO_T2_8,50,1,48,46,492175432
100,5,9,Ticks_ISO_T2_8,51,5,42,127,492190124
100,5,9,Ticks_ISO_T2_8,52,5,42,127,492989792
100,5,9,Ticks_ISO_T2_8,53,1,48,40,493003456
100,5,9,Ticks_ISO_T2_8,54,1,48,44,493765244
100,5,9,Ticks_ISO_T2_8,55,5,42,127,493789516
100,5,9,Ticks_ISO_T2_8,56,5,42,127,494590380
100,5,9,Ticks_ISO_T2_8,57,1,48,45,494597616
100,5,9,Ticks_ISO_T2_8,58,5,42,127,495389988
100,5,9,Ticks_ISO_T2_8,59,1,48,46,495426992
100,5,9,Ticks_ISO_T2_8,60,5,42,127,496189872
100,5,9,Ticks_ISO_T2_8,61,1,48,48,496209072
100,5,9,Ticks_ISO_T2_8,62,1,48,43,496977448
100,5,9,Ticks_ISO_T2_8,63,5,42,127,496989524
100,5,9,Ticks_ISO_T2_8,64,1,48,44,497730584
100,5,9,Ticks_ISO_T2_8,65,5,42,127,497790380
100,5,9,Ticks_ISO_T2_8,66,1,48,50,498560460
100,5,9,Ticks_ISO_T2_8,67,5,42,127,498590040
100,5,9,Ticks_ISO_T2_8,68,1,48,52,499363184
100,5,9,Ticks_ISO_T2_8,69,5,42,127,499389844
100,5,9,Ticks_ISO_T2_8,70,1,48,21,499459148
100,5,9,Ticks_ISO_T2_8,71,5,42,127,500189488
100,5,9,Ticks_ISO_T2_8,72,1,48,48,500191500
100,5,9,Ticks_ISO_T2_8,73,5,42,127,500990416
100,5,9,Ticks_ISO_T2_8,74,1,48,47,501023328
100,5,9,Ticks_ISO_T2_8,75,5,42,127,501790028
100,5,9,Ticks_ISO_T2_8,76,1,48,40,501801304
100,5,9,Ticks_ISO_T2_8,77,1,48,46,502563024
100,5,9,Ticks_ISO_T2_8,78,5,42,127,502590056
100,5,9,Ticks_ISO_T2_8,79,5,42,127,503389424
100,5,9,Ticks_ISO_T2_8,80,1,48,24,503410044
100,5,9,Ticks_ISO_T2_8,81,5,42,127,504190352
100,5,9,Ticks_ISO_T2_8,82,1,48,50,504216812
100,5,9,Ticks_ISO_T2_8,83,1,48,57,504979652
100,5,9,Ticks_ISO_T2_8,84,5,42,127,504990004
100,5,9,Ticks_ISO_T2_8,85,5,42,127,505790040
100,5,9,Ticks_ISO_T2_8,86,1,48,49,505797952
100,5,9,Ticks_ISO_T2_8,87,5,42,127,506589628
100,5,9,Ticks_ISO_T2_8,88,1,48,45,506607036
100,5,9,Ticks_ISO_T2_8,89,5,42,127,507390184
100,5,9,Ticks_ISO_T2_8,90,1,48,50,507404892
100,5,9,Ticks_ISO_T2_8,91,1,48,47,508174692
100,5,9,Ticks_ISO_T2_8,92,5,42,127,508190012
100,5,9,Ticks_ISO_T2_8,93,1,48,45,508986720
100,5,9,Ticks_ISO_T2_8,94,5,42,127,508990040
100,5,9,Ticks_ISO_T2_8,95,1,48,58,509786072
100,5,9,Ticks_ISO_T2_8,96,5,42,127,509789480
100,5,9,Ticks_ISO_T2_8,97,5,42,127,510590192
100,5,9,Ticks_ISO_T2_8,98,1,48,44,510609016
100,5,9,Ticks_ISO_T2_8,99,5,42,127,511389996
100,5,9,Ticks_ISO_T2_8,100,1,48,41,511393340
100,5,9,Ticks_ISO_T2_8,101,1,48,40,512173460
100,5,9,Ticks_ISO_T2_8,102,5,42,127,512190024
100,5,9,Ticks_ISO_T2_8,103,1,48,43,512972896
100,5,9,Ticks_ISO_T2_8,104,5,42,127,512989832
100,5,9,Ticks_ISO_T2_8,105,5,42,127,513790396
100,5,9,Ticks_ISO_T2_8,106,1,48,34,513794932
100,5,9,Ticks_ISO_T2_8,107,1,48,45,514582160
100,5,9,Ticks_ISO_T2_8,108,5,42,127,514589924
100,5,9,Ticks_ISO_T2_8,109,5,42,127,515389740
100,5,9,Ticks_ISO_T2_8,110,1,48,46,515405492
100,5,9,Ticks_ISO_T2_8,111,1,48,42,516159516
100,5,9,Ticks_ISO_T2_8,112,5,42,127,516189764
100,5,9,Ticks_ISO_T2_8,113,5,42,127,516990324
100,5,9,Ticks_ISO_T2_8,114,1,48,49,516991364
100,5,9,Ticks_ISO_T2_8,115,1,48,56,517785304
100,5,9,Ticks_ISO_T2_8,116,5,42,127,517790128
100,5,9,Ticks_ISO_T2_8,117,1,48,46,518572400
100,5,9,Ticks_ISO_T2_8,118,5,42,127,518589788
100,5,9,Ticks_ISO_T2_8,119,1,48,51,519378640
100,5,9,Ticks_ISO_T2_8,120,5,42,127,519389668
100,5,9,Ticks_ISO_T2_8,121,1,48,48,520182484
100,5,9,Ticks_ISO_T2_8,122,5,42,127,520190224
100,5,9,Ticks_ISO_T2_8,123,5,42,127,520989916
100,5,9,Ticks_ISO_T2_8,124,1,48,49,520993480
100,5,9,Ticks_ISO_T2_8,125,5,42,127,521789796
100,5,9,Ticks_ISO_T2_8,126,1,48,48,521848564
100,5,9,Ticks_ISO_T2_8,127,5,42,127,522589680
100,5,9,Ticks_ISO_T2_8,128,1,48,50,522607764
100,5,9,Ticks_ISO_T2_8,129,1,48,54,523381072
100,5,9,Ticks_ISO_T2_8,130,5,42,127,523390452
100,5,9,Ticks_ISO_T2_8,131,1,48,48,524154624
100,5,9,Ticks_ISO_T2_8,132,5,42,127,524190112
100,5,9,Ticks_ISO_T2_8,133,1,48,52,524921672
100,5,9,Ticks_ISO_T2_8,134,5,42,127,524989772
100,5,9,Ticks_ISO_T2_8,135,1,48,48,525778404
100,5,9,Ticks_ISO_T2_8,136,5,42,127,525789580
100,5,9,Ticks_ISO_T2_8,137,5,42,127,526590588
100,5,9,Ticks_ISO_T2_8,138,1,48,56,526595652
100,5,9,Ticks_ISO_T2_8,139,5,42,127,527389976
100,5,9,Ticks_ISO_T2_8,140,1,48,48,527449568
100,5,9,Ticks_ISO_T2_8,141,5,42,127,528189708
100,5,9,Ticks_ISO_T2_8,142,1,48,48,528192680
100,5,9,Ticks_ISO_T2_8,143,1,48,51,528969132
100,5,9,Ticks_ISO_T2_8,144,5,42,127,528989512
100,5,9,Ticks_ISO_T2_8,145,1,48,48,529765120
100,5,9,Ticks_ISO_T2_8,146,5,42,127,529790292
100,5,9,Ticks_ISO_T2_8,147,1,48,53,530539732
100,5,9,Ticks_ISO_T2_8,148,5,42,127,530590028
100,5,9,Ticks_ISO_T2_8,149,1,48,46,531362124
100,5,9,Ticks_ISO_T2_8,150,5,42,127,531389832
100,5,9,Ticks_ISO_T2_8,151,1,48,44,532149668
100,5,9,Ticks_ISO_T2_8,152,5,42,127,532189492
100,5,9,Ticks_ISO_T2_8,153,1,48,39,532957924
100,5,9,Ticks_ISO_T2_8,154,5,42,127,532990568
100,5,9,Ticks_ISO_T2_8,155,5,42,127,533790184
100,5,9,Ticks_ISO_T2_8,156,1,48,48,533797568
100,5,9,Ticks_ISO_T2_8,157,5,42,127,534589848
100,5,9,Ticks_ISO_T2_8,158,1,48,51,534616528
100,5,9,Ticks_ISO_T2_8,159,1,48,47,535372036
100,5,9,Ticks_ISO_T2_8,160,5,42,127,535389648
100,5,9,Ticks_ISO_T2_8,161,1,48,45,536170420
100,5,9,Ticks_ISO_T2_8,162,5,42,127,536190428
100,5,9,Ticks_ISO_T2_8,163,1,48,52,536920192
100,5,9,Ticks_ISO_T2_8,164,5,42,127,536990460
100,5,9,Ticks_ISO_T2_8,165,1,48,52,537683868
100,5,9,Ticks_ISO_T2_8,166,5,42,127,537789728
100,5,9,Ticks_ISO_T2_8,167,1,48,48,538535364
100,5,9,Ticks_ISO_T2_8,168,5,42,127,538589628
100,5,9,Ticks_ISO_T2_8,169,1,48,44,539360828
100,5,9,Ticks_ISO_T2_8,170,5,42,127,539390332
100,5,9,Ticks_ISO_T2_8,171,5,42,127,540189948
100,5,9,Ticks_ISO_T2_8,172,1,48,52,540233304
100,5,9,Ticks_ISO_T2_8,173,5,42,127,540989684
100,5,9,Ticks_ISO_T2_8,174,1,48,39,541002300
100,5,9,Ticks_ISO_T2_8,175,5,42,127,541789636
100,5,9,Ticks_ISO_T2_8,176,1,48,38,541793728
100,5,9,Ticks_ISO_T2_8,177,1,48,45,542572580
100,5,9,Ticks_ISO_T2_8,178,5,42,127,542590412
100,5,9,Ticks_ISO_T2_8,179,1,48,43,543332216
100,5,9,Ticks_ISO_T2_8,180,5,42,127,543389924
100,5,9,Ticks_ISO_T2_8,181,1,48,37,544159700
100,5,9,Ticks_ISO_T2_8,182,5,42,127,544189732
100,5,9,Ticks_ISO_T2_8,183,1,48,41,544972448
100,5,9,Ticks_ISO_T2_8,184,5,42,127,544989540
100,5,9,Ticks_ISO_T2_8,185,5,42,127,545790400
100,5,9,Ticks_ISO_T2_8,186,1,48,42,545791736
100,5,9,Ticks_ISO_T2_8,187,1,48,37,546586300
100,5,9,Ticks_ISO_T2_8,188,5,42,127,546590004
100,5,9,Ticks_ISO_T2_8,189,1,48,37,547385512
100,5,9,Ticks_ISO_T2_8,190,5,42,127,547389808
100,5,9,Ticks_ISO_T2_8,191,1,48,42,548183600
100,5,9,Ticks_ISO_T2_8,192,5,42,127,548189468
100,5,9,Ticks_ISO_T2_8,193,5,42,127,548990256
100,5,9,Ticks_ISO_T2_8,194,1,48,43,548995320
100,5,9,Ticks_ISO_T2_8,195,1,48,45,549770724
100,5,9,Ticks_ISO_T2_8,196,5,42,127,549790132
100,5,9,Ticks_ISO_T2_8,197,5,42,127,550589944
100,5,9,Ticks_ISO_T2_8,198,1,48,41,550630236
100,5,9,Ticks_ISO_T2_8,199,1,48,43,551380288
100,5,9,Ticks_ISO_T2_8,200,5,42,127,551389520
100,5,9,Ticks_ISO_T2_8,201,1,48,41,552148236
100,5,9,Ticks_ISO_T2_8,202,5,42,127,552190452
100,5,9,Ticks_ISO_T2_8,203,1,48,42,552986208
100,5,9,Ticks_ISO_T2_8,204,5,42,127,552990060
100,5,9,Ticks_ISO_T2_8,205,5,42,127,553789800
100,5,9,Ticks_ISO_T2_8,206,1,48,48,553794864
100,5,9,Ticks_ISO_T2_8,207,5,42,127,554589608
100,5,9,Ticks_ISO_T2_8,208,1,48,45,554605964
100,5,9,Ticks_ISO_T2_8,209,5,42,127,555390388
100,5,9,Ticks_ISO_T2_8,210,1,48,36,555414300
100,5,9,Ticks_ISO_T2_8,211,5,42,127,556190196
100,5,9,Ticks_ISO_T2_8,212,1,48,36,556198256
100,5,9,Ticks_ISO_T2_8,213,1,48,42,556965428
100,5,9,Ticks_ISO_T2_8,214,5,42,127,556989848
100,5,9,Ticks_ISO_T2_8,215,1,48,47,557770696
100,5,9,Ticks_ISO_T2_8,216,5,42,127,557789584
100,5,9,Ticks_ISO_T2_8,217,1,48,45,558539764
100,5,9,Ticks_ISO_T2_8,218,5,42,127,558590288
100,5,9,Ticks_ISO_T2_8,219,1,48,41,559383956
100,5,9,Ticks_ISO_T2_8,220,5,42,127,559390344
100,5,9,Ticks_ISO_T2_8,221,1,48,41,560157064
100,5,9,Ticks_ISO_T2_8,222,5,42,127,560189780
100,5,9,Ticks_ISO_T2_8,223,5,42,127,560989596
100,5,9,Ticks_ISO_T2_8,224,1,48,36,561005428
100,5,9,Ticks_ISO_T2_8,225,1,48,41,561784576
100,5,9,Ticks_ISO_T2_8,226,5,42,127,561790296
100,5,9,Ticks_ISO_T2_8,227,1,48,41,562589436
100,5,9,Ticks_ISO_T2_8,228,5,42,127,562591076
100,5,9,Ticks_ISO_T2_8,229,1,48,42,563376716
100,5,9,Ticks_ISO_T2_8,230,5,42,127,563389764
100,5,9,Ticks_ISO_T2_8,231,1,48,35,564188224
100,5,9,Ticks_ISO_T2_8,232,5,42,127,564189720
100,5,9,Ticks_ISO_T2_8,233,5,42,127,564990288
100,5,9,Ticks_ISO_T2_8,234,1,48,39,565001412
100,5,9,Ticks_ISO_T2_8,235,1,48,30,565777112
100,5,9,Ticks_ISO_T2_8,236,5,42,127,565790260
100,5,9,Ticks_ISO_T2_8,0,9999,9999,9999,470587472
100,5,9,Ticks_ISO_T2_8,1,9999,9999,9999,471387224
100,5,9,Ticks_ISO_T2_8,2,9999,9999,9999,472187956
100,5,9,Ticks_ISO_T2_8,3,9999,9999,9999,472987708
100,5,9,Ticks_ISO_T2_8,4,9999,9999,9999,473787464
100,5,9,Ticks_ISO_T2_8,5,9999,9999,9999,474587192
100,5,9,Ticks_ISO_T2_8,6,9999,9999,9999,475387972
100,5,9,Ticks_ISO_T2_8,7,9999,9999,9999,476187728
100,5,9,Ticks_ISO_T2_8,8,9999,9999,9999,476987464
100,5,9,Ticks_ISO_T2_8,9,9999,9999,9999,477787196
100,5,9,Ticks_ISO_T2_8,10,9999,9999,9999,478587976
100,5,9,Ticks_ISO_T2_8,11,9999,9999,9999,479387716
100,5,9,Ticks_ISO_T2_8,12,9999,9999,9999,480187444
100,5,9,Ticks_ISO_T2_8,13,9999,9999,9999,480987188
100,5,9,Ticks_ISO_T2_8,14,9999,9999,9999,481787960
100,5,9,Ticks_ISO_T2_8,15,9999,9999,9999,482587720
100,5,9,Ticks_ISO_T2_8,16,9999,9999,9999,483387452
100,5,9,Ticks_ISO_T2_8,17,9999,9999,9999,484187184
100,5,9,Ticks_ISO_T2_8,18,9999,9999,9999,484987964
100,5,9,Ticks_ISO_T2_8,19,9999,9999,9999,485787696
100,5,9,Ticks_ISO_T2_8,20,9999,9999,9999,486587504
100,5,9,Ticks_ISO_T2_8,21,9999,9999,9999,487387240
100,5,9,Ticks_ISO_T2_8,22,9999,9999,9999,488187984
100,5,9,Ticks_ISO_T2_8,23,9999,9999,9999,488987704
100,5,9,Ticks_ISO_T2_8,24,9999,9999,9999,489787512
100,5,9,Ticks_ISO_T2_8,25,9999,9999,9999,490587248
100,5,9,Ticks_ISO_T2_8,26,9999,9999,9999,491387952
100,5,9,Ticks_ISO_T2_8,27,9999,9999,9999,492187760
100,5,9,Ticks_ISO_T2_8,28,9999,9999,9999,492987504
100,5,9,Ticks_ISO_T2_8,29,9999,9999,9999,493787228
100,5,9,Ticks_ISO_T2_8,30,9999,9999,9999,494588016
100,5,9,Ticks_ISO_T2_8,31,9999,9999,9999,495387700
100,5,9,Ticks_ISO_T2_8,32,9999,9999,9999,496187508
100,5,9,Ticks_ISO_T2_8,33,9999,9999,9999,496987236
100,5,9,Ticks_ISO_T2_8,34,9999,9999,9999,497788016
100,5,9,Ticks_ISO_T2_8,35,9999,9999,9999,498587752
100,5,9,Ticks_ISO_T2_8,36,9999,9999,9999,499387484
100,5,9,Ticks_ISO_T2_8,37,9999,9999,9999,500187200
100,5,9,Ticks_ISO_T2_8,38,9999,9999,9999,500987980
100,5,9,Ticks_ISO_T2_8,39,9999,9999,9999,501787740
100,5,9,Ticks_ISO_T2_8,40,9999,9999,9999,502587472
100,5,9,Ticks_ISO_T2_8,41,9999,9999,9999,503387208
100,5,9,Ticks_ISO_T2_8,42,9999,9999,9999,504187988
100,5,9,Ticks_ISO_T2_8,43,9999,9999,9999,504987716
100,5,9,Ticks_ISO_T2_8,44,9999,9999,9999,505787456
100,5,9,Ticks_ISO_T2_8,45,9999,9999,9999,506587192
100,5,9,Ticks_ISO_T2_8,46,9999,9999,9999,507387972
100,5,9,Ticks_ISO_T2_8,47,9999,9999,9999,508187724
100,5,9,Ticks_ISO_T2_8,48,9999,9999,9999,508987456
100,5,9,Ticks_ISO_T2_8,49,9999,9999,9999,509787188
100,5,9,Ticks_ISO_T2_8,50,9999,9999,9999,510587976
100,5,9,Ticks_ISO_T2_8,51,9999,9999,9999,511387708
100,5,9,Ticks_ISO_T2_8,52,9999,9999,9999,512187440
100,5,9,Ticks_ISO_T2_8,53,9999,9999,9999,512987248
100,5,9,Ticks_ISO_T2_8,54,9999,9999,9999,513787956
100,5,9,Ticks_ISO_T2_8,55,9999,9999,9999,514587708
100,5,9,Ticks_ISO_T2_8,56,9999,9999,9999,515387452
100,5,9,Ticks_ISO_T2_8,57,9999,9999,9999,516187252
100,5,9,Ticks_ISO_T2_8,58,9999,9999,9999,516987964
100,5,9,Ticks_ISO_T2_8,59,9999,9999,9999,517787764
100,5,9,Ticks_ISO_T2_8,60,9999,9999,9999,518587500
100,5,9,Ticks_ISO_T2_8,61,9999,9999,9999,519387232
100,5,9,Ticks_ISO_T2_8,62,9999,9999,9999,520188012
100,5,9,Ticks_ISO_T2_8,63,9999,9999,9999,520987704
100,5,9,Ticks_ISO_T2_8,64,9999,9999,9999,521787508
100,5,9,Ticks_ISO_T2_8,65,9999,9999,9999,522587244
100,5,9,Ticks_ISO_T2_8,66,9999,9999,9999,523388016
100,5,9,Ticks_ISO_T2_8,67,9999,9999,9999,524187752
100,5,9,Ticks_ISO_T2_8,68,9999,9999,9999,524987488
100,5,9,Ticks_ISO_T2_8,69,9999,9999,9999,525787220
100,5,9,Ticks_ISO_T2_8,70,9999,9999,9999,526588004
100,5,9,Ticks_ISO_T2_8,71,9999,9999,9999,527387760
100,5,9,Ticks_ISO_T2_8,72,9999,9999,9999,528187496
100,5,9,Ticks_ISO_T2_8,73,9999,9999,9999,528987224
100,5,9,Ticks_ISO_T2_8,74,9999,9999,9999,529788004
100,5,9,Ticks_ISO_T2_8,75,9999,9999,9999,530587740
100,5,9,Ticks_ISO_T2_8,76,9999,9999,9999,531387472
100,5,9,Ticks_ISO_T2_8,77,9999,9999,9999,532187204
100,5,9,Ticks_ISO_T2_8,78,9999,9999,9999,532987984
100,5,9,Ticks_ISO_T2_8,79,9999,9999,9999,533787748
100,5,9,Ticks_ISO_T2_8,80,9999,9999,9999,534587484
100,5,9,Ticks_ISO_T2_8,81,9999,9999,9999,535387212
100,5,9,Ticks_ISO_T2_8,82,9999,9999,9999,536187992
100,5,9,Ticks_ISO_T2_8,83,9999,9999,9999,536987724
100,5,9,Ticks_ISO_T2_8,84,9999,9999,9999,537787440
100,5,9,Ticks_ISO_T2_8,85,9999,9999,9999,538587192
100,5,9,Ticks_ISO_T2_8,86,9999,9999,9999,539387968
100,5,9,Ticks_ISO_T2_8,87,9999,9999,9999,540187736
100,5,9,Ticks_ISO_T2_8,88,9999,9999,9999,540987468
100,5,9,Ticks_ISO_T2_8,89,9999,9999,9999,541787200
100,5,9,Ticks_ISO_T2_8,90,9999,9999,9999,542587976
100,5,9,Ticks_ISO_T2_8,91,9999,9999,9999,543387708
100,5,9,Ticks_ISO_T2_8,92,9999,9999,9999,544187444
100,5,9,Ticks_ISO_T2_8,93,9999,9999,9999,544987252
100,5,9,Ticks_ISO_T2_8,94,9999,9999,9999,545787964
100,5,9,Ticks_ISO_T2_8,95,9999,9999,9999,546587716
100,5,9,Ticks_ISO_T2_8,96,9999,9999,9999,547387448
100,5,9,Ticks_ISO_T2_8,97,9999,9999,9999,548187256
100,5,9,Ticks_ISO_T2_8,98,9999,9999,9999,548987968
100,5,9,Ticks_ISO_T2_8,99,9999,9999,9999,549787692
100,5,9,Ticks_ISO_T2_8,100,9999,9999,9999,550587508
100,5,9,Ticks_ISO_T2_8,101,9999,9999,9999,551387232
100,5,9,Ticks_ISO_T2_8,102,9999,9999,9999,552188012
100,5,9,Ticks_ISO_T2_8,103,9999,9999,9999,552987700
100,5,9,Ticks_ISO_T2_8,104,9999,9999,9999,553787440
100,5,9,Ticks_ISO_T2_8,105,9999,9999,9999,554587248
100,5,9,Ticks_ISO_T2_8,106,9999,9999,9999,555387952
100,5,9,Ticks_ISO_T2_8,107,9999,9999,9999,556187760
100,5,9,Ticks_ISO_T2_8,108,9999,9999,9999,556987488
100,5,9,Ticks_ISO_T2_8,109,9999,9999,9999,557787220
100,5,9,Ticks_ISO_T2_8,110,9999,9999,9999,558588000
100,5,9,Ticks_ISO_T2_8,111,9999,9999,9999,559387760
100,5,9,Ticks_ISO_T2_8,112,9999,9999,9999,560187492
100,5,9,Ticks_ISO_T2_8,113,9999,9999,9999,560987232
100,5,9,Ticks_ISO_T2_8,114,9999,9999,9999,561788008
100,5,9,Ticks_ISO_T2_8,115,9999,9999,9999,562587748
100,5,9,Ticks_ISO_T2_8,116,9999,9999,9999,563387476
100,5,9,Ticks_ISO_T2_8,117,9999,9999,9999,564187216
100,5,9,Ticks_ISO_T2_8,118,9999,9999,9999,564988000
100,5,9,Ticks_ISO_T2_8,119,9999,9999,9999,565787748
100,6,10,Ticks_ISO_T2_5,0,5,42,127,576297264
100,6,10,Ticks_ISO_T2_5,1,5,42,127,576797276
100,6,10,Ticks_ISO_T2_5,2,5,42,127,577296968
100,6,10,Ticks_ISO_T2_5,3,5,42,127,577796388
100,6,10,Ticks_ISO_T2_5,4,5,42,127,578297152
100,6,10,Ticks_ISO_T2_5,5,1,48,45,578300492
100,6,10,Ticks_ISO_T2_5,6,5,42,127,578797068
100,6,10,Ticks_ISO_T2_5,7,1,48,49,578801604
100,6,10,Ticks_ISO_T2_5,8,5,42,127,579296616
100,6,10,Ticks_ISO_T2_5,9,1,48,51,579305040
100,6,10,Ticks_ISO_T2_5,10,5,42,127,579797356
100,6,10,Ticks_ISO_T2_5,11,1,48,42,579823508
100,6,10,Ticks_ISO_T2_5,12,5,42,127,580297052
100,6,10,Ticks_ISO_T2_5,13,1,48,46,580298016
100,6,10,Ticks_ISO_T2_5,14,5,42,127,580797040
100,6,10,Ticks_ISO_T2_5,15,1,48,43,580804124
100,6,10,Ticks_ISO_T2_5,16,5,42,127,581296364
100,6,10,Ticks_ISO_T2_5,17,1,48,48,581301576
100,6,10,Ticks_ISO_T2_5,18,5,42,127,581797180
100,6,10,Ticks_ISO_T2_5,19,1,48,52,581804632
100,6,10,Ticks_ISO_T2_5,20,5,42,127,582297020
100,6,10,Ticks_ISO_T2_5,21,1,48,44,582302308
100,6,10,Ticks_ISO_T2_5,22,5,42,127,582796792
100,6,10,Ticks_ISO_T2_5,23,1,48,45,582800732
100,6,10,Ticks_ISO_T2_5,24,5,42,127,583297456
100,6,10,Ticks_ISO_T2_5,25,1,48,39,583304912
100,6,10,Ticks_ISO_T2_5,26,1,48,46,583796320
100,6,10,Ticks_ISO_T2_5,27,5,42,127,583797896
100,6,10,Ticks_ISO_T2_5,28,5,42,127,584296996
100,6,10,Ticks_ISO_T2_5,29,1,48,48,584303180
100,6,10,Ticks_ISO_T2_5,30,5,42,127,584796468
100,6,10,Ticks_ISO_T2_5,31,1,48,44,584806616
100,6,10,Ticks_ISO_T2_5,32,1,48,52,585288792
100,6,10,Ticks_ISO_T2_5,33,5,42,127,585297128
100,6,10,Ticks_ISO_T2_5,34,5,42,127,585797052
100,6,10,Ticks_ISO_T2_5,35,1,48,54,585814004
100,6,10,Ticks_ISO_T2_5,36,5,42,127,586296896
100,6,10,Ticks_ISO_T2_5,37,1,48,44,586305552
100,6,10,Ticks_ISO_T2_5,38,5,42,127,586797636
100,6,10,Ticks_ISO_T2_5,39,1,48,54,586812872
100,6,10,Ticks_ISO_T2_5,40,1,48,46,587286068
100,6,10,Ticks_ISO_T2_5,41,5,42,127,587297252
100,6,10,Ticks_ISO_T2_5,42,5,42,127,587796952
100,6,10,Ticks_ISO_T2_5,43,1,48,50,587801192
100,6,10,Ticks_ISO_T2_5,44,1,48,48,588289772
100,6,10,Ticks_ISO_T2_5,45,5,42,127,588296468
100,6,10,Ticks_ISO_T2_5,46,5,42,127,588797364
100,6,10,Ticks_ISO_T2_5,47,1,48,44,588804224
100,6,10,Ticks_ISO_T2_5,48,1,48,44,589281832
100,6,10,Ticks_ISO_T2_5,49,5,42,127,589297052
100,6,10,Ticks_ISO_T2_5,50,5,42,127,589796828
100,6,10,Ticks_ISO_T2_5,51,1,48,45,589799272
100,6,10,Ticks_ISO_T2_5,52,5,42,127,590296300
100,6,10,Ticks_ISO_T2_5,53,1,48,48,590309888
100,6,10,Ticks_ISO_T2_5,54,5,42,127,590797188
100,6,10,Ticks_ISO_T2_5,55,1,48,44,590820504
100,6,10,Ticks_ISO_T2_5,56,5,42,127,591296736
100,6,10,Ticks_ISO_T2_5,57,1,48,47,591306728
100,6,10,Ticks_ISO_T2_5,58,5,42,127,591796728
100,6,10,Ticks_ISO_T2_5,59,1,48,47,591797692
100,6,10,Ticks_ISO_T2_5,60,1,48,52,592286208
100,6,10,Ticks_ISO_T2_5,61,5,42,127,592297316
100,6,10,Ticks_ISO_T2_5,62,5,42,127,592797016
100,6,10,Ticks_ISO_T2_5,63,1,48,48,592807316
100,6,10,Ticks_ISO_T2_5,64,5,42,127,593296860
100,6,10,Ticks_ISO_T2_5,65,1,48,46,593314784
100,6,10,Ticks_ISO_T2_5,66,5,42,127,593796332
100,6,10,Ticks_ISO_T2_5,67,1,48,47,593803712
100,6,10,Ticks_ISO_T2_5,68,1,48,52,594279904
100,6,10,Ticks_ISO_T2_5,69,5,42,127,594297068
100,6,10,Ticks_ISO_T2_5,70,5,42,127,594796768
100,6,10,Ticks_ISO_T2_5,71,1,48,51,594814248
100,6,10,Ticks_ISO_T2_5,72,5,42,127,595296764
100,6,10,Ticks_ISO_T2_5,73,1,48,36,595328456
100,6,10,Ticks_ISO_T2_5,74,5,42,127,595797284
100,6,10,Ticks_ISO_T2_5,75,1,48,54,595821416
100,6,10,Ticks_ISO_T2_5,76,5,42,127,596297052
100,6,10,Ticks_ISO_T2_5,77,1,48,51,596301216
100,6,10,Ticks_ISO_T2_5,78,5,42,127,596796744
100,6,10,Ticks_ISO_T2_5,79,1,48,50,596811980
100,6,10,Ticks_ISO_T2_5,80,5,42,127,597296516
100,6,10,Ticks_ISO_T2_5,81,1,48,48,597304940
100,6,10,Ticks_ISO_T2_5,82,1,48,48,597777444
100,6,10,Ticks_ISO_T2_5,83,5,42,127,597797100
100,6,10,Ticks_ISO_T2_5,84,1,48,43,598277736
100,6,10,Ticks_ISO_T2_5,85,5,42,127,598296944
100,6,10,Ticks_ISO_T2_5,86,1,48,46,598790444
100,6,10,Ticks_ISO_T2_5,87,5,42,127,598796612
100,6,10,Ticks_ISO_T2_5,88,1,48,41,599265528
100,6,10,Ticks_ISO_T2_5,89,5,42,127,599297648
100,6,10,Ticks_ISO_T2_5,90,1,48,42,599793420
100,6,10,Ticks_ISO_T2_5,91,5,42,127,599797048
100,6,10,Ticks_ISO_T2_5,92,5,42,127,600296676
100,6,10,Ticks_ISO_T2_5,93,1,48,49,600298688
100,6,10,Ticks_ISO_T2_5,94,1,48,42,600795540
100,6,10,Ticks_ISO_T2_5,95,5,42,127,600797032
100,6,10,Ticks_ISO_T2_5,96,1,48,42,601286752
100,6,10,Ticks_ISO_T2_5,97,5,42,127,601297252
100,6,10,Ticks_ISO_T2_5,98,1,48,37,601784044
100,6,10,Ticks_ISO_T2_5,99,5,42,127,601796948
100,6,10,Ticks_ISO_T2_5,100,1,48,48,602288004
100,6,10,Ticks_ISO_T2_5,101,5,42,127,602296720
100,6,10,Ticks_ISO_T2_5,102,1,48,46,602776328
100,6,10,Ticks_ISO_T2_5,103,5,42,127,602797608
100,6,10,Ticks_ISO_T2_5,104,1,48,44,603288744
100,6,10,Ticks_ISO_T2_5,105,5,42,127,603297080
100,6,10,Ticks_ISO_T2_5,106,5,42,127,603796856
100,6,10,Ticks_ISO_T2_5,107,1,48,46,603811192
100,6,10,Ticks_ISO_T2_5,108,1,48,41,604293888
100,6,10,Ticks_ISO_T2_5,109,5,42,127,604296620
100,6,10,Ticks_ISO_T2_5,110,1,48,50,604797664
100,6,10,Ticks_ISO_T2_5,111,5,42,127,604798924
100,6,10,Ticks_ISO_T2_5,112,5,42,127,605296912
100,6,10,Ticks_ISO_T2_5,113,1,48,48,605302644
100,6,10,Ticks_ISO_T2_5,114,5,42,127,605796680
100,6,10,Ticks_ISO_T2_5,115,1,48,46,605802488
100,6,10,Ticks_ISO_T2_5,116,1,48,47,606266640
100,6,10,Ticks_ISO_T2_5,117,5,42,127,606296516
100,6,10,Ticks_ISO_T2_5,118,5,42,127,606797044
100,6,10,Ticks_ISO_T2_5,119,1,48,50,606811160
100,6,10,Ticks_ISO_T2_5,120,1,48,52,607289740
100,6,10,Ticks_ISO_T2_5,121,5,42,127,607296804
100,6,10,Ticks_ISO_T2_5,122,5,42,127,607796580
100,6,10,Ticks_ISO_T2_5,123,1,48,46,607798520
100,6,10,Ticks_ISO_T2_5,124,5,42,127,608297620
100,6,10,Ticks_ISO_T2_5,125,1,48,43,608313828
100,6,10,Ticks_ISO_T2_5,126,5,42,127,608796940
100,6,10,Ticks_ISO_T2_5,127,1,48,40,608806340
100,6,10,Ticks_ISO_T2_5,128,1,48,51,609296612
100,6,10,Ticks_ISO_T2_5,129,5,42,127,609297948
100,6,10,Ticks_ISO_T2_5,130,5,42,127,609796604
100,6,10,Ticks_ISO_T2_5,131,1,48,46,609802344
100,6,10,Ticks_ISO_T2_5,132,5,42,127,610297196
100,6,10,Ticks_ISO_T2_5,133,1,48,48,610305104
100,6,10,Ticks_ISO_T2_5,134,1,48,48,610768056
100,6,10,Ticks_ISO_T2_5,135,5,42,127,610796884
100,6,10,Ticks_ISO_T2_5,136,1,48,46,611295140
100,6,10,Ticks_ISO_T2_5,137,5,42,127,611296580
100,6,10,Ticks_ISO_T2_5,138,5,42,127,611797624
100,6,10,Ticks_ISO_T2_5,139,1,48,42,611800076
100,6,10,Ticks_ISO_T2_5,140,1,48,46,612262948
100,6,10,Ticks_ISO_T2_5,141,5,42,127,612297016
100,6,10,Ticks_ISO_T2_5,142,1,48,47,612770492
100,6,10,Ticks_ISO_T2_5,143,5,42,127,612796708
100,6,10,Ticks_ISO_T2_5,144,1,48,39,613292628
100,6,10,Ticks_ISO_T2_5,145,5,42,127,613296480
100,6,10,Ticks_ISO_T2_5,146,5,42,127,613797080
100,6,10,Ticks_ISO_T2_5,147,1,48,39,613823084
100,6,10,Ticks_ISO_T2_5,148,1,48,47,614272940
100,6,10,Ticks_ISO_T2_5,149,5,42,127,614296840
100,6,10,Ticks_ISO_T2_5,150,1,48,40,614792460
100,6,10,Ticks_ISO_T2_5,151,5,42,127,614796684
100,6,10,Ticks_ISO_T2_5,152,5,42,127,615297432
100,6,10,Ticks_ISO_T2_5,153,1,48,46,615299948
100,6,10,Ticks_ISO_T2_5,154,5,42,127,615797052
100,6,10,Ticks_ISO_T2_5,155,1,48,47,615797944
100,6,10,Ticks_ISO_T2_5,156,5,42,127,616296820
100,6,10,Ticks_ISO_T2_5,157,1,48,35,616326716
100,6,10,Ticks_ISO_T2_5,158,1,48,45,616772536
100,6,10,Ticks_ISO_T2_5,159,5,42,127,616796736
100,6,10,Ticks_ISO_T2_5,160,5,42,127,617297184
100,6,10,Ticks_ISO_T2_5,161,1,48,41,617309052
100,6,10,Ticks_ISO_T2_5,162,5,42,127,617797028
100,6,10,Ticks_ISO_T2_5,163,1,48,40,617798592
100,6,10,Ticks_ISO_T2_5,164,1,48,41,618273196
100,6,10,Ticks_ISO_T2_5,165,5,42,127,618296716
100,6,10,Ticks_ISO_T2_5,166,1,48,44,618785832
100,6,10,Ticks_ISO_T2_5,167,5,42,127,618797460
100,6,10,Ticks_ISO_T2_5,168,5,42,127,619297084
100,6,10,Ticks_ISO_T2_5,169,1,48,46,619298796
100,6,10,Ticks_ISO_T2_5,170,5,42,127,619796928
100,6,10,Ticks_ISO_T2_5,171,1,48,42,619799520
100,6,10,Ticks_ISO_T2_5,172,1,48,48,620275988
100,6,10,Ticks_ISO_T2_5,173,5,42,127,620296668
100,6,10,Ticks_ISO_T2_5,174,1,48,47,620777556
100,6,10,Ticks_ISO_T2_5,175,5,42,127,620797260
100,6,10,Ticks_ISO_T2_5,176,5,42,127,621296888
100,6,10,Ticks_ISO_T2_5,177,1,48,43,621298448
100,6,10,Ticks_ISO_T2_5,178,5,42,127,621796660
100,6,10,Ticks_ISO_T2_5,179,1,48,44,621801648
100,6,10,Ticks_ISO_T2_5,180,1,48,43,622293316
100,6,10,Ticks_ISO_T2_5,181,5,42,127,622296496
100,6,10,Ticks_ISO_T2_5,182,5,42,127,622797096
100,6,10,Ticks_ISO_T2_5,183,1,48,44,622798060
100,6,10,Ticks_ISO_T2_5,184,5,42,127,623296864
100,6,10,Ticks_ISO_T2_5,185,1,48,35,623303196
100,6,10,Ticks_ISO_T2_5,186,1,48,47,623763080
100,6,10,Ticks_ISO_T2_5,187,5,42,127,623796552
100,6,10,Ticks_ISO_T2_5,188,1,48,44,624282900
100,6,10,Ticks_ISO_T2_5,189,5,42,127,624297296
100,6,10,Ticks_ISO_T2_5,190,5,42,127,624796924
100,6,10,Ticks_ISO_T2_5,191,1,48,32,624815296
100,6,10,Ticks_ISO_T2_5,192,5,42,127,625296620
100,6,10,Ticks_ISO_T2_5,193,1,48,46,625298556
100,6,10,Ticks_ISO_T2_5,194,1,48,49,625788416
100,6,10,Ticks_ISO_T2_5,195,5,42,127,625796456
100,6,10,Ticks_ISO_T2_5,196,1,48,40,626282052
100,6,10,Ticks_ISO_T2_5,197,5,42,127,626297344
100,6,10,Ticks_ISO_T2_5,198,1,48,42,626770528
100,6,10,Ticks_ISO_T2_5,199,5,42,127,626797040
100,6,10,Ticks_ISO_T2_5,200,1,48,40,627257204
100,6,10,Ticks_ISO_T2_5,201,5,42,127,627296584
100,6,10,Ticks_ISO_T2_5,202,1,48,45,627790112
100,6,10,Ticks_ISO_T2_5,203,5,42,127,627797328
100,6,10,Ticks_ISO_T2_5,204,1,48,43,628296500
100,6,10,Ticks_ISO_T2_5,205,5,42,127,628298216
100,6,10,Ticks_ISO_T2_5,206,1,48,38,628793688
100,6,10,Ticks_ISO_T2_5,207,5,42,127,628796864
100,6,10,Ticks_ISO_T2_5,208,1,48,43,629283656
100,6,10,Ticks_ISO_T2_5,209,5,42,127,629296484
100,6,10,Ticks_ISO_T2_5,210,5,42,127,629797232
100,6,10,Ticks_ISO_T2_5,211,1,48,44,629802744
100,6,10,Ticks_ISO_T2_5,212,5,42,127,630297000
100,6,10,Ticks_ISO_T2_5,213,1,48,46,630334528
100,6,10,Ticks_ISO_T2_5,214,5,42,127,630796596
100,6,10,Ticks_ISO_T2_5,215,1,48,45,630806096
100,6,10,Ticks_ISO_T2_5,216,1,48,44,631295364
100,6,10,Ticks_ISO_T2_5,217,5,42,127,631297332
100,6,10,Ticks_ISO_T2_5,218,1,48,45,631791600
100,6,10,Ticks_ISO_T2_5,219,5,42,127,631797248
100,6,10,Ticks_ISO_T2_5,220,1,48,43,632281652
100,6,10,Ticks_ISO_T2_5,221,5,42,127,632296872
100,6,10,Ticks_ISO_T2_5,222,1,48,40,632796348
100,6,10,Ticks_ISO_T2_5,223,5,42,127,632797612
100,6,10,Ticks_ISO_T2_5,224,1,48,44,633258008
100,6,10,Ticks_ISO_T2_5,225,5,42,127,633297308
100,6,10,Ticks_ISO_T2_5,226,1,48,44,633761736
100,6,10,Ticks_ISO_T2_5,227,5,42,127,633796856
100,6,10,Ticks_ISO_T2_5,228,5,42,127,634296704
100,6,10,Ticks_ISO_T2_5,229,1,48,42,634326748
100,6,10,Ticks_ISO_T2_5,230,5,42,127,634797520
100,6,10,Ticks_ISO_T2_5,231,1,48,43,634823300
100,6,10,Ticks_ISO_T2_5,232,5,42,127,635297212
100,6,10,Ticks_ISO_T2_5,233,1,48,44,635313644
100,6,10,Ticks_ISO_T2_5,234,1,48,44,635794172
100,6,10,Ticks_ISO_T2_5,235,5,42,127,635796976
100,6,10,Ticks_ISO_T2_5,236,1,48,42,636289308
100,6,10,Ticks_ISO_T2_5,237,5,42,127,636296524
100,6,10,Ticks_ISO_T2_5,238,1,48,41,636786836
100,6,10,Ticks_ISO_T2_5,239,5,42,127,636797264
100,6,10,Ticks_ISO_T2_5,240,1,48,36,637290940
100,6,10,Ticks_ISO_T2_5,241,5,42,127,637297180
100,6,10,Ticks_ISO_T2_5,242,1,48,43,637781804
100,6,10,Ticks_ISO_T2_5,243,5,42,127,637796652
100,6,10,Ticks_ISO_T2_5,244,5,42,127,638296500
100,6,10,Ticks_ISO_T2_5,245,1,48,43,638299696
100,6,10,Ticks_ISO_T2_5,246,1,48,41,638785980
100,6,10,Ticks_ISO_T2_5,247,5,42,127,638797236
100,6,10,Ticks_ISO_T2_5,248,5,42,127,639296788
100,6,10,Ticks_ISO_T2_5,249,1,48,38,639303048
100,6,10,Ticks_ISO_T2_5,250,5,42,127,639796632
100,6,10,Ticks_ISO_T2_5,251,1,48,43,639798644
100,6,10,Ticks_ISO_T2_5,252,5,42,127,640297300
100,6,10,Ticks_ISO_T2_5,253,1,48,44,640315676
100,6,10,Ticks_ISO_T2_5,254,1,48,47,640790068
100,6,10,Ticks_ISO_T2_5,255,5,42,127,640797360
100,6,10,Ticks_ISO_T2_5,0,9999,9999,9999,576294972
100,6,10,Ticks_ISO_T2_5,1,9999,9999,9999,576794688
100,6,10,Ticks_ISO_T2_5,2,9999,9999,9999,577294456
100,6,10,Ticks_ISO_T2_5,3,9999,9999,9999,577794100
100,6,10,Ticks_ISO_T2_5,4,9999,9999,9999,578294860
100,6,10,Ticks_ISO_T2_5,5,9999,9999,9999,578794556
100,6,10,Ticks_ISO_T2_5,6,9999,9999,9999,579294324
100,6,10,Ticks_ISO_T2_5,7,9999,9999,9999,579795064
100,6,10,Ticks_ISO_T2_5,8,9999,9999,9999,580294760
100,6,10,Ticks_ISO_T2_5,9,9999,9999,9999,580794456
100,6,10,Ticks_ISO_T2_5,10,9999,9999,9999,581294148
100,6,10,Ticks_ISO_T2_5,11,9999,9999,9999,581794888
100,6,10,Ticks_ISO_T2_5,12,9999,9999,9999,582294584
100,6,10,Ticks_ISO_T2_5,13,9999,9999,9999,582794352
100,6,10,Ticks_ISO_T2_5,14,9999,9999,9999,583295092
100,6,10,Ticks_ISO_T2_5,15,9999,9999,9999,583794788
100,6,10,Ticks_ISO_T2_5,16,9999,9999,9999,584294484
100,6,10,Ticks_ISO_T2_5,17,9999,9999,9999,584794176
100,6,10,Ticks_ISO_T2_5,18,9999,9999,9999,585294912
100,6,10,Ticks_ISO_T2_5,19,9999,9999,9999,585794612
100,6,10,Ticks_ISO_T2_5,20,9999,9999,9999,586294384
100,6,10,Ticks_ISO_T2_5,21,9999,9999,9999,586795124
100,6,10,Ticks_ISO_T2_5,22,9999,9999,9999,587294812
100,6,10,Ticks_ISO_T2_5,23,9999,9999,9999,587794488
100,6,10,Ticks_ISO_T2_5,24,9999,9999,9999,588294252
100,6,10,Ticks_ISO_T2_5,25,9999,9999,9999,588795000
100,6,10,Ticks_ISO_T2_5,26,9999,9999,9999,589294688
100,6,10,Ticks_ISO_T2_5,27,9999,9999,9999,589794392
100,6,10,Ticks_ISO_T2_5,28,9999,9999,9999,590294084
100,6,10,Ticks_ISO_T2_5,29,9999,9999,9999,590794824
100,6,10,Ticks_ISO_T2_5,30,9999,9999,9999,591294520
100,6,10,Ticks_ISO_T2_5,31,9999,9999,9999,591794288
100,6,10,Ticks_ISO_T2_5,32,9999,9999,9999,592295024
100,6,10,Ticks_ISO_T2_5,33,9999,9999,9999,592794724
100,6,10,Ticks_ISO_T2_5,34,9999,9999,9999,593294420
100,6,10,Ticks_ISO_T2_5,35,9999,9999,9999,593794116
100,6,10,Ticks_ISO_T2_5,36,9999,9999,9999,594294852
100,6,10,Ticks_ISO_T2_5,37,9999,9999,9999,594794552
100,6,10,Ticks_ISO_T2_5,38,9999,9999,9999,595294324
100,6,10,Ticks_ISO_T2_5,39,9999,9999,9999,595794992
100,6,10,Ticks_ISO_T2_5,40,9999,9999,9999,596294764
100,6,10,Ticks_ISO_T2_5,41,9999,9999,9999,596794456
100,6,10,Ticks_ISO_T2_5,42,9999,9999,9999,597294152
100,6,10,Ticks_ISO_T2_5,43,9999,9999,9999,597794884
100,6,10,Ticks_ISO_T2_5,44,9999,9999,9999,598294580
100,6,10,Ticks_ISO_T2_5,45,9999,9999,9999,598794324
100,6,10,Ticks_ISO_T2_5,46,9999,9999,9999,599295064
100,6,10,Ticks_ISO_T2_5,47,9999,9999,9999,599794756
100,6,10,Ticks_ISO_T2_5,48,9999,9999,9999,600294460
100,6,10,Ticks_ISO_T2_5,49,9999,9999,9999,600794228
100,6,10,Ticks_ISO_T2_5,50,9999,9999,9999,601294964
100,6,10,Ticks_ISO_T2_5,51,9999,9999,9999,601794660
100,6,10,Ticks_ISO_T2_5,52,9999,9999,9999,602294352
100,6,10,Ticks_ISO_T2_5,53,9999,9999,9999,602795096
100,6,10,Ticks_ISO_T2_5,54,9999,9999,9999,603294788
100,6,10,Ticks_ISO_T2_5,55,9999,9999,9999,603794492
100,6,10,Ticks_ISO_T2_5,56,9999,9999,9999,604294256
100,6,10,Ticks_ISO_T2_5,57,9999,9999,9999,604795000
100,6,10,Ticks_ISO_T2_5,58,9999,9999,9999,605294696
100,6,10,Ticks_ISO_T2_5,59,9999,9999,9999,605794392
100,6,10,Ticks_ISO_T2_5,60,9999,9999,9999,606294080
100,6,10,Ticks_ISO_T2_5,61,9999,9999,9999,606794828
100,6,10,Ticks_ISO_T2_5,62,9999,9999,9999,607294516
100,6,10,Ticks_ISO_T2_5,63,9999,9999,9999,607794292
100,6,10,Ticks_ISO_T2_5,64,9999,9999,9999,608295032
100,6,10,Ticks_ISO_T2_5,65,9999,9999,9999,608794724
100,6,10,Ticks_ISO_T2_5,66,9999,9999,9999,609294396
100,6,10,Ticks_ISO_T2_5,67,9999,9999,9999,609794164
100,6,10,Ticks_ISO_T2_5,68,9999,9999,9999,610294904
100,6,10,Ticks_ISO_T2_5,69,9999,9999,9999,610794596
100,6,10,Ticks_ISO_T2_5,70,9999,9999,9999,611294296
100,6,10,Ticks_ISO_T2_5,71,9999,9999,9999,611795036
100,6,10,Ticks_ISO_T2_5,72,9999,9999,9999,612294724
100,6,10,Ticks_ISO_T2_5,73,9999,9999,9999,612794420
100,6,10,Ticks_ISO_T2_5,74,9999,9999,9999,613294188
100,6,10,Ticks_ISO_T2_5,75,9999,9999,9999,613794864
100,6,10,Ticks_ISO_T2_5,76,9999,9999,9999,614294624
100,6,10,Ticks_ISO_T2_5,77,9999,9999,9999,614794320
100,6,10,Ticks_ISO_T2_5,78,9999,9999,9999,615295068
100,6,10,Ticks_ISO_T2_5,79,9999,9999,9999,615794760
100,6,10,Ticks_ISO_T2_5,80,9999,9999,9999,616294456
100,6,10,Ticks_ISO_T2_5,81,9999,9999,9999,616794220
100,6,10,Ticks_ISO_T2_5,82,9999,9999,9999,617294896
100,6,10,Ticks_ISO_T2_5,83,9999,9999,9999,617794664
100,6,10,Ticks_ISO_T2_5,84,9999,9999,9999,618294352
100,6,10,Ticks_ISO_T2_5,85,9999,9999,9999,618795096
100,6,10,Ticks_ISO_T2_5,86,9999,9999,9999,619294796
100,6,10,Ticks_ISO_T2_5,87,9999,9999,9999,619794492
100,6,10,Ticks_ISO_T2_5,88,9999,9999,9999,620294228
100,6,10,Ticks_ISO_T2_5,89,9999,9999,9999,620794972
100,6,10,Ticks_ISO_T2_5,90,9999,9999,9999,621294672
100,6,10,Ticks_ISO_T2_5,91,9999,9999,9999,621794368
100,6,10,Ticks_ISO_T2_5,92,9999,9999,9999,622294132
100,6,10,Ticks_ISO_T2_5,93,9999,9999,9999,622794804
100,6,10,Ticks_ISO_T2_5,94,9999,9999,9999,623294576
100,6,10,Ticks_ISO_T2_5,95,9999,9999,9999,623794264
100,6,10,Ticks_ISO_T2_5,96,9999,9999,9999,624295004
100,6,10,Ticks_ISO_T2_5,97,9999,9999,9999,624794708
100,6,10,Ticks_ISO_T2_5,98,9999,9999,9999,625294404
100,6,10,Ticks_ISO_T2_5,99,9999,9999,9999,625794164
100,6,10,Ticks_ISO_T2_5,100,9999,9999,9999,626294832
100,6,10,Ticks_ISO_T2_5,101,9999,9999,9999,626794600
100,6,10,Ticks_ISO_T2_5,102,9999,9999,9999,627294296
100,6,10,Ticks_ISO_T2_5,103,9999,9999,9999,627795036
100,6,10,Ticks_ISO_T2_5,104,9999,9999,9999,628294740
100,6,10,Ticks_ISO_T2_5,105,9999,9999,9999,628794428
100,6,10,Ticks_ISO_T2_5,106,9999,9999,9999,629294196
100,6,10,Ticks_ISO_T2_5,107,9999,9999,9999,629794868
100,6,10,Ticks_ISO_T2_5,108,9999,9999,9999,630294636
100,6,10,Ticks_ISO_T2_5,109,9999,9999,9999,630794308
100,6,10,Ticks_ISO_T2_5,110,9999,9999,9999,631295080
100,6,10,Ticks_ISO_T2_5,111,9999,9999,9999,631794736
100,6,10,Ticks_ISO_T2_5,112,9999,9999,9999,632294508
100,6,10,Ticks_ISO_T2_5,113,9999,9999,9999,632794208
100,6,10,Ticks_ISO_T2_5,114,9999,9999,9999,633294944
100,6,10,Ticks_ISO_T2_5,115,9999,9999,9999,633794640
100,6,10,Ticks_ISO_T2_5,116,9999,9999,9999,634294340
100,6,10,Ticks_ISO_T2_5,117,9999,9999,9999,634795080
100,6,10,Ticks_ISO_T2_5,118,9999,9999,9999,635294776
100,6,10,Ticks_ISO_T2_5,119,9999,9999,9999,635794536
100,6,10,Ticks_ISO_T2_5,120,9999,9999,9999,636294232
100,6,10,Ticks_ISO_T2_5,121,9999,9999,9999,636794972
100,6,10,Ticks_ISO_T2_5,122,9999,9999,9999,637294668
100,6,10,Ticks_ISO_T2_5,123,9999,9999,9999,637794364
100,6,10,Ticks_ISO_T2_5,124,9999,9999,9999,638294136
100,6,10,Ticks_ISO_T2_5,125,9999,9999,9999,638794872
100,6,10,Ticks_ISO_T2_5,126,9999,9999,9999,639294572
100,6,10,Ticks_ISO_T2_5,127,9999,9999,9999,639794268
100,6,10,Ticks_ISO_T2_5,128,9999,9999,9999,640295008
100,6,10,Ticks_ISO_T2_5,129,9999,9999,9999,640794696
100,7,20,Ticks_Linear_8,0,5,42,127,652727696
100,7,20,Ticks_Linear_8,1,5,42,127,653547960
100,7,20,Ticks_Linear_8,2,5,42,127,654368024
100,7,20,Ticks_Linear_8,3,5,42,127,655188212
100,7,20,Ticks_Linear_8,4,1,48,53,655971956
100,7,20,Ticks_Linear_8,5,5,42,127,656007572
100,7,20,Ticks_Linear_8,6,1,48,56,656774300
100,7,20,Ticks_Linear_8,7,5,42,127,656817480
100,7,20,Ticks_Linear_8,8,1,48,56,657599116
100,7,20,Ticks_Linear_8,9,5,42,127,657627388
100,7,20,Ticks_Linear_8,10,1,48,51,658383404
100,7,20,Ticks_Linear_8,11,5,42,127,658437448
100,7,20,Ticks_Linear_8,12,1,48,47,659197440
100,7,20,Ticks_Linear_8,13,5,42,127,659247452
100,7,20,Ticks_Linear_8,14,1,48,37,660054988
100,7,20,Ticks_Linear_8,15,5,42,127,660057512
100,7,20,Ticks_Linear_8,16,5,42,127,660858216
100,7,20,Ticks_Linear_8,17,1,48,44,660864400
100,7,20,Ticks_Linear_8,18,5,42,127,661658088
100,7,20,Ticks_Linear_8,19,1,48,51,661668400
100,7,20,Ticks_Linear_8,20,5,42,127,662457884
100,7,20,Ticks_Linear_8,21,1,48,43,662484736
100,7,20,Ticks_Linear_8,22,5,42,127,663257460
100,7,20,Ticks_Linear_8,23,1,48,50,663284836
100,7,20,Ticks_Linear_8,24,1,48,46,664024996
100,7,20,Ticks_Linear_8,25,5,42,127,664058152
100,7,20,Ticks_Linear_8,26,1,48,46,664843896
100,7,20,Ticks_Linear_8,27,5,42,127,664847912
100,7,20,Ticks_Linear_8,28,5,42,127,665638232
100,7,20,Ticks_Linear_8,29,1,48,45,665650636
100,7,20,Ticks_Linear_8,30,5,42,127,666427772
100,7,20,Ticks_Linear_8,31,1,48,51,666448120
100,7,20,Ticks_Linear_8,32,1,48,40,667192168
100,7,20,Ticks_Linear_8,33,5,42,127,667218424
100,7,20,Ticks_Linear_8,34,5,42,127,668007824
100,7,20,Ticks_Linear_8,35,1,48,47,668029888
100,7,20,Ticks_Linear_8,36,5,42,127,668788224
100,7,20,Ticks_Linear_8,37,1,48,53,668816288
100,7,20,Ticks_Linear_8,38,5,42,127,669568408
100,7,20,Ticks_Linear_8,39,1,48,50,669578868
100,7,20,Ticks_Linear_8,40,1,48,54,670284128
100,7,20,Ticks_Linear_8,41,5,42,127,670347828
100,7,20,Ticks_Linear_8,42,5,42,127,671127864
100,7,20,Ticks_Linear_8,43,1,48,38,671158092
100,7,20,Ticks_Linear_8,44,5,42,127,671908192
100,7,20,Ticks_Linear_8,45,1,48,48,671954216
100,7,20,Ticks_Linear_8,46,5,42,127,672678256
100,7,20,Ticks_Linear_8,47,1,48,54,672683468
100,7,20,Ticks_Linear_8,48,5,42,127,673448252
100,7,20,Ticks_Linear_8,49,1,48,51,673462600
100,7,20,Ticks_Linear_8,50,5,42,127,674218248
100,7,20,Ticks_Linear_8,51,1,48,53,674229152
100,7,20,Ticks_Linear_8,52,5,42,127,674988316
100,7,20,Ticks_Linear_8,53,1,48,45,675025952
100,7,20,Ticks_Linear_8,54,5,42,127,675757412
100,7,20,Ticks_Linear_8,55,1,48,57,675768472
100,7,20,Ticks_Linear_8,56,5,42,127,676518340
100,7,20,Ticks_Linear_8,57,1,48,57,676520352
100,7,20,Ticks_Linear_8,58,5,42,127,677278148
100,7,20,Ticks_Linear_8,59,1,48,59,677307332
100,7,20,Ticks_Linear_8,60,5,42,127,678037956
100,7,20,Ticks_Linear_8,61,1,48,55,678061740
100,7,20,Ticks_Linear_8,62,5,42,127,678797840
100,7,20,Ticks_Linear_8,63,1,48,52,678863712
100,7,20,Ticks_Linear_8,64,5,42,127,679557652
100,7,20,Ticks_Linear_8,65,1,48,43,679580916
100,7,20,Ticks_Linear_8,66,5,42,127,680308024
100,7,20,Ticks_Linear_8,67,1,48,52,680344460
100,7,20,Ticks_Linear_8,68,5,42,127,681057872
100,7,20,Ticks_Linear_8,69,1,48,44,681103896
100,7,20,Ticks_Linear_8,70,5,42,127,681808392
100,7,20,Ticks_Linear_8,71,1,48,56,681829416
100,7,20,Ticks_Linear_8,72,5,42,127,682557796
100,7,20,Ticks_Linear_8,73,1,48,43,682585480
100,7,20,Ticks_Linear_8,74,1,48,52,683286028
100,7,20,Ticks_Linear_8,75,5,42,127,683308384
100,7,20,Ticks_Linear_8,76,1,48,48,684039968
100,7,20,Ticks_Linear_8,77,5,42,127,684047648
100,7,20,Ticks_Linear_8,78,5,42,127,684788044
100,7,20,Ticks_Linear_8,79,1,48,39,684843604
100,7,20,Ticks_Linear_8,80,5,42,127,685528752
100,7,20,Ticks_Linear_8,81,1,48,47,685538916
100,7,20,Ticks_Linear_8,82,5,42,127,686278004
100,7,20,Ticks_Linear_8,83,1,48,40,686296556
100,7,20,Ticks_Linear_8,84,1,48,38,687017664
100,7,20,Ticks_Linear_8,85,5,42,127,687019384
100,7,20,Ticks_Linear_8,86,1,48,46,687729276
100,7,20,Ticks_Linear_8,87,5,42,127,687747740
100,7,20,Ticks_Linear_8,88,5,42,127,688477600
100,7,20,Ticks_Linear_8,89,1,48,42,688483860
100,7,20,Ticks_Linear_8,90,5,42,127,689207752
100,7,20,Ticks_Linear_8,91,1,48,40,689247648
100,7,20,Ticks_Linear_8,92,5,42,127,689937908
100,7,20,Ticks_Linear_8,93,1,48,45,690013664
100,7,20,Ticks_Linear_8,94,1,48,29,690638864
100,7,20,Ticks_Linear_8,95,5,42,127,690667808
100,7,20,Ticks_Linear_8,96,5,42,127,691387860
100,7,20,Ticks_Linear_8,97,1,48,53,691405200
100,7,20,Ticks_Linear_8,98,5,42,127,692107676
100,7,20,Ticks_Linear_8,99,1,48,49,692151312
100,7,20,Ticks_Linear_8,100,5,42,127,692827644
100,7,20,Ticks_Linear_8,101,1,48,55,692871204
100,7,20,Ticks_Linear_8,102,1,48,54,693538208
100,7,20,Ticks_Linear_8,103,5,42,127,693548656
100,7,20,Ticks_Linear_8,104,1,48,45,694247896
100,7,20,Ticks_Linear_8,105,5,42,127,694268376
100,7,20,Ticks_Linear_8,106,5,42,127,694977868
100,7,20,Ticks_Linear_8,107,1,48,41,695044712
100,7,20,Ticks_Linear_8,108,5,42,127,695687580
100,7,20,Ticks_Linear_8,109,1,48,46,695732332
100,7,20,Ticks_Linear_8,110,5,42,127,696398184
100,7,20,Ticks_Linear_8,111,1,48,43,696442636
100,7,20,Ticks_Linear_8,112,5,42,127,697107748
100,7,20,Ticks_Linear_8,113,1,48,39,697132804
100,7,20,Ticks_Linear_8,114,1,48,44,697780612
100,7,20,Ticks_Linear_8,115,5,42,127,697817352
100,7,20,Ticks_Linear_8,116,5,42,127,698517852
100,7,20,Ticks_Linear_8,117,1,48,49,698530704
100,7,20,Ticks_Linear_8,118,5,42,127,699218500
100,7,20,Ticks_Linear_8,119,1,48,47,699226868
100,7,20,Ticks_Linear_8,120,5,42,127,699917628
100,7,20,Ticks_Linear_8,121,1,48,44,699956944
100,7,20,Ticks_Linear_8,122,1,48,34,700613424
100,7,20,Ticks_Linear_8,123,5,42,127,700618116
100,7,20,Ticks_Linear_8,124,1,48,38,701303968
100,7,20,Ticks_Linear_8,125,5,42,127,701317420
100,7,20,Ticks_Linear_8,126,1,48,48,701991660
100,7,20,Ticks_Linear_8,127,5,42,127,702007584
100,7,20,Ticks_Linear_8,128,1,48,31,702673260
100,7,20,Ticks_Linear_8,129,5,42,127,702697944
100,7,20,Ticks_Linear_8,130,5,42,127,703387892
100,7,20,Ticks_Linear_8,131,1,48,49,703394296
100,7,20,Ticks_Linear_8,132,1,48,57,704064816
100,7,20,Ticks_Linear_8,133,5,42,127,704078344
100,7,20,Ticks_Linear_8,134,5,42,127,704768340
100,7,20,Ticks_Linear_8,135,1,48,36,704773028
100,7,20,Ticks_Linear_8,136,5,42,127,705448320
100,7,20,Ticks_Linear_8,137,1,48,54,705486940
100,7,20,Ticks_Linear_8,138,5,42,127,706128520
100,7,20,Ticks_Linear_8,139,1,48,45,706143168
100,7,20,Ticks_Linear_8,140,1,48,44,706793968
100,7,20,Ticks_Linear_8,141,5,42,127,706808392
100,7,20,Ticks_Linear_8,142,1,48,42,707488452
100,7,20,Ticks_Linear_8,143,5,42,127,707489640
100,7,20,Ticks_Linear_8,144,1,48,39,708134676
100,7,20,Ticks_Linear_8,145,5,42,127,708168200
100,7,20,Ticks_Linear_8,146,1,48,44,708823920
100,7,20,Ticks_Linear_8,147,5,42,127,708837752
100,7,20,Ticks_Linear_8,148,5,42,127,709507476
100,7,20,Ticks_Linear_8,149,1,48,48,709562492
100,7,20,Ticks_Linear_8,150,5,42,127,710178244
100,7,20,Ticks_Linear_8,151,1,48,49,710251380
100,7,20,Ticks_Linear_8,152,1,48,49,710820780
100,7,20,Ticks_Linear_8,153,5,42,127,710847860
100,7,20,Ticks_Linear_8,154,5,42,127,711517436
100,7,20,Ticks_Linear_8,155,1,48,43,711572444
100,7,20,Ticks_Linear_8,156,1,48,38,712150832
100,7,20,Ticks_Linear_8,157,5,42,127,712178208
100,7,20,Ticks_Linear_8,158,5,42,127,712837380
100,7,20,Ticks_Linear_8,159,1,48,36,712840944
100,7,20,Ticks_Linear_8,160,5,42,127,713498256
100,7,20,Ticks_Linear_8,161,1,48,52,713521892
100,7,20,Ticks_Linear_8,162,5,42,127,714157468
100,7,20,Ticks_Linear_8,163,1,48,37,714227240
100,7,20,Ticks_Linear_8,164,5,42,127,714818348
100,7,20,Ticks_Linear_8,165,1,48,55,714822668
100,7,20,Ticks_Linear_8,166,5,42,127,715468200
100,7,20,Ticks_Linear_8,167,1,48,45,715503440
100,7,20,Ticks_Linear_8,168,1,48,47,716107020
100,7,20,Ticks_Linear_8,169,5,42,127,716118364
100,7,20,Ticks_Linear_8,170,1,48,50,716754684
100,7,20,Ticks_Linear_8,171,5,42,127,716767468
100,7,20,Ticks_Linear_8,172,1,48,38,717408616
100,7,20,Ticks_Linear_8,173,5,42,127,717417792
100,7,20,Ticks_Linear_8,174,5,42,127,718068244
100,7,20,Ticks_Linear_8,175,1,48,44,718100220
100,7,20,Ticks_Linear_8,176,5,42,127,718708304
100,7,20,Ticks_Linear_8,177,1,48,47,718709344
100,7,20,Ticks_Linear_8,178,5,42,127,719348196
100,7,20,Ticks_Linear_8,179,1,48,32,719393276
100,7,20,Ticks_Linear_8,180,5,42,127,719988184
100,7,20,Ticks_Linear_8,181,1,48,44,720001340
100,7,20,Ticks_Linear_8,182,5,42,127,720628148
100,7,20,Ticks_Linear_8,183,1,48,45,720653508
100,7,20,Ticks_Linear_8,184,5,42,127,721268264
100,7,20,Ticks_Linear_8,185,1,48,46,721294444
100,7,20,Ticks_Linear_8,186,5,42,127,721898044
100,7,20,Ticks_Linear_8,187,1,48,43,721907980
100,7,20,Ticks_Linear_8,188,1,48,50,722504496
100,7,20,Ticks_Linear_8,189,5,42,127,722527464
100,7,20,Ticks_Linear_8,190,5,42,127,723158372
100,7,20,Ticks_Linear_8,191,1,48,47,723164408
100,7,20,Ticks_Linear_8,192,5,42,127,723788176
100,7,20,Ticks_Linear_8,193,1,48,42,723824692
100,7,20,Ticks_Linear_8,194,1,48,44,724394312
100,7,20,Ticks_Linear_8,195,5,42,127,724418024
100,7,20,Ticks_Linear_8,196,1,48,45,725020004
100,7,20,Ticks_Linear_8,197,5,42,127,725037420
100,7,20,Ticks_Linear_8,198,1,48,48,725638404
100,7,20,Ticks_Linear_8,199,5,42,127,725658136
100,7,20,Ticks_Linear_8,200,1,48,46,726260916
100,7,20,Ticks_Linear_8,201,5,42,127,726277360
100,7,20,Ticks_Linear_8,202,1,48,48,726879936
100,7,20,Ticks_Linear_8,203,5,42,127,726898324
100,7,20,Ticks_Linear_8,204,1,48,48,727510688
100,7,20,Ticks_Linear_8,205,5,42,127,727517696
100,7,20,Ticks_Linear_8,206,5,42,127,728127812
100,7,20,Ticks_Linear_8,207,1,48,43,728128776
100,7,20,Ticks_Linear_8,208,1,48,44,728730132
100,7,20,Ticks_Linear_8,209,5,42,127,728738112
100,7,20,Ticks_Linear_8,210,5,42,127,729347380
100,7,20,Ticks_Linear_8,211,1,48,47,729356044
100,7,20,Ticks_Linear_8,212,1,48,45,729944476
100,7,20,Ticks_Linear_8,213,5,42,127,729957856
100,7,20,Ticks_Linear_8,214,5,42,127,730568020
100,7,20,Ticks_Linear_8,215,1,48,52,730573832
100,7,20,Ticks_Linear_8,216,5,42,127,731168168
100,7,20,Ticks_Linear_8,217,1,48,54,731202212
100,7,20,Ticks_Linear_8,218,1,48,50,731747052
100,7,20,Ticks_Linear_8,219,5,42,127,731768212
100,7,20,Ticks_Linear_8,220,5,42,127,732368192
100,7,20,Ticks_Linear_8,221,1,48,48,732379848
100,7,20,Ticks_Linear_8,222,1,48,49,732946352
100,7,20,Ticks_Linear_8,223,5,42,127,732968184
100,7,20,Ticks_Linear_8,224,1,48,47,733539812
100,7,20,Ticks_Linear_8,225,5,42,127,733568384
100,7,20,Ticks_Linear_8,226,1,48,45,734135748
100,7,20,Ticks_Linear_8,227,5,42,127,734158100
100,7,20,Ticks_Linear_8,228,5,42,127,734747920
100,7,20,Ticks_Linear_8,229,1,48,46,734783908
100,7,20,Ticks_Linear_8,230,5,42,127,735337860
100,7,20,Ticks_Linear_8,231,1,48,43,735389432
100,7,20,Ticks_Linear_8,232,1,48,48,735925196
100,7,20,Ticks_Linear_8,233,5,42,127,735928016
100,7,20,Ticks_Linear_8,234,1,48,45,736511324
100,7,20,Ticks_Linear_8,235,5,42,127,736517584
100,7,20,Ticks_Linear_8,236,5,42,127,737098120
100,7,20,Ticks_Linear_8,237,1,48,43,737165424
100,7,20,Ticks_Linear_8,238,5,42,127,737677648
100,7,20,Ticks_Linear_8,239,1,48,49,737690876
100,7,20,Ticks_Linear_8,240,5,42,127,738258228
100,7,20,Ticks_Linear_8,241,1,48,36,738267268
100,7,20,Ticks_Linear_8,242,1,48,49,738819216
100,7,20,Ticks_Linear_8,243,5,42,127,738837852
100,7,20,Ticks_Linear_8,244,1,48,49,739406332
100,7,20,Ticks_Linear_8,245,5,42,127,739417456
100,7,20,Ticks_Linear_8,246,5,42,127,739988004
100,7,20,Ticks_Linear_8,247,1,48,48,739990600
100,7,20,Ticks_Linear_8,248,1,48,51,740545084
100,7,20,Ticks_Linear_8,249,5,42,127,740558316
100,7,20,Ticks_Linear_8,250,1,48,48,741104100
100,7,20,Ticks_Linear_8,251,5,42,127,741127440
100,7,20,Ticks_Linear_8,252,1,48,44,741662840
100,7,20,Ticks_Linear_8,253,5,42,127,741698004
100,7,20,Ticks_Linear_8,254,1,48,47,742259444
100,7,20,Ticks_Linear_8,255,5,42,127,742268248
100,7,20,Ticks_Linear_8,256,5,42,127,742828316
100,7,20,Ticks_Linear_8,257,1,48,51,742848812
100,7,20,Ticks_Linear_8,258,5,42,127,743387476
100,7,20,Ticks_Linear_8,259,1,48,43,743408196
100,7,20,Ticks_Linear_8,260,5,42,127,743947756
100,7,20,Ticks_Linear_8,261,1,48,49,743966108
100,7,20,Ticks_Linear_8,262,5,42,127,744507916
100,7,20,Ticks_Linear_8,263,1,48,50,744526916
100,7,20,Ticks_Linear_8,264,5,42,127,745067976
100,7,20,Ticks_Linear_8,265,1,48,48,745073264
100,7,20,Ticks_Linear_8,266,1,48,45,745600128
100,7,20,Ticks_Linear_8,267,5,42,127,745617992
100,7,20,Ticks_Linear_8,268,5,42,127,746167800
100,7,20,Ticks_Linear_8,269,1,48,49,746185904
100,7,20,Ticks_Linear_8,270,5,42,127,746717676
100,7,20,Ticks_Linear_8,271,1,48,48,746721916
100,7,20,Ticks_Linear_8,272,1,48,49,747257096
100,7,20,Ticks_Linear_8,273,5,42,127,747267392
100,7,20,Ticks_Linear_8,274,5,42,127,747818348
100,7,20,Ticks_Linear_8,275,1,48,41,747823412
100,7,20,Ticks_Linear_8,276,1,48,53,748352144
100,7,20,Ticks_Linear_8,277,5,42,127,748358104
100,7,20,Ticks_Linear_8,278,5,42,127,748897804
100,7,20,Ticks_Linear_8,279,1,48,51,748938816
100,7,20,Ticks_Linear_8,280,5,42,127,749438316
100,7,20,Ticks_Linear_8,281,1,48,51,749458516
100,7,20,Ticks_Linear_8,282,1,48,44,749970620
100,7,20,Ticks_Linear_8,283,5,42,127,749977852
100,7,20,Ticks_Linear_8,284,1,48,45,750502292
100,7,20,Ticks_Linear_8,285,5,42,127,750517764
100,7,20,Ticks_Linear_8,286,1,48,45,751017428
100,7,20,Ticks_Linear_8,287,5,42,127,751048096
100,7,20,Ticks_Linear_8,288,5,42,127,751577384
100,7,20,Ticks_Linear_8,289,1,48,43,751593004
100,7,20,Ticks_Linear_8,290,5,42,127,752107860
100,7,20,Ticks_Linear_8,291,1,48,47,752126412
100,7,20,Ticks_Linear_8,292,5,42,127,752638188
100,7,20,Ticks_Linear_8,293,1,48,46,752646484
100,7,20,Ticks_Linear_8,294,5,42,127,753167796
100,7,20,Ticks_Linear_8,295,1,48,44,753177356
100,7,20,Ticks_Linear_8,296,5,42,127,753687864
100,7,20,Ticks_Linear_8,297,1,48,51,753720564
100,7,20,Ticks_Linear_8,298,1,48,47,754201292
100,7,20,Ticks_Linear_8,299,5,42,127,754208004
100,7,20,Ticks_Linear_8,300,5,42,127,754728304
100,7,20,Ticks_Linear_8,301,1,48,50,754736148
100,7,20,Ticks_Linear_8,302,5,42,127,755247472
100,7,20,Ticks_Linear_8,303,1,48,40,755267444
100,7,20,Ticks_Linear_8,304,5,42,127,755767916
100,7,20,Ticks_Linear_8,305,1,48,45,755770440
100,7,20,Ticks_Linear_8,306,5,42,127,756277728
100,7,20,Ticks_Linear_8,307,1,48,41,756305552
100,7,20,Ticks_Linear_8,308,1,48,41,756764864
100,7,20,Ticks_Linear_8,309,5,42,127,756787604
100,7,20,Ticks_Linear_8,310,1,48,40,757266368
100,7,20,Ticks_Linear_8,311,5,42,127,757297640
100,7,20,Ticks_Linear_8,312,1,48,46,757803360
100,7,20,Ticks_Linear_8,313,5,42,127,757807600
100,7,20,Ticks_Linear_8,314,5,42,127,758317416
100,7,20,Ticks_Linear_8,315,1,48,53,758331092
100,7,20,Ticks_Linear_8,316,5,42,127,758818164
100,7,20,Ticks_Linear_8,317,1,48,48,758838436
100,7,20,Ticks_Linear_8,318,1,48,45,759308680
100,7,20,Ticks_Linear_8,319,5,42,127,759317856
100,7,20,Ticks_Linear_8,320,5,42,127,759817612
100,7,20,Ticks_Linear_8,321,1,48,46,759832212
100,7,20,Ticks_Linear_8,322,1,48,37,760315912
100,7,20,Ticks_Linear_8,323,5,42,127,760318356
100,7,20,Ticks_Linear_8,324,1,48,46,760771576
100,7,20,Ticks_Linear_8,325,5,42,127,760818132
100,7,20,Ticks_Linear_8,326,1,48,44,761299520
100,7,20,Ticks_Linear_8,327,5,42,127,761307648
100,7,20,Ticks_Linear_8,328,5,42,127,761798068
100,7,20,Ticks_Linear_8,329,1,48,47,761819908
100,7,20,Ticks_Linear_8,330,5,42,127,762287508
100,7,20,Ticks_Linear_8,331,1,48,43,762302976
100,7,20,Ticks_Linear_8,332,5,42,127,762777920
100,7,20,Ticks_Linear_8,333,1,48,51,762800808
100,7,20,Ticks_Linear_8,334,1,48,48,763244532
100,7,20,Ticks_Linear_8,335,5,42,127,763267724
100,7,20,Ticks_Linear_8,0,9999,9999,9999,652725320
100,7,20,Ticks_Linear_8,1,9999,9999,9999,653545584
100,7,20,Ticks_Linear_8,2,9999,9999,9999,654365800
100,7,20,Ticks_Linear_8,3,9999,9999,9999,655185988
100,7,20,Ticks_Linear_8,4,9999,9999,9999,656005196
100,7,20,Ticks_Linear_8,5,9999,9999,9999,656815180
100,7,20,Ticks_Linear_8,6,9999,9999,9999,657625164
100,7,20,Ticks_Linear_8,7,9999,9999,9999,658435148
100,7,20,Ticks_Linear_8,8,9999,9999,9999,659245152
100,7,20,Ticks_Linear_8,9,9999,9999,9999,660055136
100,7,20,Ticks_Linear_8,10,9999,9999,9999,660855912
100,7,20,Ticks_Linear_8,11,9999,9999,9999,661655636
100,7,20,Ticks_Linear_8,12,9999,9999,9999,662455360
100,7,20,Ticks_Linear_8,13,9999,9999,9999,663255160
100,7,20,Ticks_Linear_8,14,9999,9999,9999,664055924
100,7,20,Ticks_Linear_8,15,9999,9999,9999,664845388
100,7,20,Ticks_Linear_8,16,9999,9999,9999,665635932
100,7,20,Ticks_Linear_8,17,9999,9999,9999,666425468
100,7,20,Ticks_Linear_8,18,9999,9999,9999,667215976
100,7,20,Ticks_Linear_8,19,9999,9999,9999,668005448
100,7,20,Ticks_Linear_8,20,9999,9999,9999,668785776
100,7,20,Ticks_Linear_8,21,9999,9999,9999,669566032
100,7,20,Ticks_Linear_8,22,9999,9999,9999,670345304
100,7,20,Ticks_Linear_8,23,9999,9999,9999,671125564
100,7,20,Ticks_Linear_8,24,9999,9999,9999,671905888
100,7,20,Ticks_Linear_8,25,9999,9999,9999,672675956
100,7,20,Ticks_Linear_8,26,9999,9999,9999,673445952
100,7,20,Ticks_Linear_8,27,9999,9999,9999,674216020
100,7,20,Ticks_Linear_8,28,9999,9999,9999,674986088
100,7,20,Ticks_Linear_8,29,9999,9999,9999,675755108
100,7,20,Ticks_Linear_8,30,9999,9999,9999,676515964
100,7,20,Ticks_Linear_8,31,9999,9999,9999,677275772
100,7,20,Ticks_Linear_8,32,9999,9999,9999,678035580
100,7,20,Ticks_Linear_8,33,9999,9999,9999,678795388
100,7,20,Ticks_Linear_8,34,9999,9999,9999,679555124
100,7,20,Ticks_Linear_8,35,9999,9999,9999,680305724
100,7,20,Ticks_Linear_8,36,9999,9999,9999,681055348
100,7,20,Ticks_Linear_8,37,9999,9999,9999,681805944
100,7,20,Ticks_Linear_8,38,9999,9999,9999,682555492
100,7,20,Ticks_Linear_8,39,9999,9999,9999,683306084
100,7,20,Ticks_Linear_8,40,9999,9999,9999,684045424
100,7,20,Ticks_Linear_8,41,9999,9999,9999,684785740
100,7,20,Ticks_Linear_8,42,9999,9999,9999,685526080
100,7,20,Ticks_Linear_8,43,9999,9999,9999,686275704
100,7,20,Ticks_Linear_8,44,9999,9999,9999,687016040
100,7,20,Ticks_Linear_8,45,9999,9999,9999,687745140
100,7,20,Ticks_Linear_8,46,9999,9999,9999,688475224
100,7,20,Ticks_Linear_8,47,9999,9999,9999,689205304
100,7,20,Ticks_Linear_8,48,9999,9999,9999,689935456
100,7,20,Ticks_Linear_8,49,9999,9999,9999,690665580
100,7,20,Ticks_Linear_8,50,9999,9999,9999,691385408
100,7,20,Ticks_Linear_8,51,9999,9999,9999,692105300
100,7,20,Ticks_Linear_8,52,9999,9999,9999,692825196
100,7,20,Ticks_Linear_8,53,9999,9999,9999,693546056
100,7,20,Ticks_Linear_8,54,9999,9999,9999,694265928
100,7,20,Ticks_Linear_8,55,9999,9999,9999,694975568
100,7,20,Ticks_Linear_8,56,9999,9999,9999,695685204
100,7,20,Ticks_Linear_8,57,9999,9999,9999,696395884
100,7,20,Ticks_Linear_8,58,9999,9999,9999,697105520
100,7,20,Ticks_Linear_8,59,9999,9999,9999,697815124
100,7,20,Ticks_Linear_8,60,9999,9999,9999,698515552
100,7,20,Ticks_Linear_8,61,9999,9999,9999,699215976
100,7,20,Ticks_Linear_8,62,9999,9999,9999,699915328
100,7,20,Ticks_Linear_8,63,9999,9999,9999,700615740
100,7,20,Ticks_Linear_8,64,9999,9999,9999,701315192
100,7,20,Ticks_Linear_8,65,9999,9999,9999,702005356
100,7,20,Ticks_Linear_8,66,9999,9999,9999,702695496
100,7,20,Ticks_Linear_8,67,9999,9999,9999,703385664
100,7,20,Ticks_Linear_8,68,9999,9999,9999,704075896
100,7,20,Ticks_Linear_8,69,9999,9999,9999,704766040
100,7,20,Ticks_Linear_8,70,9999,9999,9999,705445944
100,7,20,Ticks_Linear_8,71,9999,9999,9999,706125920
100,7,20,Ticks_Linear_8,72,9999,9999,9999,706805868
100,7,20,Ticks_Linear_8,73,9999,9999,9999,707485780
100,7,20,Ticks_Linear_8,74,9999,9999,9999,708165752
100,7,20,Ticks_Linear_8,75,9999,9999,9999,708835448
100,7,20,Ticks_Linear_8,76,9999,9999,9999,709505100
100,7,20,Ticks_Linear_8,77,9999,9999,9999,710175868
100,7,20,Ticks_Linear_8,78,9999,9999,9999,710845560
100,7,20,Ticks_Linear_8,79,9999,9999,9999,711515208
100,7,20,Ticks_Linear_8,80,9999,9999,9999,712175684
100,7,20,Ticks_Linear_8,81,9999,9999,9999,712835152
100,7,20,Ticks_Linear_8,82,9999,9999,9999,713495656
100,7,20,Ticks_Linear_8,83,9999,9999,9999,714155092
100,7,20,Ticks_Linear_8,84,9999,9999,9999,714815600
100,7,20,Ticks_Linear_8,85,9999,9999,9999,715465824
100,7,20,Ticks_Linear_8,86,9999,9999,9999,716116064
100,7,20,Ticks_Linear_8,87,9999,9999,9999,716765240
100,7,20,Ticks_Linear_8,88,9999,9999,9999,717415488
100,7,20,Ticks_Linear_8,89,9999,9999,9999,718065716
100,7,20,Ticks_Linear_8,90,9999,9999,9999,718705780
100,7,20,Ticks_Linear_8,91,9999,9999,9999,719345748
100,7,20,Ticks_Linear_8,92,9999,9999,9999,719985736
100,7,20,Ticks_Linear_8,93,9999,9999,9999,720625772
100,7,20,Ticks_Linear_8,94,9999,9999,9999,721265736
100,7,20,Ticks_Linear_8,95,9999,9999,9999,721895516
100,7,20,Ticks_Linear_8,96,9999,9999,9999,722525240
100,7,20,Ticks_Linear_8,97,9999,9999,9999,723156072
100,7,20,Ticks_Linear_8,98,9999,9999,9999,723785800
100,7,20,Ticks_Linear_8,99,9999,9999,9999,724415576
100,7,20,Ticks_Linear_8,100,9999,9999,9999,725035120
100,7,20,Ticks_Linear_8,101,9999,9999,9999,725655612
100,7,20,Ticks_Linear_8,102,9999,9999,9999,726275132
100,7,20,Ticks_Linear_8,103,9999,9999,9999,726895724
100,7,20,Ticks_Linear_8,104,9999,9999,9999,727515244
100,7,20,Ticks_Linear_8,105,9999,9999,9999,728125508
100,7,20,Ticks_Linear_8,106,9999,9999,9999,728735812
100,7,20,Ticks_Linear_8,107,9999,9999,9999,729345080
100,7,20,Ticks_Linear_8,108,9999,9999,9999,729955404
100,7,20,Ticks_Linear_8,109,9999,9999,9999,730565720
100,7,20,Ticks_Linear_8,110,9999,9999,9999,731165792
100,7,20,Ticks_Linear_8,111,9999,9999,9999,731765836
100,7,20,Ticks_Linear_8,112,9999,9999,9999,732365892
100,7,20,Ticks_Linear_8,113,9999,9999,9999,732965960
100,7,20,Ticks_Linear_8,114,9999,9999,9999,733566008
100,7,20,Ticks_Linear_8,115,9999,9999,9999,734155872
100,7,20,Ticks_Linear_8,116,9999,9999,9999,734745696
100,7,20,Ticks_Linear_8,117,9999,9999,9999,735335484
100,7,20,Ticks_Linear_8,118,9999,9999,9999,735925344
100,7,20,Ticks_Linear_8,119,9999,9999,9999,736515132
100,7,20,Ticks_Linear_8,120,9999,9999,9999,737095744
100,7,20,Ticks_Linear_8,121,9999,9999,9999,737675348
100,7,20,Ticks_Linear_8,122,9999,9999,9999,738255924
100,7,20,Ticks_Linear_8,123,9999,9999,9999,738835548
100,7,20,Ticks_Linear_8,124,9999,9999,9999,739415156
100,7,20,Ticks_Linear_8,125,9999,9999,9999,739985480
100,7,20,Ticks_Linear_8,126,9999,9999,9999,740555864
100,7,20,Ticks_Linear_8,127,9999,9999,9999,741125212
100,7,20,Ticks_Linear_8,128,9999,9999,9999,741695556
100,7,20,Ticks_Linear_8,129,9999,9999,9999,742265948
100,7,20,Ticks_Linear_8,130,9999,9999,9999,742826088
100,7,20,Ticks_Linear_8,131,9999,9999,9999,743385172
100,7,20,Ticks_Linear_8,132,9999,9999,9999,743945308
100,7,20,Ticks_Linear_8,133,9999,9999,9999,744505464
100,7,20,Ticks_Linear_8,134,9999,9999,9999,745065600
100,7,20,Ticks_Linear_8,135,9999,9999,9999,745615468
100,7,20,Ticks_Linear_8,136,9999,9999,9999,746165352
100,7,20,Ticks_Linear_8,137,9999,9999,9999,746715224
100,7,20,Ticks_Linear_8,138,9999,9999,9999,747265092
100,7,20,Ticks_Linear_8,139,9999,9999,9999,747816044
100,7,20,Ticks_Linear_8,140,9999,9999,9999,748355656
100,7,20,Ticks_Linear_8,141,9999,9999,9999,748895352
100,7,20,Ticks_Linear_8,142,9999,9999,9999,749436016
100,7,20,Ticks_Linear_8,143,9999,9999,9999,749975624
100,7,20,Ticks_Linear_8,144,9999,9999,9999,750515316
100,7,20,Ticks_Linear_8,145,9999,9999,9999,751045720
100,7,20,Ticks_Linear_8,146,9999,9999,9999,751575160
100,7,20,Ticks_Linear_8,147,9999,9999,9999,752105560
100,7,20,Ticks_Linear_8,148,9999,9999,9999,752635964
100,7,20,Ticks_Linear_8,149,9999,9999,9999,753165420
100,7,20,Ticks_Linear_8,150,9999,9999,9999,753685564
100,7,20,Ticks_Linear_8,151,9999,9999,9999,754205776
100,7,20,Ticks_Linear_8,152,9999,9999,9999,754726000
100,7,20,Ticks_Linear_8,153,9999,9999,9999,755245172
100,7,20,Ticks_Linear_8,154,9999,9999,9999,755765316
100,7,20,Ticks_Linear_8,155,9999,9999,9999,756275276
100,7,20,Ticks_Linear_8,156,9999,9999,9999,756785228
100,7,20,Ticks_Linear_8,157,9999,9999,9999,757295192
100,7,20,Ticks_Linear_8,158,9999,9999,9999,757805148
100,7,20,Ticks_Linear_8,159,9999,9999,9999,758315116
100,7,20,Ticks_Linear_8,160,9999,9999,9999,758815864
100,7,20,Ticks_Linear_8,161,9999,9999,9999,759315556
100,7,20,Ticks_Linear_8,162,9999,9999,9999,759815236
100,7,20,Ticks_Linear_8,163,9999,9999,9999,760315980
100,7,20,Ticks_Linear_8,164,9999,9999,9999,760815680
100,7,20,Ticks_Linear_8,165,9999,9999,9999,761305196
100,7,20,Ticks_Linear_8,166,9999,9999,9999,761795692
100,7,20,Ticks_Linear_8,167,9999,9999,9999,762285132
100,7,20,Ticks_Linear_8,168,9999,9999,9999,762775620
100,7,20,Ticks_Linear_8,169,9999,9999,9999,763265128
100,8,21,Ticks_Linear_5,0,5,42,127,771893676
100,8,21,Ticks_Linear_5,1,5,42,127,772373924
100,8,21,Ticks_Linear_5,2,5,42,127,772854148
100,8,21,Ticks_Linear_5,3,5,42,127,773334624
100,8,21,Ticks_Linear_5,4,5,42,127,773813828
100,8,21,Ticks_Linear_5,5,1,48,41,773815392
100,8,21,Ticks_Linear_5,6,1,48,46,774269736
100,8,21,Ticks_Linear_5,7,5,42,127,774304156
100,8,21,Ticks_Linear_5,8,1,48,39,774747204
100,8,21,Ticks_Linear_5,9,5,42,127,774793596
100,8,21,Ticks_Linear_5,10,1,48,49,775220908
100,8,21,Ticks_Linear_5,11,5,42,127,775284456
100,8,21,Ticks_Linear_5,12,1,48,50,775728024
100,8,21,Ticks_Linear_5,13,5,42,127,775773528
100,8,21,Ticks_Linear_5,14,1,48,43,776263268
100,8,21,Ticks_Linear_5,15,5,42,127,776264764
100,8,21,Ticks_Linear_5,16,1,48,45,776732004
100,8,21,Ticks_Linear_5,17,5,42,127,776763792
100,8,21,Ticks_Linear_5,18,1,48,43,777213032
100,8,21,Ticks_Linear_5,19,5,42,127,777263564
100,8,21,Ticks_Linear_5,20,1,48,36,777729940
100,8,21,Ticks_Linear_5,21,5,42,127,777764312
100,8,21,Ticks_Linear_5,22,1,48,45,778233544
100,8,21,Ticks_Linear_5,23,5,42,127,778263864
100,8,21,Ticks_Linear_5,24,1,48,45,778718712
100,8,21,Ticks_Linear_5,25,5,42,127,778763636
100,8,21,Ticks_Linear_5,26,1,48,44,779233320
100,8,21,Ticks_Linear_5,27,5,42,127,779273572
100,8,21,Ticks_Linear_5,28,1,48,48,779735112
100,8,21,Ticks_Linear_5,29,5,42,127,779783456
100,8,21,Ticks_Linear_5,30,1,48,54,780235112
100,8,21,Ticks_Linear_5,31,5,42,127,780293636
100,8,21,Ticks_Linear_5,32,1,48,45,780757944
100,8,21,Ticks_Linear_5,33,5,42,127,780803596
100,8,21,Ticks_Linear_5,34,1,48,39,781276968
100,8,21,Ticks_Linear_5,35,5,42,127,781314528
100,8,21,Ticks_Linear_5,36,1,48,46,781818084
100,8,21,Ticks_Linear_5,37,5,42,127,781843684
100,8,21,Ticks_Linear_5,38,1,48,45,782321516
100,8,21,Ticks_Linear_5,39,5,42,127,782363976
100,8,21,Ticks_Linear_5,40,1,48,47,782853284
100,8,21,Ticks_Linear_5,41,5,42,127,782884268
100,8,21,Ticks_Linear_5,42,1,48,43,783340088
100,8,21,Ticks_Linear_5,43,5,42,127,783404264
100,8,21,Ticks_Linear_5,44,1,48,43,783880456
100,8,21,Ticks_Linear_5,45,5,42,127,783923512
100,8,21,Ticks_Linear_5,46,1,48,47,784414184
100,8,21,Ticks_Linear_5,47,5,42,127,784453988
100,8,21,Ticks_Linear_5,48,1,48,46,784917324
100,8,21,Ticks_Linear_5,49,5,42,127,784984464
100,8,21,Ticks_Linear_5,50,1,48,45,785482784
100,8,21,Ticks_Linear_5,51,5,42,127,785524228
100,8,21,Ticks_Linear_5,52,1,48,37,786036688
100,8,21,Ticks_Linear_5,53,5,42,127,786053436
100,8,21,Ticks_Linear_5,54,1,48,48,786562456
100,8,21,Ticks_Linear_5,55,5,42,127,786583836
100,8,21,Ticks_Linear_5,56,1,48,45,787108580
100,8,21,Ticks_Linear_5,57,5,42,127,787123452
100,8,21,Ticks_Linear_5,58,1,48,42,787661368
100,8,21,Ticks_Linear_5,59,5,42,127,787664484
100,8,21,Ticks_Linear_5,60,1,48,39,788184292
100,8,21,Ticks_Linear_5,61,5,42,127,788203804
100,8,21,Ticks_Linear_5,62,1,48,45,788712676
100,8,21,Ticks_Linear_5,63,5,42,127,788743492
100,8,21,Ticks_Linear_5,64,1,48,42,789250336
100,8,21,Ticks_Linear_5,65,5,42,127,789284328
100,8,21,Ticks_Linear_5,66,1,48,37,789780540
100,8,21,Ticks_Linear_5,67,5,42,127,789834056
100,8,21,Ticks_Linear_5,68,1,48,40,790331996
100,8,21,Ticks_Linear_5,69,5,42,127,790383856
100,8,21,Ticks_Linear_5,70,1,48,43,790885832
100,8,21,Ticks_Linear_5,71,5,42,127,790933804
100,8,21,Ticks_Linear_5,72,1,48,37,791464992
100,8,21,Ticks_Linear_5,73,5,42,127,791483900
100,8,21,Ticks_Linear_5,74,1,48,45,791995092
100,8,21,Ticks_Linear_5,75,5,42,127,792033628
100,8,21,Ticks_Linear_5,76,1,48,46,792520100
100,8,21,Ticks_Linear_5,77,5,42,127,792593932
100,8,21,Ticks_Linear_5,78,1,48,40,793117256
100,8,21,Ticks_Linear_5,79,5,42,127,793153768
100,8,21,Ticks_Linear_5,80,5,42,127,793714056
100,8,21,Ticks_Linear_5,81,1,48,38,793720240
100,8,21,Ticks_Linear_5,82,1,48,45,794252728
100,8,21,Ticks_Linear_5,83,5,42,127,794274180
100,8,21,Ticks_Linear_5,84,1,48,43,794806940
100,8,21,Ticks_Linear_5,85,5,42,127,794834168
100,8,21,Ticks_Linear_5,86,1,48,39,795351652
100,8,21,Ticks_Linear_5,87,5,42,127,795403688
100,8,21,Ticks_Linear_5,88,1,48,40,795925064
100,8,21,Ticks_Linear_5,89,5,42,127,795974228
100,8,21,Ticks_Linear_5,90,1,48,47,796459880
100,8,21,Ticks_Linear_5,91,5,42,127,796544324
100,8,21,Ticks_Linear_5,92,1,48,34,797048400
100,8,21,Ticks_Linear_5,93,5,42,127,797113820
100,8,21,Ticks_Linear_5,94,5,42,127,797684364
100,8,21,Ticks_Linear_5,95,1,48,38,797695872
100,8,21,Ticks_Linear_5,96,5,42,127,798263696
100,8,21,Ticks_Linear_5,97,1,48,40,798297596
100,8,21,Ticks_Linear_5,98,5,42,127,798844276
100,8,21,Ticks_Linear_5,99,1,48,38,798909996
100,8,21,Ticks_Linear_5,100,5,42,127,799423956
100,8,21,Ticks_Linear_5,101,1,48,44,799441668
100,8,21,Ticks_Linear_5,102,1,48,43,799984716
100,8,21,Ticks_Linear_5,103,5,42,127,800003400
100,8,21,Ticks_Linear_5,104,1,48,44,800576924
100,8,21,Ticks_Linear_5,105,5,42,127,800584080
100,8,21,Ticks_Linear_5,106,1,48,45,801150984
100,8,21,Ticks_Linear_5,107,5,42,127,801174016
100,8,21,Ticks_Linear_5,108,1,48,43,801702660
100,8,21,Ticks_Linear_5,109,5,42,127,801763804
100,8,21,Ticks_Linear_5,110,1,48,44,802305108
100,8,21,Ticks_Linear_5,111,5,42,127,802353548
100,8,21,Ticks_Linear_5,112,1,48,45,802925920
100,8,21,Ticks_Linear_5,113,5,42,127,802944308
100,8,21,Ticks_Linear_5,114,1,48,46,803508816
100,8,21,Ticks_Linear_5,115,5,42,127,803534172
100,8,21,Ticks_Linear_5,116,1,48,43,804078908
100,8,21,Ticks_Linear_5,117,5,42,127,804134244
100,8,21,Ticks_Linear_5,118,1,48,40,804679880
100,8,21,Ticks_Linear_5,119,5,42,127,804734364
100,8,21,Ticks_Linear_5,120,1,48,46,805256792
100,8,21,Ticks_Linear_5,121,5,42,127,805334416
100,8,21,Ticks_Linear_5,122,1,48,38,805896080
100,8,21,Ticks_Linear_5,123,5,42,127,805933516
100,8,21,Ticks_Linear_5,124,5,42,127,806533500
100,8,21,Ticks_Linear_5,125,1,48,42,806574736
100,8,21,Ticks_Linear_5,126,5,42,127,807143732
100,8,21,Ticks_Linear_5,127,1,48,39,807194880
100,8,21,Ticks_Linear_5,128,1,48,30,807733652
100,8,21,Ticks_Linear_5,129,5,42,127,807754056
100,8,21,Ticks_Linear_5,130,1,48,38,808361768
100,8,21,Ticks_Linear_5,131,5,42,127,808364440
100,8,21,Ticks_Linear_5,132,1,48,38,808929772
100,8,21,Ticks_Linear_5,133,5,42,127,808973576
100,8,21,Ticks_Linear_5,134,1,48,41,809564524
100,8,21,Ticks_Linear_5,135,5,42,127,809584180
100,8,21,Ticks_Linear_5,136,1,48,46,810116268
100,8,21,Ticks_Linear_5,137,5,42,127,810203552
100,8,21,Ticks_Linear_5,138,1,48,43,810785236
100,8,21,Ticks_Linear_5,139,5,42,127,810824144
100,8,21,Ticks_Linear_5,140,1,48,46,811426024
100,8,21,Ticks_Linear_5,141,5,42,127,811443512
100,8,21,Ticks_Linear_5,142,1,48,45,812047440
100,8,21,Ticks_Linear_5,143,5,42,127,812064104
100,8,21,Ticks_Linear_5,144,1,48,34,812654080
100,8,21,Ticks_Linear_5,145,5,42,127,812683700
100,8,21,Ticks_Linear_5,146,1,48,41,813264164
100,8,21,Ticks_Linear_5,147,5,42,127,813314304
100,8,21,Ticks_Linear_5,148,1,48,38,813876668
100,8,21,Ticks_Linear_5,149,5,42,127,813954440
100,8,21,Ticks_Linear_5,150,1,48,40,814541948
100,8,21,Ticks_Linear_5,151,5,42,127,814594552
100,8,21,Ticks_Linear_5,152,5,42,127,815234396
100,8,21,Ticks_Linear_5,153,1,48,44,815256088
100,8,21,Ticks_Linear_5,154,5,42,127,815874288
100,8,21,Ticks_Linear_5,155,1,48,38,815876300
100,8,21,Ticks_Linear_5,156,5,42,127,816514352
100,8,21,Ticks_Linear_5,157,1,48,40,816522644
100,8,21,Ticks_Linear_5,158,1,48,45,817101240
100,8,21,Ticks_Linear_5,159,5,42,127,817154380
100,8,21,Ticks_Linear_5,160,1,48,38,817747672
100,8,21,Ticks_Linear_5,161,5,42,127,817794372
100,8,21,Ticks_Linear_5,162,1,48,35,818433732
100,8,21,Ticks_Linear_5,163,5,42,127,818435232
100,8,21,Ticks_Linear_5,164,5,42,127,819074404
100,8,21,Ticks_Linear_5,165,1,48,41,819083964
100,8,21,Ticks_Linear_5,166,1,48,40,819728120
100,8,21,Ticks_Linear_5,167,5,42,127,819734004
100,8,21,Ticks_Linear_5,168,5,42,127,820384084
100,8,21,Ticks_Linear_5,169,1,48,44,820386172
100,8,21,Ticks_Linear_5,170,1,48,42,821026792
100,8,21,Ticks_Linear_5,171,5,42,127,821034324
100,8,21,Ticks_Linear_5,172,5,42,127,821683432
100,8,21,Ticks_Linear_5,173,1,48,44,821688044
100,8,21,Ticks_Linear_5,174,1,48,40,822313936
100,8,21,Ticks_Linear_5,175,5,42,127,822333748
100,8,21,Ticks_Linear_5,176,1,48,41,822990068
100,8,21,Ticks_Linear_5,177,5,42,127,822994380
100,8,21,Ticks_Linear_5,178,1,48,38,823631248
100,8,21,Ticks_Linear_5,179,5,42,127,823654060
100,8,21,Ticks_Linear_5,180,1,48,34,824300124
100,8,21,Ticks_Linear_5,181,5,42,127,824314100
100,8,21,Ticks_Linear_5,182,1,48,44,824956292
100,8,21,Ticks_Linear_5,183,5,42,127,824973928
100,8,21,Ticks_Linear_5,184,1,48,39,825564284
100,8,21,Ticks_Linear_5,185,5,42,127,825634140
100,8,21,Ticks_Linear_5,186,1,48,42,826278032
100,8,21,Ticks_Linear_5,187,5,42,127,826304056
100,8,21,Ticks_Linear_5,188,5,42,127,826973856
100,8,21,Ticks_Linear_5,189,1,48,34,826976756
100,8,21,Ticks_Linear_5,190,5,42,127,827644228
100,8,21,Ticks_Linear_5,191,1,48,41,827653196
100,8,21,Ticks_Linear_5,192,1,48,39,828311120
100,8,21,Ticks_Linear_5,193,5,42,127,828313864
100,8,21,Ticks_Linear_5,194,1,48,44,828967884
100,8,21,Ticks_Linear_5,195,5,42,127,828983880
100,8,21,Ticks_Linear_5,196,1,48,38,829599164
100,8,21,Ticks_Linear_5,197,5,42,127,829663760
100,8,21,Ticks_Linear_5,198,1,48,38,830272184
100,8,21,Ticks_Linear_5,199,5,42,127,830343664
100,8,21,Ticks_Linear_5,200,5,42,127,831023352
100,8,21,Ticks_Linear_5,201,1,48,43,831097832
100,8,21,Ticks_Linear_5,202,5,42,127,831704500
100,8,21,Ticks_Linear_5,203,1,48,42,831709420
100,8,21,Ticks_Linear_5,204,1,48,39,832325800
100,8,21,Ticks_Linear_5,205,5,42,127,832393684
100,8,21,Ticks_Linear_5,206,1,48,39,832988896
100,8,21,Ticks_Linear_5,207,5,42,127,833083700
100,8,21,Ticks_Linear_5,208,1,48,43,833721976
100,8,21,Ticks_Linear_5,209,5,42,127,833773984
100,8,21,Ticks_Linear_5,210,1,48,44,834445012
100,8,21,Ticks_Linear_5,211,5,42,127,834464148
100,8,21,Ticks_Linear_5,212,1,48,34,835154020
100,8,21,Ticks_Linear_5,213,5,42,127,835155508
100,8,21,Ticks_Linear_5,214,5,42,127,835843560
100,8,21,Ticks_Linear_5,215,1,48,35,835844524
100,8,21,Ticks_Linear_5,216,1,48,40,836542164
100,8,21,Ticks_Linear_5,217,5,42,127,836543752
100,8,21,Ticks_Linear_5,218,5,42,127,837244256
100,8,21,Ticks_Linear_5,219,1,48,35,837254864
100,8,21,Ticks_Linear_5,220,1,48,27,837943852
100,8,21,Ticks_Linear_5,221,5,42,127,837945116
100,8,21,Ticks_Linear_5,222,1,48,35,838616796
100,8,21,Ticks_Linear_5,223,5,42,127,838644096
100,8,21,Ticks_Linear_5,224,1,48,27,839318264
100,8,21,Ticks_Linear_5,225,5,42,127,839343620
100,8,21,Ticks_Linear_5,226,1,48,35,840033892
100,8,21,Ticks_Linear_5,227,5,42,127,840054152
100,8,21,Ticks_Linear_5,228,1,48,42,840680064
100,8,21,Ticks_Linear_5,229,5,42,127,840763856
100,8,21,Ticks_Linear_5,230,1,48,40,841385956
100,8,21,Ticks_Linear_5,231,5,42,127,841474664
100,8,21,Ticks_Linear_5,232,5,42,127,842194488
100,8,21,Ticks_Linear_5,233,1,48,31,842246132
100,8,21,Ticks_Linear_5,234,5,42,127,842903900
100,8,21,Ticks_Linear_5,235,1,48,36,842946860
100,8,21,Ticks_Linear_5,236,5,42,127,843623792
100,8,21,Ticks_Linear_5,237,1,48,34,843627360
100,8,21,Ticks_Linear_5,238,1,48,33,844295832
100,8,21,Ticks_Linear_5,239,5,42,127,844343580
100,8,21,Ticks_Linear_5,240,1,48,25,845020268
100,8,21,Ticks_Linear_5,241,5,42,127,845063820
100,8,21,Ticks_Linear_5,242,5,42,127,845784664
100,8,21,Ticks_Linear_5,243,1,48,29,845823292
100,8,21,Ticks_Linear_5,244,5,42,127,846513696
100,8,21,Ticks_Linear_5,245,1,48,41,846526100
100,8,21,Ticks_Linear_5,246,1,48,31,847199468
100,8,21,Ticks_Linear_5,247,5,42,127,847243696
100,8,21,Ticks_Linear_5,248,5,42,127,847973632
100,8,21,Ticks_Linear_5,249,1,48,26,847974896
100,8,21,Ticks_Linear_5,250,1,48,37,848698792
100,8,21,Ticks_Linear_5,251,5,42,127,848703852
100,8,21,Ticks_Linear_5,252,5,42,127,849433936
100,8,21,Ticks_Linear_5,253,1,48,35,849451888
100,8,21,Ticks_Linear_5,254,1,48,38,850130236
100,8,21,Ticks_Linear_5,255,5,42,127,850164056
100,8,21,Ticks_Linear_5,256,1,48,36,850871784
100,8,21,Ticks_Linear_5,257,5,42,127,850904544
100,8,21,Ticks_Linear_5,258,1,48,41,851598780
100,8,21,Ticks_Linear_5,259,5,42,127,851654016
100,8,21,Ticks_Linear_5,260,1,48,36,852373420
100,8,21,Ticks_Linear_5,261,5,42,127,852394576
100,8,21,Ticks_Linear_5,262,5,42,127,853133652
100,8,21,Ticks_Linear_5,263,1,48,38,853154592
100,8,21,Ticks_Linear_5,264,1,48,36,853866228
100,8,21,Ticks_Linear_5,265,5,42,127,853874060
100,8,21,Ticks_Linear_5,266,1,48,36,854593312
100,8,21,Ticks_Linear_5,267,5,42,127,854623680
100,8,21,Ticks_Linear_5,268,1,48,42,855330648
100,8,21,Ticks_Linear_5,269,5,42,127,855374428
100,8,21,Ticks_Linear_5,270,1,48,35,856075184
100,8,21,Ticks_Linear_5,271,5,42,127,856123752
100,8,21,Ticks_Linear_5,272,5,42,127,856874504
100,8,21,Ticks_Linear_5,273,1,48,43,856875472
100,8,21,Ticks_Linear_5,274,5,42,127,857623980
100,8,21,Ticks_Linear_5,275,1,48,43,857638184
100,8,21,Ticks_Linear_5,276,5,42,127,858383640
100,8,21,Ticks_Linear_5,277,1,48,44,858397688
100,8,21,Ticks_Linear_5,278,1,48,43,859118504
100,8,21,Ticks_Linear_5,279,5,42,127,859143664
100,8,21,Ticks_Linear_5,280,1,48,41,859904796
100,8,21,Ticks_Linear_5,281,5,42,127,859906068
100,8,21,Ticks_Linear_5,282,1,48,40,860649204
100,8,21,Ticks_Linear_5,283,5,42,127,860664300
100,8,21,Ticks_Linear_5,284,1,48,47,861401464
100,8,21,Ticks_Linear_5,285,5,42,127,861423888
100,8,21,Ticks_Linear_5,286,1,48,40,862158564
100,8,21,Ticks_Linear_5,287,5,42,127,862194328
100,8,21,Ticks_Linear_5,288,5,42,127,862964252
100,8,21,Ticks_Linear_5,289,1,48,48,862966928
100,8,21,Ticks_Linear_5,290,5,42,127,863734172
100,8,21,Ticks_Linear_5,291,1,48,36,863735508
100,8,21,Ticks_Linear_5,292,1,48,42,864468544
100,8,21,Ticks_Linear_5,293,5,42,127,864504604
100,8,21,Ticks_Linear_5,294,1,48,35,865190828
100,8,21,Ticks_Linear_5,295,5,42,127,865274224
100,8,21,Ticks_Linear_5,296,1,48,29,865995500
100,8,21,Ticks_Linear_5,297,5,42,127,866053580
100,8,21,Ticks_Linear_5,298,5,42,127,866833784
100,8,21,Ticks_Linear_5,299,1,48,46,866875920
100,8,21,Ticks_Linear_5,300,5,42,127,867614036
100,8,21,Ticks_Linear_5,301,1,48,36,867616556
100,8,21,Ticks_Linear_5,302,1,48,39,868354084
100,8,21,Ticks_Linear_5,303,5,42,127,868394504
100,8,21,Ticks_Linear_5,304,1,48,32,869074868
100,8,21,Ticks_Linear_5,305,5,42,127,869173564
100,8,21,Ticks_Linear_5,306,1,48,40,869923372
100,8,21,Ticks_Linear_5,307,5,42,127,869964296
100,8,21,Ticks_Linear_5,308,5,42,127,870753548
100,8,21,Ticks_Linear_5,309,1,48,45,870811176
100,8,21,Ticks_Linear_5,310,1,48,36,871490612
100,8,21,Ticks_Linear_5,311,5,42,127,871544200
100,8,21,Ticks_Linear_5,312,1,48,31,872243084
100,8,21,Ticks_Linear_5,313,5,42,127,872333592
100,8,21,Ticks_Linear_5,314,1,48,37,873103020
100,8,21,Ticks_Linear_5,315,5,42,127,873124176
100,8,21,Ticks_Linear_5,316,5,42,127,873923980
100,8,21,Ticks_Linear_5,317,1,48,30,873957952
100,8,21,Ticks_Linear_5,318,5,42,127,874723704
100,8,21,Ticks_Linear_5,319,1,48,34,874738280
100,8,21,Ticks_Linear_5,320,1,48,39,875515736
100,8,21,Ticks_Linear_5,321,5,42,127,875523348
100,8,21,Ticks_Linear_5,322,1,48,36,876313168
100,8,21,Ticks_Linear_5,323,5,42,127,876324288
100,8,21,Ticks_Linear_5,324,1,48,40,877092976
100,8,21,Ticks_Linear_5,325,5,42,127,877124012
100,8,21,Ticks_Linear_5,326,1,48,43,877864092
100,8,21,Ticks_Linear_5,327,5,42,127,877934220
100,8,21,Ticks_Linear_5,328,1,48,38,878730152
100,8,21,Ticks_Linear_5,329,5,42,127,878743904
100,8,21,Ticks_Linear_5,330,5,42,127,879554044
100,8,21,Ticks_Linear_5,331,1,48,41,879595208
100,8,21,Ticks_Linear_5,332,1,48,39,880338144
100,8,21,Ticks_Linear_5,333,5,42,127,880363944
100,8,21,Ticks_Linear_5,334,1,48,38,881111884
100,8,21,Ticks_Linear_5,335,5,42,127,881173880
100,8,21,Ticks_Linear_5,0,9999,9999,9999,771891300
100,8,21,Ticks_Linear_5,1,9999,9999,9999,772371552
100,8,21,Ticks_Linear_5,2,9999,9999,9999,772851776
100,8,21,Ticks_Linear_5,3,9999,9999,9999,773332028
100,8,21,Ticks_Linear_5,4,9999,9999,9999,773811304
100,8,21,Ticks_Linear_5,5,9999,9999,9999,774301784
100,8,21,Ticks_Linear_5,6,9999,9999,9999,774791224
100,8,21,Ticks_Linear_5,7,9999,9999,9999,775281784
100,8,21,Ticks_Linear_5,8,9999,9999,9999,775771228
100,8,21,Ticks_Linear_5,9,9999,9999,9999,776261724
100,8,21,Ticks_Linear_5,10,9999,9999,9999,776761420
100,8,21,Ticks_Linear_5,11,9999,9999,9999,777261120
100,8,21,Ticks_Linear_5,12,9999,9999,9999,777761864
100,8,21,Ticks_Linear_5,13,9999,9999,9999,778261564
100,8,21,Ticks_Linear_5,14,9999,9999,9999,778761316
100,8,21,Ticks_Linear_5,15,9999,9999,9999,779271272
100,8,21,Ticks_Linear_5,16,9999,9999,9999,779781232
100,8,21,Ticks_Linear_5,17,9999,9999,9999,780291192
100,8,21,Ticks_Linear_5,18,9999,9999,9999,780801148
100,8,21,Ticks_Linear_5,19,9999,9999,9999,781312080
100,8,21,Ticks_Linear_5,20,9999,9999,9999,781841464
100,8,21,Ticks_Linear_5,21,9999,9999,9999,782361680
100,8,21,Ticks_Linear_5,22,9999,9999,9999,782881896
100,8,21,Ticks_Linear_5,23,9999,9999,9999,783402040
100,8,21,Ticks_Linear_5,24,9999,9999,9999,783921212
100,8,21,Ticks_Linear_5,25,9999,9999,9999,784451692
100,8,21,Ticks_Linear_5,26,9999,9999,9999,784982092
100,8,21,Ticks_Linear_5,27,9999,9999,9999,785521780
100,8,21,Ticks_Linear_5,28,9999,9999,9999,786051136
100,8,21,Ticks_Linear_5,29,9999,9999,9999,786581612
100,8,21,Ticks_Linear_5,30,9999,9999,9999,787121228
100,8,21,Ticks_Linear_5,31,9999,9999,9999,787661888
100,8,21,Ticks_Linear_5,32,9999,9999,9999,788201580
100,8,21,Ticks_Linear_5,33,9999,9999,9999,788741196
100,8,21,Ticks_Linear_5,34,9999,9999,9999,789281880
100,8,21,Ticks_Linear_5,35,9999,9999,9999,789831756
100,8,21,Ticks_Linear_5,36,9999,9999,9999,790381632
100,8,21,Ticks_Linear_5,37,9999,9999,9999,790931580
100,8,21,Ticks_Linear_5,38,9999,9999,9999,791481456
100,8,21,Ticks_Linear_5,39,9999,9999,9999,792031328
100,8,21,Ticks_Linear_5,40,9999,9999,9999,792591484
100,8,21,Ticks_Linear_5,41,9999,9999,9999,793151544
100,8,21,Ticks_Linear_5,42,9999,9999,9999,793711684
100,8,21,Ticks_Linear_5,43,9999,9999,9999,794271808
100,8,21,Ticks_Linear_5,44,9999,9999,9999,794831944
100,8,21,Ticks_Linear_5,45,9999,9999,9999,795401288
100,8,21,Ticks_Linear_5,46,9999,9999,9999,795971708
100,8,21,Ticks_Linear_5,47,9999,9999,9999,796542024
100,8,21,Ticks_Linear_5,48,9999,9999,9999,797111372
100,8,21,Ticks_Linear_5,49,9999,9999,9999,797681768
100,8,21,Ticks_Linear_5,50,9999,9999,9999,798261324
100,8,21,Ticks_Linear_5,51,9999,9999,9999,798841976
100,8,21,Ticks_Linear_5,52,9999,9999,9999,799421508
100,8,21,Ticks_Linear_5,53,9999,9999,9999,800001104
100,8,21,Ticks_Linear_5,54,9999,9999,9999,800581704
100,8,21,Ticks_Linear_5,55,9999,9999,9999,801171572
100,8,21,Ticks_Linear_5,56,9999,9999,9999,801761360
100,8,21,Ticks_Linear_5,57,9999,9999,9999,802351172
100,8,21,Ticks_Linear_5,58,9999,9999,9999,802942008
100,8,21,Ticks_Linear_5,59,9999,9999,9999,803531872
100,8,21,Ticks_Linear_5,60,9999,9999,9999,804131944
100,8,21,Ticks_Linear_5,61,9999,9999,9999,804731992
100,8,21,Ticks_Linear_5,62,9999,9999,9999,805332044
100,8,21,Ticks_Linear_5,63,9999,9999,9999,805931072
100,8,21,Ticks_Linear_5,64,9999,9999,9999,806531200
100,8,21,Ticks_Linear_5,65,9999,9999,9999,807141432
100,8,21,Ticks_Linear_5,66,9999,9999,9999,807751760
100,8,21,Ticks_Linear_5,67,9999,9999,9999,808362068
100,8,21,Ticks_Linear_5,68,9999,9999,9999,808971352
100,8,21,Ticks_Linear_5,69,9999,9999,9999,809581660
100,8,21,Ticks_Linear_5,70,9999,9999,9999,810201180
100,8,21,Ticks_Linear_5,71,9999,9999,9999,810821696
100,8,21,Ticks_Linear_5,72,9999,9999,9999,811441216
100,8,21,Ticks_Linear_5,73,9999,9999,9999,812061808
100,8,21,Ticks_Linear_5,74,9999,9999,9999,812681328
100,8,21,Ticks_Linear_5,75,9999,9999,9999,813312080
100,8,21,Ticks_Linear_5,76,9999,9999,9999,813952068
100,8,21,Ticks_Linear_5,77,9999,9999,9999,814592104
100,8,21,Ticks_Linear_5,78,9999,9999,9999,815232096
100,8,21,Ticks_Linear_5,79,9999,9999,9999,815872064
100,8,21,Ticks_Linear_5,80,9999,9999,9999,816512128
100,8,21,Ticks_Linear_5,81,9999,9999,9999,817152084
100,8,21,Ticks_Linear_5,82,9999,9999,9999,817792072
100,8,21,Ticks_Linear_5,83,9999,9999,9999,818432116
100,8,21,Ticks_Linear_5,84,9999,9999,9999,819072104
100,8,21,Ticks_Linear_5,85,9999,9999,9999,819731556
100,8,21,Ticks_Linear_5,86,9999,9999,9999,820381788
100,8,21,Ticks_Linear_5,87,9999,9999,9999,821032028
100,8,21,Ticks_Linear_5,88,9999,9999,9999,821681208
100,8,21,Ticks_Linear_5,89,9999,9999,9999,822331448
100,8,21,Ticks_Linear_5,90,9999,9999,9999,822991932
100,8,21,Ticks_Linear_5,91,9999,9999,9999,823651392
100,8,21,Ticks_Linear_5,92,9999,9999,9999,824311876
100,8,21,Ticks_Linear_5,93,9999,9999,9999,824971332
100,8,21,Ticks_Linear_5,94,9999,9999,9999,825631840
100,8,21,Ticks_Linear_5,95,9999,9999,9999,826301536
100,8,21,Ticks_Linear_5,96,9999,9999,9999,826971260
100,8,21,Ticks_Linear_5,97,9999,9999,9999,827641928
100,8,21,Ticks_Linear_5,98,9999,9999,9999,828311640
100,8,21,Ticks_Linear_5,99,9999,9999,9999,828981360
100,8,21,Ticks_Linear_5,100,9999,9999,9999,829661236
100,8,21,Ticks_Linear_5,101,9999,9999,9999,830341216
100,8,21,Ticks_Linear_5,102,9999,9999,9999,831021128
100,8,21,Ticks_Linear_5,103,9999,9999,9999,831702128
100,8,21,Ticks_Linear_5,104,9999,9999,9999,832391240
100,8,21,Ticks_Linear_5,105,9999,9999,9999,833081400
100,8,21,Ticks_Linear_5,106,9999,9999,9999,833771612
100,8,21,Ticks_Linear_5,107,9999,9999,9999,834461776
100,8,21,Ticks_Linear_5,108,9999,9999,9999,835151944
100,8,21,Ticks_Linear_5,109,9999,9999,9999,835841112
100,8,21,Ticks_Linear_5,110,9999,9999,9999,836541540
100,8,21,Ticks_Linear_5,111,9999,9999,9999,837241956
100,8,21,Ticks_Linear_5,112,9999,9999,9999,837941332
100,8,21,Ticks_Linear_5,113,9999,9999,9999,838641724
100,8,21,Ticks_Linear_5,114,9999,9999,9999,839341172
100,8,21,Ticks_Linear_5,115,9999,9999,9999,840051776
100,8,21,Ticks_Linear_5,116,9999,9999,9999,840761412
100,8,21,Ticks_Linear_5,117,9999,9999,9999,841472068
100,8,21,Ticks_Linear_5,118,9999,9999,9999,842191968
100,8,21,Ticks_Linear_5,119,9999,9999,9999,842901600
100,8,21,Ticks_Linear_5,120,9999,9999,9999,843621492
100,8,21,Ticks_Linear_5,121,9999,9999,9999,844341356
100,8,21,Ticks_Linear_5,122,9999,9999,9999,845061224
100,8,21,Ticks_Linear_5,123,9999,9999,9999,845782144
100,8,21,Ticks_Linear_5,124,9999,9999,9999,846511176
100,8,21,Ticks_Linear_5,125,9999,9999,9999,847241320
100,8,21,Ticks_Linear_5,126,9999,9999,9999,847971408
100,8,21,Ticks_Linear_5,127,9999,9999,9999,848701552
100,8,21,Ticks_Linear_5,128,9999,9999,9999,849431636
100,8,21,Ticks_Linear_5,129,9999,9999,9999,850161756
100,8,21,Ticks_Linear_5,130,9999,9999,9999,850902096
100,8,21,Ticks_Linear_5,131,9999,9999,9999,851651644
100,8,21,Ticks_Linear_5,132,9999,9999,9999,852392056
100,8,21,Ticks_Linear_5,133,9999,9999,9999,853131352
100,8,21,Ticks_Linear_5,134,9999,9999,9999,853871684
100,8,21,Ticks_Linear_5,135,9999,9999,9999,854621308
100,8,21,Ticks_Linear_5,136,9999,9999,9999,855371832
100,8,21,Ticks_Linear_5,137,9999,9999,9999,856121456
100,8,21,Ticks_Linear_5,138,9999,9999,9999,856872056
100,8,21,Ticks_Linear_5,139,9999,9999,9999,857621608
100,8,21,Ticks_Linear_5,140,9999,9999,9999,858381416
100,8,21,Ticks_Linear_5,141,9999,9999,9999,859141192
100,8,21,Ticks_Linear_5,142,9999,9999,9999,859902052
100,8,21,Ticks_Linear_5,143,9999,9999,9999,860661856
100,8,21,Ticks_Linear_5,144,9999,9999,9999,861421664
100,8,21,Ticks_Linear_5,145,9999,9999,9999,862191732
100,8,21,Ticks_Linear_5,146,9999,9999,9999,862961732
100,8,21,Ticks_Linear_5,147,9999,9999,9999,863731796
100,8,21,Ticks_Linear_5,148,9999,9999,9999,864501860
100,8,21,Ticks_Linear_5,149,9999,9999,9999,865271928
100,8,21,Ticks_Linear_5,150,9999,9999,9999,866051136
100,8,21,Ticks_Linear_5,151,9999,9999,9999,866831484
100,8,21,Ticks_Linear_5,152,9999,9999,9999,867611736
100,8,21,Ticks_Linear_5,153,9999,9999,9999,868392060
100,8,21,Ticks_Linear_5,154,9999,9999,9999,869171264
100,8,21,Ticks_Linear_5,155,9999,9999,9999,869961852
100,8,21,Ticks_Linear_5,156,9999,9999,9999,870751320
100,8,21,Ticks_Linear_5,157,9999,9999,9999,871541828
100,8,21,Ticks_Linear_5,158,9999,9999,9999,872331368
100,8,21,Ticks_Linear_5,159,9999,9999,9999,873121880
100,8,21,Ticks_Linear_5,160,9999,9999,9999,873921608
100,8,21,Ticks_Linear_5,161,9999,9999,9999,874721404
100,8,21,Ticks_Linear_5,162,9999,9999,9999,875521124
100,8,21,Ticks_Linear_5,163,9999,9999,9999,876321916
100,8,21,Ticks_Linear_5,164,9999,9999,9999,877121640
100,8,21,Ticks_Linear_5,165,9999,9999,9999,877931624
100,8,21,Ticks_Linear_5,166,9999,9999,9999,878741608
100,8,21,Ticks_Linear_5,167,9999,9999,9999,879551596
100,8,21,Ticks_Linear_5,168,9999,9999,9999,880361572
100,8,21,Ticks_Linear_5,169,9999,9999,9999,881171580
100,9,22,Ticks_Phase_8,0,5,42,127,891911424
100,9,22,Ticks_Phase_8,1,5,42,127,892712280
100,9,22,Ticks_Phase_8,2,5,42,127,893512164
100,9,22,Ticks_Phase_8,3,5,42,127,894312044
100,9,22,Ticks_Phase_8,4,1,48,37,895088972
100,9,22,Ticks_Phase_8,5,5,42,127,895111472
100,9,22,Ticks_Phase_8,6,1,48,43,895867344
100,9,22,Ticks_Phase_8,7,5,42,127,895912232
100,9,22,Ticks_Phase_8,8,1,48,46,896677016
100,9,22,Ticks_Phase_8,9,5,42,127,896712168
100,9,22,Ticks_Phase_8,10,1,48,41,897478748
100,9,22,Ticks_Phase_8,11,5,42,127,897512028
100,9,22,Ticks_Phase_8,12,1,48,36,898258908
100,9,22,Ticks_Phase_8,13,5,42,127,898311468
100,9,22,Ticks_Phase_8,14,1,48,41,899052716
100,9,22,Ticks_Phase_8,15,5,42,127,899112300
100,9,22,Ticks_Phase_8,16,1,48,34,899900832
100,9,22,Ticks_Phase_8,17,5,42,127,899912012
100,9,22,Ticks_Phase_8,18,5,42,127,900711880
100,9,22,Ticks_Phase_8,19,1,48,41,900759104
100,9,22,Ticks_Phase_8,20,5,42,127,901511592
100,9,22,Ticks_Phase_8,21,1,48,37,901515684
100,9,22,Ticks_Phase_8,22,5,42,127,902312204
100,9,22,Ticks_Phase_8,23,1,48,35,902325432
100,9,22,Ticks_Phase_8,24,1,48,37,903083940
100,9,22,Ticks_Phase_8,25,5,42,127,903111908
100,9,22,Ticks_Phase_8,26,1,48,40,903909184
100,9,22,Ticks_Phase_8,27,5,42,127,903911916
100,9,22,Ticks_Phase_8,28,5,42,127,904711808
100,9,22,Ticks_Phase_8,29,1,48,38,904716272
100,9,22,Ticks_Phase_8,30,1,48,48,905455364
100,9,22,Ticks_Phase_8,31,5,42,127,905512336
100,9,22,Ticks_Phase_8,32,1,48,39,906252560
100,9,22,Ticks_Phase_8,33,5,42,127,906311976
100,9,22,Ticks_Phase_8,34,5,42,127,907111692
100,9,22,Ticks_Phase_8,35,1,48,40,907158464
100,9,22,Ticks_Phase_8,36,1,48,43,907884856
100,9,22,Ticks_Phase_8,37,5,42,127,907911472
100,9,22,Ticks_Phase_8,38,1,48,42,908694604
100,9,22,Ticks_Phase_8,39,5,42,127,908712228
100,9,22,Ticks_Phase_8,40,1,48,50,909488616
100,9,22,Ticks_Phase_8,41,5,42,127,909511940
100,9,22,Ticks_Phase_8,42,5,42,127,910311736
100,9,22,Ticks_Phase_8,43,1,48,19,910347076
100,9,22,Ticks_Phase_8,44,1,48,41,911103176
100,9,22,Ticks_Phase_8,45,5,42,127,911111616
100,9,22,Ticks_Phase_8,46,1,48,46,911890184
100,9,22,Ticks_Phase_8,47,5,42,127,911912448
100,9,22,Ticks_Phase_8,48,1,48,41,912690116
100,9,22,Ticks_Phase_8,49,5,42,127,912711936
100,9,22,Ticks_Phase_8,50,5,42,127,913511656
100,9,22,Ticks_Phase_8,51,1,48,50,913523236
100,9,22,Ticks_Phase_8,52,1,48,44,914306388
100,9,22,Ticks_Phase_8,53,5,42,127,914311660
100,9,22,Ticks_Phase_8,54,1,48,49,915097180
100,9,22,Ticks_Phase_8,55,5,42,127,915112268
100,9,22,Ticks_Phase_8,56,1,48,49,915863872
100,9,22,Ticks_Phase_8,57,5,42,127,915891688
100,9,22,Ticks_Phase_8,58,5,42,127,916692376
100,9,22,Ticks_Phase_8,59,1,48,46,916697964
100,9,22,Ticks_Phase_8,60,5,42,127,917492088
100,9,22,Ticks_Phase_8,61,1,48,54,917497824
100,9,22,Ticks_Phase_8,62,1,48,48,918282504
100,9,22,Ticks_Phase_8,63,5,42,127,918291892
100,9,22,Ticks_Phase_8,64,1,48,47,919087900
100,9,22,Ticks_Phase_8,65,5,42,127,919091828
100,9,22,Ticks_Phase_8,66,1,48,49,919878624
100,9,22,Ticks_Phase_8,67,5,42,127,919892364
100,9,22,Ticks_Phase_8,68,1,48,50,920686956
100,9,22,Ticks_Phase_8,69,5,42,127,920692152
100,9,22,Ticks_Phase_8,70,1,48,50,921452220
100,9,22,Ticks_Phase_8,71,5,42,127,921491864
100,9,22,Ticks_Phase_8,72,1,48,49,922258288
100,9,22,Ticks_Phase_8,73,5,42,127,922291724
100,9,22,Ticks_Phase_8,74,1,48,51,923080700
100,9,22,Ticks_Phase_8,75,5,42,127,923092484
100,9,22,Ticks_Phase_8,76,1,48,48,923886172
100,9,22,Ticks_Phase_8,77,5,42,127,923891976
100,9,22,Ticks_Phase_8,78,5,42,127,924691716
100,9,22,Ticks_Phase_8,79,1,48,48,924696256
100,9,22,Ticks_Phase_8,80,5,42,127,925491728
100,9,22,Ticks_Phase_8,81,1,48,46,925502564
100,9,22,Ticks_Phase_8,82,1,48,46,926227368
100,9,22,Ticks_Phase_8,83,5,42,127,926292476
100,9,22,Ticks_Phase_8,84,1,48,49,927082876
100,9,22,Ticks_Phase_8,85,5,42,127,927092116
100,9,22,Ticks_Phase_8,86,1,48,40,927839216
100,9,22,Ticks_Phase_8,87,5,42,127,927891828
100,9,22,Ticks_Phase_8,88,1,48,45,928686416
100,9,22,Ticks_Phase_8,89,5,42,127,928691688
100,9,22,Ticks_Phase_8,90,5,42,127,929492304
100,9,22,Ticks_Phase_8,91,1,48,46,929493272
100,9,22,Ticks_Phase_8,92,1,48,43,930303220
100,9,22,Ticks_Phase_8,93,5,42,127,930311660
100,9,22,Ticks_Phase_8,94,1,48,47,931096736
100,9,22,Ticks_Phase_8,95,5,42,127,931112340
100,9,22,Ticks_Phase_8,96,1,48,42,931900796
100,9,22,Ticks_Phase_8,97,5,42,127,931911904
100,9,22,Ticks_Phase_8,98,1,48,41,932706112
100,9,22,Ticks_Phase_8,99,5,42,127,932711840
100,9,22,Ticks_Phase_8,100,1,48,48,933484184
100,9,22,Ticks_Phase_8,101,5,42,127,933511400
100,9,22,Ticks_Phase_8,102,1,48,41,934285016
100,9,22,Ticks_Phase_8,103,5,42,127,934312312
100,9,22,Ticks_Phase_8,104,1,48,43,935079040
100,9,22,Ticks_Phase_8,105,5,42,127,935112096
100,9,22,Ticks_Phase_8,106,1,48,45,935855464
100,9,22,Ticks_Phase_8,107,5,42,127,935911736
100,9,22,Ticks_Phase_8,108,1,48,49,936667456
100,9,22,Ticks_Phase_8,109,5,42,127,936711396
100,9,22,Ticks_Phase_8,110,5,42,127,937512460
100,9,22,Ticks_Phase_8,111,1,48,53,937576012
100,9,22,Ticks_Phase_8,112,1,48,34,938299564
100,9,22,Ticks_Phase_8,113,5,42,127,938311944
100,9,22,Ticks_Phase_8,114,5,42,127,939111736
100,9,22,Ticks_Phase_8,115,1,48,38,939117772
100,9,22,Ticks_Phase_8,116,5,42,127,939911448
100,9,22,Ticks_Phase_8,117,1,48,46,939914492
100,9,22,Ticks_Phase_8,118,5,42,127,940712504
100,9,22,Ticks_Phase_8,119,1,48,45,940729172
100,9,22,Ticks_Phase_8,120,5,42,127,941512216
100,9,22,Ticks_Phase_8,121,1,48,44,941547380
100,9,22,Ticks_Phase_8,122,1,48,35,942309732
100,9,22,Ticks_Phase_8,123,5,42,127,942311696
100,9,22,Ticks_Phase_8,124,1,48,43,943137756
100,9,22,Ticks_Phase_8,125,5,42,127,943151424
100,9,22,Ticks_Phase_8,126,1,48,37,943908784
100,9,22,Ticks_Phase_8,127,5,42,127,943952256
100,9,22,Ticks_Phase_8,128,1,48,45,944737784
100,9,22,Ticks_Phase_8,129,5,42,127,944752192
100,9,22,Ticks_Phase_8,130,5,42,127,945551688
100,9,22,Ticks_Phase_8,131,1,48,41,945602288
100,9,22,Ticks_Phase_8,132,1,48,42,946342980
100,9,22,Ticks_Phase_8,133,5,42,127,946351544
100,9,22,Ticks_Phase_8,134,1,48,43,947080832
100,9,22,Ticks_Phase_8,135,5,42,127,947152300
100,9,22,Ticks_Phase_8,136,1,48,45,947908992
100,9,22,Ticks_Phase_8,137,5,42,127,947951936
100,9,22,Ticks_Phase_8,138,1,48,33,948685192
100,9,22,Ticks_Phase_8,139,5,42,127,948751672
100,9,22,Ticks_Phase_8,140,1,48,38,949425816
100,9,22,Ticks_Phase_8,141,5,42,127,949551444
100,9,22,Ticks_Phase_8,142,1,48,42,950276996
100,9,22,Ticks_Phase_8,143,5,42,127,950352516
100,9,22,Ticks_Phase_8,144,1,48,35,951143064
100,9,22,Ticks_Phase_8,145,5,42,127,951152076
100,9,22,Ticks_Phase_8,146,1,48,40,951904656
100,9,22,Ticks_Phase_8,147,5,42,127,951951640
100,9,22,Ticks_Phase_8,148,5,42,127,952751436
100,9,22,Ticks_Phase_8,149,1,48,44,952754700
100,9,22,Ticks_Phase_8,150,1,48,43,953514040
100,9,22,Ticks_Phase_8,151,5,42,127,953552336
100,9,22,Ticks_Phase_8,152,1,48,18,954327156
100,9,22,Ticks_Phase_8,153,5,42,127,954351972
100,9,22,Ticks_Phase_8,154,1,48,46,955139096
100,9,22,Ticks_Phase_8,155,5,42,127,955151708
100,9,22,Ticks_Phase_8,156,5,42,127,955951504
100,9,22,Ticks_Phase_8,157,1,48,42,955998052
100,9,22,Ticks_Phase_8,158,5,42,127,956712272
100,9,22,Ticks_Phase_8,159,1,48,43,956811776
100,9,22,Ticks_Phase_8,160,1,48,42,957445372
100,9,22,Ticks_Phase_8,161,5,42,127,957511980
100,9,22,Ticks_Phase_8,162,1,48,39,958234300
100,9,22,Ticks_Phase_8,163,5,42,127,958311692
100,9,22,Ticks_Phase_8,164,1,48,44,959079088
100,9,22,Ticks_Phase_8,165,5,42,127,959111476
100,9,22,Ticks_Phase_8,166,1,48,35,959911792
100,9,22,Ticks_Phase_8,167,5,42,127,959913208
100,9,22,Ticks_Phase_8,168,1,48,43,960608044
100,9,22,Ticks_Phase_8,169,5,42,127,960712156
100,9,22,Ticks_Phase_8,170,1,48,37,961463100
100,9,22,Ticks_Phase_8,171,5,42,127,961512108
100,9,22,Ticks_Phase_8,172,1,48,35,962290524
100,9,22,Ticks_Phase_8,173,5,42,127,962311548
100,9,22,Ticks_Phase_8,174,1,48,35,963071588
100,9,22,Ticks_Phase_8,175,5,42,127,963112228
100,9,22,Ticks_Phase_8,176,1,48,40,963881512
100,9,22,Ticks_Phase_8,177,5,42,127,963912092
100,9,22,Ticks_Phase_8,178,5,42,127,964711956
100,9,22,Ticks_Phase_8,179,1,48,43,964719040
100,9,22,Ticks_Phase_8,180,5,42,127,965511448
100,9,22,Ticks_Phase_8,181,1,48,45,965520488
100,9,22,Ticks_Phase_8,182,5,42,127,966312204
100,9,22,Ticks_Phase_8,183,1,48,46,966322140
100,9,22,Ticks_Phase_8,184,5,42,127,967111988
100,9,22,Ticks_Phase_8,185,1,48,42,967154876
100,9,22,Ticks_Phase_8,186,1,48,44,967872496
100,9,22,Ticks_Phase_8,187,5,42,127,967911920
100,9,22,Ticks_Phase_8,188,1,48,43,968689052
100,9,22,Ticks_Phase_8,189,5,42,127,968711432
100,9,22,Ticks_Phase_8,190,5,42,127,969432344
100,9,22,Ticks_Phase_8,191,1,48,50,969482596
100,9,22,Ticks_Phase_8,192,1,48,49,970189700
100,9,22,Ticks_Phase_8,193,5,42,127,970242332
100,9,22,Ticks_Phase_8,194,1,48,36,971043964
100,9,22,Ticks_Phase_8,195,5,42,127,971052452
100,9,22,Ticks_Phase_8,196,1,48,45,971833864
100,9,22,Ticks_Phase_8,197,5,42,127,971852240
100,9,22,Ticks_Phase_8,198,1,48,38,972624512
100,9,22,Ticks_Phase_8,199,5,42,127,972652172
100,9,22,Ticks_Phase_8,200,1,48,45,973391648
100,9,22,Ticks_Phase_8,201,5,42,127,973451664
100,9,22,Ticks_Phase_8,202,1,48,41,974222440
100,9,22,Ticks_Phase_8,203,5,42,127,974252348
100,9,22,Ticks_Phase_8,204,1,48,44,974969272
100,9,22,Ticks_Phase_8,205,5,42,127,975052132
100,9,22,Ticks_Phase_8,206,5,42,127,975851928
100,9,22,Ticks_Phase_8,207,1,48,52,975894612
100,9,22,Ticks_Phase_8,208,1,48,40,976642040
100,9,22,Ticks_Phase_8,209,5,42,127,976651880
100,9,22,Ticks_Phase_8,210,5,42,127,977452348
100,9,22,Ticks_Phase_8,211,1,48,40,977458156
100,9,22,Ticks_Phase_8,212,1,48,43,978218988
100,9,22,Ticks_Phase_8,213,5,42,127,978252276
100,9,22,Ticks_Phase_8,214,1,48,36,979015116
100,9,22,Ticks_Phase_8,215,5,42,127,979051916
100,9,22,Ticks_Phase_8,216,5,42,127,979851856
100,9,22,Ticks_Phase_8,217,1,48,32,979859092
100,9,22,Ticks_Phase_8,218,1,48,45,980646732
100,9,22,Ticks_Phase_8,219,5,42,127,980652536
100,9,22,Ticks_Phase_8,220,1,48,38,981412084
100,9,22,Ticks_Phase_8,221,5,42,127,981452100
100,9,22,Ticks_Phase_8,222,1,48,37,982229828
100,9,22,Ticks_Phase_8,223,5,42,127,982251884
100,9,22,Ticks_Phase_8,224,1,48,33,983054512
100,9,22,Ticks_Phase_8,225,5,42,127,983131380
100,9,22,Ticks_Phase_8,226,5,42,127,983932220
100,9,22,Ticks_Phase_8,227,1,48,33,983967912
100,9,22,Ticks_Phase_8,228,1,48,34,984726496
100,9,22,Ticks_Phase_8,229,5,42,127,984731996
100,9,22,Ticks_Phase_8,230,1,48,44,985512584
100,9,22,Ticks_Phase_8,231,5,42,127,985531932
100,9,22,Ticks_Phase_8,232,5,42,127,986331356
100,9,22,Ticks_Phase_8,233,1,48,42,986337616
100,9,22,Ticks_Phase_8,234,5,42,127,987132184
100,9,22,Ticks_Phase_8,235,1,48,45,987158092
100,9,22,Ticks_Phase_8,236,1,48,44,987885656
100,9,22,Ticks_Phase_8,237,5,42,127,987931988
100,9,22,Ticks_Phase_8,238,1,48,40,988724408
100,9,22,Ticks_Phase_8,239,5,42,127,988731848
100,9,22,Ticks_Phase_8,240,1,48,39,989483456
100,9,22,Ticks_Phase_8,241,5,42,127,989531712
100,9,22,Ticks_Phase_8,242,1,48,41,990312296
100,9,22,Ticks_Phase_8,243,5,42,127,990332320
100,9,22,Ticks_Phase_8,244,1,48,43,991096724
100,9,22,Ticks_Phase_8,245,5,42,127,991131956
100,9,22,Ticks_Phase_8,246,1,48,38,991862668
100,9,22,Ticks_Phase_8,247,5,42,127,991931892
100,9,22,Ticks_Phase_8,248,1,48,46,992701776
100,9,22,Ticks_Phase_8,249,5,42,127,992731756
100,9,22,Ticks_Phase_8,250,5,42,127,993532372
100,9,22,Ticks_Phase_8,251,1,48,39,993577748
100,9,22,Ticks_Phase_8,252,5,42,127,994331960
100,9,22,Ticks_Phase_8,253,1,48,37,994359260
100,9,22,Ticks_Phase_8,254,5,42,127,995131672
100,9,22,Ticks_Phase_8,255,1,48,38,995148192
100,9,22,Ticks_Phase_8,256,1,48,36,995866044
100,9,22,Ticks_Phase_8,257,5,42,127,995931752
100,9,22,Ticks_Phase_8,258,1,48,35,996774864
100,9,22,Ticks_Phase_8,259,5,42,127,996891956
100,9,22,Ticks_Phase_8,260,5,42,127,997691688
100,9,22,Ticks_Phase_8,261,1,48,48,997852972
100,9,22,Ticks_Phase_8,262,5,42,127,998491772
100,9,22,Ticks_Phase_8,263,1,48,40,998540584
100,9,22,Ticks_Phase_8,264,1,48,35,999271304
100,9,22,Ticks_Phase_8,265,5,42,127,999292376
100,9,22,Ticks_Phase_8,266,5,42,127,1000091948
100,9,22,Ticks_Phase_8,267,1,48,41,1000096788
100,9,22,Ticks_Phase_8,268,5,42,127,1000891732
100,9,22,Ticks_Phase_8,269,1,48,46,1000905112
100,9,22,Ticks_Phase_8,270,1,48,45,1001682644
100,9,22,Ticks_Phase_8,271,5,42,127,1001691736
100,9,22,Ticks_Phase_8,272,1,48,48,1002483404
100,9,22,Ticks_Phase_8,273,5,42,127,1002492124
100,9,22,Ticks_Phase_8,274,1,48,38,1003273704
100,9,22,Ticks_Phase_8,275,5,42,127,1003292008
100,9,22,Ticks_Phase_8,276,1,48,40,1004036720
100,9,22,Ticks_Phase_8,277,5,42,127,1004091720
100,9,22,Ticks_Phase_8,278,5,42,127,1004891588
100,9,22,Ticks_Phase_8,279,1,48,46,1004926528
100,9,22,Ticks_Phase_8,280,5,42,127,1005692272
100,9,22,Ticks_Phase_8,281,1,48,38,1005710896
100,9,22,Ticks_Phase_8,282,5,42,127,1006492056
100,9,22,Ticks_Phase_8,283,1,48,37,1006566844
100,9,22,Ticks_Phase_8,284,1,48,38,1007179392
100,9,22,Ticks_Phase_8,285,5,42,127,1007291820
100,9,22,Ticks_Phase_8,286,5,42,127,1008091480
100,9,22,Ticks_Phase_8,287,1,48,33,1008092596
100,9,22,Ticks_Phase_8,288,5,42,127,1008892388
100,9,22,Ticks_Phase_8,289,1,48,38,1008943012
100,9,22,Ticks_Phase_8,290,1,48,46,1009687596
100,9,22,Ticks_Phase_8,291,5,42,127,1009691896
100,9,22,Ticks_Phase_8,292,5,42,127,1010491840
100,9,22,Ticks_Phase_8,293,1,48,48,1010514428
100,9,22,Ticks_Phase_8,294,1,48,54,1011280508
100,9,22,Ticks_Phase_8,295,5,42,127,1011291616
100,9,22,Ticks_Phase_8,296,5,42,127,1011931504
100,9,22,Ticks_Phase_8,297,1,48,43,1012007584
100,9,22,Ticks_Phase_8,298,1,48,38,1012721224
100,9,22,Ticks_Phase_8,299,5,42,127,1012732704
100,9,22,Ticks_Phase_8,300,5,42,127,1013531928
100,9,22,Ticks_Phase_8,301,1,48,41,1013545528
100,9,22,Ticks_Phase_8,302,1,48,44,1014300156
100,9,22,Ticks_Phase_8,303,5,42,127,1014331708
100,9,22,Ticks_Phase_8,304,1,48,43,1015110272
100,9,22,Ticks_Phase_8,305,5,42,127,1015131640
100,9,22,Ticks_Phase_8,306,1,48,46,1015889304
100,9,22,Ticks_Phase_8,307,5,42,127,1015932472
100,9,22,Ticks_Phase_8,308,1,48,42,1016707588
100,9,22,Ticks_Phase_8,309,5,42,127,1016731888
100,9,22,Ticks_Phase_8,310,1,48,48,1017467016
100,9,22,Ticks_Phase_8,311,5,42,127,1017531748
100,9,22,Ticks_Phase_8,312,1,48,45,1018304464
100,9,22,Ticks_Phase_8,313,5,42,127,1018331536
100,9,22,Ticks_Phase_8,314,5,42,127,1019132224
100,9,22,Ticks_Phase_8,315,1,48,43,1019133192
100,9,22,Ticks_Phase_8,316,5,42,127,1019932236
100,9,22,Ticks_Phase_8,317,1,48,48,1019948532
100,9,22,Ticks_Phase_8,318,5,42,127,1020731800
100,9,22,Ticks_Phase_8,319,1,48,46,1020760316
100,9,22,Ticks_Phase_8,320,1,48,46,1021480556
100,9,22,Ticks_Phase_8,321,5,42,127,1021531508
100,9,22,Ticks_Phase_8,322,1,48,47,1022289692
100,9,22,Ticks_Phase_8,323,5,42,127,1022332340
100,9,22,Ticks_Phase_8,324,5,42,127,1023131984
100,9,22,Ticks_Phase_8,325,1,48,49,1023171204
100,9,22,Ticks_Phase_8,326,5,42,127,1023931624
100,9,22,Ticks_Phase_8,327,1,48,40,1023949560
100,9,22,Ticks_Phase_8,328,1,48,42,1024717808
100,9,22,Ticks_Phase_8,329,5,42,127,1024731548
100,9,22,Ticks_Phase_8,330,1,48,47,1025496028
100,9,22,Ticks_Phase_8,331,5,42,127,1025532160
100,9,22,Ticks_Phase_8,332,1,48,43,1026277844
100,9,22,Ticks_Phase_8,333,5,42,127,1026331972
100,9,22,Ticks_Phase_8,334,1,48,46,1027031284
100,9,22,Ticks_Phase_8,335,5,42,127,1027131892
100,9,22,Ticks_Phase_8,0,9999,9999,9999,891909212
100,9,22,Ticks_Phase_8,1,9999,9999,9999,892709992
100,9,22,Ticks_Phase_8,2,9999,9999,9999,893509728
100,9,22,Ticks_Phase_8,3,9999,9999,9999,894309460
100,9,22,Ticks_Phase_8,4,9999,9999,9999,895109188
100,9,22,Ticks_Phase_8,5,9999,9999,9999,895909948
100,9,22,Ticks_Phase_8,6,9999,9999,9999,896709732
100,9,22,Ticks_Phase_8,7,9999,9999,9999,897509444
100,9,22,Ticks_Phase_8,8,9999,9999,9999,898309180
100,9,22,Ticks_Phase_8,9,9999,9999,9999,899110016
100,9,22,Ticks_Phase_8,10,9999,9999,9999,899909728
100,9,22,Ticks_Phase_8,11,9999,9999,9999,900709444
100,9,22,Ticks_Phase_8,12,9999,9999,9999,901509232
100,9,22,Ticks_Phase_8,13,9999,9999,9999,902309992
100,9,22,Ticks_Phase_8,14,9999,9999,9999,903109696
100,9,22,Ticks_Phase_8,15,9999,9999,9999,903909484
100,9,22,Ticks_Phase_8,16,9999,9999,9999,904709224
100,9,22,Ticks_Phase_8,17,9999,9999,9999,905509976
100,9,22,Ticks_Phase_8,18,9999,9999,9999,906309688
100,9,22,Ticks_Phase_8,19,9999,9999,9999,907109480
100,9,22,Ticks_Phase_8,20,9999,9999,9999,907909188
100,9,22,Ticks_Phase_8,21,9999,9999,9999,908709944
100,9,22,Ticks_Phase_8,22,9999,9999,9999,909509728
100,9,22,Ticks_Phase_8,23,9999,9999,9999,910309448
100,9,22,Ticks_Phase_8,24,9999,9999,9999,911109180
100,9,22,Ticks_Phase_8,25,9999,9999,9999,911910012
100,9,22,Ticks_Phase_8,26,9999,9999,9999,912709724
100,9,22,Ticks_Phase_8,27,9999,9999,9999,913509444
100,9,22,Ticks_Phase_8,28,9999,9999,9999,914309224
100,9,22,Ticks_Phase_8,29,9999,9999,9999,915109980
100,9,22,Ticks_Phase_8,30,9999,9999,9999,915889248
100,9,22,Ticks_Phase_8,31,9999,9999,9999,916690016
100,9,22,Ticks_Phase_8,32,9999,9999,9999,917489728
100,9,22,Ticks_Phase_8,33,9999,9999,9999,918289532
100,9,22,Ticks_Phase_8,34,9999,9999,9999,919089244
100,9,22,Ticks_Phase_8,35,9999,9999,9999,919890004
100,9,22,Ticks_Phase_8,36,9999,9999,9999,920689792
100,9,22,Ticks_Phase_8,37,9999,9999,9999,921489504
100,9,22,Ticks_Phase_8,38,9999,9999,9999,922289216
100,9,22,Ticks_Phase_8,39,9999,9999,9999,923089976
100,9,22,Ticks_Phase_8,40,9999,9999,9999,923889764
100,9,22,Ticks_Phase_8,41,9999,9999,9999,924689504
100,9,22,Ticks_Phase_8,42,9999,9999,9999,925489216
100,9,22,Ticks_Phase_8,43,9999,9999,9999,926290044
100,9,22,Ticks_Phase_8,44,9999,9999,9999,927089756
100,9,22,Ticks_Phase_8,45,9999,9999,9999,927889468
100,9,22,Ticks_Phase_8,46,9999,9999,9999,928689252
100,9,22,Ticks_Phase_8,47,9999,9999,9999,929490016
100,9,22,Ticks_Phase_8,48,9999,9999,9999,930309224
100,9,22,Ticks_Phase_8,49,9999,9999,9999,931109980
100,9,22,Ticks_Phase_8,50,9999,9999,9999,931909692
100,9,22,Ticks_Phase_8,51,9999,9999,9999,932709476
100,9,22,Ticks_Phase_8,52,9999,9999,9999,933509188
100,9,22,Ticks_Phase_8,53,9999,9999,9999,934309948
100,9,22,Ticks_Phase_8,54,9999,9999,9999,935109736
100,9,22,Ticks_Phase_8,55,9999,9999,9999,935909452
100,9,22,Ticks_Phase_8,56,9999,9999,9999,936709184
100,9,22,Ticks_Phase_8,57,9999,9999,9999,937509952
100,9,22,Ticks_Phase_8,58,9999,9999,9999,938309732
100,9,22,Ticks_Phase_8,59,9999,9999,9999,939109448
100,9,22,Ticks_Phase_8,60,9999,9999,9999,939909236
100,9,22,Ticks_Phase_8,61,9999,9999,9999,940709992
100,9,22,Ticks_Phase_8,62,9999,9999,9999,941509704
100,9,22,Ticks_Phase_8,63,9999,9999,9999,942309448
100,9,22,Ticks_Phase_8,64,9999,9999,9999,943149136
100,9,22,Ticks_Phase_8,65,9999,9999,9999,943949896
100,9,22,Ticks_Phase_8,66,9999,9999,9999,944749684
100,9,22,Ticks_Phase_8,67,9999,9999,9999,945549400
100,9,22,Ticks_Phase_8,68,9999,9999,9999,946349180
100,9,22,Ticks_Phase_8,69,9999,9999,9999,947149940
100,9,22,Ticks_Phase_8,70,9999,9999,9999,947949652
100,9,22,Ticks_Phase_8,71,9999,9999,9999,948749388
100,9,22,Ticks_Phase_8,72,9999,9999,9999,949549160
100,9,22,Ticks_Phase_8,73,9999,9999,9999,950349932
100,9,22,Ticks_Phase_8,74,9999,9999,9999,951149644
100,9,22,Ticks_Phase_8,75,9999,9999,9999,951949432
100,9,22,Ticks_Phase_8,76,9999,9999,9999,952749148
100,9,22,Ticks_Phase_8,77,9999,9999,9999,953549900
100,9,22,Ticks_Phase_8,78,9999,9999,9999,954349688
100,9,22,Ticks_Phase_8,79,9999,9999,9999,955149424
100,9,22,Ticks_Phase_8,80,9999,9999,9999,955949140
100,9,22,Ticks_Phase_8,81,9999,9999,9999,956709984
100,9,22,Ticks_Phase_8,82,9999,9999,9999,957509692
100,9,22,Ticks_Phase_8,83,9999,9999,9999,958309480
100,9,22,Ticks_Phase_8,84,9999,9999,9999,959109192
100,9,22,Ticks_Phase_8,85,9999,9999,9999,959909956
100,9,22,Ticks_Phase_8,86,9999,9999,9999,960709720
100,9,22,Ticks_Phase_8,87,9999,9999,9999,961509448
100,9,22,Ticks_Phase_8,88,9999,9999,9999,962309184
100,9,22,Ticks_Phase_8,89,9999,9999,9999,963109944
100,9,22,Ticks_Phase_8,90,9999,9999,9999,963909728
100,9,22,Ticks_Phase_8,91,9999,9999,9999,964709448
100,9,22,Ticks_Phase_8,92,9999,9999,9999,965509232
100,9,22,Ticks_Phase_8,93,9999,9999,9999,966309992
100,9,22,Ticks_Phase_8,94,9999,9999,9999,967109704
100,9,22,Ticks_Phase_8,95,9999,9999,9999,967909484
100,9,22,Ticks_Phase_8,96,9999,9999,9999,968709220
100,9,22,Ticks_Phase_8,97,9999,9999,9999,969430132
100,9,22,Ticks_Phase_8,98,9999,9999,9999,970240096
100,9,22,Ticks_Phase_8,99,9999,9999,9999,971050092
100,9,22,Ticks_Phase_8,100,9999,9999,9999,971849804
100,9,22,Ticks_Phase_8,101,9999,9999,9999,972649588
100,9,22,Ticks_Phase_8,102,9999,9999,9999,973449304
100,9,22,Ticks_Phase_8,103,9999,9999,9999,974250060
100,9,22,Ticks_Phase_8,104,9999,9999,9999,975049844
100,9,22,Ticks_Phase_8,105,9999,9999,9999,975849564
100,9,22,Ticks_Phase_8,106,9999,9999,9999,976649296
100,9,22,Ticks_Phase_8,107,9999,9999,9999,977450060
100,9,22,Ticks_Phase_8,108,9999,9999,9999,978249840
100,9,22,Ticks_Phase_8,109,9999,9999,9999,979049556
100,9,22,Ticks_Phase_8,110,9999,9999,9999,979849272
100,9,22,Ticks_Phase_8,111,9999,9999,9999,980650100
100,9,22,Ticks_Phase_8,112,9999,9999,9999,981449812
100,9,22,Ticks_Phase_8,113,9999,9999,9999,982249596
100,9,22,Ticks_Phase_8,114,9999,9999,9999,983129164
100,9,22,Ticks_Phase_8,115,9999,9999,9999,983929932
100,9,22,Ticks_Phase_8,116,9999,9999,9999,984729712
100,9,22,Ticks_Phase_8,117,9999,9999,9999,985529424
100,9,22,Ticks_Phase_8,118,9999,9999,9999,986329144
100,9,22,Ticks_Phase_8,119,9999,9999,9999,987129972
100,9,22,Ticks_Phase_8,120,9999,9999,9999,987929704
100,9,22,Ticks_Phase_8,121,9999,9999,9999,988729412
100,9,22,Ticks_Phase_8,122,9999,9999,9999,989529200
100,9,22,Ticks_Phase_8,123,9999,9999,9999,990329960
100,9,22,Ticks_Phase_8,124,9999,9999,9999,991129672
100,9,22,Ticks_Phase_8,125,9999,9999,9999,991929460
100,9,22,Ticks_Phase_8,126,9999,9999,9999,992729172
100,9,22,Ticks_Phase_8,127,9999,9999,9999,993529936
100,9,22,Ticks_Phase_8,128,9999,9999,9999,994329672
100,9,22,Ticks_Phase_8,129,9999,9999,9999,995129460
100,9,22,Ticks_Phase_8,130,9999,9999,9999,995929168
100,9,22,Ticks_Phase_8,131,9999,9999,9999,996889668
100,9,22,Ticks_Phase_8,132,9999,9999,9999,997689404
100,9,22,Ticks_Phase_8,133,9999,9999,9999,998489188
100,9,22,Ticks_Phase_8,134,9999,9999,9999,999289940
100,9,22,Ticks_Phase_8,135,9999,9999,9999,1000089660
100,9,22,Ticks_Phase_8,136,9999,9999,9999,1000889448
100,9,22,Ticks_Phase_8,137,9999,9999,9999,1001689152
100,9,22,Ticks_Phase_8,138,9999,9999,9999,1002489912
100,9,22,Ticks_Phase_8,139,9999,9999,9999,1003289720
100,9,22,Ticks_Phase_8,140,9999,9999,9999,1004089432
100,9,22,Ticks_Phase_8,141,9999,9999,9999,1004889152
100,9,22,Ticks_Phase_8,142,9999,9999,9999,1005689908
100,9,22,Ticks_Phase_8,143,9999,9999,9999,1006489696
100,9,22,Ticks_Phase_8,144,9999,9999,9999,1007289460
100,9,22,Ticks_Phase_8,145,9999,9999,9999,1008089192
100,9,22,Ticks_Phase_8,146,9999,9999,9999,1008889952
100,9,22,Ticks_Phase_8,147,9999,9999,9999,1009689684
100,9,22,Ticks_Phase_8,148,9999,9999,9999,1010489404
100,9,22,Ticks_Phase_8,149,9999,9999,9999,1011289180
100,9,22,Ticks_Phase_8,150,9999,9999,9999,1011929144
100,9,22,Ticks_Phase_8,151,9999,9999,9999,1012729968
100,9,22,Ticks_Phase_8,152,9999,9999,9999,1013529712
100,9,22,Ticks_Phase_8,153,9999,9999,9999,1014329420
100,9,22,Ticks_Phase_8,154,9999,9999,9999,1015129204
100,9,22,Ticks_Phase_8,155,9999,9999,9999,1015929964
100,9,22,Ticks_Phase_8,156,9999,9999,9999,1016729676
100,9,22,Ticks_Phase_8,157,9999,9999,9999,1017529460
100,9,22,Ticks_Phase_8,158,9999,9999,9999,1018329172
100,9,22,Ticks_Phase_8,159,9999,9999,9999,1019129940
100,9,22,Ticks_Phase_8,160,9999,9999,9999,1019929728
100,9,22,Ticks_Phase_8,161,9999,9999,9999,1020729440
100,9,22,Ticks_Phase_8,162,9999,9999,9999,1021529148
100,9,22,Ticks_Phase_8,163,9999,9999,9999,1022329980
100,9,22,Ticks_Phase_8,164,9999,9999,9999,1023129696
100,9,22,Ticks_Phase_8,165,9999,9999,9999,1023929408
100,9,22,Ticks_Phase_8,166,9999,9999,9999,1024729188
100,9,22,Ticks_Phase_8,167,9999,9999,9999,1025529948
100,9,22,Ticks_Phase_8,168,9999,9999,9999,1026329684
100,9,22,Ticks_Phase_8,169,9999,9999,9999,1027129456
100,10,23,Ticks_Phase_5,0,5,42,127,1036505408
100,10,23,Ticks_Phase_5,1,5,42,127,1037006088
100,10,23,Ticks_Phase_5,2,5,42,127,1037506020
100,10,23,Ticks_Phase_5,3,5,42,127,1038005584
100,10,23,Ticks_Phase_5,4,5,42,127,1038506340
100,10,23,Ticks_Phase_5,5,1,48,46,1038516432
100,10,23,Ticks_Phase_5,6,5,42,127,1039006100
100,10,23,Ticks_Phase_5,7,1,48,45,1039018212
100,10,23,Ticks_Phase_5,8,1,48,44,1039497668
100,10,23,Ticks_Phase_5,9,5,42,127,1039505856
100,10,23,Ticks_Phase_5,10,1,48,49,1039951816
100,10,23,Ticks_Phase_5,11,5,42,127,1040005472
100,10,23,Ticks_Phase_5,12,1,48,48,1040496972
100,10,23,Ticks_Phase_5,13,5,42,127,1040506208
100,10,23,Ticks_Phase_5,14,5,42,127,1041006124
100,10,23,Ticks_Phase_5,15,1,48,35,1041041072
100,10,23,Ticks_Phase_5,16,5,42,127,1041505592
100,10,23,Ticks_Phase_5,17,1,48,44,1041532220
100,10,23,Ticks_Phase_5,18,5,42,127,1042006404
100,10,23,Ticks_Phase_5,19,1,48,43,1042017236
100,10,23,Ticks_Phase_5,20,1,48,51,1042494372
100,10,23,Ticks_Phase_5,21,5,42,127,1042506232
100,10,23,Ticks_Phase_5,22,1,48,50,1043004264
100,10,23,Ticks_Phase_5,23,5,42,127,1043005920
100,10,23,Ticks_Phase_5,24,1,48,51,1043494352
100,10,23,Ticks_Phase_5,25,5,42,127,1043505460
100,10,23,Ticks_Phase_5,26,1,48,49,1043977488
100,10,23,Ticks_Phase_5,27,5,42,127,1044006196
100,10,23,Ticks_Phase_5,28,1,48,48,1044498140
100,10,23,Ticks_Phase_5,29,5,42,127,1044506184
100,10,23,Ticks_Phase_5,30,1,48,50,1045004448
100,10,23,Ticks_Phase_5,31,5,42,127,1045006092
100,10,23,Ticks_Phase_5,32,1,48,44,1045502132
100,10,23,Ticks_Phase_5,33,5,42,127,1045506360
100,10,23,Ticks_Phase_5,34,1,48,47,1045998056
100,10,23,Ticks_Phase_5,35,5,42,127,1046016456
100,10,23,Ticks_Phase_5,36,1,48,51,1046498936
100,10,23,Ticks_Phase_5,37,5,42,127,1046516044
100,10,23,Ticks_Phase_5,38,1,48,50,1046996084
100,10,23,Ticks_Phase_5,39,5,42,127,1047015952
100,10,23,Ticks_Phase_5,40,1,48,46,1047506476
100,10,23,Ticks_Phase_5,41,5,42,127,1047515568
100,10,23,Ticks_Phase_5,42,1,48,46,1047995156
100,10,23,Ticks_Phase_5,43,5,42,127,1048016152
100,10,23,Ticks_Phase_5,44,1,48,44,1048506976
100,10,23,Ticks_Phase_5,45,5,42,127,1048516140
100,10,23,Ticks_Phase_5,46,1,48,47,1049013492
100,10,23,Ticks_Phase_5,47,5,42,127,1049015604
100,10,23,Ticks_Phase_5,48,1,48,48,1049504184
100,10,23,Ticks_Phase_5,49,5,42,127,1049516340
100,10,23,Ticks_Phase_5,50,1,48,42,1050006188
100,10,23,Ticks_Phase_5,51,5,42,127,1050016252
100,10,23,Ticks_Phase_5,52,5,42,127,1050516096
100,10,23,Ticks_Phase_5,53,1,48,35,1050529104
100,10,23,Ticks_Phase_5,54,1,48,46,1051002708
100,10,23,Ticks_Phase_5,55,5,42,127,1051015408
100,10,23,Ticks_Phase_5,56,5,42,127,1051505964
100,10,23,Ticks_Phase_5,57,1,48,46,1051519048
100,10,23,Ticks_Phase_5,58,1,48,40,1051982468
100,10,23,Ticks_Phase_5,59,5,42,127,1052006016
100,10,23,Ticks_Phase_5,60,1,48,48,1052486736
100,10,23,Ticks_Phase_5,61,5,42,127,1052505336
100,10,23,Ticks_Phase_5,62,1,48,44,1052996156
100,10,23,Ticks_Phase_5,63,5,42,127,1053006144
100,10,23,Ticks_Phase_5,64,1,48,42,1053491568
100,10,23,Ticks_Phase_5,65,5,42,127,1053506056
100,10,23,Ticks_Phase_5,66,5,42,127,1054005824
100,10,23,Ticks_Phase_5,67,1,48,44,1054014868
100,10,23,Ticks_Phase_5,68,5,42,127,1054506336
100,10,23,Ticks_Phase_5,69,1,48,43,1054512820
100,10,23,Ticks_Phase_5,70,1,48,43,1054986144
100,10,23,Ticks_Phase_5,71,5,42,127,1055006172
100,10,23,Ticks_Phase_5,72,1,48,42,1055486288
100,10,23,Ticks_Phase_5,73,5,42,127,1055505860
100,10,23,Ticks_Phase_5,74,1,48,45,1055994560
100,10,23,Ticks_Phase_5,75,5,42,127,1056005620
100,10,23,Ticks_Phase_5,76,1,48,40,1056484516
100,10,23,Ticks_Phase_5,77,5,42,127,1056506180
100,10,23,Ticks_Phase_5,78,1,48,48,1056991904
100,10,23,Ticks_Phase_5,79,5,42,127,1057005796
100,10,23,Ticks_Phase_5,80,1,48,31,1057484488
100,10,23,Ticks_Phase_5,81,5,42,127,1057505708
100,10,23,Ticks_Phase_5,82,1,48,50,1057974816
100,10,23,Ticks_Phase_5,83,5,42,127,1058006296
100,10,23,Ticks_Phase_5,84,1,48,43,1058459144
100,10,23,Ticks_Phase_5,85,5,42,127,1058506128
100,10,23,Ticks_Phase_5,86,1,48,46,1058980328
100,10,23,Ticks_Phase_5,87,5,42,127,1059005744
100,10,23,Ticks_Phase_5,88,5,42,127,1059505664
100,10,23,Ticks_Phase_5,89,1,48,49,1059516652
100,10,23,Ticks_Phase_5,90,5,42,127,1060006248
100,10,23,Ticks_Phase_5,91,1,48,46,1060022020
100,10,23,Ticks_Phase_5,92,1,48,47,1060477520
100,10,23,Ticks_Phase_5,93,5,42,127,1060516340
100,10,23,Ticks_Phase_5,94,1,48,45,1060996908
100,10,23,Ticks_Phase_5,95,5,42,127,1061016028
100,10,23,Ticks_Phase_5,96,1,48,44,1061475556
100,10,23,Ticks_Phase_5,97,5,42,127,1061515868
100,10,23,Ticks_Phase_5,98,1,48,43,1062001516
100,10,23,Ticks_Phase_5,99,5,42,127,1062016380
100,10,23,Ticks_Phase_5,100,1,48,44,1062509600
100,10,23,Ticks_Phase_5,101,5,42,127,1062516068
100,10,23,Ticks_Phase_5,102,5,42,127,1063015760
100,10,23,Ticks_Phase_5,103,1,48,47,1063022624
100,10,23,Ticks_Phase_5,104,5,42,127,1063515452
100,10,23,Ticks_Phase_5,105,1,48,46,1063516788
100,10,23,Ticks_Phase_5,106,5,42,127,1064016332
100,10,23,Ticks_Phase_5,107,1,48,38,1064023580
100,10,23,Ticks_Phase_5,108,1,48,48,1064509920
100,10,23,Ticks_Phase_5,109,5,42,127,1064515868
100,10,23,Ticks_Phase_5,110,1,48,48,1064992380
100,10,23,Ticks_Phase_5,111,5,42,127,1065015704
100,10,23,Ticks_Phase_5,112,1,48,40,1065463972
100,10,23,Ticks_Phase_5,113,5,42,127,1065516292
100,10,23,Ticks_Phase_5,114,1,48,40,1065991308
100,10,23,Ticks_Phase_5,115,5,42,127,1066016052
100,10,23,Ticks_Phase_5,116,1,48,42,1066498488
100,10,23,Ticks_Phase_5,117,5,42,127,1066515892
100,10,23,Ticks_Phase_5,118,5,42,127,1067015736
100,10,23,Ticks_Phase_5,119,1,48,40,1067022216
100,10,23,Ticks_Phase_5,120,5,42,127,1067516444
100,10,23,Ticks_Phase_5,121,1,48,43,1067520044
100,10,23,Ticks_Phase_5,122,1,48,47,1067999472
100,10,23,Ticks_Phase_5,123,5,42,127,1068015976
100,10,23,Ticks_Phase_5,124,1,48,44,1068493164
100,10,23,Ticks_Phase_5,125,5,42,127,1068536112
100,10,23,Ticks_Phase_5,126,1,48,50,1069017128
100,10,23,Ticks_Phase_5,127,5,42,127,1069035800
100,10,23,Ticks_Phase_5,128,1,48,50,1069494576
100,10,23,Ticks_Phase_5,129,5,42,127,1069535860
100,10,23,Ticks_Phase_5,130,1,48,46,1069974644
100,10,23,Ticks_Phase_5,131,5,42,127,1070036448
100,10,23,Ticks_Phase_5,132,1,48,41,1070533404
100,10,23,Ticks_Phase_5,133,5,42,127,1070535988
100,10,23,Ticks_Phase_5,134,1,48,57,1071035756
100,10,23,Ticks_Phase_5,135,5,42,127,1071037096
100,10,23,Ticks_Phase_5,136,5,42,127,1071535744
100,10,23,Ticks_Phase_5,137,1,48,49,1071537008
100,10,23,Ticks_Phase_5,138,1,48,47,1072014732
100,10,23,Ticks_Phase_5,139,5,42,127,1072036100
100,10,23,Ticks_Phase_5,140,1,48,52,1072519284
100,10,23,Ticks_Phase_5,141,5,42,127,1072535864
100,10,23,Ticks_Phase_5,142,5,42,127,1073035780
100,10,23,Ticks_Phase_5,143,1,48,54,1073038456
100,10,23,Ticks_Phase_5,144,5,42,127,1073536220
100,10,23,Ticks_Phase_5,145,1,48,49,1073549524
100,10,23,Ticks_Phase_5,146,5,42,127,1074036204
100,10,23,Ticks_Phase_5,147,1,48,53,1074040372
100,10,23,Ticks_Phase_5,148,5,42,127,1074535816
100,10,23,Ticks_Phase_5,149,1,48,44,1074560948
100,10,23,Ticks_Phase_5,150,1,48,49,1075032172
100,10,23,Ticks_Phase_5,151,5,42,127,1075035500
100,10,23,Ticks_Phase_5,152,1,48,51,1075521900
100,10,23,Ticks_Phase_5,153,5,42,127,1075536312
100,10,23,Ticks_Phase_5,154,1,48,53,1076019044
100,10,23,Ticks_Phase_5,155,5,42,127,1076036000
100,10,23,Ticks_Phase_5,156,1,48,48,1076518508
100,10,23,Ticks_Phase_5,157,5,42,127,1076535540
100,10,23,Ticks_Phase_5,158,5,42,127,1077015988
100,10,23,Ticks_Phase_5,159,1,48,43,1077021276
100,10,23,Ticks_Phase_5,160,5,42,127,1077515676
100,10,23,Ticks_Phase_5,161,1,48,44,1077544412
100,10,23,Ticks_Phase_5,162,5,42,127,1078016636
100,10,23,Ticks_Phase_5,163,1,48,46,1078018204
100,10,23,Ticks_Phase_5,164,1,48,44,1078504136
100,10,23,Ticks_Phase_5,165,5,42,127,1078516068
100,10,23,Ticks_Phase_5,166,1,48,51,1079011380
100,10,23,Ticks_Phase_5,167,5,42,127,1079015680
100,10,23,Ticks_Phase_5,168,1,48,46,1079510096
100,10,23,Ticks_Phase_5,169,5,42,127,1079515592
100,10,23,Ticks_Phase_5,170,1,48,43,1079993076
100,10,23,Ticks_Phase_5,171,5,42,127,1080016476
100,10,23,Ticks_Phase_5,172,1,48,46,1080503860
100,10,23,Ticks_Phase_5,173,5,42,127,1080516088
100,10,23,Ticks_Phase_5,174,1,48,46,1081002712
100,10,23,Ticks_Phase_5,175,5,42,127,1081015632
100,10,23,Ticks_Phase_5,176,1,48,43,1081472372
100,10,23,Ticks_Phase_5,177,5,42,127,1081516664
100,10,23,Ticks_Phase_5,178,5,42,127,1082016432
100,10,23,Ticks_Phase_5,179,1,48,50,1082036856
100,10,23,Ticks_Phase_5,180,5,42,127,1082515748
100,10,23,Ticks_Phase_5,181,1,48,49,1082518720
100,10,23,Ticks_Phase_5,182,1,48,46,1083004320
100,10,23,Ticks_Phase_5,183,5,42,127,1083015428
100,10,23,Ticks_Phase_5,184,1,48,49,1083478692
100,10,23,Ticks_Phase_5,185,5,42,127,1083516460
100,10,23,Ticks_Phase_5,186,1,48,48,1084012072
100,10,23,Ticks_Phase_5,187,5,42,127,1084016076
100,10,23,Ticks_Phase_5,188,1,48,51,1084480688
100,10,23,Ticks_Phase_5,189,5,42,127,1084515616
100,10,23,Ticks_Phase_5,190,5,42,127,1084966628
100,10,23,Ticks_Phase_5,191,1,48,51,1084983688
100,10,23,Ticks_Phase_5,192,1,48,50,1085434808
100,10,23,Ticks_Phase_5,193,5,42,127,1085466088
100,10,23,Ticks_Phase_5,194,1,48,45,1085947156
100,10,23,Ticks_Phase_5,195,5,42,127,1085965776
100,10,23,Ticks_Phase_5,196,1,48,49,1086420700
100,10,23,Ticks_Phase_5,197,5,42,127,1086466588
100,10,23,Ticks_Phase_5,198,1,48,48,1086918068
100,10,23,Ticks_Phase_5,199,5,42,127,1086976608
100,10,23,Ticks_Phase_5,200,1,48,48,1087443512
100,10,23,Ticks_Phase_5,201,5,42,127,1087476124
100,10,23,Ticks_Phase_5,202,1,48,52,1087913764
100,10,23,Ticks_Phase_5,203,5,42,127,1087975812
100,10,23,Ticks_Phase_5,204,1,48,45,1088436152
100,10,23,Ticks_Phase_5,205,5,42,127,1088475500
100,10,23,Ticks_Phase_5,206,1,48,38,1088968488
100,10,23,Ticks_Phase_5,207,5,42,127,1088976528
100,10,23,Ticks_Phase_5,208,1,48,37,1089429612
100,10,23,Ticks_Phase_5,209,5,42,127,1089475996
100,10,23,Ticks_Phase_5,210,5,42,127,1089975616
100,10,23,Ticks_Phase_5,211,1,48,39,1089977484
100,10,23,Ticks_Phase_5,212,1,48,38,1090465384
100,10,23,Ticks_Phase_5,213,5,42,127,1090476568
100,10,23,Ticks_Phase_5,214,1,48,44,1090947920
100,10,23,Ticks_Phase_5,215,5,42,127,1090976328
100,10,23,Ticks_Phase_5,216,1,48,46,1091447236
100,10,23,Ticks_Phase_5,217,5,42,127,1091475796
100,10,23,Ticks_Phase_5,218,1,48,47,1091934496
100,10,23,Ticks_Phase_5,219,5,42,127,1091975632
100,10,23,Ticks_Phase_5,220,1,48,49,1092402944
100,10,23,Ticks_Phase_5,221,5,42,127,1092476440
100,10,23,Ticks_Phase_5,222,1,48,41,1092906680
100,10,23,Ticks_Phase_5,223,5,42,127,1092976056
100,10,23,Ticks_Phase_5,224,1,48,39,1093491140
100,10,23,Ticks_Phase_5,225,5,42,127,1093525844
100,10,23,Ticks_Phase_5,226,1,48,44,1093978624
100,10,23,Ticks_Phase_5,227,5,42,127,1094025608
100,10,23,Ticks_Phase_5,228,1,48,35,1094525144
100,10,23,Ticks_Phase_5,229,5,42,127,1094526712
100,10,23,Ticks_Phase_5,230,1,48,33,1095022632
100,10,23,Ticks_Phase_5,231,5,42,127,1095026180
100,10,23,Ticks_Phase_5,232,1,48,35,1095499108
100,10,23,Ticks_Phase_5,233,5,42,127,1095525872
100,10,23,Ticks_Phase_5,234,1,48,34,1095981716
100,10,23,Ticks_Phase_5,235,5,42,127,1096025556
100,10,23,Ticks_Phase_5,236,1,48,40,1096490836
100,10,23,Ticks_Phase_5,237,5,42,127,1096526368
100,10,23,Ticks_Phase_5,238,1,48,40,1097009256
100,10,23,Ticks_Phase_5,239,5,42,127,1097025908
100,10,23,Ticks_Phase_5,240,1,48,46,1097515016
100,10,23,Ticks_Phase_5,241,5,42,127,1097525524
100,10,23,Ticks_Phase_5,242,1,48,37,1097980320
100,10,23,Ticks_Phase_5,243,5,42,127,1098026332
100,10,23,Ticks_Phase_5,244,1,48,43,1098492960
100,10,23,Ticks_Phase_5,245,5,42,127,1098526168
100,10,23,Ticks_Phase_5,246,1,48,40,1099017224
100,10,23,Ticks_Phase_5,247,5,42,127,1099025708
100,10,23,Ticks_Phase_5,248,1,48,52,1099481676
100,10,23,Ticks_Phase_5,249,5,42,127,1099525620
100,10,23,Ticks_Phase_5,250,1,48,41,1099970660
100,10,23,Ticks_Phase_5,251,5,42,127,1100026256
100,10,23,Ticks_Phase_5,252,1,48,45,1100514984
100,10,23,Ticks_Phase_5,253,5,42,127,1100526016
100,10,23,Ticks_Phase_5,254,1,48,48,1101022380
100,10,23,Ticks_Phase_5,255,5,42,127,1101025632
100,10,23,Ticks_Phase_5,256,5,42,127,1101526452
100,10,23,Ticks_Phase_5,257,1,48,44,1101527492
100,10,23,Ticks_Phase_5,258,1,48,42,1102005136
100,10,23,Ticks_Phase_5,259,5,42,127,1102125444
100,10,23,Ticks_Phase_5,260,5,42,127,1102626352
100,10,23,Ticks_Phase_5,261,1,48,29,1102672304
100,10,23,Ticks_Phase_5,262,5,42,127,1103125740
100,10,23,Ticks_Phase_5,263,1,48,40,1103176716
100,10,23,Ticks_Phase_5,264,5,42,127,1103625652
100,10,23,Ticks_Phase_5,265,1,48,34,1103637460
100,10,23,Ticks_Phase_5,266,5,42,127,1104126312
100,10,23,Ticks_Phase_5,267,1,48,40,1104135204
100,10,23,Ticks_Phase_5,268,5,42,127,1104626348
100,10,23,Ticks_Phase_5,269,1,48,48,1104629996
100,10,23,Ticks_Phase_5,270,1,48,50,1105119564
100,10,23,Ticks_Phase_5,271,5,42,127,1105125660
100,10,23,Ticks_Phase_5,272,1,48,46,1105595664
100,10,23,Ticks_Phase_5,273,5,42,127,1105625496
100,10,23,Ticks_Phase_5,274,5,42,127,1106126312
100,10,23,Ticks_Phase_5,275,1,48,50,1106132720
100,10,23,Ticks_Phase_5,276,1,48,43,1106608516
100,10,23,Ticks_Phase_5,277,5,42,127,1106626068
100,10,23,Ticks_Phase_5,278,1,48,45,1107091724
100,10,23,Ticks_Phase_5,279,5,42,127,1107125680
100,10,23,Ticks_Phase_5,280,1,48,47,1107608192
100,10,23,Ticks_Phase_5,281,5,42,127,1107626416
100,10,23,Ticks_Phase_5,282,1,48,44,1108100536
100,10,23,Ticks_Phase_5,283,5,42,127,1108126324
100,10,23,Ticks_Phase_5,284,1,48,45,1108606220
100,10,23,Ticks_Phase_5,285,5,42,127,1108625868
100,10,23,Ticks_Phase_5,286,1,48,45,1109099540
100,10,23,Ticks_Phase_5,287,5,42,127,1109125480
100,10,23,Ticks_Phase_5,288,1,48,54,1109621388
100,10,23,Ticks_Phase_5,289,5,42,127,1109626364
100,10,23,Ticks_Phase_5,290,1,48,38,1109656808
100,10,23,Ticks_Phase_5,291,5,42,127,1110126112
100,10,23,Ticks_Phase_5,292,1,48,46,1110127080
100,10,23,Ticks_Phase_5,293,1,48,47,1110613032
100,10,23,Ticks_Phase_5,294,5,42,127,1110625644
100,10,23,Ticks_Phase_5,295,1,48,48,1111120876
100,10,23,Ticks_Phase_5,296,5,42,127,1111126384
100,10,23,Ticks_Phase_5,297,5,42,127,1111525704
100,10,23,Ticks_Phase_5,298,1,48,41,1111642968
100,10,23,Ticks_Phase_5,299,5,42,127,1112025392
100,10,23,Ticks_Phase_5,300,5,42,127,1112526148
100,10,23,Ticks_Phase_5,301,5,42,127,1113026008
100,10,23,Ticks_Phase_5,302,1,48,31,1113037148
100,10,23,Ticks_Phase_5,303,1,48,34,1113504544
100,10,23,Ticks_Phase_5,304,5,42,127,1113525540
100,10,23,Ticks_Phase_5,305,5,42,127,1114026208
100,10,23,Ticks_Phase_5,306,1,48,32,1114029924
100,10,23,Ticks_Phase_5,307,1,48,39,1114512676
100,10,23,Ticks_Phase_5,308,5,42,127,1114526040
100,10,23,Ticks_Phase_5,309,1,48,45,1115009376
100,10,23,Ticks_Phase_5,310,5,42,127,1115025952
100,10,23,Ticks_Phase_5,311,1,48,40,1115485552
100,10,23,Ticks_Phase_5,312,5,42,127,1115525420
100,10,23,Ticks_Phase_5,313,1,48,41,1115999760
100,10,23,Ticks_Phase_5,314,5,42,127,1116026152
100,10,23,Ticks_Phase_5,315,1,48,41,1116485596
100,10,23,Ticks_Phase_5,316,5,42,127,1116525992
100,10,23,Ticks_Phase_5,317,1,48,39,1116972624
100,10,23,Ticks_Phase_5,318,5,42,127,1117025604
100,10,23,Ticks_Phase_5,319,1,48,49,1117508188
100,10,23,Ticks_Phase_5,320,5,42,127,1117526340
100,10,23,Ticks_Phase_5,321,1,48,43,1118000084
100,10,23,Ticks_Phase_5,322,5,42,127,1118026028
100,10,23,Ticks_Phase_5,323,1,48,49,1118508460
100,10,23,Ticks_Phase_5,324,5,42,127,1118526084
100,10,23,Ticks_Phase_5,325,1,48,45,1118986284
100,10,23,Ticks_Phase_5,326,5,42,127,1119025624
100,10,23,Ticks_Phase_5,327,1,48,43,1119484180
100,10,23,Ticks_Phase_5,328,5,42,127,1119526288
100,10,23,Ticks_Phase_5,329,1,48,44,1120014492
100,10,23,Ticks_Phase_5,330,5,42,127,1120026196
100,10,23,Ticks_Phase_5,331,5,42,127,1120525596
100,10,23,Ticks_Phase_5,332,1,48,38,1120552000
100,10,23,Ticks_Phase_5,333,1,48,47,1121010168
100,10,23,Ticks_Phase_5,334,5,42,127,1121026548
100,10,23,Ticks_Phase_5,0,9999,9999,9999,1036503120
100,10,23,Ticks_Phase_5,1,9999,9999,9999,1037003876
100,10,23,Ticks_Phase_5,2,9999,9999,9999,1037503584
100,10,23,Ticks_Phase_5,3,9999,9999,9999,1038003296
100,10,23,Ticks_Phase_5,4,9999,9999,9999,1038504052
100,10,23,Ticks_Phase_5,5,9999,9999,9999,1039003740
100,10,23,Ticks_Phase_5,6,9999,9999,9999,1039503424
100,10,23,Ticks_Phase_5,7,9999,9999,9999,1040003188
100,10,23,Ticks_Phase_5,8,9999,9999,9999,1040503920
100,10,23,Ticks_Phase_5,9,9999,9999,9999,1041003616
100,10,23,Ticks_Phase_5,10,9999,9999,9999,1041503304
100,10,23,Ticks_Phase_5,11,9999,9999,9999,1042004040
100,10,23,Ticks_Phase_5,12,9999,9999,9999,1042503796
100,10,23,Ticks_Phase_5,13,9999,9999,9999,1043003492
100,10,23,Ticks_Phase_5,14,9999,9999,9999,1043503172
100,10,23,Ticks_Phase_5,15,9999,9999,9999,1044003908
100,10,23,Ticks_Phase_5,16,9999,9999,9999,1044503672
100,10,23,Ticks_Phase_5,17,9999,9999,9999,1045003368
100,10,23,Ticks_Phase_5,18,9999,9999,9999,1045504072
100,10,23,Ticks_Phase_5,19,9999,9999,9999,1046014016
100,10,23,Ticks_Phase_5,20,9999,9999,9999,1046513756
100,10,23,Ticks_Phase_5,21,9999,9999,9999,1047013444
100,10,23,Ticks_Phase_5,22,9999,9999,9999,1047513208
100,10,23,Ticks_Phase_5,23,9999,9999,9999,1048013940
100,10,23,Ticks_Phase_5,24,9999,9999,9999,1048513628
100,10,23,Ticks_Phase_5,25,9999,9999,9999,1049013356
100,10,23,Ticks_Phase_5,26,9999,9999,9999,1049514052
100,10,23,Ticks_Phase_5,27,9999,9999,9999,1050013816
100,10,23,Ticks_Phase_5,28,9999,9999,9999,1050513512
100,10,23,Ticks_Phase_5,29,9999,9999,9999,1051013192
100,10,23,Ticks_Phase_5,30,9999,9999,9999,1051503676
100,10,23,Ticks_Phase_5,31,9999,9999,9999,1052003432
100,10,23,Ticks_Phase_5,32,9999,9999,9999,1052503120
100,10,23,Ticks_Phase_5,33,9999,9999,9999,1053003856
100,10,23,Ticks_Phase_5,34,9999,9999,9999,1053503544
100,10,23,Ticks_Phase_5,35,9999,9999,9999,1054003316
100,10,23,Ticks_Phase_5,36,9999,9999,9999,1054504052
100,10,23,Ticks_Phase_5,37,9999,9999,9999,1055003732
100,10,23,Ticks_Phase_5,38,9999,9999,9999,1055503424
100,10,23,Ticks_Phase_5,39,9999,9999,9999,1056003184
100,10,23,Ticks_Phase_5,40,9999,9999,9999,1056503896
100,10,23,Ticks_Phase_5,41,9999,9999,9999,1057003584
100,10,23,Ticks_Phase_5,42,9999,9999,9999,1057503344
100,10,23,Ticks_Phase_5,43,9999,9999,9999,1058004080
100,10,23,Ticks_Phase_5,44,9999,9999,9999,1058503768
100,10,23,Ticks_Phase_5,45,9999,9999,9999,1059003460
100,10,23,Ticks_Phase_5,46,9999,9999,9999,1059503228
100,10,23,Ticks_Phase_5,47,9999,9999,9999,1060003960
100,10,23,Ticks_Phase_5,48,9999,9999,9999,1060513904
100,10,23,Ticks_Phase_5,49,9999,9999,9999,1061013596
100,10,23,Ticks_Phase_5,50,9999,9999,9999,1061513284
100,10,23,Ticks_Phase_5,51,9999,9999,9999,1062014020
100,10,23,Ticks_Phase_5,52,9999,9999,9999,1062513780
100,10,23,Ticks_Phase_5,53,9999,9999,9999,1063013476
100,10,23,Ticks_Phase_5,54,9999,9999,9999,1063513164
100,10,23,Ticks_Phase_5,55,9999,9999,9999,1064013896
100,10,23,Ticks_Phase_5,56,9999,9999,9999,1064513656
100,10,23,Ticks_Phase_5,57,9999,9999,9999,1065013344
100,10,23,Ticks_Phase_5,58,9999,9999,9999,1065514080
100,10,23,Ticks_Phase_5,59,9999,9999,9999,1066013768
100,10,23,Ticks_Phase_5,60,9999,9999,9999,1066513528
100,10,23,Ticks_Phase_5,61,9999,9999,9999,1067013224
100,10,23,Ticks_Phase_5,62,9999,9999,9999,1067513936
100,10,23,Ticks_Phase_5,63,9999,9999,9999,1068013692
100,10,23,Ticks_Phase_5,64,9999,9999,9999,1068533824
100,10,23,Ticks_Phase_5,65,9999,9999,9999,1069033588
100,10,23,Ticks_Phase_5,66,9999,9999,9999,1069533276
100,10,23,Ticks_Phase_5,67,9999,9999,9999,1070034012
100,10,23,Ticks_Phase_5,68,9999,9999,9999,1070533700
100,10,23,Ticks_Phase_5,69,9999,9999,9999,1071033468
100,10,23,Ticks_Phase_5,70,9999,9999,9999,1071533160
100,10,23,Ticks_Phase_5,71,9999,9999,9999,1072033888
100,10,23,Ticks_Phase_5,72,9999,9999,9999,1072533576
100,10,23,Ticks_Phase_5,73,9999,9999,9999,1073033272
100,10,23,Ticks_Phase_5,74,9999,9999,9999,1073534004
100,10,23,Ticks_Phase_5,75,9999,9999,9999,1074033768
100,10,23,Ticks_Phase_5,76,9999,9999,9999,1074533456
100,10,23,Ticks_Phase_5,77,9999,9999,9999,1075033212
100,10,23,Ticks_Phase_5,78,9999,9999,9999,1075533948
100,10,23,Ticks_Phase_5,79,9999,9999,9999,1076033636
100,10,23,Ticks_Phase_5,80,9999,9999,9999,1076533328
100,10,23,Ticks_Phase_5,81,9999,9999,9999,1077013628
100,10,23,Ticks_Phase_5,82,9999,9999,9999,1077513316
100,10,23,Ticks_Phase_5,83,9999,9999,9999,1078014048
100,10,23,Ticks_Phase_5,84,9999,9999,9999,1078513780
100,10,23,Ticks_Phase_5,85,9999,9999,9999,1079013468
100,10,23,Ticks_Phase_5,86,9999,9999,9999,1079513156
100,10,23,Ticks_Phase_5,87,9999,9999,9999,1080013892
100,10,23,Ticks_Phase_5,88,9999,9999,9999,1080513652
100,10,23,Ticks_Phase_5,89,9999,9999,9999,1081013344
100,10,23,Ticks_Phase_5,90,9999,9999,9999,1081514076
100,10,23,Ticks_Phase_5,91,9999,9999,9999,1082013772
100,10,23,Ticks_Phase_5,92,9999,9999,9999,1082513536
100,10,23,Ticks_Phase_5,93,9999,9999,9999,1083013216
100,10,23,Ticks_Phase_5,94,9999,9999,9999,1083513952
100,10,23,Ticks_Phase_5,95,9999,9999,9999,1084013640
100,10,23,Ticks_Phase_5,96,9999,9999,9999,1084513404
100,10,23,Ticks_Phase_5,97,9999,9999,9999,1084963896
100,10,23,Ticks_Phase_5,98,9999,9999,9999,1085463652
100,10,23,Ticks_Phase_5,99,9999,9999,9999,1085963340
100,10,23,Ticks_Phase_5,100,9999,9999,9999,1086464076
100,10,23,Ticks_Phase_5,101,9999,9999,9999,1086974024
100,10,23,Ticks_Phase_5,102,9999,9999,9999,1087473764
100,10,23,Ticks_Phase_5,103,9999,9999,9999,1087973448
100,10,23,Ticks_Phase_5,104,9999,9999,9999,1088473212
100,10,23,Ticks_Phase_5,105,9999,9999,9999,1088973944
100,10,23,Ticks_Phase_5,106,9999,9999,9999,1089473636
100,10,23,Ticks_Phase_5,107,9999,9999,9999,1089973328
100,10,23,Ticks_Phase_5,108,9999,9999,9999,1090474056
100,10,23,Ticks_Phase_5,109,9999,9999,9999,1090973820
100,10,23,Ticks_Phase_5,110,9999,9999,9999,1091473508
100,10,23,Ticks_Phase_5,111,9999,9999,9999,1091973196
100,10,23,Ticks_Phase_5,112,9999,9999,9999,1092473932
100,10,23,Ticks_Phase_5,113,9999,9999,9999,1092973692
100,10,23,Ticks_Phase_5,114,9999,9999,9999,1093523560
100,10,23,Ticks_Phase_5,115,9999,9999,9999,1094023248
100,10,23,Ticks_Phase_5,116,9999,9999,9999,1094523988
100,10,23,Ticks_Phase_5,117,9999,9999,9999,1095023672
100,10,23,Ticks_Phase_5,118,9999,9999,9999,1095523436
100,10,23,Ticks_Phase_5,119,9999,9999,9999,1096023124
100,10,23,Ticks_Phase_5,120,9999,9999,9999,1096523856
100,10,23,Ticks_Phase_5,121,9999,9999,9999,1097023548
100,10,23,Ticks_Phase_5,122,9999,9999,9999,1097523312
100,10,23,Ticks_Phase_5,123,9999,9999,9999,1098024044
100,10,23,Ticks_Phase_5,124,9999,9999,9999,1098523732
100,10,23,Ticks_Phase_5,125,9999,9999,9999,1099023420
100,10,23,Ticks_Phase_5,126,9999,9999,9999,1099523184
100,10,23,Ticks_Phase_5,127,9999,9999,9999,1100023896
100,10,23,Ticks_Phase_5,128,9999,9999,9999,1100523584
100,10,23,Ticks_Phase_5,129,9999,9999,9999,1101023348
100,10,23,Ticks_Phase_5,130,9999,9999,9999,1101524088
100,10,23,Ticks_Phase_5,131,9999,9999,9999,1102123080
100,10,23,Ticks_Phase_5,132,9999,9999,9999,1102623840
100,10,23,Ticks_Phase_5,133,9999,9999,9999,1103123528
100,10,23,Ticks_Phase_5,134,9999,9999,9999,1103623292
100,10,23,Ticks_Phase_5,135,9999,9999,9999,1104124024
100,10,23,Ticks_Phase_5,136,9999,9999,9999,1104623688
100,10,23,Ticks_Phase_5,137,9999,9999,9999,1105123448
100,10,23,Ticks_Phase_5,138,9999,9999,9999,1105623136
100,10,23,Ticks_Phase_5,139,9999,9999,9999,1106123876
100,10,23,Ticks_Phase_5,140,9999,9999,9999,1106623556
100,10,23,Ticks_Phase_5,141,9999,9999,9999,1107123320
100,10,23,Ticks_Phase_5,142,9999,9999,9999,1107624056
100,10,23,Ticks_Phase_5,143,9999,9999,9999,1108123744
100,10,23,Ticks_Phase_5,144,9999,9999,9999,1108623432
100,10,23,Ticks_Phase_5,145,9999,9999,9999,1109123196
100,10,23,Ticks_Phase_5,146,9999,9999,9999,1109623928
100,10,23,Ticks_Phase_5,147,9999,9999,9999,1110123600
100,10,23,Ticks_Phase_5,148,9999,9999,9999,1110623360
100,10,23,Ticks_Phase_5,149,9999,9999,9999,1111124092
100,10,23,Ticks_Phase_5,150,9999,9999,9999,1111523416
100,10,23,Ticks_Phase_5,151,9999,9999,9999,1112023104
100,10,23,Ticks_Phase_5,152,9999,9999,9999,1112523860
100,10,23,Ticks_Phase_5,153,9999,9999,9999,1113023572
100,10,23,Ticks_Phase_5,154,9999,9999,9999,1113523256
100,10,23,Ticks_Phase_5,155,9999,9999,9999,1114023996
100,10,23,Ticks_Phase_5,156,9999,9999,9999,1114523752
100,10,23,Ticks_Phase_5,157,9999,9999,9999,1115023444
100,10,23,Ticks_Phase_5,158,9999,9999,9999,1115523132
100,10,23,Ticks_Phase_5,159,9999,9999,9999,1116023864
100,10,23,Ticks_Phase_5,160,9999,9999,9999,1116523628
100,10,23,Ticks_Phase_5,161,9999,9999,9999,1117023320
100,10,23,Ticks_Phase_5,162,9999,9999,9999,1117524052
100,10,23,Ticks_Phase_5,163,9999,9999,9999,1118023740
100,10,23,Ticks_Phase_5,164,9999,9999,9999,1118523504
100,10,23,Ticks_Phase_5,165,9999,9999,9999,1119023192
100,10,23,Ticks_Phase_5,166,9999,9999,9999,1119523924
100,10,23,Ticks_Phase_5,167,9999,9999,9999,1120023612
100,10,23,Ticks_Phase_5,168,9999,9999,9999,1120523380
100,10,23,Ticks_Phase_5,169,9999,9999,9999,1121024112
100,11,25,Jits_Pract_5,0,5,56,103,1161975160
100,11,25,Jits_Pract_5,1,5,63,98,1161978208
100,11,25,Jits_Pract_5,2,5,80,127,1161981552
100,11,25,Jits_Pract_5,0,5,56,103,1162474960
100,11,25,Jits_Pract_5,1,5,63,98,1162477980
100,11,25,Jits_Pract_5,2,5,80,127,1162481028
100,11,25,Jits_Pract_5,0,5,56,103,1162974552
100,11,25,Jits_Pract_5,1,5,80,127,1162984748
100,11,25,Jits_Pract_5,2,5,63,98,1163005456
100,11,25,Jits_Pract_5,0,5,63,98,1163425076
100,11,25,Jits_Pract_5,1,5,80,127,1163454824
100,11,25,Jits_Pract_5,2,5,56,103,1163465024
100,11,25,Jits_Pract_5,0,5,80,127,1163985412
100,11,25,Jits_Pract_5,1,5,56,103,1163994412
100,11,25,Jits_Pract_5,2,5,63,98,1164025532
100,11,25,Jits_Pract_5,0,5,63,98,1164474600
100,11,25,Jits_Pract_5,1,5,56,103,1164504572
100,11,25,Jits_Pract_5,2,5,80,127,1164514768
100,11,25,Jits_Pract_5,0,5,56,103,1164925328
100,11,25,Jits_Pract_5,1,5,63,98,1164974560
100,11,25,Jits_Pract_5,2,5,80,127,1164994872
100,11,25,Jits_Pract_5,0,5,80,127,1165425072
100,11,25,Jits_Pract_5,1,5,63,98,1165475276
100,11,25,Jits_Pract_5,2,5,56,103,1165515288
100,11,25,Jits_Pract_5,0,5,56,103,1165924668
100,11,25,Jits_Pract_5,1,5,63,98,1165954344
100,11,25,Jits_Pract_5,2,5,80,127,1166025292
100,11,25,Jits_Pract_5,0,5,56,103,1166424336
100,11,25,Jits_Pract_5,1,5,80,127,1166484800
100,11,25,Jits_Pract_5,2,5,63,98,1166514400
100,11,25,Jits_Pract_5,0,5,56,103,1166935388
100,11,25,Jits_Pract_5,1,5,63,98,1166944540
100,11,25,Jits_Pract_5,2,5,80,127,1166984552
100,11,25,Jits_Pract_5,0,5,63,98,1167425016
100,11,25,Jits_Pract_5,1,5,80,127,1167504740
100,11,25,Jits_Pract_5,2,5,56,103,1167515084
100,11,25,Jits_Pract_5,0,5,63,98,1167974720
100,11,25,Jits_Pract_5,1,5,56,103,1168014656
100,11,25,Jits_Pract_5,2,5,80,127,1168017796
100,11,25,Jits_Pract_5,0,5,56,103,1168434584
100,11,25,Jits_Pract_5,1,5,63,98,1168444856
100,11,25,Jits_Pract_5,2,5,80,127,1168484720
100,11,25,Jits_Pract_5,0,5,56,103,1168925256
100,11,25,Jits_Pract_5,1,5,63,98,1168928172
100,11,25,Jits_Pract_5,2,5,80,127,1168944516
100,11,25,Jits_Pract_5,0,9999,9999,9999,1162222668
100,11,25,Jits_Pract_5,1,9999,9999,9999,1162722396
100,11,25,Jits_Pract_5,2,9999,9999,9999,1163222068
100,11,25,Jits_Pract_5,3,9999,9999,9999,1163722856
100,11,25,Jits_Pract_5,4,9999,9999,9999,1164222516
100,11,25,Jits_Pract_5,5,9999,9999,9999,1164722264
100,11,25,Jits_Pract_5,6,9999,9999,9999,1165222964
100,11,25,Jits_Pract_5,7,9999,9999,9999,1165722708
100,11,25,Jits_Pract_5,8,9999,9999,9999,1166222452
100,11,25,Jits_Pract_5,9,9999,9999,9999,1166722120
100,11,25,Jits_Pract_5,10,9999,9999,9999,1167222908
100,11,25,Jits_Pract_5,11,9999,9999,9999,1167722576
100,11,25,Jits_Pract_5,12,9999,9999,9999,1168222300
100,11,25,Jits_Pract_5,13,9999,9999,9999,1168723000
100,11,25,Jits_Pract_5,14,9999,9999,9999,1169222728
100,12,24,Jits_Pract_8,0,5,56,103,1219968464
100,12,24,Jits_Pract_8,1,5,63,98,1219971788
100,12,24,Jits_Pract_8,2,5,80,127,1219974684
100,12,24,Jits_Pract_8,0,5,56,103,1220768028
100,12,24,Jits_Pract_8,1,5,63,98,1220771052
100,12,24,Jits_Pract_8,2,5,80,127,1220774472
100,12,24,Jits_Pract_8,0,5,80,127,1221507748
100,12,24,Jits_Pract_8,1,5,63,98,1221597508
100,12,24,Jits_Pract_8,2,5,56,103,1221607852
100,12,24,Jits_Pract_8,0,5,56,103,1222327564
100,12,24,Jits_Pract_8,1,5,63,98,1222337984
100,12,24,Jits_Pract_8,2,5,80,127,1222428064
100,12,24,Jits_Pract_8,0,5,63,98,1223097704
100,12,24,Jits_Pract_8,1,1,48,51,1223115644
100,12,24,Jits_Pract_8,2,5,80,127,1223128568
100,12,24,Jits_Pract_8,3,5,56,103,1223158416
100,12,24,Jits_Pract_8,0,1,48,56,1223845192
100,12,24,Jits_Pract_8,1,5,56,103,1223897372
100,12,24,Jits_Pract_8,2,5,80,127,1223997856
100,12,24,Jits_Pract_8,3,5,63,98,1224047980
100,12,24,Jits_Pract_8,0,5,56,103,1224698284
100,12,24,Jits_Pract_8,1,1,48,55,1224732116
100,12,24,Jits_Pract_8,2,5,80,127,1224748332
100,12,24,Jits_Pract_8,3,5,63,98,1224788268
100,12,24,Jits_Pract_8,0,5,80,127,1225527576
100,12,24,Jits_Pract_8,1,1,48,45,1225556628
100,12,24,Jits_Pract_8,2,5,63,98,1225558292
100,12,24,Jits_Pract_8,3,5,56,103,1225627968
100,12,24,Jits_Pract_8,0,1,48,43,1226342284
100,12,24,Jits_Pract_8,1,5,63,98,1226358128
100,12,24,Jits_Pract_8,2,5,56,103,1226387728
100,12,24,Jits_Pract_8,3,5,80,127,1226448324
100,12,24,Jits_Pract_8,0,5,56,103,1227097356
100,12,24,Jits_Pract_8,1,5,80,127,1227100500
100,12,24,Jits_Pract_8,2,1,48,49,1227167084
100,12,24,Jits_Pract_8,3,5,63,98,1227218496
100,12,24,Jits_Pract_8,0,1,48,24,1227919188
100,12,24,Jits_Pract_8,1,5,56,103,1227978032
100,12,24,Jits_Pract_8,2,5,80,127,1228018044
100,12,24,Jits_Pract_8,3,5,63,98,1228028548
100,12,24,Jits_Pract_8,0,1,48,52,1228717092
100,12,24,Jits_Pract_8,1,5,56,103,1228737788
100,12,24,Jits_Pract_8,2,5,80,127,1228758320
100,12,24,Jits_Pract_8,3,5,63,98,1228838424
100,12,24,Jits_Pract_8,0,1,48,55,1229513764
100,12,24,Jits_Pract_8,1,5,80,127,1229528556
100,12,24,Jits_Pract_8,2,5,56,103,1229627692
100,12,24,Jits_Pract_8,3,5,63,98,1229638188
100,12,24,Jits_Pract_8,0,5,63,98,1230297384
100,12,24,Jits_Pract_8,1,5,80,127,1230357872
100,12,24,Jits_Pract_8,2,1,48,52,1230363160
100,12,24,Jits_Pract_8,3,5,56,103,1230368060
100,12,24,Jits_Pract_8,0,1,48,50,1231084952
100,12,24,Jits_Pract_8,1,5,56,103,1231098420
100,12,24,Jits_Pract_8,2,5,63,98,1231167724
100,12,24,Jits_Pract_8,3,5,80,127,1231171388
100,12,24,Jits_Pract_8,0,9999,9999,9999,1220365372
100,12,24,Jits_Pract_8,1,9999,9999,9999,1221165164
100,12,24,Jits_Pract_8,2,9999,9999,9999,1221965944
100,12,24,Jits_Pract_8,3,9999,9999,9999,1222765680
100,12,24,Jits_Pract_8,4,9999,9999,9999,1223565388
100,12,24,Jits_Pract_8,5,9999,9999,9999,1224365144
100,12,24,Jits_Pract_8,6,9999,9999,9999,1225165944
100,12,24,Jits_Pract_8,7,9999,9999,9999,1225965644
100,12,24,Jits_Pract_8,8,9999,9999,9999,1226765364
100,12,24,Jits_Pract_8,9,9999,9999,9999,1227565112
100,12,24,Jits_Pract_8,10,9999,9999,9999,1228365940
100,12,24,Jits_Pract_8,11,9999,9999,9999,1229165624
100,12,24,Jits_Pract_8,12,9999,9999,9999,1229965392
100,12,24,Jits_Pract_8,13,9999,9999,9999,1230765140
100,12,24,Jits_Pract_8,14,9999,9999,9999,1231565932
100,13,25,Jits_Pract_5,0,5,56,103,1243795876
100,13,25,Jits_Pract_5,1,5,63,98,1243798972
100,13,25,Jits_Pract_5,2,5,80,127,1243802096
100,13,25,Jits_Pract_5,0,5,56,103,1244295528
100,13,25,Jits_Pract_5,1,5,63,98,1244298548
100,13,25,Jits_Pract_5,2,5,80,127,1244301600
100,13,25,Jits_Pract_5,0,5,56,103,1244805460
100,13,25,Jits_Pract_5,1,5,80,127,1244815656
100,13,25,Jits_Pract_5,2,5,63,98,1244836412
100,13,25,Jits_Pract_5,0,5,63,98,1245256276
100,13,25,Jits_Pract_5,1,5,80,127,1245285804
100,13,25,Jits_Pract_5,2,5,56,103,1245296148
100,13,25,Jits_Pract_5,0,1,48,32,1245812376
100,13,25,Jits_Pract_5,1,5,80,127,1245816308
100,13,25,Jits_Pract_5,2,5,56,103,1245826432
100,13,25,Jits_Pract_5,3,5,63,98,1245856028
100,13,25,Jits_Pract_5,0,1,48,43,1246303476
100,13,25,Jits_Pract_5,1,5,63,98,1246305812
100,13,25,Jits_Pract_5,2,5,56,103,1246336312
100,13,25,Jits_Pract_5,3,5,80,127,1246345460
100,13,25,Jits_Pract_5,0,5,56,103,1246756216
100,13,25,Jits_Pract_5,1,1,48,44,1246783696
100,13,25,Jits_Pract_5,2,5,63,98,1246806416
100,13,25,Jits_Pract_5,3,5,80,127,1246826196
100,13,25,Jits_Pract_5,0,5,80,127,1247256144
100,13,25,Jits_Pract_5,1,1,48,42,1247269600
100,13,25,Jits_Pract_5,2,5,63,98,1247306120
100,13,25,Jits_Pract_5,3,5,56,103,1247346128
100,13,25,Jits_Pract_5,0,5,56,103,1247755552
100,13,25,Jits_Pract_5,1,5,63,98,1247786276
100,13,25,Jits_Pract_5,2,1,48,40,1247807976
100,13,25,Jits_Pract_5,3,5,80,127,1247856096
100,13,25,Jits_Pract_5,0,5,56,103,1248256312
100,13,25,Jits_Pract_5,1,1,48,45,1248277040
100,13,25,Jits_Pract_5,2,5,80,127,1248315800
100,13,25,Jits_Pract_5,3,5,63,98,1248345400
100,13,25,Jits_Pract_5,0,5,56,103,1248766352
100,13,25,Jits_Pract_5,1,1,48,44,1248767320
100,13,25,Jits_Pract_5,2,5,63,98,1248775496
100,13,25,Jits_Pract_5,3,5,80,127,1248815508
100,13,25,Jits_Pract_5,0,5,63,98,1249255768
100,13,25,Jits_Pract_5,1,1,48,41,1249284988
100,13,25,Jits_Pract_5,2,5,80,127,1249335808
100,13,25,Jits_Pract_5,3,5,56,103,1249346004
100,13,25,Jits_Pract_5,0,1,48,49,1249789244
100,13,25,Jits_Pract_5,1,5,63,98,1249805608
100,13,25,Jits_Pract_5,2,5,56,103,1249845620
100,13,25,Jits_Pract_5,3,5,80,127,1249848760
100,13,25,Jits_Pract_5,0,5,56,103,1250265416
100,13,25,Jits_Pract_5,1,5,63,98,1250275688
100,13,25,Jits_Pract_5,2,1,48,49,1250291984
100,13,25,Jits_Pract_5,3,5,80,127,1250315692
100,13,25,Jits_Pract_5,0,1,48,45,1250748052
100,13,25,Jits_Pract_5,1,5,56,103,1250756168
100,13,25,Jits_Pract_5,2,5,63,98,1250759308
100,13,25,Jits_Pract_5,3,5,80,127,1250776332
100,13,25,Jits_Pract_5,0,9999,9999,9999,1244043384
100,13,25,Jits_Pract_5,1,9999,9999,9999,1244544084
100,13,25,Jits_Pract_5,2,9999,9999,9999,1245054020
100,13,25,Jits_Pract_5,3,9999,9999,9999,1245553760
100,13,25,Jits_Pract_5,4,9999,9999,9999,1246053472
100,13,25,Jits_Pract_5,5,9999,9999,9999,1246553164
100,13,25,Jits_Pract_5,6,9999,9999,9999,1247053908
100,13,25,Jits_Pract_5,7,9999,9999,9999,1247553612
100,13,25,Jits_Pract_5,8,9999,9999,9999,1248053320
100,13,25,Jits_Pract_5,9,9999,9999,9999,1248554076
100,13,25,Jits_Pract_5,10,9999,9999,9999,1249053776
100,13,25,Jits_Pract_5,11,9999,9999,9999,1249553488
100,13,25,Jits_Pract_5,12,9999,9999,9999,1250053176
100,13,25,Jits_Pract_5,13,9999,9999,9999,1250553960
100,13,25,Jits_Pract_5,14,9999,9999,9999,1251053628
100,14,7,Jits_ISO_8,0,5,56,103,1280447936
100,14,7,Jits_ISO_8,1,5,63,98,1280450956
100,14,7,Jits_ISO_8,2,5,80,127,1280454228
100,14,7,Jits_ISO_8,0,5,56,103,1281247856
100,14,7,Jits_ISO_8,1,5,63,98,1281250728
100,14,7,Jits_ISO_8,2,5,80,127,1281253776
100,14,7,Jits_ISO_8,0,5,80,127,1281987932
100,14,7,Jits_ISO_8,1,5,63,98,1282078096
100,14,7,Jits_ISO_8,2,5,56,103,1282088288
100,14,7,Jits_ISO_8,0,5,56,103,1282808280
100,14,7,Jits_ISO_8,1,5,63,98,1282818848
100,14,7,Jits_ISO_8,2,5,80,127,1282907560
100,14,7,Jits_ISO_8,0,5,63,98,1283578252
100,14,7,Jits_ISO_8,1,1,48,49,1283604964
100,14,7,Jits_ISO_8,2,5,80,127,1283607848
100,14,7,Jits_ISO_8,3,5,56,103,1283637668
100,14,7,Jits_ISO_8,0,1,48,47,1284350200
100,14,7,Jits_ISO_8,1,5,56,103,1284377872
100,14,7,Jits_ISO_8,2,5,80,127,1284478480
100,14,7,Jits_ISO_8,3,5,63,98,1284527560
100,14,7,Jits_ISO_8,0,5,56,103,1285177584
100,14,7,Jits_ISO_8,1,1,48,46,1285216524
100,14,7,Jits_ISO_8,2,5,80,127,1285227856
100,14,7,Jits_ISO_8,3,5,63,98,1285267720
100,14,7,Jits_ISO_8,0,1,48,47,1285990828
100,14,7,Jits_ISO_8,1,5,80,127,1286008460
100,14,7,Jits_ISO_8,2,5,63,98,1286037840
100,14,7,Jits_ISO_8,3,5,56,103,1286107728
100,14,7,Jits_ISO_8,0,1,48,46,1286801476
100,14,7,Jits_ISO_8,1,5,63,98,1286837544
100,14,7,Jits_ISO_8,2,5,56,103,1286868416
100,14,7,Jits_ISO_8,3,5,80,127,1286927844
100,14,7,Jits_ISO_8,0,5,56,103,1287577920
100,14,7,Jits_ISO_8,1,5,80,127,1287581060
100,14,7,Jits_ISO_8,2,1,48,46,1287638728
100,14,7,Jits_ISO_8,3,5,63,98,1287697736
100,14,7,Jits_ISO_8,0,1,48,31,1288371524
100,14,7,Jits_ISO_8,1,5,56,103,1288457592
100,14,7,Jits_ISO_8,2,5,80,127,1288497664
100,14,7,Jits_ISO_8,3,5,63,98,1288507712
100,14,7,Jits_ISO_8,0,1,48,57,1289172060
100,14,7,Jits_ISO_8,1,5,56,103,1289218568
100,14,7,Jits_ISO_8,2,5,80,127,1289237832
100,14,7,Jits_ISO_8,3,5,63,98,1289317760
100,14,7,Jits_ISO_8,0,1,48,53,1290004008
100,14,7,Jits_ISO_8,1,5,80,127,1290007940
100,14,7,Jits_ISO_8,2,5,56,103,1290108472
100,14,7,Jits_ISO_8,3,5,63,98,1290117696
100,14,7,Jits_ISO_8,0,5,63,98,1290777912
100,14,7,Jits_ISO_8,1,1,48,48,1290809128
100,14,7,Jits_ISO_8,2,5,80,127,1290838672
100,14,7,Jits_ISO_8,3,5,56,103,1290847524
100,14,7,Jits_ISO_8,0,5,56,103,1291577836
100,14,7,Jits_ISO_8,1,1,48,53,1291588448
100,14,7,Jits_ISO_8,2,5,63,98,1291648560
100,14,7,Jits_ISO_8,3,5,80,127,1291651996
100,14,7,Jits_ISO_8,0,1,48,57,1292349572
100,14,7,Jits_ISO_8,1,5,63,98,1292408408
100,14,7,Jits_ISO_8,2,5,56,103,1292458596
100,14,7,Jits_ISO_8,3,5,80,127,1292461736
100,14,7,Jits_ISO_8,0,1,48,50,1293153156
100,14,7,Jits_ISO_8,1,5,56,103,1293167948
100,14,7,Jits_ISO_8,2,5,80,127,1293171088
100,14,7,Jits_ISO_8,3,5,63,98,1293257992
100,14,7,Jits_ISO_8,0,1,48,51,1293949264
100,14,7,Jits_ISO_8,1,5,63,98,1294007804
100,14,7,Jits_ISO_8,2,5,56,103,1294097652
100,14,7,Jits_ISO_8,3,5,80,127,1294127700
100,14,7,Jits_ISO_8,0,1,48,54,1294755408
100,14,7,Jits_ISO_8,1,5,56,103,1294798304
100,14,7,Jits_ISO_8,2,5,63,98,1294897516
100,14,7,Jits_ISO_8,3,5,80,127,1294928240
100,14,7,Jits_ISO_8,0,1,48,51,1295617148
100,14,7,Jits_ISO_8,1,5,63,98,1295618568
100,14,7,Jits_ISO_8,2,5,56,103,1295627644
100,14,7,Jits_ISO_8,3,5,80,127,1295717684
100,14,7,Jits_ISO_8,0,1,48,58,1296408512
100,14,7,Jits_ISO_8,1,5,63,98,1296437612
100,14,7,Jits_ISO_8,2,5,56,103,1296517616
100,14,7,Jits_ISO_8,3,5,80,127,1296520532
100,14,7,Jits_ISO_8,0,5,80,127,1297197608
100,14,7,Jits_ISO_8,1,5,63,98,1297217996
100,14,7,Jits_ISO_8,2,1,48,57,1297259324
100,14,7,Jits_ISO_8,3,5,56,103,1297278528
100,14,7,Jits_ISO_8,0,1,48,46,1298022312
100,14,7,Jits_ISO_8,1,5,56,103,1298038300
100,14,7,Jits_ISO_8,2,5,63,98,1298057564
100,14,7,Jits_ISO_8,3,5,80,127,1298061000
100,14,7,Jits_ISO_8,0,5,63,98,1298777400
100,14,7,Jits_ISO_8,1,1,48,48,1298817832
100,14,7,Jits_ISO_8,2,5,80,127,1298858612
100,14,7,Jits_ISO_8,3,5,56,103,1298867688
100,14,7,Jits_ISO_8,0,1,48,49,1299559916
100,14,7,Jits_ISO_8,1,5,63,98,1299597780
100,14,7,Jits_ISO_8,2,5,56,103,1299618092
100,14,7,Jits_ISO_8,3,5,80,127,1299668576
100,14,7,Jits_ISO_8,0,1,48,49,1300363368
100,14,7,Jits_ISO_8,1,5,80,127,1300397564
100,14,7,Jits_ISO_8,2,5,63,98,1300438328
100,14,7,Jits_ISO_8,3,5,56,103,1300457888
100,14,7,Jits_ISO_8,0,1,48,54,1301171244
100,14,7,Jits_ISO_8,1,5,56,103,1301238424
100,14,7,Jits_ISO_8,2,5,63,98,1301248252
100,14,7,Jits_ISO_8,3,5,80,127,1301267960
100,14,7,Jits_ISO_8,0,5,56,103,1301968212
100,14,7,Jits_ISO_8,1,1,48,46,1301988644
100,14,7,Jits_ISO_8,2,5,63,98,1302058296
100,14,7,Jits_ISO_8,3,5,80,127,1302117696
100,14,7,Jits_ISO_8,0,5,80,127,1302797636
100,14,7,Jits_ISO_8,1,1,48,55,1302800680
100,14,7,Jits_ISO_8,2,5,56,103,1302808048
100,14,7,Jits_ISO_8,3,5,63,98,1302877504
100,14,7,Jits_ISO_8,0,1,48,53,1303586912
100,14,7,Jits_ISO_8,1,5,63,98,1303628288
100,14,7,Jits_ISO_8,2,5,80,127,1303718260
100,14,7,Jits_ISO_8,3,5,56,103,1303727484
100,14,7,Jits_ISO_8,0,5,63,98,1304367616
100,14,7,Jits_ISO_8,1,1,48,52,1304386176
100,14,7,Jits_ISO_8,2,5,80,127,1304417664
100,14,7,Jits_ISO_8,3,5,56,103,1304479384
100,14,7,Jits_ISO_8,0,5,56,103,1305198040
100,14,7,Jits_ISO_8,1,1,48,52,1305208284
100,14,7,Jits_ISO_8,2,5,80,127,1305248164
100,14,7,Jits_ISO_8,3,5,63,98,1305267652
100,14,7,Jits_ISO_8,0,5,56,103,1305967948
100,14,7,Jits_ISO_8,1,1,48,52,1306010772
100,14,7,Jits_ISO_8,2,5,80,127,1306028256
100,14,7,Jits_ISO_8,3,5,63,98,1306098112
100,14,7,Jits_ISO_8,0,5,56,103,1306767592
100,14,7,Jits_ISO_8,1,5,80,127,1306797420
100,14,7,Jits_ISO_8,2,1,48,51,1306825104
100,14,7,Jits_ISO_8,3,5,63,98,1306828360
100,14,7,Jits_ISO_8,0,1,48,52,1307591848
100,14,7,Jits_ISO_8,1,5,56,103,1307608436
100,14,7,Jits_ISO_8,2,5,80,127,1307627776
100,14,7,Jits_ISO_8,3,5,63,98,1307688396
100,14,7,Jits_ISO_8,0,1,48,47,1308387292
100,14,7,Jits_ISO_8,1,5,80,127,1308488544
100,14,7,Jits_ISO_8,2,5,56,103,1308498444
100,14,7,Jits_ISO_8,3,5,63,98,1308507520
100,14,7,Jits_ISO_8,0,1,48,47,1309230636
100,14,7,Jits_ISO_8,1,5,56,103,1309247824
100,14,7,Jits_ISO_8,2,5,80,127,1309287764
100,14,7,Jits_ISO_8,3,5,63,98,1309317364
100,14,7,Jits_ISO_8,0,5,56,103,1310017952
100,14,7,Jits_ISO_8,1,5,63,98,1310047628
100,14,7,Jits_ISO_8,2,1,48,54,1310057192
100,14,7,Jits_ISO_8,3,5,80,127,1310087408
100,14,7,Jits_ISO_8,0,5,80,127,1310767544
100,14,7,Jits_ISO_8,1,1,48,53,1310804596
100,14,7,Jits_ISO_8,2,5,63,98,1310817668
100,14,7,Jits_ISO_8,3,5,56,103,1310838276
100,14,7,Jits_ISO_8,0,1,48,47,1311578016
100,14,7,Jits_ISO_8,1,5,56,103,1311598048
100,14,7,Jits_ISO_8,2,5,80,127,1311667508
100,14,7,Jits_ISO_8,3,5,63,98,1311728108
100,14,7,Jits_ISO_8,0,1,48,52,1312298756
100,14,7,Jits_ISO_8,1,5,80,127,1312397596
100,14,7,Jits_ISO_8,2,5,63,98,1312487732
100,14,7,Jits_ISO_8,3,5,56,103,1312508364
100,14,7,Jits_ISO_8,0,1,48,56,1313160352
100,14,7,Jits_ISO_8,1,5,63,98,1313217996
100,14,7,Jits_ISO_8,2,5,56,103,1313238380
100,14,7,Jits_ISO_8,3,5,80,127,1313278404
100,14,7,Jits_ISO_8,0,5,80,127,1313977776
100,14,7,Jits_ISO_8,1,1,48,48,1313980820
100,14,7,Jits_ISO_8,2,5,63,98,1313998376
100,14,7,Jits_ISO_8,3,5,56,103,1314078124
100,14,7,Jits_ISO_8,0,5,63,98,1314768276
100,14,7,Jits_ISO_8,1,1,48,48,1314791392
100,14,7,Jits_ISO_8,2,5,56,103,1314877832
100,14,7,Jits_ISO_8,3,5,80,127,1314880752
100,14,7,Jits_ISO_8,0,1,48,55,1315583764
100,14,7,Jits_ISO_8,1,5,63,98,1315587400
100,14,7,Jits_ISO_8,2,5,56,103,1315597588
100,14,7,Jits_ISO_8,3,5,80,127,1315600660
100,14,7,Jits_ISO_8,0,5,56,103,1316367692
100,14,7,Jits_ISO_8,1,1,48,52,1316384588
100,14,7,Jits_ISO_8,2,5,80,127,1316487552
100,14,7,Jits_ISO_8,3,5,63,98,1316527340
100,14,7,Jits_ISO_8,0,1,48,51,1317161900
100,14,7,Jits_ISO_8,1,5,56,103,1317188232
100,14,7,Jits_ISO_8,2,5,80,127,1317267792
100,14,7,Jits_ISO_8,3,5,63,98,1317288400
100,14,7,Jits_ISO_8,0,1,48,50,1317985204
100,14,7,Jits_ISO_8,1,5,56,103,1317987716
100,14,7,Jits_ISO_8,2,5,63,98,1318098216
100,14,7,Jits_ISO_8,3,5,80,127,1318101652
100,14,7,Jits_ISO_8,0,1,48,52,1318815328
100,14,7,Jits_ISO_8,1,5,56,103,1318818360
100,14,7,Jits_ISO_8,2,5,80,127,1318847888
100,14,7,Jits_ISO_8,3,5,63,98,1318868272
100,14,7,Jits_ISO_8,0,5,63,98,1319597472
100,14,7,Jits_ISO_8,1,1,48,49,1319604408
100,14,7,Jits_ISO_8,2,5,56,103,1319607664
100,14,7,Jits_ISO_8,3,5,80,127,1319618008
100,14,7,Jits_ISO_8,0,1,48,54,1320384320
100,14,7,Jits_ISO_8,1,5,80,127,1320388324
100,14,7,Jits_ISO_8,2,5,56,103,1320438256
100,14,7,Jits_ISO_8,3,5,63,98,1320478196
100,14,7,Jits_ISO_8,0,5,80,127,1321208292
100,14,7,Jits_ISO_8,1,1,48,48,1321218760
100,14,7,Jits_ISO_8,2,5,63,98,1321227552
100,14,7,Jits_ISO_8,3,5,56,103,1321277900
100,14,7,Jits_ISO_8,0,5,80,127,1322018204
100,14,7,Jits_ISO_8,1,5,56,103,1322047804
100,14,7,Jits_ISO_8,2,1,48,52,1322063576
100,14,7,Jits_ISO_8,3,5,63,98,1322117480
100,14,7,Jits_ISO_8,0,1,48,51,1322807032
100,14,7,Jits_ISO_8,1,5,56,103,1322868268
100,14,7,Jits_ISO_8,2,5,80,127,1322878316
100,14,7,Jits_ISO_8,3,5,63,98,1322918316
100,14,7,Jits_ISO_8,0,5,56,103,1323577704
100,14,7,Jits_ISO_8,1,5,63,98,1323598164
100,14,7,Jits_ISO_8,2,5,80,127,1323667916
100,14,7,Jits_ISO_8,3,1,48,44,1323677336
100,14,7,Jits_ISO_8,0,5,63,98,1324398100
100,14,7,Jits_ISO_8,1,1,48,49,1324449764
100,14,7,Jits_ISO_8,2,5,80,127,1324458408
100,14,7,Jits_ISO_8,3,5,56,103,1324477896
100,14,7,Jits_ISO_8,0,5,80,127,1325187396
100,14,7,Jits_ISO_8,1,5,56,103,1325218120
100,14,7,Jits_ISO_8,2,5,63,98,1325247796
100,14,7,Jits_ISO_8,3,1,48,54,1325266800
100,14,7,Jits_ISO_8,0,5,56,103,1325988088
100,14,7,Jits_ISO_8,1,1,48,53,1325991800
100,14,7,Jits_ISO_8,2,5,63,98,1326047500
100,14,7,Jits_ISO_8,3,5,80,127,1326108124
100,14,7,Jits_ISO_8,0,1,48,50,1326798492
100,14,7,Jits_ISO_8,1,5,80,127,1326808408
100,14,7,Jits_ISO_8,2,5,56,103,1326828264
100,14,7,Jits_ISO_8,3,5,63,98,1326897524
100,14,7,Jits_ISO_8,0,1,48,54,1327542672
100,14,7,Jits_ISO_8,1,5,80,127,1327608288
100,14,7,Jits_ISO_8,2,5,63,98,1327627552
100,14,7,Jits_ISO_8,3,5,56,103,1327658480
100,14,7,Jits_ISO_8,0,5,80,127,1328397812
100,14,7,Jits_ISO_8,1,1,48,57,1328411120
100,14,7,Jits_ISO_8,2,5,63,98,1328418188
100,14,7,Jits_ISO_8,3,5,56,103,1328477684
100,14,7,Jits_ISO_8,0,1,48,52,1329190676
100,14,7,Jits_ISO_8,1,5,80,127,1329197300
100,14,7,Jits_ISO_8,2,5,56,103,1329297984
100,14,7,Jits_ISO_8,3,5,63,98,1329327512
100,14,7,Jits_ISO_8,0,5,63,98,1329987948
100,14,7,Jits_ISO_8,1,1,48,50,1330030324
100,14,7,Jits_ISO_8,2,5,80,127,1330038072
100,14,7,Jits_ISO_8,3,5,56,103,1330057484
100,14,7,Jits_ISO_8,0,1,48,48,1330813092
100,14,7,Jits_ISO_8,1,5,80,127,1330827584
100,14,7,Jits_ISO_8,2,5,56,103,1330858456
100,14,7,Jits_ISO_8,3,5,63,98,1330861596
100,14,7,Jits_ISO_8,0,1,48,50,1331607632
100,14,7,Jits_ISO_8,1,5,63,98,1331658152
100,14,7,Jits_ISO_8,2,5,56,103,1331697968
100,14,7,Jits_ISO_8,3,5,80,127,1331717364
100,14,7,Jits_ISO_8,0,1,48,45,1332377752
100,14,7,Jits_ISO_8,1,5,80,127,1332397404
100,14,7,Jits_ISO_8,2,5,63,98,1332478260
100,14,7,Jits_ISO_8,3,5,56,103,1332518196
100,14,7,Jits_ISO_8,0,5,63,98,1333217576
100,14,7,Jits_ISO_8,1,1,48,53,1333219512
100,14,7,Jits_ISO_8,2,5,80,127,1333297468
100,14,7,Jits_ISO_8,3,5,56,103,1333317984
100,14,7,Jits_ISO_8,0,1,48,52,1334055628
100,14,7,Jits_ISO_8,1,5,56,103,1334058288
100,14,7,Jits_ISO_8,2,5,63,98,1334067516
100,14,7,Jits_ISO_8,3,5,80,127,1334107452
100,14,7,Jits_ISO_8,0,5,56,103,1334778212
100,14,7,Jits_ISO_8,1,5,80,127,1334781276
100,14,7,Jits_ISO_8,2,1,48,52,1334875960
100,14,7,Jits_ISO_8,3,5,63,98,1334917484
100,14,7,Jits_ISO_8,0,5,56,103,1335567812
100,14,7,Jits_ISO_8,1,1,48,54,1335633260
100,14,7,Jits_ISO_8,2,5,63,98,1335658092
100,14,7,Jits_ISO_8,3,5,80,127,1335728580
100,14,7,Jits_ISO_8,0,1,48,56,1336391772
100,14,7,Jits_ISO_8,1,5,63,98,1336448364
100,14,7,Jits_ISO_8,2,5,80,127,1336451952
100,14,7,Jits_ISO_8,3,5,56,103,1336507696
100,14,7,Jits_ISO_8,0,1,48,53,1337194240
100,14,7,Jits_ISO_8,1,5,80,127,1337288080
100,14,7,Jits_ISO_8,2,5,56,103,1337307404
100,14,7,Jits_ISO_8,3,5,63,98,1337317972
100,14,7,Jits_ISO_8,0,1,48,56,1337977940
100,14,7,Jits_ISO_8,1,5,56,103,1337997812
100,14,7,Jits_ISO_8,2,5,63,98,1338007860
100,14,7,Jits_ISO_8,3,5,80,127,1338077600
100,14,7,Jits_ISO_8,0,1,48,62,1338797000
100,14,7,Jits_ISO_8,1,5,80,127,1338798640
100,14,7,Jits_ISO_8,2,5,56,103,1338847872
100,14,7,Jits_ISO_8,3,5,63,98,1338897860
100,14,7,Jits_ISO_8,0,1,48,60,1339643152
100,14,7,Jits_ISO_8,1,5,56,103,1339678172
100,14,7,Jits_ISO_8,2,5,63,98,1339688368
100,14,7,Jits_ISO_8,3,5,80,127,1339728232
100,14,7,Jits_ISO_8,0,5,56,103,1340418332
100,14,7,Jits_ISO_8,1,5,63,98,1340458420
100,14,7,Jits_ISO_8,2,1,48,56,1340476904
100,14,7,Jits_ISO_8,3,5,80,127,1340507420
100,14,7,Jits_ISO_8,0,5,80,127,1341178272
100,14,7,Jits_ISO_8,1,5,56,103,1341228328
100,14,7,Jits_ISO_8,2,5,63,98,1341247888
100,14,7,Jits_ISO_8,3,1,48,54,1341257904
100,14,7,Jits_ISO_8,0,5,80,127,1341988184
100,14,7,Jits_ISO_8,1,5,63,98,1342047532
100,14,7,Jits_ISO_8,2,1,48,52,1342051092
100,14,7,Jits_ISO_8,3,5,56,103,1342127688
100,14,7,Jits_ISO_8,0,5,80,127,1342767524
100,14,7,Jits_ISO_8,1,5,56,103,1342808512
100,14,7,Jits_ISO_8,2,1,48,55,1342826872
100,14,7,Jits_ISO_8,3,5,63,98,1342828668
100,14,7,Jits_ISO_8,0,1,48,57,1343576132
100,14,7,Jits_ISO_8,1,5,56,103,1343618404
100,14,7,Jits_ISO_8,2,5,80,127,1343627776
100,14,7,Jits_ISO_8,3,5,63,98,1343667788
100,14,7,Jits_ISO_8,0,1,48,53,1344347288
100,14,7,Jits_ISO_8,1,5,56,103,1344488000
100,14,7,Jits_ISO_8,2,5,63,98,1344527888
100,14,7,Jits_ISO_8,3,5,80,127,1344531176
100,14,7,Jits_ISO_8,0,1,48,48,1345157484
100,14,7,Jits_ISO_8,1,5,63,98,1345178108
100,14,7,Jits_ISO_8,2,5,80,127,1345217824
100,14,7,Jits_ISO_8,3,5,56,103,1345287812
100,14,7,Jits_ISO_8,0,5,63,98,1345967480
100,14,7,Jits_ISO_8,1,1,48,50,1345989032
100,14,7,Jits_ISO_8,2,5,56,103,1346048568
100,14,7,Jits_ISO_8,3,5,80,127,1346107896
100,14,7,Jits_ISO_8,0,1,48,56,1346772616
100,14,7,Jits_ISO_8,1,5,80,127,1346777520
100,14,7,Jits_ISO_8,2,5,63,98,1346827600
100,14,7,Jits_ISO_8,3,5,56,103,1346858320
100,14,7,Jits_ISO_8,0,1,48,52,1347563324
100,14,7,Jits_ISO_8,1,5,56,103,1347568028
100,14,7,Jits_ISO_8,2,5,63,98,1347618232
100,14,7,Jits_ISO_8,3,5,80,127,1347628428
100,14,7,Jits_ISO_8,0,1,48,47,1348320248
100,14,7,Jits_ISO_8,1,5,56,103,1348377924
100,14,7,Jits_ISO_8,2,5,63,98,1348487824
100,14,7,Jits_ISO_8,3,5,80,127,1348507908
100,14,7,Jits_ISO_8,0,1,48,56,1349101300
100,14,7,Jits_ISO_8,1,5,63,98,1349177856
100,14,7,Jits_ISO_8,2,5,80,127,1349227820
100,14,7,Jits_ISO_8,3,5,56,103,1349318100
100,14,7,Jits_ISO_8,0,5,63,98,1349968204
100,14,7,Jits_ISO_8,1,5,80,127,1349998028
100,14,7,Jits_ISO_8,2,1,48,56,1350005788
100,14,7,Jits_ISO_8,3,5,56,103,1350088080
100,14,7,Jits_ISO_8,0,5,63,98,1350768060
100,14,7,Jits_ISO_8,1,5,56,103,1350778328
100,14,7,Jits_ISO_8,2,1,48,57,1350815600
100,14,7,Jits_ISO_8,3,5,80,127,1350877820
100,14,7,Jits_ISO_8,0,1,48,54,1351521644
100,14,7,Jits_ISO_8,1,5,63,98,1351668012
100,14,7,Jits_ISO_8,2,5,80,127,1351697836
100,14,7,Jits_ISO_8,3,5,56,103,1351727512
100,14,7,Jits_ISO_8,0,1,48,48,1352343160
100,14,7,Jits_ISO_8,1,5,80,127,1352488256
100,14,7,Jits_ISO_8,2,5,63,98,1352497780
100,14,7,Jits_ISO_8,3,5,56,103,1352528276
100,14,7,Jits_ISO_8,0,5,80,127,1353187796
100,14,7,Jits_ISO_8,1,5,63,98,1353208280
100,14,7,Jits_ISO_8,2,1,48,54,1353254024
100,14,7,Jits_ISO_8,3,5,56,103,1353258324
100,14,7,Jits_ISO_8,0,5,63,98,1354018032
100,14,7,Jits_ISO_8,1,1,48,58,1354057644
100,14,7,Jits_ISO_8,2,5,80,127,1354077672
100,14,7,Jits_ISO_8,3,5,56,103,1354098056
100,14,7,Jits_ISO_8,0,5,63,98,1354777960
100,14,7,Jits_ISO_8,1,1,48,51,1354821160
100,14,7,Jits_ISO_8,2,5,56,103,1354828084
100,14,7,Jits_ISO_8,3,5,80,127,1354838652
100,14,7,Jits_ISO_8,0,1,48,53,1355590892
100,14,7,Jits_ISO_8,1,5,56,103,1355608524
100,14,7,Jits_ISO_8,2,5,80,127,1355617896
100,14,7,Jits_ISO_8,3,5,63,98,1355717980
100,14,7,Jits_ISO_8,0,5,80,127,1356368308
100,14,7,Jits_ISO_8,1,5,63,98,1356377752
100,14,7,Jits_ISO_8,2,1,48,51,1356414356
100,14,7,Jits_ISO_8,3,5,56,103,1356527900
100,14,7,Jits_ISO_8,0,1,48,47,1357165356
100,14,7,Jits_ISO_8,1,5,63,98,1357178356
100,14,7,Jits_ISO_8,2,5,80,127,1357218148
100,14,7,Jits_ISO_8,3,5,56,103,1357298100
100,14,7,Jits_ISO_8,0,5,56,103,1357967584
100,14,7,Jits_ISO_8,1,1,48,55,1357988608
100,14,7,Jits_ISO_8,2,5,80,127,1358068076
100,14,7,Jits_ISO_8,3,5,63,98,1358088068
100,14,7,Jits_ISO_8,0,1,48,56,1358806072
100,14,7,Jits_ISO_8,1,5,80,127,1358827760
100,14,7,Jits_ISO_8,2,5,56,103,1358838056
100,14,7,Jits_ISO_8,3,5,63,98,1358928396
100,14,7,Jits_ISO_8,0,1,48,54,1359615472
100,14,7,Jits_ISO_8,1,5,56,103,1359627724
100,14,7,Jits_ISO_8,2,5,63,98,1359648256
100,14,7,Jits_ISO_8,3,5,80,127,1359727888
100,14,7,Jits_ISO_8,0,5,63,98,1360378292
100,14,7,Jits_ISO_8,1,1,48,56,1360393396
100,14,7,Jits_ISO_8,2,5,56,103,1360468272
100,14,7,Jits_ISO_8,3,5,80,127,1360471260
100,14,7,Jits_ISO_8,0,1,48,54,1361182000
100,14,7,Jits_ISO_8,1,5,56,103,1361207580
100,14,7,Jits_ISO_8,2,5,80,127,1361267972
100,14,7,Jits_ISO_8,3,5,63,98,1361278600
100,14,7,Jits_ISO_8,0,1,48,55,1362029364
100,14,7,Jits_ISO_8,1,5,80,127,1362057636
100,14,7,Jits_ISO_8,2,5,56,103,1362067904
100,14,7,Jits_ISO_8,3,5,63,98,1362070896
100,14,7,Jits_ISO_8,0,5,56,103,1362818456
100,14,7,Jits_ISO_8,1,5,80,127,1362827756
100,14,7,Jits_ISO_8,2,1,48,57,1362842332
100,14,7,Jits_ISO_8,3,5,63,98,1362847984
100,14,7,Jits_ISO_8,0,5,63,98,1363587532
100,14,7,Jits_ISO_8,1,1,48,54,1363634624
100,14,7,Jits_ISO_8,2,5,80,127,1363647844
100,14,7,Jits_ISO_8,3,5,56,103,1363698000
100,14,7,Jits_ISO_8,0,1,48,52,1364388556
100,14,7,Jits_ISO_8,1,5,63,98,1364468028
100,14,7,Jits_ISO_8,2,5,56,103,1364478520
100,14,7,Jits_ISO_8,3,5,80,127,1364527588
100,14,7,Jits_ISO_8,0,1,48,51,1365167324
100,14,7,Jits_ISO_8,1,5,63,98,1365168812
100,14,7,Jits_ISO_8,2,5,80,127,1365187928
100,14,7,Jits_ISO_8,3,5,56,103,1365198272
100,14,7,Jits_ISO_8,0,1,48,56,1365930500
100,14,7,Jits_ISO_8,1,5,63,98,1365968508
100,14,7,Jits_ISO_8,2,5,80,127,1365971724
100,14,7,Jits_ISO_8,3,5,56,103,1366008324
100,14,7,Jits_ISO_8,0,1,48,52,1366760532
100,14,7,Jits_ISO_8,1,5,63,98,1366837608
100,14,7,Jits_ISO_8,2,5,80,127,1366868540
100,14,7,Jits_ISO_8,3,5,56,103,1366877616
100,14,7,Jits_ISO_8,0,5,56,103,1367588172
100,14,7,Jits_ISO_8,1,1,48,46,1367609272
100,14,7,Jits_ISO_8,2,5,80,127,1367617992
100,14,7,Jits_ISO_8,3,5,63,98,1367647592
100,14,7,Jits_ISO_8,0,1,48,55,1368401712
100,14,7,Jits_ISO_8,1,5,63,98,1368488580
100,14,7,Jits_ISO_8,2,5,56,103,1368528280
100,14,7,Jits_ISO_8,3,5,80,127,1368531420
100,14,7,Jits_ISO_8,0,5,80,127,1369187676
100,14,7,Jits_ISO_8,1,1,48,59,1369201356
100,14,7,Jits_ISO_8,2,5,56,103,1369267692
100,14,7,Jits_ISO_8,3,5,63,98,1369317732
100,14,7,Jits_ISO_8,0,5,80,127,1369967848
100,14,7,Jits_ISO_8,1,5,56,103,1369987408
100,14,7,Jits_ISO_8,2,1,48,49,1370027616
100,14,7,Jits_ISO_8,3,5,63,98,1370077536
100,14,7,Jits_ISO_8,0,1,48,56,1370774864
100,14,7,Jits_ISO_8,1,5,80,127,1370807716
100,14,7,Jits_ISO_8,2,5,63,98,1370847660
100,14,7,Jits_ISO_8,3,5,56,103,1370887604
100,14,7,Jits_ISO_8,0,1,48,57,1371545572
100,14,7,Jits_ISO_8,1,5,63,98,1371577832
100,14,7,Jits_ISO_8,2,5,80,127,1371638232
100,14,7,Jits_ISO_8,3,5,56,103,1371667832
100,14,7,Jits_ISO_8,0,5,56,103,1372377472
100,14,7,Jits_ISO_8,1,1,48,54,1372383880
100,14,7,Jits_ISO_8,2,5,80,127,1372408288
100,14,7,Jits_ISO_8,3,5,63,98,1372498552
100,14,7,Jits_ISO_8,0,1,48,56,1373177260
100,14,7,Jits_ISO_8,1,5,56,103,1373187400
100,14,7,Jits_ISO_8,2,5,80,127,1373298048
100,14,7,Jits_ISO_8,3,5,63,98,1373327724
100,14,7,Jits_ISO_8,0,1,48,52,1374034504
100,14,7,Jits_ISO_8,1,5,56,103,1374038284
100,14,7,Jits_ISO_8,2,5,63,98,1374097780
100,14,7,Jits_ISO_8,3,5,80,127,1374127604
100,14,7,Jits_ISO_8,0,5,56,103,1374808560
100,14,7,Jits_ISO_8,1,1,48,50,1374830260
100,14,7,Jits_ISO_8,2,5,63,98,1374878088
100,14,7,Jits_ISO_8,3,5,80,127,1374897648
100,14,7,Jits_ISO_8,0,5,80,127,1375577420
100,14,7,Jits_ISO_8,1,5,63,98,1375597804
100,14,7,Jits_ISO_8,2,1,48,57,1375624292
100,14,7,Jits_ISO_8,3,5,56,103,1375648148
100,14,7,Jits_ISO_8,0,9999,9999,9999,1280845900
100,14,7,Jits_ISO_8,1,9999,9999,9999,1281645672
100,14,7,Jits_ISO_8,2,9999,9999,9999,1282445392
100,14,7,Jits_ISO_8,3,9999,9999,9999,1283245108
100,14,7,Jits_ISO_8,4,9999,9999,9999,1284045920
100,14,7,Jits_ISO_8,5,9999,9999,9999,1284845632
100,14,7,Jits_ISO_8,6,9999,9999,9999,1285645428
100,14,7,Jits_ISO_8,7,9999,9999,9999,1286445152
100,14,7,Jits_ISO_8,8,9999,9999,9999,1287245916
100,14,7,Jits_ISO_8,9,9999,9999,9999,1288045680
100,14,7,Jits_ISO_8,10,9999,9999,9999,1288845412
100,14,7,Jits_ISO_8,11,9999,9999,9999,1289645120
100,14,7,Jits_ISO_8,12,9999,9999,9999,1290445880
100,14,7,Jits_ISO_8,13,9999,9999,9999,1291245660
100,14,7,Jits_ISO_8,14,9999,9999,9999,1292045376
100,14,7,Jits_ISO_8,15,9999,9999,9999,1292845168
100,14,7,Jits_ISO_8,16,9999,9999,9999,1293645908
100,14,7,Jits_ISO_8,17,9999,9999,9999,1294445620
100,14,7,Jits_ISO_8,18,9999,9999,9999,1295245412
100,14,7,Jits_ISO_8,19,9999,9999,9999,1296045120
100,14,7,Jits_ISO_8,20,9999,9999,9999,1296845948
100,14,7,Jits_ISO_8,21,9999,9999,9999,1297645652
100,14,7,Jits_ISO_8,22,9999,9999,9999,1298445388
100,14,7,Jits_ISO_8,23,9999,9999,9999,1299245176
100,14,7,Jits_ISO_8,24,9999,9999,9999,1300045928
100,14,7,Jits_ISO_8,25,9999,9999,9999,1300845636
100,14,7,Jits_ISO_8,26,9999,9999,9999,1301645420
100,14,7,Jits_ISO_8,27,9999,9999,9999,1302445132
100,14,7,Jits_ISO_8,28,9999,9999,9999,1303245896
100,14,7,Jits_ISO_8,29,9999,9999,9999,1304045628
100,14,7,Jits_ISO_8,30,9999,9999,9999,1304845428
100,14,7,Jits_ISO_8,31,9999,9999,9999,1305645136
100,14,7,Jits_ISO_8,32,9999,9999,9999,1306445908
100,14,7,Jits_ISO_8,33,9999,9999,9999,1307245624
100,14,7,Jits_ISO_8,34,9999,9999,9999,1308045424
100,14,7,Jits_ISO_8,35,9999,9999,9999,1308845144
100,14,7,Jits_ISO_8,36,9999,9999,9999,1309645904
100,14,7,Jits_ISO_8,37,9999,9999,9999,1310445692
100,14,7,Jits_ISO_8,38,9999,9999,9999,1311245428
100,14,7,Jits_ISO_8,39,9999,9999,9999,1312045156
100,14,7,Jits_ISO_8,40,9999,9999,9999,1312845912
100,14,7,Jits_ISO_8,41,9999,9999,9999,1313645620
100,14,7,Jits_ISO_8,42,9999,9999,9999,1314445396
100,14,7,Jits_ISO_8,43,9999,9999,9999,1315245108
100,14,7,Jits_ISO_8,44,9999,9999,9999,1316045920
100,14,7,Jits_ISO_8,45,9999,9999,9999,1316845632
100,14,7,Jits_ISO_8,46,9999,9999,9999,1317645376
100,14,7,Jits_ISO_8,47,9999,9999,9999,1318445152
100,14,7,Jits_ISO_8,48,9999,9999,9999,1319245908
100,14,7,Jits_ISO_8,49,9999,9999,9999,1320045688
100,14,7,Jits_ISO_8,50,9999,9999,9999,1320845396
100,14,7,Jits_ISO_8,51,9999,9999,9999,1321645176
100,14,7,Jits_ISO_8,52,9999,9999,9999,1322445944
100,14,7,Jits_ISO_8,53,9999,9999,9999,1323245676
100,14,7,Jits_ISO_8,54,9999,9999,9999,1324045396
100,14,7,Jits_ISO_8,55,9999,9999,9999,1324845120
100,14,7,Jits_ISO_8,56,9999,9999,9999,1325645876
100,14,7,Jits_ISO_8,57,9999,9999,9999,1326445672
100,14,7,Jits_ISO_8,58,9999,9999,9999,1327245392
100,14,7,Jits_ISO_8,59,9999,9999,9999,1328045172
100,14,7,Jits_ISO_8,60,9999,9999,9999,1328845928
100,14,7,Jits_ISO_8,61,9999,9999,9999,1329645656
100,14,7,Jits_ISO_8,62,9999,9999,9999,1330445380
100,14,7,Jits_ISO_8,63,9999,9999,9999,1331245156
100,14,7,Jits_ISO_8,64,9999,9999,9999,1332045920
100,14,7,Jits_ISO_8,65,9999,9999,9999,1332845632
100,14,7,Jits_ISO_8,66,9999,9999,9999,1333645420
100,14,7,Jits_ISO_8,67,9999,9999,9999,1334445136
100,14,7,Jits_ISO_8,68,9999,9999,9999,1335245876
100,14,7,Jits_ISO_8,69,9999,9999,9999,1336045676
100,14,7,Jits_ISO_8,70,9999,9999,9999,1336845420
100,14,7,Jits_ISO_8,71,9999,9999,9999,1337645136
100,14,7,Jits_ISO_8,72,9999,9999,9999,1338445888
100,14,7,Jits_ISO_8,73,9999,9999,9999,1339245672
100,14,7,Jits_ISO_8,74,9999,9999,9999,1340045388
100,14,7,Jits_ISO_8,75,9999,9999,9999,1340845176
100,14,7,Jits_ISO_8,76,9999,9999,9999,1341645944
100,14,7,Jits_ISO_8,77,9999,9999,9999,1342445668
100,14,7,Jits_ISO_8,78,9999,9999,9999,1343245408
100,14,7,Jits_ISO_8,79,9999,9999,9999,1344045128
100,14,7,Jits_ISO_8,80,9999,9999,9999,1344845884
100,14,7,Jits_ISO_8,81,9999,9999,9999,1345645664
100,14,7,Jits_ISO_8,82,9999,9999,9999,1346445372
100,14,7,Jits_ISO_8,83,9999,9999,9999,1347245148
100,14,7,Jits_ISO_8,84,9999,9999,9999,1348045896
100,14,7,Jits_ISO_8,85,9999,9999,9999,1348845680
100,14,7,Jits_ISO_8,86,9999,9999,9999,1349645412
100,14,7,Jits_ISO_8,87,9999,9999,9999,1350445116
100,14,7,Jits_ISO_8,88,9999,9999,9999,1351245944
100,14,7,Jits_ISO_8,89,9999,9999,9999,1352045656
100,14,7,Jits_ISO_8,90,9999,9999,9999,1352845376
100,14,7,Jits_ISO_8,91,9999,9999,9999,1353645152
100,14,7,Jits_ISO_8,92,9999,9999,9999,1354445928
100,14,7,Jits_ISO_8,93,9999,9999,9999,1355245632
100,14,7,Jits_ISO_8,94,9999,9999,9999,1356045364
100,14,7,Jits_ISO_8,95,9999,9999,9999,1356845144
100,14,7,Jits_ISO_8,96,9999,9999,9999,1357645912
100,14,7,Jits_ISO_8,97,9999,9999,9999,1358445620
100,14,7,Jits_ISO_8,98,9999,9999,9999,1359245420
100,14,7,Jits_ISO_8,99,9999,9999,9999,1360045136
100,14,7,Jits_ISO_8,100,9999,9999,9999,1360845880
100,14,7,Jits_ISO_8,101,9999,9999,9999,1361645664
100,14,7,Jits_ISO_8,102,9999,9999,9999,1362445392
100,14,7,Jits_ISO_8,103,9999,9999,9999,1363245172
100,14,7,Jits_ISO_8,104,9999,9999,9999,1364045944
100,14,7,Jits_ISO_8,105,9999,9999,9999,1364845656
100,14,7,Jits_ISO_8,106,9999,9999,9999,1365645428
100,14,7,Jits_ISO_8,107,9999,9999,9999,1366445120
100,14,7,Jits_ISO_8,108,9999,9999,9999,1367245876
100,14,7,Jits_ISO_8,109,9999,9999,9999,1368045656
100,14,7,Jits_ISO_8,110,9999,9999,9999,1368845404
100,14,7,Jits_ISO_8,111,9999,9999,9999,1369645116
100,14,7,Jits_ISO_8,112,9999,9999,9999,1370445880
100,14,7,Jits_ISO_8,113,9999,9999,9999,1371245676
100,14,7,Jits_ISO_8,114,9999,9999,9999,1372045384
100,14,7,Jits_ISO_8,115,9999,9999,9999,1372845168
100,14,7,Jits_ISO_8,116,9999,9999,9999,1373645944
100,14,7,Jits_ISO_8,117,9999,9999,9999,1374445684
100,14,7,Jits_ISO_8,118,9999,9999,9999,1375245396
100,14,7,Jits_ISO_8,119,9999,9999,9999,1376045112
100,15,16,Jits_ISO_5,0,5,56,103,1384207760
100,15,16,Jits_ISO_5,1,5,63,98,1384210936
100,15,16,Jits_ISO_5,2,5,80,127,1384213984
100,15,16,Jits_ISO_5,0,5,56,103,1384707404
100,15,16,Jits_ISO_5,1,5,63,98,1384710428
100,15,16,Jits_ISO_5,2,5,80,127,1384713552
100,15,16,Jits_ISO_5,0,5,56,103,1385208112
100,15,16,Jits_ISO_5,1,5,80,127,1385218384
100,15,16,Jits_ISO_5,2,5,63,98,1385237868
100,15,16,Jits_ISO_5,0,5,63,98,1385657632
100,15,16,Jits_ISO_5,1,5,80,127,1385688576
100,15,16,Jits_ISO_5,2,5,56,103,1385697504
100,15,16,Jits_ISO_5,0,5,80,127,1386217736
100,15,16,Jits_ISO_5,1,1,48,56,1386222972
100,15,16,Jits_ISO_5,2,5,56,103,1386228248
100,15,16,Jits_ISO_5,3,5,63,98,1386257920
100,15,16,Jits_ISO_5,0,5,63,98,1386708272
100,15,16,Jits_ISO_5,1,5,56,103,1386738120
100,15,16,Jits_ISO_5,2,1,48,54,1386740488
100,15,16,Jits_ISO_5,3,5,80,127,1386748384
100,15,16,Jits_ISO_5,0,5,56,103,1387157960
100,15,16,Jits_ISO_5,1,5,63,98,1387208312
100,15,16,Jits_ISO_5,2,1,48,54,1387221544
100,15,16,Jits_ISO_5,3,5,80,127,1387227492
100,15,16,Jits_ISO_5,0,5,80,127,1387657708
100,15,16,Jits_ISO_5,1,5,63,98,1387707612
100,15,16,Jits_ISO_5,2,1,48,53,1387710580
100,15,16,Jits_ISO_5,3,5,56,103,1387747836
100,15,16,Jits_ISO_5,0,5,56,103,1388158352
100,15,16,Jits_ISO_5,1,5,63,98,1388188176
100,15,16,Jits_ISO_5,2,1,48,55,1388232048
100,15,16,Jits_ISO_5,3,5,80,127,1388257624
100,15,16,Jits_ISO_5,0,5,56,103,1388658248
100,15,16,Jits_ISO_5,1,1,48,59,1388693052
100,15,16,Jits_ISO_5,2,5,80,127,1388717508
100,15,16,Jits_ISO_5,3,5,63,98,1388748228
100,15,16,Jits_ISO_5,0,5,56,103,1389168184
100,15,16,Jits_ISO_5,1,1,48,57,1389169076
100,15,16,Jits_ISO_5,2,5,63,98,1389178152
100,15,16,Jits_ISO_5,3,5,80,127,1389218164
100,15,16,Jits_ISO_5,0,5,63,98,1389657520
100,15,16,Jits_ISO_5,1,1,48,58,1389693972
100,15,16,Jits_ISO_5,2,5,80,127,1389738280
100,15,16,Jits_ISO_5,3,5,56,103,1389747652
100,15,16,Jits_ISO_5,0,5,63,98,1390208348
100,15,16,Jits_ISO_5,1,1,48,48,1390212516
100,15,16,Jits_ISO_5,2,5,56,103,1390248280
100,15,16,Jits_ISO_5,3,5,80,127,1390251344
100,15,16,Jits_ISO_5,0,5,56,103,1390668144
100,15,16,Jits_ISO_5,1,5,63,98,1390678340
100,15,16,Jits_ISO_5,2,5,80,127,1390718276
100,15,16,Jits_ISO_5,3,1,48,56,1390721172
100,15,16,Jits_ISO_5,0,5,56,103,1391157548
100,15,16,Jits_ISO_5,1,5,63,98,1391160540
100,15,16,Jits_ISO_5,2,5,80,127,1391178080
100,15,16,Jits_ISO_5,3,1,48,56,1391197008
100,15,16,Jits_ISO_5,0,5,80,127,1391667548
100,15,16,Jits_ISO_5,1,5,56,103,1391677968
100,15,16,Jits_ISO_5,2,1,48,54,1391688580
100,15,16,Jits_ISO_5,3,5,63,98,1391747488
100,15,16,Jits_ISO_5,0,5,63,98,1392158224
100,15,16,Jits_ISO_5,1,1,48,50,1392164408
100,15,16,Jits_ISO_5,2,5,56,103,1392177480
100,15,16,Jits_ISO_5,3,5,80,127,1392258392
100,15,16,Jits_ISO_5,0,5,56,103,1392667996
100,15,16,Jits_ISO_5,1,1,48,54,1392668960
100,15,16,Jits_ISO_5,2,5,80,127,1392708148
100,15,16,Jits_ISO_5,3,5,63,98,1392718420
100,15,16,Jits_ISO_5,0,5,80,127,1393157552
100,15,16,Jits_ISO_5,1,5,63,98,1393188200
100,15,16,Jits_ISO_5,2,1,48,44,1393198812
100,15,16,Jits_ISO_5,3,5,56,103,1393228052
100,15,16,Jits_ISO_5,0,5,56,103,1393677672
100,15,16,Jits_ISO_5,1,1,48,50,1393698252
100,15,16,Jits_ISO_5,2,5,63,98,1393708312
100,15,16,Jits_ISO_5,3,5,80,127,1393757612
100,15,16,Jits_ISO_5,0,5,80,127,1394178316
100,15,16,Jits_ISO_5,1,1,48,42,1394197924
100,15,16,Jits_ISO_5,2,5,56,103,1394218324
100,15,16,Jits_ISO_5,3,5,63,98,1394227696
100,15,16,Jits_ISO_5,0,5,80,127,1394657588
100,15,16,Jits_ISO_5,1,5,63,98,1394697624
100,15,16,Jits_ISO_5,2,1,48,50,1394713472
100,15,16,Jits_ISO_5,3,5,56,103,1394758152
100,15,16,Jits_ISO_5,0,5,56,103,1395158384
100,15,16,Jits_ISO_5,1,5,80,127,1395167532
100,15,16,Jits_ISO_5,2,1,48,53,1395225820
100,15,16,Jits_ISO_5,3,5,63,98,1395247488
100,15,16,Jits_ISO_5,0,5,80,127,1395668392
100,15,16,Jits_ISO_5,1,1,48,50,1395685288
100,15,16,Jits_ISO_5,2,5,63,98,1395727680
100,15,16,Jits_ISO_5,3,5,56,103,1395757352
100,15,16,Jits_ISO_5,0,5,56,103,1396168140
100,15,16,Jits_ISO_5,1,1,48,53,1396218412
100,15,16,Jits_ISO_5,2,5,80,127,1396227504
100,15,16,Jits_ISO_5,3,5,63,98,1396268336
100,15,16,Jits_ISO_5,0,1,48,53,1396716728
100,15,16,Jits_ISO_5,1,5,56,103,1396718300
100,15,16,Jits_ISO_5,2,5,63,98,1396728120
100,15,16,Jits_ISO_5,3,5,80,127,1396731560
100,15,16,Jits_ISO_5,0,5,80,127,1397167436
100,15,16,Jits_ISO_5,1,1,48,48,1397245188
100,15,16,Jits_ISO_5,2,5,63,98,1397257508
100,15,16,Jits_ISO_5,3,5,56,103,1397267780
100,15,16,Jits_ISO_5,0,5,56,103,1397668140
100,15,16,Jits_ISO_5,1,5,63,98,1397671308
100,15,16,Jits_ISO_5,2,5,80,127,1397674584
100,15,16,Jits_ISO_5,3,1,48,54,1397742528
100,15,16,Jits_ISO_5,0,5,80,127,1398188404
100,15,16,Jits_ISO_5,1,1,48,48,1398219172
100,15,16,Jits_ISO_5,2,5,63,98,1398237476
100,15,16,Jits_ISO_5,3,5,56,103,1398268148
100,15,16,Jits_ISO_5,0,5,56,103,1398667780
100,15,16,Jits_ISO_5,1,5,80,127,1398677976
100,15,16,Jits_ISO_5,2,1,48,52,1398735172
100,15,16,Jits_ISO_5,3,5,63,98,1398747496
100,15,16,Jits_ISO_5,0,5,56,103,1399177488
100,15,16,Jits_ISO_5,1,5,63,98,1399198172
100,15,16,Jits_ISO_5,2,1,48,54,1399224732
100,15,16,Jits_ISO_5,3,5,80,127,1399257504
100,15,16,Jits_ISO_5,0,5,80,127,1399668024
100,15,16,Jits_ISO_5,1,1,48,43,1399738076
100,15,16,Jits_ISO_5,2,5,63,98,1399739420
100,15,16,Jits_ISO_5,3,5,56,103,1399758152
100,15,16,Jits_ISO_5,0,5,80,127,1400188152
100,15,16,Jits_ISO_5,1,5,56,103,1400197596
100,15,16,Jits_ISO_5,2,5,63,98,1400208164
100,15,16,Jits_ISO_5,3,1,48,48,1400281476
100,15,16,Jits_ISO_5,0,5,80,127,1400677632
100,15,16,Jits_ISO_5,1,5,56,103,1400698312
100,15,16,Jits_ISO_5,2,1,48,50,1400755292
100,15,16,Jits_ISO_5,3,5,63,98,1400767984
100,15,16,Jits_ISO_5,0,5,56,103,1401187868
100,15,16,Jits_ISO_5,1,5,80,127,1401218368
100,15,16,Jits_ISO_5,2,5,63,98,1401238000
100,15,16,Jits_ISO_5,3,1,48,52,1401253624
100,15,16,Jits_ISO_5,0,5,63,98,1401678100
100,15,16,Jits_ISO_5,1,5,56,103,1401737592
100,15,16,Jits_ISO_5,2,1,48,54,1401751796
100,15,16,Jits_ISO_5,3,5,80,127,1401768232
100,15,16,Jits_ISO_5,0,5,63,98,1402167644
100,15,16,Jits_ISO_5,1,5,80,127,1402171080
100,15,16,Jits_ISO_5,2,1,48,44,1402230844
100,15,16,Jits_ISO_5,3,5,56,103,1402257916
100,15,16,Jits_ISO_5,0,5,56,103,1402687972
100,15,16,Jits_ISO_5,1,5,63,98,1402717496
100,15,16,Jits_ISO_5,2,1,48,44,1402752152
100,15,16,Jits_ISO_5,3,5,80,127,1402757428
100,15,16,Jits_ISO_5,0,5,63,98,1403197984
100,15,16,Jits_ISO_5,1,1,48,51,1403219088
100,15,16,Jits_ISO_5,2,5,56,103,1403237692
100,15,16,Jits_ISO_5,3,5,80,127,1403258076
100,15,16,Jits_ISO_5,0,1,48,48,1403702172
100,15,16,Jits_ISO_5,1,5,63,98,1403707976
100,15,16,Jits_ISO_5,2,5,56,103,1403747912
100,15,16,Jits_ISO_5,3,5,80,127,1403758184
100,15,16,Jits_ISO_5,0,5,80,127,1404188088
100,15,16,Jits_ISO_5,1,1,48,53,1404207620
100,15,16,Jits_ISO_5,2,5,63,98,1404257612
100,15,16,Jits_ISO_5,3,5,56,103,1404278216
100,15,16,Jits_ISO_5,0,5,56,103,1404677424
100,15,16,Jits_ISO_5,1,1,48,51,1404698180
100,15,16,Jits_ISO_5,2,5,80,127,1404699520
100,15,16,Jits_ISO_5,3,5,63,98,1404738036
100,15,16,Jits_ISO_5,0,1,48,47,1405160028
100,15,16,Jits_ISO_5,1,5,63,98,1405187504
100,15,16,Jits_ISO_5,2,5,80,127,1405207888
100,15,16,Jits_ISO_5,3,5,56,103,1405247820
100,15,16,Jits_ISO_5,0,1,48,48,1405672040
100,15,16,Jits_ISO_5,1,5,63,98,1405688128
100,15,16,Jits_ISO_5,2,5,56,103,1405707688
100,15,16,Jits_ISO_5,3,5,80,127,1405718108
100,15,16,Jits_ISO_5,0,1,48,42,1406181136
100,15,16,Jits_ISO_5,1,5,80,127,1406187984
100,15,16,Jits_ISO_5,2,5,56,103,1406208368
100,15,16,Jits_ISO_5,3,5,63,98,1406238116
100,15,16,Jits_ISO_5,0,1,48,44,1406705432
100,15,16,Jits_ISO_5,1,5,56,103,1406758284
100,15,16,Jits_ISO_5,2,5,80,127,1406761352
100,15,16,Jits_ISO_5,3,5,63,98,1406777920
100,15,16,Jits_ISO_5,0,5,63,98,1407188248
100,15,16,Jits_ISO_5,1,5,56,103,1407218096
100,15,16,Jits_ISO_5,2,1,48,48,1407232524
100,15,16,Jits_ISO_5,3,5,80,127,1407277356
100,15,16,Jits_ISO_5,0,1,48,48,1407694084
100,15,16,Jits_ISO_5,1,5,63,98,1407768088
100,15,16,Jits_ISO_5,2,5,56,103,1407778136
100,15,16,Jits_ISO_5,3,5,80,127,1407788316
100,15,16,Jits_ISO_5,0,5,56,103,1408217316
100,15,16,Jits_ISO_5,1,1,48,43,1408244128
100,15,16,Jits_ISO_5,2,5,80,127,1408248208
100,15,16,Jits_ISO_5,3,5,63,98,1408258552
100,15,16,Jits_ISO_5,0,1,48,52,1408710804
100,15,16,Jits_ISO_5,1,5,63,98,1408758132
100,15,16,Jits_ISO_5,2,5,56,103,1408768328
100,15,16,Jits_ISO_5,3,5,80,127,1408788036
100,15,16,Jits_ISO_5,0,1,48,43,1409177136
100,15,16,Jits_ISO_5,1,5,56,103,1409188316
100,15,16,Jits_ISO_5,2,5,63,98,1409247504
100,15,16,Jits_ISO_5,3,5,80,127,1409251172
100,15,16,Jits_ISO_5,0,1,48,46,1409707672
100,15,16,Jits_ISO_5,1,5,80,127,1409709168
100,15,16,Jits_ISO_5,2,5,56,103,1409717568
100,15,16,Jits_ISO_5,3,5,63,98,1409788316
100,15,16,Jits_ISO_5,0,5,80,127,1410197820
100,15,16,Jits_ISO_5,1,1,48,52,1410204004
100,15,16,Jits_ISO_5,2,5,56,103,1410267420
100,15,16,Jits_ISO_5,3,5,63,98,1410277912
100,15,16,Jits_ISO_5,0,5,63,98,1410737428
100,15,16,Jits_ISO_5,1,5,56,103,1410747772
100,15,16,Jits_ISO_5,2,1,48,57,1410750816
100,15,16,Jits_ISO_5,3,5,80,127,1410768148
100,15,16,Jits_ISO_5,0,5,80,127,1411188012
100,15,16,Jits_ISO_5,1,5,63,98,1411247580
100,15,16,Jits_ISO_5,2,1,48,63,1411255876
100,15,16,Jits_ISO_5,3,5,56,103,1411288408
100,15,16,Jits_ISO_5,0,5,56,103,1411727992
100,15,16,Jits_ISO_5,1,5,63,98,1411737964
100,15,16,Jits_ISO_5,2,1,48,59,1411744744
100,15,16,Jits_ISO_5,3,5,80,127,1411777896
100,15,16,Jits_ISO_5,0,5,56,103,1412187440
100,15,16,Jits_ISO_5,1,5,80,127,1412218160
100,15,16,Jits_ISO_5,2,1,48,65,1412252964
100,15,16,Jits_ISO_5,3,5,63,98,1412268352
100,15,16,Jits_ISO_5,0,5,56,103,1412728164
100,15,16,Jits_ISO_5,1,1,48,65,1412741472
100,15,16,Jits_ISO_5,2,5,63,98,1412768012
100,15,16,Jits_ISO_5,3,5,80,127,1412771308
100,15,16,Jits_ISO_5,4,1,48,29,1412817424
100,15,16,Jits_ISO_5,0,5,56,103,1413228068
100,15,16,Jits_ISO_5,1,5,63,98,1413238340
100,15,16,Jits_ISO_5,2,1,48,46,1413249332
100,15,16,Jits_ISO_5,3,5,80,127,1413257524
100,15,16,Jits_ISO_5,0,5,56,103,1413687956
100,15,16,Jits_ISO_5,1,5,80,127,1413690948
100,15,16,Jits_ISO_5,2,5,63,98,1413727892
100,15,16,Jits_ISO_5,3,1,48,51,1413755128
100,15,16,Jits_ISO_5,0,5,63,98,1414228376
100,15,16,Jits_ISO_5,1,1,48,49,1414257756
100,15,16,Jits_ISO_5,2,5,56,103,1414259240
100,15,16,Jits_ISO_5,3,5,80,127,1414277456
100,15,16,Jits_ISO_5,0,5,80,127,1414707660
100,15,16,Jits_ISO_5,1,5,56,103,1414717856
100,15,16,Jits_ISO_5,2,5,63,98,1414727976
100,15,16,Jits_ISO_5,3,1,48,56,1414776792
100,15,16,Jits_ISO_5,0,5,56,103,1415208376
100,15,16,Jits_ISO_5,1,1,48,53,1415239664
100,15,16,Jits_ISO_5,2,5,80,127,1415248236
100,15,16,Jits_ISO_5,3,5,63,98,1415277832
100,15,16,Jits_ISO_5,0,5,63,98,1415718316
100,15,16,Jits_ISO_5,1,5,80,127,1415727612
100,15,16,Jits_ISO_5,2,1,48,51,1415737584
100,15,16,Jits_ISO_5,3,5,56,103,1415739072
100,15,16,Jits_ISO_5,0,5,56,103,1416197592
100,15,16,Jits_ISO_5,1,1,48,33,1416241836
100,15,16,Jits_ISO_5,2,5,63,98,1416268164
100,15,16,Jits_ISO_5,3,5,80,127,1416278360
100,15,16,Jits_ISO_5,0,5,80,127,1416698240
100,15,16,Jits_ISO_5,1,5,56,103,1416707392
100,15,16,Jits_ISO_5,2,1,48,44,1416742492
100,15,16,Jits_ISO_5,3,5,63,98,1416757656
100,15,16,Jits_ISO_5,0,5,80,127,1417208172
100,15,16,Jits_ISO_5,1,1,48,49,1417257000
100,15,16,Jits_ISO_5,2,5,56,103,1417267736
100,15,16,Jits_ISO_5,3,5,63,98,1417298232
100,15,16,Jits_ISO_5,0,5,56,103,1417707896
100,15,16,Jits_ISO_5,1,5,80,127,1417710888
100,15,16,Jits_ISO_5,2,5,63,98,1417747984
100,15,16,Jits_ISO_5,3,1,48,57,1417792224
100,15,16,Jits_ISO_5,0,5,56,103,1418238352
100,15,16,Jits_ISO_5,1,5,63,98,1418267952
100,15,16,Jits_ISO_5,2,5,80,127,1418278296
100,15,16,Jits_ISO_5,3,1,48,43,1418281932
100,15,16,Jits_ISO_5,0,5,63,98,1418757508
100,15,16,Jits_ISO_5,1,5,80,127,1418767704
100,15,16,Jits_ISO_5,2,1,48,54,1418773288
100,15,16,Jits_ISO_5,3,5,56,103,1418778116
100,15,16,Jits_ISO_5,0,5,80,127,1419207996
100,15,16,Jits_ISO_5,1,5,56,103,1419258216
100,15,16,Jits_ISO_5,2,5,63,98,1419261284
100,15,16,Jits_ISO_5,3,1,48,49,1419283732
100,15,16,Jits_ISO_5,0,5,56,103,1419737328
100,15,16,Jits_ISO_5,1,5,80,127,1419757960
100,15,16,Jits_ISO_5,2,5,63,98,1419768156
100,15,16,Jits_ISO_5,3,1,48,51,1419772844
100,15,16,Jits_ISO_5,0,5,63,98,1420217816
100,15,16,Jits_ISO_5,1,5,56,103,1420248536
100,15,16,Jits_ISO_5,2,1,48,47,1420250908
100,15,16,Jits_ISO_5,3,5,80,127,1420268192
100,15,16,Jits_ISO_5,0,5,56,103,1420727736
100,15,16,Jits_ISO_5,1,5,80,127,1420737856
100,15,16,Jits_ISO_5,2,1,48,28,1420755204
100,15,16,Jits_ISO_5,3,5,63,98,1420807480
100,15,16,Jits_ISO_5,0,5,63,98,1421218120
100,15,16,Jits_ISO_5,1,5,80,127,1421257984
100,15,16,Jits_ISO_5,2,1,48,36,1421269124
100,15,16,Jits_ISO_5,3,5,56,103,1421298088
100,15,16,Jits_ISO_5,0,5,56,103,1421728192
100,15,16,Jits_ISO_5,1,5,63,98,1421738312
100,15,16,Jits_ISO_5,2,5,80,127,1421758020
100,15,16,Jits_ISO_5,3,1,48,44,1421774844
100,15,16,Jits_ISO_5,0,1,48,43,1422233512
100,15,16,Jits_ISO_5,1,5,63,98,1422267788
100,15,16,Jits_ISO_5,2,5,80,127,1422288172
100,15,16,Jits_ISO_5,3,5,56,103,1422307956
100,15,16,Jits_ISO_5,0,5,56,103,1422708048
100,15,16,Jits_ISO_5,1,1,48,40,1422749004
100,15,16,Jits_ISO_5,2,5,80,127,1422787836
100,15,16,Jits_ISO_5,3,5,63,98,1422798332
100,15,16,Jits_ISO_5,0,1,48,41,1423223636
100,15,16,Jits_ISO_5,1,5,80,127,1423247872
100,15,16,Jits_ISO_5,2,5,63,98,1423258068
100,15,16,Jits_ISO_5,3,5,56,103,1423287744
100,15,16,Jits_ISO_5,0,5,63,98,1423707612
100,15,16,Jits_ISO_5,1,1,48,48,1423722936
100,15,16,Jits_ISO_5,2,5,80,127,1423747616
100,15,16,Jits_ISO_5,3,5,56,103,1423807856
100,15,16,Jits_ISO_5,0,5,63,98,1424217608
100,15,16,Jits_ISO_5,1,1,48,42,1424250468
100,15,16,Jits_ISO_5,2,5,56,103,1424267800
100,15,16,Jits_ISO_5,3,5,80,127,1424298300
100,15,16,Jits_ISO_5,0,5,80,127,1424728428
100,15,16,Jits_ISO_5,1,5,63,98,1424737724
100,15,16,Jits_ISO_5,2,1,48,55,1424744584
100,15,16,Jits_ISO_5,3,5,56,103,1424808444
100,15,16,Jits_ISO_5,0,1,48,50,1425254880
100,15,16,Jits_ISO_5,1,5,80,127,1425297772
100,15,16,Jits_ISO_5,2,5,56,103,1425308112
100,15,16,Jits_ISO_5,3,5,63,98,1425311032
100,15,16,Jits_ISO_5,0,5,56,103,1425738020
100,15,16,Jits_ISO_5,1,5,80,127,1425757728
100,15,16,Jits_ISO_5,2,5,63,98,1425767776
100,15,16,Jits_ISO_5,3,1,48,51,1425798088
100,15,16,Jits_ISO_5,0,5,63,98,1426258296
100,15,16,Jits_ISO_5,1,1,48,54,1426265156
100,15,16,Jits_ISO_5,2,5,56,103,1426298080
100,15,16,Jits_ISO_5,3,5,80,127,1426317864
100,15,16,Jits_ISO_5,0,5,63,98,1426758032
100,15,16,Jits_ISO_5,1,1,48,51,1426760044
100,15,16,Jits_ISO_5,2,5,56,103,1426818260
100,15,16,Jits_ISO_5,3,5,80,127,1426821480
100,15,16,Jits_ISO_5,0,5,56,103,1427217756
100,15,16,Jits_ISO_5,1,5,80,127,1427238212
100,15,16,Jits_ISO_5,2,5,63,98,1427278224
100,15,16,Jits_ISO_5,3,1,48,51,1427281944
100,15,16,Jits_ISO_5,0,5,56,103,1427748140
100,15,16,Jits_ISO_5,1,5,63,98,1427767848
100,15,16,Jits_ISO_5,2,1,48,52,1427773060
100,15,16,Jits_ISO_5,3,5,80,127,1427777816
100,15,16,Jits_ISO_5,0,5,80,127,1428218592
100,15,16,Jits_ISO_5,1,5,56,103,1428247824
100,15,16,Jits_ISO_5,2,5,63,98,1428287836
100,15,16,Jits_ISO_5,3,1,48,51,1428292752
100,15,16,Jits_ISO_5,0,5,80,127,1428728160
100,15,16,Jits_ISO_5,1,5,56,103,1428747648
100,15,16,Jits_ISO_5,2,1,48,49,1428800584
100,15,16,Jits_ISO_5,3,5,63,98,1428808028
100,15,16,Jits_ISO_5,0,1,48,49,1429224620
100,15,16,Jits_ISO_5,1,5,56,103,1429238236
100,15,16,Jits_ISO_5,2,5,80,127,1429257796
100,15,16,Jits_ISO_5,3,5,63,98,1429317872
100,15,16,Jits_ISO_5,0,5,80,127,1429718772
100,15,16,Jits_ISO_5,1,5,56,103,1429727624
100,15,16,Jits_ISO_5,2,1,48,40,1429754060
100,15,16,Jits_ISO_5,3,5,63,98,1429767724
100,15,16,Jits_ISO_5,0,5,63,98,1430228704
100,15,16,Jits_ISO_5,1,1,48,52,1430266536
100,15,16,Jits_ISO_5,2,5,56,103,1430268204
100,15,16,Jits_ISO_5,3,5,80,127,1430271204
100,15,16,Jits_ISO_5,0,1,48,56,1430746936
100,15,16,Jits_ISO_5,1,5,63,98,1430748500
100,15,16,Jits_ISO_5,2,5,80,127,1430787564
100,15,16,Jits_ISO_5,3,5,56,103,1430818212
100,15,16,Jits_ISO_5,0,5,56,103,1431237904
100,15,16,Jits_ISO_5,1,5,63,98,1431248100
100,15,16,Jits_ISO_5,2,1,48,48,1431269344
100,15,16,Jits_ISO_5,3,5,80,127,1431277940
100,15,16,Jits_ISO_5,0,5,80,127,1431727528
100,15,16,Jits_ISO_5,1,1,48,55,1431750052
100,15,16,Jits_ISO_5,2,5,63,98,1431798352
100,15,16,Jits_ISO_5,3,5,56,103,1431808324
100,15,16,Jits_ISO_5,0,5,63,98,1432228104
100,15,16,Jits_ISO_5,1,1,48,55,1432268384
100,15,16,Jits_ISO_5,2,5,56,103,1432297704
100,15,16,Jits_ISO_5,3,5,80,127,1432308072
100,15,16,Jits_ISO_5,0,5,63,98,1432727908
100,15,16,Jits_ISO_5,1,1,48,55,1432744728
100,15,16,Jits_ISO_5,2,5,56,103,1432748436
100,15,16,Jits_ISO_5,3,5,80,127,1432788596
100,15,16,Jits_ISO_5,0,1,48,54,1433222288
100,15,16,Jits_ISO_5,1,5,56,103,1433237752
100,15,16,Jits_ISO_5,2,5,63,98,1433248320
100,15,16,Jits_ISO_5,3,5,80,127,1433328120
100,15,16,Jits_ISO_5,0,5,63,98,1433728796
100,15,16,Jits_ISO_5,1,1,48,57,1433731916
100,15,16,Jits_ISO_5,2,5,56,103,1433758168
100,15,16,Jits_ISO_5,3,5,80,127,1433798032
100,15,16,Jits_ISO_5,0,1,48,49,1434216596
100,15,16,Jits_ISO_5,1,5,56,103,1434228148
100,15,16,Jits_ISO_5,2,5,63,98,1434268088
100,15,16,Jits_ISO_5,3,5,80,127,1434307948
100,15,16,Jits_ISO_5,0,5,80,127,1434727740
100,15,16,Jits_ISO_5,1,1,48,57,1434734748
100,15,16,Jits_ISO_5,2,5,56,103,1434807600
100,15,16,Jits_ISO_5,3,5,63,98,1434817796
100,15,16,Jits_ISO_5,0,1,48,56,1435256596
100,15,16,Jits_ISO_5,1,5,56,103,1435267712
100,15,16,Jits_ISO_5,2,5,63,98,1435270696
100,15,16,Jits_ISO_5,3,5,80,127,1435277900
100,15,16,Jits_ISO_5,0,1,48,57,1435732932
100,15,16,Jits_ISO_5,1,5,56,103,1435787584
100,15,16,Jits_ISO_5,2,5,63,98,1435808120
100,15,16,Jits_ISO_5,3,5,80,127,1435818316
100,15,16,Jits_ISO_5,0,5,63,98,1436248444
100,15,16,Jits_ISO_5,1,5,80,127,1436257668
100,15,16,Jits_ISO_5,2,1,48,53,1436271944
100,15,16,Jits_ISO_5,3,5,56,103,1436278044
100,15,16,Jits_ISO_5,0,5,63,98,1436748100
100,15,16,Jits_ISO_5,1,1,48,46,1436767780
100,15,16,Jits_ISO_5,2,5,56,103,1436827960
100,15,16,Jits_ISO_5,3,5,80,127,1436831024
100,15,16,Jits_ISO_5,0,5,63,98,1437247828
100,15,16,Jits_ISO_5,1,1,48,56,1437259864
100,15,16,Jits_ISO_5,2,5,56,103,1437268428
100,15,16,Jits_ISO_5,3,5,80,127,1437298028
100,15,16,Jits_ISO_5,0,1,48,59,1437753588
100,15,16,Jits_ISO_5,1,5,56,103,1437757816
100,15,16,Jits_ISO_5,2,5,63,98,1437778420
100,15,16,Jits_ISO_5,3,5,80,127,1437787496
100,15,16,Jits_ISO_5,0,1,48,59,1438238268
100,15,16,Jits_ISO_5,1,5,56,103,1438288336
100,15,16,Jits_ISO_5,2,5,63,98,1438317784
100,15,16,Jits_ISO_5,3,5,80,127,1438321076
100,15,16,Jits_ISO_5,0,5,56,103,1438737652
100,15,16,Jits_ISO_5,1,1,48,58,1438751704
100,15,16,Jits_ISO_5,2,5,63,98,1438777584
100,15,16,Jits_ISO_5,3,5,80,127,1438838044
100,15,16,Jits_ISO_5,0,1,48,54,1439254736
100,15,16,Jits_ISO_5,1,5,56,103,1439257916
100,15,16,Jits_ISO_5,2,5,63,98,1439268188
100,15,16,Jits_ISO_5,3,5,80,127,1439327528
100,15,16,Jits_ISO_5,0,5,56,103,1439757804
100,15,16,Jits_ISO_5,1,1,48,59,1439760404
100,15,16,Jits_ISO_5,2,5,80,127,1439778108
100,15,16,Jits_ISO_5,3,5,63,98,1439807932
100,15,16,Jits_ISO_5,0,5,80,127,1440258452
100,15,16,Jits_ISO_5,1,1,48,58,1440261496
100,15,16,Jits_ISO_5,2,5,56,103,1440267596
100,15,16,Jits_ISO_5,3,5,63,98,1440287976
100,15,16,Jits_ISO_5,0,5,63,98,1440747860
100,15,16,Jits_ISO_5,1,1,48,59,1440749420
100,15,16,Jits_ISO_5,2,5,80,127,1440827648
100,15,16,Jits_ISO_5,3,5,56,103,1440838140
100,15,16,Jits_ISO_5,0,1,48,56,1441272956
100,15,16,Jits_ISO_5,1,5,80,127,1441307900
100,15,16,Jits_ISO_5,2,5,56,103,1441327460
100,15,16,Jits_ISO_5,3,5,63,98,1441330524
100,15,16,Jits_ISO_5,0,5,63,98,1441788380
100,15,16,Jits_ISO_5,1,1,48,54,1441789364
100,15,16,Jits_ISO_5,2,5,80,127,1441792856
100,15,16,Jits_ISO_5,3,5,56,103,1441847640
100,15,16,Jits_ISO_5,0,5,56,103,1442267560
100,15,16,Jits_ISO_5,1,5,80,127,1442277756
100,15,16,Jits_ISO_5,2,1,48,53,1442302620
100,15,16,Jits_ISO_5,3,5,63,98,1442317560
100,15,16,Jits_ISO_5,0,5,56,103,1442747676
100,15,16,Jits_ISO_5,1,5,63,98,1442808392
100,15,16,Jits_ISO_5,2,1,48,54,1442812704
100,15,16,Jits_ISO_5,3,5,80,127,1442818580
100,15,16,Jits_ISO_5,0,5,63,98,1443257680
100,15,16,Jits_ISO_5,1,1,48,51,1443275696
100,15,16,Jits_ISO_5,2,5,80,127,1443297612
100,15,16,Jits_ISO_5,3,5,56,103,1443337648
100,15,16,Jits_ISO_5,0,5,56,103,1443757412
100,15,16,Jits_ISO_5,1,1,48,59,1443767800
100,15,16,Jits_ISO_5,2,5,63,98,1443838492
100,15,16,Jits_ISO_5,3,5,80,127,1443841708
100,15,16,Jits_ISO_5,0,9999,9999,9999,1384455264
100,15,16,Jits_ISO_5,1,9999,9999,9999,1384955956
100,15,16,Jits_ISO_5,2,9999,9999,9999,1385455692
100,15,16,Jits_ISO_5,3,9999,9999,9999,1385955404
100,15,16,Jits_ISO_5,4,9999,9999,9999,1386455108
100,15,16,Jits_ISO_5,5,9999,9999,9999,1386955832
100,15,16,Jits_ISO_5,6,9999,9999,9999,1387455564
100,15,16,Jits_ISO_5,7,9999,9999,9999,1387955312
100,15,16,Jits_ISO_5,8,9999,9999,9999,1388456028
100,15,16,Jits_ISO_5,9,9999,9999,9999,1388955704
100,15,16,Jits_ISO_5,10,9999,9999,9999,1389455452
100,15,16,Jits_ISO_5,11,9999,9999,9999,1389955128
100,15,16,Jits_ISO_5,12,9999,9999,9999,1390455900
100,15,16,Jits_ISO_5,13,9999,9999,9999,1390955628
100,15,16,Jits_ISO_5,14,9999,9999,9999,1391455288
100,15,16,Jits_ISO_5,15,9999,9999,9999,1391956080
100,15,16,Jits_ISO_5,16,9999,9999,9999,1392455752
100,15,16,Jits_ISO_5,17,9999,9999,9999,1392955484
100,15,16,Jits_ISO_5,18,9999,9999,9999,1393455228
100,15,16,Jits_ISO_5,19,9999,9999,9999,1393955948
100,15,16,Jits_ISO_5,20,9999,9999,9999,1394455616
100,15,16,Jits_ISO_5,21,9999,9999,9999,1394955368
100,15,16,Jits_ISO_5,22,9999,9999,9999,1395456084
100,15,16,Jits_ISO_5,23,9999,9999,9999,1395966024
100,15,16,Jits_ISO_5,24,9999,9999,9999,1396465772
100,15,16,Jits_ISO_5,25,9999,9999,9999,1396965460
100,15,16,Jits_ISO_5,26,9999,9999,9999,1397465192
100,15,16,Jits_ISO_5,27,9999,9999,9999,1397965884
100,15,16,Jits_ISO_5,28,9999,9999,9999,1398465632
100,15,16,Jits_ISO_5,29,9999,9999,9999,1398965304
100,15,16,Jits_ISO_5,30,9999,9999,9999,1399466100
100,15,16,Jits_ISO_5,31,9999,9999,9999,1399965776
100,15,16,Jits_ISO_5,32,9999,9999,9999,1400465524
100,15,16,Jits_ISO_5,33,9999,9999,9999,1400965196
100,15,16,Jits_ISO_5,34,9999,9999,9999,1401465916
100,15,16,Jits_ISO_5,35,9999,9999,9999,1401965664
100,15,16,Jits_ISO_5,36,9999,9999,9999,1402465388
100,15,16,Jits_ISO_5,37,9999,9999,9999,1402966096
100,15,16,Jits_ISO_5,38,9999,9999,9999,1403476036
100,15,16,Jits_ISO_5,39,9999,9999,9999,1403975768
100,15,16,Jits_ISO_5,40,9999,9999,9999,1404475504
100,15,16,Jits_ISO_5,41,9999,9999,9999,1404975176
100,15,16,Jits_ISO_5,42,9999,9999,9999,1405475892
100,15,16,Jits_ISO_5,43,9999,9999,9999,1405975624
100,15,16,Jits_ISO_5,44,9999,9999,9999,1406475328
100,15,16,Jits_ISO_5,45,9999,9999,9999,1406976104
100,15,16,Jits_ISO_5,46,9999,9999,9999,1407486024
100,15,16,Jits_ISO_5,47,9999,9999,9999,1407985764
100,15,16,Jits_ISO_5,48,9999,9999,9999,1408485480
100,15,16,Jits_ISO_5,49,9999,9999,9999,1408985148
100,15,16,Jits_ISO_5,50,9999,9999,9999,1409485920
100,15,16,Jits_ISO_5,51,9999,9999,9999,1409985652
100,15,16,Jits_ISO_5,52,9999,9999,9999,1410485312
100,15,16,Jits_ISO_5,53,9999,9999,9999,1410986108
100,15,16,Jits_ISO_5,54,9999,9999,9999,1411485768
100,15,16,Jits_ISO_5,55,9999,9999,9999,1411985520
100,15,16,Jits_ISO_5,56,9999,9999,9999,1412485192
100,15,16,Jits_ISO_5,57,9999,9999,9999,1412985956
100,15,16,Jits_ISO_5,58,9999,9999,9999,1413485668
100,15,16,Jits_ISO_5,59,9999,9999,9999,1413985404
100,15,16,Jits_ISO_5,60,9999,9999,9999,1414486128
100,15,16,Jits_ISO_5,61,9999,9999,9999,1414996044
100,15,16,Jits_ISO_5,62,9999,9999,9999,1415495792
100,15,16,Jits_ISO_5,63,9999,9999,9999,1415995464
100,15,16,Jits_ISO_5,64,9999,9999,9999,1416495200
100,15,16,Jits_ISO_5,65,9999,9999,9999,1416995916
100,15,16,Jits_ISO_5,66,9999,9999,9999,1417495664
100,15,16,Jits_ISO_5,67,9999,9999,9999,1417995376
100,15,16,Jits_ISO_5,68,9999,9999,9999,1418496100
100,15,16,Jits_ISO_5,69,9999,9999,9999,1419006040
100,15,16,Jits_ISO_5,70,9999,9999,9999,1419505764
100,15,16,Jits_ISO_5,71,9999,9999,9999,1420005488
100,15,16,Jits_ISO_5,72,9999,9999,9999,1420505156
100,15,16,Jits_ISO_5,73,9999,9999,9999,1421005936
100,15,16,Jits_ISO_5,74,9999,9999,9999,1421505608
100,15,16,Jits_ISO_5,75,9999,9999,9999,1422005344
100,15,16,Jits_ISO_5,76,9999,9999,9999,1422506068
100,15,16,Jits_ISO_5,77,9999,9999,9999,1423005804
100,15,16,Jits_ISO_5,78,9999,9999,9999,1423505480
100,15,16,Jits_ISO_5,79,9999,9999,9999,1424005212
100,15,16,Jits_ISO_5,80,9999,9999,9999,1424505920
100,15,16,Jits_ISO_5,81,9999,9999,9999,1425005652
100,15,16,Jits_ISO_5,82,9999,9999,9999,1425505400
100,15,16,Jits_ISO_5,83,9999,9999,9999,1426006104
100,15,16,Jits_ISO_5,84,9999,9999,9999,1426516044
100,15,16,Jits_ISO_5,85,9999,9999,9999,1427015776
100,15,16,Jits_ISO_5,86,9999,9999,9999,1427515504
100,15,16,Jits_ISO_5,87,9999,9999,9999,1428015176
100,15,16,Jits_ISO_5,88,9999,9999,9999,1428515900
100,15,16,Jits_ISO_5,89,9999,9999,9999,1429015648
100,15,16,Jits_ISO_5,90,9999,9999,9999,1429515324
100,15,16,Jits_ISO_5,91,9999,9999,9999,1430016100
100,15,16,Jits_ISO_5,92,9999,9999,9999,1430526024
100,15,16,Jits_ISO_5,93,9999,9999,9999,1431025760
100,15,16,Jits_ISO_5,94,9999,9999,9999,1431525464
100,15,16,Jits_ISO_5,95,9999,9999,9999,1432025208
100,15,16,Jits_ISO_5,96,9999,9999,9999,1432525928
100,15,16,Jits_ISO_5,97,9999,9999,9999,1433025584
100,15,16,Jits_ISO_5,98,9999,9999,9999,1433525324
100,15,16,Jits_ISO_5,99,9999,9999,9999,1434026104
100,15,16,Jits_ISO_5,100,9999,9999,9999,1434525760
100,15,16,Jits_ISO_5,101,9999,9999,9999,1435025492
100,15,16,Jits_ISO_5,102,9999,9999,9999,1435525228
100,15,16,Jits_ISO_5,103,9999,9999,9999,1436025936
100,15,16,Jits_ISO_5,104,9999,9999,9999,1436525668
100,15,16,Jits_ISO_5,105,9999,9999,9999,1437025392
100,15,16,Jits_ISO_5,106,9999,9999,9999,1437526100
100,15,16,Jits_ISO_5,107,9999,9999,9999,1438036020
100,15,16,Jits_ISO_5,108,9999,9999,9999,1438535744
100,15,16,Jits_ISO_5,109,9999,9999,9999,1439035480
100,15,16,Jits_ISO_5,110,9999,9999,9999,1439535224
100,15,16,Jits_ISO_5,111,9999,9999,9999,1440035928
100,15,16,Jits_ISO_5,112,9999,9999,9999,1440535600
100,15,16,Jits_ISO_5,113,9999,9999,9999,1441035352
100,15,16,Jits_ISO_5,114,9999,9999,9999,1441536056
100,15,16,Jits_ISO_5,115,9999,9999,9999,1442046048
100,15,16,Jits_ISO_5,116,9999,9999,9999,1442545780
100,15,16,Jits_ISO_5,117,9999,9999,9999,1443045432
100,15,16,Jits_ISO_5,118,9999,9999,9999,1443545172
100,15,16,Jits_ISO_5,119,9999,9999,9999,1444045940
100,16,18,Jits_Linear_8,0,5,56,103,1453449560
100,16,18,Jits_Linear_8,1,5,63,98,1453452736
100,16,18,Jits_Linear_8,2,5,80,127,1453455784
100,16,18,Jits_Linear_8,0,5,56,103,1454270104
100,16,18,Jits_Linear_8,1,5,63,98,1454273272
100,16,18,Jits_Linear_8,2,5,80,127,1454276244
100,16,18,Jits_Linear_8,0,5,80,127,1455039928
100,16,18,Jits_Linear_8,1,5,63,98,1455130240
100,16,18,Jits_Linear_8,2,5,56,103,1455140212
100,16,18,Jits_Linear_8,0,5,56,103,1455879392
100,16,18,Jits_Linear_8,1,5,63,98,1455889960
100,16,18,Jits_Linear_8,2,5,80,127,1455980020
100,16,18,Jits_Linear_8,0,1,48,58,1456667160
100,16,18,Jits_Linear_8,1,5,63,98,1456670192
100,16,18,Jits_Linear_8,2,5,80,127,1456699720
100,16,18,Jits_Linear_8,3,5,56,103,1456729396
100,16,18,Jits_Linear_8,0,1,48,58,1457442940
100,16,18,Jits_Linear_8,1,5,56,103,1457490168
100,16,18,Jits_Linear_8,2,5,80,127,1457589732
100,16,18,Jits_Linear_8,3,5,63,98,1457639784
100,16,18,Jits_Linear_8,0,1,48,53,1458276752
100,16,18,Jits_Linear_8,1,5,56,103,1458300240
100,16,18,Jits_Linear_8,2,5,80,127,1458349396
100,16,18,Jits_Linear_8,3,5,63,98,1458390368
100,16,18,Jits_Linear_8,0,1,48,49,1459118624
100,16,18,Jits_Linear_8,1,5,80,127,1459139924
100,16,18,Jits_Linear_8,2,5,63,98,1459169676
100,16,18,Jits_Linear_8,3,5,56,103,1459240412
100,16,18,Jits_Linear_8,0,1,48,48,1459965668
100,16,18,Jits_Linear_8,1,5,63,98,1459979564
100,16,18,Jits_Linear_8,2,5,56,103,1460010292
100,16,18,Jits_Linear_8,3,5,80,127,1460069692
100,16,18,Jits_Linear_8,0,5,56,103,1460730328
100,16,18,Jits_Linear_8,1,5,80,127,1460733392
100,16,18,Jits_Linear_8,2,1,48,49,1460768364
100,16,18,Jits_Linear_8,3,5,63,98,1460850120
100,16,18,Jits_Linear_8,0,1,48,45,1461573352
100,16,18,Jits_Linear_8,1,5,56,103,1461610024
100,16,18,Jits_Linear_8,2,5,80,127,1461649740
100,16,18,Jits_Linear_8,3,5,63,98,1461660232
100,16,18,Jits_Linear_8,0,5,56,103,1462369780
100,16,18,Jits_Linear_8,1,5,80,127,1462390316
100,16,18,Jits_Linear_8,2,1,48,51,1462415228
100,16,18,Jits_Linear_8,3,5,63,98,1462470104
100,16,18,Jits_Linear_8,0,5,80,127,1463160108
100,16,18,Jits_Linear_8,1,1,48,44,1463257492
100,16,18,Jits_Linear_8,2,5,56,103,1463259456
100,16,18,Jits_Linear_8,3,5,63,98,1463269724
100,16,18,Jits_Linear_8,0,5,63,98,1463930284
100,16,18,Jits_Linear_8,1,5,80,127,1463989556
100,16,18,Jits_Linear_8,2,5,56,103,1463999976
100,16,18,Jits_Linear_8,3,1,48,52,1464047532
100,16,18,Jits_Linear_8,0,5,56,103,1464730108
100,16,18,Jits_Linear_8,1,5,63,98,1464799488
100,16,18,Jits_Linear_8,2,5,80,127,1464802856
100,16,18,Jits_Linear_8,3,1,48,42,1464810056
100,16,18,Jits_Linear_8,0,5,63,98,1465560432
100,16,18,Jits_Linear_8,1,1,48,41,1465576284
100,16,18,Jits_Linear_8,2,5,56,103,1465609452
100,16,18,Jits_Linear_8,3,5,80,127,1465612596
100,16,18,Jits_Linear_8,0,5,56,103,1466310128
100,16,18,Jits_Linear_8,1,5,80,127,1466313044
100,16,18,Jits_Linear_8,2,1,48,48,1466367504
100,16,18,Jits_Linear_8,3,5,63,98,1466400352
100,16,18,Jits_Linear_8,0,5,63,98,1467139432
100,16,18,Jits_Linear_8,1,1,48,48,1467165096
100,16,18,Jits_Linear_8,2,5,56,103,1467229488
100,16,18,Jits_Linear_8,3,5,80,127,1467260268
100,16,18,Jits_Linear_8,0,5,56,103,1467919716
100,16,18,Jits_Linear_8,1,1,48,51,1467935712
100,16,18,Jits_Linear_8,2,5,63,98,1468020480
100,16,18,Jits_Linear_8,3,5,80,127,1468049992
100,16,18,Jits_Linear_8,0,5,63,98,1468729608
100,16,18,Jits_Linear_8,1,5,56,103,1468739952
100,16,18,Jits_Linear_8,2,5,80,127,1468830308
100,16,18,Jits_Linear_8,3,1,48,46,1468833876
100,16,18,Jits_Linear_8,0,5,63,98,1469529436
100,16,18,Jits_Linear_8,1,1,48,46,1469583800
100,16,18,Jits_Linear_8,2,5,56,103,1469610348
100,16,18,Jits_Linear_8,3,5,80,127,1469613412
100,16,18,Jits_Linear_8,0,5,80,127,1470269988
100,16,18,Jits_Linear_8,1,5,63,98,1470290376
100,16,18,Jits_Linear_8,2,5,56,103,1470349720
100,16,18,Jits_Linear_8,3,1,48,54,1470379140
100,16,18,Jits_Linear_8,0,5,56,103,1471090288
100,16,18,Jits_Linear_8,1,5,63,98,1471109476
100,16,18,Jits_Linear_8,2,5,80,127,1471112692
100,16,18,Jits_Linear_8,3,1,48,44,1471114028
100,16,18,Jits_Linear_8,0,5,63,98,1471820072
100,16,18,Jits_Linear_8,1,1,48,47,1471884244
100,16,18,Jits_Linear_8,2,5,80,127,1471900160
100,16,18,Jits_Linear_8,3,5,56,103,1471910280
100,16,18,Jits_Linear_8,0,5,63,98,1472620048
100,16,18,Jits_Linear_8,1,5,56,103,1472640508
100,16,18,Jits_Linear_8,2,1,48,42,1472641476
100,16,18,Jits_Linear_8,3,5,80,127,1472689584
100,16,18,Jits_Linear_8,0,1,48,52,1473387244
100,16,18,Jits_Linear_8,1,5,80,127,1473400168
100,16,18,Jits_Linear_8,2,5,63,98,1473440108
100,16,18,Jits_Linear_8,3,5,56,103,1473459444
100,16,18,Jits_Linear_8,0,1,48,46,1474172172
100,16,18,Jits_Linear_8,1,5,56,103,1474210184
100,16,18,Jits_Linear_8,2,5,63,98,1474220604
100,16,18,Jits_Linear_8,3,5,80,127,1474239796
100,16,18,Jits_Linear_8,0,5,56,103,1474909556
100,16,18,Jits_Linear_8,1,1,48,49,1474983768
100,16,18,Jits_Linear_8,2,5,63,98,1474999688
100,16,18,Jits_Linear_8,3,5,80,127,1475060028
100,16,18,Jits_Linear_8,0,5,80,127,1475710300
100,16,18,Jits_Linear_8,1,5,56,103,1475719524
100,16,18,Jits_Linear_8,2,1,48,51,1475749464
100,16,18,Jits_Linear_8,3,5,63,98,1475790168
100,16,18,Jits_Linear_8,0,5,63,98,1476510144
100,16,18,Jits_Linear_8,1,1,48,56,1476539568
100,16,18,Jits_Linear_8,2,5,80,127,1476600148
100,16,18,Jits_Linear_8,3,5,56,103,1476610268
100,16,18,Jits_Linear_8,0,5,63,98,1477209584
100,16,18,Jits_Linear_8,1,5,80,127,1477259564
100,16,18,Jits_Linear_8,2,5,56,103,1477320028
100,16,18,Jits_Linear_8,3,1,48,43,1477361452
100,16,18,Jits_Linear_8,0,5,56,103,1477999972
100,16,18,Jits_Linear_8,1,1,48,38,1478032608
100,16,18,Jits_Linear_8,2,5,80,127,1478050092
100,16,18,Jits_Linear_8,3,5,63,98,1478069652
100,16,18,Jits_Linear_8,0,5,56,103,1478730136
100,16,18,Jits_Linear_8,1,1,48,44,1478776856
100,16,18,Jits_Linear_8,2,5,80,127,1478789472
100,16,18,Jits_Linear_8,3,5,63,98,1478860128
100,16,18,Jits_Linear_8,0,5,56,103,1479489968
100,16,18,Jits_Linear_8,1,5,80,127,1479519792
100,16,18,Jits_Linear_8,2,5,63,98,1479550368
100,16,18,Jits_Linear_8,3,1,48,37,1479604428
100,16,18,Jits_Linear_8,0,1,48,51,1480278244
100,16,18,Jits_Linear_8,1,5,56,103,1480289576
100,16,18,Jits_Linear_8,2,5,80,127,1480310112
100,16,18,Jits_Linear_8,3,5,63,98,1480369456
100,16,18,Jits_Linear_8,0,1,48,56,1481031840
100,16,18,Jits_Linear_8,1,5,80,127,1481130448
100,16,18,Jits_Linear_8,2,5,56,103,1481139676
100,16,18,Jits_Linear_8,3,5,63,98,1481149796
100,16,18,Jits_Linear_8,0,5,56,103,1481839884
100,16,18,Jits_Linear_8,1,1,48,56,1481862028
100,16,18,Jits_Linear_8,2,5,80,127,1481879964
100,16,18,Jits_Linear_8,3,5,63,98,1481909568
100,16,18,Jits_Linear_8,0,5,56,103,1482559932
100,16,18,Jits_Linear_8,1,5,63,98,1482589612
100,16,18,Jits_Linear_8,2,5,80,127,1482629476
100,16,18,Jits_Linear_8,3,1,48,49,1482653564
100,16,18,Jits_Linear_8,0,5,80,127,1483260356
100,16,18,Jits_Linear_8,1,5,63,98,1483309368
100,16,18,Jits_Linear_8,2,5,56,103,1483329828
100,16,18,Jits_Linear_8,3,1,48,47,1483399024
100,16,18,Jits_Linear_8,0,5,56,103,1484039596
100,16,18,Jits_Linear_8,1,5,80,127,1484110252
100,16,18,Jits_Linear_8,2,1,48,51,1484123264
100,16,18,Jits_Linear_8,3,5,63,98,1484169592
100,16,18,Jits_Linear_8,0,5,80,127,1484779884
100,16,18,Jits_Linear_8,1,1,48,50,1484848196
100,16,18,Jits_Linear_8,2,5,63,98,1484870016
100,16,18,Jits_Linear_8,3,5,56,103,1484889428
100,16,18,Jits_Linear_8,0,5,63,98,1485539928
100,16,18,Jits_Linear_8,1,5,56,103,1485560188
100,16,18,Jits_Linear_8,2,5,80,127,1485599976
100,16,18,Jits_Linear_8,3,1,48,50,1485622648
100,16,18,Jits_Linear_8,0,5,80,127,1486240108
100,16,18,Jits_Linear_8,1,5,63,98,1486259748
100,16,18,Jits_Linear_8,2,1,48,52,1486266460
100,16,18,Jits_Linear_8,3,5,56,103,1486339336
100,16,18,Jits_Linear_8,0,5,63,98,1486979488
100,16,18,Jits_Linear_8,1,1,48,51,1487009060
100,16,18,Jits_Linear_8,2,5,56,103,1487090168
100,16,18,Jits_Linear_8,3,5,80,127,1487093156
100,16,18,Jits_Linear_8,0,5,63,98,1487740196
100,16,18,Jits_Linear_8,1,5,56,103,1487749496
100,16,18,Jits_Linear_8,2,5,80,127,1487752412
100,16,18,Jits_Linear_8,3,1,48,53,1487795160
100,16,18,Jits_Linear_8,0,5,56,103,1488460072
100,16,18,Jits_Linear_8,1,1,48,54,1488488220
100,16,18,Jits_Linear_8,2,5,80,127,1488579944
100,16,18,Jits_Linear_8,3,5,63,98,1488619968
100,16,18,Jits_Linear_8,0,5,56,103,1489209800
100,16,18,Jits_Linear_8,1,1,48,56,1489269188
100,16,18,Jits_Linear_8,2,5,80,127,1489289516
100,16,18,Jits_Linear_8,3,5,63,98,1489309976
100,16,18,Jits_Linear_8,0,5,56,103,1489940040
100,16,18,Jits_Linear_8,1,5,63,98,1490050556
100,16,18,Jits_Linear_8,2,5,80,127,1490053844
100,16,18,Jits_Linear_8,3,1,48,53,1490061768
100,16,18,Jits_Linear_8,0,5,56,103,1490699724
100,16,18,Jits_Linear_8,1,5,80,127,1490730372
100,16,18,Jits_Linear_8,2,5,63,98,1490750008
100,16,18,Jits_Linear_8,3,1,48,51,1490795296
100,16,18,Jits_Linear_8,0,5,63,98,1491410236
100,16,18,Jits_Linear_8,1,5,56,103,1491419536
100,16,18,Jits_Linear_8,2,5,80,127,1491430028
100,16,18,Jits_Linear_8,3,1,48,47,1491484040
100,16,18,Jits_Linear_8,0,5,80,127,1492120004
100,16,18,Jits_Linear_8,1,1,48,48,1492134804
100,16,18,Jits_Linear_8,2,5,56,103,1492170052
100,16,18,Jits_Linear_8,3,5,63,98,1492209944
100,16,18,Jits_Linear_8,0,5,80,127,1492860136
100,16,18,Jits_Linear_8,1,5,63,98,1492879848
100,16,18,Jits_Linear_8,2,1,48,52,1492898860
100,16,18,Jits_Linear_8,3,5,56,103,1492929968
100,16,18,Jits_Linear_8,0,5,80,127,1493590456
100,16,18,Jits_Linear_8,1,5,56,103,1493619984
100,16,18,Jits_Linear_8,2,1,48,52,1493651196
100,16,18,Jits_Linear_8,3,5,63,98,1493689804
100,16,18,Jits_Linear_8,0,5,56,103,1494360560
100,16,18,Jits_Linear_8,1,5,80,127,1494369932
100,16,18,Jits_Linear_8,2,1,48,61,1494385788
100,16,18,Jits_Linear_8,3,5,63,98,1494409644
100,16,18,Jits_Linear_8,0,5,56,103,1494990164
100,16,18,Jits_Linear_8,1,5,63,98,1495009800
100,16,18,Jits_Linear_8,2,5,80,127,1495080256
100,16,18,Jits_Linear_8,3,1,48,58,1495083300
100,16,18,Jits_Linear_8,4,1,48,34,1495126496
100,16,18,Jits_Linear_8,0,1,48,44,1495728312
100,16,18,Jits_Linear_8,1,5,63,98,1495729884
100,16,18,Jits_Linear_8,2,5,80,127,1495789856
100,16,18,Jits_Linear_8,3,5,56,103,1495810540
100,16,18,Jits_Linear_8,0,5,80,127,1496429928
100,16,18,Jits_Linear_8,1,5,56,103,1496459756
100,16,18,Jits_Linear_8,2,5,63,98,1496490552
100,16,18,Jits_Linear_8,3,1,48,50,1496506852
100,16,18,Jits_Linear_8,0,5,56,103,1497139788
100,16,18,Jits_Linear_8,1,5,63,98,1497199884
100,16,18,Jits_Linear_8,2,1,48,48,1497204948
100,16,18,Jits_Linear_8,3,5,80,127,1497260268
100,16,18,Jits_Linear_8,0,5,80,127,1497869884
100,16,18,Jits_Linear_8,1,5,56,103,1497890124
100,16,18,Jits_Linear_8,2,1,48,61,1497903804
100,16,18,Jits_Linear_8,3,5,63,98,1497959720
100,16,18,Jits_Linear_8,0,5,80,127,1498580248
100,16,18,Jits_Linear_8,1,1,48,54,1498587648
100,16,18,Jits_Linear_8,2,5,63,98,1498599732
100,16,18,Jits_Linear_8,3,5,56,103,1498629704
100,16,18,Jits_Linear_8,0,5,80,127,1499269636
100,16,18,Jits_Linear_8,1,5,63,98,1499290020
100,16,18,Jits_Linear_8,2,1,48,56,1499323408
100,16,18,Jits_Linear_8,3,5,56,103,1499350556
100,16,18,Jits_Linear_8,0,5,80,127,1499969836
100,16,18,Jits_Linear_8,1,1,48,50,1499979404
100,16,18,Jits_Linear_8,2,5,56,103,1500070156
100,16,18,Jits_Linear_8,3,5,63,98,1500099968
100,16,18,Jits_Linear_8,0,5,63,98,1500660004
100,16,18,Jits_Linear_8,1,5,80,127,1500710356
100,16,18,Jits_Linear_8,2,5,56,103,1500729692
100,16,18,Jits_Linear_8,3,1,48,56,1500732588
100,16,18,Jits_Linear_8,0,5,80,127,1501400692
100,16,18,Jits_Linear_8,1,1,48,57,1501406656
100,16,18,Jits_Linear_8,2,5,56,103,1501430088
100,16,18,Jits_Linear_8,3,5,63,98,1501433152
100,16,18,Jits_Linear_8,0,1,48,55,1502076348
100,16,18,Jits_Linear_8,1,5,63,98,1502129800
100,16,18,Jits_Linear_8,2,5,56,103,1502169520
100,16,18,Jits_Linear_8,3,5,80,127,1502189988
100,16,18,Jits_Linear_8,0,5,80,127,1502769764
100,16,18,Jits_Linear_8,1,1,48,59,1502841664
100,16,18,Jits_Linear_8,2,5,63,98,1502850756
100,16,18,Jits_Linear_8,3,5,56,103,1502890320
100,16,18,Jits_Linear_8,0,5,63,98,1503480164
100,16,18,Jits_Linear_8,1,1,48,58,1503541424
100,16,18,Jits_Linear_8,2,5,80,127,1503560028
100,16,18,Jits_Linear_8,3,5,56,103,1503579740
100,16,18,Jits_Linear_8,0,5,56,103,1504210224
100,16,18,Jits_Linear_8,1,5,63,98,1504219672
100,16,18,Jits_Linear_8,2,1,48,53,1504251140
100,16,18,Jits_Linear_8,3,5,80,127,1504259776
100,16,18,Jits_Linear_8,0,5,56,103,1504819700
100,16,18,Jits_Linear_8,1,5,80,127,1504822616
100,16,18,Jits_Linear_8,2,1,48,57,1504930252
100,16,18,Jits_Linear_8,3,5,63,98,1504959720
100,16,18,Jits_Linear_8,0,5,56,103,1505499488
100,16,18,Jits_Linear_8,1,1,48,52,1505589500
100,16,18,Jits_Linear_8,2,5,63,98,1505590912
100,16,18,Jits_Linear_8,3,5,80,127,1505660296
100,16,18,Jits_Linear_8,0,5,63,98,1506260300
100,16,18,Jits_Linear_8,1,5,80,127,1506263516
100,16,18,Jits_Linear_8,2,1,48,50,1506269644
100,16,18,Jits_Linear_8,3,5,56,103,1506319664
100,16,18,Jits_Linear_8,0,5,80,127,1506980116
100,16,18,Jits_Linear_8,1,1,48,52,1506984284
100,16,18,Jits_Linear_8,2,5,56,103,1506999672
100,16,18,Jits_Linear_8,3,5,63,98,1507009944
100,16,18,Jits_Linear_8,0,5,56,103,1507570040
100,16,18,Jits_Linear_8,1,5,63,98,1507580388
100,16,18,Jits_Linear_8,2,5,80,127,1507649844
100,16,18,Jits_Linear_8,3,1,48,62,1507684424
100,16,18,Jits_Linear_8,0,5,80,127,1508249912
100,16,18,Jits_Linear_8,1,5,56,103,1508300116
100,16,18,Jits_Linear_8,2,1,48,47,1508303308
100,16,18,Jits_Linear_8,3,5,63,98,1508350260
100,16,18,Jits_Linear_8,0,1,48,49,1508992412
100,16,18,Jits_Linear_8,1,5,56,103,1509009748
100,16,18,Jits_Linear_8,2,5,63,98,1509020020
100,16,18,Jits_Linear_8,3,5,80,127,1509059884
100,16,18,Jits_Linear_8,0,5,56,103,1509630452
100,16,18,Jits_Linear_8,1,1,48,45,1509667880
100,16,18,Jits_Linear_8,2,5,63,98,1509670384
100,16,18,Jits_Linear_8,3,5,80,127,1509720512
100,16,18,Jits_Linear_8,0,5,80,127,1510260208
100,16,18,Jits_Linear_8,1,1,48,58,1510285504
100,16,18,Jits_Linear_8,2,5,56,103,1510310108
100,16,18,Jits_Linear_8,3,5,63,98,1510329820
100,16,18,Jits_Linear_8,0,5,80,127,1510939880
100,16,18,Jits_Linear_8,1,1,48,50,1510946216
100,16,18,Jits_Linear_8,2,5,63,98,1511000564
100,16,18,Jits_Linear_8,3,5,56,103,1511080420
100,16,18,Jits_Linear_8,0,5,80,127,1511590384
100,16,18,Jits_Linear_8,1,5,56,103,1511630324
100,16,18,Jits_Linear_8,2,5,63,98,1511649660
100,16,18,Jits_Linear_8,3,1,48,51,1511670264
100,16,18,Jits_Linear_8,0,1,48,45,1512281336
100,16,18,Jits_Linear_8,1,5,56,103,1512309984
100,16,18,Jits_Linear_8,2,5,80,127,1512320328
100,16,18,Jits_Linear_8,3,5,63,98,1512360488
100,16,18,Jits_Linear_8,0,1,48,49,1512951404
100,16,18,Jits_Linear_8,1,5,56,103,1513040288
100,16,18,Jits_Linear_8,2,5,63,98,1513080288
100,16,18,Jits_Linear_8,3,5,80,127,1513083576
100,16,18,Jits_Linear_8,0,5,63,98,1513590016
100,16,18,Jits_Linear_8,1,5,80,127,1513630176
100,16,18,Jits_Linear_8,2,1,48,54,1513673228
100,16,18,Jits_Linear_8,3,5,56,103,1513699628
100,16,18,Jits_Linear_8,0,5,63,98,1514240600
100,16,18,Jits_Linear_8,1,5,56,103,1514320252
100,16,18,Jits_Linear_8,2,1,48,57,1514327204
100,16,18,Jits_Linear_8,3,5,80,127,1514379588
100,16,18,Jits_Linear_8,0,5,80,127,1514910044
100,16,18,Jits_Linear_8,1,1,48,46,1514933396
100,16,18,Jits_Linear_8,2,5,63,98,1514960168
100,16,18,Jits_Linear_8,3,5,56,103,1514989796
100,16,18,Jits_Linear_8,0,5,56,103,1515560568
100,16,18,Jits_Linear_8,1,5,63,98,1515609432
100,16,18,Jits_Linear_8,2,1,48,57,1515610696
100,16,18,Jits_Linear_8,3,5,80,127,1515619844
100,16,18,Jits_Linear_8,0,5,56,103,1516229952
100,16,18,Jits_Linear_8,1,1,48,51,1516242660
100,16,18,Jits_Linear_8,2,5,63,98,1516339500
100,16,18,Jits_Linear_8,3,5,80,127,1516360180
100,16,18,Jits_Linear_8,0,5,63,98,1516880484
100,16,18,Jits_Linear_8,1,5,80,127,1516930612
100,16,18,Jits_Linear_8,2,1,48,53,1516952312
100,16,18,Jits_Linear_8,3,5,56,103,1517019392
100,16,18,Jits_Linear_8,0,5,63,98,1517520408
100,16,18,Jits_Linear_8,1,5,80,127,1517550404
100,16,18,Jits_Linear_8,2,5,56,103,1517640240
100,16,18,Jits_Linear_8,3,1,48,55,1517642764
100,16,18,Jits_Linear_8,0,5,63,98,1518169572
100,16,18,Jits_Linear_8,1,5,56,103,1518179768
100,16,18,Jits_Linear_8,2,5,80,127,1518279940
100,16,18,Jits_Linear_8,3,1,48,47,1518282760
100,16,18,Jits_Linear_8,0,1,48,51,1518844696
100,16,18,Jits_Linear_8,1,5,63,98,1518920180
100,16,18,Jits_Linear_8,2,5,80,127,1518949616
100,16,18,Jits_Linear_8,3,5,56,103,1518979588
100,16,18,Jits_Linear_8,0,1,48,51,1519542480
100,16,18,Jits_Linear_8,1,5,80,127,1519579372
100,16,18,Jits_Linear_8,2,5,63,98,1519589868
100,16,18,Jits_Linear_8,3,5,56,103,1519619344
100,16,18,Jits_Linear_8,0,5,80,127,1520120360
100,16,18,Jits_Linear_8,1,5,63,98,1520139552
100,16,18,Jits_Linear_8,2,5,56,103,1520189752
100,16,18,Jits_Linear_8,3,1,48,46,1520223960
100,16,18,Jits_Linear_8,0,5,63,98,1520789896
100,16,18,Jits_Linear_8,1,1,48,53,1520814740
100,16,18,Jits_Linear_8,2,5,80,127,1520850508
100,16,18,Jits_Linear_8,3,5,56,103,1520869696
100,16,18,Jits_Linear_8,0,5,63,98,1521389840
100,16,18,Jits_Linear_8,1,5,56,103,1521440340
100,16,18,Jits_Linear_8,2,5,80,127,1521450688
100,16,18,Jits_Linear_8,3,1,48,51,1521511720
100,16,18,Jits_Linear_8,0,5,56,103,1522059584
100,16,18,Jits_Linear_8,1,5,80,127,1522069928
100,16,18,Jits_Linear_8,2,1,48,52,1522118528
100,16,18,Jits_Linear_8,3,5,63,98,1522170488
100,16,18,Jits_Linear_8,0,5,80,127,1522659592
100,16,18,Jits_Linear_8,1,5,63,98,1522669812
100,16,18,Jits_Linear_8,2,1,48,54,1522789880
100,16,18,Jits_Linear_8,3,5,56,103,1522819424
100,16,18,Jits_Linear_8,0,5,63,98,1523299632
100,16,18,Jits_Linear_8,1,5,80,127,1523339572
100,16,18,Jits_Linear_8,2,5,56,103,1523419516
100,16,18,Jits_Linear_8,3,1,48,46,1523462960
100,16,18,Jits_Linear_8,0,5,56,103,1523920292
100,16,18,Jits_Linear_8,1,5,80,127,1524019520
100,16,18,Jits_Linear_8,2,5,63,98,1524040204
100,16,18,Jits_Linear_8,3,1,48,53,1524072544
100,16,18,Jits_Linear_8,0,5,80,127,1524610384
100,16,18,Jits_Linear_8,1,5,56,103,1524619532
100,16,18,Jits_Linear_8,2,5,63,98,1524709740
100,16,18,Jits_Linear_8,3,1,48,52,1524714976
100,16,18,Jits_Linear_8,0,5,56,103,1525240164
100,16,18,Jits_Linear_8,1,5,63,98,1525259652
100,16,18,Jits_Linear_8,2,5,80,127,1525339376
100,16,18,Jits_Linear_8,3,1,48,48,1525378384
100,16,18,Jits_Linear_8,0,5,63,98,1525809536
100,16,18,Jits_Linear_8,1,5,56,103,1525899596
100,16,18,Jits_Linear_8,2,5,80,127,1525902660
100,16,18,Jits_Linear_8,3,1,48,48,1525981896
100,16,18,Jits_Linear_8,0,5,56,103,1526459792
100,16,18,Jits_Linear_8,1,5,80,127,1526520432
100,16,18,Jits_Linear_8,2,5,63,98,1526530404
100,16,18,Jits_Linear_8,3,1,48,45,1526605808
100,16,18,Jits_Linear_8,0,5,80,127,1527129356
100,16,18,Jits_Linear_8,1,5,56,103,1527139772
100,16,18,Jits_Linear_8,2,5,63,98,1527142688
100,16,18,Jits_Linear_8,3,1,48,43,1527193684
100,16,18,Jits_Linear_8,0,5,56,103,1527710320
100,16,18,Jits_Linear_8,1,5,80,127,1527720296
100,16,18,Jits_Linear_8,2,5,63,98,1527739856
100,16,18,Jits_Linear_8,3,1,48,40,1527853044
100,16,18,Jits_Linear_8,0,5,63,98,1528299868
100,16,18,Jits_Linear_8,1,1,48,39,1528342020
100,16,18,Jits_Linear_8,2,5,80,127,1528360256
100,16,18,Jits_Linear_8,3,5,56,103,1528409336
100,16,18,Jits_Linear_8,0,5,63,98,1529000260
100,16,18,Jits_Linear_8,1,5,56,103,1529009484
100,16,18,Jits_Linear_8,2,1,48,35,1529030508
100,16,18,Jits_Linear_8,3,5,80,127,1529059752
100,16,18,Jits_Linear_8,0,5,63,98,1529510424
100,16,18,Jits_Linear_8,1,5,80,127,1529529692
100,16,18,Jits_Linear_8,2,5,56,103,1529539888
100,16,18,Jits_Linear_8,3,1,48,37,1529641764
100,16,18,Jits_Linear_8,0,5,63,98,1530119504
100,16,18,Jits_Linear_8,1,5,80,127,1530122792
100,16,18,Jits_Linear_8,2,1,48,29,1530131164
100,16,18,Jits_Linear_8,3,5,56,103,1530159436
100,16,18,Jits_Linear_8,0,1,48,40,1530717956
100,16,18,Jits_Linear_8,1,5,63,98,1530799424
100,16,18,Jits_Linear_8,2,5,80,127,1530830352
100,16,18,Jits_Linear_8,3,5,56,103,1530840548
100,16,18,Jits_Linear_8,0,5,56,103,1531359560
100,16,18,Jits_Linear_8,1,5,80,127,1531390460
100,16,18,Jits_Linear_8,2,5,63,98,1531420212
100,16,18,Jits_Linear_8,3,1,48,43,1531439668
100,16,18,Jits_Linear_8,0,1,48,43,1531987572
100,16,18,Jits_Linear_8,1,5,63,98,1532060136
100,16,18,Jits_Linear_8,2,5,56,103,1532099912
100,16,18,Jits_Linear_8,3,5,80,127,1532103200
100,16,18,Jits_Linear_8,0,5,80,127,1532559668
100,16,18,Jits_Linear_8,1,5,56,103,1532639544
100,16,18,Jits_Linear_8,2,5,63,98,1532689768
100,16,18,Jits_Linear_8,3,1,48,41,1532693332
100,16,18,Jits_Linear_8,0,5,80,127,1533140348
100,16,18,Jits_Linear_8,1,5,56,103,1533159860
100,16,18,Jits_Linear_8,2,5,63,98,1533249844
100,16,18,Jits_Linear_8,3,1,48,48,1533308332
100,16,18,Jits_Linear_8,0,5,80,127,1533780312
100,16,18,Jits_Linear_8,1,5,63,98,1533820256
100,16,18,Jits_Linear_8,2,5,56,103,1533860192
100,16,18,Jits_Linear_8,3,1,48,44,1533916276
100,16,18,Jits_Linear_8,0,5,63,98,1534349532
100,16,18,Jits_Linear_8,1,5,80,127,1534410072
100,16,18,Jits_Linear_8,2,5,56,103,1534439700
100,16,18,Jits_Linear_8,3,1,48,43,1534493008
100,16,18,Jits_Linear_8,0,5,56,103,1534949748
100,16,18,Jits_Linear_8,1,5,80,127,1534979352
100,16,18,Jits_Linear_8,2,1,48,38,1535066148
100,16,18,Jits_Linear_8,3,5,63,98,1535069404
100,16,18,Jits_Linear_8,0,5,56,103,1535549984
100,16,18,Jits_Linear_8,1,1,48,40,1535640312
100,16,18,Jits_Linear_8,2,5,80,127,1535660344
100,16,18,Jits_Linear_8,3,5,63,98,1535690168
100,16,18,Jits_Linear_8,0,5,56,103,1536189936
100,16,18,Jits_Linear_8,1,5,63,98,1536250356
100,16,18,Jits_Linear_8,2,1,48,33,1536259176
100,16,18,Jits_Linear_8,3,5,80,127,1536280096
100,16,18,Jits_Linear_8,0,5,56,103,1536749968
100,16,18,Jits_Linear_8,1,5,63,98,1536819504
100,16,18,Jits_Linear_8,2,5,80,127,1536840260
100,16,18,Jits_Linear_8,3,1,48,45,1536852224
100,16,18,Jits_Linear_8,0,5,80,127,1537310048
100,16,18,Jits_Linear_8,1,5,63,98,1537329536
100,16,18,Jits_Linear_8,2,5,56,103,1537379812
100,16,18,Jits_Linear_8,3,1,48,38,1537421740
100,16,18,Jits_Linear_8,0,5,63,98,1537910352
100,16,18,Jits_Linear_8,1,5,80,127,1537920404
100,16,18,Jits_Linear_8,2,1,48,40,1537932588
100,16,18,Jits_Linear_8,3,5,56,103,1537969548
100,16,18,Jits_Linear_8,0,5,63,98,1538489820
100,16,18,Jits_Linear_8,1,1,48,44,1538526496
100,16,18,Jits_Linear_8,2,5,80,127,1538560344
100,16,18,Jits_Linear_8,3,5,56,103,1538579680
100,16,18,Jits_Linear_8,0,5,63,98,1539100248
100,16,18,Jits_Linear_8,1,5,80,127,1539103464
100,16,18,Jits_Linear_8,2,1,48,44,1539137768
100,16,18,Jits_Linear_8,3,5,56,103,1539169628
100,16,18,Jits_Linear_8,0,5,80,127,1539629292
100,16,18,Jits_Linear_8,1,5,56,103,1539650196
100,16,18,Jits_Linear_8,2,5,63,98,1539660392
100,16,18,Jits_Linear_8,3,1,48,44,1539711980
100,16,18,Jits_Linear_8,0,5,56,103,1540229368
100,16,18,Jits_Linear_8,1,1,48,40,1540252636
100,16,18,Jits_Linear_8,2,5,63,98,1540319720
100,16,18,Jits_Linear_8,3,5,80,127,1540323160
100,16,18,Jits_Linear_8,0,5,80,127,1540780292
100,16,18,Jits_Linear_8,1,5,56,103,1540789592
100,16,18,Jits_Linear_8,2,5,63,98,1540810200
100,16,18,Jits_Linear_8,3,1,48,38,1540829288
100,16,18,Jits_Linear_8,0,1,48,40,1541344220
100,16,18,Jits_Linear_8,1,5,63,98,1541349652
100,16,18,Jits_Linear_8,2,5,80,127,1541410264
100,16,18,Jits_Linear_8,3,5,56,103,1541420536
100,16,18,Jits_Linear_8,0,1,48,44,1541947352
100,16,18,Jits_Linear_8,1,5,63,98,1541989800
100,16,18,Jits_Linear_8,2,5,80,127,1542019400
100,16,18,Jits_Linear_8,3,5,56,103,1542060372
100,16,18,Jits_Linear_8,0,1,48,48,1542546980
100,16,18,Jits_Linear_8,1,5,56,103,1542550012
100,16,18,Jits_Linear_8,2,5,80,127,1542560208
100,16,18,Jits_Linear_8,3,5,63,98,1542600224
100,16,18,Jits_Linear_8,0,5,80,127,1543080264
100,16,18,Jits_Linear_8,1,1,48,45,1543111552
100,16,18,Jits_Linear_8,2,5,56,103,1543160228
100,16,18,Jits_Linear_8,3,5,63,98,1543170352
100,16,18,Jits_Linear_8,0,5,80,127,1543689596
100,16,18,Jits_Linear_8,1,1,48,45,1543742836
100,16,18,Jits_Linear_8,2,5,56,103,1543769312
100,16,18,Jits_Linear_8,3,5,63,98,1543779584
100,16,18,Jits_Linear_8,0,5,80,127,1544209896
100,16,18,Jits_Linear_8,1,5,56,103,1544260100
100,16,18,Jits_Linear_8,2,5,63,98,1544310076
100,16,18,Jits_Linear_8,3,1,48,45,1544339120
100,16,18,Jits_Linear_8,0,5,56,103,1544830356
100,16,18,Jits_Linear_8,1,5,63,98,1544833424
100,16,18,Jits_Linear_8,2,1,48,46,1544865236
100,16,18,Jits_Linear_8,3,5,80,127,1544879580
100,16,18,Jits_Linear_8,0,1,48,45,1545392352
100,16,18,Jits_Linear_8,1,5,56,103,1545410056
100,16,18,Jits_Linear_8,2,5,63,98,1545439808
100,16,18,Jits_Linear_8,3,5,80,127,1545450028
100,16,18,Jits_Linear_8,0,5,63,98,1545880076
100,16,18,Jits_Linear_8,1,1,48,48,1545940216
100,16,18,Jits_Linear_8,2,5,56,103,1545949456
100,16,18,Jits_Linear_8,3,5,80,127,1545999684
100,16,18,Jits_Linear_8,0,5,63,98,1546470284
100,16,18,Jits_Linear_8,1,1,48,42,1546478816
100,16,18,Jits_Linear_8,2,5,56,103,1546480328
100,16,18,Jits_Linear_8,3,5,80,127,1546483092
100,16,18,Jits_Linear_8,0,5,80,127,1546969328
100,16,18,Jits_Linear_8,1,1,48,42,1547017584
100,16,18,Jits_Linear_8,2,5,56,103,1547030112
100,16,18,Jits_Linear_8,3,5,63,98,1547120008
100,16,18,Jits_Linear_8,0,5,80,127,1547520440
100,16,18,Jits_Linear_8,1,1,48,44,1547597876
100,16,18,Jits_Linear_8,2,5,56,103,1547619636
100,16,18,Jits_Linear_8,3,5,63,98,1547659576
100,16,18,Jits_Linear_8,0,5,56,103,1548120376
100,16,18,Jits_Linear_8,1,5,63,98,1548140012
100,16,18,Jits_Linear_8,2,5,80,127,1548180100
100,16,18,Jits_Linear_8,3,1,48,43,1548182920
100,16,18,Jits_Linear_8,0,5,63,98,1548639548
100,16,18,Jits_Linear_8,1,5,56,103,1548660156
100,16,18,Jits_Linear_8,2,1,48,43,1548714144
100,16,18,Jits_Linear_8,3,5,80,127,1548760396
100,16,18,Jits_Linear_8,0,5,63,98,1549170164
100,16,18,Jits_Linear_8,1,1,48,38,1549220040
100,16,18,Jits_Linear_8,2,5,80,127,1549279552
100,16,18,Jits_Linear_8,3,5,56,103,1549311256
100,16,18,Jits_Linear_8,0,5,56,103,1549730232
100,16,18,Jits_Linear_8,1,5,63,98,1549759980
100,16,18,Jits_Linear_8,2,5,80,127,1549809988
100,16,18,Jits_Linear_8,3,1,48,40,1549838132
100,16,18,Jits_Linear_8,0,5,63,98,1550240180
100,16,18,Jits_Linear_8,1,5,56,103,1550269928
100,16,18,Jits_Linear_8,2,5,80,127,1550320008
100,16,18,Jits_Linear_8,3,1,48,44,1550351148
100,16,18,Jits_Linear_8,0,5,56,103,1550809384
100,16,18,Jits_Linear_8,1,5,63,98,1550830016
100,16,18,Jits_Linear_8,2,1,48,39,1550844816
100,16,18,Jits_Linear_8,3,5,80,127,1550909880
100,16,18,Jits_Linear_8,0,5,63,98,1551320532
100,16,18,Jits_Linear_8,1,5,56,103,1551379976
100,16,18,Jits_Linear_8,2,1,48,48,1551392840
100,16,18,Jits_Linear_8,3,5,80,127,1551409572
100,16,18,Jits_Linear_8,0,5,56,103,1551899952
100,16,18,Jits_Linear_8,1,1,48,43,1551926292
100,16,18,Jits_Linear_8,2,5,80,127,1551960340
100,16,18,Jits_Linear_8,3,5,63,98,1552000352
100,16,18,Jits_Linear_8,0,5,63,98,1552409836
100,16,18,Jits_Linear_8,1,5,56,103,1552470528
100,16,18,Jits_Linear_8,2,1,48,33,1552487504
100,16,18,Jits_Linear_8,3,5,80,127,1552540124
100,16,18,Jits_Linear_8,0,1,48,46,1553016464
100,16,18,Jits_Linear_8,1,5,56,103,1553020244
100,16,18,Jits_Linear_8,2,5,63,98,1553029464
100,16,18,Jits_Linear_8,3,5,80,127,1553032828
100,16,18,Jits_Linear_8,0,5,63,98,1553490252
100,16,18,Jits_Linear_8,1,5,56,103,1553550048
100,16,18,Jits_Linear_8,2,5,80,127,1553552956
100,16,18,Jits_Linear_8,3,1,48,39,1553558716
100,16,18,Jits_Linear_8,0,5,63,98,1554000108
100,16,18,Jits_Linear_8,1,5,80,127,1554029936
100,16,18,Jits_Linear_8,2,5,56,103,1554050392
100,16,18,Jits_Linear_8,3,1,48,43,1554059884
100,16,18,Jits_Linear_8,0,5,56,103,1554529600
100,16,18,Jits_Linear_8,1,1,48,34,1554578748
100,16,18,Jits_Linear_8,2,5,63,98,1554580244
100,16,18,Jits_Linear_8,3,5,80,127,1554659820
100,16,18,Jits_Linear_8,0,5,80,127,1555030344
100,16,18,Jits_Linear_8,1,5,63,98,1555070284
100,16,18,Jits_Linear_8,2,5,56,103,1555089920
100,16,18,Jits_Linear_8,3,1,48,39,1555141580
100,16,18,Jits_Linear_8,0,5,56,103,1555620240
100,16,18,Jits_Linear_8,1,5,80,127,1555629316
100,16,18,Jits_Linear_8,2,1,48,35,1555645240
100,16,18,Jits_Linear_8,3,5,63,98,1555649916
100,16,18,Jits_Linear_8,0,5,56,103,1556120012
100,16,18,Jits_Linear_8,1,1,48,34,1556168248
100,16,18,Jits_Linear_8,2,5,63,98,1556170060
100,16,18,Jits_Linear_8,3,5,80,127,1556199908
100,16,18,Jits_Linear_8,0,5,56,103,1556589816
100,16,18,Jits_Linear_8,1,5,63,98,1556600308
100,16,18,Jits_Linear_8,2,5,80,127,1556650360
100,16,18,Jits_Linear_8,3,1,48,34,1556698216
100,16,18,Jits_Linear_8,0,5,56,103,1557099836
100,16,18,Jits_Linear_8,1,5,80,127,1557102904
100,16,18,Jits_Linear_8,2,1,48,37,1557156812
100,16,18,Jits_Linear_8,3,5,63,98,1557259720
100,16,18,Jits_Linear_8,0,5,63,98,1557630384
100,16,18,Jits_Linear_8,1,5,56,103,1557699920
100,16,18,Jits_Linear_8,2,5,80,127,1557740104
100,16,18,Jits_Linear_8,3,1,48,40,1557743976
100,16,18,Jits_Linear_8,0,5,63,98,1558180116
100,16,18,Jits_Linear_8,1,1,48,38,1558260884
100,16,18,Jits_Linear_8,2,5,56,103,1558270188
100,16,18,Jits_Linear_8,3,5,80,127,1558273484
100,16,18,Jits_Linear_8,0,5,56,103,1558669752
100,16,18,Jits_Linear_8,1,5,63,98,1558759916
100,16,18,Jits_Linear_8,2,5,80,127,1558769888
100,16,18,Jits_Linear_8,3,1,48,48,1558795852
100,16,18,Jits_Linear_8,0,5,56,103,1559150044
100,16,18,Jits_Linear_8,1,5,63,98,1559200100
100,16,18,Jits_Linear_8,2,5,80,127,1559229848
100,16,18,Jits_Linear_8,3,1,48,42,1559269408
100,16,18,Jits_Linear_8,0,5,63,98,1559729604
100,16,18,Jits_Linear_8,1,5,80,127,1559740024
100,16,18,Jits_Linear_8,2,1,48,36,1559743144
100,16,18,Jits_Linear_8,3,5,56,103,1559800208
100,16,18,Jits_Linear_8,0,5,63,98,1560150392
100,16,18,Jits_Linear_8,1,5,80,127,1560209888
100,16,18,Jits_Linear_8,2,5,56,103,1560249900
100,16,18,Jits_Linear_8,3,1,48,49,1560278108
100,16,18,Jits_Linear_8,0,1,48,40,1560737460
100,16,18,Jits_Linear_8,1,5,56,103,1560749564
100,16,18,Jits_Linear_8,2,5,80,127,1560769872
100,16,18,Jits_Linear_8,3,5,63,98,1560790260
100,16,18,Jits_Linear_8,0,5,63,98,1561170360
100,16,18,Jits_Linear_8,1,5,56,103,1561189924
100,16,18,Jits_Linear_8,2,5,80,127,1561229712
100,16,18,Jits_Linear_8,3,1,48,36,1561249020
100,16,18,Jits_Linear_8,0,5,63,98,1561680448
100,16,18,Jits_Linear_8,1,1,48,44,1561681416
100,16,18,Jits_Linear_8,2,5,80,127,1561709972
100,16,18,Jits_Linear_8,3,5,56,103,1561730356
100,16,18,Jits_Linear_8,0,5,80,127,1562150304
100,16,18,Jits_Linear_8,1,5,56,103,1562200360
100,16,18,Jits_Linear_8,2,1,48,48,1562204824
100,16,18,Jits_Linear_8,3,5,63,98,1562259996
100,16,18,Jits_Linear_8,0,5,63,98,1562629996
100,16,18,Jits_Linear_8,1,1,48,48,1562727132
100,16,18,Jits_Linear_8,2,5,56,103,1562750248
100,16,18,Jits_Linear_8,3,5,80,127,1562779996
100,16,18,Jits_Linear_8,0,5,80,127,1563160024
100,16,18,Jits_Linear_8,1,5,63,98,1563180260
100,16,18,Jits_Linear_8,2,1,48,48,1563238824
100,16,18,Jits_Linear_8,3,5,56,103,1563250008
100,16,18,Jits_Linear_8,0,5,63,98,1563669832
100,16,18,Jits_Linear_8,1,5,56,103,1563680028
100,16,18,Jits_Linear_8,2,1,48,48,1563747884
100,16,18,Jits_Linear_8,3,5,80,127,1563760040
100,16,18,Jits_Linear_8,0,5,56,103,1564219640
100,16,18,Jits_Linear_8,1,1,48,47,1564239696
100,16,18,Jits_Linear_8,2,5,80,127,1564249536
100,16,18,Jits_Linear_8,3,5,63,98,1564259956
100,16,18,Jits_Linear_8,0,9999,9999,9999,1453857872
100,16,18,Jits_Linear_8,1,9999,9999,9999,1454678108
100,16,18,Jits_Linear_8,2,9999,9999,9999,1455507580
100,16,18,Jits_Linear_8,3,9999,9999,9999,1456327760
100,16,18,Jits_Linear_8,4,9999,9999,9999,1457148012
100,16,18,Jits_Linear_8,5,9999,9999,9999,1457958008
100,16,18,Jits_Linear_8,6,9999,9999,9999,1458767948
100,16,18,Jits_Linear_8,7,9999,9999,9999,1459577968
100,16,18,Jits_Linear_8,8,9999,9999,9999,1460387920
100,16,18,Jits_Linear_8,9,9999,9999,9999,1461197920
100,16,18,Jits_Linear_8,10,9999,9999,9999,1461997648
100,16,18,Jits_Linear_8,11,9999,9999,9999,1462797404
100,16,18,Jits_Linear_8,12,9999,9999,9999,1463597176
100,16,18,Jits_Linear_8,13,9999,9999,9999,1464397912
100,16,18,Jits_Linear_8,14,9999,9999,9999,1465197652
100,16,18,Jits_Linear_8,15,9999,9999,9999,1465987148
100,16,18,Jits_Linear_8,16,9999,9999,9999,1466777668
100,16,18,Jits_Linear_8,17,9999,9999,9999,1467567184
100,16,18,Jits_Linear_8,18,9999,9999,9999,1468357732
100,16,18,Jits_Linear_8,19,9999,9999,9999,1469147240
100,16,18,Jits_Linear_8,20,9999,9999,9999,1469927508
100,16,18,Jits_Linear_8,21,9999,9999,9999,1470707800
100,16,18,Jits_Linear_8,22,9999,9999,9999,1471488084
100,16,18,Jits_Linear_8,23,9999,9999,9999,1472277588
100,16,18,Jits_Linear_8,24,9999,9999,9999,1473057860
100,16,18,Jits_Linear_8,25,9999,9999,9999,1473827944
100,16,18,Jits_Linear_8,26,9999,9999,9999,1474597960
100,16,18,Jits_Linear_8,27,9999,9999,9999,1475368048
100,16,18,Jits_Linear_8,28,9999,9999,9999,1476138068
100,16,18,Jits_Linear_8,29,9999,9999,9999,1476907132
100,16,18,Jits_Linear_8,30,9999,9999,9999,1477667920
100,16,18,Jits_Linear_8,31,9999,9999,9999,1478427740
100,16,18,Jits_Linear_8,32,9999,9999,9999,1479187576
100,16,18,Jits_Linear_8,33,9999,9999,9999,1479947332
100,16,18,Jits_Linear_8,34,9999,9999,9999,1480707164
100,16,18,Jits_Linear_8,35,9999,9999,9999,1481457784
100,16,18,Jits_Linear_8,36,9999,9999,9999,1482207324
100,16,18,Jits_Linear_8,37,9999,9999,9999,1482957940
100,16,18,Jits_Linear_8,38,9999,9999,9999,1483707508
100,16,18,Jits_Linear_8,39,9999,9999,9999,1484458060
100,16,18,Jits_Linear_8,40,9999,9999,9999,1485197376
100,16,18,Jits_Linear_8,41,9999,9999,9999,1485937736
100,16,18,Jits_Linear_8,42,9999,9999,9999,1486678072
100,16,18,Jits_Linear_8,43,9999,9999,9999,1487427708
100,16,18,Jits_Linear_8,44,9999,9999,9999,1488168032
100,16,18,Jits_Linear_8,45,9999,9999,9999,1488897144
100,16,18,Jits_Linear_8,46,9999,9999,9999,1489627212
100,16,18,Jits_Linear_8,47,9999,9999,9999,1490357372
100,16,18,Jits_Linear_8,48,9999,9999,9999,1491087464
100,16,18,Jits_Linear_8,49,9999,9999,9999,1491817552
100,16,18,Jits_Linear_8,50,9999,9999,9999,1492537440
100,16,18,Jits_Linear_8,51,9999,9999,9999,1493257268
100,16,18,Jits_Linear_8,52,9999,9999,9999,1493977152
100,16,18,Jits_Linear_8,53,9999,9999,9999,1494698108
100,16,18,Jits_Linear_8,54,9999,9999,9999,1495417912
100,16,18,Jits_Linear_8,55,9999,9999,9999,1496127552
100,16,18,Jits_Linear_8,56,9999,9999,9999,1496837172
100,16,18,Jits_Linear_8,57,9999,9999,9999,1497547840
100,16,18,Jits_Linear_8,58,9999,9999,9999,1498257480
100,16,18,Jits_Linear_8,59,9999,9999,9999,1498967096
100,16,18,Jits_Linear_8,60,9999,9999,9999,1499667520
100,16,18,Jits_Linear_8,61,9999,9999,9999,1500367924
100,16,18,Jits_Linear_8,62,9999,9999,9999,1501067376
100,16,18,Jits_Linear_8,63,9999,9999,9999,1501767772
100,16,18,Jits_Linear_8,64,9999,9999,9999,1502467160
100,16,18,Jits_Linear_8,65,9999,9999,9999,1503157364
100,16,18,Jits_Linear_8,66,9999,9999,9999,1503847532
100,16,18,Jits_Linear_8,67,9999,9999,9999,1504537688
100,16,18,Jits_Linear_8,68,9999,9999,9999,1505227888
100,16,18,Jits_Linear_8,69,9999,9999,9999,1505918052
100,16,18,Jits_Linear_8,70,9999,9999,9999,1506597944
100,16,18,Jits_Linear_8,71,9999,9999,9999,1507277884
100,16,18,Jits_Linear_8,72,9999,9999,9999,1507957856
100,16,18,Jits_Linear_8,73,9999,9999,9999,1508637756
100,16,18,Jits_Linear_8,74,9999,9999,9999,1509317712
100,16,18,Jits_Linear_8,75,9999,9999,9999,1509987412
100,16,18,Jits_Linear_8,76,9999,9999,9999,1510657120
100,16,18,Jits_Linear_8,77,9999,9999,9999,1511327852
100,16,18,Jits_Linear_8,78,9999,9999,9999,1511997556
100,16,18,Jits_Linear_8,79,9999,9999,9999,1512667240
100,16,18,Jits_Linear_8,80,9999,9999,9999,1513327720
100,16,18,Jits_Linear_8,81,9999,9999,9999,1513987152
100,16,18,Jits_Linear_8,82,9999,9999,9999,1514647680
100,16,18,Jits_Linear_8,83,9999,9999,9999,1515307108
100,16,18,Jits_Linear_8,84,9999,9999,9999,1515967568
100,16,18,Jits_Linear_8,85,9999,9999,9999,1516617800
100,16,18,Jits_Linear_8,86,9999,9999,9999,1517268080
100,16,18,Jits_Linear_8,87,9999,9999,9999,1517917244
100,16,18,Jits_Linear_8,88,9999,9999,9999,1518567528
100,16,18,Jits_Linear_8,89,9999,9999,9999,1519217732
100,16,18,Jits_Linear_8,90,9999,9999,9999,1519857768
100,16,18,Jits_Linear_8,91,9999,9999,9999,1520497772
100,16,18,Jits_Linear_8,92,9999,9999,9999,1521137736
100,16,18,Jits_Linear_8,93,9999,9999,9999,1521777732
100,16,18,Jits_Linear_8,94,9999,9999,9999,1522417760
100,16,18,Jits_Linear_8,95,9999,9999,9999,1523047512
100,16,18,Jits_Linear_8,96,9999,9999,9999,1523677264
100,16,18,Jits_Linear_8,97,9999,9999,9999,1524308068
100,16,18,Jits_Linear_8,98,9999,9999,9999,1524937820
100,16,18,Jits_Linear_8,99,9999,9999,9999,1525567604
100,16,18,Jits_Linear_8,100,9999,9999,9999,1526187084
100,16,18,Jits_Linear_8,101,9999,9999,9999,1526807632
100,16,18,Jits_Linear_8,102,9999,9999,9999,1527427188
100,16,18,Jits_Linear_8,103,9999,9999,9999,1528047672
100,16,18,Jits_Linear_8,104,9999,9999,9999,1528667236
100,16,18,Jits_Linear_8,105,9999,9999,9999,1529277504
100,16,18,Jits_Linear_8,106,9999,9999,9999,1529887856
100,16,18,Jits_Linear_8,107,9999,9999,9999,1530497124
100,16,18,Jits_Linear_8,108,9999,9999,9999,1531107384
100,16,18,Jits_Linear_8,109,9999,9999,9999,1531717736
100,16,18,Jits_Linear_8,110,9999,9999,9999,1532317756
100,16,18,Jits_Linear_8,111,9999,9999,9999,1532917852
100,16,18,Jits_Linear_8,112,9999,9999,9999,1533517928
100,16,18,Jits_Linear_8,113,9999,9999,9999,1534118016
100,16,18,Jits_Linear_8,114,9999,9999,9999,1534718044
100,16,18,Jits_Linear_8,115,9999,9999,9999,1535307904
100,16,18,Jits_Linear_8,116,9999,9999,9999,1535897656
100,16,18,Jits_Linear_8,117,9999,9999,9999,1536487512
100,16,18,Jits_Linear_8,118,9999,9999,9999,1537077336
100,16,18,Jits_Linear_8,119,9999,9999,9999,1537667152
100,16,18,Jits_Linear_8,120,9999,9999,9999,1538247752
100,16,18,Jits_Linear_8,121,9999,9999,9999,1538827324
100,16,18,Jits_Linear_8,122,9999,9999,9999,1539407980
100,16,18,Jits_Linear_8,123,9999,9999,9999,1539987512
100,16,18,Jits_Linear_8,124,9999,9999,9999,1540567140
100,16,18,Jits_Linear_8,125,9999,9999,9999,1541137496
100,16,18,Jits_Linear_8,126,9999,9999,9999,1541707880
100,16,18,Jits_Linear_8,127,9999,9999,9999,1542277240
100,16,18,Jits_Linear_8,128,9999,9999,9999,1542847568
100,16,18,Jits_Linear_8,129,9999,9999,9999,1543417920
100,16,18,Jits_Linear_8,130,9999,9999,9999,1543978080
100,16,18,Jits_Linear_8,131,9999,9999,9999,1544537184
100,16,18,Jits_Linear_8,132,9999,9999,9999,1545097332
100,16,18,Jits_Linear_8,133,9999,9999,9999,1545657420
100,16,18,Jits_Linear_8,134,9999,9999,9999,1546217584
100,16,18,Jits_Linear_8,135,9999,9999,9999,1546767448
100,16,18,Jits_Linear_8,136,9999,9999,9999,1547317324
100,16,18,Jits_Linear_8,137,9999,9999,9999,1547867212
100,16,18,Jits_Linear_8,138,9999,9999,9999,1548417100
100,16,18,Jits_Linear_8,139,9999,9999,9999,1548968032
100,16,18,Jits_Linear_8,140,9999,9999,9999,1549507648
100,16,18,Jits_Linear_8,141,9999,9999,9999,1550047332
100,16,18,Jits_Linear_8,142,9999,9999,9999,1550588020
100,16,18,Jits_Linear_8,143,9999,9999,9999,1551127628
100,16,18,Jits_Linear_8,144,9999,9999,9999,1551667328
100,16,18,Jits_Linear_8,145,9999,9999,9999,1552197724
100,16,18,Jits_Linear_8,146,9999,9999,9999,1552727164
100,16,18,Jits_Linear_8,147,9999,9999,9999,1553257552
100,16,18,Jits_Linear_8,148,9999,9999,9999,1553788012
100,16,18,Jits_Linear_8,149,9999,9999,9999,1554317432
100,16,18,Jits_Linear_8,150,9999,9999,9999,1554837568
100,16,18,Jits_Linear_8,151,9999,9999,9999,1555357780
100,16,18,Jits_Linear_8,152,9999,9999,9999,1555878008
100,16,18,Jits_Linear_8,153,9999,9999,9999,1556397112
100,16,18,Jits_Linear_8,154,9999,9999,9999,1556917324
100,16,18,Jits_Linear_8,155,9999,9999,9999,1557427272
100,16,18,Jits_Linear_8,156,9999,9999,9999,1557937228
100,16,18,Jits_Linear_8,157,9999,9999,9999,1558447168
100,16,18,Jits_Linear_8,158,9999,9999,9999,1558957116
100,16,18,Jits_Linear_8,159,9999,9999,9999,1559467072
100,16,18,Jits_Linear_8,160,9999,9999,9999,1559967820
100,16,18,Jits_Linear_8,161,9999,9999,9999,1560467568
100,16,18,Jits_Linear_8,162,9999,9999,9999,1560967260
100,16,18,Jits_Linear_8,163,9999,9999,9999,1561467984
100,16,18,Jits_Linear_8,164,9999,9999,9999,1561967736
100,16,18,Jits_Linear_8,165,9999,9999,9999,1562457148
100,16,18,Jits_Linear_8,166,9999,9999,9999,1562947708
100,16,18,Jits_Linear_8,167,9999,9999,9999,1563437124
100,16,18,Jits_Linear_8,168,9999,9999,9999,1563927676
100,16,18,Jits_Linear_8,169,9999,9999,9999,1564417104
100,17,19,Jits_Linear_5,0,5,56,103,1572310452
100,17,19,Jits_Linear_5,1,5,63,98,1572313700
100,17,19,Jits_Linear_5,2,5,80,127,1572316820
100,17,19,Jits_Linear_5,0,5,56,103,1572789644
100,17,19,Jits_Linear_5,1,5,63,98,1572792892
100,17,19,Jits_Linear_5,2,5,80,127,1572796012
100,17,19,Jits_Linear_5,0,5,56,103,1573269828
100,17,19,Jits_Linear_5,1,5,80,127,1573280244
100,17,19,Jits_Linear_5,2,5,63,98,1573299512
100,17,19,Jits_Linear_5,0,5,63,98,1573699884
100,17,19,Jits_Linear_5,1,5,80,127,1573729560
100,17,19,Jits_Linear_5,2,5,56,103,1573739756
100,17,19,Jits_Linear_5,0,1,48,48,1574212976
100,17,19,Jits_Linear_5,1,5,80,127,1574239604
100,17,19,Jits_Linear_5,2,5,56,103,1574249876
100,17,19,Jits_Linear_5,3,5,63,98,1574279776
100,17,19,Jits_Linear_5,0,1,48,48,1574706672
100,17,19,Jits_Linear_5,1,5,63,98,1574719820
100,17,19,Jits_Linear_5,2,5,56,103,1574749644
100,17,19,Jits_Linear_5,3,5,80,127,1574759764
100,17,19,Jits_Linear_5,0,5,56,103,1575160324
100,17,19,Jits_Linear_5,1,1,48,45,1575168620
100,17,19,Jits_Linear_5,2,5,63,98,1575210520
100,17,19,Jits_Linear_5,3,5,80,127,1575229784
100,17,19,Jits_Linear_5,0,5,80,127,1575649736
100,17,19,Jits_Linear_5,1,1,48,46,1575661348
100,17,19,Jits_Linear_5,2,5,63,98,1575699736
100,17,19,Jits_Linear_5,3,5,56,103,1575739676
100,17,19,Jits_Linear_5,0,5,56,103,1576140072
100,17,19,Jits_Linear_5,1,5,63,98,1576169848
100,17,19,Jits_Linear_5,2,1,48,50,1576170816
100,17,19,Jits_Linear_5,3,5,80,127,1576239452
100,17,19,Jits_Linear_5,0,1,48,47,1576627616
100,17,19,Jits_Linear_5,1,5,56,103,1576629580
100,17,19,Jits_Linear_5,2,5,80,127,1576689928
100,17,19,Jits_Linear_5,3,5,63,98,1576719752
100,17,19,Jits_Linear_5,0,1,48,49,1577098228
100,17,19,Jits_Linear_5,1,5,56,103,1577139760
100,17,19,Jits_Linear_5,2,5,63,98,1577149884
100,17,19,Jits_Linear_5,3,5,80,127,1577189772
100,17,19,Jits_Linear_5,0,1,48,52,1577594308
100,17,19,Jits_Linear_5,1,5,63,98,1577629932
100,17,19,Jits_Linear_5,2,5,80,127,1577709888
100,17,19,Jits_Linear_5,3,5,56,103,1577720308
100,17,19,Jits_Linear_5,0,1,48,46,1578117540
100,17,19,Jits_Linear_5,1,5,63,98,1578179896
100,17,19,Jits_Linear_5,2,5,56,103,1578219844
100,17,19,Jits_Linear_5,3,5,80,127,1578222984
100,17,19,Jits_Linear_5,0,5,56,103,1578639648
100,17,19,Jits_Linear_5,1,5,63,98,1578649920
100,17,19,Jits_Linear_5,2,1,48,45,1578662480
100,17,19,Jits_Linear_5,3,5,80,127,1578689928
100,17,19,Jits_Linear_5,0,5,56,103,1579130124
100,17,19,Jits_Linear_5,1,5,63,98,1579133268
100,17,19,Jits_Linear_5,2,5,80,127,1579149692
100,17,19,Jits_Linear_5,3,1,48,46,1579154004
100,17,19,Jits_Linear_5,0,1,48,46,1579627772
100,17,19,Jits_Linear_5,1,5,80,127,1579650492
100,17,19,Jits_Linear_5,2,5,56,103,1579659716
100,17,19,Jits_Linear_5,3,5,63,98,1579730652
100,17,19,Jits_Linear_5,0,5,63,98,1580150108
100,17,19,Jits_Linear_5,1,1,48,45,1580159900
100,17,19,Jits_Linear_5,2,5,56,103,1580169516
100,17,19,Jits_Linear_5,3,5,80,127,1580249536
100,17,19,Jits_Linear_5,0,5,56,103,1580670476
100,17,19,Jits_Linear_5,1,1,48,45,1580671516
100,17,19,Jits_Linear_5,2,5,80,127,1580710408
100,17,19,Jits_Linear_5,3,5,63,98,1580719708
100,17,19,Jits_Linear_5,0,5,80,127,1581170032
100,17,19,Jits_Linear_5,1,5,63,98,1581199708
100,17,19,Jits_Linear_5,2,1,48,50,1581203272
100,17,19,Jits_Linear_5,3,5,56,103,1581239640
100,17,19,Jits_Linear_5,0,5,56,103,1581699552
100,17,19,Jits_Linear_5,1,5,63,98,1581730128
100,17,19,Jits_Linear_5,2,1,48,45,1581736088
100,17,19,Jits_Linear_5,3,5,80,127,1581780468
100,17,19,Jits_Linear_5,0,5,80,127,1582210492
100,17,19,Jits_Linear_5,1,1,48,47,1582232192
100,17,19,Jits_Linear_5,2,5,56,103,1582250500
100,17,19,Jits_Linear_5,3,5,63,98,1582259500
100,17,19,Jits_Linear_5,0,5,80,127,1582710192
100,17,19,Jits_Linear_5,1,1,48,50,1582732348
100,17,19,Jits_Linear_5,2,5,63,98,1582750204
100,17,19,Jits_Linear_5,3,5,56,103,1582809548
100,17,19,Jits_Linear_5,0,5,56,103,1583230424
100,17,19,Jits_Linear_5,1,5,80,127,1583239648
100,17,19,Jits_Linear_5,2,1,48,45,1583265384
100,17,19,Jits_Linear_5,3,5,63,98,1583320632
100,17,19,Jits_Linear_5,0,5,80,127,1583749456
100,17,19,Jits_Linear_5,1,1,48,47,1583783516
100,17,19,Jits_Linear_5,2,5,63,98,1583809920
100,17,19,Jits_Linear_5,3,5,56,103,1583839596
100,17,19,Jits_Linear_5,0,5,56,103,1584269540
100,17,19,Jits_Linear_5,1,1,48,51,1584290044
100,17,19,Jits_Linear_5,2,5,80,127,1584330000
100,17,19,Jits_Linear_5,3,5,63,98,1584370040
100,17,19,Jits_Linear_5,0,1,48,46,1584820908
100,17,19,Jits_Linear_5,1,5,56,103,1584850228
100,17,19,Jits_Linear_5,2,5,63,98,1584859600
100,17,19,Jits_Linear_5,3,5,80,127,1584862888
100,17,19,Jits_Linear_5,0,1,48,46,1585326200
100,17,19,Jits_Linear_5,1,5,80,127,1585329380
100,17,19,Jits_Linear_5,2,5,63,98,1585419692
100,17,19,Jits_Linear_5,3,5,56,103,1585429948
100,17,19,Jits_Linear_5,0,5,56,103,1585860004
100,17,19,Jits_Linear_5,1,5,63,98,1585863328
100,17,19,Jits_Linear_5,2,5,80,127,1585866372
100,17,19,Jits_Linear_5,3,1,48,45,1585895448
100,17,19,Jits_Linear_5,0,1,48,44,1586348504
100,17,19,Jits_Linear_5,1,5,80,127,1586409912
100,17,19,Jits_Linear_5,2,5,63,98,1586459952
100,17,19,Jits_Linear_5,3,5,56,103,1586489852
100,17,19,Jits_Linear_5,0,1,48,41,1586904600
100,17,19,Jits_Linear_5,1,5,56,103,1586919716
100,17,19,Jits_Linear_5,2,5,80,127,1586930508
100,17,19,Jits_Linear_5,3,5,63,98,1586999524
100,17,19,Jits_Linear_5,0,1,48,36,1587449352
100,17,19,Jits_Linear_5,1,5,56,103,1587459340
100,17,19,Jits_Linear_5,2,5,63,98,1587479948
100,17,19,Jits_Linear_5,3,5,80,127,1587540340
100,17,19,Jits_Linear_5,0,1,48,47,1587978856
100,17,19,Jits_Linear_5,1,5,80,127,1587989892
100,17,19,Jits_Linear_5,2,5,63,98,1588059428
100,17,19,Jits_Linear_5,3,5,56,103,1588079948
100,17,19,Jits_Linear_5,0,1,48,47,1588543416
100,17,19,Jits_Linear_5,1,5,80,127,1588550116
100,17,19,Jits_Linear_5,2,5,56,103,1588560464
100,17,19,Jits_Linear_5,3,5,63,98,1588569392
100,17,19,Jits_Linear_5,0,1,48,43,1589066624
100,17,19,Jits_Linear_5,1,5,80,127,1589080372
100,17,19,Jits_Linear_5,2,5,56,103,1589099932
100,17,19,Jits_Linear_5,3,5,63,98,1589169600
100,17,19,Jits_Linear_5,0,1,48,41,1589577096
100,17,19,Jits_Linear_5,1,5,56,103,1589630476
100,17,19,Jits_Linear_5,2,5,80,127,1589660008
100,17,19,Jits_Linear_5,3,5,63,98,1589679628
100,17,19,Jits_Linear_5,0,1,48,48,1590158092
100,17,19,Jits_Linear_5,1,5,63,98,1590170100
100,17,19,Jits_Linear_5,2,5,56,103,1590230272
100,17,19,Jits_Linear_5,3,5,80,127,1590259960
100,17,19,Jits_Linear_5,0,5,63,98,1590709804
100,17,19,Jits_Linear_5,1,5,80,127,1590713092
100,17,19,Jits_Linear_5,2,1,48,52,1590719748
100,17,19,Jits_Linear_5,3,5,56,103,1590799584
100,17,19,Jits_Linear_5,0,5,56,103,1591279936
100,17,19,Jits_Linear_5,1,5,63,98,1591309688
100,17,19,Jits_Linear_5,2,1,48,49,1591310728
100,17,19,Jits_Linear_5,3,5,80,127,1591349548
100,17,19,Jits_Linear_5,0,5,63,98,1591829916
100,17,19,Jits_Linear_5,1,5,56,103,1591869780
100,17,19,Jits_Linear_5,2,1,48,36,1591877236
100,17,19,Jits_Linear_5,3,5,80,127,1591890680
100,17,19,Jits_Linear_5,0,1,48,56,1592386204
100,17,19,Jits_Linear_5,1,5,63,98,1592389912
100,17,19,Jits_Linear_5,2,5,56,103,1592429852
100,17,19,Jits_Linear_5,3,5,80,127,1592440420
100,17,19,Jits_Linear_5,0,1,48,44,1592856520
100,17,19,Jits_Linear_5,1,5,80,127,1592920316
100,17,19,Jits_Linear_5,2,5,63,98,1592990212
100,17,19,Jits_Linear_5,3,5,56,103,1593009476
100,17,19,Jits_Linear_5,0,5,56,103,1593470284
100,17,19,Jits_Linear_5,1,5,80,127,1593489772
100,17,19,Jits_Linear_5,2,1,48,50,1593527744
100,17,19,Jits_Linear_5,3,5,63,98,1593529632
100,17,19,Jits_Linear_5,0,5,63,98,1594039664
100,17,19,Jits_Linear_5,1,1,48,46,1594058456
100,17,19,Jits_Linear_5,2,5,80,127,1594060120
100,17,19,Jits_Linear_5,3,5,56,103,1594100008
100,17,19,Jits_Linear_5,0,1,48,54,1594598704
100,17,19,Jits_Linear_5,1,5,63,98,1594600128
100,17,19,Jits_Linear_5,2,5,56,103,1594620440
100,17,19,Jits_Linear_5,3,5,80,127,1594629516
100,17,19,Jits_Linear_5,0,1,48,46,1595133644
100,17,19,Jits_Linear_5,1,5,80,127,1595159900
100,17,19,Jits_Linear_5,2,5,56,103,1595180436
100,17,19,Jits_Linear_5,3,5,63,98,1595210040
100,17,19,Jits_Linear_5,0,1,48,54,1595679568
100,17,19,Jits_Linear_5,1,5,56,103,1595799980
100,17,19,Jits_Linear_5,2,5,80,127,1595803120
100,17,19,Jits_Linear_5,3,5,63,98,1595820364
100,17,19,Jits_Linear_5,0,5,63,98,1596299612
100,17,19,Jits_Linear_5,1,1,48,53,1596307908
100,17,19,Jits_Linear_5,2,5,56,103,1596330476
100,17,19,Jits_Linear_5,3,5,80,127,1596389772
100,17,19,Jits_Linear_5,0,1,48,47,1596863544
100,17,19,Jits_Linear_5,1,5,63,98,1596949912
100,17,19,Jits_Linear_5,2,5,56,103,1596960388
100,17,19,Jits_Linear_5,3,5,80,127,1596970436
100,17,19,Jits_Linear_5,0,5,56,103,1597470140
100,17,19,Jits_Linear_5,1,5,80,127,1597499816
100,17,19,Jits_Linear_5,2,5,63,98,1597510160
100,17,19,Jits_Linear_5,3,1,48,50,1597519504
100,17,19,Jits_Linear_5,0,5,63,98,1598080352
100,17,19,Jits_Linear_5,1,5,56,103,1598089580
100,17,19,Jits_Linear_5,2,1,48,44,1598097332
100,17,19,Jits_Linear_5,3,5,80,127,1598110180
100,17,19,Jits_Linear_5,0,5,56,103,1598580488
100,17,19,Jits_Linear_5,1,5,63,98,1598639536
100,17,19,Jits_Linear_5,2,5,80,127,1598642824
100,17,19,Jits_Linear_5,3,1,48,46,1598691528
100,17,19,Jits_Linear_5,0,5,80,127,1599180200
100,17,19,Jits_Linear_5,1,5,56,103,1599190620
100,17,19,Jits_Linear_5,2,1,48,46,1599250784
100,17,19,Jits_Linear_5,3,5,63,98,1599260248
100,17,19,Jits_Linear_5,0,5,80,127,1599749460
100,17,19,Jits_Linear_5,1,1,48,41,1599804196
100,17,19,Jits_Linear_5,2,5,56,103,1599820260
100,17,19,Jits_Linear_5,3,5,63,98,1599830532
100,17,19,Jits_Linear_5,0,5,63,98,1600370164
100,17,19,Jits_Linear_5,1,1,48,49,1600371128
100,17,19,Jits_Linear_5,2,5,56,103,1600380204
100,17,19,Jits_Linear_5,3,5,80,127,1600399692
100,17,19,Jits_Linear_5,0,5,80,127,1600899372
100,17,19,Jits_Linear_5,1,1,48,46,1600943172
100,17,19,Jits_Linear_5,2,5,63,98,1600959756
100,17,19,Jits_Linear_5,3,5,56,103,1600999648
100,17,19,Jits_Linear_5,0,5,56,103,1601530284
100,17,19,Jits_Linear_5,1,5,63,98,1601539360
100,17,19,Jits_Linear_5,2,1,48,54,1601545548
100,17,19,Jits_Linear_5,3,5,80,127,1601580340
100,17,19,Jits_Linear_5,0,5,56,103,1602090296
100,17,19,Jits_Linear_5,1,5,80,127,1602119976
100,17,19,Jits_Linear_5,2,1,48,48,1602129020
100,17,19,Jits_Linear_5,3,5,63,98,1602170172
100,17,19,Jits_Linear_5,0,5,56,103,1602720284
100,17,19,Jits_Linear_5,1,1,48,46,1602728956
100,17,19,Jits_Linear_5,2,5,63,98,1602760144
100,17,19,Jits_Linear_5,3,5,80,127,1602763356
100,17,19,Jits_Linear_5,0,5,56,103,1603310060
100,17,19,Jits_Linear_5,1,1,48,52,1603317988
100,17,19,Jits_Linear_5,2,5,63,98,1603320100
100,17,19,Jits_Linear_5,3,5,80,127,1603339812
100,17,19,Jits_Linear_5,0,5,56,103,1603859728
100,17,19,Jits_Linear_5,1,5,80,127,1603863096
100,17,19,Jits_Linear_5,2,1,48,48,1603870872
100,17,19,Jits_Linear_5,3,5,63,98,1603899740
100,17,19,Jits_Linear_5,0,1,48,54,1604416620
100,17,19,Jits_Linear_5,1,5,63,98,1604489708
100,17,19,Jits_Linear_5,2,5,56,103,1604520340
100,17,19,Jits_Linear_5,3,5,80,127,1604539752
100,17,19,Jits_Linear_5,0,1,48,48,1605018816
100,17,19,Jits_Linear_5,1,5,80,127,1605059896
100,17,19,Jits_Linear_5,2,5,56,103,1605070164
100,17,19,Jits_Linear_5,3,5,63,98,1605080288
100,17,19,Jits_Linear_5,0,1,48,50,1605604216
100,17,19,Jits_Linear_5,1,5,56,103,1605660216
100,17,19,Jits_Linear_5,2,5,80,127,1605700144
100,17,19,Jits_Linear_5,3,5,63,98,1605729596
100,17,19,Jits_Linear_5,0,1,48,48,1606228212
100,17,19,Jits_Linear_5,1,5,63,98,1606270340
100,17,19,Jits_Linear_5,2,5,80,127,1606279416
100,17,19,Jits_Linear_5,3,5,56,103,1606289684
100,17,19,Jits_Linear_5,0,1,48,48,1606816816
100,17,19,Jits_Linear_5,1,5,56,103,1606850188
100,17,19,Jits_Linear_5,2,5,63,98,1606919512
100,17,19,Jits_Linear_5,3,5,80,127,1606929708
100,17,19,Jits_Linear_5,0,1,48,50,1607443072
100,17,19,Jits_Linear_5,1,5,80,127,1607460188
100,17,19,Jits_Linear_5,2,5,56,103,1607469412
100,17,19,Jits_Linear_5,3,5,63,98,1607519612
100,17,19,Jits_Linear_5,0,5,80,127,1608079676
100,17,19,Jits_Linear_5,1,1,48,49,1608086908
100,17,19,Jits_Linear_5,2,5,56,103,1608140360
100,17,19,Jits_Linear_5,3,5,63,98,1608170136
100,17,19,Jits_Linear_5,0,1,48,48,1608685448
100,17,19,Jits_Linear_5,1,5,56,103,1608700240
100,17,19,Jits_Linear_5,2,5,80,127,1608703380
100,17,19,Jits_Linear_5,3,5,63,98,1608740180
100,17,19,Jits_Linear_5,0,1,48,43,1609298716
100,17,19,Jits_Linear_5,1,5,56,103,1609340248
100,17,19,Jits_Linear_5,2,5,63,98,1609370072
100,17,19,Jits_Linear_5,3,5,80,127,1609380268
100,17,19,Jits_Linear_5,0,1,48,43,1609955832
100,17,19,Jits_Linear_5,1,5,63,98,1609959688
100,17,19,Jits_Linear_5,2,5,80,127,1609970180
100,17,19,Jits_Linear_5,3,5,56,103,1609980304
100,17,19,Jits_Linear_5,0,5,80,127,1610520136
100,17,19,Jits_Linear_5,1,1,48,43,1610565432
100,17,19,Jits_Linear_5,2,5,56,103,1610570036
100,17,19,Jits_Linear_5,3,5,63,98,1610573100
100,17,19,Jits_Linear_5,0,1,48,49,1611148440
100,17,19,Jits_Linear_5,1,5,56,103,1611170188
100,17,19,Jits_Linear_5,2,5,80,127,1611189528
100,17,19,Jits_Linear_5,3,5,63,98,1611200020
100,17,19,Jits_Linear_5,0,1,48,45,1611726252
100,17,19,Jits_Linear_5,1,5,63,98,1611770216
100,17,19,Jits_Linear_5,2,5,56,103,1611800120
100,17,19,Jits_Linear_5,3,5,80,127,1611820488
100,17,19,Jits_Linear_5,0,1,48,47,1612360008
100,17,19,Jits_Linear_5,1,5,56,103,1612410304
100,17,19,Jits_Linear_5,2,5,80,127,1612419308
100,17,19,Jits_Linear_5,3,5,63,98,1612490316
100,17,19,Jits_Linear_5,0,1,48,46,1613005932
100,17,19,Jits_Linear_5,1,5,63,98,1613019600
100,17,19,Jits_Linear_5,2,5,80,127,1613059568
100,17,19,Jits_Linear_5,3,5,56,103,1613100256
100,17,19,Jits_Linear_5,0,5,56,103,1613659424
100,17,19,Jits_Linear_5,1,5,63,98,1613669696
100,17,19,Jits_Linear_5,2,5,80,127,1613690152
100,17,19,Jits_Linear_5,3,1,48,42,1613715440
100,17,19,Jits_Linear_5,0,1,48,47,1614299424
100,17,19,Jits_Linear_5,1,5,63,98,1614330188
100,17,19,Jits_Linear_5,2,5,80,127,1614349676
100,17,19,Jits_Linear_5,3,5,56,103,1614370208
100,17,19,Jits_Linear_5,0,5,56,103,1614899560
100,17,19,Jits_Linear_5,1,1,48,40,1614930924
100,17,19,Jits_Linear_5,2,5,80,127,1614979428
100,17,19,Jits_Linear_5,3,5,63,98,1614989996
100,17,19,Jits_Linear_5,0,1,48,48,1615547580
100,17,19,Jits_Linear_5,1,5,80,127,1615570224
100,17,19,Jits_Linear_5,2,5,63,98,1615579448
100,17,19,Jits_Linear_5,3,5,56,103,1615610196
100,17,19,Jits_Linear_5,0,5,63,98,1616160072
100,17,19,Jits_Linear_5,1,1,48,47,1616187084
100,17,19,Jits_Linear_5,2,5,80,127,1616199932
100,17,19,Jits_Linear_5,3,5,56,103,1616259424
100,17,19,Jits_Linear_5,0,5,63,98,1616800160
100,17,19,Jits_Linear_5,1,1,48,50,1616835268
100,17,19,Jits_Linear_5,2,5,56,103,1616850284
100,17,19,Jits_Linear_5,3,5,80,127,1616879912
100,17,19,Jits_Linear_5,0,5,80,127,1617450316
100,17,19,Jits_Linear_5,1,5,63,98,1617459612
100,17,19,Jits_Linear_5,2,1,48,52,1617475840
100,17,19,Jits_Linear_5,3,5,56,103,1617530188
100,17,19,Jits_Linear_5,0,1,48,46,1618112336
100,17,19,Jits_Linear_5,1,5,80,127,1618159896
100,17,19,Jits_Linear_5,2,5,56,103,1618170084
100,17,19,Jits_Linear_5,3,5,63,98,1618173232
100,17,19,Jits_Linear_5,0,5,56,103,1618739448
100,17,19,Jits_Linear_5,1,1,48,50,1618756124
100,17,19,Jits_Linear_5,2,5,80,127,1618759904
100,17,19,Jits_Linear_5,3,5,63,98,1618770248
100,17,19,Jits_Linear_5,0,1,48,45,1619339060
100,17,19,Jits_Linear_5,1,5,63,98,1619389808
100,17,19,Jits_Linear_5,2,5,56,103,1619429924
100,17,19,Jits_Linear_5,3,5,80,127,1619450220
100,17,19,Jits_Linear_5,0,1,48,46,1619984564
100,17,19,Jits_Linear_5,1,5,63,98,1620040116
100,17,19,Jits_Linear_5,2,5,56,103,1620099444
100,17,19,Jits_Linear_5,3,5,80,127,1620102660
100,17,19,Jits_Linear_5,0,5,56,103,1620650312
100,17,19,Jits_Linear_5,1,5,80,127,1620670096
100,17,19,Jits_Linear_5,2,1,48,43,1620694344
100,17,19,Jits_Linear_5,3,5,63,98,1620709684
100,17,19,Jits_Linear_5,0,1,48,45,1621277356
100,17,19,Jits_Linear_5,1,5,56,103,1621330144
100,17,19,Jits_Linear_5,2,5,63,98,1621349856
100,17,19,Jits_Linear_5,3,5,80,127,1621360124
100,17,19,Jits_Linear_5,0,1,48,43,1621890036
100,17,19,Jits_Linear_5,1,5,80,127,1621949852
100,17,19,Jits_Linear_5,2,5,56,103,1621979456
100,17,19,Jits_Linear_5,3,5,63,98,1622019404
100,17,19,Jits_Linear_5,0,1,48,40,1622580724
100,17,19,Jits_Linear_5,1,5,80,127,1622610192
100,17,19,Jits_Linear_5,2,5,56,103,1622629980
100,17,19,Jits_Linear_5,3,5,63,98,1622690208
100,17,19,Jits_Linear_5,0,1,48,40,1623262988
100,17,19,Jits_Linear_5,1,5,56,103,1623269860
100,17,19,Jits_Linear_5,2,5,80,127,1623290320
100,17,19,Jits_Linear_5,3,5,63,98,1623349740
100,17,19,Jits_Linear_5,0,5,80,127,1623909880
100,17,19,Jits_Linear_5,1,5,56,103,1623919856
100,17,19,Jits_Linear_5,2,1,48,43,1623943120
100,17,19,Jits_Linear_5,3,5,63,98,1623960008
100,17,19,Jits_Linear_5,0,5,63,98,1624570152
100,17,19,Jits_Linear_5,1,1,48,39,1624604064
100,17,19,Jits_Linear_5,2,5,56,103,1624610084
100,17,19,Jits_Linear_5,3,5,80,127,1624613152
100,17,19,Jits_Linear_5,0,1,48,40,1625221584
100,17,19,Jits_Linear_5,1,5,63,98,1625250156
100,17,19,Jits_Linear_5,2,5,80,127,1625289948
100,17,19,Jits_Linear_5,3,5,56,103,1625319932
100,17,19,Jits_Linear_5,0,1,48,44,1625874660
100,17,19,Jits_Linear_5,1,5,56,103,1625900464
100,17,19,Jits_Linear_5,2,5,63,98,1625909836
100,17,19,Jits_Linear_5,3,5,80,127,1625940260
100,17,19,Jits_Linear_5,0,1,48,44,1626494884
100,17,19,Jits_Linear_5,1,5,80,127,1626560100
100,17,19,Jits_Linear_5,2,5,63,98,1626629428
100,17,19,Jits_Linear_5,3,5,56,103,1626639920
100,17,19,Jits_Linear_5,0,5,63,98,1627229668
100,17,19,Jits_Linear_5,1,1,48,43,1627276316
100,17,19,Jits_Linear_5,2,5,56,103,1627300096
100,17,19,Jits_Linear_5,3,5,80,127,1627309544
100,17,19,Jits_Linear_5,0,5,63,98,1627900272
100,17,19,Jits_Linear_5,1,5,56,103,1627919832
100,17,19,Jits_Linear_5,2,1,48,48,1627956132
100,17,19,Jits_Linear_5,3,5,80,127,1627959764
100,17,19,Jits_Linear_5,0,5,56,103,1628580140
100,17,19,Jits_Linear_5,1,5,63,98,1628589440
100,17,19,Jits_Linear_5,2,1,48,39,1628599384
100,17,19,Jits_Linear_5,3,5,80,127,1628670224
100,17,19,Jits_Linear_5,0,5,63,98,1629239672
100,17,19,Jits_Linear_5,1,1,48,40,1629257936
100,17,19,Jits_Linear_5,2,5,56,103,1629270316
100,17,19,Jits_Linear_5,3,5,80,127,1629310256
100,17,19,Jits_Linear_5,0,1,48,45,1629894332
100,17,19,Jits_Linear_5,1,5,56,103,1629910248
100,17,19,Jits_Linear_5,2,5,63,98,1629950212
100,17,19,Jits_Linear_5,3,5,80,127,1629990212
100,17,19,Jits_Linear_5,0,1,48,44,1630540968
100,17,19,Jits_Linear_5,1,5,80,127,1630590296
100,17,19,Jits_Linear_5,2,5,56,103,1630670228
100,17,19,Jits_Linear_5,3,5,63,98,1630680500
100,17,19,Jits_Linear_5,0,1,48,47,1631299916
100,17,19,Jits_Linear_5,1,5,56,103,1631310200
100,17,19,Jits_Linear_5,2,5,63,98,1631313264
100,17,19,Jits_Linear_5,3,5,80,127,1631320320
100,17,19,Jits_Linear_5,0,1,48,47,1631990732
100,17,19,Jits_Linear_5,1,5,56,103,1632009868
100,17,19,Jits_Linear_5,2,5,63,98,1632030028
100,17,19,Jits_Linear_5,3,5,80,127,1632040224
100,17,19,Jits_Linear_5,0,5,63,98,1632649740
100,17,19,Jits_Linear_5,1,5,80,127,1632659788
100,17,19,Jits_Linear_5,2,1,48,46,1632672124
100,17,19,Jits_Linear_5,3,5,56,103,1632680316
100,17,19,Jits_Linear_5,0,1,48,46,1633323084
100,17,19,Jits_Linear_5,1,5,63,98,1633339748
100,17,19,Jits_Linear_5,2,5,56,103,1633419676
100,17,19,Jits_Linear_5,3,5,80,127,1633422744
100,17,19,Jits_Linear_5,0,5,63,98,1634029908
100,17,19,Jits_Linear_5,1,1,48,42,1634034972
100,17,19,Jits_Linear_5,2,5,56,103,1634050584
100,17,19,Jits_Linear_5,3,5,80,127,1634080036
100,17,19,Jits_Linear_5,0,1,48,43,1634707188
100,17,19,Jits_Linear_5,1,5,56,103,1634720112
100,17,19,Jits_Linear_5,2,5,63,98,1634739672
100,17,19,Jits_Linear_5,3,5,80,127,1634749796
100,17,19,Jits_Linear_5,0,1,48,47,1635416312
100,17,19,Jits_Linear_5,1,5,56,103,1635439944
100,17,19,Jits_Linear_5,2,5,63,98,1635469768
100,17,19,Jits_Linear_5,3,5,80,127,1635473056
100,17,19,Jits_Linear_5,0,5,56,103,1636079908
100,17,19,Jits_Linear_5,1,1,48,48,1636093588
100,17,19,Jits_Linear_5,2,5,63,98,1636119992
100,17,19,Jits_Linear_5,3,5,80,127,1636180532
100,17,19,Jits_Linear_5,0,1,48,45,1636749356
100,17,19,Jits_Linear_5,1,5,56,103,1636789612
100,17,19,Jits_Linear_5,2,5,63,98,1636799812
100,17,19,Jits_Linear_5,3,5,80,127,1636860288
100,17,19,Jits_Linear_5,0,1,48,47,1637425572
100,17,19,Jits_Linear_5,1,5,56,103,1637489892
100,17,19,Jits_Linear_5,2,5,80,127,1637509676
100,17,19,Jits_Linear_5,3,5,63,98,1637540160
100,17,19,Jits_Linear_5,0,1,48,44,1638125544
100,17,19,Jits_Linear_5,1,5,80,127,1638189492
100,17,19,Jits_Linear_5,2,5,56,103,1638199912
100,17,19,Jits_Linear_5,3,5,63,98,1638220136
100,17,19,Jits_Linear_5,0,1,48,44,1638847296
100,17,19,Jits_Linear_5,1,5,63,98,1638879704
100,17,19,Jits_Linear_5,2,5,80,127,1638959660
100,17,19,Jits_Linear_5,3,5,56,103,1638969708
100,17,19,Jits_Linear_5,0,1,48,43,1639562716
100,17,19,Jits_Linear_5,1,5,80,127,1639640516
100,17,19,Jits_Linear_5,2,5,56,103,1639659796
100,17,19,Jits_Linear_5,3,5,63,98,1639663828
100,17,19,Jits_Linear_5,0,1,48,46,1640296552
100,17,19,Jits_Linear_5,1,5,63,98,1640320480
100,17,19,Jits_Linear_5,2,5,80,127,1640323768
100,17,19,Jits_Linear_5,3,5,56,103,1640379676
100,17,19,Jits_Linear_5,0,5,56,103,1641009740
100,17,19,Jits_Linear_5,1,5,80,127,1641019788
100,17,19,Jits_Linear_5,2,5,63,98,1641059728
100,17,19,Jits_Linear_5,3,1,48,44,1641067256
100,17,19,Jits_Linear_5,0,5,56,103,1641699688
100,17,19,Jits_Linear_5,1,5,63,98,1641760156
100,17,19,Jits_Linear_5,2,1,48,46,1641761640
100,17,19,Jits_Linear_5,3,5,80,127,1641770568
100,17,19,Jits_Linear_5,0,5,63,98,1642419576
100,17,19,Jits_Linear_5,1,5,80,127,1642459816
100,17,19,Jits_Linear_5,2,1,48,42,1642465204
100,17,19,Jits_Linear_5,3,5,56,103,1642499552
100,17,19,Jits_Linear_5,0,1,48,46,1643130488
100,17,19,Jits_Linear_5,1,5,56,103,1643131824
100,17,19,Jits_Linear_5,2,5,63,98,1643209976
100,17,19,Jits_Linear_5,3,5,80,127,1643213420
100,17,19,Jits_Linear_5,0,1,48,44,1643799264
100,17,19,Jits_Linear_5,1,5,80,127,1643900492
100,17,19,Jits_Linear_5,2,5,56,103,1643930020
100,17,19,Jits_Linear_5,3,5,63,98,1643932940
100,17,19,Jits_Linear_5,0,1,48,42,1644543136
100,17,19,Jits_Linear_5,1,5,56,103,1644580472
100,17,19,Jits_Linear_5,2,5,80,127,1644599736
100,17,19,Jits_Linear_5,3,5,63,98,1644639604
100,17,19,Jits_Linear_5,0,1,48,33,1645260920
100,17,19,Jits_Linear_5,1,5,80,127,1645279828
100,17,19,Jits_Linear_5,2,5,63,98,1645300016
100,17,19,Jits_Linear_5,3,5,56,103,1645359640
100,17,19,Jits_Linear_5,0,1,48,47,1645999708
100,17,19,Jits_Linear_5,1,5,63,98,1646009696
100,17,19,Jits_Linear_5,2,5,56,103,1646019892
100,17,19,Jits_Linear_5,3,5,80,127,1646070120
100,17,19,Jits_Linear_5,0,1,48,49,1646712864
100,17,19,Jits_Linear_5,1,5,56,103,1646720528
100,17,19,Jits_Linear_5,2,5,63,98,1646739720
100,17,19,Jits_Linear_5,3,5,80,127,1646749916
100,17,19,Jits_Linear_5,0,1,48,48,1647402864
100,17,19,Jits_Linear_5,1,5,56,103,1647440280
100,17,19,Jits_Linear_5,2,5,63,98,1647443568
100,17,19,Jits_Linear_5,3,5,80,127,1647459692
100,17,19,Jits_Linear_5,0,1,48,48,1648105596
100,17,19,Jits_Linear_5,1,5,63,98,1648210428
100,17,19,Jits_Linear_5,2,5,56,103,1648239960
100,17,19,Jits_Linear_5,3,5,80,127,1648269708
100,17,19,Jits_Linear_5,0,5,80,127,1648899716
100,17,19,Jits_Linear_5,1,1,48,46,1648979932
100,17,19,Jits_Linear_5,2,5,56,103,1648989624
100,17,19,Jits_Linear_5,3,5,63,98,1648992688
100,17,19,Jits_Linear_5,0,5,56,103,1649629488
100,17,19,Jits_Linear_5,1,5,80,127,1649632800
100,17,19,Jits_Linear_5,2,5,63,98,1649709608
100,17,19,Jits_Linear_5,3,1,48,48,1649729508
100,17,19,Jits_Linear_5,0,5,80,127,1650359660
100,17,19,Jits_Linear_5,1,5,63,98,1650420076
100,17,19,Jits_Linear_5,2,1,48,46,1650420968
100,17,19,Jits_Linear_5,3,5,56,103,1650449896
100,17,19,Jits_Linear_5,0,5,63,98,1651089916
100,17,19,Jits_Linear_5,1,5,80,127,1651100112
100,17,19,Jits_Linear_5,2,1,48,46,1651114912
100,17,19,Jits_Linear_5,3,5,56,103,1651169736
100,17,19,Jits_Linear_5,0,1,48,50,1651829344
100,17,19,Jits_Linear_5,1,5,56,103,1651840456
100,17,19,Jits_Linear_5,2,5,80,127,1651870280
100,17,19,Jits_Linear_5,3,5,63,98,1651920408
100,17,19,Jits_Linear_5,0,1,48,48,1652552312
100,17,19,Jits_Linear_5,1,5,63,98,1652619772
100,17,19,Jits_Linear_5,2,5,56,103,1652650480
100,17,19,Jits_Linear_5,3,5,80,127,1652653472
100,17,19,Jits_Linear_5,0,1,48,45,1653311468
100,17,19,Jits_Linear_5,1,5,63,98,1653359972
100,17,19,Jits_Linear_5,2,5,80,127,1653379464
100,17,19,Jits_Linear_5,3,5,56,103,1653389660
100,17,19,Jits_Linear_5,0,1,48,42,1654064488
100,17,19,Jits_Linear_5,1,5,56,103,1654109548
100,17,19,Jits_Linear_5,2,5,63,98,1654112760
100,17,19,Jits_Linear_5,3,5,80,127,1654130004
100,17,19,Jits_Linear_5,0,1,48,43,1654802216
100,17,19,Jits_Linear_5,1,5,56,103,1654810036
100,17,19,Jits_Linear_5,2,5,63,98,1654820456
100,17,19,Jits_Linear_5,3,5,80,127,1654849908
100,17,19,Jits_Linear_5,0,1,48,47,1655526604
100,17,19,Jits_Linear_5,1,5,63,98,1655579984
100,17,19,Jits_Linear_5,2,5,80,127,1655599620
100,17,19,Jits_Linear_5,3,5,56,103,1655640592
100,17,19,Jits_Linear_5,0,1,48,46,1656308112
100,17,19,Jits_Linear_5,1,5,56,103,1656360500
100,17,19,Jits_Linear_5,2,5,63,98,1656400364
100,17,19,Jits_Linear_5,3,5,80,127,1656403800
100,17,19,Jits_Linear_5,0,5,80,127,1657049664
100,17,19,Jits_Linear_5,1,1,48,48,1657061504
100,17,19,Jits_Linear_5,2,5,56,103,1657090296
100,17,19,Jits_Linear_5,3,5,63,98,1657139452
100,17,19,Jits_Linear_5,0,1,48,49,1657799368
100,17,19,Jits_Linear_5,1,5,56,103,1657859656
100,17,19,Jits_Linear_5,2,5,80,127,1657869704
100,17,19,Jits_Linear_5,3,5,63,98,1657900488
100,17,19,Jits_Linear_5,0,5,56,103,1658559840
100,17,19,Jits_Linear_5,1,5,80,127,1658599732
100,17,19,Jits_Linear_5,2,1,48,43,1658605092
100,17,19,Jits_Linear_5,3,5,63,98,1658650000
100,17,19,Jits_Linear_5,0,5,56,103,1659319768
100,17,19,Jits_Linear_5,1,1,48,44,1659339900
100,17,19,Jits_Linear_5,2,5,80,127,1659359552
100,17,19,Jits_Linear_5,3,5,63,98,1659409756
100,17,19,Jits_Linear_5,0,5,80,127,1660070448
100,17,19,Jits_Linear_5,1,1,48,50,1660104736
100,17,19,Jits_Linear_5,2,5,63,98,1660150340
100,17,19,Jits_Linear_5,3,5,56,103,1660160464
100,17,19,Jits_Linear_5,0,1,48,50,1660847040
100,17,19,Jits_Linear_5,1,5,80,127,1660880492
100,17,19,Jits_Linear_5,2,5,56,103,1660889496
100,17,19,Jits_Linear_5,3,5,63,98,1660910052
100,17,19,Jits_Linear_5,0,1,48,51,1661606208
100,17,19,Jits_Linear_5,1,5,63,98,1661610512
100,17,19,Jits_Linear_5,2,5,56,103,1661679840
100,17,19,Jits_Linear_5,3,5,80,127,1661682988
100,17,19,Jits_Linear_5,0,1,48,48,1662358932
100,17,19,Jits_Linear_5,1,5,80,127,1662370192
100,17,19,Jits_Linear_5,2,5,63,98,1662420320
100,17,19,Jits_Linear_5,3,5,56,103,1662460640
100,17,19,Jits_Linear_5,0,1,48,42,1663166184
100,17,19,Jits_Linear_5,1,5,63,98,1663180156
100,17,19,Jits_Linear_5,2,5,56,103,1663220192
100,17,19,Jits_Linear_5,3,5,80,127,1663230464
100,17,19,Jits_Linear_5,0,1,48,46,1663918848
100,17,19,Jits_Linear_5,1,5,63,98,1663939996
100,17,19,Jits_Linear_5,2,5,56,103,1663960384
100,17,19,Jits_Linear_5,3,5,80,127,1663979820
100,17,19,Jits_Linear_5,0,1,48,56,1664661224
100,17,19,Jits_Linear_5,1,5,80,127,1664670092
100,17,19,Jits_Linear_5,2,5,56,103,1664680364
100,17,19,Jits_Linear_5,3,5,63,98,1664699704
100,17,19,Jits_Linear_5,0,1,48,46,1665419784
100,17,19,Jits_Linear_5,1,5,63,98,1665469784
100,17,19,Jits_Linear_5,2,5,56,103,1665509676
100,17,19,Jits_Linear_5,3,5,80,127,1665539484
100,17,19,Jits_Linear_5,0,1,48,51,1666184184
100,17,19,Jits_Linear_5,1,5,56,103,1666250228
100,17,19,Jits_Linear_5,2,5,63,98,1666280436
100,17,19,Jits_Linear_5,3,5,80,127,1666309592
100,17,19,Jits_Linear_5,0,5,80,127,1666999808
100,17,19,Jits_Linear_5,1,1,48,45,1667007568
100,17,19,Jits_Linear_5,2,5,56,103,1667070260
100,17,19,Jits_Linear_5,3,5,63,98,1667073324
100,17,19,Jits_Linear_5,0,5,56,103,1667790292
100,17,19,Jits_Linear_5,1,1,48,50,1667807192
100,17,19,Jits_Linear_5,2,5,63,98,1667840492
100,17,19,Jits_Linear_5,3,5,80,127,1667870168
100,17,19,Jits_Linear_5,0,5,63,98,1668549972
100,17,19,Jits_Linear_5,1,5,80,127,1668553332
100,17,19,Jits_Linear_5,2,1,48,44,1668589452
100,17,19,Jits_Linear_5,3,5,56,103,1668610452
100,17,19,Jits_Linear_5,0,1,48,48,1669302344
100,17,19,Jits_Linear_5,1,5,56,103,1669359936
100,17,19,Jits_Linear_5,2,5,80,127,1669370280
100,17,19,Jits_Linear_5,3,5,63,98,1669420320
100,17,19,Jits_Linear_5,0,5,63,98,1670119704
100,17,19,Jits_Linear_5,1,5,56,103,1670130124
100,17,19,Jits_Linear_5,2,1,48,44,1670141188
100,17,19,Jits_Linear_5,3,5,80,127,1670159720
100,17,19,Jits_Linear_5,0,1,48,41,1670850784
100,17,19,Jits_Linear_5,1,5,63,98,1670940140
100,17,19,Jits_Linear_5,2,5,80,127,1670943352
100,17,19,Jits_Linear_5,3,5,56,103,1670969652
100,17,19,Jits_Linear_5,0,1,48,49,1671629864
100,17,19,Jits_Linear_5,1,5,63,98,1671749928
100,17,19,Jits_Linear_5,2,5,56,103,1671769488
100,17,19,Jits_Linear_5,3,5,80,127,1671772700
100,17,19,Jits_Linear_5,0,5,63,98,1672499440
100,17,19,Jits_Linear_5,1,1,48,48,1672517776
100,17,19,Jits_Linear_5,2,5,56,103,1672570164
100,17,19,Jits_Linear_5,3,5,80,127,1672589800
100,17,19,Jits_Linear_5,0,5,56,103,1673279728
100,17,19,Jits_Linear_5,1,5,63,98,1673290372
100,17,19,Jits_Linear_5,2,1,48,48,1673359276
100,17,19,Jits_Linear_5,3,5,80,127,1673380128
100,17,19,Jits_Linear_5,0,5,56,103,1674089704
100,17,19,Jits_Linear_5,1,1,48,51,1674119872
100,17,19,Jits_Linear_5,2,5,80,127,1674129712
100,17,19,Jits_Linear_5,3,5,63,98,1674140132
100,17,19,Jits_Linear_5,0,1,48,52,1674876484
100,17,19,Jits_Linear_5,1,5,56,103,1674910308
100,17,19,Jits_Linear_5,2,5,63,98,1674939688
100,17,19,Jits_Linear_5,3,5,80,127,1674969572
100,17,19,Jits_Linear_5,0,1,48,52,1675646140
100,17,19,Jits_Linear_5,1,5,80,127,1675670292
100,17,19,Jits_Linear_5,2,5,63,98,1675710084
100,17,19,Jits_Linear_5,3,5,56,103,1675730320
100,17,19,Jits_Linear_5,0,1,48,46,1676374724
100,17,19,Jits_Linear_5,1,5,56,103,1676519824
100,17,19,Jits_Linear_5,2,5,80,127,1676540360
100,17,19,Jits_Linear_5,3,5,63,98,1676559696
100,17,19,Jits_Linear_5,0,1,48,54,1677269512
100,17,19,Jits_Linear_5,1,5,63,98,1677300352
100,17,19,Jits_Linear_5,2,5,56,103,1677310176
100,17,19,Jits_Linear_5,3,5,80,127,1677369732
100,17,19,Jits_Linear_5,0,1,48,51,1677956436
100,17,19,Jits_Linear_5,1,5,56,103,1678110300
100,17,19,Jits_Linear_5,2,5,63,98,1678179688
100,17,19,Jits_Linear_5,3,5,80,127,1678200296
100,17,19,Jits_Linear_5,0,5,56,103,1678920200
100,17,19,Jits_Linear_5,1,5,63,98,1678949656
100,17,19,Jits_Linear_5,2,1,48,47,1678982368
100,17,19,Jits_Linear_5,3,5,80,127,1678989660
100,17,19,Jits_Linear_5,0,5,63,98,1679720204
100,17,19,Jits_Linear_5,1,5,56,103,1679770112
100,17,19,Jits_Linear_5,2,5,80,127,1679780232
100,17,19,Jits_Linear_5,3,1,48,49,1679812568
100,17,19,Jits_Linear_5,0,5,56,103,1680569796
100,17,19,Jits_Linear_5,1,1,48,44,1680572840
100,17,19,Jits_Linear_5,2,5,63,98,1680620092
100,17,19,Jits_Linear_5,3,5,80,127,1680629992
100,17,19,Jits_Linear_5,0,1,48,46,1681337864
100,17,19,Jits_Linear_5,1,5,56,103,1681350168
100,17,19,Jits_Linear_5,2,5,63,98,1681360216
100,17,19,Jits_Linear_5,3,5,80,127,1681440024
100,17,19,Jits_Linear_5,0,9999,9999,9999,1572547640
100,17,19,Jits_Linear_5,1,9999,9999,9999,1573027952
100,17,19,Jits_Linear_5,2,9999,9999,9999,1573507168
100,17,19,Jits_Linear_5,3,9999,9999,9999,1573987416
100,17,19,Jits_Linear_5,4,9999,9999,9999,1574467640
100,17,19,Jits_Linear_5,5,9999,9999,9999,1574957144
100,17,19,Jits_Linear_5,6,9999,9999,9999,1575447616
100,17,19,Jits_Linear_5,7,9999,9999,9999,1575937128
100,17,19,Jits_Linear_5,8,9999,9999,9999,1576427616
100,17,19,Jits_Linear_5,9,9999,9999,9999,1576918076
100,17,19,Jits_Linear_5,10,9999,9999,9999,1577428028
100,17,19,Jits_Linear_5,11,9999,9999,9999,1577927792
100,17,19,Jits_Linear_5,12,9999,9999,9999,1578427476
100,17,19,Jits_Linear_5,13,9999,9999,9999,1578927160
100,17,19,Jits_Linear_5,14,9999,9999,9999,1579427896
100,17,19,Jits_Linear_5,15,9999,9999,9999,1579937864
100,17,19,Jits_Linear_5,16,9999,9999,9999,1580447816
100,17,19,Jits_Linear_5,17,9999,9999,9999,1580957768
100,17,19,Jits_Linear_5,18,9999,9999,9999,1581467732
100,17,19,Jits_Linear_5,19,9999,9999,9999,1581977700
100,17,19,Jits_Linear_5,20,9999,9999,9999,1582497856
100,17,19,Jits_Linear_5,21,9999,9999,9999,1583018084
100,17,19,Jits_Linear_5,22,9999,9999,9999,1583537268
100,17,19,Jits_Linear_5,23,9999,9999,9999,1584057424
100,17,19,Jits_Linear_5,24,9999,9999,9999,1584577656
100,17,19,Jits_Linear_5,25,9999,9999,9999,1585108068
100,17,19,Jits_Linear_5,26,9999,9999,9999,1585637456
100,17,19,Jits_Linear_5,27,9999,9999,9999,1586167912
100,17,19,Jits_Linear_5,28,9999,9999,9999,1586697288
100,17,19,Jits_Linear_5,29,9999,9999,9999,1587227764
100,17,19,Jits_Linear_5,30,9999,9999,9999,1587767384
100,17,19,Jits_Linear_5,31,9999,9999,9999,1588308056
100,17,19,Jits_Linear_5,32,9999,9999,9999,1588847676
100,17,19,Jits_Linear_5,33,9999,9999,9999,1589387372
100,17,19,Jits_Linear_5,34,9999,9999,9999,1589928040
100,17,19,Jits_Linear_5,35,9999,9999,9999,1590477928
100,17,19,Jits_Linear_5,36,9999,9999,9999,1591027828
100,17,19,Jits_Linear_5,37,9999,9999,9999,1591577712
100,17,19,Jits_Linear_5,38,9999,9999,9999,1592127616
100,17,19,Jits_Linear_5,39,9999,9999,9999,1592677432
100,17,19,Jits_Linear_5,40,9999,9999,9999,1593237580
100,17,19,Jits_Linear_5,41,9999,9999,9999,1593797728
100,17,19,Jits_Linear_5,42,9999,9999,9999,1594357840
100,17,19,Jits_Linear_5,43,9999,9999,9999,1594917988
100,17,19,Jits_Linear_5,44,9999,9999,9999,1595478136
100,17,19,Jits_Linear_5,45,9999,9999,9999,1596057688
100,17,19,Jits_Linear_5,46,9999,9999,9999,1596628024
100,17,19,Jits_Linear_5,47,9999,9999,9999,1597197424
100,17,19,Jits_Linear_5,48,9999,9999,9999,1597767764
100,17,19,Jits_Linear_5,49,9999,9999,9999,1598337076
100,17,19,Jits_Linear_5,50,9999,9999,9999,1598917740
100,17,19,Jits_Linear_5,51,9999,9999,9999,1599497336
100,17,19,Jits_Linear_5,52,9999,9999,9999,1600077880
100,17,19,Jits_Linear_5,53,9999,9999,9999,1600657524
100,17,19,Jits_Linear_5,54,9999,9999,9999,1601238128
100,17,19,Jits_Linear_5,55,9999,9999,9999,1601837128
100,17,19,Jits_Linear_5,56,9999,9999,9999,1602428004
100,17,19,Jits_Linear_5,57,9999,9999,9999,1603017828
100,17,19,Jits_Linear_5,58,9999,9999,9999,1603607612
100,17,19,Jits_Linear_5,59,9999,9999,9999,1604197504
100,17,19,Jits_Linear_5,60,9999,9999,9999,1604797528
100,17,19,Jits_Linear_5,61,9999,9999,9999,1605397628
100,17,19,Jits_Linear_5,62,9999,9999,9999,1605997636
100,17,19,Jits_Linear_5,63,9999,9999,9999,1606597712
100,17,19,Jits_Linear_5,64,9999,9999,9999,1607197820
100,17,19,Jits_Linear_5,65,9999,9999,9999,1607808084
100,17,19,Jits_Linear_5,66,9999,9999,9999,1608427600
100,17,19,Jits_Linear_5,67,9999,9999,9999,1609037944
100,17,19,Jits_Linear_5,68,9999,9999,9999,1609647168
100,17,19,Jits_Linear_5,69,9999,9999,9999,1610257464
100,17,19,Jits_Linear_5,70,9999,9999,9999,1610878060
100,17,19,Jits_Linear_5,71,9999,9999,9999,1611497588
100,17,19,Jits_Linear_5,72,9999,9999,9999,1612118116
100,17,19,Jits_Linear_5,73,9999,9999,9999,1612747868
100,17,19,Jits_Linear_5,74,9999,9999,9999,1613367380
100,17,19,Jits_Linear_5,75,9999,9999,9999,1613997128
100,17,19,Jits_Linear_5,76,9999,9999,9999,1614627896
100,17,19,Jits_Linear_5,77,9999,9999,9999,1615257720
100,17,19,Jits_Linear_5,78,9999,9999,9999,1615887436
100,17,19,Jits_Linear_5,79,9999,9999,9999,1616517188
100,17,19,Jits_Linear_5,80,9999,9999,9999,1617157224
100,17,19,Jits_Linear_5,81,9999,9999,9999,1617797240
100,17,19,Jits_Linear_5,82,9999,9999,9999,1618437216
100,17,19,Jits_Linear_5,83,9999,9999,9999,1619077228
100,17,19,Jits_Linear_5,84,9999,9999,9999,1619717208
100,17,19,Jits_Linear_5,85,9999,9999,9999,1620367484
100,17,19,Jits_Linear_5,86,9999,9999,9999,1621017712
100,17,19,Jits_Linear_5,87,9999,9999,9999,1621667928
100,17,19,Jits_Linear_5,88,9999,9999,9999,1622317184
100,17,19,Jits_Linear_5,89,9999,9999,9999,1622967388
100,17,19,Jits_Linear_5,90,9999,9999,9999,1623627876
100,17,19,Jits_Linear_5,91,9999,9999,9999,1624287292
100,17,19,Jits_Linear_5,92,9999,9999,9999,1624947780
100,17,19,Jits_Linear_5,93,9999,9999,9999,1625607228
100,17,19,Jits_Linear_5,94,9999,9999,9999,1626267764
100,17,19,Jits_Linear_5,95,9999,9999,9999,1626937400
100,17,19,Jits_Linear_5,96,9999,9999,9999,1627607160
100,17,19,Jits_Linear_5,97,9999,9999,9999,1628277828
100,17,19,Jits_Linear_5,98,9999,9999,9999,1628947540
100,17,19,Jits_Linear_5,99,9999,9999,9999,1629617232
100,17,19,Jits_Linear_5,100,9999,9999,9999,1630297208
100,17,19,Jits_Linear_5,101,9999,9999,9999,1630977108
100,17,19,Jits_Linear_5,102,9999,9999,9999,1631658088
100,17,19,Jits_Linear_5,103,9999,9999,9999,1632337988
100,17,19,Jits_Linear_5,104,9999,9999,9999,1633017960
100,17,19,Jits_Linear_5,105,9999,9999,9999,1633707116
100,17,19,Jits_Linear_5,106,9999,9999,9999,1634397280
100,17,19,Jits_Linear_5,107,9999,9999,9999,1635087440
100,17,19,Jits_Linear_5,108,9999,9999,9999,1635777648
100,17,19,Jits_Linear_5,109,9999,9999,9999,1636467812
100,17,19,Jits_Linear_5,110,9999,9999,9999,1637167208
100,17,19,Jits_Linear_5,111,9999,9999,9999,1637867632
100,17,19,Jits_Linear_5,112,9999,9999,9999,1638568032
100,17,19,Jits_Linear_5,113,9999,9999,9999,1639267412
100,17,19,Jits_Linear_5,114,9999,9999,9999,1639967828
100,17,19,Jits_Linear_5,115,9999,9999,9999,1640677464
100,17,19,Jits_Linear_5,116,9999,9999,9999,1641387076
100,17,19,Jits_Linear_5,117,9999,9999,9999,1642097776
100,17,19,Jits_Linear_5,118,9999,9999,9999,1642807356
100,17,19,Jits_Linear_5,119,9999,9999,9999,1643518036
100,17,19,Jits_Linear_5,120,9999,9999,9999,1644237912
100,17,19,Jits_Linear_5,121,9999,9999,9999,1644957816
100,17,19,Jits_Linear_5,122,9999,9999,9999,1645677648
100,17,19,Jits_Linear_5,123,9999,9999,9999,1646397552
100,17,19,Jits_Linear_5,124,9999,9999,9999,1647117376
100,17,19,Jits_Linear_5,125,9999,9999,9999,1647847532
100,17,19,Jits_Linear_5,126,9999,9999,9999,1648577600
100,17,19,Jits_Linear_5,127,9999,9999,9999,1649307764
100,17,19,Jits_Linear_5,128,9999,9999,9999,1650037856
100,17,19,Jits_Linear_5,129,9999,9999,9999,1650767960
100,17,19,Jits_Linear_5,130,9999,9999,9999,1651507284
100,17,19,Jits_Linear_5,131,9999,9999,9999,1652247640
100,17,19,Jits_Linear_5,132,9999,9999,9999,1652987992
100,17,19,Jits_Linear_5,133,9999,9999,9999,1653727348
100,17,19,Jits_Linear_5,134,9999,9999,9999,1654467700
100,17,19,Jits_Linear_5,135,9999,9999,9999,1655217268
100,17,19,Jits_Linear_5,136,9999,9999,9999,1655967812
100,17,19,Jits_Linear_5,137,9999,9999,9999,1656717384
100,17,19,Jits_Linear_5,138,9999,9999,9999,1657468004
100,17,19,Jits_Linear_5,139,9999,9999,9999,1658217592
100,17,19,Jits_Linear_5,140,9999,9999,9999,1658977356
100,17,19,Jits_Linear_5,141,9999,9999,9999,1659737184
100,17,19,Jits_Linear_5,142,9999,9999,9999,1660498008
100,17,19,Jits_Linear_5,143,9999,9999,9999,1661257784
100,17,19,Jits_Linear_5,144,9999,9999,9999,1662017616
100,17,19,Jits_Linear_5,145,9999,9999,9999,1662787640
100,17,19,Jits_Linear_5,146,9999,9999,9999,1663557748
100,17,19,Jits_Linear_5,147,9999,9999,9999,1664327780
100,17,19,Jits_Linear_5,148,9999,9999,9999,1665097804
100,17,19,Jits_Linear_5,149,9999,9999,9999,1665867832
100,17,19,Jits_Linear_5,150,9999,9999,9999,1666647152
100,17,19,Jits_Linear_5,151,9999,9999,9999,1667427432
100,17,19,Jits_Linear_5,152,9999,9999,9999,1668207712
100,17,19,Jits_Linear_5,153,9999,9999,9999,1668988004
100,17,19,Jits_Linear_5,154,9999,9999,9999,1669767240
100,17,19,Jits_Linear_5,155,9999,9999,9999,1670557792
100,17,19,Jits_Linear_5,156,9999,9999,9999,1671347288
100,17,19,Jits_Linear_5,157,9999,9999,9999,1672137836
100,17,19,Jits_Linear_5,158,9999,9999,9999,1672927296
100,17,19,Jits_Linear_5,159,9999,9999,9999,1673717844
100,17,19,Jits_Linear_5,160,9999,9999,9999,1674517556
100,17,19,Jits_Linear_5,161,9999,9999,9999,1675317344
100,17,19,Jits_Linear_5,162,9999,9999,9999,1676118084
100,17,19,Jits_Linear_5,163,9999,9999,9999,1676928120
100,17,19,Jits_Linear_5,164,9999,9999,9999,1677738076
100,17,19,Jits_Linear_5,165,9999,9999,9999,1678548040
100,17,19,Jits_Linear_5,166,9999,9999,9999,1679358020
100,17,19,Jits_Linear_5,167,9999,9999,9999,1680168064
100,17,19,Jits_Linear_5,168,9999,9999,9999,1680978024
100,17,19,Jits_Linear_5,169,9999,9999,9999,1681787992
100,18,15,Jits_Phase_8,0,5,56,103,1690885504
100,18,15,Jits_Phase_8,1,5,63,98,1690888448
100,18,15,Jits_Phase_8,2,5,80,127,1690891648
100,18,15,Jits_Phase_8,0,5,56,103,1691686188
100,18,15,Jits_Phase_8,1,5,63,98,1691689284
100,18,15,Jits_Phase_8,2,5,80,127,1691692404
100,18,15,Jits_Phase_8,0,5,80,127,1692425684
100,18,15,Jits_Phase_8,1,5,63,98,1692515892
100,18,15,Jits_Phase_8,2,5,56,103,1692526084
100,18,15,Jits_Phase_8,0,5,56,103,1693245868
100,18,15,Jits_Phase_8,1,5,63,98,1693255992
100,18,15,Jits_Phase_8,2,5,80,127,1693346196
100,18,15,Jits_Phase_8,0,5,63,98,1694015936
100,18,15,Jits_Phase_8,1,5,80,127,1694045612
100,18,15,Jits_Phase_8,2,1,48,62,1694074208
100,18,15,Jits_Phase_8,3,5,56,103,1694076176
100,18,15,Jits_Phase_8,0,1,48,51,1694806816
100,18,15,Jits_Phase_8,1,5,56,103,1694815532
100,18,15,Jits_Phase_8,2,5,80,127,1694916064
100,18,15,Jits_Phase_8,3,5,63,98,1694966216
100,18,15,Jits_Phase_8,0,5,56,103,1695616492
100,18,15,Jits_Phase_8,1,1,48,56,1695641260
100,18,15,Jits_Phase_8,2,5,80,127,1695665640
100,18,15,Jits_Phase_8,3,5,63,98,1695705356
100,18,15,Jits_Phase_8,0,1,48,56,1696421316
100,18,15,Jits_Phase_8,1,5,80,127,1696445924
100,18,15,Jits_Phase_8,2,5,63,98,1696475456
100,18,15,Jits_Phase_8,3,5,56,103,1696546240
100,18,15,Jits_Phase_8,0,1,48,54,1697227500
100,18,15,Jits_Phase_8,1,5,63,98,1697276328
100,18,15,Jits_Phase_8,2,5,56,103,1697305856
100,18,15,Jits_Phase_8,3,5,80,127,1697366376
100,18,15,Jits_Phase_8,0,5,56,103,1698015632
100,18,15,Jits_Phase_8,1,5,80,127,1698018696
100,18,15,Jits_Phase_8,2,1,48,56,1698046100
100,18,15,Jits_Phase_8,3,5,63,98,1698136544
100,18,15,Jits_Phase_8,0,1,48,59,1698840228
100,18,15,Jits_Phase_8,1,5,56,103,1698896300
100,18,15,Jits_Phase_8,2,5,80,127,1698936152
100,18,15,Jits_Phase_8,3,5,63,98,1698946420
100,18,15,Jits_Phase_8,0,5,56,103,1699655980
100,18,15,Jits_Phase_8,1,5,80,127,1699675396
100,18,15,Jits_Phase_8,2,1,48,59,1699676360
100,18,15,Jits_Phase_8,3,5,63,98,1699756524
100,18,15,Jits_Phase_8,0,5,80,127,1700445716
100,18,15,Jits_Phase_8,1,1,48,57,1700467268
100,18,15,Jits_Phase_8,2,5,56,103,1700545884
100,18,15,Jits_Phase_8,3,5,63,98,1700556080
100,18,15,Jits_Phase_8,0,5,63,98,1701215896
100,18,15,Jits_Phase_8,1,5,80,127,1701276064
100,18,15,Jits_Phase_8,2,5,56,103,1701286260
100,18,15,Jits_Phase_8,3,1,48,58,1701311100
100,18,15,Jits_Phase_8,0,5,56,103,1702016400
100,18,15,Jits_Phase_8,1,1,48,54,1702057728
100,18,15,Jits_Phase_8,2,5,63,98,1702085928
100,18,15,Jits_Phase_8,3,5,80,127,1702089436
100,18,15,Jits_Phase_8,0,1,48,57,1702797620
100,18,15,Jits_Phase_8,1,5,63,98,1702845972
100,18,15,Jits_Phase_8,2,5,56,103,1702895960
100,18,15,Jits_Phase_8,3,5,80,127,1702899100
100,18,15,Jits_Phase_8,0,1,48,54,1703597592
100,18,15,Jits_Phase_8,1,5,56,103,1703605864
100,18,15,Jits_Phase_8,2,5,80,127,1703608772
100,18,15,Jits_Phase_8,3,5,63,98,1703695700
100,18,15,Jits_Phase_8,0,1,48,55,1704386848
100,18,15,Jits_Phase_8,1,5,63,98,1704446312
100,18,15,Jits_Phase_8,2,5,56,103,1704536580
100,18,15,Jits_Phase_8,3,5,80,127,1704566104
100,18,15,Jits_Phase_8,0,5,56,103,1705235816
100,18,15,Jits_Phase_8,1,1,48,51,1705249568
100,18,15,Jits_Phase_8,2,5,63,98,1705336208
100,18,15,Jits_Phase_8,3,5,80,127,1705366016
100,18,15,Jits_Phase_8,0,5,63,98,1706056112
100,18,15,Jits_Phase_8,1,5,56,103,1706066308
100,18,15,Jits_Phase_8,2,1,48,56,1706095504
100,18,15,Jits_Phase_8,3,5,80,127,1706156584
100,18,15,Jits_Phase_8,0,1,48,57,1706817928
100,18,15,Jits_Phase_8,1,5,63,98,1706876244
100,18,15,Jits_Phase_8,2,5,56,103,1706956096
100,18,15,Jits_Phase_8,3,5,80,127,1706959312
100,18,15,Jits_Phase_8,0,5,80,127,1707636072
100,18,15,Jits_Phase_8,1,1,48,43,1707651768
100,18,15,Jits_Phase_8,2,5,63,98,1707655628
100,18,15,Jits_Phase_8,3,5,56,103,1707715868
100,18,15,Jits_Phase_8,0,5,56,103,1708475776
100,18,15,Jits_Phase_8,1,1,48,46,1708485644
100,18,15,Jits_Phase_8,2,5,63,98,1708496224
100,18,15,Jits_Phase_8,3,5,80,127,1708499512
100,18,15,Jits_Phase_8,0,5,63,98,1709216048
100,18,15,Jits_Phase_8,1,1,48,48,1709285348
100,18,15,Jits_Phase_8,2,5,80,127,1709295864
100,18,15,Jits_Phase_8,3,5,56,103,1709306356
100,18,15,Jits_Phase_8,0,5,63,98,1710036332
100,18,15,Jits_Phase_8,1,1,48,50,1710042144
100,18,15,Jits_Phase_8,2,5,56,103,1710055836
100,18,15,Jits_Phase_8,3,5,80,127,1710106108
100,18,15,Jits_Phase_8,0,1,48,48,1710824620
100,18,15,Jits_Phase_8,1,5,80,127,1710836176
100,18,15,Jits_Phase_8,2,5,63,98,1710876116
100,18,15,Jits_Phase_8,3,5,56,103,1710895528
100,18,15,Jits_Phase_8,0,1,48,51,1711647820
100,18,15,Jits_Phase_8,1,5,56,103,1711675864
100,18,15,Jits_Phase_8,2,5,63,98,1711686136
100,18,15,Jits_Phase_8,3,5,80,127,1711705544
100,18,15,Jits_Phase_8,0,5,56,103,1712405872
100,18,15,Jits_Phase_8,1,1,48,57,1712445632
100,18,15,Jits_Phase_8,2,5,63,98,1712495924
100,18,15,Jits_Phase_8,3,5,80,127,1712556524
100,18,15,Jits_Phase_8,0,5,80,127,1713236212
100,18,15,Jits_Phase_8,1,1,48,54,1713243536
100,18,15,Jits_Phase_8,2,5,56,103,1713245728
100,18,15,Jits_Phase_8,3,5,63,98,1713316228
100,18,15,Jits_Phase_8,0,1,48,54,1714058800
100,18,15,Jits_Phase_8,1,5,63,98,1714065872
100,18,15,Jits_Phase_8,2,5,80,127,1714156088
100,18,15,Jits_Phase_8,3,5,56,103,1714166064
100,18,15,Jits_Phase_8,0,5,63,98,1714795892
100,18,15,Jits_Phase_8,1,5,80,127,1714846096
100,18,15,Jits_Phase_8,2,5,56,103,1714905584
100,18,15,Jits_Phase_8,3,1,48,49,1714952168
100,18,15,Jits_Phase_8,0,5,56,103,1715616248
100,18,15,Jits_Phase_8,1,5,80,127,1715666376
100,18,15,Jits_Phase_8,2,5,63,98,1715685740
100,18,15,Jits_Phase_8,3,1,48,48,1715693344
100,18,15,Jits_Phase_8,0,5,56,103,1716386052
100,18,15,Jits_Phase_8,1,1,48,57,1716443028
100,18,15,Jits_Phase_8,2,5,80,127,1716445712
100,18,15,Jits_Phase_8,3,5,63,98,1716516140
100,18,15,Jits_Phase_8,0,5,56,103,1717196084
100,18,15,Jits_Phase_8,1,1,48,58,1717198604
100,18,15,Jits_Phase_8,2,5,80,127,1717225780
100,18,15,Jits_Phase_8,3,5,63,98,1717255752
100,18,15,Jits_Phase_8,0,1,48,60,1717934760
100,18,15,Jits_Phase_8,1,5,56,103,1718035712
100,18,15,Jits_Phase_8,2,5,80,127,1718056396
100,18,15,Jits_Phase_8,3,5,63,98,1718115736
100,18,15,Jits_Phase_8,0,1,48,49,1718754920
100,18,15,Jits_Phase_8,1,5,80,127,1718915560
100,18,15,Jits_Phase_8,2,5,56,103,1718925608
100,18,15,Jits_Phase_8,3,5,63,98,1718935804
100,18,15,Jits_Phase_8,0,1,48,54,1719655980
100,18,15,Jits_Phase_8,1,5,56,103,1719676232
100,18,15,Jits_Phase_8,2,5,80,127,1719716392
100,18,15,Jits_Phase_8,3,5,63,98,1719745844
100,18,15,Jits_Phase_8,0,5,56,103,1720446408
100,18,15,Jits_Phase_8,1,5,63,98,1720475936
100,18,15,Jits_Phase_8,2,1,48,57,1720504980
100,18,15,Jits_Phase_8,3,5,80,127,1720515944
100,18,15,Jits_Phase_8,0,5,80,127,1721195836
100,18,15,Jits_Phase_8,1,1,48,56,1721243916
100,18,15,Jits_Phase_8,2,5,63,98,1721245956
100,18,15,Jits_Phase_8,3,5,56,103,1721265664
100,18,15,Jits_Phase_8,0,1,48,60,1721981472
100,18,15,Jits_Phase_8,1,5,56,103,1722026608
100,18,15,Jits_Phase_8,2,5,80,127,1722095856
100,18,15,Jits_Phase_8,3,5,63,98,1722156688
100,18,15,Jits_Phase_8,0,1,48,57,1722803872
100,18,15,Jits_Phase_8,1,5,80,127,1722826144
100,18,15,Jits_Phase_8,2,5,63,98,1722916068
100,18,15,Jits_Phase_8,3,5,56,103,1722935628
100,18,15,Jits_Phase_8,0,1,48,53,1723587516
100,18,15,Jits_Phase_8,1,5,63,98,1723646456
100,18,15,Jits_Phase_8,2,5,56,103,1723665720
100,18,15,Jits_Phase_8,3,5,80,127,1723705720
100,18,15,Jits_Phase_8,0,1,48,51,1724369216
100,18,15,Jits_Phase_8,1,5,80,127,1724406060
100,18,15,Jits_Phase_8,2,5,63,98,1724425544
100,18,15,Jits_Phase_8,3,5,56,103,1724505544
100,18,15,Jits_Phase_8,0,1,48,53,1725131724
100,18,15,Jits_Phase_8,1,5,63,98,1725195620
100,18,15,Jits_Phase_8,2,1,48,19,1725228016
100,18,15,Jits_Phase_8,3,5,56,103,1725306336
100,18,15,Jits_Phase_8,4,5,80,127,1725309476
100,18,15,Jits_Phase_8,0,5,63,98,1726015936
100,18,15,Jits_Phase_8,1,5,56,103,1726026132
100,18,15,Jits_Phase_8,2,5,80,127,1726029272
100,18,15,Jits_Phase_8,3,1,48,52,1726052544
100,18,15,Jits_Phase_8,0,5,56,103,1726796124
100,18,15,Jits_Phase_8,1,1,48,53,1726817304
100,18,15,Jits_Phase_8,2,5,80,127,1726915832
100,18,15,Jits_Phase_8,3,5,63,98,1726955868
100,18,15,Jits_Phase_8,0,1,48,54,1727548520
100,18,15,Jits_Phase_8,1,5,56,103,1727616348
100,18,15,Jits_Phase_8,2,5,80,127,1727696428
100,18,15,Jits_Phase_8,3,5,63,98,1727715640
100,18,15,Jits_Phase_8,0,5,56,103,1728416116
100,18,15,Jits_Phase_8,1,1,48,51,1728432936
100,18,15,Jits_Phase_8,2,5,63,98,1728525820
100,18,15,Jits_Phase_8,3,5,80,127,1728529768
100,18,15,Jits_Phase_8,0,1,48,49,1729215248
100,18,15,Jits_Phase_8,1,5,56,103,1729255684
100,18,15,Jits_Phase_8,2,5,80,127,1729285436
100,18,15,Jits_Phase_8,3,5,63,98,1729305892
100,18,15,Jits_Phase_8,0,1,48,55,1729999044
100,18,15,Jits_Phase_8,1,5,63,98,1730046596
100,18,15,Jits_Phase_8,2,5,56,103,1730055524
100,18,15,Jits_Phase_8,3,5,80,127,1730065716
100,18,15,Jits_Phase_8,0,1,48,47,1730749792
100,18,15,Jits_Phase_8,1,5,80,127,1730835860
100,18,15,Jits_Phase_8,2,5,56,103,1730885900
100,18,15,Jits_Phase_8,3,5,63,98,1730925912
100,18,15,Jits_Phase_8,0,1,48,52,1731647348
100,18,15,Jits_Phase_8,1,5,80,127,1731656144
100,18,15,Jits_Phase_8,2,5,63,98,1731675480
100,18,15,Jits_Phase_8,3,5,56,103,1731725756
100,18,15,Jits_Phase_8,0,1,48,49,1732443740
100,18,15,Jits_Phase_8,1,5,80,127,1732466164
100,18,15,Jits_Phase_8,2,5,56,103,1732495840
100,18,15,Jits_Phase_8,3,5,63,98,1732566252
100,18,15,Jits_Phase_8,0,1,48,49,1733300436
100,18,15,Jits_Phase_8,1,5,56,103,1733315824
100,18,15,Jits_Phase_8,2,5,80,127,1733326392
100,18,15,Jits_Phase_8,3,5,63,98,1733366280
100,18,15,Jits_Phase_8,0,5,56,103,1734025464
100,18,15,Jits_Phase_8,1,5,63,98,1734046296
100,18,15,Jits_Phase_8,2,5,80,127,1734115704
100,18,15,Jits_Phase_8,3,1,48,45,1734137028
100,18,15,Jits_Phase_8,0,5,63,98,1734845760
100,18,15,Jits_Phase_8,1,1,48,50,1734847172
100,18,15,Jits_Phase_8,2,5,80,127,1734906168
100,18,15,Jits_Phase_8,3,5,56,103,1734925580
100,18,15,Jits_Phase_8,0,1,48,48,1735610488
100,18,15,Jits_Phase_8,1,5,80,127,1735636368
100,18,15,Jits_Phase_8,2,5,56,103,1735665992
100,18,15,Jits_Phase_8,3,5,63,98,1735695668
100,18,15,Jits_Phase_8,0,1,48,52,1736375860
100,18,15,Jits_Phase_8,1,5,56,103,1736436368
100,18,15,Jits_Phase_8,2,5,63,98,1736495328
100,18,15,Jits_Phase_8,3,5,80,127,1736556012
100,18,15,Jits_Phase_8,0,1,48,51,1737141668
100,18,15,Jits_Phase_8,1,5,80,127,1737256340
100,18,15,Jits_Phase_8,2,5,56,103,1737275756
100,18,15,Jits_Phase_8,3,5,63,98,1737346556
100,18,15,Jits_Phase_8,0,1,48,47,1738041696
100,18,15,Jits_Phase_8,1,5,80,127,1738056336
100,18,15,Jits_Phase_8,2,5,63,98,1738075528
100,18,15,Jits_Phase_8,3,5,56,103,1738106176
100,18,15,Jits_Phase_8,0,5,80,127,1738845612
100,18,15,Jits_Phase_8,1,1,48,38,1738855324
100,18,15,Jits_Phase_8,2,5,63,98,1738866364
100,18,15,Jits_Phase_8,3,5,56,103,1738925480
100,18,15,Jits_Phase_8,0,5,80,127,1739646428
100,18,15,Jits_Phase_8,1,1,48,37,1739679816
100,18,15,Jits_Phase_8,2,5,56,103,1739745648
100,18,15,Jits_Phase_8,3,5,63,98,1739776504
100,18,15,Jits_Phase_8,0,5,63,98,1740435792
100,18,15,Jits_Phase_8,1,5,80,127,1740486144
100,18,15,Jits_Phase_8,2,5,56,103,1740505484
100,18,15,Jits_Phase_8,3,1,48,51,1740562632
100,18,15,Jits_Phase_8,0,5,80,127,1741275560
100,18,15,Jits_Phase_8,1,1,48,46,1741287292
100,18,15,Jits_Phase_8,2,5,56,103,1741306424
100,18,15,Jits_Phase_8,3,5,63,98,1741309412
100,18,15,Jits_Phase_8,0,1,48,56,1742050856
100,18,15,Jits_Phase_8,1,5,63,98,1742125364
100,18,15,Jits_Phase_8,2,5,56,103,1742166412
100,18,15,Jits_Phase_8,3,5,80,127,1742185972
100,18,15,Jits_Phase_8,0,1,48,51,1742886472
100,18,15,Jits_Phase_8,1,5,80,127,1742887808
100,18,15,Jits_Phase_8,2,5,63,98,1742966260
100,18,15,Jits_Phase_8,3,5,56,103,1743006332
100,18,15,Jits_Phase_8,0,5,63,98,1743705416
100,18,15,Jits_Phase_8,1,1,48,48,1743719092
100,18,15,Jits_Phase_8,2,5,80,127,1743786400
100,18,15,Jits_Phase_8,3,5,56,103,1743806112
100,18,15,Jits_Phase_8,0,5,56,103,1744546232
100,18,15,Jits_Phase_8,1,5,63,98,1744556356
100,18,15,Jits_Phase_8,2,1,48,48,1744559248
100,18,15,Jits_Phase_8,3,5,80,127,1744596432
100,18,15,Jits_Phase_8,0,5,56,103,1745266288
100,18,15,Jits_Phase_8,1,5,80,127,1745269276
100,18,15,Jits_Phase_8,2,1,48,50,1745333148
100,18,15,Jits_Phase_8,3,5,63,98,1745406332
100,18,15,Jits_Phase_8,0,5,56,103,1746055708
100,18,15,Jits_Phase_8,1,1,48,57,1746108428
100,18,15,Jits_Phase_8,2,5,63,98,1746145788
100,18,15,Jits_Phase_8,3,5,80,127,1746216272
100,18,15,Jits_Phase_8,0,1,48,51,1746899868
100,18,15,Jits_Phase_8,1,5,63,98,1746936260
100,18,15,Jits_Phase_8,2,5,80,127,1746939476
100,18,15,Jits_Phase_8,3,5,56,103,1746995528
100,18,15,Jits_Phase_8,0,1,48,52,1747723784
100,18,15,Jits_Phase_8,1,5,80,127,1747775948
100,18,15,Jits_Phase_8,2,5,56,103,1747796412
100,18,15,Jits_Phase_8,3,5,63,98,1747805484
100,18,15,Jits_Phase_8,0,5,56,103,1748485516
100,18,15,Jits_Phase_8,1,5,63,98,1748495864
100,18,15,Jits_Phase_8,2,1,48,38,1748513808
100,18,15,Jits_Phase_8,3,5,80,127,1748566508
100,18,15,Jits_Phase_8,0,5,80,127,1749286184
100,18,15,Jits_Phase_8,1,1,48,44,1749334416
100,18,15,Jits_Phase_8,2,5,56,103,1749336384
100,18,15,Jits_Phase_8,3,5,63,98,1749385612
100,18,15,Jits_Phase_8,0,1,48,44,1750152300
100,18,15,Jits_Phase_8,1,5,56,103,1750165896
100,18,15,Jits_Phase_8,2,5,63,98,1750176092
100,18,15,Jits_Phase_8,3,5,80,127,1750216100
100,18,15,Jits_Phase_8,0,5,56,103,1750906328
100,18,15,Jits_Phase_8,1,5,63,98,1750946416
100,18,15,Jits_Phase_8,2,5,80,127,1750996464
100,18,15,Jits_Phase_8,3,1,48,49,1751007408
100,18,15,Jits_Phase_8,0,5,80,127,1751665944
100,18,15,Jits_Phase_8,1,5,56,103,1751716220
100,18,15,Jits_Phase_8,2,5,63,98,1751735784
100,18,15,Jits_Phase_8,3,1,48,36,1751782448
100,18,15,Jits_Phase_8,0,5,80,127,1752476052
100,18,15,Jits_Phase_8,1,5,63,98,1752536372
100,18,15,Jits_Phase_8,2,1,48,43,1752562060
100,18,15,Jits_Phase_8,3,5,56,103,1752616180
100,18,15,Jits_Phase_8,0,5,80,127,1753256344
100,18,15,Jits_Phase_8,1,5,56,103,1753296212
100,18,15,Jits_Phase_8,2,1,48,27,1753306380
100,18,15,Jits_Phase_8,3,5,63,98,1753315640
100,18,15,Jits_Phase_8,0,1,48,50,1754061388
100,18,15,Jits_Phase_8,1,5,56,103,1754106176
100,18,15,Jits_Phase_8,2,5,80,127,1754115400
100,18,15,Jits_Phase_8,3,5,63,98,1754156368
100,18,15,Jits_Phase_8,0,1,48,46,1754864708
100,18,15,Jits_Phase_8,1,5,56,103,1754975672
100,18,15,Jits_Phase_8,2,5,63,98,1755015608
100,18,15,Jits_Phase_8,3,5,80,127,1755019048
100,18,15,Jits_Phase_8,0,5,63,98,1755646288
100,18,15,Jits_Phase_8,1,5,80,127,1755686152
100,18,15,Jits_Phase_8,2,5,56,103,1755755832
100,18,15,Jits_Phase_8,3,1,48,48,1755798732
100,18,15,Jits_Phase_8,0,5,63,98,1756416304
100,18,15,Jits_Phase_8,1,5,56,103,1756496248
100,18,15,Jits_Phase_8,2,5,80,127,1756555592
100,18,15,Jits_Phase_8,3,1,48,36,1756635448
100,18,15,Jits_Phase_8,0,5,80,127,1757226396
100,18,15,Jits_Phase_8,1,5,63,98,1757275480
100,18,15,Jits_Phase_8,2,1,48,42,1757281136
100,18,15,Jits_Phase_8,3,5,56,103,1757306120
100,18,15,Jits_Phase_8,0,5,56,103,1758016124
100,18,15,Jits_Phase_8,1,1,48,50,1758031528
100,18,15,Jits_Phase_8,2,5,63,98,1758066100
100,18,15,Jits_Phase_8,3,5,80,127,1758076220
100,18,15,Jits_Phase_8,0,1,48,45,1758784024
100,18,15,Jits_Phase_8,1,5,56,103,1758825928
100,18,15,Jits_Phase_8,2,5,63,98,1758936500
100,18,15,Jits_Phase_8,3,5,80,127,1758956060
100,18,15,Jits_Phase_8,0,1,48,54,1759625224
100,18,15,Jits_Phase_8,1,5,63,98,1759626932
100,18,15,Jits_Phase_8,2,5,80,127,1759675792
100,18,15,Jits_Phase_8,3,5,56,103,1759766004
100,18,15,Jits_Phase_8,0,5,63,98,1760415988
100,18,15,Jits_Phase_8,1,5,80,127,1760445812
100,18,15,Jits_Phase_8,2,1,48,54,1760481468
100,18,15,Jits_Phase_8,3,5,56,103,1760536108
100,18,15,Jits_Phase_8,0,5,63,98,1761216040
100,18,15,Jits_Phase_8,1,1,48,48,1761220504
100,18,15,Jits_Phase_8,2,5,56,103,1761226080
100,18,15,Jits_Phase_8,3,5,80,127,1761325436
100,18,15,Jits_Phase_8,0,1,48,49,1762015864
100,18,15,Jits_Phase_8,1,5,63,98,1762115892
100,18,15,Jits_Phase_8,2,5,80,127,1762145868
100,18,15,Jits_Phase_8,3,5,56,103,1762176364
100,18,15,Jits_Phase_8,0,1,48,49,1762896840
100,18,15,Jits_Phase_8,1,5,80,127,1762936052
100,18,15,Jits_Phase_8,2,5,63,98,1762946400
100,18,15,Jits_Phase_8,3,5,56,103,1762976072
100,18,15,Jits_Phase_8,0,5,80,127,1763635504
100,18,15,Jits_Phase_8,1,5,63,98,1763655964
100,18,15,Jits_Phase_8,2,5,56,103,1763706088
100,18,15,Jits_Phase_8,3,1,48,47,1763735808
100,18,15,Jits_Phase_8,0,1,48,34,1764416732
100,18,15,Jits_Phase_8,1,5,63,98,1764466056
100,18,15,Jits_Phase_8,2,5,80,127,1764525384
100,18,15,Jits_Phase_8,3,5,56,103,1764546068
100,18,15,Jits_Phase_8,0,1,48,45,1765218512
100,18,15,Jits_Phase_8,1,5,63,98,1765226028
100,18,15,Jits_Phase_8,2,5,56,103,1765276008
100,18,15,Jits_Phase_8,3,5,80,127,1765286352
100,18,15,Jits_Phase_8,0,1,48,45,1766011736
100,18,15,Jits_Phase_8,1,5,56,103,1766056276
100,18,15,Jits_Phase_8,2,5,80,127,1766065428
100,18,15,Jits_Phase_8,3,5,63,98,1766165976
100,18,15,Jits_Phase_8,0,1,48,48,1766749984
100,18,15,Jits_Phase_8,1,5,80,127,1766816028
100,18,15,Jits_Phase_8,2,5,63,98,1766826224
100,18,15,Jits_Phase_8,3,5,56,103,1766975996
100,18,15,Jits_Phase_8,0,5,63,98,1767625980
100,18,15,Jits_Phase_8,1,5,80,127,1767666164
100,18,15,Jits_Phase_8,2,1,48,46,1767717908
100,18,15,Jits_Phase_8,3,5,56,103,1767746024
100,18,15,Jits_Phase_8,0,5,56,103,1768375836
100,18,15,Jits_Phase_8,1,5,80,127,1768475964
100,18,15,Jits_Phase_8,2,5,63,98,1768495448
100,18,15,Jits_Phase_8,3,1,48,46,1768518268
100,18,15,Jits_Phase_8,0,5,80,127,1769195872
100,18,15,Jits_Phase_8,1,5,56,103,1769206068
100,18,15,Jits_Phase_8,2,1,48,49,1769246272
100,18,15,Jits_Phase_8,3,5,63,98,1769296192
100,18,15,Jits_Phase_8,0,1,48,46,1769987376
100,18,15,Jits_Phase_8,1,5,56,103,1769995716
100,18,15,Jits_Phase_8,2,5,63,98,1770016100
100,18,15,Jits_Phase_8,3,5,80,127,1770095952
100,18,15,Jits_Phase_8,0,1,48,45,1770722688
100,18,15,Jits_Phase_8,1,5,63,98,1770746176
100,18,15,Jits_Phase_8,2,5,56,103,1770836368
100,18,15,Jits_Phase_8,3,5,80,127,1770839508
100,18,15,Jits_Phase_8,0,1,48,47,1771520344
100,18,15,Jits_Phase_8,1,5,56,103,1771575740
100,18,15,Jits_Phase_8,2,5,80,127,1771635968
100,18,15,Jits_Phase_8,3,5,63,98,1771646312
100,18,15,Jits_Phase_8,0,1,48,44,1772256868
100,18,15,Jits_Phase_8,1,5,80,127,1772425752
100,18,15,Jits_Phase_8,2,5,56,103,1772435948
100,18,15,Jits_Phase_8,3,5,63,98,1772439088
100,18,15,Jits_Phase_8,0,1,48,55,1773139628
100,18,15,Jits_Phase_8,1,5,56,103,1773186488
100,18,15,Jits_Phase_8,2,5,80,127,1773195784
100,18,15,Jits_Phase_8,3,5,63,98,1773216244
100,18,15,Jits_Phase_8,0,5,63,98,1773955460
100,18,15,Jits_Phase_8,1,5,80,127,1774015924
100,18,15,Jits_Phase_8,2,1,48,61,1774052024
100,18,15,Jits_Phase_8,3,5,56,103,1774065920
100,18,15,Jits_Phase_8,0,5,63,98,1774836156
100,18,15,Jits_Phase_8,1,5,56,103,1774846280
100,18,15,Jits_Phase_8,2,1,48,55,1774875924
100,18,15,Jits_Phase_8,3,5,80,127,1774895572
100,18,15,Jits_Phase_8,0,5,63,98,1775535576
100,18,15,Jits_Phase_8,1,5,80,127,1775555888
100,18,15,Jits_Phase_8,2,5,56,103,1775566080
100,18,15,Jits_Phase_8,3,1,48,55,1775717552
100,18,15,Jits_Phase_8,0,1,48,51,1776319028
100,18,15,Jits_Phase_8,1,5,63,98,1776336212
100,18,15,Jits_Phase_8,2,5,80,127,1776339724
100,18,15,Jits_Phase_8,3,5,56,103,1776376100
100,18,15,Jits_Phase_8,0,1,48,51,1777048792
100,18,15,Jits_Phase_8,1,5,63,98,1777205792
100,18,15,Jits_Phase_8,2,5,80,127,1777236216
100,18,15,Jits_Phase_8,3,5,56,103,1777245888
100,18,15,Jits_Phase_8,0,5,56,103,1777956352
100,18,15,Jits_Phase_8,1,5,80,127,1777985876
100,18,15,Jits_Phase_8,2,5,63,98,1778015700
100,18,15,Jits_Phase_8,3,1,48,48,1778019940
100,18,15,Jits_Phase_8,0,1,48,51,1778816328
100,18,15,Jits_Phase_8,1,5,63,98,1778856508
100,18,15,Jits_Phase_8,2,5,56,103,1778896600
100,18,15,Jits_Phase_8,3,5,80,127,1778899364
100,18,15,Jits_Phase_8,0,5,80,127,1779555804
100,18,15,Jits_Phase_8,1,5,56,103,1779635528
100,18,15,Jits_Phase_8,2,1,48,52,1779685824
100,18,15,Jits_Phase_8,3,5,63,98,1779687088
100,18,15,Jits_Phase_8,0,5,80,127,1780336024
100,18,15,Jits_Phase_8,1,5,56,103,1780355584
100,18,15,Jits_Phase_8,2,5,63,98,1780445888
100,18,15,Jits_Phase_8,3,1,48,50,1780463084
100,18,15,Jits_Phase_8,0,5,80,127,1781175800
100,18,15,Jits_Phase_8,1,5,63,98,1781215540
100,18,15,Jits_Phase_8,2,1,48,47,1781216504
100,18,15,Jits_Phase_8,3,5,56,103,1781255692
100,18,15,Jits_Phase_8,0,5,63,98,1781985716
100,18,15,Jits_Phase_8,1,1,48,54,1782000588
100,18,15,Jits_Phase_8,2,5,80,127,1782045952
100,18,15,Jits_Phase_8,3,5,56,103,1782075776
100,18,15,Jits_Phase_8,0,5,56,103,1782826520
100,18,15,Jits_Phase_8,1,1,48,52,1782839604
100,18,15,Jits_Phase_8,2,5,80,127,1782856040
100,18,15,Jits_Phase_8,3,5,63,98,1782946156
100,18,15,Jits_Phase_8,0,5,56,103,1783636328
100,18,15,Jits_Phase_8,1,1,48,48,1783678036
100,18,15,Jits_Phase_8,2,5,80,127,1783745936
100,18,15,Jits_Phase_8,3,5,63,98,1783775548
100,18,15,Jits_Phase_8,0,5,56,103,1784486228
100,18,15,Jits_Phase_8,1,1,48,61,1784540316
100,18,15,Jits_Phase_8,2,5,63,98,1784545592
100,18,15,Jits_Phase_8,3,5,80,127,1784576464
100,18,15,Jits_Phase_8,0,5,56,103,1785256264
100,18,15,Jits_Phase_8,1,5,63,98,1785326044
100,18,15,Jits_Phase_8,2,5,80,127,1785346576
100,18,15,Jits_Phase_8,3,1,48,37,1785376824
100,18,15,Jits_Phase_8,0,5,80,127,1786026516
100,18,15,Jits_Phase_8,1,5,63,98,1786045708
100,18,15,Jits_Phase_8,2,5,56,103,1786095932
100,18,15,Jits_Phase_8,3,1,48,57,1786109388
100,18,15,Jits_Phase_8,0,1,48,53,1786820780
100,18,15,Jits_Phase_8,1,5,63,98,1786845636
100,18,15,Jits_Phase_8,2,5,80,127,1786855904
100,18,15,Jits_Phase_8,3,5,56,103,1786906104
100,18,15,Jits_Phase_8,0,1,48,58,1787645536
100,18,15,Jits_Phase_8,1,5,63,98,1787647108
100,18,15,Jits_Phase_8,2,5,80,127,1787715892
100,18,15,Jits_Phase_8,3,5,56,103,1787736576
100,18,15,Jits_Phase_8,0,1,48,55,1788467748
100,18,15,Jits_Phase_8,1,5,63,98,1788475792
100,18,15,Jits_Phase_8,2,5,80,127,1788479004
100,18,15,Jits_Phase_8,3,5,56,103,1788546516
100,18,15,Jits_Phase_8,0,5,80,127,1789226696
100,18,15,Jits_Phase_8,1,5,56,103,1789245740
100,18,15,Jits_Phase_8,2,5,63,98,1789256156
100,18,15,Jits_Phase_8,3,1,48,58,1789303464
100,18,15,Jits_Phase_8,0,5,56,103,1790045496
100,18,15,Jits_Phase_8,1,1,48,54,1790081796
100,18,15,Jits_Phase_8,2,5,63,98,1790135696
100,18,15,Jits_Phase_8,3,5,80,127,1790138912
100,18,15,Jits_Phase_8,0,5,80,127,1790815592
100,18,15,Jits_Phase_8,1,1,48,47,1790821628
100,18,15,Jits_Phase_8,2,5,56,103,1790825932
100,18,15,Jits_Phase_8,3,5,63,98,1790846612
100,18,15,Jits_Phase_8,0,1,48,59,1791610896
100,18,15,Jits_Phase_8,1,5,63,98,1791616544
100,18,15,Jits_Phase_8,2,5,80,127,1791675740
100,18,15,Jits_Phase_8,3,5,56,103,1791685936
100,18,15,Jits_Phase_8,0,1,48,50,1792437552
100,18,15,Jits_Phase_8,1,5,63,98,1792485704
100,18,15,Jits_Phase_8,2,5,80,127,1792515676
100,18,15,Jits_Phase_8,3,5,56,103,1792556348
100,18,15,Jits_Phase_8,0,5,56,103,1793276400
100,18,15,Jits_Phase_8,1,1,48,53,1793281612
100,18,15,Jits_Phase_8,2,5,80,127,1793285472
100,18,15,Jits_Phase_8,3,5,63,98,1793325632
100,18,15,Jits_Phase_8,0,5,80,127,1794036316
100,18,15,Jits_Phase_8,1,1,48,48,1794102512
100,18,15,Jits_Phase_8,2,5,56,103,1794115884
100,18,15,Jits_Phase_8,3,5,63,98,1794126304
100,18,15,Jits_Phase_8,0,5,80,127,1794885916
100,18,15,Jits_Phase_8,1,1,48,49,1794909636
100,18,15,Jits_Phase_8,2,5,56,103,1794965856
100,18,15,Jits_Phase_8,3,5,63,98,1794976124
100,18,15,Jits_Phase_8,0,5,80,127,1795725632
100,18,15,Jits_Phase_8,1,5,56,103,1795775984
100,18,15,Jits_Phase_8,2,1,48,53,1795819880
100,18,15,Jits_Phase_8,3,5,63,98,1795825904
100,18,15,Jits_Phase_8,0,1,48,49,1796654184
100,18,15,Jits_Phase_8,1,5,56,103,1796665736
100,18,15,Jits_Phase_8,2,5,63,98,1796668952
100,18,15,Jits_Phase_8,3,5,80,127,1796715788
100,18,15,Jits_Phase_8,0,5,56,103,1797485880
100,18,15,Jits_Phase_8,1,1,48,54,1797508180
100,18,15,Jits_Phase_8,2,5,63,98,1797515620
100,18,15,Jits_Phase_8,3,5,80,127,1797525816
100,18,15,Jits_Phase_8,0,5,63,98,1798195600
100,18,15,Jits_Phase_8,1,5,56,103,1798266332
100,18,15,Jits_Phase_8,2,5,80,127,1798316308
100,18,15,Jits_Phase_8,3,1,48,45,1798332752
100,18,15,Jits_Phase_8,0,5,63,98,1799025928
100,18,15,Jits_Phase_8,1,5,56,103,1799036416
100,18,15,Jits_Phase_8,2,5,80,127,1799039336
100,18,15,Jits_Phase_8,3,1,48,49,1799126884
100,18,15,Jits_Phase_8,0,5,80,127,1799775544
100,18,15,Jits_Phase_8,1,5,56,103,1799835936
100,18,15,Jits_Phase_8,2,1,48,55,1799877564
100,18,15,Jits_Phase_8,3,5,63,98,1799926456
100,18,15,Jits_Phase_8,0,5,80,127,1800576364
100,18,15,Jits_Phase_8,1,5,56,103,1800675668
100,18,15,Jits_Phase_8,2,1,48,49,1800681700
100,18,15,Jits_Phase_8,3,5,63,98,1800715744
100,18,15,Jits_Phase_8,0,5,56,103,1801426488
100,18,15,Jits_Phase_8,1,5,63,98,1801445628
100,18,15,Jits_Phase_8,2,5,80,127,1801485636
100,18,15,Jits_Phase_8,3,1,48,53,1801514680
100,18,15,Jits_Phase_8,0,5,63,98,1802196440
100,18,15,Jits_Phase_8,1,5,56,103,1802215652
100,18,15,Jits_Phase_8,2,1,48,54,1802265368
100,18,15,Jits_Phase_8,3,5,80,127,1802316412
100,18,15,Jits_Phase_8,0,5,63,98,1802985736
100,18,15,Jits_Phase_8,1,1,48,50,1803057856
100,18,15,Jits_Phase_8,2,5,80,127,1803096468
100,18,15,Jits_Phase_8,3,5,56,103,1803126288
100,18,15,Jits_Phase_8,0,5,56,103,1803805952
100,18,15,Jits_Phase_8,1,1,48,48,1803806916
100,18,15,Jits_Phase_8,2,5,63,98,1803835696
100,18,15,Jits_Phase_8,3,5,80,127,1803885820
100,18,15,Jits_Phase_8,0,5,63,98,1804576200
100,18,15,Jits_Phase_8,1,1,48,42,1804595880
100,18,15,Jits_Phase_8,2,5,56,103,1804605720
100,18,15,Jits_Phase_8,3,5,80,127,1804655996
100,18,15,Jits_Phase_8,0,1,48,54,1805355396
100,18,15,Jits_Phase_8,1,5,56,103,1805405464
100,18,15,Jits_Phase_8,2,5,63,98,1805426000
100,18,15,Jits_Phase_8,3,5,80,127,1805505924
100,18,15,Jits_Phase_8,0,1,48,51,1806120596
100,18,15,Jits_Phase_8,1,5,63,98,1806175552
100,18,15,Jits_Phase_8,2,5,56,103,1806236152
100,18,15,Jits_Phase_8,3,5,80,127,1806265824
100,18,15,Jits_Phase_8,0,1,48,51,1806987040
100,18,15,Jits_Phase_8,1,5,56,103,1807016284
100,18,15,Jits_Phase_8,2,5,80,127,1807075728
100,18,15,Jits_Phase_8,3,5,63,98,1807115580
100,18,15,Jits_Phase_8,0,1,48,49,1807759224
100,18,15,Jits_Phase_8,1,5,63,98,1807795520
100,18,15,Jits_Phase_8,2,5,56,103,1807856072
100,18,15,Jits_Phase_8,3,5,80,127,1807925600
100,18,15,Jits_Phase_8,0,1,48,48,1808643460
100,18,15,Jits_Phase_8,1,5,56,103,1808676292
100,18,15,Jits_Phase_8,2,5,63,98,1808685368
100,18,15,Jits_Phase_8,3,5,80,127,1808688804
100,18,15,Jits_Phase_8,0,5,63,98,1809415740
100,18,15,Jits_Phase_8,1,5,56,103,1809476132
100,18,15,Jits_Phase_8,2,5,80,127,1809479196
100,18,15,Jits_Phase_8,3,1,48,49,1809498804
100,18,15,Jits_Phase_8,0,5,63,98,1810195936
100,18,15,Jits_Phase_8,1,5,80,127,1810225536
100,18,15,Jits_Phase_8,2,1,48,53,1810235704
100,18,15,Jits_Phase_8,3,5,56,103,1810246432
100,18,15,Jits_Phase_8,0,5,56,103,1810925864
100,18,15,Jits_Phase_8,1,5,63,98,1810976292
100,18,15,Jits_Phase_8,2,1,48,56,1811014704
100,18,15,Jits_Phase_8,3,5,80,127,1811056076
100,18,15,Jits_Phase_8,0,5,80,127,1811626352
100,18,15,Jits_Phase_8,1,5,63,98,1811666292
100,18,15,Jits_Phase_8,2,5,56,103,1811685728
100,18,15,Jits_Phase_8,3,1,48,44,1811734396
100,18,15,Jits_Phase_8,0,1,48,49,1812444552
100,18,15,Jits_Phase_8,1,5,56,103,1812495596
100,18,15,Jits_Phase_8,2,5,80,127,1812506236
100,18,15,Jits_Phase_8,3,5,63,98,1812525352
100,18,15,Jits_Phase_8,0,1,48,49,1813218976
100,18,15,Jits_Phase_8,1,5,56,103,1813276096
100,18,15,Jits_Phase_8,2,5,63,98,1813326288
100,18,15,Jits_Phase_8,3,5,80,127,1813356036
100,18,15,Jits_Phase_8,0,5,56,103,1814025520
100,18,15,Jits_Phase_8,1,5,63,98,1814036088
100,18,15,Jits_Phase_8,2,5,80,127,1814086216
100,18,15,Jits_Phase_8,3,1,48,45,1814097724
100,18,15,Jits_Phase_8,0,1,48,46,1814803516
100,18,15,Jits_Phase_8,1,5,56,103,1814816284
100,18,15,Jits_Phase_8,2,5,80,127,1814819424
100,18,15,Jits_Phase_8,3,5,63,98,1814975848
100,18,15,Jits_Phase_8,0,1,48,47,1815594212
100,18,15,Jits_Phase_8,1,5,63,98,1815636260
100,18,15,Jits_Phase_8,2,5,56,103,1815706228
100,18,15,Jits_Phase_8,3,5,80,127,1815746016
100,18,15,Jits_Phase_8,0,5,63,98,1816476036
100,18,15,Jits_Phase_8,1,1,48,43,1816482668
100,18,15,Jits_Phase_8,2,5,56,103,1816566336
100,18,15,Jits_Phase_8,3,5,80,127,1816569328
100,18,15,Jits_Phase_8,0,5,56,103,1817256236
100,18,15,Jits_Phase_8,1,5,63,98,1817346396
100,18,15,Jits_Phase_8,2,1,48,53,1817351312
100,18,15,Jits_Phase_8,3,5,80,127,1817355612
100,18,15,Jits_Phase_8,0,5,56,103,1818026268
100,18,15,Jits_Phase_8,1,5,63,98,1818075524
100,18,15,Jits_Phase_8,2,5,80,127,1818106244
100,18,15,Jits_Phase_8,3,1,48,54,1818141944
100,18,15,Jits_Phase_8,0,1,48,53,1818837392
100,18,15,Jits_Phase_8,1,5,63,98,1818906072
100,18,15,Jits_Phase_8,2,5,80,127,1818916268
100,18,15,Jits_Phase_8,3,5,56,103,1818975520
100,18,15,Jits_Phase_8,0,5,63,98,1819625896
100,18,15,Jits_Phase_8,1,1,48,48,1819656444
100,18,15,Jits_Phase_8,2,5,80,127,1819686136
100,18,15,Jits_Phase_8,3,5,56,103,1819726144
100,18,15,Jits_Phase_8,0,1,48,53,1820468848
100,18,15,Jits_Phase_8,1,5,56,103,1820526192
100,18,15,Jits_Phase_8,2,5,80,127,1820546352
100,18,15,Jits_Phase_8,3,5,63,98,1820565972
100,18,15,Jits_Phase_8,0,5,63,98,1821245948
100,18,15,Jits_Phase_8,1,5,56,103,1821266184
100,18,15,Jits_Phase_8,2,5,80,127,1821306120
100,18,15,Jits_Phase_8,3,1,48,48,1821315612
100,18,15,Jits_Phase_8,0,1,48,47,1822030824
100,18,15,Jits_Phase_8,1,5,63,98,1822055960
100,18,15,Jits_Phase_8,2,5,80,127,1822085412
100,18,15,Jits_Phase_8,3,5,56,103,1822106016
100,18,15,Jits_Phase_8,0,1,48,51,1822813888
100,18,15,Jits_Phase_8,1,5,80,127,1822826044
100,18,15,Jits_Phase_8,2,5,56,103,1822876096
100,18,15,Jits_Phase_8,3,5,63,98,1822936572
100,18,15,Jits_Phase_8,0,5,63,98,1823616440
100,18,15,Jits_Phase_8,1,1,48,46,1823633260
100,18,15,Jits_Phase_8,2,5,56,103,1823736248
100,18,15,Jits_Phase_8,3,5,80,127,1823766072
100,18,15,Jits_Phase_8,0,5,80,127,1824456136
100,18,15,Jits_Phase_8,1,5,63,98,1824475648
100,18,15,Jits_Phase_8,2,1,48,49,1824496152
100,18,15,Jits_Phase_8,3,5,56,103,1824546144
100,18,15,Jits_Phase_8,0,5,63,98,1825276236
100,18,15,Jits_Phase_8,1,5,56,103,1825285536
100,18,15,Jits_Phase_8,2,1,48,52,1825299216
100,18,15,Jits_Phase_8,3,5,80,127,1825366296
100,18,15,Jits_Phase_8,0,1,48,53,1826078512
100,18,15,Jits_Phase_8,1,5,56,103,1826136532
100,18,15,Jits_Phase_8,2,5,80,127,1826166280
100,18,15,Jits_Phase_8,3,5,63,98,1826176540
100,18,15,Jits_Phase_8,0,9999,9999,9999,1691283584
100,18,15,Jits_Phase_8,1,9999,9999,9999,1692083300
100,18,15,Jits_Phase_8,2,9999,9999,9999,1692884080
100,18,15,Jits_Phase_8,3,9999,9999,9999,1693683840
100,18,15,Jits_Phase_8,4,9999,9999,9999,1694483548
100,18,15,Jits_Phase_8,5,9999,9999,9999,1695283308
100,18,15,Jits_Phase_8,6,9999,9999,9999,1696084032
100,18,15,Jits_Phase_8,7,9999,9999,9999,1696883780
100,18,15,Jits_Phase_8,8,9999,9999,9999,1697683544
100,18,15,Jits_Phase_8,9,9999,9999,9999,1698483288
100,18,15,Jits_Phase_8,10,9999,9999,9999,1699284040
100,18,15,Jits_Phase_8,11,9999,9999,9999,1700083816
100,18,15,Jits_Phase_8,12,9999,9999,9999,1700883520
100,18,15,Jits_Phase_8,13,9999,9999,9999,1701683288
100,18,15,Jits_Phase_8,14,9999,9999,9999,1702484080
100,18,15,Jits_Phase_8,15,9999,9999,9999,1703283768
100,18,15,Jits_Phase_8,16,9999,9999,9999,1704083584
100,18,15,Jits_Phase_8,17,9999,9999,9999,1704883276
100,18,15,Jits_Phase_8,18,9999,9999,9999,1705684080
100,18,15,Jits_Phase_8,19,9999,9999,9999,1706483800
100,18,15,Jits_Phase_8,20,9999,9999,9999,1707283552
100,18,15,Jits_Phase_8,21,9999,9999,9999,1708083308
100,18,15,Jits_Phase_8,22,9999,9999,9999,1708884044
100,18,15,Jits_Phase_8,23,9999,9999,9999,1709683812
100,18,15,Jits_Phase_8,24,9999,9999,9999,1710483564
100,18,15,Jits_Phase_8,25,9999,9999,9999,1711283320
100,18,15,Jits_Phase_8,26,9999,9999,9999,1712084048
100,18,15,Jits_Phase_8,27,9999,9999,9999,1712883828
100,18,15,Jits_Phase_8,28,9999,9999,9999,1713683524
100,18,15,Jits_Phase_8,29,9999,9999,9999,1714483304
100,18,15,Jits_Phase_8,30,9999,9999,9999,1715263580
100,18,15,Jits_Phase_8,31,9999,9999,9999,1716063340
100,18,15,Jits_Phase_8,32,9999,9999,9999,1716864080
100,18,15,Jits_Phase_8,33,9999,9999,9999,1717674108
100,18,15,Jits_Phase_8,34,9999,9999,9999,1718473804
100,18,15,Jits_Phase_8,35,9999,9999,9999,1719273592
100,18,15,Jits_Phase_8,36,9999,9999,9999,1720073284
100,18,15,Jits_Phase_8,37,9999,9999,9999,1720874096
100,18,15,Jits_Phase_8,38,9999,9999,9999,1721673784
100,18,15,Jits_Phase_8,39,9999,9999,9999,1722473560
100,18,15,Jits_Phase_8,40,9999,9999,9999,1723273320
100,18,15,Jits_Phase_8,41,9999,9999,9999,1724074048
100,18,15,Jits_Phase_8,42,9999,9999,9999,1724873800
100,18,15,Jits_Phase_8,43,9999,9999,9999,1725673552
100,18,15,Jits_Phase_8,44,9999,9999,9999,1726473276
100,18,15,Jits_Phase_8,45,9999,9999,9999,1727274084
100,18,15,Jits_Phase_8,46,9999,9999,9999,1728073784
100,18,15,Jits_Phase_8,47,9999,9999,9999,1728873536
100,18,15,Jits_Phase_8,48,9999,9999,9999,1729693760
100,18,15,Jits_Phase_8,49,9999,9999,9999,1730493512
100,18,15,Jits_Phase_8,50,9999,9999,9999,1731293292
100,18,15,Jits_Phase_8,51,9999,9999,9999,1732094020
100,18,15,Jits_Phase_8,52,9999,9999,9999,1732893784
100,18,15,Jits_Phase_8,53,9999,9999,9999,1733693548
100,18,15,Jits_Phase_8,54,9999,9999,9999,1734493300
100,18,15,Jits_Phase_8,55,9999,9999,9999,1735294044
100,18,15,Jits_Phase_8,56,9999,9999,9999,1736093796
100,18,15,Jits_Phase_8,57,9999,9999,9999,1736893556
100,18,15,Jits_Phase_8,58,9999,9999,9999,1737693264
100,18,15,Jits_Phase_8,59,9999,9999,9999,1738494068
100,18,15,Jits_Phase_8,60,9999,9999,9999,1739293820
100,18,15,Jits_Phase_8,61,9999,9999,9999,1740093520
100,18,15,Jits_Phase_8,62,9999,9999,9999,1740893296
100,18,15,Jits_Phase_8,63,9999,9999,9999,1741694064
100,18,15,Jits_Phase_8,64,9999,9999,9999,1742533704
100,18,15,Jits_Phase_8,65,9999,9999,9999,1743333492
100,18,15,Jits_Phase_8,66,9999,9999,9999,1744133176
100,18,15,Jits_Phase_8,67,9999,9999,9999,1744933988
100,18,15,Jits_Phase_8,68,9999,9999,9999,1745733744
100,18,15,Jits_Phase_8,69,9999,9999,9999,1746533440
100,18,15,Jits_Phase_8,70,9999,9999,9999,1747333208
100,18,15,Jits_Phase_8,71,9999,9999,9999,1748133948
100,18,15,Jits_Phase_8,72,9999,9999,9999,1748933700
100,18,15,Jits_Phase_8,73,9999,9999,9999,1749733500
100,18,15,Jits_Phase_8,74,9999,9999,9999,1750533204
100,18,15,Jits_Phase_8,75,9999,9999,9999,1751334012
100,18,15,Jits_Phase_8,76,9999,9999,9999,1752133708
100,18,15,Jits_Phase_8,77,9999,9999,9999,1752933484
100,18,15,Jits_Phase_8,78,9999,9999,9999,1753733248
100,18,15,Jits_Phase_8,79,9999,9999,9999,1754533988
100,18,15,Jits_Phase_8,80,9999,9999,9999,1755333748
100,18,15,Jits_Phase_8,81,9999,9999,9999,1756093500
100,18,15,Jits_Phase_8,82,9999,9999,9999,1756893284
100,18,15,Jits_Phase_8,83,9999,9999,9999,1757694008
100,18,15,Jits_Phase_8,84,9999,9999,9999,1758493780
100,18,15,Jits_Phase_8,85,9999,9999,9999,1759293528
100,18,15,Jits_Phase_8,86,9999,9999,9999,1760093288
100,18,15,Jits_Phase_8,87,9999,9999,9999,1760894016
100,18,15,Jits_Phase_8,88,9999,9999,9999,1761693764
100,18,15,Jits_Phase_8,89,9999,9999,9999,1762493532
100,18,15,Jits_Phase_8,90,9999,9999,9999,1763293248
100,18,15,Jits_Phase_8,91,9999,9999,9999,1764094048
100,18,15,Jits_Phase_8,92,9999,9999,9999,1764893824
100,18,15,Jits_Phase_8,93,9999,9999,9999,1765693500
100,18,15,Jits_Phase_8,94,9999,9999,9999,1766493260
100,18,15,Jits_Phase_8,95,9999,9999,9999,1767294060
100,18,15,Jits_Phase_8,96,9999,9999,9999,1768093816
100,18,15,Jits_Phase_8,97,9999,9999,9999,1768813640
100,18,15,Jits_Phase_8,98,9999,9999,9999,1769613416
100,18,15,Jits_Phase_8,99,9999,9999,9999,1770413120
100,18,15,Jits_Phase_8,100,9999,9999,9999,1771213912
100,18,15,Jits_Phase_8,101,9999,9999,9999,1772013696
100,18,15,Jits_Phase_8,102,9999,9999,9999,1772813372
100,18,15,Jits_Phase_8,103,9999,9999,9999,1773613128
100,18,15,Jits_Phase_8,104,9999,9999,9999,1774413932
100,18,15,Jits_Phase_8,105,9999,9999,9999,1775213624
100,18,15,Jits_Phase_8,106,9999,9999,9999,1776013372
100,18,15,Jits_Phase_8,107,9999,9999,9999,1776813112
100,18,15,Jits_Phase_8,108,9999,9999,9999,1777613920
100,18,15,Jits_Phase_8,109,9999,9999,9999,1778413628
100,18,15,Jits_Phase_8,110,9999,9999,9999,1779213400
100,18,15,Jits_Phase_8,111,9999,9999,9999,1780013160
100,18,15,Jits_Phase_8,112,9999,9999,9999,1780813900
100,18,15,Jits_Phase_8,113,9999,9999,9999,1781613672
100,18,15,Jits_Phase_8,114,9999,9999,9999,1782493256
100,18,15,Jits_Phase_8,115,9999,9999,9999,1783294060
100,18,15,Jits_Phase_8,116,9999,9999,9999,1784093760
100,18,15,Jits_Phase_8,117,9999,9999,9999,1784893540
100,18,15,Jits_Phase_8,118,9999,9999,9999,1785693240
100,18,15,Jits_Phase_8,119,9999,9999,9999,1786494056
100,18,15,Jits_Phase_8,120,9999,9999,9999,1787293820
100,18,15,Jits_Phase_8,121,9999,9999,9999,1788093508
100,18,15,Jits_Phase_8,122,9999,9999,9999,1788893288
100,18,15,Jits_Phase_8,123,9999,9999,9999,1789694008
100,18,15,Jits_Phase_8,124,9999,9999,9999,1790493776
100,18,15,Jits_Phase_8,125,9999,9999,9999,1791293536
100,18,15,Jits_Phase_8,126,9999,9999,9999,1792093304
100,18,15,Jits_Phase_8,127,9999,9999,9999,1792894040
100,18,15,Jits_Phase_8,128,9999,9999,9999,1793693796
100,18,15,Jits_Phase_8,129,9999,9999,9999,1794493496
100,18,15,Jits_Phase_8,130,9999,9999,9999,1795293304
100,18,15,Jits_Phase_8,131,9999,9999,9999,1796253772
100,18,15,Jits_Phase_8,132,9999,9999,9999,1797053544
100,18,15,Jits_Phase_8,133,9999,9999,9999,1797853260
100,18,15,Jits_Phase_8,134,9999,9999,9999,1798654076
100,18,15,Jits_Phase_8,135,9999,9999,9999,1799453820
100,18,15,Jits_Phase_8,136,9999,9999,9999,1800253500
100,18,15,Jits_Phase_8,137,9999,9999,9999,1801053276
100,18,15,Jits_Phase_8,138,9999,9999,9999,1801854020
100,18,15,Jits_Phase_8,139,9999,9999,9999,1802653792
100,18,15,Jits_Phase_8,140,9999,9999,9999,1803453556
100,18,15,Jits_Phase_8,141,9999,9999,9999,1804253260
100,18,15,Jits_Phase_8,142,9999,9999,9999,1805054076
100,18,15,Jits_Phase_8,143,9999,9999,9999,1805853756
100,18,15,Jits_Phase_8,144,9999,9999,9999,1806653508
100,18,15,Jits_Phase_8,145,9999,9999,9999,1807453272
100,18,15,Jits_Phase_8,146,9999,9999,9999,1808254076
100,18,15,Jits_Phase_8,147,9999,9999,9999,1809053756
100,18,15,Jits_Phase_8,148,9999,9999,9999,1809853508
100,18,15,Jits_Phase_8,149,9999,9999,9999,1810653284
100,18,15,Jits_Phase_8,150,9999,9999,9999,1811293300
100,18,15,Jits_Phase_8,151,9999,9999,9999,1812094040
100,18,15,Jits_Phase_8,152,9999,9999,9999,1812893816
100,18,15,Jits_Phase_8,153,9999,9999,9999,1813693504
100,18,15,Jits_Phase_8,154,9999,9999,9999,1814493280
100,18,15,Jits_Phase_8,155,9999,9999,9999,1815294012
100,18,15,Jits_Phase_8,156,9999,9999,9999,1816093772
100,18,15,Jits_Phase_8,157,9999,9999,9999,1816893528
100,18,15,Jits_Phase_8,158,9999,9999,9999,1817693288
100,18,15,Jits_Phase_8,159,9999,9999,9999,1818494032
100,18,15,Jits_Phase_8,160,9999,9999,9999,1819293804
100,18,15,Jits_Phase_8,161,9999,9999,9999,1820093564
100,18,15,Jits_Phase_8,162,9999,9999,9999,1820893280
100,18,15,Jits_Phase_8,163,9999,9999,9999,1821694080
100,18,15,Jits_Phase_8,164,9999,9999,9999,1822493760
100,18,15,Jits_Phase_8,165,9999,9999,9999,1823293516
100,18,15,Jits_Phase_8,166,9999,9999,9999,1824093276
100,18,15,Jits_Phase_8,167,9999,9999,9999,1824894008
100,18,15,Jits_Phase_8,168,9999,9999,9999,1825693788
100,18,15,Jits_Phase_8,169,9999,9999,9999,1826493560
100,19,17,Jits_Phase_5,0,5,56,103,1834557092
100,19,17,Jits_Phase_5,1,5,63,98,1834559964
100,19,17,Jits_Phase_5,2,5,80,127,1834563156
100,19,17,Jits_Phase_5,0,5,56,103,1835056428
100,19,17,Jits_Phase_5,1,5,63,98,1835059752
100,19,17,Jits_Phase_5,2,5,80,127,1835062868
100,19,17,Jits_Phase_5,0,5,56,103,1835557196
100,19,17,Jits_Phase_5,1,5,80,127,1835566496
100,19,17,Jits_Phase_5,2,5,63,98,1835586880
100,19,17,Jits_Phase_5,0,5,63,98,1836007104
100,19,17,Jits_Phase_5,1,5,80,127,1836036408
100,19,17,Jits_Phase_5,2,5,56,103,1836046824
100,19,17,Jits_Phase_5,0,1,48,51,1836559072
100,19,17,Jits_Phase_5,1,5,80,127,1836567040
100,19,17,Jits_Phase_5,2,5,56,103,1836577088
100,19,17,Jits_Phase_5,3,5,63,98,1836606912
100,19,17,Jits_Phase_5,0,5,63,98,1837057436
100,19,17,Jits_Phase_5,1,1,48,50,1837071792
100,19,17,Jits_Phase_5,2,5,56,103,1837087104
100,19,17,Jits_Phase_5,3,5,80,127,1837097376
100,19,17,Jits_Phase_5,0,5,56,103,1837506968
100,19,17,Jits_Phase_5,1,5,63,98,1837557044
100,19,17,Jits_Phase_5,2,1,48,52,1837558008
100,19,17,Jits_Phase_5,3,5,80,127,1837576820
100,19,17,Jits_Phase_5,0,5,80,127,1838006880
100,19,17,Jits_Phase_5,1,1,48,51,1838016524
100,19,17,Jits_Phase_5,2,5,63,98,1838056724
100,19,17,Jits_Phase_5,3,5,56,103,1838096736
100,19,17,Jits_Phase_5,0,5,56,103,1838507244
100,19,17,Jits_Phase_5,1,5,63,98,1838537068
100,19,17,Jits_Phase_5,2,1,48,43,1838544000
100,19,17,Jits_Phase_5,3,5,80,127,1838606688
100,19,17,Jits_Phase_5,0,5,56,103,1839007224
100,19,17,Jits_Phase_5,1,1,48,43,1839021504
100,19,17,Jits_Phase_5,2,5,80,127,1839066732
100,19,17,Jits_Phase_5,3,5,63,98,1839097156
100,19,17,Jits_Phase_5,0,5,56,103,1839516956
100,19,17,Jits_Phase_5,1,5,63,98,1839527376
100,19,17,Jits_Phase_5,2,1,48,57,1839541952
100,19,17,Jits_Phase_5,3,5,80,127,1839567228
100,19,17,Jits_Phase_5,0,5,63,98,1840006452
100,19,17,Jits_Phase_5,1,1,48,52,1840038788
100,19,17,Jits_Phase_5,2,5,80,127,1840087388
100,19,17,Jits_Phase_5,3,5,56,103,1840096832
100,19,17,Jits_Phase_5,0,1,48,56,1840545880
100,19,17,Jits_Phase_5,1,5,63,98,1840557588
100,19,17,Jits_Phase_5,2,5,56,103,1840597448
100,19,17,Jits_Phase_5,3,5,80,127,1840600688
100,19,17,Jits_Phase_5,0,5,56,103,1841017256
100,19,17,Jits_Phase_5,1,5,63,98,1841026628
100,19,17,Jits_Phase_5,2,5,80,127,1841067316
100,19,17,Jits_Phase_5,3,1,48,53,1841073352
100,19,17,Jits_Phase_5,0,5,56,103,1841506908
100,19,17,Jits_Phase_5,1,5,63,98,1841509820
100,19,17,Jits_Phase_5,2,5,80,127,1841527284
100,19,17,Jits_Phase_5,3,1,48,51,1841537080
100,19,17,Jits_Phase_5,0,1,48,52,1842002940
100,19,17,Jits_Phase_5,1,5,80,127,1842016912
100,19,17,Jits_Phase_5,2,5,56,103,1842026884
100,19,17,Jits_Phase_5,3,5,63,98,1842096636
100,19,17,Jits_Phase_5,0,5,63,98,1842507004
100,19,17,Jits_Phase_5,1,1,48,51,1842511688
100,19,17,Jits_Phase_5,2,5,56,103,1842526856
100,19,17,Jits_Phase_5,3,5,80,127,1842606424
100,19,17,Jits_Phase_5,0,5,56,103,1843017092
100,19,17,Jits_Phase_5,1,1,48,58,1843032340
100,19,17,Jits_Phase_5,2,5,80,127,1843056872
100,19,17,Jits_Phase_5,3,5,63,98,1843067440
100,19,17,Jits_Phase_5,0,5,80,127,1843506740
100,19,17,Jits_Phase_5,1,1,48,59,1843537464
100,19,17,Jits_Phase_5,2,5,63,98,1843538876
100,19,17,Jits_Phase_5,3,5,56,103,1843577244
100,19,17,Jits_Phase_5,0,1,48,60,1843991704
100,19,17,Jits_Phase_5,1,5,56,103,1844026872
100,19,17,Jits_Phase_5,2,5,63,98,1844056400
100,19,17,Jits_Phase_5,3,5,80,127,1844106732
100,19,17,Jits_Phase_5,0,1,48,53,1844505628
100,19,17,Jits_Phase_5,1,5,80,127,1844526400
100,19,17,Jits_Phase_5,2,5,56,103,1844567312
100,19,17,Jits_Phase_5,3,5,63,98,1844576904
100,19,17,Jits_Phase_5,0,5,80,127,1845006676
100,19,17,Jits_Phase_5,1,1,48,52,1845029052
100,19,17,Jits_Phase_5,2,5,63,98,1845046684
100,19,17,Jits_Phase_5,3,5,56,103,1845107144
100,19,17,Jits_Phase_5,0,5,56,103,1845506440
100,19,17,Jits_Phase_5,1,5,80,127,1845516932
100,19,17,Jits_Phase_5,2,1,48,58,1845537656
100,19,17,Jits_Phase_5,3,5,63,98,1845596640
100,19,17,Jits_Phase_5,0,5,80,127,1846007096
100,19,17,Jits_Phase_5,1,1,48,51,1846034104
100,19,17,Jits_Phase_5,2,5,63,98,1846066804
100,19,17,Jits_Phase_5,3,5,56,103,1846097304
100,19,17,Jits_Phase_5,0,5,56,103,1846506860
100,19,17,Jits_Phase_5,1,1,48,49,1846567768
100,19,17,Jits_Phase_5,2,5,80,127,1846568960
100,19,17,Jits_Phase_5,3,5,63,98,1846607256
100,19,17,Jits_Phase_5,0,5,56,103,1847056820
100,19,17,Jits_Phase_5,1,5,63,98,1847067088
100,19,17,Jits_Phase_5,2,5,80,127,1847070376
100,19,17,Jits_Phase_5,3,1,48,52,1847089388
100,19,17,Jits_Phase_5,0,5,80,127,1847507252
100,19,17,Jits_Phase_5,1,1,48,56,1847578496
100,19,17,Jits_Phase_5,2,5,63,98,1847597548
100,19,17,Jits_Phase_5,3,5,56,103,1847606700
100,19,17,Jits_Phase_5,0,5,56,103,1848007000
100,19,17,Jits_Phase_5,1,5,63,98,1848010168
100,19,17,Jits_Phase_5,2,5,80,127,1848013364
100,19,17,Jits_Phase_5,3,1,48,56,1848076680
100,19,17,Jits_Phase_5,0,5,80,127,1848527204
100,19,17,Jits_Phase_5,1,1,48,46,1848567660
100,19,17,Jits_Phase_5,2,5,63,98,1848577500
100,19,17,Jits_Phase_5,3,5,56,103,1848607172
100,19,17,Jits_Phase_5,0,5,56,103,1849006592
100,19,17,Jits_Phase_5,1,5,80,127,1849016788
100,19,17,Jits_Phase_5,2,1,48,55,1849055448
100,19,17,Jits_Phase_5,3,5,63,98,1849087380
100,19,17,Jits_Phase_5,0,5,56,103,1849517512
100,19,17,Jits_Phase_5,1,5,63,98,1849536924
100,19,17,Jits_Phase_5,2,1,48,51,1849550980
100,19,17,Jits_Phase_5,3,5,80,127,1849597180
100,19,17,Jits_Phase_5,0,5,80,127,1849996604
100,19,17,Jits_Phase_5,1,1,48,52,1850046324
100,19,17,Jits_Phase_5,2,5,63,98,1850067400
100,19,17,Jits_Phase_5,3,5,56,103,1850086760
100,19,17,Jits_Phase_5,0,5,80,127,1850516968
100,19,17,Jits_Phase_5,1,5,56,103,1850527092
100,19,17,Jits_Phase_5,2,5,63,98,1850537288
100,19,17,Jits_Phase_5,3,1,48,59,1850572684
100,19,17,Jits_Phase_5,0,5,80,127,1851016512
100,19,17,Jits_Phase_5,1,5,56,103,1851037116
100,19,17,Jits_Phase_5,2,1,48,54,1851038604
100,19,17,Jits_Phase_5,3,5,63,98,1851106812
100,19,17,Jits_Phase_5,0,5,56,103,1851526760
100,19,17,Jits_Phase_5,1,1,48,50,1851553544
100,19,17,Jits_Phase_5,2,5,80,127,1851557176
100,19,17,Jits_Phase_5,3,5,63,98,1851576736
100,19,17,Jits_Phase_5,0,5,63,98,1852017080
100,19,17,Jits_Phase_5,1,1,48,54,1852062668
100,19,17,Jits_Phase_5,2,5,56,103,1852077612
100,19,17,Jits_Phase_5,3,5,80,127,1852107136
100,19,17,Jits_Phase_5,0,5,63,98,1852506492
100,19,17,Jits_Phase_5,1,5,80,127,1852509632
100,19,17,Jits_Phase_5,2,1,48,52,1852562716
100,19,17,Jits_Phase_5,3,5,56,103,1852596836
100,19,17,Jits_Phase_5,0,5,56,103,1853026832
100,19,17,Jits_Phase_5,1,5,63,98,1853057628
100,19,17,Jits_Phase_5,2,1,48,53,1853078732
100,19,17,Jits_Phase_5,3,5,80,127,1853097408
100,19,17,Jits_Phase_5,0,5,63,98,1853527420
100,19,17,Jits_Phase_5,1,5,56,103,1853567284
100,19,17,Jits_Phase_5,2,1,48,51,1853572496
100,19,17,Jits_Phase_5,3,5,80,127,1853586764
100,19,17,Jits_Phase_5,0,5,63,98,1854037436
100,19,17,Jits_Phase_5,1,1,48,53,1854058836
100,19,17,Jits_Phase_5,2,5,56,103,1854077440
100,19,17,Jits_Phase_5,3,5,80,127,1854086736
100,19,17,Jits_Phase_5,0,5,80,127,1854516584
100,19,17,Jits_Phase_5,1,1,48,56,1854574848
100,19,17,Jits_Phase_5,2,5,63,98,1854587228
100,19,17,Jits_Phase_5,3,5,56,103,1854606792
100,19,17,Jits_Phase_5,0,5,56,103,1855007060
100,19,17,Jits_Phase_5,1,5,80,127,1855026768
100,19,17,Jits_Phase_5,2,5,63,98,1855066556
100,19,17,Jits_Phase_5,3,1,48,58,1855076872
100,19,17,Jits_Phase_5,0,5,63,98,1855517012
100,19,17,Jits_Phase_5,1,5,80,127,1855536720
100,19,17,Jits_Phase_5,2,1,48,54,1855567856
100,19,17,Jits_Phase_5,3,5,56,103,1855576576
100,19,17,Jits_Phase_5,0,5,63,98,1856016684
100,19,17,Jits_Phase_5,1,5,56,103,1856037588
100,19,17,Jits_Phase_5,2,5,80,127,1856046664
100,19,17,Jits_Phase_5,3,1,48,53,1856054192
100,19,17,Jits_Phase_5,0,5,80,127,1856516576
100,19,17,Jits_Phase_5,1,5,56,103,1856536960
100,19,17,Jits_Phase_5,2,1,48,51,1856557536
100,19,17,Jits_Phase_5,3,5,63,98,1856566700
100,19,17,Jits_Phase_5,0,1,48,59,1857063492
100,19,17,Jits_Phase_5,1,5,56,103,1857086900
100,19,17,Jits_Phase_5,2,5,80,127,1857090040
100,19,17,Jits_Phase_5,3,5,63,98,1857107432
100,19,17,Jits_Phase_5,0,5,63,98,1857506568
100,19,17,Jits_Phase_5,1,5,56,103,1857537436
100,19,17,Jits_Phase_5,2,1,48,54,1857582132
100,19,17,Jits_Phase_5,3,5,80,127,1857596844
100,19,17,Jits_Phase_5,0,1,48,51,1858045392
100,19,17,Jits_Phase_5,1,5,63,98,1858087368
100,19,17,Jits_Phase_5,2,5,56,103,1858096816
100,19,17,Jits_Phase_5,3,5,80,127,1858106712
100,19,17,Jits_Phase_5,0,1,48,50,1858544384
100,19,17,Jits_Phase_5,1,5,56,103,1858546968
100,19,17,Jits_Phase_5,2,5,80,127,1858576720
100,19,17,Jits_Phase_5,3,5,63,98,1858586988
100,19,17,Jits_Phase_5,0,1,48,57,1859061972
100,19,17,Jits_Phase_5,1,5,63,98,1859086656
100,19,17,Jits_Phase_5,2,5,56,103,1859096924
100,19,17,Jits_Phase_5,3,5,80,127,1859117604
100,19,17,Jits_Phase_5,0,5,56,103,1859516716
100,19,17,Jits_Phase_5,1,1,48,58,1859561584
100,19,17,Jits_Phase_5,2,5,63,98,1859577196
100,19,17,Jits_Phase_5,3,5,80,127,1859580708
100,19,17,Jits_Phase_5,0,5,80,127,1860036924
100,19,17,Jits_Phase_5,1,1,48,59,1860044748
100,19,17,Jits_Phase_5,2,5,56,103,1860047332
100,19,17,Jits_Phase_5,3,5,63,98,1860116812
100,19,17,Jits_Phase_5,0,5,80,127,1860526572
100,19,17,Jits_Phase_5,1,1,48,53,1860550216
100,19,17,Jits_Phase_5,2,5,56,103,1860597092
100,19,17,Jits_Phase_5,3,5,63,98,1860607512
100,19,17,Jits_Phase_5,0,1,48,55,1861038056
100,19,17,Jits_Phase_5,1,5,63,98,1861067152
100,19,17,Jits_Phase_5,2,5,56,103,1861077572
100,19,17,Jits_Phase_5,3,5,80,127,1861096760
100,19,17,Jits_Phase_5,0,5,80,127,1861516620
100,19,17,Jits_Phase_5,1,1,48,58,1861553816
100,19,17,Jits_Phase_5,2,5,63,98,1861577148
100,19,17,Jits_Phase_5,3,5,56,103,1861616888
100,19,17,Jits_Phase_5,0,5,56,103,1862057440
100,19,17,Jits_Phase_5,1,5,63,98,1862066588
100,19,17,Jits_Phase_5,2,1,48,57,1862073448
100,19,17,Jits_Phase_5,3,5,80,127,1862106616
100,19,17,Jits_Phase_5,0,5,56,103,1862527460
100,19,17,Jits_Phase_5,1,5,80,127,1862556912
100,19,17,Jits_Phase_5,2,1,48,55,1862563616
100,19,17,Jits_Phase_5,3,5,63,98,1862607324
100,19,17,Jits_Phase_5,0,5,56,103,1863067080
100,19,17,Jits_Phase_5,1,1,48,52,1863072144
100,19,17,Jits_Phase_5,2,5,63,98,1863106860
100,19,17,Jits_Phase_5,3,5,80,127,1863110300
100,19,17,Jits_Phase_5,0,5,56,103,1863566688
100,19,17,Jits_Phase_5,1,5,63,98,1863577108
100,19,17,Jits_Phase_5,2,1,48,56,1863593480
100,19,17,Jits_Phase_5,3,5,80,127,1863597412
100,19,17,Jits_Phase_5,0,5,56,103,1864026592
100,19,17,Jits_Phase_5,1,5,80,127,1864029660
100,19,17,Jits_Phase_5,2,5,63,98,1864066456
100,19,17,Jits_Phase_5,3,1,48,59,1864077520
100,19,17,Jits_Phase_5,0,1,48,57,1864561588
100,19,17,Jits_Phase_5,1,5,63,98,1864567092
100,19,17,Jits_Phase_5,2,5,56,103,1864596844
100,19,17,Jits_Phase_5,3,5,80,127,1864617524
100,19,17,Jits_Phase_5,0,5,80,127,1865037108
100,19,17,Jits_Phase_5,1,5,56,103,1865047600
100,19,17,Jits_Phase_5,2,5,63,98,1865056676
100,19,17,Jits_Phase_5,3,1,48,62,1865085864
100,19,17,Jits_Phase_5,0,5,56,103,1865536940
100,19,17,Jits_Phase_5,1,1,48,52,1865551220
100,19,17,Jits_Phase_5,2,5,80,127,1865576872
100,19,17,Jits_Phase_5,3,5,63,98,1865606544
100,19,17,Jits_Phase_5,0,5,63,98,1866046968
100,19,17,Jits_Phase_5,1,1,48,61,1866050688
100,19,17,Jits_Phase_5,2,5,80,127,1866057156
100,19,17,Jits_Phase_5,3,5,56,103,1866067576
100,19,17,Jits_Phase_5,0,5,56,103,1866537424
100,19,17,Jits_Phase_5,1,1,48,54,1866566544
100,19,17,Jits_Phase_5,2,5,63,98,1866606876
100,19,17,Jits_Phase_5,3,5,80,127,1866617216
100,19,17,Jits_Phase_5,0,5,80,127,1867047376
100,19,17,Jits_Phase_5,1,5,56,103,1867056524
100,19,17,Jits_Phase_5,2,1,48,51,1867062560
100,19,17,Jits_Phase_5,3,5,63,98,1867106716
100,19,17,Jits_Phase_5,0,5,80,127,1867557324
100,19,17,Jits_Phase_5,1,1,48,50,1867562088
100,19,17,Jits_Phase_5,2,5,56,103,1867616660
100,19,17,Jits_Phase_5,3,5,63,98,1867647604
100,19,17,Jits_Phase_5,0,5,56,103,1868056940
100,19,17,Jits_Phase_5,1,5,80,127,1868060080
100,19,17,Jits_Phase_5,2,1,48,54,1868068600
100,19,17,Jits_Phase_5,3,5,63,98,1868096796
100,19,17,Jits_Phase_5,0,1,48,56,1868584296
100,19,17,Jits_Phase_5,1,5,56,103,1868587552
100,19,17,Jits_Phase_5,2,5,63,98,1868617004
100,19,17,Jits_Phase_5,3,5,80,127,1868627420
100,19,17,Jits_Phase_5,0,5,63,98,1869097352
100,19,17,Jits_Phase_5,1,5,80,127,1869106500
100,19,17,Jits_Phase_5,2,5,56,103,1869116920
100,19,17,Jits_Phase_5,3,1,48,56,1869119668
100,19,17,Jits_Phase_5,0,5,80,127,1869546832
100,19,17,Jits_Phase_5,1,5,56,103,1869597180
100,19,17,Jits_Phase_5,2,5,63,98,1869600392
100,19,17,Jits_Phase_5,3,1,48,51,1869617160
100,19,17,Jits_Phase_5,0,5,56,103,1870077448
100,19,17,Jits_Phase_5,1,5,80,127,1870096712
100,19,17,Jits_Phase_5,2,1,48,52,1870105392
100,19,17,Jits_Phase_5,3,5,63,98,1870106976
100,19,17,Jits_Phase_5,0,5,63,98,1870556464
100,19,17,Jits_Phase_5,1,5,56,103,1870587556
100,19,17,Jits_Phase_5,2,1,48,54,1870591944
100,19,17,Jits_Phase_5,3,5,80,127,1870606664
100,19,17,Jits_Phase_5,0,5,56,103,1871066400
100,19,17,Jits_Phase_5,1,5,80,127,1871076596
100,19,17,Jits_Phase_5,2,1,48,51,1871080612
100,19,17,Jits_Phase_5,3,5,63,98,1871147460
100,19,17,Jits_Phase_5,0,5,63,98,1871556848
100,19,17,Jits_Phase_5,1,1,48,48,1871591224
100,19,17,Jits_Phase_5,2,5,80,127,1871596880
100,19,17,Jits_Phase_5,3,5,56,103,1871636740
100,19,17,Jits_Phase_5,0,5,56,103,1872067008
100,19,17,Jits_Phase_5,1,5,63,98,1872077580
100,19,17,Jits_Phase_5,2,5,80,127,1872096568
100,19,17,Jits_Phase_5,3,1,48,57,1872114212
100,19,17,Jits_Phase_5,0,5,63,98,1872606508
100,19,17,Jits_Phase_5,1,1,48,54,1872624524
100,19,17,Jits_Phase_5,2,5,80,127,1872627184
100,19,17,Jits_Phase_5,3,5,56,103,1872646444
100,19,17,Jits_Phase_5,0,5,56,103,1873046892
100,19,17,Jits_Phase_5,1,1,48,54,1873121356
100,19,17,Jits_Phase_5,2,5,80,127,1873126704
100,19,17,Jits_Phase_5,3,5,63,98,1873137124
100,19,17,Jits_Phase_5,0,5,80,127,1873586516
100,19,17,Jits_Phase_5,1,5,63,98,1873596712
100,19,17,Jits_Phase_5,2,5,56,103,1873626412
100,19,17,Jits_Phase_5,3,1,48,51,1873640236
100,19,17,Jits_Phase_5,0,5,63,98,1874047324
100,19,17,Jits_Phase_5,1,5,80,127,1874087484
100,19,17,Jits_Phase_5,2,1,48,54,1874138356
100,19,17,Jits_Phase_5,3,5,56,103,1874146544
100,19,17,Jits_Phase_5,0,5,63,98,1874557336
100,19,17,Jits_Phase_5,1,5,56,103,1874606492
100,19,17,Jits_Phase_5,2,5,80,127,1874637288
100,19,17,Jits_Phase_5,3,1,48,60,1874646876
100,19,17,Jits_Phase_5,0,5,80,127,1875057164
100,19,17,Jits_Phase_5,1,5,63,98,1875067212
100,19,17,Jits_Phase_5,2,5,56,103,1875137112
100,19,17,Jits_Phase_5,3,1,48,44,1875161676
100,19,17,Jits_Phase_5,0,5,80,127,1875617244
100,19,17,Jits_Phase_5,1,5,56,103,1875627436
100,19,17,Jits_Phase_5,2,5,63,98,1875630356
100,19,17,Jits_Phase_5,3,1,48,42,1875654220
100,19,17,Jits_Phase_5,0,5,56,103,1876056472
100,19,17,Jits_Phase_5,1,5,80,127,1876076780
100,19,17,Jits_Phase_5,2,5,63,98,1876087424
100,19,17,Jits_Phase_5,3,1,48,52,1876162080
100,19,17,Jits_Phase_5,0,5,63,98,1876567400
100,19,17,Jits_Phase_5,1,5,56,103,1876607488
100,19,17,Jits_Phase_5,2,1,48,45,1876618924
100,19,17,Jits_Phase_5,3,5,80,127,1876626668
100,19,17,Jits_Phase_5,0,5,63,98,1877067080
100,19,17,Jits_Phase_5,1,1,48,52,1877108860
100,19,17,Jits_Phase_5,2,5,56,103,1877126408
100,19,17,Jits_Phase_5,3,5,80,127,1877129552
100,19,17,Jits_Phase_5,0,5,56,103,1877526820
100,19,17,Jits_Phase_5,1,5,80,127,1877547424
100,19,17,Jits_Phase_5,2,5,63,98,1877587436
100,19,17,Jits_Phase_5,3,1,48,56,1877604500
100,19,17,Jits_Phase_5,0,5,56,103,1878057220
100,19,17,Jits_Phase_5,1,5,63,98,1878076784
100,19,17,Jits_Phase_5,2,5,80,127,1878087200
100,19,17,Jits_Phase_5,3,1,48,48,1878095196
100,19,17,Jits_Phase_5,0,5,80,127,1878527464
100,19,17,Jits_Phase_5,1,5,56,103,1878556988
100,19,17,Jits_Phase_5,2,1,48,50,1878588128
100,19,17,Jits_Phase_5,3,5,63,98,1878596920
100,19,17,Jits_Phase_5,0,5,80,127,1879037340
100,19,17,Jits_Phase_5,1,5,56,103,1879056828
100,19,17,Jits_Phase_5,2,1,48,52,1879083836
100,19,17,Jits_Phase_5,3,5,63,98,1879117280
100,19,17,Jits_Phase_5,0,5,56,103,1879547372
100,19,17,Jits_Phase_5,1,5,80,127,1879566708
100,19,17,Jits_Phase_5,2,1,48,53,1879599716
100,19,17,Jits_Phase_5,3,5,63,98,1879627236
100,19,17,Jits_Phase_5,0,5,80,127,1880026464
100,19,17,Jits_Phase_5,1,5,56,103,1880036584
100,19,17,Jits_Phase_5,2,5,63,98,1880076668
100,19,17,Jits_Phase_5,3,1,48,50,1880094088
100,19,17,Jits_Phase_5,0,5,63,98,1880527320
100,19,17,Jits_Phase_5,1,1,48,56,1880561476
100,19,17,Jits_Phase_5,2,5,56,103,1880567276
100,19,17,Jits_Phase_5,3,5,80,127,1880570268
100,19,17,Jits_Phase_5,0,1,48,49,1881047760
100,19,17,Jits_Phase_5,1,5,63,98,1881048876
100,19,17,Jits_Phase_5,2,5,80,127,1881087320
100,19,17,Jits_Phase_5,3,5,56,103,1881117140
100,19,17,Jits_Phase_5,0,5,56,103,1881536924
100,19,17,Jits_Phase_5,1,5,63,98,1881547344
100,19,17,Jits_Phase_5,2,1,48,50,1881558288
100,19,17,Jits_Phase_5,3,5,80,127,1881576888
100,19,17,Jits_Phase_5,0,5,80,127,1882027624
100,19,17,Jits_Phase_5,1,1,48,48,1882029636
100,19,17,Jits_Phase_5,2,5,63,98,1882097172
100,19,17,Jits_Phase_5,3,5,56,103,1882107368
100,19,17,Jits_Phase_5,0,5,63,98,1882527164
100,19,17,Jits_Phase_5,1,1,48,50,1882549012
100,19,17,Jits_Phase_5,2,5,56,103,1882596712
100,19,17,Jits_Phase_5,3,5,80,127,1882607204
100,19,17,Jits_Phase_5,0,5,63,98,1883007432
100,19,17,Jits_Phase_5,1,5,56,103,1883026696
100,19,17,Jits_Phase_5,2,1,48,49,1883028184
100,19,17,Jits_Phase_5,3,5,80,127,1883066624
100,19,17,Jits_Phase_5,0,5,56,103,1883486436
100,19,17,Jits_Phase_5,1,5,63,98,1883496932
100,19,17,Jits_Phase_5,2,1,48,52,1883503792
100,19,17,Jits_Phase_5,3,5,80,127,1883576716
100,19,17,Jits_Phase_5,0,5,63,98,1883977284
100,19,17,Jits_Phase_5,1,1,48,45,1883985280
100,19,17,Jits_Phase_5,2,5,56,103,1884006656
100,19,17,Jits_Phase_5,3,5,80,127,1884046592
100,19,17,Jits_Phase_5,0,5,56,103,1884476812
100,19,17,Jits_Phase_5,1,1,48,52,1884499408
100,19,17,Jits_Phase_5,2,5,63,98,1884516668
100,19,17,Jits_Phase_5,3,5,80,127,1884556604
100,19,17,Jits_Phase_5,0,1,48,51,1884971960
100,19,17,Jits_Phase_5,1,5,80,127,1884976492
100,19,17,Jits_Phase_5,2,5,56,103,1885057332
100,19,17,Jits_Phase_5,3,5,63,98,1885066468
100,19,17,Jits_Phase_5,0,1,48,52,1885508428
100,19,17,Jits_Phase_5,1,5,56,103,1885517220
100,19,17,Jits_Phase_5,2,5,63,98,1885520208
100,19,17,Jits_Phase_5,3,5,80,127,1885527268
100,19,17,Jits_Phase_5,0,1,48,56,1886004188
100,19,17,Jits_Phase_5,1,5,56,103,1886037340
100,19,17,Jits_Phase_5,2,5,63,98,1886056828
100,19,17,Jits_Phase_5,3,5,80,127,1886067248
100,19,17,Jits_Phase_5,0,5,63,98,1886497020
100,19,17,Jits_Phase_5,1,5,80,127,1886507364
100,19,17,Jits_Phase_5,2,5,56,103,1886526776
100,19,17,Jits_Phase_5,3,1,48,52,1886536416
100,19,17,Jits_Phase_5,0,5,63,98,1886996920
100,19,17,Jits_Phase_5,1,1,48,56,1887003472
100,19,17,Jits_Phase_5,2,5,56,103,1887076704
100,19,17,Jits_Phase_5,3,5,80,127,1887079916
100,19,17,Jits_Phase_5,0,1,48,54,1887506096
100,19,17,Jits_Phase_5,1,5,63,98,1887507520
100,19,17,Jits_Phase_5,2,5,56,103,1887527228
100,19,17,Jits_Phase_5,3,5,80,127,1887557200
100,19,17,Jits_Phase_5,0,1,48,39,1888002508
100,19,17,Jits_Phase_5,1,5,56,103,1888006588
100,19,17,Jits_Phase_5,2,5,63,98,1888026976
100,19,17,Jits_Phase_5,3,5,80,127,1888037168
100,19,17,Jits_Phase_5,0,1,48,47,1888524892
100,19,17,Jits_Phase_5,1,5,56,103,1888537124
100,19,17,Jits_Phase_5,2,5,63,98,1888566496
100,19,17,Jits_Phase_5,3,5,80,127,1888569716
100,19,17,Jits_Phase_5,0,5,56,103,1888986452
100,19,17,Jits_Phase_5,1,5,63,98,1889026392
100,19,17,Jits_Phase_5,2,1,48,46,1889034392
100,19,17,Jits_Phase_5,3,5,80,127,1889086772
100,19,17,Jits_Phase_5,0,5,56,103,1889506596
100,19,17,Jits_Phase_5,1,5,63,98,1889517012
100,19,17,Jits_Phase_5,2,1,48,45,1889551744
100,19,17,Jits_Phase_5,3,5,80,127,1889577244
100,19,17,Jits_Phase_5,0,5,56,103,1890007404
100,19,17,Jits_Phase_5,1,5,80,127,1890026964
100,19,17,Jits_Phase_5,2,5,63,98,1890056564
100,19,17,Jits_Phase_5,3,1,48,43,1890074748
100,19,17,Jits_Phase_5,0,5,80,127,1890506992
100,19,17,Jits_Phase_5,1,5,56,103,1890517512
100,19,17,Jits_Phase_5,2,5,63,98,1890536848
100,19,17,Jits_Phase_5,3,1,48,47,1890557200
100,19,17,Jits_Phase_5,0,5,63,98,1890996716
100,19,17,Jits_Phase_5,1,1,48,48,1891043904
100,19,17,Jits_Phase_5,2,5,80,127,1891076452
100,19,17,Jits_Phase_5,3,5,56,103,1891086648
100,19,17,Jits_Phase_5,0,1,48,41,1891579768
100,19,17,Jits_Phase_5,1,5,80,127,1891586320
100,19,17,Jits_Phase_5,2,5,56,103,1891607148
100,19,17,Jits_Phase_5,3,5,63,98,1891610140
100,19,17,Jits_Phase_5,0,5,63,98,1892077000
100,19,17,Jits_Phase_5,1,5,80,127,1892080288
100,19,17,Jits_Phase_5,2,1,48,54,1892083256
100,19,17,Jits_Phase_5,3,5,56,103,1892137304
100,19,17,Jits_Phase_5,0,5,56,103,1892557164
100,19,17,Jits_Phase_5,1,5,80,127,1892567384
100,19,17,Jits_Phase_5,2,1,48,55,1892576580
100,19,17,Jits_Phase_5,3,5,63,98,1892607388
100,19,17,Jits_Phase_5,0,5,56,103,1893037520
100,19,17,Jits_Phase_5,1,1,48,59,1893073004
100,19,17,Jits_Phase_5,2,5,63,98,1893096884
100,19,17,Jits_Phase_5,3,5,80,127,1893107228
100,19,17,Jits_Phase_5,0,5,63,98,1893547476
100,19,17,Jits_Phase_5,1,1,48,57,1893550592
100,19,17,Jits_Phase_5,2,5,80,127,1893587332
100,19,17,Jits_Phase_5,3,5,56,103,1893627368
100,19,17,Jits_Phase_5,0,5,56,103,1894047220
100,19,17,Jits_Phase_5,1,1,48,55,1894091536
100,19,17,Jits_Phase_5,2,5,63,98,1894127176
100,19,17,Jits_Phase_5,3,5,80,127,1894130540
100,19,17,Jits_Phase_5,0,1,48,55,1894587404
100,19,17,Jits_Phase_5,1,5,80,127,1894607132
100,19,17,Jits_Phase_5,2,5,56,103,1894636976
100,19,17,Jits_Phase_5,3,5,63,98,1894640120
100,19,17,Jits_Phase_5,0,1,48,55,1895046544
100,19,17,Jits_Phase_5,1,5,56,103,1895067168
100,19,17,Jits_Phase_5,2,5,80,127,1895086356
100,19,17,Jits_Phase_5,3,5,63,98,1895127512
100,19,17,Jits_Phase_5,0,5,80,127,1895547144
100,19,17,Jits_Phase_5,1,1,48,58,1895549884
100,19,17,Jits_Phase_5,2,5,63,98,1895567148
100,19,17,Jits_Phase_5,3,5,56,103,1895627088
100,19,17,Jits_Phase_5,0,1,48,52,1896047704
100,19,17,Jits_Phase_5,1,5,63,98,1896057092
100,19,17,Jits_Phase_5,2,5,56,103,1896066316
100,19,17,Jits_Phase_5,3,5,80,127,1896116960
100,19,17,Jits_Phase_5,0,1,48,62,1896531832
100,19,17,Jits_Phase_5,1,5,56,103,1896546776
100,19,17,Jits_Phase_5,2,5,63,98,1896567160
100,19,17,Jits_Phase_5,3,5,80,127,1896577356
100,19,17,Jits_Phase_5,0,1,48,58,1897015416
100,19,17,Jits_Phase_5,1,5,56,103,1897037156
100,19,17,Jits_Phase_5,2,5,63,98,1897040372
100,19,17,Jits_Phase_5,3,5,80,127,1897056492
100,19,17,Jits_Phase_5,0,1,48,46,1897495592
100,19,17,Jits_Phase_5,1,5,63,98,1897576976
100,19,17,Jits_Phase_5,2,5,56,103,1897606488
100,19,17,Jits_Phase_5,3,5,80,127,1897637208
100,19,17,Jits_Phase_5,0,5,80,127,1898036580
100,19,17,Jits_Phase_5,1,1,48,53,1898087876
100,19,17,Jits_Phase_5,2,5,56,103,1898126852
100,19,17,Jits_Phase_5,3,5,63,98,1898129696
100,19,17,Jits_Phase_5,0,5,56,103,1898537384
100,19,17,Jits_Phase_5,1,5,80,127,1898540448
100,19,17,Jits_Phase_5,2,5,63,98,1898617324
100,19,17,Jits_Phase_5,3,1,48,51,1898645844
100,19,17,Jits_Phase_5,0,5,80,127,1899037060
100,19,17,Jits_Phase_5,1,5,63,98,1899096332
100,19,17,Jits_Phase_5,2,1,48,38,1899127572
100,19,17,Jits_Phase_5,3,5,56,103,1899128760
100,19,17,Jits_Phase_5,0,5,63,98,1899536752
100,19,17,Jits_Phase_5,1,5,80,127,1899546948
100,19,17,Jits_Phase_5,2,5,56,103,1899616548
100,19,17,Jits_Phase_5,3,1,48,46,1899659068
100,19,17,Jits_Phase_5,0,5,56,103,1900096956
100,19,17,Jits_Phase_5,1,5,80,127,1900127152
100,19,17,Jits_Phase_5,2,1,48,53,1900145116
100,19,17,Jits_Phase_5,3,5,63,98,1900176972
100,19,17,Jits_Phase_5,0,1,48,50,1900634228
100,19,17,Jits_Phase_5,1,5,63,98,1900686912
100,19,17,Jits_Phase_5,2,5,56,103,1900717484
100,19,17,Jits_Phase_5,3,5,80,127,1900720624
100,19,17,Jits_Phase_5,0,1,48,45,1901177340
100,19,17,Jits_Phase_5,1,5,63,98,1901186356
100,19,17,Jits_Phase_5,2,5,80,127,1901206968
100,19,17,Jits_Phase_5,3,5,56,103,1901217160
100,19,17,Jits_Phase_5,0,5,56,103,1901697424
100,19,17,Jits_Phase_5,1,1,48,51,1901700040
100,19,17,Jits_Phase_5,2,5,63,98,1901701532
100,19,17,Jits_Phase_5,3,5,80,127,1901716828
100,19,17,Jits_Phase_5,0,5,56,103,1902146840
100,19,17,Jits_Phase_5,1,5,63,98,1902157112
100,19,17,Jits_Phase_5,2,5,80,127,1902187080
100,19,17,Jits_Phase_5,3,1,48,49,1902207656
100,19,17,Jits_Phase_5,0,5,63,98,1902667052
100,19,17,Jits_Phase_5,1,5,80,127,1902686540
100,19,17,Jits_Phase_5,2,1,48,49,1902720816
100,19,17,Jits_Phase_5,3,5,56,103,1902726396
100,19,17,Jits_Phase_5,0,5,56,103,1903196476
100,19,17,Jits_Phase_5,1,1,48,46,1903218544
100,19,17,Jits_Phase_5,2,5,63,98,1903236480
100,19,17,Jits_Phase_5,3,5,80,127,1903239768
100,19,17,Jits_Phase_5,0,5,80,127,1903637048
100,19,17,Jits_Phase_5,1,5,56,103,1903676912
100,19,17,Jits_Phase_5,2,5,63,98,1903726884
100,19,17,Jits_Phase_5,3,1,48,48,1903734636
100,19,17,Jits_Phase_5,0,5,56,103,1904196972
100,19,17,Jits_Phase_5,1,1,48,43,1904198836
100,19,17,Jits_Phase_5,2,5,80,127,1904207088
100,19,17,Jits_Phase_5,3,5,63,98,1904237060
100,19,17,Jits_Phase_5,0,5,56,103,1904646768
100,19,17,Jits_Phase_5,1,5,80,127,1904686556
100,19,17,Jits_Phase_5,2,1,48,37,1904729004
100,19,17,Jits_Phase_5,3,5,63,98,1904736824
100,19,17,Jits_Phase_5,0,5,56,103,1905147280
100,19,17,Jits_Phase_5,1,5,80,127,1905187144
100,19,17,Jits_Phase_5,2,1,48,46,1905227272
100,19,17,Jits_Phase_5,3,5,63,98,1905237560
100,19,17,Jits_Phase_5,0,5,80,127,1905636928
100,19,17,Jits_Phase_5,1,5,63,98,1905716576
100,19,17,Jits_Phase_5,2,1,48,47,1905726696
100,19,17,Jits_Phase_5,3,5,56,103,1905728032
100,19,17,Jits_Phase_5,0,5,80,127,1906186744
100,19,17,Jits_Phase_5,1,5,56,103,1906197012
100,19,17,Jits_Phase_5,2,5,63,98,1906217248
100,19,17,Jits_Phase_5,3,1,48,52,1906218660
100,19,17,Jits_Phase_5,0,5,63,98,1906656620
100,19,17,Jits_Phase_5,1,1,48,49,1906720564
100,19,17,Jits_Phase_5,2,5,56,103,1906727260
100,19,17,Jits_Phase_5,3,5,80,127,1906730252
100,19,17,Jits_Phase_5,0,5,80,127,1907147044
100,19,17,Jits_Phase_5,1,5,63,98,1907197272
100,19,17,Jits_Phase_5,2,1,48,53,1907210800
100,19,17,Jits_Phase_5,3,5,56,103,1907237200
100,19,17,Jits_Phase_5,0,5,63,98,1907686844
100,19,17,Jits_Phase_5,1,1,48,41,1907707124
100,19,17,Jits_Phase_5,2,5,56,103,1907726852
100,19,17,Jits_Phase_5,3,5,80,127,1907736972
100,19,17,Jits_Phase_5,0,1,48,47,1908169984
100,19,17,Jits_Phase_5,1,5,63,98,1908177128
100,19,17,Jits_Phase_5,2,5,56,103,1908196912
100,19,17,Jits_Phase_5,3,5,80,127,1908217296
100,19,17,Jits_Phase_5,0,5,80,127,1908637004
100,19,17,Jits_Phase_5,1,5,56,103,1908647276
100,19,17,Jits_Phase_5,2,1,48,58,1908648684
100,19,17,Jits_Phase_5,3,5,63,98,1908666828
100,19,17,Jits_Phase_5,0,1,48,43,1909132000
100,19,17,Jits_Phase_5,1,5,63,98,1909166648
100,19,17,Jits_Phase_5,2,5,56,103,1909207288
100,19,17,Jits_Phase_5,3,5,80,127,1909237244
100,19,17,Jits_Phase_5,0,5,56,103,1909627300
100,19,17,Jits_Phase_5,1,5,63,98,1909656900
100,19,17,Jits_Phase_5,2,1,48,54,1909676952
100,19,17,Jits_Phase_5,3,5,80,127,1909686716
100,19,17,Jits_Phase_5,0,5,80,127,1910047140
100,19,17,Jits_Phase_5,1,5,56,103,1910116744
100,19,17,Jits_Phase_5,2,5,63,98,1910119956
100,19,17,Jits_Phase_5,3,1,48,54,1910168180
100,19,17,Jits_Phase_5,0,5,56,103,1910556936
100,19,17,Jits_Phase_5,1,5,63,98,1910607212
100,19,17,Jits_Phase_5,2,1,48,56,1910619176
100,19,17,Jits_Phase_5,3,5,80,127,1910637100
100,19,17,Jits_Phase_5,0,5,63,98,1911037368
100,19,17,Jits_Phase_5,1,5,80,127,1911040956
100,19,17,Jits_Phase_5,2,1,48,48,1911087984
100,19,17,Jits_Phase_5,3,5,56,103,1911096700
100,19,17,Jits_Phase_5,0,5,56,103,1911566852
100,19,17,Jits_Phase_5,1,1,48,47,1911569220
100,19,17,Jits_Phase_5,2,5,80,127,1911576968
100,19,17,Jits_Phase_5,3,5,63,98,1911627092
100,19,17,Jits_Phase_5,0,5,63,98,1912036724
100,19,17,Jits_Phase_5,1,5,56,103,1912047072
100,19,17,Jits_Phase_5,2,1,48,42,1912057684
100,19,17,Jits_Phase_5,3,5,80,127,1912076884
100,19,17,Jits_Phase_5,0,1,48,49,1912555172
100,19,17,Jits_Phase_5,1,5,63,98,1912567180
100,19,17,Jits_Phase_5,2,5,80,127,1912570468
100,19,17,Jits_Phase_5,3,5,56,103,1912596928
100,19,17,Jits_Phase_5,0,1,48,51,1913048392
100,19,17,Jits_Phase_5,1,5,63,98,1913087228
100,19,17,Jits_Phase_5,2,5,56,103,1913106784
100,19,17,Jits_Phase_5,3,5,80,127,1913110148
100,19,17,Jits_Phase_5,0,5,63,98,1913547244
100,19,17,Jits_Phase_5,1,1,48,38,1913569788
100,19,17,Jits_Phase_5,2,5,56,103,1913616720
100,19,17,Jits_Phase_5,3,5,80,127,1913637176
100,19,17,Jits_Phase_5,0,5,56,103,1914036808
100,19,17,Jits_Phase_5,1,5,63,98,1914046856
100,19,17,Jits_Phase_5,2,1,48,52,1914087236
100,19,17,Jits_Phase_5,3,5,80,127,1914136928
100,19,17,Jits_Phase_5,0,5,56,103,1914556800
100,19,17,Jits_Phase_5,1,1,48,51,1914572128
100,19,17,Jits_Phase_5,2,5,80,127,1914596980
100,19,17,Jits_Phase_5,3,5,63,98,1914606952
100,19,17,Jits_Phase_5,0,1,48,47,1915033444
100,19,17,Jits_Phase_5,1,5,56,103,1915076936
100,19,17,Jits_Phase_5,2,5,63,98,1915106784
100,19,17,Jits_Phase_5,3,5,80,127,1915137268
100,19,17,Jits_Phase_5,0,5,80,127,1915536840
100,19,17,Jits_Phase_5,1,1,48,42,1915541004
100,19,17,Jits_Phase_5,2,5,63,98,1915576696
100,19,17,Jits_Phase_5,3,5,56,103,1915597156
100,19,17,Jits_Phase_5,0,1,48,53,1916039712
100,19,17,Jits_Phase_5,1,5,56,103,1916077500
100,19,17,Jits_Phase_5,2,5,80,127,1916096836
100,19,17,Jits_Phase_5,3,5,63,98,1916117392
100,19,17,Jits_Phase_5,0,5,63,98,1916546544
100,19,17,Jits_Phase_5,1,1,48,53,1916547956
100,19,17,Jits_Phase_5,2,5,56,103,1916556732
100,19,17,Jits_Phase_5,3,5,80,127,1916617044
100,19,17,Jits_Phase_5,0,1,48,60,1917035248
100,19,17,Jits_Phase_5,1,5,56,103,1917047184
100,19,17,Jits_Phase_5,2,5,63,98,1917116716
100,19,17,Jits_Phase_5,3,5,80,127,1917137156
100,19,17,Jits_Phase_5,0,1,48,54,1917546916
100,19,17,Jits_Phase_5,1,5,56,103,1917548252
100,19,17,Jits_Phase_5,2,5,63,98,1917576660
100,19,17,Jits_Phase_5,3,5,80,127,1917616596
100,19,17,Jits_Phase_5,0,5,63,98,1918037376
100,19,17,Jits_Phase_5,1,1,48,48,1918065004
100,19,17,Jits_Phase_5,2,5,56,103,1918086748
100,19,17,Jits_Phase_5,3,5,80,127,1918096868
100,19,17,Jits_Phase_5,0,1,48,51,1918524740
100,19,17,Jits_Phase_5,1,5,56,103,1918576980
100,19,17,Jits_Phase_5,2,5,63,98,1918627164
100,19,17,Jits_Phase_5,3,5,80,127,1918637584
100,19,17,Jits_Phase_5,0,5,56,103,1919046924
100,19,17,Jits_Phase_5,1,5,63,98,1919057120
100,19,17,Jits_Phase_5,2,1,48,47,1919061804
100,19,17,Jits_Phase_5,3,5,80,127,1919137124
100,19,17,Jits_Phase_5,0,9999,9999,9999,1834804296
100,19,17,Jits_Phase_5,1,9999,9999,9999,1835305052
100,19,17,Jits_Phase_5,2,9999,9999,9999,1835804784
100,19,17,Jits_Phase_5,3,9999,9999,9999,1836304508
100,19,17,Jits_Phase_5,4,9999,9999,9999,1836804200
100,19,17,Jits_Phase_5,5,9999,9999,9999,1837304928
100,19,17,Jits_Phase_5,6,9999,9999,9999,1837804600
100,19,17,Jits_Phase_5,7,9999,9999,9999,1838304364
100,19,17,Jits_Phase_5,8,9999,9999,9999,1838805072
100,19,17,Jits_Phase_5,9,9999,9999,9999,1839304832
100,19,17,Jits_Phase_5,10,9999,9999,9999,1839804520
100,19,17,Jits_Phase_5,11,9999,9999,9999,1840304212
100,19,17,Jits_Phase_5,12,9999,9999,9999,1840804924
100,19,17,Jits_Phase_5,13,9999,9999,9999,1841304672
100,19,17,Jits_Phase_5,14,9999,9999,9999,1841804348
100,19,17,Jits_Phase_5,15,9999,9999,9999,1842304112
100,19,17,Jits_Phase_5,16,9999,9999,9999,1842804832
100,19,17,Jits_Phase_5,17,9999,9999,9999,1843304508
100,19,17,Jits_Phase_5,18,9999,9999,9999,1843804272
100,19,17,Jits_Phase_5,19,9999,9999,9999,1844305008
100,19,17,Jits_Phase_5,20,9999,9999,9999,1844804684
100,19,17,Jits_Phase_5,21,9999,9999,9999,1845304432
100,19,17,Jits_Phase_5,22,9999,9999,9999,1845804120
100,19,17,Jits_Phase_5,23,9999,9999,9999,1846304856
100,19,17,Jits_Phase_5,24,9999,9999,9999,1846804544
100,19,17,Jits_Phase_5,25,9999,9999,9999,1847304300
100,19,17,Jits_Phase_5,26,9999,9999,9999,1847805036
100,19,17,Jits_Phase_5,27,9999,9999,9999,1848304696
100,19,17,Jits_Phase_5,28,9999,9999,9999,1848804460
100,19,17,Jits_Phase_5,29,9999,9999,9999,1849304148
100,19,17,Jits_Phase_5,30,9999,9999,9999,1849794668
100,19,17,Jits_Phase_5,31,9999,9999,9999,1850294360
100,19,17,Jits_Phase_5,32,9999,9999,9999,1850795100
100,19,17,Jits_Phase_5,33,9999,9999,9999,1851305048
100,19,17,Jits_Phase_5,34,9999,9999,9999,1851804736
100,19,17,Jits_Phase_5,35,9999,9999,9999,1852304500
100,19,17,Jits_Phase_5,36,9999,9999,9999,1852804164
100,19,17,Jits_Phase_5,37,9999,9999,9999,1853304888
100,19,17,Jits_Phase_5,38,9999,9999,9999,1853804652
100,19,17,Jits_Phase_5,39,9999,9999,9999,1854304328
100,19,17,Jits_Phase_5,40,9999,9999,9999,1854805052
100,19,17,Jits_Phase_5,41,9999,9999,9999,1855304812
100,19,17,Jits_Phase_5,42,9999,9999,9999,1855804500
100,19,17,Jits_Phase_5,43,9999,9999,9999,1856304248
100,19,17,Jits_Phase_5,44,9999,9999,9999,1856804964
100,19,17,Jits_Phase_5,45,9999,9999,9999,1857304648
100,19,17,Jits_Phase_5,46,9999,9999,9999,1857804396
100,19,17,Jits_Phase_5,47,9999,9999,9999,1858304076
100,19,17,Jits_Phase_5,48,9999,9999,9999,1858815064
100,19,17,Jits_Phase_5,49,9999,9999,9999,1859314744
100,19,17,Jits_Phase_5,50,9999,9999,9999,1859814484
100,19,17,Jits_Phase_5,51,9999,9999,9999,1860314176
100,19,17,Jits_Phase_5,52,9999,9999,9999,1860814964
100,19,17,Jits_Phase_5,53,9999,9999,9999,1861314624
100,19,17,Jits_Phase_5,54,9999,9999,9999,1861814376
100,19,17,Jits_Phase_5,55,9999,9999,9999,1862315116
100,19,17,Jits_Phase_5,56,9999,9999,9999,1862825064
100,19,17,Jits_Phase_5,57,9999,9999,9999,1863324748
100,19,17,Jits_Phase_5,58,9999,9999,9999,1863824440
100,19,17,Jits_Phase_5,59,9999,9999,9999,1864324188
100,19,17,Jits_Phase_5,60,9999,9999,9999,1864824924
100,19,17,Jits_Phase_5,61,9999,9999,9999,1865324668
100,19,17,Jits_Phase_5,62,9999,9999,9999,1865824360
100,19,17,Jits_Phase_5,63,9999,9999,9999,1866325092
100,19,17,Jits_Phase_5,64,9999,9999,9999,1866844248
100,19,17,Jits_Phase_5,65,9999,9999,9999,1867344980
100,19,17,Jits_Phase_5,66,9999,9999,9999,1867844672
100,19,17,Jits_Phase_5,67,9999,9999,9999,1868344424
100,19,17,Jits_Phase_5,68,9999,9999,9999,1868844112
100,19,17,Jits_Phase_5,69,9999,9999,9999,1869344840
100,19,17,Jits_Phase_5,70,9999,9999,9999,1869844576
100,19,17,Jits_Phase_5,71,9999,9999,9999,1870344264
100,19,17,Jits_Phase_5,72,9999,9999,9999,1870845000
100,19,17,Jits_Phase_5,73,9999,9999,9999,1871344748
100,19,17,Jits_Phase_5,74,9999,9999,9999,1871844440
100,19,17,Jits_Phase_5,75,9999,9999,9999,1872344188
100,19,17,Jits_Phase_5,76,9999,9999,9999,1872844904
100,19,17,Jits_Phase_5,77,9999,9999,9999,1873344576
100,19,17,Jits_Phase_5,78,9999,9999,9999,1873844344
100,19,17,Jits_Phase_5,79,9999,9999,9999,1874345080
100,19,17,Jits_Phase_5,80,9999,9999,9999,1874844756
100,19,17,Jits_Phase_5,81,9999,9999,9999,1875325032
100,19,17,Jits_Phase_5,82,9999,9999,9999,1875824720
100,19,17,Jits_Phase_5,83,9999,9999,9999,1876324412
100,19,17,Jits_Phase_5,84,9999,9999,9999,1876824180
100,19,17,Jits_Phase_5,85,9999,9999,9999,1877324900
100,19,17,Jits_Phase_5,86,9999,9999,9999,1877824572
100,19,17,Jits_Phase_5,87,9999,9999,9999,1878324336
100,19,17,Jits_Phase_5,88,9999,9999,9999,1878825068
100,19,17,Jits_Phase_5,89,9999,9999,9999,1879324760
100,19,17,Jits_Phase_5,90,9999,9999,9999,1879824452
100,19,17,Jits_Phase_5,91,9999,9999,9999,1880324216
100,19,17,Jits_Phase_5,92,9999,9999,9999,1880824940
100,19,17,Jits_Phase_5,93,9999,9999,9999,1881324620
100,19,17,Jits_Phase_5,94,9999,9999,9999,1881824368
100,19,17,Jits_Phase_5,95,9999,9999,9999,1882325104
100,19,17,Jits_Phase_5,96,9999,9999,9999,1882824772
100,19,17,Jits_Phase_5,97,9999,9999,9999,1883274324
100,19,17,Jits_Phase_5,98,9999,9999,9999,1883775048
100,19,17,Jits_Phase_5,99,9999,9999,9999,1884274812
100,19,17,Jits_Phase_5,100,9999,9999,9999,1884774488
100,19,17,Jits_Phase_5,101,9999,9999,9999,1885274180
100,19,17,Jits_Phase_5,102,9999,9999,9999,1885774964
100,19,17,Jits_Phase_5,103,9999,9999,9999,1886274648
100,19,17,Jits_Phase_5,104,9999,9999,9999,1886774396
100,19,17,Jits_Phase_5,105,9999,9999,9999,1887275112
100,19,17,Jits_Phase_5,106,9999,9999,9999,1887785048
100,19,17,Jits_Phase_5,107,9999,9999,9999,1888284796
100,19,17,Jits_Phase_5,108,9999,9999,9999,1888784460
100,19,17,Jits_Phase_5,109,9999,9999,9999,1889284208
100,19,17,Jits_Phase_5,110,9999,9999,9999,1889784944
100,19,17,Jits_Phase_5,111,9999,9999,9999,1890284632
100,19,17,Jits_Phase_5,112,9999,9999,9999,1890784320
100,19,17,Jits_Phase_5,113,9999,9999,9999,1891285056
100,19,17,Jits_Phase_5,114,9999,9999,9999,1891835000
100,19,17,Jits_Phase_5,115,9999,9999,9999,1892334668
100,19,17,Jits_Phase_5,116,9999,9999,9999,1892834416
100,19,17,Jits_Phase_5,117,9999,9999,9999,1893334108
100,19,17,Jits_Phase_5,118,9999,9999,9999,1893834820
100,19,17,Jits_Phase_5,119,9999,9999,9999,1894334556
100,19,17,Jits_Phase_5,120,9999,9999,9999,1894834244
100,19,17,Jits_Phase_5,121,9999,9999,9999,1895335040
100,19,17,Jits_Phase_5,122,9999,9999,9999,1895834712
100,19,17,Jits_Phase_5,123,9999,9999,9999,1896334452
100,19,17,Jits_Phase_5,124,9999,9999,9999,1896834124
100,19,17,Jits_Phase_5,125,9999,9999,9999,1897334908
100,19,17,Jits_Phase_5,126,9999,9999,9999,1897834588
100,19,17,Jits_Phase_5,127,9999,9999,9999,1898334332
100,19,17,Jits_Phase_5,128,9999,9999,9999,1898835056
100,19,17,Jits_Phase_5,129,9999,9999,9999,1899334744
100,19,17,Jits_Phase_5,130,9999,9999,9999,1899834432
100,19,17,Jits_Phase_5,131,9999,9999,9999,1900434488
100,19,17,Jits_Phase_5,132,9999,9999,9999,1900934248
100,19,17,Jits_Phase_5,133,9999,9999,9999,1901434972
100,19,17,Jits_Phase_5,134,9999,9999,9999,1901934720
100,19,17,Jits_Phase_5,135,9999,9999,9999,1902434404
100,19,17,Jits_Phase_5,136,9999,9999,9999,1902934096
100,19,17,Jits_Phase_5,137,9999,9999,9999,1903434816
100,19,17,Jits_Phase_5,138,9999,9999,9999,1903934580
100,19,17,Jits_Phase_5,139,9999,9999,9999,1904434276
100,19,17,Jits_Phase_5,140,9999,9999,9999,1904935012
100,19,17,Jits_Phase_5,141,9999,9999,9999,1905434700
100,19,17,Jits_Phase_5,142,9999,9999,9999,1905934392
100,19,17,Jits_Phase_5,143,9999,9999,9999,1906434156
100,19,17,Jits_Phase_5,144,9999,9999,9999,1906934888
100,19,17,Jits_Phase_5,145,9999,9999,9999,1907434564
100,19,17,Jits_Phase_5,146,9999,9999,9999,1907934260
100,19,17,Jits_Phase_5,147,9999,9999,9999,1908435036
100,19,17,Jits_Phase_5,148,9999,9999,9999,1908934756
100,19,17,Jits_Phase_5,149,9999,9999,9999,1909434448
100,19,17,Jits_Phase_5,150,9999,9999,9999,1909834864
100,19,17,Jits_Phase_5,151,9999,9999,9999,1910334548
100,19,17,Jits_Phase_5,152,9999,9999,9999,1910834244
100,19,17,Jits_Phase_5,153,9999,9999,9999,1911335036
100,19,17,Jits_Phase_5,154,9999,9999,9999,1911834716
100,19,17,Jits_Phase_5,155,9999,9999,9999,1912334404
100,19,17,Jits_Phase_5,156,9999,9999,9999,1912834144
100,19,17,Jits_Phase_5,157,9999,9999,9999,1913334860
100,19,17,Jits_Phase_5,158,9999,9999,9999,1913834616
100,19,17,Jits_Phase_5,159,9999,9999,9999,1914334292
100,19,17,Jits_Phase_5,160,9999,9999,9999,1914835028
100,19,17,Jits_Phase_5,161,9999,9999,9999,1915334772
100,19,17,Jits_Phase_5,162,9999,9999,9999,1915834444
100,19,17,Jits_Phase_5,163,9999,9999,9999,1916334136
100,19,17,Jits_Phase_5,164,9999,9999,9999,1916834932
100,19,17,Jits_Phase_5,165,9999,9999,9999,1917334584
100,19,17,Jits_Phase_5,166,9999,9999,9999,1917834336
100,19,17,Jits_Phase_5,167,9999,9999,9999,1918335056
100,19,17,Jits_Phase_5,168,9999,9999,9999,1918834812
100,19,17,Jits_Phase_5,169,9999,9999,9999,1919334488
100,20,3,ISIP_8,0,5,42,127,1985113512
100,20,3,ISIP_8,1,5,42,127,1985914092
100,20,3,ISIP_8,2,5,42,127,1986713996
100,20,3,ISIP_8,3,5,42,127,1987513676
100,20,3,ISIP_8,4,5,42,127,1988313456
100,20,3,ISIP_8,5,1,48,54,1988318224
100,20,3,ISIP_8,6,5,42,127,1989114308
100,20,3,ISIP_8,7,1,48,59,1989120644
100,20,3,ISIP_8,8,1,48,63,1989906452
100,20,3,ISIP_8,9,5,42,127,1989913964
100,20,3,ISIP_8,10,5,42,127,1990713700
100,20,3,ISIP_8,11,1,48,56,1990722280
100,20,3,ISIP_8,12,5,42,127,1991513512
100,20,3,ISIP_8,13,1,48,58,1991526056
100,20,3,ISIP_8,14,5,42,127,1992314512
100,20,3,ISIP_8,15,1,48,56,1992317484
100,20,3,ISIP_8,16,1,48,55,1993075460
100,20,3,ISIP_8,17,5,42,127,1993113944
100,20,3,ISIP_8,18,1,48,59,1993885220
100,20,3,ISIP_8,19,5,42,127,1993913604
100,20,3,ISIP_8,20,5,42,127,1994713592
100,20,3,ISIP_8,21,1,48,64,1994718284
100,20,3,ISIP_8,22,5,42,127,1995514296
100,20,3,ISIP_8,23,1,48,54,1995544944
100,20,3,ISIP_8,24,5,42,127,1996314032
100,20,3,ISIP_8,25,1,48,48,1996318348
100,20,3,ISIP_8,26,1,48,61,1997100932
100,20,3,ISIP_8,27,5,42,127,1997113680
100,20,3,ISIP_8,28,1,48,67,1997871200
100,20,3,ISIP_8,29,5,42,127,1997913564
100,20,3,ISIP_8,30,1,48,53,1998704436
100,20,3,ISIP_8,31,5,42,127,1998714420
100,20,3,ISIP_8,32,5,42,127,1999513860
100,20,3,ISIP_8,33,1,48,49,1999562528
100,20,3,ISIP_8,34,5,42,127,2000313668
100,20,3,ISIP_8,35,1,48,53,2000362888
100,20,3,ISIP_8,36,5,42,127,2001113352
100,20,3,ISIP_8,37,1,48,50,2001114320
100,20,3,ISIP_8,38,5,42,127,2001914356
100,20,3,ISIP_8,39,1,48,49,2001945076
100,20,3,ISIP_8,40,5,42,127,2002713864
100,20,3,ISIP_8,41,1,48,48,2002755576
100,20,3,ISIP_8,42,5,42,127,2003513672
100,20,3,ISIP_8,43,1,48,49,2003555912
100,20,3,ISIP_8,44,5,42,127,2004313408
100,20,3,ISIP_8,45,1,48,47,2004344052
100,20,3,ISIP_8,46,1,48,46,2005113804
100,20,3,ISIP_8,47,5,42,127,2005115224
100,20,3,ISIP_8,48,1,48,47,2005904532
100,20,3,ISIP_8,49,5,42,127,2005913836
100,20,3,ISIP_8,50,1,48,49,2006673292
100,20,3,ISIP_8,51,5,42,127,2006713644
100,20,3,ISIP_8,52,1,48,52,2007507756
100,20,3,ISIP_8,53,5,42,127,2007513328
100,20,3,ISIP_8,54,1,48,49,2008272632
100,20,3,ISIP_8,55,5,42,127,2008314184
100,20,3,ISIP_8,56,1,48,46,2009092640
100,20,3,ISIP_8,57,1,48,55,2009926720
100,20,3,ISIP_8,58,1,48,49,2010727792
100,20,3,ISIP_8,59,1,48,49,2011519592
100,20,3,ISIP_8,60,1,48,53,2012304500
100,20,3,ISIP_8,61,1,48,48,2013095696
100,20,3,ISIP_8,62,1,48,52,2013898120
100,20,3,ISIP_8,63,1,48,48,2014692260
100,20,3,ISIP_8,64,1,48,43,2015472924
100,20,3,ISIP_8,65,1,48,45,2016263228
100,20,3,ISIP_8,66,1,48,46,2017081204
100,20,3,ISIP_8,67,1,48,47,2017853332
100,20,3,ISIP_8,68,1,48,51,2018677000
100,20,3,ISIP_8,69,1,48,55,2019427060
100,20,3,ISIP_8,70,1,48,49,2020240408
100,20,3,ISIP_8,71,1,48,46,2021021956
100,20,3,ISIP_8,72,1,48,41,2021814508
100,20,3,ISIP_8,73,1,48,52,2022631540
100,20,3,ISIP_8,74,1,48,51,2023384596
100,20,3,ISIP_8,75,1,48,48,2024210276
100,20,3,ISIP_8,76,1,48,48,2024997888
100,20,3,ISIP_8,77,1,48,48,2025835544
100,20,3,ISIP_8,78,1,48,48,2026615824
100,20,3,ISIP_8,79,1,48,53,2027416076
100,20,3,ISIP_8,80,1,48,47,2028175260
100,20,3,ISIP_8,81,1,48,49,2028934676
100,20,3,ISIP_8,82,1,48,52,2029749292
100,20,3,ISIP_8,83,1,48,48,2030542984
100,20,3,ISIP_8,84,1,48,51,2031363208
100,20,3,ISIP_8,85,1,48,46,2032126288
100,20,3,ISIP_8,86,1,48,42,2032918012
100,20,3,ISIP_8,87,1,48,49,2033705620
100,20,3,ISIP_8,88,1,48,46,2034498320
100,20,3,ISIP_8,89,1,48,46,2035247860
100,20,3,ISIP_8,90,1,48,46,2036054844
100,20,3,ISIP_8,91,1,48,47,2036809400
100,20,3,ISIP_8,92,1,48,48,2037647048
100,20,3,ISIP_8,93,1,48,50,2038403548
100,20,3,ISIP_8,94,1,48,45,2039226464
100,20,3,ISIP_8,95,1,48,48,2040027112
100,20,3,ISIP_8,96,1,48,50,2040821232
100,20,3,ISIP_8,97,1,48,46,2041610188
100,20,3,ISIP_8,98,1,48,51,2042377008
100,20,3,ISIP_8,99,1,48,51,2043227304
100,20,3,ISIP_8,100,1,48,50,2043993672
100,20,3,ISIP_8,101,1,48,47,2044788312
100,20,3,ISIP_8,102,1,48,51,2045534264
100,20,3,ISIP_8,103,1,48,47,2046357632
100,20,3,ISIP_8,104,1,48,50,2047121532
100,20,3,ISIP_8,105,1,48,46,2047880796
100,20,3,ISIP_8,106,1,48,40,2048652172
100,20,3,ISIP_8,107,1,48,45,2049423856
100,20,3,ISIP_8,108,1,48,41,2050189100
100,20,3,ISIP_8,109,1,48,47,2050981872
100,20,3,ISIP_8,110,1,48,47,2051739492
100,20,3,ISIP_8,111,1,48,48,2052525760
100,20,3,ISIP_8,112,1,48,46,2053306864
100,20,3,ISIP_8,113,1,48,43,2054121876
100,20,3,ISIP_8,114,1,48,43,2054877924
100,20,3,ISIP_8,115,1,48,44,2055609488
100,20,3,ISIP_8,116,1,48,47,2056483436
100,20,3,ISIP_8,117,1,48,48,2057263044
100,20,3,ISIP_8,118,1,48,43,2058030984
100,20,3,ISIP_8,119,1,48,51,2058797064
100,20,3,ISIP_8,120,1,48,48,2059599480
100,20,3,ISIP_8,121,1,48,49,2060353504
100,20,3,ISIP_8,122,1,48,47,2061132588
100,20,3,ISIP_8,123,1,48,52,2061927836
100,20,3,ISIP_8,124,1,48,46,2062732872
100,20,3,ISIP_8,125,1,48,48,2063498928
100,20,3,ISIP_8,126,1,48,46,2064265376
100,20,3,ISIP_8,127,1,48,41,2065008328
100,20,3,ISIP_8,128,1,48,55,2065777244
100,20,3,ISIP_8,129,1,48,51,2066552288
100,20,3,ISIP_8,130,1,48,56,2067317388
100,20,3,ISIP_8,131,1,48,50,2068081212
100,20,3,ISIP_8,132,1,48,46,2068860816
100,20,3,ISIP_8,133,1,48,47,2069601080
100,20,3,ISIP_8,134,1,48,49,2070366180
100,20,3,ISIP_8,135,1,48,44,2071156336
100,20,3,ISIP_8,136,1,48,49,2071937368
100,20,3,ISIP_8,137,1,48,45,2072727748
100,20,3,ISIP_8,138,1,48,47,2073498756
100,20,3,ISIP_8,139,1,48,47,2074279480
100,20,3,ISIP_8,140,1,48,51,2075048616
100,20,3,ISIP_8,141,1,48,46,2075837052
100,20,3,ISIP_8,142,1,48,43,2076561536
100,20,3,ISIP_8,143,1,48,50,2077395324
100,20,3,ISIP_8,144,1,48,49,2078127856
100,20,3,ISIP_8,145,1,48,47,2078884576
100,20,3,ISIP_8,146,1,48,39,2079634116
100,20,3,ISIP_8,147,1,48,39,2080355388
100,20,3,ISIP_8,148,1,48,45,2081187424
100,20,3,ISIP_8,149,1,48,51,2081947140
100,20,3,ISIP_8,150,1,48,52,2082697340
100,20,3,ISIP_8,151,1,48,48,2083492880
100,20,3,ISIP_8,152,1,48,51,2084223192
100,20,3,ISIP_8,153,1,48,47,2085005648
100,20,3,ISIP_8,154,1,48,43,2085697436
100,20,3,ISIP_8,155,1,48,54,2086507044
100,20,3,ISIP_8,156,1,48,53,2087234512
100,20,3,ISIP_8,157,1,48,57,2088021456
100,20,3,ISIP_8,158,1,48,44,2088723048
100,20,3,ISIP_8,159,1,48,50,2089540732
100,20,3,ISIP_8,160,1,48,51,2090300216
100,20,3,ISIP_8,161,1,48,46,2091038020
100,20,3,ISIP_8,162,1,48,45,2091785540
100,20,3,ISIP_8,163,1,48,47,2092539116
100,20,3,ISIP_8,164,1,48,42,2093290076
100,20,3,ISIP_8,165,1,48,45,2094061608
100,20,3,ISIP_8,166,1,48,43,2094830896
100,20,3,ISIP_8,167,1,48,45,2095600400
100,20,3,ISIP_8,168,1,48,46,2096323064
100,20,3,ISIP_8,169,1,48,51,2097064588
100,20,3,ISIP_8,170,1,48,39,2097810984
100,20,3,ISIP_8,171,1,48,41,2098619692
100,20,3,ISIP_8,172,1,48,45,2099339388
100,20,3,ISIP_8,173,1,48,45,2100035748
100,20,3,ISIP_8,174,1,48,46,2100772268
100,20,3,ISIP_8,175,1,48,48,2101564520
100,20,3,ISIP_8,176,1,48,40,2102335224
100,20,3,ISIP_8,177,1,48,45,2103050508
100,20,3,ISIP_8,178,1,48,45,2103836324
100,20,3,ISIP_8,179,1,48,48,2104608904
100,20,3,ISIP_8,0,9999,9999,9999,1985111148
100,20,3,ISIP_8,1,9999,9999,9999,1985911876
100,20,3,ISIP_8,2,9999,9999,9999,1986711632
100,20,3,ISIP_8,3,9999,9999,9999,1987511388
100,20,3,ISIP_8,4,9999,9999,9999,1988311092
100,20,3,ISIP_8,5,9999,9999,9999,1989111872
100,20,3,ISIP_8,6,9999,9999,9999,1989911600
100,20,3,ISIP_8,7,9999,9999,9999,1990711412
100,20,3,ISIP_8,8,9999,9999,9999,1991511148
100,20,3,ISIP_8,9,9999,9999,9999,1992311928
100,20,3,ISIP_8,10,9999,9999,9999,1993111652
100,20,3,ISIP_8,11,9999,9999,9999,1993911388
100,20,3,ISIP_8,12,9999,9999,9999,1994711152
100,20,3,ISIP_8,13,9999,9999,9999,1995511860
100,20,3,ISIP_8,14,9999,9999,9999,1996311668
100,20,3,ISIP_8,15,9999,9999,9999,1997111392
100,20,3,ISIP_8,16,9999,9999,9999,1997911128
100,20,3,ISIP_8,17,9999,9999,9999,1998711908
100,20,3,ISIP_8,18,9999,9999,9999,1999511648
100,20,3,ISIP_8,19,9999,9999,9999,2000311380
100,20,3,ISIP_8,20,9999,9999,9999,2001111136
100,20,3,ISIP_8,21,9999,9999,9999,2001911916
100,20,3,ISIP_8,22,9999,9999,9999,2002711648
100,20,3,ISIP_8,23,9999,9999,9999,2003511384
100,20,3,ISIP_8,24,9999,9999,9999,2004311116
100,20,3,ISIP_8,25,9999,9999,9999,2005111896
100,20,3,ISIP_8,26,9999,9999,9999,2005911624
100,20,3,ISIP_8,27,9999,9999,9999,2006711356
100,20,3,ISIP_8,28,9999,9999,9999,2007511112
100,20,3,ISIP_8,29,9999,9999,9999,2008311892
100,20,3,ISIP_8,30,9999,9999,9999,2009111628
100,20,3,ISIP_8,31,9999,9999,9999,2009911364
100,20,3,ISIP_8,32,9999,9999,9999,2010711092
100,20,3,ISIP_8,33,9999,9999,9999,2011511868
100,20,3,ISIP_8,34,9999,9999,9999,2012311668
100,20,3,ISIP_8,35,9999,9999,9999,2013111396
100,20,3,ISIP_8,36,9999,9999,9999,2013911148
100,20,3,ISIP_8,37,9999,9999,9999,2014711924
100,20,3,ISIP_8,38,9999,9999,9999,2015511656
100,20,3,ISIP_8,39,9999,9999,9999,2016311384
100,20,3,ISIP_8,40,9999,9999,9999,2017111112
100,20,3,ISIP_8,41,9999,9999,9999,2017911888
100,20,3,ISIP_8,42,9999,9999,9999,2018711616
100,20,3,ISIP_8,43,9999,9999,9999,2019511348
100,20,3,ISIP_8,44,9999,9999,9999,2020311100
100,20,3,ISIP_8,45,9999,9999,9999,2021111876
100,20,3,ISIP_8,46,9999,9999,9999,2021911664
100,20,3,ISIP_8,47,9999,9999,9999,2022711412
100,20,3,ISIP_8,48,9999,9999,9999,2023511124
100,20,3,ISIP_8,49,9999,9999,9999,2024311900
100,20,3,ISIP_8,50,9999,9999,9999,2025111628
100,20,3,ISIP_8,51,9999,9999,9999,2025911376
100,20,3,ISIP_8,52,9999,9999,9999,2026711112
100,20,3,ISIP_8,53,9999,9999,9999,2027511888
100,20,3,ISIP_8,54,9999,9999,9999,2028311616
100,20,3,ISIP_8,55,9999,9999,9999,2029111344
100,20,3,ISIP_8,56,9999,9999,9999,2029911148
100,20,3,ISIP_8,57,9999,9999,9999,2030711924
100,20,3,ISIP_8,58,9999,9999,9999,2031511652
100,20,3,ISIP_8,59,9999,9999,9999,2032311384
100,20,3,ISIP_8,60,9999,9999,9999,2033111136
100,20,3,ISIP_8,61,9999,9999,9999,2033911912
100,20,3,ISIP_8,62,9999,9999,9999,2034711644
100,20,3,ISIP_8,63,9999,9999,9999,2035511372
100,20,3,ISIP_8,64,9999,9999,9999,2036311104
100,20,3,ISIP_8,65,9999,9999,9999,2037111880
100,20,3,ISIP_8,66,9999,9999,9999,2037911608
100,20,3,ISIP_8,67,9999,9999,9999,2038711408
100,20,3,ISIP_8,68,9999,9999,9999,2039511088
100,20,3,ISIP_8,69,9999,9999,9999,2040311868
100,20,3,ISIP_8,70,9999,9999,9999,2041111668
100,20,3,ISIP_8,71,9999,9999,9999,2041911400
100,20,3,ISIP_8,72,9999,9999,9999,2042711128
100,20,3,ISIP_8,73,9999,9999,9999,2043511904
100,20,3,ISIP_8,74,9999,9999,9999,2044311636
100,20,3,ISIP_8,75,9999,9999,9999,2045111364
100,20,3,ISIP_8,76,9999,9999,9999,2045911116
100,20,3,ISIP_8,77,9999,9999,9999,2046711892
100,20,3,ISIP_8,78,9999,9999,9999,2047511624
100,20,3,ISIP_8,79,9999,9999,9999,2048311352
100,20,3,ISIP_8,80,9999,9999,9999,2049111156
100,20,3,ISIP_8,81,9999,9999,9999,2049911860
100,20,3,ISIP_8,82,9999,9999,9999,2050711660
100,20,3,ISIP_8,83,9999,9999,9999,2051511392
100,20,3,ISIP_8,84,9999,9999,9999,2052311144
100,20,3,ISIP_8,85,9999,9999,9999,2053111920
100,20,3,ISIP_8,86,9999,9999,9999,2053911648
100,20,3,ISIP_8,87,9999,9999,9999,2054711380
100,20,3,ISIP_8,88,9999,9999,9999,2055511108
100,20,3,ISIP_8,89,9999,9999,9999,2056311884
100,20,3,ISIP_8,90,9999,9999,9999,2057111612
100,20,3,ISIP_8,91,9999,9999,9999,2057911344
100,20,3,ISIP_8,92,9999,9999,9999,2058711096
100,20,3,ISIP_8,93,9999,9999,9999,2059511872
100,20,3,ISIP_8,94,9999,9999,9999,2060311604
100,20,3,ISIP_8,95,9999,9999,9999,2061111404
100,20,3,ISIP_8,96,9999,9999,9999,2061911136
100,20,3,ISIP_8,97,9999,9999,9999,2062711908
100,20,3,ISIP_8,98,9999,9999,9999,2063511632
100,20,3,ISIP_8,99,9999,9999,9999,2064311364
100,20,3,ISIP_8,100,9999,9999,9999,2065111100
100,20,3,ISIP_8,101,9999,9999,9999,2065911876
100,20,3,ISIP_8,102,9999,9999,9999,2066711604
100,20,3,ISIP_8,103,9999,9999,9999,2067511408
100,20,3,ISIP_8,104,9999,9999,9999,2068311140
100,20,3,ISIP_8,105,9999,9999,9999,2069111912
100,20,3,ISIP_8,106,9999,9999,9999,2069911644
100,20,3,ISIP_8,107,9999,9999,9999,2070711372
100,20,3,ISIP_8,108,9999,9999,9999,2071511124
100,20,3,ISIP_8,109,9999,9999,9999,2072311900
100,20,3,ISIP_8,110,9999,9999,9999,2073111628
100,20,3,ISIP_8,111,9999,9999,9999,2073911360
100,20,3,ISIP_8,112,9999,9999,9999,2074711088
100,20,3,ISIP_8,113,9999,9999,9999,2075511860
100,20,3,ISIP_8,114,9999,9999,9999,2076311664
100,20,3,ISIP_8,115,9999,9999,9999,2077111396
100,20,3,ISIP_8,116,9999,9999,9999,2077911152
100,20,3,ISIP_8,117,9999,9999,9999,2078711924
100,20,3,ISIP_8,118,9999,9999,9999,2079511652
100,20,3,ISIP_8,119,9999,9999,9999,2080311384
100,20,3,ISIP_8,120,9999,9999,9999,2081111112
100,20,3,ISIP_8,121,9999,9999,9999,2081911888
100,20,3,ISIP_8,122,9999,9999,9999,2082711612
100,20,3,ISIP_8,123,9999,9999,9999,2083511340
100,20,3,ISIP_8,124,9999,9999,9999,2084311096
100,20,3,ISIP_8,125,9999,9999,9999,2085111852
100,20,3,ISIP_8,126,9999,9999,9999,2085911656
100,20,3,ISIP_8,127,9999,9999,9999,2086711388
100,20,3,ISIP_8,128,9999,9999,9999,2087511116
100,20,3,ISIP_8,129,9999,9999,9999,2088311896
100,20,3,ISIP_8,130,9999,9999,9999,2089111624
100,20,3,ISIP_8,131,9999,9999,9999,2089911352
100,20,3,ISIP_8,132,9999,9999,9999,2090711108
100,20,3,ISIP_8,133,9999,9999,9999,2091511884
100,20,3,ISIP_8,134,9999,9999,9999,2092311612
100,20,3,ISIP_8,135,9999,9999,9999,2093111416
100,20,3,ISIP_8,136,9999,9999,9999,2093911144
100,20,3,ISIP_8,137,9999,9999,9999,2094711920
100,20,3,ISIP_8,138,9999,9999,9999,2095511648
100,20,3,ISIP_8,139,9999,9999,9999,2096311380
100,20,3,ISIP_8,140,9999,9999,9999,2097111124
100,20,3,ISIP_8,141,9999,9999,9999,2097911884
100,20,3,ISIP_8,142,9999,9999,9999,2098711628
100,20,3,ISIP_8,143,9999,9999,9999,2099511344
100,20,3,ISIP_8,144,9999,9999,9999,2100311148
100,20,3,ISIP_8,145,9999,9999,9999,2101111924
100,20,3,ISIP_8,146,9999,9999,9999,2101911652
100,20,3,ISIP_8,147,9999,9999,9999,2102711380
100,20,3,ISIP_8,148,9999,9999,9999,2103511136
100,20,3,ISIP_8,149,9999,9999,9999,2104311912
100,21,5,ISIP_5,0,5,42,127,2126448852
100,21,5,ISIP_5,1,5,42,127,2126948568
100,21,5,ISIP_5,2,5,42,127,2127448360
100,21,5,ISIP_5,3,5,42,127,2127949344
100,21,5,ISIP_5,4,5,42,127,2128448916
100,21,5,ISIP_5,5,1,48,47,2128482248
100,21,5,ISIP_5,6,5,42,127,2128948608
100,21,5,ISIP_5,7,1,48,44,2128964588
100,21,5,ISIP_5,8,5,42,127,2129449576
100,21,5,ISIP_5,9,1,48,43,2129461144
100,21,5,ISIP_5,10,5,42,127,2129948972
100,21,5,ISIP_5,11,1,48,46,2129960616
100,21,5,ISIP_5,12,1,48,46,2130430672
100,21,5,ISIP_5,13,5,42,127,2130448736
100,21,5,ISIP_5,14,5,42,127,2130948440
100,21,5,ISIP_5,15,1,48,50,2130989256
100,21,5,ISIP_5,16,5,42,127,2131449404
100,21,5,ISIP_5,17,1,48,43,2131458432
100,21,5,ISIP_5,18,1,48,58,2131945696
100,21,5,ISIP_5,19,5,42,127,2131948796
100,21,5,ISIP_5,20,1,48,20,2132032380
100,21,5,ISIP_5,21,1,48,47,2132434224
100,21,5,ISIP_5,22,5,42,127,2132448472
100,21,5,ISIP_5,23,1,48,47,2132923720
100,21,5,ISIP_5,24,5,42,127,2132949580
100,21,5,ISIP_5,25,5,42,127,2133448988
100,21,5,ISIP_5,26,1,48,44,2133453672
100,21,5,ISIP_5,27,1,48,54,2133927520
100,21,5,ISIP_5,28,5,42,127,2133948800
100,21,5,ISIP_5,29,1,48,55,2134419212
100,21,5,ISIP_5,30,5,42,127,2134448344
100,21,5,ISIP_5,31,5,42,127,2134949388
100,21,5,ISIP_5,32,1,48,50,2134951032
100,21,5,ISIP_5,33,1,48,58,2135421072
100,21,5,ISIP_5,34,5,42,127,2135449076
100,21,5,ISIP_5,35,1,48,57,2135927644
100,21,5,ISIP_5,36,5,42,127,2135948552
100,21,5,ISIP_5,37,1,48,58,2136436392
100,21,5,ISIP_5,38,5,42,127,2136449588
100,21,5,ISIP_5,39,1,48,52,2136916712
100,21,5,ISIP_5,40,5,42,127,2136949284
100,21,5,ISIP_5,41,1,48,54,2137421048
100,21,5,ISIP_5,42,5,42,127,2137448680
100,21,5,ISIP_5,43,1,48,52,2137892916
100,21,5,ISIP_5,44,5,42,127,2137948376
100,21,5,ISIP_5,45,1,48,59,2138434420
100,21,5,ISIP_5,46,5,42,127,2138449416
100,21,5,ISIP_5,47,5,42,127,2138948896
100,21,5,ISIP_5,48,1,48,49,2138951792
100,21,5,ISIP_5,49,5,42,127,2139448664
100,21,5,ISIP_5,50,1,48,51,2139452532
100,21,5,ISIP_5,51,1,48,50,2139916980
100,21,5,ISIP_5,52,5,42,127,2139949476
100,21,5,ISIP_5,53,5,42,127,2140449400
100,21,5,ISIP_5,54,1,48,51,2140486256
100,21,5,ISIP_5,55,5,42,127,2140948800
100,21,5,ISIP_5,56,1,48,49,2140966056
100,21,5,ISIP_5,57,5,42,127,2141448568
100,21,5,ISIP_5,58,1,48,51,2141454532
100,21,5,ISIP_5,59,1,48,50,2141942092
100,21,5,ISIP_5,60,5,42,127,2141949380
100,21,5,ISIP_5,61,1,48,46,2142427500
100,21,5,ISIP_5,62,5,42,127,2142449296
100,21,5,ISIP_5,63,1,48,51,2142909592
100,21,5,ISIP_5,64,5,42,127,2142948768
100,21,5,ISIP_5,65,1,48,52,2143426488
100,21,5,ISIP_5,66,5,42,127,2143448388
100,21,5,ISIP_5,67,1,48,48,2143908604
100,21,5,ISIP_5,68,5,42,127,2143949204
100,21,5,ISIP_5,69,1,48,51,2144427152
100,21,5,ISIP_5,70,5,42,127,2144448800
100,21,5,ISIP_5,71,1,48,54,2144940160
100,21,5,ISIP_5,72,5,42,127,2144948716
100,21,5,ISIP_5,73,1,48,59,2145428488
100,21,5,ISIP_5,74,5,42,127,2145449236
100,21,5,ISIP_5,75,1,48,53,2145932064
100,21,5,ISIP_5,76,5,42,127,2145949080
100,21,5,ISIP_5,77,1,48,64,2146422408
100,21,5,ISIP_5,78,1,48,56,2146937888
100,21,5,ISIP_5,79,1,48,57,2147457560
100,21,5,ISIP_5,80,1,48,61,2147990084
100,21,5,ISIP_5,81,1,48,54,2148475788
100,21,5,ISIP_5,82,1,48,55,2148997472
100,21,5,ISIP_5,83,1,48,50,2149501200
100,21,5,ISIP_5,84,1,48,54,2150000516
100,21,5,ISIP_5,85,1,48,57,2150487716
100,21,5,ISIP_5,86,1,48,51,2150994660
100,21,5,ISIP_5,87,1,48,47,2151490236
100,21,5,ISIP_5,88,1,48,48,2151980504
100,21,5,ISIP_5,89,1,48,54,2152525372
100,21,5,ISIP_5,90,1,48,57,2153029924
100,21,5,ISIP_5,91,1,48,53,2153534100
100,21,5,ISIP_5,92,1,48,57,2154055260
100,21,5,ISIP_5,93,1,48,58,2154604092
100,21,5,ISIP_5,94,1,48,53,2155095260
100,21,5,ISIP_5,95,1,48,59,2155627480
100,21,5,ISIP_5,96,1,48,53,2156133756
100,21,5,ISIP_5,97,1,48,57,2156635992
100,21,5,ISIP_5,98,1,48,49,2157152060
100,21,5,ISIP_5,99,1,48,44,2157676508
100,21,5,ISIP_5,100,1,48,50,2158171416
100,21,5,ISIP_5,101,1,48,57,2158690176
100,21,5,ISIP_5,102,1,48,55,2159177080
100,21,5,ISIP_5,103,1,48,58,2159700556
100,21,5,ISIP_5,104,1,48,57,2160226352
100,21,5,ISIP_5,105,1,48,60,2160717736
100,21,5,ISIP_5,106,1,48,52,2161250040
100,21,5,ISIP_5,107,1,48,58,2161735072
100,21,5,ISIP_5,108,1,48,58,2162216884
100,21,5,ISIP_5,109,1,48,48,2162713208
100,21,5,ISIP_5,110,1,48,55,2163210508
100,21,5,ISIP_5,111,1,48,54,2163733456
100,21,5,ISIP_5,112,1,48,54,2164241828
100,21,5,ISIP_5,113,1,48,53,2164759320
100,21,5,ISIP_5,114,1,48,53,2165257516
100,21,5,ISIP_5,115,1,48,52,2165767752
100,21,5,ISIP_5,116,1,48,50,2166293920
100,21,5,ISIP_5,117,1,48,51,2166823232
100,21,5,ISIP_5,118,1,48,54,2167298912
100,21,5,ISIP_5,119,1,48,58,2167817456
100,21,5,ISIP_5,120,1,48,45,2167842780
100,21,5,ISIP_5,121,1,48,62,2168299544
100,21,5,ISIP_5,122,1,48,48,2168845980
100,21,5,ISIP_5,123,1,48,46,2169320764
100,21,5,ISIP_5,124,1,48,49,2169804668
100,21,5,ISIP_5,125,1,48,46,2170315884
100,21,5,ISIP_5,126,1,48,45,2170829484
100,21,5,ISIP_5,127,1,48,47,2171362756
100,21,5,ISIP_5,128,1,48,44,2171829292
100,21,5,ISIP_5,129,1,48,43,2172363860
100,21,5,ISIP_5,130,1,48,47,2172838468
100,21,5,ISIP_5,131,1,48,45,2173325216
100,21,5,ISIP_5,132,1,48,46,2173831416
100,21,5,ISIP_5,133,1,48,46,2174352724
100,21,5,ISIP_5,134,1,48,49,2174856828
100,21,5,ISIP_5,135,1,48,50,2175342228
100,21,5,ISIP_5,136,1,48,47,2175820676
100,21,5,ISIP_5,137,1,48,46,2176309896
100,21,5,ISIP_5,138,1,48,53,2176851476
100,21,5,ISIP_5,139,1,48,50,2177349676
100,21,5,ISIP_5,140,1,48,51,2177872396
100,21,5,ISIP_5,141,1,48,45,2178383680
100,21,5,ISIP_5,142,1,48,50,2178931244
100,21,5,ISIP_5,143,1,48,52,2179452044
100,21,5,ISIP_5,144,1,48,48,2179957120
100,21,5,ISIP_5,145,1,48,45,2180449776
100,21,5,ISIP_5,146,1,48,43,2180964048
100,21,5,ISIP_5,147,1,48,45,2181432388
100,21,5,ISIP_5,148,1,48,50,2181968520
100,21,5,ISIP_5,149,1,48,47,2182492816
100,21,5,ISIP_5,150,1,48,46,2182995352
100,21,5,ISIP_5,151,1,48,51,2183497812
100,21,5,ISIP_5,152,1,48,49,2184000340
100,21,5,ISIP_5,153,1,48,49,2184508560
100,21,5,ISIP_5,154,1,48,45,2185006308
100,21,5,ISIP_5,155,1,48,47,2185505396
100,21,5,ISIP_5,156,1,48,51,2186013312
100,21,5,ISIP_5,157,1,48,48,2186506048
100,21,5,ISIP_5,158,1,48,45,2187001108
100,21,5,ISIP_5,159,1,48,46,2187499676
100,21,5,ISIP_5,160,1,48,44,2188016268
100,21,5,ISIP_5,161,1,48,49,2188499060
100,21,5,ISIP_5,162,1,48,51,2189002632
100,21,5,ISIP_5,163,1,48,50,2189509108
100,21,5,ISIP_5,164,1,48,51,2190019396
100,21,5,ISIP_5,165,1,48,51,2190514896
100,21,5,ISIP_5,166,1,48,49,2191037556
100,21,5,ISIP_5,167,1,48,47,2191510088
100,21,5,ISIP_5,168,1,48,51,2192015088
100,21,5,ISIP_5,169,1,48,51,2192504680
100,21,5,ISIP_5,170,1,48,53,2193014468
100,21,5,ISIP_5,171,1,48,50,2193523736
100,21,5,ISIP_5,172,1,48,53,2194031576
100,21,5,ISIP_5,173,1,48,51,2194527532
100,21,5,ISIP_5,174,1,48,54,2195026696
100,21,5,ISIP_5,175,1,48,49,2195528408
100,21,5,ISIP_5,176,1,48,48,2196040288
100,21,5,ISIP_5,177,1,48,56,2196550004
100,21,5,ISIP_5,178,1,48,48,2197025236
100,21,5,ISIP_5,179,1,48,49,2197529112
100,21,5,ISIP_5,180,1,48,52,2198039728
100,21,5,ISIP_5,181,1,48,61,2198532080
100,21,5,ISIP_5,182,1,48,58,2199008664
100,21,5,ISIP_5,183,1,48,48,2199475496
100,21,5,ISIP_5,184,1,48,51,2200003080
100,21,5,ISIP_5,185,1,48,48,2200494768
100,21,5,ISIP_5,186,1,48,45,2200984212
100,21,5,ISIP_5,187,1,48,48,2201498940
100,21,5,ISIP_5,188,1,48,50,2201961152
100,21,5,ISIP_5,189,1,48,51,2202470340
100,21,5,ISIP_5,190,1,48,51,2202967196
100,21,5,ISIP_5,191,1,48,56,2203476532
100,21,5,ISIP_5,192,1,48,46,2203951836
100,21,5,ISIP_5,193,1,48,54,2204453248
100,21,5,ISIP_5,194,1,48,52,2204961388
100,21,5,ISIP_5,195,1,48,53,2205461980
100,21,5,ISIP_5,196,1,48,53,2205978424
100,21,5,ISIP_5,0,9999,9999,9999,2126446640
100,21,5,ISIP_5,1,9999,9999,9999,2126946356
100,21,5,ISIP_5,2,9999,9999,9999,2127446072
100,21,5,ISIP_5,3,9999,9999,9999,2127946836
100,21,5,ISIP_5,4,9999,9999,9999,2128446552
100,21,5,ISIP_5,5,9999,9999,9999,2128946248
100,21,5,ISIP_5,6,9999,9999,9999,2129446992
100,21,5,ISIP_5,7,9999,9999,9999,2129946688
100,21,5,ISIP_5,8,9999,9999,9999,2130446448
100,21,5,ISIP_5,9,9999,9999,9999,2130946152
100,21,5,ISIP_5,10,9999,9999,9999,2131446892
100,21,5,ISIP_5,11,9999,9999,9999,2131946584
100,21,5,ISIP_5,12,9999,9999,9999,2132446260
100,21,5,ISIP_5,13,9999,9999,9999,2132946996
100,21,5,ISIP_5,14,9999,9999,9999,2133446748
100,21,5,ISIP_5,15,9999,9999,9999,2133946436
100,21,5,ISIP_5,16,9999,9999,9999,2134446132
100,21,5,ISIP_5,17,9999,9999,9999,2134946880
100,21,5,ISIP_5,18,9999,9999,9999,2135446640
100,21,5,ISIP_5,19,9999,9999,9999,2135946340
100,21,5,ISIP_5,20,9999,9999,9999,2136447080
100,21,5,ISIP_5,21,9999,9999,9999,2136946776
100,21,5,ISIP_5,22,9999,9999,9999,2137446468
100,21,5,ISIP_5,23,9999,9999,9999,2137946164
100,21,5,ISIP_5,24,9999,9999,9999,2138446904
100,21,5,ISIP_5,25,9999,9999,9999,2138946608
100,21,5,ISIP_5,26,9999,9999,9999,2139446380
100,21,5,ISIP_5,27,9999,9999,9999,2139947116
100,21,5,ISIP_5,28,9999,9999,9999,2140446816
100,21,5,ISIP_5,29,9999,9999,9999,2140946512
100,21,5,ISIP_5,30,9999,9999,9999,2141446208
100,21,5,ISIP_5,31,9999,9999,9999,2141946944
100,21,5,ISIP_5,32,9999,9999,9999,2142446712
100,21,5,ISIP_5,33,9999,9999,9999,2142946408
100,21,5,ISIP_5,34,9999,9999,9999,2143446104
100,21,5,ISIP_5,35,9999,9999,9999,2143946844
100,21,5,ISIP_5,36,9999,9999,9999,2144446516
100,21,5,ISIP_5,37,9999,9999,9999,2144946284
100,21,5,ISIP_5,38,9999,9999,9999,2145447024
100,21,5,ISIP_5,39,9999,9999,9999,2145946720
100,21,5,ISIP_5,40,9999,9999,9999,2146446412
100,21,5,ISIP_5,41,9999,9999,9999,2146946104
100,21,5,ISIP_5,42,9999,9999,9999,2147446848
100,21,5,ISIP_5,43,9999,9999,9999,2147946612
100,21,5,ISIP_5,44,9999,9999,9999,2148446304
100,21,5,ISIP_5,45,9999,9999,9999,2148947040
100,21,5,ISIP_5,46,9999,9999,9999,2149446732
100,21,5,ISIP_5,47,9999,9999,9999,2149946424
100,21,5,ISIP_5,48,9999,9999,9999,2150446188
100,21,5,ISIP_5,49,9999,9999,9999,2150946924
100,21,5,ISIP_5,50,9999,9999,9999,2151446616
100,21,5,ISIP_5,51,9999,9999,9999,2151946308
100,21,5,ISIP_5,52,9999,9999,9999,2152447044
100,21,5,ISIP_5,53,9999,9999,9999,2152946808
100,21,5,ISIP_5,54,9999,9999,9999,2153446500
100,21,5,ISIP_5,55,9999,9999,9999,2153946192
100,21,5,ISIP_5,56,9999,9999,9999,2154446928
100,21,5,ISIP_5,57,9999,9999,9999,2154946668
100,21,5,ISIP_5,58,9999,9999,9999,2155446356
100,21,5,ISIP_5,59,9999,9999,9999,2155947096
100,21,5,ISIP_5,60,9999,9999,9999,2156446788
100,21,5,ISIP_5,61,9999,9999,9999,2156946552
100,21,5,ISIP_5,62,9999,9999,9999,2157446244
100,21,5,ISIP_5,63,9999,9999,9999,2157946980
100,21,5,ISIP_5,64,9999,9999,9999,2158446672
100,21,5,ISIP_5,65,9999,9999,9999,2158946364
100,21,5,ISIP_5,66,9999,9999,9999,2159446128
100,21,5,ISIP_5,67,9999,9999,9999,2159946864
100,21,5,ISIP_5,68,9999,9999,9999,2160446556
100,21,5,ISIP_5,69,9999,9999,9999,2160946248
100,21,5,ISIP_5,70,9999,9999,9999,2161446984
100,21,5,ISIP_5,71,9999,9999,9999,2161946676
100,21,5,ISIP_5,72,9999,9999,9999,2162446444
100,21,5,ISIP_5,73,9999,9999,9999,2162946132
100,21,5,ISIP_5,74,9999,9999,9999,2163446868
100,21,5,ISIP_5,75,9999,9999,9999,2163946560
100,21,5,ISIP_5,76,9999,9999,9999,2164446328
100,21,5,ISIP_5,77,9999,9999,9999,2164947064
100,21,5,ISIP_5,78,9999,9999,9999,2165446756
100,21,5,ISIP_5,79,9999,9999,9999,2165946424
100,21,5,ISIP_5,80,9999,9999,9999,2166446188
100,21,5,ISIP_5,81,9999,9999,9999,2166946924
100,21,5,ISIP_5,82,9999,9999,9999,2167446612
100,21,5,ISIP_5,83,9999,9999,9999,2167946356
100,21,5,ISIP_5,84,9999,9999,9999,2168447096
100,21,5,ISIP_5,85,9999,9999,9999,2168946784
100,21,5,ISIP_5,86,9999,9999,9999,2169446476
100,21,5,ISIP_5,87,9999,9999,9999,2169946168
100,21,5,ISIP_5,88,9999,9999,9999,2170446904
100,21,5,ISIP_5,89,9999,9999,9999,2170946668
100,21,5,ISIP_5,90,9999,9999,9999,2171446372
100,21,5,ISIP_5,91,9999,9999,9999,2171947096
100,21,5,ISIP_5,92,9999,9999,9999,2172446804
100,21,5,ISIP_5,93,9999,9999,9999,2172946552
100,21,5,ISIP_5,94,9999,9999,9999,2173446244
100,21,5,ISIP_5,95,9999,9999,9999,2173946980
100,21,5,ISIP_5,96,9999,9999,9999,2174446672
100,21,5,ISIP_5,97,9999,9999,9999,2174946380
100,21,5,ISIP_5,98,9999,9999,9999,2175446128
100,21,5,ISIP_5,99,9999,9999,9999,2175946864
100,21,5,ISIP_5,100,9999,9999,9999,2176446532
100,21,5,ISIP_5,101,9999,9999,9999,2176946236
100,21,5,ISIP_5,102,9999,9999,9999,2177446960
100,21,5,ISIP_5,103,9999,9999,9999,2177946740
100,21,5,ISIP_5,104,9999,9999,9999,2178446432
100,21,5,ISIP_5,105,9999,9999,9999,2178946124
100,21,5,ISIP_5,106,9999,9999,9999,2179446864
100,21,5,ISIP_5,107,9999,9999,9999,2179946556
100,21,5,ISIP_5,108,9999,9999,9999,2180446320
100,21,5,ISIP_5,109,9999,9999,9999,2180947056
100,21,5,ISIP_5,110,9999,9999,9999,2181446740
100,21,5,ISIP_5,111,9999,9999,9999,2181946440
100,21,5,ISIP_5,112,9999,9999,9999,2182446128
100,21,5,ISIP_5,113,9999,9999,9999,2182946868
100,21,5,ISIP_5,114,9999,9999,9999,2183446632
100,21,5,ISIP_5,115,9999,9999,9999,2183946324
100,21,5,ISIP_5,116,9999,9999,9999,2184447060
100,21,5,ISIP_5,117,9999,9999,9999,2184946748
100,21,5,ISIP_5,118,9999,9999,9999,2185446516
100,21,5,ISIP_5,119,9999,9999,9999,2185946208
100,21,5,ISIP_5,120,9999,9999,9999,2186446944
100,21,5,ISIP_5,121,9999,9999,9999,2186946612
100,21,5,ISIP_5,122,9999,9999,9999,2187446376
100,21,5,ISIP_5,123,9999,9999,9999,2187947116
100,21,5,ISIP_5,124,9999,9999,9999,2188446808
100,21,5,ISIP_5,125,9999,9999,9999,2188946496
100,21,5,ISIP_5,126,9999,9999,9999,2189446264
100,21,5,ISIP_5,127,9999,9999,9999,2189946976
100,21,5,ISIP_5,128,9999,9999,9999,2190446668
100,21,5,ISIP_5,129,9999,9999,9999,2190946360
100,21,5,ISIP_5,130,9999,9999,9999,2191446124
100,21,5,ISIP_5,131,9999,9999,9999,2191946860
100,21,5,ISIP_5,132,9999,9999,9999,2192446548
100,21,5,ISIP_5,133,9999,9999,9999,2192946240
100,21,5,ISIP_5,134,9999,9999,9999,2193446976
100,21,5,ISIP_5,135,9999,9999,9999,2193946744
100,21,5,ISIP_5,136,9999,9999,9999,2194446432
100,21,5,ISIP_5,137,9999,9999,9999,2194946124
100,21,5,ISIP_5,138,9999,9999,9999,2195446860
100,21,5,ISIP_5,139,9999,9999,9999,2195946552
100,21,5,ISIP_5,140,9999,9999,9999,2196446316
100,21,5,ISIP_5,141,9999,9999,9999,2196947056
100,21,5,ISIP_5,142,9999,9999,9999,2197446748
100,21,5,ISIP_5,143,9999,9999,9999,2197946488
100,21,5,ISIP_5,144,9999,9999,9999,2198446176
100,21,5,ISIP_5,145,9999,9999,9999,2198946916
100,21,5,ISIP_5,146,9999,9999,9999,2199446604
100,21,5,ISIP_5,147,9999,9999,9999,2199946296
100,21,5,ISIP_5,148,9999,9999,9999,2200447032
100,21,5,ISIP_5,149,9999,9999,9999,2200946796
100,21,5,ISIP_5,150,9999,9999,9999,2201446488
100,21,5,ISIP_5,151,9999,9999,9999,2201946180
100,21,5,ISIP_5,152,9999,9999,9999,2202446916
100,21,5,ISIP_5,153,9999,9999,9999,2202946680
100,21,5,ISIP_5,154,9999,9999,9999,2203446372
100,21,5,ISIP_5,155,9999,9999,9999,2203947108
100,21,5,ISIP_5,156,9999,9999,9999,2204446800
100,21,5,ISIP_5,157,9999,9999,9999,2204946492
100,21,5,ISIP_5,158,9999,9999,9999,2205446256
100,21,5,ISIP_5,159,9999,9999,9999,2205946992
100,22,11,Pattern_Practice,0,5,42,127,2307368256
100,22,11,Pattern_Practice,1,5,42,127,2307868048
100,22,11,Pattern_Practice,2,5,42,127,2308367688
100,22,11,Pattern_Practice,3,5,42,127,2308867704
100,22,11,Pattern_Practice,4,5,42,127,2309368092
100,22,11,Pattern_Practice,5,5,42,127,2309867960
100,22,11,Pattern_Practice,6,5,42,127,2310367676
100,22,11,Pattern_Practice,7,5,42,127,2310868440
100,22,11,Pattern_Practice,8,5,42,127,2311368004
100,22,11,Pattern_Practice,9,5,42,127,2311867696
100,22,11,Pattern_Practice,10,5,42,127,2312367636
100,22,11,Pattern_Practice,11,5,42,127,2312868324
100,22,11,Pattern_Practice,12,5,42,127,2313367896
100,22,11,Pattern_Practice,13,1,48,46,2313384548
100,22,11,Pattern_Practice,14,1,48,47,2313630040
100,22,11,Pattern_Practice,15,5,42,127,2313867640
100,22,11,Pattern_Practice,16,1,38,83,2313930620
100,22,11,Pattern_Practice,17,1,48,48,2314363552
100,22,11,Pattern_Practice,18,5,42,127,2314368448
100,22,11,Pattern_Practice,19,1,48,43,2314618036
100,22,11,Pattern_Practice,20,5,42,127,2314868056
100,22,11,Pattern_Practice,21,1,38,46,2314891444
100,22,11,Pattern_Practice,22,1,48,47,2315324848
100,22,11,Pattern_Practice,23,5,42,127,2315367816
100,22,11,Pattern_Practice,24,1,48,42,2315564076
100,22,11,Pattern_Practice,25,1,38,49,2315843144
100,22,11,Pattern_Practice,26,5,42,127,2315867564
100,22,11,Pattern_Practice,27,1,48,46,2316307236
100,22,11,Pattern_Practice,28,5,42,127,2316368380
100,22,11,Pattern_Practice,29,1,48,38,2316560820
100,22,11,Pattern_Practice,30,1,38,47,2316829048
100,22,11,Pattern_Practice,31,5,42,127,2316867904
100,22,11,Pattern_Practice,32,1,48,50,2317335400
100,22,11,Pattern_Practice,33,5,42,127,2317367748
100,22,11,Pattern_Practice,34,1,48,42,2317577248
100,22,11,Pattern_Practice,35,1,38,50,2317840308
100,22,11,Pattern_Practice,36,5,42,127,2317868540
100,22,11,Pattern_Practice,37,1,48,44,2318318692
100,22,11,Pattern_Practice,38,5,42,127,2318368088
100,22,11,Pattern_Practice,39,1,48,41,2318589848
100,22,11,Pattern_Practice,40,1,38,66,2318853964
100,22,11,Pattern_Practice,41,5,42,127,2318867764
100,22,11,Pattern_Practice,42,1,48,52,2319349024
100,22,11,Pattern_Practice,43,5,42,127,2319367532
100,22,11,Pattern_Practice,44,1,48,32,2319592060
100,22,11,Pattern_Practice,45,1,38,57,2319867504
100,22,11,Pattern_Practice,46,5,42,127,2319870272
100,22,11,Pattern_Practice,47,1,48,45,2320330964
100,22,11,Pattern_Practice,48,5,42,127,2320367872
100,22,11,Pattern_Practice,49,1,48,38,2320606764
100,22,11,Pattern_Practice,50,1,38,54,2320859952
100,22,11,Pattern_Practice,51,5,42,127,2320867620
100,22,11,Pattern_Practice,52,1,48,52,2321308388
100,22,11,Pattern_Practice,53,5,42,127,2321368288
100,22,11,Pattern_Practice,54,1,48,44,2321576484
100,22,11,Pattern_Practice,55,1,38,57,2321825412
100,22,11,Pattern_Practice,56,5,42,127,2321868256
100,22,11,Pattern_Practice,57,1,48,48,2322340440
100,22,11,Pattern_Practice,58,5,42,127,2322367728
100,22,11,Pattern_Practice,59,1,48,34,2322581760
100,22,11,Pattern_Practice,60,1,38,57,2322830392
100,22,11,Pattern_Practice,61,5,42,127,2322867448
100,22,11,Pattern_Practice,62,1,48,52,2323325744
100,22,11,Pattern_Practice,63,5,42,127,2323368412
100,22,11,Pattern_Practice,64,1,48,43,2323594292
100,22,11,Pattern_Practice,65,1,38,62,2323853240
100,22,11,Pattern_Practice,66,5,42,127,2323867940
100,22,11,Pattern_Practice,67,1,48,52,2324337684
100,22,11,Pattern_Practice,68,5,42,127,2324367860
100,22,11,Pattern_Practice,69,1,48,44,2324596724
100,22,11,Pattern_Practice,70,1,38,59,2324830400
100,22,11,Pattern_Practice,71,5,42,127,2324867308
100,22,11,Pattern_Practice,72,1,48,49,2325338068
100,22,11,Pattern_Practice,73,5,42,127,2325368320
100,22,11,Pattern_Practice,74,1,48,35,2325595772
100,22,11,Pattern_Practice,75,1,38,52,2325853452
100,22,11,Pattern_Practice,76,5,42,127,2325868144
100,22,11,Pattern_Practice,77,1,48,53,2326312676
100,22,11,Pattern_Practice,78,5,42,127,2326367540
100,22,11,Pattern_Practice,79,1,48,42,2326583468
100,22,11,Pattern_Practice,80,1,38,49,2326810856
100,22,11,Pattern_Practice,81,5,42,127,2326868260
100,22,11,Pattern_Practice,82,1,48,49,2327303068
100,22,11,Pattern_Practice,83,5,42,127,2327368180
100,22,11,Pattern_Practice,84,1,48,46,2327604308
100,22,11,Pattern_Practice,85,1,38,56,2327850168
100,22,11,Pattern_Practice,86,5,42,127,2327867704
100,22,11,Pattern_Practice,87,1,48,54,2328364896
100,22,11,Pattern_Practice,88,5,42,127,2328367400
100,22,11,Pattern_Practice,89,1,48,44,2328620500
100,22,11,Pattern_Practice,90,1,38,60,2328858060
100,22,11,Pattern_Practice,91,5,42,127,2328868340
100,22,11,Pattern_Practice,92,1,48,48,2329234312
100,22,11,Pattern_Practice,93,5,42,127,2329367796
100,22,11,Pattern_Practice,94,1,48,44,2329631308
100,22,11,Pattern_Practice,95,5,42,127,2329867568
100,22,11,Pattern_Practice,96,1,38,60,2329911452
100,22,11,Pattern_Practice,97,5,42,127,2330368384
100,22,11,Pattern_Practice,98,1,48,52,2330370100
100,22,11,Pattern_Practice,99,1,48,43,2330619608
100,22,11,Pattern_Practice,100,1,38,60,2330856876
100,22,11,Pattern_Practice,101,5,42,127,2330868348
100,22,11,Pattern_Practice,102,1,48,57,2331230436
100,22,11,Pattern_Practice,103,5,42,127,2331367732
100,22,11,Pattern_Practice,104,1,48,48,2331633040
100,22,11,Pattern_Practice,105,5,42,127,2331867576
100,22,11,Pattern_Practice,106,1,38,64,2331897996
100,22,11,Pattern_Practice,107,5,42,127,2332368388
100,22,11,Pattern_Practice,108,1,48,49,2332377792
100,22,11,Pattern_Practice,109,1,48,46,2332636224
100,22,11,Pattern_Practice,110,5,42,127,2332868212
100,22,11,Pattern_Practice,111,1,38,51,2332883816
100,22,11,Pattern_Practice,112,1,48,47,2333228124
100,22,11,Pattern_Practice,113,5,42,127,2333367636
100,22,11,Pattern_Practice,114,1,48,44,2333649724
100,22,11,Pattern_Practice,115,5,42,127,2333868452
100,22,11,Pattern_Practice,116,1,38,59,2333886708
100,22,11,Pattern_Practice,117,5,42,127,2334368372
100,22,11,Pattern_Practice,118,1,48,54,2334385704
100,22,11,Pattern_Practice,119,1,48,43,2334613312
100,22,11,Pattern_Practice,120,1,38,50,2334859480
100,22,11,Pattern_Practice,121,5,42,127,2334867740
100,22,11,Pattern_Practice,122,1,48,48,2335185268
100,22,11,Pattern_Practice,123,5,42,127,2335367496
100,22,11,Pattern_Practice,124,1,48,48,2335622184
100,22,11,Pattern_Practice,125,5,42,127,2335868312
100,22,11,Pattern_Practice,126,1,38,68,2335896040
100,22,11,Pattern_Practice,127,5,42,127,2336368156
100,22,11,Pattern_Practice,128,1,48,49,2336383984
100,22,11,Pattern_Practice,129,1,48,35,2336638156
100,22,11,Pattern_Practice,130,5,42,127,2336867604
100,22,11,Pattern_Practice,131,1,38,56,2336890468
100,22,11,Pattern_Practice,132,1,48,50,2337282808
100,22,11,Pattern_Practice,133,5,42,127,2337368412
100,22,11,Pattern_Practice,134,1,48,45,2337733360
100,22,11,Pattern_Practice,135,5,42,127,2337868316
100,22,11,Pattern_Practice,136,1,38,64,2338003848
100,22,11,Pattern_Practice,137,5,42,127,2338367860
100,22,11,Pattern_Practice,138,1,48,42,2338442484
100,22,11,Pattern_Practice,139,1,48,37,2338692980
100,22,11,Pattern_Practice,140,5,42,127,2338867680
100,22,11,Pattern_Practice,141,1,38,49,2338920092
100,22,11,Pattern_Practice,142,1,48,42,2339287824
100,22,11,Pattern_Practice,143,5,42,127,2339368340
100,22,11,Pattern_Practice,144,1,48,38,2339691152
100,22,11,Pattern_Practice,145,5,42,127,2339868392
100,22,11,Pattern_Practice,146,1,38,60,2339951096
100,22,11,Pattern_Practice,147,5,42,127,2340367716
100,22,11,Pattern_Practice,148,1,48,40,2340395892
100,22,11,Pattern_Practice,149,1,48,30,2340657912
100,22,11,Pattern_Practice,150,5,42,127,2340867316
100,22,11,Pattern_Practice,151,1,38,50,2340886744
100,22,11,Pattern_Practice,152,1,48,47,2341276740
100,22,11,Pattern_Practice,153,5,42,127,2341368200
100,22,11,Pattern_Practice,154,1,48,42,2341663936
100,22,11,Pattern_Practice,155,5,42,127,2341868100
100,22,11,Pattern_Practice,156,1,38,58,2341893136
100,22,11,Pattern_Practice,157,1,48,42,2342349356
100,22,11,Pattern_Practice,158,5,42,127,2342367568
100,22,11,Pattern_Practice,159,1,48,40,2342617156
100,22,11,Pattern_Practice,160,1,38,56,2342849180
100,22,11,Pattern_Practice,161,5,42,127,2342868288
100,22,11,Pattern_Practice,162,1,48,53,2343246980
100,22,11,Pattern_Practice,163,5,42,127,2343368264
100,22,11,Pattern_Practice,164,1,48,43,2343649288
100,22,11,Pattern_Practice,165,5,42,127,2343867712
100,22,11,Pattern_Practice,166,1,38,59,2343914308
100,22,11,Pattern_Practice,167,5,42,127,2344367480
100,22,11,Pattern_Practice,168,1,48,46,2344380920
100,22,11,Pattern_Practice,169,1,48,38,2344632140
100,22,11,Pattern_Practice,170,1,38,54,2344859084
100,22,11,Pattern_Practice,171,5,42,127,2344868244
100,22,11,Pattern_Practice,172,1,48,45,2345266028
100,22,11,Pattern_Practice,173,5,42,127,2345367996
100,22,11,Pattern_Practice,174,1,48,43,2345661128
100,22,11,Pattern_Practice,175,5,42,127,2345867668
100,22,11,Pattern_Practice,176,1,38,67,2345947408
100,22,11,Pattern_Practice,177,5,42,127,2346368336
100,22,11,Pattern_Practice,178,1,48,44,2346453900
100,22,11,Pattern_Practice,179,1,48,37,2346736492
100,22,11,Pattern_Practice,180,5,42,127,2346868156
100,22,11,Pattern_Practice,181,1,38,57,2346971752
100,22,11,Pattern_Practice,0,9999,9999,9999,2307365968
100,22,11,Pattern_Practice,1,9999,9999,9999,2307865684
100,22,11,Pattern_Practice,2,9999,9999,9999,2308365404
100,22,11,Pattern_Practice,3,9999,9999,9999,2308865120
100,22,11,Pattern_Practice,4,9999,9999,9999,2309365880
100,22,11,Pattern_Practice,5,9999,9999,9999,2309865524
100,22,11,Pattern_Practice,6,9999,9999,9999,2310365240
100,22,11,Pattern_Practice,7,9999,9999,9999,2310866004
100,22,11,Pattern_Practice,8,9999,9999,9999,2311365720
100,22,11,Pattern_Practice,9,9999,9999,9999,2311865412
100,22,11,Pattern_Practice,10,9999,9999,9999,2312365128
100,22,11,Pattern_Practice,11,9999,9999,9999,2312865892
100,22,11,Pattern_Practice,12,9999,9999,9999,2313365608
100,22,11,Pattern_Practice,13,9999,9999,9999,2313865280
100,22,11,Pattern_Practice,14,9999,9999,9999,2314366012
100,22,11,Pattern_Practice,15,9999,9999,9999,2314865768
100,22,11,Pattern_Practice,16,9999,9999,9999,2315365456
100,22,11,Pattern_Practice,17,9999,9999,9999,2315865204
100,22,11,Pattern_Practice,18,9999,9999,9999,2316365944
100,22,11,Pattern_Practice,19,9999,9999,9999,2316865616
100,22,11,Pattern_Practice,20,9999,9999,9999,2317365312
100,22,11,Pattern_Practice,21,9999,9999,9999,2317866108
100,22,11,Pattern_Practice,22,9999,9999,9999,2318365804
100,22,11,Pattern_Practice,23,9999,9999,9999,2318865476
100,22,11,Pattern_Practice,24,9999,9999,9999,2319365172
100,22,11,Pattern_Practice,25,9999,9999,9999,2319865972
100,22,11,Pattern_Practice,26,9999,9999,9999,2320365664
100,22,11,Pattern_Practice,27,9999,9999,9999,2320865332
100,22,11,Pattern_Practice,28,9999,9999,9999,2321366076
100,22,11,Pattern_Practice,29,9999,9999,9999,2321865820
100,22,11,Pattern_Practice,30,9999,9999,9999,2322365492
100,22,11,Pattern_Practice,31,9999,9999,9999,2322865236
100,22,11,Pattern_Practice,32,9999,9999,9999,2323365980
100,22,11,Pattern_Practice,33,9999,9999,9999,2323865652
100,22,11,Pattern_Practice,34,9999,9999,9999,2324365424
100,22,11,Pattern_Practice,35,9999,9999,9999,2324865096
100,22,11,Pattern_Practice,36,9999,9999,9999,2325365812
100,22,11,Pattern_Practice,37,9999,9999,9999,2325865560
100,22,11,Pattern_Practice,38,9999,9999,9999,2326365256
100,22,11,Pattern_Practice,39,9999,9999,9999,2326865976
100,22,11,Pattern_Practice,40,9999,9999,9999,2327365744
100,22,11,Pattern_Practice,41,9999,9999,9999,2327865416
100,22,11,Pattern_Practice,42,9999,9999,9999,2328365112
100,22,11,Pattern_Practice,43,9999,9999,9999,2328865904
100,22,11,Pattern_Practice,44,9999,9999,9999,2329365584
100,22,11,Pattern_Practice,45,9999,9999,9999,2329865280
100,22,11,Pattern_Practice,46,9999,9999,9999,2330366024
100,22,11,Pattern_Practice,47,9999,9999,9999,2330865768
100,22,11,Pattern_Practice,48,9999,9999,9999,2331365444
100,22,11,Pattern_Practice,49,9999,9999,9999,2331865140
100,22,11,Pattern_Practice,50,9999,9999,9999,2332365880
100,22,11,Pattern_Practice,51,9999,9999,9999,2332865628
100,22,11,Pattern_Practice,52,9999,9999,9999,2333365352
100,22,11,Pattern_Practice,53,9999,9999,9999,2333866092
100,22,11,Pattern_Practice,54,9999,9999,9999,2334365788
100,22,11,Pattern_Practice,55,9999,9999,9999,2334865528
100,22,11,Pattern_Practice,56,9999,9999,9999,2335365208
100,22,11,Pattern_Practice,57,9999,9999,9999,2335865948
100,22,11,Pattern_Practice,58,9999,9999,9999,2336365644
100,22,11,Pattern_Practice,59,9999,9999,9999,2336865392
100,22,11,Pattern_Practice,60,9999,9999,9999,2337366128
100,22,11,Pattern_Practice,61,9999,9999,9999,2337865804
100,22,11,Pattern_Practice,62,9999,9999,9999,2338365500
100,22,11,Pattern_Practice,63,9999,9999,9999,2338865248
100,22,11,Pattern_Practice,64,9999,9999,9999,2339365980
100,22,11,Pattern_Practice,65,9999,9999,9999,2339865660
100,22,11,Pattern_Practice,66,9999,9999,9999,2340365428
100,22,11,Pattern_Practice,67,9999,9999,9999,2340865104
100,22,11,Pattern_Practice,68,9999,9999,9999,2341365840
100,22,11,Pattern_Practice,69,9999,9999,9999,2341865592
100,22,11,Pattern_Practice,70,9999,9999,9999,2342365280
100,22,11,Pattern_Practice,71,9999,9999,9999,2342866000
100,22,11,Pattern_Practice,72,9999,9999,9999,2343365680
100,22,11,Pattern_Practice,73,9999,9999,9999,2343865428
100,22,11,Pattern_Practice,74,9999,9999,9999,2344365120
100,22,11,Pattern_Practice,75,9999,9999,9999,2344865880
100,22,11,Pattern_Practice,76,9999,9999,9999,2345365564
100,22,11,Pattern_Practice,77,9999,9999,9999,2345865308
100,22,11,Pattern_Practice,78,9999,9999,9999,2346366048
100,22,11,Pattern_Practice,79,9999,9999,9999,2346865720
100,23,13,Improv_Metronome,0,5,42,127,2391008612
100,23,13,Improv_Metronome,1,5,42,127,2391509448
100,23,13,Improv_Metronome,2,5,42,127,2392009016
100,23,13,Improv_Metronome,3,5,42,127,2392508732
100,23,13,Improv_Metronome,4,1,48,60,2392990356
100,23,13,Improv_Metronome,5,5,42,127,2393008344
100,23,13,Improv_Metronome,6,1,48,54,2393226140
100,23,13,Improv_Metronome,7,1,38,60,2393469384
100,23,13,Improv_Metronome,8,5,42,127,2393509360
100,23,13,Improv_Metronome,9,1,48,53,2393839380
100,23,13,Improv_Metronome,10,5,42,127,2394008968
100,23,13,Improv_Metronome,11,1,48,55,2394237848
100,23,13,Improv_Metronome,12,1,38,61,2394481392
100,23,13,Improv_Metronome,13,5,42,127,2394508580
100,23,13,Improv_Metronome,14,1,48,56,2395004720
100,23,13,Improv_Metronome,15,5,42,127,2395009472
100,23,13,Improv_Metronome,16,1,48,46,2395245368
100,23,13,Improv_Metronome,17,5,42,127,2395509372
100,23,13,Improv_Metronome,18,1,38,65,2395513992
100,23,13,Improv_Metronome,19,1,48,55,2395891592
100,23,13,Improv_Metronome,20,5,42,127,2396008820
100,23,13,Improv_Metronome,21,1,48,50,2396283328
100,23,13,Improv_Metronome,22,5,42,127,2396508516
100,23,13,Improv_Metronome,23,1,38,64,2396528612
100,23,13,Improv_Metronome,24,1,48,48,2396996500
100,23,13,Improv_Metronome,25,5,42,127,2397009324
100,23,13,Improv_Metronome,26,1,48,45,2397250384
100,23,13,Improv_Metronome,27,5,42,127,2397508932
100,23,13,Improv_Metronome,28,1,38,66,2397519828
100,23,13,Improv_Metronome,29,1,48,57,2397899604
100,23,13,Improv_Metronome,30,5,42,127,2398008756
100,23,13,Improv_Metronome,31,1,48,48,2398306300
100,23,13,Improv_Metronome,32,5,42,127,2398509496
100,23,13,Improv_Metronome,33,1,38,62,2398569312
100,23,13,Improv_Metronome,34,5,42,127,2399009416
100,23,13,Improv_Metronome,35,1,48,48,2399038568
100,23,13,Improv_Metronome,36,1,48,41,2399295652
100,23,13,Improv_Metronome,37,5,42,127,2399508868
100,23,13,Improv_Metronome,38,1,38,59,2399538164
100,23,13,Improv_Metronome,39,1,48,50,2399913872
100,23,13,Improv_Metronome,40,5,42,127,2400008404
100,23,13,Improv_Metronome,41,1,48,41,2400283492
100,23,13,Improv_Metronome,42,5,42,127,2400509356
100,23,13,Improv_Metronome,43,1,38,49,2400555408
100,23,13,Improv_Metronome,44,1,48,54,2400993148
100,23,13,Improv_Metronome,45,5,42,127,2401009340
100,23,13,Improv_Metronome,46,1,48,45,2401255492
100,23,13,Improv_Metronome,47,1,38,54,2401491032
100,23,13,Improv_Metronome,48,5,42,127,2401508716
100,23,13,Improv_Metronome,49,1,48,54,2401859280
100,23,13,Improv_Metronome,50,5,42,127,2402008400
100,23,13,Improv_Metronome,51,1,48,50,2402275356
100,23,13,Improv_Metronome,52,5,42,127,2402509360
100,23,13,Improv_Metronome,53,1,38,65,2402518168
100,23,13,Improv_Metronome,54,5,42,127,2403008984
100,23,13,Improv_Metronome,55,1,48,52,2403015992
100,23,13,Improv_Metronome,56,1,48,43,2403263500
100,23,13,Improv_Metronome,57,1,38,61,2403490040
100,23,13,Improv_Metronome,58,5,42,127,2403508624
100,23,13,Improv_Metronome,59,1,48,45,2403855848
100,23,13,Improv_Metronome,60,5,42,127,2404009276
100,23,13,Improv_Metronome,61,1,48,50,2404258956
100,23,13,Improv_Metronome,62,1,38,75,2404506240
100,23,13,Improv_Metronome,63,5,42,127,2404509264
100,23,13,Improv_Metronome,64,5,42,127,2405008668
100,23,13,Improv_Metronome,65,1,48,53,2405014252
100,23,13,Improv_Metronome,66,1,48,43,2405260344
100,23,13,Improv_Metronome,67,1,38,54,2405505756
100,23,13,Improv_Metronome,68,5,42,127,2405508632
100,23,13,Improv_Metronome,69,1,48,52,2405890116
100,23,13,Improv_Metronome,70,5,42,127,2406009136
100,23,13,Improv_Metronome,71,1,48,48,2406321116
100,23,13,Improv_Metronome,72,5,42,127,2406509128
100,23,13,Improv_Metronome,73,1,38,58,2406537236
100,23,13,Improv_Metronome,74,5,42,127,2407008600
100,23,13,Improv_Metronome,75,1,48,57,2407045232
100,23,13,Improv_Metronome,76,1,48,49,2407287952
100,23,13,Improv_Metronome,77,5,42,127,2407509392
100,23,13,Improv_Metronome,78,1,38,58,2407544600
100,23,13,Improv_Metronome,79,1,48,53,2407878076
100,23,13,Improv_Metronome,80,5,42,127,2408009140
100,23,13,Improv_Metronome,81,1,48,50,2408235184
100,23,13,Improv_Metronome,82,5,42,127,2408508912
100,23,13,Improv_Metronome,83,1,38,69,2408536860
100,23,13,Improv_Metronome,84,1,48,54,2408993524
100,23,13,Improv_Metronome,85,5,42,127,2409008376
100,23,13,Improv_Metronome,86,1,48,44,2409243676
100,23,13,Improv_Metronome,87,1,38,57,2409474056
100,23,13,Improv_Metronome,88,5,42,127,2409509244
100,23,13,Improv_Metronome,89,1,48,53,2409842676
100,23,13,Improv_Metronome,90,5,42,127,2410008924
100,23,13,Improv_Metronome,91,1,48,51,2410230696
100,23,13,Improv_Metronome,92,1,38,72,2410498332
100,23,13,Improv_Metronome,93,5,42,127,2410508836
100,23,13,Improv_Metronome,94,1,48,47,2410985160
100,23,13,Improv_Metronome,95,5,42,127,2411009428
100,23,13,Improv_Metronome,96,1,48,42,2411265452
100,23,13,Improv_Metronome,97,5,42,127,2411509032
100,23,13,Improv_Metronome,98,1,38,63,2411521280
100,23,13,Improv_Metronome,99,1,48,50,2411903644
100,23,13,Improv_Metronome,100,5,42,127,2412008780
100,23,13,Improv_Metronome,101,1,48,47,2412267280
100,23,13,Improv_Metronome,102,5,42,127,2412508624
100,23,13,Improv_Metronome,103,1,38,65,2412544656
100,23,13,Improv_Metronome,104,1,48,54,2413002516
100,23,13,Improv_Metronome,105,5,42,127,2413009212
100,23,13,Improv_Metronome,106,1,48,35,2413254160
100,23,13,Improv_Metronome,107,1,38,54,2413483616
100,23,13,Improv_Metronome,108,5,42,127,2413508960
100,23,13,Improv_Metronome,109,1,48,47,2413854812
100,23,13,Improv_Metronome,110,5,42,127,2414008688
100,23,13,Improv_Metronome,111,1,48,41,2414217528
100,23,13,Improv_Metronome,112,1,38,67,2414489792
100,23,13,Improv_Metronome,113,5,42,127,2414509496
100,23,13,Improv_Metronome,114,1,48,58,2414959796
100,23,13,Improv_Metronome,115,5,42,127,2415009268
100,23,13,Improv_Metronome,116,1,48,42,2415220628
100,23,13,Improv_Metronome,117,1,38,57,2415482648
100,23,13,Improv_Metronome,118,5,42,127,2415508936
100,23,13,Improv_Metronome,119,1,48,54,2415886980
100,23,13,Improv_Metronome,120,5,42,127,2416008472
100,23,13,Improv_Metronome,121,1,48,49,2416212072
100,23,13,Improv_Metronome,122,5,42,127,2416509360
100,23,13,Improv_Metronome,123,1,38,73,2416515104
100,23,13,Improv_Metronome,124,5,42,127,2417009056
100,23,13,Improv_Metronome,125,1,48,52,2417010468
100,23,13,Improv_Metronome,126,1,48,49,2417282720
100,23,13,Improv_Metronome,127,5,42,127,2417508876
100,23,13,Improv_Metronome,128,1,38,71,2417533988
100,23,13,Improv_Metronome,129,1,48,53,2417944352
100,23,13,Improv_Metronome,130,5,42,127,2418008416
100,23,13,Improv_Metronome,131,1,48,42,2418329208
100,23,13,Improv_Metronome,132,5,42,127,2418509140
100,23,13,Improv_Metronome,133,1,38,72,2418574344
100,23,13,Improv_Metronome,134,1,48,45,2419008460
100,23,13,Improv_Metronome,135,5,42,127,2419010024
100,23,13,Improv_Metronome,136,1,48,33,2419282952
100,23,13,Improv_Metronome,137,5,42,127,2419508656
100,23,13,Improv_Metronome,138,1,38,48,2419524268
100,23,13,Improv_Metronome,139,1,48,46,2419907036
100,23,13,Improv_Metronome,140,5,42,127,2420009376
100,23,13,Improv_Metronome,141,1,48,43,2420280376
100,23,13,Improv_Metronome,142,5,42,127,2420509000
100,23,13,Improv_Metronome,143,1,38,74,2420560436
100,23,13,Improv_Metronome,144,5,42,127,2421008844
100,23,13,Improv_Metronome,145,1,48,50,2421017948
100,23,13,Improv_Metronome,146,1,48,37,2421269648
100,23,13,Improv_Metronome,147,5,42,127,2421508444
100,23,13,Improv_Metronome,148,1,38,73,2421554572
100,23,13,Improv_Metronome,149,1,48,47,2421927220
100,23,13,Improv_Metronome,150,5,42,127,2422009180
100,23,13,Improv_Metronome,151,1,48,40,2422273424
100,23,13,Improv_Metronome,152,1,38,56,2422504400
100,23,13,Improv_Metronome,153,5,42,127,2422508776
100,23,13,Improv_Metronome,154,1,48,49,2422969992
100,23,13,Improv_Metronome,155,5,42,127,2423008696
100,23,13,Improv_Metronome,156,1,48,26,2423219136
100,23,13,Improv_Metronome,157,1,38,53,2423453032
100,23,13,Improv_Metronome,158,5,42,127,2423509264
100,23,13,Improv_Metronome,159,1,48,51,2423854064
100,23,13,Improv_Metronome,160,5,42,127,2424009092
100,23,13,Improv_Metronome,161,1,48,35,2424197108
100,23,13,Improv_Metronome,162,1,38,62,2424457264
100,23,13,Improv_Metronome,163,5,42,127,2424508856
100,23,13,Improv_Metronome,164,1,48,51,2424978868
100,23,13,Improv_Metronome,165,5,42,127,2425008448
100,23,13,Improv_Metronome,166,1,48,42,2425249432
100,23,13,Improv_Metronome,167,1,38,65,2425499860
100,23,13,Improv_Metronome,168,5,42,127,2425509092
100,23,13,Improv_Metronome,169,1,48,52,2425910164
100,23,13,Improv_Metronome,170,5,42,127,2426008864
100,23,13,Improv_Metronome,171,1,48,49,2426280964
100,23,13,Improv_Metronome,172,5,42,127,2426508840
100,23,13,Improv_Metronome,173,1,38,70,2426568008
100,23,13,Improv_Metronome,174,5,42,127,2427009284
100,23,13,Improv_Metronome,175,1,48,56,2427046508
100,23,13,Improv_Metronome,176,1,48,39,2427285336
100,23,13,Improv_Metronome,177,5,42,127,2427509028
100,23,13,Improv_Metronome,178,1,38,62,2427551192
100,23,13,Improv_Metronome,179,1,48,54,2427936880
100,23,13,Improv_Metronome,180,5,42,127,2428008940
100,23,13,Improv_Metronome,181,1,48,51,2428320312
100,23,13,Improv_Metronome,182,5,42,127,2428508620
100,23,13,Improv_Metronome,183,1,38,62,2428560584
100,23,13,Improv_Metronome,184,5,42,127,2429009360
100,23,13,Improv_Metronome,185,1,48,59,2429057808
100,23,13,Improv_Metronome,186,1,48,41,2429299936
100,23,13,Improv_Metronome,187,5,42,127,2429508960
100,23,13,Improv_Metronome,188,1,38,59,2429526812
100,23,13,Improv_Metronome,189,1,48,49,2429856900
100,23,13,Improv_Metronome,190,5,42,127,2430008856
100,23,13,Improv_Metronome,191,1,48,53,2430245224
100,23,13,Improv_Metronome,192,1,38,71,2430496848
100,23,13,Improv_Metronome,193,5,42,127,2430509296
100,23,13,Improv_Metronome,194,1,48,59,2430991532
100,23,13,Improv_Metronome,195,5,42,127,2431009068
100,23,13,Improv_Metronome,196,1,48,43,2431236664
100,23,13,Improv_Metronome,197,1,38,76,2431482900
100,23,13,Improv_Metronome,198,5,42,127,2431508812
100,23,13,Improv_Metronome,199,1,48,58,2431846740
100,23,13,Improv_Metronome,200,5,42,127,2432008788
100,23,13,Improv_Metronome,201,1,48,54,2432222340
100,23,13,Improv_Metronome,202,1,38,72,2432468728
100,23,13,Improv_Metronome,203,5,42,127,2432509228
100,23,13,Improv_Metronome,204,1,48,57,2432953232
100,23,13,Improv_Metronome,205,5,42,127,2433008920
100,23,13,Improv_Metronome,206,1,48,43,2433191464
100,23,13,Improv_Metronome,207,1,38,71,2433456700
100,23,13,Improv_Metronome,208,5,42,127,2433508816
100,23,13,Improv_Metronome,209,1,48,56,2433876656
100,23,13,Improv_Metronome,210,5,42,127,2434008644
100,23,13,Improv_Metronome,211,1,48,52,2434243740
100,23,13,Improv_Metronome,212,1,38,66,2434492592
100,23,13,Improv_Metronome,213,5,42,127,2434509304
100,23,13,Improv_Metronome,214,1,48,56,2434998472
100,23,13,Improv_Metronome,215,5,42,127,2435008924
100,23,13,Improv_Metronome,216,1,48,39,2435247568
100,23,13,Improv_Metronome,217,1,38,73,2435484376
100,23,13,Improv_Metronome,218,5,42,127,2435508796
100,23,13,Improv_Metronome,219,1,48,50,2435881604
100,23,13,Improv_Metronome,220,5,42,127,2436009376
100,23,13,Improv_Metronome,221,1,48,43,2436229360
100,23,13,Improv_Metronome,222,5,42,127,2436508996
100,23,13,Improv_Metronome,223,1,38,85,2436512712
100,23,13,Improv_Metronome,224,1,48,52,2436998776
100,23,13,Improv_Metronome,225,5,42,127,2437008684
100,23,13,Improv_Metronome,226,1,48,39,2437242784
100,23,13,Improv_Metronome,227,1,38,57,2437501812
100,23,13,Improv_Metronome,228,5,42,127,2437508656
100,23,13,Improv_Metronome,229,1,48,53,2437894552
100,23,13,Improv_Metronome,230,5,42,127,2438009308
100,23,13,Improv_Metronome,231,1,48,50,2438227868
100,23,13,Improv_Metronome,232,1,38,74,2438456456
100,23,13,Improv_Metronome,233,5,42,127,2438508848
100,23,13,Improv_Metronome,234,1,48,52,2438924280
100,23,13,Improv_Metronome,235,5,42,127,2439008840
100,23,13,Improv_Metronome,236,1,48,46,2439211000
100,23,13,Improv_Metronome,237,1,38,71,2439446396
100,23,13,Improv_Metronome,238,5,42,127,2439509484
100,23,13,Improv_Metronome,239,1,48,63,2439883704
100,23,13,Improv_Metronome,240,5,42,127,2440009016
100,23,13,Improv_Metronome,241,1,48,50,2440210448
100,23,13,Improv_Metronome,242,1,38,89,2440483160
100,23,13,Improv_Metronome,243,5,42,127,2440508704
100,23,13,Improv_Metronome,244,1,48,49,2440988240
100,23,13,Improv_Metronome,245,5,42,127,2441008696
100,23,13,Improv_Metronome,246,1,48,42,2441241524
100,23,13,Improv_Metronome,247,1,38,59,2441502948
100,23,13,Improv_Metronome,248,5,42,127,2441509264
100,23,13,Improv_Metronome,249,1,48,55,2441940784
100,23,13,Improv_Metronome,250,5,42,127,2442008960
100,23,13,Improv_Metronome,251,1,48,47,2442309936
100,23,13,Improv_Metronome,252,5,42,127,2442508640
100,23,13,Improv_Metronome,253,1,38,59,2442547960
100,23,13,Improv_Metronome,254,1,48,49,2442969472
100,23,13,Improv_Metronome,255,5,42,127,2443009524
100,23,13,Improv_Metronome,256,1,48,39,2443260828
100,23,13,Improv_Metronome,257,1,38,59,2443505348
100,23,13,Improv_Metronome,258,5,42,127,2443509048
100,23,13,Improv_Metronome,259,1,48,53,2443909800
100,23,13,Improv_Metronome,260,5,42,127,2444008816
100,23,13,Improv_Metronome,261,1,48,45,2444246512
100,23,13,Improv_Metronome,262,5,42,127,2444508720
100,23,13,Improv_Metronome,263,1,38,69,2444543920
100,23,13,Improv_Metronome,264,1,48,49,2444979024
100,23,13,Improv_Metronome,265,5,42,127,2445009528
100,23,13,Improv_Metronome,266,1,48,45,2445254780
100,23,13,Improv_Metronome,267,1,38,60,2445489696
100,23,13,Improv_Metronome,268,5,42,127,2445508900
100,23,13,Improv_Metronome,269,1,48,51,2445888408
100,23,13,Improv_Metronome,270,5,42,127,2446008656
100,23,13,Improv_Metronome,271,1,48,46,2446242224
100,23,13,Improv_Metronome,272,1,38,67,2446477620
100,23,13,Improv_Metronome,273,5,42,127,2446509516
100,23,13,Improv_Metronome,274,1,48,57,2446959580
100,23,13,Improv_Metronome,275,5,42,127,2447009136
100,23,13,Improv_Metronome,276,1,48,44,2447237332
100,23,13,Improv_Metronome,277,1,38,64,2447488428
100,23,13,Improv_Metronome,278,5,42,127,2447508808
100,23,13,Improv_Metronome,279,1,48,55,2447872560
100,23,13,Improv_Metronome,280,5,42,127,2448008636
100,23,13,Improv_Metronome,281,1,48,50,2448220612
100,23,13,Improv_Metronome,282,1,38,64,2448489520
100,23,13,Improv_Metronome,283,5,42,127,2448509444
100,23,13,Improv_Metronome,284,1,48,52,2448973800
100,23,13,Improv_Metronome,285,5,42,127,2449009068
100,23,13,Improv_Metronome,286,1,48,47,2449244140
100,23,13,Improv_Metronome,287,1,38,66,2449481552
100,23,13,Improv_Metronome,288,5,42,127,2449508668
100,23,13,Improv_Metronome,289,1,48,59,2449876680
100,23,13,Improv_Metronome,290,5,42,127,2450008568
100,23,13,Improv_Metronome,291,1,48,46,2450221224
100,23,13,Improv_Metronome,292,1,38,64,2450482568
100,23,13,Improv_Metronome,293,5,42,127,2450509380
100,23,13,Improv_Metronome,294,1,48,56,2450951376
100,23,13,Improv_Metronome,295,5,42,127,2451008780
100,23,13,Improv_Metronome,296,1,48,39,2451219768
100,23,13,Improv_Metronome,297,1,38,59,2451450744
100,23,13,Improv_Metronome,298,5,42,127,2451508600
100,23,13,Improv_Metronome,299,1,48,57,2451844504
100,23,13,Improv_Metronome,300,5,42,127,2452009476
100,23,13,Improv_Metronome,301,1,48,51,2452222056
100,23,13,Improv_Metronome,302,1,38,65,2452473300
100,23,13,Improv_Metronome,303,5,42,127,2452509016
100,23,13,Improv_Metronome,304,1,48,60,2452967384
100,23,13,Improv_Metronome,305,5,42,127,2453008708
100,23,13,Improv_Metronome,306,1,48,49,2453253584
100,23,13,Improv_Metronome,307,5,42,127,2453508536
100,23,13,Improv_Metronome,308,1,38,74,2453512704
100,23,13,Improv_Metronome,309,1,48,55,2453931500
100,23,13,Improv_Metronome,310,5,42,127,2454009272
100,23,13,Improv_Metronome,311,1,48,40,2454282868
100,23,13,Improv_Metronome,312,5,42,127,2454509024
100,23,13,Improv_Metronome,313,1,38,63,2454586792
100,23,13,Improv_Metronome,314,5,42,127,2455008648
100,23,13,Improv_Metronome,315,1,48,59,2455075044
100,23,13,Improv_Metronome,316,1,48,42,2455338856
100,23,13,Improv_Metronome,317,5,42,127,2455509588
100,23,13,Improv_Metronome,318,1,38,67,2455586840
100,23,13,Improv_Metronome,319,1,48,55,2455980720
100,23,13,Improv_Metronome,320,5,42,127,2456009204
100,23,13,Improv_Metronome,321,1,48,48,2456344504
100,23,13,Improv_Metronome,322,5,42,127,2456508660
100,23,13,Improv_Metronome,323,1,38,59,2456581416
100,23,13,Improv_Metronome,324,1,38,23,2456648040
100,23,13,Improv_Metronome,325,5,42,127,2457008532
100,23,13,Improv_Metronome,326,1,48,58,2457065376
100,23,13,Improv_Metronome,327,1,48,42,2457313564
100,23,13,Improv_Metronome,328,5,42,127,2457509476
100,23,13,Improv_Metronome,329,1,38,62,2457555776
100,23,13,Improv_Metronome,330,1,48,58,2457901272
100,23,13,Improv_Metronome,331,5,42,127,2458008928
100,23,13,Improv_Metronome,332,1,48,48,2458249924
100,23,13,Improv_Metronome,333,5,42,127,2458508768
100,23,13,Improv_Metronome,334,1,38,71,2458513460
100,23,13,Improv_Metronome,335,1,48,49,2458991144
100,23,13,Improv_Metronome,336,5,42,127,2459009580
100,23,13,Improv_Metronome,337,1,48,36,2459246228
100,23,13,Improv_Metronome,338,1,38,58,2459477800
100,23,13,Improv_Metronome,339,5,42,127,2459509104
100,23,13,Improv_Metronome,340,1,48,49,2459848996
100,23,13,Improv_Metronome,341,5,42,127,2460008856
100,23,13,Improv_Metronome,342,1,48,43,2460212008
100,23,13,Improv_Metronome,343,1,38,78,2460458620
100,23,13,Improv_Metronome,344,5,42,127,2460508544
100,23,13,Improv_Metronome,345,1,38,24,2460527056
100,23,13,Improv_Metronome,346,1,48,52,2460947224
100,23,13,Improv_Metronome,0,9999,9999,9999,2391006324
100,23,13,Improv_Metronome,1,9999,9999,9999,2391507012
100,23,13,Improv_Metronome,2,9999,9999,9999,2392006732
100,23,13,Improv_Metronome,3,9999,9999,9999,2392506448
100,23,13,Improv_Metronome,4,9999,9999,9999,2393006132
100,23,13,Improv_Metronome,5,9999,9999,9999,2393506924
100,23,13,Improv_Metronome,6,9999,9999,9999,2394006604
100,23,13,Improv_Metronome,7,9999,9999,9999,2394506292
100,23,13,Improv_Metronome,8,9999,9999,9999,2395007036
100,23,13,Improv_Metronome,9,9999,9999,9999,2395506788
100,23,13,Improv_Metronome,10,9999,9999,9999,2396006460
100,23,13,Improv_Metronome,11,9999,9999,9999,2396506232
100,23,13,Improv_Metronome,12,9999,9999,9999,2397006964
100,23,13,Improv_Metronome,13,9999,9999,9999,2397506644
100,23,13,Improv_Metronome,14,9999,9999,9999,2398006320
100,23,13,Improv_Metronome,15,9999,9999,9999,2398507060
100,23,13,Improv_Metronome,16,9999,9999,9999,2399006832
100,23,13,Improv_Metronome,17,9999,9999,9999,2399506504
100,23,13,Improv_Metronome,18,9999,9999,9999,2400006192
100,23,13,Improv_Metronome,19,9999,9999,9999,2400506992
100,23,13,Improv_Metronome,20,9999,9999,9999,2401006680
100,23,13,Improv_Metronome,21,9999,9999,9999,2401506356
100,23,13,Improv_Metronome,22,9999,9999,9999,2402006112
100,23,13,Improv_Metronome,23,9999,9999,9999,2402506852
100,23,13,Improv_Metronome,24,9999,9999,9999,2403006548
100,23,13,Improv_Metronome,25,9999,9999,9999,2403506264
100,23,13,Improv_Metronome,26,9999,9999,9999,2404006988
100,23,13,Improv_Metronome,27,9999,9999,9999,2404506680
100,23,13,Improv_Metronome,28,9999,9999,9999,2405006456
100,23,13,Improv_Metronome,29,9999,9999,9999,2405506124
100,23,13,Improv_Metronome,30,9999,9999,9999,2406006848
100,23,13,Improv_Metronome,31,9999,9999,9999,2406506616
100,23,13,Improv_Metronome,32,9999,9999,9999,2407006312
100,23,13,Improv_Metronome,33,9999,9999,9999,2407507032
100,23,13,Improv_Metronome,34,9999,9999,9999,2408006704
100,23,13,Improv_Metronome,35,9999,9999,9999,2408506476
100,23,13,Improv_Metronome,36,9999,9999,9999,2409006164
100,23,13,Improv_Metronome,37,9999,9999,9999,2409506884
100,23,13,Improv_Metronome,38,9999,9999,9999,2410006636
100,23,13,Improv_Metronome,39,9999,9999,9999,2410506324
100,23,13,Improv_Metronome,40,9999,9999,9999,2411007068
100,23,13,Improv_Metronome,41,9999,9999,9999,2411506748
100,23,13,Improv_Metronome,42,9999,9999,9999,2412006492
100,23,13,Improv_Metronome,43,9999,9999,9999,2412506188
100,23,13,Improv_Metronome,44,9999,9999,9999,2413006924
100,23,13,Improv_Metronome,45,9999,9999,9999,2413506672
100,23,13,Improv_Metronome,46,9999,9999,9999,2414006328
100,23,13,Improv_Metronome,47,9999,9999,9999,2414507060
100,23,13,Improv_Metronome,48,9999,9999,9999,2415006832
100,23,13,Improv_Metronome,49,9999,9999,9999,2415506504
100,23,13,Improv_Metronome,50,9999,9999,9999,2416006260
100,23,13,Improv_Metronome,51,9999,9999,9999,2416507000
100,23,13,Improv_Metronome,52,9999,9999,9999,2417006696
100,23,13,Improv_Metronome,53,9999,9999,9999,2417506368
100,23,13,Improv_Metronome,54,9999,9999,9999,2418006128
100,23,13,Improv_Metronome,55,9999,9999,9999,2418506856
100,23,13,Improv_Metronome,56,9999,9999,9999,2419006548
100,23,13,Improv_Metronome,57,9999,9999,9999,2419506296
100,23,13,Improv_Metronome,58,9999,9999,9999,2420007016
100,23,13,Improv_Metronome,59,9999,9999,9999,2420506712
100,23,13,Improv_Metronome,60,9999,9999,9999,2421006408
100,23,13,Improv_Metronome,61,9999,9999,9999,2421506156
100,23,13,Improv_Metronome,62,9999,9999,9999,2422006892
100,23,13,Improv_Metronome,63,9999,9999,9999,2422506564
100,23,13,Improv_Metronome,64,9999,9999,9999,2423006260
100,23,13,Improv_Metronome,65,9999,9999,9999,2423507052
100,23,13,Improv_Metronome,66,9999,9999,9999,2424006732
100,23,13,Improv_Metronome,67,9999,9999,9999,2424506420
100,23,13,Improv_Metronome,68,9999,9999,9999,2425006164
100,23,13,Improv_Metronome,69,9999,9999,9999,2425506880
100,23,13,Improv_Metronome,70,9999,9999,9999,2426006576
100,23,13,Improv_Metronome,71,9999,9999,9999,2426506328
100,23,13,Improv_Metronome,72,9999,9999,9999,2427007072
100,23,13,Improv_Metronome,73,9999,9999,9999,2427506740
100,23,13,Improv_Metronome,74,9999,9999,9999,2428006504
100,23,13,Improv_Metronome,75,9999,9999,9999,2428506188
100,23,13,Improv_Metronome,76,9999,9999,9999,2429006928
100,23,13,Improv_Metronome,77,9999,9999,9999,2429506672
100,23,13,Improv_Metronome,78,9999,9999,9999,2430006348
100,23,13,Improv_Metronome,79,9999,9999,9999,2430507084
100,23,13,Improv_Metronome,80,9999,9999,9999,2431006780
100,23,13,Improv_Metronome,81,9999,9999,9999,2431506528
100,23,13,Improv_Metronome,82,9999,9999,9999,2432006204
100,23,13,Improv_Metronome,83,9999,9999,9999,2432506940
100,23,13,Improv_Metronome,84,9999,9999,9999,2433006708
100,23,13,Improv_Metronome,85,9999,9999,9999,2433506380
100,23,13,Improv_Metronome,86,9999,9999,9999,2434006136
100,23,13,Improv_Metronome,87,9999,9999,9999,2434506872
100,23,13,Improv_Metronome,88,9999,9999,9999,2435006564
100,23,13,Improv_Metronome,89,9999,9999,9999,2435506288
100,23,13,Improv_Metronome,90,9999,9999,9999,2436007016
100,23,13,Improv_Metronome,91,9999,9999,9999,2436506712
100,23,13,Improv_Metronome,92,9999,9999,9999,2437006400
100,23,13,Improv_Metronome,93,9999,9999,9999,2437506144
100,23,13,Improv_Metronome,94,9999,9999,9999,2438006872
100,23,13,Improv_Metronome,95,9999,9999,9999,2438506560
100,23,13,Improv_Metronome,96,9999,9999,9999,2439006328
100,23,13,Improv_Metronome,97,9999,9999,9999,2439507048
100,23,13,Improv_Metronome,98,9999,9999,9999,2440006728
100,23,13,Improv_Metronome,99,9999,9999,9999,2440506416
100,23,13,Improv_Metronome,100,9999,9999,9999,2441006184
100,23,13,Improv_Metronome,101,9999,9999,9999,2441506904
100,23,13,Improv_Metronome,102,9999,9999,9999,2442006600
100,23,13,Improv_Metronome,103,9999,9999,9999,2442506352
100,23,13,Improv_Metronome,104,9999,9999,9999,2443007088
100,23,13,Improv_Metronome,105,9999,9999,9999,2443506760
100,23,13,Improv_Metronome,106,9999,9999,9999,2444006456
100,23,13,Improv_Metronome,107,9999,9999,9999,2444506208
100,23,13,Improv_Metronome,108,9999,9999,9999,2445006940
100,23,13,Improv_Metronome,109,9999,9999,9999,2445506616
100,23,13,Improv_Metronome,110,9999,9999,9999,2446006344
100,23,13,Improv_Metronome,111,9999,9999,9999,2446507080
100,23,13,Improv_Metronome,112,9999,9999,9999,2447006776
100,23,13,Improv_Metronome,113,9999,9999,9999,2447506520
100,23,13,Improv_Metronome,114,9999,9999,9999,2448006200
100,23,13,Improv_Metronome,115,9999,9999,9999,2448506936
100,23,13,Improv_Metronome,116,9999,9999,9999,2449006704
100,23,13,Improv_Metronome,117,9999,9999,9999,2449506380
100,23,13,Improv_Metronome,118,9999,9999,9999,2450006136
100,23,13,Improv_Metronome,119,9999,9999,9999,2450506868
100,23,13,Improv_Metronome,120,9999,9999,9999,2451006568
100,23,13,Improv_Metronome,121,9999,9999,9999,2451506240
100,23,13,Improv_Metronome,122,9999,9999,9999,2452006964
100,23,13,Improv_Metronome,123,9999,9999,9999,2452506728
100,23,13,Improv_Metronome,124,9999,9999,9999,2453006424
100,23,13,Improv_Metronome,125,9999,9999,9999,2453506104
100,23,13,Improv_Metronome,126,9999,9999,9999,2454006836
100,23,13,Improv_Metronome,127,9999,9999,9999,2454506588
100,23,13,Improv_Metronome,128,9999,9999,9999,2455006284
100,23,13,Improv_Metronome,129,9999,9999,9999,2455507004
100,23,13,Improv_Metronome,130,9999,9999,9999,2456006768
100,23,13,Improv_Metronome,131,9999,9999,9999,2456506448
100,23,13,Improv_Metronome,132,9999,9999,9999,2457006172
100,23,13,Improv_Metronome,133,9999,9999,9999,2457506892
100,23,13,Improv_Metronome,134,9999,9999,9999,2458006640
100,23,13,Improv_Metronome,135,9999,9999,9999,2458506336
100,23,13,Improv_Metronome,136,9999,9999,9999,2459007068
100,23,13,Improv_Metronome,137,9999,9999,9999,2459506740
100,23,13,Improv_Metronome,138,9999,9999,9999,2460006496
100,23,13,Improv_Metronome,139,9999,9999,9999,2460506184
100,24,14,Improv_Melody,0,2,48,80,2517871924
100,24,14,Improv_Melody,1,2,72,80,2517874592
100,24,14,Improv_Melody,2,5,42,127,2517876308
100,24,14,Improv_Melody,3,5,42,110,2518368552
100,24,14,Improv_Melody,4,5,42,110,2518869468
100,24,14,Improv_Melody,5,5,42,110,2519369340
100,24,14,Improv_Melody,6,5,42,127,2519868840
100,24,14,Improv_Melody,7,5,42,110,2520368564
100,24,14,Improv_Melody,8,5,42,110,2520869480
100,24,14,Improv_Melody,9,5,42,110,2521368904
100,24,14,Improv_Melody,10,2,43,80,2521871052
100,24,14,Improv_Melody,11,2,67,80,2521873204
100,24,14,Improv_Melody,12,5,42,127,2521875672
100,24,14,Improv_Melody,13,5,42,110,2522369480
100,24,14,Improv_Melody,14,5,42,110,2522869276
100,24,14,Improv_Melody,15,5,42,110,2523368852
100,24,14,Improv_Melody,16,5,42,127,2523868500
100,24,14,Improv_Melody,17,5,42,110,2524369492
100,24,14,Improv_Melody,18,5,42,110,2524868912
100,24,14,Improv_Melody,19,5,42,110,2525368708
100,24,14,Improv_Melody,20,2,45,80,2525871804
100,24,14,Improv_Melody,21,2,69,80,2525874032
100,24,14,Improv_Melody,22,5,42,127,2525876524
100,24,14,Improv_Melody,23,5,42,110,2526369112
100,24,14,Improv_Melody,24,5,42,110,2526868984
100,24,14,Improv_Melody,25,5,42,110,2527368556
100,24,14,Improv_Melody,26,5,42,127,2527869252
100,24,14,Improv_Melody,27,5,42,110,2528368972
100,24,14,Improv_Melody,28,5,42,110,2528868844
100,24,14,Improv_Melody,29,5,42,110,2529368416
100,24,14,Improv_Melody,30,2,41,80,2529871536
100,24,14,Improv_Melody,31,2,65,80,2529873764
100,24,14,Improv_Melody,32,5,42,127,2529876304
100,24,14,Improv_Melody,33,5,42,110,2530368996
100,24,14,Improv_Melody,34,5,42,110,2530868568
100,24,14,Improv_Melody,35,5,42,110,2531369408
100,24,14,Improv_Melody,36,5,42,127,2531869056
100,24,14,Improv_Melody,37,5,42,110,2532368704
100,24,14,Improv_Melody,38,5,42,110,2532868424
100,24,14,Improv_Melody,39,5,42,110,2533369196
100,24,14,Improv_Melody,40,2,48,80,2533871420
100,24,14,Improv_Melody,41,2,72,80,2533873568
100,24,14,Improv_Melody,42,5,42,127,2533876184
100,24,14,Improv_Melody,43,5,42,110,2534368724
100,24,14,Improv_Melody,44,5,42,110,2534869268
100,24,14,Improv_Melody,45,5,42,110,2535369212
100,24,14,Improv_Melody,46,5,42,127,2535868640
100,24,14,Improv_Melody,47,5,42,110,2536368560
100,24,14,Improv_Melody,48,5,42,110,2536869256
100,24,14,Improv_Melody,49,5,42,110,2537369124
100,24,14,Improv_Melody,50,1,48,58,2537826164
100,24,14,Improv_Melody,51,2,43,80,2537871116
100,24,14,Improv_Melody,52,2,67,80,2537873268
100,24,14,Improv_Melody,53,5,42,127,2537875736
100,24,14,Improv_Melody,54,5,42,110,2538369384
100,24,14,Improv_Melody,55,1,48,56,2538400104
100,24,14,Improv_Melody,56,5,42,110,2538869232
100,24,14,Improv_Melody,57,5,42,110,2539368952
100,24,14,Improv_Melody,58,1,48,54,2539388452
100,24,14,Improv_Melody,59,5,42,127,2539868504
100,24,14,Improv_Melody,60,1,48,66,2540357036
100,24,14,Improv_Melody,61,5,42,110,2540369268
100,24,14,Improv_Melody,62,5,42,110,2540868972
100,24,14,Improv_Melody,63,5,42,110,2541368772
100,24,14,Improv_Melody,64,1,48,60,2541389688
100,24,14,Improv_Melody,65,2,45,80,2541872020
100,24,14,Improv_Melody,66,2,69,80,2541874024
100,24,14,Improv_Melody,67,5,42,127,2541876788
100,24,14,Improv_Melody,68,1,48,51,2542352000
100,24,14,Improv_Melody,69,5,42,110,2542369096
100,24,14,Improv_Melody,70,5,42,110,2542868952
100,24,14,Improv_Melody,71,1,48,46,2543352024
100,24,14,Improv_Melody,72,5,42,110,2543368444
100,24,14,Improv_Melody,73,5,42,127,2543869272
100,24,14,Improv_Melody,74,1,48,44,2544343292
100,24,14,Improv_Melody,75,5,42,110,2544368988
100,24,14,Improv_Melody,76,5,42,110,2544868840
100,24,14,Improv_Melody,77,1,48,66,2545368564
100,24,14,Improv_Melody,78,5,42,110,2545369900
100,24,14,Improv_Melody,79,1,38,54,2545845104
100,24,14,Improv_Melody,80,2,41,80,2545871888
100,24,14,Improv_Melody,81,2,65,80,2545873808
100,24,14,Improv_Melody,82,5,42,127,2545876648
100,24,14,Improv_Melody,83,1,48,66,2546360676
100,24,14,Improv_Melody,84,5,42,110,2546368868
100,24,14,Improv_Melody,85,1,38,60,2546856168
100,24,14,Improv_Melody,86,5,42,110,2546868496
100,24,14,Improv_Melody,87,5,42,110,2547369224
100,24,14,Improv_Melody,88,1,48,56,2547767996
100,24,14,Improv_Melody,89,5,42,127,2547868996
100,24,14,Improv_Melody,90,1,48,44,2548296344
100,24,14,Improv_Melody,91,5,42,110,2548368936
100,24,14,Improv_Melody,92,5,42,110,2548868420
100,24,14,Improv_Melody,93,1,38,62,2548919880
100,24,14,Improv_Melody,94,5,42,110,2549369092
100,24,14,Improv_Melody,95,1,48,52,2549869824
100,24,14,Improv_Melody,96,2,48,80,2549872896
100,24,14,Improv_Melody,97,2,72,80,2549874824
100,24,14,Improv_Melody,98,5,42,127,2549877432
100,24,14,Improv_Melody,99,1,48,57,2550361608
100,24,14,Improv_Melody,100,5,42,110,2550368756
100,24,14,Improv_Melody,101,1,38,71,2550866620
100,24,14,Improv_Melody,102,5,42,110,2550869356
100,24,14,Improv_Melody,103,5,42,110,2551369060
100,24,14,Improv_Melody,104,1,48,51,2551715228
100,24,14,Improv_Melody,105,5,42,127,2551868984
100,24,14,Improv_Melody,106,1,48,55,2552342856
100,24,14,Improv_Melody,107,5,42,110,2552368476
100,24,14,Improv_Melody,108,1,38,66,2552838960
100,24,14,Improv_Melody,109,5,42,110,2552869148
100,24,14,Improv_Melody,110,5,42,110,2553369004
100,24,14,Improv_Melody,111,2,43,80,2553871304
100,24,14,Improv_Melody,112,2,67,80,2553873532
100,24,14,Improv_Melody,113,1,48,63,2553874720
100,24,14,Improv_Melody,114,5,42,127,2553877256
100,24,14,Improv_Melody,115,1,48,58,2554348196
100,24,14,Improv_Melody,116,5,42,110,2554369328
100,24,14,Improv_Melody,117,5,42,110,2554869036
100,24,14,Improv_Melody,118,1,38,61,2554873276
100,24,14,Improv_Melody,119,5,42,110,2555368960
100,24,14,Improv_Melody,120,1,48,54,2555616240
100,24,14,Improv_Melody,121,5,42,127,2555868732
100,24,14,Improv_Melody,122,1,48,57,2556261196
100,24,14,Improv_Melody,123,5,42,110,2556369404
100,24,14,Improv_Melody,124,1,38,57,2556808396
100,24,14,Improv_Melody,125,5,42,110,2556869044
100,24,14,Improv_Melody,126,5,42,110,2557368824
100,24,14,Improv_Melody,127,2,45,80,2557872072
100,24,14,Improv_Melody,128,2,69,80,2557874784
100,24,14,Improv_Melody,129,5,42,127,2557876872
100,24,14,Improv_Melody,130,1,48,56,2557883584
100,24,14,Improv_Melody,131,5,42,110,2558369216
100,24,14,Improv_Melody,132,1,48,60,2558410884
100,24,14,Improv_Melody,133,1,38,62,2558868696
100,24,14,Improv_Melody,134,5,42,110,2558871228
100,24,14,Improv_Melody,135,5,42,110,2559368768
100,24,14,Improv_Melody,136,1,48,49,2559661004
100,24,14,Improv_Melody,137,5,42,127,2559869216
100,24,14,Improv_Melody,138,1,48,51,2560366500
100,24,14,Improv_Melody,139,5,42,110,2560369008
100,24,14,Improv_Melody,140,1,38,59,2560818260
100,24,14,Improv_Melody,141,5,42,110,2560868860
100,24,14,Improv_Melody,142,5,42,110,2561368716
100,24,14,Improv_Melody,143,2,41,80,2561871992
100,24,14,Improv_Melody,144,2,65,80,2561874068
100,24,14,Improv_Melody,145,1,48,60,2561876308
100,24,14,Improv_Melody,146,5,42,127,2561877792
100,24,14,Improv_Melody,147,5,42,110,2562368744
100,24,14,Improv_Melody,148,1,48,50,2562396696
100,24,14,Improv_Melody,149,5,42,110,2562868740
100,24,14,Improv_Melody,150,1,38,74,2562886148
100,24,14,Improv_Melody,151,5,42,110,2563369488
100,24,14,Improv_Melody,152,1,48,57,2563686416
100,24,14,Improv_Melody,153,5,42,127,2563869116
100,24,14,Improv_Melody,154,1,48,56,2564361084
100,24,14,Improv_Melody,155,5,42,110,2564368832
100,24,14,Improv_Melody,156,1,38,77,2564831396
100,24,14,Improv_Melody,157,5,42,110,2564868756
100,24,14,Improv_Melody,158,5,42,110,2565369288
100,24,14,Improv_Melody,159,1,48,57,2565845924
100,24,14,Improv_Melody,160,2,48,80,2565871580
100,24,14,Improv_Melody,161,2,72,80,2565873580
100,24,14,Improv_Melody,162,5,42,127,2565876124
100,24,14,Improv_Melody,163,1,48,54,2566344144
100,24,14,Improv_Melody,164,5,42,110,2566368792
100,24,14,Improv_Melody,165,1,38,69,2566865016
100,24,14,Improv_Melody,166,5,42,110,2566869464
100,24,14,Improv_Melody,167,5,42,110,2567368948
100,24,14,Improv_Melody,168,1,48,54,2567600500
100,24,14,Improv_Melody,169,5,42,127,2567868648
100,24,14,Improv_Melody,170,1,48,51,2568268364
100,24,14,Improv_Melody,171,5,42,110,2568368472
100,24,14,Improv_Melody,172,1,38,65,2568794692
100,24,14,Improv_Melody,173,5,42,110,2568869232
100,24,14,Improv_Melody,174,5,42,110,2569368864
100,24,14,Improv_Melody,175,2,43,80,2569871236
100,24,14,Improv_Melody,176,1,48,57,2569872952
100,24,14,Improv_Melody,177,2,67,80,2569874820
100,24,14,Improv_Melody,178,5,42,127,2569877056
100,24,14,Improv_Melody,179,5,42,110,2570369432
100,24,14,Improv_Melody,180,1,48,53,2570370472
100,24,14,Improv_Melody,181,1,38,58,2570847620
100,24,14,Improv_Melody,182,5,42,110,2570869128
100,24,14,Improv_Melody,183,5,42,110,2571368760
100,24,14,Improv_Melody,184,1,48,57,2571644168
100,24,14,Improv_Melody,185,5,42,127,2571868384
100,24,14,Improv_Melody,186,1,48,54,2572308968
100,24,14,Improv_Melody,187,5,42,110,2572369296
100,24,14,Improv_Melody,188,1,38,79,2572805528
100,24,14,Improv_Melody,189,5,42,110,2572869144
100,24,14,Improv_Melody,190,5,42,110,2573368628
100,24,14,Improv_Melody,191,2,45,80,2573871820
100,24,14,Improv_Melody,192,2,69,80,2573874124
100,24,14,Improv_Melody,193,5,42,127,2573876664
100,24,14,Improv_Melody,194,1,48,68,2573881728
100,24,14,Improv_Melody,195,1,48,60,2574368052
100,24,14,Improv_Melody,196,5,42,110,2574369548
100,24,14,Improv_Melody,197,5,42,110,2574868808
100,24,14,Improv_Melody,198,1,38,75,2574889728
100,24,14,Improv_Melody,199,5,42,110,2575368584
100,24,14,Improv_Melody,200,1,48,58,2575651468
100,24,14,Improv_Melody,201,5,42,127,2575869404
100,24,14,Improv_Melody,202,1,48,59,2576359208
100,24,14,Improv_Melody,203,5,42,110,2576369120
100,24,14,Improv_Melody,204,1,38,62,2576824276
100,24,14,Improv_Melody,205,5,42,110,2576868748
100,24,14,Improv_Melody,206,5,42,110,2577368380
100,24,14,Improv_Melody,207,1,48,57,2577871956
100,24,14,Improv_Melody,208,2,41,80,2577873368
100,24,14,Improv_Melody,209,2,65,80,2577875220
100,24,14,Improv_Melody,210,5,42,127,2577877680
100,24,14,Improv_Melody,211,5,42,110,2578368860
100,24,14,Improv_Melody,212,1,48,65,2578376392
100,24,14,Improv_Melody,213,1,38,69,2578852404
100,24,14,Improv_Melody,214,5,42,110,2578868628
100,24,14,Improv_Melody,215,5,42,110,2579369504
100,24,14,Improv_Melody,216,1,48,50,2579648680
100,24,14,Improv_Melody,217,5,42,127,2579869128
100,24,14,Improv_Melody,218,5,42,110,2580368704
100,24,14,Improv_Melody,219,1,48,56,2580384088
100,24,14,Improv_Melody,220,1,38,67,2580804176
100,24,14,Improv_Melody,221,5,42,110,2580868396
100,24,14,Improv_Melody,222,5,42,110,2581369372
100,24,14,Improv_Melody,223,1,48,48,2581850496
100,24,14,Improv_Melody,224,2,48,80,2581871360
100,24,14,Improv_Melody,225,2,72,80,2581873364
100,24,14,Improv_Melody,226,5,42,127,2581876132
100,24,14,Improv_Melody,227,1,48,56,2582369028
100,24,14,Improv_Melody,228,5,42,110,2582370216
100,24,14,Improv_Melody,229,5,42,110,2582869328
100,24,14,Improv_Melody,230,1,38,82,2582897504
100,24,14,Improv_Melody,231,5,42,110,2583369400
100,24,14,Improv_Melody,232,1,48,16,2583662088
100,24,14,Improv_Melody,233,5,42,127,2583868804
100,24,14,Improv_Melody,234,1,48,51,2584300112
100,24,14,Improv_Melody,235,5,42,110,2584368516
100,24,14,Improv_Melody,236,1,38,73,2584830108
100,24,14,Improv_Melody,237,5,42,110,2584869412
100,24,14,Improv_Melody,238,5,42,110,2585369196
100,24,14,Improv_Melody,239,1,48,62,2585840596
100,24,14,Improv_Melody,240,2,43,80,2585871420
100,24,14,Improv_Melody,241,2,67,80,2585873340
100,24,14,Improv_Melody,242,5,42,127,2585875880
100,24,14,Improv_Melody,243,1,48,58,2586346220
100,24,14,Improv_Melody,244,5,42,110,2586369448
100,24,14,Improv_Melody,245,5,42,110,2586869304
100,24,14,Improv_Melody,246,1,38,77,2586877140
100,24,14,Improv_Melody,247,5,42,110,2587368856
100,24,14,Improv_Melody,248,1,48,54,2587678296
100,24,14,Improv_Melody,249,5,42,127,2587868556
100,24,14,Improv_Melody,250,1,48,64,2588361128
100,24,14,Improv_Melody,251,5,42,110,2588369244
100,24,14,Improv_Melody,252,5,42,110,2588869172
100,24,14,Improv_Melody,253,1,38,76,2588872068
100,24,14,Improv_Melody,254,5,42,110,2589368724
100,24,14,Improv_Melody,255,2,45,80,2589872120
100,24,14,Improv_Melody,256,2,69,80,2589874464
100,24,14,Improv_Melody,257,1,48,62,2589875428
100,24,14,Improv_Melody,258,5,42,127,2589878112
100,24,14,Improv_Melody,259,5,42,110,2590369344
100,24,14,Improv_Melody,260,1,48,72,2590402256
100,24,14,Improv_Melody,261,5,42,110,2590868968
100,24,14,Improv_Melody,262,1,38,54,2590872688
100,24,14,Improv_Melody,263,5,42,110,2591368596
100,24,14,Improv_Melody,264,1,48,52,2591645124
100,24,14,Improv_Melody,265,5,42,127,2591869268
100,24,14,Improv_Melody,266,1,48,57,2592345312
100,24,14,Improv_Melody,267,5,42,110,2592369056
100,24,14,Improv_Melody,268,5,42,110,2592868840
100,24,14,Improv_Melody,269,1,38,61,2592876896
100,24,14,Improv_Melody,270,5,42,110,2593368540
100,24,14,Improv_Melody,271,2,41,80,2593871656
100,24,14,Improv_Melody,272,2,65,80,2593873884
100,24,14,Improv_Melody,273,1,48,54,2593876280
100,24,14,Improv_Melody,274,5,42,127,2593877688
100,24,14,Improv_Melody,275,5,42,110,2594369020
100,24,14,Improv_Melody,276,1,48,62,2594413952
100,24,14,Improv_Melody,277,1,38,65,2594840324
100,24,14,Improv_Melody,278,5,42,110,2594868564
100,24,14,Improv_Melody,279,5,42,110,2595369316
100,24,14,Improv_Melody,280,1,48,54,2595670900
100,24,14,Improv_Melody,281,5,42,127,2595869092
100,24,14,Improv_Melody,282,5,42,110,2596368740
100,24,14,Improv_Melody,283,1,48,50,2596373348
100,24,14,Improv_Melody,284,1,38,56,2596855672
100,24,14,Improv_Melody,285,5,42,110,2596868432
100,24,14,Improv_Melody,286,5,42,110,2597369260
100,24,14,Improv_Melody,287,1,48,56,2597864072
100,24,14,Improv_Melody,288,2,48,80,2597871476
100,24,14,Improv_Melody,289,2,72,80,2597873708
100,24,14,Improv_Melody,290,5,42,127,2597876244
100,24,14,Improv_Melody,291,5,42,110,2598368544
100,24,14,Improv_Melody,292,1,48,57,2598382356
100,24,14,Improv_Melody,293,1,38,57,2598838952
100,24,14,Improv_Melody,0,9999,9999,9999,2517866572
100,24,14,Improv_Melody,1,9999,9999,9999,2518366260
100,24,14,Improv_Melody,2,9999,9999,9999,2518867028
100,24,14,Improv_Melody,3,9999,9999,9999,2519366752
100,24,14,Improv_Melody,4,9999,9999,9999,2519866472
100,24,14,Improv_Melody,5,9999,9999,9999,2520366196
100,24,14,Improv_Melody,6,9999,9999,9999,2520866888
100,24,14,Improv_Melody,7,9999,9999,9999,2521366612
100,24,14,Improv_Melody,8,9999,9999,9999,2521866332
100,24,14,Improv_Melody,9,9999,9999,9999,2522367040
100,24,14,Improv_Melody,10,9999,9999,9999,2522866764
100,24,14,Improv_Melody,11,9999,9999,9999,2523366484
100,24,14,Improv_Melody,12,9999,9999,9999,2523866208
100,24,14,Improv_Melody,13,9999,9999,9999,2524366900
100,24,14,Improv_Melody,14,9999,9999,9999,2524866620
100,24,14,Improv_Melody,15,9999,9999,9999,2525366344
100,24,14,Improv_Melody,16,9999,9999,9999,2525867088
100,24,14,Improv_Melody,17,9999,9999,9999,2526366820
100,24,14,Improv_Melody,18,9999,9999,9999,2526866544
100,24,14,Improv_Melody,19,9999,9999,9999,2527366264
100,24,14,Improv_Melody,20,9999,9999,9999,2527866960
100,24,14,Improv_Melody,21,9999,9999,9999,2528366680
100,24,14,Improv_Melody,22,9999,9999,9999,2528866404
100,24,14,Improv_Melody,23,9999,9999,9999,2529366124
100,24,14,Improv_Melody,24,9999,9999,9999,2529866820
100,24,14,Improv_Melody,25,9999,9999,9999,2530366552
100,24,14,Improv_Melody,26,9999,9999,9999,2530866276
100,24,14,Improv_Melody,27,9999,9999,9999,2531366968
100,24,14,Improv_Melody,28,9999,9999,9999,2531866692
100,24,14,Improv_Melody,29,9999,9999,9999,2532366412
100,24,14,Improv_Melody,30,9999,9999,9999,2532866132
100,24,14,Improv_Melody,31,9999,9999,9999,2533366904
100,24,14,Improv_Melody,32,9999,9999,9999,2533866548
100,24,14,Improv_Melody,33,9999,9999,9999,2534366284
100,24,14,Improv_Melody,34,9999,9999,9999,2534867052
100,24,14,Improv_Melody,35,9999,9999,9999,2535366772
100,24,14,Improv_Melody,36,9999,9999,9999,2535866424
100,24,14,Improv_Melody,37,9999,9999,9999,2536366196
100,24,14,Improv_Melody,38,9999,9999,9999,2536866888
100,24,14,Improv_Melody,39,9999,9999,9999,2537366612
100,24,14,Improv_Melody,40,9999,9999,9999,2537866324
100,24,14,Improv_Melody,41,9999,9999,9999,2538367092
100,24,14,Improv_Melody,42,9999,9999,9999,2538866792
100,24,14,Improv_Melody,43,9999,9999,9999,2539366512
100,24,14,Improv_Melody,44,9999,9999,9999,2539866212
100,24,14,Improv_Melody,45,9999,9999,9999,2540366900
100,24,14,Improv_Melody,46,9999,9999,9999,2540866608
100,24,14,Improv_Melody,47,9999,9999,9999,2541366328
100,24,14,Improv_Melody,48,9999,9999,9999,2541867076
100,24,14,Improv_Melody,49,9999,9999,9999,2542366804
100,24,14,Improv_Melody,50,9999,9999,9999,2542866512
100,24,14,Improv_Melody,51,9999,9999,9999,2543366228
100,24,14,Improv_Melody,52,9999,9999,9999,2543866980
100,24,14,Improv_Melody,53,9999,9999,9999,2544366696
100,24,14,Improv_Melody,54,9999,9999,9999,2544866400
100,24,14,Improv_Melody,55,9999,9999,9999,2545366124
100,24,14,Improv_Melody,56,9999,9999,9999,2545866864
100,24,14,Improv_Melody,57,9999,9999,9999,2546366576
100,24,14,Improv_Melody,58,9999,9999,9999,2546866252
100,24,14,Improv_Melody,59,9999,9999,9999,2547367004
100,24,14,Improv_Melody,60,9999,9999,9999,2547866704
100,24,14,Improv_Melody,61,9999,9999,9999,2548366420
100,24,14,Improv_Melody,62,9999,9999,9999,2548866128
100,24,14,Improv_Melody,63,9999,9999,9999,2549366872
100,24,14,Improv_Melody,64,9999,9999,9999,2549866592
100,24,14,Improv_Melody,65,9999,9999,9999,2550366316
100,24,14,Improv_Melody,66,9999,9999,9999,2550867064
100,24,14,Improv_Melody,67,9999,9999,9999,2551366768
100,24,14,Improv_Melody,68,9999,9999,9999,2551866468
100,24,14,Improv_Melody,69,9999,9999,9999,2552366184
100,24,14,Improv_Melody,70,9999,9999,9999,2552866928
100,24,14,Improv_Melody,71,9999,9999,9999,2553366636
100,24,14,Improv_Melody,72,9999,9999,9999,2553866356
100,24,14,Improv_Melody,73,9999,9999,9999,2554367036
100,24,14,Improv_Melody,74,9999,9999,9999,2554866744
100,24,14,Improv_Melody,75,9999,9999,9999,2555366516
100,24,14,Improv_Melody,76,9999,9999,9999,2555866216
100,24,14,Improv_Melody,77,9999,9999,9999,2556366964
100,24,14,Improv_Melody,78,9999,9999,9999,2556866676
100,24,14,Improv_Melody,79,9999,9999,9999,2557366384
100,24,14,Improv_Melody,80,9999,9999,9999,2557867128
100,24,14,Improv_Melody,81,9999,9999,9999,2558366776
100,24,14,Improv_Melody,82,9999,9999,9999,2558866552
100,24,14,Improv_Melody,83,9999,9999,9999,2559366252
100,24,14,Improv_Melody,84,9999,9999,9999,2559867000
100,24,14,Improv_Melody,85,9999,9999,9999,2560366640
100,24,14,Improv_Melody,86,9999,9999,9999,2560866416
100,24,14,Improv_Melody,87,9999,9999,9999,2561366128
100,24,14,Improv_Melody,88,9999,9999,9999,2561866820
100,24,14,Improv_Melody,89,9999,9999,9999,2562366528
100,24,14,Improv_Melody,90,9999,9999,9999,2562866228
100,24,14,Improv_Melody,91,9999,9999,9999,2563366972
100,24,14,Improv_Melody,92,9999,9999,9999,2563866676
100,24,14,Improv_Melody,93,9999,9999,9999,2564366392
100,24,14,Improv_Melody,94,9999,9999,9999,2564866164
100,24,14,Improv_Melody,95,9999,9999,9999,2565366844
100,24,14,Improv_Melody,96,9999,9999,9999,2565866560
100,24,14,Improv_Melody,97,9999,9999,9999,2566366276
100,24,14,Improv_Melody,98,9999,9999,9999,2566867024
100,24,14,Improv_Melody,99,9999,9999,9999,2567366728
100,24,14,Improv_Melody,100,9999,9999,9999,2567866428
100,24,14,Improv_Melody,101,9999,9999,9999,2568366180
100,24,14,Improv_Melody,102,9999,9999,9999,2568866864
100,24,14,Improv_Melody,103,9999,9999,9999,2569366648
100,24,14,Improv_Melody,104,9999,9999,9999,2569866292
100,24,14,Improv_Melody,105,9999,9999,9999,2570367068
100,24,14,Improv_Melody,106,9999,9999,9999,2570866760
100,24,14,Improv_Melody,107,9999,9999,9999,2571366468
100,24,14,Improv_Melody,108,9999,9999,9999,2571866168
100,24,14,Improv_Melody,109,9999,9999,9999,2572366932
100,24,14,Improv_Melody,110,9999,9999,9999,2572866628
100,24,14,Improv_Melody,111,9999,9999,9999,2573366336
100,24,14,Improv_Melody,112,9999,9999,9999,2573867104
100,24,14,Improv_Melody,113,9999,9999,9999,2574366816
100,24,14,Improv_Melody,114,9999,9999,9999,2574866516
100,24,14,Improv_Melody,115,9999,9999,9999,2575366216
100,24,14,Improv_Melody,116,9999,9999,9999,2575866964
100,24,14,Improv_Melody,117,9999,9999,9999,2576366680
100,24,14,Improv_Melody,118,9999,9999,9999,2576866380
100,24,14,Improv_Melody,119,9999,9999,9999,2577366088
100,24,14,Improv_Melody,120,9999,9999,9999,2577866856
100,24,14,Improv_Melody,121,9999,9999,9999,2578366568
100,24,14,Improv_Melody,122,9999,9999,9999,2578866260
100,24,14,Improv_Melody,123,9999,9999,9999,2579366988
100,24,14,Improv_Melody,124,9999,9999,9999,2579866688
100,24,14,Improv_Melody,125,9999,9999,9999,2580366412
100,24,14,Improv_Melody,126,9999,9999,9999,2580866104
100,24,14,Improv_Melody,127,9999,9999,9999,2581366856
100,24,14,Improv_Melody,128,9999,9999,9999,2581866572
100,24,14,Improv_Melody,129,9999,9999,9999,2582366292
100,24,14,Improv_Melody,130,9999,9999,9999,2582867040
100,24,14,Improv_Melody,131,9999,9999,9999,2583366736
100,24,14,Improv_Melody,132,9999,9999,9999,2583866436
100,24,14,Improv_Melody,133,9999,9999,9999,2584366152
100,24,14,Improv_Melody,134,9999,9999,9999,2584866896
100,24,14,Improv_Melody,135,9999,9999,9999,2585366604
100,24,14,Improv_Melody,136,9999,9999,9999,2585866320
100,24,14,Improv_Melody,137,9999,9999,9999,2586367084
100,24,14,Improv_Melody,138,9999,9999,9999,2586866792
100,24,14,Improv_Melody,139,9999,9999,9999,2587366492
100,24,14,Improv_Melody,140,9999,9999,9999,2587866192
100,24,14,Improv_Melody,141,9999,9999,9999,2588366952
100,24,14,Improv_Melody,142,9999,9999,9999,2588866656
100,24,14,Improv_Melody,143,9999,9999,9999,2589366356
100,24,14,Improv_Melody,144,9999,9999,9999,2589867100
100,24,14,Improv_Melody,145,9999,9999,9999,2590366828
100,24,14,Improv_Melody,146,9999,9999,9999,2590866528
100,24,14,Improv_Melody,147,9999,9999,9999,2591366228
100,24,14,Improv_Melody,148,9999,9999,9999,2591866976
100,24,14,Improv_Melody,149,9999,9999,9999,2592366692
100,24,14,Improv_Melody,150,9999,9999,9999,2592866400
100,24,14,Improv_Melody,151,9999,9999,9999,2593366100
100,24,14,Improv_Melody,152,9999,9999,9999,2593866864
100,24,14,Improv_Melody,153,9999,9999,9999,2594366580
100,24,14,Improv_Melody,154,9999,9999,9999,2594866272
100,24,14,Improv_Melody,155,9999,9999,9999,2595367024
100,24,14,Improv_Melody,156,9999,9999,9999,2595866724
100,24,14,Improv_Melody,157,9999,9999,9999,2596366448
100,24,14,Improv_Melody,158,9999,9999,9999,2596866140
100,24,14,Improv_Melody,159,9999,9999,9999,2597366892
100,24,14,Improv_Melody,160,9999,9999,9999,2597866608
100,24,14,Improv_Melody,161,9999,9999,9999,2598366328
