pid,taskRunCount,taskID,taskName,i,channel,pitch,velocity,microseconds
1,1,Ticks_Pract_5,0,5,42,127,640102996
1041,1,Ticks_Pract_5,1,5,42,127,640602716
1041,1,Ticks_Pract_5,2,1,48,37,640702920
1041,1,Ticks_Pract_5,3,5,42,127,641103160
1041,1,Ticks_Pract_5,4,1,48,36,641150332
1041,1,Ticks_Pract_5,5,5,42,127,641602928
1041,1,Ticks_Pract_5,6,1,48,34,641627740
1041,1,Ticks_Pract_5,7,5,42,127,642102920
1041,1,Ticks_Pract_5,8,1,48,28,642123320
1041,1,Ticks_Pract_5,9,5,42,127,642603364
1041,1,Ticks_Pract_5,10,1,48,35,642623236
1041,1,Ticks_Pract_5,11,5,42,127,643103184
1041,1,Ticks_Pract_5,12,1,48,39,643108948
1041,1,Ticks_Pract_5,13,5,42,127,643602804
1041,1,Ticks_Pract_5,14,1,48,34,643659724
1041,1,Ticks_Pract_5,15,5,42,127,644102720
1041,1,Ticks_Pract_5,16,1,48,35,644135040
1041,1,Ticks_Pract_5,17,1,48,44,644586440
1041,1,Ticks_Pract_5,18,5,42,127,644603160
1041,1,Ticks_Pract_5,19,1,48,46,645087860
1041,1,Ticks_Pract_5,20,5,42,127,645103004
1041,1,Ticks_Pract_5,21,1,48,40,645583968
1041,1,Ticks_Pract_5,22,5,42,127,645602848
1041,1,Ticks_Pract_5,23,1,48,46,646068104
1041,1,Ticks_Pract_5,24,5,42,127,646103516
1041,1,Ticks_Pract_5,25,1,48,39,646572956
1041,1,Ticks_Pract_5,26,5,42,127,646603064
1041,1,Ticks_Pract_5,27,1,48,40,647072056
1041,1,Ticks_Pract_5,28,5,42,127,647102832
1041,1,Ticks_Pract_5,29,1,48,43,647577212
1041,1,Ticks_Pract_5,30,5,42,127,647602676
1041,1,Ticks_Pract_5,31,1,48,39,648091636
1041,1,Ticks_Pract_5,32,5,42,127,648103488
1041,1,Ticks_Pract_5,33,1,48,43,648593052
1041,1,Ticks_Pract_5,34,5,42,127,648603112
1041,1,Ticks_Pract_5,35,5,42,127,649102812
1041,1,Ticks_Pract_5,36,1,48,40,649107056
1041,1,Ticks_Pract_5,37,5,42,127,649602356
1041,1,Ticks_Pract_5,38,1,48,36,649605176
1041,1,Ticks_Pract_5,39,5,42,127,650103096
1041,1,Ticks_Pract_5,40,1,48,38,650117440
1041,1,Ticks_Pract_5,41,5,42,127,650602940
1041,1,Ticks_Pract_5,42,1,48,43,650614140
1041,1,Ticks_Pract_5,43,1,48,28,651098632
1041,1,Ticks_Pract_5,44,5,42,127,651102776
1041,1,Ticks_Pract_5,45,1,48,40,651555532
1041,1,Ticks_Pract_5,46,5,42,127,651603364
1041,1,Ticks_Pract_5,47,1,48,41,652073552
1041,1,Ticks_Pract_5,48,5,42,127,652102984
1041,1,Ticks_Pract_5,49,1,48,35,652596364
1041,1,Ticks_Pract_5,50,5,42,127,652602676
1041,1,Ticks_Pract_5,51,1,48,41,653092092
1041,1,Ticks_Pract_5,52,5,42,127,653102524
1041,1,Ticks_Pract_5,53,1,48,38,653578376
1041,1,Ticks_Pract_5,54,5,42,127,653603088
1041,1,Ticks_Pract_5,55,1,48,45,654056124
1041,1,Ticks_Pract_5,56,5,42,127,654102980
1041,1,Ticks_Pract_5,57,1,48,48,654560832
1041,1,Ticks_Pract_5,58,5,42,127,654602676
1041,1,Ticks_Pract_5,59,5,42,127,655103348
1041,1,Ticks_Pract_5,60,1,48,35,655128308
1041,1,Ticks_Pract_5,61,5,42,127,655603044
1041,1,Ticks_Pract_5,62,1,48,40,655608332
1041,1,Ticks_Pract_5,63,1,48,42,656092300
1041,1,Ticks_Pract_5,64,5,42,127,656102656
1041,1,Ticks_Pract_5,65,1,48,37,656592516
1041,1,Ticks_Pract_5,66,5,42,127,656602576
1041,1,Ticks_Pract_5,67,1,48,38,657078900
1041,1,Ticks_Pract_5,68,5,42,127,657103092
1041,1,Ticks_Pract_5,69,1,48,47,657548900
1041,1,Ticks_Pract_5,70,5,42,127,657602860
1041,1,Ticks_Pract_5,71,1,48,38,658064296
1041,1,Ticks_Pract_5,72,5,42,127,658102704
1041,1,Ticks_Pract_5,73,1,48,39,658594660
1041,1,Ticks_Pract_5,74,5,42,127,658603596
1041,1,Ticks_Pract_5,75,1,48,37,659073712
1041,1,Ticks_Pract_5,76,5,42,127,659103068
1041,1,Ticks_Pract_5,77,1,48,40,659546856
1041,1,Ticks_Pract_5,78,5,42,127,659602912
1041,1,Ticks_Pract_5,79,1,48,42,660066672
1041,1,Ticks_Pract_5,0,9999,9999,9999,640100412
1041,1,Ticks_Pract_5,1,9999,9999,9999,640600128
1041,1,Ticks_Pract_5,2,9999,9999,9999,641100872
1041,1,Ticks_Pract_5,3,9999,9999,9999,641600568
1041,1,Ticks_Pract_5,4,9999,9999,9999,642100336
1041,1,Ticks_Pract_5,5,9999,9999,9999,642601080
1041,1,Ticks_Pract_5,6,9999,9999,9999,643100748
1041,1,Ticks_Pract_5,7,9999,9999,9999,643600444
1041,1,Ticks_Pract_5,8,9999,9999,9999,644100212
1041,1,Ticks_Pract_5,9,9999,9999,9999,644600948
1041,1,Ticks_Pract_5,10,9999,9999,9999,645100644
1041,1,Ticks_Pract_5,11,9999,9999,9999,645600340
1041,1,Ticks_Pract_5,12,9999,9999,9999,646101080
1041,1,Ticks_Pract_5,13,9999,9999,9999,646600776
1041,1,Ticks_Pract_5,14,9999,9999,9999,647100472
1041,1,Ticks_Pract_5,15,9999,9999,9999,647600240
1041,1,Ticks_Pract_5,16,9999,9999,9999,648100980
1041,1,Ticks_Pract_5,17,9999,9999,9999,648600676
1041,1,Ticks_Pract_5,18,9999,9999,9999,649100376
1041,1,Ticks_Pract_5,19,9999,9999,9999,649600072
1041,1,Ticks_Pract_5,20,9999,9999,9999,650100812
1041,1,Ticks_Pract_5,21,9999,9999,9999,650600508
1041,1,Ticks_Pract_5,22,9999,9999,9999,651100268
1041,1,Ticks_Pract_5,23,9999,9999,9999,651601004
1041,1,Ticks_Pract_5,24,9999,9999,9999,652100696
1041,1,Ticks_Pract_5,25,9999,9999,9999,652600392
1041,1,Ticks_Pract_5,26,9999,9999,9999,653100088
1041,1,Ticks_Pract_5,27,9999,9999,9999,653600876
1041,1,Ticks_Pract_5,28,9999,9999,9999,654100548
1041,1,Ticks_Pract_5,29,9999,9999,9999,654600244
1041,1,Ticks_Pract_5,30,9999,9999,9999,655100988
1041,1,Ticks_Pract_5,31,9999,9999,9999,655600756
1041,1,Ticks_Pract_5,32,9999,9999,9999,656100444
1041,1,Ticks_Pract_5,33,9999,9999,9999,656600140
1041,1,Ticks_Pract_5,34,9999,9999,9999,657100880
1041,1,Ticks_Pract_5,35,9999,9999,9999,657600576
1041,1,Ticks_Pract_5,36,9999,9999,9999,658100344
1041,1,Ticks_Pract_5,37,9999,9999,9999,658601012
1041,1,Ticks_Pract_5,38,9999,9999,9999,659100780
1041,1,Ticks_Pract_5,39,9999,9999,9999,659600476
1042,0,Ticks_Pract_8,0,5,42,127,687795492
1042,0,Ticks_Pract_8,1,5,42,127,688596664
1042,0,Ticks_Pract_8,2,1,48,22,688789800
1042,0,Ticks_Pract_8,3,5,42,127,689396248
1042,0,Ticks_Pract_8,4,1,48,29,689405276
1042,0,Ticks_Pract_8,5,1,48,37,690164976
1042,0,Ticks_Pract_8,6,5,42,127,690195676
1042,0,Ticks_Pract_8,7,1,48,33,690939132
1042,0,Ticks_Pract_8,8,5,42,127,690995512
1042,0,Ticks_Pract_8,9,1,48,35,691749360
1042,0,Ticks_Pract_8,10,5,42,127,691796588
1042,0,Ticks_Pract_8,11,1,48,38,692577296
1042,0,Ticks_Pract_8,12,5,42,127,692596172
1042,0,Ticks_Pract_8,13,1,48,26,693355784
1042,0,Ticks_Pract_8,14,5,42,127,693395908
1042,0,Ticks_Pract_8,15,5,42,127,694195648
1042,0,Ticks_Pract_8,16,1,48,31,694219340
1042,0,Ticks_Pract_8,17,5,42,127,694996276
1042,0,Ticks_Pract_8,18,1,48,29,695037172
1042,0,Ticks_Pract_8,19,5,42,127,695796384
1042,0,Ticks_Pract_8,20,1,48,19,695819028
1042,0,Ticks_Pract_8,21,1,48,28,696552772
1042,0,Ticks_Pract_8,22,5,42,127,696595884
1042,0,Ticks_Pract_8,23,1,48,42,697375316
1042,0,Ticks_Pract_8,24,5,42,127,697395496
1042,0,Ticks_Pract_8,25,1,48,37,698185176
1042,0,Ticks_Pract_8,26,5,42,127,698196352
1042,0,Ticks_Pract_8,27,1,48,42,698962100
1042,0,Ticks_Pract_8,28,5,42,127,698996088
1042,0,Ticks_Pract_8,29,1,48,31,699767740
1042,0,Ticks_Pract_8,30,5,42,127,699795748
1042,0,Ticks_Pract_8,31,1,48,31,700557224
1042,0,Ticks_Pract_8,32,5,42,127,700595556
1042,0,Ticks_Pract_8,33,1,48,33,701330856
1042,0,Ticks_Pract_8,34,5,42,127,701396260
1042,0,Ticks_Pract_8,35,1,48,42,702170456
1042,0,Ticks_Pract_8,36,5,42,127,702196216
1042,0,Ticks_Pract_8,37,1,48,33,702983280
1042,0,Ticks_Pract_8,38,5,42,127,702995800
1042,0,Ticks_Pract_8,39,1,48,31,703753092
1042,0,Ticks_Pract_8,40,5,42,127,703795412
1042,0,Ticks_Pract_8,41,1,48,35,704560628
1042,0,Ticks_Pract_8,42,5,42,127,704596264
1042,0,Ticks_Pract_8,43,1,48,28,705337776
1042,0,Ticks_Pract_8,44,5,42,127,705396148
1042,0,Ticks_Pract_8,45,1,48,27,706142744
1042,0,Ticks_Pract_8,46,5,42,127,706195884
1042,0,Ticks_Pract_8,47,1,48,31,706927220
1042,0,Ticks_Pract_8,48,5,42,127,706995468
1042,0,Ticks_Pract_8,49,1,48,32,707721792
1042,0,Ticks_Pract_8,50,5,42,127,707796252
1042,0,Ticks_Pract_8,51,1,48,37,708539928
1042,0,Ticks_Pract_8,52,5,42,127,708596204
1042,0,Ticks_Pract_8,53,1,48,32,709393140
1042,0,Ticks_Pract_8,54,5,42,127,709395792
1042,0,Ticks_Pract_8,55,1,48,32,710163252
1042,0,Ticks_Pract_8,56,5,42,127,710195476
1042,0,Ticks_Pract_8,57,1,48,35,710977000
1042,0,Ticks_Pract_8,58,5,42,127,710996404
1042,0,Ticks_Pract_8,0,9999,9999,9999,687793200
1042,0,Ticks_Pract_8,1,9999,9999,9999,688594004
1042,0,Ticks_Pract_8,2,9999,9999,9999,689393736
1042,0,Ticks_Pract_8,3,9999,9999,9999,690193464
1042,0,Ticks_Pract_8,4,9999,9999,9999,690993224
1042,0,Ticks_Pract_8,5,9999,9999,9999,691794004
1042,0,Ticks_Pract_8,6,9999,9999,9999,692593736
1042,0,Ticks_Pract_8,7,9999,9999,9999,693393472
1042,0,Ticks_Pract_8,8,9999,9999,9999,694193212
1042,0,Ticks_Pract_8,9,9999,9999,9999,694993988
1042,0,Ticks_Pract_8,10,9999,9999,9999,695793724
1042,0,Ticks_Pract_8,11,9999,9999,9999,696593524
1042,0,Ticks_Pract_8,12,9999,9999,9999,697393208
1042,0,Ticks_Pract_8,13,9999,9999,9999,698193992
1042,0,Ticks_Pract_8,14,9999,9999,9999,698993724
1042,0,Ticks_Pract_8,15,9999,9999,9999,699793460
1042,0,Ticks_Pract_8,16,9999,9999,9999,700593268
1042,0,Ticks_Pract_8,17,9999,9999,9999,701393972
1042,0,Ticks_Pract_8,18,9999,9999,9999,702193780
1042,0,Ticks_Pract_8,19,9999,9999,9999,702993512
1042,0,Ticks_Pract_8,20,9999,9999,9999,703793196
1042,0,Ticks_Pract_8,21,9999,9999,9999,704593976
1042,0,Ticks_Pract_8,22,9999,9999,9999,705393712
1042,0,Ticks_Pract_8,23,9999,9999,9999,706193520
1042,0,Ticks_Pract_8,24,9999,9999,9999,706993256
1042,0,Ticks_Pract_8,25,9999,9999,9999,707794036
1042,0,Ticks_Pract_8,26,9999,9999,9999,708593768
1042,0,Ticks_Pract_8,27,9999,9999,9999,709393504
1042,0,Ticks_Pract_8,28,9999,9999,9999,710193264
1042,0,Ticks_Pract_8,29,9999,9999,9999,710993968
1043,4,T1_SMS_5,0,5,42,127,794190056
1043,4,T1_SMS_5,1,5,42,127,794689848
1043,4,T1_SMS_5,2,1,48,19,794734476
1043,4,T1_SMS_5,3,5,42,127,795189616
1043,4,T1_SMS_5,4,1,48,25,795224076
1043,4,T1_SMS_5,5,1,48,21,795675404
1043,4,T1_SMS_5,6,5,42,127,795690500
1043,4,T1_SMS_5,7,1,48,27,796168520
1043,4,T1_SMS_5,8,5,42,127,796190120
1043,4,T1_SMS_5,9,1,48,26,796666944
1043,4,T1_SMS_5,10,5,42,127,796689640
1043,4,T1_SMS_5,11,1,48,29,797162896
1043,4,T1_SMS_5,12,5,42,127,797189560
1043,4,T1_SMS_5,13,1,48,21,797686448
1043,4,T1_SMS_5,14,5,42,127,797690152
1043,4,T1_SMS_5,15,1,48,25,798184576
1043,4,T1_SMS_5,16,5,42,127,798189920
1043,4,T1_SMS_5,17,1,48,28,798681132
1043,4,T1_SMS_5,18,5,42,127,798689616
1043,4,T1_SMS_5,19,1,48,35,799189612
1043,4,T1_SMS_5,20,5,42,127,799191180
1043,4,T1_SMS_5,21,1,48,32,799668476
1043,4,T1_SMS_5,22,5,42,127,799689976
1043,4,T1_SMS_5,23,1,48,27,800175128
1043,4,T1_SMS_5,24,5,42,127,800189748
1043,4,T1_SMS_5,25,1,48,40,800665320
1043,4,T1_SMS_5,26,5,42,127,800689592
1043,4,T1_SMS_5,27,1,48,40,801166588
1043,4,T1_SMS_5,28,5,42,127,801190556
1043,4,T1_SMS_5,29,1,48,36,801667408
1043,4,T1_SMS_5,30,5,42,127,801689952
1043,4,T1_SMS_5,31,1,48,29,802185276
1043,4,T1_SMS_5,32,5,42,127,802189796
1043,4,T1_SMS_5,33,1,48,34,802665968
1043,4,T1_SMS_5,34,5,42,127,802690540
1043,4,T1_SMS_5,35,1,48,37,803161480
1043,4,T1_SMS_5,36,5,42,127,803190012
1043,4,T1_SMS_5,37,5,42,127,803689788
1043,4,T1_SMS_5,38,1,48,42,803698964
1043,4,T1_SMS_5,39,5,42,127,804189704
1043,4,T1_SMS_5,40,1,48,30,804243308
1043,4,T1_SMS_5,41,5,42,127,804690148
1043,4,T1_SMS_5,42,1,48,30,804733580
1043,4,T1_SMS_5,43,1,48,43,805178436
1043,4,T1_SMS_5,44,5,42,127,805189988
1043,4,T1_SMS_5,45,5,42,127,805689616
1043,4,T1_SMS_5,46,1,48,27,805692656
1043,4,T1_SMS_5,47,1,48,40,806174008
1043,4,T1_SMS_5,48,5,42,127,806189600
1043,4,T1_SMS_5,49,5,42,127,806690052
1043,4,T1_SMS_5,50,1,48,30,806701544
1043,4,T1_SMS_5,51,5,42,127,807189868
1043,4,T1_SMS_5,52,1,48,40,807219192
1043,4,T1_SMS_5,53,1,48,35,807684436
1043,4,T1_SMS_5,54,5,42,127,807689704
1043,4,T1_SMS_5,55,1,48,36,808177100
1043,4,T1_SMS_5,56,5,42,127,808190448
1043,4,T1_SMS_5,57,5,42,127,808690076
1043,4,T1_SMS_5,58,1,48,38,808721468
1043,4,T1_SMS_5,59,1,48,38,809148520
1043,4,T1_SMS_5,60,5,42,127,809189764
1043,4,T1_SMS_5,61,1,48,35,809676332
1043,4,T1_SMS_5,62,5,42,127,809689532
1043,4,T1_SMS_5,63,1,48,38,810184476
1043,4,T1_SMS_5,64,5,42,127,810190348
1043,4,T1_SMS_5,65,5,42,127,810689828
1043,4,T1_SMS_5,66,1,48,38,810708948
1043,4,T1_SMS_5,67,5,42,127,811189744
1043,4,T1_SMS_5,68,1,48,35,811202588
1043,4,T1_SMS_5,69,5,42,127,811690336
1043,4,T1_SMS_5,70,1,48,34,811708792
1043,4,T1_SMS_5,71,5,42,127,812190256
1043,4,T1_SMS_5,72,1,48,39,812207144
1043,4,T1_SMS_5,73,1,48,34,812683028
1043,4,T1_SMS_5,74,5,42,127,812689720
1043,4,T1_SMS_5,75,1,48,38,813178984
1043,4,T1_SMS_5,76,5,42,127,813189640
1043,4,T1_SMS_5,77,1,48,40,813689336
1043,4,T1_SMS_5,78,5,42,127,813690908
1043,4,T1_SMS_5,79,1,48,39,814177628
1043,4,T1_SMS_5,80,5,42,127,814190000
1043,4,T1_SMS_5,81,1,48,38,814675976
1043,4,T1_SMS_5,82,5,42,127,814689620
1043,4,T1_SMS_5,83,1,48,43,815185912
1043,4,T1_SMS_5,84,5,42,127,815190364
1043,4,T1_SMS_5,85,5,42,127,815690064
1043,4,T1_SMS_5,86,1,48,35,815693856
1043,4,T1_SMS_5,87,1,48,41,816189460
1043,4,T1_SMS_5,88,5,42,127,816190872
1043,4,T1_SMS_5,89,5,42,127,816689528
1043,4,T1_SMS_5,90,1,48,40,816723832
1043,4,T1_SMS_5,91,5,42,127,817190344
1043,4,T1_SMS_5,92,1,48,38,817203484
1043,4,T1_SMS_5,93,5,42,127,817690012
1043,4,T1_SMS_5,94,1,48,35,817718640
1043,4,T1_SMS_5,95,5,42,127,818189608
1043,4,T1_SMS_5,96,1,48,40,818199384
1043,4,T1_SMS_5,97,5,42,127,818690424
1043,4,T1_SMS_5,98,1,48,30,818694592
1043,4,T1_SMS_5,99,5,42,127,819190344
1043,4,T1_SMS_5,100,1,48,37,819196824
1043,4,T1_SMS_5,101,1,48,31,819686252
1043,4,T1_SMS_5,102,5,42,127,819689880
1043,4,T1_SMS_5,103,1,48,43,820165980
1043,4,T1_SMS_5,104,5,42,127,820189576
1043,4,T1_SMS_5,105,1,48,29,820686692
1043,4,T1_SMS_5,106,5,42,127,820690468
1043,4,T1_SMS_5,107,1,48,40,821184596
1043,4,T1_SMS_5,108,5,42,127,821189868
1043,4,T1_SMS_5,109,5,42,127,821689644
1043,4,T1_SMS_5,110,1,48,42,821693356
1043,4,T1_SMS_5,111,1,48,43,822169396
1043,4,T1_SMS_5,112,5,42,127,822189480
1043,4,T1_SMS_5,113,1,48,42,822655704
1043,4,T1_SMS_5,114,5,42,127,822690372
1043,4,T1_SMS_5,115,1,48,43,823162960
1043,4,T1_SMS_5,116,5,42,127,823189916
1043,4,T1_SMS_5,117,1,48,38,823653676
1043,4,T1_SMS_5,118,5,42,127,823689612
1043,4,T1_SMS_5,119,1,48,44,824171392
1043,4,T1_SMS_5,120,5,42,127,824190428
1043,4,T1_SMS_5,121,1,48,37,824668024
1043,4,T1_SMS_5,122,5,42,127,824690048
1043,4,T1_SMS_5,123,1,48,38,825177444
1043,4,T1_SMS_5,124,5,42,127,825189744
1043,4,T1_SMS_5,125,1,48,48,825659708
1043,4,T1_SMS_5,126,5,42,127,825689588
1043,4,T1_SMS_5,127,1,48,46,826142124
1043,4,T1_SMS_5,128,5,42,127,826190252
1043,4,T1_SMS_5,129,1,48,43,826668820
1043,4,T1_SMS_5,130,5,42,127,826689872
1043,4,T1_SMS_5,131,1,48,36,827180784
1043,4,T1_SMS_5,132,5,42,127,827189644
1043,4,T1_SMS_5,133,1,48,36,827668408
1043,4,T1_SMS_5,134,5,42,127,827690460
1043,4,T1_SMS_5,135,1,48,26,828161524
1043,4,T1_SMS_5,136,5,42,127,828190004
1043,4,T1_SMS_5,137,1,48,33,828674308
1043,4,T1_SMS_5,138,5,42,127,828689752
1043,4,T1_SMS_5,139,1,48,33,829188476
1043,4,T1_SMS_5,140,5,42,127,829190040
1043,4,T1_SMS_5,141,5,42,127,829690416
1043,4,T1_SMS_5,142,1,48,30,829708872
1043,4,T1_SMS_5,143,1,48,37,830170176
1043,4,T1_SMS_5,144,5,42,127,830189956
1043,4,T1_SMS_5,145,1,48,35,830680564
1043,4,T1_SMS_5,146,5,42,127,830689576
1043,4,T1_SMS_5,147,5,42,127,831190472
1043,4,T1_SMS_5,148,1,48,37,831220220
1043,4,T1_SMS_5,149,5,42,127,831690244
1043,4,T1_SMS_5,150,1,48,42,831711392
1043,4,T1_SMS_5,151,5,42,127,832189716
1043,4,T1_SMS_5,152,1,48,32,832197024
1043,4,T1_SMS_5,153,5,42,127,832689484
1043,4,T1_SMS_5,154,1,48,39,832716312
1043,4,T1_SMS_5,155,5,42,127,833190524
1043,4,T1_SMS_5,156,1,48,34,833218400
1043,4,T1_SMS_5,157,5,42,127,833689920
1043,4,T1_SMS_5,158,1,48,35,833713236
1043,4,T1_SMS_5,159,1,48,32,834185684
1043,4,T1_SMS_5,160,5,42,127,834189608
1043,4,T1_SMS_5,161,1,48,37,834663384
1043,4,T1_SMS_5,162,5,42,127,834690500
1043,4,T1_SMS_5,163,1,48,45,835171612
1043,4,T1_SMS_5,164,5,42,127,835190268
1043,4,T1_SMS_5,165,1,48,39,835674668
1043,4,T1_SMS_5,166,5,42,127,835689964
1043,4,T1_SMS_5,167,5,42,127,836189516
1043,4,T1_SMS_5,168,1,48,39,836198392
1043,4,T1_SMS_5,169,1,48,45,836680640
1043,4,T1_SMS_5,170,5,42,127,836690400
1043,4,T1_SMS_5,171,1,48,44,837183852
1043,4,T1_SMS_5,172,5,42,127,837189944
1043,4,T1_SMS_5,173,5,42,127,837689648
1043,4,T1_SMS_5,174,1,48,40,837719400
1043,4,T1_SMS_5,175,5,42,127,838189492
1043,4,T1_SMS_5,176,1,48,35,838201136
1043,4,T1_SMS_5,177,1,48,39,838685856
1043,4,T1_SMS_5,178,5,42,127,838690452
1043,4,T1_SMS_5,179,5,42,127,839189904
1043,4,T1_SMS_5,180,1,48,42,839215488
1043,4,T1_SMS_5,181,1,48,41,839689524
1043,4,T1_SMS_5,182,5,42,127,839690936
1043,4,T1_SMS_5,183,5,42,127,840190416
1043,4,T1_SMS_5,184,1,48,31,840225420
1043,4,T1_SMS_5,185,5,42,127,840690184
1043,4,T1_SMS_5,186,1,48,36,840695248
1043,4,T1_SMS_5,187,5,42,127,841189732
1043,4,T1_SMS_5,188,1,48,41,841199732
1043,4,T1_SMS_5,189,1,48,38,841686320
1043,4,T1_SMS_5,190,5,42,127,841689492
1043,4,T1_SMS_5,191,5,42,127,842190316
1043,4,T1_SMS_5,192,1,48,41,842197700
1043,4,T1_SMS_5,193,5,42,127,842689860
1043,4,T1_SMS_5,194,1,48,37,842699264
1043,4,T1_SMS_5,195,5,42,127,843189556
1043,4,T1_SMS_5,196,1,48,41,843208680
1043,4,T1_SMS_5,197,5,42,127,843690296
1043,4,T1_SMS_5,198,1,48,39,843713836
1043,4,T1_SMS_5,199,5,42,127,844190064
1043,4,T1_SMS_5,200,1,48,34,844219812
1043,4,T1_SMS_5,201,1,48,33,844688248
1043,4,T1_SMS_5,202,5,42,127,844689680
1043,4,T1_SMS_5,203,1,48,33,845184404
1043,4,T1_SMS_5,204,5,42,127,845189600
1043,4,T1_SMS_5,205,1,48,26,845675796
1043,4,T1_SMS_5,206,5,42,127,845690264
1043,4,T1_SMS_5,207,1,48,33,846148716
1043,4,T1_SMS_5,208,5,42,127,846190036
1043,4,T1_SMS_5,209,1,48,47,846655436
1043,4,T1_SMS_5,210,5,42,127,846689584
1043,4,T1_SMS_5,211,1,48,39,847140772
1043,4,T1_SMS_5,212,5,42,127,847190324
1043,4,T1_SMS_5,213,1,48,28,847665072
1043,4,T1_SMS_5,214,5,42,127,847690168
1043,4,T1_SMS_5,215,1,48,28,848161180
1043,4,T1_SMS_5,216,5,42,127,848189788
1043,4,T1_SMS_5,217,1,48,42,848662048
1043,4,T1_SMS_5,218,5,42,127,848689632
1043,4,T1_SMS_5,219,1,48,26,849127936
1043,4,T1_SMS_5,220,5,42,127,849190148
1043,4,T1_SMS_5,221,1,48,29,849622392
1043,4,T1_SMS_5,222,5,42,127,849690116
1043,4,T1_SMS_5,223,1,48,31,850144376
1043,4,T1_SMS_5,224,5,42,127,850189812
1043,4,T1_SMS_5,225,1,48,37,850654468
1043,4,T1_SMS_5,226,5,42,127,850690552
1043,4,T1_SMS_5,227,1,48,42,851136284
1043,4,T1_SMS_5,228,5,42,127,851190248
1043,4,T1_SMS_5,229,1,48,31,851685796
1043,4,T1_SMS_5,230,5,42,127,851689868
1043,4,T1_SMS_5,231,5,42,127,852189496
1043,4,T1_SMS_5,232,1,48,27,852227248
1043,4,T1_SMS_5,233,5,42,127,852690312
1043,4,T1_SMS_5,234,1,48,32,852691352
1043,4,T1_SMS_5,235,1,48,40,853180768
1043,4,T1_SMS_5,236,5,42,127,853190076
1043,4,T1_SMS_5,237,1,48,40,853659516
1043,4,T1_SMS_5,238,5,42,127,853689772
1043,4,T1_SMS_5,239,1,48,40,854177840
1043,4,T1_SMS_5,240,5,42,127,854189464
1043,4,T1_SMS_5,241,5,42,127,854690212
1043,4,T1_SMS_5,242,1,48,35,854710984
1043,4,T1_SMS_5,243,5,42,127,855190056
1043,4,T1_SMS_5,244,1,48,43,855191024
1043,4,T1_SMS_5,245,5,42,127,855689604
1043,4,T1_SMS_5,246,1,48,38,855708732
1043,4,T1_SMS_5,247,1,48,43,856181252
1043,4,T1_SMS_5,248,5,42,127,856190188
1043,4,T1_SMS_5,249,5,42,127,856690116
1043,4,T1_SMS_5,250,1,48,41,856717920
1043,4,T1_SMS_5,251,5,42,127,857189736
1043,4,T1_SMS_5,252,1,48,35,857223224
1043,4,T1_SMS_5,253,5,42,127,857689436
1043,4,T1_SMS_5,254,1,48,30,857692104
1043,4,T1_SMS_5,255,1,48,36,858183476
1043,4,T1_SMS_5,256,5,42,127,858190172
1043,4,T1_SMS_5,257,5,42,127,858689872
1043,4,T1_SMS_5,258,1,48,33,858694936
1043,4,T1_SMS_5,259,1,48,43,859184064
1043,4,T1_SMS_5,0,9999,9999,9999,794187844
1043,4,T1_SMS_5,1,9999,9999,9999,794687560
1043,4,T1_SMS_5,2,9999,9999,9999,795187256
1043,4,T1_SMS_5,3,9999,9999,9999,795687988
1043,4,T1_SMS_5,4,9999,9999,9999,796187736
1043,4,T1_SMS_5,5,9999,9999,9999,796687428
1043,4,T1_SMS_5,6,9999,9999,9999,797187124
1043,4,T1_SMS_5,7,9999,9999,9999,797687864
1043,4,T1_SMS_5,8,9999,9999,9999,798187632
1043,4,T1_SMS_5,9,9999,9999,9999,798687328
1043,4,T1_SMS_5,10,9999,9999,9999,799188076
1043,4,T1_SMS_5,11,9999,9999,9999,799687764
1043,4,T1_SMS_5,12,9999,9999,9999,800187460
1043,4,T1_SMS_5,13,9999,9999,9999,800687156
1043,4,T1_SMS_5,14,9999,9999,9999,801187896
1043,4,T1_SMS_5,15,9999,9999,9999,801687668
1043,4,T1_SMS_5,16,9999,9999,9999,802187360
1043,4,T1_SMS_5,17,9999,9999,9999,802688104
1043,4,T1_SMS_5,18,9999,9999,9999,803187800
1043,4,T1_SMS_5,19,9999,9999,9999,803687500
1043,4,T1_SMS_5,20,9999,9999,9999,804187196
1043,4,T1_SMS_5,21,9999,9999,9999,804687936
1043,4,T1_SMS_5,22,9999,9999,9999,805187700
1043,4,T1_SMS_5,23,9999,9999,9999,805687400
1043,4,T1_SMS_5,24,9999,9999,9999,806187088
1043,4,T1_SMS_5,25,9999,9999,9999,806687836
1043,4,T1_SMS_5,26,9999,9999,9999,807187508
1043,4,T1_SMS_5,27,9999,9999,9999,807687272
1043,4,T1_SMS_5,28,9999,9999,9999,808188012
1043,4,T1_SMS_5,29,9999,9999,9999,808687712
1043,4,T1_SMS_5,30,9999,9999,9999,809187400
1043,4,T1_SMS_5,31,9999,9999,9999,809687096
1043,4,T1_SMS_5,32,9999,9999,9999,810187840
1043,4,T1_SMS_5,33,9999,9999,9999,810687540
1043,4,T1_SMS_5,34,9999,9999,9999,811187308
1043,4,T1_SMS_5,35,9999,9999,9999,811688048
1043,4,T1_SMS_5,36,9999,9999,9999,812187744
1043,4,T1_SMS_5,37,9999,9999,9999,812687436
1043,4,T1_SMS_5,38,9999,9999,9999,813187128
1043,4,T1_SMS_5,39,9999,9999,9999,813687876
1043,4,T1_SMS_5,40,9999,9999,9999,814187640
1043,4,T1_SMS_5,41,9999,9999,9999,814687336
1043,4,T1_SMS_5,42,9999,9999,9999,815188076
1043,4,T1_SMS_5,43,9999,9999,9999,815687776
1043,4,T1_SMS_5,44,9999,9999,9999,816187472
1043,4,T1_SMS_5,45,9999,9999,9999,816687168
1043,4,T1_SMS_5,46,9999,9999,9999,817187908
1043,4,T1_SMS_5,47,9999,9999,9999,817687652
1043,4,T1_SMS_5,48,9999,9999,9999,818187320
1043,4,T1_SMS_5,49,9999,9999,9999,818688064
1043,4,T1_SMS_5,50,9999,9999,9999,819187832
1043,4,T1_SMS_5,51,9999,9999,9999,819687520
1043,4,T1_SMS_5,52,9999,9999,9999,820187216
1043,4,T1_SMS_5,53,9999,9999,9999,820687960
1043,4,T1_SMS_5,54,9999,9999,9999,821187656
1043,4,T1_SMS_5,55,9999,9999,9999,821687356
1043,4,T1_SMS_5,56,9999,9999,9999,822187120
1043,4,T1_SMS_5,57,9999,9999,9999,822687860
1043,4,T1_SMS_5,58,9999,9999,9999,823187556
1043,4,T1_SMS_5,59,9999,9999,9999,823687252
1043,4,T1_SMS_5,60,9999,9999,9999,824187992
1043,4,T1_SMS_5,61,9999,9999,9999,824687688
1043,4,T1_SMS_5,62,9999,9999,9999,825187380
1043,4,T1_SMS_5,63,9999,9999,9999,825687152
1043,4,T1_SMS_5,64,9999,9999,9999,826187892
1043,4,T1_SMS_5,65,9999,9999,9999,826687588
1043,4,T1_SMS_5,66,9999,9999,9999,827187284
1043,4,T1_SMS_5,67,9999,9999,9999,827688024
1043,4,T1_SMS_5,68,9999,9999,9999,828187720
1043,4,T1_SMS_5,69,9999,9999,9999,828687464
1043,4,T1_SMS_5,70,9999,9999,9999,829187164
1043,4,T1_SMS_5,71,9999,9999,9999,829687908
1043,4,T1_SMS_5,72,9999,9999,9999,830187596
1043,4,T1_SMS_5,73,9999,9999,9999,830687288
1043,4,T1_SMS_5,74,9999,9999,9999,831188036
1043,4,T1_SMS_5,75,9999,9999,9999,831687732
1043,4,T1_SMS_5,76,9999,9999,9999,832187504
1043,4,T1_SMS_5,77,9999,9999,9999,832687196
1043,4,T1_SMS_5,78,9999,9999,9999,833187936
1043,4,T1_SMS_5,79,9999,9999,9999,833687632
1043,4,T1_SMS_5,80,9999,9999,9999,834187324
1043,4,T1_SMS_5,81,9999,9999,9999,834688064
1043,4,T1_SMS_5,82,9999,9999,9999,835187760
1043,4,T1_SMS_5,83,9999,9999,9999,835687528
1043,4,T1_SMS_5,84,9999,9999,9999,836187232
1043,4,T1_SMS_5,85,9999,9999,9999,836687964
1043,4,T1_SMS_5,86,9999,9999,9999,837187660
1043,4,T1_SMS_5,87,9999,9999,9999,837687364
1043,4,T1_SMS_5,88,9999,9999,9999,838187132
1043,4,T1_SMS_5,89,9999,9999,9999,838687792
1043,4,T1_SMS_5,90,9999,9999,9999,839187544
1043,4,T1_SMS_5,91,9999,9999,9999,839687240
1043,4,T1_SMS_5,92,9999,9999,9999,840187980
1043,4,T1_SMS_5,93,9999,9999,9999,840687676
1043,4,T1_SMS_5,94,9999,9999,9999,841187444
1043,4,T1_SMS_5,95,9999,9999,9999,841687132
1043,4,T1_SMS_5,96,9999,9999,9999,842187880
1043,4,T1_SMS_5,97,9999,9999,9999,842687576
1043,4,T1_SMS_5,98,9999,9999,9999,843187268
1043,4,T1_SMS_5,99,9999,9999,9999,843688008
1043,4,T1_SMS_5,100,9999,9999,9999,844187704
1043,4,T1_SMS_5,101,9999,9999,9999,844687476
1043,4,T1_SMS_5,102,9999,9999,9999,845187164
1043,4,T1_SMS_5,103,9999,9999,9999,845687904
1043,4,T1_SMS_5,104,9999,9999,9999,846187600
1043,4,T1_SMS_5,105,9999,9999,9999,846687296
1043,4,T1_SMS_5,106,9999,9999,9999,847188036
1043,4,T1_SMS_5,107,9999,9999,9999,847687732
1043,4,T1_SMS_5,108,9999,9999,9999,848187504
1043,4,T1_SMS_5,109,9999,9999,9999,848687196
1043,4,T1_SMS_5,110,9999,9999,9999,849187940
1043,4,T1_SMS_5,111,9999,9999,9999,849687608
1043,4,T1_SMS_5,112,9999,9999,9999,850187376
1043,4,T1_SMS_5,113,9999,9999,9999,850688120
1043,4,T1_SMS_5,114,9999,9999,9999,851187816
1043,4,T1_SMS_5,115,9999,9999,9999,851687508
1043,4,T1_SMS_5,116,9999,9999,9999,852187208
1043,4,T1_SMS_5,117,9999,9999,9999,852687952
1043,4,T1_SMS_5,118,9999,9999,9999,853187640
1043,4,T1_SMS_5,119,9999,9999,9999,853687408
1043,4,T1_SMS_5,120,9999,9999,9999,854187104
1043,4,T1_SMS_5,121,9999,9999,9999,854687852
1043,4,T1_SMS_5,122,9999,9999,9999,855187548
1043,4,T1_SMS_5,123,9999,9999,9999,855687240
1043,4,T1_SMS_5,124,9999,9999,9999,856187980
1043,4,T1_SMS_5,125,9999,9999,9999,856687680
1043,4,T1_SMS_5,126,9999,9999,9999,857187448
1043,4,T1_SMS_5,127,9999,9999,9999,857687148
1043,4,T1_SMS_5,128,9999,9999,9999,858187884
1043,4,T1_SMS_5,129,9999,9999,9999,858687584
1044,2,T1_SMS_8,0,5,42,127,931288504
1044,2,T1_SMS_8,1,1,48,30,931795136
1044,2,T1_SMS_8,2,5,42,127,932088160
1044,2,T1_SMS_8,3,1,48,35,932378104
1044,2,T1_SMS_8,4,5,42,127,932887844
1044,2,T1_SMS_8,5,1,48,31,933099576
1044,2,T1_SMS_8,6,5,42,127,933687652
1044,2,T1_SMS_8,7,1,48,25,933770656
1044,2,T1_SMS_8,8,1,48,31,934467752
1044,2,T1_SMS_8,9,5,42,127,934488504
1044,2,T1_SMS_8,10,1,48,35,935204796
1044,2,T1_SMS_8,11,5,42,127,935288236
1044,2,T1_SMS_8,12,1,48,38,936046048
1044,2,T1_SMS_8,13,5,42,127,936087896
1044,2,T1_SMS_8,14,1,48,32,936851092
1044,2,T1_SMS_8,15,5,42,127,936887628
1044,2,T1_SMS_8,16,1,48,38,937659052
1044,2,T1_SMS_8,17,5,42,127,937688632
1044,2,T1_SMS_8,18,5,42,127,938488076
1044,2,T1_SMS_8,19,1,48,37,938496800
1044,2,T1_SMS_8,20,1,48,38,939270488
1044,2,T1_SMS_8,21,5,42,127,939287900
1044,2,T1_SMS_8,22,1,48,38,940058428
1044,2,T1_SMS_8,23,5,42,127,940087632
1044,2,T1_SMS_8,24,1,48,32,940876780
1044,2,T1_SMS_8,25,5,42,127,940888636
1044,2,T1_SMS_8,26,1,48,36,941661932
1044,2,T1_SMS_8,27,5,42,127,941688296
1044,2,T1_SMS_8,28,1,48,36,942445808
1044,2,T1_SMS_8,29,5,42,127,942488028
1044,2,T1_SMS_8,30,1,48,35,943231556
1044,2,T1_SMS_8,31,5,42,127,943287764
1044,2,T1_SMS_8,32,1,48,36,944050736
1044,2,T1_SMS_8,33,5,42,127,944088692
1044,2,T1_SMS_8,34,1,48,30,944829976
1044,2,T1_SMS_8,35,5,42,127,944888276
1044,2,T1_SMS_8,36,1,48,35,945674588
1044,2,T1_SMS_8,37,5,42,127,945687960
1044,2,T1_SMS_8,38,1,48,34,946478760
1044,2,T1_SMS_8,39,5,42,127,946487696
1044,2,T1_SMS_8,40,5,42,127,947288556
1044,2,T1_SMS_8,41,1,48,29,947310972
1044,2,T1_SMS_8,42,1,48,35,948081968
1044,2,T1_SMS_8,43,5,42,127,948088432
1044,2,T1_SMS_8,44,1,48,30,948869732
1044,2,T1_SMS_8,45,5,42,127,948887940
1044,2,T1_SMS_8,46,1,48,31,949675596
1044,2,T1_SMS_8,47,5,42,127,949687600
1044,2,T1_SMS_8,48,1,48,26,950481612
1044,2,T1_SMS_8,49,5,42,127,950488528
1044,2,T1_SMS_8,50,1,48,40,951258388
1044,2,T1_SMS_8,51,5,42,127,951288264
1044,2,T1_SMS_8,52,5,42,127,952087804
1044,2,T1_SMS_8,53,1,48,35,952110888
1044,2,T1_SMS_8,54,1,48,35,952856832
1044,2,T1_SMS_8,55,5,42,127,952887604
1044,2,T1_SMS_8,56,5,42,127,953688540
1044,2,T1_SMS_8,57,1,48,31,953692632
1044,2,T1_SMS_8,58,1,48,29,954443352
1044,2,T1_SMS_8,59,5,42,127,954488268
1044,2,T1_SMS_8,60,1,48,26,955183472
1044,2,T1_SMS_8,61,5,42,127,955288060
1044,2,T1_SMS_8,62,1,48,36,955996968
1044,2,T1_SMS_8,63,5,42,127,956087660
1044,2,T1_SMS_8,64,1,48,34,956832456
1044,2,T1_SMS_8,65,5,42,127,956888440
1044,2,T1_SMS_8,66,1,48,36,957676392
1044,2,T1_SMS_8,67,5,42,127,957688024
1044,2,T1_SMS_8,68,5,42,127,958487936
1044,2,T1_SMS_8,69,1,48,39,958506536
1044,2,T1_SMS_8,70,5,42,127,959287600
1044,2,T1_SMS_8,71,1,48,39,959296100
1044,2,T1_SMS_8,72,5,42,127,960088376
1044,2,T1_SMS_8,73,1,48,38,960124480
1044,2,T1_SMS_8,74,5,42,127,960888184
1044,2,T1_SMS_8,75,1,48,41,960944932
1044,2,T1_SMS_8,76,5,42,127,961687996
1044,2,T1_SMS_8,77,1,48,37,961778704
1044,2,T1_SMS_8,78,5,42,127,962487652
1044,2,T1_SMS_8,79,1,48,33,962542304
1044,2,T1_SMS_8,80,5,42,127,963288508
1044,2,T1_SMS_8,81,1,48,29,963333216
1044,2,T1_SMS_8,82,5,42,127,964088240
1044,2,T1_SMS_8,83,1,48,34,964107212
1044,2,T1_SMS_8,84,1,48,32,964873348
1044,2,T1_SMS_8,85,5,42,127,964887916
1044,2,T1_SMS_8,86,1,48,34,965674224
1044,2,T1_SMS_8,87,5,42,127,965687652
1044,2,T1_SMS_8,88,5,42,127,966488512
1044,2,T1_SMS_8,89,1,48,28,966501876
1044,2,T1_SMS_8,90,1,48,32,967258364
1044,2,T1_SMS_8,91,5,42,127,967288316
1044,2,T1_SMS_8,92,1,48,35,968076044
1044,2,T1_SMS_8,93,5,42,127,968087900
1044,2,T1_SMS_8,94,1,48,29,968862016
1044,2,T1_SMS_8,95,5,42,127,968887632
1044,2,T1_SMS_8,96,1,48,38,969619492
1044,2,T1_SMS_8,97,5,42,127,969688564
1044,2,T1_SMS_8,98,1,48,42,970424008
1044,2,T1_SMS_8,99,5,42,127,970488372
1044,2,T1_SMS_8,100,1,48,40,971227192
1044,2,T1_SMS_8,101,5,42,127,971288132
1044,2,T1_SMS_8,102,1,48,39,972049208
1044,2,T1_SMS_8,103,5,42,127,972087716
1044,2,T1_SMS_8,104,1,48,42,972847552
1044,2,T1_SMS_8,105,5,42,127,972888572
1044,2,T1_SMS_8,106,1,48,32,973647580
1044,2,T1_SMS_8,107,5,42,127,973688456
1044,2,T1_SMS_8,108,1,48,26,974415744
1044,2,T1_SMS_8,109,5,42,127,974487964
1044,2,T1_SMS_8,110,1,48,35,975178908
1044,2,T1_SMS_8,111,5,42,127,975287608
1044,2,T1_SMS_8,112,1,48,29,976015064
1044,2,T1_SMS_8,113,5,42,127,976088552
1044,2,T1_SMS_8,114,1,48,32,976778896
1044,2,T1_SMS_8,115,5,42,127,976888344
1044,2,T1_SMS_8,116,1,48,32,977613484
1044,2,T1_SMS_8,117,5,42,127,977687896
1044,2,T1_SMS_8,118,1,48,39,978456548
1044,2,T1_SMS_8,119,5,42,127,978487704
1044,2,T1_SMS_8,120,1,48,48,979242968
1044,2,T1_SMS_8,121,5,42,127,979288484
1044,2,T1_SMS_8,122,1,48,34,980042108
1044,2,T1_SMS_8,123,5,42,127,980088292
1044,2,T1_SMS_8,124,1,48,33,980827332
1044,2,T1_SMS_8,125,5,42,127,980887876
1044,2,T1_SMS_8,126,1,48,43,981622496
1044,2,T1_SMS_8,127,5,42,127,981687536
1044,2,T1_SMS_8,128,1,48,36,982409068
1044,2,T1_SMS_8,129,5,42,127,982488540
1044,2,T1_SMS_8,130,1,48,38,983192420
1044,2,T1_SMS_8,131,5,42,127,983288260
1044,2,T1_SMS_8,132,1,48,34,984017516
1044,2,T1_SMS_8,133,5,42,127,984087960
1044,2,T1_SMS_8,134,1,48,40,984834676
1044,2,T1_SMS_8,135,5,42,127,984887620
1044,2,T1_SMS_8,136,1,48,38,985625608
1044,2,T1_SMS_8,137,5,42,127,985688400
1044,2,T1_SMS_8,138,1,48,41,986394596
1044,2,T1_SMS_8,139,5,42,127,986488280
1044,2,T1_SMS_8,140,1,48,38,987198824
1044,2,T1_SMS_8,141,5,42,127,987287864
1044,2,T1_SMS_8,142,1,48,36,988025552
1044,2,T1_SMS_8,143,5,42,127,988087672
1044,2,T1_SMS_8,144,1,48,38,988832544
1044,2,T1_SMS_8,145,5,42,127,988888452
1044,2,T1_SMS_8,146,1,48,31,989620684
1044,2,T1_SMS_8,147,5,42,127,989688188
1044,2,T1_SMS_8,148,1,48,29,990433360
1044,2,T1_SMS_8,149,5,42,127,990488016
1044,2,T1_SMS_8,150,1,48,44,991213416
1044,2,T1_SMS_8,151,5,42,127,991287604
1044,2,T1_SMS_8,152,1,48,38,992038308
1044,2,T1_SMS_8,153,5,42,127,992088456
1044,2,T1_SMS_8,154,1,48,43,992854496
1044,2,T1_SMS_8,155,5,42,127,992888264
1044,2,T1_SMS_8,156,1,48,39,993672104
1044,2,T1_SMS_8,157,5,42,127,993687776
1044,2,T1_SMS_8,158,1,48,44,994431156
1044,2,T1_SMS_8,159,5,42,127,994487512
1044,2,T1_SMS_8,160,1,48,37,995274044
1044,2,T1_SMS_8,161,5,42,127,995288368
1044,2,T1_SMS_8,162,1,48,42,996043184
1044,2,T1_SMS_8,163,5,42,127,996088248
1044,2,T1_SMS_8,164,1,48,40,996807092
1044,2,T1_SMS_8,165,5,42,127,996888080
1044,2,T1_SMS_8,166,1,48,45,997604360
1044,2,T1_SMS_8,167,5,42,127,997687668
1044,2,T1_SMS_8,168,1,48,43,998395484
1044,2,T1_SMS_8,169,5,42,127,998489252
1044,2,T1_SMS_8,170,1,48,43,999231072
1044,2,T1_SMS_8,171,5,42,127,999288328
1044,2,T1_SMS_8,172,1,48,32,1000031780
1044,2,T1_SMS_8,173,5,42,127,1000087988
1044,2,T1_SMS_8,174,1,48,37,1000818572
1044,2,T1_SMS_8,175,5,42,127,1000887644
1044,2,T1_SMS_8,176,1,48,36,1001631692
1044,2,T1_SMS_8,177,5,42,127,1001688424
1044,2,T1_SMS_8,178,1,48,40,1002380864
1044,2,T1_SMS_8,179,5,42,127,1002488292
1044,2,T1_SMS_8,180,1,48,43,1003164216
1044,2,T1_SMS_8,181,5,42,127,1003288200
1044,2,T1_SMS_8,182,1,48,40,1004033140
1044,2,T1_SMS_8,183,5,42,127,1004087796
1044,2,T1_SMS_8,184,1,48,37,1004827288
1044,2,T1_SMS_8,185,5,42,127,1004888356
1044,2,T1_SMS_8,186,1,48,43,1005555040
1044,2,T1_SMS_8,187,5,42,127,1005688300
1044,2,T1_SMS_8,188,1,48,35,1006354848
1044,2,T1_SMS_8,189,5,42,127,1006488104
1044,2,T1_SMS_8,190,1,48,39,1007183104
1044,2,T1_SMS_8,191,5,42,127,1007287764
1044,2,T1_SMS_8,192,1,48,48,1007892400
1044,2,T1_SMS_8,193,5,42,127,1008088396
1044,2,T1_SMS_8,194,1,48,38,1008801044
1044,2,T1_SMS_8,195,5,42,127,1008888068
1044,2,T1_SMS_8,196,1,48,35,1009642140
1044,2,T1_SMS_8,197,5,42,127,1009688200
1044,2,T1_SMS_8,198,1,48,47,1010450848
1044,2,T1_SMS_8,199,5,42,127,1010487560
1044,2,T1_SMS_8,200,5,42,127,1011288424
1044,2,T1_SMS_8,201,1,48,39,1011309792
1044,2,T1_SMS_8,202,1,48,47,1012066348
1044,2,T1_SMS_8,203,5,42,127,1012088076
1044,2,T1_SMS_8,204,1,48,44,1012855680
1044,2,T1_SMS_8,205,5,42,127,1012888104
1044,2,T1_SMS_8,206,1,48,43,1013669476
1044,2,T1_SMS_8,207,5,42,127,1013687616
1044,2,T1_SMS_8,208,1,48,44,1014481032
1044,2,T1_SMS_8,209,5,42,127,1014488396
1044,2,T1_SMS_8,210,5,42,127,1015288284
1044,2,T1_SMS_8,211,1,48,48,1015322168
1044,2,T1_SMS_8,212,1,48,48,1016074956
1044,2,T1_SMS_8,213,5,42,127,1016088032
1044,2,T1_SMS_8,214,1,48,41,1016872324
1044,2,T1_SMS_8,215,5,42,127,1016887544
1044,2,T1_SMS_8,216,1,48,37,1017639744
1044,2,T1_SMS_8,217,5,42,127,1017688400
1044,2,T1_SMS_8,218,5,42,127,1018488212
1044,2,T1_SMS_8,219,1,48,40,1018544884
1044,2,T1_SMS_8,220,1,48,39,1019273068
1044,2,T1_SMS_8,221,5,42,127,1019288064
1044,2,T1_SMS_8,222,1,48,43,1020055752
1044,2,T1_SMS_8,223,5,42,127,1020087648
1044,2,T1_SMS_8,224,1,48,41,1020843516
1044,2,T1_SMS_8,225,5,42,127,1020888356
1044,2,T1_SMS_8,226,5,42,127,1021688320
1044,2,T1_SMS_8,227,1,48,43,1021699444
1044,2,T1_SMS_8,228,1,48,40,1022434532
1044,2,T1_SMS_8,229,5,42,127,1022487996
1044,2,T1_SMS_8,230,1,48,41,1023230300
1044,2,T1_SMS_8,231,5,42,127,1023287728
1044,2,T1_SMS_8,232,1,48,43,1023956280
1044,2,T1_SMS_8,233,5,42,127,1024088344
1044,2,T1_SMS_8,234,1,48,43,1024799720
1044,2,T1_SMS_8,235,5,42,127,1024888316
1044,2,T1_SMS_8,236,1,48,40,1025625188
1044,2,T1_SMS_8,237,5,42,127,1025687900
1044,2,T1_SMS_8,238,1,48,45,1026442044
1044,2,T1_SMS_8,239,5,42,127,1026487784
1044,2,T1_SMS_8,240,1,48,32,1027263172
1044,2,T1_SMS_8,0,9999,9999,9999,931286068
1044,2,T1_SMS_8,1,9999,9999,9999,932085868
1044,2,T1_SMS_8,2,9999,9999,9999,932885604
1044,2,T1_SMS_8,3,9999,9999,9999,933685360
1044,2,T1_SMS_8,4,9999,9999,9999,934486140
1044,2,T1_SMS_8,5,9999,9999,9999,935285868
1044,2,T1_SMS_8,6,9999,9999,9999,936085604
1044,2,T1_SMS_8,7,9999,9999,9999,936885336
1044,2,T1_SMS_8,8,9999,9999,9999,937686120
1044,2,T1_SMS_8,9,9999,9999,9999,938485856
1044,2,T1_SMS_8,10,9999,9999,9999,939285584
1044,2,T1_SMS_8,11,9999,9999,9999,940085340
1044,2,T1_SMS_8,12,9999,9999,9999,940886124
1044,2,T1_SMS_8,13,9999,9999,9999,941685856
1044,2,T1_SMS_8,14,9999,9999,9999,942485588
1044,2,T1_SMS_8,15,9999,9999,9999,943285324
1044,2,T1_SMS_8,16,9999,9999,9999,944086108
1044,2,T1_SMS_8,17,9999,9999,9999,944885836
1044,2,T1_SMS_8,18,9999,9999,9999,945685568
1044,2,T1_SMS_8,19,9999,9999,9999,946485328
1044,2,T1_SMS_8,20,9999,9999,9999,947286120
1044,2,T1_SMS_8,21,9999,9999,9999,948085840
1044,2,T1_SMS_8,22,9999,9999,9999,948885576
1044,2,T1_SMS_8,23,9999,9999,9999,949685308
1044,2,T1_SMS_8,24,9999,9999,9999,950486092
1044,2,T1_SMS_8,25,9999,9999,9999,951285824
1044,2,T1_SMS_8,26,9999,9999,9999,952085560
1044,2,T1_SMS_8,27,9999,9999,9999,952885312
1044,2,T1_SMS_8,28,9999,9999,9999,953686104
1044,2,T1_SMS_8,29,9999,9999,9999,954485828
1044,2,T1_SMS_8,30,9999,9999,9999,955285620
1044,2,T1_SMS_8,31,9999,9999,9999,956085368
1044,2,T1_SMS_8,32,9999,9999,9999,956886076
1044,2,T1_SMS_8,33,9999,9999,9999,957685808
1044,2,T1_SMS_8,34,9999,9999,9999,958485644
1044,2,T1_SMS_8,35,9999,9999,9999,959285308
1044,2,T1_SMS_8,36,9999,9999,9999,960086088
1044,2,T1_SMS_8,37,9999,9999,9999,960885820
1044,2,T1_SMS_8,38,9999,9999,9999,961685552
1044,2,T1_SMS_8,39,9999,9999,9999,962485360
1044,2,T1_SMS_8,40,9999,9999,9999,963286068
1044,2,T1_SMS_8,41,9999,9999,9999,964085872
1044,2,T1_SMS_8,42,9999,9999,9999,964885552
1044,2,T1_SMS_8,43,9999,9999,9999,965685356
1044,2,T1_SMS_8,44,9999,9999,9999,966486076
1044,2,T1_SMS_8,45,9999,9999,9999,967285876
1044,2,T1_SMS_8,46,9999,9999,9999,968085608
1044,2,T1_SMS_8,47,9999,9999,9999,968885340
1044,2,T1_SMS_8,48,9999,9999,9999,969686124
1044,2,T1_SMS_8,49,9999,9999,9999,970485856
1044,2,T1_SMS_8,50,9999,9999,9999,971285616
1044,2,T1_SMS_8,51,9999,9999,9999,972085348
1044,2,T1_SMS_8,52,9999,9999,9999,972886136
1044,2,T1_SMS_8,53,9999,9999,9999,973685864
1044,2,T1_SMS_8,54,9999,9999,9999,974485600
1044,2,T1_SMS_8,55,9999,9999,9999,975285316
1044,2,T1_SMS_8,56,9999,9999,9999,976086116
1044,2,T1_SMS_8,57,9999,9999,9999,976885828
1044,2,T1_SMS_8,58,9999,9999,9999,977685604
1044,2,T1_SMS_8,59,9999,9999,9999,978485336
1044,2,T1_SMS_8,60,9999,9999,9999,979286120
1044,2,T1_SMS_8,61,9999,9999,9999,980085852
1044,2,T1_SMS_8,62,9999,9999,9999,980885584
1044,2,T1_SMS_8,63,9999,9999,9999,981685316
1044,2,T1_SMS_8,64,9999,9999,9999,982486104
1044,2,T1_SMS_8,65,9999,9999,9999,983285816
1044,2,T1_SMS_8,66,9999,9999,9999,984085592
1044,2,T1_SMS_8,67,9999,9999,9999,984885328
1044,2,T1_SMS_8,68,9999,9999,9999,985686108
1044,2,T1_SMS_8,69,9999,9999,9999,986485840
1044,2,T1_SMS_8,70,9999,9999,9999,987285572
1044,2,T1_SMS_8,71,9999,9999,9999,988085308
1044,2,T1_SMS_8,72,9999,9999,9999,988886092
1044,2,T1_SMS_8,73,9999,9999,9999,989685820
1044,2,T1_SMS_8,74,9999,9999,9999,990485576
1044,2,T1_SMS_8,75,9999,9999,9999,991285312
1044,2,T1_SMS_8,76,9999,9999,9999,992086096
1044,2,T1_SMS_8,77,9999,9999,9999,992885824
1044,2,T1_SMS_8,78,9999,9999,9999,993685560
1044,2,T1_SMS_8,79,9999,9999,9999,994485296
1044,2,T1_SMS_8,80,9999,9999,9999,995286080
1044,2,T1_SMS_8,81,9999,9999,9999,996085808
1044,2,T1_SMS_8,82,9999,9999,9999,996885568
1044,2,T1_SMS_8,83,9999,9999,9999,997685300
1044,2,T1_SMS_8,84,9999,9999,9999,998486084
1044,2,T1_SMS_8,85,9999,9999,9999,999285812
1044,2,T1_SMS_8,86,9999,9999,9999,1000085620
1044,2,T1_SMS_8,87,9999,9999,9999,1000885356
1044,2,T1_SMS_8,88,9999,9999,9999,1001686136
1044,2,T1_SMS_8,89,9999,9999,9999,1002485852
1044,2,T1_SMS_8,90,9999,9999,9999,1003285608
1044,2,T1_SMS_8,91,9999,9999,9999,1004085356
1044,2,T1_SMS_8,92,9999,9999,9999,1004886068
1044,2,T1_SMS_8,93,9999,9999,9999,1005685856
1044,2,T1_SMS_8,94,9999,9999,9999,1006485588
1044,2,T1_SMS_8,95,9999,9999,9999,1007285324
1044,2,T1_SMS_8,96,9999,9999,9999,1008086108
1044,2,T1_SMS_8,97,9999,9999,9999,1008885852
1044,2,T1_SMS_8,98,9999,9999,9999,1009685608
1044,2,T1_SMS_8,99,9999,9999,9999,1010485344
1044,2,T1_SMS_8,100,9999,9999,9999,1011286132
1044,2,T1_SMS_8,101,9999,9999,9999,1012085856
1044,2,T1_SMS_8,102,9999,9999,9999,1012885592
1044,2,T1_SMS_8,103,9999,9999,9999,1013685324
1044,2,T1_SMS_8,104,9999,9999,9999,1014486108
1044,2,T1_SMS_8,105,9999,9999,9999,1015285844
1044,2,T1_SMS_8,106,9999,9999,9999,1016085592
1044,2,T1_SMS_8,107,9999,9999,9999,1016885328
1044,2,T1_SMS_8,108,9999,9999,9999,1017686112
1044,2,T1_SMS_8,109,9999,9999,9999,1018485848
1044,2,T1_SMS_8,110,9999,9999,9999,1019285552
1044,2,T1_SMS_8,111,9999,9999,9999,1020085356
1044,2,T1_SMS_8,112,9999,9999,9999,1020886068
1044,2,T1_SMS_8,113,9999,9999,9999,1021685880
1044,2,T1_SMS_8,114,9999,9999,9999,1022485556
1044,2,T1_SMS_8,115,9999,9999,9999,1023285364
1044,2,T1_SMS_8,116,9999,9999,9999,1024086128
1044,2,T1_SMS_8,117,9999,9999,9999,1024885876
1044,2,T1_SMS_8,118,9999,9999,9999,1025685608
1044,2,T1_SMS_8,119,9999,9999,9999,1026485344
1045,23,Ticks_Phase_5,0,5,42,127,1037892940
1045,23,Ticks_Phase_5,1,5,42,127,1038392796
1045,23,Ticks_Phase_5,2,1,48,26,1038853656
1045,23,Ticks_Phase_5,3,5,42,127,1038893324
1045,23,Ticks_Phase_5,4,1,48,36,1039376484
1045,23,Ticks_Phase_5,5,5,42,127,1039403344
1045,23,Ticks_Phase_5,6,1,48,35,1039898280
1045,23,Ticks_Phase_5,7,5,42,127,1039903032
1045,23,Ticks_Phase_5,8,5,42,127,1040403100
1045,23,Ticks_Phase_5,9,1,48,40,1040403988
1045,23,Ticks_Phase_5,10,5,42,127,1040902464
1045,23,Ticks_Phase_5,11,1,48,41,1040909548
1045,23,Ticks_Phase_5,12,5,42,127,1041403272
1045,23,Ticks_Phase_5,13,1,48,46,1041446480
1045,23,Ticks_Phase_5,14,5,42,127,1041902964
1045,23,Ticks_Phase_5,15,1,48,40,1041905332
1045,23,Ticks_Phase_5,16,1,48,44,1042377752
1045,23,Ticks_Phase_5,17,5,42,127,1042402720
1045,23,Ticks_Phase_5,18,1,48,43,1042879608
1045,23,Ticks_Phase_5,19,5,42,127,1042903380
1045,23,Ticks_Phase_5,20,1,48,41,1043377800
1045,23,Ticks_Phase_5,21,5,42,127,1043403144
1045,23,Ticks_Phase_5,22,1,48,42,1043878904
1045,23,Ticks_Phase_5,23,5,42,127,1043902904
1045,23,Ticks_Phase_5,24,1,48,40,1044384816
1045,23,Ticks_Phase_5,25,5,42,127,1044402520
1045,23,Ticks_Phase_5,26,1,48,43,1044901140
1045,23,Ticks_Phase_5,27,5,42,127,1044903180
1045,23,Ticks_Phase_5,28,5,42,127,1045403024
1045,23,Ticks_Phase_5,29,1,48,45,1045409580
1045,23,Ticks_Phase_5,30,5,42,127,1045902712
1045,23,Ticks_Phase_5,31,1,48,41,1045931820
1045,23,Ticks_Phase_5,32,5,42,127,1046402400
1045,23,Ticks_Phase_5,33,1,48,40,1046433232
1045,23,Ticks_Phase_5,34,5,42,127,1046903284
1045,23,Ticks_Phase_5,35,1,48,38,1046934116
1045,23,Ticks_Phase_5,36,5,42,127,1047402900
1045,23,Ticks_Phase_5,37,1,48,40,1047441748
1045,23,Ticks_Phase_5,38,5,42,127,1047902588
1045,23,Ticks_Phase_5,39,1,48,37,1047920152
1045,23,Ticks_Phase_5,40,5,42,127,1048403320
1045,23,Ticks_Phase_5,41,1,48,38,1048440972
1045,23,Ticks_Phase_5,42,5,42,127,1048903160
1045,23,Ticks_Phase_5,43,1,48,38,1048905832
1045,23,Ticks_Phase_5,44,5,42,127,1049402848
1045,23,Ticks_Phase_5,45,1,48,38,1049409712
1045,23,Ticks_Phase_5,46,1,48,43,1049898008
1045,23,Ticks_Phase_5,47,5,42,127,1049902384
1045,23,Ticks_Phase_5,48,5,42,127,1050403196
1045,23,Ticks_Phase_5,49,1,48,43,1050411712
1045,23,Ticks_Phase_5,50,1,48,40,1050900444
1045,23,Ticks_Phase_5,51,5,42,127,1050902956
1045,23,Ticks_Phase_5,52,5,42,127,1051402700
1045,23,Ticks_Phase_5,53,1,48,43,1051412136
1045,23,Ticks_Phase_5,54,5,42,127,1051903284
1045,23,Ticks_Phase_5,55,1,48,42,1051949336
1045,23,Ticks_Phase_5,56,5,42,127,1052403196
1045,23,Ticks_Phase_5,57,1,48,40,1052449996
1045,23,Ticks_Phase_5,58,5,42,127,1052892628
1045,23,Ticks_Phase_5,59,1,48,42,1052917164
1045,23,Ticks_Phase_5,60,5,42,127,1053393212
1045,23,Ticks_Phase_5,61,1,48,37,1053418720
1045,23,Ticks_Phase_5,62,5,42,127,1053892900
1045,23,Ticks_Phase_5,63,1,48,44,1053910408
1045,23,Ticks_Phase_5,64,5,42,127,1054392740
1045,23,Ticks_Phase_5,65,1,48,43,1054412864
1045,23,Ticks_Phase_5,66,1,48,40,1054875768
1045,23,Ticks_Phase_5,67,5,42,127,1054893840
1045,23,Ticks_Phase_5,68,5,42,127,1055403272
1045,23,Ticks_Phase_5,69,1,48,44,1055413364
1045,23,Ticks_Phase_5,70,5,42,127,1055903036
1045,23,Ticks_Phase_5,71,1,48,48,1055930336
1045,23,Ticks_Phase_5,72,5,42,127,1056402876
1045,23,Ticks_Phase_5,73,1,48,38,1056471600
1045,23,Ticks_Phase_5,74,5,42,127,1056902636
1045,23,Ticks_Phase_5,75,1,48,40,1056951292
1045,23,Ticks_Phase_5,76,5,42,127,1057403296
1045,23,Ticks_Phase_5,77,1,48,35,1057447980
1045,23,Ticks_Phase_5,78,5,42,127,1057902912
1045,23,Ticks_Phase_5,79,1,48,29,1057956724
1045,23,Ticks_Phase_5,80,5,42,127,1058402676
1045,23,Ticks_Phase_5,81,1,48,43,1058405568
1045,23,Ticks_Phase_5,82,5,42,127,1058903484
1045,23,Ticks_Phase_5,83,1,48,46,1058937604
1045,23,Ticks_Phase_5,84,5,42,127,1059403096
1045,23,Ticks_Phase_5,85,1,48,40,1059479680
1045,23,Ticks_Phase_5,86,5,42,127,1059902784
1045,23,Ticks_Phase_5,87,1,48,45,1059990516
1045,23,Ticks_Phase_5,88,5,42,127,1060402620
1045,23,Ticks_Phase_5,89,1,48,41,1060494708
1045,23,Ticks_Phase_5,90,5,42,127,1060903284
1045,23,Ticks_Phase_5,91,1,48,41,1060974028
1045,23,Ticks_Phase_5,92,5,42,127,1061403048
1045,23,Ticks_Phase_5,93,1,48,37,1061478508
1045,23,Ticks_Phase_5,94,5,42,127,1061912996
1045,23,Ticks_Phase_5,95,1,48,39,1061939772
1045,23,Ticks_Phase_5,96,5,42,127,1062412584
1045,23,Ticks_Phase_5,97,1,48,43,1062460744
1045,23,Ticks_Phase_5,98,5,42,127,1062913320
1045,23,Ticks_Phase_5,99,1,48,41,1062952564
1045,23,Ticks_Phase_5,100,5,42,127,1063413084
1045,23,Ticks_Phase_5,101,1,48,41,1063475164
1045,23,Ticks_Phase_5,102,5,42,127,1063912772
1045,23,Ticks_Phase_5,103,1,48,42,1064011032
1045,23,Ticks_Phase_5,104,5,42,127,1064412460
1045,23,Ticks_Phase_5,105,1,48,42,1064507788
1045,23,Ticks_Phase_5,106,5,42,127,1064913268
1045,23,Ticks_Phase_5,107,1,48,40,1065013920
1045,23,Ticks_Phase_5,108,5,42,127,1065413032
1045,23,Ticks_Phase_5,109,1,48,40,1065512784
1045,23,Ticks_Phase_5,110,5,42,127,1065912796
1045,23,Ticks_Phase_5,111,1,48,39,1066013148
1045,23,Ticks_Phase_5,112,5,42,127,1066413604
1045,23,Ticks_Phase_5,113,1,48,44,1066517628
1045,23,Ticks_Phase_5,114,5,42,127,1066923480
1045,23,Ticks_Phase_5,115,1,48,33,1067027796
1045,23,Ticks_Phase_5,116,5,42,127,1067422948
1045,23,Ticks_Phase_5,117,1,48,43,1067480368
1045,23,Ticks_Phase_5,118,5,42,127,1067922784
1045,23,Ticks_Phase_5,119,1,48,41,1067935484
1045,23,Ticks_Phase_5,120,5,42,127,1068422620
1045,23,Ticks_Phase_5,121,1,48,40,1068446628
1045,23,Ticks_Phase_5,122,5,42,127,1068923356
1045,23,Ticks_Phase_5,123,1,48,32,1068932992
1045,23,Ticks_Phase_5,124,1,48,38,1069409072
1045,23,Ticks_Phase_5,125,5,42,127,1069422964
1045,23,Ticks_Phase_5,126,1,48,37,1069894388
1045,23,Ticks_Phase_5,127,5,42,127,1069943096
1045,23,Ticks_Phase_5,128,1,48,34,1070407032
1045,23,Ticks_Phase_5,129,5,42,127,1070442860
1045,23,Ticks_Phase_5,130,1,48,40,1070900196
1045,23,Ticks_Phase_5,131,5,42,127,1070942696
1045,23,Ticks_Phase_5,132,1,48,43,1071412924
1045,23,Ticks_Phase_5,133,5,42,127,1071443284
1045,23,Ticks_Phase_5,134,1,48,30,1071923768
1045,23,Ticks_Phase_5,135,5,42,127,1071943044
1045,23,Ticks_Phase_5,136,1,48,38,1072433644
1045,23,Ticks_Phase_5,137,5,42,127,1072442660
1045,23,Ticks_Phase_5,138,1,48,41,1072918948
1045,23,Ticks_Phase_5,139,5,42,127,1072942644
1045,23,Ticks_Phase_5,140,5,42,127,1073443164
1045,23,Ticks_Phase_5,141,1,48,40,1073458708
1045,23,Ticks_Phase_5,142,1,48,41,1073941336
1045,23,Ticks_Phase_5,143,5,42,127,1073942844
1045,23,Ticks_Phase_5,144,5,42,127,1074442736
1045,23,Ticks_Phase_5,145,1,48,48,1074450608
1045,23,Ticks_Phase_5,146,5,42,127,1074943620
1045,23,Ticks_Phase_5,147,1,48,41,1074984956
1045,23,Ticks_Phase_5,148,5,42,127,1075443012
1045,23,Ticks_Phase_5,149,1,48,41,1075482032
1045,23,Ticks_Phase_5,150,5,42,127,1075942624
1045,23,Ticks_Phase_5,151,1,48,35,1075977568
1045,23,Ticks_Phase_5,152,5,42,127,1076442612
1045,23,Ticks_Phase_5,153,1,48,40,1076479276
1045,23,Ticks_Phase_5,154,5,42,127,1076943196
1045,23,Ticks_Phase_5,155,1,48,44,1076962120
1045,23,Ticks_Phase_5,156,5,42,127,1077443032
1045,23,Ticks_Phase_5,157,1,48,38,1077469064
1045,23,Ticks_Phase_5,158,1,48,42,1077939980
1045,23,Ticks_Phase_5,159,5,42,127,1077942716
1045,23,Ticks_Phase_5,160,5,42,127,1078422864
1045,23,Ticks_Phase_5,161,1,48,46,1078474360
1045,23,Ticks_Phase_5,162,5,42,127,1078922848
1045,23,Ticks_Phase_5,163,1,48,43,1078955848
1045,23,Ticks_Phase_5,164,5,42,127,1079423436
1045,23,Ticks_Phase_5,165,1,48,45,1079489084
1045,23,Ticks_Phase_5,166,5,42,127,1079923124
1045,23,Ticks_Phase_5,167,1,48,45,1079977168
1045,23,Ticks_Phase_5,168,5,42,127,1080422816
1045,23,Ticks_Phase_5,169,1,48,41,1080445924
1045,23,Ticks_Phase_5,170,5,42,127,1080922800
1045,23,Ticks_Phase_5,171,1,48,43,1080939624
1045,23,Ticks_Phase_5,172,5,42,127,1081423164
1045,23,Ticks_Phase_5,173,1,48,49,1081436396
1045,23,Ticks_Phase_5,174,1,48,47,1081913456
1045,23,Ticks_Phase_5,175,5,42,127,1081922844
1045,23,Ticks_Phase_5,176,1,48,45,1082392472
1045,23,Ticks_Phase_5,177,5,42,127,1082422832
1045,23,Ticks_Phase_5,178,1,48,46,1082884500
1045,23,Ticks_Phase_5,179,5,42,127,1082923344
1045,23,Ticks_Phase_5,180,1,48,39,1083362476
1045,23,Ticks_Phase_5,181,5,42,127,1083423180
1045,23,Ticks_Phase_5,182,1,48,46,1083889260
1045,23,Ticks_Phase_5,183,5,42,127,1083922940
1045,23,Ticks_Phase_5,184,1,48,39,1084416732
1045,23,Ticks_Phase_5,185,5,42,127,1084422680
1045,23,Ticks_Phase_5,186,1,48,47,1084908708
1045,23,Ticks_Phase_5,187,5,42,127,1084923192
1045,23,Ticks_Phase_5,188,1,48,44,1085415736
1045,23,Ticks_Phase_5,189,5,42,127,1085422880
1045,23,Ticks_Phase_5,190,1,48,46,1085911608
1045,23,Ticks_Phase_5,191,5,42,127,1085922644
1045,23,Ticks_Phase_5,192,5,42,127,1086373360
1045,23,Ticks_Phase_5,193,1,48,43,1086419988
1045,23,Ticks_Phase_5,194,5,42,127,1086872976
1045,23,Ticks_Phase_5,195,1,48,41,1086891676
1045,23,Ticks_Phase_5,196,1,48,46,1087358024
1045,23,Ticks_Phase_5,197,5,42,127,1087372732
1045,23,Ticks_Phase_5,198,5,42,127,1087873472
1045,23,Ticks_Phase_5,199,1,48,46,1087877112
1045,23,Ticks_Phase_5,200,5,42,127,1088373084
1045,23,Ticks_Phase_5,201,1,48,49,1088407732
1045,23,Ticks_Phase_5,202,1,48,45,1088848544
1045,23,Ticks_Phase_5,203,5,42,127,1088872916
1045,23,Ticks_Phase_5,204,1,48,44,1089348832
1045,23,Ticks_Phase_5,205,5,42,127,1089372680
1045,23,Ticks_Phase_5,206,1,48,45,1089855484
1045,23,Ticks_Phase_5,207,5,42,127,1089873116
1045,23,Ticks_Phase_5,208,1,48,42,1090352484
1045,23,Ticks_Phase_5,209,5,42,127,1090372952
1045,23,Ticks_Phase_5,210,5,42,127,1090872724
1045,23,Ticks_Phase_5,211,1,48,46,1090882812
1045,23,Ticks_Phase_5,212,5,42,127,1091373460
1045,23,Ticks_Phase_5,213,1,48,48,1091421224
1045,23,Ticks_Phase_5,214,5,42,127,1091883480
1045,23,Ticks_Phase_5,215,1,48,42,1091908092
1045,23,Ticks_Phase_5,216,5,42,127,1092383020
1045,23,Ticks_Phase_5,217,1,48,46,1092383988
1045,23,Ticks_Phase_5,218,1,48,45,1092877704
1045,23,Ticks_Phase_5,219,5,42,127,1092882776
1045,23,Ticks_Phase_5,220,1,48,41,1093361444
1045,23,Ticks_Phase_5,221,5,42,127,1093382736
1045,23,Ticks_Phase_5,222,5,42,127,1093883108
1045,23,Ticks_Phase_5,223,1,48,45,1093904824
1045,23,Ticks_Phase_5,224,5,42,127,1094383016
1045,23,Ticks_Phase_5,225,1,48,45,1094406052
1045,23,Ticks_Phase_5,226,1,48,43,1094894276
1045,23,Ticks_Phase_5,227,5,42,127,1094932748
1045,23,Ticks_Phase_5,228,5,42,127,1095432720
1045,23,Ticks_Phase_5,229,1,48,43,1095433832
1045,23,Ticks_Phase_5,230,1,48,42,1095930416
1045,23,Ticks_Phase_5,231,5,42,127,1095933444
1045,23,Ticks_Phase_5,232,1,48,39,1096432992
1045,23,Ticks_Phase_5,233,5,42,127,1096434404
1045,23,Ticks_Phase_5,234,5,42,127,1096932756
1045,23,Ticks_Phase_5,235,1,48,39,1096951308
1045,23,Ticks_Phase_5,236,1,48,42,1097427612
1045,23,Ticks_Phase_5,237,5,42,127,1097432584
1045,23,Ticks_Phase_5,238,1,48,41,1097917792
1045,23,Ticks_Phase_5,239,5,42,127,1097933248
1045,23,Ticks_Phase_5,240,5,42,127,1098432792
1045,23,Ticks_Phase_5,241,1,48,39,1098455004
1045,23,Ticks_Phase_5,242,5,42,127,1098932556
1045,23,Ticks_Phase_5,243,1,48,43,1098961588
1045,23,Ticks_Phase_5,244,1,48,41,1099431320
1045,23,Ticks_Phase_5,245,5,42,127,1099433360
1045,23,Ticks_Phase_5,246,1,48,42,1099924780
1045,23,Ticks_Phase_5,247,5,42,127,1099932972
1045,23,Ticks_Phase_5,248,1,48,46,1100382832
1045,23,Ticks_Phase_5,249,5,42,127,1100432736
1045,23,Ticks_Phase_5,250,1,48,44,1100888508
1045,23,Ticks_Phase_5,251,5,42,127,1100932424
1045,23,Ticks_Phase_5,252,1,48,42,1101400932
1045,23,Ticks_Phase_5,253,5,42,127,1101433680
1045,23,Ticks_Phase_5,254,1,48,45,1101861604
1045,23,Ticks_Phase_5,255,5,42,127,1101932848
1045,23,Ticks_Phase_5,256,1,48,41,1102385996
1045,23,Ticks_Phase_5,257,5,42,127,1102432536
1045,23,Ticks_Phase_5,258,1,48,40,1102892284
1045,23,Ticks_Phase_5,259,5,42,127,1102933344
1045,23,Ticks_Phase_5,260,1,48,45,1103380740
1045,23,Ticks_Phase_5,261,5,42,127,1103533668
1045,23,Ticks_Phase_5,262,1,48,43,1103900184
1045,23,Ticks_Phase_5,263,5,42,127,1104043760
1045,23,Ticks_Phase_5,264,5,42,127,1104543024
1045,23,Ticks_Phase_5,265,1,48,42,1104577296
1045,23,Ticks_Phase_5,266,5,42,127,1105042712
1045,23,Ticks_Phase_5,267,1,48,46,1105118992
1045,23,Ticks_Phase_5,268,5,42,127,1105542476
1045,23,Ticks_Phase_5,269,1,48,40,1105672608
1045,23,Ticks_Phase_5,270,5,42,127,1106043508
1045,23,Ticks_Phase_5,271,1,48,44,1106171100
1045,23,Ticks_Phase_5,272,5,42,127,1106542824
1045,23,Ticks_Phase_5,273,1,48,46,1106725696
1045,23,Ticks_Phase_5,274,5,42,127,1107042664
1045,23,Ticks_Phase_5,275,1,48,42,1107281480
1045,23,Ticks_Phase_5,276,5,42,127,1107543620
1045,23,Ticks_Phase_5,277,1,48,42,1107853204
1045,23,Ticks_Phase_5,278,5,42,127,1108043012
1045,23,Ticks_Phase_5,279,1,48,40,1108393856
1045,23,Ticks_Phase_5,280,5,42,127,1108542700
1045,23,Ticks_Phase_5,281,1,48,32,1108957424
1045,23,Ticks_Phase_5,282,5,42,127,1109042476
1045,23,Ticks_Phase_5,283,1,48,29,1109492536
1045,23,Ticks_Phase_5,284,5,42,127,1109543436
1045,23,Ticks_Phase_5,285,1,48,26,1110027272
1045,23,Ticks_Phase_5,286,5,42,127,1110043048
1045,23,Ticks_Phase_5,287,5,42,127,1110542720
1045,23,Ticks_Phase_5,288,1,48,41,1110555148
1045,23,Ticks_Phase_5,289,5,42,127,1111042408
1045,23,Ticks_Phase_5,290,1,48,34,1111074160
1045,23,Ticks_Phase_5,291,5,42,127,1111543664
1045,23,Ticks_Phase_5,292,1,48,44,1111579384
1045,23,Ticks_Phase_5,293,5,42,127,1112042756
1045,23,Ticks_Phase_5,294,1,48,40,1112101472
1045,23,Ticks_Phase_5,295,5,42,127,1112542520
1045,23,Ticks_Phase_5,296,1,48,33,1112593892
1045,23,Ticks_Phase_5,297,5,42,127,1112942984
1045,23,Ticks_Phase_5,298,1,48,37,1113120236
1045,23,Ticks_Phase_5,299,5,42,127,1113442672
1045,23,Ticks_Phase_5,300,1,48,36,1113656316
1045,23,Ticks_Phase_5,301,5,42,127,1113943332
1045,23,Ticks_Phase_5,302,1,48,34,1114169636
1045,23,Ticks_Phase_5,303,5,42,127,1114443392
1045,23,Ticks_Phase_5,304,1,48,31,1114735828
1045,23,Ticks_Phase_5,305,5,42,127,1114942784
1045,23,Ticks_Phase_5,306,1,48,39,1115283148
1045,23,Ticks_Phase_5,307,5,42,127,1115442400
1045,23,Ticks_Phase_5,308,1,48,32,1115856744
1045,23,Ticks_Phase_5,309,5,42,127,1115943448
1045,23,Ticks_Phase_5,310,5,42,127,1116443068
1045,23,Ticks_Phase_5,311,1,48,26,1116453828
1045,23,Ticks_Phase_5,312,5,42,127,1116942732
1045,23,Ticks_Phase_5,313,1,48,46,1116995904
1045,23,Ticks_Phase_5,314,5,42,127,1117442572
1045,23,Ticks_Phase_5,315,1,48,34,1117464436
1045,23,Ticks_Phase_5,316,5,42,127,1117943380
1045,23,Ticks_Phase_5,317,1,48,48,1117971696
1045,23,Ticks_Phase_5,318,1,48,19,1118061088
1045,23,Ticks_Phase_5,319,5,42,127,1118442748
1045,23,Ticks_Phase_5,320,1,48,38,1118493524
1045,23,Ticks_Phase_5,321,5,42,127,1118942660
1045,23,Ticks_Phase_5,322,1,48,48,1119009752
1045,23,Ticks_Phase_5,323,5,42,127,1119443472
1045,23,Ticks_Phase_5,324,1,48,47,1119522556
1045,23,Ticks_Phase_5,325,5,42,127,1119942936
1045,23,Ticks_Phase_5,326,1,48,51,1120033772
1045,23,Ticks_Phase_5,327,5,42,127,1120442624
1045,23,Ticks_Phase_5,328,1,48,45,1120563496
1045,23,Ticks_Phase_5,329,5,42,127,1120942312
1045,23,Ticks_Phase_5,330,1,48,45,1121064380
1045,23,Ticks_Phase_5,331,5,42,127,1121443348
1045,23,Ticks_Phase_5,332,1,48,45,1121614092
1045,23,Ticks_Phase_5,333,5,42,127,1121942888
1045,23,Ticks_Phase_5,334,1,48,43,1122138784
1045,23,Ticks_Phase_5,335,5,42,127,1122442572
1045,23,Ticks_Phase_5,0,9999,9999,9999,1037890652
1045,23,Ticks_Phase_5,1,9999,9999,9999,1038390360
1045,23,Ticks_Phase_5,2,9999,9999,9999,1038891112
1045,23,Ticks_Phase_5,3,9999,9999,9999,1039401056
1045,23,Ticks_Phase_5,4,9999,9999,9999,1039900744
1045,23,Ticks_Phase_5,5,9999,9999,9999,1040400488
1045,23,Ticks_Phase_5,6,9999,9999,9999,1040900176
1045,23,Ticks_Phase_5,7,9999,9999,9999,1041400912
1045,23,Ticks_Phase_5,8,9999,9999,9999,1041900604
1045,23,Ticks_Phase_5,9,9999,9999,9999,1042400356
1045,23,Ticks_Phase_5,10,9999,9999,9999,1042901092
1045,23,Ticks_Phase_5,11,9999,9999,9999,1043400780
1045,23,Ticks_Phase_5,12,9999,9999,9999,1043900544
1045,23,Ticks_Phase_5,13,9999,9999,9999,1044400232
1045,23,Ticks_Phase_5,14,9999,9999,9999,1044900932
1045,23,Ticks_Phase_5,15,9999,9999,9999,1045400664
1045,23,Ticks_Phase_5,16,9999,9999,9999,1045900352
1045,23,Ticks_Phase_5,17,9999,9999,9999,1046400116
1045,23,Ticks_Phase_5,18,9999,9999,9999,1046900848
1045,23,Ticks_Phase_5,19,9999,9999,9999,1047400536
1045,23,Ticks_Phase_5,20,9999,9999,9999,1047900224
1045,23,Ticks_Phase_5,21,9999,9999,9999,1048400960
1045,23,Ticks_Phase_5,22,9999,9999,9999,1048900724
1045,23,Ticks_Phase_5,23,9999,9999,9999,1049400412
1045,23,Ticks_Phase_5,24,9999,9999,9999,1049900096
1045,23,Ticks_Phase_5,25,9999,9999,9999,1050400836
1045,23,Ticks_Phase_5,26,9999,9999,9999,1050900592
1045,23,Ticks_Phase_5,27,9999,9999,9999,1051400264
1045,23,Ticks_Phase_5,28,9999,9999,9999,1051900996
1045,23,Ticks_Phase_5,29,9999,9999,9999,1052400760
1045,23,Ticks_Phase_5,30,9999,9999,9999,1052890192
1045,23,Ticks_Phase_5,31,9999,9999,9999,1053390924
1045,23,Ticks_Phase_5,32,9999,9999,9999,1053890616
1045,23,Ticks_Phase_5,33,9999,9999,9999,1054390376
1045,23,Ticks_Phase_5,34,9999,9999,9999,1054891108
1045,23,Ticks_Phase_5,35,9999,9999,9999,1055401060
1045,23,Ticks_Phase_5,36,9999,9999,9999,1055900748
1045,23,Ticks_Phase_5,37,9999,9999,9999,1056400440
1045,23,Ticks_Phase_5,38,9999,9999,9999,1056900200
1045,23,Ticks_Phase_5,39,9999,9999,9999,1057400936
1045,23,Ticks_Phase_5,40,9999,9999,9999,1057900624
1045,23,Ticks_Phase_5,41,9999,9999,9999,1058400312
1045,23,Ticks_Phase_5,42,9999,9999,9999,1058901048
1045,23,Ticks_Phase_5,43,9999,9999,9999,1059400812
1045,23,Ticks_Phase_5,44,9999,9999,9999,1059900500
1045,23,Ticks_Phase_5,45,9999,9999,9999,1060400188
1045,23,Ticks_Phase_5,46,9999,9999,9999,1060900924
1045,23,Ticks_Phase_5,47,9999,9999,9999,1061400684
1045,23,Ticks_Phase_5,48,9999,9999,9999,1061910632
1045,23,Ticks_Phase_5,49,9999,9999,9999,1062410296
1045,23,Ticks_Phase_5,50,9999,9999,9999,1062911032
1045,23,Ticks_Phase_5,51,9999,9999,9999,1063410796
1045,23,Ticks_Phase_5,52,9999,9999,9999,1063910484
1045,23,Ticks_Phase_5,53,9999,9999,9999,1064410172
1045,23,Ticks_Phase_5,54,9999,9999,9999,1064910908
1045,23,Ticks_Phase_5,55,9999,9999,9999,1065410672
1045,23,Ticks_Phase_5,56,9999,9999,9999,1065910360
1045,23,Ticks_Phase_5,57,9999,9999,9999,1066411096
1045,23,Ticks_Phase_5,58,9999,9999,9999,1066921044
1045,23,Ticks_Phase_5,59,9999,9999,9999,1067420736
1045,23,Ticks_Phase_5,60,9999,9999,9999,1067920496
1045,23,Ticks_Phase_5,61,9999,9999,9999,1068420184
1045,23,Ticks_Phase_5,62,9999,9999,9999,1068920920
1045,23,Ticks_Phase_5,63,9999,9999,9999,1069420600
1045,23,Ticks_Phase_5,64,9999,9999,9999,1069940808
1045,23,Ticks_Phase_5,65,9999,9999,9999,1070440572
1045,23,Ticks_Phase_5,66,9999,9999,9999,1070940260
1045,23,Ticks_Phase_5,67,9999,9999,9999,1071440996
1045,23,Ticks_Phase_5,68,9999,9999,9999,1071940684
1045,23,Ticks_Phase_5,69,9999,9999,9999,1072440444
1045,23,Ticks_Phase_5,70,9999,9999,9999,1072940136
1045,23,Ticks_Phase_5,71,9999,9999,9999,1073440876
1045,23,Ticks_Phase_5,72,9999,9999,9999,1073940564
1045,23,Ticks_Phase_5,73,9999,9999,9999,1074440300
1045,23,Ticks_Phase_5,74,9999,9999,9999,1074941036
1045,23,Ticks_Phase_5,75,9999,9999,9999,1075440724
1045,23,Ticks_Phase_5,76,9999,9999,9999,1075940412
1045,23,Ticks_Phase_5,77,9999,9999,9999,1076440176
1045,23,Ticks_Phase_5,78,9999,9999,9999,1076940908
1045,23,Ticks_Phase_5,79,9999,9999,9999,1077440596
1045,23,Ticks_Phase_5,80,9999,9999,9999,1077940280
1045,23,Ticks_Phase_5,81,9999,9999,9999,1078420576
1045,23,Ticks_Phase_5,82,9999,9999,9999,1078920264
1045,23,Ticks_Phase_5,83,9999,9999,9999,1079421000
1045,23,Ticks_Phase_5,84,9999,9999,9999,1079920764
1045,23,Ticks_Phase_5,85,9999,9999,9999,1080420452
1045,23,Ticks_Phase_5,86,9999,9999,9999,1080920140
1045,23,Ticks_Phase_5,87,9999,9999,9999,1081420876
1045,23,Ticks_Phase_5,88,9999,9999,9999,1081920632
1045,23,Ticks_Phase_5,89,9999,9999,9999,1082420320
1045,23,Ticks_Phase_5,90,9999,9999,9999,1082921056
1045,23,Ticks_Phase_5,91,9999,9999,9999,1083420744
1045,23,Ticks_Phase_5,92,9999,9999,9999,1083920508
1045,23,Ticks_Phase_5,93,9999,9999,9999,1084420172
1045,23,Ticks_Phase_5,94,9999,9999,9999,1084920904
1045,23,Ticks_Phase_5,95,9999,9999,9999,1085420668
1045,23,Ticks_Phase_5,96,9999,9999,9999,1085920356
1045,23,Ticks_Phase_5,97,9999,9999,9999,1086370924
1045,23,Ticks_Phase_5,98,9999,9999,9999,1086870612
1045,23,Ticks_Phase_5,99,9999,9999,9999,1087370296
1045,23,Ticks_Phase_5,100,9999,9999,9999,1087871036
1045,23,Ticks_Phase_5,101,9999,9999,9999,1088370800
1045,23,Ticks_Phase_5,102,9999,9999,9999,1088870480
1045,23,Ticks_Phase_5,103,9999,9999,9999,1089370168
1045,23,Ticks_Phase_5,104,9999,9999,9999,1089870904
1045,23,Ticks_Phase_5,105,9999,9999,9999,1090370668
1045,23,Ticks_Phase_5,106,9999,9999,9999,1090870364
1045,23,Ticks_Phase_5,107,9999,9999,9999,1091371100
1045,23,Ticks_Phase_5,108,9999,9999,9999,1091881044
1045,23,Ticks_Phase_5,109,9999,9999,9999,1092380736
1045,23,Ticks_Phase_5,110,9999,9999,9999,1092880488
1045,23,Ticks_Phase_5,111,9999,9999,9999,1093380152
1045,23,Ticks_Phase_5,112,9999,9999,9999,1093880892
1045,23,Ticks_Phase_5,113,9999,9999,9999,1094380656
1045,23,Ticks_Phase_5,114,9999,9999,9999,1094930536
1045,23,Ticks_Phase_5,115,9999,9999,9999,1095430208
1045,23,Ticks_Phase_5,116,9999,9999,9999,1095930936
1045,23,Ticks_Phase_5,117,9999,9999,9999,1096430708
1045,23,Ticks_Phase_5,118,9999,9999,9999,1096930396
1045,23,Ticks_Phase_5,119,9999,9999,9999,1097430076
1045,23,Ticks_Phase_5,120,9999,9999,9999,1097930812
1045,23,Ticks_Phase_5,121,9999,9999,9999,1098430580
1045,23,Ticks_Phase_5,122,9999,9999,9999,1098930268
1045,23,Ticks_Phase_5,123,9999,9999,9999,1099431036
1045,23,Ticks_Phase_5,124,9999,9999,9999,1099930684
1045,23,Ticks_Phase_5,125,9999,9999,9999,1100430448
1045,23,Ticks_Phase_5,126,9999,9999,9999,1100930140
1045,23,Ticks_Phase_5,127,9999,9999,9999,1101430872
1045,23,Ticks_Phase_5,128,9999,9999,9999,1101930560
1045,23,Ticks_Phase_5,129,9999,9999,9999,1102430324
1045,23,Ticks_Phase_5,130,9999,9999,9999,1102931056
1045,23,Ticks_Phase_5,131,9999,9999,9999,1103531080
1045,23,Ticks_Phase_5,132,9999,9999,9999,1104041028
1045,23,Ticks_Phase_5,133,9999,9999,9999,1104540740
1045,23,Ticks_Phase_5,134,9999,9999,9999,1105040500
1045,23,Ticks_Phase_5,135,9999,9999,9999,1105540188
1045,23,Ticks_Phase_5,136,9999,9999,9999,1106040924
1045,23,Ticks_Phase_5,137,9999,9999,9999,1106540612
1045,23,Ticks_Phase_5,138,9999,9999,9999,1107040376
1045,23,Ticks_Phase_5,139,9999,9999,9999,1107541108
1045,23,Ticks_Phase_5,140,9999,9999,9999,1108040796
1045,23,Ticks_Phase_5,141,9999,9999,9999,1108540488
1045,23,Ticks_Phase_5,142,9999,9999,9999,1109040192
1045,23,Ticks_Phase_5,143,9999,9999,9999,1109540924
1045,23,Ticks_Phase_5,144,9999,9999,9999,1110040688
1045,23,Ticks_Phase_5,145,9999,9999,9999,1110540360
1045,23,Ticks_Phase_5,146,9999,9999,9999,1111040120
1045,23,Ticks_Phase_5,147,9999,9999,9999,1111540856
1045,23,Ticks_Phase_5,148,9999,9999,9999,1112040544
1045,23,Ticks_Phase_5,149,9999,9999,9999,1112540232
1045,23,Ticks_Phase_5,150,9999,9999,9999,1112940620
1045,23,Ticks_Phase_5,151,9999,9999,9999,1113440308
1045,23,Ticks_Phase_5,152,9999,9999,9999,1113941120
1045,23,Ticks_Phase_5,153,9999,9999,9999,1114440808
1045,23,Ticks_Phase_5,154,9999,9999,9999,1114940496
1045,23,Ticks_Phase_5,155,9999,9999,9999,1115440188
1045,23,Ticks_Phase_5,156,9999,9999,9999,1115940936
1045,23,Ticks_Phase_5,157,9999,9999,9999,1116440632
1045,23,Ticks_Phase_5,158,9999,9999,9999,1116940372
1045,23,Ticks_Phase_5,159,9999,9999,9999,1117440060
1045,23,Ticks_Phase_5,160,9999,9999,9999,1117940796
1045,23,Ticks_Phase_5,161,9999,9999,9999,1118440536
1045,23,Ticks_Phase_5,162,9999,9999,9999,1118940224
1045,23,Ticks_Phase_5,163,9999,9999,9999,1119440960
1045,23,Ticks_Phase_5,164,9999,9999,9999,1119940724
1045,23,Ticks_Phase_5,165,9999,9999,9999,1120440412
1045,23,Ticks_Phase_5,166,9999,9999,9999,1120940100
1045,23,Ticks_Phase_5,167,9999,9999,9999,1121440836
1045,23,Ticks_Phase_5,168,9999,9999,9999,1121940600
1045,23,Ticks_Phase_5,169,9999,9999,9999,1122440288
1046,22,Ticks_Phase_8,0,5,42,127,1132832188
1046,22,Ticks_Phase_8,1,1,48,38,1133375596
1046,22,Ticks_Phase_8,2,5,42,127,1133631824
1046,22,Ticks_Phase_8,3,1,48,33,1134026400
1046,22,Ticks_Phase_8,4,5,42,127,1134431612
1046,22,Ticks_Phase_8,5,1,48,35,1134939676
1046,22,Ticks_Phase_8,6,5,42,127,1135232296
1046,22,Ticks_Phase_8,7,1,48,25,1135684936
1046,22,Ticks_Phase_8,8,5,42,127,1136032304
1046,22,Ticks_Phase_8,9,1,48,25,1136260344
1046,22,Ticks_Phase_8,10,5,42,127,1136831868
1046,22,Ticks_Phase_8,11,1,48,38,1137428544
1046,22,Ticks_Phase_8,12,5,42,127,1137631580
1046,22,Ticks_Phase_8,13,1,48,41,1138364024
1046,22,Ticks_Phase_8,14,5,42,127,1138432500
1046,22,Ticks_Phase_8,15,1,48,43,1139202608
1046,22,Ticks_Phase_8,16,5,42,127,1139232236
1046,22,Ticks_Phase_8,17,1,48,41,1140016936
1046,22,Ticks_Phase_8,18,5,42,127,1140031800
1046,22,Ticks_Phase_8,19,5,42,127,1140831592
1046,22,Ticks_Phase_8,20,1,48,38,1140861600
1046,22,Ticks_Phase_8,21,5,42,127,1141632352
1046,22,Ticks_Phase_8,22,1,48,44,1141694256
1046,22,Ticks_Phase_8,23,5,42,127,1142432212
1046,22,Ticks_Phase_8,24,1,48,42,1142469100
1046,22,Ticks_Phase_8,25,5,42,127,1143231848
1046,22,Ticks_Phase_8,26,1,48,37,1143247468
1046,22,Ticks_Phase_8,27,1,48,41,1144019312
1046,22,Ticks_Phase_8,28,5,42,127,1144031552
1046,22,Ticks_Phase_8,29,1,48,42,1144820380
1046,22,Ticks_Phase_8,30,5,42,127,1144832388
1046,22,Ticks_Phase_8,31,1,48,45,1145609304
1046,22,Ticks_Phase_8,32,5,42,127,1145632276
1046,22,Ticks_Phase_8,33,5,42,127,1146431996
1046,22,Ticks_Phase_8,34,1,48,40,1146454064
1046,22,Ticks_Phase_8,35,1,48,43,1147186132
1046,22,Ticks_Phase_8,36,5,42,127,1147231628
1046,22,Ticks_Phase_8,37,5,42,127,1148032316
1046,22,Ticks_Phase_8,38,1,48,39,1148051840
1046,22,Ticks_Phase_8,39,5,42,127,1148832400
1046,22,Ticks_Phase_8,40,1,48,41,1148849224
1046,22,Ticks_Phase_8,41,5,42,127,1149631816
1046,22,Ticks_Phase_8,42,1,48,38,1149645940
1046,22,Ticks_Phase_8,43,5,42,127,1150431600
1046,22,Ticks_Phase_8,44,1,48,41,1150485520
1046,22,Ticks_Phase_8,45,5,42,127,1151232284
1046,22,Ticks_Phase_8,46,1,48,45,1151233772
1046,22,Ticks_Phase_8,47,1,48,40,1152021500
1046,22,Ticks_Phase_8,48,5,42,127,1152032236
1046,22,Ticks_Phase_8,49,5,42,127,1152832180
1046,22,Ticks_Phase_8,50,1,48,39,1152865404
1046,22,Ticks_Phase_8,51,5,42,127,1153631596
1046,22,Ticks_Phase_8,52,1,48,42,1153643552
1046,22,Ticks_Phase_8,53,5,42,127,1154432356
1046,22,Ticks_Phase_8,54,1,48,43,1154483028
1046,22,Ticks_Phase_8,55,1,48,42,1155224092
1046,22,Ticks_Phase_8,56,5,42,127,1155232208
1046,22,Ticks_Phase_8,57,5,42,127,1156032076
1046,22,Ticks_Phase_8,58,1,48,43,1156041192
1046,22,Ticks_Phase_8,59,5,42,127,1156812020
1046,22,Ticks_Phase_8,60,1,48,49,1156876320
1046,22,Ticks_Phase_8,61,5,42,127,1157612028
1046,22,Ticks_Phase_8,62,1,48,47,1157621664
1046,22,Ticks_Phase_8,63,1,48,39,1158395896
1046,22,Ticks_Phase_8,64,5,42,127,1158411660
1046,22,Ticks_Phase_8,65,1,48,45,1159137172
1046,22,Ticks_Phase_8,66,5,42,127,1159212344
1046,22,Ticks_Phase_8,67,1,48,42,1159975028
1046,22,Ticks_Phase_8,68,5,42,127,1160012128
1046,22,Ticks_Phase_8,69,1,48,46,1160767924
1046,22,Ticks_Phase_8,70,5,42,127,1160811916
1046,22,Ticks_Phase_8,71,1,48,45,1161579088
1046,22,Ticks_Phase_8,72,5,42,127,1161611624
1046,22,Ticks_Phase_8,73,1,48,46,1162399616
1046,22,Ticks_Phase_8,74,5,42,127,1162412384
1046,22,Ticks_Phase_8,75,1,48,48,1163211048
1046,22,Ticks_Phase_8,76,5,42,127,1163212544
1046,22,Ticks_Phase_8,77,5,42,127,1164012036
1046,22,Ticks_Phase_8,78,1,48,39,1164073076
1046,22,Ticks_Phase_8,79,5,42,127,1164811676
1046,22,Ticks_Phase_8,80,1,48,44,1164830156
1046,22,Ticks_Phase_8,81,1,48,51,1165550676
1046,22,Ticks_Phase_8,82,5,42,127,1165612428
1046,22,Ticks_Phase_8,83,1,48,45,1166333156
1046,22,Ticks_Phase_8,84,5,42,127,1166412140
1046,22,Ticks_Phase_8,85,1,48,51,1167118432
1046,22,Ticks_Phase_8,86,5,42,127,1167212076
1046,22,Ticks_Phase_8,87,1,48,46,1167947800
1046,22,Ticks_Phase_8,88,5,42,127,1168011784
1046,22,Ticks_Phase_8,89,1,48,43,1168741456
1046,22,Ticks_Phase_8,90,5,42,127,1168812468
1046,22,Ticks_Phase_8,91,1,48,39,1169507828
1046,22,Ticks_Phase_8,92,5,42,127,1169612240
1046,22,Ticks_Phase_8,93,1,48,42,1170333008
1046,22,Ticks_Phase_8,94,5,42,127,1170411968
1046,22,Ticks_Phase_8,95,1,48,41,1171081948
1046,22,Ticks_Phase_8,96,5,42,127,1171232136
1046,22,Ticks_Phase_8,97,1,48,48,1171910640
1046,22,Ticks_Phase_8,98,5,42,127,1172031920
1046,22,Ticks_Phase_8,99,1,48,45,1172682344
1046,22,Ticks_Phase_8,100,5,42,127,1172831704
1046,22,Ticks_Phase_8,101,1,48,40,1173482952
1046,22,Ticks_Phase_8,102,5,42,127,1173632388
1046,22,Ticks_Phase_8,103,1,48,41,1174289192
1046,22,Ticks_Phase_8,104,5,42,127,1174432100
1046,22,Ticks_Phase_8,105,1,48,45,1175035268
1046,22,Ticks_Phase_8,106,5,42,127,1175231812
1046,22,Ticks_Phase_8,107,1,48,28,1175836724
1046,22,Ticks_Phase_8,108,5,42,127,1176031676
1046,22,Ticks_Phase_8,109,1,48,40,1176644376
1046,22,Ticks_Phase_8,110,5,42,127,1176832360
1046,22,Ticks_Phase_8,111,1,48,40,1177418396
1046,22,Ticks_Phase_8,112,5,42,127,1177632096
1046,22,Ticks_Phase_8,113,1,48,52,1178367956
1046,22,Ticks_Phase_8,114,5,42,127,1178432120
1046,22,Ticks_Phase_8,115,1,48,43,1179109104
1046,22,Ticks_Phase_8,116,5,42,127,1179231592
1046,22,Ticks_Phase_8,117,1,48,32,1179933632
1046,22,Ticks_Phase_8,118,5,42,127,1180032872
1046,22,Ticks_Phase_8,119,1,48,37,1180743232
1046,22,Ticks_Phase_8,120,5,42,127,1180832076
1046,22,Ticks_Phase_8,121,1,48,46,1181544360
1046,22,Ticks_Phase_8,122,5,42,127,1181632160
1046,22,Ticks_Phase_8,123,1,48,43,1182417020
1046,22,Ticks_Phase_8,124,5,42,127,1182431728
1046,22,Ticks_Phase_8,125,1,48,45,1183183932
1046,22,Ticks_Phase_8,126,5,42,127,1183232560
1046,22,Ticks_Phase_8,127,1,48,37,1184018332
1046,22,Ticks_Phase_8,128,5,42,127,1184072136
1046,22,Ticks_Phase_8,129,1,48,45,1184773396
1046,22,Ticks_Phase_8,130,5,42,127,1184871776
1046,22,Ticks_Phase_8,131,1,48,38,1185568628
1046,22,Ticks_Phase_8,132,5,42,127,1185671396
1046,22,Ticks_Phase_8,133,1,48,41,1186336368
1046,22,Ticks_Phase_8,134,5,42,127,1186472380
1046,22,Ticks_Phase_8,135,1,48,38,1187149260
1046,22,Ticks_Phase_8,136,5,42,127,1187272168
1046,22,Ticks_Phase_8,137,1,48,36,1187999072
1046,22,Ticks_Phase_8,138,5,42,127,1188072044
1046,22,Ticks_Phase_8,139,1,48,45,1188796988
1046,22,Ticks_Phase_8,140,5,42,127,1188871532
1046,22,Ticks_Phase_8,141,1,48,42,1189656108
1046,22,Ticks_Phase_8,142,5,42,127,1189672168
1046,22,Ticks_Phase_8,143,1,48,47,1190467656
1046,22,Ticks_Phase_8,144,5,42,127,1190472028
1046,22,Ticks_Phase_8,145,5,42,127,1191271972
1046,22,Ticks_Phase_8,146,1,48,38,1191283404
1046,22,Ticks_Phase_8,147,5,42,127,1192071684
1046,22,Ticks_Phase_8,148,1,48,49,1192084688
1046,22,Ticks_Phase_8,149,5,42,127,1192872292
1046,22,Ticks_Phase_8,150,1,48,32,1192895476
1046,22,Ticks_Phase_8,151,1,48,48,1193648300
1046,22,Ticks_Phase_8,152,5,42,127,1193672068
1046,22,Ticks_Phase_8,153,1,48,42,1194407048
1046,22,Ticks_Phase_8,154,5,42,127,1194471932
1046,22,Ticks_Phase_8,155,1,48,48,1195179956
1046,22,Ticks_Phase_8,156,5,42,127,1195271792
1046,22,Ticks_Phase_8,157,1,48,40,1196034852
1046,22,Ticks_Phase_8,158,5,42,127,1196072204
1046,22,Ticks_Phase_8,159,1,48,46,1196789780
1046,22,Ticks_Phase_8,160,5,42,127,1196871916
1046,22,Ticks_Phase_8,161,1,48,37,1197590800
1046,22,Ticks_Phase_8,162,5,42,127,1197631788
1046,22,Ticks_Phase_8,163,5,42,127,1198431728
1046,22,Ticks_Phase_8,164,1,48,46,1198434328
1046,22,Ticks_Phase_8,165,1,48,43,1199163408
1046,22,Ticks_Phase_8,166,5,42,127,1199232480
1046,22,Ticks_Phase_8,167,1,48,47,1199926424
1046,22,Ticks_Phase_8,168,5,42,127,1200032104
1046,22,Ticks_Phase_8,169,1,48,38,1200692288
1046,22,Ticks_Phase_8,170,5,42,127,1200831816
1046,22,Ticks_Phase_8,171,1,48,45,1201437248
1046,22,Ticks_Phase_8,172,5,42,127,1201631748
1046,22,Ticks_Phase_8,173,1,48,40,1202226256
1046,22,Ticks_Phase_8,174,5,42,127,1202432284
1046,22,Ticks_Phase_8,175,1,48,35,1203020428
1046,22,Ticks_Phase_8,176,5,42,127,1203232096
1046,22,Ticks_Phase_8,177,1,48,41,1203852188
1046,22,Ticks_Phase_8,178,5,42,127,1204031808
1046,22,Ticks_Phase_8,179,1,48,45,1204638044
1046,22,Ticks_Phase_8,180,5,42,127,1204831668
1046,22,Ticks_Phase_8,181,1,48,39,1205443076
1046,22,Ticks_Phase_8,182,5,42,127,1205632648
1046,22,Ticks_Phase_8,183,1,48,44,1206257608
1046,22,Ticks_Phase_8,184,5,42,127,1206432064
1046,22,Ticks_Phase_8,185,1,48,40,1207053752
1046,22,Ticks_Phase_8,186,5,42,127,1207231852
1046,22,Ticks_Phase_8,187,1,48,44,1207837284
1046,22,Ticks_Phase_8,188,5,42,127,1208031712
1046,22,Ticks_Phase_8,189,1,48,41,1208708512
1046,22,Ticks_Phase_8,190,5,42,127,1208832616
1046,22,Ticks_Phase_8,191,1,48,46,1209462924
1046,22,Ticks_Phase_8,192,5,42,127,1209632204
1046,22,Ticks_Phase_8,193,1,48,43,1210235372
1046,22,Ticks_Phase_8,194,5,42,127,1210351840
1046,22,Ticks_Phase_8,195,1,48,35,1211063916
1046,22,Ticks_Phase_8,196,5,42,127,1211151592
1046,22,Ticks_Phase_8,197,1,48,39,1211853220
1046,22,Ticks_Phase_8,198,5,42,127,1211951524
1046,22,Ticks_Phase_8,199,1,48,42,1212633460
1046,22,Ticks_Phase_8,200,5,42,127,1212752120
1046,22,Ticks_Phase_8,201,1,48,49,1213457080
1046,22,Ticks_Phase_8,202,5,42,127,1213551920
1046,22,Ticks_Phase_8,203,1,48,44,1214274992
1046,22,Ticks_Phase_8,204,5,42,127,1214351632
1046,22,Ticks_Phase_8,205,1,48,43,1215123152
1046,22,Ticks_Phase_8,206,5,42,127,1215151564
1046,22,Ticks_Phase_8,207,1,48,38,1215860564
1046,22,Ticks_Phase_8,208,5,42,127,1215952160
1046,22,Ticks_Phase_8,209,1,48,45,1216620508
1046,22,Ticks_Phase_8,210,5,42,127,1216751948
1046,22,Ticks_Phase_8,211,1,48,37,1217438632
1046,22,Ticks_Phase_8,212,5,42,127,1217551612
1046,22,Ticks_Phase_8,213,1,48,43,1218129608
1046,22,Ticks_Phase_8,214,5,42,127,1218351400
1046,22,Ticks_Phase_8,215,1,48,40,1218925880
1046,22,Ticks_Phase_8,216,5,42,127,1219152156
1046,22,Ticks_Phase_8,217,1,48,42,1219712420
1046,22,Ticks_Phase_8,218,5,42,127,1219951944
1046,22,Ticks_Phase_8,219,1,48,43,1220481876
1046,22,Ticks_Phase_8,220,5,42,127,1220751808
1046,22,Ticks_Phase_8,221,1,48,39,1221241152
1046,22,Ticks_Phase_8,222,5,42,127,1221551596
1046,22,Ticks_Phase_8,223,1,48,47,1221992932
1046,22,Ticks_Phase_8,224,5,42,127,1222352504
1046,22,Ticks_Phase_8,225,1,48,37,1222771828
1046,22,Ticks_Phase_8,226,5,42,127,1223151916
1046,22,Ticks_Phase_8,227,1,48,46,1223498968
1046,22,Ticks_Phase_8,228,5,42,127,1224031560
1046,22,Ticks_Phase_8,229,1,48,40,1224223800
1046,22,Ticks_Phase_8,230,5,42,127,1224832320
1046,22,Ticks_Phase_8,231,1,48,43,1224938928
1046,22,Ticks_Phase_8,232,5,42,127,1225632104
1046,22,Ticks_Phase_8,233,1,48,38,1225750736
1046,22,Ticks_Phase_8,234,5,42,127,1226431820
1046,22,Ticks_Phase_8,235,1,48,41,1226566608
1046,22,Ticks_Phase_8,236,5,42,127,1227231460
1046,22,Ticks_Phase_8,237,1,48,38,1227409548
1046,22,Ticks_Phase_8,238,5,42,127,1228032588
1046,22,Ticks_Phase_8,239,1,48,36,1228168728
1046,22,Ticks_Phase_8,240,5,42,127,1228832252
1046,22,Ticks_Phase_8,241,1,48,49,1229056588
1046,22,Ticks_Phase_8,242,5,42,127,1229631740
1046,22,Ticks_Phase_8,243,1,48,47,1229840460
1046,22,Ticks_Phase_8,244,5,42,127,1230431452
1046,22,Ticks_Phase_8,245,1,48,42,1230635816
1046,22,Ticks_Phase_8,246,5,42,127,1231232584
1046,22,Ticks_Phase_8,247,1,48,40,1231451560
1046,22,Ticks_Phase_8,248,5,42,127,1232032148
1046,22,Ticks_Phase_8,249,1,48,39,1232243108
1046,22,Ticks_Phase_8,250,5,42,127,1232831860
1046,22,Ticks_Phase_8,251,1,48,41,1233100632
1046,22,Ticks_Phase_8,252,5,42,127,1233631496
1046,22,Ticks_Phase_8,253,1,48,44,1233915760
1046,22,Ticks_Phase_8,254,5,42,127,1234432700
1046,22,Ticks_Phase_8,255,1,48,40,1234655716
1046,22,Ticks_Phase_8,256,5,42,127,1235232064
1046,22,Ticks_Phase_8,257,1,48,43,1235415660
1046,22,Ticks_Phase_8,258,5,42,127,1236031852
1046,22,Ticks_Phase_8,259,1,48,40,1236190224
1046,22,Ticks_Phase_8,260,5,42,127,1236831488
1046,22,Ticks_Phase_8,261,1,48,35,1236971504
1046,22,Ticks_Phase_8,262,1,48,37,1237739368
1046,22,Ticks_Phase_8,263,5,42,127,1237792224
1046,22,Ticks_Phase_8,264,5,42,127,1238591868
1046,22,Ticks_Phase_8,265,1,48,38,1238661716
1046,22,Ticks_Phase_8,266,5,42,127,1239391508
1046,22,Ticks_Phase_8,267,1,48,39,1239424876
1046,22,Ticks_Phase_8,268,1,48,35,1240182496
1046,22,Ticks_Phase_8,269,5,42,127,1240192632
1046,22,Ticks_Phase_8,270,1,48,45,1240958832
1046,22,Ticks_Phase_8,271,5,42,127,1240992048
1046,22,Ticks_Phase_8,272,1,48,36,1241740660
1046,22,Ticks_Phase_8,273,5,42,127,1241791908
1046,22,Ticks_Phase_8,274,1,48,43,1242539400
1046,22,Ticks_Phase_8,275,5,42,127,1242591544
1046,22,Ticks_Phase_8,276,1,48,41,1243260848
1046,22,Ticks_Phase_8,277,5,42,127,1243392512
1046,22,Ticks_Phase_8,278,1,48,34,1244046552
1046,22,Ticks_Phase_8,279,5,42,127,1244192324
1046,22,Ticks_Phase_8,280,1,48,33,1244792796
1046,22,Ticks_Phase_8,281,5,42,127,1244991960
1046,22,Ticks_Phase_8,282,1,48,30,1245594828
1046,22,Ticks_Phase_8,283,5,42,127,1245791600
1046,22,Ticks_Phase_8,284,5,42,127,1246592380
1046,22,Ticks_Phase_8,285,1,48,32,1246680576
1046,22,Ticks_Phase_8,286,1,48,29,1247389728
1046,22,Ticks_Phase_8,287,5,42,127,1247392308
1046,22,Ticks_Phase_8,288,1,48,35,1248087592
1046,22,Ticks_Phase_8,289,5,42,127,1248191780
1046,22,Ticks_Phase_8,290,1,48,31,1248843644
1046,22,Ticks_Phase_8,291,5,42,127,1248991568
1046,22,Ticks_Phase_8,292,1,48,40,1249548400
1046,22,Ticks_Phase_8,293,5,42,127,1249792252
1046,22,Ticks_Phase_8,294,1,48,35,1250308764
1046,22,Ticks_Phase_8,295,5,42,127,1250592060
1046,22,Ticks_Phase_8,296,1,48,37,1251026772
1046,22,Ticks_Phase_8,297,5,42,127,1251391920
1046,22,Ticks_Phase_8,298,1,48,32,1251751232
1046,22,Ticks_Phase_8,299,5,42,127,1252191708
1046,22,Ticks_Phase_8,300,1,48,37,1252484364
1046,22,Ticks_Phase_8,301,5,42,127,1252831584
1046,22,Ticks_Phase_8,302,1,48,35,1253223868
1046,22,Ticks_Phase_8,303,5,42,127,1253632416
1046,22,Ticks_Phase_8,304,1,48,35,1253921360
1046,22,Ticks_Phase_8,305,5,42,127,1254432228
1046,22,Ticks_Phase_8,306,1,48,29,1254688940
1046,22,Ticks_Phase_8,307,5,42,127,1255231864
1046,22,Ticks_Phase_8,308,1,48,23,1255451068
1046,22,Ticks_Phase_8,309,5,42,127,1256031576
1046,22,Ticks_Phase_8,310,1,48,27,1256226428
1046,22,Ticks_Phase_8,311,5,42,127,1256832484
1046,22,Ticks_Phase_8,312,1,48,36,1257012372
1046,22,Ticks_Phase_8,313,5,42,127,1257632272
1046,22,Ticks_Phase_8,314,1,48,40,1257809672
1046,22,Ticks_Phase_8,315,5,42,127,1258431908
1046,22,Ticks_Phase_8,316,1,48,31,1258554948
1046,22,Ticks_Phase_8,317,5,42,127,1259231544
1046,22,Ticks_Phase_8,318,1,48,43,1259237732
1046,22,Ticks_Phase_8,319,1,48,41,1260007400
1046,22,Ticks_Phase_8,320,5,42,127,1260032520
1046,22,Ticks_Phase_8,321,5,42,127,1260832264
1046,22,Ticks_Phase_8,322,1,48,31,1260990404
1046,22,Ticks_Phase_8,323,5,42,127,1261631824
1046,22,Ticks_Phase_8,324,1,48,38,1261855436
1046,22,Ticks_Phase_8,325,5,42,127,1262431688
1046,22,Ticks_Phase_8,326,1,48,33,1262673720
1046,22,Ticks_Phase_8,327,5,42,127,1263232520
1046,22,Ticks_Phase_8,328,1,48,35,1263450300
1046,22,Ticks_Phase_8,329,5,42,127,1264032308
1046,22,Ticks_Phase_8,330,1,48,35,1264195484
1046,22,Ticks_Phase_8,331,5,42,127,1264831872
1046,22,Ticks_Phase_8,332,1,48,31,1265003812
1046,22,Ticks_Phase_8,333,5,42,127,1265631580
1046,22,Ticks_Phase_8,334,1,48,31,1265787196
1046,22,Ticks_Phase_8,335,5,42,127,1266432416
1046,22,Ticks_Phase_8,336,1,48,39,1266543628
1046,22,Ticks_Phase_8,337,5,42,127,1267232376
1046,22,Ticks_Phase_8,338,1,48,34,1267373292
1046,22,Ticks_Phase_8,339,5,42,127,1268031936
1046,22,Ticks_Phase_8,0,9999,9999,9999,1132829756
1046,22,Ticks_Phase_8,1,9999,9999,9999,1133629540
1046,22,Ticks_Phase_8,2,9999,9999,9999,1134429252
1046,22,Ticks_Phase_8,3,9999,9999,9999,1135230008
1046,22,Ticks_Phase_8,4,9999,9999,9999,1136029792
1046,22,Ticks_Phase_8,5,9999,9999,9999,1136829508
1046,22,Ticks_Phase_8,6,9999,9999,9999,1137629292
1046,22,Ticks_Phase_8,7,9999,9999,9999,1138430064
1046,22,Ticks_Phase_8,8,9999,9999,9999,1139229804
1046,22,Ticks_Phase_8,9,9999,9999,9999,1140029512
1046,22,Ticks_Phase_8,10,9999,9999,9999,1140829304
1046,22,Ticks_Phase_8,11,9999,9999,9999,1141630064
1046,22,Ticks_Phase_8,12,9999,9999,9999,1142429776
1046,22,Ticks_Phase_8,13,9999,9999,9999,1143229560
1046,22,Ticks_Phase_8,14,9999,9999,9999,1144029268
1046,22,Ticks_Phase_8,15,9999,9999,9999,1144830028
1046,22,Ticks_Phase_8,16,9999,9999,9999,1145629764
1046,22,Ticks_Phase_8,17,9999,9999,9999,1146429560
1046,22,Ticks_Phase_8,18,9999,9999,9999,1147229268
1046,22,Ticks_Phase_8,19,9999,9999,9999,1148030032
1046,22,Ticks_Phase_8,20,9999,9999,9999,1148829816
1046,22,Ticks_Phase_8,21,9999,9999,9999,1149629528
1046,22,Ticks_Phase_8,22,9999,9999,9999,1150429240
1046,22,Ticks_Phase_8,23,9999,9999,9999,1151230072
1046,22,Ticks_Phase_8,24,9999,9999,9999,1152029804
1046,22,Ticks_Phase_8,25,9999,9999,9999,1152829520
1046,22,Ticks_Phase_8,26,9999,9999,9999,1153629308
1046,22,Ticks_Phase_8,27,9999,9999,9999,1154430068
1046,22,Ticks_Phase_8,28,9999,9999,9999,1155229776
1046,22,Ticks_Phase_8,29,9999,9999,9999,1156029564
1046,22,Ticks_Phase_8,30,9999,9999,9999,1156809808
1046,22,Ticks_Phase_8,31,9999,9999,9999,1157609592
1046,22,Ticks_Phase_8,32,9999,9999,9999,1158409300
1046,22,Ticks_Phase_8,33,9999,9999,9999,1159210056
1046,22,Ticks_Phase_8,34,9999,9999,9999,1160009840
1046,22,Ticks_Phase_8,35,9999,9999,9999,1160809552
1046,22,Ticks_Phase_8,36,9999,9999,9999,1161609340
1046,22,Ticks_Phase_8,37,9999,9999,9999,1162410100
1046,22,Ticks_Phase_8,38,9999,9999,9999,1163209816
1046,22,Ticks_Phase_8,39,9999,9999,9999,1164009528
1046,22,Ticks_Phase_8,40,9999,9999,9999,1164809316
1046,22,Ticks_Phase_8,41,9999,9999,9999,1165610068
1046,22,Ticks_Phase_8,42,9999,9999,9999,1166409852
1046,22,Ticks_Phase_8,43,9999,9999,9999,1167209564
1046,22,Ticks_Phase_8,44,9999,9999,9999,1168009276
1046,22,Ticks_Phase_8,45,9999,9999,9999,1168810108
1046,22,Ticks_Phase_8,46,9999,9999,9999,1169609804
1046,22,Ticks_Phase_8,47,9999,9999,9999,1170409532
1046,22,Ticks_Phase_8,48,9999,9999,9999,1171229772
1046,22,Ticks_Phase_8,49,9999,9999,9999,1172029560
1046,22,Ticks_Phase_8,50,9999,9999,9999,1172829268
1046,22,Ticks_Phase_8,51,9999,9999,9999,1173630028
1046,22,Ticks_Phase_8,52,9999,9999,9999,1174429812
1046,22,Ticks_Phase_8,53,9999,9999,9999,1175229528
1046,22,Ticks_Phase_8,54,9999,9999,9999,1176029236
1046,22,Ticks_Phase_8,55,9999,9999,9999,1176830072
1046,22,Ticks_Phase_8,56,9999,9999,9999,1177629808
1046,22,Ticks_Phase_8,57,9999,9999,9999,1178429536
1046,22,Ticks_Phase_8,58,9999,9999,9999,1179229304
1046,22,Ticks_Phase_8,59,9999,9999,9999,1180030076
1046,22,Ticks_Phase_8,60,9999,9999,9999,1180829792
1046,22,Ticks_Phase_8,61,9999,9999,9999,1181629500
1046,22,Ticks_Phase_8,62,9999,9999,9999,1182429292
1046,22,Ticks_Phase_8,63,9999,9999,9999,1183230048
1046,22,Ticks_Phase_8,64,9999,9999,9999,1184069700
1046,22,Ticks_Phase_8,65,9999,9999,9999,1184869488
1046,22,Ticks_Phase_8,66,9999,9999,9999,1185669184
1046,22,Ticks_Phase_8,67,9999,9999,9999,1186469944
1046,22,Ticks_Phase_8,68,9999,9999,9999,1187269732
1046,22,Ticks_Phase_8,69,9999,9999,9999,1188069460
1046,22,Ticks_Phase_8,70,9999,9999,9999,1188869172
1046,22,Ticks_Phase_8,71,9999,9999,9999,1189669956
1046,22,Ticks_Phase_8,72,9999,9999,9999,1190469740
1046,22,Ticks_Phase_8,73,9999,9999,9999,1191269460
1046,22,Ticks_Phase_8,74,9999,9999,9999,1192069248
1046,22,Ticks_Phase_8,75,9999,9999,9999,1192870004
1046,22,Ticks_Phase_8,76,9999,9999,9999,1193669708
1046,22,Ticks_Phase_8,77,9999,9999,9999,1194469496
1046,22,Ticks_Phase_8,78,9999,9999,9999,1195269208
1046,22,Ticks_Phase_8,79,9999,9999,9999,1196069992
1046,22,Ticks_Phase_8,80,9999,9999,9999,1196869704
1046,22,Ticks_Phase_8,81,9999,9999,9999,1197629500
1046,22,Ticks_Phase_8,82,9999,9999,9999,1198429292
1046,22,Ticks_Phase_8,83,9999,9999,9999,1199230044
1046,22,Ticks_Phase_8,84,9999,9999,9999,1200029816
1046,22,Ticks_Phase_8,85,9999,9999,9999,1200829528
1046,22,Ticks_Phase_8,86,9999,9999,9999,1201629236
1046,22,Ticks_Phase_8,87,9999,9999,9999,1202430072
1046,22,Ticks_Phase_8,88,9999,9999,9999,1203229808
1046,22,Ticks_Phase_8,89,9999,9999,9999,1204029520
1046,22,Ticks_Phase_8,90,9999,9999,9999,1204829308
1046,22,Ticks_Phase_8,91,9999,9999,9999,1205630064
1046,22,Ticks_Phase_8,92,9999,9999,9999,1206429776
1046,22,Ticks_Phase_8,93,9999,9999,9999,1207229564
1046,22,Ticks_Phase_8,94,9999,9999,9999,1208029276
1046,22,Ticks_Phase_8,95,9999,9999,9999,1208830032
1046,22,Ticks_Phase_8,96,9999,9999,9999,1209629768
1046,22,Ticks_Phase_8,97,9999,9999,9999,1210349628
1046,22,Ticks_Phase_8,98,9999,9999,9999,1211149380
1046,22,Ticks_Phase_8,99,9999,9999,9999,1211949164
1046,22,Ticks_Phase_8,100,9999,9999,9999,1212749908
1046,22,Ticks_Phase_8,101,9999,9999,9999,1213549632
1046,22,Ticks_Phase_8,102,9999,9999,9999,1214349420
1046,22,Ticks_Phase_8,103,9999,9999,9999,1215149132
1046,22,Ticks_Phase_8,104,9999,9999,9999,1215949892
1046,22,Ticks_Phase_8,105,9999,9999,9999,1216749664
1046,22,Ticks_Phase_8,106,9999,9999,9999,1217549400
1046,22,Ticks_Phase_8,107,9999,9999,9999,1218349112
1046,22,Ticks_Phase_8,108,9999,9999,9999,1219149944
1046,22,Ticks_Phase_8,109,9999,9999,9999,1219949660
1046,22,Ticks_Phase_8,110,9999,9999,9999,1220749372
1046,22,Ticks_Phase_8,111,9999,9999,9999,1221549160
1046,22,Ticks_Phase_8,112,9999,9999,9999,1222349916
1046,22,Ticks_Phase_8,113,9999,9999,9999,1223149628
1046,22,Ticks_Phase_8,114,9999,9999,9999,1224029272
1046,22,Ticks_Phase_8,115,9999,9999,9999,1224830032
1046,22,Ticks_Phase_8,116,9999,9999,9999,1225629816
1046,22,Ticks_Phase_8,117,9999,9999,9999,1226429532
1046,22,Ticks_Phase_8,118,9999,9999,9999,1227229248
1046,22,Ticks_Phase_8,119,9999,9999,9999,1228030076
1046,22,Ticks_Phase_8,120,9999,9999,9999,1228829816
1046,22,Ticks_Phase_8,121,9999,9999,9999,1229629528
1046,22,Ticks_Phase_8,122,9999,9999,9999,1230429240
1046,22,Ticks_Phase_8,123,9999,9999,9999,1231230072
1046,22,Ticks_Phase_8,124,9999,9999,9999,1232029784
1046,22,Ticks_Phase_8,125,9999,9999,9999,1232829500
1046,22,Ticks_Phase_8,126,9999,9999,9999,1233629284
1046,22,Ticks_Phase_8,127,9999,9999,9999,1234430040
1046,22,Ticks_Phase_8,128,9999,9999,9999,1235229780
1046,22,Ticks_Phase_8,129,9999,9999,9999,1236029564
1046,22,Ticks_Phase_8,130,9999,9999,9999,1236829276
1046,22,Ticks_Phase_8,131,9999,9999,9999,1237789788
1046,22,Ticks_Phase_8,132,9999,9999,9999,1238589508
1046,22,Ticks_Phase_8,133,9999,9999,9999,1239389296
1046,22,Ticks_Phase_8,134,9999,9999,9999,1240190048
1046,22,Ticks_Phase_8,135,9999,9999,9999,1240989760
1046,22,Ticks_Phase_8,136,9999,9999,9999,1241789548
1046,22,Ticks_Phase_8,137,9999,9999,9999,1242589256
1046,22,Ticks_Phase_8,138,9999,9999,9999,1243390076
1046,22,Ticks_Phase_8,139,9999,9999,9999,1244189812
1046,22,Ticks_Phase_8,140,9999,9999,9999,1244989524
1046,22,Ticks_Phase_8,141,9999,9999,9999,1245789240
1046,22,Ticks_Phase_8,142,9999,9999,9999,1246590020
1046,22,Ticks_Phase_8,143,9999,9999,9999,1247389796
1046,22,Ticks_Phase_8,144,9999,9999,9999,1248189496
1046,22,Ticks_Phase_8,145,9999,9999,9999,1248989280
1046,22,Ticks_Phase_8,146,9999,9999,9999,1249790040
1046,22,Ticks_Phase_8,147,9999,9999,9999,1250589772
1046,22,Ticks_Phase_8,148,9999,9999,9999,1251389560
1046,22,Ticks_Phase_8,149,9999,9999,9999,1252189272
1046,22,Ticks_Phase_8,150,9999,9999,9999,1252829296
1046,22,Ticks_Phase_8,151,9999,9999,9999,1253630056
1046,22,Ticks_Phase_8,152,9999,9999,9999,1254429792
1046,22,Ticks_Phase_8,153,9999,9999,9999,1255229504
1046,22,Ticks_Phase_8,154,9999,9999,9999,1256029292
1046,22,Ticks_Phase_8,155,9999,9999,9999,1256830048
1046,22,Ticks_Phase_8,156,9999,9999,9999,1257629760
1046,22,Ticks_Phase_8,157,9999,9999,9999,1258429548
1046,22,Ticks_Phase_8,158,9999,9999,9999,1259229260
1046,22,Ticks_Phase_8,159,9999,9999,9999,1260030008
1046,22,Ticks_Phase_8,160,9999,9999,9999,1260829752
1046,22,Ticks_Phase_8,161,9999,9999,9999,1261629540
1046,22,Ticks_Phase_8,162,9999,9999,9999,1262429252
1046,22,Ticks_Phase_8,163,9999,9999,9999,1263230008
1046,22,Ticks_Phase_8,164,9999,9999,9999,1264029796
1046,22,Ticks_Phase_8,165,9999,9999,9999,1264829508
1046,22,Ticks_Phase_8,166,9999,9999,9999,1265629296
1046,22,Ticks_Phase_8,167,9999,9999,9999,1266430052
1046,22,Ticks_Phase_8,168,9999,9999,9999,1267229792
1046,22,Ticks_Phase_8,169,9999,9999,9999,1268029500
1047,21,Ticks_Linear_5,0,5,42,127,1314253268
1047,21,Ticks_Linear_5,1,5,42,127,1314733520
1047,21,Ticks_Linear_5,2,5,42,127,1315222832
1047,21,Ticks_Linear_5,3,5,42,127,1315703228
1047,21,Ticks_Linear_5,4,1,48,47,1316154752
1047,21,Ticks_Linear_5,5,5,42,127,1316183548
1047,21,Ticks_Linear_5,6,1,48,44,1316624792
1047,21,Ticks_Linear_5,7,5,42,127,1316672988
1047,21,Ticks_Linear_5,8,1,48,51,1317119744
1047,21,Ticks_Linear_5,9,5,42,127,1317163472
1047,21,Ticks_Linear_5,10,1,48,50,1317625288
1047,21,Ticks_Linear_5,11,5,42,127,1317652836
1047,21,Ticks_Linear_5,12,1,48,51,1318126184
1047,21,Ticks_Linear_5,13,5,42,127,1318143300
1047,21,Ticks_Linear_5,14,1,48,49,1318604168
1047,21,Ticks_Linear_5,15,5,42,127,1318632892
1047,21,Ticks_Linear_5,16,1,48,49,1319125432
1047,21,Ticks_Linear_5,17,5,42,127,1319132736
1047,21,Ticks_Linear_5,18,5,42,127,1319633192
1047,21,Ticks_Linear_5,19,1,48,49,1319642608
1047,21,Ticks_Linear_5,20,1,48,50,1320108132
1047,21,Ticks_Linear_5,21,5,42,127,1320132960
1047,21,Ticks_Linear_5,22,1,48,48,1320619284
1047,21,Ticks_Linear_5,23,5,42,127,1320632732
1047,21,Ticks_Linear_5,24,5,42,127,1321133560
1047,21,Ticks_Linear_5,25,1,48,45,1321141104
1047,21,Ticks_Linear_5,26,1,48,46,1321642872
1047,21,Ticks_Linear_5,27,5,42,127,1321652872
1047,21,Ticks_Linear_5,28,1,48,45,1322153952
1047,21,Ticks_Linear_5,29,5,42,127,1322162536
1047,21,Ticks_Linear_5,30,5,42,127,1322672652
1047,21,Ticks_Linear_5,31,1,48,48,1322680644
1047,21,Ticks_Linear_5,32,5,42,127,1323182460
1047,21,Ticks_Linear_5,33,1,48,44,1323186776
1047,21,Ticks_Linear_5,34,1,48,42,1323680992
1047,21,Ticks_Linear_5,35,5,42,127,1323693532
1047,21,Ticks_Linear_5,36,1,48,49,1324175520
1047,21,Ticks_Linear_5,37,5,42,127,1324222816
1047,21,Ticks_Linear_5,38,1,48,50,1324705768
1047,21,Ticks_Linear_5,39,5,42,127,1324742960
1047,21,Ticks_Linear_5,40,1,48,43,1325257968
1047,21,Ticks_Linear_5,41,5,42,127,1325263176
1047,21,Ticks_Linear_5,42,5,42,127,1325783404
1047,21,Ticks_Linear_5,43,1,48,45,1325809060
1047,21,Ticks_Linear_5,44,5,42,127,1326302724
1047,21,Ticks_Linear_5,45,1,48,48,1326314532
1047,21,Ticks_Linear_5,46,1,48,45,1326825436
1047,21,Ticks_Linear_5,47,5,42,127,1326832968
1047,21,Ticks_Linear_5,48,1,48,47,1327343936
1047,21,Ticks_Linear_5,49,5,42,127,1327362620
1047,21,Ticks_Linear_5,50,1,48,41,1327886644
1047,21,Ticks_Linear_5,51,5,42,127,1327892900
1047,21,Ticks_Linear_5,52,1,48,49,1328401776
1047,21,Ticks_Linear_5,53,5,42,127,1328423228
1047,21,Ticks_Linear_5,54,1,48,49,1328904088
1047,21,Ticks_Linear_5,55,5,42,127,1328952808
1047,21,Ticks_Linear_5,56,1,48,51,1329466772
1047,21,Ticks_Linear_5,57,5,42,127,1329493320
1047,21,Ticks_Linear_5,58,1,48,48,1329999564
1047,21,Ticks_Linear_5,59,5,42,127,1330033160
1047,21,Ticks_Linear_5,60,1,48,45,1330516788
1047,21,Ticks_Linear_5,61,5,42,127,1330572776
1047,21,Ticks_Linear_5,62,1,48,43,1331064120
1047,21,Ticks_Linear_5,63,5,42,127,1331113436
1047,21,Ticks_Linear_5,64,1,48,48,1331626124
1047,21,Ticks_Linear_5,65,5,42,127,1331653052
1047,21,Ticks_Linear_5,66,1,48,47,1332132996
1047,21,Ticks_Linear_5,67,5,42,127,1332202752
1047,21,Ticks_Linear_5,68,1,48,44,1332695520
1047,21,Ticks_Linear_5,69,5,42,127,1332752800
1047,21,Ticks_Linear_5,70,1,48,47,1333252808
1047,21,Ticks_Linear_5,71,5,42,127,1333302824
1047,21,Ticks_Linear_5,72,1,48,46,1333771860
1047,21,Ticks_Linear_5,73,5,42,127,1333852772
1047,21,Ticks_Linear_5,74,1,48,51,1334336556
1047,21,Ticks_Linear_5,75,5,42,127,1334402496
1047,21,Ticks_Linear_5,76,1,48,43,1334859168
1047,21,Ticks_Linear_5,77,5,42,127,1334962764
1047,21,Ticks_Linear_5,78,1,48,43,1335419976
1047,21,Ticks_Linear_5,79,5,42,127,1335522824
1047,21,Ticks_Linear_5,80,1,48,49,1336039116
1047,21,Ticks_Linear_5,81,5,42,127,1336082776
1047,21,Ticks_Linear_5,82,1,48,47,1336582660
1047,21,Ticks_Linear_5,83,5,42,127,1336642832
1047,21,Ticks_Linear_5,84,1,48,45,1337167352
1047,21,Ticks_Linear_5,85,5,42,127,1337203044
1047,21,Ticks_Linear_5,86,1,48,42,1337732956
1047,21,Ticks_Linear_5,87,5,42,127,1337773508
1047,21,Ticks_Linear_5,88,1,48,47,1338304772
1047,21,Ticks_Linear_5,89,5,42,127,1338353036
1047,21,Ticks_Linear_5,90,1,48,47,1338832332
1047,21,Ticks_Linear_5,91,5,42,127,1338923528
1047,21,Ticks_Linear_5,92,1,48,43,1339464980
1047,21,Ticks_Linear_5,93,5,42,127,1339492728
1047,21,Ticks_Linear_5,94,1,48,42,1340020608
1047,21,Ticks_Linear_5,95,5,42,127,1340063048
1047,21,Ticks_Linear_5,96,1,48,45,1340568240
1047,21,Ticks_Linear_5,97,5,42,127,1340642576
1047,21,Ticks_Linear_5,98,1,48,44,1341168668
1047,21,Ticks_Linear_5,99,5,42,127,1341223400
1047,21,Ticks_Linear_5,100,1,48,38,1341773312
1047,21,Ticks_Linear_5,101,5,42,127,1341802784
1047,21,Ticks_Linear_5,102,1,48,45,1342332696
1047,21,Ticks_Linear_5,103,5,42,127,1342382536
1047,21,Ticks_Linear_5,104,1,48,45,1342892680
1047,21,Ticks_Linear_5,105,5,42,127,1342963040
1047,21,Ticks_Linear_5,106,1,48,50,1343459996
1047,21,Ticks_Linear_5,107,5,42,127,1343552852
1047,21,Ticks_Linear_5,108,1,48,51,1344018280
1047,21,Ticks_Linear_5,109,5,42,127,1344142700
1047,21,Ticks_Linear_5,110,1,48,49,1344602984
1047,21,Ticks_Linear_5,111,5,42,127,1344732564
1047,21,Ticks_Linear_5,112,1,48,44,1345185880
1047,21,Ticks_Linear_5,113,5,42,127,1345323648
1047,21,Ticks_Linear_5,114,1,48,54,1345753656
1047,21,Ticks_Linear_5,115,5,42,127,1345913364
1047,21,Ticks_Linear_5,116,1,48,48,1346386076
1047,21,Ticks_Linear_5,117,5,42,127,1346513336
1047,21,Ticks_Linear_5,118,1,48,52,1346932284
1047,21,Ticks_Linear_5,119,5,42,127,1347113484
1047,21,Ticks_Linear_5,120,1,48,46,1347607388
1047,21,Ticks_Linear_5,121,5,42,127,1347713680
1047,21,Ticks_Linear_5,122,1,48,53,1348220540
1047,21,Ticks_Linear_5,123,5,42,127,1348312700
1047,21,Ticks_Linear_5,124,1,48,47,1348829652
1047,21,Ticks_Linear_5,125,5,42,127,1348912476
1047,21,Ticks_Linear_5,126,1,48,47,1349458112
1047,21,Ticks_Linear_5,127,5,42,127,1349522784
1047,21,Ticks_Linear_5,128,1,48,54,1350032480
1047,21,Ticks_Linear_5,129,5,42,127,1350133076
1047,21,Ticks_Linear_5,130,1,48,43,1350680024
1047,21,Ticks_Linear_5,131,5,42,127,1350743424
1047,21,Ticks_Linear_5,132,1,48,44,1351291392
1047,21,Ticks_Linear_5,133,5,42,127,1351352684
1047,21,Ticks_Linear_5,134,1,48,49,1351913976
1047,21,Ticks_Linear_5,135,5,42,127,1351963016
1047,21,Ticks_Linear_5,136,1,48,39,1352518164
1047,21,Ticks_Linear_5,137,5,42,127,1352582388
1047,21,Ticks_Linear_5,138,1,48,49,1353117540
1047,21,Ticks_Linear_5,139,5,42,127,1353202956
1047,21,Ticks_Linear_5,140,1,48,52,1353688904
1047,21,Ticks_Linear_5,141,5,42,127,1353822560
1047,21,Ticks_Linear_5,142,1,48,43,1354350532
1047,21,Ticks_Linear_5,143,5,42,127,1354443068
1047,21,Ticks_Linear_5,144,1,48,47,1354977620
1047,21,Ticks_Linear_5,145,5,42,127,1355062612
1047,21,Ticks_Linear_5,146,1,48,43,1355641056
1047,21,Ticks_Linear_5,147,5,42,127,1355693512
1047,21,Ticks_Linear_5,148,1,48,44,1356243276
1047,21,Ticks_Linear_5,149,5,42,127,1356333576
1047,21,Ticks_Linear_5,150,1,48,40,1356879884
1047,21,Ticks_Linear_5,151,5,42,127,1356973684
1047,21,Ticks_Linear_5,152,1,48,39,1357477988
1047,21,Ticks_Linear_5,153,5,42,127,1357613584
1047,21,Ticks_Linear_5,154,1,48,45,1358118948
1047,21,Ticks_Linear_5,155,5,42,127,1358253552
1047,21,Ticks_Linear_5,156,1,48,43,1358777416
1047,21,Ticks_Linear_5,157,5,42,127,1358893536
1047,21,Ticks_Linear_5,158,1,48,38,1359423020
1047,21,Ticks_Linear_5,159,5,42,127,1359533652
1047,21,Ticks_Linear_5,160,1,48,46,1360050248
1047,21,Ticks_Linear_5,161,5,42,127,1360173564
1047,21,Ticks_Linear_5,162,1,48,47,1360727084
1047,21,Ticks_Linear_5,163,5,42,127,1360813468
1047,21,Ticks_Linear_5,164,1,48,50,1361348096
1047,21,Ticks_Linear_5,165,5,42,127,1361453516
1047,21,Ticks_Linear_5,166,1,48,48,1361998044
1047,21,Ticks_Linear_5,167,5,42,127,1362112800
1047,21,Ticks_Linear_5,168,1,48,37,1362653888
1047,21,Ticks_Linear_5,169,5,42,127,1362763124
1047,21,Ticks_Linear_5,170,1,48,39,1363318888
1047,21,Ticks_Linear_5,171,5,42,127,1363413660
1047,21,Ticks_Linear_5,172,1,48,47,1363968136
1047,21,Ticks_Linear_5,173,5,42,127,1364062696
1047,21,Ticks_Linear_5,174,1,48,35,1364645716
1047,21,Ticks_Linear_5,175,5,42,127,1364712860
1047,21,Ticks_Linear_5,176,1,48,45,1365275900
1047,21,Ticks_Linear_5,177,5,42,127,1365373872
1047,21,Ticks_Linear_5,178,1,48,41,1365947312
1047,21,Ticks_Linear_5,179,5,42,127,1366032752
1047,21,Ticks_Linear_5,180,1,48,38,1366618452
1047,21,Ticks_Linear_5,181,5,42,127,1366693236
1047,21,Ticks_Linear_5,182,1,48,45,1367283736
1047,21,Ticks_Linear_5,183,5,42,127,1367352620
1047,21,Ticks_Linear_5,184,1,48,42,1367976956
1047,21,Ticks_Linear_5,185,5,42,127,1368013396
1047,21,Ticks_Linear_5,186,1,48,45,1368596344
1047,21,Ticks_Linear_5,187,5,42,127,1368682736
1047,21,Ticks_Linear_5,188,1,48,43,1369234520
1047,21,Ticks_Linear_5,189,5,42,127,1369352516
1047,21,Ticks_Linear_5,190,1,48,43,1369903492
1047,21,Ticks_Linear_5,191,5,42,127,1370023332
1047,21,Ticks_Linear_5,192,1,48,46,1370535512
1047,21,Ticks_Linear_5,193,5,42,127,1370693052
1047,21,Ticks_Linear_5,194,1,48,36,1371228668
1047,21,Ticks_Linear_5,195,5,42,127,1371362600
1047,21,Ticks_Linear_5,196,1,48,46,1371867808
1047,21,Ticks_Linear_5,197,5,42,127,1372042724
1047,21,Ticks_Linear_5,198,1,48,46,1372520076
1047,21,Ticks_Linear_5,199,5,42,127,1372722556
1047,21,Ticks_Linear_5,200,1,48,45,1373241556
1047,21,Ticks_Linear_5,201,5,42,127,1373402432
1047,21,Ticks_Linear_5,202,1,48,36,1373972152
1047,21,Ticks_Linear_5,203,5,42,127,1374082336
1047,21,Ticks_Linear_5,204,1,48,48,1374632040
1047,21,Ticks_Linear_5,205,5,42,127,1374763584
1047,21,Ticks_Linear_5,206,1,48,46,1375342868
1047,21,Ticks_Linear_5,207,5,42,127,1375452452
1047,21,Ticks_Linear_5,208,1,48,32,1376045384
1047,21,Ticks_Linear_5,209,5,42,127,1376142616
1047,21,Ticks_Linear_5,210,1,48,39,1376724140
1047,21,Ticks_Linear_5,211,5,42,127,1376832924
1047,21,Ticks_Linear_5,212,1,48,45,1377435488
1047,21,Ticks_Linear_5,213,5,42,127,1377522928
1047,21,Ticks_Linear_5,214,1,48,43,1378155084
1047,21,Ticks_Linear_5,215,5,42,127,1378213240
1047,21,Ticks_Linear_5,216,1,48,36,1378806284
1047,21,Ticks_Linear_5,217,5,42,127,1378912752
1047,21,Ticks_Linear_5,218,1,48,45,1379445824
1047,21,Ticks_Linear_5,219,5,42,127,1379613096
1047,21,Ticks_Linear_5,220,1,48,25,1380112100
1047,21,Ticks_Linear_5,221,5,42,127,1380312300
1047,21,Ticks_Linear_5,222,1,48,43,1380781572
1047,21,Ticks_Linear_5,223,5,42,127,1381012720
1047,21,Ticks_Linear_5,224,1,48,42,1381500256
1047,21,Ticks_Linear_5,225,5,42,127,1381713368
1047,21,Ticks_Linear_5,226,1,48,40,1382255800
1047,21,Ticks_Linear_5,227,5,42,127,1382422852
1047,21,Ticks_Linear_5,228,1,48,44,1382945660
1047,21,Ticks_Linear_5,229,5,42,127,1383132460
1047,21,Ticks_Linear_5,230,1,48,43,1383631916
1047,21,Ticks_Linear_5,231,5,42,127,1383843364
1047,21,Ticks_Linear_5,232,1,48,43,1384359360
1047,21,Ticks_Linear_5,233,5,42,127,1384552700
1047,21,Ticks_Linear_5,234,1,48,38,1385089812
1047,21,Ticks_Linear_5,235,5,42,127,1385262412
1047,21,Ticks_Linear_5,236,1,48,45,1385807760
1047,21,Ticks_Linear_5,237,5,42,127,1385983328
1047,21,Ticks_Linear_5,238,1,48,41,1386505640
1047,21,Ticks_Linear_5,239,5,42,127,1386703368
1047,21,Ticks_Linear_5,240,1,48,45,1387176752
1047,21,Ticks_Linear_5,241,5,42,127,1387423188
1047,21,Ticks_Linear_5,242,1,48,42,1387878372
1047,21,Ticks_Linear_5,243,5,42,127,1388143376
1047,21,Ticks_Linear_5,244,1,48,50,1388568836
1047,21,Ticks_Linear_5,245,5,42,127,1388862900
1047,21,Ticks_Linear_5,246,1,48,40,1389219208
1047,21,Ticks_Linear_5,247,5,42,127,1389592976
1047,21,Ticks_Linear_5,248,1,48,24,1389993328
1047,21,Ticks_Linear_5,249,5,42,127,1390323104
1047,21,Ticks_Linear_5,250,1,48,51,1390772460
1047,21,Ticks_Linear_5,251,5,42,127,1391053180
1047,21,Ticks_Linear_5,252,1,48,43,1391516684
1047,21,Ticks_Linear_5,253,5,42,127,1391783408
1047,21,Ticks_Linear_5,254,1,48,47,1392209240
1047,21,Ticks_Linear_5,255,5,42,127,1392513412
1047,21,Ticks_Linear_5,256,1,48,46,1392921952
1047,21,Ticks_Linear_5,257,5,42,127,1393252704
1047,21,Ticks_Linear_5,258,1,48,51,1393656044
1047,21,Ticks_Linear_5,259,5,42,127,1393993188
1047,21,Ticks_Linear_5,260,1,48,48,1394351752
1047,21,Ticks_Linear_5,261,5,42,127,1394733524
1047,21,Ticks_Linear_5,262,1,48,47,1395099196
1047,21,Ticks_Linear_5,263,5,42,127,1395483372
1047,21,Ticks_Linear_5,264,1,48,46,1395824412
1047,21,Ticks_Linear_5,265,5,42,127,1396223464
1047,21,Ticks_Linear_5,266,1,48,45,1396569908
1047,21,Ticks_Linear_5,267,5,42,127,1396972864
1047,21,Ticks_Linear_5,268,1,48,46,1397350236
1047,21,Ticks_Linear_5,269,5,42,127,1397722412
1047,21,Ticks_Linear_5,270,1,48,51,1398089828
1047,21,Ticks_Linear_5,271,5,42,127,1398473380
1047,21,Ticks_Linear_5,272,1,48,43,1398817140
1047,21,Ticks_Linear_5,273,5,42,127,1399222780
1047,21,Ticks_Linear_5,274,1,48,52,1399547712
1047,21,Ticks_Linear_5,275,5,42,127,1399973304
1047,21,Ticks_Linear_5,276,1,48,51,1400363272
1047,21,Ticks_Linear_5,277,5,42,127,1400733336
1047,21,Ticks_Linear_5,278,1,48,55,1401112444
1047,21,Ticks_Linear_5,279,5,42,127,1401493144
1047,21,Ticks_Linear_5,280,1,48,51,1401895612
1047,21,Ticks_Linear_5,281,5,42,127,1402252656
1047,21,Ticks_Linear_5,282,1,48,48,1402621628
1047,21,Ticks_Linear_5,283,5,42,127,1403012464
1047,21,Ticks_Linear_5,284,1,48,49,1403366608
1047,21,Ticks_Linear_5,285,5,42,127,1403773320
1047,21,Ticks_Linear_5,286,1,48,55,1404110084
1047,21,Ticks_Linear_5,287,5,42,127,1404543312
1047,21,Ticks_Linear_5,288,1,48,55,1404876484
1047,21,Ticks_Linear_5,289,5,42,127,1405313308
1047,21,Ticks_Linear_5,290,1,48,57,1405632176
1047,21,Ticks_Linear_5,291,5,42,127,1406082328
1047,21,Ticks_Linear_5,292,1,48,51,1406383968
1047,21,Ticks_Linear_5,293,5,42,127,1406852540
1047,21,Ticks_Linear_5,294,1,48,50,1407204588
1047,21,Ticks_Linear_5,295,5,42,127,1407622460
1047,21,Ticks_Linear_5,296,1,48,54,1408047088
1047,21,Ticks_Linear_5,297,5,42,127,1408402936
1047,21,Ticks_Linear_5,298,1,48,56,1409092176
1047,21,Ticks_Linear_5,299,5,42,127,1409183204
1047,21,Ticks_Linear_5,300,5,42,127,1409963240
1047,21,Ticks_Linear_5,301,1,48,51,1410029712
1047,21,Ticks_Linear_5,302,5,42,127,1410742520
1047,21,Ticks_Linear_5,303,1,48,53,1410869220
1047,21,Ticks_Linear_5,304,5,42,127,1411523072
1047,21,Ticks_Linear_5,305,1,48,54,1411652180
1047,21,Ticks_Linear_5,306,5,42,127,1412312536
1047,21,Ticks_Linear_5,307,1,48,54,1412372296
1047,21,Ticks_Linear_5,308,1,48,50,1413094236
1047,21,Ticks_Linear_5,309,5,42,127,1413103040
1047,21,Ticks_Linear_5,310,5,42,127,1413892612
1047,21,Ticks_Linear_5,311,1,48,48,1413899168
1047,21,Ticks_Linear_5,312,1,48,51,1414664208
1047,21,Ticks_Linear_5,313,5,42,127,1414683188
1047,21,Ticks_Linear_5,314,1,48,51,1415401372
1047,21,Ticks_Linear_5,315,5,42,127,1415472580
1047,21,Ticks_Linear_5,316,1,48,52,1416202324
1047,21,Ticks_Linear_5,317,5,42,127,1416273128
1047,21,Ticks_Linear_5,318,1,48,51,1416972236
1047,21,Ticks_Linear_5,319,5,42,127,1417073208
1047,21,Ticks_Linear_5,320,1,48,48,1417789556
1047,21,Ticks_Linear_5,321,5,42,127,1417873096
1047,21,Ticks_Linear_5,322,1,48,46,1418583516
1047,21,Ticks_Linear_5,323,5,42,127,1418672448
1047,21,Ticks_Linear_5,324,1,48,49,1419387800
1047,21,Ticks_Linear_5,325,5,42,127,1419473144
1047,21,Ticks_Linear_5,326,1,48,45,1420218976
1047,21,Ticks_Linear_5,327,5,42,127,1420283124
1047,21,Ticks_Linear_5,328,1,48,47,1421004028
1047,21,Ticks_Linear_5,329,5,42,127,1421093132
1047,21,Ticks_Linear_5,330,1,48,44,1421737396
1047,21,Ticks_Linear_5,331,5,42,127,1421903176
1047,21,Ticks_Linear_5,332,1,48,48,1422543940
1047,21,Ticks_Linear_5,333,5,42,127,1422713156
1047,21,Ticks_Linear_5,334,1,48,43,1423322472
1047,21,Ticks_Linear_5,335,5,42,127,1423523140
1047,21,Ticks_Linear_5,0,9999,9999,9999,1314250820
1047,21,Ticks_Linear_5,1,9999,9999,9999,1314731072
1047,21,Ticks_Linear_5,2,9999,9999,9999,1315220608
1047,21,Ticks_Linear_5,3,9999,9999,9999,1315700856
1047,21,Ticks_Linear_5,4,9999,9999,9999,1316181100
1047,21,Ticks_Linear_5,5,9999,9999,9999,1316670540
1047,21,Ticks_Linear_5,6,9999,9999,9999,1317161028
1047,21,Ticks_Linear_5,7,9999,9999,9999,1317650540
1047,21,Ticks_Linear_5,8,9999,9999,9999,1318141004
1047,21,Ticks_Linear_5,9,9999,9999,9999,1318630516
1047,21,Ticks_Linear_5,10,9999,9999,9999,1319130216
1047,21,Ticks_Linear_5,11,9999,9999,9999,1319630968
1047,21,Ticks_Linear_5,12,9999,9999,9999,1320130664
1047,21,Ticks_Linear_5,13,9999,9999,9999,1320630360
1047,21,Ticks_Linear_5,14,9999,9999,9999,1321131116
1047,21,Ticks_Linear_5,15,9999,9999,9999,1321650276
1047,21,Ticks_Linear_5,16,9999,9999,9999,1322160236
1047,21,Ticks_Linear_5,17,9999,9999,9999,1322670204
1047,21,Ticks_Linear_5,18,9999,9999,9999,1323180088
1047,21,Ticks_Linear_5,19,9999,9999,9999,1323691088
1047,21,Ticks_Linear_5,20,9999,9999,9999,1324220520
1047,21,Ticks_Linear_5,21,9999,9999,9999,1324740736
1047,21,Ticks_Linear_5,22,9999,9999,9999,1325260880
1047,21,Ticks_Linear_5,23,9999,9999,9999,1325781104
1047,21,Ticks_Linear_5,24,9999,9999,9999,1326300276
1047,21,Ticks_Linear_5,25,9999,9999,9999,1326830672
1047,21,Ticks_Linear_5,26,9999,9999,9999,1327360100
1047,21,Ticks_Linear_5,27,9999,9999,9999,1327890528
1047,21,Ticks_Linear_5,28,9999,9999,9999,1328420932
1047,21,Ticks_Linear_5,29,9999,9999,9999,1328950364
1047,21,Ticks_Linear_5,30,9999,9999,9999,1329491024
1047,21,Ticks_Linear_5,31,9999,9999,9999,1330030712
1047,21,Ticks_Linear_5,32,9999,9999,9999,1330570328
1047,21,Ticks_Linear_5,33,9999,9999,9999,1331110988
1047,21,Ticks_Linear_5,34,9999,9999,9999,1331650676
1047,21,Ticks_Linear_5,35,9999,9999,9999,1332200528
1047,21,Ticks_Linear_5,36,9999,9999,9999,1332750428
1047,21,Ticks_Linear_5,37,9999,9999,9999,1333300300
1047,21,Ticks_Linear_5,38,9999,9999,9999,1333850176
1047,21,Ticks_Linear_5,39,9999,9999,9999,1334400124
1047,21,Ticks_Linear_5,40,9999,9999,9999,1334960244
1047,21,Ticks_Linear_5,41,9999,9999,9999,1335520376
1047,21,Ticks_Linear_5,42,9999,9999,9999,1336080476
1047,21,Ticks_Linear_5,43,9999,9999,9999,1336640608
1047,21,Ticks_Linear_5,44,9999,9999,9999,1337200744
1047,21,Ticks_Linear_5,45,9999,9999,9999,1337771064
1047,21,Ticks_Linear_5,46,9999,9999,9999,1338350664
1047,21,Ticks_Linear_5,47,9999,9999,9999,1338921080
1047,21,Ticks_Linear_5,48,9999,9999,9999,1339490428
1047,21,Ticks_Linear_5,49,9999,9999,9999,1340060748
1047,21,Ticks_Linear_5,50,9999,9999,9999,1340640352
1047,21,Ticks_Linear_5,51,9999,9999,9999,1341220956
1047,21,Ticks_Linear_5,52,9999,9999,9999,1341800560
1047,21,Ticks_Linear_5,53,9999,9999,9999,1342380088
1047,21,Ticks_Linear_5,54,9999,9999,9999,1342960740
1047,21,Ticks_Linear_5,55,9999,9999,9999,1343550556
1047,21,Ticks_Linear_5,56,9999,9999,9999,1344140404
1047,21,Ticks_Linear_5,57,9999,9999,9999,1344730192
1047,21,Ticks_Linear_5,58,9999,9999,9999,1345321052
1047,21,Ticks_Linear_5,59,9999,9999,9999,1345910840
1047,21,Ticks_Linear_5,60,9999,9999,9999,1346510964
1047,21,Ticks_Linear_5,61,9999,9999,9999,1347111036
1047,21,Ticks_Linear_5,62,9999,9999,9999,1347711084
1047,21,Ticks_Linear_5,63,9999,9999,9999,1348310104
1047,21,Ticks_Linear_5,64,9999,9999,9999,1348910176
1047,21,Ticks_Linear_5,65,9999,9999,9999,1349520484
1047,21,Ticks_Linear_5,66,9999,9999,9999,1350130776
1047,21,Ticks_Linear_5,67,9999,9999,9999,1350741052
1047,21,Ticks_Linear_5,68,9999,9999,9999,1351350388
1047,21,Ticks_Linear_5,69,9999,9999,9999,1351960644
1047,21,Ticks_Linear_5,70,9999,9999,9999,1352580164
1047,21,Ticks_Linear_5,71,9999,9999,9999,1353200732
1047,21,Ticks_Linear_5,72,9999,9999,9999,1353820260
1047,21,Ticks_Linear_5,73,9999,9999,9999,1354440768
1047,21,Ticks_Linear_5,74,9999,9999,9999,1355060312
1047,21,Ticks_Linear_5,75,9999,9999,9999,1355691064
1047,21,Ticks_Linear_5,76,9999,9999,9999,1356331128
1047,21,Ticks_Linear_5,77,9999,9999,9999,1356971092
1047,21,Ticks_Linear_5,78,9999,9999,9999,1357611064
1047,21,Ticks_Linear_5,79,9999,9999,9999,1358251100
1047,21,Ticks_Linear_5,80,9999,9999,9999,1358891092
1047,21,Ticks_Linear_5,81,9999,9999,9999,1359531128
1047,21,Ticks_Linear_5,82,9999,9999,9999,1360171116
1047,21,Ticks_Linear_5,83,9999,9999,9999,1360811096
1047,21,Ticks_Linear_5,84,9999,9999,9999,1361451068
1047,21,Ticks_Linear_5,85,9999,9999,9999,1362110576
1047,21,Ticks_Linear_5,86,9999,9999,9999,1362760824
1047,21,Ticks_Linear_5,87,9999,9999,9999,1363411064
1047,21,Ticks_Linear_5,88,9999,9999,9999,1364060248
1047,21,Ticks_Linear_5,89,9999,9999,9999,1364710488
1047,21,Ticks_Linear_5,90,9999,9999,9999,1365370996
1047,21,Ticks_Linear_5,91,9999,9999,9999,1366030456
1047,21,Ticks_Linear_5,92,9999,9999,9999,1366690936
1047,21,Ticks_Linear_5,93,9999,9999,9999,1367350396
1047,21,Ticks_Linear_5,94,9999,9999,9999,1368010876
1047,21,Ticks_Linear_5,95,9999,9999,9999,1368680512
1047,21,Ticks_Linear_5,96,9999,9999,9999,1369350220
1047,21,Ticks_Linear_5,97,9999,9999,9999,1370020960
1047,21,Ticks_Linear_5,98,9999,9999,9999,1370690680
1047,21,Ticks_Linear_5,99,9999,9999,9999,1371360372
1047,21,Ticks_Linear_5,100,9999,9999,9999,1372040276
1047,21,Ticks_Linear_5,101,9999,9999,9999,1372720184
1047,21,Ticks_Linear_5,102,9999,9999,9999,1373400136
1047,21,Ticks_Linear_5,103,9999,9999,9999,1374080112
1047,21,Ticks_Linear_5,104,9999,9999,9999,1374761064
1047,21,Ticks_Linear_5,105,9999,9999,9999,1375450228
1047,21,Ticks_Linear_5,106,9999,9999,9999,1376140388
1047,21,Ticks_Linear_5,107,9999,9999,9999,1376830552
1047,21,Ticks_Linear_5,108,9999,9999,9999,1377520704
1047,21,Ticks_Linear_5,109,9999,9999,9999,1378210944
1047,21,Ticks_Linear_5,110,9999,9999,9999,1378910304
1047,21,Ticks_Linear_5,111,9999,9999,9999,1379610724
1047,21,Ticks_Linear_5,112,9999,9999,9999,1380310076
1047,21,Ticks_Linear_5,113,9999,9999,9999,1381010496
1047,21,Ticks_Linear_5,114,9999,9999,9999,1381710920
1047,21,Ticks_Linear_5,115,9999,9999,9999,1382420552
1047,21,Ticks_Linear_5,116,9999,9999,9999,1383130236
1047,21,Ticks_Linear_5,117,9999,9999,9999,1383840844
1047,21,Ticks_Linear_5,118,9999,9999,9999,1384550476
1047,21,Ticks_Linear_5,119,9999,9999,9999,1385260112
1047,21,Ticks_Linear_5,120,9999,9999,9999,1385981028
1047,21,Ticks_Linear_5,121,9999,9999,9999,1386700920
1047,21,Ticks_Linear_5,122,9999,9999,9999,1387420740
1047,21,Ticks_Linear_5,123,9999,9999,9999,1388140632
1047,21,Ticks_Linear_5,124,9999,9999,9999,1388860524
1047,21,Ticks_Linear_5,125,9999,9999,9999,1389590604
1047,21,Ticks_Linear_5,126,9999,9999,9999,1390320732
1047,21,Ticks_Linear_5,127,9999,9999,9999,1391050808
1047,21,Ticks_Linear_5,128,9999,9999,9999,1391780960
1047,21,Ticks_Linear_5,129,9999,9999,9999,1392511040
1047,21,Ticks_Linear_5,130,9999,9999,9999,1393250404
1047,21,Ticks_Linear_5,131,9999,9999,9999,1393990740
1047,21,Ticks_Linear_5,132,9999,9999,9999,1394731080
1047,21,Ticks_Linear_5,133,9999,9999,9999,1395480700
1047,21,Ticks_Linear_5,134,9999,9999,9999,1396221016
1047,21,Ticks_Linear_5,135,9999,9999,9999,1396970564
1047,21,Ticks_Linear_5,136,9999,9999,9999,1397720188
1047,21,Ticks_Linear_5,137,9999,9999,9999,1398470780
1047,21,Ticks_Linear_5,138,9999,9999,9999,1399220336
1047,21,Ticks_Linear_5,139,9999,9999,9999,1399970928
1047,21,Ticks_Linear_5,140,9999,9999,9999,1400730740
1047,21,Ticks_Linear_5,141,9999,9999,9999,1401490548
1047,21,Ticks_Linear_5,142,9999,9999,9999,1402250356
1047,21,Ticks_Linear_5,143,9999,9999,9999,1403010164
1047,21,Ticks_Linear_5,144,9999,9999,9999,1403770948
1047,21,Ticks_Linear_5,145,9999,9999,9999,1404541016
1047,21,Ticks_Linear_5,146,9999,9999,9999,1405311084
1047,21,Ticks_Linear_5,147,9999,9999,9999,1406080100
1047,21,Ticks_Linear_5,148,9999,9999,9999,1406850168
1047,21,Ticks_Linear_5,149,9999,9999,9999,1407620160
1047,21,Ticks_Linear_5,150,9999,9999,9999,1408400488
1047,21,Ticks_Linear_5,151,9999,9999,9999,1409180756
1047,21,Ticks_Linear_5,152,9999,9999,9999,1409961016
1047,21,Ticks_Linear_5,153,9999,9999,9999,1410740296
1047,21,Ticks_Linear_5,154,9999,9999,9999,1411520624
1047,21,Ticks_Linear_5,155,9999,9999,9999,1412310088
1047,21,Ticks_Linear_5,156,9999,9999,9999,1413100668
1047,21,Ticks_Linear_5,157,9999,9999,9999,1413890164
1047,21,Ticks_Linear_5,158,9999,9999,9999,1414680668
1047,21,Ticks_Linear_5,159,9999,9999,9999,1415470208
1047,21,Ticks_Linear_5,160,9999,9999,9999,1416270904
1047,21,Ticks_Linear_5,161,9999,9999,9999,1417070684
1047,21,Ticks_Linear_5,162,9999,9999,9999,1417870428
1047,21,Ticks_Linear_5,163,9999,9999,9999,1418670148
1047,21,Ticks_Linear_5,164,9999,9999,9999,1419470920
1047,21,Ticks_Linear_5,165,9999,9999,9999,1420280904
1047,21,Ticks_Linear_5,166,9999,9999,9999,1421090908
1047,21,Ticks_Linear_5,167,9999,9999,9999,1421900876
1047,21,Ticks_Linear_5,168,9999,9999,9999,1422710860
1047,21,Ticks_Linear_5,169,9999,9999,9999,1423520840
1048,20,Ticks_Linear_8,0,5,42,127,1433671132
1048,20,Ticks_Linear_8,1,5,42,127,1434491396
1048,20,Ticks_Linear_8,2,5,42,127,1435310464
1048,20,Ticks_Linear_8,3,5,42,127,1436130876
1048,20,Ticks_Linear_8,4,1,48,46,1436221268
1048,20,Ticks_Linear_8,5,5,42,127,1436950848
1048,20,Ticks_Linear_8,6,1,48,36,1436957332
1048,20,Ticks_Linear_8,7,5,42,127,1437760980
1048,20,Ticks_Linear_8,8,1,48,43,1437788820
1048,20,Ticks_Linear_8,9,5,42,127,1438570812
1048,20,Ticks_Linear_8,10,1,48,42,1438599180
1048,20,Ticks_Linear_8,11,1,48,48,1439349596
1048,20,Ticks_Linear_8,12,5,42,127,1439381012
1048,20,Ticks_Linear_8,13,1,48,48,1440070016
1048,20,Ticks_Linear_8,14,5,42,127,1440190984
1048,20,Ticks_Linear_8,15,1,48,42,1440935260
1048,20,Ticks_Linear_8,16,5,42,127,1441000980
1048,20,Ticks_Linear_8,17,1,48,47,1441722636
1048,20,Ticks_Linear_8,18,5,42,127,1441800508
1048,20,Ticks_Linear_8,19,1,48,42,1442535004
1048,20,Ticks_Linear_8,20,5,42,127,1442601276
1048,20,Ticks_Linear_8,21,1,48,38,1443376992
1048,20,Ticks_Linear_8,22,5,42,127,1443401152
1048,20,Ticks_Linear_8,23,5,42,127,1444200808
1048,20,Ticks_Linear_8,24,1,48,34,1444232084
1048,20,Ticks_Linear_8,25,5,42,127,1445000756
1048,20,Ticks_Linear_8,26,1,48,43,1445052328
1048,20,Ticks_Linear_8,27,5,42,127,1445791192
1048,20,Ticks_Linear_8,28,1,48,38,1445822548
1048,20,Ticks_Linear_8,29,1,48,41,1446566448
1048,20,Ticks_Linear_8,30,5,42,127,1446580724
1048,20,Ticks_Linear_8,31,1,48,43,1447294880
1048,20,Ticks_Linear_8,32,5,42,127,1447371088
1048,20,Ticks_Linear_8,33,1,48,43,1448046004
1048,20,Ticks_Linear_8,34,5,42,127,1448160764
1048,20,Ticks_Linear_8,35,1,48,48,1448853744
1048,20,Ticks_Linear_8,36,5,42,127,1448951200
1048,20,Ticks_Linear_8,37,1,48,49,1449669424
1048,20,Ticks_Linear_8,38,5,42,127,1449730372
1048,20,Ticks_Linear_8,39,1,48,46,1450480376
1048,20,Ticks_Linear_8,40,5,42,127,1450511072
1048,20,Ticks_Linear_8,41,1,48,46,1451224232
1048,20,Ticks_Linear_8,42,5,42,127,1451290876
1048,20,Ticks_Linear_8,43,1,48,46,1452013020
1048,20,Ticks_Linear_8,44,5,42,127,1452071276
1048,20,Ticks_Linear_8,45,1,48,33,1452847960
1048,20,Ticks_Linear_8,46,5,42,127,1452850704
1048,20,Ticks_Linear_8,47,5,42,127,1453620780
1048,20,Ticks_Linear_8,48,1,48,45,1453646064
1048,20,Ticks_Linear_8,49,5,42,127,1454390920
1048,20,Ticks_Linear_8,50,1,48,39,1454508180
1048,20,Ticks_Linear_8,51,5,42,127,1455160764
1048,20,Ticks_Linear_8,52,1,48,49,1455161732
1048,20,Ticks_Linear_8,53,5,42,127,1455930684
1048,20,Ticks_Linear_8,54,1,48,42,1455972524
1048,20,Ticks_Linear_8,55,5,42,127,1456700904
1048,20,Ticks_Linear_8,56,1,48,42,1456751428
1048,20,Ticks_Linear_8,57,5,42,127,1457460784
1048,20,Ticks_Linear_8,58,1,48,48,1457492440
1048,20,Ticks_Linear_8,59,5,42,127,1458221420
1048,20,Ticks_Linear_8,60,1,48,51,1458229788
1048,20,Ticks_Linear_8,61,1,48,48,1458984844
1048,20,Ticks_Linear_8,62,5,42,127,1458990732
1048,20,Ticks_Linear_8,63,1,48,40,1459728792
1048,20,Ticks_Linear_8,64,5,42,127,1459751144
1048,20,Ticks_Linear_8,65,1,48,41,1460452248
1048,20,Ticks_Linear_8,66,5,42,127,1460510952
1048,20,Ticks_Linear_8,67,1,48,43,1461198720
1048,20,Ticks_Linear_8,68,5,42,127,1461260652
1048,20,Ticks_Linear_8,69,1,48,37,1461929856
1048,20,Ticks_Linear_8,70,5,42,127,1462011220
1048,20,Ticks_Linear_8,71,1,48,41,1462666444
1048,20,Ticks_Linear_8,72,5,42,127,1462760904
1048,20,Ticks_Linear_8,73,1,48,43,1463475452
1048,20,Ticks_Linear_8,74,5,42,127,1463511516
1048,20,Ticks_Linear_8,75,1,48,40,1464239836
1048,20,Ticks_Linear_8,76,5,42,127,1464260992
1048,20,Ticks_Linear_8,77,1,48,48,1464968424
1048,20,Ticks_Linear_8,78,5,42,127,1465001552
1048,20,Ticks_Linear_8,79,5,42,127,1465740628
1048,20,Ticks_Linear_8,80,1,48,38,1465747640
1048,20,Ticks_Linear_8,81,1,48,42,1466465484
1048,20,Ticks_Linear_8,82,5,42,127,1466480884
1048,20,Ticks_Linear_8,83,1,48,39,1467176168
1048,20,Ticks_Linear_8,84,5,42,127,1467221520
1048,20,Ticks_Linear_8,85,1,48,45,1467910524
1048,20,Ticks_Linear_8,86,5,42,127,1467960884
1048,20,Ticks_Linear_8,87,1,48,40,1468676836
1048,20,Ticks_Linear_8,88,5,42,127,1468690668
1048,20,Ticks_Linear_8,89,1,48,47,1469366904
1048,20,Ticks_Linear_8,90,5,42,127,1469421016
1048,20,Ticks_Linear_8,91,1,48,45,1470076312
1048,20,Ticks_Linear_8,92,5,42,127,1470151020
1048,20,Ticks_Linear_8,93,1,48,47,1470779744
1048,20,Ticks_Linear_8,94,5,42,127,1470881160
1048,20,Ticks_Linear_8,95,1,48,40,1471546808
1048,20,Ticks_Linear_8,96,5,42,127,1471611328
1048,20,Ticks_Linear_8,97,1,48,45,1472237096
1048,20,Ticks_Linear_8,98,5,42,127,1472330984
1048,20,Ticks_Linear_8,99,1,48,35,1472974892
1048,20,Ticks_Linear_8,100,5,42,127,1473051044
1048,20,Ticks_Linear_8,101,1,48,43,1473647824
1048,20,Ticks_Linear_8,102,5,42,127,1473770972
1048,20,Ticks_Linear_8,103,1,48,40,1474459768
1048,20,Ticks_Linear_8,104,5,42,127,1474490736
1048,20,Ticks_Linear_8,105,1,48,41,1475183024
1048,20,Ticks_Linear_8,106,5,42,127,1475210552
1048,20,Ticks_Linear_8,107,5,42,127,1475921168
1048,20,Ticks_Linear_8,108,1,48,32,1475927428
1048,20,Ticks_Linear_8,109,1,48,36,1476615992
1048,20,Ticks_Linear_8,110,5,42,127,1476630868
1048,20,Ticks_Linear_8,111,1,48,41,1477332796
1048,20,Ticks_Linear_8,112,5,42,127,1477340476
1048,20,Ticks_Linear_8,113,1,48,50,1478003412
1048,20,Ticks_Linear_8,114,5,42,127,1478051232
1048,20,Ticks_Linear_8,115,1,48,44,1478689916
1048,20,Ticks_Linear_8,116,5,42,127,1478760796
1048,20,Ticks_Linear_8,117,1,48,47,1479421908
1048,20,Ticks_Linear_8,118,5,42,127,1479461588
1048,20,Ticks_Linear_8,119,1,48,40,1480102940
1048,20,Ticks_Linear_8,120,5,42,127,1480160716
1048,20,Ticks_Linear_8,121,1,48,53,1480835780
1048,20,Ticks_Linear_8,122,5,42,127,1480860988
1048,20,Ticks_Linear_8,123,5,42,127,1481560668
1048,20,Ticks_Linear_8,124,1,48,29,1481563788
1048,20,Ticks_Linear_8,125,1,48,40,1482219616
1048,20,Ticks_Linear_8,126,5,42,127,1482260864
1048,20,Ticks_Linear_8,127,1,48,38,1482927216
1048,20,Ticks_Linear_8,128,5,42,127,1482950928
1048,20,Ticks_Linear_8,129,1,48,47,1483592824
1048,20,Ticks_Linear_8,130,5,42,127,1483641240
1048,20,Ticks_Linear_8,131,1,48,36,1484303952
1048,20,Ticks_Linear_8,132,5,42,127,1484331624
1048,20,Ticks_Linear_8,133,1,48,37,1485012216
1048,20,Ticks_Linear_8,134,5,42,127,1485020644
1048,20,Ticks_Linear_8,135,5,42,127,1485710664
1048,20,Ticks_Linear_8,136,1,48,29,1485751976
1048,20,Ticks_Linear_8,137,1,48,49,1486365576
1048,20,Ticks_Linear_8,138,5,42,127,1486390636
1048,20,Ticks_Linear_8,139,1,48,48,1487042840
1048,20,Ticks_Linear_8,140,5,42,127,1487070588
1048,20,Ticks_Linear_8,141,5,42,127,1487750652
1048,20,Ticks_Linear_8,142,1,48,40,1487764704
1048,20,Ticks_Linear_8,143,5,42,127,1488430628
1048,20,Ticks_Linear_8,144,1,48,45,1488433376
1048,20,Ticks_Linear_8,145,5,42,127,1489111408
1048,20,Ticks_Linear_8,146,1,48,43,1489125384
1048,20,Ticks_Linear_8,147,1,48,48,1489773140
1048,20,Ticks_Linear_8,148,5,42,127,1489780972
1048,20,Ticks_Linear_8,149,1,48,48,1490427256
1048,20,Ticks_Linear_8,150,5,42,127,1490450692
1048,20,Ticks_Linear_8,151,1,48,37,1491107752
1048,20,Ticks_Linear_8,152,5,42,127,1491120608
1048,20,Ticks_Linear_8,153,1,48,45,1491729404
1048,20,Ticks_Linear_8,154,5,42,127,1491791152
1048,20,Ticks_Linear_8,155,1,48,38,1492403140
1048,20,Ticks_Linear_8,156,5,42,127,1492460848
1048,20,Ticks_Linear_8,157,1,48,38,1493089868
1048,20,Ticks_Linear_8,158,5,42,127,1493121356
1048,20,Ticks_Linear_8,159,1,48,40,1493748612
1048,20,Ticks_Linear_8,160,5,42,127,1493780816
1048,20,Ticks_Linear_8,161,1,48,45,1494413244
1048,20,Ticks_Linear_8,162,5,42,127,1494441372
1048,20,Ticks_Linear_8,163,5,42,127,1495100912
1048,20,Ticks_Linear_8,164,1,48,43,1495105604
1048,20,Ticks_Linear_8,165,5,42,127,1495761396
1048,20,Ticks_Linear_8,166,1,48,44,1495812324
1048,20,Ticks_Linear_8,167,5,42,127,1496410376
1048,20,Ticks_Linear_8,168,1,48,44,1496411340
1048,20,Ticks_Linear_8,169,1,48,48,1497015012
1048,20,Ticks_Linear_8,170,5,42,127,1497060816
1048,20,Ticks_Linear_8,171,1,48,48,1497624972
1048,20,Ticks_Linear_8,172,5,42,127,1497710840
1048,20,Ticks_Linear_8,173,1,48,45,1498250640
1048,20,Ticks_Linear_8,174,5,42,127,1498361416
1048,20,Ticks_Linear_8,175,1,48,47,1498903656
1048,20,Ticks_Linear_8,176,5,42,127,1499010544
1048,20,Ticks_Linear_8,177,1,48,47,1499551784
1048,20,Ticks_Linear_8,178,5,42,127,1499651804
1048,20,Ticks_Linear_8,179,1,48,46,1500220304
1048,20,Ticks_Linear_8,180,5,42,127,1500290440
1048,20,Ticks_Linear_8,181,1,48,47,1500852924
1048,20,Ticks_Linear_8,182,5,42,127,1500930352
1048,20,Ticks_Linear_8,183,1,48,36,1501486692
1048,20,Ticks_Linear_8,184,5,42,127,1501570388
1048,20,Ticks_Linear_8,185,1,48,46,1502123368
1048,20,Ticks_Linear_8,186,5,42,127,1502210604
1048,20,Ticks_Linear_8,187,1,48,33,1502748372
1048,20,Ticks_Linear_8,188,5,42,127,1502841432
1048,20,Ticks_Linear_8,189,1,48,47,1503381380
1048,20,Ticks_Linear_8,190,5,42,127,1503470912
1048,20,Ticks_Linear_8,191,1,48,39,1504043088
1048,20,Ticks_Linear_8,192,5,42,127,1504100716
1048,20,Ticks_Linear_8,193,1,48,52,1504664028
1048,20,Ticks_Linear_8,194,5,42,127,1504730424
1048,20,Ticks_Linear_8,195,1,48,38,1505304912
1048,20,Ticks_Linear_8,196,5,42,127,1505361496
1048,20,Ticks_Linear_8,197,1,48,45,1505894328
1048,20,Ticks_Linear_8,198,5,42,127,1505980720
1048,20,Ticks_Linear_8,199,1,48,43,1506506504
1048,20,Ticks_Linear_8,200,5,42,127,1506601236
1048,20,Ticks_Linear_8,201,1,48,48,1507112576
1048,20,Ticks_Linear_8,202,5,42,127,1507220740
1048,20,Ticks_Linear_8,203,1,48,41,1507787132
1048,20,Ticks_Linear_8,204,5,42,127,1507841420
1048,20,Ticks_Linear_8,205,1,48,45,1508390360
1048,20,Ticks_Linear_8,206,5,42,127,1508460792
1048,20,Ticks_Linear_8,207,1,48,50,1508976544
1048,20,Ticks_Linear_8,208,5,42,127,1509072580
1048,20,Ticks_Linear_8,209,1,48,43,1509589336
1048,20,Ticks_Linear_8,210,5,42,127,1509680532
1048,20,Ticks_Linear_8,211,1,48,43,1510235380
1048,20,Ticks_Linear_8,212,5,42,127,1510290768
1048,20,Ticks_Linear_8,213,1,48,43,1510869512
1048,20,Ticks_Linear_8,214,5,42,127,1510901152
1048,20,Ticks_Linear_8,215,1,48,40,1511474072
1048,20,Ticks_Linear_8,216,5,42,127,1511511412
1048,20,Ticks_Linear_8,217,5,42,127,1512110420
1048,20,Ticks_Linear_8,218,1,48,36,1512131812
1048,20,Ticks_Linear_8,219,5,42,127,1512710492
1048,20,Ticks_Linear_8,220,1,48,49,1512734500
1048,20,Ticks_Linear_8,221,5,42,127,1513310544
1048,20,Ticks_Linear_8,222,1,48,33,1513335300
1048,20,Ticks_Linear_8,223,1,48,43,1513872804
1048,20,Ticks_Linear_8,224,5,42,127,1513910588
1048,20,Ticks_Linear_8,225,1,48,45,1514496088
1048,20,Ticks_Linear_8,226,5,42,127,1514510736
1048,20,Ticks_Linear_8,227,1,48,49,1515077640
1048,20,Ticks_Linear_8,228,5,42,127,1515100528
1048,20,Ticks_Linear_8,229,1,48,41,1515679420
1048,20,Ticks_Linear_8,230,5,42,127,1515691512
1048,20,Ticks_Linear_8,231,1,48,42,1516252952
1048,20,Ticks_Linear_8,232,5,42,127,1516281228
1048,20,Ticks_Linear_8,233,1,48,40,1516859552
1048,20,Ticks_Linear_8,234,5,42,127,1516871116
1048,20,Ticks_Linear_8,235,1,48,45,1517421704
1048,20,Ticks_Linear_8,236,5,42,127,1517460760
1048,20,Ticks_Linear_8,237,1,48,43,1518006164
1048,20,Ticks_Linear_8,238,5,42,127,1518040364
1048,20,Ticks_Linear_8,239,1,48,47,1518615300
1048,20,Ticks_Linear_8,240,5,42,127,1518621188
1048,20,Ticks_Linear_8,241,1,48,45,1519189968
1048,20,Ticks_Linear_8,242,5,42,127,1519200568
1048,20,Ticks_Linear_8,243,1,48,43,1519759240
1048,20,Ticks_Linear_8,244,5,42,127,1519781220
1048,20,Ticks_Linear_8,245,1,48,40,1520322968
1048,20,Ticks_Linear_8,246,5,42,127,1520360752
1048,20,Ticks_Linear_8,247,1,48,46,1520878912
1048,20,Ticks_Linear_8,248,5,42,127,1520931172
1048,20,Ticks_Linear_8,249,1,48,43,1521440340
1048,20,Ticks_Linear_8,250,5,42,127,1521500516
1048,20,Ticks_Linear_8,251,1,48,45,1522070692
1048,20,Ticks_Linear_8,252,5,42,127,1522072252
1048,20,Ticks_Linear_8,253,5,42,127,1522641308
1048,20,Ticks_Linear_8,254,1,48,47,1522661204
1048,20,Ticks_Linear_8,255,5,42,127,1523210528
1048,20,Ticks_Linear_8,256,1,48,44,1523229600
1048,20,Ticks_Linear_8,257,5,42,127,1523770736
1048,20,Ticks_Linear_8,258,1,48,43,1523785164
1048,20,Ticks_Linear_8,259,5,42,127,1524331320
1048,20,Ticks_Linear_8,260,1,48,42,1524366344
1048,20,Ticks_Linear_8,261,1,48,44,1524885036
1048,20,Ticks_Linear_8,262,5,42,127,1524891300
1048,20,Ticks_Linear_8,263,1,48,40,1525427500
1048,20,Ticks_Linear_8,264,5,42,127,1525451284
1048,20,Ticks_Linear_8,265,1,48,43,1525976848
1048,20,Ticks_Linear_8,266,5,42,127,1526011268
1048,20,Ticks_Linear_8,267,1,48,34,1526542256
1048,20,Ticks_Linear_8,268,5,42,127,1526561244
1048,20,Ticks_Linear_8,269,1,48,38,1527057300
1048,20,Ticks_Linear_8,270,5,42,127,1527111116
1048,20,Ticks_Linear_8,271,1,48,41,1527638196
1048,20,Ticks_Linear_8,272,5,42,127,1527661140
1048,20,Ticks_Linear_8,273,1,48,38,1528197640
1048,20,Ticks_Linear_8,274,5,42,127,1528210720
1048,20,Ticks_Linear_8,275,1,48,48,1528726924
1048,20,Ticks_Linear_8,276,5,42,127,1528760592
1048,20,Ticks_Linear_8,277,1,48,47,1529271112
1048,20,Ticks_Linear_8,278,5,42,127,1529301480
1048,20,Ticks_Linear_8,279,1,48,43,1529805180
1048,20,Ticks_Linear_8,280,5,42,127,1529841396
1048,20,Ticks_Linear_8,281,1,48,45,1530332296
1048,20,Ticks_Linear_8,282,5,42,127,1530380812
1048,20,Ticks_Linear_8,283,1,48,45,1530882640
1048,20,Ticks_Linear_8,284,5,42,127,1530921324
1048,20,Ticks_Linear_8,285,1,48,41,1531439116
1048,20,Ticks_Linear_8,286,5,42,127,1531461240
1048,20,Ticks_Linear_8,287,1,48,42,1531972880
1048,20,Ticks_Linear_8,288,5,42,127,1531991568
1048,20,Ticks_Linear_8,289,5,42,127,1532521080
1048,20,Ticks_Linear_8,290,1,48,48,1532526968
1048,20,Ticks_Linear_8,291,5,42,127,1533051336
1048,20,Ticks_Linear_8,292,1,48,46,1533052744
1048,20,Ticks_Linear_8,293,1,48,44,1533578568
1048,20,Ticks_Linear_8,294,5,42,127,1533580608
1048,20,Ticks_Linear_8,295,1,48,42,1534105496
1048,20,Ticks_Linear_8,296,5,42,127,1534111012
1048,20,Ticks_Linear_8,297,5,42,127,1534631240
1048,20,Ticks_Linear_8,298,1,48,44,1534634060
1048,20,Ticks_Linear_8,299,5,42,127,1535150484
1048,20,Ticks_Linear_8,300,1,48,35,1535179516
1048,20,Ticks_Linear_8,301,1,48,43,1535668024
1048,20,Ticks_Linear_8,302,5,42,127,1535670620
1048,20,Ticks_Linear_8,303,5,42,127,1536190920
1048,20,Ticks_Linear_8,304,1,48,37,1536192936
1048,20,Ticks_Linear_8,305,1,48,42,1536693272
1048,20,Ticks_Linear_8,306,5,42,127,1536710984
1048,20,Ticks_Linear_8,307,5,42,127,1537221176
1048,20,Ticks_Linear_8,308,1,48,45,1537234924
1048,20,Ticks_Linear_8,309,1,48,41,1537731356
1048,20,Ticks_Linear_8,310,5,42,127,1537732544
1048,20,Ticks_Linear_8,311,5,42,127,1538241168
1048,20,Ticks_Linear_8,312,1,48,40,1538252452
1048,20,Ticks_Linear_8,313,1,48,46,1538744112
1048,20,Ticks_Linear_8,314,5,42,127,1538750972
1048,20,Ticks_Linear_8,315,5,42,127,1539260864
1048,20,Ticks_Linear_8,316,1,48,44,1539270424
1048,20,Ticks_Linear_8,317,1,48,46,1539742540
1048,20,Ticks_Linear_8,318,5,42,127,1539760484
1048,20,Ticks_Linear_8,319,1,48,41,1540256920
1048,20,Ticks_Linear_8,320,5,42,127,1540261228
1048,20,Ticks_Linear_8,321,1,48,48,1540755116
1048,20,Ticks_Linear_8,322,5,42,127,1540761076
1048,20,Ticks_Linear_8,323,1,48,51,1541258744
1048,20,Ticks_Linear_8,324,5,42,127,1541260556
1048,20,Ticks_Linear_8,325,5,42,127,1541761532
1048,20,Ticks_Linear_8,326,1,48,42,1541801796
1048,20,Ticks_Linear_8,327,5,42,127,1542250972
1048,20,Ticks_Linear_8,328,1,48,35,1542265248
1048,20,Ticks_Linear_8,329,5,42,127,1542741312
1048,20,Ticks_Linear_8,330,1,48,41,1542744580
1048,20,Ticks_Linear_8,331,1,48,44,1543214748
1048,20,Ticks_Linear_8,332,5,42,127,1543231044
1048,20,Ticks_Linear_8,333,1,48,46,1543702468
1048,20,Ticks_Linear_8,334,5,42,127,1543721384
1048,20,Ticks_Linear_8,335,5,42,127,1544210832
1048,20,Ticks_Linear_8,0,9999,9999,9999,1433668684
1048,20,Ticks_Linear_8,1,9999,9999,9999,1434488948
1048,20,Ticks_Linear_8,2,9999,9999,9999,1435308092
1048,20,Ticks_Linear_8,3,9999,9999,9999,1436128356
1048,20,Ticks_Linear_8,4,9999,9999,9999,1436948548
1048,20,Ticks_Linear_8,5,9999,9999,9999,1437758532
1048,20,Ticks_Linear_8,6,9999,9999,9999,1438568516
1048,20,Ticks_Linear_8,7,9999,9999,9999,1439378492
1048,20,Ticks_Linear_8,8,9999,9999,9999,1440188536
1048,20,Ticks_Linear_8,9,9999,9999,9999,1440998460
1048,20,Ticks_Linear_8,10,9999,9999,9999,1441798208
1048,20,Ticks_Linear_8,11,9999,9999,9999,1442598976
1048,20,Ticks_Linear_8,12,9999,9999,9999,1443398780
1048,20,Ticks_Linear_8,13,9999,9999,9999,1444198508
1048,20,Ticks_Linear_8,14,9999,9999,9999,1444998232
1048,20,Ticks_Linear_8,15,9999,9999,9999,1445788744
1048,20,Ticks_Linear_8,16,9999,9999,9999,1446578276
1048,20,Ticks_Linear_8,17,9999,9999,9999,1447368792
1048,20,Ticks_Linear_8,18,9999,9999,9999,1448158316
1048,20,Ticks_Linear_8,19,9999,9999,9999,1448948828
1048,20,Ticks_Linear_8,20,9999,9999,9999,1449728124
1048,20,Ticks_Linear_8,21,9999,9999,9999,1450508400
1048,20,Ticks_Linear_8,22,9999,9999,9999,1451288652
1048,20,Ticks_Linear_8,23,9999,9999,9999,1452068976
1048,20,Ticks_Linear_8,24,9999,9999,9999,1452848184
1048,20,Ticks_Linear_8,25,9999,9999,9999,1453618256
1048,20,Ticks_Linear_8,26,9999,9999,9999,1454388324
1048,20,Ticks_Linear_8,27,9999,9999,9999,1455158392
1048,20,Ticks_Linear_8,28,9999,9999,9999,1455928388
1048,20,Ticks_Linear_8,29,9999,9999,9999,1456698456
1048,20,Ticks_Linear_8,30,9999,9999,9999,1457458264
1048,20,Ticks_Linear_8,31,9999,9999,9999,1458219120
1048,20,Ticks_Linear_8,32,9999,9999,9999,1458988136
1048,20,Ticks_Linear_8,33,9999,9999,9999,1459748920
1048,20,Ticks_Linear_8,34,9999,9999,9999,1460508728
1048,20,Ticks_Linear_8,35,9999,9999,9999,1461258352
1048,20,Ticks_Linear_8,36,9999,9999,9999,1462008924
1048,20,Ticks_Linear_8,37,9999,9999,9999,1462758496
1048,20,Ticks_Linear_8,38,9999,9999,9999,1463509068
1048,20,Ticks_Linear_8,39,9999,9999,9999,1464258620
1048,20,Ticks_Linear_8,40,9999,9999,9999,1464999032
1048,20,Ticks_Linear_8,41,9999,9999,9999,1465738328
1048,20,Ticks_Linear_8,42,9999,9999,9999,1466478660
1048,20,Ticks_Linear_8,43,9999,9999,9999,1467219072
1048,20,Ticks_Linear_8,44,9999,9999,9999,1467958364
1048,20,Ticks_Linear_8,45,9999,9999,9999,1468688444
1048,20,Ticks_Linear_8,46,9999,9999,9999,1469418568
1048,20,Ticks_Linear_8,47,9999,9999,9999,1470148720
1048,20,Ticks_Linear_8,48,9999,9999,9999,1470878788
1048,20,Ticks_Linear_8,49,9999,9999,9999,1471608956
1048,20,Ticks_Linear_8,50,9999,9999,9999,1472328776
1048,20,Ticks_Linear_8,51,9999,9999,9999,1473048668
1048,20,Ticks_Linear_8,52,9999,9999,9999,1473768524
1048,20,Ticks_Linear_8,53,9999,9999,9999,1474488436
1048,20,Ticks_Linear_8,54,9999,9999,9999,1475208256
1048,20,Ticks_Linear_8,55,9999,9999,9999,1475918940
1048,20,Ticks_Linear_8,56,9999,9999,9999,1476628568
1048,20,Ticks_Linear_8,57,9999,9999,9999,1477338180
1048,20,Ticks_Linear_8,58,9999,9999,9999,1478048860
1048,20,Ticks_Linear_8,59,9999,9999,9999,1478758496
1048,20,Ticks_Linear_8,60,9999,9999,9999,1479458920
1048,20,Ticks_Linear_8,61,9999,9999,9999,1480158268
1048,20,Ticks_Linear_8,62,9999,9999,9999,1480858688
1048,20,Ticks_Linear_8,63,9999,9999,9999,1481558072
1048,20,Ticks_Linear_8,64,9999,9999,9999,1482258488
1048,20,Ticks_Linear_8,65,9999,9999,9999,1482948704
1048,20,Ticks_Linear_8,66,9999,9999,9999,1483638864
1048,20,Ticks_Linear_8,67,9999,9999,9999,1484329028
1048,20,Ticks_Linear_8,68,9999,9999,9999,1485018196
1048,20,Ticks_Linear_8,69,9999,9999,9999,1485708364
1048,20,Ticks_Linear_8,70,9999,9999,9999,1486388336
1048,20,Ticks_Linear_8,71,9999,9999,9999,1487068216
1048,20,Ticks_Linear_8,72,9999,9999,9999,1487748200
1048,20,Ticks_Linear_8,73,9999,9999,9999,1488428108
1048,20,Ticks_Linear_8,74,9999,9999,9999,1489109108
1048,20,Ticks_Linear_8,75,9999,9999,9999,1489778748
1048,20,Ticks_Linear_8,76,9999,9999,9999,1490448468
1048,20,Ticks_Linear_8,77,9999,9999,9999,1491118160
1048,20,Ticks_Linear_8,78,9999,9999,9999,1491788852
1048,20,Ticks_Linear_8,79,9999,9999,9999,1492458548
1048,20,Ticks_Linear_8,80,9999,9999,9999,1493119056
1048,20,Ticks_Linear_8,81,9999,9999,9999,1493778516
1048,20,Ticks_Linear_8,82,9999,9999,9999,1494439000
1048,20,Ticks_Linear_8,83,9999,9999,9999,1495098464
1048,20,Ticks_Linear_8,84,9999,9999,9999,1495758948
1048,20,Ticks_Linear_8,85,9999,9999,9999,1496408152
1048,20,Ticks_Linear_8,86,9999,9999,9999,1497058368
1048,20,Ticks_Linear_8,87,9999,9999,9999,1497708616
1048,20,Ticks_Linear_8,88,9999,9999,9999,1498358896
1048,20,Ticks_Linear_8,89,9999,9999,9999,1499008096
1048,20,Ticks_Linear_8,90,9999,9999,9999,1499648100
1048,20,Ticks_Linear_8,91,9999,9999,9999,1500288064
1048,20,Ticks_Linear_8,92,9999,9999,9999,1500928052
1048,20,Ticks_Linear_8,93,9999,9999,9999,1501568092
1048,20,Ticks_Linear_8,94,9999,9999,9999,1502208080
1048,20,Ticks_Linear_8,95,9999,9999,9999,1502838908
1048,20,Ticks_Linear_8,96,9999,9999,9999,1503468612
1048,20,Ticks_Linear_8,97,9999,9999,9999,1504098420
1048,20,Ticks_Linear_8,98,9999,9999,9999,1504728124
1048,20,Ticks_Linear_8,99,9999,9999,9999,1505358972
1048,20,Ticks_Linear_8,100,9999,9999,9999,1505978420
1048,20,Ticks_Linear_8,101,9999,9999,9999,1506599012
1048,20,Ticks_Linear_8,102,9999,9999,9999,1507218516
1048,20,Ticks_Linear_8,103,9999,9999,9999,1507839048
1048,20,Ticks_Linear_8,104,9999,9999,9999,1508458568
1048,20,Ticks_Linear_8,105,9999,9999,9999,1509068876
1048,20,Ticks_Linear_8,106,9999,9999,9999,1509678160
1048,20,Ticks_Linear_8,107,9999,9999,9999,1510288468
1048,20,Ticks_Linear_8,108,9999,9999,9999,1510898776
1048,20,Ticks_Linear_8,109,9999,9999,9999,1511509112
1048,20,Ticks_Linear_8,110,9999,9999,9999,1512108120
1048,20,Ticks_Linear_8,111,9999,9999,9999,1512708196
1048,20,Ticks_Linear_8,112,9999,9999,9999,1513308244
1048,20,Ticks_Linear_8,113,9999,9999,9999,1513908288
1048,20,Ticks_Linear_8,114,9999,9999,9999,1514508364
1048,20,Ticks_Linear_8,115,9999,9999,9999,1515098228
1048,20,Ticks_Linear_8,116,9999,9999,9999,1515689068
1048,20,Ticks_Linear_8,117,9999,9999,9999,1516278856
1048,20,Ticks_Linear_8,118,9999,9999,9999,1516868668
1048,20,Ticks_Linear_8,119,9999,9999,9999,1517458532
1048,20,Ticks_Linear_8,120,9999,9999,9999,1518038140
1048,20,Ticks_Linear_8,121,9999,9999,9999,1518618740
1048,20,Ticks_Linear_8,122,9999,9999,9999,1519198272
1048,20,Ticks_Linear_8,123,9999,9999,9999,1519778924
1048,20,Ticks_Linear_8,124,9999,9999,9999,1520358452
1048,20,Ticks_Linear_8,125,9999,9999,9999,1520928872
1048,20,Ticks_Linear_8,126,9999,9999,9999,1521498216
1048,20,Ticks_Linear_8,127,9999,9999,9999,1522068540
1048,20,Ticks_Linear_8,128,9999,9999,9999,1522638932
1048,20,Ticks_Linear_8,129,9999,9999,9999,1523208304
1048,20,Ticks_Linear_8,130,9999,9999,9999,1523768440
1048,20,Ticks_Linear_8,131,9999,9999,9999,1524328572
1048,20,Ticks_Linear_8,132,9999,9999,9999,1524888704
1048,20,Ticks_Linear_8,133,9999,9999,9999,1525448764
1048,20,Ticks_Linear_8,134,9999,9999,9999,1526008896
1048,20,Ticks_Linear_8,135,9999,9999,9999,1526558796
1048,20,Ticks_Linear_8,136,9999,9999,9999,1527108672
1048,20,Ticks_Linear_8,137,9999,9999,9999,1527658620
1048,20,Ticks_Linear_8,138,9999,9999,9999,1528208496
1048,20,Ticks_Linear_8,139,9999,9999,9999,1528758368
1048,20,Ticks_Linear_8,140,9999,9999,9999,1529299032
1048,20,Ticks_Linear_8,141,9999,9999,9999,1529838648
1048,20,Ticks_Linear_8,142,9999,9999,9999,1530378364
1048,20,Ticks_Linear_8,143,9999,9999,9999,1530919024
1048,20,Ticks_Linear_8,144,9999,9999,9999,1531458644
1048,20,Ticks_Linear_8,145,9999,9999,9999,1531989120
1048,20,Ticks_Linear_8,146,9999,9999,9999,1532518480
1048,20,Ticks_Linear_8,147,9999,9999,9999,1533048888
1048,20,Ticks_Linear_8,148,9999,9999,9999,1533578348
1048,20,Ticks_Linear_8,149,9999,9999,9999,1534108788
1048,20,Ticks_Linear_8,150,9999,9999,9999,1534628940
1048,20,Ticks_Linear_8,151,9999,9999,9999,1535148112
1048,20,Ticks_Linear_8,152,9999,9999,9999,1535668324
1048,20,Ticks_Linear_8,153,9999,9999,9999,1536188476
1048,20,Ticks_Linear_8,154,9999,9999,9999,1536708684
1048,20,Ticks_Linear_8,155,9999,9999,9999,1537218652
1048,20,Ticks_Linear_8,156,9999,9999,9999,1537728612
1048,20,Ticks_Linear_8,157,9999,9999,9999,1538238572
1048,20,Ticks_Linear_8,158,9999,9999,9999,1538748524
1048,20,Ticks_Linear_8,159,9999,9999,9999,1539258488
1048,20,Ticks_Linear_8,160,9999,9999,9999,1539758184
1048,20,Ticks_Linear_8,161,9999,9999,9999,1540258932
1048,20,Ticks_Linear_8,162,9999,9999,9999,1540758632
1048,20,Ticks_Linear_8,163,9999,9999,9999,1541258356
1048,20,Ticks_Linear_8,164,9999,9999,9999,1541759084
1048,20,Ticks_Linear_8,165,9999,9999,9999,1542248524
1048,20,Ticks_Linear_8,166,9999,9999,9999,1542739012
1048,20,Ticks_Linear_8,167,9999,9999,9999,1543228524
1048,20,Ticks_Linear_8,168,9999,9999,9999,1543719012
1048,20,Ticks_Linear_8,169,9999,9999,9999,1544208460
1049,10,Ticks_ISO_T2_5,0,5,42,127,1552832824
1049,10,Ticks_ISO_T2_5,1,5,42,127,1553332544
1049,10,Ticks_ISO_T2_5,2,5,42,127,1553833308
1049,10,Ticks_ISO_T2_5,3,1,48,29,1554314580
1049,10,Ticks_ISO_T2_5,4,5,42,127,1554332940
1049,10,Ticks_ISO_T2_5,5,1,48,38,1554810316
1049,10,Ticks_ISO_T2_5,6,5,42,127,1554832936
1049,10,Ticks_ISO_T2_5,7,1,48,38,1555264008
1049,10,Ticks_ISO_T2_5,8,5,42,127,1555332408
1049,10,Ticks_ISO_T2_5,9,1,48,45,1555772604
1049,10,Ticks_ISO_T2_5,10,5,42,127,1555833148
1049,10,Ticks_ISO_T2_5,11,1,48,51,1556308872
1049,10,Ticks_ISO_T2_5,12,5,42,127,1556332844
1049,10,Ticks_ISO_T2_5,13,1,48,43,1556812908
1049,10,Ticks_ISO_T2_5,14,5,42,127,1556832688
1049,10,Ticks_ISO_T2_5,15,1,48,42,1557319860
1049,10,Ticks_ISO_T2_5,16,5,42,127,1557333208
1049,10,Ticks_ISO_T2_5,17,1,48,50,1557806392
1049,10,Ticks_ISO_T2_5,18,5,42,127,1557833052
1049,10,Ticks_ISO_T2_5,19,1,48,48,1558314680
1049,10,Ticks_ISO_T2_5,20,5,42,127,1558332892
1049,10,Ticks_ISO_T2_5,21,1,48,45,1558819316
1049,10,Ticks_ISO_T2_5,22,5,42,127,1558832364
1049,10,Ticks_ISO_T2_5,23,5,42,127,1559333188
1049,10,Ticks_ISO_T2_5,24,1,48,46,1559337948
1049,10,Ticks_ISO_T2_5,25,5,42,127,1559833032
1049,10,Ticks_ISO_T2_5,26,1,48,48,1559843704
1049,10,Ticks_ISO_T2_5,27,5,42,127,1560332580
1049,10,Ticks_ISO_T2_5,28,1,48,53,1560344072
1049,10,Ticks_ISO_T2_5,29,1,48,51,1560820912
1049,10,Ticks_ISO_T2_5,30,5,42,127,1560833312
1049,10,Ticks_ISO_T2_5,31,1,48,54,1561311408
1049,10,Ticks_ISO_T2_5,32,5,42,127,1561333132
1049,10,Ticks_ISO_T2_5,33,1,48,57,1561785748
1049,10,Ticks_ISO_T2_5,34,5,42,127,1561832752
1049,10,Ticks_ISO_T2_5,35,1,48,51,1562282152
1049,10,Ticks_ISO_T2_5,36,5,42,127,1562332520
1049,10,Ticks_ISO_T2_5,37,1,48,51,1562786552
1049,10,Ticks_ISO_T2_5,38,5,42,127,1562833264
1049,10,Ticks_ISO_T2_5,39,1,48,53,1563294856
1049,10,Ticks_ISO_T2_5,40,5,42,127,1563332960
1049,10,Ticks_ISO_T2_5,41,5,42,127,1563832812
1049,10,Ticks_ISO_T2_5,42,1,48,49,1563849848
1049,10,Ticks_ISO_T2_5,43,5,42,127,1564333404
1049,10,Ticks_ISO_T2_5,44,1,48,51,1564338164
1049,10,Ticks_ISO_T2_5,45,5,42,127,1564833096
1049,10,Ticks_ISO_T2_5,46,1,48,51,1564836968
1049,10,Ticks_ISO_T2_5,47,1,48,53,1565332720
1049,10,Ticks_ISO_T2_5,48,5,42,127,1565334128
1049,10,Ticks_ISO_T2_5,49,5,42,127,1565832560
1049,10,Ticks_ISO_T2_5,50,1,48,46,1565847496
1049,10,Ticks_ISO_T2_5,51,5,42,127,1566333300
1049,10,Ticks_ISO_T2_5,52,1,48,47,1566341360
1049,10,Ticks_ISO_T2_5,53,1,48,47,1566810148
1049,10,Ticks_ISO_T2_5,54,5,42,127,1566833064
1049,10,Ticks_ISO_T2_5,55,1,48,45,1567285380
1049,10,Ticks_ISO_T2_5,56,5,42,127,1567332908
1049,10,Ticks_ISO_T2_5,57,1,48,52,1567813948
1049,10,Ticks_ISO_T2_5,58,5,42,127,1567832528
1049,10,Ticks_ISO_T2_5,59,1,48,55,1568295912
1049,10,Ticks_ISO_T2_5,60,5,42,127,1568333196
1049,10,Ticks_ISO_T2_5,61,1,48,53,1568786712
1049,10,Ticks_ISO_T2_5,62,5,42,127,1568832964
1049,10,Ticks_ISO_T2_5,63,5,42,127,1569332744
1049,10,Ticks_ISO_T2_5,64,1,48,56,1569341396
1049,10,Ticks_ISO_T2_5,65,1,48,47,1569812804
1049,10,Ticks_ISO_T2_5,66,5,42,127,1569833332
1049,10,Ticks_ISO_T2_5,67,1,48,51,1570323340
1049,10,Ticks_ISO_T2_5,68,5,42,127,1570333100
1049,10,Ticks_ISO_T2_5,69,1,48,45,1570830760
1049,10,Ticks_ISO_T2_5,70,5,42,127,1570832796
1049,10,Ticks_ISO_T2_5,71,5,42,127,1571332348
1049,10,Ticks_ISO_T2_5,72,1,48,51,1571333312
1049,10,Ticks_ISO_T2_5,73,1,48,42,1571825768
1049,10,Ticks_ISO_T2_5,74,5,42,127,1571833132
1049,10,Ticks_ISO_T2_5,75,1,48,53,1572319028
1049,10,Ticks_ISO_T2_5,76,5,42,127,1572332828
1049,10,Ticks_ISO_T2_5,77,1,48,53,1572814756
1049,10,Ticks_ISO_T2_5,78,5,42,127,1572832892
1049,10,Ticks_ISO_T2_5,79,5,42,127,1573333268
1049,10,Ticks_ISO_T2_5,80,1,48,51,1573337956
1049,10,Ticks_ISO_T2_5,81,5,42,127,1573833040
1049,10,Ticks_ISO_T2_5,82,1,48,41,1573834004
1049,10,Ticks_ISO_T2_5,83,1,48,52,1574332956
1049,10,Ticks_ISO_T2_5,84,5,42,127,1574334220
1049,10,Ticks_ISO_T2_5,85,1,48,50,1574828500
1049,10,Ticks_ISO_T2_5,86,5,42,127,1574832572
1049,10,Ticks_ISO_T2_5,87,5,42,127,1575333320
1049,10,Ticks_ISO_T2_5,88,1,48,54,1575346688
1049,10,Ticks_ISO_T2_5,89,5,42,127,1575833160
1049,10,Ticks_ISO_T2_5,90,1,48,47,1575870988
1049,10,Ticks_ISO_T2_5,91,1,48,52,1576327128
1049,10,Ticks_ISO_T2_5,92,5,42,127,1576332848
1049,10,Ticks_ISO_T2_5,93,5,42,127,1576833376
1049,10,Ticks_ISO_T2_5,94,1,48,48,1576842852
1049,10,Ticks_ISO_T2_5,95,5,42,127,1577333072
1049,10,Ticks_ISO_T2_5,96,1,48,60,1577372392
1049,10,Ticks_ISO_T2_5,97,5,42,127,1577832840
1049,10,Ticks_ISO_T2_5,98,1,48,51,1577851220
1049,10,Ticks_ISO_T2_5,99,1,48,51,1578328460
1049,10,Ticks_ISO_T2_5,100,5,42,127,1578332752
1049,10,Ticks_ISO_T2_5,101,1,48,46,1578822468
1049,10,Ticks_ISO_T2_5,102,5,42,127,1578833124
1049,10,Ticks_ISO_T2_5,103,1,48,58,1579320968
1049,10,Ticks_ISO_T2_5,104,5,42,127,1579332968
1049,10,Ticks_ISO_T2_5,105,1,48,48,1579803084
1049,10,Ticks_ISO_T2_5,106,5,42,127,1579832808
1049,10,Ticks_ISO_T2_5,107,1,48,53,1580255408
1049,10,Ticks_ISO_T2_5,108,5,42,127,1580333552
1049,10,Ticks_ISO_T2_5,109,1,48,55,1580793024
1049,10,Ticks_ISO_T2_5,110,5,42,127,1580833024
1049,10,Ticks_ISO_T2_5,111,1,48,55,1581318328
1049,10,Ticks_ISO_T2_5,112,5,42,127,1581332720
1049,10,Ticks_ISO_T2_5,113,1,48,55,1581805496
1049,10,Ticks_ISO_T2_5,114,5,42,127,1581832636
1049,10,Ticks_ISO_T2_5,115,1,48,47,1582315668
1049,10,Ticks_ISO_T2_5,116,5,42,127,1582333228
1049,10,Ticks_ISO_T2_5,117,1,48,52,1582774448
1049,10,Ticks_ISO_T2_5,118,5,42,127,1582833120
1049,10,Ticks_ISO_T2_5,119,1,48,54,1583311616
1049,10,Ticks_ISO_T2_5,120,5,42,127,1583332668
1049,10,Ticks_ISO_T2_5,121,1,48,51,1583813780
1049,10,Ticks_ISO_T2_5,122,5,42,127,1583832288
1049,10,Ticks_ISO_T2_5,123,1,48,48,1584319684
1049,10,Ticks_ISO_T2_5,124,5,42,127,1584333032
1049,10,Ticks_ISO_T2_5,125,1,48,51,1584824912
1049,10,Ticks_ISO_T2_5,126,5,42,127,1584832724
1049,10,Ticks_ISO_T2_5,127,1,48,51,1585324308
1049,10,Ticks_ISO_T2_5,128,5,42,127,1585332568
1049,10,Ticks_ISO_T2_5,129,1,48,54,1585822432
1049,10,Ticks_ISO_T2_5,130,5,42,127,1585833460
1049,10,Ticks_ISO_T2_5,131,1,48,57,1586327812
1049,10,Ticks_ISO_T2_5,132,5,42,127,1586333080
1049,10,Ticks_ISO_T2_5,133,5,42,127,1586832856
1049,10,Ticks_ISO_T2_5,134,1,48,56,1586844052
1049,10,Ticks_ISO_T2_5,135,1,48,59,1587326972
1049,10,Ticks_ISO_T2_5,136,5,42,127,1587332544
1049,10,Ticks_ISO_T2_5,137,5,42,127,1587833216
1049,10,Ticks_ISO_T2_5,138,1,48,53,1587838728
1049,10,Ticks_ISO_T2_5,139,5,42,127,1588332836
1049,10,Ticks_ISO_T2_5,140,1,48,57,1588337004
1049,10,Ticks_ISO_T2_5,141,5,42,127,1588832532
1049,10,Ticks_ISO_T2_5,142,1,48,50,1588866988
1049,10,Ticks_ISO_T2_5,143,1,48,54,1589301968
1049,10,Ticks_ISO_T2_5,144,5,42,127,1589333268
1049,10,Ticks_ISO_T2_5,145,5,42,127,1589832968
1049,10,Ticks_ISO_T2_5,146,1,48,53,1589833936
1049,10,Ticks_ISO_T2_5,147,1,48,55,1590315716
1049,10,Ticks_ISO_T2_5,148,5,42,127,1590332656
1049,10,Ticks_ISO_T2_5,149,5,42,127,1590832508
1049,10,Ticks_ISO_T2_5,150,1,48,51,1590849460
1049,10,Ticks_ISO_T2_5,151,5,42,127,1591333100
1049,10,Ticks_ISO_T2_5,152,1,48,53,1591334064
1049,10,Ticks_ISO_T2_5,153,5,42,127,1591832868
1049,10,Ticks_ISO_T2_5,154,1,48,54,1591848328
1049,10,Ticks_ISO_T2_5,155,5,42,127,1592332640
1049,10,Ticks_ISO_T2_5,156,1,48,54,1592360812
1049,10,Ticks_ISO_T2_5,157,5,42,127,1592833676
1049,10,Ticks_ISO_T2_5,158,1,48,51,1592847940
1049,10,Ticks_ISO_T2_5,159,1,48,54,1593319472
1049,10,Ticks_ISO_T2_5,160,5,42,127,1593333188
1049,10,Ticks_ISO_T2_5,161,5,42,127,1593832744
1049,10,Ticks_ISO_T2_5,162,1,48,51,1593842296
1049,10,Ticks_ISO_T2_5,163,5,42,127,1594332736
1049,10,Ticks_ISO_T2_5,164,1,48,42,1594360760
1049,10,Ticks_ISO_T2_5,165,1,48,44,1594818552
1049,10,Ticks_ISO_T2_5,166,5,42,127,1594833248
1049,10,Ticks_ISO_T2_5,167,1,48,57,1595333248
1049,10,Ticks_ISO_T2_5,168,5,42,127,1595334668
1049,10,Ticks_ISO_T2_5,169,5,42,127,1595832572
1049,10,Ticks_ISO_T2_5,170,1,48,43,1595874060
1049,10,Ticks_ISO_T2_5,171,5,42,127,1596333612
1049,10,Ticks_ISO_T2_5,172,1,48,39,1596361636
1049,10,Ticks_ISO_T2_5,173,5,42,127,1596833008
1049,10,Ticks_ISO_T2_5,174,1,48,49,1596836052
1049,10,Ticks_ISO_T2_5,175,1,48,55,1597326828
1049,10,Ticks_ISO_T2_5,176,5,42,127,1597332772
1049,10,Ticks_ISO_T2_5,177,1,48,52,1597819344
1049,10,Ticks_ISO_T2_5,178,5,42,127,1597832616
1049,10,Ticks_ISO_T2_5,179,1,48,39,1598327940
1049,10,Ticks_ISO_T2_5,180,5,42,127,1598333580
1049,10,Ticks_ISO_T2_5,181,1,48,45,1598811404
1049,10,Ticks_ISO_T2_5,182,5,42,127,1598832976
1049,10,Ticks_ISO_T2_5,183,1,48,53,1599318576
1049,10,Ticks_ISO_T2_5,184,5,42,127,1599332748
1049,10,Ticks_ISO_T2_5,185,1,48,47,1599797256
1049,10,Ticks_ISO_T2_5,186,5,42,127,1599832516
1049,10,Ticks_ISO_T2_5,187,1,48,45,1600325144
1049,10,Ticks_ISO_T2_5,188,5,42,127,1600333480
1049,10,Ticks_ISO_T2_5,189,1,48,41,1600819384
1049,10,Ticks_ISO_T2_5,190,5,42,127,1600832804
1049,10,Ticks_ISO_T2_5,191,1,48,60,1601280256
1049,10,Ticks_ISO_T2_5,192,5,42,127,1601332572
1049,10,Ticks_ISO_T2_5,193,1,48,53,1601802160
1049,10,Ticks_ISO_T2_5,194,5,42,127,1601833536
1049,10,Ticks_ISO_T2_5,195,1,48,57,1602301632
1049,10,Ticks_ISO_T2_5,196,5,42,127,1602333008
1049,10,Ticks_ISO_T2_5,197,1,48,51,1602820848
1049,10,Ticks_ISO_T2_5,198,5,42,127,1602832704
1049,10,Ticks_ISO_T2_5,199,1,48,50,1603327280
1049,10,Ticks_ISO_T2_5,200,5,42,127,1603332548
1049,10,Ticks_ISO_T2_5,201,5,42,127,1603833044
1049,10,Ticks_ISO_T2_5,202,1,48,47,1603854212
1049,10,Ticks_ISO_T2_5,203,5,42,127,1604333036
1049,10,Ticks_ISO_T2_5,204,1,48,41,1604351292
1049,10,Ticks_ISO_T2_5,205,1,48,43,1604819004
1049,10,Ticks_ISO_T2_5,206,5,42,127,1604832576
1049,10,Ticks_ISO_T2_5,207,5,42,127,1605333696
1049,10,Ticks_ISO_T2_5,208,1,48,51,1605340104
1049,10,Ticks_ISO_T2_5,209,5,42,127,1605833168
1049,10,Ticks_ISO_T2_5,210,1,48,46,1605884032
1049,10,Ticks_ISO_T2_5,211,5,42,127,1606332712
1049,10,Ticks_ISO_T2_5,212,1,48,35,1606357596
1049,10,Ticks_ISO_T2_5,213,5,42,127,1606832704
1049,10,Ticks_ISO_T2_5,214,1,48,50,1606846520
1049,10,Ticks_ISO_T2_5,215,5,42,127,1607333372
1049,10,Ticks_ISO_T2_5,216,1,48,54,1607378080
1049,10,Ticks_ISO_T2_5,217,5,42,127,1607832916
1049,10,Ticks_ISO_T2_5,218,1,48,49,1607876572
1049,10,Ticks_ISO_T2_5,219,5,42,127,1608332760
1049,10,Ticks_ISO_T2_5,220,1,48,43,1608352336
1049,10,Ticks_ISO_T2_5,221,5,42,127,1608833424
1049,10,Ticks_ISO_T2_5,222,1,48,46,1608836548
1049,10,Ticks_ISO_T2_5,223,5,42,127,1609333196
1049,10,Ticks_ISO_T2_5,224,1,48,51,1609361748
1049,10,Ticks_ISO_T2_5,225,5,42,127,1609832892
1049,10,Ticks_ISO_T2_5,226,1,48,47,1609841244
1049,10,Ticks_ISO_T2_5,227,1,48,45,1610287668
1049,10,Ticks_ISO_T2_5,228,5,42,127,1610332652
1049,10,Ticks_ISO_T2_5,229,5,42,127,1610833400
1049,10,Ticks_ISO_T2_5,230,1,48,48,1610852528
1049,10,Ticks_ISO_T2_5,231,1,48,50,1611327672
1049,10,Ticks_ISO_T2_5,232,5,42,127,1611332940
1049,10,Ticks_ISO_T2_5,233,5,42,127,1611832716
1049,10,Ticks_ISO_T2_5,234,1,48,47,1611877048
1049,10,Ticks_ISO_T2_5,235,5,42,127,1612333532
1049,10,Ticks_ISO_T2_5,236,1,48,46,1612344656
1049,10,Ticks_ISO_T2_5,237,1,48,44,1612820392
1049,10,Ticks_ISO_T2_5,238,5,42,127,1612833144
1049,10,Ticks_ISO_T2_5,239,1,48,50,1613329288
1049,10,Ticks_ISO_T2_5,240,5,42,127,1613332988
1049,10,Ticks_ISO_T2_5,241,1,48,48,1613814520
1049,10,Ticks_ISO_T2_5,242,5,42,127,1613832608
1049,10,Ticks_ISO_T2_5,243,5,42,127,1614333504
1049,10,Ticks_ISO_T2_5,244,1,48,29,1614348520
1049,10,Ticks_ISO_T2_5,245,1,48,41,1614819148
1049,10,Ticks_ISO_T2_5,246,5,42,127,1614832944
1049,10,Ticks_ISO_T2_5,247,1,48,57,1615324452
1049,10,Ticks_ISO_T2_5,248,5,42,127,1615332640
1049,10,Ticks_ISO_T2_5,249,1,48,46,1615816660
1049,10,Ticks_ISO_T2_5,250,5,42,127,1615832632
1049,10,Ticks_ISO_T2_5,251,1,48,49,1616313068
1049,10,Ticks_ISO_T2_5,252,5,42,127,1616333372
1049,10,Ticks_ISO_T2_5,253,1,48,47,1616800876
1049,10,Ticks_ISO_T2_5,254,5,42,127,1616832844
1049,10,Ticks_ISO_T2_5,255,1,48,49,1617316876
1049,10,Ticks_ISO_T2_5,256,5,42,127,1617332688
1049,10,Ticks_ISO_T2_5,257,1,48,46,1617779472
1049,10,Ticks_ISO_T2_5,0,9999,9999,9999,1552830540
1049,10,Ticks_ISO_T2_5,1,9999,9999,9999,1553330256
1049,10,Ticks_ISO_T2_5,2,9999,9999,9999,1553831020
1049,10,Ticks_ISO_T2_5,3,9999,9999,9999,1554330728
1049,10,Ticks_ISO_T2_5,4,9999,9999,9999,1554830428
1049,10,Ticks_ISO_T2_5,5,9999,9999,9999,1555330120
1049,10,Ticks_ISO_T2_5,6,9999,9999,9999,1555830860
1049,10,Ticks_ISO_T2_5,7,9999,9999,9999,1556330556
1049,10,Ticks_ISO_T2_5,8,9999,9999,9999,1556830328
1049,10,Ticks_ISO_T2_5,9,9999,9999,9999,1557330996
1049,10,Ticks_ISO_T2_5,10,9999,9999,9999,1557830764
1049,10,Ticks_ISO_T2_5,11,9999,9999,9999,1558330456
1049,10,Ticks_ISO_T2_5,12,9999,9999,9999,1558830152
1049,10,Ticks_ISO_T2_5,13,9999,9999,9999,1559330900
1049,10,Ticks_ISO_T2_5,14,9999,9999,9999,1559830596
1049,10,Ticks_ISO_T2_5,15,9999,9999,9999,1560330292
1049,10,Ticks_ISO_T2_5,16,9999,9999,9999,1560831024
1049,10,Ticks_ISO_T2_5,17,9999,9999,9999,1561330772
1049,10,Ticks_ISO_T2_5,18,9999,9999,9999,1561830468
1049,10,Ticks_ISO_T2_5,19,9999,9999,9999,1562330160
1049,10,Ticks_ISO_T2_5,20,9999,9999,9999,1562830904
1049,10,Ticks_ISO_T2_5,21,9999,9999,9999,1563330676
1049,10,Ticks_ISO_T2_5,22,9999,9999,9999,1563830376
1049,10,Ticks_ISO_T2_5,23,9999,9999,9999,1564331116
1049,10,Ticks_ISO_T2_5,24,9999,9999,9999,1564830812
1049,10,Ticks_ISO_T2_5,25,9999,9999,9999,1565330508
1049,10,Ticks_ISO_T2_5,26,9999,9999,9999,1565830200
1049,10,Ticks_ISO_T2_5,27,9999,9999,9999,1566330940
1049,10,Ticks_ISO_T2_5,28,9999,9999,9999,1566830704
1049,10,Ticks_ISO_T2_5,29,9999,9999,9999,1567330400
1049,10,Ticks_ISO_T2_5,30,9999,9999,9999,1567830096
1049,10,Ticks_ISO_T2_5,31,9999,9999,9999,1568330836
1049,10,Ticks_ISO_T2_5,32,9999,9999,9999,1568830532
1049,10,Ticks_ISO_T2_5,33,9999,9999,9999,1569330232
1049,10,Ticks_ISO_T2_5,34,9999,9999,9999,1569830968
1049,10,Ticks_ISO_T2_5,35,9999,9999,9999,1570330736
1049,10,Ticks_ISO_T2_5,36,9999,9999,9999,1570830388
1049,10,Ticks_ISO_T2_5,37,9999,9999,9999,1571330136
1049,10,Ticks_ISO_T2_5,38,9999,9999,9999,1571830844
1049,10,Ticks_ISO_T2_5,39,9999,9999,9999,1572330616
1049,10,Ticks_ISO_T2_5,40,9999,9999,9999,1572830308
1049,10,Ticks_ISO_T2_5,41,9999,9999,9999,1573331056
1049,10,Ticks_ISO_T2_5,42,9999,9999,9999,1573830752
1049,10,Ticks_ISO_T2_5,43,9999,9999,9999,1574330448
1049,10,Ticks_ISO_T2_5,44,9999,9999,9999,1574830136
1049,10,Ticks_ISO_T2_5,45,9999,9999,9999,1575330884
1049,10,Ticks_ISO_T2_5,46,9999,9999,9999,1575830576
1049,10,Ticks_ISO_T2_5,47,9999,9999,9999,1576330340
1049,10,Ticks_ISO_T2_5,48,9999,9999,9999,1576831088
1049,10,Ticks_ISO_T2_5,49,9999,9999,9999,1577330784
1049,10,Ticks_ISO_T2_5,50,9999,9999,9999,1577830480
1049,10,Ticks_ISO_T2_5,51,9999,9999,9999,1578330168
1049,10,Ticks_ISO_T2_5,52,9999,9999,9999,1578830912
1049,10,Ticks_ISO_T2_5,53,9999,9999,9999,1579330680
1049,10,Ticks_ISO_T2_5,54,9999,9999,9999,1579830376
1049,10,Ticks_ISO_T2_5,55,9999,9999,9999,1580331116
1049,10,Ticks_ISO_T2_5,56,9999,9999,9999,1580830812
1049,10,Ticks_ISO_T2_5,57,9999,9999,9999,1581330508
1049,10,Ticks_ISO_T2_5,58,9999,9999,9999,1581830200
1049,10,Ticks_ISO_T2_5,59,9999,9999,9999,1582330940
1049,10,Ticks_ISO_T2_5,60,9999,9999,9999,1582830684
1049,10,Ticks_ISO_T2_5,61,9999,9999,9999,1583330380
1049,10,Ticks_ISO_T2_5,62,9999,9999,9999,1583830076
1049,10,Ticks_ISO_T2_5,63,9999,9999,9999,1584330820
1049,10,Ticks_ISO_T2_5,64,9999,9999,9999,1584830512
1049,10,Ticks_ISO_T2_5,65,9999,9999,9999,1585330284
1049,10,Ticks_ISO_T2_5,66,9999,9999,9999,1585831024
1049,10,Ticks_ISO_T2_5,67,9999,9999,9999,1586330720
1049,10,Ticks_ISO_T2_5,68,9999,9999,9999,1586830420
1049,10,Ticks_ISO_T2_5,69,9999,9999,9999,1587330108
1049,10,Ticks_ISO_T2_5,70,9999,9999,9999,1587830856
1049,10,Ticks_ISO_T2_5,71,9999,9999,9999,1588330552
1049,10,Ticks_ISO_T2_5,72,9999,9999,9999,1588830320
1049,10,Ticks_ISO_T2_5,73,9999,9999,9999,1589331056
1049,10,Ticks_ISO_T2_5,74,9999,9999,9999,1589830756
1049,10,Ticks_ISO_T2_5,75,9999,9999,9999,1590330444
1049,10,Ticks_ISO_T2_5,76,9999,9999,9999,1590830148
1049,10,Ticks_ISO_T2_5,77,9999,9999,9999,1591330888
1049,10,Ticks_ISO_T2_5,78,9999,9999,9999,1591830580
1049,10,Ticks_ISO_T2_5,79,9999,9999,9999,1592330352
1049,10,Ticks_ISO_T2_5,80,9999,9999,9999,1592831092
1049,10,Ticks_ISO_T2_5,81,9999,9999,9999,1593330756
1049,10,Ticks_ISO_T2_5,82,9999,9999,9999,1593830456
1049,10,Ticks_ISO_T2_5,83,9999,9999,9999,1594330228
1049,10,Ticks_ISO_T2_5,84,9999,9999,9999,1594830964
1049,10,Ticks_ISO_T2_5,85,9999,9999,9999,1595330664
1049,10,Ticks_ISO_T2_5,86,9999,9999,9999,1595830360
1049,10,Ticks_ISO_T2_5,87,9999,9999,9999,1596331104
1049,10,Ticks_ISO_T2_5,88,9999,9999,9999,1596830796
1049,10,Ticks_ISO_T2_5,89,9999,9999,9999,1597330484
1049,10,Ticks_ISO_T2_5,90,9999,9999,9999,1597830256
1049,10,Ticks_ISO_T2_5,91,9999,9999,9999,1598330996
1049,10,Ticks_ISO_T2_5,92,9999,9999,9999,1598830692
1049,10,Ticks_ISO_T2_5,93,9999,9999,9999,1599330388
1049,10,Ticks_ISO_T2_5,94,9999,9999,9999,1599830080
1049,10,Ticks_ISO_T2_5,95,9999,9999,9999,1600330824
1049,10,Ticks_ISO_T2_5,96,9999,9999,9999,1600830516
1049,10,Ticks_ISO_T2_5,97,9999,9999,9999,1601330288
1049,10,Ticks_ISO_T2_5,98,9999,9999,9999,1601831028
1049,10,Ticks_ISO_T2_5,99,9999,9999,9999,1602330720
1049,10,Ticks_ISO_T2_5,100,9999,9999,9999,1602830416
1049,10,Ticks_ISO_T2_5,101,9999,9999,9999,1603330112
1049,10,Ticks_ISO_T2_5,102,9999,9999,9999,1603830832
1049,10,Ticks_ISO_T2_5,103,9999,9999,9999,1604330600
1049,10,Ticks_ISO_T2_5,104,9999,9999,9999,1604830288
1049,10,Ticks_ISO_T2_5,105,9999,9999,9999,1605331036
1049,10,Ticks_ISO_T2_5,106,9999,9999,9999,1605830732
1049,10,Ticks_ISO_T2_5,107,9999,9999,9999,1606330424
1049,10,Ticks_ISO_T2_5,108,9999,9999,9999,1606830192
1049,10,Ticks_ISO_T2_5,109,9999,9999,9999,1607330936
1049,10,Ticks_ISO_T2_5,110,9999,9999,9999,1607830628
1049,10,Ticks_ISO_T2_5,111,9999,9999,9999,1608330324
1049,10,Ticks_ISO_T2_5,112,9999,9999,9999,1608831064
1049,10,Ticks_ISO_T2_5,113,9999,9999,9999,1609330760
1049,10,Ticks_ISO_T2_5,114,9999,9999,9999,1609830456
1049,10,Ticks_ISO_T2_5,115,9999,9999,9999,1610330216
1049,10,Ticks_ISO_T2_5,116,9999,9999,9999,1610830964
1049,10,Ticks_ISO_T2_5,117,9999,9999,9999,1611330652
1049,10,Ticks_ISO_T2_5,118,9999,9999,9999,1611830352
1049,10,Ticks_ISO_T2_5,119,9999,9999,9999,1612331096
1049,10,Ticks_ISO_T2_5,120,9999,9999,9999,1612830784
1049,10,Ticks_ISO_T2_5,121,9999,9999,9999,1613330552
1049,10,Ticks_ISO_T2_5,122,9999,9999,9999,1613830248
1049,10,Ticks_ISO_T2_5,123,9999,9999,9999,1614330992
1049,10,Ticks_ISO_T2_5,124,9999,9999,9999,1614830660
1049,10,Ticks_ISO_T2_5,125,9999,9999,9999,1615330352
1049,10,Ticks_ISO_T2_5,126,9999,9999,9999,1615830120
1049,10,Ticks_ISO_T2_5,127,9999,9999,9999,1616330864
1049,10,Ticks_ISO_T2_5,128,9999,9999,9999,1616830560
1049,10,Ticks_ISO_T2_5,129,9999,9999,9999,1617330256
10410,9,Ticks_ISO_T2_8,0,5,42,127,1626990048
10410,9,Ticks_ISO_T2_8,1,5,42,127,1627789656
10410,9,Ticks_ISO_T2_8,2,5,42,127,1628589412
10410,9,Ticks_ISO_T2_8,3,5,42,127,1629390140
10410,9,Ticks_ISO_T2_8,4,5,42,127,1630190040
10410,9,Ticks_ISO_T2_8,5,5,42,127,1630989600
10410,9,Ticks_ISO_T2_8,6,5,42,127,1631789504
10410,9,Ticks_ISO_T2_8,7,5,42,127,1632590304
10410,9,Ticks_ISO_T2_8,8,1,48,52,1633321728
10410,9,Ticks_ISO_T2_8,9,5,42,127,1633389904
10410,9,Ticks_ISO_T2_8,10,1,48,35,1634114808
10410,9,Ticks_ISO_T2_8,11,5,42,127,1634189712
10410,9,Ticks_ISO_T2_8,12,5,42,127,1634989528
10410,9,Ticks_ISO_T2_8,13,1,48,30,1635005812
10410,9,Ticks_ISO_T2_8,14,5,42,127,1635790308
10410,9,Ticks_ISO_T2_8,15,1,48,42,1635807040
10410,9,Ticks_ISO_T2_8,16,5,42,127,1636590040
10410,9,Ticks_ISO_T2_8,17,1,48,44,1636617496
10410,9,Ticks_ISO_T2_8,18,5,42,127,1637389800
10410,9,Ticks_ISO_T2_8,19,1,48,44,1637410272
10410,9,Ticks_ISO_T2_8,20,5,42,127,1638189384
10410,9,Ticks_ISO_T2_8,21,1,48,40,1638200056
10410,9,Ticks_ISO_T2_8,22,5,42,127,1638990388
10410,9,Ticks_ISO_T2_8,23,1,48,47,1638995748
10410,9,Ticks_ISO_T2_8,24,1,48,52,1639763156
10410,9,Ticks_ISO_T2_8,25,5,42,127,1639789892
10410,9,Ticks_ISO_T2_8,26,1,48,45,1640589484
10410,9,Ticks_ISO_T2_8,27,5,42,127,1640590748
10410,9,Ticks_ISO_T2_8,28,5,42,127,1641389440
10410,9,Ticks_ISO_T2_8,29,1,48,44,1641413804
10410,9,Ticks_ISO_T2_8,30,5,42,127,1642190520
10410,9,Ticks_ISO_T2_8,31,1,48,44,1642203884
10410,9,Ticks_ISO_T2_8,32,5,42,127,1642989880
10410,9,Ticks_ISO_T2_8,33,1,48,38,1643013064
10410,9,Ticks_ISO_T2_8,34,1,48,44,1643782112
10410,9,Ticks_ISO_T2_8,35,5,42,127,1643789704
10410,9,Ticks_ISO_T2_8,36,5,42,127,1644589300
10410,9,Ticks_ISO_T2_8,37,1,48,41,1644620388
10410,9,Ticks_ISO_T2_8,38,5,42,127,1645390300
10410,9,Ticks_ISO_T2_8,39,1,48,44,1645398212
10410,9,Ticks_ISO_T2_8,40,5,42,127,1646189888
10410,9,Ticks_ISO_T2_8,41,1,48,48,1646193976
10410,9,Ticks_ISO_T2_8,42,5,42,127,1646989544
10410,9,Ticks_ISO_T2_8,43,1,48,47,1647021312
10410,9,Ticks_ISO_T2_8,44,1,48,50,1647764704
10410,9,Ticks_ISO_T2_8,45,5,42,127,1647789420
10410,9,Ticks_ISO_T2_8,46,1,48,43,1648545360
10410,9,Ticks_ISO_T2_8,47,5,42,127,1648590348
10410,9,Ticks_ISO_T2_8,48,1,48,46,1649340984
10410,9,Ticks_ISO_T2_8,49,5,42,127,1649390084
10410,9,Ticks_ISO_T2_8,50,1,48,48,1650150140
10410,9,Ticks_ISO_T2_8,51,5,42,127,1650189616
10410,9,Ticks_ISO_T2_8,52,1,48,47,1650922872
10410,9,Ticks_ISO_T2_8,53,5,42,127,1650989352
10410,9,Ticks_ISO_T2_8,54,1,48,45,1651725544
10410,9,Ticks_ISO_T2_8,55,5,42,127,1651790128
10410,9,Ticks_ISO_T2_8,56,1,48,48,1652536120
10410,9,Ticks_ISO_T2_8,57,5,42,127,1652590236
10410,9,Ticks_ISO_T2_8,58,1,48,45,1653336384
10410,9,Ticks_ISO_T2_8,59,5,42,127,1653389744
10410,9,Ticks_ISO_T2_8,60,1,48,43,1654174260
10410,9,Ticks_ISO_T2_8,61,5,42,127,1654189404
10410,9,Ticks_ISO_T2_8,62,5,42,127,1654990116
10410,9,Ticks_ISO_T2_8,63,1,48,45,1655001984
10410,9,Ticks_ISO_T2_8,64,1,48,44,1655752936
10410,9,Ticks_ISO_T2_8,65,5,42,127,1655790140
10410,9,Ticks_ISO_T2_8,66,1,48,43,1656562092
10410,9,Ticks_ISO_T2_8,67,5,42,127,1656589676
10410,9,Ticks_ISO_T2_8,68,1,48,39,1657346964
10410,9,Ticks_ISO_T2_8,69,5,42,127,1657389484
10410,9,Ticks_ISO_T2_8,70,1,48,50,1658129344
10410,9,Ticks_ISO_T2_8,71,5,42,127,1658190264
10410,9,Ticks_ISO_T2_8,72,1,48,44,1658959744
10410,9,Ticks_ISO_T2_8,73,5,42,127,1658990148
10410,9,Ticks_ISO_T2_8,74,1,48,51,1659772864
10410,9,Ticks_ISO_T2_8,75,5,42,127,1659789584
10410,9,Ticks_ISO_T2_8,76,5,42,127,1660589400
10410,9,Ticks_ISO_T2_8,77,1,48,48,1660628864
10410,9,Ticks_ISO_T2_8,78,1,48,50,1661373156
10410,9,Ticks_ISO_T2_8,79,5,42,127,1661390244
10410,9,Ticks_ISO_T2_8,80,1,48,43,1662142148
10410,9,Ticks_ISO_T2_8,81,5,42,127,1662190052
10410,9,Ticks_ISO_T2_8,82,1,48,50,1662912860
10410,9,Ticks_ISO_T2_8,83,5,42,127,1662989588
10410,9,Ticks_ISO_T2_8,84,1,48,47,1663729800
10410,9,Ticks_ISO_T2_8,85,5,42,127,1663789320
10410,9,Ticks_ISO_T2_8,86,1,48,45,1664480612
10410,9,Ticks_ISO_T2_8,87,5,42,127,1664590160
10410,9,Ticks_ISO_T2_8,88,1,48,56,1665290768
10410,9,Ticks_ISO_T2_8,89,5,42,127,1665390044
10410,9,Ticks_ISO_T2_8,90,1,48,44,1666128424
10410,9,Ticks_ISO_T2_8,91,5,42,127,1666189640
10410,9,Ticks_ISO_T2_8,92,1,48,45,1666890532
10410,9,Ticks_ISO_T2_8,93,5,42,127,1666989436
10410,9,Ticks_ISO_T2_8,94,1,48,44,1667694300
10410,9,Ticks_ISO_T2_8,95,5,42,127,1667790152
10410,9,Ticks_ISO_T2_8,96,1,48,44,1668493368
10410,9,Ticks_ISO_T2_8,97,5,42,127,1668590024
10410,9,Ticks_ISO_T2_8,98,1,48,47,1669279860
10410,9,Ticks_ISO_T2_8,99,5,42,127,1669389704
10410,9,Ticks_ISO_T2_8,100,1,48,35,1670075552
10410,9,Ticks_ISO_T2_8,101,5,42,127,1670189436
10410,9,Ticks_ISO_T2_8,102,1,48,35,1670880220
10410,9,Ticks_ISO_T2_8,103,5,42,127,1670990216
10410,9,Ticks_ISO_T2_8,104,1,48,45,1671694112
10410,9,Ticks_ISO_T2_8,105,5,42,127,1671790116
10410,9,Ticks_ISO_T2_8,106,1,48,42,1672554284
10410,9,Ticks_ISO_T2_8,107,5,42,127,1672589624
10410,9,Ticks_ISO_T2_8,108,5,42,127,1673389440
10410,9,Ticks_ISO_T2_8,109,1,48,28,1673405344
10410,9,Ticks_ISO_T2_8,110,1,48,42,1674172604
10410,9,Ticks_ISO_T2_8,111,5,42,127,1674190288
10410,9,Ticks_ISO_T2_8,112,1,48,44,1674940320
10410,9,Ticks_ISO_T2_8,113,5,42,127,1674990096
10410,9,Ticks_ISO_T2_8,114,1,48,39,1675732868
10410,9,Ticks_ISO_T2_8,115,5,42,127,1675789556
10410,9,Ticks_ISO_T2_8,116,1,48,43,1676513532
10410,9,Ticks_ISO_T2_8,117,5,42,127,1676589288
10410,9,Ticks_ISO_T2_8,118,1,48,44,1677346720
10410,9,Ticks_ISO_T2_8,119,5,42,127,1677390068
10410,9,Ticks_ISO_T2_8,120,1,48,46,1678114896
10410,9,Ticks_ISO_T2_8,121,5,42,127,1678190172
10410,9,Ticks_ISO_T2_8,122,1,48,45,1678895180
10410,9,Ticks_ISO_T2_8,123,5,42,127,1678989816
10410,9,Ticks_ISO_T2_8,124,1,48,27,1679659684
10410,9,Ticks_ISO_T2_8,125,5,42,127,1679789400
10410,9,Ticks_ISO_T2_8,126,1,48,43,1680405564
10410,9,Ticks_ISO_T2_8,127,5,42,127,1680590180
10410,9,Ticks_ISO_T2_8,128,1,48,48,1681301260
10410,9,Ticks_ISO_T2_8,129,5,42,127,1681390152
10410,9,Ticks_ISO_T2_8,130,1,48,47,1682113108
10410,9,Ticks_ISO_T2_8,131,5,42,127,1682189612
10410,9,Ticks_ISO_T2_8,132,1,48,45,1682948176
10410,9,Ticks_ISO_T2_8,133,5,42,127,1682989348
10410,9,Ticks_ISO_T2_8,134,1,48,49,1683719856
10410,9,Ticks_ISO_T2_8,135,5,42,127,1683790200
10410,9,Ticks_ISO_T2_8,136,1,48,44,1684523704
10410,9,Ticks_ISO_T2_8,137,5,42,127,1684590012
10410,9,Ticks_ISO_T2_8,138,1,48,48,1685260464
10410,9,Ticks_ISO_T2_8,139,5,42,127,1685389956
10410,9,Ticks_ISO_T2_8,140,1,48,44,1686055928
10410,9,Ticks_ISO_T2_8,141,5,42,127,1686189464
10410,9,Ticks_ISO_T2_8,142,1,48,46,1686783632
10410,9,Ticks_ISO_T2_8,143,5,42,127,1686990172
10410,9,Ticks_ISO_T2_8,144,1,48,41,1687548588
10410,9,Ticks_ISO_T2_8,145,5,42,127,1687789904
10410,9,Ticks_ISO_T2_8,146,1,48,49,1688255992
10410,9,Ticks_ISO_T2_8,147,5,42,127,1688590032
10410,9,Ticks_ISO_T2_8,148,1,48,45,1689132496
10410,9,Ticks_ISO_T2_8,149,5,42,127,1689389468
10410,9,Ticks_ISO_T2_8,150,1,48,45,1689923704
10410,9,Ticks_ISO_T2_8,151,5,42,127,1690190248
10410,9,Ticks_ISO_T2_8,152,1,48,46,1690651028
10410,9,Ticks_ISO_T2_8,153,5,42,127,1690989908
10410,9,Ticks_ISO_T2_8,154,1,48,43,1691464076
10410,9,Ticks_ISO_T2_8,155,5,42,127,1691789716
10410,9,Ticks_ISO_T2_8,156,1,48,42,1692205244
10410,9,Ticks_ISO_T2_8,157,5,42,127,1692589448
10410,9,Ticks_ISO_T2_8,158,1,48,37,1692925912
10410,9,Ticks_ISO_T2_8,159,5,42,127,1693390304
10410,9,Ticks_ISO_T2_8,160,1,48,44,1693743896
10410,9,Ticks_ISO_T2_8,161,5,42,127,1694189888
10410,9,Ticks_ISO_T2_8,162,1,48,44,1694557324
10410,9,Ticks_ISO_T2_8,163,5,42,127,1694989796
10410,9,Ticks_ISO_T2_8,164,1,48,37,1695291376
10410,9,Ticks_ISO_T2_8,165,5,42,127,1695789380
10410,9,Ticks_ISO_T2_8,166,1,48,38,1696150656
10410,9,Ticks_ISO_T2_8,167,5,42,127,1696590232
10410,9,Ticks_ISO_T2_8,168,1,48,42,1696880224
10410,9,Ticks_ISO_T2_8,169,5,42,127,1697389816
10410,9,Ticks_ISO_T2_8,170,1,48,30,1697749148
10410,9,Ticks_ISO_T2_8,171,5,42,127,1698189696
10410,9,Ticks_ISO_T2_8,172,1,48,36,1698534068
10410,9,Ticks_ISO_T2_8,173,5,42,127,1698989284
10410,9,Ticks_ISO_T2_8,174,1,48,42,1699331880
10410,9,Ticks_ISO_T2_8,175,5,42,127,1699790212
10410,9,Ticks_ISO_T2_8,176,1,48,42,1700090848
10410,9,Ticks_ISO_T2_8,177,5,42,127,1700590020
10410,9,Ticks_ISO_T2_8,178,1,48,29,1700973008
10410,9,Ticks_ISO_T2_8,179,5,42,127,1701389628
10410,9,Ticks_ISO_T2_8,180,1,48,40,1701762124
10410,9,Ticks_ISO_T2_8,181,5,42,127,1702189360
10410,9,Ticks_ISO_T2_8,182,1,48,29,1702513912
10410,9,Ticks_ISO_T2_8,183,5,42,127,1702990216
10410,9,Ticks_ISO_T2_8,184,1,48,45,1703322168
10410,9,Ticks_ISO_T2_8,185,5,42,127,1703790024
10410,9,Ticks_ISO_T2_8,186,1,48,49,1704109192
10410,9,Ticks_ISO_T2_8,187,5,42,127,1704589684
10410,9,Ticks_ISO_T2_8,188,1,48,46,1704911096
10410,9,Ticks_ISO_T2_8,189,5,42,127,1705389420
10410,9,Ticks_ISO_T2_8,190,1,48,44,1705707084
10410,9,Ticks_ISO_T2_8,191,5,42,127,1706190124
10410,9,Ticks_ISO_T2_8,192,1,48,46,1706521204
10410,9,Ticks_ISO_T2_8,193,5,42,127,1706990004
10410,9,Ticks_ISO_T2_8,194,1,48,45,1707299248
10410,9,Ticks_ISO_T2_8,195,5,42,127,1707789912
10410,9,Ticks_ISO_T2_8,196,1,48,45,1708096360
10410,9,Ticks_ISO_T2_8,197,5,42,127,1708589348
10410,9,Ticks_ISO_T2_8,198,1,48,44,1708907764
10410,9,Ticks_ISO_T2_8,199,5,42,127,1709390128
10410,9,Ticks_ISO_T2_8,200,1,48,52,1709718792
10410,9,Ticks_ISO_T2_8,201,5,42,127,1710189860
10410,9,Ticks_ISO_T2_8,202,1,48,41,1710493092
10410,9,Ticks_ISO_T2_8,203,5,42,127,1710989964
10410,9,Ticks_ISO_T2_8,204,1,48,46,1711286916
10410,9,Ticks_ISO_T2_8,205,5,42,127,1711789624
10410,9,Ticks_ISO_T2_8,206,1,48,36,1712089344
10410,9,Ticks_ISO_T2_8,207,5,42,127,1712590184
10410,9,Ticks_ISO_T2_8,208,1,48,47,1712862524
10410,9,Ticks_ISO_T2_8,209,5,42,127,1713390064
10410,9,Ticks_ISO_T2_8,210,1,48,39,1713697660
10410,9,Ticks_ISO_T2_8,211,5,42,127,1714189896
10410,9,Ticks_ISO_T2_8,212,1,48,50,1714499792
10410,9,Ticks_ISO_T2_8,213,5,42,127,1714989708
10410,9,Ticks_ISO_T2_8,214,1,48,46,1715236168
10410,9,Ticks_ISO_T2_8,215,5,42,127,1715790112
10410,9,Ticks_ISO_T2_8,216,1,48,46,1716083544
10410,9,Ticks_ISO_T2_8,217,5,42,127,1716589996
10410,9,Ticks_ISO_T2_8,218,1,48,50,1716876772
10410,9,Ticks_ISO_T2_8,219,5,42,127,1717389804
10410,9,Ticks_ISO_T2_8,220,1,48,46,1717753644
10410,9,Ticks_ISO_T2_8,221,5,42,127,1718189608
10410,9,Ticks_ISO_T2_8,222,1,48,47,1718500172
10410,9,Ticks_ISO_T2_8,223,5,42,127,1718990388
10410,9,Ticks_ISO_T2_8,224,1,48,48,1719297092
10410,9,Ticks_ISO_T2_8,225,5,42,127,1719789972
10410,9,Ticks_ISO_T2_8,226,1,48,43,1720040396
10410,9,Ticks_ISO_T2_8,227,5,42,127,1720589732
10410,9,Ticks_ISO_T2_8,228,1,48,51,1720881376
10410,9,Ticks_ISO_T2_8,229,5,42,127,1721389692
10410,9,Ticks_ISO_T2_8,230,1,48,40,1721718280
10410,9,Ticks_ISO_T2_8,231,5,42,127,1722190172
10410,9,Ticks_ISO_T2_8,232,1,48,35,1722526536
10410,9,Ticks_ISO_T2_8,0,9999,9999,9999,1626987612
10410,9,Ticks_ISO_T2_8,1,9999,9999,9999,1627787364
10410,9,Ticks_ISO_T2_8,2,9999,9999,9999,1628587120
10410,9,Ticks_ISO_T2_8,3,9999,9999,9999,1629387848
10410,9,Ticks_ISO_T2_8,4,9999,9999,9999,1630187604
10410,9,Ticks_ISO_T2_8,5,9999,9999,9999,1630987312
10410,9,Ticks_ISO_T2_8,6,9999,9999,9999,1631787064
10410,9,Ticks_ISO_T2_8,7,9999,9999,9999,1632587868
10410,9,Ticks_ISO_T2_8,8,9999,9999,9999,1633387616
10410,9,Ticks_ISO_T2_8,9,9999,9999,9999,1634187348
10410,9,Ticks_ISO_T2_8,10,9999,9999,9999,1634987092
10410,9,Ticks_ISO_T2_8,11,9999,9999,9999,1635787868
10410,9,Ticks_ISO_T2_8,12,9999,9999,9999,1636587604
10410,9,Ticks_ISO_T2_8,13,9999,9999,9999,1637387360
10410,9,Ticks_ISO_T2_8,14,9999,9999,9999,1638187096
10410,9,Ticks_ISO_T2_8,15,9999,9999,9999,1638987876
10410,9,Ticks_ISO_T2_8,16,9999,9999,9999,1639787600
10410,9,Ticks_ISO_T2_8,17,9999,9999,9999,1640587344
10410,9,Ticks_ISO_T2_8,18,9999,9999,9999,1641387076
10410,9,Ticks_ISO_T2_8,19,9999,9999,9999,1642187856
10410,9,Ticks_ISO_T2_8,20,9999,9999,9999,1642987592
10410,9,Ticks_ISO_T2_8,21,9999,9999,9999,1643787340
10410,9,Ticks_ISO_T2_8,22,9999,9999,9999,1644587084
10410,9,Ticks_ISO_T2_8,23,9999,9999,9999,1645387864
10410,9,Ticks_ISO_T2_8,24,9999,9999,9999,1646187596
10410,9,Ticks_ISO_T2_8,25,9999,9999,9999,1646987332
10410,9,Ticks_ISO_T2_8,26,9999,9999,9999,1647787056
10410,9,Ticks_ISO_T2_8,27,9999,9999,9999,1648587836
10410,9,Ticks_ISO_T2_8,28,9999,9999,9999,1649387572
10410,9,Ticks_ISO_T2_8,29,9999,9999,9999,1650187328
10410,9,Ticks_ISO_T2_8,30,9999,9999,9999,1650987060
10410,9,Ticks_ISO_T2_8,31,9999,9999,9999,1651787840
10410,9,Ticks_ISO_T2_8,32,9999,9999,9999,1652587572
10410,9,Ticks_ISO_T2_8,33,9999,9999,9999,1653387384
10410,9,Ticks_ISO_T2_8,34,9999,9999,9999,1654187116
10410,9,Ticks_ISO_T2_8,35,9999,9999,9999,1654987828
10410,9,Ticks_ISO_T2_8,36,9999,9999,9999,1655787628
10410,9,Ticks_ISO_T2_8,37,9999,9999,9999,1656587316
10410,9,Ticks_ISO_T2_8,38,9999,9999,9999,1657387124
10410,9,Ticks_ISO_T2_8,39,9999,9999,9999,1658187828
10410,9,Ticks_ISO_T2_8,40,9999,9999,9999,1658987636
10410,9,Ticks_ISO_T2_8,41,9999,9999,9999,1659787368
10410,9,Ticks_ISO_T2_8,42,9999,9999,9999,1660587108
10410,9,Ticks_ISO_T2_8,43,9999,9999,9999,1661387884
10410,9,Ticks_ISO_T2_8,44,9999,9999,9999,1662187616
10410,9,Ticks_ISO_T2_8,45,9999,9999,9999,1662987372
10410,9,Ticks_ISO_T2_8,46,9999,9999,9999,1663787104
10410,9,Ticks_ISO_T2_8,47,9999,9999,9999,1664587872
10410,9,Ticks_ISO_T2_8,48,9999,9999,9999,1665387620
10410,9,Ticks_ISO_T2_8,49,9999,9999,9999,1666187352
10410,9,Ticks_ISO_T2_8,50,9999,9999,9999,1666987072
10410,9,Ticks_ISO_T2_8,51,9999,9999,9999,1667787864
10410,9,Ticks_ISO_T2_8,52,9999,9999,9999,1668587584
10410,9,Ticks_ISO_T2_8,53,9999,9999,9999,1669387344
10410,9,Ticks_ISO_T2_8,54,9999,9999,9999,1670187072
10410,9,Ticks_ISO_T2_8,55,9999,9999,9999,1670987852
10410,9,Ticks_ISO_T2_8,56,9999,9999,9999,1671787600
10410,9,Ticks_ISO_T2_8,57,9999,9999,9999,1672587336
10410,9,Ticks_ISO_T2_8,58,9999,9999,9999,1673387076
10410,9,Ticks_ISO_T2_8,59,9999,9999,9999,1674187848
10410,9,Ticks_ISO_T2_8,60,9999,9999,9999,1674987584
10410,9,Ticks_ISO_T2_8,61,9999,9999,9999,1675787340
10410,9,Ticks_ISO_T2_8,62,9999,9999,9999,1676587072
10410,9,Ticks_ISO_T2_8,63,9999,9999,9999,1677387852
10410,9,Ticks_ISO_T2_8,64,9999,9999,9999,1678187588
10410,9,Ticks_ISO_T2_8,65,9999,9999,9999,1678987320
10410,9,Ticks_ISO_T2_8,66,9999,9999,9999,1679787112
10410,9,Ticks_ISO_T2_8,67,9999,9999,9999,1680587892
10410,9,Ticks_ISO_T2_8,68,9999,9999,9999,1681387568
10410,9,Ticks_ISO_T2_8,69,9999,9999,9999,1682187324
10410,9,Ticks_ISO_T2_8,70,9999,9999,9999,1682987060
10410,9,Ticks_ISO_T2_8,71,9999,9999,9999,1683787836
10410,9,Ticks_ISO_T2_8,72,9999,9999,9999,1684587572
10410,9,Ticks_ISO_T2_8,73,9999,9999,9999,1685387368
10410,9,Ticks_ISO_T2_8,74,9999,9999,9999,1686187100
10410,9,Ticks_ISO_T2_8,75,9999,9999,9999,1686987880
10410,9,Ticks_ISO_T2_8,76,9999,9999,9999,1687787612
10410,9,Ticks_ISO_T2_8,77,9999,9999,9999,1688587372
10410,9,Ticks_ISO_T2_8,78,9999,9999,9999,1689387104
10410,9,Ticks_ISO_T2_8,79,9999,9999,9999,1690187884
10410,9,Ticks_ISO_T2_8,80,9999,9999,9999,1690987616
10410,9,Ticks_ISO_T2_8,81,9999,9999,9999,1691787352
10410,9,Ticks_ISO_T2_8,82,9999,9999,9999,1692587084
10410,9,Ticks_ISO_T2_8,83,9999,9999,9999,1693387868
10410,9,Ticks_ISO_T2_8,84,9999,9999,9999,1694187600
10410,9,Ticks_ISO_T2_8,85,9999,9999,9999,1694987356
10410,9,Ticks_ISO_T2_8,86,9999,9999,9999,1695787088
10410,9,Ticks_ISO_T2_8,87,9999,9999,9999,1696587868
10410,9,Ticks_ISO_T2_8,88,9999,9999,9999,1697387600
10410,9,Ticks_ISO_T2_8,89,9999,9999,9999,1698187332
10410,9,Ticks_ISO_T2_8,90,9999,9999,9999,1698987068
10410,9,Ticks_ISO_T2_8,91,9999,9999,9999,1699787848
10410,9,Ticks_ISO_T2_8,92,9999,9999,9999,1700587580
10410,9,Ticks_ISO_T2_8,93,9999,9999,9999,1701387340
10410,9,Ticks_ISO_T2_8,94,9999,9999,9999,1702187072
10410,9,Ticks_ISO_T2_8,95,9999,9999,9999,1702987852
10410,9,Ticks_ISO_T2_8,96,9999,9999,9999,1703787584
10410,9,Ticks_ISO_T2_8,97,9999,9999,9999,1704587320
10410,9,Ticks_ISO_T2_8,98,9999,9999,9999,1705387128
10410,9,Ticks_ISO_T2_8,99,9999,9999,9999,1706187832
10410,9,Ticks_ISO_T2_8,100,9999,9999,9999,1706987568
10410,9,Ticks_ISO_T2_8,101,9999,9999,9999,1707787324
10410,9,Ticks_ISO_T2_8,102,9999,9999,9999,1708587060
10410,9,Ticks_ISO_T2_8,103,9999,9999,9999,1709387840
10410,9,Ticks_ISO_T2_8,104,9999,9999,9999,1710187572
10410,9,Ticks_ISO_T2_8,105,9999,9999,9999,1710987380
10410,9,Ticks_ISO_T2_8,106,9999,9999,9999,1711787112
10410,9,Ticks_ISO_T2_8,107,9999,9999,9999,1712587892
10410,9,Ticks_ISO_T2_8,108,9999,9999,9999,1713387628
10410,9,Ticks_ISO_T2_8,109,9999,9999,9999,1714187312
10410,9,Ticks_ISO_T2_8,110,9999,9999,9999,1714987120
10410,9,Ticks_ISO_T2_8,111,9999,9999,9999,1715787824
10410,9,Ticks_ISO_T2_8,112,9999,9999,9999,1716587632
10410,9,Ticks_ISO_T2_8,113,9999,9999,9999,1717387364
10410,9,Ticks_ISO_T2_8,114,9999,9999,9999,1718187096
10410,9,Ticks_ISO_T2_8,115,9999,9999,9999,1718987876
10410,9,Ticks_ISO_T2_8,116,9999,9999,9999,1719787608
10410,9,Ticks_ISO_T2_8,117,9999,9999,9999,1720587372
10410,9,Ticks_ISO_T2_8,118,9999,9999,9999,1721387104
10410,9,Ticks_ISO_T2_8,119,9999,9999,9999,1722187884
10411,25,Jits_Pract_5,0,5,56,103,1765518660
10411,25,Jits_Pract_5,1,5,63,98,1765521828
10411,25,Jits_Pract_5,2,5,80,127,1765525028
10411,25,Jits_Pract_5,0,5,56,103,1766018460
10411,25,Jits_Pract_5,1,5,63,98,1766021480
10411,25,Jits_Pract_5,2,5,80,127,1766024676
10411,25,Jits_Pract_5,0,5,56,103,1766519324
10411,25,Jits_Pract_5,1,5,80,127,1766529372
10411,25,Jits_Pract_5,2,5,63,98,1766548856
10411,25,Jits_Pract_5,0,5,63,98,1766968720
10411,25,Jits_Pract_5,1,5,80,127,1766999368
10411,25,Jits_Pract_5,2,5,56,103,1767008592
10411,25,Jits_Pract_5,0,5,80,127,1767528684
10411,25,Jits_Pract_5,1,5,56,103,1767539176
10411,25,Jits_Pract_5,2,5,63,98,1767568628
10411,25,Jits_Pract_5,0,5,63,98,1768019440
10411,25,Jits_Pract_5,1,5,56,103,1768049188
10411,25,Jits_Pract_5,2,5,80,127,1768059236
10411,25,Jits_Pract_5,0,5,56,103,1768468748
10411,25,Jits_Pract_5,1,5,63,98,1768519248
10411,25,Jits_Pract_5,2,5,80,127,1768538364
10411,25,Jits_Pract_5,0,5,80,127,1768968416
10411,25,Jits_Pract_5,1,5,63,98,1769018692
10411,25,Jits_Pract_5,2,5,56,103,1769058704
10411,25,Jits_Pract_5,0,5,56,103,1769469428
10411,25,Jits_Pract_5,1,5,63,98,1769499104
10411,25,Jits_Pract_5,2,5,80,127,1769568560
10411,25,Jits_Pract_5,0,5,56,103,1769969444
10411,25,Jits_Pract_5,1,5,80,127,1770029392
10411,25,Jits_Pract_5,2,5,63,98,1770059216
10411,25,Jits_Pract_5,0,5,56,103,1770478908
10411,25,Jits_Pract_5,1,5,63,98,1770489128
10411,25,Jits_Pract_5,2,5,80,127,1770529288
10411,25,Jits_Pract_5,0,5,63,98,1770968308
10411,25,Jits_Pract_5,1,5,80,127,1771049476
10411,25,Jits_Pract_5,2,5,56,103,1771058476
10411,25,Jits_Pract_5,0,5,63,98,1771519308
10411,25,Jits_Pract_5,1,5,56,103,1771559248
10411,25,Jits_Pract_5,2,5,80,127,1771562164
10411,25,Jits_Pract_5,0,5,56,103,1771979152
10411,25,Jits_Pract_5,1,5,63,98,1771989348
10411,25,Jits_Pract_5,2,5,80,127,1772029384
10411,25,Jits_Pract_5,0,5,56,103,1772468552
10411,25,Jits_Pract_5,1,5,63,98,1772471468
10411,25,Jits_Pract_5,2,5,80,127,1772489160
10411,25,Jits_Pract_5,0,9999,9999,9999,1765766244
10411,25,Jits_Pract_5,1,9999,9999,9999,1766266944
10411,25,Jits_Pract_5,2,9999,9999,9999,1766766688
10411,25,Jits_Pract_5,3,9999,9999,9999,1767266428
10411,25,Jits_Pract_5,4,9999,9999,9999,1767766084
10411,25,Jits_Pract_5,5,9999,9999,9999,1768266804
10411,25,Jits_Pract_5,6,9999,9999,9999,1768766532
10411,25,Jits_Pract_5,7,9999,9999,9999,1769266276
10411,25,Jits_Pract_5,8,9999,9999,9999,1769766988
10411,25,Jits_Pract_5,9,9999,9999,9999,1770266712
10411,25,Jits_Pract_5,10,9999,9999,9999,1770766448
10411,25,Jits_Pract_5,11,9999,9999,9999,1771266120
10411,25,Jits_Pract_5,12,9999,9999,9999,1771766888
10411,25,Jits_Pract_5,13,9999,9999,9999,1772266596
10411,25,Jits_Pract_5,14,9999,9999,9999,1772766324
10412,25,Jits_Pract_5,0,5,56,103,1838563920
10412,25,Jits_Pract_5,1,5,63,98,1838567020
10412,25,Jits_Pract_5,2,5,80,127,1838569916
10412,25,Jits_Pract_5,0,5,56,103,1839064544
10412,25,Jits_Pract_5,1,5,63,98,1839067492
10412,25,Jits_Pract_5,2,5,80,127,1839070616
10412,25,Jits_Pract_5,3,1,48,21,1839085132
10412,25,Jits_Pract_5,0,5,56,103,1839564024
10412,25,Jits_Pract_5,1,5,80,127,1839574592
10412,25,Jits_Pract_5,2,1,48,37,1839589996
10412,25,Jits_Pract_5,3,5,63,98,1839593776
10412,25,Jits_Pract_5,0,5,63,98,1840013908
10412,25,Jits_Pract_5,1,5,80,127,1840044484
10412,25,Jits_Pract_5,2,5,56,103,1840053928
10412,25,Jits_Pract_5,3,1,48,42,1840070524
10412,25,Jits_Pract_5,0,1,48,43,1840541644
10412,25,Jits_Pract_5,1,5,80,127,1840573752
10412,25,Jits_Pract_5,2,5,56,103,1840584024
10412,25,Jits_Pract_5,3,5,63,98,1840613700
10412,25,Jits_Pract_5,0,5,63,98,1841064240
10412,25,Jits_Pract_5,1,1,48,42,1841093312
10412,25,Jits_Pract_5,2,5,56,103,1841094880
10412,25,Jits_Pract_5,3,5,80,127,1841104328
10412,25,Jits_Pract_5,0,5,56,103,1841513812
10412,25,Jits_Pract_5,1,5,63,98,1841563944
10412,25,Jits_Pract_5,2,5,80,127,1841583576
10412,25,Jits_Pract_5,3,1,48,43,1841628796
10412,25,Jits_Pract_5,0,5,80,127,1842013892
10412,25,Jits_Pract_5,1,5,63,98,1842063872
10412,25,Jits_Pract_5,2,5,56,103,1842103588
10412,25,Jits_Pract_5,3,1,48,46,1842124536
10412,25,Jits_Pract_5,0,5,56,103,1842514424
10412,25,Jits_Pract_5,1,5,63,98,1842543876
10412,25,Jits_Pract_5,2,1,48,37,1842612424
10412,25,Jits_Pract_5,3,5,80,127,1842613920
10412,25,Jits_Pract_5,0,5,56,103,1843014056
10412,25,Jits_Pract_5,1,5,80,127,1843074524
10412,25,Jits_Pract_5,2,1,48,43,1843089480
10412,25,Jits_Pract_5,3,5,63,98,1843104116
10412,25,Jits_Pract_5,0,5,56,103,1843523956
10412,25,Jits_Pract_5,1,5,63,98,1843534596
10412,25,Jits_Pract_5,2,5,80,127,1843574236
10412,25,Jits_Pract_5,3,1,48,41,1843581916
10412,25,Jits_Pract_5,0,5,63,98,1844013692
10412,25,Jits_Pract_5,1,1,48,41,1844029696
10412,25,Jits_Pract_5,2,5,80,127,1844094604
10412,25,Jits_Pract_5,3,5,56,103,1844103528
10412,25,Jits_Pract_5,0,5,63,98,1844564480
10412,25,Jits_Pract_5,1,1,48,45,1844565444
10412,25,Jits_Pract_5,2,5,56,103,1844604260
10412,25,Jits_Pract_5,3,5,80,127,1844607628
10412,25,Jits_Pract_5,0,5,56,103,1845024232
10412,25,Jits_Pract_5,1,5,63,98,1845034280
10412,25,Jits_Pract_5,2,1,48,46,1845060620
10412,25,Jits_Pract_5,3,5,80,127,1845074508
10412,25,Jits_Pract_5,0,5,56,103,1845513740
10412,25,Jits_Pract_5,1,5,63,98,1845516660
10412,25,Jits_Pract_5,2,1,48,44,1845531384
10412,25,Jits_Pract_5,3,5,80,127,1845534044
10412,25,Jits_Pract_5,0,9999,9999,9999,1838811208
10412,25,Jits_Pract_5,1,9999,9999,9999,1839311956
10412,25,Jits_Pract_5,2,9999,9999,9999,1839811668
10412,25,Jits_Pract_5,3,9999,9999,9999,1840311368
10412,25,Jits_Pract_5,4,9999,9999,9999,1840811068
10412,25,Jits_Pract_5,5,9999,9999,9999,1841311808
10412,25,Jits_Pract_5,6,9999,9999,9999,1841811576
10412,25,Jits_Pract_5,7,9999,9999,9999,1842311284
10412,25,Jits_Pract_5,8,9999,9999,9999,1842811964
10412,25,Jits_Pract_5,9,9999,9999,9999,1843311672
10412,25,Jits_Pract_5,10,9999,9999,9999,1843811452
10412,25,Jits_Pract_5,11,9999,9999,9999,1844311160
10412,25,Jits_Pract_5,12,9999,9999,9999,1844811892
10412,25,Jits_Pract_5,13,9999,9999,9999,1845311580
10412,25,Jits_Pract_5,14,9999,9999,9999,1845811268
10413,24,Jits_Pract_8,0,5,56,103,1855299952
10413,24,Jits_Pract_8,1,5,63,98,1855302900
10413,24,Jits_Pract_8,2,5,80,127,1855306020
10413,24,Jits_Pract_8,0,5,56,103,1856099820
10413,24,Jits_Pract_8,1,5,63,98,1856102840
10413,24,Jits_Pract_8,2,5,80,127,1856105964
10413,24,Jits_Pract_8,0,5,80,127,1856839988
10413,24,Jits_Pract_8,1,5,63,98,1856930048
10413,24,Jits_Pract_8,2,5,56,103,1856940540
10413,24,Jits_Pract_8,3,1,48,42,1856951004
10413,24,Jits_Pract_8,0,5,56,103,1857660432
10413,24,Jits_Pract_8,1,5,63,98,1857669584
10413,24,Jits_Pract_8,2,1,48,42,1857735472
10413,24,Jits_Pract_8,3,5,80,127,1857759480
10413,24,Jits_Pract_8,0,5,63,98,1858430456
10413,24,Jits_Pract_8,1,5,80,127,1858459912
10413,24,Jits_Pract_8,2,1,48,46,1858471948
10413,24,Jits_Pract_8,3,5,56,103,1858489652
10413,24,Jits_Pract_8,0,1,48,45,1859220664
10413,24,Jits_Pract_8,1,5,56,103,1859229980
10413,24,Jits_Pract_8,2,5,80,127,1859330612
10413,24,Jits_Pract_8,3,5,63,98,1859379540
10413,24,Jits_Pract_8,0,5,56,103,1860029744
10413,24,Jits_Pract_8,1,1,48,48,1860062604
10413,24,Jits_Pract_8,2,5,80,127,1860080112
10413,24,Jits_Pract_8,3,5,63,98,1860120048
10413,24,Jits_Pract_8,0,1,48,51,1860852276
10413,24,Jits_Pract_8,1,5,80,127,1860860468
10413,24,Jits_Pract_8,2,5,63,98,1860890144
10413,24,Jits_Pract_8,3,5,56,103,1860959512
10413,24,Jits_Pract_8,0,1,48,49,1861686040
10413,24,Jits_Pract_8,1,5,63,98,1861689824
10413,24,Jits_Pract_8,2,5,56,103,1861720548
10413,24,Jits_Pract_8,3,5,80,127,1861779816
10413,24,Jits_Pract_8,0,5,56,103,1862430176
10413,24,Jits_Pract_8,1,5,80,127,1862433240
10413,24,Jits_Pract_8,2,1,48,48,1862506328
10413,24,Jits_Pract_8,3,5,63,98,1862549816
10413,24,Jits_Pract_8,0,1,48,46,1863287580
10413,24,Jits_Pract_8,1,5,56,103,1863309572
10413,24,Jits_Pract_8,2,5,80,127,1863349588
10413,24,Jits_Pract_8,3,5,63,98,1863359708
10413,24,Jits_Pract_8,0,5,56,103,1864069484
10413,24,Jits_Pract_8,1,5,80,127,1864089868
10413,24,Jits_Pract_8,2,1,48,46,1864121460
10413,24,Jits_Pract_8,3,5,63,98,1864169804
10413,24,Jits_Pract_8,0,5,80,127,1864859964
10413,24,Jits_Pract_8,1,1,48,47,1864945964
10413,24,Jits_Pract_8,2,5,56,103,1864960528
10413,24,Jits_Pract_8,3,5,63,98,1864969528
10413,24,Jits_Pract_8,0,5,63,98,1865629996
10413,24,Jits_Pract_8,1,5,80,127,1865689564
10413,24,Jits_Pract_8,2,5,56,103,1865699760
10413,24,Jits_Pract_8,3,1,48,52,1865782760
10413,24,Jits_Pract_8,0,5,56,103,1866429752
10413,24,Jits_Pract_8,1,5,63,98,1866499456
10413,24,Jits_Pract_8,2,5,80,127,1866502744
10413,24,Jits_Pract_8,3,1,48,47,1866512612
10413,24,Jits_Pract_8,0,9999,9999,9999,1855698032
10413,24,Jits_Pract_8,1,9999,9999,9999,1856497776
10413,24,Jits_Pract_8,2,9999,9999,9999,1857297484
10413,24,Jits_Pract_8,3,9999,9999,9999,1858097256
10413,24,Jits_Pract_8,4,9999,9999,9999,1858897992
10413,24,Jits_Pract_8,5,9999,9999,9999,1859697752
10413,24,Jits_Pract_8,6,9999,9999,9999,1860497500
10413,24,Jits_Pract_8,7,9999,9999,9999,1861297272
10413,24,Jits_Pract_8,8,9999,9999,9999,1862098012
10413,24,Jits_Pract_8,9,9999,9999,9999,1862897780
10413,24,Jits_Pract_8,10,9999,9999,9999,1863697480
10413,24,Jits_Pract_8,11,9999,9999,9999,1864497240
10413,24,Jits_Pract_8,12,9999,9999,9999,1865297988
10413,24,Jits_Pract_8,13,9999,9999,9999,1866097756
10413,24,Jits_Pract_8,14,9999,9999,9999,1866897500
10414,17,Jits_Phase_5,0,5,56,103,1899023652
10414,17,Jits_Phase_5,1,5,63,98,1899026976
10414,17,Jits_Phase_5,2,5,80,127,1899030020
10414,17,Jits_Phase_5,0,5,56,103,1899523436
10414,17,Jits_Phase_5,1,5,63,98,1899526528
10414,17,Jits_Phase_5,2,5,80,127,1899529580
10414,17,Jits_Phase_5,0,5,56,103,1900024132
10414,17,Jits_Phase_5,1,5,80,127,1900034552
10414,17,Jits_Phase_5,2,5,63,98,1900054036
10414,17,Jits_Phase_5,0,5,63,98,1900473644
10414,17,Jits_Phase_5,1,1,48,52,1900491140
10414,17,Jits_Phase_5,2,5,80,127,1900504432
10414,17,Jits_Phase_5,3,5,56,103,1900513580
10414,17,Jits_Phase_5,0,1,48,54,1900989604
10414,17,Jits_Phase_5,1,5,80,127,1901033984
10414,17,Jits_Phase_5,2,5,56,103,1901043980
10414,17,Jits_Phase_5,3,5,63,98,1901073952
10414,17,Jits_Phase_5,0,5,63,98,1901524304
10414,17,Jits_Phase_5,1,5,56,103,1901554228
10414,17,Jits_Phase_5,2,5,80,127,1901564200
10414,17,Jits_Phase_5,3,1,48,44,1901567392
10414,17,Jits_Phase_5,0,5,56,103,1901974084
10414,17,Jits_Phase_5,1,5,63,98,1902024136
10414,17,Jits_Phase_5,2,5,80,127,1902043624
10414,17,Jits_Phase_5,3,1,48,34,1902088344
10414,17,Jits_Phase_5,0,5,80,127,1902473552
10414,17,Jits_Phase_5,1,5,63,98,1902523676
10414,17,Jits_Phase_5,2,1,48,44,1902550240
10414,17,Jits_Phase_5,3,5,56,103,1902563680
10414,17,Jits_Phase_5,0,5,56,103,1902974288
10414,17,Jits_Phase_5,1,5,63,98,1903004188
10414,17,Jits_Phase_5,2,1,48,43,1903043268
10414,17,Jits_Phase_5,3,5,80,127,1903073632
10414,17,Jits_Phase_5,0,5,56,103,1903474052
10414,17,Jits_Phase_5,1,1,48,45,1903510656
10414,17,Jits_Phase_5,2,5,80,127,1903533388
10414,17,Jits_Phase_5,3,5,63,98,1903564108
10414,17,Jits_Phase_5,0,5,56,103,1903983932
10414,17,Jits_Phase_5,1,5,63,98,1903994128
10414,17,Jits_Phase_5,2,1,48,42,1904007808
10414,17,Jits_Phase_5,3,5,80,127,1904034060
10414,17,Jits_Phase_5,0,5,63,98,1904473432
10414,17,Jits_Phase_5,1,1,48,46,1904491992
10414,17,Jits_Phase_5,2,5,80,127,1904554264
10414,17,Jits_Phase_5,3,5,56,103,1904563488
10414,17,Jits_Phase_5,0,1,48,47,1904999520
10414,17,Jits_Phase_5,1,5,63,98,1905024420
10414,17,Jits_Phase_5,2,5,56,103,1905064356
10414,17,Jits_Phase_5,3,5,80,127,1905067348
10414,17,Jits_Phase_5,0,5,56,103,1905484164
10414,17,Jits_Phase_5,1,5,63,98,1905494360
10414,17,Jits_Phase_5,2,1,48,46,1905520620
10414,17,Jits_Phase_5,3,5,80,127,1905534364
10414,17,Jits_Phase_5,0,5,56,103,1905973736
10414,17,Jits_Phase_5,1,5,63,98,1905976800
10414,17,Jits_Phase_5,2,1,48,43,1905986292
10414,17,Jits_Phase_5,3,5,80,127,1905994184
10414,17,Jits_Phase_5,0,1,48,47,1906462592
10414,17,Jits_Phase_5,1,5,80,127,1906483520
10414,17,Jits_Phase_5,2,5,56,103,1906494088
10414,17,Jits_Phase_5,3,5,63,98,1906563524
10414,17,Jits_Phase_5,0,1,48,48,1906959108
10414,17,Jits_Phase_5,1,5,63,98,1906973976
10414,17,Jits_Phase_5,2,5,56,103,1906993464
10414,17,Jits_Phase_5,3,5,80,127,1907074360
10414,17,Jits_Phase_5,0,1,48,45,1907475796
10414,17,Jits_Phase_5,1,5,56,103,1907483988
10414,17,Jits_Phase_5,2,5,80,127,1907524076
10414,17,Jits_Phase_5,3,5,63,98,1907534200
10414,17,Jits_Phase_5,0,1,48,41,1907972956
10414,17,Jits_Phase_5,1,5,80,127,1907974448
10414,17,Jits_Phase_5,2,5,63,98,1908004196
10414,17,Jits_Phase_5,3,5,56,103,1908044208
10414,17,Jits_Phase_5,0,1,48,43,1908483836
10414,17,Jits_Phase_5,1,5,56,103,1908493748
10414,17,Jits_Phase_5,2,5,63,98,1908524544
10414,17,Jits_Phase_5,3,5,80,127,1908573548
10414,17,Jits_Phase_5,0,5,80,127,1908994404
10414,17,Jits_Phase_5,1,1,48,41,1909002476
10414,17,Jits_Phase_5,2,5,56,103,1909034336
10414,17,Jits_Phase_5,3,5,63,98,1909043556
10414,17,Jits_Phase_5,0,5,80,127,1909473764
10414,17,Jits_Phase_5,1,1,48,46,1909494292
10414,17,Jits_Phase_5,2,5,63,98,1909513496
10414,17,Jits_Phase_5,3,5,56,103,1909574180
10414,17,Jits_Phase_5,0,1,48,50,1909970116
10414,17,Jits_Phase_5,1,5,56,103,1909974344
10414,17,Jits_Phase_5,2,5,80,127,1909983492
10414,17,Jits_Phase_5,3,5,63,98,1910063516
10414,17,Jits_Phase_5,0,1,48,53,1910464100
10414,17,Jits_Phase_5,1,5,80,127,1910484276
10414,17,Jits_Phase_5,2,5,63,98,1910543720
10414,17,Jits_Phase_5,3,5,56,103,1910573380
10414,17,Jits_Phase_5,0,1,48,49,1910956948
10414,17,Jits_Phase_5,1,5,56,103,1910984028
10414,17,Jits_Phase_5,2,5,80,127,1911043544
10414,17,Jits_Phase_5,3,5,63,98,1911084440
10414,17,Jits_Phase_5,0,1,48,49,1911464500
10414,17,Jits_Phase_5,1,5,56,103,1911534000
10414,17,Jits_Phase_5,2,5,63,98,1911544120
10414,17,Jits_Phase_5,3,5,80,127,1911547556
10414,17,Jits_Phase_5,0,1,48,46,1911971788
10414,17,Jits_Phase_5,1,5,80,127,1911983440
10414,17,Jits_Phase_5,2,5,63,98,1912073656
10414,17,Jits_Phase_5,3,5,56,103,1912084076
10414,17,Jits_Phase_5,0,5,56,103,1912484152
10414,17,Jits_Phase_5,1,5,63,98,1912487408
10414,17,Jits_Phase_5,2,5,80,127,1912490452
10414,17,Jits_Phase_5,3,1,48,40,1912528192
10414,17,Jits_Phase_5,0,1,48,42,1912983508
10414,17,Jits_Phase_5,1,5,80,127,1913004284
10414,17,Jits_Phase_5,2,5,63,98,1913053516
10414,17,Jits_Phase_5,3,5,56,103,1913084320
10414,17,Jits_Phase_5,0,5,56,103,1913483596
10414,17,Jits_Phase_5,1,5,80,127,1913494012
10414,17,Jits_Phase_5,2,1,48,37,1913547472
10414,17,Jits_Phase_5,3,5,63,98,1913563536
10414,17,Jits_Phase_5,0,5,56,103,1913993472
10414,17,Jits_Phase_5,1,5,63,98,1914014156
10414,17,Jits_Phase_5,2,1,48,44,1914026344
10414,17,Jits_Phase_5,3,5,80,127,1914073416
10414,17,Jits_Phase_5,0,5,80,127,1914473988
10414,17,Jits_Phase_5,1,1,48,42,1914536068
10414,17,Jits_Phase_5,2,5,63,98,1914543440
10414,17,Jits_Phase_5,3,5,56,103,1914563896
10414,17,Jits_Phase_5,0,5,80,127,1914994056
10414,17,Jits_Phase_5,1,5,56,103,1915004328
10414,17,Jits_Phase_5,2,5,63,98,1915013476
10414,17,Jits_Phase_5,3,1,48,42,1915086332
10414,17,Jits_Phase_5,0,5,80,127,1915483480
10414,17,Jits_Phase_5,1,5,56,103,1915504012
10414,17,Jits_Phase_5,2,1,48,43,1915527880
10414,17,Jits_Phase_5,3,5,63,98,1915573608
10414,17,Jits_Phase_5,0,5,56,103,1915993360
10414,17,Jits_Phase_5,1,5,80,127,1916024156
10414,17,Jits_Phase_5,2,1,48,48,1916034100
10414,17,Jits_Phase_5,3,5,63,98,1916043564
10414,17,Jits_Phase_5,0,5,63,98,1916483984
10414,17,Jits_Phase_5,1,5,56,103,1916544448
10414,17,Jits_Phase_5,2,1,48,43,1916554688
10414,17,Jits_Phase_5,3,5,80,127,1916574040
10414,17,Jits_Phase_5,0,5,63,98,1916973396
10414,17,Jits_Phase_5,1,5,80,127,1916976908
10414,17,Jits_Phase_5,2,1,48,45,1917052036
10414,17,Jits_Phase_5,3,5,56,103,1917063740
10414,17,Jits_Phase_5,0,5,56,103,1917493816
10414,17,Jits_Phase_5,1,5,63,98,1917524388
10414,17,Jits_Phase_5,2,1,48,41,1917555004
10414,17,Jits_Phase_5,3,5,80,127,1917564244
10414,17,Jits_Phase_5,0,5,63,98,1917994404
10414,17,Jits_Phase_5,1,1,48,48,1918023976
10414,17,Jits_Phase_5,2,5,56,103,1918034260
10414,17,Jits_Phase_5,3,5,80,127,1918053820
10414,17,Jits_Phase_5,0,1,48,46,1918504124
10414,17,Jits_Phase_5,1,5,63,98,1918505384
10414,17,Jits_Phase_5,2,5,56,103,1918544276
10414,17,Jits_Phase_5,3,5,80,127,1918553576
10414,17,Jits_Phase_5,0,5,80,127,1918983572
10414,17,Jits_Phase_5,1,1,48,44,1919010064
10414,17,Jits_Phase_5,2,5,63,98,1919054220
10414,17,Jits_Phase_5,3,5,56,103,1919073556
10414,17,Jits_Phase_5,0,5,56,103,1919474124
10414,17,Jits_Phase_5,1,5,80,127,1919493460
10414,17,Jits_Phase_5,2,5,63,98,1919533396
10414,17,Jits_Phase_5,3,1,48,50,1919537636
10414,17,Jits_Phase_5,0,5,63,98,1919983928
10414,17,Jits_Phase_5,1,5,80,127,1920003488
10414,17,Jits_Phase_5,2,1,48,43,1920040684
10414,17,Jits_Phase_5,3,5,56,103,1920044540
10414,17,Jits_Phase_5,0,5,63,98,1920483804
10414,17,Jits_Phase_5,1,5,56,103,1920504212
10414,17,Jits_Phase_5,2,5,80,127,1920514484
10414,17,Jits_Phase_5,3,1,48,39,1920524352
10414,17,Jits_Phase_5,0,5,80,127,1920984520
10414,17,Jits_Phase_5,1,5,56,103,1921003860
10414,17,Jits_Phase_5,2,1,48,48,1921018016
10414,17,Jits_Phase_5,3,5,63,98,1921033552
10414,17,Jits_Phase_5,0,1,48,42,1921496088
10414,17,Jits_Phase_5,1,5,56,103,1921553900
10414,17,Jits_Phase_5,2,5,80,127,1921556964
10414,17,Jits_Phase_5,3,5,63,98,1921574208
10414,17,Jits_Phase_5,0,5,63,98,1921973912
10414,17,Jits_Phase_5,1,5,56,103,1922004260
10414,17,Jits_Phase_5,2,1,48,45,1922034752
10414,17,Jits_Phase_5,3,5,80,127,1922063916
10414,17,Jits_Phase_5,0,1,48,44,1922513488
10414,17,Jits_Phase_5,1,5,63,98,1922554216
10414,17,Jits_Phase_5,2,5,56,103,1922563368
10414,17,Jits_Phase_5,3,5,80,127,1922573784
10414,17,Jits_Phase_5,0,1,48,39,1923013196
10414,17,Jits_Phase_5,1,5,56,103,1923014692
10414,17,Jits_Phase_5,2,5,80,127,1923043916
10414,17,Jits_Phase_5,3,5,63,98,1923054060
10414,17,Jits_Phase_5,0,1,48,48,1923500100
10414,17,Jits_Phase_5,1,5,63,98,1923553848
10414,17,Jits_Phase_5,2,5,56,103,1923563972
10414,17,Jits_Phase_5,3,5,80,127,1923584280
10414,17,Jits_Phase_5,0,5,56,103,1923983764
10414,17,Jits_Phase_5,1,1,48,46,1923998044
10414,17,Jits_Phase_5,2,5,63,98,1924043988
10414,17,Jits_Phase_5,3,5,80,127,1924047508
10414,17,Jits_Phase_5,0,5,80,127,1924503892
10414,17,Jits_Phase_5,1,1,48,48,1924508432
10414,17,Jits_Phase_5,2,5,56,103,1924514304
10414,17,Jits_Phase_5,3,5,63,98,1924584056
10414,17,Jits_Phase_5,0,5,80,127,1924994516
10414,17,Jits_Phase_5,1,1,48,42,1925001988
10414,17,Jits_Phase_5,2,5,56,103,1925064040
10414,17,Jits_Phase_5,3,5,63,98,1925074164
10414,17,Jits_Phase_5,0,1,48,44,1925525120
10414,17,Jits_Phase_5,1,5,63,98,1925534064
10414,17,Jits_Phase_5,2,5,56,103,1925544260
10414,17,Jits_Phase_5,3,5,80,127,1925563892
10414,17,Jits_Phase_5,0,5,80,127,1925983548
10414,17,Jits_Phase_5,1,1,48,40,1926028472
10414,17,Jits_Phase_5,2,5,63,98,1926044008
10414,17,Jits_Phase_5,3,5,56,103,1926083940
10414,17,Jits_Phase_5,0,1,48,45,1926492356
10414,17,Jits_Phase_5,1,5,56,103,1926524288
10414,17,Jits_Phase_5,2,5,63,98,1926533440
10414,17,Jits_Phase_5,3,5,80,127,1926573376
10414,17,Jits_Phase_5,0,5,56,103,1926984188
10414,17,Jits_Phase_5,1,5,80,127,1927013940
10414,17,Jits_Phase_5,2,1,48,43,1927019828
10414,17,Jits_Phase_5,3,5,63,98,1927064056
10414,17,Jits_Phase_5,0,1,48,42,1927507884
10414,17,Jits_Phase_5,1,5,56,103,1927523652
10414,17,Jits_Phase_5,2,5,63,98,1927563736
10414,17,Jits_Phase_5,3,5,80,127,1927566948
10414,17,Jits_Phase_5,0,1,48,34,1928011912
10414,17,Jits_Phase_5,1,5,56,103,1928024368
10414,17,Jits_Phase_5,2,5,63,98,1928033592
10414,17,Jits_Phase_5,3,5,80,127,1928054196
10414,17,Jits_Phase_5,0,5,56,103,1928484108
10414,17,Jits_Phase_5,1,5,80,127,1928487180
10414,17,Jits_Phase_5,2,1,48,46,1928510076
10414,17,Jits_Phase_5,3,5,63,98,1928524120
10414,17,Jits_Phase_5,0,1,48,40,1928970112
10414,17,Jits_Phase_5,1,5,63,98,1929024016
10414,17,Jits_Phase_5,2,5,56,103,1929053540
10414,17,Jits_Phase_5,3,5,80,127,1929073984
10414,17,Jits_Phase_5,0,5,80,127,1929493808
10414,17,Jits_Phase_5,1,1,48,51,1929498272
10414,17,Jits_Phase_5,2,5,56,103,1929504072
10414,17,Jits_Phase_5,3,5,63,98,1929514492
10414,17,Jits_Phase_5,0,1,48,47,1929963244
10414,17,Jits_Phase_5,1,5,56,103,1929993708
10414,17,Jits_Phase_5,2,5,80,127,1930033648
10414,17,Jits_Phase_5,3,5,63,98,1930064128
10414,17,Jits_Phase_5,0,1,48,46,1930476576
10414,17,Jits_Phase_5,1,5,63,98,1930503648
10414,17,Jits_Phase_5,2,5,80,127,1930513992
10414,17,Jits_Phase_5,3,5,56,103,1930523964
10414,17,Jits_Phase_5,0,1,48,40,1930973080
10414,17,Jits_Phase_5,1,5,56,103,1930994104
10414,17,Jits_Phase_5,2,5,63,98,1931063784
10414,17,Jits_Phase_5,3,5,80,127,1931074040
10414,17,Jits_Phase_5,0,1,48,43,1931468548
10414,17,Jits_Phase_5,1,5,80,127,1931503896
10414,17,Jits_Phase_5,2,5,56,103,1931514088
10414,17,Jits_Phase_5,3,5,63,98,1931564420
10414,17,Jits_Phase_5,0,1,48,46,1931964636
10414,17,Jits_Phase_5,1,5,80,127,1932013908
10414,17,Jits_Phase_5,2,5,56,103,1932074208
10414,17,Jits_Phase_5,3,5,63,98,1932104028
10414,17,Jits_Phase_5,0,1,48,41,1932499516
10414,17,Jits_Phase_5,1,5,56,103,1932513780
10414,17,Jits_Phase_5,2,5,80,127,1932516772
10414,17,Jits_Phase_5,3,5,63,98,1932553516
10414,17,Jits_Phase_5,0,1,48,46,1932991700
10414,17,Jits_Phase_5,1,5,56,103,1933044036
10414,17,Jits_Phase_5,2,5,63,98,1933073932
10414,17,Jits_Phase_5,3,5,80,127,1933084040
10414,17,Jits_Phase_5,0,1,48,45,1933509492
10414,17,Jits_Phase_5,1,5,63,98,1933554052
10414,17,Jits_Phase_5,2,5,80,127,1933564324
10414,17,Jits_Phase_5,3,5,56,103,1933573692
10414,17,Jits_Phase_5,0,5,80,127,1934003656
10414,17,Jits_Phase_5,1,1,48,42,1934020104
10414,17,Jits_Phase_5,2,5,56,103,1934053920
10414,17,Jits_Phase_5,3,5,63,98,1934057060
10414,17,Jits_Phase_5,0,1,48,44,1934503604
10414,17,Jits_Phase_5,1,5,56,103,1934533896
10414,17,Jits_Phase_5,2,5,80,127,1934553604
10414,17,Jits_Phase_5,3,5,63,98,1934563728
10414,17,Jits_Phase_5,0,1,48,45,1934998924
10414,17,Jits_Phase_5,1,5,63,98,1935014312
10414,17,Jits_Phase_5,2,5,56,103,1935044064
10414,17,Jits_Phase_5,3,5,80,127,1935064372
10414,17,Jits_Phase_5,0,1,48,43,1935498072
10414,17,Jits_Phase_5,1,5,56,103,1935524100
10414,17,Jits_Phase_5,2,5,80,127,1935533324
10414,17,Jits_Phase_5,3,5,63,98,1935604056
10414,17,Jits_Phase_5,0,1,48,43,1935977524
10414,17,Jits_Phase_5,1,5,63,98,1936013812
10414,17,Jits_Phase_5,2,5,80,127,1936053824
10414,17,Jits_Phase_5,3,5,56,103,1936093596
10414,17,Jits_Phase_5,0,1,48,47,1936501388
10414,17,Jits_Phase_5,1,5,56,103,1936523752
10414,17,Jits_Phase_5,2,5,63,98,1936534020
10414,17,Jits_Phase_5,3,5,80,127,1936554332
10414,17,Jits_Phase_5,0,1,48,40,1936990200
10414,17,Jits_Phase_5,1,5,63,98,1937064256
10414,17,Jits_Phase_5,2,5,80,127,1937083876
10414,17,Jits_Phase_5,3,5,56,103,1937104184
10414,17,Jits_Phase_5,0,1,48,44,1937479920
10414,17,Jits_Phase_5,1,5,56,103,1937503552
10414,17,Jits_Phase_5,2,5,80,127,1937583552
10414,17,Jits_Phase_5,3,5,63,98,1937593896
10414,17,Jits_Phase_5,0,1,48,40,1937977576
10414,17,Jits_Phase_5,1,5,80,127,1938044280
10414,17,Jits_Phase_5,2,5,63,98,1938053580
10414,17,Jits_Phase_5,3,5,56,103,1938084284
10414,17,Jits_Phase_5,0,1,48,41,1938489460
10414,17,Jits_Phase_5,1,5,63,98,1938503948
10414,17,Jits_Phase_5,2,5,80,127,1938543964
10414,17,Jits_Phase_5,3,5,56,103,1938604484
10414,17,Jits_Phase_5,0,1,48,39,1938961948
10414,17,Jits_Phase_5,1,5,63,98,1939014116
10414,17,Jits_Phase_5,2,5,56,103,1939064076
10414,17,Jits_Phase_5,3,5,80,127,1939093824
10414,17,Jits_Phase_5,0,1,48,47,1939424208
10414,17,Jits_Phase_5,1,5,80,127,1939513716
10414,17,Jits_Phase_5,2,5,63,98,1939523896
10414,17,Jits_Phase_5,3,5,56,103,1939593720
10414,17,Jits_Phase_5,0,1,48,47,1939914152
10414,17,Jits_Phase_5,1,5,80,127,1940073840
10414,17,Jits_Phase_5,2,5,56,103,1940084032
10414,17,Jits_Phase_5,3,5,63,98,1940087024
10414,17,Jits_Phase_5,0,1,48,38,1940406476
10414,17,Jits_Phase_5,1,5,56,103,1940514024
10414,17,Jits_Phase_5,2,5,80,127,1940533732
10414,17,Jits_Phase_5,3,5,63,98,1940544076
10414,17,Jits_Phase_5,0,1,48,39,1940899032
10414,17,Jits_Phase_5,1,5,63,98,1941024036
10414,17,Jits_Phase_5,2,5,56,103,1941063976
10414,17,Jits_Phase_5,3,5,80,127,1941083608
10414,17,Jits_Phase_5,0,1,48,41,1941381172
10414,17,Jits_Phase_5,1,5,63,98,1941523864
10414,17,Jits_Phase_5,2,5,56,103,1941584176
10414,17,Jits_Phase_5,3,5,80,127,1941587240
10414,17,Jits_Phase_5,0,1,48,44,1941884596
10414,17,Jits_Phase_5,1,5,56,103,1941983576
10414,17,Jits_Phase_5,2,5,80,127,1942003984
10414,17,Jits_Phase_5,3,5,63,98,1942043996
10414,17,Jits_Phase_5,0,1,48,44,1942337592
10414,17,Jits_Phase_5,1,5,56,103,1942514068
10414,17,Jits_Phase_5,2,5,63,98,1942533404
10414,17,Jits_Phase_5,3,5,80,127,1942543672
10414,17,Jits_Phase_5,0,1,48,39,1942905072
10414,17,Jits_Phase_5,1,5,80,127,1942984060
10414,17,Jits_Phase_5,2,5,56,103,1943013724
10414,17,Jits_Phase_5,3,5,63,98,1943053908
10414,17,Jits_Phase_5,0,1,48,45,1943420844
10414,17,Jits_Phase_5,1,5,80,127,1943493928
10414,17,Jits_Phase_5,2,5,56,103,1943513416
10414,17,Jits_Phase_5,3,5,63,98,1943573736
10414,17,Jits_Phase_5,0,1,48,40,1943940816
10414,17,Jits_Phase_5,1,5,56,103,1944003936
10414,17,Jits_Phase_5,2,5,80,127,1944024396
10414,17,Jits_Phase_5,3,5,63,98,1944083744
10414,17,Jits_Phase_5,0,1,48,44,1944474892
10414,17,Jits_Phase_5,1,5,80,127,1944484204
10414,17,Jits_Phase_5,2,5,56,103,1944493504
10414,17,Jits_Phase_5,3,5,63,98,1944534264
10414,17,Jits_Phase_5,0,1,48,42,1944973368
10414,17,Jits_Phase_5,1,5,63,98,1944983952
10414,17,Jits_Phase_5,2,5,56,103,1945023888
10414,17,Jits_Phase_5,3,5,80,127,1945026804
10414,17,Jits_Phase_5,0,1,48,44,1945468896
10414,17,Jits_Phase_5,1,5,63,98,1945503992
10414,17,Jits_Phase_5,2,5,80,127,1945544004
10414,17,Jits_Phase_5,3,5,56,103,1945573960
10414,17,Jits_Phase_5,0,1,48,42,1945984020
10414,17,Jits_Phase_5,1,5,56,103,1945993780
10414,17,Jits_Phase_5,2,5,63,98,1946004124
10414,17,Jits_Phase_5,3,5,80,127,1946033648
10414,17,Jits_Phase_5,0,1,48,48,1946463536
10414,17,Jits_Phase_5,1,5,80,127,1946483936
10414,17,Jits_Phase_5,2,5,63,98,1946553912
10414,17,Jits_Phase_5,3,5,56,103,1946563944
10414,17,Jits_Phase_5,0,5,63,98,1946983840
10414,17,Jits_Phase_5,1,1,48,42,1946988304
10414,17,Jits_Phase_5,2,5,56,103,1947053516
10414,17,Jits_Phase_5,3,5,80,127,1947063932
10414,17,Jits_Phase_5,0,5,63,98,1947464036
10414,17,Jits_Phase_5,1,5,56,103,1947483372
10414,17,Jits_Phase_5,2,1,48,49,1947497652
10414,17,Jits_Phase_5,3,5,80,127,1947523524
10414,17,Jits_Phase_5,0,5,56,103,1947944232
10414,17,Jits_Phase_5,1,5,63,98,1947953832
10414,17,Jits_Phase_5,2,1,48,45,1947973064
10414,17,Jits_Phase_5,3,5,80,127,1948034364
10414,17,Jits_Phase_5,0,5,63,98,1948433960
10414,17,Jits_Phase_5,1,1,48,46,1948454388
10414,17,Jits_Phase_5,2,5,56,103,1948463480
10414,17,Jits_Phase_5,3,5,80,127,1948504312
10414,17,Jits_Phase_5,0,5,56,103,1948933704
10414,17,Jits_Phase_5,1,1,48,40,1948955328
10414,17,Jits_Phase_5,2,5,63,98,1948973564
10414,17,Jits_Phase_5,3,5,80,127,1949014396
10414,17,Jits_Phase_5,0,5,80,127,1949434292
10414,17,Jits_Phase_5,1,1,48,43,1949449772
10414,17,Jits_Phase_5,2,5,56,103,1949514156
10414,17,Jits_Phase_5,3,5,63,98,1949524720
10414,17,Jits_Phase_5,0,1,48,41,1949955828
10414,17,Jits_Phase_5,1,5,56,103,1949973836
10414,17,Jits_Phase_5,2,5,63,98,1949976900
10414,17,Jits_Phase_5,3,5,80,127,1949984104
10414,17,Jits_Phase_5,0,1,48,44,1950467848
10414,17,Jits_Phase_5,1,5,56,103,1950493956
10414,17,Jits_Phase_5,2,5,63,98,1950513736
10414,17,Jits_Phase_5,3,5,80,127,1950523784
10414,17,Jits_Phase_5,0,5,63,98,1950953980
10414,17,Jits_Phase_5,1,5,80,127,1950964052
10414,17,Jits_Phase_5,2,5,56,103,1950983536
10414,17,Jits_Phase_5,3,1,48,47,1950991832
10414,17,Jits_Phase_5,0,5,63,98,1951463768
10414,17,Jits_Phase_5,1,1,48,37,1951480464
10414,17,Jits_Phase_5,2,5,56,103,1951543800
10414,17,Jits_Phase_5,3,5,80,127,1951546868
10414,17,Jits_Phase_5,0,5,63,98,1951963512
10414,17,Jits_Phase_5,1,5,56,103,1951983920
10414,17,Jits_Phase_5,2,1,48,46,1951989812
10414,17,Jits_Phase_5,3,5,80,127,1952013888
10414,17,Jits_Phase_5,0,5,56,103,1952464308
10414,17,Jits_Phase_5,1,1,48,34,1952471188
10414,17,Jits_Phase_5,2,5,63,98,1952483788
10414,17,Jits_Phase_5,3,5,80,127,1952493860
10414,17,Jits_Phase_5,0,1,48,38,1952972808
10414,17,Jits_Phase_5,1,5,56,103,1952993728
10414,17,Jits_Phase_5,2,5,63,98,1953024244
10414,17,Jits_Phase_5,3,5,80,127,1953027688
10414,17,Jits_Phase_5,0,5,56,103,1953444104
10414,17,Jits_Phase_5,1,5,63,98,1953484116
10414,17,Jits_Phase_5,2,1,48,39,1953502676
10414,17,Jits_Phase_5,3,5,80,127,1953543620
10414,17,Jits_Phase_5,0,5,56,103,1953964316
10414,17,Jits_Phase_5,1,5,63,98,1953973688
10414,17,Jits_Phase_5,2,1,48,33,1954000328
10414,17,Jits_Phase_5,3,5,80,127,1954034168
10414,17,Jits_Phase_5,0,5,56,103,1954464008
10414,17,Jits_Phase_5,1,5,80,127,1954483644
10414,17,Jits_Phase_5,2,1,48,39,1954488336
10414,17,Jits_Phase_5,3,5,63,98,1954514208
10414,17,Jits_Phase_5,0,5,80,127,1954963844
10414,17,Jits_Phase_5,1,5,56,103,1954974040
10414,17,Jits_Phase_5,2,1,48,38,1954987048
10414,17,Jits_Phase_5,3,5,63,98,1954993444
10414,17,Jits_Phase_5,0,5,63,98,1955454464
10414,17,Jits_Phase_5,1,1,48,39,1955464408
10414,17,Jits_Phase_5,2,5,80,127,1955534176
10414,17,Jits_Phase_5,3,5,56,103,1955544300
10414,17,Jits_Phase_5,0,1,48,42,1955984536
10414,17,Jits_Phase_5,1,5,80,127,1956044192
10414,17,Jits_Phase_5,2,5,56,103,1956063676
10414,17,Jits_Phase_5,3,5,63,98,1956066744
10414,17,Jits_Phase_5,0,1,48,43,1956505248
10414,17,Jits_Phase_5,1,5,63,98,1956533668
10414,17,Jits_Phase_5,2,5,80,127,1956537180
10414,17,Jits_Phase_5,3,5,56,103,1956594008
10414,17,Jits_Phase_5,0,1,48,42,1957013864
10414,17,Jits_Phase_5,1,5,56,103,1957015276
10414,17,Jits_Phase_5,2,5,80,127,1957024204
10414,17,Jits_Phase_5,3,5,63,98,1957064140
10414,17,Jits_Phase_5,0,5,56,103,1957494064
10414,17,Jits_Phase_5,1,1,48,38,1957505872
10414,17,Jits_Phase_5,2,5,63,98,1957553620
10414,17,Jits_Phase_5,3,5,80,127,1957563744
10414,17,Jits_Phase_5,0,5,63,98,1958004088
10414,17,Jits_Phase_5,1,1,48,43,1958005648
10414,17,Jits_Phase_5,2,5,80,127,1958044096
10414,17,Jits_Phase_5,3,5,56,103,1958084032
10414,17,Jits_Phase_5,0,5,56,103,1958503840
10414,17,Jits_Phase_5,1,1,48,43,1958515500
10414,17,Jits_Phase_5,2,5,63,98,1958583772
10414,17,Jits_Phase_5,3,5,80,127,1958587064
10414,17,Jits_Phase_5,0,1,48,39,1959039668
10414,17,Jits_Phase_5,1,5,80,127,1959064048
10414,17,Jits_Phase_5,2,5,56,103,1959093872
10414,17,Jits_Phase_5,3,5,63,98,1959096788
10414,17,Jits_Phase_5,0,5,56,103,1959523796
10414,17,Jits_Phase_5,1,1,48,44,1959531720
10414,17,Jits_Phase_5,2,5,80,127,1959544100
10414,17,Jits_Phase_5,3,5,63,98,1959584112
10414,17,Jits_Phase_5,0,5,80,127,1960003860
10414,17,Jits_Phase_5,1,5,63,98,1960024544
10414,17,Jits_Phase_5,2,1,48,39,1960030360
10414,17,Jits_Phase_5,3,5,56,103,1960083952
10414,17,Jits_Phase_5,0,1,48,45,1960497520
10414,17,Jits_Phase_5,1,5,63,98,1960513880
10414,17,Jits_Phase_5,2,5,56,103,1960524148
10414,17,Jits_Phase_5,3,5,80,127,1960574272
10414,17,Jits_Phase_5,0,1,48,47,1960981992
10414,17,Jits_Phase_5,1,5,56,103,1961004560
10414,17,Jits_Phase_5,2,5,63,98,1961023900
10414,17,Jits_Phase_5,3,5,80,127,1961034096
10414,17,Jits_Phase_5,0,1,48,44,1961467196
10414,17,Jits_Phase_5,1,5,56,103,1961493820
10414,17,Jits_Phase_5,2,5,63,98,1961497108
10414,17,Jits_Phase_5,3,5,80,127,1961514428
10414,17,Jits_Phase_5,0,1,48,34,1961973832
10414,17,Jits_Phase_5,1,5,63,98,1962033712
10414,17,Jits_Phase_5,2,5,56,103,1962064212
10414,17,Jits_Phase_5,3,5,80,127,1962093872
10414,17,Jits_Phase_5,0,5,80,127,1962494440
10414,17,Jits_Phase_5,1,1,48,43,1962497560
10414,17,Jits_Phase_5,2,5,56,103,1962584564
10414,17,Jits_Phase_5,3,5,63,98,1962587632
10414,17,Jits_Phase_5,0,5,56,103,1962994048
10414,17,Jits_Phase_5,1,5,80,127,1962996968
10414,17,Jits_Phase_5,2,1,48,46,1963014852
10414,17,Jits_Phase_5,3,5,63,98,1963073836
10414,17,Jits_Phase_5,0,5,80,127,1963493632
10414,17,Jits_Phase_5,1,1,48,44,1963512068
10414,17,Jits_Phase_5,2,5,63,98,1963554112
10414,17,Jits_Phase_5,3,5,56,103,1963583860
10414,17,Jits_Phase_5,0,5,63,98,1963993472
10414,17,Jits_Phase_5,1,5,80,127,1964003744
10414,17,Jits_Phase_5,2,1,48,50,1964005460
10414,17,Jits_Phase_5,3,5,56,103,1964074336
10414,17,Jits_Phase_5,0,1,48,43,1964532856
10414,17,Jits_Phase_5,1,5,56,103,1964553628
10414,17,Jits_Phase_5,2,5,80,127,1964584428
10414,17,Jits_Phase_5,3,5,63,98,1964633712
10414,17,Jits_Phase_5,0,1,48,46,1965030016
10414,17,Jits_Phase_5,1,5,63,98,1965144536
10414,17,Jits_Phase_5,2,5,56,103,1965174060
10414,17,Jits_Phase_5,3,5,80,127,1965177200
10414,17,Jits_Phase_5,0,1,48,37,1965583216
10414,17,Jits_Phase_5,1,5,63,98,1965644148
10414,17,Jits_Phase_5,2,5,80,127,1965663784
10414,17,Jits_Phase_5,3,5,56,103,1965673756
10414,17,Jits_Phase_5,0,1,48,44,1966107312
10414,17,Jits_Phase_5,1,5,56,103,1966154088
10414,17,Jits_Phase_5,2,5,63,98,1966157228
10414,17,Jits_Phase_5,3,5,80,127,1966173500
10414,17,Jits_Phase_5,0,5,56,103,1966603792
10414,17,Jits_Phase_5,1,5,63,98,1966613988
10414,17,Jits_Phase_5,2,1,48,37,1966636880
10414,17,Jits_Phase_5,3,5,80,127,1966643652
10414,17,Jits_Phase_5,0,5,63,98,1967123780
10414,17,Jits_Phase_5,1,1,48,48,1967131608
10414,17,Jits_Phase_5,2,5,80,127,1967144232
10414,17,Jits_Phase_5,3,5,56,103,1967184092
10414,17,Jits_Phase_5,0,5,56,103,1967654392
10414,17,Jits_Phase_5,1,1,48,43,1967680504
10414,17,Jits_Phase_5,2,5,63,98,1967694324
10414,17,Jits_Phase_5,3,5,80,127,1967697684
10414,17,Jits_Phase_5,0,5,80,127,1968093744
10414,17,Jits_Phase_5,1,5,56,103,1968133636
10414,17,Jits_Phase_5,2,5,63,98,1968183832
10414,17,Jits_Phase_5,3,1,48,43,1968208076
10414,17,Jits_Phase_5,0,5,56,103,1968653768
10414,17,Jits_Phase_5,1,5,80,127,1968663964
10414,17,Jits_Phase_5,2,5,63,98,1968693640
10414,17,Jits_Phase_5,3,1,48,37,1968722756
10414,17,Jits_Phase_5,0,5,56,103,1969104136
10414,17,Jits_Phase_5,1,5,80,127,1969144472
10414,17,Jits_Phase_5,2,5,63,98,1969194224
10414,17,Jits_Phase_5,3,1,48,45,1969197120
10414,17,Jits_Phase_5,0,5,56,103,1969603828
10414,17,Jits_Phase_5,1,5,80,127,1969643792
10414,17,Jits_Phase_5,2,5,63,98,1969693988
10414,17,Jits_Phase_5,3,1,48,42,1969706176
10414,17,Jits_Phase_5,0,5,80,127,1970093620
10414,17,Jits_Phase_5,1,5,63,98,1970174188
10414,17,Jits_Phase_5,2,5,56,103,1970183636
10414,17,Jits_Phase_5,3,1,48,37,1970220680
10414,17,Jits_Phase_5,0,5,80,127,1970644480
10414,17,Jits_Phase_5,1,5,56,103,1970653704
10414,17,Jits_Phase_5,2,5,63,98,1970673964
10414,17,Jits_Phase_5,3,1,48,37,1970730560
10414,17,Jits_Phase_5,0,5,63,98,1971114428
10414,17,Jits_Phase_5,1,5,56,103,1971183984
10414,17,Jits_Phase_5,2,5,80,127,1971187124
10414,17,Jits_Phase_5,3,1,48,44,1971235420
10414,17,Jits_Phase_5,0,5,80,127,1971603836
10414,17,Jits_Phase_5,1,5,63,98,1971654112
10414,17,Jits_Phase_5,2,5,56,103,1971693996
10414,17,Jits_Phase_5,3,1,48,46,1971736440
10414,17,Jits_Phase_5,0,5,63,98,1972143608
10414,17,Jits_Phase_5,1,5,56,103,1972184592
10414,17,Jits_Phase_5,2,5,80,127,1972193592
10414,17,Jits_Phase_5,3,1,48,43,1972240480
10414,17,Jits_Phase_5,0,5,63,98,1972633920
10414,17,Jits_Phase_5,1,5,56,103,1972653556
10414,17,Jits_Phase_5,2,5,80,127,1972673792
10414,17,Jits_Phase_5,3,1,48,43,1972781128
10414,17,Jits_Phase_5,0,5,80,127,1973093736
10414,17,Jits_Phase_5,1,5,56,103,1973103932
10414,17,Jits_Phase_5,2,5,63,98,1973123568
10414,17,Jits_Phase_5,3,1,48,40,1973319224
10414,17,Jits_Phase_5,0,5,63,98,1973624068
10414,17,Jits_Phase_5,1,5,56,103,1973664004
10414,17,Jits_Phase_5,2,5,80,127,1973693900
10414,17,Jits_Phase_5,3,1,48,46,1973856380
10414,17,Jits_Phase_5,0,5,56,103,1974083888
10414,17,Jits_Phase_5,1,5,63,98,1974113784
10414,17,Jits_Phase_5,2,5,80,127,1974144656
10414,17,Jits_Phase_5,0,1,48,40,1974419636
10414,17,Jits_Phase_5,1,5,80,127,1974503656
10414,17,Jits_Phase_5,2,5,56,103,1974573640
10414,17,Jits_Phase_5,3,5,63,98,1974576632
10414,17,Jits_Phase_5,0,1,48,44,1974959388
10414,17,Jits_Phase_5,1,5,56,103,1975013736
10414,17,Jits_Phase_5,2,5,63,98,1975063944
10414,17,Jits_Phase_5,3,5,80,127,1975093544
10414,17,Jits_Phase_5,0,5,63,98,1975493936
10414,17,Jits_Phase_5,1,5,80,127,1975497372
10414,17,Jits_Phase_5,2,1,48,41,1975521412
10414,17,Jits_Phase_5,3,5,56,103,1975554340
10414,17,Jits_Phase_5,0,5,56,103,1976024612
10414,17,Jits_Phase_5,1,1,48,35,1976025504
10414,17,Jits_Phase_5,2,5,80,127,1976033680
10414,17,Jits_Phase_5,3,5,63,98,1976083680
10414,17,Jits_Phase_5,0,5,63,98,1976493880
10414,17,Jits_Phase_5,1,5,56,103,1976503628
10414,17,Jits_Phase_5,2,5,80,127,1976534424
10414,17,Jits_Phase_5,3,1,48,48,1976563116
10414,17,Jits_Phase_5,0,5,63,98,1977023964
10414,17,Jits_Phase_5,1,5,80,127,1977027180
10414,17,Jits_Phase_5,2,5,56,103,1977053860
10414,17,Jits_Phase_5,3,1,48,36,1977058556
10414,17,Jits_Phase_5,0,5,63,98,1977543936
10414,17,Jits_Phase_5,1,5,56,103,1977563568
10414,17,Jits_Phase_5,2,5,80,127,1977566784
10414,17,Jits_Phase_5,3,1,48,35,1977578920
10414,17,Jits_Phase_5,0,5,63,98,1978003748
10414,17,Jits_Phase_5,1,5,56,103,1978073428
10414,17,Jits_Phase_5,2,5,80,127,1978093836
10414,17,Jits_Phase_5,3,1,48,33,1978130280
10414,17,Jits_Phase_5,0,5,56,103,1978494428
10414,17,Jits_Phase_5,1,5,63,98,1978503580
10414,17,Jits_Phase_5,2,5,80,127,1978593556
10414,17,Jits_Phase_5,3,1,48,35,1978644720
10414,17,Jits_Phase_5,0,5,56,103,1979013596
10414,17,Jits_Phase_5,1,5,80,127,1979053684
10414,17,Jits_Phase_5,2,5,63,98,1979063656
10414,17,Jits_Phase_5,3,1,48,41,1979159832
10414,17,Jits_Phase_5,0,5,56,103,1979533664
10414,17,Jits_Phase_5,1,5,63,98,1979564536
10414,17,Jits_Phase_5,2,5,80,127,1979594060
10414,17,Jits_Phase_5,3,1,48,39,1979675112
10414,17,Jits_Phase_5,0,5,80,127,1979993652
10414,17,Jits_Phase_5,1,5,63,98,1980034560
10414,17,Jits_Phase_5,2,5,56,103,1980053972
10414,17,Jits_Phase_5,3,1,48,40,1980211736
10414,17,Jits_Phase_5,0,5,56,103,1980534096
10414,17,Jits_Phase_5,1,5,80,127,1980553656
10414,17,Jits_Phase_5,2,5,63,98,1980574040
10414,17,Jits_Phase_5,3,1,48,38,1980755840
10414,17,Jits_Phase_5,0,5,63,98,1981004116
10414,17,Jits_Phase_5,1,5,56,103,1981014536
10414,17,Jits_Phase_5,2,5,80,127,1981073652
10414,17,Jits_Phase_5,0,1,48,35,1981315568
10414,17,Jits_Phase_5,1,5,56,103,1981503884
10414,17,Jits_Phase_5,2,5,63,98,1981573564
10414,17,Jits_Phase_5,3,5,80,127,1981593948
10414,17,Jits_Phase_5,0,1,48,32,1981892800
10414,17,Jits_Phase_5,1,5,56,103,1982003708
10414,17,Jits_Phase_5,2,5,63,98,1982034432
10414,17,Jits_Phase_5,3,5,80,127,1982074588
10414,17,Jits_Phase_5,0,1,48,35,1982479988
10414,17,Jits_Phase_5,1,5,63,98,1982494032
10414,17,Jits_Phase_5,2,5,56,103,1982544236
10414,17,Jits_Phase_5,3,5,80,127,1982553608
10414,17,Jits_Phase_5,0,1,48,40,1983007164
10414,17,Jits_Phase_5,1,5,56,103,1983033640
10414,17,Jits_Phase_5,2,5,63,98,1983083768
10414,17,Jits_Phase_5,3,5,80,127,1983094112
10414,17,Jits_Phase_5,0,5,56,103,1983503808
10414,17,Jits_Phase_5,1,5,63,98,1983514152
10414,17,Jits_Phase_5,2,5,80,127,1983593868
10414,17,Jits_Phase_5,3,1,48,32,1983602988
10414,17,Jits_Phase_5,0,9999,9999,9999,1899271232
10414,17,Jits_Phase_5,1,9999,9999,9999,1899771988
10414,17,Jits_Phase_5,2,9999,9999,9999,1900271716
10414,17,Jits_Phase_5,3,9999,9999,9999,1900771396
10414,17,Jits_Phase_5,4,9999,9999,9999,1901271144
10414,17,Jits_Phase_5,5,9999,9999,9999,1901771868
10414,17,Jits_Phase_5,6,9999,9999,9999,1902271544
10414,17,Jits_Phase_5,7,9999,9999,9999,1902771308
10414,17,Jits_Phase_5,8,9999,9999,9999,1903272044
10414,17,Jits_Phase_5,9,9999,9999,9999,1903771732
10414,17,Jits_Phase_5,10,9999,9999,9999,1904271424
10414,17,Jits_Phase_5,11,9999,9999,9999,1904771188
10414,17,Jits_Phase_5,12,9999,9999,9999,1905271908
10414,17,Jits_Phase_5,13,9999,9999,9999,1905771580
10414,17,Jits_Phase_5,14,9999,9999,9999,1906271328
10414,17,Jits_Phase_5,15,9999,9999,9999,1906772064
10414,17,Jits_Phase_5,16,9999,9999,9999,1907271740
10414,17,Jits_Phase_5,17,9999,9999,9999,1907771488
10414,17,Jits_Phase_5,18,9999,9999,9999,1908271160
10414,17,Jits_Phase_5,19,9999,9999,9999,1908771960
10414,17,Jits_Phase_5,20,9999,9999,9999,1909271632
10414,17,Jits_Phase_5,21,9999,9999,9999,1909771320
10414,17,Jits_Phase_5,22,9999,9999,9999,1910272056
10414,17,Jits_Phase_5,23,9999,9999,9999,1910782064
10414,17,Jits_Phase_5,24,9999,9999,9999,1911281744
10414,17,Jits_Phase_5,25,9999,9999,9999,1911781460
10414,17,Jits_Phase_5,26,9999,9999,9999,1912281204
10414,17,Jits_Phase_5,27,9999,9999,9999,1912781908
10414,17,Jits_Phase_5,28,9999,9999,9999,1913281600
10414,17,Jits_Phase_5,29,9999,9999,9999,1913781348
10414,17,Jits_Phase_5,30,9999,9999,9999,1914271828
10414,17,Jits_Phase_5,31,9999,9999,9999,1914771520
10414,17,Jits_Phase_5,32,9999,9999,9999,1915271284
10414,17,Jits_Phase_5,33,9999,9999,9999,1915772020
10414,17,Jits_Phase_5,34,9999,9999,9999,1916271712
10414,17,Jits_Phase_5,35,9999,9999,9999,1916771404
10414,17,Jits_Phase_5,36,9999,9999,9999,1917271144
10414,17,Jits_Phase_5,37,9999,9999,9999,1917771868
10414,17,Jits_Phase_5,38,9999,9999,9999,1918271560
10414,17,Jits_Phase_5,39,9999,9999,9999,1918771316
10414,17,Jits_Phase_5,40,9999,9999,9999,1919272040
10414,17,Jits_Phase_5,41,9999,9999,9999,1919771728
10414,17,Jits_Phase_5,42,9999,9999,9999,1920271420
10414,17,Jits_Phase_5,43,9999,9999,9999,1920771168
10414,17,Jits_Phase_5,44,9999,9999,9999,1921271888
10414,17,Jits_Phase_5,45,9999,9999,9999,1921771620
10414,17,Jits_Phase_5,46,9999,9999,9999,1922271296
10414,17,Jits_Phase_5,47,9999,9999,9999,1922772096
10414,17,Jits_Phase_5,48,9999,9999,9999,1923282036
10414,17,Jits_Phase_5,49,9999,9999,9999,1923781696
10414,17,Jits_Phase_5,50,9999,9999,9999,1924281432
10414,17,Jits_Phase_5,51,9999,9999,9999,1924781124
10414,17,Jits_Phase_5,52,9999,9999,9999,1925281864
10414,17,Jits_Phase_5,53,9999,9999,9999,1925781632
10414,17,Jits_Phase_5,54,9999,9999,9999,1926281308
10414,17,Jits_Phase_5,55,9999,9999,9999,1926782048
10414,17,Jits_Phase_5,56,9999,9999,9999,1927281720
10414,17,Jits_Phase_5,57,9999,9999,9999,1927781476
10414,17,Jits_Phase_5,58,9999,9999,9999,1928281152
10414,17,Jits_Phase_5,59,9999,9999,9999,1928781932
10414,17,Jits_Phase_5,60,9999,9999,9999,1929281624
10414,17,Jits_Phase_5,61,9999,9999,9999,1929781372
10414,17,Jits_Phase_5,62,9999,9999,9999,1930282108
10414,17,Jits_Phase_5,63,9999,9999,9999,1930781780
10414,17,Jits_Phase_5,64,9999,9999,9999,1931301980
10414,17,Jits_Phase_5,65,9999,9999,9999,1931801656
10414,17,Jits_Phase_5,66,9999,9999,9999,1932301408
10414,17,Jits_Phase_5,67,9999,9999,9999,1932801144
10414,17,Jits_Phase_5,68,9999,9999,9999,1933301868
10414,17,Jits_Phase_5,69,9999,9999,9999,1933801596
10414,17,Jits_Phase_5,70,9999,9999,9999,1934301252
10414,17,Jits_Phase_5,71,9999,9999,9999,1934801988
10414,17,Jits_Phase_5,72,9999,9999,9999,1935301736
10414,17,Jits_Phase_5,73,9999,9999,9999,1935801412
10414,17,Jits_Phase_5,74,9999,9999,9999,1936301164
10414,17,Jits_Phase_5,75,9999,9999,9999,1936801884
10414,17,Jits_Phase_5,76,9999,9999,9999,1937301564
10414,17,Jits_Phase_5,77,9999,9999,9999,1937801316
10414,17,Jits_Phase_5,78,9999,9999,9999,1938302036
10414,17,Jits_Phase_5,79,9999,9999,9999,1938801788
10414,17,Jits_Phase_5,80,9999,9999,9999,1939301464
10414,17,Jits_Phase_5,81,9999,9999,9999,1939781736
10414,17,Jits_Phase_5,82,9999,9999,9999,1940281412
10414,17,Jits_Phase_5,83,9999,9999,9999,1940781160
10414,17,Jits_Phase_5,84,9999,9999,9999,1941281884
10414,17,Jits_Phase_5,85,9999,9999,9999,1941781628
10414,17,Jits_Phase_5,86,9999,9999,9999,1942281304
10414,17,Jits_Phase_5,87,9999,9999,9999,1942782024
10414,17,Jits_Phase_5,88,9999,9999,9999,1943281776
10414,17,Jits_Phase_5,89,9999,9999,9999,1943781500
10414,17,Jits_Phase_5,90,9999,9999,9999,1944281172
10414,17,Jits_Phase_5,91,9999,9999,9999,1944781892
10414,17,Jits_Phase_5,92,9999,9999,9999,1945281628
10414,17,Jits_Phase_5,93,9999,9999,9999,1945781304
10414,17,Jits_Phase_5,94,9999,9999,9999,1946282100
10414,17,Jits_Phase_5,95,9999,9999,9999,1946781772
10414,17,Jits_Phase_5,96,9999,9999,9999,1947281524
10414,17,Jits_Phase_5,97,9999,9999,9999,1947732048
10414,17,Jits_Phase_5,98,9999,9999,9999,1948231804
10414,17,Jits_Phase_5,99,9999,9999,9999,1948731488
10414,17,Jits_Phase_5,100,9999,9999,9999,1949231164
10414,17,Jits_Phase_5,101,9999,9999,9999,1949731900
10414,17,Jits_Phase_5,102,9999,9999,9999,1950231656
10414,17,Jits_Phase_5,103,9999,9999,9999,1950731336
10414,17,Jits_Phase_5,104,9999,9999,9999,1951232056
10414,17,Jits_Phase_5,105,9999,9999,9999,1951742064
10414,17,Jits_Phase_5,106,9999,9999,9999,1952241740
10414,17,Jits_Phase_5,107,9999,9999,9999,1952741464
10414,17,Jits_Phase_5,108,9999,9999,9999,1953241216
10414,17,Jits_Phase_5,109,9999,9999,9999,1953741932
10414,17,Jits_Phase_5,110,9999,9999,9999,1954241624
10414,17,Jits_Phase_5,111,9999,9999,9999,1954741312
10414,17,Jits_Phase_5,112,9999,9999,9999,1955242044
10414,17,Jits_Phase_5,113,9999,9999,9999,1955741812
10414,17,Jits_Phase_5,114,9999,9999,9999,1956291676
10414,17,Jits_Phase_5,115,9999,9999,9999,1956791420
10414,17,Jits_Phase_5,116,9999,9999,9999,1957291096
10414,17,Jits_Phase_5,117,9999,9999,9999,1957791816
10414,17,Jits_Phase_5,118,9999,9999,9999,1958291584
10414,17,Jits_Phase_5,119,9999,9999,9999,1958791252
10414,17,Jits_Phase_5,120,9999,9999,9999,1959291984
10414,17,Jits_Phase_5,121,9999,9999,9999,1959791736
10414,17,Jits_Phase_5,122,9999,9999,9999,1960291428
10414,17,Jits_Phase_5,123,9999,9999,9999,1960791116
10414,17,Jits_Phase_5,124,9999,9999,9999,1961291836
10414,17,Jits_Phase_5,125,9999,9999,9999,1961791568
10414,17,Jits_Phase_5,126,9999,9999,9999,1962291324
10414,17,Jits_Phase_5,127,9999,9999,9999,1962792040
10414,17,Jits_Phase_5,128,9999,9999,9999,1963291720
10414,17,Jits_Phase_5,129,9999,9999,9999,1963791416
10414,17,Jits_Phase_5,130,9999,9999,9999,1964291180
10414,17,Jits_Phase_5,131,9999,9999,9999,1964891248
10414,17,Jits_Phase_5,132,9999,9999,9999,1965391964
10414,17,Jits_Phase_5,133,9999,9999,9999,1965891644
10414,17,Jits_Phase_5,134,9999,9999,9999,1966391392
10414,17,Jits_Phase_5,135,9999,9999,9999,1966891132
10414,17,Jits_Phase_5,136,9999,9999,9999,1967391868
10414,17,Jits_Phase_5,137,9999,9999,9999,1967891540
10414,17,Jits_Phase_5,138,9999,9999,9999,1968391228
10414,17,Jits_Phase_5,139,9999,9999,9999,1968891968
10414,17,Jits_Phase_5,140,9999,9999,9999,1969391732
10414,17,Jits_Phase_5,141,9999,9999,9999,1969891396
10414,17,Jits_Phase_5,142,9999,9999,9999,1970391156
10414,17,Jits_Phase_5,143,9999,9999,9999,1970891896
10414,17,Jits_Phase_5,144,9999,9999,9999,1971391580
10414,17,Jits_Phase_5,145,9999,9999,9999,1971891256
10414,17,Jits_Phase_5,146,9999,9999,9999,1972391996
10414,17,Jits_Phase_5,147,9999,9999,9999,1972891748
10414,17,Jits_Phase_5,148,9999,9999,9999,1973391432
10414,17,Jits_Phase_5,149,9999,9999,9999,1973891128
10414,17,Jits_Phase_5,150,9999,9999,9999,1974291548
10414,17,Jits_Phase_5,151,9999,9999,9999,1974791248
10414,17,Jits_Phase_5,152,9999,9999,9999,1975291972
10414,17,Jits_Phase_5,153,9999,9999,9999,1975791704
10414,17,Jits_Phase_5,154,9999,9999,9999,1976291432
10414,17,Jits_Phase_5,155,9999,9999,9999,1976791108
10414,17,Jits_Phase_5,156,9999,9999,9999,1977291892
10414,17,Jits_Phase_5,157,9999,9999,9999,1977791564
10414,17,Jits_Phase_5,158,9999,9999,9999,1978291316
10414,17,Jits_Phase_5,159,9999,9999,9999,1978792032
10414,17,Jits_Phase_5,160,9999,9999,9999,1979291724
10414,17,Jits_Phase_5,161,9999,9999,9999,1979791420
10414,17,Jits_Phase_5,162,9999,9999,9999,1980291196
10414,17,Jits_Phase_5,163,9999,9999,9999,1980791864
10414,17,Jits_Phase_5,164,9999,9999,9999,1981291628
10414,17,Jits_Phase_5,165,9999,9999,9999,1981791324
10414,17,Jits_Phase_5,166,9999,9999,9999,1982292048
10414,17,Jits_Phase_5,167,9999,9999,9999,1982791796
10414,17,Jits_Phase_5,168,9999,9999,9999,1983291476
10414,17,Jits_Phase_5,169,9999,9999,9999,1983791228
10415,15,Jits_Phase_8,0,5,56,103,1992494468
10415,15,Jits_Phase_8,1,5,63,98,1992497716
10415,15,Jits_Phase_8,2,5,80,127,1992500760
10415,15,Jits_Phase_8,0,5,56,103,1993295148
10415,15,Jits_Phase_8,1,5,63,98,1993298324
10415,15,Jits_Phase_8,2,5,80,127,1993301448
10415,15,Jits_Phase_8,0,5,80,127,1994034648
10415,15,Jits_Phase_8,1,5,63,98,1994124560
10415,15,Jits_Phase_8,2,5,56,103,1994134756
10415,15,Jits_Phase_8,0,5,56,103,1994854692
10415,15,Jits_Phase_8,1,5,63,98,1994864888
10415,15,Jits_Phase_8,2,5,80,127,1994955164
10415,15,Jits_Phase_8,3,1,48,39,1994970268
10415,15,Jits_Phase_8,0,5,63,98,1995624792
10415,15,Jits_Phase_8,1,1,48,42,1995640944
10415,15,Jits_Phase_8,2,5,80,127,1995654612
10415,15,Jits_Phase_8,3,5,56,103,1995685408
10415,15,Jits_Phase_8,0,1,48,40,1996348236
10415,15,Jits_Phase_8,1,5,56,103,1996424540
10415,15,Jits_Phase_8,2,5,80,127,1996524948
10415,15,Jits_Phase_8,3,5,63,98,1996575444
10415,15,Jits_Phase_8,0,5,56,103,1997225356
10415,15,Jits_Phase_8,1,1,48,39,1997263616
10415,15,Jits_Phase_8,2,5,80,127,1997274428
10415,15,Jits_Phase_8,3,5,63,98,1997314468
10415,15,Jits_Phase_8,0,5,80,127,1998054792
10415,15,Jits_Phase_8,1,1,48,40,1998061828
10415,15,Jits_Phase_8,2,5,63,98,1998084488
10415,15,Jits_Phase_8,3,5,56,103,1998155212
10415,15,Jits_Phase_8,0,1,48,40,1998874492
10415,15,Jits_Phase_8,1,5,63,98,1998885528
10415,15,Jits_Phase_8,2,5,56,103,1998914832
10415,15,Jits_Phase_8,3,5,80,127,1998975356
10415,15,Jits_Phase_8,0,5,56,103,1999624608
10415,15,Jits_Phase_8,1,5,80,127,1999627676
10415,15,Jits_Phase_8,2,1,48,45,1999652368
10415,15,Jits_Phase_8,3,5,63,98,1999745444
10415,15,Jits_Phase_8,0,1,48,43,2000429652
10415,15,Jits_Phase_8,1,5,56,103,2000505428
10415,15,Jits_Phase_8,2,5,80,127,2000545352
10415,15,Jits_Phase_8,3,5,63,98,2000555324
10415,15,Jits_Phase_8,0,1,48,35,2001225900
10415,15,Jits_Phase_8,1,5,56,103,2001264960
10415,15,Jits_Phase_8,2,5,80,127,2001284448
10415,15,Jits_Phase_8,3,5,63,98,2001365496
10415,15,Jits_Phase_8,0,5,80,127,2002054464
10415,15,Jits_Phase_8,1,1,48,38,2002062464
10415,15,Jits_Phase_8,2,5,56,103,2002154880
10415,15,Jits_Phase_8,3,5,63,98,2002164988
10415,15,Jits_Phase_8,0,5,63,98,2002824424
10415,15,Jits_Phase_8,1,5,80,127,2002884964
10415,15,Jits_Phase_8,2,5,56,103,2002895604
10415,15,Jits_Phase_8,3,1,48,39,2002921968
10415,15,Jits_Phase_8,0,5,56,103,2003625296
10415,15,Jits_Phase_8,1,1,48,37,2003674352
10415,15,Jits_Phase_8,2,5,63,98,2003694840
10415,15,Jits_Phase_8,3,5,80,127,2003698360
10415,15,Jits_Phase_8,0,1,48,39,2004449968
10415,15,Jits_Phase_8,1,5,63,98,2004454720
10415,15,Jits_Phase_8,2,5,56,103,2004504920
10415,15,Jits_Phase_8,3,5,80,127,2004508212
10415,15,Jits_Phase_8,0,5,56,103,2005214516
10415,15,Jits_Phase_8,1,5,80,127,2005217580
10415,15,Jits_Phase_8,2,1,48,39,2005246128
10415,15,Jits_Phase_8,3,5,63,98,2005304664
10415,15,Jits_Phase_8,0,5,63,98,2006055356
10415,15,Jits_Phase_8,1,1,48,44,2006063204
10415,15,Jits_Phase_8,2,5,56,103,2006145480
10415,15,Jits_Phase_8,3,5,80,127,2006175068
10415,15,Jits_Phase_8,0,5,56,103,2006844780
10415,15,Jits_Phase_8,1,1,48,42,2006881756
10415,15,Jits_Phase_8,2,5,63,98,2006945248
10415,15,Jits_Phase_8,3,5,80,127,2006974772
10415,15,Jits_Phase_8,0,5,63,98,2007664936
10415,15,Jits_Phase_8,1,5,56,103,2007675356
10415,15,Jits_Phase_8,2,1,48,46,2007756764
10415,15,Jits_Phase_8,3,5,80,127,2007765480
10415,15,Jits_Phase_8,0,1,48,37,2008449676
10415,15,Jits_Phase_8,1,5,63,98,2008485368
10415,15,Jits_Phase_8,2,5,56,103,2008565248
10415,15,Jits_Phase_8,3,5,80,127,2008568312
10415,15,Jits_Phase_8,0,1,48,46,2009217592
10415,15,Jits_Phase_8,1,5,80,127,2009244964
10415,15,Jits_Phase_8,2,5,63,98,2009264452
10415,15,Jits_Phase_8,3,5,56,103,2009324776
10415,15,Jits_Phase_8,0,1,48,47,2009982276
10415,15,Jits_Phase_8,1,5,56,103,2010084716
10415,15,Jits_Phase_8,2,5,63,98,2010105272
10415,15,Jits_Phase_8,3,5,80,127,2010108560
10415,15,Jits_Phase_8,0,5,63,98,2010825220
10415,15,Jits_Phase_8,1,1,48,45,2010839952
10415,15,Jits_Phase_8,2,5,80,127,2010904888
10415,15,Jits_Phase_8,3,5,56,103,2010915456
10415,15,Jits_Phase_8,0,1,48,43,2011613788
10415,15,Jits_Phase_8,1,5,63,98,2011645524
10415,15,Jits_Phase_8,2,5,56,103,2011664716
10415,15,Jits_Phase_8,3,5,80,127,2011715048
10415,15,Jits_Phase_8,0,1,48,46,2012388516
10415,15,Jits_Phase_8,1,5,80,127,2012444908
10415,15,Jits_Phase_8,2,5,63,98,2012484908
10415,15,Jits_Phase_8,3,5,56,103,2012504392
10415,15,Jits_Phase_8,0,1,48,47,2013172624
10415,15,Jits_Phase_8,1,5,56,103,2013284584
10415,15,Jits_Phase_8,2,5,63,98,2013294928
10415,15,Jits_Phase_8,3,5,80,127,2013314488
10415,15,Jits_Phase_8,0,1,48,43,2013987908
10415,15,Jits_Phase_8,1,5,56,103,2014014756
10415,15,Jits_Phase_8,2,5,63,98,2014104804
10415,15,Jits_Phase_8,3,5,80,127,2014165488
10415,15,Jits_Phase_8,0,1,48,43,2014816884
10415,15,Jits_Phase_8,1,5,80,127,2014845532
10415,15,Jits_Phase_8,2,5,56,103,2014854532
10415,15,Jits_Phase_8,3,5,63,98,2014925168
10415,15,Jits_Phase_8,0,1,48,42,2015634704
10415,15,Jits_Phase_8,1,5,63,98,2015674808
10415,15,Jits_Phase_8,2,5,80,127,2015764728
10415,15,Jits_Phase_8,3,5,56,103,2015775372
10415,15,Jits_Phase_8,0,5,63,98,2016404756
10415,15,Jits_Phase_8,1,1,48,40,2016407800
10415,15,Jits_Phase_8,2,5,80,127,2016455176
10415,15,Jits_Phase_8,3,5,56,103,2016514376
10415,15,Jits_Phase_8,0,1,48,40,2017187020
10415,15,Jits_Phase_8,1,5,56,103,2017225256
10415,15,Jits_Phase_8,2,5,80,127,2017275408
10415,15,Jits_Phase_8,3,5,63,98,2017294580
10415,15,Jits_Phase_8,0,1,48,44,2017940548
10415,15,Jits_Phase_8,1,5,56,103,2017995268
10415,15,Jits_Phase_8,2,5,80,127,2018054476
10415,15,Jits_Phase_8,3,5,63,98,2018125200
10415,15,Jits_Phase_8,0,1,48,46,2018754844
10415,15,Jits_Phase_8,1,5,56,103,2018794752
10415,15,Jits_Phase_8,2,5,80,127,2018824504
10415,15,Jits_Phase_8,3,5,63,98,2018855432
10415,15,Jits_Phase_8,0,1,48,44,2019524104
10415,15,Jits_Phase_8,1,5,56,103,2019634644
10415,15,Jits_Phase_8,2,5,80,127,2019654956
10415,15,Jits_Phase_8,3,5,63,98,2019714448
10415,15,Jits_Phase_8,0,1,48,46,2020384120
10415,15,Jits_Phase_8,1,5,80,127,2020515316
10415,15,Jits_Phase_8,2,5,56,103,2020525364
10415,15,Jits_Phase_8,3,5,63,98,2020534588
10415,15,Jits_Phase_8,0,1,48,39,2021226212
10415,15,Jits_Phase_8,1,5,56,103,2021275088
10415,15,Jits_Phase_8,2,5,80,127,2021315028
10415,15,Jits_Phase_8,3,5,63,98,2021344540
10415,15,Jits_Phase_8,0,5,56,103,2022045188
10415,15,Jits_Phase_8,1,5,63,98,2022074864
10415,15,Jits_Phase_8,2,1,48,45,2022096492
10415,15,Jits_Phase_8,3,5,80,127,2022114648
10415,15,Jits_Phase_8,0,5,80,127,2022794616
10415,15,Jits_Phase_8,1,1,48,45,2022803136
10415,15,Jits_Phase_8,2,5,63,98,2022844888
10415,15,Jits_Phase_8,3,5,56,103,2022865420
10415,15,Jits_Phase_8,0,1,48,44,2023596448
10415,15,Jits_Phase_8,1,5,56,103,2023625092
10415,15,Jits_Phase_8,2,5,80,127,2023694636
10415,15,Jits_Phase_8,3,5,63,98,2023755248
10415,15,Jits_Phase_8,0,1,48,48,2024357620
10415,15,Jits_Phase_8,1,5,80,127,2024424880
10415,15,Jits_Phase_8,2,5,63,98,2024515148
10415,15,Jits_Phase_8,3,5,56,103,2024535532
10415,15,Jits_Phase_8,0,1,48,46,2025210076
10415,15,Jits_Phase_8,1,5,63,98,2025245240
10415,15,Jits_Phase_8,2,5,56,103,2025264356
10415,15,Jits_Phase_8,3,5,80,127,2025304292
10415,15,Jits_Phase_8,0,1,48,57,2025890080
10415,15,Jits_Phase_8,1,5,80,127,2026004900
10415,15,Jits_Phase_8,2,5,63,98,2026025284
10415,15,Jits_Phase_8,3,5,56,103,2026105300
10415,15,Jits_Phase_8,0,1,48,53,2026717928
10415,15,Jits_Phase_8,1,5,63,98,2026795376
10415,15,Jits_Phase_8,2,5,56,103,2026905048
10415,15,Jits_Phase_8,3,5,80,127,2026908044
10415,15,Jits_Phase_8,0,1,48,45,2027552680
10415,15,Jits_Phase_8,1,5,63,98,2027614456
10415,15,Jits_Phase_8,2,5,56,103,2027624800
10415,15,Jits_Phase_8,3,5,80,127,2027627868
10415,15,Jits_Phase_8,0,1,48,57,2028301028
10415,15,Jits_Phase_8,1,5,56,103,2028395372
10415,15,Jits_Phase_8,2,5,80,127,2028514652
10415,15,Jits_Phase_8,3,5,63,98,2028554616
10415,15,Jits_Phase_8,0,1,48,47,2029133920
10415,15,Jits_Phase_8,1,5,56,103,2029215080
10415,15,Jits_Phase_8,2,5,80,127,2029294884
10415,15,Jits_Phase_8,3,5,63,98,2029314444
10415,15,Jits_Phase_8,0,1,48,33,2030004256
10415,15,Jits_Phase_8,1,5,56,103,2030014764
10415,15,Jits_Phase_8,2,5,63,98,2030125360
10415,15,Jits_Phase_8,3,5,80,127,2030129024
10415,15,Jits_Phase_8,0,1,48,41,2030785648
10415,15,Jits_Phase_8,1,5,56,103,2030854480
10415,15,Jits_Phase_8,2,5,80,127,2030885260
10415,15,Jits_Phase_8,3,5,63,98,2030904672
10415,15,Jits_Phase_8,0,1,48,37,2031641616
10415,15,Jits_Phase_8,1,5,63,98,2031645168
10415,15,Jits_Phase_8,2,5,56,103,2031655140
10415,15,Jits_Phase_8,3,5,80,127,2031664440
10415,15,Jits_Phase_8,0,1,48,43,2032380980
10415,15,Jits_Phase_8,1,5,80,127,2032434580
10415,15,Jits_Phase_8,2,5,56,103,2032484768
10415,15,Jits_Phase_8,3,5,63,98,2032524632
10415,15,Jits_Phase_8,0,1,48,46,2033206888
10415,15,Jits_Phase_8,1,5,80,127,2033255236
10415,15,Jits_Phase_8,2,5,63,98,2033275176
10415,15,Jits_Phase_8,3,5,56,103,2033325360
10415,15,Jits_Phase_8,0,1,48,39,2034032804
10415,15,Jits_Phase_8,1,5,80,127,2034064960
10415,15,Jits_Phase_8,2,5,56,103,2034094564
10415,15,Jits_Phase_8,3,5,63,98,2034165076
10415,15,Jits_Phase_8,0,1,48,42,2034912112
10415,15,Jits_Phase_8,1,5,56,103,2034914620
10415,15,Jits_Phase_8,2,5,80,127,2034924768
10415,15,Jits_Phase_8,3,5,63,98,2034964852
10415,15,Jits_Phase_8,0,5,56,103,2035625308
10415,15,Jits_Phase_8,1,5,63,98,2035644796
10415,15,Jits_Phase_8,2,1,48,44,2035685752
10415,15,Jits_Phase_8,3,5,80,127,2035714416
10415,15,Jits_Phase_8,0,1,48,51,2036376416
10415,15,Jits_Phase_8,1,5,63,98,2036444480
10415,15,Jits_Phase_8,2,5,80,127,2036505176
10415,15,Jits_Phase_8,3,5,56,103,2036525412
10415,15,Jits_Phase_8,0,1,48,48,2037224460
10415,15,Jits_Phase_8,1,5,80,127,2037235192
10415,15,Jits_Phase_8,2,5,56,103,2037264720
10415,15,Jits_Phase_8,3,5,63,98,2037294320
10415,15,Jits_Phase_8,0,1,48,48,2038027204
10415,15,Jits_Phase_8,1,5,56,103,2038034800
10415,15,Jits_Phase_8,2,5,63,98,2038095416
10415,15,Jits_Phase_8,3,5,80,127,2038154592
10415,15,Jits_Phase_8,0,1,48,44,2038808980
10415,15,Jits_Phase_8,1,5,80,127,2038855088
10415,15,Jits_Phase_8,2,5,56,103,2038874500
10415,15,Jits_Phase_8,3,5,63,98,2038945284
10415,15,Jits_Phase_8,0,1,48,46,2039622908
10415,15,Jits_Phase_8,1,5,80,127,2039654696
10415,15,Jits_Phase_8,2,5,63,98,2039675452
10415,15,Jits_Phase_8,3,5,56,103,2039705352
10415,15,Jits_Phase_8,0,1,48,37,2040436220
10415,15,Jits_Phase_8,1,5,80,127,2040445236
10415,15,Jits_Phase_8,2,5,63,98,2040464872
10415,15,Jits_Phase_8,3,5,56,103,2040525112
10415,15,Jits_Phase_8,0,5,80,127,2041245148
10415,15,Jits_Phase_8,1,1,48,46,2041258384
10415,15,Jits_Phase_8,2,5,56,103,2041345344
10415,15,Jits_Phase_8,3,5,63,98,2041375224
10415,15,Jits_Phase_8,0,5,63,98,2042034440
10415,15,Jits_Phase_8,1,1,48,45,2042065728
10415,15,Jits_Phase_8,2,5,80,127,2042084860
10415,15,Jits_Phase_8,3,5,56,103,2042105120
10415,15,Jits_Phase_8,0,1,48,50,2042832356
10415,15,Jits_Phase_8,1,5,80,127,2042875196
10415,15,Jits_Phase_8,2,5,56,103,2042905096
10415,15,Jits_Phase_8,3,5,63,98,2042908236
10415,15,Jits_Phase_8,0,1,48,51,2043656116
10415,15,Jits_Phase_8,1,5,63,98,2043725148
10415,15,Jits_Phase_8,2,5,56,103,2043765368
10415,15,Jits_Phase_8,3,5,80,127,2043784484
10415,15,Jits_Phase_8,0,1,48,47,2044478876
10415,15,Jits_Phase_8,1,5,80,127,2044484972
10415,15,Jits_Phase_8,2,5,63,98,2044564996
10415,15,Jits_Phase_8,3,5,56,103,2044604920
10415,15,Jits_Phase_8,0,1,48,46,2045299916
10415,15,Jits_Phase_8,1,5,63,98,2045305412
10415,15,Jits_Phase_8,2,5,80,127,2045385284
10415,15,Jits_Phase_8,3,5,56,103,2045404460
10415,15,Jits_Phase_8,0,5,56,103,2046145116
10415,15,Jits_Phase_8,1,1,48,45,2046154640
10415,15,Jits_Phase_8,2,5,63,98,2046156204
10415,15,Jits_Phase_8,3,5,80,127,2046195196
10415,15,Jits_Phase_8,0,5,56,103,2046864952
10415,15,Jits_Phase_8,1,5,80,127,2046868020
10415,15,Jits_Phase_8,2,1,48,45,2046903064
10415,15,Jits_Phase_8,3,5,63,98,2047005204
10415,15,Jits_Phase_8,0,5,56,103,2047655276
10415,15,Jits_Phase_8,1,1,48,46,2047701320
10415,15,Jits_Phase_8,2,5,63,98,2047745352
10415,15,Jits_Phase_8,3,5,80,127,2047815168
10415,15,Jits_Phase_8,0,1,48,43,2048494156
10415,15,Jits_Phase_8,1,5,63,98,2048535012
10415,15,Jits_Phase_8,2,5,80,127,2048538376
10415,15,Jits_Phase_8,3,5,56,103,2048595384
10415,15,Jits_Phase_8,0,1,48,46,2049346048
10415,15,Jits_Phase_8,1,5,80,127,2049374696
10415,15,Jits_Phase_8,2,5,56,103,2049395156
10415,15,Jits_Phase_8,3,5,63,98,2049405276
10415,15,Jits_Phase_8,0,5,56,103,2050085308
10415,15,Jits_Phase_8,1,5,63,98,2050094380
10415,15,Jits_Phase_8,2,5,80,127,2050165032
10415,15,Jits_Phase_8,3,1,48,35,2050171812
10415,15,Jits_Phase_8,0,5,80,127,2050885068
10415,15,Jits_Phase_8,1,5,56,103,2050935048
10415,15,Jits_Phase_8,2,1,48,48,2050956820
10415,15,Jits_Phase_8,3,5,63,98,2050985312
10415,15,Jits_Phase_8,0,1,48,45,2051762508
10415,15,Jits_Phase_8,1,5,56,103,2051764548
10415,15,Jits_Phase_8,2,5,63,98,2051775264
10415,15,Jits_Phase_8,3,5,80,127,2051814832
10415,15,Jits_Phase_8,0,5,56,103,2052504884
10415,15,Jits_Phase_8,1,5,63,98,2052544896
10415,15,Jits_Phase_8,2,1,48,47,2052586624
10415,15,Jits_Phase_8,3,5,80,127,2052595264
10415,15,Jits_Phase_8,0,5,80,127,2053264872
10415,15,Jits_Phase_8,1,5,56,103,2053315148
10415,15,Jits_Phase_8,2,5,63,98,2053335384
10415,15,Jits_Phase_8,3,1,48,45,2053401976
10415,15,Jits_Phase_8,0,5,80,127,2054074828
10415,15,Jits_Phase_8,1,5,63,98,2054135244
10415,15,Jits_Phase_8,2,1,48,41,2054159112
10415,15,Jits_Phase_8,3,5,56,103,2054215176
10415,15,Jits_Phase_8,0,5,80,127,2054855192
10415,15,Jits_Phase_8,1,1,48,39,2054875548
10415,15,Jits_Phase_8,2,5,56,103,2054895148
10415,15,Jits_Phase_8,3,5,63,98,2054914412
10415,15,Jits_Phase_8,0,1,48,48,2055618136
10415,15,Jits_Phase_8,1,5,56,103,2055705024
10415,15,Jits_Phase_8,2,5,80,127,2055715956
10415,15,Jits_Phase_8,3,5,63,98,2055755068
10415,15,Jits_Phase_8,0,1,48,41,2056452468
10415,15,Jits_Phase_8,1,5,56,103,2056575416
10415,15,Jits_Phase_8,2,5,63,98,2056615352
10415,15,Jits_Phase_8,3,5,80,127,2056618792
10415,15,Jits_Phase_8,0,5,63,98,2057244976
10415,15,Jits_Phase_8,1,5,80,127,2057285140
10415,15,Jits_Phase_8,2,1,48,34,2057318976
10415,15,Jits_Phase_8,3,5,56,103,2057354812
10415,15,Jits_Phase_8,0,5,63,98,2058015208
10415,15,Jits_Phase_8,1,1,48,41,2058068596
10415,15,Jits_Phase_8,2,5,56,103,2058095220
10415,15,Jits_Phase_8,3,5,80,127,2058155388
10415,15,Jits_Phase_8,0,5,80,127,2058825080
10415,15,Jits_Phase_8,1,1,48,45,2058869928
10415,15,Jits_Phase_8,2,5,63,98,2058875200
10415,15,Jits_Phase_8,3,5,56,103,2058905100
10415,15,Jits_Phase_8,0,5,56,103,2059614508
10415,15,Jits_Phase_8,1,5,63,98,2059664936
10415,15,Jits_Phase_8,2,1,48,40,2059672392
10415,15,Jits_Phase_8,3,5,80,127,2059675124
10415,15,Jits_Phase_8,0,5,56,103,2060424688
10415,15,Jits_Phase_8,1,1,48,45,2060427288
10415,15,Jits_Phase_8,2,5,63,98,2060535352
10415,15,Jits_Phase_8,3,5,80,127,2060554544
10415,15,Jits_Phase_8,0,5,63,98,2061225212
10415,15,Jits_Phase_8,1,1,48,45,2061238968
10415,15,Jits_Phase_8,2,5,80,127,2061274436
10415,15,Jits_Phase_8,3,5,56,103,2061364504
10415,15,Jits_Phase_8,0,5,63,98,2062014928
10415,15,Jits_Phase_8,1,5,80,127,2062044604
10415,15,Jits_Phase_8,2,1,48,47,2062075924
10415,15,Jits_Phase_8,3,5,56,103,2062134752
10415,15,Jits_Phase_8,0,5,63,98,2062814532
10415,15,Jits_Phase_8,1,5,56,103,2062824904
10415,15,Jits_Phase_8,2,1,48,40,2062891544
10415,15,Jits_Phase_8,3,5,80,127,2062925216
10415,15,Jits_Phase_8,0,1,48,40,2063590896
10415,15,Jits_Phase_8,1,5,63,98,2063714832
10415,15,Jits_Phase_8,2,5,80,127,2063745332
10415,15,Jits_Phase_8,3,5,56,103,2063775156
10415,15,Jits_Phase_8,0,1,48,51,2064415836
10415,15,Jits_Phase_8,1,5,80,127,2064535120
10415,15,Jits_Phase_8,2,5,63,98,2064545168
10415,15,Jits_Phase_8,3,5,56,103,2064574916
10415,15,Jits_Phase_8,0,5,80,127,2065235260
10415,15,Jits_Phase_8,1,1,48,49,2065243032
10415,15,Jits_Phase_8,2,5,63,98,2065254892
10415,15,Jits_Phase_8,3,5,56,103,2065305088
10415,15,Jits_Phase_8,0,1,48,46,2066004136
10415,15,Jits_Phase_8,1,5,63,98,2066064916
10415,15,Jits_Phase_8,2,5,80,127,2066125144
10415,15,Jits_Phase_8,3,5,56,103,2066144480
10415,15,Jits_Phase_8,0,1,48,46,2066815280
10415,15,Jits_Phase_8,1,5,63,98,2066824520
10415,15,Jits_Phase_8,2,5,56,103,2066875020
10415,15,Jits_Phase_8,3,5,80,127,2066884920
10415,15,Jits_Phase_8,4,1,48,15,2067242992
10415,15,Jits_Phase_8,0,1,48,44,2067655176
10415,15,Jits_Phase_8,1,5,56,103,2067656368
10415,15,Jits_Phase_8,2,5,80,127,2067665220
10415,15,Jits_Phase_8,3,5,63,98,2067764500
10415,15,Jits_Phase_8,0,5,80,127,2068415004
10415,15,Jits_Phase_8,1,5,63,98,2068425052
10415,15,Jits_Phase_8,2,1,48,45,2068499140
10415,15,Jits_Phase_8,3,5,56,103,2068574608
10415,15,Jits_Phase_8,0,5,63,98,2069224912
10415,15,Jits_Phase_8,1,1,48,46,2069264024
10415,15,Jits_Phase_8,2,5,80,127,2069265596
10415,15,Jits_Phase_8,3,5,56,103,2069344788
10415,15,Jits_Phase_8,0,5,56,103,2069975272
10415,15,Jits_Phase_8,1,1,48,50,2070064356
10415,15,Jits_Phase_8,2,5,80,127,2070074864
10415,15,Jits_Phase_8,3,5,63,98,2070095172
10415,15,Jits_Phase_8,0,5,80,127,2070794480
10415,15,Jits_Phase_8,1,5,56,103,2070805124
10415,15,Jits_Phase_8,2,1,48,49,2070855072
10415,15,Jits_Phase_8,3,5,63,98,2070895100
10415,15,Jits_Phase_8,0,5,56,103,2071595304
10415,15,Jits_Phase_8,1,5,63,98,2071615016
10415,15,Jits_Phase_8,2,1,48,48,2071639412
10415,15,Jits_Phase_8,3,5,80,127,2071694800
10415,15,Jits_Phase_8,0,5,63,98,2072344884
10415,15,Jits_Phase_8,1,1,48,46,2072417224
10415,15,Jits_Phase_8,2,5,56,103,2072435156
10415,15,Jits_Phase_8,3,5,80,127,2072438076
10415,15,Jits_Phase_8,0,5,56,103,2073175348
10415,15,Jits_Phase_8,1,1,48,47,2073195400
10415,15,Jits_Phase_8,2,5,80,127,2073235056
10415,15,Jits_Phase_8,3,5,63,98,2073245028
10415,15,Jits_Phase_8,0,1,48,48,2073964680
10415,15,Jits_Phase_8,1,5,80,127,2074025388
10415,15,Jits_Phase_8,2,5,56,103,2074034536
10415,15,Jits_Phase_8,3,5,63,98,2074037748
10415,15,Jits_Phase_8,0,1,48,52,2074751528
10415,15,Jits_Phase_8,1,5,56,103,2074785128
10415,15,Jits_Phase_8,2,5,80,127,2074795400
10415,15,Jits_Phase_8,3,5,63,98,2074815032
10415,15,Jits_Phase_8,0,1,48,46,2075542292
10415,15,Jits_Phase_8,1,5,63,98,2075555064
10415,15,Jits_Phase_8,2,5,80,127,2075615004
10415,15,Jits_Phase_8,3,5,56,103,2075664844
10415,15,Jits_Phase_8,0,1,48,50,2076331712
10415,15,Jits_Phase_8,1,5,63,98,2076434924
10415,15,Jits_Phase_8,2,5,56,103,2076445044
10415,15,Jits_Phase_8,3,5,80,127,2076495172
10415,15,Jits_Phase_8,0,5,63,98,2077135188
10415,15,Jits_Phase_8,1,5,80,127,2077154752
10415,15,Jits_Phase_8,2,5,56,103,2077164972
10415,15,Jits_Phase_8,3,1,48,43,2077173944
10415,15,Jits_Phase_8,0,5,63,98,2077935036
10415,15,Jits_Phase_8,1,5,80,127,2077938252
10415,15,Jits_Phase_8,2,1,48,48,2077963564
10415,15,Jits_Phase_8,3,5,56,103,2077974896
10415,15,Jits_Phase_8,0,1,48,41,2078761336
10415,15,Jits_Phase_8,1,5,63,98,2078805276
10415,15,Jits_Phase_8,2,5,80,127,2078835176
10415,15,Jits_Phase_8,3,5,56,103,2078845224
10415,15,Jits_Phase_8,0,1,48,46,2079554092
10415,15,Jits_Phase_8,1,5,56,103,2079555580
10415,15,Jits_Phase_8,2,5,80,127,2079584736
10415,15,Jits_Phase_8,3,5,63,98,2079615236
10415,15,Jits_Phase_8,0,1,48,45,2080317552
10415,15,Jits_Phase_8,1,5,63,98,2080454972
10415,15,Jits_Phase_8,2,5,56,103,2080494936
10415,15,Jits_Phase_8,3,5,80,127,2080498000
10415,15,Jits_Phase_8,0,5,80,127,2081154284
10415,15,Jits_Phase_8,1,1,48,43,2081169908
10415,15,Jits_Phase_8,2,5,56,103,2081235416
10415,15,Jits_Phase_8,3,5,63,98,2081284504
10415,15,Jits_Phase_8,0,1,48,39,2081914688
10415,15,Jits_Phase_8,1,5,80,127,2081934792
10415,15,Jits_Phase_8,2,5,56,103,2081955176
10415,15,Jits_Phase_8,3,5,63,98,2082045392
10415,15,Jits_Phase_8,0,1,48,40,2082703508
10415,15,Jits_Phase_8,1,5,80,127,2082775524
10415,15,Jits_Phase_8,2,5,63,98,2082815324
10415,15,Jits_Phase_8,3,5,56,103,2082855340
10415,15,Jits_Phase_8,0,1,48,37,2083553764
10415,15,Jits_Phase_8,1,5,63,98,2083585500
10415,15,Jits_Phase_8,2,5,80,127,2083644992
10415,15,Jits_Phase_8,3,5,56,103,2083674428
10415,15,Jits_Phase_8,0,1,48,40,2084345068
10415,15,Jits_Phase_8,1,5,56,103,2084425184
10415,15,Jits_Phase_8,2,5,80,127,2084454920
10415,15,Jits_Phase_8,3,5,63,98,2084544824
10415,15,Jits_Phase_8,0,5,56,103,2085234984
10415,15,Jits_Phase_8,1,1,48,42,2085241172
10415,15,Jits_Phase_8,2,5,80,127,2085344580
10415,15,Jits_Phase_8,3,5,63,98,2085375400
10415,15,Jits_Phase_8,0,5,56,103,2086084960
10415,15,Jits_Phase_8,1,1,48,46,2086086076
10415,15,Jits_Phase_8,2,5,63,98,2086145372
10415,15,Jits_Phase_8,3,5,80,127,2086175124
10415,15,Jits_Phase_8,0,5,56,103,2086855072
10415,15,Jits_Phase_8,1,1,48,40,2086883600
10415,15,Jits_Phase_8,2,5,63,98,2086924700
10415,15,Jits_Phase_8,3,5,80,127,2086945232
10415,15,Jits_Phase_8,0,5,80,127,2087625028
10415,15,Jits_Phase_8,1,5,63,98,2087644960
10415,15,Jits_Phase_8,2,1,48,46,2087680024
10415,15,Jits_Phase_8,3,5,56,103,2087694956
10415,15,Jits_Phase_8,0,5,63,98,2088445348
10415,15,Jits_Phase_8,1,1,48,41,2088451760
10415,15,Jits_Phase_8,2,5,80,127,2088454492
10415,15,Jits_Phase_8,3,5,56,103,2088504764
10415,15,Jits_Phase_8,0,5,63,98,2089245028
10415,15,Jits_Phase_8,1,1,48,44,2089277216
10415,15,Jits_Phase_8,2,5,80,127,2089314780
10415,15,Jits_Phase_8,3,5,56,103,2089335016
10415,15,Jits_Phase_8,0,5,63,98,2090074828
10415,15,Jits_Phase_8,1,5,80,127,2090077892
10415,15,Jits_Phase_8,2,1,48,40,2090081012
10415,15,Jits_Phase_8,3,5,56,103,2090145096
10415,15,Jits_Phase_8,0,5,80,127,2090825052
10415,15,Jits_Phase_8,1,5,56,103,2090844764
10415,15,Jits_Phase_8,2,5,63,98,2090854740
10415,15,Jits_Phase_8,3,1,48,38,2090870068
10415,15,Jits_Phase_8,0,5,56,103,2091645276
10415,15,Jits_Phase_8,1,1,48,43,2091665780
10415,15,Jits_Phase_8,2,5,63,98,2091735400
10415,15,Jits_Phase_8,3,5,80,127,2091738912
10415,15,Jits_Phase_8,0,5,80,127,2092415296
10415,15,Jits_Phase_8,1,5,56,103,2092424668
10415,15,Jits_Phase_8,2,5,63,98,2092444980
10415,15,Jits_Phase_8,3,1,48,48,2092497092
10415,15,Jits_Phase_8,0,5,63,98,2093214984
10415,15,Jits_Phase_8,1,5,80,127,2093274700
10415,15,Jits_Phase_8,2,1,48,40,2093280664
10415,15,Jits_Phase_8,3,5,56,103,2093284964
10415,15,Jits_Phase_8,0,1,48,46,2094061900
10415,15,Jits_Phase_8,1,5,63,98,2094084340
10415,15,Jits_Phase_8,2,5,80,127,2094115060
10415,15,Jits_Phase_8,3,5,56,103,2094155072
10415,15,Jits_Phase_8,0,1,48,43,2094861288
10415,15,Jits_Phase_8,1,5,56,103,2094875108
10415,15,Jits_Phase_8,2,5,80,127,2094885232
10415,15,Jits_Phase_8,3,5,63,98,2094925168
10415,15,Jits_Phase_8,0,5,80,127,2095634716
10415,15,Jits_Phase_8,1,1,48,42,2095705640
10415,15,Jits_Phase_8,2,5,56,103,2095714876
10415,15,Jits_Phase_8,3,5,63,98,2095724848
10415,15,Jits_Phase_8,0,5,80,127,2096484828
10415,15,Jits_Phase_8,1,1,48,45,2096517616
10415,15,Jits_Phase_8,2,5,56,103,2096564768
10415,15,Jits_Phase_8,3,5,63,98,2096574816
10415,15,Jits_Phase_8,0,5,80,127,2097325516
10415,15,Jits_Phase_8,1,1,48,52,2097343928
10415,15,Jits_Phase_8,2,5,56,103,2097374664
10415,15,Jits_Phase_8,3,5,63,98,2097424892
10415,15,Jits_Phase_8,0,1,48,47,2098114232
10415,15,Jits_Phase_8,1,5,56,103,2098264412
10415,15,Jits_Phase_8,2,5,63,98,2098267404
10415,15,Jits_Phase_8,3,5,80,127,2098314684
10415,15,Jits_Phase_8,0,1,48,49,2099018440
10415,15,Jits_Phase_8,1,5,56,103,2099084628
10415,15,Jits_Phase_8,2,5,63,98,2099115484
10415,15,Jits_Phase_8,3,5,80,127,2099124708
10415,15,Jits_Phase_8,0,5,63,98,2099795388
10415,15,Jits_Phase_8,1,5,56,103,2099864924
10415,15,Jits_Phase_8,2,1,48,43,2099868116
10415,15,Jits_Phase_8,3,5,80,127,2099915040
10415,15,Jits_Phase_8,0,5,63,98,2100624740
10415,15,Jits_Phase_8,1,5,56,103,2100635008
10415,15,Jits_Phase_8,2,5,80,127,2100638148
10415,15,Jits_Phase_8,3,1,48,46,2100721448
10415,15,Jits_Phase_8,0,5,80,127,2101375332
10415,15,Jits_Phase_8,1,1,48,48,2101423932
10415,15,Jits_Phase_8,2,5,56,103,2101434668
10415,15,Jits_Phase_8,3,5,63,98,2101524808
10415,15,Jits_Phase_8,0,5,80,127,2102175028
10415,15,Jits_Phase_8,1,1,48,48,2102265676
10415,15,Jits_Phase_8,2,5,56,103,2102274620
10415,15,Jits_Phase_8,3,5,63,98,2102315304
10415,15,Jits_Phase_8,0,5,56,103,2103024948
10415,15,Jits_Phase_8,1,5,63,98,2103044732
10415,15,Jits_Phase_8,2,5,80,127,2103085564
10415,15,Jits_Phase_8,3,1,48,46,2103104652
10415,15,Jits_Phase_8,0,5,63,98,2103795196
10415,15,Jits_Phase_8,1,5,56,103,2103814536
10415,15,Jits_Phase_8,2,1,48,40,2103896912
10415,15,Jits_Phase_8,3,5,80,127,2103914848
10415,15,Jits_Phase_8,0,1,48,14,2104579928
10415,15,Jits_Phase_8,1,5,63,98,2104584680
10415,15,Jits_Phase_8,2,5,80,127,2104695104
10415,15,Jits_Phase_8,3,5,56,103,2104724780
10415,15,Jits_Phase_8,4,1,48,43,2104827552
10415,15,Jits_Phase_8,0,5,56,103,2105404776
10415,15,Jits_Phase_8,1,5,63,98,2105434528
10415,15,Jits_Phase_8,2,5,80,127,2105484800
10415,15,Jits_Phase_8,3,1,48,51,2105587956
10415,15,Jits_Phase_8,0,5,63,98,2106174952
10415,15,Jits_Phase_8,1,5,56,103,2106204556
10415,15,Jits_Phase_8,2,5,80,127,2106254828
10415,15,Jits_Phase_8,3,1,48,45,2106354536
10415,15,Jits_Phase_8,0,5,56,103,2107005196
10415,15,Jits_Phase_8,1,5,63,98,2107024684
10415,15,Jits_Phase_8,2,5,80,127,2107104772
10415,15,Jits_Phase_8,3,1,48,48,2107199832
10415,15,Jits_Phase_8,0,5,63,98,2107775220
10415,15,Jits_Phase_8,1,5,56,103,2107834716
10415,15,Jits_Phase_8,2,5,80,127,2107864616
10415,15,Jits_Phase_8,3,1,48,45,2108057060
10415,15,Jits_Phase_8,0,5,56,103,2108614984
10415,15,Jits_Phase_8,1,5,80,127,2108674576
10415,15,Jits_Phase_8,2,5,63,98,2108715560
10415,15,Jits_Phase_8,3,1,48,42,2108887756
10415,15,Jits_Phase_8,0,5,63,98,2109395500
10415,15,Jits_Phase_8,1,5,56,103,2109454648
10415,15,Jits_Phase_8,2,5,80,127,2109525296
10415,15,Jits_Phase_8,3,1,48,48,2109706956
10415,15,Jits_Phase_8,0,5,56,103,2110275004
10415,15,Jits_Phase_8,1,5,63,98,2110285272
10415,15,Jits_Phase_8,2,5,80,127,2110288784
10415,15,Jits_Phase_8,3,1,48,45,2110509628
10415,15,Jits_Phase_8,0,5,63,98,2111015132
10415,15,Jits_Phase_8,1,5,56,103,2111074624
10415,15,Jits_Phase_8,2,5,80,127,2111077840
10415,15,Jits_Phase_8,3,1,48,44,2111333144
10415,15,Jits_Phase_8,0,5,63,98,2111794720
10415,15,Jits_Phase_8,1,5,80,127,2111825588
10415,15,Jits_Phase_8,2,5,56,103,2111844704
10415,15,Jits_Phase_8,3,1,48,36,2112190936
10415,15,Jits_Phase_8,0,5,56,103,2112524720
10415,15,Jits_Phase_8,1,5,63,98,2112574848
10415,15,Jits_Phase_8,2,5,80,127,2112654716
10415,15,Jits_Phase_8,0,1,48,43,2112986260
10415,15,Jits_Phase_8,1,5,80,127,2113225148
10415,15,Jits_Phase_8,2,5,63,98,2113265112
10415,15,Jits_Phase_8,3,5,56,103,2113284596
10415,15,Jits_Phase_8,0,1,48,45,2113752056
10415,15,Jits_Phase_8,1,5,56,103,2114094600
10415,15,Jits_Phase_8,2,5,80,127,2114104648
10415,15,Jits_Phase_8,3,5,63,98,2114125180
10415,15,Jits_Phase_8,0,1,48,46,2114576652
10415,15,Jits_Phase_8,1,5,56,103,2114874804
10415,15,Jits_Phase_8,2,5,63,98,2114924784
10415,15,Jits_Phase_8,3,5,80,127,2114954532
10415,15,Jits_Phase_8,0,1,48,45,2115357148
10415,15,Jits_Phase_8,1,5,56,103,2115625184
10415,15,Jits_Phase_8,2,5,63,98,2115634704
10415,15,Jits_Phase_8,3,5,80,127,2115684828
10415,15,Jits_Phase_8,0,1,48,43,2116181688
10415,15,Jits_Phase_8,1,5,56,103,2116414816
10415,15,Jits_Phase_8,2,5,80,127,2116417884
10415,15,Jits_Phase_8,3,5,63,98,2116574692
10415,15,Jits_Phase_8,0,1,48,42,2117034416
10415,15,Jits_Phase_8,1,5,63,98,2117235016
10415,15,Jits_Phase_8,2,5,56,103,2117304624
10415,15,Jits_Phase_8,3,5,80,127,2117344560
10415,15,Jits_Phase_8,0,1,48,45,2117859040
10415,15,Jits_Phase_8,1,5,63,98,2118074708
10415,15,Jits_Phase_8,2,5,56,103,2118164864
10415,15,Jits_Phase_8,3,5,80,127,2118167856
10415,15,Jits_Phase_8,0,1,48,46,2118705648
10415,15,Jits_Phase_8,1,5,56,103,2118854980
10415,15,Jits_Phase_8,2,5,63,98,2118945064
10415,15,Jits_Phase_8,3,5,80,127,2118955632
10415,15,Jits_Phase_8,0,1,48,35,2119562268
10415,15,Jits_Phase_8,1,5,56,103,2119625012
10415,15,Jits_Phase_8,2,5,63,98,2119675224
10415,15,Jits_Phase_8,3,5,80,127,2119704976
10415,15,Jits_Phase_8,0,1,48,51,2120392984
10415,15,Jits_Phase_8,1,5,63,98,2120504648
10415,15,Jits_Phase_8,2,5,80,127,2120514992
10415,15,Jits_Phase_8,3,5,56,103,2120575528
10415,15,Jits_Phase_8,0,1,48,46,2121220552
10415,15,Jits_Phase_8,1,5,63,98,2121224628
10415,15,Jits_Phase_8,2,5,80,127,2121285020
10415,15,Jits_Phase_8,3,5,56,103,2121324940
10415,15,Jits_Phase_8,0,1,48,50,2122048248
10415,15,Jits_Phase_8,1,5,56,103,2122124772
10415,15,Jits_Phase_8,2,5,80,127,2122145068
10415,15,Jits_Phase_8,3,5,63,98,2122164632
10415,15,Jits_Phase_8,0,5,63,98,2122844680
10415,15,Jits_Phase_8,1,1,48,42,2122863708
10415,15,Jits_Phase_8,2,5,56,103,2122865204
10415,15,Jits_Phase_8,3,5,80,127,2122904920
10415,15,Jits_Phase_8,0,5,63,98,2123654624
10415,15,Jits_Phase_8,1,1,48,48,2123656712
10415,15,Jits_Phase_8,2,5,80,127,2123685340
10415,15,Jits_Phase_8,3,5,56,103,2123704604
10415,15,Jits_Phase_8,0,5,80,127,2124424492
10415,15,Jits_Phase_8,1,1,48,43,2124438096
10415,15,Jits_Phase_8,2,5,56,103,2124474836
10415,15,Jits_Phase_8,3,5,63,98,2124535172
10415,15,Jits_Phase_8,0,5,63,98,2125214968
10415,15,Jits_Phase_8,1,1,48,50,2125246184
10415,15,Jits_Phase_8,2,5,56,103,2125334940
10415,15,Jits_Phase_8,3,5,80,127,2125364452
10415,15,Jits_Phase_8,0,1,48,45,2126015068
10415,15,Jits_Phase_8,1,5,80,127,2126054824
10415,15,Jits_Phase_8,2,5,63,98,2126075360
10415,15,Jits_Phase_8,3,5,56,103,2126144876
10415,15,Jits_Phase_8,0,1,48,51,2126817668
10415,15,Jits_Phase_8,1,5,63,98,2126875112
10415,15,Jits_Phase_8,2,5,56,103,2126885084
10415,15,Jits_Phase_8,3,5,80,127,2126965012
10415,15,Jits_Phase_8,0,1,48,45,2127584320
10415,15,Jits_Phase_8,1,5,56,103,2127735092
10415,15,Jits_Phase_8,2,5,80,127,2127764916
10415,15,Jits_Phase_8,3,5,63,98,2127775188
10415,15,Jits_Phase_8,0,9999,9999,9999,1992892476
10415,15,Jits_Phase_8,1,9999,9999,9999,1993692268
10415,15,Jits_Phase_8,2,9999,9999,9999,1994493000
10415,15,Jits_Phase_8,3,9999,9999,9999,1995292788
10415,15,Jits_Phase_8,4,9999,9999,9999,1996092480
10415,15,Jits_Phase_8,5,9999,9999,9999,1996892244
10415,15,Jits_Phase_8,6,9999,9999,9999,1997693044
10415,15,Jits_Phase_8,7,9999,9999,9999,1998492744
10415,15,Jits_Phase_8,8,9999,9999,9999,1999292524
10415,15,Jits_Phase_8,9,9999,9999,9999,2000092268
10415,15,Jits_Phase_8,10,9999,9999,9999,2000893044
10415,15,Jits_Phase_8,11,9999,9999,9999,2001692732
10415,15,Jits_Phase_8,12,9999,9999,9999,2002492492
10415,15,Jits_Phase_8,13,9999,9999,9999,2003292260
10415,15,Jits_Phase_8,14,9999,9999,9999,2004093052
10415,15,Jits_Phase_8,15,9999,9999,9999,2004892792
10415,15,Jits_Phase_8,16,9999,9999,9999,2005692532
10415,15,Jits_Phase_8,17,9999,9999,9999,2006492236
10415,15,Jits_Phase_8,18,9999,9999,9999,2007292996
10415,15,Jits_Phase_8,19,9999,9999,9999,2008092776
10415,15,Jits_Phase_8,20,9999,9999,9999,2008892532
10415,15,Jits_Phase_8,21,9999,9999,9999,2009692284
10415,15,Jits_Phase_8,22,9999,9999,9999,2010493008
10415,15,Jits_Phase_8,23,9999,9999,9999,2011292764
10415,15,Jits_Phase_8,24,9999,9999,9999,2012092520
10415,15,Jits_Phase_8,25,9999,9999,9999,2012892280
10415,15,Jits_Phase_8,26,9999,9999,9999,2013693036
10415,15,Jits_Phase_8,27,9999,9999,9999,2014492796
10415,15,Jits_Phase_8,28,9999,9999,9999,2015292476
10415,15,Jits_Phase_8,29,9999,9999,9999,2016092244
10415,15,Jits_Phase_8,30,9999,9999,9999,2016872520
10415,15,Jits_Phase_8,31,9999,9999,9999,2017672276
10415,15,Jits_Phase_8,32,9999,9999,9999,2018473084
10415,15,Jits_Phase_8,33,9999,9999,9999,2019272760
10415,15,Jits_Phase_8,34,9999,9999,9999,2020072540
10415,15,Jits_Phase_8,35,9999,9999,9999,2020872308
10415,15,Jits_Phase_8,36,9999,9999,9999,2021673040
10415,15,Jits_Phase_8,37,9999,9999,9999,2022472804
10415,15,Jits_Phase_8,38,9999,9999,9999,2023272568
10415,15,Jits_Phase_8,39,9999,9999,9999,2024072268
10415,15,Jits_Phase_8,40,9999,9999,9999,2024873076
10415,15,Jits_Phase_8,41,9999,9999,9999,2025672760
10415,15,Jits_Phase_8,42,9999,9999,9999,2026472536
10415,15,Jits_Phase_8,43,9999,9999,9999,2027272284
10415,15,Jits_Phase_8,44,9999,9999,9999,2028073072
10415,15,Jits_Phase_8,45,9999,9999,9999,2028872760
10415,15,Jits_Phase_8,46,9999,9999,9999,2029672516
10415,15,Jits_Phase_8,47,9999,9999,9999,2030472272
10415,15,Jits_Phase_8,48,9999,9999,9999,2031292480
10415,15,Jits_Phase_8,49,9999,9999,9999,2032092236
10415,15,Jits_Phase_8,50,9999,9999,9999,2032892988
10415,15,Jits_Phase_8,51,9999,9999,9999,2033692744
10415,15,Jits_Phase_8,52,9999,9999,9999,2034492508
10415,15,Jits_Phase_8,53,9999,9999,9999,2035292268
10415,15,Jits_Phase_8,54,9999,9999,9999,2036092996
10415,15,Jits_Phase_8,55,9999,9999,9999,2036892772
10415,15,Jits_Phase_8,56,9999,9999,9999,2037692528
10415,15,Jits_Phase_8,57,9999,9999,9999,2038492288
10415,15,Jits_Phase_8,58,9999,9999,9999,2039293040
10415,15,Jits_Phase_8,59,9999,9999,9999,2040092724
10415,15,Jits_Phase_8,60,9999,9999,9999,2040892484
10415,15,Jits_Phase_8,61,9999,9999,9999,2041692244
10415,15,Jits_Phase_8,62,9999,9999,9999,2042492988
10415,15,Jits_Phase_8,63,9999,9999,9999,2043292740
10415,15,Jits_Phase_8,64,9999,9999,9999,2044132444
10415,15,Jits_Phase_8,65,9999,9999,9999,2044932152
10415,15,Jits_Phase_8,66,9999,9999,9999,2045732960
10415,15,Jits_Phase_8,67,9999,9999,9999,2046532724
10415,15,Jits_Phase_8,68,9999,9999,9999,2047332416
10415,15,Jits_Phase_8,69,9999,9999,9999,2048132188
10415,15,Jits_Phase_8,70,9999,9999,9999,2048932928
10415,15,Jits_Phase_8,71,9999,9999,9999,2049732692
10415,15,Jits_Phase_8,72,9999,9999,9999,2050532444
10415,15,Jits_Phase_8,73,9999,9999,9999,2051332160
10415,15,Jits_Phase_8,74,9999,9999,9999,2052132960
10415,15,Jits_Phase_8,75,9999,9999,9999,2052932720
10415,15,Jits_Phase_8,76,9999,9999,9999,2053732412
10415,15,Jits_Phase_8,77,9999,9999,9999,2054532184
10415,15,Jits_Phase_8,78,9999,9999,9999,2055332920
10415,15,Jits_Phase_8,79,9999,9999,9999,2056132692
10415,15,Jits_Phase_8,80,9999,9999,9999,2056932452
10415,15,Jits_Phase_8,81,9999,9999,9999,2057692268
10415,15,Jits_Phase_8,82,9999,9999,9999,2058493016
10415,15,Jits_Phase_8,83,9999,9999,9999,2059292772
10415,15,Jits_Phase_8,84,9999,9999,9999,2060092536
10415,15,Jits_Phase_8,85,9999,9999,9999,2060892236
10415,15,Jits_Phase_8,86,9999,9999,9999,2061692980
10415,15,Jits_Phase_8,87,9999,9999,9999,2062492732
10415,15,Jits_Phase_8,88,9999,9999,9999,2063292484
10415,15,Jits_Phase_8,89,9999,9999,9999,2064092252
10415,15,Jits_Phase_8,90,9999,9999,9999,2064893008
10415,15,Jits_Phase_8,91,9999,9999,9999,2065692764
10415,15,Jits_Phase_8,92,9999,9999,9999,2066492536
10415,15,Jits_Phase_8,93,9999,9999,9999,2067292284
10415,15,Jits_Phase_8,94,9999,9999,9999,2068093052
10415,15,Jits_Phase_8,95,9999,9999,9999,2068892736
10415,15,Jits_Phase_8,96,9999,9999,9999,2069692504
10415,15,Jits_Phase_8,97,9999,9999,9999,2070412404
10415,15,Jits_Phase_8,98,9999,9999,9999,2071212104
10415,15,Jits_Phase_8,99,9999,9999,9999,2072012852
10415,15,Jits_Phase_8,100,9999,9999,9999,2072812640
10415,15,Jits_Phase_8,101,9999,9999,9999,2073612400
10415,15,Jits_Phase_8,102,9999,9999,9999,2074412092
10415,15,Jits_Phase_8,103,9999,9999,9999,2075212892
10415,15,Jits_Phase_8,104,9999,9999,9999,2076012652
10415,15,Jits_Phase_8,105,9999,9999,9999,2076812340
10415,15,Jits_Phase_8,106,9999,9999,9999,2077612092
10415,15,Jits_Phase_8,107,9999,9999,9999,2078412880
10415,15,Jits_Phase_8,108,9999,9999,9999,2079212668
10415,15,Jits_Phase_8,109,9999,9999,9999,2080012344
10415,15,Jits_Phase_8,110,9999,9999,9999,2080812104
10415,15,Jits_Phase_8,111,9999,9999,9999,2081612908
10415,15,Jits_Phase_8,112,9999,9999,9999,2082412604
10415,15,Jits_Phase_8,113,9999,9999,9999,2083212360
10415,15,Jits_Phase_8,114,9999,9999,9999,2084093052
10415,15,Jits_Phase_8,115,9999,9999,9999,2084892732
10415,15,Jits_Phase_8,116,9999,9999,9999,2085692496
10415,15,Jits_Phase_8,117,9999,9999,9999,2086492276
10415,15,Jits_Phase_8,118,9999,9999,9999,2087293024
10415,15,Jits_Phase_8,119,9999,9999,9999,2088092792
10415,15,Jits_Phase_8,120,9999,9999,9999,2088892488
10415,15,Jits_Phase_8,121,9999,9999,9999,2089692248
10415,15,Jits_Phase_8,122,9999,9999,9999,2090492992
10415,15,Jits_Phase_8,123,9999,9999,9999,2091292740
10415,15,Jits_Phase_8,124,9999,9999,9999,2092092508
10415,15,Jits_Phase_8,125,9999,9999,9999,2092892272
10415,15,Jits_Phase_8,126,9999,9999,9999,2093692988
10415,15,Jits_Phase_8,127,9999,9999,9999,2094492752
10415,15,Jits_Phase_8,128,9999,9999,9999,2095292512
10415,15,Jits_Phase_8,129,9999,9999,9999,2096092268
10415,15,Jits_Phase_8,130,9999,9999,9999,2096893040
10415,15,Jits_Phase_8,131,9999,9999,9999,2097852540
10415,15,Jits_Phase_8,132,9999,9999,9999,2098652232
10415,15,Jits_Phase_8,133,9999,9999,9999,2099452988
10415,15,Jits_Phase_8,134,9999,9999,9999,2100252744
10415,15,Jits_Phase_8,135,9999,9999,9999,2101052488
10415,15,Jits_Phase_8,136,9999,9999,9999,2101852240
10415,15,Jits_Phase_8,137,9999,9999,9999,2102652984
10415,15,Jits_Phase_8,138,9999,9999,9999,2103452756
10415,15,Jits_Phase_8,139,9999,9999,9999,2104252524
10415,15,Jits_Phase_8,140,9999,9999,9999,2105052264
10415,15,Jits_Phase_8,141,9999,9999,9999,2105852988
10415,15,Jits_Phase_8,142,9999,9999,9999,2106652752
10415,15,Jits_Phase_8,143,9999,9999,9999,2107452512
10415,15,Jits_Phase_8,144,9999,9999,9999,2108252276
10415,15,Jits_Phase_8,145,9999,9999,9999,2109053008
10415,15,Jits_Phase_8,146,9999,9999,9999,2109852780
10415,15,Jits_Phase_8,147,9999,9999,9999,2110652536
10415,15,Jits_Phase_8,148,9999,9999,9999,2111452224
10415,15,Jits_Phase_8,149,9999,9999,9999,2112253056
10415,15,Jits_Phase_8,150,9999,9999,9999,2112893000
10415,15,Jits_Phase_8,151,9999,9999,9999,2113692784
10415,15,Jits_Phase_8,152,9999,9999,9999,2114492544
10415,15,Jits_Phase_8,153,9999,9999,9999,2115292228
10415,15,Jits_Phase_8,154,9999,9999,9999,2116093040
10415,15,Jits_Phase_8,155,9999,9999,9999,2116892784
10415,15,Jits_Phase_8,156,9999,9999,9999,2117692540
10415,15,Jits_Phase_8,157,9999,9999,9999,2118492220
10415,15,Jits_Phase_8,158,9999,9999,9999,2119293028
10415,15,Jits_Phase_8,159,9999,9999,9999,2120092788
10415,15,Jits_Phase_8,160,9999,9999,9999,2120892476
10415,15,Jits_Phase_8,161,9999,9999,9999,2121692228
10415,15,Jits_Phase_8,162,9999,9999,9999,2122492988
10415,15,Jits_Phase_8,163,9999,9999,9999,2123292740
10415,15,Jits_Phase_8,164,9999,9999,9999,2124092500
10415,15,Jits_Phase_8,165,9999,9999,9999,2124892256
10415,15,Jits_Phase_8,166,9999,9999,9999,2125693004
10415,15,Jits_Phase_8,167,9999,9999,9999,2126492756
10415,15,Jits_Phase_8,168,9999,9999,9999,2127292516
10415,15,Jits_Phase_8,169,9999,9999,9999,2128092284
10416,19,Jits_Linear_5,0,5,56,103,2136367568
10416,19,Jits_Linear_5,1,5,63,98,2136370444
10416,19,Jits_Linear_5,2,5,80,127,2136373640
10416,19,Jits_Linear_5,0,5,56,103,2136847808
10416,19,Jits_Linear_5,1,5,63,98,2136850680
10416,19,Jits_Linear_5,2,5,80,127,2136853880
10416,19,Jits_Linear_5,0,5,56,103,2137327984
10416,19,Jits_Linear_5,1,5,80,127,2137338408
10416,19,Jits_Linear_5,2,5,63,98,2137357820
10416,19,Jits_Linear_5,0,5,63,98,2137757940
10416,19,Jits_Linear_5,1,5,80,127,2137787620
10416,19,Jits_Linear_5,2,5,56,103,2137798184
10416,19,Jits_Linear_5,0,1,48,42,2138222928
10416,19,Jits_Linear_5,1,5,80,127,2138297664
10416,19,Jits_Linear_5,2,5,56,103,2138308232
10416,19,Jits_Linear_5,3,5,63,98,2138337744
10416,19,Jits_Linear_5,0,5,63,98,2138777956
10416,19,Jits_Linear_5,1,1,48,42,2138795392
10416,19,Jits_Linear_5,2,5,56,103,2138807776
10416,19,Jits_Linear_5,3,5,80,127,2138818120
10416,19,Jits_Linear_5,0,5,56,103,2139218380
10416,19,Jits_Linear_5,1,5,63,98,2139267392
10416,19,Jits_Linear_5,2,1,48,45,2139276208
10416,19,Jits_Linear_5,3,5,80,127,2139287844
10416,19,Jits_Linear_5,0,5,80,127,2139707744
10416,19,Jits_Linear_5,1,1,48,38,2139736492
10416,19,Jits_Linear_5,2,5,63,98,2139757944
10416,19,Jits_Linear_5,3,5,56,103,2139797884
10416,19,Jits_Linear_5,0,5,56,103,2140198532
10416,19,Jits_Linear_5,1,1,48,44,2140225940
10416,19,Jits_Linear_5,2,5,63,98,2140227904
10416,19,Jits_Linear_5,3,5,80,127,2140297512
10416,19,Jits_Linear_5,0,1,48,39,2140684856
10416,19,Jits_Linear_5,1,5,56,103,2140687592
10416,19,Jits_Linear_5,2,5,80,127,2140748280
10416,19,Jits_Linear_5,3,5,63,98,2140777808
10416,19,Jits_Linear_5,0,1,48,45,2141174204
10416,19,Jits_Linear_5,1,5,56,103,2141187652
10416,19,Jits_Linear_5,2,5,63,98,2141197552
10416,19,Jits_Linear_5,3,5,80,127,2141237564
10416,19,Jits_Linear_5,0,1,48,43,2141653264
10416,19,Jits_Linear_5,1,5,63,98,2141677824
10416,19,Jits_Linear_5,2,5,80,127,2141757684
10416,19,Jits_Linear_5,3,5,56,103,2141767952
10416,19,Jits_Linear_5,0,1,48,47,2142180932
10416,19,Jits_Linear_5,1,5,63,98,2142227864
10416,19,Jits_Linear_5,2,5,56,103,2142267876
10416,19,Jits_Linear_5,3,5,80,127,2142270868
10416,19,Jits_Linear_5,0,5,56,103,2142687740
10416,19,Jits_Linear_5,1,5,63,98,2142698036
10416,19,Jits_Linear_5,2,1,48,44,2142706260
10416,19,Jits_Linear_5,3,5,80,127,2142737968
10416,19,Jits_Linear_5,0,1,48,47,2143167636
10416,19,Jits_Linear_5,1,5,56,103,2143188332
10416,19,Jits_Linear_5,2,5,63,98,2143191548
10416,19,Jits_Linear_5,3,5,80,127,2143207768
10416,19,Jits_Linear_5,0,1,48,46,2143688060
10416,19,Jits_Linear_5,1,5,80,127,2143707488
10416,19,Jits_Linear_5,2,5,56,103,2143717712
10416,19,Jits_Linear_5,3,5,63,98,2143788352
10416,19,Jits_Linear_5,0,1,48,41,2144207628
10416,19,Jits_Linear_5,1,5,63,98,2144209196
10416,19,Jits_Linear_5,2,5,56,103,2144227660
10416,19,Jits_Linear_5,3,5,80,127,2144307592
10416,19,Jits_Linear_5,0,1,48,43,2144711176
10416,19,Jits_Linear_5,1,5,56,103,2144728292
10416,19,Jits_Linear_5,2,5,80,127,2144768552
10416,19,Jits_Linear_5,3,5,63,98,2144777480
10416,19,Jits_Linear_5,0,1,48,46,2145205008
10416,19,Jits_Linear_5,1,5,80,127,2145228272
10416,19,Jits_Linear_5,2,5,63,98,2145257900
10416,19,Jits_Linear_5,3,5,56,103,2145297840
10416,19,Jits_Linear_5,0,1,48,47,2145694060
10416,19,Jits_Linear_5,1,5,56,103,2145757484
10416,19,Jits_Linear_5,2,5,63,98,2145788364
10416,19,Jits_Linear_5,3,5,80,127,2145837372
10416,19,Jits_Linear_5,0,1,48,47,2146235324
10416,19,Jits_Linear_5,1,5,80,127,2146267436
10416,19,Jits_Linear_5,2,5,56,103,2146307476
10416,19,Jits_Linear_5,3,5,63,98,2146317600
10416,19,Jits_Linear_5,0,1,48,50,2146726044
10416,19,Jits_Linear_5,1,5,80,127,2146768468
10416,19,Jits_Linear_5,2,5,63,98,2146808284
10416,19,Jits_Linear_5,3,5,56,103,2146867616
10416,19,Jits_Linear_5,0,1,48,44,2147262428
10416,19,Jits_Linear_5,1,5,56,103,2147288388
10416,19,Jits_Linear_5,2,5,80,127,2147297536
10416,19,Jits_Linear_5,3,5,63,98,2147377492
10416,19,Jits_Linear_5,0,1,48,48,2147765428
10416,19,Jits_Linear_5,1,5,80,127,2147807480
10416,19,Jits_Linear_5,2,5,63,98,2147868108
10416,19,Jits_Linear_5,3,5,56,103,2147897784
10416,19,Jits_Linear_5,0,1,48,51,2148313800
10416,19,Jits_Linear_5,1,5,56,103,2148327872
10416,19,Jits_Linear_5,2,5,80,127,2148388564
10416,19,Jits_Linear_5,3,5,63,98,2148428264
10416,19,Jits_Linear_5,0,1,48,45,2148833272
10416,19,Jits_Linear_5,1,5,56,103,2148908480
10416,19,Jits_Linear_5,2,5,63,98,2148917556
10416,19,Jits_Linear_5,3,5,80,127,2148920844
10416,19,Jits_Linear_5,0,1,48,49,2149319320
10416,19,Jits_Linear_5,1,5,80,127,2149387556
10416,19,Jits_Linear_5,2,5,63,98,2149477680
10416,19,Jits_Linear_5,3,5,56,103,2149487952
10416,19,Jits_Linear_5,0,1,48,45,2149871108
10416,19,Jits_Linear_5,1,5,56,103,2149918024
10416,19,Jits_Linear_5,2,5,63,98,2149921424
10416,19,Jits_Linear_5,3,5,80,127,2149924468
10416,19,Jits_Linear_5,0,1,48,51,2150369096
10416,19,Jits_Linear_5,1,5,80,127,2150467884
10416,19,Jits_Linear_5,2,5,63,98,2150518388
10416,19,Jits_Linear_5,3,5,56,103,2150547692
10416,19,Jits_Linear_5,0,1,48,45,2150940816
10416,19,Jits_Linear_5,1,5,56,103,2150977928
10416,19,Jits_Linear_5,2,5,80,127,2150988204
10416,19,Jits_Linear_5,3,5,63,98,2151057796
10416,19,Jits_Linear_5,0,1,48,40,2151447392
10416,19,Jits_Linear_5,1,5,56,103,2151517696
10416,19,Jits_Linear_5,2,5,63,98,2151538308
10416,19,Jits_Linear_5,3,5,80,127,2151597636
10416,19,Jits_Linear_5,0,1,48,34,2152037136
10416,19,Jits_Linear_5,1,5,80,127,2152048024
10416,19,Jits_Linear_5,2,5,63,98,2152117636
10416,19,Jits_Linear_5,3,5,56,103,2152138228
10416,19,Jits_Linear_5,0,1,48,35,2152596164
10416,19,Jits_Linear_5,1,5,80,127,2152608248
10416,19,Jits_Linear_5,2,5,56,103,2152618372
10416,19,Jits_Linear_5,3,5,63,98,2152627520
10416,19,Jits_Linear_5,0,1,48,48,2153103700
10416,19,Jits_Linear_5,1,5,80,127,2153137452
10416,19,Jits_Linear_5,2,5,56,103,2153158136
10416,19,Jits_Linear_5,3,5,63,98,2153227532
10416,19,Jits_Linear_5,0,1,48,45,2153608864
10416,19,Jits_Linear_5,1,5,56,103,2153688384
10416,19,Jits_Linear_5,2,5,80,127,2153718368
10416,19,Jits_Linear_5,3,5,63,98,2153737556
10416,19,Jits_Linear_5,0,1,48,38,2154166016
10416,19,Jits_Linear_5,1,5,63,98,2154228324
10416,19,Jits_Linear_5,2,5,56,103,2154287360
10416,19,Jits_Linear_5,3,5,80,127,2154318304
10416,19,Jits_Linear_5,0,1,48,45,2154706536
10416,19,Jits_Linear_5,1,5,63,98,2154767724
10416,19,Jits_Linear_5,2,5,80,127,2154770940
10416,19,Jits_Linear_5,3,5,56,103,2154857844
10416,19,Jits_Linear_5,0,1,48,52,2155258608
10416,19,Jits_Linear_5,1,5,56,103,2155338352
10416,19,Jits_Linear_5,2,5,63,98,2155367792
10416,19,Jits_Linear_5,3,5,80,127,2155407584
10416,19,Jits_Linear_5,0,1,48,44,2155829848
10416,19,Jits_Linear_5,1,5,63,98,2155887944
10416,19,Jits_Linear_5,2,5,56,103,2155928316
10416,19,Jits_Linear_5,3,5,80,127,2155948328
10416,19,Jits_Linear_5,0,1,48,52,2156377936
10416,19,Jits_Linear_5,1,5,63,98,2156448388
10416,19,Jits_Linear_5,2,5,56,103,2156488240
10416,19,Jits_Linear_5,3,5,80,127,2156498436
10416,19,Jits_Linear_5,0,1,48,42,2156961532
10416,19,Jits_Linear_5,1,5,80,127,2156977600
10416,19,Jits_Linear_5,2,5,63,98,2157048432
10416,19,Jits_Linear_5,3,5,56,103,2157067752
10416,19,Jits_Linear_5,0,1,48,40,2157503100
10416,19,Jits_Linear_5,1,5,56,103,2157528384
10416,19,Jits_Linear_5,2,5,80,127,2157547968
10416,19,Jits_Linear_5,3,5,63,98,2157587760
10416,19,Jits_Linear_5,0,1,48,41,2158040772
10416,19,Jits_Linear_5,1,5,63,98,2158097696
10416,19,Jits_Linear_5,2,5,80,127,2158118380
10416,19,Jits_Linear_5,3,5,56,103,2158158376
10416,19,Jits_Linear_5,0,1,48,45,2158576680
10416,19,Jits_Linear_5,1,5,63,98,2158657844
10416,19,Jits_Linear_5,2,5,56,103,2158678288
10416,19,Jits_Linear_5,3,5,80,127,2158687512
10416,19,Jits_Linear_5,0,5,80,127,2159228408
10416,19,Jits_Linear_5,1,5,56,103,2159247748
10416,19,Jits_Linear_5,2,5,63,98,2159277572
10416,19,Jits_Linear_5,0,1,48,45,2159602448
10416,19,Jits_Linear_5,1,5,56,103,2159868252
10416,19,Jits_Linear_5,2,5,80,127,2159871468
10416,19,Jits_Linear_5,3,5,63,98,2159887664
10416,19,Jits_Linear_5,0,1,48,37,2160139896
10416,19,Jits_Linear_5,1,5,63,98,2160357744
10416,19,Jits_Linear_5,2,5,56,103,2160387348
10416,19,Jits_Linear_5,3,5,80,127,2160447740
10416,19,Jits_Linear_5,0,1,48,39,2160958492
10416,19,Jits_Linear_5,1,5,63,98,2161008188
10416,19,Jits_Linear_5,2,5,56,103,2161018312
10416,19,Jits_Linear_5,3,5,80,127,2161027388
10416,19,Jits_Linear_5,0,5,56,103,2161528264
10416,19,Jits_Linear_5,1,1,48,44,2161532580
10416,19,Jits_Linear_5,2,5,80,127,2161558012
10416,19,Jits_Linear_5,3,5,63,98,2161568208
10416,19,Jits_Linear_5,0,5,63,98,2162137432
10416,19,Jits_Linear_5,1,1,48,49,2162138472
10416,19,Jits_Linear_5,2,5,56,103,2162147720
10416,19,Jits_Linear_5,3,5,80,127,2162168328
10416,19,Jits_Linear_5,0,5,56,103,2162638240
10416,19,Jits_Linear_5,1,5,63,98,2162697536
10416,19,Jits_Linear_5,2,5,80,127,2162700900
10416,19,Jits_Linear_5,3,1,48,45,2162728080
10416,19,Jits_Linear_5,0,1,48,42,2163225048
10416,19,Jits_Linear_5,1,5,80,127,2163238344
10416,19,Jits_Linear_5,2,5,56,103,2163247496
10416,19,Jits_Linear_5,3,5,63,98,2163318076
10416,19,Jits_Linear_5,0,1,48,41,2163797048
10416,19,Jits_Linear_5,1,5,80,127,2163807632
10416,19,Jits_Linear_5,2,5,56,103,2163878216
10416,19,Jits_Linear_5,3,5,63,98,2163887364
10416,19,Jits_Linear_5,0,1,48,47,2164398104
10416,19,Jits_Linear_5,1,5,63,98,2164428320
10416,19,Jits_Linear_5,2,5,56,103,2164438444
10416,19,Jits_Linear_5,3,5,80,127,2164457956
10416,19,Jits_Linear_5,0,1,48,47,2164941312
10416,19,Jits_Linear_5,1,5,80,127,2164957676
10416,19,Jits_Linear_5,2,5,63,98,2165018096
10416,19,Jits_Linear_5,3,5,56,103,2165058168
10416,19,Jits_Linear_5,0,1,48,43,2165537232
10416,19,Jits_Linear_5,1,5,56,103,2165588428
10416,19,Jits_Linear_5,2,5,63,98,2165597504
10416,19,Jits_Linear_5,3,5,80,127,2165637504
10416,19,Jits_Linear_5,0,1,48,47,2166120152
10416,19,Jits_Linear_5,1,5,56,103,2166138236
10416,19,Jits_Linear_5,2,5,80,127,2166168136
10416,19,Jits_Linear_5,3,5,63,98,2166218192
10416,19,Jits_Linear_5,0,1,48,50,2166665920
10416,19,Jits_Linear_5,1,5,56,103,2166768072
10416,19,Jits_Linear_5,2,5,63,98,2166807936
10416,19,Jits_Linear_5,3,5,80,127,2166811452
10416,19,Jits_Linear_5,0,1,48,49,2167263208
10416,19,Jits_Linear_5,1,5,56,103,2167357900
10416,19,Jits_Linear_5,2,5,63,98,2167368380
10416,19,Jits_Linear_5,3,5,80,127,2167387500
10416,19,Jits_Linear_5,0,1,48,46,2167841972
10416,19,Jits_Linear_5,1,5,56,103,2167907636
10416,19,Jits_Linear_5,2,5,80,127,2167910704
10416,19,Jits_Linear_5,3,5,63,98,2167947560
10416,19,Jits_Linear_5,0,1,48,52,2168387052
10416,19,Jits_Linear_5,1,5,63,98,2168537512
10416,19,Jits_Linear_5,2,5,56,103,2168568184
10416,19,Jits_Linear_5,3,5,80,127,2168587748
10416,19,Jits_Linear_5,0,1,48,49,2169067328
10416,19,Jits_Linear_5,1,5,80,127,2169107740
10416,19,Jits_Linear_5,2,5,56,103,2169118308
10416,19,Jits_Linear_5,3,5,63,98,2169128356
10416,19,Jits_Linear_5,0,1,48,52,2169605376
10416,19,Jits_Linear_5,1,5,56,103,2169708100
10416,19,Jits_Linear_5,2,5,80,127,2169747968
10416,19,Jits_Linear_5,3,5,63,98,2169777492
10416,19,Jits_Linear_5,0,1,48,54,2170225984
10416,19,Jits_Linear_5,1,5,63,98,2170318308
10416,19,Jits_Linear_5,2,5,80,127,2170328420
10416,19,Jits_Linear_5,3,5,56,103,2170337568
10416,19,Jits_Linear_5,0,1,48,50,2170835756
10416,19,Jits_Linear_5,1,5,56,103,2170897636
10416,19,Jits_Linear_5,2,5,63,98,2170968504
10416,19,Jits_Linear_5,3,5,80,127,2170977576
10416,19,Jits_Linear_5,0,1,48,48,2171370316
10416,19,Jits_Linear_5,1,5,80,127,2171508340
10416,19,Jits_Linear_5,2,5,56,103,2171518240
10416,19,Jits_Linear_5,3,5,63,98,2171567472
10416,19,Jits_Linear_5,0,1,48,48,2172007336
10416,19,Jits_Linear_5,1,5,80,127,2172127452
10416,19,Jits_Linear_5,2,5,56,103,2172188168
10416,19,Jits_Linear_5,3,5,63,98,2172217624
10416,19,Jits_Linear_5,0,1,48,43,2172607572
10416,19,Jits_Linear_5,1,5,56,103,2172738120
10416,19,Jits_Linear_5,2,5,80,127,2172741184
10416,19,Jits_Linear_5,3,5,63,98,2172777984
10416,19,Jits_Linear_5,0,1,48,44,2173216132
10416,19,Jits_Linear_5,1,5,56,103,2173378200
10416,19,Jits_Linear_5,2,5,63,98,2173407508
10416,19,Jits_Linear_5,3,5,80,127,2173417776
10416,19,Jits_Linear_5,0,1,48,34,2173871328
10416,19,Jits_Linear_5,1,5,63,98,2173997392
10416,19,Jits_Linear_5,2,5,80,127,2174007736
10416,19,Jits_Linear_5,3,5,56,103,2174018080
10416,19,Jits_Linear_5,0,1,48,43,2174451504
10416,19,Jits_Linear_5,1,5,80,127,2174557688
10416,19,Jits_Linear_5,2,5,56,103,2174607588
10416,19,Jits_Linear_5,3,5,63,98,2174610808
10416,19,Jits_Linear_5,0,1,48,45,2175063856
10416,19,Jits_Linear_5,1,5,56,103,2175207760
10416,19,Jits_Linear_5,2,5,80,127,2175228144
10416,19,Jits_Linear_5,3,5,63,98,2175237520
10416,19,Jits_Linear_5,0,1,48,50,2175670760
10416,19,Jits_Linear_5,1,5,63,98,2175807768
10416,19,Jits_Linear_5,2,5,56,103,2175837520
10416,19,Jits_Linear_5,3,5,80,127,2175858052
10416,19,Jits_Linear_5,0,1,48,46,2176282104
10416,19,Jits_Linear_5,1,5,56,103,2176437592
10416,19,Jits_Linear_5,2,5,80,127,2176448084
10416,19,Jits_Linear_5,3,5,63,98,2176517344
10416,19,Jits_Linear_5,0,1,48,48,2176935816
10416,19,Jits_Linear_5,1,5,63,98,2177047956
10416,19,Jits_Linear_5,2,5,80,127,2177087972
10416,19,Jits_Linear_5,3,5,56,103,2177127688
10416,19,Jits_Linear_5,0,1,48,44,2177531736
10416,19,Jits_Linear_5,1,5,56,103,2177688120
10416,19,Jits_Linear_5,2,5,63,98,2177698392
10416,19,Jits_Linear_5,3,5,80,127,2177717580
10416,19,Jits_Linear_5,0,1,48,41,2178185472
10416,19,Jits_Linear_5,1,5,63,98,2178357536
10416,19,Jits_Linear_5,2,5,80,127,2178378292
10416,19,Jits_Linear_5,3,5,56,103,2178397632
10416,19,Jits_Linear_5,0,1,48,50,2178801380
10416,19,Jits_Linear_5,1,5,56,103,2178928168
10416,19,Jits_Linear_5,2,5,80,127,2179008044
10416,19,Jits_Linear_5,3,5,63,98,2179018316
10416,19,Jits_Linear_5,0,1,48,51,2179387008
10416,19,Jits_Linear_5,1,5,80,127,2179597584
10416,19,Jits_Linear_5,2,5,63,98,2179608004
10416,19,Jits_Linear_5,3,5,56,103,2179637604
10416,19,Jits_Linear_5,0,1,48,53,2180033232
10416,19,Jits_Linear_5,1,5,63,98,2180198108
10416,19,Jits_Linear_5,2,5,80,127,2180237680
10416,19,Jits_Linear_5,3,5,56,103,2180298144
10416,19,Jits_Linear_5,0,1,48,50,2180620228
10416,19,Jits_Linear_5,1,5,63,98,2180858160
10416,19,Jits_Linear_5,2,5,56,103,2180908364
10416,19,Jits_Linear_5,3,5,80,127,2180938336
10416,19,Jits_Linear_5,0,1,48,52,2181250284
10416,19,Jits_Linear_5,1,5,80,127,2181507320
10416,19,Jits_Linear_5,2,5,63,98,2181517588
10416,19,Jits_Linear_5,3,5,56,103,2181588392
10416,19,Jits_Linear_5,0,1,48,40,2181904096
10416,19,Jits_Linear_5,1,5,80,127,2182218084
10416,19,Jits_Linear_5,2,5,56,103,2182228352
10416,19,Jits_Linear_5,3,5,63,98,2182231492
10416,19,Jits_Linear_5,0,1,48,38,2182578960
10416,19,Jits_Linear_5,1,5,56,103,2182797556
10416,19,Jits_Linear_5,2,5,80,127,2182818164
10416,19,Jits_Linear_5,3,5,63,98,2182828512
10416,19,Jits_Linear_5,0,1,48,42,2183138444
10416,19,Jits_Linear_5,1,5,63,98,2183448156
10416,19,Jits_Linear_5,2,5,56,103,2183487948
10416,19,Jits_Linear_5,3,5,80,127,2183508484
10416,19,Jits_Linear_5,0,1,48,46,2183809048
10416,19,Jits_Linear_5,1,5,63,98,2184088104
10416,19,Jits_Linear_5,2,5,56,103,2184148272
10416,19,Jits_Linear_5,3,5,80,127,2184151340
10416,19,Jits_Linear_5,4,1,48,40,2184412716
10416,19,Jits_Linear_5,0,5,56,103,2184707376
10416,19,Jits_Linear_5,1,5,80,127,2184728060
10416,19,Jits_Linear_5,2,5,63,98,2184768072
10416,19,Jits_Linear_5,3,1,48,35,2185074916
10416,19,Jits_Linear_5,0,5,56,103,2185388312
10416,19,Jits_Linear_5,1,5,63,98,2185407944
10416,19,Jits_Linear_5,2,5,80,127,2185418068
10416,19,Jits_Linear_5,0,1,48,34,2185753052
10416,19,Jits_Linear_5,1,5,80,127,2186008140
10416,19,Jits_Linear_5,2,5,56,103,2186037520
10416,19,Jits_Linear_5,3,5,63,98,2186077536
10416,19,Jits_Linear_5,0,1,48,36,2186411572
10416,19,Jits_Linear_5,1,5,80,127,2186668456
10416,19,Jits_Linear_5,2,5,56,103,2186687868
10416,19,Jits_Linear_5,3,5,63,98,2186748360
10416,19,Jits_Linear_5,4,1,48,43,2186992576
10416,19,Jits_Linear_5,0,5,56,103,2187328116
10416,19,Jits_Linear_5,1,5,80,127,2187348280
10416,19,Jits_Linear_5,2,5,63,98,2187407700
10416,19,Jits_Linear_5,0,1,48,30,2187712840
10416,19,Jits_Linear_5,1,5,80,127,2187968228
10416,19,Jits_Linear_5,2,5,56,103,2187978276
10416,19,Jits_Linear_5,3,5,63,98,2188018316
10416,19,Jits_Linear_5,4,1,48,37,2188303284
10416,19,Jits_Linear_5,0,5,63,98,2188628264
10416,19,Jits_Linear_5,1,5,56,103,2188668204
10416,19,Jits_Linear_5,2,5,80,127,2188671420
10416,19,Jits_Linear_5,0,1,48,24,2189113388
10416,19,Jits_Linear_5,1,5,63,98,2189308236
10416,19,Jits_Linear_5,2,5,80,127,2189348176
10416,19,Jits_Linear_5,3,5,56,103,2189378004
10416,19,Jits_Linear_5,0,1,48,30,2189791012
10416,19,Jits_Linear_5,1,5,56,103,2189957540
10416,19,Jits_Linear_5,2,5,63,98,2189967664
10416,19,Jits_Linear_5,3,5,80,127,2189997412
10416,19,Jits_Linear_5,0,1,48,37,2190518348
10416,19,Jits_Linear_5,1,5,80,127,2190618104
10416,19,Jits_Linear_5,2,5,63,98,2190687716
10416,19,Jits_Linear_5,3,5,56,103,2190697984
10416,19,Jits_Linear_5,0,1,48,37,2191162572
10416,19,Jits_Linear_5,1,5,63,98,2191288088
10416,19,Jits_Linear_5,2,5,56,103,2191358176
10416,19,Jits_Linear_5,3,5,80,127,2191367472
10416,19,Jits_Linear_5,0,1,48,41,2191826792
10416,19,Jits_Linear_5,1,5,63,98,2191958324
10416,19,Jits_Linear_5,2,5,56,103,2191977884
10416,19,Jits_Linear_5,3,5,80,127,2192018048
10416,19,Jits_Linear_5,0,1,48,45,2192427048
10416,19,Jits_Linear_5,1,5,56,103,2192638292
10416,19,Jits_Linear_5,2,5,63,98,2192647516
10416,19,Jits_Linear_5,3,5,80,127,2192728436
10416,19,Jits_Linear_5,0,1,48,36,2193075284
10416,19,Jits_Linear_5,1,5,63,98,2193297856
10416,19,Jits_Linear_5,2,5,56,103,2193327536
10416,19,Jits_Linear_5,3,5,80,127,2193368300
10416,19,Jits_Linear_5,0,1,48,24,2193770320
10416,19,Jits_Linear_5,1,5,56,103,2193967416
10416,19,Jits_Linear_5,2,5,63,98,2194008556
10416,19,Jits_Linear_5,3,5,80,127,2194048344
10416,19,Jits_Linear_5,0,1,48,41,2194426100
10416,19,Jits_Linear_5,1,5,80,127,2194648412
10416,19,Jits_Linear_5,2,5,56,103,2194728308
10416,19,Jits_Linear_5,3,5,63,98,2194737460
10416,19,Jits_Linear_5,0,1,48,38,2195081392
10416,19,Jits_Linear_5,1,5,56,103,2195368164
10416,19,Jits_Linear_5,2,5,63,98,2195371236
10416,19,Jits_Linear_5,3,5,80,127,2195377616
10416,19,Jits_Linear_5,0,1,48,31,2195800468
10416,19,Jits_Linear_5,1,5,56,103,2196067692
10416,19,Jits_Linear_5,2,5,63,98,2196088224
10416,19,Jits_Linear_5,3,5,80,127,2196098424
10416,19,Jits_Linear_5,0,1,48,42,2196493244
10416,19,Jits_Linear_5,1,5,63,98,2196707876
10416,19,Jits_Linear_5,2,5,80,127,2196718148
10416,19,Jits_Linear_5,3,5,56,103,2196738388
10416,19,Jits_Linear_5,4,1,48,37,2197072352
10416,19,Jits_Linear_5,0,5,63,98,2197398008
10416,19,Jits_Linear_5,1,5,56,103,2197477680
10416,19,Jits_Linear_5,2,5,80,127,2197480972
10416,19,Jits_Linear_5,0,1,48,39,2197795392
10416,19,Jits_Linear_5,1,5,63,98,2198088176
10416,19,Jits_Linear_5,2,5,56,103,2198107368
10416,19,Jits_Linear_5,3,5,80,127,2198138164
10416,19,Jits_Linear_5,0,1,48,37,2198512532
10416,19,Jits_Linear_5,1,5,56,103,2198778260
10416,19,Jits_Linear_5,2,5,63,98,2198797600
10416,19,Jits_Linear_5,3,5,80,127,2198807872
10416,19,Jits_Linear_5,0,1,48,37,2199233012
10416,19,Jits_Linear_5,1,5,56,103,2199498072
10416,19,Jits_Linear_5,2,5,63,98,2199527992
10416,19,Jits_Linear_5,3,5,80,127,2199531284
10416,19,Jits_Linear_5,0,1,48,47,2199852072
10416,19,Jits_Linear_5,1,5,56,103,2200138100
10416,19,Jits_Linear_5,2,5,63,98,2200177968
10416,19,Jits_Linear_5,3,5,80,127,2200237388
10416,19,Jits_Linear_5,0,1,48,37,2200621428
10416,19,Jits_Linear_5,1,5,56,103,2200847892
10416,19,Jits_Linear_5,2,5,63,98,2200858092
10416,19,Jits_Linear_5,3,5,80,127,2200918336
10416,19,Jits_Linear_5,0,1,48,37,2201236000
10416,19,Jits_Linear_5,1,5,56,103,2201548072
10416,19,Jits_Linear_5,2,5,80,127,2201567560
10416,19,Jits_Linear_5,3,5,63,98,2201598456
10416,19,Jits_Linear_5,4,1,48,48,2201856080
10416,19,Jits_Linear_5,0,5,80,127,2202247668
10416,19,Jits_Linear_5,1,5,56,103,2202257864
10416,19,Jits_Linear_5,2,5,63,98,2202278252
10416,19,Jits_Linear_5,3,1,48,40,2202538656
10416,19,Jits_Linear_5,0,5,63,98,2202937820
10416,19,Jits_Linear_5,1,5,80,127,2203017548
10416,19,Jits_Linear_5,2,5,56,103,2203028040
10416,19,Jits_Linear_5,3,1,48,30,2203243340
10416,19,Jits_Linear_5,0,5,80,127,2203697516
10416,19,Jits_Linear_5,1,5,56,103,2203718048
10416,19,Jits_Linear_5,2,5,63,98,2203721116
10416,19,Jits_Linear_5,3,1,48,35,2203962496
10416,19,Jits_Linear_5,0,5,63,98,2204377468
10416,19,Jits_Linear_5,1,5,80,127,2204380980
10416,19,Jits_Linear_5,2,5,56,103,2204437960
10416,19,Jits_Linear_5,3,1,48,41,2204669076
10416,19,Jits_Linear_5,0,5,56,103,2205067548
10416,19,Jits_Linear_5,1,5,80,127,2205077820
10416,19,Jits_Linear_5,2,5,63,98,2205118056
10416,19,Jits_Linear_5,3,1,48,41,2205344216
10416,19,Jits_Linear_5,0,5,56,103,2205758016
10416,19,Jits_Linear_5,1,5,63,98,2205818188
10416,19,Jits_Linear_5,2,5,80,127,2205827488
10416,19,Jits_Linear_5,3,1,48,36,2206122944
10416,19,Jits_Linear_5,0,5,63,98,2206477864
10416,19,Jits_Linear_5,1,5,80,127,2206517656
10416,19,Jits_Linear_5,2,5,56,103,2206557520
10416,19,Jits_Linear_5,3,1,48,37,2206849760
10416,19,Jits_Linear_5,0,5,56,103,2207188376
10416,19,Jits_Linear_5,1,5,63,98,2207268276
10416,19,Jits_Linear_5,2,5,80,127,2207271788
10416,19,Jits_Linear_5,3,1,48,30,2207550400
10416,19,Jits_Linear_5,0,5,80,127,2207958496
10416,19,Jits_Linear_5,1,5,56,103,2207988120
10416,19,Jits_Linear_5,2,5,63,98,2207991188
10416,19,Jits_Linear_5,0,1,48,51,2208322552
10416,19,Jits_Linear_5,1,5,56,103,2208638260
10416,19,Jits_Linear_5,2,5,80,127,2208657896
10416,19,Jits_Linear_5,3,5,63,98,2208697836
10416,19,Jits_Linear_5,4,1,48,50,2208944376
10416,19,Jits_Linear_5,0,5,80,127,2209337856
10416,19,Jits_Linear_5,1,5,63,98,2209358168
10416,19,Jits_Linear_5,2,5,56,103,2209417588
10416,19,Jits_Linear_5,3,1,48,25,2209711248
10416,19,Jits_Linear_5,0,5,63,98,2210068108
10416,19,Jits_Linear_5,1,5,56,103,2210078156
10416,19,Jits_Linear_5,2,5,80,127,2210128288
10416,19,Jits_Linear_5,3,1,48,44,2210421352
10416,19,Jits_Linear_5,0,5,56,103,2210777428
10416,19,Jits_Linear_5,1,5,63,98,2210798060
10416,19,Jits_Linear_5,2,5,80,127,2210808260
10416,19,Jits_Linear_5,3,1,48,41,2211163124
10416,19,Jits_Linear_5,0,5,56,103,2211498392
10416,19,Jits_Linear_5,1,5,63,98,2211501536
10416,19,Jits_Linear_5,2,5,80,127,2211517732
10416,19,Jits_Linear_5,3,1,48,40,2211821608
10416,19,Jits_Linear_5,0,5,63,98,2212268352
10416,19,Jits_Linear_5,1,5,56,103,2212298028
10416,19,Jits_Linear_5,2,5,80,127,2212327952
10416,19,Jits_Linear_5,3,1,48,36,2212557392
10416,19,Jits_Linear_5,0,5,80,127,2212957544
10416,19,Jits_Linear_5,1,5,56,103,2213047604
10416,19,Jits_Linear_5,2,5,63,98,2213050672
10416,19,Jits_Linear_5,3,1,48,43,2213254732
10416,19,Jits_Linear_5,0,5,56,103,2213687944
10416,19,Jits_Linear_5,1,5,80,127,2213690928
10416,19,Jits_Linear_5,2,5,63,98,2213767512
10416,19,Jits_Linear_5,3,1,48,45,2213983780
10416,19,Jits_Linear_5,0,5,80,127,2214417888
10416,19,Jits_Linear_5,1,5,63,98,2214478132
10416,19,Jits_Linear_5,2,5,56,103,2214508032
10416,19,Jits_Linear_5,3,1,48,45,2214732172
10416,19,Jits_Linear_5,0,5,63,98,2215147832
10416,19,Jits_Linear_5,1,5,80,127,2215158104
10416,19,Jits_Linear_5,2,5,56,103,2215227856
10416,19,Jits_Linear_5,3,1,48,38,2215457928
10416,19,Jits_Linear_5,0,5,56,103,2215897380
10416,19,Jits_Linear_5,1,5,80,127,2215928128
10416,19,Jits_Linear_5,2,5,63,98,2215978404
10416,19,Jits_Linear_5,3,1,48,41,2216257236
10416,19,Jits_Linear_5,0,5,63,98,2216677932
10416,19,Jits_Linear_5,1,5,56,103,2216707608
10416,19,Jits_Linear_5,2,5,80,127,2216710524
10416,19,Jits_Linear_5,3,1,48,33,2217040304
10416,19,Jits_Linear_5,0,5,63,98,2217428300
10416,19,Jits_Linear_5,1,5,80,127,2217447960
10416,19,Jits_Linear_5,2,5,56,103,2217457936
10416,19,Jits_Linear_5,3,1,48,42,2217758564
10416,19,Jits_Linear_5,0,5,56,103,2218177876
10416,19,Jits_Linear_5,1,5,63,98,2218180792
10416,19,Jits_Linear_5,2,5,80,127,2218198336
10416,19,Jits_Linear_5,3,1,48,43,2218501760
10416,19,Jits_Linear_5,0,5,56,103,2218878308
10416,19,Jits_Linear_5,1,5,63,98,2218887456
10416,19,Jits_Linear_5,2,5,80,127,2218918180
10416,19,Jits_Linear_5,3,1,48,45,2219183668
10416,19,Jits_Linear_5,0,5,63,98,2219648348
10416,19,Jits_Linear_5,1,5,80,127,2219667836
10416,19,Jits_Linear_5,2,5,56,103,2219707848
10416,19,Jits_Linear_5,3,1,48,38,2219874604
10416,19,Jits_Linear_5,0,5,56,103,2220427744
10416,19,Jits_Linear_5,1,5,63,98,2220467756
10416,19,Jits_Linear_5,2,5,80,127,2220471120
10416,19,Jits_Linear_5,3,1,48,46,2220570840
10416,19,Jits_Linear_5,0,5,80,127,2221117764
10416,19,Jits_Linear_5,1,5,56,103,2221157780
10416,19,Jits_Linear_5,2,5,63,98,2221207908
10416,19,Jits_Linear_5,3,1,48,37,2221331588
10416,19,Jits_Linear_5,0,5,56,103,2221927740
10416,19,Jits_Linear_5,1,5,80,127,2221938236
10416,19,Jits_Linear_5,2,5,63,98,2221967912
10416,19,Jits_Linear_5,3,1,48,35,2222245164
10416,19,Jits_Linear_5,0,5,56,103,2222628180
10416,19,Jits_Linear_5,1,5,80,127,2222668124
10416,19,Jits_Linear_5,2,5,63,98,2222718252
10416,19,Jits_Linear_5,3,1,48,41,2222916856
10416,19,Jits_Linear_5,0,5,56,103,2223387960
10416,19,Jits_Linear_5,1,5,80,127,2223427900
10416,19,Jits_Linear_5,2,5,63,98,2223478028
10416,19,Jits_Linear_5,3,1,48,49,2223632048
10416,19,Jits_Linear_5,0,5,80,127,2224137992
10416,19,Jits_Linear_5,1,5,63,98,2224217572
10416,19,Jits_Linear_5,2,5,56,103,2224227768
10416,19,Jits_Linear_5,3,1,48,43,2224391752
10416,19,Jits_Linear_5,0,5,80,127,2224947748
10416,19,Jits_Linear_5,1,5,56,103,2224957872
10416,19,Jits_Linear_5,2,5,63,98,2224978256
10416,19,Jits_Linear_5,3,1,48,44,2225005116
10416,19,Jits_Linear_5,0,5,63,98,2225677708
10416,19,Jits_Linear_5,1,5,56,103,2225748208
10416,19,Jits_Linear_5,2,5,80,127,2225751208
10416,19,Jits_Linear_5,3,1,48,29,2225970784
10416,19,Jits_Linear_5,0,5,80,127,2226437616
10416,19,Jits_Linear_5,1,5,63,98,2226487744
10416,19,Jits_Linear_5,2,5,56,103,2226527756
10416,19,Jits_Linear_5,3,1,48,37,2226721556
10416,19,Jits_Linear_5,0,5,63,98,2227247592
10416,19,Jits_Linear_5,1,5,56,103,2227288652
10416,19,Jits_Linear_5,2,5,80,127,2227297728
10416,19,Jits_Linear_5,3,1,48,44,2227496108
10416,19,Jits_Linear_5,0,5,63,98,2228008328
10416,19,Jits_Linear_5,1,5,56,103,2228027816
10416,19,Jits_Linear_5,2,5,80,127,2228048204
10416,19,Jits_Linear_5,3,1,48,41,2228258784
10416,19,Jits_Linear_5,0,5,80,127,2228738500
10416,19,Jits_Linear_5,1,5,56,103,2228747648
10416,19,Jits_Linear_5,2,5,63,98,2228768108
10416,19,Jits_Linear_5,3,1,48,40,2228991056
10416,19,Jits_Linear_5,0,5,63,98,2229538128
10416,19,Jits_Linear_5,1,5,56,103,2229578072
10416,19,Jits_Linear_5,2,5,80,127,2229607896
10416,19,Jits_Linear_5,3,1,48,40,2229736152
10416,19,Jits_Linear_5,0,5,56,103,2230317524
10416,19,Jits_Linear_5,1,5,63,98,2230348176
10416,19,Jits_Linear_5,2,5,80,127,2230377852
10416,19,Jits_Linear_5,3,1,48,40,2230510524
10416,19,Jits_Linear_5,0,5,80,127,2231068016
10416,19,Jits_Linear_5,1,5,56,103,2231137624
10416,19,Jits_Linear_5,2,5,63,98,2231140692
10416,19,Jits_Linear_5,3,1,48,53,2231245688
10416,19,Jits_Linear_5,0,5,56,103,2231857456
10416,19,Jits_Linear_5,1,5,63,98,2231907884
10416,19,Jits_Linear_5,2,5,80,127,2231938384
10416,19,Jits_Linear_5,3,1,48,29,2232111056
10416,19,Jits_Linear_5,0,5,63,98,2232618352
10416,19,Jits_Linear_5,1,5,80,127,2232621792
10416,19,Jits_Linear_5,2,5,56,103,2232677624
10416,19,Jits_Linear_5,3,1,48,39,2232938552
10416,19,Jits_Linear_5,0,5,56,103,2233428452
10416,19,Jits_Linear_5,1,5,80,127,2233437676
10416,19,Jits_Linear_5,2,5,63,98,2233487732
10416,19,Jits_Linear_5,3,1,48,49,2233684000
10416,19,Jits_Linear_5,0,5,63,98,2234188008
10416,19,Jits_Linear_5,1,5,56,103,2234198428
10416,19,Jits_Linear_5,2,5,80,127,2234228028
10416,19,Jits_Linear_5,3,1,48,40,2234497204
10416,19,Jits_Linear_5,0,5,63,98,2235008376
10416,19,Jits_Linear_5,1,5,80,127,2235011888
10416,19,Jits_Linear_5,2,5,56,103,2235038128
10416,19,Jits_Linear_5,3,1,48,47,2235283388
10416,19,Jits_Linear_5,0,5,63,98,2235818328
10416,19,Jits_Linear_5,1,5,56,103,2235837812
10416,19,Jits_Linear_5,2,5,80,127,2235840808
10416,19,Jits_Linear_5,3,1,48,45,2236110500
10416,19,Jits_Linear_5,0,5,63,98,2236567964
10416,19,Jits_Linear_5,1,5,56,103,2236637652
10416,19,Jits_Linear_5,2,5,80,127,2236657912
10416,19,Jits_Linear_5,3,1,48,39,2236902128
10416,19,Jits_Linear_5,0,5,56,103,2237348176
10416,19,Jits_Linear_5,1,5,63,98,2237357776
10416,19,Jits_Linear_5,2,5,80,127,2237447636
10416,19,Jits_Linear_5,3,1,48,38,2237628832
10416,19,Jits_Linear_5,0,5,56,103,2238158152
10416,19,Jits_Linear_5,1,5,80,127,2238198120
10416,19,Jits_Linear_5,2,5,63,98,2238208540
10416,19,Jits_Linear_5,3,1,48,46,2238452008
10416,19,Jits_Linear_5,0,5,56,103,2238978564
10416,19,Jits_Linear_5,1,5,63,98,2239008168
10416,19,Jits_Linear_5,2,5,80,127,2239037768
10416,19,Jits_Linear_5,3,1,48,35,2239259820
10416,19,Jits_Linear_5,0,5,80,127,2239738192
10416,19,Jits_Linear_5,1,5,63,98,2239778208
10416,19,Jits_Linear_5,2,5,56,103,2239797844
10416,19,Jits_Linear_5,3,1,48,52,2240042812
10416,19,Jits_Linear_5,0,5,56,103,2240577840
10416,19,Jits_Linear_5,1,5,80,127,2240598524
10416,19,Jits_Linear_5,2,5,63,98,2240617712
10416,19,Jits_Linear_5,3,1,48,41,2240872340
10416,19,Jits_Linear_5,0,5,63,98,2241347944
10416,19,Jits_Linear_5,1,5,56,103,2241358068
10416,19,Jits_Linear_5,2,5,80,127,2241417784
10416,19,Jits_Linear_5,3,1,48,38,2241673612
10416,19,Jits_Linear_5,0,5,56,103,2242157976
10416,19,Jits_Linear_5,1,5,63,98,2242227736
10416,19,Jits_Linear_5,2,5,80,127,2242248048
10416,19,Jits_Linear_5,3,1,48,48,2242503648
10416,19,Jits_Linear_5,0,5,56,103,2242967860
10416,19,Jits_Linear_5,1,5,63,98,2242997616
10416,19,Jits_Linear_5,2,5,80,127,2243037700
10416,19,Jits_Linear_5,3,1,48,50,2243249932
10416,19,Jits_Linear_5,0,5,63,98,2243767792
10416,19,Jits_Linear_5,1,5,56,103,2243817800
10416,19,Jits_Linear_5,2,5,80,127,2243828144
10416,19,Jits_Linear_5,3,1,48,41,2244049124
10416,19,Jits_Linear_5,0,5,56,103,2244617788
10416,19,Jits_Linear_5,1,5,63,98,2244667844
10416,19,Jits_Linear_5,2,5,80,127,2244677964
10416,19,Jits_Linear_5,3,1,48,47,2244835520
10416,19,Jits_Linear_5,0,5,56,103,2245397796
10416,19,Jits_Linear_5,1,5,63,98,2245407996
10416,19,Jits_Linear_5,2,5,80,127,2245487940
10416,19,Jits_Linear_5,3,1,48,37,2245676652
10416,19,Jits_Linear_5,0,9999,9999,9999,2136605804
10416,19,Jits_Linear_5,1,9999,9999,9999,2137086040
10416,19,Jits_Linear_5,2,9999,9999,9999,2137565300
10416,19,Jits_Linear_5,3,9999,9999,9999,2138045548
10416,19,Jits_Linear_5,4,9999,9999,9999,2138525772
10416,19,Jits_Linear_5,5,9999,9999,9999,2139015276
10416,19,Jits_Linear_5,6,9999,9999,9999,2139505748
10416,19,Jits_Linear_5,7,9999,9999,9999,2139995260
10416,19,Jits_Linear_5,8,9999,9999,9999,2140485748
10416,19,Jits_Linear_5,9,9999,9999,9999,2140975188
10416,19,Jits_Linear_5,10,9999,9999,9999,2141475920
10416,19,Jits_Linear_5,11,9999,9999,9999,2141975612
10416,19,Jits_Linear_5,12,9999,9999,9999,2142475368
10416,19,Jits_Linear_5,13,9999,9999,9999,2142976100
10416,19,Jits_Linear_5,14,9999,9999,9999,2143486052
10416,19,Jits_Linear_5,15,9999,9999,9999,2143996008
10416,19,Jits_Linear_5,16,9999,9999,9999,2144505956
10416,19,Jits_Linear_5,17,9999,9999,9999,2145015908
10416,19,Jits_Linear_5,18,9999,9999,9999,2145525860
10416,19,Jits_Linear_5,19,9999,9999,9999,2146035812
10416,19,Jits_Linear_5,20,9999,9999,9999,2146556028
10416,19,Jits_Linear_5,21,9999,9999,9999,2147075200
10416,19,Jits_Linear_5,22,9999,9999,9999,2147595336
10416,19,Jits_Linear_5,23,9999,9999,9999,2148115556
10416,19,Jits_Linear_5,24,9999,9999,9999,2148635772
10416,19,Jits_Linear_5,25,9999,9999,9999,2149165124
10416,19,Jits_Linear_5,26,9999,9999,9999,2149695604
10416,19,Jits_Linear_5,27,9999,9999,9999,2150225988
10416,19,Jits_Linear_5,28,9999,9999,9999,2150755420
10416,19,Jits_Linear_5,29,9999,9999,9999,2151285828
10416,19,Jits_Linear_5,30,9999,9999,9999,2151825520
10416,19,Jits_Linear_5,31,9999,9999,9999,2152365140
10416,19,Jits_Linear_5,32,9999,9999,9999,2152905804
10416,19,Jits_Linear_5,33,9999,9999,9999,2153445452
10416,19,Jits_Linear_5,34,9999,9999,9999,2153985144
10416,19,Jits_Linear_5,35,9999,9999,9999,2154536000
10416,19,Jits_Linear_5,36,9999,9999,9999,2155085876
10416,19,Jits_Linear_5,37,9999,9999,9999,2155635836
10416,19,Jits_Linear_5,38,9999,9999,9999,2156185724
10416,19,Jits_Linear_5,39,9999,9999,9999,2156735612
10416,19,Jits_Linear_5,40,9999,9999,9999,2157295712
10416,19,Jits_Linear_5,41,9999,9999,9999,2157855856
10416,19,Jits_Linear_5,42,9999,9999,9999,2158415928
10416,19,Jits_Linear_5,43,9999,9999,9999,2158976072
10416,19,Jits_Linear_5,44,9999,9999,9999,2159545460
10416,19,Jits_Linear_5,45,9999,9999,9999,2160115772
10416,19,Jits_Linear_5,46,9999,9999,9999,2160685136
10416,19,Jits_Linear_5,47,9999,9999,9999,2161255476
10416,19,Jits_Linear_5,48,9999,9999,9999,2161825888
10416,19,Jits_Linear_5,49,9999,9999,9999,2162395200
10416,19,Jits_Linear_5,50,9999,9999,9999,2162975812
10416,19,Jits_Linear_5,51,9999,9999,9999,2163555384
10416,19,Jits_Linear_5,52,9999,9999,9999,2164136056
10416,19,Jits_Linear_5,53,9999,9999,9999,2164715640
10416,19,Jits_Linear_5,54,9999,9999,9999,2165295192
10416,19,Jits_Linear_5,55,9999,9999,9999,2165886060
10416,19,Jits_Linear_5,56,9999,9999,9999,2166475876
10416,19,Jits_Linear_5,57,9999,9999,9999,2167065712
10416,19,Jits_Linear_5,58,9999,9999,9999,2167655532
10416,19,Jits_Linear_5,59,9999,9999,9999,2168245336
10416,19,Jits_Linear_5,60,9999,9999,9999,2168845372
10416,19,Jits_Linear_5,61,9999,9999,9999,2169445448
10416,19,Jits_Linear_5,62,9999,9999,9999,2170045528
10416,19,Jits_Linear_5,63,9999,9999,9999,2170645608
10416,19,Jits_Linear_5,64,9999,9999,9999,2171245688
10416,19,Jits_Linear_5,65,9999,9999,9999,2171855960
10416,19,Jits_Linear_5,66,9999,9999,9999,2172465208
10416,19,Jits_Linear_5,67,9999,9999,9999,2173075540
10416,19,Jits_Linear_5,68,9999,9999,9999,2173685812
10416,19,Jits_Linear_5,69,9999,9999,9999,2174295112
10416,19,Jits_Linear_5,70,9999,9999,9999,2174915708
10416,19,Jits_Linear_5,71,9999,9999,9999,2175535220
10416,19,Jits_Linear_5,72,9999,9999,9999,2176155752
10416,19,Jits_Linear_5,73,9999,9999,9999,2176775268
10416,19,Jits_Linear_5,74,9999,9999,9999,2177395800
10416,19,Jits_Linear_5,75,9999,9999,9999,2178025572
10416,19,Jits_Linear_5,76,9999,9999,9999,2178655328
10416,19,Jits_Linear_5,77,9999,9999,9999,2179286128
10416,19,Jits_Linear_5,78,9999,9999,9999,2179926092
10416,19,Jits_Linear_5,79,9999,9999,9999,2180566108
10416,19,Jits_Linear_5,80,9999,9999,9999,2181206076
10416,19,Jits_Linear_5,81,9999,9999,9999,2181846092
10416,19,Jits_Linear_5,82,9999,9999,9999,2182486124
10416,19,Jits_Linear_5,83,9999,9999,9999,2183126140
10416,19,Jits_Linear_5,84,9999,9999,9999,2183766108
10416,19,Jits_Linear_5,85,9999,9999,9999,2184425540
10416,19,Jits_Linear_5,86,9999,9999,9999,2185075808
10416,19,Jits_Linear_5,87,9999,9999,9999,2185726056
10416,19,Jits_Linear_5,88,9999,9999,9999,2186375240
10416,19,Jits_Linear_5,89,9999,9999,9999,2187025532
10416,19,Jits_Linear_5,90,9999,9999,9999,2187685996
10416,19,Jits_Linear_5,91,9999,9999,9999,2188345456
10416,19,Jits_Linear_5,92,9999,9999,9999,2189005912
10416,19,Jits_Linear_5,93,9999,9999,9999,2189665368
10416,19,Jits_Linear_5,94,9999,9999,9999,2190325856
10416,19,Jits_Linear_5,95,9999,9999,9999,2190995540
10416,19,Jits_Linear_5,96,9999,9999,9999,2191665248
10416,19,Jits_Linear_5,97,9999,9999,9999,2192335980
10416,19,Jits_Linear_5,98,9999,9999,9999,2193005688
10416,19,Jits_Linear_5,99,9999,9999,9999,2193675320
10416,19,Jits_Linear_5,100,9999,9999,9999,2194355264
10416,19,Jits_Linear_5,101,9999,9999,9999,2195035236
10416,19,Jits_Linear_5,102,9999,9999,9999,2195715124
10416,19,Jits_Linear_5,103,9999,9999,9999,2196395076
10416,19,Jits_Linear_5,104,9999,9999,9999,2197076084
10416,19,Jits_Linear_5,105,9999,9999,9999,2197765196
10416,19,Jits_Linear_5,106,9999,9999,9999,2198455420
10416,19,Jits_Linear_5,107,9999,9999,9999,2199145580
10416,19,Jits_Linear_5,108,9999,9999,9999,2199835740
10416,19,Jits_Linear_5,109,9999,9999,9999,2200525948
10416,19,Jits_Linear_5,110,9999,9999,9999,2201225332
10416,19,Jits_Linear_5,111,9999,9999,9999,2201925744
10416,19,Jits_Linear_5,112,9999,9999,9999,2202625116
10416,19,Jits_Linear_5,113,9999,9999,9999,2203325516
10416,19,Jits_Linear_5,114,9999,9999,9999,2204025936
10416,19,Jits_Linear_5,115,9999,9999,9999,2204735580
10416,19,Jits_Linear_5,116,9999,9999,9999,2205445208
10416,19,Jits_Linear_5,117,9999,9999,9999,2206155900
10416,19,Jits_Linear_5,118,9999,9999,9999,2206865480
10416,19,Jits_Linear_5,119,9999,9999,9999,2207575116
10416,19,Jits_Linear_5,120,9999,9999,9999,2208296008
10416,19,Jits_Linear_5,121,9999,9999,9999,2209015936
10416,19,Jits_Linear_5,122,9999,9999,9999,2209735808
10416,19,Jits_Linear_5,123,9999,9999,9999,2210455652
10416,19,Jits_Linear_5,124,9999,9999,9999,2211175480
10416,19,Jits_Linear_5,125,9999,9999,9999,2211905652
10416,19,Jits_Linear_5,126,9999,9999,9999,2212635764
10416,19,Jits_Linear_5,127,9999,9999,9999,2213365836
10416,19,Jits_Linear_5,128,9999,9999,9999,2214095980
10416,19,Jits_Linear_5,129,9999,9999,9999,2214826104
10416,19,Jits_Linear_5,130,9999,9999,9999,2215565396
10416,19,Jits_Linear_5,131,9999,9999,9999,2216305764
10416,19,Jits_Linear_5,132,9999,9999,9999,2217046132
10416,19,Jits_Linear_5,133,9999,9999,9999,2217795708
10416,19,Jits_Linear_5,134,9999,9999,9999,2218536060
10416,19,Jits_Linear_5,135,9999,9999,9999,2219285632
10416,19,Jits_Linear_5,136,9999,9999,9999,2220035148
10416,19,Jits_Linear_5,137,9999,9999,9999,2220785764
10416,19,Jits_Linear_5,138,9999,9999,9999,2221535356
10416,19,Jits_Linear_5,139,9999,9999,9999,2222285912
10416,19,Jits_Linear_5,140,9999,9999,9999,2223045748
10416,19,Jits_Linear_5,141,9999,9999,9999,2223805524
10416,19,Jits_Linear_5,142,9999,9999,9999,2224565304
10416,19,Jits_Linear_5,143,9999,9999,9999,2225325156
10416,19,Jits_Linear_5,144,9999,9999,9999,2226085976
10416,19,Jits_Linear_5,145,9999,9999,9999,2226856004
10416,19,Jits_Linear_5,146,9999,9999,9999,2227626048
10416,19,Jits_Linear_5,147,9999,9999,9999,2228395104
10416,19,Jits_Linear_5,148,9999,9999,9999,2229165128
10416,19,Jits_Linear_5,149,9999,9999,9999,2229935168
10416,19,Jits_Linear_5,150,9999,9999,9999,2230715464
10416,19,Jits_Linear_5,151,9999,9999,9999,2231495760
10416,19,Jits_Linear_5,152,9999,9999,9999,2232276068
10416,19,Jits_Linear_5,153,9999,9999,9999,2233055336
10416,19,Jits_Linear_5,154,9999,9999,9999,2233835632
10416,19,Jits_Linear_5,155,9999,9999,9999,2234625148
10416,19,Jits_Linear_5,156,9999,9999,9999,2235415616
10416,19,Jits_Linear_5,157,9999,9999,9999,2236205164
10416,19,Jits_Linear_5,158,9999,9999,9999,2236995688
10416,19,Jits_Linear_5,159,9999,9999,9999,2237785172
10416,19,Jits_Linear_5,160,9999,9999,9999,2238585928
10416,19,Jits_Linear_5,161,9999,9999,9999,2239385720
10416,19,Jits_Linear_5,162,9999,9999,9999,2240185424
10416,19,Jits_Linear_5,163,9999,9999,9999,2240985212
10416,19,Jits_Linear_5,164,9999,9999,9999,2241785912
10416,19,Jits_Linear_5,165,9999,9999,9999,2242595964
10416,19,Jits_Linear_5,166,9999,9999,9999,2243405900
10416,19,Jits_Linear_5,167,9999,9999,9999,2244215872
10416,19,Jits_Linear_5,168,9999,9999,9999,2245025916
10416,19,Jits_Linear_5,169,9999,9999,9999,2245835888
10417,18,Jits_Linear_8,0,5,56,103,2256277876
10417,18,Jits_Linear_8,1,5,63,98,2256280824
10417,18,Jits_Linear_8,2,5,80,127,2256284168
10417,18,Jits_Linear_8,0,5,56,103,2257098112
10417,18,Jits_Linear_8,1,5,63,98,2257101056
10417,18,Jits_Linear_8,2,5,80,127,2257104552
10417,18,Jits_Linear_8,0,5,80,127,2257857824
10417,18,Jits_Linear_8,1,5,63,98,2257948060
10417,18,Jits_Linear_8,2,5,56,103,2257958628
10417,18,Jits_Linear_8,0,5,56,103,2258697584
10417,18,Jits_Linear_8,1,5,63,98,2258707780
10417,18,Jits_Linear_8,2,5,80,127,2258797988
10417,18,Jits_Linear_8,0,1,48,43,2259477496
10417,18,Jits_Linear_8,1,5,63,98,2259488312
10417,18,Jits_Linear_8,2,5,80,127,2259517912
10417,18,Jits_Linear_8,3,5,56,103,2259547440
10417,18,Jits_Linear_8,0,1,48,43,2260238960
10417,18,Jits_Linear_8,1,5,56,103,2260308436
10417,18,Jits_Linear_8,2,5,80,127,2260407700
10417,18,Jits_Linear_8,3,5,63,98,2260457780
10417,18,Jits_Linear_8,0,1,48,43,2261114824
10417,18,Jits_Linear_8,1,5,56,103,2261118532
10417,18,Jits_Linear_8,2,5,80,127,2261167616
10417,18,Jits_Linear_8,3,5,63,98,2261208528
10417,18,Jits_Linear_8,0,1,48,45,2261909344
10417,18,Jits_Linear_8,1,5,80,127,2261958144
10417,18,Jits_Linear_8,2,5,63,98,2261987624
10417,18,Jits_Linear_8,3,5,56,103,2262058484
10417,18,Jits_Linear_8,0,1,48,39,2262714484
10417,18,Jits_Linear_8,1,5,63,98,2262797632
10417,18,Jits_Linear_8,2,5,56,103,2262828564
10417,18,Jits_Linear_8,3,5,80,127,2262887760
10417,18,Jits_Linear_8,0,1,48,43,2263542292
10417,18,Jits_Linear_8,1,5,56,103,2263548460
10417,18,Jits_Linear_8,2,5,80,127,2263551456
10417,18,Jits_Linear_8,3,5,63,98,2263667952
10417,18,Jits_Linear_8,0,1,48,43,2264399804
10417,18,Jits_Linear_8,1,5,56,103,2264427856
10417,18,Jits_Linear_8,2,5,80,127,2264467944
10417,18,Jits_Linear_8,3,5,63,98,2264478436
10417,18,Jits_Linear_8,0,1,48,43,2265126816
10417,18,Jits_Linear_8,1,5,56,103,2265187604
10417,18,Jits_Linear_8,2,5,80,127,2265208360
10417,18,Jits_Linear_8,3,5,63,98,2265288364
10417,18,Jits_Linear_8,0,1,48,48,2265910608
10417,18,Jits_Linear_8,1,5,80,127,2265978440
10417,18,Jits_Linear_8,2,5,56,103,2266077628
10417,18,Jits_Linear_8,3,5,63,98,2266087900
10417,18,Jits_Linear_8,0,1,48,42,2266748508
10417,18,Jits_Linear_8,1,5,63,98,2266749844
10417,18,Jits_Linear_8,2,5,80,127,2266807548
10417,18,Jits_Linear_8,3,5,56,103,2266818116
10417,18,Jits_Linear_8,0,1,48,42,2267513452
10417,18,Jits_Linear_8,1,5,56,103,2267547952
10417,18,Jits_Linear_8,2,5,63,98,2267617644
10417,18,Jits_Linear_8,3,5,80,127,2267621008
10417,18,Jits_Linear_8,0,1,48,45,2268307816
10417,18,Jits_Linear_8,1,5,63,98,2268377368
10417,18,Jits_Linear_8,2,5,56,103,2268427580
10417,18,Jits_Linear_8,3,5,80,127,2268430648
10417,18,Jits_Linear_8,0,1,48,47,2269107860
10417,18,Jits_Linear_8,1,5,56,103,2269128036
10417,18,Jits_Linear_8,2,5,80,127,2269131400
10417,18,Jits_Linear_8,3,5,63,98,2269218028
10417,18,Jits_Linear_8,0,1,48,43,2269903244
10417,18,Jits_Linear_8,1,5,63,98,2269957472
10417,18,Jits_Linear_8,2,5,56,103,2270047520
10417,18,Jits_Linear_8,3,5,80,127,2270078392
10417,18,Jits_Linear_8,0,1,48,48,2270678144
10417,18,Jits_Linear_8,1,5,56,103,2270737680
10417,18,Jits_Linear_8,2,5,63,98,2270838064
10417,18,Jits_Linear_8,3,5,80,127,2270867740
10417,18,Jits_Linear_8,0,1,48,40,2271539812
10417,18,Jits_Linear_8,1,5,63,98,2271547704
10417,18,Jits_Linear_8,2,5,56,103,2271557900
10417,18,Jits_Linear_8,3,5,80,127,2271648092
10417,18,Jits_Linear_8,0,5,63,98,2272347544
10417,18,Jits_Linear_8,1,1,48,36,2272419592
10417,18,Jits_Linear_8,2,5,56,103,2272428604
10417,18,Jits_Linear_8,3,5,80,127,2272431520
10417,18,Jits_Linear_8,0,5,80,127,2273087808
10417,18,Jits_Linear_8,1,5,63,98,2273108488
10417,18,Jits_Linear_8,2,1,48,36,2273138284
10417,18,Jits_Linear_8,3,5,56,103,2273167752
10417,18,Jits_Linear_8,0,1,48,45,2273876088
10417,18,Jits_Linear_8,1,5,56,103,2273908024
10417,18,Jits_Linear_8,2,5,63,98,2273927508
10417,18,Jits_Linear_8,3,5,80,127,2273930872
10417,18,Jits_Linear_8,0,1,48,48,2274547256
10417,18,Jits_Linear_8,1,5,63,98,2274628048
10417,18,Jits_Linear_8,2,5,80,127,2274707756
10417,18,Jits_Linear_8,3,5,56,103,2274718252
10417,18,Jits_Linear_8,0,1,48,45,2275330672
10417,18,Jits_Linear_8,1,5,63,98,2275427564
10417,18,Jits_Linear_8,2,5,56,103,2275448320
10417,18,Jits_Linear_8,3,5,80,127,2275498524
10417,18,Jits_Linear_8,0,1,48,45,2276114232
10417,18,Jits_Linear_8,1,5,80,127,2276207924
10417,18,Jits_Linear_8,2,5,63,98,2276247776
10417,18,Jits_Linear_8,3,5,56,103,2276268532
10417,18,Jits_Linear_8,0,1,48,41,2276962844
10417,18,Jits_Linear_8,1,5,56,103,2277017872
10417,18,Jits_Linear_8,2,5,63,98,2277028144
10417,18,Jits_Linear_8,3,5,80,127,2277047776
10417,18,Jits_Linear_8,0,1,48,54,2277711280
10417,18,Jits_Linear_8,1,5,56,103,2277718352
10417,18,Jits_Linear_8,2,5,63,98,2277808624
10417,18,Jits_Linear_8,3,5,80,127,2277867844
10417,18,Jits_Linear_8,0,1,48,45,2278482120
10417,18,Jits_Linear_8,1,5,80,127,2278518260
10417,18,Jits_Linear_8,2,5,56,103,2278528384
10417,18,Jits_Linear_8,3,5,63,98,2278597900
10417,18,Jits_Linear_8,0,1,48,47,2279223724
10417,18,Jits_Linear_8,1,5,63,98,2279317864
10417,18,Jits_Linear_8,2,5,80,127,2279407864
10417,18,Jits_Linear_8,3,5,56,103,2279418356
10417,18,Jits_Linear_8,0,1,48,46,2280018732
10417,18,Jits_Linear_8,1,5,63,98,2280019920
10417,18,Jits_Linear_8,2,5,80,127,2280067512
10417,18,Jits_Linear_8,3,5,56,103,2280127960
10417,18,Jits_Linear_8,0,1,48,49,2280732212
10417,18,Jits_Linear_8,1,5,56,103,2280807692
10417,18,Jits_Linear_8,2,5,80,127,2280857956
10417,18,Jits_Linear_8,3,5,63,98,2280877516
10417,18,Jits_Linear_8,0,1,48,44,2281492708
10417,18,Jits_Linear_8,1,5,56,103,2281537844
10417,18,Jits_Linear_8,2,5,80,127,2281598220
10417,18,Jits_Linear_8,3,5,63,98,2281668052
10417,18,Jits_Linear_8,0,1,48,48,2282220236
10417,18,Jits_Linear_8,1,5,56,103,2282297660
10417,18,Jits_Linear_8,2,5,80,127,2282328372
10417,18,Jits_Linear_8,3,5,63,98,2282358272
10417,18,Jits_Linear_8,0,1,48,46,2282986580
10417,18,Jits_Linear_8,1,5,56,103,2283097400
10417,18,Jits_Linear_8,2,5,80,127,2283118008
10417,18,Jits_Linear_8,3,5,63,98,2283178396
10417,18,Jits_Linear_8,0,1,48,45,2283830464
10417,18,Jits_Linear_8,1,5,80,127,2283938364
10417,18,Jits_Linear_8,2,5,56,103,2283948484
10417,18,Jits_Linear_8,3,5,63,98,2283957560
10417,18,Jits_Linear_8,0,1,48,44,2284636972
10417,18,Jits_Linear_8,1,5,56,103,2284647712
10417,18,Jits_Linear_8,2,5,80,127,2284687728
10417,18,Jits_Linear_8,3,5,63,98,2284717476
10417,18,Jits_Linear_8,0,5,56,103,2285367608
10417,18,Jits_Linear_8,1,5,63,98,2285398412
10417,18,Jits_Linear_8,2,1,48,44,2285405268
10417,18,Jits_Linear_8,3,5,80,127,2285438416
10417,18,Jits_Linear_8,0,5,80,127,2286068332
10417,18,Jits_Linear_8,1,1,48,50,2286076476
10417,18,Jits_Linear_8,2,5,63,98,2286118380
10417,18,Jits_Linear_8,3,5,56,103,2286137644
10417,18,Jits_Linear_8,0,1,48,46,2286799856
10417,18,Jits_Linear_8,1,5,56,103,2286848240
10417,18,Jits_Linear_8,2,5,80,127,2286918056
10417,18,Jits_Linear_8,3,5,63,98,2286978372
10417,18,Jits_Linear_8,0,5,80,127,2287587616
10417,18,Jits_Linear_8,1,1,48,48,2287590360
10417,18,Jits_Linear_8,2,5,63,98,2287677820
10417,18,Jits_Linear_8,3,5,56,103,2287698416
10417,18,Jits_Linear_8,0,1,48,43,2288324464
10417,18,Jits_Linear_8,1,5,63,98,2288347432
10417,18,Jits_Linear_8,2,5,56,103,2288368064
10417,18,Jits_Linear_8,3,5,80,127,2288408000
10417,18,Jits_Linear_8,0,1,48,44,2289017392
10417,18,Jits_Linear_8,1,5,80,127,2289048060
10417,18,Jits_Linear_8,2,5,63,98,2289068372
10417,18,Jits_Linear_8,3,5,56,103,2289148400
10417,18,Jits_Linear_8,0,5,63,98,2289778140
10417,18,Jits_Linear_8,1,1,48,38,2289779108
10417,18,Jits_Linear_8,2,5,56,103,2289887536
10417,18,Jits_Linear_8,3,5,80,127,2289890680
10417,18,Jits_Linear_8,0,5,63,98,2290537808
10417,18,Jits_Linear_8,1,5,56,103,2290548224
10417,18,Jits_Linear_8,2,5,80,127,2290551144
10417,18,Jits_Linear_8,3,1,48,45,2290568584
10417,18,Jits_Linear_8,0,5,56,103,2291257684
10417,18,Jits_Linear_8,1,1,48,40,2291303276
10417,18,Jits_Linear_8,2,5,80,127,2291377408
10417,18,Jits_Linear_8,3,5,63,98,2291417408
10417,18,Jits_Linear_8,0,5,56,103,2292008384
10417,18,Jits_Linear_8,1,5,80,127,2292088552
10417,18,Jits_Linear_8,2,1,48,46,2292102980
10417,18,Jits_Linear_8,3,5,63,98,2292107660
10417,18,Jits_Linear_8,0,5,56,103,2292738480
10417,18,Jits_Linear_8,1,5,63,98,2292848092
10417,18,Jits_Linear_8,2,5,80,127,2292851604
10417,18,Jits_Linear_8,3,1,48,33,2292861252
10417,18,Jits_Linear_8,0,5,56,103,2293498236
10417,18,Jits_Linear_8,1,5,80,127,2293528136
10417,18,Jits_Linear_8,2,5,63,98,2293548448
10417,18,Jits_Linear_8,3,1,48,28,2293585944
10417,18,Jits_Linear_8,0,5,63,98,2294207856
10417,18,Jits_Linear_8,1,1,48,54,2294218272
10417,18,Jits_Linear_8,2,5,56,103,2294219684
10417,18,Jits_Linear_8,3,5,80,127,2294228240
10417,18,Jits_Linear_8,0,1,48,50,2294874796
10417,18,Jits_Linear_8,1,5,80,127,2294917468
10417,18,Jits_Linear_8,2,5,56,103,2294967584
10417,18,Jits_Linear_8,3,5,63,98,2295007548
10417,18,Jits_Linear_8,0,1,48,38,2295646328
10417,18,Jits_Linear_8,1,5,80,127,2295657736
10417,18,Jits_Linear_8,2,5,63,98,2295678344
10417,18,Jits_Linear_8,3,5,56,103,2295727500
10417,18,Jits_Linear_8,0,1,48,50,2296293976
10417,18,Jits_Linear_8,1,5,80,127,2296387964
10417,18,Jits_Linear_8,2,5,56,103,2296417700
10417,18,Jits_Linear_8,3,5,63,98,2296488208
10417,18,Jits_Linear_8,0,1,48,37,2297085348
10417,18,Jits_Linear_8,1,5,56,103,2297158208
10417,18,Jits_Linear_8,2,5,80,127,2297168256
10417,18,Jits_Linear_8,3,5,63,98,2297208328
10417,18,Jits_Linear_8,0,5,56,103,2297787880
10417,18,Jits_Linear_8,1,5,63,98,2297808192
10417,18,Jits_Linear_8,2,1,48,28,2297816560
10417,18,Jits_Linear_8,3,5,80,127,2297877888
10417,18,Jits_Linear_8,0,1,48,48,2298397608
10417,18,Jits_Linear_8,1,5,63,98,2298528360
10417,18,Jits_Linear_8,2,5,80,127,2298587484
10417,18,Jits_Linear_8,3,5,56,103,2298608040
10417,18,Jits_Linear_8,0,1,48,27,2299187180
10417,18,Jits_Linear_8,1,5,80,127,2299227368
10417,18,Jits_Linear_8,2,5,56,103,2299258312
10417,18,Jits_Linear_8,3,5,63,98,2299288196
10417,18,Jits_Linear_8,0,1,48,35,2299875368
10417,18,Jits_Linear_8,1,5,56,103,2299938188
10417,18,Jits_Linear_8,2,5,63,98,2299997668
10417,18,Jits_Linear_8,3,5,80,127,2300058056
10417,18,Jits_Linear_8,0,1,48,38,2300603252
10417,18,Jits_Linear_8,1,5,80,127,2300668420
10417,18,Jits_Linear_8,2,5,56,103,2300687612
10417,18,Jits_Linear_8,3,5,63,98,2300758252
10417,18,Jits_Linear_8,0,1,48,37,2301297528
10417,18,Jits_Linear_8,1,5,80,127,2301378024
10417,18,Jits_Linear_8,2,5,63,98,2301398396
10417,18,Jits_Linear_8,3,5,56,103,2301428244
10417,18,Jits_Linear_8,0,1,48,30,2302070020
10417,18,Jits_Linear_8,1,5,80,127,2302078360
10417,18,Jits_Linear_8,2,5,63,98,2302097772
10417,18,Jits_Linear_8,3,5,56,103,2302158236
10417,18,Jits_Linear_8,0,1,48,38,2302761360
10417,18,Jits_Linear_8,1,5,80,127,2302777572
10417,18,Jits_Linear_8,2,5,56,103,2302878256
10417,18,Jits_Linear_8,3,5,63,98,2302907632
10417,18,Jits_Linear_8,0,5,63,98,2303468104
10417,18,Jits_Linear_8,1,5,80,127,2303518084
10417,18,Jits_Linear_8,2,1,48,38,2303530568
10417,18,Jits_Linear_8,3,5,56,103,2303537416
10417,18,Jits_Linear_8,0,1,48,39,2304145220
10417,18,Jits_Linear_8,1,5,80,127,2304208120
10417,18,Jits_Linear_8,2,5,56,103,2304238028
10417,18,Jits_Linear_8,3,5,63,98,2304241240
10417,18,Jits_Linear_8,0,1,48,38,2304850952
10417,18,Jits_Linear_8,1,5,63,98,2304938340
10417,18,Jits_Linear_8,2,5,56,103,2304978416
10417,18,Jits_Linear_8,3,5,80,127,2304997704
10417,18,Jits_Linear_8,0,1,48,40,2305553164
10417,18,Jits_Linear_8,1,5,80,127,2305578372
10417,18,Jits_Linear_8,2,5,63,98,2305658304
10417,18,Jits_Linear_8,3,5,56,103,2305698092
10417,18,Jits_Linear_8,0,1,48,37,2306277644
10417,18,Jits_Linear_8,1,5,63,98,2306288152
10417,18,Jits_Linear_8,2,5,80,127,2306367804
10417,18,Jits_Linear_8,3,5,56,103,2306388396
10417,18,Jits_Linear_8,0,1,48,39,2306984020
10417,18,Jits_Linear_8,1,5,56,103,2307017992
10417,18,Jits_Linear_8,2,5,63,98,2307028412
10417,18,Jits_Linear_8,3,5,80,127,2307068376
10417,18,Jits_Linear_8,0,5,56,103,2307628356
10417,18,Jits_Linear_8,1,5,80,127,2307631272
10417,18,Jits_Linear_8,2,1,48,43,2307661512
10417,18,Jits_Linear_8,3,5,63,98,2307767612
10417,18,Jits_Linear_8,0,5,56,103,2308308364
10417,18,Jits_Linear_8,1,1,48,32,2308359764
10417,18,Jits_Linear_8,2,5,63,98,2308397476
10417,18,Jits_Linear_8,3,5,80,127,2308468112
10417,18,Jits_Linear_8,0,1,48,45,2308986216
10417,18,Jits_Linear_8,1,5,63,98,2309068200
10417,18,Jits_Linear_8,2,5,80,127,2309071344
10417,18,Jits_Linear_8,3,5,56,103,2309127628
10417,18,Jits_Linear_8,0,1,48,46,2309705880
10417,18,Jits_Linear_8,1,5,80,127,2309788240
10417,18,Jits_Linear_8,2,5,56,103,2309807564
10417,18,Jits_Linear_8,3,5,63,98,2309817908
10417,18,Jits_Linear_8,0,5,56,103,2310377932
10417,18,Jits_Linear_8,1,5,63,98,2310388200
10417,18,Jits_Linear_8,2,1,48,49,2310416052
10417,18,Jits_Linear_8,3,5,80,127,2310457728
10417,18,Jits_Linear_8,0,1,48,48,2311050800
10417,18,Jits_Linear_8,1,5,80,127,2311058092
10417,18,Jits_Linear_8,2,5,56,103,2311108296
10417,18,Jits_Linear_8,3,5,63,98,2311158064
10417,18,Jits_Linear_8,0,1,48,24,2311783648
10417,18,Jits_Linear_8,1,5,56,103,2311817472
10417,18,Jits_Linear_8,2,5,63,98,2311828040
10417,18,Jits_Linear_8,3,5,80,127,2311868056
10417,18,Jits_Linear_8,0,5,56,103,2312438180
10417,18,Jits_Linear_8,1,1,48,37,2312473064
10417,18,Jits_Linear_8,2,5,63,98,2312478264
10417,18,Jits_Linear_8,3,5,80,127,2312528092
10417,18,Jits_Linear_8,0,5,80,127,2313067932
10417,18,Jits_Linear_8,1,1,48,32,2313115096
10417,18,Jits_Linear_8,2,5,56,103,2313118204
10417,18,Jits_Linear_8,3,5,63,98,2313137540
10417,18,Jits_Linear_8,0,1,48,50,2313731008
10417,18,Jits_Linear_8,1,5,80,127,2313748120
10417,18,Jits_Linear_8,2,5,63,98,2313808216
10417,18,Jits_Linear_8,3,5,56,103,2313888068
10417,18,Jits_Linear_8,0,5,80,127,2314398096
10417,18,Jits_Linear_8,1,1,48,38,2314427892
10417,18,Jits_Linear_8,2,5,56,103,2314438180
10417,18,Jits_Linear_8,3,5,63,98,2314457368
10417,18,Jits_Linear_8,0,1,48,52,2315015056
10417,18,Jits_Linear_8,1,5,56,103,2315118100
10417,18,Jits_Linear_8,2,5,80,127,2315128220
10417,18,Jits_Linear_8,3,5,63,98,2315168084
10417,18,Jits_Linear_8,0,1,48,43,2315756164
10417,18,Jits_Linear_8,1,5,56,103,2315847972
10417,18,Jits_Linear_8,2,5,63,98,2315888040
10417,18,Jits_Linear_8,3,5,80,127,2315891332
10417,18,Jits_Linear_8,0,5,63,98,2316397916
10417,18,Jits_Linear_8,1,1,48,45,2316432500
10417,18,Jits_Linear_8,2,5,80,127,2316438072
10417,18,Jits_Linear_8,3,5,56,103,2316507532
10417,18,Jits_Linear_8,0,5,63,98,2317048252
10417,18,Jits_Linear_8,1,1,48,31,2317074288
10417,18,Jits_Linear_8,2,5,56,103,2317128268
10417,18,Jits_Linear_8,3,5,80,127,2317187372
10417,18,Jits_Linear_8,0,1,48,41,2317682444
10417,18,Jits_Linear_8,1,5,80,127,2317717916
10417,18,Jits_Linear_8,2,5,63,98,2317767972
10417,18,Jits_Linear_8,3,5,56,103,2317797956
10417,18,Jits_Linear_8,0,1,48,46,2318308468
10417,18,Jits_Linear_8,1,5,56,103,2318368276
10417,18,Jits_Linear_8,2,5,63,98,2318418244
10417,18,Jits_Linear_8,3,5,80,127,2318427540
10417,18,Jits_Linear_8,0,1,48,40,2318924100
10417,18,Jits_Linear_8,1,5,56,103,2319037928
10417,18,Jits_Linear_8,2,5,63,98,2319148468
10417,18,Jits_Linear_8,3,5,80,127,2319167956
10417,18,Jits_Linear_8,0,5,63,98,2319688092
10417,18,Jits_Linear_8,1,1,48,42,2319690840
10417,18,Jits_Linear_8,2,5,80,127,2319738288
10417,18,Jits_Linear_8,3,5,56,103,2319828332
10417,18,Jits_Linear_8,0,5,63,98,2320328016
10417,18,Jits_Linear_8,1,5,80,127,2320357648
10417,18,Jits_Linear_8,2,1,48,38,2320362184
10417,18,Jits_Linear_8,3,5,56,103,2320448220
10417,18,Jits_Linear_8,0,5,63,98,2320978156
10417,18,Jits_Linear_8,1,5,56,103,2320987532
10417,18,Jits_Linear_8,2,1,48,40,2321004652
10417,18,Jits_Linear_8,3,5,80,127,2321087992
10417,18,Jits_Linear_8,0,1,48,43,2321653348
10417,18,Jits_Linear_8,1,5,63,98,2321737972
10417,18,Jits_Linear_8,2,5,80,127,2321767932
10417,18,Jits_Linear_8,3,5,56,103,2321797532
10417,18,Jits_Linear_8,0,1,48,32,2322374424
10417,18,Jits_Linear_8,1,5,80,127,2322397636
10417,18,Jits_Linear_8,2,5,63,98,2322407908
10417,18,Jits_Linear_8,3,5,56,103,2322437508
10417,18,Jits_Linear_8,0,5,80,127,2322938152
10417,18,Jits_Linear_8,1,5,63,98,2322957568
10417,18,Jits_Linear_8,2,5,56,103,2323008140
10417,18,Jits_Linear_8,3,1,48,37,2323052984
10417,18,Jits_Linear_8,0,5,63,98,2323607912
10417,18,Jits_Linear_8,1,5,80,127,2323668304
10417,18,Jits_Linear_8,2,5,56,103,2323688040
10417,18,Jits_Linear_8,3,1,48,29,2323742996
10417,18,Jits_Linear_8,0,5,63,98,2324208008
10417,18,Jits_Linear_8,1,5,56,103,2324258360
10417,18,Jits_Linear_8,2,5,80,127,2324268408
10417,18,Jits_Linear_8,3,1,48,46,2324307192
10417,18,Jits_Linear_8,0,5,56,103,2324878120
10417,18,Jits_Linear_8,1,5,80,127,2324888244
10417,18,Jits_Linear_8,2,1,48,38,2324947184
10417,18,Jits_Linear_8,3,5,63,98,2324988136
10417,18,Jits_Linear_8,0,5,80,127,2325477856
10417,18,Jits_Linear_8,1,5,63,98,2325487980
10417,18,Jits_Linear_8,2,1,48,39,2325625044
10417,18,Jits_Linear_8,3,5,56,103,2325637440
10417,18,Jits_Linear_8,0,5,63,98,2326117872
10417,18,Jits_Linear_8,1,5,80,127,2326157812
10417,18,Jits_Linear_8,2,1,48,52,2326233372
10417,18,Jits_Linear_8,3,5,56,103,2326237700
10417,18,Jits_Linear_8,0,5,56,103,2326738244
10417,18,Jits_Linear_8,1,5,80,127,2326837476
10417,18,Jits_Linear_8,2,5,63,98,2326858084
10417,18,Jits_Linear_8,3,1,48,43,2326882100
10417,18,Jits_Linear_8,0,5,80,127,2327427440
10417,18,Jits_Linear_8,1,5,56,103,2327438080
10417,18,Jits_Linear_8,2,1,48,33,2327508852
10417,18,Jits_Linear_8,3,5,63,98,2327528008
10417,18,Jits_Linear_8,0,5,56,103,2328067400
10417,18,Jits_Linear_8,1,5,63,98,2328088008
10417,18,Jits_Linear_8,2,5,80,127,2328167952
10417,18,Jits_Linear_8,3,1,48,29,2328242316
10417,18,Jits_Linear_8,0,5,63,98,2328658268
10417,18,Jits_Linear_8,1,5,56,103,2328748332
10417,18,Jits_Linear_8,2,5,80,127,2328751468
10417,18,Jits_Linear_8,3,1,48,34,2328941448
10417,18,Jits_Linear_8,0,5,56,103,2329307632
10417,18,Jits_Linear_8,1,5,80,127,2329367876
10417,18,Jits_Linear_8,2,5,63,98,2329378148
10417,18,Jits_Linear_8,3,1,48,38,2329637952
10417,18,Jits_Linear_8,0,5,80,127,2329978220
10417,18,Jits_Linear_8,1,5,56,103,2329987368
10417,18,Jits_Linear_8,2,5,63,98,2329990436
10417,18,Jits_Linear_8,0,1,48,40,2330282856
10417,18,Jits_Linear_8,1,5,56,103,2330557780
10417,18,Jits_Linear_8,2,5,80,127,2330567976
10417,18,Jits_Linear_8,3,5,63,98,2330587412
10417,18,Jits_Linear_8,0,1,48,31,2330914616
10417,18,Jits_Linear_8,1,5,63,98,2331147608
10417,18,Jits_Linear_8,2,5,80,127,2331208000
10417,18,Jits_Linear_8,3,5,56,103,2331258348
10417,18,Jits_Linear_8,0,1,48,33,2331616172
10417,18,Jits_Linear_8,1,5,63,98,2331848148
10417,18,Jits_Linear_8,2,5,56,103,2331858268
10417,18,Jits_Linear_8,3,5,80,127,2331907376
10417,18,Jits_Linear_8,0,1,48,38,2332297016
10417,18,Jits_Linear_8,1,5,63,98,2332357956
10417,18,Jits_Linear_8,2,5,80,127,2332377444
10417,18,Jits_Linear_8,3,5,56,103,2332387960
10417,18,Jits_Linear_8,0,5,63,98,2332968236
10417,18,Jits_Linear_8,1,5,80,127,2332971600
10417,18,Jits_Linear_8,2,1,48,38,2332990536
10417,18,Jits_Linear_8,3,5,56,103,2333008092
10417,18,Jits_Linear_8,0,1,48,22,2333643924
10417,18,Jits_Linear_8,1,5,63,98,2333648228
10417,18,Jits_Linear_8,2,5,80,127,2333678004
10417,18,Jits_Linear_8,3,5,56,103,2333688124
10417,18,Jits_Linear_8,0,5,56,103,2334208400
10417,18,Jits_Linear_8,1,5,80,127,2334238000
10417,18,Jits_Linear_8,2,5,63,98,2334268048
10417,18,Jits_Linear_8,3,1,48,36,2334287500
10417,18,Jits_Linear_8,0,1,48,42,2334888992
10417,18,Jits_Linear_8,1,5,63,98,2334908044
10417,18,Jits_Linear_8,2,5,56,103,2334947860
10417,18,Jits_Linear_8,3,5,80,127,2334950776
10417,18,Jits_Linear_8,0,5,80,127,2335407428
10417,18,Jits_Linear_8,1,5,56,103,2335488372
10417,18,Jits_Linear_8,2,1,48,34,2335517944
10417,18,Jits_Linear_8,3,5,63,98,2335537592
10417,18,Jits_Linear_8,0,5,80,127,2335988132
10417,18,Jits_Linear_8,1,5,56,103,2336007468
10417,18,Jits_Linear_8,2,5,63,98,2336097600
10417,18,Jits_Linear_8,3,1,48,39,2336116012
10417,18,Jits_Linear_8,0,5,80,127,2336628072
10417,18,Jits_Linear_8,1,1,48,48,2336637340
10417,18,Jits_Linear_8,2,5,63,98,2336667932
10417,18,Jits_Linear_8,3,5,56,103,2336708168
10417,18,Jits_Linear_8,0,5,63,98,2337197364
10417,18,Jits_Linear_8,1,1,48,43,2337230080
10417,18,Jits_Linear_8,2,5,80,127,2337257776
10417,18,Jits_Linear_8,3,5,56,103,2337287600
10417,18,Jits_Linear_8,0,5,56,103,2337797532
10417,18,Jits_Linear_8,1,1,48,35,2337823048
10417,18,Jits_Linear_8,2,5,80,127,2337828172
10417,18,Jits_Linear_8,3,5,63,98,2337918380
10417,18,Jits_Linear_8,0,5,56,103,2338397836
10417,18,Jits_Linear_8,1,1,48,44,2338401856
10417,18,Jits_Linear_8,2,5,80,127,2338508184
10417,18,Jits_Linear_8,3,5,63,98,2338538032
10417,18,Jits_Linear_8,0,1,48,38,2339033256
10417,18,Jits_Linear_8,1,5,56,103,2339037584
10417,18,Jits_Linear_8,2,5,63,98,2339098052
10417,18,Jits_Linear_8,3,5,80,127,2339127788
10417,18,Jits_Linear_8,0,5,56,103,2339598032
10417,18,Jits_Linear_8,1,1,48,42,2339603996
10417,18,Jits_Linear_8,2,5,63,98,2339668312
10417,18,Jits_Linear_8,3,5,80,127,2339687944
10417,18,Jits_Linear_8,0,5,80,127,2340158040
10417,18,Jits_Linear_8,1,5,63,98,2340178280
10417,18,Jits_Linear_8,2,1,48,38,2340195248
10417,18,Jits_Linear_8,3,5,56,103,2340227428
10417,18,Jits_Linear_8,0,1,48,41,2340764224
10417,18,Jits_Linear_8,1,5,63,98,2340768084
10417,18,Jits_Linear_8,2,5,80,127,2340778428
10417,18,Jits_Linear_8,3,5,56,103,2340827608
10417,18,Jits_Linear_8,0,1,48,39,2341326692
10417,18,Jits_Linear_8,1,5,63,98,2341347944
10417,18,Jits_Linear_8,2,5,80,127,2341418376
10417,18,Jits_Linear_8,3,5,56,103,2341437776
10417,18,Jits_Linear_8,0,1,48,49,2341895552
10417,18,Jits_Linear_8,1,5,63,98,2341958128
10417,18,Jits_Linear_8,2,5,80,127,2341961420
10417,18,Jits_Linear_8,3,5,56,103,2342027796
10417,18,Jits_Linear_8,0,5,80,127,2342488452
10417,18,Jits_Linear_8,1,1,48,35,2342499964
10417,18,Jits_Linear_8,2,5,56,103,2342508004
10417,18,Jits_Linear_8,3,5,63,98,2342518352
10417,18,Jits_Linear_8,0,1,48,44,2343043312
10417,18,Jits_Linear_8,1,5,56,103,2343087476
10417,18,Jits_Linear_8,2,5,63,98,2343177620
10417,18,Jits_Linear_8,3,5,80,127,2343181060
10417,18,Jits_Linear_8,0,1,48,33,2343629372
10417,18,Jits_Linear_8,1,5,80,127,2343638316
10417,18,Jits_Linear_8,2,5,56,103,2343647712
10417,18,Jits_Linear_8,3,5,63,98,2343668020
10417,18,Jits_Linear_8,0,1,48,46,2344167948
10417,18,Jits_Linear_8,1,5,63,98,2344207684
10417,18,Jits_Linear_8,2,5,80,127,2344268060
10417,18,Jits_Linear_8,3,5,56,103,2344278260
10417,18,Jits_Linear_8,0,1,48,42,2344701404
10417,18,Jits_Linear_8,1,5,63,98,2344847972
10417,18,Jits_Linear_8,2,5,80,127,2344877276
10417,18,Jits_Linear_8,3,5,56,103,2344918412
10417,18,Jits_Linear_8,0,1,48,36,2345343960
10417,18,Jits_Linear_8,1,5,56,103,2345408132
10417,18,Jits_Linear_8,2,5,80,127,2345418032
10417,18,Jits_Linear_8,3,5,63,98,2345458052
10417,18,Jits_Linear_8,0,5,80,127,2345938236
10417,18,Jits_Linear_8,1,1,48,38,2345998700
10417,18,Jits_Linear_8,2,5,56,103,2346018052
10417,18,Jits_Linear_8,3,5,63,98,2346028328
10417,18,Jits_Linear_8,0,5,80,127,2346547864
10417,18,Jits_Linear_8,1,1,48,35,2346595648
10417,18,Jits_Linear_8,2,5,56,103,2346627436
10417,18,Jits_Linear_8,3,5,63,98,2346637780
10417,18,Jits_Linear_8,0,5,80,127,2347067868
10417,18,Jits_Linear_8,1,5,56,103,2347117920
10417,18,Jits_Linear_8,2,5,63,98,2347168196
10417,18,Jits_Linear_8,3,1,48,37,2347206012
10417,18,Jits_Linear_8,0,5,56,103,2347688256
10417,18,Jits_Linear_8,1,5,63,98,2347691248
10417,18,Jits_Linear_8,2,5,80,127,2347737336
10417,18,Jits_Linear_8,3,1,48,42,2347750964
10417,18,Jits_Linear_8,0,5,56,103,2348267836
10417,18,Jits_Linear_8,1,1,48,49,2348277328
10417,18,Jits_Linear_8,2,5,63,98,2348297880
10417,18,Jits_Linear_8,3,5,80,127,2348307704
10417,18,Jits_Linear_8,0,5,63,98,2348737992
10417,18,Jits_Linear_8,1,5,56,103,2348807624
10417,18,Jits_Linear_8,2,1,48,40,2348814560
10417,18,Jits_Linear_8,3,5,80,127,2348857968
10417,18,Jits_Linear_8,0,5,63,98,2349327828
10417,18,Jits_Linear_8,1,5,56,103,2349337948
10417,18,Jits_Linear_8,2,5,80,127,2349340940
10417,18,Jits_Linear_8,3,1,48,48,2349361220
10417,18,Jits_Linear_8,0,5,80,127,2349827716
10417,18,Jits_Linear_8,1,1,48,41,2349882008
10417,18,Jits_Linear_8,2,5,56,103,2349887808
10417,18,Jits_Linear_8,3,5,63,98,2349978824
10417,18,Jits_Linear_8,0,5,80,127,2350378284
10417,18,Jits_Linear_8,1,1,48,40,2350452052
10417,18,Jits_Linear_8,2,5,56,103,2350478000
10417,18,Jits_Linear_8,3,5,63,98,2350517568
10417,18,Jits_Linear_8,0,5,56,103,2350978372
10417,18,Jits_Linear_8,1,1,48,44,2350987568
10417,18,Jits_Linear_8,2,5,63,98,2350998004
10417,18,Jits_Linear_8,3,5,80,127,2351037940
10417,18,Jits_Linear_8,0,5,63,98,2351497696
10417,18,Jits_Linear_8,1,1,48,45,2351502156
10417,18,Jits_Linear_8,2,5,56,103,2351517924
10417,18,Jits_Linear_8,3,5,80,127,2351618404
10417,18,Jits_Linear_8,0,1,48,48,2352013584
10417,18,Jits_Linear_8,1,5,63,98,2352028076
10417,18,Jits_Linear_8,2,5,80,127,2352137704
10417,18,Jits_Linear_8,3,5,56,103,2352168348
10417,18,Jits_Linear_8,0,1,48,46,2352508472
10417,18,Jits_Linear_8,1,5,56,103,2352588216
10417,18,Jits_Linear_8,2,5,63,98,2352617828
10417,18,Jits_Linear_8,3,5,80,127,2352667956
10417,18,Jits_Linear_8,0,1,48,46,2353033540
10417,18,Jits_Linear_8,1,5,63,98,2353098008
10417,18,Jits_Linear_8,2,5,56,103,2353127844
10417,18,Jits_Linear_8,3,5,80,127,2353177972
10417,18,Jits_Linear_8,0,1,48,45,2353602672
10417,18,Jits_Linear_8,1,5,56,103,2353667460
10417,18,Jits_Linear_8,2,5,63,98,2353687996
10417,18,Jits_Linear_8,3,5,80,127,2353767924
10417,18,Jits_Linear_8,0,1,48,44,2354130888
10417,18,Jits_Linear_8,1,5,63,98,2354178444
10417,18,Jits_Linear_8,2,5,56,103,2354237924
10417,18,Jits_Linear_8,3,5,80,127,2354267452
10417,18,Jits_Linear_8,0,1,48,45,2354687016
10417,18,Jits_Linear_8,1,5,56,103,2354757988
10417,18,Jits_Linear_8,2,5,80,127,2354818888
10417,18,Jits_Linear_8,3,5,63,98,2354858304
10417,18,Jits_Linear_8,0,5,63,98,2355267868
10417,18,Jits_Linear_8,1,1,48,47,2355272480
10417,18,Jits_Linear_8,2,5,56,103,2355328332
10417,18,Jits_Linear_8,3,5,80,127,2355397996
10417,18,Jits_Linear_8,0,1,48,49,2355796140
10417,18,Jits_Linear_8,1,5,56,103,2355878276
10417,18,Jits_Linear_8,2,5,63,98,2355887572
10417,18,Jits_Linear_8,3,5,80,127,2355891896
10417,18,Jits_Linear_8,0,5,63,98,2356348212
10417,18,Jits_Linear_8,1,1,48,42,2356358076
10417,18,Jits_Linear_8,2,5,56,103,2356407772
10417,18,Jits_Linear_8,3,5,80,127,2356410764
10417,18,Jits_Linear_8,0,1,48,47,2356858368
10417,18,Jits_Linear_8,1,5,63,98,2356859708
10417,18,Jits_Linear_8,2,5,80,127,2356887892
10417,18,Jits_Linear_8,3,5,56,103,2356908276
10417,18,Jits_Linear_8,0,1,48,42,2357336116
10417,18,Jits_Linear_8,1,5,56,103,2357387608
10417,18,Jits_Linear_8,2,5,63,98,2357437872
10417,18,Jits_Linear_8,3,5,80,127,2357517616
10417,18,Jits_Linear_8,0,1,48,50,2357879616
10417,18,Jits_Linear_8,1,5,80,127,2357888412
10417,18,Jits_Linear_8,2,5,63,98,2357928424
10417,18,Jits_Linear_8,3,5,56,103,2357947612
10417,18,Jits_Linear_8,0,1,48,40,2358428292
10417,18,Jits_Linear_8,1,5,56,103,2358478144
10417,18,Jits_Linear_8,2,5,80,127,2358488416
10417,18,Jits_Linear_8,3,5,63,98,2358507848
10417,18,Jits_Linear_8,0,1,48,46,2358961972
10417,18,Jits_Linear_8,1,5,56,103,2358977888
10417,18,Jits_Linear_8,2,5,63,98,2359028120
10417,18,Jits_Linear_8,3,5,80,127,2359059052
10417,18,Jits_Linear_8,0,5,56,103,2359447904
10417,18,Jits_Linear_8,1,5,63,98,2359458176
10417,18,Jits_Linear_8,2,1,48,44,2359463536
10417,18,Jits_Linear_8,3,5,80,127,2359508444
10417,18,Jits_Linear_8,0,1,48,43,2359947708
10417,18,Jits_Linear_8,1,5,56,103,2359957844
10417,18,Jits_Linear_8,2,5,80,127,2359960912
10417,18,Jits_Linear_8,3,5,63,98,2360117808
10417,18,Jits_Linear_8,0,1,48,46,2360441372
10417,18,Jits_Linear_8,1,5,63,98,2360488528
10417,18,Jits_Linear_8,2,5,56,103,2360557928
10417,18,Jits_Linear_8,3,5,80,127,2360598016
10417,18,Jits_Linear_8,0,5,63,98,2361038120
10417,18,Jits_Linear_8,1,1,48,46,2361048212
10417,18,Jits_Linear_8,2,5,56,103,2361128344
10417,18,Jits_Linear_8,3,5,80,127,2361131336
10417,18,Jits_Linear_8,0,5,56,103,2361527752
10417,18,Jits_Linear_8,1,1,48,46,2361601696
10417,18,Jits_Linear_8,2,5,63,98,2361617832
10417,18,Jits_Linear_8,3,5,80,127,2361628028
10417,18,Jits_Linear_8,0,5,56,103,2362007816
10417,18,Jits_Linear_8,1,5,63,98,2362058092
10417,18,Jits_Linear_8,2,5,80,127,2362087720
10417,18,Jits_Linear_8,3,1,48,39,2362100424
10417,18,Jits_Linear_8,0,5,63,98,2362597808
10417,18,Jits_Linear_8,1,5,80,127,2362608004
10417,18,Jits_Linear_8,2,1,48,29,2362611800
10417,18,Jits_Linear_8,3,5,56,103,2362668388
10417,18,Jits_Linear_8,0,5,63,98,2363017668
10417,18,Jits_Linear_8,1,5,80,127,2363077984
10417,18,Jits_Linear_8,2,1,48,34,2363111316
10417,18,Jits_Linear_8,3,5,56,103,2363117864
10417,18,Jits_Linear_8,0,1,48,46,2363603612
10417,18,Jits_Linear_8,1,5,56,103,2363617832
10417,18,Jits_Linear_8,2,5,80,127,2363638144
10417,18,Jits_Linear_8,3,5,63,98,2363657704
10417,18,Jits_Linear_8,0,5,63,98,2364037632
10417,18,Jits_Linear_8,1,5,56,103,2364058092
10417,18,Jits_Linear_8,2,5,80,127,2364097808
10417,18,Jits_Linear_8,3,1,48,37,2364150764
10417,18,Jits_Linear_8,0,5,63,98,2364547572
10417,18,Jits_Linear_8,1,5,80,127,2364578220
10417,18,Jits_Linear_8,2,5,56,103,2364597560
10417,18,Jits_Linear_8,3,1,48,34,2364709776
10417,18,Jits_Linear_8,0,5,80,127,2365017580
10417,18,Jits_Linear_8,1,5,56,103,2365067932
10417,18,Jits_Linear_8,2,5,63,98,2365128100
10417,18,Jits_Linear_8,3,1,48,23,2365224652
10417,18,Jits_Linear_8,0,5,63,98,2365497868
10417,18,Jits_Linear_8,1,5,56,103,2365617672
10417,18,Jits_Linear_8,2,5,80,127,2365648172
10417,18,Jits_Linear_8,3,1,48,37,2365751772
10417,18,Jits_Linear_8,0,5,80,127,2366028192
10417,18,Jits_Linear_8,1,5,63,98,2366047680
10417,18,Jits_Linear_8,2,5,56,103,2366118256
10417,18,Jits_Linear_8,0,1,48,35,2366354252
10417,18,Jits_Linear_8,1,5,63,98,2366538012
10417,18,Jits_Linear_8,2,5,56,103,2366548508
10417,18,Jits_Linear_8,3,5,80,127,2366628152
10417,18,Jits_Linear_8,0,1,48,36,2366892748
10417,18,Jits_Linear_8,1,5,56,103,2367088044
10417,18,Jits_Linear_8,2,5,80,127,2367117644
10417,18,Jits_Linear_8,3,5,63,98,2367127988
10417,18,Jits_Linear_8,0,9999,9999,9999,2256685136
10417,18,Jits_Linear_8,1,9999,9999,9999,2257505368
10417,18,Jits_Linear_8,2,9999,9999,9999,2258325624
10417,18,Jits_Linear_8,3,9999,9999,9999,2259145804
10417,18,Jits_Linear_8,4,9999,9999,9999,2259966056
10417,18,Jits_Linear_8,5,9999,9999,9999,2260776004
10417,18,Jits_Linear_8,6,9999,9999,9999,2261586016
10417,18,Jits_Linear_8,7,9999,9999,9999,2262395960
10417,18,Jits_Linear_8,8,9999,9999,9999,2263205984
10417,18,Jits_Linear_8,9,9999,9999,9999,2264015988
10417,18,Jits_Linear_8,10,9999,9999,9999,2264815700
10417,18,Jits_Linear_8,11,9999,9999,9999,2265615456
10417,18,Jits_Linear_8,12,9999,9999,9999,2266415192
10417,18,Jits_Linear_8,13,9999,9999,9999,2267215984
10417,18,Jits_Linear_8,14,9999,9999,9999,2268015724
10417,18,Jits_Linear_8,15,9999,9999,9999,2268805212
10417,18,Jits_Linear_8,16,9999,9999,9999,2269595736
10417,18,Jits_Linear_8,17,9999,9999,9999,2270385232
10417,18,Jits_Linear_8,18,9999,9999,9999,2271175772
10417,18,Jits_Linear_8,19,9999,9999,9999,2271965296
10417,18,Jits_Linear_8,20,9999,9999,9999,2272745568
10417,18,Jits_Linear_8,21,9999,9999,9999,2273525840
10417,18,Jits_Linear_8,22,9999,9999,9999,2274305148
10417,18,Jits_Linear_8,23,9999,9999,9999,2275085420
10417,18,Jits_Linear_8,24,9999,9999,9999,2275865692
10417,18,Jits_Linear_8,25,9999,9999,9999,2276635700
10417,18,Jits_Linear_8,26,9999,9999,9999,2277405792
10417,18,Jits_Linear_8,27,9999,9999,9999,2278175800
10417,18,Jits_Linear_8,28,9999,9999,9999,2278945888
10417,18,Jits_Linear_8,29,9999,9999,9999,2279715904
10417,18,Jits_Linear_8,30,9999,9999,9999,2280475724
10417,18,Jits_Linear_8,31,9999,9999,9999,2281235544
10417,18,Jits_Linear_8,32,9999,9999,9999,2281995364
10417,18,Jits_Linear_8,33,9999,9999,9999,2282755180
10417,18,Jits_Linear_8,34,9999,9999,9999,2283515976
10417,18,Jits_Linear_8,35,9999,9999,9999,2284265544
10417,18,Jits_Linear_8,36,9999,9999,9999,2285015160
10417,18,Jits_Linear_8,37,9999,9999,9999,2285765688
10417,18,Jits_Linear_8,38,9999,9999,9999,2286515260
10417,18,Jits_Linear_8,39,9999,9999,9999,2287265880
10417,18,Jits_Linear_8,40,9999,9999,9999,2288005180
10417,18,Jits_Linear_8,41,9999,9999,9999,2288745540
10417,18,Jits_Linear_8,42,9999,9999,9999,2289485876
10417,18,Jits_Linear_8,43,9999,9999,9999,2290225236
10417,18,Jits_Linear_8,44,9999,9999,9999,2290965564
10417,18,Jits_Linear_8,45,9999,9999,9999,2291695724
10417,18,Jits_Linear_8,46,9999,9999,9999,2292425792
10417,18,Jits_Linear_8,47,9999,9999,9999,2293155956
10417,18,Jits_Linear_8,48,9999,9999,9999,2293886052
10417,18,Jits_Linear_8,49,9999,9999,9999,2294615096
10417,18,Jits_Linear_8,50,9999,9999,9999,2295336032
10417,18,Jits_Linear_8,51,9999,9999,9999,2296055920
10417,18,Jits_Linear_8,52,9999,9999,9999,2296775792
10417,18,Jits_Linear_8,53,9999,9999,9999,2297495616
10417,18,Jits_Linear_8,54,9999,9999,9999,2298215500
10417,18,Jits_Linear_8,55,9999,9999,9999,2298925144
10417,18,Jits_Linear_8,56,9999,9999,9999,2299635812
10417,18,Jits_Linear_8,57,9999,9999,9999,2300345420
10417,18,Jits_Linear_8,58,9999,9999,9999,2301056096
10417,18,Jits_Linear_8,59,9999,9999,9999,2301775984
10417,18,Jits_Linear_8,60,9999,9999,9999,2302475348
10417,18,Jits_Linear_8,61,9999,9999,9999,2303175740
10417,18,Jits_Linear_8,62,9999,9999,9999,2303875176
10417,18,Jits_Linear_8,63,9999,9999,9999,2304575580
10417,18,Jits_Linear_8,64,9999,9999,9999,2305275996
10417,18,Jits_Linear_8,65,9999,9999,9999,2305965152
10417,18,Jits_Linear_8,66,9999,9999,9999,2306655304
10417,18,Jits_Linear_8,67,9999,9999,9999,2307345536
10417,18,Jits_Linear_8,68,9999,9999,9999,2308035644
10417,18,Jits_Linear_8,69,9999,9999,9999,2308725880
10417,18,Jits_Linear_8,70,9999,9999,9999,2309405776
10417,18,Jits_Linear_8,71,9999,9999,9999,2310085716
10417,18,Jits_Linear_8,72,9999,9999,9999,2310765672
10417,18,Jits_Linear_8,73,9999,9999,9999,2311445572
10417,18,Jits_Linear_8,74,9999,9999,9999,2312125512
10417,18,Jits_Linear_8,75,9999,9999,9999,2312795212
10417,18,Jits_Linear_8,76,9999,9999,9999,2313465964
10417,18,Jits_Linear_8,77,9999,9999,9999,2314135652
10417,18,Jits_Linear_8,78,9999,9999,9999,2314805316
10417,18,Jits_Linear_8,79,9999,9999,9999,2315476044
10417,18,Jits_Linear_8,80,9999,9999,9999,2316135548
10417,18,Jits_Linear_8,81,9999,9999,9999,2316795996
10417,18,Jits_Linear_8,82,9999,9999,9999,2317455480
10417,18,Jits_Linear_8,83,9999,9999,9999,2318115952
10417,18,Jits_Linear_8,84,9999,9999,9999,2318775352
10417,18,Jits_Linear_8,85,9999,9999,9999,2319425648
10417,18,Jits_Linear_8,86,9999,9999,9999,2320075840
10417,18,Jits_Linear_8,87,9999,9999,9999,2320726128
10417,18,Jits_Linear_8,88,9999,9999,9999,2321385552
10417,18,Jits_Linear_8,89,9999,9999,9999,2322035824
10417,18,Jits_Linear_8,90,9999,9999,9999,2322675784
10417,18,Jits_Linear_8,91,9999,9999,9999,2323315780
10417,18,Jits_Linear_8,92,9999,9999,9999,2323955828
10417,18,Jits_Linear_8,93,9999,9999,9999,2324595824
10417,18,Jits_Linear_8,94,9999,9999,9999,2325235776
10417,18,Jits_Linear_8,95,9999,9999,9999,2325865528
10417,18,Jits_Linear_8,96,9999,9999,9999,2326495304
10417,18,Jits_Linear_8,97,9999,9999,9999,2327126092
10417,18,Jits_Linear_8,98,9999,9999,9999,2327766108
10417,18,Jits_Linear_8,99,9999,9999,9999,2328406076
10417,18,Jits_Linear_8,100,9999,9999,9999,2329035832
10417,18,Jits_Linear_8,101,9999,9999,9999,2329655388
10417,18,Jits_Linear_8,102,9999,9999,9999,2330275940
10417,18,Jits_Linear_8,103,9999,9999,9999,2330895448
10417,18,Jits_Linear_8,104,9999,9999,9999,2331515968
10417,18,Jits_Linear_8,105,9999,9999,9999,2332125288
10417,18,Jits_Linear_8,106,9999,9999,9999,2332735612
10417,18,Jits_Linear_8,107,9999,9999,9999,2333345852
10417,18,Jits_Linear_8,108,9999,9999,9999,2333955168
10417,18,Jits_Linear_8,109,9999,9999,9999,2334565500
10417,18,Jits_Linear_8,110,9999,9999,9999,2335165512
10417,18,Jits_Linear_8,111,9999,9999,9999,2335765604
10417,18,Jits_Linear_8,112,9999,9999,9999,2336365684
10417,18,Jits_Linear_8,113,9999,9999,9999,2336965700
10417,18,Jits_Linear_8,114,9999,9999,9999,2337565804
10417,18,Jits_Linear_8,115,9999,9999,9999,2338155608
10417,18,Jits_Linear_8,116,9999,9999,9999,2338745432
10417,18,Jits_Linear_8,117,9999,9999,9999,2339335288
10417,18,Jits_Linear_8,118,9999,9999,9999,2339926076
10417,18,Jits_Linear_8,119,9999,9999,9999,2340525108
10417,18,Jits_Linear_8,120,9999,9999,9999,2341105736
10417,18,Jits_Linear_8,121,9999,9999,9999,2341685356
10417,18,Jits_Linear_8,122,9999,9999,9999,2342265936
10417,18,Jits_Linear_8,123,9999,9999,9999,2342845552
10417,18,Jits_Linear_8,124,9999,9999,9999,2343425128
10417,18,Jits_Linear_8,125,9999,9999,9999,2343995444
10417,18,Jits_Linear_8,126,9999,9999,9999,2344565840
10417,18,Jits_Linear_8,127,9999,9999,9999,2345135204
10417,18,Jits_Linear_8,128,9999,9999,9999,2345705560
10417,18,Jits_Linear_8,129,9999,9999,9999,2346275964
10417,18,Jits_Linear_8,130,9999,9999,9999,2346836052
10417,18,Jits_Linear_8,131,9999,9999,9999,2347395156
10417,18,Jits_Linear_8,132,9999,9999,9999,2347955304
10417,18,Jits_Linear_8,133,9999,9999,9999,2348515416
10417,18,Jits_Linear_8,134,9999,9999,9999,2349075568
10417,18,Jits_Linear_8,135,9999,9999,9999,2349625436
10417,18,Jits_Linear_8,136,9999,9999,9999,2350175312
10417,18,Jits_Linear_8,137,9999,9999,9999,2350725204
10417,18,Jits_Linear_8,138,9999,9999,9999,2351275096
10417,18,Jits_Linear_8,139,9999,9999,9999,2351826032
10417,18,Jits_Linear_8,140,9999,9999,9999,2352365664
10417,18,Jits_Linear_8,141,9999,9999,9999,2352905276
10417,18,Jits_Linear_8,142,9999,9999,9999,2353446004
10417,18,Jits_Linear_8,143,9999,9999,9999,2353985612
10417,18,Jits_Linear_8,144,9999,9999,9999,2354525296
10417,18,Jits_Linear_8,145,9999,9999,9999,2355055696
10417,18,Jits_Linear_8,146,9999,9999,9999,2355585124
10417,18,Jits_Linear_8,147,9999,9999,9999,2356115512
10417,18,Jits_Linear_8,148,9999,9999,9999,2356645972
10417,18,Jits_Linear_8,149,9999,9999,9999,2357175368
10417,18,Jits_Linear_8,150,9999,9999,9999,2357695576
10417,18,Jits_Linear_8,151,9999,9999,9999,2358215776
10417,18,Jits_Linear_8,152,9999,9999,9999,2358735984
10417,18,Jits_Linear_8,153,9999,9999,9999,2359255144
10417,18,Jits_Linear_8,154,9999,9999,9999,2359775288
10417,18,Jits_Linear_8,155,9999,9999,9999,2360285308
10417,18,Jits_Linear_8,156,9999,9999,9999,2360795256
10417,18,Jits_Linear_8,157,9999,9999,9999,2361305192
10417,18,Jits_Linear_8,158,9999,9999,9999,2361815116
10417,18,Jits_Linear_8,159,9999,9999,9999,2362326112
10417,18,Jits_Linear_8,160,9999,9999,9999,2362836072
10417,18,Jits_Linear_8,161,9999,9999,9999,2363335740
10417,18,Jits_Linear_8,162,9999,9999,9999,2363835504
10417,18,Jits_Linear_8,163,9999,9999,9999,2364335180
10417,18,Jits_Linear_8,164,9999,9999,9999,2364835904
10417,18,Jits_Linear_8,165,9999,9999,9999,2365325392
10417,18,Jits_Linear_8,166,9999,9999,9999,2365815888
10417,18,Jits_Linear_8,167,9999,9999,9999,2366305384
10417,18,Jits_Linear_8,168,9999,9999,9999,2366795872
10417,18,Jits_Linear_8,169,9999,9999,9999,2367285376
10418,16,Jits_ISO_5,0,5,56,103,2375300664
10418,16,Jits_ISO_5,1,5,63,98,2375303912
10418,16,Jits_ISO_5,2,5,80,127,2375307032
10418,16,Jits_ISO_5,0,5,56,103,2375801212
10418,16,Jits_ISO_5,1,5,63,98,2375804304
10418,16,Jits_ISO_5,2,5,80,127,2375807580
10418,16,Jits_ISO_5,0,5,56,103,2376301020
10418,16,Jits_ISO_5,1,5,80,127,2376311144
10418,16,Jits_ISO_5,2,5,63,98,2376330704
10418,16,Jits_ISO_5,0,5,63,98,2376750640
10418,16,Jits_ISO_5,1,5,80,127,2376781288
10418,16,Jits_ISO_5,2,5,56,103,2376791484
10418,16,Jits_ISO_5,0,1,48,43,2377274448
10418,16,Jits_ISO_5,1,5,80,127,2377310516
10418,16,Jits_ISO_5,2,5,56,103,2377320932
10418,16,Jits_ISO_5,3,5,63,98,2377350684
10418,16,Jits_ISO_5,0,5,63,98,2377801044
10418,16,Jits_ISO_5,1,1,48,44,2377822668
10418,16,Jits_ISO_5,2,5,56,103,2377830640
10418,16,Jits_ISO_5,3,5,80,127,2377841132
10418,16,Jits_ISO_5,0,5,56,103,2378250732
10418,16,Jits_ISO_5,1,5,63,98,2378300936
10418,16,Jits_ISO_5,2,5,80,127,2378321172
10418,16,Jits_ISO_5,3,1,48,43,2378332236
10418,16,Jits_ISO_5,0,5,80,127,2378751680
10418,16,Jits_ISO_5,1,1,48,42,2378767828
10418,16,Jits_ISO_5,2,5,63,98,2378800676
10418,16,Jits_ISO_5,3,5,56,103,2378840688
10418,16,Jits_ISO_5,0,5,56,103,2379250984
10418,16,Jits_ISO_5,1,5,63,98,2379280808
10418,16,Jits_ISO_5,2,1,48,25,2379287740
10418,16,Jits_ISO_5,3,5,80,127,2379351600
10418,16,Jits_ISO_5,0,5,56,103,2379750732
10418,16,Jits_ISO_5,1,1,48,44,2379751700
10418,16,Jits_ISO_5,2,5,80,127,2379811116
10418,16,Jits_ISO_5,3,5,63,98,2379840864
10418,16,Jits_ISO_5,0,5,56,103,2380260820
10418,16,Jits_ISO_5,1,1,48,38,2380262308
10418,16,Jits_ISO_5,2,5,63,98,2380270936
10418,16,Jits_ISO_5,3,5,80,127,2380311020
10418,16,Jits_ISO_5,0,5,63,98,2380751104
10418,16,Jits_ISO_5,1,1,48,41,2380768568
10418,16,Jits_ISO_5,2,5,80,127,2380831144
10418,16,Jits_ISO_5,3,5,56,103,2380841412
10418,16,Jits_ISO_5,0,1,48,46,2381296904
10418,16,Jits_ISO_5,1,5,63,98,2381301132
10418,16,Jits_ISO_5,2,5,56,103,2381340992
10418,16,Jits_ISO_5,3,5,80,127,2381343984
10418,16,Jits_ISO_5,0,5,56,103,2381760836
10418,16,Jits_ISO_5,1,5,63,98,2381771104
10418,16,Jits_ISO_5,2,1,48,47,2381793728
10418,16,Jits_ISO_5,3,5,80,127,2381810984
10418,16,Jits_ISO_5,0,5,56,103,2382251584
10418,16,Jits_ISO_5,1,5,63,98,2382254652
10418,16,Jits_ISO_5,2,5,80,127,2382270772
10418,16,Jits_ISO_5,3,1,48,44,2382313620
10418,16,Jits_ISO_5,0,5,80,127,2382761500
10418,16,Jits_ISO_5,1,5,56,103,2382770724
10418,16,Jits_ISO_5,2,1,48,37,2382817392
10418,16,Jits_ISO_5,3,5,63,98,2382841096
10418,16,Jits_ISO_5,0,5,63,98,2383250836
10418,16,Jits_ISO_5,1,5,56,103,2383271220
10418,16,Jits_ISO_5,2,1,48,53,2383294264
10418,16,Jits_ISO_5,3,5,80,127,2383351180
10418,16,Jits_ISO_5,0,5,56,103,2383760684
10418,16,Jits_ISO_5,1,1,48,52,2383790556
10418,16,Jits_ISO_5,2,5,80,127,2383800692
10418,16,Jits_ISO_5,3,5,63,98,2383810888
10418,16,Jits_ISO_5,0,5,80,127,2384251216
10418,16,Jits_ISO_5,1,1,48,47,2384280288
10418,16,Jits_ISO_5,2,5,63,98,2384281708
10418,16,Jits_ISO_5,3,5,56,103,2384320744
10418,16,Jits_ISO_5,0,5,56,103,2384770516
10418,16,Jits_ISO_5,1,1,48,46,2384779784
10418,16,Jits_ISO_5,2,5,63,98,2384801232
10418,16,Jits_ISO_5,3,5,80,127,2384851356
10418,16,Jits_ISO_5,0,1,48,51,2385267752
10418,16,Jits_ISO_5,1,5,80,127,2385271080
10418,16,Jits_ISO_5,2,5,56,103,2385311020
10418,16,Jits_ISO_5,3,5,63,98,2385321584
10418,16,Jits_ISO_5,0,5,80,127,2385751640
10418,16,Jits_ISO_5,1,5,63,98,2385791428
10418,16,Jits_ISO_5,2,1,48,34,2385826384
10418,16,Jits_ISO_5,3,5,56,103,2385850840
10418,16,Jits_ISO_5,0,5,56,103,2386251092
10418,16,Jits_ISO_5,1,5,80,127,2386261588
10418,16,Jits_ISO_5,2,1,48,43,2386301048
10418,16,Jits_ISO_5,3,5,63,98,2386341224
10418,16,Jits_ISO_5,0,5,80,127,2386750764
10418,16,Jits_ISO_5,1,5,63,98,2386811376
10418,16,Jits_ISO_5,2,1,48,39,2386815020
10418,16,Jits_ISO_5,3,5,56,103,2386840896
10418,16,Jits_ISO_5,0,5,56,103,2387250812
10418,16,Jits_ISO_5,1,5,80,127,2387310980
10418,16,Jits_ISO_5,2,1,48,43,2387326232
10418,16,Jits_ISO_5,3,5,63,98,2387350836
10418,16,Jits_ISO_5,0,5,56,103,2387800684
10418,16,Jits_ISO_5,1,1,48,48,2387803052
10418,16,Jits_ISO_5,2,5,63,98,2387810796
10418,16,Jits_ISO_5,3,5,80,127,2387814084
10418,16,Jits_ISO_5,0,5,80,127,2388250900
10418,16,Jits_ISO_5,1,1,48,47,2388327132
10418,16,Jits_ISO_5,2,5,63,98,2388341104
10418,16,Jits_ISO_5,3,5,56,103,2388351448
10418,16,Jits_ISO_5,0,5,56,103,2388750712
10418,16,Jits_ISO_5,1,5,63,98,2388753884
10418,16,Jits_ISO_5,2,5,80,127,2388756928
10418,16,Jits_ISO_5,3,1,48,54,2388823508
10418,16,Jits_ISO_5,0,5,80,127,2389270828
10418,16,Jits_ISO_5,1,5,63,98,2389321176
10418,16,Jits_ISO_5,2,1,48,48,2389339060
10418,16,Jits_ISO_5,3,5,56,103,2389350624
10418,16,Jits_ISO_5,0,5,56,103,2389751172
10418,16,Jits_ISO_5,1,5,80,127,2389761740
10418,16,Jits_ISO_5,2,1,48,50,2389825912
10418,16,Jits_ISO_5,3,5,63,98,2389830964
10418,16,Jits_ISO_5,0,5,56,103,2390261036
10418,16,Jits_ISO_5,1,5,63,98,2390280596
10418,16,Jits_ISO_5,2,5,80,127,2390340836
10418,16,Jits_ISO_5,3,1,48,42,2390349880
10418,16,Jits_ISO_5,0,5,80,127,2390750596
10418,16,Jits_ISO_5,1,1,48,49,2390798672
10418,16,Jits_ISO_5,2,5,63,98,2390821164
10418,16,Jits_ISO_5,3,5,56,103,2390840652
10418,16,Jits_ISO_5,0,5,80,127,2391270876
10418,16,Jits_ISO_5,1,5,56,103,2391281220
10418,16,Jits_ISO_5,2,5,63,98,2391291340
10418,16,Jits_ISO_5,3,1,48,31,2391332516
10418,16,Jits_ISO_5,0,5,80,127,2391761452
10418,16,Jits_ISO_5,1,5,56,103,2391780668
10418,16,Jits_ISO_5,2,1,48,47,2391808888
10418,16,Jits_ISO_5,3,5,63,98,2391851384
10418,16,Jits_ISO_5,0,5,56,103,2392271464
10418,16,Jits_ISO_5,1,5,80,127,2392300944
10418,16,Jits_ISO_5,2,5,63,98,2392321324
10418,16,Jits_ISO_5,3,1,48,49,2392330816
10418,16,Jits_ISO_5,0,5,63,98,2392760652
10418,16,Jits_ISO_5,1,5,56,103,2392821216
10418,16,Jits_ISO_5,2,1,48,50,2392827028
10418,16,Jits_ISO_5,3,5,80,127,2392850732
10418,16,Jits_ISO_5,0,5,63,98,2393251316
10418,16,Jits_ISO_5,1,5,80,127,2393254604
10418,16,Jits_ISO_5,2,1,48,49,2393329908
10418,16,Jits_ISO_5,3,5,56,103,2393341460
10418,16,Jits_ISO_5,0,5,56,103,2393771568
10418,16,Jits_ISO_5,1,5,63,98,2393801168
10418,16,Jits_ISO_5,2,5,80,127,2393840908
10418,16,Jits_ISO_5,3,1,48,52,2393841872
10418,16,Jits_ISO_5,0,5,63,98,2394270944
10418,16,Jits_ISO_5,1,5,56,103,2394310884
10418,16,Jits_ISO_5,2,5,80,127,2394330468
10418,16,Jits_ISO_5,3,1,48,54,2394362724
10418,16,Jits_ISO_5,0,5,63,98,2394780940
10418,16,Jits_ISO_5,1,5,56,103,2394820956
10418,16,Jits_ISO_5,2,5,80,127,2394831448
10418,16,Jits_ISO_5,3,1,48,33,2394921416
10418,16,Jits_ISO_5,0,5,80,127,2395261348
10418,16,Jits_ISO_5,1,5,63,98,2395330804
10418,16,Jits_ISO_5,2,5,56,103,2395351488
10418,16,Jits_ISO_5,3,1,48,45,2395472464
10418,16,Jits_ISO_5,0,5,56,103,2395750760
10418,16,Jits_ISO_5,1,5,80,127,2395771516
10418,16,Jits_ISO_5,2,5,63,98,2395811380
10418,16,Jits_ISO_5,3,1,48,55,2395965988
10418,16,Jits_ISO_5,0,5,63,98,2396260844
10418,16,Jits_ISO_5,1,5,80,127,2396281524
10418,16,Jits_ISO_5,2,5,56,103,2396321088
10418,16,Jits_ISO_5,3,1,48,52,2396505216
10418,16,Jits_ISO_5,0,5,63,98,2396760576
10418,16,Jits_ISO_5,1,5,56,103,2396780960
10418,16,Jits_ISO_5,2,5,80,127,2396791232
10418,16,Jits_ISO_5,3,1,48,52,2397045392
10418,16,Jits_ISO_5,0,5,80,127,2397261132
10418,16,Jits_ISO_5,1,5,56,103,2397280692
10418,16,Jits_ISO_5,2,5,63,98,2397311336
10418,16,Jits_ISO_5,0,1,48,56,2397560552
10418,16,Jits_ISO_5,1,5,56,103,2397830448
10418,16,Jits_ISO_5,2,5,80,127,2397833664
10418,16,Jits_ISO_5,3,5,63,98,2397850980
10418,16,Jits_ISO_5,0,1,48,40,2398111752
10418,16,Jits_ISO_5,1,5,63,98,2398251360
10418,16,Jits_ISO_5,2,5,56,103,2398281184
10418,16,Jits_ISO_5,3,5,80,127,2398340452
10418,16,Jits_ISO_5,0,1,48,53,2398638912
10418,16,Jits_ISO_5,1,5,63,98,2398831040
10418,16,Jits_ISO_5,2,5,56,103,2398841384
10418,16,Jits_ISO_5,3,5,80,127,2398850384
10418,16,Jits_ISO_5,0,1,48,40,2399177520
10418,16,Jits_ISO_5,1,5,56,103,2399280508
10418,16,Jits_ISO_5,2,5,80,127,2399311156
10418,16,Jits_ISO_5,3,5,63,98,2399320600
10418,16,Jits_ISO_5,0,1,48,49,2399745536
10418,16,Jits_ISO_5,1,5,63,98,2399821312
10418,16,Jits_ISO_5,2,5,56,103,2399831436
10418,16,Jits_ISO_5,3,5,80,127,2399850832
10418,16,Jits_ISO_5,0,5,56,103,2400251384
10418,16,Jits_ISO_5,1,1,48,47,2400270840
10418,16,Jits_ISO_5,2,5,63,98,2400310568
10418,16,Jits_ISO_5,3,5,80,127,2400313932
10418,16,Jits_ISO_5,0,5,80,127,2400770748
10418,16,Jits_ISO_5,1,5,56,103,2400780572
10418,16,Jits_ISO_5,2,1,48,44,2400797392
10418,16,Jits_ISO_5,3,5,63,98,2400851588
10418,16,Jits_ISO_5,0,5,80,127,2401260836
10418,16,Jits_ISO_5,1,5,56,103,2401330516
10418,16,Jits_ISO_5,2,1,48,45,2401336552
10418,16,Jits_ISO_5,3,5,63,98,2401340780
10418,16,Jits_ISO_5,0,5,63,98,2401800444
10418,16,Jits_ISO_5,1,5,56,103,2401810712
10418,16,Jits_ISO_5,2,5,80,127,2401831468
10418,16,Jits_ISO_5,3,1,48,45,2401851524
10418,16,Jits_ISO_5,0,5,80,127,2402251080
10418,16,Jits_ISO_5,1,5,63,98,2402310372
10418,16,Jits_ISO_5,2,1,48,51,2402338280
10418,16,Jits_ISO_5,3,5,56,103,2402350376
10418,16,Jits_ISO_5,0,5,56,103,2402790784
10418,16,Jits_ISO_5,1,5,63,98,2402801056
10418,16,Jits_ISO_5,2,5,80,127,2402841064
10418,16,Jits_ISO_5,3,1,48,45,2402863660
10418,16,Jits_ISO_5,0,5,56,103,2403250652
10418,16,Jits_ISO_5,1,5,80,127,2403281448
10418,16,Jits_ISO_5,2,5,63,98,2403330552
10418,16,Jits_ISO_5,3,1,48,43,2403342588
10418,16,Jits_ISO_5,0,5,56,103,2403791452
10418,16,Jits_ISO_5,1,5,63,98,2403831268
10418,16,Jits_ISO_5,2,5,80,127,2403834480
10418,16,Jits_ISO_5,3,1,48,44,2403851396
10418,16,Jits_ISO_5,0,5,56,103,2404290964
10418,16,Jits_ISO_5,1,5,63,98,2404301532
10418,16,Jits_ISO_5,2,5,80,127,2404321044
10418,16,Jits_ISO_5,3,1,48,42,2404393232
10418,16,Jits_ISO_5,0,5,56,103,2404750632
10418,16,Jits_ISO_5,1,5,80,127,2404753772
10418,16,Jits_ISO_5,2,5,63,98,2404790644
10418,16,Jits_ISO_5,3,1,48,49,2404906000
10418,16,Jits_ISO_5,0,5,63,98,2405291572
10418,16,Jits_ISO_5,1,5,56,103,2405321172
10418,16,Jits_ISO_5,2,5,80,127,2405340608
10418,16,Jits_ISO_5,3,1,48,49,2405423804
10418,16,Jits_ISO_5,0,5,80,127,2405761344
10418,16,Jits_ISO_5,1,5,56,103,2405770640
10418,16,Jits_ISO_5,2,5,63,98,2405780836
10418,16,Jits_ISO_5,3,1,48,48,2405946228
10418,16,Jits_ISO_5,0,5,56,103,2406261236
10418,16,Jits_ISO_5,1,5,80,127,2406301324
10418,16,Jits_ISO_5,2,5,63,98,2406330700
10418,16,Jits_ISO_5,3,1,48,52,2406474296
10418,16,Jits_ISO_5,0,5,63,98,2406771176
10418,16,Jits_ISO_5,1,5,80,127,2406781372
10418,16,Jits_ISO_5,2,5,56,103,2406790444
10418,16,Jits_ISO_5,3,1,48,54,2407027524
10418,16,Jits_ISO_5,0,5,56,103,2407251428
10418,16,Jits_ISO_5,1,5,63,98,2407320884
10418,16,Jits_ISO_5,2,5,80,127,2407331376
10418,16,Jits_ISO_5,0,1,48,44,2407576912
10418,16,Jits_ISO_5,1,5,80,127,2407751144
10418,16,Jits_ISO_5,2,5,56,103,2407761416
10418,16,Jits_ISO_5,3,5,63,98,2407810344
10418,16,Jits_ISO_5,0,1,48,46,2408124148
10418,16,Jits_ISO_5,1,5,80,127,2408260916
10418,16,Jits_ISO_5,2,5,56,103,2408321380
10418,16,Jits_ISO_5,3,5,63,98,2408351056
10418,16,Jits_ISO_5,0,1,48,42,2408677620
10418,16,Jits_ISO_5,1,5,56,103,2408760584
10418,16,Jits_ISO_5,2,5,80,127,2408763656
10418,16,Jits_ISO_5,3,5,63,98,2408800512
10418,16,Jits_ISO_5,0,1,48,51,2409222300
10418,16,Jits_ISO_5,1,5,56,103,2409291400
10418,16,Jits_ISO_5,2,5,63,98,2409320760
10418,16,Jits_ISO_5,3,5,80,127,2409331032
10418,16,Jits_ISO_5,0,1,48,51,2409781676
10418,16,Jits_ISO_5,1,5,63,98,2409801328
10418,16,Jits_ISO_5,2,5,80,127,2409811448
10418,16,Jits_ISO_5,3,5,56,103,2409820672
10418,16,Jits_ISO_5,0,5,80,127,2410250576
10418,16,Jits_ISO_5,1,5,56,103,2410300776
10418,16,Jits_ISO_5,2,5,63,98,2410303916
10418,16,Jits_ISO_5,3,1,48,51,2410316696
10418,16,Jits_ISO_5,0,5,56,103,2410781028
10418,16,Jits_ISO_5,1,5,80,127,2410800440
10418,16,Jits_ISO_5,2,5,63,98,2410810712
10418,16,Jits_ISO_5,3,1,48,54,2410812576
10418,16,Jits_ISO_5,0,5,63,98,2411261372
10418,16,Jits_ISO_5,1,5,56,103,2411291124
10418,16,Jits_ISO_5,2,5,80,127,2411310460
10418,16,Jits_ISO_5,3,1,48,52,2411360332
10418,16,Jits_ISO_5,0,5,56,103,2411771444
10418,16,Jits_ISO_5,1,5,80,127,2411780448
10418,16,Jits_ISO_5,2,5,63,98,2411851320
10418,16,Jits_ISO_5,3,1,48,54,2411888440
10418,16,Jits_ISO_5,0,5,63,98,2412260708
10418,16,Jits_ISO_5,1,5,80,127,2412300648
10418,16,Jits_ISO_5,2,5,56,103,2412340508
10418,16,Jits_ISO_5,3,1,48,39,2412407664
10418,16,Jits_ISO_5,0,5,56,103,2412770632
10418,16,Jits_ISO_5,1,5,63,98,2412780900
10418,16,Jits_ISO_5,2,5,80,127,2412801360
10418,16,Jits_ISO_5,3,1,48,27,2412923732
10418,16,Jits_ISO_5,0,5,63,98,2413311428
10418,16,Jits_ISO_5,1,5,80,127,2413330696
10418,16,Jits_ISO_5,2,5,56,103,2413351376
10418,16,Jits_ISO_5,3,1,48,53,2413441988
10418,16,Jits_ISO_5,0,5,56,103,2413750760
10418,16,Jits_ISO_5,1,5,80,127,2413830580
10418,16,Jits_ISO_5,2,5,63,98,2413840628
10418,16,Jits_ISO_5,3,1,48,45,2413987264
10418,16,Jits_ISO_5,0,5,80,127,2414291340
10418,16,Jits_ISO_5,1,5,63,98,2414300588
10418,16,Jits_ISO_5,2,5,56,103,2414331312
10418,16,Jits_ISO_5,3,1,48,48,2414521256
10418,16,Jits_ISO_5,0,5,63,98,2414751300
10418,16,Jits_ISO_5,1,5,80,127,2414791016
10418,16,Jits_ISO_5,2,5,56,103,2414850380
10418,16,Jits_ISO_5,3,1,48,52,2415046012
10418,16,Jits_ISO_5,0,5,63,98,2415261000
10418,16,Jits_ISO_5,1,5,56,103,2415311424
10418,16,Jits_ISO_5,2,5,80,127,2415340828
10418,16,Jits_ISO_5,0,1,48,48,2415632728
10418,16,Jits_ISO_5,1,5,80,127,2415770968
10418,16,Jits_ISO_5,2,5,63,98,2415781312
10418,16,Jits_ISO_5,3,5,56,103,2415850940
10418,16,Jits_ISO_5,0,1,48,52,2416179372
10418,16,Jits_ISO_5,1,5,80,127,2416341352
10418,16,Jits_ISO_5,2,5,56,103,2416350492
10418,16,Jits_ISO_5,3,5,63,98,2416353564
10418,16,Jits_ISO_5,0,5,56,103,2416780544
10418,16,Jits_ISO_5,1,1,48,48,2416789140
10418,16,Jits_ISO_5,2,5,80,127,2416801368
10418,16,Jits_ISO_5,3,5,63,98,2416811340
10418,16,Jits_ISO_5,0,5,63,98,2417290556
10418,16,Jits_ISO_5,1,5,56,103,2417330496
10418,16,Jits_ISO_5,2,1,48,51,2417338404
10418,16,Jits_ISO_5,3,5,80,127,2417351168
10418,16,Jits_ISO_5,0,5,63,98,2417791340
10418,16,Jits_ISO_5,1,5,56,103,2417850684
10418,16,Jits_ISO_5,2,5,80,127,2417853748
10418,16,Jits_ISO_5,3,1,48,50,2417925512
10418,16,Jits_ISO_5,0,5,56,103,2418251364
10418,16,Jits_ISO_5,1,5,80,127,2418270624
10418,16,Jits_ISO_5,2,5,63,98,2418310560
10418,16,Jits_ISO_5,3,1,48,50,2418466140
10418,16,Jits_ISO_5,0,5,56,103,2418780480
10418,16,Jits_ISO_5,1,5,63,98,2418801084
10418,16,Jits_ISO_5,2,5,80,127,2418811428
10418,16,Jits_ISO_5,0,1,48,50,2419056348
10418,16,Jits_ISO_5,1,5,80,127,2419250528
10418,16,Jits_ISO_5,2,5,56,103,2419281248
10418,16,Jits_ISO_5,3,5,63,98,2419321408
10418,16,Jits_ISO_5,0,1,48,56,2419614236
10418,16,Jits_ISO_5,1,5,80,127,2419760520
10418,16,Jits_ISO_5,2,5,56,103,2419781052
10418,16,Jits_ISO_5,3,5,63,98,2419841368
10418,16,Jits_ISO_5,0,1,48,43,2420231176
10418,16,Jits_ISO_5,1,5,56,103,2420270308
10418,16,Jits_ISO_5,2,5,80,127,2420291064
10418,16,Jits_ISO_5,3,5,63,98,2420351288
10418,16,Jits_ISO_5,0,5,80,127,2420750644
10418,16,Jits_ISO_5,1,5,56,103,2420761064
10418,16,Jits_ISO_5,2,1,48,51,2420782984
10418,16,Jits_ISO_5,3,5,63,98,2420801064
10418,16,Jits_ISO_5,0,5,63,98,2421250464
10418,16,Jits_ISO_5,1,5,56,103,2421291292
10418,16,Jits_ISO_5,2,5,80,127,2421294360
10418,16,Jits_ISO_5,3,1,48,36,2421376584
10418,16,Jits_ISO_5,0,5,63,98,2421770560
10418,16,Jits_ISO_5,1,5,80,127,2421810500
10418,16,Jits_ISO_5,2,5,56,103,2421841368
10418,16,Jits_ISO_5,3,1,48,49,2421939408
10418,16,Jits_ISO_5,0,5,56,103,2422261376
10418,16,Jits_ISO_5,1,5,63,98,2422271272
10418,16,Jits_ISO_5,2,5,80,127,2422301168
10418,16,Jits_ISO_5,3,1,48,42,2422539908
10418,16,Jits_ISO_5,0,5,80,127,2422750560
10418,16,Jits_ISO_5,1,5,63,98,2422821360
10418,16,Jits_ISO_5,2,5,56,103,2422830508
10418,16,Jits_ISO_5,0,1,48,48,2423054500
10418,16,Jits_ISO_5,1,5,63,98,2423251300
10418,16,Jits_ISO_5,2,5,56,103,2423321228
10418,16,Jits_ISO_5,3,5,80,127,2423331424
10418,16,Jits_ISO_5,0,1,48,46,2423631676
10418,16,Jits_ISO_5,1,5,63,98,2423751184
10418,16,Jits_ISO_5,2,5,56,103,2423770620
10418,16,Jits_ISO_5,3,5,80,127,2423810408
10418,16,Jits_ISO_5,0,1,48,53,2424191420
10418,16,Jits_ISO_5,1,5,56,103,2424261268
10418,16,Jits_ISO_5,2,5,63,98,2424271244
10418,16,Jits_ISO_5,3,5,80,127,2424351044
10418,16,Jits_ISO_5,0,5,63,98,2424750376
10418,16,Jits_ISO_5,1,1,48,48,2424759196
10418,16,Jits_ISO_5,2,5,56,103,2424781316
10418,16,Jits_ISO_5,3,5,80,127,2424821424
10418,16,Jits_ISO_5,0,5,56,103,2425251380
10418,16,Jits_ISO_5,1,5,63,98,2425291244
10418,16,Jits_ISO_5,2,1,48,55,2425328240
10418,16,Jits_ISO_5,3,5,80,127,2425331348
10418,16,Jits_ISO_5,0,5,80,127,2425750980
10418,16,Jits_ISO_5,1,5,56,103,2425830724
10418,16,Jits_ISO_5,2,5,63,98,2425841144
10418,16,Jits_ISO_5,3,1,48,45,2425866132
10418,16,Jits_ISO_5,0,5,56,103,2426290512
10418,16,Jits_ISO_5,1,5,63,98,2426293504
10418,16,Jits_ISO_5,2,5,80,127,2426300932
10418,16,Jits_ISO_5,3,1,48,55,2426390152
10418,16,Jits_ISO_5,0,5,56,103,2426810704
10418,16,Jits_ISO_5,1,5,63,98,2426831388
10418,16,Jits_ISO_5,2,5,80,127,2426840412
10418,16,Jits_ISO_5,3,1,48,46,2426950576
10418,16,Jits_ISO_5,0,5,63,98,2427270528
10418,16,Jits_ISO_5,1,5,80,127,2427280724
10418,16,Jits_ISO_5,2,5,56,103,2427301180
10418,16,Jits_ISO_5,0,1,48,46,2427554948
10418,16,Jits_ISO_5,1,5,63,98,2427771404
10418,16,Jits_ISO_5,2,5,56,103,2427851272
10418,16,Jits_ISO_5,3,5,80,127,2427854264
10418,16,Jits_ISO_5,0,1,48,42,2428161520
10418,16,Jits_ISO_5,1,5,63,98,2428271208
10418,16,Jits_ISO_5,2,5,56,103,2428290548
10418,16,Jits_ISO_5,3,5,80,127,2428321340
10418,16,Jits_ISO_5,0,1,48,51,2428702600
10418,16,Jits_ISO_5,1,5,56,103,2428770660
10418,16,Jits_ISO_5,2,5,63,98,2428791116
10418,16,Jits_ISO_5,3,5,80,127,2428801520
10418,16,Jits_ISO_5,0,1,48,46,2429297176
10418,16,Jits_ISO_5,1,5,56,103,2429301184
10418,16,Jits_ISO_5,2,5,63,98,2429330856
10418,16,Jits_ISO_5,3,5,80,127,2429334516
10418,16,Jits_ISO_5,0,5,56,103,2429750648
10418,16,Jits_ISO_5,1,5,63,98,2429790436
10418,16,Jits_ISO_5,2,1,48,46,2429830568
10418,16,Jits_ISO_5,3,5,80,127,2429850968
10418,16,Jits_ISO_5,0,5,56,103,2430270700
10418,16,Jits_ISO_5,1,5,63,98,2430281044
10418,16,Jits_ISO_5,2,5,80,127,2430340460
10418,16,Jits_ISO_5,3,1,48,54,2430358400
10418,16,Jits_ISO_5,0,5,56,103,2430770524
10418,16,Jits_ISO_5,1,5,80,127,2430791056
10418,16,Jits_ISO_5,2,5,63,98,2430820584
10418,16,Jits_ISO_5,3,1,48,48,2430932768
10418,16,Jits_ISO_5,0,5,80,127,2431271320
10418,16,Jits_ISO_5,1,5,56,103,2431280544
10418,16,Jits_ISO_5,2,5,63,98,2431301000
10418,16,Jits_ISO_5,3,1,48,40,2431498544
10418,16,Jits_ISO_5,0,5,63,98,2431760656
10418,16,Jits_ISO_5,1,5,80,127,2431840600
10418,16,Jits_ISO_5,2,5,56,103,2431850872
10418,16,Jits_ISO_5,0,1,48,44,2432125092
10418,16,Jits_ISO_5,1,5,80,127,2432321048
10418,16,Jits_ISO_5,2,5,56,103,2432341432
10418,16,Jits_ISO_5,3,5,63,98,2432344420
10418,16,Jits_ISO_5,0,1,48,45,2432714200
10418,16,Jits_ISO_5,1,5,63,98,2432790972
10418,16,Jits_ISO_5,2,5,80,127,2432794484
10418,16,Jits_ISO_5,3,5,56,103,2432851196
10418,16,Jits_ISO_5,0,5,56,103,2433271224
10418,16,Jits_ISO_5,1,5,80,127,2433281424
10418,16,Jits_ISO_5,2,1,48,48,2433289868
10418,16,Jits_ISO_5,3,5,63,98,2433321204
10418,16,Jits_ISO_5,0,5,56,103,2433751420
10418,16,Jits_ISO_5,1,5,63,98,2433810912
10418,16,Jits_ISO_5,2,5,80,127,2433821180
10418,16,Jits_ISO_5,3,1,48,14,2433859596
10418,16,Jits_ISO_5,0,5,63,98,2434261260
10418,16,Jits_ISO_5,1,5,80,127,2434301296
10418,16,Jits_ISO_5,2,5,56,103,2434341308
10418,16,Jits_ISO_5,3,1,48,37,2434418896
10418,16,Jits_ISO_5,0,5,56,103,2434761064
10418,16,Jits_ISO_5,1,5,63,98,2434841180
10418,16,Jits_ISO_5,2,5,80,127,2434844320
10418,16,Jits_ISO_5,3,1,48,42,2434961384
10418,16,Jits_ISO_5,0,9999,9999,9999,2375548992
10418,16,Jits_ISO_5,1,9999,9999,9999,2376048712
10418,16,Jits_ISO_5,2,9999,9999,9999,2376548456
10418,16,Jits_ISO_5,3,9999,9999,9999,2377048116
10418,16,Jits_ISO_5,4,9999,9999,9999,2377548868
10418,16,Jits_ISO_5,5,9999,9999,9999,2378048604
10418,16,Jits_ISO_5,6,9999,9999,9999,2378548340
10418,16,Jits_ISO_5,7,9999,9999,9999,2379049064
10418,16,Jits_ISO_5,8,9999,9999,9999,2379548736
10418,16,Jits_ISO_5,9,9999,9999,9999,2380048488
10418,16,Jits_ISO_5,10,9999,9999,9999,2380548160
10418,16,Jits_ISO_5,11,9999,9999,9999,2381048884
10418,16,Jits_ISO_5,12,9999,9999,9999,2381548616
10418,16,Jits_ISO_5,13,9999,9999,9999,2382048348
10418,16,Jits_ISO_5,14,9999,9999,9999,2382549104
10418,16,Jits_ISO_5,15,9999,9999,9999,2383048768
10418,16,Jits_ISO_5,16,9999,9999,9999,2383548516
10418,16,Jits_ISO_5,17,9999,9999,9999,2384048248
10418,16,Jits_ISO_5,18,9999,9999,9999,2384548964
10418,16,Jits_ISO_5,19,9999,9999,9999,2385048640
10418,16,Jits_ISO_5,20,9999,9999,9999,2385548392
10418,16,Jits_ISO_5,21,9999,9999,9999,2386048124
10418,16,Jits_ISO_5,22,9999,9999,9999,2386548844
10418,16,Jits_ISO_5,23,9999,9999,9999,2387048520
10418,16,Jits_ISO_5,24,9999,9999,9999,2387548268
10418,16,Jits_ISO_5,25,9999,9999,9999,2388048980
10418,16,Jits_ISO_5,26,9999,9999,9999,2388548732
10418,16,Jits_ISO_5,27,9999,9999,9999,2389048380
10418,16,Jits_ISO_5,28,9999,9999,9999,2389548132
10418,16,Jits_ISO_5,29,9999,9999,9999,2390048848
10418,16,Jits_ISO_5,30,9999,9999,9999,2390548600
10418,16,Jits_ISO_5,31,9999,9999,9999,2391048276
10418,16,Jits_ISO_5,32,9999,9999,9999,2391548996
10418,16,Jits_ISO_5,33,9999,9999,9999,2392048744
10418,16,Jits_ISO_5,34,9999,9999,9999,2392548420
10418,16,Jits_ISO_5,35,9999,9999,9999,2393048168
10418,16,Jits_ISO_5,36,9999,9999,9999,2393548912
10418,16,Jits_ISO_5,37,9999,9999,9999,2394048572
10418,16,Jits_ISO_5,38,9999,9999,9999,2394548320
10418,16,Jits_ISO_5,39,9999,9999,9999,2395049028
10418,16,Jits_ISO_5,40,9999,9999,9999,2395548780
10418,16,Jits_ISO_5,41,9999,9999,9999,2396048452
10418,16,Jits_ISO_5,42,9999,9999,9999,2396548200
10418,16,Jits_ISO_5,43,9999,9999,9999,2397048900
10418,16,Jits_ISO_5,44,9999,9999,9999,2397548640
10418,16,Jits_ISO_5,45,9999,9999,9999,2398048356
10418,16,Jits_ISO_5,46,9999,9999,9999,2398549064
10418,16,Jits_ISO_5,47,9999,9999,9999,2399048804
10418,16,Jits_ISO_5,48,9999,9999,9999,2399548540
10418,16,Jits_ISO_5,49,9999,9999,9999,2400048208
10418,16,Jits_ISO_5,50,9999,9999,9999,2400548976
10418,16,Jits_ISO_5,51,9999,9999,9999,2401048652
10418,16,Jits_ISO_5,52,9999,9999,9999,2401548404
10418,16,Jits_ISO_5,53,9999,9999,9999,2402048076
10418,16,Jits_ISO_5,54,9999,9999,9999,2402548860
10418,16,Jits_ISO_5,55,9999,9999,9999,2403048532
10418,16,Jits_ISO_5,56,9999,9999,9999,2403548280
10418,16,Jits_ISO_5,57,9999,9999,9999,2404048968
10418,16,Jits_ISO_5,58,9999,9999,9999,2404548712
10418,16,Jits_ISO_5,59,9999,9999,9999,2405048372
10418,16,Jits_ISO_5,60,9999,9999,9999,2405548128
10418,16,Jits_ISO_5,61,9999,9999,9999,2406048828
10418,16,Jits_ISO_5,62,9999,9999,9999,2406548596
10418,16,Jits_ISO_5,63,9999,9999,9999,2407048268
10418,16,Jits_ISO_5,64,9999,9999,9999,2407548980
10418,16,Jits_ISO_5,65,9999,9999,9999,2408048696
10418,16,Jits_ISO_5,66,9999,9999,9999,2408548428
10418,16,Jits_ISO_5,67,9999,9999,9999,2409048152
10418,16,Jits_ISO_5,68,9999,9999,9999,2409548860
10418,16,Jits_ISO_5,69,9999,9999,9999,2410048596
10418,16,Jits_ISO_5,70,9999,9999,9999,2410548320
10418,16,Jits_ISO_5,71,9999,9999,9999,2411049040
10418,16,Jits_ISO_5,72,9999,9999,9999,2411548788
10418,16,Jits_ISO_5,73,9999,9999,9999,2412048452
10418,16,Jits_ISO_5,74,9999,9999,9999,2412548200
10418,16,Jits_ISO_5,75,9999,9999,9999,2413048904
10418,16,Jits_ISO_5,76,9999,9999,9999,2413548656
10418,16,Jits_ISO_5,77,9999,9999,9999,2414048332
10418,16,Jits_ISO_5,78,9999,9999,9999,2414549104
10418,16,Jits_ISO_5,79,9999,9999,9999,2415048772
10418,16,Jits_ISO_5,80,9999,9999,9999,2415548512
10418,16,Jits_ISO_5,81,9999,9999,9999,2416048216
10418,16,Jits_ISO_5,82,9999,9999,9999,2416548968
10418,16,Jits_ISO_5,83,9999,9999,9999,2417048628
10418,16,Jits_ISO_5,84,9999,9999,9999,2417548380
10418,16,Jits_ISO_5,85,9999,9999,9999,2418048112
10418,16,Jits_ISO_5,86,9999,9999,9999,2418548828
10418,16,Jits_ISO_5,87,9999,9999,9999,2419048512
10418,16,Jits_ISO_5,88,9999,9999,9999,2419548224
10418,16,Jits_ISO_5,89,9999,9999,9999,2420049004
10418,16,Jits_ISO_5,90,9999,9999,9999,2420548664
10418,16,Jits_ISO_5,91,9999,9999,9999,2421048396
10418,16,Jits_ISO_5,92,9999,9999,9999,2421548128
10418,16,Jits_ISO_5,93,9999,9999,9999,2422048836
10418,16,Jits_ISO_5,94,9999,9999,9999,2422548580
10418,16,Jits_ISO_5,95,9999,9999,9999,2423048268
10418,16,Jits_ISO_5,96,9999,9999,9999,2423549028
10418,16,Jits_ISO_5,97,9999,9999,9999,2424048760
10418,16,Jits_ISO_5,98,9999,9999,9999,2424548420
10418,16,Jits_ISO_5,99,9999,9999,9999,2425048156
10418,16,Jits_ISO_5,100,9999,9999,9999,2425548912
10418,16,Jits_ISO_5,101,9999,9999,9999,2426048584
10418,16,Jits_ISO_5,102,9999,9999,9999,2426548324
10418,16,Jits_ISO_5,103,9999,9999,9999,2427049052
10418,16,Jits_ISO_5,104,9999,9999,9999,2427548744
10418,16,Jits_ISO_5,105,9999,9999,9999,2428048500
10418,16,Jits_ISO_5,106,9999,9999,9999,2428548160
10418,16,Jits_ISO_5,107,9999,9999,9999,2429048936
10418,16,Jits_ISO_5,108,9999,9999,9999,2429548668
10418,16,Jits_ISO_5,109,9999,9999,9999,2430048328
10418,16,Jits_ISO_5,110,9999,9999,9999,2430549048
10418,16,Jits_ISO_5,111,9999,9999,9999,2431048796
10418,16,Jits_ISO_5,112,9999,9999,9999,2431548484
10418,16,Jits_ISO_5,113,9999,9999,9999,2432048248
10418,16,Jits_ISO_5,114,9999,9999,9999,2432548920
10418,16,Jits_ISO_5,115,9999,9999,9999,2433048644
10418,16,Jits_ISO_5,116,9999,9999,9999,2433548380
10418,16,Jits_ISO_5,117,9999,9999,9999,2434048052
10418,16,Jits_ISO_5,118,9999,9999,9999,2434548848
10418,16,Jits_ISO_5,119,9999,9999,9999,2435048512
10419,7,Jits_ISO_8,0,5,56,103,2444990980
10419,7,Jits_ISO_8,1,5,63,98,2444994228
10419,7,Jits_ISO_8,2,5,80,127,2444997200
10419,7,Jits_ISO_8,0,5,56,103,2445790632
10419,7,Jits_ISO_8,1,5,63,98,2445793580
10419,7,Jits_ISO_8,2,5,80,127,2445797000
10419,7,Jits_ISO_8,0,5,80,127,2446531208
10419,7,Jits_ISO_8,1,5,63,98,2446621000
10419,7,Jits_ISO_8,2,5,56,103,2446631268
10419,7,Jits_ISO_8,0,5,56,103,2447351112
10419,7,Jits_ISO_8,1,5,63,98,2447361308
10419,7,Jits_ISO_8,2,5,80,127,2447450468
10419,7,Jits_ISO_8,0,5,63,98,2448121164
10419,7,Jits_ISO_8,1,5,80,127,2448151064
10419,7,Jits_ISO_8,2,5,56,103,2448180664
10419,7,Jits_ISO_8,0,5,56,103,2448921160
10419,7,Jits_ISO_8,1,5,80,127,2449021264
10419,7,Jits_ISO_8,2,5,63,98,2449070420
10419,7,Jits_ISO_8,0,5,56,103,2449720660
10419,7,Jits_ISO_8,1,5,80,127,2449770936
10419,7,Jits_ISO_8,2,1,48,58,2449797796
10419,7,Jits_ISO_8,3,5,63,98,2449810796
10419,7,Jits_ISO_8,0,1,48,59,2450505960
10419,7,Jits_ISO_8,1,5,80,127,2450551168
10419,7,Jits_ISO_8,2,5,63,98,2450581068
10419,7,Jits_ISO_8,3,5,56,103,2450650460
10419,7,Jits_ISO_8,0,1,48,55,2451308756
10419,7,Jits_ISO_8,1,5,63,98,2451380776
10419,7,Jits_ISO_8,2,5,56,103,2451411260
10419,7,Jits_ISO_8,3,5,80,127,2451470924
10419,7,Jits_ISO_8,0,1,48,59,2452101792
10419,7,Jits_ISO_8,1,5,56,103,2452121072
10419,7,Jits_ISO_8,2,5,80,127,2452124136
10419,7,Jits_ISO_8,3,5,63,98,2452241028
10419,7,Jits_ISO_8,0,1,48,51,2452922316
10419,7,Jits_ISO_8,1,5,56,103,2453000664
10419,7,Jits_ISO_8,2,5,80,127,2453040592
10419,7,Jits_ISO_8,3,5,63,98,2453051084
10419,7,Jits_ISO_8,0,1,48,48,2453727892
10419,7,Jits_ISO_8,1,5,56,103,2453761348
10419,7,Jits_ISO_8,2,5,80,127,2453780984
10419,7,Jits_ISO_8,3,5,63,98,2453860688
10419,7,Jits_ISO_8,0,1,48,54,2454536452
10419,7,Jits_ISO_8,1,5,80,127,2454551096
10419,7,Jits_ISO_8,2,5,56,103,2454651184
10419,7,Jits_ISO_8,3,5,63,98,2454660332
10419,7,Jits_ISO_8,0,5,63,98,2455320840
10419,7,Jits_ISO_8,1,1,48,56,2455359480
10419,7,Jits_ISO_8,2,5,80,127,2455381228
10419,7,Jits_ISO_8,3,5,56,103,2455390676
10419,7,Jits_ISO_8,0,5,56,103,2456120848
10419,7,Jits_ISO_8,1,1,48,55,2456137748
10419,7,Jits_ISO_8,2,5,63,98,2456191348
10419,7,Jits_ISO_8,3,5,80,127,2456194708
10419,7,Jits_ISO_8,0,1,48,57,2456933492
10419,7,Jits_ISO_8,1,5,63,98,2456951048
10419,7,Jits_ISO_8,2,5,56,103,2457001324
10419,7,Jits_ISO_8,3,5,80,127,2457004316
10419,7,Jits_ISO_8,0,5,56,103,2457711044
10419,7,Jits_ISO_8,1,5,80,127,2457713960
10419,7,Jits_ISO_8,2,1,48,58,2457752444
10419,7,Jits_ISO_8,3,5,63,98,2457801096
10419,7,Jits_ISO_8,0,1,48,54,2458550316
10419,7,Jits_ISO_8,1,5,63,98,2458551804
10419,7,Jits_ISO_8,2,5,56,103,2458640844
10419,7,Jits_ISO_8,3,5,80,127,2458670428
10419,7,Jits_ISO_8,0,5,56,103,2459341264
10419,7,Jits_ISO_8,1,1,48,54,2459420232
10419,7,Jits_ISO_8,2,5,63,98,2459440484
10419,7,Jits_ISO_8,3,5,80,127,2459471132
10419,7,Jits_ISO_8,0,5,63,98,2460161320
10419,7,Jits_ISO_8,1,5,56,103,2460170616
10419,7,Jits_ISO_8,2,1,48,49,2460212916
10419,7,Jits_ISO_8,3,5,80,127,2460260892
10419,7,Jits_ISO_8,0,1,48,52,2460964888
10419,7,Jits_ISO_8,1,5,63,98,2460980724
10419,7,Jits_ISO_8,2,5,56,103,2461060448
10419,7,Jits_ISO_8,3,5,80,127,2461063736
10419,7,Jits_ISO_8,0,5,80,127,2461741392
10419,7,Jits_ISO_8,1,1,48,54,2461751932
10419,7,Jits_ISO_8,2,5,63,98,2461761096
10419,7,Jits_ISO_8,3,5,56,103,2461821336
10419,7,Jits_ISO_8,0,1,48,55,2462553668
10419,7,Jits_ISO_8,1,5,56,103,2462581116
10419,7,Jits_ISO_8,2,5,63,98,2462600676
10419,7,Jits_ISO_8,3,5,80,127,2462603968
10419,7,Jits_ISO_8,0,5,63,98,2463320364
10419,7,Jits_ISO_8,1,1,48,56,2463323332
10419,7,Jits_ISO_8,2,5,80,127,2463401276
10419,7,Jits_ISO_8,3,5,56,103,2463410428
10419,7,Jits_ISO_8,0,1,48,55,2464101084
10419,7,Jits_ISO_8,1,5,63,98,2464140596
10419,7,Jits_ISO_8,2,5,56,103,2464161280
10419,7,Jits_ISO_8,3,5,80,127,2464211388
10419,7,Jits_ISO_8,0,1,48,54,2464873940
10419,7,Jits_ISO_8,1,5,80,127,2464941548
10419,7,Jits_ISO_8,2,5,63,98,2464981572
10419,7,Jits_ISO_8,3,5,56,103,2465000984
10419,7,Jits_ISO_8,0,1,48,48,2465678676
10419,7,Jits_ISO_8,1,5,56,103,2465781048
10419,7,Jits_ISO_8,2,5,63,98,2465791244
10419,7,Jits_ISO_8,3,5,80,127,2465810956
10419,7,Jits_ISO_8,0,5,56,103,2466511228
10419,7,Jits_ISO_8,1,1,48,49,2466522836
10419,7,Jits_ISO_8,2,5,63,98,2466601456
10419,7,Jits_ISO_8,3,5,80,127,2466660784
10419,7,Jits_ISO_8,0,5,80,127,2467340796
10419,7,Jits_ISO_8,1,1,48,47,2467351292
10419,7,Jits_ISO_8,2,5,56,103,2467352556
10419,7,Jits_ISO_8,3,5,63,98,2467420740
10419,7,Jits_ISO_8,0,1,48,48,2468111936
10419,7,Jits_ISO_8,1,5,63,98,2468171076
10419,7,Jits_ISO_8,2,5,80,127,2468261196
10419,7,Jits_ISO_8,3,5,56,103,2468270420
10419,7,Jits_ISO_8,0,5,63,98,2468910336
10419,7,Jits_ISO_8,1,1,48,41,2468947236
10419,7,Jits_ISO_8,2,5,80,127,2468960904
10419,7,Jits_ISO_8,3,5,56,103,2469020996
10419,7,Jits_ISO_8,0,1,48,51,2469718480
10419,7,Jits_ISO_8,1,5,56,103,2469740900
10419,7,Jits_ISO_8,2,5,80,127,2469791032
10419,7,Jits_ISO_8,3,5,63,98,2469810664
10419,7,Jits_ISO_8,0,5,56,103,2470510948
10419,7,Jits_ISO_8,1,1,48,51,2470513316
10419,7,Jits_ISO_8,2,5,80,127,2470571332
10419,7,Jits_ISO_8,3,5,63,98,2470640948
10419,7,Jits_ISO_8,0,5,56,103,2471310740
10419,7,Jits_ISO_8,1,1,48,52,2471316852
10419,7,Jits_ISO_8,2,5,80,127,2471341312
10419,7,Jits_ISO_8,3,5,63,98,2471371136
10419,7,Jits_ISO_8,0,1,48,52,2472035268
10419,7,Jits_ISO_8,1,5,56,103,2472151520
10419,7,Jits_ISO_8,2,5,80,127,2472170784
10419,7,Jits_ISO_8,3,5,63,98,2472231396
10419,7,Jits_ISO_8,0,1,48,50,2472840008
10419,7,Jits_ISO_8,1,5,80,127,2473031024
10419,7,Jits_ISO_8,2,5,56,103,2473041220
10419,7,Jits_ISO_8,3,5,63,98,2473050368
10419,7,Jits_ISO_8,0,1,48,46,2473719468
10419,7,Jits_ISO_8,1,5,56,103,2473790820
10419,7,Jits_ISO_8,2,5,80,127,2473830968
10419,7,Jits_ISO_8,3,5,63,98,2473860344
10419,7,Jits_ISO_8,0,1,48,47,2474518736
10419,7,Jits_ISO_8,1,5,56,103,2474560860
10419,7,Jits_ISO_8,2,5,63,98,2474590760
10419,7,Jits_ISO_8,3,5,80,127,2474630536
10419,7,Jits_ISO_8,0,1,48,47,2475255492
10419,7,Jits_ISO_8,1,5,80,127,2475310596
10419,7,Jits_ISO_8,2,5,63,98,2475360712
10419,7,Jits_ISO_8,3,5,56,103,2475381168
10419,7,Jits_ISO_8,0,5,56,103,2476140952
10419,7,Jits_ISO_8,1,1,48,46,2476142140
10419,7,Jits_ISO_8,2,5,80,127,2476210480
10419,7,Jits_ISO_8,3,5,63,98,2476271104
10419,7,Jits_ISO_8,0,5,80,127,2476940752
10419,7,Jits_ISO_8,1,1,48,46,2477004332
10419,7,Jits_ISO_8,2,5,63,98,2477030984
10419,7,Jits_ISO_8,3,5,56,103,2477051220
10419,7,Jits_ISO_8,0,5,63,98,2477760864
10419,7,Jits_ISO_8,1,1,48,51,2477773644
10419,7,Jits_ISO_8,2,5,56,103,2477781340
10419,7,Jits_ISO_8,3,5,80,127,2477821428
10419,7,Jits_ISO_8,0,5,80,127,2478520936
10419,7,Jits_ISO_8,1,5,63,98,2478541100
10419,7,Jits_ISO_8,2,1,48,43,2478545708
10419,7,Jits_ISO_8,3,5,56,103,2478620984
10419,7,Jits_ISO_8,0,5,63,98,2479311216
10419,7,Jits_ISO_8,1,1,48,47,2479331672
10419,7,Jits_ISO_8,2,5,56,103,2479420776
10419,7,Jits_ISO_8,3,5,80,127,2479423916
10419,7,Jits_ISO_8,0,1,48,39,2480128228
10419,7,Jits_ISO_8,1,5,63,98,2480130340
10419,7,Jits_ISO_8,2,5,56,103,2480140684
10419,7,Jits_ISO_8,3,5,80,127,2480143600
10419,7,Jits_ISO_8,0,1,48,52,2480890968
10419,7,Jits_ISO_8,1,5,56,103,2480910992
10419,7,Jits_ISO_8,2,5,80,127,2481030780
10419,7,Jits_ISO_8,3,5,63,98,2481070568
10419,7,Jits_ISO_8,0,5,56,103,2481730936
10419,7,Jits_ISO_8,1,1,48,48,2481809832
10419,7,Jits_ISO_8,2,5,80,127,2481811628
10419,7,Jits_ISO_8,3,5,63,98,2481831340
10419,7,Jits_ISO_8,0,5,56,103,2482530960
10419,7,Jits_ISO_8,1,1,48,47,2482613944
10419,7,Jits_ISO_8,2,5,63,98,2482641244
10419,7,Jits_ISO_8,3,5,80,127,2482644928
10419,7,Jits_ISO_8,0,5,56,103,2483361100
10419,7,Jits_ISO_8,1,1,48,43,2483382948
10419,7,Jits_ISO_8,2,5,80,127,2483390768
10419,7,Jits_ISO_8,3,5,63,98,2483411304
10419,7,Jits_ISO_8,0,5,63,98,2484141564
10419,7,Jits_ISO_8,1,5,56,103,2484151012
10419,7,Jits_ISO_8,2,1,48,41,2484152052
10419,7,Jits_ISO_8,3,5,80,127,2484160832
10419,7,Jits_ISO_8,0,1,48,51,2484929728
10419,7,Jits_ISO_8,1,5,80,127,2484931148
10419,7,Jits_ISO_8,2,5,56,103,2484981004
10419,7,Jits_ISO_8,3,5,63,98,2485020944
10419,7,Jits_ISO_8,0,1,48,47,2485723736
10419,7,Jits_ISO_8,1,5,80,127,2485751112
10419,7,Jits_ISO_8,2,5,63,98,2485770600
10419,7,Jits_ISO_8,3,5,56,103,2485820860
10419,7,Jits_ISO_8,0,1,48,47,2486494144
10419,7,Jits_ISO_8,1,5,80,127,2486561084
10419,7,Jits_ISO_8,2,5,56,103,2486590688
10419,7,Jits_ISO_8,3,5,63,98,2486660652
10419,7,Jits_ISO_8,0,1,48,42,2487310792
10419,7,Jits_ISO_8,1,5,56,103,2487411048
10419,7,Jits_ISO_8,2,5,80,127,2487421544
10419,7,Jits_ISO_8,3,5,63,98,2487461332
10419,7,Jits_ISO_8,0,1,48,46,2488109388
10419,7,Jits_ISO_8,1,5,56,103,2488120648
10419,7,Jits_ISO_8,2,5,63,98,2488141032
10419,7,Jits_ISO_8,3,5,80,127,2488210772
10419,7,Jits_ISO_8,0,1,48,48,2488900628
10419,7,Jits_ISO_8,1,5,63,98,2488940808
10419,7,Jits_ISO_8,2,5,80,127,2489001260
10419,7,Jits_ISO_8,3,5,56,103,2489020896
10419,7,Jits_ISO_8,0,1,48,46,2489671260
10419,7,Jits_ISO_8,1,5,80,127,2489730772
10419,7,Jits_ISO_8,2,5,56,103,2489761052
10419,7,Jits_ISO_8,3,5,63,98,2489790784
10419,7,Jits_ISO_8,0,1,48,45,2490469700
10419,7,Jits_ISO_8,1,5,56,103,2490531156
10419,7,Jits_ISO_8,2,5,63,98,2490590660
10419,7,Jits_ISO_8,3,5,80,127,2490650976
10419,7,Jits_ISO_8,0,1,48,44,2491325812
10419,7,Jits_ISO_8,1,5,80,127,2491351568
10419,7,Jits_ISO_8,2,5,56,103,2491370832
10419,7,Jits_ISO_8,3,5,63,98,2491440572
10419,7,Jits_ISO_8,0,1,48,44,2492150984
10419,7,Jits_ISO_8,1,5,80,127,2492152320
10419,7,Jits_ISO_8,2,5,63,98,2492170764
10419,7,Jits_ISO_8,3,5,56,103,2492201260
10419,7,Jits_ISO_8,0,5,80,127,2492940728
10419,7,Jits_ISO_8,1,5,63,98,2492961116
10419,7,Jits_ISO_8,2,1,48,44,2492978852
10419,7,Jits_ISO_8,3,5,56,103,2493020600
10419,7,Jits_ISO_8,0,5,80,127,2493741492
10419,7,Jits_ISO_8,1,1,48,43,2493800884
10419,7,Jits_ISO_8,2,5,56,103,2493840620
10419,7,Jits_ISO_8,3,5,63,98,2493870816
10419,7,Jits_ISO_8,0,5,63,98,2494530888
10419,7,Jits_ISO_8,1,5,80,127,2494581092
10419,7,Jits_ISO_8,2,5,56,103,2494600652
10419,7,Jits_ISO_8,3,1,48,38,2494608108
10419,7,Jits_ISO_8,0,5,80,127,2495370828
10419,7,Jits_ISO_8,1,1,48,38,2495374400
10419,7,Jits_ISO_8,2,5,56,103,2495401396
10419,7,Jits_ISO_8,3,5,63,98,2495404536
10419,7,Jits_ISO_8,0,1,48,37,2496124060
10419,7,Jits_ISO_8,1,5,63,98,2496201108
10419,7,Jits_ISO_8,2,5,56,103,2496240984
10419,7,Jits_ISO_8,3,5,80,127,2496260472
10419,7,Jits_ISO_8,0,5,80,127,2496941564
10419,7,Jits_ISO_8,1,1,48,46,2496991540
10419,7,Jits_ISO_8,2,5,63,98,2497021380
10419,7,Jits_ISO_8,3,5,56,103,2497061172
10419,7,Jits_ISO_8,0,5,63,98,2497760576
10419,7,Jits_ISO_8,1,1,48,43,2497802200
10419,7,Jits_ISO_8,2,5,80,127,2497840588
10419,7,Jits_ISO_8,3,5,56,103,2497860900
10419,7,Jits_ISO_8,0,5,56,103,2498601344
10419,7,Jits_ISO_8,1,5,63,98,2498610792
10419,7,Jits_ISO_8,2,1,48,41,2498635484
10419,7,Jits_ISO_8,3,5,80,127,2498650576
10419,7,Jits_ISO_8,0,5,56,103,2499321276
10419,7,Jits_ISO_8,1,5,80,127,2499324264
10419,7,Jits_ISO_8,2,1,48,47,2499401560
10419,7,Jits_ISO_8,3,5,63,98,2499460472
10419,7,Jits_ISO_8,0,5,56,103,2500110644
10419,7,Jits_ISO_8,1,1,48,45,2500176468
10419,7,Jits_ISO_8,2,5,63,98,2500200848
10419,7,Jits_ISO_8,3,5,80,127,2500270528
10419,7,Jits_ISO_8,0,1,48,40,2500958052
10419,7,Jits_ISO_8,1,5,63,98,2500991428
10419,7,Jits_ISO_8,2,5,80,127,2500994792
10419,7,Jits_ISO_8,3,5,56,103,2501050772
10419,7,Jits_ISO_8,0,1,48,47,2501716328
10419,7,Jits_ISO_8,1,5,80,127,2501830980
10419,7,Jits_ISO_8,2,5,56,103,2501850568
10419,7,Jits_ISO_8,3,5,63,98,2501860840
10419,7,Jits_ISO_8,0,5,56,103,2502540588
10419,7,Jits_ISO_8,1,5,63,98,2502550860
10419,7,Jits_ISO_8,2,1,48,42,2502565584
10419,7,Jits_ISO_8,3,5,80,127,2502620708
10419,7,Jits_ISO_8,0,1,48,40,2503303036
10419,7,Jits_ISO_8,1,5,80,127,2503341576
10419,7,Jits_ISO_8,2,5,56,103,2503390756
10419,7,Jits_ISO_8,3,5,63,98,2503440720
10419,7,Jits_ISO_8,0,1,48,39,2504144032
10419,7,Jits_ISO_8,1,5,56,103,2504221032
10419,7,Jits_ISO_8,2,5,63,98,2504231300
10419,7,Jits_ISO_8,3,5,80,127,2504271300
10419,7,Jits_ISO_8,0,1,48,41,2504941524
10419,7,Jits_ISO_8,1,5,56,103,2504961632
10419,7,Jits_ISO_8,2,5,63,98,2505001272
10419,7,Jits_ISO_8,3,5,80,127,2505050560
10419,7,Jits_ISO_8,0,5,80,127,2505721116
10419,7,Jits_ISO_8,1,1,48,36,2505751812
10419,7,Jits_ISO_8,2,5,56,103,2505771536
10419,7,Jits_ISO_8,3,5,63,98,2505790800
10419,7,Jits_ISO_8,0,5,80,127,2506531100
10419,7,Jits_ISO_8,1,1,48,42,2506547920
10419,7,Jits_ISO_8,2,5,63,98,2506590588
10419,7,Jits_ISO_8,3,5,56,103,2506670516
10419,7,Jits_ISO_8,0,5,80,127,2507310524
10419,7,Jits_ISO_8,1,1,48,41,2507345552
10419,7,Jits_ISO_8,2,5,56,103,2507351728
10419,7,Jits_ISO_8,3,5,63,98,2507370768
10419,7,Jits_ISO_8,0,1,48,42,2508134556
10419,7,Jits_ISO_8,1,5,56,103,2508161556
10419,7,Jits_ISO_8,2,5,80,127,2508170556
10419,7,Jits_ISO_8,3,5,63,98,2508210716
10419,7,Jits_ISO_8,0,1,48,45,2508949408
10419,7,Jits_ISO_8,1,5,56,103,2509030896
10419,7,Jits_ISO_8,2,5,63,98,2509070896
10419,7,Jits_ISO_8,3,5,80,127,2509074108
10419,7,Jits_ISO_8,0,5,63,98,2509720900
10419,7,Jits_ISO_8,1,5,80,127,2509760840
10419,7,Jits_ISO_8,2,1,48,42,2509787948
10419,7,Jits_ISO_8,3,5,56,103,2509830688
10419,7,Jits_ISO_8,0,5,63,98,2510510644
10419,7,Jits_ISO_8,1,1,48,45,2510587872
10419,7,Jits_ISO_8,2,5,56,103,2510591580
10419,7,Jits_ISO_8,3,5,80,127,2510650700
10419,7,Jits_ISO_8,0,5,80,127,2511320716
10419,7,Jits_ISO_8,1,1,48,46,2511359804
10419,7,Jits_ISO_8,2,5,63,98,2511370468
10419,7,Jits_ISO_8,3,5,56,103,2511401340
10419,7,Jits_ISO_8,0,5,56,103,2512110928
10419,7,Jits_ISO_8,1,5,63,98,2512161132
10419,7,Jits_ISO_8,2,1,48,44,2512165592
10419,7,Jits_ISO_8,3,5,80,127,2512171616
10419,7,Jits_ISO_8,0,5,56,103,2512920904
10419,7,Jits_ISO_8,1,1,48,46,2512950024
10419,7,Jits_ISO_8,2,5,63,98,2513030664
10419,7,Jits_ISO_8,3,5,80,127,2513051032
10419,7,Jits_ISO_8,0,5,63,98,2513720632
10419,7,Jits_ISO_8,1,1,48,44,2513738800
10419,7,Jits_ISO_8,2,5,80,127,2513770900
10419,7,Jits_ISO_8,3,5,56,103,2513860944
10419,7,Jits_ISO_8,0,5,63,98,2514511420
10419,7,Jits_ISO_8,1,1,48,49,2514512312
10419,7,Jits_ISO_8,2,5,80,127,2514540868
10419,7,Jits_ISO_8,3,5,56,103,2514630912
10419,7,Jits_ISO_8,0,5,63,98,2515310908
10419,7,Jits_ISO_8,1,5,56,103,2515321328
10419,7,Jits_ISO_8,2,1,48,42,2515335008
10419,7,Jits_ISO_8,3,5,80,127,2515420472
10419,7,Jits_ISO_8,0,1,48,48,2516109616
10419,7,Jits_ISO_8,1,5,63,98,2516211016
10419,7,Jits_ISO_8,2,5,80,127,2516240840
10419,7,Jits_ISO_8,3,5,56,103,2516270740
10419,7,Jits_ISO_8,0,1,48,43,2516912252
10419,7,Jits_ISO_8,1,5,80,127,2517031412
10419,7,Jits_ISO_8,2,5,63,98,2517040560
10419,7,Jits_ISO_8,3,5,56,103,2517071136
10419,7,Jits_ISO_8,0,5,80,127,2517730676
10419,7,Jits_ISO_8,1,1,48,43,2517731716
10419,7,Jits_ISO_8,2,5,63,98,2517751280
10419,7,Jits_ISO_8,3,5,56,103,2517801552
10419,7,Jits_ISO_8,0,1,48,43,2518494168
10419,7,Jits_ISO_8,1,5,63,98,2518561108
10419,7,Jits_ISO_8,2,5,80,127,2518620512
10419,7,Jits_ISO_8,3,5,56,103,2518640900
10419,7,Jits_ISO_8,0,1,48,48,2519303916
10419,7,Jits_ISO_8,1,5,63,98,2519321028
10419,7,Jits_ISO_8,2,5,56,103,2519371232
10419,7,Jits_ISO_8,3,5,80,127,2519381428
10419,7,Jits_ISO_8,0,1,48,46,2520103472
10419,7,Jits_ISO_8,1,5,56,103,2520151376
10419,7,Jits_ISO_8,2,5,80,127,2520160672
10419,7,Jits_ISO_8,3,5,63,98,2520260904
10419,7,Jits_ISO_8,0,5,80,127,2520911304
10419,7,Jits_ISO_8,1,5,63,98,2520920528
10419,7,Jits_ISO_8,2,1,48,45,2520926040
10419,7,Jits_ISO_8,3,5,56,103,2521070900
10419,7,Jits_ISO_8,0,5,63,98,2521721140
10419,7,Jits_ISO_8,1,5,80,127,2521761080
10419,7,Jits_ISO_8,2,1,48,39,2521778816
10419,7,Jits_ISO_8,3,5,56,103,2521840968
10419,7,Jits_ISO_8,0,5,56,103,2522510808
10419,7,Jits_ISO_8,1,1,48,47,2522569224
10419,7,Jits_ISO_8,2,5,80,127,2522611076
10419,7,Jits_ISO_8,3,5,63,98,2522630488
10419,7,Jits_ISO_8,0,1,48,45,2523327944
10419,7,Jits_ISO_8,1,5,80,127,2523370788
10419,7,Jits_ISO_8,2,5,56,103,2523381208
10419,7,Jits_ISO_8,3,5,63,98,2523471324
10419,7,Jits_ISO_8,0,1,48,49,2524117196
10419,7,Jits_ISO_8,1,5,56,103,2524170648
10419,7,Jits_ISO_8,2,5,63,98,2524191108
10419,7,Jits_ISO_8,3,5,80,127,2524270888
10419,7,Jits_ISO_8,0,5,63,98,2524921144
10419,7,Jits_ISO_8,1,1,48,47,2524928692
10419,7,Jits_ISO_8,2,5,56,103,2525011496
10419,7,Jits_ISO_8,3,5,80,127,2525014564
10419,7,Jits_ISO_8,0,1,48,43,2525746868
10419,7,Jits_ISO_8,1,5,56,103,2525750504
10419,7,Jits_ISO_8,2,5,80,127,2525810972
10419,7,Jits_ISO_8,3,5,63,98,2525821684
10419,7,Jits_ISO_8,0,1,48,42,2526519920
10419,7,Jits_ISO_8,1,5,80,127,2526600488
10419,7,Jits_ISO_8,2,5,56,103,2526610756
10419,7,Jits_ISO_8,3,5,63,98,2526613824
10419,7,Jits_ISO_8,0,1,48,49,2527310936
10419,7,Jits_ISO_8,1,5,56,103,2527361456
10419,7,Jits_ISO_8,2,5,80,127,2527370604
10419,7,Jits_ISO_8,3,5,63,98,2527391064
10419,7,Jits_ISO_8,0,5,63,98,2528130376
10419,7,Jits_ISO_8,1,1,48,48,2528146528
10419,7,Jits_ISO_8,2,5,80,127,2528190688
10419,7,Jits_ISO_8,3,5,56,103,2528241064
10419,7,Jits_ISO_8,0,1,48,51,2528948096
10419,7,Jits_ISO_8,1,5,63,98,2529011024
10419,7,Jits_ISO_8,2,5,56,103,2529021368
10419,7,Jits_ISO_8,3,5,80,127,2529070432
10419,7,Jits_ISO_8,0,5,63,98,2529710472
10419,7,Jits_ISO_8,1,5,80,127,2529730856
10419,7,Jits_ISO_8,2,1,48,47,2529732416
10419,7,Jits_ISO_8,3,5,56,103,2529741268
10419,7,Jits_ISO_8,0,5,63,98,2530511516
10419,7,Jits_ISO_8,1,5,80,127,2530514752
10419,7,Jits_ISO_8,2,1,48,49,2530517052
10419,7,Jits_ISO_8,3,5,56,103,2530551024
10419,7,Jits_ISO_8,0,1,48,45,2531323484
10419,7,Jits_ISO_8,1,5,63,98,2531380680
10419,7,Jits_ISO_8,2,5,80,127,2531411328
10419,7,Jits_ISO_8,3,5,56,103,2531421660
10419,7,Jits_ISO_8,0,5,56,103,2532131392
10419,7,Jits_ISO_8,1,5,80,127,2532160920
10419,7,Jits_ISO_8,2,1,48,51,2532169892
10419,7,Jits_ISO_8,3,5,63,98,2532190588
10419,7,Jits_ISO_8,0,1,48,50,2532944636
10419,7,Jits_ISO_8,1,5,63,98,2533031356
10419,7,Jits_ISO_8,2,5,56,103,2533071500
10419,7,Jits_ISO_8,3,5,80,127,2533074668
10419,7,Jits_ISO_8,0,5,80,127,2533730528
10419,7,Jits_ISO_8,1,1,48,47,2533787284
10419,7,Jits_ISO_8,2,5,56,103,2533810544
10419,7,Jits_ISO_8,3,5,63,98,2533860696
10419,7,Jits_ISO_8,0,5,80,127,2534510924
10419,7,Jits_ISO_8,1,5,56,103,2534530484
10419,7,Jits_ISO_8,2,1,48,51,2534583048
10419,7,Jits_ISO_8,3,5,63,98,2534620636
10419,7,Jits_ISO_8,0,5,80,127,2535350728
10419,7,Jits_ISO_8,1,1,48,51,2535388100
10419,7,Jits_ISO_8,2,5,63,98,2535390688
10419,7,Jits_ISO_8,3,5,56,103,2535430628
10419,7,Jits_ISO_8,0,5,63,98,2536120784
10419,7,Jits_ISO_8,1,1,48,43,2536176368
10419,7,Jits_ISO_8,2,5,80,127,2536181344
10419,7,Jits_ISO_8,3,5,56,103,2536210796
10419,7,Jits_ISO_8,0,5,56,103,2536920592
10419,7,Jits_ISO_8,1,5,80,127,2536951316
10419,7,Jits_ISO_8,2,1,48,50,2536970624
10419,7,Jits_ISO_8,3,5,63,98,2537041368
10419,7,Jits_ISO_8,0,5,56,103,2537730432
10419,7,Jits_ISO_8,1,1,48,49,2537768980
10419,7,Jits_ISO_8,2,5,80,127,2537840864
10419,7,Jits_ISO_8,3,5,63,98,2537870676
10419,7,Jits_ISO_8,0,1,48,47,2538577760
10419,7,Jits_ISO_8,1,5,56,103,2538581468
10419,7,Jits_ISO_8,2,5,63,98,2538640812
10419,7,Jits_ISO_8,3,5,80,127,2538670412
10419,7,Jits_ISO_8,0,5,56,103,2539351372
10419,7,Jits_ISO_8,1,1,48,47,2539377408
10419,7,Jits_ISO_8,2,5,63,98,2539421048
10419,7,Jits_ISO_8,3,5,80,127,2539440608
10419,7,Jits_ISO_8,0,5,80,127,2540120384
10419,7,Jits_ISO_8,1,5,63,98,2540140916
10419,7,Jits_ISO_8,2,1,48,43,2540151980
10419,7,Jits_ISO_8,3,5,56,103,2540190960
10419,7,Jits_ISO_8,0,9999,9999,9999,2445388876
10419,7,Jits_ISO_8,1,9999,9999,9999,2446188652
10419,7,Jits_ISO_8,2,9999,9999,9999,2446988372
10419,7,Jits_ISO_8,3,9999,9999,9999,2447788092
10419,7,Jits_ISO_8,4,9999,9999,9999,2448588856
10419,7,Jits_ISO_8,5,9999,9999,9999,2449388664
10419,7,Jits_ISO_8,6,9999,9999,9999,2450188360
10419,7,Jits_ISO_8,7,9999,9999,9999,2450988088
10419,7,Jits_ISO_8,8,9999,9999,9999,2451788924
10419,7,Jits_ISO_8,9,9999,9999,9999,2452588620
10419,7,Jits_ISO_8,10,9999,9999,9999,2453388412
10419,7,Jits_ISO_8,11,9999,9999,9999,2454188124
10419,7,Jits_ISO_8,12,9999,9999,9999,2454988892
10419,7,Jits_ISO_8,13,9999,9999,9999,2455788616
10419,7,Jits_ISO_8,14,9999,9999,9999,2456588388
10419,7,Jits_ISO_8,15,9999,9999,9999,2457388104
10419,7,Jits_ISO_8,16,9999,9999,9999,2458188920
10419,7,Jits_ISO_8,17,9999,9999,9999,2458988652
10419,7,Jits_ISO_8,18,9999,9999,9999,2459788364
10419,7,Jits_ISO_8,19,9999,9999,9999,2460588092
10419,7,Jits_ISO_8,20,9999,9999,9999,2461388916
10419,7,Jits_ISO_8,21,9999,9999,9999,2462188640
10419,7,Jits_ISO_8,22,9999,9999,9999,2462988356
10419,7,Jits_ISO_8,23,9999,9999,9999,2463788136
10419,7,Jits_ISO_8,24,9999,9999,9999,2464588868
10419,7,Jits_ISO_8,25,9999,9999,9999,2465388652
10419,7,Jits_ISO_8,26,9999,9999,9999,2466188360
10419,7,Jits_ISO_8,27,9999,9999,9999,2466988148
10419,7,Jits_ISO_8,28,9999,9999,9999,2467788916
10419,7,Jits_ISO_8,29,9999,9999,9999,2468588668
10419,7,Jits_ISO_8,30,9999,9999,9999,2469388372
10419,7,Jits_ISO_8,31,9999,9999,9999,2470188156
10419,7,Jits_ISO_8,32,9999,9999,9999,2470988908
10419,7,Jits_ISO_8,33,9999,9999,9999,2471788624
10419,7,Jits_ISO_8,34,9999,9999,9999,2472588352
10419,7,Jits_ISO_8,35,9999,9999,9999,2473388144
10419,7,Jits_ISO_8,36,9999,9999,9999,2474188904
10419,7,Jits_ISO_8,37,9999,9999,9999,2474988636
10419,7,Jits_ISO_8,38,9999,9999,9999,2475788340
10419,7,Jits_ISO_8,39,9999,9999,9999,2476588128
10419,7,Jits_ISO_8,40,9999,9999,9999,2477388904
10419,7,Jits_ISO_8,41,9999,9999,9999,2478188632
10419,7,Jits_ISO_8,42,9999,9999,9999,2478988412
10419,7,Jits_ISO_8,43,9999,9999,9999,2479788124
10419,7,Jits_ISO_8,44,9999,9999,9999,2480588864
10419,7,Jits_ISO_8,45,9999,9999,9999,2481388668
10419,7,Jits_ISO_8,46,9999,9999,9999,2482188376
10419,7,Jits_ISO_8,47,9999,9999,9999,2482988096
10419,7,Jits_ISO_8,48,9999,9999,9999,2483788864
10419,7,Jits_ISO_8,49,9999,9999,9999,2484588660
10419,7,Jits_ISO_8,50,9999,9999,9999,2485388368
10419,7,Jits_ISO_8,51,9999,9999,9999,2486188152
10419,7,Jits_ISO_8,52,9999,9999,9999,2486988912
10419,7,Jits_ISO_8,53,9999,9999,9999,2487788644
10419,7,Jits_ISO_8,54,9999,9999,9999,2488588352
10419,7,Jits_ISO_8,55,9999,9999,9999,2489388136
10419,7,Jits_ISO_8,56,9999,9999,9999,2490188888
10419,7,Jits_ISO_8,57,9999,9999,9999,2490988600
10419,7,Jits_ISO_8,58,9999,9999,9999,2491788384
10419,7,Jits_ISO_8,59,9999,9999,9999,2492588092
10419,7,Jits_ISO_8,60,9999,9999,9999,2493388924
10419,7,Jits_ISO_8,61,9999,9999,9999,2494188600
10419,7,Jits_ISO_8,62,9999,9999,9999,2494988396
10419,7,Jits_ISO_8,63,9999,9999,9999,2495788100
10419,7,Jits_ISO_8,64,9999,9999,9999,2496588880
10419,7,Jits_ISO_8,65,9999,9999,9999,2497388668
10419,7,Jits_ISO_8,66,9999,9999,9999,2498188396
10419,7,Jits_ISO_8,67,9999,9999,9999,2498988112
10419,7,Jits_ISO_8,68,9999,9999,9999,2499788868
10419,7,Jits_ISO_8,69,9999,9999,9999,2500588612
10419,7,Jits_ISO_8,70,9999,9999,9999,2501388408
10419,7,Jits_ISO_8,71,9999,9999,9999,2502188128
10419,7,Jits_ISO_8,72,9999,9999,9999,2502988880
10419,7,Jits_ISO_8,73,9999,9999,9999,2503788604
10419,7,Jits_ISO_8,74,9999,9999,9999,2504588400
10419,7,Jits_ISO_8,75,9999,9999,9999,2505388112
10419,7,Jits_ISO_8,76,9999,9999,9999,2506188864
10419,7,Jits_ISO_8,77,9999,9999,9999,2506988616
10419,7,Jits_ISO_8,78,9999,9999,9999,2507788408
10419,7,Jits_ISO_8,79,9999,9999,9999,2508588132
10419,7,Jits_ISO_8,80,9999,9999,9999,2509388892
10419,7,Jits_ISO_8,81,9999,9999,9999,2510188600
10419,7,Jits_ISO_8,82,9999,9999,9999,2510988388
10419,7,Jits_ISO_8,83,9999,9999,9999,2511788096
10419,7,Jits_ISO_8,84,9999,9999,9999,2512588860
10419,7,Jits_ISO_8,85,9999,9999,9999,2513388608
10419,7,Jits_ISO_8,86,9999,9999,9999,2514188404
10419,7,Jits_ISO_8,87,9999,9999,9999,2514988116
10419,7,Jits_ISO_8,88,9999,9999,9999,2515788868
10419,7,Jits_ISO_8,89,9999,9999,9999,2516588664
10419,7,Jits_ISO_8,90,9999,9999,9999,2517388384
10419,7,Jits_ISO_8,91,9999,9999,9999,2518188084
10419,7,Jits_ISO_8,92,9999,9999,9999,2518988860
10419,7,Jits_ISO_8,93,9999,9999,9999,2519788656
10419,7,Jits_ISO_8,94,9999,9999,9999,2520588368
10419,7,Jits_ISO_8,95,9999,9999,9999,2521388148
10419,7,Jits_ISO_8,96,9999,9999,9999,2522188916
10419,7,Jits_ISO_8,97,9999,9999,9999,2522988624
10419,7,Jits_ISO_8,98,9999,9999,9999,2523788348
10419,7,Jits_ISO_8,99,9999,9999,9999,2524588136
10419,7,Jits_ISO_8,100,9999,9999,9999,2525388888
10419,7,Jits_ISO_8,101,9999,9999,9999,2526188616
10419,7,Jits_ISO_8,102,9999,9999,9999,2526988396
10419,7,Jits_ISO_8,103,9999,9999,9999,2527788104
10419,7,Jits_ISO_8,104,9999,9999,9999,2528588864
10419,7,Jits_ISO_8,105,9999,9999,9999,2529388652
10419,7,Jits_ISO_8,106,9999,9999,9999,2530188352
10419,7,Jits_ISO_8,107,9999,9999,9999,2530988120
10419,7,Jits_ISO_8,108,9999,9999,9999,2531788876
10419,7,Jits_ISO_8,109,9999,9999,9999,2532588604
10419,7,Jits_ISO_8,110,9999,9999,9999,2533388404
10419,7,Jits_ISO_8,111,9999,9999,9999,2534188116
10419,7,Jits_ISO_8,112,9999,9999,9999,2534988884
10419,7,Jits_ISO_8,113,9999,9999,9999,2535788612
10419,7,Jits_ISO_8,114,9999,9999,9999,2536588412
10419,7,Jits_ISO_8,115,9999,9999,9999,2537388120
10419,7,Jits_ISO_8,116,9999,9999,9999,2538188896
10419,7,Jits_ISO_8,117,9999,9999,9999,2538988644
10419,7,Jits_ISO_8,118,9999,9999,9999,2539788356
10419,7,Jits_ISO_8,119,9999,9999,9999,2540588152
10420,5,ISIP_5,0,5,42,127,2612149720
10420,5,ISIP_5,1,5,42,127,2612650484
10420,5,ISIP_5,2,5,42,127,2613149976
10420,5,ISIP_5,3,5,42,127,2613649844
10420,5,ISIP_5,4,5,42,127,2614149556
10420,5,ISIP_5,5,1,48,46,2614179752
10420,5,ISIP_5,6,5,42,127,2614650300
10420,5,ISIP_5,7,1,48,40,2614680568
10420,5,ISIP_5,8,5,42,127,2615149924
10420,5,ISIP_5,9,1,48,43,2615206520
10420,5,ISIP_5,10,5,42,127,2615649544
10420,5,ISIP_5,11,1,48,38,2615656776
10420,5,ISIP_5,12,5,42,127,2616150656
10420,5,ISIP_5,13,1,48,41,2616209052
10420,5,ISIP_5,14,5,42,127,2616650128
10420,5,ISIP_5,15,1,48,33,2616692588
10420,5,ISIP_5,16,5,42,127,2617149748
10420,5,ISIP_5,17,1,48,39,2617200664
10420,5,ISIP_5,18,5,42,127,2617649592
10420,5,ISIP_5,19,1,48,60,2617672232
10420,5,ISIP_5,20,5,42,127,2618150256
10420,5,ISIP_5,21,1,48,35,2618160332
10420,5,ISIP_5,22,5,42,127,2618650024
10420,5,ISIP_5,23,1,48,45,2618656960
10420,5,ISIP_5,24,5,42,127,2619149796
10420,5,ISIP_5,25,1,48,46,2619174604
10420,5,ISIP_5,26,5,42,127,2619650684
10420,5,ISIP_5,27,1,48,46,2619657472
10420,5,ISIP_5,28,5,42,127,2620150532
10420,5,ISIP_5,29,1,48,50,2620155972
10420,5,ISIP_5,30,5,42,127,2620649780
10420,5,ISIP_5,31,1,48,41,2620662472
10420,5,ISIP_5,32,5,42,127,2621149624
10420,5,ISIP_5,33,1,48,38,2621185652
10420,5,ISIP_5,34,5,42,127,2621650512
10420,5,ISIP_5,35,1,48,39,2621675172
10420,5,ISIP_5,36,5,42,127,2622149884
10420,5,ISIP_5,37,1,48,40,2622159236
10420,5,ISIP_5,38,5,42,127,2622649728
10420,5,ISIP_5,39,1,48,27,2622665040
10420,5,ISIP_5,40,5,42,127,2623149500
10420,5,ISIP_5,41,1,48,45,2623164736
10420,5,ISIP_5,42,1,48,46,2623641672
10420,5,ISIP_5,43,5,42,127,2623650008
10420,5,ISIP_5,44,1,48,48,2624132912
10420,5,ISIP_5,45,5,42,127,2624150004
10420,5,ISIP_5,46,1,48,38,2624622216
10420,5,ISIP_5,47,5,42,127,2624649480
10420,5,ISIP_5,48,5,42,127,2625150600
10420,5,ISIP_5,49,1,48,49,2625153048
10420,5,ISIP_5,50,5,42,127,2625649996
10420,5,ISIP_5,51,1,48,34,2625667324
10420,5,ISIP_5,52,5,42,127,2626149836
10420,5,ISIP_5,53,1,48,50,2626168140
10420,5,ISIP_5,54,5,42,127,2626649608
10420,5,ISIP_5,55,1,48,57,2626658336
10420,5,ISIP_5,56,5,42,127,2627150052
10420,5,ISIP_5,57,1,48,40,2627158928
10420,5,ISIP_5,58,1,48,44,2627642452
10420,5,ISIP_5,59,5,42,127,2627649816
10420,5,ISIP_5,60,1,48,47,2628126436
10420,5,ISIP_5,61,5,42,127,2628149584
10420,5,ISIP_5,62,1,48,50,2628621720
10420,5,ISIP_5,63,5,42,127,2628650624
10420,5,ISIP_5,64,1,48,46,2629139216
10420,5,ISIP_5,65,5,42,127,2629149948
10420,5,ISIP_5,66,1,48,47,2629648592
10420,5,ISIP_5,67,5,42,127,2629650016
10420,5,ISIP_5,68,1,48,48,2630146384
10420,5,ISIP_5,69,5,42,127,2630149560
10420,5,ISIP_5,70,5,42,127,2630650160
10420,5,ISIP_5,71,1,48,48,2630653128
10420,5,ISIP_5,72,1,48,48,2631131636
10420,5,ISIP_5,73,5,42,127,2631149848
10420,5,ISIP_5,74,5,42,127,2631649772
10420,5,ISIP_5,75,1,48,37,2631656856
10420,5,ISIP_5,76,1,48,42,2632184740
10420,5,ISIP_5,77,1,48,46,2632695504
10420,5,ISIP_5,78,1,48,41,2633200432
10420,5,ISIP_5,79,1,48,45,2633699528
10420,5,ISIP_5,80,1,48,43,2634244176
10420,5,ISIP_5,81,1,48,44,2634735784
10420,5,ISIP_5,82,1,48,46,2635272352
10420,5,ISIP_5,83,1,48,42,2635759548
10420,5,ISIP_5,84,1,48,46,2636296488
10420,5,ISIP_5,85,1,48,43,2636863872
10420,5,ISIP_5,86,1,48,42,2637378368
10420,5,ISIP_5,87,1,48,43,2637954432
10420,5,ISIP_5,88,1,48,45,2638459584
10420,5,ISIP_5,89,1,48,44,2639007144
10420,5,ISIP_5,90,1,48,32,2639544384
10420,5,ISIP_5,91,1,48,38,2640087704
10420,5,ISIP_5,92,1,48,35,2640608936
10420,5,ISIP_5,93,1,48,23,2641115732
10420,5,ISIP_5,94,1,48,41,2641655452
10420,5,ISIP_5,95,1,48,47,2642162776
10420,5,ISIP_5,96,1,48,45,2642685276
10420,5,ISIP_5,97,1,48,45,2643221620
10420,5,ISIP_5,98,1,48,44,2643729540
10420,5,ISIP_5,99,1,48,46,2644276048
10420,5,ISIP_5,100,1,48,47,2644766240
10420,5,ISIP_5,101,1,48,43,2645291068
10420,5,ISIP_5,102,1,48,43,2645810724
10420,5,ISIP_5,103,1,48,46,2646329640
10420,5,ISIP_5,104,1,48,44,2646874656
10420,5,ISIP_5,105,1,48,43,2647388784
10420,5,ISIP_5,106,1,48,38,2647901416
10420,5,ISIP_5,107,1,48,47,2648394000
10420,5,ISIP_5,108,1,48,48,2648912016
10420,5,ISIP_5,109,1,48,49,2649410660
10420,5,ISIP_5,110,1,48,46,2649935180
10420,5,ISIP_5,111,1,48,45,2650447512
10420,5,ISIP_5,112,1,48,52,2650987072
10420,5,ISIP_5,113,1,48,45,2651520868
10420,5,ISIP_5,114,1,48,52,2652029612
10420,5,ISIP_5,115,1,48,48,2652582556
10420,5,ISIP_5,116,1,48,47,2653107308
10420,5,ISIP_5,117,1,48,48,2653627788
10420,5,ISIP_5,118,1,48,41,2654168360
10420,5,ISIP_5,119,1,48,45,2654656204
10420,5,ISIP_5,120,1,48,46,2655177584
10420,5,ISIP_5,121,1,48,43,2655720088
10420,5,ISIP_5,122,1,48,49,2656231368
10420,5,ISIP_5,123,1,48,45,2656769956
10420,5,ISIP_5,124,1,48,48,2657285280
10420,5,ISIP_5,125,1,48,38,2657826260
10420,5,ISIP_5,126,1,48,36,2658358712
10420,5,ISIP_5,127,1,48,49,2658878072
10420,5,ISIP_5,128,1,48,46,2659405584
10420,5,ISIP_5,129,1,48,47,2659938492
10420,5,ISIP_5,130,1,48,44,2660444760
10420,5,ISIP_5,131,1,48,44,2660963224
10420,5,ISIP_5,132,1,48,46,2661476304
10420,5,ISIP_5,133,1,48,45,2661963352
10420,5,ISIP_5,134,1,48,44,2662503136
10420,5,ISIP_5,135,1,48,46,2663028784
10420,5,ISIP_5,136,1,48,45,2663540660
10420,5,ISIP_5,137,1,48,42,2664094284
10420,5,ISIP_5,138,1,48,45,2664572060
10420,5,ISIP_5,139,1,48,38,2665136748
10420,5,ISIP_5,140,1,48,44,2665689288
10420,5,ISIP_5,141,1,48,42,2666233032
10420,5,ISIP_5,142,1,48,42,2666760548
10420,5,ISIP_5,143,1,48,46,2667311476
10420,5,ISIP_5,144,1,48,43,2667886636
10420,5,ISIP_5,145,1,48,42,2668398820
10420,5,ISIP_5,146,1,48,44,2668954228
10420,5,ISIP_5,147,1,48,46,2669502388
10420,5,ISIP_5,148,1,48,41,2670023172
10420,5,ISIP_5,149,1,48,41,2670594544
10420,5,ISIP_5,150,1,48,44,2671114880
10420,5,ISIP_5,151,1,48,46,2671655200
10420,5,ISIP_5,152,1,48,43,2672157736
10420,5,ISIP_5,153,1,48,48,2672707988
10420,5,ISIP_5,154,1,48,46,2673254272
10420,5,ISIP_5,155,1,48,43,2673787928
10420,5,ISIP_5,156,1,48,40,2674351196
10420,5,ISIP_5,157,1,48,44,2674887908
10420,5,ISIP_5,158,1,48,47,2675446264
10420,5,ISIP_5,159,1,48,46,2676005420
10420,5,ISIP_5,160,1,48,51,2676556872
10420,5,ISIP_5,161,1,48,43,2677095684
10420,5,ISIP_5,162,1,48,44,2677622976
10420,5,ISIP_5,163,1,48,45,2678188948
10420,5,ISIP_5,164,1,48,44,2678712268
10420,5,ISIP_5,165,1,48,38,2679268008
10420,5,ISIP_5,166,1,48,38,2679828964
10420,5,ISIP_5,167,1,48,45,2680369568
10420,5,ISIP_5,168,1,48,51,2680941064
10420,5,ISIP_5,169,1,48,46,2681449508
10420,5,ISIP_5,170,1,48,45,2682020400
10420,5,ISIP_5,171,1,48,48,2682553076
10420,5,ISIP_5,172,1,48,42,2683091536
10420,5,ISIP_5,173,1,48,44,2683634088
10420,5,ISIP_5,174,1,48,48,2684150172
10420,5,ISIP_5,175,1,48,45,2684686212
10420,5,ISIP_5,176,1,48,45,2685239236
10420,5,ISIP_5,177,1,48,43,2685784256
10420,5,ISIP_5,178,1,48,40,2686314388
10420,5,ISIP_5,179,1,48,36,2686854320
10420,5,ISIP_5,180,1,48,45,2687368596
10420,5,ISIP_5,181,1,48,42,2687898808
10420,5,ISIP_5,182,1,48,43,2688431776
10420,5,ISIP_5,183,1,48,55,2688978992
10420,5,ISIP_5,184,1,48,46,2689560884
10420,5,ISIP_5,185,1,48,40,2690061992
10420,5,ISIP_5,186,1,48,41,2690597140
10420,5,ISIP_5,187,1,48,43,2691141112
10420,5,ISIP_5,188,1,48,46,2691686292
10420,5,ISIP_5,0,9999,9999,9999,2612147284
10420,5,ISIP_5,1,9999,9999,9999,2612648044
10420,5,ISIP_5,2,9999,9999,9999,2613147760
10420,5,ISIP_5,3,9999,9999,9999,2613647480
10420,5,ISIP_5,4,9999,9999,9999,2614147120
10420,5,ISIP_5,5,9999,9999,9999,2614647864
10420,5,ISIP_5,6,9999,9999,9999,2615147632
10420,5,ISIP_5,7,9999,9999,9999,2615647328
10420,5,ISIP_5,8,9999,9999,9999,2616148068
10420,5,ISIP_5,9,9999,9999,9999,2616647764
10420,5,ISIP_5,10,9999,9999,9999,2617147456
10420,5,ISIP_5,11,9999,9999,9999,2617647152
10420,5,ISIP_5,12,9999,9999,9999,2618147892
10420,5,ISIP_5,13,9999,9999,9999,2618647660
10420,5,ISIP_5,14,9999,9999,9999,2619147360
10420,5,ISIP_5,15,9999,9999,9999,2619648100
10420,5,ISIP_5,16,9999,9999,9999,2620147796
10420,5,ISIP_5,17,9999,9999,9999,2620647492
10420,5,ISIP_5,18,9999,9999,9999,2621147184
10420,5,ISIP_5,19,9999,9999,9999,2621647928
10420,5,ISIP_5,20,9999,9999,9999,2622147672
10420,5,ISIP_5,21,9999,9999,9999,2622647368
10420,5,ISIP_5,22,9999,9999,9999,2623147060
10420,5,ISIP_5,23,9999,9999,9999,2623647796
10420,5,ISIP_5,24,9999,9999,9999,2624147568
10420,5,ISIP_5,25,9999,9999,9999,2624647264
10420,5,ISIP_5,26,9999,9999,9999,2625148012
10420,5,ISIP_5,27,9999,9999,9999,2625647708
10420,5,ISIP_5,28,9999,9999,9999,2626147400
10420,5,ISIP_5,29,9999,9999,9999,2626647096
10420,5,ISIP_5,30,9999,9999,9999,2627147836
10420,5,ISIP_5,31,9999,9999,9999,2627647600
10420,5,ISIP_5,32,9999,9999,9999,2628147296
10420,5,ISIP_5,33,9999,9999,9999,2628648040
10420,5,ISIP_5,34,9999,9999,9999,2629147736
10420,5,ISIP_5,35,9999,9999,9999,2629647436
10420,5,ISIP_5,36,9999,9999,9999,2630147124
10420,5,ISIP_5,37,9999,9999,9999,2630647872
10420,5,ISIP_5,38,9999,9999,9999,2631147636
10420,5,ISIP_5,39,9999,9999,9999,2631647336
10420,5,ISIP_5,40,9999,9999,9999,2632148076
10420,5,ISIP_5,41,9999,9999,9999,2632647744
10420,5,ISIP_5,42,9999,9999,9999,2633147508
10420,5,ISIP_5,43,9999,9999,9999,2633647200
10420,5,ISIP_5,44,9999,9999,9999,2634147936
10420,5,ISIP_5,45,9999,9999,9999,2634647628
10420,5,ISIP_5,46,9999,9999,9999,2635147320
10420,5,ISIP_5,47,9999,9999,9999,2635648060
10420,5,ISIP_5,48,9999,9999,9999,2636147824
10420,5,ISIP_5,49,9999,9999,9999,2636647516
10420,5,ISIP_5,50,9999,9999,9999,2637147204
10420,5,ISIP_5,51,9999,9999,9999,2637647944
10420,5,ISIP_5,52,9999,9999,9999,2638147632
10420,5,ISIP_5,53,9999,9999,9999,2638647400
10420,5,ISIP_5,54,9999,9999,9999,2639147092
10420,5,ISIP_5,55,9999,9999,9999,2639647828
10420,5,ISIP_5,56,9999,9999,9999,2640147532
10420,5,ISIP_5,57,9999,9999,9999,2640647224
10420,5,ISIP_5,58,9999,9999,9999,2641147960
10420,5,ISIP_5,59,9999,9999,9999,2641647732
10420,5,ISIP_5,60,9999,9999,9999,2642147424
10420,5,ISIP_5,61,9999,9999,9999,2642647112
10420,5,ISIP_5,62,9999,9999,9999,2643147828
10420,5,ISIP_5,63,9999,9999,9999,2643647592
10420,5,ISIP_5,64,9999,9999,9999,2644147280
10420,5,ISIP_5,65,9999,9999,9999,2644648020
10420,5,ISIP_5,66,9999,9999,9999,2645147708
10420,5,ISIP_5,67,9999,9999,9999,2645647476
10420,5,ISIP_5,68,9999,9999,9999,2646147164
10420,5,ISIP_5,69,9999,9999,9999,2646647900
10420,5,ISIP_5,70,9999,9999,9999,2647147592
10420,5,ISIP_5,71,9999,9999,9999,2647647284
10420,5,ISIP_5,72,9999,9999,9999,2648148020
10420,5,ISIP_5,73,9999,9999,9999,2648647788
10420,5,ISIP_5,74,9999,9999,9999,2649147476
10420,5,ISIP_5,75,9999,9999,9999,2649647168
10420,5,ISIP_5,76,9999,9999,9999,2650147904
10420,5,ISIP_5,77,9999,9999,9999,2650647672
10420,5,ISIP_5,78,9999,9999,9999,2651147364
10420,5,ISIP_5,79,9999,9999,9999,2651648104
10420,5,ISIP_5,80,9999,9999,9999,2652147792
10420,5,ISIP_5,81,9999,9999,9999,2652647496
10420,5,ISIP_5,82,9999,9999,9999,2653147188
10420,5,ISIP_5,83,9999,9999,9999,2653647924
10420,5,ISIP_5,84,9999,9999,9999,2654147672
10420,5,ISIP_5,85,9999,9999,9999,2654647360
10420,5,ISIP_5,86,9999,9999,9999,2655147128
10420,5,ISIP_5,87,9999,9999,9999,2655647864
10420,5,ISIP_5,88,9999,9999,9999,2656147556
10420,5,ISIP_5,89,9999,9999,9999,2656647248
10420,5,ISIP_5,90,9999,9999,9999,2657147984
10420,5,ISIP_5,91,9999,9999,9999,2657647676
10420,5,ISIP_5,92,9999,9999,9999,2658147440
10420,5,ISIP_5,93,9999,9999,9999,2658647128
10420,5,ISIP_5,94,9999,9999,9999,2659147868
10420,5,ISIP_5,95,9999,9999,9999,2659647556
10420,5,ISIP_5,96,9999,9999,9999,2660147248
10420,5,ISIP_5,97,9999,9999,9999,2660647988
10420,5,ISIP_5,98,9999,9999,9999,2661147752
10420,5,ISIP_5,99,9999,9999,9999,2661647444
10420,5,ISIP_5,100,9999,9999,9999,2662147132
10420,5,ISIP_5,101,9999,9999,9999,2662647872
10420,5,ISIP_5,102,9999,9999,9999,2663147636
10420,5,ISIP_5,103,9999,9999,9999,2663647324
10420,5,ISIP_5,104,9999,9999,9999,2664148076
10420,5,ISIP_5,105,9999,9999,9999,2664647744
10420,5,ISIP_5,106,9999,9999,9999,2665147508
10420,5,ISIP_5,107,9999,9999,9999,2665647208
10420,5,ISIP_5,108,9999,9999,9999,2666147944
10420,5,ISIP_5,109,9999,9999,9999,2666647632
10420,5,ISIP_5,110,9999,9999,9999,2667147324
10420,5,ISIP_5,111,9999,9999,9999,2667648064
10420,5,ISIP_5,112,9999,9999,9999,2668147828
10420,5,ISIP_5,113,9999,9999,9999,2668647520
10420,5,ISIP_5,114,9999,9999,9999,2669147208
10420,5,ISIP_5,115,9999,9999,9999,2669647944
10420,5,ISIP_5,116,9999,9999,9999,2670147636
10420,5,ISIP_5,117,9999,9999,9999,2670647416
10420,5,ISIP_5,118,9999,9999,9999,2671147108
10420,5,ISIP_5,119,9999,9999,9999,2671647852
10420,5,ISIP_5,120,9999,9999,9999,2672147544
10420,5,ISIP_5,121,9999,9999,9999,2672647236
10420,5,ISIP_5,122,9999,9999,9999,2673147972
10420,5,ISIP_5,123,9999,9999,9999,2673647664
10420,5,ISIP_5,124,9999,9999,9999,2674147428
10420,5,ISIP_5,125,9999,9999,9999,2674647120
10420,5,ISIP_5,126,9999,9999,9999,2675147856
10420,5,ISIP_5,127,9999,9999,9999,2675647596
10420,5,ISIP_5,128,9999,9999,9999,2676147288
10420,5,ISIP_5,129,9999,9999,9999,2676648040
10420,5,ISIP_5,130,9999,9999,9999,2677147732
10420,5,ISIP_5,131,9999,9999,9999,2677647420
10420,5,ISIP_5,132,9999,9999,9999,2678147192
10420,5,ISIP_5,133,9999,9999,9999,2678647928
10420,5,ISIP_5,134,9999,9999,9999,2679147620
10420,5,ISIP_5,135,9999,9999,9999,2679647308
10420,5,ISIP_5,136,9999,9999,9999,2680148048
10420,5,ISIP_5,137,9999,9999,9999,2680647740
10420,5,ISIP_5,138,9999,9999,9999,2681147504
10420,5,ISIP_5,139,9999,9999,9999,2681647196
10420,5,ISIP_5,140,9999,9999,9999,2682147932
10420,5,ISIP_5,141,9999,9999,9999,2682647620
10420,5,ISIP_5,142,9999,9999,9999,2683147328
10420,5,ISIP_5,143,9999,9999,9999,2683648068
10420,5,ISIP_5,144,9999,9999,9999,2684147760
10420,5,ISIP_5,145,9999,9999,9999,2684647528
10420,5,ISIP_5,146,9999,9999,9999,2685147216
10420,5,ISIP_5,147,9999,9999,9999,2685647956
10420,5,ISIP_5,148,9999,9999,9999,2686147696
10420,5,ISIP_5,149,9999,9999,9999,2686647388
10420,5,ISIP_5,150,9999,9999,9999,2687147080
10420,5,ISIP_5,151,9999,9999,9999,2687647816
10420,5,ISIP_5,152,9999,9999,9999,2688147504
10420,5,ISIP_5,153,9999,9999,9999,2688647268
10420,5,ISIP_5,154,9999,9999,9999,2689148008
10420,5,ISIP_5,155,9999,9999,9999,2689647712
10420,5,ISIP_5,156,9999,9999,9999,2690147404
10420,5,ISIP_5,157,9999,9999,9999,2690647096
10420,5,ISIP_5,158,9999,9999,9999,2691147832
10420,5,ISIP_5,159,9999,9999,9999,2691647604
10421,3,ISIP_8,0,5,42,127,2716791192
10421,3,ISIP_8,1,5,42,127,2717590796
10421,3,ISIP_8,2,5,42,127,2718390924
10421,3,ISIP_8,3,5,42,127,2719191380
10421,3,ISIP_8,4,1,48,52,2719973740
10421,3,ISIP_8,5,5,42,127,2719991200
10421,3,ISIP_8,6,1,48,53,2720752832
10421,3,ISIP_8,7,5,42,127,2720790864
10421,3,ISIP_8,8,1,48,47,2721580464
10421,3,ISIP_8,9,5,42,127,2721590596
10421,3,ISIP_8,10,1,48,46,2722347436
10421,3,ISIP_8,11,5,42,127,2722391524
10421,3,ISIP_8,12,1,48,46,2723148892
10421,3,ISIP_8,13,5,42,127,2723191036
10421,3,ISIP_8,14,5,42,127,2723990924
10421,3,ISIP_8,15,1,48,42,2723998832
10421,3,ISIP_8,16,1,48,43,2724742968
10421,3,ISIP_8,17,5,42,127,2724790652
10421,3,ISIP_8,18,1,48,46,2725554448
10421,3,ISIP_8,19,5,42,127,2725591380
10421,3,ISIP_8,20,1,48,44,2726340792
10421,3,ISIP_8,21,5,42,127,2726391188
10421,3,ISIP_8,22,1,48,48,2727138380
10421,3,ISIP_8,23,5,42,127,2727190848
10421,3,ISIP_8,24,1,48,46,2727933772
10421,3,ISIP_8,25,5,42,127,2727990580
10421,3,ISIP_8,26,1,48,51,2728730444
10421,3,ISIP_8,27,5,42,127,2728791588
10421,3,ISIP_8,28,1,48,48,2729456128
10421,3,ISIP_8,29,5,42,127,2729591156
10421,3,ISIP_8,30,1,48,47,2730356988
10421,3,ISIP_8,31,5,42,127,2730390832
10421,3,ISIP_8,32,1,48,48,2731133012
10421,3,ISIP_8,33,5,42,127,2731190564
10421,3,ISIP_8,34,1,48,46,2731944188
10421,3,ISIP_8,35,5,42,127,2731991592
10421,3,ISIP_8,36,1,48,43,2732728812
10421,3,ISIP_8,37,5,42,127,2732791100
10421,3,ISIP_8,38,1,48,43,2733524008
10421,3,ISIP_8,39,5,42,127,2733590984
10421,3,ISIP_8,40,1,48,40,2734336976
10421,3,ISIP_8,41,5,42,127,2734390716
10421,3,ISIP_8,42,1,48,46,2735149800
10421,3,ISIP_8,43,5,42,127,2735191572
10421,3,ISIP_8,44,1,48,45,2735940108
10421,3,ISIP_8,45,5,42,127,2735991156
10421,3,ISIP_8,46,1,48,49,2736784572
10421,3,ISIP_8,47,5,42,127,2736790888
10421,3,ISIP_8,48,1,48,44,2737572708
10421,3,ISIP_8,49,5,42,127,2737590768
10421,3,ISIP_8,50,5,42,127,2738391508
10421,3,ISIP_8,51,1,48,50,2738419460
10421,3,ISIP_8,52,1,48,43,2739152908
10421,3,ISIP_8,53,5,42,127,2739191088
10421,3,ISIP_8,54,1,48,50,2739969544
10421,3,ISIP_8,55,5,42,127,2739990892
10421,3,ISIP_8,56,1,48,41,2740754916
10421,3,ISIP_8,57,1,48,47,2741577232
10421,3,ISIP_8,58,1,48,47,2742348016
10421,3,ISIP_8,59,1,48,45,2743163672
10421,3,ISIP_8,60,1,48,41,2743955476
10421,3,ISIP_8,61,1,48,46,2744720500
10421,3,ISIP_8,62,1,48,44,2745498912
10421,3,ISIP_8,63,1,48,44,2746279944
10421,3,ISIP_8,64,1,48,39,2747068072
10421,3,ISIP_8,65,1,48,46,2747832948
10421,3,ISIP_8,66,1,48,40,2748607388
10421,3,ISIP_8,67,1,48,43,2749382288
10421,3,ISIP_8,68,1,48,40,2750141852
10421,3,ISIP_8,69,1,48,43,2750928884
10421,3,ISIP_8,70,1,48,38,2751699896
10421,3,ISIP_8,71,1,48,37,2752498204
10421,3,ISIP_8,72,1,48,43,2753297856
10421,3,ISIP_8,73,1,48,44,2754100508
10421,3,ISIP_8,74,1,48,39,2754901580
10421,3,ISIP_8,75,1,48,51,2755681492
10421,3,ISIP_8,76,1,48,44,2756474856
10421,3,ISIP_8,77,1,48,46,2757272564
10421,3,ISIP_8,78,1,48,42,2758045748
10421,3,ISIP_8,79,1,48,14,2758450592
10421,3,ISIP_8,80,1,48,47,2758877640
10421,3,ISIP_8,81,1,48,44,2759694424
10421,3,ISIP_8,82,1,48,47,2760438352
10421,3,ISIP_8,83,1,48,38,2761210260
10421,3,ISIP_8,84,1,48,49,2761993608
10421,3,ISIP_8,85,1,48,44,2762781368
10421,3,ISIP_8,86,1,48,48,2763573764
10421,3,ISIP_8,87,1,48,42,2764353152
10421,3,ISIP_8,88,1,48,49,2765162008
10421,3,ISIP_8,89,1,48,45,2765955972
10421,3,ISIP_8,90,1,48,48,2766765504
10421,3,ISIP_8,91,1,48,40,2767586648
10421,3,ISIP_8,92,1,48,47,2768395124
10421,3,ISIP_8,93,1,48,38,2769159100
10421,3,ISIP_8,94,1,48,46,2769982692
10421,3,ISIP_8,95,1,48,40,2770763124
10421,3,ISIP_8,96,1,48,49,2771556340
10421,3,ISIP_8,97,1,48,43,2772324736
10421,3,ISIP_8,98,1,48,47,2773140920
10421,3,ISIP_8,99,1,48,41,2773917088
10421,3,ISIP_8,100,1,48,49,2774707016
10421,3,ISIP_8,101,1,48,48,2775486028
10421,3,ISIP_8,102,1,48,45,2776266936
10421,3,ISIP_8,103,1,48,48,2777084092
10421,3,ISIP_8,104,1,48,47,2777870280
10421,3,ISIP_8,105,1,48,40,2778641136
10421,3,ISIP_8,106,1,48,48,2779458144
10421,3,ISIP_8,107,1,48,42,2780218232
10421,3,ISIP_8,108,1,48,43,2781002108
10421,3,ISIP_8,109,1,48,43,2781807220
10421,3,ISIP_8,110,1,48,48,2782576356
10421,3,ISIP_8,111,1,48,45,2783381172
10421,3,ISIP_8,112,1,48,48,2784151060
10421,3,ISIP_8,113,1,48,42,2784963276
10421,3,ISIP_8,114,1,48,40,2785728528
10421,3,ISIP_8,115,1,48,47,2786526484
10421,3,ISIP_8,116,1,48,48,2787285672
10421,3,ISIP_8,117,1,48,45,2788046132
10421,3,ISIP_8,118,1,48,46,2788818560
10421,3,ISIP_8,119,1,48,45,2789635568
10421,3,ISIP_8,120,1,48,47,2790453700
10421,3,ISIP_8,121,1,48,45,2791248416
10421,3,ISIP_8,122,1,48,50,2791978864
10421,3,ISIP_8,123,1,48,46,2792848700
10421,3,ISIP_8,124,1,48,49,2793614164
10421,3,ISIP_8,125,1,48,47,2794420408
10421,3,ISIP_8,126,1,48,49,2795181304
10421,3,ISIP_8,127,1,48,47,2796022580
10421,3,ISIP_8,128,1,48,48,2796818344
10421,3,ISIP_8,129,1,48,45,2797627196
10421,3,ISIP_8,130,1,48,47,2798498508
10421,3,ISIP_8,131,1,48,47,2799288964
10421,3,ISIP_8,132,1,48,48,2800086844
10421,3,ISIP_8,133,1,48,47,2800867580
10421,3,ISIP_8,134,1,48,48,2801676732
10421,3,ISIP_8,135,1,48,46,2802462924
10421,3,ISIP_8,136,1,48,48,2803295344
10421,3,ISIP_8,137,1,48,51,2804093052
10421,3,ISIP_8,138,1,48,44,2804918956
10421,3,ISIP_8,139,1,48,52,2805720208
10421,3,ISIP_8,140,1,48,46,2806540056
10421,3,ISIP_8,141,1,48,50,2807354892
10421,3,ISIP_8,142,1,48,51,2808187164
10421,3,ISIP_8,143,1,48,47,2808982252
10421,3,ISIP_8,144,1,48,51,2809796044
10421,3,ISIP_8,145,1,48,48,2810644040
10421,3,ISIP_8,146,1,48,37,2811477356
10421,3,ISIP_8,147,1,48,48,2812331536
10421,3,ISIP_8,148,1,48,49,2813134956
10421,3,ISIP_8,149,1,48,43,2813982700
10421,3,ISIP_8,150,1,48,46,2814835020
10421,3,ISIP_8,151,1,48,49,2815660184
10421,3,ISIP_8,152,1,48,51,2816470704
10421,3,ISIP_8,153,1,48,46,2817333264
10421,3,ISIP_8,154,1,48,48,2818192156
10421,3,ISIP_8,155,1,48,48,2818986648
10421,3,ISIP_8,156,1,48,48,2819803756
10421,3,ISIP_8,157,1,48,52,2820634828
10421,3,ISIP_8,158,1,48,47,2821467988
10421,3,ISIP_8,159,1,48,40,2822296436
10421,3,ISIP_8,160,1,48,48,2823093172
10421,3,ISIP_8,161,1,48,48,2823847056
10421,3,ISIP_8,162,1,48,54,2824656012
10421,3,ISIP_8,163,1,48,49,2825445416
10421,3,ISIP_8,164,1,48,57,2826213656
10421,3,ISIP_8,165,1,48,48,2827010016
10421,3,ISIP_8,166,1,48,51,2827836900
10421,3,ISIP_8,167,1,48,50,2828636408
10421,3,ISIP_8,168,1,48,50,2829416384
10421,3,ISIP_8,169,1,48,52,2830198164
10421,3,ISIP_8,170,1,48,46,2831014124
10421,3,ISIP_8,171,1,48,53,2831831004
10421,3,ISIP_8,172,1,48,48,2832638660
10421,3,ISIP_8,173,1,48,49,2833472276
10421,3,ISIP_8,174,1,48,55,2834271108
10421,3,ISIP_8,175,1,48,52,2835021472
10421,3,ISIP_8,176,1,48,53,2835858604
10421,3,ISIP_8,177,1,48,48,2836686104
10421,3,ISIP_8,0,9999,9999,9999,2716788828
10421,3,ISIP_8,1,9999,9999,9999,2717588584
10421,3,ISIP_8,2,9999,9999,9999,2718388336
10421,3,ISIP_8,3,9999,9999,9999,2719189092
10421,3,ISIP_8,4,9999,9999,9999,2719988836
10421,3,ISIP_8,5,9999,9999,9999,2720788572
10421,3,ISIP_8,6,9999,9999,9999,2721588308
10421,3,ISIP_8,7,9999,9999,9999,2722389088
10421,3,ISIP_8,8,9999,9999,9999,2723188824
10421,3,ISIP_8,9,9999,9999,9999,2723988564
10421,3,ISIP_8,10,9999,9999,9999,2724788288
10421,3,ISIP_8,11,9999,9999,9999,2725589092
10421,3,ISIP_8,12,9999,9999,9999,2726388828
10421,3,ISIP_8,13,9999,9999,9999,2727188560
10421,3,ISIP_8,14,9999,9999,9999,2727988292
10421,3,ISIP_8,15,9999,9999,9999,2728789076
10421,3,ISIP_8,16,9999,9999,9999,2729588792
10421,3,ISIP_8,17,9999,9999,9999,2730388544
10421,3,ISIP_8,18,9999,9999,9999,2731188276
10421,3,ISIP_8,19,9999,9999,9999,2731989080
10421,3,ISIP_8,20,9999,9999,9999,2732788812
10421,3,ISIP_8,21,9999,9999,9999,2733588548
10421,3,ISIP_8,22,9999,9999,9999,2734388280
10421,3,ISIP_8,23,9999,9999,9999,2735189060
10421,3,ISIP_8,24,9999,9999,9999,2735988792
10421,3,ISIP_8,25,9999,9999,9999,2736788600
10421,3,ISIP_8,26,9999,9999,9999,2737588332
10421,3,ISIP_8,27,9999,9999,9999,2738389072
10421,3,ISIP_8,28,9999,9999,9999,2739188800
10421,3,ISIP_8,29,9999,9999,9999,2739988532
10421,3,ISIP_8,30,9999,9999,9999,2740788340
10421,3,ISIP_8,31,9999,9999,9999,2741589040
10421,3,ISIP_8,32,9999,9999,9999,2742388844
10421,3,ISIP_8,33,9999,9999,9999,2743188572
10421,3,ISIP_8,34,9999,9999,9999,2743988300
10421,3,ISIP_8,35,9999,9999,9999,2744789100
10421,3,ISIP_8,36,9999,9999,9999,2745588832
10421,3,ISIP_8,37,9999,9999,9999,2746388544
10421,3,ISIP_8,38,9999,9999,9999,2747188276
10421,3,ISIP_8,39,9999,9999,9999,2747989048
10421,3,ISIP_8,40,9999,9999,9999,2748788852
10421,3,ISIP_8,41,9999,9999,9999,2749588580
10421,3,ISIP_8,42,9999,9999,9999,2750388308
10421,3,ISIP_8,43,9999,9999,9999,2751189112
10421,3,ISIP_8,44,9999,9999,9999,2751988840
10421,3,ISIP_8,45,9999,9999,9999,2752788568
10421,3,ISIP_8,46,9999,9999,9999,2753588296
10421,3,ISIP_8,47,9999,9999,9999,2754389076
10421,3,ISIP_8,48,9999,9999,9999,2755188804
10421,3,ISIP_8,49,9999,9999,9999,2755988532
10421,3,ISIP_8,50,9999,9999,9999,2756788336
10421,3,ISIP_8,51,9999,9999,9999,2757589064
10421,3,ISIP_8,52,9999,9999,9999,2758388792
10421,3,ISIP_8,53,9999,9999,9999,2759188576
10421,3,ISIP_8,54,9999,9999,9999,2759988304
10421,3,ISIP_8,55,9999,9999,9999,2760789080
10421,3,ISIP_8,56,9999,9999,9999,2761588808
10421,3,ISIP_8,57,9999,9999,9999,2762388540
10421,3,ISIP_8,58,9999,9999,9999,2763188344
10421,3,ISIP_8,59,9999,9999,9999,2763989068
10421,3,ISIP_8,60,9999,9999,9999,2764788800
10421,3,ISIP_8,61,9999,9999,9999,2765588600
10421,3,ISIP_8,62,9999,9999,9999,2766388332
10421,3,ISIP_8,63,9999,9999,9999,2767189104
10421,3,ISIP_8,64,9999,9999,9999,2767988832
10421,3,ISIP_8,65,9999,9999,9999,2768788564
10421,3,ISIP_8,66,9999,9999,9999,2769588292
10421,3,ISIP_8,67,9999,9999,9999,2770389092
10421,3,ISIP_8,68,9999,9999,9999,2771188824
10421,3,ISIP_8,69,9999,9999,9999,2771988552
10421,3,ISIP_8,70,9999,9999,9999,2772788280
10421,3,ISIP_8,71,9999,9999,9999,2773589056
10421,3,ISIP_8,72,9999,9999,9999,2774388788
10421,3,ISIP_8,73,9999,9999,9999,2775188592
10421,3,ISIP_8,74,9999,9999,9999,2775988320
10421,3,ISIP_8,75,9999,9999,9999,2776789048
10421,3,ISIP_8,76,9999,9999,9999,2777588848
10421,3,ISIP_8,77,9999,9999,9999,2778388580
10421,3,ISIP_8,78,9999,9999,9999,2779188308
10421,3,ISIP_8,79,9999,9999,9999,2779989084
10421,3,ISIP_8,80,9999,9999,9999,2780788816
10421,3,ISIP_8,81,9999,9999,9999,2781588544
10421,3,ISIP_8,82,9999,9999,9999,2782388276
10421,3,ISIP_8,83,9999,9999,9999,2783189076
10421,3,ISIP_8,84,9999,9999,9999,2783988804
10421,3,ISIP_8,85,9999,9999,9999,2784788532
10421,3,ISIP_8,86,9999,9999,9999,2785588336
10421,3,ISIP_8,87,9999,9999,9999,2786389112
10421,3,ISIP_8,88,9999,9999,9999,2787188844
10421,3,ISIP_8,89,9999,9999,9999,2787988572
10421,3,ISIP_8,90,9999,9999,9999,2788788300
10421,3,ISIP_8,91,9999,9999,9999,2789589104
10421,3,ISIP_8,92,9999,9999,9999,2790388832
10421,3,ISIP_8,93,9999,9999,9999,2791188564
10421,3,ISIP_8,94,9999,9999,9999,2791988284
10421,3,ISIP_8,95,9999,9999,9999,2792789068
10421,3,ISIP_8,96,9999,9999,9999,2793588796
10421,3,ISIP_8,97,9999,9999,9999,2794388600
10421,3,ISIP_8,98,9999,9999,9999,2795188320
10421,3,ISIP_8,99,9999,9999,9999,2795989056
10421,3,ISIP_8,100,9999,9999,9999,2796788784
10421,3,ISIP_8,101,9999,9999,9999,2797588588
10421,3,ISIP_8,102,9999,9999,9999,2798388316
10421,3,ISIP_8,103,9999,9999,9999,2799189092
10421,3,ISIP_8,104,9999,9999,9999,2799988820
10421,3,ISIP_8,105,9999,9999,9999,2800788552
10421,3,ISIP_8,106,9999,9999,9999,2801588280
10421,3,ISIP_8,107,9999,9999,9999,2802389084
10421,3,ISIP_8,108,9999,9999,9999,2803188812
10421,3,ISIP_8,109,9999,9999,9999,2803988540
10421,3,ISIP_8,110,9999,9999,9999,2804788344
10421,3,ISIP_8,111,9999,9999,9999,2805589044
10421,3,ISIP_8,112,9999,9999,9999,2806388848
10421,3,ISIP_8,113,9999,9999,9999,2807188576
10421,3,ISIP_8,114,9999,9999,9999,2807988308
10421,3,ISIP_8,115,9999,9999,9999,2808789108
10421,3,ISIP_8,116,9999,9999,9999,2809588836
10421,3,ISIP_8,117,9999,9999,9999,2810388564
10421,3,ISIP_8,118,9999,9999,9999,2811188296
10421,3,ISIP_8,119,9999,9999,9999,2811989072
10421,3,ISIP_8,120,9999,9999,9999,2812788800
10421,3,ISIP_8,121,9999,9999,9999,2813588528
10421,3,ISIP_8,122,9999,9999,9999,2814388332
10421,3,ISIP_8,123,9999,9999,9999,2815189060
10421,3,ISIP_8,124,9999,9999,9999,2815988788
10421,3,ISIP_8,125,9999,9999,9999,2816788592
10421,3,ISIP_8,126,9999,9999,9999,2817588324
10421,3,ISIP_8,127,9999,9999,9999,2818389100
10421,3,ISIP_8,128,9999,9999,9999,2819188828
10421,3,ISIP_8,129,9999,9999,9999,2819988556
10421,3,ISIP_8,130,9999,9999,9999,2820788288
10421,3,ISIP_8,131,9999,9999,9999,2821589084
10421,3,ISIP_8,132,9999,9999,9999,2822388832
10421,3,ISIP_8,133,9999,9999,9999,2823188544
10421,3,ISIP_8,134,9999,9999,9999,2823988272
10421,3,ISIP_8,135,9999,9999,9999,2824789048
10421,3,ISIP_8,136,9999,9999,9999,2825588852
10421,3,ISIP_8,137,9999,9999,9999,2826388580
10421,3,ISIP_8,138,9999,9999,9999,2827188312
10421,3,ISIP_8,139,9999,9999,9999,2827989112
10421,3,ISIP_8,140,9999,9999,9999,2828788844
10421,3,ISIP_8,141,9999,9999,9999,2829588572
10421,3,ISIP_8,142,9999,9999,9999,2830388300
10421,3,ISIP_8,143,9999,9999,9999,2831189076
10421,3,ISIP_8,144,9999,9999,9999,2831988804
10421,3,ISIP_8,145,9999,9999,9999,2832788536
10421,3,ISIP_8,146,9999,9999,9999,2833588340
10421,3,ISIP_8,147,9999,9999,9999,2834389064
10421,3,ISIP_8,148,9999,9999,9999,2835188796
10421,3,ISIP_8,149,9999,9999,9999,2835988596
10422,11,Pattern_Practice,0,5,42,127,2945162632
10422,11,Pattern_Practice,1,5,42,127,2945663620
10422,11,Pattern_Practice,2,5,42,127,2946162964
10422,11,Pattern_Practice,3,5,42,127,2946662756
10422,11,Pattern_Practice,4,5,42,127,2947162696
10422,11,Pattern_Practice,5,1,48,50,2947203884
10422,11,Pattern_Practice,6,1,48,38,2947281160
10422,11,Pattern_Practice,7,5,42,127,2947663268
10422,11,Pattern_Practice,8,1,48,33,2947689200
10422,11,Pattern_Practice,9,1,48,42,2947715136
10422,11,Pattern_Practice,10,5,42,127,2948162868
10422,11,Pattern_Practice,11,1,48,37,2948186480
10422,11,Pattern_Practice,12,1,48,49,2948233880
10422,11,Pattern_Practice,13,5,42,127,2948662688
10422,11,Pattern_Practice,14,1,48,55,2948688768
10422,11,Pattern_Practice,15,1,48,41,2948773268
10422,11,Pattern_Practice,16,5,42,127,2949163704
10422,11,Pattern_Practice,17,1,48,45,2949234440
10422,11,Pattern_Practice,18,1,48,47,2949308472
10422,11,Pattern_Practice,19,5,42,127,2949663004
10422,11,Pattern_Practice,20,1,48,48,2949731796
10422,11,Pattern_Practice,21,5,42,127,2950162920
10422,11,Pattern_Practice,22,1,38,48,2950178232
10422,11,Pattern_Practice,23,1,48,61,2950279488
10422,11,Pattern_Practice,24,5,42,127,2950662520
10422,11,Pattern_Practice,25,1,38,52,2950758688
10422,11,Pattern_Practice,26,1,48,48,2950775568
10422,11,Pattern_Practice,27,5,42,127,2951163436
10422,11,Pattern_Practice,28,1,48,47,2951289748
10422,11,Pattern_Practice,29,1,38,59,2951337896
10422,11,Pattern_Practice,30,5,42,127,2951662936
10422,11,Pattern_Practice,31,1,48,51,2951805552
10422,11,Pattern_Practice,32,1,38,63,2951849440
10422,11,Pattern_Practice,33,5,42,127,2952162956
10422,11,Pattern_Practice,34,1,48,54,2952334220
10422,11,Pattern_Practice,35,1,48,38,2952390544
10422,11,Pattern_Practice,36,5,42,127,2952663524
10422,11,Pattern_Practice,37,1,48,47,2952893660
10422,11,Pattern_Practice,38,1,48,45,2952965012
10422,11,Pattern_Practice,39,5,42,127,2953163124
10422,11,Pattern_Practice,40,1,48,44,2953432472
10422,11,Pattern_Practice,41,1,38,55,2953466560
10422,11,Pattern_Practice,42,5,42,127,2953662820
10422,11,Pattern_Practice,43,1,48,54,2953930176
10422,11,Pattern_Practice,44,1,38,52,2954033968
10422,11,Pattern_Practice,45,5,42,127,2954162716
10422,11,Pattern_Practice,46,1,48,54,2954500684
10422,11,Pattern_Practice,47,1,38,61,2954567380
10422,11,Pattern_Practice,48,5,42,127,2954663264
10422,11,Pattern_Practice,49,1,48,51,2955020600
10422,11,Pattern_Practice,50,1,38,46,2955125144
10422,11,Pattern_Practice,51,5,42,127,2955163100
10422,11,Pattern_Practice,52,1,48,53,2955548172
10422,11,Pattern_Practice,53,1,38,62,2955609036
10422,11,Pattern_Practice,54,5,42,127,2955662688
10422,11,Pattern_Practice,55,1,48,55,2956066832
10422,11,Pattern_Practice,56,1,38,54,2956155520
10422,11,Pattern_Practice,57,5,42,127,2956163768
10422,11,Pattern_Practice,58,1,38,44,2956599028
10422,11,Pattern_Practice,59,5,42,127,2956663164
10422,11,Pattern_Practice,60,1,38,54,2956674792
10422,11,Pattern_Practice,61,1,38,43,2957099748
10422,11,Pattern_Practice,62,1,38,52,2957143260
10422,11,Pattern_Practice,63,5,42,127,2957162740
10422,11,Pattern_Practice,64,1,38,41,2957609516
10422,11,Pattern_Practice,65,5,42,127,2957662732
10422,11,Pattern_Practice,66,1,38,54,2957666056
10422,11,Pattern_Practice,67,1,38,44,2958156088
10422,11,Pattern_Practice,68,5,42,127,2958163376
10422,11,Pattern_Practice,69,1,38,52,2958199992
10422,11,Pattern_Practice,70,5,42,127,2958662980
10422,11,Pattern_Practice,71,1,48,55,2958698184
10422,11,Pattern_Practice,72,1,48,45,2958761072
10422,11,Pattern_Practice,73,5,42,127,2959162800
10422,11,Pattern_Practice,74,1,48,41,2959202352
10422,11,Pattern_Practice,75,5,42,127,2959662720
10422,11,Pattern_Practice,76,1,48,38,2959691196
10422,11,Pattern_Practice,77,1,48,37,2959719456
10422,11,Pattern_Practice,78,5,42,127,2960163144
10422,11,Pattern_Practice,79,1,48,58,2960181448
10422,11,Pattern_Practice,80,1,38,48,2960658836
10422,11,Pattern_Practice,81,5,42,127,2960662832
10422,11,Pattern_Practice,82,1,38,60,2960733700
10422,11,Pattern_Practice,83,1,38,51,2961161832
10422,11,Pattern_Practice,84,5,42,127,2961164744
10422,11,Pattern_Practice,85,1,38,55,2961234272
10422,11,Pattern_Practice,86,5,42,127,2961663304
10422,11,Pattern_Practice,87,1,48,56,2961700752
10422,11,Pattern_Practice,88,1,48,46,2961729156
10422,11,Pattern_Practice,89,5,42,127,2962163124
10422,11,Pattern_Practice,90,1,48,55,2962172676
10422,11,Pattern_Practice,91,1,48,46,2962204072
10422,11,Pattern_Practice,92,5,42,127,2962662724
10422,11,Pattern_Practice,93,1,38,51,2962670552
10422,11,Pattern_Practice,94,1,38,38,2962773456
10422,11,Pattern_Practice,95,5,42,127,2963162696
10422,11,Pattern_Practice,96,1,38,46,2963178608
10422,11,Pattern_Practice,97,1,38,51,2963201472
10422,11,Pattern_Practice,98,1,48,54,2963651184
10422,11,Pattern_Practice,99,5,42,127,2963663184
10422,11,Pattern_Practice,100,1,48,48,2963697552
10422,11,Pattern_Practice,101,1,48,39,2964162868
10422,11,Pattern_Practice,102,5,42,127,2964164204
10422,11,Pattern_Practice,103,1,38,47,2964654040
10422,11,Pattern_Practice,104,5,42,127,2964662752
10422,11,Pattern_Practice,105,1,38,62,2964723624
10422,11,Pattern_Practice,106,1,38,46,2965134496
10422,11,Pattern_Practice,107,5,42,127,2965163472
10422,11,Pattern_Practice,108,1,38,46,2965194052
10422,11,Pattern_Practice,109,1,48,57,2965656228
10422,11,Pattern_Practice,110,5,42,127,2965662996
10422,11,Pattern_Practice,111,1,48,38,2965713996
10422,11,Pattern_Practice,112,5,42,127,2966162752
10422,11,Pattern_Practice,113,1,48,53,2966166692
10422,11,Pattern_Practice,114,1,48,42,2966195692
10422,11,Pattern_Practice,115,1,38,53,2966648320
10422,11,Pattern_Practice,116,5,42,127,2966662716
10422,11,Pattern_Practice,117,1,38,50,2966703740
10422,11,Pattern_Practice,118,1,38,45,2967135800
10422,11,Pattern_Practice,119,5,42,127,2967163212
10422,11,Pattern_Practice,120,1,38,55,2967168188
10422,11,Pattern_Practice,121,1,48,67,2967625228
10422,11,Pattern_Practice,122,5,42,127,2967663032
10422,11,Pattern_Practice,123,1,48,35,2967684912
10422,11,Pattern_Practice,124,1,48,54,2968131036
10422,11,Pattern_Practice,125,1,48,48,2968160036
10422,11,Pattern_Practice,126,5,42,127,2968162688
10422,11,Pattern_Practice,127,1,38,49,2968636992
10422,11,Pattern_Practice,128,5,42,127,2968663508
10422,11,Pattern_Practice,129,1,38,47,2968725176
10422,11,Pattern_Practice,130,1,38,51,2969135020
10422,11,Pattern_Practice,131,5,42,127,2969163252
10422,11,Pattern_Practice,132,1,38,55,2969183036
10422,11,Pattern_Practice,133,5,42,127,2969662712
10422,11,Pattern_Practice,134,1,48,54,2969664572
10422,11,Pattern_Practice,135,1,48,49,2969692060
10422,11,Pattern_Practice,136,1,48,52,2970161852
10422,11,Pattern_Practice,137,5,42,127,2970163348
10422,11,Pattern_Practice,138,1,48,41,2970224796
10422,11,Pattern_Practice,139,1,38,51,2970659396
10422,11,Pattern_Practice,140,5,42,127,2970663468
10422,11,Pattern_Practice,141,1,38,44,2970734864
10422,11,Pattern_Practice,142,1,38,42,2971139920
10422,11,Pattern_Practice,143,5,42,127,2971162992
10422,11,Pattern_Practice,144,1,38,52,2971194364
10422,11,Pattern_Practice,145,5,42,127,2971662672
10422,11,Pattern_Practice,146,1,48,57,2971664460
10422,11,Pattern_Practice,147,1,48,39,2971722768
10422,11,Pattern_Practice,148,1,48,57,2972162868
10422,11,Pattern_Practice,149,5,42,127,2972163980
10422,11,Pattern_Practice,150,1,48,46,2972198652
10422,11,Pattern_Practice,151,1,38,54,2972659284
10422,11,Pattern_Practice,152,5,42,127,2972663280
10422,11,Pattern_Practice,153,1,38,43,2972749264
10422,11,Pattern_Practice,154,1,38,50,2973158512
10422,11,Pattern_Practice,155,5,42,127,2973162804
10422,11,Pattern_Practice,156,1,38,54,2973189768
10422,11,Pattern_Practice,157,1,48,66,2973659456
10422,11,Pattern_Practice,158,5,42,127,2973662552
10422,11,Pattern_Practice,159,1,48,59,2974149872
10422,11,Pattern_Practice,160,5,42,127,2974163516
10422,11,Pattern_Practice,161,1,48,43,2974193848
10422,11,Pattern_Practice,162,1,38,57,2974632992
10422,11,Pattern_Practice,163,5,42,127,2974662892
10422,11,Pattern_Practice,164,1,38,49,2974749172
10422,11,Pattern_Practice,165,1,38,48,2975120768
10422,11,Pattern_Practice,166,5,42,127,2975162760
10422,11,Pattern_Practice,167,1,38,53,2975171200
10422,11,Pattern_Practice,168,5,42,127,2975662516
10422,11,Pattern_Practice,169,1,48,64,2975665108
10422,11,Pattern_Practice,170,5,42,127,2976163332
10422,11,Pattern_Practice,171,1,48,56,2976178200
10422,11,Pattern_Practice,172,1,48,43,2976218296
10422,11,Pattern_Practice,173,5,42,127,2976662860
10422,11,Pattern_Practice,174,1,38,57,2976672408
10422,11,Pattern_Practice,175,1,38,50,2976730004
10422,11,Pattern_Practice,176,1,38,52,2977158824
10422,11,Pattern_Practice,177,5,42,127,2977162600
10422,11,Pattern_Practice,178,1,38,50,2977195100
10422,11,Pattern_Practice,179,1,38,21,2977279620
10422,11,Pattern_Practice,180,5,42,127,2977663528
10422,11,Pattern_Practice,181,1,48,55,2977676596
10422,11,Pattern_Practice,182,1,48,45,2977729108
10422,11,Pattern_Practice,183,5,42,127,2978162976
10422,11,Pattern_Practice,184,1,48,57,2978177316
10422,11,Pattern_Practice,185,1,48,44,2978253684
10422,11,Pattern_Practice,186,5,42,127,2978662648
10422,11,Pattern_Practice,187,1,38,54,2978675792
10422,11,Pattern_Practice,188,1,38,53,2978734112
10422,11,Pattern_Practice,189,1,38,50,2979160724
10422,11,Pattern_Practice,190,5,42,127,2979163808
10422,11,Pattern_Practice,191,1,38,46,2979193464
10422,11,Pattern_Practice,192,1,48,58,2979660232
10422,11,Pattern_Practice,193,5,42,127,2979663408
10422,11,Pattern_Practice,194,1,48,34,2979731060
10422,11,Pattern_Practice,195,5,42,127,2980162940
10422,11,Pattern_Practice,196,1,48,46,2980170396
10422,11,Pattern_Practice,197,1,48,46,2980217496
10422,11,Pattern_Practice,198,1,38,48,2980647312
10422,11,Pattern_Practice,199,5,42,127,2980662532
10422,11,Pattern_Practice,200,1,38,59,2980703484
10422,11,Pattern_Practice,201,1,38,55,2981112800
10422,11,Pattern_Practice,202,1,38,49,2981160724
10422,11,Pattern_Practice,203,5,42,127,2981163600
10422,11,Pattern_Practice,204,1,48,56,2981611956
10422,11,Pattern_Practice,205,5,42,127,2981663372
10422,11,Pattern_Practice,206,1,48,44,2981680840
10422,11,Pattern_Practice,207,1,48,39,2982147900
10422,11,Pattern_Practice,208,5,42,127,2982162748
10422,11,Pattern_Practice,209,1,48,52,2982177072
10422,11,Pattern_Practice,210,1,38,53,2982632844
10422,11,Pattern_Practice,211,5,42,127,2982662496
10422,11,Pattern_Practice,212,1,38,58,2982719680
10422,11,Pattern_Practice,213,1,38,58,2983132888
10422,11,Pattern_Practice,214,5,42,127,2983163436
10422,11,Pattern_Practice,215,1,38,52,2983180308
10422,11,Pattern_Practice,216,1,48,59,2983612116
10422,11,Pattern_Practice,217,5,42,127,2983662812
10422,11,Pattern_Practice,218,1,48,44,2983696732
10422,11,Pattern_Practice,219,1,48,52,2984111340
10422,11,Pattern_Practice,220,1,48,54,2984132884
10422,11,Pattern_Practice,221,5,42,127,2984162540
10422,11,Pattern_Practice,222,1,38,54,2984603232
10422,11,Pattern_Practice,223,5,42,127,2984663500
10422,11,Pattern_Practice,224,1,38,50,2984705204
10422,11,Pattern_Practice,225,1,38,47,2985095948
10422,11,Pattern_Practice,226,1,38,55,2985137136
10422,11,Pattern_Practice,0,9999,9999,9999,2945160272
10422,11,Pattern_Practice,1,9999,9999,9999,2945661036
10422,11,Pattern_Practice,2,9999,9999,9999,2946160752
10422,11,Pattern_Practice,3,9999,9999,9999,2946660468
10422,11,Pattern_Practice,4,9999,9999,9999,2947160184
10422,11,Pattern_Practice,5,9999,9999,9999,2947660904
10422,11,Pattern_Practice,6,9999,9999,9999,2948160580
10422,11,Pattern_Practice,7,9999,9999,9999,2948660328
10422,11,Pattern_Practice,8,9999,9999,9999,2949161044
10422,11,Pattern_Practice,9,9999,9999,9999,2949660792
10422,11,Pattern_Practice,10,9999,9999,9999,2950160488
10422,11,Pattern_Practice,11,9999,9999,9999,2950660160
10422,11,Pattern_Practice,12,9999,9999,9999,2951160924
10422,11,Pattern_Practice,13,9999,9999,9999,2951660648
10422,11,Pattern_Practice,14,9999,9999,9999,2952160372
10422,11,Pattern_Practice,15,9999,9999,9999,2952661092
10422,11,Pattern_Practice,16,9999,9999,9999,2953160764
10422,11,Pattern_Practice,17,9999,9999,9999,2953660536
10422,11,Pattern_Practice,18,9999,9999,9999,2954160208
10422,11,Pattern_Practice,19,9999,9999,9999,2954660976
10422,11,Pattern_Practice,20,9999,9999,9999,2955160664
10422,11,Pattern_Practice,21,9999,9999,9999,2955660400
10422,11,Pattern_Practice,22,9999,9999,9999,2956160076
10422,11,Pattern_Practice,23,9999,9999,9999,2956660800
10422,11,Pattern_Practice,24,9999,9999,9999,2957160528
10422,11,Pattern_Practice,25,9999,9999,9999,2957660220
10422,11,Pattern_Practice,26,9999,9999,9999,2958161016
10422,11,Pattern_Practice,27,9999,9999,9999,2958660696
10422,11,Pattern_Practice,28,9999,9999,9999,2959160440
10422,11,Pattern_Practice,29,9999,9999,9999,2959660136
10422,11,Pattern_Practice,30,9999,9999,9999,2960160856
10422,11,Pattern_Practice,31,9999,9999,9999,2960660544
10422,11,Pattern_Practice,32,9999,9999,9999,2961160300
10422,11,Pattern_Practice,33,9999,9999,9999,2961661016
10422,11,Pattern_Practice,34,9999,9999,9999,2962160692
10422,11,Pattern_Practice,35,9999,9999,9999,2962660440
10422,11,Pattern_Practice,36,9999,9999,9999,2963160184
10422,11,Pattern_Practice,37,9999,9999,9999,2963660900
10422,11,Pattern_Practice,38,9999,9999,9999,2964160580
10422,11,Pattern_Practice,39,9999,9999,9999,2964660316
10422,11,Pattern_Practice,40,9999,9999,9999,2965161040
10422,11,Pattern_Practice,41,9999,9999,9999,2965660784
10422,11,Pattern_Practice,42,9999,9999,9999,2966160464
10422,11,Pattern_Practice,43,9999,9999,9999,2966660208
10422,11,Pattern_Practice,44,9999,9999,9999,2967160924
10422,11,Pattern_Practice,45,9999,9999,9999,2967660600
10422,11,Pattern_Practice,46,9999,9999,9999,2968160328
10422,11,Pattern_Practice,47,9999,9999,9999,2968661072
10422,11,Pattern_Practice,48,9999,9999,9999,2969160820
10422,11,Pattern_Practice,49,9999,9999,9999,2969660500
10422,11,Pattern_Practice,50,9999,9999,9999,2970160244
10422,11,Pattern_Practice,51,9999,9999,9999,2970660960
10422,11,Pattern_Practice,52,9999,9999,9999,2971160628
10422,11,Pattern_Practice,53,9999,9999,9999,2971660384
10422,11,Pattern_Practice,54,9999,9999,9999,2972160060
10422,11,Pattern_Practice,55,9999,9999,9999,2972660848
10422,11,Pattern_Practice,56,9999,9999,9999,2973160520
10422,11,Pattern_Practice,57,9999,9999,9999,2973660268
10422,11,Pattern_Practice,58,9999,9999,9999,2974161008
10422,11,Pattern_Practice,59,9999,9999,9999,2974660680
10422,11,Pattern_Practice,60,9999,9999,9999,2975160400
10422,11,Pattern_Practice,61,9999,9999,9999,2975660080
10422,11,Pattern_Practice,62,9999,9999,9999,2976160824
10422,11,Pattern_Practice,63,9999,9999,9999,2976660572
10422,11,Pattern_Practice,64,9999,9999,9999,2977160312
10422,11,Pattern_Practice,65,9999,9999,9999,2977661016
10422,11,Pattern_Practice,66,9999,9999,9999,2978160688
10422,11,Pattern_Practice,67,9999,9999,9999,2978660436
10422,11,Pattern_Practice,68,9999,9999,9999,2979160128
10422,11,Pattern_Practice,69,9999,9999,9999,2979660896
10422,11,Pattern_Practice,70,9999,9999,9999,2980160576
10422,11,Pattern_Practice,71,9999,9999,9999,2980660320
10422,11,Pattern_Practice,72,9999,9999,9999,2981161016
10422,11,Pattern_Practice,73,9999,9999,9999,2981660788
10422,11,Pattern_Practice,74,9999,9999,9999,2982160460
10422,11,Pattern_Practice,75,9999,9999,9999,2982660208
10422,11,Pattern_Practice,76,9999,9999,9999,2983160928
10422,11,Pattern_Practice,77,9999,9999,9999,2983660600
10422,11,Pattern_Practice,78,9999,9999,9999,2984160328
10422,11,Pattern_Practice,79,9999,9999,9999,2984661068
10423,13,Improv_Metronome,0,5,42,127,3018612196
10423,13,Improv_Metronome,1,5,42,127,3019111764
10423,13,Improv_Metronome,2,5,42,127,3019611408
10423,13,Improv_Metronome,3,1,48,51,3020092684
10423,13,Improv_Metronome,4,5,42,127,3020112236
10423,13,Improv_Metronome,5,1,48,57,3020145332
10423,13,Improv_Metronome,6,1,48,49,3020575748
10423,13,Improv_Metronome,7,5,42,127,3020611984
10423,13,Improv_Metronome,8,1,48,68,3020639700
10423,13,Improv_Metronome,9,5,42,127,3021111516
10423,13,Improv_Metronome,10,1,38,40,3021132888
10423,13,Improv_Metronome,11,1,38,69,3021173476
10423,13,Improv_Metronome,12,1,38,43,3021609428
10423,13,Improv_Metronome,13,5,42,127,3021612380
10423,13,Improv_Metronome,14,1,38,57,3021652804
10423,13,Improv_Metronome,15,1,48,69,3022100348
10423,13,Improv_Metronome,16,5,42,127,3022112052
10423,13,Improv_Metronome,17,1,48,52,3022139616
10423,13,Improv_Metronome,18,5,42,127,3022611880
10423,13,Improv_Metronome,19,1,48,53,3022614400
10423,13,Improv_Metronome,20,1,48,51,3022651632
10423,13,Improv_Metronome,21,1,38,55,3023107020
10423,13,Improv_Metronome,22,5,42,127,3023111472
10423,13,Improv_Metronome,23,1,38,76,3023179276
10423,13,Improv_Metronome,24,1,38,34,3023592488
10423,13,Improv_Metronome,25,5,42,127,3023612416
10423,13,Improv_Metronome,26,1,38,24,3023658752
10423,13,Improv_Metronome,27,1,48,57,3024058852
10423,13,Improv_Metronome,28,5,42,127,3024111940
10423,13,Improv_Metronome,29,1,48,56,3024184976
10423,13,Improv_Metronome,30,5,42,127,3024611840
10423,13,Improv_Metronome,31,1,48,39,3024632840
10423,13,Improv_Metronome,32,1,48,54,3024669916
10423,13,Improv_Metronome,33,5,42,127,3025112412
10423,13,Improv_Metronome,34,1,38,54,3025118748
10423,13,Improv_Metronome,35,1,38,69,3025186044
10423,13,Improv_Metronome,36,1,38,52,3025599928
10423,13,Improv_Metronome,37,5,42,127,3025612156
10423,13,Improv_Metronome,38,1,38,45,3025643980
10423,13,Improv_Metronome,39,1,48,75,3026110628
10423,13,Improv_Metronome,40,5,42,127,3026112200
10423,13,Improv_Metronome,41,5,42,127,3026611504
10423,13,Improv_Metronome,42,1,38,29,3026614772
10423,13,Improv_Metronome,43,5,42,127,3027112172
10423,13,Improv_Metronome,44,1,48,53,3027123668
10423,13,Improv_Metronome,45,1,38,69,3027592076
10423,13,Improv_Metronome,46,5,42,127,3027611932
10423,13,Improv_Metronome,47,1,48,65,3028079880
10423,13,Improv_Metronome,48,5,42,127,3028111852
10423,13,Improv_Metronome,49,1,38,62,3028537836
10423,13,Improv_Metronome,50,5,42,127,3028611324
10423,13,Improv_Metronome,51,1,38,44,3029034464
10423,13,Improv_Metronome,52,5,42,127,3029112068
10423,13,Improv_Metronome,53,1,38,61,3029125496
10423,13,Improv_Metronome,54,1,38,48,3029583804
10423,13,Improv_Metronome,55,5,42,127,3029612040
10423,13,Improv_Metronome,56,1,38,76,3029621500
10423,13,Improv_Metronome,57,5,42,127,3030111716
10423,13,Improv_Metronome,58,1,48,53,3030112684
10423,13,Improv_Metronome,59,1,48,48,3030179588
10423,13,Improv_Metronome,60,5,42,127,3030612288
10423,13,Improv_Metronome,61,1,48,64,3030616156
10423,13,Improv_Metronome,62,1,48,53,3030648144
10423,13,Improv_Metronome,63,5,42,127,3031111960
10423,13,Improv_Metronome,64,1,38,49,3031119340
10423,13,Improv_Metronome,65,1,38,69,3031189328
10423,13,Improv_Metronome,66,1,38,50,3031602616
10423,13,Improv_Metronome,67,5,42,127,3031611848
10423,13,Improv_Metronome,68,1,38,66,3031689528
10423,13,Improv_Metronome,69,5,42,127,3032111452
10423,13,Improv_Metronome,70,1,48,59,3032132148
10423,13,Improv_Metronome,71,1,38,52,3032601308
10423,13,Improv_Metronome,72,5,42,127,3032612336
10423,13,Improv_Metronome,73,5,42,127,3033111964
10423,13,Improv_Metronome,74,1,48,48,3033124060
10423,13,Improv_Metronome,75,1,38,63,3033595912
10423,13,Improv_Metronome,76,5,42,127,3033611652
10423,13,Improv_Metronome,77,1,48,47,3034095080
10423,13,Improv_Metronome,78,5,42,127,3034112320
10423,13,Improv_Metronome,79,1,38,84,3034163904
10423,13,Improv_Metronome,80,1,48,58,3034570432
10423,13,Improv_Metronome,81,5,42,127,3034612056
10423,13,Improv_Metronome,82,1,38,72,3034660056
10423,13,Improv_Metronome,83,1,48,63,3035071064
10423,13,Improv_Metronome,84,5,42,127,3035111864
10423,13,Improv_Metronome,85,1,48,38,3035588484
10423,13,Improv_Metronome,86,5,42,127,3035611412
10423,13,Improv_Metronome,87,1,48,57,3035690212
10423,13,Improv_Metronome,88,1,48,44,3036059040
10423,13,Improv_Metronome,89,5,42,127,3036112352
10423,13,Improv_Metronome,90,1,48,56,3036207004
10423,13,Improv_Metronome,91,1,38,62,3036588480
10423,13,Improv_Metronome,92,5,42,127,3036612024
10423,13,Improv_Metronome,93,1,38,54,3036680280
10423,13,Improv_Metronome,94,1,38,41,3037000040
10423,13,Improv_Metronome,95,5,42,127,3037111508
10423,13,Improv_Metronome,96,1,38,50,3037123852
10423,13,Improv_Metronome,97,1,48,72,3037603456
10423,13,Improv_Metronome,98,5,42,127,3037612392
10423,13,Improv_Metronome,99,1,48,51,3037646116
10423,13,Improv_Metronome,100,5,42,127,3038111996
10423,13,Improv_Metronome,101,1,48,55,3038113260
10423,13,Improv_Metronome,102,1,48,51,3038173908
10423,13,Improv_Metronome,103,1,38,59,3038601080
10423,13,Improv_Metronome,104,5,42,127,3038611888
10423,13,Improv_Metronome,105,1,38,66,3038671264
10423,13,Improv_Metronome,106,1,38,55,3039089608
10423,13,Improv_Metronome,107,5,42,127,3039111412
10423,13,Improv_Metronome,108,1,38,77,3039157672
10423,13,Improv_Metronome,109,1,48,66,3039603120
10423,13,Improv_Metronome,110,5,42,127,3039612280
10423,13,Improv_Metronome,111,1,38,66,3040061152
10423,13,Improv_Metronome,112,5,42,127,3040111976
10423,13,Improv_Metronome,113,1,48,54,3040552172
10423,13,Improv_Metronome,114,5,42,127,3040611892
10423,13,Improv_Metronome,115,1,38,57,3041047224
10423,13,Improv_Metronome,116,5,42,127,3041112336
10423,13,Improv_Metronome,117,1,38,75,3041513184
10423,13,Improv_Metronome,118,5,42,127,3041613360
10423,13,Improv_Metronome,119,1,48,56,3041979124
10423,13,Improv_Metronome,120,5,42,127,3042112080
10423,13,Improv_Metronome,121,1,48,63,3042467300
10423,13,Improv_Metronome,122,5,42,127,3042611552
10423,13,Improv_Metronome,123,1,48,58,3042917924
10423,13,Improv_Metronome,124,5,42,127,3043112444
10423,13,Improv_Metronome,125,1,38,71,3043433928
10423,13,Improv_Metronome,126,5,42,127,3043612140
10423,13,Improv_Metronome,127,1,38,67,3043895172
10423,13,Improv_Metronome,128,5,42,127,3044111984
10423,13,Improv_Metronome,129,1,38,58,3044382456
10423,13,Improv_Metronome,130,1,38,62,3044454688
10423,13,Improv_Metronome,131,5,42,127,3044611360
10423,13,Improv_Metronome,132,1,38,48,3044859836
10423,13,Improv_Metronome,133,1,38,76,3044922124
10423,13,Improv_Metronome,134,5,42,127,3045112152
10423,13,Improv_Metronome,135,1,48,76,3045354800
10423,13,Improv_Metronome,136,1,48,38,3045439372
10423,13,Improv_Metronome,137,5,42,127,3045611976
10423,13,Improv_Metronome,138,1,48,57,3045864044
10423,13,Improv_Metronome,139,1,48,56,3045893568
10423,13,Improv_Metronome,140,5,42,127,3046111572
10423,13,Improv_Metronome,141,1,38,56,3046344640
10423,13,Improv_Metronome,142,1,38,63,3046394140
10423,13,Improv_Metronome,143,5,42,127,3046612368
10423,13,Improv_Metronome,144,1,38,35,3046619752
10423,13,Improv_Metronome,145,1,38,48,3046882892
10423,13,Improv_Metronome,146,1,38,70,3046895884
10423,13,Improv_Metronome,147,1,38,26,3046987940
10423,13,Improv_Metronome,148,5,42,127,3047112072
10423,13,Improv_Metronome,149,1,48,64,3047401544
10423,13,Improv_Metronome,150,1,48,51,3047472724
10423,13,Improv_Metronome,151,5,42,127,3047612040
10423,13,Improv_Metronome,152,1,48,73,3047904428
10423,13,Improv_Metronome,153,1,48,53,3047941208
10423,13,Improv_Metronome,154,5,42,127,3048111392
10423,13,Improv_Metronome,155,1,38,62,3048409784
10423,13,Improv_Metronome,156,1,38,71,3048473264
10423,13,Improv_Metronome,157,5,42,127,3048612184
10423,13,Improv_Metronome,158,1,38,54,3048901304
10423,13,Improv_Metronome,159,1,38,67,3048954916
10423,13,Improv_Metronome,160,5,42,127,3049112008
10423,13,Improv_Metronome,161,1,38,58,3049443688
10423,13,Improv_Metronome,162,5,42,127,3049611552
10423,13,Improv_Metronome,163,1,48,57,3049948320
10423,13,Improv_Metronome,164,5,42,127,3050112292
10423,13,Improv_Metronome,165,1,38,75,3050442180
10423,13,Improv_Metronome,166,5,42,127,3050612288
10423,13,Improv_Metronome,167,1,48,61,3051003060
10423,13,Improv_Metronome,168,5,42,127,3051111980
10423,13,Improv_Metronome,169,1,38,73,3051539032
10423,13,Improv_Metronome,170,5,42,127,3051611768
10423,13,Improv_Metronome,171,1,48,59,3052060416
10423,13,Improv_Metronome,172,5,42,127,3052112136
10423,13,Improv_Metronome,173,1,38,73,3052527728
10423,13,Improv_Metronome,174,5,42,127,3052611984
10423,13,Improv_Metronome,175,1,48,76,3052614352
10423,13,Improv_Metronome,176,1,38,59,3052917936
10423,13,Improv_Metronome,177,1,48,71,3053058856
10423,13,Improv_Metronome,178,5,42,127,3053111996
10423,13,Improv_Metronome,179,1,38,18,3053191840
10423,13,Improv_Metronome,180,5,42,127,3053612276
10423,13,Improv_Metronome,181,1,38,65,3053613836
10423,13,Improv_Metronome,182,5,42,127,3054112044
10423,13,Improv_Metronome,183,1,38,49,3054127504
10423,13,Improv_Metronome,184,1,48,54,3054605260
10423,13,Improv_Metronome,185,5,42,127,3054611956
10423,13,Improv_Metronome,186,1,48,54,3054620896
10423,13,Improv_Metronome,187,1,48,59,3055096632
10423,13,Improv_Metronome,188,5,42,127,3055111480
10423,13,Improv_Metronome,189,1,48,59,3055115928
10423,13,Improv_Metronome,190,1,48,65,3055582020
10423,13,Improv_Metronome,191,5,42,127,3055612272
10423,13,Improv_Metronome,192,1,48,38,3055687404
10423,13,Improv_Metronome,193,1,48,65,3056095904
10423,13,Improv_Metronome,194,5,42,127,3056111872
10423,13,Improv_Metronome,195,1,48,56,3056161500
10423,13,Improv_Metronome,196,1,38,71,3056603432
10423,13,Improv_Metronome,197,5,42,127,3056611620
10423,13,Improv_Metronome,198,1,38,34,3056659004
10423,13,Improv_Metronome,199,1,38,48,3057102356
10423,13,Improv_Metronome,200,5,42,127,3057112564
10423,13,Improv_Metronome,201,1,38,69,3057141396
10423,13,Improv_Metronome,202,1,48,70,3057597240
10423,13,Improv_Metronome,203,5,42,127,3057612088
10423,13,Improv_Metronome,204,1,48,59,3057658420
10423,13,Improv_Metronome,205,5,42,127,3058111840
10423,13,Improv_Metronome,206,1,48,66,3058115404
10423,13,Improv_Metronome,207,1,48,48,3058167144
10423,13,Improv_Metronome,208,5,42,127,3058611712
10423,13,Improv_Metronome,209,1,38,65,3058619500
10423,13,Improv_Metronome,210,1,38,60,3058649916
10423,13,Improv_Metronome,211,1,38,51,3059105812
10423,13,Improv_Metronome,212,5,42,127,3059112424
10423,13,Improv_Metronome,213,1,38,66,3059153256
10423,13,Improv_Metronome,214,1,48,81,3059603540
10423,13,Improv_Metronome,215,5,42,127,3059612028
10423,13,Improv_Metronome,216,5,42,127,3060111804
10423,13,Improv_Metronome,217,1,38,74,3060130556
10423,13,Improv_Metronome,218,1,48,70,3060611348
10423,13,Improv_Metronome,219,5,42,127,3060612688
10423,13,Improv_Metronome,220,1,38,60,3061086020
10423,13,Improv_Metronome,221,5,42,127,3061112160
10423,13,Improv_Metronome,222,1,38,59,3061117960
10423,13,Improv_Metronome,223,1,38,67,3061563328
10423,13,Improv_Metronome,224,5,42,127,3061611836
10423,13,Improv_Metronome,225,1,48,52,3062046048
10423,13,Improv_Metronome,226,5,42,127,3062111680
10423,13,Improv_Metronome,227,1,38,61,3062545596
10423,13,Improv_Metronome,228,5,42,127,3062612420
10423,13,Improv_Metronome,229,1,48,64,3063019256
10423,13,Improv_Metronome,230,1,48,74,3063035916
10423,13,Improv_Metronome,231,5,42,127,3063112168
10423,13,Improv_Metronome,232,1,48,73,3063507784
10423,13,Improv_Metronome,233,5,42,127,3063611700
10423,13,Improv_Metronome,234,1,48,54,3064022444
10423,13,Improv_Metronome,235,5,42,127,3064111412
10423,13,Improv_Metronome,236,1,38,63,3064509720
10423,13,Improv_Metronome,237,1,38,57,3064530196
10423,13,Improv_Metronome,238,5,42,127,3064612204
10423,13,Improv_Metronome,239,1,38,62,3065011160
10423,13,Improv_Metronome,240,5,42,127,3065112032
10423,13,Improv_Metronome,241,1,48,63,3065528440
10423,13,Improv_Metronome,242,1,38,69,3065547600
10423,13,Improv_Metronome,243,5,42,127,3065611736
10423,13,Improv_Metronome,244,1,48,59,3066030936
10423,13,Improv_Metronome,245,1,38,72,3066101192
10423,13,Improv_Metronome,246,5,42,127,3066112292
10423,13,Improv_Metronome,247,1,48,64,3066554304
10423,13,Improv_Metronome,248,1,38,62,3066609128
10423,13,Improv_Metronome,249,5,42,127,3066612004
10423,13,Improv_Metronome,250,1,48,60,3067063888
10423,13,Improv_Metronome,251,5,42,127,3067111668
10423,13,Improv_Metronome,252,1,38,59,3067145380
10423,13,Improv_Metronome,253,1,38,61,3067595136
10423,13,Improv_Metronome,254,5,42,127,3067611552
10423,13,Improv_Metronome,255,5,42,127,3068112228
10423,13,Improv_Metronome,256,1,48,67,3068135544
10423,13,Improv_Metronome,257,5,42,127,3068611920
10423,13,Improv_Metronome,258,1,38,61,3068627456
10423,13,Improv_Metronome,259,5,42,127,3069111740
10423,13,Improv_Metronome,260,1,48,44,3069124604
10423,13,Improv_Metronome,261,1,48,67,3069141196
10423,13,Improv_Metronome,262,5,42,127,3069612388
10423,13,Improv_Metronome,263,1,38,58,3069629072
10423,13,Improv_Metronome,264,1,48,59,3070106132
10423,13,Improv_Metronome,265,5,42,127,3070112224
10423,13,Improv_Metronome,266,1,48,57,3070134248
10423,13,Improv_Metronome,267,1,48,60,3070601692
10423,13,Improv_Metronome,268,5,42,127,3070611672
10423,13,Improv_Metronome,269,1,38,52,3071049620
10423,13,Improv_Metronome,270,1,38,61,3071068900
10423,13,Improv_Metronome,271,5,42,127,3071111716
10423,13,Improv_Metronome,272,1,38,51,3071544732
10423,13,Improv_Metronome,273,5,42,127,3071612160
10423,13,Improv_Metronome,274,1,38,68,3072027596
10423,13,Improv_Metronome,275,5,42,127,3072111856
10423,13,Improv_Metronome,276,1,48,58,3072539712
10423,13,Improv_Metronome,277,5,42,127,3072611772
10423,13,Improv_Metronome,278,1,38,63,3073058028
10423,13,Improv_Metronome,279,5,42,127,3073112292
10423,13,Improv_Metronome,280,1,48,70,3073545460
10423,13,Improv_Metronome,281,5,42,127,3073612140
10423,13,Improv_Metronome,282,1,38,64,3074083976
10423,13,Improv_Metronome,283,5,42,127,3074111980
10423,13,Improv_Metronome,284,1,38,57,3074576864
10423,13,Improv_Metronome,285,5,42,127,3074611676
10423,13,Improv_Metronome,286,1,38,53,3075071620
10423,13,Improv_Metronome,287,5,42,127,3075112196
10423,13,Improv_Metronome,288,1,48,54,3075570564
10423,13,Improv_Metronome,289,1,48,67,3075598448
10423,13,Improv_Metronome,290,5,42,127,3075612016
10423,13,Improv_Metronome,291,1,48,72,3076090364
10423,13,Improv_Metronome,292,5,42,127,3076111712
10423,13,Improv_Metronome,293,1,38,60,3076575168
10423,13,Improv_Metronome,294,5,42,127,3076611408
10423,13,Improv_Metronome,295,1,48,60,3077094984
10423,13,Improv_Metronome,296,5,42,127,3077112072
10423,13,Improv_Metronome,297,1,48,73,3077567752
10423,13,Improv_Metronome,298,5,42,127,3077611844
10423,13,Improv_Metronome,299,1,38,55,3078054780
10423,13,Improv_Metronome,300,1,38,62,3078080140
10423,13,Improv_Metronome,301,5,42,127,3078111588
10423,13,Improv_Metronome,302,1,48,54,3078525728
10423,13,Improv_Metronome,303,1,48,63,3078548220
10423,13,Improv_Metronome,304,5,42,127,3078612384
10423,13,Improv_Metronome,305,1,38,60,3079051056
10423,13,Improv_Metronome,306,5,42,127,3079112004
10423,13,Improv_Metronome,307,1,38,57,3079521436
10423,13,Improv_Metronome,308,5,42,127,3079611844
10423,13,Improv_Metronome,309,1,48,64,3080025912
10423,13,Improv_Metronome,310,5,42,127,3080111592
10423,13,Improv_Metronome,311,1,38,59,3080528820
10423,13,Improv_Metronome,312,5,42,127,3080612108
10423,13,Improv_Metronome,313,1,48,67,3081034804
10423,13,Improv_Metronome,314,5,42,127,3081111952
10423,13,Improv_Metronome,315,1,38,67,3081541752
10423,13,Improv_Metronome,316,5,42,127,3081611720
10423,13,Improv_Metronome,317,1,38,52,3082052668
10423,13,Improv_Metronome,318,1,38,54,3082068424
10423,13,Improv_Metronome,319,5,42,127,3082112364
10423,13,Improv_Metronome,320,1,38,57,3082543588
10423,13,Improv_Metronome,321,5,42,127,3082612060
10423,13,Improv_Metronome,322,1,48,75,3083034228
10423,13,Improv_Metronome,323,5,42,127,3083111756
10423,13,Improv_Metronome,324,1,38,56,3083151732
10423,13,Improv_Metronome,325,5,42,127,3083611732
10423,13,Improv_Metronome,326,1,48,83,3083612696
10423,13,Improv_Metronome,327,5,42,127,3084112300
10423,13,Improv_Metronome,328,1,48,71,3084151768
10423,13,Improv_Metronome,329,5,42,127,3084611844
10423,13,Improv_Metronome,330,1,38,60,3084627676
10423,13,Improv_Metronome,331,5,42,127,3085111688
10423,13,Improv_Metronome,332,1,48,55,3085120116
10423,13,Improv_Metronome,333,5,42,127,3085612428
10423,13,Improv_Metronome,334,1,38,70,3085617492
10423,13,Improv_Metronome,335,1,48,69,3086109540
10423,13,Improv_Metronome,336,5,42,127,3086112044
10423,13,Improv_Metronome,337,5,42,127,3086611744
10423,13,Improv_Metronome,338,1,38,62,3086626908
10423,13,Improv_Metronome,339,5,42,127,3087111660
10423,13,Improv_Metronome,340,1,48,57,3087140808
10423,13,Improv_Metronome,341,5,42,127,3087612404
10423,13,Improv_Metronome,342,1,48,26,3087625620
10423,13,Improv_Metronome,343,1,48,62,3087635096
10423,13,Improv_Metronome,344,1,48,57,3088094236
10423,13,Improv_Metronome,345,5,42,127,3088111920
10423,13,Improv_Metronome,346,1,48,60,3088123624
10423,13,Improv_Metronome,347,1,38,70,3088595476
10423,13,Improv_Metronome,0,9999,9999,9999,3018609764
10423,13,Improv_Metronome,1,9999,9999,9999,3019109480
10423,13,Improv_Metronome,2,9999,9999,9999,3019609196
10423,13,Improv_Metronome,3,9999,9999,9999,3020109876
10423,13,Improv_Metronome,4,9999,9999,9999,3020609624
10423,13,Improv_Metronome,5,9999,9999,9999,3021109304
10423,13,Improv_Metronome,6,9999,9999,9999,3021610092
10423,13,Improv_Metronome,7,9999,9999,9999,3022109764
10423,13,Improv_Metronome,8,9999,9999,9999,3022609520
10423,13,Improv_Metronome,9,9999,9999,9999,3023109184
10423,13,Improv_Metronome,10,9999,9999,9999,3023609908
10423,13,Improv_Metronome,11,9999,9999,9999,3024109652
10423,13,Improv_Metronome,12,9999,9999,9999,3024609332
10423,13,Improv_Metronome,13,9999,9999,9999,3025110128
10423,13,Improv_Metronome,14,9999,9999,9999,3025609792
10423,13,Improv_Metronome,15,9999,9999,9999,3026109548
10423,13,Improv_Metronome,16,9999,9999,9999,3026609216
10423,13,Improv_Metronome,17,9999,9999,9999,3027109956
10423,13,Improv_Metronome,18,9999,9999,9999,3027609648
10423,13,Improv_Metronome,19,9999,9999,9999,3028109416
10423,13,Improv_Metronome,20,9999,9999,9999,3028609112
10423,13,Improv_Metronome,21,9999,9999,9999,3029109856
10423,13,Improv_Metronome,22,9999,9999,9999,3029609528
10423,13,Improv_Metronome,23,9999,9999,9999,3030109284
10423,13,Improv_Metronome,24,9999,9999,9999,3030610000
10423,13,Improv_Metronome,25,9999,9999,9999,3031109748
10423,13,Improv_Metronome,26,9999,9999,9999,3031609412
10423,13,Improv_Metronome,27,9999,9999,9999,3032109168
10423,13,Improv_Metronome,28,9999,9999,9999,3032609900
10423,13,Improv_Metronome,29,9999,9999,9999,3033109604
10423,13,Improv_Metronome,30,9999,9999,9999,3033609292
10423,13,Improv_Metronome,31,9999,9999,9999,3034110036
10423,13,Improv_Metronome,32,9999,9999,9999,3034609768
10423,13,Improv_Metronome,33,9999,9999,9999,3035109428
10423,13,Improv_Metronome,34,9999,9999,9999,3035609200
10423,13,Improv_Metronome,35,9999,9999,9999,3036109916
10423,13,Improv_Metronome,36,9999,9999,9999,3036609588
10423,13,Improv_Metronome,37,9999,9999,9999,3037109296
10423,13,Improv_Metronome,38,9999,9999,9999,3037610104
10423,13,Improv_Metronome,39,9999,9999,9999,3038109784
10423,13,Improv_Metronome,40,9999,9999,9999,3038609528
10423,13,Improv_Metronome,41,9999,9999,9999,3039109200
10423,13,Improv_Metronome,42,9999,9999,9999,3039609920
10423,13,Improv_Metronome,43,9999,9999,9999,3040109688
10423,13,Improv_Metronome,44,9999,9999,9999,3040609384
10423,13,Improv_Metronome,45,9999,9999,9999,3041110124
10423,13,Improv_Metronome,46,9999,9999,9999,3041609820
10423,13,Improv_Metronome,47,9999,9999,9999,3042109496
10423,13,Improv_Metronome,48,9999,9999,9999,3042609268
10423,13,Improv_Metronome,49,9999,9999,9999,3043110008
10423,13,Improv_Metronome,50,9999,9999,9999,3043609704
10423,13,Improv_Metronome,51,9999,9999,9999,3044109400
10423,13,Improv_Metronome,52,9999,9999,9999,3044609072
10423,13,Improv_Metronome,53,9999,9999,9999,3045109868
10423,13,Improv_Metronome,54,9999,9999,9999,3045609540
10423,13,Improv_Metronome,55,9999,9999,9999,3046109288
10423,13,Improv_Metronome,56,9999,9999,9999,3046610008
10423,13,Improv_Metronome,57,9999,9999,9999,3047109708
10423,13,Improv_Metronome,58,9999,9999,9999,3047609432
10423,13,Improv_Metronome,59,9999,9999,9999,3048109104
10423,13,Improv_Metronome,60,9999,9999,9999,3048609896
10423,13,Improv_Metronome,61,9999,9999,9999,3049109572
10423,13,Improv_Metronome,62,9999,9999,9999,3049609268
10423,13,Improv_Metronome,63,9999,9999,9999,3050110008
10423,13,Improv_Metronome,64,9999,9999,9999,3050609776
10423,13,Improv_Metronome,65,9999,9999,9999,3051109472
10423,13,Improv_Metronome,66,9999,9999,9999,3051609180
10423,13,Improv_Metronome,67,9999,9999,9999,3052109924
10423,13,Improv_Metronome,68,9999,9999,9999,3052609620
10423,13,Improv_Metronome,69,9999,9999,9999,3053109336
10423,13,Improv_Metronome,70,9999,9999,9999,3053610060
10423,13,Improv_Metronome,71,9999,9999,9999,3054109756
10423,13,Improv_Metronome,72,9999,9999,9999,3054609520
10423,13,Improv_Metronome,73,9999,9999,9999,3055109192
10423,13,Improv_Metronome,74,9999,9999,9999,3055609912
10423,13,Improv_Metronome,75,9999,9999,9999,3056109660
10423,13,Improv_Metronome,76,9999,9999,9999,3056609332
10423,13,Improv_Metronome,77,9999,9999,9999,3057110128
10423,13,Improv_Metronome,78,9999,9999,9999,3057609800
10423,13,Improv_Metronome,79,9999,9999,9999,3058109552
10423,13,Improv_Metronome,80,9999,9999,9999,3058609204
10423,13,Improv_Metronome,81,9999,9999,9999,3059109992
10423,13,Improv_Metronome,82,9999,9999,9999,3059609664
10423,13,Improv_Metronome,83,9999,9999,9999,3060109368
10423,13,Improv_Metronome,84,9999,9999,9999,3060609136
10423,13,Improv_Metronome,85,9999,9999,9999,3061109872
10423,13,Improv_Metronome,86,9999,9999,9999,3061609548
10423,13,Improv_Metronome,87,9999,9999,9999,3062109244
10423,13,Improv_Metronome,88,9999,9999,9999,3062609984
10423,13,Improv_Metronome,89,9999,9999,9999,3063109732
10423,13,Improv_Metronome,90,9999,9999,9999,3063609412
10423,13,Improv_Metronome,91,9999,9999,9999,3064109124
10423,13,Improv_Metronome,92,9999,9999,9999,3064609844
10423,13,Improv_Metronome,93,9999,9999,9999,3065109596
10423,13,Improv_Metronome,94,9999,9999,9999,3065609304
10423,13,Improv_Metronome,95,9999,9999,9999,3066110008
10423,13,Improv_Metronome,96,9999,9999,9999,3066609716
10423,13,Improv_Metronome,97,9999,9999,9999,3067109456
10423,13,Improv_Metronome,98,9999,9999,9999,3067609192
10423,13,Improv_Metronome,99,9999,9999,9999,3068109940
10423,13,Improv_Metronome,100,9999,9999,9999,3068609636
10423,13,Improv_Metronome,101,9999,9999,9999,3069109308
10423,13,Improv_Metronome,102,9999,9999,9999,3069610100
10423,13,Improv_Metronome,103,9999,9999,9999,3070109788
10423,13,Improv_Metronome,104,9999,9999,9999,3070609460
10423,13,Improv_Metronome,105,9999,9999,9999,3071109208
10423,13,Improv_Metronome,106,9999,9999,9999,3071609948
10423,13,Improv_Metronome,107,9999,9999,9999,3072109644
10423,13,Improv_Metronome,108,9999,9999,9999,3072609340
10423,13,Improv_Metronome,109,9999,9999,9999,3073110080
10423,13,Improv_Metronome,110,9999,9999,9999,3073609780
10423,13,Improv_Metronome,111,9999,9999,9999,3074109548
10423,13,Improv_Metronome,112,9999,9999,9999,3074609244
10423,13,Improv_Metronome,113,9999,9999,9999,3075109984
10423,13,Improv_Metronome,114,9999,9999,9999,3075609656
10423,13,Improv_Metronome,115,9999,9999,9999,3076109428
10423,13,Improv_Metronome,116,9999,9999,9999,3076609120
10423,13,Improv_Metronome,117,9999,9999,9999,3077109864
10423,13,Improv_Metronome,118,9999,9999,9999,3077609556
10423,13,Improv_Metronome,119,9999,9999,9999,3078109304
10423,13,Improv_Metronome,120,9999,9999,9999,3078610024
10423,13,Improv_Metronome,121,9999,9999,9999,3079109716
10423,13,Improv_Metronome,122,9999,9999,9999,3079609460
10423,13,Improv_Metronome,123,9999,9999,9999,3080109156
10423,13,Improv_Metronome,124,9999,9999,9999,3080609896
10423,13,Improv_Metronome,125,9999,9999,9999,3081109592
10423,13,Improv_Metronome,126,9999,9999,9999,3081609284
10423,13,Improv_Metronome,127,9999,9999,9999,3082110004
10423,13,Improv_Metronome,128,9999,9999,9999,3082609772
10423,13,Improv_Metronome,129,9999,9999,9999,3083109468
10423,13,Improv_Metronome,130,9999,9999,9999,3083609148
10423,13,Improv_Metronome,131,9999,9999,9999,3084109936
10423,13,Improv_Metronome,132,9999,9999,9999,3084609632
10423,13,Improv_Metronome,133,9999,9999,9999,3085109324
10423,13,Improv_Metronome,134,9999,9999,9999,3085610068
10423,13,Improv_Metronome,135,9999,9999,9999,3086109756
10423,13,Improv_Metronome,136,9999,9999,9999,3086609460
10423,13,Improv_Metronome,137,9999,9999,9999,3087109228
10423,13,Improv_Metronome,138,9999,9999,9999,3087609968
10423,13,Improv_Metronome,139,9999,9999,9999,3088109636
10424,14,Improv_Melody,0,2,48,80,3146952936
10424,14,Improv_Melody,1,2,72,80,3146955092
10424,14,Improv_Melody,2,5,42,127,3146957700
10424,14,Improv_Melody,3,5,42,110,3147450996
10424,14,Improv_Melody,4,5,42,110,3147950320
10424,14,Improv_Melody,5,5,42,110,3148451160
10424,14,Improv_Melody,6,5,42,127,3148951108
10424,14,Improv_Melody,7,5,42,110,3149450900
10424,14,Improv_Melody,8,5,42,110,3149951224
10424,14,Improv_Melody,9,5,42,110,3150451168
10424,14,Improv_Melody,10,2,43,80,3150953468
10424,14,Improv_Melody,11,2,67,80,3150955700
10424,14,Improv_Melody,12,5,42,127,3150958084
10424,14,Improv_Melody,13,5,42,110,3151450476
10424,14,Improv_Melody,14,5,42,110,3151951096
10424,14,Improv_Melody,15,5,42,110,3152451116
10424,14,Improv_Melody,16,5,42,127,3152950984
10424,14,Improv_Melody,17,5,42,110,3153451308
10424,14,Improv_Melody,18,5,42,110,3153951028
10424,14,Improv_Melody,19,5,42,110,3154451048
10424,14,Improv_Melody,20,2,45,80,3154953124
10424,14,Improv_Melody,21,2,69,80,3154955280
10424,14,Improv_Melody,22,5,42,127,3154957960
10424,14,Improv_Melody,23,5,42,110,3155451104
10424,14,Improv_Melody,24,5,42,110,3155950900
10424,14,Improv_Melody,25,5,42,110,3156450772
10424,14,Improv_Melody,26,5,42,127,3156951316
10424,14,Improv_Melody,27,5,42,110,3157451112
10424,14,Improv_Melody,28,5,42,110,3157950912
10424,14,Improv_Melody,29,5,42,110,3158450460
10424,14,Improv_Melody,30,2,41,80,3158953804
10424,14,Improv_Melody,31,2,65,80,3158955952
10424,14,Improv_Melody,32,5,42,127,3158958644
10424,14,Improv_Melody,33,5,42,110,3159450888
10424,14,Improv_Melody,34,5,42,110,3159950684
10424,14,Improv_Melody,35,5,42,110,3160450404
10424,14,Improv_Melody,36,5,42,127,3160951100
10424,14,Improv_Melody,37,5,42,110,3161450744
10424,14,Improv_Melody,38,5,42,110,3161950692
10424,14,Improv_Melody,39,5,42,110,3162451312
10424,14,Improv_Melody,40,2,48,80,3162953684
10424,14,Improv_Melody,41,2,72,80,3162955756
10424,14,Improv_Melody,42,5,42,127,3162958296
10424,14,Improv_Melody,43,5,42,110,3163450692
10424,14,Improv_Melody,44,5,42,110,3163950560
10424,14,Improv_Melody,45,5,42,110,3164451180
10424,14,Improv_Melody,46,5,42,127,3164950828
10424,14,Improv_Melody,47,1,48,75,3164980200
10424,14,Improv_Melody,48,5,42,110,3165450752
10424,14,Improv_Melody,49,1,48,65,3165937788
10424,14,Improv_Melody,50,5,42,110,3165951216
10424,14,Improv_Melody,51,5,42,110,3166450924
10424,14,Improv_Melody,52,1,48,61,3166931228
10424,14,Improv_Melody,53,2,43,80,3166953212
10424,14,Improv_Melody,54,2,67,80,3166955440
10424,14,Improv_Melody,55,5,42,127,3166957980
10424,14,Improv_Melody,56,1,48,67,3167450284
10424,14,Improv_Melody,57,5,42,110,3167451772
10424,14,Improv_Melody,58,5,42,110,3167951180
10424,14,Improv_Melody,59,1,48,74,3168004116
10424,14,Improv_Melody,60,5,42,110,3168450808
10424,14,Improv_Melody,61,5,42,127,3168950752
10424,14,Improv_Melody,62,1,38,68,3168968008
10424,14,Improv_Melody,63,5,42,110,3169451248
10424,14,Improv_Melody,64,1,38,67,3169923920
10424,14,Improv_Melody,65,5,42,110,3169950964
10424,14,Improv_Melody,66,5,42,110,3170450896
10424,14,Improv_Melody,67,1,48,79,3170909584
10424,14,Improv_Melody,68,2,45,80,3170952960
10424,14,Improv_Melody,69,2,69,80,3170955344
10424,14,Improv_Melody,70,5,42,127,3170957876
10424,14,Improv_Melody,71,1,48,73,3171420888
10424,14,Improv_Melody,72,5,42,110,3171451296
10424,14,Improv_Melody,73,1,48,77,3171934948
10424,14,Improv_Melody,74,5,42,110,3171950920
10424,14,Improv_Melody,75,5,42,110,3172450852
10424,14,Improv_Melody,76,1,48,64,3172945816
10424,14,Improv_Melody,77,5,42,127,3172951320
10424,14,Improv_Melody,78,5,42,110,3173451028
10424,14,Improv_Melody,79,1,48,63,3173941800
10424,14,Improv_Melody,80,5,42,110,3173950816
10424,14,Improv_Melody,81,5,42,110,3174450748
10424,14,Improv_Melody,82,1,48,61,3174912800
10424,14,Improv_Melody,83,2,41,80,3174954020
10424,14,Improv_Melody,84,2,65,80,3174955940
10424,14,Improv_Melody,85,5,42,127,3174958628
10424,14,Improv_Melody,86,5,42,110,3175451008
10424,14,Improv_Melody,87,1,38,56,3175476188
10424,14,Improv_Melody,88,5,42,110,3175950780
10424,14,Improv_Melody,89,1,38,75,3175964144
10424,14,Improv_Melody,90,5,42,110,3176450480
10424,14,Improv_Melody,91,1,48,72,3176918740
10424,14,Improv_Melody,92,5,42,127,3176951168
10424,14,Improv_Melody,93,5,42,110,3177450872
10424,14,Improv_Melody,94,1,38,96,3177881484
10424,14,Improv_Melody,95,5,42,110,3177950664
10424,14,Improv_Melody,96,5,42,110,3178451416
10424,14,Improv_Melody,97,1,48,79,3178912996
10424,14,Improv_Melody,98,2,48,80,3178953792
10424,14,Improv_Melody,99,2,72,80,3178955636
10424,14,Improv_Melody,100,5,42,127,3178958400
10424,14,Improv_Melody,101,1,48,75,3179422504
10424,14,Improv_Melody,102,5,42,110,3179450772
10424,14,Improv_Melody,103,1,38,67,3179938736
10424,14,Improv_Melody,104,5,42,110,3179950448
10424,14,Improv_Melody,105,5,42,110,3180451200
10424,14,Improv_Melody,106,1,48,83,3180918336
10424,14,Improv_Melody,107,5,42,127,3180950840
10424,14,Improv_Melody,108,5,42,110,3181450772
10424,14,Improv_Melody,109,1,48,54,3181903844
10424,14,Improv_Melody,110,5,42,110,3181951312
10424,14,Improv_Melody,111,5,42,110,3182451016
10424,14,Improv_Melody,112,1,38,74,3182925332
10424,14,Improv_Melody,113,2,43,80,3182953008
10424,14,Improv_Melody,114,2,67,80,3182955460
10424,14,Improv_Melody,115,5,42,127,3182958072
10424,14,Improv_Melody,116,1,38,81,3183451048
10424,14,Improv_Melody,117,5,42,110,3183453060
10424,14,Improv_Melody,118,5,42,110,3183951124
10424,14,Improv_Melody,119,1,48,78,3184002564
10424,14,Improv_Melody,120,5,42,110,3184450976
10424,14,Improv_Melody,121,5,42,127,3184950772
10424,14,Improv_Melody,122,1,48,65,3184980148
10424,14,Improv_Melody,123,5,42,110,3185451520
10424,14,Improv_Melody,124,1,48,61,3185916940
10424,14,Improv_Melody,125,5,42,110,3185951160
10424,14,Improv_Melody,126,5,42,110,3186450792
10424,14,Improv_Melody,127,1,38,70,3186907384
10424,14,Improv_Melody,128,2,45,80,3186953160
10424,14,Improv_Melody,129,2,69,80,3186955464
10424,14,Improv_Melody,130,5,42,127,3186957924
10424,14,Improv_Melody,131,1,38,86,3187427888
10424,14,Improv_Melody,132,5,42,110,3187451192
10424,14,Improv_Melody,133,1,38,82,3187941804
10424,14,Improv_Melody,134,5,42,110,3187950968
10424,14,Improv_Melody,135,5,42,110,3188450748
10424,14,Improv_Melody,136,1,48,65,3188910008
10424,14,Improv_Melody,137,5,42,127,3188951508
10424,14,Improv_Melody,138,5,42,110,3189451292
10424,14,Improv_Melody,139,1,48,51,3189914364
10424,14,Improv_Melody,140,5,42,110,3189950780
10424,14,Improv_Melody,141,5,42,110,3190450612
10424,14,Improv_Melody,142,1,38,70,3190924032
10424,14,Improv_Melody,143,2,41,80,3190953724
10424,14,Improv_Melody,144,2,65,80,3190956028
10424,14,Improv_Melody,145,5,42,127,3190958496
10424,14,Improv_Melody,146,1,38,73,3191431304
10424,14,Improv_Melody,147,5,42,110,3191450940
10424,14,Improv_Melody,148,5,42,110,3191950644
10424,14,Improv_Melody,149,1,38,81,3191958552
10424,14,Improv_Melody,150,1,48,72,3192431900
10424,14,Improv_Melody,151,5,42,110,3192450636
10424,14,Improv_Melody,152,1,38,78,3192925688
10424,14,Improv_Melody,153,5,42,127,3192951012
10424,14,Improv_Melody,154,1,48,70,3193414612
10424,14,Improv_Melody,155,5,42,110,3193450932
10424,14,Improv_Melody,156,1,38,65,3193903020
10424,14,Improv_Melody,157,5,42,110,3193950780
10424,14,Improv_Melody,158,1,38,72,3194381252
10424,14,Improv_Melody,159,5,42,110,3194451456
10424,14,Improv_Melody,160,1,38,69,3194868992
10424,14,Improv_Melody,161,2,48,80,3194953740
10424,14,Improv_Melody,162,2,72,80,3194956036
10424,14,Improv_Melody,163,5,42,127,3194958568
10424,14,Improv_Melody,164,1,48,70,3195362940
10424,14,Improv_Melody,165,5,42,110,3195450792
10424,14,Improv_Melody,166,1,38,59,3195891816
10424,14,Improv_Melody,167,5,42,110,3195950644
10424,14,Improv_Melody,168,1,38,71,3196430860
10424,14,Improv_Melody,169,5,42,110,3196451316
10424,14,Improv_Melody,170,5,42,127,3196950800
10424,14,Improv_Melody,171,1,48,59,3196973072
10424,14,Improv_Melody,172,1,38,57,3197387548
10424,14,Improv_Melody,173,5,42,110,3197450716
10424,14,Improv_Melody,174,1,48,81,3197599080
10424,14,Improv_Melody,175,1,38,72,3197933604
10424,14,Improv_Melody,176,5,42,110,3197951368
10424,14,Improv_Melody,177,1,48,67,3198207980
10424,14,Improv_Melody,178,5,42,110,3198451204
10424,14,Improv_Melody,179,1,48,81,3198711876
10424,14,Improv_Melody,180,2,43,80,3198953404
10424,14,Improv_Melody,181,2,67,80,3198955404
10424,14,Improv_Melody,182,5,42,127,3198957944
10424,14,Improv_Melody,183,1,38,60,3199155088
10424,14,Improv_Melody,184,5,42,110,3199450392
10424,14,Improv_Melody,185,1,38,60,3199662644
10424,14,Improv_Melody,186,5,42,110,3199951212
10424,14,Improv_Melody,187,1,38,60,3200182112
10424,14,Improv_Melody,188,5,42,110,3200450912
10424,14,Improv_Melody,189,1,48,73,3200704176
10424,14,Improv_Melody,190,5,42,127,3200950612
10424,14,Improv_Melody,191,5,42,110,3201451504
10424,14,Improv_Melody,192,1,38,53,3201670064
10424,14,Improv_Melody,193,5,42,110,3201951056
10424,14,Improv_Melody,194,5,42,110,3202450852
10424,14,Improv_Melody,195,1,48,71,3202691628
10424,14,Improv_Melody,196,2,45,80,3202952900
10424,14,Improv_Melody,197,2,69,80,3202955284
10424,14,Improv_Melody,198,5,42,127,3202957820
10424,14,Improv_Melody,199,5,42,110,3203451408
10424,14,Improv_Melody,200,1,38,54,3203721656
10424,14,Improv_Melody,201,5,42,110,3203951108
10424,14,Improv_Melody,202,5,42,110,3204450756
10424,14,Improv_Melody,203,1,48,65,3204763188
10424,14,Improv_Melody,204,5,42,127,3204951504
10424,14,Improv_Melody,205,1,38,62,3205322600
10424,14,Improv_Melody,206,5,42,110,3205450980
10424,14,Improv_Melody,207,1,48,65,3205850280
10424,14,Improv_Melody,208,5,42,110,3205950752
10424,14,Improv_Melody,209,1,38,65,3206354908
10424,14,Improv_Melody,210,5,42,110,3206450528
10424,14,Improv_Melody,211,1,48,67,3206840404
10424,14,Improv_Melody,212,2,41,80,3206953772
10424,14,Improv_Melody,213,2,65,80,3206955928
10424,14,Improv_Melody,214,5,42,127,3206958544
10424,14,Improv_Melody,215,1,48,80,3207363444
10424,14,Improv_Melody,216,5,42,110,3207450852
10424,14,Improv_Melody,217,1,38,53,3207918800
10424,14,Improv_Melody,218,5,42,110,3207950776
10424,14,Improv_Melody,219,1,38,73,3208428516
10424,14,Improv_Melody,220,5,42,110,3208450328
10424,14,Improv_Melody,221,1,48,76,3208926948
10424,14,Improv_Melody,222,5,42,127,3208951372
10424,14,Improv_Melody,223,1,48,62,3209425152
10424,14,Improv_Melody,224,5,42,110,3209450848
10424,14,Improv_Melody,225,1,38,70,3209905460
10424,14,Improv_Melody,226,5,42,110,3209950548
10424,14,Improv_Melody,227,5,42,110,3210451528
10424,14,Improv_Melody,228,1,38,82,3210458464
10424,14,Improv_Melody,229,2,48,80,3210953504
10424,14,Improv_Melody,230,2,72,80,3210955580
10424,14,Improv_Melody,231,5,42,127,3210958268
10424,14,Improv_Melody,232,1,48,59,3210978140
10424,14,Improv_Melody,233,5,42,110,3211450792
10424,14,Improv_Melody,234,1,38,65,3211464832
10424,14,Improv_Melody,235,5,42,110,3211950540
10424,14,Improv_Melody,236,1,48,59,3211991608
10424,14,Improv_Melody,237,1,38,55,3212446980
10424,14,Improv_Melody,238,5,42,110,3212451652
10424,14,Improv_Melody,239,1,48,67,3212929848
10424,14,Improv_Melody,240,5,42,127,3212950832
10424,14,Improv_Melody,241,1,48,65,3213428124
10424,14,Improv_Melody,242,5,42,110,3213450532
10424,14,Improv_Melody,243,1,38,52,3213891548
10424,14,Improv_Melody,244,5,42,110,3213951504
10424,14,Improv_Melody,245,1,38,62,3214390284
10424,14,Improv_Melody,246,5,42,110,3214451276
10424,14,Improv_Melody,247,1,38,56,3214908604
10424,14,Improv_Melody,248,2,43,80,3214953252
10424,14,Improv_Melody,249,2,67,80,3214955256
10424,14,Improv_Melody,250,5,42,127,3214958168
10424,14,Improv_Melody,251,5,42,110,3215450696
10424,14,Improv_Melody,252,1,38,58,3215457032
10424,14,Improv_Melody,253,5,42,110,3215951368
10424,14,Improv_Melody,254,1,38,65,3215965264
10424,14,Improv_Melody,255,5,42,110,3216451072
10424,14,Improv_Melody,256,1,48,79,3216498848
10424,14,Improv_Melody,257,5,42,127,3216950624
10424,14,Improv_Melody,258,1,38,61,3216964432
10424,14,Improv_Melody,259,5,42,110,3217451516
10424,14,Improv_Melody,260,1,48,65,3217470720
10424,14,Improv_Melody,261,5,42,110,3217951368
10424,14,Improv_Melody,262,1,38,51,3217961596
10424,14,Improv_Melody,263,1,38,50,3218441148
10424,14,Improv_Melody,264,5,42,110,3218450692
10424,14,Improv_Melody,265,1,48,59,3218951412
10424,14,Improv_Melody,266,2,45,80,3218954556
10424,14,Improv_Melody,267,2,69,80,3218956484
10424,14,Improv_Melody,268,5,42,127,3218959168
10424,14,Improv_Melody,269,5,42,110,3219451396
10424,14,Improv_Melody,270,1,38,59,3219487200
10424,14,Improv_Melody,271,5,42,110,3219950872
10424,14,Improv_Melody,272,1,48,56,3219958852
10424,14,Improv_Melody,273,5,42,110,3220450572
10424,14,Improv_Melody,274,1,38,65,3220492360
10424,14,Improv_Melody,275,5,42,127,3220951540
10424,14,Improv_Melody,276,1,48,51,3221002308
10424,14,Improv_Melody,277,5,42,110,3221451240
10424,14,Improv_Melody,278,1,38,62,3221500288
10424,14,Improv_Melody,279,5,42,110,3221950868
10424,14,Improv_Melody,280,1,48,61,3221982488
10424,14,Improv_Melody,281,5,42,110,3222450472
10424,14,Improv_Melody,282,1,48,53,3222498944
10424,14,Improv_Melody,283,2,41,80,3222953644
10424,14,Improv_Melody,284,2,65,80,3222955872
10424,14,Improv_Melody,285,5,42,127,3222958412
10424,14,Improv_Melody,286,1,38,60,3222964324
10424,14,Improv_Melody,287,5,42,110,3223451004
10424,14,Improv_Melody,288,1,38,63,3223477860
10424,14,Improv_Melody,289,5,42,110,3223950632
10424,14,Improv_Melody,290,1,38,52,3224013612
10424,14,Improv_Melody,291,5,42,110,3224450332
10424,14,Improv_Melody,292,1,38,59,3224497804
10424,14,Improv_Melody,293,5,42,127,3224951228
10424,14,Improv_Melody,294,1,48,64,3224969828
10424,14,Improv_Melody,295,5,42,110,3225451000
10424,14,Improv_Melody,296,5,42,110,3225950572
10424,14,Improv_Melody,297,1,48,61,3225960724
10424,14,Improv_Melody,298,5,42,110,3226451244
10424,14,Improv_Melody,299,2,48,80,3226953620
10424,14,Improv_Melody,300,2,72,80,3226955768
10424,14,Improv_Melody,301,5,42,127,3226958384
10424,14,Improv_Melody,302,1,48,58,3226964716
10424,14,Improv_Melody,303,1,38,51,3227448792
10424,14,Improv_Melody,304,5,42,110,3227451500
10424,14,Improv_Melody,305,1,48,59,3227940684
10424,14,Improv_Melody,0,9999,9999,9999,3146948700
10424,14,Improv_Melody,1,9999,9999,9999,3147448404
10424,14,Improv_Melody,2,9999,9999,9999,3147948100
10424,14,Improv_Melody,3,9999,9999,9999,3148448868
10424,14,Improv_Melody,4,9999,9999,9999,3148948592
10424,14,Improv_Melody,5,9999,9999,9999,3149448312
10424,14,Improv_Melody,6,9999,9999,9999,3149949008
10424,14,Improv_Melody,7,9999,9999,9999,3150448728
10424,14,Improv_Melody,8,9999,9999,9999,3150948448
10424,14,Improv_Melody,9,9999,9999,9999,3151448184
10424,14,Improv_Melody,10,9999,9999,9999,3151948876
10424,14,Improv_Melody,11,9999,9999,9999,3152448600
10424,14,Improv_Melody,12,9999,9999,9999,3152948320
10424,14,Improv_Melody,13,9999,9999,9999,3153449016
10424,14,Improv_Melody,14,9999,9999,9999,3153948736
10424,14,Improv_Melody,15,9999,9999,9999,3154448460
10424,14,Improv_Melody,16,9999,9999,9999,3154948180
10424,14,Improv_Melody,17,9999,9999,9999,3155448888
10424,14,Improv_Melody,18,9999,9999,9999,3155948608
10424,14,Improv_Melody,19,9999,9999,9999,3156448328
10424,14,Improv_Melody,20,9999,9999,9999,3156949100
10424,14,Improv_Melody,21,9999,9999,9999,3157448820
10424,14,Improv_Melody,22,9999,9999,9999,3157948468
10424,14,Improv_Melody,23,9999,9999,9999,3158448240
10424,14,Improv_Melody,24,9999,9999,9999,3158948932
10424,14,Improv_Melody,25,9999,9999,9999,3159448668
10424,14,Improv_Melody,26,9999,9999,9999,3159948392
10424,14,Improv_Melody,27,9999,9999,9999,3160448112
10424,14,Improv_Melody,28,9999,9999,9999,3160948808
10424,14,Improv_Melody,29,9999,9999,9999,3161448528
10424,14,Improv_Melody,30,9999,9999,9999,3161948248
10424,14,Improv_Melody,31,9999,9999,9999,3162449020
10424,14,Improv_Melody,32,9999,9999,9999,3162948664
10424,14,Improv_Melody,33,9999,9999,9999,3163448400
10424,14,Improv_Melody,34,9999,9999,9999,3163948120
10424,14,Improv_Melody,35,9999,9999,9999,3164448888
10424,14,Improv_Melody,36,9999,9999,9999,3164948536
10424,14,Improv_Melody,37,9999,9999,9999,3165448312
10424,14,Improv_Melody,38,9999,9999,9999,3165949000
10424,14,Improv_Melody,39,9999,9999,9999,3166448704
10424,14,Improv_Melody,40,9999,9999,9999,3166948420
10424,14,Improv_Melody,41,9999,9999,9999,3167448144
10424,14,Improv_Melody,42,9999,9999,9999,3167948888
10424,14,Improv_Melody,43,9999,9999,9999,3168448588
10424,14,Improv_Melody,44,9999,9999,9999,3168948288
10424,14,Improv_Melody,45,9999,9999,9999,3169449032
10424,14,Improv_Melody,46,9999,9999,9999,3169948748
10424,14,Improv_Melody,47,9999,9999,9999,3170448456
10424,14,Improv_Melody,48,9999,9999,9999,3170948168
10424,14,Improv_Melody,49,9999,9999,9999,3171448932
10424,14,Improv_Melody,50,9999,9999,9999,3171948632
10424,14,Improv_Melody,51,9999,9999,9999,3172448336
10424,14,Improv_Melody,52,9999,9999,9999,3172949104
10424,14,Improv_Melody,53,9999,9999,9999,3173448808
10424,14,Improv_Melody,54,9999,9999,9999,3173948524
10424,14,Improv_Melody,55,9999,9999,9999,3174448232
10424,14,Improv_Melody,56,9999,9999,9999,3174948920
10424,14,Improv_Melody,57,9999,9999,9999,3175448640
10424,14,Improv_Melody,58,9999,9999,9999,3175948340
10424,14,Improv_Melody,59,9999,9999,9999,3176448116
10424,14,Improv_Melody,60,9999,9999,9999,3176948804
10424,14,Improv_Melody,61,9999,9999,9999,3177448508
10424,14,Improv_Melody,62,9999,9999,9999,3177948224
10424,14,Improv_Melody,63,9999,9999,9999,3178448976
10424,14,Improv_Melody,64,9999,9999,9999,3178948692
10424,14,Improv_Melody,65,9999,9999,9999,3179448404
10424,14,Improv_Melody,66,9999,9999,9999,3179948156
10424,14,Improv_Melody,67,9999,9999,9999,3180448836
10424,14,Improv_Melody,68,9999,9999,9999,3180948552
10424,14,Improv_Melody,69,9999,9999,9999,3181448256
10424,14,Improv_Melody,70,9999,9999,9999,3181949020
10424,14,Improv_Melody,71,9999,9999,9999,3182448724
10424,14,Improv_Melody,72,9999,9999,9999,3182948440
10424,14,Improv_Melody,73,9999,9999,9999,3183448160
10424,14,Improv_Melody,74,9999,9999,9999,3183948908
10424,14,Improv_Melody,75,9999,9999,9999,3184448608
10424,14,Improv_Melody,76,9999,9999,9999,3184948332
10424,14,Improv_Melody,77,9999,9999,9999,3185449076
10424,14,Improv_Melody,78,9999,9999,9999,3185948796
10424,14,Improv_Melody,79,9999,9999,9999,3186448500
10424,14,Improv_Melody,80,9999,9999,9999,3186948216
10424,14,Improv_Melody,81,9999,9999,9999,3187448900
10424,14,Improv_Melody,82,9999,9999,9999,3187948600
10424,14,Improv_Melody,83,9999,9999,9999,3188448308
10424,14,Improv_Melody,84,9999,9999,9999,3188949068
10424,14,Improv_Melody,85,9999,9999,9999,3189448776
10424,14,Improv_Melody,86,9999,9999,9999,3189948492
10424,14,Improv_Melody,87,9999,9999,9999,3190448248
10424,14,Improv_Melody,88,9999,9999,9999,3190948932
10424,14,Improv_Melody,89,9999,9999,9999,3191448648
10424,14,Improv_Melody,90,9999,9999,9999,3191948352
10424,14,Improv_Melody,91,9999,9999,9999,3192448120
10424,14,Improv_Melody,92,9999,9999,9999,3192948792
10424,14,Improv_Melody,93,9999,9999,9999,3193448568
10424,14,Improv_Melody,94,9999,9999,9999,3193948268
10424,14,Improv_Melody,95,9999,9999,9999,3194449016
10424,14,Improv_Melody,96,9999,9999,9999,3194948716
10424,14,Improv_Melody,97,9999,9999,9999,3195448428
10424,14,Improv_Melody,98,9999,9999,9999,3195948128
10424,14,Improv_Melody,99,9999,9999,9999,3196448876
10424,14,Improv_Melody,100,9999,9999,9999,3196948584
10424,14,Improv_Melody,101,9999,9999,9999,3197448276
10424,14,Improv_Melody,102,9999,9999,9999,3197949004
10424,14,Improv_Melody,103,9999,9999,9999,3198448760
10424,14,Improv_Melody,104,9999,9999,9999,3198948460
10424,14,Improv_Melody,105,9999,9999,9999,3199448176
10424,14,Improv_Melody,106,9999,9999,9999,3199948920
10424,14,Improv_Melody,107,9999,9999,9999,3200448620
10424,14,Improv_Melody,108,9999,9999,9999,3200948320
10424,14,Improv_Melody,109,9999,9999,9999,3201449060
10424,14,Improv_Melody,110,9999,9999,9999,3201948764
10424,14,Improv_Melody,111,9999,9999,9999,3202448488
10424,14,Improv_Melody,112,9999,9999,9999,3202948184
10424,14,Improv_Melody,113,9999,9999,9999,3203448892
10424,14,Improv_Melody,114,9999,9999,9999,3203948668
10424,14,Improv_Melody,115,9999,9999,9999,3204448316
10424,14,Improv_Melody,116,9999,9999,9999,3204949064
10424,14,Improv_Melody,117,9999,9999,9999,3205448760
10424,14,Improv_Melody,118,9999,9999,9999,3205948536
10424,14,Improv_Melody,119,9999,9999,9999,3206448236
10424,14,Improv_Melody,120,9999,9999,9999,3206948980
10424,14,Improv_Melody,121,9999,9999,9999,3207448636
10424,14,Improv_Melody,122,9999,9999,9999,3207948408
10424,14,Improv_Melody,123,9999,9999,9999,3208448108
10424,14,Improv_Melody,124,9999,9999,9999,3208948856
10424,14,Improv_Melody,125,9999,9999,9999,3209448556
10424,14,Improv_Melody,126,9999,9999,9999,3209948260
10424,14,Improv_Melody,127,9999,9999,9999,3210449012
10424,14,Improv_Melody,128,9999,9999,9999,3210948712
10424,14,Improv_Melody,129,9999,9999,9999,3211448424
10424,14,Improv_Melody,130,9999,9999,9999,3211948100
10424,14,Improv_Melody,131,9999,9999,9999,3212448840
10424,14,Improv_Melody,132,9999,9999,9999,3212948540
10424,14,Improv_Melody,133,9999,9999,9999,3213448312
10424,14,Improv_Melody,134,9999,9999,9999,3213948988
10424,14,Improv_Melody,135,9999,9999,9999,3214448764
10424,14,Improv_Melody,136,9999,9999,9999,3214948460
10424,14,Improv_Melody,137,9999,9999,9999,3215448184
10424,14,Improv_Melody,138,9999,9999,9999,3215948856
10424,14,Improv_Melody,139,9999,9999,9999,3216448632
10424,14,Improv_Melody,140,9999,9999,9999,3216948332
10424,14,Improv_Melody,141,9999,9999,9999,3217449076
10424,14,Improv_Melody,142,9999,9999,9999,3217948780
10424,14,Improv_Melody,143,9999,9999,9999,3218448476
10424,14,Improv_Melody,144,9999,9999,9999,3218948180
10424,14,Improv_Melody,145,9999,9999,9999,3219448952
10424,14,Improv_Melody,146,9999,9999,9999,3219948652
10424,14,Improv_Melody,147,9999,9999,9999,3220448352
10424,14,Improv_Melody,148,9999,9999,9999,3220949100
10424,14,Improv_Melody,149,9999,9999,9999,3221448800
10424,14,Improv_Melody,150,9999,9999,9999,3221948500
10424,14,Improv_Melody,151,9999,9999,9999,3222448180
10424,14,Improv_Melody,152,9999,9999,9999,3222948928
10424,14,Improv_Melody,153,9999,9999,9999,3223448640
10424,14,Improv_Melody,154,9999,9999,9999,3223948340
10424,14,Improv_Melody,155,9999,9999,9999,3224448112
10424,14,Improv_Melody,156,9999,9999,9999,3224948788
10424,14,Improv_Melody,157,9999,9999,9999,3225448560
10424,14,Improv_Melody,158,9999,9999,9999,3225948280
10424,14,Improv_Melody,159,9999,9999,9999,3226448956
10424,14,Improv_Melody,160,9999,9999,9999,3226948676
10424,14,Improv_Melody,161,9999,9999,9999,3227448416
104