pid,taskRunCount,taskID,taskName,i,channel,pitch,velocity,microseconds
1,0,Ticks_Pract_8,0,5,42,127,911559980
1031,0,Ticks_Pract_8,1,5,42,127,912359960
1031,0,Ticks_Pract_8,2,5,42,127,913159788
1031,0,Ticks_Pract_8,3,1,38,43,913173904
1031,0,Ticks_Pract_8,4,1,38,23,913248608
1031,0,Ticks_Pract_8,5,5,42,127,913960328
1031,0,Ticks_Pract_8,6,1,38,32,914010040
1031,0,Ticks_Pract_8,7,1,38,40,914753284
1031,0,Ticks_Pract_8,8,5,42,127,914760052
1031,0,Ticks_Pract_8,9,1,38,42,915542176
1031,0,Ticks_Pract_8,10,5,42,127,915559860
1031,0,Ticks_Pract_8,11,1,38,34,916331960
1031,0,Ticks_Pract_8,12,5,42,127,916359892
1031,0,Ticks_Pract_8,13,1,38,37,917116136
1031,0,Ticks_Pract_8,14,5,42,127,917160324
1031,0,Ticks_Pract_8,15,1,38,44,917941172
1031,0,Ticks_Pract_8,16,5,42,127,917959984
1031,0,Ticks_Pract_8,17,1,38,36,918754144
1031,0,Ticks_Pract_8,18,5,42,127,918759940
1031,0,Ticks_Pract_8,19,5,42,127,919559680
1031,0,Ticks_Pract_8,20,1,38,45,919569304
1031,0,Ticks_Pract_8,21,1,38,33,920322724
1031,0,Ticks_Pract_8,22,5,42,127,920360156
1031,0,Ticks_Pract_8,23,1,38,32,921097256
1031,0,Ticks_Pract_8,24,5,42,127,921160040
1031,0,Ticks_Pract_8,25,1,38,24,921845824
1031,0,Ticks_Pract_8,26,1,38,16,921910724
1031,0,Ticks_Pract_8,27,5,42,127,921959676
1031,0,Ticks_Pract_8,28,1,38,37,922657576
1031,0,Ticks_Pract_8,29,5,42,127,922759620
1031,0,Ticks_Pract_8,30,1,38,35,923441604
1031,0,Ticks_Pract_8,31,5,42,127,923560200
1031,0,Ticks_Pract_8,32,5,42,127,924360108
1031,0,Ticks_Pract_8,33,5,42,127,925159716
1031,0,Ticks_Pract_8,34,5,42,127,925959544
1031,0,Ticks_Pract_8,35,5,42,127,926760272
1031,0,Ticks_Pract_8,36,1,48,40,926783208
1031,0,Ticks_Pract_8,37,1,48,39,927518672
1031,0,Ticks_Pract_8,38,5,42,127,927559924
1031,0,Ticks_Pract_8,39,1,48,39,928325664
1031,0,Ticks_Pract_8,40,5,42,127,928359880
1031,0,Ticks_Pract_8,41,1,48,36,929120832
1031,0,Ticks_Pract_8,42,5,42,127,929159464
1031,0,Ticks_Pract_8,43,1,48,32,929908372
1031,0,Ticks_Pract_8,44,5,42,127,929960492
1031,0,Ticks_Pract_8,45,1,48,33,930672500
1031,0,Ticks_Pract_8,46,5,42,127,930759924
1031,0,Ticks_Pract_8,47,1,48,31,931523724
1031,0,Ticks_Pract_8,48,5,42,127,931559660
1031,0,Ticks_Pract_8,49,1,48,34,932343424
1031,0,Ticks_Pract_8,50,5,42,127,932359468
1031,0,Ticks_Pract_8,51,1,48,28,933138600
1031,0,Ticks_Pract_8,52,5,42,127,933160472
1031,0,Ticks_Pract_8,53,1,48,32,933925168
1031,0,Ticks_Pract_8,54,5,42,127,933960056
1031,0,Ticks_Pract_8,55,1,48,19,933998092
1031,0,Ticks_Pract_8,56,5,42,127,934759848
1031,0,Ticks_Pract_8,57,1,48,29,934783536
1031,0,Ticks_Pract_8,58,1,48,30,935546376
1031,0,Ticks_Pract_8,0,9999,9999,9999,911557692
1031,0,Ticks_Pract_8,1,9999,9999,9999,912357448
1031,0,Ticks_Pract_8,2,9999,9999,9999,913157204
1031,0,Ticks_Pract_8,3,9999,9999,9999,913957964
1031,0,Ticks_Pract_8,4,9999,9999,9999,914757688
1031,0,Ticks_Pract_8,5,9999,9999,9999,915557424
1031,0,Ticks_Pract_8,6,9999,9999,9999,916357232
1031,0,Ticks_Pract_8,7,9999,9999,9999,917157964
1031,0,Ticks_Pract_8,8,9999,9999,9999,917957696
1031,0,Ticks_Pract_8,9,9999,9999,9999,918757432
1031,0,Ticks_Pract_8,10,9999,9999,9999,919557172
1031,0,Ticks_Pract_8,11,9999,9999,9999,920357944
1031,0,Ticks_Pract_8,12,9999,9999,9999,921157752
1031,0,Ticks_Pract_8,13,9999,9999,9999,921957464
1031,0,Ticks_Pract_8,14,9999,9999,9999,922757180
1031,0,Ticks_Pract_8,15,9999,9999,9999,923557988
1031,0,Ticks_Pract_8,16,9999,9999,9999,924357744
1031,0,Ticks_Pract_8,17,9999,9999,9999,925157424
1031,0,Ticks_Pract_8,18,9999,9999,9999,925957180
1031,0,Ticks_Pract_8,19,9999,9999,9999,926757984
1031,0,Ticks_Pract_8,20,9999,9999,9999,927557708
1031,0,Ticks_Pract_8,21,9999,9999,9999,928357440
1031,0,Ticks_Pract_8,22,9999,9999,9999,929157176
1031,0,Ticks_Pract_8,23,9999,9999,9999,929957980
1031,0,Ticks_Pract_8,24,9999,9999,9999,930757712
1031,0,Ticks_Pract_8,25,9999,9999,9999,931557448
1031,0,Ticks_Pract_8,26,9999,9999,9999,932357180
1031,0,Ticks_Pract_8,27,9999,9999,9999,933157960
1031,0,Ticks_Pract_8,28,9999,9999,9999,933957696
1031,0,Ticks_Pract_8,29,9999,9999,9999,934757488
1032,1,Ticks_Pract_5,0,5,42,127,950861168
1032,1,Ticks_Pract_5,1,5,42,127,951360808
1032,1,Ticks_Pract_5,2,5,42,127,951860524
1032,1,Ticks_Pract_5,3,5,42,127,952361288
1032,1,Ticks_Pract_5,4,5,42,127,952861076
1032,1,Ticks_Pract_5,5,1,48,24,952896736
1032,1,Ticks_Pract_5,6,1,48,21,953339636
1032,1,Ticks_Pract_5,7,5,42,127,953360692
1032,1,Ticks_Pract_5,8,1,48,25,953827216
1032,1,Ticks_Pract_5,9,5,42,127,953860460
1032,1,Ticks_Pract_5,10,5,42,127,954361280
1032,1,Ticks_Pract_5,11,1,48,25,954363952
1032,1,Ticks_Pract_5,12,1,48,22,954858548
1032,1,Ticks_Pract_5,13,5,42,127,954861044
1032,1,Ticks_Pract_5,14,5,42,127,955360596
1032,1,Ticks_Pract_5,15,1,48,28,955367608
1032,1,Ticks_Pract_5,16,5,42,127,955861336
1032,1,Ticks_Pract_5,17,1,48,27,955885248
1032,1,Ticks_Pract_5,18,5,42,127,956361032
1032,1,Ticks_Pract_5,19,1,48,26,956371036
1032,1,Ticks_Pract_5,20,5,42,127,956860800
1032,1,Ticks_Pract_5,21,1,48,22,956871548
1032,1,Ticks_Pract_5,22,1,48,26,957353348
1032,1,Ticks_Pract_5,23,5,42,127,957360564
1032,1,Ticks_Pract_5,24,5,42,127,957861312
1032,1,Ticks_Pract_5,25,1,48,30,957867200
1032,1,Ticks_Pract_5,26,5,42,127,958361152
1032,1,Ticks_Pract_5,27,1,48,38,958370780
1032,1,Ticks_Pract_5,28,5,42,127,958860528
1032,1,Ticks_Pract_5,29,1,48,35,958878480
1032,1,Ticks_Pract_5,30,1,48,28,959346944
1032,1,Ticks_Pract_5,31,5,42,127,959361336
1032,1,Ticks_Pract_5,32,1,48,34,959853440
1032,1,Ticks_Pract_5,33,5,42,127,959861328
1032,1,Ticks_Pract_5,34,5,42,127,960360956
1032,1,Ticks_Pract_5,35,1,48,35,960388240
1032,1,Ticks_Pract_5,36,5,42,127,960860576
1032,1,Ticks_Pract_5,37,1,48,37,960906256
1032,1,Ticks_Pract_5,38,5,42,127,961361244
1032,1,Ticks_Pract_5,39,1,48,29,961405648
1032,1,Ticks_Pract_5,40,5,42,127,961861160
1032,1,Ticks_Pract_5,41,1,48,29,961899208
1032,1,Ticks_Pract_5,42,1,48,35,962360632
1032,1,Ticks_Pract_5,43,5,42,127,962362116
1032,1,Ticks_Pract_5,44,5,42,127,962861448
1032,1,Ticks_Pract_5,45,1,48,32,962896132
1032,1,Ticks_Pract_5,46,5,42,127,963361216
1032,1,Ticks_Pract_5,47,1,48,33,963369348
1032,1,Ticks_Pract_5,48,1,48,29,963851596
1032,1,Ticks_Pract_5,49,5,42,127,963861124
1032,1,Ticks_Pract_5,50,1,48,34,964347176
1032,1,Ticks_Pract_5,51,5,42,127,964360672
1032,1,Ticks_Pract_5,52,1,48,31,964849940
1032,1,Ticks_Pract_5,53,5,42,127,964861264
1032,1,Ticks_Pract_5,54,1,48,32,965334076
1032,1,Ticks_Pract_5,55,5,42,127,965361184
1032,1,Ticks_Pract_5,56,1,48,33,965851940
1032,1,Ticks_Pract_5,57,5,42,127,965860652
1032,1,Ticks_Pract_5,58,1,48,34,966353060
1032,1,Ticks_Pract_5,59,5,42,127,966360572
1032,1,Ticks_Pract_5,60,1,48,34,966854620
1032,1,Ticks_Pract_5,61,5,42,127,966861088
1032,1,Ticks_Pract_5,62,1,48,30,967349080
1032,1,Ticks_Pract_5,63,5,42,127,967361080
1032,1,Ticks_Pract_5,64,1,48,27,967830052
1032,1,Ticks_Pract_5,65,5,42,127,967860528
1032,1,Ticks_Pract_5,66,1,48,29,968336680
1032,1,Ticks_Pract_5,67,5,42,127,968361268
1032,1,Ticks_Pract_5,68,1,48,36,968845044
1032,1,Ticks_Pract_5,69,5,42,127,968861184
1032,1,Ticks_Pract_5,70,5,42,127,969360936
1032,1,Ticks_Pract_5,71,1,48,26,969369992
1032,1,Ticks_Pract_5,72,1,48,29,969845104
1032,1,Ticks_Pract_5,73,5,42,127,969860324
1032,1,Ticks_Pract_5,74,1,48,33,970344576
1032,1,Ticks_Pract_5,75,5,42,127,970361216
1032,1,Ticks_Pract_5,76,1,48,31,970837616
1032,1,Ticks_Pract_5,0,9999,9999,9999,950858808
1032,1,Ticks_Pract_5,1,9999,9999,9999,951358520
1032,1,Ticks_Pract_5,2,9999,9999,9999,951858240
1032,1,Ticks_Pract_5,3,9999,9999,9999,952359000
1032,1,Ticks_Pract_5,4,9999,9999,9999,952858716
1032,1,Ticks_Pract_5,5,9999,9999,9999,953358404
1032,1,Ticks_Pract_5,6,9999,9999,9999,953858100
1032,1,Ticks_Pract_5,7,9999,9999,9999,954358848
1032,1,Ticks_Pract_5,8,9999,9999,9999,954858608
1032,1,Ticks_Pract_5,9,9999,9999,9999,955358308
1032,1,Ticks_Pract_5,10,9999,9999,9999,955859048
1032,1,Ticks_Pract_5,11,9999,9999,9999,956358744
1032,1,Ticks_Pract_5,12,9999,9999,9999,956858440
1032,1,Ticks_Pract_5,13,9999,9999,9999,957358128
1032,1,Ticks_Pract_5,14,9999,9999,9999,957858876
1032,1,Ticks_Pract_5,15,9999,9999,9999,958358644
1032,1,Ticks_Pract_5,16,9999,9999,9999,958858316
1032,1,Ticks_Pract_5,17,9999,9999,9999,959359048
1032,1,Ticks_Pract_5,18,9999,9999,9999,959858748
1032,1,Ticks_Pract_5,19,9999,9999,9999,960358520
1032,1,Ticks_Pract_5,20,9999,9999,9999,960858216
1032,1,Ticks_Pract_5,21,9999,9999,9999,961358956
1032,1,Ticks_Pract_5,22,9999,9999,9999,961858648
1032,1,Ticks_Pract_5,23,9999,9999,9999,962358344
1032,1,Ticks_Pract_5,24,9999,9999,9999,962859088
1032,1,Ticks_Pract_5,25,9999,9999,9999,963358780
1032,1,Ticks_Pract_5,26,9999,9999,9999,963858544
1032,1,Ticks_Pract_5,27,9999,9999,9999,964358236
1032,1,Ticks_Pract_5,28,9999,9999,9999,964858980
1032,1,Ticks_Pract_5,29,9999,9999,9999,965358676
1032,1,Ticks_Pract_5,30,9999,9999,9999,965858368
1032,1,Ticks_Pract_5,31,9999,9999,9999,966358136
1032,1,Ticks_Pract_5,32,9999,9999,9999,966858804
1032,1,Ticks_Pract_5,33,9999,9999,9999,967358572
1032,1,Ticks_Pract_5,34,9999,9999,9999,967858244
1032,1,Ticks_Pract_5,35,9999,9999,9999,968358984
1032,1,Ticks_Pract_5,36,9999,9999,9999,968858676
1032,1,Ticks_Pract_5,37,9999,9999,9999,969358428
1032,1,Ticks_Pract_5,38,9999,9999,9999,969858112
1032,1,Ticks_Pract_5,39,9999,9999,9999,970358856
1033,2,T1_SMS_8,0,5,42,127,1068471720
1033,2,T1_SMS_8,1,1,48,28,1069050752
1033,2,T1_SMS_8,2,5,42,127,1069272648
1033,2,T1_SMS_8,3,1,48,27,1069922668
1033,2,T1_SMS_8,4,5,42,127,1070072232
1033,2,T1_SMS_8,5,1,48,27,1070762888
1033,2,T1_SMS_8,6,5,42,127,1070871892
1033,2,T1_SMS_8,7,1,48,25,1071563296
1033,2,T1_SMS_8,8,5,42,127,1071671624
1033,2,T1_SMS_8,9,1,48,30,1072376416
1033,2,T1_SMS_8,10,5,42,127,1072472640
1033,2,T1_SMS_8,11,1,48,32,1073218640
1033,2,T1_SMS_8,12,5,42,127,1073272076
1033,2,T1_SMS_8,13,5,42,127,1074071844
1033,2,T1_SMS_8,14,1,48,28,1074074584
1033,2,T1_SMS_8,15,5,42,127,1074871652
1033,2,T1_SMS_8,16,1,48,30,1074886436
1033,2,T1_SMS_8,17,5,42,127,1075672580
1033,2,T1_SMS_8,18,1,48,33,1075700160
1033,2,T1_SMS_8,19,5,42,127,1076472388
1033,2,T1_SMS_8,20,1,48,29,1076489648
1033,2,T1_SMS_8,21,5,42,127,1077271824
1033,2,T1_SMS_8,22,1,48,22,1077310848
1033,2,T1_SMS_8,23,5,42,127,1078071632
1033,2,T1_SMS_8,24,1,48,30,1078102428
1033,2,T1_SMS_8,25,5,42,127,1078872336
1033,2,T1_SMS_8,26,1,48,28,1078873304
1033,2,T1_SMS_8,27,1,48,31,1079641660
1033,2,T1_SMS_8,28,5,42,127,1079672436
1033,2,T1_SMS_8,29,1,48,26,1080460696
1033,2,T1_SMS_8,30,5,42,127,1080471972
1033,2,T1_SMS_8,31,1,48,26,1081254992
1033,2,T1_SMS_8,32,5,42,127,1081271628
1033,2,T1_SMS_8,33,5,42,127,1082072488
1033,2,T1_SMS_8,34,1,48,27,1082085704
1033,2,T1_SMS_8,35,5,42,127,1082872444
1033,2,T1_SMS_8,36,1,48,32,1082873412
1033,2,T1_SMS_8,37,1,48,30,1083651720
1033,2,T1_SMS_8,38,5,42,127,1083671876
1033,2,T1_SMS_8,39,1,48,34,1084451528
1033,2,T1_SMS_8,40,5,42,127,1084471684
1033,2,T1_SMS_8,41,5,42,127,1085272544
1033,2,T1_SMS_8,42,1,48,18,1085315456
1033,2,T1_SMS_8,43,5,42,127,1086072276
1033,2,T1_SMS_8,44,1,48,20,1086089388
1033,2,T1_SMS_8,45,1,48,20,1086869920
1033,2,T1_SMS_8,46,5,42,127,1086871884
1033,2,T1_SMS_8,47,5,42,127,1087671696
1033,2,T1_SMS_8,48,1,48,22,1087694188
1033,2,T1_SMS_8,49,1,48,20,1088462868
1033,2,T1_SMS_8,50,5,42,127,1088472396
1033,2,T1_SMS_8,51,1,48,27,1089224900
1033,2,T1_SMS_8,52,5,42,127,1089272276
1033,2,T1_SMS_8,53,1,48,30,1090049912
1033,2,T1_SMS_8,54,5,42,127,1090071864
1033,2,T1_SMS_8,55,1,48,28,1090842612
1033,2,T1_SMS_8,56,5,42,127,1090871596
1033,2,T1_SMS_8,57,1,48,30,1091630384
1033,2,T1_SMS_8,58,5,42,127,1091672524
1033,2,T1_SMS_8,59,1,48,31,1092439736
1033,2,T1_SMS_8,60,5,42,127,1092472308
1033,2,T1_SMS_8,61,1,48,31,1093246500
1033,2,T1_SMS_8,62,5,42,127,1093271768
1033,2,T1_SMS_8,63,1,48,29,1094053292
1033,2,T1_SMS_8,64,5,42,127,1094071652
1033,2,T1_SMS_8,65,5,42,127,1094872364
1033,2,T1_SMS_8,66,1,48,28,1094880272
1033,2,T1_SMS_8,67,5,42,127,1095672096
1033,2,T1_SMS_8,68,1,48,30,1095673064
1033,2,T1_SMS_8,69,5,42,127,1096471904
1033,2,T1_SMS_8,70,1,48,26,1096488712
1033,2,T1_SMS_8,71,1,48,32,1097260380
1033,2,T1_SMS_8,72,5,42,127,1097271780
1033,2,T1_SMS_8,73,1,48,35,1098038424
1033,2,T1_SMS_8,74,5,42,127,1098072412
1033,2,T1_SMS_8,75,5,42,127,1098872152
1033,2,T1_SMS_8,76,1,48,24,1098874668
1033,2,T1_SMS_8,77,5,42,127,1099671980
1033,2,T1_SMS_8,78,1,48,22,1099679068
1033,2,T1_SMS_8,79,5,42,127,1100471792
1033,2,T1_SMS_8,80,1,48,27,1100485980
1033,2,T1_SMS_8,81,5,42,127,1101272496
1033,2,T1_SMS_8,82,1,48,30,1101291024
1033,2,T1_SMS_8,83,1,48,34,1102063216
1033,2,T1_SMS_8,84,5,42,127,1102072224
1033,2,T1_SMS_8,85,1,48,32,1102850904
1033,2,T1_SMS_8,86,5,42,127,1102871956
1033,2,T1_SMS_8,87,5,42,127,1103671548
1033,2,T1_SMS_8,88,1,48,23,1103687232
1033,2,T1_SMS_8,89,5,42,127,1104472476
1033,2,T1_SMS_8,90,1,48,27,1104473516
1033,2,T1_SMS_8,91,1,48,27,1105270856
1033,2,T1_SMS_8,92,5,42,127,1105272352
1033,2,T1_SMS_8,93,1,48,35,1106045276
1033,2,T1_SMS_8,94,5,42,127,1106072108
1033,2,T1_SMS_8,95,5,42,127,1106871552
1033,2,T1_SMS_8,96,1,48,26,1106885740
1033,2,T1_SMS_8,97,5,42,127,1107672556
1033,2,T1_SMS_8,98,1,48,14,1107692580
1033,2,T1_SMS_8,99,1,48,33,1108436196
1033,2,T1_SMS_8,100,5,42,127,1108472132
1033,2,T1_SMS_8,101,1,48,32,1109260012
1033,2,T1_SMS_8,102,5,42,127,1109272088
1033,2,T1_SMS_8,103,5,42,127,1110071680
1033,2,T1_SMS_8,104,1,48,29,1110089088
1033,2,T1_SMS_8,105,5,42,127,1110872388
1033,2,T1_SMS_8,106,1,48,23,1110879168
1033,2,T1_SMS_8,107,5,42,127,1111672120
1033,2,T1_SMS_8,108,1,48,34,1111688256
1033,2,T1_SMS_8,109,5,42,127,1112472176
1033,2,T1_SMS_8,110,1,48,38,1112508508
1033,2,T1_SMS_8,111,5,42,127,1113271760
1033,2,T1_SMS_8,112,1,48,29,1113328884
1033,2,T1_SMS_8,113,5,42,127,1114072392
1033,2,T1_SMS_8,114,1,48,23,1114090244
1033,2,T1_SMS_8,115,1,48,24,1114865128
1033,2,T1_SMS_8,116,5,42,127,1114872044
1033,2,T1_SMS_8,117,1,48,19,1115656784
1033,2,T1_SMS_8,118,5,42,127,1115672072
1033,2,T1_SMS_8,119,1,48,38,1116435124
1033,2,T1_SMS_8,120,5,42,127,1116471584
1033,2,T1_SMS_8,121,1,48,26,1117251384
1033,2,T1_SMS_8,122,5,42,127,1117272512
1033,2,T1_SMS_8,123,1,48,22,1118058604
1033,2,T1_SMS_8,124,5,42,127,1118072096
1033,2,T1_SMS_8,125,1,48,29,1118817944
1033,2,T1_SMS_8,126,5,42,127,1118871932
1033,2,T1_SMS_8,127,1,48,19,1119619844
1033,2,T1_SMS_8,128,5,42,127,1119671960
1033,2,T1_SMS_8,129,1,48,33,1120394296
1033,2,T1_SMS_8,130,5,42,127,1120472368
1033,2,T1_SMS_8,131,1,48,28,1121205048
1033,2,T1_SMS_8,132,5,42,127,1121272176
1033,2,T1_SMS_8,133,1,48,28,1122013312
1033,2,T1_SMS_8,134,5,42,127,1122072060
1033,2,T1_SMS_8,135,1,48,37,1122819924
1033,2,T1_SMS_8,136,5,42,127,1122871944
1033,2,T1_SMS_8,137,1,48,28,1123621824
1033,2,T1_SMS_8,138,5,42,127,1123672424
1033,2,T1_SMS_8,139,1,48,29,1124398972
1033,2,T1_SMS_8,140,5,42,127,1124472084
1033,2,T1_SMS_8,141,1,48,27,1125219948
1033,2,T1_SMS_8,142,5,42,127,1125271768
1033,2,T1_SMS_8,143,1,48,27,1126036540
1033,2,T1_SMS_8,144,5,42,127,1126071800
1033,2,T1_SMS_8,145,1,48,29,1126820412
1033,2,T1_SMS_8,146,5,42,127,1126872504
1033,2,T1_SMS_8,147,1,48,27,1127630764
1033,2,T1_SMS_8,148,5,42,127,1127672236
1033,2,T1_SMS_8,149,1,48,30,1128467076
1033,2,T1_SMS_8,150,5,42,127,1128471896
1033,2,T1_SMS_8,151,1,48,31,1129256560
1033,2,T1_SMS_8,152,5,42,127,1129271704
1033,2,T1_SMS_8,153,5,42,127,1130072344
1033,2,T1_SMS_8,154,1,48,23,1130073308
1033,2,T1_SMS_8,155,1,48,25,1130861720
1033,2,T1_SMS_8,156,5,42,127,1130872220
1033,2,T1_SMS_8,157,1,48,28,1131636388
1033,2,T1_SMS_8,158,5,42,127,1131671904
1033,2,T1_SMS_8,159,1,48,27,1132425356
1033,2,T1_SMS_8,160,5,42,127,1132471636
1033,2,T1_SMS_8,161,1,48,24,1133173776
1033,2,T1_SMS_8,162,5,42,127,1133272700
1033,2,T1_SMS_8,163,1,48,30,1133946652
1033,2,T1_SMS_8,164,5,42,127,1134072136
1033,2,T1_SMS_8,165,1,48,30,1134822108
1033,2,T1_SMS_8,166,5,42,127,1134871884
1033,2,T1_SMS_8,167,5,42,127,1135671696
1033,2,T1_SMS_8,168,1,48,29,1135695608
1033,2,T1_SMS_8,169,5,42,127,1136472700
1033,2,T1_SMS_8,170,1,48,28,1136507536
1033,2,T1_SMS_8,171,5,42,127,1137272136
1033,2,T1_SMS_8,172,1,48,27,1137299816
1033,2,T1_SMS_8,173,5,42,127,1138072044
1033,2,T1_SMS_8,174,1,48,32,1138118544
1033,2,T1_SMS_8,175,5,42,127,1138871704
1033,2,T1_SMS_8,176,1,48,24,1138919852
1033,2,T1_SMS_8,177,5,42,127,1139672780
1033,2,T1_SMS_8,178,1,48,21,1139691012
1033,2,T1_SMS_8,179,1,48,27,1140457892
1033,2,T1_SMS_8,180,5,42,127,1140472136
1033,2,T1_SMS_8,181,1,48,29,1141266604
1033,2,T1_SMS_8,182,5,42,127,1141271872
1033,2,T1_SMS_8,183,5,42,127,1142071836
1033,2,T1_SMS_8,184,1,48,29,1142094700
1033,2,T1_SMS_8,185,5,42,127,1142872544
1033,2,T1_SMS_8,186,1,48,28,1142890024
1033,2,T1_SMS_8,187,1,48,27,1143662512
1033,2,T1_SMS_8,188,5,42,127,1143672048
1033,2,T1_SMS_8,189,5,42,127,1144471812
1033,2,T1_SMS_8,190,1,48,28,1144473300
1033,2,T1_SMS_8,191,5,42,127,1145271696
1033,2,T1_SMS_8,192,1,48,28,1145303164
1033,2,T1_SMS_8,193,5,42,127,1146072548
1033,2,T1_SMS_8,194,1,48,23,1146139776
1033,2,T1_SMS_8,195,5,42,127,1146872208
1033,2,T1_SMS_8,196,1,48,32,1146878472
1033,2,T1_SMS_8,197,1,48,29,1147663748
1033,2,T1_SMS_8,198,5,42,127,1147671788
1033,2,T1_SMS_8,199,1,48,29,1148440676
1033,2,T1_SMS_8,200,5,42,127,1148471672
1033,2,T1_SMS_8,201,1,48,27,1149242500
1033,2,T1_SMS_8,202,5,42,127,1149272524
1033,2,T1_SMS_8,203,1,48,30,1149997428
1033,2,T1_SMS_8,204,5,42,127,1150072108
1033,2,T1_SMS_8,205,1,48,28,1150772480
1033,2,T1_SMS_8,206,5,42,127,1150871852
1033,2,T1_SMS_8,207,1,48,31,1151637908
1033,2,T1_SMS_8,208,5,42,127,1151671676
1033,2,T1_SMS_8,209,1,48,37,1152472612
1033,2,T1_SMS_8,210,5,42,127,1152473872
1033,2,T1_SMS_8,211,5,42,127,1153272344
1033,2,T1_SMS_8,212,1,48,26,1153302388
1033,2,T1_SMS_8,213,5,42,127,1154071856
1033,2,T1_SMS_8,214,1,48,29,1154073116
1033,2,T1_SMS_8,215,5,42,127,1154871664
1033,2,T1_SMS_8,216,1,48,18,1154923848
1033,2,T1_SMS_8,217,5,42,127,1155672368
1033,2,T1_SMS_8,218,1,48,29,1155711092
1033,2,T1_SMS_8,219,5,42,127,1156472248
1033,2,T1_SMS_8,220,1,48,24,1156507332
1033,2,T1_SMS_8,221,5,42,127,1157271860
1033,2,T1_SMS_8,222,1,48,21,1157325388
1033,2,T1_SMS_8,223,5,42,127,1158071592
1033,2,T1_SMS_8,224,1,48,27,1158081596
1033,2,T1_SMS_8,225,1,48,31,1158850716
1033,2,T1_SMS_8,226,5,42,127,1158872516
1033,2,T1_SMS_8,227,5,42,127,1159672256
1033,2,T1_SMS_8,228,1,48,21,1159678740
1033,2,T1_SMS_8,229,1,48,32,1160451004
1033,2,T1_SMS_8,230,5,42,127,1160471908
1033,2,T1_SMS_8,231,1,48,32,1161227704
1033,2,T1_SMS_8,232,5,42,127,1161271640
1033,2,T1_SMS_8,233,1,48,32,1162054360
1033,2,T1_SMS_8,234,5,42,127,1162072496
1033,2,T1_SMS_8,235,5,42,127,1162872384
1033,2,T1_SMS_8,236,1,48,24,1162874828
1033,2,T1_SMS_8,237,5,42,127,1163671844
1033,2,T1_SMS_8,238,1,48,26,1163705252
1033,2,T1_SMS_8,0,9999,9999,9999,1068469356
1033,2,T1_SMS_8,1,9999,9999,9999,1069270136
1033,2,T1_SMS_8,2,9999,9999,9999,1070069868
1033,2,T1_SMS_8,3,9999,9999,9999,1070869604
1033,2,T1_SMS_8,4,9999,9999,9999,1071669336
1033,2,T1_SMS_8,5,9999,9999,9999,1072470132
1033,2,T1_SMS_8,6,9999,9999,9999,1073269864
1033,2,T1_SMS_8,7,9999,9999,9999,1074069556
1033,2,T1_SMS_8,8,9999,9999,9999,1074869364
1033,2,T1_SMS_8,9,9999,9999,9999,1075670068
1033,2,T1_SMS_8,10,9999,9999,9999,1076469880
1033,2,T1_SMS_8,11,9999,9999,9999,1077269612
1033,2,T1_SMS_8,12,9999,9999,9999,1078069344
1033,2,T1_SMS_8,13,9999,9999,9999,1078870124
1033,2,T1_SMS_8,14,9999,9999,9999,1079669852
1033,2,T1_SMS_8,15,9999,9999,9999,1080469608
1033,2,T1_SMS_8,16,9999,9999,9999,1081269340
1033,2,T1_SMS_8,17,9999,9999,9999,1082070128
1033,2,T1_SMS_8,18,9999,9999,9999,1082869860
1033,2,T1_SMS_8,19,9999,9999,9999,1083669588
1033,2,T1_SMS_8,20,9999,9999,9999,1084469320
1033,2,T1_SMS_8,21,9999,9999,9999,1085270108
1033,2,T1_SMS_8,22,9999,9999,9999,1086069840
1033,2,T1_SMS_8,23,9999,9999,9999,1086869632
1033,2,T1_SMS_8,24,9999,9999,9999,1087669336
1033,2,T1_SMS_8,25,9999,9999,9999,1088470108
1033,2,T1_SMS_8,26,9999,9999,9999,1089269840
1033,2,T1_SMS_8,27,9999,9999,9999,1090069576
1033,2,T1_SMS_8,28,9999,9999,9999,1090869308
1033,2,T1_SMS_8,29,9999,9999,9999,1091670088
1033,2,T1_SMS_8,30,9999,9999,9999,1092469872
1033,2,T1_SMS_8,31,9999,9999,9999,1093269556
1033,2,T1_SMS_8,32,9999,9999,9999,1094069364
1033,2,T1_SMS_8,33,9999,9999,9999,1094870076
1033,2,T1_SMS_8,34,9999,9999,9999,1095669808
1033,2,T1_SMS_8,35,9999,9999,9999,1096469616
1033,2,T1_SMS_8,36,9999,9999,9999,1097269344
1033,2,T1_SMS_8,37,9999,9999,9999,1098070124
1033,2,T1_SMS_8,38,9999,9999,9999,1098869864
1033,2,T1_SMS_8,39,9999,9999,9999,1099669620
1033,2,T1_SMS_8,40,9999,9999,9999,1100469356
1033,2,T1_SMS_8,41,9999,9999,9999,1101270136
1033,2,T1_SMS_8,42,9999,9999,9999,1102069860
1033,2,T1_SMS_8,43,9999,9999,9999,1102869596
1033,2,T1_SMS_8,44,9999,9999,9999,1103669336
1033,2,T1_SMS_8,45,9999,9999,9999,1104470116
1033,2,T1_SMS_8,46,9999,9999,9999,1105269848
1033,2,T1_SMS_8,47,9999,9999,9999,1106069600
1033,2,T1_SMS_8,48,9999,9999,9999,1106869340
1033,2,T1_SMS_8,49,9999,9999,9999,1107670116
1033,2,T1_SMS_8,50,9999,9999,9999,1108469844
1033,2,T1_SMS_8,51,9999,9999,9999,1109269580
1033,2,T1_SMS_8,52,9999,9999,9999,1110069320
1033,2,T1_SMS_8,53,9999,9999,9999,1110870100
1033,2,T1_SMS_8,54,9999,9999,9999,1111669832
1033,2,T1_SMS_8,55,9999,9999,9999,1112469588
1033,2,T1_SMS_8,56,9999,9999,9999,1113269324
1033,2,T1_SMS_8,57,9999,9999,9999,1114070104
1033,2,T1_SMS_8,58,9999,9999,9999,1114869832
1033,2,T1_SMS_8,59,9999,9999,9999,1115669564
1033,2,T1_SMS_8,60,9999,9999,9999,1116469296
1033,2,T1_SMS_8,61,9999,9999,9999,1117270076
1033,2,T1_SMS_8,62,9999,9999,9999,1118069808
1033,2,T1_SMS_8,63,9999,9999,9999,1118869568
1033,2,T1_SMS_8,64,9999,9999,9999,1119669300
1033,2,T1_SMS_8,65,9999,9999,9999,1120470080
1033,2,T1_SMS_8,66,9999,9999,9999,1121269816
1033,2,T1_SMS_8,67,9999,9999,9999,1122069624
1033,2,T1_SMS_8,68,9999,9999,9999,1122869356
1033,2,T1_SMS_8,69,9999,9999,9999,1123670064
1033,2,T1_SMS_8,70,9999,9999,9999,1124469872
1033,2,T1_SMS_8,71,9999,9999,9999,1125269556
1033,2,T1_SMS_8,72,9999,9999,9999,1126069364
1033,2,T1_SMS_8,73,9999,9999,9999,1126870068
1033,2,T1_SMS_8,74,9999,9999,9999,1127669876
1033,2,T1_SMS_8,75,9999,9999,9999,1128469608
1033,2,T1_SMS_8,76,9999,9999,9999,1129269344
1033,2,T1_SMS_8,77,9999,9999,9999,1130070132
1033,2,T1_SMS_8,78,9999,9999,9999,1130869860
1033,2,T1_SMS_8,79,9999,9999,9999,1131669616
1033,2,T1_SMS_8,80,9999,9999,9999,1132469348
1033,2,T1_SMS_8,81,9999,9999,9999,1133270112
1033,2,T1_SMS_8,82,9999,9999,9999,1134069848
1033,2,T1_SMS_8,83,9999,9999,9999,1134869596
1033,2,T1_SMS_8,84,9999,9999,9999,1135669336
1033,2,T1_SMS_8,85,9999,9999,9999,1136470116
1033,2,T1_SMS_8,86,9999,9999,9999,1137269848
1033,2,T1_SMS_8,87,9999,9999,9999,1138069608
1033,2,T1_SMS_8,88,9999,9999,9999,1138869340
1033,2,T1_SMS_8,89,9999,9999,9999,1139670120
1033,2,T1_SMS_8,90,9999,9999,9999,1140469848
1033,2,T1_SMS_8,91,9999,9999,9999,1141269584
1033,2,T1_SMS_8,92,9999,9999,9999,1142069324
1033,2,T1_SMS_8,93,9999,9999,9999,1142870104
1033,2,T1_SMS_8,94,9999,9999,9999,1143669832
1033,2,T1_SMS_8,95,9999,9999,9999,1144469600
1033,2,T1_SMS_8,96,9999,9999,9999,1145269332
1033,2,T1_SMS_8,97,9999,9999,9999,1146070112
1033,2,T1_SMS_8,98,9999,9999,9999,1146869848
1033,2,T1_SMS_8,99,9999,9999,9999,1147669572
1033,2,T1_SMS_8,100,9999,9999,9999,1148469308
1033,2,T1_SMS_8,101,9999,9999,9999,1149270088
1033,2,T1_SMS_8,102,9999,9999,9999,1150069820
1033,2,T1_SMS_8,103,9999,9999,9999,1150869564
1033,2,T1_SMS_8,104,9999,9999,9999,1151669312
1033,2,T1_SMS_8,105,9999,9999,9999,1152470100
1033,2,T1_SMS_8,106,9999,9999,9999,1153269832
1033,2,T1_SMS_8,107,9999,9999,9999,1154069568
1033,2,T1_SMS_8,108,9999,9999,9999,1154869300
1033,2,T1_SMS_8,109,9999,9999,9999,1155670080
1033,2,T1_SMS_8,110,9999,9999,9999,1156469812
1033,2,T1_SMS_8,111,9999,9999,9999,1157269572
1033,2,T1_SMS_8,112,9999,9999,9999,1158069304
1033,2,T1_SMS_8,113,9999,9999,9999,1158870080
1033,2,T1_SMS_8,114,9999,9999,9999,1159669820
1033,2,T1_SMS_8,115,9999,9999,9999,1160469620
1033,2,T1_SMS_8,116,9999,9999,9999,1161269352
1033,2,T1_SMS_8,117,9999,9999,9999,1162070132
1033,2,T1_SMS_8,118,9999,9999,9999,1162869872
1033,2,T1_SMS_8,119,9999,9999,9999,1163669556
1034,4,T1_SMS_5,0,5,42,127,1216722208
1034,4,T1_SMS_5,1,5,42,127,1217222000
1034,4,T1_SMS_5,2,1,48,20,1217684200
1034,4,T1_SMS_5,3,5,42,127,1217721636
1034,4,T1_SMS_5,4,1,48,25,1218179908
1034,4,T1_SMS_5,5,5,42,127,1218221628
1034,4,T1_SMS_5,6,1,48,22,1218690596
1034,4,T1_SMS_5,7,5,42,127,1218722144
1034,4,T1_SMS_5,8,5,42,127,1219221848
1034,4,T1_SMS_5,9,1,48,31,1219228632
1034,4,T1_SMS_5,10,5,42,127,1219721596
1034,4,T1_SMS_5,11,1,48,27,1219737804
1034,4,T1_SMS_5,12,5,42,127,1220222460
1034,4,T1_SMS_5,13,1,48,26,1220235552
1034,4,T1_SMS_5,14,5,42,127,1220722080
1034,4,T1_SMS_5,15,1,48,25,1220735520
1034,4,T1_SMS_5,16,5,42,127,1221221776
1034,4,T1_SMS_5,17,1,48,32,1221247928
1034,4,T1_SMS_5,18,5,42,127,1221721692
1034,4,T1_SMS_5,19,1,48,25,1221730572
1034,4,T1_SMS_5,20,5,42,127,1222222136
1034,4,T1_SMS_5,21,1,48,26,1222233032
1034,4,T1_SMS_5,22,5,42,127,1222721832
1034,4,T1_SMS_5,23,1,48,27,1222755236
1034,4,T1_SMS_5,24,1,48,22,1223213776
1034,4,T1_SMS_5,25,5,42,127,1223221668
1034,4,T1_SMS_5,26,1,48,26,1223717588
1034,4,T1_SMS_5,27,5,42,127,1223722484
1034,4,T1_SMS_5,28,5,42,127,1224221960
1034,4,T1_SMS_5,29,1,48,23,1224240788
1034,4,T1_SMS_5,30,5,42,127,1224721732
1034,4,T1_SMS_5,31,1,48,22,1224722996
1034,4,T1_SMS_5,32,5,42,127,1225221572
1034,4,T1_SMS_5,33,1,48,29,1225235312
1034,4,T1_SMS_5,34,5,42,127,1225722316
1034,4,T1_SMS_5,35,1,48,29,1225723428
1034,4,T1_SMS_5,36,1,48,28,1226222084
1034,4,T1_SMS_5,37,5,42,127,1226223424
1034,4,T1_SMS_5,38,5,42,127,1226721708
1034,4,T1_SMS_5,39,1,48,31,1226729764
1034,4,T1_SMS_5,40,1,48,27,1227217100
1034,4,T1_SMS_5,41,5,42,127,1227222440
1034,4,T1_SMS_5,42,1,48,24,1227712904
1034,4,T1_SMS_5,43,5,42,127,1227722064
1034,4,T1_SMS_5,44,1,48,29,1228221388
1034,4,T1_SMS_5,45,5,42,127,1228222880
1034,4,T1_SMS_5,46,1,48,27,1228710052
1034,4,T1_SMS_5,47,5,42,127,1228721600
1034,4,T1_SMS_5,48,1,48,23,1229215952
1034,4,T1_SMS_5,49,5,42,127,1229222344
1034,4,T1_SMS_5,50,1,48,29,1229709368
1034,4,T1_SMS_5,51,5,42,127,1229721816
1034,4,T1_SMS_5,52,5,42,127,1230221668
1034,4,T1_SMS_5,53,1,48,34,1230244908
1034,4,T1_SMS_5,54,5,42,127,1230722456
1034,4,T1_SMS_5,55,1,48,30,1230736748
1034,4,T1_SMS_5,56,5,42,127,1231222152
1034,4,T1_SMS_5,57,1,48,31,1231243324
1034,4,T1_SMS_5,58,5,42,127,1231721848
1034,4,T1_SMS_5,59,1,48,27,1231752792
1034,4,T1_SMS_5,60,5,42,127,1232221468
1034,4,T1_SMS_5,61,1,48,29,1232260712
1034,4,T1_SMS_5,62,5,42,127,1232722360
1034,4,T1_SMS_5,63,1,48,26,1232729816
1034,4,T1_SMS_5,64,5,42,127,1233222128
1034,4,T1_SMS_5,65,1,48,34,1233250080
1034,4,T1_SMS_5,66,1,48,26,1233717372
1034,4,T1_SMS_5,67,5,42,127,1233721668
1034,4,T1_SMS_5,68,1,48,27,1234192004
1034,4,T1_SMS_5,69,5,42,127,1234221440
1034,4,T1_SMS_5,70,5,42,127,1234722184
1034,4,T1_SMS_5,71,1,48,28,1234724780
1034,4,T1_SMS_5,72,5,42,127,1235221732
1034,4,T1_SMS_5,73,1,48,29,1235241752
1034,4,T1_SMS_5,74,1,48,26,1235718916
1034,4,T1_SMS_5,75,5,42,127,1235721572
1034,4,T1_SMS_5,76,1,48,25,1236212552
1034,4,T1_SMS_5,77,5,42,127,1236222312
1034,4,T1_SMS_5,78,1,48,28,1236715840
1034,4,T1_SMS_5,79,5,42,127,1236722232
1034,4,T1_SMS_5,80,5,42,127,1237221712
1034,4,T1_SMS_5,81,1,48,31,1237233352
1034,4,T1_SMS_5,82,1,48,26,1237699600
1034,4,T1_SMS_5,83,5,42,127,1237721324
1034,4,T1_SMS_5,84,1,48,26,1238201464
1034,4,T1_SMS_5,85,5,42,127,1238222440
1034,4,T1_SMS_5,86,1,48,31,1238712748
1034,4,T1_SMS_5,87,5,42,127,1238721836
1034,4,T1_SMS_5,88,1,48,30,1239216712
1034,4,T1_SMS_5,89,5,42,127,1239221608
1034,4,T1_SMS_5,90,1,48,25,1239698376
1034,4,T1_SMS_5,91,5,42,127,1239722272
1034,4,T1_SMS_5,92,1,48,30,1240193260
1034,4,T1_SMS_5,93,5,42,127,1240222264
1034,4,T1_SMS_5,94,1,48,27,1240699388
1034,4,T1_SMS_5,95,5,42,127,1240721736
1034,4,T1_SMS_5,96,5,42,127,1241221412
1034,4,T1_SMS_5,97,1,48,27,1241222972
1034,4,T1_SMS_5,98,1,48,28,1241720952
1034,4,T1_SMS_5,99,5,42,127,1241722520
1034,4,T1_SMS_5,100,1,48,25,1242209920
1034,4,T1_SMS_5,101,5,42,127,1242222144
1034,4,T1_SMS_5,102,1,48,26,1242714848
1034,4,T1_SMS_5,103,5,42,127,1242721616
1034,4,T1_SMS_5,104,1,48,29,1243209680
1034,4,T1_SMS_5,105,5,42,127,1243222356
1034,4,T1_SMS_5,106,1,48,27,1243689260
1034,4,T1_SMS_5,107,5,42,127,1243722348
1034,4,T1_SMS_5,108,1,48,27,1244219368
1034,4,T1_SMS_5,109,5,42,127,1244222096
1034,4,T1_SMS_5,110,1,48,23,1244716152
1034,4,T1_SMS_5,111,5,42,127,1244721568
1034,4,T1_SMS_5,112,1,48,20,1245214492
1034,4,T1_SMS_5,113,5,42,127,1245222380
1034,4,T1_SMS_5,114,1,48,27,1245694000
1034,4,T1_SMS_5,115,5,42,127,1245722376
1034,4,T1_SMS_5,116,5,42,127,1246221560
1034,4,T1_SMS_5,117,1,48,28,1246240088
1034,4,T1_SMS_5,118,5,42,127,1246722448
1034,4,T1_SMS_5,119,1,48,27,1246737312
1034,4,T1_SMS_5,120,1,48,23,1247193384
1034,4,T1_SMS_5,121,5,42,127,1247222288
1034,4,T1_SMS_5,122,5,42,127,1247721696
1034,4,T1_SMS_5,123,1,48,29,1247765200
1034,4,T1_SMS_5,124,5,42,127,1248221612
1034,4,T1_SMS_5,125,1,48,25,1248226000
1034,4,T1_SMS_5,126,1,48,24,1248700548
1034,4,T1_SMS_5,127,5,42,127,1248722420
1034,4,T1_SMS_5,128,5,42,127,1249222268
1034,4,T1_SMS_5,129,1,48,25,1249240428
1034,4,T1_SMS_5,130,5,42,127,1249721816
1034,4,T1_SMS_5,131,1,48,25,1249744160
1034,4,T1_SMS_5,132,1,48,23,1250205460
1034,4,T1_SMS_5,133,5,42,127,1250221356
1034,4,T1_SMS_5,134,1,48,25,1250716376
1034,4,T1_SMS_5,135,5,42,127,1250722244
1034,4,T1_SMS_5,136,1,48,27,1251204156
1034,4,T1_SMS_5,137,5,42,127,1251221940
1034,4,T1_SMS_5,138,1,48,26,1251692404
1034,4,T1_SMS_5,139,5,42,127,1251721488
1034,4,T1_SMS_5,140,1,48,26,1252200852
1034,4,T1_SMS_5,141,5,42,127,1252222276
1034,4,T1_SMS_5,142,1,48,27,1252704132
1034,4,T1_SMS_5,143,5,42,127,1252721972
1034,4,T1_SMS_5,144,1,48,31,1253216400
1034,4,T1_SMS_5,145,5,42,127,1253221740
1034,4,T1_SMS_5,146,1,48,26,1253721368
1034,4,T1_SMS_5,147,5,42,127,1253722704
1034,4,T1_SMS_5,148,5,42,127,1254222184
1034,4,T1_SMS_5,149,1,48,22,1254241160
1034,4,T1_SMS_5,150,5,42,127,1254721952
1034,4,T1_SMS_5,151,1,48,32,1254730160
1034,4,T1_SMS_5,152,1,48,27,1255219528
1034,4,T1_SMS_5,153,5,42,127,1255221568
1034,4,T1_SMS_5,154,1,48,29,1255721260
1034,4,T1_SMS_5,155,5,42,127,1255722680
1034,4,T1_SMS_5,156,5,42,127,1256222012
1034,4,T1_SMS_5,157,1,48,29,1256234700
1034,4,T1_SMS_5,158,1,48,28,1256701096
1034,4,T1_SMS_5,159,5,42,127,1256721772
1034,4,T1_SMS_5,160,5,42,127,1257221624
1034,4,T1_SMS_5,161,1,48,23,1257275980
1034,4,T1_SMS_5,162,1,48,23,1257716560
1034,4,T1_SMS_5,163,5,42,127,1257722284
1034,4,T1_SMS_5,164,1,48,22,1258182376
1034,4,T1_SMS_5,165,5,42,127,1258222052
1034,4,T1_SMS_5,166,1,48,29,1258713932
1034,4,T1_SMS_5,167,5,42,127,1258721600
1034,4,T1_SMS_5,168,5,42,127,1259222348
1034,4,T1_SMS_5,169,1,48,27,1259243940
1034,4,T1_SMS_5,170,1,48,30,1259719924
1034,4,T1_SMS_5,171,5,42,127,1259722112
1034,4,T1_SMS_5,172,1,48,26,1260215260
1034,4,T1_SMS_5,173,5,42,127,1260221804
1034,4,T1_SMS_5,174,1,48,30,1260720828
1034,4,T1_SMS_5,175,5,42,127,1260722472
1034,4,T1_SMS_5,176,5,42,127,1261222172
1034,4,T1_SMS_5,177,1,48,22,1261246160
1034,4,T1_SMS_5,178,5,42,127,1261721948
1034,4,T1_SMS_5,179,1,48,27,1261723284
1034,4,T1_SMS_5,180,5,42,127,1262221864
1034,4,T1_SMS_5,181,1,48,30,1262230520
1034,4,T1_SMS_5,182,1,48,27,1262716408
1034,4,T1_SMS_5,183,5,42,127,1262722280
1034,4,T1_SMS_5,184,5,42,127,1263222128
1034,4,T1_SMS_5,185,1,48,29,1263231752
1034,4,T1_SMS_5,186,5,42,127,1263721972
1034,4,T1_SMS_5,187,1,48,25,1263751120
1034,4,T1_SMS_5,188,5,42,127,1264221516
1034,4,T1_SMS_5,189,1,48,20,1264303200
1034,4,T1_SMS_5,190,5,42,127,1264722332
1034,4,T1_SMS_5,191,1,48,27,1264734052
1034,4,T1_SMS_5,192,5,42,127,1265222028
1034,4,T1_SMS_5,193,1,48,21,1265230012
1034,4,T1_SMS_5,194,1,48,22,1265716072
1034,4,T1_SMS_5,195,5,42,127,1265721792
1034,4,T1_SMS_5,196,1,48,24,1266205444
1034,4,T1_SMS_5,197,5,42,127,1266221564
1034,4,T1_SMS_5,198,1,48,24,1266702000
1034,4,T1_SMS_5,199,5,42,127,1266722084
1034,4,T1_SMS_5,200,5,42,127,1267221784
1034,4,T1_SMS_5,201,1,48,33,1267228048
1034,4,T1_SMS_5,202,1,48,22,1267685008
1034,4,T1_SMS_5,203,5,42,127,1267721548
1034,4,T1_SMS_5,204,1,48,25,1268219264
1034,4,T1_SMS_5,205,5,42,127,1268222364
1034,4,T1_SMS_5,206,5,42,127,1268721916
1034,4,T1_SMS_5,207,1,48,28,1268731540
1034,4,T1_SMS_5,208,1,48,24,1269208408
1034,4,T1_SMS_5,209,5,42,127,1269221828
1034,4,T1_SMS_5,210,1,48,21,1269670928
1034,4,T1_SMS_5,211,5,42,127,1269721524
1034,4,T1_SMS_5,212,1,48,27,1270177724
1034,4,T1_SMS_5,213,5,42,127,1270222040
1034,4,T1_SMS_5,214,1,48,25,1270709288
1034,4,T1_SMS_5,215,5,42,127,1270721812
1034,4,T1_SMS_5,216,1,48,29,1271202924
1034,4,T1_SMS_5,217,5,42,127,1271221732
1034,4,T1_SMS_5,218,1,48,29,1271719748
1034,4,T1_SMS_5,219,5,42,127,1271722324
1034,4,T1_SMS_5,220,5,42,127,1272222028
1034,4,T1_SMS_5,221,1,48,28,1272233820
1034,4,T1_SMS_5,222,5,42,127,1272721796
1034,4,T1_SMS_5,223,1,48,28,1272729708
1034,4,T1_SMS_5,224,1,48,20,1273201304
1034,4,T1_SMS_5,225,5,42,127,1273221460
1034,4,T1_SMS_5,226,1,48,26,1273684888
1034,4,T1_SMS_5,227,5,42,127,1273722324
1034,4,T1_SMS_5,228,1,48,31,1274195656
1034,4,T1_SMS_5,229,5,42,127,1274221948
1034,4,T1_SMS_5,230,5,42,127,1274721796
1034,4,T1_SMS_5,231,1,48,24,1274731800
1034,4,T1_SMS_5,232,1,48,30,1275220572
1034,4,T1_SMS_5,233,5,42,127,1275222308
1034,4,T1_SMS_5,234,5,42,127,1275722084
1034,4,T1_SMS_5,235,1,48,26,1275730588
1034,4,T1_SMS_5,236,1,48,28,1276210220
1034,4,T1_SMS_5,237,5,42,127,1276221992
1034,4,T1_SMS_5,238,1,48,28,1276715076
1034,4,T1_SMS_5,239,5,42,127,1276721688
1034,4,T1_SMS_5,240,1,48,27,1277216560
1034,4,T1_SMS_5,241,5,42,127,1277222284
1034,4,T1_SMS_5,242,1,48,22,1277717536
1034,4,T1_SMS_5,243,5,42,127,1277722052
1034,4,T1_SMS_5,244,1,48,20,1278208104
1034,4,T1_SMS_5,245,5,42,127,1278221896
1034,4,T1_SMS_5,246,1,48,27,1278702712
1034,4,T1_SMS_5,247,5,42,127,1278722492
1034,4,T1_SMS_5,248,1,48,21,1279220604
1034,4,T1_SMS_5,249,5,42,127,1279222112
1034,4,T1_SMS_5,250,1,48,24,1279703524
1034,4,T1_SMS_5,251,5,42,127,1279721884
1034,4,T1_SMS_5,252,1,48,28,1280208676
1034,4,T1_SMS_5,253,5,42,127,1280221872
1034,4,T1_SMS_5,254,1,48,31,1280714204
1034,4,T1_SMS_5,255,5,42,127,1280722168
1034,4,T1_SMS_5,256,1,48,30,1281206424
1034,4,T1_SMS_5,257,5,42,127,1281222088
1034,4,T1_SMS_5,258,1,48,26,1281706044
1034,4,T1_SMS_5,0,9999,9999,9999,1216719924
1034,4,T1_SMS_5,1,9999,9999,9999,1217219640
1034,4,T1_SMS_5,2,9999,9999,9999,1217719352
1034,4,T1_SMS_5,3,9999,9999,9999,1218219120
1034,4,T1_SMS_5,4,9999,9999,9999,1218719860
1034,4,T1_SMS_5,5,9999,9999,9999,1219219560
1034,4,T1_SMS_5,6,9999,9999,9999,1219719232
1034,4,T1_SMS_5,7,9999,9999,9999,1220220024
1034,4,T1_SMS_5,8,9999,9999,9999,1220719720
1034,4,T1_SMS_5,9,9999,9999,9999,1221219412
1034,4,T1_SMS_5,10,9999,9999,9999,1221719108
1034,4,T1_SMS_5,11,9999,9999,9999,1222219848
1034,4,T1_SMS_5,12,9999,9999,9999,1222719544
1034,4,T1_SMS_5,13,9999,9999,9999,1223219308
1034,4,T1_SMS_5,14,9999,9999,9999,1223720048
1034,4,T1_SMS_5,15,9999,9999,9999,1224219748
1034,4,T1_SMS_5,16,9999,9999,9999,1224719444
1034,4,T1_SMS_5,17,9999,9999,9999,1225219140
1034,4,T1_SMS_5,18,9999,9999,9999,1225719880
1034,4,T1_SMS_5,19,9999,9999,9999,1226219576
1034,4,T1_SMS_5,20,9999,9999,9999,1226719344
1034,4,T1_SMS_5,21,9999,9999,9999,1227220080
1034,4,T1_SMS_5,22,9999,9999,9999,1227719776
1034,4,T1_SMS_5,23,9999,9999,9999,1228219476
1034,4,T1_SMS_5,24,9999,9999,9999,1228719168
1034,4,T1_SMS_5,25,9999,9999,9999,1229219908
1034,4,T1_SMS_5,26,9999,9999,9999,1229719604
1034,4,T1_SMS_5,27,9999,9999,9999,1230219380
1034,4,T1_SMS_5,28,9999,9999,9999,1230720096
1034,4,T1_SMS_5,29,9999,9999,9999,1231219792
1034,4,T1_SMS_5,30,9999,9999,9999,1231719488
1034,4,T1_SMS_5,31,9999,9999,9999,1232219256
1034,4,T1_SMS_5,32,9999,9999,9999,1232719924
1034,4,T1_SMS_5,33,9999,9999,9999,1233219692
1034,4,T1_SMS_5,34,9999,9999,9999,1233719380
1034,4,T1_SMS_5,35,9999,9999,9999,1234219076
1034,4,T1_SMS_5,36,9999,9999,9999,1234719824
1034,4,T1_SMS_5,37,9999,9999,9999,1235219520
1034,4,T1_SMS_5,38,9999,9999,9999,1235719284
1034,4,T1_SMS_5,39,9999,9999,9999,1236220024
1034,4,T1_SMS_5,40,9999,9999,9999,1236719720
1034,4,T1_SMS_5,41,9999,9999,9999,1237219424
1034,4,T1_SMS_5,42,9999,9999,9999,1237719112
1034,4,T1_SMS_5,43,9999,9999,9999,1238219856
1034,4,T1_SMS_5,44,9999,9999,9999,1238719548
1034,4,T1_SMS_5,45,9999,9999,9999,1239219320
1034,4,T1_SMS_5,46,9999,9999,9999,1239719988
1034,4,T1_SMS_5,47,9999,9999,9999,1240219756
1034,4,T1_SMS_5,48,9999,9999,9999,1240719448
1034,4,T1_SMS_5,49,9999,9999,9999,1241219124
1034,4,T1_SMS_5,50,9999,9999,9999,1241719872
1034,4,T1_SMS_5,51,9999,9999,9999,1242219636
1034,4,T1_SMS_5,52,9999,9999,9999,1242719328
1034,4,T1_SMS_5,53,9999,9999,9999,1243220072
1034,4,T1_SMS_5,54,9999,9999,9999,1243719764
1034,4,T1_SMS_5,55,9999,9999,9999,1244219512
1034,4,T1_SMS_5,56,9999,9999,9999,1244719208
1034,4,T1_SMS_5,57,9999,9999,9999,1245219948
1034,4,T1_SMS_5,58,9999,9999,9999,1245719644
1034,4,T1_SMS_5,59,9999,9999,9999,1246219348
1034,4,T1_SMS_5,60,9999,9999,9999,1246720088
1034,4,T1_SMS_5,61,9999,9999,9999,1247219780
1034,4,T1_SMS_5,62,9999,9999,9999,1247719480
1034,4,T1_SMS_5,63,9999,9999,9999,1248219252
1034,4,T1_SMS_5,64,9999,9999,9999,1248719984
1034,4,T1_SMS_5,65,9999,9999,9999,1249219688
1034,4,T1_SMS_5,66,9999,9999,9999,1249719380
1034,4,T1_SMS_5,67,9999,9999,9999,1250219072
1034,4,T1_SMS_5,68,9999,9999,9999,1250719812
1034,4,T1_SMS_5,69,9999,9999,9999,1251219504
1034,4,T1_SMS_5,70,9999,9999,9999,1251719252
1034,4,T1_SMS_5,71,9999,9999,9999,1252219992
1034,4,T1_SMS_5,72,9999,9999,9999,1252719688
1034,4,T1_SMS_5,73,9999,9999,9999,1253219380
1034,4,T1_SMS_5,74,9999,9999,9999,1253719156
1034,4,T1_SMS_5,75,9999,9999,9999,1254219824
1034,4,T1_SMS_5,76,9999,9999,9999,1254719592
1034,4,T1_SMS_5,77,9999,9999,9999,1255219320
1034,4,T1_SMS_5,78,9999,9999,9999,1255720028
1034,4,T1_SMS_5,79,9999,9999,9999,1256219724
1034,4,T1_SMS_5,80,9999,9999,9999,1256719412
1034,4,T1_SMS_5,81,9999,9999,9999,1257219188
1034,4,T1_SMS_5,82,9999,9999,9999,1257719924
1034,4,T1_SMS_5,83,9999,9999,9999,1258219620
1034,4,T1_SMS_5,84,9999,9999,9999,1258719312
1034,4,T1_SMS_5,85,9999,9999,9999,1259220060
1034,4,T1_SMS_5,86,9999,9999,9999,1259719792
1034,4,T1_SMS_5,87,9999,9999,9999,1260219444
1034,4,T1_SMS_5,88,9999,9999,9999,1260719220
1034,4,T1_SMS_5,89,9999,9999,9999,1261219960
1034,4,T1_SMS_5,90,9999,9999,9999,1261719660
1034,4,T1_SMS_5,91,9999,9999,9999,1262219356
1034,4,T1_SMS_5,92,9999,9999,9999,1262720068
1034,4,T1_SMS_5,93,9999,9999,9999,1263219768
1034,4,T1_SMS_5,94,9999,9999,9999,1263719536
1034,4,T1_SMS_5,95,9999,9999,9999,1264219232
1034,4,T1_SMS_5,96,9999,9999,9999,1264719972
1034,4,T1_SMS_5,97,9999,9999,9999,1265219668
1034,4,T1_SMS_5,98,9999,9999,9999,1265719356
1034,4,T1_SMS_5,99,9999,9999,9999,1266219128
1034,4,T1_SMS_5,100,9999,9999,9999,1266719796
1034,4,T1_SMS_5,101,9999,9999,9999,1267219572
1034,4,T1_SMS_5,102,9999,9999,9999,1267719260
1034,4,T1_SMS_5,103,9999,9999,9999,1268220000
1034,4,T1_SMS_5,104,9999,9999,9999,1268719704
1034,4,T1_SMS_5,105,9999,9999,9999,1269219392
1034,4,T1_SMS_5,106,9999,9999,9999,1269719088
1034,4,T1_SMS_5,107,9999,9999,9999,1270219828
1034,4,T1_SMS_5,108,9999,9999,9999,1270719600
1034,4,T1_SMS_5,109,9999,9999,9999,1271219296
1034,4,T1_SMS_5,110,9999,9999,9999,1271720040
1034,4,T1_SMS_5,111,9999,9999,9999,1272219740
1034,4,T1_SMS_5,112,9999,9999,9999,1272719436
1034,4,T1_SMS_5,113,9999,9999,9999,1273219176
1034,4,T1_SMS_5,114,9999,9999,9999,1273719892
1034,4,T1_SMS_5,115,9999,9999,9999,1274219588
1034,4,T1_SMS_5,116,9999,9999,9999,1274719288
1034,4,T1_SMS_5,117,9999,9999,9999,1275220044
1034,4,T1_SMS_5,118,9999,9999,9999,1275719796
1034,4,T1_SMS_5,119,9999,9999,9999,1276219484
1034,4,T1_SMS_5,120,9999,9999,9999,1276719180
1034,4,T1_SMS_5,121,9999,9999,9999,1277219920
1034,4,T1_SMS_5,122,9999,9999,9999,1277719616
1034,4,T1_SMS_5,123,9999,9999,9999,1278219312
1034,4,T1_SMS_5,124,9999,9999,9999,1278720056
1034,4,T1_SMS_5,125,9999,9999,9999,1279219832
1034,4,T1_SMS_5,126,9999,9999,9999,1279719520
1034,4,T1_SMS_5,127,9999,9999,9999,1280219216
1034,4,T1_SMS_5,128,9999,9999,9999,1280719956
1034,4,T1_SMS_5,129,9999,9999,9999,1281219652
1035,20,Ticks_Linear_8,0,5,42,127,1292358060
1035,20,Ticks_Linear_8,1,5,42,127,1293178396
1035,20,Ticks_Linear_8,2,1,48,28,1293375416
1035,20,Ticks_Linear_8,3,5,42,127,1293997544
1035,20,Ticks_Linear_8,4,1,48,27,1294126924
1035,20,Ticks_Linear_8,5,5,42,127,1294817636
1035,20,Ticks_Linear_8,6,1,48,21,1294852356
1035,20,Ticks_Linear_8,7,1,48,24,1295611540
1035,20,Ticks_Linear_8,8,5,42,127,1295637796
1035,20,Ticks_Linear_8,9,1,48,25,1296418012
1035,20,Ticks_Linear_8,10,5,42,127,1296447852
1035,20,Ticks_Linear_8,11,5,42,127,1297257844
1035,20,Ticks_Linear_8,12,1,48,25,1297264176
1035,20,Ticks_Linear_8,13,5,42,127,1298067852
1035,20,Ticks_Linear_8,14,1,48,25,1298087080
1035,20,Ticks_Linear_8,15,1,48,27,1298877464
1035,20,Ticks_Linear_8,16,5,42,127,1298878804
1035,20,Ticks_Linear_8,17,5,42,127,1299687744
1035,20,Ticks_Linear_8,18,1,48,23,1299706740
1035,20,Ticks_Linear_8,19,5,42,127,1300487620
1035,20,Ticks_Linear_8,20,1,48,21,1300505108
1035,20,Ticks_Linear_8,21,5,42,127,1301288540
1035,20,Ticks_Linear_8,22,1,48,21,1301306644
1035,20,Ticks_Linear_8,23,5,42,127,1302087964
1035,20,Ticks_Linear_8,24,1,48,25,1302094668
1035,20,Ticks_Linear_8,25,1,48,23,1302869368
1035,20,Ticks_Linear_8,26,5,42,127,1302887756
1035,20,Ticks_Linear_8,27,1,48,24,1303672380
1035,20,Ticks_Linear_8,28,5,42,127,1303687504
1035,20,Ticks_Linear_8,29,5,42,127,1304478172
1035,20,Ticks_Linear_8,30,1,48,17,1304506084
1035,20,Ticks_Linear_8,31,5,42,127,1305267564
1035,20,Ticks_Linear_8,32,1,48,18,1305294864
1035,20,Ticks_Linear_8,33,1,48,28,1306047464
1035,20,Ticks_Linear_8,34,5,42,127,1306058364
1035,20,Ticks_Linear_8,35,5,42,127,1306847612
1035,20,Ticks_Linear_8,36,1,48,18,1306877248
1035,20,Ticks_Linear_8,37,5,42,127,1307638272
1035,20,Ticks_Linear_8,38,1,48,20,1307674716
1035,20,Ticks_Linear_8,39,5,42,127,1308418304
1035,20,Ticks_Linear_8,40,1,48,27,1308487624
1035,20,Ticks_Linear_8,41,5,42,127,1309207916
1035,20,Ticks_Linear_8,42,1,48,17,1309240168
1035,20,Ticks_Linear_8,43,1,48,19,1309963852
1035,20,Ticks_Linear_8,44,5,42,127,1309988312
1035,20,Ticks_Linear_8,45,1,48,19,1310758044
1035,20,Ticks_Linear_8,46,5,42,127,1310767516
1035,20,Ticks_Linear_8,47,5,42,127,1311547628
1035,20,Ticks_Linear_8,48,1,48,20,1311551644
1035,20,Ticks_Linear_8,49,5,42,127,1312317696
1035,20,Ticks_Linear_8,50,1,48,22,1312329724
1035,20,Ticks_Linear_8,51,5,42,127,1313088060
1035,20,Ticks_Linear_8,52,1,48,28,1313124576
1035,20,Ticks_Linear_8,53,1,48,21,1313837268
1035,20,Ticks_Linear_8,54,5,42,127,1313857900
1035,20,Ticks_Linear_8,55,5,42,127,1314628272
1035,20,Ticks_Linear_8,56,1,48,24,1314642768
1035,20,Ticks_Linear_8,57,5,42,127,1315398116
1035,20,Ticks_Linear_8,58,1,48,24,1315451780
1035,20,Ticks_Linear_8,59,5,42,127,1316157776
1035,20,Ticks_Linear_8,60,1,48,24,1316167260
1035,20,Ticks_Linear_8,61,1,48,21,1316880988
1035,20,Ticks_Linear_8,62,5,42,127,1316917500
1035,20,Ticks_Linear_8,63,1,48,19,1317635856
1035,20,Ticks_Linear_8,64,5,42,127,1317677384
1035,20,Ticks_Linear_8,65,1,48,19,1318403596
1035,20,Ticks_Linear_8,66,5,42,127,1318438316
1035,20,Ticks_Linear_8,67,1,48,26,1319184744
1035,20,Ticks_Linear_8,68,5,42,127,1319198272
1035,20,Ticks_Linear_8,69,1,48,23,1319919700
1035,20,Ticks_Linear_8,70,5,42,127,1319947600
1035,20,Ticks_Linear_8,71,5,42,127,1320698204
1035,20,Ticks_Linear_8,72,1,48,18,1320704980
1035,20,Ticks_Linear_8,73,1,48,20,1321428012
1035,20,Ticks_Linear_8,74,5,42,127,1321447820
1035,20,Ticks_Linear_8,75,1,48,24,1322151788
1035,20,Ticks_Linear_8,76,5,42,127,1322198340
1035,20,Ticks_Linear_8,77,1,48,17,1322927336
1035,20,Ticks_Linear_8,78,5,42,127,1322948188
1035,20,Ticks_Linear_8,79,1,48,26,1323672684
1035,20,Ticks_Linear_8,80,5,42,127,1323688304
1035,20,Ticks_Linear_8,81,5,42,127,1324427524
1035,20,Ticks_Linear_8,82,1,48,28,1324443892
1035,20,Ticks_Linear_8,83,5,42,127,1325168060
1035,20,Ticks_Linear_8,84,1,48,18,1325172668
1035,20,Ticks_Linear_8,85,1,48,21,1325907796
1035,20,Ticks_Linear_8,86,5,42,127,1325909288
1035,20,Ticks_Linear_8,87,5,42,127,1326647540
1035,20,Ticks_Linear_8,88,1,48,19,1326688332
1035,20,Ticks_Linear_8,89,5,42,127,1327377916
1035,20,Ticks_Linear_8,90,1,48,16,1327425972
1035,20,Ticks_Linear_8,91,5,42,127,1328108068
1035,20,Ticks_Linear_8,92,1,48,17,1328112308
1035,20,Ticks_Linear_8,93,5,42,127,1328838148
1035,20,Ticks_Linear_8,94,1,48,21,1328843884
1035,20,Ticks_Linear_8,95,5,42,127,1329568000
1035,20,Ticks_Linear_8,96,1,48,24,1330267100
1035,20,Ticks_Linear_8,97,5,42,127,1330298144
1035,20,Ticks_Linear_8,98,1,48,21,1330960856
1035,20,Ticks_Linear_8,99,5,42,127,1331017964
1035,20,Ticks_Linear_8,100,1,48,21,1331687196
1035,20,Ticks_Linear_8,101,5,42,127,1331737932
1035,20,Ticks_Linear_8,102,1,48,26,1332394496
1035,20,Ticks_Linear_8,103,5,42,127,1332457900
1035,20,Ticks_Linear_8,104,1,48,31,1333108456
1035,20,Ticks_Linear_8,105,5,42,127,1333177940
1035,20,Ticks_Linear_8,106,1,48,29,1333860476
1035,20,Ticks_Linear_8,107,5,42,127,1333897464
1035,20,Ticks_Linear_8,108,5,42,127,1334608200
1035,20,Ticks_Linear_8,109,1,48,28,1334631384
1035,20,Ticks_Linear_8,110,5,42,127,1335317912
1035,20,Ticks_Linear_8,111,1,48,26,1335328372
1035,20,Ticks_Linear_8,112,1,48,28,1335997992
1035,20,Ticks_Linear_8,113,5,42,127,1336027464
1035,20,Ticks_Linear_8,114,1,48,21,1336724164
1035,20,Ticks_Linear_8,115,5,42,127,1336738144
1035,20,Ticks_Linear_8,116,1,48,27,1337430708
1035,20,Ticks_Linear_8,117,5,42,127,1337447976
1035,20,Ticks_Linear_8,118,5,42,127,1338148184
1035,20,Ticks_Linear_8,119,1,48,23,1338177816
1035,20,Ticks_Linear_8,120,5,42,127,1338847856
1035,20,Ticks_Linear_8,121,1,48,22,1338891420
1035,20,Ticks_Linear_8,122,1,48,21,1339529960
1035,20,Ticks_Linear_8,123,5,42,127,1339547976
1035,20,Ticks_Linear_8,124,1,48,16,1340231708
1035,20,Ticks_Linear_8,125,5,42,127,1340248372
1035,20,Ticks_Linear_8,126,1,48,18,1340912428
1035,20,Ticks_Linear_8,127,5,42,127,1340957936
1035,20,Ticks_Linear_8,128,1,48,24,1341602148
1035,20,Ticks_Linear_8,129,5,42,127,1341648248
1035,20,Ticks_Linear_8,130,1,48,22,1342317976
1035,20,Ticks_Linear_8,131,5,42,127,1342338532
1035,20,Ticks_Linear_8,132,1,48,26,1342983636
1035,20,Ticks_Linear_8,133,5,42,127,1343037976
1035,20,Ticks_Linear_8,134,1,48,16,1343724496
1035,20,Ticks_Linear_8,135,5,42,127,1343728216
1035,20,Ticks_Linear_8,136,5,42,127,1344418236
1035,20,Ticks_Linear_8,137,1,48,19,1344421356
1035,20,Ticks_Linear_8,138,5,42,127,1345097968
1035,20,Ticks_Linear_8,139,1,48,24,1345101456
1035,20,Ticks_Linear_8,140,1,48,21,1345776964
1035,20,Ticks_Linear_8,141,5,42,127,1345778460
1035,20,Ticks_Linear_8,142,1,48,23,1346432384
1035,20,Ticks_Linear_8,143,5,42,127,1346457916
1035,20,Ticks_Linear_8,144,1,48,19,1347123444
1035,20,Ticks_Linear_8,145,5,42,127,1347137872
1035,20,Ticks_Linear_8,146,1,48,25,1347818004
1035,20,Ticks_Linear_8,147,5,42,127,1347819344
1035,20,Ticks_Linear_8,148,5,42,127,1348487724
1035,20,Ticks_Linear_8,149,1,48,21,1348496988
1035,20,Ticks_Linear_8,150,5,42,127,1349158168
1035,20,Ticks_Linear_8,151,1,48,21,1349166460
1035,20,Ticks_Linear_8,152,5,42,127,1349828108
1035,20,Ticks_Linear_8,153,1,48,23,1349842236
1035,20,Ticks_Linear_8,154,5,42,127,1350497952
1035,20,Ticks_Linear_8,155,1,48,17,1350510960
1035,20,Ticks_Linear_8,156,5,42,127,1351168348
1035,20,Ticks_Linear_8,157,1,48,24,1351200596
1035,20,Ticks_Linear_8,158,1,48,20,1351827956
1035,20,Ticks_Linear_8,159,5,42,127,1351829220
1035,20,Ticks_Linear_8,160,1,48,27,1352478212
1035,20,Ticks_Linear_8,161,5,42,127,1352488284
1035,20,Ticks_Linear_8,162,1,48,16,1353109884
1035,20,Ticks_Linear_8,163,5,42,127,1353147892
1035,20,Ticks_Linear_8,164,1,48,20,1353789840
1035,20,Ticks_Linear_8,165,5,42,127,1353808152
1035,20,Ticks_Linear_8,166,5,42,127,1354467620
1035,20,Ticks_Linear_8,167,1,48,32,1354508184
1035,20,Ticks_Linear_8,168,5,42,127,1355117844
1035,20,Ticks_Linear_8,169,1,48,22,1355191752
1035,20,Ticks_Linear_8,170,5,42,127,1355768240
1035,20,Ticks_Linear_8,171,1,48,26,1355817420
1035,20,Ticks_Linear_8,172,1,48,20,1356375732
1035,20,Ticks_Linear_8,173,5,42,127,1356418604
1035,20,Ticks_Linear_8,174,5,42,127,1357077772
1035,20,Ticks_Linear_8,175,1,48,19,1357143864
1035,20,Ticks_Linear_8,176,5,42,127,1357728244
1035,20,Ticks_Linear_8,177,1,48,20,1357824520
1035,20,Ticks_Linear_8,178,5,42,127,1358368208
1035,20,Ticks_Linear_8,179,1,48,18,1358485472
1035,20,Ticks_Linear_8,180,5,42,127,1359007976
1035,20,Ticks_Linear_8,181,1,48,21,1359079768
1035,20,Ticks_Linear_8,182,5,42,127,1359648012
1035,20,Ticks_Linear_8,183,1,48,20,1359696516
1035,20,Ticks_Linear_8,184,5,42,127,1360288076
1035,20,Ticks_Linear_8,185,1,48,22,1360299656
1035,20,Ticks_Linear_8,186,5,42,127,1360928192
1035,20,Ticks_Linear_8,187,1,48,25,1360945544
1035,20,Ticks_Linear_8,188,5,42,127,1361557920
1035,20,Ticks_Linear_8,189,1,48,18,1361605140
1035,20,Ticks_Linear_8,190,5,42,127,1362187548
1035,20,Ticks_Linear_8,191,1,48,21,1362200780
1035,20,Ticks_Linear_8,192,5,42,127,1362818524
1035,20,Ticks_Linear_8,193,1,48,22,1362820188
1035,20,Ticks_Linear_8,194,1,48,25,1363449108
1035,20,Ticks_Linear_8,195,5,42,127,1363458504
1035,20,Ticks_Linear_8,196,5,42,127,1364098700
1035,20,Ticks_Linear_8,197,1,48,21,1364128784
1035,20,Ticks_Linear_8,198,5,42,127,1364728552
1035,20,Ticks_Linear_8,199,1,48,26,1364743428
1035,20,Ticks_Linear_8,200,5,42,127,1365347704
1035,20,Ticks_Linear_8,201,1,48,22,1365382816
1035,20,Ticks_Linear_8,202,5,42,127,1365968440
1035,20,Ticks_Linear_8,203,1,48,17,1366083740
1035,20,Ticks_Linear_8,204,5,42,127,1366587736
1035,20,Ticks_Linear_8,205,1,48,19,1366611000
1035,20,Ticks_Linear_8,206,1,48,17,1367201988
1035,20,Ticks_Linear_8,207,5,42,127,1367208472
1035,20,Ticks_Linear_8,208,5,42,127,1367817592
1035,20,Ticks_Linear_8,209,1,48,18,1367836660
1035,20,Ticks_Linear_8,210,5,42,127,1368428048
1035,20,Ticks_Linear_8,211,1,48,19,1368436412
1035,20,Ticks_Linear_8,212,5,42,127,1369038160
1035,20,Ticks_Linear_8,213,1,48,24,1369044416
1035,20,Ticks_Linear_8,214,1,48,19,1369631640
1035,20,Ticks_Linear_8,215,5,42,127,1369647636
1035,20,Ticks_Linear_8,216,1,48,21,1370254928
1035,20,Ticks_Linear_8,217,5,42,127,1370257676
1035,20,Ticks_Linear_8,218,5,42,127,1370857952
1035,20,Ticks_Linear_8,219,1,48,20,1370869536
1035,20,Ticks_Linear_8,220,5,42,127,1371457780
1035,20,Ticks_Linear_8,221,1,48,23,1371478944
1035,20,Ticks_Linear_8,222,5,42,127,1372057928
1035,20,Ticks_Linear_8,223,1,48,25,1372087184
1035,20,Ticks_Linear_8,224,5,42,127,1372657904
1035,20,Ticks_Linear_8,225,1,48,20,1372712316
1035,20,Ticks_Linear_8,226,5,42,127,1373258100
1035,20,Ticks_Linear_8,227,1,48,18,1373270208
1035,20,Ticks_Linear_8,228,1,48,19,1373840224
1035,20,Ticks_Linear_8,229,5,42,127,1373848056
1035,20,Ticks_Linear_8,230,5,42,127,1374437780
1035,20,Ticks_Linear_8,231,1,48,23,1374444112
1035,20,Ticks_Linear_8,232,5,42,127,1375027496
1035,20,Ticks_Linear_8,233,1,48,23,1375047696
1035,20,Ticks_Linear_8,234,5,42,127,1375618872
1035,20,Ticks_Linear_8,235,1,48,18,1375673212
1035,20,Ticks_Linear_8,236,1,48,20,1376214376
1035,20,Ticks_Linear_8,237,5,42,127,1376217568
1035,20,Ticks_Linear_8,238,5,42,127,1376798080
1035,20,Ticks_Linear_8,239,1,48,20,1376841788
1035,20,Ticks_Linear_8,240,5,42,127,1377377536
1035,20,Ticks_Linear_8,241,1,48,16,1377421788
1035,20,Ticks_Linear_8,242,5,42,127,1377958212
1035,20,Ticks_Linear_8,243,1,48,17,1377971364
1035,20,Ticks_Linear_8,244,1,48,20,1378507664
1035,20,Ticks_Linear_8,245,5,42,127,1378537736
1035,20,Ticks_Linear_8,246,1,48,20,1379107044
1035,20,Ticks_Linear_8,247,5,42,127,1379117416
1035,20,Ticks_Linear_8,248,5,42,127,1379687668
1035,20,Ticks_Linear_8,249,1,48,21,1379695416
1035,20,Ticks_Linear_8,250,5,42,127,1380258604
1035,20,Ticks_Linear_8,251,1,48,21,1380278128
1035,20,Ticks_Linear_8,252,5,42,127,1380827432
1035,20,Ticks_Linear_8,253,1,48,24,1380845220
1035,20,Ticks_Linear_8,254,5,42,127,1381397900
1035,20,Ticks_Linear_8,255,1,48,29,1381411200
1035,20,Ticks_Linear_8,256,5,42,127,1381968364
1035,20,Ticks_Linear_8,257,1,48,19,1381994392
1035,20,Ticks_Linear_8,258,5,42,127,1382528424
1035,20,Ticks_Linear_8,259,1,48,18,1382559272
1035,20,Ticks_Linear_8,260,5,42,127,1383087456
1035,20,Ticks_Linear_8,261,1,48,20,1383094684
1035,20,Ticks_Linear_8,262,1,48,18,1383614056
1035,20,Ticks_Linear_8,263,5,42,127,1383647656
1035,20,Ticks_Linear_8,264,5,42,127,1384207720
1035,20,Ticks_Linear_8,265,1,48,16,1384214656
1035,20,Ticks_Linear_8,266,5,42,127,1384767856
1035,20,Ticks_Linear_8,267,1,48,16,1384785792
1035,20,Ticks_Linear_8,268,5,42,127,1385317732
1035,20,Ticks_Linear_8,269,1,48,18,1385345196
1035,20,Ticks_Linear_8,270,5,42,127,1385867632
1035,20,Ticks_Linear_8,271,1,48,16,1385912384
1035,20,Ticks_Linear_8,272,5,42,127,1386417504
1035,20,Ticks_Linear_8,273,1,48,14,1386456572
1035,20,Ticks_Linear_8,274,5,42,127,1386968500
1035,20,Ticks_Linear_8,275,1,48,14,1387048680
1035,20,Ticks_Linear_8,276,5,42,127,1387527588
1035,20,Ticks_Linear_8,277,1,48,13,1387563132
1035,20,Ticks_Linear_8,278,5,42,127,1388068176
1035,20,Ticks_Linear_8,279,1,48,22,1388152320
1035,20,Ticks_Linear_8,280,5,42,127,1388607940
1035,20,Ticks_Linear_8,281,1,48,17,1388662428
1035,20,Ticks_Linear_8,282,5,42,127,1389147404
1035,20,Ticks_Linear_8,283,1,48,24,1389230976
1035,20,Ticks_Linear_8,284,5,42,127,1389688216
1035,20,Ticks_Linear_8,285,5,42,127,1390227808
1035,20,Ticks_Linear_8,286,1,48,23,1390350372
1035,20,Ticks_Linear_8,287,5,42,127,1390758136
1035,20,Ticks_Linear_8,288,1,48,25,1390913344
1035,20,Ticks_Linear_8,289,5,42,127,1391287712
1035,20,Ticks_Linear_8,290,1,48,31,1391441204
1035,20,Ticks_Linear_8,291,1,48,23,1391492576
1035,20,Ticks_Linear_8,292,5,42,127,1391818096
1035,20,Ticks_Linear_8,293,1,48,43,1392048152
1035,20,Ticks_Linear_8,294,5,42,127,1392347452
1035,20,Ticks_Linear_8,295,1,48,31,1392626708
1035,20,Ticks_Linear_8,296,5,42,127,1392878004
1035,20,Ticks_Linear_8,297,1,48,32,1393306988
1035,20,Ticks_Linear_8,298,5,42,127,1393398312
1035,20,Ticks_Linear_8,299,5,42,127,1393918312
1035,20,Ticks_Linear_8,300,1,48,22,1393980216
1035,20,Ticks_Linear_8,301,5,42,127,1394437484
1035,20,Ticks_Linear_8,302,1,48,32,1394529940
1035,20,Ticks_Linear_8,303,5,42,127,1394957628
1035,20,Ticks_Linear_8,304,1,48,28,1395063560
1035,20,Ticks_Linear_8,305,5,42,127,1395478068
1035,20,Ticks_Linear_8,306,1,48,25,1395620500
1035,20,Ticks_Linear_8,307,5,42,127,1395987732
1035,20,Ticks_Linear_8,308,1,48,26,1396132108
1035,20,Ticks_Linear_8,309,5,42,127,1396497692
1035,20,Ticks_Linear_8,310,1,48,35,1396622896
1035,20,Ticks_Linear_8,311,5,42,127,1397007724
1035,20,Ticks_Linear_8,312,1,48,31,1397030988
1035,20,Ticks_Linear_8,313,1,48,29,1397487008
1035,20,Ticks_Linear_8,314,5,42,127,1397517676
1035,20,Ticks_Linear_8,315,1,48,32,1397946796
1035,20,Ticks_Linear_8,316,5,42,127,1398027784
1035,20,Ticks_Linear_8,317,1,48,24,1398499812
1035,20,Ticks_Linear_8,318,5,42,127,1398528308
1035,20,Ticks_Linear_8,319,1,48,25,1398995756
1035,20,Ticks_Linear_8,320,5,42,127,1399028232
1035,20,Ticks_Linear_8,321,1,48,21,1399523396
1035,20,Ticks_Linear_8,322,5,42,127,1399527784
1035,20,Ticks_Linear_8,323,5,42,127,1400027564
1035,20,Ticks_Linear_8,324,1,48,28,1400036608
1035,20,Ticks_Linear_8,325,1,48,24,1400527788
1035,20,Ticks_Linear_8,326,5,42,127,1400529352
1035,20,Ticks_Linear_8,327,5,42,127,1401017752
1035,20,Ticks_Linear_8,328,1,48,25,1401020344
1035,20,Ticks_Linear_8,329,5,42,127,1401508316
1035,20,Ticks_Linear_8,330,1,48,25,1401510328
1035,20,Ticks_Linear_8,331,5,42,127,1401997684
1035,20,Ticks_Linear_8,332,1,48,29,1402001100
1035,20,Ticks_Linear_8,333,1,48,27,1402481204
1035,20,Ticks_Linear_8,334,5,42,127,1402488288
1035,20,Ticks_Linear_8,335,1,48,24,1402970048
1035,20,Ticks_Linear_8,336,5,42,127,1402977584
1035,20,Ticks_Linear_8,0,9999,9999,9999,1292355684
1035,20,Ticks_Linear_8,1,9999,9999,9999,1293175872
1035,20,Ticks_Linear_8,2,9999,9999,9999,1293995092
1035,20,Ticks_Linear_8,3,9999,9999,9999,1294815336
1035,20,Ticks_Linear_8,4,9999,9999,9999,1295635568
1035,20,Ticks_Linear_8,5,9999,9999,9999,1296445552
1035,20,Ticks_Linear_8,6,9999,9999,9999,1297255540
1035,20,Ticks_Linear_8,7,9999,9999,9999,1298065476
1035,20,Ticks_Linear_8,8,9999,9999,9999,1298875460
1035,20,Ticks_Linear_8,9,9999,9999,9999,1299685444
1035,20,Ticks_Linear_8,10,9999,9999,9999,1300485244
1035,20,Ticks_Linear_8,11,9999,9999,9999,1301286016
1035,20,Ticks_Linear_8,12,9999,9999,9999,1302085736
1035,20,Ticks_Linear_8,13,9999,9999,9999,1302885456
1035,20,Ticks_Linear_8,14,9999,9999,9999,1303685180
1035,20,Ticks_Linear_8,15,9999,9999,9999,1304475724
1035,20,Ticks_Linear_8,16,9999,9999,9999,1305265260
1035,20,Ticks_Linear_8,17,9999,9999,9999,1306055764
1035,20,Ticks_Linear_8,18,9999,9999,9999,1306845312
1035,20,Ticks_Linear_8,19,9999,9999,9999,1307635824
1035,20,Ticks_Linear_8,20,9999,9999,9999,1308416080
1035,20,Ticks_Linear_8,21,9999,9999,9999,1309205616
1035,20,Ticks_Linear_8,22,9999,9999,9999,1309985860
1035,20,Ticks_Linear_8,23,9999,9999,9999,1310765144
1035,20,Ticks_Linear_8,24,9999,9999,9999,1311545400
1035,20,Ticks_Linear_8,25,9999,9999,9999,1312315468
1035,20,Ticks_Linear_8,26,9999,9999,9999,1313085536
1035,20,Ticks_Linear_8,27,9999,9999,9999,1313855600
1035,20,Ticks_Linear_8,28,9999,9999,9999,1314625596
1035,20,Ticks_Linear_8,29,9999,9999,9999,1315395664
1035,20,Ticks_Linear_8,30,9999,9999,9999,1316155472
1035,20,Ticks_Linear_8,31,9999,9999,9999,1316915276
1035,20,Ticks_Linear_8,32,9999,9999,9999,1317675084
1035,20,Ticks_Linear_8,33,9999,9999,9999,1318435940
1035,20,Ticks_Linear_8,34,9999,9999,9999,1319195748
1035,20,Ticks_Linear_8,35,9999,9999,9999,1319945300
1035,20,Ticks_Linear_8,36,9999,9999,9999,1320695900
1035,20,Ticks_Linear_8,37,9999,9999,9999,1321445444
1035,20,Ticks_Linear_8,38,9999,9999,9999,1322196040
1035,20,Ticks_Linear_8,39,9999,9999,9999,1322945592
1035,20,Ticks_Linear_8,40,9999,9999,9999,1323686000
1035,20,Ticks_Linear_8,41,9999,9999,9999,1324425300
1035,20,Ticks_Linear_8,42,9999,9999,9999,1325165684
1035,20,Ticks_Linear_8,43,9999,9999,9999,1325906020
1035,20,Ticks_Linear_8,44,9999,9999,9999,1326645312
1035,20,Ticks_Linear_8,45,9999,9999,9999,1327375468
1035,20,Ticks_Linear_8,46,9999,9999,9999,1328105544
1035,20,Ticks_Linear_8,47,9999,9999,9999,1328835696
1035,20,Ticks_Linear_8,48,9999,9999,9999,1329565772
1035,20,Ticks_Linear_8,49,9999,9999,9999,1330295920
1035,20,Ticks_Linear_8,50,9999,9999,9999,1331015740
1035,20,Ticks_Linear_8,51,9999,9999,9999,1331735632
1035,20,Ticks_Linear_8,52,9999,9999,9999,1332455524
1035,20,Ticks_Linear_8,53,9999,9999,9999,1333175416
1035,20,Ticks_Linear_8,54,9999,9999,9999,1333895236
1035,20,Ticks_Linear_8,55,9999,9999,9999,1334605900
1035,20,Ticks_Linear_8,56,9999,9999,9999,1335315536
1035,20,Ticks_Linear_8,57,9999,9999,9999,1336025160
1035,20,Ticks_Linear_8,58,9999,9999,9999,1336735844
1035,20,Ticks_Linear_8,59,9999,9999,9999,1337445452
1035,20,Ticks_Linear_8,60,9999,9999,9999,1338145884
1035,20,Ticks_Linear_8,61,9999,9999,9999,1338845256
1035,20,Ticks_Linear_8,62,9999,9999,9999,1339545672
1035,20,Ticks_Linear_8,63,9999,9999,9999,1340246076
1035,20,Ticks_Linear_8,64,9999,9999,9999,1340955708
1035,20,Ticks_Linear_8,65,9999,9999,9999,1341645944
1035,20,Ticks_Linear_8,66,9999,9999,9999,1342336088
1035,20,Ticks_Linear_8,67,9999,9999,9999,1343035452
1035,20,Ticks_Linear_8,68,9999,9999,9999,1343725692
1035,20,Ticks_Linear_8,69,9999,9999,9999,1344415860
1035,20,Ticks_Linear_8,70,9999,9999,9999,1345095740
1035,20,Ticks_Linear_8,71,9999,9999,9999,1345775720
1035,20,Ticks_Linear_8,72,9999,9999,9999,1346455616
1035,20,Ticks_Linear_8,73,9999,9999,9999,1347135568
1035,20,Ticks_Linear_8,74,9999,9999,9999,1347815480
1035,20,Ticks_Linear_8,75,9999,9999,9999,1348485200
1035,20,Ticks_Linear_8,76,9999,9999,9999,1349155940
1035,20,Ticks_Linear_8,77,9999,9999,9999,1349825660
1035,20,Ticks_Linear_8,78,9999,9999,9999,1350495352
1035,20,Ticks_Linear_8,79,9999,9999,9999,1351166044
1035,20,Ticks_Linear_8,80,9999,9999,9999,1351825508
1035,20,Ticks_Linear_8,81,9999,9999,9999,1352485984
1035,20,Ticks_Linear_8,82,9999,9999,9999,1353145440
1035,20,Ticks_Linear_8,83,9999,9999,9999,1353805928
1035,20,Ticks_Linear_8,84,9999,9999,9999,1354465392
1035,20,Ticks_Linear_8,85,9999,9999,9999,1355115616
1035,20,Ticks_Linear_8,86,9999,9999,9999,1355765864
1035,20,Ticks_Linear_8,87,9999,9999,9999,1356416084
1035,20,Ticks_Linear_8,88,9999,9999,9999,1357075544
1035,20,Ticks_Linear_8,89,9999,9999,9999,1357725792
1035,20,Ticks_Linear_8,90,9999,9999,9999,1358365760
1035,20,Ticks_Linear_8,91,9999,9999,9999,1359005748
1035,20,Ticks_Linear_8,92,9999,9999,9999,1359645788
1035,20,Ticks_Linear_8,93,9999,9999,9999,1360285776
1035,20,Ticks_Linear_8,94,9999,9999,9999,1360925812
1035,20,Ticks_Linear_8,95,9999,9999,9999,1361555544
1035,20,Ticks_Linear_8,96,9999,9999,9999,1362185324
1035,20,Ticks_Linear_8,97,9999,9999,9999,1362816076
1035,20,Ticks_Linear_8,98,9999,9999,9999,1363456060
1035,20,Ticks_Linear_8,99,9999,9999,9999,1364096104
1035,20,Ticks_Linear_8,100,9999,9999,9999,1364725880
1035,20,Ticks_Linear_8,101,9999,9999,9999,1365345400
1035,20,Ticks_Linear_8,102,9999,9999,9999,1365965916
1035,20,Ticks_Linear_8,103,9999,9999,9999,1366585436
1035,20,Ticks_Linear_8,104,9999,9999,9999,1367205948
1035,20,Ticks_Linear_8,105,9999,9999,9999,1367815292
1035,20,Ticks_Linear_8,106,9999,9999,9999,1368425600
1035,20,Ticks_Linear_8,107,9999,9999,9999,1369035856
1035,20,Ticks_Linear_8,108,9999,9999,9999,1369645112
1035,20,Ticks_Linear_8,109,9999,9999,9999,1370255448
1035,20,Ticks_Linear_8,110,9999,9999,9999,1370855504
1035,20,Ticks_Linear_8,111,9999,9999,9999,1371455552
1035,20,Ticks_Linear_8,112,9999,9999,9999,1372055628
1035,20,Ticks_Linear_8,113,9999,9999,9999,1372655676
1035,20,Ticks_Linear_8,114,9999,9999,9999,1373255796
1035,20,Ticks_Linear_8,115,9999,9999,9999,1373845608
1035,20,Ticks_Linear_8,116,9999,9999,9999,1374435404
1035,20,Ticks_Linear_8,117,9999,9999,9999,1375025268
1035,20,Ticks_Linear_8,118,9999,9999,9999,1375616108
1035,20,Ticks_Linear_8,119,9999,9999,9999,1376215120
1035,20,Ticks_Linear_8,120,9999,9999,9999,1376795704
1035,20,Ticks_Linear_8,121,9999,9999,9999,1377375308
1035,20,Ticks_Linear_8,122,9999,9999,9999,1377955908
1035,20,Ticks_Linear_8,123,9999,9999,9999,1378535508
1035,20,Ticks_Linear_8,124,9999,9999,9999,1379115112
1035,20,Ticks_Linear_8,125,9999,9999,9999,1379685440
1035,20,Ticks_Linear_8,126,9999,9999,9999,1380255856
1035,20,Ticks_Linear_8,127,9999,9999,9999,1380825204
1035,20,Ticks_Linear_8,128,9999,9999,9999,1381395524
1035,20,Ticks_Linear_8,129,9999,9999,9999,1381965912
1035,20,Ticks_Linear_8,130,9999,9999,9999,1382526048
1035,20,Ticks_Linear_8,131,9999,9999,9999,1383085152
1035,20,Ticks_Linear_8,132,9999,9999,9999,1383645280
1035,20,Ticks_Linear_8,133,9999,9999,9999,1384205420
1035,20,Ticks_Linear_8,134,9999,9999,9999,1384765556
1035,20,Ticks_Linear_8,135,9999,9999,9999,1385315432
1035,20,Ticks_Linear_8,136,9999,9999,9999,1385865328
1035,20,Ticks_Linear_8,137,9999,9999,9999,1386415204
1035,20,Ticks_Linear_8,138,9999,9999,9999,1386966128
1035,20,Ticks_Linear_8,139,9999,9999,9999,1387525212
1035,20,Ticks_Linear_8,140,9999,9999,9999,1388065876
1035,20,Ticks_Linear_8,141,9999,9999,9999,1388605564
1035,20,Ticks_Linear_8,142,9999,9999,9999,1389145176
1035,20,Ticks_Linear_8,143,9999,9999,9999,1389685840
1035,20,Ticks_Linear_8,144,9999,9999,9999,1390225504
1035,20,Ticks_Linear_8,145,9999,9999,9999,1390755908
1035,20,Ticks_Linear_8,146,9999,9999,9999,1391285340
1035,20,Ticks_Linear_8,147,9999,9999,9999,1391815792
1035,20,Ticks_Linear_8,148,9999,9999,9999,1392345148
1035,20,Ticks_Linear_8,149,9999,9999,9999,1392875628
1035,20,Ticks_Linear_8,150,9999,9999,9999,1393395788
1035,20,Ticks_Linear_8,151,9999,9999,9999,1393916012
1035,20,Ticks_Linear_8,152,9999,9999,9999,1394435184
1035,20,Ticks_Linear_8,153,9999,9999,9999,1394955324
1035,20,Ticks_Linear_8,154,9999,9999,9999,1395475544
1035,20,Ticks_Linear_8,155,9999,9999,9999,1395985504
1035,20,Ticks_Linear_8,156,9999,9999,9999,1396495464
1035,20,Ticks_Linear_8,157,9999,9999,9999,1397005420
1035,20,Ticks_Linear_8,158,9999,9999,9999,1397515376
1035,20,Ticks_Linear_8,159,9999,9999,9999,1398025336
1035,20,Ticks_Linear_8,160,9999,9999,9999,1398526008
1035,20,Ticks_Linear_8,161,9999,9999,9999,1399025784
1035,20,Ticks_Linear_8,162,9999,9999,9999,1399525480
1035,20,Ticks_Linear_8,163,9999,9999,9999,1400025188
1035,20,Ticks_Linear_8,164,9999,9999,9999,1400525936
1035,20,Ticks_Linear_8,165,9999,9999,9999,1401015376
1035,20,Ticks_Linear_8,166,9999,9999,9999,1401505864
1035,20,Ticks_Linear_8,167,9999,9999,9999,1401995380
1035,20,Ticks_Linear_8,168,9999,9999,9999,1402485840
1035,20,Ticks_Linear_8,169,9999,9999,9999,1402975356
1036,21,Ticks_Linear_5,0,5,42,127,1412572652
1036,21,Ticks_Linear_5,1,5,42,127,1413053048
1036,21,Ticks_Linear_5,2,5,42,127,1413532928
1036,21,Ticks_Linear_5,3,1,48,19,1413558208
1036,21,Ticks_Linear_5,4,1,48,21,1414008064
1036,21,Ticks_Linear_5,5,5,42,127,1414013272
1036,21,Ticks_Linear_5,6,1,48,30,1414482752
1036,21,Ticks_Linear_5,7,5,42,127,1414492452
1036,21,Ticks_Linear_5,8,1,48,32,1414931452
1036,21,Ticks_Linear_5,9,5,42,127,1414983088
1036,21,Ticks_Linear_5,10,1,48,27,1415468292
1036,21,Ticks_Linear_5,11,5,42,127,1415472528
1036,21,Ticks_Linear_5,12,1,48,24,1415956380
1036,21,Ticks_Linear_5,13,5,42,127,1415962868
1036,21,Ticks_Linear_5,14,1,48,21,1416433248
1036,21,Ticks_Linear_5,15,5,42,127,1416452608
1036,21,Ticks_Linear_5,16,1,48,24,1416922688
1036,21,Ticks_Linear_5,17,5,42,127,1416942944
1036,21,Ticks_Linear_5,18,1,48,22,1417435268
1036,21,Ticks_Linear_5,19,5,42,127,1417442944
1036,21,Ticks_Linear_5,20,1,48,26,1417916164
1036,21,Ticks_Linear_5,21,5,42,127,1417943392
1036,21,Ticks_Linear_5,22,5,42,127,1418443024
1036,21,Ticks_Linear_5,23,1,48,22,1418450928
1036,21,Ticks_Linear_5,24,1,48,24,1418920356
1036,21,Ticks_Linear_5,25,5,42,127,1418942944
1036,21,Ticks_Linear_5,26,1,48,24,1419436832
1036,21,Ticks_Linear_5,27,5,42,127,1419442716
1036,21,Ticks_Linear_5,28,1,48,25,1419940792
1036,21,Ticks_Linear_5,29,5,42,127,1419952748
1036,21,Ticks_Linear_5,30,1,48,27,1420437656
1036,21,Ticks_Linear_5,31,5,42,127,1420462412
1036,21,Ticks_Linear_5,32,1,48,22,1420945592
1036,21,Ticks_Linear_5,33,5,42,127,1420973788
1036,21,Ticks_Linear_5,34,1,48,24,1421469252
1036,21,Ticks_Linear_5,35,5,42,127,1421492736
1036,21,Ticks_Linear_5,36,1,48,24,1421957424
1036,21,Ticks_Linear_5,37,5,42,127,1422002768
1036,21,Ticks_Linear_5,38,1,48,28,1422492248
1036,21,Ticks_Linear_5,39,5,42,127,1422522840
1036,21,Ticks_Linear_5,40,1,48,33,1422974172
1036,21,Ticks_Linear_5,41,5,42,127,1423042908
1036,21,Ticks_Linear_5,42,5,42,127,1423562984
1036,21,Ticks_Linear_5,43,1,48,26,1423570288
1036,21,Ticks_Linear_5,44,5,42,127,1424083276
1036,21,Ticks_Linear_5,45,1,48,25,1424085288
1036,21,Ticks_Linear_5,46,1,48,29,1424599104
1036,21,Ticks_Linear_5,47,5,42,127,1424602444
1036,21,Ticks_Linear_5,48,5,42,127,1425133000
1036,21,Ticks_Linear_5,49,1,48,26,1425137164
1036,21,Ticks_Linear_5,50,1,48,23,1425655940
1036,21,Ticks_Linear_5,51,5,42,127,1425663320
1036,21,Ticks_Linear_5,52,1,48,27,1426162760
1036,21,Ticks_Linear_5,53,5,42,127,1426192824
1036,21,Ticks_Linear_5,54,5,42,127,1426723160
1036,21,Ticks_Linear_5,55,1,48,19,1426735344
1036,21,Ticks_Linear_5,56,1,48,21,1427251004
1036,21,Ticks_Linear_5,57,5,42,127,1427252584
1036,21,Ticks_Linear_5,58,5,42,127,1427793328
1036,21,Ticks_Linear_5,59,1,48,18,1427794368
1036,21,Ticks_Linear_5,60,1,48,17,1428312752
1036,21,Ticks_Linear_5,61,5,42,127,1428333008
1036,21,Ticks_Linear_5,62,1,48,19,1428848916
1036,21,Ticks_Linear_5,63,5,42,127,1428872648
1036,21,Ticks_Linear_5,64,1,48,19,1429390440
1036,21,Ticks_Linear_5,65,5,42,127,1429413236
1036,21,Ticks_Linear_5,66,1,48,19,1429927272
1036,21,Ticks_Linear_5,67,5,42,127,1429952852
1036,21,Ticks_Linear_5,68,1,48,17,1430453860
1036,21,Ticks_Linear_5,69,5,42,127,1430502728
1036,21,Ticks_Linear_5,70,5,42,127,1431052608
1036,21,Ticks_Linear_5,71,1,48,25,1431573776
1036,21,Ticks_Linear_5,72,5,42,127,1431602644
1036,21,Ticks_Linear_5,73,1,48,23,1432101260
1036,21,Ticks_Linear_5,74,5,42,127,1432152668
1036,21,Ticks_Linear_5,75,1,48,28,1432643620
1036,21,Ticks_Linear_5,76,5,42,127,1432703492
1036,21,Ticks_Linear_5,77,1,48,31,1433236248
1036,21,Ticks_Linear_5,78,5,42,127,1433262728
1036,21,Ticks_Linear_5,79,1,48,27,1433779532
1036,21,Ticks_Linear_5,80,5,42,127,1433822564
1036,21,Ticks_Linear_5,81,5,42,127,1434382700
1036,21,Ticks_Linear_5,82,1,48,30,1434385672
1036,21,Ticks_Linear_5,83,1,48,26,1434935896
1036,21,Ticks_Linear_5,84,5,42,127,1434942828
1036,21,Ticks_Linear_5,85,1,48,26,1435468540
1036,21,Ticks_Linear_5,86,5,42,127,1435502888
1036,21,Ticks_Linear_5,87,1,48,25,1436051776
1036,21,Ticks_Linear_5,88,5,42,127,1436073376
1036,21,Ticks_Linear_5,89,1,48,21,1436624780
1036,21,Ticks_Linear_5,90,5,42,127,1436642648
1036,21,Ticks_Linear_5,91,1,48,21,1437173756
1036,21,Ticks_Linear_5,92,5,42,127,1437213040
1036,21,Ticks_Linear_5,93,1,48,24,1437742136
1036,21,Ticks_Linear_5,94,5,42,127,1437783508
1036,21,Ticks_Linear_5,95,1,48,24,1438335760
1036,21,Ticks_Linear_5,96,5,42,127,1438352804
1036,21,Ticks_Linear_5,97,1,48,18,1438909596
1036,21,Ticks_Linear_5,98,5,42,127,1438933604
1036,21,Ticks_Linear_5,99,1,48,22,1439451320
1036,21,Ticks_Linear_5,100,5,42,127,1439512984
1036,21,Ticks_Linear_5,101,1,48,26,1440052340
1036,21,Ticks_Linear_5,102,5,42,127,1440092664
1036,21,Ticks_Linear_5,103,1,48,21,1440656676
1036,21,Ticks_Linear_5,104,5,42,127,1440673264
1036,21,Ticks_Linear_5,105,1,48,24,1441248632
1036,21,Ticks_Linear_5,106,5,42,127,1441252868
1036,21,Ticks_Linear_5,107,1,48,26,1441836624
1036,21,Ticks_Linear_5,108,5,42,127,1441842808
1036,21,Ticks_Linear_5,109,1,48,20,1442417200
1036,21,Ticks_Linear_5,110,5,42,127,1442433592
1036,21,Ticks_Linear_5,111,1,48,25,1443003724
1036,21,Ticks_Linear_5,112,5,42,127,1443023084
1036,21,Ticks_Linear_5,113,1,48,24,1443571800
1036,21,Ticks_Linear_5,114,5,42,127,1443612948
1036,21,Ticks_Linear_5,115,1,48,21,1444178952
1036,21,Ticks_Linear_5,116,5,42,127,1444202808
1036,21,Ticks_Linear_5,117,1,48,20,1444764348
1036,21,Ticks_Linear_5,118,5,42,127,1444802808
1036,21,Ticks_Linear_5,119,1,48,21,1445343880
1036,21,Ticks_Linear_5,120,5,42,127,1445402860
1036,21,Ticks_Linear_5,121,5,42,127,1446002988
1036,21,Ticks_Linear_5,122,5,42,127,1446603084
1036,21,Ticks_Linear_5,123,1,48,33,1446624772
1036,21,Ticks_Linear_5,124,5,42,127,1447203132
1036,21,Ticks_Linear_5,125,1,48,25,1447208792
1036,21,Ticks_Linear_5,126,1,48,24,1447782388
1036,21,Ticks_Linear_5,127,5,42,127,1447812412
1036,21,Ticks_Linear_5,128,1,48,25,1448371080
1036,21,Ticks_Linear_5,129,5,42,127,1448422864
1036,21,Ticks_Linear_5,130,1,48,29,1448968800
1036,21,Ticks_Linear_5,131,5,42,127,1449032952
1036,21,Ticks_Linear_5,132,1,48,23,1449613136
1036,21,Ticks_Linear_5,133,5,42,127,1449643580
1036,21,Ticks_Linear_5,134,1,48,21,1450206220
1036,21,Ticks_Linear_5,135,5,42,127,1450252768
1036,21,Ticks_Linear_5,136,1,48,28,1450824168
1036,21,Ticks_Linear_5,137,5,42,127,1450873260
1036,21,Ticks_Linear_5,138,1,48,22,1451447532
1036,21,Ticks_Linear_5,139,5,42,127,1451492728
1036,21,Ticks_Linear_5,140,1,48,25,1452080240
1036,21,Ticks_Linear_5,141,5,42,127,1452113220
1036,21,Ticks_Linear_5,142,1,48,26,1452696704
1036,21,Ticks_Linear_5,143,5,42,127,1452732768
1036,21,Ticks_Linear_5,144,1,48,24,1453352740
1036,21,Ticks_Linear_5,145,5,42,127,1453354380
1036,21,Ticks_Linear_5,146,1,48,25,1453969688
1036,21,Ticks_Linear_5,147,5,42,127,1453983212
1036,21,Ticks_Linear_5,148,1,48,22,1454583740
1036,21,Ticks_Linear_5,149,5,42,127,1454612768
1036,21,Ticks_Linear_5,150,1,48,29,1455197716
1036,21,Ticks_Linear_5,151,5,42,127,1455242644
1036,21,Ticks_Linear_5,152,1,48,28,1455849688
1036,21,Ticks_Linear_5,153,5,42,127,1455873396
1036,21,Ticks_Linear_5,154,1,48,28,1456492204
1036,21,Ticks_Linear_5,155,5,42,127,1456503248
1036,21,Ticks_Linear_5,156,1,48,23,1457066732
1036,21,Ticks_Linear_5,157,5,42,127,1457143384
1036,21,Ticks_Linear_5,158,1,48,22,1457691728
1036,21,Ticks_Linear_5,159,5,42,127,1457783424
1036,21,Ticks_Linear_5,160,1,48,26,1458345784
1036,21,Ticks_Linear_5,161,5,42,127,1458423188
1036,21,Ticks_Linear_5,162,1,48,35,1459036824
1036,21,Ticks_Linear_5,163,5,42,127,1459063228
1036,21,Ticks_Linear_5,164,5,42,127,1459703444
1036,21,Ticks_Linear_5,165,1,48,36,1459710008
1036,21,Ticks_Linear_5,166,1,48,27,1460342688
1036,21,Ticks_Linear_5,167,5,42,127,1460353388
1036,21,Ticks_Linear_5,168,5,42,127,1461002568
1036,21,Ticks_Linear_5,169,1,48,22,1461010936
1036,21,Ticks_Linear_5,170,1,48,21,1461632700
1036,21,Ticks_Linear_5,171,5,42,127,1461652736
1036,21,Ticks_Linear_5,172,1,48,20,1462255212
1036,21,Ticks_Linear_5,173,5,42,127,1462303180
1036,21,Ticks_Linear_5,174,1,48,21,1462923956
1036,21,Ticks_Linear_5,175,5,42,127,1462953352
1036,21,Ticks_Linear_5,176,1,48,29,1463589004
1036,21,Ticks_Linear_5,177,5,42,127,1463612712
1036,21,Ticks_Linear_5,178,1,48,23,1464212444
1036,21,Ticks_Linear_5,179,5,42,127,1464273368
1036,21,Ticks_Linear_5,180,1,48,22,1464903784
1036,21,Ticks_Linear_5,181,5,42,127,1464932728
1036,21,Ticks_Linear_5,182,1,48,27,1465548480
1036,21,Ticks_Linear_5,183,5,42,127,1465593384
1036,21,Ticks_Linear_5,184,1,48,32,1466230752
1036,21,Ticks_Linear_5,185,5,42,127,1466252696
1036,21,Ticks_Linear_5,186,1,48,35,1466889916
1036,21,Ticks_Linear_5,187,5,42,127,1466923364
1036,21,Ticks_Linear_5,188,1,48,23,1467524892
1036,21,Ticks_Linear_5,189,5,42,127,1467593380
1036,21,Ticks_Linear_5,190,1,48,24,1468241100
1036,21,Ticks_Linear_5,191,5,42,127,1468262776
1036,21,Ticks_Linear_5,192,1,48,22,1468909612
1036,21,Ticks_Linear_5,193,5,42,127,1468932424
1036,21,Ticks_Linear_5,194,1,48,28,1469576180
1036,21,Ticks_Linear_5,195,5,42,127,1469603260
1036,21,Ticks_Linear_5,196,1,48,24,1470233228
1036,21,Ticks_Linear_5,197,5,42,127,1470283288
1036,21,Ticks_Linear_5,198,1,48,21,1470904816
1036,21,Ticks_Linear_5,199,5,42,127,1470963120
1036,21,Ticks_Linear_5,200,1,48,27,1471604536
1036,21,Ticks_Linear_5,201,5,42,127,1471643096
1036,21,Ticks_Linear_5,202,5,42,127,1472323056
1036,21,Ticks_Linear_5,203,1,48,17,1472335240
1036,21,Ticks_Linear_5,204,1,48,19,1472980884
1036,21,Ticks_Linear_5,205,5,42,127,1473002956
1036,21,Ticks_Linear_5,206,1,48,25,1473635084
1036,21,Ticks_Linear_5,207,5,42,127,1473693116
1036,21,Ticks_Linear_5,208,1,48,36,1474348908
1036,21,Ticks_Linear_5,209,5,42,127,1474383180
1036,21,Ticks_Linear_5,210,1,48,19,1475049708
1036,21,Ticks_Linear_5,211,5,42,127,1475073340
1036,21,Ticks_Linear_5,212,1,48,26,1475752608
1036,21,Ticks_Linear_5,213,5,42,127,1475762608
1036,21,Ticks_Linear_5,214,5,42,127,1476452604
1036,21,Ticks_Linear_5,215,1,48,24,1476483608
1036,21,Ticks_Linear_5,216,1,48,22,1477138596
1036,21,Ticks_Linear_5,217,5,42,127,1477153240
1036,21,Ticks_Linear_5,218,1,48,24,1477838492
1036,21,Ticks_Linear_5,219,5,42,127,1477852616
1036,21,Ticks_Linear_5,220,5,42,127,1478553120
1036,21,Ticks_Linear_5,221,1,48,19,1478556536
1036,21,Ticks_Linear_5,222,1,48,26,1479253516
1036,21,Ticks_Linear_5,223,5,42,127,1479254780
1036,21,Ticks_Linear_5,224,1,48,21,1479946252
1036,21,Ticks_Linear_5,225,5,42,127,1479952660
1036,21,Ticks_Linear_5,226,1,48,25,1480637464
1036,21,Ticks_Linear_5,227,5,42,127,1480663416
1036,21,Ticks_Linear_5,228,1,48,29,1481325056
1036,21,Ticks_Linear_5,229,5,42,127,1481373124
1036,21,Ticks_Linear_5,230,1,48,32,1482057080
1036,21,Ticks_Linear_5,231,5,42,127,1482082808
1036,21,Ticks_Linear_5,232,5,42,127,1482793196
1036,21,Ticks_Linear_5,233,1,48,30,1482807248
1036,21,Ticks_Linear_5,234,5,42,127,1483503132
1036,21,Ticks_Linear_5,235,1,48,28,1483519800
1036,21,Ticks_Linear_5,236,1,48,31,1484214592
1036,21,Ticks_Linear_5,237,5,42,127,1484222944
1036,21,Ticks_Linear_5,238,1,48,35,1484922404
1036,21,Ticks_Linear_5,239,5,42,127,1484942912
1036,21,Ticks_Linear_5,240,1,48,21,1485652112
1036,21,Ticks_Linear_5,241,5,42,127,1485662704
1036,21,Ticks_Linear_5,242,1,48,30,1486348852
1036,21,Ticks_Linear_5,243,5,42,127,1486382524
1036,21,Ticks_Linear_5,244,1,48,27,1487051604
1036,21,Ticks_Linear_5,245,5,42,127,1487103316
1036,21,Ticks_Linear_5,246,1,48,26,1487724292
1036,21,Ticks_Linear_5,247,5,42,127,1487832480
1036,21,Ticks_Linear_5,248,1,48,25,1488536392
1036,21,Ticks_Linear_5,249,5,42,127,1488562652
1036,21,Ticks_Linear_5,250,5,42,127,1489292736
1036,21,Ticks_Linear_5,251,1,48,23,1489305888
1036,21,Ticks_Linear_5,252,5,42,127,1490022860
1036,21,Ticks_Linear_5,253,1,48,27,1490042608
1036,21,Ticks_Linear_5,254,5,42,127,1490753016
1036,21,Ticks_Linear_5,255,1,48,30,1490761984
1036,21,Ticks_Linear_5,256,5,42,127,1491493204
1036,21,Ticks_Linear_5,257,1,48,31,1491507928
1036,21,Ticks_Linear_5,258,5,42,127,1492232716
1036,21,Ticks_Linear_5,259,1,48,21,1492257032
1036,21,Ticks_Linear_5,260,5,42,127,1492972980
1036,21,Ticks_Linear_5,261,1,48,24,1493003884
1036,21,Ticks_Linear_5,262,5,42,127,1493713168
1036,21,Ticks_Linear_5,263,1,48,26,1493714208
1036,21,Ticks_Linear_5,264,1,48,24,1494448660
1036,21,Ticks_Linear_5,265,5,42,127,1494452824
1036,21,Ticks_Linear_5,266,1,48,29,1495190956
1036,21,Ticks_Linear_5,267,5,42,127,1495203272
1036,21,Ticks_Linear_5,268,1,48,29,1495904756
1036,21,Ticks_Linear_5,269,5,42,127,1495952972
1036,21,Ticks_Linear_5,270,1,48,25,1496647036
1036,21,Ticks_Linear_5,271,5,42,127,1496703492
1036,21,Ticks_Linear_5,272,1,48,26,1497427216
1036,21,Ticks_Linear_5,273,5,42,127,1497452944
1036,21,Ticks_Linear_5,274,1,48,33,1498195632
1036,21,Ticks_Linear_5,275,5,42,127,1498202720
1036,21,Ticks_Linear_5,276,1,48,30,1498929384
1036,21,Ticks_Linear_5,277,5,42,127,1498963276
1036,21,Ticks_Linear_5,278,1,48,31,1499650260
1036,21,Ticks_Linear_5,279,5,42,127,1499723232
1036,21,Ticks_Linear_5,280,1,48,31,1500468544
1036,21,Ticks_Linear_5,281,5,42,127,1500482968
1036,21,Ticks_Linear_5,282,5,42,127,1501242708
1036,21,Ticks_Linear_5,283,1,48,27,1501270996
1036,21,Ticks_Linear_5,284,1,48,26,1501994308
1036,21,Ticks_Linear_5,285,5,42,127,1502002660
1036,21,Ticks_Linear_5,286,5,42,127,1502772808
1036,21,Ticks_Linear_5,287,1,48,27,1502773700
1036,21,Ticks_Linear_5,288,1,48,27,1503519836
1036,21,Ticks_Linear_5,289,5,42,127,1503542868
1036,21,Ticks_Linear_5,290,1,48,22,1504262652
1036,21,Ticks_Linear_5,291,5,42,127,1504312568
1036,21,Ticks_Linear_5,292,1,48,26,1505070000
1036,21,Ticks_Linear_5,293,5,42,127,1505082856
1036,21,Ticks_Linear_5,294,5,42,127,1505852784
1036,21,Ticks_Linear_5,295,1,48,21,1505854416
1036,21,Ticks_Linear_5,296,5,42,127,1506633036
1036,21,Ticks_Linear_5,297,1,48,39,1506651736
1036,21,Ticks_Linear_5,298,5,42,127,1507413436
1036,21,Ticks_Linear_5,299,1,48,27,1507428612
1036,21,Ticks_Linear_5,300,5,42,127,1508192640
1036,21,Ticks_Linear_5,301,1,48,26,1508215528
1036,21,Ticks_Linear_5,302,5,42,127,1508973040
1036,21,Ticks_Linear_5,303,1,48,26,1509034820
1036,21,Ticks_Linear_5,304,5,42,127,1509753520
1036,21,Ticks_Linear_5,305,1,48,26,1509786772
1036,21,Ticks_Linear_5,306,1,48,22,1510526556
1036,21,Ticks_Linear_5,307,5,42,127,1510542704
1036,21,Ticks_Linear_5,308,1,48,25,1511317968
1036,21,Ticks_Linear_5,309,5,42,127,1511333140
1036,21,Ticks_Linear_5,310,1,48,20,1512094328
1036,21,Ticks_Linear_5,311,5,42,127,1512122752
1036,21,Ticks_Linear_5,312,5,42,127,1512913344
1036,21,Ticks_Linear_5,313,1,48,16,1512968808
1036,21,Ticks_Linear_5,314,5,42,127,1513702736
1036,21,Ticks_Linear_5,315,1,48,24,1513742556
1036,21,Ticks_Linear_5,316,1,48,27,1514454408
1036,21,Ticks_Linear_5,317,5,42,127,1514502600
1036,21,Ticks_Linear_5,318,1,48,26,1515186656
1036,21,Ticks_Linear_5,319,5,42,127,1515303432
1036,21,Ticks_Linear_5,320,1,48,18,1516049056
1036,21,Ticks_Linear_5,321,5,42,127,1516103096
1036,21,Ticks_Linear_5,322,1,48,14,1516835228
1036,21,Ticks_Linear_5,323,5,42,127,1516902820
1036,21,Ticks_Linear_5,324,1,48,17,1517549424
1036,21,Ticks_Linear_5,325,5,42,127,1517702404
1036,21,Ticks_Linear_5,326,1,48,27,1518456536
1036,21,Ticks_Linear_5,327,5,42,127,1518512696
1036,21,Ticks_Linear_5,328,5,42,127,1519322464
1036,21,Ticks_Linear_5,329,1,48,30,1519338688
1036,21,Ticks_Linear_5,330,1,48,29,1520121096
1036,21,Ticks_Linear_5,331,5,42,127,1520132440
1036,21,Ticks_Linear_5,332,1,48,24,1520891684
1036,21,Ticks_Linear_5,333,5,42,127,1520942568
1036,21,Ticks_Linear_5,334,1,48,22,1521707352
1036,21,Ticks_Linear_5,335,5,42,127,1521752704
1036,21,Ticks_Linear_5,0,9999,9999,9999,1412570204
1036,21,Ticks_Linear_5,1,9999,9999,9999,1413050452
1036,21,Ticks_Linear_5,2,9999,9999,9999,1413530704
1036,21,Ticks_Linear_5,3,9999,9999,9999,1414010972
1036,21,Ticks_Linear_5,4,9999,9999,9999,1414490228
1036,21,Ticks_Linear_5,5,9999,9999,9999,1414980716
1036,21,Ticks_Linear_5,6,9999,9999,9999,1415470156
1036,21,Ticks_Linear_5,7,9999,9999,9999,1415960644
1036,21,Ticks_Linear_5,8,9999,9999,9999,1416450160
1036,21,Ticks_Linear_5,9,9999,9999,9999,1416940648
1036,21,Ticks_Linear_5,10,9999,9999,9999,1417440348
1036,21,Ticks_Linear_5,11,9999,9999,9999,1417941096
1036,21,Ticks_Linear_5,12,9999,9999,9999,1418440800
1036,21,Ticks_Linear_5,13,9999,9999,9999,1418940496
1036,21,Ticks_Linear_5,14,9999,9999,9999,1419440196
1036,21,Ticks_Linear_5,15,9999,9999,9999,1419950156
1036,21,Ticks_Linear_5,16,9999,9999,9999,1420460112
1036,21,Ticks_Linear_5,17,9999,9999,9999,1420971116
1036,21,Ticks_Linear_5,18,9999,9999,9999,1421490288
1036,21,Ticks_Linear_5,19,9999,9999,9999,1422000248
1036,21,Ticks_Linear_5,20,9999,9999,9999,1422520392
1036,21,Ticks_Linear_5,21,9999,9999,9999,1423040608
1036,21,Ticks_Linear_5,22,9999,9999,9999,1423560760
1036,21,Ticks_Linear_5,23,9999,9999,9999,1424080976
1036,21,Ticks_Linear_5,24,9999,9999,9999,1424600144
1036,21,Ticks_Linear_5,25,9999,9999,9999,1425130552
1036,21,Ticks_Linear_5,26,9999,9999,9999,1425661020
1036,21,Ticks_Linear_5,27,9999,9999,9999,1426190452
1036,21,Ticks_Linear_5,28,9999,9999,9999,1426720860
1036,21,Ticks_Linear_5,29,9999,9999,9999,1427250292
1036,21,Ticks_Linear_5,30,9999,9999,9999,1427790956
1036,21,Ticks_Linear_5,31,9999,9999,9999,1428330564
1036,21,Ticks_Linear_5,32,9999,9999,9999,1428870204
1036,21,Ticks_Linear_5,33,9999,9999,9999,1429410940
1036,21,Ticks_Linear_5,34,9999,9999,9999,1429950552
1036,21,Ticks_Linear_5,35,9999,9999,9999,1430500428
1036,21,Ticks_Linear_5,36,9999,9999,9999,1431050308
1036,21,Ticks_Linear_5,37,9999,9999,9999,1431600196
1036,21,Ticks_Linear_5,38,9999,9999,9999,1432150072
1036,21,Ticks_Linear_5,39,9999,9999,9999,1432701044
1036,21,Ticks_Linear_5,40,9999,9999,9999,1433260132
1036,21,Ticks_Linear_5,41,9999,9999,9999,1433820264
1036,21,Ticks_Linear_5,42,9999,9999,9999,1434380404
1036,21,Ticks_Linear_5,43,9999,9999,9999,1434940528
1036,21,Ticks_Linear_5,44,9999,9999,9999,1435500660
1036,21,Ticks_Linear_5,45,9999,9999,9999,1436071004
1036,21,Ticks_Linear_5,46,9999,9999,9999,1436640352
1036,21,Ticks_Linear_5,47,9999,9999,9999,1437210740
1036,21,Ticks_Linear_5,48,9999,9999,9999,1437781060
1036,21,Ticks_Linear_5,49,9999,9999,9999,1438350432
1036,21,Ticks_Linear_5,50,9999,9999,9999,1438931008
1036,21,Ticks_Linear_5,51,9999,9999,9999,1439510612
1036,21,Ticks_Linear_5,52,9999,9999,9999,1440090216
1036,21,Ticks_Linear_5,53,9999,9999,9999,1440670816
1036,21,Ticks_Linear_5,54,9999,9999,9999,1441250420
1036,21,Ticks_Linear_5,55,9999,9999,9999,1441840212
1036,21,Ticks_Linear_5,56,9999,9999,9999,1442431072
1036,21,Ticks_Linear_5,57,9999,9999,9999,1443020860
1036,21,Ticks_Linear_5,58,9999,9999,9999,1443610724
1036,21,Ticks_Linear_5,59,9999,9999,9999,1444200512
1036,21,Ticks_Linear_5,60,9999,9999,9999,1444800584
1036,21,Ticks_Linear_5,61,9999,9999,9999,1445400636
1036,21,Ticks_Linear_5,62,9999,9999,9999,1446000764
1036,21,Ticks_Linear_5,63,9999,9999,9999,1446600784
1036,21,Ticks_Linear_5,64,9999,9999,9999,1447200832
1036,21,Ticks_Linear_5,65,9999,9999,9999,1447810112
1036,21,Ticks_Linear_5,66,9999,9999,9999,1448420420
1036,21,Ticks_Linear_5,67,9999,9999,9999,1449030728
1036,21,Ticks_Linear_5,68,9999,9999,9999,1449641060
1036,21,Ticks_Linear_5,69,9999,9999,9999,1450250320
1036,21,Ticks_Linear_5,70,9999,9999,9999,1450870888
1036,21,Ticks_Linear_5,71,9999,9999,9999,1451490432
1036,21,Ticks_Linear_5,72,9999,9999,9999,1452110924
1036,21,Ticks_Linear_5,73,9999,9999,9999,1452730468
1036,21,Ticks_Linear_5,74,9999,9999,9999,1453350968
1036,21,Ticks_Linear_5,75,9999,9999,9999,1453980764
1036,21,Ticks_Linear_5,76,9999,9999,9999,1454610544
1036,21,Ticks_Linear_5,77,9999,9999,9999,1455240272
1036,21,Ticks_Linear_5,78,9999,9999,9999,1455871096
1036,21,Ticks_Linear_5,79,9999,9999,9999,1456500800
1036,21,Ticks_Linear_5,80,9999,9999,9999,1457140788
1036,21,Ticks_Linear_5,81,9999,9999,9999,1457780828
1036,21,Ticks_Linear_5,82,9999,9999,9999,1458420816
1036,21,Ticks_Linear_5,83,9999,9999,9999,1459060852
1036,21,Ticks_Linear_5,84,9999,9999,9999,1459700848
1036,21,Ticks_Linear_5,85,9999,9999,9999,1460351088
1036,21,Ticks_Linear_5,86,9999,9999,9999,1461000272
1036,21,Ticks_Linear_5,87,9999,9999,9999,1461650512
1036,21,Ticks_Linear_5,88,9999,9999,9999,1462300736
1036,21,Ticks_Linear_5,89,9999,9999,9999,1462950980
1036,21,Ticks_Linear_5,90,9999,9999,9999,1463610488
1036,21,Ticks_Linear_5,91,9999,9999,9999,1464270924
1036,21,Ticks_Linear_5,92,9999,9999,9999,1464930432
1036,21,Ticks_Linear_5,93,9999,9999,9999,1465590864
1036,21,Ticks_Linear_5,94,9999,9999,9999,1466250324
1036,21,Ticks_Linear_5,95,9999,9999,9999,1466921064
1036,21,Ticks_Linear_5,96,9999,9999,9999,1467590784
1036,21,Ticks_Linear_5,97,9999,9999,9999,1468260480
1036,21,Ticks_Linear_5,98,9999,9999,9999,1468930124
1036,21,Ticks_Linear_5,99,9999,9999,9999,1469600888
1036,21,Ticks_Linear_5,100,9999,9999,9999,1470280768
1036,21,Ticks_Linear_5,101,9999,9999,9999,1470960748
1036,21,Ticks_Linear_5,102,9999,9999,9999,1471640648
1036,21,Ticks_Linear_5,103,9999,9999,9999,1472320612
1036,21,Ticks_Linear_5,104,9999,9999,9999,1473000508
1036,21,Ticks_Linear_5,105,9999,9999,9999,1473690744
1036,21,Ticks_Linear_5,106,9999,9999,9999,1474380880
1036,21,Ticks_Linear_5,107,9999,9999,9999,1475071044
1036,21,Ticks_Linear_5,108,9999,9999,9999,1475760236
1036,21,Ticks_Linear_5,109,9999,9999,9999,1476450376
1036,21,Ticks_Linear_5,110,9999,9999,9999,1477150796
1036,21,Ticks_Linear_5,111,9999,9999,9999,1477850172
1036,21,Ticks_Linear_5,112,9999,9999,9999,1478550596
1036,21,Ticks_Linear_5,113,9999,9999,9999,1479251068
1036,21,Ticks_Linear_5,114,9999,9999,9999,1479950436
1036,21,Ticks_Linear_5,115,9999,9999,9999,1480661116
1036,21,Ticks_Linear_5,116,9999,9999,9999,1481370676
1036,21,Ticks_Linear_5,117,9999,9999,9999,1482080360
1036,21,Ticks_Linear_5,118,9999,9999,9999,1482790972
1036,21,Ticks_Linear_5,119,9999,9999,9999,1483500608
1036,21,Ticks_Linear_5,120,9999,9999,9999,1484220496
1036,21,Ticks_Linear_5,121,9999,9999,9999,1484940392
1036,21,Ticks_Linear_5,122,9999,9999,9999,1485660256
1036,21,Ticks_Linear_5,123,9999,9999,9999,1486380152
1036,21,Ticks_Linear_5,124,9999,9999,9999,1487101016
1036,21,Ticks_Linear_5,125,9999,9999,9999,1487830108
1036,21,Ticks_Linear_5,126,9999,9999,9999,1488560204
1036,21,Ticks_Linear_5,127,9999,9999,9999,1489290364
1036,21,Ticks_Linear_5,128,9999,9999,9999,1490020412
1036,21,Ticks_Linear_5,129,9999,9999,9999,1490750568
1036,21,Ticks_Linear_5,130,9999,9999,9999,1491490904
1036,21,Ticks_Linear_5,131,9999,9999,9999,1492230268
1036,21,Ticks_Linear_5,132,9999,9999,9999,1492970604
1036,21,Ticks_Linear_5,133,9999,9999,9999,1493710944
1036,21,Ticks_Linear_5,134,9999,9999,9999,1494450304
1036,21,Ticks_Linear_5,135,9999,9999,9999,1495200828
1036,21,Ticks_Linear_5,136,9999,9999,9999,1495950452
1036,21,Ticks_Linear_5,137,9999,9999,9999,1496701044
1036,21,Ticks_Linear_5,138,9999,9999,9999,1497450572
1036,21,Ticks_Linear_5,139,9999,9999,9999,1498200120
1036,21,Ticks_Linear_5,140,9999,9999,9999,1498960976
1036,21,Ticks_Linear_5,141,9999,9999,9999,1499720788
1036,21,Ticks_Linear_5,142,9999,9999,9999,1500480596
1036,21,Ticks_Linear_5,143,9999,9999,9999,1501240412
1036,21,Ticks_Linear_5,144,9999,9999,9999,1502000212
1036,21,Ticks_Linear_5,145,9999,9999,9999,1502770288
1036,21,Ticks_Linear_5,146,9999,9999,9999,1503540348
1036,21,Ticks_Linear_5,147,9999,9999,9999,1504310344
1036,21,Ticks_Linear_5,148,9999,9999,9999,1505080408
1036,21,Ticks_Linear_5,149,9999,9999,9999,1505850484
1036,21,Ticks_Linear_5,150,9999,9999,9999,1506630736
1036,21,Ticks_Linear_5,151,9999,9999,9999,1507411064
1036,21,Ticks_Linear_5,152,9999,9999,9999,1508190268
1036,21,Ticks_Linear_5,153,9999,9999,9999,1508970596
1036,21,Ticks_Linear_5,154,9999,9999,9999,1509750848
1036,21,Ticks_Linear_5,155,9999,9999,9999,1510540404
1036,21,Ticks_Linear_5,156,9999,9999,9999,1511330916
1036,21,Ticks_Linear_5,157,9999,9999,9999,1512120380
1036,21,Ticks_Linear_5,158,9999,9999,9999,1512910972
1036,21,Ticks_Linear_5,159,9999,9999,9999,1513700436
1036,21,Ticks_Linear_5,160,9999,9999,9999,1514500156
1036,21,Ticks_Linear_5,161,9999,9999,9999,1515300984
1036,21,Ticks_Linear_5,162,9999,9999,9999,1516100724
1036,21,Ticks_Linear_5,163,9999,9999,9999,1516900448
1036,21,Ticks_Linear_5,164,9999,9999,9999,1517700180
1036,21,Ticks_Linear_5,165,9999,9999,9999,1518510176
1036,21,Ticks_Linear_5,166,9999,9999,9999,1519320164
1036,21,Ticks_Linear_5,167,9999,9999,9999,1520130140
1036,21,Ticks_Linear_5,168,9999,9999,9999,1520940124
1036,21,Ticks_Linear_5,169,9999,9999,9999,1521750108
1037,22,Ticks_Phase_8,0,5,42,127,1531528420
1037,22,Ticks_Phase_8,1,5,42,127,1532329200
1037,22,Ticks_Phase_8,2,1,48,23,1533075192
1037,22,Ticks_Phase_8,3,5,42,127,1533129224
1037,22,Ticks_Phase_8,4,1,48,24,1533857920
1037,22,Ticks_Phase_8,5,5,42,127,1533928788
1037,22,Ticks_Phase_8,6,1,48,21,1534715208
1037,22,Ticks_Phase_8,7,5,42,127,1534728572
1037,22,Ticks_Phase_8,8,5,42,127,1535529340
1037,22,Ticks_Phase_8,9,1,48,25,1535536732
1037,22,Ticks_Phase_8,10,5,42,127,1536329272
1037,22,Ticks_Phase_8,11,1,48,27,1536347228
1037,22,Ticks_Phase_8,12,5,42,127,1537128908
1037,22,Ticks_Phase_8,13,1,48,28,1537137800
1037,22,Ticks_Phase_8,14,5,42,127,1537928496
1037,22,Ticks_Phase_8,15,1,48,24,1537932512
1037,22,Ticks_Phase_8,16,5,42,127,1538729256
1037,22,Ticks_Phase_8,17,1,48,21,1538736576
1037,22,Ticks_Phase_8,18,5,42,127,1539529264
1037,22,Ticks_Phase_8,19,1,48,22,1539555668
1037,22,Ticks_Phase_8,20,1,48,26,1540317860
1037,22,Ticks_Phase_8,21,5,42,127,1540328748
1037,22,Ticks_Phase_8,22,1,48,24,1541117276
1037,22,Ticks_Phase_8,23,5,42,127,1541128604
1037,22,Ticks_Phase_8,24,5,42,127,1541929372
1037,22,Ticks_Phase_8,25,1,48,30,1541938936
1037,22,Ticks_Phase_8,26,1,48,23,1542707108
1037,22,Ticks_Phase_8,27,5,42,127,1542729152
1037,22,Ticks_Phase_8,28,1,48,19,1543519100
1037,22,Ticks_Phase_8,29,5,42,127,1543528788
1037,22,Ticks_Phase_8,30,1,48,26,1544309004
1037,22,Ticks_Phase_8,31,5,42,127,1544328452
1037,22,Ticks_Phase_8,32,5,42,127,1545129364
1037,22,Ticks_Phase_8,33,1,48,21,1545141020
1037,22,Ticks_Phase_8,34,5,42,127,1545929076
1037,22,Ticks_Phase_8,35,1,48,24,1545940584
1037,22,Ticks_Phase_8,36,5,42,127,1546728792
1037,22,Ticks_Phase_8,37,1,48,28,1546755644
1037,22,Ticks_Phase_8,38,1,48,31,1547522920
1037,22,Ticks_Phase_8,39,5,42,127,1547528424
1037,22,Ticks_Phase_8,40,1,48,25,1548288568
1037,22,Ticks_Phase_8,41,5,42,127,1548329184
1037,22,Ticks_Phase_8,42,1,48,20,1549116888
1037,22,Ticks_Phase_8,43,5,42,127,1549128968
1037,22,Ticks_Phase_8,44,1,48,29,1549925724
1037,22,Ticks_Phase_8,45,5,42,127,1549928904
1037,22,Ticks_Phase_8,46,1,48,27,1550721720
1037,22,Ticks_Phase_8,47,5,42,127,1550728492
1037,22,Ticks_Phase_8,48,5,42,127,1551529404
1037,22,Ticks_Phase_8,49,1,48,27,1551559484
1037,22,Ticks_Phase_8,50,5,42,127,1552329120
1037,22,Ticks_Phase_8,51,1,48,18,1552348196
1037,22,Ticks_Phase_8,52,5,42,127,1553128904
1037,22,Ticks_Phase_8,53,1,48,20,1553140188
1037,22,Ticks_Phase_8,54,5,42,127,1553928692
1037,22,Ticks_Phase_8,55,5,42,127,1554729324
1037,22,Ticks_Phase_8,56,1,48,29,1554741804
1037,22,Ticks_Phase_8,57,1,48,29,1555498300
1037,22,Ticks_Phase_8,58,5,42,127,1555508512
1037,22,Ticks_Phase_8,59,1,48,32,1556231432
1037,22,Ticks_Phase_8,60,5,42,127,1556309416
1037,22,Ticks_Phase_8,61,1,48,13,1557107928
1037,22,Ticks_Phase_8,62,5,42,127,1557109500
1037,22,Ticks_Phase_8,63,1,48,33,1557894156
1037,22,Ticks_Phase_8,64,5,42,127,1557909088
1037,22,Ticks_Phase_8,65,1,48,36,1558676408
1037,22,Ticks_Phase_8,66,5,42,127,1558708652
1037,22,Ticks_Phase_8,67,1,48,29,1559476664
1037,22,Ticks_Phase_8,68,5,42,127,1559509336
1037,22,Ticks_Phase_8,69,1,48,32,1560277276
1037,22,Ticks_Phase_8,70,5,42,127,1560309048
1037,22,Ticks_Phase_8,71,5,42,127,1561109064
1037,22,Ticks_Phase_8,72,1,48,30,1561111664
1037,22,Ticks_Phase_8,73,1,48,30,1561897660
1037,22,Ticks_Phase_8,74,5,42,127,1561908992
1037,22,Ticks_Phase_8,75,1,48,24,1562690104
1037,22,Ticks_Phase_8,76,5,42,127,1562709304
1037,22,Ticks_Phase_8,77,1,48,27,1563495652
1037,22,Ticks_Phase_8,78,5,42,127,1563509092
1037,22,Ticks_Phase_8,79,1,48,24,1564289332
1037,22,Ticks_Phase_8,80,5,42,127,1564309128
1037,22,Ticks_Phase_8,81,1,48,23,1565095176
1037,22,Ticks_Phase_8,82,5,42,127,1565108988
1037,22,Ticks_Phase_8,83,1,48,30,1565897444
1037,22,Ticks_Phase_8,84,5,42,127,1565909300
1037,22,Ticks_Phase_8,85,1,48,25,1566704856
1037,22,Ticks_Phase_8,86,5,42,127,1566709384
1037,22,Ticks_Phase_8,87,5,42,127,1567508804
1037,22,Ticks_Phase_8,88,1,48,25,1567524720
1037,22,Ticks_Phase_8,89,1,48,27,1568282644
1037,22,Ticks_Phase_8,90,5,42,127,1568308880
1037,22,Ticks_Phase_8,91,1,48,27,1569030308
1037,22,Ticks_Phase_8,92,5,42,127,1569109492
1037,22,Ticks_Phase_8,93,1,48,27,1569863412
1037,22,Ticks_Phase_8,94,5,42,127,1569928848
1037,22,Ticks_Phase_8,95,5,42,127,1570729244
1037,22,Ticks_Phase_8,96,1,48,37,1570801108
1037,22,Ticks_Phase_8,97,5,42,127,1571529104
1037,22,Ticks_Phase_8,98,1,48,26,1571588912
1037,22,Ticks_Phase_8,99,1,48,19,1572325176
1037,22,Ticks_Phase_8,100,5,42,127,1572328808
1037,22,Ticks_Phase_8,101,1,48,24,1573097340
1037,22,Ticks_Phase_8,102,5,42,127,1573128744
1037,22,Ticks_Phase_8,103,1,48,26,1573925952
1037,22,Ticks_Phase_8,104,5,42,127,1573929204
1037,22,Ticks_Phase_8,105,1,48,27,1574704692
1037,22,Ticks_Phase_8,106,5,42,127,1574728992
1037,22,Ticks_Phase_8,107,5,42,127,1575529008
1037,22,Ticks_Phase_8,108,1,48,23,1575552224
1037,22,Ticks_Phase_8,109,5,42,127,1576328820
1037,22,Ticks_Phase_8,110,1,48,24,1576353280
1037,22,Ticks_Phase_8,111,1,48,19,1577111720
1037,22,Ticks_Phase_8,112,5,42,127,1577129272
1037,22,Ticks_Phase_8,113,1,48,27,1577911056
1037,22,Ticks_Phase_8,114,5,42,127,1577929208
1037,22,Ticks_Phase_8,115,5,42,127,1578728852
1037,22,Ticks_Phase_8,116,1,48,25,1578736924
1037,22,Ticks_Phase_8,117,1,48,31,1579525748
1037,22,Ticks_Phase_8,118,5,42,127,1579528708
1037,22,Ticks_Phase_8,119,1,48,21,1580308552
1037,22,Ticks_Phase_8,120,5,42,127,1580329540
1037,22,Ticks_Phase_8,121,1,48,25,1581106320
1037,22,Ticks_Phase_8,122,5,42,127,1581128956
1037,22,Ticks_Phase_8,123,1,48,22,1581913652
1037,22,Ticks_Phase_8,124,5,42,127,1581928816
1037,22,Ticks_Phase_8,125,1,48,24,1582730844
1037,22,Ticks_Phase_8,126,5,42,127,1582768768
1037,22,Ticks_Phase_8,127,1,48,34,1583565444
1037,22,Ticks_Phase_8,128,5,42,127,1583569376
1037,22,Ticks_Phase_8,129,5,42,127,1584369096
1037,22,Ticks_Phase_8,130,1,48,32,1584381276
1037,22,Ticks_Phase_8,131,5,42,127,1585168732
1037,22,Ticks_Phase_8,132,1,48,27,1585173572
1037,22,Ticks_Phase_8,133,5,42,127,1585968740
1037,22,Ticks_Phase_8,134,1,48,26,1585972460
1037,22,Ticks_Phase_8,135,1,48,20,1586749920
1037,22,Ticks_Phase_8,136,5,42,127,1586769344
1037,22,Ticks_Phase_8,137,1,48,29,1587541020
1037,22,Ticks_Phase_8,138,5,42,127,1587569056
1037,22,Ticks_Phase_8,139,1,48,18,1588358508
1037,22,Ticks_Phase_8,140,5,42,127,1588368644
1037,22,Ticks_Phase_8,141,1,48,23,1589159636
1037,22,Ticks_Phase_8,142,5,42,127,1589168580
1037,22,Ticks_Phase_8,143,5,42,127,1589969344
1037,22,Ticks_Phase_8,144,1,48,29,1589984212
1037,22,Ticks_Phase_8,145,1,48,36,1590759360
1037,22,Ticks_Phase_8,146,5,42,127,1590768976
1037,22,Ticks_Phase_8,147,5,42,127,1591568696
1037,22,Ticks_Phase_8,148,1,48,24,1591582592
1037,22,Ticks_Phase_8,149,5,42,127,1592368408
1037,22,Ticks_Phase_8,150,1,48,24,1592371452
1037,22,Ticks_Phase_8,151,1,48,35,1593169016
1037,22,Ticks_Phase_8,152,5,42,127,1593170500
1037,22,Ticks_Phase_8,153,1,48,35,1593936552
1037,22,Ticks_Phase_8,154,5,42,127,1593969092
1037,22,Ticks_Phase_8,155,5,42,127,1594768616
1037,22,Ticks_Phase_8,156,1,48,27,1594778632
1037,22,Ticks_Phase_8,157,1,48,40,1595560428
1037,22,Ticks_Phase_8,158,5,42,127,1595568472
1037,22,Ticks_Phase_8,159,5,42,127,1596329472
1037,22,Ticks_Phase_8,160,5,42,127,1597129060
1037,22,Ticks_Phase_8,161,1,48,50,1597195972
1037,22,Ticks_Phase_8,162,1,48,38,1597886188
1037,22,Ticks_Phase_8,163,5,42,127,1597928764
1037,22,Ticks_Phase_8,164,1,48,40,1598692944
1037,22,Ticks_Phase_8,165,5,42,127,1598728624
1037,22,Ticks_Phase_8,166,1,48,33,1599496168
1037,22,Ticks_Phase_8,167,5,42,127,1599529384
1037,22,Ticks_Phase_8,168,1,48,38,1600276188
1037,22,Ticks_Phase_8,169,5,42,127,1600329168
1037,22,Ticks_Phase_8,170,1,48,27,1601084516
1037,22,Ticks_Phase_8,171,5,42,127,1601128808
1037,22,Ticks_Phase_8,172,1,48,41,1601869552
1037,22,Ticks_Phase_8,173,5,42,127,1601928620
1037,22,Ticks_Phase_8,174,1,48,33,1602707260
1037,22,Ticks_Phase_8,175,5,42,127,1602729304
1037,22,Ticks_Phase_8,176,1,48,35,1603528268
1037,22,Ticks_Phase_8,177,5,42,127,1603529612
1037,22,Ticks_Phase_8,178,1,48,40,1604313416
1037,22,Ticks_Phase_8,179,5,42,127,1604328728
1037,22,Ticks_Phase_8,180,1,48,36,1605080704
1037,22,Ticks_Phase_8,181,5,42,127,1605128440
1037,22,Ticks_Phase_8,182,1,48,34,1605870528
1037,22,Ticks_Phase_8,183,5,42,127,1605929272
1037,22,Ticks_Phase_8,184,1,48,24,1606701248
1037,22,Ticks_Phase_8,185,5,42,127,1606729208
1037,22,Ticks_Phase_8,186,1,48,30,1607487860
1037,22,Ticks_Phase_8,187,5,42,127,1607528772
1037,22,Ticks_Phase_8,188,1,48,26,1608282472
1037,22,Ticks_Phase_8,189,5,42,127,1608328512
1037,22,Ticks_Phase_8,190,5,42,127,1609048524
1037,22,Ticks_Phase_8,191,1,48,27,1609129772
1037,22,Ticks_Phase_8,192,1,48,30,1609835908
1037,22,Ticks_Phase_8,193,5,42,127,1609849372
1037,22,Ticks_Phase_8,194,1,48,37,1610559316
1037,22,Ticks_Phase_8,195,5,42,127,1610649232
1037,22,Ticks_Phase_8,196,1,48,38,1611409456
1037,22,Ticks_Phase_8,197,5,42,127,1611448576
1037,22,Ticks_Phase_8,198,5,42,127,1612248444
1037,22,Ticks_Phase_8,199,1,48,29,1612249336
1037,22,Ticks_Phase_8,200,1,48,33,1613018836
1037,22,Ticks_Phase_8,201,5,42,127,1613049268
1037,22,Ticks_Phase_8,202,1,48,28,1613802672
1037,22,Ticks_Phase_8,203,5,42,127,1613848908
1037,22,Ticks_Phase_8,204,1,48,33,1614588532
1037,22,Ticks_Phase_8,205,5,42,127,1614648692
1037,22,Ticks_Phase_8,206,1,48,28,1615410632
1037,22,Ticks_Phase_8,207,5,42,127,1615448556
1037,22,Ticks_Phase_8,208,1,48,35,1616233928
1037,22,Ticks_Phase_8,209,5,42,127,1616249116
1037,22,Ticks_Phase_8,210,1,48,35,1616972084
1037,22,Ticks_Phase_8,211,5,42,127,1617048972
1037,22,Ticks_Phase_8,212,1,48,24,1617799532
1037,22,Ticks_Phase_8,213,5,42,127,1617848684
1037,22,Ticks_Phase_8,214,1,48,38,1618633604
1037,22,Ticks_Phase_8,215,5,42,127,1618648320
1037,22,Ticks_Phase_8,216,5,42,127,1619449164
1037,22,Ticks_Phase_8,217,1,48,30,1619450648
1037,22,Ticks_Phase_8,218,1,48,35,1620168560
1037,22,Ticks_Phase_8,219,5,42,127,1620249092
1037,22,Ticks_Phase_8,220,1,48,19,1621023680
1037,22,Ticks_Phase_8,221,5,42,127,1621048580
1037,22,Ticks_Phase_8,222,1,48,36,1621840324
1037,22,Ticks_Phase_8,223,5,42,127,1621848368
1037,22,Ticks_Phase_8,224,1,48,32,1622618992
1037,22,Ticks_Phase_8,225,5,42,127,1622729268
1037,22,Ticks_Phase_8,226,5,42,127,1623529000
1037,22,Ticks_Phase_8,227,1,48,16,1623542828
1037,22,Ticks_Phase_8,228,5,42,127,1624328488
1037,22,Ticks_Phase_8,229,1,48,22,1624338800
1037,22,Ticks_Phase_8,230,1,48,24,1625111760
1037,22,Ticks_Phase_8,231,5,42,127,1625129312
1037,22,Ticks_Phase_8,232,5,42,127,1625929180
1037,22,Ticks_Phase_8,233,1,48,29,1625952068
1037,22,Ticks_Phase_8,234,5,42,127,1626729044
1037,22,Ticks_Phase_8,235,1,48,29,1626742512
1037,22,Ticks_Phase_8,236,5,42,127,1627528548
1037,22,Ticks_Phase_8,237,1,48,31,1627529440
1037,22,Ticks_Phase_8,238,5,42,127,1628329308
1037,22,Ticks_Phase_8,239,5,42,127,1629129040
1037,22,Ticks_Phase_8,240,1,48,30,1629171852
1037,22,Ticks_Phase_8,241,1,48,30,1629913956
1037,22,Ticks_Phase_8,242,5,42,127,1629929120
1037,22,Ticks_Phase_8,243,1,48,30,1630704232
1037,22,Ticks_Phase_8,244,5,42,127,1630728532
1037,22,Ticks_Phase_8,245,1,48,22,1631521324
1037,22,Ticks_Phase_8,246,5,42,127,1631529292
1037,22,Ticks_Phase_8,247,1,48,30,1632324100
1037,22,Ticks_Phase_8,248,5,42,127,1632328928
1037,22,Ticks_Phase_8,249,5,42,127,1633129020
1037,22,Ticks_Phase_8,250,1,48,27,1633154476
1037,22,Ticks_Phase_8,251,5,42,127,1633928680
1037,22,Ticks_Phase_8,252,1,48,28,1633966260
1037,22,Ticks_Phase_8,253,1,48,18,1634715096
1037,22,Ticks_Phase_8,254,5,42,127,1634729212
1037,22,Ticks_Phase_8,255,1,48,27,1635516544
1037,22,Ticks_Phase_8,256,5,42,127,1635528924
1037,22,Ticks_Phase_8,257,1,48,29,1636355484
1037,22,Ticks_Phase_8,258,5,42,127,1636488536
1037,22,Ticks_Phase_8,259,5,42,127,1637289464
1037,22,Ticks_Phase_8,260,1,48,29,1637413980
1037,22,Ticks_Phase_8,261,5,42,127,1638088956
1037,22,Ticks_Phase_8,262,1,48,24,1638165228
1037,22,Ticks_Phase_8,263,1,48,22,1638845112
1037,22,Ticks_Phase_8,264,5,42,127,1638888808
1037,22,Ticks_Phase_8,265,1,48,22,1639647380
1037,22,Ticks_Phase_8,266,5,42,127,1639688740
1037,22,Ticks_Phase_8,267,1,48,28,1640474340
1037,22,Ticks_Phase_8,268,5,42,127,1640489276
1037,22,Ticks_Phase_8,269,1,48,22,1641261996
1037,22,Ticks_Phase_8,270,5,42,127,1641289140
1037,22,Ticks_Phase_8,271,5,42,127,1642088784
1037,22,Ticks_Phase_8,272,1,48,26,1642090648
1037,22,Ticks_Phase_8,273,1,48,31,1642880172
1037,22,Ticks_Phase_8,274,5,42,127,1642888812
1037,22,Ticks_Phase_8,275,5,42,127,1643689352
1037,22,Ticks_Phase_8,276,1,48,28,1643721156
1037,22,Ticks_Phase_8,277,1,48,24,1644462216
1037,22,Ticks_Phase_8,278,5,42,127,1644488984
1037,22,Ticks_Phase_8,279,1,48,25,1645231748
1037,22,Ticks_Phase_8,280,5,42,127,1645288844
1037,22,Ticks_Phase_8,281,1,48,25,1646050180
1037,22,Ticks_Phase_8,282,5,42,127,1646088780
1037,22,Ticks_Phase_8,283,1,48,27,1646878504
1037,22,Ticks_Phase_8,284,5,42,127,1646889316
1037,22,Ticks_Phase_8,285,1,48,20,1647640772
1037,22,Ticks_Phase_8,286,5,42,127,1647688952
1037,22,Ticks_Phase_8,287,1,48,23,1648420336
1037,22,Ticks_Phase_8,288,5,42,127,1648488888
1037,22,Ticks_Phase_8,289,1,48,34,1649243184
1037,22,Ticks_Phase_8,290,5,42,127,1649288696
1037,22,Ticks_Phase_8,291,1,48,29,1650081708
1037,22,Ticks_Phase_8,292,5,42,127,1650089308
1037,22,Ticks_Phase_8,293,1,48,26,1650869744
1037,22,Ticks_Phase_8,294,5,42,127,1650889020
1037,22,Ticks_Phase_8,295,5,42,127,1651529056
1037,22,Ticks_Phase_8,296,1,48,19,1651655456
1037,22,Ticks_Phase_8,297,5,42,127,1652328916
1037,22,Ticks_Phase_8,298,5,42,127,1653128672
1037,22,Ticks_Phase_8,299,1,48,33,1653188260
1037,22,Ticks_Phase_8,300,1,48,27,1653834188
1037,22,Ticks_Phase_8,301,5,42,127,1653929276
1037,22,Ticks_Phase_8,302,1,48,28,1654640344
1037,22,Ticks_Phase_8,303,5,42,127,1654729212
1037,22,Ticks_Phase_8,304,1,48,29,1655497672
1037,22,Ticks_Phase_8,305,5,42,127,1655528852
1037,22,Ticks_Phase_8,306,5,42,127,1656328720
1037,22,Ticks_Phase_8,307,1,48,28,1656337084
1037,22,Ticks_Phase_8,308,5,42,127,1657129476
1037,22,Ticks_Phase_8,309,1,48,29,1657172436
1037,22,Ticks_Phase_8,310,5,42,127,1657929116
1037,22,Ticks_Phase_8,311,1,48,34,1657935596
1037,22,Ticks_Phase_8,312,1,48,34,1658686316
1037,22,Ticks_Phase_8,313,5,42,127,1658728820
1037,22,Ticks_Phase_8,314,1,48,32,1659494724
1037,22,Ticks_Phase_8,315,5,42,127,1659528704
1037,22,Ticks_Phase_8,316,1,48,27,1660304868
1037,22,Ticks_Phase_8,317,5,42,127,1660329464
1037,22,Ticks_Phase_8,318,1,48,36,1661099272
1037,22,Ticks_Phase_8,319,5,42,127,1661129176
1037,22,Ticks_Phase_8,320,1,48,30,1661903392
1037,22,Ticks_Phase_8,321,5,42,127,1661928812
1037,22,Ticks_Phase_8,322,1,48,35,1662719212
1037,22,Ticks_Phase_8,323,5,42,127,1662728676
1037,22,Ticks_Phase_8,324,1,48,22,1663493304
1037,22,Ticks_Phase_8,325,5,42,127,1663529432
1037,22,Ticks_Phase_8,326,1,48,39,1664277372
1037,22,Ticks_Phase_8,327,5,42,127,1664328996
1037,22,Ticks_Phase_8,328,1,48,33,1665118944
1037,22,Ticks_Phase_8,329,5,42,127,1665128856
1037,22,Ticks_Phase_8,330,1,48,28,1665918680
1037,22,Ticks_Phase_8,331,5,42,127,1665928516
1037,22,Ticks_Phase_8,332,1,48,31,1666692176
1037,22,Ticks_Phase_8,333,5,42,127,1666729424
1037,22,Ticks_Phase_8,0,9999,9999,9999,1531526208
1037,22,Ticks_Phase_8,1,9999,9999,9999,1532326988
1037,22,Ticks_Phase_8,2,9999,9999,9999,1533126716
1037,22,Ticks_Phase_8,3,9999,9999,9999,1533926500
1037,22,Ticks_Phase_8,4,9999,9999,9999,1534726212
1037,22,Ticks_Phase_8,5,9999,9999,9999,1535526976
1037,22,Ticks_Phase_8,6,9999,9999,9999,1536326764
1037,22,Ticks_Phase_8,7,9999,9999,9999,1537126472
1037,22,Ticks_Phase_8,8,9999,9999,9999,1537926208
1037,22,Ticks_Phase_8,9,9999,9999,9999,1538726968
1037,22,Ticks_Phase_8,10,9999,9999,9999,1539526752
1037,22,Ticks_Phase_8,11,9999,9999,9999,1540326460
1037,22,Ticks_Phase_8,12,9999,9999,9999,1541126244
1037,22,Ticks_Phase_8,13,9999,9999,9999,1541927008
1037,22,Ticks_Phase_8,14,9999,9999,9999,1542726716
1037,22,Ticks_Phase_8,15,9999,9999,9999,1543526500
1037,22,Ticks_Phase_8,16,9999,9999,9999,1544326240
1037,22,Ticks_Phase_8,17,9999,9999,9999,1545127004
1037,22,Ticks_Phase_8,18,9999,9999,9999,1545926716
1037,22,Ticks_Phase_8,19,9999,9999,9999,1546726504
1037,22,Ticks_Phase_8,20,9999,9999,9999,1547526212
1037,22,Ticks_Phase_8,21,9999,9999,9999,1548326972
1037,22,Ticks_Phase_8,22,9999,9999,9999,1549126756
1037,22,Ticks_Phase_8,23,9999,9999,9999,1549926468
1037,22,Ticks_Phase_8,24,9999,9999,9999,1550726204
1037,22,Ticks_Phase_8,25,9999,9999,9999,1551526968
1037,22,Ticks_Phase_8,26,9999,9999,9999,1552326756
1037,22,Ticks_Phase_8,27,9999,9999,9999,1553126468
1037,22,Ticks_Phase_8,28,9999,9999,9999,1553926256
1037,22,Ticks_Phase_8,29,9999,9999,9999,1554727036
1037,22,Ticks_Phase_8,30,9999,9999,9999,1555506296
1037,22,Ticks_Phase_8,31,9999,9999,9999,1556307056
1037,22,Ticks_Phase_8,32,9999,9999,9999,1557106776
1037,22,Ticks_Phase_8,33,9999,9999,9999,1557906504
1037,22,Ticks_Phase_8,34,9999,9999,9999,1558706288
1037,22,Ticks_Phase_8,35,9999,9999,9999,1559507048
1037,22,Ticks_Phase_8,36,9999,9999,9999,1560306764
1037,22,Ticks_Phase_8,37,9999,9999,9999,1561106556
1037,22,Ticks_Phase_8,38,9999,9999,9999,1561906260
1037,22,Ticks_Phase_8,39,9999,9999,9999,1562707020
1037,22,Ticks_Phase_8,40,9999,9999,9999,1563506804
1037,22,Ticks_Phase_8,41,9999,9999,9999,1564306544
1037,22,Ticks_Phase_8,42,9999,9999,9999,1565106256
1037,22,Ticks_Phase_8,43,9999,9999,9999,1565907012
1037,22,Ticks_Phase_8,44,9999,9999,9999,1566706800
1037,22,Ticks_Phase_8,45,9999,9999,9999,1567506516
1037,22,Ticks_Phase_8,46,9999,9999,9999,1568306300
1037,22,Ticks_Phase_8,47,9999,9999,9999,1569107056
1037,22,Ticks_Phase_8,48,9999,9999,9999,1569926264
1037,22,Ticks_Phase_8,49,9999,9999,9999,1570727032
1037,22,Ticks_Phase_8,50,9999,9999,9999,1571526740
1037,22,Ticks_Phase_8,51,9999,9999,9999,1572326524
1037,22,Ticks_Phase_8,52,9999,9999,9999,1573126236
1037,22,Ticks_Phase_8,53,9999,9999,9999,1573926992
1037,22,Ticks_Phase_8,54,9999,9999,9999,1574726780
1037,22,Ticks_Phase_8,55,9999,9999,9999,1575526500
1037,22,Ticks_Phase_8,56,9999,9999,9999,1576326236
1037,22,Ticks_Phase_8,57,9999,9999,9999,1577126988
1037,22,Ticks_Phase_8,58,9999,9999,9999,1577926776
1037,22,Ticks_Phase_8,59,9999,9999,9999,1578726492
1037,22,Ticks_Phase_8,60,9999,9999,9999,1579526272
1037,22,Ticks_Phase_8,61,9999,9999,9999,1580327032
1037,22,Ticks_Phase_8,62,9999,9999,9999,1581126744
1037,22,Ticks_Phase_8,63,9999,9999,9999,1581926528
1037,22,Ticks_Phase_8,64,9999,9999,9999,1582766184
1037,22,Ticks_Phase_8,65,9999,9999,9999,1583566940
1037,22,Ticks_Phase_8,66,9999,9999,9999,1584366660
1037,22,Ticks_Phase_8,67,9999,9999,9999,1585166444
1037,22,Ticks_Phase_8,68,9999,9999,9999,1585966156
1037,22,Ticks_Phase_8,69,9999,9999,9999,1586766908
1037,22,Ticks_Phase_8,70,9999,9999,9999,1587566696
1037,22,Ticks_Phase_8,71,9999,9999,9999,1588366432
1037,22,Ticks_Phase_8,72,9999,9999,9999,1589166144
1037,22,Ticks_Phase_8,73,9999,9999,9999,1589966908
1037,22,Ticks_Phase_8,74,9999,9999,9999,1590766688
1037,22,Ticks_Phase_8,75,9999,9999,9999,1591566408
1037,22,Ticks_Phase_8,76,9999,9999,9999,1592366196
1037,22,Ticks_Phase_8,77,9999,9999,9999,1593166952
1037,22,Ticks_Phase_8,78,9999,9999,9999,1593966656
1037,22,Ticks_Phase_8,79,9999,9999,9999,1594766404
1037,22,Ticks_Phase_8,80,9999,9999,9999,1595566184
1037,22,Ticks_Phase_8,81,9999,9999,9999,1596327036
1037,22,Ticks_Phase_8,82,9999,9999,9999,1597126772
1037,22,Ticks_Phase_8,83,9999,9999,9999,1597926476
1037,22,Ticks_Phase_8,84,9999,9999,9999,1598726264
1037,22,Ticks_Phase_8,85,9999,9999,9999,1599527020
1037,22,Ticks_Phase_8,86,9999,9999,9999,1600326736
1037,22,Ticks_Phase_8,87,9999,9999,9999,1601126520
1037,22,Ticks_Phase_8,88,9999,9999,9999,1601926260
1037,22,Ticks_Phase_8,89,9999,9999,9999,1602727016
1037,22,Ticks_Phase_8,90,9999,9999,9999,1603526736
1037,22,Ticks_Phase_8,91,9999,9999,9999,1604326516
1037,22,Ticks_Phase_8,92,9999,9999,9999,1605126228
1037,22,Ticks_Phase_8,93,9999,9999,9999,1605926988
1037,22,Ticks_Phase_8,94,9999,9999,9999,1606726776
1037,22,Ticks_Phase_8,95,9999,9999,9999,1607526484
1037,22,Ticks_Phase_8,96,9999,9999,9999,1608326224
1037,22,Ticks_Phase_8,97,9999,9999,9999,1609046088
1037,22,Ticks_Phase_8,98,9999,9999,9999,1609846864
1037,22,Ticks_Phase_8,99,9999,9999,9999,1610646648
1037,22,Ticks_Phase_8,100,9999,9999,9999,1611446360
1037,22,Ticks_Phase_8,101,9999,9999,9999,1612246084
1037,22,Ticks_Phase_8,102,9999,9999,9999,1613046908
1037,22,Ticks_Phase_8,103,9999,9999,9999,1613846620
1037,22,Ticks_Phase_8,104,9999,9999,9999,1614646332
1037,22,Ticks_Phase_8,105,9999,9999,9999,1615446120
1037,22,Ticks_Phase_8,106,9999,9999,9999,1616246904
1037,22,Ticks_Phase_8,107,9999,9999,9999,1617046612
1037,22,Ticks_Phase_8,108,9999,9999,9999,1617846400
1037,22,Ticks_Phase_8,109,9999,9999,9999,1618646108
1037,22,Ticks_Phase_8,110,9999,9999,9999,1619446876
1037,22,Ticks_Phase_8,111,9999,9999,9999,1620246656
1037,22,Ticks_Phase_8,112,9999,9999,9999,1621046368
1037,22,Ticks_Phase_8,113,9999,9999,9999,1621846080
1037,22,Ticks_Phase_8,114,9999,9999,9999,1622726756
1037,22,Ticks_Phase_8,115,9999,9999,9999,1623526488
1037,22,Ticks_Phase_8,116,9999,9999,9999,1624326200
1037,22,Ticks_Phase_8,117,9999,9999,9999,1625127028
1037,22,Ticks_Phase_8,118,9999,9999,9999,1625926748
1037,22,Ticks_Phase_8,119,9999,9999,9999,1626726460
1037,22,Ticks_Phase_8,120,9999,9999,9999,1627526264
1037,22,Ticks_Phase_8,121,9999,9999,9999,1628327020
1037,22,Ticks_Phase_8,122,9999,9999,9999,1629126756
1037,22,Ticks_Phase_8,123,9999,9999,9999,1629926460
1037,22,Ticks_Phase_8,124,9999,9999,9999,1630726248
1037,22,Ticks_Phase_8,125,9999,9999,9999,1631527004
1037,22,Ticks_Phase_8,126,9999,9999,9999,1632326716
1037,22,Ticks_Phase_8,127,9999,9999,9999,1633126508
1037,22,Ticks_Phase_8,128,9999,9999,9999,1633926244
1037,22,Ticks_Phase_8,129,9999,9999,9999,1634727000
1037,22,Ticks_Phase_8,130,9999,9999,9999,1635526712
1037,22,Ticks_Phase_8,131,9999,9999,9999,1636486248
1037,22,Ticks_Phase_8,132,9999,9999,9999,1637287028
1037,22,Ticks_Phase_8,133,9999,9999,9999,1638086744
1037,22,Ticks_Phase_8,134,9999,9999,9999,1638886524
1037,22,Ticks_Phase_8,135,9999,9999,9999,1639686232
1037,22,Ticks_Phase_8,136,9999,9999,9999,1640486992
1037,22,Ticks_Phase_8,137,9999,9999,9999,1641286780
1037,22,Ticks_Phase_8,138,9999,9999,9999,1642086496
1037,22,Ticks_Phase_8,139,9999,9999,9999,1642886228
1037,22,Ticks_Phase_8,140,9999,9999,9999,1643686992
1037,22,Ticks_Phase_8,141,9999,9999,9999,1644486772
1037,22,Ticks_Phase_8,142,9999,9999,9999,1645286484
1037,22,Ticks_Phase_8,143,9999,9999,9999,1646086268
1037,22,Ticks_Phase_8,144,9999,9999,9999,1646887028
1037,22,Ticks_Phase_8,145,9999,9999,9999,1647686740
1037,22,Ticks_Phase_8,146,9999,9999,9999,1648486528
1037,22,Ticks_Phase_8,147,9999,9999,9999,1649286264
1037,22,Ticks_Phase_8,148,9999,9999,9999,1650087020
1037,22,Ticks_Phase_8,149,9999,9999,9999,1650886732
1037,22,Ticks_Phase_8,150,9999,9999,9999,1651526764
1037,22,Ticks_Phase_8,151,9999,9999,9999,1652326480
1037,22,Ticks_Phase_8,152,9999,9999,9999,1653126240
1037,22,Ticks_Phase_8,153,9999,9999,9999,1653926992
1037,22,Ticks_Phase_8,154,9999,9999,9999,1654726776
1037,22,Ticks_Phase_8,155,9999,9999,9999,1655526492
1037,22,Ticks_Phase_8,156,9999,9999,9999,1656326208
1037,22,Ticks_Phase_8,157,9999,9999,9999,1657127040
1037,22,Ticks_Phase_8,158,9999,9999,9999,1657926752
1037,22,Ticks_Phase_8,159,9999,9999,9999,1658726460
1037,22,Ticks_Phase_8,160,9999,9999,9999,1659526272
1037,22,Ticks_Phase_8,161,9999,9999,9999,1660327028
1037,22,Ticks_Phase_8,162,9999,9999,9999,1661126740
1037,22,Ticks_Phase_8,163,9999,9999,9999,1661926528
1037,22,Ticks_Phase_8,164,9999,9999,9999,1662726240
1037,22,Ticks_Phase_8,165,9999,9999,9999,1663526996
1037,22,Ticks_Phase_8,166,9999,9999,9999,1664326784
1037,22,Ticks_Phase_8,167,9999,9999,9999,1665126496
1037,22,Ticks_Phase_8,168,9999,9999,9999,1665926232
1037,22,Ticks_Phase_8,169,9999,9999,9999,1666726992
1038,23,Ticks_Phase_5,0,5,42,127,1676045604
1038,23,Ticks_Phase_5,1,5,42,127,1676546364
1038,23,Ticks_Phase_5,2,1,48,28,1676730436
1038,23,Ticks_Phase_5,3,5,42,127,1677056384
1038,23,Ticks_Phase_5,4,1,48,24,1677125784
1038,23,Ticks_Phase_5,5,5,42,127,1677556148
1038,23,Ticks_Phase_5,6,1,48,24,1677585180
1038,23,Ticks_Phase_5,7,5,42,127,1678055684
1038,23,Ticks_Phase_5,8,1,48,24,1678070336
1038,23,Ticks_Phase_5,9,5,42,127,1678555524
1038,23,Ticks_Phase_5,10,1,48,25,1678561932
1038,23,Ticks_Phase_5,11,5,42,127,1679056332
1038,23,Ticks_Phase_5,12,1,48,30,1679076228
1038,23,Ticks_Phase_5,13,5,42,127,1679555944
1038,23,Ticks_Phase_5,14,1,48,28,1679571344
1038,23,Ticks_Phase_5,15,5,42,127,1680055636
1038,23,Ticks_Phase_5,16,1,48,22,1680080920
1038,23,Ticks_Phase_5,17,5,42,127,1680556372
1038,23,Ticks_Phase_5,18,1,48,25,1680564212
1038,23,Ticks_Phase_5,19,5,42,127,1681056208
1038,23,Ticks_Phase_5,20,1,48,31,1681067272
1038,23,Ticks_Phase_5,21,5,42,127,1681555896
1038,23,Ticks_Phase_5,22,1,48,30,1681574076
1038,23,Ticks_Phase_5,23,5,42,127,1682055656
1038,23,Ticks_Phase_5,24,1,48,24,1682067916
1038,23,Ticks_Phase_5,25,5,42,127,1682556244
1038,23,Ticks_Phase_5,26,1,48,26,1682594340
1038,23,Ticks_Phase_5,27,5,42,127,1683056060
1038,23,Ticks_Phase_5,28,1,48,29,1683090276
1038,23,Ticks_Phase_5,29,1,48,26,1683541996
1038,23,Ticks_Phase_5,30,5,42,127,1683555588
1038,23,Ticks_Phase_5,31,5,42,127,1684056336
1038,23,Ticks_Phase_5,32,1,48,26,1684085540
1038,23,Ticks_Phase_5,33,1,48,20,1684561520
1038,23,Ticks_Phase_5,34,5,42,127,1684566276
1038,23,Ticks_Phase_5,35,1,48,25,1685042484
1038,23,Ticks_Phase_5,36,5,42,127,1685066184
1038,23,Ticks_Phase_5,37,5,42,127,1685565804
1038,23,Ticks_Phase_5,38,1,48,28,1685569972
1038,23,Ticks_Phase_5,39,5,42,127,1686065640
1038,23,Ticks_Phase_5,40,1,48,27,1686080892
1038,23,Ticks_Phase_5,41,5,42,127,1686566224
1038,23,Ticks_Phase_5,42,1,48,26,1686568820
1038,23,Ticks_Phase_5,43,1,48,28,1687060784
1038,23,Ticks_Phase_5,44,5,42,127,1687066056
1038,23,Ticks_Phase_5,45,5,42,127,1687565748
1038,23,Ticks_Phase_5,46,1,48,21,1687569168
1038,23,Ticks_Phase_5,47,1,48,22,1688056244
1038,23,Ticks_Phase_5,48,5,42,127,1688066380
1038,23,Ticks_Phase_5,49,1,48,27,1688546648
1038,23,Ticks_Phase_5,50,5,42,127,1688576332
1038,23,Ticks_Phase_5,51,5,42,127,1689076248
1038,23,Ticks_Phase_5,52,1,48,26,1689115696
1038,23,Ticks_Phase_5,53,5,42,127,1689575788
1038,23,Ticks_Phase_5,54,1,48,27,1689603168
1038,23,Ticks_Phase_5,55,5,42,127,1690075552
1038,23,Ticks_Phase_5,56,1,48,29,1690111024
1038,23,Ticks_Phase_5,57,5,42,127,1690576212
1038,23,Ticks_Phase_5,58,1,48,28,1690612204
1038,23,Ticks_Phase_5,59,5,42,127,1691065716
1038,23,Ticks_Phase_5,60,1,48,22,1691077976
1038,23,Ticks_Phase_5,61,5,42,127,1691565404
1038,23,Ticks_Phase_5,62,1,48,27,1691590464
1038,23,Ticks_Phase_5,63,5,42,127,1692066068
1038,23,Ticks_Phase_5,64,1,48,23,1692082364
1038,23,Ticks_Phase_5,65,5,42,127,1692566056
1038,23,Ticks_Phase_5,66,1,48,28,1692589844
1038,23,Ticks_Phase_5,67,5,42,127,1693065668
1038,23,Ticks_Phase_5,68,1,48,25,1693085192
1038,23,Ticks_Phase_5,69,1,48,27,1693565804
1038,23,Ticks_Phase_5,70,5,42,127,1693567372
1038,23,Ticks_Phase_5,71,5,42,127,1694066064
1038,23,Ticks_Phase_5,72,1,48,30,1694102536
1038,23,Ticks_Phase_5,73,1,48,25,1694532764
1038,23,Ticks_Phase_5,74,5,42,127,1694565600
1038,23,Ticks_Phase_5,75,5,42,127,1695065444
1038,23,Ticks_Phase_5,76,1,48,26,1695136140
1038,23,Ticks_Phase_5,77,5,42,127,1695566400
1038,23,Ticks_Phase_5,78,1,48,23,1695593944
1038,23,Ticks_Phase_5,79,1,48,21,1696053320
1038,23,Ticks_Phase_5,80,5,42,127,1696065860
1038,23,Ticks_Phase_5,81,1,48,22,1696559676
1038,23,Ticks_Phase_5,82,5,42,127,1696565548
1038,23,Ticks_Phase_5,83,1,48,24,1697033300
1038,23,Ticks_Phase_5,84,5,42,127,1697066356
1038,23,Ticks_Phase_5,85,5,42,127,1697566052
1038,23,Ticks_Phase_5,86,1,48,26,1697597032
1038,23,Ticks_Phase_5,87,5,42,127,1698066188
1038,23,Ticks_Phase_5,88,1,48,24,1698069308
1038,23,Ticks_Phase_5,89,1,48,21,1698563536
1038,23,Ticks_Phase_5,90,5,42,127,1698565424
1038,23,Ticks_Phase_5,91,5,42,127,1699066164
1038,23,Ticks_Phase_5,92,1,48,22,1699087412
1038,23,Ticks_Phase_5,93,1,48,16,1699534812
1038,23,Ticks_Phase_5,94,5,42,127,1699566068
1038,23,Ticks_Phase_5,95,5,42,127,1700075952
1038,23,Ticks_Phase_5,96,1,48,26,1700100192
1038,23,Ticks_Phase_5,97,5,42,127,1700575640
1038,23,Ticks_Phase_5,98,1,48,22,1700618528
1038,23,Ticks_Phase_5,99,5,42,127,1701076300
1038,23,Ticks_Phase_5,100,1,48,26,1701120456
1038,23,Ticks_Phase_5,101,5,42,127,1701575988
1038,23,Ticks_Phase_5,102,1,48,20,1701600748
1038,23,Ticks_Phase_5,103,5,42,127,1702075900
1038,23,Ticks_Phase_5,104,1,48,27,1702133156
1038,23,Ticks_Phase_5,105,5,42,127,1702575512
1038,23,Ticks_Phase_5,106,1,48,26,1702610232
1038,23,Ticks_Phase_5,107,1,48,21,1703073732
1038,23,Ticks_Phase_5,108,5,42,127,1703076240
1038,23,Ticks_Phase_5,109,5,42,127,1703575860
1038,23,Ticks_Phase_5,110,1,48,22,1703591704
1038,23,Ticks_Phase_5,111,5,42,127,1704075772
1038,23,Ticks_Phase_5,112,1,48,24,1704085788
1038,23,Ticks_Phase_5,113,5,42,127,1704576360
1038,23,Ticks_Phase_5,114,1,48,21,1704586300
1038,23,Ticks_Phase_5,115,1,48,24,1705073904
1038,23,Ticks_Phase_5,116,5,42,127,1705076016
1038,23,Ticks_Phase_5,117,1,48,28,1705575080
1038,23,Ticks_Phase_5,118,5,42,127,1705576504
1038,23,Ticks_Phase_5,119,5,42,127,1706075672
1038,23,Ticks_Phase_5,120,1,48,26,1706110344
1038,23,Ticks_Phase_5,121,5,42,127,1706576108
1038,23,Ticks_Phase_5,122,1,48,23,1706615056
1038,23,Ticks_Phase_5,123,5,42,127,1707075948
1038,23,Ticks_Phase_5,124,1,48,29,1707091492
1038,23,Ticks_Phase_5,125,5,42,127,1707575856
1038,23,Ticks_Phase_5,126,1,48,26,1707614028
1038,23,Ticks_Phase_5,127,5,42,127,1708095840
1038,23,Ticks_Phase_5,128,1,48,31,1708100380
1038,23,Ticks_Phase_5,129,5,42,127,1708595528
1038,23,Ticks_Phase_5,130,1,48,27,1708612948
1038,23,Ticks_Phase_5,131,5,42,127,1709096336
1038,23,Ticks_Phase_5,132,1,48,25,1709117584
1038,23,Ticks_Phase_5,133,1,48,23,1709594672
1038,23,Ticks_Phase_5,134,5,42,127,1709596244
1038,23,Ticks_Phase_5,135,5,42,127,1710095940
1038,23,Ticks_Phase_5,136,1,48,27,1710123024
1038,23,Ticks_Phase_5,137,1,48,22,1710552900
1038,23,Ticks_Phase_5,138,5,42,127,1710595548
1038,23,Ticks_Phase_5,139,5,42,127,1711096140
1038,23,Ticks_Phase_5,140,1,48,24,1711125776
1038,23,Ticks_Phase_5,141,5,42,127,1711595828
1038,23,Ticks_Phase_5,142,1,48,25,1711632264
1038,23,Ticks_Phase_5,143,5,42,127,1712095740
1038,23,Ticks_Phase_5,144,1,48,24,1712114664
1038,23,Ticks_Phase_5,145,5,42,127,1712596400
1038,23,Ticks_Phase_5,146,1,48,24,1712641384
1038,23,Ticks_Phase_5,147,5,42,127,1713096164
1038,23,Ticks_Phase_5,148,1,48,21,1713130888
1038,23,Ticks_Phase_5,149,5,42,127,1713595780
1038,23,Ticks_Phase_5,150,1,48,23,1713621660
1038,23,Ticks_Phase_5,151,5,42,127,1714095544
1038,23,Ticks_Phase_5,152,1,48,24,1714113480
1038,23,Ticks_Phase_5,153,5,42,127,1714596204
1038,23,Ticks_Phase_5,154,1,48,23,1714621184
1038,23,Ticks_Phase_5,155,5,42,127,1715095816
1038,23,Ticks_Phase_5,156,1,48,27,1715109420
1038,23,Ticks_Phase_5,157,5,42,127,1715595728
1038,23,Ticks_Phase_5,158,1,48,23,1715612848
1038,23,Ticks_Phase_5,159,5,42,127,1716096244
1038,23,Ticks_Phase_5,160,1,48,22,1716104156
1038,23,Ticks_Phase_5,161,5,42,127,1716575908
1038,23,Ticks_Phase_5,162,1,48,25,1716615304
1038,23,Ticks_Phase_5,163,1,48,21,1717066276
1038,23,Ticks_Phase_5,164,5,42,127,1717076336
1038,23,Ticks_Phase_5,165,1,48,20,1717558920
1038,23,Ticks_Phase_5,166,5,42,127,1717576024
1038,23,Ticks_Phase_5,167,5,42,127,1718075944
1038,23,Ticks_Phase_5,168,1,48,24,1718102872
1038,23,Ticks_Phase_5,169,5,42,127,1718575708
1038,23,Ticks_Phase_5,170,1,48,21,1718607888
1038,23,Ticks_Phase_5,171,5,42,127,1719076068
1038,23,Ticks_Phase_5,172,1,48,20,1719103368
1038,23,Ticks_Phase_5,173,5,42,127,1719576052
1038,23,Ticks_Phase_5,174,1,48,17,1719589732
1038,23,Ticks_Phase_5,175,1,48,24,1720073776
1038,23,Ticks_Phase_5,176,5,42,127,1720075808
1038,23,Ticks_Phase_5,177,1,48,24,1720574512
1038,23,Ticks_Phase_5,178,5,42,127,1720576324
1038,23,Ticks_Phase_5,179,5,42,127,1721076092
1038,23,Ticks_Phase_5,180,1,48,22,1721092908
1038,23,Ticks_Phase_5,181,5,42,127,1721575780
1038,23,Ticks_Phase_5,182,1,48,24,1721609076
1038,23,Ticks_Phase_5,183,1,48,20,1722069736
1038,23,Ticks_Phase_5,184,5,42,127,1722075760
1038,23,Ticks_Phase_5,185,1,48,20,1722566660
1038,23,Ticks_Phase_5,186,5,42,127,1722576196
1038,23,Ticks_Phase_5,187,5,42,127,1723075892
1038,23,Ticks_Phase_5,188,1,48,22,1723085308
1038,23,Ticks_Phase_5,189,1,48,18,1723573984
1038,23,Ticks_Phase_5,190,5,42,127,1723575648
1038,23,Ticks_Phase_5,191,1,48,24,1724053280
1038,23,Ticks_Phase_5,192,5,42,127,1724076536
1038,23,Ticks_Phase_5,193,5,42,127,1724525880
1038,23,Ticks_Phase_5,194,1,48,18,1724557784
1038,23,Ticks_Phase_5,195,5,42,127,1725025792
1038,23,Ticks_Phase_5,196,1,48,17,1725039468
1038,23,Ticks_Phase_5,197,5,42,127,1725526528
1038,23,Ticks_Phase_5,198,1,48,20,1725557236
1038,23,Ticks_Phase_5,199,5,42,127,1726026064
1038,23,Ticks_Phase_5,200,1,48,21,1726028080
1038,23,Ticks_Phase_5,201,1,48,20,1726521744
1038,23,Ticks_Phase_5,202,5,42,127,1726525896
1038,23,Ticks_Phase_5,203,5,42,127,1727025812
1038,23,Ticks_Phase_5,204,1,48,19,1727036804
1038,23,Ticks_Phase_5,205,1,48,18,1727525800
1038,23,Ticks_Phase_5,206,5,42,127,1727527292
1038,23,Ticks_Phase_5,207,5,42,127,1728026016
1038,23,Ticks_Phase_5,208,1,48,26,1728032348
1038,23,Ticks_Phase_5,209,1,48,20,1728520200
1038,23,Ticks_Phase_5,210,5,42,127,1728525700
1038,23,Ticks_Phase_5,211,1,48,21,1729018464
1038,23,Ticks_Phase_5,212,5,42,127,1729026508
1038,23,Ticks_Phase_5,213,1,48,19,1729532080
1038,23,Ticks_Phase_5,214,5,42,127,1729536456
1038,23,Ticks_Phase_5,215,1,48,21,1730023616
1038,23,Ticks_Phase_5,216,5,42,127,1730036068
1038,23,Ticks_Phase_5,217,1,48,21,1730505780
1038,23,Ticks_Phase_5,218,5,42,127,1730535756
1038,23,Ticks_Phase_5,219,5,42,127,1731035676
1038,23,Ticks_Phase_5,220,1,48,21,1731038196
1038,23,Ticks_Phase_5,221,5,42,127,1731536112
1038,23,Ticks_Phase_5,222,1,48,21,1731572624
1038,23,Ticks_Phase_5,223,5,42,127,1732035876
1038,23,Ticks_Phase_5,224,1,48,21,1732050528
1038,23,Ticks_Phase_5,225,1,48,23,1732512608
1038,23,Ticks_Phase_5,226,5,42,127,1732535784
1038,23,Ticks_Phase_5,227,1,48,24,1733059032
1038,23,Ticks_Phase_5,228,5,42,127,1733085796
1038,23,Ticks_Phase_5,229,5,42,127,1733586240
1038,23,Ticks_Phase_5,230,1,48,24,1733623056
1038,23,Ticks_Phase_5,231,5,42,127,1734086004
1038,23,Ticks_Phase_5,232,1,48,24,1734091736
1038,23,Ticks_Phase_5,233,5,42,127,1734585692
1038,23,Ticks_Phase_5,234,1,48,24,1734611644
1038,23,Ticks_Phase_5,235,1,48,23,1735070960
1038,23,Ticks_Phase_5,236,5,42,127,1735085596
1038,23,Ticks_Phase_5,237,1,48,22,1735561364
1038,23,Ticks_Phase_5,238,5,42,127,1735586104
1038,23,Ticks_Phase_5,239,1,48,27,1736084820
1038,23,Ticks_Phase_5,240,5,42,127,1736086240
1038,23,Ticks_Phase_5,241,1,48,30,1736568156
1038,23,Ticks_Phase_5,242,5,42,127,1736585484
1038,23,Ticks_Phase_5,243,1,48,31,1737075036
1038,23,Ticks_Phase_5,244,5,42,127,1737086516
1038,23,Ticks_Phase_5,245,1,48,29,1737568332
1038,23,Ticks_Phase_5,246,5,42,127,1737586056
1038,23,Ticks_Phase_5,247,1,48,24,1738064276
1038,23,Ticks_Phase_5,248,5,42,127,1738085720
1038,23,Ticks_Phase_5,249,1,48,23,1738580804
1038,23,Ticks_Phase_5,250,5,42,127,1738585632
1038,23,Ticks_Phase_5,251,1,48,28,1739078252
1038,23,Ticks_Phase_5,252,5,42,127,1739086144
1038,23,Ticks_Phase_5,253,1,48,24,1739564536
1038,23,Ticks_Phase_5,254,5,42,127,1739585828
1038,23,Ticks_Phase_5,255,5,42,127,1740085524
1038,23,Ticks_Phase_5,256,1,48,30,1740088044
1038,23,Ticks_Phase_5,257,1,48,27,1740571540
1038,23,Ticks_Phase_5,258,5,42,127,1740586476
1038,23,Ticks_Phase_5,259,5,42,127,1741086020
1038,23,Ticks_Phase_5,260,1,48,26,1741114460
1038,23,Ticks_Phase_5,261,1,48,23,1741605816
1038,23,Ticks_Phase_5,262,5,42,127,1741686000
1038,23,Ticks_Phase_5,263,5,42,127,1742185896
1038,23,Ticks_Phase_5,264,1,48,19,1742309688
1038,23,Ticks_Phase_5,265,5,42,127,1742685436
1038,23,Ticks_Phase_5,266,5,42,127,1743186564
1038,23,Ticks_Phase_5,267,1,48,17,1743324812
1038,23,Ticks_Phase_5,268,5,42,127,1743685880
1038,23,Ticks_Phase_5,269,1,48,23,1743726000
1038,23,Ticks_Phase_5,270,5,42,127,1744185716
1038,23,Ticks_Phase_5,271,1,48,22,1744186684
1038,23,Ticks_Phase_5,272,1,48,22,1744657440
1038,23,Ticks_Phase_5,273,5,42,127,1744685472
1038,23,Ticks_Phase_5,274,5,42,127,1745186360
1038,23,Ticks_Phase_5,275,1,48,26,1745188808
1038,23,Ticks_Phase_5,276,1,48,28,1745684312
1038,23,Ticks_Phase_5,277,5,42,127,1745685896
1038,23,Ticks_Phase_5,278,1,48,21,1746171844
1038,23,Ticks_Phase_5,279,5,42,127,1746185512
1038,23,Ticks_Phase_5,280,1,48,24,1746678128
1038,23,Ticks_Phase_5,281,5,42,127,1746686392
1038,23,Ticks_Phase_5,282,1,48,30,1747182904
1038,23,Ticks_Phase_5,283,5,42,127,1747186156
1038,23,Ticks_Phase_5,284,1,48,25,1747678924
1038,23,Ticks_Phase_5,285,5,42,127,1747685768
1038,23,Ticks_Phase_5,286,1,48,23,1748165664
1038,23,Ticks_Phase_5,287,5,42,127,1748185456
1038,23,Ticks_Phase_5,288,1,48,21,1748661376
1038,23,Ticks_Phase_5,289,5,42,127,1748686192
1038,23,Ticks_Phase_5,290,1,48,27,1749175292
1038,23,Ticks_Phase_5,291,5,42,127,1749186104
1038,23,Ticks_Phase_5,292,1,48,24,1749683532
1038,23,Ticks_Phase_5,293,5,42,127,1749685572
1038,23,Ticks_Phase_5,294,1,48,24,1750171748
1038,23,Ticks_Phase_5,295,5,42,127,1750186308
1038,23,Ticks_Phase_5,296,1,48,26,1750643420
1038,23,Ticks_Phase_5,297,5,42,127,1750686144
1038,23,Ticks_Phase_5,298,5,42,127,1751085320
1038,23,Ticks_Phase_5,299,1,48,29,1751176388
1038,23,Ticks_Phase_5,300,5,42,127,1751586500
1038,23,Ticks_Phase_5,301,1,48,26,1751618904
1038,23,Ticks_Phase_5,302,1,48,21,1752027744
1038,23,Ticks_Phase_5,303,5,42,127,1752085960
1038,23,Ticks_Phase_5,304,1,48,20,1752576188
1038,23,Ticks_Phase_5,305,5,42,127,1752585724
1038,23,Ticks_Phase_5,306,5,42,127,1753086388
1038,23,Ticks_Phase_5,307,1,48,20,1753092652
1038,23,Ticks_Phase_5,308,1,48,16,1753546804
1038,23,Ticks_Phase_5,309,5,42,127,1753585924
1038,23,Ticks_Phase_5,310,1,48,24,1754083252
1038,23,Ticks_Phase_5,311,5,42,127,1754085836
1038,23,Ticks_Phase_5,312,5,42,127,1754585384
1038,23,Ticks_Phase_5,313,1,48,19,1754599512
1038,23,Ticks_Phase_5,314,5,42,127,1755086492
1038,23,Ticks_Phase_5,315,1,48,27,1755096508
1038,23,Ticks_Phase_5,316,5,42,127,1755586180
1038,23,Ticks_Phase_5,317,1,48,19,1755597612
1038,23,Ticks_Phase_5,318,5,42,127,1756085720
1038,23,Ticks_Phase_5,319,1,48,18,1756103508
1038,23,Ticks_Phase_5,320,1,48,18,1756569044
1038,23,Ticks_Phase_5,321,5,42,127,1756586300
1038,23,Ticks_Phase_5,322,1,48,27,1757070152
1038,23,Ticks_Phase_5,323,5,42,127,1757086356
1038,23,Ticks_Phase_5,324,5,42,127,1757585756
1038,23,Ticks_Phase_5,325,1,48,21,1757607376
1038,23,Ticks_Phase_5,326,1,48,29,1758079044
1038,23,Ticks_Phase_5,327,5,42,127,1758085440
1038,23,Ticks_Phase_5,328,5,42,127,1758586328
1038,23,Ticks_Phase_5,329,1,48,24,1758591616
1038,23,Ticks_Phase_5,330,5,42,127,1759086140
1038,23,Ticks_Phase_5,331,1,48,21,1759099316
1038,23,Ticks_Phase_5,332,5,42,127,1759585600
1038,23,Ticks_Phase_5,333,1,48,19,1759608068
1038,23,Ticks_Phase_5,334,5,42,127,1760086412
1038,23,Ticks_Phase_5,335,1,48,21,1760094552
1038,23,Ticks_Phase_5,336,5,42,127,1760586320
1038,23,Ticks_Phase_5,0,9999,9999,9999,1676043320
1038,23,Ticks_Phase_5,1,9999,9999,9999,1676544076
1038,23,Ticks_Phase_5,2,9999,9999,9999,1677054020
1038,23,Ticks_Phase_5,3,9999,9999,9999,1677553784
1038,23,Ticks_Phase_5,4,9999,9999,9999,1678053472
1038,23,Ticks_Phase_5,5,9999,9999,9999,1678553160
1038,23,Ticks_Phase_5,6,9999,9999,9999,1679053896
1038,23,Ticks_Phase_5,7,9999,9999,9999,1679553660
1038,23,Ticks_Phase_5,8,9999,9999,9999,1680053348
1038,23,Ticks_Phase_5,9,9999,9999,9999,1680554084
1038,23,Ticks_Phase_5,10,9999,9999,9999,1681053772
1038,23,Ticks_Phase_5,11,9999,9999,9999,1681553536
1038,23,Ticks_Phase_5,12,9999,9999,9999,1682053224
1038,23,Ticks_Phase_5,13,9999,9999,9999,1682553956
1038,23,Ticks_Phase_5,14,9999,9999,9999,1683053624
1038,23,Ticks_Phase_5,15,9999,9999,9999,1683553376
1038,23,Ticks_Phase_5,16,9999,9999,9999,1684054120
1038,23,Ticks_Phase_5,17,9999,9999,9999,1684564060
1038,23,Ticks_Phase_5,18,9999,9999,9999,1685063748
1038,23,Ticks_Phase_5,19,9999,9999,9999,1685563516
1038,23,Ticks_Phase_5,20,9999,9999,9999,1686063204
1038,23,Ticks_Phase_5,21,9999,9999,9999,1686563936
1038,23,Ticks_Phase_5,22,9999,9999,9999,1687063620
1038,23,Ticks_Phase_5,23,9999,9999,9999,1687563388
1038,23,Ticks_Phase_5,24,9999,9999,9999,1688064092
1038,23,Ticks_Phase_5,25,9999,9999,9999,1688574040
1038,23,Ticks_Phase_5,26,9999,9999,9999,1689073736
1038,23,Ticks_Phase_5,27,9999,9999,9999,1689573500
1038,23,Ticks_Phase_5,28,9999,9999,9999,1690073188
1038,23,Ticks_Phase_5,29,9999,9999,9999,1690573924
1038,23,Ticks_Phase_5,30,9999,9999,9999,1691063356
1038,23,Ticks_Phase_5,31,9999,9999,9999,1691563120
1038,23,Ticks_Phase_5,32,9999,9999,9999,1692063856
1038,23,Ticks_Phase_5,33,9999,9999,9999,1692563544
1038,23,Ticks_Phase_5,34,9999,9999,9999,1693063232
1038,23,Ticks_Phase_5,35,9999,9999,9999,1693563968
1038,23,Ticks_Phase_5,36,9999,9999,9999,1694063704
1038,23,Ticks_Phase_5,37,9999,9999,9999,1694563384
1038,23,Ticks_Phase_5,38,9999,9999,9999,1695063156
1038,23,Ticks_Phase_5,39,9999,9999,9999,1695563892
1038,23,Ticks_Phase_5,40,9999,9999,9999,1696063576
1038,23,Ticks_Phase_5,41,9999,9999,9999,1696563264
1038,23,Ticks_Phase_5,42,9999,9999,9999,1697063996
1038,23,Ticks_Phase_5,43,9999,9999,9999,1697563768
1038,23,Ticks_Phase_5,44,9999,9999,9999,1698063452
1038,23,Ticks_Phase_5,45,9999,9999,9999,1698563160
1038,23,Ticks_Phase_5,46,9999,9999,9999,1699063876
1038,23,Ticks_Phase_5,47,9999,9999,9999,1699563632
1038,23,Ticks_Phase_5,48,9999,9999,9999,1700073588
1038,23,Ticks_Phase_5,49,9999,9999,9999,1700573280
1038,23,Ticks_Phase_5,50,9999,9999,9999,1701074012
1038,23,Ticks_Phase_5,51,9999,9999,9999,1701573700
1038,23,Ticks_Phase_5,52,9999,9999,9999,1702073464
1038,23,Ticks_Phase_5,53,9999,9999,9999,1702573152
1038,23,Ticks_Phase_5,54,9999,9999,9999,1703073880
1038,23,Ticks_Phase_5,55,9999,9999,9999,1703573576
1038,23,Ticks_Phase_5,56,9999,9999,9999,1704073336
1038,23,Ticks_Phase_5,57,9999,9999,9999,1704574072
1038,23,Ticks_Phase_5,58,9999,9999,9999,1705073768
1038,23,Ticks_Phase_5,59,9999,9999,9999,1705573476
1038,23,Ticks_Phase_5,60,9999,9999,9999,1706073164
1038,23,Ticks_Phase_5,61,9999,9999,9999,1706573896
1038,23,Ticks_Phase_5,62,9999,9999,9999,1707073660
1038,23,Ticks_Phase_5,63,9999,9999,9999,1707573348
1038,23,Ticks_Phase_5,64,9999,9999,9999,1708093552
1038,23,Ticks_Phase_5,65,9999,9999,9999,1708593244
1038,23,Ticks_Phase_5,66,9999,9999,9999,1709093976
1038,23,Ticks_Phase_5,67,9999,9999,9999,1709593664
1038,23,Ticks_Phase_5,68,9999,9999,9999,1710093432
1038,23,Ticks_Phase_5,69,9999,9999,9999,1710593112
1038,23,Ticks_Phase_5,70,9999,9999,9999,1711093852
1038,23,Ticks_Phase_5,71,9999,9999,9999,1711593540
1038,23,Ticks_Phase_5,72,9999,9999,9999,1712093304
1038,23,Ticks_Phase_5,73,9999,9999,9999,1712594040
1038,23,Ticks_Phase_5,74,9999,9999,9999,1713093728
1038,23,Ticks_Phase_5,75,9999,9999,9999,1713593416
1038,23,Ticks_Phase_5,76,9999,9999,9999,1714093184
1038,23,Ticks_Phase_5,77,9999,9999,9999,1714593916
1038,23,Ticks_Phase_5,78,9999,9999,9999,1715093604
1038,23,Ticks_Phase_5,79,9999,9999,9999,1715593292
1038,23,Ticks_Phase_5,80,9999,9999,9999,1716094028
1038,23,Ticks_Phase_5,81,9999,9999,9999,1716573248
1038,23,Ticks_Phase_5,82,9999,9999,9999,1717073976
1038,23,Ticks_Phase_5,83,9999,9999,9999,1717573740
1038,23,Ticks_Phase_5,84,9999,9999,9999,1718073436
1038,23,Ticks_Phase_5,85,9999,9999,9999,1718573124
1038,23,Ticks_Phase_5,86,9999,9999,9999,1719073856
1038,23,Ticks_Phase_5,87,9999,9999,9999,1719573616
1038,23,Ticks_Phase_5,88,9999,9999,9999,1720073324
1038,23,Ticks_Phase_5,89,9999,9999,9999,1720574060
1038,23,Ticks_Phase_5,90,9999,9999,9999,1721073728
1038,23,Ticks_Phase_5,91,9999,9999,9999,1721573492
1038,23,Ticks_Phase_5,92,9999,9999,9999,1722073176
1038,23,Ticks_Phase_5,93,9999,9999,9999,1722573912
1038,23,Ticks_Phase_5,94,9999,9999,9999,1723073604
1038,23,Ticks_Phase_5,95,9999,9999,9999,1723573384
1038,23,Ticks_Phase_5,96,9999,9999,9999,1724074096
1038,23,Ticks_Phase_5,97,9999,9999,9999,1724523592
1038,23,Ticks_Phase_5,98,9999,9999,9999,1725023356
1038,23,Ticks_Phase_5,99,9999,9999,9999,1725524092
1038,23,Ticks_Phase_5,100,9999,9999,9999,1726023780
1038,23,Ticks_Phase_5,101,9999,9999,9999,1726523460
1038,23,Ticks_Phase_5,102,9999,9999,9999,1727023228
1038,23,Ticks_Phase_5,103,9999,9999,9999,1727523964
1038,23,Ticks_Phase_5,104,9999,9999,9999,1728023652
1038,23,Ticks_Phase_5,105,9999,9999,9999,1728523336
1038,23,Ticks_Phase_5,106,9999,9999,9999,1729024072
1038,23,Ticks_Phase_5,107,9999,9999,9999,1729534020
1038,23,Ticks_Phase_5,108,9999,9999,9999,1730033780
1038,23,Ticks_Phase_5,109,9999,9999,9999,1730533472
1038,23,Ticks_Phase_5,110,9999,9999,9999,1731033164
1038,23,Ticks_Phase_5,111,9999,9999,9999,1731533900
1038,23,Ticks_Phase_5,112,9999,9999,9999,1732033588
1038,23,Ticks_Phase_5,113,9999,9999,9999,1732533348
1038,23,Ticks_Phase_5,114,9999,9999,9999,1733083212
1038,23,Ticks_Phase_5,115,9999,9999,9999,1733583952
1038,23,Ticks_Phase_5,116,9999,9999,9999,1734083644
1038,23,Ticks_Phase_5,117,9999,9999,9999,1734583404
1038,23,Ticks_Phase_5,118,9999,9999,9999,1735083084
1038,23,Ticks_Phase_5,119,9999,9999,9999,1735583820
1038,23,Ticks_Phase_5,120,9999,9999,9999,1736083516
1038,23,Ticks_Phase_5,121,9999,9999,9999,1736583272
1038,23,Ticks_Phase_5,122,9999,9999,9999,1737084004
1038,23,Ticks_Phase_5,123,9999,9999,9999,1737583672
1038,23,Ticks_Phase_5,124,9999,9999,9999,1738083432
1038,23,Ticks_Phase_5,125,9999,9999,9999,1738583120
1038,23,Ticks_Phase_5,126,9999,9999,9999,1739083856
1038,23,Ticks_Phase_5,127,9999,9999,9999,1739583544
1038,23,Ticks_Phase_5,128,9999,9999,9999,1740083312
1038,23,Ticks_Phase_5,129,9999,9999,9999,1740584040
1038,23,Ticks_Phase_5,130,9999,9999,9999,1741083732
1038,23,Ticks_Phase_5,131,9999,9999,9999,1741683788
1038,23,Ticks_Phase_5,132,9999,9999,9999,1742183536
1038,23,Ticks_Phase_5,133,9999,9999,9999,1742683224
1038,23,Ticks_Phase_5,134,9999,9999,9999,1743183980
1038,23,Ticks_Phase_5,135,9999,9999,9999,1743683668
1038,23,Ticks_Phase_5,136,9999,9999,9999,1744183356
1038,23,Ticks_Phase_5,137,9999,9999,9999,1744683112
1038,23,Ticks_Phase_5,138,9999,9999,9999,1745183852
1038,23,Ticks_Phase_5,139,9999,9999,9999,1745683540
1038,23,Ticks_Phase_5,140,9999,9999,9999,1746183224
1038,23,Ticks_Phase_5,141,9999,9999,9999,1746683956
1038,23,Ticks_Phase_5,142,9999,9999,9999,1747183720
1038,23,Ticks_Phase_5,143,9999,9999,9999,1747683408
1038,23,Ticks_Phase_5,144,9999,9999,9999,1748183096
1038,23,Ticks_Phase_5,145,9999,9999,9999,1748683832
1038,23,Ticks_Phase_5,146,9999,9999,9999,1749183596
1038,23,Ticks_Phase_5,147,9999,9999,9999,1749683324
1038,23,Ticks_Phase_5,148,9999,9999,9999,1750184020
1038,23,Ticks_Phase_5,149,9999,9999,9999,1750683708
1038,23,Ticks_Phase_5,150,9999,9999,9999,1751083104
1038,23,Ticks_Phase_5,151,9999,9999,9999,1751583840
1038,23,Ticks_Phase_5,152,9999,9999,9999,1752083524
1038,23,Ticks_Phase_5,153,9999,9999,9999,1752583288
1038,23,Ticks_Phase_5,154,9999,9999,9999,1753084028
1038,23,Ticks_Phase_5,155,9999,9999,9999,1753583712
1038,23,Ticks_Phase_5,156,9999,9999,9999,1754083400
1038,23,Ticks_Phase_5,157,9999,9999,9999,1754583096
1038,23,Ticks_Phase_5,158,9999,9999,9999,1755083832
1038,23,Ticks_Phase_5,159,9999,9999,9999,1755583592
1038,23,Ticks_Phase_5,160,9999,9999,9999,1756083284
1038,23,Ticks_Phase_5,161,9999,9999,9999,1756584012
1038,23,Ticks_Phase_5,162,9999,9999,9999,1757083772
1038,23,Ticks_Phase_5,163,9999,9999,9999,1757583468
1038,23,Ticks_Phase_5,164,9999,9999,9999,1758083152
1038,23,Ticks_Phase_5,165,9999,9999,9999,1758583892
1038,23,Ticks_Phase_5,166,9999,9999,9999,1759083632
1038,23,Ticks_Phase_5,167,9999,9999,9999,1759583312
1038,23,Ticks_Phase_5,168,9999,9999,9999,1760084048
1038,23,Ticks_Phase_5,169,9999,9999,9999,1760583736
1039,9,Ticks_ISO_T2_8,0,5,42,127,1771390244
1039,9,Ticks_ISO_T2_8,1,1,48,16,1771863416
1039,9,Ticks_ISO_T2_8,2,5,42,127,1772190124
1039,9,Ticks_ISO_T2_8,3,1,48,21,1772824740
1039,9,Ticks_ISO_T2_8,4,5,42,127,1772990008
1039,9,Ticks_ISO_T2_8,5,1,48,25,1773709468
1039,9,Ticks_ISO_T2_8,6,5,42,127,1773789460
1039,9,Ticks_ISO_T2_8,7,5,42,127,1774590248
1039,9,Ticks_ISO_T2_8,8,1,48,31,1774604956
1039,9,Ticks_ISO_T2_8,9,5,42,127,1775389980
1039,9,Ticks_ISO_T2_8,10,1,48,23,1775434988
1039,9,Ticks_ISO_T2_8,11,5,42,127,1776190012
1039,9,Ticks_ISO_T2_8,12,1,48,26,1776199040
1039,9,Ticks_ISO_T2_8,13,5,42,127,1776989520
1039,9,Ticks_ISO_T2_8,14,1,48,24,1776993764
1039,9,Ticks_ISO_T2_8,15,5,42,127,1777790328
1039,9,Ticks_ISO_T2_8,16,1,48,21,1777794640
1039,9,Ticks_ISO_T2_8,17,1,48,22,1778555164
1039,9,Ticks_ISO_T2_8,18,5,42,127,1778590052
1039,9,Ticks_ISO_T2_8,19,1,48,20,1779355268
1039,9,Ticks_ISO_T2_8,20,5,42,127,1779390012
1039,9,Ticks_ISO_T2_8,21,1,48,25,1780164500
1039,9,Ticks_ISO_T2_8,22,5,42,127,1780189668
1039,9,Ticks_ISO_T2_8,23,1,48,19,1780960120
1039,9,Ticks_ISO_T2_8,24,5,42,127,1780990224
1039,9,Ticks_ISO_T2_8,25,1,48,21,1781738092
1039,9,Ticks_ISO_T2_8,26,5,42,127,1781790108
1039,9,Ticks_ISO_T2_8,27,1,48,21,1782535356
1039,9,Ticks_ISO_T2_8,28,5,42,127,1782589916
1039,9,Ticks_ISO_T2_8,29,1,48,24,1783378024
1039,9,Ticks_ISO_T2_8,30,5,42,127,1783389424
1039,9,Ticks_ISO_T2_8,31,1,48,24,1784175160
1039,9,Ticks_ISO_T2_8,32,5,42,127,1784190304
1039,9,Ticks_ISO_T2_8,33,5,42,127,1784990044
1039,9,Ticks_ISO_T2_8,34,1,48,25,1784994136
1039,9,Ticks_ISO_T2_8,35,1,48,21,1785790076
1039,9,Ticks_ISO_T2_8,36,5,42,127,1785791336
1039,9,Ticks_ISO_T2_8,37,1,48,21,1786575704
1039,9,Ticks_ISO_T2_8,38,5,42,127,1786589652
1039,9,Ticks_ISO_T2_8,39,1,48,25,1787362196
1039,9,Ticks_ISO_T2_8,40,5,42,127,1787390208
1039,9,Ticks_ISO_T2_8,41,1,48,19,1788175844
1039,9,Ticks_ISO_T2_8,42,5,42,127,1788190016
1039,9,Ticks_ISO_T2_8,43,1,48,18,1788984752
1039,9,Ticks_ISO_T2_8,44,5,42,127,1788989948
1039,9,Ticks_ISO_T2_8,45,1,48,24,1789789836
1039,9,Ticks_ISO_T2_8,46,5,42,127,1789791024
1039,9,Ticks_ISO_T2_8,47,5,42,127,1790590416
1039,9,Ticks_ISO_T2_8,48,1,48,17,1790606248
1039,9,Ticks_ISO_T2_8,49,1,48,22,1791354728
1039,9,Ticks_ISO_T2_8,50,5,42,127,1791390144
1039,9,Ticks_ISO_T2_8,51,1,48,16,1792170472
1039,9,Ticks_ISO_T2_8,52,5,42,127,1792189876
1039,9,Ticks_ISO_T2_8,53,1,48,19,1792979556
1039,9,Ticks_ISO_T2_8,54,5,42,127,1792989760
1039,9,Ticks_ISO_T2_8,55,1,48,22,1793759020
1039,9,Ticks_ISO_T2_8,56,5,42,127,1793790172
1039,9,Ticks_ISO_T2_8,57,1,48,19,1794575808
1039,9,Ticks_ISO_T2_8,58,5,42,127,1794589976
1039,9,Ticks_ISO_T2_8,59,1,48,22,1795367836
1039,9,Ticks_ISO_T2_8,60,5,42,127,1795389784
1039,9,Ticks_ISO_T2_8,61,1,48,19,1796189824
1039,9,Ticks_ISO_T2_8,62,5,42,127,1796191084
1039,9,Ticks_ISO_T2_8,63,5,42,127,1796990180
1039,9,Ticks_ISO_T2_8,64,1,48,21,1797028080
1039,9,Ticks_ISO_T2_8,65,1,48,18,1797713256
1039,9,Ticks_ISO_T2_8,66,5,42,127,1797790056
1039,9,Ticks_ISO_T2_8,67,1,48,13,1798533508
1039,9,Ticks_ISO_T2_8,68,5,42,127,1798589788
1039,9,Ticks_ISO_T2_8,69,5,42,127,1799389828
1039,9,Ticks_ISO_T2_8,70,1,48,15,1799418008
1039,9,Ticks_ISO_T2_8,71,5,42,127,1800190384
1039,9,Ticks_ISO_T2_8,72,1,48,16,1800204724
1039,9,Ticks_ISO_T2_8,73,1,48,17,1800939140
1039,9,Ticks_ISO_T2_8,74,5,42,127,1800990036
1039,9,Ticks_ISO_T2_8,75,1,48,16,1801698108
1039,9,Ticks_ISO_T2_8,76,5,42,127,1801790728
1039,9,Ticks_ISO_T2_8,77,5,42,127,1802589956
1039,9,Ticks_ISO_T2_8,78,1,48,19,1802602276
1039,9,Ticks_ISO_T2_8,79,5,42,127,1803390240
1039,9,Ticks_ISO_T2_8,80,1,48,19,1803422376
1039,9,Ticks_ISO_T2_8,81,1,48,20,1804179688
1039,9,Ticks_ISO_T2_8,82,5,42,127,1804190040
1039,9,Ticks_ISO_T2_8,83,1,48,15,1804940748
1039,9,Ticks_ISO_T2_8,84,5,42,127,1804989776
1039,9,Ticks_ISO_T2_8,85,1,48,16,1805711156
1039,9,Ticks_ISO_T2_8,86,5,42,127,1805789508
1039,9,Ticks_ISO_T2_8,87,1,48,21,1806535728
1039,9,Ticks_ISO_T2_8,88,5,42,127,1806590436
1039,9,Ticks_ISO_T2_8,89,1,48,19,1807339576
1039,9,Ticks_ISO_T2_8,90,5,42,127,1807390020
1039,9,Ticks_ISO_T2_8,91,1,48,17,1808145064
1039,9,Ticks_ISO_T2_8,92,5,42,127,1808189680
1039,9,Ticks_ISO_T2_8,93,1,48,22,1808968736
1039,9,Ticks_ISO_T2_8,94,5,42,127,1808989560
1039,9,Ticks_ISO_T2_8,95,1,48,19,1809739744
1039,9,Ticks_ISO_T2_8,96,5,42,127,1809790516
1039,9,Ticks_ISO_T2_8,97,1,48,18,1810545484
1039,9,Ticks_ISO_T2_8,98,5,42,127,1810590028
1039,9,Ticks_ISO_T2_8,99,1,48,23,1811370428
1039,9,Ticks_ISO_T2_8,100,5,42,127,1811389760
1039,9,Ticks_ISO_T2_8,101,1,48,19,1812177120
1039,9,Ticks_ISO_T2_8,102,5,42,127,1812189496
1039,9,Ticks_ISO_T2_8,103,1,48,21,1812967508
1039,9,Ticks_ISO_T2_8,104,5,42,127,1812990572
1039,9,Ticks_ISO_T2_8,105,1,48,19,1813757588
1039,9,Ticks_ISO_T2_8,106,5,42,127,1813790012
1039,9,Ticks_ISO_T2_8,107,1,48,21,1814561284
1039,9,Ticks_ISO_T2_8,108,5,42,127,1814589668
1039,9,Ticks_ISO_T2_8,109,1,48,18,1815381588
1039,9,Ticks_ISO_T2_8,110,5,42,127,1815389624
1039,9,Ticks_ISO_T2_8,111,1,48,25,1816169128
1039,9,Ticks_ISO_T2_8,112,5,42,127,1816190504
1039,9,Ticks_ISO_T2_8,113,1,48,24,1816944428
1039,9,Ticks_ISO_T2_8,114,5,42,127,1816989940
1039,9,Ticks_ISO_T2_8,115,1,48,19,1817712748
1039,9,Ticks_ISO_T2_8,116,5,42,127,1817789748
1039,9,Ticks_ISO_T2_8,117,5,42,127,1818589636
1039,9,Ticks_ISO_T2_8,118,1,48,25,1818590528
1039,9,Ticks_ISO_T2_8,119,1,48,17,1819390716
1039,9,Ticks_ISO_T2_8,120,5,42,127,1819391904
1039,9,Ticks_ISO_T2_8,121,1,48,21,1820147928
1039,9,Ticks_ISO_T2_8,122,5,42,127,1820190144
1039,9,Ticks_ISO_T2_8,123,1,48,21,1820941900
1039,9,Ticks_ISO_T2_8,124,5,42,127,1820989728
1039,9,Ticks_ISO_T2_8,125,1,48,19,1821735796
1039,9,Ticks_ISO_T2_8,126,5,42,127,1821789688
1039,9,Ticks_ISO_T2_8,127,1,48,18,1822547572
1039,9,Ticks_ISO_T2_8,128,5,42,127,1822590268
1039,9,Ticks_ISO_T2_8,129,1,48,25,1823353388
1039,9,Ticks_ISO_T2_8,130,5,42,127,1823390596
1039,9,Ticks_ISO_T2_8,131,1,48,24,1824138316
1039,9,Ticks_ISO_T2_8,132,5,42,127,1824189732
1039,9,Ticks_ISO_T2_8,133,1,48,24,1824987192
1039,9,Ticks_ISO_T2_8,134,5,42,127,1824989540
1039,9,Ticks_ISO_T2_8,135,1,48,21,1825787372
1039,9,Ticks_ISO_T2_8,136,5,42,127,1825790244
1039,9,Ticks_ISO_T2_8,137,1,48,13,1826565336
1039,9,Ticks_ISO_T2_8,138,5,42,127,1826590128
1039,9,Ticks_ISO_T2_8,139,1,48,20,1827337768
1039,9,Ticks_ISO_T2_8,140,5,42,127,1827389788
1039,9,Ticks_ISO_T2_8,141,1,48,21,1828117308
1039,9,Ticks_ISO_T2_8,142,5,42,127,1828189596
1039,9,Ticks_ISO_T2_8,143,1,48,17,1828937764
1039,9,Ticks_ISO_T2_8,144,5,42,127,1828990328
1039,9,Ticks_ISO_T2_8,145,1,48,21,1829763328
1039,9,Ticks_ISO_T2_8,146,5,42,127,1829790208
1039,9,Ticks_ISO_T2_8,147,1,48,22,1830571804
1039,9,Ticks_ISO_T2_8,148,5,42,127,1830589792
1039,9,Ticks_ISO_T2_8,149,1,48,21,1831352396
1039,9,Ticks_ISO_T2_8,150,5,42,127,1831389528
1039,9,Ticks_ISO_T2_8,151,1,48,17,1832163796
1039,9,Ticks_ISO_T2_8,152,5,42,127,1832190308
1039,9,Ticks_ISO_T2_8,153,1,48,19,1832942136
1039,9,Ticks_ISO_T2_8,154,5,42,127,1832990264
1039,9,Ticks_ISO_T2_8,155,5,42,127,1833789780
1039,9,Ticks_ISO_T2_8,156,1,48,18,1833830896
1039,9,Ticks_ISO_T2_8,157,1,48,17,1834528364
1039,9,Ticks_ISO_T2_8,158,5,42,127,1834589432
1039,9,Ticks_ISO_T2_8,159,1,48,16,1835310372
1039,9,Ticks_ISO_T2_8,160,5,42,127,1835390312
1039,9,Ticks_ISO_T2_8,161,1,48,16,1836160840
1039,9,Ticks_ISO_T2_8,162,5,42,127,1836190120
1039,9,Ticks_ISO_T2_8,163,1,48,18,1836938660
1039,9,Ticks_ISO_T2_8,164,5,42,127,1836989928
1039,9,Ticks_ISO_T2_8,165,1,48,20,1837757168
1039,9,Ticks_ISO_T2_8,166,5,42,127,1837789440
1039,9,Ticks_ISO_T2_8,167,1,48,17,1838558172
1039,9,Ticks_ISO_T2_8,168,5,42,127,1838590296
1039,9,Ticks_ISO_T2_8,169,1,48,19,1839342420
1039,9,Ticks_ISO_T2_8,170,5,42,127,1839390028
1039,9,Ticks_ISO_T2_8,171,1,48,17,1840169236
1039,9,Ticks_ISO_T2_8,172,5,42,127,1840189984
1039,9,Ticks_ISO_T2_8,173,5,42,127,1840989580
1039,9,Ticks_ISO_T2_8,174,1,48,15,1841002868
1039,9,Ticks_ISO_T2_8,175,1,48,21,1841781664
1039,9,Ticks_ISO_T2_8,176,5,42,127,1841790228
1039,9,Ticks_ISO_T2_8,177,5,42,127,1842590192
1039,9,Ticks_ISO_T2_8,178,1,48,19,1842610736
1039,9,Ticks_ISO_T2_8,179,5,42,127,1843389928
1039,9,Ticks_ISO_T2_8,180,1,48,13,1843431264
1039,9,Ticks_ISO_T2_8,181,1,48,18,1844168080
1039,9,Ticks_ISO_T2_8,182,5,42,127,1844189504
1039,9,Ticks_ISO_T2_8,183,1,48,16,1844931084
1039,9,Ticks_ISO_T2_8,184,5,42,127,1844990212
1039,9,Ticks_ISO_T2_8,185,1,48,19,1845727308
1039,9,Ticks_ISO_T2_8,186,5,42,127,1845790168
1039,9,Ticks_ISO_T2_8,187,1,48,19,1846544016
1039,9,Ticks_ISO_T2_8,188,5,42,127,1846589900
1039,9,Ticks_ISO_T2_8,189,1,48,17,1847344424
1039,9,Ticks_ISO_T2_8,190,5,42,127,1847389560
1039,9,Ticks_ISO_T2_8,191,1,48,16,1848132036
1039,9,Ticks_ISO_T2_8,192,5,42,127,1848190360
1039,9,Ticks_ISO_T2_8,193,1,48,18,1848963884
1039,9,Ticks_ISO_T2_8,194,5,42,127,1848990096
1039,9,Ticks_ISO_T2_8,195,1,48,20,1849765192
1039,9,Ticks_ISO_T2_8,196,5,42,127,1849789980
1039,9,Ticks_ISO_T2_8,197,1,48,23,1850557744
1039,9,Ticks_ISO_T2_8,198,5,42,127,1850589416
1039,9,Ticks_ISO_T2_8,199,1,48,27,1851374156
1039,9,Ticks_ISO_T2_8,200,5,42,127,1851390272
1039,9,Ticks_ISO_T2_8,201,1,48,21,1852187892
1039,9,Ticks_ISO_T2_8,202,5,42,127,1852190004
1039,9,Ticks_ISO_T2_8,203,1,48,22,1852949768
1039,9,Ticks_ISO_T2_8,204,5,42,127,1852989964
1039,9,Ticks_ISO_T2_8,205,1,48,26,1853671560
1039,9,Ticks_ISO_T2_8,206,5,42,127,1853789680
1039,9,Ticks_ISO_T2_8,207,1,48,34,1854492308
1039,9,Ticks_ISO_T2_8,208,5,42,127,1854590188
1039,9,Ticks_ISO_T2_8,209,1,48,27,1855370004
1039,9,Ticks_ISO_T2_8,210,5,42,127,1855390012
1039,9,Ticks_ISO_T2_8,211,1,48,21,1856185220
1039,9,Ticks_ISO_T2_8,212,5,42,127,1856190044
1039,9,Ticks_ISO_T2_8,213,1,48,29,1856983908
1039,9,Ticks_ISO_T2_8,214,5,42,127,1856989552
1039,9,Ticks_ISO_T2_8,215,1,48,22,1857732480
1039,9,Ticks_ISO_T2_8,216,5,42,127,1857790260
1039,9,Ticks_ISO_T2_8,217,1,48,20,1858489952
1039,9,Ticks_ISO_T2_8,218,5,42,127,1858589976
1039,9,Ticks_ISO_T2_8,219,1,48,19,1859334564
1039,9,Ticks_ISO_T2_8,220,5,42,127,1859389724
1039,9,Ticks_ISO_T2_8,221,1,48,22,1860155912
1039,9,Ticks_ISO_T2_8,222,5,42,127,1860189756
1039,9,Ticks_ISO_T2_8,223,1,48,17,1860965524
1039,9,Ticks_ISO_T2_8,224,5,42,127,1860990264
1039,9,Ticks_ISO_T2_8,225,1,48,19,1861721796
1039,9,Ticks_ISO_T2_8,226,5,42,127,1861790144
1039,9,Ticks_ISO_T2_8,227,1,48,21,1862508620
1039,9,Ticks_ISO_T2_8,228,5,42,127,1862589656
1039,9,Ticks_ISO_T2_8,229,1,48,20,1863320164
1039,9,Ticks_ISO_T2_8,230,5,42,127,1863389836
1039,9,Ticks_ISO_T2_8,231,1,48,19,1864144876
1039,9,Ticks_ISO_T2_8,232,5,42,127,1864190240
1039,9,Ticks_ISO_T2_8,233,1,48,20,1864961888
1039,9,Ticks_ISO_T2_8,234,5,42,127,1864990200
1039,9,Ticks_ISO_T2_8,235,1,48,20,1865703508
1039,9,Ticks_ISO_T2_8,236,5,42,127,1865789860
1039,9,Ticks_ISO_T2_8,237,1,48,17,1866546252
1039,9,Ticks_ISO_T2_8,238,5,42,127,1866589668
1039,9,Ticks_ISO_T2_8,0,9999,9999,9999,1771387956
1039,9,Ticks_ISO_T2_8,1,9999,9999,9999,1772187764
1039,9,Ticks_ISO_T2_8,2,9999,9999,9999,1772987496
1039,9,Ticks_ISO_T2_8,3,9999,9999,9999,1773787248
1039,9,Ticks_ISO_T2_8,4,9999,9999,9999,1774587956
1039,9,Ticks_ISO_T2_8,5,9999,9999,9999,1775387768
1039,9,Ticks_ISO_T2_8,6,9999,9999,9999,1776187500
1039,9,Ticks_ISO_T2_8,7,9999,9999,9999,1776987232
1039,9,Ticks_ISO_T2_8,8,9999,9999,9999,1777787964
1039,9,Ticks_ISO_T2_8,9,9999,9999,9999,1778587764
1039,9,Ticks_ISO_T2_8,10,9999,9999,9999,1779387500
1039,9,Ticks_ISO_T2_8,11,9999,9999,9999,1780187232
1039,9,Ticks_ISO_T2_8,12,9999,9999,9999,1780988012
1039,9,Ticks_ISO_T2_8,13,9999,9999,9999,1781787748
1039,9,Ticks_ISO_T2_8,14,9999,9999,9999,1782587480
1039,9,Ticks_ISO_T2_8,15,9999,9999,9999,1783387212
1039,9,Ticks_ISO_T2_8,16,9999,9999,9999,1784188016
1039,9,Ticks_ISO_T2_8,17,9999,9999,9999,1784987756
1039,9,Ticks_ISO_T2_8,18,9999,9999,9999,1785787488
1039,9,Ticks_ISO_T2_8,19,9999,9999,9999,1786587216
1039,9,Ticks_ISO_T2_8,20,9999,9999,9999,1787387996
1039,9,Ticks_ISO_T2_8,21,9999,9999,9999,1788187728
1039,9,Ticks_ISO_T2_8,22,9999,9999,9999,1788987512
1039,9,Ticks_ISO_T2_8,23,9999,9999,9999,1789787252
1039,9,Ticks_ISO_T2_8,24,9999,9999,9999,1790587980
1039,9,Ticks_ISO_T2_8,25,9999,9999,9999,1791387708
1039,9,Ticks_ISO_T2_8,26,9999,9999,9999,1792187440
1039,9,Ticks_ISO_T2_8,27,9999,9999,9999,1792987248
1039,9,Ticks_ISO_T2_8,28,9999,9999,9999,1793787956
1039,9,Ticks_ISO_T2_8,29,9999,9999,9999,1794587764
1039,9,Ticks_ISO_T2_8,30,9999,9999,9999,1795387500
1039,9,Ticks_ISO_T2_8,31,9999,9999,9999,1796187236
1039,9,Ticks_ISO_T2_8,32,9999,9999,9999,1796987968
1039,9,Ticks_ISO_T2_8,33,9999,9999,9999,1797787696
1039,9,Ticks_ISO_T2_8,34,9999,9999,9999,1798587500
1039,9,Ticks_ISO_T2_8,35,9999,9999,9999,1799387244
1039,9,Ticks_ISO_T2_8,36,9999,9999,9999,1800188020
1039,9,Ticks_ISO_T2_8,37,9999,9999,9999,1800987748
1039,9,Ticks_ISO_T2_8,38,9999,9999,9999,1801787484
1039,9,Ticks_ISO_T2_8,39,9999,9999,9999,1802587220
1039,9,Ticks_ISO_T2_8,40,9999,9999,9999,1803387952
1039,9,Ticks_ISO_T2_8,41,9999,9999,9999,1804187752
1039,9,Ticks_ISO_T2_8,42,9999,9999,9999,1804987488
1039,9,Ticks_ISO_T2_8,43,9999,9999,9999,1805787220
1039,9,Ticks_ISO_T2_8,44,9999,9999,9999,1806588000
1039,9,Ticks_ISO_T2_8,45,9999,9999,9999,1807387732
1039,9,Ticks_ISO_T2_8,46,9999,9999,9999,1808187464
1039,9,Ticks_ISO_T2_8,47,9999,9999,9999,1808987200
1039,9,Ticks_ISO_T2_8,48,9999,9999,9999,1809788004
1039,9,Ticks_ISO_T2_8,49,9999,9999,9999,1810587740
1039,9,Ticks_ISO_T2_8,50,9999,9999,9999,1811387472
1039,9,Ticks_ISO_T2_8,51,9999,9999,9999,1812187208
1039,9,Ticks_ISO_T2_8,52,9999,9999,9999,1812987988
1039,9,Ticks_ISO_T2_8,53,9999,9999,9999,1813787724
1039,9,Ticks_ISO_T2_8,54,9999,9999,9999,1814587456
1039,9,Ticks_ISO_T2_8,55,9999,9999,9999,1815387188
1039,9,Ticks_ISO_T2_8,56,9999,9999,9999,1816187992
1039,9,Ticks_ISO_T2_8,57,9999,9999,9999,1816987728
1039,9,Ticks_ISO_T2_8,58,9999,9999,9999,1817787460
1039,9,Ticks_ISO_T2_8,59,9999,9999,9999,1818587200
1039,9,Ticks_ISO_T2_8,60,9999,9999,9999,1819387984
1039,9,Ticks_ISO_T2_8,61,9999,9999,9999,1820187708
1039,9,Ticks_ISO_T2_8,62,9999,9999,9999,1820987444
1039,9,Ticks_ISO_T2_8,63,9999,9999,9999,1821787248
1039,9,Ticks_ISO_T2_8,64,9999,9999,9999,1822587980
1039,9,Ticks_ISO_T2_8,65,9999,9999,9999,1823387712
1039,9,Ticks_ISO_T2_8,66,9999,9999,9999,1824187444
1039,9,Ticks_ISO_T2_8,67,9999,9999,9999,1824987252
1039,9,Ticks_ISO_T2_8,68,9999,9999,9999,1825787960
1039,9,Ticks_ISO_T2_8,69,9999,9999,9999,1826587764
1039,9,Ticks_ISO_T2_8,70,9999,9999,9999,1827387500
1039,9,Ticks_ISO_T2_8,71,9999,9999,9999,1828187232
1039,9,Ticks_ISO_T2_8,72,9999,9999,9999,1828987964
1039,9,Ticks_ISO_T2_8,73,9999,9999,9999,1829787700
1039,9,Ticks_ISO_T2_8,74,9999,9999,9999,1830587504
1039,9,Ticks_ISO_T2_8,75,9999,9999,9999,1831387240
1039,9,Ticks_ISO_T2_8,76,9999,9999,9999,1832188020
1039,9,Ticks_ISO_T2_8,77,9999,9999,9999,1832987752
1039,9,Ticks_ISO_T2_8,78,9999,9999,9999,1833787492
1039,9,Ticks_ISO_T2_8,79,9999,9999,9999,1834587220
1039,9,Ticks_ISO_T2_8,80,9999,9999,9999,1835387952
1039,9,Ticks_ISO_T2_8,81,9999,9999,9999,1836187756
1039,9,Ticks_ISO_T2_8,82,9999,9999,9999,1836987492
1039,9,Ticks_ISO_T2_8,83,9999,9999,9999,1837787228
1039,9,Ticks_ISO_T2_8,84,9999,9999,9999,1838588008
1039,9,Ticks_ISO_T2_8,85,9999,9999,9999,1839387740
1039,9,Ticks_ISO_T2_8,86,9999,9999,9999,1840187472
1039,9,Ticks_ISO_T2_8,87,9999,9999,9999,1840987216
1039,9,Ticks_ISO_T2_8,88,9999,9999,9999,1841788016
1039,9,Ticks_ISO_T2_8,89,9999,9999,9999,1842587752
1039,9,Ticks_ISO_T2_8,90,9999,9999,9999,1843387488
1039,9,Ticks_ISO_T2_8,91,9999,9999,9999,1844187216
1039,9,Ticks_ISO_T2_8,92,9999,9999,9999,1844987996
1039,9,Ticks_ISO_T2_8,93,9999,9999,9999,1845787732
1039,9,Ticks_ISO_T2_8,94,9999,9999,9999,1846587464
1039,9,Ticks_ISO_T2_8,95,9999,9999,9999,1847387196
1039,9,Ticks_ISO_T2_8,96,9999,9999,9999,1848188000
1039,9,Ticks_ISO_T2_8,97,9999,9999,9999,1848987736
1039,9,Ticks_ISO_T2_8,98,9999,9999,9999,1849787468
1039,9,Ticks_ISO_T2_8,99,9999,9999,9999,1850587204
1039,9,Ticks_ISO_T2_8,100,9999,9999,9999,1851387984
1039,9,Ticks_ISO_T2_8,101,9999,9999,9999,1852187756
1039,9,Ticks_ISO_T2_8,102,9999,9999,9999,1852987452
1039,9,Ticks_ISO_T2_8,103,9999,9999,9999,1853787244
1039,9,Ticks_ISO_T2_8,104,9999,9999,9999,1854587972
1039,9,Ticks_ISO_T2_8,105,9999,9999,9999,1855387724
1039,9,Ticks_ISO_T2_8,106,9999,9999,9999,1856187456
1039,9,Ticks_ISO_T2_8,107,9999,9999,9999,1856987192
1039,9,Ticks_ISO_T2_8,108,9999,9999,9999,1857787972
1039,9,Ticks_ISO_T2_8,109,9999,9999,9999,1858587764
1039,9,Ticks_ISO_T2_8,110,9999,9999,9999,1859387436
1039,9,Ticks_ISO_T2_8,111,9999,9999,9999,1860187244
1039,9,Ticks_ISO_T2_8,112,9999,9999,9999,1860987976
1039,9,Ticks_ISO_T2_8,113,9999,9999,9999,1861787708
1039,9,Ticks_ISO_T2_8,114,9999,9999,9999,1862587444
1039,9,Ticks_ISO_T2_8,115,9999,9999,9999,1863387248
1039,9,Ticks_ISO_T2_8,116,9999,9999,9999,1864187956
1039,9,Ticks_ISO_T2_8,117,9999,9999,9999,1864987764
1039,9,Ticks_ISO_T2_8,118,9999,9999,9999,1865787496
1039,9,Ticks_ISO_T2_8,119,9999,9999,9999,1866587232
10310,10,Ticks_ISO_T2_5,0,5,42,127,1875801584
10310,10,Ticks_ISO_T2_5,1,5,42,127,1876302272
10310,10,Ticks_ISO_T2_5,2,1,48,14,1876786012
10310,10,Ticks_ISO_T2_5,3,5,42,127,1876801832
10310,10,Ticks_ISO_T2_5,4,1,48,18,1877282568
10310,10,Ticks_ISO_T2_5,5,5,42,127,1877301528
10310,10,Ticks_ISO_T2_5,6,1,48,19,1877778076
10310,10,Ticks_ISO_T2_5,7,5,42,127,1877802344
10310,10,Ticks_ISO_T2_5,8,1,48,21,1878298192
10310,10,Ticks_ISO_T2_5,9,5,42,127,1878301964
10310,10,Ticks_ISO_T2_5,10,5,42,127,1878801816
10310,10,Ticks_ISO_T2_5,11,1,48,22,1878840012
10310,10,Ticks_ISO_T2_5,12,5,42,127,1879301584
10310,10,Ticks_ISO_T2_5,13,1,48,19,1879334996
10310,10,Ticks_ISO_T2_5,14,5,42,127,1879802472
10310,10,Ticks_ISO_T2_5,15,1,48,16,1879842168
10310,10,Ticks_ISO_T2_5,16,5,42,127,1880301944
10310,10,Ticks_ISO_T2_5,17,1,48,16,1880309476
10310,10,Ticks_ISO_T2_5,18,5,42,127,1880801640
10310,10,Ticks_ISO_T2_5,19,1,48,17,1880812012
10310,10,Ticks_ISO_T2_5,20,1,48,17,1881295680
10310,10,Ticks_ISO_T2_5,21,5,42,127,1881302672
10310,10,Ticks_ISO_T2_5,22,5,42,127,1881802000
10310,10,Ticks_ISO_T2_5,23,1,48,16,1881804972
10310,10,Ticks_ISO_T2_5,24,1,48,16,1882293504
10310,10,Ticks_ISO_T2_5,25,5,42,127,1882301912
10310,10,Ticks_ISO_T2_5,26,1,48,18,1882797980
10310,10,Ticks_ISO_T2_5,27,5,42,127,1882801456
10310,10,Ticks_ISO_T2_5,28,5,42,127,1883302500
10310,10,Ticks_ISO_T2_5,29,1,48,19,1883310708
10310,10,Ticks_ISO_T2_5,30,5,42,127,1883801976
10310,10,Ticks_ISO_T2_5,31,1,48,20,1883820728
10310,10,Ticks_ISO_T2_5,32,1,48,15,1884282780
10310,10,Ticks_ISO_T2_5,33,5,42,127,1884301592
10310,10,Ticks_ISO_T2_5,34,5,42,127,1884802636
10310,10,Ticks_ISO_T2_5,35,1,48,19,1884847792
10310,10,Ticks_ISO_T2_5,36,5,42,127,1885302332
10310,10,Ticks_ISO_T2_5,37,1,48,17,1885314504
10310,10,Ticks_ISO_T2_5,38,1,48,17,1885797480
10310,10,Ticks_ISO_T2_5,39,5,42,127,1885801796
10310,10,Ticks_ISO_T2_5,40,5,42,127,1886301472
10310,10,Ticks_ISO_T2_5,41,1,48,19,1886317856
10310,10,Ticks_ISO_T2_5,42,5,42,127,1886802584
10310,10,Ticks_ISO_T2_5,43,1,48,17,1886835352
10310,10,Ticks_ISO_T2_5,44,5,42,127,1887302060
10310,10,Ticks_ISO_T2_5,45,1,48,13,1887336968
10310,10,Ticks_ISO_T2_5,46,5,42,127,1887801804
10310,10,Ticks_ISO_T2_5,47,1,48,18,1887813976
10310,10,Ticks_ISO_T2_5,48,5,42,127,1888301276
10310,10,Ticks_ISO_T2_5,49,1,48,15,1888303216
10310,10,Ticks_ISO_T2_5,50,1,48,15,1888801412
10310,10,Ticks_ISO_T2_5,51,5,42,127,1888803056
10310,10,Ticks_ISO_T2_5,52,5,42,127,1889302008
10310,10,Ticks_ISO_T2_5,53,1,48,16,1889312604
10310,10,Ticks_ISO_T2_5,54,5,42,127,1889801556
10310,10,Ticks_ISO_T2_5,55,5,42,127,1890302540
10310,10,Ticks_ISO_T2_5,56,1,48,20,1890326756
10310,10,Ticks_ISO_T2_5,57,1,48,20,1890773920
10310,10,Ticks_ISO_T2_5,58,5,42,127,1890802004
10310,10,Ticks_ISO_T2_5,59,1,48,21,1891301704
10310,10,Ticks_ISO_T2_5,60,5,42,127,1891303192
10310,10,Ticks_ISO_T2_5,61,5,42,127,1891801400
10310,10,Ticks_ISO_T2_5,62,1,48,22,1891814168
10310,10,Ticks_ISO_T2_5,63,5,42,127,1892302368
10310,10,Ticks_ISO_T2_5,64,1,48,20,1892321348
10310,10,Ticks_ISO_T2_5,65,5,42,127,1892801836
10310,10,Ticks_ISO_T2_5,66,1,48,20,1892830316
10310,10,Ticks_ISO_T2_5,67,1,48,18,1893295584
10310,10,Ticks_ISO_T2_5,68,5,42,127,1893301524
10310,10,Ticks_ISO_T2_5,69,1,48,18,1893796548
10310,10,Ticks_ISO_T2_5,70,5,42,127,1893802492
10310,10,Ticks_ISO_T2_5,71,5,42,127,1894302268
10310,10,Ticks_ISO_T2_5,72,1,48,19,1894334036
10310,10,Ticks_ISO_T2_5,73,5,42,127,1894801816
10310,10,Ticks_ISO_T2_5,74,1,48,19,1894804860
10310,10,Ticks_ISO_T2_5,75,5,42,127,1895301432
10310,10,Ticks_ISO_T2_5,76,1,48,15,1895312104
10310,10,Ticks_ISO_T2_5,77,1,48,16,1895782064
10310,10,Ticks_ISO_T2_5,78,5,42,127,1895802168
10310,10,Ticks_ISO_T2_5,79,1,48,20,1896277496
10310,10,Ticks_ISO_T2_5,80,5,42,127,1896301788
10310,10,Ticks_ISO_T2_5,81,5,42,127,1896801688
10310,10,Ticks_ISO_T2_5,82,1,48,19,1896847396
10310,10,Ticks_ISO_T2_5,83,1,48,17,1897300764
10310,10,Ticks_ISO_T2_5,84,5,42,127,1897302272
10310,10,Ticks_ISO_T2_5,85,1,48,18,1897782712
10310,10,Ticks_ISO_T2_5,86,5,42,127,1897802192
10310,10,Ticks_ISO_T2_5,87,1,48,19,1898294528
10310,10,Ticks_ISO_T2_5,88,5,42,127,1898301888
10310,10,Ticks_ISO_T2_5,89,5,42,127,1898801444
10310,10,Ticks_ISO_T2_5,90,1,48,18,1898818324
10310,10,Ticks_ISO_T2_5,91,1,48,13,1899288756
10310,10,Ticks_ISO_T2_5,92,5,42,127,1899302248
10310,10,Ticks_ISO_T2_5,93,5,42,127,1899801876
10310,10,Ticks_ISO_T2_5,94,1,48,19,1899808812
10310,10,Ticks_ISO_T2_5,95,1,48,22,1900293380
10310,10,Ticks_ISO_T2_5,96,5,42,127,1900301788
10310,10,Ticks_ISO_T2_5,97,5,42,127,1900802460
10310,10,Ticks_ISO_T2_5,98,1,48,20,1900808352
10310,10,Ticks_ISO_T2_5,99,5,42,127,1901302232
10310,10,Ticks_ISO_T2_5,100,1,48,19,1901320240
10310,10,Ticks_ISO_T2_5,101,1,48,16,1901768004
10310,10,Ticks_ISO_T2_5,102,5,42,127,1901801696
10310,10,Ticks_ISO_T2_5,103,1,48,15,1902253632
10310,10,Ticks_ISO_T2_5,104,5,42,127,1902301688
10310,10,Ticks_ISO_T2_5,105,1,48,16,1902772176
10310,10,Ticks_ISO_T2_5,106,5,42,127,1902802204
10310,10,Ticks_ISO_T2_5,107,5,42,127,1903302128
10310,10,Ticks_ISO_T2_5,108,1,48,18,1903323800
10310,10,Ticks_ISO_T2_5,109,5,42,127,1903801604
10310,10,Ticks_ISO_T2_5,110,1,48,21,1903828508
10310,10,Ticks_ISO_T2_5,111,5,42,127,1904301372
10310,10,Ticks_ISO_T2_5,112,1,48,17,1904344056
10310,10,Ticks_ISO_T2_5,113,5,42,127,1904802116
10310,10,Ticks_ISO_T2_5,114,1,48,16,1904819068
10310,10,Ticks_ISO_T2_5,115,5,42,127,1905301960
10310,10,Ticks_ISO_T2_5,116,1,48,14,1905315104
10310,10,Ticks_ISO_T2_5,117,5,42,127,1905801504
10310,10,Ticks_ISO_T2_5,118,1,48,17,1905804248
10310,10,Ticks_ISO_T2_5,119,1,48,18,1906268896
10310,10,Ticks_ISO_T2_5,120,5,42,127,1906302164
10310,10,Ticks_ISO_T2_5,121,5,42,127,1906802164
10310,10,Ticks_ISO_T2_5,122,1,48,18,1906824132
10310,10,Ticks_ISO_T2_5,123,5,42,127,1907301612
10310,10,Ticks_ISO_T2_5,124,1,48,19,1907348740
10310,10,Ticks_ISO_T2_5,125,1,48,16,1907773668
10310,10,Ticks_ISO_T2_5,126,5,42,127,1907801448
10310,10,Ticks_ISO_T2_5,127,5,42,127,1908302124
10310,10,Ticks_ISO_T2_5,128,1,48,16,1908333840
10310,10,Ticks_ISO_T2_5,129,5,42,127,1908802112
10310,10,Ticks_ISO_T2_5,130,1,48,17,1908829696
10310,10,Ticks_ISO_T2_5,131,1,48,16,1909297360
10310,10,Ticks_ISO_T2_5,132,5,42,127,1909301656
10310,10,Ticks_ISO_T2_5,133,1,48,16,1909788600
10310,10,Ticks_ISO_T2_5,134,5,42,127,1909802324
10310,10,Ticks_ISO_T2_5,135,5,42,127,1910302096
10310,10,Ticks_ISO_T2_5,136,1,48,16,1910309932
10310,10,Ticks_ISO_T2_5,137,1,48,16,1910782452
10310,10,Ticks_ISO_T2_5,138,5,42,127,1910801860
10310,10,Ticks_ISO_T2_5,139,1,48,16,1911274068
10310,10,Ticks_ISO_T2_5,140,5,42,127,1911301404
10310,10,Ticks_ISO_T2_5,141,1,48,16,1911793212
10310,10,Ticks_ISO_T2_5,142,5,42,127,1911802148
10310,10,Ticks_ISO_T2_5,143,1,48,19,1912301700
10310,10,Ticks_ISO_T2_5,144,5,42,127,1912303188
10310,10,Ticks_ISO_T2_5,145,1,48,16,1912792972
10310,10,Ticks_ISO_T2_5,146,5,42,127,1912801536
10310,10,Ticks_ISO_T2_5,147,5,42,127,1913302360
10310,10,Ticks_ISO_T2_5,148,1,48,17,1913305776
10310,10,Ticks_ISO_T2_5,149,1,48,17,1913802204
10310,10,Ticks_ISO_T2_5,150,5,42,127,1913803540
10310,10,Ticks_ISO_T2_5,151,5,42,127,1914301900
10310,10,Ticks_ISO_T2_5,152,5,42,127,1914801396
10310,10,Ticks_ISO_T2_5,153,1,48,15,1914935632
10310,10,Ticks_ISO_T2_5,154,1,48,19,1915292896
10310,10,Ticks_ISO_T2_5,155,5,42,127,1915302352
10310,10,Ticks_ISO_T2_5,156,1,48,19,1915789296
10310,10,Ticks_ISO_T2_5,157,5,42,127,1915802044
10310,10,Ticks_ISO_T2_5,158,1,48,17,1916275228
10310,10,Ticks_ISO_T2_5,159,5,42,127,1916301668
10310,10,Ticks_ISO_T2_5,160,5,42,127,1916802340
10310,10,Ticks_ISO_T2_5,161,1,48,24,1916819524
10310,10,Ticks_ISO_T2_5,162,5,42,127,1917302036
10310,10,Ticks_ISO_T2_5,163,1,48,23,1917337844
10310,10,Ticks_ISO_T2_5,164,5,42,127,1917801956
10310,10,Ticks_ISO_T2_5,165,1,48,25,1917839032
10310,10,Ticks_ISO_T2_5,166,5,42,127,1918301476
10310,10,Ticks_ISO_T2_5,167,1,48,18,1918304296
10310,10,Ticks_ISO_T2_5,168,1,48,20,1918799260
10310,10,Ticks_ISO_T2_5,169,5,42,127,1918802208
10310,10,Ticks_ISO_T2_5,170,1,48,20,1919288032
10310,10,Ticks_ISO_T2_5,171,5,42,127,1919301980
10310,10,Ticks_ISO_T2_5,172,1,48,21,1919779876
10310,10,Ticks_ISO_T2_5,173,5,42,127,1919801896
10310,10,Ticks_ISO_T2_5,174,1,48,24,1920296996
10310,10,Ticks_ISO_T2_5,175,5,42,127,1920301292
10310,10,Ticks_ISO_T2_5,176,1,48,21,1920793248
10310,10,Ticks_ISO_T2_5,177,5,42,127,1920802108
10310,10,Ticks_ISO_T2_5,178,1,48,20,1921296984
10310,10,Ticks_ISO_T2_5,179,5,42,127,1921302252
10310,10,Ticks_ISO_T2_5,180,1,48,21,1921799072
10310,10,Ticks_ISO_T2_5,181,5,42,127,1921801648
10310,10,Ticks_ISO_T2_5,182,5,42,127,1922302296
10310,10,Ticks_ISO_T2_5,183,1,48,21,1922323068
10310,10,Ticks_ISO_T2_5,184,1,48,15,1922796264
10310,10,Ticks_ISO_T2_5,185,5,42,127,1922801984
10310,10,Ticks_ISO_T2_5,186,1,48,19,1923280700
10310,10,Ticks_ISO_T2_5,187,5,42,127,1923301976
10310,10,Ticks_ISO_T2_5,188,1,48,19,1923751896
10310,10,Ticks_ISO_T2_5,189,5,42,127,1923801524
10310,10,Ticks_ISO_T2_5,190,1,48,21,1924242316
10310,10,Ticks_ISO_T2_5,191,5,42,127,1924302192
10310,10,Ticks_ISO_T2_5,192,1,48,24,1924745680
10310,10,Ticks_ISO_T2_5,193,5,42,127,1924802184
10310,10,Ticks_ISO_T2_5,194,1,48,23,1925245080
10310,10,Ticks_ISO_T2_5,195,5,42,127,1925301732
10310,10,Ticks_ISO_T2_5,196,1,48,19,1925752924
10310,10,Ticks_ISO_T2_5,197,5,42,127,1925802400
10310,10,Ticks_ISO_T2_5,198,1,48,22,1926275360
10310,10,Ticks_ISO_T2_5,199,5,42,127,1926302168
10310,10,Ticks_ISO_T2_5,200,1,48,20,1926770340
10310,10,Ticks_ISO_T2_5,201,5,42,127,1926802016
10310,10,Ticks_ISO_T2_5,202,1,48,18,1927270084
10310,10,Ticks_ISO_T2_5,203,5,42,127,1927301784
10310,10,Ticks_ISO_T2_5,204,1,48,20,1927780704
10310,10,Ticks_ISO_T2_5,205,5,42,127,1927802152
10310,10,Ticks_ISO_T2_5,206,1,48,19,1928269624
10310,10,Ticks_ISO_T2_5,207,5,42,127,1928301920
10310,10,Ticks_ISO_T2_5,208,1,48,19,1928782780
10310,10,Ticks_ISO_T2_5,209,5,42,127,1928801888
10310,10,Ticks_ISO_T2_5,210,1,48,20,1929281808
10310,10,Ticks_ISO_T2_5,211,5,42,127,1929302336
10310,10,Ticks_ISO_T2_5,212,1,48,18,1929777688
10310,10,Ticks_ISO_T2_5,213,5,42,127,1929801960
10310,10,Ticks_ISO_T2_5,214,1,48,18,1930265716
10310,10,Ticks_ISO_T2_5,215,5,42,127,1930302024
10310,10,Ticks_ISO_T2_5,216,5,42,127,1930801800
10310,10,Ticks_ISO_T2_5,217,1,48,19,1930810156
10310,10,Ticks_ISO_T2_5,218,5,42,127,1931302168
10310,10,Ticks_ISO_T2_5,219,1,48,17,1931303136
10310,10,Ticks_ISO_T2_5,220,1,48,19,1931787764
10310,10,Ticks_ISO_T2_5,221,5,42,127,1931802080
10310,10,Ticks_ISO_T2_5,222,1,48,17,1932290748
10310,10,Ticks_ISO_T2_5,223,5,42,127,1932302000
10310,10,Ticks_ISO_T2_5,224,1,48,14,1932799640
10310,10,Ticks_ISO_T2_5,225,5,42,127,1932802368
10310,10,Ticks_ISO_T2_5,226,1,48,17,1933290432
10310,10,Ticks_ISO_T2_5,227,5,42,127,1933302064
10310,10,Ticks_ISO_T2_5,228,1,48,16,1933784072
10310,10,Ticks_ISO_T2_5,229,5,42,127,1933801980
10310,10,Ticks_ISO_T2_5,230,1,48,16,1934299024
10310,10,Ticks_ISO_T2_5,231,5,42,127,1934301824
10310,10,Ticks_ISO_T2_5,232,1,48,17,1934785708
10310,10,Ticks_ISO_T2_5,233,5,42,127,1934802268
10310,10,Ticks_ISO_T2_5,234,1,48,13,1935275156
10310,10,Ticks_ISO_T2_5,235,5,42,127,1935302040
10310,10,Ticks_ISO_T2_5,236,1,48,14,1935796012
10310,10,Ticks_ISO_T2_5,237,5,42,127,1935801808
10310,10,Ticks_ISO_T2_5,238,5,42,127,1936301364
10310,10,Ticks_ISO_T2_5,239,1,48,17,1936311208
10310,10,Ticks_ISO_T2_5,240,5,42,127,1936802104
10310,10,Ticks_ISO_T2_5,241,1,48,18,1936822724
10310,10,Ticks_ISO_T2_5,242,1,48,15,1937291436
10310,10,Ticks_ISO_T2_5,243,5,42,127,1937301864
10310,10,Ticks_ISO_T2_5,244,1,48,23,1937798684
10310,10,Ticks_ISO_T2_5,245,5,42,127,1937801708
10310,10,Ticks_ISO_T2_5,246,1,48,17,1938282748
10310,10,Ticks_ISO_T2_5,247,5,42,127,1938302300
10310,10,Ticks_ISO_T2_5,248,1,48,23,1938781592
10310,10,Ticks_ISO_T2_5,249,5,42,127,1938801996
10310,10,Ticks_ISO_T2_5,250,1,48,19,1939298420
10310,10,Ticks_ISO_T2_5,251,5,42,127,1939301740
10310,10,Ticks_ISO_T2_5,252,5,42,127,1939801592
10310,10,Ticks_ISO_T2_5,253,1,48,21,1939802556
10310,10,Ticks_ISO_T2_5,254,1,48,17,1940301732
10310,10,Ticks_ISO_T2_5,255,5,42,127,1940303076
10310,10,Ticks_ISO_T2_5,0,9999,9999,9999,1875799148
10310,10,Ticks_ISO_T2_5,1,9999,9999,9999,1876299836
10310,10,Ticks_ISO_T2_5,2,9999,9999,9999,1876799548
10310,10,Ticks_ISO_T2_5,3,9999,9999,9999,1877299316
10310,10,Ticks_ISO_T2_5,4,9999,9999,9999,1877799984
10310,10,Ticks_ISO_T2_5,5,9999,9999,9999,1878299752
10310,10,Ticks_ISO_T2_5,6,9999,9999,9999,1878799452
10310,10,Ticks_ISO_T2_5,7,9999,9999,9999,1879299148
10310,10,Ticks_ISO_T2_5,8,9999,9999,9999,1879799888
10310,10,Ticks_ISO_T2_5,9,9999,9999,9999,1880299584
10310,10,Ticks_ISO_T2_5,10,9999,9999,9999,1880799352
10310,10,Ticks_ISO_T2_5,11,9999,9999,9999,1881300088
10310,10,Ticks_ISO_T2_5,12,9999,9999,9999,1881799788
10310,10,Ticks_ISO_T2_5,13,9999,9999,9999,1882299476
10310,10,Ticks_ISO_T2_5,14,9999,9999,9999,1882799172
10310,10,Ticks_ISO_T2_5,15,9999,9999,9999,1883299916
10310,10,Ticks_ISO_T2_5,16,9999,9999,9999,1883799612
10310,10,Ticks_ISO_T2_5,17,9999,9999,9999,1884299380
10310,10,Ticks_ISO_T2_5,18,9999,9999,9999,1884800052
10310,10,Ticks_ISO_T2_5,19,9999,9999,9999,1885299820
10310,10,Ticks_ISO_T2_5,20,9999,9999,9999,1885799484
10310,10,Ticks_ISO_T2_5,21,9999,9999,9999,1886299184
10310,10,Ticks_ISO_T2_5,22,9999,9999,9999,1886799928
10310,10,Ticks_ISO_T2_5,23,9999,9999,9999,1887299696
10310,10,Ticks_ISO_T2_5,24,9999,9999,9999,1887799372
10310,10,Ticks_ISO_T2_5,25,9999,9999,9999,1888299064
10310,10,Ticks_ISO_T2_5,26,9999,9999,9999,1888799804
10310,10,Ticks_ISO_T2_5,27,9999,9999,9999,1889299572
10310,10,Ticks_ISO_T2_5,28,9999,9999,9999,1889799268
10310,10,Ticks_ISO_T2_5,29,9999,9999,9999,1890299956
10310,10,Ticks_ISO_T2_5,30,9999,9999,9999,1890799720
10310,10,Ticks_ISO_T2_5,31,9999,9999,9999,1891299420
10310,10,Ticks_ISO_T2_5,32,9999,9999,9999,1891799112
10310,10,Ticks_ISO_T2_5,33,9999,9999,9999,1892299856
10310,10,Ticks_ISO_T2_5,34,9999,9999,9999,1892799552
10310,10,Ticks_ISO_T2_5,35,9999,9999,9999,1893299316
10310,10,Ticks_ISO_T2_5,36,9999,9999,9999,1893800056
10310,10,Ticks_ISO_T2_5,37,9999,9999,9999,1894299756
10310,10,Ticks_ISO_T2_5,38,9999,9999,9999,1894799452
10310,10,Ticks_ISO_T2_5,39,9999,9999,9999,1895299148
10310,10,Ticks_ISO_T2_5,40,9999,9999,9999,1895799880
10310,10,Ticks_ISO_T2_5,41,9999,9999,9999,1896299576
10310,10,Ticks_ISO_T2_5,42,9999,9999,9999,1896799328
10310,10,Ticks_ISO_T2_5,43,9999,9999,9999,1897300068
10310,10,Ticks_ISO_T2_5,44,9999,9999,9999,1897799756
10310,10,Ticks_ISO_T2_5,45,9999,9999,9999,1898299452
10310,10,Ticks_ISO_T2_5,46,9999,9999,9999,1898799156
10310,10,Ticks_ISO_T2_5,47,9999,9999,9999,1899299888
10310,10,Ticks_ISO_T2_5,48,9999,9999,9999,1899799664
10310,10,Ticks_ISO_T2_5,49,9999,9999,9999,1900299352
10310,10,Ticks_ISO_T2_5,50,9999,9999,9999,1900800100
10310,10,Ticks_ISO_T2_5,51,9999,9999,9999,1901299796
10310,10,Ticks_ISO_T2_5,52,9999,9999,9999,1901799484
10310,10,Ticks_ISO_T2_5,53,9999,9999,9999,1902299252
10310,10,Ticks_ISO_T2_5,54,9999,9999,9999,1902799992
10310,10,Ticks_ISO_T2_5,55,9999,9999,9999,1903299696
10310,10,Ticks_ISO_T2_5,56,9999,9999,9999,1903799392
10310,10,Ticks_ISO_T2_5,57,9999,9999,9999,1904299088
10310,10,Ticks_ISO_T2_5,58,9999,9999,9999,1904799828
10310,10,Ticks_ISO_T2_5,59,9999,9999,9999,1905299524
10310,10,Ticks_ISO_T2_5,60,9999,9999,9999,1905799220
10310,10,Ticks_ISO_T2_5,61,9999,9999,9999,1906299952
10310,10,Ticks_ISO_T2_5,62,9999,9999,9999,1906799728
10310,10,Ticks_ISO_T2_5,63,9999,9999,9999,1907299400
10310,10,Ticks_ISO_T2_5,64,9999,9999,9999,1907799088
10310,10,Ticks_ISO_T2_5,65,9999,9999,9999,1908299836
10310,10,Ticks_ISO_T2_5,66,9999,9999,9999,1908799604
10310,10,Ticks_ISO_T2_5,67,9999,9999,9999,1909299292
10310,10,Ticks_ISO_T2_5,68,9999,9999,9999,1909800036
10310,10,Ticks_ISO_T2_5,69,9999,9999,9999,1910299736
10310,10,Ticks_ISO_T2_5,70,9999,9999,9999,1910799424
10310,10,Ticks_ISO_T2_5,71,9999,9999,9999,1911299192
10310,10,Ticks_ISO_T2_5,72,9999,9999,9999,1911799860
10310,10,Ticks_ISO_T2_5,73,9999,9999,9999,1912299636
10310,10,Ticks_ISO_T2_5,74,9999,9999,9999,1912799324
10310,10,Ticks_ISO_T2_5,75,9999,9999,9999,1913300072
10310,10,Ticks_ISO_T2_5,76,9999,9999,9999,1913799768
10310,10,Ticks_ISO_T2_5,77,9999,9999,9999,1914299464
10310,10,Ticks_ISO_T2_5,78,9999,9999,9999,1914799184
10310,10,Ticks_ISO_T2_5,79,9999,9999,9999,1915299916
10310,10,Ticks_ISO_T2_5,80,9999,9999,9999,1915799612
10310,10,Ticks_ISO_T2_5,81,9999,9999,9999,1916299380
10310,10,Ticks_ISO_T2_5,82,9999,9999,9999,1916800052
10310,10,Ticks_ISO_T2_5,83,9999,9999,9999,1917299824
10310,10,Ticks_ISO_T2_5,84,9999,9999,9999,1917799520
10310,10,Ticks_ISO_T2_5,85,9999,9999,9999,1918299188
10310,10,Ticks_ISO_T2_5,86,9999,9999,9999,1918799924
10310,10,Ticks_ISO_T2_5,87,9999,9999,9999,1919299692
10310,10,Ticks_ISO_T2_5,88,9999,9999,9999,1919799388
10310,10,Ticks_ISO_T2_5,89,9999,9999,9999,1920299080
10310,10,Ticks_ISO_T2_5,90,9999,9999,9999,1920799820
10310,10,Ticks_ISO_T2_5,91,9999,9999,9999,1921299520
10310,10,Ticks_ISO_T2_5,92,9999,9999,9999,1921799288
10310,10,Ticks_ISO_T2_5,93,9999,9999,9999,1922300012
10310,10,Ticks_ISO_T2_5,94,9999,9999,9999,1922799700
10310,10,Ticks_ISO_T2_5,95,9999,9999,9999,1923299392
10310,10,Ticks_ISO_T2_5,96,9999,9999,9999,1923799092
10310,10,Ticks_ISO_T2_5,97,9999,9999,9999,1924299832
10310,10,Ticks_ISO_T2_5,98,9999,9999,9999,1924799600
10310,10,Ticks_ISO_T2_5,99,9999,9999,9999,1925299296
10310,10,Ticks_ISO_T2_5,100,9999,9999,9999,1925800040
10310,10,Ticks_ISO_T2_5,101,9999,9999,9999,1926299732
10310,10,Ticks_ISO_T2_5,102,9999,9999,9999,1926799432
10310,10,Ticks_ISO_T2_5,103,9999,9999,9999,1927299124
10310,10,Ticks_ISO_T2_5,104,9999,9999,9999,1927799864
10310,10,Ticks_ISO_T2_5,105,9999,9999,9999,1928299636
10310,10,Ticks_ISO_T2_5,106,9999,9999,9999,1928799304
10310,10,Ticks_ISO_T2_5,107,9999,9999,9999,1929300048
10310,10,Ticks_ISO_T2_5,108,9999,9999,9999,1929799744
10310,10,Ticks_ISO_T2_5,109,9999,9999,9999,1930299440
10310,10,Ticks_ISO_T2_5,110,9999,9999,9999,1930799216
10310,10,Ticks_ISO_T2_5,111,9999,9999,9999,1931299956
10310,10,Ticks_ISO_T2_5,112,9999,9999,9999,1931799644
10310,10,Ticks_ISO_T2_5,113,9999,9999,9999,1932299340
10310,10,Ticks_ISO_T2_5,114,9999,9999,9999,1932800084
10310,10,Ticks_ISO_T2_5,115,9999,9999,9999,1933299776
10310,10,Ticks_ISO_T2_5,116,9999,9999,9999,1933799472
10310,10,Ticks_ISO_T2_5,117,9999,9999,9999,1934299240
10310,10,Ticks_ISO_T2_5,118,9999,9999,9999,1934799984
10310,10,Ticks_ISO_T2_5,119,9999,9999,9999,1935299680
10310,10,Ticks_ISO_T2_5,120,9999,9999,9999,1935799372
10310,10,Ticks_ISO_T2_5,121,9999,9999,9999,1936299076
10310,10,Ticks_ISO_T2_5,122,9999,9999,9999,1936799816
10310,10,Ticks_ISO_T2_5,123,9999,9999,9999,1937299504
10310,10,Ticks_ISO_T2_5,124,9999,9999,9999,1937799272
10310,10,Ticks_ISO_T2_5,125,9999,9999,9999,1938300016
10310,10,Ticks_ISO_T2_5,126,9999,9999,9999,1938799708
10310,10,Ticks_ISO_T2_5,127,9999,9999,9999,1939299380
10310,10,Ticks_ISO_T2_5,128,9999,9999,9999,1939799156
10310,10,Ticks_ISO_T2_5,129,9999,9999,9999,1940299824
10311,25,Jits_Pract_5,0,5,56,103,1986115112
10311,25,Jits_Pract_5,1,5,63,98,1986118212
10311,25,Jits_Pract_5,2,5,80,127,1986121332
10311,25,Jits_Pract_5,0,5,56,103,1986614912
10311,25,Jits_Pract_5,1,5,63,98,1986617940
10311,25,Jits_Pract_5,2,5,80,127,1986620984
10311,25,Jits_Pract_5,0,5,56,103,1987115332
10311,25,Jits_Pract_5,1,5,80,127,1987124552
10311,25,Jits_Pract_5,2,5,63,98,1987145088
10311,25,Jits_Pract_5,0,5,63,98,1987565028
10311,25,Jits_Pract_5,1,5,80,127,1987594704
10311,25,Jits_Pract_5,2,5,56,103,1987604976
10311,25,Jits_Pract_5,0,5,80,127,1988125216
10311,25,Jits_Pract_5,1,5,56,103,1988135412
10311,25,Jits_Pract_5,2,5,63,98,1988165012
10311,25,Jits_Pract_5,0,5,63,98,1988614628
10311,25,Jits_Pract_5,1,5,56,103,1988645200
10311,25,Jits_Pract_5,2,5,80,127,1988654352
10311,25,Jits_Pract_5,0,5,56,103,1989064984
10311,25,Jits_Pract_5,1,5,63,98,1989115188
10311,25,Jits_Pract_5,2,5,80,127,1989134676
10311,25,Jits_Pract_5,0,5,80,127,1989565172
10311,25,Jits_Pract_5,1,5,63,98,1989615080
10311,25,Jits_Pract_5,2,5,56,103,1989654868
10311,25,Jits_Pract_5,0,5,56,103,1990064476
10311,25,Jits_Pract_5,1,5,63,98,1990095272
10311,25,Jits_Pract_5,2,5,80,127,1990164804
10311,25,Jits_Pract_5,0,5,56,103,1990565116
10311,25,Jits_Pract_5,1,5,80,127,1990624612
10311,25,Jits_Pract_5,2,5,63,98,1990655408
10311,25,Jits_Pract_5,0,5,56,103,1991075128
10311,25,Jits_Pract_5,1,5,63,98,1991085396
10311,25,Jits_Pract_5,2,5,80,127,1991125336
10311,25,Jits_Pract_5,0,5,63,98,1991564904
10311,25,Jits_Pract_5,1,5,80,127,1991644480
10311,25,Jits_Pract_5,2,5,56,103,1991654972
10311,25,Jits_Pract_5,0,5,63,98,1992114760
10311,25,Jits_Pract_5,1,5,56,103,1992154548
10311,25,Jits_Pract_5,2,5,80,127,1992157540
10311,25,Jits_Pract_5,0,5,56,103,1992584668
10311,25,Jits_Pract_5,1,5,63,98,1992594936
10311,25,Jits_Pract_5,2,5,80,127,1992635024
10311,25,Jits_Pract_5,0,5,56,103,1993075040
10311,25,Jits_Pract_5,1,5,63,98,1993078108
10311,25,Jits_Pract_5,2,5,80,127,1993094676
10311,25,Jits_Pract_5,0,9999,9999,9999,1986362472
10311,25,Jits_Pract_5,1,9999,9999,9999,1986862200
10311,25,Jits_Pract_5,2,9999,9999,9999,1987362920
10311,25,Jits_Pract_5,3,9999,9999,9999,1987862588
10311,25,Jits_Pract_5,4,9999,9999,9999,1988362324
10311,25,Jits_Pract_5,5,9999,9999,9999,1988863040
10311,25,Jits_Pract_5,6,9999,9999,9999,1989362768
10311,25,Jits_Pract_5,7,9999,9999,9999,1989862516
10311,25,Jits_Pract_5,8,9999,9999,9999,1990362184
10311,25,Jits_Pract_5,9,9999,9999,9999,1990862904
10311,25,Jits_Pract_5,10,9999,9999,9999,1991362644
10311,25,Jits_Pract_5,11,9999,9999,9999,1991862392
10311,25,Jits_Pract_5,12,9999,9999,9999,1992363092
10311,25,Jits_Pract_5,13,9999,9999,9999,1992873084
10311,25,Jits_Pract_5,14,9999,9999,9999,1993372740
10312,24,Jits_Pract_8,0,5,56,103,2042480216
10312,24,Jits_Pract_8,1,5,63,98,2042483392
10312,24,Jits_Pract_8,2,5,80,127,2042486436
10312,24,Jits_Pract_8,0,5,56,103,2043279784
10312,24,Jits_Pract_8,1,5,63,98,2043283032
10312,24,Jits_Pract_8,2,5,80,127,2043286148
10312,24,Jits_Pract_8,0,5,80,127,2044020028
10312,24,Jits_Pract_8,1,1,48,30,2044033260
10312,24,Jits_Pract_8,2,5,63,98,2044110156
10312,24,Jits_Pract_8,3,5,56,103,2044120352
10312,24,Jits_Pract_8,0,1,48,31,2044788980
10312,24,Jits_Pract_8,1,5,56,103,2044840396
10312,24,Jits_Pract_8,2,5,63,98,2044849544
10312,24,Jits_Pract_8,3,5,80,127,2044939508
10312,24,Jits_Pract_8,0,1,48,33,2045583772
10312,24,Jits_Pract_8,1,5,63,98,2045610400
10312,24,Jits_Pract_8,2,5,80,127,2045639928
10312,24,Jits_Pract_8,3,5,56,103,2045669600
10312,24,Jits_Pract_8,0,1,48,30,2046373040
10312,24,Jits_Pract_8,1,5,56,103,2046410080
10312,24,Jits_Pract_8,2,5,80,127,2046509340
10312,24,Jits_Pract_8,3,5,63,98,2046559540
10312,24,Jits_Pract_8,0,5,56,103,2047209768
10312,24,Jits_Pract_8,1,1,48,28,2047214232
10312,24,Jits_Pract_8,2,5,80,127,2047259964
10312,24,Jits_Pract_8,3,5,63,98,2047300124
10312,24,Jits_Pract_8,0,1,48,25,2048009508
10312,24,Jits_Pract_8,1,5,80,127,2048040248
10312,24,Jits_Pract_8,2,5,63,98,2048069920
10312,24,Jits_Pract_8,3,5,56,103,2048139760
10312,24,Jits_Pract_8,0,1,48,29,2048823640
10312,24,Jits_Pract_8,1,5,63,98,2048869696
10312,24,Jits_Pract_8,2,5,56,103,2048899520
10312,24,Jits_Pract_8,3,5,80,127,2048959820
10312,24,Jits_Pract_8,0,5,56,103,2049610168
10312,24,Jits_Pract_8,1,5,80,127,2049613084
10312,24,Jits_Pract_8,2,1,48,27,2049635032
10312,24,Jits_Pract_8,3,5,63,98,2049730116
10312,24,Jits_Pract_8,0,1,48,25,2050399260
10312,24,Jits_Pract_8,1,5,56,103,2050490916
10312,24,Jits_Pract_8,2,5,80,127,2050529512
10312,24,Jits_Pract_8,3,5,63,98,2050540152
10312,24,Jits_Pract_8,0,1,48,29,2051244960
10312,24,Jits_Pract_8,1,5,56,103,2051249564
10312,24,Jits_Pract_8,2,5,80,127,2051269948
10312,24,Jits_Pract_8,3,5,63,98,2051349876
10312,24,Jits_Pract_8,0,5,80,127,2052040104
10312,24,Jits_Pract_8,1,1,48,24,2052091844
10312,24,Jits_Pract_8,2,5,56,103,2052140348
10312,24,Jits_Pract_8,3,5,63,98,2052149720
10312,24,Jits_Pract_8,0,5,63,98,2052810060
10312,24,Jits_Pract_8,1,5,80,127,2052869480
10312,24,Jits_Pract_8,2,5,56,103,2052879824
10312,24,Jits_Pract_8,3,1,48,21,2052885480
10312,24,Jits_Pract_8,0,1,48,20,2053595832
10312,24,Jits_Pract_8,1,5,56,103,2053610028
10312,24,Jits_Pract_8,2,5,63,98,2053679408
10312,24,Jits_Pract_8,3,5,80,127,2053682996
10312,24,Jits_Pract_8,0,9999,9999,9999,2042878076
10312,24,Jits_Pract_8,1,9999,9999,9999,2043677788
10312,24,Jits_Pract_8,2,9999,9999,9999,2044477504
10312,24,Jits_Pract_8,3,9999,9999,9999,2045277276
10312,24,Jits_Pract_8,4,9999,9999,9999,2046078020
10312,24,Jits_Pract_8,5,9999,9999,9999,2046877776
10312,24,Jits_Pract_8,6,9999,9999,9999,2047677528
10312,24,Jits_Pract_8,7,9999,9999,9999,2048477304
10312,24,Jits_Pract_8,8,9999,9999,9999,2049278032
10312,24,Jits_Pract_8,9,9999,9999,9999,2050077772
10312,24,Jits_Pract_8,10,9999,9999,9999,2050877548
10312,24,Jits_Pract_8,11,9999,9999,9999,2051677304
10312,24,Jits_Pract_8,12,9999,9999,9999,2052478056
10312,24,Jits_Pract_8,13,9999,9999,9999,2053277820
10312,24,Jits_Pract_8,14,9999,9999,9999,2054077564
10313,25,Jits_Pract_5,0,5,56,103,2063064440
10313,25,Jits_Pract_5,1,5,63,98,2063067692
10313,25,Jits_Pract_5,2,5,80,127,2063070808
10313,25,Jits_Pract_5,0,5,56,103,2063564240
10313,25,Jits_Pract_5,1,5,63,98,2063567416
10313,25,Jits_Pract_5,2,5,80,127,2063570684
10313,25,Jits_Pract_5,0,5,56,103,2064063836
10313,25,Jits_Pract_5,1,1,48,24,2064071908
10313,25,Jits_Pract_5,2,5,80,127,2064074024
10313,25,Jits_Pract_5,3,5,63,98,2064093512
10313,25,Jits_Pract_5,0,5,63,98,2064514396
10313,25,Jits_Pract_5,1,5,80,127,2064543996
10313,25,Jits_Pract_5,2,1,48,26,2064545860
10313,25,Jits_Pract_5,3,5,56,103,2064554408
10313,25,Jits_Pract_5,0,1,48,25,2064998160
10313,25,Jits_Pract_5,1,5,80,127,2065073564
10313,25,Jits_Pract_5,2,5,56,103,2065083688
10313,25,Jits_Pract_5,3,5,63,98,2065113644
10313,25,Jits_Pract_5,0,1,48,26,2065559744
10313,25,Jits_Pract_5,1,5,63,98,2065564120
10313,25,Jits_Pract_5,2,5,56,103,2065593720
10313,25,Jits_Pract_5,3,5,80,127,2065604064
10313,25,Jits_Pract_5,0,5,56,103,2066013600
10313,25,Jits_Pract_5,1,5,63,98,2066063680
10313,25,Jits_Pract_5,2,5,80,127,2066084284
10313,25,Jits_Pract_5,3,1,48,27,2066101572
10313,25,Jits_Pract_5,0,1,48,28,2066492820
10313,25,Jits_Pract_5,1,5,80,127,2066514344
10313,25,Jits_Pract_5,2,5,63,98,2066563376
10313,25,Jits_Pract_5,3,5,56,103,2066604272
10313,25,Jits_Pract_5,0,5,56,103,2067013892
10313,25,Jits_Pract_5,1,5,63,98,2067043816
10313,25,Jits_Pract_5,2,5,80,127,2067114248
10313,25,Jits_Pract_5,3,1,48,26,2067117292
10313,25,Jits_Pract_5,0,5,56,103,2067513676
10313,25,Jits_Pract_5,1,5,80,127,2067574016
10313,25,Jits_Pract_5,2,1,48,23,2067599756
10313,25,Jits_Pract_5,3,5,63,98,2067603908
10313,25,Jits_Pract_5,0,5,56,103,2068023720
10313,25,Jits_Pract_5,1,5,63,98,2068033840
10313,25,Jits_Pract_5,2,1,48,23,2068064556
10313,25,Jits_Pract_5,3,5,80,127,2068073944
10313,25,Jits_Pract_5,0,1,48,25,2068451068
10313,25,Jits_Pract_5,1,5,63,98,2068514192
10313,25,Jits_Pract_5,2,5,80,127,2068594000
10313,25,Jits_Pract_5,3,5,56,103,2068604420
10313,25,Jits_Pract_5,0,5,63,98,2069064020
10313,25,Jits_Pract_5,1,5,56,103,2069103980
10313,25,Jits_Pract_5,2,5,80,127,2069107124
10313,25,Jits_Pract_5,3,1,48,27,2069138260
10313,25,Jits_Pract_5,0,5,56,103,2069523844
10313,25,Jits_Pract_5,1,5,63,98,2069534116
10313,25,Jits_Pract_5,2,5,80,127,2069573904
10313,25,Jits_Pract_5,3,1,48,21,2069645892
10313,25,Jits_Pract_5,0,5,56,103,2070014256
10313,25,Jits_Pract_5,1,5,63,98,2070017396
10313,25,Jits_Pract_5,2,5,80,127,2070033816
10313,25,Jits_Pract_5,3,1,48,23,2070116744
10313,25,Jits_Pract_5,0,9999,9999,9999,2063311952
10313,25,Jits_Pract_5,1,9999,9999,9999,2063811676
10313,25,Jits_Pract_5,2,9999,9999,9999,2064311404
10313,25,Jits_Pract_5,3,9999,9999,9999,2064811108
10313,25,Jits_Pract_5,4,9999,9999,9999,2065311852
10313,25,Jits_Pract_5,5,9999,9999,9999,2065811548
10313,25,Jits_Pract_5,6,9999,9999,9999,2066311236
10313,25,Jits_Pract_5,7,9999,9999,9999,2066811992
10313,25,Jits_Pract_5,8,9999,9999,9999,2067311680
10313,25,Jits_Pract_5,9,9999,9999,9999,2067811388
10313,25,Jits_Pract_5,10,9999,9999,9999,2068311140
10313,25,Jits_Pract_5,11,9999,9999,9999,2068811888
10313,25,Jits_Pract_5,12,9999,9999,9999,2069311580
10313,25,Jits_Pract_5,13,9999,9999,9999,2069811268
10313,25,Jits_Pract_5,14,9999,9999,9999,2070312004
10314,18,Jits_Linear_8,0,5,56,103,2098769268
10314,18,Jits_Linear_8,1,5,63,98,2098772516
10314,18,Jits_Linear_8,2,5,80,127,2098775564
10314,18,Jits_Linear_8,0,5,56,103,2099588556
10314,18,Jits_Linear_8,1,5,63,98,2099591656
10314,18,Jits_Linear_8,2,5,80,127,2099594776
10314,18,Jits_Linear_8,0,5,80,127,2100349388
10314,18,Jits_Linear_8,1,1,48,43,2100376868
10314,18,Jits_Linear_8,2,1,48,34,2100419772
10314,18,Jits_Linear_8,3,5,63,98,2100439348
10314,18,Jits_Linear_8,4,5,56,103,2100448572
10314,18,Jits_Linear_8,0,5,56,103,2101189352
10314,18,Jits_Linear_8,1,1,48,48,2101193148
10314,18,Jits_Linear_8,2,5,63,98,2101199320
10314,18,Jits_Linear_8,3,5,80,127,2101289304
10314,18,Jits_Linear_8,0,5,63,98,2101978408
10314,18,Jits_Linear_8,1,5,80,127,2102009280
10314,18,Jits_Linear_8,2,5,56,103,2102039032
10314,18,Jits_Linear_8,3,1,48,42,2102068076
10314,18,Jits_Linear_8,0,1,48,40,2102792048
10314,18,Jits_Linear_8,1,5,56,103,2102798676
10314,18,Jits_Linear_8,2,5,80,127,2102899084
10314,18,Jits_Linear_8,3,5,63,98,2102949360
10314,18,Jits_Linear_8,0,5,56,103,2103608624
10314,18,Jits_Linear_8,1,1,48,35,2103617292
10314,18,Jits_Linear_8,2,5,80,127,2103658996
10314,18,Jits_Linear_8,3,5,63,98,2103699008
10314,18,Jits_Linear_8,0,1,48,34,2104419244
10314,18,Jits_Linear_8,1,5,80,127,2104449316
10314,18,Jits_Linear_8,2,5,63,98,2104479216
10314,18,Jits_Linear_8,3,5,56,103,2104548808
10314,18,Jits_Linear_8,0,1,48,33,2105230160
10314,18,Jits_Linear_8,1,5,63,98,2105289076
10314,18,Jits_Linear_8,2,5,56,103,2105318976
10314,18,Jits_Linear_8,3,5,80,127,2105379276
10314,18,Jits_Linear_8,0,1,48,31,2106034780
10314,18,Jits_Linear_8,1,5,56,103,2106038636
10314,18,Jits_Linear_8,2,5,80,127,2106041776
10314,18,Jits_Linear_8,3,5,63,98,2106158420
10314,18,Jits_Linear_8,0,1,48,31,2106852132
10314,18,Jits_Linear_8,1,5,56,103,2106919296
10314,18,Jits_Linear_8,2,5,80,127,2106959368
10314,18,Jits_Linear_8,3,5,63,98,2106968520
10314,18,Jits_Linear_8,0,1,48,29,2107577728
10314,18,Jits_Linear_8,1,5,56,103,2107689372
10314,18,Jits_Linear_8,2,5,80,127,2107708636
10314,18,Jits_Linear_8,3,5,63,98,2107788528
10314,18,Jits_Linear_8,0,5,80,127,2108478956
10314,18,Jits_Linear_8,1,1,48,32,2108540320
10314,18,Jits_Linear_8,2,5,56,103,2108579152
10314,18,Jits_Linear_8,3,5,63,98,2108589424
10314,18,Jits_Linear_8,0,5,63,98,2109248912
10314,18,Jits_Linear_8,1,5,80,127,2109309256
10314,18,Jits_Linear_8,2,5,56,103,2109318476
10314,18,Jits_Linear_8,3,1,48,31,2109347744
10314,18,Jits_Linear_8,0,5,56,103,2110048536
10314,18,Jits_Linear_8,1,1,48,32,2110087992
10314,18,Jits_Linear_8,2,5,63,98,2110119256
10314,18,Jits_Linear_8,3,5,80,127,2110122620
10314,18,Jits_Linear_8,0,1,48,27,2110829300
10314,18,Jits_Linear_8,1,5,63,98,2110879076
10314,18,Jits_Linear_8,2,5,56,103,2110929188
10314,18,Jits_Linear_8,3,5,80,127,2110932404
10314,18,Jits_Linear_8,0,5,56,103,2111628700
10314,18,Jits_Linear_8,1,5,80,127,2111631768
10314,18,Jits_Linear_8,2,1,48,29,2111632808
10314,18,Jits_Linear_8,3,5,63,98,2111718828
10314,18,Jits_Linear_8,0,1,48,29,2112441836
10314,18,Jits_Linear_8,1,5,63,98,2112459172
10314,18,Jits_Linear_8,2,5,56,103,2112549292
10314,18,Jits_Linear_8,3,5,80,127,2112579116
10314,18,Jits_Linear_8,0,5,56,103,2113239380
10314,18,Jits_Linear_8,1,1,48,28,2113267832
10314,18,Jits_Linear_8,2,5,63,98,2113339172
10314,18,Jits_Linear_8,3,5,80,127,2113368464
10314,18,Jits_Linear_8,0,5,63,98,2114049492
10314,18,Jits_Linear_8,1,5,56,103,2114058568
10314,18,Jits_Linear_8,2,1,48,33,2114065504
10314,18,Jits_Linear_8,3,5,80,127,2114149016
10314,18,Jits_Linear_8,0,5,63,98,2114849172
10314,18,Jits_Linear_8,1,1,48,30,2114882112
10314,18,Jits_Linear_8,2,5,56,103,2114928908
10314,18,Jits_Linear_8,3,5,80,127,2114932052
10314,18,Jits_Linear_8,0,5,80,127,2115588532
10314,18,Jits_Linear_8,1,5,63,98,2115608844
10314,18,Jits_Linear_8,2,5,56,103,2115669308
10314,18,Jits_Linear_8,3,1,48,27,2115671976
10314,18,Jits_Linear_8,0,1,48,29,2116384964
10314,18,Jits_Linear_8,1,5,56,103,2116408968
10314,18,Jits_Linear_8,2,5,63,98,2116429204
10314,18,Jits_Linear_8,3,5,80,127,2116432344
10314,18,Jits_Linear_8,0,1,48,28,2117103940
10314,18,Jits_Linear_8,1,5,63,98,2117128620
10314,18,Jits_Linear_8,2,5,80,127,2117208404
10314,18,Jits_Linear_8,3,5,56,103,2117218996
10314,18,Jits_Linear_8,0,5,63,98,2117929356
10314,18,Jits_Linear_8,1,5,56,103,2117948992
10314,18,Jits_Linear_8,2,1,48,26,2117970692
10314,18,Jits_Linear_8,3,5,80,127,2117999136
10314,18,Jits_Linear_8,0,5,80,127,2118708876
10314,18,Jits_Linear_8,1,1,48,29,2118733948
10314,18,Jits_Linear_8,2,5,63,98,2118748512
10314,18,Jits_Linear_8,3,5,56,103,2118768996
10314,18,Jits_Linear_8,0,5,56,103,2119518560
10314,18,Jits_Linear_8,1,1,48,31,2119524748
10314,18,Jits_Linear_8,2,5,63,98,2119529048
10314,18,Jits_Linear_8,3,5,80,127,2119549360
10314,18,Jits_Linear_8,0,5,56,103,2120218956
10314,18,Jits_Linear_8,1,1,48,28,2120282536
10314,18,Jits_Linear_8,2,5,63,98,2120309112
10314,18,Jits_Linear_8,3,5,80,127,2120368608
10314,18,Jits_Linear_8,0,1,48,33,2121012996
10314,18,Jits_Linear_8,1,5,80,127,2121018872
10314,18,Jits_Linear_8,2,5,56,103,2121029068
10314,18,Jits_Linear_8,3,5,63,98,2121098848
10314,18,Jits_Linear_8,0,1,48,30,2121771540
10314,18,Jits_Linear_8,1,5,63,98,2121818400
10314,18,Jits_Linear_8,2,5,80,127,2121908620
10314,18,Jits_Linear_8,3,5,56,103,2121919192
10314,18,Jits_Linear_8,0,5,63,98,2122518892
10314,18,Jits_Linear_8,1,5,80,127,2122569172
10314,18,Jits_Linear_8,2,1,48,30,2122599520
10314,18,Jits_Linear_8,3,5,56,103,2122628384
10314,18,Jits_Linear_8,0,5,56,103,2123309432
10314,18,Jits_Linear_8,1,1,48,25,2123331660
10314,18,Jits_Linear_8,2,5,80,127,2123358456
10314,18,Jits_Linear_8,3,5,63,98,2123378992
10314,18,Jits_Linear_8,0,5,56,103,2124038476
10314,18,Jits_Linear_8,1,1,48,29,2124067372
10314,18,Jits_Linear_8,2,5,80,127,2124099084
10314,18,Jits_Linear_8,3,5,63,98,2124168996
10314,18,Jits_Linear_8,0,5,56,103,2124799428
10314,18,Jits_Linear_8,1,5,80,127,2124829180
10314,18,Jits_Linear_8,2,1,48,32,2124852528
10314,18,Jits_Linear_8,3,5,63,98,2124858924
10314,18,Jits_Linear_8,0,5,56,103,2125598972
10314,18,Jits_Linear_8,1,1,48,29,2125604332
10314,18,Jits_Linear_8,2,5,80,127,2125618524
10314,18,Jits_Linear_8,3,5,63,98,2125679016
10314,18,Jits_Linear_8,0,1,48,30,2126382300
10314,18,Jits_Linear_8,1,5,80,127,2126438844
10314,18,Jits_Linear_8,2,5,56,103,2126449112
10314,18,Jits_Linear_8,3,5,63,98,2126459308
10314,18,Jits_Linear_8,0,5,56,103,2127149504
10314,18,Jits_Linear_8,1,5,80,127,2127189740
10314,18,Jits_Linear_8,2,1,48,31,2127194284
10314,18,Jits_Linear_8,3,5,63,98,2127219136
10314,18,Jits_Linear_8,0,5,56,103,2127869264
10314,18,Jits_Linear_8,1,5,63,98,2127898940
10314,18,Jits_Linear_8,2,1,48,30,2127931728
10314,18,Jits_Linear_8,3,5,80,127,2127938872
10314,18,Jits_Linear_8,0,5,80,127,2128568864
10314,18,Jits_Linear_8,1,1,48,28,2128600004
10314,18,Jits_Linear_8,2,5,63,98,2128618836
10314,18,Jits_Linear_8,3,5,56,103,2128639296
10314,18,Jits_Linear_8,0,1,48,27,2129298244
10314,18,Jits_Linear_8,1,5,56,103,2129348920
10314,18,Jits_Linear_8,2,5,80,127,2129418812
10314,18,Jits_Linear_8,3,5,63,98,2129478980
10314,18,Jits_Linear_8,0,5,80,127,2130089196
10314,18,Jits_Linear_8,1,1,48,27,2130106316
10314,18,Jits_Linear_8,2,5,63,98,2130178428
10314,18,Jits_Linear_8,3,5,56,103,2130198812
10314,18,Jits_Linear_8,0,5,63,98,2130849108
10314,18,Jits_Linear_8,1,1,48,29,2130864736
10314,18,Jits_Linear_8,2,5,56,103,2130868888
10314,18,Jits_Linear_8,3,5,80,127,2130908600
10314,18,Jits_Linear_8,0,5,80,127,2131548740
10314,18,Jits_Linear_8,1,5,63,98,2131569124
10314,18,Jits_Linear_8,2,1,48,28,2131582212
10314,18,Jits_Linear_8,3,5,56,103,2131648764
10314,18,Jits_Linear_8,0,5,63,98,2132278728
10314,18,Jits_Linear_8,1,1,48,29,2132341656
10314,18,Jits_Linear_8,2,5,56,103,2132389184
10314,18,Jits_Linear_8,3,5,80,127,2132392328
10314,18,Jits_Linear_8,0,1,48,30,2133029296
10314,18,Jits_Linear_8,1,5,63,98,2133038388
10314,18,Jits_Linear_8,2,5,56,103,2133048876
10314,18,Jits_Linear_8,3,5,80,127,2133051868
10314,18,Jits_Linear_8,0,1,48,30,2133703904
10314,18,Jits_Linear_8,1,5,56,103,2133759376
10314,18,Jits_Linear_8,2,5,80,127,2133879192
10314,18,Jits_Linear_8,3,5,63,98,2133919132
10314,18,Jits_Linear_8,0,5,56,103,2134508872
10314,18,Jits_Linear_8,1,1,48,29,2134537992
10314,18,Jits_Linear_8,2,5,80,127,2134588740
10314,18,Jits_Linear_8,3,5,63,98,2134609200
10314,18,Jits_Linear_8,0,5,56,103,2135239112
10314,18,Jits_Linear_8,1,1,48,27,2135284788
10314,18,Jits_Linear_8,2,5,63,98,2135348576
10314,18,Jits_Linear_8,3,5,80,127,2135351864
10314,18,Jits_Linear_8,0,5,56,103,2135998872
10314,18,Jits_Linear_8,1,1,48,33,2136007772
10314,18,Jits_Linear_8,2,5,80,127,2136028616
10314,18,Jits_Linear_8,3,5,63,98,2136049152
10314,18,Jits_Linear_8,0,5,63,98,2136708592
10314,18,Jits_Linear_8,1,5,56,103,2136718788
10314,18,Jits_Linear_8,2,5,80,127,2136728908
10314,18,Jits_Linear_8,3,1,48,36,2136742664
10314,18,Jits_Linear_8,0,5,80,127,2137419084
10314,18,Jits_Linear_8,1,1,48,24,2137455560
10314,18,Jits_Linear_8,2,5,56,103,2137469160
10314,18,Jits_Linear_8,3,5,63,98,2137509172
10314,18,Jits_Linear_8,0,5,80,127,2138158548
10314,18,Jits_Linear_8,1,5,63,98,2138178856
10314,18,Jits_Linear_8,2,1,48,33,2138195232
10314,18,Jits_Linear_8,3,5,56,103,2138229076
10314,18,Jits_Linear_8,0,5,80,127,2138888636
10314,18,Jits_Linear_8,1,1,48,28,2138892584
10314,18,Jits_Linear_8,2,5,56,103,2138919356
10314,18,Jits_Linear_8,3,5,63,98,2138988824
10314,18,Jits_Linear_8,0,1,48,25,2139599596
10314,18,Jits_Linear_8,1,5,56,103,2139658516
10314,18,Jits_Linear_8,2,5,80,127,2139668936
10314,18,Jits_Linear_8,3,5,63,98,2139708784
10314,18,Jits_Linear_8,0,5,56,103,2140289480
10314,18,Jits_Linear_8,1,5,63,98,2140308968
10314,18,Jits_Linear_8,2,1,48,30,2140349852
10314,18,Jits_Linear_8,3,5,80,127,2140378792
10314,18,Jits_Linear_8,0,5,63,98,2141028788
10314,18,Jits_Linear_8,1,1,48,29,2141039324
10314,18,Jits_Linear_8,2,5,80,127,2141089172
10314,18,Jits_Linear_8,3,5,56,103,2141108660
10314,18,Jits_Linear_8,0,5,80,127,2141729020
10314,18,Jits_Linear_8,1,1,48,31,2141757404
10314,18,Jits_Linear_8,2,5,56,103,2141758988
10314,18,Jits_Linear_8,3,5,63,98,2141788832
10314,18,Jits_Linear_8,0,5,56,103,2142438724
10314,18,Jits_Linear_8,1,1,48,29,2142452628
10314,18,Jits_Linear_8,2,5,63,98,2142499036
10314,18,Jits_Linear_8,3,5,80,127,2142558760
10314,18,Jits_Linear_8,0,1,48,33,2143167000
10314,18,Jits_Linear_8,1,5,80,127,2143168812
10314,18,Jits_Linear_8,2,5,56,103,2143189496
10314,18,Jits_Linear_8,3,5,63,98,2143258956
10314,18,Jits_Linear_8,0,1,48,29,2143870696
10314,18,Jits_Linear_8,1,5,80,127,2143878664
10314,18,Jits_Linear_8,2,5,63,98,2143899052
10314,18,Jits_Linear_8,3,5,56,103,2143928652
10314,18,Jits_Linear_8,0,1,48,31,2144548532
10314,18,Jits_Linear_8,1,5,80,127,2144568640
10314,18,Jits_Linear_8,2,5,63,98,2144589096
10314,18,Jits_Linear_8,3,5,56,103,2144649276
10314,18,Jits_Linear_8,0,5,80,127,2145268976
10314,18,Jits_Linear_8,1,1,48,25,2145270916
10314,18,Jits_Linear_8,2,5,56,103,2145368400
10314,18,Jits_Linear_8,3,5,63,98,2145399132
10314,18,Jits_Linear_8,0,5,63,98,2145959220
10314,18,Jits_Linear_8,1,5,80,127,2146008672
10314,18,Jits_Linear_8,2,1,48,21,2146013740
10314,18,Jits_Linear_8,3,5,56,103,2146028900
10314,18,Jits_Linear_8,0,5,80,127,2146698812
10314,18,Jits_Linear_8,1,1,48,24,2146702604
10314,18,Jits_Linear_8,2,5,56,103,2146729600
10314,18,Jits_Linear_8,3,5,63,98,2146732668
10314,18,Jits_Linear_8,0,1,48,31,2147379844
10314,18,Jits_Linear_8,1,5,63,98,2147428596
10314,18,Jits_Linear_8,2,5,56,103,2147468760
10314,18,Jits_Linear_8,3,5,80,127,2147489056
10314,18,Jits_Linear_8,0,5,80,127,2148068828
10314,18,Jits_Linear_8,1,1,48,34,2148125136
10314,18,Jits_Linear_8,2,5,63,98,2148148696
10314,18,Jits_Linear_8,3,5,56,103,2148188732
10314,18,Jits_Linear_8,0,5,63,98,2148779668
10314,18,Jits_Linear_8,1,1,48,33,2148841608
10314,18,Jits_Linear_8,2,5,80,127,2148859612
10314,18,Jits_Linear_8,3,5,56,103,2148878656
10314,18,Jits_Linear_8,0,5,56,103,2149508640
10314,18,Jits_Linear_8,1,5,63,98,2149518764
10314,18,Jits_Linear_8,2,1,48,26,2149541508
10314,18,Jits_Linear_8,3,5,80,127,2149558620
10314,18,Jits_Linear_8,0,5,56,103,2150118764
10314,18,Jits_Linear_8,1,5,80,127,2150121832
10314,18,Jits_Linear_8,2,1,48,27,2150229688
10314,18,Jits_Linear_8,3,5,63,98,2150259032
10314,18,Jits_Linear_8,0,5,56,103,2150798652
10314,18,Jits_Linear_8,1,5,63,98,2150888940
10314,18,Jits_Linear_8,2,1,48,31,2150907500
10314,18,Jits_Linear_8,3,5,80,127,2150958612
10314,18,Jits_Linear_8,0,1,48,33,2151544000
10314,18,Jits_Linear_8,1,5,63,98,2151558564
10314,18,Jits_Linear_8,2,5,80,127,2151561776
10314,18,Jits_Linear_8,3,5,56,103,2151618876
10314,18,Jits_Linear_8,0,1,48,35,2152252624
10314,18,Jits_Linear_8,1,5,80,127,2152279548
10314,18,Jits_Linear_8,2,5,56,103,2152298912
10314,18,Jits_Linear_8,3,5,63,98,2152309332
10314,18,Jits_Linear_8,0,5,56,103,2152869388
10314,18,Jits_Linear_8,1,5,63,98,2152878388
10314,18,Jits_Linear_8,2,5,80,127,2152949264
10314,18,Jits_Linear_8,3,1,48,32,2152950232
10314,18,Jits_Linear_8,0,5,80,127,2153549480
10314,18,Jits_Linear_8,1,5,56,103,2153599632
10314,18,Jits_Linear_8,2,1,48,25,2153616776
10314,18,Jits_Linear_8,3,5,63,98,2153648484
10314,18,Jits_Linear_8,0,1,48,27,2154298276
10314,18,Jits_Linear_8,1,5,56,103,2154309092
10314,18,Jits_Linear_8,2,5,63,98,2154319588
10314,18,Jits_Linear_8,3,5,80,127,2154359628
10314,18,Jits_Linear_8,0,5,56,103,2154928384
10314,18,Jits_Linear_8,1,1,48,27,2154963560
10314,18,Jits_Linear_8,2,5,63,98,2154968540
10314,18,Jits_Linear_8,3,5,80,127,2155018740
10314,18,Jits_Linear_8,0,5,80,127,2155559552
10314,18,Jits_Linear_8,1,5,56,103,2155608560
10314,18,Jits_Linear_8,2,1,48,25,2155617928
10314,18,Jits_Linear_8,3,5,63,98,2155628888
10314,18,Jits_Linear_8,0,5,80,127,2156239448
10314,18,Jits_Linear_8,1,1,48,21,2156272988
10314,18,Jits_Linear_8,2,5,63,98,2156298640
10314,18,Jits_Linear_8,3,5,56,103,2156378348
10314,18,Jits_Linear_8,0,5,80,127,2156888304
10314,18,Jits_Linear_8,1,5,56,103,2156929612
10314,18,Jits_Linear_8,2,1,48,21,2156947596
10314,18,Jits_Linear_8,3,5,63,98,2156949092
10314,18,Jits_Linear_8,0,1,48,26,2157597836
10314,18,Jits_Linear_8,1,5,56,103,2157609468
10314,18,Jits_Linear_8,2,5,80,127,2157618692
10314,18,Jits_Linear_8,3,5,63,98,2157658480
10314,18,Jits_Linear_8,0,1,48,28,2158270368
10314,18,Jits_Linear_8,1,5,56,103,2158338580
10314,18,Jits_Linear_8,2,5,63,98,2158379324
10314,18,Jits_Linear_8,3,5,80,127,2158382764
10314,18,Jits_Linear_8,0,5,63,98,2158889352
10314,18,Jits_Linear_8,1,5,80,127,2158929440
10314,18,Jits_Linear_8,2,5,56,103,2158998848
10314,18,Jits_Linear_8,3,1,48,29,2159010580
10314,18,Jits_Linear_8,0,5,63,98,2159538516
10314,18,Jits_Linear_8,1,5,56,103,2159618392
10314,18,Jits_Linear_8,2,1,48,21,2159666620
10314,18,Jits_Linear_8,3,5,80,127,2159678776
10314,18,Jits_Linear_8,0,5,80,127,2160209384
10314,18,Jits_Linear_8,1,1,48,20,2160252988
10314,18,Jits_Linear_8,2,5,63,98,2160258336
10314,18,Jits_Linear_8,3,5,56,103,2160289284
10314,18,Jits_Linear_8,0,5,56,103,2160858412
10314,18,Jits_Linear_8,1,1,48,27,2160901912
10314,18,Jits_Linear_8,2,5,63,98,2160908684
10314,18,Jits_Linear_8,3,5,80,127,2160919028
10314,18,Jits_Linear_8,0,1,48,25,2161521712
10314,18,Jits_Linear_8,1,5,56,103,2161529156
10314,18,Jits_Linear_8,2,5,63,98,2161638832
10314,18,Jits_Linear_8,3,5,80,127,2161659216
10314,18,Jits_Linear_8,0,5,63,98,2162178460
10314,18,Jits_Linear_8,1,1,48,21,2162227308
10314,18,Jits_Linear_8,2,5,80,127,2162228952
10314,18,Jits_Linear_8,3,5,56,103,2162318592
10314,18,Jits_Linear_8,0,5,63,98,2162818488
10314,18,Jits_Linear_8,1,5,80,127,2162849212
10314,18,Jits_Linear_8,2,1,48,25,2162888148
10314,18,Jits_Linear_8,3,5,56,103,2162939632
10314,18,Jits_Linear_8,0,5,63,98,2163468524
10314,18,Jits_Linear_8,1,5,56,103,2163479020
10314,18,Jits_Linear_8,2,1,48,24,2163482136
10314,18,Jits_Linear_8,3,5,80,127,2163579356
10314,18,Jits_Linear_8,0,1,48,25,2164140276
10314,18,Jits_Linear_8,1,5,63,98,2164219348
10314,18,Jits_Linear_8,2,5,80,127,2164249008
10314,18,Jits_Linear_8,3,5,56,103,2164278760
10314,18,Jits_Linear_8,0,1,48,24,2164878196
10314,18,Jits_Linear_8,1,5,80,127,2164879684
10314,18,Jits_Linear_8,2,5,63,98,2164889060
10314,18,Jits_Linear_8,3,5,56,103,2164918584
10314,18,Jits_Linear_8,0,5,80,127,2165419380
10314,18,Jits_Linear_8,1,5,63,98,2165438940
10314,18,Jits_Linear_8,2,5,56,103,2165489288
10314,18,Jits_Linear_8,3,1,48,29,2165548452
10314,18,Jits_Linear_8,0,5,63,98,2166089208
10314,18,Jits_Linear_8,1,5,80,127,2166148356
10314,18,Jits_Linear_8,2,1,48,24,2166157848
10314,18,Jits_Linear_8,3,5,56,103,2166168884
10314,18,Jits_Linear_8,0,5,63,98,2166689304
10314,18,Jits_Linear_8,1,5,56,103,2166739284
10314,18,Jits_Linear_8,2,5,80,127,2166748432
10314,18,Jits_Linear_8,3,1,48,19,2166774616
10314,18,Jits_Linear_8,0,5,56,103,2167358896
10314,18,Jits_Linear_8,1,1,48,22,2167361412
10314,18,Jits_Linear_8,2,5,80,127,2167369308
10314,18,Jits_Linear_8,3,5,63,98,2167469564
10314,18,Jits_Linear_8,0,5,80,127,2167958852
10314,18,Jits_Linear_8,1,5,63,98,2167969348
10314,18,Jits_Linear_8,2,1,48,23,2168007016
10314,18,Jits_Linear_8,3,5,56,103,2168118572
10314,18,Jits_Linear_8,0,5,63,98,2168599092
10314,18,Jits_Linear_8,1,5,80,127,2168638808
10314,18,Jits_Linear_8,2,1,48,20,2168679188
10314,18,Jits_Linear_8,3,5,56,103,2168718620
10314,18,Jits_Linear_8,0,5,56,103,2169218292
10314,18,Jits_Linear_8,1,1,48,22,2169316176
10314,18,Jits_Linear_8,2,5,80,127,2169318836
10314,18,Jits_Linear_8,3,5,63,98,2169339220
10314,18,Jits_Linear_8,0,5,80,127,2169908660
10314,18,Jits_Linear_8,1,5,56,103,2169918780
10314,18,Jits_Linear_8,2,1,48,23,2169944224
10314,18,Jits_Linear_8,3,5,63,98,2170008932
10314,18,Jits_Linear_8,0,5,56,103,2170539412
10314,18,Jits_Linear_8,1,5,63,98,2170558900
10314,18,Jits_Linear_8,2,1,48,24,2170567048
10314,18,Jits_Linear_8,3,5,80,127,2170638836
10314,18,Jits_Linear_8,0,5,63,98,2171108708
10314,18,Jits_Linear_8,1,1,48,16,2171197088
10314,18,Jits_Linear_8,2,5,56,103,2171198836
10314,18,Jits_Linear_8,3,5,80,127,2171201756
10314,18,Jits_Linear_8,0,5,56,103,2171759212
10314,18,Jits_Linear_8,1,1,48,20,2171800920
10314,18,Jits_Linear_8,2,5,80,127,2171819376
10314,18,Jits_Linear_8,3,5,63,98,2171828452
10314,18,Jits_Linear_8,0,1,48,26,2172412240
10314,18,Jits_Linear_8,1,5,80,127,2172428604
10314,18,Jits_Linear_8,2,5,56,103,2172439168
10314,18,Jits_Linear_8,3,5,63,98,2172442236
10314,18,Jits_Linear_8,0,5,56,103,2173009264
10314,18,Jits_Linear_8,1,5,80,127,2173018488
10314,18,Jits_Linear_8,2,5,63,98,2173039096
10314,18,Jits_Linear_8,3,1,48,25,2173044236
10314,18,Jits_Linear_8,0,5,63,98,2173599084
10314,18,Jits_Linear_8,1,1,48,23,2173652400
10314,18,Jits_Linear_8,2,5,80,127,2173658424
10314,18,Jits_Linear_8,3,5,56,103,2173708548
10314,18,Jits_Linear_8,0,1,48,21,2174274188
10314,18,Jits_Linear_8,1,5,63,98,2174298348
10314,18,Jits_Linear_8,2,5,56,103,2174308696
10314,18,Jits_Linear_8,3,5,80,127,2174358968
10314,18,Jits_Linear_8,0,5,63,98,2174808424
10314,18,Jits_Linear_8,1,5,80,127,2174829204
10314,18,Jits_Linear_8,2,5,56,103,2174839328
10314,18,Jits_Linear_8,3,1,48,21,2174910696
10314,18,Jits_Linear_8,0,5,63,98,2175418696
10314,18,Jits_Linear_8,1,5,80,127,2175422064
10314,18,Jits_Linear_8,2,1,48,20,2175445260
10314,18,Jits_Linear_8,3,5,56,103,2175458628
10314,18,Jits_Linear_8,0,1,48,19,2176009728
10314,18,Jits_Linear_8,1,5,63,98,2176098564
10314,18,Jits_Linear_8,2,5,80,127,2176129272
10314,18,Jits_Linear_8,3,5,56,103,2176138572
10314,18,Jits_Linear_8,0,5,56,103,2176658780
10314,18,Jits_Linear_8,1,1,48,23,2176682500
10314,18,Jits_Linear_8,2,5,80,127,2176688376
10314,18,Jits_Linear_8,3,5,63,98,2176719096
10314,18,Jits_Linear_8,0,1,48,22,2177286012
10314,18,Jits_Linear_8,1,5,63,98,2177359176
10314,18,Jits_Linear_8,2,5,56,103,2177399348
10314,18,Jits_Linear_8,3,5,80,127,2177402340
10314,18,Jits_Linear_8,0,5,80,127,2177859072
10314,18,Jits_Linear_8,1,5,56,103,2177938748
10314,18,Jits_Linear_8,2,1,48,20,2177962096
10314,18,Jits_Linear_8,3,5,63,98,2177989016
10314,18,Jits_Linear_8,0,5,80,127,2178438504
10314,18,Jits_Linear_8,1,5,56,103,2178459188
10314,18,Jits_Linear_8,2,5,63,98,2178549244
10314,18,Jits_Linear_8,3,1,48,22,2178558888
10314,18,Jits_Linear_8,0,5,80,127,2179078368
10314,18,Jits_Linear_8,1,1,48,19,2179099844
10314,18,Jits_Linear_8,2,5,63,98,2179118452
10314,18,Jits_Linear_8,3,5,56,103,2179159436
10314,18,Jits_Linear_8,0,5,63,98,2179649072
10314,18,Jits_Linear_8,1,1,48,21,2179695968
10314,18,Jits_Linear_8,2,5,80,127,2179709336
10314,18,Jits_Linear_8,3,5,56,103,2179739084
10314,18,Jits_Linear_8,0,5,56,103,2180249164
10314,18,Jits_Linear_8,1,1,48,16,2180277100
10314,18,Jits_Linear_8,2,5,80,127,2180278608
10314,18,Jits_Linear_8,3,5,63,98,2180368952
10314,18,Jits_Linear_8,0,5,56,103,2180849320
10314,18,Jits_Linear_8,1,1,48,19,2180888936
10314,18,Jits_Linear_8,2,5,80,127,2180958508
10314,18,Jits_Linear_8,3,5,63,98,2180990044
10314,18,Jits_Linear_8,0,1,48,15,2181472332
10314,18,Jits_Linear_8,1,5,56,103,2181489064
10314,18,Jits_Linear_8,2,5,63,98,2181549384
10314,18,Jits_Linear_8,3,5,80,127,2181579192
10314,18,Jits_Linear_8,0,5,56,103,2182049140
10314,18,Jits_Linear_8,1,1,48,20,2182059380
10314,18,Jits_Linear_8,2,5,63,98,2182118892
10314,18,Jits_Linear_8,3,5,80,127,2182139200
10314,18,Jits_Linear_8,0,5,80,127,2182609364
10314,18,Jits_Linear_8,1,5,63,98,2182628704
10314,18,Jits_Linear_8,2,1,48,14,2182661036
10314,18,Jits_Linear_8,3,5,56,103,2182678972
10314,18,Jits_Linear_8,0,5,63,98,2183209220
10314,18,Jits_Linear_8,1,5,80,127,2183218596
10314,18,Jits_Linear_8,2,1,48,21,2183221112
10314,18,Jits_Linear_8,3,5,56,103,2183268664
10314,18,Jits_Linear_8,0,5,63,98,2183789228
10314,18,Jits_Linear_8,1,1,48,19,2183811384
10314,18,Jits_Linear_8,2,5,80,127,2183858536
10314,18,Jits_Linear_8,3,5,56,103,2183878992
10314,18,Jits_Linear_8,0,1,48,19,2184392112
10314,18,Jits_Linear_8,1,5,63,98,2184399180
10314,18,Jits_Linear_8,2,5,80,127,2184402324
10314,18,Jits_Linear_8,3,5,56,103,2184469012
10314,18,Jits_Linear_8,0,5,80,127,2184928524
10314,18,Jits_Linear_8,1,5,56,103,2184949132
10314,18,Jits_Linear_8,2,5,63,98,2184959332
10314,18,Jits_Linear_8,3,1,48,20,2185012868
10314,18,Jits_Linear_8,0,5,56,103,2185529124
10314,18,Jits_Linear_8,1,1,48,16,2185541836
10314,18,Jits_Linear_8,2,5,63,98,2185618980
10314,18,Jits_Linear_8,3,5,80,127,2185622344
10314,18,Jits_Linear_8,0,5,80,127,2186078508
10314,18,Jits_Linear_8,1,5,56,103,2186089076
10314,18,Jits_Linear_8,2,5,63,98,2186109384
10314,18,Jits_Linear_8,3,1,48,21,2186172812
10314,18,Jits_Linear_8,0,5,63,98,2186649064
10314,18,Jits_Linear_8,1,5,80,127,2186709308
10314,18,Jits_Linear_8,2,5,56,103,2186718456
10314,18,Jits_Linear_8,3,1,48,19,2186732660
10314,18,Jits_Linear_8,0,1,48,16,2187279216
10314,18,Jits_Linear_8,1,5,63,98,2187289128
10314,18,Jits_Linear_8,2,5,80,127,2187318660
10314,18,Jits_Linear_8,3,5,56,103,2187358548
10314,18,Jits_Linear_8,0,5,56,103,2187849128
10314,18,Jits_Linear_8,1,5,80,127,2187859252
10314,18,Jits_Linear_8,2,1,48,18,2187875276
10314,18,Jits_Linear_8,3,5,63,98,2187899284
10314,18,Jits_Linear_8,0,5,80,127,2188378588
10314,18,Jits_Linear_8,1,1,48,20,2188459064
10314,18,Jits_Linear_8,2,5,56,103,2188460400
10314,18,Jits_Linear_8,3,5,63,98,2188468728
10314,18,Jits_Linear_8,0,5,80,127,2188988868
10314,18,Jits_Linear_8,1,1,48,21,2189030648
10314,18,Jits_Linear_8,2,5,56,103,2189068584
10314,18,Jits_Linear_8,3,5,63,98,2189079076
10314,18,Jits_Linear_8,0,5,80,127,2189508940
10314,18,Jits_Linear_8,1,5,56,103,2189559144
10314,18,Jits_Linear_8,2,1,48,19,2189606456
10314,18,Jits_Linear_8,3,5,63,98,2189609264
10314,18,Jits_Linear_8,0,5,56,103,2190128432
10314,18,Jits_Linear_8,1,5,63,98,2190131648
10314,18,Jits_Linear_8,2,5,80,127,2190178656
10314,18,Jits_Linear_8,3,1,48,19,2190179624
10314,18,Jits_Linear_8,0,1,48,13,2190703632
10314,18,Jits_Linear_8,1,5,56,103,2190709056
10314,18,Jits_Linear_8,2,5,63,98,2190739032
10314,18,Jits_Linear_8,3,5,80,127,2190749004
10314,18,Jits_Linear_8,0,5,63,98,2191179052
10314,18,Jits_Linear_8,1,5,56,103,2191248836
10314,18,Jits_Linear_8,2,1,48,18,2191268812
10314,18,Jits_Linear_8,3,5,80,127,2191299104
10314,18,Jits_Linear_8,0,5,63,98,2191768964
10314,18,Jits_Linear_8,1,5,56,103,2191779160
10314,18,Jits_Linear_8,2,5,80,127,2191782300
10314,18,Jits_Linear_8,3,1,48,15,2191805196
10314,18,Jits_Linear_8,0,5,80,127,2192268852
10314,18,Jits_Linear_8,1,1,48,16,2192328040
10314,18,Jits_Linear_8,2,5,56,103,2192329612
10314,18,Jits_Linear_8,3,5,63,98,2192419296
10314,18,Jits_Linear_8,0,5,80,127,2192818664
10314,18,Jits_Linear_8,1,5,56,103,2192919064
10314,18,Jits_Linear_8,2,1,48,21,2192957192
10314,18,Jits_Linear_8,3,5,63,98,2192958772
10314,18,Jits_Linear_8,0,5,56,103,2193418904
10314,18,Jits_Linear_8,1,5,63,98,2193439216
10314,18,Jits_Linear_8,2,5,80,127,2193479080
10314,18,Jits_Linear_8,3,1,48,21,2193492384
10314,18,Jits_Linear_8,0,5,63,98,2193938900
10314,18,Jits_Linear_8,1,5,56,103,2193959136
10314,18,Jits_Linear_8,2,1,48,17,2194022212
10314,18,Jits_Linear_8,3,5,80,127,2194058576
10314,18,Jits_Linear_8,0,5,63,98,2194469288
10314,18,Jits_Linear_8,1,1,48,17,2194515484
10314,18,Jits_Linear_8,2,5,80,127,2194579000
10314,18,Jits_Linear_8,3,5,56,103,2194608376
10314,18,Jits_Linear_8,0,5,56,103,2195029652
10314,18,Jits_Linear_8,1,5,63,98,2195059056
10314,18,Jits_Linear_8,2,5,80,127,2195109184
10314,18,Jits_Linear_8,3,1,48,15,2195110892
10314,18,Jits_Linear_8,0,5,63,98,2195539236
10314,18,Jits_Linear_8,1,5,56,103,2195568936
10314,18,Jits_Linear_8,2,5,80,127,2195619212
10314,18,Jits_Linear_8,3,1,48,18,2195664356
10314,18,Jits_Linear_8,0,5,56,103,2196108904
10314,18,Jits_Linear_8,1,5,63,98,2196129216
10314,18,Jits_Linear_8,2,5,80,127,2196208864
10314,18,Jits_Linear_8,0,5,63,98,2196618892
10314,18,Jits_Linear_8,1,5,56,103,2196678988
10314,18,Jits_Linear_8,2,5,80,127,2196708736
10314,18,Jits_Linear_8,3,1,48,15,2196775600
10314,18,Jits_Linear_8,0,5,56,103,2197199184
10314,18,Jits_Linear_8,1,5,80,127,2197258752
10314,18,Jits_Linear_8,2,1,48,14,2197288620
10314,18,Jits_Linear_8,3,5,63,98,2197298908
10314,18,Jits_Linear_8,0,5,63,98,2197709064
10314,18,Jits_Linear_8,1,5,56,103,2197768636
10314,18,Jits_Linear_8,2,1,48,20,2197797012
10314,18,Jits_Linear_8,3,5,80,127,2197839208
10314,18,Jits_Linear_8,0,5,56,103,2198318432
10314,18,Jits_Linear_8,1,1,48,27,2198325668
10314,18,Jits_Linear_8,2,5,63,98,2198328844
10314,18,Jits_Linear_8,3,5,80,127,2198332132
10314,18,Jits_Linear_8,0,5,63,98,2198788672
10314,18,Jits_Linear_8,1,5,56,103,2198848840
10314,18,Jits_Linear_8,2,5,80,127,2198851908
10314,18,Jits_Linear_8,3,1,48,26,2198889968
10314,18,Jits_Linear_8,0,5,63,98,2199298384
10314,18,Jits_Linear_8,1,5,80,127,2199329256
10314,18,Jits_Linear_8,2,5,56,103,2199348740
10314,18,Jits_Linear_8,3,1,48,23,2199409272
10314,18,Jits_Linear_8,0,5,56,103,2199828776
10314,18,Jits_Linear_8,1,1,48,20,2199874516
10314,18,Jits_Linear_8,2,5,63,98,2199879048
10314,18,Jits_Linear_8,3,5,80,127,2199958792
10314,18,Jits_Linear_8,0,5,80,127,2200328768
10314,18,Jits_Linear_8,1,5,63,98,2200368412
10314,18,Jits_Linear_8,2,5,56,103,2200389020
10314,18,Jits_Linear_8,3,1,48,17,2200405392
10314,18,Jits_Linear_8,0,1,48,23,2200859884
10314,18,Jits_Linear_8,1,5,56,103,2200919548
10314,18,Jits_Linear_8,2,5,80,127,2200928920
10314,18,Jits_Linear_8,3,5,63,98,2200949008
10314,18,Jits_Linear_8,0,5,56,103,2201418988
10314,18,Jits_Linear_8,1,1,48,25,2201451800
10314,18,Jits_Linear_8,2,5,63,98,2201469360
10314,18,Jits_Linear_8,3,5,80,127,2201498960
10314,18,Jits_Linear_8,0,5,56,103,2201889016
10314,18,Jits_Linear_8,1,5,63,98,2201899508
10314,18,Jits_Linear_8,2,5,80,127,2201948464
10314,18,Jits_Linear_8,3,1,48,24,2202004464
10314,18,Jits_Linear_8,0,5,56,103,2202399184
10314,18,Jits_Linear_8,1,5,80,127,2202402104
10314,18,Jits_Linear_8,2,1,48,23,2202484656
10314,18,Jits_Linear_8,3,5,63,98,2202559008
10314,18,Jits_Linear_8,0,5,63,98,2202928464
10314,18,Jits_Linear_8,1,1,48,18,2202977088
10314,18,Jits_Linear_8,2,5,56,103,2202999284
10314,18,Jits_Linear_8,3,5,80,127,2203039000
10314,18,Jits_Linear_8,0,1,48,18,2203448040
10314,18,Jits_Linear_8,1,5,63,98,2203479380
10314,18,Jits_Linear_8,2,5,56,103,2203568828
10314,18,Jits_Linear_8,3,5,80,127,2203571744
10314,18,Jits_Linear_8,0,5,56,103,2203968920
10314,18,Jits_Linear_8,1,1,48,18,2204051180
10314,18,Jits_Linear_8,2,5,63,98,2204059000
10314,18,Jits_Linear_8,3,5,80,127,2204069120
10314,18,Jits_Linear_8,0,5,56,103,2204449060
10314,18,Jits_Linear_8,1,5,63,98,2204499340
10314,18,Jits_Linear_8,2,5,80,127,2204529112
10314,18,Jits_Linear_8,3,1,48,20,2204595680
10314,18,Jits_Linear_8,0,5,63,98,2205028720
10314,18,Jits_Linear_8,1,1,48,20,2205037172
10314,18,Jits_Linear_8,2,5,80,127,2205038912
10314,18,Jits_Linear_8,3,5,56,103,2205099376
10314,18,Jits_Linear_8,0,5,63,98,2205448800
10314,18,Jits_Linear_8,1,5,80,127,2205508972
10314,18,Jits_Linear_8,2,5,56,103,2205548936
10314,18,Jits_Linear_8,3,1,48,15,2205551600
10314,18,Jits_Linear_8,0,1,48,16,2206010332
10314,18,Jits_Linear_8,1,5,56,103,2206048596
10314,18,Jits_Linear_8,2,5,80,127,2206069128
10314,18,Jits_Linear_8,3,5,63,98,2206088692
10314,18,Jits_Linear_8,0,1,48,16,2206462736
10314,18,Jits_Linear_8,1,5,63,98,2206468612
10314,18,Jits_Linear_8,2,5,56,103,2206488924
10314,18,Jits_Linear_8,3,5,80,127,2206528860
10314,18,Jits_Linear_8,0,5,63,98,2206978560
10314,18,Jits_Linear_8,1,5,80,127,2207009284
10314,18,Jits_Linear_8,2,5,56,103,2207028548
10314,18,Jits_Linear_8,3,1,48,20,2207068328
10314,18,Jits_Linear_8,0,5,80,127,2207448640
10314,18,Jits_Linear_8,1,1,48,19,2207459252
10314,18,Jits_Linear_8,2,5,56,103,2207498760
10314,18,Jits_Linear_8,3,5,63,98,2207559064
10314,18,Jits_Linear_8,0,5,63,98,2207928704
10314,18,Jits_Linear_8,1,1,48,16,2208007944
10314,18,Jits_Linear_8,2,5,56,103,2208048648
10314,18,Jits_Linear_8,3,5,80,127,2208079224
10314,18,Jits_Linear_8,0,5,80,127,2208459100
10314,18,Jits_Linear_8,1,5,63,98,2208478516
10314,18,Jits_Linear_8,2,5,56,103,2208549168
10314,18,Jits_Linear_8,3,1,48,18,2208631872
10314,18,Jits_Linear_8,0,5,63,98,2208969064
10314,18,Jits_Linear_8,1,5,56,103,2208979260
10314,18,Jits_Linear_8,2,5,80,127,2209059128
10314,18,Jits_Linear_8,3,1,48,17,2209079032
10314,18,Jits_Linear_8,0,5,56,103,2209519016
10314,18,Jits_Linear_8,1,5,80,127,2209548768
10314,18,Jits_Linear_8,2,5,63,98,2209558964
10314,18,Jits_Linear_8,3,1,48,16,2209587936
10314,18,Jits_Linear_8,0,9999,9999,9999,2099176528
10314,18,Jits_Linear_8,1,9999,9999,9999,2099996760
10314,18,Jits_Linear_8,2,9999,9999,9999,2100816972
10314,18,Jits_Linear_8,3,9999,9999,9999,2101636156
10314,18,Jits_Linear_8,4,9999,9999,9999,2102456444
10314,18,Jits_Linear_8,5,9999,9999,9999,2103266388
10314,18,Jits_Linear_8,6,9999,9999,9999,2104076404
10314,18,Jits_Linear_8,7,9999,9999,9999,2104886360
10314,18,Jits_Linear_8,8,9999,9999,9999,2105696328
10314,18,Jits_Linear_8,9,9999,9999,9999,2106506336
10314,18,Jits_Linear_8,10,9999,9999,9999,2107307068
10314,18,Jits_Linear_8,11,9999,9999,9999,2108117088
10314,18,Jits_Linear_8,12,9999,9999,9999,2108916848
10314,18,Jits_Linear_8,13,9999,9999,9999,2109716536
10314,18,Jits_Linear_8,14,9999,9999,9999,2110516352
10314,18,Jits_Linear_8,15,9999,9999,9999,2111306820
10314,18,Jits_Linear_8,16,9999,9999,9999,2112096320
10314,18,Jits_Linear_8,17,9999,9999,9999,2112886880
10314,18,Jits_Linear_8,18,9999,9999,9999,2113676372
10314,18,Jits_Linear_8,19,9999,9999,9999,2114466928
10314,18,Jits_Linear_8,20,9999,9999,9999,2115246148
10314,18,Jits_Linear_8,21,9999,9999,9999,2116026492
10314,18,Jits_Linear_8,22,9999,9999,9999,2116806768
10314,18,Jits_Linear_8,23,9999,9999,9999,2117587040
10314,18,Jits_Linear_8,24,9999,9999,9999,2118366268
10314,18,Jits_Linear_8,25,9999,9999,9999,2119136348
10314,18,Jits_Linear_8,26,9999,9999,9999,2119906376
10314,18,Jits_Linear_8,27,9999,9999,9999,2120676476
10314,18,Jits_Linear_8,28,9999,9999,9999,2121446500
10314,18,Jits_Linear_8,29,9999,9999,9999,2122216516
10314,18,Jits_Linear_8,30,9999,9999,9999,2122976336
10314,18,Jits_Linear_8,31,9999,9999,9999,2123736156
10314,18,Jits_Linear_8,32,9999,9999,9999,2124496964
10314,18,Jits_Linear_8,33,9999,9999,9999,2125256792
10314,18,Jits_Linear_8,34,9999,9999,9999,2126016628
10314,18,Jits_Linear_8,35,9999,9999,9999,2126766136
10314,18,Jits_Linear_8,36,9999,9999,9999,2127516748
10314,18,Jits_Linear_8,37,9999,9999,9999,2128266320
10314,18,Jits_Linear_8,38,9999,9999,9999,2129016936
10314,18,Jits_Linear_8,39,9999,9999,9999,2129766512
10314,18,Jits_Linear_8,40,9999,9999,9999,2130506832
10314,18,Jits_Linear_8,41,9999,9999,9999,2131246140
10314,18,Jits_Linear_8,42,9999,9999,9999,2131986524
10314,18,Jits_Linear_8,43,9999,9999,9999,2132726872
10314,18,Jits_Linear_8,44,9999,9999,9999,2133466224
10314,18,Jits_Linear_8,45,9999,9999,9999,2134196304
10314,18,Jits_Linear_8,46,9999,9999,9999,2134926460
10314,18,Jits_Linear_8,47,9999,9999,9999,2135656548
10314,18,Jits_Linear_8,48,9999,9999,9999,2136386616
10314,18,Jits_Linear_8,49,9999,9999,9999,2137116780
10314,18,Jits_Linear_8,50,9999,9999,9999,2137836596
10314,18,Jits_Linear_8,51,9999,9999,9999,2138556500
10314,18,Jits_Linear_8,52,9999,9999,9999,2139276408
10314,18,Jits_Linear_8,53,9999,9999,9999,2139996244
10314,18,Jits_Linear_8,54,9999,9999,9999,2140716104
10314,18,Jits_Linear_8,55,9999,9999,9999,2141426792
10314,18,Jits_Linear_8,56,9999,9999,9999,2142136408
10314,18,Jits_Linear_8,57,9999,9999,9999,2142847096
10314,18,Jits_Linear_8,58,9999,9999,9999,2143556712
10314,18,Jits_Linear_8,59,9999,9999,9999,2144266340
10314,18,Jits_Linear_8,60,9999,9999,9999,2144966748
10314,18,Jits_Linear_8,61,9999,9999,9999,2145666116
10314,18,Jits_Linear_8,62,9999,9999,9999,2146366588
10314,18,Jits_Linear_8,63,9999,9999,9999,2147066992
10314,18,Jits_Linear_8,64,9999,9999,9999,2147766376
10314,18,Jits_Linear_8,65,9999,9999,9999,2148456528
10314,18,Jits_Linear_8,66,9999,9999,9999,2149146748
10314,18,Jits_Linear_8,67,9999,9999,9999,2149836904
10314,18,Jits_Linear_8,68,9999,9999,9999,2150527052
10314,18,Jits_Linear_8,69,9999,9999,9999,2151216216
10314,18,Jits_Linear_8,70,9999,9999,9999,2151896184
10314,18,Jits_Linear_8,71,9999,9999,9999,2152576080
10314,18,Jits_Linear_8,72,9999,9999,9999,2153257056
10314,18,Jits_Linear_8,73,9999,9999,9999,2153936952
10314,18,Jits_Linear_8,74,9999,9999,9999,2154616936
10314,18,Jits_Linear_8,75,9999,9999,9999,2155286608
10314,18,Jits_Linear_8,76,9999,9999,9999,2155956316
10314,18,Jits_Linear_8,77,9999,9999,9999,2156627048
10314,18,Jits_Linear_8,78,9999,9999,9999,2157296744
10314,18,Jits_Linear_8,79,9999,9999,9999,2157966452
10314,18,Jits_Linear_8,80,9999,9999,9999,2158626908
10314,18,Jits_Linear_8,81,9999,9999,9999,2159286336
10314,18,Jits_Linear_8,82,9999,9999,9999,2159946868
10314,18,Jits_Linear_8,83,9999,9999,9999,2160606296
10314,18,Jits_Linear_8,84,9999,9999,9999,2161266780
10314,18,Jits_Linear_8,85,9999,9999,9999,2161916988
10314,18,Jits_Linear_8,86,9999,9999,9999,2162566232
10314,18,Jits_Linear_8,87,9999,9999,9999,2163216492
10314,18,Jits_Linear_8,88,9999,9999,9999,2163866704
10314,18,Jits_Linear_8,89,9999,9999,9999,2164516976
10314,18,Jits_Linear_8,90,9999,9999,9999,2165156936
10314,18,Jits_Linear_8,91,9999,9999,9999,2165796932
10314,18,Jits_Linear_8,92,9999,9999,9999,2166436976
10314,18,Jits_Linear_8,93,9999,9999,9999,2167076972
10314,18,Jits_Linear_8,94,9999,9999,9999,2167716924
10314,18,Jits_Linear_8,95,9999,9999,9999,2168346748
10314,18,Jits_Linear_8,96,9999,9999,9999,2168976452
10314,18,Jits_Linear_8,97,9999,9999,9999,2169606264
10314,18,Jits_Linear_8,98,9999,9999,9999,2170237020
10314,18,Jits_Linear_8,99,9999,9999,9999,2170866776
10314,18,Jits_Linear_8,100,9999,9999,9999,2171486284
10314,18,Jits_Linear_8,101,9999,9999,9999,2172106808
10314,18,Jits_Linear_8,102,9999,9999,9999,2172726364
10314,18,Jits_Linear_8,103,9999,9999,9999,2173346892
10314,18,Jits_Linear_8,104,9999,9999,9999,2173966456
10314,18,Jits_Linear_8,105,9999,9999,9999,2174576720
10314,18,Jits_Linear_8,106,9999,9999,9999,2175187044
10314,18,Jits_Linear_8,107,9999,9999,9999,2175796316
10314,18,Jits_Linear_8,108,9999,9999,9999,2176406604
10314,18,Jits_Linear_8,109,9999,9999,9999,2177016932
10314,18,Jits_Linear_8,110,9999,9999,9999,2177617016
10314,18,Jits_Linear_8,111,9999,9999,9999,2178217032
10314,18,Jits_Linear_8,112,9999,9999,9999,2178816064
10314,18,Jits_Linear_8,113,9999,9999,9999,2179416148
10314,18,Jits_Linear_8,114,9999,9999,9999,2180016244
10314,18,Jits_Linear_8,115,9999,9999,9999,2180607092
10314,18,Jits_Linear_8,116,9999,9999,9999,2181196920
10314,18,Jits_Linear_8,117,9999,9999,9999,2181786696
10314,18,Jits_Linear_8,118,9999,9999,9999,2182376504
10314,18,Jits_Linear_8,119,9999,9999,9999,2182966396
10314,18,Jits_Linear_8,120,9999,9999,9999,2183546944
10314,18,Jits_Linear_8,121,9999,9999,9999,2184126560
10314,18,Jits_Linear_8,122,9999,9999,9999,2184706168
10314,18,Jits_Linear_8,123,9999,9999,9999,2185286748
10314,18,Jits_Linear_8,124,9999,9999,9999,2185866324
10314,18,Jits_Linear_8,125,9999,9999,9999,2186436728
10314,18,Jits_Linear_8,126,9999,9999,9999,2187007064
10314,18,Jits_Linear_8,127,9999,9999,9999,2187576424
10314,18,Jits_Linear_8,128,9999,9999,9999,2188146776
10314,18,Jits_Linear_8,129,9999,9999,9999,2188716144
10314,18,Jits_Linear_8,130,9999,9999,9999,2189276228
10314,18,Jits_Linear_8,131,9999,9999,9999,2189836380
10314,18,Jits_Linear_8,132,9999,9999,9999,2190396528
10314,18,Jits_Linear_8,133,9999,9999,9999,2190956644
10314,18,Jits_Linear_8,134,9999,9999,9999,2191516784
10314,18,Jits_Linear_8,135,9999,9999,9999,2192066648
10314,18,Jits_Linear_8,136,9999,9999,9999,2192616524
10314,18,Jits_Linear_8,137,9999,9999,9999,2193166412
10314,18,Jits_Linear_8,138,9999,9999,9999,2193716300
10314,18,Jits_Linear_8,139,9999,9999,9999,2194266212
10314,18,Jits_Linear_8,140,9999,9999,9999,2194806876
10314,18,Jits_Linear_8,141,9999,9999,9999,2195346556
10314,18,Jits_Linear_8,142,9999,9999,9999,2195886176
10314,18,Jits_Linear_8,143,9999,9999,9999,2196426852
10314,18,Jits_Linear_8,144,9999,9999,9999,2196966484
10314,18,Jits_Linear_8,145,9999,9999,9999,2197496956
10314,18,Jits_Linear_8,146,9999,9999,9999,2198026320
10314,18,Jits_Linear_8,147,9999,9999,9999,2198556784
10314,18,Jits_Linear_8,148,9999,9999,9999,2199086136
10314,18,Jits_Linear_8,149,9999,9999,9999,2199616604
10314,18,Jits_Linear_8,150,9999,9999,9999,2200136812
10314,18,Jits_Linear_8,151,9999,9999,9999,2200656952
10314,18,Jits_Linear_8,152,9999,9999,9999,2201176172
10314,18,Jits_Linear_8,153,9999,9999,9999,2201696332
10314,18,Jits_Linear_8,154,9999,9999,9999,2202216548
10314,18,Jits_Linear_8,155,9999,9999,9999,2202726492
10314,18,Jits_Linear_8,156,9999,9999,9999,2203236448
10314,18,Jits_Linear_8,157,9999,9999,9999,2203746364
10314,18,Jits_Linear_8,158,9999,9999,9999,2204256384
10314,18,Jits_Linear_8,159,9999,9999,9999,2204766260
10314,18,Jits_Linear_8,160,9999,9999,9999,2205267060
10314,18,Jits_Linear_8,161,9999,9999,9999,2205766728
10314,18,Jits_Linear_8,162,9999,9999,9999,2206266488
10314,18,Jits_Linear_8,163,9999,9999,9999,2206766164
10314,18,Jits_Linear_8,164,9999,9999,9999,2207266888
10314,18,Jits_Linear_8,165,9999,9999,9999,2207756376
10314,18,Jits_Linear_8,166,9999,9999,9999,2208246856
10314,18,Jits_Linear_8,167,9999,9999,9999,2208736348
10314,18,Jits_Linear_8,168,9999,9999,9999,2209226828
10314,18,Jits_Linear_8,169,9999,9999,9999,2209716328
10315,19,Jits_Linear_5,0,5,56,103,2217854728
10315,19,Jits_Linear_5,1,5,63,98,2217857600
10315,19,Jits_Linear_5,2,5,80,127,2217860716
10315,19,Jits_Linear_5,0,5,56,103,2218333616
10315,19,Jits_Linear_5,1,5,63,98,2218336636
10315,19,Jits_Linear_5,2,5,80,127,2218339756
10315,19,Jits_Linear_5,0,5,56,103,2218813772
10315,19,Jits_Linear_5,1,1,48,31,2218815256
10315,19,Jits_Linear_5,2,5,80,127,2218824036
10315,19,Jits_Linear_5,3,5,63,98,2218843772
10315,19,Jits_Linear_5,0,5,63,98,2219243868
10315,19,Jits_Linear_5,1,1,48,34,2219269236
10315,19,Jits_Linear_5,2,5,80,127,2219273688
10315,19,Jits_Linear_5,3,5,56,103,2219284480
10315,19,Jits_Linear_5,0,1,48,33,2219715496
10315,19,Jits_Linear_5,1,5,80,127,2219783560
10315,19,Jits_Linear_5,2,5,56,103,2219793980
10315,19,Jits_Linear_5,3,5,63,98,2219823640
10315,19,Jits_Linear_5,0,5,63,98,2220263932
10315,19,Jits_Linear_5,1,1,48,24,2220265944
10315,19,Jits_Linear_5,2,5,56,103,2220293452
10315,19,Jits_Linear_5,3,5,80,127,2220303948
10315,19,Jits_Linear_5,0,5,56,103,2220704056
10315,19,Jits_Linear_5,1,5,63,98,2220754336
10315,19,Jits_Linear_5,2,1,48,25,2220758204
10315,19,Jits_Linear_5,3,5,80,127,2220773744
10315,19,Jits_Linear_5,0,1,48,23,2221189632
10315,19,Jits_Linear_5,1,5,80,127,2221203752
10315,19,Jits_Linear_5,2,5,63,98,2221253960
10315,19,Jits_Linear_5,3,5,56,103,2221294032
10315,19,Jits_Linear_5,0,5,56,103,2221694456
10315,19,Jits_Linear_5,1,1,48,21,2221719520
10315,19,Jits_Linear_5,2,5,63,98,2221723980
10315,19,Jits_Linear_5,3,5,80,127,2221793588
10315,19,Jits_Linear_5,0,1,48,19,2222179736
10315,19,Jits_Linear_5,1,5,56,103,2222183816
10315,19,Jits_Linear_5,2,5,80,127,2222244508
10315,19,Jits_Linear_5,3,5,63,98,2222273796
10315,19,Jits_Linear_5,0,5,56,103,2222683440
10315,19,Jits_Linear_5,1,1,48,19,2222689172
10315,19,Jits_Linear_5,2,5,63,98,2222693780
10315,19,Jits_Linear_5,3,5,80,127,2222733568
10315,19,Jits_Linear_5,0,1,48,21,2223160216
10315,19,Jits_Linear_5,1,5,63,98,2223174112
10315,19,Jits_Linear_5,2,5,80,127,2223253924
10315,19,Jits_Linear_5,3,5,56,103,2223264048
10315,19,Jits_Linear_5,0,1,48,20,2223691920
10315,19,Jits_Linear_5,1,5,63,98,2223723956
10315,19,Jits_Linear_5,2,5,56,103,2223763896
10315,19,Jits_Linear_5,3,5,80,127,2223766888
10315,19,Jits_Linear_5,0,5,56,103,2224183536
10315,19,Jits_Linear_5,1,5,63,98,2224194036
10315,19,Jits_Linear_5,2,1,48,19,2224223708
10315,19,Jits_Linear_5,3,5,80,127,2224233768
10315,19,Jits_Linear_5,0,5,56,103,2224674096
10315,19,Jits_Linear_5,1,5,63,98,2224677384
10315,19,Jits_Linear_5,2,5,80,127,2224693584
10315,19,Jits_Linear_5,3,1,48,20,2224699544
10315,19,Jits_Linear_5,0,1,48,19,2225158012
10315,19,Jits_Linear_5,1,5,80,127,2225194456
10315,19,Jits_Linear_5,2,5,56,103,2225203532
10315,19,Jits_Linear_5,3,5,63,98,2225274196
10315,19,Jits_Linear_5,0,5,63,98,2225694000
10315,19,Jits_Linear_5,1,1,48,18,2225704168
10315,19,Jits_Linear_5,2,5,56,103,2225713632
10315,19,Jits_Linear_5,3,5,80,127,2225794576
10315,19,Jits_Linear_5,0,1,48,19,2226189752
10315,19,Jits_Linear_5,1,5,56,103,2226214360
10315,19,Jits_Linear_5,2,5,80,127,2226254376
10315,19,Jits_Linear_5,3,5,63,98,2226264740
10315,19,Jits_Linear_5,0,5,80,127,2226713828
10315,19,Jits_Linear_5,1,1,48,20,2226724440
10315,19,Jits_Linear_5,2,5,63,98,2226743720
10315,19,Jits_Linear_5,3,5,56,103,2226783536
10315,19,Jits_Linear_5,0,1,48,18,2227229748
10315,19,Jits_Linear_5,1,5,56,103,2227244612
10315,19,Jits_Linear_5,2,5,63,98,2227273992
10315,19,Jits_Linear_5,3,5,80,127,2227324204
10315,19,Jits_Linear_5,0,5,80,127,2227754648
10315,19,Jits_Linear_5,1,1,48,17,2227794664
10315,19,Jits_Linear_5,2,5,56,103,2227795776
10315,19,Jits_Linear_5,3,5,63,98,2227803536
10315,19,Jits_Linear_5,0,5,80,127,2228254056
10315,19,Jits_Linear_5,1,5,63,98,2228293996
10315,19,Jits_Linear_5,2,1,48,13,2228310892
10315,19,Jits_Linear_5,3,5,56,103,2228354484
10315,19,Jits_Linear_5,0,5,56,103,2228774500
10315,19,Jits_Linear_5,1,5,80,127,2228783500
10315,19,Jits_Linear_5,2,1,48,16,2228827920
10315,19,Jits_Linear_5,3,5,63,98,2228864736
10315,19,Jits_Linear_5,0,5,80,127,2229293532
10315,19,Jits_Linear_5,1,1,48,16,2229346648
10315,19,Jits_Linear_5,2,5,63,98,2229353796
10315,19,Jits_Linear_5,3,5,56,103,2229383396
10315,19,Jits_Linear_5,0,5,56,103,2229813764
10315,19,Jits_Linear_5,1,1,48,18,2229850316
10315,19,Jits_Linear_5,2,5,80,127,2229873952
10315,19,Jits_Linear_5,3,5,63,98,2229913964
10315,19,Jits_Linear_5,0,1,48,18,2230364260
10315,19,Jits_Linear_5,1,5,56,103,2230394252
10315,19,Jits_Linear_5,2,5,63,98,2230403620
10315,19,Jits_Linear_5,3,5,80,127,2230406760
10315,19,Jits_Linear_5,0,5,80,127,2230873480
10315,19,Jits_Linear_5,1,1,48,19,2230879888
10315,19,Jits_Linear_5,2,5,63,98,2230963540
10315,19,Jits_Linear_5,3,5,56,103,2230973660
10315,19,Jits_Linear_5,0,5,56,103,2231403892
10315,19,Jits_Linear_5,1,5,63,98,2231406836
10315,19,Jits_Linear_5,2,1,48,19,2231408252
10315,19,Jits_Linear_5,3,5,80,127,2231411296
10315,19,Jits_Linear_5,0,1,48,17,2231905944
10315,19,Jits_Linear_5,1,5,80,127,2231953700
10315,19,Jits_Linear_5,2,5,63,98,2232004116
10315,19,Jits_Linear_5,3,5,56,103,2232033716
10315,19,Jits_Linear_5,0,1,48,18,2232458456
10315,19,Jits_Linear_5,1,5,56,103,2232463732
10315,19,Jits_Linear_5,2,5,80,127,2232473928
10315,19,Jits_Linear_5,3,5,63,98,2232543536
10315,19,Jits_Linear_5,0,1,48,17,2232951684
10315,19,Jits_Linear_5,1,5,56,103,2233004476
10315,19,Jits_Linear_5,2,5,63,98,2233023740
10315,19,Jits_Linear_5,3,5,80,127,2233084264
10315,19,Jits_Linear_5,0,1,48,18,2233495668
10315,19,Jits_Linear_5,1,5,80,127,2233533756
10315,19,Jits_Linear_5,2,5,63,98,2233603428
10315,19,Jits_Linear_5,3,5,56,103,2233623888
10315,19,Jits_Linear_5,0,1,48,15,2234051532
10315,19,Jits_Linear_5,1,5,80,127,2234093908
10315,19,Jits_Linear_5,2,5,56,103,2234104104
10315,19,Jits_Linear_5,3,5,63,98,2234114300
10315,19,Jits_Linear_5,0,1,48,16,2234571592
10315,19,Jits_Linear_5,1,5,80,127,2234624456
10315,19,Jits_Linear_5,2,5,56,103,2234643796
10315,19,Jits_Linear_5,3,5,63,98,2234713412
10315,19,Jits_Linear_5,0,1,48,17,2235108456
10315,19,Jits_Linear_5,1,5,56,103,2235174344
10315,19,Jits_Linear_5,2,5,80,127,2235203856
10315,19,Jits_Linear_5,3,5,63,98,2235224340
10315,19,Jits_Linear_5,0,5,63,98,2235713892
10315,19,Jits_Linear_5,1,1,48,17,2235760628
10315,19,Jits_Linear_5,2,5,56,103,2235774228
10315,19,Jits_Linear_5,3,5,80,127,2235803908
10315,19,Jits_Linear_5,0,1,48,16,2236231292
10315,19,Jits_Linear_5,1,5,63,98,2236253532
10315,19,Jits_Linear_5,2,5,80,127,2236256968
10315,19,Jits_Linear_5,3,5,56,103,2236343652
10315,19,Jits_Linear_5,0,5,56,103,2236823944
10315,19,Jits_Linear_5,1,5,63,98,2236853548
10315,19,Jits_Linear_5,2,5,80,127,2236893564
10315,19,Jits_Linear_5,3,1,48,20,2236921244
10315,19,Jits_Linear_5,0,5,63,98,2237373700
10315,19,Jits_Linear_5,1,1,48,19,2237374664
10315,19,Jits_Linear_5,2,5,56,103,2237413632
10315,19,Jits_Linear_5,3,5,80,127,2237434316
10315,19,Jits_Linear_5,0,5,63,98,2237934000
10315,19,Jits_Linear_5,1,1,48,27,2237952484
10315,19,Jits_Linear_5,2,5,56,103,2237973860
10315,19,Jits_Linear_5,3,5,80,127,2237984204
10315,19,Jits_Linear_5,0,5,80,127,2238464332
10315,19,Jits_Linear_5,1,1,48,29,2238496740
10315,19,Jits_Linear_5,2,5,63,98,2238534084
10315,19,Jits_Linear_5,3,5,56,103,2238553596
10315,19,Jits_Linear_5,0,5,56,103,2239014528
10315,19,Jits_Linear_5,1,5,80,127,2239033644
10315,19,Jits_Linear_5,2,1,48,26,2239060876
10315,19,Jits_Linear_5,3,5,63,98,2239073604
10315,19,Jits_Linear_5,0,5,63,98,2239583560
10315,19,Jits_Linear_5,1,1,48,25,2239598436
10315,19,Jits_Linear_5,2,5,80,127,2239604160
10315,19,Jits_Linear_5,3,5,56,103,2239644248
10315,19,Jits_Linear_5,0,1,48,23,2240139696
10315,19,Jits_Linear_5,1,5,63,98,2240143776
10315,19,Jits_Linear_5,2,5,56,103,2240164312
10315,19,Jits_Linear_5,3,5,80,127,2240173388
10315,19,Jits_Linear_5,0,1,48,25,2240643956
10315,19,Jits_Linear_5,1,5,80,127,2240703844
10315,19,Jits_Linear_5,2,5,56,103,2240724232
10315,19,Jits_Linear_5,3,5,63,98,2240754264
10315,19,Jits_Linear_5,0,1,48,25,2241243440
10315,19,Jits_Linear_5,1,5,56,103,2241343844
10315,19,Jits_Linear_5,2,5,80,127,2241346836
10315,19,Jits_Linear_5,3,5,63,98,2241364380
10315,19,Jits_Linear_5,0,5,63,98,2241834332
10315,19,Jits_Linear_5,1,5,56,103,2241864160
10315,19,Jits_Linear_5,2,1,48,17,2241884392
10315,19,Jits_Linear_5,3,5,80,127,2241923448
10315,19,Jits_Linear_5,0,1,48,21,2242453364
10315,19,Jits_Linear_5,1,5,63,98,2242483436
10315,19,Jits_Linear_5,2,5,56,103,2242493708
10315,19,Jits_Linear_5,3,5,80,127,2242504200
10315,19,Jits_Linear_5,0,5,56,103,2243003736
10315,19,Jits_Linear_5,1,1,48,25,2243006256
10315,19,Jits_Linear_5,2,5,80,127,2243033408
10315,19,Jits_Linear_5,3,5,63,98,2243043604
10315,19,Jits_Linear_5,0,1,48,21,2243591052
10315,19,Jits_Linear_5,1,5,63,98,2243614168
10315,19,Jits_Linear_5,2,5,56,103,2243624292
10315,19,Jits_Linear_5,3,5,80,127,2243643628
10315,19,Jits_Linear_5,0,5,56,103,2244113716
10315,19,Jits_Linear_5,1,1,48,18,2244167852
10315,19,Jits_Linear_5,2,5,63,98,2244174248
10315,19,Jits_Linear_5,3,5,80,127,2244177388
10315,19,Jits_Linear_5,0,5,80,127,2244713828
10315,19,Jits_Linear_5,1,1,48,20,2244721900
10315,19,Jits_Linear_5,2,5,56,103,2244724092
10315,19,Jits_Linear_5,3,5,63,98,2244793700
10315,19,Jits_Linear_5,0,5,80,127,2245284328
10315,19,Jits_Linear_5,1,1,48,19,2245313752
10315,19,Jits_Linear_5,2,5,56,103,2245353784
10315,19,Jits_Linear_5,3,5,63,98,2245364204
10315,19,Jits_Linear_5,0,5,63,98,2245903684
10315,19,Jits_Linear_5,1,1,48,17,2245905620
10315,19,Jits_Linear_5,2,5,56,103,2245914096
10315,19,Jits_Linear_5,3,5,80,127,2245933508
10315,19,Jits_Linear_5,0,5,80,127,2246434160
10315,19,Jits_Linear_5,1,1,48,22,2246474968
10315,19,Jits_Linear_5,2,5,63,98,2246493600
10315,19,Jits_Linear_5,3,5,56,103,2246533464
10315,19,Jits_Linear_5,0,1,48,20,2247054560
10315,19,Jits_Linear_5,1,5,56,103,2247064020
10315,19,Jits_Linear_5,2,5,63,98,2247074368
10315,19,Jits_Linear_5,3,5,80,127,2247114308
10315,19,Jits_Linear_5,0,5,56,103,2247613692
10315,19,Jits_Linear_5,1,1,48,19,2247630436
10315,19,Jits_Linear_5,2,5,80,127,2247643436
10315,19,Jits_Linear_5,3,5,63,98,2247693640
10315,19,Jits_Linear_5,0,1,48,19,2248209100
10315,19,Jits_Linear_5,1,5,56,103,2248243452
10315,19,Jits_Linear_5,2,5,63,98,2248283492
10315,19,Jits_Linear_5,3,5,80,127,2248286780
10315,19,Jits_Linear_5,0,5,56,103,2248834420
10315,19,Jits_Linear_5,1,5,63,98,2248843644
10315,19,Jits_Linear_5,2,5,80,127,2248864176
10315,19,Jits_Linear_5,0,5,56,103,2249384420
10315,19,Jits_Linear_5,1,5,80,127,2249387412
10315,19,Jits_Linear_5,2,5,63,98,2249424360
10315,19,Jits_Linear_5,3,1,48,32,2249438112
10315,19,Jits_Linear_5,0,1,48,28,2249977204
10315,19,Jits_Linear_5,1,5,63,98,2250014172
10315,19,Jits_Linear_5,2,5,56,103,2250043624
10315,19,Jits_Linear_5,3,5,80,127,2250064380
10315,19,Jits_Linear_5,0,5,80,127,2250584460
10315,19,Jits_Linear_5,1,5,56,103,2250593684
10315,19,Jits_Linear_5,2,5,63,98,2250604252
10315,19,Jits_Linear_5,3,1,48,27,2250611112
10315,19,Jits_Linear_5,0,1,48,21,2251153128
10315,19,Jits_Linear_5,1,5,56,103,2251183352
10315,19,Jits_Linear_5,2,5,80,127,2251224412
10315,19,Jits_Linear_5,3,5,63,98,2251254148
10315,19,Jits_Linear_5,0,1,48,22,2251786096
10315,19,Jits_Linear_5,1,5,63,98,2251793920
10315,19,Jits_Linear_5,2,5,80,127,2251803968
10315,19,Jits_Linear_5,3,5,56,103,2251814388
10315,19,Jits_Linear_5,0,5,56,103,2252374452
10315,19,Jits_Linear_5,1,1,48,23,2252379688
10315,19,Jits_Linear_5,2,5,63,98,2252444080
10315,19,Jits_Linear_5,3,5,80,127,2252454128
10315,19,Jits_Linear_5,0,5,80,127,2252983640
10315,19,Jits_Linear_5,1,1,48,23,2252986836
10315,19,Jits_Linear_5,2,5,56,103,2252993980
10315,19,Jits_Linear_5,3,5,63,98,2253044256
10315,19,Jits_Linear_5,0,1,48,20,2253579044
10315,19,Jits_Linear_5,1,5,80,127,2253604180
10315,19,Jits_Linear_5,2,5,56,103,2253663624
10315,19,Jits_Linear_5,3,5,63,98,2253694332
10315,19,Jits_Linear_5,0,1,48,21,2254198408
10315,19,Jits_Linear_5,1,5,56,103,2254213576
10315,19,Jits_Linear_5,2,5,80,127,2254216716
10315,19,Jits_Linear_5,3,5,63,98,2254253368
10315,19,Jits_Linear_5,0,1,48,22,2254794216
10315,19,Jits_Linear_5,1,5,56,103,2254853508
10315,19,Jits_Linear_5,2,5,63,98,2254884084
10315,19,Jits_Linear_5,3,5,80,127,2254893444
10315,19,Jits_Linear_5,0,1,48,22,2255425620
10315,19,Jits_Linear_5,1,5,63,98,2255474220
10315,19,Jits_Linear_5,2,5,80,127,2255484268
10315,19,Jits_Linear_5,3,5,56,103,2255493564
10315,19,Jits_Linear_5,0,5,80,127,2256034296
10315,19,Jits_Linear_5,1,1,48,21,2256068056
10315,19,Jits_Linear_5,2,5,56,103,2256084344
10315,19,Jits_Linear_5,3,5,63,98,2256087484
10315,19,Jits_Linear_5,0,5,56,103,2256684280
10315,19,Jits_Linear_5,1,1,48,24,2256691456
10315,19,Jits_Linear_5,2,5,80,127,2256703984
10315,19,Jits_Linear_5,3,5,63,98,2256714180
10315,19,Jits_Linear_5,0,1,48,21,2257272908
10315,19,Jits_Linear_5,1,5,63,98,2257283568
10315,19,Jits_Linear_5,2,5,56,103,2257314068
10315,19,Jits_Linear_5,3,5,80,127,2257333632
10315,19,Jits_Linear_5,0,1,48,25,2257875304
10315,19,Jits_Linear_5,1,5,56,103,2257914216
10315,19,Jits_Linear_5,2,5,80,127,2257923440
10315,19,Jits_Linear_5,3,5,63,98,2257994004
10315,19,Jits_Linear_5,0,5,63,98,2258523468
10315,19,Jits_Linear_5,1,1,48,23,2258546140
10315,19,Jits_Linear_5,2,5,80,127,2258563400
10315,19,Jits_Linear_5,3,5,56,103,2258604460
10315,19,Jits_Linear_5,0,1,48,21,2259128676
10315,19,Jits_Linear_5,1,5,56,103,2259163476
10315,19,Jits_Linear_5,2,5,63,98,2259173600
10315,19,Jits_Linear_5,3,5,80,127,2259194280
10315,19,Jits_Linear_5,0,1,48,25,2259733184
10315,19,Jits_Linear_5,1,5,63,98,2259834144
10315,19,Jits_Linear_5,2,5,80,127,2259853780
10315,19,Jits_Linear_5,3,5,56,103,2259874092
10315,19,Jits_Linear_5,0,1,48,20,2260395408
10315,19,Jits_Linear_5,1,5,56,103,2260403452
10315,19,Jits_Linear_5,2,5,80,127,2260483400
10315,19,Jits_Linear_5,3,5,63,98,2260493744
10315,19,Jits_Linear_5,0,1,48,16,2261036768
10315,19,Jits_Linear_5,1,5,80,127,2261074260
10315,19,Jits_Linear_5,2,5,63,98,2261083364
10315,19,Jits_Linear_5,3,5,56,103,2261114160
10315,19,Jits_Linear_5,0,1,48,20,2261645192
10315,19,Jits_Linear_5,1,5,63,98,2261664104
10315,19,Jits_Linear_5,2,5,80,127,2261703968
10315,19,Jits_Linear_5,3,5,56,103,2261763372
10315,19,Jits_Linear_5,0,1,48,18,2262273528
10315,19,Jits_Linear_5,1,5,63,98,2262304044
10315,19,Jits_Linear_5,2,5,56,103,2262354324
10315,19,Jits_Linear_5,3,5,80,127,2262383936
10315,19,Jits_Linear_5,0,1,48,23,2262911232
10315,19,Jits_Linear_5,1,5,80,127,2262954424
10315,19,Jits_Linear_5,2,5,63,98,2262963500
10315,19,Jits_Linear_5,3,5,56,103,2263034360
10315,19,Jits_Linear_5,0,1,48,17,2263549976
10315,19,Jits_Linear_5,1,5,80,127,2263664132
10315,19,Jits_Linear_5,2,5,56,103,2263674324
10315,19,Jits_Linear_5,3,5,63,98,2263677244
10315,19,Jits_Linear_5,0,1,48,25,2264237892
10315,19,Jits_Linear_5,1,5,56,103,2264243696
10315,19,Jits_Linear_5,2,5,80,127,2264264156
10315,19,Jits_Linear_5,3,5,63,98,2264274204
10315,19,Jits_Linear_5,0,1,48,25,2264855508
10315,19,Jits_Linear_5,1,5,63,98,2264893752
10315,19,Jits_Linear_5,2,5,56,103,2264933940
10315,19,Jits_Linear_5,3,5,80,127,2264955432
10315,19,Jits_Linear_5,0,1,48,24,2265466336
10315,19,Jits_Linear_5,1,5,63,98,2265544060
10315,19,Jits_Linear_5,2,5,56,103,2265603392
10315,19,Jits_Linear_5,3,5,80,127,2265606456
10315,19,Jits_Linear_5,0,1,48,26,2266133700
10315,19,Jits_Linear_5,1,5,56,103,2266154324
10315,19,Jits_Linear_5,2,5,80,127,2266173964
10315,19,Jits_Linear_5,3,5,63,98,2266213852
10315,19,Jits_Linear_5,0,1,48,25,2266741972
10315,19,Jits_Linear_5,1,5,56,103,2266834148
10315,19,Jits_Linear_5,2,5,63,98,2266853920
10315,19,Jits_Linear_5,3,5,80,127,2266864044
10315,19,Jits_Linear_5,0,1,48,26,2267374036
10315,19,Jits_Linear_5,1,5,80,127,2267453856
10315,19,Jits_Linear_5,2,5,56,103,2267483468
10315,19,Jits_Linear_5,3,5,63,98,2267523408
10315,19,Jits_Linear_5,0,1,48,19,2268051988
10315,19,Jits_Linear_5,1,5,80,127,2268114272
10315,19,Jits_Linear_5,2,5,56,103,2268133836
10315,19,Jits_Linear_5,3,5,63,98,2268194136
10315,19,Jits_Linear_5,0,1,48,24,2268707800
10315,19,Jits_Linear_5,1,5,56,103,2268773868
10315,19,Jits_Linear_5,2,5,80,127,2268794180
10315,19,Jits_Linear_5,3,5,63,98,2268853584
10315,19,Jits_Linear_5,0,1,48,25,2269370392
10315,19,Jits_Linear_5,1,5,80,127,2269413808
10315,19,Jits_Linear_5,2,5,56,103,2269423928
10315,19,Jits_Linear_5,3,5,63,98,2269463944
10315,19,Jits_Linear_5,0,1,48,23,2270009356
10315,19,Jits_Linear_5,1,5,63,98,2270074220
10315,19,Jits_Linear_5,2,5,56,103,2270114220
10315,19,Jits_Linear_5,3,5,80,127,2270117136
10315,19,Jits_Linear_5,0,1,48,22,2270675680
10315,19,Jits_Linear_5,1,5,63,98,2270754156
10315,19,Jits_Linear_5,2,5,80,127,2270794080
10315,19,Jits_Linear_5,3,5,56,103,2270824004
10315,19,Jits_Linear_5,0,1,48,23,2271382260
10315,19,Jits_Linear_5,1,5,56,103,2271404312
10315,19,Jits_Linear_5,2,5,63,98,2271413832
10315,19,Jits_Linear_5,3,5,80,127,2271444332
10315,19,Jits_Linear_5,0,1,48,20,2271973796
10315,19,Jits_Linear_5,1,5,80,127,2272063952
10315,19,Jits_Linear_5,2,5,63,98,2272133500
10315,19,Jits_Linear_5,3,5,56,103,2272143844
10315,19,Jits_Linear_5,0,1,48,19,2272659448
10315,19,Jits_Linear_5,1,5,63,98,2272733664
10315,19,Jits_Linear_5,2,5,56,103,2272804160
10315,19,Jits_Linear_5,3,5,80,127,2272813380
10315,19,Jits_Linear_5,0,5,63,98,2273404204
10315,19,Jits_Linear_5,1,1,48,18,2273406144
10315,19,Jits_Linear_5,2,5,56,103,2273423836
10315,19,Jits_Linear_5,3,5,80,127,2273463624
10315,19,Jits_Linear_5,0,1,48,22,2274054152
10315,19,Jits_Linear_5,1,5,56,103,2274084292
10315,19,Jits_Linear_5,2,5,63,98,2274093368
10315,19,Jits_Linear_5,3,5,80,127,2274174220
10315,19,Jits_Linear_5,0,5,63,98,2274743892
10315,19,Jits_Linear_5,1,5,56,103,2274774320
10315,19,Jits_Linear_5,2,1,48,17,2274812820
10315,19,Jits_Linear_5,3,5,80,127,2274814252
10315,19,Jits_Linear_5,0,1,48,16,2275373092
10315,19,Jits_Linear_5,1,5,56,103,2275414420
10315,19,Jits_Linear_5,2,5,63,98,2275454508
10315,19,Jits_Linear_5,3,5,80,127,2275494360
10315,19,Jits_Linear_5,0,1,48,17,2276030412
10315,19,Jits_Linear_5,1,5,80,127,2276094288
10315,19,Jits_Linear_5,2,5,56,103,2276174148
10315,19,Jits_Linear_5,3,5,63,98,2276184372
10315,19,Jits_Linear_5,0,1,48,19,2276710016
10315,19,Jits_Linear_5,1,5,56,103,2276814332
10315,19,Jits_Linear_5,2,5,63,98,2276817172
10315,19,Jits_Linear_5,3,5,80,127,2276824528
10315,19,Jits_Linear_5,0,1,48,14,2277427944
10315,19,Jits_Linear_5,1,5,56,103,2277513868
10315,19,Jits_Linear_5,2,5,63,98,2277534088
10315,19,Jits_Linear_5,3,5,80,127,2277544284
10315,19,Jits_Linear_5,0,5,63,98,2278153740
10315,19,Jits_Linear_5,1,5,80,127,2278163788
10315,19,Jits_Linear_5,2,1,48,17,2278168028
10315,19,Jits_Linear_5,3,5,56,103,2278184164
10315,19,Jits_Linear_5,0,1,48,18,2278830820
10315,19,Jits_Linear_5,1,5,63,98,2278843748
10315,19,Jits_Linear_5,2,5,56,103,2278923768
10315,19,Jits_Linear_5,3,5,80,127,2278927716
10315,19,Jits_Linear_5,0,5,63,98,2279534056
10315,19,Jits_Linear_5,1,1,48,17,2279537028
10315,19,Jits_Linear_5,2,5,56,103,2279554288
10315,19,Jits_Linear_5,3,5,80,127,2279584036
10315,19,Jits_Linear_5,0,5,56,103,2280224116
10315,19,Jits_Linear_5,1,5,63,98,2280243756
10315,19,Jits_Linear_5,2,5,80,127,2280253804
10315,19,Jits_Linear_5,0,1,48,17,2280856972
10315,19,Jits_Linear_5,1,5,56,103,2280943916
10315,19,Jits_Linear_5,2,5,63,98,2280973800
10315,19,Jits_Linear_5,3,5,80,127,2280977012
10315,19,Jits_Linear_5,0,5,56,103,2281583952
10315,19,Jits_Linear_5,1,1,48,19,2281585364
10315,19,Jits_Linear_5,2,5,63,98,2281623812
10315,19,Jits_Linear_5,3,5,80,127,2281684408
10315,19,Jits_Linear_5,0,1,48,19,2282256008
10315,19,Jits_Linear_5,1,5,56,103,2282293800
10315,19,Jits_Linear_5,2,5,63,98,2282303852
10315,19,Jits_Linear_5,3,5,80,127,2282364252
10315,19,Jits_Linear_5,0,1,48,16,2282932912
10315,19,Jits_Linear_5,1,5,56,103,2282993928
10315,19,Jits_Linear_5,2,5,80,127,2283013788
10315,19,Jits_Linear_5,3,5,63,98,2283044344
10315,19,Jits_Linear_5,0,1,48,13,2283637904
10315,19,Jits_Linear_5,1,5,80,127,2283693452
10315,19,Jits_Linear_5,2,5,56,103,2283703872
10315,19,Jits_Linear_5,3,5,63,98,2283724036
10315,19,Jits_Linear_5,0,1,48,16,2284380204
10315,19,Jits_Linear_5,1,5,63,98,2284383984
10315,19,Jits_Linear_5,2,5,80,127,2284463636
10315,19,Jits_Linear_5,3,5,56,103,2284473608
10315,19,Jits_Linear_5,0,5,80,127,2285144580
10315,19,Jits_Linear_5,1,5,56,103,2285163920
10315,19,Jits_Linear_5,2,5,63,98,2285166912
10315,19,Jits_Linear_5,0,5,63,98,2285824348
10315,19,Jits_Linear_5,1,5,80,127,2285827712
10315,19,Jits_Linear_5,2,1,48,22,2285839452
10315,19,Jits_Linear_5,3,5,56,103,2285883684
10315,19,Jits_Linear_5,0,1,48,27,2286448828
10315,19,Jits_Linear_5,1,5,56,103,2286513672
10315,19,Jits_Linear_5,2,5,80,127,2286523720
10315,19,Jits_Linear_5,3,5,63,98,2286563644
10315,19,Jits_Linear_5,0,1,48,29,2287124428
10315,19,Jits_Linear_5,1,5,56,103,2287203900
10315,19,Jits_Linear_5,2,5,63,98,2287264132
10315,19,Jits_Linear_5,3,5,80,127,2287274256
10315,19,Jits_Linear_5,0,1,48,28,2287861952
10315,19,Jits_Linear_5,1,5,63,98,2287923564
10315,19,Jits_Linear_5,2,5,80,127,2287963736
10315,19,Jits_Linear_5,3,5,56,103,2288003524
10315,19,Jits_Linear_5,0,1,48,25,2288556080
10315,19,Jits_Linear_5,1,5,56,103,2288634176
10315,19,Jits_Linear_5,2,5,63,98,2288714180
10315,19,Jits_Linear_5,3,5,80,127,2288717468
10315,19,Jits_Linear_5,0,1,48,23,2289294332
10315,19,Jits_Linear_5,1,5,80,127,2289404336
10315,19,Jits_Linear_5,2,5,56,103,2289433936
10315,19,Jits_Linear_5,3,5,63,98,2289436928
10315,19,Jits_Linear_5,0,1,48,27,2290075072
10315,19,Jits_Linear_5,1,5,56,103,2290084160
10315,19,Jits_Linear_5,2,5,80,127,2290103648
10315,19,Jits_Linear_5,3,5,63,98,2290143736
10315,19,Jits_Linear_5,0,1,48,25,2290746768
10315,19,Jits_Linear_5,1,5,80,127,2290783760
10315,19,Jits_Linear_5,2,5,63,98,2290804076
10315,19,Jits_Linear_5,3,5,56,103,2290863476
10315,19,Jits_Linear_5,0,1,48,28,2291420736
10315,19,Jits_Linear_5,1,5,63,98,2291514336
10315,19,Jits_Linear_5,2,5,56,103,2291523940
10315,19,Jits_Linear_5,3,5,80,127,2291574168
10315,19,Jits_Linear_5,0,1,48,28,2292171656
10315,19,Jits_Linear_5,1,5,56,103,2292224520
10315,19,Jits_Linear_5,2,5,63,98,2292243784
10315,19,Jits_Linear_5,3,5,80,127,2292254204
10315,19,Jits_Linear_5,0,1,48,27,2292856060
10315,19,Jits_Linear_5,1,5,56,103,2292944272
10315,19,Jits_Linear_5,2,5,63,98,2292948144
10315,19,Jits_Linear_5,3,5,80,127,2292963816
10315,19,Jits_Linear_5,0,1,48,24,2293575400
10315,19,Jits_Linear_5,1,5,63,98,2293714496
10315,19,Jits_Linear_5,2,5,56,103,2293743876
10315,19,Jits_Linear_5,3,5,80,127,2293773628
10315,19,Jits_Linear_5,0,1,48,28,2294364796
10315,19,Jits_Linear_5,1,5,80,127,2294403708
10315,19,Jits_Linear_5,2,5,56,103,2294493532
10315,19,Jits_Linear_5,3,5,63,98,2294496820
10315,19,Jits_Linear_5,0,1,48,27,2295131744
10315,19,Jits_Linear_5,1,5,56,103,2295133488
10315,19,Jits_Linear_5,2,5,80,127,2295136412
10315,19,Jits_Linear_5,3,5,63,98,2295213588
10315,19,Jits_Linear_5,0,1,48,25,2295817592
10315,19,Jits_Linear_5,1,5,80,127,2295863556
10315,19,Jits_Linear_5,2,5,63,98,2295923960
10315,19,Jits_Linear_5,3,5,56,103,2295953632
10315,19,Jits_Linear_5,0,1,48,27,2296590540
10315,19,Jits_Linear_5,1,5,63,98,2296593724
10315,19,Jits_Linear_5,2,5,80,127,2296604068
10315,19,Jits_Linear_5,3,5,56,103,2296673628
10315,19,Jits_Linear_5,0,1,48,30,2297333832
10315,19,Jits_Linear_5,1,5,56,103,2297344488
10315,19,Jits_Linear_5,2,5,80,127,2297373944
10315,19,Jits_Linear_5,3,5,63,98,2297424368
10315,19,Jits_Linear_5,0,1,48,33,2298069008
10315,19,Jits_Linear_5,1,5,63,98,2298123588
10315,19,Jits_Linear_5,2,5,56,103,2298154456
10315,19,Jits_Linear_5,3,5,80,127,2298157448
10315,19,Jits_Linear_5,0,1,48,29,2298814236
10315,19,Jits_Linear_5,1,5,63,98,2298863864
10315,19,Jits_Linear_5,2,5,80,127,2298883500
10315,19,Jits_Linear_5,3,5,56,103,2298893624
10315,19,Jits_Linear_5,0,1,48,34,2299508656
10315,19,Jits_Linear_5,1,5,56,103,2299613720
10315,19,Jits_Linear_5,2,5,63,98,2299616712
10315,19,Jits_Linear_5,3,5,80,127,2299634032
10315,19,Jits_Linear_5,0,1,48,29,2300297940
10315,19,Jits_Linear_5,1,5,56,103,2300313932
10315,19,Jits_Linear_5,2,5,63,98,2300324652
10315,19,Jits_Linear_5,3,5,80,127,2300353880
10315,19,Jits_Linear_5,0,1,48,23,2300994676
10315,19,Jits_Linear_5,1,5,63,98,2301083884
10315,19,Jits_Linear_5,2,5,80,127,2301103656
10315,19,Jits_Linear_5,3,5,56,103,2301144716
10315,19,Jits_Linear_5,0,1,48,28,2301751592
10315,19,Jits_Linear_5,1,5,56,103,2301864384
10315,19,Jits_Linear_5,2,5,63,98,2301904324
10315,19,Jits_Linear_5,3,5,80,127,2301907760
10315,19,Jits_Linear_5,0,1,48,29,2302515392
10315,19,Jits_Linear_5,1,5,80,127,2302553580
10315,19,Jits_Linear_5,2,5,56,103,2302594496
10315,19,Jits_Linear_5,3,5,63,98,2302643636
10315,19,Jits_Linear_5,0,1,48,29,2303237316
10315,19,Jits_Linear_5,1,5,56,103,2303363604
10315,19,Jits_Linear_5,2,5,80,127,2303373724
10315,19,Jits_Linear_5,3,5,63,98,2303404300
10315,19,Jits_Linear_5,0,1,48,28,2304014320
10315,19,Jits_Linear_5,1,5,56,103,2304063948
10315,19,Jits_Linear_5,2,5,80,127,2304103912
10315,19,Jits_Linear_5,3,5,63,98,2304153952
10315,19,Jits_Linear_5,0,1,48,26,2304758940
10315,19,Jits_Linear_5,1,5,56,103,2304823636
10315,19,Jits_Linear_5,2,5,80,127,2304863584
10315,19,Jits_Linear_5,3,5,63,98,2304913716
10315,19,Jits_Linear_5,0,1,48,22,2305494064
10315,19,Jits_Linear_5,1,5,80,127,2305574552
10315,19,Jits_Linear_5,2,5,63,98,2305654212
10315,19,Jits_Linear_5,3,5,56,103,2305664336
10315,19,Jits_Linear_5,0,1,48,29,2306363288
10315,19,Jits_Linear_5,1,5,80,127,2306384444
10315,19,Jits_Linear_5,2,5,56,103,2306393396
10315,19,Jits_Linear_5,3,5,63,98,2306414004
10315,19,Jits_Linear_5,0,5,63,98,2307114392
10315,19,Jits_Linear_5,1,1,48,16,2307132580
10315,19,Jits_Linear_5,2,5,56,103,2307184020
10315,19,Jits_Linear_5,3,5,80,127,2307186936
10315,19,Jits_Linear_5,0,1,48,34,2307838668
10315,19,Jits_Linear_5,1,5,80,127,2307874292
10315,19,Jits_Linear_5,2,5,63,98,2307924736
10315,19,Jits_Linear_5,3,5,56,103,2307964512
10315,19,Jits_Linear_5,0,1,48,30,2308604280
10315,19,Jits_Linear_5,1,5,63,98,2308684248
10315,19,Jits_Linear_5,2,5,56,103,2308724052
10315,19,Jits_Linear_5,3,5,80,127,2308734472
10315,19,Jits_Linear_5,0,1,48,31,2309358416
10315,19,Jits_Linear_5,1,5,63,98,2309443868
10315,19,Jits_Linear_5,2,5,56,103,2309464488
10315,19,Jits_Linear_5,3,5,80,127,2309483824
10315,19,Jits_Linear_5,0,1,48,30,2310114372
10315,19,Jits_Linear_5,1,5,80,127,2310174184
10315,19,Jits_Linear_5,2,5,56,103,2310184380
10315,19,Jits_Linear_5,3,5,63,98,2310203644
10315,19,Jits_Linear_5,0,1,48,27,2310878396
10315,19,Jits_Linear_5,1,5,63,98,2310973732
10315,19,Jits_Linear_5,2,5,56,103,2311013608
10315,19,Jits_Linear_5,3,5,80,127,2311043432
10315,19,Jits_Linear_5,0,1,48,21,2311717804
10315,19,Jits_Linear_5,1,5,56,103,2311754172
10315,19,Jits_Linear_5,2,5,63,98,2311783876
10315,19,Jits_Linear_5,3,5,80,127,2311813464
10315,19,Jits_Linear_5,0,1,48,23,2312436812
10315,19,Jits_Linear_5,1,5,80,127,2312503600
10315,19,Jits_Linear_5,2,5,56,103,2312574340
10315,19,Jits_Linear_5,3,5,63,98,2312577332
10315,19,Jits_Linear_5,0,1,48,20,2313204812
10315,19,Jits_Linear_5,1,5,56,103,2313294368
10315,19,Jits_Linear_5,2,5,63,98,2313344436
10315,19,Jits_Linear_5,3,5,80,127,2313374260
10315,19,Jits_Linear_5,0,1,48,15,2314015972
10315,19,Jits_Linear_5,1,5,63,98,2314054132
10315,19,Jits_Linear_5,2,5,80,127,2314057344
10315,19,Jits_Linear_5,3,5,56,103,2314114456
10315,19,Jits_Linear_5,0,1,48,29,2314815428
10315,19,Jits_Linear_5,1,5,56,103,2314863956
10315,19,Jits_Linear_5,2,5,80,127,2314874152
10315,19,Jits_Linear_5,3,5,63,98,2314924268
10315,19,Jits_Linear_5,0,1,48,22,2315555260
10315,19,Jits_Linear_5,1,5,63,98,2315623720
10315,19,Jits_Linear_5,2,5,56,103,2315634140
10315,19,Jits_Linear_5,3,5,80,127,2315663800
10315,19,Jits_Linear_5,0,1,48,31,2316268256
10315,19,Jits_Linear_5,1,5,63,98,2316444148
10315,19,Jits_Linear_5,2,5,80,127,2316447364
10315,19,Jits_Linear_5,3,5,56,103,2316473676
10315,19,Jits_Linear_5,0,1,48,27,2317137548
10315,19,Jits_Linear_5,1,5,63,98,2317253948
10315,19,Jits_Linear_5,2,5,56,103,2317273508
10315,19,Jits_Linear_5,3,5,80,127,2317276648
10315,19,Jits_Linear_5,0,1,48,20,2317993160
10315,19,Jits_Linear_5,1,5,63,98,2318003448
10315,19,Jits_Linear_5,2,5,56,103,2318074328
10315,19,Jits_Linear_5,3,5,80,127,2318093580
10315,19,Jits_Linear_5,0,1,48,20,2318734116
10315,19,Jits_Linear_5,1,5,56,103,2318783816
10315,19,Jits_Linear_5,2,5,63,98,2318794460
10315,19,Jits_Linear_5,3,5,80,127,2318884208
10315,19,Jits_Linear_5,0,1,48,19,2319473344
10315,19,Jits_Linear_5,1,5,56,103,2319593984
10315,19,Jits_Linear_5,2,5,80,127,2319633852
10315,19,Jits_Linear_5,3,5,63,98,2319644120
10315,19,Jits_Linear_5,0,1,48,30,2320298504
10315,19,Jits_Linear_5,1,5,56,103,2320414356
10315,19,Jits_Linear_5,2,5,63,98,2320443736
10315,19,Jits_Linear_5,3,5,80,127,2320473588
10315,19,Jits_Linear_5,0,5,80,127,2321174140
10315,19,Jits_Linear_5,1,1,48,24,2321185208
10315,19,Jits_Linear_5,2,5,63,98,2321213704
10315,19,Jits_Linear_5,3,5,56,103,2321234312
10315,19,Jits_Linear_5,0,1,48,33,2322001080
10315,19,Jits_Linear_5,1,5,56,103,2322023696
10315,19,Jits_Linear_5,2,5,80,127,2322044304
10315,19,Jits_Linear_5,3,5,63,98,2322063716
10315,19,Jits_Linear_5,0,1,48,33,2322802248
10315,19,Jits_Linear_5,1,5,63,98,2322803984
10315,19,Jits_Linear_5,2,5,56,103,2322814180
10315,19,Jits_Linear_5,3,5,80,127,2322873672
10315,19,Jits_Linear_5,0,1,48,30,2323601784
10315,19,Jits_Linear_5,1,5,56,103,2323614312
10315,19,Jits_Linear_5,2,5,63,98,2323683556
10315,19,Jits_Linear_5,3,5,80,127,2323704148
10315,19,Jits_Linear_5,0,1,48,31,2324398020
10315,19,Jits_Linear_5,1,5,56,103,2324424352
10315,19,Jits_Linear_5,2,5,63,98,2324453808
10315,19,Jits_Linear_5,3,5,80,127,2324493820
10315,19,Jits_Linear_5,0,1,48,28,2325174272
10315,19,Jits_Linear_5,1,5,63,98,2325223900
10315,19,Jits_Linear_5,2,5,56,103,2325274164
10315,19,Jits_Linear_5,3,5,80,127,2325284284
10315,19,Jits_Linear_5,0,1,48,38,2325971776
10315,19,Jits_Linear_5,1,5,56,103,2326073852
10315,19,Jits_Linear_5,2,5,63,98,2326124008
10315,19,Jits_Linear_5,3,5,80,127,2326134128
10315,19,Jits_Linear_5,0,1,48,52,2326803412
10315,19,Jits_Linear_5,1,5,56,103,2326854160
10315,19,Jits_Linear_5,2,5,63,98,2326864208
10315,19,Jits_Linear_5,3,5,80,127,2326944088
10315,19,Jits_Linear_5,0,9999,9999,9999,2218091608
10315,19,Jits_Linear_5,1,9999,9999,9999,2218571896
10315,19,Jits_Linear_5,2,9999,9999,9999,2219051088
10315,19,Jits_Linear_5,3,9999,9999,9999,2219531380
10315,19,Jits_Linear_5,4,9999,9999,9999,2220011596
10315,19,Jits_Linear_5,5,9999,9999,9999,2220502072
10315,19,Jits_Linear_5,6,9999,9999,9999,2221001836
10315,19,Jits_Linear_5,7,9999,9999,9999,2221491276
10315,19,Jits_Linear_5,8,9999,9999,9999,2221981752
10315,19,Jits_Linear_5,9,9999,9999,9999,2222471264
10315,19,Jits_Linear_5,10,9999,9999,9999,2222971996
10315,19,Jits_Linear_5,11,9999,9999,9999,2223471704
10315,19,Jits_Linear_5,12,9999,9999,9999,2223971388
10315,19,Jits_Linear_5,13,9999,9999,9999,2224471128
10315,19,Jits_Linear_5,14,9999,9999,9999,2224971864
10315,19,Jits_Linear_5,15,9999,9999,9999,2225481828
10315,19,Jits_Linear_5,16,9999,9999,9999,2225991780
10315,19,Jits_Linear_5,17,9999,9999,9999,2226501724
10315,19,Jits_Linear_5,18,9999,9999,9999,2227011676
10315,19,Jits_Linear_5,19,9999,9999,9999,2227521648
10315,19,Jits_Linear_5,20,9999,9999,9999,2228041792
10315,19,Jits_Linear_5,21,9999,9999,9999,2228562024
10315,19,Jits_Linear_5,22,9999,9999,9999,2229081144
10315,19,Jits_Linear_5,23,9999,9999,9999,2229601376
10315,19,Jits_Linear_5,24,9999,9999,9999,2230121532
10315,19,Jits_Linear_5,25,9999,9999,9999,2230652016
10315,19,Jits_Linear_5,26,9999,9999,9999,2231181376
10315,19,Jits_Linear_5,27,9999,9999,9999,2231711844
10315,19,Jits_Linear_5,28,9999,9999,9999,2232241224
10315,19,Jits_Linear_5,29,9999,9999,9999,2232771700
10315,19,Jits_Linear_5,30,9999,9999,9999,2233311324
10315,19,Jits_Linear_5,31,9999,9999,9999,2233851992
10315,19,Jits_Linear_5,32,9999,9999,9999,2234391612
10315,19,Jits_Linear_5,33,9999,9999,9999,2234931308
10315,19,Jits_Linear_5,34,9999,9999,9999,2235471976
10315,19,Jits_Linear_5,35,9999,9999,9999,2236021884
10315,19,Jits_Linear_5,36,9999,9999,9999,2236571756
10315,19,Jits_Linear_5,37,9999,9999,9999,2237121648
10315,19,Jits_Linear_5,38,9999,9999,9999,2237671548
10315,19,Jits_Linear_5,39,9999,9999,9999,2238221436
10315,19,Jits_Linear_5,40,9999,9999,9999,2238781516
10315,19,Jits_Linear_5,41,9999,9999,9999,2239341624
10315,19,Jits_Linear_5,42,9999,9999,9999,2239901788
10315,19,Jits_Linear_5,43,9999,9999,9999,2240461932
10315,19,Jits_Linear_5,44,9999,9999,9999,2241022080
10315,19,Jits_Linear_5,45,9999,9999,9999,2241591364
10315,19,Jits_Linear_5,46,9999,9999,9999,2242161724
10315,19,Jits_Linear_5,47,9999,9999,9999,2242731096
10315,19,Jits_Linear_5,48,9999,9999,9999,2243301436
10315,19,Jits_Linear_5,49,9999,9999,9999,2243871868
10315,19,Jits_Linear_5,50,9999,9999,9999,2244451440
10315,19,Jits_Linear_5,51,9999,9999,9999,2245032056
10315,19,Jits_Linear_5,52,9999,9999,9999,2245611624
10315,19,Jits_Linear_5,53,9999,9999,9999,2246191192
10315,19,Jits_Linear_5,54,9999,9999,9999,2246771816
10315,19,Jits_Linear_5,55,9999,9999,9999,2247361656
10315,19,Jits_Linear_5,56,9999,9999,9999,2247951472
10315,19,Jits_Linear_5,57,9999,9999,9999,2248541252
10315,19,Jits_Linear_5,58,9999,9999,9999,2249131092
10315,19,Jits_Linear_5,59,9999,9999,9999,2249721964
10315,19,Jits_Linear_5,60,9999,9999,9999,2250321992
10315,19,Jits_Linear_5,61,9999,9999,9999,2250922088
10315,19,Jits_Linear_5,62,9999,9999,9999,2251521136
10315,19,Jits_Linear_5,63,9999,9999,9999,2252121168
10315,19,Jits_Linear_5,64,9999,9999,9999,2252721248
10315,19,Jits_Linear_5,65,9999,9999,9999,2253331536
10315,19,Jits_Linear_5,66,9999,9999,9999,2253941844
10315,19,Jits_Linear_5,67,9999,9999,9999,2254551132
10315,19,Jits_Linear_5,68,9999,9999,9999,2255161404
10315,19,Jits_Linear_5,69,9999,9999,9999,2255771772
10315,19,Jits_Linear_5,70,9999,9999,9999,2256391248
10315,19,Jits_Linear_5,71,9999,9999,9999,2257011820
10315,19,Jits_Linear_5,72,9999,9999,9999,2257631316
10315,19,Jits_Linear_5,73,9999,9999,9999,2258251852
10315,19,Jits_Linear_5,74,9999,9999,9999,2258871360
10315,19,Jits_Linear_5,75,9999,9999,9999,2259501112
10315,19,Jits_Linear_5,76,9999,9999,9999,2260131940
10315,19,Jits_Linear_5,77,9999,9999,9999,2260761692
10315,19,Jits_Linear_5,78,9999,9999,9999,2261391472
10315,19,Jits_Linear_5,79,9999,9999,9999,2262021224
10315,19,Jits_Linear_5,80,9999,9999,9999,2262661188
10315,19,Jits_Linear_5,81,9999,9999,9999,2263301204
10315,19,Jits_Linear_5,82,9999,9999,9999,2263941244
10315,19,Jits_Linear_5,83,9999,9999,9999,2264581184
10315,19,Jits_Linear_5,84,9999,9999,9999,2265221228
10315,19,Jits_Linear_5,85,9999,9999,9999,2265871428
10315,19,Jits_Linear_5,86,9999,9999,9999,2266521656
10315,19,Jits_Linear_5,87,9999,9999,9999,2267171932
10315,19,Jits_Linear_5,88,9999,9999,9999,2267821112
10315,19,Jits_Linear_5,89,9999,9999,9999,2268471392
10315,19,Jits_Linear_5,90,9999,9999,9999,2269131884
10315,19,Jits_Linear_5,91,9999,9999,9999,2269791324
10315,19,Jits_Linear_5,92,9999,9999,9999,2270451776
10315,19,Jits_Linear_5,93,9999,9999,9999,2271111296
10315,19,Jits_Linear_5,94,9999,9999,9999,2271771760
10315,19,Jits_Linear_5,95,9999,9999,9999,2272441400
10315,19,Jits_Linear_5,96,9999,9999,9999,2273111112
10315,19,Jits_Linear_5,97,9999,9999,9999,2273781840
10315,19,Jits_Linear_5,98,9999,9999,9999,2274451548
10315,19,Jits_Linear_5,99,9999,9999,9999,2275121232
10315,19,Jits_Linear_5,100,9999,9999,9999,2275801204
10315,19,Jits_Linear_5,101,9999,9999,9999,2276481104
10315,19,Jits_Linear_5,102,9999,9999,9999,2277162084
10315,19,Jits_Linear_5,103,9999,9999,9999,2277841988
10315,19,Jits_Linear_5,104,9999,9999,9999,2278521960
10315,19,Jits_Linear_5,105,9999,9999,9999,2279211116
10315,19,Jits_Linear_5,106,9999,9999,9999,2279901280
10315,19,Jits_Linear_5,107,9999,9999,9999,2280591460
10315,19,Jits_Linear_5,108,9999,9999,9999,2281281616
10315,19,Jits_Linear_5,109,9999,9999,9999,2281971776
10315,19,Jits_Linear_5,110,9999,9999,9999,2282671172
10315,19,Jits_Linear_5,111,9999,9999,9999,2283371592
10315,19,Jits_Linear_5,112,9999,9999,9999,2284072064
10315,19,Jits_Linear_5,113,9999,9999,9999,2284771444
10315,19,Jits_Linear_5,114,9999,9999,9999,2285471812
10315,19,Jits_Linear_5,115,9999,9999,9999,2286181472
10315,19,Jits_Linear_5,116,9999,9999,9999,2286891088
10315,19,Jits_Linear_5,117,9999,9999,9999,2287601776
10315,19,Jits_Linear_5,118,9999,9999,9999,2288311420
10315,19,Jits_Linear_5,119,9999,9999,9999,2289022024
10315,19,Jits_Linear_5,120,9999,9999,9999,2289741900
10315,19,Jits_Linear_5,121,9999,9999,9999,2290461800
10315,19,Jits_Linear_5,122,9999,9999,9999,2291181628
10315,19,Jits_Linear_5,123,9999,9999,9999,2291901536
10315,19,Jits_Linear_5,124,9999,9999,9999,2292621440
10315,19,Jits_Linear_5,125,9999,9999,9999,2293351520
10315,19,Jits_Linear_5,126,9999,9999,9999,2294081596
10315,19,Jits_Linear_5,127,9999,9999,9999,2294811760
10315,19,Jits_Linear_5,128,9999,9999,9999,2295541844
10315,19,Jits_Linear_5,129,9999,9999,9999,2296271936
10315,19,Jits_Linear_5,130,9999,9999,9999,2297011320
10315,19,Jits_Linear_5,131,9999,9999,9999,2297751676
10315,19,Jits_Linear_5,132,9999,9999,9999,2298492024
10315,19,Jits_Linear_5,133,9999,9999,9999,2299231336
10315,19,Jits_Linear_5,134,9999,9999,9999,2299971664
10315,19,Jits_Linear_5,135,9999,9999,9999,2300721236
10315,19,Jits_Linear_5,136,9999,9999,9999,2301471860
10315,19,Jits_Linear_5,137,9999,9999,9999,2302221428
10315,19,Jits_Linear_5,138,9999,9999,9999,2302971976
10315,19,Jits_Linear_5,139,9999,9999,9999,2303721556
10315,19,Jits_Linear_5,140,9999,9999,9999,2304481396
10315,19,Jits_Linear_5,141,9999,9999,9999,2305241160
10315,19,Jits_Linear_5,142,9999,9999,9999,2306002044
10315,19,Jits_Linear_5,143,9999,9999,9999,2306761808
10315,19,Jits_Linear_5,144,9999,9999,9999,2307521640
10315,19,Jits_Linear_5,145,9999,9999,9999,2308291660
10315,19,Jits_Linear_5,146,9999,9999,9999,2309061692
10315,19,Jits_Linear_5,147,9999,9999,9999,2309831796
10315,19,Jits_Linear_5,148,9999,9999,9999,2310601820
10315,19,Jits_Linear_5,149,9999,9999,9999,2311371848
10315,19,Jits_Linear_5,150,9999,9999,9999,2312151096
10315,19,Jits_Linear_5,151,9999,9999,9999,2312931452
10315,19,Jits_Linear_5,152,9999,9999,9999,2313711744
10315,19,Jits_Linear_5,153,9999,9999,9999,2314492020
10315,19,Jits_Linear_5,154,9999,9999,9999,2315271264
10315,19,Jits_Linear_5,155,9999,9999,9999,2316061812
10315,19,Jits_Linear_5,156,9999,9999,9999,2316851312
10315,19,Jits_Linear_5,157,9999,9999,9999,2317641856
10315,19,Jits_Linear_5,158,9999,9999,9999,2318431312
10315,19,Jits_Linear_5,159,9999,9999,9999,2319221864
10315,19,Jits_Linear_5,160,9999,9999,9999,2320021560
10315,19,Jits_Linear_5,161,9999,9999,9999,2320821332
10315,19,Jits_Linear_5,162,9999,9999,9999,2321622072
10315,19,Jits_Linear_5,163,9999,9999,9999,2322432124
10315,19,Jits_Linear_5,164,9999,9999,9999,2323242076
10315,19,Jits_Linear_5,165,9999,9999,9999,2324052068
10315,19,Jits_Linear_5,166,9999,9999,9999,2324862028
10315,19,Jits_Linear_5,167,9999,9999,9999,2325672060
10315,19,Jits_Linear_5,168,9999,9999,9999,2326482024
10315,19,Jits_Linear_5,169,9999,9999,9999,2327291984
10316,15,Jits_Phase_8,0,5,56,103,2336717124
10316,15,Jits_Phase_8,1,5,63,98,2336720452
10316,15,Jits_Phase_8,2,5,80,127,2336723500
10316,15,Jits_Phase_8,0,1,48,41,2337493744
10316,15,Jits_Phase_8,1,5,56,103,2337517140
10316,15,Jits_Phase_8,2,5,63,98,2337520236
10316,15,Jits_Phase_8,3,5,80,127,2337523360
10316,15,Jits_Phase_8,0,5,80,127,2338257340
10316,15,Jits_Phase_8,1,1,48,46,2338300688
10316,15,Jits_Phase_8,2,5,63,98,2338347320
10316,15,Jits_Phase_8,3,5,56,103,2338356544
10316,15,Jits_Phase_8,0,5,56,103,2339076448
10316,15,Jits_Phase_8,1,5,63,98,2339087016
10316,15,Jits_Phase_8,2,1,48,38,2339126100
10316,15,Jits_Phase_8,3,5,80,127,2339176940
10316,15,Jits_Phase_8,0,5,63,98,2339846400
10316,15,Jits_Phase_8,1,5,80,127,2339877200
10316,15,Jits_Phase_8,2,1,48,34,2339880168
10316,15,Jits_Phase_8,3,5,56,103,2339906940
10316,15,Jits_Phase_8,0,1,48,29,2340617124
10316,15,Jits_Phase_8,1,5,56,103,2340647416
10316,15,Jits_Phase_8,2,5,80,127,2340746776
10316,15,Jits_Phase_8,3,5,63,98,2340796828
10316,15,Jits_Phase_8,0,1,48,27,2341395912
10316,15,Jits_Phase_8,1,5,56,103,2341447104
10316,15,Jits_Phase_8,2,5,80,127,2341497240
10316,15,Jits_Phase_8,3,5,63,98,2341537104
10316,15,Jits_Phase_8,0,1,48,32,2342255256
10316,15,Jits_Phase_8,1,5,80,127,2342276332
10316,15,Jits_Phase_8,2,5,63,98,2342307128
10316,15,Jits_Phase_8,3,5,56,103,2342377016
10316,15,Jits_Phase_8,0,1,48,38,2343058980
10316,15,Jits_Phase_8,1,5,63,98,2343107032
10316,15,Jits_Phase_8,2,5,56,103,2343136560
10316,15,Jits_Phase_8,3,5,80,127,2343196936
10316,15,Jits_Phase_8,0,5,56,103,2343847388
10316,15,Jits_Phase_8,1,5,80,127,2343850380
10316,15,Jits_Phase_8,2,1,48,26,2343875088
10316,15,Jits_Phase_8,3,5,63,98,2343967028
10316,15,Jits_Phase_8,0,1,48,38,2344602984
10316,15,Jits_Phase_8,1,5,56,103,2344726920
10316,15,Jits_Phase_8,2,5,80,127,2344767008
10316,15,Jits_Phase_8,3,5,63,98,2344777056
10316,15,Jits_Phase_8,0,1,48,29,2345447036
10316,15,Jits_Phase_8,1,5,56,103,2345486844
10316,15,Jits_Phase_8,2,5,80,127,2345507152
10316,15,Jits_Phase_8,3,5,63,98,2345587028
10316,15,Jits_Phase_8,0,5,80,127,2346277168
10316,15,Jits_Phase_8,1,1,48,35,2346291748
10316,15,Jits_Phase_8,2,5,56,103,2346376688
10316,15,Jits_Phase_8,3,5,63,98,2346386868
10316,15,Jits_Phase_8,0,5,63,98,2347047424
10316,15,Jits_Phase_8,1,5,80,127,2347106796
10316,15,Jits_Phase_8,2,5,56,103,2347116992
10316,15,Jits_Phase_8,3,1,48,24,2347132836
10316,15,Jits_Phase_8,0,5,56,103,2347847108
10316,15,Jits_Phase_8,1,1,48,26,2347897824
10316,15,Jits_Phase_8,2,5,63,98,2347916728
10316,15,Jits_Phase_8,3,5,80,127,2347920168
10316,15,Jits_Phase_8,0,1,48,32,2348607348
10316,15,Jits_Phase_8,1,5,63,98,2348676480
10316,15,Jits_Phase_8,2,5,56,103,2348726888
10316,15,Jits_Phase_8,3,5,80,127,2348729956
10316,15,Jits_Phase_8,0,1,48,38,2349382516
10316,15,Jits_Phase_8,1,5,56,103,2349437344
10316,15,Jits_Phase_8,2,5,80,127,2349440260
10316,15,Jits_Phase_8,3,5,63,98,2349527308
10316,15,Jits_Phase_8,0,1,48,35,2350209340
10316,15,Jits_Phase_8,1,5,63,98,2350276948
10316,15,Jits_Phase_8,2,5,56,103,2350367068
10316,15,Jits_Phase_8,3,5,80,127,2350396964
10316,15,Jits_Phase_8,0,5,56,103,2351066380
10316,15,Jits_Phase_8,1,1,48,38,2351107632
10316,15,Jits_Phase_8,2,5,63,98,2351166920
10316,15,Jits_Phase_8,3,5,80,127,2351196468
10316,15,Jits_Phase_8,0,5,63,98,2351886908
10316,15,Jits_Phase_8,1,1,48,41,2351888548
10316,15,Jits_Phase_8,2,5,56,103,2351897096
10316,15,Jits_Phase_8,3,5,80,127,2351988284
10316,15,Jits_Phase_8,0,1,48,32,2352646032
10316,15,Jits_Phase_8,1,5,63,98,2352706968
10316,15,Jits_Phase_8,2,5,56,103,2352786920
10316,15,Jits_Phase_8,3,5,80,127,2352789988
10316,15,Jits_Phase_8,0,5,80,127,2353466872
10316,15,Jits_Phase_8,1,5,63,98,2353487332
10316,15,Jits_Phase_8,2,5,56,103,2353546772
10316,15,Jits_Phase_8,3,1,48,27,2353568320
10316,15,Jits_Phase_8,0,5,56,103,2354306380
10316,15,Jits_Phase_8,1,1,48,35,2354326144
10316,15,Jits_Phase_8,2,5,63,98,2354327664
10316,15,Jits_Phase_8,3,5,80,127,2354330796
10316,15,Jits_Phase_8,0,5,63,98,2355046880
10316,15,Jits_Phase_8,1,1,48,42,2355076900
10316,15,Jits_Phase_8,2,5,80,127,2355126744
10316,15,Jits_Phase_8,3,5,56,103,2355137012
10316,15,Jits_Phase_8,0,1,48,39,2355806076
10316,15,Jits_Phase_8,1,5,63,98,2355867084
10316,15,Jits_Phase_8,2,5,56,103,2355886572
10316,15,Jits_Phase_8,3,5,80,127,2355936756
10316,15,Jits_Phase_8,0,1,48,35,2356612712
10316,15,Jits_Phase_8,1,5,80,127,2356666840
10316,15,Jits_Phase_8,2,5,63,98,2356706632
10316,15,Jits_Phase_8,3,5,56,103,2356727148
10316,15,Jits_Phase_8,0,1,48,29,2357456464
10316,15,Jits_Phase_8,1,5,56,103,2357506384
10316,15,Jits_Phase_8,2,5,63,98,2357516728
10316,15,Jits_Phase_8,3,5,80,127,2357537040
10316,15,Jits_Phase_8,0,1,48,34,2358216360
10316,15,Jits_Phase_8,1,5,56,103,2358236760
10316,15,Jits_Phase_8,2,5,63,98,2358326584
10316,15,Jits_Phase_8,3,5,80,127,2358386996
10316,15,Jits_Phase_8,0,5,80,127,2359067024
10316,15,Jits_Phase_8,1,1,48,35,2359069688
10316,15,Jits_Phase_8,2,5,56,103,2359077212
10316,15,Jits_Phase_8,3,5,63,98,2359146916
10316,15,Jits_Phase_8,0,5,63,98,2359896564
10316,15,Jits_Phase_8,1,1,48,24,2359934068
10316,15,Jits_Phase_8,2,5,80,127,2359986768
10316,15,Jits_Phase_8,3,5,56,103,2359996740
10316,15,Jits_Phase_8,0,5,63,98,2360626628
10316,15,Jits_Phase_8,1,5,80,127,2360676780
10316,15,Jits_Phase_8,2,5,56,103,2360737096
10316,15,Jits_Phase_8,3,1,48,29,2360747708
10316,15,Jits_Phase_8,0,5,56,103,2361446716
10316,15,Jits_Phase_8,1,1,48,34,2361480252
10316,15,Jits_Phase_8,2,5,80,127,2361496984
10316,15,Jits_Phase_8,3,5,63,98,2361517664
10316,15,Jits_Phase_8,0,1,48,37,2362209060
10316,15,Jits_Phase_8,1,5,56,103,2362216880
10316,15,Jits_Phase_8,2,5,80,127,2362277344
10316,15,Jits_Phase_8,3,5,63,98,2362346860
10316,15,Jits_Phase_8,0,1,48,28,2362990608
10316,15,Jits_Phase_8,1,5,56,103,2363016560
10316,15,Jits_Phase_8,2,5,80,127,2363047284
10316,15,Jits_Phase_8,3,5,63,98,2363076960
10316,15,Jits_Phase_8,0,1,48,32,2363807148
10316,15,Jits_Phase_8,1,5,56,103,2363857292
10316,15,Jits_Phase_8,2,5,80,127,2363876704
10316,15,Jits_Phase_8,3,5,63,98,2363937080
10316,15,Jits_Phase_8,0,1,48,32,2364646164
10316,15,Jits_Phase_8,1,5,80,127,2364736992
10316,15,Jits_Phase_8,2,5,56,103,2364747100
10316,15,Jits_Phase_8,3,5,63,98,2364757764
10316,15,Jits_Phase_8,0,5,56,103,2365496680
10316,15,Jits_Phase_8,1,5,80,127,2365536572
10316,15,Jits_Phase_8,2,1,48,19,2365553540
10316,15,Jits_Phase_8,3,5,63,98,2365567288
10316,15,Jits_Phase_8,0,5,56,103,2366266788
10316,15,Jits_Phase_8,1,5,63,98,2366296712
10316,15,Jits_Phase_8,2,1,48,34,2366305612
10316,15,Jits_Phase_8,3,5,80,127,2366337544
10316,15,Jits_Phase_8,0,1,48,30,2367003508
10316,15,Jits_Phase_8,1,5,80,127,2367017332
10316,15,Jits_Phase_8,2,5,63,98,2367066660
10316,15,Jits_Phase_8,3,5,56,103,2367086896
10316,15,Jits_Phase_8,0,1,48,39,2367744464
10316,15,Jits_Phase_8,1,5,56,103,2367846840
10316,15,Jits_Phase_8,2,5,80,127,2367917416
10316,15,Jits_Phase_8,3,5,63,98,2367976832
10316,15,Jits_Phase_8,0,5,80,127,2368646544
10316,15,Jits_Phase_8,1,1,48,38,2368652728
10316,15,Jits_Phase_8,2,5,63,98,2368736744
10316,15,Jits_Phase_8,3,5,56,103,2368757040
10316,15,Jits_Phase_8,0,5,63,98,2369466840
10316,15,Jits_Phase_8,1,5,56,103,2369487152
10316,15,Jits_Phase_8,2,1,48,31,2369523152
10316,15,Jits_Phase_8,3,5,80,127,2369527008
10316,15,Jits_Phase_8,0,5,80,127,2370226668
10316,15,Jits_Phase_8,1,1,48,24,2370233148
10316,15,Jits_Phase_8,2,5,63,98,2370246972
10316,15,Jits_Phase_8,3,5,56,103,2370326764
10316,15,Jits_Phase_8,0,5,63,98,2371017072
10316,15,Jits_Phase_8,1,1,48,35,2371041012
10316,15,Jits_Phase_8,2,5,56,103,2371126748
10316,15,Jits_Phase_8,3,5,80,127,2371129816
10316,15,Jits_Phase_8,0,1,48,39,2371811160
10316,15,Jits_Phase_8,1,5,63,98,2371837488
10316,15,Jits_Phase_8,2,5,56,103,2371846488
10316,15,Jits_Phase_8,3,5,80,127,2371849552
10316,15,Jits_Phase_8,0,1,48,41,2372571420
10316,15,Jits_Phase_8,1,5,56,103,2372616704
10316,15,Jits_Phase_8,2,5,80,127,2372737488
10316,15,Jits_Phase_8,3,5,63,98,2372777500
10316,15,Jits_Phase_8,0,1,48,36,2373430816
10316,15,Jits_Phase_8,1,5,56,103,2373436768
10316,15,Jits_Phase_8,2,5,80,127,2373516664
10316,15,Jits_Phase_8,3,5,63,98,2373537108
10316,15,Jits_Phase_8,0,5,56,103,2374236560
10316,15,Jits_Phase_8,1,1,48,36,2374242068
10316,15,Jits_Phase_8,2,5,63,98,2374347048
10316,15,Jits_Phase_8,3,5,80,127,2374350708
10316,15,Jits_Phase_8,0,1,48,32,2375077456
10316,15,Jits_Phase_8,1,5,56,103,2375078720
10316,15,Jits_Phase_8,2,5,80,127,2375106904
10316,15,Jits_Phase_8,3,5,63,98,2375127508
10316,15,Jits_Phase_8,0,1,48,35,2375861672
10316,15,Jits_Phase_8,1,5,63,98,2375866796
10316,15,Jits_Phase_8,2,5,56,103,2375876916
10316,15,Jits_Phase_8,3,5,80,127,2375887188
10316,15,Jits_Phase_8,0,1,48,32,2376617896
10316,15,Jits_Phase_8,1,5,80,127,2376657552
10316,15,Jits_Phase_8,2,5,56,103,2376706560
10316,15,Jits_Phase_8,3,5,63,98,2376747456
10316,15,Jits_Phase_8,0,1,48,33,2377428516
10316,15,Jits_Phase_8,1,5,80,127,2377476644
10316,15,Jits_Phase_8,2,5,63,98,2377496880
10316,15,Jits_Phase_8,3,5,56,103,2377547064
10316,15,Jits_Phase_8,0,1,48,33,2378225808
10316,15,Jits_Phase_8,1,5,80,127,2378286440
10316,15,Jits_Phase_8,2,5,56,103,2378317388
10316,15,Jits_Phase_8,3,5,63,98,2378386780
10316,15,Jits_Phase_8,0,1,48,23,2379040616
10316,15,Jits_Phase_8,1,5,56,103,2379138428
10316,15,Jits_Phase_8,2,5,80,127,2379146680
10316,15,Jits_Phase_8,3,5,63,98,2379186620
10316,15,Jits_Phase_8,0,5,56,103,2379847460
10316,15,Jits_Phase_8,1,5,63,98,2379866452
10316,15,Jits_Phase_8,2,5,80,127,2379937252
10316,15,Jits_Phase_8,3,1,48,28,2379943732
10316,15,Jits_Phase_8,0,1,48,26,2380639128
10316,15,Jits_Phase_8,1,5,63,98,2380667400
10316,15,Jits_Phase_8,2,5,80,127,2380726672
10316,15,Jits_Phase_8,3,5,56,103,2380747116
10316,15,Jits_Phase_8,0,1,48,28,2381431096
10316,15,Jits_Phase_8,1,5,80,127,2381456824
10316,15,Jits_Phase_8,2,5,56,103,2381486500
10316,15,Jits_Phase_8,3,5,63,98,2381517144
10316,15,Jits_Phase_8,0,1,48,27,2382178104
10316,15,Jits_Phase_8,1,5,56,103,2382256504
10316,15,Jits_Phase_8,2,5,63,98,2382316880
10316,15,Jits_Phase_8,3,5,80,127,2382377416
10316,15,Jits_Phase_8,0,1,48,20,2383013220
10316,15,Jits_Phase_8,1,5,80,127,2383076716
10316,15,Jits_Phase_8,2,5,56,103,2383097396
10316,15,Jits_Phase_8,3,5,63,98,2383166840
10316,15,Jits_Phase_8,0,1,48,20,2383857720
10316,15,Jits_Phase_8,1,5,80,127,2383876476
10316,15,Jits_Phase_8,2,5,63,98,2383896860
10316,15,Jits_Phase_8,3,5,56,103,2383926608
10316,15,Jits_Phase_8,0,5,80,127,2384666948
10316,15,Jits_Phase_8,1,1,48,28,2384684920
10316,15,Jits_Phase_8,2,5,63,98,2384686504
10316,15,Jits_Phase_8,3,5,56,103,2384746916
10316,15,Jits_Phase_8,0,1,48,25,2385366224
10316,15,Jits_Phase_8,1,5,80,127,2385466776
10316,15,Jits_Phase_8,2,5,56,103,2385566972
10316,15,Jits_Phase_8,3,5,63,98,2385596724
10316,15,Jits_Phase_8,0,5,63,98,2386257220
10316,15,Jits_Phase_8,1,1,48,26,2386279816
10316,15,Jits_Phase_8,2,5,80,127,2386306296
10316,15,Jits_Phase_8,3,5,56,103,2386326976
10316,15,Jits_Phase_8,0,1,48,21,2387008892
10316,15,Jits_Phase_8,1,5,80,127,2387097052
10316,15,Jits_Phase_8,2,5,56,103,2387126556
10316,15,Jits_Phase_8,3,5,63,98,2387129700
10316,15,Jits_Phase_8,0,1,48,26,2387836992
10316,15,Jits_Phase_8,1,5,63,98,2387946984
10316,15,Jits_Phase_8,2,5,56,103,2387986924
10316,15,Jits_Phase_8,3,5,80,127,2388007308
10316,15,Jits_Phase_8,0,5,80,127,2388706540
10316,15,Jits_Phase_8,1,1,48,32,2388710704
10316,15,Jits_Phase_8,2,5,63,98,2388786628
10316,15,Jits_Phase_8,3,5,56,103,2388826576
10316,15,Jits_Phase_8,0,5,63,98,2389526768
10316,15,Jits_Phase_8,1,1,48,34,2389533620
10316,15,Jits_Phase_8,2,5,80,127,2389606732
10316,15,Jits_Phase_8,3,5,56,103,2389627412
10316,15,Jits_Phase_8,0,1,48,34,2390348080
10316,15,Jits_Phase_8,1,5,56,103,2390366560
10316,15,Jits_Phase_8,2,5,63,98,2390376832
10316,15,Jits_Phase_8,3,5,80,127,2390416692
10316,15,Jits_Phase_8,0,1,48,37,2391085596
10316,15,Jits_Phase_8,1,5,56,103,2391087268
10316,15,Jits_Phase_8,2,5,80,127,2391089944
10316,15,Jits_Phase_8,3,5,63,98,2391226616
10316,15,Jits_Phase_8,0,5,56,103,2391877192
10316,15,Jits_Phase_8,1,1,48,27,2391904992
10316,15,Jits_Phase_8,2,5,63,98,2391967196
10316,15,Jits_Phase_8,3,5,80,127,2392036712
10316,15,Jits_Phase_8,0,1,48,26,2392633696
10316,15,Jits_Phase_8,1,5,63,98,2392756460
10316,15,Jits_Phase_8,2,5,80,127,2392759976
10316,15,Jits_Phase_8,3,5,56,103,2392817448
10316,15,Jits_Phase_8,0,1,48,30,2393543460
10316,15,Jits_Phase_8,1,5,80,127,2393597440
10316,15,Jits_Phase_8,2,5,56,103,2393616704
10316,15,Jits_Phase_8,3,5,63,98,2393627348
10316,15,Jits_Phase_8,0,5,56,103,2394306864
10316,15,Jits_Phase_8,1,5,63,98,2394317432
10316,15,Jits_Phase_8,2,5,80,127,2394386812
10316,15,Jits_Phase_8,3,1,48,24,2394401612
10316,15,Jits_Phase_8,0,5,80,127,2395106632
10316,15,Jits_Phase_8,1,1,48,29,2395120312
10316,15,Jits_Phase_8,2,5,56,103,2395156904
10316,15,Jits_Phase_8,3,5,63,98,2395207104
10316,15,Jits_Phase_8,0,1,48,35,2395905184
10316,15,Jits_Phase_8,1,5,56,103,2395987192
10316,15,Jits_Phase_8,2,5,63,98,2395996640
10316,15,Jits_Phase_8,3,5,80,127,2396036488
10316,15,Jits_Phase_8,0,1,48,30,2396719328
10316,15,Jits_Phase_8,1,5,56,103,2396726696
10316,15,Jits_Phase_8,2,5,63,98,2396766512
10316,15,Jits_Phase_8,3,5,80,127,2396817520
10316,15,Jits_Phase_8,0,5,80,127,2397486380
10316,15,Jits_Phase_8,1,1,48,30,2397517596
10316,15,Jits_Phase_8,2,5,56,103,2397536604
10316,15,Jits_Phase_8,3,5,63,98,2397557284
10316,15,Jits_Phase_8,0,1,48,35,2398283556
10316,15,Jits_Phase_8,1,5,80,127,2398296432
10316,15,Jits_Phase_8,2,5,63,98,2398357048
10316,15,Jits_Phase_8,3,5,56,103,2398436680
10316,15,Jits_Phase_8,0,5,80,127,2399076572
10316,15,Jits_Phase_8,1,5,56,103,2399116588
10316,15,Jits_Phase_8,2,5,63,98,2399137268
10316,15,Jits_Phase_8,3,1,48,26,2399163228
10316,15,Jits_Phase_8,0,1,48,26,2399913832
10316,15,Jits_Phase_8,1,5,56,103,2399926680
10316,15,Jits_Phase_8,2,5,80,127,2399937176
10316,15,Jits_Phase_8,3,5,63,98,2399976816
10316,15,Jits_Phase_8,0,1,48,29,2400666104
10316,15,Jits_Phase_8,1,5,56,103,2400797224
10316,15,Jits_Phase_8,2,5,63,98,2400837164
10316,15,Jits_Phase_8,3,5,80,127,2400840452
10316,15,Jits_Phase_8,0,5,63,98,2401466868
10316,15,Jits_Phase_8,1,5,80,127,2401506732
10316,15,Jits_Phase_8,2,1,48,29,2401524920
10316,15,Jits_Phase_8,3,5,56,103,2401577300
10316,15,Jits_Phase_8,0,5,63,98,2402236956
10316,15,Jits_Phase_8,1,1,48,27,2402278516
10316,15,Jits_Phase_8,2,5,56,103,2402316524
10316,15,Jits_Phase_8,3,5,80,127,2402377272
10316,15,Jits_Phase_8,0,1,48,25,2403040872
10316,15,Jits_Phase_8,1,5,80,127,2403046824
10316,15,Jits_Phase_8,2,5,63,98,2403097028
10316,15,Jits_Phase_8,3,5,56,103,2403126628
10316,15,Jits_Phase_8,0,1,48,23,2403794248
10316,15,Jits_Phase_8,1,5,56,103,2403837288
10316,15,Jits_Phase_8,2,5,63,98,2403886520
10316,15,Jits_Phase_8,3,5,80,127,2403896624
10316,15,Jits_Phase_8,0,1,48,16,2404614844
10316,15,Jits_Phase_8,1,5,56,103,2404647304
10316,15,Jits_Phase_8,2,5,63,98,2404757076
10316,15,Jits_Phase_8,3,5,80,127,2404777312
10316,15,Jits_Phase_8,0,1,48,20,2405397820
10316,15,Jits_Phase_8,1,5,63,98,2405447216
10316,15,Jits_Phase_8,2,5,80,127,2405497056
10316,15,Jits_Phase_8,3,5,56,103,2405587408
10316,15,Jits_Phase_8,0,5,63,98,2406236520
10316,15,Jits_Phase_8,1,1,48,30,2406255828
10316,15,Jits_Phase_8,2,5,80,127,2406267384
10316,15,Jits_Phase_8,3,5,56,103,2406357500
10316,15,Jits_Phase_8,0,5,63,98,2407037324
10316,15,Jits_Phase_8,1,5,56,103,2407046544
10316,15,Jits_Phase_8,2,1,48,29,2407071160
10316,15,Jits_Phase_8,3,5,80,127,2407147152
10316,15,Jits_Phase_8,0,1,48,27,2407786396
10316,15,Jits_Phase_8,1,5,63,98,2407937448
10316,15,Jits_Phase_8,2,5,80,127,2407967124
10316,15,Jits_Phase_8,3,5,56,103,2407996648
10316,15,Jits_Phase_8,0,1,48,26,2408728288
10316,15,Jits_Phase_8,1,5,80,127,2408756708
10316,15,Jits_Phase_8,2,5,63,98,2408767056
10316,15,Jits_Phase_8,3,5,56,103,2408796532
10316,15,Jits_Phase_8,0,5,80,127,2409457136
10316,15,Jits_Phase_8,1,5,63,98,2409476328
10316,15,Jits_Phase_8,2,5,56,103,2409526600
10316,15,Jits_Phase_8,3,1,48,24,2409594532
10316,15,Jits_Phase_8,0,1,48,21,2410271852
10316,15,Jits_Phase_8,1,5,63,98,2410286420
10316,15,Jits_Phase_8,2,5,80,127,2410347136
10316,15,Jits_Phase_8,3,5,56,103,2410367356
10316,15,Jits_Phase_8,0,1,48,19,2411030256
10316,15,Jits_Phase_8,1,5,63,98,2411047296
10316,15,Jits_Phase_8,2,5,56,103,2411096404
10316,15,Jits_Phase_8,3,5,80,127,2411106672
10316,15,Jits_Phase_8,0,1,48,25,2411777052
10316,15,Jits_Phase_8,1,5,56,103,2411876808
10316,15,Jits_Phase_8,2,5,80,127,2411887076
10316,15,Jits_Phase_8,3,5,63,98,2411987172
10316,15,Jits_Phase_8,0,5,80,127,2412636576
10316,15,Jits_Phase_8,1,5,63,98,2412646996
10316,15,Jits_Phase_8,2,1,48,21,2412668324
10316,15,Jits_Phase_8,3,5,56,103,2412797412
10316,15,Jits_Phase_8,0,5,63,98,2413446536
10316,15,Jits_Phase_8,1,5,80,127,2413486400
10316,15,Jits_Phase_8,2,1,48,27,2413511164
10316,15,Jits_Phase_8,3,5,56,103,2413567232
10316,15,Jits_Phase_8,0,5,56,103,2414197064
10316,15,Jits_Phase_8,1,1,48,22,2414285976
10316,15,Jits_Phase_8,2,5,80,127,2414296336
10316,15,Jits_Phase_8,3,5,63,98,2414316944
10316,15,Jits_Phase_8,0,1,48,24,2415010896
10316,15,Jits_Phase_8,1,5,80,127,2415026656
10316,15,Jits_Phase_8,2,5,56,103,2415037076
10316,15,Jits_Phase_8,3,5,63,98,2415127116
10316,15,Jits_Phase_8,0,5,56,103,2415827396
10316,15,Jits_Phase_8,1,1,48,22,2415835248
10316,15,Jits_Phase_8,2,5,63,98,2415846952
10316,15,Jits_Phase_8,3,5,80,127,2415926596
10316,15,Jits_Phase_8,0,5,63,98,2416576828
10316,15,Jits_Phase_8,1,1,48,27,2416578164
10316,15,Jits_Phase_8,2,5,56,103,2416667176
10316,15,Jits_Phase_8,3,5,80,127,2416671276
10316,15,Jits_Phase_8,0,1,48,30,2417366656
10316,15,Jits_Phase_8,1,5,56,103,2417407288
10316,15,Jits_Phase_8,2,5,80,127,2417466988
10316,15,Jits_Phase_8,3,5,63,98,2417477036
10316,15,Jits_Phase_8,0,1,48,29,2418245088
10316,15,Jits_Phase_8,1,5,80,127,2418257120
10316,15,Jits_Phase_8,2,5,56,103,2418266564
10316,15,Jits_Phase_8,3,5,63,98,2418269484
10316,15,Jits_Phase_8,0,5,56,103,2419017072
10316,15,Jits_Phase_8,1,5,80,127,2419027292
10316,15,Jits_Phase_8,2,1,48,26,2419033024
10316,15,Jits_Phase_8,3,5,63,98,2419046996
10316,15,Jits_Phase_8,0,1,48,24,2419752516
10316,15,Jits_Phase_8,1,5,63,98,2419787088
10316,15,Jits_Phase_8,2,5,80,127,2419846460
10316,15,Jits_Phase_8,3,5,56,103,2419896796
10316,15,Jits_Phase_8,0,5,63,98,2420666972
10316,15,Jits_Phase_8,1,5,56,103,2420676944
10316,15,Jits_Phase_8,2,5,80,127,2420727072
10316,15,Jits_Phase_8,0,5,63,98,2421367056
10316,15,Jits_Phase_8,1,5,80,127,2421386692
10316,15,Jits_Phase_8,2,5,56,103,2421396812
10316,15,Jits_Phase_8,3,1,48,31,2421437388
10316,15,Jits_Phase_8,0,1,48,30,2422128560
10316,15,Jits_Phase_8,1,5,63,98,2422166944
10316,15,Jits_Phase_8,2,5,80,127,2422170236
10316,15,Jits_Phase_8,3,5,56,103,2422206884
10316,15,Jits_Phase_8,0,1,48,24,2422803896
10316,15,Jits_Phase_8,1,5,63,98,2423037400
10316,15,Jits_Phase_8,2,5,80,127,2423066928
10316,15,Jits_Phase_8,3,5,56,103,2423077344
10316,15,Jits_Phase_8,0,1,48,39,2423767176
10316,15,Jits_Phase_8,1,5,56,103,2423786976
10316,15,Jits_Phase_8,2,5,80,127,2423816504
10316,15,Jits_Phase_8,3,5,63,98,2423847300
10316,15,Jits_Phase_8,0,1,48,26,2424540328
10316,15,Jits_Phase_8,1,5,63,98,2424686916
10316,15,Jits_Phase_8,2,5,56,103,2424726928
10316,15,Jits_Phase_8,3,5,80,127,2424730068
10316,15,Jits_Phase_8,0,5,80,127,2425387476
10316,15,Jits_Phase_8,1,1,48,29,2425465860
10316,15,Jits_Phase_8,2,5,56,103,2425467364
10316,15,Jits_Phase_8,3,5,63,98,2425517488
10316,15,Jits_Phase_8,0,5,80,127,2426166872
10316,15,Jits_Phase_8,1,5,56,103,2426187184
10316,15,Jits_Phase_8,2,1,48,38,2426230256
10316,15,Jits_Phase_8,3,5,63,98,2426277184
10316,15,Jits_Phase_8,0,1,48,26,2426926752
10316,15,Jits_Phase_8,1,5,80,127,2427007268
10316,15,Jits_Phase_8,2,5,63,98,2427047264
10316,15,Jits_Phase_8,3,5,56,103,2427087204
10316,15,Jits_Phase_8,0,1,48,24,2427667620
10316,15,Jits_Phase_8,1,5,63,98,2427817276
10316,15,Jits_Phase_8,2,5,80,127,2427876620
10316,15,Jits_Phase_8,3,5,56,103,2427906444
10316,15,Jits_Phase_8,0,1,48,28,2428557976
10316,15,Jits_Phase_8,1,5,56,103,2428657860
10316,15,Jits_Phase_8,2,5,80,127,2428686936
10316,15,Jits_Phase_8,3,5,63,98,2428776868
10316,15,Jits_Phase_8,0,1,48,28,2429453252
10316,15,Jits_Phase_8,1,5,56,103,2429466848
10316,15,Jits_Phase_8,2,5,80,127,2429576696
10316,15,Jits_Phase_8,3,5,63,98,2429607268
10316,15,Jits_Phase_8,0,1,48,38,2430313276
10316,15,Jits_Phase_8,1,5,56,103,2430316908
10316,15,Jits_Phase_8,2,5,63,98,2430377300
10316,15,Jits_Phase_8,3,5,80,127,2430407048
10316,15,Jits_Phase_8,0,1,48,30,2431079488
10316,15,Jits_Phase_8,1,5,56,103,2431087004
10316,15,Jits_Phase_8,2,5,63,98,2431156688
10316,15,Jits_Phase_8,3,5,80,127,2431176984
10316,15,Jits_Phase_8,0,5,80,127,2431856884
10316,15,Jits_Phase_8,1,5,63,98,2431876668
10316,15,Jits_Phase_8,2,1,48,31,2431904648
10316,15,Jits_Phase_8,3,5,56,103,2431927084
10316,15,Jits_Phase_8,0,1,48,33,2432628068
10316,15,Jits_Phase_8,1,5,63,98,2432677164
10316,15,Jits_Phase_8,2,5,80,127,2432686688
10316,15,Jits_Phase_8,3,5,56,103,2432736948
10316,15,Jits_Phase_8,0,1,48,28,2433402860
10316,15,Jits_Phase_8,1,5,63,98,2433476920
10316,15,Jits_Phase_8,2,5,80,127,2433546664
10316,15,Jits_Phase_8,3,5,56,103,2433567120
10316,15,Jits_Phase_8,0,1,48,26,2434266468
10316,15,Jits_Phase_8,1,5,63,98,2434306648
10316,15,Jits_Phase_8,2,5,80,127,2434309936
10316,15,Jits_Phase_8,3,5,56,103,2434376984
10316,15,Jits_Phase_8,0,1,48,21,2435049804
10316,15,Jits_Phase_8,1,5,80,127,2435056948
10316,15,Jits_Phase_8,2,5,56,103,2435076584
10316,15,Jits_Phase_8,3,5,63,98,2435086556
10316,15,Jits_Phase_8,0,1,48,25,2435838020
10316,15,Jits_Phase_8,1,5,56,103,2435877156
10316,15,Jits_Phase_8,2,5,63,98,2435967296
10316,15,Jits_Phase_8,3,5,80,127,2435970808
10316,15,Jits_Phase_8,0,1,48,26,2436633264
10316,15,Jits_Phase_8,1,5,80,127,2436647312
10316,15,Jits_Phase_8,2,5,56,103,2436656460
10316,15,Jits_Phase_8,3,5,63,98,2436676920
10316,15,Jits_Phase_8,0,1,48,21,2437376312
10316,15,Jits_Phase_8,1,5,63,98,2437446988
10316,15,Jits_Phase_8,2,5,80,127,2437506712
10316,15,Jits_Phase_8,3,5,56,103,2437516612
10316,15,Jits_Phase_8,0,1,48,27,2438147888
10316,15,Jits_Phase_8,1,5,63,98,2438317548
10316,15,Jits_Phase_8,2,5,80,127,2438347224
10316,15,Jits_Phase_8,3,5,56,103,2438387236
10316,15,Jits_Phase_8,0,1,48,36,2439092564
10316,15,Jits_Phase_8,1,5,56,103,2439106980
10316,15,Jits_Phase_8,2,5,80,127,2439117252
10316,15,Jits_Phase_8,3,5,63,98,2439157116
10316,15,Jits_Phase_8,0,5,80,127,2439866664
10316,15,Jits_Phase_8,1,1,48,28,2439886420
10316,15,Jits_Phase_8,2,5,56,103,2439946752
10316,15,Jits_Phase_8,3,5,63,98,2439956948
10316,15,Jits_Phase_8,0,1,48,26,2440693368
10316,15,Jits_Phase_8,1,5,80,127,2440716704
10316,15,Jits_Phase_8,2,5,56,103,2440796660
10316,15,Jits_Phase_8,3,5,63,98,2440806708
10316,15,Jits_Phase_8,0,1,48,24,2441524232
10316,15,Jits_Phase_8,1,5,80,127,2441557480
10316,15,Jits_Phase_8,2,5,56,103,2441606636
10316,15,Jits_Phase_8,3,5,63,98,2441656596
10316,15,Jits_Phase_8,0,1,48,31,2442398484
10316,15,Jits_Phase_8,1,5,56,103,2442498608
10316,15,Jits_Phase_8,2,5,63,98,2442501132
10316,15,Jits_Phase_8,3,5,80,127,2442546620
10316,15,Jits_Phase_8,0,1,48,20,2443282820
10316,15,Jits_Phase_8,1,5,56,103,2443316792
10316,15,Jits_Phase_8,2,5,63,98,2443347244
10316,15,Jits_Phase_8,3,5,80,127,2443356688
10316,15,Jits_Phase_8,0,5,63,98,2444027332
10316,15,Jits_Phase_8,1,5,56,103,2444096792
10316,15,Jits_Phase_8,2,1,48,20,2444129000
10316,15,Jits_Phase_8,3,5,80,127,2444147084
10316,15,Jits_Phase_8,0,1,48,23,2444848564
10316,15,Jits_Phase_8,1,5,63,98,2444856608
10316,15,Jits_Phase_8,2,5,56,103,2444866796
10316,15,Jits_Phase_8,3,5,80,127,2444869868
10316,15,Jits_Phase_8,0,1,48,25,2445557576
10316,15,Jits_Phase_8,1,5,80,127,2445607572
10316,15,Jits_Phase_8,2,5,56,103,2445666556
10316,15,Jits_Phase_8,3,5,63,98,2445756836
10316,15,Jits_Phase_8,0,5,80,127,2446407044
10316,15,Jits_Phase_8,1,1,48,31,2446450944
10316,15,Jits_Phase_8,2,5,56,103,2446507460
10316,15,Jits_Phase_8,3,5,63,98,2446547828
10316,15,Jits_Phase_8,0,5,56,103,2447256888
10316,15,Jits_Phase_8,1,5,63,98,2447277496
10316,15,Jits_Phase_8,2,1,48,35,2447317584
10316,15,Jits_Phase_8,3,5,80,127,2447318996
10316,15,Jits_Phase_8,0,1,48,26,2448019464
10316,15,Jits_Phase_8,1,5,63,98,2448026980
10316,15,Jits_Phase_8,2,5,56,103,2448046392
10316,15,Jits_Phase_8,3,5,80,127,2448146920
10316,15,Jits_Phase_8,0,1,48,23,2448767524
10316,15,Jits_Phase_8,1,5,63,98,2448816552
10316,15,Jits_Phase_8,2,5,80,127,2448927120
10316,15,Jits_Phase_8,3,5,56,103,2448956720
10316,15,Jits_Phase_8,0,1,48,26,2449627820
10316,15,Jits_Phase_8,1,5,56,103,2449636764
10316,15,Jits_Phase_8,2,5,63,98,2449666368
10316,15,Jits_Phase_8,3,5,80,127,2449716564
10316,15,Jits_Phase_8,0,1,48,19,2450341116
10316,15,Jits_Phase_8,1,5,63,98,2450406852
10316,15,Jits_Phase_8,2,5,56,103,2450436588
10316,15,Jits_Phase_8,3,5,80,127,2450486492
10316,15,Jits_Phase_8,0,1,48,28,2451109700
10316,15,Jits_Phase_8,1,5,56,103,2451237160
10316,15,Jits_Phase_8,2,5,63,98,2451256796
10316,15,Jits_Phase_8,3,5,80,127,2451336540
10316,15,Jits_Phase_8,0,5,63,98,2452007272
10316,15,Jits_Phase_8,1,1,48,28,2452037668
10316,15,Jits_Phase_8,2,5,56,103,2452066560
10316,15,Jits_Phase_8,3,5,80,127,2452097352
10316,15,Jits_Phase_8,0,1,48,28,2452815268
10316,15,Jits_Phase_8,1,5,56,103,2452846904
10316,15,Jits_Phase_8,2,5,80,127,2452907368
10316,15,Jits_Phase_8,3,5,63,98,2452947364
10316,15,Jits_Phase_8,0,5,63,98,2453627340
10316,15,Jits_Phase_8,1,5,56,103,2453686684
10316,15,Jits_Phase_8,2,1,48,26,2453690924
10316,15,Jits_Phase_8,3,5,80,127,2453757476
10316,15,Jits_Phase_8,0,1,48,28,2454423612
10316,15,Jits_Phase_8,1,5,56,103,2454506808
10316,15,Jits_Phase_8,2,5,63,98,2454517208
10316,15,Jits_Phase_8,3,5,80,127,2454520500
10316,15,Jits_Phase_8,0,5,63,98,2455247376
10316,15,Jits_Phase_8,1,1,48,29,2455293864
10316,15,Jits_Phase_8,2,5,56,103,2455306568
10316,15,Jits_Phase_8,3,5,80,127,2455309632
10316,15,Jits_Phase_8,0,5,63,98,2456026528
10316,15,Jits_Phase_8,1,5,80,127,2456057472
10316,15,Jits_Phase_8,2,1,48,23,2456067196
10316,15,Jits_Phase_8,3,5,56,103,2456076580
10316,15,Jits_Phase_8,0,5,56,103,2456756456
10316,15,Jits_Phase_8,1,1,48,21,2456799880
10316,15,Jits_Phase_8,2,5,63,98,2456806728
10316,15,Jits_Phase_8,3,5,80,127,2456886668
10316,15,Jits_Phase_8,0,5,80,127,2457457048
10316,15,Jits_Phase_8,1,5,63,98,2457496836
10316,15,Jits_Phase_8,2,5,56,103,2457517372
10316,15,Jits_Phase_8,3,1,48,21,2457523332
10316,15,Jits_Phase_8,0,1,48,19,2458128108
10316,15,Jits_Phase_8,1,5,56,103,2458327516
10316,15,Jits_Phase_8,2,5,80,127,2458336664
10316,15,Jits_Phase_8,3,5,63,98,2458357048
10316,15,Jits_Phase_8,0,5,56,103,2459106544
10316,15,Jits_Phase_8,1,1,48,17,2459113924
10316,15,Jits_Phase_8,2,5,63,98,2459156812
10316,15,Jits_Phase_8,3,5,80,127,2459186488
10316,15,Jits_Phase_8,0,5,56,103,2459857320
10316,15,Jits_Phase_8,1,5,63,98,2459866392
10316,15,Jits_Phase_8,2,1,48,25,2459901348
10316,15,Jits_Phase_8,3,5,80,127,2459916512
10316,15,Jits_Phase_8,0,5,56,103,2460646892
10316,15,Jits_Phase_8,1,5,80,127,2460649880
10316,15,Jits_Phase_8,2,1,48,15,2460662816
10316,15,Jits_Phase_8,3,5,63,98,2460806548
10316,15,Jits_Phase_8,0,1,48,23,2461451708
10316,15,Jits_Phase_8,1,5,63,98,2461467024
10316,15,Jits_Phase_8,2,5,56,103,2461536732
10316,15,Jits_Phase_8,3,5,80,127,2461576652
10316,15,Jits_Phase_8,0,1,48,21,2462259784
10316,15,Jits_Phase_8,1,5,63,98,2462306668
10316,15,Jits_Phase_8,2,5,56,103,2462396860
10316,15,Jits_Phase_8,3,5,80,127,2462399848
10316,15,Jits_Phase_8,0,5,56,103,2463086948
10316,15,Jits_Phase_8,1,1,48,20,2463119736
10316,15,Jits_Phase_8,2,5,63,98,2463177000
10316,15,Jits_Phase_8,3,5,80,127,2463187420
10316,15,Jits_Phase_8,0,5,56,103,2463856908
10316,15,Jits_Phase_8,1,1,48,18,2463882276
10316,15,Jits_Phase_8,2,5,63,98,2463907324
10316,15,Jits_Phase_8,3,5,80,127,2463936776
10316,15,Jits_Phase_8,0,1,48,26,2464567828
10316,15,Jits_Phase_8,1,5,63,98,2464736812
10316,15,Jits_Phase_8,2,5,80,127,2464746860
10316,15,Jits_Phase_8,3,5,56,103,2464807248
10316,15,Jits_Phase_8,0,5,63,98,2465456508
10316,15,Jits_Phase_8,1,1,48,25,2465476560
10316,15,Jits_Phase_8,2,5,80,127,2465517264
10316,15,Jits_Phase_8,3,5,56,103,2465556828
10316,15,Jits_Phase_8,0,1,48,25,2466228360
10316,15,Jits_Phase_8,1,5,56,103,2466356564
10316,15,Jits_Phase_8,2,5,80,127,2466377244
10316,15,Jits_Phase_8,3,5,63,98,2466396460
10316,15,Jits_Phase_8,0,5,63,98,2467076556
10316,15,Jits_Phase_8,1,5,56,103,2467097088
10316,15,Jits_Phase_8,2,5,80,127,2467136952
10316,15,Jits_Phase_8,3,1,48,20,2467145920
10316,15,Jits_Phase_8,0,5,63,98,2467886500
10316,15,Jits_Phase_8,1,1,48,19,2467913060
10316,15,Jits_Phase_8,2,5,80,127,2467917316
10316,15,Jits_Phase_8,3,5,56,103,2467936576
10316,15,Jits_Phase_8,0,1,48,21,2468650180
10316,15,Jits_Phase_8,1,5,80,127,2468656428
10316,15,Jits_Phase_8,2,5,56,103,2468706656
10316,15,Jits_Phase_8,3,5,63,98,2468767324
10316,15,Jits_Phase_8,0,5,63,98,2469447272
10316,15,Jits_Phase_8,1,1,48,21,2469476424
10316,15,Jits_Phase_8,2,5,56,103,2469566796
10316,15,Jits_Phase_8,3,5,80,127,2469596528
10316,15,Jits_Phase_8,0,1,48,17,2470270916
10316,15,Jits_Phase_8,1,5,80,127,2470286612
10316,15,Jits_Phase_8,2,5,63,98,2470307296
10316,15,Jits_Phase_8,3,5,56,103,2470376812
10316,15,Jits_Phase_8,0,1,48,24,2471077724
10316,15,Jits_Phase_8,1,5,63,98,2471106896
10316,15,Jits_Phase_8,2,5,56,103,2471117092
10316,15,Jits_Phase_8,3,5,80,127,2471197316
10316,15,Jits_Phase_8,0,1,48,23,2471834172
10316,15,Jits_Phase_8,1,5,56,103,2471967328
10316,15,Jits_Phase_8,2,5,80,127,2471996780
10316,15,Jits_Phase_8,3,5,63,98,2472007272
10316,15,Jits_Phase_8,0,9999,9999,9999,2337114196
10316,15,Jits_Phase_8,1,9999,9999,9999,2337914936
10316,15,Jits_Phase_8,2,9999,9999,9999,2338714696
10316,15,Jits_Phase_8,3,9999,9999,9999,2339514472
10316,15,Jits_Phase_8,4,9999,9999,9999,2340314164
10316,15,Jits_Phase_8,5,9999,9999,9999,2341114972
10316,15,Jits_Phase_8,6,9999,9999,9999,2341914728
10316,15,Jits_Phase_8,7,9999,9999,9999,2342714484
10316,15,Jits_Phase_8,8,9999,9999,9999,2343514204
10316,15,Jits_Phase_8,9,9999,9999,9999,2344314996
10316,15,Jits_Phase_8,10,9999,9999,9999,2345114700
10316,15,Jits_Phase_8,11,9999,9999,9999,2345914464
10316,15,Jits_Phase_8,12,9999,9999,9999,2346714228
10316,15,Jits_Phase_8,13,9999,9999,9999,2347514968
10316,15,Jits_Phase_8,14,9999,9999,9999,2348314712
10316,15,Jits_Phase_8,15,9999,9999,9999,2349114476
10316,15,Jits_Phase_8,16,9999,9999,9999,2349914172
10316,15,Jits_Phase_8,17,9999,9999,9999,2350714984
10316,15,Jits_Phase_8,18,9999,9999,9999,2351514744
10316,15,Jits_Phase_8,19,9999,9999,9999,2352314448
10316,15,Jits_Phase_8,20,9999,9999,9999,2353114204
10316,15,Jits_Phase_8,21,9999,9999,9999,2353914932
10316,15,Jits_Phase_8,22,9999,9999,9999,2354714700
10316,15,Jits_Phase_8,23,9999,9999,9999,2355514472
10316,15,Jits_Phase_8,24,9999,9999,9999,2356314180
10316,15,Jits_Phase_8,25,9999,9999,9999,2357114984
10316,15,Jits_Phase_8,26,9999,9999,9999,2357914744
10316,15,Jits_Phase_8,27,9999,9999,9999,2358714428
10316,15,Jits_Phase_8,28,9999,9999,9999,2359514188
10316,15,Jits_Phase_8,29,9999,9999,9999,2360314944
10316,15,Jits_Phase_8,30,9999,9999,9999,2361094244
10316,15,Jits_Phase_8,31,9999,9999,9999,2361894976
10316,15,Jits_Phase_8,32,9999,9999,9999,2362694744
10316,15,Jits_Phase_8,33,9999,9999,9999,2363494520
10316,15,Jits_Phase_8,34,9999,9999,9999,2364294200
10316,15,Jits_Phase_8,35,9999,9999,9999,2365095012
10316,15,Jits_Phase_8,36,9999,9999,9999,2365894780
10316,15,Jits_Phase_8,37,9999,9999,9999,2366694476
10316,15,Jits_Phase_8,38,9999,9999,9999,2367494244
10316,15,Jits_Phase_8,39,9999,9999,9999,2368294976
10316,15,Jits_Phase_8,40,9999,9999,9999,2369094736
10316,15,Jits_Phase_8,41,9999,9999,9999,2369894456
10316,15,Jits_Phase_8,42,9999,9999,9999,2370694208
10316,15,Jits_Phase_8,43,9999,9999,9999,2371495020
10316,15,Jits_Phase_8,44,9999,9999,9999,2372294760
10316,15,Jits_Phase_8,45,9999,9999,9999,2373094520
10316,15,Jits_Phase_8,46,9999,9999,9999,2373894208
10316,15,Jits_Phase_8,47,9999,9999,9999,2374695004
10316,15,Jits_Phase_8,48,9999,9999,9999,2375514208
10316,15,Jits_Phase_8,49,9999,9999,9999,2376314936
10316,15,Jits_Phase_8,50,9999,9999,9999,2377114692
10316,15,Jits_Phase_8,51,9999,9999,9999,2377914448
10316,15,Jits_Phase_8,52,9999,9999,9999,2378714212
10316,15,Jits_Phase_8,53,9999,9999,9999,2379514948
10316,15,Jits_Phase_8,54,9999,9999,9999,2380314704
10316,15,Jits_Phase_8,55,9999,9999,9999,2381114476
10316,15,Jits_Phase_8,56,9999,9999,9999,2381914184
10316,15,Jits_Phase_8,57,9999,9999,9999,2382714988
10316,15,Jits_Phase_8,58,9999,9999,9999,2383514748
10316,15,Jits_Phase_8,59,9999,9999,9999,2384314428
10316,15,Jits_Phase_8,60,9999,9999,9999,2385114188
10316,15,Jits_Phase_8,61,9999,9999,9999,2385914940
10316,15,Jits_Phase_8,62,9999,9999,9999,2386714696
10316,15,Jits_Phase_8,63,9999,9999,9999,2387514444
10316,15,Jits_Phase_8,64,9999,9999,9999,2388354168
10316,15,Jits_Phase_8,65,9999,9999,9999,2389154904
10316,15,Jits_Phase_8,66,9999,9999,9999,2389954684
10316,15,Jits_Phase_8,67,9999,9999,9999,2390754372
10316,15,Jits_Phase_8,68,9999,9999,9999,2391554120
10316,15,Jits_Phase_8,69,9999,9999,9999,2392354928
10316,15,Jits_Phase_8,70,9999,9999,9999,2393154624
10316,15,Jits_Phase_8,71,9999,9999,9999,2393954420
10316,15,Jits_Phase_8,72,9999,9999,9999,2394754100
10316,15,Jits_Phase_8,73,9999,9999,9999,2395554920
10316,15,Jits_Phase_8,74,9999,9999,9999,2396354628
10316,15,Jits_Phase_8,75,9999,9999,9999,2397154392
10316,15,Jits_Phase_8,76,9999,9999,9999,2397954148
10316,15,Jits_Phase_8,77,9999,9999,9999,2398754896
10316,15,Jits_Phase_8,78,9999,9999,9999,2399554648
10316,15,Jits_Phase_8,79,9999,9999,9999,2400354372
10316,15,Jits_Phase_8,80,9999,9999,9999,2401154136
10316,15,Jits_Phase_8,81,9999,9999,9999,2401915004
10316,15,Jits_Phase_8,82,9999,9999,9999,2402714692
10316,15,Jits_Phase_8,83,9999,9999,9999,2403514448
10316,15,Jits_Phase_8,84,9999,9999,9999,2404314200
10316,15,Jits_Phase_8,85,9999,9999,9999,2405114936
10316,15,Jits_Phase_8,86,9999,9999,9999,2405914692
10316,15,Jits_Phase_8,87,9999,9999,9999,2406714448
10316,15,Jits_Phase_8,88,9999,9999,9999,2407514228
10316,15,Jits_Phase_8,89,9999,9999,9999,2408314964
10316,15,Jits_Phase_8,90,9999,9999,9999,2409114732
10316,15,Jits_Phase_8,91,9999,9999,9999,2409914488
10316,15,Jits_Phase_8,92,9999,9999,9999,2410714188
10316,15,Jits_Phase_8,93,9999,9999,9999,2411514992
10316,15,Jits_Phase_8,94,9999,9999,9999,2412314676
10316,15,Jits_Phase_8,95,9999,9999,9999,2413114432
10316,15,Jits_Phase_8,96,9999,9999,9999,2413914228
10316,15,Jits_Phase_8,97,9999,9999,9999,2414635068
10316,15,Jits_Phase_8,98,9999,9999,9999,2415445060
10316,15,Jits_Phase_8,99,9999,9999,9999,2416244824
10316,15,Jits_Phase_8,100,9999,9999,9999,2417044588
10316,15,Jits_Phase_8,101,9999,9999,9999,2417844348
10316,15,Jits_Phase_8,102,9999,9999,9999,2418645072
10316,15,Jits_Phase_8,103,9999,9999,9999,2419444828
10316,15,Jits_Phase_8,104,9999,9999,9999,2420244600
10316,15,Jits_Phase_8,105,9999,9999,9999,2421044316
10316,15,Jits_Phase_8,106,9999,9999,9999,2421845080
10316,15,Jits_Phase_8,107,9999,9999,9999,2422644820
10316,15,Jits_Phase_8,108,9999,9999,9999,2423444580
10316,15,Jits_Phase_8,109,9999,9999,9999,2424244336
10316,15,Jits_Phase_8,110,9999,9999,9999,2425045072
10316,15,Jits_Phase_8,111,9999,9999,9999,2425844832
10316,15,Jits_Phase_8,112,9999,9999,9999,2426644604
10316,15,Jits_Phase_8,113,9999,9999,9999,2427444300
10316,15,Jits_Phase_8,114,9999,9999,9999,2428324916
10316,15,Jits_Phase_8,115,9999,9999,9999,2429124676
10316,15,Jits_Phase_8,116,9999,9999,9999,2429924440
10316,15,Jits_Phase_8,117,9999,9999,9999,2430724204
10316,15,Jits_Phase_8,118,9999,9999,9999,2431524940
10316,15,Jits_Phase_8,119,9999,9999,9999,2432324696
10316,15,Jits_Phase_8,120,9999,9999,9999,2433124408
10316,15,Jits_Phase_8,121,9999,9999,9999,2433924168
10316,15,Jits_Phase_8,122,9999,9999,9999,2434724964
10316,15,Jits_Phase_8,123,9999,9999,9999,2435524716
10316,15,Jits_Phase_8,124,9999,9999,9999,2436324468
10316,15,Jits_Phase_8,125,9999,9999,9999,2437124220
10316,15,Jits_Phase_8,126,9999,9999,9999,2437924944
10316,15,Jits_Phase_8,127,9999,9999,9999,2438724708
10316,15,Jits_Phase_8,128,9999,9999,9999,2439524412
10316,15,Jits_Phase_8,129,9999,9999,9999,2440324172
10316,15,Jits_Phase_8,130,9999,9999,9999,2441124924
10316,15,Jits_Phase_8,131,9999,9999,9999,2442084436
10316,15,Jits_Phase_8,132,9999,9999,9999,2442884192
10316,15,Jits_Phase_8,133,9999,9999,9999,2443684928
10316,15,Jits_Phase_8,134,9999,9999,9999,2444484688
10316,15,Jits_Phase_8,135,9999,9999,9999,2445284436
10316,15,Jits_Phase_8,136,9999,9999,9999,2446084196
10316,15,Jits_Phase_8,137,9999,9999,9999,2446884928
10316,15,Jits_Phase_8,138,9999,9999,9999,2447684700
10316,15,Jits_Phase_8,139,9999,9999,9999,2448484416
10316,15,Jits_Phase_8,140,9999,9999,9999,2449284176
10316,15,Jits_Phase_8,141,9999,9999,9999,2450084984
10316,15,Jits_Phase_8,142,9999,9999,9999,2450884664
10316,15,Jits_Phase_8,143,9999,9999,9999,2451684420
10316,15,Jits_Phase_8,144,9999,9999,9999,2452484180
10316,15,Jits_Phase_8,145,9999,9999,9999,2453284984
10316,15,Jits_Phase_8,146,9999,9999,9999,2454084672
10316,15,Jits_Phase_8,147,9999,9999,9999,2454884448
10316,15,Jits_Phase_8,148,9999,9999,9999,2455684196
10316,15,Jits_Phase_8,149,9999,9999,9999,2456484924
10316,15,Jits_Phase_8,150,9999,9999,9999,2457124940
10316,15,Jits_Phase_8,151,9999,9999,9999,2457924712
10316,15,Jits_Phase_8,152,9999,9999,9999,2458724432
10316,15,Jits_Phase_8,153,9999,9999,9999,2459524192
10316,15,Jits_Phase_8,154,9999,9999,9999,2460324932
10316,15,Jits_Phase_8,155,9999,9999,9999,2461124688
10316,15,Jits_Phase_8,156,9999,9999,9999,2461924460
10316,15,Jits_Phase_8,157,9999,9999,9999,2462724216
10316,15,Jits_Phase_8,158,9999,9999,9999,2463524952
10316,15,Jits_Phase_8,159,9999,9999,9999,2464324720
10316,15,Jits_Phase_8,160,9999,9999,9999,2465124444
10316,15,Jits_Phase_8,161,9999,9999,9999,2465924200
10316,15,Jits_Phase_8,162,9999,9999,9999,2466724936
10316,15,Jits_Phase_8,163,9999,9999,9999,2467524688
10316,15,Jits_Phase_8,164,9999,9999,9999,2468324448
10316,15,Jits_Phase_8,165,9999,9999,9999,2469124200
10316,15,Jits_Phase_8,166,9999,9999,9999,2469924932
10316,15,Jits_Phase_8,167,9999,9999,9999,2470724692
10316,15,Jits_Phase_8,168,9999,9999,9999,2471524476
10316,15,Jits_Phase_8,169,9999,9999,9999,2472324172
10317,17,Jits_Phase_5,0,5,56,103,2479990260
10317,17,Jits_Phase_5,1,5,63,98,2479993508
10317,17,Jits_Phase_5,2,5,80,127,2479996404
10317,17,Jits_Phase_5,0,5,56,103,2480490200
10317,17,Jits_Phase_5,1,5,63,98,2480493292
10317,17,Jits_Phase_5,2,5,80,127,2480496340
10317,17,Jits_Phase_5,0,5,56,103,2480989548
10317,17,Jits_Phase_5,1,5,80,127,2480999744
10317,17,Jits_Phase_5,2,1,48,36,2481019068
10317,17,Jits_Phase_5,3,5,63,98,2481020564
10317,17,Jits_Phase_5,0,5,63,98,2481450256
10317,17,Jits_Phase_5,1,5,80,127,2481480228
10317,17,Jits_Phase_5,2,5,56,103,2481490448
10317,17,Jits_Phase_5,3,1,48,44,2481517456
10317,17,Jits_Phase_5,4,1,48,31,2481563136
10317,17,Jits_Phase_5,0,5,80,127,2482009468
10317,17,Jits_Phase_5,1,1,48,29,2482011104
10317,17,Jits_Phase_5,2,5,56,103,2482019656
10317,17,Jits_Phase_5,3,5,63,98,2482050452
10317,17,Jits_Phase_5,0,1,48,35,2482494184
10317,17,Jits_Phase_5,1,5,63,98,2482500132
10317,17,Jits_Phase_5,2,5,56,103,2482529608
10317,17,Jits_Phase_5,3,5,80,127,2482540176
10317,17,Jits_Phase_5,0,5,56,103,2482949476
10317,17,Jits_Phase_5,1,5,63,98,2482999600
10317,17,Jits_Phase_5,2,5,80,127,2483020308
10317,17,Jits_Phase_5,3,1,48,32,2483025076
10317,17,Jits_Phase_5,0,5,80,127,2483450136
10317,17,Jits_Phase_5,1,1,48,27,2483454380
10317,17,Jits_Phase_5,2,5,63,98,2483500480
10317,17,Jits_Phase_5,3,5,56,103,2483540292
10317,17,Jits_Phase_5,0,5,56,103,2483949900
10317,17,Jits_Phase_5,1,5,63,98,2483979576
10317,17,Jits_Phase_5,2,1,48,33,2484014976
10317,17,Jits_Phase_5,3,5,80,127,2484050240
10317,17,Jits_Phase_5,0,5,56,103,2484449740
10317,17,Jits_Phase_5,1,1,48,27,2484494884
10317,17,Jits_Phase_5,2,5,80,127,2484509972
10317,17,Jits_Phase_5,3,5,63,98,2484540020
10317,17,Jits_Phase_5,0,5,56,103,2484959692
10317,17,Jits_Phase_5,1,1,48,33,2484960732
10317,17,Jits_Phase_5,2,5,63,98,2484969956
10317,17,Jits_Phase_5,3,5,80,127,2485009744
10317,17,Jits_Phase_5,0,1,48,27,2485453500
10317,17,Jits_Phase_5,1,5,63,98,2485460348
10317,17,Jits_Phase_5,2,5,80,127,2485540216
10317,17,Jits_Phase_5,3,5,56,103,2485549440
10317,17,Jits_Phase_5,0,5,63,98,2486010152
10317,17,Jits_Phase_5,1,1,48,28,2486048560
10317,17,Jits_Phase_5,2,5,56,103,2486050084
10317,17,Jits_Phase_5,3,5,80,127,2486053000
10317,17,Jits_Phase_5,0,5,56,103,2486469964
10317,17,Jits_Phase_5,1,5,63,98,2486480308
10317,17,Jits_Phase_5,2,5,80,127,2486520172
10317,17,Jits_Phase_5,3,1,48,22,2486561420
10317,17,Jits_Phase_5,0,5,56,103,2486959460
10317,17,Jits_Phase_5,1,5,63,98,2486962452
10317,17,Jits_Phase_5,2,5,80,127,2486980140
10317,17,Jits_Phase_5,3,1,48,23,2486985808
10317,17,Jits_Phase_5,0,1,48,19,2487448024
10317,17,Jits_Phase_5,1,5,80,127,2487469544
10317,17,Jits_Phase_5,2,5,56,103,2487479592
10317,17,Jits_Phase_5,3,5,63,98,2487550300
10317,17,Jits_Phase_5,0,5,63,98,2487960080
10317,17,Jits_Phase_5,1,5,56,103,2487980392
10317,17,Jits_Phase_5,2,1,48,22,2488020968
10317,17,Jits_Phase_5,3,5,80,127,2488060396
10317,17,Jits_Phase_5,0,5,56,103,2488469944
10317,17,Jits_Phase_5,1,1,48,29,2488489104
10317,17,Jits_Phase_5,2,5,80,127,2488510024
10317,17,Jits_Phase_5,3,5,63,98,2488520148
10317,17,Jits_Phase_5,0,5,80,127,2488960492
10317,17,Jits_Phase_5,1,1,48,32,2488966676
10317,17,Jits_Phase_5,2,5,63,98,2488990236
10317,17,Jits_Phase_5,3,5,56,103,2489029948
10317,17,Jits_Phase_5,0,1,48,31,2489447720
10317,17,Jits_Phase_5,1,5,56,103,2489479504
10317,17,Jits_Phase_5,2,5,63,98,2489510300
10317,17,Jits_Phase_5,3,5,80,127,2489560408
10317,17,Jits_Phase_5,0,5,80,127,2489980312
10317,17,Jits_Phase_5,1,1,48,29,2490010704
10317,17,Jits_Phase_5,2,5,56,103,2490020168
10317,17,Jits_Phase_5,3,5,63,98,2490029540
10317,17,Jits_Phase_5,0,5,80,127,2490459548
10317,17,Jits_Phase_5,1,5,63,98,2490499412
10317,17,Jits_Phase_5,2,1,48,21,2490557752
10317,17,Jits_Phase_5,3,5,56,103,2490560092
10317,17,Jits_Phase_5,0,5,56,103,2490960136
10317,17,Jits_Phase_5,1,5,80,127,2490969360
10317,17,Jits_Phase_5,2,5,63,98,2491050272
10317,17,Jits_Phase_5,3,1,48,24,2491067016
10317,17,Jits_Phase_5,0,5,80,127,2491459948
10317,17,Jits_Phase_5,1,5,63,98,2491520364
10317,17,Jits_Phase_5,2,1,48,20,2491547296
10317,17,Jits_Phase_5,3,5,56,103,2491550028
10317,17,Jits_Phase_5,0,5,56,103,2491959784
10317,17,Jits_Phase_5,1,5,80,127,2492020200
10317,17,Jits_Phase_5,2,1,48,24,2492050068
10317,17,Jits_Phase_5,3,5,63,98,2492059908
10317,17,Jits_Phase_5,0,5,56,103,2492509480
10317,17,Jits_Phase_5,1,5,63,98,2492519968
10317,17,Jits_Phase_5,2,5,80,127,2492523332
10317,17,Jits_Phase_5,3,1,48,24,2492554924
10317,17,Jits_Phase_5,0,5,80,127,2492970320
10317,17,Jits_Phase_5,1,1,48,26,2493034220
10317,17,Jits_Phase_5,2,5,63,98,2493059576
10317,17,Jits_Phase_5,3,5,56,103,2493069844
10317,17,Jits_Phase_5,0,5,56,103,2493470148
10317,17,Jits_Phase_5,1,5,63,98,2493473248
10317,17,Jits_Phase_5,2,5,80,127,2493476220
10317,17,Jits_Phase_5,3,1,48,21,2493545816
10317,17,Jits_Phase_5,0,5,80,127,2493990276
10317,17,Jits_Phase_5,1,1,48,19,2494033796
10317,17,Jits_Phase_5,2,5,63,98,2494040420
10317,17,Jits_Phase_5,3,5,56,103,2494070244
10317,17,Jits_Phase_5,0,5,56,103,2494469444
10317,17,Jits_Phase_5,1,5,80,127,2494479860
10317,17,Jits_Phase_5,2,1,48,20,2494523280
10317,17,Jits_Phase_5,3,5,63,98,2494550456
10317,17,Jits_Phase_5,0,5,56,103,2494979320
10317,17,Jits_Phase_5,1,5,63,98,2495000000
10317,17,Jits_Phase_5,2,1,48,19,2495006936
10317,17,Jits_Phase_5,3,5,80,127,2495060332
10317,17,Jits_Phase_5,0,5,80,127,2495459680
10317,17,Jits_Phase_5,1,1,48,19,2495473960
10317,17,Jits_Phase_5,2,5,63,98,2495530476
10317,17,Jits_Phase_5,3,5,56,103,2495549884
10317,17,Jits_Phase_5,0,5,80,127,2495979824
10317,17,Jits_Phase_5,1,5,56,103,2495990168
10317,17,Jits_Phase_5,2,5,63,98,2496000364
10317,17,Jits_Phase_5,3,1,48,23,2496013372
10317,17,Jits_Phase_5,0,5,80,127,2496470368
10317,17,Jits_Phase_5,1,5,56,103,2496489932
10317,17,Jits_Phase_5,2,1,48,19,2496492976
10317,17,Jits_Phase_5,3,5,63,98,2496559376
10317,17,Jits_Phase_5,0,5,56,103,2496980324
10317,17,Jits_Phase_5,1,5,80,127,2497010000
10317,17,Jits_Phase_5,2,1,48,20,2497028356
10317,17,Jits_Phase_5,3,5,63,98,2497029924
10317,17,Jits_Phase_5,0,5,63,98,2497469748
10317,17,Jits_Phase_5,1,5,56,103,2497530212
10317,17,Jits_Phase_5,2,1,48,19,2497534156
10317,17,Jits_Phase_5,3,5,80,127,2497559880
10317,17,Jits_Phase_5,0,5,63,98,2497960356
10317,17,Jits_Phase_5,1,5,80,127,2497963724
10317,17,Jits_Phase_5,2,1,48,18,2497995608
10317,17,Jits_Phase_5,3,5,56,103,2498050700
10317,17,Jits_Phase_5,0,1,48,20,2498465528
10317,17,Jits_Phase_5,1,5,56,103,2498479572
10317,17,Jits_Phase_5,2,5,63,98,2498510144
10317,17,Jits_Phase_5,3,5,80,127,2498550080
10317,17,Jits_Phase_5,0,1,48,23,2498959376
10317,17,Jits_Phase_5,1,5,63,98,2498980224
10317,17,Jits_Phase_5,2,5,56,103,2499020088
10317,17,Jits_Phase_5,3,5,80,127,2499039796
10317,17,Jits_Phase_5,0,1,48,21,2499474628
10317,17,Jits_Phase_5,1,5,63,98,2499490088
10317,17,Jits_Phase_5,2,5,56,103,2499529952
10317,17,Jits_Phase_5,3,5,80,127,2499540296
10317,17,Jits_Phase_5,0,5,80,127,2499970292
10317,17,Jits_Phase_5,1,1,48,20,2500002032
10317,17,Jits_Phase_5,2,5,63,98,2500039964
10317,17,Jits_Phase_5,3,5,56,103,2500059448
10317,17,Jits_Phase_5,0,5,56,103,2500459944
10317,17,Jits_Phase_5,1,5,80,127,2500480328
10317,17,Jits_Phase_5,2,1,48,22,2500509900
10317,17,Jits_Phase_5,3,5,63,98,2500520184
10317,17,Jits_Phase_5,0,5,63,98,2500969896
10317,17,Jits_Phase_5,1,1,48,18,2500988388
10317,17,Jits_Phase_5,2,5,80,127,2500990276
10317,17,Jits_Phase_5,3,5,56,103,2501030284
10317,17,Jits_Phase_5,0,5,63,98,2501469496
10317,17,Jits_Phase_5,1,1,48,19,2501477176
10317,17,Jits_Phase_5,2,5,56,103,2501490172
10317,17,Jits_Phase_5,3,5,80,127,2501500220
10317,17,Jits_Phase_5,0,5,80,127,2501970292
10317,17,Jits_Phase_5,1,1,48,20,2501980388
10317,17,Jits_Phase_5,2,5,56,103,2501989848
10317,17,Jits_Phase_5,3,5,63,98,2502019300
10317,17,Jits_Phase_5,0,1,48,21,2502489880
10317,17,Jits_Phase_5,1,5,56,103,2502539800
10317,17,Jits_Phase_5,2,5,80,127,2502542864
10317,17,Jits_Phase_5,3,5,63,98,2502560108
10317,17,Jits_Phase_5,0,5,63,98,2502959740
10317,17,Jits_Phase_5,1,5,56,103,2502990188
10317,17,Jits_Phase_5,2,1,48,19,2503039684
10317,17,Jits_Phase_5,3,5,80,127,2503049744
10317,17,Jits_Phase_5,0,1,48,17,2503494744
10317,17,Jits_Phase_5,1,5,63,98,2503539972
10317,17,Jits_Phase_5,2,5,56,103,2503550244
10317,17,Jits_Phase_5,3,5,80,127,2503559468
10317,17,Jits_Phase_5,0,5,56,103,2503999780
10317,17,Jits_Phase_5,1,1,48,19,2504014012
10317,17,Jits_Phase_5,2,5,80,127,2504029696
10317,17,Jits_Phase_5,3,5,63,98,2504039744
10317,17,Jits_Phase_5,0,1,48,19,2504515696
10317,17,Jits_Phase_5,1,5,63,98,2504539648
10317,17,Jits_Phase_5,2,5,56,103,2504549920
10317,17,Jits_Phase_5,3,5,80,127,2504570152
10317,17,Jits_Phase_5,0,5,56,103,2504969712
10317,17,Jits_Phase_5,1,5,63,98,2505030100
10317,17,Jits_Phase_5,2,5,80,127,2505033316
10317,17,Jits_Phase_5,3,1,48,21,2505038120
10317,17,Jits_Phase_5,0,5,80,127,2505489768
10317,17,Jits_Phase_5,1,5,56,103,2505499964
10317,17,Jits_Phase_5,2,1,48,20,2505530052
10317,17,Jits_Phase_5,3,5,63,98,2505569880
10317,17,Jits_Phase_5,0,5,80,127,2505980316
10317,17,Jits_Phase_5,1,1,48,23,2506048640
10317,17,Jits_Phase_5,2,5,56,103,2506050136
10317,17,Jits_Phase_5,3,5,63,98,2506060060
10317,17,Jits_Phase_5,0,5,63,98,2506519944
10317,17,Jits_Phase_5,1,5,56,103,2506530216
10317,17,Jits_Phase_5,2,5,80,127,2506549776
10317,17,Jits_Phase_5,3,1,48,22,2506569304
10317,17,Jits_Phase_5,0,5,80,127,2506969652
10317,17,Jits_Phase_5,1,5,63,98,2507029816
10317,17,Jits_Phase_5,2,1,48,19,2507035780
10317,17,Jits_Phase_5,3,5,56,103,2507069896
10317,17,Jits_Phase_5,0,1,48,21,2507502724
10317,17,Jits_Phase_5,1,5,56,103,2507510092
10317,17,Jits_Phase_5,2,5,63,98,2507520584
10317,17,Jits_Phase_5,3,5,80,127,2507560520
10317,17,Jits_Phase_5,0,5,56,103,2507969992
10317,17,Jits_Phase_5,1,5,80,127,2507999592
10317,17,Jits_Phase_5,2,5,63,98,2508049716
10317,17,Jits_Phase_5,3,1,48,23,2508067884
10317,17,Jits_Phase_5,0,5,56,103,2508509688
10317,17,Jits_Phase_5,1,1,48,21,2508528700
10317,17,Jits_Phase_5,2,5,63,98,2508549616
10317,17,Jits_Phase_5,3,5,80,127,2508552756
10317,17,Jits_Phase_5,0,1,48,24,2509005584
10317,17,Jits_Phase_5,1,5,56,103,2509010412
10317,17,Jits_Phase_5,2,5,63,98,2509019708
10317,17,Jits_Phase_5,3,5,80,127,2509039868
10317,17,Jits_Phase_5,0,5,56,103,2509470008
10317,17,Jits_Phase_5,1,5,80,127,2509473224
10317,17,Jits_Phase_5,2,1,48,21,2509484664
10317,17,Jits_Phase_5,3,5,63,98,2509509940
10317,17,Jits_Phase_5,0,1,48,22,2509977284
10317,17,Jits_Phase_5,1,5,63,98,2510009616
10317,17,Jits_Phase_5,2,5,56,103,2510040784
10317,17,Jits_Phase_5,3,5,80,127,2510059968
10317,17,Jits_Phase_5,0,5,80,127,2510479704
10317,17,Jits_Phase_5,1,5,56,103,2510489976
10317,17,Jits_Phase_5,2,5,63,98,2510500244
10317,17,Jits_Phase_5,3,1,48,20,2510515048
10317,17,Jits_Phase_5,0,5,56,103,2510979464
10317,17,Jits_Phase_5,1,1,48,18,2511012176
10317,17,Jits_Phase_5,2,5,80,127,2511020368
10317,17,Jits_Phase_5,3,5,63,98,2511050264
10317,17,Jits_Phase_5,0,5,63,98,2511490688
10317,17,Jits_Phase_5,1,5,80,127,2511499616
10317,17,Jits_Phase_5,2,5,56,103,2511509736
10317,17,Jits_Phase_5,3,1,48,17,2511525064
10317,17,Jits_Phase_5,0,5,56,103,2511979876
10317,17,Jits_Phase_5,1,1,48,21,2512009372
10317,17,Jits_Phase_5,2,5,63,98,2512049552
10317,17,Jits_Phase_5,3,5,80,127,2512059672
10317,17,Jits_Phase_5,0,5,80,127,2512489832
10317,17,Jits_Phase_5,1,5,56,103,2512499956
10317,17,Jits_Phase_5,2,1,48,19,2512530648
10317,17,Jits_Phase_5,3,5,63,98,2512550224
10317,17,Jits_Phase_5,0,5,80,127,2512999788
10317,17,Jits_Phase_5,1,1,48,16,2513036836
10317,17,Jits_Phase_5,2,5,56,103,2513060096
10317,17,Jits_Phase_5,3,5,63,98,2513089844
10317,17,Jits_Phase_5,0,5,56,103,2513499700
10317,17,Jits_Phase_5,1,5,80,127,2513502692
10317,17,Jits_Phase_5,2,1,48,16,2513522372
10317,17,Jits_Phase_5,3,5,63,98,2513539704
10317,17,Jits_Phase_5,0,1,48,16,2514012756
10317,17,Jits_Phase_5,1,5,56,103,2514029940
10317,17,Jits_Phase_5,2,5,63,98,2514059544
10317,17,Jits_Phase_5,3,5,80,127,2514069816
10317,17,Jits_Phase_5,0,1,48,18,2514497664
10317,17,Jits_Phase_5,1,5,63,98,2514539884
10317,17,Jits_Phase_5,2,5,80,127,2514550156
10317,17,Jits_Phase_5,3,5,56,103,2514560648
10317,17,Jits_Phase_5,0,5,80,127,2514989424
10317,17,Jits_Phase_5,1,1,48,18,2515003632
10317,17,Jits_Phase_5,2,5,56,103,2515039788
10317,17,Jits_Phase_5,3,5,63,98,2515042708
10317,17,Jits_Phase_5,0,1,48,20,2515480380
10317,17,Jits_Phase_5,1,5,56,103,2515519812
10317,17,Jits_Phase_5,2,5,80,127,2515540300
10317,17,Jits_Phase_5,3,5,63,98,2515549524
10317,17,Jits_Phase_5,0,1,48,19,2515956520
10317,17,Jits_Phase_5,1,5,63,98,2516000308
10317,17,Jits_Phase_5,2,5,56,103,2516029908
10317,17,Jits_Phase_5,3,5,80,127,2516051424
10317,17,Jits_Phase_5,0,1,48,19,2516470588
10317,17,Jits_Phase_5,1,5,56,103,2516510096
10317,17,Jits_Phase_5,2,5,80,127,2516520516
10317,17,Jits_Phase_5,3,5,63,98,2516590056
10317,17,Jits_Phase_5,0,1,48,18,2516977000
10317,17,Jits_Phase_5,1,5,63,98,2516999588
10317,17,Jits_Phase_5,2,5,80,127,2517039672
10317,17,Jits_Phase_5,3,5,56,103,2517080516
10317,17,Jits_Phase_5,0,1,48,18,2517434124
10317,17,Jits_Phase_5,1,5,56,103,2517509448
10317,17,Jits_Phase_5,2,5,63,98,2517519644
10317,17,Jits_Phase_5,3,5,80,127,2517540312
10317,17,Jits_Phase_5,0,1,48,21,2517958080
10317,17,Jits_Phase_5,1,5,63,98,2518050028
10317,17,Jits_Phase_5,2,5,80,127,2518069648
10317,17,Jits_Phase_5,3,5,56,103,2518090032
10317,17,Jits_Phase_5,0,5,56,103,2518489748
10317,17,Jits_Phase_5,1,1,48,25,2518500212
10317,17,Jits_Phase_5,2,5,80,127,2518570212
10317,17,Jits_Phase_5,3,5,63,98,2518579660
10317,17,Jits_Phase_5,0,1,48,19,2518970460
10317,17,Jits_Phase_5,1,5,80,127,2519030340
10317,17,Jits_Phase_5,2,5,63,98,2519040460
10317,17,Jits_Phase_5,3,5,56,103,2519069972
10317,17,Jits_Phase_5,0,1,48,18,2519452224
10317,17,Jits_Phase_5,1,5,63,98,2519489936
10317,17,Jits_Phase_5,2,5,80,127,2519529948
10317,17,Jits_Phase_5,3,5,56,103,2519590392
10317,17,Jits_Phase_5,0,5,63,98,2519999804
10317,17,Jits_Phase_5,1,1,48,17,2520039188
10317,17,Jits_Phase_5,2,5,56,103,2520050000
10317,17,Jits_Phase_5,3,5,80,127,2520079600
10317,17,Jits_Phase_5,0,1,48,21,2520492556
10317,17,Jits_Phase_5,1,5,80,127,2520499480
10317,17,Jits_Phase_5,2,5,63,98,2520509900
10317,17,Jits_Phase_5,3,5,56,103,2520579576
10317,17,Jits_Phase_5,0,1,48,21,2521008576
10317,17,Jits_Phase_5,1,5,80,127,2521059768
10317,17,Jits_Phase_5,2,5,56,103,2521069960
10317,17,Jits_Phase_5,3,5,63,98,2521072952
10317,17,Jits_Phase_5,0,5,56,103,2521499960
10317,17,Jits_Phase_5,1,5,80,127,2521519596
10317,17,Jits_Phase_5,2,5,63,98,2521529640
10317,17,Jits_Phase_5,3,1,48,26,2521541828
10317,17,Jits_Phase_5,0,1,48,23,2522010360
10317,17,Jits_Phase_5,1,5,63,98,2522011548
10317,17,Jits_Phase_5,2,5,56,103,2522049920
10317,17,Jits_Phase_5,3,5,80,127,2522070676
10317,17,Jits_Phase_5,0,5,63,98,2522509816
10317,17,Jits_Phase_5,1,1,48,19,2522516752
10317,17,Jits_Phase_5,2,5,56,103,2522570048
10317,17,Jits_Phase_5,3,5,80,127,2522573040
10317,17,Jits_Phase_5,0,5,56,103,2522969556
10317,17,Jits_Phase_5,1,5,80,127,2522989792
10317,17,Jits_Phase_5,2,1,48,22,2523001376
10317,17,Jits_Phase_5,3,5,63,98,2523029796
10317,17,Jits_Phase_5,0,1,48,19,2523415384
10317,17,Jits_Phase_5,1,5,56,103,2523499880
10317,17,Jits_Phase_5,2,5,63,98,2523520548
10317,17,Jits_Phase_5,3,5,80,127,2523529472
10317,17,Jits_Phase_5,0,5,80,127,2523969940
10317,17,Jits_Phase_5,1,1,48,19,2523992860
10317,17,Jits_Phase_5,2,5,56,103,2523999632
10317,17,Jits_Phase_5,3,5,63,98,2524039720
10317,17,Jits_Phase_5,0,5,80,127,2524479744
10317,17,Jits_Phase_5,1,1,48,25,2524492028
10317,17,Jits_Phase_5,2,5,56,103,2524500516
10317,17,Jits_Phase_5,3,5,63,98,2524559708
10317,17,Jits_Phase_5,0,5,56,103,2524989772
10317,17,Jits_Phase_5,1,5,80,127,2525010480
10317,17,Jits_Phase_5,2,1,48,22,2525026252
10317,17,Jits_Phase_5,3,5,63,98,2525069588
10317,17,Jits_Phase_5,0,5,80,127,2525470056
10317,17,Jits_Phase_5,1,1,48,23,2525474668
10317,17,Jits_Phase_5,2,5,56,103,2525480392
10317,17,Jits_Phase_5,3,5,63,98,2525520204
10317,17,Jits_Phase_5,0,5,63,98,2525969808
10317,17,Jits_Phase_5,1,1,48,18,2526004164
10317,17,Jits_Phase_5,2,5,56,103,2526009664
10317,17,Jits_Phase_5,3,5,80,127,2526012732
10317,17,Jits_Phase_5,0,1,48,18,2526459848
10317,17,Jits_Phase_5,1,5,63,98,2526489992
10317,17,Jits_Phase_5,2,5,80,127,2526529932
10317,17,Jits_Phase_5,3,5,56,103,2526559540
10317,17,Jits_Phase_5,0,5,56,103,2526979636
10317,17,Jits_Phase_5,1,5,63,98,2526989684
10317,17,Jits_Phase_5,2,1,48,19,2527013404
10317,17,Jits_Phase_5,3,5,80,127,2527020696
10317,17,Jits_Phase_5,0,1,48,19,2527460640
10317,17,Jits_Phase_5,1,5,80,127,2527469880
10317,17,Jits_Phase_5,2,5,63,98,2527539632
10317,17,Jits_Phase_5,3,5,56,103,2527549828
10317,17,Jits_Phase_5,0,5,63,98,2527969636
10317,17,Jits_Phase_5,1,1,48,21,2528020704
10317,17,Jits_Phase_5,2,5,56,103,2528040428
10317,17,Jits_Phase_5,3,5,80,127,2528049652
10317,17,Jits_Phase_5,0,5,63,98,2528449908
10317,17,Jits_Phase_5,1,5,56,103,2528470368
10317,17,Jits_Phase_5,2,5,80,127,2528510524
10317,17,Jits_Phase_5,3,1,48,19,2528518448
10317,17,Jits_Phase_5,0,5,56,103,2528930028
10317,17,Jits_Phase_5,1,5,63,98,2528940524
10317,17,Jits_Phase_5,2,1,48,16,2528995556
10317,17,Jits_Phase_5,3,5,80,127,2529020456
10317,17,Jits_Phase_5,0,5,63,98,2529419532
10317,17,Jits_Phase_5,1,1,48,13,2529445348
10317,17,Jits_Phase_5,2,5,56,103,2529450620
10317,17,Jits_Phase_5,3,5,80,127,2529490256
10317,17,Jits_Phase_5,0,5,56,103,2529920400
10317,17,Jits_Phase_5,1,1,48,18,2529935128
10317,17,Jits_Phase_5,2,5,63,98,2529960556
10317,17,Jits_Phase_5,3,5,80,127,2530000340
10317,17,Jits_Phase_5,0,1,48,17,2530372524
10317,17,Jits_Phase_5,1,5,80,127,2530420228
10317,17,Jits_Phase_5,2,5,56,103,2530499932
10317,17,Jits_Phase_5,3,5,63,98,2530510424
10317,17,Jits_Phase_5,0,1,48,18,2530956512
10317,17,Jits_Phase_5,1,5,56,103,2530959608
10317,17,Jits_Phase_5,2,5,63,98,2530962680
10317,17,Jits_Phase_5,3,5,80,127,2530969956
10317,17,Jits_Phase_5,0,1,48,18,2531471312
10317,17,Jits_Phase_5,1,5,56,103,2531480032
10317,17,Jits_Phase_5,2,5,63,98,2531500416
10317,17,Jits_Phase_5,3,5,80,127,2531509492
10317,17,Jits_Phase_5,0,5,63,98,2531939640
10317,17,Jits_Phase_5,1,5,80,127,2531949984
10317,17,Jits_Phase_5,2,5,56,103,2531970516
10317,17,Jits_Phase_5,3,1,48,16,2531996780
10317,17,Jits_Phase_5,0,1,48,15,2532435604
10317,17,Jits_Phase_5,1,5,63,98,2532440504
10317,17,Jits_Phase_5,2,5,56,103,2532520520
10317,17,Jits_Phase_5,3,5,80,127,2532523588
10317,17,Jits_Phase_5,0,5,63,98,2532940180
10317,17,Jits_Phase_5,1,1,48,17,2532944792
10317,17,Jits_Phase_5,2,5,56,103,2532959584
10317,17,Jits_Phase_5,3,5,80,127,2532990304
10317,17,Jits_Phase_5,0,1,48,19,2533434476
10317,17,Jits_Phase_5,1,5,56,103,2533439748
10317,17,Jits_Phase_5,2,5,63,98,2533460528
10317,17,Jits_Phase_5,3,5,80,127,2533469680
10317,17,Jits_Phase_5,0,1,48,16,2533929140
10317,17,Jits_Phase_5,1,5,56,103,2533979384
10317,17,Jits_Phase_5,2,5,63,98,2534010324
10317,17,Jits_Phase_5,3,5,80,127,2534013540
10317,17,Jits_Phase_5,0,5,56,103,2534429960
10317,17,Jits_Phase_5,1,1,48,21,2534433524
10317,17,Jits_Phase_5,2,5,63,98,2534469888
10317,17,Jits_Phase_5,3,5,80,127,2534530524
10317,17,Jits_Phase_5,0,5,56,103,2534950400
10317,17,Jits_Phase_5,1,5,63,98,2534959548
10317,17,Jits_Phase_5,2,1,48,19,2534968448
10317,17,Jits_Phase_5,3,5,80,127,2535019952
10317,17,Jits_Phase_5,0,5,56,103,2535449940
10317,17,Jits_Phase_5,1,1,48,17,2535468900
10317,17,Jits_Phase_5,2,5,80,127,2535470468
10317,17,Jits_Phase_5,3,5,63,98,2535500092
10317,17,Jits_Phase_5,0,1,48,19,2535935204
10317,17,Jits_Phase_5,1,5,80,127,2535949620
10317,17,Jits_Phase_5,2,5,56,103,2535960112
10317,17,Jits_Phase_5,3,5,63,98,2535980424
10317,17,Jits_Phase_5,0,1,48,21,2536434504
10317,17,Jits_Phase_5,1,5,63,98,2536440376
10317,17,Jits_Phase_5,2,5,80,127,2536520024
10317,17,Jits_Phase_5,3,5,56,103,2536530524
10317,17,Jits_Phase_5,0,1,48,20,2536935680
10317,17,Jits_Phase_5,1,5,80,127,2537030020
10317,17,Jits_Phase_5,2,5,56,103,2537049304
10317,17,Jits_Phase_5,3,5,63,98,2537052376
10317,17,Jits_Phase_5,0,1,48,18,2537493188
10317,17,Jits_Phase_5,1,5,63,98,2537519440
10317,17,Jits_Phase_5,2,5,80,127,2537522732
10317,17,Jits_Phase_5,3,5,56,103,2537580000
10317,17,Jits_Phase_5,0,5,56,103,2537999784
10317,17,Jits_Phase_5,1,5,80,127,2538010056
10317,17,Jits_Phase_5,2,1,48,18,2538036324
10317,17,Jits_Phase_5,3,5,63,98,2538049840
10317,17,Jits_Phase_5,0,5,56,103,2538480368
10317,17,Jits_Phase_5,1,1,48,16,2538529644
10317,17,Jits_Phase_5,2,5,63,98,2538540456
10317,17,Jits_Phase_5,3,5,80,127,2538549604
10317,17,Jits_Phase_5,0,5,63,98,2538989876
10317,17,Jits_Phase_5,1,1,48,17,2539019372
10317,17,Jits_Phase_5,2,5,80,127,2539029880
10317,17,Jits_Phase_5,3,5,56,103,2539069744
10317,17,Jits_Phase_5,0,5,56,103,2539489628
10317,17,Jits_Phase_5,1,1,48,17,2539517236
10317,17,Jits_Phase_5,2,5,63,98,2539569636
10317,17,Jits_Phase_5,3,5,80,127,2539572852
10317,17,Jits_Phase_5,0,1,48,21,2539992496
10317,17,Jits_Phase_5,1,5,80,127,2540049688
10317,17,Jits_Phase_5,2,5,56,103,2540079436
10317,17,Jits_Phase_5,3,5,63,98,2540082576
10317,17,Jits_Phase_5,0,5,56,103,2540509512
10317,17,Jits_Phase_5,1,5,80,127,2540529968
10317,17,Jits_Phase_5,2,1,48,19,2540560208
10317,17,Jits_Phase_5,3,5,63,98,2540569824
10317,17,Jits_Phase_5,0,5,80,127,2540989724
10317,17,Jits_Phase_5,1,5,63,98,2541010404
10317,17,Jits_Phase_5,2,1,48,18,2541044840
10317,17,Jits_Phase_5,3,5,56,103,2541069664
10317,17,Jits_Phase_5,0,5,63,98,2541499680
10317,17,Jits_Phase_5,1,5,56,103,2541509948
10317,17,Jits_Phase_5,2,1,48,19,2541542584
10317,17,Jits_Phase_5,3,5,80,127,2541560288
10317,17,Jits_Phase_5,0,5,56,103,2541990212
10317,17,Jits_Phase_5,1,5,63,98,2542009844
10317,17,Jits_Phase_5,2,1,48,17,2542020412
10317,17,Jits_Phase_5,3,5,80,127,2542021452
10317,17,Jits_Phase_5,0,5,56,103,2542479780
10317,17,Jits_Phase_5,1,5,63,98,2542482624
10317,17,Jits_Phase_5,2,5,80,127,2542500388
10317,17,Jits_Phase_5,3,1,48,17,2542560448
10317,17,Jits_Phase_5,0,5,63,98,2543020440
10317,17,Jits_Phase_5,1,1,48,17,2543024080
10317,17,Jits_Phase_5,2,5,56,103,2543050404
10317,17,Jits_Phase_5,3,5,80,127,2543079780
10317,17,Jits_Phase_5,0,5,80,127,2543480408
10317,17,Jits_Phase_5,1,1,48,15,2543563536
10317,17,Jits_Phase_5,2,5,56,103,2543570308
10317,17,Jits_Phase_5,3,5,63,98,2543573300
10317,17,Jits_Phase_5,0,5,56,103,2543980012
10317,17,Jits_Phase_5,1,5,80,127,2543983228
10317,17,Jits_Phase_5,2,5,63,98,2544059804
10317,17,Jits_Phase_5,3,1,48,19,2544066668
10317,17,Jits_Phase_5,0,5,80,127,2544479472
10317,17,Jits_Phase_5,1,5,63,98,2544540236
10317,17,Jits_Phase_5,2,1,48,17,2544559088
10317,17,Jits_Phase_5,3,5,56,103,2544569676
10317,17,Jits_Phase_5,0,5,63,98,2544980432
10317,17,Jits_Phase_5,1,5,80,127,2544989508
10317,17,Jits_Phase_5,2,1,48,17,2545047696
10317,17,Jits_Phase_5,3,5,56,103,2545060224
10317,17,Jits_Phase_5,0,1,48,19,2545532144
10317,17,Jits_Phase_5,1,5,56,103,2545539588
10317,17,Jits_Phase_5,2,5,80,127,2545570160
10317,17,Jits_Phase_5,3,5,63,98,2545620284
10317,17,Jits_Phase_5,0,1,48,18,2546042672
10317,17,Jits_Phase_5,1,5,63,98,2546139560
10317,17,Jits_Phase_5,2,5,56,103,2546170352
10317,17,Jits_Phase_5,3,5,80,127,2546173344
10317,17,Jits_Phase_5,0,5,63,98,2546640224
10317,17,Jits_Phase_5,1,5,80,127,2546659712
10317,17,Jits_Phase_5,2,1,48,18,2546664028
10317,17,Jits_Phase_5,3,5,56,103,2546669976
10317,17,Jits_Phase_5,0,5,56,103,2547150240
10317,17,Jits_Phase_5,1,5,63,98,2547153084
10317,17,Jits_Phase_5,2,1,48,19,2547159288
10317,17,Jits_Phase_5,3,5,80,127,2547169496
10317,17,Jits_Phase_5,0,5,56,103,2547599660
10317,17,Jits_Phase_5,1,5,63,98,2547610300
10317,17,Jits_Phase_5,2,5,80,127,2547639528
10317,17,Jits_Phase_5,3,1,48,19,2547669620
10317,17,Jits_Phase_5,0,1,48,16,2548106796
10317,17,Jits_Phase_5,1,5,63,98,2548119792
10317,17,Jits_Phase_5,2,5,80,127,2548140328
10317,17,Jits_Phase_5,3,5,56,103,2548180340
10317,17,Jits_Phase_5,0,1,48,17,2548639376
10317,17,Jits_Phase_5,1,5,56,103,2548650260
10317,17,Jits_Phase_5,2,5,63,98,2548690272
10317,17,Jits_Phase_5,3,5,80,127,2548693932
10317,17,Jits_Phase_5,0,5,80,127,2549089632
10317,17,Jits_Phase_5,1,5,56,103,2549129572
10317,17,Jits_Phase_5,2,5,63,98,2549179768
10317,17,Jits_Phase_5,3,1,48,18,2549192028
10317,17,Jits_Phase_5,0,5,56,103,2549649780
10317,17,Jits_Phase_5,1,5,80,127,2549659976
10317,17,Jits_Phase_5,2,1,48,18,2549687832
10317,17,Jits_Phase_5,3,5,63,98,2549689644
10317,17,Jits_Phase_5,0,5,56,103,2550109468
10317,17,Jits_Phase_5,1,5,80,127,2550149480
10317,17,Jits_Phase_5,2,1,48,19,2550163912
10317,17,Jits_Phase_5,3,5,63,98,2550199748
10317,17,Jits_Phase_5,0,5,56,103,2550610208
10317,17,Jits_Phase_5,1,5,80,127,2550650220
10317,17,Jits_Phase_5,2,1,48,25,2550683600
10317,17,Jits_Phase_5,3,5,63,98,2550700340
10317,17,Jits_Phase_5,0,5,80,127,2551099612
10317,17,Jits_Phase_5,1,5,63,98,2551179580
10317,17,Jits_Phase_5,2,5,56,103,2551189848
10317,17,Jits_Phase_5,3,1,48,18,2551205844
10317,17,Jits_Phase_5,0,5,80,127,2551649524
10317,17,Jits_Phase_5,1,5,56,103,2551660092
10317,17,Jits_Phase_5,2,5,63,98,2551680328
10317,17,Jits_Phase_5,3,1,48,19,2551701656
10317,17,Jits_Phase_5,0,5,63,98,2552119748
10317,17,Jits_Phase_5,1,5,56,103,2552190424
10317,17,Jits_Phase_5,2,5,80,127,2552193564
10317,17,Jits_Phase_5,0,5,80,127,2552610384
10317,17,Jits_Phase_5,1,5,63,98,2552660388
10317,17,Jits_Phase_5,2,1,48,17,2552662552
10317,17,Jits_Phase_5,3,5,56,103,2552700244
10317,17,Jits_Phase_5,0,1,48,20,2553119336
10317,17,Jits_Phase_5,1,5,63,98,2553149776
10317,17,Jits_Phase_5,2,5,56,103,2553189964
10317,17,Jits_Phase_5,3,5,80,127,2553200084
10317,17,Jits_Phase_5,0,5,63,98,2553640176
10317,17,Jits_Phase_5,1,5,56,103,2553659812
10317,17,Jits_Phase_5,2,5,80,127,2553680220
10317,17,Jits_Phase_5,3,1,48,24,2553698852
10317,17,Jits_Phase_5,0,5,80,127,2554100144
10317,17,Jits_Phase_5,1,5,56,103,2554110264
10317,17,Jits_Phase_5,2,5,63,98,2554129900
10317,17,Jits_Phase_5,3,1,48,16,2554176540
10317,17,Jits_Phase_5,0,5,63,98,2554629428
10317,17,Jits_Phase_5,1,1,48,16,2554648356
10317,17,Jits_Phase_5,2,5,56,103,2554669356
10317,17,Jits_Phase_5,3,5,80,127,2554700100
10317,17,Jits_Phase_5,0,5,56,103,2555090220
10317,17,Jits_Phase_5,1,5,63,98,2555120192
10317,17,Jits_Phase_5,2,1,48,18,2555126452
10317,17,Jits_Phase_5,3,5,80,127,2555149712
10317,17,Jits_Phase_5,0,5,80,127,2555510060
10317,17,Jits_Phase_5,1,5,56,103,2555579736
10317,17,Jits_Phase_5,2,5,63,98,2555582804
10317,17,Jits_Phase_5,3,1,48,17,2555589524
10317,17,Jits_Phase_5,0,5,56,103,2556020152
10317,17,Jits_Phase_5,1,1,48,17,2556063576
10317,17,Jits_Phase_5,2,5,63,98,2556070348
10317,17,Jits_Phase_5,3,5,80,127,2556100096
10317,17,Jits_Phase_5,0,5,63,98,2556500440
10317,17,Jits_Phase_5,1,5,80,127,2556503656
10317,17,Jits_Phase_5,2,1,48,18,2556556296
10317,17,Jits_Phase_5,3,5,56,103,2556559848
10317,17,Jits_Phase_5,0,1,48,21,2556983640
10317,17,Jits_Phase_5,1,5,56,103,2557029620
10317,17,Jits_Phase_5,2,5,80,127,2557040184
10317,17,Jits_Phase_5,3,5,63,98,2557090144
10317,17,Jits_Phase_5,0,5,63,98,2557499756
10317,17,Jits_Phase_5,1,5,56,103,2557510248
10317,17,Jits_Phase_5,2,1,48,27,2557530776
10317,17,Jits_Phase_5,3,5,80,127,2557539716
10317,17,Jits_Phase_5,0,1,48,26,2558003888
10317,17,Jits_Phase_5,1,5,63,98,2558030080
10317,17,Jits_Phase_5,2,5,80,127,2558033380
10317,17,Jits_Phase_5,3,5,56,103,2558060132
10317,17,Jits_Phase_5,0,1,48,22,2558513140
10317,17,Jits_Phase_5,1,5,63,98,2558550356
10317,17,Jits_Phase_5,2,5,56,103,2558569988
10317,17,Jits_Phase_5,3,5,80,127,2558572980
10317,17,Jits_Phase_5,0,5,63,98,2559010148
10317,17,Jits_Phase_5,1,1,48,21,2559023756
10317,17,Jits_Phase_5,2,5,56,103,2559079920
10317,17,Jits_Phase_5,3,5,80,127,2559100304
10317,17,Jits_Phase_5,0,5,56,103,2559499708
10317,17,Jits_Phase_5,1,5,63,98,2559510276
10317,17,Jits_Phase_5,2,1,48,19,2559539472
10317,17,Jits_Phase_5,3,5,80,127,2559600124
10317,17,Jits_Phase_5,0,5,56,103,2560020000
10317,17,Jits_Phase_5,1,1,48,23,2560037124
10317,17,Jits_Phase_5,2,5,80,127,2560060152
10317,17,Jits_Phase_5,3,5,63,98,2560070272
10317,17,Jits_Phase_5,0,5,56,103,2560539964
10317,17,Jits_Phase_5,1,1,48,25,2560567516
10317,17,Jits_Phase_5,2,5,63,98,2560569704
10317,17,Jits_Phase_5,3,5,80,127,2560600376
10317,17,Jits_Phase_5,0,5,80,127,2561000096
10317,17,Jits_Phase_5,1,5,63,98,2561039588
10317,17,Jits_Phase_5,2,1,48,19,2561041524
10317,17,Jits_Phase_5,3,5,56,103,2561060184
10317,17,Jits_Phase_5,0,5,56,103,2561539416
10317,17,Jits_Phase_5,1,5,80,127,2561560096
10317,17,Jits_Phase_5,2,5,63,98,2561580256
10317,17,Jits_Phase_5,3,1,48,16,2561601428
10317,17,Jits_Phase_5,0,5,63,98,2562009512
10317,17,Jits_Phase_5,1,5,56,103,2562019632
10317,17,Jits_Phase_5,2,5,80,127,2562080020
10317,17,Jits_Phase_5,3,1,48,17,2562088908
10317,17,Jits_Phase_5,0,5,56,103,2562510156
10317,17,Jits_Phase_5,1,1,48,16,2562554104
10317,17,Jits_Phase_5,2,5,63,98,2562580052
10317,17,Jits_Phase_5,3,5,80,127,2562600360
10317,17,Jits_Phase_5,0,1,48,19,2562995352
10317,17,Jits_Phase_5,1,5,56,103,2563010136
10317,17,Jits_Phase_5,2,5,63,98,2563039516
10317,17,Jits_Phase_5,3,5,80,127,2563079600
10317,17,Jits_Phase_5,0,5,63,98,2563500304
10317,17,Jits_Phase_5,1,1,48,18,2563511740
10317,17,Jits_Phase_5,2,5,56,103,2563549524
10317,17,Jits_Phase_5,3,5,80,127,2563559944
10317,17,Jits_Phase_5,0,1,48,14,2563986076
10317,17,Jits_Phase_5,1,5,56,103,2564050240
10317,17,Jits_Phase_5,2,5,63,98,2564099380
10317,17,Jits_Phase_5,3,5,80,127,2564109724
10317,17,Jits_Phase_5,0,5,56,103,2564520256
10317,17,Jits_Phase_5,1,5,63,98,2564529480
10317,17,Jits_Phase_5,2,1,48,19,2564562192
10317,17,Jits_Phase_5,3,5,80,127,2564610384
10317,17,Jits_Phase_5,0,9999,9999,9999,2480237692
10317,17,Jits_Phase_5,1,9999,9999,9999,2480737400
10317,17,Jits_Phase_5,2,9999,9999,9999,2481238084
10317,17,Jits_Phase_5,3,9999,9999,9999,2481748084
10317,17,Jits_Phase_5,4,9999,9999,9999,2482247792
10317,17,Jits_Phase_5,5,9999,9999,9999,2482747480
10317,17,Jits_Phase_5,6,9999,9999,9999,2483247228
10317,17,Jits_Phase_5,7,9999,9999,9999,2483747968
10317,17,Jits_Phase_5,8,9999,9999,9999,2484247656
10317,17,Jits_Phase_5,9,9999,9999,9999,2484747348
10317,17,Jits_Phase_5,10,9999,9999,9999,2485248084
10317,17,Jits_Phase_5,11,9999,9999,9999,2485758040
10317,17,Jits_Phase_5,12,9999,9999,9999,2486257780
10317,17,Jits_Phase_5,13,9999,9999,9999,2486757456
10317,17,Jits_Phase_5,14,9999,9999,9999,2487257204
10317,17,Jits_Phase_5,15,9999,9999,9999,2487757940
10317,17,Jits_Phase_5,16,9999,9999,9999,2488257612
10317,17,Jits_Phase_5,17,9999,9999,9999,2488757364
10317,17,Jits_Phase_5,18,9999,9999,9999,2489258096
10317,17,Jits_Phase_5,19,9999,9999,9999,2489757788
10317,17,Jits_Phase_5,20,9999,9999,9999,2490257464
10317,17,Jits_Phase_5,21,9999,9999,9999,2490757232
10317,17,Jits_Phase_5,22,9999,9999,9999,2491257964
10317,17,Jits_Phase_5,23,9999,9999,9999,2491757656
10317,17,Jits_Phase_5,24,9999,9999,9999,2492257348
10317,17,Jits_Phase_5,25,9999,9999,9999,2492758076
10317,17,Jits_Phase_5,26,9999,9999,9999,2493268036
10317,17,Jits_Phase_5,27,9999,9999,9999,2493767748
10317,17,Jits_Phase_5,28,9999,9999,9999,2494267508
10317,17,Jits_Phase_5,29,9999,9999,9999,2494767196
10317,17,Jits_Phase_5,30,9999,9999,9999,2495257668
10317,17,Jits_Phase_5,31,9999,9999,9999,2495757436
10317,17,Jits_Phase_5,32,9999,9999,9999,2496257124
10317,17,Jits_Phase_5,33,9999,9999,9999,2496757860
10317,17,Jits_Phase_5,34,9999,9999,9999,2497257552
10317,17,Jits_Phase_5,35,9999,9999,9999,2497757244
10317,17,Jits_Phase_5,36,9999,9999,9999,2498258028
10317,17,Jits_Phase_5,37,9999,9999,9999,2498757708
10317,17,Jits_Phase_5,38,9999,9999,9999,2499257460
10317,17,Jits_Phase_5,39,9999,9999,9999,2499757136
10317,17,Jits_Phase_5,40,9999,9999,9999,2500257860
10317,17,Jits_Phase_5,41,9999,9999,9999,2500757624
10317,17,Jits_Phase_5,42,9999,9999,9999,2501257312
10317,17,Jits_Phase_5,43,9999,9999,9999,2501758032
10317,17,Jits_Phase_5,44,9999,9999,9999,2502257784
10317,17,Jits_Phase_5,45,9999,9999,9999,2502757472
10317,17,Jits_Phase_5,46,9999,9999,9999,2503257148
10317,17,Jits_Phase_5,47,9999,9999,9999,2503757876
10317,17,Jits_Phase_5,48,9999,9999,9999,2504267892
10317,17,Jits_Phase_5,49,9999,9999,9999,2504767568
10317,17,Jits_Phase_5,50,9999,9999,9999,2505267308
10317,17,Jits_Phase_5,51,9999,9999,9999,2505768044
10317,17,Jits_Phase_5,52,9999,9999,9999,2506267736
10317,17,Jits_Phase_5,53,9999,9999,9999,2506767432
10317,17,Jits_Phase_5,54,9999,9999,9999,2507267184
10317,17,Jits_Phase_5,55,9999,9999,9999,2507767920
10317,17,Jits_Phase_5,56,9999,9999,9999,2508267596
10317,17,Jits_Phase_5,57,9999,9999,9999,2508767356
10317,17,Jits_Phase_5,58,9999,9999,9999,2509268092
10317,17,Jits_Phase_5,59,9999,9999,9999,2509767752
10317,17,Jits_Phase_5,60,9999,9999,9999,2510267448
10317,17,Jits_Phase_5,61,9999,9999,9999,2510767196
10317,17,Jits_Phase_5,62,9999,9999,9999,2511267928
10317,17,Jits_Phase_5,63,9999,9999,9999,2511767616
10317,17,Jits_Phase_5,64,9999,9999,9999,2512287824
10317,17,Jits_Phase_5,65,9999,9999,9999,2512787512
10317,17,Jits_Phase_5,66,9999,9999,9999,2513287280
10317,17,Jits_Phase_5,67,9999,9999,9999,2513788004
10317,17,Jits_Phase_5,68,9999,9999,9999,2514287700
10317,17,Jits_Phase_5,69,9999,9999,9999,2514787456
10317,17,Jits_Phase_5,70,9999,9999,9999,2515287120
10317,17,Jits_Phase_5,71,9999,9999,9999,2515787860
10317,17,Jits_Phase_5,72,9999,9999,9999,2516287584
10317,17,Jits_Phase_5,73,9999,9999,9999,2516787260
10317,17,Jits_Phase_5,74,9999,9999,9999,2517288060
10317,17,Jits_Phase_5,75,9999,9999,9999,2517787732
10317,17,Jits_Phase_5,76,9999,9999,9999,2518287460
10317,17,Jits_Phase_5,77,9999,9999,9999,2518787136
10317,17,Jits_Phase_5,78,9999,9999,9999,2519287872
10317,17,Jits_Phase_5,79,9999,9999,9999,2519787624
10317,17,Jits_Phase_5,80,9999,9999,9999,2520287300
10317,17,Jits_Phase_5,81,9999,9999,9999,2520767576
10317,17,Jits_Phase_5,82,9999,9999,9999,2521267324
10317,17,Jits_Phase_5,83,9999,9999,9999,2521768044
10317,17,Jits_Phase_5,84,9999,9999,9999,2522267744
10317,17,Jits_Phase_5,85,9999,9999,9999,2522767412
10317,17,Jits_Phase_5,86,9999,9999,9999,2523267160
10317,17,Jits_Phase_5,87,9999,9999,9999,2523767900
10317,17,Jits_Phase_5,88,9999,9999,9999,2524267644
10317,17,Jits_Phase_5,89,9999,9999,9999,2524767336
10317,17,Jits_Phase_5,90,9999,9999,9999,2525268072
10317,17,Jits_Phase_5,91,9999,9999,9999,2525767808
10317,17,Jits_Phase_5,92,9999,9999,9999,2526267480
10317,17,Jits_Phase_5,93,9999,9999,9999,2526767156
10317,17,Jits_Phase_5,94,9999,9999,9999,2527267948
10317,17,Jits_Phase_5,95,9999,9999,9999,2527767640
10317,17,Jits_Phase_5,96,9999,9999,9999,2528267320
10317,17,Jits_Phase_5,97,9999,9999,9999,2528717920
10317,17,Jits_Phase_5,98,9999,9999,9999,2529217596
10317,17,Jits_Phase_5,99,9999,9999,9999,2529717360
10317,17,Jits_Phase_5,100,9999,9999,9999,2530218080
10317,17,Jits_Phase_5,101,9999,9999,9999,2530717772
10317,17,Jits_Phase_5,102,9999,9999,9999,2531217512
10317,17,Jits_Phase_5,103,9999,9999,9999,2531717192
10317,17,Jits_Phase_5,104,9999,9999,9999,2532217916
10317,17,Jits_Phase_5,105,9999,9999,9999,2532717660
10317,17,Jits_Phase_5,106,9999,9999,9999,2533217332
10317,17,Jits_Phase_5,107,9999,9999,9999,2533718132
10317,17,Jits_Phase_5,108,9999,9999,9999,2534228064
10317,17,Jits_Phase_5,109,9999,9999,9999,2534727792
10317,17,Jits_Phase_5,110,9999,9999,9999,2535227480
10317,17,Jits_Phase_5,111,9999,9999,9999,2535727168
10317,17,Jits_Phase_5,112,9999,9999,9999,2536227904
10317,17,Jits_Phase_5,113,9999,9999,9999,2536727656
10317,17,Jits_Phase_5,114,9999,9999,9999,2537277520
10317,17,Jits_Phase_5,115,9999,9999,9999,2537777264
10317,17,Jits_Phase_5,116,9999,9999,9999,2538277988
10317,17,Jits_Phase_5,117,9999,9999,9999,2538777680
10317,17,Jits_Phase_5,118,9999,9999,9999,2539277368
10317,17,Jits_Phase_5,119,9999,9999,9999,2539777112
10317,17,Jits_Phase_5,120,9999,9999,9999,2540277848
10317,17,Jits_Phase_5,121,9999,9999,9999,2540777524
10317,17,Jits_Phase_5,122,9999,9999,9999,2541277292
10317,17,Jits_Phase_5,123,9999,9999,9999,2541778028
10317,17,Jits_Phase_5,124,9999,9999,9999,2542277700
10317,17,Jits_Phase_5,125,9999,9999,9999,2542777452
10317,17,Jits_Phase_5,126,9999,9999,9999,2543277144
10317,17,Jits_Phase_5,127,9999,9999,9999,2543777860
10317,17,Jits_Phase_5,128,9999,9999,9999,2544277612
10317,17,Jits_Phase_5,129,9999,9999,9999,2544777304
10317,17,Jits_Phase_5,130,9999,9999,9999,2545278036
10317,17,Jits_Phase_5,131,9999,9999,9999,2545878100
10317,17,Jits_Phase_5,132,9999,9999,9999,2546388032
10317,17,Jits_Phase_5,133,9999,9999,9999,2546887792
10317,17,Jits_Phase_5,134,9999,9999,9999,2547387460
10317,17,Jits_Phase_5,135,9999,9999,9999,2547887224
10317,17,Jits_Phase_5,136,9999,9999,9999,2548387964
10317,17,Jits_Phase_5,137,9999,9999,9999,2548887636
10317,17,Jits_Phase_5,138,9999,9999,9999,2549387388
10317,17,Jits_Phase_5,139,9999,9999,9999,2549888056
10317,17,Jits_Phase_5,140,9999,9999,9999,2550398012
10317,17,Jits_Phase_5,141,9999,9999,9999,2550897780
10317,17,Jits_Phase_5,142,9999,9999,9999,2551397472
10317,17,Jits_Phase_5,143,9999,9999,9999,2551897164
10317,17,Jits_Phase_5,144,9999,9999,9999,2552397916
10317,17,Jits_Phase_5,145,9999,9999,9999,2552897656
10317,17,Jits_Phase_5,146,9999,9999,9999,2553397352
10317,17,Jits_Phase_5,147,9999,9999,9999,2553898076
10317,17,Jits_Phase_5,148,9999,9999,9999,2554397820
10317,17,Jits_Phase_5,149,9999,9999,9999,2554897516
10317,17,Jits_Phase_5,150,9999,9999,9999,2555297860
10317,17,Jits_Phase_5,151,9999,9999,9999,2555797616
10317,17,Jits_Phase_5,152,9999,9999,9999,2556297312
10317,17,Jits_Phase_5,153,9999,9999,9999,2556798036
10317,17,Jits_Phase_5,154,9999,9999,9999,2557297788
10317,17,Jits_Phase_5,155,9999,9999,9999,2557797456
10317,17,Jits_Phase_5,156,9999,9999,9999,2558297200
10317,17,Jits_Phase_5,157,9999,9999,9999,2558797916
10317,17,Jits_Phase_5,158,9999,9999,9999,2559297644
10317,17,Jits_Phase_5,159,9999,9999,9999,2559797312
10317,17,Jits_Phase_5,160,9999,9999,9999,2560298100
10317,17,Jits_Phase_5,161,9999,9999,9999,2560797788
10317,17,Jits_Phase_5,162,9999,9999,9999,2561297476
10317,17,Jits_Phase_5,163,9999,9999,9999,2561797240
10317,17,Jits_Phase_5,164,9999,9999,9999,2562297972
10317,17,Jits_Phase_5,165,9999,9999,9999,2562797652
10317,17,Jits_Phase_5,166,9999,9999,9999,2563297340
10317,17,Jits_Phase_5,167,9999,9999,9999,2563798132
10317,17,Jits_Phase_5,168,9999,9999,9999,2564308076
10317,17,Jits_Phase_5,169,9999,9999,9999,2564807748
10318,7,Jits_ISO_8,0,5,56,103,2573101416
10318,7,Jits_ISO_8,1,5,63,98,2573104512
10318,7,Jits_ISO_8,2,5,80,127,2573107860
10318,7,Jits_ISO_8,0,5,56,103,2573901068
10318,7,Jits_ISO_8,1,5,63,98,2573904244
10318,7,Jits_ISO_8,2,5,80,127,2573907292
10318,7,Jits_ISO_8,0,5,80,127,2574640380
10318,7,Jits_ISO_8,1,1,48,35,2574682104
10318,7,Jits_ISO_8,2,5,63,98,2574730756
10318,7,Jits_ISO_8,3,5,56,103,2574741028
10318,7,Jits_ISO_8,0,5,56,103,2575460804
10318,7,Jits_ISO_8,1,5,63,98,2575471076
10318,7,Jits_ISO_8,2,1,48,36,2575486328
10318,7,Jits_ISO_8,3,5,80,127,2575561052
10318,7,Jits_ISO_8,0,5,63,98,2576230932
10318,7,Jits_ISO_8,1,1,48,32,2576243720
10318,7,Jits_ISO_8,2,5,80,127,2576260528
10318,7,Jits_ISO_8,3,5,56,103,2576291176
10318,7,Jits_ISO_8,0,1,48,29,2576968700
10318,7,Jits_ISO_8,1,5,56,103,2577030628
10318,7,Jits_ISO_8,2,5,80,127,2577130792
10318,7,Jits_ISO_8,3,5,63,98,2577180992
10318,7,Jits_ISO_8,0,5,56,103,2577831392
10318,7,Jits_ISO_8,1,1,48,25,2577832804
10318,7,Jits_ISO_8,2,5,80,127,2577880396
10318,7,Jits_ISO_8,3,5,63,98,2577921384
10318,7,Jits_ISO_8,0,1,48,29,2578605160
10318,7,Jits_ISO_8,1,5,80,127,2578660856
10318,7,Jits_ISO_8,2,5,63,98,2578690308
10318,7,Jits_ISO_8,3,5,56,103,2578761044
10318,7,Jits_ISO_8,0,1,48,26,2579409892
10318,7,Jits_ISO_8,1,5,63,98,2579491060
10318,7,Jits_ISO_8,2,5,56,103,2579520872
10318,7,Jits_ISO_8,3,5,80,127,2579581212
10318,7,Jits_ISO_8,0,5,56,103,2580230616
10318,7,Jits_ISO_8,1,5,80,127,2580233532
10318,7,Jits_ISO_8,2,1,48,20,2580265196
10318,7,Jits_ISO_8,3,5,63,98,2580351332
10318,7,Jits_ISO_8,0,1,48,25,2580994776
10318,7,Jits_ISO_8,1,5,56,103,2581111096
10318,7,Jits_ISO_8,2,5,80,127,2581151036
10318,7,Jits_ISO_8,3,5,63,98,2581161384
10318,7,Jits_ISO_8,0,1,48,25,2581851240
10318,7,Jits_ISO_8,1,5,56,103,2581870892
10318,7,Jits_ISO_8,2,5,80,127,2581890308
10318,7,Jits_ISO_8,3,5,63,98,2581971356
10318,7,Jits_ISO_8,0,1,48,24,2582617744
10318,7,Jits_ISO_8,1,5,80,127,2582660564
10318,7,Jits_ISO_8,2,5,56,103,2582760948
10318,7,Jits_ISO_8,3,5,63,98,2582771144
10318,7,Jits_ISO_8,0,5,63,98,2583430688
10318,7,Jits_ISO_8,1,1,48,24,2583464524
10318,7,Jits_ISO_8,2,5,80,127,2583490852
10318,7,Jits_ISO_8,3,5,56,103,2583501120
10318,7,Jits_ISO_8,0,1,48,22,2584187416
10318,7,Jits_ISO_8,1,5,56,103,2584231508
10318,7,Jits_ISO_8,2,5,63,98,2584300880
10318,7,Jits_ISO_8,3,5,80,127,2584304468
10318,7,Jits_ISO_8,0,1,48,22,2584971692
10318,7,Jits_ISO_8,1,5,63,98,2585060804
10318,7,Jits_ISO_8,2,5,56,103,2585110988
10318,7,Jits_ISO_8,3,5,80,127,2585114056
10318,7,Jits_ISO_8,0,1,48,19,2585752356
10318,7,Jits_ISO_8,1,5,56,103,2585820796
10318,7,Jits_ISO_8,2,5,80,127,2585823708
10318,7,Jits_ISO_8,3,5,63,98,2585910684
10318,7,Jits_ISO_8,0,1,48,22,2586558876
10318,7,Jits_ISO_8,1,5,63,98,2586661300
10318,7,Jits_ISO_8,2,5,56,103,2586751240
10318,7,Jits_ISO_8,3,5,80,127,2586780988
10318,7,Jits_ISO_8,0,1,48,20,2587374692
10318,7,Jits_ISO_8,1,5,56,103,2587450844
10318,7,Jits_ISO_8,2,5,63,98,2587551028
10318,7,Jits_ISO_8,3,5,80,127,2587580928
10318,7,Jits_ISO_8,0,5,63,98,2588271040
10318,7,Jits_ISO_8,1,1,48,24,2588273200
10318,7,Jits_ISO_8,2,5,56,103,2588281156
10318,7,Jits_ISO_8,3,5,80,127,2588371720
10318,7,Jits_ISO_8,0,1,48,19,2589003888
10318,7,Jits_ISO_8,1,5,63,98,2589091052
10318,7,Jits_ISO_8,2,5,56,103,2589170984
10318,7,Jits_ISO_8,3,5,80,127,2589174048
10318,7,Jits_ISO_8,0,1,48,24,2589807108
10318,7,Jits_ISO_8,1,5,80,127,2589850900
10318,7,Jits_ISO_8,2,5,63,98,2589870536
10318,7,Jits_ISO_8,3,5,56,103,2589930836
10318,7,Jits_ISO_8,0,1,48,23,2590624952
10318,7,Jits_ISO_8,1,5,56,103,2590690764
10318,7,Jits_ISO_8,2,5,63,98,2590711220
10318,7,Jits_ISO_8,3,5,80,127,2590714660
10318,7,Jits_ISO_8,0,1,48,19,2591395504
10318,7,Jits_ISO_8,1,5,63,98,2591430976
10318,7,Jits_ISO_8,2,5,80,127,2591510908
10318,7,Jits_ISO_8,3,5,56,103,2591521252
10318,7,Jits_ISO_8,0,5,63,98,2592251292
10318,7,Jits_ISO_8,1,5,56,103,2592270632
10318,7,Jits_ISO_8,2,5,80,127,2592320760
10318,7,Jits_ISO_8,0,5,80,127,2593050920
10318,7,Jits_ISO_8,1,1,48,29,2593067892
10318,7,Jits_ISO_8,2,5,63,98,2593091004
10318,7,Jits_ISO_8,3,5,56,103,2593111560
10318,7,Jits_ISO_8,0,1,48,25,2593827668
10318,7,Jits_ISO_8,1,5,56,103,2593890668
10318,7,Jits_ISO_8,2,5,63,98,2593900940
10318,7,Jits_ISO_8,3,5,80,127,2593921620
10318,7,Jits_ISO_8,0,5,56,103,2594620828
10318,7,Jits_ISO_8,1,1,48,25,2594636628
10318,7,Jits_ISO_8,2,5,63,98,2594710760
10318,7,Jits_ISO_8,3,5,80,127,2594771432
10318,7,Jits_ISO_8,0,1,48,22,2595432612
10318,7,Jits_ISO_8,1,5,80,127,2595451288
10318,7,Jits_ISO_8,2,5,56,103,2595460736
10318,7,Jits_ISO_8,3,5,63,98,2595531004
10318,7,Jits_ISO_8,0,1,48,21,2596253588
10318,7,Jits_ISO_8,1,5,63,98,2596280668
10318,7,Jits_ISO_8,2,5,80,127,2596370788
10318,7,Jits_ISO_8,3,5,56,103,2596380984
10318,7,Jits_ISO_8,0,5,63,98,2597020900
10318,7,Jits_ISO_8,1,5,80,127,2597071328
10318,7,Jits_ISO_8,2,1,48,31,2597081716
10318,7,Jits_ISO_8,3,5,56,103,2597130664
10318,7,Jits_ISO_8,0,1,48,27,2597795616
10318,7,Jits_ISO_8,1,5,56,103,2597850568
10318,7,Jits_ISO_8,2,5,80,127,2597900684
10318,7,Jits_ISO_8,3,5,63,98,2597921068
10318,7,Jits_ISO_8,0,1,48,28,2598589044
10318,7,Jits_ISO_8,1,5,56,103,2598620460
10318,7,Jits_ISO_8,2,5,80,127,2598680852
10318,7,Jits_ISO_8,3,5,63,98,2598750544
10318,7,Jits_ISO_8,0,5,56,103,2599421444
10318,7,Jits_ISO_8,1,5,80,127,2599450900
10318,7,Jits_ISO_8,2,5,63,98,2599480572
10318,7,Jits_ISO_8,3,1,48,27,2599482436
10318,7,Jits_ISO_8,0,5,56,103,2600260872
10318,7,Jits_ISO_8,1,1,48,21,2600268804
10318,7,Jits_ISO_8,2,5,80,127,2600280676
10318,7,Jits_ISO_8,3,5,63,98,2600340844
10318,7,Jits_ISO_8,0,1,48,24,2601074592
10318,7,Jits_ISO_8,1,5,80,127,2601140560
10318,7,Jits_ISO_8,2,5,56,103,2601150904
10318,7,Jits_ISO_8,3,5,63,98,2601161028
10318,7,Jits_ISO_8,0,5,56,103,2601901544
10318,7,Jits_ISO_8,1,1,48,22,2601919808
10318,7,Jits_ISO_8,2,5,80,127,2601941476
10318,7,Jits_ISO_8,3,5,63,98,2601971004
10318,7,Jits_ISO_8,0,5,56,103,2602670484
10318,7,Jits_ISO_8,1,1,48,24,2602695848
10318,7,Jits_ISO_8,2,5,63,98,2602701124
10318,7,Jits_ISO_8,3,5,80,127,2602741360
10318,7,Jits_ISO_8,0,5,80,127,2603420904
10318,7,Jits_ISO_8,1,1,48,26,2603425592
10318,7,Jits_ISO_8,2,5,63,98,2603471176
10318,7,Jits_ISO_8,3,5,56,103,2603490736
10318,7,Jits_ISO_8,0,1,48,24,2604204404
10318,7,Jits_ISO_8,1,5,56,103,2604250436
10318,7,Jits_ISO_8,2,5,80,127,2604321228
10318,7,Jits_ISO_8,3,5,63,98,2604380520
10318,7,Jits_ISO_8,0,1,48,27,2605050752
10318,7,Jits_ISO_8,1,5,80,127,2605052244
10318,7,Jits_ISO_8,2,5,63,98,2605141432
10318,7,Jits_ISO_8,3,5,56,103,2605160832
10318,7,Jits_ISO_8,0,5,63,98,2605870400
10318,7,Jits_ISO_8,1,1,48,25,2605871888
10318,7,Jits_ISO_8,2,5,56,103,2605890780
10318,7,Jits_ISO_8,3,5,80,127,2605930892
10318,7,Jits_ISO_8,0,1,48,25,2606605560
10318,7,Jits_ISO_8,1,5,80,127,2606631588
10318,7,Jits_ISO_8,2,5,63,98,2606650776
10318,7,Jits_ISO_8,3,5,56,103,2606730580
10318,7,Jits_ISO_8,0,1,48,16,2607412240
10318,7,Jits_ISO_8,1,5,63,98,2607420804
10318,7,Jits_ISO_8,2,5,56,103,2607531328
10318,7,Jits_ISO_8,3,5,80,127,2607534468
10318,7,Jits_ISO_8,0,1,48,26,2608210764
10318,7,Jits_ISO_8,1,5,63,98,2608240908
10318,7,Jits_ISO_8,2,5,56,103,2608251476
10318,7,Jits_ISO_8,3,5,80,127,2608254616
10318,7,Jits_ISO_8,0,1,48,28,2608930264
10318,7,Jits_ISO_8,1,5,56,103,2609021272
10318,7,Jits_ISO_8,2,5,80,127,2609141208
10318,7,Jits_ISO_8,3,5,63,98,2609181000
10318,7,Jits_ISO_8,0,5,56,103,2609840396
10318,7,Jits_ISO_8,1,1,48,25,2609891616
10318,7,Jits_ISO_8,2,5,80,127,2609921532
10318,7,Jits_ISO_8,3,5,63,98,2609940720
10318,7,Jits_ISO_8,0,5,56,103,2610641316
10318,7,Jits_ISO_8,1,1,48,23,2610668252
10318,7,Jits_ISO_8,2,5,63,98,2610750848
10318,7,Jits_ISO_8,3,5,80,127,2610754360
10318,7,Jits_ISO_8,0,1,48,27,2611452688
10318,7,Jits_ISO_8,1,5,56,103,2611470624
10318,7,Jits_ISO_8,2,5,80,127,2611501648
10318,7,Jits_ISO_8,3,5,63,98,2611520760
10318,7,Jits_ISO_8,0,1,48,27,2612245580
10318,7,Jits_ISO_8,1,5,63,98,2612250928
10318,7,Jits_ISO_8,2,5,56,103,2612261420
10318,7,Jits_ISO_8,3,5,80,127,2612270420
10318,7,Jits_ISO_8,0,1,48,30,2613007888
10318,7,Jits_ISO_8,1,5,80,127,2613040520
10318,7,Jits_ISO_8,2,5,56,103,2613090672
10318,7,Jits_ISO_8,3,5,63,98,2613130672
10318,7,Jits_ISO_8,0,1,48,29,2613840600
10318,7,Jits_ISO_8,1,5,80,127,2613860632
10318,7,Jits_ISO_8,2,5,63,98,2613881464
10318,7,Jits_ISO_8,3,5,56,103,2613931368
10318,7,Jits_ISO_8,0,1,48,31,2614658372
10318,7,Jits_ISO_8,1,5,80,127,2614670756
10318,7,Jits_ISO_8,2,5,56,103,2614701480
10318,7,Jits_ISO_8,3,5,63,98,2614771292
10318,7,Jits_ISO_8,0,1,48,19,2615457692
10318,7,Jits_ISO_8,1,5,56,103,2615520592
10318,7,Jits_ISO_8,2,5,80,127,2615530864
10318,7,Jits_ISO_8,3,5,63,98,2615570712
10318,7,Jits_ISO_8,0,5,56,103,2616231304
10318,7,Jits_ISO_8,1,5,63,98,2616250716
10318,7,Jits_ISO_8,2,1,48,21,2616283356
10318,7,Jits_ISO_8,3,5,80,127,2616321364
10318,7,Jits_ISO_8,0,1,48,30,2616975016
10318,7,Jits_ISO_8,1,5,63,98,2617050424
10318,7,Jits_ISO_8,2,5,80,127,2617110952
10318,7,Jits_ISO_8,3,5,56,103,2617131336
10318,7,Jits_ISO_8,0,1,48,29,2617829808
10318,7,Jits_ISO_8,1,5,80,127,2617841216
10318,7,Jits_ISO_8,2,5,56,103,2617870744
10318,7,Jits_ISO_8,3,5,63,98,2617901396
10318,7,Jits_ISO_8,0,1,48,27,2618610784
10318,7,Jits_ISO_8,1,5,56,103,2618640776
10318,7,Jits_ISO_8,2,5,63,98,2618701416
10318,7,Jits_ISO_8,3,5,80,127,2618760520
10318,7,Jits_ISO_8,0,1,48,19,2619412288
10318,7,Jits_ISO_8,1,5,80,127,2619461556
10318,7,Jits_ISO_8,2,5,56,103,2619480300
10318,7,Jits_ISO_8,3,5,63,98,2619551308
10318,7,Jits_ISO_8,0,1,48,29,2620251728
10318,7,Jits_ISO_8,1,5,80,127,2620260672
10318,7,Jits_ISO_8,2,5,63,98,2620281204
10318,7,Jits_ISO_8,3,5,56,103,2620311104
10318,7,Jits_ISO_8,0,1,48,41,2621047232
10318,7,Jits_ISO_8,1,5,80,127,2621051388
10318,7,Jits_ISO_8,2,5,63,98,2621070728
10318,7,Jits_ISO_8,3,5,56,103,2621131188
10318,7,Jits_ISO_8,0,5,80,127,2621851180
10318,7,Jits_ISO_8,1,1,48,44,2621896696
10318,7,Jits_ISO_8,2,5,56,103,2621951352
10318,7,Jits_ISO_8,3,5,63,98,2621981100
10318,7,Jits_ISO_8,0,5,63,98,2622640496
10318,7,Jits_ISO_8,1,5,80,127,2622690624
10318,7,Jits_ISO_8,2,1,48,46,2622706400
10318,7,Jits_ISO_8,3,5,56,103,2622711300
10318,7,Jits_ISO_8,0,1,48,33,2623429308
10318,7,Jits_ISO_8,1,5,80,127,2623481176
10318,7,Jits_ISO_8,2,5,56,103,2623511000
10318,7,Jits_ISO_8,3,5,63,98,2623514140
10318,7,Jits_ISO_8,0,1,48,31,2624259948
10318,7,Jits_ISO_8,1,5,63,98,2624310696
10318,7,Jits_ISO_8,2,5,56,103,2624351168
10318,7,Jits_ISO_8,3,5,80,127,2624371252
10318,7,Jits_ISO_8,0,1,48,29,2624983160
10318,7,Jits_ISO_8,1,5,80,127,2625050920
10318,7,Jits_ISO_8,2,5,63,98,2625130952
10318,7,Jits_ISO_8,3,5,56,103,2625170812
10318,7,Jits_ISO_8,0,1,48,18,2625751180
10318,7,Jits_ISO_8,1,5,63,98,2625871092
10318,7,Jits_ISO_8,2,5,80,127,2625951188
10318,7,Jits_ISO_8,3,5,56,103,2625970452
10318,7,Jits_ISO_8,0,1,48,27,2626641648
10318,7,Jits_ISO_8,1,5,56,103,2626711128
10318,7,Jits_ISO_8,2,5,63,98,2626721248
10318,7,Jits_ISO_8,3,5,80,127,2626761024
10318,7,Jits_ISO_8,0,5,56,103,2627430900
10318,7,Jits_ISO_8,1,5,80,127,2627433892
10318,7,Jits_ISO_8,2,1,48,35,2627434860
10318,7,Jits_ISO_8,3,5,63,98,2627571204
10318,7,Jits_ISO_8,0,1,48,26,2628202256
10318,7,Jits_ISO_8,1,5,56,103,2628221312
10318,7,Jits_ISO_8,2,5,63,98,2628311360
10318,7,Jits_ISO_8,3,5,80,127,2628381116
10318,7,Jits_ISO_8,0,1,48,30,2628918780
10318,7,Jits_ISO_8,1,5,63,98,2629101096
10318,7,Jits_ISO_8,2,5,80,127,2629104460
10318,7,Jits_ISO_8,3,5,56,103,2629161188
10318,7,Jits_ISO_8,0,1,48,34,2629859288
10318,7,Jits_ISO_8,1,5,80,127,2629940456
10318,7,Jits_ISO_8,2,5,56,103,2629961296
10318,7,Jits_ISO_8,3,5,63,98,2629971268
10318,7,Jits_ISO_8,0,5,56,103,2630651240
10318,7,Jits_ISO_8,1,5,63,98,2630660316
10318,7,Jits_ISO_8,2,1,48,33,2630724264
10318,7,Jits_ISO_8,3,5,80,127,2630731184
10318,7,Jits_ISO_8,0,1,48,24,2631393584
10318,7,Jits_ISO_8,1,5,80,127,2631450928
10318,7,Jits_ISO_8,2,5,56,103,2631501140
10318,7,Jits_ISO_8,3,5,63,98,2631551416
10318,7,Jits_ISO_8,0,1,48,27,2632217784
10318,7,Jits_ISO_8,1,5,56,103,2632330592
10318,7,Jits_ISO_8,2,5,63,98,2632341160
10318,7,Jits_ISO_8,3,5,80,127,2632380728
10318,7,Jits_ISO_8,0,5,56,103,2633071136
10318,7,Jits_ISO_8,1,5,63,98,2633111224
10318,7,Jits_ISO_8,2,1,48,32,2633127300
10318,7,Jits_ISO_8,3,5,80,127,2633161196
10318,7,Jits_ISO_8,0,5,80,127,2633830704
10318,7,Jits_ISO_8,1,1,48,21,2633848052
10318,7,Jits_ISO_8,2,5,56,103,2633880904
10318,7,Jits_ISO_8,3,5,63,98,2633901360
10318,7,Jits_ISO_8,0,1,48,25,2634628452
10318,7,Jits_ISO_8,1,5,80,127,2634640828
10318,7,Jits_ISO_8,2,5,63,98,2634701076
10318,7,Jits_ISO_8,3,5,56,103,2634781076
10318,7,Jits_ISO_8,0,5,80,127,2635421140
10318,7,Jits_ISO_8,1,5,56,103,2635461008
10318,7,Jits_ISO_8,2,1,48,22,2635474760
10318,7,Jits_ISO_8,3,5,63,98,2635480560
10318,7,Jits_ISO_8,0,1,48,29,2636196392
10318,7,Jits_ISO_8,1,5,56,103,2636271124
10318,7,Jits_ISO_8,2,5,80,127,2636281100
10318,7,Jits_ISO_8,3,5,63,98,2636321100
10318,7,Jits_ISO_8,0,1,48,26,2637012816
10318,7,Jits_ISO_8,1,5,56,103,2637141496
10318,7,Jits_ISO_8,2,5,63,98,2637181436
10318,7,Jits_ISO_8,3,5,80,127,2637184800
10318,7,Jits_ISO_8,0,5,63,98,2637830468
10318,7,Jits_ISO_8,1,1,48,19,2637847888
10318,7,Jits_ISO_8,2,5,80,127,2637870400
10318,7,Jits_ISO_8,3,5,56,103,2637941360
10318,7,Jits_ISO_8,0,5,63,98,2638621028
10318,7,Jits_ISO_8,1,1,48,20,2638651048
10318,7,Jits_ISO_8,2,5,56,103,2638700992
10318,7,Jits_ISO_8,3,5,80,127,2638761440
10318,7,Jits_ISO_8,0,1,48,24,2639347340
10318,7,Jits_ISO_8,1,5,80,127,2639431016
10318,7,Jits_ISO_8,2,5,63,98,2639481132
10318,7,Jits_ISO_8,3,5,56,103,2639510884
10318,7,Jits_ISO_8,0,1,48,17,2640211368
10318,7,Jits_ISO_8,1,5,56,103,2640220460
10318,7,Jits_ISO_8,2,5,63,98,2640270812
10318,7,Jits_ISO_8,3,5,80,127,2640280932
10318,7,Jits_ISO_8,0,1,48,27,2641029752
10318,7,Jits_ISO_8,1,5,56,103,2641031324
10318,7,Jits_ISO_8,2,5,63,98,2641141148
10318,7,Jits_ISO_8,3,5,80,127,2641160488
10318,7,Jits_ISO_8,0,5,63,98,2641831264
10318,7,Jits_ISO_8,1,1,48,25,2641839712
10318,7,Jits_ISO_8,2,5,80,127,2641880416
10318,7,Jits_ISO_8,3,5,56,103,2641970756
10318,7,Jits_ISO_8,0,1,48,26,2642600156
10318,7,Jits_ISO_8,1,5,63,98,2642621004
10318,7,Jits_ISO_8,2,5,80,127,2642650604
10318,7,Jits_ISO_8,3,5,56,103,2642741020
10318,7,Jits_ISO_8,0,5,63,98,2643420492
10318,7,Jits_ISO_8,1,1,48,19,2643422504
10318,7,Jits_ISO_8,2,5,56,103,2643430976
10318,7,Jits_ISO_8,3,5,80,127,2643531084
10318,7,Jits_ISO_8,0,1,48,24,2644160892
10318,7,Jits_ISO_8,1,5,63,98,2644320740
10318,7,Jits_ISO_8,2,5,80,127,2644351392
10318,7,Jits_ISO_8,3,5,56,103,2644381068
10318,7,Jits_ISO_8,0,1,48,24,2645107696
10318,7,Jits_ISO_8,1,5,80,127,2645140928
10318,7,Jits_ISO_8,2,5,63,98,2645151196
10318,7,Jits_ISO_8,3,5,56,103,2645180948
10318,7,Jits_ISO_8,0,5,80,127,2645841152
10318,7,Jits_ISO_8,1,5,63,98,2645861160
10318,7,Jits_ISO_8,2,5,56,103,2645910988
10318,7,Jits_ISO_8,3,1,48,21,2645930816
10318,7,Jits_ISO_8,0,1,48,21,2646603972
10318,7,Jits_ISO_8,1,5,63,98,2646670684
10318,7,Jits_ISO_8,2,5,80,127,2646731060
10318,7,Jits_ISO_8,3,5,56,103,2646750920
10318,7,Jits_ISO_8,0,5,63,98,2647430760
10318,7,Jits_ISO_8,1,1,48,28,2647439056
10318,7,Jits_ISO_8,2,5,56,103,2647480808
10318,7,Jits_ISO_8,3,5,80,127,2647490928
10318,7,Jits_ISO_8,0,1,48,20,2648207796
10318,7,Jits_ISO_8,1,5,56,103,2648261024
10318,7,Jits_ISO_8,2,5,80,127,2648271148
10318,7,Jits_ISO_8,3,5,63,98,2648370704
10318,7,Jits_ISO_8,0,1,48,24,2649010440
10318,7,Jits_ISO_8,1,5,80,127,2649020728
10318,7,Jits_ISO_8,2,5,63,98,2649031072
10318,7,Jits_ISO_8,3,5,56,103,2649180404
10318,7,Jits_ISO_8,0,5,63,98,2649830852
10318,7,Jits_ISO_8,1,1,48,28,2649851804
10318,7,Jits_ISO_8,2,5,80,127,2649870860
10318,7,Jits_ISO_8,3,5,56,103,2649950516
10318,7,Jits_ISO_8,0,5,56,103,2650621192
10318,7,Jits_ISO_8,1,1,48,31,2650664468
10318,7,Jits_ISO_8,2,5,80,127,2650720564
10318,7,Jits_ISO_8,3,5,63,98,2650741172
10318,7,Jits_ISO_8,0,1,48,25,2651426124
10318,7,Jits_ISO_8,1,5,80,127,2651480352
10318,7,Jits_ISO_8,2,5,56,103,2651490772
10318,7,Jits_ISO_8,3,5,63,98,2651580740
10318,7,Jits_ISO_8,0,5,56,103,2652281192
10318,7,Jits_ISO_8,1,1,48,19,2652295396
10318,7,Jits_ISO_8,2,5,63,98,2652300748
10318,7,Jits_ISO_8,3,5,80,127,2652380764
10318,7,Jits_ISO_8,0,5,63,98,2653030720
10318,7,Jits_ISO_8,1,1,48,21,2653034884
10318,7,Jits_ISO_8,2,5,56,103,2653120996
10318,7,Jits_ISO_8,3,5,80,127,2653123988
10318,7,Jits_ISO_8,0,1,48,19,2653782576
10318,7,Jits_ISO_8,1,5,56,103,2653861272
10318,7,Jits_ISO_8,2,5,80,127,2653920680
10318,7,Jits_ISO_8,3,5,63,98,2653930800
10318,7,Jits_ISO_8,0,1,48,23,2654600200
10318,7,Jits_ISO_8,1,5,80,127,2654711240
10318,7,Jits_ISO_8,2,5,56,103,2654721436
10318,7,Jits_ISO_8,3,5,63,98,2654724648
10318,7,Jits_ISO_8,0,5,56,103,2655471104
10318,7,Jits_ISO_8,1,5,80,127,2655481224
10318,7,Jits_ISO_8,2,1,48,21,2655492812
10318,7,Jits_ISO_8,3,5,63,98,2655500852
10318,7,Jits_ISO_8,0,5,63,98,2656240932
10318,7,Jits_ISO_8,1,1,48,19,2656264652
10318,7,Jits_ISO_8,2,5,80,127,2656301616
10318,7,Jits_ISO_8,3,5,56,103,2656350720
10318,7,Jits_ISO_8,0,1,48,18,2657005764
10318,7,Jits_ISO_8,1,5,63,98,2657120736
10318,7,Jits_ISO_8,2,5,56,103,2657130932
10318,7,Jits_ISO_8,3,5,80,127,2657180984
10318,7,Jits_ISO_8,0,1,48,20,2657810584
10318,7,Jits_ISO_8,1,5,63,98,2657820944
10318,7,Jits_ISO_8,2,5,80,127,2657840580
10318,7,Jits_ISO_8,3,5,56,103,2657850704
10318,7,Jits_ISO_8,0,1,48,26,2658542540
10318,7,Jits_ISO_8,1,5,63,98,2658620788
10318,7,Jits_ISO_8,2,5,80,127,2658624080
10318,7,Jits_ISO_8,3,5,56,103,2658660736
10318,7,Jits_ISO_8,0,1,48,24,2659348216
10318,7,Jits_ISO_8,1,5,63,98,2659491072
10318,7,Jits_ISO_8,2,5,80,127,2659520824
10318,7,Jits_ISO_8,3,5,56,103,2659531092
10318,7,Jits_ISO_8,0,5,56,103,2660240748
10318,7,Jits_ISO_8,1,5,80,127,2660270648
10318,7,Jits_ISO_8,2,1,48,27,2660274220
10318,7,Jits_ISO_8,3,5,63,98,2660301292
10318,7,Jits_ISO_8,0,1,48,20,2661000432
10318,7,Jits_ISO_8,1,5,63,98,2661140772
10318,7,Jits_ISO_8,2,5,56,103,2661180708
10318,7,Jits_ISO_8,3,5,80,127,2661183848
10318,7,Jits_ISO_8,0,5,80,127,2661841152
10318,7,Jits_ISO_8,1,5,56,103,2661921172
10318,7,Jits_ISO_8,2,5,63,98,2661971620
10318,7,Jits_ISO_8,0,5,80,127,2662620568
10318,7,Jits_ISO_8,1,5,56,103,2662641028
10318,7,Jits_ISO_8,2,1,48,21,2662703632
10318,7,Jits_ISO_8,3,5,63,98,2662731104
10318,7,Jits_ISO_8,0,1,48,21,2663395820
10318,7,Jits_ISO_8,1,5,80,127,2663461336
10318,7,Jits_ISO_8,2,5,63,98,2663501136
10318,7,Jits_ISO_8,3,5,56,103,2663541072
10318,7,Jits_ISO_8,0,1,48,27,2664206840
10318,7,Jits_ISO_8,1,5,63,98,2664231224
10318,7,Jits_ISO_8,2,5,80,127,2664290744
10318,7,Jits_ISO_8,3,5,56,103,2664321380
10318,7,Jits_ISO_8,0,1,48,21,2665003852
10318,7,Jits_ISO_8,1,5,56,103,2665030956
10318,7,Jits_ISO_8,2,5,80,127,2665060780
10318,7,Jits_ISO_8,3,5,63,98,2665150824
10318,7,Jits_ISO_8,0,1,48,25,2665799024
10318,7,Jits_ISO_8,1,5,56,103,2665840928
10318,7,Jits_ISO_8,2,5,80,127,2665950676
10318,7,Jits_ISO_8,3,5,63,98,2665981548
10318,7,Jits_ISO_8,0,1,48,27,2666617072
10318,7,Jits_ISO_8,1,5,56,103,2666690980
10318,7,Jits_ISO_8,2,5,63,98,2666751284
10318,7,Jits_ISO_8,3,5,80,127,2666781032
10318,7,Jits_ISO_8,0,5,56,103,2667460960
10318,7,Jits_ISO_8,1,5,63,98,2667530716
10318,7,Jits_ISO_8,2,5,80,127,2667551028
10318,7,Jits_ISO_8,3,1,48,21,2667588624
10318,7,Jits_ISO_8,0,5,80,127,2668230936
10318,7,Jits_ISO_8,1,5,63,98,2668250572
10318,7,Jits_ISO_8,2,1,48,24,2668284036
10318,7,Jits_ISO_8,3,5,56,103,2668300768
10318,7,Jits_ISO_8,0,9999,9999,9999,2573498488
10318,7,Jits_ISO_8,1,9999,9999,9999,2574298192
10318,7,Jits_ISO_8,2,9999,9999,9999,2575098936
10318,7,Jits_ISO_8,3,9999,9999,9999,2575898736
10318,7,Jits_ISO_8,4,9999,9999,9999,2576698452
10318,7,Jits_ISO_8,5,9999,9999,9999,2577498192
10318,7,Jits_ISO_8,6,9999,9999,9999,2578298944
10318,7,Jits_ISO_8,7,9999,9999,9999,2579098744
10318,7,Jits_ISO_8,8,9999,9999,9999,2579898460
10318,7,Jits_ISO_8,9,9999,9999,9999,2580698228
10318,7,Jits_ISO_8,10,9999,9999,9999,2581498932
10318,7,Jits_ISO_8,11,9999,9999,9999,2582298716
10318,7,Jits_ISO_8,12,9999,9999,9999,2583098432
10318,7,Jits_ISO_8,13,9999,9999,9999,2583898164
10318,7,Jits_ISO_8,14,9999,9999,9999,2584698980
10318,7,Jits_ISO_8,15,9999,9999,9999,2585498680
10318,7,Jits_ISO_8,16,9999,9999,9999,2586298448
10318,7,Jits_ISO_8,17,9999,9999,9999,2587098164
10318,7,Jits_ISO_8,18,9999,9999,9999,2587899000
10318,7,Jits_ISO_8,19,9999,9999,9999,2588698708
10318,7,Jits_ISO_8,20,9999,9999,9999,2589498420
10318,7,Jits_ISO_8,21,9999,9999,9999,2590298224
10318,7,Jits_ISO_8,22,9999,9999,9999,2591098972
10318,7,Jits_ISO_8,23,9999,9999,9999,2591898680
10318,7,Jits_ISO_8,24,9999,9999,9999,2592698484
10318,7,Jits_ISO_8,25,9999,9999,9999,2593498164
10318,7,Jits_ISO_8,26,9999,9999,9999,2594298936
10318,7,Jits_ISO_8,27,9999,9999,9999,2595098720
10318,7,Jits_ISO_8,28,9999,9999,9999,2595898444
10318,7,Jits_ISO_8,29,9999,9999,9999,2596698184
10318,7,Jits_ISO_8,30,9999,9999,9999,2597498936
10318,7,Jits_ISO_8,31,9999,9999,9999,2598298720
10318,7,Jits_ISO_8,32,9999,9999,9999,2599098432
10318,7,Jits_ISO_8,33,9999,9999,9999,2599898208
10318,7,Jits_ISO_8,34,9999,9999,9999,2600698976
10318,7,Jits_ISO_8,35,9999,9999,9999,2601498708
10318,7,Jits_ISO_8,36,9999,9999,9999,2602298424
10318,7,Jits_ISO_8,37,9999,9999,9999,2603098176
10318,7,Jits_ISO_8,38,9999,9999,9999,2603898940
10318,7,Jits_ISO_8,39,9999,9999,9999,2604698740
10318,7,Jits_ISO_8,40,9999,9999,9999,2605498456
10318,7,Jits_ISO_8,41,9999,9999,9999,2606298164
10318,7,Jits_ISO_8,42,9999,9999,9999,2607098992
10318,7,Jits_ISO_8,43,9999,9999,9999,2607898692
10318,7,Jits_ISO_8,44,9999,9999,9999,2608698460
10318,7,Jits_ISO_8,45,9999,9999,9999,2609498196
10318,7,Jits_ISO_8,46,9999,9999,9999,2610298952
10318,7,Jits_ISO_8,47,9999,9999,9999,2611098744
10318,7,Jits_ISO_8,48,9999,9999,9999,2611898472
10318,7,Jits_ISO_8,49,9999,9999,9999,2612698176
10318,7,Jits_ISO_8,50,9999,9999,9999,2613498932
10318,7,Jits_ISO_8,51,9999,9999,9999,2614298716
10318,7,Jits_ISO_8,52,9999,9999,9999,2615098432
10318,7,Jits_ISO_8,53,9999,9999,9999,2615898172
10318,7,Jits_ISO_8,54,9999,9999,9999,2616699000
10318,7,Jits_ISO_8,55,9999,9999,9999,2617498724
10318,7,Jits_ISO_8,56,9999,9999,9999,2618298432
10318,7,Jits_ISO_8,57,9999,9999,9999,2619098220
10318,7,Jits_ISO_8,58,9999,9999,9999,2619898972
10318,7,Jits_ISO_8,59,9999,9999,9999,2620698680
10318,7,Jits_ISO_8,60,9999,9999,9999,2621498468
10318,7,Jits_ISO_8,61,9999,9999,9999,2622298208
10318,7,Jits_ISO_8,62,9999,9999,9999,2623098976
10318,7,Jits_ISO_8,63,9999,9999,9999,2623898676
10318,7,Jits_ISO_8,64,9999,9999,9999,2624698464
10318,7,Jits_ISO_8,65,9999,9999,9999,2625498176
10318,7,Jits_ISO_8,66,9999,9999,9999,2626298936
10318,7,Jits_ISO_8,67,9999,9999,9999,2627098724
10318,7,Jits_ISO_8,68,9999,9999,9999,2627898492
10318,7,Jits_ISO_8,69,9999,9999,9999,2628698164
10318,7,Jits_ISO_8,70,9999,9999,9999,2629498988
10318,7,Jits_ISO_8,71,9999,9999,9999,2630298704
10318,7,Jits_ISO_8,72,9999,9999,9999,2631098460
10318,7,Jits_ISO_8,73,9999,9999,9999,2631898184
10318,7,Jits_ISO_8,74,9999,9999,9999,2632698948
10318,7,Jits_ISO_8,75,9999,9999,9999,2633498732
10318,7,Jits_ISO_8,76,9999,9999,9999,2634298452
10318,7,Jits_ISO_8,77,9999,9999,9999,2635098200
10318,7,Jits_ISO_8,78,9999,9999,9999,2635898952
10318,7,Jits_ISO_8,79,9999,9999,9999,2636698676
10318,7,Jits_ISO_8,80,9999,9999,9999,2637498460
10318,7,Jits_ISO_8,81,9999,9999,9999,2638298164
10318,7,Jits_ISO_8,82,9999,9999,9999,2639098992
10318,7,Jits_ISO_8,83,9999,9999,9999,2639898696
10318,7,Jits_ISO_8,84,9999,9999,9999,2640698476
10318,7,Jits_ISO_8,85,9999,9999,9999,2641498212
10318,7,Jits_ISO_8,86,9999,9999,9999,2642298968
10318,7,Jits_ISO_8,87,9999,9999,9999,2643098748
10318,7,Jits_ISO_8,88,9999,9999,9999,2643898448
10318,7,Jits_ISO_8,89,9999,9999,9999,2644698164
10318,7,Jits_ISO_8,90,9999,9999,9999,2645499004
10318,7,Jits_ISO_8,91,9999,9999,9999,2646298708
10318,7,Jits_ISO_8,92,9999,9999,9999,2647098436
10318,7,Jits_ISO_8,93,9999,9999,9999,2647898232
10318,7,Jits_ISO_8,94,9999,9999,9999,2648698988
10318,7,Jits_ISO_8,95,9999,9999,9999,2649498696
10318,7,Jits_ISO_8,96,9999,9999,9999,2650298476
10318,7,Jits_ISO_8,97,9999,9999,9999,2651098184
10318,7,Jits_ISO_8,98,9999,9999,9999,2651898960
10318,7,Jits_ISO_8,99,9999,9999,9999,2652698744
10318,7,Jits_ISO_8,100,9999,9999,9999,2653498460
10318,7,Jits_ISO_8,101,9999,9999,9999,2654298188
10318,7,Jits_ISO_8,102,9999,9999,9999,2655098936
10318,7,Jits_ISO_8,103,9999,9999,9999,2655898720
10318,7,Jits_ISO_8,104,9999,9999,9999,2656698444
10318,7,Jits_ISO_8,105,9999,9999,9999,2657498232
10318,7,Jits_ISO_8,106,9999,9999,9999,2658298980
10318,7,Jits_ISO_8,107,9999,9999,9999,2659098744
10318,7,Jits_ISO_8,108,9999,9999,9999,2659898460
10318,7,Jits_ISO_8,109,9999,9999,9999,2660698184
10318,7,Jits_ISO_8,110,9999,9999,9999,2661498952
10318,7,Jits_ISO_8,111,9999,9999,9999,2662298684
10318,7,Jits_ISO_8,112,9999,9999,9999,2663098452
10318,7,Jits_ISO_8,113,9999,9999,9999,2663898176
10318,7,Jits_ISO_8,114,9999,9999,9999,2664698932
10318,7,Jits_ISO_8,115,9999,9999,9999,2665498708
10318,7,Jits_ISO_8,116,9999,9999,9999,2666298424
10318,7,Jits_ISO_8,117,9999,9999,9999,2667098232
10318,7,Jits_ISO_8,118,9999,9999,9999,2667898988
10318,7,Jits_ISO_8,119,9999,9999,9999,2668698704
10319,16,Jits_ISO_5,0,5,56,103,2677009868
10319,16,Jits_ISO_5,1,5,63,98,2677012888
10319,16,Jits_ISO_5,2,5,80,127,2677015940
10319,16,Jits_ISO_5,0,5,56,103,2677509516
10319,16,Jits_ISO_5,1,5,63,98,2677512688
10319,16,Jits_ISO_5,2,5,80,127,2677515808
10319,16,Jits_ISO_5,3,1,48,32,2677654244
10319,16,Jits_ISO_5,0,5,56,103,2678010232
10319,16,Jits_ISO_5,1,5,80,127,2678019532
10319,16,Jits_ISO_5,2,5,63,98,2678040064
10319,16,Jits_ISO_5,3,1,48,27,2678057632
10319,16,Jits_ISO_5,0,5,63,98,2678459936
10319,16,Jits_ISO_5,1,5,80,127,2678489388
10319,16,Jits_ISO_5,2,5,56,103,2678499808
10319,16,Jits_ISO_5,3,1,48,36,2678535056
10319,16,Jits_ISO_5,0,5,80,127,2679019904
10319,16,Jits_ISO_5,1,1,48,39,2679023392
10319,16,Jits_ISO_5,2,5,56,103,2679030316
10319,16,Jits_ISO_5,3,5,63,98,2679059768
10319,16,Jits_ISO_5,4,1,48,24,2679080256
10319,16,Jits_ISO_5,0,5,63,98,2679510384
10319,16,Jits_ISO_5,1,5,56,103,2679540060
10319,16,Jits_ISO_5,2,1,48,38,2679541024
10319,16,Jits_ISO_5,3,5,80,127,2679550472
10319,16,Jits_ISO_5,0,5,56,103,2679959852
10319,16,Jits_ISO_5,1,5,63,98,2680010648
10319,16,Jits_ISO_5,2,5,80,127,2680029540
10319,16,Jits_ISO_5,3,1,48,40,2680053032
10319,16,Jits_ISO_5,0,5,80,127,2680459680
10319,16,Jits_ISO_5,1,5,63,98,2680509808
10319,16,Jits_ISO_5,2,1,48,37,2680535544
10319,16,Jits_ISO_5,3,5,56,103,2680549736
10319,16,Jits_ISO_5,0,5,56,103,2680960324
10319,16,Jits_ISO_5,1,5,63,98,2680990148
10319,16,Jits_ISO_5,2,1,48,33,2681027044
10319,16,Jits_ISO_5,3,5,80,127,2681059744
10319,16,Jits_ISO_5,0,5,56,103,2681460216
10319,16,Jits_ISO_5,1,1,48,30,2681490836
10319,16,Jits_ISO_5,2,5,80,127,2681519552
10319,16,Jits_ISO_5,3,5,63,98,2681550420
10319,16,Jits_ISO_5,0,5,56,103,2681970152
10319,16,Jits_ISO_5,1,5,63,98,2681980496
10319,16,Jits_ISO_5,2,5,80,127,2682020212
10319,16,Jits_ISO_5,3,1,48,35,2682074788
10319,16,Jits_ISO_5,0,5,63,98,2682459412
10319,16,Jits_ISO_5,1,5,80,127,2682540552
10319,16,Jits_ISO_5,2,5,56,103,2682549700
10319,16,Jits_ISO_5,3,1,48,30,2682555516
10319,16,Jits_ISO_5,0,5,63,98,2683010396
10319,16,Jits_ISO_5,1,1,48,23,2683034560
10319,16,Jits_ISO_5,2,5,56,103,2683050472
10319,16,Jits_ISO_5,3,5,80,127,2683053540
10319,16,Jits_ISO_5,0,5,56,103,2683470268
10319,16,Jits_ISO_5,1,5,63,98,2683480536
10319,16,Jits_ISO_5,2,5,80,127,2683520324
10319,16,Jits_ISO_5,3,1,48,32,2683531760
10319,16,Jits_ISO_5,0,5,56,103,2683959568
10319,16,Jits_ISO_5,1,5,63,98,2683962788
10319,16,Jits_ISO_5,2,5,80,127,2683980352
10319,16,Jits_ISO_5,3,1,48,32,2684021748
10319,16,Jits_ISO_5,0,5,80,127,2684469720
10319,16,Jits_ISO_5,1,5,56,103,2684479992
10319,16,Jits_ISO_5,2,1,48,31,2684481852
10319,16,Jits_ISO_5,3,5,63,98,2684549512
10319,16,Jits_ISO_5,0,5,63,98,2684970336
10319,16,Jits_ISO_5,1,5,56,103,2684989752
10319,16,Jits_ISO_5,2,1,48,27,2685007196
10319,16,Jits_ISO_5,3,5,80,127,2685069708
10319,16,Jits_ISO_5,0,5,56,103,2685480184
10319,16,Jits_ISO_5,1,1,48,37,2685503228
10319,16,Jits_ISO_5,2,5,80,127,2685520364
10319,16,Jits_ISO_5,3,5,63,98,2685529436
10319,16,Jits_ISO_5,0,5,80,127,2685969816
10319,16,Jits_ISO_5,1,5,63,98,2685999564
10319,16,Jits_ISO_5,2,1,48,37,2686004100
10319,16,Jits_ISO_5,3,5,56,103,2686040488
10319,16,Jits_ISO_5,0,5,56,103,2686490228
10319,16,Jits_ISO_5,1,1,48,36,2686492676
10319,16,Jits_ISO_5,2,5,63,98,2686519600
10319,16,Jits_ISO_5,3,5,80,127,2686569824
10319,16,Jits_ISO_5,0,5,80,127,2686989680
10319,16,Jits_ISO_5,1,1,48,39,2687018728
10319,16,Jits_ISO_5,2,5,56,103,2687029612
10319,16,Jits_ISO_5,3,5,63,98,2687039808
10319,16,Jits_ISO_5,0,5,80,127,2687470068
10319,16,Jits_ISO_5,1,1,48,40,2687506524
10319,16,Jits_ISO_5,2,5,63,98,2687509852
10319,16,Jits_ISO_5,3,5,56,103,2687570336
10319,16,Jits_ISO_5,0,5,56,103,2687969740
10319,16,Jits_ISO_5,1,5,80,127,2687979788
10319,16,Jits_ISO_5,2,5,63,98,2688059876
10319,16,Jits_ISO_5,3,1,48,37,2688062920
10319,16,Jits_ISO_5,0,5,80,127,2688470236
10319,16,Jits_ISO_5,1,5,63,98,2688529728
10319,16,Jits_ISO_5,2,5,56,103,2688559328
10319,16,Jits_ISO_5,3,1,48,35,2688608696
10319,16,Jits_ISO_5,0,5,56,103,2688980320
10319,16,Jits_ISO_5,1,5,80,127,2689039664
10319,16,Jits_ISO_5,2,5,63,98,2689079600
10319,16,Jits_ISO_5,3,1,48,35,2689083240
10319,16,Jits_ISO_5,0,5,56,103,2689530264
10319,16,Jits_ISO_5,1,5,63,98,2689539412
10319,16,Jits_ISO_5,2,5,80,127,2689542848
10319,16,Jits_ISO_5,3,1,48,41,2689580216
10319,16,Jits_ISO_5,0,5,80,127,2689979736
10319,16,Jits_ISO_5,1,1,48,25,2690025628
10319,16,Jits_ISO_5,2,5,63,98,2690069936
10319,16,Jits_ISO_5,3,5,56,103,2690080204
10319,16,Jits_ISO_5,0,5,56,103,2690479616
10319,16,Jits_ISO_5,1,5,63,98,2690482716
10319,16,Jits_ISO_5,2,5,80,127,2690485688
10319,16,Jits_ISO_5,3,1,48,33,2690555628
10319,16,Jits_ISO_5,0,5,80,127,2690999584
10319,16,Jits_ISO_5,1,1,48,28,2691022332
10319,16,Jits_ISO_5,2,5,63,98,2691049780
10319,16,Jits_ISO_5,3,5,56,103,2691079524
10319,16,Jits_ISO_5,0,5,56,103,2691480080
10319,16,Jits_ISO_5,1,5,80,127,2691490496
10319,16,Jits_ISO_5,2,1,48,31,2691522908
10319,16,Jits_ISO_5,3,5,63,98,2691559796
10319,16,Jits_ISO_5,0,5,56,103,2691990012
10319,16,Jits_ISO_5,1,5,63,98,2692010468
10319,16,Jits_ISO_5,2,1,48,29,2692057112
10319,16,Jits_ISO_5,3,5,80,127,2692069880
10319,16,Jits_ISO_5,0,5,80,127,2692480396
10319,16,Jits_ISO_5,1,5,63,98,2692550148
10319,16,Jits_ISO_5,2,1,48,26,2692556260
10319,16,Jits_ISO_5,3,5,56,103,2692569404
10319,16,Jits_ISO_5,0,5,80,127,2692999624
10319,16,Jits_ISO_5,1,5,56,103,2693009820
10319,16,Jits_ISO_5,2,5,63,98,2693020164
10319,16,Jits_ISO_5,3,1,48,41,2693063504
10319,16,Jits_ISO_5,0,1,48,27,2693484268
10319,16,Jits_ISO_5,1,5,80,127,2693490216
10319,16,Jits_ISO_5,2,5,56,103,2693509484
10319,16,Jits_ISO_5,3,5,63,98,2693580280
10319,16,Jits_ISO_5,0,5,56,103,2694000224
10319,16,Jits_ISO_5,1,1,48,34,2694014280
10319,16,Jits_ISO_5,2,5,80,127,2694029668
10319,16,Jits_ISO_5,3,5,63,98,2694050200
10319,16,Jits_ISO_5,0,5,63,98,2694489408
10319,16,Jits_ISO_5,1,5,56,103,2694549944
10319,16,Jits_ISO_5,2,1,48,38,2694551356
10319,16,Jits_ISO_5,3,5,80,127,2694579540
10319,16,Jits_ISO_5,0,5,63,98,2694980072
10319,16,Jits_ISO_5,1,5,80,127,2694983364
10319,16,Jits_ISO_5,2,1,48,31,2695041552
10319,16,Jits_ISO_5,3,5,56,103,2695070340
10319,16,Jits_ISO_5,0,5,56,103,2695500324
10319,16,Jits_ISO_5,1,1,48,32,2695506508
10319,16,Jits_ISO_5,2,5,63,98,2695529696
10319,16,Jits_ISO_5,3,5,80,127,2695569632
10319,16,Jits_ISO_5,0,1,48,30,2695998920
10319,16,Jits_ISO_5,1,5,63,98,2696000412
10319,16,Jits_ISO_5,2,5,56,103,2696039928
10319,16,Jits_ISO_5,3,5,80,127,2696060312
10319,16,Jits_ISO_5,0,1,48,35,2696497880
10319,16,Jits_ISO_5,1,5,63,98,2696520324
10319,16,Jits_ISO_5,2,5,56,103,2696560188
10319,16,Jits_ISO_5,3,5,80,127,2696570308
10319,16,Jits_ISO_5,0,5,80,127,2697000264
10319,16,Jits_ISO_5,1,1,48,34,2697017552
10319,16,Jits_ISO_5,2,5,63,98,2697070108
10319,16,Jits_ISO_5,3,5,56,103,2697090416
10319,16,Jits_ISO_5,0,5,56,103,2697489672
10319,16,Jits_ISO_5,1,5,80,127,2697510356
10319,16,Jits_ISO_5,2,5,63,98,2697550316
10319,16,Jits_ISO_5,3,1,48,36,2697565196
10319,16,Jits_ISO_5,0,5,63,98,2697999676
10319,16,Jits_ISO_5,1,1,48,32,2698019828
10319,16,Jits_ISO_5,2,5,80,127,2698021320
10319,16,Jits_ISO_5,3,5,56,103,2698060088
10319,16,Jits_ISO_5,0,1,48,32,2698475912
10319,16,Jits_ISO_5,1,5,63,98,2698499548
10319,16,Jits_ISO_5,2,5,56,103,2698520080
10319,16,Jits_ISO_5,3,5,80,127,2698530200
10319,16,Jits_ISO_5,0,1,48,30,2698974228
10319,16,Jits_ISO_5,1,5,80,127,2699000176
10319,16,Jits_ISO_5,2,5,56,103,2699019664
10319,16,Jits_ISO_5,3,5,63,98,2699050380
10319,16,Jits_ISO_5,0,1,48,37,2699488124
10319,16,Jits_ISO_5,1,5,56,103,2699569656
10319,16,Jits_ISO_5,2,5,80,127,2699572796
10319,16,Jits_ISO_5,3,5,63,98,2699590052
10319,16,Jits_ISO_5,0,5,63,98,2699990500
10319,16,Jits_ISO_5,1,5,56,103,2700020324
10319,16,Jits_ISO_5,2,1,48,32,2700022848
10319,16,Jits_ISO_5,3,5,80,127,2700079508
10319,16,Jits_ISO_5,0,1,48,31,2700532760
10319,16,Jits_ISO_5,1,5,63,98,2700580208
10319,16,Jits_ISO_5,2,5,56,103,2700589432
10319,16,Jits_ISO_5,3,5,80,127,2700599628
10319,16,Jits_ISO_5,0,5,56,103,2701029688
10319,16,Jits_ISO_5,1,1,48,43,2701048692
10319,16,Jits_ISO_5,2,5,80,127,2701059428
10319,16,Jits_ISO_5,3,5,63,98,2701069624
10319,16,Jits_ISO_5,0,1,48,40,2701542736
10319,16,Jits_ISO_5,1,5,63,98,2701570556
10319,16,Jits_ISO_5,2,5,56,103,2701579628
10319,16,Jits_ISO_5,3,5,80,127,2701600164
10319,16,Jits_ISO_5,0,5,56,103,2701999428
10319,16,Jits_ISO_5,1,1,48,42,2702055060
10319,16,Jits_ISO_5,2,5,63,98,2702059960
10319,16,Jits_ISO_5,3,5,80,127,2702063176
10319,16,Jits_ISO_5,0,5,80,127,2702519620
10319,16,Jits_ISO_5,1,5,56,103,2702530188
10319,16,Jits_ISO_5,2,1,48,42,2702553460
10319,16,Jits_ISO_5,3,5,63,98,2702599560
10319,16,Jits_ISO_5,0,5,80,127,2703010152
10319,16,Jits_ISO_5,1,1,48,35,2703053796
10319,16,Jits_ISO_5,2,5,56,103,2703080048
10319,16,Jits_ISO_5,3,5,63,98,2703090244
10319,16,Jits_ISO_5,0,5,63,98,2703549912
10319,16,Jits_ISO_5,1,1,48,47,2703553476
10319,16,Jits_ISO_5,2,5,56,103,2703560024
10319,16,Jits_ISO_5,3,5,80,127,2703579512
10319,16,Jits_ISO_5,0,5,80,127,2704000348
10319,16,Jits_ISO_5,1,5,63,98,2704059764
10319,16,Jits_ISO_5,2,1,48,41,2704064228
10319,16,Jits_ISO_5,3,5,56,103,2704099768
10319,16,Jits_ISO_5,0,5,56,103,2704540176
10319,16,Jits_ISO_5,1,5,63,98,2704550224
10319,16,Jits_ISO_5,2,1,48,42,2704572524
10319,16,Jits_ISO_5,3,5,80,127,2704590152
10319,16,Jits_ISO_5,0,5,56,103,2704999920
10319,16,Jits_ISO_5,1,5,80,127,2705029520
10319,16,Jits_ISO_5,2,1,48,43,2705047460
10319,16,Jits_ISO_5,3,5,63,98,2705079640
10319,16,Jits_ISO_5,0,5,56,103,2705539372
10319,16,Jits_ISO_5,1,1,48,39,2705550060
10319,16,Jits_ISO_5,2,5,63,98,2705580352
10319,16,Jits_ISO_5,3,5,80,127,2705583716
10319,16,Jits_ISO_5,0,5,56,103,2706040236
10319,16,Jits_ISO_5,1,1,48,38,2706048844
10319,16,Jits_ISO_5,2,5,63,98,2706050276
10319,16,Jits_ISO_5,3,5,80,127,2706069912
10319,16,Jits_ISO_5,0,5,56,103,2706500048
10319,16,Jits_ISO_5,1,5,80,127,2706503040
10319,16,Jits_ISO_5,2,5,63,98,2706539984
10319,16,Jits_ISO_5,3,1,48,45,2706554340
10319,16,Jits_ISO_5,0,1,48,45,2707022004
10319,16,Jits_ISO_5,1,5,63,98,2707039636
10319,16,Jits_ISO_5,2,5,56,103,2707070208
10319,16,Jits_ISO_5,3,5,80,127,2707090140
10319,16,Jits_ISO_5,0,5,80,127,2707509536
10319,16,Jits_ISO_5,1,5,56,103,2707520176
10319,16,Jits_ISO_5,2,5,63,98,2707530176
10319,16,Jits_ISO_5,3,1,48,37,2707542808
10319,16,Jits_ISO_5,0,5,56,103,2708019540
10319,16,Jits_ISO_5,1,5,80,127,2708059432
10319,16,Jits_ISO_5,2,1,48,43,2708062172
10319,16,Jits_ISO_5,3,5,63,98,2708090216
10319,16,Jits_ISO_5,0,5,63,98,2708529404
10319,16,Jits_ISO_5,1,5,80,127,2708540044
10319,16,Jits_ISO_5,2,5,56,103,2708549896
10319,16,Jits_ISO_5,3,1,48,46,2708608824
10319,16,Jits_ISO_5,0,5,56,103,2709009952
10319,16,Jits_ISO_5,1,1,48,39,2709035540
10319,16,Jits_ISO_5,2,5,63,98,2709080396
10319,16,Jits_ISO_5,3,5,80,127,2709089620
10319,16,Jits_ISO_5,0,5,80,127,2709509468
10319,16,Jits_ISO_5,1,5,56,103,2709520036
10319,16,Jits_ISO_5,2,1,48,40,2709552820
10319,16,Jits_ISO_5,3,5,63,98,2709570028
10319,16,Jits_ISO_5,0,5,80,127,2710019400
10319,16,Jits_ISO_5,1,1,48,39,2710050092
10319,16,Jits_ISO_5,2,5,56,103,2710079932
10319,16,Jits_ISO_5,3,5,63,98,2710109480
10319,16,Jits_ISO_5,0,5,56,103,2710520040
10319,16,Jits_ISO_5,1,5,80,127,2710523260
10319,16,Jits_ISO_5,2,5,63,98,2710559980
10319,16,Jits_ISO_5,3,1,48,41,2710568352
10319,16,Jits_ISO_5,0,5,56,103,2711049452
10319,16,Jits_ISO_5,1,1,48,37,2711070032
10319,16,Jits_ISO_5,2,5,63,98,2711080168
10319,16,Jits_ISO_5,3,5,80,127,2711089540
10319,16,Jits_ISO_5,0,5,63,98,2711559540
10319,16,Jits_ISO_5,1,5,80,127,2711569960
10319,16,Jits_ISO_5,2,5,56,103,2711580156
10319,16,Jits_ISO_5,3,1,48,43,2711596304
10319,16,Jits_ISO_5,0,5,80,127,2712020316
10319,16,Jits_ISO_5,1,5,56,103,2712069468
10319,16,Jits_ISO_5,2,5,63,98,2712072460
10319,16,Jits_ISO_5,3,1,48,43,2712116100
10319,16,Jits_ISO_5,0,5,56,103,2712549720
10319,16,Jits_ISO_5,1,5,80,127,2712570180
10319,16,Jits_ISO_5,2,1,48,35,2712572772
10319,16,Jits_ISO_5,3,5,63,98,2712579468
10319,16,Jits_ISO_5,0,5,63,98,2713029988
10319,16,Jits_ISO_5,1,5,56,103,2713059740
10319,16,Jits_ISO_5,2,5,80,127,2713080120
10319,16,Jits_ISO_5,3,1,48,35,2713081308
10319,16,Jits_ISO_5,0,5,56,103,2713540132
10319,16,Jits_ISO_5,1,5,80,127,2713550180
10319,16,Jits_ISO_5,2,1,48,41,2713583716
10319,16,Jits_ISO_5,3,5,63,98,2713620000
10319,16,Jits_ISO_5,0,5,63,98,2714029472
10319,16,Jits_ISO_5,1,5,80,127,2714070380
10319,16,Jits_ISO_5,2,5,56,103,2714110316
10319,16,Jits_ISO_5,3,1,48,39,2714117640
10319,16,Jits_ISO_5,0,1,48,34,2714530368
10319,16,Jits_ISO_5,1,5,56,103,2714540432
10319,16,Jits_ISO_5,2,5,63,98,2714549804
10319,16,Jits_ISO_5,3,5,80,127,2714570036
10319,16,Jits_ISO_5,0,1,48,32,2715007608
10319,16,Jits_ISO_5,1,5,63,98,2715080092
10319,16,Jits_ISO_5,2,5,80,127,2715099432
10319,16,Jits_ISO_5,3,5,56,103,2715119948
10319,16,Jits_ISO_5,0,5,56,103,2715520428
10319,16,Jits_ISO_5,1,1,48,38,2715572016
10319,16,Jits_ISO_5,2,5,80,127,2715600288
10319,16,Jits_ISO_5,3,5,63,98,2715609436
10319,16,Jits_ISO_5,0,5,80,127,2716059960
10319,16,Jits_ISO_5,1,5,63,98,2716070228
10319,16,Jits_ISO_5,2,1,48,35,2716094772
10319,16,Jits_ISO_5,3,5,56,103,2716100116
10319,16,Jits_ISO_5,0,5,63,98,2716519924
10319,16,Jits_ISO_5,1,5,80,127,2716559860
10319,16,Jits_ISO_5,2,1,48,33,2716594516
10319,16,Jits_ISO_5,3,5,56,103,2716620164
10319,16,Jits_ISO_5,0,1,48,29,2717022396
10319,16,Jits_ISO_5,1,5,63,98,2717029912
10319,16,Jits_ISO_5,2,5,56,103,2717079964
10319,16,Jits_ISO_5,3,5,80,127,2717109564
10319,16,Jits_ISO_5,0,5,80,127,2717539916
10319,16,Jits_ISO_5,1,5,63,98,2717549964
10319,16,Jits_ISO_5,2,1,48,31,2717553604
10319,16,Jits_ISO_5,3,5,56,103,2717619708
10319,16,Jits_ISO_5,0,1,48,36,2718078744
10319,16,Jits_ISO_5,1,5,80,127,2718110160
10319,16,Jits_ISO_5,2,5,56,103,2718120500
10319,16,Jits_ISO_5,3,5,63,98,2718123644
10319,16,Jits_ISO_5,0,5,56,103,2718550336
10319,16,Jits_ISO_5,1,5,80,127,2718569900
10319,16,Jits_ISO_5,2,1,48,34,2718576232
10319,16,Jits_ISO_5,3,5,63,98,2718579940
10319,16,Jits_ISO_5,0,5,63,98,2719060352
10319,16,Jits_ISO_5,1,5,56,103,2719100216
10319,16,Jits_ISO_5,2,5,80,127,2719119924
10319,16,Jits_ISO_5,3,1,48,34,2719140576
10319,16,Jits_ISO_5,0,5,63,98,2719570280
10319,16,Jits_ISO_5,1,1,48,30,2719603964
10319,16,Jits_ISO_5,2,5,56,103,2719629688
10319,16,Jits_ISO_5,3,5,80,127,2719632752
10319,16,Jits_ISO_5,0,5,56,103,2720029976
10319,16,Jits_ISO_5,1,5,80,127,2720049760
10319,16,Jits_ISO_5,2,5,63,98,2720089572
10319,16,Jits_ISO_5,3,1,48,34,2720103252
10319,16,Jits_ISO_5,0,1,48,31,2720517856
10319,16,Jits_ISO_5,1,5,56,103,2720559532
10319,16,Jits_ISO_5,2,5,63,98,2720580092
10319,16,Jits_ISO_5,3,5,80,127,2720590064
10319,16,Jits_ISO_5,0,5,80,127,2721029524
10319,16,Jits_ISO_5,1,5,56,103,2721060172
10319,16,Jits_ISO_5,2,5,63,98,2721100132
10319,16,Jits_ISO_5,3,1,48,38,2721154708
10319,16,Jits_ISO_5,0,5,80,127,2721539380
10319,16,Jits_ISO_5,1,5,56,103,2721559840
10319,16,Jits_ISO_5,2,1,48,32,2721560808
10319,16,Jits_ISO_5,3,5,63,98,2721620320
10319,16,Jits_ISO_5,0,5,56,103,2722050512
10319,16,Jits_ISO_5,1,1,48,32,2722069552
10319,16,Jits_ISO_5,2,5,80,127,2722070964
10319,16,Jits_ISO_5,3,5,63,98,2722130256
10319,16,Jits_ISO_5,0,5,80,127,2722529584
10319,16,Jits_ISO_5,1,5,56,103,2722540004
10319,16,Jits_ISO_5,2,5,63,98,2722579788
10319,16,Jits_ISO_5,3,1,48,35,2722581652
10319,16,Jits_ISO_5,0,5,63,98,2723030520
10319,16,Jits_ISO_5,1,1,48,32,2723052444
10319,16,Jits_ISO_5,2,5,56,103,2723070300
10319,16,Jits_ISO_5,3,5,80,127,2723073444
10319,16,Jits_ISO_5,0,1,48,29,2723544072
10319,16,Jits_ISO_5,1,5,63,98,2723559980
10319,16,Jits_ISO_5,2,5,80,127,2723599844
10319,16,Jits_ISO_5,3,5,56,103,2723629444
10319,16,Jits_ISO_5,0,5,56,103,2724050280
10319,16,Jits_ISO_5,1,5,63,98,2724059428
10319,16,Jits_ISO_5,2,5,80,127,2724090148
10319,16,Jits_ISO_5,3,1,48,32,2724100688
10319,16,Jits_ISO_5,0,1,48,27,2724535676
10319,16,Jits_ISO_5,1,5,80,127,2724539904
10319,16,Jits_ISO_5,2,5,63,98,2724610332
10319,16,Jits_ISO_5,3,5,56,103,2724619928
10319,16,Jits_ISO_5,0,5,63,98,2725039348
10319,16,Jits_ISO_5,1,1,48,28,2725097144
10319,16,Jits_ISO_5,2,5,56,103,2725110068
10319,16,Jits_ISO_5,3,5,80,127,2725120264
10319,16,Jits_ISO_5,0,5,63,98,2725540200
10319,16,Jits_ISO_5,1,5,56,103,2725559912
10319,16,Jits_ISO_5,2,5,80,127,2725599624
10319,16,Jits_ISO_5,3,1,48,32,2725617884
10319,16,Jits_ISO_5,0,5,56,103,2726050196
10319,16,Jits_ISO_5,1,5,63,98,2726060392
10319,16,Jits_ISO_5,2,1,48,25,2726072948
10319,16,Jits_ISO_5,3,5,80,127,2726140172
10319,16,Jits_ISO_5,0,1,48,26,2726538548
10319,16,Jits_ISO_5,1,5,63,98,2726540044
10319,16,Jits_ISO_5,2,5,56,103,2726570320
10319,16,Jits_ISO_5,3,5,80,127,2726610180
10319,16,Jits_ISO_5,0,5,56,103,2727040456
10319,16,Jits_ISO_5,1,5,63,98,2727080244
10319,16,Jits_ISO_5,2,1,48,28,2727099700
10319,16,Jits_ISO_5,3,5,80,127,2727120172
10319,16,Jits_ISO_5,0,5,80,127,2727539976
10319,16,Jits_ISO_5,1,1,48,24,2727584740
10319,16,Jits_ISO_5,2,5,56,103,2727620060
10319,16,Jits_ISO_5,3,5,63,98,2727630256
10319,16,Jits_ISO_5,0,5,56,103,2728079804
10319,16,Jits_ISO_5,1,5,63,98,2728082720
10319,16,Jits_ISO_5,2,5,80,127,2728089852
10319,16,Jits_ISO_5,3,1,48,25,2728123228
10319,16,Jits_ISO_5,0,1,48,24,2728580336
10319,16,Jits_ISO_5,1,5,56,103,2728599912
10319,16,Jits_ISO_5,2,5,63,98,2728620520
10319,16,Jits_ISO_5,3,5,80,127,2728629816
10319,16,Jits_ISO_5,0,5,63,98,2729059796
10319,16,Jits_ISO_5,1,5,80,127,2729069844
10319,16,Jits_ISO_5,2,5,56,103,2729090524
10319,16,Jits_ISO_5,3,1,48,23,2729102708
10319,16,Jits_ISO_5,0,5,63,98,2729560424
10319,16,Jits_ISO_5,1,1,48,23,2729587136
10319,16,Jits_ISO_5,2,5,56,103,2729640284
10319,16,Jits_ISO_5,3,5,80,127,2729643648
10319,16,Jits_ISO_5,0,5,63,98,2730060004
10319,16,Jits_ISO_5,1,5,56,103,2730079640
10319,16,Jits_ISO_5,2,1,48,27,2730098644
10319,16,Jits_ISO_5,3,5,80,127,2730110356
10319,16,Jits_ISO_5,0,1,48,25,2730549344
10319,16,Jits_ISO_5,1,5,56,103,2730560100
10319,16,Jits_ISO_5,2,5,63,98,2730580264
10319,16,Jits_ISO_5,3,5,80,127,2730589560
10319,16,Jits_ISO_5,0,1,48,26,2731066068
10319,16,Jits_ISO_5,1,5,56,103,2731099616
10319,16,Jits_ISO_5,2,5,63,98,2731130188
10319,16,Jits_ISO_5,3,5,80,127,2731133548
10319,16,Jits_ISO_5,0,5,56,103,2731550028
10319,16,Jits_ISO_5,1,5,63,98,2731589988
10319,16,Jits_ISO_5,2,1,48,27,2731595720
10319,16,Jits_ISO_5,3,5,80,127,2731650368
10319,16,Jits_ISO_5,0,1,48,24,2732048772
10319,16,Jits_ISO_5,1,5,56,103,2732070292
10319,16,Jits_ISO_5,2,5,63,98,2732079664
10319,16,Jits_ISO_5,3,5,80,127,2732139928
10319,16,Jits_ISO_5,0,1,48,25,2732537020
10319,16,Jits_ISO_5,1,5,56,103,2732570096
10319,16,Jits_ISO_5,2,5,80,127,2732589580
10319,16,Jits_ISO_5,3,5,63,98,2732620104
10319,16,Jits_ISO_5,0,5,80,127,2733069832
10319,16,Jits_ISO_5,1,5,56,103,2733079808
10319,16,Jits_ISO_5,2,1,48,30,2733094012
10319,16,Jits_ISO_5,3,5,63,98,2733100556
10319,16,Jits_ISO_5,0,5,63,98,2733560140
10319,16,Jits_ISO_5,1,1,48,32,2733601916
10319,16,Jits_ISO_5,2,5,80,127,2733639948
10319,16,Jits_ISO_5,3,5,56,103,2733650368
10319,16,Jits_ISO_5,0,1,48,22,2734030028
10319,16,Jits_ISO_5,1,5,80,127,2734120256
10319,16,Jits_ISO_5,2,5,56,103,2734139872
10319,16,Jits_ISO_5,3,5,63,98,2734142716
10319,16,Jits_ISO_5,0,1,48,30,2734582796
10319,16,Jits_ISO_5,1,5,63,98,2734590312
10319,16,Jits_ISO_5,2,5,80,127,2734593752
10319,16,Jits_ISO_5,3,5,56,103,2734649728
10319,16,Jits_ISO_5,0,1,48,27,2735062668
10319,16,Jits_ISO_5,1,5,56,103,2735079776
10319,16,Jits_ISO_5,2,5,80,127,2735090124
10319,16,Jits_ISO_5,3,5,63,98,2735130056
10319,16,Jits_ISO_5,0,5,56,103,2735560036
10319,16,Jits_ISO_5,1,1,48,24,2735595816
10319,16,Jits_ISO_5,2,5,63,98,2735619448
10319,16,Jits_ISO_5,3,5,80,127,2735629792
10319,16,Jits_ISO_5,0,5,63,98,2736069972
10319,16,Jits_ISO_5,1,1,48,27,2736090096
10319,16,Jits_ISO_5,2,5,80,127,2736109904
10319,16,Jits_ISO_5,3,5,56,103,2736149912
10319,16,Jits_ISO_5,0,1,48,23,2736549596
10319,16,Jits_ISO_5,1,5,56,103,2736569700
10319,16,Jits_ISO_5,2,5,63,98,2736649772
10319,16,Jits_ISO_5,3,5,80,127,2736653060
10319,16,Jits_ISO_5,0,9999,9999,9999,2677257296
10319,16,Jits_ISO_5,1,9999,9999,9999,2677758040
10319,16,Jits_ISO_5,2,9999,9999,9999,2678257716
10319,16,Jits_ISO_5,3,9999,9999,9999,2678757464
10319,16,Jits_ISO_5,4,9999,9999,9999,2679257180
10319,16,Jits_ISO_5,5,9999,9999,9999,2679757944
10319,16,Jits_ISO_5,6,9999,9999,9999,2680257608
10319,16,Jits_ISO_5,7,9999,9999,9999,2680757356
10319,16,Jits_ISO_5,8,9999,9999,9999,2681258076
10319,16,Jits_ISO_5,9,9999,9999,9999,2681757820
10319,16,Jits_ISO_5,10,9999,9999,9999,2682257492
10319,16,Jits_ISO_5,11,9999,9999,9999,2682757244
10319,16,Jits_ISO_5,12,9999,9999,9999,2683257948
10319,16,Jits_ISO_5,13,9999,9999,9999,2683757676
10319,16,Jits_ISO_5,14,9999,9999,9999,2684257336
10319,16,Jits_ISO_5,15,9999,9999,9999,2684758104
10319,16,Jits_ISO_5,16,9999,9999,9999,2685268040
10319,16,Jits_ISO_5,17,9999,9999,9999,2685767768
10319,16,Jits_ISO_5,18,9999,9999,9999,2686267488
10319,16,Jits_ISO_5,19,9999,9999,9999,2686767160
10319,16,Jits_ISO_5,20,9999,9999,9999,2687267928
10319,16,Jits_ISO_5,21,9999,9999,9999,2687767672
10319,16,Jits_ISO_5,22,9999,9999,9999,2688267344
10319,16,Jits_ISO_5,23,9999,9999,9999,2688768064
10319,16,Jits_ISO_5,24,9999,9999,9999,2689278076
10319,16,Jits_ISO_5,25,9999,9999,9999,2689777740
10319,16,Jits_ISO_5,26,9999,9999,9999,2690277492
10319,16,Jits_ISO_5,27,9999,9999,9999,2690777212
10319,16,Jits_ISO_5,28,9999,9999,9999,2691277932
10319,16,Jits_ISO_5,29,9999,9999,9999,2691777604
10319,16,Jits_ISO_5,30,9999,9999,9999,2692277352
10319,16,Jits_ISO_5,31,9999,9999,9999,2692778072
10319,16,Jits_ISO_5,32,9999,9999,9999,2693277816
10319,16,Jits_ISO_5,33,9999,9999,9999,2693777492
10319,16,Jits_ISO_5,34,9999,9999,9999,2694277224
10319,16,Jits_ISO_5,35,9999,9999,9999,2694777948
10319,16,Jits_ISO_5,36,9999,9999,9999,2695277668
10319,16,Jits_ISO_5,37,9999,9999,9999,2695777400
10319,16,Jits_ISO_5,38,9999,9999,9999,2696278124
10319,16,Jits_ISO_5,39,9999,9999,9999,2696788044
10319,16,Jits_ISO_5,40,9999,9999,9999,2697287776
10319,16,Jits_ISO_5,41,9999,9999,9999,2697787496
10319,16,Jits_ISO_5,42,9999,9999,9999,2698287160
10319,16,Jits_ISO_5,43,9999,9999,9999,2698787940
10319,16,Jits_ISO_5,44,9999,9999,9999,2699287668
10319,16,Jits_ISO_5,45,9999,9999,9999,2699787328
10319,16,Jits_ISO_5,46,9999,9999,9999,2700288104
10319,16,Jits_ISO_5,47,9999,9999,9999,2700798036
10319,16,Jits_ISO_5,48,9999,9999,9999,2701297768
10319,16,Jits_ISO_5,49,9999,9999,9999,2701797452
10319,16,Jits_ISO_5,50,9999,9999,9999,2702297172
10319,16,Jits_ISO_5,51,9999,9999,9999,2702797892
10319,16,Jits_ISO_5,52,9999,9999,9999,2703297644
10319,16,Jits_ISO_5,53,9999,9999,9999,2703797320
10319,16,Jits_ISO_5,54,9999,9999,9999,2704298104
10319,16,Jits_ISO_5,55,9999,9999,9999,2704797776
10319,16,Jits_ISO_5,56,9999,9999,9999,2705297524
10319,16,Jits_ISO_5,57,9999,9999,9999,2705797192
10319,16,Jits_ISO_5,58,9999,9999,9999,2706297908
10319,16,Jits_ISO_5,59,9999,9999,9999,2706797640
10319,16,Jits_ISO_5,60,9999,9999,9999,2707297392
10319,16,Jits_ISO_5,61,9999,9999,9999,2707798092
10319,16,Jits_ISO_5,62,9999,9999,9999,2708308028
10319,16,Jits_ISO_5,63,9999,9999,9999,2708807772
10319,16,Jits_ISO_5,64,9999,9999,9999,2709307480
10319,16,Jits_ISO_5,65,9999,9999,9999,2709807220
10319,16,Jits_ISO_5,66,9999,9999,9999,2710307940
10319,16,Jits_ISO_5,67,9999,9999,9999,2710807676
10319,16,Jits_ISO_5,68,9999,9999,9999,2711307352
10319,16,Jits_ISO_5,69,9999,9999,9999,2711808072
10319,16,Jits_ISO_5,70,9999,9999,9999,2712318056
10319,16,Jits_ISO_5,71,9999,9999,9999,2712817728
10319,16,Jits_ISO_5,72,9999,9999,9999,2713317476
10319,16,Jits_ISO_5,73,9999,9999,9999,2713817212
10319,16,Jits_ISO_5,74,9999,9999,9999,2714317932
10319,16,Jits_ISO_5,75,9999,9999,9999,2714817588
10319,16,Jits_ISO_5,76,9999,9999,9999,2715317324
10319,16,Jits_ISO_5,77,9999,9999,9999,2715818108
10319,16,Jits_ISO_5,78,9999,9999,9999,2716317780
10319,16,Jits_ISO_5,79,9999,9999,9999,2716817528
10319,16,Jits_ISO_5,80,9999,9999,9999,2717317184
10319,16,Jits_ISO_5,81,9999,9999,9999,2717817968
10319,16,Jits_ISO_5,82,9999,9999,9999,2718317640
10319,16,Jits_ISO_5,83,9999,9999,9999,2718817376
10319,16,Jits_ISO_5,84,9999,9999,9999,2719318104
10319,16,Jits_ISO_5,85,9999,9999,9999,2719828020
10319,16,Jits_ISO_5,86,9999,9999,9999,2720327756
10319,16,Jits_ISO_5,87,9999,9999,9999,2720827476
10319,16,Jits_ISO_5,88,9999,9999,9999,2721327200
10319,16,Jits_ISO_5,89,9999,9999,9999,2721827920
10319,16,Jits_ISO_5,90,9999,9999,9999,2722327664
10319,16,Jits_ISO_5,91,9999,9999,9999,2722827332
10319,16,Jits_ISO_5,92,9999,9999,9999,2723328116
10319,16,Jits_ISO_5,93,9999,9999,9999,2723838040
10319,16,Jits_ISO_5,94,9999,9999,9999,2724337768
10319,16,Jits_ISO_5,95,9999,9999,9999,2724837440
10319,16,Jits_ISO_5,96,9999,9999,9999,2725337176
10319,16,Jits_ISO_5,97,9999,9999,9999,2725837880
10319,16,Jits_ISO_5,98,9999,9999,9999,2726337608
10319,16,Jits_ISO_5,99,9999,9999,9999,2726837356
10319,16,Jits_ISO_5,100,9999,9999,9999,2727338060
10319,16,Jits_ISO_5,101,9999,9999,9999,2727837808
10319,16,Jits_ISO_5,102,9999,9999,9999,2728337468
10319,16,Jits_ISO_5,103,9999,9999,9999,2728837216
10319,16,Jits_ISO_5,104,9999,9999,9999,2729337920
10319,16,Jits_ISO_5,105,9999,9999,9999,2729837648
10319,16,Jits_ISO_5,106,9999,9999,9999,2730337380
10319,16,Jits_ISO_5,107,9999,9999,9999,2730838084
10319,16,Jits_ISO_5,108,9999,9999,9999,2731348072
10319,16,Jits_ISO_5,109,9999,9999,9999,2731847804
10319,16,Jits_ISO_5,110,9999,9999,9999,2732347456
10319,16,Jits_ISO_5,111,9999,9999,9999,2732847180
10319,16,Jits_ISO_5,112,9999,9999,9999,2733347956
10319,16,Jits_ISO_5,113,9999,9999,9999,2733847632
10319,16,Jits_ISO_5,114,9999,9999,9999,2734347364
10319,16,Jits_ISO_5,115,9999,9999,9999,2734848064
10319,16,Jits_ISO_5,116,9999,9999,9999,2735358056
10319,16,Jits_ISO_5,117,9999,9999,9999,2735857716
10319,16,Jits_ISO_5,118,9999,9999,9999,2736357464
10319,16,Jits_ISO_5,119,9999,9999,9999,2736857188
10320,3,ISIP_8,0,5,42,127,2807528788
10320,3,ISIP_8,1,5,42,127,2808328544
10320,3,ISIP_8,2,1,48,31,2809084872
10320,3,ISIP_8,3,5,42,127,2809129264
10320,3,ISIP_8,4,1,48,42,2809902560
10320,3,ISIP_8,5,5,42,127,2809928948
10320,3,ISIP_8,6,1,48,39,2810679332
10320,3,ISIP_8,7,5,42,127,2810728680
10320,3,ISIP_8,8,1,48,37,2811462108
10320,3,ISIP_8,9,5,42,127,2811528488
10320,3,ISIP_8,10,1,48,32,2812271940
10320,3,ISIP_8,11,5,42,127,2812329568
10320,3,ISIP_8,12,1,48,29,2813043100
10320,3,ISIP_8,13,5,42,127,2813129152
10320,3,ISIP_8,14,1,48,27,2813818676
10320,3,ISIP_8,15,5,42,127,2813928944
10320,3,ISIP_8,16,1,48,30,2814629476
10320,3,ISIP_8,17,5,42,127,2814728456
10320,3,ISIP_8,18,1,48,28,2815475584
10320,3,ISIP_8,19,5,42,127,2815529548
10320,3,ISIP_8,20,1,48,28,2816282724
10320,3,ISIP_8,21,5,42,127,2816329156
10320,3,ISIP_8,22,1,48,24,2817083680
10320,3,ISIP_8,23,5,42,127,2817128892
10320,3,ISIP_8,24,1,48,28,2817872340
10320,3,ISIP_8,25,5,42,127,2817928476
10320,3,ISIP_8,26,1,48,22,2818694812
10320,3,ISIP_8,27,5,42,127,2818729480
10320,3,ISIP_8,28,1,48,30,2819485048
10320,3,ISIP_8,29,5,42,127,2819529288
10320,3,ISIP_8,30,1,48,27,2820298772
10320,3,ISIP_8,31,5,42,127,2820328724
10320,3,ISIP_8,32,5,42,127,2821128464
10320,3,ISIP_8,33,1,48,18,2821138912
10320,3,ISIP_8,34,1,48,24,2821925388
10320,3,ISIP_8,35,5,42,127,2821929384
10320,3,ISIP_8,36,1,48,25,2822720504
10320,3,ISIP_8,37,5,42,127,2822729440
10320,3,ISIP_8,38,1,48,27,2823518820
10320,3,ISIP_8,39,5,42,127,2823529176
10320,3,ISIP_8,40,1,48,22,2824322148
10320,3,ISIP_8,41,5,42,127,2824328612
10320,3,ISIP_8,42,1,48,19,2825117608
10320,3,ISIP_8,43,5,42,127,2825129392
10320,3,ISIP_8,44,5,42,127,2825929280
10320,3,ISIP_8,45,1,48,24,2825952520
10320,3,ISIP_8,46,1,48,26,2826688956
10320,3,ISIP_8,47,5,42,127,2826728784
10320,3,ISIP_8,48,1,48,28,2827498640
10320,3,ISIP_8,49,5,42,127,2827528592
10320,3,ISIP_8,50,1,48,25,2828273764
10320,3,ISIP_8,51,5,42,127,2828329296
10320,3,ISIP_8,52,1,48,24,2829111568
10320,3,ISIP_8,53,5,42,127,2829129204
10320,3,ISIP_8,54,1,48,21,2829928416
10320,3,ISIP_8,55,5,42,127,2829929984
10320,3,ISIP_8,56,5,42,127,2830728528
10320,3,ISIP_8,57,1,48,29,2830730392
10320,3,ISIP_8,58,1,48,27,2831529876
10320,3,ISIP_8,59,1,48,28,2832341648
10320,3,ISIP_8,60,1,48,26,2833098884
10320,3,ISIP_8,61,1,48,23,2833888136
10320,3,ISIP_8,62,1,48,27,2834668120
10320,3,ISIP_8,63,1,48,22,2835495000
10320,3,ISIP_8,64,1,48,24,2836271088
10320,3,ISIP_8,65,1,48,19,2837035144
10320,3,ISIP_8,66,1,48,32,2837837892
10320,3,ISIP_8,67,1,48,26,2838611884
10320,3,ISIP_8,68,1,48,27,2839394416
10320,3,ISIP_8,69,1,48,24,2840141412
10320,3,ISIP_8,70,1,48,29,2840928124
10320,3,ISIP_8,71,1,48,28,2841706012
10320,3,ISIP_8,72,1,48,24,2842485924
10320,3,ISIP_8,73,1,48,29,2843246452
10320,3,ISIP_8,74,1,48,28,2844069900
10320,3,ISIP_8,75,1,48,29,2844823548
10320,3,ISIP_8,76,1,48,29,2845600464
10320,3,ISIP_8,77,1,48,29,2846368784
10320,3,ISIP_8,78,1,48,26,2847124448
10320,3,ISIP_8,79,1,48,27,2847958144
10320,3,ISIP_8,80,1,48,23,2848719200
10320,3,ISIP_8,81,1,48,27,2849520876
10320,3,ISIP_8,82,1,48,30,2850353740
10320,3,ISIP_8,83,1,48,27,2851096844
10320,3,ISIP_8,84,1,48,31,2851937136
10320,3,ISIP_8,85,1,48,26,2852716748
10320,3,ISIP_8,86,1,48,23,2853503016
10320,3,ISIP_8,87,1,48,30,2854339844
10320,3,ISIP_8,88,1,48,26,2855175400
10320,3,ISIP_8,89,1,48,29,2856008964
10320,3,ISIP_8,90,1,48,25,2856861200
10320,3,ISIP_8,91,1,48,28,2857620460
10320,3,ISIP_8,92,1,48,26,2858432084
10320,3,ISIP_8,93,1,48,35,2859264724
10320,3,ISIP_8,94,1,48,27,2860087792
10320,3,ISIP_8,95,1,48,25,2860863612
10320,3,ISIP_8,96,1,48,24,2861687720
10320,3,ISIP_8,97,1,48,28,2862471668
10320,3,ISIP_8,98,1,48,27,2863309848
10320,3,ISIP_8,99,1,48,25,2864102768
10320,3,ISIP_8,100,1,48,26,2864920296
10320,3,ISIP_8,101,1,48,26,2865723716
10320,3,ISIP_8,102,1,48,29,2866528980
10320,3,ISIP_8,103,1,48,25,2867317264
10320,3,ISIP_8,104,1,48,27,2868121784
10320,3,ISIP_8,105,1,48,29,2868971628
10320,3,ISIP_8,106,1,48,25,2869719520
10320,3,ISIP_8,107,1,48,34,2870524484
10320,3,ISIP_8,108,1,48,32,2871334832
10320,3,ISIP_8,109,1,48,31,2872152392
10320,3,ISIP_8,110,1,48,29,2872941272
10320,3,ISIP_8,111,1,48,29,2873753720
10320,3,ISIP_8,112,1,48,27,2874601388
10320,3,ISIP_8,113,1,48,25,2875429544
10320,3,ISIP_8,114,1,48,26,2876255552
10320,3,ISIP_8,115,1,48,26,2877076748
10320,3,ISIP_8,116,1,48,27,2877914920
10320,3,ISIP_8,117,1,48,31,2878703056
10320,3,ISIP_8,118,1,48,29,2879472492
10320,3,ISIP_8,119,1,48,32,2880238412
10320,3,ISIP_8,120,1,48,32,2881052204
10320,3,ISIP_8,121,1,48,25,2881865420
10320,3,ISIP_8,122,1,48,25,2882636804
10320,3,ISIP_8,123,1,48,27,2883389564
10320,3,ISIP_8,124,1,48,27,2884156528
10320,3,ISIP_8,125,1,48,28,2884961420
10320,3,ISIP_8,126,1,48,27,2885742444
10320,3,ISIP_8,127,1,48,28,2886503956
10320,3,ISIP_8,128,1,48,29,2887281468
10320,3,ISIP_8,129,1,48,32,2888106628
10320,3,ISIP_8,130,1,48,27,2888908380
10320,3,ISIP_8,131,1,48,37,2889686936
10320,3,ISIP_8,132,1,48,33,2890512476
10320,3,ISIP_8,133,1,48,31,2891298440
10320,3,ISIP_8,134,1,48,34,2892101640
10320,3,ISIP_8,135,1,48,29,2892889844
10320,3,ISIP_8,136,1,48,26,2893678056
10320,3,ISIP_8,137,1,48,22,2894480852
10320,3,ISIP_8,138,1,48,23,2895276984
10320,3,ISIP_8,139,1,48,30,2896063476
10320,3,ISIP_8,140,1,48,25,2896872860
10320,3,ISIP_8,141,1,48,24,2897653812
10320,3,ISIP_8,142,1,48,36,2898401180
10320,3,ISIP_8,143,1,48,31,2899230084
10320,3,ISIP_8,144,1,48,34,2900027444
10320,3,ISIP_8,145,1,48,31,2900789220
10320,3,ISIP_8,146,1,48,27,2901538388
10320,3,ISIP_8,147,1,48,29,2902330592
10320,3,ISIP_8,148,1,48,25,2903126204
10320,3,ISIP_8,149,1,48,33,2903916280
10320,3,ISIP_8,150,1,48,29,2904679360
10320,3,ISIP_8,151,1,48,27,2905460020
10320,3,ISIP_8,152,1,48,32,2906261168
10320,3,ISIP_8,153,1,48,29,2907083188
10320,3,ISIP_8,154,1,48,29,2907857708
10320,3,ISIP_8,155,1,48,29,2908652652
10320,3,ISIP_8,156,1,48,24,2909471600
10320,3,ISIP_8,157,1,48,26,2910312344
10320,3,ISIP_8,158,1,48,25,2911121196
10320,3,ISIP_8,159,1,48,27,2911905520
10320,3,ISIP_8,160,1,48,18,2912720284
10320,3,ISIP_8,161,1,48,31,2913466756
10320,3,ISIP_8,162,1,48,29,2914200364
10320,3,ISIP_8,163,1,48,29,2914977204
10320,3,ISIP_8,164,1,48,27,2915787256
10320,3,ISIP_8,165,1,48,34,2916568956
10320,3,ISIP_8,166,1,48,29,2917316704
10320,3,ISIP_8,167,1,48,26,2918051360
10320,3,ISIP_8,168,1,48,22,2918818624
10320,3,ISIP_8,169,1,48,25,2919563976
10320,3,ISIP_8,170,1,48,27,2920301384
10320,3,ISIP_8,171,1,48,26,2921086380
10320,3,ISIP_8,172,1,48,32,2921849608
10320,3,ISIP_8,173,1,48,28,2922625848
10320,3,ISIP_8,174,1,48,20,2923376740
10320,3,ISIP_8,175,1,48,31,2924188580
10320,3,ISIP_8,176,1,48,19,2924958992
10320,3,ISIP_8,177,1,48,26,2925701428
10320,3,ISIP_8,178,1,48,29,2926454556
10320,3,ISIP_8,179,1,48,25,2927210228
10320,3,ISIP_8,0,9999,9999,9999,2807526496
10320,3,ISIP_8,1,9999,9999,9999,2808326252
10320,3,ISIP_8,2,9999,9999,9999,2809126972
10320,3,ISIP_8,3,9999,9999,9999,2809926732
10320,3,ISIP_8,4,9999,9999,9999,2810726464
10320,3,ISIP_8,5,9999,9999,9999,2811526200
10320,3,ISIP_8,6,9999,9999,9999,2812326980
10320,3,ISIP_8,7,9999,9999,9999,2813126712
10320,3,ISIP_8,8,9999,9999,9999,2813926508
10320,3,ISIP_8,9,9999,9999,9999,2814726240
10320,3,ISIP_8,10,9999,9999,9999,2815526960
10320,3,ISIP_8,11,9999,9999,9999,2816326720
10320,3,ISIP_8,12,9999,9999,9999,2817126452
10320,3,ISIP_8,13,9999,9999,9999,2817926260
10320,3,ISIP_8,14,9999,9999,9999,2818726964
10320,3,ISIP_8,15,9999,9999,9999,2819526772
10320,3,ISIP_8,16,9999,9999,9999,2820326508
10320,3,ISIP_8,17,9999,9999,9999,2821126248
10320,3,ISIP_8,18,9999,9999,9999,2821927020
10320,3,ISIP_8,19,9999,9999,9999,2822726704
10320,3,ISIP_8,20,9999,9999,9999,2823526512
10320,3,ISIP_8,21,9999,9999,9999,2824326248
10320,3,ISIP_8,22,9999,9999,9999,2825127024
10320,3,ISIP_8,23,9999,9999,9999,2825926764
10320,3,ISIP_8,24,9999,9999,9999,2826726492
10320,3,ISIP_8,25,9999,9999,9999,2827526228
10320,3,ISIP_8,26,9999,9999,9999,2828327008
10320,3,ISIP_8,27,9999,9999,9999,2829126764
10320,3,ISIP_8,28,9999,9999,9999,2829926504
10320,3,ISIP_8,29,9999,9999,9999,2830726236
10320,3,ISIP_8,30,9999,9999,9999,2831527016
10320,3,ISIP_8,31,9999,9999,9999,2832326748
10320,3,ISIP_8,32,9999,9999,9999,2833126468
10320,3,ISIP_8,33,9999,9999,9999,2833926200
10320,3,ISIP_8,34,9999,9999,9999,2834726972
10320,3,ISIP_8,35,9999,9999,9999,2835526728
10320,3,ISIP_8,36,9999,9999,9999,2836326456
10320,3,ISIP_8,37,9999,9999,9999,2837126260
10320,3,ISIP_8,38,9999,9999,9999,2837926960
10320,3,ISIP_8,39,9999,9999,9999,2838726752
10320,3,ISIP_8,40,9999,9999,9999,2839526480
10320,3,ISIP_8,41,9999,9999,9999,2840326208
10320,3,ISIP_8,42,9999,9999,9999,2841126984
10320,3,ISIP_8,43,9999,9999,9999,2841926740
10320,3,ISIP_8,44,9999,9999,9999,2842726468
10320,3,ISIP_8,45,9999,9999,9999,2843526200
10320,3,ISIP_8,46,9999,9999,9999,2844326976
10320,3,ISIP_8,47,9999,9999,9999,2845126704
10320,3,ISIP_8,48,9999,9999,9999,2845926508
10320,3,ISIP_8,49,9999,9999,9999,2846726236
10320,3,ISIP_8,50,9999,9999,9999,2847527012
10320,3,ISIP_8,51,9999,9999,9999,2848326768
10320,3,ISIP_8,52,9999,9999,9999,2849126496
10320,3,ISIP_8,53,9999,9999,9999,2849926228
10320,3,ISIP_8,54,9999,9999,9999,2850727000
10320,3,ISIP_8,55,9999,9999,9999,2851526728
10320,3,ISIP_8,56,9999,9999,9999,2852326460
10320,3,ISIP_8,57,9999,9999,9999,2853126260
10320,3,ISIP_8,58,9999,9999,9999,2853926964
10320,3,ISIP_8,59,9999,9999,9999,2854726720
10320,3,ISIP_8,60,9999,9999,9999,2855526448
10320,3,ISIP_8,61,9999,9999,9999,2856326256
10320,3,ISIP_8,62,9999,9999,9999,2857127028
10320,3,ISIP_8,63,9999,9999,9999,2857926760
10320,3,ISIP_8,64,9999,9999,9999,2858726488
10320,3,ISIP_8,65,9999,9999,9999,2859526216
10320,3,ISIP_8,66,9999,9999,9999,2860326992
10320,3,ISIP_8,67,9999,9999,9999,2861126744
10320,3,ISIP_8,68,9999,9999,9999,2861926476
10320,3,ISIP_8,69,9999,9999,9999,2862726204
10320,3,ISIP_8,70,9999,9999,9999,2863526980
10320,3,ISIP_8,71,9999,9999,9999,2864326708
10320,3,ISIP_8,72,9999,9999,9999,2865126512
10320,3,ISIP_8,73,9999,9999,9999,2865926244
10320,3,ISIP_8,74,9999,9999,9999,2866727016
10320,3,ISIP_8,75,9999,9999,9999,2867526772
10320,3,ISIP_8,76,9999,9999,9999,2868326500
10320,3,ISIP_8,77,9999,9999,9999,2869126232
10320,3,ISIP_8,78,9999,9999,9999,2869927008
10320,3,ISIP_8,79,9999,9999,9999,2870726736
10320,3,ISIP_8,80,9999,9999,9999,2871526464
10320,3,ISIP_8,81,9999,9999,9999,2872326196
10320,3,ISIP_8,82,9999,9999,9999,2873126968
10320,3,ISIP_8,83,9999,9999,9999,2873926724
10320,3,ISIP_8,84,9999,9999,9999,2874726452
10320,3,ISIP_8,85,9999,9999,9999,2875526256
10320,3,ISIP_8,86,9999,9999,9999,2876326972
10320,3,ISIP_8,87,9999,9999,9999,2877126776
10320,3,ISIP_8,88,9999,9999,9999,2877926504
10320,3,ISIP_8,89,9999,9999,9999,2878726232
10320,3,ISIP_8,90,9999,9999,9999,2879527008
10320,3,ISIP_8,91,9999,9999,9999,2880326760
10320,3,ISIP_8,92,9999,9999,9999,2881126492
10320,3,ISIP_8,93,9999,9999,9999,2881926220
10320,3,ISIP_8,94,9999,9999,9999,2882726996
10320,3,ISIP_8,95,9999,9999,9999,2883526712
10320,3,ISIP_8,96,9999,9999,9999,2884326516
10320,3,ISIP_8,97,9999,9999,9999,2885126244
10320,3,ISIP_8,98,9999,9999,9999,2885927020
10320,3,ISIP_8,99,9999,9999,9999,2886726776
10320,3,ISIP_8,100,9999,9999,9999,2887526504
10320,3,ISIP_8,101,9999,9999,9999,2888326232
10320,3,ISIP_8,102,9999,9999,9999,2889127008
10320,3,ISIP_8,103,9999,9999,9999,2889926740
10320,3,ISIP_8,104,9999,9999,9999,2890726468
10320,3,ISIP_8,105,9999,9999,9999,2891526200
10320,3,ISIP_8,106,9999,9999,9999,2892326976
10320,3,ISIP_8,107,9999,9999,9999,2893126728
10320,3,ISIP_8,108,9999,9999,9999,2893926456
10320,3,ISIP_8,109,9999,9999,9999,2894726260
10320,3,ISIP_8,110,9999,9999,9999,2895526960
10320,3,ISIP_8,111,9999,9999,9999,2896326768
10320,3,ISIP_8,112,9999,9999,9999,2897126492
10320,3,ISIP_8,113,9999,9999,9999,2897926224
10320,3,ISIP_8,114,9999,9999,9999,2898726996
10320,3,ISIP_8,115,9999,9999,9999,2899526752
10320,3,ISIP_8,116,9999,9999,9999,2900326480
10320,3,ISIP_8,117,9999,9999,9999,2901126212
10320,3,ISIP_8,118,9999,9999,9999,2901926984
10320,3,ISIP_8,119,9999,9999,9999,2902726716
10320,3,ISIP_8,120,9999,9999,9999,2903526516
10320,3,ISIP_8,121,9999,9999,9999,2904326248
10320,3,ISIP_8,122,9999,9999,9999,2905127024
10320,3,ISIP_8,123,9999,9999,9999,2905926704
10320,3,ISIP_8,124,9999,9999,9999,2906726508
10320,3,ISIP_8,125,9999,9999,9999,2907526236
10320,3,ISIP_8,126,9999,9999,9999,2908327012
10320,3,ISIP_8,127,9999,9999,9999,2909126740
10320,3,ISIP_8,128,9999,9999,9999,2909926472
10320,3,ISIP_8,129,9999,9999,9999,2910726200
10320,3,ISIP_8,130,9999,9999,9999,2911526976
10320,3,ISIP_8,131,9999,9999,9999,2912326728
10320,3,ISIP_8,132,9999,9999,9999,2913126456
10320,3,ISIP_8,133,9999,9999,9999,2913926264
10320,3,ISIP_8,134,9999,9999,9999,2914726964
10320,3,ISIP_8,135,9999,9999,9999,2915526768
10320,3,ISIP_8,136,9999,9999,9999,2916326496
10320,3,ISIP_8,137,9999,9999,9999,2917126224
10320,3,ISIP_8,138,9999,9999,9999,2917927000
10320,3,ISIP_8,139,9999,9999,9999,2918726756
10320,3,ISIP_8,140,9999,9999,9999,2919526484
10320,3,ISIP_8,141,9999,9999,9999,2920326208
10320,3,ISIP_8,142,9999,9999,9999,2921126984
10320,3,ISIP_8,143,9999,9999,9999,2921926712
10320,3,ISIP_8,144,9999,9999,9999,2922726500
10320,3,ISIP_8,145,9999,9999,9999,2923526228
10320,3,ISIP_8,146,9999,9999,9999,2924327004
10320,3,ISIP_8,147,9999,9999,9999,2925126760
10320,3,ISIP_8,148,9999,9999,9999,2925926492
10320,3,ISIP_8,149,9999,9999,9999,2926726220
10321,5,ISIP_5,0,5,42,127,2951541240
10321,5,ISIP_5,1,5,42,127,2952040660
10321,5,ISIP_5,2,5,42,127,2952540376
10321,5,ISIP_5,3,5,42,127,2953041288
10321,5,ISIP_5,4,1,48,35,2953533184
10321,5,ISIP_5,5,5,42,127,2953541072
10321,5,ISIP_5,6,1,48,37,2954039116
10321,5,ISIP_5,7,5,42,127,2954040548
10321,5,ISIP_5,8,5,42,127,2954541420
10321,5,ISIP_5,9,1,48,40,2954577400
10321,5,ISIP_5,10,5,42,127,2955041188
10321,5,ISIP_5,11,1,48,38,2955082552
10321,5,ISIP_5,12,5,42,127,2955540736
10321,5,ISIP_5,13,1,48,35,2955602072
10321,5,ISIP_5,14,5,42,127,2956040504
10321,5,ISIP_5,15,1,48,31,2956077580
10321,5,ISIP_5,16,5,42,127,2956541472
10321,5,ISIP_5,17,1,48,31,2956568524
10321,5,ISIP_5,18,5,42,127,2957040940
10321,5,ISIP_5,19,1,48,30,2957072032
10321,5,ISIP_5,20,5,42,127,2957541228
10321,5,ISIP_5,21,1,48,35,2957579804
10321,5,ISIP_5,22,5,42,127,2958040404
10321,5,ISIP_5,23,1,48,32,2958084736
10321,5,ISIP_5,24,5,42,127,2958541368
10321,5,ISIP_5,25,1,48,31,2958574632
10321,5,ISIP_5,26,5,42,127,2959040764
10321,5,ISIP_5,27,1,48,28,2959065648
10321,5,ISIP_5,28,1,48,32,2959522388
10321,5,ISIP_5,29,5,42,127,2959540528
10321,5,ISIP_5,30,1,48,36,2960040596
10321,5,ISIP_5,31,5,42,127,2960042244
10321,5,ISIP_5,32,5,42,127,2960541196
10321,5,ISIP_5,33,1,48,33,2960585080
10321,5,ISIP_5,34,5,42,127,2961040668
10321,5,ISIP_5,35,1,48,35,2961049396
10321,5,ISIP_5,36,5,42,127,2961540588
10321,5,ISIP_5,37,1,48,33,2961556344
10321,5,ISIP_5,38,5,42,127,2962041328
10321,5,ISIP_5,39,1,48,29,2962076236
10321,5,ISIP_5,40,5,42,127,2962540800
10321,5,ISIP_5,41,1,48,30,2962574956
10321,5,ISIP_5,42,5,42,127,2963040572
10321,5,ISIP_5,43,1,48,29,2963068672
10321,5,ISIP_5,44,5,42,127,2963541464
10321,5,ISIP_5,45,1,48,29,2963592752
10321,5,ISIP_5,46,5,42,127,2964041304
10321,5,ISIP_5,47,1,48,34,2964086684
10321,5,ISIP_5,48,5,42,127,2964540852
10321,5,ISIP_5,49,1,48,29,2964574712
10321,5,ISIP_5,50,5,42,127,2965040448
10321,5,ISIP_5,51,1,48,31,2965100812
10321,5,ISIP_5,52,5,42,127,2965541336
10321,5,ISIP_5,53,1,48,29,2965590484
10321,5,ISIP_5,54,5,42,127,2966041108
10321,5,ISIP_5,55,1,48,26,2966088908
10321,5,ISIP_5,56,5,42,127,2966540580
10321,5,ISIP_5,57,1,48,26,2966561720
10321,5,ISIP_5,58,5,42,127,2967041324
10321,5,ISIP_5,59,1,48,34,2967085284
10321,5,ISIP_5,60,5,42,127,2967541316
10321,5,ISIP_5,61,1,48,36,2967577268
10321,5,ISIP_5,62,5,42,127,2968041008
10321,5,ISIP_5,63,1,48,31,2968080556
10321,5,ISIP_5,64,5,42,127,2968540556
10321,5,ISIP_5,65,1,48,30,2968574860
10321,5,ISIP_5,66,5,42,127,2969041368
10321,5,ISIP_5,67,1,48,30,2969062444
10321,5,ISIP_5,68,5,42,127,2969541140
10321,5,ISIP_5,69,1,48,35,2969590480
10321,5,ISIP_5,70,5,42,127,2970040612
10321,5,ISIP_5,71,1,48,34,2970065196
10321,5,ISIP_5,72,5,42,127,2970541500
10321,5,ISIP_5,73,1,48,32,2970545220
10321,5,ISIP_5,74,1,48,29,2971040292
10321,5,ISIP_5,75,5,42,127,2971041936
10321,5,ISIP_5,76,1,48,30,2971563528
10321,5,ISIP_5,77,1,48,36,2972053648
10321,5,ISIP_5,78,1,48,26,2972570092
10321,5,ISIP_5,79,1,48,29,2973071124
10321,5,ISIP_5,80,1,48,34,2973577024
10321,5,ISIP_5,81,1,48,33,2974074548
10321,5,ISIP_5,82,1,48,33,2974582916
10321,5,ISIP_5,83,1,48,32,2975066228
10321,5,ISIP_5,84,1,48,28,2975565316
10321,5,ISIP_5,85,1,48,32,2976089320
10321,5,ISIP_5,86,1,48,32,2976594912
10321,5,ISIP_5,87,1,48,38,2977095804
10321,5,ISIP_5,88,1,48,30,2977619060
10321,5,ISIP_5,89,1,48,32,2978113432
10321,5,ISIP_5,90,1,48,30,2978620904
10321,5,ISIP_5,91,1,48,32,2979152828
10321,5,ISIP_5,92,1,48,29,2979662768
10321,5,ISIP_5,93,1,48,24,2980171656
10321,5,ISIP_5,94,1,48,38,2980673292
10321,5,ISIP_5,95,1,48,33,2981186972
10321,5,ISIP_5,96,1,48,30,2981719056
10321,5,ISIP_5,97,1,48,29,2982228988
10321,5,ISIP_5,98,1,48,29,2982718736
10321,5,ISIP_5,99,1,48,33,2983227404
10321,5,ISIP_5,100,1,48,34,2983754992
10321,5,ISIP_5,101,1,48,31,2984261864
10321,5,ISIP_5,102,1,48,34,2984790500
10321,5,ISIP_5,103,1,48,30,2985301336
10321,5,ISIP_5,104,1,48,30,2985846052
10321,5,ISIP_5,105,1,48,27,2986330784
10321,5,ISIP_5,106,1,48,33,2986827260
10321,5,ISIP_5,107,1,48,35,2987358964
10321,5,ISIP_5,108,1,48,35,2987856484
10321,5,ISIP_5,109,1,48,32,2988371360
10321,5,ISIP_5,110,1,48,32,2988869780
10321,5,ISIP_5,111,1,48,30,2989396620
10321,5,ISIP_5,112,1,48,30,2989926152
10321,5,ISIP_5,113,1,48,34,2990417840
10321,5,ISIP_5,114,1,48,32,2990916640
10321,5,ISIP_5,115,1,48,35,2991419992
10321,5,ISIP_5,116,1,48,33,2991943920
10321,5,ISIP_5,117,1,48,32,2992449220
10321,5,ISIP_5,118,1,48,28,2992940584
10321,5,ISIP_5,119,1,48,30,2993489968
10321,5,ISIP_5,120,1,48,31,2993956944
10321,5,ISIP_5,121,1,48,28,2994467032
10321,5,ISIP_5,122,1,48,27,2994981832
10321,5,ISIP_5,123,1,48,29,2995440088
10321,5,ISIP_5,124,1,48,28,2995960644
10321,5,ISIP_5,125,1,48,34,2996464520
10321,5,ISIP_5,126,1,48,28,2996992784
10321,5,ISIP_5,127,1,48,32,2997494568
10321,5,ISIP_5,128,1,48,29,2998002564
10321,5,ISIP_5,129,1,48,30,2998520504
10321,5,ISIP_5,130,1,48,30,2999048932
10321,5,ISIP_5,131,1,48,26,2999558796
10321,5,ISIP_5,132,1,48,30,3000072472
10321,5,ISIP_5,133,1,48,31,3000596024
10321,5,ISIP_5,134,1,48,22,3001082696
10321,5,ISIP_5,135,1,48,37,3001578200
10321,5,ISIP_5,136,1,48,32,3002107364
10321,5,ISIP_5,137,1,48,27,3002605856
10321,5,ISIP_5,138,1,48,28,3003163668
10321,5,ISIP_5,139,1,48,27,3003707960
10321,5,ISIP_5,140,1,48,28,3004166784
10321,5,ISIP_5,141,1,48,35,3004692580
10321,5,ISIP_5,142,1,48,29,3005169308
10321,5,ISIP_5,143,1,48,31,3005691880
10321,5,ISIP_5,144,1,48,37,3006189332
10321,5,ISIP_5,145,1,48,32,3006666580
10321,5,ISIP_5,146,1,48,31,3007197688
10321,5,ISIP_5,147,1,48,29,3007748912
10321,5,ISIP_5,148,1,48,31,3008234168
10321,5,ISIP_5,149,1,48,31,3008759440
10321,5,ISIP_5,150,1,48,30,3009258380
10321,5,ISIP_5,151,1,48,35,3009796516
10321,5,ISIP_5,152,1,48,32,3010300544
10321,5,ISIP_5,153,1,48,30,3010806368
10321,5,ISIP_5,154,1,48,26,3011303516
10321,5,ISIP_5,155,1,48,30,3011808888
10321,5,ISIP_5,156,1,48,30,3012307308
10321,5,ISIP_5,157,1,48,22,3012826596
10321,5,ISIP_5,158,1,48,31,3013272808
10321,5,ISIP_5,159,1,48,26,3013833756
10321,5,ISIP_5,160,1,48,37,3014322824
10321,5,ISIP_5,161,1,48,26,3014852208
10321,5,ISIP_5,162,1,48,25,3015370744
10321,5,ISIP_5,163,1,48,29,3015883380
10321,5,ISIP_5,164,1,48,28,3016406260
10321,5,ISIP_5,165,1,48,31,3016930408
10321,5,ISIP_5,166,1,48,30,3017471684
10321,5,ISIP_5,167,1,48,31,3018020220
10321,5,ISIP_5,168,1,48,27,3018504424
10321,5,ISIP_5,169,1,48,27,3019039812
10321,5,ISIP_5,170,1,48,31,3019574752
10321,5,ISIP_5,171,1,48,31,3020079432
10321,5,ISIP_5,172,1,48,29,3020595452
10321,5,ISIP_5,173,1,48,34,3021100424
10321,5,ISIP_5,174,1,48,34,3021625120
10321,5,ISIP_5,175,1,48,28,3022167376
10321,5,ISIP_5,176,1,48,34,3022666388
10321,5,ISIP_5,177,1,48,29,3023191588
10321,5,ISIP_5,178,1,48,35,3023703248
10321,5,ISIP_5,179,1,48,28,3024226424
10321,5,ISIP_5,180,1,48,32,3024781836
10321,5,ISIP_5,181,1,48,31,3025308308
10321,5,ISIP_5,182,1,48,33,3025845768
10321,5,ISIP_5,183,1,48,33,3026391164
10321,5,ISIP_5,184,1,48,33,3026927500
10321,5,ISIP_5,185,1,48,33,3027445444
10321,5,ISIP_5,186,1,48,33,3027980292
10321,5,ISIP_5,187,1,48,34,3028543072
10321,5,ISIP_5,188,1,48,29,3029092656
10321,5,ISIP_5,189,1,48,34,3029613508
10321,5,ISIP_5,190,1,48,32,3030142448
10321,5,ISIP_5,191,1,48,33,3030660012
10321,5,ISIP_5,192,1,48,32,3031188508
10321,5,ISIP_5,0,9999,9999,9999,2951538808
10321,5,ISIP_5,1,9999,9999,9999,2952038448
10321,5,ISIP_5,2,9999,9999,9999,2952538164
10321,5,ISIP_5,3,9999,9999,9999,2953038928
10321,5,ISIP_5,4,9999,9999,9999,2953538640
10321,5,ISIP_5,5,9999,9999,9999,2954038340
10321,5,ISIP_5,6,9999,9999,9999,2954539060
10321,5,ISIP_5,7,9999,9999,9999,2955038828
10321,5,ISIP_5,8,9999,9999,9999,2955538524
10321,5,ISIP_5,9,9999,9999,9999,2956038216
10321,5,ISIP_5,10,9999,9999,9999,2956538960
10321,5,ISIP_5,11,9999,9999,9999,2957038652
10321,5,ISIP_5,12,9999,9999,9999,2957538424
10321,5,ISIP_5,13,9999,9999,9999,2958038116
10321,5,ISIP_5,14,9999,9999,9999,2958538856
10321,5,ISIP_5,15,9999,9999,9999,2959038552
10321,5,ISIP_5,16,9999,9999,9999,2959538240
10321,5,ISIP_5,17,9999,9999,9999,2960038988
10321,5,ISIP_5,18,9999,9999,9999,2960538684
10321,5,ISIP_5,19,9999,9999,9999,2961038456
10321,5,ISIP_5,20,9999,9999,9999,2961538152
10321,5,ISIP_5,21,9999,9999,9999,2962038892
10321,5,ISIP_5,22,9999,9999,9999,2962538588
10321,5,ISIP_5,23,9999,9999,9999,2963038284
10321,5,ISIP_5,24,9999,9999,9999,2963539028
10321,5,ISIP_5,25,9999,9999,9999,2964038720
10321,5,ISIP_5,26,9999,9999,9999,2964538416
10321,5,ISIP_5,27,9999,9999,9999,2965038160
10321,5,ISIP_5,28,9999,9999,9999,2965538904
10321,5,ISIP_5,29,9999,9999,9999,2966038596
10321,5,ISIP_5,30,9999,9999,9999,2966538292
10321,5,ISIP_5,31,9999,9999,9999,2967039036
10321,5,ISIP_5,32,9999,9999,9999,2967538804
10321,5,ISIP_5,33,9999,9999,9999,2968038500
10321,5,ISIP_5,34,9999,9999,9999,2968538192
10321,5,ISIP_5,35,9999,9999,9999,2969038936
10321,5,ISIP_5,36,9999,9999,9999,2969538628
10321,5,ISIP_5,37,9999,9999,9999,2970038324
10321,5,ISIP_5,38,9999,9999,9999,2970539064
10321,5,ISIP_5,39,9999,9999,9999,2971038832
10321,5,ISIP_5,40,9999,9999,9999,2971538528
10321,5,ISIP_5,41,9999,9999,9999,2972038220
10321,5,ISIP_5,42,9999,9999,9999,2972538960
10321,5,ISIP_5,43,9999,9999,9999,2973038648
10321,5,ISIP_5,44,9999,9999,9999,2973538416
10321,5,ISIP_5,45,9999,9999,9999,2974038108
10321,5,ISIP_5,46,9999,9999,9999,2974538844
10321,5,ISIP_5,47,9999,9999,9999,2975038536
10321,5,ISIP_5,48,9999,9999,9999,2975538276
10321,5,ISIP_5,49,9999,9999,9999,2976039012
10321,5,ISIP_5,50,9999,9999,9999,2976538704
10321,5,ISIP_5,51,9999,9999,9999,2977038392
10321,5,ISIP_5,52,9999,9999,9999,2977538160
10321,5,ISIP_5,53,9999,9999,9999,2978038896
10321,5,ISIP_5,54,9999,9999,9999,2978538584
10321,5,ISIP_5,55,9999,9999,9999,2979038276
10321,5,ISIP_5,56,9999,9999,9999,2979539016
10321,5,ISIP_5,57,9999,9999,9999,2980038704
10321,5,ISIP_5,58,9999,9999,9999,2980538468
10321,5,ISIP_5,59,9999,9999,9999,2981038160
10321,5,ISIP_5,60,9999,9999,9999,2981538900
10321,5,ISIP_5,61,9999,9999,9999,2982038592
10321,5,ISIP_5,62,9999,9999,9999,2982538356
10321,5,ISIP_5,63,9999,9999,9999,2983039092
10321,5,ISIP_5,64,9999,9999,9999,2983538784
10321,5,ISIP_5,65,9999,9999,9999,2984038476
10321,5,ISIP_5,66,9999,9999,9999,2984538168
10321,5,ISIP_5,67,9999,9999,9999,2985038904
10321,5,ISIP_5,68,9999,9999,9999,2985538668
10321,5,ISIP_5,69,9999,9999,9999,2986038360
10321,5,ISIP_5,70,9999,9999,9999,2986539072
10321,5,ISIP_5,71,9999,9999,9999,2987038840
10321,5,ISIP_5,72,9999,9999,9999,2987538532
10321,5,ISIP_5,73,9999,9999,9999,2988038220
10321,5,ISIP_5,74,9999,9999,9999,2988538960
10321,5,ISIP_5,75,9999,9999,9999,2989038648
10321,5,ISIP_5,76,9999,9999,9999,2989538412
10321,5,ISIP_5,77,9999,9999,9999,2990038104
10321,5,ISIP_5,78,9999,9999,9999,2990538840
10321,5,ISIP_5,79,9999,9999,9999,2991038536
10321,5,ISIP_5,80,9999,9999,9999,2991538228
10321,5,ISIP_5,81,9999,9999,9999,2992038980
10321,5,ISIP_5,82,9999,9999,9999,2992538744
10321,5,ISIP_5,83,9999,9999,9999,2993038420
10321,5,ISIP_5,84,9999,9999,9999,2993538128
10321,5,ISIP_5,85,9999,9999,9999,2994038864
10321,5,ISIP_5,86,9999,9999,9999,2994538556
10321,5,ISIP_5,87,9999,9999,9999,2995038324
10321,5,ISIP_5,88,9999,9999,9999,2995539044
10321,5,ISIP_5,89,9999,9999,9999,2996038748
10321,5,ISIP_5,90,9999,9999,9999,2996538440
10321,5,ISIP_5,91,9999,9999,9999,2997038180
10321,5,ISIP_5,92,9999,9999,9999,2997538916
10321,5,ISIP_5,93,9999,9999,9999,2998038608
10321,5,ISIP_5,94,9999,9999,9999,2998538300
10321,5,ISIP_5,95,9999,9999,9999,2999039044
10321,5,ISIP_5,96,9999,9999,9999,2999538808
10321,5,ISIP_5,97,9999,9999,9999,3000038500
10321,5,ISIP_5,98,9999,9999,9999,3000538188
10321,5,ISIP_5,99,9999,9999,9999,3001038928
10321,5,ISIP_5,100,9999,9999,9999,3001538620
10321,5,ISIP_5,101,9999,9999,9999,3002038384
10321,5,ISIP_5,102,9999,9999,9999,3002539120
10321,5,ISIP_5,103,9999,9999,9999,3003038812
10321,5,ISIP_5,104,9999,9999,9999,3003538500
10321,5,ISIP_5,105,9999,9999,9999,3004038192
10321,5,ISIP_5,106,9999,9999,9999,3004538928
10321,5,ISIP_5,107,9999,9999,9999,3005038692
10321,5,ISIP_5,108,9999,9999,9999,3005538384
10321,5,ISIP_5,109,9999,9999,9999,3006038076
10321,5,ISIP_5,110,9999,9999,9999,3006538812
10321,5,ISIP_5,111,9999,9999,9999,3007038576
10321,5,ISIP_5,112,9999,9999,9999,3007538268
10321,5,ISIP_5,113,9999,9999,9999,3008038980
10321,5,ISIP_5,114,9999,9999,9999,3008538744
10321,5,ISIP_5,115,9999,9999,9999,3009038436
10321,5,ISIP_5,116,9999,9999,9999,3009538124
10321,5,ISIP_5,117,9999,9999,9999,3010038864
10321,5,ISIP_5,118,9999,9999,9999,3010538552
10321,5,ISIP_5,119,9999,9999,9999,3011038316
10321,5,ISIP_5,120,9999,9999,9999,3011539056
10321,5,ISIP_5,121,9999,9999,9999,3012038744
10321,5,ISIP_5,122,9999,9999,9999,3012538436
10321,5,ISIP_5,123,9999,9999,9999,3013038200
10321,5,ISIP_5,124,9999,9999,9999,3013538936
10321,5,ISIP_5,125,9999,9999,9999,3014038628
10321,5,ISIP_5,126,9999,9999,9999,3014538316
10321,5,ISIP_5,127,9999,9999,9999,3015039056
10321,5,ISIP_5,128,9999,9999,9999,3015538748
10321,5,ISIP_5,129,9999,9999,9999,3016038512
10321,5,ISIP_5,130,9999,9999,9999,3016538204
10321,5,ISIP_5,131,9999,9999,9999,3017038940
10321,5,ISIP_5,132,9999,9999,9999,3017538644
10321,5,ISIP_5,133,9999,9999,9999,3018038336
10321,5,ISIP_5,134,9999,9999,9999,3018539124
10321,5,ISIP_5,135,9999,9999,9999,3019038820
10321,5,ISIP_5,136,9999,9999,9999,3019538512
10321,5,ISIP_5,137,9999,9999,9999,3020038200
10321,5,ISIP_5,138,9999,9999,9999,3020538936
10321,5,ISIP_5,139,9999,9999,9999,3021038700
10321,5,ISIP_5,140,9999,9999,9999,3021538392
10321,5,ISIP_5,141,9999,9999,9999,3022038084
10321,5,ISIP_5,142,9999,9999,9999,3022538820
10321,5,ISIP_5,143,9999,9999,9999,3023038584
10321,5,ISIP_5,144,9999,9999,9999,3023538276
10321,5,ISIP_5,145,9999,9999,9999,3024039012
10321,5,ISIP_5,146,9999,9999,9999,3024538704
10321,5,ISIP_5,147,9999,9999,9999,3025038396
10321,5,ISIP_5,148,9999,9999,9999,3025538160
10321,5,ISIP_5,149,9999,9999,9999,3026038900
10321,5,ISIP_5,150,9999,9999,9999,3026538588
10321,5,ISIP_5,151,9999,9999,9999,3027038280
10321,5,ISIP_5,152,9999,9999,9999,3027539036
10321,5,ISIP_5,153,9999,9999,9999,3028038724
10321,5,ISIP_5,154,9999,9999,9999,3028538420
10321,5,ISIP_5,155,9999,9999,9999,3029038160
10321,5,ISIP_5,156,9999,9999,9999,3029538900
10321,5,ISIP_5,157,9999,9999,9999,3030038592
10321,5,ISIP_5,158,9999,9999,9999,3030538356
10321,5,ISIP_5,159,9999,9999,9999,3031039092
10322,11,Pattern_Practice,0,5,42,127,3140697392
10322,11,Pattern_Practice,1,5,42,127,3141198156
10322,11,Pattern_Practice,2,5,42,127,3141697872
10322,11,Pattern_Practice,3,5,42,127,3142197588
10322,11,Pattern_Practice,4,5,42,127,3142698548
10322,11,Pattern_Practice,5,1,48,35,3142741536
10322,11,Pattern_Practice,6,1,48,37,3143166836
10322,11,Pattern_Practice,7,5,42,127,3143198436
10322,11,Pattern_Practice,8,1,48,46,3143685532
10322,11,Pattern_Practice,9,5,42,127,3143697684
10322,11,Pattern_Practice,10,1,48,45,3143977412
10322,11,Pattern_Practice,11,5,42,127,3144197440
10322,11,Pattern_Practice,12,1,48,37,3144448388
10322,11,Pattern_Practice,13,5,42,127,3144698404
10322,11,Pattern_Practice,14,1,48,33,3144938132
10322,11,Pattern_Practice,15,5,42,127,3145197876
10322,11,Pattern_Practice,16,1,48,40,3145369616
10322,11,Pattern_Practice,17,1,48,47,3145675164
10322,11,Pattern_Practice,18,5,42,127,3145697788
10322,11,Pattern_Practice,19,5,42,127,3146198536
10322,11,Pattern_Practice,20,1,48,38,3146221324
10322,11,Pattern_Practice,21,5,42,127,3146698380
10322,11,Pattern_Practice,22,1,38,48,3146763732
10322,11,Pattern_Practice,23,1,38,25,3146845784
10322,11,Pattern_Practice,24,5,42,127,3147197828
10322,11,Pattern_Practice,25,1,38,45,3147248968
10322,11,Pattern_Practice,26,5,42,127,3147697448
10322,11,Pattern_Practice,27,1,38,54,3147745296
10322,11,Pattern_Practice,28,1,38,56,3148044112
10322,11,Pattern_Practice,29,5,42,127,3148198464
10322,11,Pattern_Practice,30,1,38,52,3148536852
10322,11,Pattern_Practice,31,5,42,127,3148697936
10322,11,Pattern_Practice,32,1,38,59,3148996680
10322,11,Pattern_Practice,33,5,42,127,3149197632
10322,11,Pattern_Practice,34,1,38,60,3149456508
10322,11,Pattern_Practice,35,5,42,127,3149698372
10322,11,Pattern_Practice,36,1,38,65,3149746964
10322,11,Pattern_Practice,37,5,42,127,3150198440
10322,11,Pattern_Practice,38,1,38,58,3150252048
10322,11,Pattern_Practice,39,1,38,37,3150359808
10322,11,Pattern_Practice,40,5,42,127,3150697812
10322,11,Pattern_Practice,41,1,48,43,3150775804
10322,11,Pattern_Practice,42,5,42,127,3151197436
10322,11,Pattern_Practice,43,1,48,45,3151261508
10322,11,Pattern_Practice,44,5,42,127,3151698400
10322,11,Pattern_Practice,45,1,48,54,3151753280
10322,11,Pattern_Practice,46,1,48,57,3152017692
10322,11,Pattern_Practice,47,5,42,127,3152197924
10322,11,Pattern_Practice,48,1,38,59,3152504520
10322,11,Pattern_Practice,49,5,42,127,3152697616
10322,11,Pattern_Practice,50,1,38,51,3152962324
10322,11,Pattern_Practice,51,5,42,127,3153197460
10322,11,Pattern_Practice,52,1,38,57,3153403428
10322,11,Pattern_Practice,53,1,38,65,3153698324
10322,11,Pattern_Practice,54,5,42,127,3153701012
10322,11,Pattern_Practice,55,1,38,71,3153980316
10322,11,Pattern_Practice,56,1,38,18,3154088980
10322,11,Pattern_Practice,57,5,42,127,3154197976
10322,11,Pattern_Practice,58,5,42,127,3154697468
10322,11,Pattern_Practice,59,1,48,50,3154795680
10322,11,Pattern_Practice,60,5,42,127,3155198284
10322,11,Pattern_Practice,61,1,48,48,3155278024
10322,11,Pattern_Practice,62,5,42,127,3155698280
10322,11,Pattern_Practice,63,1,48,51,3155743656
10322,11,Pattern_Practice,64,1,48,58,3156023728
10322,11,Pattern_Practice,65,5,42,127,3156197952
10322,11,Pattern_Practice,66,1,48,51,3156489444
10322,11,Pattern_Practice,67,5,42,127,3156697424
10322,11,Pattern_Practice,68,1,48,59,3156943208
10322,11,Pattern_Practice,69,5,42,127,3157198088
10322,11,Pattern_Practice,70,1,48,54,3157376480
10322,11,Pattern_Practice,71,5,42,127,3157697856
10322,11,Pattern_Practice,72,1,48,55,3157708156
10322,11,Pattern_Practice,73,1,48,62,3157981320
10322,11,Pattern_Practice,74,5,42,127,3158197680
10322,11,Pattern_Practice,75,5,42,127,3158698364
10322,11,Pattern_Practice,76,1,38,43,3158772616
10322,11,Pattern_Practice,77,5,42,127,3159198136
10322,11,Pattern_Practice,78,1,38,47,3159218236
10322,11,Pattern_Practice,79,1,38,60,3159472696
10322,11,Pattern_Practice,80,5,42,127,3159697660
10322,11,Pattern_Practice,81,1,38,47,3159934764
10322,11,Pattern_Practice,82,1,38,53,3160140840
10322,11,Pattern_Practice,83,5,42,127,3160197496
10322,11,Pattern_Practice,84,1,38,54,3160427712
10322,11,Pattern_Practice,85,1,38,57,3160698296
10322,11,Pattern_Practice,86,5,42,127,3160700904
10322,11,Pattern_Practice,87,1,38,52,3161145140
10322,11,Pattern_Practice,88,5,42,127,3161198060
10322,11,Pattern_Practice,89,1,38,57,3161431192
10322,11,Pattern_Practice,90,1,38,30,3161502152
10322,11,Pattern_Practice,91,5,42,127,3161697568
10322,11,Pattern_Practice,92,1,38,51,3161949416
10322,11,Pattern_Practice,93,5,42,127,3162198384
10322,11,Pattern_Practice,94,1,38,56,3162240248
10322,11,Pattern_Practice,95,1,38,55,3162489848
10322,11,Pattern_Practice,96,5,42,127,3162698056
10322,11,Pattern_Practice,97,1,38,52,3162796616
10322,11,Pattern_Practice,98,5,42,127,3163197900
10322,11,Pattern_Practice,99,1,38,58,3163261308
10322,11,Pattern_Practice,100,1,38,57,3163504472
10322,11,Pattern_Practice,101,1,38,40,3163572820
10322,11,Pattern_Practice,102,5,42,127,3163697552
10322,11,Pattern_Practice,103,1,38,58,3164006544
10322,11,Pattern_Practice,104,5,42,127,3164198120
10322,11,Pattern_Practice,105,1,38,53,3164277784
10322,11,Pattern_Practice,106,1,38,62,3164543912
10322,11,Pattern_Practice,107,5,42,127,3164698092
10322,11,Pattern_Practice,108,1,38,68,3164788076
10322,11,Pattern_Practice,109,5,42,127,3165197640
10322,11,Pattern_Practice,110,1,38,56,3165242292
10322,11,Pattern_Practice,111,1,38,57,3165547096
10322,11,Pattern_Practice,112,5,42,127,3165698508
10322,11,Pattern_Practice,113,5,42,127,3166198076
10322,11,Pattern_Practice,114,5,42,127,3166697864
10322,11,Pattern_Practice,115,1,48,72,3166731652
10322,11,Pattern_Practice,116,1,48,54,3167194156
10322,11,Pattern_Practice,117,5,42,127,3167197480
10322,11,Pattern_Practice,118,1,48,59,3167452968
10322,11,Pattern_Practice,119,5,42,127,3167698280
10322,11,Pattern_Practice,120,1,48,55,3167905920
10322,11,Pattern_Practice,121,1,48,65,3168162476
10322,11,Pattern_Practice,122,5,42,127,3168197968
10322,11,Pattern_Practice,123,1,48,49,3168426536
10322,11,Pattern_Practice,124,1,48,57,3168679800
10322,11,Pattern_Practice,125,5,42,127,3168697788
10322,11,Pattern_Practice,126,1,48,25,3168773224
10322,11,Pattern_Practice,127,1,48,56,3169179400
10322,11,Pattern_Practice,128,5,42,127,3169197388
10322,11,Pattern_Practice,129,1,48,48,3169440844
10322,11,Pattern_Practice,130,1,48,25,3169526088
10322,11,Pattern_Practice,131,5,42,127,3169698016
10322,11,Pattern_Practice,132,1,48,66,3169985388
10322,11,Pattern_Practice,133,5,42,127,3170197860
10322,11,Pattern_Practice,134,1,48,53,3170219604
10322,11,Pattern_Practice,135,1,48,59,3170481400
10322,11,Pattern_Practice,136,5,42,127,3170697460
10322,11,Pattern_Practice,137,1,48,52,3170732072
10322,11,Pattern_Practice,138,1,48,32,3170824276
10322,11,Pattern_Practice,139,5,42,127,3171198180
10322,11,Pattern_Practice,140,1,48,59,3171203916
10322,11,Pattern_Practice,141,1,48,46,3171475660
10322,11,Pattern_Practice,142,5,42,127,3171698004
10322,11,Pattern_Practice,143,1,48,64,3171970864
10322,11,Pattern_Practice,144,5,42,127,3172197844
10322,11,Pattern_Practice,145,1,48,48,3172224152
10322,11,Pattern_Practice,146,1,48,59,3172445852
10322,11,Pattern_Practice,147,5,42,127,3172697520
10322,11,Pattern_Practice,148,5,42,127,3173198132
10322,11,Pattern_Practice,149,1,48,54,3173219356
10322,11,Pattern_Practice,150,1,38,61,3173417168
10322,11,Pattern_Practice,151,1,38,41,3173482672
10322,11,Pattern_Practice,152,5,42,127,3173697984
10322,11,Pattern_Practice,153,1,48,72,3173939880
10322,11,Pattern_Practice,154,1,38,70,3174188884
10322,11,Pattern_Practice,155,5,42,127,3174197596
10322,11,Pattern_Practice,156,1,38,42,3174275644
10322,11,Pattern_Practice,157,1,48,70,3174490544
10322,11,Pattern_Practice,158,5,42,127,3174698228
10322,11,Pattern_Practice,159,1,38,55,3174722064
10322,11,Pattern_Practice,160,5,42,127,3175198196
10322,11,Pattern_Practice,161,1,48,75,3175210392
10322,11,Pattern_Practice,162,1,38,54,3175498216
10322,11,Pattern_Practice,163,5,42,127,3175697720
10322,11,Pattern_Practice,164,1,48,72,3176038676
10322,11,Pattern_Practice,165,5,42,127,3176197416
10322,11,Pattern_Practice,166,1,38,40,3176317168
10322,11,Pattern_Practice,167,1,48,78,3176573872
10322,11,Pattern_Practice,168,5,42,127,3176698284
10322,11,Pattern_Practice,169,1,38,62,3176806288
10322,11,Pattern_Practice,170,1,38,45,3176869028
10322,11,Pattern_Practice,171,5,42,127,3177197960
10322,11,Pattern_Practice,172,1,48,74,3177276944
10322,11,Pattern_Practice,173,1,38,55,3177563500
10322,11,Pattern_Practice,174,5,42,127,3177697780
10322,11,Pattern_Practice,175,1,48,59,3178073144
10322,11,Pattern_Practice,176,5,42,127,3178198296
10322,11,Pattern_Practice,177,1,38,51,3178323808
10322,11,Pattern_Practice,178,1,48,68,3178578052
10322,11,Pattern_Practice,179,5,42,127,3178697972
10322,11,Pattern_Practice,180,1,38,57,3178782616
10322,11,Pattern_Practice,181,1,38,28,3178866244
10322,11,Pattern_Practice,182,5,42,127,3179197944
10322,11,Pattern_Practice,183,1,48,81,3179297624
10322,11,Pattern_Practice,184,1,38,55,3179551344
10322,11,Pattern_Practice,185,1,38,35,3179645968
10322,11,Pattern_Practice,186,5,42,127,3179697464
10322,11,Pattern_Practice,187,1,48,73,3180048024
10322,11,Pattern_Practice,188,5,42,127,3180198112
10322,11,Pattern_Practice,189,1,38,51,3180302804
10322,11,Pattern_Practice,190,1,48,73,3180601800
10322,11,Pattern_Practice,0,9999,9999,9999,3140695104
10322,11,Pattern_Practice,1,9999,9999,9999,3141195868
10322,11,Pattern_Practice,2,9999,9999,9999,3141695584
10322,11,Pattern_Practice,3,9999,9999,9999,3142195300
10322,11,Pattern_Practice,4,9999,9999,9999,3142696036
10322,11,Pattern_Practice,5,9999,9999,9999,3143195700
10322,11,Pattern_Practice,6,9999,9999,9999,3143695472
10322,11,Pattern_Practice,7,9999,9999,9999,3144195148
10322,11,Pattern_Practice,8,9999,9999,9999,3144695892
10322,11,Pattern_Practice,9,9999,9999,9999,3145195588
10322,11,Pattern_Practice,10,9999,9999,9999,3145695348
10322,11,Pattern_Practice,11,9999,9999,9999,3146196024
10322,11,Pattern_Practice,12,9999,9999,9999,3146695792
10322,11,Pattern_Practice,13,9999,9999,9999,3147195464
10322,11,Pattern_Practice,14,9999,9999,9999,3147695160
10322,11,Pattern_Practice,15,9999,9999,9999,3148195952
10322,11,Pattern_Practice,16,9999,9999,9999,3148695644
10322,11,Pattern_Practice,17,9999,9999,9999,3149195344
10322,11,Pattern_Practice,18,9999,9999,9999,3149696084
10322,11,Pattern_Practice,19,9999,9999,9999,3150195780
10322,11,Pattern_Practice,20,9999,9999,9999,3150695524
10322,11,Pattern_Practice,21,9999,9999,9999,3151195220
10322,11,Pattern_Practice,22,9999,9999,9999,3151695960
10322,11,Pattern_Practice,23,9999,9999,9999,3152195632
10322,11,Pattern_Practice,24,9999,9999,9999,3152695404
10322,11,Pattern_Practice,25,9999,9999,9999,3153195096
10322,11,Pattern_Practice,26,9999,9999,9999,3153695812
10322,11,Pattern_Practice,27,9999,9999,9999,3154195540
10322,11,Pattern_Practice,28,9999,9999,9999,3154695256
10322,11,Pattern_Practice,29,9999,9999,9999,3155195996
10322,11,Pattern_Practice,30,9999,9999,9999,3155695692
10322,11,Pattern_Practice,31,9999,9999,9999,3156195440
10322,11,Pattern_Practice,32,9999,9999,9999,3156695132
10322,11,Pattern_Practice,33,9999,9999,9999,3157195872
10322,11,Pattern_Practice,34,9999,9999,9999,3157695568
10322,11,Pattern_Practice,35,9999,9999,9999,3158195316
10322,11,Pattern_Practice,36,9999,9999,9999,3158696004
10322,11,Pattern_Practice,37,9999,9999,9999,3159195696
10322,11,Pattern_Practice,38,9999,9999,9999,3159695444
10322,11,Pattern_Practice,39,9999,9999,9999,3160195132
10322,11,Pattern_Practice,40,9999,9999,9999,3160695860
10322,11,Pattern_Practice,41,9999,9999,9999,3161195624
10322,11,Pattern_Practice,42,9999,9999,9999,3161695352
10322,11,Pattern_Practice,43,9999,9999,9999,3162196020
10322,11,Pattern_Practice,44,9999,9999,9999,3162695768
10322,11,Pattern_Practice,45,9999,9999,9999,3163195464
10322,11,Pattern_Practice,46,9999,9999,9999,3163695188
10322,11,Pattern_Practice,47,9999,9999,9999,3164195904
10322,11,Pattern_Practice,48,9999,9999,9999,3164695652
10322,11,Pattern_Practice,49,9999,9999,9999,3165195352
10322,11,Pattern_Practice,50,9999,9999,9999,3165696068
10322,11,Pattern_Practice,51,9999,9999,9999,3166195788
10322,11,Pattern_Practice,52,9999,9999,9999,3166695500
10322,11,Pattern_Practice,53,9999,9999,9999,3167195188
10322,11,Pattern_Practice,54,9999,9999,9999,3167695988
10322,11,Pattern_Practice,55,9999,9999,9999,3168195680
10322,11,Pattern_Practice,56,9999,9999,9999,3168695352
10322,11,Pattern_Practice,57,9999,9999,9999,3169195100
10322,11,Pattern_Practice,58,9999,9999,9999,3169695804
10322,11,Pattern_Practice,59,9999,9999,9999,3170195572
10322,11,Pattern_Practice,60,9999,9999,9999,3170695248
10322,11,Pattern_Practice,61,9999,9999,9999,3171195964
10322,11,Pattern_Practice,62,9999,9999,9999,3171695712
10322,11,Pattern_Practice,63,9999,9999,9999,3172195408
10322,11,Pattern_Practice,64,9999,9999,9999,3172695156
10322,11,Pattern_Practice,65,9999,9999,9999,3173195844
10322,11,Pattern_Practice,66,9999,9999,9999,3173695544
10322,11,Pattern_Practice,67,9999,9999,9999,3174195308
10322,11,Pattern_Practice,68,9999,9999,9999,3174695988
10322,11,Pattern_Practice,69,9999,9999,9999,3175195756
10322,11,Pattern_Practice,70,9999,9999,9999,3175695432
10322,11,Pattern_Practice,71,9999,9999,9999,3176195128
10322,11,Pattern_Practice,72,9999,9999,9999,3176695920
10322,11,Pattern_Practice,73,9999,9999,9999,3177195596
10322,11,Pattern_Practice,74,9999,9999,9999,3177695340
10322,11,Pattern_Practice,75,9999,9999,9999,3178196084
10322,11,Pattern_Practice,76,9999,9999,9999,3178695756
10322,11,Pattern_Practice,77,9999,9999,9999,3179195508
10322,11,Pattern_Practice,78,9999,9999,9999,3179695172
10322,11,Pattern_Practice,79,9999,9999,9999,3180195900
10323,13,Improv_Metronome,0,5,42,127,3217249696
10323,13,Improv_Metronome,1,5,42,127,3217750380
10323,13,Improv_Metronome,2,5,42,127,3218250248
10323,13,Improv_Metronome,3,5,42,127,3218749816
10323,13,Improv_Metronome,4,1,48,58,3219243880
10323,13,Improv_Metronome,5,5,42,127,3219249376
10323,13,Improv_Metronome,6,1,48,35,3219319568
10323,13,Improv_Metronome,7,1,48,53,3219580468
10323,13,Improv_Metronome,8,5,42,127,3219750352
10323,13,Improv_Metronome,9,1,48,62,3219856264
10323,13,Improv_Metronome,10,5,42,127,3220250048
10323,13,Improv_Metronome,11,1,48,48,3220310188
10323,13,Improv_Metronome,12,1,48,46,3220740948
10323,13,Improv_Metronome,13,5,42,127,3220749660
10323,13,Improv_Metronome,14,5,42,127,3221250560
10323,13,Improv_Metronome,15,1,48,46,3221298288
10323,13,Improv_Metronome,16,1,48,51,3221722316
10323,13,Improv_Metronome,17,5,42,127,3221750472
10323,13,Improv_Metronome,18,1,48,51,3222058800
10323,13,Improv_Metronome,19,5,42,127,3222249780
10323,13,Improv_Metronome,20,1,48,48,3222471708
10323,13,Improv_Metronome,21,5,42,127,3222749548
10323,13,Improv_Metronome,22,1,48,62,3222771364
10323,13,Improv_Metronome,23,1,38,66,3223237908
10323,13,Improv_Metronome,24,5,42,127,3223250356
10323,13,Improv_Metronome,25,1,38,51,3223731320
10323,13,Improv_Metronome,26,5,42,127,3223750276
10323,13,Improv_Metronome,27,1,38,50,3224035092
10323,13,Improv_Metronome,28,5,42,127,3224249584
10323,13,Improv_Metronome,29,1,38,62,3224517504
10323,13,Improv_Metronome,30,5,42,127,3224749352
10323,13,Improv_Metronome,31,1,38,72,3224777152
10323,13,Improv_Metronome,32,1,38,51,3224842052
10323,13,Improv_Metronome,33,5,42,127,3225250296
10323,13,Improv_Metronome,34,1,38,61,3225304204
10323,13,Improv_Metronome,35,5,42,127,3225749840
10323,13,Improv_Metronome,36,1,38,58,3225785572
10323,13,Improv_Metronome,37,1,38,62,3226054700
10323,13,Improv_Metronome,38,5,42,127,3226249516
10323,13,Improv_Metronome,39,1,38,63,3226491040
10323,13,Improv_Metronome,40,1,38,19,3226594612
10323,13,Improv_Metronome,41,5,42,127,3226750308
10323,13,Improv_Metronome,42,1,38,69,3226782224
10323,13,Improv_Metronome,43,1,38,59,3226811824
10323,13,Improv_Metronome,44,5,42,127,3227250204
10323,13,Improv_Metronome,45,1,48,62,3227366940
10323,13,Improv_Metronome,46,5,42,127,3227749752
10323,13,Improv_Metronome,47,1,38,58,3227849508
10323,13,Improv_Metronome,48,1,48,55,3228115564
10323,13,Improv_Metronome,49,5,42,127,3228249424
10323,13,Improv_Metronome,50,1,38,44,3228598132
10323,13,Improv_Metronome,51,5,42,127,3228750164
10323,13,Improv_Metronome,52,1,48,50,3228888444
10323,13,Improv_Metronome,53,1,48,51,3229137076
10323,13,Improv_Metronome,54,5,42,127,3229249984
10323,13,Improv_Metronome,55,1,48,60,3229376144
10323,13,Improv_Metronome,56,5,42,127,3229749680
10323,13,Improv_Metronome,57,1,38,59,3229894768
10323,13,Improv_Metronome,58,1,48,59,3230155940
10323,13,Improv_Metronome,59,5,42,127,3230251496
10323,13,Improv_Metronome,60,1,48,56,3230658100
10323,13,Improv_Metronome,61,5,42,127,3230750208
10323,13,Improv_Metronome,62,1,48,74,3230950204
10323,13,Improv_Metronome,63,5,42,127,3231249816
10323,13,Improv_Metronome,64,1,38,62,3231514752
10323,13,Improv_Metronome,65,1,38,17,3231633832
10323,13,Improv_Metronome,66,5,42,127,3231749564
10323,13,Improv_Metronome,67,1,48,50,3231993180
10323,13,Improv_Metronome,68,5,42,127,3232250152
10323,13,Improv_Metronome,69,1,38,57,3232260232
10323,13,Improv_Metronome,70,5,42,127,3232750072
10323,13,Improv_Metronome,71,1,48,63,3232799044
10323,13,Improv_Metronome,72,1,38,60,3233065276
10323,13,Improv_Metronome,73,5,42,127,3233249672
10323,13,Improv_Metronome,74,1,48,55,3233315920
10323,13,Improv_Metronome,75,1,48,66,3233598536
10323,13,Improv_Metronome,76,5,42,127,3233750316
10323,13,Improv_Metronome,77,1,38,64,3234134280
10323,13,Improv_Metronome,78,5,42,127,3234250084
10323,13,Improv_Metronome,79,1,48,59,3234398936
10323,13,Improv_Metronome,80,5,42,127,3234749780
10323,13,Improv_Metronome,81,1,48,58,3234902816
10323,13,Improv_Metronome,82,1,38,59,3235216220
10323,13,Improv_Metronome,83,5,42,127,3235249544
10323,13,Improv_Metronome,84,5,42,127,3235750296
10323,13,Improv_Metronome,85,1,38,40,3235762612
10323,13,Improv_Metronome,86,1,38,56,3236237608
10323,13,Improv_Metronome,87,5,42,127,3236249980
10323,13,Improv_Metronome,88,1,38,62,3236495904
10323,13,Improv_Metronome,89,5,42,127,3236749736
10323,13,Improv_Metronome,90,1,38,57,3236967024
10323,13,Improv_Metronome,91,1,38,67,3237242804
10323,13,Improv_Metronome,92,5,42,127,3237250396
10323,13,Improv_Metronome,93,5,42,127,3237750020
10323,13,Improv_Metronome,94,1,38,56,3237788220
10323,13,Improv_Metronome,95,5,42,127,3238249940
10323,13,Improv_Metronome,96,1,38,56,3238297116
10323,13,Improv_Metronome,97,1,38,58,3238571104
10323,13,Improv_Metronome,98,5,42,127,3238749464
10323,13,Improv_Metronome,99,1,38,60,3239055836
10323,13,Improv_Metronome,100,5,42,127,3239250356
10323,13,Improv_Metronome,101,1,38,61,3239343156
10323,13,Improv_Metronome,102,5,42,127,3239750124
10323,13,Improv_Metronome,103,1,38,67,3239884736
10323,13,Improv_Metronome,104,5,42,127,3240249816
10323,13,Improv_Metronome,105,1,38,54,3240354660
10323,13,Improv_Metronome,106,1,38,82,3240612792
10323,13,Improv_Metronome,107,5,42,127,3240749420
10323,13,Improv_Metronome,108,1,38,66,3241068956
10323,13,Improv_Metronome,109,5,42,127,3241250060
10323,13,Improv_Metronome,110,1,38,65,3241356504
10323,13,Improv_Metronome,111,5,42,127,3241749832
10323,13,Improv_Metronome,112,1,48,78,3241828968
10323,13,Improv_Metronome,113,5,42,127,3242249528
10323,13,Improv_Metronome,114,1,48,54,3242304500
10323,13,Improv_Metronome,115,1,48,77,3242561436
10323,13,Improv_Metronome,116,5,42,127,3242750172
10323,13,Improv_Metronome,117,1,48,57,3243042332
10323,13,Improv_Metronome,118,5,42,127,3243250016
10323,13,Improv_Metronome,119,1,48,70,3243312096
10323,13,Improv_Metronome,120,5,42,127,3243749860
10323,13,Improv_Metronome,121,1,48,58,3243809004
10323,13,Improv_Metronome,122,1,48,49,3244090940
10323,13,Improv_Metronome,123,5,42,127,3244249384
10323,13,Improv_Metronome,124,1,48,58,3244524864
10323,13,Improv_Metronome,125,5,42,127,3244750124
10323,13,Improv_Metronome,126,1,48,65,3244806200
10323,13,Improv_Metronome,127,5,42,127,3245249892
10323,13,Improv_Metronome,128,1,48,79,3245288692
10323,13,Improv_Metronome,129,5,42,127,3245749808
10323,13,Improv_Metronome,130,1,38,50,3245808576
10323,13,Improv_Metronome,131,1,38,57,3246068804
10323,13,Improv_Metronome,132,5,42,127,3246250380
10323,13,Improv_Metronome,133,1,38,64,3246509632
10323,13,Improv_Metronome,134,5,42,127,3246750000
10323,13,Improv_Metronome,135,1,48,67,3246826492
10323,13,Improv_Metronome,136,1,38,68,3247067720
10323,13,Improv_Metronome,137,5,42,127,3247249896
10323,13,Improv_Metronome,138,1,48,59,3247342696
10323,13,Improv_Metronome,139,5,42,127,3247749588
10323,13,Improv_Metronome,140,1,38,51,3247841716
10323,13,Improv_Metronome,141,1,38,57,3248134700
10323,13,Improv_Metronome,142,5,42,127,3248250232
10323,13,Improv_Metronome,143,1,38,73,3248584808
10323,13,Improv_Metronome,144,1,38,31,3248671324
10323,13,Improv_Metronome,145,5,42,127,3248749920
10323,13,Improv_Metronome,146,1,48,59,3248880328
10323,13,Improv_Metronome,147,1,38,62,3249141376
10323,13,Improv_Metronome,148,5,42,127,3249249800
10323,13,Improv_Metronome,149,1,48,55,3249440812
10323,13,Improv_Metronome,150,5,42,127,3249750244
10323,13,Improv_Metronome,151,1,48,54,3250012932
10323,13,Improv_Metronome,152,5,42,127,3250250012
10323,13,Improv_Metronome,153,1,48,58,3250283948
10323,13,Improv_Metronome,154,1,48,58,3250746600
10323,13,Improv_Metronome,155,5,42,127,3250750072
10323,13,Improv_Metronome,156,1,38,59,3251015588
10323,13,Improv_Metronome,157,5,42,127,3251249456
10323,13,Improv_Metronome,158,1,48,54,3251278904
10323,13,Improv_Metronome,159,1,38,68,3251551544
10323,13,Improv_Metronome,160,1,38,26,3251629980
10323,13,Improv_Metronome,161,5,42,127,3251750152
10323,13,Improv_Metronome,162,1,48,49,3252091600
10323,13,Improv_Metronome,163,5,42,127,3252249896
10323,13,Improv_Metronome,164,1,48,53,3252381240
10323,13,Improv_Metronome,165,5,42,127,3252749888
10323,13,Improv_Metronome,166,1,48,51,3252847348
10323,13,Improv_Metronome,167,1,38,57,3253089024
10323,13,Improv_Metronome,168,5,42,127,3253250384
10323,13,Improv_Metronome,169,1,48,46,3253334536
10323,13,Improv_Metronome,170,1,38,64,3253602836
10323,13,Improv_Metronome,171,5,42,127,3253750132
10323,13,Improv_Metronome,172,1,48,48,3254152944
10323,13,Improv_Metronome,173,5,42,127,3254249976
10323,13,Improv_Metronome,174,1,48,50,3254435624
10323,13,Improv_Metronome,175,5,42,127,3254749748
10323,13,Improv_Metronome,176,1,48,49,3254883188
10323,13,Improv_Metronome,177,1,38,58,3255165848
10323,13,Improv_Metronome,178,5,42,127,3255250260
10323,13,Improv_Metronome,179,1,48,48,3255685068
10323,13,Improv_Metronome,180,5,42,127,3255749956
10323,13,Improv_Metronome,181,1,38,58,3256171076
10323,13,Improv_Metronome,182,5,42,127,3256249872
10323,13,Improv_Metronome,183,1,48,54,3256510004
10323,13,Improv_Metronome,184,5,42,127,3256749328
10323,13,Improv_Metronome,185,1,38,49,3256950984
10323,13,Improv_Metronome,186,1,48,56,3257209636
10323,13,Improv_Metronome,187,5,42,127,3257250284
10323,13,Improv_Metronome,188,1,38,58,3257715916
10323,13,Improv_Metronome,189,5,42,127,3257749904
10323,13,Improv_Metronome,190,5,42,127,3258249828
10323,13,Improv_Metronome,191,1,48,54,3258250868
10323,13,Improv_Metronome,192,1,48,57,3258509132
10323,13,Improv_Metronome,193,5,42,127,3258750180
10323,13,Improv_Metronome,194,1,48,55,3258798476
10323,13,Improv_Metronome,195,5,42,127,3259249948
10323,13,Improv_Metronome,196,1,38,58,3259263984
10323,13,Improv_Metronome,197,1,38,54,3259551288
10323,13,Improv_Metronome,198,5,42,127,3259749844
10323,13,Improv_Metronome,199,1,38,75,3259796500
10323,13,Improv_Metronome,200,5,42,127,3260249688
10323,13,Improv_Metronome,201,1,48,52,3260322820
10323,13,Improv_Metronome,202,5,42,127,3260750132
10323,13,Improv_Metronome,203,1,38,55,3260797084
10323,13,Improv_Metronome,204,5,42,127,3261249828
10323,13,Improv_Metronome,205,1,48,54,3261297828
10323,13,Improv_Metronome,206,5,42,127,3261749892
10323,13,Improv_Metronome,207,1,38,53,3261751008
10323,13,Improv_Metronome,208,5,42,127,3262250560
10323,13,Improv_Metronome,209,1,48,52,3262256072
10323,13,Improv_Metronome,210,1,48,46,3262525272
10323,13,Improv_Metronome,211,5,42,127,3262750136
10323,13,Improv_Metronome,212,1,38,59,3263099544
10323,13,Improv_Metronome,213,5,42,127,3263249756
10323,13,Improv_Metronome,214,1,38,50,3263426732
10323,13,Improv_Metronome,215,5,42,127,3263749676
10323,13,Improv_Metronome,216,1,38,58,3263931516
10323,13,Improv_Metronome,217,5,42,127,3264250120
10323,13,Improv_Metronome,218,1,48,53,3264421036
10323,13,Improv_Metronome,219,5,42,127,3264749816
10323,13,Improv_Metronome,220,1,48,52,3264910484
10323,13,Improv_Metronome,221,5,42,127,3265249584
10323,13,Improv_Metronome,222,1,48,53,3265454604
10323,13,Improv_Metronome,223,5,42,127,3265750472
10323,13,Improv_Metronome,224,1,48,56,3265959240
10323,13,Improv_Metronome,225,5,42,127,3266250168
10323,13,Improv_Metronome,226,1,38,57,3266425948
10323,13,Improv_Metronome,227,5,42,127,3266749792
10323,13,Improv_Metronome,228,1,38,59,3266949132
10323,13,Improv_Metronome,229,5,42,127,3267249632
10323,13,Improv_Metronome,230,1,38,61,3267464528
10323,13,Improv_Metronome,231,5,42,127,3267750448
10323,13,Improv_Metronome,232,1,38,59,3267959360
10323,13,Improv_Metronome,233,5,42,127,3268249920
10323,13,Improv_Metronome,234,1,38,57,3268444916
10323,13,Improv_Metronome,235,1,38,63,3268747944
10323,13,Improv_Metronome,236,5,42,127,3268750876
10323,13,Improv_Metronome,237,1,38,52,3269018792
10323,13,Improv_Metronome,238,5,42,127,3269250560
10323,13,Improv_Metronome,239,1,38,55,3269301476
10323,13,Improv_Metronome,240,1,38,69,3269572692
10323,13,Improv_Metronome,241,5,42,127,3269750080
10323,13,Improv_Metronome,242,1,38,53,3269831960
10323,13,Improv_Metronome,243,1,38,62,3270102656
10323,13,Improv_Metronome,244,5,42,127,3270249828
10323,13,Improv_Metronome,245,1,38,57,3270346368
10323,13,Improv_Metronome,246,1,38,63,3270638980
10323,13,Improv_Metronome,247,5,42,127,3270749500
10323,13,Improv_Metronome,248,1,38,55,3270869008
10323,13,Improv_Metronome,249,1,38,65,3271173432
10323,13,Improv_Metronome,250,5,42,127,3271250380
10323,13,Improv_Metronome,251,1,38,53,3271436140
10323,13,Improv_Metronome,252,1,38,71,3271729900
10323,13,Improv_Metronome,253,5,42,127,3271750128
10323,13,Improv_Metronome,254,1,38,56,3271994708
10323,13,Improv_Metronome,255,1,38,46,3272245508
10323,13,Improv_Metronome,256,5,42,127,3272249656
10323,13,Improv_Metronome,257,5,42,127,3272749432
10323,13,Improv_Metronome,258,1,48,73,3272788304
10323,13,Improv_Metronome,259,1,48,55,3273056976
10323,13,Improv_Metronome,260,5,42,127,3273250276
10323,13,Improv_Metronome,261,1,48,63,3273317872
10323,13,Improv_Metronome,262,1,48,50,3273595820
10323,13,Improv_Metronome,263,5,42,127,3273749996
10323,13,Improv_Metronome,264,1,48,64,3273816420
10323,13,Improv_Metronome,265,1,48,43,3274146580
10323,13,Improv_Metronome,266,5,42,127,3274249524
10323,13,Improv_Metronome,267,1,48,65,3274403012
10323,13,Improv_Metronome,268,1,48,19,3274732576
10323,13,Improv_Metronome,269,5,42,127,3274750480
10323,13,Improv_Metronome,270,1,48,59,3274992668
10323,13,Improv_Metronome,271,5,42,127,3275250532
10323,13,Improv_Metronome,272,1,48,45,3275316508
10323,13,Improv_Metronome,273,1,48,54,3275544320
10323,13,Improv_Metronome,274,5,42,127,3275749612
10323,13,Improv_Metronome,275,1,48,44,3275853428
10323,13,Improv_Metronome,276,1,48,51,3276091664
10323,13,Improv_Metronome,277,5,42,127,3276249432
10323,13,Improv_Metronome,278,1,48,49,3276367536
10323,13,Improv_Metronome,279,1,48,60,3276655212
10323,13,Improv_Metronome,280,5,42,127,3276750464
10323,13,Improv_Metronome,281,1,38,59,3277185504
10323,13,Improv_Metronome,282,5,42,127,3277250012
10323,13,Improv_Metronome,283,1,38,13,3277302776
10323,13,Improv_Metronome,284,1,48,53,3277719504
10323,13,Improv_Metronome,285,5,42,127,3277749536
10323,13,Improv_Metronome,286,1,38,62,3277977576
10323,13,Improv_Metronome,287,5,42,127,3278250560
10323,13,Improv_Metronome,288,1,48,55,3278529636
10323,13,Improv_Metronome,289,5,42,127,3278750008
10323,13,Improv_Metronome,290,1,38,55,3278792692
10323,13,Improv_Metronome,291,1,48,62,3279038636
10323,13,Improv_Metronome,292,5,42,127,3279249904
10323,13,Improv_Metronome,293,1,48,64,3279321164
10323,13,Improv_Metronome,294,5,42,127,3279749448
10323,13,Improv_Metronome,295,1,48,65,3279889148
10323,13,Improv_Metronome,296,1,38,58,3280193828
10323,13,Improv_Metronome,297,5,42,127,3280250404
10323,13,Improv_Metronome,298,1,48,62,3280709452
10323,13,Improv_Metronome,299,5,42,127,3280749804
10323,13,Improv_Metronome,300,1,48,53,3280984356
10323,13,Improv_Metronome,301,1,48,60,3281245700
10323,13,Improv_Metronome,302,5,42,127,3281249624
10323,13,Improv_Metronome,303,1,38,59,3281519256
10323,13,Improv_Metronome,304,5,42,127,3281750572
10323,13,Improv_Metronome,305,1,38,68,3282032116
10323,13,Improv_Metronome,306,5,42,127,3282250044
10323,13,Improv_Metronome,307,1,38,86,3282315696
10323,13,Improv_Metronome,308,5,42,127,3282749740
10323,13,Improv_Metronome,309,1,38,64,3282824664
10323,13,Improv_Metronome,310,1,38,73,3283117504
10323,13,Improv_Metronome,311,5,42,127,3283249564
10323,13,Improv_Metronome,312,1,38,71,3283362112
10323,13,Improv_Metronome,313,1,38,84,3283643052
10323,13,Improv_Metronome,314,1,38,47,3283749004
10323,13,Improv_Metronome,315,5,42,127,3283751396
10323,13,Improv_Metronome,316,1,48,61,3284168604
10323,13,Improv_Metronome,317,5,42,127,3284249944
10323,13,Improv_Metronome,318,1,38,65,3284459216
10323,13,Improv_Metronome,319,1,38,38,3284559744
10323,13,Improv_Metronome,320,5,42,127,3284749604
10323,13,Improv_Metronome,321,1,48,78,3285026880
10323,13,Improv_Metronome,322,5,42,127,3285250492
10323,13,Improv_Metronome,323,1,38,61,3285309360
10323,13,Improv_Metronome,324,1,48,62,3285565700
10323,13,Improv_Metronome,325,5,42,127,3285750388
10323,13,Improv_Metronome,326,1,48,64,3285868800
10323,13,Improv_Metronome,327,1,48,64,3286147352
10323,13,Improv_Metronome,328,5,42,127,3286249692
10323,13,Improv_Metronome,329,1,48,65,3286648240
10323,13,Improv_Metronome,330,5,42,127,3286749608
10323,13,Improv_Metronome,331,1,38,65,3286937352
10323,13,Improv_Metronome,0,9999,9999,9999,3217247332
10323,13,Improv_Metronome,1,9999,9999,9999,3217748020
10323,13,Improv_Metronome,2,9999,9999,9999,3218247736
10323,13,Improv_Metronome,3,9999,9999,9999,3218747456
10323,13,Improv_Metronome,4,9999,9999,9999,3219247164
10323,13,Improv_Metronome,5,9999,9999,9999,3219747916
10323,13,Improv_Metronome,6,9999,9999,9999,3220247612
10323,13,Improv_Metronome,7,9999,9999,9999,3220747376
10323,13,Improv_Metronome,8,9999,9999,9999,3221248124
10323,13,Improv_Metronome,9,9999,9999,9999,3221747812
10323,13,Improv_Metronome,10,9999,9999,9999,3222247496
10323,13,Improv_Metronome,11,9999,9999,9999,3222747188
10323,13,Improv_Metronome,12,9999,9999,9999,3223247924
10323,13,Improv_Metronome,13,9999,9999,9999,3223747692
10323,13,Improv_Metronome,14,9999,9999,9999,3224247368
10323,13,Improv_Metronome,15,9999,9999,9999,3224747064
10323,13,Improv_Metronome,16,9999,9999,9999,3225247860
10323,13,Improv_Metronome,17,9999,9999,9999,3225747556
10323,13,Improv_Metronome,18,9999,9999,9999,3226247228
10323,13,Improv_Metronome,19,9999,9999,9999,3226748024
10323,13,Improv_Metronome,20,9999,9999,9999,3227247696
10323,13,Improv_Metronome,21,9999,9999,9999,3227747388
10323,13,Improv_Metronome,22,9999,9999,9999,3228247136
10323,13,Improv_Metronome,23,9999,9999,9999,3228747880
10323,13,Improv_Metronome,24,9999,9999,9999,3229247552
10323,13,Improv_Metronome,25,9999,9999,9999,3229747320
10323,13,Improv_Metronome,26,9999,9999,9999,3230248028
10323,13,Improv_Metronome,27,9999,9999,9999,3230747700
10323,13,Improv_Metronome,28,9999,9999,9999,3231247452
10323,13,Improv_Metronome,29,9999,9999,9999,3231747128
10323,13,Improv_Metronome,30,9999,9999,9999,3232247868
10323,13,Improv_Metronome,31,9999,9999,9999,3232747636
10323,13,Improv_Metronome,32,9999,9999,9999,3233247308
10323,13,Improv_Metronome,33,9999,9999,9999,3233748028
10323,13,Improv_Metronome,34,9999,9999,9999,3234247800
10323,13,Improv_Metronome,35,9999,9999,9999,3234747496
10323,13,Improv_Metronome,36,9999,9999,9999,3235247184
10323,13,Improv_Metronome,37,9999,9999,9999,3235747932
10323,13,Improv_Metronome,38,9999,9999,9999,3236247620
10323,13,Improv_Metronome,39,9999,9999,9999,3236747376
10323,13,Improv_Metronome,40,9999,9999,9999,3237248108
10323,13,Improv_Metronome,41,9999,9999,9999,3237747808
10323,13,Improv_Metronome,42,9999,9999,9999,3238247504
10323,13,Improv_Metronome,43,9999,9999,9999,3238747252
10323,13,Improv_Metronome,44,9999,9999,9999,3239247992
10323,13,Improv_Metronome,45,9999,9999,9999,3239747688
10323,13,Improv_Metronome,46,9999,9999,9999,3240247384
10323,13,Improv_Metronome,47,9999,9999,9999,3240747132
10323,13,Improv_Metronome,48,9999,9999,9999,3241247848
10323,13,Improv_Metronome,49,9999,9999,9999,3241747544
10323,13,Improv_Metronome,50,9999,9999,9999,3242247240
10323,13,Improv_Metronome,51,9999,9999,9999,3242747960
10323,13,Improv_Metronome,52,9999,9999,9999,3243247728
10323,13,Improv_Metronome,53,9999,9999,9999,3243747424
10323,13,Improv_Metronome,54,9999,9999,9999,3244247096
10323,13,Improv_Metronome,55,9999,9999,9999,3244747836
10323,13,Improv_Metronome,56,9999,9999,9999,3245247608
10323,13,Improv_Metronome,57,9999,9999,9999,3245747300
10323,13,Improv_Metronome,58,9999,9999,9999,3246248016
10323,13,Improv_Metronome,59,9999,9999,9999,3246747712
10323,13,Improv_Metronome,60,9999,9999,9999,3247247460
10323,13,Improv_Metronome,61,9999,9999,9999,3247747152
10323,13,Improv_Metronome,62,9999,9999,9999,3248247872
10323,13,Improv_Metronome,63,9999,9999,9999,3248747636
10323,13,Improv_Metronome,64,9999,9999,9999,3249247292
10323,13,Improv_Metronome,65,9999,9999,9999,3249748032
10323,13,Improv_Metronome,66,9999,9999,9999,3250247800
10323,13,Improv_Metronome,67,9999,9999,9999,3250747488
10323,13,Improv_Metronome,68,9999,9999,9999,3251247168
10323,13,Improv_Metronome,69,9999,9999,9999,3251747916
10323,13,Improv_Metronome,70,9999,9999,9999,3252247608
10323,13,Improv_Metronome,71,9999,9999,9999,3252747376
10323,13,Improv_Metronome,72,9999,9999,9999,3253248100
10323,13,Improv_Metronome,73,9999,9999,9999,3253747772
10323,13,Improv_Metronome,74,9999,9999,9999,3254247540
10323,13,Improv_Metronome,75,9999,9999,9999,3254747236
10323,13,Improv_Metronome,76,9999,9999,9999,3255247972
10323,13,Improv_Metronome,77,9999,9999,9999,3255747668
10323,13,Improv_Metronome,78,9999,9999,9999,3256247360
10323,13,Improv_Metronome,79,9999,9999,9999,3256747116
10323,13,Improv_Metronome,80,9999,9999,9999,3257247852
10323,13,Improv_Metronome,81,9999,9999,9999,3257747544
10323,13,Improv_Metronome,82,9999,9999,9999,3258247248
10323,13,Improv_Metronome,83,9999,9999,9999,3258747968
10323,13,Improv_Metronome,84,9999,9999,9999,3259247736
10323,13,Improv_Metronome,85,9999,9999,9999,3259747412
10323,13,Improv_Metronome,86,9999,9999,9999,3260247104
10323,13,Improv_Metronome,87,9999,9999,9999,3260747848
10323,13,Improv_Metronome,88,9999,9999,9999,3261247540
10323,13,Improv_Metronome,89,9999,9999,9999,3261747308
10323,13,Improv_Metronome,90,9999,9999,9999,3262248052
10323,13,Improv_Metronome,91,9999,9999,9999,3262747700
10323,13,Improv_Metronome,92,9999,9999,9999,3263247472
10323,13,Improv_Metronome,93,9999,9999,9999,3263747168
10323,13,Improv_Metronome,94,9999,9999,9999,3264247908
10323,13,Improv_Metronome,95,9999,9999,9999,3264747604
10323,13,Improv_Metronome,96,9999,9999,9999,3265247296
10323,13,Improv_Metronome,97,9999,9999,9999,3265748036
10323,13,Improv_Metronome,98,9999,9999,9999,3266247732
10323,13,Improv_Metronome,99,9999,9999,9999,3266747504
10323,13,Improv_Metronome,100,9999,9999,9999,3267247196
10323,13,Improv_Metronome,101,9999,9999,9999,3267747940
10323,13,Improv_Metronome,102,9999,9999,9999,3268247632
10323,13,Improv_Metronome,103,9999,9999,9999,3268747344
10323,13,Improv_Metronome,104,9999,9999,9999,3269248124
10323,13,Improv_Metronome,105,9999,9999,9999,3269747796
10323,13,Improv_Metronome,106,9999,9999,9999,3270247540
10323,13,Improv_Metronome,107,9999,9999,9999,3270747216
10323,13,Improv_Metronome,108,9999,9999,9999,3271247948
10323,13,Improv_Metronome,109,9999,9999,9999,3271747696
10323,13,Improv_Metronome,110,9999,9999,9999,3272247368
10323,13,Improv_Metronome,111,9999,9999,9999,3272747072
10323,13,Improv_Metronome,112,9999,9999,9999,3273247840
10323,13,Improv_Metronome,113,9999,9999,9999,3273747564
10323,13,Improv_Metronome,114,9999,9999,9999,3274247236
10323,13,Improv_Metronome,115,9999,9999,9999,3274747972
10323,13,Improv_Metronome,116,9999,9999,9999,3275247724
10323,13,Improv_Metronome,117,9999,9999,9999,3275747400
10323,13,Improv_Metronome,118,9999,9999,9999,3276247144
10323,13,Improv_Metronome,119,9999,9999,9999,3276747880
10323,13,Improv_Metronome,120,9999,9999,9999,3277247576
10323,13,Improv_Metronome,121,9999,9999,9999,3277747324
10323,13,Improv_Metronome,122,9999,9999,9999,3278248052
10323,13,Improv_Metronome,123,9999,9999,9999,3278747724
10323,13,Improv_Metronome,124,9999,9999,9999,3279247468
10323,13,Improv_Metronome,125,9999,9999,9999,3279747164
10323,13,Improv_Metronome,126,9999,9999,9999,3280247896
10323,13,Improv_Metronome,127,9999,9999,9999,3280747592
10323,13,Improv_Metronome,128,9999,9999,9999,3281247340
10323,13,Improv_Metronome,129,9999,9999,9999,3281748064
10323,13,Improv_Metronome,130,9999,9999,9999,3282247760
10323,13,Improv_Metronome,131,9999,9999,9999,3282747456
10323,13,Improv_Metronome,132,9999,9999,9999,3283247200
10323,13,Improv_Metronome,133,9999,9999,9999,3283747920
10323,13,Improv_Metronome,134,9999,9999,9999,3284247660
10323,13,Improv_Metronome,135,9999,9999,9999,3284747316
10323,13,Improv_Metronome,136,9999,9999,9999,3285248060
10323,13,Improv_Metronome,137,9999,9999,9999,3285747804
10323,13,Improv_Metronome,138,9999,9999,9999,3286247480
10323,13,Improv_Metronome,139,9999,9999,9999,3286747248
10324,14,Improv_Melody,0,2,48,80,3338285604
10324,14,Improv_Melody,1,2,72,80,3338288204
10324,14,Improv_Melody,2,5,42,127,3338289764
10324,14,Improv_Melody,3,5,42,110,3338781984
10324,14,Improv_Melody,4,5,42,110,3339281780
10324,14,Improv_Melody,5,5,42,110,3339781428
10324,14,Improv_Melody,6,5,42,127,3340282416
10324,14,Improv_Melody,7,5,42,110,3340781916
10324,14,Improv_Melody,8,5,42,110,3341281640
10324,14,Improv_Melody,9,5,42,110,3341782704
10324,14,Improv_Melody,10,2,43,80,3342284708
10324,14,Improv_Melody,11,2,67,80,3342286632
10324,14,Improv_Melody,12,5,42,127,3342289544
10324,14,Improv_Melody,13,5,42,110,3342781716
10324,14,Improv_Melody,14,5,42,110,3343281660
10324,14,Improv_Melody,15,5,42,110,3343782428
10324,14,Improv_Melody,16,5,42,127,3344281928
10324,14,Improv_Melody,17,5,42,110,3344781648
10324,14,Improv_Melody,18,5,42,110,3345282420
10324,14,Improv_Melody,19,5,42,110,3345782064
10324,14,Improv_Melody,20,2,45,80,3346284516
10324,14,Improv_Melody,21,2,69,80,3346286368
10324,14,Improv_Melody,22,5,42,127,3346288984
10324,14,Improv_Melody,23,5,42,110,3346781596
10324,14,Improv_Melody,24,5,42,110,3347282364
10324,14,Improv_Melody,25,5,42,110,3347782012
10324,14,Improv_Melody,26,5,42,127,3348281736
10324,14,Improv_Melody,27,5,42,110,3348781532
10324,14,Improv_Melody,28,5,42,110,3349282300
10324,14,Improv_Melody,29,5,42,110,3349781924
10324,14,Improv_Melody,30,2,41,80,3350283768
10324,14,Improv_Melody,31,2,65,80,3350286380
10324,14,Improv_Melody,32,5,42,127,3350288616
10324,14,Improv_Melody,33,5,42,110,3350782204
10324,14,Improv_Melody,34,5,42,110,3351282148
10324,14,Improv_Melody,35,5,42,110,3351781648
10324,14,Improv_Melody,36,5,42,127,3352281440
10324,14,Improv_Melody,37,5,42,110,3352782136
10324,14,Improv_Melody,38,5,42,110,3353281932
10324,14,Improv_Melody,39,5,42,110,3353781728
10324,14,Improv_Melody,40,2,48,80,3354285004
10324,14,Improv_Melody,41,2,72,80,3354287156
10324,14,Improv_Melody,42,5,42,127,3354289616
10324,14,Improv_Melody,43,1,38,72,3354324152
10324,14,Improv_Melody,44,1,38,52,3354587592
10324,14,Improv_Melody,45,5,42,110,3354782340
10324,14,Improv_Melody,46,1,38,53,3354797280
10324,14,Improv_Melody,47,1,38,55,3355093552
10324,14,Improv_Melody,48,5,42,110,3355281720
10324,14,Improv_Melody,49,1,38,57,3355326124
10324,14,Improv_Melody,50,1,38,51,3355578048
10324,14,Improv_Melody,51,5,42,110,3355781400
10324,14,Improv_Melody,52,1,38,58,3355814064
10324,14,Improv_Melody,53,1,38,57,3356073016
10324,14,Improv_Melody,54,5,42,127,3356282272
10324,14,Improv_Melody,55,1,38,58,3356326748
10324,14,Improv_Melody,56,1,38,54,3356560428
10324,14,Improv_Melody,57,5,42,110,3356781800
10324,14,Improv_Melody,58,1,38,56,3356799504
10324,14,Improv_Melody,59,1,38,56,3357024872
10324,14,Improv_Melody,60,1,38,54,3357279736
10324,14,Improv_Melody,61,5,42,110,3357282668
10324,14,Improv_Melody,62,1,38,55,3357486332
10324,14,Improv_Melody,63,5,42,110,3357782500
10324,14,Improv_Melody,64,1,38,64,3357808064
10324,14,Improv_Melody,65,2,43,80,3358284708
10324,14,Improv_Melody,66,2,67,80,3358286936
10324,14,Improv_Melody,67,5,42,127,3358289472
10324,14,Improv_Melody,68,1,48,75,3358297380
10324,14,Improv_Melody,69,1,48,58,3358587444
10324,14,Improv_Melody,70,5,42,110,3358781820
10324,14,Improv_Melody,71,1,48,62,3358811492
10324,14,Improv_Melody,72,1,48,52,3359083536
10324,14,Improv_Melody,73,5,42,110,3359281500
10324,14,Improv_Melody,74,1,48,60,3359324336
10324,14,Improv_Melody,75,1,48,53,3359542748
10324,14,Improv_Melody,76,5,42,110,3359782148
10324,14,Improv_Melody,77,1,48,60,3359794396
10324,14,Improv_Melody,78,1,48,51,3360040184
10324,14,Improv_Melody,79,5,42,127,3360282100
10324,14,Improv_Melody,80,1,48,59,3360298036
10324,14,Improv_Melody,81,1,48,48,3360503036
10324,14,Improv_Melody,82,5,42,110,3360781556
10324,14,Improv_Melody,83,1,48,59,3360783040
10324,14,Improv_Melody,84,1,48,51,3360988800
10324,14,Improv_Melody,85,5,42,110,3361282356
10324,14,Improv_Melody,86,1,48,56,3361305144
10324,14,Improv_Melody,87,1,48,54,3361502464
10324,14,Improv_Melody,88,5,42,110,3361782256
10324,14,Improv_Melody,89,1,48,63,3361805868
10324,14,Improv_Melody,90,2,45,80,3362284460
10324,14,Improv_Melody,91,2,69,80,3362286764
10324,14,Improv_Melody,92,5,42,127,3362289224
10324,14,Improv_Melody,93,1,38,62,3362315308
10324,14,Improv_Melody,94,1,38,32,3362394224
10324,14,Improv_Melody,95,5,42,110,3362781424
10324,14,Improv_Melody,96,1,48,69,3362805260
10324,14,Improv_Melody,97,1,38,57,3363051344
10324,14,Improv_Melody,98,5,42,110,3363282220
10324,14,Improv_Melody,99,1,48,71,3363557328
10324,14,Improv_Melody,100,5,42,110,3363782144
10324,14,Improv_Melody,101,1,48,62,3363806880
10324,14,Improv_Melody,102,1,48,56,3364057904
10324,14,Improv_Melody,103,5,42,127,3364281820
10324,14,Improv_Melody,104,1,38,61,3364302292
10324,14,Improv_Melody,105,1,38,33,3364374452
10324,14,Improv_Melody,106,1,48,59,3364771060
10324,14,Improv_Melody,107,5,42,110,3364781344
10324,14,Improv_Melody,108,1,38,62,3365002732
10324,14,Improv_Melody,109,5,42,110,3365282152
10324,14,Improv_Melody,110,1,48,63,3365499144
10324,14,Improv_Melody,111,1,48,51,3365769836
10324,14,Improv_Melody,112,5,42,110,3365781992
10324,14,Improv_Melody,113,1,48,66,3366018120
10324,14,Improv_Melody,114,1,38,57,3366260016
10324,14,Improv_Melody,115,2,41,80,3366284252
10324,14,Improv_Melody,116,2,65,80,3366286252
10324,14,Improv_Melody,117,5,42,127,3366288940
10324,14,Improv_Melody,118,1,38,35,3366344252
10324,14,Improv_Melody,119,1,38,57,3366735472
10324,14,Improv_Melody,120,5,42,110,3366782184
10324,14,Improv_Melody,121,1,38,58,3366988916
10324,14,Improv_Melody,122,5,42,110,3367282020
10324,14,Improv_Melody,123,1,38,75,3367453812
10324,14,Improv_Melody,124,1,38,43,3367736868
10324,14,Improv_Melody,125,5,42,110,3367781712
10324,14,Improv_Melody,126,1,38,41,3368001908
10324,14,Improv_Melody,127,1,38,53,3368271932
10324,14,Improv_Melody,128,5,42,127,3368281320
10324,14,Improv_Melody,129,1,38,43,3368753528
10324,14,Improv_Melody,130,5,42,110,3368782216
10324,14,Improv_Melody,131,1,38,52,3368992836
10324,14,Improv_Melody,132,5,42,110,3369282196
10324,14,Improv_Melody,133,1,38,65,3369439028
10324,14,Improv_Melody,134,1,38,32,3369719296
10324,14,Improv_Melody,135,5,42,110,3369781516
10324,14,Improv_Melody,136,1,38,46,3369985004
10324,14,Improv_Melody,137,1,48,53,3370279584
10324,14,Improv_Melody,138,2,48,80,3370284672
10324,14,Improv_Melody,139,2,72,80,3370286972
10324,14,Improv_Melody,140,5,42,127,3370289364
10324,14,Improv_Melody,141,1,48,35,3370336448
10324,14,Improv_Melody,142,1,48,45,3370750308
10324,14,Improv_Melody,143,5,42,110,3370782060
10324,14,Improv_Melody,144,1,48,71,3371051344
10324,14,Improv_Melody,145,5,42,110,3371281968
10324,14,Improv_Melody,146,1,48,59,3371511224
10324,14,Improv_Melody,147,5,42,110,3371781444
10324,14,Improv_Melody,148,1,48,62,3371782408
10324,14,Improv_Melody,149,1,48,54,3372014268
10324,14,Improv_Melody,150,1,48,57,3372258488
10324,14,Improv_Melody,151,5,42,127,3372282088
10324,14,Improv_Melody,152,1,48,21,3372418876
10324,14,Improv_Melody,153,1,48,66,3372756368
10324,14,Improv_Melody,154,5,42,110,3372782064
10324,14,Improv_Melody,155,1,48,50,3373026492
10324,14,Improv_Melody,156,5,42,110,3373281600
10324,14,Improv_Melody,157,1,48,54,3373511080
10324,14,Improv_Melody,158,1,48,51,3373781588
10324,14,Improv_Melody,159,5,42,110,3373783236
10324,14,Improv_Melody,160,1,48,62,3374036116
10324,14,Improv_Melody,161,2,43,80,3374284300
10324,14,Improv_Melody,162,2,67,80,3374286752
10324,14,Improv_Melody,163,5,42,127,3374289220
10324,14,Improv_Melody,164,1,38,55,3374290184
10324,14,Improv_Melody,165,1,38,41,3374364196
10324,14,Improv_Melody,166,1,38,59,3374766632
10324,14,Improv_Melody,167,5,42,110,3374782080
10324,14,Improv_Melody,168,1,38,53,3375018432
10324,14,Improv_Melody,169,5,42,110,3375281468
10324,14,Improv_Melody,170,1,38,70,3375505864
10324,14,Improv_Melody,171,5,42,110,3375782364
10324,14,Improv_Melody,172,1,38,52,3375789300
10324,14,Improv_Melody,173,1,38,65,3376025812
10324,14,Improv_Melody,174,1,38,51,3376277056
10324,14,Improv_Melody,175,5,42,127,3376282108
10324,14,Improv_Melody,176,1,38,67,3376772200
10324,14,Improv_Melody,177,5,42,110,3376781884
10324,14,Improv_Melody,178,1,38,46,3377011424
10324,14,Improv_Melody,179,5,42,110,3377282396
10324,14,Improv_Melody,180,1,38,66,3377520852
10324,14,Improv_Melody,181,5,42,110,3377782096
10324,14,Improv_Melody,182,1,38,54,3377811768
10324,14,Improv_Melody,183,1,38,56,3378058752
10324,14,Improv_Melody,184,1,48,14,3378071600
10324,14,Improv_Melody,185,2,45,80,3378284380
10324,14,Improv_Melody,186,2,69,80,3378286684
10324,14,Improv_Melody,187,5,42,127,3378289072
10324,14,Improv_Melody,188,5,42,110,3378781836
10324,14,Improv_Melody,189,1,48,56,3378825424
10324,14,Improv_Melody,190,1,48,39,3379086092
10324,14,Improv_Melody,191,5,42,110,3379282264
10324,14,Improv_Melody,192,1,48,70,3379546528
10324,14,Improv_Melody,193,5,42,110,3379781964
10324,14,Improv_Melody,194,1,48,70,3379806328
10324,14,Improv_Melody,195,1,38,55,3380273540
10324,14,Improv_Melody,196,5,42,127,3380281880
10324,14,Improv_Melody,197,1,38,21,3380373624
10324,14,Improv_Melody,198,1,38,61,3380780136
10324,14,Improv_Melody,199,5,42,110,3380782828
10324,14,Improv_Melody,200,1,38,66,3381048504
10324,14,Improv_Melody,201,1,38,33,3381113772
10324,14,Improv_Melody,202,5,42,110,3381282048
10324,14,Improv_Melody,203,1,38,63,3381502232
10324,14,Improv_Melody,204,1,38,81,3381776812
10324,14,Improv_Melody,205,5,42,110,3381781940
10324,14,Improv_Melody,206,1,38,55,3381831068
10324,14,Improv_Melody,207,1,38,23,3381903000
10324,14,Improv_Melody,208,2,41,80,3382284340
10324,14,Improv_Melody,209,2,65,80,3382286560
10324,14,Improv_Melody,210,5,42,127,3382289096
10324,14,Improv_Melody,211,1,48,102,3382335248
10324,14,Improv_Melody,212,5,42,110,3382782288
10324,14,Improv_Melody,213,1,38,57,3382830388
10324,14,Improv_Melody,214,1,48,86,3383099812
10324,14,Improv_Melody,215,5,42,110,3383281892
10324,14,Improv_Melody,216,1,38,70,3383587616
10324,14,Improv_Melody,217,5,42,110,3383781964
10324,14,Improv_Melody,218,1,48,59,3383876284
10324,14,Improv_Melody,219,1,38,56,3384110928
10324,14,Improv_Melody,220,5,42,127,3384281640
10324,14,Improv_Melody,221,1,48,63,3384364520
10324,14,Improv_Melody,222,5,42,110,3384782312
10324,14,Improv_Melody,223,1,38,52,3384824032
10324,14,Improv_Melody,224,1,48,67,3385098692
10324,14,Improv_Melody,225,5,42,110,3385281916
10324,14,Improv_Melody,226,1,38,62,3385510056
10324,14,Improv_Melody,227,1,48,54,3385748212
10324,14,Improv_Melody,228,5,42,110,3385781760
10324,14,Improv_Melody,229,1,38,57,3386030304
10324,14,Improv_Melody,230,2,48,80,3386285076
10324,14,Improv_Melody,231,2,72,80,3386287376
10324,14,Improv_Melody,232,5,42,127,3386289836
10324,14,Improv_Melody,233,1,48,60,3386307536
10324,14,Improv_Melody,234,5,42,110,3386781980
10324,14,Improv_Melody,235,1,38,57,3386794672
10324,14,Improv_Melody,236,1,48,65,3387045396
10324,14,Improv_Melody,237,5,42,110,3387281808
10324,14,Improv_Melody,238,1,38,67,3387478084
10324,14,Improv_Melody,239,1,38,62,3387737032
10324,14,Improv_Melody,240,5,42,110,3387781504
10324,14,Improv_Melody,241,1,38,58,3388008580
10324,14,Improv_Melody,242,1,38,67,3388273508
10324,14,Improv_Melody,243,5,42,127,3388282228
10324,14,Improv_Melody,244,5,42,110,3388781788
10324,14,Improv_Melody,245,1,38,64,3388801880
10324,14,Improv_Melody,246,1,38,61,3389081708
10324,14,Improv_Melody,247,5,42,110,3389281612
10324,14,Improv_Melody,248,1,38,36,3389497708
10324,14,Improv_Melody,249,1,48,14,3389510852
10324,14,Improv_Melody,250,1,38,59,3389749052
10324,14,Improv_Melody,251,5,42,110,3389782528
10324,14,Improv_Melody,252,1,38,48,3390006232
10324,14,Improv_Melody,253,2,43,80,3390284792
10324,14,Improv_Melody,254,2,67,80,3390286792
10324,14,Improv_Melody,255,5,42,127,3390289632
10324,14,Improv_Melody,256,1,48,77,3390308012
10324,14,Improv_Melody,257,1,48,53,3390754956
10324,14,Improv_Melody,258,5,42,110,3390781696
10324,14,Improv_Melody,259,1,48,74,3391010488
10324,14,Improv_Melody,260,5,42,110,3391281528
10324,14,Improv_Melody,261,1,48,59,3391491540
10324,14,Improv_Melody,262,1,48,58,3391725884
10324,14,Improv_Melody,263,5,42,110,3391782120
10324,14,Improv_Melody,264,1,48,61,3391980672
10324,14,Improv_Melody,265,1,48,65,3392255476
10324,14,Improv_Melody,266,5,42,127,3392281920
10324,14,Improv_Melody,267,1,48,35,3392354016
10324,14,Improv_Melody,268,1,48,60,3392759124
10324,14,Improv_Melody,269,5,42,110,3392781676
10324,14,Improv_Melody,270,1,48,50,3393009492
10324,14,Improv_Melody,271,1,48,28,3393077716
10324,14,Improv_Melody,272,5,42,110,3393282460
10324,14,Improv_Melody,273,1,48,64,3393485684
10324,14,Improv_Melody,274,1,48,57,3393769996
10324,14,Improv_Melody,275,5,42,110,3393782300
10324,14,Improv_Melody,276,1,48,55,3393992996
10324,14,Improv_Melody,277,1,48,58,3394282768
10324,14,Improv_Melody,278,2,45,80,3394285848
10324,14,Improv_Melody,279,2,69,80,3394287700
10324,14,Improv_Melody,280,5,42,127,3394290232
10324,14,Improv_Melody,281,5,42,110,3394781492
10324,14,Improv_Melody,282,1,38,44,3394809812
10324,14,Improv_Melody,283,1,38,76,3395049844
10324,14,Improv_Melody,284,5,42,110,3395282140
10324,14,Improv_Melody,285,1,38,65,3395516932
10324,14,Improv_Melody,286,5,42,110,3395782064
10324,14,Improv_Melody,287,1,38,69,3396073628
10324,14,Improv_Melody,288,5,42,127,3396281760
10324,14,Improv_Melody,289,1,38,71,3396331632
10324,14,Improv_Melody,290,1,38,75,3396587512
10324,14,Improv_Melody,291,5,42,110,3396781440
10324,14,Improv_Melody,292,1,38,66,3396877080
10324,14,Improv_Melody,293,1,38,20,3396972604
10324,14,Improv_Melody,294,1,38,78,3397119932
10324,14,Improv_Melody,295,5,42,110,3397282068
10324,14,Improv_Melody,296,1,38,57,3397389608
10324,14,Improv_Melody,297,1,38,67,3397634716
10324,14,Improv_Melody,298,5,42,110,3397781820
10324,14,Improv_Melody,299,1,38,70,3397874172
10324,14,Improv_Melody,300,1,38,37,3397954060
10324,14,Improv_Melody,301,2,41,80,3398284228
10324,14,Improv_Melody,302,2,65,80,3398286380
10324,14,Improv_Melody,303,5,42,127,3398288916
10324,14,Improv_Melody,304,1,48,70,3398370872
10324,14,Improv_Melody,305,1,48,43,3398605364
10324,14,Improv_Melody,306,5,42,110,3398782608
10324,14,Improv_Melody,307,1,48,67,3398835992
10324,14,Improv_Melody,308,1,48,37,3398912416
10324,14,Improv_Melody,309,1,48,67,3399103448
10324,14,Improv_Melody,310,5,42,110,3399281968
10324,14,Improv_Melody,311,1,48,52,3399365192
10324,14,Improv_Melody,312,1,48,61,3399594156
10324,14,Improv_Melody,313,5,42,110,3399781644
10324,14,Improv_Melody,314,1,48,61,3399852680
10324,14,Improv_Melody,315,5,42,127,3400281568
10324,14,Improv_Melody,316,1,38,32,3400297704
10324,14,Improv_Melody,317,1,38,35,3400360808
10324,14,Improv_Melody,318,1,48,68,3400569796
10324,14,Improv_Melody,319,5,42,110,3400782048
10324,14,Improv_Melody,320,1,38,60,3400809556
10324,14,Improv_Melody,321,1,38,22,3400893680
10324,14,Improv_Melody,322,1,48,74,3401081644
10324,14,Improv_Melody,323,5,42,110,3401281928
10324,14,Improv_Melody,324,1,48,60,3401349376
10324,14,Improv_Melody,325,1,48,71,3401587676
10324,14,Improv_Melody,326,5,42,110,3401781532
10324,14,Improv_Melody,327,1,48,17,3401851144
10324,14,Improv_Melody,328,1,38,65,3401882312
10324,14,Improv_Melody,329,1,38,46,3401932408
10324,14,Improv_Melody,330,2,48,80,3402284876
10324,14,Improv_Melody,331,2,72,80,3402287180
10324,14,Improv_Melody,332,5,42,127,3402289564
10324,14,Improv_Melody,333,1,48,54,3402352444
10324,14,Improv_Melody,334,1,48,37,3402598464
10324,14,Improv_Melody,335,5,42,110,3402782136
10324,14,Improv_Melody,336,1,38,51,3402839488
10324,14,Improv_Melody,337,1,38,33,3402915380
10324,14,Improv_Melody,338,1,48,59,3403083604
10324,14,Improv_Melody,339,5,42,110,3403281768
10324,14,Improv_Melody,340,1,48,50,3403291616
10324,14,Improv_Melody,341,5,42,110,3403781540
10324,14,Improv_Melody,342,1,38,54,3403879828
10324,14,Improv_Melody,343,5,42,127,3404282436
10324,14,Improv_Melody,344,1,48,61,3404404656
10324,14,Improv_Melody,345,1,48,54,3404638108
10324,14,Improv_Melody,346,5,42,110,3404781892
10324,14,Improv_Melody,347,1,38,55,3404885712
10324,14,Improv_Melody,348,1,38,27,3404970440
10324,14,Improv_Melody,349,1,48,65,3405149436
10324,14,Improv_Melody,350,5,42,110,3405281624
10324,14,Improv_Melody,351,1,48,67,3405429952
10324,14,Improv_Melody,352,5,42,110,3405782520
10324,14,Improv_Melody,353,1,38,69,3405900108
10324,14,Improv_Melody,354,1,38,28,3406001512
10324,14,Improv_Melody,355,2,43,80,3406284704
10324,14,Improv_Melody,356,2,67,80,3406287008
10324,14,Improv_Melody,357,5,42,127,3406289396
10324,14,Improv_Melody,358,1,38,61,3406408176
10324,14,Improv_Melody,359,1,38,15,3406707368
10324,14,Improv_Melody,360,5,42,110,3406781760
10324,14,Improv_Melody,361,1,38,79,3406939868
10324,14,Improv_Melody,362,1,38,64,3407216472
10324,14,Improv_Melody,363,5,42,110,3407281512
10324,14,Improv_Melody,364,1,38,71,3407445676
10324,14,Improv_Melody,365,1,38,54,3407711664
10324,14,Improv_Melody,366,5,42,110,3407782384
10324,14,Improv_Melody,367,1,38,69,3407952016
10324,14,Improv_Melody,368,5,42,127,3408281920
10324,14,Improv_Melody,369,1,48,69,3408398884
10324,14,Improv_Melody,370,1,48,46,3408723456
10324,14,Improv_Melody,371,5,42,110,3408781540
10324,14,Improv_Melody,372,1,48,59,3409202060
10324,14,Improv_Melody,373,5,42,110,3409282512
10324,14,Improv_Melody,374,1,48,62,3409465152
10324,14,Improv_Melody,375,5,42,110,3409782192
10324,14,Improv_Melody,376,1,48,68,3409952812
10324,14,Improv_Melody,377,1,48,38,3410018392
10324,14,Improv_Melody,378,2,45,80,3410284380
10324,14,Improv_Melody,379,2,69,80,3410286376
10324,14,Improv_Melody,380,5,42,127,3410289068
10324,14,Improv_Melody,381,1,38,63,3410445220
10324,14,Improv_Melody,382,1,38,47,3410749528
10324,14,Improv_Melody,383,5,42,110,3410781504
10324,14,Improv_Melody,384,1,38,40,3411023384
10324,14,Improv_Melody,385,1,38,47,3411262968
10324,14,Improv_Melody,386,5,42,110,3411282228
10324,14,Improv_Melody,387,1,38,53,3411504888
10324,14,Improv_Melody,388,1,38,53,3411761072
10324,14,Improv_Melody,389,5,42,110,3411782132
10324,14,Improv_Melody,390,1,38,69,3412016008
10324,14,Improv_Melody,391,1,38,28,3412109188
10324,14,Improv_Melody,392,5,42,127,3412281648
10324,14,Improv_Melody,393,1,48,57,3412534616
10324,14,Improv_Melody,394,5,42,110,3412781568
10324,14,Improv_Melody,395,1,48,71,3413118760
10324,14,Improv_Melody,396,5,42,110,3413282168
10324,14,Improv_Melody,397,1,48,55,3413601256
10324,14,Improv_Melody,398,5,42,110,3413782064
10324,14,Improv_Melody,399,1,48,58,3414119208
10324,14,Improv_Melody,400,2,41,80,3414284124
10324,14,Improv_Melody,401,2,65,80,3414286272
10324,14,Improv_Melody,402,5,42,127,3414288664
10324,14,Improv_Melody,403,1,38,59,3414613536
10324,14,Improv_Melody,404,5,42,110,3414782376
10324,14,Improv_Melody,405,1,38,57,3415157664
10324,14,Improv_Melody,406,5,42,110,3415282152
10324,14,Improv_Melody,407,1,38,58,3415722440
10324,14,Improv_Melody,408,5,42,110,3415781868
10324,14,Improv_Melody,409,1,38,66,3416281048
10324,14,Improv_Melody,410,5,42,127,3416283736
10324,14,Improv_Melody,411,5,42,110,3416782172
10324,14,Improv_Melody,412,1,48,60,3416843032
10324,14,Improv_Melody,413,5,42,110,3417281796
10324,14,Improv_Melody,414,1,48,62,3417429824
10324,14,Improv_Melody,415,5,42,110,3417781500
10324,14,Improv_Melody,416,1,48,64,3417901328
10324,14,Improv_Melody,417,2,48,80,3418284820
10324,14,Improv_Melody,418,2,72,80,3418287048
10324,14,Improv_Melody,419,5,42,127,3418289592
10324,14,Improv_Melody,420,1,48,66,3418426772
10324,14,Improv_Melody,421,5,42,110,3418782108
10324,14,Improv_Melody,422,1,38,65,3418892636
10324,14,Improv_Melody,0,9999,9999,9999,3338280028
10324,14,Improv_Melody,1,9999,9999,9999,3338779764
10324,14,Improv_Melody,2,9999,9999,9999,3339279412
10324,14,Improv_Melody,3,9999,9999,9999,3339779136
10324,14,Improv_Melody,4,9999,9999,9999,3340279900
10324,14,Improv_Melody,5,9999,9999,9999,3340779624
10324,14,Improv_Melody,6,9999,9999,9999,3341279348
10324,14,Improv_Melody,7,9999,9999,9999,3341780040
10324,14,Improv_Melody,8,9999,9999,9999,3342279760
10324,14,Improv_Melody,9,9999,9999,9999,3342779496
10324,14,Improv_Melody,10,9999,9999,9999,3343279216
10324,14,Improv_Melody,11,9999,9999,9999,3343779912
10324,14,Improv_Melody,12,9999,9999,9999,3344279636
10324,14,Improv_Melody,13,9999,9999,9999,3344779356
10324,14,Improv_Melody,14,9999,9999,9999,3345280052
10324,14,Improv_Melody,15,9999,9999,9999,3345779772
10324,14,Improv_Melody,16,9999,9999,9999,3346279496
10324,14,Improv_Melody,17,9999,9999,9999,3346779232
10324,14,Improv_Melody,18,9999,9999,9999,3347279924
10324,14,Improv_Melody,19,9999,9999,9999,3347779648
10324,14,Improv_Melody,20,9999,9999,9999,3348279368
10324,14,Improv_Melody,21,9999,9999,9999,3348779092
10324,14,Improv_Melody,22,9999,9999,9999,3349279840
10324,14,Improv_Melody,23,9999,9999,9999,3349779556
10324,14,Improv_Melody,24,9999,9999,9999,3350279280
10324,14,Improv_Melody,25,9999,9999,9999,3350779988
10324,14,Improv_Melody,26,9999,9999,9999,3351279708
10324,14,Improv_Melody,27,9999,9999,9999,3351779428
10324,14,Improv_Melody,28,9999,9999,9999,3352279148
10324,14,Improv_Melody,29,9999,9999,9999,3352779844
10324,14,Improv_Melody,30,9999,9999,9999,3353279568
10324,14,Improv_Melody,31,9999,9999,9999,3353779288
10324,14,Improv_Melody,32,9999,9999,9999,3354280056
10324,14,Improv_Melody,33,9999,9999,9999,3354779748
10324,14,Improv_Melody,34,9999,9999,9999,3355279428
10324,14,Improv_Melody,35,9999,9999,9999,3355779180
10324,14,Improv_Melody,36,9999,9999,9999,3356279904
10324,14,Improv_Melody,37,9999,9999,9999,3356779584
10324,14,Improv_Melody,38,9999,9999,9999,3357279280
10324,14,Improv_Melody,39,9999,9999,9999,3357780060
10324,14,Improv_Melody,40,9999,9999,9999,3358279764
10324,14,Improv_Melody,41,9999,9999,9999,3358779456
10324,14,Improv_Melody,42,9999,9999,9999,3359279208
10324,14,Improv_Melody,43,9999,9999,9999,3359779932
10324,14,Improv_Melody,44,9999,9999,9999,3360279660
10324,14,Improv_Melody,45,9999,9999,9999,3360779336
10324,14,Improv_Melody,46,9999,9999,9999,3361280064
10324,14,Improv_Melody,47,9999,9999,9999,3361779816
10324,14,Improv_Melody,48,9999,9999,9999,3362279516
10324,14,Improv_Melody,49,9999,9999,9999,3362779208
10324,14,Improv_Melody,50,9999,9999,9999,3363279928
10324,14,Improv_Melody,51,9999,9999,9999,3363779704
10324,14,Improv_Melody,52,9999,9999,9999,3364279380
10324,14,Improv_Melody,53,9999,9999,9999,3364779128
10324,14,Improv_Melody,54,9999,9999,9999,3365279860
10324,14,Improv_Melody,55,9999,9999,9999,3365779552
10324,14,Improv_Melody,56,9999,9999,9999,3366279232
10324,14,Improv_Melody,57,9999,9999,9999,3366779968
10324,14,Improv_Melody,58,9999,9999,9999,3367279728
10324,14,Improv_Melody,59,9999,9999,9999,3367779424
10324,14,Improv_Melody,60,9999,9999,9999,3368279100
10324,14,Improv_Melody,61,9999,9999,9999,3368779848
10324,14,Improv_Melody,62,9999,9999,9999,3369279608
10324,14,Improv_Melody,63,9999,9999,9999,3369779300
10324,14,Improv_Melody,64,9999,9999,9999,3370280028
10324,14,Improv_Melody,65,9999,9999,9999,3370779768
10324,14,Improv_Melody,66,9999,9999,9999,3371279452
10324,14,Improv_Melody,67,9999,9999,9999,3371779152
10324,14,Improv_Melody,68,9999,9999,9999,3372279868
10324,14,Improv_Melody,69,9999,9999,9999,3372779624
10324,14,Improv_Melody,70,9999,9999,9999,3373279308
10324,14,Improv_Melody,71,9999,9999,9999,3373780052
10324,14,Improv_Melody,72,9999,9999,9999,3374279732
10324,14,Improv_Melody,73,9999,9999,9999,3374779492
10324,14,Improv_Melody,74,9999,9999,9999,3375279176
10324,14,Improv_Melody,75,9999,9999,9999,3375779924
10324,14,Improv_Melody,76,9999,9999,9999,3376279668
10324,14,Improv_Melody,77,9999,9999,9999,3376779368
10324,14,Improv_Melody,78,9999,9999,9999,3377280100
10324,14,Improv_Melody,79,9999,9999,9999,3377779804
10324,14,Improv_Melody,80,9999,9999,9999,3378279508
10324,14,Improv_Melody,81,9999,9999,9999,3378779244
10324,14,Improv_Melody,82,9999,9999,9999,3379279972
10324,14,Improv_Melody,83,9999,9999,9999,3379779672
10324,14,Improv_Melody,84,9999,9999,9999,3380279368
10324,14,Improv_Melody,85,9999,9999,9999,3380779124
10324,14,Improv_Melody,86,9999,9999,9999,3381279832
10324,14,Improv_Melody,87,9999,9999,9999,3381779572
10324,14,Improv_Melody,88,9999,9999,9999,3382279236
10324,14,Improv_Melody,89,9999,9999,9999,3382779996
10324,14,Improv_Melody,90,9999,9999,9999,3383279676
10324,14,Improv_Melody,91,9999,9999,9999,3383779448
10324,14,Improv_Melody,92,9999,9999,9999,3384279128
10324,14,Improv_Melody,93,9999,9999,9999,3384779872
10324,14,Improv_Melody,94,9999,9999,9999,3385279552
10324,14,Improv_Melody,95,9999,9999,9999,3385779320
10324,14,Improv_Melody,96,9999,9999,9999,3386280052
10324,14,Improv_Melody,97,9999,9999,9999,3386779764
10324,14,Improv_Melody,98,9999,9999,9999,3387279440
10324,14,Improv_Melody,99,9999,9999,9999,3387779136
10324,14,Improv_Melody,100,9999,9999,9999,3388279860
10324,14,Improv_Melody,101,9999,9999,9999,3388779568
10324,14,Improv_Melody,102,9999,9999,9999,3389279320
10324,14,Improv_Melody,103,9999,9999,9999,3389780088
10324,14,Improv_Melody,104,9999,9999,9999,3390279772
10324,14,Improv_Melody,105,9999,9999,9999,3390779480
10324,14,Improv_Melody,106,9999,9999,9999,3391279164
10324,14,Improv_Melody,107,9999,9999,9999,3391779904
10324,14,Improv_Melody,108,9999,9999,9999,3392279628
10324,14,Improv_Melody,109,9999,9999,9999,3392779384
10324,14,Improv_Melody,110,9999,9999,9999,3393280092
10324,14,Improv_Melody,111,9999,9999,9999,3393779784
10324,14,Improv_Melody,112,9999,9999,9999,3394279544
10324,14,Improv_Melody,113,9999,9999,9999,3394779200
10324,14,Improv_Melody,114,9999,9999,9999,3395279924
10324,14,Improv_Melody,115,9999,9999,9999,3395779696
10324,14,Improv_Melody,116,9999,9999,9999,3396279396
10324,14,Improv_Melody,117,9999,9999,9999,3396779072
10324,14,Improv_Melody,118,9999,9999,9999,3397279852
10324,14,Improv_Melody,119,9999,9999,9999,3397779528
10324,14,Improv_Melody,120,9999,9999,9999,3398279280
10324,14,Improv_Melody,121,9999,9999,9999,3398780020
10324,14,Improv_Melody,122,9999,9999,9999,3399279676
10324,14,Improv_Melody,123,9999,9999,9999,3399779428
10324,14,Improv_Melody,124,9999,9999,9999,3400279128
10324,14,Improv_Melody,125,9999,9999,9999,3400779832
10324,14,Improv_Melody,126,9999,9999,9999,3401279564
10324,14,Improv_Melody,127,9999,9999,9999,3401779312
10324,14,Improv_Melody,128,9999,9999,9999,3402280004
10324,14,Improv_Melody,129,9999,9999,9999,3402779748
10324,14,Improv_Melody,130,9999,9999,9999,3403279476
10324,14,Improv_Melody,131,9999,9999,9999,3403779176
10324,14,Improv_Melody,132,9999,9999,9999,3404279920
10324,14,Improv_Melody,133,9999,9999,9999,3404779600
10324,14,Improv_Melody,134,9999,9999,9999,3405279336
10324,14,Improv_Melody,135,9999,9999,9999,3405780080
10324,14,Improv_Melody,136,9999,9999,9999,3406279760
10324,14,Improv_Melody,137,9999,9999,9999,3406779468
10324,14,Improv_Melody,138,9999,9999,9999,3407279220
10324,14,Improv_Melody,139,9999,9999,9999,3407779944
10324,14,Improv_Melody,140,9999,9999,9999,3408279628
10324,14,Improv_Melody,141,9999,9999,9999,3408779324
10324,14,Improv_Melody,142,9999,9999,9999,3409280068
10324,14,Improv_Melody,143,9999,9999,9999,3409779828
10324,14,Improv_Melody,144,9999,9999,9999,3410279504
10324,14,Improv_Melody,145,9999,9999,9999,3410779212
10324,14,Improv_Melody,146,9999,9999,9999,3411279936
10324,14,Improv_Melody,147,9999,9999,9999,3411779692
10324,14,Improv_Melody,148,9999,9999,9999,3412279356
10324,14,Improv_Melody,149,9999,9999,9999,3412779128
10324,14,Improv_Melody,150,9999,9999,9999,3413279800
10324,14,Improv_Melody,151,9999,9999,9999,3413779552
10324,14,Improv_Melody,152,9999,9999,9999,3414279252
10324,14,Improv_Melody,153,9999,9999,9999,3414780012
10324,14,Improv_Melody,154,9999,9999,9999,3415279712
10324,14,Improv_Melody,155,9999,9999,9999,3415779428
10324,14,Improv_Melody,156,9999,9999,9999,3416279132
10324,14,Improv_Melody,157,9999,9999,9999,3416779880
10324,14,Improv_Melody,158,9999,9999,9999,3417279580
10324,14,Improv_Melody,159,9999,9999,9999,3417779280
10324,14,Improv_Melody,160,9999,9999,9999,3418280028
10324,14,Improv_Melody,161,9999,9999,9999,3418779744
103