pid,taskRunCount,taskID,taskName,i,channel,pitch,velocity,microseconds
1,1,Ticks_Pract_5,0,5,42,127,112839952
1011,1,Ticks_Pract_5,1,5,42,127,113339668
1011,1,Ticks_Pract_5,2,5,42,127,113839684
1011,1,Ticks_Pract_5,3,1,48,40,113883940
1011,1,Ticks_Pract_5,4,1,48,40,114329616
1011,1,Ticks_Pract_5,5,5,42,127,114340192
1011,1,Ticks_Pract_5,6,1,48,41,114814496
1011,1,Ticks_Pract_5,7,5,42,127,114839888
1011,1,Ticks_Pract_5,8,1,48,47,115335808
1011,1,Ticks_Pract_5,9,5,42,127,115339584
1011,1,Ticks_Pract_5,10,5,42,127,115840552
1011,1,Ticks_Pract_5,11,1,48,51,115854668
1011,1,Ticks_Pract_5,12,1,48,52,116331908
1011,1,Ticks_Pract_5,13,5,42,127,116340092
1011,1,Ticks_Pract_5,14,1,48,53,116831972
1011,1,Ticks_Pract_5,15,5,42,127,116839640
1011,1,Ticks_Pract_5,16,1,48,50,117321124
1011,1,Ticks_Pract_5,17,5,42,127,117339780
1011,1,Ticks_Pract_5,18,1,48,51,117828972
1011,1,Ticks_Pract_5,19,5,42,127,117840372
1011,1,Ticks_Pract_5,20,1,48,52,118330760
1011,1,Ticks_Pract_5,21,5,42,127,118339920
1011,1,Ticks_Pract_5,22,1,48,52,118839020
1011,1,Ticks_Pract_5,23,5,42,127,118840584
1011,1,Ticks_Pract_5,24,1,48,49,119331640
1011,1,Ticks_Pract_5,25,5,42,127,119340428
1011,1,Ticks_Pract_5,26,5,42,127,119840132
1011,1,Ticks_Pract_5,27,1,48,51,119848932
1011,1,Ticks_Pract_5,28,1,48,56,120334172
1011,1,Ticks_Pract_5,29,5,42,127,120339744
1011,1,Ticks_Pract_5,30,1,48,56,120818436
1011,1,Ticks_Pract_5,31,5,42,127,120839660
1011,1,Ticks_Pract_5,32,1,48,56,121309828
1011,1,Ticks_Pract_5,33,1,48,41,121339712
1011,1,Ticks_Pract_5,34,5,42,127,121340980
1011,1,Ticks_Pract_5,35,1,48,54,121822588
1011,1,Ticks_Pract_5,36,5,42,127,121839976
1011,1,Ticks_Pract_5,37,1,48,55,122311284
1011,1,Ticks_Pract_5,38,5,42,127,122339668
1011,1,Ticks_Pract_5,39,1,48,58,122818536
1011,1,Ticks_Pract_5,40,5,42,127,122840560
1011,1,Ticks_Pract_5,41,1,48,54,123325260
1011,1,Ticks_Pract_5,42,5,42,127,123340032
1011,1,Ticks_Pract_5,43,1,48,54,123813068
1011,1,Ticks_Pract_5,44,5,42,127,123839728
1011,1,Ticks_Pract_5,45,1,48,57,124305656
1011,1,Ticks_Pract_5,46,1,48,40,124338880
1011,1,Ticks_Pract_5,47,5,42,127,124340072
1011,1,Ticks_Pract_5,48,1,48,53,124813776
1011,1,Ticks_Pract_5,49,5,42,127,124840440
1011,1,Ticks_Pract_5,50,1,48,48,125306364
1011,1,Ticks_Pract_5,51,5,42,127,125339984
1011,1,Ticks_Pract_5,52,1,48,46,125813464
1011,1,Ticks_Pract_5,53,5,42,127,125839828
1011,1,Ticks_Pract_5,54,1,48,53,126309868
1011,1,Ticks_Pract_5,55,5,42,127,126339596
1011,1,Ticks_Pract_5,56,1,48,56,126812332
1011,1,Ticks_Pract_5,57,5,42,127,126840264
1011,1,Ticks_Pract_5,58,1,48,39,126845608
1011,1,Ticks_Pract_5,59,1,48,53,127319708
1011,1,Ticks_Pract_5,60,5,42,127,127339864
1011,1,Ticks_Pract_5,61,1,48,53,127824488
1011,1,Ticks_Pract_5,62,5,42,127,127839560
1011,1,Ticks_Pract_5,63,1,48,54,128316856
1011,1,Ticks_Pract_5,64,5,42,127,128340448
1011,1,Ticks_Pract_5,65,1,48,53,128815648
1011,1,Ticks_Pract_5,66,5,42,127,128839992
1011,1,Ticks_Pract_5,67,1,48,56,129320060
1011,1,Ticks_Pract_5,68,5,42,127,129339688
1011,1,Ticks_Pract_5,69,1,48,40,129355428
1011,1,Ticks_Pract_5,70,1,48,52,129792724
1011,1,Ticks_Pract_5,71,5,42,127,129839660
1011,1,Ticks_Pract_5,72,1,48,51,130302740
1011,1,Ticks_Pract_5,73,5,42,127,130340324
1011,1,Ticks_Pract_5,74,1,48,55,130804356
1011,1,Ticks_Pract_5,75,5,42,127,130839944
1011,1,Ticks_Pract_5,76,1,48,51,131323448
1011,1,Ticks_Pract_5,77,5,42,127,131339564
1011,1,Ticks_Pract_5,78,5,42,127,131840536
1011,1,Ticks_Pract_5,79,1,48,52,131855476
1011,1,Ticks_Pract_5,80,5,42,127,132340056
1011,1,Ticks_Pract_5,81,1,48,57,132368032
1011,1,Ticks_Pract_5,82,1,48,56,132831408
1011,1,Ticks_Pract_5,0,9999,9999,9999,112837740
1011,1,Ticks_Pract_5,1,9999,9999,9999,113337456
1011,1,Ticks_Pract_5,2,9999,9999,9999,113837172
1011,1,Ticks_Pract_5,3,9999,9999,9999,114337908
1011,1,Ticks_Pract_5,4,9999,9999,9999,114837600
1011,1,Ticks_Pract_5,5,9999,9999,9999,115337296
1011,1,Ticks_Pract_5,6,9999,9999,9999,115838044
1011,1,Ticks_Pract_5,7,9999,9999,9999,116337732
1011,1,Ticks_Pract_5,8,9999,9999,9999,116837428
1011,1,Ticks_Pract_5,9,9999,9999,9999,117337196
1011,1,Ticks_Pract_5,10,9999,9999,9999,117837936
1011,1,Ticks_Pract_5,11,9999,9999,9999,118337632
1011,1,Ticks_Pract_5,12,9999,9999,9999,118837332
1011,1,Ticks_Pract_5,13,9999,9999,9999,119338068
1011,1,Ticks_Pract_5,14,9999,9999,9999,119837768
1011,1,Ticks_Pract_5,15,9999,9999,9999,120337460
1011,1,Ticks_Pract_5,16,9999,9999,9999,120837228
1011,1,Ticks_Pract_5,17,9999,9999,9999,121337968
1011,1,Ticks_Pract_5,18,9999,9999,9999,121837688
1011,1,Ticks_Pract_5,19,9999,9999,9999,122337384
1011,1,Ticks_Pract_5,20,9999,9999,9999,122838124
1011,1,Ticks_Pract_5,21,9999,9999,9999,123337820
1011,1,Ticks_Pract_5,22,9999,9999,9999,123837516
1011,1,Ticks_Pract_5,23,9999,9999,9999,124337212
1011,1,Ticks_Pract_5,24,9999,9999,9999,124838004
1011,1,Ticks_Pract_5,25,9999,9999,9999,125337700
1011,1,Ticks_Pract_5,26,9999,9999,9999,125837396
1011,1,Ticks_Pract_5,27,9999,9999,9999,126337088
1011,1,Ticks_Pract_5,28,9999,9999,9999,126837828
1011,1,Ticks_Pract_5,29,9999,9999,9999,127337576
1011,1,Ticks_Pract_5,30,9999,9999,9999,127837272
1011,1,Ticks_Pract_5,31,9999,9999,9999,128338012
1011,1,Ticks_Pract_5,32,9999,9999,9999,128837708
1011,1,Ticks_Pract_5,33,9999,9999,9999,129337404
1011,1,Ticks_Pract_5,34,9999,9999,9999,129837152
1011,1,Ticks_Pract_5,35,9999,9999,9999,130337892
1011,1,Ticks_Pract_5,36,9999,9999,9999,130837584
1011,1,Ticks_Pract_5,37,9999,9999,9999,131337280
1011,1,Ticks_Pract_5,38,9999,9999,9999,131838024
1011,1,Ticks_Pract_5,39,9999,9999,9999,132337772
1012,0,Ticks_Pract_8,0,5,42,127,169076388
1012,0,Ticks_Pract_8,1,5,42,127,169875920
1012,0,Ticks_Pract_8,2,1,48,48,169897292
1012,0,Ticks_Pract_8,3,1,48,35,170655340
1012,0,Ticks_Pract_8,4,5,42,127,170675496
1012,0,Ticks_Pract_8,5,5,42,127,171476208
1012,0,Ticks_Pract_8,6,1,48,47,171495636
1012,0,Ticks_Pract_8,7,5,42,127,172276316
1012,0,Ticks_Pract_8,8,1,48,54,172295988
1012,0,Ticks_Pract_8,9,5,42,127,173075776
1012,0,Ticks_Pract_8,10,1,48,59,173105224
1012,0,Ticks_Pract_8,11,5,42,127,173875436
1012,0,Ticks_Pract_8,12,1,48,54,173900544
1012,0,Ticks_Pract_8,13,5,42,127,174676440
1012,0,Ticks_Pract_8,14,1,48,57,174732592
1012,0,Ticks_Pract_8,15,5,42,127,175476248
1012,0,Ticks_Pract_8,16,1,48,56,175477216
1012,0,Ticks_Pract_8,17,1,48,57,176253872
1012,0,Ticks_Pract_8,18,5,42,127,176275972
1012,0,Ticks_Pract_8,19,5,42,127,177075492
1012,0,Ticks_Pract_8,20,1,48,49,177101572
1012,0,Ticks_Pract_8,21,5,42,127,177876272
1012,0,Ticks_Pract_8,22,1,48,57,177905944
1012,0,Ticks_Pract_8,23,5,42,127,178676004
1012,0,Ticks_Pract_8,24,1,48,53,178696728
1012,0,Ticks_Pract_8,25,5,42,127,179475984
1012,0,Ticks_Pract_8,26,1,48,52,179512912
1012,0,Ticks_Pract_8,27,5,42,127,180275496
1012,0,Ticks_Pract_8,28,1,48,47,180336732
1012,0,Ticks_Pract_8,29,5,42,127,181076276
1012,0,Ticks_Pract_8,30,1,48,61,181081040
1012,0,Ticks_Pract_8,31,5,42,127,181876088
1012,0,Ticks_Pract_8,32,1,48,54,181900824
1012,0,Ticks_Pract_8,33,5,42,127,182675744
1012,0,Ticks_Pract_8,34,1,48,55,182703768
1012,0,Ticks_Pract_8,35,5,42,127,183475552
1012,0,Ticks_Pract_8,36,1,48,61,183481888
1012,0,Ticks_Pract_8,37,5,42,127,184276180
1012,0,Ticks_Pract_8,38,1,48,64,184325848
1012,0,Ticks_Pract_8,39,5,42,127,185075992
1012,0,Ticks_Pract_8,40,1,48,68,185178840
1012,0,Ticks_Pract_8,41,5,42,127,185875896
1012,0,Ticks_Pract_8,42,1,48,48,186065708
1012,0,Ticks_Pract_8,43,5,42,127,186675556
1012,0,Ticks_Pract_8,44,1,48,36,186844124
1012,0,Ticks_Pract_8,45,5,42,127,187476188
1012,0,Ticks_Pract_8,46,1,48,36,187526432
1012,0,Ticks_Pract_8,47,1,48,37,188196292
1012,0,Ticks_Pract_8,48,5,42,127,188276208
1012,0,Ticks_Pract_8,49,1,48,47,188976208
1012,0,Ticks_Pract_8,50,5,42,127,189075852
1012,0,Ticks_Pract_8,51,1,48,48,189791424
1012,0,Ticks_Pract_8,52,5,42,127,189875604
1012,0,Ticks_Pract_8,53,1,48,50,190598712
1012,0,Ticks_Pract_8,54,5,42,127,190676232
1012,0,Ticks_Pract_8,55,5,42,127,191476196
1012,0,Ticks_Pract_8,56,1,48,49,191485080
1012,0,Ticks_Pract_8,57,1,48,48,192260484
1012,0,Ticks_Pract_8,58,5,42,127,192275924
1012,0,Ticks_Pract_8,59,1,48,52,193051768
1012,0,Ticks_Pract_8,0,9999,9999,9999,169073728
1012,0,Ticks_Pract_8,1,9999,9999,9999,169873484
1012,0,Ticks_Pract_8,2,9999,9999,9999,170673208
1012,0,Ticks_Pract_8,3,9999,9999,9999,171473996
1012,0,Ticks_Pract_8,4,9999,9999,9999,172273728
1012,0,Ticks_Pract_8,5,9999,9999,9999,173073488
1012,0,Ticks_Pract_8,6,9999,9999,9999,173873220
1012,0,Ticks_Pract_8,7,9999,9999,9999,174674000
1012,0,Ticks_Pract_8,8,9999,9999,9999,175473736
1012,0,Ticks_Pract_8,9,9999,9999,9999,176273460
1012,0,Ticks_Pract_8,10,9999,9999,9999,177073204
1012,0,Ticks_Pract_8,11,9999,9999,9999,177873980
1012,0,Ticks_Pract_8,12,9999,9999,9999,178673716
1012,0,Ticks_Pract_8,13,9999,9999,9999,179473472
1012,0,Ticks_Pract_8,14,9999,9999,9999,180273208
1012,0,Ticks_Pract_8,15,9999,9999,9999,181073988
1012,0,Ticks_Pract_8,16,9999,9999,9999,181873724
1012,0,Ticks_Pract_8,17,9999,9999,9999,182673456
1012,0,Ticks_Pract_8,18,9999,9999,9999,183473264
1012,0,Ticks_Pract_8,19,9999,9999,9999,184273968
1012,0,Ticks_Pract_8,20,9999,9999,9999,185073776
1012,0,Ticks_Pract_8,21,9999,9999,9999,185873460
1012,0,Ticks_Pract_8,22,9999,9999,9999,186673268
1012,0,Ticks_Pract_8,23,9999,9999,9999,187473972
1012,0,Ticks_Pract_8,24,9999,9999,9999,188273772
1012,0,Ticks_Pract_8,25,9999,9999,9999,189073492
1012,0,Ticks_Pract_8,26,9999,9999,9999,189873240
1012,0,Ticks_Pract_8,27,9999,9999,9999,190674020
1012,0,Ticks_Pract_8,28,9999,9999,9999,191473760
1012,0,Ticks_Pract_8,29,9999,9999,9999,192273488
1013,4,T1_SMS_5,0,5,42,127,281355532
1013,4,T1_SMS_5,1,1,48,51,281823092
1013,4,T1_SMS_5,2,5,42,127,281856292
1013,4,T1_SMS_5,3,1,48,53,282282400
1013,4,T1_SMS_5,4,5,42,127,282355984
1013,4,T1_SMS_5,5,1,48,49,282728388
1013,4,T1_SMS_5,6,5,42,127,282855860
1013,4,T1_SMS_5,7,1,48,48,283250224
1013,4,T1_SMS_5,8,5,42,127,283355480
1013,4,T1_SMS_5,9,1,48,51,283757924
1013,4,T1_SMS_5,10,5,42,127,283856296
1013,4,T1_SMS_5,11,1,48,49,284263000
1013,4,T1_SMS_5,12,5,42,127,284356156
1013,4,T1_SMS_5,13,1,48,55,284764116
1013,4,T1_SMS_5,14,5,42,127,284855704
1013,4,T1_SMS_5,15,1,48,55,285261716
1013,4,T1_SMS_5,16,5,42,127,285356360
1013,4,T1_SMS_5,17,1,48,50,285781832
1013,4,T1_SMS_5,18,5,42,127,285856064
1013,4,T1_SMS_5,19,1,48,53,286265144
1013,4,T1_SMS_5,20,5,42,127,286356060
1013,4,T1_SMS_5,21,1,48,52,286753028
1013,4,T1_SMS_5,22,5,42,127,286855664
1013,4,T1_SMS_5,23,1,48,50,287292516
1013,4,T1_SMS_5,24,5,42,127,287356348
1013,4,T1_SMS_5,25,1,48,51,287774932
1013,4,T1_SMS_5,26,5,42,127,287856116
1013,4,T1_SMS_5,27,1,48,54,288290036
1013,4,T1_SMS_5,28,5,42,127,288355812
1013,4,T1_SMS_5,29,1,48,55,288803712
1013,4,T1_SMS_5,30,5,42,127,288856408
1013,4,T1_SMS_5,31,1,48,52,289307376
1013,4,T1_SMS_5,32,5,42,127,289356100
1013,4,T1_SMS_5,33,1,48,53,289786496
1013,4,T1_SMS_5,34,5,42,127,289856092
1013,4,T1_SMS_5,35,1,48,63,290307736
1013,4,T1_SMS_5,36,5,42,127,290355492
1013,4,T1_SMS_5,37,1,48,58,290806532
1013,4,T1_SMS_5,38,5,42,127,290856232
1013,4,T1_SMS_5,39,1,48,57,291313036
1013,4,T1_SMS_5,40,5,42,127,291356152
1013,4,T1_SMS_5,41,1,48,57,291788924
1013,4,T1_SMS_5,42,5,42,127,291856144
1013,4,T1_SMS_5,43,1,48,51,292296688
1013,4,T1_SMS_5,44,5,42,127,292355392
1013,4,T1_SMS_5,45,1,48,62,292791600
1013,4,T1_SMS_5,46,5,42,127,292856132
1013,4,T1_SMS_5,47,1,48,49,293294880
1013,4,T1_SMS_5,48,5,42,127,293356100
1013,4,T1_SMS_5,49,1,48,61,293797496
1013,4,T1_SMS_5,50,5,42,127,293855496
1013,4,T1_SMS_5,51,1,48,55,294273036
1013,4,T1_SMS_5,52,5,42,127,294356388
1013,4,T1_SMS_5,53,1,48,64,294811620
1013,4,T1_SMS_5,54,5,42,127,294856012
1013,4,T1_SMS_5,55,1,48,49,295304660
1013,4,T1_SMS_5,56,5,42,127,295355928
1013,4,T1_SMS_5,57,1,48,60,295798744
1013,4,T1_SMS_5,58,5,42,127,295855324
1013,4,T1_SMS_5,59,1,48,57,296308768
1013,4,T1_SMS_5,60,5,42,127,296356292
1013,4,T1_SMS_5,61,1,48,62,296821248
1013,4,T1_SMS_5,62,5,42,127,296855984
1013,4,T1_SMS_5,63,1,48,59,297295136
1013,4,T1_SMS_5,64,5,42,127,297355604
1013,4,T1_SMS_5,65,1,48,59,297814424
1013,4,T1_SMS_5,66,5,42,127,297856276
1013,4,T1_SMS_5,67,1,48,59,298306340
1013,4,T1_SMS_5,68,5,42,127,298356116
1013,4,T1_SMS_5,69,1,48,56,298818832
1013,4,T1_SMS_5,70,5,42,127,298856036
1013,4,T1_SMS_5,71,1,48,56,299309020
1013,4,T1_SMS_5,72,5,42,127,299355432
1013,4,T1_SMS_5,73,1,48,60,299820240
1013,4,T1_SMS_5,74,5,42,127,299856172
1013,4,T1_SMS_5,75,1,48,55,300302056
1013,4,T1_SMS_5,76,5,42,127,300355868
1013,4,T1_SMS_5,77,1,48,58,300828680
1013,4,T1_SMS_5,78,5,42,127,300855784
1013,4,T1_SMS_5,79,1,48,59,301314460
1013,4,T1_SMS_5,80,5,42,127,301356384
1013,4,T1_SMS_5,81,1,48,54,301808468
1013,4,T1_SMS_5,82,5,42,127,301856000
1013,4,T1_SMS_5,83,1,48,57,302322596
1013,4,T1_SMS_5,84,5,42,127,302355768
1013,4,T1_SMS_5,85,1,48,57,302830800
1013,4,T1_SMS_5,86,5,42,127,302855612
1013,4,T1_SMS_5,87,1,48,58,303334004
1013,4,T1_SMS_5,88,5,42,127,303356204
1013,4,T1_SMS_5,89,1,48,55,303849564
1013,4,T1_SMS_5,90,5,42,127,303856048
1013,4,T1_SMS_5,91,1,48,60,304345292
1013,4,T1_SMS_5,92,5,42,127,304355792
1013,4,T1_SMS_5,93,1,48,60,304852464
1013,4,T1_SMS_5,94,5,42,127,304856388
1013,4,T1_SMS_5,95,5,42,127,305356236
1013,4,T1_SMS_5,96,1,48,55,305370052
1013,4,T1_SMS_5,97,1,48,58,305843848
1013,4,T1_SMS_5,98,5,42,127,305855924
1013,4,T1_SMS_5,99,1,48,56,306355924
1013,4,T1_SMS_5,100,5,42,127,306356968
1013,4,T1_SMS_5,101,1,48,53,306845860
1013,4,T1_SMS_5,102,5,42,127,306856512
1013,4,T1_SMS_5,103,1,48,49,307353332
1013,4,T1_SMS_5,104,5,42,127,307355984
1013,4,T1_SMS_5,105,5,42,127,307855760
1013,4,T1_SMS_5,106,1,48,46,307870400
1013,4,T1_SMS_5,107,1,48,48,308323924
1013,4,T1_SMS_5,108,5,42,127,308355300
1013,4,T1_SMS_5,109,5,42,127,308856120
1013,4,T1_SMS_5,110,1,48,52,308865672
1013,4,T1_SMS_5,111,5,42,127,309355964
1013,4,T1_SMS_5,112,1,48,51,309813608
1013,4,T1_SMS_5,113,5,42,127,309855676
1013,4,T1_SMS_5,114,1,48,51,310314944
1013,4,T1_SMS_5,115,5,42,127,310356340
1013,4,T1_SMS_5,116,1,48,50,310802224
1013,4,T1_SMS_5,117,5,42,127,310856036
1013,4,T1_SMS_5,118,1,48,49,311306340
1013,4,T1_SMS_5,119,5,42,127,311355732
1013,4,T1_SMS_5,120,1,48,52,311817772
1013,4,T1_SMS_5,121,5,42,127,311855724
1013,4,T1_SMS_5,122,1,48,51,312321804
1013,4,T1_SMS_5,123,5,42,127,312356168
1013,4,T1_SMS_5,124,1,48,51,312813920
1013,4,T1_SMS_5,125,5,42,127,312855864
1013,4,T1_SMS_5,126,1,48,46,313353672
1013,4,T1_SMS_5,127,5,42,127,313355708
1013,4,T1_SMS_5,128,1,48,49,313834176
1013,4,T1_SMS_5,129,5,42,127,313856304
1013,4,T1_SMS_5,130,1,48,46,314317568
1013,4,T1_SMS_5,131,5,42,127,314355924
1013,4,T1_SMS_5,132,1,48,56,314827964
1013,4,T1_SMS_5,133,5,42,127,314855668
1013,4,T1_SMS_5,134,1,48,55,315342092
1013,4,T1_SMS_5,135,5,42,127,315355364
1013,4,T1_SMS_5,136,1,48,45,315366924
1013,4,T1_SMS_5,137,1,48,55,315835632
1013,4,T1_SMS_5,138,5,42,127,315856232
1013,4,T1_SMS_5,139,1,48,51,316352156
1013,4,T1_SMS_5,140,5,42,127,316355928
1013,4,T1_SMS_5,141,1,48,53,316816624
1013,4,T1_SMS_5,142,5,42,127,316855696
1013,4,T1_SMS_5,143,1,48,55,317323720
1013,4,T1_SMS_5,144,5,42,127,317356296
1013,4,T1_SMS_5,145,1,48,55,317827680
1013,4,T1_SMS_5,146,1,48,45,317852264
1013,4,T1_SMS_5,147,5,42,127,317855964
1013,4,T1_SMS_5,148,1,48,55,318334528
1013,4,T1_SMS_5,149,5,42,127,318355808
1013,4,T1_SMS_5,150,1,48,54,318842304
1013,4,T1_SMS_5,151,5,42,127,318855648
1013,4,T1_SMS_5,152,1,48,47,319313952
1013,4,T1_SMS_5,153,5,42,127,319356244
1013,4,T1_SMS_5,154,1,48,53,319794944
1013,4,T1_SMS_5,155,5,42,127,319855940
1013,4,T1_SMS_5,156,1,48,54,320329420
1013,4,T1_SMS_5,157,5,42,127,320355636
1013,4,T1_SMS_5,158,1,48,53,320821488
1013,4,T1_SMS_5,159,5,42,127,320856452
1013,4,T1_SMS_5,160,1,48,58,321333600
1013,4,T1_SMS_5,161,5,42,127,321355996
1013,4,T1_SMS_5,162,1,48,59,321846832
1013,4,T1_SMS_5,163,5,42,127,321855844
1013,4,T1_SMS_5,164,5,42,127,322355692
1013,4,T1_SMS_5,165,1,48,59,322375564
1013,4,T1_SMS_5,166,5,42,127,322856288
1013,4,T1_SMS_5,167,1,48,56,322865988
1013,4,T1_SMS_5,168,5,42,127,323355980
1013,4,T1_SMS_5,169,1,48,58,323415796
1013,4,T1_SMS_5,170,5,42,127,323855676
1013,4,T1_SMS_5,171,1,48,60,323859244
1013,4,T1_SMS_5,172,1,48,57,324353480
1013,4,T1_SMS_5,173,5,42,127,324355588
1013,4,T1_SMS_5,174,1,48,46,324378588
1013,4,T1_SMS_5,175,5,42,127,324856092
1013,4,T1_SMS_5,176,1,48,58,324871852
1013,4,T1_SMS_5,177,1,48,44,324898684
1013,4,T1_SMS_5,178,5,42,127,325355892
1013,4,T1_SMS_5,179,1,48,54,325374816
1013,4,T1_SMS_5,180,5,42,127,325855808
1013,4,T1_SMS_5,181,1,48,55,325861476
1013,4,T1_SMS_5,182,1,48,54,326313428
1013,4,T1_SMS_5,183,1,48,44,326338536
1013,4,T1_SMS_5,184,5,42,127,326356300
1013,4,T1_SMS_5,185,1,48,55,326852292
1013,4,T1_SMS_5,186,5,42,127,326855992
1013,4,T1_SMS_5,187,1,48,54,327343612
1013,4,T1_SMS_5,188,5,42,127,327355760
1013,4,T1_SMS_5,189,1,48,60,327832088
1013,4,T1_SMS_5,190,1,48,47,327856936
1013,4,T1_SMS_5,191,5,42,127,327857904
1013,4,T1_SMS_5,192,1,48,59,328340664
1013,4,T1_SMS_5,193,5,42,127,328356100
1013,4,T1_SMS_5,194,5,42,127,328855876
1013,4,T1_SMS_5,195,1,48,62,328884728
1013,4,T1_SMS_5,196,1,48,59,329348504
1013,4,T1_SMS_5,197,5,42,127,329355788
1013,4,T1_SMS_5,198,1,48,46,329375876
1013,4,T1_SMS_5,199,5,42,127,329856444
1013,4,T1_SMS_5,200,1,48,59,329866372
1013,4,T1_SMS_5,201,1,48,39,329900160
1013,4,T1_SMS_5,202,5,42,127,330356040
1013,4,T1_SMS_5,203,1,48,57,330362004
1013,4,T1_SMS_5,204,5,42,127,330855884
1013,4,T1_SMS_5,205,1,48,57,330883168
1013,4,T1_SMS_5,206,1,48,42,330913660
1013,4,T1_SMS_5,207,5,42,127,331355780
1013,4,T1_SMS_5,208,1,48,57,331385980
1013,4,T1_SMS_5,209,1,48,53,331831652
1013,4,T1_SMS_5,210,5,42,127,331856220
1013,4,T1_SMS_5,211,5,42,127,332355920
1013,4,T1_SMS_5,212,1,48,52,332365172
1013,4,T1_SMS_5,213,1,48,48,332828948
1013,4,T1_SMS_5,214,5,42,127,332855832
1013,4,T1_SMS_5,215,1,48,54,333344572
1013,4,T1_SMS_5,216,5,42,127,333356576
1013,4,T1_SMS_5,217,1,48,52,333848456
1013,4,T1_SMS_5,218,5,42,127,333856120
1013,4,T1_SMS_5,219,1,48,27,333900140
1013,4,T1_SMS_5,220,1,48,54,334301580
1013,4,T1_SMS_5,221,1,48,35,334351848
1013,4,T1_SMS_5,222,5,42,127,334355920
1013,4,T1_SMS_5,223,1,48,51,334797588
1013,4,T1_SMS_5,224,1,48,33,334848680
1013,4,T1_SMS_5,225,5,42,127,334855740
1013,4,T1_SMS_5,226,1,48,50,335265468
1013,4,T1_SMS_5,227,5,42,127,335356408
1013,4,T1_SMS_5,228,1,48,53,335786632
1013,4,T1_SMS_5,229,5,42,127,335855880
1013,4,T1_SMS_5,230,1,48,54,336279300
1013,4,T1_SMS_5,231,5,42,127,336355624
1013,4,T1_SMS_5,232,1,48,59,336779372
1013,4,T1_SMS_5,233,5,42,127,336856520
1013,4,T1_SMS_5,234,1,48,56,337327608
1013,4,T1_SMS_5,235,5,42,127,337356212
1013,4,T1_SMS_5,236,1,48,53,337823036
1013,4,T1_SMS_5,237,5,42,127,337855832
1013,4,T1_SMS_5,238,1,48,54,338322732
1013,4,T1_SMS_5,239,5,42,127,338355676
1013,4,T1_SMS_5,240,1,48,52,338820484
1013,4,T1_SMS_5,241,5,42,127,338856268
1013,4,T1_SMS_5,242,1,48,52,339310752
1013,4,T1_SMS_5,243,5,42,127,339355888
1013,4,T1_SMS_5,244,1,48,49,339811420
1013,4,T1_SMS_5,245,5,42,127,339855584
1013,4,T1_SMS_5,246,1,48,48,340318520
1013,4,T1_SMS_5,247,5,42,127,340355576
1013,4,T1_SMS_5,248,1,48,46,340822848
1013,4,T1_SMS_5,249,5,42,127,340856316
1013,4,T1_SMS_5,250,1,48,49,341343112
1013,4,T1_SMS_5,251,5,42,127,341356088
1013,4,T1_SMS_5,252,1,48,51,341836376
1013,4,T1_SMS_5,253,5,42,127,341855560
1013,4,T1_SMS_5,254,1,48,57,342318348
1013,4,T1_SMS_5,255,1,48,45,342343528
1013,4,T1_SMS_5,256,5,42,127,342356276
1013,4,T1_SMS_5,257,1,48,54,342809564
1013,4,T1_SMS_5,258,1,48,44,342834600
1013,4,T1_SMS_5,259,5,42,127,342855952
1013,4,T1_SMS_5,260,1,48,49,343322176
1013,4,T1_SMS_5,261,5,42,127,343355720
1013,4,T1_SMS_5,262,1,48,55,343804072
1013,4,T1_SMS_5,263,1,48,43,343831576
1013,4,T1_SMS_5,264,5,42,127,343855468
1013,4,T1_SMS_5,265,1,48,50,344349372
1013,4,T1_SMS_5,266,5,42,127,344356060
1013,4,T1_SMS_5,267,1,48,43,344800352
1013,4,T1_SMS_5,268,5,42,127,344855904
1013,4,T1_SMS_5,269,5,42,127,345355680
1013,4,T1_SMS_5,270,1,48,56,345358432
1013,4,T1_SMS_5,271,1,48,54,345823820
1013,4,T1_SMS_5,272,5,42,127,345856568
1013,4,T1_SMS_5,273,1,48,49,346330252
1013,4,T1_SMS_5,0,9999,9999,9999,281353320
1013,4,T1_SMS_5,1,9999,9999,9999,281854000
1013,4,T1_SMS_5,2,9999,9999,9999,282353772
1013,4,T1_SMS_5,3,9999,9999,9999,282853424
1013,4,T1_SMS_5,4,9999,9999,9999,283353192
1013,4,T1_SMS_5,5,9999,9999,9999,283853936
1013,4,T1_SMS_5,6,9999,9999,9999,284353648
1013,4,T1_SMS_5,7,9999,9999,9999,284853344
1013,4,T1_SMS_5,8,9999,9999,9999,285354068
1013,4,T1_SMS_5,9,9999,9999,9999,285853780
1013,4,T1_SMS_5,10,9999,9999,9999,286353476
1013,4,T1_SMS_5,11,9999,9999,9999,286853228
1013,4,T1_SMS_5,12,9999,9999,9999,287353912
1013,4,T1_SMS_5,13,9999,9999,9999,287853684
1013,4,T1_SMS_5,14,9999,9999,9999,288353376
1013,4,T1_SMS_5,15,9999,9999,9999,288854116
1013,4,T1_SMS_5,16,9999,9999,9999,289353812
1013,4,T1_SMS_5,17,9999,9999,9999,289853508
1013,4,T1_SMS_5,18,9999,9999,9999,290353204
1013,4,T1_SMS_5,19,9999,9999,9999,290853948
1013,4,T1_SMS_5,20,9999,9999,9999,291353716
1013,4,T1_SMS_5,21,9999,9999,9999,291853412
1013,4,T1_SMS_5,22,9999,9999,9999,292353104
1013,4,T1_SMS_5,23,9999,9999,9999,292853844
1013,4,T1_SMS_5,24,9999,9999,9999,293353592
1013,4,T1_SMS_5,25,9999,9999,9999,293853284
1013,4,T1_SMS_5,26,9999,9999,9999,294354028
1013,4,T1_SMS_5,27,9999,9999,9999,294853724
1013,4,T1_SMS_5,28,9999,9999,9999,295353420
1013,4,T1_SMS_5,29,9999,9999,9999,295853112
1013,4,T1_SMS_5,30,9999,9999,9999,296353856
1013,4,T1_SMS_5,31,9999,9999,9999,296853624
1013,4,T1_SMS_5,32,9999,9999,9999,297353320
1013,4,T1_SMS_5,33,9999,9999,9999,297854060
1013,4,T1_SMS_5,34,9999,9999,9999,298353756
1013,4,T1_SMS_5,35,9999,9999,9999,298853452
1013,4,T1_SMS_5,36,9999,9999,9999,299353144
1013,4,T1_SMS_5,37,9999,9999,9999,299853884
1013,4,T1_SMS_5,38,9999,9999,9999,300353656
1013,4,T1_SMS_5,39,9999,9999,9999,300853352
1013,4,T1_SMS_5,40,9999,9999,9999,301354092
1013,4,T1_SMS_5,41,9999,9999,9999,301853788
1013,4,T1_SMS_5,42,9999,9999,9999,302353484
1013,4,T1_SMS_5,43,9999,9999,9999,302853176
1013,4,T1_SMS_5,44,9999,9999,9999,303353916
1013,4,T1_SMS_5,45,9999,9999,9999,303853664
1013,4,T1_SMS_5,46,9999,9999,9999,304353360
1013,4,T1_SMS_5,47,9999,9999,9999,304854100
1013,4,T1_SMS_5,48,9999,9999,9999,305353800
1013,4,T1_SMS_5,49,9999,9999,9999,305853488
1013,4,T1_SMS_5,50,9999,9999,9999,306353264
1013,4,T1_SMS_5,51,9999,9999,9999,306854000
1013,4,T1_SMS_5,52,9999,9999,9999,307353696
1013,4,T1_SMS_5,53,9999,9999,9999,307853400
1013,4,T1_SMS_5,54,9999,9999,9999,308353088
1013,4,T1_SMS_5,55,9999,9999,9999,308853836
1013,4,T1_SMS_5,56,9999,9999,9999,309353528
1013,4,T1_SMS_5,57,9999,9999,9999,309853240
1013,4,T1_SMS_5,58,9999,9999,9999,310353980
1013,4,T1_SMS_5,59,9999,9999,9999,310853752
1013,4,T1_SMS_5,60,9999,9999,9999,311353448
1013,4,T1_SMS_5,61,9999,9999,9999,311853140
1013,4,T1_SMS_5,62,9999,9999,9999,312353884
1013,4,T1_SMS_5,63,9999,9999,9999,312853576
1013,4,T1_SMS_5,64,9999,9999,9999,313353304
1013,4,T1_SMS_5,65,9999,9999,9999,313854016
1013,4,T1_SMS_5,66,9999,9999,9999,314353712
1013,4,T1_SMS_5,67,9999,9999,9999,314853456
1013,4,T1_SMS_5,68,9999,9999,9999,315353152
1013,4,T1_SMS_5,69,9999,9999,9999,315853872
1013,4,T1_SMS_5,70,9999,9999,9999,316353640
1013,4,T1_SMS_5,71,9999,9999,9999,316853336
1013,4,T1_SMS_5,72,9999,9999,9999,317354080
1013,4,T1_SMS_5,73,9999,9999,9999,317853752
1013,4,T1_SMS_5,74,9999,9999,9999,318353520
1013,4,T1_SMS_5,75,9999,9999,9999,318853216
1013,4,T1_SMS_5,76,9999,9999,9999,319353956
1013,4,T1_SMS_5,77,9999,9999,9999,319853652
1013,4,T1_SMS_5,78,9999,9999,9999,320353348
1013,4,T1_SMS_5,79,9999,9999,9999,320854088
1013,4,T1_SMS_5,80,9999,9999,9999,321353784
1013,4,T1_SMS_5,81,9999,9999,9999,321853556
1013,4,T1_SMS_5,82,9999,9999,9999,322353256
1013,4,T1_SMS_5,83,9999,9999,9999,322854000
1013,4,T1_SMS_5,84,9999,9999,9999,323353696
1013,4,T1_SMS_5,85,9999,9999,9999,323853392
1013,4,T1_SMS_5,86,9999,9999,9999,324353112
1013,4,T1_SMS_5,87,9999,9999,9999,324853880
1013,4,T1_SMS_5,88,9999,9999,9999,325353528
1013,4,T1_SMS_5,89,9999,9999,9999,325853300
1013,4,T1_SMS_5,90,9999,9999,9999,326354012
1013,4,T1_SMS_5,91,9999,9999,9999,326853708
1013,4,T1_SMS_5,92,9999,9999,9999,327353400
1013,4,T1_SMS_5,93,9999,9999,9999,327853172
1013,4,T1_SMS_5,94,9999,9999,9999,328353888
1013,4,T1_SMS_5,95,9999,9999,9999,328853588
1013,4,T1_SMS_5,96,9999,9999,9999,329353280
1013,4,T1_SMS_5,97,9999,9999,9999,329854008
1013,4,T1_SMS_5,98,9999,9999,9999,330353752
1013,4,T1_SMS_5,99,9999,9999,9999,330853448
1013,4,T1_SMS_5,100,9999,9999,9999,331353196
1013,4,T1_SMS_5,101,9999,9999,9999,331853932
1013,4,T1_SMS_5,102,9999,9999,9999,332353636
1013,4,T1_SMS_5,103,9999,9999,9999,332853320
1013,4,T1_SMS_5,104,9999,9999,9999,333354064
1013,4,T1_SMS_5,105,9999,9999,9999,333853760
1013,4,T1_SMS_5,106,9999,9999,9999,334353484
1013,4,T1_SMS_5,107,9999,9999,9999,334853232
1013,4,T1_SMS_5,108,9999,9999,9999,335353972
1013,4,T1_SMS_5,109,9999,9999,9999,335853668
1013,4,T1_SMS_5,110,9999,9999,9999,336353340
1013,4,T1_SMS_5,111,9999,9999,9999,336854080
1013,4,T1_SMS_5,112,9999,9999,9999,337353776
1013,4,T1_SMS_5,113,9999,9999,9999,337853544
1013,4,T1_SMS_5,114,9999,9999,9999,338353240
1013,4,T1_SMS_5,115,9999,9999,9999,338853980
1013,4,T1_SMS_5,116,9999,9999,9999,339353676
1013,4,T1_SMS_5,117,9999,9999,9999,339853372
1013,4,T1_SMS_5,118,9999,9999,9999,340353140
1013,4,T1_SMS_5,119,9999,9999,9999,340853880
1013,4,T1_SMS_5,120,9999,9999,9999,341353576
1013,4,T1_SMS_5,121,9999,9999,9999,341853272
1013,4,T1_SMS_5,122,9999,9999,9999,342353992
1013,4,T1_SMS_5,123,9999,9999,9999,342853740
1013,4,T1_SMS_5,124,9999,9999,9999,343353432
1013,4,T1_SMS_5,125,9999,9999,9999,343853108
1013,4,T1_SMS_5,126,9999,9999,9999,344353848
1013,4,T1_SMS_5,127,9999,9999,9999,344853620
1013,4,T1_SMS_5,128,9999,9999,9999,345353320
1013,4,T1_SMS_5,129,9999,9999,9999,345854056
1014,2,T1_SMS_8,0,5,42,127,423153064
1014,2,T1_SMS_8,1,1,48,47,423716168
1014,2,T1_SMS_8,2,5,42,127,423952724
1014,2,T1_SMS_8,3,1,48,48,424443424
1014,2,T1_SMS_8,4,5,42,127,424752828
1014,2,T1_SMS_8,5,1,48,44,425189504
1014,2,T1_SMS_8,6,5,42,127,425553384
1014,2,T1_SMS_8,7,1,48,41,425916536
1014,2,T1_SMS_8,8,5,42,127,426352968
1014,2,T1_SMS_8,9,1,48,45,426666520
1014,2,T1_SMS_8,10,5,42,127,427152776
1014,2,T1_SMS_8,11,1,48,32,427548040
1014,2,T1_SMS_8,12,5,42,127,427952660
1014,2,T1_SMS_8,13,1,48,34,428287856
1014,2,T1_SMS_8,14,5,42,127,428753292
1014,2,T1_SMS_8,15,1,48,31,429046828
1014,2,T1_SMS_8,16,5,42,127,429553048
1014,2,T1_SMS_8,17,1,48,48,429887472
1014,2,T1_SMS_8,18,5,42,127,430352708
1014,2,T1_SMS_8,19,1,48,50,430632452
1014,2,T1_SMS_8,20,5,42,127,431152812
1014,2,T1_SMS_8,21,1,48,50,431366520
1014,2,T1_SMS_8,22,5,42,127,431953220
1014,2,T1_SMS_8,23,1,48,57,432158544
1014,2,T1_SMS_8,24,5,42,127,432753028
1014,2,T1_SMS_8,25,1,48,56,432897172
1014,2,T1_SMS_8,26,5,42,127,433552616
1014,2,T1_SMS_8,27,1,48,51,433626864
1014,2,T1_SMS_8,28,5,42,127,434352420
1014,2,T1_SMS_8,29,1,48,67,434398476
1014,2,T1_SMS_8,30,5,42,127,435153276
1014,2,T1_SMS_8,31,1,48,57,435182004
1014,2,T1_SMS_8,32,5,42,127,435952888
1014,2,T1_SMS_8,33,1,48,61,435987048
1014,2,T1_SMS_8,34,5,42,127,436752692
1014,2,T1_SMS_8,35,1,48,62,436811912
1014,2,T1_SMS_8,36,5,42,127,437552576
1014,2,T1_SMS_8,37,1,48,63,437583816
1014,2,T1_SMS_8,38,5,42,127,438353208
1014,2,T1_SMS_8,39,1,48,58,438370540
1014,2,T1_SMS_8,40,5,42,127,439152940
1014,2,T1_SMS_8,41,1,48,58,439168032
1014,2,T1_SMS_8,42,5,42,127,439952600
1014,2,T1_SMS_8,43,1,48,47,439985860
1014,2,T1_SMS_8,44,5,42,127,440752480
1014,2,T1_SMS_8,45,1,48,53,440765624
1014,2,T1_SMS_8,46,5,42,127,441553188
1014,2,T1_SMS_8,47,1,48,54,441563188
1014,2,T1_SMS_8,48,1,48,51,442349016
1014,2,T1_SMS_8,49,5,42,127,442352936
1014,2,T1_SMS_8,50,1,48,51,443149048
1014,2,T1_SMS_8,51,5,42,127,443152820
1014,2,T1_SMS_8,52,5,42,127,443952412
1014,2,T1_SMS_8,53,1,48,70,443958072
1014,2,T1_SMS_8,54,5,42,127,444753488
1014,2,T1_SMS_8,55,1,48,68,444777180
1014,2,T1_SMS_8,56,1,48,61,445543232
1014,2,T1_SMS_8,57,5,42,127,445553068
1014,2,T1_SMS_8,58,5,42,127,446352660
1014,2,T1_SMS_8,59,1,48,63,446365876
1014,2,T1_SMS_8,60,1,48,56,447150796
1014,2,T1_SMS_8,61,5,42,127,447152460
1014,2,T1_SMS_8,62,1,48,63,447908700
1014,2,T1_SMS_8,63,5,42,127,447953536
1014,2,T1_SMS_8,64,5,42,127,448753004
1014,2,T1_SMS_8,65,1,48,70,448764796
1014,2,T1_SMS_8,66,1,48,65,449509288
1014,2,T1_SMS_8,67,5,42,127,449552732
1014,2,T1_SMS_8,68,5,42,127,450352620
1014,2,T1_SMS_8,69,1,48,62,450360680
1014,2,T1_SMS_8,70,5,42,127,451153400
1014,2,T1_SMS_8,71,1,48,71,451160708
1014,2,T1_SMS_8,72,5,42,127,451953060
1014,2,T1_SMS_8,73,1,48,71,451975404
1014,2,T1_SMS_8,74,5,42,127,452752644
1014,2,T1_SMS_8,75,1,48,62,452821140
1014,2,T1_SMS_8,76,5,42,127,453552452
1014,2,T1_SMS_8,77,1,48,63,453575612
1014,2,T1_SMS_8,78,1,48,62,454350276
1014,2,T1_SMS_8,79,5,42,127,454353448
1014,2,T1_SMS_8,80,5,42,127,455152916
1014,2,T1_SMS_8,81,1,48,69,455185580
1014,2,T1_SMS_8,82,5,42,127,455952728
1014,2,T1_SMS_8,83,1,48,67,455974468
1014,2,T1_SMS_8,84,5,42,127,456752460
1014,2,T1_SMS_8,85,1,48,72,456815264
1014,2,T1_SMS_8,86,5,42,127,457553312
1014,2,T1_SMS_8,87,1,48,55,457585976
1014,2,T1_SMS_8,88,1,48,43,458347248
1014,2,T1_SMS_8,89,5,42,127,458353040
1014,2,T1_SMS_8,90,5,42,127,459152708
1014,2,T1_SMS_8,91,1,48,53,459161284
1014,2,T1_SMS_8,92,5,42,127,459952440
1014,2,T1_SMS_8,93,1,48,49,459964760
1014,2,T1_SMS_8,94,5,42,127,460753216
1014,2,T1_SMS_8,95,1,48,61,460818368
1014,2,T1_SMS_8,96,1,48,56,461548448
1014,2,T1_SMS_8,97,5,42,127,461553120
1014,2,T1_SMS_8,98,5,42,127,462352712
1014,2,T1_SMS_8,99,1,48,50,462404372
1014,2,T1_SMS_8,100,5,42,127,463152444
1014,2,T1_SMS_8,101,1,48,34,463194904
1014,2,T1_SMS_8,102,5,42,127,463953372
1014,2,T1_SMS_8,103,1,48,51,463973244
1014,2,T1_SMS_8,104,5,42,127,464752956
1014,2,T1_SMS_8,105,1,48,57,464808360
1014,2,T1_SMS_8,106,1,48,53,465546140
1014,2,T1_SMS_8,107,5,42,127,465552684
1014,2,T1_SMS_8,108,5,42,127,466352348
1014,2,T1_SMS_8,109,1,48,40,466361752
1014,2,T1_SMS_8,110,1,48,59,467149204
1014,2,T1_SMS_8,111,5,42,127,467153424
1014,2,T1_SMS_8,112,5,42,127,467953040
1014,2,T1_SMS_8,113,1,48,47,467977256
1014,2,T1_SMS_8,114,5,42,127,468752696
1014,2,T1_SMS_8,115,1,48,56,468753736
1014,2,T1_SMS_8,116,5,42,127,469552432
1014,2,T1_SMS_8,117,1,48,65,469586964
1014,2,T1_SMS_8,118,5,42,127,470353508
1014,2,T1_SMS_8,119,1,48,58,470366200
1014,2,T1_SMS_8,120,1,48,54,471152796
1014,2,T1_SMS_8,121,5,42,127,471154136
1014,2,T1_SMS_8,122,5,42,127,471952680
1014,2,T1_SMS_8,123,1,48,46,471999180
1014,2,T1_SMS_8,124,1,48,43,472751512
1014,2,T1_SMS_8,125,5,42,127,472753000
1014,2,T1_SMS_8,126,5,42,127,473553344
1014,2,T1_SMS_8,127,1,48,51,473564088
1014,2,T1_SMS_8,128,5,42,127,474353176
1014,2,T1_SMS_8,129,1,48,56,474358316
1014,2,T1_SMS_8,130,5,42,127,475152760
1014,2,T1_SMS_8,131,1,48,55,475191256
1014,2,T1_SMS_8,132,1,48,48,475952272
1014,2,T1_SMS_8,133,5,42,127,475953684
1014,2,T1_SMS_8,134,5,42,127,476753200
1014,2,T1_SMS_8,135,1,48,49,476763120
1014,2,T1_SMS_8,136,5,42,127,477553304
1014,2,T1_SMS_8,137,1,48,50,477560840
1014,2,T1_SMS_8,138,1,48,52,478339760
1014,2,T1_SMS_8,139,5,42,127,478352732
1014,2,T1_SMS_8,140,1,48,61,479107704
1014,2,T1_SMS_8,141,5,42,127,479152392
1014,2,T1_SMS_8,142,1,48,52,479949400
1014,2,T1_SMS_8,143,5,42,127,479953396
1014,2,T1_SMS_8,144,5,42,127,480753160
1014,2,T1_SMS_8,145,1,48,46,480770940
1014,2,T1_SMS_8,146,5,42,127,481552744
1014,2,T1_SMS_8,147,1,48,58,481570152
1014,2,T1_SMS_8,148,5,42,127,482352480
1014,2,T1_SMS_8,149,1,48,30,482460536
1014,2,T1_SMS_8,150,1,48,46,483101760
1014,2,T1_SMS_8,151,5,42,127,483153176
1014,2,T1_SMS_8,152,1,48,53,483900292
1014,2,T1_SMS_8,153,1,48,34,483941860
1014,2,T1_SMS_8,154,5,42,127,483953112
1014,2,T1_SMS_8,155,1,48,53,484736212
1014,2,T1_SMS_8,156,5,42,127,484752848
1014,2,T1_SMS_8,157,1,48,42,484769940
1014,2,T1_SMS_8,158,5,42,127,485552416
1014,2,T1_SMS_8,159,1,48,50,485576856
1014,2,T1_SMS_8,160,5,42,127,486353120
1014,2,T1_SMS_8,161,1,48,55,486366860
1014,2,T1_SMS_8,162,5,42,127,487153100
1014,2,T1_SMS_8,163,1,48,47,487173720
1014,2,T1_SMS_8,164,5,42,127,487952760
1014,2,T1_SMS_8,165,1,48,54,487985200
1014,2,T1_SMS_8,166,5,42,127,488752496
1014,2,T1_SMS_8,167,1,48,42,488755240
1014,2,T1_SMS_8,168,5,42,127,489553276
1014,2,T1_SMS_8,169,1,48,53,489580400
1014,2,T1_SMS_8,170,1,48,57,490339876
1014,2,T1_SMS_8,171,5,42,127,490353072
1014,2,T1_SMS_8,172,1,48,49,491103036
1014,2,T1_SMS_8,173,5,42,127,491152884
1014,2,T1_SMS_8,174,1,48,36,491934112
1014,2,T1_SMS_8,175,5,42,127,491952544
1014,2,T1_SMS_8,176,5,42,127,492753256
1014,2,T1_SMS_8,177,1,48,47,492754668
1014,2,T1_SMS_8,178,5,42,127,493552940
1014,2,T1_SMS_8,179,1,48,49,493587324
1014,2,T1_SMS_8,180,1,48,50,494315452
1014,2,T1_SMS_8,181,5,42,127,494352888
1014,2,T1_SMS_8,182,1,48,55,495128208
1014,2,T1_SMS_8,183,5,42,127,495152472
1014,2,T1_SMS_8,184,5,42,127,495953260
1014,2,T1_SMS_8,185,1,48,48,495964156
1014,2,T1_SMS_8,186,1,48,55,496743976
1014,2,T1_SMS_8,187,5,42,127,496753136
1014,2,T1_SMS_8,188,1,48,29,497546556
1014,2,T1_SMS_8,189,5,42,127,497552868
1014,2,T1_SMS_8,190,5,42,127,498352384
1014,2,T1_SMS_8,191,1,48,50,498355356
1014,2,T1_SMS_8,192,5,42,127,499153240
1014,2,T1_SMS_8,193,1,48,54,499214200
1014,2,T1_SMS_8,194,1,48,54,499928252
1014,2,T1_SMS_8,195,5,42,127,499953064
1014,2,T1_SMS_8,196,1,48,47,500714620
1014,2,T1_SMS_8,197,5,42,127,500752872
1014,2,T1_SMS_8,198,1,48,51,501518764
1014,2,T1_SMS_8,199,5,42,127,501552456
1014,2,T1_SMS_8,200,1,48,44,502324556
1014,2,T1_SMS_8,201,5,42,127,502353236
1014,2,T1_SMS_8,202,5,42,127,503152976
1014,2,T1_SMS_8,203,1,48,46,503158116
1014,2,T1_SMS_8,204,5,42,127,503952856
1014,2,T1_SMS_8,205,1,48,56,503967124
1014,2,T1_SMS_8,206,1,48,44,504707672
1014,2,T1_SMS_8,207,5,42,127,504752360
1014,2,T1_SMS_8,208,1,48,52,505545104
1014,2,T1_SMS_8,209,5,42,127,505553288
1014,2,T1_SMS_8,210,5,42,127,506352908
1014,2,T1_SMS_8,211,1,48,53,506410404
1014,2,T1_SMS_8,212,5,42,127,507153084
1014,2,T1_SMS_8,213,1,48,51,507226144
1014,2,T1_SMS_8,214,5,42,127,507952596
1014,2,T1_SMS_8,215,1,48,51,507968884
1014,2,T1_SMS_8,216,5,42,127,508753152
1014,2,T1_SMS_8,217,1,48,47,508798532
1014,2,T1_SMS_8,218,1,48,55,509537888
1014,2,T1_SMS_8,219,5,42,127,509552880
1014,2,T1_SMS_8,220,5,42,127,510352916
1014,2,T1_SMS_8,221,1,48,40,510380872
1014,2,T1_SMS_8,222,5,42,127,511152652
1014,2,T1_SMS_8,223,1,48,59,511177536
1014,2,T1_SMS_8,224,1,48,52,511935668
1014,2,T1_SMS_8,225,5,42,127,511953200
1014,2,T1_SMS_8,226,1,48,54,512741384
1014,2,T1_SMS_8,227,5,42,127,512753008
1014,2,T1_SMS_8,228,5,42,127,513552896
1014,2,T1_SMS_8,229,1,48,61,513578088
1014,2,T1_SMS_8,230,1,48,61,514345784
1014,2,T1_SMS_8,231,5,42,127,514352476
1014,2,T1_SMS_8,232,5,42,127,515153192
1014,2,T1_SMS_8,233,1,48,48,515181068
1014,2,T1_SMS_8,234,1,48,41,515945480
1014,2,T1_SMS_8,235,5,42,127,515953140
1014,2,T1_SMS_8,236,5,42,127,516752732
1014,2,T1_SMS_8,237,1,48,44,516756220
1014,2,T1_SMS_8,238,5,42,127,517552464
1014,2,T1_SMS_8,239,1,48,55,517563440
1014,2,T1_SMS_8,240,1,48,52,518267636
1014,2,T1_SMS_8,241,5,42,127,518353460
1014,2,T1_SMS_8,242,1,48,57,519126536
1014,2,T1_SMS_8,0,9999,9999,9999,423150700
1014,2,T1_SMS_8,1,9999,9999,9999,423950436
1014,2,T1_SMS_8,2,9999,9999,9999,424750168
1014,2,T1_SMS_8,3,9999,9999,9999,425550948
1014,2,T1_SMS_8,4,9999,9999,9999,426350680
1014,2,T1_SMS_8,5,9999,9999,9999,427150416
1014,2,T1_SMS_8,6,9999,9999,9999,427950148
1014,2,T1_SMS_8,7,9999,9999,9999,428750928
1014,2,T1_SMS_8,8,9999,9999,9999,429550688
1014,2,T1_SMS_8,9,9999,9999,9999,430350420
1014,2,T1_SMS_8,10,9999,9999,9999,431150152
1014,2,T1_SMS_8,11,9999,9999,9999,431950932
1014,2,T1_SMS_8,12,9999,9999,9999,432750664
1014,2,T1_SMS_8,13,9999,9999,9999,433550400
1014,2,T1_SMS_8,14,9999,9999,9999,434350132
1014,2,T1_SMS_8,15,9999,9999,9999,435150916
1014,2,T1_SMS_8,16,9999,9999,9999,435950672
1014,2,T1_SMS_8,17,9999,9999,9999,436750404
1014,2,T1_SMS_8,18,9999,9999,9999,437550140
1014,2,T1_SMS_8,19,9999,9999,9999,438350920
1014,2,T1_SMS_8,20,9999,9999,9999,439150652
1014,2,T1_SMS_8,21,9999,9999,9999,439950388
1014,2,T1_SMS_8,22,9999,9999,9999,440750192
1014,2,T1_SMS_8,23,9999,9999,9999,441550900
1014,2,T1_SMS_8,24,9999,9999,9999,442350648
1014,2,T1_SMS_8,25,9999,9999,9999,443150384
1014,2,T1_SMS_8,26,9999,9999,9999,443950200
1014,2,T1_SMS_8,27,9999,9999,9999,444750904
1014,2,T1_SMS_8,28,9999,9999,9999,445550704
1014,2,T1_SMS_8,29,9999,9999,9999,446350444
1014,2,T1_SMS_8,30,9999,9999,9999,447150184
1014,2,T1_SMS_8,31,9999,9999,9999,447950952
1014,2,T1_SMS_8,32,9999,9999,9999,448750640
1014,2,T1_SMS_8,33,9999,9999,9999,449550444
1014,2,T1_SMS_8,34,9999,9999,9999,450350184
1014,2,T1_SMS_8,35,9999,9999,9999,451150964
1014,2,T1_SMS_8,36,9999,9999,9999,451950700
1014,2,T1_SMS_8,37,9999,9999,9999,452750432
1014,2,T1_SMS_8,38,9999,9999,9999,453550164
1014,2,T1_SMS_8,39,9999,9999,9999,454350936
1014,2,T1_SMS_8,40,9999,9999,9999,455150704
1014,2,T1_SMS_8,41,9999,9999,9999,455950436
1014,2,T1_SMS_8,42,9999,9999,9999,456750172
1014,2,T1_SMS_8,43,9999,9999,9999,457550952
1014,2,T1_SMS_8,44,9999,9999,9999,458350680
1014,2,T1_SMS_8,45,9999,9999,9999,459150420
1014,2,T1_SMS_8,46,9999,9999,9999,459950152
1014,2,T1_SMS_8,47,9999,9999,9999,460750928
1014,2,T1_SMS_8,48,9999,9999,9999,461550684
1014,2,T1_SMS_8,49,9999,9999,9999,462350420
1014,2,T1_SMS_8,50,9999,9999,9999,463150156
1014,2,T1_SMS_8,51,9999,9999,9999,463950936
1014,2,T1_SMS_8,52,9999,9999,9999,464750668
1014,2,T1_SMS_8,53,9999,9999,9999,465550396
1014,2,T1_SMS_8,54,9999,9999,9999,466350136
1014,2,T1_SMS_8,55,9999,9999,9999,467150912
1014,2,T1_SMS_8,56,9999,9999,9999,467950676
1014,2,T1_SMS_8,57,9999,9999,9999,468750408
1014,2,T1_SMS_8,58,9999,9999,9999,469550144
1014,2,T1_SMS_8,59,9999,9999,9999,470350924
1014,2,T1_SMS_8,60,9999,9999,9999,471150656
1014,2,T1_SMS_8,61,9999,9999,9999,471950392
1014,2,T1_SMS_8,62,9999,9999,9999,472750200
1014,2,T1_SMS_8,63,9999,9999,9999,473550908
1014,2,T1_SMS_8,64,9999,9999,9999,474350664
1014,2,T1_SMS_8,65,9999,9999,9999,475150396
1014,2,T1_SMS_8,66,9999,9999,9999,475950132
1014,2,T1_SMS_8,67,9999,9999,9999,476750912
1014,2,T1_SMS_8,68,9999,9999,9999,477550644
1014,2,T1_SMS_8,69,9999,9999,9999,478350444
1014,2,T1_SMS_8,70,9999,9999,9999,479150180
1014,2,T1_SMS_8,71,9999,9999,9999,479950960
1014,2,T1_SMS_8,72,9999,9999,9999,480750648
1014,2,T1_SMS_8,73,9999,9999,9999,481550384
1014,2,T1_SMS_8,74,9999,9999,9999,482350192
1014,2,T1_SMS_8,75,9999,9999,9999,483150964
1014,2,T1_SMS_8,76,9999,9999,9999,483950676
1014,2,T1_SMS_8,77,9999,9999,9999,484750408
1014,2,T1_SMS_8,78,9999,9999,9999,485550128
1014,2,T1_SMS_8,79,9999,9999,9999,486350904
1014,2,T1_SMS_8,80,9999,9999,9999,487150664
1014,2,T1_SMS_8,81,9999,9999,9999,487950396
1014,2,T1_SMS_8,82,9999,9999,9999,488750132
1014,2,T1_SMS_8,83,9999,9999,9999,489550912
1014,2,T1_SMS_8,84,9999,9999,9999,490350636
1014,2,T1_SMS_8,85,9999,9999,9999,491150448
1014,2,T1_SMS_8,86,9999,9999,9999,491950180
1014,2,T1_SMS_8,87,9999,9999,9999,492750968
1014,2,T1_SMS_8,88,9999,9999,9999,493550652
1014,2,T1_SMS_8,89,9999,9999,9999,494350452
1014,2,T1_SMS_8,90,9999,9999,9999,495150188
1014,2,T1_SMS_8,91,9999,9999,9999,495950900
1014,2,T1_SMS_8,92,9999,9999,9999,496750700
1014,2,T1_SMS_8,93,9999,9999,9999,497550432
1014,2,T1_SMS_8,94,9999,9999,9999,498350172
1014,2,T1_SMS_8,95,9999,9999,9999,499150952
1014,2,T1_SMS_8,96,9999,9999,9999,499950704
1014,2,T1_SMS_8,97,9999,9999,9999,500750436
1014,2,T1_SMS_8,98,9999,9999,9999,501550168
1014,2,T1_SMS_8,99,9999,9999,9999,502350948
1014,2,T1_SMS_8,100,9999,9999,9999,503150688
1014,2,T1_SMS_8,101,9999,9999,9999,503950420
1014,2,T1_SMS_8,102,9999,9999,9999,504750148
1014,2,T1_SMS_8,103,9999,9999,9999,505550928
1014,2,T1_SMS_8,104,9999,9999,9999,506350692
1014,2,T1_SMS_8,105,9999,9999,9999,507150424
1014,2,T1_SMS_8,106,9999,9999,9999,507950160
1014,2,T1_SMS_8,107,9999,9999,9999,508750940
1014,2,T1_SMS_8,108,9999,9999,9999,509550668
1014,2,T1_SMS_8,109,9999,9999,9999,510350408
1014,2,T1_SMS_8,110,9999,9999,9999,511150140
1014,2,T1_SMS_8,111,9999,9999,9999,511950912
1014,2,T1_SMS_8,112,9999,9999,9999,512750648
1014,2,T1_SMS_8,113,9999,9999,9999,513550388
1014,2,T1_SMS_8,114,9999,9999,9999,514350192
1014,2,T1_SMS_8,115,9999,9999,9999,515150904
1014,2,T1_SMS_8,116,9999,9999,9999,515950704
1014,2,T1_SMS_8,117,9999,9999,9999,516750444
1014,2,T1_SMS_8,118,9999,9999,9999,517550176
1014,2,T1_SMS_8,119,9999,9999,9999,518350948
1015,10,Ticks_ISO_T2_5,0,5,42,127,528674084
1015,10,Ticks_ISO_T2_5,1,5,42,127,529173800
1015,10,Ticks_ISO_T2_5,2,1,48,46,529312828
1015,10,Ticks_ISO_T2_5,3,5,42,127,529673720
1015,10,Ticks_ISO_T2_5,4,1,48,35,529761884
1015,10,Ticks_ISO_T2_5,5,1,48,40,530143204
1015,10,Ticks_ISO_T2_5,6,5,42,127,530174824
1015,10,Ticks_ISO_T2_5,7,1,48,48,530586572
1015,10,Ticks_ISO_T2_5,8,5,42,127,530674000
1015,10,Ticks_ISO_T2_5,9,1,48,47,531074752
1015,10,Ticks_ISO_T2_5,10,5,42,127,531173828
1015,10,Ticks_ISO_T2_5,11,1,48,48,531609304
1015,10,Ticks_ISO_T2_5,12,5,42,127,531673440
1015,10,Ticks_ISO_T2_5,13,1,48,46,532112812
1015,10,Ticks_ISO_T2_5,14,5,42,127,532174180
1015,10,Ticks_ISO_T2_5,15,1,48,54,532615276
1015,10,Ticks_ISO_T2_5,16,5,42,127,532673804
1015,10,Ticks_ISO_T2_5,17,1,48,55,533151472
1015,10,Ticks_ISO_T2_5,18,5,42,127,533173720
1015,10,Ticks_ISO_T2_5,19,1,48,48,533652288
1015,10,Ticks_ISO_T2_5,20,5,42,127,533674460
1015,10,Ticks_ISO_T2_5,21,1,48,53,534138596
1015,10,Ticks_ISO_T2_5,22,5,42,127,534174008
1015,10,Ticks_ISO_T2_5,23,1,48,53,534620564
1015,10,Ticks_ISO_T2_5,24,5,42,127,534673700
1015,10,Ticks_ISO_T2_5,25,1,48,55,535145012
1015,10,Ticks_ISO_T2_5,26,5,42,127,535173696
1015,10,Ticks_ISO_T2_5,27,5,42,127,535674068
1015,10,Ticks_ISO_T2_5,28,1,48,53,535686084
1015,10,Ticks_ISO_T2_5,29,5,42,127,536173912
1015,10,Ticks_ISO_T2_5,30,1,48,47,536205680
1015,10,Ticks_ISO_T2_5,31,1,48,47,536657560
1015,10,Ticks_ISO_T2_5,32,5,42,127,536673676
1015,10,Ticks_ISO_T2_5,33,5,42,127,537174572
1015,10,Ticks_ISO_T2_5,34,1,48,51,537181360
1015,10,Ticks_ISO_T2_5,35,1,48,51,537667568
1015,10,Ticks_ISO_T2_5,36,5,42,127,537674112
1015,10,Ticks_ISO_T2_5,37,5,42,127,538173888
1015,10,Ticks_ISO_T2_5,38,1,48,47,538182316
1015,10,Ticks_ISO_T2_5,39,1,48,49,538657016
1015,10,Ticks_ISO_T2_5,40,5,42,127,538673948
1015,10,Ticks_ISO_T2_5,41,5,42,127,539174248
1015,10,Ticks_ISO_T2_5,42,1,48,34,539213200
1015,10,Ticks_ISO_T2_5,43,5,42,127,539673944
1015,10,Ticks_ISO_T2_5,44,1,48,51,539695464
1015,10,Ticks_ISO_T2_5,45,1,48,46,540123980
1015,10,Ticks_ISO_T2_5,46,5,42,127,540173632
1015,10,Ticks_ISO_T2_5,47,5,42,127,540674528
1015,10,Ticks_ISO_T2_5,48,1,48,48,540702036
1015,10,Ticks_ISO_T2_5,49,1,48,47,541159604
1015,10,Ticks_ISO_T2_5,50,5,42,127,541174216
1015,10,Ticks_ISO_T2_5,51,1,48,47,541665176
1015,10,Ticks_ISO_T2_5,52,5,42,127,541673764
1015,10,Ticks_ISO_T2_5,53,5,42,127,542173740
1015,10,Ticks_ISO_T2_5,54,1,48,46,542197156
1015,10,Ticks_ISO_T2_5,55,1,48,51,542654624
1015,10,Ticks_ISO_T2_5,56,5,42,127,542674252
1015,10,Ticks_ISO_T2_5,57,1,48,58,543157612
1015,10,Ticks_ISO_T2_5,58,5,42,127,543174020
1015,10,Ticks_ISO_T2_5,59,1,48,51,543632620
1015,10,Ticks_ISO_T2_5,60,5,42,127,543673640
1015,10,Ticks_ISO_T2_5,61,1,48,55,544157072
1015,10,Ticks_ISO_T2_5,62,5,42,127,544173632
1015,10,Ticks_ISO_T2_5,63,1,48,43,544619364
1015,10,Ticks_ISO_T2_5,64,5,42,127,544674076
1015,10,Ticks_ISO_T2_5,65,5,42,127,545173852
1015,10,Ticks_ISO_T2_5,66,1,48,44,545233592
1015,10,Ticks_ISO_T2_5,67,5,42,127,545673548
1015,10,Ticks_ISO_T2_5,68,1,48,50,545676216
1015,10,Ticks_ISO_T2_5,69,5,42,127,546174512
1015,10,Ticks_ISO_T2_5,70,1,48,54,546219520
1015,10,Ticks_ISO_T2_5,71,1,48,47,546659512
1015,10,Ticks_ISO_T2_5,72,5,42,127,546673904
1015,10,Ticks_ISO_T2_5,73,1,48,46,547144768
1015,10,Ticks_ISO_T2_5,74,5,42,127,547173672
1015,10,Ticks_ISO_T2_5,75,1,48,42,547632568
1015,10,Ticks_ISO_T2_5,76,5,42,127,547673664
1015,10,Ticks_ISO_T2_5,77,1,48,43,548093000
1015,10,Ticks_ISO_T2_5,78,5,42,127,548174112
1015,10,Ticks_ISO_T2_5,79,5,42,127,548673960
1015,10,Ticks_ISO_T2_5,80,1,48,48,548678648
1015,10,Ticks_ISO_T2_5,81,5,42,127,549173732
1015,10,Ticks_ISO_T2_5,82,1,48,56,549201756
1015,10,Ticks_ISO_T2_5,83,5,42,127,549674324
1015,10,Ticks_ISO_T2_5,84,1,48,53,549712224
1015,10,Ticks_ISO_T2_5,85,5,42,127,550174164
1015,10,Ticks_ISO_T2_5,86,1,48,44,550186260
1015,10,Ticks_ISO_T2_5,87,5,42,127,550673788
1015,10,Ticks_ISO_T2_5,88,1,48,52,550681768
1015,10,Ticks_ISO_T2_5,89,1,48,52,551158632
1015,10,Ticks_ISO_T2_5,90,5,42,127,551173400
1015,10,Ticks_ISO_T2_5,91,1,48,56,551647384
1015,10,Ticks_ISO_T2_5,92,5,42,127,551674364
1015,10,Ticks_ISO_T2_5,93,1,48,52,552157476
1015,10,Ticks_ISO_T2_5,94,5,42,127,552173912
1015,10,Ticks_ISO_T2_5,95,1,48,56,552623212
1015,10,Ticks_ISO_T2_5,96,5,42,127,552673580
1015,10,Ticks_ISO_T2_5,97,1,48,53,553161952
1015,10,Ticks_ISO_T2_5,98,5,42,127,553174548
1015,10,Ticks_ISO_T2_5,99,1,48,53,553628656
1015,10,Ticks_ISO_T2_5,100,5,42,127,553674020
1015,10,Ticks_ISO_T2_5,101,1,48,54,554107484
1015,10,Ticks_ISO_T2_5,102,5,42,127,554173864
1015,10,Ticks_ISO_T2_5,103,1,48,60,554652208
1015,10,Ticks_ISO_T2_5,104,5,42,127,554673484
1015,10,Ticks_ISO_T2_5,105,1,48,62,555166336
1015,10,Ticks_ISO_T2_5,106,5,42,127,555174300
1015,10,Ticks_ISO_T2_5,107,5,42,127,555673852
1015,10,Ticks_ISO_T2_5,108,1,48,59,555674820
1015,10,Ticks_ISO_T2_5,109,5,42,127,556173772
1015,10,Ticks_ISO_T2_5,110,1,48,59,556201056
1015,10,Ticks_ISO_T2_5,111,1,48,53,556650164
1015,10,Ticks_ISO_T2_5,112,5,42,127,556674432
1015,10,Ticks_ISO_T2_5,113,1,48,56,557154348
1015,10,Ticks_ISO_T2_5,114,5,42,127,557174052
1015,10,Ticks_ISO_T2_5,115,1,48,50,557630856
1015,10,Ticks_ISO_T2_5,116,5,42,127,557673824
1015,10,Ticks_ISO_T2_5,117,1,48,53,558141024
1015,10,Ticks_ISO_T2_5,118,5,42,127,558173444
1015,10,Ticks_ISO_T2_5,119,1,48,59,558626504
1015,10,Ticks_ISO_T2_5,120,5,42,127,558674484
1015,10,Ticks_ISO_T2_5,121,5,42,127,559173960
1015,10,Ticks_ISO_T2_5,122,1,48,57,559189276
1015,10,Ticks_ISO_T2_5,123,1,48,56,559636816
1015,10,Ticks_ISO_T2_5,124,5,42,127,559673724
1015,10,Ticks_ISO_T2_5,125,1,48,26,559706672
1015,10,Ticks_ISO_T2_5,126,5,42,127,560173552
1015,10,Ticks_ISO_T2_5,127,1,48,51,560187520
1015,10,Ticks_ISO_T2_5,128,1,48,47,560672252
1015,10,Ticks_ISO_T2_5,129,5,42,127,560674064
1015,10,Ticks_ISO_T2_5,130,1,48,45,561136924
1015,10,Ticks_ISO_T2_5,131,5,42,127,561173756
1015,10,Ticks_ISO_T2_5,132,1,48,50,561669604
1015,10,Ticks_ISO_T2_5,133,5,42,127,561673676
1015,10,Ticks_ISO_T2_5,134,5,42,127,562174496
1015,10,Ticks_ISO_T2_5,135,1,48,48,562182852
1015,10,Ticks_ISO_T2_5,136,1,48,40,562670116
1015,10,Ticks_ISO_T2_5,137,5,42,127,562673964
1015,10,Ticks_ISO_T2_5,138,5,42,127,563173664
1015,10,Ticks_ISO_T2_5,139,1,48,47,563183216
1015,10,Ticks_ISO_T2_5,140,1,48,46,563648460
1015,10,Ticks_ISO_T2_5,141,5,42,127,563673476
1015,10,Ticks_ISO_T2_5,142,1,48,56,564172564
1015,10,Ticks_ISO_T2_5,143,5,42,127,564174368
1015,10,Ticks_ISO_T2_5,144,1,48,51,564650768
1015,10,Ticks_ISO_T2_5,145,5,42,127,564673912
1015,10,Ticks_ISO_T2_5,146,5,42,127,565173468
1015,10,Ticks_ISO_T2_5,147,1,48,45,565177488
1015,10,Ticks_ISO_T2_5,148,5,42,127,565674580
1015,10,Ticks_ISO_T2_5,149,1,48,58,565676300
1015,10,Ticks_ISO_T2_5,150,1,48,51,566157032
1015,10,Ticks_ISO_T2_5,151,5,42,127,566174344
1015,10,Ticks_ISO_T2_5,152,1,48,57,566670644
1015,10,Ticks_ISO_T2_5,153,5,42,127,566673740
1015,10,Ticks_ISO_T2_5,154,1,48,58,567164952
1015,10,Ticks_ISO_T2_5,155,5,42,127,567173436
1015,10,Ticks_ISO_T2_5,156,1,48,49,567627768
1015,10,Ticks_ISO_T2_5,157,5,42,127,567674400
1015,10,Ticks_ISO_T2_5,158,5,42,127,568173880
1015,10,Ticks_ISO_T2_5,159,1,48,56,568228460
1015,10,Ticks_ISO_T2_5,160,5,42,127,568673576
1015,10,Ticks_ISO_T2_5,161,1,48,47,568676396
1015,10,Ticks_ISO_T2_5,162,1,48,51,569173636
1015,10,Ticks_ISO_T2_5,163,5,42,127,569175284
1015,10,Ticks_ISO_T2_5,164,1,48,52,569674680
1015,10,Ticks_ISO_T2_5,165,5,42,127,569675800
1015,10,Ticks_ISO_T2_5,166,1,48,53,570144492
1015,10,Ticks_ISO_T2_5,167,5,42,127,570173700
1015,10,Ticks_ISO_T2_5,168,1,48,48,570665504
1015,10,Ticks_ISO_T2_5,169,5,42,127,570673468
1015,10,Ticks_ISO_T2_5,170,1,48,48,571158248
1015,10,Ticks_ISO_T2_5,171,5,42,127,571174436
1015,10,Ticks_ISO_T2_5,172,1,48,51,571661608
1015,10,Ticks_ISO_T2_5,173,5,42,127,571673904
1015,10,Ticks_ISO_T2_5,174,1,48,52,572152324
1015,10,Ticks_ISO_T2_5,175,5,42,127,572173528
1015,10,Ticks_ISO_T2_5,176,5,42,127,572674352
1015,10,Ticks_ISO_T2_5,177,1,48,52,572681132
1015,10,Ticks_ISO_T2_5,178,1,48,51,573158000
1015,10,Ticks_ISO_T2_5,179,5,42,127,573174340
1015,10,Ticks_ISO_T2_5,180,1,48,49,573635452
1015,10,Ticks_ISO_T2_5,181,5,42,127,573673808
1015,10,Ticks_ISO_T2_5,182,5,42,127,574173484
1015,10,Ticks_ISO_T2_5,183,1,48,44,574182540
1015,10,Ticks_ISO_T2_5,184,1,48,50,574651072
1015,10,Ticks_ISO_T2_5,185,5,42,127,574674296
1015,10,Ticks_ISO_T2_5,186,5,42,127,575173920
1015,10,Ticks_ISO_T2_5,187,1,48,44,575174888
1015,10,Ticks_ISO_T2_5,188,5,42,127,575673912
1015,10,Ticks_ISO_T2_5,189,1,48,47,575674804
1015,10,Ticks_ISO_T2_5,190,1,48,47,576173008
1015,10,Ticks_ISO_T2_5,191,5,42,127,576174572
1015,10,Ticks_ISO_T2_5,192,1,48,53,576649256
1015,10,Ticks_ISO_T2_5,193,5,42,127,576674192
1015,10,Ticks_ISO_T2_5,194,1,48,53,577170336
1015,10,Ticks_ISO_T2_5,195,5,42,127,577174036
1015,10,Ticks_ISO_T2_5,196,1,48,47,577664648
1015,10,Ticks_ISO_T2_5,197,5,42,127,577673436
1015,10,Ticks_ISO_T2_5,198,1,48,56,578140708
1015,10,Ticks_ISO_T2_5,199,5,42,127,578174248
1015,10,Ticks_ISO_T2_5,200,1,48,54,578613624
1015,10,Ticks_ISO_T2_5,201,5,42,127,578674240
1015,10,Ticks_ISO_T2_5,202,1,48,45,579148996
1015,10,Ticks_ISO_T2_5,203,5,42,127,579173788
1015,10,Ticks_ISO_T2_5,204,1,48,48,579653028
1015,10,Ticks_ISO_T2_5,205,5,42,127,579673556
1015,10,Ticks_ISO_T2_5,206,5,42,127,580174156
1015,10,Ticks_ISO_T2_5,207,1,48,46,580175864
1015,10,Ticks_ISO_T2_5,208,1,48,44,580670068
1015,10,Ticks_ISO_T2_5,209,5,42,127,580673768
1015,10,Ticks_ISO_T2_5,210,1,48,54,581134388
1015,10,Ticks_ISO_T2_5,211,5,42,127,581173536
1015,10,Ticks_ISO_T2_5,212,5,42,127,581674212
1015,10,Ticks_ISO_T2_5,213,1,48,49,581695352
1015,10,Ticks_ISO_T2_5,214,1,48,46,582158832
1015,10,Ticks_ISO_T2_5,215,5,42,127,582174196
1015,10,Ticks_ISO_T2_5,216,1,48,51,582656656
1015,10,Ticks_ISO_T2_5,217,5,42,127,582673740
1015,10,Ticks_ISO_T2_5,218,5,42,127,583173520
1015,10,Ticks_ISO_T2_5,219,1,48,53,583182024
1015,10,Ticks_ISO_T2_5,220,1,48,56,583654396
1015,10,Ticks_ISO_T2_5,221,5,42,127,583674104
1015,10,Ticks_ISO_T2_5,222,1,48,44,584152944
1015,10,Ticks_ISO_T2_5,223,5,42,127,584174024
1015,10,Ticks_ISO_T2_5,224,1,48,48,584615764
1015,10,Ticks_ISO_T2_5,225,5,42,127,584673620
1015,10,Ticks_ISO_T2_5,226,5,42,127,585174368
1015,10,Ticks_ISO_T2_5,227,1,48,52,585203916
1015,10,Ticks_ISO_T2_5,228,1,48,50,585660260
1015,10,Ticks_ISO_T2_5,229,5,42,127,585674056
1015,10,Ticks_ISO_T2_5,230,1,48,60,586128692
1015,10,Ticks_ISO_T2_5,231,5,42,127,586173900
1015,10,Ticks_ISO_T2_5,232,1,48,60,586635936
1015,10,Ticks_ISO_T2_5,233,5,42,127,586673520
1015,10,Ticks_ISO_T2_5,234,1,48,59,587131148
1015,10,Ticks_ISO_T2_5,235,5,42,127,587174336
1015,10,Ticks_ISO_T2_5,236,1,48,36,587651408
1015,10,Ticks_ISO_T2_5,237,5,42,127,587674032
1015,10,Ticks_ISO_T2_5,238,1,48,47,588141008
1015,10,Ticks_ISO_T2_5,239,5,42,127,588173800
1015,10,Ticks_ISO_T2_5,240,1,48,34,588663440
1015,10,Ticks_ISO_T2_5,241,5,42,127,588674396
1015,10,Ticks_ISO_T2_5,242,1,48,19,589173120
1015,10,Ticks_ISO_T2_5,243,5,42,127,589174536
1015,10,Ticks_ISO_T2_5,244,1,48,65,589580628
1015,10,Ticks_ISO_T2_5,245,5,42,127,589674008
1015,10,Ticks_ISO_T2_5,246,1,48,45,590166936
1015,10,Ticks_ISO_T2_5,247,5,42,127,590173480
1015,10,Ticks_ISO_T2_5,248,1,48,53,590625120
1015,10,Ticks_ISO_T2_5,249,5,42,127,590674220
1015,10,Ticks_ISO_T2_5,250,1,48,39,591149872
1015,10,Ticks_ISO_T2_5,251,5,42,127,591174140
1015,10,Ticks_ISO_T2_5,252,1,48,45,591639992
1015,10,Ticks_ISO_T2_5,253,5,42,127,591673908
1015,10,Ticks_ISO_T2_5,254,1,48,46,592159432
1015,10,Ticks_ISO_T2_5,255,5,42,127,592173456
1015,10,Ticks_ISO_T2_5,256,1,48,50,592657636
1015,10,Ticks_ISO_T2_5,257,5,42,127,592674120
1015,10,Ticks_ISO_T2_5,258,1,48,47,593142740
1015,10,Ticks_ISO_T2_5,259,5,42,127,593173816
1015,10,Ticks_ISO_T2_5,260,1,48,43,593645276
1015,10,Ticks_ISO_T2_5,0,9999,9999,9999,528671796
1015,10,Ticks_ISO_T2_5,1,9999,9999,9999,529171516
1015,10,Ticks_ISO_T2_5,2,9999,9999,9999,529671284
1015,10,Ticks_ISO_T2_5,3,9999,9999,9999,530172020
1015,10,Ticks_ISO_T2_5,4,9999,9999,9999,530671712
1015,10,Ticks_ISO_T2_5,5,9999,9999,9999,531171444
1015,10,Ticks_ISO_T2_5,6,9999,9999,9999,531671152
1015,10,Ticks_ISO_T2_5,7,9999,9999,9999,532171896
1015,10,Ticks_ISO_T2_5,8,9999,9999,9999,532671592
1015,10,Ticks_ISO_T2_5,9,9999,9999,9999,533171284
1015,10,Ticks_ISO_T2_5,10,9999,9999,9999,533672028
1015,10,Ticks_ISO_T2_5,11,9999,9999,9999,534171720
1015,10,Ticks_ISO_T2_5,12,9999,9999,9999,534671416
1015,10,Ticks_ISO_T2_5,13,9999,9999,9999,535171184
1015,10,Ticks_ISO_T2_5,14,9999,9999,9999,535671856
1015,10,Ticks_ISO_T2_5,15,9999,9999,9999,536171628
1015,10,Ticks_ISO_T2_5,16,9999,9999,9999,536671316
1015,10,Ticks_ISO_T2_5,17,9999,9999,9999,537172064
1015,10,Ticks_ISO_T2_5,18,9999,9999,9999,537671752
1015,10,Ticks_ISO_T2_5,19,9999,9999,9999,538171452
1015,10,Ticks_ISO_T2_5,20,9999,9999,9999,538671216
1015,10,Ticks_ISO_T2_5,21,9999,9999,9999,539171888
1015,10,Ticks_ISO_T2_5,22,9999,9999,9999,539671660
1015,10,Ticks_ISO_T2_5,23,9999,9999,9999,540171348
1015,10,Ticks_ISO_T2_5,24,9999,9999,9999,540672092
1015,10,Ticks_ISO_T2_5,25,9999,9999,9999,541171784
1015,10,Ticks_ISO_T2_5,26,9999,9999,9999,541671480
1015,10,Ticks_ISO_T2_5,27,9999,9999,9999,542171228
1015,10,Ticks_ISO_T2_5,28,9999,9999,9999,542671964
1015,10,Ticks_ISO_T2_5,29,9999,9999,9999,543171660
1015,10,Ticks_ISO_T2_5,30,9999,9999,9999,543671356
1015,10,Ticks_ISO_T2_5,31,9999,9999,9999,544171124
1015,10,Ticks_ISO_T2_5,32,9999,9999,9999,544671864
1015,10,Ticks_ISO_T2_5,33,9999,9999,9999,545171568
1015,10,Ticks_ISO_T2_5,34,9999,9999,9999,545671260
1015,10,Ticks_ISO_T2_5,35,9999,9999,9999,546172000
1015,10,Ticks_ISO_T2_5,36,9999,9999,9999,546671692
1015,10,Ticks_ISO_T2_5,37,9999,9999,9999,547171388
1015,10,Ticks_ISO_T2_5,38,9999,9999,9999,547671156
1015,10,Ticks_ISO_T2_5,39,9999,9999,9999,548171824
1015,10,Ticks_ISO_T2_5,40,9999,9999,9999,548671600
1015,10,Ticks_ISO_T2_5,41,9999,9999,9999,549171296
1015,10,Ticks_ISO_T2_5,42,9999,9999,9999,549672036
1015,10,Ticks_ISO_T2_5,43,9999,9999,9999,550171732
1015,10,Ticks_ISO_T2_5,44,9999,9999,9999,550671424
1015,10,Ticks_ISO_T2_5,45,9999,9999,9999,551171188
1015,10,Ticks_ISO_T2_5,46,9999,9999,9999,551671928
1015,10,Ticks_ISO_T2_5,47,9999,9999,9999,552171628
1015,10,Ticks_ISO_T2_5,48,9999,9999,9999,552671296
1015,10,Ticks_ISO_T2_5,49,9999,9999,9999,553172040
1015,10,Ticks_ISO_T2_5,50,9999,9999,9999,553671736
1015,10,Ticks_ISO_T2_5,51,9999,9999,9999,554171504
1015,10,Ticks_ISO_T2_5,52,9999,9999,9999,554671200
1015,10,Ticks_ISO_T2_5,53,9999,9999,9999,555171940
1015,10,Ticks_ISO_T2_5,54,9999,9999,9999,555671640
1015,10,Ticks_ISO_T2_5,55,9999,9999,9999,556171336
1015,10,Ticks_ISO_T2_5,56,9999,9999,9999,556672072
1015,10,Ticks_ISO_T2_5,57,9999,9999,9999,557171768
1015,10,Ticks_ISO_T2_5,58,9999,9999,9999,557671536
1015,10,Ticks_ISO_T2_5,59,9999,9999,9999,558171232
1015,10,Ticks_ISO_T2_5,60,9999,9999,9999,558671972
1015,10,Ticks_ISO_T2_5,61,9999,9999,9999,559171676
1015,10,Ticks_ISO_T2_5,62,9999,9999,9999,559671364
1015,10,Ticks_ISO_T2_5,63,9999,9999,9999,560171116
1015,10,Ticks_ISO_T2_5,64,9999,9999,9999,560671800
1015,10,Ticks_ISO_T2_5,65,9999,9999,9999,561171544
1015,10,Ticks_ISO_T2_5,66,9999,9999,9999,561671240
1015,10,Ticks_ISO_T2_5,67,9999,9999,9999,562171988
1015,10,Ticks_ISO_T2_5,68,9999,9999,9999,562671676
1015,10,Ticks_ISO_T2_5,69,9999,9999,9999,563171380
1015,10,Ticks_ISO_T2_5,70,9999,9999,9999,563671116
1015,10,Ticks_ISO_T2_5,71,9999,9999,9999,564171872
1015,10,Ticks_ISO_T2_5,72,9999,9999,9999,564671552
1015,10,Ticks_ISO_T2_5,73,9999,9999,9999,565171256
1015,10,Ticks_ISO_T2_5,74,9999,9999,9999,565671996
1015,10,Ticks_ISO_T2_5,75,9999,9999,9999,566171760
1015,10,Ticks_ISO_T2_5,76,9999,9999,9999,566671456
1015,10,Ticks_ISO_T2_5,77,9999,9999,9999,567171152
1015,10,Ticks_ISO_T2_5,78,9999,9999,9999,567671892
1015,10,Ticks_ISO_T2_5,79,9999,9999,9999,568171592
1015,10,Ticks_ISO_T2_5,80,9999,9999,9999,568671288
1015,10,Ticks_ISO_T2_5,81,9999,9999,9999,569172028
1015,10,Ticks_ISO_T2_5,82,9999,9999,9999,569671800
1015,10,Ticks_ISO_T2_5,83,9999,9999,9999,570171488
1015,10,Ticks_ISO_T2_5,84,9999,9999,9999,570671184
1015,10,Ticks_ISO_T2_5,85,9999,9999,9999,571171924
1015,10,Ticks_ISO_T2_5,86,9999,9999,9999,571671620
1015,10,Ticks_ISO_T2_5,87,9999,9999,9999,572171316
1015,10,Ticks_ISO_T2_5,88,9999,9999,9999,572672064
1015,10,Ticks_ISO_T2_5,89,9999,9999,9999,573171828
1015,10,Ticks_ISO_T2_5,90,9999,9999,9999,573671524
1015,10,Ticks_ISO_T2_5,91,9999,9999,9999,574171200
1015,10,Ticks_ISO_T2_5,92,9999,9999,9999,574671932
1015,10,Ticks_ISO_T2_5,93,9999,9999,9999,575171636
1015,10,Ticks_ISO_T2_5,94,9999,9999,9999,575671404
1015,10,Ticks_ISO_T2_5,95,9999,9999,9999,576171100
1015,10,Ticks_ISO_T2_5,96,9999,9999,9999,576671832
1015,10,Ticks_ISO_T2_5,97,9999,9999,9999,577171528
1015,10,Ticks_ISO_T2_5,98,9999,9999,9999,577671224
1015,10,Ticks_ISO_T2_5,99,9999,9999,9999,578171964
1015,10,Ticks_ISO_T2_5,100,9999,9999,9999,578671732
1015,10,Ticks_ISO_T2_5,101,9999,9999,9999,579171428
1015,10,Ticks_ISO_T2_5,102,9999,9999,9999,579671120
1015,10,Ticks_ISO_T2_5,103,9999,9999,9999,580171868
1015,10,Ticks_ISO_T2_5,104,9999,9999,9999,580671556
1015,10,Ticks_ISO_T2_5,105,9999,9999,9999,581171252
1015,10,Ticks_ISO_T2_5,106,9999,9999,9999,581672000
1015,10,Ticks_ISO_T2_5,107,9999,9999,9999,582171760
1015,10,Ticks_ISO_T2_5,108,9999,9999,9999,582671456
1015,10,Ticks_ISO_T2_5,109,9999,9999,9999,583171156
1015,10,Ticks_ISO_T2_5,110,9999,9999,9999,583671892
1015,10,Ticks_ISO_T2_5,111,9999,9999,9999,584171588
1015,10,Ticks_ISO_T2_5,112,9999,9999,9999,584671332
1015,10,Ticks_ISO_T2_5,113,9999,9999,9999,585172080
1015,10,Ticks_ISO_T2_5,114,9999,9999,9999,585671768
1015,10,Ticks_ISO_T2_5,115,9999,9999,9999,586171464
1015,10,Ticks_ISO_T2_5,116,9999,9999,9999,586671160
1015,10,Ticks_ISO_T2_5,117,9999,9999,9999,587171900
1015,10,Ticks_ISO_T2_5,118,9999,9999,9999,587671668
1015,10,Ticks_ISO_T2_5,119,9999,9999,9999,588171364
1015,10,Ticks_ISO_T2_5,120,9999,9999,9999,588672108
1015,10,Ticks_ISO_T2_5,121,9999,9999,9999,589171808
1015,10,Ticks_ISO_T2_5,122,9999,9999,9999,589671500
1015,10,Ticks_ISO_T2_5,123,9999,9999,9999,590171192
1015,10,Ticks_ISO_T2_5,124,9999,9999,9999,590671936
1015,10,Ticks_ISO_T2_5,125,9999,9999,9999,591171704
1015,10,Ticks_ISO_T2_5,126,9999,9999,9999,591671400
1015,10,Ticks_ISO_T2_5,127,9999,9999,9999,592171092
1015,10,Ticks_ISO_T2_5,128,9999,9999,9999,592671832
1015,10,Ticks_ISO_T2_5,129,9999,9999,9999,593171528
1016,9,Ticks_ISO_T2_8,0,5,42,127,603645192
1016,9,Ticks_ISO_T2_8,1,1,48,51,604113352
1016,9,Ticks_ISO_T2_8,2,5,42,127,604445148
1016,9,Ticks_ISO_T2_8,3,1,48,49,604830136
1016,9,Ticks_ISO_T2_8,4,5,42,127,605244880
1016,9,Ticks_ISO_T2_8,5,1,48,47,605560828
1016,9,Ticks_ISO_T2_8,6,5,42,127,606044392
1016,9,Ticks_ISO_T2_8,7,1,48,41,606346652
1016,9,Ticks_ISO_T2_8,8,5,42,127,606845320
1016,9,Ticks_ISO_T2_8,9,1,48,51,607163136
1016,9,Ticks_ISO_T2_8,10,5,42,127,607645052
1016,9,Ticks_ISO_T2_8,11,1,48,48,607884784
1016,9,Ticks_ISO_T2_8,12,5,42,127,608445008
1016,9,Ticks_ISO_T2_8,13,1,48,53,608559232
1016,9,Ticks_ISO_T2_8,14,5,42,127,609244596
1016,9,Ticks_ISO_T2_8,15,1,48,41,609266212
1016,9,Ticks_ISO_T2_8,16,1,48,54,609983928
1016,9,Ticks_ISO_T2_8,17,5,42,127,610045244
1016,9,Ticks_ISO_T2_8,18,1,48,55,610739828
1016,9,Ticks_ISO_T2_8,19,5,42,127,610844888
1016,9,Ticks_ISO_T2_8,20,1,48,29,611624332
1016,9,Ticks_ISO_T2_8,21,5,42,127,611645008
1016,9,Ticks_ISO_T2_8,22,1,48,62,612394968
1016,9,Ticks_ISO_T2_8,23,5,42,127,612444668
1016,9,Ticks_ISO_T2_8,24,1,48,62,613227244
1016,9,Ticks_ISO_T2_8,25,5,42,127,613245300
1016,9,Ticks_ISO_T2_8,26,1,48,61,614041112
1016,9,Ticks_ISO_T2_8,27,5,42,127,614045108
1016,9,Ticks_ISO_T2_8,28,1,48,55,614844324
1016,9,Ticks_ISO_T2_8,29,5,42,127,614845888
1016,9,Ticks_ISO_T2_8,30,5,42,127,615644432
1016,9,Ticks_ISO_T2_8,31,1,48,55,615663956
1016,9,Ticks_ISO_T2_8,32,5,42,127,616445236
1016,9,Ticks_ISO_T2_8,33,1,48,52,616458156
1016,9,Ticks_ISO_T2_8,34,5,42,127,617244896
1016,9,Ticks_ISO_T2_8,35,1,48,54,617265368
1016,9,Ticks_ISO_T2_8,36,5,42,127,618044704
1016,9,Ticks_ISO_T2_8,37,1,48,52,618066372
1016,9,Ticks_ISO_T2_8,38,1,48,52,618829736
1016,9,Ticks_ISO_T2_8,39,5,42,127,618844804
1016,9,Ticks_ISO_T2_8,40,1,48,56,619618028
1016,9,Ticks_ISO_T2_8,41,5,42,127,619645212
1016,9,Ticks_ISO_T2_8,42,1,48,51,620426812
1016,9,Ticks_ISO_T2_8,43,5,42,127,620444944
1016,9,Ticks_ISO_T2_8,44,1,48,56,621235816
1016,9,Ticks_ISO_T2_8,45,5,42,127,621244900
1016,9,Ticks_ISO_T2_8,46,1,48,50,621995532
1016,9,Ticks_ISO_T2_8,47,5,42,127,622044784
1016,9,Ticks_ISO_T2_8,48,1,48,54,622807536
1016,9,Ticks_ISO_T2_8,49,5,42,127,622845288
1016,9,Ticks_ISO_T2_8,50,1,48,52,623628232
1016,9,Ticks_ISO_T2_8,51,5,42,127,623645024
1016,9,Ticks_ISO_T2_8,52,1,48,55,624419892
1016,9,Ticks_ISO_T2_8,53,5,42,127,624444832
1016,9,Ticks_ISO_T2_8,54,1,48,48,625209228
1016,9,Ticks_ISO_T2_8,55,5,42,127,625244640
1016,9,Ticks_ISO_T2_8,56,1,48,57,626013596
1016,9,Ticks_ISO_T2_8,57,5,42,127,626045268
1016,9,Ticks_ISO_T2_8,58,1,48,54,626843496
1016,9,Ticks_ISO_T2_8,59,5,42,127,626845004
1016,9,Ticks_ISO_T2_8,60,5,42,127,627644744
1016,9,Ticks_ISO_T2_8,61,1,48,58,627679580
1016,9,Ticks_ISO_T2_8,62,5,42,127,628444552
1016,9,Ticks_ISO_T2_8,63,1,48,63,628507912
1016,9,Ticks_ISO_T2_8,64,5,42,127,629245280
1016,9,Ticks_ISO_T2_8,65,1,48,51,629295600
1016,9,Ticks_ISO_T2_8,66,5,42,127,630045016
1016,9,Ticks_ISO_T2_8,67,1,48,43,630085528
1016,9,Ticks_ISO_T2_8,68,1,48,55,630833192
1016,9,Ticks_ISO_T2_8,69,5,42,127,630844740
1016,9,Ticks_ISO_T2_8,70,5,42,127,631644556
1016,9,Ticks_ISO_T2_8,71,1,48,65,631674824
1016,9,Ticks_ISO_T2_8,72,1,48,56,632406552
1016,9,Ticks_ISO_T2_8,73,5,42,127,632445404
1016,9,Ticks_ISO_T2_8,74,1,48,41,633223112
1016,9,Ticks_ISO_T2_8,75,5,42,127,633244912
1016,9,Ticks_ISO_T2_8,76,1,48,52,634006240
1016,9,Ticks_ISO_T2_8,77,5,42,127,634044720
1016,9,Ticks_ISO_T2_8,78,1,48,57,634780992
1016,9,Ticks_ISO_T2_8,79,1,48,33,634841484
1016,9,Ticks_ISO_T2_8,80,5,42,127,634844728
1016,9,Ticks_ISO_T2_8,81,5,42,127,635645392
1016,9,Ticks_ISO_T2_8,82,1,48,60,635646656
1016,9,Ticks_ISO_T2_8,83,5,42,127,636444980
1016,9,Ticks_ISO_T2_8,84,1,48,50,636453484
1016,9,Ticks_ISO_T2_8,85,5,42,127,637244712
1016,9,Ticks_ISO_T2_8,86,1,48,52,637279548
1016,9,Ticks_ISO_T2_8,87,5,42,127,638044592
1016,9,Ticks_ISO_T2_8,88,1,48,63,638092068
1016,9,Ticks_ISO_T2_8,89,5,42,127,638845300
1016,9,Ticks_ISO_T2_8,90,1,48,59,638879608
1016,9,Ticks_ISO_T2_8,91,5,42,127,639644960
1016,9,Ticks_ISO_T2_8,92,1,48,54,639691460
1016,9,Ticks_ISO_T2_8,93,1,48,59,640437400
1016,9,Ticks_ISO_T2_8,94,5,42,127,640444760
1016,9,Ticks_ISO_T2_8,95,5,42,127,641244652
1016,9,Ticks_ISO_T2_8,96,1,48,49,641246592
1016,9,Ticks_ISO_T2_8,97,1,48,58,642040008
1016,9,Ticks_ISO_T2_8,98,5,42,127,642045420
1016,9,Ticks_ISO_T2_8,99,5,42,127,642845016
1016,9,Ticks_ISO_T2_8,100,1,48,53,642880820
1016,9,Ticks_ISO_T2_8,101,1,48,57,643626900
1016,9,Ticks_ISO_T2_8,102,5,42,127,643644740
1016,9,Ticks_ISO_T2_8,103,1,48,54,644430980
1016,9,Ticks_ISO_T2_8,104,5,42,127,644444696
1016,9,Ticks_ISO_T2_8,105,1,48,44,645230484
1016,9,Ticks_ISO_T2_8,106,5,42,127,645245480
1016,9,Ticks_ISO_T2_8,107,1,48,56,646042112
1016,9,Ticks_ISO_T2_8,108,5,42,127,646044988
1016,9,Ticks_ISO_T2_8,109,5,42,127,646844656
1016,9,Ticks_ISO_T2_8,110,1,48,58,646852036
1016,9,Ticks_ISO_T2_8,111,5,42,127,647644760
1016,9,Ticks_ISO_T2_8,112,1,48,55,647676924
1016,9,Ticks_ISO_T2_8,113,5,42,127,648445340
1016,9,Ticks_ISO_T2_8,114,1,48,62,648462148
1016,9,Ticks_ISO_T2_8,115,5,42,127,649245004
1016,9,Ticks_ISO_T2_8,116,1,48,64,649274600
1016,9,Ticks_ISO_T2_8,117,1,48,29,649353492
1016,9,Ticks_ISO_T2_8,118,5,42,127,650044640
1016,9,Ticks_ISO_T2_8,119,1,48,54,650058380
1016,9,Ticks_ISO_T2_8,120,5,42,127,650844448
1016,9,Ticks_ISO_T2_8,121,1,48,54,650867312
1016,9,Ticks_ISO_T2_8,122,5,42,127,651645376
1016,9,Ticks_ISO_T2_8,123,1,48,57,651719708
1016,9,Ticks_ISO_T2_8,124,1,48,59,652429064
1016,9,Ticks_ISO_T2_8,125,5,42,127,652444952
1016,9,Ticks_ISO_T2_8,126,1,48,60,653232240
1016,9,Ticks_ISO_T2_8,127,5,42,127,653244836
1016,9,Ticks_ISO_T2_8,128,1,48,36,653289928
1016,9,Ticks_ISO_T2_8,129,5,42,127,654044404
1016,9,Ticks_ISO_T2_8,130,1,48,58,654067224
1016,9,Ticks_ISO_T2_8,131,5,42,127,654845360
1016,9,Ticks_ISO_T2_8,132,1,48,53,654940484
1016,9,Ticks_ISO_T2_8,133,5,42,127,655645016
1016,9,Ticks_ISO_T2_8,134,1,48,54,655701468
1016,9,Ticks_ISO_T2_8,135,1,48,53,656444152
1016,9,Ticks_ISO_T2_8,136,5,42,127,656445568
1016,9,Ticks_ISO_T2_8,137,1,48,49,657239584
1016,9,Ticks_ISO_T2_8,138,5,42,127,657244404
1016,9,Ticks_ISO_T2_8,139,1,48,54,658019348
1016,9,Ticks_ISO_T2_8,140,5,42,127,658045480
1016,9,Ticks_ISO_T2_8,141,1,48,60,658840024
1016,9,Ticks_ISO_T2_8,142,5,42,127,658844916
1016,9,Ticks_ISO_T2_8,143,5,42,127,659644656
1016,9,Ticks_ISO_T2_8,144,1,48,49,659664080
1016,9,Ticks_ISO_T2_8,145,5,42,127,660444464
1016,9,Ticks_ISO_T2_8,146,1,48,52,660498920
1016,9,Ticks_ISO_T2_8,147,5,42,127,661245568
1016,9,Ticks_ISO_T2_8,148,1,48,54,661300072
1016,9,Ticks_ISO_T2_8,149,5,42,127,662045000
1016,9,Ticks_ISO_T2_8,150,1,48,52,662135408
1016,9,Ticks_ISO_T2_8,151,5,42,127,662844736
1016,9,Ticks_ISO_T2_8,152,1,48,31,662945388
1016,9,Ticks_ISO_T2_8,153,5,42,127,663644540
1016,9,Ticks_ISO_T2_8,154,1,48,49,663667632
1016,9,Ticks_ISO_T2_8,155,1,48,51,664438180
1016,9,Ticks_ISO_T2_8,156,5,42,127,664445464
1016,9,Ticks_ISO_T2_8,157,1,48,55,665228036
1016,9,Ticks_ISO_T2_8,158,5,42,127,665245348
1016,9,Ticks_ISO_T2_8,159,1,48,39,665272312
1016,9,Ticks_ISO_T2_8,160,5,42,127,666044692
1016,9,Ticks_ISO_T2_8,161,1,48,57,666060004
1016,9,Ticks_ISO_T2_8,162,1,48,32,666120220
1016,9,Ticks_ISO_T2_8,163,1,48,51,666842588
1016,9,Ticks_ISO_T2_8,164,5,42,127,666844472
1016,9,Ticks_ISO_T2_8,165,1,48,38,667601460
1016,9,Ticks_ISO_T2_8,166,5,42,127,667645276
1016,9,Ticks_ISO_T2_8,167,1,48,51,668401144
1016,9,Ticks_ISO_T2_8,168,5,42,127,668445008
1016,9,Ticks_ISO_T2_8,169,1,48,52,669194668
1016,9,Ticks_ISO_T2_8,170,5,42,127,669244668
1016,9,Ticks_ISO_T2_8,171,1,48,50,670033296
1016,9,Ticks_ISO_T2_8,172,5,42,127,670044624
1016,9,Ticks_ISO_T2_8,173,5,42,127,670845188
1016,9,Ticks_ISO_T2_8,174,1,48,49,670883684
1016,9,Ticks_ISO_T2_8,175,5,42,127,671645292
1016,9,Ticks_ISO_T2_8,176,1,48,51,671647664
1016,9,Ticks_ISO_T2_8,177,5,42,127,672444652
1016,9,Ticks_ISO_T2_8,178,1,48,48,672465648
1016,9,Ticks_ISO_T2_8,179,1,48,53,673237244
1016,9,Ticks_ISO_T2_8,180,5,42,127,673244456
1016,9,Ticks_ISO_T2_8,181,1,48,53,674024932
1016,9,Ticks_ISO_T2_8,182,5,42,127,674045160
1016,9,Ticks_ISO_T2_8,183,1,48,55,674800132
1016,9,Ticks_ISO_T2_8,184,5,42,127,674845116
1016,9,Ticks_ISO_T2_8,185,1,48,48,675635540
1016,9,Ticks_ISO_T2_8,186,5,42,127,675644776
1016,9,Ticks_ISO_T2_8,187,5,42,127,676444516
1016,9,Ticks_ISO_T2_8,188,1,48,52,676472168
1016,9,Ticks_ISO_T2_8,189,5,42,127,677245368
1016,9,Ticks_ISO_T2_8,190,1,48,56,677285440
1016,9,Ticks_ISO_T2_8,191,5,42,127,678045176
1016,9,Ticks_ISO_T2_8,192,1,48,58,678063780
1016,9,Ticks_ISO_T2_8,193,5,42,127,678844760
1016,9,Ticks_ISO_T2_8,194,1,48,57,678862392
1016,9,Ticks_ISO_T2_8,195,5,42,127,679644492
1016,9,Ticks_ISO_T2_8,196,1,48,54,679671268
1016,9,Ticks_ISO_T2_8,197,5,42,127,680445144
1016,9,Ticks_ISO_T2_8,198,1,48,52,680463148
1016,9,Ticks_ISO_T2_8,199,5,42,127,681245176
1016,9,Ticks_ISO_T2_8,200,1,48,51,681275896
1016,9,Ticks_ISO_T2_8,201,5,42,127,682044908
1016,9,Ticks_ISO_T2_8,202,1,48,52,682063732
1016,9,Ticks_ISO_T2_8,203,1,48,48,682821868
1016,9,Ticks_ISO_T2_8,204,5,42,127,682844636
1016,9,Ticks_ISO_T2_8,205,1,48,55,683591304
1016,9,Ticks_ISO_T2_8,206,5,42,127,683645340
1016,9,Ticks_ISO_T2_8,207,1,48,50,684410708
1016,9,Ticks_ISO_T2_8,208,5,42,127,684445224
1016,9,Ticks_ISO_T2_8,209,5,42,127,685244668
1016,9,Ticks_ISO_T2_8,210,1,48,57,685248760
1016,9,Ticks_ISO_T2_8,211,5,42,127,686044400
1016,9,Ticks_ISO_T2_8,212,1,48,52,686074992
1016,9,Ticks_ISO_T2_8,213,5,42,127,686845276
1016,9,Ticks_ISO_T2_8,214,1,48,53,686903820
1016,9,Ticks_ISO_T2_8,215,5,42,127,687645160
1016,9,Ticks_ISO_T2_8,216,1,48,50,687694956
1016,9,Ticks_ISO_T2_8,217,5,42,127,688444744
1016,9,Ticks_ISO_T2_8,218,1,48,48,688482572
1016,9,Ticks_ISO_T2_8,219,5,42,127,689244552
1016,9,Ticks_ISO_T2_8,220,1,48,46,689266296
1016,9,Ticks_ISO_T2_8,221,1,48,25,689326268
1016,9,Ticks_ISO_T2_8,222,5,42,127,690045236
1016,9,Ticks_ISO_T2_8,223,1,48,52,690116120
1016,9,Ticks_ISO_T2_8,224,5,42,127,690845192
1016,9,Ticks_ISO_T2_8,225,1,48,51,690904484
1016,9,Ticks_ISO_T2_8,226,5,42,127,691644848
1016,9,Ticks_ISO_T2_8,227,1,48,46,691665840
1016,9,Ticks_ISO_T2_8,228,1,48,50,692423448
1016,9,Ticks_ISO_T2_8,229,5,42,127,692444724
1016,9,Ticks_ISO_T2_8,230,1,48,52,693161324
1016,9,Ticks_ISO_T2_8,231,1,48,30,693218100
1016,9,Ticks_ISO_T2_8,232,5,42,127,693245208
1016,9,Ticks_ISO_T2_8,233,1,48,51,694023888
1016,9,Ticks_ISO_T2_8,234,5,42,127,694045164
1016,9,Ticks_ISO_T2_8,235,1,48,53,694791088
1016,9,Ticks_ISO_T2_8,236,5,42,127,694844900
1016,9,Ticks_ISO_T2_8,237,1,48,47,695584912
1016,9,Ticks_ISO_T2_8,238,5,42,127,695644412
1016,9,Ticks_ISO_T2_8,239,5,42,127,696445272
1016,9,Ticks_ISO_T2_8,240,1,48,44,696457964
1016,9,Ticks_ISO_T2_8,241,5,42,127,697245228
1016,9,Ticks_ISO_T2_8,242,1,48,42,697311504
1016,9,Ticks_ISO_T2_8,243,5,42,127,698044960
1016,9,Ticks_ISO_T2_8,244,1,48,47,698161724
1016,9,Ticks_ISO_T2_8,245,5,42,127,698844544
1016,9,Ticks_ISO_T2_8,246,1,48,46,698912388
1016,9,Ticks_ISO_T2_8,0,9999,9999,9999,603642976
1016,9,Ticks_ISO_T2_8,1,9999,9999,9999,604442712
1016,9,Ticks_ISO_T2_8,2,9999,9999,9999,605242444
1016,9,Ticks_ISO_T2_8,3,9999,9999,9999,606042176
1016,9,Ticks_ISO_T2_8,4,9999,9999,9999,606842956
1016,9,Ticks_ISO_T2_8,5,9999,9999,9999,607642688
1016,9,Ticks_ISO_T2_8,6,9999,9999,9999,608442424
1016,9,Ticks_ISO_T2_8,7,9999,9999,9999,609242156
1016,9,Ticks_ISO_T2_8,8,9999,9999,9999,610042956
1016,9,Ticks_ISO_T2_8,9,9999,9999,9999,610842676
1016,9,Ticks_ISO_T2_8,10,9999,9999,9999,611642424
1016,9,Ticks_ISO_T2_8,11,9999,9999,9999,612442232
1016,9,Ticks_ISO_T2_8,12,9999,9999,9999,613242940
1016,9,Ticks_ISO_T2_8,13,9999,9999,9999,614042672
1016,9,Ticks_ISO_T2_8,14,9999,9999,9999,614842488
1016,9,Ticks_ISO_T2_8,15,9999,9999,9999,615642220
1016,9,Ticks_ISO_T2_8,16,9999,9999,9999,616442948
1016,9,Ticks_ISO_T2_8,17,9999,9999,9999,617242684
1016,9,Ticks_ISO_T2_8,18,9999,9999,9999,618042416
1016,9,Ticks_ISO_T2_8,19,9999,9999,9999,618842220
1016,9,Ticks_ISO_T2_8,20,9999,9999,9999,619642996
1016,9,Ticks_ISO_T2_8,21,9999,9999,9999,620442732
1016,9,Ticks_ISO_T2_8,22,9999,9999,9999,621242464
1016,9,Ticks_ISO_T2_8,23,9999,9999,9999,622042196
1016,9,Ticks_ISO_T2_8,24,9999,9999,9999,622842928
1016,9,Ticks_ISO_T2_8,25,9999,9999,9999,623642736
1016,9,Ticks_ISO_T2_8,26,9999,9999,9999,624442468
1016,9,Ticks_ISO_T2_8,27,9999,9999,9999,625242204
1016,9,Ticks_ISO_T2_8,28,9999,9999,9999,626042980
1016,9,Ticks_ISO_T2_8,29,9999,9999,9999,626842720
1016,9,Ticks_ISO_T2_8,30,9999,9999,9999,627642456
1016,9,Ticks_ISO_T2_8,31,9999,9999,9999,628442188
1016,9,Ticks_ISO_T2_8,32,9999,9999,9999,629242992
1016,9,Ticks_ISO_T2_8,33,9999,9999,9999,630042728
1016,9,Ticks_ISO_T2_8,34,9999,9999,9999,630842456
1016,9,Ticks_ISO_T2_8,35,9999,9999,9999,631642192
1016,9,Ticks_ISO_T2_8,36,9999,9999,9999,632442968
1016,9,Ticks_ISO_T2_8,37,9999,9999,9999,633242700
1016,9,Ticks_ISO_T2_8,38,9999,9999,9999,634042432
1016,9,Ticks_ISO_T2_8,39,9999,9999,9999,634842220
1016,9,Ticks_ISO_T2_8,40,9999,9999,9999,635642956
1016,9,Ticks_ISO_T2_8,41,9999,9999,9999,636442692
1016,9,Ticks_ISO_T2_8,42,9999,9999,9999,637242424
1016,9,Ticks_ISO_T2_8,43,9999,9999,9999,638042232
1016,9,Ticks_ISO_T2_8,44,9999,9999,9999,638842940
1016,9,Ticks_ISO_T2_8,45,9999,9999,9999,639642668
1016,9,Ticks_ISO_T2_8,46,9999,9999,9999,640442472
1016,9,Ticks_ISO_T2_8,47,9999,9999,9999,641242212
1016,9,Ticks_ISO_T2_8,48,9999,9999,9999,642042984
1016,9,Ticks_ISO_T2_8,49,9999,9999,9999,642842724
1016,9,Ticks_ISO_T2_8,50,9999,9999,9999,643642452
1016,9,Ticks_ISO_T2_8,51,9999,9999,9999,644442188
1016,9,Ticks_ISO_T2_8,52,9999,9999,9999,645242968
1016,9,Ticks_ISO_T2_8,53,9999,9999,9999,646042700
1016,9,Ticks_ISO_T2_8,54,9999,9999,9999,646842440
1016,9,Ticks_ISO_T2_8,55,9999,9999,9999,647642172
1016,9,Ticks_ISO_T2_8,56,9999,9999,9999,648442980
1016,9,Ticks_ISO_T2_8,57,9999,9999,9999,649242712
1016,9,Ticks_ISO_T2_8,58,9999,9999,9999,650042424
1016,9,Ticks_ISO_T2_8,59,9999,9999,9999,650842160
1016,9,Ticks_ISO_T2_8,60,9999,9999,9999,651642940
1016,9,Ticks_ISO_T2_8,61,9999,9999,9999,652442740
1016,9,Ticks_ISO_T2_8,62,9999,9999,9999,653242472
1016,9,Ticks_ISO_T2_8,63,9999,9999,9999,654042192
1016,9,Ticks_ISO_T2_8,64,9999,9999,9999,654842996
1016,9,Ticks_ISO_T2_8,65,9999,9999,9999,655642728
1016,9,Ticks_ISO_T2_8,66,9999,9999,9999,656442464
1016,9,Ticks_ISO_T2_8,67,9999,9999,9999,657242192
1016,9,Ticks_ISO_T2_8,68,9999,9999,9999,658042968
1016,9,Ticks_ISO_T2_8,69,9999,9999,9999,658842704
1016,9,Ticks_ISO_T2_8,70,9999,9999,9999,659642440
1016,9,Ticks_ISO_T2_8,71,9999,9999,9999,660442176
1016,9,Ticks_ISO_T2_8,72,9999,9999,9999,661242980
1016,9,Ticks_ISO_T2_8,73,9999,9999,9999,662042712
1016,9,Ticks_ISO_T2_8,74,9999,9999,9999,662842448
1016,9,Ticks_ISO_T2_8,75,9999,9999,9999,663642180
1016,9,Ticks_ISO_T2_8,76,9999,9999,9999,664442952
1016,9,Ticks_ISO_T2_8,77,9999,9999,9999,665242688
1016,9,Ticks_ISO_T2_8,78,9999,9999,9999,666042480
1016,9,Ticks_ISO_T2_8,79,9999,9999,9999,666842216
1016,9,Ticks_ISO_T2_8,80,9999,9999,9999,667642988
1016,9,Ticks_ISO_T2_8,81,9999,9999,9999,668442720
1016,9,Ticks_ISO_T2_8,82,9999,9999,9999,669242456
1016,9,Ticks_ISO_T2_8,83,9999,9999,9999,670042188
1016,9,Ticks_ISO_T2_8,84,9999,9999,9999,670842976
1016,9,Ticks_ISO_T2_8,85,9999,9999,9999,671642708
1016,9,Ticks_ISO_T2_8,86,9999,9999,9999,672442440
1016,9,Ticks_ISO_T2_8,87,9999,9999,9999,673242168
1016,9,Ticks_ISO_T2_8,88,9999,9999,9999,674042948
1016,9,Ticks_ISO_T2_8,89,9999,9999,9999,674842680
1016,9,Ticks_ISO_T2_8,90,9999,9999,9999,675642488
1016,9,Ticks_ISO_T2_8,91,9999,9999,9999,676442228
1016,9,Ticks_ISO_T2_8,92,9999,9999,9999,677242932
1016,9,Ticks_ISO_T2_8,93,9999,9999,9999,678042740
1016,9,Ticks_ISO_T2_8,94,9999,9999,9999,678842472
1016,9,Ticks_ISO_T2_8,95,9999,9999,9999,679642204
1016,9,Ticks_ISO_T2_8,96,9999,9999,9999,680442932
1016,9,Ticks_ISO_T2_8,97,9999,9999,9999,681242740
1016,9,Ticks_ISO_T2_8,98,9999,9999,9999,682042472
1016,9,Ticks_ISO_T2_8,99,9999,9999,9999,682842200
1016,9,Ticks_ISO_T2_8,100,9999,9999,9999,683642980
1016,9,Ticks_ISO_T2_8,101,9999,9999,9999,684442712
1016,9,Ticks_ISO_T2_8,102,9999,9999,9999,685242452
1016,9,Ticks_ISO_T2_8,103,9999,9999,9999,686042184
1016,9,Ticks_ISO_T2_8,104,9999,9999,9999,686842988
1016,9,Ticks_ISO_T2_8,105,9999,9999,9999,687642724
1016,9,Ticks_ISO_T2_8,106,9999,9999,9999,688442456
1016,9,Ticks_ISO_T2_8,107,9999,9999,9999,689242192
1016,9,Ticks_ISO_T2_8,108,9999,9999,9999,690042948
1016,9,Ticks_ISO_T2_8,109,9999,9999,9999,690842680
1016,9,Ticks_ISO_T2_8,110,9999,9999,9999,691642488
1016,9,Ticks_ISO_T2_8,111,9999,9999,9999,692442212
1016,9,Ticks_ISO_T2_8,112,9999,9999,9999,693242996
1016,9,Ticks_ISO_T2_8,113,9999,9999,9999,694042728
1016,9,Ticks_ISO_T2_8,114,9999,9999,9999,694842464
1016,9,Ticks_ISO_T2_8,115,9999,9999,9999,695642196
1016,9,Ticks_ISO_T2_8,116,9999,9999,9999,696442984
1016,9,Ticks_ISO_T2_8,117,9999,9999,9999,697242716
1016,9,Ticks_ISO_T2_8,118,9999,9999,9999,698042448
1016,9,Ticks_ISO_T2_8,119,9999,9999,9999,698842184
1017,21,Ticks_Linear_5,0,5,42,127,709301592
1017,21,Ticks_Linear_5,1,5,42,127,709781992
1017,21,Ticks_Linear_5,2,1,48,36,709911176
1017,21,Ticks_Linear_5,3,1,48,38,710217764
1017,21,Ticks_Linear_5,4,5,42,127,710262064
1017,21,Ticks_Linear_5,5,1,48,39,710655008
1017,21,Ticks_Linear_5,6,5,42,127,710742368
1017,21,Ticks_Linear_5,7,1,48,43,711107124
1017,21,Ticks_Linear_5,8,5,42,127,711221832
1017,21,Ticks_Linear_5,9,1,48,40,711632884
1017,21,Ticks_Linear_5,10,5,42,127,711712112
1017,21,Ticks_Linear_5,11,1,48,41,712117828
1017,21,Ticks_Linear_5,12,5,42,127,712201552
1017,21,Ticks_Linear_5,13,1,48,42,712585480
1017,21,Ticks_Linear_5,14,5,42,127,712691948
1017,21,Ticks_Linear_5,15,1,48,43,713132660
1017,21,Ticks_Linear_5,16,5,42,127,713181552
1017,21,Ticks_Linear_5,17,5,42,127,713672024
1017,21,Ticks_Linear_5,18,1,48,32,713683676
1017,21,Ticks_Linear_5,19,1,48,43,714133256
1017,21,Ticks_Linear_5,20,5,42,127,714171864
1017,21,Ticks_Linear_5,21,1,48,45,714628680
1017,21,Ticks_Linear_5,22,5,42,127,714671416
1017,21,Ticks_Linear_5,23,1,48,46,715136400
1017,21,Ticks_Linear_5,24,5,42,127,715172088
1017,21,Ticks_Linear_5,25,1,48,50,715645904
1017,21,Ticks_Linear_5,26,5,42,127,715672012
1017,21,Ticks_Linear_5,27,1,48,46,716122324
1017,21,Ticks_Linear_5,28,5,42,127,716171788
1017,21,Ticks_Linear_5,29,1,48,45,716662684
1017,21,Ticks_Linear_5,30,5,42,127,716681748
1017,21,Ticks_Linear_5,31,1,48,47,717169640
1017,21,Ticks_Linear_5,32,5,42,127,717191412
1017,21,Ticks_Linear_5,33,1,48,45,717700852
1017,21,Ticks_Linear_5,34,5,42,127,717702420
1017,21,Ticks_Linear_5,35,1,48,47,718177884
1017,21,Ticks_Linear_5,36,5,42,127,718211332
1017,21,Ticks_Linear_5,37,1,48,46,718699148
1017,21,Ticks_Linear_5,38,5,42,127,718722412
1017,21,Ticks_Linear_5,39,1,48,49,719207912
1017,21,Ticks_Linear_5,40,5,42,127,719252064
1017,21,Ticks_Linear_5,41,1,48,46,719739884
1017,21,Ticks_Linear_5,42,5,42,127,719772060
1017,21,Ticks_Linear_5,43,1,48,37,720280712
1017,21,Ticks_Linear_5,44,5,42,127,720292204
1017,21,Ticks_Linear_5,45,1,48,47,720789232
1017,21,Ticks_Linear_5,46,5,42,127,720812496
1017,21,Ticks_Linear_5,47,5,42,127,721331748
1017,21,Ticks_Linear_5,48,1,48,47,721341836
1017,21,Ticks_Linear_5,49,5,42,127,721861928
1017,21,Ticks_Linear_5,50,1,48,46,721863940
1017,21,Ticks_Linear_5,51,5,42,127,722392328
1017,21,Ticks_Linear_5,52,1,48,46,722398016
1017,21,Ticks_Linear_5,53,1,48,48,722932120
1017,21,Ticks_Linear_5,54,5,42,127,722933456
1017,21,Ticks_Linear_5,55,5,42,127,723461696
1017,21,Ticks_Linear_5,56,1,48,46,723483536
1017,21,Ticks_Linear_5,57,5,42,127,723991876
1017,21,Ticks_Linear_5,58,1,48,46,723999112
1017,21,Ticks_Linear_5,59,1,48,48,724526276
1017,21,Ticks_Linear_5,60,5,42,127,724531784
1017,21,Ticks_Linear_5,61,5,42,127,725072156
1017,21,Ticks_Linear_5,62,1,48,47,725074168
1017,21,Ticks_Linear_5,63,5,42,127,725611844
1017,21,Ticks_Linear_5,64,1,48,52,725628660
1017,21,Ticks_Linear_5,65,1,48,49,726132840
1017,21,Ticks_Linear_5,66,5,42,127,726151748
1017,21,Ticks_Linear_5,67,5,42,127,726692196
1017,21,Ticks_Linear_5,68,1,48,46,726696804
1017,21,Ticks_Linear_5,69,1,48,47,727222176
1017,21,Ticks_Linear_5,70,5,42,127,727242136
1017,21,Ticks_Linear_5,71,1,48,47,727780240
1017,21,Ticks_Linear_5,72,5,42,127,727791960
1017,21,Ticks_Linear_5,73,1,48,40,728335948
1017,21,Ticks_Linear_5,74,5,42,127,728341760
1017,21,Ticks_Linear_5,75,1,48,46,728857740
1017,21,Ticks_Linear_5,76,5,42,127,728891708
1017,21,Ticks_Linear_5,77,1,48,46,729426928
1017,21,Ticks_Linear_5,78,5,42,127,729441660
1017,21,Ticks_Linear_5,79,1,48,42,729978904
1017,21,Ticks_Linear_5,80,5,42,127,730001640
1017,21,Ticks_Linear_5,81,1,48,45,730497028
1017,21,Ticks_Linear_5,82,5,42,127,730561848
1017,21,Ticks_Linear_5,83,1,48,49,731073040
1017,21,Ticks_Linear_5,84,5,42,127,731121932
1017,21,Ticks_Linear_5,85,1,48,46,731629908
1017,21,Ticks_Linear_5,86,5,42,127,731682068
1017,21,Ticks_Linear_5,87,1,48,49,732198344
1017,21,Ticks_Linear_5,88,5,42,127,732242792
1017,21,Ticks_Linear_5,89,1,48,49,732786940
1017,21,Ticks_Linear_5,90,5,42,127,732811620
1017,21,Ticks_Linear_5,91,1,48,53,733358228
1017,21,Ticks_Linear_5,92,5,42,127,733382088
1017,21,Ticks_Linear_5,93,5,42,127,733952360
1017,21,Ticks_Linear_5,94,1,48,56,733978916
1017,21,Ticks_Linear_5,95,5,42,127,734521856
1017,21,Ticks_Linear_5,96,1,48,53,734536808
1017,21,Ticks_Linear_5,97,1,48,51,735055724
1017,21,Ticks_Linear_5,98,5,42,127,735092020
1017,21,Ticks_Linear_5,99,1,48,46,735567708
1017,21,Ticks_Linear_5,100,5,42,127,735671536
1017,21,Ticks_Linear_5,101,1,48,47,736216736
1017,21,Ticks_Linear_5,102,5,42,127,736252376
1017,21,Ticks_Linear_5,103,1,48,47,736796584
1017,21,Ticks_Linear_5,104,5,42,127,736831756
1017,21,Ticks_Linear_5,105,1,48,43,737370140
1017,21,Ticks_Linear_5,106,5,42,127,737411660
1017,21,Ticks_Linear_5,107,1,48,48,737941576
1017,21,Ticks_Linear_5,108,5,42,127,737992012
1017,21,Ticks_Linear_5,109,1,48,58,738558636
1017,21,Ticks_Linear_5,110,5,42,127,738581900
1017,21,Ticks_Linear_5,111,1,48,54,739123424
1017,21,Ticks_Linear_5,112,5,42,127,739171692
1017,21,Ticks_Linear_5,113,1,48,54,739728560
1017,21,Ticks_Linear_5,114,5,42,127,739761552
1017,21,Ticks_Linear_5,115,1,48,47,740294984
1017,21,Ticks_Linear_5,116,5,42,127,740352488
1017,21,Ticks_Linear_5,117,1,48,50,740903148
1017,21,Ticks_Linear_5,118,5,42,127,740942128
1017,21,Ticks_Linear_5,119,5,42,127,741542480
1017,21,Ticks_Linear_5,120,1,48,52,741550848
1017,21,Ticks_Linear_5,121,1,48,53,742121020
1017,21,Ticks_Linear_5,122,5,42,127,742142620
1017,21,Ticks_Linear_5,123,1,48,48,742735068
1017,21,Ticks_Linear_5,124,5,42,127,742742520
1017,21,Ticks_Linear_5,125,1,48,50,743339260
1017,21,Ticks_Linear_5,126,5,42,127,743341448
1017,21,Ticks_Linear_5,127,5,42,127,743941456
1017,21,Ticks_Linear_5,128,1,48,49,743943468
1017,21,Ticks_Linear_5,129,1,48,55,744516664
1017,21,Ticks_Linear_5,130,5,42,127,744551832
1017,21,Ticks_Linear_5,131,5,42,127,745162068
1017,21,Ticks_Linear_5,132,1,48,49,745169004
1017,21,Ticks_Linear_5,133,1,48,48,745694096
1017,21,Ticks_Linear_5,134,1,48,30,745746044
1017,21,Ticks_Linear_5,135,5,42,127,745772744
1017,21,Ticks_Linear_5,136,5,42,127,746381716
1017,21,Ticks_Linear_5,137,1,48,51,746397040
1017,21,Ticks_Linear_5,138,5,42,127,746992048
1017,21,Ticks_Linear_5,139,1,48,37,747046464
1017,21,Ticks_Linear_5,140,1,48,41,747595488
1017,21,Ticks_Linear_5,141,5,42,127,747611636
1017,21,Ticks_Linear_5,142,1,48,46,748190832
1017,21,Ticks_Linear_5,143,5,42,127,748231980
1017,21,Ticks_Linear_5,144,1,48,55,748811048
1017,21,Ticks_Linear_5,145,5,42,127,748851452
1017,21,Ticks_Linear_5,146,1,48,49,749424124
1017,21,Ticks_Linear_5,147,5,42,127,749472168
1017,21,Ticks_Linear_5,148,1,48,53,750072952
1017,21,Ticks_Linear_5,149,5,42,127,750091564
1017,21,Ticks_Linear_5,150,1,48,47,750708264
1017,21,Ticks_Linear_5,151,5,42,127,750722388
1017,21,Ticks_Linear_5,152,5,42,127,751362532
1017,21,Ticks_Linear_5,153,1,48,44,751378376
1017,21,Ticks_Linear_5,154,5,42,127,752002344
1017,21,Ticks_Linear_5,155,1,48,55,752014824
1017,21,Ticks_Linear_5,156,1,48,51,752630680
1017,21,Ticks_Linear_5,157,5,42,127,752642552
1017,21,Ticks_Linear_5,158,1,48,53,753246308
1017,21,Ticks_Linear_5,159,5,42,127,753282592
1017,21,Ticks_Linear_5,160,1,48,29,753312580
1017,21,Ticks_Linear_5,161,5,42,127,753922412
1017,21,Ticks_Linear_5,162,1,48,51,753967540
1017,21,Ticks_Linear_5,163,5,42,127,754562524
1017,21,Ticks_Linear_5,164,1,48,39,754601000
1017,21,Ticks_Linear_5,165,1,48,48,755170192
1017,21,Ticks_Linear_5,166,5,42,127,755202656
1017,21,Ticks_Linear_5,167,5,42,127,755842628
1017,21,Ticks_Linear_5,168,1,48,49,755877420
1017,21,Ticks_Linear_5,169,1,48,40,756456956
1017,21,Ticks_Linear_5,170,5,42,127,756482384
1017,21,Ticks_Linear_5,171,1,48,47,757038428
1017,21,Ticks_Linear_5,172,5,42,127,757141876
1017,21,Ticks_Linear_5,173,1,48,54,757729576
1017,21,Ticks_Linear_5,174,1,48,32,757783020
1017,21,Ticks_Linear_5,175,5,42,127,757792564
1017,21,Ticks_Linear_5,176,5,42,127,758442348
1017,21,Ticks_Linear_5,177,1,48,44,758443760
1017,21,Ticks_Linear_5,178,5,42,127,759091548
1017,21,Ticks_Linear_5,179,1,48,40,759159440
1017,21,Ticks_Linear_5,180,1,48,49,759690732
1017,21,Ticks_Linear_5,181,1,48,35,759733916
1017,21,Ticks_Linear_5,182,5,42,127,759741824
1017,21,Ticks_Linear_5,183,5,42,127,760402632
1017,21,Ticks_Linear_5,184,1,48,48,760450916
1017,21,Ticks_Linear_5,185,5,42,127,761061720
1017,21,Ticks_Linear_5,186,5,42,127,761722520
1017,21,Ticks_Linear_5,187,1,48,40,761995408
1017,21,Ticks_Linear_5,188,5,42,127,762381608
1017,21,Ticks_Linear_5,189,1,48,44,762566176
1017,21,Ticks_Linear_5,190,5,42,127,763042388
1017,21,Ticks_Linear_5,191,1,48,29,763228104
1017,21,Ticks_Linear_5,192,5,42,127,763711736
1017,21,Ticks_Linear_5,193,1,48,37,763838192
1017,21,Ticks_Linear_5,194,5,42,127,764381680
1017,21,Ticks_Linear_5,195,1,48,29,764482904
1017,21,Ticks_Linear_5,196,1,48,45,765017772
1017,21,Ticks_Linear_5,197,5,42,127,765052488
1017,21,Ticks_Linear_5,198,1,48,46,765637816
1017,21,Ticks_Linear_5,199,5,42,127,765721836
1017,21,Ticks_Linear_5,200,1,48,26,765723760
1017,21,Ticks_Linear_5,201,1,48,51,766353872
1017,21,Ticks_Linear_5,202,5,42,127,766391584
1017,21,Ticks_Linear_5,203,1,48,49,767015500
1017,21,Ticks_Linear_5,204,5,42,127,767071488
1017,21,Ticks_Linear_5,205,1,48,47,767670452
1017,21,Ticks_Linear_5,206,5,42,127,767751688
1017,21,Ticks_Linear_5,207,1,48,41,768428376
1017,21,Ticks_Linear_5,208,5,42,127,768431420
1017,21,Ticks_Linear_5,209,5,42,127,769112376
1017,21,Ticks_Linear_5,210,1,48,33,769123280
1017,21,Ticks_Linear_5,211,1,48,38,769769160
1017,21,Ticks_Linear_5,212,5,42,127,769801636
1017,21,Ticks_Linear_5,213,1,48,46,770408004
1017,21,Ticks_Linear_5,214,5,42,127,770491624
1017,21,Ticks_Linear_5,215,5,42,127,771181944
1017,21,Ticks_Linear_5,216,1,48,45,771195096
1017,21,Ticks_Linear_5,217,1,48,51,771871956
1017,21,Ticks_Linear_5,218,5,42,127,771873444
1017,21,Ticks_Linear_5,219,1,48,47,772529996
1017,21,Ticks_Linear_5,220,5,42,127,772562460
1017,21,Ticks_Linear_5,221,1,48,49,773202264
1017,21,Ticks_Linear_5,222,5,42,127,773251356
1017,21,Ticks_Linear_5,223,1,48,47,773856024
1017,21,Ticks_Linear_5,224,5,42,127,773952072
1017,21,Ticks_Linear_5,225,1,48,51,774642348
1017,21,Ticks_Linear_5,226,5,42,127,774652196
1017,21,Ticks_Linear_5,227,5,42,127,775351556
1017,21,Ticks_Linear_5,228,1,48,54,775361044
1017,21,Ticks_Linear_5,229,5,42,127,776052272
1017,21,Ticks_Linear_5,230,1,48,53,776099272
1017,21,Ticks_Linear_5,231,5,42,127,776751576
1017,21,Ticks_Linear_5,232,1,48,24,777011216
1017,21,Ticks_Linear_5,233,5,42,127,777462108
1017,21,Ticks_Linear_5,234,1,48,53,777608180
1017,21,Ticks_Linear_5,235,5,42,127,778171716
1017,21,Ticks_Linear_5,236,1,48,45,778343132
1017,21,Ticks_Linear_5,237,5,42,127,778882396
1017,21,Ticks_Linear_5,238,1,48,50,778997120
1017,21,Ticks_Linear_5,239,5,42,127,779602288
1017,21,Ticks_Linear_5,240,1,48,39,779637752
1017,21,Ticks_Linear_5,241,1,48,35,780290092
1017,21,Ticks_Linear_5,242,5,42,127,780312140
1017,21,Ticks_Linear_5,243,1,48,48,780956928
1017,21,Ticks_Linear_5,244,5,42,127,781031660
1017,21,Ticks_Linear_5,245,1,48,44,781666636
1017,21,Ticks_Linear_5,246,5,42,127,781751604
1017,21,Ticks_Linear_5,247,1,48,52,782431248
1017,21,Ticks_Linear_5,248,5,42,127,782471496
1017,21,Ticks_Linear_5,249,1,48,50,783178536
1017,21,Ticks_Linear_5,250,5,42,127,783192364
1017,21,Ticks_Linear_5,251,1,48,47,783886604
1017,21,Ticks_Linear_5,252,5,42,127,783921620
1017,21,Ticks_Linear_5,253,1,48,40,784560276
1017,21,Ticks_Linear_5,254,5,42,127,784651548
1017,21,Ticks_Linear_5,255,5,42,127,785381632
1017,21,Ticks_Linear_5,256,1,48,54,785389012
1017,21,Ticks_Linear_5,257,5,42,127,786111836
1017,21,Ticks_Linear_5,258,1,48,52,786166952
1017,21,Ticks_Linear_5,259,5,42,127,786842060
1017,21,Ticks_Linear_5,260,1,48,53,786859864
1017,21,Ticks_Linear_5,261,1,48,55,787552696
1017,21,Ticks_Linear_5,262,5,42,127,787572208
1017,21,Ticks_Linear_5,263,1,48,53,788250352
1017,21,Ticks_Linear_5,264,5,42,127,788312320
1017,21,Ticks_Linear_5,265,1,48,44,789000048
1017,21,Ticks_Linear_5,266,5,42,127,789062092
1017,21,Ticks_Linear_5,267,1,48,50,789696468
1017,21,Ticks_Linear_5,268,5,42,127,789802344
1017,21,Ticks_Linear_5,269,1,48,49,790537932
1017,21,Ticks_Linear_5,270,5,42,127,790541648
1017,21,Ticks_Linear_5,271,5,42,127,791282140
1017,21,Ticks_Linear_5,272,1,48,46,791311852
1017,21,Ticks_Linear_5,273,5,42,127,792031540
1017,21,Ticks_Linear_5,274,1,48,41,792041556
1017,21,Ticks_Linear_5,275,1,48,39,792775100
1017,21,Ticks_Linear_5,276,5,42,127,792782332
1017,21,Ticks_Linear_5,277,1,48,40,793476944
1017,21,Ticks_Linear_5,278,5,42,127,793531804
1017,21,Ticks_Linear_5,279,1,48,44,794249032
1017,21,Ticks_Linear_5,280,5,42,127,794282328
1017,21,Ticks_Linear_5,281,1,48,43,795004800
1017,21,Ticks_Linear_5,282,5,42,127,795032176
1017,21,Ticks_Linear_5,283,1,48,41,795749408
1017,21,Ticks_Linear_5,284,5,42,127,795791840
1017,21,Ticks_Linear_5,285,1,48,43,796472972
1017,21,Ticks_Linear_5,286,5,42,127,796551496
1017,21,Ticks_Linear_5,287,5,42,127,797312284
1017,21,Ticks_Linear_5,288,1,48,44,797338168
1017,21,Ticks_Linear_5,289,5,42,127,798072092
1017,21,Ticks_Linear_5,290,1,48,46,798113256
1017,21,Ticks_Linear_5,291,5,42,127,798832124
1017,21,Ticks_Linear_5,292,1,48,49,798846772
1017,21,Ticks_Linear_5,293,1,48,49,799582824
1017,21,Ticks_Linear_5,294,5,42,127,799602332
1017,21,Ticks_Linear_5,295,1,48,49,800353568
1017,21,Ticks_Linear_5,296,5,42,127,800372028
1017,21,Ticks_Linear_5,297,1,48,48,801120940
1017,21,Ticks_Linear_5,298,5,42,127,801142020
1017,21,Ticks_Linear_5,299,1,48,47,801823304
1017,21,Ticks_Linear_5,300,5,42,127,801912312
1017,21,Ticks_Linear_5,301,1,48,47,802675148
1017,21,Ticks_Linear_5,302,5,42,127,802682232
1017,21,Ticks_Linear_5,303,1,48,32,802728020
1017,21,Ticks_Linear_5,304,5,42,127,803461420
1017,21,Ticks_Linear_5,305,1,48,49,803488272
1017,21,Ticks_Linear_5,306,1,48,42,804238096
1017,21,Ticks_Linear_5,307,5,42,127,804241812
1017,21,Ticks_Linear_5,308,1,48,43,805007868
1017,21,Ticks_Linear_5,309,5,42,127,805022140
1017,21,Ticks_Linear_5,310,1,48,37,805766404
1017,21,Ticks_Linear_5,311,5,42,127,805802316
1017,21,Ticks_Linear_5,312,1,48,45,806548824
1017,21,Ticks_Linear_5,313,5,42,127,806581672
1017,21,Ticks_Linear_5,314,1,48,44,807343012
1017,21,Ticks_Linear_5,315,5,42,127,807372184
1017,21,Ticks_Linear_5,316,1,48,48,808138988
1017,21,Ticks_Linear_5,317,5,42,127,808161600
1017,21,Ticks_Linear_5,318,1,48,46,808859704
1017,21,Ticks_Linear_5,319,5,42,127,808952112
1017,21,Ticks_Linear_5,320,5,42,127,809741956
1017,21,Ticks_Linear_5,321,1,48,53,809832396
1017,21,Ticks_Linear_5,322,1,48,34,810434964
1017,21,Ticks_Linear_5,323,5,42,127,810532220
1017,21,Ticks_Linear_5,324,5,42,127,811332040
1017,21,Ticks_Linear_5,325,1,48,36,811355824
1017,21,Ticks_Linear_5,326,5,42,127,812131912
1017,21,Ticks_Linear_5,327,1,48,39,812156152
1017,21,Ticks_Linear_5,328,1,48,38,812916384
1017,21,Ticks_Linear_5,329,5,42,127,812931556
1017,21,Ticks_Linear_5,330,1,48,40,813697236
1017,21,Ticks_Linear_5,331,5,42,127,813732104
1017,21,Ticks_Linear_5,332,1,48,43,814473144
1017,21,Ticks_Linear_5,333,5,42,127,814531900
1017,21,Ticks_Linear_5,334,1,48,38,815250636
1017,21,Ticks_Linear_5,335,5,42,127,815341832
1017,21,Ticks_Linear_5,336,5,42,127,816151820
1017,21,Ticks_Linear_5,337,1,48,39,816191940
1017,21,Ticks_Linear_5,338,5,42,127,816961880
1017,21,Ticks_Linear_5,339,1,48,40,817052544
1017,21,Ticks_Linear_5,340,5,42,127,817771788
1017,21,Ticks_Linear_5,341,1,48,39,817797520
1017,21,Ticks_Linear_5,342,5,42,127,818581772
1017,21,Ticks_Linear_5,0,9999,9999,9999,709299296
1017,21,Ticks_Linear_5,1,9999,9999,9999,709779544
1017,21,Ticks_Linear_5,2,9999,9999,9999,710259768
1017,21,Ticks_Linear_5,3,9999,9999,9999,710740068
1017,21,Ticks_Linear_5,4,9999,9999,9999,711219312
1017,21,Ticks_Linear_5,5,9999,9999,9999,711709812
1017,21,Ticks_Linear_5,6,9999,9999,9999,712199252
1017,21,Ticks_Linear_5,7,9999,9999,9999,712689724
1017,21,Ticks_Linear_5,8,9999,9999,9999,713179228
1017,21,Ticks_Linear_5,9,9999,9999,9999,713669724
1017,21,Ticks_Linear_5,10,9999,9999,9999,714169416
1017,21,Ticks_Linear_5,11,9999,9999,9999,714669116
1017,21,Ticks_Linear_5,12,9999,9999,9999,715169864
1017,21,Ticks_Linear_5,13,9999,9999,9999,715669564
1017,21,Ticks_Linear_5,14,9999,9999,9999,716169340
1017,21,Ticks_Linear_5,15,9999,9999,9999,716679228
1017,21,Ticks_Linear_5,16,9999,9999,9999,717189188
1017,21,Ticks_Linear_5,17,9999,9999,9999,717699152
1017,21,Ticks_Linear_5,18,9999,9999,9999,718209108
1017,21,Ticks_Linear_5,19,9999,9999,9999,718720112
1017,21,Ticks_Linear_5,20,9999,9999,9999,719249472
1017,21,Ticks_Linear_5,21,9999,9999,9999,719769688
1017,21,Ticks_Linear_5,22,9999,9999,9999,720289904
1017,21,Ticks_Linear_5,23,9999,9999,9999,720810048
1017,21,Ticks_Linear_5,24,9999,9999,9999,721329228
1017,21,Ticks_Linear_5,25,9999,9999,9999,721859704
1017,21,Ticks_Linear_5,26,9999,9999,9999,722390104
1017,21,Ticks_Linear_5,27,9999,9999,9999,722929744
1017,21,Ticks_Linear_5,28,9999,9999,9999,723459176
1017,21,Ticks_Linear_5,29,9999,9999,9999,723989576
1017,21,Ticks_Linear_5,30,9999,9999,9999,724529264
1017,21,Ticks_Linear_5,31,9999,9999,9999,725069932
1017,21,Ticks_Linear_5,32,9999,9999,9999,725609544
1017,21,Ticks_Linear_5,33,9999,9999,9999,726149228
1017,21,Ticks_Linear_5,34,9999,9999,9999,726689896
1017,21,Ticks_Linear_5,35,9999,9999,9999,727239764
1017,21,Ticks_Linear_5,36,9999,9999,9999,727789664
1017,21,Ticks_Linear_5,37,9999,9999,9999,728339536
1017,21,Ticks_Linear_5,38,9999,9999,9999,728889412
1017,21,Ticks_Linear_5,39,9999,9999,9999,729439284
1017,21,Ticks_Linear_5,40,9999,9999,9999,729999416
1017,21,Ticks_Linear_5,41,9999,9999,9999,730559552
1017,21,Ticks_Linear_5,42,9999,9999,9999,731119708
1017,21,Ticks_Linear_5,43,9999,9999,9999,731679844
1017,21,Ticks_Linear_5,44,9999,9999,9999,732239976
1017,21,Ticks_Linear_5,45,9999,9999,9999,732809320
1017,21,Ticks_Linear_5,46,9999,9999,9999,733379640
1017,21,Ticks_Linear_5,47,9999,9999,9999,733950060
1017,21,Ticks_Linear_5,48,9999,9999,9999,734519408
1017,21,Ticks_Linear_5,49,9999,9999,9999,735089720
1017,21,Ticks_Linear_5,50,9999,9999,9999,735669312
1017,21,Ticks_Linear_5,51,9999,9999,9999,736249928
1017,21,Ticks_Linear_5,52,9999,9999,9999,736829532
1017,21,Ticks_Linear_5,53,9999,9999,9999,737409140
1017,21,Ticks_Linear_5,54,9999,9999,9999,737989712
1017,21,Ticks_Linear_5,55,9999,9999,9999,738579528
1017,21,Ticks_Linear_5,56,9999,9999,9999,739169392
1017,21,Ticks_Linear_5,57,9999,9999,9999,739759180
1017,21,Ticks_Linear_5,58,9999,9999,9999,740350040
1017,21,Ticks_Linear_5,59,9999,9999,9999,740939904
1017,21,Ticks_Linear_5,60,9999,9999,9999,741539960
1017,21,Ticks_Linear_5,61,9999,9999,9999,742140024
1017,21,Ticks_Linear_5,62,9999,9999,9999,742740076
1017,21,Ticks_Linear_5,63,9999,9999,9999,743339116
1017,21,Ticks_Linear_5,64,9999,9999,9999,743939156
1017,21,Ticks_Linear_5,65,9999,9999,9999,744549456
1017,21,Ticks_Linear_5,66,9999,9999,9999,745159772
1017,21,Ticks_Linear_5,67,9999,9999,9999,745770076
1017,21,Ticks_Linear_5,68,9999,9999,9999,746379344
1017,21,Ticks_Linear_5,69,9999,9999,9999,746989676
1017,21,Ticks_Linear_5,70,9999,9999,9999,747609188
1017,21,Ticks_Linear_5,71,9999,9999,9999,748229756
1017,21,Ticks_Linear_5,72,9999,9999,9999,748849228
1017,21,Ticks_Linear_5,73,9999,9999,9999,749469792
1017,21,Ticks_Linear_5,74,9999,9999,9999,750089336
1017,21,Ticks_Linear_5,75,9999,9999,9999,750720088
1017,21,Ticks_Linear_5,76,9999,9999,9999,751360084
1017,21,Ticks_Linear_5,77,9999,9999,9999,752000120
1017,21,Ticks_Linear_5,78,9999,9999,9999,752640104
1017,21,Ticks_Linear_5,79,9999,9999,9999,753280068
1017,21,Ticks_Linear_5,80,9999,9999,9999,753920116
1017,21,Ticks_Linear_5,81,9999,9999,9999,754560076
1017,21,Ticks_Linear_5,82,9999,9999,9999,755200060
1017,21,Ticks_Linear_5,83,9999,9999,9999,755840104
1017,21,Ticks_Linear_5,84,9999,9999,9999,756480088
1017,21,Ticks_Linear_5,85,9999,9999,9999,757139580
1017,21,Ticks_Linear_5,86,9999,9999,9999,757789820
1017,21,Ticks_Linear_5,87,9999,9999,9999,758440048
1017,21,Ticks_Linear_5,88,9999,9999,9999,759089252
1017,21,Ticks_Linear_5,89,9999,9999,9999,759739448
1017,21,Ticks_Linear_5,90,9999,9999,9999,760399960
1017,21,Ticks_Linear_5,91,9999,9999,9999,761059420
1017,21,Ticks_Linear_5,92,9999,9999,9999,761719924
1017,21,Ticks_Linear_5,93,9999,9999,9999,762379384
1017,21,Ticks_Linear_5,94,9999,9999,9999,763039868
1017,21,Ticks_Linear_5,95,9999,9999,9999,763709512
1017,21,Ticks_Linear_5,96,9999,9999,9999,764379232
1017,21,Ticks_Linear_5,97,9999,9999,9999,765049968
1017,21,Ticks_Linear_5,98,9999,9999,9999,765719612
1017,21,Ticks_Linear_5,99,9999,9999,9999,766389360
1017,21,Ticks_Linear_5,100,9999,9999,9999,767069264
1017,21,Ticks_Linear_5,101,9999,9999,9999,767749244
1017,21,Ticks_Linear_5,102,9999,9999,9999,768429120
1017,21,Ticks_Linear_5,103,9999,9999,9999,769110076
1017,21,Ticks_Linear_5,104,9999,9999,9999,769799264
1017,21,Ticks_Linear_5,105,9999,9999,9999,770489400
1017,21,Ticks_Linear_5,106,9999,9999,9999,771179644
1017,21,Ticks_Linear_5,107,9999,9999,9999,771869808
1017,21,Ticks_Linear_5,108,9999,9999,9999,772559940
1017,21,Ticks_Linear_5,109,9999,9999,9999,773249132
1017,21,Ticks_Linear_5,110,9999,9999,9999,773949552
1017,21,Ticks_Linear_5,111,9999,9999,9999,774649972
1017,21,Ticks_Linear_5,112,9999,9999,9999,775349332
1017,21,Ticks_Linear_5,113,9999,9999,9999,776049752
1017,21,Ticks_Linear_5,114,9999,9999,9999,776749128
1017,21,Ticks_Linear_5,115,9999,9999,9999,777459808
1017,21,Ticks_Linear_5,116,9999,9999,9999,778169416
1017,21,Ticks_Linear_5,117,9999,9999,9999,778880096
1017,21,Ticks_Linear_5,118,9999,9999,9999,779599988
1017,21,Ticks_Linear_5,119,9999,9999,9999,780309616
1017,21,Ticks_Linear_5,120,9999,9999,9999,781029436
1017,21,Ticks_Linear_5,121,9999,9999,9999,781749304
1017,21,Ticks_Linear_5,122,9999,9999,9999,782469196
1017,21,Ticks_Linear_5,123,9999,9999,9999,783190140
1017,21,Ticks_Linear_5,124,9999,9999,9999,783919172
1017,21,Ticks_Linear_5,125,9999,9999,9999,784649324
1017,21,Ticks_Linear_5,126,9999,9999,9999,785379408
1017,21,Ticks_Linear_5,127,9999,9999,9999,786109536
1017,21,Ticks_Linear_5,128,9999,9999,9999,786839612
1017,21,Ticks_Linear_5,129,9999,9999,9999,787569760
1017,21,Ticks_Linear_5,130,9999,9999,9999,788310096
1017,21,Ticks_Linear_5,131,9999,9999,9999,789059648
1017,21,Ticks_Linear_5,132,9999,9999,9999,789800044
1017,21,Ticks_Linear_5,133,9999,9999,9999,790539348
1017,21,Ticks_Linear_5,134,9999,9999,9999,791279692
1017,21,Ticks_Linear_5,135,9999,9999,9999,792029244
1017,21,Ticks_Linear_5,136,9999,9999,9999,792779884
1017,21,Ticks_Linear_5,137,9999,9999,9999,793529432
1017,21,Ticks_Linear_5,138,9999,9999,9999,794280032
1017,21,Ticks_Linear_5,139,9999,9999,9999,795029580
1017,21,Ticks_Linear_5,140,9999,9999,9999,795789392
1017,21,Ticks_Linear_5,141,9999,9999,9999,796549200
1017,21,Ticks_Linear_5,142,9999,9999,9999,797310060
1017,21,Ticks_Linear_5,143,9999,9999,9999,798069868
1017,21,Ticks_Linear_5,144,9999,9999,9999,798829676
1017,21,Ticks_Linear_5,145,9999,9999,9999,799599736
1017,21,Ticks_Linear_5,146,9999,9999,9999,800369732
1017,21,Ticks_Linear_5,147,9999,9999,9999,801139796
1017,21,Ticks_Linear_5,148,9999,9999,9999,801909864
1017,21,Ticks_Linear_5,149,9999,9999,9999,802679932
1017,21,Ticks_Linear_5,150,9999,9999,9999,803459196
1017,21,Ticks_Linear_5,151,9999,9999,9999,804239440
1017,21,Ticks_Linear_5,152,9999,9999,9999,805019768
1017,21,Ticks_Linear_5,153,9999,9999,9999,805800020
1017,21,Ticks_Linear_5,154,9999,9999,9999,806579300
1017,21,Ticks_Linear_5,155,9999,9999,9999,807369812
1017,21,Ticks_Linear_5,156,9999,9999,9999,808159300
1017,21,Ticks_Linear_5,157,9999,9999,9999,808949888
1017,21,Ticks_Linear_5,158,9999,9999,9999,809739360
1017,21,Ticks_Linear_5,159,9999,9999,9999,810529848
1017,21,Ticks_Linear_5,160,9999,9999,9999,811329596
1017,21,Ticks_Linear_5,161,9999,9999,9999,812129392
1017,21,Ticks_Linear_5,162,9999,9999,9999,812929108
1017,21,Ticks_Linear_5,163,9999,9999,9999,813729880
1017,21,Ticks_Linear_5,164,9999,9999,9999,814529600
1017,21,Ticks_Linear_5,165,9999,9999,9999,815339608
1017,21,Ticks_Linear_5,166,9999,9999,9999,816149596
1017,21,Ticks_Linear_5,167,9999,9999,9999,816959584
1017,21,Ticks_Linear_5,168,9999,9999,9999,817769564
1017,21,Ticks_Linear_5,169,9999,9999,9999,818579548
1018,20,Ticks_Linear_8,0,5,42,127,828373360
1018,20,Ticks_Linear_8,1,1,48,32,829015196
1018,20,Ticks_Linear_8,2,5,42,127,829192656
1018,20,Ticks_Linear_8,3,1,48,37,829872288
1018,20,Ticks_Linear_8,4,5,42,127,830012820
1018,20,Ticks_Linear_8,5,1,48,37,830803312
1018,20,Ticks_Linear_8,6,5,42,127,830833004
1018,20,Ticks_Linear_8,7,1,48,36,831582444
1018,20,Ticks_Linear_8,8,5,42,127,831653472
1018,20,Ticks_Linear_8,9,1,48,40,832438324
1018,20,Ticks_Linear_8,10,5,42,127,832463084
1018,20,Ticks_Linear_8,11,1,48,43,833256872
1018,20,Ticks_Linear_8,12,5,42,127,833273240
1018,20,Ticks_Linear_8,13,1,48,42,834057864
1018,20,Ticks_Linear_8,14,5,42,127,834083148
1018,20,Ticks_Linear_8,15,1,48,40,834837220
1018,20,Ticks_Linear_8,16,5,42,127,834893208
1018,20,Ticks_Linear_8,17,1,48,41,835649224
1018,20,Ticks_Linear_8,18,5,42,127,835703192
1018,20,Ticks_Linear_8,19,1,48,42,836440352
1018,20,Ticks_Linear_8,20,5,42,127,836502840
1018,20,Ticks_Linear_8,21,1,48,36,837288888
1018,20,Ticks_Linear_8,22,5,42,127,837302792
1018,20,Ticks_Linear_8,23,5,42,127,838103592
1018,20,Ticks_Linear_8,24,1,48,29,838116148
1018,20,Ticks_Linear_8,25,1,48,40,838903168
1018,20,Ticks_Linear_8,26,5,42,127,838904580
1018,20,Ticks_Linear_8,27,1,48,48,839688908
1018,20,Ticks_Linear_8,28,5,42,127,839702812
1018,20,Ticks_Linear_8,29,5,42,127,840493404
1018,20,Ticks_Linear_8,30,1,48,48,840502144
1018,20,Ticks_Linear_8,31,1,48,47,841268736
1018,20,Ticks_Linear_8,32,5,42,127,841293268
1018,20,Ticks_Linear_8,33,1,48,49,842066884
1018,20,Ticks_Linear_8,34,5,42,127,842082732
1018,20,Ticks_Linear_8,35,1,48,43,842829916
1018,20,Ticks_Linear_8,36,5,42,127,842873096
1018,20,Ticks_Linear_8,37,1,48,40,843588448
1018,20,Ticks_Linear_8,38,5,42,127,843662784
1018,20,Ticks_Linear_8,39,1,48,49,844418580
1018,20,Ticks_Linear_8,40,5,42,127,844442964
1018,20,Ticks_Linear_8,41,5,42,127,845223520
1018,20,Ticks_Linear_8,42,1,48,54,845226712
1018,20,Ticks_Linear_8,43,5,42,127,846002648
1018,20,Ticks_Linear_8,44,1,48,59,846031164
1018,20,Ticks_Linear_8,45,5,42,127,846782904
1018,20,Ticks_Linear_8,46,1,48,54,846824168
1018,20,Ticks_Linear_8,47,5,42,127,847563156
1018,20,Ticks_Linear_8,48,1,48,48,847648376
1018,20,Ticks_Linear_8,49,5,42,127,848333448
1018,20,Ticks_Linear_8,50,1,48,43,848439108
1018,20,Ticks_Linear_8,51,5,42,127,849103220
1018,20,Ticks_Linear_8,52,1,48,41,849143888
1018,20,Ticks_Linear_8,53,1,48,41,849872760
1018,20,Ticks_Linear_8,54,5,42,127,849874476
1018,20,Ticks_Linear_8,55,1,48,38,850633648
1018,20,Ticks_Linear_8,56,5,42,127,850643276
1018,20,Ticks_Linear_8,57,5,42,127,851413648
1018,20,Ticks_Linear_8,58,1,48,45,851440304
1018,20,Ticks_Linear_8,59,1,48,43,852146452
1018,20,Ticks_Linear_8,60,5,42,127,852173228
1018,20,Ticks_Linear_8,61,1,48,36,852901772
1018,20,Ticks_Linear_8,62,5,42,127,852932888
1018,20,Ticks_Linear_8,63,1,48,41,853680976
1018,20,Ticks_Linear_8,64,5,42,127,853692700
1018,20,Ticks_Linear_8,65,5,42,127,854452664
1018,20,Ticks_Linear_8,66,1,48,43,854455780
1018,20,Ticks_Linear_8,67,5,42,127,855213520
1018,20,Ticks_Linear_8,68,1,48,44,855244644
1018,20,Ticks_Linear_8,69,5,42,127,855973176
1018,20,Ticks_Linear_8,70,1,48,41,855975768
1018,20,Ticks_Linear_8,71,5,42,127,856722800
1018,20,Ticks_Linear_8,72,1,48,44,856769496
1018,20,Ticks_Linear_8,73,1,48,43,857424224
1018,20,Ticks_Linear_8,74,5,42,127,857473612
1018,20,Ticks_Linear_8,75,1,48,40,858208592
1018,20,Ticks_Linear_8,76,5,42,127,858223016
1018,20,Ticks_Linear_8,77,5,42,127,858972572
1018,20,Ticks_Linear_8,78,1,48,40,859013960
1018,20,Ticks_Linear_8,79,5,42,127,859712836
1018,20,Ticks_Linear_8,80,1,48,44,859771080
1018,20,Ticks_Linear_8,81,5,42,127,860453320
1018,20,Ticks_Linear_8,82,1,48,42,860454508
1018,20,Ticks_Linear_8,83,5,42,127,861192536
1018,20,Ticks_Linear_8,84,1,48,27,861203368
1018,20,Ticks_Linear_8,85,1,48,42,861926536
1018,20,Ticks_Linear_8,86,5,42,127,861932792
1018,20,Ticks_Linear_8,87,1,48,41,862613228
1018,20,Ticks_Linear_8,88,5,42,127,862673552
1018,20,Ticks_Linear_8,89,5,42,127,863403340
1018,20,Ticks_Linear_8,90,1,48,43,863444876
1018,20,Ticks_Linear_8,91,5,42,127,864132372
1018,20,Ticks_Linear_8,92,1,48,43,864171964
1018,20,Ticks_Linear_8,93,1,48,44,864825780
1018,20,Ticks_Linear_8,94,5,42,127,864862516
1018,20,Ticks_Linear_8,95,1,48,39,865508300
1018,20,Ticks_Linear_8,96,5,42,127,865592596
1018,20,Ticks_Linear_8,97,5,42,127,866322684
1018,20,Ticks_Linear_8,98,1,48,36,866365412
1018,20,Ticks_Linear_8,99,5,42,127,867042652
1018,20,Ticks_Linear_8,100,1,48,31,867074084
1018,20,Ticks_Linear_8,101,5,42,127,867762448
1018,20,Ticks_Linear_8,102,1,48,38,867794396
1018,20,Ticks_Linear_8,103,1,48,29,868459220
1018,20,Ticks_Linear_8,104,5,42,127,868482556
1018,20,Ticks_Linear_8,105,1,48,31,869158000
1018,20,Ticks_Linear_8,106,5,42,127,869203420
1018,20,Ticks_Linear_8,107,1,48,35,869866280
1018,20,Ticks_Linear_8,108,5,42,127,869923240
1018,20,Ticks_Linear_8,109,1,48,38,870592072
1018,20,Ticks_Linear_8,110,5,42,127,870632728
1018,20,Ticks_Linear_8,111,5,42,127,871342420
1018,20,Ticks_Linear_8,112,1,48,42,871350172
1018,20,Ticks_Linear_8,113,1,48,38,872011868
1018,20,Ticks_Linear_8,114,5,42,127,872053164
1018,20,Ticks_Linear_8,115,1,48,40,872727260
1018,20,Ticks_Linear_8,116,5,42,127,872762876
1018,20,Ticks_Linear_8,117,1,48,35,873473340
1018,20,Ticks_Linear_8,118,5,42,127,873474676
1018,20,Ticks_Linear_8,119,5,42,127,874172764
1018,20,Ticks_Linear_8,120,1,48,38,874185320
1018,20,Ticks_Linear_8,121,1,48,36,874832476
1018,20,Ticks_Linear_8,122,5,42,127,874873624
1018,20,Ticks_Linear_8,123,1,48,40,875547724
1018,20,Ticks_Linear_8,124,5,42,127,875572556
1018,20,Ticks_Linear_8,125,5,42,127,876273280
1018,20,Ticks_Linear_8,126,1,48,33,876297448
1018,20,Ticks_Linear_8,127,1,48,40,876969212
1018,20,Ticks_Linear_8,128,5,42,127,876973376
1018,20,Ticks_Linear_8,129,1,48,37,877661332
1018,20,Ticks_Linear_8,130,5,42,127,877672976
1018,20,Ticks_Linear_8,131,1,48,41,878339504
1018,20,Ticks_Linear_8,132,5,42,127,878363212
1018,20,Ticks_Linear_8,133,1,48,38,879049864
1018,20,Ticks_Linear_8,134,5,42,127,879053128
1018,20,Ticks_Linear_8,135,1,48,40,879686332
1018,20,Ticks_Linear_8,136,5,42,127,879743292
1018,20,Ticks_Linear_8,137,1,48,41,880425324
1018,20,Ticks_Linear_8,138,5,42,127,880432556
1018,20,Ticks_Linear_8,139,5,42,127,881112392
1018,20,Ticks_Linear_8,140,1,48,40,881169500
1018,20,Ticks_Linear_8,141,5,42,127,881793392
1018,20,Ticks_Linear_8,142,1,48,35,881797032
1018,20,Ticks_Linear_8,143,5,42,127,882473220
1018,20,Ticks_Linear_8,144,1,48,37,882507192
1018,20,Ticks_Linear_8,145,1,48,42,883127212
1018,20,Ticks_Linear_8,146,5,42,127,883153244
1018,20,Ticks_Linear_8,147,1,48,40,883794764
1018,20,Ticks_Linear_8,148,5,42,127,883833296
1018,20,Ticks_Linear_8,149,1,48,38,884483056
1018,20,Ticks_Linear_8,150,5,42,127,884502944
1018,20,Ticks_Linear_8,151,1,48,41,885167872
1018,20,Ticks_Linear_8,152,5,42,127,885172564
1018,20,Ticks_Linear_8,153,5,42,127,885843408
1018,20,Ticks_Linear_8,154,1,48,39,885844376
1018,20,Ticks_Linear_8,155,5,42,127,886513132
1018,20,Ticks_Linear_8,156,1,48,43,886530020
1018,20,Ticks_Linear_8,157,1,48,37,887179028
1018,20,Ticks_Linear_8,158,5,42,127,887182820
1018,20,Ticks_Linear_8,159,5,42,127,887843260
1018,20,Ticks_Linear_8,160,1,48,39,887929876
1018,20,Ticks_Linear_8,161,1,48,36,888476736
1018,20,Ticks_Linear_8,162,5,42,127,888502540
1018,20,Ticks_Linear_8,163,1,48,35,889091640
1018,20,Ticks_Linear_8,164,5,42,127,889163268
1018,20,Ticks_Linear_8,165,1,48,33,889726284
1018,20,Ticks_Linear_8,166,5,42,127,889823316
1018,20,Ticks_Linear_8,167,1,48,34,890383872
1018,20,Ticks_Linear_8,168,5,42,127,890483136
1018,20,Ticks_Linear_8,169,1,48,37,891060908
1018,20,Ticks_Linear_8,170,5,42,127,891133312
1018,20,Ticks_Linear_8,171,1,48,32,891760568
1018,20,Ticks_Linear_8,172,5,42,127,891782488
1018,20,Ticks_Linear_8,173,5,42,127,892432892
1018,20,Ticks_Linear_8,174,1,48,38,892433856
1018,20,Ticks_Linear_8,175,5,42,127,893083112
1018,20,Ticks_Linear_8,176,1,48,38,893108920
1018,20,Ticks_Linear_8,177,5,42,127,893733216
1018,20,Ticks_Linear_8,178,1,48,31,893744424
1018,20,Ticks_Linear_8,179,5,42,127,894373104
1018,20,Ticks_Linear_8,180,1,48,37,894393148
1018,20,Ticks_Linear_8,181,5,42,127,895013164
1018,20,Ticks_Linear_8,182,1,48,38,895032164
1018,20,Ticks_Linear_8,183,1,48,35,895622900
1018,20,Ticks_Linear_8,184,5,42,127,895653344
1018,20,Ticks_Linear_8,185,5,42,127,896293192
1018,20,Ticks_Linear_8,186,1,48,37,896316300
1018,20,Ticks_Linear_8,187,1,48,37,896933008
1018,20,Ticks_Linear_8,188,5,42,127,896934420
1018,20,Ticks_Linear_8,189,1,48,39,897556244
1018,20,Ticks_Linear_8,190,5,42,127,897563104
1018,20,Ticks_Linear_8,191,5,42,127,898192892
1018,20,Ticks_Linear_8,192,1,48,41,898213016
1018,20,Ticks_Linear_8,193,5,42,127,898822396
1018,20,Ticks_Linear_8,194,1,48,35,898831660
1018,20,Ticks_Linear_8,195,5,42,127,899453296
1018,20,Ticks_Linear_8,196,1,48,35,899458064
1018,20,Ticks_Linear_8,197,1,48,41,900061416
1018,20,Ticks_Linear_8,198,5,42,127,900082944
1018,20,Ticks_Linear_8,199,5,42,127,900702472
1018,20,Ticks_Linear_8,200,1,48,41,900718392
1018,20,Ticks_Linear_8,201,5,42,127,901323040
1018,20,Ticks_Linear_8,202,1,48,36,901375832
1018,20,Ticks_Linear_8,203,5,42,127,901942508
1018,20,Ticks_Linear_8,204,1,48,21,901944372
1018,20,Ticks_Linear_8,205,5,42,127,902563148
1018,20,Ticks_Linear_8,206,1,48,35,902588732
1018,20,Ticks_Linear_8,207,5,42,127,903182696
1018,20,Ticks_Linear_8,208,1,48,36,903188132
1018,20,Ticks_Linear_8,209,5,42,127,903793228
1018,20,Ticks_Linear_8,210,1,48,35,903805184
1018,20,Ticks_Linear_8,211,1,48,35,904388428
1018,20,Ticks_Linear_8,212,5,42,127,904403304
1018,20,Ticks_Linear_8,213,1,48,32,904911132
1018,20,Ticks_Linear_8,214,5,42,127,905012648
1018,20,Ticks_Linear_8,215,5,42,127,905623200
1018,20,Ticks_Linear_8,216,1,48,33,905648108
1018,20,Ticks_Linear_8,217,5,42,127,906233092
1018,20,Ticks_Linear_8,218,1,48,36,906269080
1018,20,Ticks_Linear_8,219,1,48,36,906801492
1018,20,Ticks_Linear_8,220,5,42,127,906833132
1018,20,Ticks_Linear_8,221,1,48,39,907426996
1018,20,Ticks_Linear_8,222,5,42,127,907433328
1018,20,Ticks_Linear_8,223,5,42,127,908033332
1018,20,Ticks_Linear_8,224,1,48,38,908039668
1018,20,Ticks_Linear_8,225,1,48,31,908589816
1018,20,Ticks_Linear_8,226,5,42,127,908632328
1018,20,Ticks_Linear_8,227,1,48,26,909186724
1018,20,Ticks_Linear_8,228,5,42,127,909232600
1018,20,Ticks_Linear_8,229,1,48,32,909769776
1018,20,Ticks_Linear_8,230,5,42,127,909823312
1018,20,Ticks_Linear_8,231,1,48,38,910389764
1018,20,Ticks_Linear_8,232,5,42,127,910413252
1018,20,Ticks_Linear_8,233,1,48,34,910970268
1018,20,Ticks_Linear_8,234,5,42,127,911002968
1018,20,Ticks_Linear_8,235,1,48,33,911557288
1018,20,Ticks_Linear_8,236,5,42,127,911593004
1018,20,Ticks_Linear_8,237,1,48,33,912128308
1018,20,Ticks_Linear_8,238,5,42,127,912182944
1018,20,Ticks_Linear_8,239,1,48,38,912715104
1018,20,Ticks_Linear_8,240,5,42,127,912763224
1018,20,Ticks_Linear_8,241,1,48,37,913307216
1018,20,Ticks_Linear_8,242,5,42,127,913342832
1018,20,Ticks_Linear_8,243,1,48,38,913905940
1018,20,Ticks_Linear_8,244,5,42,127,913922384
1018,20,Ticks_Linear_8,245,1,48,38,914491916
1018,20,Ticks_Linear_8,246,5,42,127,914502964
1018,20,Ticks_Linear_8,247,1,48,38,915076080
1018,20,Ticks_Linear_8,248,5,42,127,915082716
1018,20,Ticks_Linear_8,249,1,48,35,915647752
1018,20,Ticks_Linear_8,250,5,42,127,915653036
1018,20,Ticks_Linear_8,251,1,48,35,916185520
1018,20,Ticks_Linear_8,252,5,42,127,916223304
1018,20,Ticks_Linear_8,253,1,48,38,916733896
1018,20,Ticks_Linear_8,254,5,42,127,916792652
1018,20,Ticks_Linear_8,255,1,48,36,917295380
1018,20,Ticks_Linear_8,256,5,42,127,917363044
1018,20,Ticks_Linear_8,257,1,48,40,917901796
1018,20,Ticks_Linear_8,258,5,42,127,917933512
1018,20,Ticks_Linear_8,259,1,48,35,918464628
1018,20,Ticks_Linear_8,260,5,42,127,918503032
1018,20,Ticks_Linear_8,261,1,48,35,919028824
1018,20,Ticks_Linear_8,262,5,42,127,919062868
1018,20,Ticks_Linear_8,263,1,48,33,919584916
1018,20,Ticks_Linear_8,264,5,42,127,919623000
1018,20,Ticks_Linear_8,265,1,48,34,920137260
1018,20,Ticks_Linear_8,266,5,42,127,920183060
1018,20,Ticks_Linear_8,267,1,48,32,920706384
1018,20,Ticks_Linear_8,268,5,42,127,920743268
1018,20,Ticks_Linear_8,269,1,48,33,921276172
1018,20,Ticks_Linear_8,270,5,42,127,921293068
1018,20,Ticks_Linear_8,271,5,42,127,921843196
1018,20,Ticks_Linear_8,272,1,48,38,921858596
1018,20,Ticks_Linear_8,273,1,48,36,922346520
1018,20,Ticks_Linear_8,274,5,42,127,922392844
1018,20,Ticks_Linear_8,275,1,48,35,922915940
1018,20,Ticks_Linear_8,276,5,42,127,922942716
1018,20,Ticks_Linear_8,277,1,48,38,923439820
1018,20,Ticks_Linear_8,278,5,42,127,923492816
1018,20,Ticks_Linear_8,279,1,48,38,924024820
1018,20,Ticks_Linear_8,280,5,42,127,924033476
1018,20,Ticks_Linear_8,281,1,48,36,924570124
1018,20,Ticks_Linear_8,282,5,42,127,924573168
1018,20,Ticks_Linear_8,283,1,48,35,925104504
1018,20,Ticks_Linear_8,284,5,42,127,925112856
1018,20,Ticks_Linear_8,285,1,48,37,925621732
1018,20,Ticks_Linear_8,286,5,42,127,925653320
1018,20,Ticks_Linear_8,287,1,48,35,926174252
1018,20,Ticks_Linear_8,288,5,42,127,926193012
1018,20,Ticks_Linear_8,289,1,48,35,926685776
1018,20,Ticks_Linear_8,290,5,42,127,926722292
1018,20,Ticks_Linear_8,291,1,48,37,927192744
1018,20,Ticks_Linear_8,292,5,42,127,927252920
1018,20,Ticks_Linear_8,293,1,48,36,927705844
1018,20,Ticks_Linear_8,294,5,42,127,927783248
1018,20,Ticks_Linear_8,295,1,48,39,928260056
1018,20,Ticks_Linear_8,296,5,42,127,928312680
1018,20,Ticks_Linear_8,297,1,48,37,928775940
1018,20,Ticks_Linear_8,298,5,42,127,928843160
1018,20,Ticks_Linear_8,299,1,48,39,929323648
1018,20,Ticks_Linear_8,300,5,42,127,929363228
1018,20,Ticks_Linear_8,301,1,48,38,929864012
1018,20,Ticks_Linear_8,302,5,42,127,929882548
1018,20,Ticks_Linear_8,303,1,48,38,930401648
1018,20,Ticks_Linear_8,304,5,42,127,930403212
1018,20,Ticks_Linear_8,305,1,48,37,930887820
1018,20,Ticks_Linear_8,306,5,42,127,930922912
1018,20,Ticks_Linear_8,307,1,48,38,931416504
1018,20,Ticks_Linear_8,308,5,42,127,931443056
1018,20,Ticks_Linear_8,309,1,48,40,931902880
1018,20,Ticks_Linear_8,310,5,42,127,931953092
1018,20,Ticks_Linear_8,311,1,48,42,932433132
1018,20,Ticks_Linear_8,312,5,42,127,932462904
1018,20,Ticks_Linear_8,313,1,48,42,932947728
1018,20,Ticks_Linear_8,314,5,42,127,932972860
1018,20,Ticks_Linear_8,315,5,42,127,933482828
1018,20,Ticks_Linear_8,316,1,48,24,933514928
1018,20,Ticks_Linear_8,317,5,42,127,933992860
1018,20,Ticks_Linear_8,318,1,48,40,934001832
1018,20,Ticks_Linear_8,319,1,48,40,934472748
1018,20,Ticks_Linear_8,320,5,42,127,934492632
1018,20,Ticks_Linear_8,321,5,42,127,934993236
1018,20,Ticks_Linear_8,322,1,48,43,935010740
1018,20,Ticks_Linear_8,323,5,42,127,935492860
1018,20,Ticks_Linear_8,324,1,48,42,935500616
1018,20,Ticks_Linear_8,325,1,48,29,935970712
1018,20,Ticks_Linear_8,326,5,42,127,935992628
1018,20,Ticks_Linear_8,327,5,42,127,936493608
1018,20,Ticks_Linear_8,328,1,48,40,936495020
1018,20,Ticks_Linear_8,329,1,48,32,936941820
1018,20,Ticks_Linear_8,330,5,42,127,936993080
1018,20,Ticks_Linear_8,331,5,42,127,937482824
1018,20,Ticks_Linear_8,332,1,48,46,937625684
1018,20,Ticks_Linear_8,333,5,42,127,937973088
1018,20,Ticks_Linear_8,334,1,48,34,937978820
1018,20,Ticks_Linear_8,335,5,42,127,938462676
1018,20,Ticks_Linear_8,336,1,48,40,938505488
1018,20,Ticks_Linear_8,337,1,48,32,938922688
1018,20,Ticks_Linear_8,338,5,42,127,938953132
1018,20,Ticks_Linear_8,0,9999,9999,9999,828371060
1018,20,Ticks_Linear_8,1,9999,9999,9999,829190208
1018,20,Ticks_Linear_8,2,9999,9999,9999,830010448
1018,20,Ticks_Linear_8,3,9999,9999,9999,830830708
1018,20,Ticks_Linear_8,4,9999,9999,9999,831650876
1018,20,Ticks_Linear_8,5,9999,9999,9999,832460860
1018,20,Ticks_Linear_8,6,9999,9999,9999,833270868
1018,20,Ticks_Linear_8,7,9999,9999,9999,834080848
1018,20,Ticks_Linear_8,8,9999,9999,9999,834890836
1018,20,Ticks_Linear_8,9,9999,9999,9999,835700820
1018,20,Ticks_Linear_8,10,9999,9999,9999,836500544
1018,20,Ticks_Linear_8,11,9999,9999,9999,837300344
1018,20,Ticks_Linear_8,12,9999,9999,9999,838101120
1018,20,Ticks_Linear_8,13,9999,9999,9999,838900796
1018,20,Ticks_Linear_8,14,9999,9999,9999,839700588
1018,20,Ticks_Linear_8,15,9999,9999,9999,840491104
1018,20,Ticks_Linear_8,16,9999,9999,9999,841290824
1018,20,Ticks_Linear_8,17,9999,9999,9999,842080360
1018,20,Ticks_Linear_8,18,9999,9999,9999,842870872
1018,20,Ticks_Linear_8,19,9999,9999,9999,843660412
1018,20,Ticks_Linear_8,20,9999,9999,9999,844440664
1018,20,Ticks_Linear_8,21,9999,9999,9999,845220924
1018,20,Ticks_Linear_8,22,9999,9999,9999,846000204
1018,20,Ticks_Linear_8,23,9999,9999,9999,846780528
1018,20,Ticks_Linear_8,24,9999,9999,9999,847560784
1018,20,Ticks_Linear_8,25,9999,9999,9999,848330852
1018,20,Ticks_Linear_8,26,9999,9999,9999,849100920
1018,20,Ticks_Linear_8,27,9999,9999,9999,849870912
1018,20,Ticks_Linear_8,28,9999,9999,9999,850640976
1018,20,Ticks_Linear_8,29,9999,9999,9999,851411052
1018,20,Ticks_Linear_8,30,9999,9999,9999,852170856
1018,20,Ticks_Linear_8,31,9999,9999,9999,852930664
1018,20,Ticks_Linear_8,32,9999,9999,9999,853690476
1018,20,Ticks_Linear_8,33,9999,9999,9999,854450288
1018,20,Ticks_Linear_8,34,9999,9999,9999,855211072
1018,20,Ticks_Linear_8,35,9999,9999,9999,855970880
1018,20,Ticks_Linear_8,36,9999,9999,9999,856720504
1018,20,Ticks_Linear_8,37,9999,9999,9999,857471092
1018,20,Ticks_Linear_8,38,9999,9999,9999,858220644
1018,20,Ticks_Linear_8,39,9999,9999,9999,858970200
1018,20,Ticks_Linear_8,40,9999,9999,9999,859710536
1018,20,Ticks_Linear_8,41,9999,9999,9999,860450872
1018,20,Ticks_Linear_8,42,9999,9999,9999,861190236
1018,20,Ticks_Linear_8,43,9999,9999,9999,861930568
1018,20,Ticks_Linear_8,44,9999,9999,9999,862670956
1018,20,Ticks_Linear_8,45,9999,9999,9999,863401040
1018,20,Ticks_Linear_8,46,9999,9999,9999,864130148
1018,20,Ticks_Linear_8,47,9999,9999,9999,864860220
1018,20,Ticks_Linear_8,48,9999,9999,9999,865590372
1018,20,Ticks_Linear_8,49,9999,9999,9999,866320456
1018,20,Ticks_Linear_8,50,9999,9999,9999,867040352
1018,20,Ticks_Linear_8,51,9999,9999,9999,867760224
1018,20,Ticks_Linear_8,52,9999,9999,9999,868480108
1018,20,Ticks_Linear_8,53,9999,9999,9999,869200976
1018,20,Ticks_Linear_8,54,9999,9999,9999,869920868
1018,20,Ticks_Linear_8,55,9999,9999,9999,870630504
1018,20,Ticks_Linear_8,56,9999,9999,9999,871340120
1018,20,Ticks_Linear_8,57,9999,9999,9999,872050792
1018,20,Ticks_Linear_8,58,9999,9999,9999,872760428
1018,20,Ticks_Linear_8,59,9999,9999,9999,873471040
1018,20,Ticks_Linear_8,60,9999,9999,9999,874170464
1018,20,Ticks_Linear_8,61,9999,9999,9999,874870880
1018,20,Ticks_Linear_8,62,9999,9999,9999,875570256
1018,20,Ticks_Linear_8,63,9999,9999,9999,876270684
1018,20,Ticks_Linear_8,64,9999,9999,9999,876971076
1018,20,Ticks_Linear_8,65,9999,9999,9999,877670528
1018,20,Ticks_Linear_8,66,9999,9999,9999,878360692
1018,20,Ticks_Linear_8,67,9999,9999,9999,879050828
1018,20,Ticks_Linear_8,68,9999,9999,9999,879740992
1018,20,Ticks_Linear_8,69,9999,9999,9999,880430184
1018,20,Ticks_Linear_8,70,9999,9999,9999,881110092
1018,20,Ticks_Linear_8,71,9999,9999,9999,881791092
1018,20,Ticks_Linear_8,72,9999,9999,9999,882470996
1018,20,Ticks_Linear_8,73,9999,9999,9999,883150944
1018,20,Ticks_Linear_8,74,9999,9999,9999,883830848
1018,20,Ticks_Linear_8,75,9999,9999,9999,884500572
1018,20,Ticks_Linear_8,76,9999,9999,9999,885170264
1018,20,Ticks_Linear_8,77,9999,9999,9999,885840960
1018,20,Ticks_Linear_8,78,9999,9999,9999,886510680
1018,20,Ticks_Linear_8,79,9999,9999,9999,887180372
1018,20,Ticks_Linear_8,80,9999,9999,9999,887840888
1018,20,Ticks_Linear_8,81,9999,9999,9999,888500316
1018,20,Ticks_Linear_8,82,9999,9999,9999,889160820
1018,20,Ticks_Linear_8,83,9999,9999,9999,889820284
1018,20,Ticks_Linear_8,84,9999,9999,9999,890480764
1018,20,Ticks_Linear_8,85,9999,9999,9999,891130936
1018,20,Ticks_Linear_8,86,9999,9999,9999,891780188
1018,20,Ticks_Linear_8,87,9999,9999,9999,892430444
1018,20,Ticks_Linear_8,88,9999,9999,9999,893080664
1018,20,Ticks_Linear_8,89,9999,9999,9999,893730912
1018,20,Ticks_Linear_8,90,9999,9999,9999,894370880
1018,20,Ticks_Linear_8,91,9999,9999,9999,895010940
1018,20,Ticks_Linear_8,92,9999,9999,9999,895650900
1018,20,Ticks_Linear_8,93,9999,9999,9999,896290892
1018,20,Ticks_Linear_8,94,9999,9999,9999,896930932
1018,20,Ticks_Linear_8,95,9999,9999,9999,897560656
1018,20,Ticks_Linear_8,96,9999,9999,9999,898190444
1018,20,Ticks_Linear_8,97,9999,9999,9999,898820172
1018,20,Ticks_Linear_8,98,9999,9999,9999,899450996
1018,20,Ticks_Linear_8,99,9999,9999,9999,900080720
1018,20,Ticks_Linear_8,100,9999,9999,9999,900700248
1018,20,Ticks_Linear_8,101,9999,9999,9999,901320816
1018,20,Ticks_Linear_8,102,9999,9999,9999,901940284
1018,20,Ticks_Linear_8,103,9999,9999,9999,902560852
1018,20,Ticks_Linear_8,104,9999,9999,9999,903180396
1018,20,Ticks_Linear_8,105,9999,9999,9999,903790704
1018,20,Ticks_Linear_8,106,9999,9999,9999,904401004
1018,20,Ticks_Linear_8,107,9999,9999,9999,905010276
1018,20,Ticks_Linear_8,108,9999,9999,9999,905620604
1018,20,Ticks_Linear_8,109,9999,9999,9999,906230864
1018,20,Ticks_Linear_8,110,9999,9999,9999,906830908
1018,20,Ticks_Linear_8,111,9999,9999,9999,907431028
1018,20,Ticks_Linear_8,112,9999,9999,9999,908031036
1018,20,Ticks_Linear_8,113,9999,9999,9999,908630104
1018,20,Ticks_Linear_8,114,9999,9999,9999,909230152
1018,20,Ticks_Linear_8,115,9999,9999,9999,909821012
1018,20,Ticks_Linear_8,116,9999,9999,9999,910410880
1018,20,Ticks_Linear_8,117,9999,9999,9999,911000668
1018,20,Ticks_Linear_8,118,9999,9999,9999,911590480
1018,20,Ticks_Linear_8,119,9999,9999,9999,912180348
1018,20,Ticks_Linear_8,120,9999,9999,9999,912760924
1018,20,Ticks_Linear_8,121,9999,9999,9999,913340532
1018,20,Ticks_Linear_8,122,9999,9999,9999,913920088
1018,20,Ticks_Linear_8,123,9999,9999,9999,914500664
1018,20,Ticks_Linear_8,124,9999,9999,9999,915080268
1018,20,Ticks_Linear_8,125,9999,9999,9999,915650664
1018,20,Ticks_Linear_8,126,9999,9999,9999,916221008
1018,20,Ticks_Linear_8,127,9999,9999,9999,916790352
1018,20,Ticks_Linear_8,128,9999,9999,9999,917360744
1018,20,Ticks_Linear_8,129,9999,9999,9999,917931064
1018,20,Ticks_Linear_8,130,9999,9999,9999,918500436
1018,20,Ticks_Linear_8,131,9999,9999,9999,919060568
1018,20,Ticks_Linear_8,132,9999,9999,9999,919620700
1018,20,Ticks_Linear_8,133,9999,9999,9999,920180836
1018,20,Ticks_Linear_8,134,9999,9999,9999,920740968
1018,20,Ticks_Linear_8,135,9999,9999,9999,921290844
1018,20,Ticks_Linear_8,136,9999,9999,9999,921840748
1018,20,Ticks_Linear_8,137,9999,9999,9999,922390620
1018,20,Ticks_Linear_8,138,9999,9999,9999,922940492
1018,20,Ticks_Linear_8,139,9999,9999,9999,923490364
1018,20,Ticks_Linear_8,140,9999,9999,9999,924031028
1018,20,Ticks_Linear_8,141,9999,9999,9999,924570720
1018,20,Ticks_Linear_8,142,9999,9999,9999,925110336
1018,20,Ticks_Linear_8,143,9999,9999,9999,925651020
1018,20,Ticks_Linear_8,144,9999,9999,9999,926190712
1018,20,Ticks_Linear_8,145,9999,9999,9999,926720068
1018,20,Ticks_Linear_8,146,9999,9999,9999,927250548
1018,20,Ticks_Linear_8,147,9999,9999,9999,927780948
1018,20,Ticks_Linear_8,148,9999,9999,9999,928310380
1018,20,Ticks_Linear_8,149,9999,9999,9999,928840784
1018,20,Ticks_Linear_8,150,9999,9999,9999,929361004
1018,20,Ticks_Linear_8,151,9999,9999,9999,929880176
1018,20,Ticks_Linear_8,152,9999,9999,9999,930400324
1018,20,Ticks_Linear_8,153,9999,9999,9999,930920536
1018,20,Ticks_Linear_8,154,9999,9999,9999,931440756
1018,20,Ticks_Linear_8,155,9999,9999,9999,931950716
1018,20,Ticks_Linear_8,156,9999,9999,9999,932460604
1018,20,Ticks_Linear_8,157,9999,9999,9999,932970564
1018,20,Ticks_Linear_8,158,9999,9999,9999,933480528
1018,20,Ticks_Linear_8,159,9999,9999,9999,933990488
1018,20,Ticks_Linear_8,160,9999,9999,9999,934490184
1018,20,Ticks_Linear_8,161,9999,9999,9999,934990936
1018,20,Ticks_Linear_8,162,9999,9999,9999,935490636
1018,20,Ticks_Linear_8,163,9999,9999,9999,935990332
1018,20,Ticks_Linear_8,164,9999,9999,9999,936491088
1018,20,Ticks_Linear_8,165,9999,9999,9999,936990780
1018,20,Ticks_Linear_8,166,9999,9999,9999,937480300
1018,20,Ticks_Linear_8,167,9999,9999,9999,937970788
1018,20,Ticks_Linear_8,168,9999,9999,9999,938460228
1018,20,Ticks_Linear_8,169,9999,9999,9999,938950760
1019,23,Ticks_Phase_5,0,5,42,127,948096628
1019,23,Ticks_Phase_5,1,5,42,127,948595964
1019,23,Ticks_Phase_5,2,1,48,50,948684840
1019,23,Ticks_Phase_5,3,5,42,127,949095800
1019,23,Ticks_Phase_5,4,1,48,40,949128652
1019,23,Ticks_Phase_5,5,1,48,48,949586544
1019,23,Ticks_Phase_5,6,5,42,127,949595484
1019,23,Ticks_Phase_5,7,1,48,49,950017336
1019,23,Ticks_Phase_5,8,5,42,127,950096440
1019,23,Ticks_Phase_5,9,1,48,49,950544208
1019,23,Ticks_Phase_5,10,5,42,127,950595908
1019,23,Ticks_Phase_5,11,1,48,46,951049204
1019,23,Ticks_Phase_5,12,5,42,127,951095596
1019,23,Ticks_Phase_5,13,1,48,45,951541180
1019,23,Ticks_Phase_5,14,5,42,127,951596628
1019,23,Ticks_Phase_5,15,1,48,45,952040944
1019,23,Ticks_Phase_5,16,5,42,127,952096168
1019,23,Ticks_Phase_5,17,1,48,42,952540932
1019,23,Ticks_Phase_5,18,5,42,127,952595708
1019,23,Ticks_Phase_5,19,1,48,21,952632508
1019,23,Ticks_Phase_5,20,1,48,44,953012560
1019,23,Ticks_Phase_5,21,5,42,127,953095596
1019,23,Ticks_Phase_5,22,1,48,44,953526932
1019,23,Ticks_Phase_5,23,5,42,127,953596480
1019,23,Ticks_Phase_5,24,1,48,44,954039796
1019,23,Ticks_Phase_5,25,5,42,127,954096092
1019,23,Ticks_Phase_5,26,1,48,45,954518744
1019,23,Ticks_Phase_5,27,5,42,127,954595632
1019,23,Ticks_Phase_5,28,1,48,43,955037084
1019,23,Ticks_Phase_5,29,5,42,127,955096520
1019,23,Ticks_Phase_5,30,1,48,44,955575636
1019,23,Ticks_Phase_5,31,5,42,127,955606616
1019,23,Ticks_Phase_5,32,1,48,42,956045596
1019,23,Ticks_Phase_5,33,5,42,127,956106200
1019,23,Ticks_Phase_5,34,5,42,127,956605824
1019,23,Ticks_Phase_5,35,1,48,47,956621592
1019,23,Ticks_Phase_5,36,1,48,46,957102920
1019,23,Ticks_Phase_5,37,5,42,127,957105652
1019,23,Ticks_Phase_5,38,1,48,45,957569664
1019,23,Ticks_Phase_5,39,5,42,127,957606464
1019,23,Ticks_Phase_5,40,1,48,38,958078492
1019,23,Ticks_Phase_5,41,5,42,127,958105928
1019,23,Ticks_Phase_5,42,1,48,47,958542976
1019,23,Ticks_Phase_5,43,5,42,127,958605616
1019,23,Ticks_Phase_5,44,1,48,50,959104992
1019,23,Ticks_Phase_5,45,5,42,127,959106576
1019,23,Ticks_Phase_5,46,1,48,42,959592224
1019,23,Ticks_Phase_5,47,5,42,127,959616596
1019,23,Ticks_Phase_5,48,1,48,39,960055380
1019,23,Ticks_Phase_5,49,5,42,127,960116284
1019,23,Ticks_Phase_5,50,5,42,127,960615756
1019,23,Ticks_Phase_5,51,1,48,45,960626744
1019,23,Ticks_Phase_5,52,1,48,42,961115368
1019,23,Ticks_Phase_5,53,5,42,127,961116784
1019,23,Ticks_Phase_5,54,1,48,37,961591872
1019,23,Ticks_Phase_5,55,5,42,127,961616468
1019,23,Ticks_Phase_5,56,1,48,34,962061084
1019,23,Ticks_Phase_5,57,5,42,127,962115936
1019,23,Ticks_Phase_5,58,1,48,37,962545732
1019,23,Ticks_Phase_5,59,5,42,127,962615628
1019,23,Ticks_Phase_5,60,1,48,35,963101804
1019,23,Ticks_Phase_5,61,5,42,127,963106180
1019,23,Ticks_Phase_5,62,1,48,34,963581940
1019,23,Ticks_Phase_5,63,5,42,127,963605868
1019,23,Ticks_Phase_5,64,1,48,34,964080664
1019,23,Ticks_Phase_5,65,5,42,127,964105556
1019,23,Ticks_Phase_5,66,1,48,42,964578780
1019,23,Ticks_Phase_5,67,5,42,127,964606368
1019,23,Ticks_Phase_5,68,1,48,38,965026248
1019,23,Ticks_Phase_5,69,5,42,127,965106056
1019,23,Ticks_Phase_5,70,1,48,34,965578208
1019,23,Ticks_Phase_5,71,5,42,127,965605668
1019,23,Ticks_Phase_5,72,1,48,43,966074300
1019,23,Ticks_Phase_5,73,5,42,127,966105432
1019,23,Ticks_Phase_5,74,1,48,46,966559760
1019,23,Ticks_Phase_5,75,5,42,127,966606292
1019,23,Ticks_Phase_5,76,1,48,46,967054360
1019,23,Ticks_Phase_5,77,5,42,127,967105832
1019,23,Ticks_Phase_5,78,1,48,39,967574484
1019,23,Ticks_Phase_5,79,5,42,127,967605592
1019,23,Ticks_Phase_5,80,1,48,44,968054776
1019,23,Ticks_Phase_5,81,5,42,127,968106328
1019,23,Ticks_Phase_5,82,1,48,44,968556940
1019,23,Ticks_Phase_5,83,5,42,127,968606164
1019,23,Ticks_Phase_5,84,1,48,43,969034988
1019,23,Ticks_Phase_5,85,5,42,127,969105780
1019,23,Ticks_Phase_5,86,1,48,42,969522904
1019,23,Ticks_Phase_5,87,5,42,127,969605468
1019,23,Ticks_Phase_5,88,1,48,14,970088348
1019,23,Ticks_Phase_5,89,5,42,127,970106352
1019,23,Ticks_Phase_5,90,1,48,31,970591332
1019,23,Ticks_Phase_5,91,5,42,127,970605892
1019,23,Ticks_Phase_5,92,1,48,42,971063156
1019,23,Ticks_Phase_5,93,5,42,127,971105580
1019,23,Ticks_Phase_5,94,1,48,48,971570636
1019,23,Ticks_Phase_5,95,5,42,127,971606392
1019,23,Ticks_Phase_5,96,1,48,44,972068528
1019,23,Ticks_Phase_5,97,5,42,127,972116340
1019,23,Ticks_Phase_5,98,1,48,42,972616256
1019,23,Ticks_Phase_5,99,5,42,127,972617524
1019,23,Ticks_Phase_5,100,5,42,127,973115720
1019,23,Ticks_Phase_5,101,1,48,44,973118992
1019,23,Ticks_Phase_5,102,1,48,24,973177828
1019,23,Ticks_Phase_5,103,1,48,43,973611528
1019,23,Ticks_Phase_5,104,5,42,127,973615456
1019,23,Ticks_Phase_5,105,1,48,43,974105380
1019,23,Ticks_Phase_5,106,5,42,127,974116264
1019,23,Ticks_Phase_5,107,1,48,46,974584852
1019,23,Ticks_Phase_5,108,5,42,127,974616028
1019,23,Ticks_Phase_5,109,1,48,43,975098316
1019,23,Ticks_Phase_5,110,5,42,127,975115640
1019,23,Ticks_Phase_5,111,5,42,127,975616312
1019,23,Ticks_Phase_5,112,1,48,34,975620920
1019,23,Ticks_Phase_5,113,5,42,127,976116220
1019,23,Ticks_Phase_5,114,1,48,47,976132592
1019,23,Ticks_Phase_5,115,1,48,49,976611152
1019,23,Ticks_Phase_5,116,5,42,127,976615756
1019,23,Ticks_Phase_5,117,1,48,43,977086560
1019,23,Ticks_Phase_5,118,5,42,127,977115444
1019,23,Ticks_Phase_5,119,1,48,46,977587144
1019,23,Ticks_Phase_5,120,5,42,127,977616228
1019,23,Ticks_Phase_5,121,1,48,48,978084364
1019,23,Ticks_Phase_5,122,5,42,127,978115988
1019,23,Ticks_Phase_5,123,1,48,49,978582240
1019,23,Ticks_Phase_5,124,5,42,127,978615604
1019,23,Ticks_Phase_5,125,1,48,46,979094368
1019,23,Ticks_Phase_5,126,5,42,127,979116416
1019,23,Ticks_Phase_5,127,1,48,42,979581248
1019,23,Ticks_Phase_5,128,5,42,127,979616248
1019,23,Ticks_Phase_5,129,1,48,46,980076220
1019,23,Ticks_Phase_5,130,5,42,127,980136308
1019,23,Ticks_Phase_5,131,1,48,42,980617848
1019,23,Ticks_Phase_5,132,5,42,127,980636368
1019,23,Ticks_Phase_5,133,1,48,41,981077396
1019,23,Ticks_Phase_5,134,5,42,127,981135836
1019,23,Ticks_Phase_5,135,1,48,42,981628160
1019,23,Ticks_Phase_5,136,5,42,127,981635300
1019,23,Ticks_Phase_5,137,1,48,47,982109424
1019,23,Ticks_Phase_5,138,5,42,127,982136260
1019,23,Ticks_Phase_5,139,1,48,48,982609036
1019,23,Ticks_Phase_5,140,5,42,127,982636020
1019,23,Ticks_Phase_5,141,1,48,50,983080116
1019,23,Ticks_Phase_5,142,5,42,127,983135488
1019,23,Ticks_Phase_5,143,1,48,45,983551044
1019,23,Ticks_Phase_5,144,5,42,127,983636220
1019,23,Ticks_Phase_5,145,1,48,44,984118580
1019,23,Ticks_Phase_5,146,5,42,127,984136132
1019,23,Ticks_Phase_5,147,5,42,127,984635828
1019,23,Ticks_Phase_5,148,1,48,44,984664936
1019,23,Ticks_Phase_5,149,5,42,127,985135440
1019,23,Ticks_Phase_5,150,1,48,38,985147996
1019,23,Ticks_Phase_5,151,5,42,127,985636100
1019,23,Ticks_Phase_5,152,1,48,43,985648732
1019,23,Ticks_Phase_5,153,1,48,45,986133576
1019,23,Ticks_Phase_5,154,5,42,127,986136080
1019,23,Ticks_Phase_5,155,5,42,127,986635772
1019,23,Ticks_Phase_5,156,1,48,40,986664288
1019,23,Ticks_Phase_5,157,1,48,46,987134920
1019,23,Ticks_Phase_5,158,5,42,127,987136356
1019,23,Ticks_Phase_5,159,1,48,46,987633684
1019,23,Ticks_Phase_5,160,5,42,127,987636188
1019,23,Ticks_Phase_5,161,5,42,127,988135736
1019,23,Ticks_Phase_5,162,1,48,51,988141924
1019,23,Ticks_Phase_5,163,1,48,48,988613956
1019,23,Ticks_Phase_5,164,5,42,127,988615996
1019,23,Ticks_Phase_5,165,5,42,127,989115620
1019,23,Ticks_Phase_5,166,1,48,34,989177328
1019,23,Ticks_Phase_5,167,5,42,127,989615384
1019,23,Ticks_Phase_5,168,1,48,34,989616352
1019,23,Ticks_Phase_5,169,1,48,45,990079536
1019,23,Ticks_Phase_5,170,5,42,127,990116184
1019,23,Ticks_Phase_5,171,1,48,39,990607908
1019,23,Ticks_Phase_5,172,5,42,127,990615872
1019,23,Ticks_Phase_5,173,1,48,43,991065140
1019,23,Ticks_Phase_5,174,5,42,127,991115712
1019,23,Ticks_Phase_5,175,5,42,127,991616308
1019,23,Ticks_Phase_5,176,1,48,44,991620472
1019,23,Ticks_Phase_5,177,1,48,39,992096184
1019,23,Ticks_Phase_5,178,5,42,127,992116060
1019,23,Ticks_Phase_5,179,1,48,38,992601636
1019,23,Ticks_Phase_5,180,5,42,127,992615748
1019,23,Ticks_Phase_5,181,1,48,49,993108368
1019,23,Ticks_Phase_5,182,5,42,127,993115436
1019,23,Ticks_Phase_5,183,1,48,48,993582288
1019,23,Ticks_Phase_5,184,5,42,127,993616096
1019,23,Ticks_Phase_5,185,1,48,48,994095464
1019,23,Ticks_Phase_5,186,5,42,127,994116008
1019,23,Ticks_Phase_5,187,1,48,43,994595900
1019,23,Ticks_Phase_5,188,5,42,127,994615624
1019,23,Ticks_Phase_5,189,1,48,45,995109068
1019,23,Ticks_Phase_5,190,5,42,127,995116436
1019,23,Ticks_Phase_5,191,1,48,50,995582908
1019,23,Ticks_Phase_5,192,5,42,127,995616196
1019,23,Ticks_Phase_5,193,5,42,127,996116040
1019,23,Ticks_Phase_5,194,1,48,36,996139004
1019,23,Ticks_Phase_5,195,5,42,127,996566380
1019,23,Ticks_Phase_5,196,1,48,41,996671044
1019,23,Ticks_Phase_5,197,5,42,127,997066116
1019,23,Ticks_Phase_5,198,1,48,46,997068784
1019,23,Ticks_Phase_5,199,1,48,43,997531768
1019,23,Ticks_Phase_5,200,5,42,127,997565948
1019,23,Ticks_Phase_5,201,1,48,41,997966908
1019,23,Ticks_Phase_5,202,5,42,127,998065620
1019,23,Ticks_Phase_5,203,1,48,33,998538484
1019,23,Ticks_Phase_5,204,5,42,127,998566296
1019,23,Ticks_Phase_5,205,5,42,127,999065916
1019,23,Ticks_Phase_5,206,1,48,32,999067328
1019,23,Ticks_Phase_5,207,1,48,43,999531188
1019,23,Ticks_Phase_5,208,5,42,127,999565596
1019,23,Ticks_Phase_5,209,1,48,44,1000015088
1019,23,Ticks_Phase_5,210,5,42,127,1000066484
1019,23,Ticks_Phase_5,211,5,42,127,1000576364
1019,23,Ticks_Phase_5,212,1,48,22,1000613772
1019,23,Ticks_Phase_5,213,5,42,127,1001076196
1019,23,Ticks_Phase_5,214,1,48,35,1001086808
1019,23,Ticks_Phase_5,215,5,42,127,1001575888
1019,23,Ticks_Phase_5,216,1,48,37,1001627764
1019,23,Ticks_Phase_5,217,5,42,127,1002075428
1019,23,Ticks_Phase_5,218,1,48,38,1002076396
1019,23,Ticks_Phase_5,219,1,48,40,1002573644
1019,23,Ticks_Phase_5,220,5,42,127,1002576228
1019,23,Ticks_Phase_5,221,5,42,127,1003076072
1019,23,Ticks_Phase_5,222,1,48,42,1003089228
1019,23,Ticks_Phase_5,223,1,48,43,1003556032
1019,23,Ticks_Phase_5,224,5,42,127,1003575752
1019,23,Ticks_Phase_5,225,1,48,41,1004059684
1019,23,Ticks_Phase_5,226,5,42,127,1004076340
1019,23,Ticks_Phase_5,227,1,48,35,1004543416
1019,23,Ticks_Phase_5,228,5,42,127,1004576028
1019,23,Ticks_Phase_5,229,1,48,41,1005060704
1019,23,Ticks_Phase_5,230,5,42,127,1005126188
1019,23,Ticks_Phase_5,231,1,48,36,1005587956
1019,23,Ticks_Phase_5,232,5,42,127,1005626024
1019,23,Ticks_Phase_5,233,5,42,127,1006125348
1019,23,Ticks_Phase_5,234,1,48,35,1006135364
1019,23,Ticks_Phase_5,235,5,42,127,1006626084
1019,23,Ticks_Phase_5,236,1,48,40,1006638040
1019,23,Ticks_Phase_5,237,5,42,127,1007126072
1019,23,Ticks_Phase_5,238,1,48,42,1007163944
1019,23,Ticks_Phase_5,239,1,48,26,1007598388
1019,23,Ticks_Phase_5,240,5,42,127,1007625528
1019,23,Ticks_Phase_5,241,5,42,127,1008126420
1019,23,Ticks_Phase_5,242,1,48,38,1008149688
1019,23,Ticks_Phase_5,243,1,48,28,1008603072
1019,23,Ticks_Phase_5,244,5,42,127,1008626100
1019,23,Ticks_Phase_5,245,1,48,36,1009099004
1019,23,Ticks_Phase_5,246,5,42,127,1009126012
1019,23,Ticks_Phase_5,247,1,48,32,1009625260
1019,23,Ticks_Phase_5,248,5,42,127,1009626824
1019,23,Ticks_Phase_5,249,1,48,41,1010102264
1019,23,Ticks_Phase_5,250,5,42,127,1010126112
1019,23,Ticks_Phase_5,251,1,48,41,1010590420
1019,23,Ticks_Phase_5,252,5,42,127,1010626100
1019,23,Ticks_Phase_5,253,5,42,127,1011125792
1019,23,Ticks_Phase_5,254,1,48,47,1011131904
1019,23,Ticks_Phase_5,255,1,48,42,1011615264
1019,23,Ticks_Phase_5,256,5,42,127,1011626372
1019,23,Ticks_Phase_5,257,1,48,40,1012105664
1019,23,Ticks_Phase_5,258,5,42,127,1012126208
1019,23,Ticks_Phase_5,259,1,48,36,1012615612
1019,23,Ticks_Phase_5,260,5,42,127,1012625896
1019,23,Ticks_Phase_5,261,1,48,36,1013096956
1019,23,Ticks_Phase_5,262,5,42,127,1013125588
1019,23,Ticks_Phase_5,263,1,48,38,1013564068
1019,23,Ticks_Phase_5,264,5,42,127,1013725560
1019,23,Ticks_Phase_5,265,5,42,127,1014226320
1019,23,Ticks_Phase_5,266,1,48,34,1014325900
1019,23,Ticks_Phase_5,267,5,42,127,1014726132
1019,23,Ticks_Phase_5,268,1,48,19,1014829404
1019,23,Ticks_Phase_5,269,5,42,127,1015225896
1019,23,Ticks_Phase_5,270,1,48,22,1015263944
1019,23,Ticks_Phase_5,271,5,42,127,1015725364
1019,23,Ticks_Phase_5,272,1,48,27,1015740836
1019,23,Ticks_Phase_5,273,1,48,33,1016191312
1019,23,Ticks_Phase_5,274,5,42,127,1016226164
1019,23,Ticks_Phase_5,275,1,48,37,1016637536
1019,23,Ticks_Phase_5,276,5,42,127,1016725928
1019,23,Ticks_Phase_5,277,1,48,32,1017219068
1019,23,Ticks_Phase_5,278,5,42,127,1017225688
1019,23,Ticks_Phase_5,279,1,48,36,1017717792
1019,23,Ticks_Phase_5,280,5,42,127,1017726352
1019,23,Ticks_Phase_5,281,1,48,36,1018210732
1019,23,Ticks_Phase_5,282,5,42,127,1018226040
1019,23,Ticks_Phase_5,283,1,48,30,1018696420
1019,23,Ticks_Phase_5,284,5,42,127,1018725876
1019,23,Ticks_Phase_5,285,1,48,32,1019174248
1019,23,Ticks_Phase_5,286,5,42,127,1019225644
1019,23,Ticks_Phase_5,287,1,48,36,1019691820
1019,23,Ticks_Phase_5,288,5,42,127,1019726156
1019,23,Ticks_Phase_5,289,1,48,31,1020199824
1019,23,Ticks_Phase_5,290,5,42,127,1020225916
1019,23,Ticks_Phase_5,291,1,48,33,1020708276
1019,23,Ticks_Phase_5,292,5,42,127,1020725752
1019,23,Ticks_Phase_5,293,1,48,42,1021196512
1019,23,Ticks_Phase_5,294,5,42,127,1021226488
1019,23,Ticks_Phase_5,295,1,48,41,1021705780
1019,23,Ticks_Phase_5,296,5,42,127,1021726100
1019,23,Ticks_Phase_5,297,5,42,127,1022225724
1019,23,Ticks_Phase_5,298,1,48,37,1022238352
1019,23,Ticks_Phase_5,299,1,48,40,1022700060
1019,23,Ticks_Phase_5,300,5,42,127,1022725480
1019,23,Ticks_Phase_5,301,5,42,127,1023125924
1019,23,Ticks_Phase_5,302,1,48,38,1023225228
1019,23,Ticks_Phase_5,303,5,42,127,1023625684
1019,23,Ticks_Phase_5,304,1,48,39,1024038712
1019,23,Ticks_Phase_5,305,5,42,127,1024126212
1019,23,Ticks_Phase_5,306,1,48,30,1024582732
1019,23,Ticks_Phase_5,307,5,42,127,1024626052
1019,23,Ticks_Phase_5,308,5,42,127,1025125820
1019,23,Ticks_Phase_5,309,1,48,29,1025137180
1019,23,Ticks_Phase_5,310,5,42,127,1025625584
1019,23,Ticks_Phase_5,311,1,48,32,1025639112
1019,23,Ticks_Phase_5,312,1,48,38,1026094460
1019,23,Ticks_Phase_5,313,5,42,127,1026126088
1019,23,Ticks_Phase_5,314,5,42,127,1026625784
1019,23,Ticks_Phase_5,315,1,48,36,1026663732
1019,23,Ticks_Phase_5,316,5,42,127,1027125768
1019,23,Ticks_Phase_5,317,1,48,28,1027143632
1019,23,Ticks_Phase_5,318,5,42,127,1027626280
1019,23,Ticks_Phase_5,319,1,48,36,1027641904
1019,23,Ticks_Phase_5,320,1,48,28,1028119572
1019,23,Ticks_Phase_5,321,5,42,127,1028125964
1019,23,Ticks_Phase_5,322,1,48,37,1028599864
1019,23,Ticks_Phase_5,323,5,42,127,1028625652
1019,23,Ticks_Phase_5,324,1,48,21,1028669120
1019,23,Ticks_Phase_5,325,5,42,127,1029125700
1019,23,Ticks_Phase_5,326,1,48,38,1029176224
1019,23,Ticks_Phase_5,327,1,48,37,1029620408
1019,23,Ticks_Phase_5,328,5,42,127,1029626204
1019,23,Ticks_Phase_5,329,1,48,41,1030123780
1019,23,Ticks_Phase_5,330,5,42,127,1030125896
1019,23,Ticks_Phase_5,331,1,48,39,1030613932
1019,23,Ticks_Phase_5,332,5,42,127,1030625732
1019,23,Ticks_Phase_5,333,1,48,35,1031109864
1019,23,Ticks_Phase_5,334,5,42,127,1031126320
1019,23,Ticks_Phase_5,335,1,48,41,1031619136
1019,23,Ticks_Phase_5,336,5,42,127,1031626128
1019,23,Ticks_Phase_5,337,1,48,41,1032095312
1019,23,Ticks_Phase_5,338,5,42,127,1032125820
1019,23,Ticks_Phase_5,339,5,42,127,1032625664
1019,23,Ticks_Phase_5,0,9999,9999,9999,948094044
1019,23,Ticks_Phase_5,1,9999,9999,9999,948593752
1019,23,Ticks_Phase_5,2,9999,9999,9999,949093440
1019,23,Ticks_Phase_5,3,9999,9999,9999,949593196
1019,23,Ticks_Phase_5,4,9999,9999,9999,950093932
1019,23,Ticks_Phase_5,5,9999,9999,9999,950593620
1019,23,Ticks_Phase_5,6,9999,9999,9999,951093308
1019,23,Ticks_Phase_5,7,9999,9999,9999,951594040
1019,23,Ticks_Phase_5,8,9999,9999,9999,952093808
1019,23,Ticks_Phase_5,9,9999,9999,9999,952593496
1019,23,Ticks_Phase_5,10,9999,9999,9999,953093236
1019,23,Ticks_Phase_5,11,9999,9999,9999,953593968
1019,23,Ticks_Phase_5,12,9999,9999,9999,954093656
1019,23,Ticks_Phase_5,13,9999,9999,9999,954593344
1019,23,Ticks_Phase_5,14,9999,9999,9999,955094080
1019,23,Ticks_Phase_5,15,9999,9999,9999,955604028
1019,23,Ticks_Phase_5,16,9999,9999,9999,956103768
1019,23,Ticks_Phase_5,17,9999,9999,9999,956603460
1019,23,Ticks_Phase_5,18,9999,9999,9999,957103216
1019,23,Ticks_Phase_5,19,9999,9999,9999,957603952
1019,23,Ticks_Phase_5,20,9999,9999,9999,958103640
1019,23,Ticks_Phase_5,21,9999,9999,9999,958603328
1019,23,Ticks_Phase_5,22,9999,9999,9999,959104072
1019,23,Ticks_Phase_5,23,9999,9999,9999,959614012
1019,23,Ticks_Phase_5,24,9999,9999,9999,960113772
1019,23,Ticks_Phase_5,25,9999,9999,9999,960613468
1019,23,Ticks_Phase_5,26,9999,9999,9999,961113156
1019,23,Ticks_Phase_5,27,9999,9999,9999,961613884
1019,23,Ticks_Phase_5,28,9999,9999,9999,962113648
1019,23,Ticks_Phase_5,29,9999,9999,9999,962613340
1019,23,Ticks_Phase_5,30,9999,9999,9999,963103816
1019,23,Ticks_Phase_5,31,9999,9999,9999,963603580
1019,23,Ticks_Phase_5,32,9999,9999,9999,964103268
1019,23,Ticks_Phase_5,33,9999,9999,9999,964604004
1019,23,Ticks_Phase_5,34,9999,9999,9999,965103696
1019,23,Ticks_Phase_5,35,9999,9999,9999,965603384
1019,23,Ticks_Phase_5,36,9999,9999,9999,966103148
1019,23,Ticks_Phase_5,37,9999,9999,9999,966603856
1019,23,Ticks_Phase_5,38,9999,9999,9999,967103544
1019,23,Ticks_Phase_5,39,9999,9999,9999,967603304
1019,23,Ticks_Phase_5,40,9999,9999,9999,968104040
1019,23,Ticks_Phase_5,41,9999,9999,9999,968603732
1019,23,Ticks_Phase_5,42,9999,9999,9999,969103416
1019,23,Ticks_Phase_5,43,9999,9999,9999,969603180
1019,23,Ticks_Phase_5,44,9999,9999,9999,970103916
1019,23,Ticks_Phase_5,45,9999,9999,9999,970603604
1019,23,Ticks_Phase_5,46,9999,9999,9999,971103292
1019,23,Ticks_Phase_5,47,9999,9999,9999,971604028
1019,23,Ticks_Phase_5,48,9999,9999,9999,972113976
1019,23,Ticks_Phase_5,49,9999,9999,9999,972613748
1019,23,Ticks_Phase_5,50,9999,9999,9999,973113436
1019,23,Ticks_Phase_5,51,9999,9999,9999,973613168
1019,23,Ticks_Phase_5,52,9999,9999,9999,974113904
1019,23,Ticks_Phase_5,53,9999,9999,9999,974613592
1019,23,Ticks_Phase_5,54,9999,9999,9999,975113280
1019,23,Ticks_Phase_5,55,9999,9999,9999,975614020
1019,23,Ticks_Phase_5,56,9999,9999,9999,976113784
1019,23,Ticks_Phase_5,57,9999,9999,9999,976613468
1019,23,Ticks_Phase_5,58,9999,9999,9999,977113156
1019,23,Ticks_Phase_5,59,9999,9999,9999,977613940
1019,23,Ticks_Phase_5,60,9999,9999,9999,978113628
1019,23,Ticks_Phase_5,61,9999,9999,9999,978613316
1019,23,Ticks_Phase_5,62,9999,9999,9999,979114052
1019,23,Ticks_Phase_5,63,9999,9999,9999,979613812
1019,23,Ticks_Phase_5,64,9999,9999,9999,980133948
1019,23,Ticks_Phase_5,65,9999,9999,9999,980633712
1019,23,Ticks_Phase_5,66,9999,9999,9999,981133396
1019,23,Ticks_Phase_5,67,9999,9999,9999,981633088
1019,23,Ticks_Phase_5,68,9999,9999,9999,982133824
1019,23,Ticks_Phase_5,69,9999,9999,9999,982633588
1019,23,Ticks_Phase_5,70,9999,9999,9999,983133276
1019,23,Ticks_Phase_5,71,9999,9999,9999,983634008
1019,23,Ticks_Phase_5,72,9999,9999,9999,984133696
1019,23,Ticks_Phase_5,73,9999,9999,9999,984633468
1019,23,Ticks_Phase_5,74,9999,9999,9999,985133152
1019,23,Ticks_Phase_5,75,9999,9999,9999,985633888
1019,23,Ticks_Phase_5,76,9999,9999,9999,986133644
1019,23,Ticks_Phase_5,77,9999,9999,9999,986633340
1019,23,Ticks_Phase_5,78,9999,9999,9999,987134072
1019,23,Ticks_Phase_5,79,9999,9999,9999,987633752
1019,23,Ticks_Phase_5,80,9999,9999,9999,988133448
1019,23,Ticks_Phase_5,81,9999,9999,9999,988613748
1019,23,Ticks_Phase_5,82,9999,9999,9999,989113404
1019,23,Ticks_Phase_5,83,9999,9999,9999,989613168
1019,23,Ticks_Phase_5,84,9999,9999,9999,990113900
1019,23,Ticks_Phase_5,85,9999,9999,9999,990613588
1019,23,Ticks_Phase_5,86,9999,9999,9999,991113276
1019,23,Ticks_Phase_5,87,9999,9999,9999,991614016
1019,23,Ticks_Phase_5,88,9999,9999,9999,992113772
1019,23,Ticks_Phase_5,89,9999,9999,9999,992613464
1019,23,Ticks_Phase_5,90,9999,9999,9999,993113148
1019,23,Ticks_Phase_5,91,9999,9999,9999,993613884
1019,23,Ticks_Phase_5,92,9999,9999,9999,994113648
1019,23,Ticks_Phase_5,93,9999,9999,9999,994613336
1019,23,Ticks_Phase_5,94,9999,9999,9999,995114072
1019,23,Ticks_Phase_5,95,9999,9999,9999,995613760
1019,23,Ticks_Phase_5,96,9999,9999,9999,996113528
1019,23,Ticks_Phase_5,97,9999,9999,9999,996564092
1019,23,Ticks_Phase_5,98,9999,9999,9999,997063756
1019,23,Ticks_Phase_5,99,9999,9999,9999,997563512
1019,23,Ticks_Phase_5,100,9999,9999,9999,998063184
1019,23,Ticks_Phase_5,101,9999,9999,9999,998563932
1019,23,Ticks_Phase_5,102,9999,9999,9999,999063628
1019,23,Ticks_Phase_5,103,9999,9999,9999,999563384
1019,23,Ticks_Phase_5,104,9999,9999,9999,1000064120
1019,23,Ticks_Phase_5,105,9999,9999,9999,1000574076
1019,23,Ticks_Phase_5,106,9999,9999,9999,1001073760
1019,23,Ticks_Phase_5,107,9999,9999,9999,1001573452
1019,23,Ticks_Phase_5,108,9999,9999,9999,1002073212
1019,23,Ticks_Phase_5,109,9999,9999,9999,1002573940
1019,23,Ticks_Phase_5,110,9999,9999,9999,1003073636
1019,23,Ticks_Phase_5,111,9999,9999,9999,1003573316
1019,23,Ticks_Phase_5,112,9999,9999,9999,1004074052
1019,23,Ticks_Phase_5,113,9999,9999,9999,1004573812
1019,23,Ticks_Phase_5,114,9999,9999,9999,1005123676
1019,23,Ticks_Phase_5,115,9999,9999,9999,1005623368
1019,23,Ticks_Phase_5,116,9999,9999,9999,1006123064
1019,23,Ticks_Phase_5,117,9999,9999,9999,1006623872
1019,23,Ticks_Phase_5,118,9999,9999,9999,1007123560
1019,23,Ticks_Phase_5,119,9999,9999,9999,1007623244
1019,23,Ticks_Phase_5,120,9999,9999,9999,1008123984
1019,23,Ticks_Phase_5,121,9999,9999,9999,1008623740
1019,23,Ticks_Phase_5,122,9999,9999,9999,1009123428
1019,23,Ticks_Phase_5,123,9999,9999,9999,1009623124
1019,23,Ticks_Phase_5,124,9999,9999,9999,1010123900
1019,23,Ticks_Phase_5,125,9999,9999,9999,1010623588
1019,23,Ticks_Phase_5,126,9999,9999,9999,1011123284
1019,23,Ticks_Phase_5,127,9999,9999,9999,1011624012
1019,23,Ticks_Phase_5,128,9999,9999,9999,1012123776
1019,23,Ticks_Phase_5,129,9999,9999,9999,1012623464
1019,23,Ticks_Phase_5,130,9999,9999,9999,1013123152
1019,23,Ticks_Phase_5,131,9999,9999,9999,1013723200
1019,23,Ticks_Phase_5,132,9999,9999,9999,1014223960
1019,23,Ticks_Phase_5,133,9999,9999,9999,1014723696
1019,23,Ticks_Phase_5,134,9999,9999,9999,1015223388
1019,23,Ticks_Phase_5,135,9999,9999,9999,1015723076
1019,23,Ticks_Phase_5,136,9999,9999,9999,1016223804
1019,23,Ticks_Phase_5,137,9999,9999,9999,1016723568
1019,23,Ticks_Phase_5,138,9999,9999,9999,1017223256
1019,23,Ticks_Phase_5,139,9999,9999,9999,1017723992
1019,23,Ticks_Phase_5,140,9999,9999,9999,1018223680
1019,23,Ticks_Phase_5,141,9999,9999,9999,1018723444
1019,23,Ticks_Phase_5,142,9999,9999,9999,1019223132
1019,23,Ticks_Phase_5,143,9999,9999,9999,1019723868
1019,23,Ticks_Phase_5,144,9999,9999,9999,1020223556
1019,23,Ticks_Phase_5,145,9999,9999,9999,1020723320
1019,23,Ticks_Phase_5,146,9999,9999,9999,1021224052
1019,23,Ticks_Phase_5,147,9999,9999,9999,1021723740
1019,23,Ticks_Phase_5,148,9999,9999,9999,1022223436
1019,23,Ticks_Phase_5,149,9999,9999,9999,1022723192
1019,23,Ticks_Phase_5,150,9999,9999,9999,1023123560
1019,23,Ticks_Phase_5,151,9999,9999,9999,1023623248
1019,23,Ticks_Phase_5,152,9999,9999,9999,1024124000
1019,23,Ticks_Phase_5,153,9999,9999,9999,1024623688
1019,23,Ticks_Phase_5,154,9999,9999,9999,1025123384
1019,23,Ticks_Phase_5,155,9999,9999,9999,1025623148
1019,23,Ticks_Phase_5,156,9999,9999,9999,1026123876
1019,23,Ticks_Phase_5,157,9999,9999,9999,1026623568
1019,23,Ticks_Phase_5,158,9999,9999,9999,1027123260
1019,23,Ticks_Phase_5,159,9999,9999,9999,1027623992
1019,23,Ticks_Phase_5,160,9999,9999,9999,1028123752
1019,23,Ticks_Phase_5,161,9999,9999,9999,1028623440
1019,23,Ticks_Phase_5,162,9999,9999,9999,1029123188
1019,23,Ticks_Phase_5,163,9999,9999,9999,1029623920
1019,23,Ticks_Phase_5,164,9999,9999,9999,1030123652
1019,23,Ticks_Phase_5,165,9999,9999,9999,1030623296
1019,23,Ticks_Phase_5,166,9999,9999,9999,1031124032
1019,23,Ticks_Phase_5,167,9999,9999,9999,1031623768
1019,23,Ticks_Phase_5,168,9999,9999,9999,1032123456
1019,23,Ticks_Phase_5,169,9999,9999,9999,1032623228
10110,22,Ticks_Phase_8,0,5,42,127,1042706744
10110,22,Ticks_Phase_8,1,1,48,36,1043214120
10110,22,Ticks_Phase_8,2,5,42,127,1043506680
10110,22,Ticks_Phase_8,3,1,48,50,1043889876
10110,22,Ticks_Phase_8,4,5,42,127,1044307436
10110,22,Ticks_Phase_8,5,1,48,42,1044722108
10110,22,Ticks_Phase_8,6,5,42,127,1045107000
10110,22,Ticks_Phase_8,7,5,42,127,1045906732
10110,22,Ticks_Phase_8,8,1,48,43,1046061668
10110,22,Ticks_Phase_8,9,5,42,127,1046706668
10110,22,Ticks_Phase_8,10,1,48,43,1046716156
10110,22,Ticks_Phase_8,11,1,48,44,1047409740
10110,22,Ticks_Phase_8,12,5,42,127,1047507356
10110,22,Ticks_Phase_8,13,1,48,42,1048176652
10110,22,Ticks_Phase_8,14,5,42,127,1048306992
10110,22,Ticks_Phase_8,15,1,48,38,1049077784
10110,22,Ticks_Phase_8,16,5,42,127,1049106868
10110,22,Ticks_Phase_8,17,1,48,40,1049874188
10110,22,Ticks_Phase_8,18,5,42,127,1049906580
10110,22,Ticks_Phase_8,19,1,48,41,1050651812
10110,22,Ticks_Phase_8,20,5,42,127,1050707412
10110,22,Ticks_Phase_8,21,1,48,43,1051483276
10110,22,Ticks_Phase_8,22,5,42,127,1051507048
10110,22,Ticks_Phase_8,23,1,48,44,1052256488
10110,22,Ticks_Phase_8,24,5,42,127,1052306760
10110,22,Ticks_Phase_8,25,5,42,127,1053106552
10110,22,Ticks_Phase_8,26,1,48,41,1053108112
10110,22,Ticks_Phase_8,27,5,42,127,1053907260
10110,22,Ticks_Phase_8,28,1,48,35,1053930972
10110,22,Ticks_Phase_8,29,5,42,127,1054706976
10110,22,Ticks_Phase_8,30,1,48,45,1054741992
10110,22,Ticks_Phase_8,31,1,48,44,1055497440
10110,22,Ticks_Phase_8,32,5,42,127,1055506752
10110,22,Ticks_Phase_8,33,1,48,44,1056295576
10110,22,Ticks_Phase_8,34,5,42,127,1056306464
10110,22,Ticks_Phase_8,35,1,48,44,1057095140
10110,22,Ticks_Phase_8,36,5,42,127,1057107448
10110,22,Ticks_Phase_8,37,5,42,127,1057907016
10110,22,Ticks_Phase_8,38,1,48,43,1057909684
10110,22,Ticks_Phase_8,39,1,48,38,1058651120
10110,22,Ticks_Phase_8,40,5,42,127,1058706796
10110,22,Ticks_Phase_8,41,1,48,43,1059492840
10110,22,Ticks_Phase_8,42,5,42,127,1059506432
10110,22,Ticks_Phase_8,43,1,48,47,1060302916
10110,22,Ticks_Phase_8,44,5,42,127,1060307588
10110,22,Ticks_Phase_8,45,5,42,127,1061107008
10110,22,Ticks_Phase_8,46,1,48,46,1061130044
10110,22,Ticks_Phase_8,47,5,42,127,1061906796
10110,22,Ticks_Phase_8,48,1,48,48,1061958816
10110,22,Ticks_Phase_8,49,5,42,127,1062706508
10110,22,Ticks_Phase_8,50,1,48,48,1062737112
10110,22,Ticks_Phase_8,51,5,42,127,1063507488
10110,22,Ticks_Phase_8,52,1,48,47,1063524300
10110,22,Ticks_Phase_8,53,1,48,45,1064273084
10110,22,Ticks_Phase_8,54,5,42,127,1064307192
10110,22,Ticks_Phase_8,55,1,48,46,1065034004
10110,22,Ticks_Phase_8,56,5,42,127,1065106904
10110,22,Ticks_Phase_8,57,5,42,127,1065906476
10110,22,Ticks_Phase_8,58,1,48,39,1065994312
10110,22,Ticks_Phase_8,59,5,42,127,1066686720
10110,22,Ticks_Phase_8,60,1,48,43,1066719444
10110,22,Ticks_Phase_8,61,5,42,127,1067486456
10110,22,Ticks_Phase_8,62,1,48,38,1067544608
10110,22,Ticks_Phase_8,63,5,42,127,1068287288
10110,22,Ticks_Phase_8,64,1,48,44,1068291232
10110,22,Ticks_Phase_8,65,5,42,127,1069087520
10110,22,Ticks_Phase_8,66,1,48,43,1069122016
10110,22,Ticks_Phase_8,67,1,48,41,1069849684
10110,22,Ticks_Phase_8,68,5,42,127,1069886708
10110,22,Ticks_Phase_8,69,1,48,41,1070619508
10110,22,Ticks_Phase_8,70,5,42,127,1070686640
10110,22,Ticks_Phase_8,71,1,48,45,1071451496
10110,22,Ticks_Phase_8,72,5,42,127,1071487248
10110,22,Ticks_Phase_8,73,1,48,28,1072278696
10110,22,Ticks_Phase_8,74,5,42,127,1072287184
10110,22,Ticks_Phase_8,75,5,42,127,1073087272
10110,22,Ticks_Phase_8,76,1,48,24,1073181784
10110,22,Ticks_Phase_8,77,5,42,127,1073886564
10110,22,Ticks_Phase_8,78,1,48,43,1073900912
10110,22,Ticks_Phase_8,79,1,48,43,1074629676
10110,22,Ticks_Phase_8,80,5,42,127,1074687392
10110,22,Ticks_Phase_8,81,1,48,42,1075376520
10110,22,Ticks_Phase_8,82,5,42,127,1075487088
10110,22,Ticks_Phase_8,83,5,42,127,1076286896
10110,22,Ticks_Phase_8,84,1,48,40,1076312252
10110,22,Ticks_Phase_8,85,5,42,127,1077086532
10110,22,Ticks_Phase_8,86,1,48,40,1077102076
10110,22,Ticks_Phase_8,87,5,42,127,1077887292
10110,22,Ticks_Phase_8,88,1,48,35,1077902688
10110,22,Ticks_Phase_8,89,5,42,127,1078687080
10110,22,Ticks_Phase_8,90,1,48,46,1078707648
10110,22,Ticks_Phase_8,91,5,42,127,1079486716
10110,22,Ticks_Phase_8,92,1,48,44,1079519368
10110,22,Ticks_Phase_8,93,5,42,127,1080286528
10110,22,Ticks_Phase_8,94,1,48,48,1080318328
10110,22,Ticks_Phase_8,95,1,48,49,1081093308
10110,22,Ticks_Phase_8,96,5,42,127,1081106676
10110,22,Ticks_Phase_8,97,1,48,46,1081868236
10110,22,Ticks_Phase_8,98,5,42,127,1081906464
10110,22,Ticks_Phase_8,99,1,48,48,1082706168
10110,22,Ticks_Phase_8,100,5,42,127,1082707740
10110,22,Ticks_Phase_8,101,5,42,127,1083507088
10110,22,Ticks_Phase_8,102,1,48,52,1083543520
10110,22,Ticks_Phase_8,103,5,42,127,1084306948
10110,22,Ticks_Phase_8,104,1,48,40,1084336580
10110,22,Ticks_Phase_8,105,5,42,127,1085106584
10110,22,Ticks_Phase_8,106,1,48,43,1085112844
10110,22,Ticks_Phase_8,107,1,48,39,1085902460
10110,22,Ticks_Phase_8,108,5,42,127,1085907288
10110,22,Ticks_Phase_8,109,1,48,39,1086648156
10110,22,Ticks_Phase_8,110,5,42,127,1086707000
10110,22,Ticks_Phase_8,111,5,42,127,1087506940
10110,22,Ticks_Phase_8,112,1,48,46,1087507908
10110,22,Ticks_Phase_8,113,5,42,127,1088306504
10110,22,Ticks_Phase_8,114,1,48,51,1088359048
10110,22,Ticks_Phase_8,115,5,42,127,1089107264
10110,22,Ticks_Phase_8,116,1,48,46,1089110604
10110,22,Ticks_Phase_8,117,1,48,39,1089857892
10110,22,Ticks_Phase_8,118,5,42,127,1089907044
10110,22,Ticks_Phase_8,119,5,42,127,1090706912
10110,22,Ticks_Phase_8,120,1,48,45,1090714516
10110,22,Ticks_Phase_8,121,5,42,127,1091506400
10110,22,Ticks_Phase_8,122,1,48,44,1091568628
10110,22,Ticks_Phase_8,123,5,42,127,1092307408
10110,22,Ticks_Phase_8,124,1,48,47,1092314648
10110,22,Ticks_Phase_8,125,5,42,127,1093107268
10110,22,Ticks_Phase_8,126,1,48,41,1093162208
10110,22,Ticks_Phase_8,127,1,48,43,1093924532
10110,22,Ticks_Phase_8,128,5,42,127,1093946592
10110,22,Ticks_Phase_8,129,1,48,42,1094703728
10110,22,Ticks_Phase_8,130,5,42,127,1094746600
10110,22,Ticks_Phase_8,131,5,42,127,1095547220
10110,22,Ticks_Phase_8,132,1,48,36,1095565768
10110,22,Ticks_Phase_8,133,1,48,35,1096339852
10110,22,Ticks_Phase_8,134,5,42,127,1096346924
10110,22,Ticks_Phase_8,135,5,42,127,1097146864
10110,22,Ticks_Phase_8,136,1,48,43,1097187080
10110,22,Ticks_Phase_8,137,1,48,38,1097937208
10110,22,Ticks_Phase_8,138,5,42,127,1097946448
10110,22,Ticks_Phase_8,139,1,48,38,1098704852
10110,22,Ticks_Phase_8,140,5,42,127,1098747204
10110,22,Ticks_Phase_8,141,1,48,35,1099461112
10110,22,Ticks_Phase_8,142,5,42,127,1099547212
10110,22,Ticks_Phase_8,143,5,42,127,1100346712
10110,22,Ticks_Phase_8,144,1,48,37,1100393180
10110,22,Ticks_Phase_8,145,5,42,127,1101146348
10110,22,Ticks_Phase_8,146,1,48,35,1101165268
10110,22,Ticks_Phase_8,147,5,42,127,1101947256
10110,22,Ticks_Phase_8,148,1,48,39,1101976360
10110,22,Ticks_Phase_8,149,5,42,127,1102747116
10110,22,Ticks_Phase_8,150,1,48,36,1102827024
10110,22,Ticks_Phase_8,151,5,42,127,1103546900
10110,22,Ticks_Phase_8,152,1,48,35,1103595584
10110,22,Ticks_Phase_8,153,1,48,41,1104339412
10110,22,Ticks_Phase_8,154,5,42,127,1104346408
10110,22,Ticks_Phase_8,155,5,42,127,1105147172
10110,22,Ticks_Phase_8,156,1,48,36,1105159124
10110,22,Ticks_Phase_8,157,5,42,127,1105946960
10110,22,Ticks_Phase_8,158,1,48,39,1105965880
10110,22,Ticks_Phase_8,159,5,42,127,1106746820
10110,22,Ticks_Phase_8,160,1,48,41,1106775776
10110,22,Ticks_Phase_8,161,1,48,38,1107467940
10110,22,Ticks_Phase_8,162,5,42,127,1107506464
10110,22,Ticks_Phase_8,163,1,48,37,1108291688
10110,22,Ticks_Phase_8,164,5,42,127,1108307372
10110,22,Ticks_Phase_8,165,5,42,127,1109107088
10110,22,Ticks_Phase_8,166,1,48,38,1109135824
10110,22,Ticks_Phase_8,167,5,42,127,1109906876
10110,22,Ticks_Phase_8,168,1,48,29,1109913208
10110,22,Ticks_Phase_8,169,5,42,127,1110706588
10110,22,Ticks_Phase_8,170,1,48,32,1110774648
10110,22,Ticks_Phase_8,171,1,48,29,1111503732
10110,22,Ticks_Phase_8,172,5,42,127,1111507368
10110,22,Ticks_Phase_8,173,5,42,127,1112306936
10110,22,Ticks_Phase_8,174,1,48,39,1112322780
10110,22,Ticks_Phase_8,175,5,42,127,1113106944
10110,22,Ticks_Phase_8,176,1,48,44,1113146088
10110,22,Ticks_Phase_8,177,1,48,44,1113903324
10110,22,Ticks_Phase_8,178,5,42,127,1113906948
10110,22,Ticks_Phase_8,179,5,42,127,1114707344
10110,22,Ticks_Phase_8,180,1,48,36,1114737496
10110,22,Ticks_Phase_8,181,1,48,37,1115500952
10110,22,Ticks_Phase_8,182,5,42,127,1115507196
10110,22,Ticks_Phase_8,183,5,42,127,1116306768
10110,22,Ticks_Phase_8,184,1,48,32,1116366748
10110,22,Ticks_Phase_8,185,1,48,35,1117096632
10110,22,Ticks_Phase_8,186,5,42,127,1117106472
10110,22,Ticks_Phase_8,187,5,42,127,1117907412
10110,22,Ticks_Phase_8,188,1,48,35,1117914728
10110,22,Ticks_Phase_8,189,5,42,127,1118706976
10110,22,Ticks_Phase_8,190,1,48,36,1118714728
10110,22,Ticks_Phase_8,191,1,48,37,1119464868
10110,22,Ticks_Phase_8,192,5,42,127,1119506684
10110,22,Ticks_Phase_8,193,5,42,127,1120226868
10110,22,Ticks_Phase_8,194,1,48,33,1120266912
10110,22,Ticks_Phase_8,195,1,48,31,1121025452
10110,22,Ticks_Phase_8,196,5,42,127,1121026944
10110,22,Ticks_Phase_8,197,1,48,34,1121788512
10110,22,Ticks_Phase_8,198,5,42,127,1121827256
10110,22,Ticks_Phase_8,199,1,48,37,1122582752
10110,22,Ticks_Phase_8,200,5,42,127,1122626896
10110,22,Ticks_Phase_8,201,1,48,36,1123395500
10110,22,Ticks_Phase_8,202,5,42,127,1123426608
10110,22,Ticks_Phase_8,203,1,48,39,1124212804
10110,22,Ticks_Phase_8,204,5,42,127,1124226396
10110,22,Ticks_Phase_8,205,1,48,36,1125018736
10110,22,Ticks_Phase_8,206,5,42,127,1125027228
10110,22,Ticks_Phase_8,207,1,48,37,1125784752
10110,22,Ticks_Phase_8,208,5,42,127,1125826940
10110,22,Ticks_Phase_8,209,5,42,127,1126626684
10110,22,Ticks_Phase_8,210,1,48,38,1126655192
10110,22,Ticks_Phase_8,211,5,42,127,1127426692
10110,22,Ticks_Phase_8,212,1,48,30,1127428332
10110,22,Ticks_Phase_8,213,5,42,127,1128227152
10110,22,Ticks_Phase_8,214,1,48,36,1128272576
10110,22,Ticks_Phase_8,215,5,42,127,1129026792
10110,22,Ticks_Phase_8,216,1,48,35,1129091908
10110,22,Ticks_Phase_8,217,5,42,127,1129826800
10110,22,Ticks_Phase_8,218,1,48,29,1129842120
10110,22,Ticks_Phase_8,219,1,48,33,1130599212
10110,22,Ticks_Phase_8,220,5,42,127,1130626504
10110,22,Ticks_Phase_8,221,5,42,127,1131427048
10110,22,Ticks_Phase_8,222,1,48,35,1131431660
10110,22,Ticks_Phase_8,223,1,48,35,1132200804
10110,22,Ticks_Phase_8,224,5,42,127,1132226976
10110,22,Ticks_Phase_8,225,1,48,38,1133011180
10110,22,Ticks_Phase_8,226,5,42,127,1133026640
10110,22,Ticks_Phase_8,227,1,48,31,1133820400
10110,22,Ticks_Phase_8,228,5,42,127,1133907452
10110,22,Ticks_Phase_8,229,5,42,127,1134707024
10110,22,Ticks_Phase_8,230,5,42,127,1135506908
10110,22,Ticks_Phase_8,231,1,48,32,1135537288
10110,22,Ticks_Phase_8,232,5,42,127,1136306616
10110,22,Ticks_Phase_8,233,1,48,23,1136398804
10110,22,Ticks_Phase_8,234,1,48,19,1137090864
10110,22,Ticks_Phase_8,235,5,42,127,1137107468
10110,22,Ticks_Phase_8,236,1,48,26,1137854476
10110,22,Ticks_Phase_8,237,5,42,127,1137906956
10110,22,Ticks_Phase_8,238,5,42,127,1138706676
10110,22,Ticks_Phase_8,239,1,48,31,1138821892
10110,22,Ticks_Phase_8,240,5,42,127,1139506756
10110,22,Ticks_Phase_8,241,1,48,33,1139658628
10110,22,Ticks_Phase_8,242,5,42,127,1140307516
10110,22,Ticks_Phase_8,243,1,48,19,1140354068
10110,22,Ticks_Phase_8,244,1,48,19,1141043308
10110,22,Ticks_Phase_8,245,5,42,127,1141107072
10110,22,Ticks_Phase_8,246,1,48,22,1141810144
10110,22,Ticks_Phase_8,247,5,42,127,1141906844
10110,22,Ticks_Phase_8,248,5,42,127,1142706652
10110,22,Ticks_Phase_8,249,1,48,31,1142739896
10110,22,Ticks_Phase_8,250,5,42,127,1143507508
10110,22,Ticks_Phase_8,251,1,48,29,1143525008
10110,22,Ticks_Phase_8,252,5,42,127,1144306996
10110,22,Ticks_Phase_8,253,1,48,33,1144321492
10110,22,Ticks_Phase_8,254,5,42,127,1145106708
10110,22,Ticks_Phase_8,255,1,48,33,1145117612
10110,22,Ticks_Phase_8,256,1,48,32,1145889232
10110,22,Ticks_Phase_8,257,5,42,127,1145906636
10110,22,Ticks_Phase_8,258,1,48,34,1146691636
10110,22,Ticks_Phase_8,259,5,42,127,1146707468
10110,22,Ticks_Phase_8,260,1,48,38,1147504984
10110,22,Ticks_Phase_8,261,5,42,127,1147666780
10110,22,Ticks_Phase_8,262,5,42,127,1148466660
10110,22,Ticks_Phase_8,263,1,48,26,1148482880
10110,22,Ticks_Phase_8,264,5,42,127,1149267420
10110,22,Ticks_Phase_8,265,1,48,31,1149276312
10110,22,Ticks_Phase_8,266,5,42,127,1150067056
10110,22,Ticks_Phase_8,267,1,48,33,1150090768
10110,22,Ticks_Phase_8,268,1,48,35,1150858272
10110,22,Ticks_Phase_8,269,5,42,127,1150866836
10110,22,Ticks_Phase_8,270,5,42,127,1151666480
10110,22,Ticks_Phase_8,271,1,48,34,1151688172
10110,22,Ticks_Phase_8,272,1,48,36,1152436800
10110,22,Ticks_Phase_8,273,5,42,127,1152467480
10110,22,Ticks_Phase_8,274,1,48,34,1153230388
10110,22,Ticks_Phase_8,275,5,42,127,1153267044
10110,22,Ticks_Phase_8,276,5,42,127,1154066688
10110,22,Ticks_Phase_8,277,1,48,34,1154110240
10110,22,Ticks_Phase_8,278,5,42,127,1154866476
10110,22,Ticks_Phase_8,279,1,48,35,1155049272
10110,22,Ticks_Phase_8,280,5,42,127,1155667532
10110,22,Ticks_Phase_8,281,1,48,27,1155851828
10110,22,Ticks_Phase_8,282,1,48,27,1156383780
10110,22,Ticks_Phase_8,283,5,42,127,1156467236
10110,22,Ticks_Phase_8,284,1,48,23,1157133760
10110,22,Ticks_Phase_8,285,5,42,127,1157266860
10110,22,Ticks_Phase_8,286,5,42,127,1158066444
10110,22,Ticks_Phase_8,287,1,48,29,1158100140
10110,22,Ticks_Phase_8,288,1,48,28,1158834128
10110,22,Ticks_Phase_8,289,5,42,127,1158867444
10110,22,Ticks_Phase_8,290,1,48,30,1159632892
10110,22,Ticks_Phase_8,291,5,42,127,1159667152
10110,22,Ticks_Phase_8,292,5,42,127,1160466872
10110,22,Ticks_Phase_8,293,1,48,29,1160483760
10110,22,Ticks_Phase_8,294,5,42,127,1161266436
10110,22,Ticks_Phase_8,295,1,48,29,1161310140
10110,22,Ticks_Phase_8,296,5,42,127,1162067416
10110,22,Ticks_Phase_8,297,1,48,29,1162083784
10110,22,Ticks_Phase_8,298,5,42,127,1162707396
10110,22,Ticks_Phase_8,299,1,48,34,1162887924
10110,22,Ticks_Phase_8,300,5,42,127,1163507328
10110,22,Ticks_Phase_8,301,1,48,24,1163675660
10110,22,Ticks_Phase_8,302,5,42,127,1164306744
10110,22,Ticks_Phase_8,303,1,48,18,1164391708
10110,22,Ticks_Phase_8,304,5,42,127,1165106528
10110,22,Ticks_Phase_8,305,1,48,25,1165126800
10110,22,Ticks_Phase_8,306,5,42,127,1165907360
10110,22,Ticks_Phase_8,307,1,48,32,1165945084
10110,22,Ticks_Phase_8,308,5,42,127,1166707144
10110,22,Ticks_Phase_8,309,1,48,38,1166859840
10110,22,Ticks_Phase_8,310,5,42,127,1167506784
10110,22,Ticks_Phase_8,311,1,48,25,1167592748
10110,22,Ticks_Phase_8,312,1,48,24,1168270584
10110,22,Ticks_Phase_8,313,5,42,127,1168306488
10110,22,Ticks_Phase_8,314,1,48,28,1169078156
10110,22,Ticks_Phase_8,315,5,42,127,1169107268
10110,22,Ticks_Phase_8,316,1,48,26,1169874292
10110,22,Ticks_Phase_8,317,5,42,127,1169907128
10110,22,Ticks_Phase_8,318,1,48,30,1170690188
10110,22,Ticks_Phase_8,319,5,42,127,1170706916
10110,22,Ticks_Phase_8,320,5,42,127,1171506636
10110,22,Ticks_Phase_8,321,1,48,33,1171524648
10110,22,Ticks_Phase_8,322,1,48,30,1172271032
10110,22,Ticks_Phase_8,323,5,42,127,1172307312
10110,22,Ticks_Phase_8,324,5,42,127,1173107180
10110,22,Ticks_Phase_8,325,1,48,28,1173112464
10110,22,Ticks_Phase_8,326,5,42,127,1173906892
10110,22,Ticks_Phase_8,327,1,48,28,1173931204
10110,22,Ticks_Phase_8,328,1,48,30,1174697360
10110,22,Ticks_Phase_8,329,5,42,127,1174706448
10110,22,Ticks_Phase_8,330,1,48,27,1175487408
10110,22,Ticks_Phase_8,331,5,42,127,1175507456
10110,22,Ticks_Phase_8,332,5,42,127,1176307248
10110,22,Ticks_Phase_8,333,1,48,35,1176320924
10110,22,Ticks_Phase_8,334,5,42,127,1177106664
10110,22,Ticks_Phase_8,335,1,48,35,1177157936
10110,22,Ticks_Phase_8,336,1,48,27,1177892104
10110,22,Ticks_Phase_8,337,5,42,127,1177906668
10110,22,Ticks_Phase_8,0,9999,9999,9999,1042704456
10110,22,Ticks_Phase_8,1,9999,9999,9999,1043504240
10110,22,Ticks_Phase_8,2,9999,9999,9999,1044305000
10110,22,Ticks_Phase_8,3,9999,9999,9999,1045104708
10110,22,Ticks_Phase_8,4,9999,9999,9999,1045904444
10110,22,Ticks_Phase_8,5,9999,9999,9999,1046704232
10110,22,Ticks_Phase_8,6,9999,9999,9999,1047504992
10110,22,Ticks_Phase_8,7,9999,9999,9999,1048304704
10110,22,Ticks_Phase_8,8,9999,9999,9999,1049104504
10110,22,Ticks_Phase_8,9,9999,9999,9999,1049904216
10110,22,Ticks_Phase_8,10,9999,9999,9999,1050704976
10110,22,Ticks_Phase_8,11,9999,9999,9999,1051504760
10110,22,Ticks_Phase_8,12,9999,9999,9999,1052304472
10110,22,Ticks_Phase_8,13,9999,9999,9999,1053104188
10110,22,Ticks_Phase_8,14,9999,9999,9999,1053904972
10110,22,Ticks_Phase_8,15,9999,9999,9999,1054704760
10110,22,Ticks_Phase_8,16,9999,9999,9999,1055504464
10110,22,Ticks_Phase_8,17,9999,9999,9999,1056304252
10110,22,Ticks_Phase_8,18,9999,9999,9999,1057105008
10110,22,Ticks_Phase_8,19,9999,9999,9999,1057904728
10110,22,Ticks_Phase_8,20,9999,9999,9999,1058704508
10110,22,Ticks_Phase_8,21,9999,9999,9999,1059504220
10110,22,Ticks_Phase_8,22,9999,9999,9999,1060305004
10110,22,Ticks_Phase_8,23,9999,9999,9999,1061104720
10110,22,Ticks_Phase_8,24,9999,9999,9999,1061904504
10110,22,Ticks_Phase_8,25,9999,9999,9999,1062704216
10110,22,Ticks_Phase_8,26,9999,9999,9999,1063504976
10110,22,Ticks_Phase_8,27,9999,9999,9999,1064304756
10110,22,Ticks_Phase_8,28,9999,9999,9999,1065104464
10110,22,Ticks_Phase_8,29,9999,9999,9999,1065904184
10110,22,Ticks_Phase_8,30,9999,9999,9999,1066684504
10110,22,Ticks_Phase_8,31,9999,9999,9999,1067484240
10110,22,Ticks_Phase_8,32,9999,9999,9999,1068285000
10110,22,Ticks_Phase_8,33,9999,9999,9999,1069084784
10110,22,Ticks_Phase_8,34,9999,9999,9999,1069884492
10110,22,Ticks_Phase_8,35,9999,9999,9999,1070684280
10110,22,Ticks_Phase_8,36,9999,9999,9999,1071485036
10110,22,Ticks_Phase_8,37,9999,9999,9999,1072284748
10110,22,Ticks_Phase_8,38,9999,9999,9999,1073084540
10110,22,Ticks_Phase_8,39,9999,9999,9999,1073884276
10110,22,Ticks_Phase_8,40,9999,9999,9999,1074685028
10110,22,Ticks_Phase_8,41,9999,9999,9999,1075484796
10110,22,Ticks_Phase_8,42,9999,9999,9999,1076284532
10110,22,Ticks_Phase_8,43,9999,9999,9999,1077084244
10110,22,Ticks_Phase_8,44,9999,9999,9999,1077885000
10110,22,Ticks_Phase_8,45,9999,9999,9999,1078684788
10110,22,Ticks_Phase_8,46,9999,9999,9999,1079484500
10110,22,Ticks_Phase_8,47,9999,9999,9999,1080284236
10110,22,Ticks_Phase_8,48,9999,9999,9999,1081104460
10110,22,Ticks_Phase_8,49,9999,9999,9999,1081904248
10110,22,Ticks_Phase_8,50,9999,9999,9999,1082705012
10110,22,Ticks_Phase_8,51,9999,9999,9999,1083504724
10110,22,Ticks_Phase_8,52,9999,9999,9999,1084304508
10110,22,Ticks_Phase_8,53,9999,9999,9999,1085104220
10110,22,Ticks_Phase_8,54,9999,9999,9999,1085905000
10110,22,Ticks_Phase_8,55,9999,9999,9999,1086704712
10110,22,Ticks_Phase_8,56,9999,9999,9999,1087504504
10110,22,Ticks_Phase_8,57,9999,9999,9999,1088304216
10110,22,Ticks_Phase_8,58,9999,9999,9999,1089104972
10110,22,Ticks_Phase_8,59,9999,9999,9999,1089904756
10110,22,Ticks_Phase_8,60,9999,9999,9999,1090704472
10110,22,Ticks_Phase_8,61,9999,9999,9999,1091504184
10110,22,Ticks_Phase_8,62,9999,9999,9999,1092304968
10110,22,Ticks_Phase_8,63,9999,9999,9999,1093104752
10110,22,Ticks_Phase_8,64,9999,9999,9999,1093944376
10110,22,Ticks_Phase_8,65,9999,9999,9999,1094744164
10110,22,Ticks_Phase_8,66,9999,9999,9999,1095544928
10110,22,Ticks_Phase_8,67,9999,9999,9999,1096344636
10110,22,Ticks_Phase_8,68,9999,9999,9999,1097144428
10110,22,Ticks_Phase_8,69,9999,9999,9999,1097944156
10110,22,Ticks_Phase_8,70,9999,9999,9999,1098744916
10110,22,Ticks_Phase_8,71,9999,9999,9999,1099544700
10110,22,Ticks_Phase_8,72,9999,9999,9999,1100344420
10110,22,Ticks_Phase_8,73,9999,9999,9999,1101144132
10110,22,Ticks_Phase_8,74,9999,9999,9999,1101944892
10110,22,Ticks_Phase_8,75,9999,9999,9999,1102744680
10110,22,Ticks_Phase_8,76,9999,9999,9999,1103544388
10110,22,Ticks_Phase_8,77,9999,9999,9999,1104344120
10110,22,Ticks_Phase_8,78,9999,9999,9999,1105144956
10110,22,Ticks_Phase_8,79,9999,9999,9999,1105944668
10110,22,Ticks_Phase_8,80,9999,9999,9999,1106744380
10110,22,Ticks_Phase_8,81,9999,9999,9999,1107504248
10110,22,Ticks_Phase_8,82,9999,9999,9999,1108305008
10110,22,Ticks_Phase_8,83,9999,9999,9999,1109104724
10110,22,Ticks_Phase_8,84,9999,9999,9999,1109904440
10110,22,Ticks_Phase_8,85,9999,9999,9999,1110704224
10110,22,Ticks_Phase_8,86,9999,9999,9999,1111505004
10110,22,Ticks_Phase_8,87,9999,9999,9999,1112304724
10110,22,Ticks_Phase_8,88,9999,9999,9999,1113104508
10110,22,Ticks_Phase_8,89,9999,9999,9999,1113904216
10110,22,Ticks_Phase_8,90,9999,9999,9999,1114704980
10110,22,Ticks_Phase_8,91,9999,9999,9999,1115504760
10110,22,Ticks_Phase_8,92,9999,9999,9999,1116304480
10110,22,Ticks_Phase_8,93,9999,9999,9999,1117104184
10110,22,Ticks_Phase_8,94,9999,9999,9999,1117904972
10110,22,Ticks_Phase_8,95,9999,9999,9999,1118704760
10110,22,Ticks_Phase_8,96,9999,9999,9999,1119504468
10110,22,Ticks_Phase_8,97,9999,9999,9999,1120224356
10110,22,Ticks_Phase_8,98,9999,9999,9999,1121024068
10110,22,Ticks_Phase_8,99,9999,9999,9999,1121824896
10110,22,Ticks_Phase_8,100,9999,9999,9999,1122624604
10110,22,Ticks_Phase_8,101,9999,9999,9999,1123424320
10110,22,Ticks_Phase_8,102,9999,9999,9999,1124224104
10110,22,Ticks_Phase_8,103,9999,9999,9999,1125024864
10110,22,Ticks_Phase_8,104,9999,9999,9999,1125824576
10110,22,Ticks_Phase_8,105,9999,9999,9999,1126624316
10110,22,Ticks_Phase_8,106,9999,9999,9999,1127424104
10110,22,Ticks_Phase_8,107,9999,9999,9999,1128224864
10110,22,Ticks_Phase_8,108,9999,9999,9999,1129024576
10110,22,Ticks_Phase_8,109,9999,9999,9999,1129824364
10110,22,Ticks_Phase_8,110,9999,9999,9999,1130624068
10110,22,Ticks_Phase_8,111,9999,9999,9999,1131424832
10110,22,Ticks_Phase_8,112,9999,9999,9999,1132224612
10110,22,Ticks_Phase_8,113,9999,9999,9999,1133024348
10110,22,Ticks_Phase_8,114,9999,9999,9999,1133905012
10110,22,Ticks_Phase_8,115,9999,9999,9999,1134704732
10110,22,Ticks_Phase_8,116,9999,9999,9999,1135504468
10110,22,Ticks_Phase_8,117,9999,9999,9999,1136304256
10110,22,Ticks_Phase_8,118,9999,9999,9999,1137104956
10110,22,Ticks_Phase_8,119,9999,9999,9999,1137904740
10110,22,Ticks_Phase_8,120,9999,9999,9999,1138704460
10110,22,Ticks_Phase_8,121,9999,9999,9999,1139504244
10110,22,Ticks_Phase_8,122,9999,9999,9999,1140305004
10110,22,Ticks_Phase_8,123,9999,9999,9999,1141104708
10110,22,Ticks_Phase_8,124,9999,9999,9999,1141904480
10110,22,Ticks_Phase_8,125,9999,9999,9999,1142704212
10110,22,Ticks_Phase_8,126,9999,9999,9999,1143504996
10110,22,Ticks_Phase_8,127,9999,9999,9999,1144304708
10110,22,Ticks_Phase_8,128,9999,9999,9999,1145104492
10110,22,Ticks_Phase_8,129,9999,9999,9999,1145904196
10110,22,Ticks_Phase_8,130,9999,9999,9999,1146704956
10110,22,Ticks_Phase_8,131,9999,9999,9999,1147664488
10110,22,Ticks_Phase_8,132,9999,9999,9999,1148464224
10110,22,Ticks_Phase_8,133,9999,9999,9999,1149264984
10110,22,Ticks_Phase_8,134,9999,9999,9999,1150064696
10110,22,Ticks_Phase_8,135,9999,9999,9999,1150864472
10110,22,Ticks_Phase_8,136,9999,9999,9999,1151664192
10110,22,Ticks_Phase_8,137,9999,9999,9999,1152464968
10110,22,Ticks_Phase_8,138,9999,9999,9999,1153264756
10110,22,Ticks_Phase_8,139,9999,9999,9999,1154064472
10110,22,Ticks_Phase_8,140,9999,9999,9999,1154864184
10110,22,Ticks_Phase_8,141,9999,9999,9999,1155665020
10110,22,Ticks_Phase_8,142,9999,9999,9999,1156464724
10110,22,Ticks_Phase_8,143,9999,9999,9999,1157264496
10110,22,Ticks_Phase_8,144,9999,9999,9999,1158064228
10110,22,Ticks_Phase_8,145,9999,9999,9999,1158865004
10110,22,Ticks_Phase_8,146,9999,9999,9999,1159664716
10110,22,Ticks_Phase_8,147,9999,9999,9999,1160464508
10110,22,Ticks_Phase_8,148,9999,9999,9999,1161264220
10110,22,Ticks_Phase_8,149,9999,9999,9999,1162064980
10110,22,Ticks_Phase_8,150,9999,9999,9999,1162704956
10110,22,Ticks_Phase_8,151,9999,9999,9999,1163504740
10110,22,Ticks_Phase_8,152,9999,9999,9999,1164304452
10110,22,Ticks_Phase_8,153,9999,9999,9999,1165104240
10110,22,Ticks_Phase_8,154,9999,9999,9999,1165904996
10110,22,Ticks_Phase_8,155,9999,9999,9999,1166704708
10110,22,Ticks_Phase_8,156,9999,9999,9999,1167504492
10110,22,Ticks_Phase_8,157,9999,9999,9999,1168304200
10110,22,Ticks_Phase_8,158,9999,9999,9999,1169104980
10110,22,Ticks_Phase_8,159,9999,9999,9999,1169904768
10110,22,Ticks_Phase_8,160,9999,9999,9999,1170704480
10110,22,Ticks_Phase_8,161,9999,9999,9999,1171504196
10110,22,Ticks_Phase_8,162,9999,9999,9999,1172304948
10110,22,Ticks_Phase_8,163,9999,9999,9999,1173104744
10110,22,Ticks_Phase_8,164,9999,9999,9999,1173904452
10110,22,Ticks_Phase_8,165,9999,9999,9999,1174704236
10110,22,Ticks_Phase_8,166,9999,9999,9999,1175505016
10110,22,Ticks_Phase_8,167,9999,9999,9999,1176304736
10110,22,Ticks_Phase_8,168,9999,9999,9999,1177104448
10110,22,Ticks_Phase_8,169,9999,9999,9999,1177904228
10111,25,Jits_Pract_5,0,5,56,103,1225711080
10111,25,Jits_Pract_5,1,5,63,98,1225714328
10111,25,Jits_Pract_5,2,5,80,127,1225717372
10111,25,Jits_Pract_5,0,5,56,103,1226210580
10111,25,Jits_Pract_5,1,5,63,98,1226213832
10111,25,Jits_Pract_5,2,5,80,127,1226216876
10111,25,Jits_Pract_5,0,5,56,103,1226711816
10111,25,Jits_Pract_5,1,5,80,127,1226720520
10111,25,Jits_Pract_5,2,5,63,98,1226741276
10111,25,Jits_Pract_5,0,5,63,98,1227161044
10111,25,Jits_Pract_5,1,5,80,127,1227190724
10111,25,Jits_Pract_5,2,5,56,103,1227201068
10111,25,Jits_Pract_5,0,5,80,127,1227721256
10111,25,Jits_Pract_5,1,5,56,103,1227731600
10111,25,Jits_Pract_5,2,5,63,98,1227761128
10111,25,Jits_Pract_5,0,5,63,98,1228210496
10111,25,Jits_Pract_5,1,5,56,103,1228241392
10111,25,Jits_Pract_5,2,5,80,127,1228250616
10111,25,Jits_Pract_5,0,5,56,103,1228671640
10111,25,Jits_Pract_5,1,5,63,98,1228720424
10111,25,Jits_Pract_5,2,5,80,127,1228741032
10111,25,Jits_Pract_5,0,5,80,127,1229170988
10111,25,Jits_Pract_5,1,5,63,98,1229221488
10111,25,Jits_Pract_5,2,5,56,103,1229261228
10111,25,Jits_Pract_5,0,5,56,103,1229670880
10111,25,Jits_Pract_5,1,5,63,98,1229700556
10111,25,Jits_Pract_5,2,5,80,127,1229771008
10111,25,Jits_Pract_5,0,5,56,103,1230170548
10111,25,Jits_Pract_5,1,5,80,127,1230231016
10111,25,Jits_Pract_5,2,5,63,98,1230260692
10111,25,Jits_Pract_5,0,5,56,103,1230680408
10111,25,Jits_Pract_5,1,5,63,98,1230690828
10111,25,Jits_Pract_5,2,5,80,127,1230730540
10111,25,Jits_Pract_5,0,5,63,98,1231170856
10111,25,Jits_Pract_5,1,5,80,127,1231250804
10111,25,Jits_Pract_5,2,5,56,103,1231261000
10111,25,Jits_Pract_5,0,5,63,98,1231720712
10111,25,Jits_Pract_5,1,5,56,103,1231760872
10111,25,Jits_Pract_5,2,5,80,127,1231763792
10111,25,Jits_Pract_5,0,5,56,103,1232180576
10111,25,Jits_Pract_5,1,5,63,98,1232190772
10111,25,Jits_Pract_5,2,5,80,127,1232230712
10111,25,Jits_Pract_5,0,5,56,103,1232671020
10111,25,Jits_Pract_5,1,5,63,98,1232674088
10111,25,Jits_Pract_5,2,5,80,127,1232690508
10111,25,Jits_Pract_5,0,9999,9999,9999,1225958516
10111,25,Jits_Pract_5,1,9999,9999,9999,1226458168
10111,25,Jits_Pract_5,2,9999,9999,9999,1226958960
10111,25,Jits_Pract_5,3,9999,9999,9999,1227458680
10111,25,Jits_Pract_5,4,9999,9999,9999,1227958340
10111,25,Jits_Pract_5,5,9999,9999,9999,1228459060
10111,25,Jits_Pract_5,6,9999,9999,9999,1228969028
10111,25,Jits_Pract_5,7,9999,9999,9999,1229468772
10111,25,Jits_Pract_5,8,9999,9999,9999,1229968440
10111,25,Jits_Pract_5,9,9999,9999,9999,1230468188
10111,25,Jits_Pract_5,10,9999,9999,9999,1230968900
10111,25,Jits_Pract_5,11,9999,9999,9999,1231468644
10111,25,Jits_Pract_5,12,9999,9999,9999,1231968368
10111,25,Jits_Pract_5,13,9999,9999,9999,1232469068
10111,25,Jits_Pract_5,14,9999,9999,9999,1232968792
10112,25,Jits_Pract_5,0,5,56,103,1287568860
10112,25,Jits_Pract_5,1,5,63,98,1287571808
10112,25,Jits_Pract_5,2,5,80,127,1287575008
10112,25,Jits_Pract_5,0,5,56,103,1288068660
10112,25,Jits_Pract_5,1,5,63,98,1288071836
10112,25,Jits_Pract_5,2,5,80,127,1288074880
10112,25,Jits_Pract_5,3,1,48,16,1288090148
10112,25,Jits_Pract_5,0,5,56,103,1288569264
10112,25,Jits_Pract_5,1,5,80,127,1288578636
10112,25,Jits_Pract_5,2,1,48,13,1288593444
10112,25,Jits_Pract_5,3,5,63,98,1288598864
10112,25,Jits_Pract_5,0,5,63,98,1289018848
10112,25,Jits_Pract_5,1,5,80,127,1289048376
10112,25,Jits_Pract_5,2,5,56,103,1289058792
10112,25,Jits_Pract_5,3,1,48,19,1289080944
10112,25,Jits_Pract_5,0,1,48,21,1289496016
10112,25,Jits_Pract_5,1,5,80,127,1289578840
10112,25,Jits_Pract_5,2,5,56,103,1289589468
10112,25,Jits_Pract_5,3,5,63,98,1289618696
10112,25,Jits_Pract_5,0,5,63,98,1290069328
10112,25,Jits_Pract_5,1,1,48,25,1290089904
10112,25,Jits_Pract_5,2,5,56,103,1290098996
10112,25,Jits_Pract_5,3,5,80,127,1290109340
10112,25,Jits_Pract_5,0,5,56,103,1290518824
10112,25,Jits_Pract_5,1,5,63,98,1290569100
10112,25,Jits_Pract_5,2,5,80,127,1290588808
10112,25,Jits_Pract_5,3,1,48,23,1290599800
10112,25,Jits_Pract_5,0,5,80,127,1291018752
10112,25,Jits_Pract_5,1,1,48,24,1291057016
10112,25,Jits_Pract_5,2,5,63,98,1291068800
10112,25,Jits_Pract_5,3,5,56,103,1291108736
10112,25,Jits_Pract_5,0,5,56,103,1291519504
10112,25,Jits_Pract_5,1,5,63,98,1291549180
10112,25,Jits_Pract_5,2,1,48,26,1291583984
10112,25,Jits_Pract_5,3,5,80,127,1291618704
10112,25,Jits_Pract_5,0,5,56,103,1292019060
10112,25,Jits_Pract_5,1,1,48,24,1292063984
10112,25,Jits_Pract_5,2,5,80,127,1292078624
10112,25,Jits_Pract_5,3,5,63,98,1292109048
10112,25,Jits_Pract_5,0,5,56,103,1292529032
10112,25,Jits_Pract_5,1,5,63,98,1292539524
10112,25,Jits_Pract_5,2,1,48,29,1292556740
10112,25,Jits_Pract_5,3,5,80,127,1292579160
10112,25,Jits_Pract_5,0,5,63,98,1293018920
10112,25,Jits_Pract_5,1,1,48,23,1293032604
10112,25,Jits_Pract_5,2,5,80,127,1293099608
10112,25,Jits_Pract_5,3,5,56,103,1293108532
10112,25,Jits_Pract_5,0,5,63,98,1293569484
10112,25,Jits_Pract_5,1,1,48,27,1293589692
10112,25,Jits_Pract_5,2,5,56,103,1293609184
10112,25,Jits_Pract_5,3,5,80,127,1293612256
10112,25,Jits_Pract_5,0,5,56,103,1294029160
10112,25,Jits_Pract_5,1,5,63,98,1294039652
10112,25,Jits_Pract_5,2,5,80,127,1294079444
10112,25,Jits_Pract_5,3,1,48,15,1294082636
10112,25,Jits_Pract_5,0,5,56,103,1294518796
10112,25,Jits_Pract_5,1,5,63,98,1294521788
10112,25,Jits_Pract_5,2,5,80,127,1294539280
10112,25,Jits_Pract_5,3,1,48,20,1294556568
10112,25,Jits_Pract_5,0,9999,9999,9999,1287816300
10112,25,Jits_Pract_5,1,9999,9999,9999,1288317052
10112,25,Jits_Pract_5,2,9999,9999,9999,1288816760
10112,25,Jits_Pract_5,3,9999,9999,9999,1289316460
10112,25,Jits_Pract_5,4,9999,9999,9999,1289816156
10112,25,Jits_Pract_5,5,9999,9999,9999,1290316896
10112,25,Jits_Pract_5,6,9999,9999,9999,1290816588
10112,25,Jits_Pract_5,7,9999,9999,9999,1291316292
10112,25,Jits_Pract_5,8,9999,9999,9999,1291817044
10112,25,Jits_Pract_5,9,9999,9999,9999,1292316752
10112,25,Jits_Pract_5,10,9999,9999,9999,1292816456
10112,25,Jits_Pract_5,11,9999,9999,9999,1293316164
10112,25,Jits_Pract_5,12,9999,9999,9999,1293816896
10112,25,Jits_Pract_5,13,9999,9999,9999,1294316660
10112,25,Jits_Pract_5,14,9999,9999,9999,1294816348
10113,24,Jits_Pract_8,0,5,56,103,1304043836
10113,24,Jits_Pract_8,1,5,63,98,1304046932
10113,24,Jits_Pract_8,2,5,80,127,1304049984
10113,24,Jits_Pract_8,0,5,56,103,1304843628
10113,24,Jits_Pract_8,1,5,63,98,1304846652
10113,24,Jits_Pract_8,2,5,80,127,1304849700
10113,24,Jits_Pract_8,0,5,80,127,1305583944
10113,24,Jits_Pract_8,1,1,48,29,1305650440
10113,24,Jits_Pract_8,2,5,63,98,1305674000
10113,24,Jits_Pract_8,3,5,56,103,1305684568
10113,24,Jits_Pract_8,0,5,56,103,1306404388
10113,24,Jits_Pract_8,1,5,63,98,1306413540
10113,24,Jits_Pract_8,2,1,48,32,1306455616
10113,24,Jits_Pract_8,3,5,80,127,1306503512
10113,24,Jits_Pract_8,0,5,63,98,1307174416
10113,24,Jits_Pract_8,1,5,80,127,1307204092
10113,24,Jits_Pract_8,2,5,56,103,1307233692
10113,24,Jits_Pract_8,3,1,48,35,1307239508
10113,24,Jits_Pract_8,0,5,56,103,1307973944
10113,24,Jits_Pract_8,1,1,48,37,1308036104
10113,24,Jits_Pract_8,2,5,80,127,1308074556
10113,24,Jits_Pract_8,3,5,63,98,1308123512
10113,24,Jits_Pract_8,0,5,56,103,1308773720
10113,24,Jits_Pract_8,1,5,80,127,1308823920
10113,24,Jits_Pract_8,2,5,63,98,1308863784
10113,24,Jits_Pract_8,3,1,48,33,1308885508
10113,24,Jits_Pract_8,0,5,80,127,1309604276
10113,24,Jits_Pract_8,1,5,63,98,1309633904
10113,24,Jits_Pract_8,2,1,48,36,1309664968
10113,24,Jits_Pract_8,3,5,56,103,1309703428
10113,24,Jits_Pract_8,0,5,63,98,1310433596
10113,24,Jits_Pract_8,1,5,56,103,1310464324
10113,24,Jits_Pract_8,2,5,80,127,1310523660
10113,24,Jits_Pract_8,3,1,48,38,1310532032
10113,24,Jits_Pract_8,0,5,56,103,1311173864
10113,24,Jits_Pract_8,1,5,80,127,1311177088
10113,24,Jits_Pract_8,2,1,48,43,1311256320
10113,24,Jits_Pract_8,3,5,63,98,1311293732
10113,24,Jits_Pract_8,0,5,56,103,1312053568
10113,24,Jits_Pract_8,1,1,48,39,1312064708
10113,24,Jits_Pract_8,2,5,80,127,1312093424
10113,24,Jits_Pract_8,3,5,63,98,1312103916
10113,24,Jits_Pract_8,0,5,56,103,1312813476
10113,24,Jits_Pract_8,1,5,80,127,1312833864
10113,24,Jits_Pract_8,2,1,48,43,1312868068
10113,24,Jits_Pract_8,3,5,63,98,1312913724
10113,24,Jits_Pract_8,0,5,80,127,1313603880
10113,24,Jits_Pract_8,1,5,56,103,1313704428
10113,24,Jits_Pract_8,2,1,48,34,1313707400
10113,24,Jits_Pract_8,3,5,63,98,1313713496
10113,24,Jits_Pract_8,0,5,63,98,1314373908
10113,24,Jits_Pract_8,1,5,80,127,1314434300
10113,24,Jits_Pract_8,2,5,56,103,1314443596
10113,24,Jits_Pract_8,3,1,48,43,1314529212
10113,24,Jits_Pract_8,0,5,56,103,1315173736
10113,24,Jits_Pract_8,1,5,63,98,1315244308
10113,24,Jits_Pract_8,2,5,80,127,1315247828
10113,24,Jits_Pract_8,3,1,48,39,1315270152
10113,24,Jits_Pract_8,0,9999,9999,9999,1304441916
10113,24,Jits_Pract_8,1,9999,9999,9999,1305241708
10113,24,Jits_Pract_8,2,9999,9999,9999,1306041420
10113,24,Jits_Pract_8,3,9999,9999,9999,1306841140
10113,24,Jits_Pract_8,4,9999,9999,9999,1307641952
10113,24,Jits_Pract_8,5,9999,9999,9999,1308441712
10113,24,Jits_Pract_8,6,9999,9999,9999,1309241404
10113,24,Jits_Pract_8,7,9999,9999,9999,1310041176
10113,24,Jits_Pract_8,8,9999,9999,9999,1310841928
10113,24,Jits_Pract_8,9,9999,9999,9999,1311641668
10113,24,Jits_Pract_8,10,9999,9999,9999,1312441444
10113,24,Jits_Pract_8,11,9999,9999,9999,1313241160
10113,24,Jits_Pract_8,12,9999,9999,9999,1314041976
10113,24,Jits_Pract_8,13,9999,9999,9999,1314841668
10113,24,Jits_Pract_8,14,9999,9999,9999,1315641412
10114,16,Jits_ISO_5,0,5,56,103,1343362264
10114,16,Jits_ISO_5,1,5,63,98,1343365444
10114,16,Jits_ISO_5,2,5,80,127,1343368492
10114,16,Jits_ISO_5,0,5,56,103,1343863112
10114,16,Jits_ISO_5,1,5,63,98,1343866360
10114,16,Jits_ISO_5,2,5,80,127,1343869480
10114,16,Jits_ISO_5,3,1,48,39,1344029560
10114,16,Jits_ISO_5,0,5,56,103,1344362856
10114,16,Jits_ISO_5,1,5,80,127,1344373200
10114,16,Jits_ISO_5,2,5,63,98,1344392612
10114,16,Jits_ISO_5,3,1,48,35,1344439844
10114,16,Jits_ISO_5,0,5,63,98,1344813304
10114,16,Jits_ISO_5,1,5,80,127,1344843056
10114,16,Jits_ISO_5,2,1,48,38,1344850964
10114,16,Jits_ISO_5,3,5,56,103,1344853468
10114,16,Jits_ISO_5,0,1,48,38,1345335328
10114,16,Jits_ISO_5,1,5,80,127,1345372812
10114,16,Jits_ISO_5,2,5,56,103,1345382860
10114,16,Jits_ISO_5,3,5,63,98,1345412832
10114,16,Jits_ISO_5,0,5,63,98,1345863188
10114,16,Jits_ISO_5,1,1,48,41,1345881228
10114,16,Jits_ISO_5,2,5,56,103,1345892856
10114,16,Jits_ISO_5,3,5,80,127,1345903052
10114,16,Jits_ISO_5,0,5,56,103,1346312432
10114,16,Jits_ISO_5,1,5,63,98,1346363004
10114,16,Jits_ISO_5,2,5,80,127,1346383164
10114,16,Jits_ISO_5,3,1,48,42,1346391532
10114,16,Jits_ISO_5,0,5,80,127,1346813372
10114,16,Jits_ISO_5,1,5,63,98,1346862452
10114,16,Jits_ISO_5,2,1,48,43,1346871648
10114,16,Jits_ISO_5,3,5,56,103,1346903504
10114,16,Jits_ISO_5,0,5,56,103,1347312972
10114,16,Jits_ISO_5,1,5,63,98,1347342944
10114,16,Jits_ISO_5,2,1,48,43,1347366964
10114,16,Jits_ISO_5,3,5,80,127,1347413288
10114,16,Jits_ISO_5,0,5,56,103,1347812792
10114,16,Jits_ISO_5,1,1,48,35,1347839576
10114,16,Jits_ISO_5,2,5,80,127,1347873024
10114,16,Jits_ISO_5,3,5,63,98,1347902772
10114,16,Jits_ISO_5,0,5,56,103,1348322800
10114,16,Jits_ISO_5,1,5,63,98,1348332996
10114,16,Jits_ISO_5,2,1,48,42,1348358364
10114,16,Jits_ISO_5,3,5,80,127,1348372852
10114,16,Jits_ISO_5,0,5,63,98,1348813104
10114,16,Jits_ISO_5,1,1,48,46,1348857876
10114,16,Jits_ISO_5,2,5,80,127,1348892968
10114,16,Jits_ISO_5,3,5,56,103,1348903236
10114,16,Jits_ISO_5,0,5,63,98,1349363032
10114,16,Jits_ISO_5,1,1,48,46,1349390660
10114,16,Jits_ISO_5,2,5,56,103,1349402964
10114,16,Jits_ISO_5,3,5,80,127,1349406028
10114,16,Jits_ISO_5,0,5,56,103,1349822876
10114,16,Jits_ISO_5,1,5,63,98,1349832924
10114,16,Jits_ISO_5,2,5,80,127,1349872936
10114,16,Jits_ISO_5,3,1,48,46,1349902876
10114,16,Jits_ISO_5,0,5,56,103,1350313304
10114,16,Jits_ISO_5,1,5,63,98,1350316520
10114,16,Jits_ISO_5,2,5,80,127,1350332864
10114,16,Jits_ISO_5,3,1,48,47,1350355112
10114,16,Jits_ISO_5,0,5,80,127,1350823224
10114,16,Jits_ISO_5,1,1,48,45,1350825312
10114,16,Jits_ISO_5,2,5,56,103,1350832368
10114,16,Jits_ISO_5,3,5,63,98,1350903116
10114,16,Jits_ISO_5,0,5,63,98,1351312856
10114,16,Jits_ISO_5,1,5,56,103,1351333168
10114,16,Jits_ISO_5,2,1,48,43,1351343260
10114,16,Jits_ISO_5,3,5,80,127,1351413048
10114,16,Jits_ISO_5,0,5,56,103,1351822844
10114,16,Jits_ISO_5,1,5,80,127,1351862856
10114,16,Jits_ISO_5,2,1,48,27,1351870088
10114,16,Jits_ISO_5,3,5,63,98,1351873144
10114,16,Jits_ISO_5,0,5,80,127,1352313152
10114,16,Jits_ISO_5,1,1,48,49,1352339564
10114,16,Jits_ISO_5,2,5,63,98,1352343040
10114,16,Jits_ISO_5,3,5,56,103,1352382752
10114,16,Jits_ISO_5,0,5,56,103,1352833324
10114,16,Jits_ISO_5,1,5,63,98,1352863220
10114,16,Jits_ISO_5,2,1,48,59,1352867916
10114,16,Jits_ISO_5,3,5,80,127,1352913140
10114,16,Jits_ISO_5,0,5,80,127,1353333144
10114,16,Jits_ISO_5,1,1,48,59,1353371492
10114,16,Jits_ISO_5,2,5,56,103,1353373000
10114,16,Jits_ISO_5,3,5,63,98,1353383420
10114,16,Jits_ISO_5,0,5,80,127,1353813336
10114,16,Jits_ISO_5,1,1,48,57,1353843576
10114,16,Jits_ISO_5,2,5,63,98,1353853268
10114,16,Jits_ISO_5,3,5,56,103,1353912756
10114,16,Jits_ISO_5,0,5,56,103,1354313008
10114,16,Jits_ISO_5,1,5,80,127,1354323276
10114,16,Jits_ISO_5,2,1,48,63,1354335012
10114,16,Jits_ISO_5,3,5,63,98,1354403208
10114,16,Jits_ISO_5,0,5,80,127,1354813048
10114,16,Jits_ISO_5,1,1,48,58,1354842324
10114,16,Jits_ISO_5,2,5,63,98,1354873132
10114,16,Jits_ISO_5,3,5,56,103,1354902880
10114,16,Jits_ISO_5,0,5,56,103,1355312644
10114,16,Jits_ISO_5,1,1,48,50,1355345284
10114,16,Jits_ISO_5,2,5,80,127,1355372880
10114,16,Jits_ISO_5,3,1,48,35,1355384448
10114,16,Jits_ISO_5,4,5,63,98,1355412792
10114,16,Jits_ISO_5,0,1,48,44,1355854256
10114,16,Jits_ISO_5,1,5,56,103,1355863272
10114,16,Jits_ISO_5,2,5,63,98,1355872864
10114,16,Jits_ISO_5,3,5,80,127,1355876228
10114,16,Jits_ISO_5,0,5,80,127,1356312956
10114,16,Jits_ISO_5,1,1,48,48,1356366120
10114,16,Jits_ISO_5,2,5,63,98,1356403008
10114,16,Jits_ISO_5,3,5,56,103,1356413352
10114,16,Jits_ISO_5,0,5,56,103,1356812912
10114,16,Jits_ISO_5,1,5,63,98,1356815940
10114,16,Jits_ISO_5,2,5,80,127,1356819060
10114,16,Jits_ISO_5,3,1,48,52,1356892008
10114,16,Jits_ISO_5,0,5,80,127,1357332880
10114,16,Jits_ISO_5,1,5,63,98,1357382932
10114,16,Jits_ISO_5,2,5,56,103,1357412680
10114,16,Jits_ISO_5,3,1,48,46,1357481352
10114,16,Jits_ISO_5,0,5,56,103,1357823484
10114,16,Jits_ISO_5,1,5,80,127,1357832560
10114,16,Jits_ISO_5,2,5,63,98,1357903356
10114,16,Jits_ISO_5,3,1,48,32,1357926704
10114,16,Jits_ISO_5,0,5,56,103,1358333644
10114,16,Jits_ISO_5,1,1,48,20,1358346128
10114,16,Jits_ISO_5,2,5,63,98,1358352676
10114,16,Jits_ISO_5,3,5,80,127,1358413284
10114,16,Jits_ISO_5,0,1,48,50,1358790196
10114,16,Jits_ISO_5,1,5,80,127,1358822748
10114,16,Jits_ISO_5,2,5,63,98,1358893384
10114,16,Jits_ISO_5,3,5,56,103,1358912872
10114,16,Jits_ISO_5,0,5,80,127,1359342940
10114,16,Jits_ISO_5,1,5,56,103,1359353136
10114,16,Jits_ISO_5,2,5,63,98,1359362804
10114,16,Jits_ISO_5,3,1,48,48,1359383608
10114,16,Jits_ISO_5,0,5,80,127,1359832500
10114,16,Jits_ISO_5,1,5,56,103,1359852884
10114,16,Jits_ISO_5,2,1,48,58,1359861032
10114,16,Jits_ISO_5,3,5,63,98,1359922628
10114,16,Jits_ISO_5,0,5,56,103,1360343336
10114,16,Jits_ISO_5,1,1,48,58,1360367500
10114,16,Jits_ISO_5,2,5,80,127,1360373004
10114,16,Jits_ISO_5,3,5,63,98,1360392564
10114,16,Jits_ISO_5,0,5,63,98,1360832816
10114,16,Jits_ISO_5,1,1,48,51,1360854964
10114,16,Jits_ISO_5,2,5,56,103,1360893200
10114,16,Jits_ISO_5,3,5,80,127,1360922948
10114,16,Jits_ISO_5,0,5,63,98,1361323532
10114,16,Jits_ISO_5,1,5,80,127,1361326824
10114,16,Jits_ISO_5,2,1,48,49,1361377468
10114,16,Jits_ISO_5,3,5,56,103,1361412480
10114,16,Jits_ISO_5,0,5,56,103,1361842660
10114,16,Jits_ISO_5,1,5,63,98,1361873256
10114,16,Jits_ISO_5,2,1,48,51,1361877944
10114,16,Jits_ISO_5,3,5,80,127,1361913188
10114,16,Jits_ISO_5,0,5,63,98,1362343308
10114,16,Jits_ISO_5,1,1,48,55,1362378512
10114,16,Jits_ISO_5,2,5,56,103,1362383336
10114,16,Jits_ISO_5,3,5,80,127,1362402748
10114,16,Jits_ISO_5,0,1,48,52,1362848988
10114,16,Jits_ISO_5,1,5,63,98,1362853216
10114,16,Jits_ISO_5,2,5,56,103,1362893180
10114,16,Jits_ISO_5,3,5,80,127,1362903672
10114,16,Jits_ISO_5,0,5,80,127,1363332504
10114,16,Jits_ISO_5,1,1,48,49,1363351588
10114,16,Jits_ISO_5,2,5,63,98,1363403024
10114,16,Jits_ISO_5,3,5,56,103,1363422732
10114,16,Jits_ISO_5,0,5,56,103,1363822960
10114,16,Jits_ISO_5,1,5,80,127,1363842596
10114,16,Jits_ISO_5,2,5,63,98,1363883576
10114,16,Jits_ISO_5,3,1,48,43,1363909488
10114,16,Jits_ISO_5,0,5,63,98,1364332892
10114,16,Jits_ISO_5,1,5,80,127,1364353348
10114,16,Jits_ISO_5,2,5,56,103,1364393284
10114,16,Jits_ISO_5,0,1,48,49,1364626468
10114,16,Jits_ISO_5,1,5,63,98,1364832740
10114,16,Jits_ISO_5,2,5,56,103,1364853048
10114,16,Jits_ISO_5,3,5,80,127,1364863316
10114,16,Jits_ISO_5,4,1,48,33,1365014636
10114,16,Jits_ISO_5,0,5,80,127,1365333252
10114,16,Jits_ISO_5,1,5,56,103,1365352888
10114,16,Jits_ISO_5,2,5,63,98,1365382784
10114,16,Jits_ISO_5,3,1,48,40,1365472380
10114,16,Jits_ISO_5,0,5,56,103,1365902668
10114,16,Jits_ISO_5,1,5,80,127,1365905884
10114,16,Jits_ISO_5,2,5,63,98,1365923052
10114,16,Jits_ISO_5,3,1,48,43,1366006048
10114,16,Jits_ISO_5,0,5,63,98,1366322772
10114,16,Jits_ISO_5,1,5,56,103,1366353196
10114,16,Jits_ISO_5,2,1,48,41,1366388672
10114,16,Jits_ISO_5,3,5,80,127,1366412604
10114,16,Jits_ISO_5,0,1,48,43,1366822104
10114,16,Jits_ISO_5,1,5,63,98,1366903188
10114,16,Jits_ISO_5,2,5,56,103,1366913680
10114,16,Jits_ISO_5,3,5,80,127,1366922516
10114,16,Jits_ISO_5,0,5,56,103,1367352588
10114,16,Jits_ISO_5,1,5,80,127,1367383384
10114,16,Jits_ISO_5,2,5,63,98,1367392756
10114,16,Jits_ISO_5,3,1,48,44,1367423072
10114,16,Jits_ISO_5,0,5,63,98,1367893536
10114,16,Jits_ISO_5,1,5,56,103,1367902536
10114,16,Jits_ISO_5,2,1,48,47,1367916216
10114,16,Jits_ISO_5,3,5,80,127,1367922912
10114,16,Jits_ISO_5,0,5,56,103,1368322700
10114,16,Jits_ISO_5,1,5,63,98,1368382864
10114,16,Jits_ISO_5,2,5,80,127,1368386228
10114,16,Jits_ISO_5,3,1,48,47,1368428524
10114,16,Jits_ISO_5,0,5,80,127,1368842592
10114,16,Jits_ISO_5,1,1,48,43,1368844152
10114,16,Jits_ISO_5,2,5,56,103,1368852780
10114,16,Jits_ISO_5,3,5,63,98,1368922604
10114,16,Jits_ISO_5,0,5,80,127,1369332972
10114,16,Jits_ISO_5,1,1,48,50,1369382620
10114,16,Jits_ISO_5,2,5,56,103,1369402720
10114,16,Jits_ISO_5,3,5,63,98,1369412988
10114,16,Jits_ISO_5,0,5,63,98,1369872804
10114,16,Jits_ISO_5,1,5,56,103,1369882924
10114,16,Jits_ISO_5,2,5,80,127,1369902560
10114,16,Jits_ISO_5,3,1,48,48,1369913696
10114,16,Jits_ISO_5,0,5,80,127,1370323164
10114,16,Jits_ISO_5,1,5,63,98,1370382804
10114,16,Jits_ISO_5,2,1,48,54,1370395436
10114,16,Jits_ISO_5,3,5,56,103,1370422512
10114,16,Jits_ISO_5,0,5,56,103,1370862920
10114,16,Jits_ISO_5,1,1,48,57,1370868136
10114,16,Jits_ISO_5,2,5,63,98,1370873408
10114,16,Jits_ISO_5,3,5,80,127,1370913268
10114,16,Jits_ISO_5,0,5,56,103,1371322636
10114,16,Jits_ISO_5,1,1,48,52,1371349524
10114,16,Jits_ISO_5,2,5,80,127,1371352552
10114,16,Jits_ISO_5,3,5,63,98,1371402752
10114,16,Jits_ISO_5,0,1,48,55,1371857880
10114,16,Jits_ISO_5,1,5,56,103,1371863680
10114,16,Jits_ISO_5,2,5,63,98,1371903464
10114,16,Jits_ISO_5,3,5,80,127,1371906608
10114,16,Jits_ISO_5,0,1,48,55,1372343128
10114,16,Jits_ISO_5,1,5,56,103,1372363180
10114,16,Jits_ISO_5,2,5,63,98,1372373448
10114,16,Jits_ISO_5,3,5,80,127,1372392712
10114,16,Jits_ISO_5,0,5,56,103,1372822884
10114,16,Jits_ISO_5,1,5,80,127,1372825952
10114,16,Jits_ISO_5,2,1,48,51,1372840680
10114,16,Jits_ISO_5,3,5,63,98,1372862840
10114,16,Jits_ISO_5,0,1,48,56,1373317936
10114,16,Jits_ISO_5,1,5,63,98,1373362544
10114,16,Jits_ISO_5,2,5,56,103,1373393292
10114,16,Jits_ISO_5,3,5,80,127,1373412852
10114,16,Jits_ISO_5,0,5,80,127,1373832688
10114,16,Jits_ISO_5,1,5,56,103,1373842884
10114,16,Jits_ISO_5,2,5,63,98,1373853156
10114,16,Jits_ISO_5,3,1,48,61,1373859940
10114,16,Jits_ISO_5,0,5,56,103,1374333404
10114,16,Jits_ISO_5,1,1,48,60,1374363048
10114,16,Jits_ISO_5,2,5,80,127,1374373108
10114,16,Jits_ISO_5,3,1,48,43,1374393072
10114,16,Jits_ISO_5,4,5,63,98,1374402788
10114,16,Jits_ISO_5,0,1,48,59,1374841688
10114,16,Jits_ISO_5,1,5,63,98,1374843200
10114,16,Jits_ISO_5,2,5,80,127,1374852424
10114,16,Jits_ISO_5,3,5,56,103,1374862840
10114,16,Jits_ISO_5,0,5,56,103,1375322484
10114,16,Jits_ISO_5,1,1,48,62,1375346804
10114,16,Jits_ISO_5,2,5,63,98,1375393052
10114,16,Jits_ISO_5,3,5,80,127,1375403400
10114,16,Jits_ISO_5,0,5,80,127,1375823280
10114,16,Jits_ISO_5,1,5,56,103,1375832652
10114,16,Jits_ISO_5,2,1,48,61,1375845212
10114,16,Jits_ISO_5,3,5,63,98,1375882624
10114,16,Jits_ISO_5,0,1,48,57,1376308308
10114,16,Jits_ISO_5,1,5,80,127,1376333136
10114,16,Jits_ISO_5,2,5,56,103,1376392776
10114,16,Jits_ISO_5,3,5,63,98,1376423556
10114,16,Jits_ISO_5,0,5,56,103,1376832872
10114,16,Jits_ISO_5,1,5,80,127,1376835940
10114,16,Jits_ISO_5,2,1,48,51,1376848648
10114,16,Jits_ISO_5,3,5,63,98,1376872876
10114,16,Jits_ISO_5,0,1,48,44,1377361204
10114,16,Jits_ISO_5,1,5,56,103,1377363540
10114,16,Jits_ISO_5,2,5,63,98,1377392992
10114,16,Jits_ISO_5,3,5,80,127,1377403336
10114,16,Jits_ISO_5,0,1,48,47,1377867588
10114,16,Jits_ISO_5,1,5,63,98,1377873612
10114,16,Jits_ISO_5,2,5,80,127,1377882612
10114,16,Jits_ISO_5,3,5,56,103,1377892732
10114,16,Jits_ISO_5,0,5,80,127,1378322788
10114,16,Jits_ISO_5,1,1,48,43,1378340136
10114,16,Jits_ISO_5,2,5,56,103,1378372904
10114,16,Jits_ISO_5,3,5,63,98,1378375972
10114,16,Jits_ISO_5,0,1,48,50,1378822416
10114,16,Jits_ISO_5,1,5,56,103,1378853456
10114,16,Jits_ISO_5,2,5,80,127,1378872568
10114,16,Jits_ISO_5,3,5,63,98,1378882840
10114,16,Jits_ISO_5,0,5,63,98,1379332664
10114,16,Jits_ISO_5,1,1,48,41,1379363088
10114,16,Jits_ISO_5,2,5,56,103,1379364576
10114,16,Jits_ISO_5,3,5,80,127,1379382792
10114,16,Jits_ISO_5,0,1,48,54,1379814836
10114,16,Jits_ISO_5,1,5,56,103,1379842728
10114,16,Jits_ISO_5,2,5,80,127,1379852628
10114,16,Jits_ISO_5,3,5,63,98,1379923484
10114,16,Jits_ISO_5,0,5,63,98,1380332880
10114,16,Jits_ISO_5,1,1,48,46,1380371228
10114,16,Jits_ISO_5,2,5,80,127,1380372736
10114,16,Jits_ISO_5,3,5,56,103,1380412748
10114,16,Jits_ISO_5,0,5,56,103,1380842804
10114,16,Jits_ISO_5,1,5,63,98,1380853072
10114,16,Jits_ISO_5,2,1,48,46,1380871428
10114,16,Jits_ISO_5,3,5,80,127,1380872924
10114,16,Jits_ISO_5,0,1,48,46,1381363568
10114,16,Jits_ISO_5,1,5,63,98,1381382548
10114,16,Jits_ISO_5,2,5,80,127,1381403084
10114,16,Jits_ISO_5,3,5,56,103,1381422420
10114,16,Jits_ISO_5,0,5,56,103,1381822808
10114,16,Jits_ISO_5,1,1,48,45,1381902604
10114,16,Jits_ISO_5,2,5,80,127,1381904088
10114,16,Jits_ISO_5,3,5,63,98,1381912940
10114,16,Jits_ISO_5,0,5,80,127,1382362492
10114,16,Jits_ISO_5,1,1,48,43,1382372536
10114,16,Jits_ISO_5,2,5,63,98,1382374024
10114,16,Jits_ISO_5,3,5,56,103,1382402576
10114,16,Jits_ISO_5,0,5,63,98,1382823476
10114,16,Jits_ISO_5,1,5,80,127,1382863144
10114,16,Jits_ISO_5,2,1,48,47,1382888808
10114,16,Jits_ISO_5,3,5,56,103,1382922624
10114,16,Jits_ISO_5,0,5,63,98,1383333324
10114,16,Jits_ISO_5,1,1,48,47,1383370472
10114,16,Jits_ISO_5,2,5,56,103,1383383764
10114,16,Jits_ISO_5,3,5,80,127,1383413288
10114,16,Jits_ISO_5,0,5,80,127,1383843324
10114,16,Jits_ISO_5,1,5,63,98,1383853516
10114,16,Jits_ISO_5,2,1,48,56,1383888424
10114,16,Jits_ISO_5,3,5,56,103,1383922992
10114,16,Jits_ISO_5,0,1,48,59,1384370832
10114,16,Jits_ISO_5,1,5,80,127,1384412608
10114,16,Jits_ISO_5,2,5,56,103,1384422876
10114,16,Jits_ISO_5,3,5,63,98,1384425868
10114,16,Jits_ISO_5,0,5,56,103,1384852832
10114,16,Jits_ISO_5,1,5,80,127,1384873588
10114,16,Jits_ISO_5,2,5,63,98,1384882516
10114,16,Jits_ISO_5,3,1,48,34,1384902068
10114,16,Jits_ISO_5,0,5,63,98,1385362768
10114,16,Jits_ISO_5,1,1,48,49,1385373832
10114,16,Jits_ISO_5,2,5,56,103,1385402700
10114,16,Jits_ISO_5,3,5,80,127,1385423404
10114,16,Jits_ISO_5,0,5,63,98,1385862652
10114,16,Jits_ISO_5,1,1,48,55,1385872520
10114,16,Jits_ISO_5,2,5,56,103,1385922828
10114,16,Jits_ISO_5,3,5,80,127,1385925900
10114,16,Jits_ISO_5,0,5,56,103,1386323568
10114,16,Jits_ISO_5,1,5,80,127,1386342680
10114,16,Jits_ISO_5,2,1,48,55,1386375016
10114,16,Jits_ISO_5,3,5,63,98,1386382760
10114,16,Jits_ISO_5,0,5,56,103,1386852760
10114,16,Jits_ISO_5,1,1,48,56,1386856324
10114,16,Jits_ISO_5,2,5,63,98,1386873584
10114,16,Jits_ISO_5,3,5,80,127,1386882512
10114,16,Jits_ISO_5,0,5,80,127,1387322688
10114,16,Jits_ISO_5,1,1,48,54,1387334876
10114,16,Jits_ISO_5,2,5,56,103,1387352580
10114,16,Jits_ISO_5,3,5,63,98,1387393416
10114,16,Jits_ISO_5,0,1,48,55,1387822028
10114,16,Jits_ISO_5,1,5,80,127,1387832692
10114,16,Jits_ISO_5,2,5,56,103,1387853224
10114,16,Jits_ISO_5,3,5,63,98,1387912564
10114,16,Jits_ISO_5,0,1,48,52,1388322584
10114,16,Jits_ISO_5,1,5,56,103,1388342760
10114,16,Jits_ISO_5,2,5,80,127,1388363220
10114,16,Jits_ISO_5,3,5,63,98,1388422472
10114,16,Jits_ISO_5,0,5,80,127,1388822948
10114,16,Jits_ISO_5,1,1,48,56,1388832544
10114,16,Jits_ISO_5,2,5,56,103,1388834036
10114,16,Jits_ISO_5,3,5,63,98,1388872996
10114,16,Jits_ISO_5,0,5,63,98,1389322616
10114,16,Jits_ISO_5,1,1,48,53,1389337420
10114,16,Jits_ISO_5,2,5,56,103,1389362620
10114,16,Jits_ISO_5,3,5,80,127,1389365536
10114,16,Jits_ISO_5,0,5,63,98,1389842864
10114,16,Jits_ISO_5,1,1,48,58,1389854376
10114,16,Jits_ISO_5,2,5,80,127,1389882872
10114,16,Jits_ISO_5,3,5,56,103,1389912620
10114,16,Jits_ISO_5,0,5,56,103,1390333456
10114,16,Jits_ISO_5,1,1,48,27,1390334424
10114,16,Jits_ISO_5,2,5,63,98,1390342376
10114,16,Jits_ISO_5,3,5,80,127,1390373544
10114,16,Jits_ISO_5,0,5,80,127,1390822640
10114,16,Jits_ISO_5,1,1,48,57,1390844268
10114,16,Jits_ISO_5,2,5,63,98,1390893584
10114,16,Jits_ISO_5,3,5,56,103,1390902660
10114,16,Jits_ISO_5,0,5,63,98,1391322464
10114,16,Jits_ISO_5,1,1,48,60,1391347084
10114,16,Jits_ISO_5,2,5,56,103,1391393408
10114,16,Jits_ISO_5,3,5,80,127,1391403528
10114,16,Jits_ISO_5,0,5,63,98,1391823392
10114,16,Jits_ISO_5,1,5,56,103,1391842656
10114,16,Jits_ISO_5,2,1,48,66,1391857836
10114,16,Jits_ISO_5,3,5,80,127,1391882736
10114,16,Jits_ISO_5,0,5,56,103,1392333460
10114,16,Jits_ISO_5,1,5,63,98,1392343288
10114,16,Jits_ISO_5,2,1,48,63,1392344256
10114,16,Jits_ISO_5,3,5,80,127,1392423368
10114,16,Jits_ISO_5,0,1,48,63,1392807452
10114,16,Jits_ISO_5,1,5,63,98,1392822692
10114,16,Jits_ISO_5,2,5,56,103,1392853288
10114,16,Jits_ISO_5,3,5,80,127,1392893520
10114,16,Jits_ISO_5,0,1,48,62,1393312356
10114,16,Jits_ISO_5,1,5,56,103,1393323464
10114,16,Jits_ISO_5,2,5,63,98,1393363352
10114,16,Jits_ISO_5,3,5,80,127,1393403288
10114,16,Jits_ISO_5,0,1,48,35,1393795300
10114,16,Jits_ISO_5,1,5,80,127,1393823044
10114,16,Jits_ISO_5,2,5,56,103,1393902924
10114,16,Jits_ISO_5,3,5,63,98,1393913416
10114,16,Jits_ISO_5,0,1,48,63,1394274804
10114,16,Jits_ISO_5,1,5,56,103,1394362708
10114,16,Jits_ISO_5,2,5,63,98,1394365800
10114,16,Jits_ISO_5,3,5,80,127,1394373060
10114,16,Jits_ISO_5,0,1,48,66,1394818424
10114,16,Jits_ISO_5,1,5,56,103,1394882984
10114,16,Jits_ISO_5,2,5,63,98,1394903296
10114,16,Jits_ISO_5,3,5,80,127,1394912576
10114,16,Jits_ISO_5,0,1,48,65,1395311052
10114,16,Jits_ISO_5,1,5,63,98,1395342760
10114,16,Jits_ISO_5,2,5,80,127,1395352884
10114,16,Jits_ISO_5,3,5,56,103,1395373340
10114,16,Jits_ISO_5,0,5,63,98,1395842348
10114,16,Jits_ISO_5,1,1,48,63,1395867192
10114,16,Jits_ISO_5,2,5,56,103,1395923352
10114,16,Jits_ISO_5,3,5,80,127,1395926496
10114,16,Jits_ISO_5,0,5,63,98,1396343268
10114,16,Jits_ISO_5,1,1,48,65,1396349900
10114,16,Jits_ISO_5,2,5,56,103,1396362600
10114,16,Jits_ISO_5,3,5,80,127,1396393544
10114,16,Jits_ISO_5,0,5,56,103,1396843000
10114,16,Jits_ISO_5,1,5,63,98,1396863308
10114,16,Jits_ISO_5,2,1,48,60,1396866876
10114,16,Jits_ISO_5,3,5,80,127,1396872528
10114,16,Jits_ISO_5,0,1,48,60,1397362948
10114,16,Jits_ISO_5,1,5,56,103,1397373380
10114,16,Jits_ISO_5,2,5,63,98,1397403276
10114,16,Jits_ISO_5,3,5,80,127,1397406492
10114,16,Jits_ISO_5,0,5,56,103,1397822696
10114,16,Jits_ISO_5,1,1,48,65,1397855484
10114,16,Jits_ISO_5,2,5,63,98,1397862700
10114,16,Jits_ISO_5,3,5,80,127,1397923308
10114,16,Jits_ISO_5,0,1,48,54,1398329668
10114,16,Jits_ISO_5,1,5,56,103,1398343188
10114,16,Jits_ISO_5,2,5,63,98,1398353308
10114,16,Jits_ISO_5,3,5,80,127,1398412796
10114,16,Jits_ISO_5,0,1,48,57,1398840340
10114,16,Jits_ISO_5,1,5,56,103,1398842696
10114,16,Jits_ISO_5,2,5,80,127,1398863156
10114,16,Jits_ISO_5,3,5,63,98,1398893348
10114,16,Jits_ISO_5,0,5,80,127,1399342432
10114,16,Jits_ISO_5,1,1,48,63,1399345628
10114,16,Jits_ISO_5,2,5,56,103,1399352696
10114,16,Jits_ISO_5,3,5,63,98,1399373228
10114,16,Jits_ISO_5,0,5,63,98,1399832888
10114,16,Jits_ISO_5,1,1,48,56,1399833780
10114,16,Jits_ISO_5,2,5,80,127,1399912752
10114,16,Jits_ISO_5,3,5,56,103,1399923168
10114,16,Jits_ISO_5,0,1,48,62,1400348768
10114,16,Jits_ISO_5,1,5,80,127,1400393004
10114,16,Jits_ISO_5,2,5,56,103,1400412636
10114,16,Jits_ISO_5,3,5,63,98,1400415704
10114,16,Jits_ISO_5,0,5,63,98,1400863216
10114,16,Jits_ISO_5,1,5,80,127,1400866432
10114,16,Jits_ISO_5,2,1,48,58,1400875852
10114,16,Jits_ISO_5,3,5,56,103,1400922476
10114,16,Jits_ISO_5,0,5,56,103,1401343464
10114,16,Jits_ISO_5,1,5,80,127,1401352616
10114,16,Jits_ISO_5,2,1,48,57,1401370036
10114,16,Jits_ISO_5,3,5,63,98,1401392472
10114,16,Jits_ISO_5,0,5,56,103,1401822612
10114,16,Jits_ISO_5,1,1,48,53,1401866636
10114,16,Jits_ISO_5,2,5,63,98,1401883072
10114,16,Jits_ISO_5,3,5,80,127,1401893412
10114,16,Jits_ISO_5,0,5,63,98,1402332552
10114,16,Jits_ISO_5,1,1,48,26,1402334564
10114,16,Jits_ISO_5,2,5,80,127,1402372408
10114,16,Jits_ISO_5,3,5,56,103,1402413388
10114,16,Jits_ISO_5,0,5,56,103,1402833404
10114,16,Jits_ISO_5,1,1,48,57,1402852416
10114,16,Jits_ISO_5,2,5,63,98,1402913340
10114,16,Jits_ISO_5,3,5,80,127,1402916408
10114,16,Jits_ISO_5,0,9999,9999,9999,1343610968
10114,16,Jits_ISO_5,1,9999,9999,9999,1344110680
10114,16,Jits_ISO_5,2,9999,9999,9999,1344610416
10114,16,Jits_ISO_5,3,9999,9999,9999,1345110084
10114,16,Jits_ISO_5,4,9999,9999,9999,1345610864
10114,16,Jits_ISO_5,5,9999,9999,9999,1346110528
10114,16,Jits_ISO_5,6,9999,9999,9999,1346610256
10114,16,Jits_ISO_5,7,9999,9999,9999,1347110976
10114,16,Jits_ISO_5,8,9999,9999,9999,1347610724
10114,16,Jits_ISO_5,9,9999,9999,9999,1348110396
10114,16,Jits_ISO_5,10,9999,9999,9999,1348610140
10114,16,Jits_ISO_5,11,9999,9999,9999,1349110856
10114,16,Jits_ISO_5,12,9999,9999,9999,1349610584
10114,16,Jits_ISO_5,13,9999,9999,9999,1350110292
10114,16,Jits_ISO_5,14,9999,9999,9999,1350611068
10114,16,Jits_ISO_5,15,9999,9999,9999,1351110740
10114,16,Jits_ISO_5,16,9999,9999,9999,1351610456
10114,16,Jits_ISO_5,17,9999,9999,9999,1352110184
10114,16,Jits_ISO_5,18,9999,9999,9999,1352610876
10114,16,Jits_ISO_5,19,9999,9999,9999,1353110624
10114,16,Jits_ISO_5,20,9999,9999,9999,1353610296
10114,16,Jits_ISO_5,21,9999,9999,9999,1354111088
10114,16,Jits_ISO_5,22,9999,9999,9999,1354610756
10114,16,Jits_ISO_5,23,9999,9999,9999,1355110504
10114,16,Jits_ISO_5,24,9999,9999,9999,1355610228
10114,16,Jits_ISO_5,25,9999,9999,9999,1356110900
10114,16,Jits_ISO_5,26,9999,9999,9999,1356610636
10114,16,Jits_ISO_5,27,9999,9999,9999,1357110360
10114,16,Jits_ISO_5,28,9999,9999,9999,1357611080
10114,16,Jits_ISO_5,29,9999,9999,9999,1358121012
10114,16,Jits_ISO_5,30,9999,9999,9999,1358620760
10114,16,Jits_ISO_5,31,9999,9999,9999,1359120508
10114,16,Jits_ISO_5,32,9999,9999,9999,1359620164
10114,16,Jits_ISO_5,33,9999,9999,9999,1360120888
10114,16,Jits_ISO_5,34,9999,9999,9999,1360620636
10114,16,Jits_ISO_5,35,9999,9999,9999,1361120308
10114,16,Jits_ISO_5,36,9999,9999,9999,1361621076
10114,16,Jits_ISO_5,37,9999,9999,9999,1362120808
10114,16,Jits_ISO_5,38,9999,9999,9999,1362620532
10114,16,Jits_ISO_5,39,9999,9999,9999,1363120188
10114,16,Jits_ISO_5,40,9999,9999,9999,1363620964
10114,16,Jits_ISO_5,41,9999,9999,9999,1364120632
10114,16,Jits_ISO_5,42,9999,9999,9999,1364620352
10114,16,Jits_ISO_5,43,9999,9999,9999,1365120076
10114,16,Jits_ISO_5,44,9999,9999,9999,1365620812
10114,16,Jits_ISO_5,45,9999,9999,9999,1366120556
10114,16,Jits_ISO_5,46,9999,9999,9999,1366620224
10114,16,Jits_ISO_5,47,9999,9999,9999,1367121012
10114,16,Jits_ISO_5,48,9999,9999,9999,1367620668
10114,16,Jits_ISO_5,49,9999,9999,9999,1368120424
10114,16,Jits_ISO_5,50,9999,9999,9999,1368620144
10114,16,Jits_ISO_5,51,9999,9999,9999,1369120864
10114,16,Jits_ISO_5,52,9999,9999,9999,1369620540
10114,16,Jits_ISO_5,53,9999,9999,9999,1370120288
10114,16,Jits_ISO_5,54,9999,9999,9999,1370620992
10114,16,Jits_ISO_5,55,9999,9999,9999,1371120740
10114,16,Jits_ISO_5,56,9999,9999,9999,1371620412
10114,16,Jits_ISO_5,57,9999,9999,9999,1372120152
10114,16,Jits_ISO_5,58,9999,9999,9999,1372620860
10114,16,Jits_ISO_5,59,9999,9999,9999,1373120576
10114,16,Jits_ISO_5,60,9999,9999,9999,1373620304
10114,16,Jits_ISO_5,61,9999,9999,9999,1374121072
10114,16,Jits_ISO_5,62,9999,9999,9999,1374620792
10114,16,Jits_ISO_5,63,9999,9999,9999,1375120504
10114,16,Jits_ISO_5,64,9999,9999,9999,1375620164
10114,16,Jits_ISO_5,65,9999,9999,9999,1376120884
10114,16,Jits_ISO_5,66,9999,9999,9999,1376620636
10114,16,Jits_ISO_5,67,9999,9999,9999,1377120352
10114,16,Jits_ISO_5,68,9999,9999,9999,1377621072
10114,16,Jits_ISO_5,69,9999,9999,9999,1378120808
10114,16,Jits_ISO_5,70,9999,9999,9999,1378620528
10114,16,Jits_ISO_5,71,9999,9999,9999,1379120200
10114,16,Jits_ISO_5,72,9999,9999,9999,1379620976
10114,16,Jits_ISO_5,73,9999,9999,9999,1380120636
10114,16,Jits_ISO_5,74,9999,9999,9999,1380620372
10114,16,Jits_ISO_5,75,9999,9999,9999,1381120100
10114,16,Jits_ISO_5,76,9999,9999,9999,1381620828
10114,16,Jits_ISO_5,77,9999,9999,9999,1382120564
10114,16,Jits_ISO_5,78,9999,9999,9999,1382620236
10114,16,Jits_ISO_5,79,9999,9999,9999,1383120956
10114,16,Jits_ISO_5,80,9999,9999,9999,1383620688
10114,16,Jits_ISO_5,81,9999,9999,9999,1384120400
10114,16,Jits_ISO_5,82,9999,9999,9999,1384620140
10114,16,Jits_ISO_5,83,9999,9999,9999,1385120840
10114,16,Jits_ISO_5,84,9999,9999,9999,1385620592
10114,16,Jits_ISO_5,85,9999,9999,9999,1386120244
10114,16,Jits_ISO_5,86,9999,9999,9999,1386621020
10114,16,Jits_ISO_5,87,9999,9999,9999,1387120696
10114,16,Jits_ISO_5,88,9999,9999,9999,1387620440
10114,16,Jits_ISO_5,89,9999,9999,9999,1388120188
10114,16,Jits_ISO_5,90,9999,9999,9999,1388620892
10114,16,Jits_ISO_5,91,9999,9999,9999,1389120620
10114,16,Jits_ISO_5,92,9999,9999,9999,1389620284
10114,16,Jits_ISO_5,93,9999,9999,9999,1390121064
10114,16,Jits_ISO_5,94,9999,9999,9999,1390620792
10114,16,Jits_ISO_5,95,9999,9999,9999,1391120468
10114,16,Jits_ISO_5,96,9999,9999,9999,1391620216
10114,16,Jits_ISO_5,97,9999,9999,9999,1392120920
10114,16,Jits_ISO_5,98,9999,9999,9999,1392620656
10114,16,Jits_ISO_5,99,9999,9999,9999,1393120324
10114,16,Jits_ISO_5,100,9999,9999,9999,1393621100
10114,16,Jits_ISO_5,101,9999,9999,9999,1394120756
10114,16,Jits_ISO_5,102,9999,9999,9999,1394620528
10114,16,Jits_ISO_5,103,9999,9999,9999,1395120188
10114,16,Jits_ISO_5,104,9999,9999,9999,1395620964
10114,16,Jits_ISO_5,105,9999,9999,9999,1396120688
10114,16,Jits_ISO_5,106,9999,9999,9999,1396620344
10114,16,Jits_ISO_5,107,9999,9999,9999,1397120076
10114,16,Jits_ISO_5,108,9999,9999,9999,1397620788
10114,16,Jits_ISO_5,109,9999,9999,9999,1398120524
10114,16,Jits_ISO_5,110,9999,9999,9999,1398620268
10114,16,Jits_ISO_5,111,9999,9999,9999,1399120976
10114,16,Jits_ISO_5,112,9999,9999,9999,1399620704
10114,16,Jits_ISO_5,113,9999,9999,9999,1400120380
10114,16,Jits_ISO_5,114,9999,9999,9999,1400620112
10114,16,Jits_ISO_5,115,9999,9999,9999,1401120884
10114,16,Jits_ISO_5,116,9999,9999,9999,1401620544
10114,16,Jits_ISO_5,117,9999,9999,9999,1402120292
10114,16,Jits_ISO_5,118,9999,9999,9999,1402621012
10114,16,Jits_ISO_5,119,9999,9999,9999,1403120740
10115,7,Jits_ISO_8,0,5,56,103,1413004688
10115,7,Jits_ISO_8,1,5,63,98,1413007708
10115,7,Jits_ISO_8,2,5,80,127,1413010832
10115,7,Jits_ISO_8,0,1,48,16,1413626128
10115,7,Jits_ISO_8,1,1,48,19,1413662132
10115,7,Jits_ISO_8,2,5,56,103,1413805468
10115,7,Jits_ISO_8,3,5,63,98,1413808488
10115,7,Jits_ISO_8,4,5,80,127,1413811832
10115,7,Jits_ISO_8,0,1,48,62,1414326136
10115,7,Jits_ISO_8,1,5,80,127,1414544880
10115,7,Jits_ISO_8,2,5,63,98,1414634816
10115,7,Jits_ISO_8,3,5,56,103,1414645236
10115,7,Jits_ISO_8,0,5,56,103,1415365016
10115,7,Jits_ISO_8,1,5,63,98,1415375364
10115,7,Jits_ISO_8,2,5,80,127,1415465344
10115,7,Jits_ISO_8,0,1,48,17,1416092908
10115,7,Jits_ISO_8,1,5,63,98,1416135132
10115,7,Jits_ISO_8,2,5,80,127,1416164660
10115,7,Jits_ISO_8,3,5,56,103,1416194396
10115,7,Jits_ISO_8,0,1,48,57,1416840524
10115,7,Jits_ISO_8,1,5,56,103,1416934760
10115,7,Jits_ISO_8,2,5,80,127,1417035220
10115,7,Jits_ISO_8,3,5,63,98,1417085196
10115,7,Jits_ISO_8,0,1,48,55,1417671272
10115,7,Jits_ISO_8,1,5,56,103,1417734472
10115,7,Jits_ISO_8,2,5,80,127,1417784808
10115,7,Jits_ISO_8,3,5,63,98,1417824524
10115,7,Jits_ISO_8,0,1,48,52,1418479592
10115,7,Jits_ISO_8,1,5,80,127,1418565040
10115,7,Jits_ISO_8,2,5,63,98,1418595000
10115,7,Jits_ISO_8,3,5,56,103,1418665208
10115,7,Jits_ISO_8,0,1,48,59,1419393452
10115,7,Jits_ISO_8,1,5,63,98,1419394944
10115,7,Jits_ISO_8,2,5,56,103,1419425072
10115,7,Jits_ISO_8,3,5,80,127,1419484516
10115,7,Jits_ISO_8,0,5,56,103,1420134948
10115,7,Jits_ISO_8,1,5,80,127,1420137864
10115,7,Jits_ISO_8,2,5,63,98,1420254548
10115,7,Jits_ISO_8,3,1,48,64,1420259088
10115,7,Jits_ISO_8,0,1,48,70,1421015080
10115,7,Jits_ISO_8,1,5,56,103,1421016568
10115,7,Jits_ISO_8,2,5,80,127,1421055312
10115,7,Jits_ISO_8,3,5,63,98,1421064536
10115,7,Jits_ISO_8,0,5,56,103,1421775084
10115,7,Jits_ISO_8,1,5,80,127,1421794720
10115,7,Jits_ISO_8,2,1,48,63,1421827880
10115,7,Jits_ISO_8,3,5,63,98,1421874508
10115,7,Jits_ISO_8,0,5,80,127,1422564844
10115,7,Jits_ISO_8,1,1,48,63,1422629996
10115,7,Jits_ISO_8,2,5,56,103,1422665240
10115,7,Jits_ISO_8,3,5,63,98,1422675288
10115,7,Jits_ISO_8,0,5,63,98,1423334976
10115,7,Jits_ISO_8,1,5,80,127,1423395072
10115,7,Jits_ISO_8,2,5,56,103,1423405420
10115,7,Jits_ISO_8,3,1,48,64,1423446152
10115,7,Jits_ISO_8,0,1,48,63,1424118020
10115,7,Jits_ISO_8,1,5,56,103,1424134456
10115,7,Jits_ISO_8,2,5,63,98,1424205260
10115,7,Jits_ISO_8,3,5,80,127,1424208548
10115,7,Jits_ISO_8,4,1,48,26,1424225452
10115,7,Jits_ISO_8,0,1,48,64,1424884228
10115,7,Jits_ISO_8,1,5,63,98,1424964944
10115,7,Jits_ISO_8,2,5,56,103,1425015280
10115,7,Jits_ISO_8,3,5,80,127,1425018344
10115,7,Jits_ISO_8,0,1,48,66,1425680768
10115,7,Jits_ISO_8,1,5,56,103,1425725084
10115,7,Jits_ISO_8,2,5,80,127,1425728144
10115,7,Jits_ISO_8,3,5,63,98,1425814972
10115,7,Jits_ISO_8,0,1,48,63,1426474772
10115,7,Jits_ISO_8,1,5,63,98,1426564332
10115,7,Jits_ISO_8,2,5,56,103,1426654704
10115,7,Jits_ISO_8,3,5,80,127,1426685276
10115,7,Jits_ISO_8,0,5,56,103,1427355136
10115,7,Jits_ISO_8,1,1,48,68,1427362812
10115,7,Jits_ISO_8,2,5,63,98,1427455312
10115,7,Jits_ISO_8,3,5,80,127,1427485140
10115,7,Jits_ISO_8,0,5,63,98,1428175268
10115,7,Jits_ISO_8,1,5,56,103,1428184420
10115,7,Jits_ISO_8,2,1,48,67,1428201912
10115,7,Jits_ISO_8,3,5,80,127,1428274396
10115,7,Jits_ISO_8,0,1,48,75,1428974200
10115,7,Jits_ISO_8,1,5,63,98,1428994380
10115,7,Jits_ISO_8,2,5,56,103,1429075280
10115,7,Jits_ISO_8,3,5,80,127,1429078648
10115,7,Jits_ISO_8,0,5,80,127,1429755208
10115,7,Jits_ISO_8,1,1,48,70,1429773636
10115,7,Jits_ISO_8,2,5,63,98,1429775208
10115,7,Jits_ISO_8,3,5,56,103,1429835004
10115,7,Jits_ISO_8,0,1,48,72,1430587860
10115,7,Jits_ISO_8,1,5,56,103,1430594932
10115,7,Jits_ISO_8,2,5,63,98,1430615464
10115,7,Jits_ISO_8,3,5,80,127,1430618828
10115,7,Jits_ISO_8,0,5,63,98,1431335148
10115,7,Jits_ISO_8,1,1,48,74,1431351596
10115,7,Jits_ISO_8,2,5,80,127,1431415088
10115,7,Jits_ISO_8,3,5,56,103,1431425284
10115,7,Jits_ISO_8,0,1,48,73,1432127852
10115,7,Jits_ISO_8,1,5,63,98,1432154404
10115,7,Jits_ISO_8,2,5,56,103,1432175088
10115,7,Jits_ISO_8,3,5,80,127,1432225052
10115,7,Jits_ISO_8,0,1,48,63,1432901928
10115,7,Jits_ISO_8,1,5,80,127,1432955160
10115,7,Jits_ISO_8,2,5,63,98,1432995100
10115,7,Jits_ISO_8,3,5,56,103,1433014568
10115,7,Jits_ISO_8,0,1,48,67,1433720740
10115,7,Jits_ISO_8,1,5,56,103,1433794900
10115,7,Jits_ISO_8,2,5,63,98,1433805096
10115,7,Jits_ISO_8,3,5,80,127,1433824568
10115,7,Jits_ISO_8,0,1,48,73,1434510784
10115,7,Jits_ISO_8,1,5,56,103,1434524976
10115,7,Jits_ISO_8,2,5,63,98,1434615200
10115,7,Jits_ISO_8,3,5,80,127,1434674468
10115,7,Jits_ISO_8,0,5,80,127,1435354540
10115,7,Jits_ISO_8,1,1,48,83,1435364588
10115,7,Jits_ISO_8,2,5,56,103,1435366072
10115,7,Jits_ISO_8,3,5,63,98,1435435380
10115,7,Jits_ISO_8,0,5,63,98,1436184976
10115,7,Jits_ISO_8,1,1,48,80,1436192900
10115,7,Jits_ISO_8,2,5,80,127,1436275032
10115,7,Jits_ISO_8,3,5,56,103,1436285288
10115,7,Jits_ISO_8,0,5,63,98,1436925200
10115,7,Jits_ISO_8,1,5,80,127,1436974580
10115,7,Jits_ISO_8,2,1,48,61,1437015760
10115,7,Jits_ISO_8,3,5,56,103,1437034816
10115,7,Jits_ISO_8,0,5,56,103,1437754996
10115,7,Jits_ISO_8,1,1,48,68,1437794908
10115,7,Jits_ISO_8,2,5,80,127,1437804824
10115,7,Jits_ISO_8,3,5,63,98,1437825504
10115,7,Jits_ISO_8,0,5,56,103,1438524900
10115,7,Jits_ISO_8,1,1,48,42,1438536412
10115,7,Jits_ISO_8,2,5,80,127,1438585136
10115,7,Jits_ISO_8,3,5,63,98,1438654752
10115,7,Jits_ISO_8,0,1,48,18,1439278880
10115,7,Jits_ISO_8,1,5,56,103,1439324764
10115,7,Jits_ISO_8,2,5,80,127,1439355336
10115,7,Jits_ISO_8,3,5,63,98,1439384996
10115,7,Jits_ISO_8,0,1,48,71,1440135076
10115,7,Jits_ISO_8,1,5,56,103,1440165296
10115,7,Jits_ISO_8,2,5,80,127,1440184936
10115,7,Jits_ISO_8,3,5,63,98,1440245112
10115,7,Jits_ISO_8,0,1,48,60,1440959832
10115,7,Jits_ISO_8,1,5,80,127,1441044752
10115,7,Jits_ISO_8,2,5,56,103,1441055008
10115,7,Jits_ISO_8,3,5,63,98,1441065204
10115,7,Jits_ISO_8,0,1,48,56,1441792228
10115,7,Jits_ISO_8,1,5,56,103,1441804832
10115,7,Jits_ISO_8,2,5,80,127,1441844772
10115,7,Jits_ISO_8,3,5,63,98,1441875420
10115,7,Jits_ISO_8,0,5,56,103,1442574952
10115,7,Jits_ISO_8,1,1,48,49,1442604624
10115,7,Jits_ISO_8,2,5,63,98,1442606196
10115,7,Jits_ISO_8,3,5,80,127,1442645236
10115,7,Jits_ISO_8,0,5,80,127,1443325152
10115,7,Jits_ISO_8,1,1,48,50,1443350968
10115,7,Jits_ISO_8,2,5,63,98,1443374376
10115,7,Jits_ISO_8,3,5,56,103,1443394912
10115,7,Jits_ISO_8,0,1,48,60,1444109920
10115,7,Jits_ISO_8,1,5,56,103,1444154760
10115,7,Jits_ISO_8,2,1,48,33,1444160404
10115,7,Jits_ISO_8,3,5,80,127,1444225320
10115,7,Jits_ISO_8,4,5,63,98,1444284748
10115,7,Jits_ISO_8,0,5,80,127,1444954476
10115,7,Jits_ISO_8,1,1,48,60,1444958420
10115,7,Jits_ISO_8,2,1,48,35,1445006576
10115,7,Jits_ISO_8,3,5,63,98,1445044584
10115,7,Jits_ISO_8,4,5,56,103,1445065068
10115,7,Jits_ISO_8,0,5,63,98,1445774876
10115,7,Jits_ISO_8,1,5,56,103,1445795040
10115,7,Jits_ISO_8,2,1,48,57,1445796004
10115,7,Jits_ISO_8,3,5,80,127,1445835068
10115,7,Jits_ISO_8,4,1,48,37,1445840788
10115,7,Jits_ISO_8,0,1,48,62,1446508692
10115,7,Jits_ISO_8,1,5,80,127,1446534720
10115,7,Jits_ISO_8,2,5,63,98,1446554880
10115,7,Jits_ISO_8,3,5,56,103,1446634832
10115,7,Jits_ISO_8,0,1,48,58,1447295140
10115,7,Jits_ISO_8,1,1,48,45,1447325788
10115,7,Jits_ISO_8,2,5,63,98,1447326980
10115,7,Jits_ISO_8,3,5,56,103,1447434732
10115,7,Jits_ISO_8,4,5,80,127,1447437724
10115,7,Jits_ISO_8,0,1,48,61,1448139132
10115,7,Jits_ISO_8,1,5,63,98,1448145228
10115,7,Jits_ISO_8,2,5,56,103,1448154756
10115,7,Jits_ISO_8,3,5,80,127,1448157816
10115,7,Jits_ISO_8,0,1,48,56,1448911844
10115,7,Jits_ISO_8,1,5,56,103,1448924548
10115,7,Jits_ISO_8,2,5,80,127,1449045308
10115,7,Jits_ISO_8,3,5,63,98,1449085248
10115,7,Jits_ISO_8,0,1,48,58,1449717040
10115,7,Jits_ISO_8,1,5,56,103,1449744712
10115,7,Jits_ISO_8,2,5,80,127,1449825016
10115,7,Jits_ISO_8,3,5,63,98,1449844956
10115,7,Jits_ISO_8,0,1,48,62,1450525588
10115,7,Jits_ISO_8,1,5,56,103,1450544720
10115,7,Jits_ISO_8,2,1,48,42,1450560780
10115,7,Jits_ISO_8,3,5,63,98,1450655880
10115,7,Jits_ISO_8,4,5,80,127,1450658940
10115,7,Jits_ISO_8,0,1,48,65,1451365828
10115,7,Jits_ISO_8,1,5,56,103,1451374992
10115,7,Jits_ISO_8,2,5,80,127,1451404892
10115,7,Jits_ISO_8,3,1,48,47,1451406816
10115,7,Jits_ISO_8,4,5,63,98,1451425104
10115,7,Jits_ISO_8,0,5,63,98,1452155224
10115,7,Jits_ISO_8,1,5,56,103,1452164600
10115,7,Jits_ISO_8,2,1,48,67,1452169440
10115,7,Jits_ISO_8,3,5,80,127,1452174640
10115,7,Jits_ISO_8,4,1,48,49,1452205096
10115,7,Jits_ISO_8,0,1,48,58,1452916984
10115,7,Jits_ISO_8,1,5,80,127,1452944732
10115,7,Jits_ISO_8,2,1,48,40,1452954356
10115,7,Jits_ISO_8,3,5,56,103,1452994864
10115,7,Jits_ISO_8,4,5,63,98,1453034728
10115,7,Jits_ISO_8,0,5,80,127,1453765000
10115,7,Jits_ISO_8,1,5,63,98,1453784636
10115,7,Jits_ISO_8,2,1,48,59,1453788428
10115,7,Jits_ISO_8,3,5,56,103,1453834828
10115,7,Jits_ISO_8,0,5,80,127,1454574984
10115,7,Jits_ISO_8,1,1,48,58,1454600724
10115,7,Jits_ISO_8,2,5,56,103,1454604876
10115,7,Jits_ISO_8,3,5,63,98,1454675308
10115,7,Jits_ISO_8,0,5,56,103,1455424836
10115,7,Jits_ISO_8,1,1,48,56,1455426700
10115,7,Jits_ISO_8,2,5,80,127,1455435100
10115,7,Jits_ISO_8,3,5,63,98,1455475036
10115,7,Jits_ISO_8,0,5,56,103,1456134504
10115,7,Jits_ISO_8,1,5,63,98,1456154964
10115,7,Jits_ISO_8,2,1,48,59,1456223888
10115,7,Jits_ISO_8,3,5,80,127,1456225536
10115,7,Jits_ISO_8,0,1,48,56,1456929388
10115,7,Jits_ISO_8,1,5,63,98,1456954596
10115,7,Jits_ISO_8,2,5,80,127,1457015064
10115,7,Jits_ISO_8,3,5,56,103,1457034832
10115,7,Jits_ISO_8,0,1,48,57,1457702492
10115,7,Jits_ISO_8,1,5,80,127,1457745160
10115,7,Jits_ISO_8,2,5,56,103,1457774988
10115,7,Jits_ISO_8,3,5,63,98,1457804724
10115,7,Jits_ISO_8,0,5,56,103,1458544872
10115,7,Jits_ISO_8,1,1,48,63,1458549708
10115,7,Jits_ISO_8,2,5,63,98,1458605556
10115,7,Jits_ISO_8,3,5,80,127,1458664760
10115,7,Jits_ISO_8,0,1,48,63,1459336548
10115,7,Jits_ISO_8,1,5,80,127,1459365344
10115,7,Jits_ISO_8,2,5,56,103,1459384608
10115,7,Jits_ISO_8,3,5,63,98,1459455344
10115,7,Jits_ISO_8,0,5,80,127,1460165080
10115,7,Jits_ISO_8,1,5,63,98,1460184568
10115,7,Jits_ISO_8,2,1,48,64,1460185536
10115,7,Jits_ISO_8,3,5,56,103,1460215136
10115,7,Jits_ISO_8,0,5,80,127,1460954612
10115,7,Jits_ISO_8,1,5,63,98,1460974852
10115,7,Jits_ISO_8,2,1,48,57,1461031748
10115,7,Jits_ISO_8,3,5,56,103,1461035532
10115,7,Jits_ISO_8,0,5,80,127,1461755236
10115,7,Jits_ISO_8,1,1,48,62,1461853380
10115,7,Jits_ISO_8,2,5,56,103,1461854952
10115,7,Jits_ISO_8,3,5,63,98,1461885304
10115,7,Jits_ISO_8,0,5,63,98,1462544700
10115,7,Jits_ISO_8,1,5,80,127,1462594904
10115,7,Jits_ISO_8,2,5,56,103,1462615512
10115,7,Jits_ISO_8,3,1,48,65,1462683364
10115,7,Jits_ISO_8,0,5,80,127,1463384568
10115,7,Jits_ISO_8,1,1,48,58,1463411804
10115,7,Jits_ISO_8,2,5,56,103,1463415052
10115,7,Jits_ISO_8,3,5,63,98,1463418124
10115,7,Jits_ISO_8,0,1,48,63,1464173764
10115,7,Jits_ISO_8,1,5,63,98,1464214992
10115,7,Jits_ISO_8,2,5,56,103,1464254884
10115,7,Jits_ISO_8,3,5,80,127,1464275252
10115,7,Jits_ISO_8,0,5,80,127,1464955448
10115,7,Jits_ISO_8,1,5,63,98,1465035272
10115,7,Jits_ISO_8,2,1,48,60,1465044020
10115,7,Jits_ISO_8,3,5,56,103,1465074980
10115,7,Jits_ISO_8,0,5,63,98,1465774432
10115,7,Jits_ISO_8,1,1,48,57,1465842296
10115,7,Jits_ISO_8,2,5,80,127,1465855444
10115,7,Jits_ISO_8,3,5,56,103,1465874856
10115,7,Jits_ISO_8,0,5,56,103,1466615228
10115,7,Jits_ISO_8,1,5,63,98,1466625648
10115,7,Jits_ISO_8,2,1,48,64,1466645928
10115,7,Jits_ISO_8,3,5,80,127,1466665432
10115,7,Jits_ISO_8,0,5,56,103,1467335160
10115,7,Jits_ISO_8,1,5,80,127,1467338004
10115,7,Jits_ISO_8,2,1,48,57,1467388028
10115,7,Jits_ISO_8,3,5,63,98,1467475404
10115,7,Jits_ISO_8,0,5,56,103,1468124688
10115,7,Jits_ISO_8,1,5,63,98,1468214604
10115,7,Jits_ISO_8,2,5,80,127,1468285256
10115,7,Jits_ISO_8,3,1,48,60,1468286740
10115,7,Jits_ISO_8,0,1,48,57,1468993616
10115,7,Jits_ISO_8,1,5,63,98,1469005244
10115,7,Jits_ISO_8,2,5,80,127,1469008684
10115,7,Jits_ISO_8,3,5,56,103,1469064664
10115,7,Jits_ISO_8,0,1,48,52,1469792792
10115,7,Jits_ISO_8,1,5,80,127,1469844960
10115,7,Jits_ISO_8,2,5,56,103,1469865420
10115,7,Jits_ISO_8,3,5,63,98,1469874640
10115,7,Jits_ISO_8,0,5,56,103,1470554548
10115,7,Jits_ISO_8,1,5,63,98,1470564672
10115,7,Jits_ISO_8,2,1,48,53,1470633032
10115,7,Jits_ISO_8,3,5,80,127,1470635612
10115,7,Jits_ISO_8,0,5,80,127,1471355392
10115,7,Jits_ISO_8,1,1,48,54,1471368552
10115,7,Jits_ISO_8,2,5,56,103,1471405588
10115,7,Jits_ISO_8,3,5,63,98,1471454544
10115,7,Jits_ISO_8,0,1,48,60,1472204940
10115,7,Jits_ISO_8,1,5,56,103,1472234780
10115,7,Jits_ISO_8,2,5,63,98,1472245200
10115,7,Jits_ISO_8,3,5,80,127,1472285140
10115,7,Jits_ISO_8,0,5,56,103,1472975236
10115,7,Jits_ISO_8,1,5,63,98,1473015324
10115,7,Jits_ISO_8,2,5,80,127,1473065380
10115,7,Jits_ISO_8,3,1,48,56,1473076744
10115,7,Jits_ISO_8,0,5,80,127,1473735028
10115,7,Jits_ISO_8,1,5,56,103,1473785232
10115,7,Jits_ISO_8,2,5,63,98,1473804644
10115,7,Jits_ISO_8,3,1,48,54,1473811876
10115,7,Jits_ISO_8,0,5,80,127,1474545012
10115,7,Jits_ISO_8,1,1,48,57,1474598180
10115,7,Jits_ISO_8,2,5,63,98,1474605324
10115,7,Jits_ISO_8,3,5,56,103,1474685268
10115,7,Jits_ISO_8,0,5,80,127,1475325408
10115,7,Jits_ISO_8,1,5,56,103,1475365348
10115,7,Jits_ISO_8,2,5,63,98,1475384836
10115,7,Jits_ISO_8,3,1,48,56,1475389076
10115,7,Jits_ISO_8,0,1,48,50,1476111448
10115,7,Jits_ISO_8,1,5,56,103,1476175244
10115,7,Jits_ISO_8,2,5,80,127,1476184616
10115,7,Jits_ISO_8,3,5,63,98,1476225512
10115,7,Jits_ISO_8,0,1,48,47,1476912444
10115,7,Jits_ISO_8,1,5,56,103,1477044616
10115,7,Jits_ISO_8,2,5,63,98,1477084504
10115,7,Jits_ISO_8,3,5,80,127,1477087944
10115,7,Jits_ISO_8,0,5,63,98,1477734808
10115,7,Jits_ISO_8,1,5,80,127,1477774672
10115,7,Jits_ISO_8,2,1,48,40,1477775860
10115,7,Jits_ISO_8,3,5,56,103,1477845492
10115,7,Jits_ISO_8,0,5,63,98,1478525592
10115,7,Jits_ISO_8,1,5,56,103,1478605268
10115,7,Jits_ISO_8,2,1,48,36,1478628012
10115,7,Jits_ISO_8,3,5,80,127,1478664528
10115,7,Jits_ISO_8,0,5,80,127,1479335488
10115,7,Jits_ISO_8,1,5,63,98,1479384524
10115,7,Jits_ISO_8,2,1,48,54,1479394392
10115,7,Jits_ISO_8,3,5,56,103,1479415312
10115,7,Jits_ISO_8,0,5,56,103,1480124748
10115,7,Jits_ISO_8,1,5,63,98,1480174952
10115,7,Jits_ISO_8,2,5,80,127,1480185372
10115,7,Jits_ISO_8,3,1,48,48,1480201596
10115,7,Jits_ISO_8,0,5,56,103,1480934656
10115,7,Jits_ISO_8,1,1,48,49,1480935624
10115,7,Jits_ISO_8,2,5,63,98,1481045520
10115,7,Jits_ISO_8,3,5,80,127,1481064784
10115,7,Jits_ISO_8,0,5,63,98,1481734456
10115,7,Jits_ISO_8,1,1,48,54,1481755480
10115,7,Jits_ISO_8,2,5,80,127,1481784728
10115,7,Jits_ISO_8,3,5,56,103,1481874696
10115,7,Jits_ISO_8,0,1,48,53,1482489764
10115,7,Jits_ISO_8,1,5,63,98,1482525088
10115,7,Jits_ISO_8,2,5,80,127,1482554616
10115,7,Jits_ISO_8,3,5,56,103,1482644732
10115,7,Jits_ISO_8,0,1,48,60,1483308432
10115,7,Jits_ISO_8,1,5,63,98,1483324792
10115,7,Jits_ISO_8,2,5,56,103,1483335140
10115,7,Jits_ISO_8,3,5,80,127,1483435372
10115,7,Jits_ISO_8,0,1,48,56,1484083940
10115,7,Jits_ISO_8,1,5,63,98,1484224904
10115,7,Jits_ISO_8,2,5,80,127,1484254508
10115,7,Jits_ISO_8,3,5,56,103,1484285452
10115,7,Jits_ISO_8,0,1,48,51,1484876384
10115,7,Jits_ISO_8,1,5,80,127,1485045372
10115,7,Jits_ISO_8,2,5,63,98,1485055348
10115,7,Jits_ISO_8,3,5,56,103,1485085020
10115,7,Jits_ISO_8,0,1,48,50,1485693268
10115,7,Jits_ISO_8,1,5,80,127,1485744536
10115,7,Jits_ISO_8,2,5,63,98,1485764948
10115,7,Jits_ISO_8,3,5,56,103,1485815280
10115,7,Jits_ISO_8,0,1,48,53,1486446360
10115,7,Jits_ISO_8,1,5,63,98,1486574968
10115,7,Jits_ISO_8,2,5,80,127,1486635360
10115,7,Jits_ISO_8,3,5,56,103,1486654772
10115,7,Jits_ISO_8,0,5,63,98,1487334764
10115,7,Jits_ISO_8,1,5,56,103,1487384896
10115,7,Jits_ISO_8,2,5,80,127,1487395316
10115,7,Jits_ISO_8,3,1,48,57,1487421276
10115,7,Jits_ISO_8,0,5,56,103,1488165484
10115,7,Jits_ISO_8,1,5,80,127,1488174488
10115,7,Jits_ISO_8,2,1,48,51,1488226532
10115,7,Jits_ISO_8,3,5,63,98,1488274952
10115,7,Jits_ISO_8,0,5,80,127,1488925204
10115,7,Jits_ISO_8,1,5,63,98,1488935176
10115,7,Jits_ISO_8,2,1,48,48,1489013516
10115,7,Jits_ISO_8,3,5,56,103,1489084736
10115,7,Jits_ISO_8,0,5,63,98,1489735260
10115,7,Jits_ISO_8,1,1,48,46,1489761076
10115,7,Jits_ISO_8,2,5,80,127,1489775120
10115,7,Jits_ISO_8,3,5,56,103,1489854924
10115,7,Jits_ISO_8,0,1,48,52,1490522736
10115,7,Jits_ISO_8,1,5,56,103,1490524476
10115,7,Jits_ISO_8,2,5,80,127,1490624736
10115,7,Jits_ISO_8,3,5,63,98,1490645344
10115,7,Jits_ISO_8,0,1,48,55,1491376380
10115,7,Jits_ISO_8,1,5,80,127,1491384964
10115,7,Jits_ISO_8,2,5,56,103,1491395084
10115,7,Jits_ISO_8,3,5,63,98,1491485276
10115,7,Jits_ISO_8,0,5,56,103,1492184384
10115,7,Jits_ISO_8,1,5,63,98,1492204844
10115,7,Jits_ISO_8,2,1,48,57,1492252756
10115,7,Jits_ISO_8,3,5,80,127,1492284704
10115,7,Jits_ISO_8,0,5,63,98,1492935180
10115,7,Jits_ISO_8,1,5,56,103,1493025312
10115,7,Jits_ISO_8,2,5,80,127,1493028380
10115,7,Jits_ISO_8,3,1,48,53,1493045216
10115,7,Jits_ISO_8,0,5,56,103,1493764328
10115,7,Jits_ISO_8,1,5,80,127,1493824868
10115,7,Jits_ISO_8,2,5,63,98,1493835068
10115,7,Jits_ISO_8,3,1,48,44,1493841696
10115,7,Jits_ISO_8,0,5,80,127,1494615372
10115,7,Jits_ISO_8,1,1,48,47,1494622460
10115,7,Jits_ISO_8,2,5,56,103,1494624508
10115,7,Jits_ISO_8,3,5,63,98,1494627656
10115,7,Jits_ISO_8,0,5,56,103,1495375352
10115,7,Jits_ISO_8,1,5,80,127,1495384428
10115,7,Jits_ISO_8,2,5,63,98,1495404888
10115,7,Jits_ISO_8,3,1,48,55,1495432116
10115,7,Jits_ISO_8,0,5,63,98,1496145256
10115,7,Jits_ISO_8,1,5,80,127,1496204600
10115,7,Jits_ISO_8,2,1,48,50,1496221644
10115,7,Jits_ISO_8,3,5,56,103,1496255044
10115,7,Jits_ISO_8,0,1,48,53,1497001192
10115,7,Jits_ISO_8,1,5,63,98,1497024852
10115,7,Jits_ISO_8,2,5,56,103,1497035196
10115,7,Jits_ISO_8,3,5,80,127,1497085324
10115,7,Jits_ISO_8,0,5,63,98,1497725200
10115,7,Jits_ISO_8,1,5,80,127,1497744688
10115,7,Jits_ISO_8,2,5,56,103,1497755256
10115,7,Jits_ISO_8,3,1,48,51,1497845380
10115,7,Jits_ISO_8,0,5,63,98,1498525044
10115,7,Jits_ISO_8,1,5,80,127,1498528188
10115,7,Jits_ISO_8,2,1,48,50,1498556664
10115,7,Jits_ISO_8,3,5,56,103,1498565152
10115,7,Jits_ISO_8,0,1,48,48,1499320200
10115,7,Jits_ISO_8,1,5,63,98,1499394412
10115,7,Jits_ISO_8,2,5,80,127,1499425196
10115,7,Jits_ISO_8,3,5,56,103,1499435464
10115,7,Jits_ISO_8,0,5,56,103,1500145052
10115,7,Jits_ISO_8,1,1,48,46,1500173976
10115,7,Jits_ISO_8,2,5,80,127,1500175548
10115,7,Jits_ISO_8,3,5,63,98,1500205296
10115,7,Jits_ISO_8,0,1,48,48,1500952916
10115,7,Jits_ISO_8,1,5,63,98,1501045016
10115,7,Jits_ISO_8,2,5,56,103,1501085012
10115,7,Jits_ISO_8,3,5,80,127,1501088304
10115,7,Jits_ISO_8,0,5,80,127,1501744484
10115,7,Jits_ISO_8,1,5,56,103,1501825256
10115,7,Jits_ISO_8,2,1,48,46,1501864268
10115,7,Jits_ISO_8,3,5,63,98,1501874628
10115,7,Jits_ISO_8,0,5,80,127,1502524656
10115,7,Jits_ISO_8,1,5,56,103,1502545264
10115,7,Jits_ISO_8,2,1,48,49,1502629964
10115,7,Jits_ISO_8,3,5,63,98,1502635316
10115,7,Jits_ISO_8,0,1,48,47,1503360076
10115,7,Jits_ISO_8,1,5,80,127,1503364452
10115,7,Jits_ISO_8,2,1,48,34,1503396476
10115,7,Jits_ISO_8,3,5,63,98,1503405492
10115,7,Jits_ISO_8,4,5,56,103,1503445304
10115,7,Jits_ISO_8,0,5,63,98,1504134572
10115,7,Jits_ISO_8,1,5,80,127,1504195140
10115,7,Jits_ISO_8,2,1,48,46,1504208000
10115,7,Jits_ISO_8,3,5,56,103,1504224508
10115,7,Jits_ISO_8,0,5,56,103,1504935324
10115,7,Jits_ISO_8,1,5,80,127,1504965100
10115,7,Jits_ISO_8,2,1,48,45,1504996312
10115,7,Jits_ISO_8,3,5,63,98,1505055224
10115,7,Jits_ISO_8,0,5,56,103,1505745260
10115,7,Jits_ISO_8,1,1,48,47,1505818428
10115,7,Jits_ISO_8,2,5,80,127,1505854868
10115,7,Jits_ISO_8,3,5,63,98,1505884544
10115,7,Jits_ISO_8,0,5,56,103,1506595036
10115,7,Jits_ISO_8,1,1,48,42,1506632012
10115,7,Jits_ISO_8,2,5,63,98,1506654524
10115,7,Jits_ISO_8,3,5,80,127,1506685396
10115,7,Jits_ISO_8,0,5,56,103,1507365320
10115,7,Jits_ISO_8,1,1,48,41,1507412784
10115,7,Jits_ISO_8,2,5,63,98,1507435000
10115,7,Jits_ISO_8,3,5,80,127,1507455308
10115,7,Jits_ISO_8,0,5,80,127,1508135300
10115,7,Jits_ISO_8,1,5,63,98,1508154788
10115,7,Jits_ISO_8,2,1,48,47,1508169368
10115,7,Jits_ISO_8,3,5,56,103,1508205132
10115,7,Jits_ISO_8,0,9999,9999,9999,1413402728
10115,7,Jits_ISO_8,1,9999,9999,9999,1414202460
10115,7,Jits_ISO_8,2,9999,9999,9999,1415002192
10115,7,Jits_ISO_8,3,9999,9999,9999,1415802968
10115,7,Jits_ISO_8,4,9999,9999,9999,1416602736
10115,7,Jits_ISO_8,5,9999,9999,9999,1417402444
10115,7,Jits_ISO_8,6,9999,9999,9999,1418202176
10115,7,Jits_ISO_8,7,9999,9999,9999,1419002932
10115,7,Jits_ISO_8,8,9999,9999,9999,1419802720
10115,7,Jits_ISO_8,9,9999,9999,9999,1420602488
10115,7,Jits_ISO_8,10,9999,9999,9999,1421402216
10115,7,Jits_ISO_8,11,9999,9999,9999,1422202976
10115,7,Jits_ISO_8,12,9999,9999,9999,1423002708
10115,7,Jits_ISO_8,13,9999,9999,9999,1423802428
10115,7,Jits_ISO_8,14,9999,9999,9999,1424602204
10115,7,Jits_ISO_8,15,9999,9999,9999,1425402972
10115,7,Jits_ISO_8,16,9999,9999,9999,1426202736
10115,7,Jits_ISO_8,17,9999,9999,9999,1427002448
10115,7,Jits_ISO_8,18,9999,9999,9999,1427802164
10115,7,Jits_ISO_8,19,9999,9999,9999,1428602936
10115,7,Jits_ISO_8,20,9999,9999,9999,1429402720
10115,7,Jits_ISO_8,21,9999,9999,9999,1430202428
10115,7,Jits_ISO_8,22,9999,9999,9999,1431002168
10115,7,Jits_ISO_8,23,9999,9999,9999,1431802996
10115,7,Jits_ISO_8,24,9999,9999,9999,1432602700
10115,7,Jits_ISO_8,25,9999,9999,9999,1433402484
10115,7,Jits_ISO_8,26,9999,9999,9999,1434202196
10115,7,Jits_ISO_8,27,9999,9999,9999,1435002948
10115,7,Jits_ISO_8,28,9999,9999,9999,1435802732
10115,7,Jits_ISO_8,29,9999,9999,9999,1436602460
10115,7,Jits_ISO_8,30,9999,9999,9999,1437402164
10115,7,Jits_ISO_8,31,9999,9999,9999,1438202992
10115,7,Jits_ISO_8,32,9999,9999,9999,1439002716
10115,7,Jits_ISO_8,33,9999,9999,9999,1439802432
10115,7,Jits_ISO_8,34,9999,9999,9999,1440602212
10115,7,Jits_ISO_8,35,9999,9999,9999,1441402976
10115,7,Jits_ISO_8,36,9999,9999,9999,1442202692
10115,7,Jits_ISO_8,37,9999,9999,9999,1443002424
10115,7,Jits_ISO_8,38,9999,9999,9999,1443802216
10115,7,Jits_ISO_8,39,9999,9999,9999,1444602968
10115,7,Jits_ISO_8,40,9999,9999,9999,1445402676
10115,7,Jits_ISO_8,41,9999,9999,9999,1446202472
10115,7,Jits_ISO_8,42,9999,9999,9999,1447002200
10115,7,Jits_ISO_8,43,9999,9999,9999,1447802996
10115,7,Jits_ISO_8,44,9999,9999,9999,1448602708
10115,7,Jits_ISO_8,45,9999,9999,9999,1449402448
10115,7,Jits_ISO_8,46,9999,9999,9999,1450202232
10115,7,Jits_ISO_8,47,9999,9999,9999,1451002960
10115,7,Jits_ISO_8,48,9999,9999,9999,1451802744
10115,7,Jits_ISO_8,49,9999,9999,9999,1452602444
10115,7,Jits_ISO_8,50,9999,9999,9999,1453402228
10115,7,Jits_ISO_8,51,9999,9999,9999,1454203004
10115,7,Jits_ISO_8,52,9999,9999,9999,1455002728
10115,7,Jits_ISO_8,53,9999,9999,9999,1455802484
10115,7,Jits_ISO_8,54,9999,9999,9999,1456602200
10115,7,Jits_ISO_8,55,9999,9999,9999,1457402972
10115,7,Jits_ISO_8,56,9999,9999,9999,1458202676
10115,7,Jits_ISO_8,57,9999,9999,9999,1459002460
10115,7,Jits_ISO_8,58,9999,9999,9999,1459802184
10115,7,Jits_ISO_8,59,9999,9999,9999,1460602936
10115,7,Jits_ISO_8,60,9999,9999,9999,1461402732
10115,7,Jits_ISO_8,61,9999,9999,9999,1462202488
10115,7,Jits_ISO_8,62,9999,9999,9999,1463002208
10115,7,Jits_ISO_8,63,9999,9999,9999,1463802956
10115,7,Jits_ISO_8,64,9999,9999,9999,1464602688
10115,7,Jits_ISO_8,65,9999,9999,9999,1465402476
10115,7,Jits_ISO_8,66,9999,9999,9999,1466202204
10115,7,Jits_ISO_8,67,9999,9999,9999,1467002964
10115,7,Jits_ISO_8,68,9999,9999,9999,1467802680
10115,7,Jits_ISO_8,69,9999,9999,9999,1468602432
10115,7,Jits_ISO_8,70,9999,9999,9999,1469402224
10115,7,Jits_ISO_8,71,9999,9999,9999,1470202984
10115,7,Jits_ISO_8,72,9999,9999,9999,1471002692
10115,7,Jits_ISO_8,73,9999,9999,9999,1471802488
10115,7,Jits_ISO_8,74,9999,9999,9999,1472602220
10115,7,Jits_ISO_8,75,9999,9999,9999,1473402980
10115,7,Jits_ISO_8,76,9999,9999,9999,1474202700
10115,7,Jits_ISO_8,77,9999,9999,9999,1475002452
10115,7,Jits_ISO_8,78,9999,9999,9999,1475802172
10115,7,Jits_ISO_8,79,9999,9999,9999,1476602940
10115,7,Jits_ISO_8,80,9999,9999,9999,1477402724
10115,7,Jits_ISO_8,81,9999,9999,9999,1478202432
10115,7,Jits_ISO_8,82,9999,9999,9999,1479002212
10115,7,Jits_ISO_8,83,9999,9999,9999,1479802964
10115,7,Jits_ISO_8,84,9999,9999,9999,1480602684
10115,7,Jits_ISO_8,85,9999,9999,9999,1481402436
10115,7,Jits_ISO_8,86,9999,9999,9999,1482202232
10115,7,Jits_ISO_8,87,9999,9999,9999,1483002980
10115,7,Jits_ISO_8,88,9999,9999,9999,1483802684
10115,7,Jits_ISO_8,89,9999,9999,9999,1484602480
10115,7,Jits_ISO_8,90,9999,9999,9999,1485402196
10115,7,Jits_ISO_8,91,9999,9999,9999,1486202948
10115,7,Jits_ISO_8,92,9999,9999,9999,1487002732
10115,7,Jits_ISO_8,93,9999,9999,9999,1487802464
10115,7,Jits_ISO_8,94,9999,9999,9999,1488602176
10115,7,Jits_ISO_8,95,9999,9999,9999,1489402940
10115,7,Jits_ISO_8,96,9999,9999,9999,1490202736
10115,7,Jits_ISO_8,97,9999,9999,9999,1491002444
10115,7,Jits_ISO_8,98,9999,9999,9999,1491802228
10115,7,Jits_ISO_8,99,9999,9999,9999,1492602984
10115,7,Jits_ISO_8,100,9999,9999,9999,1493402696
10115,7,Jits_ISO_8,101,9999,9999,9999,1494202436
10115,7,Jits_ISO_8,102,9999,9999,9999,1495002200
10115,7,Jits_ISO_8,103,9999,9999,9999,1495802968
10115,7,Jits_ISO_8,104,9999,9999,9999,1496602692
10115,7,Jits_ISO_8,105,9999,9999,9999,1497402484
10115,7,Jits_ISO_8,106,9999,9999,9999,1498202184
10115,7,Jits_ISO_8,107,9999,9999,9999,1499002992
10115,7,Jits_ISO_8,108,9999,9999,9999,1499802680
10115,7,Jits_ISO_8,109,9999,9999,9999,1500602484
10115,7,Jits_ISO_8,110,9999,9999,9999,1501402212
10115,7,Jits_ISO_8,111,9999,9999,9999,1502202972
10115,7,Jits_ISO_8,112,9999,9999,9999,1503002688
10115,7,Jits_ISO_8,113,9999,9999,9999,1503802468
10115,7,Jits_ISO_8,114,9999,9999,9999,1504602196
10115,7,Jits_ISO_8,115,9999,9999,9999,1505402948
10115,7,Jits_ISO_8,116,9999,9999,9999,1506202676
10115,7,Jits_ISO_8,117,9999,9999,9999,1507002432
10115,7,Jits_ISO_8,118,9999,9999,9999,1507802232
10115,7,Jits_ISO_8,119,9999,9999,9999,1508602996
10116,19,Jits_Linear_5,0,5,56,103,1516933560
10116,19,Jits_Linear_5,1,5,63,98,1516936812
10116,19,Jits_Linear_5,2,5,80,127,1516939856
10116,19,Jits_Linear_5,0,5,56,103,1517413800
10116,19,Jits_Linear_5,1,5,63,98,1517416820
10116,19,Jits_Linear_5,2,5,80,127,1517420016
10116,19,Jits_Linear_5,3,1,48,51,1517550072
10116,19,Jits_Linear_5,0,5,56,103,1517893944
10116,19,Jits_Linear_5,1,5,80,127,1517904440
10116,19,Jits_Linear_5,2,1,48,45,1517906964
10116,19,Jits_Linear_5,3,5,63,98,1517923772
10116,19,Jits_Linear_5,0,5,63,98,1518324048
10116,19,Jits_Linear_5,1,1,48,49,1518344852
10116,19,Jits_Linear_5,2,5,80,127,1518353792
10116,19,Jits_Linear_5,3,5,56,103,1518363916
10116,19,Jits_Linear_5,0,1,48,55,1518761176
10116,19,Jits_Linear_5,1,5,80,127,1518863872
10116,19,Jits_Linear_5,2,5,56,103,1518874068
10116,19,Jits_Linear_5,3,5,63,98,1518903744
10116,19,Jits_Linear_5,0,1,48,57,1519240864
10116,19,Jits_Linear_5,1,1,48,46,1519265352
10116,19,Jits_Linear_5,2,5,63,98,1519343928
10116,19,Jits_Linear_5,3,5,56,103,1519373960
10116,19,Jits_Linear_5,4,5,80,127,1519384008
10116,19,Jits_Linear_5,0,5,56,103,1519784256
10116,19,Jits_Linear_5,1,1,48,47,1519811908
10116,19,Jits_Linear_5,2,5,63,98,1519833580
10116,19,Jits_Linear_5,3,5,80,127,1519853892
10116,19,Jits_Linear_5,0,5,80,127,1520273920
10116,19,Jits_Linear_5,1,1,48,46,1520309404
10116,19,Jits_Linear_5,2,5,63,98,1520324144
10116,19,Jits_Linear_5,3,5,56,103,1520363784
10116,19,Jits_Linear_5,0,5,56,103,1520764252
10116,19,Jits_Linear_5,1,5,63,98,1520793856
10116,19,Jits_Linear_5,2,1,48,49,1520819744
10116,19,Jits_Linear_5,3,5,80,127,1520863480
10116,19,Jits_Linear_5,0,1,48,46,1521227428
10116,19,Jits_Linear_5,1,5,56,103,1521253904
10116,19,Jits_Linear_5,2,5,80,127,1521314224
10116,19,Jits_Linear_5,3,5,63,98,1521343912
10116,19,Jits_Linear_5,0,1,48,50,1521740376
10116,19,Jits_Linear_5,1,5,56,103,1521753596
10116,19,Jits_Linear_5,2,5,63,98,1521763868
10116,19,Jits_Linear_5,3,5,80,127,1521803732
10116,19,Jits_Linear_5,0,1,48,50,1522226584
10116,19,Jits_Linear_5,1,5,63,98,1522243992
10116,19,Jits_Linear_5,2,5,80,127,1522324676
10116,19,Jits_Linear_5,3,5,56,103,1522334048
10116,19,Jits_Linear_5,0,1,48,48,1522766956
10116,19,Jits_Linear_5,1,5,63,98,1522793808
10116,19,Jits_Linear_5,2,5,56,103,1522833972
10116,19,Jits_Linear_5,3,5,80,127,1522836964
10116,19,Jits_Linear_5,0,5,56,103,1523253936
10116,19,Jits_Linear_5,1,5,63,98,1523263912
10116,19,Jits_Linear_5,2,1,48,51,1523299988
10116,19,Jits_Linear_5,3,5,80,127,1523303916
10116,19,Jits_Linear_5,0,5,56,103,1523754384
10116,19,Jits_Linear_5,1,5,63,98,1523757376
10116,19,Jits_Linear_5,2,5,80,127,1523773796
10116,19,Jits_Linear_5,3,1,48,48,1523786280
10116,19,Jits_Linear_5,0,1,48,42,1524221884
10116,19,Jits_Linear_5,1,5,80,127,1524273476
10116,19,Jits_Linear_5,2,5,56,103,1524283672
10116,19,Jits_Linear_5,3,1,48,20,1524320556
10116,19,Jits_Linear_5,4,5,63,98,1524354452
10116,19,Jits_Linear_5,0,5,63,98,1524774188
10116,19,Jits_Linear_5,1,1,48,49,1524777828
10116,19,Jits_Linear_5,2,5,56,103,1524793820
10116,19,Jits_Linear_5,3,5,80,127,1524873528
10116,19,Jits_Linear_5,0,5,56,103,1525293284
10116,19,Jits_Linear_5,1,1,48,47,1525300740
10116,19,Jits_Linear_5,2,5,80,127,1525334268
10116,19,Jits_Linear_5,3,5,63,98,1525343712
10116,19,Jits_Linear_5,0,1,48,45,1525791364
10116,19,Jits_Linear_5,1,5,80,127,1525794100
10116,19,Jits_Linear_5,2,5,63,98,1525823852
10116,19,Jits_Linear_5,3,5,56,103,1525863792
10116,19,Jits_Linear_5,0,1,48,46,1526306348
10116,19,Jits_Linear_5,1,5,56,103,1526323756
10116,19,Jits_Linear_5,2,5,63,98,1526354256
10116,19,Jits_Linear_5,3,5,80,127,1526403768
10116,19,Jits_Linear_5,0,5,80,127,1526833868
10116,19,Jits_Linear_5,1,1,48,46,1526855496
10116,19,Jits_Linear_5,2,5,56,103,1526873580
10116,19,Jits_Linear_5,3,5,63,98,1526883924
10116,19,Jits_Linear_5,0,5,80,127,1527334244
10116,19,Jits_Linear_5,1,5,63,98,1527374184
10116,19,Jits_Linear_5,2,1,48,43,1527378720
10116,19,Jits_Linear_5,3,5,56,103,1527433668
10116,19,Jits_Linear_5,0,5,56,103,1527853500
10116,19,Jits_Linear_5,1,5,80,127,1527863848
10116,19,Jits_Linear_5,2,1,48,48,1527891984
10116,19,Jits_Linear_5,3,5,63,98,1527943860
10116,19,Jits_Linear_5,0,1,48,42,1528366800
10116,19,Jits_Linear_5,1,5,80,127,1528373720
10116,19,Jits_Linear_5,2,5,63,98,1528434116
10116,19,Jits_Linear_5,3,5,56,103,1528464000
10116,19,Jits_Linear_5,0,5,56,103,1528893944
10116,19,Jits_Linear_5,1,1,48,52,1528913180
10116,19,Jits_Linear_5,2,5,80,127,1528954108
10116,19,Jits_Linear_5,3,5,63,98,1528994048
10116,19,Jits_Linear_5,0,1,48,42,1529404404
10116,19,Jits_Linear_5,1,5,56,103,1529474708
10116,19,Jits_Linear_5,2,5,63,98,1529483708
10116,19,Jits_Linear_5,3,5,80,127,1529486996
10116,19,Jits_Linear_5,0,5,80,127,1529953864
10116,19,Jits_Linear_5,1,1,48,41,1529997068
10116,19,Jits_Linear_5,2,5,63,98,1530043652
10116,19,Jits_Linear_5,3,5,56,103,1530053920
10116,19,Jits_Linear_5,0,5,56,103,1530484048
10116,19,Jits_Linear_5,1,5,63,98,1530487072
10116,19,Jits_Linear_5,2,5,80,127,1530490340
10116,19,Jits_Linear_5,3,1,48,44,1530547108
10116,19,Jits_Linear_5,0,1,48,45,1530989540
10116,19,Jits_Linear_5,1,5,80,127,1531034008
10116,19,Jits_Linear_5,2,5,63,98,1531084076
10116,19,Jits_Linear_5,3,5,56,103,1531113752
10116,19,Jits_Linear_5,0,5,56,103,1531544116
10116,19,Jits_Linear_5,1,5,80,127,1531554092
10116,19,Jits_Linear_5,2,1,48,43,1531618288
10116,19,Jits_Linear_5,3,5,63,98,1531623644
10116,19,Jits_Linear_5,0,1,48,41,1532082704
10116,19,Jits_Linear_5,1,5,56,103,1532084196
10116,19,Jits_Linear_5,2,5,63,98,1532104012
10116,19,Jits_Linear_5,3,5,80,127,1532163580
10116,19,Jits_Linear_5,0,5,80,127,1532614036
10116,19,Jits_Linear_5,1,1,48,46,1532618648
10116,19,Jits_Linear_5,2,5,63,98,1532683716
10116,19,Jits_Linear_5,3,5,56,103,1532704252
10116,19,Jits_Linear_5,0,1,48,49,1533148172
10116,19,Jits_Linear_5,1,5,80,127,1533174124
10116,19,Jits_Linear_5,2,5,56,103,1533184320
10116,19,Jits_Linear_5,3,5,63,98,1533193692
10116,19,Jits_Linear_5,0,1,48,44,1533669724
10116,19,Jits_Linear_5,1,5,80,127,1533703700
10116,19,Jits_Linear_5,2,5,56,103,1533724084
10116,19,Jits_Linear_5,3,5,63,98,1533793752
10116,19,Jits_Linear_5,0,1,48,51,1534234684
10116,19,Jits_Linear_5,1,5,56,103,1534253364
10116,19,Jits_Linear_5,2,5,80,127,1534284088
10116,19,Jits_Linear_5,3,5,63,98,1534303724
10116,19,Jits_Linear_5,0,1,48,48,1534787484
10116,19,Jits_Linear_5,1,5,63,98,1534794108
10116,19,Jits_Linear_5,2,5,56,103,1534853456
10116,19,Jits_Linear_5,3,5,80,127,1534884312
10116,19,Jits_Linear_5,0,5,63,98,1535333808
10116,19,Jits_Linear_5,1,5,80,127,1535337100
10116,19,Jits_Linear_5,2,1,48,48,1535343228
10116,19,Jits_Linear_5,3,5,56,103,1535423812
10116,19,Jits_Linear_5,0,1,48,50,1535853836
10116,19,Jits_Linear_5,1,5,56,103,1535904132
10116,19,Jits_Linear_5,2,5,63,98,1535933688
10116,19,Jits_Linear_5,3,5,80,127,1535973908
10116,19,Jits_Linear_5,0,1,48,52,1536432796
10116,19,Jits_Linear_5,1,5,63,98,1536453972
10116,19,Jits_Linear_5,2,5,56,103,1536493912
10116,19,Jits_Linear_5,3,5,80,127,1536514300
10116,19,Jits_Linear_5,0,1,48,51,1536941476
10116,19,Jits_Linear_5,1,5,63,98,1537014196
10116,19,Jits_Linear_5,2,5,56,103,1537054120
10116,19,Jits_Linear_5,3,5,80,127,1537064244
10116,19,Jits_Linear_5,0,1,48,51,1537509580
10116,19,Jits_Linear_5,1,5,80,127,1537543776
10116,19,Jits_Linear_5,2,5,63,98,1537614120
10116,19,Jits_Linear_5,3,5,56,103,1537633608
10116,19,Jits_Linear_5,0,1,48,52,1538069352
10116,19,Jits_Linear_5,1,5,56,103,1538093664
10116,19,Jits_Linear_5,2,5,80,127,1538113900
10116,19,Jits_Linear_5,3,5,63,98,1538153988
10116,19,Jits_Linear_5,0,1,48,52,1538654532
10116,19,Jits_Linear_5,1,5,63,98,1538663848
10116,19,Jits_Linear_5,2,5,80,127,1538684232
10116,19,Jits_Linear_5,3,5,56,103,1538724172
10116,19,Jits_Linear_5,0,1,48,47,1539173024
10116,19,Jits_Linear_5,1,5,63,98,1539224068
10116,19,Jits_Linear_5,2,5,56,103,1539244604
10116,19,Jits_Linear_5,3,5,80,127,1539253680
10116,19,Jits_Linear_5,0,1,48,48,1539730380
10116,19,Jits_Linear_5,1,5,80,127,1539794504
10116,19,Jits_Linear_5,2,5,56,103,1539813696
10116,19,Jits_Linear_5,3,5,63,98,1539843728
10116,19,Jits_Linear_5,0,1,48,47,1540296332
10116,19,Jits_Linear_5,1,5,56,103,1540434204
10116,19,Jits_Linear_5,2,5,80,127,1540437572
10116,19,Jits_Linear_5,3,5,63,98,1540453920
10116,19,Jits_Linear_5,0,5,63,98,1540923872
10116,19,Jits_Linear_5,1,1,48,49,1540931180
10116,19,Jits_Linear_5,2,5,56,103,1540953544
10116,19,Jits_Linear_5,3,5,80,127,1541013860
10116,19,Jits_Linear_5,0,1,48,50,1541471160
10116,19,Jits_Linear_5,1,5,63,98,1541573860
10116,19,Jits_Linear_5,2,5,56,103,1541584280
10116,19,Jits_Linear_5,3,5,80,127,1541593728
10116,19,Jits_Linear_5,0,5,56,103,1542094100
10116,19,Jits_Linear_5,1,1,48,50,1542105764
10116,19,Jits_Linear_5,2,5,80,127,1542123772
10116,19,Jits_Linear_5,3,5,63,98,1542134044
10116,19,Jits_Linear_5,0,1,48,51,1542659916
10116,19,Jits_Linear_5,1,5,63,98,1542703484
10116,19,Jits_Linear_5,2,5,56,103,1542713684
10116,19,Jits_Linear_5,3,5,80,127,1542734216
10116,19,Jits_Linear_5,0,1,48,47,1543201784
10116,19,Jits_Linear_5,1,5,56,103,1543204148
10116,19,Jits_Linear_5,2,5,63,98,1543263568
10116,19,Jits_Linear_5,3,5,80,127,1543266860
10116,19,Jits_Linear_5,0,1,48,49,1543753324
10116,19,Jits_Linear_5,1,5,80,127,1543804444
10116,19,Jits_Linear_5,2,5,56,103,1543813592
10116,19,Jits_Linear_5,3,5,63,98,1543884108
10116,19,Jits_Linear_5,0,1,48,51,1544321936
10116,19,Jits_Linear_5,1,5,80,127,1544373584
10116,19,Jits_Linear_5,2,5,56,103,1544444228
10116,19,Jits_Linear_5,3,5,63,98,1544453600
10116,19,Jits_Linear_5,0,1,48,54,1544941484
10116,19,Jits_Linear_5,1,5,63,98,1544994120
10116,19,Jits_Linear_5,2,5,56,103,1545004692
10116,19,Jits_Linear_5,3,5,80,127,1545023804
10116,19,Jits_Linear_5,0,1,48,51,1545505392
10116,19,Jits_Linear_5,1,5,80,127,1545523476
10116,19,Jits_Linear_5,2,5,63,98,1545583944
10116,19,Jits_Linear_5,3,5,56,103,1545624016
10116,19,Jits_Linear_5,0,1,48,51,1546077000
10116,19,Jits_Linear_5,1,5,56,103,1546154280
10116,19,Jits_Linear_5,2,5,63,98,1546163652
10116,19,Jits_Linear_5,3,5,80,127,1546203504
10116,19,Jits_Linear_5,0,5,56,103,1546704320
10116,19,Jits_Linear_5,1,1,48,54,1546719048
10116,19,Jits_Linear_5,2,5,80,127,1546733916
10116,19,Jits_Linear_5,3,5,63,98,1546784120
10116,19,Jits_Linear_5,0,1,48,52,1547321700
10116,19,Jits_Linear_5,1,5,56,103,1547334008
10116,19,Jits_Linear_5,2,5,63,98,1547373872
10116,19,Jits_Linear_5,3,5,80,127,1547377460
10116,19,Jits_Linear_5,0,1,48,49,1547866472
10116,19,Jits_Linear_5,1,5,56,103,1547923968
10116,19,Jits_Linear_5,2,5,63,98,1547934088
10116,19,Jits_Linear_5,3,5,80,127,1547953648
10116,19,Jits_Linear_5,0,1,48,45,1548431408
10116,19,Jits_Linear_5,1,5,56,103,1548473652
10116,19,Jits_Linear_5,2,5,80,127,1548476644
10116,19,Jits_Linear_5,3,5,63,98,1548513588
10116,19,Jits_Linear_5,0,1,48,48,1549036300
10116,19,Jits_Linear_5,1,5,63,98,1549103612
10116,19,Jits_Linear_5,2,5,56,103,1549134172
10116,19,Jits_Linear_5,3,5,80,127,1549153736
10116,19,Jits_Linear_5,0,1,48,53,1549624100
10116,19,Jits_Linear_5,1,5,80,127,1549673804
10116,19,Jits_Linear_5,2,5,56,103,1549684224
10116,19,Jits_Linear_5,3,5,63,98,1549694640
10116,19,Jits_Linear_5,0,1,48,52,1550209784
10116,19,Jits_Linear_5,1,5,56,103,1550273832
10116,19,Jits_Linear_5,2,5,80,127,1550313832
10116,19,Jits_Linear_5,3,5,63,98,1550343432
10116,19,Jits_Linear_5,0,1,48,54,1550709388
10116,19,Jits_Linear_5,1,5,63,98,1550884160
10116,19,Jits_Linear_5,2,5,80,127,1550893460
10116,19,Jits_Linear_5,3,5,56,103,1550903808
10116,19,Jits_Linear_5,0,1,48,48,1551421428
10116,19,Jits_Linear_5,1,5,56,103,1551463652
10116,19,Jits_Linear_5,2,5,63,98,1551533548
10116,19,Jits_Linear_5,3,5,80,127,1551543620
10116,19,Jits_Linear_5,0,1,48,44,1552067104
10116,19,Jits_Linear_5,1,5,80,127,1552074324
10116,19,Jits_Linear_5,2,5,56,103,1552084668
10116,19,Jits_Linear_5,3,5,63,98,1552133528
10116,19,Jits_Linear_5,0,1,48,52,1552661476
10116,19,Jits_Linear_5,1,5,80,127,1552693736
10116,19,Jits_Linear_5,2,5,56,103,1552753904
10116,19,Jits_Linear_5,3,5,63,98,1552783716
10116,19,Jits_Linear_5,0,1,48,52,1553296712
10116,19,Jits_Linear_5,1,5,56,103,1553303856
10116,19,Jits_Linear_5,2,5,80,127,1553306848
10116,19,Jits_Linear_5,3,5,63,98,1553343820
10116,19,Jits_Linear_5,0,1,48,50,1553873960
10116,19,Jits_Linear_5,1,5,56,103,1553943812
10116,19,Jits_Linear_5,2,5,63,98,1553974744
10116,19,Jits_Linear_5,3,5,80,127,1553983816
10116,19,Jits_Linear_5,0,1,48,48,1554507824
10116,19,Jits_Linear_5,1,5,63,98,1554563596
10116,19,Jits_Linear_5,2,5,80,127,1554573572
10116,19,Jits_Linear_5,3,5,56,103,1554583916
10116,19,Jits_Linear_5,0,5,80,127,1555123528
10116,19,Jits_Linear_5,1,1,48,50,1555142604
10116,19,Jits_Linear_5,2,5,56,103,1555173796
10116,19,Jits_Linear_5,3,5,63,98,1555176864
10116,19,Jits_Linear_5,0,1,48,52,1555741620
10116,19,Jits_Linear_5,1,5,56,103,1555773732
10116,19,Jits_Linear_5,2,5,80,127,1555794412
10116,19,Jits_Linear_5,3,5,63,98,1555803564
10116,19,Jits_Linear_5,0,1,48,49,1556335948
10116,19,Jits_Linear_5,1,5,63,98,1556373960
10116,19,Jits_Linear_5,2,5,56,103,1556403564
10116,19,Jits_Linear_5,3,5,80,127,1556424168
10116,19,Jits_Linear_5,0,1,48,48,1556907676
10116,19,Jits_Linear_5,1,5,56,103,1557003620
10116,19,Jits_Linear_5,2,5,80,127,1557013964
10116,19,Jits_Linear_5,3,5,63,98,1557083500
10116,19,Jits_Linear_5,0,1,48,50,1557595672
10116,19,Jits_Linear_5,1,5,63,98,1557613904
10116,19,Jits_Linear_5,2,5,80,127,1557653848
10116,19,Jits_Linear_5,3,5,56,103,1557693872
10116,19,Jits_Linear_5,0,1,48,50,1558193736
10116,19,Jits_Linear_5,1,5,56,103,1558253800
10116,19,Jits_Linear_5,2,5,63,98,1558264516
10116,19,Jits_Linear_5,3,5,80,127,1558283708
10116,19,Jits_Linear_5,0,1,48,49,1558800268
10116,19,Jits_Linear_5,1,5,63,98,1558923620
10116,19,Jits_Linear_5,2,5,80,127,1558944232
10116,19,Jits_Linear_5,3,5,56,103,1558963420
10116,19,Jits_Linear_5,0,1,48,43,1559455560
10116,19,Jits_Linear_5,1,5,56,103,1559493900
10116,19,Jits_Linear_5,2,5,80,127,1559573832
10116,19,Jits_Linear_5,3,5,63,98,1559584476
10116,19,Jits_Linear_5,0,5,80,127,1560163668
10116,19,Jits_Linear_5,1,1,48,42,1560171576
10116,19,Jits_Linear_5,2,5,63,98,1560173936
10116,19,Jits_Linear_5,3,5,56,103,1560203536
10116,19,Jits_Linear_5,0,5,63,98,1560753500
10116,19,Jits_Linear_5,1,1,48,47,1560780608
10116,19,Jits_Linear_5,2,5,80,127,1560793312
10116,19,Jits_Linear_5,3,5,56,103,1560854000
10116,19,Jits_Linear_5,0,5,63,98,1561393396
10116,19,Jits_Linear_5,1,1,48,50,1561399728
10116,19,Jits_Linear_5,2,5,56,103,1561443740
10116,19,Jits_Linear_5,3,5,80,127,1561474540
10116,19,Jits_Linear_5,0,1,48,47,1561993892
10116,19,Jits_Linear_5,1,5,80,127,1562043692
10116,19,Jits_Linear_5,2,5,63,98,1562054264
10116,19,Jits_Linear_5,3,5,56,103,1562123708
10116,19,Jits_Linear_5,0,1,48,46,1562647116
10116,19,Jits_Linear_5,1,5,80,127,1562754348
10116,19,Jits_Linear_5,2,5,56,103,1562763572
10116,19,Jits_Linear_5,3,5,63,98,1562766712
10116,19,Jits_Linear_5,0,5,56,103,1563333940
10116,19,Jits_Linear_5,1,1,48,45,1563348668
10116,19,Jits_Linear_5,2,5,80,127,1563353424
10116,19,Jits_Linear_5,3,5,63,98,1563363768
10116,19,Jits_Linear_5,0,1,48,38,1563958424
10116,19,Jits_Linear_5,1,5,63,98,1563984452
10116,19,Jits_Linear_5,2,5,56,103,1564024392
10116,19,Jits_Linear_5,3,5,80,127,1564043508
10116,19,Jits_Linear_5,0,1,48,48,1564578508
10116,19,Jits_Linear_5,1,5,63,98,1564633412
10116,19,Jits_Linear_5,2,5,56,103,1564693788
10116,19,Jits_Linear_5,3,5,80,127,1564696860
10116,19,Jits_Linear_5,0,1,48,50,1565223576
10116,19,Jits_Linear_5,1,5,56,103,1565243828
10116,19,Jits_Linear_5,2,5,80,127,1565264216
10116,19,Jits_Linear_5,3,5,63,98,1565304304
10116,19,Jits_Linear_5,0,1,48,50,1565811564
10116,19,Jits_Linear_5,1,5,56,103,1565923632
10116,19,Jits_Linear_5,2,5,63,98,1565944316
10116,19,Jits_Linear_5,3,5,80,127,1565954512
10116,19,Jits_Linear_5,0,1,48,45,1566518672
10116,19,Jits_Linear_5,1,5,80,127,1566544548
10116,19,Jits_Linear_5,2,5,56,103,1566573856
10116,19,Jits_Linear_5,3,5,63,98,1566613928
10116,19,Jits_Linear_5,0,1,48,51,1567196924
10116,19,Jits_Linear_5,1,5,80,127,1567203548
10116,19,Jits_Linear_5,2,5,56,103,1567224528
10116,19,Jits_Linear_5,3,5,63,98,1567283576
10116,19,Jits_Linear_5,0,1,48,49,1567836640
10116,19,Jits_Linear_5,1,5,56,103,1567864536
10116,19,Jits_Linear_5,2,5,80,127,1567883580
10116,19,Jits_Linear_5,3,5,63,98,1567944128
10116,19,Jits_Linear_5,0,5,80,127,1568504284
10116,19,Jits_Linear_5,1,5,56,103,1568514336
10116,19,Jits_Linear_5,2,1,48,49,1568515300
10116,19,Jits_Linear_5,3,5,63,98,1568554340
10116,19,Jits_Linear_5,0,1,48,52,1569139024
10116,19,Jits_Linear_5,1,5,63,98,1569163484
10116,19,Jits_Linear_5,2,5,56,103,1569203500
10116,19,Jits_Linear_5,3,5,80,127,1569206516
10116,19,Jits_Linear_5,0,1,48,48,1569781592
10116,19,Jits_Linear_5,1,5,63,98,1569843520
10116,19,Jits_Linear_5,2,5,80,127,1569883596
10116,19,Jits_Linear_5,3,5,56,103,1569914392
10116,19,Jits_Linear_5,0,1,48,49,1570416372
10116,19,Jits_Linear_5,1,5,56,103,1570493824
10116,19,Jits_Linear_5,2,5,63,98,1570504168
10116,19,Jits_Linear_5,3,5,80,127,1570533756
10116,19,Jits_Linear_5,0,1,48,50,1571125344
10116,19,Jits_Linear_5,1,5,80,127,1571154212
10116,19,Jits_Linear_5,2,5,63,98,1571224108
10116,19,Jits_Linear_5,3,5,56,103,1571234452
10116,19,Jits_Linear_5,0,1,48,49,1571813788
10116,19,Jits_Linear_5,1,5,63,98,1571823928
10116,19,Jits_Linear_5,2,5,56,103,1571893760
10116,19,Jits_Linear_5,3,5,80,127,1571903808
10116,19,Jits_Linear_5,0,5,63,98,1572493620
10116,19,Jits_Linear_5,1,5,56,103,1572514304
10116,19,Jits_Linear_5,2,1,48,54,1572539768
10116,19,Jits_Linear_5,3,5,80,127,1572554336
10116,19,Jits_Linear_5,0,5,56,103,1573173516
10116,19,Jits_Linear_5,1,5,63,98,1573183712
10116,19,Jits_Linear_5,2,1,48,53,1573196716
10116,19,Jits_Linear_5,3,5,80,127,1573263652
10116,19,Jits_Linear_5,0,1,48,54,1573827988
10116,19,Jits_Linear_5,1,5,63,98,1573834308
10116,19,Jits_Linear_5,2,5,56,103,1573863912
10116,19,Jits_Linear_5,3,5,80,127,1573903776
10116,19,Jits_Linear_5,0,1,48,48,1574498116
10116,19,Jits_Linear_5,1,5,56,103,1574503692
10116,19,Jits_Linear_5,2,5,63,98,1574543708
10116,19,Jits_Linear_5,3,5,80,127,1574583524
10116,19,Jits_Linear_5,0,1,48,46,1575112460
10116,19,Jits_Linear_5,1,5,80,127,1575183664
10116,19,Jits_Linear_5,2,5,56,103,1575263748
10116,19,Jits_Linear_5,3,5,63,98,1575273796
10116,19,Jits_Linear_5,0,5,56,103,1575903576
10116,19,Jits_Linear_5,1,5,63,98,1575906644
10116,19,Jits_Linear_5,2,5,80,127,1575913700
10116,19,Jits_Linear_5,3,1,48,51,1575917264
10116,19,Jits_Linear_5,0,1,48,48,1576589932
10116,19,Jits_Linear_5,1,5,56,103,1576604200
10116,19,Jits_Linear_5,2,5,63,98,1576623468
10116,19,Jits_Linear_5,3,5,80,127,1576633612
10116,19,Jits_Linear_5,0,5,63,98,1577244176
10116,19,Jits_Linear_5,1,5,80,127,1577254372
10116,19,Jits_Linear_5,2,5,56,103,1577273860
10116,19,Jits_Linear_5,3,1,48,46,1577274900
10116,19,Jits_Linear_5,0,5,63,98,1577934480
10116,19,Jits_Linear_5,1,1,48,50,1577939692
10116,19,Jits_Linear_5,2,5,56,103,1578014124
10116,19,Jits_Linear_5,3,5,80,127,1578017412
10116,19,Jits_Linear_5,0,1,48,54,1578617012
10116,19,Jits_Linear_5,1,5,63,98,1578624528
10116,19,Jits_Linear_5,2,5,56,103,1578643868
10116,19,Jits_Linear_5,3,5,80,127,1578673468
10116,19,Jits_Linear_5,0,1,48,51,1579256896
10116,19,Jits_Linear_5,1,5,56,103,1579313420
10116,19,Jits_Linear_5,2,5,63,98,1579334176
10116,19,Jits_Linear_5,3,5,80,127,1579344296
10116,19,Jits_Linear_5,0,1,48,38,1579939604
10116,19,Jits_Linear_5,1,5,56,103,1580034356
10116,19,Jits_Linear_5,2,5,63,98,1580064400
10116,19,Jits_Linear_5,3,5,80,127,1580067616
10116,19,Jits_Linear_5,0,1,48,56,1580659504
10116,19,Jits_Linear_5,1,5,56,103,1580674300
10116,19,Jits_Linear_5,2,5,63,98,1580714316
10116,19,Jits_Linear_5,3,5,80,127,1580773668
10116,19,Jits_Linear_5,0,1,48,48,1581355152
10116,19,Jits_Linear_5,1,5,56,103,1581384464
10116,19,Jits_Linear_5,2,5,63,98,1581394364
10116,19,Jits_Linear_5,3,5,80,127,1581453560
10116,19,Jits_Linear_5,0,1,48,46,1582061480
10116,19,Jits_Linear_5,1,5,56,103,1582083400
10116,19,Jits_Linear_5,2,5,80,127,1582104008
10116,19,Jits_Linear_5,3,5,63,98,1582133612
10116,19,Jits_Linear_5,0,1,48,44,1582760608
10116,19,Jits_Linear_5,1,5,80,127,1582784044
10116,19,Jits_Linear_5,2,5,56,103,1582794168
10116,19,Jits_Linear_5,3,5,63,98,1582813432
10116,19,Jits_Linear_5,0,1,48,45,1583437140
10116,19,Jits_Linear_5,1,5,63,98,1583474028
10116,19,Jits_Linear_5,2,5,80,127,1583554136
10116,19,Jits_Linear_5,3,5,56,103,1583564332
10116,19,Jits_Linear_5,0,1,48,46,1584192268
10116,19,Jits_Linear_5,1,5,80,127,1584233724
10116,19,Jits_Linear_5,2,5,56,103,1584254408
10116,19,Jits_Linear_5,3,5,63,98,1584257400
10116,19,Jits_Linear_5,0,5,63,98,1584913764
10116,19,Jits_Linear_5,1,5,80,127,1584917200
10116,19,Jits_Linear_5,2,1,48,45,1584936140
10116,19,Jits_Linear_5,3,5,56,103,1584974368
10116,19,Jits_Linear_5,0,5,56,103,1585604064
10116,19,Jits_Linear_5,1,1,48,48,1585606436
10116,19,Jits_Linear_5,2,5,80,127,1585614256
10116,19,Jits_Linear_5,3,5,63,98,1585654120
10116,19,Jits_Linear_5,0,1,48,50,1586255896
10116,19,Jits_Linear_5,1,5,56,103,1586294204
10116,19,Jits_Linear_5,2,5,63,98,1586353480
10116,19,Jits_Linear_5,3,5,80,127,1586363908
10116,19,Jits_Linear_5,0,1,48,48,1586905220
10116,19,Jits_Linear_5,1,5,63,98,1587014244
10116,19,Jits_Linear_5,2,5,80,127,1587054036
10116,19,Jits_Linear_5,3,5,56,103,1587094048
10116,19,Jits_Linear_5,0,1,48,52,1587694664
10116,19,Jits_Linear_5,1,5,56,103,1587723680
10116,19,Jits_Linear_5,2,5,63,98,1587803540
10116,19,Jits_Linear_5,3,5,80,127,1587806904
10116,19,Jits_Linear_5,0,1,48,51,1588487236
10116,19,Jits_Linear_5,1,5,80,127,1588493780
10116,19,Jits_Linear_5,2,5,56,103,1588524352
10116,19,Jits_Linear_5,3,5,63,98,1588527640
10116,19,Jits_Linear_5,0,5,56,103,1589173752
10116,19,Jits_Linear_5,1,5,80,127,1589194212
10116,19,Jits_Linear_5,2,1,48,49,1589208040
10116,19,Jits_Linear_5,3,5,63,98,1589233996
10116,19,Jits_Linear_5,0,5,80,127,1589874092
10116,19,Jits_Linear_5,1,1,48,51,1589884112
10116,19,Jits_Linear_5,2,5,63,98,1589893348
10116,19,Jits_Linear_5,3,5,56,103,1589954136
10116,19,Jits_Linear_5,0,1,48,48,1590613032
10116,19,Jits_Linear_5,1,5,63,98,1590614532
10116,19,Jits_Linear_5,2,5,56,103,1590623604
10116,19,Jits_Linear_5,3,5,80,127,1590673960
10116,19,Jits_Linear_5,0,1,48,55,1591291244
10116,19,Jits_Linear_5,1,5,56,103,1591324096
10116,19,Jits_Linear_5,2,5,63,98,1591343436
10116,19,Jits_Linear_5,3,5,80,127,1591353856
10116,19,Jits_Linear_5,0,1,48,44,1591993400
10116,19,Jits_Linear_5,1,5,56,103,1592044064
10116,19,Jits_Linear_5,2,5,63,98,1592046984
10116,19,Jits_Linear_5,3,5,80,127,1592064304
10116,19,Jits_Linear_5,0,1,48,50,1592650760
10116,19,Jits_Linear_5,1,5,63,98,1592813920
10116,19,Jits_Linear_5,2,5,56,103,1592843748
10116,19,Jits_Linear_5,3,5,80,127,1592874392
10116,19,Jits_Linear_5,0,1,48,51,1593495428
10116,19,Jits_Linear_5,1,5,80,127,1593504144
10116,19,Jits_Linear_5,2,5,56,103,1593594292
10116,19,Jits_Linear_5,3,5,63,98,1593597356
10116,19,Jits_Linear_5,0,5,56,103,1594234236
10116,19,Jits_Linear_5,1,5,80,127,1594237156
10116,19,Jits_Linear_5,2,5,63,98,1594313984
10116,19,Jits_Linear_5,3,1,48,51,1594383932
10116,19,Jits_Linear_5,0,1,48,49,1594933512
10116,19,Jits_Linear_5,1,5,80,127,1594964476
10116,19,Jits_Linear_5,2,5,63,98,1595023676
10116,19,Jits_Linear_5,3,5,56,103,1595053336
10116,19,Jits_Linear_5,0,5,63,98,1595693536
10116,19,Jits_Linear_5,1,5,80,127,1595703956
10116,19,Jits_Linear_5,2,1,48,49,1595746180
10116,19,Jits_Linear_5,3,5,56,103,1595774304
10116,19,Jits_Linear_5,0,5,56,103,1596444004
10116,19,Jits_Linear_5,1,1,48,48,1596455592
10116,19,Jits_Linear_5,2,5,80,127,1596473824
10116,19,Jits_Linear_5,3,5,63,98,1596524100
10116,19,Jits_Linear_5,0,1,48,45,1597184792
10116,19,Jits_Linear_5,1,5,63,98,1597224380
10116,19,Jits_Linear_5,2,5,56,103,1597253900
10116,19,Jits_Linear_5,3,5,80,127,1597257048
10116,19,Jits_Linear_5,0,1,48,46,1597912488
10116,19,Jits_Linear_5,1,5,63,98,1597963608
10116,19,Jits_Linear_5,2,5,80,127,1597984216
10116,19,Jits_Linear_5,3,5,56,103,1597994340
10116,19,Jits_Linear_5,0,1,48,39,1598629804
10116,19,Jits_Linear_5,1,5,56,103,1598714156
10116,19,Jits_Linear_5,2,5,63,98,1598717224
10116,19,Jits_Linear_5,3,5,80,127,1598733776
10116,19,Jits_Linear_5,0,1,48,50,1599409348
10116,19,Jits_Linear_5,1,5,56,103,1599413752
10116,19,Jits_Linear_5,2,5,63,98,1599423872
10116,19,Jits_Linear_5,3,5,80,127,1599453548
10116,19,Jits_Linear_5,0,1,48,52,1600098228
10116,19,Jits_Linear_5,1,5,63,98,1600183776
10116,19,Jits_Linear_5,2,5,80,127,1600204076
10116,19,Jits_Linear_5,3,5,56,103,1600244012
10116,19,Jits_Linear_5,0,1,48,49,1600928800
10116,19,Jits_Linear_5,1,5,56,103,1600964140
10116,19,Jits_Linear_5,2,5,63,98,1601004004
10116,19,Jits_Linear_5,3,5,80,127,1601007148
10116,19,Jits_Linear_5,0,5,80,127,1601654272
10116,19,Jits_Linear_5,1,5,56,103,1601693916
10116,19,Jits_Linear_5,2,1,48,52,1601696360
10116,19,Jits_Linear_5,3,5,63,98,1601744284
10116,19,Jits_Linear_5,0,5,56,103,1602464100
10116,19,Jits_Linear_5,1,1,48,43,1602466768
10116,19,Jits_Linear_5,2,5,80,127,1602474288
10116,19,Jits_Linear_5,3,5,63,98,1602504140
10116,19,Jits_Linear_5,0,5,56,103,1603163712
10116,19,Jits_Linear_5,1,1,48,45,1603200320
10116,19,Jits_Linear_5,2,5,80,127,1603203576
10116,19,Jits_Linear_5,3,5,63,98,1603253580
10116,19,Jits_Linear_5,0,1,48,56,1603914096
10116,19,Jits_Linear_5,1,5,56,103,1603924308
10116,19,Jits_Linear_5,2,5,80,127,1603964396
10116,19,Jits_Linear_5,3,5,63,98,1604013388
10116,19,Jits_Linear_5,0,1,48,52,1604640724
10116,19,Jits_Linear_5,1,5,80,127,1604673884
10116,19,Jits_Linear_5,2,5,63,98,1604753892
10116,19,Jits_Linear_5,3,5,56,103,1604764012
10116,19,Jits_Linear_5,0,5,80,127,1605484072
10116,19,Jits_Linear_5,1,1,48,51,1605485488
10116,19,Jits_Linear_5,2,5,56,103,1605494116
10116,19,Jits_Linear_5,3,5,63,98,1605513676
10116,19,Jits_Linear_5,0,5,63,98,1606213956
10116,19,Jits_Linear_5,1,1,48,50,1606257532
10116,19,Jits_Linear_5,2,5,56,103,1606283860
10116,19,Jits_Linear_5,3,5,80,127,1606286852
10116,19,Jits_Linear_5,0,5,80,127,1606974012
10116,19,Jits_Linear_5,1,1,48,46,1606985976
10116,19,Jits_Linear_5,2,5,63,98,1607023988
10116,19,Jits_Linear_5,3,5,56,103,1607063776
10116,19,Jits_Linear_5,0,1,48,38,1607752344
10116,19,Jits_Linear_5,1,5,63,98,1607783984
10116,19,Jits_Linear_5,2,5,56,103,1607823776
10116,19,Jits_Linear_5,3,5,80,127,1607833900
10116,19,Jits_Linear_5,0,1,48,39,1608516900
10116,19,Jits_Linear_5,1,5,63,98,1608543896
10116,19,Jits_Linear_5,2,5,56,103,1608564136
10116,19,Jits_Linear_5,3,5,80,127,1608583620
10116,19,Jits_Linear_5,0,5,80,127,1609273848
10116,19,Jits_Linear_5,1,5,56,103,1609284116
10116,19,Jits_Linear_5,2,5,63,98,1609304428
10116,19,Jits_Linear_5,3,1,48,44,1609308068
10116,19,Jits_Linear_5,0,1,48,41,1610002868
10116,19,Jits_Linear_5,1,5,63,98,1610073544
10116,19,Jits_Linear_5,2,5,56,103,1610114368
10116,19,Jits_Linear_5,3,5,80,127,1610143968
10116,19,Jits_Linear_5,0,5,56,103,1610853920
10116,19,Jits_Linear_5,1,1,48,49,1610865136
10116,19,Jits_Linear_5,2,5,63,98,1610883368
10116,19,Jits_Linear_5,3,5,80,127,1610914016
10116,19,Jits_Linear_5,0,5,80,127,1611604332
10116,19,Jits_Linear_5,1,1,48,45,1611640112
10116,19,Jits_Linear_5,2,5,56,103,1611673936
10116,19,Jits_Linear_5,3,5,63,98,1611676856
10116,19,Jits_Linear_5,0,5,56,103,1612404036
10116,19,Jits_Linear_5,1,1,48,45,1612433380
10116,19,Jits_Linear_5,2,5,63,98,1612454236
10116,19,Jits_Linear_5,3,5,80,127,1612483936
10116,19,Jits_Linear_5,0,1,48,44,1613136580
10116,19,Jits_Linear_5,1,5,63,98,1613164028
10116,19,Jits_Linear_5,2,5,80,127,1613167168
10116,19,Jits_Linear_5,3,5,56,103,1613224420
10116,19,Jits_Linear_5,0,1,48,25,1613946676
10116,19,Jits_Linear_5,1,5,56,103,1613973904
10116,19,Jits_Linear_5,2,5,80,127,1613984100
10116,19,Jits_Linear_5,3,5,63,98,1614034176
10116,19,Jits_Linear_5,0,1,48,45,1614718124
10116,19,Jits_Linear_5,1,5,63,98,1614733888
10116,19,Jits_Linear_5,2,5,56,103,1614743860
10116,19,Jits_Linear_5,3,5,80,127,1614773712
10116,19,Jits_Linear_5,0,1,48,45,1615469484
10116,19,Jits_Linear_5,1,5,63,98,1615553832
10116,19,Jits_Linear_5,2,5,80,127,1615557048
10116,19,Jits_Linear_5,3,5,56,103,1615583644
10116,19,Jits_Linear_5,0,1,48,44,1616319096
10116,19,Jits_Linear_5,1,5,63,98,1616363860
10116,19,Jits_Linear_5,2,5,56,103,1616384624
10116,19,Jits_Linear_5,3,5,80,127,1616387684
10116,19,Jits_Linear_5,0,5,63,98,1617113880
10116,19,Jits_Linear_5,1,1,48,48,1617132968
10116,19,Jits_Linear_5,2,5,56,103,1617184084
10116,19,Jits_Linear_5,3,5,80,127,1617203720
10116,19,Jits_Linear_5,0,5,56,103,1617893652
10116,19,Jits_Linear_5,1,1,48,48,1617902104
10116,19,Jits_Linear_5,2,5,63,98,1617903916
10116,19,Jits_Linear_5,3,5,80,127,1617994048
10116,19,Jits_Linear_5,0,1,48,49,1618689424
10116,19,Jits_Linear_5,1,5,56,103,1618703692
10116,19,Jits_Linear_5,2,5,80,127,1618743856
10116,19,Jits_Linear_5,3,5,63,98,1618753832
10116,19,Jits_Linear_5,0,1,48,42,1619505460
10116,19,Jits_Linear_5,1,5,56,103,1619523916
10116,19,Jits_Linear_5,2,5,63,98,1619553964
10116,19,Jits_Linear_5,3,5,80,127,1619584616
10116,19,Jits_Linear_5,0,1,48,43,1620251200
10116,19,Jits_Linear_5,1,5,80,127,1620283756
10116,19,Jits_Linear_5,2,5,63,98,1620323696
10116,19,Jits_Linear_5,3,5,56,103,1620344080
10116,19,Jits_Linear_5,0,1,48,52,1621116608
10116,19,Jits_Linear_5,1,5,56,103,1621123308
10116,19,Jits_Linear_5,2,5,80,127,1621143840
10116,19,Jits_Linear_5,3,5,63,98,1621164600
10116,19,Jits_Linear_5,0,1,48,44,1621886264
10116,19,Jits_Linear_5,1,5,63,98,1621893632
10116,19,Jits_Linear_5,2,5,56,103,1621903680
10116,19,Jits_Linear_5,3,5,80,127,1621964168
10116,19,Jits_Linear_5,0,1,48,48,1622667144
10116,19,Jits_Linear_5,1,5,56,103,1622703592
10116,19,Jits_Linear_5,2,5,63,98,1622774108
10116,19,Jits_Linear_5,3,5,80,127,1622793672
10116,19,Jits_Linear_5,0,1,48,44,1623423024
10116,19,Jits_Linear_5,1,5,56,103,1623513652
10116,19,Jits_Linear_5,2,5,63,98,1623544216
10116,19,Jits_Linear_5,3,5,80,127,1623584080
10116,19,Jits_Linear_5,0,1,48,42,1624271576
10116,19,Jits_Linear_5,1,5,63,98,1624314396
10116,19,Jits_Linear_5,2,5,56,103,1624364528
10116,19,Jits_Linear_5,3,5,80,127,1624373736
10116,19,Jits_Linear_5,0,1,48,48,1625136392
10116,19,Jits_Linear_5,1,5,56,103,1625164068
10116,19,Jits_Linear_5,2,5,63,98,1625214568
10116,19,Jits_Linear_5,3,5,80,127,1625223496
10116,19,Jits_Linear_5,0,5,56,103,1625944516
10116,19,Jits_Linear_5,1,1,48,38,1625951700
10116,19,Jits_Linear_5,2,5,63,98,1625953660
10116,19,Jits_Linear_5,3,5,80,127,1626033604
10116,19,Jits_Linear_5,0,9999,9999,9999,1517171796
10116,19,Jits_Linear_5,1,9999,9999,9999,1517652084
10116,19,Jits_Linear_5,2,9999,9999,9999,1518131264
10116,19,Jits_Linear_5,3,9999,9999,9999,1518611556
10116,19,Jits_Linear_5,4,9999,9999,9999,1519091768
10116,19,Jits_Linear_5,5,9999,9999,9999,1519581252
10116,19,Jits_Linear_5,6,9999,9999,9999,1520071796
10116,19,Jits_Linear_5,7,9999,9999,9999,1520561212
10116,19,Jits_Linear_5,8,9999,9999,9999,1521051764
10116,19,Jits_Linear_5,9,9999,9999,9999,1521541204
10116,19,Jits_Linear_5,10,9999,9999,9999,1522041936
10116,19,Jits_Linear_5,11,9999,9999,9999,1522541628
10116,19,Jits_Linear_5,12,9999,9999,9999,1523041388
10116,19,Jits_Linear_5,13,9999,9999,9999,1523542120
10116,19,Jits_Linear_5,14,9999,9999,9999,1524052072
10116,19,Jits_Linear_5,15,9999,9999,9999,1524562020
10116,19,Jits_Linear_5,16,9999,9999,9999,1525071964
10116,19,Jits_Linear_5,17,9999,9999,9999,1525581916
10116,19,Jits_Linear_5,18,9999,9999,9999,1526091884
10116,19,Jits_Linear_5,19,9999,9999,9999,1526601836
10116,19,Jits_Linear_5,20,9999,9999,9999,1527121980
10116,19,Jits_Linear_5,21,9999,9999,9999,1527641160
10116,19,Jits_Linear_5,22,9999,9999,9999,1528161392
10116,19,Jits_Linear_5,23,9999,9999,9999,1528681548
10116,19,Jits_Linear_5,24,9999,9999,9999,1529201764
10116,19,Jits_Linear_5,25,9999,9999,9999,1529731128
10116,19,Jits_Linear_5,26,9999,9999,9999,1530261612
10116,19,Jits_Linear_5,27,9999,9999,9999,1530792004
10116,19,Jits_Linear_5,28,9999,9999,9999,1531321408
10116,19,Jits_Linear_5,29,9999,9999,9999,1531851884
10116,19,Jits_Linear_5,30,9999,9999,9999,1532391520
10116,19,Jits_Linear_5,31,9999,9999,9999,1532931148
10116,19,Jits_Linear_5,32,9999,9999,9999,1533471828
10116,19,Jits_Linear_5,33,9999,9999,9999,1534011448
10116,19,Jits_Linear_5,34,9999,9999,9999,1534551144
10116,19,Jits_Linear_5,35,9999,9999,9999,1535102004
10116,19,Jits_Linear_5,36,9999,9999,9999,1535651952
10116,19,Jits_Linear_5,37,9999,9999,9999,1536201792
10116,19,Jits_Linear_5,38,9999,9999,9999,1536751680
10116,19,Jits_Linear_5,39,9999,9999,9999,1537301564
10116,19,Jits_Linear_5,40,9999,9999,9999,1537861716
10116,19,Jits_Linear_5,41,9999,9999,9999,1538421860
10116,19,Jits_Linear_5,42,9999,9999,9999,1538982004
10116,19,Jits_Linear_5,43,9999,9999,9999,1539542100
10116,19,Jits_Linear_5,44,9999,9999,9999,1540111464
10116,19,Jits_Linear_5,45,9999,9999,9999,1540681804
10116,19,Jits_Linear_5,46,9999,9999,9999,1541251168
10116,19,Jits_Linear_5,47,9999,9999,9999,1541821536
10116,19,Jits_Linear_5,48,9999,9999,9999,1542391876
10116,19,Jits_Linear_5,49,9999,9999,9999,1542961264
10116,19,Jits_Linear_5,50,9999,9999,9999,1543541852
10116,19,Jits_Linear_5,51,9999,9999,9999,1544121432
10116,19,Jits_Linear_5,52,9999,9999,9999,1544702008
10116,19,Jits_Linear_5,53,9999,9999,9999,1545281640
10116,19,Jits_Linear_5,54,9999,9999,9999,1545861192
10116,19,Jits_Linear_5,55,9999,9999,9999,1546452060
10116,19,Jits_Linear_5,56,9999,9999,9999,1547041880
10116,19,Jits_Linear_5,57,9999,9999,9999,1547631704
10116,19,Jits_Linear_5,58,9999,9999,9999,1548221548
10116,19,Jits_Linear_5,59,9999,9999,9999,1548811352
10116,19,Jits_Linear_5,60,9999,9999,9999,1549411436
10116,19,Jits_Linear_5,61,9999,9999,9999,1550011460
10116,19,Jits_Linear_5,62,9999,9999,9999,1550611544
10116,19,Jits_Linear_5,63,9999,9999,9999,1551211624
10116,19,Jits_Linear_5,64,9999,9999,9999,1551811656
10116,19,Jits_Linear_5,65,9999,9999,9999,1552422000
10116,19,Jits_Linear_5,66,9999,9999,9999,1553031224
10116,19,Jits_Linear_5,67,9999,9999,9999,1553641584
10116,19,Jits_Linear_5,68,9999,9999,9999,1554251856
10116,19,Jits_Linear_5,69,9999,9999,9999,1554861156
10116,19,Jits_Linear_5,70,9999,9999,9999,1555481672
10116,19,Jits_Linear_5,71,9999,9999,9999,1556101176
10116,19,Jits_Linear_5,72,9999,9999,9999,1556721784
10116,19,Jits_Linear_5,73,9999,9999,9999,1557341272
10116,19,Jits_Linear_5,74,9999,9999,9999,1557961832
10116,19,Jits_Linear_5,75,9999,9999,9999,1558591584
10116,19,Jits_Linear_5,76,9999,9999,9999,1559221344
10116,19,Jits_Linear_5,77,9999,9999,9999,1559851096
10116,19,Jits_Linear_5,78,9999,9999,9999,1560481896
10116,19,Jits_Linear_5,79,9999,9999,9999,1561111608
10116,19,Jits_Linear_5,80,9999,9999,9999,1561751628
10116,19,Jits_Linear_5,81,9999,9999,9999,1562391668
10116,19,Jits_Linear_5,82,9999,9999,9999,1563031608
10116,19,Jits_Linear_5,83,9999,9999,9999,1563671648
10116,19,Jits_Linear_5,84,9999,9999,9999,1564311676
10116,19,Jits_Linear_5,85,9999,9999,9999,1564961904
10116,19,Jits_Linear_5,86,9999,9999,9999,1565611132
10116,19,Jits_Linear_5,87,9999,9999,9999,1566261356
10116,19,Jits_Linear_5,88,9999,9999,9999,1566911584
10116,19,Jits_Linear_5,89,9999,9999,9999,1567561784
10116,19,Jits_Linear_5,90,9999,9999,9999,1568221308
10116,19,Jits_Linear_5,91,9999,9999,9999,1568881768
10116,19,Jits_Linear_5,92,9999,9999,9999,1569541216
10116,19,Jits_Linear_5,93,9999,9999,9999,1570201684
10116,19,Jits_Linear_5,94,9999,9999,9999,1570861128
10116,19,Jits_Linear_5,95,9999,9999,9999,1571531884
10116,19,Jits_Linear_5,96,9999,9999,9999,1572201572
10116,19,Jits_Linear_5,97,9999,9999,9999,1572871280
10116,19,Jits_Linear_5,98,9999,9999,9999,1573542008
10116,19,Jits_Linear_5,99,9999,9999,9999,1574211656
10116,19,Jits_Linear_5,100,9999,9999,9999,1574891628
10116,19,Jits_Linear_5,101,9999,9999,9999,1575571572
10116,19,Jits_Linear_5,102,9999,9999,9999,1576251460
10116,19,Jits_Linear_5,103,9999,9999,9999,1576931448
10116,19,Jits_Linear_5,104,9999,9999,9999,1577611320
10116,19,Jits_Linear_5,105,9999,9999,9999,1578301548
10116,19,Jits_Linear_5,106,9999,9999,9999,1578991708
10116,19,Jits_Linear_5,107,9999,9999,9999,1579681916
10116,19,Jits_Linear_5,108,9999,9999,9999,1580372068
10116,19,Jits_Linear_5,109,9999,9999,9999,1581061184
10116,19,Jits_Linear_5,110,9999,9999,9999,1581761612
10116,19,Jits_Linear_5,111,9999,9999,9999,1582462012
10116,19,Jits_Linear_5,112,9999,9999,9999,1583161464
10116,19,Jits_Linear_5,113,9999,9999,9999,1583861816
10116,19,Jits_Linear_5,114,9999,9999,9999,1584561236
10116,19,Jits_Linear_5,115,9999,9999,9999,1585271908
10116,19,Jits_Linear_5,116,9999,9999,9999,1585981548
10116,19,Jits_Linear_5,117,9999,9999,9999,1586691128
10116,19,Jits_Linear_5,118,9999,9999,9999,1587401820
10116,19,Jits_Linear_5,119,9999,9999,9999,1588111428
10116,19,Jits_Linear_5,120,9999,9999,9999,1588831332
10116,19,Jits_Linear_5,121,9999,9999,9999,1589551164
10116,19,Jits_Linear_5,122,9999,9999,9999,1590272056
10116,19,Jits_Linear_5,123,9999,9999,9999,1591001188
10116,19,Jits_Linear_5,124,9999,9999,9999,1591722036
10116,19,Jits_Linear_5,125,9999,9999,9999,1592451140
10116,19,Jits_Linear_5,126,9999,9999,9999,1593181240
10116,19,Jits_Linear_5,127,9999,9999,9999,1593911396
10116,19,Jits_Linear_5,128,9999,9999,9999,1594641480
10116,19,Jits_Linear_5,129,9999,9999,9999,1595371592
10116,19,Jits_Linear_5,130,9999,9999,9999,1596111944
10116,19,Jits_Linear_5,131,9999,9999,9999,1596851256
10116,19,Jits_Linear_5,132,9999,9999,9999,1597591672
10116,19,Jits_Linear_5,133,9999,9999,9999,1598331960
10116,19,Jits_Linear_5,134,9999,9999,9999,1599071336
10116,19,Jits_Linear_5,135,9999,9999,9999,1599821880
10116,19,Jits_Linear_5,136,9999,9999,9999,1600571456
10116,19,Jits_Linear_5,137,9999,9999,9999,1601322072
10116,19,Jits_Linear_5,138,9999,9999,9999,1602071640
10116,19,Jits_Linear_5,139,9999,9999,9999,1602821232
10116,19,Jits_Linear_5,140,9999,9999,9999,1603582052
10116,19,Jits_Linear_5,141,9999,9999,9999,1604341832
10116,19,Jits_Linear_5,142,9999,9999,9999,1605101668
10116,19,Jits_Linear_5,143,9999,9999,9999,1605861432
10116,19,Jits_Linear_5,144,9999,9999,9999,1606621276
10116,19,Jits_Linear_5,145,9999,9999,9999,1607391308
10116,19,Jits_Linear_5,146,9999,9999,9999,1608161352
10116,19,Jits_Linear_5,147,9999,9999,9999,1608931452
10116,19,Jits_Linear_5,148,9999,9999,9999,1609701472
10116,19,Jits_Linear_5,149,9999,9999,9999,1610471512
10116,19,Jits_Linear_5,150,9999,9999,9999,1611251808
10116,19,Jits_Linear_5,151,9999,9999,9999,1612032104
10116,19,Jits_Linear_5,152,9999,9999,9999,1612821628
10116,19,Jits_Linear_5,153,9999,9999,9999,1613601916
10116,19,Jits_Linear_5,154,9999,9999,9999,1614381160
10116,19,Jits_Linear_5,155,9999,9999,9999,1615171708
10116,19,Jits_Linear_5,156,9999,9999,9999,1615961208
10116,19,Jits_Linear_5,157,9999,9999,9999,1616751680
10116,19,Jits_Linear_5,158,9999,9999,9999,1617541192
10116,19,Jits_Linear_5,159,9999,9999,9999,1618331740
10116,19,Jits_Linear_5,160,9999,9999,9999,1619131476
10116,19,Jits_Linear_5,161,9999,9999,9999,1619931252
10116,19,Jits_Linear_5,162,9999,9999,9999,1620731992
10116,19,Jits_Linear_5,163,9999,9999,9999,1621531760
10116,19,Jits_Linear_5,164,9999,9999,9999,1622331456
10116,19,Jits_Linear_5,165,9999,9999,9999,1623141492
10116,19,Jits_Linear_5,166,9999,9999,9999,1623951456
10116,19,Jits_Linear_5,167,9999,9999,9999,1624761436
10116,19,Jits_Linear_5,168,9999,9999,9999,1625571400
10116,19,Jits_Linear_5,169,9999,9999,9999,1626381436
10117,18,Jits_Linear_8,0,5,56,103,1635873260
10117,18,Jits_Linear_8,1,5,63,98,1635876436
10117,18,Jits_Linear_8,2,5,80,127,1635879404
10117,18,Jits_Linear_8,0,1,48,24,1636491764
10117,18,Jits_Linear_8,1,5,56,103,1636693472
10117,18,Jits_Linear_8,2,5,63,98,1636696496
10117,18,Jits_Linear_8,3,5,80,127,1636699692
10117,18,Jits_Linear_8,0,1,48,24,1637396564
10117,18,Jits_Linear_8,1,5,80,127,1637453156
10117,18,Jits_Linear_8,2,5,63,98,1637543504
10117,18,Jits_Linear_8,3,5,56,103,1637552576
10117,18,Jits_Linear_8,0,1,48,41,1638282264
10117,18,Jits_Linear_8,1,5,56,103,1638292848
10117,18,Jits_Linear_8,2,5,63,98,1638303116
10117,18,Jits_Linear_8,3,5,80,127,1638393556
10117,18,Jits_Linear_8,0,1,48,51,1639002296
10117,18,Jits_Linear_8,1,5,63,98,1639083532
10117,18,Jits_Linear_8,2,5,80,127,1639113144
10117,18,Jits_Linear_8,3,5,56,103,1639142748
10117,18,Jits_Linear_8,0,1,48,49,1639824664
10117,18,Jits_Linear_8,1,5,56,103,1639902560
10117,18,Jits_Linear_8,2,5,80,127,1640002948
10117,18,Jits_Linear_8,3,5,63,98,1640053072
10117,18,Jits_Linear_8,0,5,56,103,1640712512
10117,18,Jits_Linear_8,1,5,80,127,1640762788
10117,18,Jits_Linear_8,2,5,63,98,1640802728
10117,18,Jits_Linear_8,3,1,48,48,1640810184
10117,18,Jits_Linear_8,0,1,48,47,1641535092
10117,18,Jits_Linear_8,1,5,80,127,1641553248
10117,18,Jits_Linear_8,2,5,63,98,1641582852
10117,18,Jits_Linear_8,3,5,56,103,1641652544
10117,18,Jits_Linear_8,0,1,48,47,1642342644
10117,18,Jits_Linear_8,1,5,63,98,1642393016
10117,18,Jits_Linear_8,2,5,56,103,1642422492
10117,18,Jits_Linear_8,3,5,80,127,1642483016
10117,18,Jits_Linear_8,0,5,56,103,1643142652
10117,18,Jits_Linear_8,1,5,80,127,1643145496
10117,18,Jits_Linear_8,2,1,48,52,1643152816
10117,18,Jits_Linear_8,3,5,63,98,1643263428
10117,18,Jits_Linear_8,0,1,48,49,1643994476
10117,18,Jits_Linear_8,1,5,56,103,1644023416
10117,18,Jits_Linear_8,2,5,80,127,1644063208
10117,18,Jits_Linear_8,3,5,63,98,1644073480
10117,18,Jits_Linear_8,0,5,56,103,1644782876
10117,18,Jits_Linear_8,1,5,80,127,1644802440
10117,18,Jits_Linear_8,2,1,48,55,1644823620
10117,18,Jits_Linear_8,3,5,63,98,1644883424
10117,18,Jits_Linear_8,0,5,80,127,1645572532
10117,18,Jits_Linear_8,1,1,48,55,1645613416
10117,18,Jits_Linear_8,2,5,56,103,1645672928
10117,18,Jits_Linear_8,3,5,63,98,1645683272
10117,18,Jits_Linear_8,0,5,63,98,1646342488
10117,18,Jits_Linear_8,1,5,80,127,1646402804
10117,18,Jits_Linear_8,2,5,56,103,1646413448
10117,18,Jits_Linear_8,3,1,48,51,1646423388
10117,18,Jits_Linear_8,0,1,48,45,1647126460
10117,18,Jits_Linear_8,1,5,56,103,1647143348
10117,18,Jits_Linear_8,2,5,63,98,1647212884
10117,18,Jits_Linear_8,3,5,80,127,1647216396
10117,18,Jits_Linear_8,0,1,48,48,1647906876
10117,18,Jits_Linear_8,1,5,63,98,1647972836
10117,18,Jits_Linear_8,2,5,56,103,1648023096
10117,18,Jits_Linear_8,3,5,80,127,1648026016
10117,18,Jits_Linear_8,0,5,56,103,1648723508
10117,18,Jits_Linear_8,1,5,80,127,1648726500
10117,18,Jits_Linear_8,2,5,63,98,1648813344
10117,18,Jits_Linear_8,0,5,63,98,1649552744
10117,18,Jits_Linear_8,1,1,48,50,1649612984
10117,18,Jits_Linear_8,2,5,56,103,1649642748
10117,18,Jits_Linear_8,3,5,80,127,1649672500
10117,18,Jits_Linear_8,0,1,48,47,1650333544
10117,18,Jits_Linear_8,1,5,56,103,1650334584
10117,18,Jits_Linear_8,2,5,63,98,1650433424
10117,18,Jits_Linear_8,3,5,80,127,1650463176
10117,18,Jits_Linear_8,0,5,63,98,1651143144
10117,18,Jits_Linear_8,1,5,56,103,1651153344
10117,18,Jits_Linear_8,2,1,48,48,1651165232
10117,18,Jits_Linear_8,3,5,80,127,1651243248
10117,18,Jits_Linear_8,0,1,48,52,1651934412
10117,18,Jits_Linear_8,1,5,63,98,1651942752
10117,18,Jits_Linear_8,2,5,56,103,1652022696
10117,18,Jits_Linear_8,3,5,80,127,1652025692
10117,18,Jits_Linear_8,0,5,80,127,1652683244
10117,18,Jits_Linear_8,1,5,63,98,1652702584
10117,18,Jits_Linear_8,2,1,48,48,1652763196
10117,18,Jits_Linear_8,3,5,56,103,1652764608
10117,18,Jits_Linear_8,0,1,48,47,1653487320
10117,18,Jits_Linear_8,1,5,56,103,1653503312
10117,18,Jits_Linear_8,2,5,63,98,1653522872
10117,18,Jits_Linear_8,3,5,80,127,1653526232
10117,18,Jits_Linear_8,0,1,48,50,1654212448
10117,18,Jits_Linear_8,1,5,63,98,1654223560
10117,18,Jits_Linear_8,2,5,80,127,1654303432
10117,18,Jits_Linear_8,3,5,56,103,1654313316
10117,18,Jits_Linear_8,0,5,63,98,1655023172
10117,18,Jits_Linear_8,1,1,48,49,1655025768
10117,18,Jits_Linear_8,2,5,56,103,1655042356
10117,18,Jits_Linear_8,3,5,80,127,1655092628
10117,18,Jits_Linear_8,0,1,48,48,1655793752
10117,18,Jits_Linear_8,1,5,80,127,1655803512
10117,18,Jits_Linear_8,2,5,63,98,1655843304
10117,18,Jits_Linear_8,3,5,56,103,1655862640
10117,18,Jits_Linear_8,0,1,48,48,1656584728
10117,18,Jits_Linear_8,1,5,56,103,1656613300
10117,18,Jits_Linear_8,2,5,63,98,1656622304
10117,18,Jits_Linear_8,3,5,80,127,1656643208
10117,18,Jits_Linear_8,0,5,56,103,1657312664
10117,18,Jits_Linear_8,1,1,48,46,1657386432
10117,18,Jits_Linear_8,2,5,63,98,1657402868
10117,18,Jits_Linear_8,3,5,80,127,1657463332
10117,18,Jits_Linear_8,0,1,48,45,1658087812
10117,18,Jits_Linear_8,1,5,80,127,1658113320
10117,18,Jits_Linear_8,2,5,56,103,1658122616
10117,18,Jits_Linear_8,3,5,63,98,1658193256
10117,18,Jits_Linear_8,0,1,48,51,1658921220
10117,18,Jits_Linear_8,1,5,63,98,1658923332
10117,18,Jits_Linear_8,2,5,80,127,1659012424
10117,18,Jits_Linear_8,3,5,56,103,1659022828
10117,18,Jits_Linear_8,0,5,63,98,1659622704
10117,18,Jits_Linear_8,1,5,80,127,1659673280
10117,18,Jits_Linear_8,2,5,56,103,1659733376
10117,18,Jits_Linear_8,3,1,48,43,1659814404
10117,18,Jits_Linear_8,0,5,56,103,1660413240
10117,18,Jits_Linear_8,1,5,80,127,1660462324
10117,18,Jits_Linear_8,2,5,63,98,1660482856
10117,18,Jits_Linear_8,3,1,48,46,1660520892
10117,18,Jits_Linear_8,0,5,56,103,1661143396
10117,18,Jits_Linear_8,1,5,80,127,1661202968
10117,18,Jits_Linear_8,2,1,48,39,1661231936
10117,18,Jits_Linear_8,3,5,63,98,1661272420
10117,18,Jits_Linear_8,0,5,56,103,1661903156
10117,18,Jits_Linear_8,1,5,80,127,1661933204
10117,18,Jits_Linear_8,2,5,63,98,1661962584
10117,18,Jits_Linear_8,3,1,48,44,1661985180
10117,18,Jits_Linear_8,0,1,48,51,1662689544
10117,18,Jits_Linear_8,1,5,56,103,1662702916
10117,18,Jits_Linear_8,2,5,80,127,1662722480
10117,18,Jits_Linear_8,3,5,63,98,1662782720
10117,18,Jits_Linear_8,0,1,48,50,1663477916
10117,18,Jits_Linear_8,1,5,80,127,1663542684
10117,18,Jits_Linear_8,2,5,56,103,1663553176
10117,18,Jits_Linear_8,3,5,63,98,1663563300
10117,18,Jits_Linear_8,0,5,56,103,1664253372
10117,18,Jits_Linear_8,1,1,48,46,1664271780
10117,18,Jits_Linear_8,2,5,80,127,1664293156
10117,18,Jits_Linear_8,3,5,63,98,1664323204
10117,18,Jits_Linear_8,0,5,56,103,1664973132
10117,18,Jits_Linear_8,1,5,63,98,1665003252
10117,18,Jits_Linear_8,2,1,48,47,1665016864
10117,18,Jits_Linear_8,3,5,80,127,1665042812
10117,18,Jits_Linear_8,0,1,48,49,1665665252
10117,18,Jits_Linear_8,1,5,80,127,1665672548
10117,18,Jits_Linear_8,2,5,63,98,1665722776
10117,18,Jits_Linear_8,3,5,56,103,1665743308
10117,18,Jits_Linear_8,0,1,48,26,1666379280
10117,18,Jits_Linear_8,1,5,56,103,1666453116
10117,18,Jits_Linear_8,2,5,80,127,1666522436
10117,18,Jits_Linear_8,3,5,63,98,1666582828
10117,18,Jits_Linear_8,0,5,80,127,1667193172
10117,18,Jits_Linear_8,1,1,48,30,1667267560
10117,18,Jits_Linear_8,2,5,63,98,1667283176
10117,18,Jits_Linear_8,3,5,56,103,1667302812
10117,18,Jits_Linear_8,0,5,63,98,1667953164
10117,18,Jits_Linear_8,1,5,56,103,1667972428
10117,18,Jits_Linear_8,2,5,80,127,1668013412
10117,18,Jits_Linear_8,3,1,48,39,1668016632
10117,18,Jits_Linear_8,0,5,80,127,1668653420
10117,18,Jits_Linear_8,1,5,63,98,1668672984
10117,18,Jits_Linear_8,2,1,48,42,1668708088
10117,18,Jits_Linear_8,3,5,56,103,1668752624
10117,18,Jits_Linear_8,0,5,63,98,1669382464
10117,18,Jits_Linear_8,1,1,48,47,1669400552
10117,18,Jits_Linear_8,2,5,56,103,1669493044
10117,18,Jits_Linear_8,3,5,80,127,1669496112
10117,18,Jits_Linear_8,0,5,63,98,1670143324
10117,18,Jits_Linear_8,1,5,56,103,1670152620
10117,18,Jits_Linear_8,2,5,80,127,1670155688
10117,18,Jits_Linear_8,3,1,48,48,1670165404
10117,18,Jits_Linear_8,0,5,56,103,1670863196
10117,18,Jits_Linear_8,1,1,48,48,1670880408
10117,18,Jits_Linear_8,2,5,80,127,1670983052
10117,18,Jits_Linear_8,3,5,63,98,1671023064
10117,18,Jits_Linear_8,0,5,56,103,1671623184
10117,18,Jits_Linear_8,1,1,48,43,1671673360
10117,18,Jits_Linear_8,2,5,80,127,1671703052
10117,18,Jits_Linear_8,3,5,63,98,1671723360
10117,18,Jits_Linear_8,0,5,56,103,1672353028
10117,18,Jits_Linear_8,1,1,48,38,1672393560
10117,18,Jits_Linear_8,2,5,63,98,1672462736
10117,18,Jits_Linear_8,3,5,80,127,1672466324
10117,18,Jits_Linear_8,0,5,56,103,1673113008
10117,18,Jits_Linear_8,1,5,80,127,1673142712
10117,18,Jits_Linear_8,2,1,48,41,1673148600
10117,18,Jits_Linear_8,3,5,63,98,1673163088
10117,18,Jits_Linear_8,0,5,63,98,1673822504
10117,18,Jits_Linear_8,1,5,56,103,1673833072
10117,18,Jits_Linear_8,2,5,80,127,1673843192
10117,18,Jits_Linear_8,3,1,48,45,1673847884
10117,18,Jits_Linear_8,0,5,80,127,1674533096
10117,18,Jits_Linear_8,1,1,48,31,1674546552
10117,18,Jits_Linear_8,2,5,56,103,1674583368
10117,18,Jits_Linear_8,3,5,63,98,1674623304
10117,18,Jits_Linear_8,0,5,80,127,1675272480
10117,18,Jits_Linear_8,1,5,63,98,1675293088
10117,18,Jits_Linear_8,2,1,48,40,1675296884
10117,18,Jits_Linear_8,3,5,56,103,1675343212
10117,18,Jits_Linear_8,0,5,80,127,1676002572
10117,18,Jits_Linear_8,1,5,56,103,1676033296
10117,18,Jits_Linear_8,2,1,48,35,1676084064
10117,18,Jits_Linear_8,3,5,63,98,1676102972
10117,18,Jits_Linear_8,0,5,56,103,1676772980
10117,18,Jits_Linear_8,1,5,80,127,1676783028
10117,18,Jits_Linear_8,2,5,63,98,1676823116
10117,18,Jits_Linear_8,3,1,48,44,1676831864
10117,18,Jits_Linear_8,0,5,56,103,1677402588
10117,18,Jits_Linear_8,1,5,63,98,1677422972
10117,18,Jits_Linear_8,2,5,80,127,1677492528
10117,18,Jits_Linear_8,3,1,48,40,1677558868
10117,18,Jits_Linear_8,0,5,63,98,1678143088
10117,18,Jits_Linear_8,1,1,48,39,1678161428
10117,18,Jits_Linear_8,2,5,80,127,1678203256
10117,18,Jits_Linear_8,3,5,56,103,1678222668
10117,18,Jits_Linear_8,0,1,48,41,1678835300
10117,18,Jits_Linear_8,1,5,80,127,1678843268
10117,18,Jits_Linear_8,2,5,56,103,1678873020
10117,18,Jits_Linear_8,3,5,63,98,1678902624
10117,18,Jits_Linear_8,0,1,48,34,1679533140
10117,18,Jits_Linear_8,1,5,56,103,1679552816
10117,18,Jits_Linear_8,2,5,63,98,1679613284
10117,18,Jits_Linear_8,3,5,80,127,1679672764
10117,18,Jits_Linear_8,0,5,80,127,1680283176
10117,18,Jits_Linear_8,1,5,56,103,1680302368
10117,18,Jits_Linear_8,2,1,48,40,1680340336
10117,18,Jits_Linear_8,3,5,63,98,1680373188
10117,18,Jits_Linear_8,0,1,48,38,1680983048
10117,18,Jits_Linear_8,1,5,80,127,1680992588
10117,18,Jits_Linear_8,2,5,63,98,1681013196
10117,18,Jits_Linear_8,3,5,56,103,1681042944
10117,18,Jits_Linear_8,0,1,48,38,1681673860
10117,18,Jits_Linear_8,1,5,80,127,1681682880
10117,18,Jits_Linear_8,2,5,63,98,1681703192
10117,18,Jits_Linear_8,3,5,56,103,1681762756
10117,18,Jits_Linear_8,0,1,48,39,1682379724
10117,18,Jits_Linear_8,1,5,80,127,1682383284
10117,18,Jits_Linear_8,2,5,56,103,1682482476
10117,18,Jits_Linear_8,3,5,63,98,1682513196
10117,18,Jits_Linear_8,0,5,63,98,1683073340
10117,18,Jits_Linear_8,1,1,48,36,1683102840
10117,18,Jits_Linear_8,2,5,80,127,1683122592
10117,18,Jits_Linear_8,3,5,56,103,1683142976
10117,18,Jits_Linear_8,0,1,48,31,1683793948
10117,18,Jits_Linear_8,1,5,80,127,1683812776
10117,18,Jits_Linear_8,2,5,56,103,1683842376
10117,18,Jits_Linear_8,3,5,63,98,1683845520
10117,18,Jits_Linear_8,0,1,48,34,1684487596
10117,18,Jits_Linear_8,1,5,63,98,1684543068
10117,18,Jits_Linear_8,2,5,56,103,1684583968
10117,18,Jits_Linear_8,3,5,80,127,1684603232
10117,18,Jits_Linear_8,0,5,80,127,1685182876
10117,18,Jits_Linear_8,1,1,48,26,1685194992
10117,18,Jits_Linear_8,2,5,63,98,1685262820
10117,18,Jits_Linear_8,3,5,56,103,1685302744
10117,18,Jits_Linear_8,0,5,63,98,1685892424
10117,18,Jits_Linear_8,1,1,48,28,1685897784
10117,18,Jits_Linear_8,2,5,80,127,1685973508
10117,18,Jits_Linear_8,3,5,56,103,1685992772
10117,18,Jits_Linear_8,0,5,56,103,1686622508
10117,18,Jits_Linear_8,1,1,48,19,1686628768
10117,18,Jits_Linear_8,2,5,63,98,1686632924
10117,18,Jits_Linear_8,3,5,80,127,1686672712
10117,18,Jits_Linear_8,0,5,56,103,1687233020
10117,18,Jits_Linear_8,1,5,80,127,1687236012
10117,18,Jits_Linear_8,2,1,48,27,1687355412
10117,18,Jits_Linear_8,3,5,63,98,1687373192
10117,18,Jits_Linear_8,0,5,56,103,1687912956
10117,18,Jits_Linear_8,1,5,63,98,1688003044
10117,18,Jits_Linear_8,2,5,80,127,1688072724
10117,18,Jits_Linear_8,3,1,48,43,1688076296
10117,18,Jits_Linear_8,0,5,63,98,1688672880
10117,18,Jits_Linear_8,1,5,80,127,1688676088
10117,18,Jits_Linear_8,2,5,56,103,1688733112
10117,18,Jits_Linear_8,3,1,48,46,1688735708
10117,18,Jits_Linear_8,0,5,80,127,1689392684
10117,18,Jits_Linear_8,1,5,56,103,1689412924
10117,18,Jits_Linear_8,2,1,48,43,1689419108
10117,18,Jits_Linear_8,3,5,63,98,1689423336
10117,18,Jits_Linear_8,0,5,56,103,1689983332
10117,18,Jits_Linear_8,1,5,63,98,1689992704
10117,18,Jits_Linear_8,2,1,48,42,1690047092
10117,18,Jits_Linear_8,3,5,80,127,1690063080
10117,18,Jits_Linear_8,0,5,80,127,1690663152
10117,18,Jits_Linear_8,1,1,48,48,1690702836
10117,18,Jits_Linear_8,2,5,56,103,1690712528
10117,18,Jits_Linear_8,3,5,63,98,1690762728
10117,18,Jits_Linear_8,0,1,48,51,1691430660
10117,18,Jits_Linear_8,1,5,56,103,1691433320
10117,18,Jits_Linear_8,2,5,63,98,1691442396
10117,18,Jits_Linear_8,3,5,80,127,1691482632
10117,18,Jits_Linear_8,0,5,56,103,1692052956
10117,18,Jits_Linear_8,1,1,48,48,1692089732
10117,18,Jits_Linear_8,2,5,63,98,1692092764
10117,18,Jits_Linear_8,3,5,80,127,1692142964
10117,18,Jits_Linear_8,0,5,80,127,1692682808
10117,18,Jits_Linear_8,1,1,48,48,1692719708
10117,18,Jits_Linear_8,2,5,56,103,1692732928
10117,18,Jits_Linear_8,3,5,63,98,1692753240
10117,18,Jits_Linear_8,0,5,80,127,1693362848
10117,18,Jits_Linear_8,1,1,48,45,1693381184
10117,18,Jits_Linear_8,2,5,63,98,1693422936
10117,18,Jits_Linear_8,3,5,56,103,1693502792
10117,18,Jits_Linear_8,0,1,48,46,1693998256
10117,18,Jits_Linear_8,1,5,80,127,1694012748
10117,18,Jits_Linear_8,2,5,56,103,1694052912
10117,18,Jits_Linear_8,3,5,63,98,1694073220
10117,18,Jits_Linear_8,0,1,48,49,1694661736
10117,18,Jits_Linear_8,1,5,56,103,1694732932
10117,18,Jits_Linear_8,2,5,80,127,1694742832
10117,18,Jits_Linear_8,3,5,63,98,1694782904
10117,18,Jits_Linear_8,0,1,48,45,1695360848
10117,18,Jits_Linear_8,1,5,56,103,1695462776
10117,18,Jits_Linear_8,2,5,63,98,1695502788
10117,18,Jits_Linear_8,3,5,80,127,1695506152
10117,18,Jits_Linear_8,0,5,63,98,1696012736
10117,18,Jits_Linear_8,1,5,80,127,1696052752
10117,18,Jits_Linear_8,2,1,48,48,1696091316
10117,18,Jits_Linear_8,3,5,56,103,1696123176
10117,18,Jits_Linear_8,0,5,63,98,1696662772
10117,18,Jits_Linear_8,1,1,48,45,1696727572
10117,18,Jits_Linear_8,2,5,56,103,1696742888
10117,18,Jits_Linear_8,3,5,80,127,1696803128
10117,18,Jits_Linear_8,0,5,80,127,1697332616
10117,18,Jits_Linear_8,1,5,63,98,1697382816
10117,18,Jits_Linear_8,2,1,48,41,1697384460
10117,18,Jits_Linear_8,3,5,56,103,1697412560
10117,18,Jits_Linear_8,0,5,56,103,1697982912
10117,18,Jits_Linear_8,1,5,63,98,1698032892
10117,18,Jits_Linear_8,2,5,80,127,1698043236
10117,18,Jits_Linear_8,3,1,48,45,1698059084
10117,18,Jits_Linear_8,0,5,56,103,1698652664
10117,18,Jits_Linear_8,1,1,48,48,1698686724
10117,18,Jits_Linear_8,2,5,63,98,1698763124
10117,18,Jits_Linear_8,3,5,80,127,1698782536
10117,18,Jits_Linear_8,0,5,63,98,1699302896
10117,18,Jits_Linear_8,1,1,48,46,1699344456
10117,18,Jits_Linear_8,2,5,80,127,1699352796
10117,18,Jits_Linear_8,3,5,56,103,1699442988
10117,18,Jits_Linear_8,0,5,63,98,1699942900
10117,18,Jits_Linear_8,1,5,80,127,1699972576
10117,18,Jits_Linear_8,2,1,48,45,1699990368
10117,18,Jits_Linear_8,3,5,56,103,1700062800
10117,18,Jits_Linear_8,0,1,48,47,1700554792
10117,18,Jits_Linear_8,1,5,63,98,1700593028
10117,18,Jits_Linear_8,2,5,56,103,1700603300
10117,18,Jits_Linear_8,3,5,80,127,1700702708
10117,18,Jits_Linear_8,0,1,48,52,1701151408
10117,18,Jits_Linear_8,1,5,63,98,1701342576
10117,18,Jits_Linear_8,2,5,80,127,1701373372
10117,18,Jits_Linear_8,3,5,56,103,1701402972
10117,18,Jits_Linear_8,0,1,48,46,1701875648
10117,18,Jits_Linear_8,1,5,80,127,1702002960
10117,18,Jits_Linear_8,2,5,63,98,1702013676
10117,18,Jits_Linear_8,3,5,56,103,1702042908
10117,18,Jits_Linear_8,0,5,80,127,1702542744
10117,18,Jits_Linear_8,1,5,63,98,1702563280
10117,18,Jits_Linear_8,2,5,56,103,1702613584
10117,18,Jits_Linear_8,3,1,48,48,1702666596
10117,18,Jits_Linear_8,0,5,63,98,1703213652
10117,18,Jits_Linear_8,1,1,48,45,1703226360
10117,18,Jits_Linear_8,2,5,80,127,1703272768
10117,18,Jits_Linear_8,3,5,56,103,1703293376
10117,18,Jits_Linear_8,0,5,63,98,1703812748
10117,18,Jits_Linear_8,1,1,48,45,1703855680
10117,18,Jits_Linear_8,2,5,56,103,1703862824
10117,18,Jits_Linear_8,3,5,80,127,1703872868
10117,18,Jits_Linear_8,0,5,56,103,1704483192
10117,18,Jits_Linear_8,1,1,48,48,1704487504
10117,18,Jits_Linear_8,2,5,80,127,1704493380
10117,18,Jits_Linear_8,3,5,63,98,1704592788
10117,18,Jits_Linear_8,0,5,80,127,1705083196
10117,18,Jits_Linear_8,1,5,63,98,1705092644
10117,18,Jits_Linear_8,2,1,48,44,1705127228
10117,18,Jits_Linear_8,3,5,56,103,1705243016
10117,18,Jits_Linear_8,0,5,63,98,1705723160
10117,18,Jits_Linear_8,1,5,80,127,1705763100
10117,18,Jits_Linear_8,2,1,48,45,1705767116
10117,18,Jits_Linear_8,3,5,56,103,1705843036
10117,18,Jits_Linear_8,0,5,56,103,1706342704
10117,18,Jits_Linear_8,1,1,48,48,1706405388
10117,18,Jits_Linear_8,2,5,80,127,1706443048
10117,18,Jits_Linear_8,3,5,63,98,1706462684
10117,18,Jits_Linear_8,0,1,48,45,1707006756
10117,18,Jits_Linear_8,1,5,80,127,1707032864
10117,18,Jits_Linear_8,2,5,56,103,1707043060
10117,18,Jits_Linear_8,3,5,63,98,1707133324
10117,18,Jits_Linear_8,0,1,48,42,1707625640
10117,18,Jits_Linear_8,1,5,56,103,1707662756
10117,18,Jits_Linear_8,2,5,63,98,1707683144
10117,18,Jits_Linear_8,3,5,80,127,1707763096
10117,18,Jits_Linear_8,0,5,63,98,1708233112
10117,18,Jits_Linear_8,1,1,48,41,1708280972
10117,18,Jits_Linear_8,2,5,56,103,1708323088
10117,18,Jits_Linear_8,3,5,80,127,1708326160
10117,18,Jits_Linear_8,0,5,56,103,1708883444
10117,18,Jits_Linear_8,1,5,80,127,1708942716
10117,18,Jits_Linear_8,2,1,48,47,1708952228
10117,18,Jits_Linear_8,3,5,63,98,1708953876
10117,18,Jits_Linear_8,0,1,48,41,1709550188
10117,18,Jits_Linear_8,1,5,80,127,1709552924
10117,18,Jits_Linear_8,2,5,56,103,1709563344
10117,18,Jits_Linear_8,3,5,63,98,1709566188
10117,18,Jits_Linear_8,0,5,56,103,1710132688
10117,18,Jits_Linear_8,1,5,80,127,1710142736
10117,18,Jits_Linear_8,2,5,63,98,1710163344
10117,18,Jits_Linear_8,3,1,48,40,1710213812
10117,18,Jits_Linear_8,0,1,48,40,1710705456
10117,18,Jits_Linear_8,1,5,63,98,1710722420
10117,18,Jits_Linear_8,2,5,80,127,1710782764
10117,18,Jits_Linear_8,3,5,56,103,1710832948
10117,18,Jits_Linear_8,0,1,48,42,1711363620
10117,18,Jits_Linear_8,1,5,63,98,1711422764
10117,18,Jits_Linear_8,2,5,56,103,1711433108
10117,18,Jits_Linear_8,3,5,80,127,1711483592
10117,18,Jits_Linear_8,0,5,63,98,1711932784
10117,18,Jits_Linear_8,1,5,80,127,1711953244
10117,18,Jits_Linear_8,2,5,56,103,1711962468
10117,18,Jits_Linear_8,3,1,48,40,1712053564
10117,18,Jits_Linear_8,0,1,48,37,1712503664
10117,18,Jits_Linear_8,1,5,63,98,1712543100
10117,18,Jits_Linear_8,2,5,80,127,1712546612
10117,18,Jits_Linear_8,3,5,56,103,1712582916
10117,18,Jits_Linear_8,0,1,48,40,1713097292
10117,18,Jits_Linear_8,1,5,63,98,1713222956
10117,18,Jits_Linear_8,2,5,80,127,1713252708
10117,18,Jits_Linear_8,3,5,56,103,1713263052
10117,18,Jits_Linear_8,0,5,56,103,1713783188
10117,18,Jits_Linear_8,1,5,80,127,1713812864
10117,18,Jits_Linear_8,2,1,48,38,1713823856
10117,18,Jits_Linear_8,3,5,63,98,1713842412
10117,18,Jits_Linear_8,0,1,48,38,1714345028
10117,18,Jits_Linear_8,1,5,63,98,1714482400
10117,18,Jits_Linear_8,2,5,56,103,1714522712
10117,18,Jits_Linear_8,3,5,80,127,1714525704
10117,18,Jits_Linear_8,0,5,80,127,1714983436
10117,18,Jits_Linear_8,1,5,56,103,1715063088
10117,18,Jits_Linear_8,2,5,63,98,1715113584
10117,18,Jits_Linear_8,3,1,48,34,1715130528
10117,18,Jits_Linear_8,0,5,80,127,1715562772
10117,18,Jits_Linear_8,1,5,56,103,1715583456
10117,18,Jits_Linear_8,2,5,63,98,1715672568
10117,18,Jits_Linear_8,3,1,48,32,1715719284
10117,18,Jits_Linear_8,0,5,80,127,1716202812
10117,18,Jits_Linear_8,1,1,48,33,1716233504
10117,18,Jits_Linear_8,2,5,63,98,1716242820
10117,18,Jits_Linear_8,3,5,56,103,1716282684
10117,18,Jits_Linear_8,0,5,63,98,1716773372
10117,18,Jits_Linear_8,1,5,80,127,1716832720
10117,18,Jits_Linear_8,2,5,56,103,1716863592
10117,18,Jits_Linear_8,3,1,48,38,1716879964
10117,18,Jits_Linear_8,0,5,56,103,1717373444
10117,18,Jits_Linear_8,1,5,80,127,1717402968
10117,18,Jits_Linear_8,2,1,48,32,1717439144
10117,18,Jits_Linear_8,3,5,63,98,1717493196
10117,18,Jits_Linear_8,0,5,56,103,1717973548
10117,18,Jits_Linear_8,1,1,48,37,1718041708
10117,18,Jits_Linear_8,2,5,80,127,1718082788
10117,18,Jits_Linear_8,3,5,63,98,1718112536
10117,18,Jits_Linear_8,0,5,56,103,1718613720
10117,18,Jits_Linear_8,1,5,63,98,1718672772
10117,18,Jits_Linear_8,2,1,48,36,1718702472
10117,18,Jits_Linear_8,3,5,80,127,1718703880
10117,18,Jits_Linear_8,0,5,56,103,1719172460
10117,18,Jits_Linear_8,1,5,63,98,1719243068
10117,18,Jits_Linear_8,2,1,48,34,1719248728
10117,18,Jits_Linear_8,3,5,80,127,1719262552
10117,18,Jits_Linear_8,0,5,80,127,1719732716
10117,18,Jits_Linear_8,1,1,48,31,1719741540
10117,18,Jits_Linear_8,2,5,63,98,1719752948
10117,18,Jits_Linear_8,3,5,56,103,1719803444
10117,18,Jits_Linear_8,0,5,63,98,1720332648
10117,18,Jits_Linear_8,1,1,48,31,1720336664
10117,18,Jits_Linear_8,2,5,80,127,1720342912
10117,18,Jits_Linear_8,3,5,56,103,1720393188
10117,18,Jits_Linear_8,0,1,48,34,1720903836
10117,18,Jits_Linear_8,1,5,63,98,1720913520
10117,18,Jits_Linear_8,2,5,80,127,1720982760
10117,18,Jits_Linear_8,3,5,56,103,1721003368
10117,18,Jits_Linear_8,0,1,48,40,1721520704
10117,18,Jits_Linear_8,1,5,63,98,1721522448
10117,18,Jits_Linear_8,2,5,80,127,1721525668
10117,18,Jits_Linear_8,3,5,56,103,1721593404
10117,18,Jits_Linear_8,0,5,80,127,1722052992
10117,18,Jits_Linear_8,1,5,56,103,1722072332
10117,18,Jits_Linear_8,2,5,63,98,1722082528
10117,18,Jits_Linear_8,3,1,48,36,1722116656
10117,18,Jits_Linear_8,0,1,48,36,1722613928
10117,18,Jits_Linear_8,1,5,56,103,1722663396
10117,18,Jits_Linear_8,2,5,63,98,1722753444
10117,18,Jits_Linear_8,3,5,80,127,1722756808
10117,18,Jits_Linear_8,0,5,80,127,1723213196
10117,18,Jits_Linear_8,1,5,56,103,1723223392
10117,18,Jits_Linear_8,2,5,63,98,1723242880
10117,18,Jits_Linear_8,3,1,48,40,1723294540
10117,18,Jits_Linear_8,0,5,63,98,1723782628
10117,18,Jits_Linear_8,1,5,80,127,1723842968
10117,18,Jits_Linear_8,2,5,56,103,1723853312
10117,18,Jits_Linear_8,3,1,48,43,1723859348
10117,18,Jits_Linear_8,0,1,48,34,1724393100
10117,18,Jits_Linear_8,1,5,63,98,1724422568
10117,18,Jits_Linear_8,2,5,80,127,1724453292
10117,18,Jits_Linear_8,3,5,56,103,1724493440
10117,18,Jits_Linear_8,0,1,48,40,1724981436
10117,18,Jits_Linear_8,1,5,56,103,1724982932
10117,18,Jits_Linear_8,2,5,80,127,1724992980
10117,18,Jits_Linear_8,3,5,63,98,1725032924
10117,18,Jits_Linear_8,0,5,80,127,1725513184
10117,18,Jits_Linear_8,1,1,48,39,1725565008
10117,18,Jits_Linear_8,2,5,56,103,1725593052
10117,18,Jits_Linear_8,3,5,63,98,1725603396
10117,18,Jits_Linear_8,0,5,80,127,1726123536
10117,18,Jits_Linear_8,1,1,48,38,1726175956
10117,18,Jits_Linear_8,2,5,56,103,1726203328
10117,18,Jits_Linear_8,3,5,63,98,1726212552
10117,18,Jits_Linear_8,0,5,80,127,1726642416
10117,18,Jits_Linear_8,1,5,56,103,1726692772
10117,18,Jits_Linear_8,2,5,63,98,1726742748
10117,18,Jits_Linear_8,3,1,48,41,1726783472
10117,18,Jits_Linear_8,0,1,48,26,1727186424
10117,18,Jits_Linear_8,1,1,48,19,1727247836
10117,18,Jits_Linear_8,2,5,56,103,1727263076
10117,18,Jits_Linear_8,3,5,63,98,1727266364
10117,18,Jits_Linear_8,4,5,80,127,1727313424
10117,18,Jits_Linear_8,0,1,48,45,1727849768
10117,18,Jits_Linear_8,1,5,56,103,1727852876
10117,18,Jits_Linear_8,2,5,63,98,1727882552
10117,18,Jits_Linear_8,3,5,80,127,1727892824
10117,18,Jits_Linear_8,0,5,63,98,1728323044
10117,18,Jits_Linear_8,1,5,56,103,1728392652
10117,18,Jits_Linear_8,2,5,80,127,1728442804
10117,18,Jits_Linear_8,3,1,48,42,1728444216
10117,18,Jits_Linear_8,0,5,63,98,1728912628
10117,18,Jits_Linear_8,1,5,56,103,1728922972
10117,18,Jits_Linear_8,2,1,48,27,1728925892
10117,18,Jits_Linear_8,3,5,80,127,1728927300
10117,18,Jits_Linear_8,0,5,80,127,1729412592
10117,18,Jits_Linear_8,1,1,48,39,1729452204
10117,18,Jits_Linear_8,2,5,56,103,1729472852
10117,18,Jits_Linear_8,3,5,63,98,1729562896
10117,18,Jits_Linear_8,0,5,80,127,1729963524
10117,18,Jits_Linear_8,1,1,48,40,1730036848
10117,18,Jits_Linear_8,2,5,56,103,1730062872
10117,18,Jits_Linear_8,3,5,63,98,1730102588
10117,18,Jits_Linear_8,0,5,56,103,1730562268
10117,18,Jits_Linear_8,1,5,63,98,1730583100
10117,18,Jits_Linear_8,2,1,48,39,1730591848
10117,18,Jits_Linear_8,3,5,80,127,1730622884
10117,18,Jits_Linear_8,0,5,63,98,1731082560
10117,18,Jits_Linear_8,1,1,48,39,1731100896
10117,18,Jits_Linear_8,2,5,56,103,1731103012
10117,18,Jits_Linear_8,3,5,80,127,1731202272
10117,18,Jits_Linear_8,0,1,48,39,1731604000
10117,18,Jits_Linear_8,1,5,63,98,1731613164
10117,18,Jits_Linear_8,2,5,80,127,1731722620
10117,18,Jits_Linear_8,3,5,56,103,1731753564
10117,18,Jits_Linear_8,0,5,56,103,1732173312
10117,18,Jits_Linear_8,1,1,48,38,1732199504
10117,18,Jits_Linear_8,2,5,63,98,1732202832
10117,18,Jits_Linear_8,3,5,80,127,1732253332
10117,18,Jits_Linear_8,0,5,63,98,1732683412
10117,18,Jits_Linear_8,1,5,56,103,1732712868
10117,18,Jits_Linear_8,2,1,48,36,1732738532
10117,18,Jits_Linear_8,3,5,80,127,1732762988
10117,18,Jits_Linear_8,0,1,48,40,1733218552
10117,18,Jits_Linear_8,1,5,56,103,1733252452
10117,18,Jits_Linear_8,2,5,63,98,1733272840
10117,18,Jits_Linear_8,3,5,80,127,1733352940
10117,18,Jits_Linear_8,0,1,48,31,1733760276
10117,18,Jits_Linear_8,1,5,63,98,1733762316
10117,18,Jits_Linear_8,2,5,56,103,1733822808
10117,18,Jits_Linear_8,3,5,80,127,1733853440
10117,18,Jits_Linear_8,0,1,48,39,1734270040
10117,18,Jits_Linear_8,1,5,56,103,1734343000
10117,18,Jits_Linear_8,2,5,80,127,1734402404
10117,18,Jits_Linear_8,3,5,63,98,1734443464
10117,18,Jits_Linear_8,0,1,48,26,1734787108
10117,18,Jits_Linear_8,1,5,63,98,1734853096
10117,18,Jits_Linear_8,2,5,56,103,1734913248
10117,18,Jits_Linear_8,3,5,80,127,1734983152
10117,18,Jits_Linear_8,0,1,48,30,1735385560
10117,18,Jits_Linear_8,1,5,56,103,1735463284
10117,18,Jits_Linear_8,2,5,63,98,1735472580
10117,18,Jits_Linear_8,3,5,80,127,1735476752
10117,18,Jits_Linear_8,0,1,48,32,1735912588
10117,18,Jits_Linear_8,1,5,63,98,1735933288
10117,18,Jits_Linear_8,2,5,56,103,1735992632
10117,18,Jits_Linear_8,3,5,80,127,1735995700
10117,18,Jits_Linear_8,0,5,63,98,1736443376
10117,18,Jits_Linear_8,1,5,80,127,1736472980
10117,18,Jits_Linear_8,2,1,48,27,1736482400
10117,18,Jits_Linear_8,3,5,56,103,1736493360
10117,18,Jits_Linear_8,0,5,56,103,1736972576
10117,18,Jits_Linear_8,1,1,48,27,1737009700
10117,18,Jits_Linear_8,2,5,63,98,1737022920
10117,18,Jits_Linear_8,3,5,80,127,1737102640
10117,18,Jits_Linear_8,0,5,80,127,1737473388
10117,18,Jits_Linear_8,1,5,63,98,1737513328
10117,18,Jits_Linear_8,2,5,56,103,1737532888
10117,18,Jits_Linear_8,3,1,48,17,1737538628
10117,18,Jits_Linear_8,0,5,56,103,1738063356
10117,18,Jits_Linear_8,1,1,48,26,1738064320
10117,18,Jits_Linear_8,2,5,80,127,1738072500
10117,18,Jits_Linear_8,3,5,63,98,1738092884
10117,18,Jits_Linear_8,0,5,56,103,1738562900
10117,18,Jits_Linear_8,1,1,48,33,1738596136
10117,18,Jits_Linear_8,2,5,63,98,1738613248
10117,18,Jits_Linear_8,3,5,80,127,1738642924
10117,18,Jits_Linear_8,0,5,56,103,1739033072
10117,18,Jits_Linear_8,1,5,63,98,1739043272
10117,18,Jits_Linear_8,2,1,48,42,1739083700
10117,18,Jits_Linear_8,3,5,80,127,1739093240
10117,18,Jits_Linear_8,0,5,56,103,1739542872
10117,18,Jits_Linear_8,1,5,80,127,1739546088
10117,18,Jits_Linear_8,2,1,48,38,1739578128
10117,18,Jits_Linear_8,3,5,63,98,1739702536
10117,18,Jits_Linear_8,0,1,48,37,1740013228
10117,18,Jits_Linear_8,1,5,63,98,1740073268
10117,18,Jits_Linear_8,2,5,56,103,1740142936
10117,18,Jits_Linear_8,3,5,80,127,1740182952
10117,18,Jits_Linear_8,0,5,63,98,1740623228
10117,18,Jits_Linear_8,1,1,48,38,1740624268
10117,18,Jits_Linear_8,2,5,56,103,1740713356
10117,18,Jits_Linear_8,3,5,80,127,1740716276
10117,18,Jits_Linear_8,0,5,56,103,1741112540
10117,18,Jits_Linear_8,1,1,48,40,1741152676
10117,18,Jits_Linear_8,2,5,63,98,1741202820
10117,18,Jits_Linear_8,3,5,80,127,1741213316
10117,18,Jits_Linear_8,0,5,56,103,1741593056
10117,18,Jits_Linear_8,1,5,63,98,1741643408
10117,18,Jits_Linear_8,2,5,80,127,1741672860
10117,18,Jits_Linear_8,3,1,48,38,1741684072
10117,18,Jits_Linear_8,0,1,48,31,1742116236
10117,18,Jits_Linear_8,1,5,63,98,1742172536
10117,18,Jits_Linear_8,2,5,80,127,1742182808
10117,18,Jits_Linear_8,3,5,56,103,1742243184
10117,18,Jits_Linear_8,0,5,63,98,1742593328
10117,18,Jits_Linear_8,1,5,80,127,1742652748
10117,18,Jits_Linear_8,2,1,48,39,1742655644
10117,18,Jits_Linear_8,3,5,56,103,1742692904
10117,18,Jits_Linear_8,0,1,48,40,1743077604
10117,18,Jits_Linear_8,1,5,56,103,1743192480
10117,18,Jits_Linear_8,2,5,80,127,1743213164
10117,18,Jits_Linear_8,3,5,63,98,1743233324
10117,18,Jits_Linear_8,0,5,63,98,1743613216
10117,18,Jits_Linear_8,1,5,56,103,1743632852
10117,18,Jits_Linear_8,2,1,48,38,1743665640
10117,18,Jits_Linear_8,3,5,80,127,1743672636
10117,18,Jits_Linear_8,0,1,48,33,1744083264
10117,18,Jits_Linear_8,1,5,63,98,1744123296
10117,18,Jits_Linear_8,2,5,80,127,1744152900
10117,18,Jits_Linear_8,3,5,56,103,1744173432
10117,18,Jits_Linear_8,0,1,48,38,1744572972
10117,18,Jits_Linear_8,1,5,80,127,1744593228
10117,18,Jits_Linear_8,2,5,56,103,1744642308
10117,18,Jits_Linear_8,3,5,63,98,1744702688
10117,18,Jits_Linear_8,0,1,48,40,1745045420
10117,18,Jits_Linear_8,1,5,63,98,1745072524
10117,18,Jits_Linear_8,2,5,56,103,1745193364
10117,18,Jits_Linear_8,3,5,80,127,1745223264
10117,18,Jits_Linear_8,0,1,48,40,1745553724
10117,18,Jits_Linear_8,1,5,80,127,1745602924
10117,18,Jits_Linear_8,2,5,63,98,1745623308
10117,18,Jits_Linear_8,3,5,56,103,1745693124
10117,18,Jits_Linear_8,0,1,48,40,1746085320
10117,18,Jits_Linear_8,1,5,63,98,1746113016
10117,18,Jits_Linear_8,2,5,56,103,1746123288
10117,18,Jits_Linear_8,3,5,80,127,1746203292
10117,18,Jits_Linear_8,0,1,48,41,1746568360
10117,18,Jits_Linear_8,1,5,56,103,1746662804
10117,18,Jits_Linear_8,2,5,80,127,1746692336
10117,18,Jits_Linear_8,3,5,63,98,1746702680
10117,18,Jits_Linear_8,0,9999,9999,9999,1636280444
10117,18,Jits_Linear_8,1,9999,9999,9999,1637100656
10117,18,Jits_Linear_8,2,9999,9999,9999,1637920868
10117,18,Jits_Linear_8,3,9999,9999,9999,1638741072
10117,18,Jits_Linear_8,4,9999,9999,9999,1639560304
10117,18,Jits_Linear_8,5,9999,9999,9999,1640370272
10117,18,Jits_Linear_8,6,9999,9999,9999,1641180288
10117,18,Jits_Linear_8,7,9999,9999,9999,1641990244
10117,18,Jits_Linear_8,8,9999,9999,9999,1642800192
10117,18,Jits_Linear_8,9,9999,9999,9999,1643610196
10117,18,Jits_Linear_8,10,9999,9999,9999,1644410944
10117,18,Jits_Linear_8,11,9999,9999,9999,1645210696
10117,18,Jits_Linear_8,12,9999,9999,9999,1646010424
10117,18,Jits_Linear_8,13,9999,9999,9999,1646810184
10117,18,Jits_Linear_8,14,9999,9999,9999,1647610972
10117,18,Jits_Linear_8,15,9999,9999,9999,1648400456
10117,18,Jits_Linear_8,16,9999,9999,9999,1649191000
10117,18,Jits_Linear_8,17,9999,9999,9999,1649980520
10117,18,Jits_Linear_8,18,9999,9999,9999,1650771060
10117,18,Jits_Linear_8,19,9999,9999,9999,1651560556
10117,18,Jits_Linear_8,20,9999,9999,9999,1652340832
10117,18,Jits_Linear_8,21,9999,9999,9999,1653120056
10117,18,Jits_Linear_8,22,9999,9999,9999,1653900412
10117,18,Jits_Linear_8,23,9999,9999,9999,1654680684
10117,18,Jits_Linear_8,24,9999,9999,9999,1655460952
10117,18,Jits_Linear_8,25,9999,9999,9999,1656230964
10117,18,Jits_Linear_8,26,9999,9999,9999,1657001048
10117,18,Jits_Linear_8,27,9999,9999,9999,1657771128
10117,18,Jits_Linear_8,28,9999,9999,9999,1658550384
10117,18,Jits_Linear_8,29,9999,9999,9999,1659320404
10117,18,Jits_Linear_8,30,9999,9999,9999,1660080216
10117,18,Jits_Linear_8,31,9999,9999,9999,1660841060
10117,18,Jits_Linear_8,32,9999,9999,9999,1661600888
10117,18,Jits_Linear_8,33,9999,9999,9999,1662360644
10117,18,Jits_Linear_8,34,9999,9999,9999,1663120480
10117,18,Jits_Linear_8,35,9999,9999,9999,1663871096
10117,18,Jits_Linear_8,36,9999,9999,9999,1664620660
10117,18,Jits_Linear_8,37,9999,9999,9999,1665370236
10117,18,Jits_Linear_8,38,9999,9999,9999,1666120776
10117,18,Jits_Linear_8,39,9999,9999,9999,1666870340
10117,18,Jits_Linear_8,40,9999,9999,9999,1667610680
10117,18,Jits_Linear_8,41,9999,9999,9999,1668351040
10117,18,Jits_Linear_8,42,9999,9999,9999,1669090408
10117,18,Jits_Linear_8,43,9999,9999,9999,1669830756
10117,18,Jits_Linear_8,44,9999,9999,9999,1670571132
10117,18,Jits_Linear_8,45,9999,9999,9999,1671310424
10117,18,Jits_Linear_8,46,9999,9999,9999,1672040520
10117,18,Jits_Linear_8,47,9999,9999,9999,1672770680
10117,18,Jits_Linear_8,48,9999,9999,9999,1673500776
10117,18,Jits_Linear_8,49,9999,9999,9999,1674230864
10117,18,Jits_Linear_8,50,9999,9999,9999,1674950756
10117,18,Jits_Linear_8,51,9999,9999,9999,1675670636
10117,18,Jits_Linear_8,52,9999,9999,9999,1676390468
10117,18,Jits_Linear_8,53,9999,9999,9999,1677110380
10117,18,Jits_Linear_8,54,9999,9999,9999,1677830208
10117,18,Jits_Linear_8,55,9999,9999,9999,1678540900
10117,18,Jits_Linear_8,56,9999,9999,9999,1679250496
10117,18,Jits_Linear_8,57,9999,9999,9999,1679960124
10117,18,Jits_Linear_8,58,9999,9999,9999,1680670796
10117,18,Jits_Linear_8,59,9999,9999,9999,1681380432
10117,18,Jits_Linear_8,60,9999,9999,9999,1682080888
10117,18,Jits_Linear_8,61,9999,9999,9999,1682780256
10117,18,Jits_Linear_8,62,9999,9999,9999,1683480660
10117,18,Jits_Linear_8,63,9999,9999,9999,1684181060
10117,18,Jits_Linear_8,64,9999,9999,9999,1684880476
10117,18,Jits_Linear_8,65,9999,9999,9999,1685570624
10117,18,Jits_Linear_8,66,9999,9999,9999,1686260792
10117,18,Jits_Linear_8,67,9999,9999,9999,1686950992
10117,18,Jits_Linear_8,68,9999,9999,9999,1687640160
10117,18,Jits_Linear_8,69,9999,9999,9999,1688330324
10117,18,Jits_Linear_8,70,9999,9999,9999,1689010288
10117,18,Jits_Linear_8,71,9999,9999,9999,1689690232
10117,18,Jits_Linear_8,72,9999,9999,9999,1690370128
10117,18,Jits_Linear_8,73,9999,9999,9999,1691051120
10117,18,Jits_Linear_8,74,9999,9999,9999,1691740240
10117,18,Jits_Linear_8,75,9999,9999,9999,1692410980
10117,18,Jits_Linear_8,76,9999,9999,9999,1693080660
10117,18,Jits_Linear_8,77,9999,9999,9999,1693750372
10117,18,Jits_Linear_8,78,9999,9999,9999,1694421044
10117,18,Jits_Linear_8,79,9999,9999,9999,1695090788
10117,18,Jits_Linear_8,80,9999,9999,9999,1695750224
10117,18,Jits_Linear_8,81,9999,9999,9999,1696410744
10117,18,Jits_Linear_8,82,9999,9999,9999,1697070172
10117,18,Jits_Linear_8,83,9999,9999,9999,1697730644
10117,18,Jits_Linear_8,84,9999,9999,9999,1698390132
10117,18,Jits_Linear_8,85,9999,9999,9999,1699040364
10117,18,Jits_Linear_8,86,9999,9999,9999,1699690572
10117,18,Jits_Linear_8,87,9999,9999,9999,1700340856
10117,18,Jits_Linear_8,88,9999,9999,9999,1700991040
10117,18,Jits_Linear_8,89,9999,9999,9999,1701640292
10117,18,Jits_Linear_8,90,9999,9999,9999,1702280300
10117,18,Jits_Linear_8,91,9999,9999,9999,1702920252
10117,18,Jits_Linear_8,92,9999,9999,9999,1703560272
10117,18,Jits_Linear_8,93,9999,9999,9999,1704200292
10117,18,Jits_Linear_8,94,9999,9999,9999,1704840296
10117,18,Jits_Linear_8,95,9999,9999,9999,1705471040
10117,18,Jits_Linear_8,96,9999,9999,9999,1706100792
10117,18,Jits_Linear_8,97,9999,9999,9999,1706730552
10117,18,Jits_Linear_8,98,9999,9999,9999,1707360380
10117,18,Jits_Linear_8,99,9999,9999,9999,1707990076
10117,18,Jits_Linear_8,100,9999,9999,9999,1708610660
10117,18,Jits_Linear_8,101,9999,9999,9999,1709230160
10117,18,Jits_Linear_8,102,9999,9999,9999,1709850688
10117,18,Jits_Linear_8,103,9999,9999,9999,1710470232
10117,18,Jits_Linear_8,104,9999,9999,9999,1711090792
10117,18,Jits_Linear_8,105,9999,9999,9999,1711701060
10117,18,Jits_Linear_8,106,9999,9999,9999,1712310360
10117,18,Jits_Linear_8,107,9999,9999,9999,1712920676
10117,18,Jits_Linear_8,108,9999,9999,9999,1713530936
10117,18,Jits_Linear_8,109,9999,9999,9999,1714140244
10117,18,Jits_Linear_8,110,9999,9999,9999,1714740328
10117,18,Jits_Linear_8,111,9999,9999,9999,1715340396
10117,18,Jits_Linear_8,112,9999,9999,9999,1715940428
10117,18,Jits_Linear_8,113,9999,9999,9999,1716540512
10117,18,Jits_Linear_8,114,9999,9999,9999,1717140592
10117,18,Jits_Linear_8,115,9999,9999,9999,1717730424
10117,18,Jits_Linear_8,116,9999,9999,9999,1718320248
10117,18,Jits_Linear_8,117,9999,9999,9999,1718911048
10117,18,Jits_Linear_8,118,9999,9999,9999,1719500900
10117,18,Jits_Linear_8,119,9999,9999,9999,1720090716
10117,18,Jits_Linear_8,120,9999,9999,9999,1720670272
10117,18,Jits_Linear_8,121,9999,9999,9999,1721250936
10117,18,Jits_Linear_8,122,9999,9999,9999,1721830484
10117,18,Jits_Linear_8,123,9999,9999,9999,1722411064
10117,18,Jits_Linear_8,124,9999,9999,9999,1723000952
10117,18,Jits_Linear_8,125,9999,9999,9999,1723570244
10117,18,Jits_Linear_8,126,9999,9999,9999,1724140652
10117,18,Jits_Linear_8,127,9999,9999,9999,1724710980
10117,18,Jits_Linear_8,128,9999,9999,9999,1725280340
10117,18,Jits_Linear_8,129,9999,9999,9999,1725850740
10117,18,Jits_Linear_8,130,9999,9999,9999,1726410824
10117,18,Jits_Linear_8,131,9999,9999,9999,1726970976
10117,18,Jits_Linear_8,132,9999,9999,9999,1727531100
10117,18,Jits_Linear_8,133,9999,9999,9999,1728100460
10117,18,Jits_Linear_8,134,9999,9999,9999,1728660596
10117,18,Jits_Linear_8,135,9999,9999,9999,1729210484
10117,18,Jits_Linear_8,136,9999,9999,9999,1729760360
10117,18,Jits_Linear_8,137,9999,9999,9999,1730310224
10117,18,Jits_Linear_8,138,9999,9999,9999,1730860116
10117,18,Jits_Linear_8,139,9999,9999,9999,1731411044
10117,18,Jits_Linear_8,140,9999,9999,9999,1731950656
10117,18,Jits_Linear_8,141,9999,9999,9999,1732490336
10117,18,Jits_Linear_8,142,9999,9999,9999,1733031000
10117,18,Jits_Linear_8,143,9999,9999,9999,1733570632
10117,18,Jits_Linear_8,144,9999,9999,9999,1734110312
10117,18,Jits_Linear_8,145,9999,9999,9999,1734640704
10117,18,Jits_Linear_8,146,9999,9999,9999,1735170132
10117,18,Jits_Linear_8,147,9999,9999,9999,1735700596
10117,18,Jits_Linear_8,148,9999,9999,9999,1736230984
10117,18,Jits_Linear_8,149,9999,9999,9999,1736760404
10117,18,Jits_Linear_8,150,9999,9999,9999,1737280612
10117,18,Jits_Linear_8,151,9999,9999,9999,1737800824
10117,18,Jits_Linear_8,152,9999,9999,9999,1738320972
10117,18,Jits_Linear_8,153,9999,9999,9999,1738840148
10117,18,Jits_Linear_8,154,9999,9999,9999,1739360360
10117,18,Jits_Linear_8,155,9999,9999,9999,1739870308
10117,18,Jits_Linear_8,156,9999,9999,9999,1740380264
10117,18,Jits_Linear_8,157,9999,9999,9999,1740890180
10117,18,Jits_Linear_8,158,9999,9999,9999,1741400132
10117,18,Jits_Linear_8,159,9999,9999,9999,1741910080
10117,18,Jits_Linear_8,160,9999,9999,9999,1742410828
10117,18,Jits_Linear_8,161,9999,9999,9999,1742910580
10117,18,Jits_Linear_8,162,9999,9999,9999,1743410264
10117,18,Jits_Linear_8,163,9999,9999,9999,1743910988
10117,18,Jits_Linear_8,164,9999,9999,9999,1744410736
10117,18,Jits_Linear_8,165,9999,9999,9999,1744900148
10117,18,Jits_Linear_8,166,9999,9999,9999,1745390688
10117,18,Jits_Linear_8,167,9999,9999,9999,1745880176
10117,18,Jits_Linear_8,168,9999,9999,9999,1746370640
10117,18,Jits_Linear_8,169,9999,9999,9999,1746860140
10118,17,Jits_Phase_5,0,5,56,103,1755423972
10118,17,Jits_Phase_5,1,5,63,98,1755427148
10118,17,Jits_Phase_5,2,5,80,127,1755430272
10118,17,Jits_Phase_5,0,5,56,103,1755923984
10118,17,Jits_Phase_5,1,5,63,98,1755927012
10118,17,Jits_Phase_5,2,5,80,127,1755930056
10118,17,Jits_Phase_5,3,1,48,47,1755935508
10118,17,Jits_Phase_5,0,1,48,46,1756410076
10118,17,Jits_Phase_5,1,5,56,103,1756423520
10118,17,Jits_Phase_5,2,5,80,127,1756434012
10118,17,Jits_Phase_5,3,5,63,98,1756454172
10118,17,Jits_Phase_5,0,1,48,46,1756883416
10118,17,Jits_Phase_5,1,5,63,98,1756884980
10118,17,Jits_Phase_5,2,5,80,127,1756914060
10118,17,Jits_Phase_5,3,5,56,103,1756924404
10118,17,Jits_Phase_5,0,1,48,41,1757362460
10118,17,Jits_Phase_5,1,5,80,127,1757443468
10118,17,Jits_Phase_5,2,5,56,103,1757453664
10118,17,Jits_Phase_5,3,5,63,98,1757484520
10118,17,Jits_Phase_5,0,1,48,39,1757884084
10118,17,Jits_Phase_5,1,5,63,98,1757934152
10118,17,Jits_Phase_5,2,5,56,103,1757963756
10118,17,Jits_Phase_5,3,5,80,127,1757974024
10118,17,Jits_Phase_5,0,5,56,103,1758383420
10118,17,Jits_Phase_5,1,1,48,41,1758403324
10118,17,Jits_Phase_5,2,5,63,98,1758433764
10118,17,Jits_Phase_5,3,5,80,127,1758454148
10118,17,Jits_Phase_5,0,1,48,46,1758856752
10118,17,Jits_Phase_5,1,5,80,127,1758884348
10118,17,Jits_Phase_5,2,5,63,98,1758934356
10118,17,Jits_Phase_5,3,5,56,103,1758974348
10118,17,Jits_Phase_5,0,5,56,103,1759384104
10118,17,Jits_Phase_5,1,1,48,47,1759392104
10118,17,Jits_Phase_5,2,5,63,98,1759413576
10118,17,Jits_Phase_5,3,5,80,127,1759484224
10118,17,Jits_Phase_5,0,5,56,103,1759883644
10118,17,Jits_Phase_5,1,1,48,55,1759903700
10118,17,Jits_Phase_5,2,5,80,127,1759944128
10118,17,Jits_Phase_5,3,5,63,98,1759973728
10118,17,Jits_Phase_5,0,1,48,51,1760343080
10118,17,Jits_Phase_5,1,5,56,103,1760393520
10118,17,Jits_Phase_5,2,5,63,98,1760403864
10118,17,Jits_Phase_5,3,5,80,127,1760443960
10118,17,Jits_Phase_5,0,1,48,53,1760878168
10118,17,Jits_Phase_5,1,5,63,98,1760884192
10118,17,Jits_Phase_5,2,5,80,127,1760964084
10118,17,Jits_Phase_5,3,5,56,103,1760974116
10118,17,Jits_Phase_5,0,1,48,51,1761401440
10118,17,Jits_Phase_5,1,5,63,98,1761433916
10118,17,Jits_Phase_5,2,5,56,103,1761473880
10118,17,Jits_Phase_5,3,5,80,127,1761477020
10118,17,Jits_Phase_5,0,1,48,48,1761876544
10118,17,Jits_Phase_5,1,5,56,103,1761893952
10118,17,Jits_Phase_5,2,5,63,98,1761904148
10118,17,Jits_Phase_5,3,5,80,127,1761944232
10118,17,Jits_Phase_5,0,1,48,47,1762347888
10118,17,Jits_Phase_5,1,5,56,103,1762384180
10118,17,Jits_Phase_5,2,5,63,98,1762387320
10118,17,Jits_Phase_5,3,5,80,127,1762403816
10118,17,Jits_Phase_5,0,1,48,55,1762846728
10118,17,Jits_Phase_5,1,5,80,127,1762894180
10118,17,Jits_Phase_5,2,5,56,103,1762904376
10118,17,Jits_Phase_5,3,5,63,98,1762974108
10118,17,Jits_Phase_5,0,1,48,52,1763379880
10118,17,Jits_Phase_5,1,5,63,98,1763383956
10118,17,Jits_Phase_5,2,5,56,103,1763404192
10118,17,Jits_Phase_5,3,5,80,127,1763484044
10118,17,Jits_Phase_5,0,1,48,51,1763869068
10118,17,Jits_Phase_5,1,5,56,103,1763893596
10118,17,Jits_Phase_5,2,5,80,127,1763933460
10118,17,Jits_Phase_5,3,5,63,98,1763944028
10118,17,Jits_Phase_5,0,1,48,54,1764381936
10118,17,Jits_Phase_5,1,5,80,127,1764394240
10118,17,Jits_Phase_5,2,5,63,98,1764423992
10118,17,Jits_Phase_5,3,5,56,103,1764464076
10118,17,Jits_Phase_5,0,1,48,54,1764888036
10118,17,Jits_Phase_5,1,5,56,103,1764913616
10118,17,Jits_Phase_5,2,5,63,98,1764944188
10118,17,Jits_Phase_5,3,5,80,127,1764994372
10118,17,Jits_Phase_5,0,1,48,53,1765408912
10118,17,Jits_Phase_5,1,5,80,127,1765414260
10118,17,Jits_Phase_5,2,5,56,103,1765454124
10118,17,Jits_Phase_5,3,5,63,98,1765464320
10118,17,Jits_Phase_5,0,5,80,127,1765893488
10118,17,Jits_Phase_5,1,1,48,53,1765901396
10118,17,Jits_Phase_5,2,5,63,98,1765933344
10118,17,Jits_Phase_5,3,5,56,103,1765994460
10118,17,Jits_Phase_5,0,5,56,103,1766394372
10118,17,Jits_Phase_5,1,5,80,127,1766403448
10118,17,Jits_Phase_5,2,1,48,53,1766434732
10118,17,Jits_Phase_5,3,5,63,98,1766484428
10118,17,Jits_Phase_5,0,1,48,49,1766887136
10118,17,Jits_Phase_5,1,5,80,127,1766894056
10118,17,Jits_Phase_5,2,5,63,98,1766954224
10118,17,Jits_Phase_5,3,5,56,103,1766984044
10118,17,Jits_Phase_5,0,5,56,103,1767393884
10118,17,Jits_Phase_5,1,1,48,55,1767452460
10118,17,Jits_Phase_5,2,5,80,127,1767454044
10118,17,Jits_Phase_5,3,5,63,98,1767494132
10118,17,Jits_Phase_5,0,1,48,46,1767929796
10118,17,Jits_Phase_5,1,5,56,103,1767943468
10118,17,Jits_Phase_5,2,5,63,98,1767954032
10118,17,Jits_Phase_5,3,5,80,127,1767957248
10118,17,Jits_Phase_5,0,5,80,127,1768404256
10118,17,Jits_Phase_5,1,1,48,61,1768433900
10118,17,Jits_Phase_5,2,5,63,98,1768493408
10118,17,Jits_Phase_5,3,5,56,103,1768503752
10118,17,Jits_Phase_5,0,5,56,103,1768904004
10118,17,Jits_Phase_5,1,5,63,98,1768907100
10118,17,Jits_Phase_5,2,5,80,127,1768910148
10118,17,Jits_Phase_5,3,1,48,61,1768989904
10118,17,Jits_Phase_5,0,5,80,127,1769424360
10118,17,Jits_Phase_5,1,1,48,51,1769452284
10118,17,Jits_Phase_5,2,5,63,98,1769474408
10118,17,Jits_Phase_5,3,5,56,103,1769504228
10118,17,Jits_Phase_5,0,5,56,103,1769903452
10118,17,Jits_Phase_5,1,5,80,127,1769913796
10118,17,Jits_Phase_5,2,1,48,48,1769959984
10118,17,Jits_Phase_5,3,5,63,98,1769984292
10118,17,Jits_Phase_5,0,5,56,103,1770413400
10118,17,Jits_Phase_5,1,5,63,98,1770433788
10118,17,Jits_Phase_5,2,1,48,48,1770434752
10118,17,Jits_Phase_5,3,5,80,127,1770494388
10118,17,Jits_Phase_5,0,5,80,127,1770893884
10118,17,Jits_Phase_5,1,1,48,44,1770940924
10118,17,Jits_Phase_5,2,5,63,98,1770964480
10118,17,Jits_Phase_5,3,5,56,103,1770983892
10118,17,Jits_Phase_5,0,1,48,42,1771413424
10118,17,Jits_Phase_5,1,5,80,127,1771414992
10118,17,Jits_Phase_5,2,5,56,103,1771423992
10118,17,Jits_Phase_5,3,5,63,98,1771434336
10118,17,Jits_Phase_5,0,5,80,127,1771904332
10118,17,Jits_Phase_5,1,1,48,44,1771906924
10118,17,Jits_Phase_5,2,5,56,103,1771923884
10118,17,Jits_Phase_5,3,5,63,98,1771993440
10118,17,Jits_Phase_5,0,1,48,43,1772393128
10118,17,Jits_Phase_5,1,5,56,103,1772414424
10118,17,Jits_Phase_5,2,5,80,127,1772444028
10118,17,Jits_Phase_5,3,5,63,98,1772463540
10118,17,Jits_Phase_5,0,1,48,52,1772893628
10118,17,Jits_Phase_5,1,5,63,98,1772904064
10118,17,Jits_Phase_5,2,5,56,103,1772964156
10118,17,Jits_Phase_5,3,5,80,127,1772993764
10118,17,Jits_Phase_5,0,1,48,48,1773387080
10118,17,Jits_Phase_5,1,5,63,98,1773394300
10118,17,Jits_Phase_5,2,5,80,127,1773397588
10118,17,Jits_Phase_5,3,5,56,103,1773484512
10118,17,Jits_Phase_5,0,1,48,45,1773899100
10118,17,Jits_Phase_5,1,5,56,103,1773913516
10118,17,Jits_Phase_5,2,5,63,98,1773944164
10118,17,Jits_Phase_5,3,5,80,127,1773984100
10118,17,Jits_Phase_5,0,1,48,56,1774388060
10118,17,Jits_Phase_5,1,5,63,98,1774414092
10118,17,Jits_Phase_5,2,5,56,103,1774454028
10118,17,Jits_Phase_5,3,5,80,127,1774473516
10118,17,Jits_Phase_5,0,1,48,55,1774837020
10118,17,Jits_Phase_5,1,5,63,98,1774924180
10118,17,Jits_Phase_5,2,5,56,103,1774964176
10118,17,Jits_Phase_5,3,5,80,127,1774974296
10118,17,Jits_Phase_5,0,1,48,53,1775378872
10118,17,Jits_Phase_5,1,5,80,127,1775404376
10118,17,Jits_Phase_5,2,5,63,98,1775474056
10118,17,Jits_Phase_5,3,5,56,103,1775493452
10118,17,Jits_Phase_5,0,1,48,52,1775876904
10118,17,Jits_Phase_5,1,5,56,103,1775893792
10118,17,Jits_Phase_5,2,5,80,127,1775914324
10118,17,Jits_Phase_5,3,5,63,98,1775954260
10118,17,Jits_Phase_5,0,5,63,98,1776403880
10118,17,Jits_Phase_5,1,1,48,33,1776409692
10118,17,Jits_Phase_5,2,5,80,127,1776424256
10118,17,Jits_Phase_5,3,5,56,103,1776464196
10118,17,Jits_Phase_5,0,1,48,48,1776871368
10118,17,Jits_Phase_5,1,5,63,98,1776903696
10118,17,Jits_Phase_5,2,5,56,103,1776924008
10118,17,Jits_Phase_5,3,5,80,127,1776934204
10118,17,Jits_Phase_5,0,1,48,44,1777382744
10118,17,Jits_Phase_5,1,5,80,127,1777404488
10118,17,Jits_Phase_5,2,5,56,103,1777423680
10118,17,Jits_Phase_5,3,5,63,98,1777453352
10118,17,Jits_Phase_5,0,1,48,54,1777852744
10118,17,Jits_Phase_5,1,5,56,103,1777973892
10118,17,Jits_Phase_5,2,5,80,127,1777976812
10118,17,Jits_Phase_5,3,5,63,98,1777994056
10118,17,Jits_Phase_5,0,1,48,51,1778353012
10118,17,Jits_Phase_5,1,5,63,98,1778393420
10118,17,Jits_Phase_5,2,5,56,103,1778424140
10118,17,Jits_Phase_5,3,5,80,127,1778483836
10118,17,Jits_Phase_5,0,1,48,66,1778853484
10118,17,Jits_Phase_5,1,5,63,98,1778974212
10118,17,Jits_Phase_5,2,5,56,103,1778984184
10118,17,Jits_Phase_5,3,5,80,127,1778993632
10118,17,Jits_Phase_5,0,1,48,51,1779424812
10118,17,Jits_Phase_5,1,5,56,103,1779433904
10118,17,Jits_Phase_5,2,5,80,127,1779463652
10118,17,Jits_Phase_5,3,5,63,98,1779473848
10118,17,Jits_Phase_5,0,1,48,64,1779930472
10118,17,Jits_Phase_5,1,5,63,98,1779973660
10118,17,Jits_Phase_5,2,5,56,103,1779983856
10118,17,Jits_Phase_5,3,5,80,127,1780004164
10118,17,Jits_Phase_5,0,5,56,103,1780403744
10118,17,Jits_Phase_5,1,1,48,55,1780453020
10118,17,Jits_Phase_5,2,5,63,98,1780464052
10118,17,Jits_Phase_5,3,5,80,127,1780467340
10118,17,Jits_Phase_5,0,5,80,127,1780923876
10118,17,Jits_Phase_5,1,5,56,103,1780934144
10118,17,Jits_Phase_5,2,1,48,57,1780935188
10118,17,Jits_Phase_5,3,5,63,98,1781003592
10118,17,Jits_Phase_5,0,5,80,127,1781414252
10118,17,Jits_Phase_5,1,1,48,58,1781448480
10118,17,Jits_Phase_5,2,5,56,103,1781483948
10118,17,Jits_Phase_5,3,5,63,98,1781494144
10118,17,Jits_Phase_5,0,1,48,49,1781942340
10118,17,Jits_Phase_5,1,5,63,98,1781953972
10118,17,Jits_Phase_5,2,5,56,103,1781964240
10118,17,Jits_Phase_5,3,5,80,127,1781983800
10118,17,Jits_Phase_5,0,1,48,54,1782399352
10118,17,Jits_Phase_5,1,5,80,127,1782403652
10118,17,Jits_Phase_5,2,5,63,98,1782463844
10118,17,Jits_Phase_5,3,5,56,103,1782503840
10118,17,Jits_Phase_5,0,1,48,54,1782922868
10118,17,Jits_Phase_5,1,5,56,103,1782944092
10118,17,Jits_Phase_5,2,5,63,98,1782954360
10118,17,Jits_Phase_5,3,5,80,127,1782994224
10118,17,Jits_Phase_5,0,5,56,103,1783403808
10118,17,Jits_Phase_5,1,1,48,58,1783424536
10118,17,Jits_Phase_5,2,5,80,127,1783433772
10118,17,Jits_Phase_5,3,5,63,98,1783483848
10118,17,Jits_Phase_5,0,1,48,53,1783876716
10118,17,Jits_Phase_5,1,5,56,103,1783943644
10118,17,Jits_Phase_5,2,5,63,98,1783983740
10118,17,Jits_Phase_5,3,5,80,127,1783986956
10118,17,Jits_Phase_5,0,5,56,103,1784444368
10118,17,Jits_Phase_5,1,5,63,98,1784453592
10118,17,Jits_Phase_5,2,1,48,51,1784463904
10118,17,Jits_Phase_5,3,5,80,127,1784474040
10118,17,Jits_Phase_5,0,1,48,48,1784890672
10118,17,Jits_Phase_5,1,5,56,103,1784903960
10118,17,Jits_Phase_5,2,5,80,127,1784907104
10118,17,Jits_Phase_5,3,5,63,98,1784943900
10118,17,Jits_Phase_5,0,1,48,47,1785368908
10118,17,Jits_Phase_5,1,5,63,98,1785443636
10118,17,Jits_Phase_5,2,5,56,103,1785474344
10118,17,Jits_Phase_5,3,5,80,127,1785493828
10118,17,Jits_Phase_5,0,1,48,40,1785904404
10118,17,Jits_Phase_5,1,5,80,127,1785913644
10118,17,Jits_Phase_5,2,5,56,103,1785923840
10118,17,Jits_Phase_5,3,5,63,98,1785934184
10118,17,Jits_Phase_5,0,1,48,55,1786362640
10118,17,Jits_Phase_5,1,5,56,103,1786413684
10118,17,Jits_Phase_5,2,5,80,127,1786454372
10118,17,Jits_Phase_5,3,5,63,98,1786483956
10118,17,Jits_Phase_5,0,1,48,56,1786873852
10118,17,Jits_Phase_5,1,5,63,98,1786924520
10118,17,Jits_Phase_5,2,5,80,127,1786933820
10118,17,Jits_Phase_5,3,5,56,103,1786943792
10118,17,Jits_Phase_5,0,1,48,59,1787408880
10118,17,Jits_Phase_5,1,5,56,103,1787413856
10118,17,Jits_Phase_5,2,5,63,98,1787483760
10118,17,Jits_Phase_5,3,5,80,127,1787493732
10118,17,Jits_Phase_5,0,1,48,54,1787908404
10118,17,Jits_Phase_5,1,5,80,127,1787923868
10118,17,Jits_Phase_5,2,5,56,103,1787933988
10118,17,Jits_Phase_5,3,5,63,98,1787984336
10118,17,Jits_Phase_5,0,1,48,56,1788405604
10118,17,Jits_Phase_5,1,5,80,127,1788433728
10118,17,Jits_Phase_5,2,5,56,103,1788494268
10118,17,Jits_Phase_5,3,5,63,98,1788523776
10118,17,Jits_Phase_5,0,5,56,103,1788933860
10118,17,Jits_Phase_5,1,5,80,127,1788936776
10118,17,Jits_Phase_5,2,5,63,98,1788973568
10118,17,Jits_Phase_5,3,1,48,58,1788981252
10118,17,Jits_Phase_5,0,1,48,58,1789430424
10118,17,Jits_Phase_5,1,5,56,103,1789463948
10118,17,Jits_Phase_5,2,5,63,98,1789493848
10118,17,Jits_Phase_5,3,5,80,127,1789503820
10118,17,Jits_Phase_5,0,1,48,51,1789959696
10118,17,Jits_Phase_5,1,5,63,98,1789973740
10118,17,Jits_Phase_5,2,5,80,127,1789984084
10118,17,Jits_Phase_5,3,5,56,103,1789994428
10118,17,Jits_Phase_5,0,5,80,127,1790424572
10118,17,Jits_Phase_5,1,1,48,55,1790437352
10118,17,Jits_Phase_5,2,5,56,103,1790473568
10118,17,Jits_Phase_5,3,5,63,98,1790476708
10118,17,Jits_Phase_5,0,1,48,57,1790933660
10118,17,Jits_Phase_5,1,5,56,103,1790953912
10118,17,Jits_Phase_5,2,5,80,127,1790974296
10118,17,Jits_Phase_5,3,5,63,98,1790983744
10118,17,Jits_Phase_5,0,1,48,51,1791404568
10118,17,Jits_Phase_5,1,5,63,98,1791433960
10118,17,Jits_Phase_5,2,5,56,103,1791463708
10118,17,Jits_Phase_5,3,5,80,127,1791484316
10118,17,Jits_Phase_5,0,1,48,48,1791927236
10118,17,Jits_Phase_5,1,5,56,103,1791944120
10118,17,Jits_Phase_5,2,5,80,127,1791954688
10118,17,Jits_Phase_5,3,5,63,98,1792024056
10118,17,Jits_Phase_5,0,1,48,49,1792424196
10118,17,Jits_Phase_5,1,5,63,98,1792433760
10118,17,Jits_Phase_5,2,5,80,127,1792473548
10118,17,Jits_Phase_5,3,5,56,103,1792514680
10118,17,Jits_Phase_5,0,1,48,55,1792914952
10118,17,Jits_Phase_5,1,5,56,103,1792943768
10118,17,Jits_Phase_5,2,5,63,98,1792953668
10118,17,Jits_Phase_5,3,5,80,127,1792974052
10118,17,Jits_Phase_5,0,1,48,52,1793412456
10118,17,Jits_Phase_5,1,5,63,98,1793484344
10118,17,Jits_Phase_5,2,5,80,127,1793503684
10118,17,Jits_Phase_5,3,5,56,103,1793524276
10118,17,Jits_Phase_5,0,5,56,103,1793923620
10118,17,Jits_Phase_5,1,1,48,50,1793946220
10118,17,Jits_Phase_5,2,5,80,127,1794004480
10118,17,Jits_Phase_5,3,5,63,98,1794013632
10118,17,Jits_Phase_5,0,1,48,45,1794406500
10118,17,Jits_Phase_5,1,5,80,127,1794464136
10118,17,Jits_Phase_5,2,5,63,98,1794474580
10118,17,Jits_Phase_5,3,5,56,103,1794504032
10118,17,Jits_Phase_5,0,1,48,45,1794914632
10118,17,Jits_Phase_5,1,5,63,98,1794923796
10118,17,Jits_Phase_5,2,5,80,127,1794963808
10118,17,Jits_Phase_5,3,5,56,103,1795024204
10118,17,Jits_Phase_5,0,1,48,47,1795423220
10118,17,Jits_Phase_5,1,5,63,98,1795433732
10118,17,Jits_Phase_5,2,5,56,103,1795484008
10118,17,Jits_Phase_5,3,5,80,127,1795513704
10118,17,Jits_Phase_5,0,5,80,127,1795933788
10118,17,Jits_Phase_5,1,5,63,98,1795943836
10118,17,Jits_Phase_5,2,1,48,51,1795948004
10118,17,Jits_Phase_5,3,5,56,103,1796013532
10118,17,Jits_Phase_5,0,1,48,51,1796422212
10118,17,Jits_Phase_5,1,5,80,127,1796493708
10118,17,Jits_Phase_5,2,5,56,103,1796504052
10118,17,Jits_Phase_5,3,5,63,98,1796507120
10118,17,Jits_Phase_5,0,5,56,103,1796933976
10118,17,Jits_Phase_5,1,5,80,127,1796953608
10118,17,Jits_Phase_5,2,5,63,98,1796963732
10118,17,Jits_Phase_5,3,1,48,52,1796971656
10118,17,Jits_Phase_5,0,5,63,98,1797443928
10118,17,Jits_Phase_5,1,1,48,53,1797477012
10118,17,Jits_Phase_5,2,5,56,103,1797483860
10118,17,Jits_Phase_5,3,5,80,127,1797504468
10118,17,Jits_Phase_5,0,1,48,50,1797941164
10118,17,Jits_Phase_5,1,5,63,98,1797943676
10118,17,Jits_Phase_5,2,5,56,103,1798004212
10118,17,Jits_Phase_5,3,5,80,127,1798007276
10118,17,Jits_Phase_5,0,5,56,103,1798403568
10118,17,Jits_Phase_5,1,5,80,127,1798423876
10118,17,Jits_Phase_5,2,1,48,46,1798450440
10118,17,Jits_Phase_5,3,5,63,98,1798463880
10118,17,Jits_Phase_5,0,1,48,52,1798900212
10118,17,Jits_Phase_5,1,5,56,103,1798933812
10118,17,Jits_Phase_5,2,5,63,98,1798954496
10118,17,Jits_Phase_5,3,5,80,127,1798963496
10118,17,Jits_Phase_5,0,1,48,49,1799386928
10118,17,Jits_Phase_5,1,5,80,127,1799403964
10118,17,Jits_Phase_5,2,5,56,103,1799433716
10118,17,Jits_Phase_5,3,5,63,98,1799473500
10118,17,Jits_Phase_5,0,1,48,51,1799893276
10118,17,Jits_Phase_5,1,5,80,127,1799913900
10118,17,Jits_Phase_5,2,5,56,103,1799934432
10118,17,Jits_Phase_5,3,5,63,98,1799993832
10118,17,Jits_Phase_5,0,1,48,46,1800398556
10118,17,Jits_Phase_5,1,5,56,103,1800423764
10118,17,Jits_Phase_5,2,5,80,127,1800444448
10118,17,Jits_Phase_5,3,5,63,98,1800503772
10118,17,Jits_Phase_5,0,5,80,127,1800904040
10118,17,Jits_Phase_5,1,1,48,45,1800914680
10118,17,Jits_Phase_5,2,5,56,103,1800915948
10118,17,Jits_Phase_5,3,5,63,98,1800954164
10118,17,Jits_Phase_5,0,5,63,98,1801403728
10118,17,Jits_Phase_5,1,1,48,48,1801409460
10118,17,Jits_Phase_5,2,5,56,103,1801443804
10118,17,Jits_Phase_5,3,5,80,127,1801446944
10118,17,Jits_Phase_5,0,1,48,47,1801890284
10118,17,Jits_Phase_5,1,5,63,98,1801923984
10118,17,Jits_Phase_5,2,5,80,127,1801963772
10118,17,Jits_Phase_5,3,5,56,103,1801993580
10118,17,Jits_Phase_5,0,1,48,46,1802401568
10118,17,Jits_Phase_5,1,5,56,103,1802413472
10118,17,Jits_Phase_5,2,5,63,98,1802423816
10118,17,Jits_Phase_5,3,5,80,127,1802454460
10118,17,Jits_Phase_5,0,1,48,48,1802893160
10118,17,Jits_Phase_5,1,5,80,127,1802903972
10118,17,Jits_Phase_5,2,5,63,98,1802973528
10118,17,Jits_Phase_5,3,5,56,103,1802983872
10118,17,Jits_Phase_5,0,5,63,98,1803403580
10118,17,Jits_Phase_5,1,1,48,47,1803421748
10118,17,Jits_Phase_5,2,5,56,103,1803474620
10118,17,Jits_Phase_5,3,5,80,127,1803483472
10118,17,Jits_Phase_5,0,5,63,98,1803884000
10118,17,Jits_Phase_5,1,5,56,103,1803904608
10118,17,Jits_Phase_5,2,1,48,43,1803926536
10118,17,Jits_Phase_5,3,5,80,127,1803944388
10118,17,Jits_Phase_5,0,5,56,103,1804364268
10118,17,Jits_Phase_5,1,5,63,98,1804374540
10118,17,Jits_Phase_5,2,1,48,45,1804408296
10118,17,Jits_Phase_5,3,5,80,127,1804454468
10118,17,Jits_Phase_5,0,5,63,98,1804853544
10118,17,Jits_Phase_5,1,1,48,43,1804881976
10118,17,Jits_Phase_5,2,5,56,103,1804884480
10118,17,Jits_Phase_5,3,5,80,127,1804924492
10118,17,Jits_Phase_5,0,1,48,44,1805322468
10118,17,Jits_Phase_5,1,5,56,103,1805354552
10118,17,Jits_Phase_5,2,5,63,98,1805394416
10118,17,Jits_Phase_5,3,5,80,127,1805434260
10118,17,Jits_Phase_5,0,1,48,52,1805789012
10118,17,Jits_Phase_5,1,5,80,127,1805854000
10118,17,Jits_Phase_5,2,5,56,103,1805934004
10118,17,Jits_Phase_5,3,5,63,98,1805944348
10118,17,Jits_Phase_5,0,1,48,50,1806324656
10118,17,Jits_Phase_5,1,5,56,103,1806393760
10118,17,Jits_Phase_5,2,5,63,98,1806396676
10118,17,Jits_Phase_5,3,5,80,127,1806403952
10118,17,Jits_Phase_5,0,1,48,41,1806837804
10118,17,Jits_Phase_5,1,5,56,103,1806913952
10118,17,Jits_Phase_5,2,5,63,98,1806935296
10118,17,Jits_Phase_5,3,5,80,127,1806943620
10118,17,Jits_Phase_5,0,1,48,41,1807366328
10118,17,Jits_Phase_5,1,5,63,98,1807373548
10118,17,Jits_Phase_5,2,5,80,127,1807383892
10118,17,Jits_Phase_5,3,5,56,103,1807404500
10118,17,Jits_Phase_5,0,5,63,98,1807874424
10118,17,Jits_Phase_5,1,1,48,38,1807885564
10118,17,Jits_Phase_5,2,5,56,103,1807954432
10118,17,Jits_Phase_5,3,5,80,127,1807957496
10118,17,Jits_Phase_5,0,1,48,43,1808360188
10118,17,Jits_Phase_5,1,5,63,98,1808374084
10118,17,Jits_Phase_5,2,5,56,103,1808393720
10118,17,Jits_Phase_5,3,5,80,127,1808424512
10118,17,Jits_Phase_5,0,1,48,32,1808862648
10118,17,Jits_Phase_5,1,5,56,103,1808873832
10118,17,Jits_Phase_5,2,5,63,98,1808894440
10118,17,Jits_Phase_5,3,5,80,127,1808903516
10118,17,Jits_Phase_5,0,1,48,43,1809380664
10118,17,Jits_Phase_5,1,5,56,103,1809413440
10118,17,Jits_Phase_5,2,5,63,98,1809444308
10118,17,Jits_Phase_5,3,5,80,127,1809447520
10118,17,Jits_Phase_5,0,5,56,103,1809864188
10118,17,Jits_Phase_5,1,1,48,30,1809884244
10118,17,Jits_Phase_5,2,5,63,98,1809903968
10118,17,Jits_Phase_5,3,5,80,127,1809964284
10118,17,Jits_Phase_5,0,1,48,45,1810299452
10118,17,Jits_Phase_5,1,5,56,103,1810384320
10118,17,Jits_Phase_5,2,5,63,98,1810393528
10118,17,Jits_Phase_5,3,5,80,127,1810453768
10118,17,Jits_Phase_5,0,1,48,44,1810881564
10118,17,Jits_Phase_5,1,5,56,103,1810883920
10118,17,Jits_Phase_5,2,5,80,127,1810904456
10118,17,Jits_Phase_5,3,5,63,98,1810934348
10118,17,Jits_Phase_5,0,5,80,127,1811383600
10118,17,Jits_Phase_5,1,5,56,103,1811394240
10118,17,Jits_Phase_5,2,1,48,48,1811403960
10118,17,Jits_Phase_5,3,5,63,98,1811414472
10118,17,Jits_Phase_5,0,5,63,98,1811874416
10118,17,Jits_Phase_5,1,1,48,43,1811901456
10118,17,Jits_Phase_5,2,5,80,127,1811954304
10118,17,Jits_Phase_5,3,5,56,103,1811964352
10118,17,Jits_Phase_5,0,1,48,44,1812326716
10118,17,Jits_Phase_5,1,5,80,127,1812463932
10118,17,Jits_Phase_5,2,5,56,103,1812483416
10118,17,Jits_Phase_5,3,5,63,98,1812486484
10118,17,Jits_Phase_5,0,1,48,49,1812953580
10118,17,Jits_Phase_5,1,5,63,98,1812954940
10118,17,Jits_Phase_5,2,5,80,127,1812957908
10118,17,Jits_Phase_5,3,5,56,103,1813013812
10118,17,Jits_Phase_5,0,5,56,103,1813433620
10118,17,Jits_Phase_5,1,5,80,127,1813443816
10118,17,Jits_Phase_5,2,5,63,98,1813483752
10118,17,Jits_Phase_5,3,1,48,38,1813499004
10118,17,Jits_Phase_5,0,5,56,103,1813914024
10118,17,Jits_Phase_5,1,1,48,35,1813960988
10118,17,Jits_Phase_5,2,5,63,98,1813974360
10118,17,Jits_Phase_5,3,5,80,127,1813983584
10118,17,Jits_Phase_5,0,1,48,44,1814407388
10118,17,Jits_Phase_5,1,5,63,98,1814423824
10118,17,Jits_Phase_5,2,5,80,127,1814463788
10118,17,Jits_Phase_5,3,5,56,103,1814503932
10118,17,Jits_Phase_5,0,5,56,103,1814923652
10118,17,Jits_Phase_5,1,1,48,45,1814949096
10118,17,Jits_Phase_5,2,5,63,98,1815003384
10118,17,Jits_Phase_5,3,5,80,127,1815006680
10118,17,Jits_Phase_5,0,1,48,39,1815428468
10118,17,Jits_Phase_5,1,5,80,127,1815483812
10118,17,Jits_Phase_5,2,5,56,103,1815513332
10118,17,Jits_Phase_5,3,5,63,98,1815516404
10118,17,Jits_Phase_5,0,5,56,103,1815943528
10118,17,Jits_Phase_5,1,5,80,127,1815964284
10118,17,Jits_Phase_5,2,1,48,35,1815994780
10118,17,Jits_Phase_5,3,5,63,98,1816004092
10118,17,Jits_Phase_5,0,5,80,127,1816423740
10118,17,Jits_Phase_5,1,1,48,41,1816430296
10118,17,Jits_Phase_5,2,5,63,98,1816444416
10118,17,Jits_Phase_5,3,5,56,103,1816503556
10118,17,Jits_Phase_5,0,5,63,98,1816933768
10118,17,Jits_Phase_5,1,5,56,103,1816943964
10118,17,Jits_Phase_5,2,1,48,43,1816973156
10118,17,Jits_Phase_5,3,5,80,127,1816994380
10118,17,Jits_Phase_5,0,5,56,103,1817424452
10118,17,Jits_Phase_5,1,5,63,98,1817443788
10118,17,Jits_Phase_5,2,5,80,127,1817454132
10118,17,Jits_Phase_5,3,1,48,47,1817455100
10118,17,Jits_Phase_5,0,5,56,103,1817913724
10118,17,Jits_Phase_5,1,5,63,98,1817916644
10118,17,Jits_Phase_5,2,5,80,127,1817934480
10118,17,Jits_Phase_5,3,1,48,44,1817941116
10118,17,Jits_Phase_5,0,1,48,40,1818419052
10118,17,Jits_Phase_5,1,5,63,98,1818454300
10118,17,Jits_Phase_5,2,5,56,103,1818484196
10118,17,Jits_Phase_5,3,5,80,127,1818513708
10118,17,Jits_Phase_5,0,5,80,127,1818914276
10118,17,Jits_Phase_5,1,1,48,46,1818927436
10118,17,Jits_Phase_5,2,5,56,103,1819004400
10118,17,Jits_Phase_5,3,5,63,98,1819007540
10118,17,Jits_Phase_5,0,5,56,103,1819413808
10118,17,Jits_Phase_5,1,5,80,127,1819416948
10118,17,Jits_Phase_5,2,1,48,39,1819439248
10118,17,Jits_Phase_5,3,5,63,98,1819493888
10118,17,Jits_Phase_5,0,5,80,127,1819913560
10118,17,Jits_Phase_5,1,5,63,98,1819973952
10118,17,Jits_Phase_5,2,1,48,39,1819991536
10118,17,Jits_Phase_5,3,5,56,103,1820003840
10118,17,Jits_Phase_5,0,5,63,98,1820414300
10118,17,Jits_Phase_5,1,5,80,127,1820423600
10118,17,Jits_Phase_5,2,1,48,49,1820458480
10118,17,Jits_Phase_5,3,5,56,103,1820494392
10118,17,Jits_Phase_5,0,1,48,48,1820889884
10118,17,Jits_Phase_5,1,5,56,103,1820973380
10118,17,Jits_Phase_5,2,5,80,127,1821004384
10118,17,Jits_Phase_5,3,5,63,98,1821054508
10118,17,Jits_Phase_5,0,1,48,48,1821538348
10118,17,Jits_Phase_5,1,5,63,98,1821573440
10118,17,Jits_Phase_5,2,5,56,103,1821604308
10118,17,Jits_Phase_5,3,5,80,127,1821607376
10118,17,Jits_Phase_5,0,5,63,98,1822074380
10118,17,Jits_Phase_5,1,1,48,46,1822081260
10118,17,Jits_Phase_5,2,5,80,127,1822093788
10118,17,Jits_Phase_5,3,5,56,103,1822104132
10118,17,Jits_Phase_5,0,5,56,103,1822584320
10118,17,Jits_Phase_5,1,5,63,98,1822587388
10118,17,Jits_Phase_5,2,5,80,127,1822603584
10118,17,Jits_Phase_5,3,1,48,49,1822618312
10118,17,Jits_Phase_5,0,5,56,103,1823033664
10118,17,Jits_Phase_5,1,5,63,98,1823044008
10118,17,Jits_Phase_5,2,5,80,127,1823073532
10118,17,Jits_Phase_5,3,1,48,43,1823111420
10118,17,Jits_Phase_5,0,1,48,48,1823543208
10118,17,Jits_Phase_5,1,5,63,98,1823553796
10118,17,Jits_Phase_5,2,5,80,127,1823574404
10118,17,Jits_Phase_5,3,5,56,103,1823614264
10118,17,Jits_Phase_5,0,1,48,46,1824072928
10118,17,Jits_Phase_5,1,5,56,103,1824084188
10118,17,Jits_Phase_5,2,5,63,98,1824124348
10118,17,Jits_Phase_5,3,5,80,127,1824127564
10118,17,Jits_Phase_5,0,5,80,127,1824523556
10118,17,Jits_Phase_5,1,5,56,103,1824563492
10118,17,Jits_Phase_5,2,1,48,39,1824574932
10118,17,Jits_Phase_5,3,5,63,98,1824613688
10118,17,Jits_Phase_5,0,1,48,46,1825067336
10118,17,Jits_Phase_5,1,5,56,103,1825083772
10118,17,Jits_Phase_5,2,5,80,127,1825094116
10118,17,Jits_Phase_5,3,5,63,98,1825123712
10118,17,Jits_Phase_5,0,1,48,43,1825533176
10118,17,Jits_Phase_5,1,5,56,103,1825534596
10118,17,Jits_Phase_5,2,5,80,127,1825574312
10118,17,Jits_Phase_5,3,5,63,98,1825624364
10118,17,Jits_Phase_5,0,5,56,103,1826034056
10118,17,Jits_Phase_5,1,1,48,38,1826057104
10118,17,Jits_Phase_5,2,5,80,127,1826074212
10118,17,Jits_Phase_5,3,5,63,98,1826124412
10118,17,Jits_Phase_5,0,5,80,127,1826523560
10118,17,Jits_Phase_5,1,1,48,35,1826543020
10118,17,Jits_Phase_5,2,5,63,98,1826604396
10118,17,Jits_Phase_5,3,5,56,103,1826613620
10118,17,Jits_Phase_5,0,5,80,127,1827074424
10118,17,Jits_Phase_5,1,5,56,103,1827083720
10118,17,Jits_Phase_5,2,5,63,98,1827104108
10118,17,Jits_Phase_5,3,1,48,46,1827132028
10118,17,Jits_Phase_5,0,5,63,98,1827544300
10118,17,Jits_Phase_5,1,1,48,43,1827594396
10118,17,Jits_Phase_5,2,5,56,103,1827614192
10118,17,Jits_Phase_5,3,5,80,127,1827617184
10118,17,Jits_Phase_5,0,5,80,127,1828034004
10118,17,Jits_Phase_5,1,5,63,98,1828084352
10118,17,Jits_Phase_5,2,1,48,46,1828109268
10118,17,Jits_Phase_5,3,5,56,103,1828124132
10118,17,Jits_Phase_5,0,1,48,48,1828553292
10118,17,Jits_Phase_5,1,5,63,98,1828573472
10118,17,Jits_Phase_5,2,5,56,103,1828613412
10118,17,Jits_Phase_5,3,5,80,127,1828623604
10118,17,Jits_Phase_5,0,1,48,48,1829061572
10118,17,Jits_Phase_5,1,5,63,98,1829074420
10118,17,Jits_Phase_5,2,5,56,103,1829093684
10118,17,Jits_Phase_5,3,5,80,127,1829114364
10118,17,Jits_Phase_5,0,5,80,127,1829534148
10118,17,Jits_Phase_5,1,5,56,103,1829544196
10118,17,Jits_Phase_5,2,5,63,98,1829563832
10118,17,Jits_Phase_5,3,1,48,47,1829587176
10118,17,Jits_Phase_5,0,1,48,49,1830052964
10118,17,Jits_Phase_5,1,5,63,98,1830063420
10118,17,Jits_Phase_5,2,5,56,103,1830104408
10118,17,Jits_Phase_5,3,5,80,127,1830134228
10118,17,Jits_Phase_5,0,5,56,103,1830524344
10118,17,Jits_Phase_5,1,5,63,98,1830554168
10118,17,Jits_Phase_5,2,5,80,127,1830583868
10118,17,Jits_Phase_5,3,1,48,55,1830611624
10118,17,Jits_Phase_5,0,5,80,127,1830944256
10118,17,Jits_Phase_5,1,5,56,103,1831013712
10118,17,Jits_Phase_5,2,5,63,98,1831016928
10118,17,Jits_Phase_5,3,1,48,45,1831067172
10118,17,Jits_Phase_5,0,5,56,103,1831454200
10118,17,Jits_Phase_5,1,5,63,98,1831504180
10118,17,Jits_Phase_5,2,5,80,127,1831533928
10118,17,Jits_Phase_5,3,1,48,53,1831545736
10118,17,Jits_Phase_5,0,5,63,98,1831934264
10118,17,Jits_Phase_5,1,5,80,127,1831937556
10118,17,Jits_Phase_5,2,1,48,45,1831950492
10118,17,Jits_Phase_5,3,5,56,103,1831993672
10118,17,Jits_Phase_5,0,5,56,103,1832463600
10118,17,Jits_Phase_5,1,5,80,127,1832474168
10118,17,Jits_Phase_5,2,1,48,44,1832482020
10118,17,Jits_Phase_5,3,5,63,98,1832524288
10118,17,Jits_Phase_5,0,5,63,98,1832933700
10118,17,Jits_Phase_5,1,5,56,103,1832944116
10118,17,Jits_Phase_5,2,1,48,39,1832966268
10118,17,Jits_Phase_5,3,5,80,127,1832973636
10118,17,Jits_Phase_5,0,1,48,37,1833436188
10118,17,Jits_Phase_5,1,5,63,98,1833464376
10118,17,Jits_Phase_5,2,5,80,127,1833467444
10118,17,Jits_Phase_5,3,5,56,103,1833493976
10118,17,Jits_Phase_5,0,1,48,42,1833953460
10118,17,Jits_Phase_5,1,5,63,98,1833984272
10118,17,Jits_Phase_5,2,5,56,103,1834003904
10118,17,Jits_Phase_5,3,5,80,127,1834006896
10118,17,Jits_Phase_5,0,5,63,98,1834444088
10118,17,Jits_Phase_5,1,1,48,48,1834468708
10118,17,Jits_Phase_5,2,5,56,103,1834514060
10118,17,Jits_Phase_5,3,5,80,127,1834534296
10118,17,Jits_Phase_5,0,5,56,103,1834933508
10118,17,Jits_Phase_5,1,5,63,98,1834944072
10118,17,Jits_Phase_5,2,1,48,44,1834960972
10118,17,Jits_Phase_5,3,5,80,127,1835034196
10118,17,Jits_Phase_5,0,1,48,46,1835425272
10118,17,Jits_Phase_5,1,5,56,103,1835453792
10118,17,Jits_Phase_5,2,5,80,127,1835493728
10118,17,Jits_Phase_5,3,5,63,98,1835504148
10118,17,Jits_Phase_5,0,1,48,46,1835957932
10118,17,Jits_Phase_5,1,5,56,103,1835974292
10118,17,Jits_Phase_5,2,5,63,98,1836003816
10118,17,Jits_Phase_5,3,5,80,127,1836034316
10118,17,Jits_Phase_5,0,5,80,127,1836433868
10118,17,Jits_Phase_5,1,1,48,47,1836441716
10118,17,Jits_Phase_5,2,5,63,98,1836473604
10118,17,Jits_Phase_5,3,5,56,103,1836494136
10118,17,Jits_Phase_5,0,1,48,48,1836964836
10118,17,Jits_Phase_5,1,5,56,103,1836973508
10118,17,Jits_Phase_5,2,5,80,127,1836994040
10118,17,Jits_Phase_5,3,5,63,98,1837014276
10118,17,Jits_Phase_5,0,5,63,98,1837443348
10118,17,Jits_Phase_5,1,5,56,103,1837453764
10118,17,Jits_Phase_5,2,1,48,44,1837465500
10118,17,Jits_Phase_5,3,5,80,127,1837514096
10118,17,Jits_Phase_5,0,5,56,103,1837944060
10118,17,Jits_Phase_5,1,1,48,44,1837972428
10118,17,Jits_Phase_5,2,5,63,98,1838013904
10118,17,Jits_Phase_5,3,5,80,127,1838034216
10118,17,Jits_Phase_5,0,5,56,103,1838444048
10118,17,Jits_Phase_5,1,1,48,43,1838462608
10118,17,Jits_Phase_5,2,5,63,98,1838473720
10118,17,Jits_Phase_5,3,5,80,127,1838513456
10118,17,Jits_Phase_5,0,5,63,98,1838934376
10118,17,Jits_Phase_5,1,1,48,39,1838949100
10118,17,Jits_Phase_5,2,5,56,103,1838983520
10118,17,Jits_Phase_5,3,5,80,127,1838993864
10118,17,Jits_Phase_5,0,1,48,42,1839411844
10118,17,Jits_Phase_5,1,5,56,103,1839484236
10118,17,Jits_Phase_5,2,5,63,98,1839533400
10118,17,Jits_Phase_5,3,5,80,127,1839543744
10118,17,Jits_Phase_5,0,5,56,103,1839954328
10118,17,Jits_Phase_5,1,5,63,98,1839963552
10118,17,Jits_Phase_5,2,1,48,42,1839999996
10118,17,Jits_Phase_5,3,5,80,127,1840044332
10118,17,Jits_Phase_5,0,9999,9999,9999,1755671632
10118,17,Jits_Phase_5,1,9999,9999,9999,1756171320
10118,17,Jits_Phase_5,2,9999,9999,9999,1756672064
10118,17,Jits_Phase_5,3,9999,9999,9999,1757182072
10118,17,Jits_Phase_5,4,9999,9999,9999,1757681748
10118,17,Jits_Phase_5,5,9999,9999,9999,1758181504
10118,17,Jits_Phase_5,6,9999,9999,9999,1758681176
10118,17,Jits_Phase_5,7,9999,9999,9999,1759181912
10118,17,Jits_Phase_5,8,9999,9999,9999,1759681664
10118,17,Jits_Phase_5,9,9999,9999,9999,1760181352
10118,17,Jits_Phase_5,10,9999,9999,9999,1760682064
10118,17,Jits_Phase_5,11,9999,9999,9999,1761181808
10118,17,Jits_Phase_5,12,9999,9999,9999,1761681480
10118,17,Jits_Phase_5,13,9999,9999,9999,1762181228
10118,17,Jits_Phase_5,14,9999,9999,9999,1762681928
10118,17,Jits_Phase_5,15,9999,9999,9999,1763181676
10118,17,Jits_Phase_5,16,9999,9999,9999,1763681348
10118,17,Jits_Phase_5,17,9999,9999,9999,1764182144
10118,17,Jits_Phase_5,18,9999,9999,9999,1764692076
10118,17,Jits_Phase_5,19,9999,9999,9999,1765191752
10118,17,Jits_Phase_5,20,9999,9999,9999,1765691496
10118,17,Jits_Phase_5,21,9999,9999,9999,1766191172
10118,17,Jits_Phase_5,22,9999,9999,9999,1766691904
10118,17,Jits_Phase_5,23,9999,9999,9999,1767191672
10118,17,Jits_Phase_5,24,9999,9999,9999,1767691348
10118,17,Jits_Phase_5,25,9999,9999,9999,1768192076
10118,17,Jits_Phase_5,26,9999,9999,9999,1768702016
10118,17,Jits_Phase_5,27,9999,9999,9999,1769201752
10118,17,Jits_Phase_5,28,9999,9999,9999,1769701444
10118,17,Jits_Phase_5,29,9999,9999,9999,1770201204
10118,17,Jits_Phase_5,30,9999,9999,9999,1770691676
10118,17,Jits_Phase_5,31,9999,9999,9999,1771191368
10118,17,Jits_Phase_5,32,9999,9999,9999,1771691128
10118,17,Jits_Phase_5,33,9999,9999,9999,1772191824
10118,17,Jits_Phase_5,34,9999,9999,9999,1772691516
10118,17,Jits_Phase_5,35,9999,9999,9999,1773191268
10118,17,Jits_Phase_5,36,9999,9999,9999,1773691976
10118,17,Jits_Phase_5,37,9999,9999,9999,1774191728
10118,17,Jits_Phase_5,38,9999,9999,9999,1774691404
10118,17,Jits_Phase_5,39,9999,9999,9999,1775191152
10118,17,Jits_Phase_5,40,9999,9999,9999,1775691876
10118,17,Jits_Phase_5,41,9999,9999,9999,1776191548
10118,17,Jits_Phase_5,42,9999,9999,9999,1776691296
10118,17,Jits_Phase_5,43,9999,9999,9999,1777192016
10118,17,Jits_Phase_5,44,9999,9999,9999,1777691764
10118,17,Jits_Phase_5,45,9999,9999,9999,1778191436
10118,17,Jits_Phase_5,46,9999,9999,9999,1778691180
10118,17,Jits_Phase_5,47,9999,9999,9999,1779191908
10118,17,Jits_Phase_5,48,9999,9999,9999,1779701848
10118,17,Jits_Phase_5,49,9999,9999,9999,1780201528
10118,17,Jits_Phase_5,50,9999,9999,9999,1780701268
10118,17,Jits_Phase_5,51,9999,9999,9999,1781202004
10118,17,Jits_Phase_5,52,9999,9999,9999,1781701696
10118,17,Jits_Phase_5,53,9999,9999,9999,1782201468
10118,17,Jits_Phase_5,54,9999,9999,9999,1782701144
10118,17,Jits_Phase_5,55,9999,9999,9999,1783201896
10118,17,Jits_Phase_5,56,9999,9999,9999,1783701564
10118,17,Jits_Phase_5,57,9999,9999,9999,1784201320
10118,17,Jits_Phase_5,58,9999,9999,9999,1784702040
10118,17,Jits_Phase_5,59,9999,9999,9999,1785201788
10118,17,Jits_Phase_5,60,9999,9999,9999,1785701468
10118,17,Jits_Phase_5,61,9999,9999,9999,1786201212
10118,17,Jits_Phase_5,62,9999,9999,9999,1786701932
10118,17,Jits_Phase_5,63,9999,9999,9999,1787201604
10118,17,Jits_Phase_5,64,9999,9999,9999,1787721808
10118,17,Jits_Phase_5,65,9999,9999,9999,1788221556
10118,17,Jits_Phase_5,66,9999,9999,9999,1788721232
10118,17,Jits_Phase_5,67,9999,9999,9999,1789222016
10118,17,Jits_Phase_5,68,9999,9999,9999,1789721708
10118,17,Jits_Phase_5,69,9999,9999,9999,1790221384
10118,17,Jits_Phase_5,70,9999,9999,9999,1790721120
10118,17,Jits_Phase_5,71,9999,9999,9999,1791221856
10118,17,Jits_Phase_5,72,9999,9999,9999,1791721532
10118,17,Jits_Phase_5,73,9999,9999,9999,1792221284
10118,17,Jits_Phase_5,74,9999,9999,9999,1792722008
10118,17,Jits_Phase_5,75,9999,9999,9999,1793221752
10118,17,Jits_Phase_5,76,9999,9999,9999,1793721432
10118,17,Jits_Phase_5,77,9999,9999,9999,1794221184
10118,17,Jits_Phase_5,78,9999,9999,9999,1794721892
10118,17,Jits_Phase_5,79,9999,9999,9999,1795221560
10118,17,Jits_Phase_5,80,9999,9999,9999,1795721308
10118,17,Jits_Phase_5,81,9999,9999,9999,1796201580
10118,17,Jits_Phase_5,82,9999,9999,9999,1796701268
10118,17,Jits_Phase_5,83,9999,9999,9999,1797201988
10118,17,Jits_Phase_5,84,9999,9999,9999,1797701756
10118,17,Jits_Phase_5,85,9999,9999,9999,1798201428
10118,17,Jits_Phase_5,86,9999,9999,9999,1798701172
10118,17,Jits_Phase_5,87,9999,9999,9999,1799201904
10118,17,Jits_Phase_5,88,9999,9999,9999,1799701576
10118,17,Jits_Phase_5,89,9999,9999,9999,1800201324
10118,17,Jits_Phase_5,90,9999,9999,9999,1800702048
10118,17,Jits_Phase_5,91,9999,9999,9999,1801201716
10118,17,Jits_Phase_5,92,9999,9999,9999,1801701468
10118,17,Jits_Phase_5,93,9999,9999,9999,1802201148
10118,17,Jits_Phase_5,94,9999,9999,9999,1802701940
10118,17,Jits_Phase_5,95,9999,9999,9999,1803201612
10118,17,Jits_Phase_5,96,9999,9999,9999,1803701360
10118,17,Jits_Phase_5,97,9999,9999,9999,1804151864
10118,17,Jits_Phase_5,98,9999,9999,9999,1804651608
10118,17,Jits_Phase_5,99,9999,9999,9999,1805151296
10118,17,Jits_Phase_5,100,9999,9999,9999,1805652088
10118,17,Jits_Phase_5,101,9999,9999,9999,1806151768
10118,17,Jits_Phase_5,102,9999,9999,9999,1806651504
10118,17,Jits_Phase_5,103,9999,9999,9999,1807151184
10118,17,Jits_Phase_5,104,9999,9999,9999,1807651904
10118,17,Jits_Phase_5,105,9999,9999,9999,1808151644
10118,17,Jits_Phase_5,106,9999,9999,9999,1808651320
10118,17,Jits_Phase_5,107,9999,9999,9999,1809152112
10118,17,Jits_Phase_5,108,9999,9999,9999,1809662044
10118,17,Jits_Phase_5,109,9999,9999,9999,1810161720
10118,17,Jits_Phase_5,110,9999,9999,9999,1810661480
10118,17,Jits_Phase_5,111,9999,9999,9999,1811161152
10118,17,Jits_Phase_5,112,9999,9999,9999,1811661948
10118,17,Jits_Phase_5,113,9999,9999,9999,1812161640
10118,17,Jits_Phase_5,114,9999,9999,9999,1812711508
10118,17,Jits_Phase_5,115,9999,9999,9999,1813211248
10118,17,Jits_Phase_5,116,9999,9999,9999,1813711968
10118,17,Jits_Phase_5,117,9999,9999,9999,1814211660
10118,17,Jits_Phase_5,118,9999,9999,9999,1814711424
10118,17,Jits_Phase_5,119,9999,9999,9999,1815211088
10118,17,Jits_Phase_5,120,9999,9999,9999,1815711796
10118,17,Jits_Phase_5,121,9999,9999,9999,1816211544
10118,17,Jits_Phase_5,122,9999,9999,9999,1816711232
10118,17,Jits_Phase_5,123,9999,9999,9999,1817211968
10118,17,Jits_Phase_5,124,9999,9999,9999,1817711716
10118,17,Jits_Phase_5,125,9999,9999,9999,1818211392
10118,17,Jits_Phase_5,126,9999,9999,9999,1818711160
10118,17,Jits_Phase_5,127,9999,9999,9999,1819211876
10118,17,Jits_Phase_5,128,9999,9999,9999,1819711552
10118,17,Jits_Phase_5,129,9999,9999,9999,1820211320
10118,17,Jits_Phase_5,130,9999,9999,9999,1820712056
10118,17,Jits_Phase_5,131,9999,9999,9999,1821312116
10118,17,Jits_Phase_5,132,9999,9999,9999,1821822044
10118,17,Jits_Phase_5,133,9999,9999,9999,1822321720
10118,17,Jits_Phase_5,134,9999,9999,9999,1822821464
10118,17,Jits_Phase_5,135,9999,9999,9999,1823321152
10118,17,Jits_Phase_5,136,9999,9999,9999,1823821892
10118,17,Jits_Phase_5,137,9999,9999,9999,1824321636
10118,17,Jits_Phase_5,138,9999,9999,9999,1824821312
10118,17,Jits_Phase_5,139,9999,9999,9999,1825322052
10118,17,Jits_Phase_5,140,9999,9999,9999,1825821800
10118,17,Jits_Phase_5,141,9999,9999,9999,1826321480
10118,17,Jits_Phase_5,142,9999,9999,9999,1826821244
10118,17,Jits_Phase_5,143,9999,9999,9999,1827321912
10118,17,Jits_Phase_5,144,9999,9999,9999,1827821672
10118,17,Jits_Phase_5,145,9999,9999,9999,1828321348
10118,17,Jits_Phase_5,146,9999,9999,9999,1828822092
10118,17,Jits_Phase_5,147,9999,9999,9999,1829332032
10118,17,Jits_Phase_5,148,9999,9999,9999,1829831752
10118,17,Jits_Phase_5,149,9999,9999,9999,1830331520
10118,17,Jits_Phase_5,150,9999,9999,9999,1830731836
10118,17,Jits_Phase_5,151,9999,9999,9999,1831231596
10118,17,Jits_Phase_5,152,9999,9999,9999,1831731284
10118,17,Jits_Phase_5,153,9999,9999,9999,1832232008
10118,17,Jits_Phase_5,154,9999,9999,9999,1832731764
10118,17,Jits_Phase_5,155,9999,9999,9999,1833231448
10118,17,Jits_Phase_5,156,9999,9999,9999,1833731192
10118,17,Jits_Phase_5,157,9999,9999,9999,1834231908
10118,17,Jits_Phase_5,158,9999,9999,9999,1834731584
10118,17,Jits_Phase_5,159,9999,9999,9999,1835231336
10118,17,Jits_Phase_5,160,9999,9999,9999,1835732076
10118,17,Jits_Phase_5,161,9999,9999,9999,1836231752
10118,17,Jits_Phase_5,162,9999,9999,9999,1836731500
10118,17,Jits_Phase_5,163,9999,9999,9999,1837231188
10118,17,Jits_Phase_5,164,9999,9999,9999,1837731956
10118,17,Jits_Phase_5,165,9999,9999,9999,1838231628
10118,17,Jits_Phase_5,166,9999,9999,9999,1838731320
10118,17,Jits_Phase_5,167,9999,9999,9999,1839232128
10118,17,Jits_Phase_5,168,9999,9999,9999,1839742072
10118,17,Jits_Phase_5,169,9999,9999,9999,1840241744
10119,15,Jits_Phase_8,0,5,56,103,1848759980
10119,15,Jits_Phase_8,1,5,63,98,1848762852
10119,15,Jits_Phase_8,2,5,80,127,1848765976
10119,15,Jits_Phase_8,0,1,48,29,1849334208
10119,15,Jits_Phase_8,1,5,56,103,1849560420
10119,15,Jits_Phase_8,2,5,63,98,1849563444
10119,15,Jits_Phase_8,3,5,80,127,1849566492
10119,15,Jits_Phase_8,0,1,48,59,1849981828
10119,15,Jits_Phase_8,1,5,80,127,1850299864
10119,15,Jits_Phase_8,2,5,63,98,1850390148
10119,15,Jits_Phase_8,3,5,56,103,1850400048
10119,15,Jits_Phase_8,4,1,48,27,1850655864
10119,15,Jits_Phase_8,0,5,56,103,1851119908
10119,15,Jits_Phase_8,1,5,63,98,1851130180
10119,15,Jits_Phase_8,2,1,48,46,1851193228
10119,15,Jits_Phase_8,3,5,80,127,1851220376
10119,15,Jits_Phase_8,0,1,48,51,1851790536
10119,15,Jits_Phase_8,1,5,63,98,1851889988
10119,15,Jits_Phase_8,2,5,80,127,1851919812
10119,15,Jits_Phase_8,3,5,56,103,1851949340
10119,15,Jits_Phase_8,0,1,48,50,1852627680
10119,15,Jits_Phase_8,1,5,56,103,1852689980
10119,15,Jits_Phase_8,2,5,80,127,1852790064
10119,15,Jits_Phase_8,3,5,63,98,1852840216
10119,15,Jits_Phase_8,0,5,56,103,1853489524
10119,15,Jits_Phase_8,1,5,80,127,1853539652
10119,15,Jits_Phase_8,2,1,48,47,1853566212
10119,15,Jits_Phase_8,3,5,63,98,1853579804
10119,15,Jits_Phase_8,0,1,48,49,1854283264
10119,15,Jits_Phase_8,1,5,80,127,1854319928
10119,15,Jits_Phase_8,2,5,63,98,1854349828
10119,15,Jits_Phase_8,3,5,56,103,1854420340
10119,15,Jits_Phase_8,0,1,48,53,1855105344
10119,15,Jits_Phase_8,1,5,63,98,1855149380
10119,15,Jits_Phase_8,2,5,56,103,1855180104
10119,15,Jits_Phase_8,3,5,80,127,1855239508
10119,15,Jits_Phase_8,0,5,56,103,1855889932
10119,15,Jits_Phase_8,1,5,80,127,1855892924
10119,15,Jits_Phase_8,2,1,48,53,1855922296
10119,15,Jits_Phase_8,3,5,63,98,1856009820
10119,15,Jits_Phase_8,0,1,48,51,1856690440
10119,15,Jits_Phase_8,1,5,56,103,1856770328
10119,15,Jits_Phase_8,2,5,80,127,1856810252
10119,15,Jits_Phase_8,3,5,63,98,1856819772
10119,15,Jits_Phase_8,0,5,56,103,1857530236
10119,15,Jits_Phase_8,1,1,48,52,1857544068
10119,15,Jits_Phase_8,2,5,80,127,1857549792
10119,15,Jits_Phase_8,3,5,63,98,1857629736
10119,15,Jits_Phase_8,0,5,80,127,1858319824
10119,15,Jits_Phase_8,1,1,48,54,1858383032
10119,15,Jits_Phase_8,2,5,56,103,1858419992
10119,15,Jits_Phase_8,3,5,63,98,1858430264
10119,15,Jits_Phase_8,0,5,63,98,1859089860
10119,15,Jits_Phase_8,1,5,80,127,1859150176
10119,15,Jits_Phase_8,2,5,56,103,1859160892
10119,15,Jits_Phase_8,3,1,48,59,1859243668
10119,15,Jits_Phase_8,0,5,56,103,1859889912
10119,15,Jits_Phase_8,1,5,63,98,1859960192
10119,15,Jits_Phase_8,2,5,80,127,1859963628
10119,15,Jits_Phase_8,3,1,48,50,1859970876
10119,15,Jits_Phase_8,0,1,48,46,1860714960
10119,15,Jits_Phase_8,1,5,63,98,1860719860
10119,15,Jits_Phase_8,2,5,56,103,1860770212
10119,15,Jits_Phase_8,3,5,80,127,1860773424
10119,15,Jits_Phase_8,0,5,56,103,1861479876
10119,15,Jits_Phase_8,1,5,80,127,1861483020
10119,15,Jits_Phase_8,2,1,48,49,1861484060
10119,15,Jits_Phase_8,3,5,63,98,1861569880
10119,15,Jits_Phase_8,0,1,48,47,1862287232
10119,15,Jits_Phase_8,1,5,63,98,1862319588
10119,15,Jits_Phase_8,2,5,56,103,1862409860
10119,15,Jits_Phase_8,3,5,80,127,1862440580
10119,15,Jits_Phase_8,0,1,48,47,1863086428
10119,15,Jits_Phase_8,1,5,56,103,1863109988
10119,15,Jits_Phase_8,2,5,63,98,1863210300
10119,15,Jits_Phase_8,3,5,80,127,1863240120
10119,15,Jits_Phase_8,0,5,63,98,1863930212
10119,15,Jits_Phase_8,1,5,56,103,1863939436
10119,15,Jits_Phase_8,2,5,80,127,1864029712
10119,15,Jits_Phase_8,3,1,48,50,1864032156
10119,15,Jits_Phase_8,0,5,63,98,1864749528
10119,15,Jits_Phase_8,1,1,48,52,1864807480
10119,15,Jits_Phase_8,2,5,56,103,1864830288
10119,15,Jits_Phase_8,3,5,80,127,1864833504
10119,15,Jits_Phase_8,0,5,80,127,1865510244
10119,15,Jits_Phase_8,1,5,63,98,1865529880
10119,15,Jits_Phase_8,2,5,56,103,1865590120
10119,15,Jits_Phase_8,3,1,48,55,1865648556
10119,15,Jits_Phase_8,0,5,56,103,1866349800
10119,15,Jits_Phase_8,1,5,63,98,1866370704
10119,15,Jits_Phase_8,2,5,80,127,1866373920
10119,15,Jits_Phase_8,3,1,48,50,1866397416
10119,15,Jits_Phase_8,0,5,63,98,1867090300
10119,15,Jits_Phase_8,1,5,80,127,1867170096
10119,15,Jits_Phase_8,2,5,56,103,1867180836
10119,15,Jits_Phase_8,3,1,48,56,1867190632
10119,15,Jits_Phase_8,0,5,63,98,1867909684
10119,15,Jits_Phase_8,1,5,56,103,1867929920
10119,15,Jits_Phase_8,2,1,48,53,1867930884
10119,15,Jits_Phase_8,3,5,80,127,1867980136
10119,15,Jits_Phase_8,0,1,48,55,1868708064
10119,15,Jits_Phase_8,1,5,80,127,1868710180
10119,15,Jits_Phase_8,2,5,63,98,1868750120
10119,15,Jits_Phase_8,3,5,56,103,1868769604
10119,15,Jits_Phase_8,0,1,48,55,1869519352
10119,15,Jits_Phase_8,1,5,56,103,1869549796
10119,15,Jits_Phase_8,2,5,63,98,1869560216
10119,15,Jits_Phase_8,3,5,80,127,1869579628
10119,15,Jits_Phase_8,0,5,56,103,1870280108
10119,15,Jits_Phase_8,1,5,63,98,1870370016
10119,15,Jits_Phase_8,2,1,48,61,1870386392
10119,15,Jits_Phase_8,3,5,80,127,1870429724
10119,15,Jits_Phase_8,0,5,80,127,1871109768
10119,15,Jits_Phase_8,1,5,56,103,1871119668
10119,15,Jits_Phase_8,2,1,48,52,1871175448
10119,15,Jits_Phase_8,3,5,63,98,1871190612
10119,15,Jits_Phase_8,0,5,63,98,1871939884
10119,15,Jits_Phase_8,1,1,48,48,1871965476
10119,15,Jits_Phase_8,2,5,80,127,1872030160
10119,15,Jits_Phase_8,3,5,56,103,1872040604
10119,15,Jits_Phase_8,0,5,63,98,1872670120
10119,15,Jits_Phase_8,1,5,80,127,1872720324
10119,15,Jits_Phase_8,2,5,56,103,1872779740
10119,15,Jits_Phase_8,3,1,48,55,1872825732
10119,15,Jits_Phase_8,0,5,56,103,1873490404
10119,15,Jits_Phase_8,1,5,80,127,1873539636
10119,15,Jits_Phase_8,2,1,48,48,1873555412
10119,15,Jits_Phase_8,3,5,63,98,1873559864
10119,15,Jits_Phase_8,0,5,56,103,1874260584
10119,15,Jits_Phase_8,1,1,48,48,1874289556
10119,15,Jits_Phase_8,2,5,80,127,1874319696
10119,15,Jits_Phase_8,3,5,63,98,1874390656
10119,15,Jits_Phase_8,0,5,56,103,1875060128
10119,15,Jits_Phase_8,1,5,80,127,1875089732
10119,15,Jits_Phase_8,2,1,48,52,1875098776
10119,15,Jits_Phase_8,3,5,63,98,1875119644
10119,15,Jits_Phase_8,0,1,48,56,1875881316
10119,15,Jits_Phase_8,1,5,56,103,1875899772
10119,15,Jits_Phase_8,2,5,80,127,1875920232
10119,15,Jits_Phase_8,3,5,63,98,1875979708
10119,15,Jits_Phase_8,0,1,48,53,1876713512
10119,15,Jits_Phase_8,1,5,80,127,1876780520
10119,15,Jits_Phase_8,2,5,56,103,1876789668
10119,15,Jits_Phase_8,3,5,63,98,1876799864
10119,15,Jits_Phase_8,0,5,56,103,1877540136
10119,15,Jits_Phase_8,1,1,48,51,1877559140
10119,15,Jits_Phase_8,2,5,80,127,1877580288
10119,15,Jits_Phase_8,3,5,63,98,1877609888
10119,15,Jits_Phase_8,0,5,56,103,1878310392
10119,15,Jits_Phase_8,1,5,63,98,1878340068
10119,15,Jits_Phase_8,2,5,80,127,1878379932
10119,15,Jits_Phase_8,3,1,48,53,1878390024
10119,15,Jits_Phase_8,0,5,80,127,1879059820
10119,15,Jits_Phase_8,1,5,63,98,1879109948
10119,15,Jits_Phase_8,2,5,56,103,1879129512
10119,15,Jits_Phase_8,3,1,48,52,1879142520
10119,15,Jits_Phase_8,0,5,56,103,1879890456
10119,15,Jits_Phase_8,1,1,48,54,1879904660
10119,15,Jits_Phase_8,2,5,80,127,1879959908
10119,15,Jits_Phase_8,3,5,63,98,1880020600
10119,15,Jits_Phase_8,0,5,80,127,1880690008
10119,15,Jits_Phase_8,1,1,48,54,1880726088
10119,15,Jits_Phase_8,2,5,63,98,1880780088
10119,15,Jits_Phase_8,3,5,56,103,1880799796
10119,15,Jits_Phase_8,0,5,63,98,1881510708
10119,15,Jits_Phase_8,1,5,56,103,1881529676
10119,15,Jits_Phase_8,2,5,80,127,1881569760
10119,15,Jits_Phase_8,3,1,48,55,1881577612
10119,15,Jits_Phase_8,0,5,80,127,1882270064
10119,15,Jits_Phase_8,1,5,63,98,1882289504
10119,15,Jits_Phase_8,2,1,48,54,1882344464
10119,15,Jits_Phase_8,3,5,56,103,1882370408
10119,15,Jits_Phase_8,0,5,63,98,1883059672
10119,15,Jits_Phase_8,1,1,48,57,1883100180
10119,15,Jits_Phase_8,2,5,56,103,1883170172
10119,15,Jits_Phase_8,3,5,80,127,1883173240
10119,15,Jits_Phase_8,0,1,48,51,1883878284
10119,15,Jits_Phase_8,1,5,63,98,1883879792
10119,15,Jits_Phase_8,2,5,56,103,1883889988
10119,15,Jits_Phase_8,3,5,80,127,1883893052
10119,15,Jits_Phase_8,0,1,48,55,1884657940
10119,15,Jits_Phase_8,1,5,56,103,1884659980
10119,15,Jits_Phase_8,2,5,80,127,1884779920
10119,15,Jits_Phase_8,3,5,63,98,1884819708
10119,15,Jits_Phase_8,0,1,48,56,1885475516
10119,15,Jits_Phase_8,1,5,56,103,1885480416
10119,15,Jits_Phase_8,2,5,80,127,1885560288
10119,15,Jits_Phase_8,3,5,63,98,1885579684
10119,15,Jits_Phase_8,0,5,56,103,1886280184
10119,15,Jits_Phase_8,1,1,48,56,1886339424
10119,15,Jits_Phase_8,2,5,63,98,1886389588
10119,15,Jits_Phase_8,3,5,80,127,1886393176
10119,15,Jits_Phase_8,0,5,56,103,1887119584
10119,15,Jits_Phase_8,1,1,48,60,1887129076
10119,15,Jits_Phase_8,2,5,80,127,1887149280
10119,15,Jits_Phase_8,3,5,63,98,1887169884
10119,15,Jits_Phase_8,0,5,63,98,1887910612
10119,15,Jits_Phase_8,1,5,56,103,1887919392
10119,15,Jits_Phase_8,2,1,48,56,1887927292
10119,15,Jits_Phase_8,3,5,80,127,1887929804
10119,15,Jits_Phase_8,0,5,80,127,1888699732
10119,15,Jits_Phase_8,1,5,56,103,1888749936
10119,15,Jits_Phase_8,2,1,48,56,1888751872
10119,15,Jits_Phase_8,3,5,63,98,1888789864
10119,15,Jits_Phase_8,0,5,80,127,1889519956
10119,15,Jits_Phase_8,1,5,63,98,1889539516
10119,15,Jits_Phase_8,2,1,48,54,1889577016
10119,15,Jits_Phase_8,3,5,56,103,1889589708
10119,15,Jits_Phase_8,0,5,80,127,1890329916
10119,15,Jits_Phase_8,1,5,56,103,1890359592
10119,15,Jits_Phase_8,2,1,48,52,1890400772
10119,15,Jits_Phase_8,3,5,63,98,1890430460
10119,15,Jits_Phase_8,0,5,56,103,1891179816
10119,15,Jits_Phase_8,1,1,48,56,1891186448
10119,15,Jits_Phase_8,2,5,80,127,1891190228
10119,15,Jits_Phase_8,3,5,63,98,1891230016
10119,15,Jits_Phase_8,0,5,56,103,1891889464
10119,15,Jits_Phase_8,1,5,63,98,1891910292
10119,15,Jits_Phase_8,2,5,80,127,1891979600
10119,15,Jits_Phase_8,3,1,48,57,1892003392
10119,15,Jits_Phase_8,0,1,48,48,1892655176
10119,15,Jits_Phase_8,1,5,63,98,1892709676
10119,15,Jits_Phase_8,2,5,80,127,1892770276
10119,15,Jits_Phase_8,3,5,56,103,1892789564
10119,15,Jits_Phase_8,0,5,80,127,1893500372
10119,15,Jits_Phase_8,1,1,48,43,1893516676
10119,15,Jits_Phase_8,2,5,56,103,1893529820
10119,15,Jits_Phase_8,3,5,63,98,1893559668
10119,15,Jits_Phase_8,0,5,56,103,1894300292
10119,15,Jits_Phase_8,1,1,48,42,1894318208
10119,15,Jits_Phase_8,2,5,63,98,1894360404
10119,15,Jits_Phase_8,3,5,80,127,1894419728
10119,15,Jits_Phase_8,0,5,80,127,1895120320
10119,15,Jits_Phase_8,1,1,48,43,1895122256
10119,15,Jits_Phase_8,2,5,56,103,1895139800
10119,15,Jits_Phase_8,3,5,63,98,1895210300
10119,15,Jits_Phase_8,0,5,80,127,1895920240
10119,15,Jits_Phase_8,1,5,63,98,1895939428
10119,15,Jits_Phase_8,2,1,48,45,1895951840
10119,15,Jits_Phase_8,3,5,56,103,1895970440
10119,15,Jits_Phase_8,0,5,80,127,1896709448
10119,15,Jits_Phase_8,1,5,63,98,1896729984
10119,15,Jits_Phase_8,2,5,56,103,1896790444
10119,15,Jits_Phase_8,3,1,48,41,1896797232
10119,15,Jits_Phase_8,0,5,80,127,1897510264
10119,15,Jits_Phase_8,1,5,56,103,1897609688
10119,15,Jits_Phase_8,2,5,63,98,1897640212
10119,15,Jits_Phase_8,0,5,63,98,1898299744
10119,15,Jits_Phase_8,1,5,80,127,1898350020
10119,15,Jits_Phase_8,2,5,56,103,1898370480
10119,15,Jits_Phase_8,3,1,48,48,1898379448
10119,15,Jits_Phase_8,0,1,48,41,1899036296
10119,15,Jits_Phase_8,1,5,80,127,1899139408
10119,15,Jits_Phase_8,2,5,56,103,1899170352
10119,15,Jits_Phase_8,3,5,63,98,1899173668
10119,15,Jits_Phase_8,0,5,63,98,1899990600
10119,15,Jits_Phase_8,1,1,48,49,1899998072
10119,15,Jits_Phase_8,2,5,56,103,1900030384
10119,15,Jits_Phase_8,3,5,80,127,1900049648
10119,15,Jits_Phase_8,0,5,80,127,1900750284
10119,15,Jits_Phase_8,1,1,48,51,1900820012
10119,15,Jits_Phase_8,2,5,63,98,1900830000
10119,15,Jits_Phase_8,3,5,56,103,1900869936
10119,15,Jits_Phase_8,0,5,63,98,1901570512
10119,15,Jits_Phase_8,1,1,48,46,1901604792
10119,15,Jits_Phase_8,2,5,80,127,1901650304
10119,15,Jits_Phase_8,3,5,56,103,1901669864
10119,15,Jits_Phase_8,0,5,56,103,1902410060
10119,15,Jits_Phase_8,1,5,63,98,1902420556
10119,15,Jits_Phase_8,2,5,80,127,1902460416
10119,15,Jits_Phase_8,3,1,48,53,1902481668
10119,15,Jits_Phase_8,0,5,56,103,1903130116
10119,15,Jits_Phase_8,1,5,80,127,1903133184
10119,15,Jits_Phase_8,2,1,48,45,1903250488
10119,15,Jits_Phase_8,3,5,63,98,1903270384
10119,15,Jits_Phase_8,0,5,56,103,1903919396
10119,15,Jits_Phase_8,1,5,63,98,1904009532
10119,15,Jits_Phase_8,2,1,48,41,1904011916
10119,15,Jits_Phase_8,3,5,80,127,1904080200
10119,15,Jits_Phase_8,0,1,48,36,1904734420
10119,15,Jits_Phase_8,1,5,63,98,1904800376
10119,15,Jits_Phase_8,2,5,80,127,1904803592
10119,15,Jits_Phase_8,3,5,56,103,1904859356
10119,15,Jits_Phase_8,0,5,80,127,1905639724
10119,15,Jits_Phase_8,1,5,56,103,1905660184
10119,15,Jits_Phase_8,2,5,63,98,1905669484
10119,15,Jits_Phase_8,3,1,48,46,1905699720
10119,15,Jits_Phase_8,0,5,56,103,1906349376
10119,15,Jits_Phase_8,1,5,63,98,1906359644
10119,15,Jits_Phase_8,2,1,48,42,1906427036
10119,15,Jits_Phase_8,3,5,80,127,1906430364
10119,15,Jits_Phase_8,0,5,80,127,1907150120
10119,15,Jits_Phase_8,1,5,56,103,1907200472
10119,15,Jits_Phase_8,2,5,63,98,1907249548
10119,15,Jits_Phase_8,3,1,48,43,1907307740
10119,15,Jits_Phase_8,0,1,48,36,1907953756
10119,15,Jits_Phase_8,1,5,56,103,1908029904
10119,15,Jits_Phase_8,2,5,63,98,1908040248
10119,15,Jits_Phase_8,3,5,80,127,1908080172
10119,15,Jits_Phase_8,0,5,56,103,1908770188
10119,15,Jits_Phase_8,1,5,63,98,1908810352
10119,15,Jits_Phase_8,2,5,80,127,1908860252
10119,15,Jits_Phase_8,3,1,48,42,1908878812
10119,15,Jits_Phase_8,0,5,80,127,1909530180
10119,15,Jits_Phase_8,1,5,56,103,1909580160
10119,15,Jits_Phase_8,2,5,63,98,1909599496
10119,15,Jits_Phase_8,3,1,48,45,1909640968
10119,15,Jits_Phase_8,0,1,48,40,1910326616
10119,15,Jits_Phase_8,1,5,80,127,1910340060
10119,15,Jits_Phase_8,2,5,63,98,1910400228
10119,15,Jits_Phase_8,3,5,56,103,1910480328
10119,15,Jits_Phase_8,0,5,80,127,1911120200
10119,15,Jits_Phase_8,1,5,56,103,1911160136
10119,15,Jits_Phase_8,2,5,63,98,1911179700
10119,15,Jits_Phase_8,3,1,48,45,1911268476
10119,15,Jits_Phase_8,0,5,56,103,1911970088
10119,15,Jits_Phase_8,1,5,80,127,1911980532
10119,15,Jits_Phase_8,2,5,63,98,1912020248
10119,15,Jits_Phase_8,3,1,48,40,1912030264
10119,15,Jits_Phase_8,0,5,56,103,1912839640
10119,15,Jits_Phase_8,1,1,48,40,1912855568
10119,15,Jits_Phase_8,2,5,63,98,1912879496
10119,15,Jits_Phase_8,3,5,80,127,1912882860
10119,15,Jits_Phase_8,0,5,63,98,1913510248
10119,15,Jits_Phase_8,1,5,80,127,1913550260
10119,15,Jits_Phase_8,2,5,56,103,1913620088
10119,15,Jits_Phase_8,3,1,48,40,1913679772
10119,15,Jits_Phase_8,0,5,63,98,1914280268
10119,15,Jits_Phase_8,1,5,56,103,1914360212
10119,15,Jits_Phase_8,2,1,48,39,1914417432
10119,15,Jits_Phase_8,3,5,80,127,1914419472
10119,15,Jits_Phase_8,0,5,80,127,1915090212
10119,15,Jits_Phase_8,1,5,63,98,1915139516
10119,15,Jits_Phase_8,2,5,56,103,1915170088
10119,15,Jits_Phase_8,3,1,48,36,1915176128
10119,15,Jits_Phase_8,0,5,56,103,1915880088
10119,15,Jits_Phase_8,1,5,63,98,1915930068
10119,15,Jits_Phase_8,2,5,80,127,1915940188
10119,15,Jits_Phase_8,3,1,48,34,1916018828
10119,15,Jits_Phase_8,0,1,48,32,1916636960
10119,15,Jits_Phase_8,1,5,56,103,1916689968
10119,15,Jits_Phase_8,2,5,63,98,1916800316
10119,15,Jits_Phase_8,3,5,80,127,1916820024
10119,15,Jits_Phase_8,0,5,63,98,1917489512
10119,15,Jits_Phase_8,1,5,80,127,1917539716
10119,15,Jits_Phase_8,2,1,48,39,1917543280
10119,15,Jits_Phase_8,3,5,56,103,1917630012
10119,15,Jits_Phase_8,0,5,63,98,1918279980
10119,15,Jits_Phase_8,1,5,80,127,1918309880
10119,15,Jits_Phase_8,2,1,48,38,1918383444
10119,15,Jits_Phase_8,3,5,56,103,1918399952
10119,15,Jits_Phase_8,0,5,63,98,1919080036
10119,15,Jits_Phase_8,1,5,56,103,1919090008
10119,15,Jits_Phase_8,2,5,80,127,1919190352
10119,15,Jits_Phase_8,3,1,48,38,1919215644
10119,15,Jits_Phase_8,0,1,48,33,1919904100
10119,15,Jits_Phase_8,1,5,63,98,1919979900
10119,15,Jits_Phase_8,2,5,80,127,1920009712
10119,15,Jits_Phase_8,3,5,56,103,1920040288
10119,15,Jits_Phase_8,0,5,80,127,1920799984
10119,15,Jits_Phase_8,1,5,63,98,1920810328
10119,15,Jits_Phase_8,2,1,48,42,1920821692
10119,15,Jits_Phase_8,3,5,56,103,1920840148
10119,15,Jits_Phase_8,0,5,80,127,1921499596
10119,15,Jits_Phase_8,1,5,63,98,1921520280
10119,15,Jits_Phase_8,2,5,56,103,1921570184
10119,15,Jits_Phase_8,3,1,48,43,1921656744
10119,15,Jits_Phase_8,0,5,63,98,1922330156
10119,15,Jits_Phase_8,1,1,48,34,1922389644
10119,15,Jits_Phase_8,2,5,80,127,1922391216
10119,15,Jits_Phase_8,3,5,56,103,1922410028
10119,15,Jits_Phase_8,0,5,63,98,1923090132
10119,15,Jits_Phase_8,1,5,56,103,1923140188
10119,15,Jits_Phase_8,2,5,80,127,1923150232
10119,15,Jits_Phase_8,3,1,48,30,1923153352
10119,15,Jits_Phase_8,0,1,48,42,1923888884
10119,15,Jits_Phase_8,1,5,56,103,1923920224
10119,15,Jits_Phase_8,2,5,80,127,1923929524
10119,15,Jits_Phase_8,3,1,48,21,1923956592
10119,15,Jits_Phase_8,4,5,63,98,1924029992
10119,15,Jits_Phase_8,0,5,80,127,1924680012
10119,15,Jits_Phase_8,1,5,63,98,1924690284
10119,15,Jits_Phase_8,2,1,48,40,1924768696
10119,15,Jits_Phase_8,3,5,56,103,1924839988
10119,15,Jits_Phase_8,0,5,63,98,1925489896
10119,15,Jits_Phase_8,1,1,48,40,1925526724
10119,15,Jits_Phase_8,2,5,80,127,1925530052
10119,15,Jits_Phase_8,3,5,56,103,1925609944
10119,15,Jits_Phase_8,0,5,56,103,1926239680
10119,15,Jits_Phase_8,1,1,48,38,1926304228
10119,15,Jits_Phase_8,2,5,80,127,1926340092
10119,15,Jits_Phase_8,3,5,63,98,1926360328
10119,15,Jits_Phase_8,0,1,48,38,1927010656
10119,15,Jits_Phase_8,1,5,80,127,1927059980
10119,15,Jits_Phase_8,2,5,56,103,1927070176
10119,15,Jits_Phase_8,3,5,63,98,1927160316
10119,15,Jits_Phase_8,0,5,56,103,1927859548
10119,15,Jits_Phase_8,1,1,48,41,1927872932
10119,15,Jits_Phase_8,2,5,63,98,1927879928
10119,15,Jits_Phase_8,3,5,80,127,1927960016
10119,15,Jits_Phase_8,0,5,63,98,1928620436
10119,15,Jits_Phase_8,1,1,48,42,1928669036
10119,15,Jits_Phase_8,2,5,56,103,1928709592
10119,15,Jits_Phase_8,3,5,80,127,1928712732
10119,15,Jits_Phase_8,0,1,48,34,1929456860
10119,15,Jits_Phase_8,1,5,56,103,1929460040
10119,15,Jits_Phase_8,2,5,80,127,1929519608
10119,15,Jits_Phase_8,3,5,63,98,1929529876
10119,15,Jits_Phase_8,0,1,48,28,1930308560
10119,15,Jits_Phase_8,1,5,80,127,1930310144
10119,15,Jits_Phase_8,2,5,56,103,1930320340
10119,15,Jits_Phase_8,3,5,63,98,1930323332
10119,15,Jits_Phase_8,0,5,56,103,1931069820
10119,15,Jits_Phase_8,1,5,80,127,1931080016
10119,15,Jits_Phase_8,2,5,63,98,1931099428
10119,15,Jits_Phase_8,3,1,48,42,1931148476
10119,15,Jits_Phase_8,0,5,63,98,1931839996
10119,15,Jits_Phase_8,1,5,80,127,1931900164
10119,15,Jits_Phase_8,2,1,48,44,1931916088
10119,15,Jits_Phase_8,3,5,56,103,1931949336
10119,15,Jits_Phase_8,0,5,63,98,1932719428
10119,15,Jits_Phase_8,1,5,56,103,1932729996
10119,15,Jits_Phase_8,2,1,48,38,1932742628
10119,15,Jits_Phase_8,3,5,80,127,1932780040
10119,15,Jits_Phase_8,0,5,63,98,1933419968
10119,15,Jits_Phase_8,1,5,80,127,1933440356
10119,15,Jits_Phase_8,2,5,56,103,1933449800
10119,15,Jits_Phase_8,3,1,48,34,1933613184
10119,15,Jits_Phase_8,0,1,48,27,1934149860
10119,15,Jits_Phase_8,1,5,63,98,1934219860
10119,15,Jits_Phase_8,2,5,80,127,1934222924
10119,15,Jits_Phase_8,3,5,56,103,1934259656
10119,15,Jits_Phase_8,0,1,48,37,1935013152
10119,15,Jits_Phase_8,1,5,63,98,1935089976
10119,15,Jits_Phase_8,2,5,80,127,1935119860
10119,15,Jits_Phase_8,3,5,56,103,1935130056
10119,15,Jits_Phase_8,0,5,56,103,1935839916
10119,15,Jits_Phase_8,1,5,80,127,1935870196
10119,15,Jits_Phase_8,2,5,63,98,1935899944
10119,15,Jits_Phase_8,3,1,48,39,1935900908
10119,15,Jits_Phase_8,0,1,48,34,1936733908
10119,15,Jits_Phase_8,1,5,63,98,1936739932
10119,15,Jits_Phase_8,2,5,56,103,1936779868
10119,15,Jits_Phase_8,3,5,80,127,1936782784
10119,15,Jits_Phase_8,0,5,80,127,1937439976
10119,15,Jits_Phase_8,1,5,56,103,1937519920
10119,15,Jits_Phase_8,2,1,48,36,1937557192
10119,15,Jits_Phase_8,3,5,63,98,1937570112
10119,15,Jits_Phase_8,0,5,80,127,1938220344
10119,15,Jits_Phase_8,1,5,56,103,1938239980
10119,15,Jits_Phase_8,2,5,63,98,1938329960
10119,15,Jits_Phase_8,3,1,48,35,1938345908
10119,15,Jits_Phase_8,0,1,48,34,1939059896
10119,15,Jits_Phase_8,1,5,80,127,1939061308
10119,15,Jits_Phase_8,2,5,63,98,1939100052
10119,15,Jits_Phase_8,3,5,56,103,1939140012
10119,15,Jits_Phase_8,0,5,63,98,1939869996
10119,15,Jits_Phase_8,1,1,48,34,1939899892
10119,15,Jits_Phase_8,2,5,80,127,1939929432
10119,15,Jits_Phase_8,3,5,56,103,1939960304
10119,15,Jits_Phase_8,0,5,56,103,1940709700
10119,15,Jits_Phase_8,1,1,48,36,1940733568
10119,15,Jits_Phase_8,2,5,80,127,1940739516
10119,15,Jits_Phase_8,3,5,63,98,1940829572
10119,15,Jits_Phase_8,0,5,56,103,1941519656
10119,15,Jits_Phase_8,1,1,48,32,1941546592
10119,15,Jits_Phase_8,2,5,80,127,1941630756
10119,15,Jits_Phase_8,3,5,63,98,1941659896
10119,15,Jits_Phase_8,0,5,56,103,1942369856
10119,15,Jits_Phase_8,1,5,63,98,1942430172
10119,15,Jits_Phase_8,2,1,48,42,1942434864
10119,15,Jits_Phase_8,3,5,80,127,1942459840
10119,15,Jits_Phase_8,0,5,56,103,1943139788
10119,15,Jits_Phase_8,1,5,63,98,1943210320
10119,15,Jits_Phase_8,2,5,80,127,1943229880
10119,15,Jits_Phase_8,3,1,48,35,1943313752
10119,15,Jits_Phase_8,0,5,80,127,1943909672
10119,15,Jits_Phase_8,1,5,63,98,1943930132
10119,15,Jits_Phase_8,2,5,56,103,1943980504
10119,15,Jits_Phase_8,3,1,48,34,1944074716
10119,15,Jits_Phase_8,0,1,48,37,1944717264
10119,15,Jits_Phase_8,1,5,63,98,1944729964
10119,15,Jits_Phase_8,2,5,80,127,1944740112
10119,15,Jits_Phase_8,3,5,56,103,1944790312
10119,15,Jits_Phase_8,0,1,48,38,1945468936
10119,15,Jits_Phase_8,1,5,63,98,1945529744
10119,15,Jits_Phase_8,2,5,80,127,1945600456
10119,15,Jits_Phase_8,3,5,56,103,1945619944
10119,15,Jits_Phase_8,0,1,48,38,1946336364
10119,15,Jits_Phase_8,1,5,63,98,1946360144
10119,15,Jits_Phase_8,2,5,80,127,1946363584
10119,15,Jits_Phase_8,3,5,56,103,1946429896
10119,15,Jits_Phase_8,0,5,80,127,1947109772
10119,15,Jits_Phase_8,1,5,56,103,1947130156
10119,15,Jits_Phase_8,2,5,63,98,1947139380
10119,15,Jits_Phase_8,3,1,48,42,1947221756
10119,15,Jits_Phase_8,0,5,56,103,1947929992
10119,15,Jits_Phase_8,1,1,48,31,1947946516
10119,15,Jits_Phase_8,2,5,63,98,1948020044
10119,15,Jits_Phase_8,3,5,80,127,1948023256
10119,15,Jits_Phase_8,0,5,80,127,1948700088
10119,15,Jits_Phase_8,1,5,56,103,1948710284
10119,15,Jits_Phase_8,2,5,63,98,1948729696
10119,15,Jits_Phase_8,3,1,48,40,1948735208
10119,15,Jits_Phase_8,0,1,48,35,1949471644
10119,15,Jits_Phase_8,1,5,63,98,1949499992
10119,15,Jits_Phase_8,2,5,80,127,1949560088
10119,15,Jits_Phase_8,3,5,56,103,1949570936
10119,15,Jits_Phase_8,0,1,48,39,1950314400
10119,15,Jits_Phase_8,1,5,63,98,1950370104
10119,15,Jits_Phase_8,2,5,80,127,1950399804
10119,15,Jits_Phase_8,3,5,56,103,1950439724
10119,15,Jits_Phase_8,0,5,56,103,1951159632
10119,15,Jits_Phase_8,1,5,80,127,1951169904
10119,15,Jits_Phase_8,2,5,63,98,1951209768
10119,15,Jits_Phase_8,3,1,48,41,1951232436
10119,15,Jits_Phase_8,0,5,80,127,1951919548
10119,15,Jits_Phase_8,1,5,56,103,1952000392
10119,15,Jits_Phase_8,2,5,63,98,1952009916
10119,15,Jits_Phase_8,3,1,48,40,1952020004
10119,15,Jits_Phase_8,0,5,80,127,1952770568
10119,15,Jits_Phase_8,1,1,48,40,1952823884
10119,15,Jits_Phase_8,2,5,56,103,1952850212
10119,15,Jits_Phase_8,3,5,63,98,1952859436
10119,15,Jits_Phase_8,0,5,80,127,1953609980
10119,15,Jits_Phase_8,1,1,48,39,1953641196
10119,15,Jits_Phase_8,2,5,56,103,1953660400
10119,15,Jits_Phase_8,3,5,63,98,1953709508
10119,15,Jits_Phase_8,0,1,48,40,1954494992
10119,15,Jits_Phase_8,1,5,56,103,1954550164
10119,15,Jits_Phase_8,2,5,63,98,1954553156
10119,15,Jits_Phase_8,3,5,80,127,1954600200
10119,15,Jits_Phase_8,0,5,56,103,1955370456
10119,15,Jits_Phase_8,1,1,48,42,1955387896
10119,15,Jits_Phase_8,2,5,63,98,1955399976
10119,15,Jits_Phase_8,3,5,80,127,1955410172
10119,15,Jits_Phase_8,0,5,63,98,1956079952
10119,15,Jits_Phase_8,1,5,56,103,1956149560
10119,15,Jits_Phase_8,2,5,80,127,1956199760
10119,15,Jits_Phase_8,3,1,48,47,1956262756
10119,15,Jits_Phase_8,0,5,63,98,1956909604
10119,15,Jits_Phase_8,1,5,56,103,1956919652
10119,15,Jits_Phase_8,2,5,80,127,1956922716
10119,15,Jits_Phase_8,3,1,48,34,1957027888
10119,15,Jits_Phase_8,0,5,80,127,1957659976
10119,15,Jits_Phase_8,1,1,48,42,1957719688
10119,15,Jits_Phase_8,2,5,56,103,1957721332
10119,15,Jits_Phase_8,3,5,63,98,1957809620
10119,15,Jits_Phase_8,0,5,80,127,1958459824
10119,15,Jits_Phase_8,1,5,56,103,1958560072
10119,15,Jits_Phase_8,2,5,63,98,1958599960
10119,15,Jits_Phase_8,3,1,48,42,1958601824
10119,15,Jits_Phase_8,0,5,56,103,1959309648
10119,15,Jits_Phase_8,1,5,63,98,1959330108
10119,15,Jits_Phase_8,2,5,80,127,1959370048
10119,15,Jits_Phase_8,3,1,48,41,1959376380
10119,15,Jits_Phase_8,0,5,63,98,1960079580
10119,15,Jits_Phase_8,1,5,56,103,1960100212
10119,15,Jits_Phase_8,2,1,48,40,1960136364
10119,15,Jits_Phase_8,3,5,80,127,1960199776
10119,15,Jits_Phase_8,0,5,63,98,1960870220
10119,15,Jits_Phase_8,1,1,48,43,1960911472
10119,15,Jits_Phase_8,2,5,80,127,1960979828
10119,15,Jits_Phase_8,3,5,56,103,1961009636
10119,15,Jits_Phase_8,0,5,56,103,1961689612
10119,15,Jits_Phase_8,1,5,63,98,1961720112
10119,15,Jits_Phase_8,2,5,80,127,1961770384
10119,15,Jits_Phase_8,3,1,48,34,1961798984
10119,15,Jits_Phase_8,0,5,63,98,1962459632
10119,15,Jits_Phase_8,1,5,56,103,1962490500
10119,15,Jits_Phase_8,2,1,48,40,1962530184
10119,15,Jits_Phase_8,3,5,80,127,1962540620
10119,15,Jits_Phase_8,0,5,56,103,1963289876
10119,15,Jits_Phase_8,1,1,48,40,1963292544
10119,15,Jits_Phase_8,2,5,63,98,1963309432
10119,15,Jits_Phase_8,3,5,80,127,1963391676
10119,15,Jits_Phase_8,0,5,63,98,1964059980
10119,15,Jits_Phase_8,1,1,48,36,1964101456
10119,15,Jits_Phase_8,2,5,56,103,1964120436
10119,15,Jits_Phase_8,3,5,80,127,1964150188
10119,15,Jits_Phase_8,0,1,48,36,1964893636
10119,15,Jits_Phase_8,1,5,56,103,1964899660
10119,15,Jits_Phase_8,2,5,80,127,1964960052
10119,15,Jits_Phase_8,3,5,63,98,1964999976
10119,15,Jits_Phase_8,0,5,63,98,1965679924
10119,15,Jits_Phase_8,1,1,48,44,1965692556
10119,15,Jits_Phase_8,2,5,56,103,1965740556
10119,15,Jits_Phase_8,3,5,80,127,1965810072
10119,15,Jits_Phase_8,0,5,56,103,1966559576
10119,15,Jits_Phase_8,1,1,48,45,1966564336
10119,15,Jits_Phase_8,2,5,63,98,1966569764
10119,15,Jits_Phase_8,3,5,80,127,1966573204
10119,15,Jits_Phase_8,0,5,63,98,1967299932
10119,15,Jits_Phase_8,1,5,56,103,1967360616
10119,15,Jits_Phase_8,2,5,80,127,1967363460
10119,15,Jits_Phase_8,3,1,48,42,1967395720
10119,15,Jits_Phase_8,0,5,63,98,1968080348
10119,15,Jits_Phase_8,1,5,80,127,1968109800
10119,15,Jits_Phase_8,2,5,56,103,1968130408
10119,15,Jits_Phase_8,3,1,48,40,1968140872
10119,15,Jits_Phase_8,0,5,56,103,1968810568
10119,15,Jits_Phase_8,1,5,63,98,1968859500
10119,15,Jits_Phase_8,2,1,48,41,1968939660
10119,15,Jits_Phase_8,3,5,80,127,1968941156
10119,15,Jits_Phase_8,0,5,80,127,1969509636
10119,15,Jits_Phase_8,1,5,63,98,1969549648
10119,15,Jits_Phase_8,2,5,56,103,1969570280
10119,15,Jits_Phase_8,3,1,48,36,1969623144
10119,15,Jits_Phase_8,0,1,48,35,1970201476
10119,15,Jits_Phase_8,1,5,56,103,1970380352
10119,15,Jits_Phase_8,2,5,80,127,1970390400
10119,15,Jits_Phase_8,3,5,63,98,1970409812
10119,15,Jits_Phase_8,0,5,56,103,1971160432
10119,15,Jits_Phase_8,1,5,63,98,1971209664
10119,15,Jits_Phase_8,2,5,80,127,1971240532
10119,15,Jits_Phase_8,3,1,48,33,1971247336
10119,15,Jits_Phase_8,0,5,56,103,1971909864
10119,15,Jits_Phase_8,1,5,63,98,1971920508
10119,15,Jits_Phase_8,2,5,80,127,1971970408
10119,15,Jits_Phase_8,3,1,48,41,1971977040
10119,15,Jits_Phase_8,0,5,56,103,1972699508
10119,15,Jits_Phase_8,1,1,48,40,1972700564
10119,15,Jits_Phase_8,2,5,80,127,1972703612
10119,15,Jits_Phase_8,3,5,63,98,1972860556
10119,15,Jits_Phase_8,0,5,63,98,1973519720
10119,15,Jits_Phase_8,1,5,56,103,1973590376
10119,15,Jits_Phase_8,2,5,80,127,1973630536
10119,15,Jits_Phase_8,3,1,48,43,1973656424
10119,15,Jits_Phase_8,0,5,63,98,1974360388
10119,15,Jits_Phase_8,1,1,48,26,1974411384
10119,15,Jits_Phase_8,2,5,56,103,1974449564
10119,15,Jits_Phase_8,3,5,80,127,1974452556
10119,15,Jits_Phase_8,0,5,56,103,1975139612
10119,15,Jits_Phase_8,1,1,48,41,1975227412
10119,15,Jits_Phase_8,2,5,63,98,1975229840
10119,15,Jits_Phase_8,3,5,80,127,1975240260
10119,15,Jits_Phase_8,0,5,56,103,1975909720
10119,15,Jits_Phase_8,1,5,63,98,1975959924
10119,15,Jits_Phase_8,2,1,48,35,1975989768
10119,15,Jits_Phase_8,3,5,80,127,1975991180
10119,15,Jits_Phase_8,0,1,48,37,1976749124
10119,15,Jits_Phase_8,1,5,63,98,1976790424
10119,15,Jits_Phase_8,2,5,80,127,1976799572
10119,15,Jits_Phase_8,3,5,56,103,1976860168
10119,15,Jits_Phase_8,0,5,63,98,1977510476
10119,15,Jits_Phase_8,1,5,80,127,1977569596
10119,15,Jits_Phase_8,2,1,48,33,1977578568
10119,15,Jits_Phase_8,3,5,56,103,1977609604
10119,15,Jits_Phase_8,0,1,48,39,1978388804
10119,15,Jits_Phase_8,1,5,56,103,1978410324
10119,15,Jits_Phase_8,2,5,80,127,1978429888
10119,15,Jits_Phase_8,3,5,63,98,1978450420
10119,15,Jits_Phase_8,0,5,63,98,1979130444
10119,15,Jits_Phase_8,1,5,56,103,1979149560
10119,15,Jits_Phase_8,2,5,80,127,1979189500
10119,15,Jits_Phase_8,3,1,48,38,1979224380
10119,15,Jits_Phase_8,0,5,63,98,1979940464
10119,15,Jits_Phase_8,1,5,80,127,1979969768
10119,15,Jits_Phase_8,2,1,48,35,1979978588
10119,15,Jits_Phase_8,3,5,56,103,1979990372
10119,15,Jits_Phase_8,0,5,80,127,1980710256
10119,15,Jits_Phase_8,1,5,56,103,1980760456
10119,15,Jits_Phase_8,2,1,48,40,1980784176
10119,15,Jits_Phase_8,3,5,63,98,1980819792
10119,15,Jits_Phase_8,0,5,63,98,1981499836
10119,15,Jits_Phase_8,1,1,48,35,1981561024
10119,15,Jits_Phase_8,2,5,56,103,1981619436
10119,15,Jits_Phase_8,3,5,80,127,1981650228
10119,15,Jits_Phase_8,0,1,48,35,1982283156
10119,15,Jits_Phase_8,1,5,80,127,1982339376
10119,15,Jits_Phase_8,2,5,63,98,1982360136
10119,15,Jits_Phase_8,3,5,56,103,1982429528
10119,15,Jits_Phase_8,0,1,48,45,1983098728
10119,15,Jits_Phase_8,1,5,63,98,1983159616
10119,15,Jits_Phase_8,2,5,56,103,1983169960
10119,15,Jits_Phase_8,3,5,80,127,1983249812
10119,15,Jits_Phase_8,0,1,48,41,1983994260
10119,15,Jits_Phase_8,1,5,56,103,1984019764
10119,15,Jits_Phase_8,2,5,80,127,1984049588
10119,15,Jits_Phase_8,3,5,63,98,1984059636
10119,15,Jits_Phase_8,0,9999,9999,9999,1849157688
10119,15,Jits_Phase_8,1,9999,9999,9999,1849957460
10119,15,Jits_Phase_8,2,9999,9999,9999,1850757196
10119,15,Jits_Phase_8,3,9999,9999,9999,1851557980
10119,15,Jits_Phase_8,4,9999,9999,9999,1852357700
10119,15,Jits_Phase_8,5,9999,9999,9999,1853157460
10119,15,Jits_Phase_8,6,9999,9999,9999,1853957212
10119,15,Jits_Phase_8,7,9999,9999,9999,1854757960
10119,15,Jits_Phase_8,8,9999,9999,9999,1855557720
10119,15,Jits_Phase_8,9,9999,9999,9999,1856357464
10119,15,Jits_Phase_8,10,9999,9999,9999,1857157244
10119,15,Jits_Phase_8,11,9999,9999,9999,1857957976
10119,15,Jits_Phase_8,12,9999,9999,9999,1858757704
10119,15,Jits_Phase_8,13,9999,9999,9999,1859557472
10119,15,Jits_Phase_8,14,9999,9999,9999,1860357220
10119,15,Jits_Phase_8,15,9999,9999,9999,1861158004
10119,15,Jits_Phase_8,16,9999,9999,9999,1861957748
10119,15,Jits_Phase_8,17,9999,9999,9999,1862757452
10119,15,Jits_Phase_8,18,9999,9999,9999,1863557216
10119,15,Jits_Phase_8,19,9999,9999,9999,1864357948
10119,15,Jits_Phase_8,20,9999,9999,9999,1865157728
10119,15,Jits_Phase_8,21,9999,9999,9999,1865957480
10119,15,Jits_Phase_8,22,9999,9999,9999,1866757248
10119,15,Jits_Phase_8,23,9999,9999,9999,1867557988
10119,15,Jits_Phase_8,24,9999,9999,9999,1868357744
10119,15,Jits_Phase_8,25,9999,9999,9999,1869157472
10119,15,Jits_Phase_8,26,9999,9999,9999,1869957232
10119,15,Jits_Phase_8,27,9999,9999,9999,1870757968
10119,15,Jits_Phase_8,28,9999,9999,9999,1871557756
10119,15,Jits_Phase_8,29,9999,9999,9999,1872357464
10119,15,Jits_Phase_8,30,9999,9999,9999,1873137736
10119,15,Jits_Phase_8,31,9999,9999,9999,1873937496
10119,15,Jits_Phase_8,32,9999,9999,9999,1874737268
10119,15,Jits_Phase_8,33,9999,9999,9999,1875538004
10119,15,Jits_Phase_8,34,9999,9999,9999,1876337776
10119,15,Jits_Phase_8,35,9999,9999,9999,1877137468
10119,15,Jits_Phase_8,36,9999,9999,9999,1877937256
10119,15,Jits_Phase_8,37,9999,9999,9999,1878738004
10119,15,Jits_Phase_8,38,9999,9999,9999,1879537772
10119,15,Jits_Phase_8,39,9999,9999,9999,1880337472
10119,15,Jits_Phase_8,40,9999,9999,9999,1881137252
10119,15,Jits_Phase_8,41,9999,9999,9999,1881937996
10119,15,Jits_Phase_8,42,9999,9999,9999,1882737752
10119,15,Jits_Phase_8,43,9999,9999,9999,1883537516
10119,15,Jits_Phase_8,44,9999,9999,9999,1884337212
10119,15,Jits_Phase_8,45,9999,9999,9999,1885138020
10119,15,Jits_Phase_8,46,9999,9999,9999,1885937780
10119,15,Jits_Phase_8,47,9999,9999,9999,1886737532
10119,15,Jits_Phase_8,48,9999,9999,9999,1887557756
10119,15,Jits_Phase_8,49,9999,9999,9999,1888357452
10119,15,Jits_Phase_8,50,9999,9999,9999,1889157208
10119,15,Jits_Phase_8,51,9999,9999,9999,1889957976
10119,15,Jits_Phase_8,52,9999,9999,9999,1890757752
10119,15,Jits_Phase_8,53,9999,9999,9999,1891557456
10119,15,Jits_Phase_8,54,9999,9999,9999,1892357224
10119,15,Jits_Phase_8,55,9999,9999,9999,1893157968
10119,15,Jits_Phase_8,56,9999,9999,9999,1893957724
10119,15,Jits_Phase_8,57,9999,9999,9999,1894757496
10119,15,Jits_Phase_8,58,9999,9999,9999,1895557196
10119,15,Jits_Phase_8,59,9999,9999,9999,1896357964
10119,15,Jits_Phase_8,60,9999,9999,9999,1897157732
10119,15,Jits_Phase_8,61,9999,9999,9999,1897957456
10119,15,Jits_Phase_8,62,9999,9999,9999,1898757244
10119,15,Jits_Phase_8,63,9999,9999,9999,1899557964
10119,15,Jits_Phase_8,64,9999,9999,9999,1900397664
10119,15,Jits_Phase_8,65,9999,9999,9999,1901197428
10119,15,Jits_Phase_8,66,9999,9999,9999,1901997156
10119,15,Jits_Phase_8,67,9999,9999,9999,1902797892
10119,15,Jits_Phase_8,68,9999,9999,9999,1903597652
10119,15,Jits_Phase_8,69,9999,9999,9999,1904397432
10119,15,Jits_Phase_8,70,9999,9999,9999,1905197124
10119,15,Jits_Phase_8,71,9999,9999,9999,1905997936
10119,15,Jits_Phase_8,72,9999,9999,9999,1906797636
10119,15,Jits_Phase_8,73,9999,9999,9999,1907597408
10119,15,Jits_Phase_8,74,9999,9999,9999,1908397144
10119,15,Jits_Phase_8,75,9999,9999,9999,1909197952
10119,15,Jits_Phase_8,76,9999,9999,9999,1909997648
10119,15,Jits_Phase_8,77,9999,9999,9999,1910797424
10119,15,Jits_Phase_8,78,9999,9999,9999,1911597176
10119,15,Jits_Phase_8,79,9999,9999,9999,1912397924
10119,15,Jits_Phase_8,80,9999,9999,9999,1913197624
10119,15,Jits_Phase_8,81,9999,9999,9999,1913957464
10119,15,Jits_Phase_8,82,9999,9999,9999,1914757224
10119,15,Jits_Phase_8,83,9999,9999,9999,1915557976
10119,15,Jits_Phase_8,84,9999,9999,9999,1916357744
10119,15,Jits_Phase_8,85,9999,9999,9999,1917157444
10119,15,Jits_Phase_8,86,9999,9999,9999,1917957204
10119,15,Jits_Phase_8,87,9999,9999,9999,1918758008
10119,15,Jits_Phase_8,88,9999,9999,9999,1919557688
10119,15,Jits_Phase_8,89,9999,9999,9999,1920357456
10119,15,Jits_Phase_8,90,9999,9999,9999,1921157228
10119,15,Jits_Phase_8,91,9999,9999,9999,1921957996
10119,15,Jits_Phase_8,92,9999,9999,9999,1922757696
10119,15,Jits_Phase_8,93,9999,9999,9999,1923557448
10119,15,Jits_Phase_8,94,9999,9999,9999,1924357188
10119,15,Jits_Phase_8,95,9999,9999,9999,1925157964
10119,15,Jits_Phase_8,96,9999,9999,9999,1925957736
10119,15,Jits_Phase_8,97,9999,9999,9999,1926677560
10119,15,Jits_Phase_8,98,9999,9999,9999,1927477336
10119,15,Jits_Phase_8,99,9999,9999,9999,1928278144
10119,15,Jits_Phase_8,100,9999,9999,9999,1929088096
10119,15,Jits_Phase_8,101,9999,9999,9999,1929898068
10119,15,Jits_Phase_8,102,9999,9999,9999,1930697820
10119,15,Jits_Phase_8,103,9999,9999,9999,1931497580
10119,15,Jits_Phase_8,104,9999,9999,9999,1932297276
10119,15,Jits_Phase_8,105,9999,9999,9999,1933098092
10119,15,Jits_Phase_8,106,9999,9999,9999,1933897844
10119,15,Jits_Phase_8,107,9999,9999,9999,1934697580
10119,15,Jits_Phase_8,108,9999,9999,9999,1935497340
10119,15,Jits_Phase_8,109,9999,9999,9999,1936298092
10119,15,Jits_Phase_8,110,9999,9999,9999,1937097792
10119,15,Jits_Phase_8,111,9999,9999,9999,1937897552
10119,15,Jits_Phase_8,112,9999,9999,9999,1938697324
10119,15,Jits_Phase_8,113,9999,9999,9999,1939498068
10119,15,Jits_Phase_8,114,9999,9999,9999,1940377688
10119,15,Jits_Phase_8,115,9999,9999,9999,1941177464
10119,15,Jits_Phase_8,116,9999,9999,9999,1941977164
10119,15,Jits_Phase_8,117,9999,9999,9999,1942777964
10119,15,Jits_Phase_8,118,9999,9999,9999,1943577664
10119,15,Jits_Phase_8,119,9999,9999,9999,1944377436
10119,15,Jits_Phase_8,120,9999,9999,9999,1945177208
10119,15,Jits_Phase_8,121,9999,9999,9999,1945977936
10119,15,Jits_Phase_8,122,9999,9999,9999,1946777688
10119,15,Jits_Phase_8,123,9999,9999,9999,1947577456
10119,15,Jits_Phase_8,124,9999,9999,9999,1948377148
10119,15,Jits_Phase_8,125,9999,9999,9999,1949177960
10119,15,Jits_Phase_8,126,9999,9999,9999,1949977656
10119,15,Jits_Phase_8,127,9999,9999,9999,1950777416
10119,15,Jits_Phase_8,128,9999,9999,9999,1951577180
10119,15,Jits_Phase_8,129,9999,9999,9999,1952377928
10119,15,Jits_Phase_8,130,9999,9999,9999,1953177708
10119,15,Jits_Phase_8,131,9999,9999,9999,1954137152
10119,15,Jits_Phase_8,132,9999,9999,9999,1954937968
10119,15,Jits_Phase_8,133,9999,9999,9999,1955737664
10119,15,Jits_Phase_8,134,9999,9999,9999,1956537456
10119,15,Jits_Phase_8,135,9999,9999,9999,1957337204
10119,15,Jits_Phase_8,136,9999,9999,9999,1958137932
10119,15,Jits_Phase_8,137,9999,9999,9999,1958937712
10119,15,Jits_Phase_8,138,9999,9999,9999,1959737460
10119,15,Jits_Phase_8,139,9999,9999,9999,1960537156
10119,15,Jits_Phase_8,140,9999,9999,9999,1961337964
10119,15,Jits_Phase_8,141,9999,9999,9999,1962137720
10119,15,Jits_Phase_8,142,9999,9999,9999,1962937432
10119,15,Jits_Phase_8,143,9999,9999,9999,1963737192
10119,15,Jits_Phase_8,144,9999,9999,9999,1964537932
10119,15,Jits_Phase_8,145,9999,9999,9999,1965337668
10119,15,Jits_Phase_8,146,9999,9999,9999,1966137428
10119,15,Jits_Phase_8,147,9999,9999,9999,1966937184
10119,15,Jits_Phase_8,148,9999,9999,9999,1967737920
10119,15,Jits_Phase_8,149,9999,9999,9999,1968537676
10119,15,Jits_Phase_8,150,9999,9999,9999,1969177704
10119,15,Jits_Phase_8,151,9999,9999,9999,1969977472
10119,15,Jits_Phase_8,152,9999,9999,9999,1970777172
10119,15,Jits_Phase_8,153,9999,9999,9999,1971577980
10119,15,Jits_Phase_8,154,9999,9999,9999,1972377672
10119,15,Jits_Phase_8,155,9999,9999,9999,1973177452
10119,15,Jits_Phase_8,156,9999,9999,9999,1973977152
10119,15,Jits_Phase_8,157,9999,9999,9999,1974777952
10119,15,Jits_Phase_8,158,9999,9999,9999,1975577712
10119,15,Jits_Phase_8,159,9999,9999,9999,1976377408
10119,15,Jits_Phase_8,160,9999,9999,9999,1977177188
10119,15,Jits_Phase_8,161,9999,9999,9999,1977977920
10119,15,Jits_Phase_8,162,9999,9999,9999,1978777688
10119,15,Jits_Phase_8,163,9999,9999,9999,1979577456
10119,15,Jits_Phase_8,164,9999,9999,9999,1980377144
10119,15,Jits_Phase_8,165,9999,9999,9999,1981177944
10119,15,Jits_Phase_8,166,9999,9999,9999,1981977720
10119,15,Jits_Phase_8,167,9999,9999,9999,1982777408
10119,15,Jits_Phase_8,168,9999,9999,9999,1983577168
10119,15,Jits_Phase_8,169,9999,9999,9999,1984377912
10120,5,ISIP_5,0,5,42,127,2070234356
10120,5,ISIP_5,1,5,42,127,2070735192
10120,5,ISIP_5,2,1,48,49,2071220288
10120,5,ISIP_5,3,5,42,127,2071235128
10120,5,ISIP_5,4,1,48,48,2071705744
10120,5,ISIP_5,5,5,42,127,2071734600
10120,5,ISIP_5,6,1,48,53,2072180156
10120,5,ISIP_5,7,5,42,127,2072235340
10120,5,ISIP_5,8,1,48,49,2072691292
10120,5,ISIP_5,9,5,42,127,2072735184
10120,5,ISIP_5,10,1,48,45,2073182008
10120,5,ISIP_5,11,5,42,127,2073235076
10120,5,ISIP_5,12,1,48,46,2073701152
10120,5,ISIP_5,13,5,42,127,2073734548
10120,5,ISIP_5,14,1,48,48,2074208704
10120,5,ISIP_5,15,5,42,127,2074235292
10120,5,ISIP_5,16,1,48,47,2074722460
10120,5,ISIP_5,17,5,42,127,2074735060
10120,5,ISIP_5,18,1,48,50,2075224324
10120,5,ISIP_5,19,5,42,127,2075234828
10120,5,ISIP_5,20,1,48,50,2075713996
10120,5,ISIP_5,21,5,42,127,2075735348
10120,5,ISIP_5,22,1,48,45,2076225432
10120,5,ISIP_5,23,5,42,127,2076235116
10120,5,ISIP_5,24,5,42,127,2076735044
10120,5,ISIP_5,25,1,48,48,2076738988
10120,5,ISIP_5,26,1,48,52,2077223180
10120,5,ISIP_5,27,5,42,127,2077234432
10120,5,ISIP_5,28,1,48,46,2077718384
10120,5,ISIP_5,29,5,42,127,2077735248
10120,5,ISIP_5,30,1,48,46,2078224136
10120,5,ISIP_5,31,5,42,127,2078235096
10120,5,ISIP_5,32,1,48,48,2078715828
10120,5,ISIP_5,33,5,42,127,2078734864
10120,5,ISIP_5,34,1,48,53,2079230040
10120,5,ISIP_5,35,5,42,127,2079234336
10120,5,ISIP_5,36,1,48,51,2079711336
10120,5,ISIP_5,37,5,42,127,2079735228
10120,5,ISIP_5,38,1,48,52,2080214392
10120,5,ISIP_5,39,5,42,127,2080235068
10120,5,ISIP_5,40,1,48,47,2080691196
10120,5,ISIP_5,41,5,42,127,2080734692
10120,5,ISIP_5,42,1,48,48,2081215580
10120,5,ISIP_5,43,5,42,127,2081235356
10120,5,ISIP_5,44,1,48,44,2081695672
10120,5,ISIP_5,45,5,42,127,2081734980
10120,5,ISIP_5,46,1,48,48,2082225440
10120,5,ISIP_5,47,5,42,127,2082234900
10120,5,ISIP_5,48,1,48,46,2082727900
10120,5,ISIP_5,49,5,42,127,2082734520
10120,5,ISIP_5,50,1,48,46,2083216276
10120,5,ISIP_5,51,5,42,127,2083235184
10120,5,ISIP_5,52,1,48,46,2083709688
10120,5,ISIP_5,53,5,42,127,2083734932
10120,5,ISIP_5,54,1,48,49,2084211856
10120,5,ISIP_5,55,5,42,127,2084234776
10120,5,ISIP_5,56,1,48,48,2084679988
10120,5,ISIP_5,57,5,42,127,2084735296
10120,5,ISIP_5,58,1,48,40,2085198824
10120,5,ISIP_5,59,5,42,127,2085235064
10120,5,ISIP_5,60,1,48,43,2085674660
10120,5,ISIP_5,61,5,42,127,2085734832
10120,5,ISIP_5,62,1,48,49,2086192312
10120,5,ISIP_5,63,5,42,127,2086234456
10120,5,ISIP_5,64,1,48,45,2086715188
10120,5,ISIP_5,65,5,42,127,2086735196
10120,5,ISIP_5,66,1,48,46,2087217876
10120,5,ISIP_5,67,5,42,127,2087234816
10120,5,ISIP_5,68,1,48,47,2087696780
10120,5,ISIP_5,69,5,42,127,2087734736
10120,5,ISIP_5,70,1,48,44,2088225872
10120,5,ISIP_5,71,5,42,127,2088235256
10120,5,ISIP_5,72,1,48,48,2088717640
10120,5,ISIP_5,73,5,42,127,2088735100
10120,5,ISIP_5,74,1,48,48,2089211200
10120,5,ISIP_5,75,5,42,127,2089234720
10120,5,ISIP_5,76,1,48,43,2089718300
10120,5,ISIP_5,77,5,42,127,2089734640
10120,5,ISIP_5,78,1,48,52,2090229288
10120,5,ISIP_5,79,1,48,46,2090713272
10120,5,ISIP_5,80,1,48,39,2091225752
10120,5,ISIP_5,81,1,48,46,2091708164
10120,5,ISIP_5,82,1,48,46,2092184944
10120,5,ISIP_5,83,1,48,42,2092697572
10120,5,ISIP_5,84,1,48,41,2093154028
10120,5,ISIP_5,85,1,48,42,2093646836
10120,5,ISIP_5,86,1,48,46,2094143460
10120,5,ISIP_5,87,1,48,38,2094603736
10120,5,ISIP_5,88,1,48,40,2095098784
10120,5,ISIP_5,89,1,48,42,2095571772
10120,5,ISIP_5,90,1,48,42,2096057704
10120,5,ISIP_5,91,1,48,47,2096549836
10120,5,ISIP_5,92,1,48,43,2097037088
10120,5,ISIP_5,93,1,48,40,2097517552
10120,5,ISIP_5,94,1,48,48,2098009840
10120,5,ISIP_5,95,1,48,45,2098481928
10120,5,ISIP_5,96,1,48,48,2098977432
10120,5,ISIP_5,97,1,48,43,2099464260
10120,5,ISIP_5,98,1,48,44,2099961032
10120,5,ISIP_5,99,1,48,40,2100413224
10120,5,ISIP_5,100,1,48,45,2100918076
10120,5,ISIP_5,101,1,48,50,2101409240
10120,5,ISIP_5,102,1,48,47,2101873828
10120,5,ISIP_5,103,1,48,48,2102365440
10120,5,ISIP_5,104,1,48,47,2102845380
10120,5,ISIP_5,105,1,48,48,2103348740
10120,5,ISIP_5,106,1,48,47,2103815816
10120,5,ISIP_5,107,1,48,43,2104285664
10120,5,ISIP_5,108,1,48,48,2104773088
10120,5,ISIP_5,109,1,48,51,2105274728
10120,5,ISIP_5,110,1,48,48,2105748436
10120,5,ISIP_5,111,1,48,53,2106228892
10120,5,ISIP_5,112,1,48,50,2106707336
10120,5,ISIP_5,113,1,48,46,2107187432
10120,5,ISIP_5,114,1,48,54,2107692584
10120,5,ISIP_5,115,1,48,51,2108153156
10120,5,ISIP_5,116,1,48,56,2108636088
10120,5,ISIP_5,117,1,48,52,2109132940
10120,5,ISIP_5,118,1,48,47,2109597028
10120,5,ISIP_5,119,1,48,48,2110093176
10120,5,ISIP_5,120,1,48,48,2110555616
10120,5,ISIP_5,121,1,48,48,2111048204
10120,5,ISIP_5,122,1,48,49,2111527620
10120,5,ISIP_5,123,1,48,42,2111997840
10120,5,ISIP_5,124,1,48,49,2112468736
10120,5,ISIP_5,125,1,48,50,2112953988
10120,5,ISIP_5,126,1,48,47,2113435732
10120,5,ISIP_5,127,1,48,45,2113908392
10120,5,ISIP_5,128,1,48,49,2114397836
10120,5,ISIP_5,129,1,48,47,2114915480
10120,5,ISIP_5,130,1,48,47,2115375452
10120,5,ISIP_5,131,1,48,47,2115876632
10120,5,ISIP_5,132,1,48,48,2116360396
10120,5,ISIP_5,133,1,48,46,2116841684
10120,5,ISIP_5,134,1,48,48,2117348484
10120,5,ISIP_5,135,1,48,46,2117836276
10120,5,ISIP_5,136,1,48,46,2118309788
10120,5,ISIP_5,137,1,48,50,2118803096
10120,5,ISIP_5,138,1,48,46,2119304956
10120,5,ISIP_5,139,1,48,49,2119779288
10120,5,ISIP_5,140,1,48,48,2120250184
10120,5,ISIP_5,141,1,48,45,2120730412
10120,5,ISIP_5,142,1,48,47,2121241260
10120,5,ISIP_5,143,1,48,41,2121687908
10120,5,ISIP_5,144,1,48,45,2122201584
10120,5,ISIP_5,145,1,48,49,2122694096
10120,5,ISIP_5,146,1,48,46,2123182792
10120,5,ISIP_5,147,1,48,45,2123666152
10120,5,ISIP_5,148,1,48,46,2124164124
10120,5,ISIP_5,149,1,48,47,2124634492
10120,5,ISIP_5,150,1,48,44,2125131792
10120,5,ISIP_5,151,1,48,45,2125626092
10120,5,ISIP_5,152,1,48,43,2126076788
10120,5,ISIP_5,153,1,48,46,2126557784
10120,5,ISIP_5,154,1,48,48,2127068988
10120,5,ISIP_5,155,1,48,45,2127555144
10120,5,ISIP_5,156,1,48,52,2128047804
10120,5,ISIP_5,157,1,48,50,2128520468
10120,5,ISIP_5,158,1,48,45,2129022028
10120,5,ISIP_5,159,1,48,46,2129524936
10120,5,ISIP_5,160,1,48,50,2129973464
10120,5,ISIP_5,161,1,48,48,2130460360
10120,5,ISIP_5,162,1,48,51,2130980844
10120,5,ISIP_5,163,1,48,49,2131458620
10120,5,ISIP_5,164,1,48,51,2131945748
10120,5,ISIP_5,165,1,48,47,2132417536
10120,5,ISIP_5,166,1,48,50,2132912220
10120,5,ISIP_5,167,1,48,49,2133376952
10120,5,ISIP_5,168,1,48,51,2133886588
10120,5,ISIP_5,169,1,48,48,2134359208
10120,5,ISIP_5,170,1,48,51,2134834436
10120,5,ISIP_5,171,1,48,53,2135312356
10120,5,ISIP_5,172,1,48,50,2135806144
10120,5,ISIP_5,173,1,48,48,2136274936
10120,5,ISIP_5,174,1,48,52,2136775156
10120,5,ISIP_5,175,1,48,51,2137283296
10120,5,ISIP_5,176,1,48,45,2137753720
10120,5,ISIP_5,177,1,48,50,2138240444
10120,5,ISIP_5,178,1,48,49,2138716412
10120,5,ISIP_5,179,1,48,46,2139190216
10120,5,ISIP_5,180,1,48,51,2139667392
10120,5,ISIP_5,181,1,48,49,2140158112
10120,5,ISIP_5,182,1,48,48,2140636856
10120,5,ISIP_5,183,1,48,51,2141115156
10120,5,ISIP_5,184,1,48,52,2141601836
10120,5,ISIP_5,185,1,48,55,2142071576
10120,5,ISIP_5,186,1,48,53,2142605604
10120,5,ISIP_5,187,1,48,48,2143080536
10120,5,ISIP_5,188,1,48,46,2143561596
10120,5,ISIP_5,189,1,48,45,2144043936
10120,5,ISIP_5,190,1,48,51,2144547892
10120,5,ISIP_5,191,1,48,51,2145007340
10120,5,ISIP_5,192,1,48,51,2145465068
10120,5,ISIP_5,193,1,48,54,2145955560
10120,5,ISIP_5,194,1,48,52,2146439892
10120,5,ISIP_5,195,1,48,48,2146910340
10120,5,ISIP_5,196,1,48,51,2147383244
10120,5,ISIP_5,197,1,48,53,2147868128
10120,5,ISIP_5,198,1,48,53,2148298184
10120,5,ISIP_5,199,1,48,51,2148795708
10120,5,ISIP_5,200,1,48,51,2149285300
10120,5,ISIP_5,201,1,48,47,2149753100
10120,5,ISIP_5,0,9999,9999,9999,2070232144
10120,5,ISIP_5,1,9999,9999,9999,2070732904
10120,5,ISIP_5,2,9999,9999,9999,2071232616
10120,5,ISIP_5,3,9999,9999,9999,2071732312
10120,5,ISIP_5,4,9999,9999,9999,2072233052
10120,5,ISIP_5,5,9999,9999,9999,2072732748
10120,5,ISIP_5,6,9999,9999,9999,2073232492
10120,5,ISIP_5,7,9999,9999,9999,2073732188
10120,5,ISIP_5,8,9999,9999,9999,2074232928
10120,5,ISIP_5,9,9999,9999,9999,2074732624
10120,5,ISIP_5,10,9999,9999,9999,2075232320
10120,5,ISIP_5,11,9999,9999,9999,2075733060
10120,5,ISIP_5,12,9999,9999,9999,2076232756
10120,5,ISIP_5,13,9999,9999,9999,2076732532
10120,5,ISIP_5,14,9999,9999,9999,2077232220
10120,5,ISIP_5,15,9999,9999,9999,2077732964
10120,5,ISIP_5,16,9999,9999,9999,2078232660
10120,5,ISIP_5,17,9999,9999,9999,2078732352
10120,5,ISIP_5,18,9999,9999,9999,2079232048
10120,5,ISIP_5,19,9999,9999,9999,2079732792
10120,5,ISIP_5,20,9999,9999,9999,2080232560
10120,5,ISIP_5,21,9999,9999,9999,2080732256
10120,5,ISIP_5,22,9999,9999,9999,2081232996
10120,5,ISIP_5,23,9999,9999,9999,2081732692
10120,5,ISIP_5,24,9999,9999,9999,2082232388
10120,5,ISIP_5,25,9999,9999,9999,2082732084
10120,5,ISIP_5,26,9999,9999,9999,2083232824
10120,5,ISIP_5,27,9999,9999,9999,2083732572
10120,5,ISIP_5,28,9999,9999,9999,2084232264
10120,5,ISIP_5,29,9999,9999,9999,2084733008
10120,5,ISIP_5,30,9999,9999,9999,2085232704
10120,5,ISIP_5,31,9999,9999,9999,2085732472
10120,5,ISIP_5,32,9999,9999,9999,2086232168
10120,5,ISIP_5,33,9999,9999,9999,2086732908
10120,5,ISIP_5,34,9999,9999,9999,2087232604
10120,5,ISIP_5,35,9999,9999,9999,2087732300
10120,5,ISIP_5,36,9999,9999,9999,2088233040
10120,5,ISIP_5,37,9999,9999,9999,2088732736
10120,5,ISIP_5,38,9999,9999,9999,2089232508
10120,5,ISIP_5,39,9999,9999,9999,2089732204
10120,5,ISIP_5,40,9999,9999,9999,2090232944
10120,5,ISIP_5,41,9999,9999,9999,2090732636
10120,5,ISIP_5,42,9999,9999,9999,2091232324
10120,5,ISIP_5,43,9999,9999,9999,2091733064
10120,5,ISIP_5,44,9999,9999,9999,2092232752
10120,5,ISIP_5,45,9999,9999,9999,2092732520
10120,5,ISIP_5,46,9999,9999,9999,2093232208
10120,5,ISIP_5,47,9999,9999,9999,2093732948
10120,5,ISIP_5,48,9999,9999,9999,2094232688
10120,5,ISIP_5,49,9999,9999,9999,2094732360
10120,5,ISIP_5,50,9999,9999,9999,2095232052
10120,5,ISIP_5,51,9999,9999,9999,2095732792
10120,5,ISIP_5,52,9999,9999,9999,2096232556
10120,5,ISIP_5,53,9999,9999,9999,2096732248
10120,5,ISIP_5,54,9999,9999,9999,2097232984
10120,5,ISIP_5,55,9999,9999,9999,2097732672
10120,5,ISIP_5,56,9999,9999,9999,2098232440
10120,5,ISIP_5,57,9999,9999,9999,2098732132
10120,5,ISIP_5,58,9999,9999,9999,2099232868
10120,5,ISIP_5,59,9999,9999,9999,2099732560
10120,5,ISIP_5,60,9999,9999,9999,2100232248
10120,5,ISIP_5,61,9999,9999,9999,2100732988
10120,5,ISIP_5,62,9999,9999,9999,2101232752
10120,5,ISIP_5,63,9999,9999,9999,2101732444
10120,5,ISIP_5,64,9999,9999,9999,2102232132
10120,5,ISIP_5,65,9999,9999,9999,2102732872
10120,5,ISIP_5,66,9999,9999,9999,2103232560
10120,5,ISIP_5,67,9999,9999,9999,2103732328
10120,5,ISIP_5,68,9999,9999,9999,2104233064
10120,5,ISIP_5,69,9999,9999,9999,2104732756
10120,5,ISIP_5,70,9999,9999,9999,2105232496
10120,5,ISIP_5,71,9999,9999,9999,2105732188
10120,5,ISIP_5,72,9999,9999,9999,2106232920
10120,5,ISIP_5,73,9999,9999,9999,2106732608
10120,5,ISIP_5,74,9999,9999,9999,2107232376
10120,5,ISIP_5,75,9999,9999,9999,2107733112
10120,5,ISIP_5,76,9999,9999,9999,2108232804
10120,5,ISIP_5,77,9999,9999,9999,2108732480
10120,5,ISIP_5,78,9999,9999,9999,2109232244
10120,5,ISIP_5,79,9999,9999,9999,2109732984
10120,5,ISIP_5,80,9999,9999,9999,2110232676
10120,5,ISIP_5,81,9999,9999,9999,2110732364
10120,5,ISIP_5,82,9999,9999,9999,2111232056
10120,5,ISIP_5,83,9999,9999,9999,2111732792
10120,5,ISIP_5,84,9999,9999,9999,2112232556
10120,5,ISIP_5,85,9999,9999,9999,2112732248
10120,5,ISIP_5,86,9999,9999,9999,2113232984
10120,5,ISIP_5,87,9999,9999,9999,2113732676
10120,5,ISIP_5,88,9999,9999,9999,2114232440
10120,5,ISIP_5,89,9999,9999,9999,2114732132
10120,5,ISIP_5,90,9999,9999,9999,2115232868
10120,5,ISIP_5,91,9999,9999,9999,2115732536
10120,5,ISIP_5,92,9999,9999,9999,2116232300
10120,5,ISIP_5,93,9999,9999,9999,2116733036
10120,5,ISIP_5,94,9999,9999,9999,2117232724
10120,5,ISIP_5,95,9999,9999,9999,2117732416
10120,5,ISIP_5,96,9999,9999,9999,2118232184
10120,5,ISIP_5,97,9999,9999,9999,2118732920
10120,5,ISIP_5,98,9999,9999,9999,2119232612
10120,5,ISIP_5,99,9999,9999,9999,2119732300
10120,5,ISIP_5,100,9999,9999,9999,2120233040
10120,5,ISIP_5,101,9999,9999,9999,2120732724
10120,5,ISIP_5,102,9999,9999,9999,2121232496
10120,5,ISIP_5,103,9999,9999,9999,2121732180
10120,5,ISIP_5,104,9999,9999,9999,2122232916
10120,5,ISIP_5,105,9999,9999,9999,2122732608
10120,5,ISIP_5,106,9999,9999,9999,2123232376
10120,5,ISIP_5,107,9999,9999,9999,2123733112
10120,5,ISIP_5,108,9999,9999,9999,2124232800
10120,5,ISIP_5,109,9999,9999,9999,2124732476
10120,5,ISIP_5,110,9999,9999,9999,2125232240
10120,5,ISIP_5,111,9999,9999,9999,2125732980
10120,5,ISIP_5,112,9999,9999,9999,2126232644
10120,5,ISIP_5,113,9999,9999,9999,2126732408
10120,5,ISIP_5,114,9999,9999,9999,2127232100
10120,5,ISIP_5,115,9999,9999,9999,2127732840
10120,5,ISIP_5,116,9999,9999,9999,2128232528
10120,5,ISIP_5,117,9999,9999,9999,2128732220
10120,5,ISIP_5,118,9999,9999,9999,2129232956
10120,5,ISIP_5,119,9999,9999,9999,2129732720
10120,5,ISIP_5,120,9999,9999,9999,2130232412
10120,5,ISIP_5,121,9999,9999,9999,2130732104
10120,5,ISIP_5,122,9999,9999,9999,2131232840
10120,5,ISIP_5,123,9999,9999,9999,2131732532
10120,5,ISIP_5,124,9999,9999,9999,2132232300
10120,5,ISIP_5,125,9999,9999,9999,2132733036
10120,5,ISIP_5,126,9999,9999,9999,2133232724
10120,5,ISIP_5,127,9999,9999,9999,2133732416
10120,5,ISIP_5,128,9999,9999,9999,2134232180
10120,5,ISIP_5,129,9999,9999,9999,2134732916
10120,5,ISIP_5,130,9999,9999,9999,2135232608
10120,5,ISIP_5,131,9999,9999,9999,2135732300
10120,5,ISIP_5,132,9999,9999,9999,2136233036
10120,5,ISIP_5,133,9999,9999,9999,2136732728
10120,5,ISIP_5,134,9999,9999,9999,2137232468
10120,5,ISIP_5,135,9999,9999,9999,2137732160
10120,5,ISIP_5,136,9999,9999,9999,2138232944
10120,5,ISIP_5,137,9999,9999,9999,2138732632
10120,5,ISIP_5,138,9999,9999,9999,2139232320
10120,5,ISIP_5,139,9999,9999,9999,2139733060
10120,5,ISIP_5,140,9999,9999,9999,2140232824
10120,5,ISIP_5,141,9999,9999,9999,2140732516
10120,5,ISIP_5,142,9999,9999,9999,2141232192
10120,5,ISIP_5,143,9999,9999,9999,2141732928
10120,5,ISIP_5,144,9999,9999,9999,2142232696
10120,5,ISIP_5,145,9999,9999,9999,2142732384
10120,5,ISIP_5,146,9999,9999,9999,2143232076
10120,5,ISIP_5,147,9999,9999,9999,2143732812
10120,5,ISIP_5,148,9999,9999,9999,2144232504
10120,5,ISIP_5,149,9999,9999,9999,2144732268
10120,5,ISIP_5,150,9999,9999,9999,2145233004
10120,5,ISIP_5,151,9999,9999,9999,2145732696
10120,5,ISIP_5,152,9999,9999,9999,2146232388
10120,5,ISIP_5,153,9999,9999,9999,2146732152
10120,5,ISIP_5,154,9999,9999,9999,2147232888
10120,5,ISIP_5,155,9999,9999,9999,2147732556
10120,5,ISIP_5,156,9999,9999,9999,2148232244
10120,5,ISIP_5,157,9999,9999,9999,2148732984
10120,5,ISIP_5,158,9999,9999,9999,2149232748
10120,5,ISIP_5,159,9999,9999,9999,2149732440
10121,3,ISIP_8,0,5,42,127,2181126644
10121,3,ISIP_8,1,5,42,127,2181927152
10121,3,ISIP_8,2,1,48,44,2182096344
10121,3,ISIP_8,3,5,42,127,2182727032
10121,3,ISIP_8,4,1,48,46,2182745932
10121,3,ISIP_8,5,1,48,50,2183515504
10121,3,ISIP_8,6,5,42,127,2183526684
10121,3,ISIP_8,7,1,48,46,2184274248
10121,3,ISIP_8,8,5,42,127,2184326564
10121,3,ISIP_8,9,1,48,43,2185074732
10121,3,ISIP_8,10,5,42,127,2185127220
10121,3,ISIP_8,11,1,48,40,2185875136
10121,3,ISIP_8,12,5,42,127,2185927028
10121,3,ISIP_8,13,1,48,44,2186710572
10121,3,ISIP_8,14,5,42,127,2186726688
10121,3,ISIP_8,15,1,48,34,2187495652
10121,3,ISIP_8,16,5,42,127,2187526572
10121,3,ISIP_8,17,1,48,44,2188311688
10121,3,ISIP_8,18,5,42,127,2188327500
10121,3,ISIP_8,19,1,48,48,2189117632
10121,3,ISIP_8,20,5,42,127,2189127164
10121,3,ISIP_8,21,5,42,127,2189926756
10121,3,ISIP_8,22,1,48,51,2189935256
10121,3,ISIP_8,23,5,42,127,2190726488
10121,3,ISIP_8,24,1,48,48,2190748780
10121,3,ISIP_8,25,5,42,127,2191527588
10121,3,ISIP_8,26,1,48,45,2191540288
10121,3,ISIP_8,27,1,48,45,2192324516
10121,3,ISIP_8,28,5,42,127,2192326944
10121,3,ISIP_8,29,1,48,43,2193115724
10121,3,ISIP_8,30,5,42,127,2193126676
10121,3,ISIP_8,31,1,48,44,2193909024
10121,3,ISIP_8,32,5,42,127,2193926560
10121,3,ISIP_8,33,5,42,127,2194727420
10121,3,ISIP_8,34,1,48,49,2194757020
10121,3,ISIP_8,35,5,42,127,2195526928
10121,3,ISIP_8,36,1,48,48,2195554436
10121,3,ISIP_8,37,5,42,127,2196326812
10121,3,ISIP_8,38,1,48,46,2196349600
10121,3,ISIP_8,39,5,42,127,2197126468
10121,3,ISIP_8,40,1,48,48,2197166268
10121,3,ISIP_8,41,5,42,127,2197927352
10121,3,ISIP_8,42,1,48,45,2197930396
10121,3,ISIP_8,43,5,42,127,2198726936
10121,3,ISIP_8,44,1,48,48,2198739108
10121,3,ISIP_8,45,5,42,127,2199526668
10121,3,ISIP_8,46,1,48,51,2199537116
10121,3,ISIP_8,47,1,48,51,2200303848
10121,3,ISIP_8,48,5,42,127,2200326468
10121,3,ISIP_8,49,1,48,45,2201117340
10121,3,ISIP_8,50,5,42,127,2201127472
10121,3,ISIP_8,51,1,48,47,2201869952
10121,3,ISIP_8,52,5,42,127,2201927056
10121,3,ISIP_8,53,1,48,40,2202675596
10121,3,ISIP_8,54,5,42,127,2202726640
10121,3,ISIP_8,55,5,42,127,2203526532
10121,3,ISIP_8,56,1,48,49,2203535932
10121,3,ISIP_8,57,1,48,44,2204317724
10121,3,ISIP_8,58,5,42,127,2204327252
10121,3,ISIP_8,59,1,48,45,2205102200
10121,3,ISIP_8,60,1,48,48,2205917488
10121,3,ISIP_8,61,1,48,47,2206695748
10121,3,ISIP_8,62,1,48,48,2207501536
10121,3,ISIP_8,63,1,48,44,2208305156
10121,3,ISIP_8,64,1,48,44,2209108620
10121,3,ISIP_8,65,1,48,45,2209901316
10121,3,ISIP_8,66,1,48,50,2210716256
10121,3,ISIP_8,67,1,48,48,2211484724
10121,3,ISIP_8,68,1,48,47,2212262384
10121,3,ISIP_8,69,1,48,47,2213059420
10121,3,ISIP_8,70,1,48,53,2213869624
10121,3,ISIP_8,71,1,48,48,2214644968
10121,3,ISIP_8,72,1,48,48,2215433552
10121,3,ISIP_8,73,1,48,45,2216207324
10121,3,ISIP_8,74,1,48,50,2216993220
10121,3,ISIP_8,75,1,48,47,2217790252
10121,3,ISIP_8,76,1,48,45,2218594992
10121,3,ISIP_8,77,1,48,45,2219386348
10121,3,ISIP_8,78,1,48,50,2220157500
10121,3,ISIP_8,79,1,48,47,2220968548
10121,3,ISIP_8,80,1,48,50,2221747184
10121,3,ISIP_8,81,1,48,49,2222516472
10121,3,ISIP_8,82,1,48,54,2223278356
10121,3,ISIP_8,83,1,48,54,2224078380
10121,3,ISIP_8,84,1,48,48,2224843856
10121,3,ISIP_8,85,1,48,50,2225619204
10121,3,ISIP_8,86,1,48,50,2226397912
10121,3,ISIP_8,87,1,48,44,2227168992
10121,3,ISIP_8,88,1,48,35,2227918608
10121,3,ISIP_8,89,1,48,43,2228695596
10121,3,ISIP_8,90,1,48,47,2229441996
10121,3,ISIP_8,91,1,48,42,2230129952
10121,3,ISIP_8,92,1,48,45,2230854580
10121,3,ISIP_8,93,1,48,45,2231579216
10121,3,ISIP_8,94,1,48,44,2232319168
10121,3,ISIP_8,95,1,48,42,2232999592
10121,3,ISIP_8,96,1,48,48,2233751524
10121,3,ISIP_8,97,1,48,47,2234511284
10121,3,ISIP_8,98,1,48,44,2235234428
10121,3,ISIP_8,99,1,48,37,2235969524
10121,3,ISIP_8,100,1,48,45,2236705228
10121,3,ISIP_8,101,1,48,48,2237431356
10121,3,ISIP_8,102,1,48,48,2238144168
10121,3,ISIP_8,103,1,48,46,2238855840
10121,3,ISIP_8,104,1,48,51,2239549728
10121,3,ISIP_8,105,1,48,47,2240271804
10121,3,ISIP_8,106,1,48,50,2241006908
10121,3,ISIP_8,107,1,48,45,2241703416
10121,3,ISIP_8,108,1,48,51,2242434456
10121,3,ISIP_8,109,1,48,45,2243148540
10121,3,ISIP_8,110,1,48,48,2243891352
10121,3,ISIP_8,111,1,48,46,2244576712
10121,3,ISIP_8,112,1,48,51,2245273072
10121,3,ISIP_8,113,1,48,48,2245987360
10121,3,ISIP_8,114,1,48,47,2246706812
10121,3,ISIP_8,115,1,48,48,2247414844
10121,3,ISIP_8,116,1,48,53,2248132140
10121,3,ISIP_8,117,1,48,43,2248870836
10121,3,ISIP_8,118,1,48,55,2249606516
10121,3,ISIP_8,119,1,48,48,2250330844
10121,3,ISIP_8,120,1,48,50,2251062808
10121,3,ISIP_8,121,1,48,46,2251773528
10121,3,ISIP_8,122,1,48,50,2252513792
10121,3,ISIP_8,123,1,48,47,2253206712
10121,3,ISIP_8,124,1,48,50,2253945232
10121,3,ISIP_8,125,1,48,48,2254679944
10121,3,ISIP_8,126,1,48,51,2255399120
10121,3,ISIP_8,127,1,48,51,2256152248
10121,3,ISIP_8,128,1,48,52,2256908072
10121,3,ISIP_8,129,1,48,46,2257620956
10121,3,ISIP_8,130,1,48,44,2258290516
10121,3,ISIP_8,131,1,48,48,2259011404
10121,3,ISIP_8,132,1,48,51,2259766412
10121,3,ISIP_8,133,1,48,49,2260489472
10121,3,ISIP_8,134,1,48,48,2261182536
10121,3,ISIP_8,135,1,48,43,2261915604
10121,3,ISIP_8,136,1,48,49,2262610072
10121,3,ISIP_8,137,1,48,51,2263322812
10121,3,ISIP_8,138,1,48,35,2263359892
10121,3,ISIP_8,139,1,48,47,2264058268
10121,3,ISIP_8,140,1,48,41,2264763976
10121,3,ISIP_8,141,1,48,46,2265450360
10121,3,ISIP_8,142,1,48,36,2266108200
10121,3,ISIP_8,143,1,48,46,2266858640
10121,3,ISIP_8,144,1,48,45,2267528044
10121,3,ISIP_8,145,1,48,47,2268237700
10121,3,ISIP_8,146,1,48,40,2268942592
10121,3,ISIP_8,147,1,48,45,2269636632
10121,3,ISIP_8,148,1,48,46,2270308732
10121,3,ISIP_8,149,1,48,48,2271005608
10121,3,ISIP_8,150,1,48,46,2271728296
10121,3,ISIP_8,151,1,48,49,2272448144
10121,3,ISIP_8,152,1,48,46,2273166840
10121,3,ISIP_8,153,1,48,45,2273846956
10121,3,ISIP_8,154,1,48,44,2274568068
10121,3,ISIP_8,155,1,48,51,2275304368
10121,3,ISIP_8,156,1,48,47,2276013224
10121,3,ISIP_8,157,1,48,45,2276714116
10121,3,ISIP_8,158,1,48,43,2277416312
10121,3,ISIP_8,159,1,48,49,2278142736
10121,3,ISIP_8,160,1,48,46,2278860044
10121,3,ISIP_8,161,1,48,48,2279540220
10121,3,ISIP_8,162,1,48,41,2280266336
10121,3,ISIP_8,163,1,48,42,2280953192
10121,3,ISIP_8,164,1,48,47,2281660696
10121,3,ISIP_8,165,1,48,49,2282356280
10121,3,ISIP_8,166,1,48,42,2283078896
10121,3,ISIP_8,167,1,48,42,2283773456
10121,3,ISIP_8,168,1,48,41,2284494720
10121,3,ISIP_8,169,1,48,49,2285247180
10121,3,ISIP_8,170,1,48,46,2285901388
10121,3,ISIP_8,171,1,48,49,2286618092
10121,3,ISIP_8,172,1,48,46,2287364420
10121,3,ISIP_8,173,1,48,35,2288101912
10121,3,ISIP_8,174,1,48,47,2288786128
10121,3,ISIP_8,175,1,48,46,2289497276
10121,3,ISIP_8,176,1,48,40,2290252496
10121,3,ISIP_8,177,1,48,46,2290928064
10121,3,ISIP_8,178,1,48,44,2291615444
10121,3,ISIP_8,179,1,48,42,2292308772
10121,3,ISIP_8,180,1,48,48,2292995484
10121,3,ISIP_8,181,1,48,40,2293709344
10121,3,ISIP_8,182,1,48,38,2294397376
10121,3,ISIP_8,183,1,48,46,2295102564
10121,3,ISIP_8,184,1,48,42,2295797272
10121,3,ISIP_8,185,1,48,43,2296501108
10121,3,ISIP_8,186,1,48,43,2297168348
10121,3,ISIP_8,187,1,48,47,2297860136
10121,3,ISIP_8,188,1,48,46,2298568160
10121,3,ISIP_8,189,1,48,44,2299265988
10121,3,ISIP_8,190,1,48,43,2299924800
10121,3,ISIP_8,191,1,48,46,2300633424
10121,3,ISIP_8,0,9999,9999,9999,2181124208
10121,3,ISIP_8,1,9999,9999,9999,2181924936
10121,3,ISIP_8,2,9999,9999,9999,2182724668
10121,3,ISIP_8,3,9999,9999,9999,2183524472
10121,3,ISIP_8,4,9999,9999,9999,2184324204
10121,3,ISIP_8,5,9999,9999,9999,2185124932
10121,3,ISIP_8,6,9999,9999,9999,2185924668
10121,3,ISIP_8,7,9999,9999,9999,2186724400
10121,3,ISIP_8,8,9999,9999,9999,2187524212
10121,3,ISIP_8,9,9999,9999,9999,2188324916
10121,3,ISIP_8,10,9999,9999,9999,2189124724
10121,3,ISIP_8,11,9999,9999,9999,2189924464
10121,3,ISIP_8,12,9999,9999,9999,2190724200
10121,3,ISIP_8,13,9999,9999,9999,2191524928
10121,3,ISIP_8,14,9999,9999,9999,2192324656
10121,3,ISIP_8,15,9999,9999,9999,2193124464
10121,3,ISIP_8,16,9999,9999,9999,2193924196
10121,3,ISIP_8,17,9999,9999,9999,2194724984
10121,3,ISIP_8,18,9999,9999,9999,2195524716
10121,3,ISIP_8,19,9999,9999,9999,2196324448
10121,3,ISIP_8,20,9999,9999,9999,2197124180
10121,3,ISIP_8,21,9999,9999,9999,2197924916
10121,3,ISIP_8,22,9999,9999,9999,2198724720
10121,3,ISIP_8,23,9999,9999,9999,2199524456
10121,3,ISIP_8,24,9999,9999,9999,2200324180
10121,3,ISIP_8,25,9999,9999,9999,2201124960
10121,3,ISIP_8,26,9999,9999,9999,2201924696
10121,3,ISIP_8,27,9999,9999,9999,2202724428
10121,3,ISIP_8,28,9999,9999,9999,2203524168
10121,3,ISIP_8,29,9999,9999,9999,2204324968
10121,3,ISIP_8,30,9999,9999,9999,2205124700
10121,3,ISIP_8,31,9999,9999,9999,2205924428
10121,3,ISIP_8,32,9999,9999,9999,2206724160
10121,3,ISIP_8,33,9999,9999,9999,2207524936
10121,3,ISIP_8,34,9999,9999,9999,2208324664
10121,3,ISIP_8,35,9999,9999,9999,2209124468
10121,3,ISIP_8,36,9999,9999,9999,2209924196
10121,3,ISIP_8,37,9999,9999,9999,2210724924
10121,3,ISIP_8,38,9999,9999,9999,2211524728
10121,3,ISIP_8,39,9999,9999,9999,2212324456
10121,3,ISIP_8,40,9999,9999,9999,2213124188
10121,3,ISIP_8,41,9999,9999,9999,2213924960
10121,3,ISIP_8,42,9999,9999,9999,2214724692
10121,3,ISIP_8,43,9999,9999,9999,2215524420
10121,3,ISIP_8,44,9999,9999,9999,2216324212
10121,3,ISIP_8,45,9999,9999,9999,2217124936
10121,3,ISIP_8,46,9999,9999,9999,2217924664
10121,3,ISIP_8,47,9999,9999,9999,2218724468
10121,3,ISIP_8,48,9999,9999,9999,2219524196
10121,3,ISIP_8,49,9999,9999,9999,2220324972
10121,3,ISIP_8,50,9999,9999,9999,2221124700
10121,3,ISIP_8,51,9999,9999,9999,2221924432
10121,3,ISIP_8,52,9999,9999,9999,2222724160
10121,3,ISIP_8,53,9999,9999,9999,2223524960
10121,3,ISIP_8,54,9999,9999,9999,2224324692
10121,3,ISIP_8,55,9999,9999,9999,2225124420
10121,3,ISIP_8,56,9999,9999,9999,2225924152
10121,3,ISIP_8,57,9999,9999,9999,2226724928
10121,3,ISIP_8,58,9999,9999,9999,2227524656
10121,3,ISIP_8,59,9999,9999,9999,2228324460
10121,3,ISIP_8,60,9999,9999,9999,2229124188
10121,3,ISIP_8,61,9999,9999,9999,2229924916
10121,3,ISIP_8,62,9999,9999,9999,2230724716
10121,3,ISIP_8,63,9999,9999,9999,2231524444
10121,3,ISIP_8,64,9999,9999,9999,2232324168
10121,3,ISIP_8,65,9999,9999,9999,2233124928
10121,3,ISIP_8,66,9999,9999,9999,2233924656
10121,3,ISIP_8,67,9999,9999,9999,2234724460
10121,3,ISIP_8,68,9999,9999,9999,2235524188
10121,3,ISIP_8,69,9999,9999,9999,2236324916
10121,3,ISIP_8,70,9999,9999,9999,2237124720
10121,3,ISIP_8,71,9999,9999,9999,2237924448
10121,3,ISIP_8,72,9999,9999,9999,2238724176
10121,3,ISIP_8,73,9999,9999,9999,2239524952
10121,3,ISIP_8,74,9999,9999,9999,2240324676
10121,3,ISIP_8,75,9999,9999,9999,2241124464
10121,3,ISIP_8,76,9999,9999,9999,2241924192
10121,3,ISIP_8,77,9999,9999,9999,2242724916
10121,3,ISIP_8,78,9999,9999,9999,2243524720
10121,3,ISIP_8,79,9999,9999,9999,2244324452
10121,3,ISIP_8,80,9999,9999,9999,2245124180
10121,3,ISIP_8,81,9999,9999,9999,2245924956
10121,3,ISIP_8,82,9999,9999,9999,2246724680
10121,3,ISIP_8,83,9999,9999,9999,2247524468
10121,3,ISIP_8,84,9999,9999,9999,2248324196
10121,3,ISIP_8,85,9999,9999,9999,2249124924
10121,3,ISIP_8,86,9999,9999,9999,2249924728
10121,3,ISIP_8,87,9999,9999,9999,2250724456
10121,3,ISIP_8,88,9999,9999,9999,2251524184
10121,3,ISIP_8,89,9999,9999,9999,2252324960
10121,3,ISIP_8,90,9999,9999,9999,2253124688
10121,3,ISIP_8,91,9999,9999,9999,2253924420
10121,3,ISIP_8,92,9999,9999,9999,2254724216
10121,3,ISIP_8,93,9999,9999,9999,2255524928
10121,3,ISIP_8,94,9999,9999,9999,2256324656
10121,3,ISIP_8,95,9999,9999,9999,2257124460
10121,3,ISIP_8,96,9999,9999,9999,2257924188
10121,3,ISIP_8,97,9999,9999,9999,2258724964
10121,3,ISIP_8,98,9999,9999,9999,2259524692
10121,3,ISIP_8,99,9999,9999,9999,2260324424
10121,3,ISIP_8,100,9999,9999,9999,2261124152
10121,3,ISIP_8,101,9999,9999,9999,2261924948
10121,3,ISIP_8,102,9999,9999,9999,2262724660
10121,3,ISIP_8,103,9999,9999,9999,2263524444
10121,3,ISIP_8,104,9999,9999,9999,2264324176
10121,3,ISIP_8,105,9999,9999,9999,2265124948
10121,3,ISIP_8,106,9999,9999,9999,2265924680
10121,3,ISIP_8,107,9999,9999,9999,2266724408
10121,3,ISIP_8,108,9999,9999,9999,2267524212
10121,3,ISIP_8,109,9999,9999,9999,2268324932
10121,3,ISIP_8,110,9999,9999,9999,2269124720
10121,3,ISIP_8,111,9999,9999,9999,2269924452
10121,3,ISIP_8,112,9999,9999,9999,2270724180
10121,3,ISIP_8,113,9999,9999,9999,2271524956
10121,3,ISIP_8,114,9999,9999,9999,2272324684
10121,3,ISIP_8,115,9999,9999,9999,2273124412
10121,3,ISIP_8,116,9999,9999,9999,2273924212
10121,3,ISIP_8,117,9999,9999,9999,2274724920
10121,3,ISIP_8,118,9999,9999,9999,2275524724
10121,3,ISIP_8,119,9999,9999,9999,2276324456
10121,3,ISIP_8,120,9999,9999,9999,2277124184
10121,3,ISIP_8,121,9999,9999,9999,2277924960
10121,3,ISIP_8,122,9999,9999,9999,2278724692
10121,3,ISIP_8,123,9999,9999,9999,2279524420
10121,3,ISIP_8,124,9999,9999,9999,2280324144
10121,3,ISIP_8,125,9999,9999,9999,2281124928
10121,3,ISIP_8,126,9999,9999,9999,2281924656
10121,3,ISIP_8,127,9999,9999,9999,2282724460
10121,3,ISIP_8,128,9999,9999,9999,2283524188
10121,3,ISIP_8,129,9999,9999,9999,2284324964
10121,3,ISIP_8,130,9999,9999,9999,2285124692
10121,3,ISIP_8,131,9999,9999,9999,2285924416
10121,3,ISIP_8,132,9999,9999,9999,2286724204
10121,3,ISIP_8,133,9999,9999,9999,2287524932
10121,3,ISIP_8,134,9999,9999,9999,2288324660
10121,3,ISIP_8,135,9999,9999,9999,2289124440
10121,3,ISIP_8,136,9999,9999,9999,2289924168
10121,3,ISIP_8,137,9999,9999,9999,2290724944
10121,3,ISIP_8,138,9999,9999,9999,2291524672
10121,3,ISIP_8,139,9999,9999,9999,2292324472
10121,3,ISIP_8,140,9999,9999,9999,2293124184
10121,3,ISIP_8,141,9999,9999,9999,2293924912
10121,3,ISIP_8,142,9999,9999,9999,2294724712
10121,3,ISIP_8,143,9999,9999,9999,2295524444
10121,3,ISIP_8,144,9999,9999,9999,2296324172
10121,3,ISIP_8,145,9999,9999,9999,2297124948
10121,3,ISIP_8,146,9999,9999,9999,2297924672
10121,3,ISIP_8,147,9999,9999,9999,2298724460
10121,3,ISIP_8,148,9999,9999,9999,2299524188
10121,3,ISIP_8,149,9999,9999,9999,2300324916
10122,11,Pattern_Practice,0,5,42,127,2416341632
10122,11,Pattern_Practice,1,5,42,127,2416840976
10122,11,Pattern_Practice,2,5,42,127,2417340768
10122,11,Pattern_Practice,3,5,42,127,2417840484
10122,11,Pattern_Practice,4,5,42,127,2418341396
10122,11,Pattern_Practice,5,5,42,127,2418840892
10122,11,Pattern_Practice,6,5,42,127,2419340680
10122,11,Pattern_Practice,7,5,42,127,2419841568
10122,11,Pattern_Practice,8,5,42,127,2420340988
10122,11,Pattern_Practice,9,5,42,127,2420840928
10122,11,Pattern_Practice,10,5,42,127,2421340496
10122,11,Pattern_Practice,11,5,42,127,2421841332
10122,11,Pattern_Practice,12,5,42,127,2422341048
10122,11,Pattern_Practice,13,5,42,127,2422840620
10122,11,Pattern_Practice,14,1,38,30,2422857496
10122,11,Pattern_Practice,15,5,42,127,2423341360
10122,11,Pattern_Practice,16,1,38,41,2423389360
10122,11,Pattern_Practice,17,5,42,127,2423841204
10122,11,Pattern_Practice,18,1,38,46,2423891368
10122,11,Pattern_Practice,19,5,42,127,2424340748
10122,11,Pattern_Practice,20,1,38,38,2424385376
10122,11,Pattern_Practice,21,5,42,127,2424840516
10122,11,Pattern_Practice,22,1,48,49,2424899736
10122,11,Pattern_Practice,23,5,42,127,2425341260
10122,11,Pattern_Practice,24,1,48,48,2425384392
10122,11,Pattern_Practice,25,5,42,127,2425840852
10122,11,Pattern_Practice,26,1,48,54,2425909568
10122,11,Pattern_Practice,27,5,42,127,2426340768
10122,11,Pattern_Practice,28,1,48,43,2426425792
10122,11,Pattern_Practice,29,5,42,127,2426840464
10122,11,Pattern_Practice,30,1,38,36,2426949272
10122,11,Pattern_Practice,31,5,42,127,2427341204
10122,11,Pattern_Practice,32,1,48,44,2427492344
10122,11,Pattern_Practice,33,5,42,127,2427840824
10122,11,Pattern_Practice,34,5,42,127,2428340544
10122,11,Pattern_Practice,35,1,48,47,2428829000
10122,11,Pattern_Practice,36,5,42,127,2428841372
10122,11,Pattern_Practice,37,5,42,127,2429341076
10122,11,Pattern_Practice,38,1,48,46,2429377784
10122,11,Pattern_Practice,39,5,42,127,2429840696
10122,11,Pattern_Practice,40,1,38,50,2429900660
10122,11,Pattern_Practice,41,5,42,127,2430340440
10122,11,Pattern_Practice,42,1,48,46,2430419356
10122,11,Pattern_Practice,43,5,42,127,2430841408
10122,11,Pattern_Practice,44,1,48,44,2430910296
10122,11,Pattern_Practice,45,5,42,127,2431340876
10122,11,Pattern_Practice,46,1,48,46,2431358432
10122,11,Pattern_Practice,47,5,42,127,2431840572
10122,11,Pattern_Practice,48,1,38,50,2431853340
10122,11,Pattern_Practice,49,5,42,127,2432341312
10122,11,Pattern_Practice,50,1,48,39,2432348772
10122,11,Pattern_Practice,51,5,42,127,2432840932
10122,11,Pattern_Practice,52,1,48,45,2432869108
10122,11,Pattern_Practice,53,5,42,127,2433340924
10122,11,Pattern_Practice,54,1,48,48,2433364168
10122,11,Pattern_Practice,55,1,38,56,2433839340
10122,11,Pattern_Practice,56,5,42,127,2433842336
10122,11,Pattern_Practice,57,1,48,48,2434336384
10122,11,Pattern_Practice,58,5,42,127,2434341204
10122,11,Pattern_Practice,59,1,48,50,2434830400
10122,11,Pattern_Practice,60,5,42,127,2434840976
10122,11,Pattern_Practice,61,1,48,49,2435333532
10122,11,Pattern_Practice,62,5,42,127,2435340596
10122,11,Pattern_Practice,63,1,38,69,2435827612
10122,11,Pattern_Practice,64,5,42,127,2435841488
10122,11,Pattern_Practice,65,1,38,44,2435863592
10122,11,Pattern_Practice,66,1,48,54,2436336336
10122,11,Pattern_Practice,67,5,42,127,2436341232
10122,11,Pattern_Practice,68,1,48,38,2436369696
10122,11,Pattern_Practice,69,5,42,127,2436840912
10122,11,Pattern_Practice,70,1,48,50,2436850316
10122,11,Pattern_Practice,71,1,48,44,2437314764
10122,11,Pattern_Practice,72,5,42,127,2437340452
10122,11,Pattern_Practice,73,1,38,70,2437792164
10122,11,Pattern_Practice,74,5,42,127,2437841192
10122,11,Pattern_Practice,75,1,38,38,2437844964
10122,11,Pattern_Practice,76,1,48,50,2438291988
10122,11,Pattern_Practice,77,5,42,127,2438341088
10122,11,Pattern_Practice,78,1,48,48,2438816588
10122,11,Pattern_Practice,79,5,42,127,2438840560
10122,11,Pattern_Practice,80,1,48,46,2439303768
10122,11,Pattern_Practice,81,5,42,127,2439341452
10122,11,Pattern_Practice,82,1,38,49,2439774372
10122,11,Pattern_Practice,83,5,42,127,2439841292
10122,11,Pattern_Practice,84,1,38,20,2439855016
10122,11,Pattern_Practice,85,1,48,39,2440285408
10122,11,Pattern_Practice,86,5,42,127,2440340816
10122,11,Pattern_Practice,87,1,48,48,2440810684
10122,11,Pattern_Practice,88,5,42,127,2440840560
10122,11,Pattern_Practice,89,1,48,45,2441305740
10122,11,Pattern_Practice,90,5,42,127,2441341228
10122,11,Pattern_Practice,91,1,38,67,2441821812
10122,11,Pattern_Practice,92,5,42,127,2441841072
10122,11,Pattern_Practice,93,1,48,38,2442316200
10122,11,Pattern_Practice,94,5,42,127,2442340692
10122,11,Pattern_Practice,95,5,42,127,2442840468
10122,11,Pattern_Practice,96,1,48,41,2442842408
10122,11,Pattern_Practice,97,5,42,127,2443341136
10122,11,Pattern_Practice,98,1,48,43,2443348592
10122,11,Pattern_Practice,99,5,42,127,2443840904
10122,11,Pattern_Practice,100,1,38,59,2443862572
10122,11,Pattern_Practice,101,1,48,70,2444304352
10122,11,Pattern_Practice,102,5,42,127,2444340444
10122,11,Pattern_Practice,103,1,48,66,2444514488
10122,11,Pattern_Practice,104,1,48,66,2444708064
10122,11,Pattern_Practice,105,5,42,127,2444841296
10122,11,Pattern_Practice,106,1,38,37,2444913904
10122,11,Pattern_Practice,107,1,48,44,2445156100
10122,11,Pattern_Practice,108,5,42,127,2445341044
10122,11,Pattern_Practice,109,1,48,47,2445804512
10122,11,Pattern_Practice,110,5,42,127,2445840604
10122,11,Pattern_Practice,111,5,42,127,2446340528
10122,11,Pattern_Practice,112,1,48,49,2446344092
10122,11,Pattern_Practice,113,1,38,68,2446825072
10122,11,Pattern_Practice,114,5,42,127,2446841260
10122,11,Pattern_Practice,115,5,42,127,2447341184
10122,11,Pattern_Practice,116,1,48,53,2447356648
10122,11,Pattern_Practice,117,1,48,48,2447814140
10122,11,Pattern_Practice,118,5,42,127,2447840576
10122,11,Pattern_Practice,119,1,48,28,2447869040
10122,11,Pattern_Practice,120,1,38,46,2448305508
10122,11,Pattern_Practice,121,5,42,127,2448341224
10122,11,Pattern_Practice,122,1,48,37,2448841220
10122,11,Pattern_Practice,123,5,42,127,2448842632
10122,11,Pattern_Practice,124,5,42,127,2449340768
10122,11,Pattern_Practice,125,1,48,52,2449355332
10122,11,Pattern_Practice,126,5,42,127,2449840460
10122,11,Pattern_Practice,127,1,48,54,2449845148
10122,11,Pattern_Practice,128,1,38,51,2450305312
10122,11,Pattern_Practice,129,5,42,127,2450341120
10122,11,Pattern_Practice,130,5,42,127,2450841120
10122,11,Pattern_Practice,131,1,48,55,2450846184
10122,11,Pattern_Practice,132,1,48,54,2451333792
10122,11,Pattern_Practice,133,5,42,127,2451340508
10122,11,Pattern_Practice,134,1,48,54,2451821220
10122,11,Pattern_Practice,135,5,42,127,2451841524
10122,11,Pattern_Practice,136,1,38,51,2452300420
10122,11,Pattern_Practice,137,5,42,127,2452341144
10122,11,Pattern_Practice,138,1,48,54,2452818736
10122,11,Pattern_Practice,139,5,42,127,2452841060
10122,11,Pattern_Practice,140,1,48,54,2453305868
10122,11,Pattern_Practice,141,5,42,127,2453340460
10122,11,Pattern_Practice,142,1,48,51,2453811168
10122,11,Pattern_Practice,143,5,42,127,2453841276
10122,11,Pattern_Practice,144,1,38,58,2454321864
10122,11,Pattern_Practice,145,5,42,127,2454341344
10122,11,Pattern_Practice,146,1,48,46,2454833972
10122,11,Pattern_Practice,147,5,42,127,2454840592
10122,11,Pattern_Practice,148,1,48,44,2455307420
10122,11,Pattern_Practice,149,5,42,127,2455341480
10122,11,Pattern_Practice,150,1,48,51,2455708680
10122,11,Pattern_Practice,151,5,42,127,2455841312
10122,11,Pattern_Practice,152,1,38,61,2456276736
10122,11,Pattern_Practice,153,1,38,37,2456316208
10122,11,Pattern_Practice,0,9999,9999,9999,2416339048
10122,11,Pattern_Practice,1,9999,9999,9999,2416838764
10122,11,Pattern_Practice,2,9999,9999,9999,2417338484
10122,11,Pattern_Practice,3,9999,9999,9999,2417838196
10122,11,Pattern_Practice,4,9999,9999,9999,2418338888
10122,11,Pattern_Practice,5,9999,9999,9999,2418838604
10122,11,Pattern_Practice,6,9999,9999,9999,2419338296
10122,11,Pattern_Practice,7,9999,9999,9999,2419839060
10122,11,Pattern_Practice,8,9999,9999,9999,2420338776
10122,11,Pattern_Practice,9,9999,9999,9999,2420838492
10122,11,Pattern_Practice,10,9999,9999,9999,2421338208
10122,11,Pattern_Practice,11,9999,9999,9999,2421838896
10122,11,Pattern_Practice,12,9999,9999,9999,2422338616
10122,11,Pattern_Practice,13,9999,9999,9999,2422838332
10122,11,Pattern_Practice,14,9999,9999,9999,2423339072
10122,11,Pattern_Practice,15,9999,9999,9999,2423838840
10122,11,Pattern_Practice,16,9999,9999,9999,2424338536
10122,11,Pattern_Practice,17,9999,9999,9999,2424838232
10122,11,Pattern_Practice,18,9999,9999,9999,2425338972
10122,11,Pattern_Practice,19,9999,9999,9999,2425838640
10122,11,Pattern_Practice,20,9999,9999,9999,2426338408
10122,11,Pattern_Practice,21,9999,9999,9999,2426838104
10122,11,Pattern_Practice,22,9999,9999,9999,2427338844
10122,11,Pattern_Practice,23,9999,9999,9999,2427838540
10122,11,Pattern_Practice,24,9999,9999,9999,2428338256
10122,11,Pattern_Practice,25,9999,9999,9999,2428839012
10122,11,Pattern_Practice,26,9999,9999,9999,2429338712
10122,11,Pattern_Practice,27,9999,9999,9999,2429838408
10122,11,Pattern_Practice,28,9999,9999,9999,2430338156
10122,11,Pattern_Practice,29,9999,9999,9999,2430838896
10122,11,Pattern_Practice,30,9999,9999,9999,2431338592
10122,11,Pattern_Practice,31,9999,9999,9999,2431838284
10122,11,Pattern_Practice,32,9999,9999,9999,2432339028
10122,11,Pattern_Practice,33,9999,9999,9999,2432838720
10122,11,Pattern_Practice,34,9999,9999,9999,2433338416
10122,11,Pattern_Practice,35,9999,9999,9999,2433838184
10122,11,Pattern_Practice,36,9999,9999,9999,2434338920
10122,11,Pattern_Practice,37,9999,9999,9999,2434838616
10122,11,Pattern_Practice,38,9999,9999,9999,2435338308
10122,11,Pattern_Practice,39,9999,9999,9999,2435839052
10122,11,Pattern_Practice,40,9999,9999,9999,2436338800
10122,11,Pattern_Practice,41,9999,9999,9999,2436838476
10122,11,Pattern_Practice,42,9999,9999,9999,2437338168
10122,11,Pattern_Practice,43,9999,9999,9999,2437838908
10122,11,Pattern_Practice,44,9999,9999,9999,2438338652
10122,11,Pattern_Practice,45,9999,9999,9999,2438838348
10122,11,Pattern_Practice,46,9999,9999,9999,2439339088
10122,11,Pattern_Practice,47,9999,9999,9999,2439838784
10122,11,Pattern_Practice,48,9999,9999,9999,2440338532
10122,11,Pattern_Practice,49,9999,9999,9999,2440838200
10122,11,Pattern_Practice,50,9999,9999,9999,2441338940
10122,11,Pattern_Practice,51,9999,9999,9999,2441838712
10122,11,Pattern_Practice,52,9999,9999,9999,2442338408
10122,11,Pattern_Practice,53,9999,9999,9999,2442838108
10122,11,Pattern_Practice,54,9999,9999,9999,2443338848
10122,11,Pattern_Practice,55,9999,9999,9999,2443838544
10122,11,Pattern_Practice,56,9999,9999,9999,2444338232
10122,11,Pattern_Practice,57,9999,9999,9999,2444839008
10122,11,Pattern_Practice,58,9999,9999,9999,2445338680
10122,11,Pattern_Practice,59,9999,9999,9999,2445838392
10122,11,Pattern_Practice,60,9999,9999,9999,2446338168
10122,11,Pattern_Practice,61,9999,9999,9999,2446838900
10122,11,Pattern_Practice,62,9999,9999,9999,2447338600
10122,11,Pattern_Practice,63,9999,9999,9999,2447838292
10122,11,Pattern_Practice,64,9999,9999,9999,2448339012
10122,11,Pattern_Practice,65,9999,9999,9999,2448838712
10122,11,Pattern_Practice,66,9999,9999,9999,2449338480
10122,11,Pattern_Practice,67,9999,9999,9999,2449838176
10122,11,Pattern_Practice,68,9999,9999,9999,2450338908
10122,11,Pattern_Practice,69,9999,9999,9999,2450838612
10122,11,Pattern_Practice,70,9999,9999,9999,2451338296
10122,11,Pattern_Practice,71,9999,9999,9999,2451839088
10122,11,Pattern_Practice,72,9999,9999,9999,2452338784
10122,11,Pattern_Practice,73,9999,9999,9999,2452838476
10122,11,Pattern_Practice,74,9999,9999,9999,2453338172
10122,11,Pattern_Practice,75,9999,9999,9999,2453838916
10122,11,Pattern_Practice,76,9999,9999,9999,2454338612
10122,11,Pattern_Practice,77,9999,9999,9999,2454838380
10122,11,Pattern_Practice,78,9999,9999,9999,2455339120
10122,11,Pattern_Practice,79,9999,9999,9999,2455838800
10123,13,Improv_Metronome,0,5,42,127,2493407472
10123,13,Improv_Metronome,1,1,48,14,2493808536
10123,13,Improv_Metronome,2,5,42,127,2493908512
10123,13,Improv_Metronome,3,1,48,33,2494395400
10123,13,Improv_Metronome,4,5,42,127,2494408148
10123,13,Improv_Metronome,5,1,48,32,2494863300
10123,13,Improv_Metronome,6,5,42,127,2494907696
10123,13,Improv_Metronome,7,1,48,40,2495348388
10123,13,Improv_Metronome,8,5,42,127,2495407612
10123,13,Improv_Metronome,9,1,48,29,2495848232
10123,13,Improv_Metronome,10,5,42,127,2495908132
10123,13,Improv_Metronome,11,1,48,46,2496406700
10123,13,Improv_Metronome,12,5,42,127,2496408344
10123,13,Improv_Metronome,13,5,42,127,2496907600
10123,13,Improv_Metronome,14,1,38,48,2496969136
10123,13,Improv_Metronome,15,5,42,127,2497408540
10123,13,Improv_Metronome,16,1,48,49,2497455520
10123,13,Improv_Metronome,17,5,42,127,2497907940
10123,13,Improv_Metronome,18,1,48,50,2497964784
10123,13,Improv_Metronome,19,1,38,46,2498398164
10123,13,Improv_Metronome,20,5,42,127,2498407700
10123,13,Improv_Metronome,21,1,48,41,2498870636
10123,13,Improv_Metronome,22,5,42,127,2498907544
10123,13,Improv_Metronome,23,1,48,50,2499380504
10123,13,Improv_Metronome,24,5,42,127,2499408284
10123,13,Improv_Metronome,25,1,38,55,2499850876
10123,13,Improv_Metronome,26,5,42,127,2499907908
10123,13,Improv_Metronome,27,1,48,50,2500389692
10123,13,Improv_Metronome,28,5,42,127,2500407680
10123,13,Improv_Metronome,29,1,48,48,2500893276
10123,13,Improv_Metronome,30,5,42,127,2500908344
10123,13,Improv_Metronome,31,1,48,56,2501367316
10123,13,Improv_Metronome,32,5,42,127,2501408264
10123,13,Improv_Metronome,33,1,38,51,2501861624
10123,13,Improv_Metronome,34,5,42,127,2501907808
10123,13,Improv_Metronome,35,1,48,53,2502395796
10123,13,Improv_Metronome,36,5,42,127,2502407504
10123,13,Improv_Metronome,37,1,48,49,2502864824
10123,13,Improv_Metronome,38,5,42,127,2502908320
10123,13,Improv_Metronome,39,1,48,55,2503370956
10123,13,Improv_Metronome,40,5,42,127,2503407940
10123,13,Improv_Metronome,41,1,38,60,2503890100
10123,13,Improv_Metronome,42,5,42,127,2503907636
10123,13,Improv_Metronome,43,5,42,127,2504408312
10123,13,Improv_Metronome,44,1,48,54,2504409648
10123,13,Improv_Metronome,45,1,48,54,2504904824
10123,13,Improv_Metronome,46,5,42,127,2504908220
10123,13,Improv_Metronome,47,5,42,127,2505407996
10123,13,Improv_Metronome,48,1,48,59,2505446944
10123,13,Improv_Metronome,49,5,42,127,2505907544
10123,13,Improv_Metronome,50,1,48,49,2505945444
10123,13,Improv_Metronome,51,5,42,127,2506408284
10123,13,Improv_Metronome,52,1,38,52,2506444916
10123,13,Improv_Metronome,53,5,42,127,2506908056
10123,13,Improv_Metronome,54,1,38,52,2506926732
10123,13,Improv_Metronome,55,5,42,127,2507407600
10123,13,Improv_Metronome,56,1,48,57,2507426720
10123,13,Improv_Metronome,57,1,38,57,2507893916
10123,13,Improv_Metronome,58,5,42,127,2507907412
10123,13,Improv_Metronome,59,1,48,65,2508377004
10123,13,Improv_Metronome,60,5,42,127,2508408304
10123,13,Improv_Metronome,61,1,38,70,2508850672
10123,13,Improv_Metronome,62,5,42,127,2508907776
10123,13,Improv_Metronome,63,5,42,127,2509407480
10123,13,Improv_Metronome,64,1,48,70,2509418004
10123,13,Improv_Metronome,65,1,48,49,2509446256
10123,13,Improv_Metronome,66,1,38,71,2509882428
10123,13,Improv_Metronome,67,5,42,127,2509908268
10123,13,Improv_Metronome,68,5,42,127,2510408120
10123,13,Improv_Metronome,69,1,48,64,2510409532
10123,13,Improv_Metronome,70,1,48,48,2510436272
10123,13,Improv_Metronome,71,1,38,55,2510889576
10123,13,Improv_Metronome,72,5,42,127,2510907712
10123,13,Improv_Metronome,73,5,42,127,2511407388
10123,13,Improv_Metronome,74,1,48,57,2511414844
10123,13,Improv_Metronome,75,1,38,64,2511853260
10123,13,Improv_Metronome,76,5,42,127,2511908196
10123,13,Improv_Metronome,77,1,48,61,2512389008
10123,13,Improv_Metronome,78,5,42,127,2512408116
10123,13,Improv_Metronome,79,1,38,57,2512881520
10123,13,Improv_Metronome,80,5,42,127,2512907588
10123,13,Improv_Metronome,81,1,38,57,2513376204
10123,13,Improv_Metronome,82,5,42,127,2513408256
10123,13,Improv_Metronome,83,1,48,53,2513879416
10123,13,Improv_Metronome,84,5,42,127,2513908172
10123,13,Improv_Metronome,85,1,38,49,2514356300
10123,13,Improv_Metronome,86,5,42,127,2514407644
10123,13,Improv_Metronome,87,1,38,56,2514872600
10123,13,Improv_Metronome,88,5,42,127,2514907636
10123,13,Improv_Metronome,89,1,48,54,2515347380
10123,13,Improv_Metronome,90,5,42,127,2515408228
10123,13,Improv_Metronome,91,1,48,53,2515872652
10123,13,Improv_Metronome,92,5,42,127,2515908144
10123,13,Improv_Metronome,93,1,38,59,2516347568
10123,13,Improv_Metronome,94,5,42,127,2516407692
10123,13,Improv_Metronome,95,1,48,48,2516841804
10123,13,Improv_Metronome,96,5,42,127,2516908356
10123,13,Improv_Metronome,97,1,38,63,2517391112
10123,13,Improv_Metronome,98,5,42,127,2517408128
10123,13,Improv_Metronome,99,1,48,46,2517838204
10123,13,Improv_Metronome,100,5,42,127,2517907672
10123,13,Improv_Metronome,101,1,38,57,2518397880
10123,13,Improv_Metronome,102,5,42,127,2518407664
10123,13,Improv_Metronome,103,1,48,51,2518873716
10123,13,Improv_Metronome,104,5,42,127,2518908160
10123,13,Improv_Metronome,105,1,38,57,2519408012
10123,13,Improv_Metronome,106,5,42,127,2519410616
10123,13,Improv_Metronome,107,5,42,127,2519907632
10123,13,Improv_Metronome,108,1,48,46,2519921896
10123,13,Improv_Metronome,109,1,38,60,2520372952
10123,13,Improv_Metronome,110,5,42,127,2520408440
10123,13,Improv_Metronome,111,1,38,62,2520887532
10123,13,Improv_Metronome,112,5,42,127,2520908136
10123,13,Improv_Metronome,113,1,48,59,2521386848
10123,13,Improv_Metronome,114,5,42,127,2521407828
10123,13,Improv_Metronome,115,1,38,65,2521608276
10123,13,Improv_Metronome,116,1,48,56,2521902232
10123,13,Improv_Metronome,117,5,42,127,2521907576
10123,13,Improv_Metronome,118,1,38,58,2522394516
10123,13,Improv_Metronome,119,5,42,127,2522408244
10123,13,Improv_Metronome,120,5,42,127,2522908096
10123,13,Improv_Metronome,121,1,38,55,2522929244
10123,13,Improv_Metronome,122,1,38,52,2523359876
10123,13,Improv_Metronome,123,5,42,127,2523407780
10123,13,Improv_Metronome,124,1,48,50,2523877000
10123,13,Improv_Metronome,125,5,42,127,2523907476
10123,13,Improv_Metronome,126,5,42,127,2524408152
10123,13,Improv_Metronome,127,1,48,64,2524423908
10123,13,Improv_Metronome,128,5,42,127,2524908068
10123,13,Improv_Metronome,129,1,48,59,2524912532
10123,13,Improv_Metronome,130,1,48,46,2524938244
10123,13,Improv_Metronome,131,1,38,59,2525394388
10123,13,Improv_Metronome,132,5,42,127,2525408180
10123,13,Improv_Metronome,133,1,38,52,2525906816
10123,13,Improv_Metronome,134,5,42,127,2525909448
10123,13,Improv_Metronome,135,1,38,59,2526386668
10123,13,Improv_Metronome,136,5,42,127,2526408244
10123,13,Improv_Metronome,137,1,48,69,2526902820
10123,13,Improv_Metronome,138,5,42,127,2526907644
10123,13,Improv_Metronome,139,1,48,57,2527380220
10123,13,Improv_Metronome,140,5,42,127,2527407336
10123,13,Improv_Metronome,141,1,48,54,2527863736
10123,13,Improv_Metronome,142,5,42,127,2527908152
10123,13,Improv_Metronome,143,1,48,45,2528332916
10123,13,Improv_Metronome,144,5,42,127,2528408144
10123,13,Improv_Metronome,145,5,42,127,2528907996
10123,13,Improv_Metronome,146,1,38,57,2528912536
10123,13,Improv_Metronome,147,1,38,60,2529187048
10123,13,Improv_Metronome,148,5,42,127,2529408468
10123,13,Improv_Metronome,149,1,38,60,2529438312
10123,13,Improv_Metronome,150,1,38,64,2529676244
10123,13,Improv_Metronome,151,5,42,127,2529908064
10123,13,Improv_Metronome,152,1,38,61,2529917688
10123,13,Improv_Metronome,153,1,38,71,2530183404
10123,13,Improv_Metronome,154,1,38,59,2530354064
10123,13,Improv_Metronome,155,5,42,127,2530408180
10123,13,Improv_Metronome,156,1,38,65,2530881284
10123,13,Improv_Metronome,157,1,38,44,2530908680
10123,13,Improv_Metronome,158,5,42,127,2530910324
10123,13,Improv_Metronome,159,1,48,68,2531392028
10123,13,Improv_Metronome,160,5,42,127,2531408368
10123,13,Improv_Metronome,161,5,42,127,2531908144
10123,13,Improv_Metronome,162,1,48,58,2531925920
10123,13,Improv_Metronome,163,1,48,53,2532400692
10123,13,Improv_Metronome,164,5,42,127,2532407684
10123,13,Improv_Metronome,165,5,42,127,2532908356
10123,13,Improv_Metronome,166,1,48,63,2532934216
10123,13,Improv_Metronome,167,1,48,22,2533371140
10123,13,Improv_Metronome,168,5,42,127,2533408048
10123,13,Improv_Metronome,169,1,48,73,2533884296
10123,13,Improv_Metronome,170,5,42,127,2533908040
10123,13,Improv_Metronome,171,1,48,75,2534383768
10123,13,Improv_Metronome,172,5,42,127,2534407660
10123,13,Improv_Metronome,173,1,48,63,2534875084
10123,13,Improv_Metronome,174,5,42,127,2534908256
10123,13,Improv_Metronome,175,5,42,127,2535408104
10123,13,Improv_Metronome,176,1,48,72,2535437776
10123,13,Improv_Metronome,177,1,48,83,2535846948
10123,13,Improv_Metronome,178,5,42,127,2535908164
10123,13,Improv_Metronome,179,5,42,127,2536408320
10123,13,Improv_Metronome,180,1,48,78,2536413004
10123,13,Improv_Metronome,181,5,42,127,2536908312
10123,13,Improv_Metronome,182,1,48,80,2536933424
10123,13,Improv_Metronome,183,5,42,127,2537408228
10123,13,Improv_Metronome,184,1,38,57,2537409196
10123,13,Improv_Metronome,185,1,38,54,2537895616
10123,13,Improv_Metronome,186,5,42,127,2537907620
10123,13,Improv_Metronome,187,1,38,23,2537974900
10123,13,Improv_Metronome,188,1,38,63,2538406148
10123,13,Improv_Metronome,189,5,42,127,2538409012
10123,13,Improv_Metronome,190,1,38,32,2538489008
10123,13,Improv_Metronome,191,5,42,127,2538907872
10123,13,Improv_Metronome,192,1,38,66,2538913528
10123,13,Improv_Metronome,193,5,42,127,2539407860
10123,13,Improv_Metronome,194,1,48,104,2539428184
10123,13,Improv_Metronome,195,1,38,62,2539684372
10123,13,Improv_Metronome,196,1,38,46,2539709780
10123,13,Improv_Metronome,197,5,42,127,2539907488
10123,13,Improv_Metronome,198,1,48,61,2539957832
10123,13,Improv_Metronome,199,1,38,62,2540201448
10123,13,Improv_Metronome,200,5,42,127,2540408136
10123,13,Improv_Metronome,201,1,48,72,2540429756
10123,13,Improv_Metronome,202,1,38,54,2540680928
10123,13,Improv_Metronome,203,5,42,127,2540908032
10123,13,Improv_Metronome,204,1,48,76,2540938852
10123,13,Improv_Metronome,205,1,48,58,2540960824
10123,13,Improv_Metronome,206,1,38,70,2541201000
10123,13,Improv_Metronome,207,5,42,127,2541407540
10123,13,Improv_Metronome,208,1,48,84,2541450624
10123,13,Improv_Metronome,209,1,38,54,2541666692
10123,13,Improv_Metronome,210,5,42,127,2541908332
10123,13,Improv_Metronome,211,1,48,71,2541926708
10123,13,Improv_Metronome,212,1,48,54,2541948900
10123,13,Improv_Metronome,213,1,38,66,2542176812
10123,13,Improv_Metronome,214,5,42,127,2542407980
10123,13,Improv_Metronome,215,1,48,72,2542437580
10123,13,Improv_Metronome,216,1,38,61,2542655840
10123,13,Improv_Metronome,217,5,42,127,2542907876
10123,13,Improv_Metronome,218,1,48,72,2542913840
10123,13,Improv_Metronome,219,1,38,63,2543164936
10123,13,Improv_Metronome,220,5,42,127,2543407400
10123,13,Improv_Metronome,221,1,48,70,2543442456
10123,13,Improv_Metronome,222,5,42,127,2543908140
10123,13,Improv_Metronome,223,1,48,66,2543943800
10123,13,Improv_Metronome,224,5,42,127,2544408060
10123,13,Improv_Metronome,225,1,48,71,2544434444
10123,13,Improv_Metronome,226,1,48,53,2544460972
10123,13,Improv_Metronome,227,5,42,127,2544907808
10123,13,Improv_Metronome,228,1,48,77,2544932992
10123,13,Improv_Metronome,229,1,48,55,2544957876
10123,13,Improv_Metronome,230,5,42,127,2545408452
10123,13,Improv_Metronome,231,1,48,66,2545437596
10123,13,Improv_Metronome,232,1,48,59,2545905948
10123,13,Improv_Metronome,233,5,42,127,2545907992
10123,13,Improv_Metronome,234,5,42,127,2546407840
10123,13,Improv_Metronome,235,1,48,65,2546415592
10123,13,Improv_Metronome,236,5,42,127,2546907612
10123,13,Improv_Metronome,237,1,48,61,2546945364
10123,13,Improv_Metronome,238,5,42,127,2547408276
10123,13,Improv_Metronome,239,1,38,65,2547427028
10123,13,Improv_Metronome,240,1,48,56,2547673788
10123,13,Improv_Metronome,241,1,38,57,2547892428
10123,13,Improv_Metronome,242,5,42,127,2547908016
10123,13,Improv_Metronome,243,1,48,47,2548190292
10123,13,Improv_Metronome,244,1,38,59,2548399280
10123,13,Improv_Metronome,245,5,42,127,2548407764
10123,13,Improv_Metronome,246,1,48,59,2548638952
10123,13,Improv_Metronome,247,1,38,63,2548880248
10123,13,Improv_Metronome,248,5,42,127,2548908260
10123,13,Improv_Metronome,249,1,48,70,2549128972
10123,13,Improv_Metronome,250,1,38,61,2549361800
10123,13,Improv_Metronome,251,5,42,127,2549408084
10123,13,Improv_Metronome,252,1,48,66,2549630864
10123,13,Improv_Metronome,253,1,38,63,2549877252
10123,13,Improv_Metronome,254,5,42,127,2549907900
10123,13,Improv_Metronome,255,1,48,64,2550104360
10123,13,Improv_Metronome,256,1,38,73,2550389792
10123,13,Improv_Metronome,257,5,42,127,2550407724
10123,13,Improv_Metronome,258,1,48,56,2550624072
10123,13,Improv_Metronome,259,1,38,69,2550858796
10123,13,Improv_Metronome,260,5,42,127,2550908192
10123,13,Improv_Metronome,261,1,48,65,2551348540
10123,13,Improv_Metronome,262,5,42,127,2551407960
10123,13,Improv_Metronome,263,1,48,65,2551875984
10123,13,Improv_Metronome,264,1,48,40,2551908836
10123,13,Improv_Metronome,265,5,42,127,2551909876
10123,13,Improv_Metronome,266,1,48,63,2552385004
10123,13,Improv_Metronome,267,5,42,127,2552408376
10123,13,Improv_Metronome,268,1,48,63,2552887320
10123,13,Improv_Metronome,269,5,42,127,2552908068
10123,13,Improv_Metronome,270,5,42,127,2553407844
10123,13,Improv_Metronome,271,1,48,64,2553418968
10123,13,Improv_Metronome,272,1,48,67,2553895532
10123,13,Improv_Metronome,273,5,42,127,2553907756
10123,13,Improv_Metronome,274,5,42,127,2554408280
10123,13,Improv_Metronome,275,1,48,59,2554411920
10123,13,Improv_Metronome,276,1,48,26,2554476228
10123,13,Improv_Metronome,277,5,42,127,2554907956
10123,13,Improv_Metronome,278,1,48,62,2554936952
10123,13,Improv_Metronome,279,5,42,127,2555407648
10123,13,Improv_Metronome,280,1,48,79,2555423932
10123,13,Improv_Metronome,281,1,38,57,2555688864
10123,13,Improv_Metronome,282,5,42,127,2555907544
10123,13,Improv_Metronome,283,1,48,62,2555932576
10123,13,Improv_Metronome,284,1,38,67,2556198192
10123,13,Improv_Metronome,285,5,42,127,2556408240
10123,13,Improv_Metronome,286,1,48,77,2556425348
10123,13,Improv_Metronome,287,1,48,57,2556447768
10123,13,Improv_Metronome,288,1,38,72,2556698644
10123,13,Improv_Metronome,289,1,38,52,2556721128
10123,13,Improv_Metronome,290,5,42,127,2556907872
10123,13,Improv_Metronome,291,1,48,54,2556936568
10123,13,Improv_Metronome,292,1,38,74,2557197692
10123,13,Improv_Metronome,293,1,38,54,2557219288
10123,13,Improv_Metronome,294,5,42,127,2557407672
10123,13,Improv_Metronome,295,1,48,55,2557429940
10123,13,Improv_Metronome,296,1,38,81,2557720304
10123,13,Improv_Metronome,297,1,38,58,2557741896
10123,13,Improv_Metronome,298,5,42,127,2557908292
10123,13,Improv_Metronome,299,1,48,57,2557960852
10123,13,Improv_Metronome,300,1,38,73,2558221748
10123,13,Improv_Metronome,301,5,42,127,2558407964
10123,13,Improv_Metronome,302,1,48,58,2558426940
10123,13,Improv_Metronome,303,1,38,67,2558690680
10123,13,Improv_Metronome,304,5,42,127,2558907716
10123,13,Improv_Metronome,305,1,48,55,2558946364
10123,13,Improv_Metronome,306,5,42,127,2559407484
10123,13,Improv_Metronome,307,1,48,59,2559439100
10123,13,Improv_Metronome,308,5,42,127,2559908148
10123,13,Improv_Metronome,309,1,48,57,2559945524
10123,13,Improv_Metronome,310,5,42,127,2560407768
10123,13,Improv_Metronome,311,1,48,59,2560452700
10123,13,Improv_Metronome,312,5,42,127,2560907612
10123,13,Improv_Metronome,313,1,48,56,2560910204
10123,13,Improv_Metronome,314,5,42,127,2561408704
10123,13,Improv_Metronome,315,1,48,52,2561421496
10123,13,Improv_Metronome,316,5,42,127,2561908024
10123,13,Improv_Metronome,317,1,48,51,2561916676
10123,13,Improv_Metronome,318,5,42,127,2562407720
10123,13,Improv_Metronome,319,1,48,55,2562420112
10123,13,Improv_Metronome,320,5,42,127,2562907492
10123,13,Improv_Metronome,321,1,48,58,2562937608
10123,13,Improv_Metronome,322,1,48,72,2563388144
10123,13,Improv_Metronome,0,9999,9999,9999,2493405260
10123,13,Improv_Metronome,1,9999,9999,9999,2493906000
10123,13,Improv_Metronome,2,9999,9999,9999,2494405712
10123,13,Improv_Metronome,3,9999,9999,9999,2494905408
10123,13,Improv_Metronome,4,9999,9999,9999,2495405176
10123,13,Improv_Metronome,5,9999,9999,9999,2495905844
10123,13,Improv_Metronome,6,9999,9999,9999,2496405620
10123,13,Improv_Metronome,7,9999,9999,9999,2496905312
10123,13,Improv_Metronome,8,9999,9999,9999,2497406032
10123,13,Improv_Metronome,9,9999,9999,9999,2497905724
10123,13,Improv_Metronome,10,9999,9999,9999,2498405488
10123,13,Improv_Metronome,11,9999,9999,9999,2498905184
10123,13,Improv_Metronome,12,9999,9999,9999,2499405924
10123,13,Improv_Metronome,13,9999,9999,9999,2499905620
10123,13,Improv_Metronome,14,9999,9999,9999,2500405316
10123,13,Improv_Metronome,15,9999,9999,9999,2500906056
10123,13,Improv_Metronome,16,9999,9999,9999,2501405752
10123,13,Improv_Metronome,17,9999,9999,9999,2501905520
10123,13,Improv_Metronome,18,9999,9999,9999,2502405216
10123,13,Improv_Metronome,19,9999,9999,9999,2502905956
10123,13,Improv_Metronome,20,9999,9999,9999,2503405652
10123,13,Improv_Metronome,21,9999,9999,9999,2503905348
10123,13,Improv_Metronome,22,9999,9999,9999,2504406096
10123,13,Improv_Metronome,23,9999,9999,9999,2504905784
10123,13,Improv_Metronome,24,9999,9999,9999,2505405560
10123,13,Improv_Metronome,25,9999,9999,9999,2505905256
10123,13,Improv_Metronome,26,9999,9999,9999,2506405996
10123,13,Improv_Metronome,27,9999,9999,9999,2506905692
10123,13,Improv_Metronome,28,9999,9999,9999,2507405388
10123,13,Improv_Metronome,29,9999,9999,9999,2507905128
10123,13,Improv_Metronome,30,9999,9999,9999,2508405868
10123,13,Improv_Metronome,31,9999,9999,9999,2508905564
10123,13,Improv_Metronome,32,9999,9999,9999,2509405264
10123,13,Improv_Metronome,33,9999,9999,9999,2509905980
10123,13,Improv_Metronome,34,9999,9999,9999,2510405680
10123,13,Improv_Metronome,35,9999,9999,9999,2510905424
10123,13,Improv_Metronome,36,9999,9999,9999,2511405176
10123,13,Improv_Metronome,37,9999,9999,9999,2511905908
10123,13,Improv_Metronome,38,9999,9999,9999,2512405604
10123,13,Improv_Metronome,39,9999,9999,9999,2512905300
10123,13,Improv_Metronome,40,9999,9999,9999,2513406040
10123,13,Improv_Metronome,41,9999,9999,9999,2513905736
10123,13,Improv_Metronome,42,9999,9999,9999,2514405432
10123,13,Improv_Metronome,43,9999,9999,9999,2514905200
10123,13,Improv_Metronome,44,9999,9999,9999,2515405940
10123,13,Improv_Metronome,45,9999,9999,9999,2515905636
10123,13,Improv_Metronome,46,9999,9999,9999,2516405328
10123,13,Improv_Metronome,47,9999,9999,9999,2516906072
10123,13,Improv_Metronome,48,9999,9999,9999,2517405768
10123,13,Improv_Metronome,49,9999,9999,9999,2517905460
10123,13,Improv_Metronome,50,9999,9999,9999,2518405204
10123,13,Improv_Metronome,51,9999,9999,9999,2518905948
10123,13,Improv_Metronome,52,9999,9999,9999,2519405648
10123,13,Improv_Metronome,53,9999,9999,9999,2519905344
10123,13,Improv_Metronome,54,9999,9999,9999,2520406080
10123,13,Improv_Metronome,55,9999,9999,9999,2520905848
10123,13,Improv_Metronome,56,9999,9999,9999,2521405540
10123,13,Improv_Metronome,57,9999,9999,9999,2521905216
10123,13,Improv_Metronome,58,9999,9999,9999,2522405956
10123,13,Improv_Metronome,59,9999,9999,9999,2522905656
10123,13,Improv_Metronome,60,9999,9999,9999,2523405420
10123,13,Improv_Metronome,61,9999,9999,9999,2523905116
10123,13,Improv_Metronome,62,9999,9999,9999,2524405864
10123,13,Improv_Metronome,63,9999,9999,9999,2524905556
10123,13,Improv_Metronome,64,9999,9999,9999,2525405300
10123,13,Improv_Metronome,65,9999,9999,9999,2525905972
10123,13,Improv_Metronome,66,9999,9999,9999,2526405736
10123,13,Improv_Metronome,67,9999,9999,9999,2526905428
10123,13,Improv_Metronome,68,9999,9999,9999,2527405124
10123,13,Improv_Metronome,69,9999,9999,9999,2527905864
10123,13,Improv_Metronome,70,9999,9999,9999,2528405560
10123,13,Improv_Metronome,71,9999,9999,9999,2528905336
10123,13,Improv_Metronome,72,9999,9999,9999,2529406028
10123,13,Improv_Metronome,73,9999,9999,9999,2529905776
10123,13,Improv_Metronome,74,9999,9999,9999,2530405444
10123,13,Improv_Metronome,75,9999,9999,9999,2530905140
10123,13,Improv_Metronome,76,9999,9999,9999,2531405932
10123,13,Improv_Metronome,77,9999,9999,9999,2531905636
10123,13,Improv_Metronome,78,9999,9999,9999,2532405324
10123,13,Improv_Metronome,79,9999,9999,9999,2532906068
10123,13,Improv_Metronome,80,9999,9999,9999,2533405760
10123,13,Improv_Metronome,81,9999,9999,9999,2533905528
10123,13,Improv_Metronome,82,9999,9999,9999,2534405224
10123,13,Improv_Metronome,83,9999,9999,9999,2534905968
10123,13,Improv_Metronome,84,9999,9999,9999,2535405668
10123,13,Improv_Metronome,85,9999,9999,9999,2535905356
10123,13,Improv_Metronome,86,9999,9999,9999,2536406104
10123,13,Improv_Metronome,87,9999,9999,9999,2536905800
10123,13,Improv_Metronome,88,9999,9999,9999,2537405496
10123,13,Improv_Metronome,89,9999,9999,9999,2537905256
10123,13,Improv_Metronome,90,9999,9999,9999,2538405940
10123,13,Improv_Metronome,91,9999,9999,9999,2538905656
10123,13,Improv_Metronome,92,9999,9999,9999,2539405424
10123,13,Improv_Metronome,93,9999,9999,9999,2539905128
10123,13,Improv_Metronome,94,9999,9999,9999,2540405848
10123,13,Improv_Metronome,95,9999,9999,9999,2540905520
10123,13,Improv_Metronome,96,9999,9999,9999,2541405252
10123,13,Improv_Metronome,97,9999,9999,9999,2541905968
10123,13,Improv_Metronome,98,9999,9999,9999,2542405692
10123,13,Improv_Metronome,99,9999,9999,9999,2542905440
10123,13,Improv_Metronome,100,9999,9999,9999,2543405112
10123,13,Improv_Metronome,101,9999,9999,9999,2543905856
10123,13,Improv_Metronome,102,9999,9999,9999,2544405624
10123,13,Improv_Metronome,103,9999,9999,9999,2544905296
10123,13,Improv_Metronome,104,9999,9999,9999,2545406016
10123,13,Improv_Metronome,105,9999,9999,9999,2545905740
10123,13,Improv_Metronome,106,9999,9999,9999,2546405480
10123,13,Improv_Metronome,107,9999,9999,9999,2546905176
10123,13,Improv_Metronome,108,9999,9999,9999,2547405916
10123,13,Improv_Metronome,109,9999,9999,9999,2547905656
10123,13,Improv_Metronome,110,9999,9999,9999,2548405328
10123,13,Improv_Metronome,111,9999,9999,9999,2548906048
10123,13,Improv_Metronome,112,9999,9999,9999,2549405796
10123,13,Improv_Metronome,113,9999,9999,9999,2549905464
10123,13,Improv_Metronome,114,9999,9999,9999,2550405212
10123,13,Improv_Metronome,115,9999,9999,9999,2550905908
10123,13,Improv_Metronome,116,9999,9999,9999,2551405676
10123,13,Improv_Metronome,117,9999,9999,9999,2551905368
10123,13,Improv_Metronome,118,9999,9999,9999,2552406088
10123,13,Improv_Metronome,119,9999,9999,9999,2552905784
10123,13,Improv_Metronome,120,9999,9999,9999,2553405556
10123,13,Improv_Metronome,121,9999,9999,9999,2553905248
10123,13,Improv_Metronome,122,9999,9999,9999,2554405992
10123,13,Improv_Metronome,123,9999,9999,9999,2554905668
10123,13,Improv_Metronome,124,9999,9999,9999,2555405360
10123,13,Improv_Metronome,125,9999,9999,9999,2555905108
10123,13,Improv_Metronome,126,9999,9999,9999,2556405880
10123,13,Improv_Metronome,127,9999,9999,9999,2556905584
10123,13,Improv_Metronome,128,9999,9999,9999,2557405236
10123,13,Improv_Metronome,129,9999,9999,9999,2557906004
10123,13,Improv_Metronome,130,9999,9999,9999,2558405752
10123,13,Improv_Metronome,131,9999,9999,9999,2558905424
10123,13,Improv_Metronome,132,9999,9999,9999,2559405120
10123,13,Improv_Metronome,133,9999,9999,9999,2559905860
10123,13,Improv_Metronome,134,9999,9999,9999,2560405556
10123,13,Improv_Metronome,135,9999,9999,9999,2560905324
10123,13,Improv_Metronome,136,9999,9999,9999,2561406040
10123,13,Improv_Metronome,137,9999,9999,9999,2561905736
10123,13,Improv_Metronome,138,9999,9999,9999,2562405432
10123,13,Improv_Metronome,139,9999,9999,9999,2562905204
10124,14,Improv_Melody,0,2,48,80,2617568744
10124,14,Improv_Melody,1,2,72,80,2617571344
10124,14,Improv_Melody,2,5,42,127,2617573052
10124,14,Improv_Melody,3,5,42,110,2618066196
10124,14,Improv_Melody,4,5,42,110,2618566136
10124,14,Improv_Melody,5,5,42,110,2619065784
10124,14,Improv_Melody,6,5,42,127,2619565284
10124,14,Improv_Melody,7,5,42,110,2620066128
10124,14,Improv_Melody,8,5,42,110,2620565852
10124,14,Improv_Melody,9,5,42,110,2621065720
10124,14,Improv_Melody,10,2,43,80,2621568896
10124,14,Improv_Melody,11,2,67,80,2621571308
10124,14,Improv_Melody,12,5,42,127,2621573768
10124,14,Improv_Melody,13,5,42,110,2622065916
10124,14,Improv_Melody,14,5,42,110,2622565784
10124,14,Improv_Melody,15,5,42,110,2623065580
10124,14,Improv_Melody,16,5,42,127,2623566128
10124,14,Improv_Melody,17,5,42,110,2624065848
10124,14,Improv_Melody,18,5,42,110,2624565644
10124,14,Improv_Melody,19,5,42,110,2625066264
10124,14,Improv_Melody,20,2,45,80,2625568712
10124,14,Improv_Melody,21,2,69,80,2625570712
10124,14,Improv_Melody,22,5,42,127,2625573180
10124,14,Improv_Melody,23,5,42,110,2626065720
10124,14,Improv_Melody,24,5,42,110,2626565588
10124,14,Improv_Melody,25,5,42,110,2627066208
10124,14,Improv_Melody,26,5,42,127,2627566004
10124,14,Improv_Melody,27,5,42,110,2628065728
10124,14,Improv_Melody,28,5,42,110,2628566644
10124,14,Improv_Melody,29,5,42,110,2629066140
10124,14,Improv_Melody,30,2,41,80,2629568216
10124,14,Improv_Melody,31,2,65,80,2629570296
10124,14,Improv_Melody,32,5,42,127,2629572836
10124,14,Improv_Melody,33,5,42,110,2630065600
10124,14,Improv_Melody,34,5,42,110,2630566144
10124,14,Improv_Melody,35,5,42,110,2631066088
10124,14,Improv_Melody,36,5,42,127,2631565740
10124,14,Improv_Melody,37,5,42,110,2632066804
10124,14,Improv_Melody,38,5,42,110,2632566128
10124,14,Improv_Melody,39,5,42,110,2633065776
10124,14,Improv_Melody,40,2,48,80,2633568000
10124,14,Improv_Melody,41,2,72,80,2633570228
10124,14,Improv_Melody,42,5,42,127,2633572692
10124,14,Improv_Melody,43,1,48,51,2633579704
10124,14,Improv_Melody,44,1,48,32,2634044296
10124,14,Improv_Melody,45,5,42,110,2634066400
10124,14,Improv_Melody,46,5,42,110,2634565960
10124,14,Improv_Melody,47,1,48,51,2634571996
10124,14,Improv_Melody,48,5,42,110,2635065584
10124,14,Improv_Melody,49,1,48,48,2635078648
10124,14,Improv_Melody,50,1,48,52,2635551696
10124,14,Improv_Melody,51,5,42,127,2635565500
10124,14,Improv_Melody,52,1,48,45,2636041352
10124,14,Improv_Melody,53,5,42,110,2636066224
10124,14,Improv_Melody,54,5,42,110,2636565780
10124,14,Improv_Melody,55,1,48,46,2636574656
10124,14,Improv_Melody,56,1,48,43,2637044416
10124,14,Improv_Melody,57,5,42,110,2637065624
10124,14,Improv_Melody,58,1,38,71,2637540528
10124,14,Improv_Melody,59,1,38,52,2637562272
10124,14,Improv_Melody,60,2,43,80,2637569084
10124,14,Improv_Melody,61,2,67,80,2637571156
10124,14,Improv_Melody,62,5,42,127,2637573692
10124,14,Improv_Melody,63,1,48,52,2638059068
10124,14,Improv_Melody,64,5,42,110,2638066140
10124,14,Improv_Melody,65,1,48,52,2638556452
10124,14,Improv_Melody,66,5,42,110,2638565764
10124,14,Improv_Melody,67,1,48,47,2639048444
10124,14,Improv_Melody,68,5,42,110,2639065612
10124,14,Improv_Melody,69,1,48,47,2639533116
10124,14,Improv_Melody,70,5,42,127,2639566288
10124,14,Improv_Melody,71,1,48,49,2640033780
10124,14,Improv_Melody,72,5,42,110,2640065760
10124,14,Improv_Melody,73,5,42,110,2640565544
10124,14,Improv_Melody,74,1,48,48,2640577336
10124,14,Improv_Melody,75,1,48,54,2641041712
10124,14,Improv_Melody,76,5,42,110,2641066728
10124,14,Improv_Melody,77,1,38,92,2641539316
10124,14,Improv_Melody,78,1,38,63,2641564096
10124,14,Improv_Melody,79,2,45,80,2641569364
10124,14,Improv_Melody,80,2,69,80,2641571292
10124,14,Improv_Melody,81,5,42,127,2641573904
10124,14,Improv_Melody,82,1,48,57,2642036440
10124,14,Improv_Melody,83,5,42,110,2642065676
10124,14,Improv_Melody,84,5,42,110,2642565384
10124,14,Improv_Melody,85,1,48,57,2642566420
10124,14,Improv_Melody,86,5,42,110,2643066400
10124,14,Improv_Melody,87,1,48,59,2643079044
10124,14,Improv_Melody,88,1,48,64,2643565656
10124,14,Improv_Melody,89,5,42,127,2643567144
10124,14,Improv_Melody,90,1,48,45,2643592712
10124,14,Improv_Melody,91,1,48,59,2644053764
10124,14,Improv_Melody,92,5,42,110,2644065624
10124,14,Improv_Melody,93,5,42,110,2644566376
10124,14,Improv_Melody,94,1,48,56,2644575408
10124,14,Improv_Melody,95,5,42,110,2645066152
10124,14,Improv_Melody,96,1,48,64,2645071512
10124,14,Improv_Melody,97,2,41,80,2645568508
10124,14,Improv_Melody,98,2,65,80,2645570508
10124,14,Improv_Melody,99,5,42,127,2645573048
10124,14,Improv_Melody,100,1,38,90,2645581328
10124,14,Improv_Melody,101,1,38,62,2645606212
10124,14,Improv_Melody,102,5,42,110,2646065620
10124,14,Improv_Melody,103,1,48,58,2646090728
10124,14,Improv_Melody,104,5,42,110,2646566216
10124,14,Improv_Melody,105,1,48,58,2646581076
10124,14,Improv_Melody,106,5,42,110,2647066064
10124,14,Improv_Melody,107,1,48,67,2647072476
10124,14,Improv_Melody,108,1,48,46,2647100580
10124,14,Improv_Melody,109,5,42,127,2647565672
10124,14,Improv_Melody,110,1,48,65,2647585320
10124,14,Improv_Melody,111,1,48,45,2647613796
10124,14,Improv_Melody,112,1,48,61,2648061264
10124,14,Improv_Melody,113,5,42,110,2648066536
10124,14,Improv_Melody,114,5,42,110,2648566244
10124,14,Improv_Melody,115,1,48,57,2648600032
10124,14,Improv_Melody,116,5,42,110,2649065796
10124,14,Improv_Melody,117,1,48,75,2649103244
10124,14,Improv_Melody,118,2,48,80,2649567848
10124,14,Improv_Melody,119,2,72,80,2649570380
10124,14,Improv_Melody,120,5,42,127,2649572692
10124,14,Improv_Melody,121,1,38,74,2649615528
10124,14,Improv_Melody,122,1,38,70,2649923772
10124,14,Improv_Melody,123,5,42,110,2650066384
10124,14,Improv_Melody,124,1,38,67,2650171976
10124,14,Improv_Melody,125,1,38,64,2650497072
10124,14,Improv_Melody,126,5,42,110,2650566072
10124,14,Improv_Melody,127,1,38,59,2650637468
10124,14,Improv_Melody,128,1,38,89,2650951696
10124,14,Improv_Melody,129,1,38,42,2650993184
10124,14,Improv_Melody,130,5,42,110,2651065652
10124,14,Improv_Melody,131,1,48,58,2651271412
10124,14,Improv_Melody,132,5,42,127,2651565492
10124,14,Improv_Melody,133,1,48,98,2651566456
10124,14,Improv_Melody,134,5,42,110,2652066088
10124,14,Improv_Melody,135,1,48,73,2652133832
10124,14,Improv_Melody,136,1,48,72,2652533552
10124,14,Improv_Melody,137,5,42,110,2652565928
10124,14,Improv_Melody,138,1,48,38,2652573224
10124,14,Improv_Melody,139,1,48,86,2653045272
10124,14,Improv_Melody,140,5,42,110,2653065684
10124,14,Improv_Melody,141,1,48,51,2653074096
10124,14,Improv_Melody,142,2,43,80,2653568920
10124,14,Improv_Melody,143,2,67,80,2653571148
10124,14,Improv_Melody,144,1,48,89,2653572416
10124,14,Improv_Melody,145,5,42,127,2653574872
10124,14,Improv_Melody,146,1,48,62,2653594736
10124,14,Improv_Melody,147,5,42,110,2654066156
10124,14,Improv_Melody,148,1,38,40,2654126672
10124,14,Improv_Melody,149,1,48,49,2654510088
10124,14,Improv_Melody,150,5,42,110,2654565704
10124,14,Improv_Melody,151,5,42,110,2655065560
10124,14,Improv_Melody,152,1,48,64,2655089700
10124,14,Improv_Melody,153,5,42,127,2655566304
10124,14,Improv_Melody,154,1,48,58,2655594708
10124,14,Improv_Melody,155,1,48,64,2656054888
10124,14,Improv_Melody,156,5,42,110,2656065996
10124,14,Improv_Melody,157,1,48,69,2656541052
10124,14,Improv_Melody,158,5,42,110,2656565548
10124,14,Improv_Melody,159,1,48,74,2657056380
10124,14,Improv_Melody,160,5,42,110,2657066368
10124,14,Improv_Melody,161,1,48,57,2657078672
10124,14,Improv_Melody,162,1,38,76,2657552472
10124,14,Improv_Melody,163,2,45,80,2657568784
10124,14,Improv_Melody,164,2,69,80,2657570932
10124,14,Improv_Melody,165,5,42,127,2657573464
10124,14,Improv_Melody,166,1,38,53,2657579936
10124,14,Improv_Melody,167,5,42,110,2658065824
10124,14,Improv_Melody,168,1,48,59,2658066860
10124,14,Improv_Melody,169,5,42,110,2658565524
10124,14,Improv_Melody,170,1,48,72,2658569164
10124,14,Improv_Melody,171,1,48,57,2658591208
10124,14,Improv_Melody,172,1,48,69,2659040696
10124,14,Improv_Melody,173,5,42,110,2659066392
10124,14,Improv_Melody,174,1,48,77,2659542120
10124,14,Improv_Melody,175,1,48,54,2659565328
10124,14,Improv_Melody,176,5,42,127,2659566368
10124,14,Improv_Melody,177,1,48,80,2660047932
10124,14,Improv_Melody,178,5,42,110,2660065768
10124,14,Improv_Melody,179,1,48,54,2660073588
10124,14,Improv_Melody,180,5,42,110,2660566276
10124,14,Improv_Melody,181,1,48,89,2660569020
10124,14,Improv_Melody,182,5,42,110,2661066200
10124,14,Improv_Melody,183,1,48,90,2661089368
10124,14,Improv_Melody,184,1,48,60,2661115000
10124,14,Improv_Melody,185,2,41,80,2661568460
10124,14,Improv_Melody,186,2,65,80,2661570384
10124,14,Improv_Melody,187,5,42,127,2661573148
10124,14,Improv_Melody,188,1,38,80,2661580156
10124,14,Improv_Melody,189,1,38,32,2661631668
10124,14,Improv_Melody,190,5,42,110,2662065572
10124,14,Improv_Melody,191,1,48,72,2662125616
10124,14,Improv_Melody,192,1,48,84,2662542260
10124,14,Improv_Melody,193,5,42,110,2662566312
10124,14,Improv_Melody,194,5,42,110,2663066092
10124,14,Improv_Melody,195,1,48,85,2663081184
10124,14,Improv_Melody,196,1,48,71,2663561340
10124,14,Improv_Melody,197,5,42,127,2663565564
10124,14,Improv_Melody,198,1,48,41,2663612800
10124,14,Improv_Melody,199,1,48,76,2664045208
10124,14,Improv_Melody,200,5,42,110,2664066288
10124,14,Improv_Melody,201,5,42,110,2664566192
10124,14,Improv_Melody,202,1,48,75,2664579956
10124,14,Improv_Melody,203,5,42,110,2665065968
10124,14,Improv_Melody,204,1,48,73,2665080828
10124,14,Improv_Melody,205,1,48,44,2665115464
10124,14,Improv_Melody,206,2,48,80,2665567852
10124,14,Improv_Melody,207,2,72,80,2665570080
10124,14,Improv_Melody,208,5,42,127,2665572620
10124,14,Improv_Melody,209,1,38,117,2665573880
10124,14,Improv_Melody,210,1,38,70,2665599424
10124,14,Improv_Melody,211,1,38,79,2666034976
10124,14,Improv_Melody,212,1,38,60,2666053952
10124,14,Improv_Melody,213,5,42,110,2666066260
10124,14,Improv_Melody,214,1,38,90,2666531140
10124,14,Improv_Melody,215,1,38,59,2666551832
10124,14,Improv_Melody,216,5,42,110,2666566084
10124,14,Improv_Melody,217,1,38,92,2667026776
10124,14,Improv_Melody,218,1,38,66,2667050984
10124,14,Improv_Melody,219,5,42,110,2667065836
10124,14,Improv_Melody,220,1,38,73,2667505212
10124,14,Improv_Melody,221,1,38,50,2667529048
10124,14,Improv_Melody,222,5,42,127,2667565440
10124,14,Improv_Melody,223,1,38,114,2667997932
10124,14,Improv_Melody,224,1,38,70,2668019524
10124,14,Improv_Melody,225,5,42,110,2668066240
10124,14,Improv_Melody,226,1,38,96,2668483100
10124,14,Improv_Melody,227,1,38,59,2668504696
10124,14,Improv_Melody,228,5,42,110,2668566068
10124,14,Improv_Melody,229,1,38,105,2668990928
10124,14,Improv_Melody,230,5,42,110,2669065468
10124,14,Improv_Melody,231,1,48,103,2669496160
10124,14,Improv_Melody,232,1,48,58,2669524936
10124,14,Improv_Melody,233,2,43,80,2669568696
10124,14,Improv_Melody,234,2,67,80,2669570924
10124,14,Improv_Melody,235,5,42,127,2669573464
10124,14,Improv_Melody,236,1,38,90,2670035424
10124,14,Improv_Melody,237,1,38,53,2670067460
10124,14,Improv_Melody,238,5,42,110,2670069548
10124,14,Improv_Melody,239,1,38,86,2670515212
10124,14,Improv_Melody,240,5,42,110,2670565660
10124,14,Improv_Melody,241,1,38,91,2670988432
10124,14,Improv_Melody,242,1,38,61,2671015040
10124,14,Improv_Melody,243,5,42,110,2671065492
10124,14,Improv_Melody,244,1,38,102,2671488036
10124,14,Improv_Melody,245,1,38,67,2671512468
10124,14,Improv_Melody,246,5,42,127,2671566220
10124,14,Improv_Melody,247,1,38,87,2671991056
10124,14,Improv_Melody,248,1,38,59,2672016492
10124,14,Improv_Melody,249,5,42,110,2672066268
10124,14,Improv_Melody,250,1,38,97,2672479136
10124,14,Improv_Melody,251,5,42,110,2672565596
10124,14,Improv_Melody,252,1,38,112,2672981012
10124,14,Improv_Melody,253,1,38,70,2673002752
10124,14,Improv_Melody,254,5,42,110,2673066244
10124,14,Improv_Melody,255,1,48,127,2673500880
10124,14,Improv_Melody,256,1,48,87,2673520156
10124,14,Improv_Melody,257,2,45,80,2673568424
10124,14,Improv_Melody,258,2,69,80,2673570880
10124,14,Improv_Melody,259,5,42,127,2673573412
10124,14,Improv_Melody,260,1,38,94,2674037000
10124,14,Improv_Melody,261,1,38,56,2674065624
10124,14,Improv_Melody,262,5,42,110,2674068156
10124,14,Improv_Melody,263,1,38,84,2674505788
10124,14,Improv_Melody,264,1,38,54,2674532396
10124,14,Improv_Melody,265,5,42,110,2674565368
10124,14,Improv_Melody,266,1,38,95,2675032840
10124,14,Improv_Melody,267,1,38,62,2675059748
10124,14,Improv_Melody,268,5,42,110,2675066220
10124,14,Improv_Melody,269,1,38,100,2675505964
10124,14,Improv_Melody,270,1,38,64,2675534216
10124,14,Improv_Melody,271,5,42,127,2675566120
10124,14,Improv_Melody,272,1,38,92,2675981708
10124,14,Improv_Melody,273,1,38,65,2676004348
10124,14,Improv_Melody,274,5,42,110,2676065572
10124,14,Improv_Melody,275,1,38,95,2676508164
10124,14,Improv_Melody,276,5,42,110,2676566248
10124,14,Improv_Melody,277,1,38,90,2677034120
10124,14,Improv_Melody,278,5,42,110,2677066096
10124,14,Improv_Melody,279,1,48,124,2677547952
10124,14,Improv_Melody,280,2,41,80,2677568452
10124,14,Improv_Melody,281,2,65,80,2677570680
10124,14,Improv_Melody,282,5,42,127,2677573212
10124,14,Improv_Melody,283,1,48,62,2677580132
10124,14,Improv_Melody,284,1,48,48,2677992144
10124,14,Improv_Melody,285,5,42,110,2678065564
10124,14,Improv_Melody,286,1,38,72,2678249252
10124,14,Improv_Melody,287,1,38,53,2678270624
10124,14,Improv_Melody,288,5,42,110,2678566272
10124,14,Improv_Melody,289,1,38,81,2678685576
10124,14,Improv_Melody,290,5,42,110,2679066124
10124,14,Improv_Melody,291,1,38,92,2679179816
10124,14,Improv_Melody,292,1,38,64,2679204476
10124,14,Improv_Melody,293,5,42,127,2679566172
10124,14,Improv_Melody,294,1,38,88,2679623148
10124,14,Improv_Melody,295,1,38,62,2679648032
10124,14,Improv_Melody,296,1,38,82,2680056908
10124,14,Improv_Melody,297,5,42,110,2680066296
10124,14,Improv_Melody,298,1,38,62,2680079572
10124,14,Improv_Melody,299,5,42,110,2680566056
10124,14,Improv_Melody,300,1,38,84,2680591540
10124,14,Improv_Melody,301,1,38,58,2680615896
10124,14,Improv_Melody,302,5,42,110,2681066028
10124,14,Improv_Melody,303,1,48,117,2681068476
10124,14,Improv_Melody,304,1,48,76,2681088056
10124,14,Improv_Melody,305,2,48,80,2681568296
10124,14,Improv_Melody,306,2,72,80,2681570592
10124,14,Improv_Melody,307,5,42,127,2681573128
10124,14,Improv_Melody,308,1,38,92,2681630252
10124,14,Improv_Melody,309,1,38,62,2681652968
10124,14,Improv_Melody,310,5,42,110,2682066376
10124,14,Improv_Melody,311,1,38,46,2682106740
10124,14,Improv_Melody,312,5,42,110,2682566076
10124,14,Improv_Melody,313,1,48,32,2682611904
10124,14,Improv_Melody,314,1,48,19,2682978864
10124,14,Improv_Melody,315,5,42,110,2683065992
10124,14,Improv_Melody,316,5,42,127,2683565328
10124,14,Improv_Melody,317,1,38,25,2683975592
10124,14,Improv_Melody,318,5,42,110,2684067120
10124,14,Improv_Melody,319,1,48,43,2684127460
10124,14,Improv_Melody,320,1,48,36,2684514392
10124,14,Improv_Melody,321,5,42,110,2684565916
10124,14,Improv_Melody,322,1,48,45,2685065620
10124,14,Improv_Melody,323,5,42,110,2685066884
10124,14,Improv_Melody,324,1,38,86,2685548800
10124,14,Improv_Melody,325,2,43,80,2685568956
10124,14,Improv_Melody,326,2,67,80,2685571112
10124,14,Improv_Melody,327,5,42,127,2685573792
10124,14,Improv_Melody,328,1,48,69,2686057124
10124,14,Improv_Melody,329,5,42,110,2686065992
10124,14,Improv_Melody,330,1,48,52,2686081460
10124,14,Improv_Melody,331,1,48,67,2686551716
10124,14,Improv_Melody,332,5,42,110,2686565668
10124,14,Improv_Melody,333,1,48,51,2686573332
10124,14,Improv_Melody,334,1,48,67,2687032316
10124,14,Improv_Melody,335,1,48,47,2687060868
10124,14,Improv_Melody,336,5,42,110,2687065324
10124,14,Improv_Melody,337,1,48,69,2687552648
10124,14,Improv_Melody,338,5,42,127,2687566148
10124,14,Improv_Melody,339,1,48,46,2687585708
10124,14,Improv_Melody,340,1,48,60,2688058532
10124,14,Improv_Melody,341,5,42,110,2688065824
10124,14,Improv_Melody,342,1,48,44,2688086652
10124,14,Improv_Melody,343,1,48,62,2688546684
10124,14,Improv_Melody,344,5,42,110,2688565724
10124,14,Improv_Melody,345,1,48,64,2689031204
10124,14,Improv_Melody,346,5,42,110,2689066396
10124,14,Improv_Melody,347,1,38,84,2689541524
10124,14,Improv_Melody,348,1,38,62,2689563988
10124,14,Improv_Melody,349,2,45,80,2689569108
10124,14,Improv_Melody,350,2,69,80,2689571332
10124,14,Improv_Melody,351,5,42,127,2689573864
10124,14,Improv_Melody,352,1,48,78,2690024540
10124,14,Improv_Melody,353,1,48,59,2690047180
10124,14,Improv_Melody,354,5,42,110,2690065916
10124,14,Improv_Melody,355,1,48,64,2690530572
10124,14,Improv_Melody,356,5,42,110,2690565616
10124,14,Improv_Melody,357,1,48,69,2691028032
10124,14,Improv_Melody,358,1,48,52,2691052168
10124,14,Improv_Melody,359,5,42,110,2691066120
10124,14,Improv_Melody,360,1,48,70,2691546784
10124,14,Improv_Melody,361,5,42,127,2691565896
10124,14,Improv_Melody,362,1,48,70,2692032572
10124,14,Improv_Melody,363,5,42,110,2692065744
10124,14,Improv_Melody,364,1,48,68,2692530624
10124,14,Improv_Melody,365,5,42,110,2692566564
10124,14,Improv_Melody,366,1,48,83,2693034140
10124,14,Improv_Melody,367,1,48,58,2693057448
10124,14,Improv_Melody,368,5,42,110,2693066092
10124,14,Improv_Melody,369,1,38,114,2693537776
10124,14,Improv_Melody,370,1,38,73,2693560868
10124,14,Improv_Melody,371,2,41,80,2693568272
10124,14,Improv_Melody,372,2,65,80,2693570428
10124,14,Improv_Melody,373,5,42,127,2693573116
10124,14,Improv_Melody,374,1,48,84,2694019744
10124,14,Improv_Melody,375,1,48,62,2694042532
10124,14,Improv_Melody,376,5,42,110,2694065612
10124,14,Improv_Melody,377,1,48,77,2694546124
10124,14,Improv_Melody,378,5,42,110,2694566284
10124,14,Improv_Melody,379,1,48,56,2694571036
10124,14,Improv_Melody,380,1,48,66,2695032684
10124,14,Improv_Melody,381,5,42,110,2695065888
10124,14,Improv_Melody,382,1,48,66,2695519300
10124,14,Improv_Melody,383,1,48,51,2695541640
10124,14,Improv_Melody,384,5,42,127,2695565716
10124,14,Improv_Melody,385,1,48,62,2696021740
10124,14,Improv_Melody,386,5,42,110,2696066384
10124,14,Improv_Melody,387,1,48,73,2696547400
10124,14,Improv_Melody,388,5,42,110,2696566060
10124,14,Improv_Melody,389,1,48,64,2697030792
10124,14,Improv_Melody,390,5,42,110,2697065760
10124,14,Improv_Melody,391,1,38,108,2697525176
10124,14,Improv_Melody,392,1,38,73,2697544008
10124,14,Improv_Melody,393,2,48,80,2697568168
10124,14,Improv_Melody,394,2,72,80,2697570468
10124,14,Improv_Melody,395,5,42,127,2697573004
10124,14,Improv_Melody,396,1,48,77,2698032204
10124,14,Improv_Melody,397,5,42,110,2698066196
10124,14,Improv_Melody,0,9999,9999,9999,2617563244
10124,14,Improv_Melody,1,9999,9999,9999,2618063976
10124,14,Improv_Melody,2,9999,9999,9999,2618563696
10124,14,Improv_Melody,3,9999,9999,9999,2619063344
10124,14,Improv_Melody,4,9999,9999,9999,2619563068
10124,14,Improv_Melody,5,9999,9999,9999,2620063836
10124,14,Improv_Melody,6,9999,9999,9999,2620563556
10124,14,Improv_Melody,7,9999,9999,9999,2621063280
10124,14,Improv_Melody,8,9999,9999,9999,2621564024
10124,14,Improv_Melody,9,9999,9999,9999,2622063696
10124,14,Improv_Melody,10,9999,9999,9999,2622563416
10124,14,Improv_Melody,11,9999,9999,9999,2623063140
10124,14,Improv_Melody,12,9999,9999,9999,2623563832
10124,14,Improv_Melody,13,9999,9999,9999,2624063556
10124,14,Improv_Melody,14,9999,9999,9999,2624563276
10124,14,Improv_Melody,15,9999,9999,9999,2625064044
10124,14,Improv_Melody,16,9999,9999,9999,2625563764
10124,14,Improv_Melody,17,9999,9999,9999,2626063428
10124,14,Improv_Melody,18,9999,9999,9999,2626563148
10124,14,Improv_Melody,19,9999,9999,9999,2627063916
10124,14,Improv_Melody,20,9999,9999,9999,2627563636
10124,14,Improv_Melody,21,9999,9999,9999,2628063284
10124,14,Improv_Melody,22,9999,9999,9999,2628564052
10124,14,Improv_Melody,23,9999,9999,9999,2629063776
10124,14,Improv_Melody,24,9999,9999,9999,2629563496
10124,14,Improv_Melody,25,9999,9999,9999,2630063160
10124,14,Improv_Melody,26,9999,9999,9999,2630563928
10124,14,Improv_Melody,27,9999,9999,9999,2631063648
10124,14,Improv_Melody,28,9999,9999,9999,2631563372
10124,14,Improv_Melody,29,9999,9999,9999,2632064116
10124,14,Improv_Melody,30,9999,9999,9999,2632563764
10124,14,Improv_Melody,31,9999,9999,9999,2633063484
10124,14,Improv_Melody,32,9999,9999,9999,2633563208
10124,14,Improv_Melody,33,9999,9999,9999,2634063960
10124,14,Improv_Melody,34,9999,9999,9999,2634563664
10124,14,Improv_Melody,35,9999,9999,9999,2635063368
10124,14,Improv_Melody,36,9999,9999,9999,2635563060
10124,14,Improv_Melody,37,9999,9999,9999,2636063856
10124,14,Improv_Melody,38,9999,9999,9999,2636563564
10124,14,Improv_Melody,39,9999,9999,9999,2637063256
10124,14,Improv_Melody,40,9999,9999,9999,2637563984
10124,14,Improv_Melody,41,9999,9999,9999,2638063696
10124,14,Improv_Melody,42,9999,9999,9999,2638563396
10124,14,Improv_Melody,43,9999,9999,9999,2639063096
10124,14,Improv_Melody,44,9999,9999,9999,2639563844
10124,14,Improv_Melody,45,9999,9999,9999,2640063544
10124,14,Improv_Melody,46,9999,9999,9999,2640563252
10124,14,Improv_Melody,47,9999,9999,9999,2641063992
10124,14,Improv_Melody,48,9999,9999,9999,2641563772
10124,14,Improv_Melody,49,9999,9999,9999,2642063456
10124,14,Improv_Melody,50,9999,9999,9999,2642563164
10124,14,Improv_Melody,51,9999,9999,9999,2643063884
10124,14,Improv_Melody,52,9999,9999,9999,2643563588
10124,14,Improv_Melody,53,9999,9999,9999,2644063332
10124,14,Improv_Melody,54,9999,9999,9999,2644564084
10124,14,Improv_Melody,55,9999,9999,9999,2645063784
10124,14,Improv_Melody,56,9999,9999,9999,2645563484
10124,14,Improv_Melody,57,9999,9999,9999,2646063180
10124,14,Improv_Melody,58,9999,9999,9999,2646563924
10124,14,Improv_Melody,59,9999,9999,9999,2647063624
10124,14,Improv_Melody,60,9999,9999,9999,2647563380
10124,14,Improv_Melody,61,9999,9999,9999,2648064096
10124,14,Improv_Melody,62,9999,9999,9999,2648563804
10124,14,Improv_Melody,63,9999,9999,9999,2649063504
10124,14,Improv_Melody,64,9999,9999,9999,2649563204
10124,14,Improv_Melody,65,9999,9999,9999,2650063944
10124,14,Improv_Melody,66,9999,9999,9999,2650563704
10124,14,Improv_Melody,67,9999,9999,9999,2651063360
10124,14,Improv_Melody,68,9999,9999,9999,2651563124
10124,14,Improv_Melody,69,9999,9999,9999,2652063796
10124,14,Improv_Melody,70,9999,9999,9999,2652563564
10124,14,Improv_Melody,71,9999,9999,9999,2653063240
10124,14,Improv_Melody,72,9999,9999,9999,2653564024
10124,14,Improv_Melody,73,9999,9999,9999,2654063716
10124,14,Improv_Melody,74,9999,9999,9999,2654563408
10124,14,Improv_Melody,75,9999,9999,9999,2655063116
10124,14,Improv_Melody,76,9999,9999,9999,2655563864
10124,14,Improv_Melody,77,9999,9999,9999,2656063556
10124,14,Improv_Melody,78,9999,9999,9999,2656563256
10124,14,Improv_Melody,79,9999,9999,9999,2657064004
10124,14,Improv_Melody,80,9999,9999,9999,2657563756
10124,14,Improv_Melody,81,9999,9999,9999,2658063456
10124,14,Improv_Melody,82,9999,9999,9999,2658563156
10124,14,Improv_Melody,83,9999,9999,9999,2659063876
10124,14,Improv_Melody,84,9999,9999,9999,2659563576
10124,14,Improv_Melody,85,9999,9999,9999,2660063328
10124,14,Improv_Melody,86,9999,9999,9999,2660564060
10124,14,Improv_Melody,87,9999,9999,9999,2661063760
10124,14,Improv_Melody,88,9999,9999,9999,2661563512
10124,14,Improv_Melody,89,9999,9999,9999,2662063204
10124,14,Improv_Melody,90,9999,9999,9999,2662563944
10124,14,Improv_Melody,91,9999,9999,9999,2663063652
10124,14,Improv_Melody,92,9999,9999,9999,2663563348
10124,14,Improv_Melody,93,9999,9999,9999,2664064072
10124,14,Improv_Melody,94,9999,9999,9999,2664563828
10124,14,Improv_Melody,95,9999,9999,9999,2665063528
10124,14,Improv_Melody,96,9999,9999,9999,2665563204
10124,14,Improv_Melody,97,9999,9999,9999,2666063968
10124,14,Improv_Melody,98,9999,9999,9999,2666563644
10124,14,Improv_Melody,99,9999,9999,9999,2667063396
10124,14,Improv_Melody,100,9999,9999,9999,2667563076
10124,14,Improv_Melody,101,9999,9999,9999,2668063800
10124,14,Improv_Melody,102,9999,9999,9999,2668563552
10124,14,Improv_Melody,103,9999,9999,9999,2669063248
10124,14,Improv_Melody,104,9999,9999,9999,2669563976
10124,14,Improv_Melody,105,9999,9999,9999,2670063688
10124,14,Improv_Melody,106,9999,9999,9999,2670563444
10124,14,Improv_Melody,107,9999,9999,9999,2671063124
10124,14,Improv_Melody,108,9999,9999,9999,2671563848
10124,14,Improv_Melody,109,9999,9999,9999,2672063604
10124,14,Improv_Melody,110,9999,9999,9999,2672563300
10124,14,Improv_Melody,111,9999,9999,9999,2673064028
10124,14,Improv_Melody,112,9999,9999,9999,2673563704
10124,14,Improv_Melody,113,9999,9999,9999,2674063420
10124,14,Improv_Melody,114,9999,9999,9999,2674563152
10124,14,Improv_Melody,115,9999,9999,9999,2675063924
10124,14,Improv_Melody,116,9999,9999,9999,2675563604
10124,14,Improv_Melody,117,9999,9999,9999,2676063280
10124,14,Improv_Melody,118,9999,9999,9999,2676564028
10124,14,Improv_Melody,119,9999,9999,9999,2677063728
10124,14,Improv_Melody,120,9999,9999,9999,2677563504
10124,14,Improv_Melody,121,9999,9999,9999,2678063196
10124,14,Improv_Melody,122,9999,9999,9999,2678563908
10124,14,Improv_Melody,123,9999,9999,9999,2679063608
10124,14,Improv_Melody,124,9999,9999,9999,2679563360
10124,14,Improv_Melody,125,9999,9999,9999,2680064080
10124,14,Improv_Melody,126,9999,9999,9999,2680563760
10124,14,Improv_Melody,127,9999,9999,9999,2681063512
10124,14,Improv_Melody,128,9999,9999,9999,2681563192
10124,14,Improv_Melody,129,9999,9999,9999,2682063932
10124,14,Improv_Melody,130,9999,9999,9999,2682563632
10124,14,Improv_Melody,131,9999,9999,9999,2683063400
10124,14,Improv_Melody,132,9999,9999,9999,2683563108
10124,14,Improv_Melody,133,9999,9999,9999,2684063796
10124,14,Improv_Melody,134,9999,9999,9999,2684563548
10124,14,Improv_Melody,135,9999,9999,9999,2685063256
10124,14,Improv_Melody,136,9999,9999,9999,2685563972
10124,14,Improv_Melody,137,9999,9999,9999,2686063700
10124,14,Improv_Melody,138,9999,9999,9999,2686563376
10124,14,Improv_Melody,139,9999,9999,9999,2687063108
10124,14,Improv_Melody,140,9999,9999,9999,2687563856
10124,14,Improv_Melody,141,9999,9999,9999,2688063608
10124,14,Improv_Melody,142,9999,9999,9999,2688563284
10124,14,Improv_Melody,143,9999,9999,9999,2689064028
10124,14,Improv_Melody,144,9999,9999,9999,2689563748
10124,14,Improv_Melody,145,9999,9999,9999,2690063476
10124,14,Improv_Melody,146,9999,9999,9999,2690563176
10124,14,Improv_Melody,147,9999,9999,9999,2691063904
10124,14,Improv_Melody,148,9999,9999,9999,2691563604
10124,14,Improv_Melody,149,9999,9999,9999,2692063304
10124,14,Improv_Melody,150,9999,9999,9999,2692564052
10124,14,Improv_Melody,151,9999,9999,9999,2693063800
10124,14,Improv_Melody,152,9999,9999,9999,2693563480
10124,14,Improv_Melody,153,9999,9999,9999,2694063172
10124,14,Improv_Melody,154,9999,9999,9999,2694563920
10124,14,Improv_Melody,155,9999,9999,9999,2695063672
10124,14,Improv_Melody,156,9999,9999,9999,2695563348
10124,14,Improv_Melody,157,9999,9999,9999,2696064096
10124,14,Improv_Melody,158,9999,9999,9999,2696563768
10124,14,Improv_Melody,159,9999,9999,9999,2697063540
10124,14,Improv_Melody,160,9999,9999,9999,2697563220
10124,14,Improv_Melody,161,9999,9999,9999,2698063980
101