pid,taskRunCount,taskID,taskName,i,channel,pitch,velocity,microseconds
105,1,1,Ticks_Pract_5,0,5,42,127,112079284
105,1,1,Ticks_Pract_5,1,5,42,127,112579048
105,1,1,Ticks_Pract_5,2,5,42,127,113078764
105,1,1,Ticks_Pract_5,3,1,48,42,113485916
105,1,1,Ticks_Pract_5,4,5,42,127,113579372
105,1,1,Ticks_Pract_5,5,1,48,46,113991968
105,1,1,Ticks_Pract_5,6,5,42,127,114079068
105,1,1,Ticks_Pract_5,7,1,48,49,114483732
105,1,1,Ticks_Pract_5,8,5,42,127,114578908
105,1,1,Ticks_Pract_5,9,1,48,54,114964128
105,1,1,Ticks_Pract_5,10,5,42,127,115078588
105,1,1,Ticks_Pract_5,11,1,48,54,115496212
105,1,1,Ticks_Pract_5,12,5,42,127,115579272
105,1,1,Ticks_Pract_5,13,1,48,53,116005252
105,1,1,Ticks_Pract_5,14,5,42,127,116079040
105,1,1,Ticks_Pract_5,15,1,48,53,116534940
105,1,1,Ticks_Pract_5,16,5,42,127,116578660
105,1,1,Ticks_Pract_5,17,1,48,54,117030896
105,1,1,Ticks_Pract_5,18,5,42,127,117079476
105,1,1,Ticks_Pract_5,19,1,38,35,117558644
105,1,1,Ticks_Pract_5,20,5,42,127,117579172
105,1,1,Ticks_Pract_5,21,1,38,50,118069560
105,1,1,Ticks_Pract_5,22,5,42,127,118078940
105,1,1,Ticks_Pract_5,23,1,38,37,118570892
105,1,1,Ticks_Pract_5,24,5,42,127,118578484
105,1,1,Ticks_Pract_5,25,5,42,127,119079160
105,1,1,Ticks_Pract_5,26,1,38,44,119084296
105,1,1,Ticks_Pract_5,27,5,42,127,119578928
105,1,1,Ticks_Pract_5,28,1,38,34,119606508
105,1,1,Ticks_Pract_5,29,1,38,44,120060404
105,1,1,Ticks_Pract_5,30,5,42,127,120078840
105,1,1,Ticks_Pract_5,31,1,38,42,120562048
105,1,1,Ticks_Pract_5,32,5,42,127,120578312
105,1,1,Ticks_Pract_5,33,1,38,38,121030228
105,1,1,Ticks_Pract_5,34,5,42,127,121079276
105,1,1,Ticks_Pract_5,35,1,38,34,121521916
105,1,1,Ticks_Pract_5,36,5,42,127,121578972
105,1,1,Ticks_Pract_5,37,1,38,37,122026620
105,1,1,Ticks_Pract_5,38,5,42,127,122078520
105,1,1,Ticks_Pract_5,39,1,38,32,122531700
105,1,1,Ticks_Pract_5,40,5,42,127,122579260
105,1,1,Ticks_Pract_5,41,1,38,26,123009036
105,1,1,Ticks_Pract_5,42,5,42,127,123079000
105,1,1,Ticks_Pract_5,43,1,38,30,123528972
105,1,1,Ticks_Pract_5,44,5,42,127,123578748
105,1,1,Ticks_Pract_5,45,5,42,127,124078372
105,1,1,Ticks_Pract_5,46,1,38,23,124096072
105,1,1,Ticks_Pract_5,47,1,38,37,124547360
105,1,1,Ticks_Pract_5,48,5,42,127,124579032
105,1,1,Ticks_Pract_5,49,1,38,32,125046304
105,1,1,Ticks_Pract_5,50,5,42,127,125078876
105,1,1,Ticks_Pract_5,51,1,38,25,125532156
105,1,1,Ticks_Pract_5,52,5,42,127,125578496
105,1,1,Ticks_Pract_5,53,5,42,127,126079392
105,1,1,Ticks_Pract_5,54,1,38,28,126113772
105,1,1,Ticks_Pract_5,55,1,38,38,126546432
105,1,1,Ticks_Pract_5,56,5,42,127,126578932
105,1,1,Ticks_Pract_5,57,1,38,39,127032444
105,1,1,Ticks_Pract_5,58,5,42,127,127078776
105,1,1,Ticks_Pract_5,59,1,38,39,127541708
105,1,1,Ticks_Pract_5,60,5,42,127,127578620
105,1,1,Ticks_Pract_5,61,1,38,35,128053068
105,1,1,Ticks_Pract_5,62,5,42,127,128079212
105,1,1,Ticks_Pract_5,63,1,38,35,128533168
105,1,1,Ticks_Pract_5,64,5,42,127,128578904
105,1,1,Ticks_Pract_5,65,1,38,34,129052308
105,1,1,Ticks_Pract_5,66,5,42,127,129078748
105,1,1,Ticks_Pract_5,67,1,38,41,129545192
105,1,1,Ticks_Pract_5,68,5,42,127,129579268
105,1,1,Ticks_Pract_5,69,5,42,127,130079044
105,1,1,Ticks_Pract_5,70,5,42,127,130578832
105,1,1,Ticks_Pract_5,71,5,42,127,131078548
105,1,1,Ticks_Pract_5,72,5,42,127,131579236
105,1,1,Ticks_Pract_5,0,9999,9999,9999,112076920
105,1,1,Ticks_Pract_5,1,9999,9999,9999,112576612
105,1,1,Ticks_Pract_5,2,9999,9999,9999,113076328
105,1,1,Ticks_Pract_5,3,9999,9999,9999,113577012
105,1,1,Ticks_Pract_5,4,9999,9999,9999,114076780
105,1,1,Ticks_Pract_5,5,9999,9999,9999,114576476
105,1,1,Ticks_Pract_5,6,9999,9999,9999,115076152
105,1,1,Ticks_Pract_5,7,9999,9999,9999,115576912
105,1,1,Ticks_Pract_5,8,9999,9999,9999,116076604
105,1,1,Ticks_Pract_5,9,9999,9999,9999,116576376
105,1,1,Ticks_Pract_5,10,9999,9999,9999,117077116
105,1,1,Ticks_Pract_5,11,9999,9999,9999,117576812
105,1,1,Ticks_Pract_5,12,9999,9999,9999,118076504
105,1,1,Ticks_Pract_5,13,9999,9999,9999,118576200
105,1,1,Ticks_Pract_5,14,9999,9999,9999,119076948
105,1,1,Ticks_Pract_5,15,9999,9999,9999,119576640
105,1,1,Ticks_Pract_5,16,9999,9999,9999,120076404
105,1,1,Ticks_Pract_5,17,9999,9999,9999,120576100
105,1,1,Ticks_Pract_5,18,9999,9999,9999,121076844
105,1,1,Ticks_Pract_5,19,9999,9999,9999,121576536
105,1,1,Ticks_Pract_5,20,9999,9999,9999,122076232
105,1,1,Ticks_Pract_5,21,9999,9999,9999,122576972
105,1,1,Ticks_Pract_5,22,9999,9999,9999,123076716
105,1,1,Ticks_Pract_5,23,9999,9999,9999,123576388
105,1,1,Ticks_Pract_5,24,9999,9999,9999,124076088
105,1,1,Ticks_Pract_5,25,9999,9999,9999,124576820
105,1,1,Ticks_Pract_5,26,9999,9999,9999,125076592
105,1,1,Ticks_Pract_5,27,9999,9999,9999,125576284
105,1,1,Ticks_Pract_5,28,9999,9999,9999,126077032
105,1,1,Ticks_Pract_5,29,9999,9999,9999,126576720
105,1,1,Ticks_Pract_5,30,9999,9999,9999,127076416
105,1,1,Ticks_Pract_5,31,9999,9999,9999,127576184
105,1,1,Ticks_Pract_5,32,9999,9999,9999,128076924
105,1,1,Ticks_Pract_5,33,9999,9999,9999,128576620
105,1,1,Ticks_Pract_5,34,9999,9999,9999,129076312
105,1,1,Ticks_Pract_5,35,9999,9999,9999,129577056
105,1,1,Ticks_Pract_5,36,9999,9999,9999,130076756
105,1,1,Ticks_Pract_5,37,9999,9999,9999,130576472
105,1,1,Ticks_Pract_5,38,9999,9999,9999,131076188
105,1,1,Ticks_Pract_5,39,9999,9999,9999,131576952
105,2,0,Ticks_Pract_8,0,5,42,127,167252524
105,2,0,Ticks_Pract_8,1,5,42,127,168052056
105,2,0,Ticks_Pract_8,2,1,38,21,168356036
105,2,0,Ticks_Pract_8,3,5,42,127,168851716
105,2,0,Ticks_Pract_8,4,1,38,21,168972960
105,2,0,Ticks_Pract_8,5,5,42,127,169651672
105,2,0,Ticks_Pract_8,6,5,42,127,170452424
105,2,0,Ticks_Pract_8,7,1,48,53,171239504
105,2,0,Ticks_Pract_8,8,5,42,127,171252024
105,2,0,Ticks_Pract_8,9,1,48,42,171952740
105,2,0,Ticks_Pract_8,10,5,42,127,172051744
105,2,0,Ticks_Pract_8,11,1,48,55,172744496
105,2,0,Ticks_Pract_8,12,1,48,33,172806484
105,2,0,Ticks_Pract_8,13,5,42,127,172851620
105,2,0,Ticks_Pract_8,14,1,48,47,173542416
105,2,0,Ticks_Pract_8,15,5,42,127,173652608
105,2,0,Ticks_Pract_8,16,1,48,40,174392108
105,2,0,Ticks_Pract_8,17,5,42,127,174452060
105,2,0,Ticks_Pract_8,18,1,48,42,175233284
105,2,0,Ticks_Pract_8,19,5,42,127,175251720
105,2,0,Ticks_Pract_8,20,1,48,41,176050400
105,2,0,Ticks_Pract_8,21,5,42,127,176051896
105,2,0,Ticks_Pract_8,22,1,48,40,176838664
105,2,0,Ticks_Pract_8,23,5,42,127,176852604
105,2,0,Ticks_Pract_8,24,5,42,127,177651972
105,2,0,Ticks_Pract_8,25,1,48,42,177675136
105,2,0,Ticks_Pract_8,26,5,42,127,178451708
105,2,0,Ticks_Pract_8,27,1,48,44,178533284
105,2,0,Ticks_Pract_8,28,5,42,127,179251516
105,2,0,Ticks_Pract_8,29,1,48,37,179257480
105,2,0,Ticks_Pract_8,30,1,48,29,180043880
105,2,0,Ticks_Pract_8,31,5,42,127,180052660
105,2,0,Ticks_Pract_8,32,1,48,46,180722292
105,2,0,Ticks_Pract_8,33,5,42,127,180852084
105,2,0,Ticks_Pract_8,34,1,48,38,181647540
105,2,0,Ticks_Pract_8,35,5,42,127,181651760
105,2,0,Ticks_Pract_8,36,5,42,127,182451648
105,2,0,Ticks_Pract_8,37,1,48,25,182452688
105,2,0,Ticks_Pract_8,38,5,42,127,183252528
105,2,0,Ticks_Pract_8,39,1,48,29,183286460
105,2,0,Ticks_Pract_8,40,5,42,127,184052112
105,2,0,Ticks_Pract_8,41,1,48,29,184113872
105,2,0,Ticks_Pract_8,42,5,42,127,184851920
105,2,0,Ticks_Pract_8,43,1,48,29,184920412
105,2,0,Ticks_Pract_8,44,5,42,127,185651504
105,2,0,Ticks_Pract_8,45,1,48,43,185708404
105,2,0,Ticks_Pract_8,46,5,42,127,186452432
105,2,0,Ticks_Pract_8,47,1,48,47,186489808
105,2,0,Ticks_Pract_8,48,1,48,28,186550824
105,2,0,Ticks_Pract_8,49,5,42,127,187252368
105,2,0,Ticks_Pract_8,50,1,48,48,187294308
105,2,0,Ticks_Pract_8,51,5,42,127,188051876
105,2,0,Ticks_Pract_8,52,1,48,40,188100324
105,2,0,Ticks_Pract_8,53,5,42,127,188851536
105,2,0,Ticks_Pract_8,54,1,48,37,188903524
105,2,0,Ticks_Pract_8,55,1,48,40,189627596
105,2,0,Ticks_Pract_8,56,5,42,127,189652408
105,2,0,Ticks_Pract_8,57,1,48,45,190404064
105,2,0,Ticks_Pract_8,58,5,42,127,190452216
105,2,0,Ticks_Pract_8,59,1,48,39,191209584
105,2,0,Ticks_Pract_8,0,9999,9999,9999,167250012
105,2,0,Ticks_Pract_8,1,9999,9999,9999,168049768
105,2,0,Ticks_Pract_8,2,9999,9999,9999,168849500
105,2,0,Ticks_Pract_8,3,9999,9999,9999,169649236
105,2,0,Ticks_Pract_8,4,9999,9999,9999,170449988
105,2,0,Ticks_Pract_8,5,9999,9999,9999,171249740
105,2,0,Ticks_Pract_8,6,9999,9999,9999,172049456
105,2,0,Ticks_Pract_8,7,9999,9999,9999,172849256
105,2,0,Ticks_Pract_8,8,9999,9999,9999,173650020
105,2,0,Ticks_Pract_8,9,9999,9999,9999,174449772
105,2,0,Ticks_Pract_8,10,9999,9999,9999,175249504
105,2,0,Ticks_Pract_8,11,9999,9999,9999,176049244
105,2,0,Ticks_Pract_8,12,9999,9999,9999,176850020
105,2,0,Ticks_Pract_8,13,9999,9999,9999,177649760
105,2,0,Ticks_Pract_8,14,9999,9999,9999,178449492
105,2,0,Ticks_Pract_8,15,9999,9999,9999,179249228
105,2,0,Ticks_Pract_8,16,9999,9999,9999,180050000
105,2,0,Ticks_Pract_8,17,9999,9999,9999,180849720
105,2,0,Ticks_Pract_8,18,9999,9999,9999,181649472
105,2,0,Ticks_Pract_8,19,9999,9999,9999,182449212
105,2,0,Ticks_Pract_8,20,9999,9999,9999,183250016
105,2,0,Ticks_Pract_8,21,9999,9999,9999,184049748
105,2,0,Ticks_Pract_8,22,9999,9999,9999,184849484
105,2,0,Ticks_Pract_8,23,9999,9999,9999,185649216
105,2,0,Ticks_Pract_8,24,9999,9999,9999,186449996
105,2,0,Ticks_Pract_8,25,9999,9999,9999,187249784
105,2,0,Ticks_Pract_8,26,9999,9999,9999,188049516
105,2,0,Ticks_Pract_8,27,9999,9999,9999,188849248
105,2,0,Ticks_Pract_8,28,9999,9999,9999,189649972
105,2,0,Ticks_Pract_8,29,9999,9999,9999,190449780
105,3,4,T1_SMS_5,0,5,42,127,343645504
105,3,4,T1_SMS_5,1,1,48,41,344064324
105,3,4,T1_SMS_5,2,5,42,127,344146260
105,3,4,T1_SMS_5,3,5,42,127,344645888
105,3,4,T1_SMS_5,4,5,42,127,345145904
105,3,4,T1_SMS_5,5,5,42,127,345645544
105,3,4,T1_SMS_5,6,1,48,41,345674100
105,3,4,T1_SMS_5,7,1,48,46,346137952
105,3,4,T1_SMS_5,8,5,42,127,346146132
105,3,4,T1_SMS_5,9,1,48,44,346617744
105,3,4,T1_SMS_5,10,5,42,127,346645904
105,3,4,T1_SMS_5,11,1,48,44,347113252
105,3,4,T1_SMS_5,12,5,42,127,347145448
105,3,4,T1_SMS_5,13,1,48,43,347622672
105,3,4,T1_SMS_5,14,5,42,127,347646264
105,3,4,T1_SMS_5,15,1,48,41,348143232
105,3,4,T1_SMS_5,16,5,42,127,348145960
105,3,4,T1_SMS_5,17,1,48,43,348617128
105,3,4,T1_SMS_5,18,5,42,127,348645952
105,3,4,T1_SMS_5,19,1,48,46,349111560
105,3,4,T1_SMS_5,20,5,42,127,349145348
105,3,4,T1_SMS_5,21,5,42,127,349646248
105,3,4,T1_SMS_5,22,1,48,41,349661412
105,3,4,T1_SMS_5,23,1,48,39,350100324
105,3,4,T1_SMS_5,24,5,42,127,350145860
105,3,4,T1_SMS_5,25,1,48,44,350605928
105,3,4,T1_SMS_5,26,5,42,127,350645604
105,3,4,T1_SMS_5,27,1,48,40,351105472
105,3,4,T1_SMS_5,28,5,42,127,351146196
105,3,4,T1_SMS_5,29,1,48,43,351623716
105,3,4,T1_SMS_5,30,5,42,127,351645964
105,3,4,T1_SMS_5,31,1,48,42,352137404
105,3,4,T1_SMS_5,32,5,42,127,352145884
105,3,4,T1_SMS_5,33,1,48,44,352620864
105,3,4,T1_SMS_5,34,5,42,127,352645356
105,3,4,T1_SMS_5,35,1,48,41,353116596
105,3,4,T1_SMS_5,36,5,42,127,353146244
105,3,4,T1_SMS_5,37,1,48,44,353601928
105,3,4,T1_SMS_5,38,5,42,127,353645940
105,3,4,T1_SMS_5,39,1,48,46,354115836
105,3,4,T1_SMS_5,40,5,42,127,354145788
105,3,4,T1_SMS_5,41,1,48,37,354595860
105,3,4,T1_SMS_5,42,5,42,127,354646236
105,3,4,T1_SMS_5,43,1,48,33,355082088
105,3,4,T1_SMS_5,44,5,42,127,355146000
105,3,4,T1_SMS_5,45,1,48,34,355571608
105,3,4,T1_SMS_5,46,5,42,127,355645920
105,3,4,T1_SMS_5,47,1,48,32,356106688
105,3,4,T1_SMS_5,48,5,42,127,356145392
105,3,4,T1_SMS_5,49,1,48,31,356575788
105,3,4,T1_SMS_5,50,5,42,127,356646280
105,3,4,T1_SMS_5,51,1,48,31,357049276
105,3,4,T1_SMS_5,52,5,42,127,357145960
105,3,4,T1_SMS_5,53,1,48,30,357599560
105,3,4,T1_SMS_5,54,5,42,127,357645816
105,3,4,T1_SMS_5,55,1,48,28,358087216
105,3,4,T1_SMS_5,56,5,42,127,358146412
105,3,4,T1_SMS_5,57,1,48,29,358571104
105,3,4,T1_SMS_5,58,5,42,127,358646104
105,3,4,T1_SMS_5,59,1,48,38,359110016
105,3,4,T1_SMS_5,60,5,42,127,359145800
105,3,4,T1_SMS_5,61,1,48,27,359641796
105,3,4,T1_SMS_5,62,5,42,127,359645644
105,3,4,T1_SMS_5,63,1,48,38,360126204
105,3,4,T1_SMS_5,64,5,42,127,360146460
105,3,4,T1_SMS_5,65,1,48,44,360634880
105,3,4,T1_SMS_5,66,5,42,127,360645932
105,3,4,T1_SMS_5,67,1,48,35,361129264
105,3,4,T1_SMS_5,68,5,42,127,361145900
105,3,4,T1_SMS_5,69,1,48,34,361632324
105,3,4,T1_SMS_5,70,5,42,127,361645372
105,3,4,T1_SMS_5,71,1,48,41,362095512
105,3,4,T1_SMS_5,72,5,42,127,362146112
105,3,4,T1_SMS_5,73,1,48,38,362634556
105,3,4,T1_SMS_5,74,5,42,127,362646032
105,3,4,T1_SMS_5,75,5,42,127,363145508
105,3,4,T1_SMS_5,76,1,48,40,363150724
105,3,4,T1_SMS_5,77,5,42,127,363646252
105,3,4,T1_SMS_5,78,1,48,43,363648044
105,3,4,T1_SMS_5,79,5,42,127,364146020
105,3,4,T1_SMS_5,80,1,48,44,364154448
105,3,4,T1_SMS_5,81,1,48,42,364608424
105,3,4,T1_SMS_5,82,5,42,127,364645932
105,3,4,T1_SMS_5,83,5,42,127,365145632
105,3,4,T1_SMS_5,84,1,48,45,365148680
105,3,4,T1_SMS_5,85,5,42,127,365646152
105,3,4,T1_SMS_5,86,1,48,43,365657800
105,3,4,T1_SMS_5,87,5,42,127,366145848
105,3,4,T1_SMS_5,88,1,48,45,366165420
105,3,4,T1_SMS_5,89,1,48,35,366565916
105,3,4,T1_SMS_5,90,5,42,127,366645908
105,3,4,T1_SMS_5,91,5,42,127,367146432
105,3,4,T1_SMS_5,92,1,48,52,367198172
105,3,4,T1_SMS_5,93,5,42,127,367646056
105,3,4,T1_SMS_5,94,1,48,45,367653436
105,3,4,T1_SMS_5,95,5,42,127,368145824
105,3,4,T1_SMS_5,96,1,48,47,368168544
105,3,4,T1_SMS_5,97,5,42,127,368645816
105,3,4,T1_SMS_5,98,1,48,44,368672952
105,3,4,T1_SMS_5,99,1,48,43,369138896
105,3,4,T1_SMS_5,100,5,42,127,369146108
105,3,4,T1_SMS_5,101,5,42,127,369645880
105,3,4,T1_SMS_5,102,1,48,43,369671888
105,3,4,T1_SMS_5,103,5,42,127,370145872
105,3,4,T1_SMS_5,104,1,48,44,370171960
105,3,4,T1_SMS_5,105,5,42,127,370646472
105,3,4,T1_SMS_5,106,1,48,41,370647884
105,3,4,T1_SMS_5,107,5,42,127,371146012
105,3,4,T1_SMS_5,108,1,48,47,371170224
105,3,4,T1_SMS_5,109,1,48,41,371616692
105,3,4,T1_SMS_5,110,5,42,127,371645824
105,3,4,T1_SMS_5,111,5,42,127,372145800
105,3,4,T1_SMS_5,112,1,48,47,372176468
105,3,4,T1_SMS_5,113,5,42,127,372646168
105,3,4,T1_SMS_5,114,1,48,47,372677364
105,3,4,T1_SMS_5,115,1,48,51,373121664
105,3,4,T1_SMS_5,116,5,42,127,373146008
105,3,4,T1_SMS_5,117,5,42,127,373645784
105,3,4,T1_SMS_5,118,1,48,45,373654140
105,3,4,T1_SMS_5,119,5,42,127,374146380
105,3,4,T1_SMS_5,120,1,48,45,374186892
105,3,4,T1_SMS_5,121,1,48,37,374643560
105,3,4,T1_SMS_5,122,5,42,127,374646140
105,3,4,T1_SMS_5,123,1,48,43,375122092
105,3,4,T1_SMS_5,124,5,42,127,375145836
105,3,4,T1_SMS_5,125,5,42,127,375645760
105,3,4,T1_SMS_5,126,1,48,38,375675804
105,3,4,T1_SMS_5,127,1,48,42,376127464
105,3,4,T1_SMS_5,128,5,42,127,376146424
105,3,4,T1_SMS_5,129,1,48,39,376639880
105,3,4,T1_SMS_5,130,5,42,127,376645968
105,3,4,T1_SMS_5,131,1,48,38,377144844
105,3,4,T1_SMS_5,132,5,42,127,377146260
105,3,4,T1_SMS_5,133,1,48,40,377639792
105,3,4,T1_SMS_5,134,5,42,127,377645584
105,3,4,T1_SMS_5,135,5,42,127,378146112
105,3,4,T1_SMS_5,136,1,48,39,378152372
105,3,4,T1_SMS_5,137,1,48,43,378642476
105,3,4,T1_SMS_5,138,5,42,127,378645724
105,3,4,T1_SMS_5,139,5,42,127,379145796
105,3,4,T1_SMS_5,140,1,48,36,379154752
105,3,4,T1_SMS_5,141,1,48,40,379610524
105,3,4,T1_SMS_5,142,5,42,127,379646456
105,3,4,T1_SMS_5,143,1,48,44,380128168
105,3,4,T1_SMS_5,144,5,42,127,380146080
105,3,4,T1_SMS_5,145,5,42,127,380645632
105,3,4,T1_SMS_5,146,1,48,39,380653988
105,3,4,T1_SMS_5,147,1,48,32,381101952
105,3,4,T1_SMS_5,148,5,42,127,381145544
105,3,4,T1_SMS_5,149,5,42,127,381646216
105,3,4,T1_SMS_5,150,1,48,28,381652628
105,3,4,T1_SMS_5,151,1,48,28,382136504
105,3,4,T1_SMS_5,152,5,42,127,382145908
105,3,4,T1_SMS_5,153,1,48,34,382613756
105,3,4,T1_SMS_5,154,5,42,127,382645576
105,3,4,T1_SMS_5,155,1,48,30,383139256
105,3,4,T1_SMS_5,156,5,42,127,383146320
105,3,4,T1_SMS_5,157,5,42,127,383646172
105,3,4,T1_SMS_5,158,1,48,45,383681108
105,3,4,T1_SMS_5,159,5,42,127,384145720
105,3,4,T1_SMS_5,160,1,48,46,384179508
105,3,4,T1_SMS_5,161,1,48,42,384625620
105,3,4,T1_SMS_5,162,5,42,127,384645552
105,3,4,T1_SMS_5,163,1,48,45,385133172
105,3,4,T1_SMS_5,164,5,42,127,385146148
105,3,4,T1_SMS_5,165,1,48,48,385613716
105,3,4,T1_SMS_5,166,5,42,127,385645916
105,3,4,T1_SMS_5,167,1,48,48,386087092
105,3,4,T1_SMS_5,168,5,42,127,386145760
105,3,4,T1_SMS_5,169,1,48,41,386597556
105,3,4,T1_SMS_5,170,5,42,127,386646584
105,3,4,T1_SMS_5,171,1,48,44,387096652
105,3,4,T1_SMS_5,172,5,42,127,387146052
105,3,4,T1_SMS_5,173,1,48,38,387600836
105,3,4,T1_SMS_5,174,5,42,127,387645748
105,3,4,T1_SMS_5,175,1,48,49,388119528
105,3,4,T1_SMS_5,176,5,42,127,388145592
105,3,4,T1_SMS_5,177,5,42,127,388646116
105,3,4,T1_SMS_5,178,1,48,49,388658808
105,3,4,T1_SMS_5,179,1,48,44,389141056
105,3,4,T1_SMS_5,180,5,42,127,389145952
105,3,4,T1_SMS_5,181,5,42,127,389645652
105,3,4,T1_SMS_5,182,1,48,33,389649672
105,3,4,T1_SMS_5,183,1,48,44,390115764
105,3,4,T1_SMS_5,184,5,42,127,390146616
105,3,4,T1_SMS_5,185,1,48,44,390629448
105,3,4,T1_SMS_5,186,5,42,127,390646008
105,3,4,T1_SMS_5,187,1,48,47,391123380
105,3,4,T1_SMS_5,188,5,42,127,391145928
105,3,4,T1_SMS_5,189,1,48,49,391628760
105,3,4,T1_SMS_5,190,5,42,127,391645548
105,3,4,T1_SMS_5,191,5,42,127,392146224
105,3,4,T1_SMS_5,192,1,48,52,392175672
105,3,4,T1_SMS_5,193,5,42,127,392645992
105,3,4,T1_SMS_5,194,1,48,41,392669080
105,3,4,T1_SMS_5,195,1,48,43,393134180
105,3,4,T1_SMS_5,196,5,42,127,393145656
105,3,4,T1_SMS_5,197,1,48,44,393614800
105,3,4,T1_SMS_5,198,5,42,127,393645500
105,3,4,T1_SMS_5,199,1,48,52,394117268
105,3,4,T1_SMS_5,200,5,42,127,394146016
105,3,4,T1_SMS_5,201,1,48,48,394632220
105,3,4,T1_SMS_5,202,5,42,127,394646008
105,3,4,T1_SMS_5,203,5,42,127,395145564
105,3,4,T1_SMS_5,204,1,48,42,395185484
105,3,4,T1_SMS_5,205,1,48,50,395621660
105,3,4,T1_SMS_5,206,5,42,127,395646520
105,3,4,T1_SMS_5,207,1,48,51,396127564
105,3,4,T1_SMS_5,208,5,42,127,396145992
105,3,4,T1_SMS_5,209,1,48,48,396619476
105,3,4,T1_SMS_5,210,5,42,127,396645688
105,3,4,T1_SMS_5,211,1,48,51,397114308
105,3,4,T1_SMS_5,212,5,42,127,397145608
105,3,4,T1_SMS_5,213,1,48,51,397618716
105,3,4,T1_SMS_5,214,5,42,127,397646124
105,3,4,T1_SMS_5,215,1,48,51,398108840
105,3,4,T1_SMS_5,216,5,42,127,398145896
105,3,4,T1_SMS_5,217,1,48,46,398584596
105,3,4,T1_SMS_5,218,5,42,127,398645740
105,3,4,T1_SMS_5,219,1,48,50,399114288
105,3,4,T1_SMS_5,220,5,42,127,399146556
105,3,4,T1_SMS_5,221,1,48,48,399594536
105,3,4,T1_SMS_5,222,5,42,127,399646028
105,3,4,T1_SMS_5,223,1,48,53,400107696
105,3,4,T1_SMS_5,224,5,42,127,400145648
105,3,4,T1_SMS_5,225,1,48,35,400575220
105,3,4,T1_SMS_5,226,5,42,127,400645492
105,3,4,T1_SMS_5,227,5,42,127,401146164
105,3,4,T1_SMS_5,228,1,48,48,401148760
105,3,4,T1_SMS_5,229,5,42,127,401645860
105,3,4,T1_SMS_5,230,1,48,46,401666560
105,3,4,T1_SMS_5,231,5,42,127,402145632
105,3,4,T1_SMS_5,232,1,48,42,402153160
105,3,4,T1_SMS_5,233,5,42,127,402646524
105,3,4,T1_SMS_5,234,1,48,49,402687416
105,3,4,T1_SMS_5,235,1,48,50,403134428
105,3,4,T1_SMS_5,236,5,42,127,403146060
105,3,4,T1_SMS_5,237,5,42,127,403645908
105,3,4,T1_SMS_5,238,1,48,52,403677604
105,3,4,T1_SMS_5,239,5,42,127,404145504
105,3,4,T1_SMS_5,240,1,48,40,404152816
105,3,4,T1_SMS_5,241,5,42,127,404646396
105,3,4,T1_SMS_5,242,1,48,52,404669436
105,3,4,T1_SMS_5,243,5,42,127,405145944
105,3,4,T1_SMS_5,244,1,48,49,405164172
105,3,4,T1_SMS_5,245,5,42,127,405645636
105,3,4,T1_SMS_5,246,1,48,51,405665436
105,3,4,T1_SMS_5,247,5,42,127,406146384
105,3,4,T1_SMS_5,248,1,48,43,406149428
105,3,4,T1_SMS_5,249,5,42,127,406646224
105,3,4,T1_SMS_5,250,1,48,47,406651884
105,3,4,T1_SMS_5,251,5,42,127,407145920
105,3,4,T1_SMS_5,252,1,48,51,407161084
105,3,4,T1_SMS_5,253,5,42,127,407645612
105,3,4,T1_SMS_5,254,1,48,41,407648736
105,3,4,T1_SMS_5,255,1,48,52,408138988
105,3,4,T1_SMS_5,256,5,42,127,408146272
105,3,4,T1_SMS_5,0,9999,9999,9999,343643216
105,3,4,T1_SMS_5,1,9999,9999,9999,344143976
105,3,4,T1_SMS_5,2,9999,9999,9999,344643676
105,3,4,T1_SMS_5,3,9999,9999,9999,345143396
105,3,4,T1_SMS_5,4,9999,9999,9999,345643112
105,3,4,T1_SMS_5,5,9999,9999,9999,346143848
105,3,4,T1_SMS_5,6,9999,9999,9999,346643544
105,3,4,T1_SMS_5,7,9999,9999,9999,347143236
105,3,4,T1_SMS_5,8,9999,9999,9999,347643980
105,3,4,T1_SMS_5,9,9999,9999,9999,348143676
105,3,4,T1_SMS_5,10,9999,9999,9999,348643444
105,3,4,T1_SMS_5,11,9999,9999,9999,349143136
105,3,4,T1_SMS_5,12,9999,9999,9999,349643884
105,3,4,T1_SMS_5,13,9999,9999,9999,350143572
105,3,4,T1_SMS_5,14,9999,9999,9999,350643320
105,3,4,T1_SMS_5,15,9999,9999,9999,351143984
105,3,4,T1_SMS_5,16,9999,9999,9999,351643752
105,3,4,T1_SMS_5,17,9999,9999,9999,352143448
105,3,4,T1_SMS_5,18,9999,9999,9999,352643144
105,3,4,T1_SMS_5,19,9999,9999,9999,353143884
105,3,4,T1_SMS_5,20,9999,9999,9999,353643580
105,3,4,T1_SMS_5,21,9999,9999,9999,354143352
105,3,4,T1_SMS_5,22,9999,9999,9999,354644020
105,3,4,T1_SMS_5,23,9999,9999,9999,355143788
105,3,4,T1_SMS_5,24,9999,9999,9999,355643484
105,3,4,T1_SMS_5,25,9999,9999,9999,356143180
105,3,4,T1_SMS_5,26,9999,9999,9999,356643920
105,3,4,T1_SMS_5,27,9999,9999,9999,357143672
105,3,4,T1_SMS_5,28,9999,9999,9999,357643380
105,3,4,T1_SMS_5,29,9999,9999,9999,358144048
105,3,4,T1_SMS_5,30,9999,9999,9999,358643820
105,3,4,T1_SMS_5,31,9999,9999,9999,359143512
105,3,4,T1_SMS_5,32,9999,9999,9999,359643208
105,3,4,T1_SMS_5,33,9999,9999,9999,360143952
105,3,4,T1_SMS_5,34,9999,9999,9999,360643644
105,3,4,T1_SMS_5,35,9999,9999,9999,361143392
105,3,4,T1_SMS_5,36,9999,9999,9999,361643084
105,3,4,T1_SMS_5,37,9999,9999,9999,362143828
105,3,4,T1_SMS_5,38,9999,9999,9999,362643524
105,3,4,T1_SMS_5,39,9999,9999,9999,363143224
105,3,4,T1_SMS_5,40,9999,9999,9999,363643964
105,3,4,T1_SMS_5,41,9999,9999,9999,364143732
105,3,4,T1_SMS_5,42,9999,9999,9999,364643420
105,3,4,T1_SMS_5,43,9999,9999,9999,365143124
105,3,4,T1_SMS_5,44,9999,9999,9999,365643864
105,3,4,T1_SMS_5,45,9999,9999,9999,366143560
105,3,4,T1_SMS_5,46,9999,9999,9999,366643252
105,3,4,T1_SMS_5,47,9999,9999,9999,367143996
105,3,4,T1_SMS_5,48,9999,9999,9999,367643768
105,3,4,T1_SMS_5,49,9999,9999,9999,368143464
105,3,4,T1_SMS_5,50,9999,9999,9999,368643160
105,3,4,T1_SMS_5,51,9999,9999,9999,369143896
105,3,4,T1_SMS_5,52,9999,9999,9999,369643596
105,3,4,T1_SMS_5,53,9999,9999,9999,370143288
105,3,4,T1_SMS_5,54,9999,9999,9999,370644032
105,3,4,T1_SMS_5,55,9999,9999,9999,371143800
105,3,4,T1_SMS_5,56,9999,9999,9999,371643464
105,3,4,T1_SMS_5,57,9999,9999,9999,372143216
105,3,4,T1_SMS_5,58,9999,9999,9999,372643956
105,3,4,T1_SMS_5,59,9999,9999,9999,373143648
105,3,4,T1_SMS_5,60,9999,9999,9999,373643348
105,3,4,T1_SMS_5,61,9999,9999,9999,374144088
105,3,4,T1_SMS_5,62,9999,9999,9999,374643780
105,3,4,T1_SMS_5,63,9999,9999,9999,375143476
105,3,4,T1_SMS_5,64,9999,9999,9999,375643252
105,3,4,T1_SMS_5,65,9999,9999,9999,376143988
105,3,4,T1_SMS_5,66,9999,9999,9999,376643684
105,3,4,T1_SMS_5,67,9999,9999,9999,377143384
105,3,4,T1_SMS_5,68,9999,9999,9999,377643072
105,3,4,T1_SMS_5,69,9999,9999,9999,378143824
105,3,4,T1_SMS_5,70,9999,9999,9999,378643512
105,3,4,T1_SMS_5,71,9999,9999,9999,379143288
105,3,4,T1_SMS_5,72,9999,9999,9999,379644020
105,3,4,T1_SMS_5,73,9999,9999,9999,380143720
105,3,4,T1_SMS_5,74,9999,9999,9999,380643420
105,3,4,T1_SMS_5,75,9999,9999,9999,381143108
105,3,4,T1_SMS_5,76,9999,9999,9999,381643856
105,3,4,T1_SMS_5,77,9999,9999,9999,382143544
105,3,4,T1_SMS_5,78,9999,9999,9999,382643292
105,3,4,T1_SMS_5,79,9999,9999,9999,383144032
105,3,4,T1_SMS_5,80,9999,9999,9999,383643736
105,3,4,T1_SMS_5,81,9999,9999,9999,384143432
105,3,4,T1_SMS_5,82,9999,9999,9999,384643192
105,3,4,T1_SMS_5,83,9999,9999,9999,385143860
105,3,4,T1_SMS_5,84,9999,9999,9999,385643628
105,3,4,T1_SMS_5,85,9999,9999,9999,386143328
105,3,4,T1_SMS_5,86,9999,9999,9999,386644072
105,3,4,T1_SMS_5,87,9999,9999,9999,387143764
105,3,4,T1_SMS_5,88,9999,9999,9999,387643460
105,3,4,T1_SMS_5,89,9999,9999,9999,388143156
105,3,4,T1_SMS_5,90,9999,9999,9999,388643904
105,3,4,T1_SMS_5,91,9999,9999,9999,389143664
105,3,4,T1_SMS_5,92,9999,9999,9999,389643368
105,3,4,T1_SMS_5,93,9999,9999,9999,390144100
105,3,4,T1_SMS_5,94,9999,9999,9999,390643796
105,3,4,T1_SMS_5,95,9999,9999,9999,391143492
105,3,4,T1_SMS_5,96,9999,9999,9999,391643188
105,3,4,T1_SMS_5,97,9999,9999,9999,392143936
105,3,4,T1_SMS_5,98,9999,9999,9999,392643704
105,3,4,T1_SMS_5,99,9999,9999,9999,393143368
105,3,4,T1_SMS_5,100,9999,9999,9999,393643064
105,3,4,T1_SMS_5,101,9999,9999,9999,394143804
105,3,4,T1_SMS_5,102,9999,9999,9999,394643576
105,3,4,T1_SMS_5,103,9999,9999,9999,395143276
105,3,4,T1_SMS_5,104,9999,9999,9999,395644012
105,3,4,T1_SMS_5,105,9999,9999,9999,396143708
105,3,4,T1_SMS_5,106,9999,9999,9999,396643400
105,3,4,T1_SMS_5,107,9999,9999,9999,397143096
105,3,4,T1_SMS_5,108,9999,9999,9999,397643840
105,3,4,T1_SMS_5,109,9999,9999,9999,398143608
105,3,4,T1_SMS_5,110,9999,9999,9999,398643304
105,3,4,T1_SMS_5,111,9999,9999,9999,399144044
105,3,4,T1_SMS_5,112,9999,9999,9999,399643740
105,3,4,T1_SMS_5,113,9999,9999,9999,400143436
105,3,4,T1_SMS_5,114,9999,9999,9999,400643132
105,3,4,T1_SMS_5,115,9999,9999,9999,401143880
105,3,4,T1_SMS_5,116,9999,9999,9999,401643572
105,3,4,T1_SMS_5,117,9999,9999,9999,402143344
105,3,4,T1_SMS_5,118,9999,9999,9999,402644084
105,3,4,T1_SMS_5,119,9999,9999,9999,403143772
105,3,4,T1_SMS_5,120,9999,9999,9999,403643448
105,3,4,T1_SMS_5,121,9999,9999,9999,404143220
105,3,4,T1_SMS_5,122,9999,9999,9999,404643960
105,3,4,T1_SMS_5,123,9999,9999,9999,405143656
105,3,4,T1_SMS_5,124,9999,9999,9999,405643348
105,3,4,T1_SMS_5,125,9999,9999,9999,406144092
105,3,4,T1_SMS_5,126,9999,9999,9999,406643788
105,3,4,T1_SMS_5,127,9999,9999,9999,407143484
105,3,4,T1_SMS_5,128,9999,9999,9999,407643252
105,3,4,T1_SMS_5,129,9999,9999,9999,408143988
105,4,2,T1_SMS_8,0,5,42,127,482909660
105,4,2,T1_SMS_8,1,5,42,127,483710240
105,4,2,T1_SMS_8,2,5,42,127,484510144
105,4,2,T1_SMS_8,3,5,42,127,485309928
105,4,2,T1_SMS_8,4,1,48,48,486095428
105,4,2,T1_SMS_8,5,5,42,127,486109672
105,4,2,T1_SMS_8,6,1,48,45,486854696
105,4,2,T1_SMS_8,7,5,42,127,486910600
105,4,2,T1_SMS_8,8,1,48,48,487659892
105,4,2,T1_SMS_8,9,5,42,127,487709964
105,4,2,T1_SMS_8,10,1,48,48,488466956
105,4,2,T1_SMS_8,11,5,42,127,488509920
105,4,2,T1_SMS_8,12,1,48,45,489296528
105,4,2,T1_SMS_8,13,5,42,127,489309580
105,4,2,T1_SMS_8,14,1,48,45,490063204
105,4,2,T1_SMS_8,15,5,42,127,490110208
105,4,2,T1_SMS_8,16,1,48,41,490878420
105,4,2,T1_SMS_8,17,5,42,127,490909944
105,4,2,T1_SMS_8,18,1,48,47,491682192
105,4,2,T1_SMS_8,19,5,42,127,491709776
105,4,2,T1_SMS_8,20,1,48,32,492396056
105,4,2,T1_SMS_8,21,5,42,127,492509496
105,4,2,T1_SMS_8,22,1,48,28,493255056
105,4,2,T1_SMS_8,23,5,42,127,493310588
105,4,2,T1_SMS_8,24,1,48,41,494095628
105,4,2,T1_SMS_8,25,5,42,127,494110100
105,4,2,T1_SMS_8,26,1,48,44,494873444
105,4,2,T1_SMS_8,27,5,42,127,494909908
105,4,2,T1_SMS_8,28,5,42,127,495709720
105,4,2,T1_SMS_8,29,1,48,40,495788984
105,4,2,T1_SMS_8,30,1,48,43,496485100
105,4,2,T1_SMS_8,31,5,42,127,496510420
105,4,2,T1_SMS_8,32,1,48,42,497278036
105,4,2,T1_SMS_8,33,5,42,127,497310004
105,4,2,T1_SMS_8,34,1,48,44,498104092
105,4,2,T1_SMS_8,35,5,42,127,498109836
105,4,2,T1_SMS_8,36,1,48,42,498897496
105,4,2,T1_SMS_8,37,5,42,127,498909644
105,4,2,T1_SMS_8,38,1,48,39,499685256
105,4,2,T1_SMS_8,39,5,42,127,499710424
105,4,2,T1_SMS_8,40,1,48,38,500451256
105,4,2,T1_SMS_8,41,5,42,127,500510232
105,4,2,T1_SMS_8,42,5,42,127,501309900
105,4,2,T1_SMS_8,43,1,48,36,501338528
105,4,2,T1_SMS_8,44,1,48,48,502069576
105,4,2,T1_SMS_8,45,5,42,127,502109700
105,4,2,T1_SMS_8,46,1,48,43,502893316
105,4,2,T1_SMS_8,47,5,42,127,502910256
105,4,2,T1_SMS_8,48,5,42,127,503709924
105,4,2,T1_SMS_8,49,1,48,51,503726656
105,4,2,T1_SMS_8,50,5,42,127,504509904
105,4,2,T1_SMS_8,51,1,48,36,504606144
105,4,2,T1_SMS_8,52,1,48,39,505271800
105,4,2,T1_SMS_8,53,5,42,127,505309632
105,4,2,T1_SMS_8,54,1,48,44,505997932
105,4,2,T1_SMS_8,55,5,42,127,506110396
105,4,2,T1_SMS_8,56,1,48,37,506809956
105,4,2,T1_SMS_8,57,5,42,127,506910056
105,4,2,T1_SMS_8,58,1,48,49,507638708
105,4,2,T1_SMS_8,59,5,42,127,507709880
105,4,2,T1_SMS_8,60,5,42,127,508509692
105,4,2,T1_SMS_8,61,1,48,40,508544600
105,4,2,T1_SMS_8,62,1,48,50,509273408
105,4,2,T1_SMS_8,63,5,42,127,509310392
105,4,2,T1_SMS_8,64,1,48,38,510105376
105,4,2,T1_SMS_8,65,5,42,127,510110196
105,4,2,T1_SMS_8,66,1,48,46,510898232
105,4,2,T1_SMS_8,67,5,42,127,510909808
105,4,2,T1_SMS_8,68,5,42,127,511709472
105,4,2,T1_SMS_8,69,1,48,45,511745724
105,4,2,T1_SMS_8,70,5,42,127,512510476
105,4,2,T1_SMS_8,71,1,48,49,512578220
105,4,2,T1_SMS_8,72,5,42,127,513309912
105,4,2,T1_SMS_8,73,1,48,43,513318860
105,4,2,T1_SMS_8,74,1,48,35,514084096
105,4,2,T1_SMS_8,75,5,42,127,514109860
105,4,2,T1_SMS_8,76,1,48,38,514863560
105,4,2,T1_SMS_8,77,1,48,31,514903852
105,4,2,T1_SMS_8,78,5,42,127,514909572
105,4,2,T1_SMS_8,79,1,48,43,515676516
105,4,2,T1_SMS_8,80,5,42,127,515710504
105,4,2,T1_SMS_8,81,1,48,48,516468844
105,4,2,T1_SMS_8,82,5,42,127,516509936
105,4,2,T1_SMS_8,83,1,48,46,517260720
105,4,2,T1_SMS_8,84,5,42,127,517309844
105,4,2,T1_SMS_8,85,1,48,38,518106480
105,4,2,T1_SMS_8,86,5,42,127,518109504
105,4,2,T1_SMS_8,87,1,48,41,518872184
105,4,2,T1_SMS_8,88,5,42,127,518910584
105,4,2,T1_SMS_8,89,1,48,41,519625916
105,4,2,T1_SMS_8,90,5,42,127,519710172
105,4,2,T1_SMS_8,91,1,48,43,520442928
105,4,2,T1_SMS_8,92,5,42,127,520509756
105,4,2,T1_SMS_8,93,1,48,39,521208552
105,4,2,T1_SMS_8,94,5,42,127,521309624
105,4,2,T1_SMS_8,95,1,48,48,521990108
105,4,2,T1_SMS_8,96,5,42,127,522110328
105,4,2,T1_SMS_8,97,1,48,43,522853648
105,4,2,T1_SMS_8,98,5,42,127,522910004
105,4,2,T1_SMS_8,99,1,48,43,523686964
105,4,2,T1_SMS_8,100,5,42,127,523709760
105,4,2,T1_SMS_8,101,5,42,127,524509500
105,4,2,T1_SMS_8,102,1,48,41,524540072
105,4,2,T1_SMS_8,103,5,42,127,525310280
105,4,2,T1_SMS_8,104,1,48,38,525345780
105,4,2,T1_SMS_8,105,1,48,38,526041236
105,4,2,T1_SMS_8,106,5,42,127,526110008
105,4,2,T1_SMS_8,107,1,48,45,526843804
105,4,2,T1_SMS_8,108,5,42,127,526909816
105,4,2,T1_SMS_8,109,1,48,42,527699492
105,4,2,T1_SMS_8,110,5,42,127,527709476
105,4,2,T1_SMS_8,111,1,48,47,528451204
105,4,2,T1_SMS_8,112,5,42,127,528510400
105,4,2,T1_SMS_8,113,5,42,127,529309996
105,4,2,T1_SMS_8,114,1,48,41,529322092
105,4,2,T1_SMS_8,115,1,48,36,530071316
105,4,2,T1_SMS_8,116,5,42,127,530109744
105,4,2,T1_SMS_8,117,1,48,33,530906680
105,4,2,T1_SMS_8,118,5,42,127,530909404
105,4,2,T1_SMS_8,119,1,48,37,531689880
105,4,2,T1_SMS_8,120,5,42,127,531710336
105,4,2,T1_SMS_8,121,1,48,42,532484676
105,4,2,T1_SMS_8,122,5,42,127,532510140
105,4,2,T1_SMS_8,123,1,48,44,533308452
105,4,2,T1_SMS_8,124,5,42,127,533309948
105,4,2,T1_SMS_8,125,5,42,127,534109464
105,4,2,T1_SMS_8,126,1,48,32,534150360
105,4,2,T1_SMS_8,127,1,48,33,534868916
105,4,2,T1_SMS_8,128,5,42,127,534910164
105,4,2,T1_SMS_8,129,1,48,38,535671416
105,4,2,T1_SMS_8,130,5,42,127,535710196
105,4,2,T1_SMS_8,131,5,42,127,536509664
105,4,2,T1_SMS_8,132,1,48,34,536536492
105,4,2,T1_SMS_8,133,1,48,37,537264600
105,4,2,T1_SMS_8,134,5,42,127,537309540
105,4,2,T1_SMS_8,135,1,48,42,538038004
105,4,2,T1_SMS_8,136,5,42,127,538110468
105,4,2,T1_SMS_8,137,5,42,127,538909984
105,4,2,T1_SMS_8,138,1,48,48,538943244
105,4,2,T1_SMS_8,139,5,42,127,539709792
105,4,2,T1_SMS_8,140,1,48,45,539727720
105,4,2,T1_SMS_8,141,5,42,127,540509452
105,4,2,T1_SMS_8,142,1,48,41,540565676
105,4,2,T1_SMS_8,143,5,42,127,541310532
105,4,2,T1_SMS_8,144,1,48,40,541313128
105,4,2,T1_SMS_8,145,5,42,127,542110188
105,4,2,T1_SMS_8,146,1,48,44,542214460
105,4,2,T1_SMS_8,147,5,42,127,542909800
105,4,2,T1_SMS_8,148,1,48,34,542944632
105,4,2,T1_SMS_8,149,1,48,44,543707864
105,4,2,T1_SMS_8,150,5,42,127,543709528
105,4,2,T1_SMS_8,151,5,42,127,544510460
105,4,2,T1_SMS_8,152,1,48,36,544535344
105,4,2,T1_SMS_8,153,5,42,127,545310268
105,4,2,T1_SMS_8,154,1,48,41,545343760
105,4,2,T1_SMS_8,155,1,48,40,546048332
105,4,2,T1_SMS_8,156,5,42,127,546109848
105,4,2,T1_SMS_8,157,1,48,41,546898552
105,4,2,T1_SMS_8,158,5,42,127,546909580
105,4,2,T1_SMS_8,159,5,42,127,547710292
105,4,2,T1_SMS_8,160,1,48,51,547715580
105,4,2,T1_SMS_8,161,5,42,127,548510248
105,4,2,T1_SMS_8,162,1,48,30,548614372
105,4,2,T1_SMS_8,163,5,42,127,549309708
105,4,2,T1_SMS_8,164,1,48,42,549324944
105,4,2,T1_SMS_8,165,1,48,48,550056044
105,4,2,T1_SMS_8,166,5,42,127,550109660
105,4,2,T1_SMS_8,167,1,48,39,550863356
105,4,2,T1_SMS_8,168,5,42,127,550910364
105,4,2,T1_SMS_8,169,1,48,42,551692260
105,4,2,T1_SMS_8,170,5,42,127,551710396
105,4,2,T1_SMS_8,171,1,48,50,552434928
105,4,2,T1_SMS_8,172,5,42,127,552509760
105,4,2,T1_SMS_8,173,1,48,46,553263160
105,4,2,T1_SMS_8,174,5,42,127,553309492
105,4,2,T1_SMS_8,175,1,48,40,554074260
105,4,2,T1_SMS_8,176,5,42,127,554110196
105,4,2,T1_SMS_8,177,1,48,43,554903536
105,4,2,T1_SMS_8,178,5,42,127,554910080
105,4,2,T1_SMS_8,179,1,48,45,555664004
105,4,2,T1_SMS_8,180,5,42,127,555709764
105,4,2,T1_SMS_8,181,1,48,45,556467924
105,4,2,T1_SMS_8,182,5,42,127,556509644
105,4,2,T1_SMS_8,183,5,42,127,557310356
105,4,2,T1_SMS_8,184,1,48,37,557321480
105,4,2,T1_SMS_8,185,5,42,127,558110088
105,4,2,T1_SMS_8,186,1,48,39,558124504
105,4,2,T1_SMS_8,187,5,42,127,558909900
105,4,2,T1_SMS_8,188,1,48,37,558941592
105,4,2,T1_SMS_8,189,1,48,42,559671220
105,4,2,T1_SMS_8,190,5,42,127,559709404
105,4,2,T1_SMS_8,191,1,48,34,560504684
105,4,2,T1_SMS_8,192,5,42,127,560510256
105,4,2,T1_SMS_8,193,1,48,38,561289612
105,4,2,T1_SMS_8,194,5,42,127,561310068
105,4,2,T1_SMS_8,195,1,48,42,562027864
105,4,2,T1_SMS_8,196,5,42,127,562109676
105,4,2,T1_SMS_8,197,5,42,127,562909492
105,4,2,T1_SMS_8,198,1,48,46,562933328
105,4,2,T1_SMS_8,199,5,42,127,563710272
105,4,2,T1_SMS_8,200,1,48,32,563730144
105,4,2,T1_SMS_8,201,5,42,127,564510152
105,4,2,T1_SMS_8,202,1,48,36,564515292
105,4,2,T1_SMS_8,203,5,42,127,565309736
105,4,2,T1_SMS_8,204,1,48,39,565326764
105,4,2,T1_SMS_8,205,5,42,127,566109472
105,4,2,T1_SMS_8,206,1,48,34,566136444
105,4,2,T1_SMS_8,207,5,42,127,566910248
105,4,2,T1_SMS_8,208,1,48,35,566925632
105,4,2,T1_SMS_8,209,5,42,127,567710208
105,4,2,T1_SMS_8,210,1,48,33,567762196
105,4,2,T1_SMS_8,211,5,42,127,568509668
105,4,2,T1_SMS_8,212,1,48,42,568529316
105,4,2,T1_SMS_8,213,5,42,127,569309400
105,4,2,T1_SMS_8,214,1,48,29,569375568
105,4,2,T1_SMS_8,215,1,48,36,570067280
105,4,2,T1_SMS_8,216,5,42,127,570110396
105,4,2,T1_SMS_8,217,5,42,127,570910212
105,4,2,T1_SMS_8,218,1,48,37,570948864
105,4,2,T1_SMS_8,219,1,48,30,571688220
105,4,2,T1_SMS_8,220,5,42,127,571710016
105,4,2,T1_SMS_8,221,1,48,36,572474560
105,4,2,T1_SMS_8,222,5,42,127,572509452
105,4,2,T1_SMS_8,223,5,42,127,573310312
105,4,2,T1_SMS_8,224,1,48,22,573335196
105,4,2,T1_SMS_8,225,1,48,36,574095792
105,4,2,T1_SMS_8,226,5,42,127,574110188
105,4,2,T1_SMS_8,227,1,48,35,574861268
105,4,2,T1_SMS_8,228,5,42,127,574909944
105,4,2,T1_SMS_8,229,1,48,36,575679352
105,4,2,T1_SMS_8,230,5,42,127,575709456
105,4,2,T1_SMS_8,231,1,48,31,576487088
105,4,2,T1_SMS_8,232,5,42,127,576510236
105,4,2,T1_SMS_8,233,5,42,127,577310124
105,4,2,T1_SMS_8,234,1,48,32,577371884
105,4,2,T1_SMS_8,235,1,48,44,578070320
105,4,2,T1_SMS_8,236,5,42,127,578110072
105,4,2,T1_SMS_8,237,1,48,37,578902368
105,4,2,T1_SMS_8,0,9999,9999,9999,482907224
105,4,2,T1_SMS_8,1,9999,9999,9999,483707952
105,4,2,T1_SMS_8,2,9999,9999,9999,484507708
105,4,2,T1_SMS_8,3,9999,9999,9999,485307488
105,4,2,T1_SMS_8,4,9999,9999,9999,486107236
105,4,2,T1_SMS_8,5,9999,9999,9999,486908016
105,4,2,T1_SMS_8,6,9999,9999,9999,487707752
105,4,2,T1_SMS_8,7,9999,9999,9999,488507484
105,4,2,T1_SMS_8,8,9999,9999,9999,489307216
105,4,2,T1_SMS_8,9,9999,9999,9999,490107996
105,4,2,T1_SMS_8,10,9999,9999,9999,490907732
105,4,2,T1_SMS_8,11,9999,9999,9999,491707488
105,4,2,T1_SMS_8,12,9999,9999,9999,492507208
105,4,2,T1_SMS_8,13,9999,9999,9999,493308004
105,4,2,T1_SMS_8,14,9999,9999,9999,494107736
105,4,2,T1_SMS_8,15,9999,9999,9999,494907468
105,4,2,T1_SMS_8,16,9999,9999,9999,495707212
105,4,2,T1_SMS_8,17,9999,9999,9999,496507984
105,4,2,T1_SMS_8,18,9999,9999,9999,497307716
105,4,2,T1_SMS_8,19,9999,9999,9999,498107476
105,4,2,T1_SMS_8,20,9999,9999,9999,498907208
105,4,2,T1_SMS_8,21,9999,9999,9999,499707988
105,4,2,T1_SMS_8,22,9999,9999,9999,500507724
105,4,2,T1_SMS_8,23,9999,9999,9999,501307464
105,4,2,T1_SMS_8,24,9999,9999,9999,502107188
105,4,2,T1_SMS_8,25,9999,9999,9999,502907968
105,4,2,T1_SMS_8,26,9999,9999,9999,503707708
105,4,2,T1_SMS_8,27,9999,9999,9999,504507468
105,4,2,T1_SMS_8,28,9999,9999,9999,505307196
105,4,2,T1_SMS_8,29,9999,9999,9999,506107960
105,4,2,T1_SMS_8,30,9999,9999,9999,506907768
105,4,2,T1_SMS_8,31,9999,9999,9999,507707440
105,4,2,T1_SMS_8,32,9999,9999,9999,508507256
105,4,2,T1_SMS_8,33,9999,9999,9999,509307956
105,4,2,T1_SMS_8,34,9999,9999,9999,510107760
105,4,2,T1_SMS_8,35,9999,9999,9999,510907444
105,4,2,T1_SMS_8,36,9999,9999,9999,511707184
105,4,2,T1_SMS_8,37,9999,9999,9999,512507964
105,4,2,T1_SMS_8,38,9999,9999,9999,513307700
105,4,2,T1_SMS_8,39,9999,9999,9999,514107500
105,4,2,T1_SMS_8,40,9999,9999,9999,514907212
105,4,2,T1_SMS_8,41,9999,9999,9999,515707992
105,4,2,T1_SMS_8,42,9999,9999,9999,516507724
105,4,2,T1_SMS_8,43,9999,9999,9999,517307484
105,4,2,T1_SMS_8,44,9999,9999,9999,518107216
105,4,2,T1_SMS_8,45,9999,9999,9999,518908000
105,4,2,T1_SMS_8,46,9999,9999,9999,519707736
105,4,2,T1_SMS_8,47,9999,9999,9999,520507468
105,4,2,T1_SMS_8,48,9999,9999,9999,521307184
105,4,2,T1_SMS_8,49,9999,9999,9999,522107968
105,4,2,T1_SMS_8,50,9999,9999,9999,522907716
105,4,2,T1_SMS_8,51,9999,9999,9999,523707472
105,4,2,T1_SMS_8,52,9999,9999,9999,524507212
105,4,2,T1_SMS_8,53,9999,9999,9999,525307992
105,4,2,T1_SMS_8,54,9999,9999,9999,526107720
105,4,2,T1_SMS_8,55,9999,9999,9999,526907452
105,4,2,T1_SMS_8,56,9999,9999,9999,527707188
105,4,2,T1_SMS_8,57,9999,9999,9999,528507964
105,4,2,T1_SMS_8,58,9999,9999,9999,529307704
105,4,2,T1_SMS_8,59,9999,9999,9999,530107460
105,4,2,T1_SMS_8,60,9999,9999,9999,530907192
105,4,2,T1_SMS_8,61,9999,9999,9999,531707972
105,4,2,T1_SMS_8,62,9999,9999,9999,532507704
105,4,2,T1_SMS_8,63,9999,9999,9999,533307444
105,4,2,T1_SMS_8,64,9999,9999,9999,534107252
105,4,2,T1_SMS_8,65,9999,9999,9999,534907952
105,4,2,T1_SMS_8,66,9999,9999,9999,535707760
105,4,2,T1_SMS_8,67,9999,9999,9999,536507448
105,4,2,T1_SMS_8,68,9999,9999,9999,537307252
105,4,2,T1_SMS_8,69,9999,9999,9999,538107956
105,4,2,T1_SMS_8,70,9999,9999,9999,538907696
105,4,2,T1_SMS_8,71,9999,9999,9999,539707504
105,4,2,T1_SMS_8,72,9999,9999,9999,540507236
105,4,2,T1_SMS_8,73,9999,9999,9999,541308020
105,4,2,T1_SMS_8,74,9999,9999,9999,542107752
105,4,2,T1_SMS_8,75,9999,9999,9999,542907512
105,4,2,T1_SMS_8,76,9999,9999,9999,543707264
105,4,2,T1_SMS_8,77,9999,9999,9999,544507952
105,4,2,T1_SMS_8,78,9999,9999,9999,545307760
105,4,2,T1_SMS_8,79,9999,9999,9999,546107484
105,4,2,T1_SMS_8,80,9999,9999,9999,546907220
105,4,2,T1_SMS_8,81,9999,9999,9999,547708004
105,4,2,T1_SMS_8,82,9999,9999,9999,548507736
105,4,2,T1_SMS_8,83,9999,9999,9999,549307496
105,4,2,T1_SMS_8,84,9999,9999,9999,550107220
105,4,2,T1_SMS_8,85,9999,9999,9999,550908004
105,4,2,T1_SMS_8,86,9999,9999,9999,551707736
105,4,2,T1_SMS_8,87,9999,9999,9999,552507472
105,4,2,T1_SMS_8,88,9999,9999,9999,553307204
105,4,2,T1_SMS_8,89,9999,9999,9999,554107984
105,4,2,T1_SMS_8,90,9999,9999,9999,554907720
105,4,2,T1_SMS_8,91,9999,9999,9999,555707476
105,4,2,T1_SMS_8,92,9999,9999,9999,556507208
105,4,2,T1_SMS_8,93,9999,9999,9999,557307996
105,4,2,T1_SMS_8,94,9999,9999,9999,558107728
105,4,2,T1_SMS_8,95,9999,9999,9999,558907460
105,4,2,T1_SMS_8,96,9999,9999,9999,559707192
105,4,2,T1_SMS_8,97,9999,9999,9999,560507972
105,4,2,T1_SMS_8,98,9999,9999,9999,561307704
105,4,2,T1_SMS_8,99,9999,9999,9999,562107464
105,4,2,T1_SMS_8,100,9999,9999,9999,562907204
105,4,2,T1_SMS_8,101,9999,9999,9999,563707984
105,4,2,T1_SMS_8,102,9999,9999,9999,564507716
105,4,2,T1_SMS_8,103,9999,9999,9999,565307448
105,4,2,T1_SMS_8,104,9999,9999,9999,566107184
105,4,2,T1_SMS_8,105,9999,9999,9999,566907960
105,4,2,T1_SMS_8,106,9999,9999,9999,567707696
105,4,2,T1_SMS_8,107,9999,9999,9999,568507452
105,4,2,T1_SMS_8,108,9999,9999,9999,569307188
105,4,2,T1_SMS_8,109,9999,9999,9999,570107960
105,4,2,T1_SMS_8,110,9999,9999,9999,570907700
105,4,2,T1_SMS_8,111,9999,9999,9999,571707504
105,4,2,T1_SMS_8,112,9999,9999,9999,572507236
105,4,2,T1_SMS_8,113,9999,9999,9999,573307948
105,4,2,T1_SMS_8,114,9999,9999,9999,574107752
105,4,2,T1_SMS_8,115,9999,9999,9999,574907508
105,4,2,T1_SMS_8,116,9999,9999,9999,575707244
105,4,2,T1_SMS_8,117,9999,9999,9999,576508020
105,4,2,T1_SMS_8,118,9999,9999,9999,577307760
105,4,2,T1_SMS_8,119,9999,9999,9999,578107488
105,5,10,Ticks_ISO_T2_5,0,5,42,127,589382964
105,5,10,Ticks_ISO_T2_5,1,5,42,127,589882828
105,5,10,Ticks_ISO_T2_5,2,5,42,127,590382396
105,5,10,Ticks_ISO_T2_5,3,5,42,127,590883156
105,5,10,Ticks_ISO_T2_5,4,5,42,127,591383024
105,5,10,Ticks_ISO_T2_5,5,1,48,38,591478968
105,5,10,Ticks_ISO_T2_5,6,5,42,127,591882792
105,5,10,Ticks_ISO_T2_5,7,1,48,48,591890552
105,5,10,Ticks_ISO_T2_5,8,5,42,127,592383308
105,5,10,Ticks_ISO_T2_5,9,1,48,54,592386132
105,5,10,Ticks_ISO_T2_5,10,1,48,47,592880724
105,5,10,Ticks_ISO_T2_5,11,5,42,127,592883148
105,5,10,Ticks_ISO_T2_5,12,5,42,127,593382924
105,5,10,Ticks_ISO_T2_5,13,1,48,38,593405564
105,5,10,Ticks_ISO_T2_5,14,5,42,127,593882472
105,5,10,Ticks_ISO_T2_5,15,1,48,46,593893964
105,5,10,Ticks_ISO_T2_5,16,5,42,127,594383212
105,5,10,Ticks_ISO_T2_5,17,1,48,35,594531212
105,5,10,Ticks_ISO_T2_5,18,5,42,127,594883052
105,5,10,Ticks_ISO_T2_5,19,1,48,35,594948560
105,5,10,Ticks_ISO_T2_5,20,5,42,127,595382676
105,5,10,Ticks_ISO_T2_5,21,1,48,40,595448400
105,5,10,Ticks_ISO_T2_5,22,5,42,127,595883244
105,5,10,Ticks_ISO_T2_5,23,1,48,44,595925208
105,5,10,Ticks_ISO_T2_5,24,5,42,127,596383012
105,5,10,Ticks_ISO_T2_5,25,1,48,40,596389796
105,5,10,Ticks_ISO_T2_5,26,1,48,45,596825152
105,5,10,Ticks_ISO_T2_5,27,5,42,127,596882776
105,5,10,Ticks_ISO_T2_5,28,1,48,49,597368976
105,5,10,Ticks_ISO_T2_5,29,5,42,127,597382472
105,5,10,Ticks_ISO_T2_5,30,1,48,50,597862908
105,5,10,Ticks_ISO_T2_5,31,5,42,127,597883136
105,5,10,Ticks_ISO_T2_5,32,1,48,46,598370684
105,5,10,Ticks_ISO_T2_5,33,5,42,127,598382908
105,5,10,Ticks_ISO_T2_5,34,1,48,51,598857508
105,5,10,Ticks_ISO_T2_5,35,5,42,127,598882676
105,5,10,Ticks_ISO_T2_5,36,5,42,127,599383352
105,5,10,Ticks_ISO_T2_5,37,1,48,47,599401952
105,5,10,Ticks_ISO_T2_5,38,1,48,48,599877848
105,5,10,Ticks_ISO_T2_5,39,5,42,127,599883040
105,5,10,Ticks_ISO_T2_5,40,1,48,43,600365124
105,5,10,Ticks_ISO_T2_5,41,5,42,127,600382732
105,5,10,Ticks_ISO_T2_5,42,1,48,46,600853220
105,5,10,Ticks_ISO_T2_5,43,5,42,127,600882652
105,5,10,Ticks_ISO_T2_5,44,1,48,51,601373636
105,5,10,Ticks_ISO_T2_5,45,5,42,127,601383396
105,5,10,Ticks_ISO_T2_5,46,1,48,47,601821572
105,5,10,Ticks_ISO_T2_5,47,5,42,127,601883012
105,5,10,Ticks_ISO_T2_5,48,1,48,51,602347972
105,5,10,Ticks_ISO_T2_5,49,5,42,127,602382708
105,5,10,Ticks_ISO_T2_5,50,1,48,51,602845496
105,5,10,Ticks_ISO_T2_5,51,5,42,127,602882404
105,5,10,Ticks_ISO_T2_5,52,1,48,47,603342644
105,5,10,Ticks_ISO_T2_5,53,5,42,127,603383072
105,5,10,Ticks_ISO_T2_5,54,5,42,127,603882924
105,5,10,Ticks_ISO_T2_5,55,1,48,54,603917608
105,5,10,Ticks_ISO_T2_5,56,1,48,50,604373524
105,5,10,Ticks_ISO_T2_5,57,5,42,127,604382760
105,5,10,Ticks_ISO_T2_5,58,1,48,30,604432912
105,5,10,Ticks_ISO_T2_5,59,5,42,127,604883264
105,5,10,Ticks_ISO_T2_5,60,1,48,46,604910696
105,5,10,Ticks_ISO_T2_5,61,1,48,47,605370200
105,5,10,Ticks_ISO_T2_5,62,5,42,127,605382952
105,5,10,Ticks_ISO_T2_5,63,5,42,127,605882724
105,5,10,Ticks_ISO_T2_5,64,1,48,42,605895192
105,5,10,Ticks_ISO_T2_5,65,1,48,44,606373452
105,5,10,Ticks_ISO_T2_5,66,5,42,127,606382316
105,5,10,Ticks_ISO_T2_5,67,1,48,46,606861932
105,5,10,Ticks_ISO_T2_5,68,5,42,127,606883132
105,5,10,Ticks_ISO_T2_5,69,5,42,127,607382836
105,5,10,Ticks_ISO_T2_5,70,1,48,51,607394628
105,5,10,Ticks_ISO_T2_5,71,1,48,56,607876508
105,5,10,Ticks_ISO_T2_5,72,5,42,127,607882596
105,5,10,Ticks_ISO_T2_5,73,1,48,32,607931876
105,5,10,Ticks_ISO_T2_5,74,5,42,127,608383396
105,5,10,Ticks_ISO_T2_5,75,1,48,51,608402072
105,5,10,Ticks_ISO_T2_5,76,1,48,47,608871084
105,5,10,Ticks_ISO_T2_5,77,5,42,127,608883012
105,5,10,Ticks_ISO_T2_5,78,1,48,43,609370104
105,5,10,Ticks_ISO_T2_5,79,5,42,127,609382632
105,5,10,Ticks_ISO_T2_5,80,1,48,43,609874884
105,5,10,Ticks_ISO_T2_5,81,5,42,127,609882548
105,5,10,Ticks_ISO_T2_5,82,1,48,38,610339576
105,5,10,Ticks_ISO_T2_5,83,5,42,127,610383220
105,5,10,Ticks_ISO_T2_5,84,5,42,127,610882920
105,5,10,Ticks_ISO_T2_5,85,1,48,40,610889404
105,5,10,Ticks_ISO_T2_5,86,1,48,48,611332312
105,5,10,Ticks_ISO_T2_5,87,5,42,127,611382608
105,5,10,Ticks_ISO_T2_5,88,1,48,46,611866112
105,5,10,Ticks_ISO_T2_5,89,5,42,127,611883276
105,5,10,Ticks_ISO_T2_5,90,1,48,50,612327812
105,5,10,Ticks_ISO_T2_5,91,5,42,127,612383120
105,5,10,Ticks_ISO_T2_5,92,1,48,48,612873432
105,5,10,Ticks_ISO_T2_5,93,5,42,127,612882668
105,5,10,Ticks_ISO_T2_5,94,5,42,127,613382592
105,5,10,Ticks_ISO_T2_5,95,1,48,45,613386760
105,5,10,Ticks_ISO_T2_5,96,5,42,127,613883108
105,5,10,Ticks_ISO_T2_5,97,1,48,41,613929832
105,5,10,Ticks_ISO_T2_5,98,5,42,127,614382952
105,5,10,Ticks_ISO_T2_5,99,1,48,48,614389888
105,5,10,Ticks_ISO_T2_5,100,5,42,127,614882796
105,5,10,Ticks_ISO_T2_5,101,1,48,44,614897960
105,5,10,Ticks_ISO_T2_5,102,1,48,48,615345400
105,5,10,Ticks_ISO_T2_5,103,5,42,127,615383528
105,5,10,Ticks_ISO_T2_5,104,5,42,127,615883080
105,5,10,Ticks_ISO_T2_5,105,1,48,40,615889044
105,5,10,Ticks_ISO_T2_5,106,5,42,127,616382776
105,5,10,Ticks_ISO_T2_5,107,1,48,34,616424640
105,5,10,Ticks_ISO_T2_5,108,5,42,127,616882816
105,5,10,Ticks_ISO_T2_5,109,1,48,40,616884104
105,5,10,Ticks_ISO_T2_5,110,5,42,127,617383260
105,5,10,Ticks_ISO_T2_5,111,1,48,46,617423204
105,5,10,Ticks_ISO_T2_5,112,5,42,127,617882956
105,5,10,Ticks_ISO_T2_5,113,1,48,44,617937412
105,5,10,Ticks_ISO_T2_5,114,5,42,127,618382876
105,5,10,Ticks_ISO_T2_5,115,1,48,42,618409184
105,5,10,Ticks_ISO_T2_5,116,5,42,127,618882568
105,5,10,Ticks_ISO_T2_5,117,1,48,39,618987216
105,5,10,Ticks_ISO_T2_5,118,5,42,127,619383160
105,5,10,Ticks_ISO_T2_5,119,1,48,42,619404976
105,5,10,Ticks_ISO_T2_5,120,5,42,127,619883004
105,5,10,Ticks_ISO_T2_5,121,1,48,37,619914096
105,5,10,Ticks_ISO_T2_5,122,1,48,35,620349600
105,5,10,Ticks_ISO_T2_5,123,5,42,127,620382840
105,5,10,Ticks_ISO_T2_5,124,5,42,127,620883292
105,5,10,Ticks_ISO_T2_5,125,1,48,47,620891348
105,5,10,Ticks_ISO_T2_5,126,1,48,44,621371276
105,5,10,Ticks_ISO_T2_5,127,5,42,127,621383128
105,5,10,Ticks_ISO_T2_5,128,1,48,47,621871868
105,5,10,Ticks_ISO_T2_5,129,5,42,127,621882672
105,5,10,Ticks_ISO_T2_5,130,1,48,51,622339772
105,5,10,Ticks_ISO_T2_5,131,5,42,127,622382664
105,5,10,Ticks_ISO_T2_5,132,5,42,127,622883188
105,5,10,Ticks_ISO_T2_5,133,1,48,37,622930364
105,5,10,Ticks_ISO_T2_5,134,5,42,127,623382884
105,5,10,Ticks_ISO_T2_5,135,1,48,49,623429088
105,5,10,Ticks_ISO_T2_5,136,5,42,127,623882800
105,5,10,Ticks_ISO_T2_5,137,1,48,54,623942992
105,5,10,Ticks_ISO_T2_5,138,5,42,127,624383392
105,5,10,Ticks_ISO_T2_5,139,1,48,50,624463256
105,5,10,Ticks_ISO_T2_5,140,5,42,127,624883088
105,5,10,Ticks_ISO_T2_5,141,1,48,39,624976336
105,5,10,Ticks_ISO_T2_5,142,5,42,127,625382708
105,5,10,Ticks_ISO_T2_5,143,1,48,31,625390016
105,5,10,Ticks_ISO_T2_5,144,1,48,33,625824440
105,5,10,Ticks_ISO_T2_5,145,5,42,127,625882916
105,5,10,Ticks_ISO_T2_5,146,5,42,127,626383220
105,5,10,Ticks_ISO_T2_5,147,1,48,27,626399652
105,5,10,Ticks_ISO_T2_5,148,5,42,127,626882988
105,5,10,Ticks_ISO_T2_5,149,1,48,36,626914460
105,5,10,Ticks_ISO_T2_5,150,1,48,41,627357864
105,5,10,Ticks_ISO_T2_5,151,5,42,127,627382676
105,5,10,Ticks_ISO_T2_5,152,5,42,127,627883476
105,5,10,Ticks_ISO_T2_5,153,1,48,32,627890264
105,5,10,Ticks_ISO_T2_5,154,5,42,127,628382944
105,5,10,Ticks_ISO_T2_5,155,1,48,45,628386064
105,5,10,Ticks_ISO_T2_5,156,5,42,127,628883012
105,5,10,Ticks_ISO_T2_5,157,1,48,51,628900492
105,5,10,Ticks_ISO_T2_5,158,5,42,127,629382560
105,5,10,Ticks_ISO_T2_5,159,1,48,56,629412232
105,5,10,Ticks_ISO_T2_5,160,1,48,45,629868604
105,5,10,Ticks_ISO_T2_5,161,5,42,127,629883368
105,5,10,Ticks_ISO_T2_5,162,1,48,46,630375248
105,5,10,Ticks_ISO_T2_5,163,5,42,127,630382840
105,5,10,Ticks_ISO_T2_5,164,5,42,127,630882616
105,5,10,Ticks_ISO_T2_5,165,1,48,41,630914380
105,5,10,Ticks_ISO_T2_5,166,1,48,45,631371644
105,5,10,Ticks_ISO_T2_5,167,5,42,127,631383500
105,5,10,Ticks_ISO_T2_5,168,1,48,54,631869624
105,5,10,Ticks_ISO_T2_5,169,5,42,127,631882972
105,5,10,Ticks_ISO_T2_5,170,1,48,48,632371784
105,5,10,Ticks_ISO_T2_5,171,5,42,127,632382812
105,5,10,Ticks_ISO_T2_5,172,5,42,127,632882664
105,5,10,Ticks_ISO_T2_5,173,1,48,46,632907928
105,5,10,Ticks_ISO_T2_5,174,5,42,127,633383480
105,5,10,Ticks_ISO_T2_5,175,1,48,49,633403580
105,5,10,Ticks_ISO_T2_5,176,5,42,127,633882876
105,5,10,Ticks_ISO_T2_5,177,1,48,47,633970068
105,5,10,Ticks_ISO_T2_5,178,5,42,127,634382720
105,5,10,Ticks_ISO_T2_5,179,1,48,34,634394816
105,5,10,Ticks_ISO_T2_5,180,1,48,57,634833680
105,5,10,Ticks_ISO_T2_5,181,5,42,127,634882484
105,5,10,Ticks_ISO_T2_5,182,1,48,50,635341380
105,5,10,Ticks_ISO_T2_5,183,5,42,127,635383004
105,5,10,Ticks_ISO_T2_5,184,1,48,56,635830228
105,5,10,Ticks_ISO_T2_5,185,5,42,127,635882772
105,5,10,Ticks_ISO_T2_5,186,1,48,55,636342792
105,5,10,Ticks_ISO_T2_5,187,5,42,127,636382540
105,5,10,Ticks_ISO_T2_5,188,1,48,49,636824060
105,5,10,Ticks_ISO_T2_5,189,5,42,127,636883432
105,5,10,Ticks_ISO_T2_5,190,5,42,127,637382984
105,5,10,Ticks_ISO_T2_5,191,1,48,50,637404728
105,5,10,Ticks_ISO_T2_5,192,5,42,127,637882828
105,5,10,Ticks_ISO_T2_5,193,1,48,47,637900456
105,5,10,Ticks_ISO_T2_5,194,5,42,127,638382424
105,5,10,Ticks_ISO_T2_5,195,1,48,48,638407112
105,5,10,Ticks_ISO_T2_5,196,1,48,34,638827028
105,5,10,Ticks_ISO_T2_5,197,5,42,127,638883384
105,5,10,Ticks_ISO_T2_5,198,5,42,127,639382860
105,5,10,Ticks_ISO_T2_5,199,1,48,42,639385980
105,5,10,Ticks_ISO_T2_5,200,1,48,34,639873912
105,5,10,Ticks_ISO_T2_5,201,5,42,127,639882548
105,5,10,Ticks_ISO_T2_5,202,1,48,38,640378468
105,5,10,Ticks_ISO_T2_5,203,5,42,127,640383588
105,5,10,Ticks_ISO_T2_5,204,1,48,37,640856996
105,5,10,Ticks_ISO_T2_5,205,5,42,127,640882984
105,5,10,Ticks_ISO_T2_5,206,5,42,127,641382688
105,5,10,Ticks_ISO_T2_5,207,1,48,39,641388800
105,5,10,Ticks_ISO_T2_5,208,1,48,52,641847036
105,5,10,Ticks_ISO_T2_5,209,5,42,127,641882524
105,5,10,Ticks_ISO_T2_5,210,1,48,50,642350176
105,5,10,Ticks_ISO_T2_5,211,5,42,127,642383412
105,5,10,Ticks_ISO_T2_5,212,5,42,127,642882892
105,5,10,Ticks_ISO_T2_5,213,1,48,54,642886984
105,5,10,Ticks_ISO_T2_5,214,1,48,59,643323304
105,5,10,Ticks_ISO_T2_5,215,5,42,127,643382504
105,5,10,Ticks_ISO_T2_5,216,1,48,62,643847084
105,5,10,Ticks_ISO_T2_5,217,5,42,127,643883620
105,5,10,Ticks_ISO_T2_5,218,1,48,64,644323520
105,5,10,Ticks_ISO_T2_5,219,5,42,127,644383164
105,5,10,Ticks_ISO_T2_5,220,1,48,61,644816776
105,5,10,Ticks_ISO_T2_5,221,5,42,127,644882784
105,5,10,Ticks_ISO_T2_5,222,1,48,52,645330088
105,5,10,Ticks_ISO_T2_5,223,5,42,127,645382480
105,5,10,Ticks_ISO_T2_5,224,1,48,48,645836140
105,5,10,Ticks_ISO_T2_5,225,5,42,127,645883444
105,5,10,Ticks_ISO_T2_5,226,1,48,45,646345556
105,5,10,Ticks_ISO_T2_5,227,5,42,127,646382992
105,5,10,Ticks_ISO_T2_5,228,1,48,45,646857000
105,5,10,Ticks_ISO_T2_5,229,5,42,127,646882836
105,5,10,Ticks_ISO_T2_5,230,1,48,52,647332208
105,5,10,Ticks_ISO_T2_5,231,5,42,127,647383576
105,5,10,Ticks_ISO_T2_5,232,1,48,44,647861848
105,5,10,Ticks_ISO_T2_5,233,5,42,127,647883052
105,5,10,Ticks_ISO_T2_5,234,1,48,47,648353436
105,5,10,Ticks_ISO_T2_5,235,5,42,127,648382744
105,5,10,Ticks_ISO_T2_5,236,1,48,50,648869812
105,5,10,Ticks_ISO_T2_5,237,5,42,127,648882588
105,5,10,Ticks_ISO_T2_5,238,1,48,51,649359112
105,5,10,Ticks_ISO_T2_5,239,5,42,127,649383528
105,5,10,Ticks_ISO_T2_5,240,5,42,127,649882932
105,5,10,Ticks_ISO_T2_5,241,1,48,47,649910612
105,5,10,Ticks_ISO_T2_5,242,1,48,48,650365680
105,5,10,Ticks_ISO_T2_5,243,5,42,127,650382620
105,5,10,Ticks_ISO_T2_5,244,5,42,127,650882468
105,5,10,Ticks_ISO_T2_5,245,1,48,46,650890528
105,5,10,Ticks_ISO_T2_5,246,1,48,51,651338144
105,5,10,Ticks_ISO_T2_5,247,5,42,127,651383056
105,5,10,Ticks_ISO_T2_5,248,5,42,127,651882832
105,5,10,Ticks_ISO_T2_5,249,1,48,45,651909440
105,5,10,Ticks_ISO_T2_5,250,5,42,127,652382600
105,5,10,Ticks_ISO_T2_5,251,1,48,47,652421472
105,5,10,Ticks_ISO_T2_5,252,5,42,127,652883488
105,5,10,Ticks_ISO_T2_5,253,1,48,45,652908080
105,5,10,Ticks_ISO_T2_5,254,1,48,47,653371324
105,5,10,Ticks_ISO_T2_5,255,5,42,127,653382956
105,5,10,Ticks_ISO_T2_5,256,1,48,47,653873640
105,5,10,Ticks_ISO_T2_5,257,5,42,127,653882724
105,5,10,Ticks_ISO_T2_5,0,9999,9999,9999,589380676
105,5,10,Ticks_ISO_T2_5,1,9999,9999,9999,589880392
105,5,10,Ticks_ISO_T2_5,2,9999,9999,9999,590380108
105,5,10,Ticks_ISO_T2_5,3,9999,9999,9999,590880872
105,5,10,Ticks_ISO_T2_5,4,9999,9999,9999,591380588
105,5,10,Ticks_ISO_T2_5,5,9999,9999,9999,591880284
105,5,10,Ticks_ISO_T2_5,6,9999,9999,9999,592381024
105,5,10,Ticks_ISO_T2_5,7,9999,9999,9999,592880788
105,5,10,Ticks_ISO_T2_5,8,9999,9999,9999,593380416
105,5,10,Ticks_ISO_T2_5,9,9999,9999,9999,593880184
105,5,10,Ticks_ISO_T2_5,10,9999,9999,9999,594380852
105,5,10,Ticks_ISO_T2_5,11,9999,9999,9999,594880620
105,5,10,Ticks_ISO_T2_5,12,9999,9999,9999,595380316
105,5,10,Ticks_ISO_T2_5,13,9999,9999,9999,595881032
105,5,10,Ticks_ISO_T2_5,14,9999,9999,9999,596380728
105,5,10,Ticks_ISO_T2_5,15,9999,9999,9999,596880492
105,5,10,Ticks_ISO_T2_5,16,9999,9999,9999,597380184
105,5,10,Ticks_ISO_T2_5,17,9999,9999,9999,597880924
105,5,10,Ticks_ISO_T2_5,18,9999,9999,9999,598380620
105,5,10,Ticks_ISO_T2_5,19,9999,9999,9999,598880316
105,5,10,Ticks_ISO_T2_5,20,9999,9999,9999,599381064
105,5,10,Ticks_ISO_T2_5,21,9999,9999,9999,599880752
105,5,10,Ticks_ISO_T2_5,22,9999,9999,9999,600380524
105,5,10,Ticks_ISO_T2_5,23,9999,9999,9999,600880216
105,5,10,Ticks_ISO_T2_5,24,9999,9999,9999,601380960
105,5,10,Ticks_ISO_T2_5,25,9999,9999,9999,601880652
105,5,10,Ticks_ISO_T2_5,26,9999,9999,9999,602380348
105,5,10,Ticks_ISO_T2_5,27,9999,9999,9999,602880116
105,5,10,Ticks_ISO_T2_5,28,9999,9999,9999,603380784
105,5,10,Ticks_ISO_T2_5,29,9999,9999,9999,603880560
105,5,10,Ticks_ISO_T2_5,30,9999,9999,9999,604380248
105,5,10,Ticks_ISO_T2_5,31,9999,9999,9999,604880976
105,5,10,Ticks_ISO_T2_5,32,9999,9999,9999,605380664
105,5,10,Ticks_ISO_T2_5,33,9999,9999,9999,605880440
105,5,10,Ticks_ISO_T2_5,34,9999,9999,9999,606380104
105,5,10,Ticks_ISO_T2_5,35,9999,9999,9999,606880848
105,5,10,Ticks_ISO_T2_5,36,9999,9999,9999,607380548
105,5,10,Ticks_ISO_T2_5,37,9999,9999,9999,607880312
105,5,10,Ticks_ISO_T2_5,38,9999,9999,9999,608381036
105,5,10,Ticks_ISO_T2_5,39,9999,9999,9999,608880728
105,5,10,Ticks_ISO_T2_5,40,9999,9999,9999,609380420
105,5,10,Ticks_ISO_T2_5,41,9999,9999,9999,609880116
105,5,10,Ticks_ISO_T2_5,42,9999,9999,9999,610380856
105,5,10,Ticks_ISO_T2_5,43,9999,9999,9999,610880632
105,5,10,Ticks_ISO_T2_5,44,9999,9999,9999,611380324
105,5,10,Ticks_ISO_T2_5,45,9999,9999,9999,611881064
105,5,10,Ticks_ISO_T2_5,46,9999,9999,9999,612380760
105,5,10,Ticks_ISO_T2_5,47,9999,9999,9999,612880456
105,5,10,Ticks_ISO_T2_5,48,9999,9999,9999,613380156
105,5,10,Ticks_ISO_T2_5,49,9999,9999,9999,613880896
105,5,10,Ticks_ISO_T2_5,50,9999,9999,9999,614380664
105,5,10,Ticks_ISO_T2_5,51,9999,9999,9999,614880360
105,5,10,Ticks_ISO_T2_5,52,9999,9999,9999,615381092
105,5,10,Ticks_ISO_T2_5,53,9999,9999,9999,615880796
105,5,10,Ticks_ISO_T2_5,54,9999,9999,9999,616380488
105,5,10,Ticks_ISO_T2_5,55,9999,9999,9999,616880232
105,5,10,Ticks_ISO_T2_5,56,9999,9999,9999,617380976
105,5,10,Ticks_ISO_T2_5,57,9999,9999,9999,617880668
105,5,10,Ticks_ISO_T2_5,58,9999,9999,9999,618380364
105,5,10,Ticks_ISO_T2_5,59,9999,9999,9999,618880060
105,5,10,Ticks_ISO_T2_5,60,9999,9999,9999,619380800
105,5,10,Ticks_ISO_T2_5,61,9999,9999,9999,619880568
105,5,10,Ticks_ISO_T2_5,62,9999,9999,9999,620380256
105,5,10,Ticks_ISO_T2_5,63,9999,9999,9999,620881004
105,5,10,Ticks_ISO_T2_5,64,9999,9999,9999,621380692
105,5,10,Ticks_ISO_T2_5,65,9999,9999,9999,621880388
105,5,10,Ticks_ISO_T2_5,66,9999,9999,9999,622380080
105,5,10,Ticks_ISO_T2_5,67,9999,9999,9999,622880828
105,5,10,Ticks_ISO_T2_5,68,9999,9999,9999,623380596
105,5,10,Ticks_ISO_T2_5,69,9999,9999,9999,623880292
105,5,10,Ticks_ISO_T2_5,70,9999,9999,9999,624381032
105,5,10,Ticks_ISO_T2_5,71,9999,9999,9999,624880728
105,5,10,Ticks_ISO_T2_5,72,9999,9999,9999,625380424
105,5,10,Ticks_ISO_T2_5,73,9999,9999,9999,625880184
105,5,10,Ticks_ISO_T2_5,74,9999,9999,9999,626380856
105,5,10,Ticks_ISO_T2_5,75,9999,9999,9999,626880624
105,5,10,Ticks_ISO_T2_5,76,9999,9999,9999,627380316
105,5,10,Ticks_ISO_T2_5,77,9999,9999,9999,627881040
105,5,10,Ticks_ISO_T2_5,78,9999,9999,9999,628380732
105,5,10,Ticks_ISO_T2_5,79,9999,9999,9999,628880500
105,5,10,Ticks_ISO_T2_5,80,9999,9999,9999,629380196
105,5,10,Ticks_ISO_T2_5,81,9999,9999,9999,629880932
105,5,10,Ticks_ISO_T2_5,82,9999,9999,9999,630380628
105,5,10,Ticks_ISO_T2_5,83,9999,9999,9999,630880328
105,5,10,Ticks_ISO_T2_5,84,9999,9999,9999,631381064
105,5,10,Ticks_ISO_T2_5,85,9999,9999,9999,631880760
105,5,10,Ticks_ISO_T2_5,86,9999,9999,9999,632380528
105,5,10,Ticks_ISO_T2_5,87,9999,9999,9999,632880228
105,5,10,Ticks_ISO_T2_5,88,9999,9999,9999,633380972
105,5,10,Ticks_ISO_T2_5,89,9999,9999,9999,633880664
105,5,10,Ticks_ISO_T2_5,90,9999,9999,9999,634380360
105,5,10,Ticks_ISO_T2_5,91,9999,9999,9999,634880052
105,5,10,Ticks_ISO_T2_5,92,9999,9999,9999,635380792
105,5,10,Ticks_ISO_T2_5,93,9999,9999,9999,635880564
105,5,10,Ticks_ISO_T2_5,94,9999,9999,9999,636380256
105,5,10,Ticks_ISO_T2_5,95,9999,9999,9999,636880996
105,5,10,Ticks_ISO_T2_5,96,9999,9999,9999,637380696
105,5,10,Ticks_ISO_T2_5,97,9999,9999,9999,637880392
105,5,10,Ticks_ISO_T2_5,98,9999,9999,9999,638380136
105,5,10,Ticks_ISO_T2_5,99,9999,9999,9999,638880872
105,5,10,Ticks_ISO_T2_5,100,9999,9999,9999,639380576
105,5,10,Ticks_ISO_T2_5,101,9999,9999,9999,639880264
105,5,10,Ticks_ISO_T2_5,102,9999,9999,9999,640381004
105,5,10,Ticks_ISO_T2_5,103,9999,9999,9999,640880700
105,5,10,Ticks_ISO_T2_5,104,9999,9999,9999,641380400
105,5,10,Ticks_ISO_T2_5,105,9999,9999,9999,641880164
105,5,10,Ticks_ISO_T2_5,106,9999,9999,9999,642380904
105,5,10,Ticks_ISO_T2_5,107,9999,9999,9999,642880604
105,5,10,Ticks_ISO_T2_5,108,9999,9999,9999,643380292
105,5,10,Ticks_ISO_T2_5,109,9999,9999,9999,643881036
105,5,10,Ticks_ISO_T2_5,110,9999,9999,9999,644380728
105,5,10,Ticks_ISO_T2_5,111,9999,9999,9999,644880496
105,5,10,Ticks_ISO_T2_5,112,9999,9999,9999,645380192
105,5,10,Ticks_ISO_T2_5,113,9999,9999,9999,645880936
105,5,10,Ticks_ISO_T2_5,114,9999,9999,9999,646380632
105,5,10,Ticks_ISO_T2_5,115,9999,9999,9999,646880328
105,5,10,Ticks_ISO_T2_5,116,9999,9999,9999,647381068
105,5,10,Ticks_ISO_T2_5,117,9999,9999,9999,647880764
105,5,10,Ticks_ISO_T2_5,118,9999,9999,9999,648380532
105,5,10,Ticks_ISO_T2_5,119,9999,9999,9999,648880204
105,5,10,Ticks_ISO_T2_5,120,9999,9999,9999,649380944
105,5,10,Ticks_ISO_T2_5,121,9999,9999,9999,649880644
105,5,10,Ticks_ISO_T2_5,122,9999,9999,9999,650380408
105,5,10,Ticks_ISO_T2_5,123,9999,9999,9999,650880108
105,5,10,Ticks_ISO_T2_5,124,9999,9999,9999,651380844
105,5,10,Ticks_ISO_T2_5,125,9999,9999,9999,651880544
105,5,10,Ticks_ISO_T2_5,126,9999,9999,9999,652380236
105,5,10,Ticks_ISO_T2_5,127,9999,9999,9999,652880980
105,5,10,Ticks_ISO_T2_5,128,9999,9999,9999,653380668
105,5,10,Ticks_ISO_T2_5,129,9999,9999,9999,653880436
105,6,9,Ticks_ISO_T2_8,0,5,42,127,664260900
105,6,9,Ticks_ISO_T2_8,1,5,42,127,665060804
105,6,9,Ticks_ISO_T2_8,2,5,42,127,665860408
105,6,9,Ticks_ISO_T2_8,3,5,42,127,666661212
105,6,9,Ticks_ISO_T2_8,4,1,48,34,667411488
105,6,9,Ticks_ISO_T2_8,5,5,42,127,667461108
105,6,9,Ticks_ISO_T2_8,6,1,48,38,668150036
105,6,9,Ticks_ISO_T2_8,7,5,42,127,668260604
105,6,9,Ticks_ISO_T2_8,8,1,48,38,668982308
105,6,9,Ticks_ISO_T2_8,9,5,42,127,669060500
105,6,9,Ticks_ISO_T2_8,10,1,48,39,669798420
105,6,9,Ticks_ISO_T2_8,11,5,42,127,669861352
105,6,9,Ticks_ISO_T2_8,12,1,48,43,670605632
105,6,9,Ticks_ISO_T2_8,13,5,42,127,670661112
105,6,9,Ticks_ISO_T2_8,14,1,48,40,671411672
105,6,9,Ticks_ISO_T2_8,15,5,42,127,671460624
105,6,9,Ticks_ISO_T2_8,16,1,48,50,672195996
105,6,9,Ticks_ISO_T2_8,17,5,42,127,672260432
105,6,9,Ticks_ISO_T2_8,18,1,48,40,673024080
105,6,9,Ticks_ISO_T2_8,19,5,42,127,673061360
105,6,9,Ticks_ISO_T2_8,20,1,48,35,673789108
105,6,9,Ticks_ISO_T2_8,21,5,42,127,673861092
105,6,9,Ticks_ISO_T2_8,22,1,48,40,674651668
105,6,9,Ticks_ISO_T2_8,23,5,42,127,674660676
105,6,9,Ticks_ISO_T2_8,24,1,48,36,675446916
105,6,9,Ticks_ISO_T2_8,25,5,42,127,675460412
105,6,9,Ticks_ISO_T2_8,26,1,48,38,676247844
105,6,9,Ticks_ISO_T2_8,27,5,42,127,676261340
105,6,9,Ticks_ISO_T2_8,28,1,48,45,677024164
105,6,9,Ticks_ISO_T2_8,29,5,42,127,677061172
105,6,9,Ticks_ISO_T2_8,30,1,48,42,677852040
105,6,9,Ticks_ISO_T2_8,31,5,42,127,677860680
105,6,9,Ticks_ISO_T2_8,32,5,42,127,678660496
105,6,9,Ticks_ISO_T2_8,33,1,48,42,678811336
105,6,9,Ticks_ISO_T2_8,34,5,42,127,679461128
105,6,9,Ticks_ISO_T2_8,35,1,48,31,679690232
105,6,9,Ticks_ISO_T2_8,36,5,42,127,680261232
105,6,9,Ticks_ISO_T2_8,37,1,48,27,680318876
105,6,9,Ticks_ISO_T2_8,38,1,48,27,681013432
105,6,9,Ticks_ISO_T2_8,39,5,42,127,681060808
105,6,9,Ticks_ISO_T2_8,40,5,42,127,681860400
105,6,9,Ticks_ISO_T2_8,41,1,48,40,681884608
105,6,9,Ticks_ISO_T2_8,42,1,48,24,682596520
105,6,9,Ticks_ISO_T2_8,43,5,42,127,682661100
105,6,9,Ticks_ISO_T2_8,44,1,48,38,683334692
105,6,9,Ticks_ISO_T2_8,45,5,42,127,683461140
105,6,9,Ticks_ISO_T2_8,46,1,48,29,684124696
105,6,9,Ticks_ISO_T2_8,47,5,42,127,684260648
105,6,9,Ticks_ISO_T2_8,48,1,48,40,684869080
105,6,9,Ticks_ISO_T2_8,49,5,42,127,685060384
105,6,9,Ticks_ISO_T2_8,50,1,48,38,685616908
105,6,9,Ticks_ISO_T2_8,51,5,42,127,685861164
105,6,9,Ticks_ISO_T2_8,52,1,48,41,686534024
105,6,9,Ticks_ISO_T2_8,53,5,42,127,686661120
105,6,9,Ticks_ISO_T2_8,54,1,48,38,687346392
105,6,9,Ticks_ISO_T2_8,55,5,42,127,687460708
105,6,9,Ticks_ISO_T2_8,56,1,48,45,688183900
105,6,9,Ticks_ISO_T2_8,57,5,42,127,688260528
105,6,9,Ticks_ISO_T2_8,58,1,48,41,688979228
105,6,9,Ticks_ISO_T2_8,59,5,42,127,689061088
105,6,9,Ticks_ISO_T2_8,60,1,48,39,689856700
105,6,9,Ticks_ISO_T2_8,61,5,42,127,689861068
105,6,9,Ticks_ISO_T2_8,62,1,48,42,690617016
105,6,9,Ticks_ISO_T2_8,63,5,42,127,690660656
105,6,9,Ticks_ISO_T2_8,64,1,48,37,691434924
105,6,9,Ticks_ISO_T2_8,65,5,42,127,691460388
105,6,9,Ticks_ISO_T2_8,66,1,48,29,692229424
105,6,9,Ticks_ISO_T2_8,67,5,42,127,692261168
105,6,9,Ticks_ISO_T2_8,68,1,48,32,693028932
105,6,9,Ticks_ISO_T2_8,69,5,42,127,693061052
105,6,9,Ticks_ISO_T2_8,70,5,42,127,693860644
105,6,9,Ticks_ISO_T2_8,71,1,48,34,693872436
105,6,9,Ticks_ISO_T2_8,72,1,48,37,694655548
105,6,9,Ticks_ISO_T2_8,73,5,42,127,694660372
105,6,9,Ticks_ISO_T2_8,74,5,42,127,695461304
105,6,9,Ticks_ISO_T2_8,75,1,48,41,695474096
105,6,9,Ticks_ISO_T2_8,76,5,42,127,696261064
105,6,9,Ticks_ISO_T2_8,77,1,48,35,696281084
105,6,9,Ticks_ISO_T2_8,78,1,48,39,697049912
105,6,9,Ticks_ISO_T2_8,79,5,42,127,697060568
105,6,9,Ticks_ISO_T2_8,80,1,48,39,697804688
105,6,9,Ticks_ISO_T2_8,81,5,42,127,697860452
105,6,9,Ticks_ISO_T2_8,82,1,48,35,698654988
105,6,9,Ticks_ISO_T2_8,83,5,42,127,698661304
105,6,9,Ticks_ISO_T2_8,84,1,48,37,699414856
105,6,9,Ticks_ISO_T2_8,85,5,42,127,699461112
105,6,9,Ticks_ISO_T2_8,86,1,48,33,700256248
105,6,9,Ticks_ISO_T2_8,87,5,42,127,700260696
105,6,9,Ticks_ISO_T2_8,88,5,42,127,701060364
105,6,9,Ticks_ISO_T2_8,89,1,48,29,701195300
105,6,9,Ticks_ISO_T2_8,90,5,42,127,701861144
105,6,9,Ticks_ISO_T2_8,91,1,48,35,701891740
105,6,9,Ticks_ISO_T2_8,92,5,42,127,702661124
105,6,9,Ticks_ISO_T2_8,93,1,48,40,702703816
105,6,9,Ticks_ISO_T2_8,94,1,48,43,703386144
105,6,9,Ticks_ISO_T2_8,95,5,42,127,703460780
105,6,9,Ticks_ISO_T2_8,96,1,48,35,704170472
105,6,9,Ticks_ISO_T2_8,97,5,42,127,704260436
105,6,9,Ticks_ISO_T2_8,98,1,48,36,704946140
105,6,9,Ticks_ISO_T2_8,99,5,42,127,705061128
105,6,9,Ticks_ISO_T2_8,100,1,48,35,705774676
105,6,9,Ticks_ISO_T2_8,101,5,42,127,705861096
105,6,9,Ticks_ISO_T2_8,102,1,48,29,706634692
105,6,9,Ticks_ISO_T2_8,103,5,42,127,706660684
105,6,9,Ticks_ISO_T2_8,104,1,48,15,707429116
105,6,9,Ticks_ISO_T2_8,105,5,42,127,707460416
105,6,9,Ticks_ISO_T2_8,106,5,42,127,708261204
105,6,9,Ticks_ISO_T2_8,107,1,48,15,708262468
105,6,9,Ticks_ISO_T2_8,108,1,48,33,709016536
105,6,9,Ticks_ISO_T2_8,109,5,42,127,709061104
105,6,9,Ticks_ISO_T2_8,110,1,48,31,709763836
105,6,9,Ticks_ISO_T2_8,111,5,42,127,709860984
105,6,9,Ticks_ISO_T2_8,112,1,48,37,710590900
105,6,9,Ticks_ISO_T2_8,113,5,42,127,710660496
105,6,9,Ticks_ISO_T2_8,114,1,48,38,711397520
105,6,9,Ticks_ISO_T2_8,115,5,42,127,711461352
105,6,9,Ticks_ISO_T2_8,116,1,48,44,712235320
105,6,9,Ticks_ISO_T2_8,117,5,42,127,712260936
105,6,9,Ticks_ISO_T2_8,118,5,42,127,713060972
105,6,9,Ticks_ISO_T2_8,119,1,48,32,713066936
105,6,9,Ticks_ISO_T2_8,120,5,42,127,713860556
105,6,9,Ticks_ISO_T2_8,121,1,48,37,713914336
105,6,9,Ticks_ISO_T2_8,122,5,42,127,714661188
105,6,9,Ticks_ISO_T2_8,123,1,48,38,714708092
105,6,9,Ticks_ISO_T2_8,124,5,42,127,715460872
105,6,9,Ticks_ISO_T2_8,125,1,48,28,715502508
105,6,9,Ticks_ISO_T2_8,126,1,48,29,716220552
105,6,9,Ticks_ISO_T2_8,127,5,42,127,716260896
105,6,9,Ticks_ISO_T2_8,128,1,48,37,717060564
105,6,9,Ticks_ISO_T2_8,129,5,42,127,717061900
105,6,9,Ticks_ISO_T2_8,130,5,42,127,717861196
105,6,9,Ticks_ISO_T2_8,131,1,48,27,717864908
105,6,9,Ticks_ISO_T2_8,132,1,48,25,718622220
105,6,9,Ticks_ISO_T2_8,133,5,42,127,718660924
105,6,9,Ticks_ISO_T2_8,134,5,42,127,719460812
105,6,9,Ticks_ISO_T2_8,135,1,48,37,719491456
105,6,9,Ticks_ISO_T2_8,136,1,48,44,720203956
105,6,9,Ticks_ISO_T2_8,137,5,42,127,720260464
105,6,9,Ticks_ISO_T2_8,138,1,48,40,720986712
105,6,9,Ticks_ISO_T2_8,139,5,42,127,721061320
105,6,9,Ticks_ISO_T2_8,140,1,48,46,721768868
105,6,9,Ticks_ISO_T2_8,141,5,42,127,721860912
105,6,9,Ticks_ISO_T2_8,142,1,48,46,722583932
105,6,9,Ticks_ISO_T2_8,143,5,42,127,722660884
105,6,9,Ticks_ISO_T2_8,144,1,48,45,723374688
105,6,9,Ticks_ISO_T2_8,145,5,42,127,723460444
105,6,9,Ticks_ISO_T2_8,146,1,48,44,724184744
105,6,9,Ticks_ISO_T2_8,147,5,42,127,724261372
105,6,9,Ticks_ISO_T2_8,148,1,48,45,725036320
105,6,9,Ticks_ISO_T2_8,149,5,42,127,725060884
105,6,9,Ticks_ISO_T2_8,150,5,42,127,725860848
105,6,9,Ticks_ISO_T2_8,151,1,48,37,725861888
105,6,9,Ticks_ISO_T2_8,152,1,48,40,726649924
105,6,9,Ticks_ISO_T2_8,153,5,42,127,726660648
105,6,9,Ticks_ISO_T2_8,154,5,42,127,727461288
105,6,9,Ticks_ISO_T2_8,155,1,48,40,727485072
105,6,9,Ticks_ISO_T2_8,156,1,48,47,728258460
105,6,9,Ticks_ISO_T2_8,157,5,42,127,728260964
105,6,9,Ticks_ISO_T2_8,158,1,48,41,728998780
105,6,9,Ticks_ISO_T2_8,159,5,42,127,729060624
105,6,9,Ticks_ISO_T2_8,160,5,42,127,729860588
105,6,9,Ticks_ISO_T2_8,161,1,48,39,729954512
105,6,9,Ticks_ISO_T2_8,162,5,42,127,730661220
105,6,9,Ticks_ISO_T2_8,163,1,48,37,730758584
105,6,9,Ticks_ISO_T2_8,164,5,42,127,731460952
105,6,9,Ticks_ISO_T2_8,165,1,48,37,731537528
105,6,9,Ticks_ISO_T2_8,166,1,48,43,732251668
105,6,9,Ticks_ISO_T2_8,167,5,42,127,732260680
105,6,9,Ticks_ISO_T2_8,168,1,48,35,733027696
105,6,9,Ticks_ISO_T2_8,169,5,42,127,733060412
105,6,9,Ticks_ISO_T2_8,170,1,48,40,733782100
105,6,9,Ticks_ISO_T2_8,171,5,42,127,733861268
105,6,9,Ticks_ISO_T2_8,172,1,48,36,734619456
105,6,9,Ticks_ISO_T2_8,173,5,42,127,734660876
105,6,9,Ticks_ISO_T2_8,174,1,48,32,735403036
105,6,9,Ticks_ISO_T2_8,175,5,42,127,735460908
105,6,9,Ticks_ISO_T2_8,176,1,48,34,736230988
105,6,9,Ticks_ISO_T2_8,177,5,42,127,736260568
105,6,9,Ticks_ISO_T2_8,178,1,48,39,736890380
105,6,9,Ticks_ISO_T2_8,179,5,42,127,737061260
105,6,9,Ticks_ISO_T2_8,180,5,42,127,737861012
105,6,9,Ticks_ISO_T2_8,181,1,48,44,737890236
105,6,9,Ticks_ISO_T2_8,182,1,48,30,738655472
105,6,9,Ticks_ISO_T2_8,183,5,42,127,738660816
105,6,9,Ticks_ISO_T2_8,184,5,42,127,739460480
105,6,9,Ticks_ISO_T2_8,185,1,48,44,739485816
105,6,9,Ticks_ISO_T2_8,186,5,42,127,740261188
105,6,9,Ticks_ISO_T2_8,187,1,48,35,740331652
105,6,9,Ticks_ISO_T2_8,188,5,42,127,741061020
105,6,9,Ticks_ISO_T2_8,189,1,48,45,741142376
105,6,9,Ticks_ISO_T2_8,190,5,42,127,741860752
105,6,9,Ticks_ISO_T2_8,191,1,48,33,741946600
105,6,9,Ticks_ISO_T2_8,192,5,42,127,742660708
105,6,9,Ticks_ISO_T2_8,193,1,48,38,742766756
105,6,9,Ticks_ISO_T2_8,194,5,42,127,743461416
105,6,9,Ticks_ISO_T2_8,195,1,48,47,743544872
105,6,9,Ticks_ISO_T2_8,196,5,42,127,744261004
105,6,9,Ticks_ISO_T2_8,197,1,48,37,744330988
105,6,9,Ticks_ISO_T2_8,198,5,42,127,745060664
105,6,9,Ticks_ISO_T2_8,199,1,48,39,745163360
105,6,9,Ticks_ISO_T2_8,200,5,42,127,745860692
105,6,9,Ticks_ISO_T2_8,201,1,48,44,745952096
105,6,9,Ticks_ISO_T2_8,202,5,42,127,746661176
105,6,9,Ticks_ISO_T2_8,203,1,48,40,746683768
105,6,9,Ticks_ISO_T2_8,204,5,42,127,747460860
105,6,9,Ticks_ISO_T2_8,205,1,48,43,747539224
105,6,9,Ticks_ISO_T2_8,206,1,48,53,748233400
105,6,9,Ticks_ISO_T2_8,207,5,42,127,748260660
105,6,9,Ticks_ISO_T2_8,208,5,42,127,749060700
105,6,9,Ticks_ISO_T2_8,209,1,48,51,749092168
105,6,9,Ticks_ISO_T2_8,210,5,42,127,749861180
105,6,9,Ticks_ISO_T2_8,211,1,48,47,749935732
105,6,9,Ticks_ISO_T2_8,212,5,42,127,750660916
105,6,9,Ticks_ISO_T2_8,213,1,48,49,750777004
105,6,9,Ticks_ISO_T2_8,214,5,42,127,751460648
105,6,9,Ticks_ISO_T2_8,215,1,48,33,751590272
105,6,9,Ticks_ISO_T2_8,216,5,42,127,752260680
105,6,9,Ticks_ISO_T2_8,217,1,48,53,752453136
105,6,9,Ticks_ISO_T2_8,218,5,42,127,753061312
105,6,9,Ticks_ISO_T2_8,219,1,48,55,753217340
105,6,9,Ticks_ISO_T2_8,220,5,42,127,753860920
105,6,9,Ticks_ISO_T2_8,221,1,48,42,753966292
105,6,9,Ticks_ISO_T2_8,222,5,42,127,754660728
105,6,9,Ticks_ISO_T2_8,223,1,48,41,754776640
105,6,9,Ticks_ISO_T2_8,224,5,42,127,755460608
105,6,9,Ticks_ISO_T2_8,225,1,48,48,755504420
105,6,9,Ticks_ISO_T2_8,226,5,42,127,756261164
105,6,9,Ticks_ISO_T2_8,227,1,48,34,756334512
105,6,9,Ticks_ISO_T2_8,228,5,42,127,757061048
105,6,9,Ticks_ISO_T2_8,229,1,48,43,757069928
105,6,9,Ticks_ISO_T2_8,230,5,42,127,757860780
105,6,9,Ticks_ISO_T2_8,231,1,48,47,757888956
105,6,9,Ticks_ISO_T2_8,232,5,42,127,758660512
105,6,9,Ticks_ISO_T2_8,233,1,48,49,758663556
105,6,9,Ticks_ISO_T2_8,234,1,48,44,759451756
105,6,9,Ticks_ISO_T2_8,235,5,42,127,759461212
105,6,9,Ticks_ISO_T2_8,0,9999,9999,9999,664258612
105,6,9,Ticks_ISO_T2_8,1,9999,9999,9999,665058368
105,6,9,Ticks_ISO_T2_8,2,9999,9999,9999,665858120
105,6,9,Ticks_ISO_T2_8,3,9999,9999,9999,666658924
105,6,9,Ticks_ISO_T2_8,4,9999,9999,9999,667458672
105,6,9,Ticks_ISO_T2_8,5,9999,9999,9999,668258388
105,6,9,Ticks_ISO_T2_8,6,9999,9999,9999,669058140
105,6,9,Ticks_ISO_T2_8,7,9999,9999,9999,669858916
105,6,9,Ticks_ISO_T2_8,8,9999,9999,9999,670658676
105,6,9,Ticks_ISO_T2_8,9,9999,9999,9999,671458408
105,6,9,Ticks_ISO_T2_8,10,9999,9999,9999,672258144
105,6,9,Ticks_ISO_T2_8,11,9999,9999,9999,673058924
105,6,9,Ticks_ISO_T2_8,12,9999,9999,9999,673858656
105,6,9,Ticks_ISO_T2_8,13,9999,9999,9999,674658388
105,6,9,Ticks_ISO_T2_8,14,9999,9999,9999,675458124
105,6,9,Ticks_ISO_T2_8,15,9999,9999,9999,676258900
105,6,9,Ticks_ISO_T2_8,16,9999,9999,9999,677058660
105,6,9,Ticks_ISO_T2_8,17,9999,9999,9999,677858392
105,6,9,Ticks_ISO_T2_8,18,9999,9999,9999,678658132
105,6,9,Ticks_ISO_T2_8,19,9999,9999,9999,679458912
105,6,9,Ticks_ISO_T2_8,20,9999,9999,9999,680258648
105,6,9,Ticks_ISO_T2_8,21,9999,9999,9999,681058372
105,6,9,Ticks_ISO_T2_8,22,9999,9999,9999,681858112
105,6,9,Ticks_ISO_T2_8,23,9999,9999,9999,682658888
105,6,9,Ticks_ISO_T2_8,24,9999,9999,9999,683458628
105,6,9,Ticks_ISO_T2_8,25,9999,9999,9999,684258360
105,6,9,Ticks_ISO_T2_8,26,9999,9999,9999,685058096
105,6,9,Ticks_ISO_T2_8,27,9999,9999,9999,685858876
105,6,9,Ticks_ISO_T2_8,28,9999,9999,9999,686658608
105,6,9,Ticks_ISO_T2_8,29,9999,9999,9999,687458420
105,6,9,Ticks_ISO_T2_8,30,9999,9999,9999,688258168
105,6,9,Ticks_ISO_T2_8,31,9999,9999,9999,689058872
105,6,9,Ticks_ISO_T2_8,32,9999,9999,9999,689858632
105,6,9,Ticks_ISO_T2_8,33,9999,9999,9999,690658368
105,6,9,Ticks_ISO_T2_8,34,9999,9999,9999,691458104
105,6,9,Ticks_ISO_T2_8,35,9999,9999,9999,692258880
105,6,9,Ticks_ISO_T2_8,36,9999,9999,9999,693058616
105,6,9,Ticks_ISO_T2_8,37,9999,9999,9999,693858356
105,6,9,Ticks_ISO_T2_8,38,9999,9999,9999,694658156
105,6,9,Ticks_ISO_T2_8,39,9999,9999,9999,695458868
105,6,9,Ticks_ISO_T2_8,40,9999,9999,9999,696258628
105,6,9,Ticks_ISO_T2_8,41,9999,9999,9999,697058356
105,6,9,Ticks_ISO_T2_8,42,9999,9999,9999,697858164
105,6,9,Ticks_ISO_T2_8,43,9999,9999,9999,698658868
105,6,9,Ticks_ISO_T2_8,44,9999,9999,9999,699458676
105,6,9,Ticks_ISO_T2_8,45,9999,9999,9999,700258412
105,6,9,Ticks_ISO_T2_8,46,9999,9999,9999,701058152
105,6,9,Ticks_ISO_T2_8,47,9999,9999,9999,701858928
105,6,9,Ticks_ISO_T2_8,48,9999,9999,9999,702658616
105,6,9,Ticks_ISO_T2_8,49,9999,9999,9999,703458416
105,6,9,Ticks_ISO_T2_8,50,9999,9999,9999,704258148
105,6,9,Ticks_ISO_T2_8,51,9999,9999,9999,705058912
105,6,9,Ticks_ISO_T2_8,52,9999,9999,9999,705858660
105,6,9,Ticks_ISO_T2_8,53,9999,9999,9999,706658396
105,6,9,Ticks_ISO_T2_8,54,9999,9999,9999,707458132
105,6,9,Ticks_ISO_T2_8,55,9999,9999,9999,708258916
105,6,9,Ticks_ISO_T2_8,56,9999,9999,9999,709058668
105,6,9,Ticks_ISO_T2_8,57,9999,9999,9999,709858400
105,6,9,Ticks_ISO_T2_8,58,9999,9999,9999,710658132
105,6,9,Ticks_ISO_T2_8,59,9999,9999,9999,711458916
105,6,9,Ticks_ISO_T2_8,60,9999,9999,9999,712258648
105,6,9,Ticks_ISO_T2_8,61,9999,9999,9999,713058388
105,6,9,Ticks_ISO_T2_8,62,9999,9999,9999,713858120
105,6,9,Ticks_ISO_T2_8,63,9999,9999,9999,714658900
105,6,9,Ticks_ISO_T2_8,64,9999,9999,9999,715458660
105,6,9,Ticks_ISO_T2_8,65,9999,9999,9999,716258384
105,6,9,Ticks_ISO_T2_8,66,9999,9999,9999,717058124
105,6,9,Ticks_ISO_T2_8,67,9999,9999,9999,717858908
105,6,9,Ticks_ISO_T2_8,68,9999,9999,9999,718658636
105,6,9,Ticks_ISO_T2_8,69,9999,9999,9999,719458376
105,6,9,Ticks_ISO_T2_8,70,9999,9999,9999,720258100
105,6,9,Ticks_ISO_T2_8,71,9999,9999,9999,721058884
105,6,9,Ticks_ISO_T2_8,72,9999,9999,9999,721858656
105,6,9,Ticks_ISO_T2_8,73,9999,9999,9999,722658372
105,6,9,Ticks_ISO_T2_8,74,9999,9999,9999,723458156
105,6,9,Ticks_ISO_T2_8,75,9999,9999,9999,724258936
105,6,9,Ticks_ISO_T2_8,76,9999,9999,9999,725058672
105,6,9,Ticks_ISO_T2_8,77,9999,9999,9999,725858408
105,6,9,Ticks_ISO_T2_8,78,9999,9999,9999,726658136
105,6,9,Ticks_ISO_T2_8,79,9999,9999,9999,727458924
105,6,9,Ticks_ISO_T2_8,80,9999,9999,9999,728258676
105,6,9,Ticks_ISO_T2_8,81,9999,9999,9999,729058412
105,6,9,Ticks_ISO_T2_8,82,9999,9999,9999,729858152
105,6,9,Ticks_ISO_T2_8,83,9999,9999,9999,730658932
105,6,9,Ticks_ISO_T2_8,84,9999,9999,9999,731458664
105,6,9,Ticks_ISO_T2_8,85,9999,9999,9999,732258392
105,6,9,Ticks_ISO_T2_8,86,9999,9999,9999,733058124
105,6,9,Ticks_ISO_T2_8,87,9999,9999,9999,733858904
105,6,9,Ticks_ISO_T2_8,88,9999,9999,9999,734658664
105,6,9,Ticks_ISO_T2_8,89,9999,9999,9999,735458400
105,6,9,Ticks_ISO_T2_8,90,9999,9999,9999,736258132
105,6,9,Ticks_ISO_T2_8,91,9999,9999,9999,737058896
105,6,9,Ticks_ISO_T2_8,92,9999,9999,9999,737858652
105,6,9,Ticks_ISO_T2_8,93,9999,9999,9999,738658380
105,6,9,Ticks_ISO_T2_8,94,9999,9999,9999,739458120
105,6,9,Ticks_ISO_T2_8,95,9999,9999,9999,740258900
105,6,9,Ticks_ISO_T2_8,96,9999,9999,9999,741058656
105,6,9,Ticks_ISO_T2_8,97,9999,9999,9999,741858388
105,6,9,Ticks_ISO_T2_8,98,9999,9999,9999,742658124
105,6,9,Ticks_ISO_T2_8,99,9999,9999,9999,743458904
105,6,9,Ticks_ISO_T2_8,100,9999,9999,9999,744258640
105,6,9,Ticks_ISO_T2_8,101,9999,9999,9999,745058376
105,6,9,Ticks_ISO_T2_8,102,9999,9999,9999,745858108
105,6,9,Ticks_ISO_T2_8,103,9999,9999,9999,746658888
105,6,9,Ticks_ISO_T2_8,104,9999,9999,9999,747458648
105,6,9,Ticks_ISO_T2_8,105,9999,9999,9999,748258372
105,6,9,Ticks_ISO_T2_8,106,9999,9999,9999,749058112
105,6,9,Ticks_ISO_T2_8,107,9999,9999,9999,749858892
105,6,9,Ticks_ISO_T2_8,108,9999,9999,9999,750658628
105,6,9,Ticks_ISO_T2_8,109,9999,9999,9999,751458360
105,6,9,Ticks_ISO_T2_8,110,9999,9999,9999,752258168
105,6,9,Ticks_ISO_T2_8,111,9999,9999,9999,753058872
105,6,9,Ticks_ISO_T2_8,112,9999,9999,9999,753858632
105,6,9,Ticks_ISO_T2_8,113,9999,9999,9999,754658364
105,6,9,Ticks_ISO_T2_8,114,9999,9999,9999,755458096
105,6,9,Ticks_ISO_T2_8,115,9999,9999,9999,756258876
105,6,9,Ticks_ISO_T2_8,116,9999,9999,9999,757058608
105,6,9,Ticks_ISO_T2_8,117,9999,9999,9999,757858416
105,6,9,Ticks_ISO_T2_8,118,9999,9999,9999,758658148
105,6,9,Ticks_ISO_T2_8,119,9999,9999,9999,759458924
105,7,23,Ticks_Phase_5,0,5,42,127,770136452
105,7,23,Ticks_Phase_5,1,5,42,127,770646348
105,7,23,Ticks_Phase_5,2,5,42,127,771145980
105,7,23,Ticks_Phase_5,3,5,42,127,771645916
105,7,23,Ticks_Phase_5,4,1,48,27,771676144
105,7,23,Ticks_Phase_5,5,1,48,52,772107748
105,7,23,Ticks_Phase_5,6,5,42,127,772145444
105,7,23,Ticks_Phase_5,7,1,48,56,772629152
105,7,23,Ticks_Phase_5,8,5,42,127,772646256
105,7,23,Ticks_Phase_5,9,5,42,127,773145876
105,7,23,Ticks_Phase_5,10,1,48,60,773179924
105,7,23,Ticks_Phase_5,11,5,42,127,773645564
105,7,23,Ticks_Phase_5,12,1,48,60,773681332
105,7,23,Ticks_Phase_5,13,5,42,127,774146452
105,7,23,Ticks_Phase_5,14,1,48,51,774208060
105,7,23,Ticks_Phase_5,15,5,42,127,774656324
105,7,23,Ticks_Phase_5,16,1,48,56,774687904
105,7,23,Ticks_Phase_5,17,5,42,127,775155936
105,7,23,Ticks_Phase_5,18,1,48,53,775209676
105,7,23,Ticks_Phase_5,19,5,42,127,775655920
105,7,23,Ticks_Phase_5,20,1,48,48,775707196
105,7,23,Ticks_Phase_5,21,5,42,127,776155536
105,7,23,Ticks_Phase_5,22,1,48,60,776185764
105,7,23,Ticks_Phase_5,23,5,42,127,776656272
105,7,23,Ticks_Phase_5,24,1,48,40,776682076
105,7,23,Ticks_Phase_5,25,1,48,58,777129464
105,7,23,Ticks_Phase_5,26,5,42,127,777155952
105,7,23,Ticks_Phase_5,27,5,42,127,777655796
105,7,23,Ticks_Phase_5,28,1,48,44,777687080
105,7,23,Ticks_Phase_5,29,5,42,127,778156360
105,7,23,Ticks_Phase_5,30,1,48,35,778190032
105,7,23,Ticks_Phase_5,31,1,48,56,778645352
105,7,23,Ticks_Phase_5,32,5,42,127,778656088
105,7,23,Ticks_Phase_5,33,1,48,51,779145716
105,7,23,Ticks_Phase_5,34,5,42,127,779155704
105,7,23,Ticks_Phase_5,35,1,48,48,779633632
105,7,23,Ticks_Phase_5,36,5,42,127,779655468
105,7,23,Ticks_Phase_5,37,1,48,50,780133936
105,7,23,Ticks_Phase_5,38,5,42,127,780156276
105,7,23,Ticks_Phase_5,39,1,48,49,780589136
105,7,23,Ticks_Phase_5,40,5,42,127,780655964
105,7,23,Ticks_Phase_5,41,1,48,54,781154452
105,7,23,Ticks_Phase_5,42,5,42,127,781155876
105,7,23,Ticks_Phase_5,43,1,48,58,781649912
105,7,23,Ticks_Phase_5,44,5,42,127,781656388
105,7,23,Ticks_Phase_5,45,1,48,57,782148636
105,7,23,Ticks_Phase_5,46,5,42,127,782166484
105,7,23,Ticks_Phase_5,47,5,42,127,782666176
105,7,23,Ticks_Phase_5,48,1,48,32,782669520
105,7,23,Ticks_Phase_5,49,5,42,127,783165840
105,7,23,Ticks_Phase_5,50,1,48,48,783166884
105,7,23,Ticks_Phase_5,51,5,42,127,783665456
105,7,23,Ticks_Phase_5,52,1,48,55,783687296
105,7,23,Ticks_Phase_5,53,5,42,127,784166412
105,7,23,Ticks_Phase_5,54,1,48,51,784183308
105,7,23,Ticks_Phase_5,55,5,42,127,784666104
105,7,23,Ticks_Phase_5,56,1,48,64,784669152
105,7,23,Ticks_Phase_5,57,5,42,127,785155388
105,7,23,Ticks_Phase_5,58,1,48,53,785207708
105,7,23,Ticks_Phase_5,59,1,48,54,785650612
105,7,23,Ticks_Phase_5,60,5,42,127,785656264
105,7,23,Ticks_Phase_5,61,1,48,39,786143500
105,7,23,Ticks_Phase_5,62,5,42,127,786155880
105,7,23,Ticks_Phase_5,63,1,48,58,786624460
105,7,23,Ticks_Phase_5,64,5,42,127,786655492
105,7,23,Ticks_Phase_5,65,5,42,127,787156232
105,7,23,Ticks_Phase_5,66,1,48,45,787203544
105,7,23,Ticks_Phase_5,67,5,42,127,787655996
105,7,23,Ticks_Phase_5,68,1,48,52,787675068
105,7,23,Ticks_Phase_5,69,5,42,127,788155832
105,7,23,Ticks_Phase_5,70,1,48,36,788174532
105,7,23,Ticks_Phase_5,71,1,48,48,788640856
105,7,23,Ticks_Phase_5,72,5,42,127,788655516
105,7,23,Ticks_Phase_5,73,1,48,51,789138000
105,7,23,Ticks_Phase_5,74,5,42,127,789156228
105,7,23,Ticks_Phase_5,75,1,48,55,789629896
105,7,23,Ticks_Phase_5,76,5,42,127,789656064
105,7,23,Ticks_Phase_5,77,1,48,62,790132056
105,7,23,Ticks_Phase_5,78,5,42,127,790155604
105,7,23,Ticks_Phase_5,79,1,48,64,790602236
105,7,23,Ticks_Phase_5,80,5,42,127,790656488
105,7,23,Ticks_Phase_5,81,5,42,127,791156180
105,7,23,Ticks_Phase_5,82,1,48,51,791172332
105,7,23,Ticks_Phase_5,83,5,42,127,791655648
105,7,23,Ticks_Phase_5,84,1,48,42,791695616
105,7,23,Ticks_Phase_5,85,1,48,55,792141216
105,7,23,Ticks_Phase_5,86,5,42,127,792155624
105,7,23,Ticks_Phase_5,87,1,48,54,792654400
105,7,23,Ticks_Phase_5,88,5,42,127,792656284
105,7,23,Ticks_Phase_5,89,5,42,127,793156204
105,7,23,Ticks_Phase_5,90,1,48,66,793195200
105,7,23,Ticks_Phase_5,91,5,42,127,793655744
105,7,23,Ticks_Phase_5,92,1,48,56,793681252
105,7,23,Ticks_Phase_5,93,5,42,127,794165692
105,7,23,Ticks_Phase_5,94,1,48,54,794167780
105,7,23,Ticks_Phase_5,95,5,42,127,794666280
105,7,23,Ticks_Phase_5,96,1,48,58,794683932
105,7,23,Ticks_Phase_5,97,5,42,127,795166188
105,7,23,Ticks_Phase_5,98,1,48,52,795184368
105,7,23,Ticks_Phase_5,99,5,42,127,795665880
105,7,23,Ticks_Phase_5,100,1,48,52,795698656
105,7,23,Ticks_Phase_5,101,1,48,48,796143820
105,7,23,Ticks_Phase_5,102,5,42,127,796165412
105,7,23,Ticks_Phase_5,103,1,48,58,796640356
105,7,23,Ticks_Phase_5,104,5,42,127,796666296
105,7,23,Ticks_Phase_5,105,1,48,60,797127992
105,7,23,Ticks_Phase_5,106,5,42,127,797165912
105,7,23,Ticks_Phase_5,107,1,48,67,797640256
105,7,23,Ticks_Phase_5,108,5,42,127,797665600
105,7,23,Ticks_Phase_5,109,1,48,56,798159564
105,7,23,Ticks_Phase_5,110,5,42,127,798166336
105,7,23,Ticks_Phase_5,111,1,48,56,798637092
105,7,23,Ticks_Phase_5,112,5,42,127,798666100
105,7,23,Ticks_Phase_5,113,1,48,50,799162532
105,7,23,Ticks_Phase_5,114,5,42,127,799165788
105,7,23,Ticks_Phase_5,115,1,48,51,799652012
105,7,23,Ticks_Phase_5,116,5,42,127,799665400
105,7,23,Ticks_Phase_5,117,5,42,127,800166264
105,7,23,Ticks_Phase_5,118,1,48,38,800181164
105,7,23,Ticks_Phase_5,119,1,48,65,800649372
105,7,23,Ticks_Phase_5,120,5,42,127,800666172
105,7,23,Ticks_Phase_5,121,5,42,127,801165644
105,7,23,Ticks_Phase_5,122,1,48,45,801188012
105,7,23,Ticks_Phase_5,123,5,42,127,801666380
105,7,23,Ticks_Phase_5,124,1,48,44,801693232
105,7,23,Ticks_Phase_5,125,5,42,127,802195724
105,7,23,Ticks_Phase_5,126,1,48,19,802202880
105,7,23,Ticks_Phase_5,127,1,48,43,802688560
105,7,23,Ticks_Phase_5,128,5,42,127,802695476
105,7,23,Ticks_Phase_5,129,5,42,127,803196144
105,7,23,Ticks_Phase_5,130,1,48,43,803206684
105,7,23,Ticks_Phase_5,131,1,48,44,803665916
105,7,23,Ticks_Phase_5,132,5,42,127,803696124
105,7,23,Ticks_Phase_5,133,5,42,127,804195820
105,7,23,Ticks_Phase_5,134,1,48,48,804223424
105,7,23,Ticks_Phase_5,135,5,42,127,804696408
105,7,23,Ticks_Phase_5,136,1,48,47,804723556
105,7,23,Ticks_Phase_5,137,5,42,127,805206356
105,7,23,Ticks_Phase_5,138,1,48,46,805221152
105,7,23,Ticks_Phase_5,139,1,48,42,805706336
105,7,23,Ticks_Phase_5,140,5,42,127,805707528
105,7,23,Ticks_Phase_5,141,1,48,44,806203444
105,7,23,Ticks_Phase_5,142,5,42,127,806205948
105,7,23,Ticks_Phase_5,143,5,42,127,806705492
105,7,23,Ticks_Phase_5,144,1,48,33,806712124
105,7,23,Ticks_Phase_5,145,5,42,127,807206228
105,7,23,Ticks_Phase_5,146,1,48,41,807233696
105,7,23,Ticks_Phase_5,147,1,48,54,807692768
105,7,23,Ticks_Phase_5,148,5,42,127,807705988
105,7,23,Ticks_Phase_5,149,1,48,46,808197932
105,7,23,Ticks_Phase_5,150,5,42,127,808205672
105,7,23,Ticks_Phase_5,151,5,42,127,808706344
105,7,23,Ticks_Phase_5,152,1,48,51,808707308
105,7,23,Ticks_Phase_5,153,1,48,48,809200300
105,7,23,Ticks_Phase_5,154,5,42,127,809216360
105,7,23,Ticks_Phase_5,155,1,48,57,809687784
105,7,23,Ticks_Phase_5,156,5,42,127,809716116
105,7,23,Ticks_Phase_5,157,5,42,127,810215888
105,7,23,Ticks_Phase_5,158,1,48,48,810218332
105,7,23,Ticks_Phase_5,159,5,42,127,810696108
105,7,23,Ticks_Phase_5,160,1,48,53,810719820
105,7,23,Ticks_Phase_5,161,5,42,127,811195644
105,7,23,Ticks_Phase_5,162,1,48,23,811260996
105,7,23,Ticks_Phase_5,163,5,42,127,811695408
105,7,23,Ticks_Phase_5,164,1,48,52,811699576
105,7,23,Ticks_Phase_5,165,5,42,127,812196192
105,7,23,Ticks_Phase_5,166,1,48,37,812197984
105,7,23,Ticks_Phase_5,167,1,48,37,812668660
105,7,23,Ticks_Phase_5,168,5,42,127,812696024
105,7,23,Ticks_Phase_5,169,5,42,127,813195496
105,7,23,Ticks_Phase_5,170,1,48,39,813199060
105,7,23,Ticks_Phase_5,171,1,48,48,813651108
105,7,23,Ticks_Phase_5,172,5,42,127,813696296
105,7,23,Ticks_Phase_5,173,1,48,53,814192280
105,7,23,Ticks_Phase_5,174,5,42,127,814196208
105,7,23,Ticks_Phase_5,175,5,42,127,814695904
105,7,23,Ticks_Phase_5,176,1,48,35,814758408
105,7,23,Ticks_Phase_5,177,5,42,127,815195368
105,7,23,Ticks_Phase_5,178,1,48,47,815202148
105,7,23,Ticks_Phase_5,179,1,48,49,815663112
105,7,23,Ticks_Phase_5,180,5,42,127,815696168
105,7,23,Ticks_Phase_5,181,1,48,49,816186920
105,7,23,Ticks_Phase_5,182,5,42,127,816196080
105,7,23,Ticks_Phase_5,183,5,42,127,816695776
105,7,23,Ticks_Phase_5,184,1,48,50,816712748
105,7,23,Ticks_Phase_5,185,1,48,38,817196144
105,7,23,Ticks_Phase_5,186,5,42,127,817197556
105,7,23,Ticks_Phase_5,187,1,48,51,817695068
105,7,23,Ticks_Phase_5,188,5,42,127,817696564
105,7,23,Ticks_Phase_5,189,1,48,45,818183728
105,7,23,Ticks_Phase_5,190,5,42,127,818195956
105,7,23,Ticks_Phase_5,191,5,42,127,818646452
105,7,23,Ticks_Phase_5,192,1,48,37,818699892
105,7,23,Ticks_Phase_5,193,5,42,127,819146136
105,7,23,Ticks_Phase_5,194,1,48,26,819168508
105,7,23,Ticks_Phase_5,195,1,48,43,819608996
105,7,23,Ticks_Phase_5,196,5,42,127,819645820
105,7,23,Ticks_Phase_5,197,1,48,46,820117824
105,7,23,Ticks_Phase_5,198,5,42,127,820145432
105,7,23,Ticks_Phase_5,199,1,48,50,820591516
105,7,23,Ticks_Phase_5,200,5,42,127,820646292
105,7,23,Ticks_Phase_5,201,1,48,49,821095928
105,7,23,Ticks_Phase_5,202,5,42,127,821145980
105,7,23,Ticks_Phase_5,203,5,42,127,821645676
105,7,23,Ticks_Phase_5,204,1,48,53,821659204
105,7,23,Ticks_Phase_5,205,1,48,49,822073432
105,7,23,Ticks_Phase_5,206,5,42,127,822146480
105,7,23,Ticks_Phase_5,207,1,48,50,822624872
105,7,23,Ticks_Phase_5,208,5,42,127,822656352
105,7,23,Ticks_Phase_5,209,1,48,35,823111000
105,7,23,Ticks_Phase_5,210,5,42,127,823156040
105,7,23,Ticks_Phase_5,211,1,48,45,823650904
105,7,23,Ticks_Phase_5,212,5,42,127,823655804
105,7,23,Ticks_Phase_5,213,5,42,127,824155644
105,7,23,Ticks_Phase_5,214,1,48,46,824158616
105,7,23,Ticks_Phase_5,215,1,48,34,824646688
105,7,23,Ticks_Phase_5,216,5,42,127,824656300
105,7,23,Ticks_Phase_5,217,5,42,127,825156068
105,7,23,Ticks_Phase_5,218,1,48,43,825178960
105,7,23,Ticks_Phase_5,219,1,48,49,825642756
105,7,23,Ticks_Phase_5,220,5,42,127,825655528
105,7,23,Ticks_Phase_5,221,5,42,127,826156344
105,7,23,Ticks_Phase_5,222,1,48,38,826222436
105,7,23,Ticks_Phase_5,223,1,48,50,826646108
105,7,23,Ticks_Phase_5,224,5,42,127,826656100
105,7,23,Ticks_Phase_5,225,1,48,40,827149544
105,7,23,Ticks_Phase_5,226,5,42,127,827206112
105,7,23,Ticks_Phase_5,227,1,48,42,827679336
105,7,23,Ticks_Phase_5,228,5,42,127,827705948
105,7,23,Ticks_Phase_5,229,1,48,31,828138360
105,7,23,Ticks_Phase_5,230,5,42,127,828205488
105,7,23,Ticks_Phase_5,231,1,48,52,828646664
105,7,23,Ticks_Phase_5,232,5,42,127,828706296
105,7,23,Ticks_Phase_5,233,1,48,49,829177132
105,7,23,Ticks_Phase_5,234,5,42,127,829206060
105,7,23,Ticks_Phase_5,235,1,48,47,829702644
105,7,23,Ticks_Phase_5,236,5,42,127,829705524
105,7,23,Ticks_Phase_5,237,1,48,43,830202108
105,7,23,Ticks_Phase_5,238,5,42,127,830206408
105,7,23,Ticks_Phase_5,239,1,48,51,830675964
105,7,23,Ticks_Phase_5,240,5,42,127,830706172
105,7,23,Ticks_Phase_5,241,5,42,127,831205940
105,7,23,Ticks_Phase_5,242,1,48,43,831209588
105,7,23,Ticks_Phase_5,243,1,48,47,831671444
105,7,23,Ticks_Phase_5,244,5,42,127,831705400
105,7,23,Ticks_Phase_5,245,1,48,54,832184840
105,7,23,Ticks_Phase_5,246,5,42,127,832206136
105,7,23,Ticks_Phase_5,247,1,48,44,832698980
105,7,23,Ticks_Phase_5,248,5,42,127,832706048
105,7,23,Ticks_Phase_5,249,1,48,48,833196872
105,7,23,Ticks_Phase_5,250,5,42,127,833205884
105,7,23,Ticks_Phase_5,251,1,48,55,833668672
105,7,23,Ticks_Phase_5,252,5,42,127,833706468
105,7,23,Ticks_Phase_5,253,5,42,127,834205992
105,7,23,Ticks_Phase_5,254,1,48,52,834214876
105,7,23,Ticks_Phase_5,255,5,42,127,834705976
105,7,23,Ticks_Phase_5,256,1,48,52,834726472
105,7,23,Ticks_Phase_5,257,5,42,127,835205588
105,7,23,Ticks_Phase_5,258,1,48,51,835288340
105,7,23,Ticks_Phase_5,259,1,48,51,835769744
105,7,23,Ticks_Phase_5,260,5,42,127,835805644
105,7,23,Ticks_Phase_5,261,5,42,127,836306236
105,7,23,Ticks_Phase_5,262,1,48,58,836403872
105,7,23,Ticks_Phase_5,263,1,48,33,836452816
105,7,23,Ticks_Phase_5,264,5,42,127,836805980
105,7,23,Ticks_Phase_5,265,1,48,54,836936712
105,7,23,Ticks_Phase_5,266,5,42,127,837305816
105,7,23,Ticks_Phase_5,267,1,48,53,837365552
105,7,23,Ticks_Phase_5,268,5,42,127,837805504
105,7,23,Ticks_Phase_5,269,1,48,52,837874452
105,7,23,Ticks_Phase_5,270,5,42,127,838306064
105,7,23,Ticks_Phase_5,271,1,48,58,838361108
105,7,23,Ticks_Phase_5,272,5,42,127,838805828
105,7,23,Ticks_Phase_5,273,1,48,58,838818836
105,7,23,Ticks_Phase_5,274,5,42,127,839305664
105,7,23,Ticks_Phase_5,275,1,48,63,839314856
105,7,23,Ticks_Phase_5,276,5,42,127,839806176
105,7,23,Ticks_Phase_5,277,1,48,50,839814468
105,7,23,Ticks_Phase_5,278,5,42,127,840305940
105,7,23,Ticks_Phase_5,279,1,48,54,840791676
105,7,23,Ticks_Phase_5,280,5,42,127,840805864
105,7,23,Ticks_Phase_5,281,1,48,59,841272496
105,7,23,Ticks_Phase_5,282,5,42,127,841305404
105,7,23,Ticks_Phase_5,283,1,48,50,841803856
105,7,23,Ticks_Phase_5,284,5,42,127,841806212
105,7,23,Ticks_Phase_5,285,1,48,63,842271272
105,7,23,Ticks_Phase_5,286,5,42,127,842305900
105,7,23,Ticks_Phase_5,287,1,48,75,842786920
105,7,23,Ticks_Phase_5,288,5,42,127,842805812
105,7,23,Ticks_Phase_5,289,5,42,127,843306332
105,7,23,Ticks_Phase_5,290,1,48,47,843311020
105,7,23,Ticks_Phase_5,291,1,48,67,843788012
105,7,23,Ticks_Phase_5,292,5,42,127,843806012
105,7,23,Ticks_Phase_5,293,1,48,71,844276244
105,7,23,Ticks_Phase_5,294,5,42,127,844305852
105,7,23,Ticks_Phase_5,295,1,48,74,844789784
105,7,23,Ticks_Phase_5,296,5,42,127,844805616
105,7,23,Ticks_Phase_5,297,5,42,127,845205760
105,7,23,Ticks_Phase_5,298,1,48,68,845324012
105,7,23,Ticks_Phase_5,299,5,42,127,845705672
105,7,23,Ticks_Phase_5,300,1,48,59,845791712
105,7,23,Ticks_Phase_5,301,5,42,127,846206332
105,7,23,Ticks_Phase_5,302,1,48,60,846247348
105,7,23,Ticks_Phase_5,303,5,42,127,846706020
105,7,23,Ticks_Phase_5,304,1,48,59,846748684
105,7,23,Ticks_Phase_5,305,5,42,127,847205632
105,7,23,Ticks_Phase_5,306,1,48,64,847217144
105,7,23,Ticks_Phase_5,307,5,42,127,847705320
105,7,23,Ticks_Phase_5,308,1,48,60,847738692
105,7,23,Ticks_Phase_5,309,5,42,127,848206056
105,7,23,Ticks_Phase_5,310,1,48,57,848256060
105,7,23,Ticks_Phase_5,311,5,42,127,848705892
105,7,23,Ticks_Phase_5,312,1,48,67,848725936
105,7,23,Ticks_Phase_5,313,1,48,63,849192284
105,7,23,Ticks_Phase_5,314,5,42,127,849205572
105,7,23,Ticks_Phase_5,315,5,42,127,849706312
105,7,23,Ticks_Phase_5,316,1,48,62,849713412
105,7,23,Ticks_Phase_5,317,5,42,127,850205928
105,7,23,Ticks_Phase_5,318,1,48,53,850217288
105,7,23,Ticks_Phase_5,319,1,48,62,850687608
105,7,23,Ticks_Phase_5,320,5,42,127,850705760
105,7,23,Ticks_Phase_5,321,1,48,56,851189164
105,7,23,Ticks_Phase_5,322,5,42,127,851205596
105,7,23,Ticks_Phase_5,323,1,48,55,851693116
105,7,23,Ticks_Phase_5,324,5,42,127,851706180
105,7,23,Ticks_Phase_5,325,5,42,127,852205876
105,7,23,Ticks_Phase_5,326,1,48,35,852209820
105,7,23,Ticks_Phase_5,327,1,48,70,852680288
105,7,23,Ticks_Phase_5,328,5,42,127,852705636
105,7,23,Ticks_Phase_5,329,1,48,54,853183044
105,7,23,Ticks_Phase_5,330,5,42,127,853206744
105,7,23,Ticks_Phase_5,331,1,48,33,853241820
105,7,23,Ticks_Phase_5,332,5,42,127,853705968
105,7,23,Ticks_Phase_5,333,1,48,60,853729228
105,7,23,Ticks_Phase_5,334,5,42,127,854205732
105,7,23,Ticks_Phase_5,335,1,48,56,854267940
105,7,23,Ticks_Phase_5,336,1,48,47,854692100
105,7,23,Ticks_Phase_5,337,5,42,127,854705712
105,7,23,Ticks_Phase_5,0,9999,9999,9999,770134088
105,7,23,Ticks_Phase_5,1,9999,9999,9999,770644056
105,7,23,Ticks_Phase_5,2,9999,9999,9999,771143768
105,7,23,Ticks_Phase_5,3,9999,9999,9999,771643480
105,7,23,Ticks_Phase_5,4,9999,9999,9999,772143160
105,7,23,Ticks_Phase_5,5,9999,9999,9999,772643896
105,7,23,Ticks_Phase_5,6,9999,9999,9999,773143664
105,7,23,Ticks_Phase_5,7,9999,9999,9999,773643352
105,7,23,Ticks_Phase_5,8,9999,9999,9999,774144088
105,7,23,Ticks_Phase_5,9,9999,9999,9999,774654036
105,7,23,Ticks_Phase_5,10,9999,9999,9999,775153724
105,7,23,Ticks_Phase_5,11,9999,9999,9999,775653484
105,7,23,Ticks_Phase_5,12,9999,9999,9999,776153172
105,7,23,Ticks_Phase_5,13,9999,9999,9999,776653908
105,7,23,Ticks_Phase_5,14,9999,9999,9999,777153592
105,7,23,Ticks_Phase_5,15,9999,9999,9999,777653360
105,7,23,Ticks_Phase_5,16,9999,9999,9999,778154072
105,7,23,Ticks_Phase_5,17,9999,9999,9999,778653800
105,7,23,Ticks_Phase_5,18,9999,9999,9999,779153492
105,7,23,Ticks_Phase_5,19,9999,9999,9999,779653180
105,7,23,Ticks_Phase_5,20,9999,9999,9999,780153912
105,7,23,Ticks_Phase_5,21,9999,9999,9999,780653676
105,7,23,Ticks_Phase_5,22,9999,9999,9999,781153372
105,7,23,Ticks_Phase_5,23,9999,9999,9999,781654100
105,7,23,Ticks_Phase_5,24,9999,9999,9999,782164048
105,7,23,Ticks_Phase_5,25,9999,9999,9999,782663744
105,7,23,Ticks_Phase_5,26,9999,9999,9999,783163480
105,7,23,Ticks_Phase_5,27,9999,9999,9999,783663168
105,7,23,Ticks_Phase_5,28,9999,9999,9999,784163900
105,7,23,Ticks_Phase_5,29,9999,9999,9999,784663668
105,7,23,Ticks_Phase_5,30,9999,9999,9999,785153096
105,7,23,Ticks_Phase_5,31,9999,9999,9999,785653828
105,7,23,Ticks_Phase_5,32,9999,9999,9999,786153592
105,7,23,Ticks_Phase_5,33,9999,9999,9999,786653280
105,7,23,Ticks_Phase_5,34,9999,9999,9999,787154020
105,7,23,Ticks_Phase_5,35,9999,9999,9999,787653708
105,7,23,Ticks_Phase_5,36,9999,9999,9999,788153472
105,7,23,Ticks_Phase_5,37,9999,9999,9999,788653152
105,7,23,Ticks_Phase_5,38,9999,9999,9999,789153864
105,7,23,Ticks_Phase_5,39,9999,9999,9999,789653628
105,7,23,Ticks_Phase_5,40,9999,9999,9999,790153316
105,7,23,Ticks_Phase_5,41,9999,9999,9999,790654052
105,7,23,Ticks_Phase_5,42,9999,9999,9999,791153744
105,7,23,Ticks_Phase_5,43,9999,9999,9999,791653436
105,7,23,Ticks_Phase_5,44,9999,9999,9999,792153188
105,7,23,Ticks_Phase_5,45,9999,9999,9999,792653948
105,7,23,Ticks_Phase_5,46,9999,9999,9999,793153620
105,7,23,Ticks_Phase_5,47,9999,9999,9999,793653308
105,7,23,Ticks_Phase_5,48,9999,9999,9999,794163256
105,7,23,Ticks_Phase_5,49,9999,9999,9999,794663992
105,7,23,Ticks_Phase_5,50,9999,9999,9999,795163752
105,7,23,Ticks_Phase_5,51,9999,9999,9999,795663444
105,7,23,Ticks_Phase_5,52,9999,9999,9999,796163200
105,7,23,Ticks_Phase_5,53,9999,9999,9999,796663932
105,7,23,Ticks_Phase_5,54,9999,9999,9999,797163624
105,7,23,Ticks_Phase_5,55,9999,9999,9999,797663312
105,7,23,Ticks_Phase_5,56,9999,9999,9999,798164048
105,7,23,Ticks_Phase_5,57,9999,9999,9999,798663736
105,7,23,Ticks_Phase_5,58,9999,9999,9999,799163500
105,7,23,Ticks_Phase_5,59,9999,9999,9999,799663188
105,7,23,Ticks_Phase_5,60,9999,9999,9999,800163904
105,7,23,Ticks_Phase_5,61,9999,9999,9999,800663660
105,7,23,Ticks_Phase_5,62,9999,9999,9999,801163356
105,7,23,Ticks_Phase_5,63,9999,9999,9999,801664088
105,7,23,Ticks_Phase_5,64,9999,9999,9999,802193508
105,7,23,Ticks_Phase_5,65,9999,9999,9999,802693192
105,7,23,Ticks_Phase_5,66,9999,9999,9999,803193932
105,7,23,Ticks_Phase_5,67,9999,9999,9999,803693688
105,7,23,Ticks_Phase_5,68,9999,9999,9999,804193384
105,7,23,Ticks_Phase_5,69,9999,9999,9999,804694120
105,7,23,Ticks_Phase_5,70,9999,9999,9999,805204068
105,7,23,Ticks_Phase_5,71,9999,9999,9999,805703752
105,7,23,Ticks_Phase_5,72,9999,9999,9999,806203512
105,7,23,Ticks_Phase_5,73,9999,9999,9999,806703208
105,7,23,Ticks_Phase_5,74,9999,9999,9999,807203940
105,7,23,Ticks_Phase_5,75,9999,9999,9999,807703624
105,7,23,Ticks_Phase_5,76,9999,9999,9999,808203388
105,7,23,Ticks_Phase_5,77,9999,9999,9999,808704056
105,7,23,Ticks_Phase_5,78,9999,9999,9999,809214068
105,7,23,Ticks_Phase_5,79,9999,9999,9999,809713756
105,7,23,Ticks_Phase_5,80,9999,9999,9999,810213452
105,7,23,Ticks_Phase_5,81,9999,9999,9999,810693744
105,7,23,Ticks_Phase_5,82,9999,9999,9999,811193432
105,7,23,Ticks_Phase_5,83,9999,9999,9999,811693120
105,7,23,Ticks_Phase_5,84,9999,9999,9999,812193904
105,7,23,Ticks_Phase_5,85,9999,9999,9999,812693588
105,7,23,Ticks_Phase_5,86,9999,9999,9999,813193280
105,7,23,Ticks_Phase_5,87,9999,9999,9999,813694008
105,7,23,Ticks_Phase_5,88,9999,9999,9999,814193772
105,7,23,Ticks_Phase_5,89,9999,9999,9999,814693468
105,7,23,Ticks_Phase_5,90,9999,9999,9999,815193156
105,7,23,Ticks_Phase_5,91,9999,9999,9999,815693884
105,7,23,Ticks_Phase_5,92,9999,9999,9999,816193644
105,7,23,Ticks_Phase_5,93,9999,9999,9999,816693340
105,7,23,Ticks_Phase_5,94,9999,9999,9999,817194076
105,7,23,Ticks_Phase_5,95,9999,9999,9999,817693764
105,7,23,Ticks_Phase_5,96,9999,9999,9999,818193520
105,7,23,Ticks_Phase_5,97,9999,9999,9999,818644088
105,7,23,Ticks_Phase_5,98,9999,9999,9999,819143776
105,7,23,Ticks_Phase_5,99,9999,9999,9999,819643460
105,7,23,Ticks_Phase_5,100,9999,9999,9999,820143220
105,7,23,Ticks_Phase_5,101,9999,9999,9999,820643932
105,7,23,Ticks_Phase_5,102,9999,9999,9999,821143620
105,7,23,Ticks_Phase_5,103,9999,9999,9999,821643388
105,7,23,Ticks_Phase_5,104,9999,9999,9999,822144116
105,7,23,Ticks_Phase_5,105,9999,9999,9999,822654064
105,7,23,Ticks_Phase_5,106,9999,9999,9999,823153752
105,7,23,Ticks_Phase_5,107,9999,9999,9999,823653440
105,7,23,Ticks_Phase_5,108,9999,9999,9999,824153208
105,7,23,Ticks_Phase_5,109,9999,9999,9999,824653936
105,7,23,Ticks_Phase_5,110,9999,9999,9999,825153632
105,7,23,Ticks_Phase_5,111,9999,9999,9999,825653316
105,7,23,Ticks_Phase_5,112,9999,9999,9999,826154056
105,7,23,Ticks_Phase_5,113,9999,9999,9999,826653812
105,7,23,Ticks_Phase_5,114,9999,9999,9999,827203676
105,7,23,Ticks_Phase_5,115,9999,9999,9999,827703364
105,7,23,Ticks_Phase_5,116,9999,9999,9999,828203128
105,7,23,Ticks_Phase_5,117,9999,9999,9999,828703864
105,7,23,Ticks_Phase_5,118,9999,9999,9999,829203552
105,7,23,Ticks_Phase_5,119,9999,9999,9999,829703240
105,7,23,Ticks_Phase_5,120,9999,9999,9999,830203976
105,7,23,Ticks_Phase_5,121,9999,9999,9999,830703736
105,7,23,Ticks_Phase_5,122,9999,9999,9999,831203432
105,7,23,Ticks_Phase_5,123,9999,9999,9999,831703112
105,7,23,Ticks_Phase_5,124,9999,9999,9999,832203848
105,7,23,Ticks_Phase_5,125,9999,9999,9999,832703612
105,7,23,Ticks_Phase_5,126,9999,9999,9999,833203300
105,7,23,Ticks_Phase_5,127,9999,9999,9999,833704008
105,7,23,Ticks_Phase_5,128,9999,9999,9999,834203704
105,7,23,Ticks_Phase_5,129,9999,9999,9999,834703464
105,7,23,Ticks_Phase_5,130,9999,9999,9999,835203152
105,7,23,Ticks_Phase_5,131,9999,9999,9999,835803208
105,7,23,Ticks_Phase_5,132,9999,9999,9999,836303952
105,7,23,Ticks_Phase_5,133,9999,9999,9999,836803692
105,7,23,Ticks_Phase_5,134,9999,9999,9999,837303380
105,7,23,Ticks_Phase_5,135,9999,9999,9999,837803068
105,7,23,Ticks_Phase_5,136,9999,9999,9999,838303852
105,7,23,Ticks_Phase_5,137,9999,9999,9999,838803540
105,7,23,Ticks_Phase_5,138,9999,9999,9999,839303228
105,7,23,Ticks_Phase_5,139,9999,9999,9999,839803964
105,7,23,Ticks_Phase_5,140,9999,9999,9999,840303728
105,7,23,Ticks_Phase_5,141,9999,9999,9999,840803428
105,7,23,Ticks_Phase_5,142,9999,9999,9999,841303120
105,7,23,Ticks_Phase_5,143,9999,9999,9999,841803928
105,7,23,Ticks_Phase_5,144,9999,9999,9999,842303616
105,7,23,Ticks_Phase_5,145,9999,9999,9999,842803304
105,7,23,Ticks_Phase_5,146,9999,9999,9999,843304044
105,7,23,Ticks_Phase_5,147,9999,9999,9999,843803728
105,7,23,Ticks_Phase_5,148,9999,9999,9999,844303416
105,7,23,Ticks_Phase_5,149,9999,9999,9999,844803180
105,7,23,Ticks_Phase_5,150,9999,9999,9999,845203548
105,7,23,Ticks_Phase_5,151,9999,9999,9999,845703236
105,7,23,Ticks_Phase_5,152,9999,9999,9999,846203972
105,7,23,Ticks_Phase_5,153,9999,9999,9999,846703732
105,7,23,Ticks_Phase_5,154,9999,9999,9999,847203420
105,7,23,Ticks_Phase_5,155,9999,9999,9999,847703108
105,7,23,Ticks_Phase_5,156,9999,9999,9999,848203840
105,7,23,Ticks_Phase_5,157,9999,9999,9999,848703604
105,7,23,Ticks_Phase_5,158,9999,9999,9999,849203288
105,7,23,Ticks_Phase_5,159,9999,9999,9999,849704028
105,7,23,Ticks_Phase_5,160,9999,9999,9999,850203716
105,7,23,Ticks_Phase_5,161,9999,9999,9999,850703472
105,7,23,Ticks_Phase_5,162,9999,9999,9999,851203160
105,7,23,Ticks_Phase_5,163,9999,9999,9999,851703896
105,7,23,Ticks_Phase_5,164,9999,9999,9999,852203588
105,7,23,Ticks_Phase_5,165,9999,9999,9999,852703348
105,7,23,Ticks_Phase_5,166,9999,9999,9999,853204084
105,7,23,Ticks_Phase_5,167,9999,9999,9999,853703756
105,7,23,Ticks_Phase_5,168,9999,9999,9999,854203444
105,7,23,Ticks_Phase_5,169,9999,9999,9999,854703200
105,8,22,Ticks_Phase_8,0,5,42,127,865972520
105,8,22,Ticks_Phase_8,1,5,42,127,866773672
105,8,22,Ticks_Phase_8,2,5,42,127,867573032
105,8,22,Ticks_Phase_8,3,1,48,53,867603040
105,8,22,Ticks_Phase_8,4,1,48,59,868330088
105,8,22,Ticks_Phase_8,5,5,42,127,868372812
105,8,22,Ticks_Phase_8,6,1,48,50,869111612
105,8,22,Ticks_Phase_8,7,5,42,127,869172524
105,8,22,Ticks_Phase_8,8,1,48,51,869843548
105,8,22,Ticks_Phase_8,9,5,42,127,869973564
105,8,22,Ticks_Phase_8,10,1,48,50,870603420
105,8,22,Ticks_Phase_8,11,5,42,127,870773052
105,8,22,Ticks_Phase_8,12,1,48,57,871457948
105,8,22,Ticks_Phase_8,13,5,42,127,871572916
105,8,22,Ticks_Phase_8,14,1,48,57,872246196
105,8,22,Ticks_Phase_8,15,5,42,127,872372652
105,8,22,Ticks_Phase_8,16,1,48,59,873024196
105,8,22,Ticks_Phase_8,17,5,42,127,873173336
105,8,22,Ticks_Phase_8,18,1,48,58,873819780
105,8,22,Ticks_Phase_8,19,5,42,127,873973048
105,8,22,Ticks_Phase_8,20,1,48,61,874620540
105,8,22,Ticks_Phase_8,21,5,42,127,874772832
105,8,22,Ticks_Phase_8,22,1,48,62,875421312
105,8,22,Ticks_Phase_8,23,5,42,127,875572620
105,8,22,Ticks_Phase_8,24,1,48,62,876232648
105,8,22,Ticks_Phase_8,25,5,42,127,876373448
105,8,22,Ticks_Phase_8,26,1,48,56,877014312
105,8,22,Ticks_Phase_8,27,5,42,127,877173312
105,8,22,Ticks_Phase_8,28,1,48,62,877864424
105,8,22,Ticks_Phase_8,29,5,42,127,877972800
105,8,22,Ticks_Phase_8,30,1,48,54,878616204
105,8,22,Ticks_Phase_8,31,5,42,127,878772536
105,8,22,Ticks_Phase_8,32,1,48,58,879392480
105,8,22,Ticks_Phase_8,33,5,42,127,879573372
105,8,22,Ticks_Phase_8,34,1,48,57,880185524
105,8,22,Ticks_Phase_8,35,5,42,127,880373008
105,8,22,Ticks_Phase_8,36,1,48,51,880945620
105,8,22,Ticks_Phase_8,37,5,42,127,881172796
105,8,22,Ticks_Phase_8,38,1,48,65,881694184
105,8,22,Ticks_Phase_8,39,5,42,127,881972656
105,8,22,Ticks_Phase_8,40,1,48,59,882449636
105,8,22,Ticks_Phase_8,41,5,42,127,882773488
105,8,22,Ticks_Phase_8,42,1,48,48,883347676
105,8,22,Ticks_Phase_8,43,5,42,127,883573128
105,8,22,Ticks_Phase_8,44,1,48,57,884171676
105,8,22,Ticks_Phase_8,45,5,42,127,884372764
105,8,22,Ticks_Phase_8,46,1,48,63,885099288
105,8,22,Ticks_Phase_8,47,5,42,127,885172740
105,8,22,Ticks_Phase_8,48,5,42,127,885973504
105,8,22,Ticks_Phase_8,49,1,48,61,885974544
105,8,22,Ticks_Phase_8,50,5,42,127,886772992
105,8,22,Ticks_Phase_8,51,1,48,65,886846276
105,8,22,Ticks_Phase_8,52,5,42,127,887572852
105,8,22,Ticks_Phase_8,53,1,48,69,887604804
105,8,22,Ticks_Phase_8,54,1,48,57,888370896
105,8,22,Ticks_Phase_8,55,5,42,127,888372484
105,8,22,Ticks_Phase_8,56,5,42,127,889173624
105,8,22,Ticks_Phase_8,57,1,48,52,889190684
105,8,22,Ticks_Phase_8,58,5,42,127,889952596
105,8,22,Ticks_Phase_8,59,1,48,56,889955264
105,8,22,Ticks_Phase_8,60,5,42,127,890753504
105,8,22,Ticks_Phase_8,61,1,48,55,890772504
105,8,22,Ticks_Phase_8,62,1,48,49,891521952
105,8,22,Ticks_Phase_8,63,5,42,127,891553428
105,8,22,Ticks_Phase_8,64,1,48,56,892282572
105,8,22,Ticks_Phase_8,65,5,42,127,892353016
105,8,22,Ticks_Phase_8,66,1,48,57,893028656
105,8,22,Ticks_Phase_8,67,5,42,127,893152564
105,8,22,Ticks_Phase_8,68,1,48,56,893866584
105,8,22,Ticks_Phase_8,69,5,42,127,893953340
105,8,22,Ticks_Phase_8,70,1,48,60,894733776
105,8,22,Ticks_Phase_8,71,5,42,127,894753348
105,8,22,Ticks_Phase_8,72,1,48,59,895484584
105,8,22,Ticks_Phase_8,73,5,42,127,895552836
105,8,22,Ticks_Phase_8,74,5,42,127,896352480
105,8,22,Ticks_Phase_8,75,1,48,58,896367728
105,8,22,Ticks_Phase_8,76,5,42,127,897153460
105,8,22,Ticks_Phase_8,77,1,48,59,897161976
105,8,22,Ticks_Phase_8,78,1,48,64,897890468
105,8,22,Ticks_Phase_8,79,1,48,30,897946596
105,8,22,Ticks_Phase_8,80,5,42,127,897953368
105,8,22,Ticks_Phase_8,81,1,48,65,898645956
105,8,22,Ticks_Phase_8,82,5,42,127,898753016
105,8,22,Ticks_Phase_8,83,1,48,65,899541336
105,8,22,Ticks_Phase_8,84,5,42,127,899552520
105,8,22,Ticks_Phase_8,85,1,48,61,900257816
105,8,22,Ticks_Phase_8,86,5,42,127,900353428
105,8,22,Ticks_Phase_8,87,1,48,55,901053812
105,8,22,Ticks_Phase_8,88,5,42,127,901153348
105,8,22,Ticks_Phase_8,89,1,48,55,901919340
105,8,22,Ticks_Phase_8,90,5,42,127,901952776
105,8,22,Ticks_Phase_8,91,1,48,63,902743472
105,8,22,Ticks_Phase_8,92,5,42,127,902752712
105,8,22,Ticks_Phase_8,93,1,48,59,903510168
105,8,22,Ticks_Phase_8,94,5,42,127,903553248
105,8,22,Ticks_Phase_8,95,1,48,65,904303804
105,8,22,Ticks_Phase_8,96,5,42,127,904372456
105,8,22,Ticks_Phase_8,97,1,48,56,905135444
105,8,22,Ticks_Phase_8,98,5,42,127,905173292
105,8,22,Ticks_Phase_8,99,1,48,59,905931340
105,8,22,Ticks_Phase_8,100,5,42,127,905973300
105,8,22,Ticks_Phase_8,101,1,48,61,906764748
105,8,22,Ticks_Phase_8,102,5,42,127,906772864
105,8,22,Ticks_Phase_8,103,1,48,57,907572508
105,8,22,Ticks_Phase_8,104,5,42,127,907573920
105,8,22,Ticks_Phase_8,105,1,48,60,908284340
105,8,22,Ticks_Phase_8,106,5,42,127,908373260
105,8,22,Ticks_Phase_8,107,1,48,58,909111316
105,8,22,Ticks_Phase_8,108,5,42,127,909173044
105,8,22,Ticks_Phase_8,109,1,48,62,909922256
105,8,22,Ticks_Phase_8,110,5,42,127,909972832
105,8,22,Ticks_Phase_8,111,1,48,61,910769688
105,8,22,Ticks_Phase_8,112,5,42,127,910772568
105,8,22,Ticks_Phase_8,113,1,48,57,911514860
105,8,22,Ticks_Phase_8,114,5,42,127,911573476
105,8,22,Ticks_Phase_8,115,1,48,60,912318936
105,8,22,Ticks_Phase_8,116,5,42,127,912373184
105,8,22,Ticks_Phase_8,117,1,48,66,913083608
105,8,22,Ticks_Phase_8,118,5,42,127,913172748
105,8,22,Ticks_Phase_8,119,1,48,64,913920080
105,8,22,Ticks_Phase_8,120,5,42,127,913972536
105,8,22,Ticks_Phase_8,121,1,48,64,914714400
105,8,22,Ticks_Phase_8,122,1,48,36,914768520
105,8,22,Ticks_Phase_8,123,5,42,127,914773344
105,8,22,Ticks_Phase_8,124,1,48,69,915557528
105,8,22,Ticks_Phase_8,125,5,42,127,915573132
105,8,22,Ticks_Phase_8,126,1,48,29,915624488
105,8,22,Ticks_Phase_8,127,1,48,63,916291168
105,8,22,Ticks_Phase_8,128,5,42,127,916372748
105,8,22,Ticks_Phase_8,129,1,48,65,917148536
105,8,22,Ticks_Phase_8,130,5,42,127,917212552
105,8,22,Ticks_Phase_8,131,1,48,53,917965276
105,8,22,Ticks_Phase_8,132,5,42,127,918013236
105,8,22,Ticks_Phase_8,133,1,48,45,918753980
105,8,22,Ticks_Phase_8,134,5,42,127,918813020
105,8,22,Ticks_Phase_8,135,1,48,59,919570548
105,8,22,Ticks_Phase_8,136,5,42,127,919612732
105,8,22,Ticks_Phase_8,137,5,42,127,920412528
105,8,22,Ticks_Phase_8,138,1,48,63,920432724
105,8,22,Ticks_Phase_8,139,1,48,23,920520712
105,8,22,Ticks_Phase_8,140,1,48,67,921176004
105,8,22,Ticks_Phase_8,141,5,42,127,921213332
105,8,22,Ticks_Phase_8,142,1,48,62,921986580
105,8,22,Ticks_Phase_8,143,5,42,127,922013192
105,8,22,Ticks_Phase_8,144,1,48,59,922810668
105,8,22,Ticks_Phase_8,145,5,42,127,922812708
105,8,22,Ticks_Phase_8,146,1,48,38,922868300
105,8,22,Ticks_Phase_8,147,5,42,127,923612476
105,8,22,Ticks_Phase_8,148,1,48,63,923623540
105,8,22,Ticks_Phase_8,149,1,48,56,924375604
105,8,22,Ticks_Phase_8,150,5,42,127,924413456
105,8,22,Ticks_Phase_8,151,1,48,60,925208940
105,8,22,Ticks_Phase_8,152,5,42,127,925213240
105,8,22,Ticks_Phase_8,153,5,42,127,926012660
105,8,22,Ticks_Phase_8,154,1,48,62,926069920
105,8,22,Ticks_Phase_8,155,1,48,60,926782156
105,8,22,Ticks_Phase_8,156,5,42,127,926812512
105,8,22,Ticks_Phase_8,157,1,48,29,926848044
105,8,22,Ticks_Phase_8,158,1,48,67,927593448
105,8,22,Ticks_Phase_8,159,5,42,127,927613248
105,8,22,Ticks_Phase_8,160,5,42,127,928413116
105,8,22,Ticks_Phase_8,161,1,48,52,928431248
105,8,22,Ticks_Phase_8,162,1,48,62,929157748
105,8,22,Ticks_Phase_8,163,5,42,127,929212700
105,8,22,Ticks_Phase_8,164,1,48,59,929973064
105,8,22,Ticks_Phase_8,165,5,42,127,930012412
105,8,22,Ticks_Phase_8,166,1,48,57,930636300
105,8,22,Ticks_Phase_8,167,1,48,33,930686528
105,8,22,Ticks_Phase_8,168,5,42,127,930773308
105,8,22,Ticks_Phase_8,169,1,48,58,931564452
105,8,22,Ticks_Phase_8,170,5,42,127,931573168
105,8,22,Ticks_Phase_8,171,1,48,64,932328436
105,8,22,Ticks_Phase_8,172,5,42,127,932373104
105,8,22,Ticks_Phase_8,173,1,48,34,932387220
105,8,22,Ticks_Phase_8,174,1,48,66,933085896
105,8,22,Ticks_Phase_8,175,5,42,127,933172648
105,8,22,Ticks_Phase_8,176,1,48,57,933962596
105,8,22,Ticks_Phase_8,177,5,42,127,933973256
105,8,22,Ticks_Phase_8,178,1,48,46,934709952
105,8,22,Ticks_Phase_8,179,5,42,127,934773044
105,8,22,Ticks_Phase_8,180,1,48,62,935468108
105,8,22,Ticks_Phase_8,181,5,42,127,935573184
105,8,22,Ticks_Phase_8,182,1,48,55,936366468
105,8,22,Ticks_Phase_8,183,5,42,127,936372564
105,8,22,Ticks_Phase_8,184,1,48,59,937129184
105,8,22,Ticks_Phase_8,185,5,42,127,937173324
105,8,22,Ticks_Phase_8,186,1,48,58,937920500
105,8,22,Ticks_Phase_8,187,5,42,127,937973112
105,8,22,Ticks_Phase_8,188,1,48,54,938728608
105,8,22,Ticks_Phase_8,189,5,42,127,938772896
105,8,22,Ticks_Phase_8,190,1,48,47,939507200
105,8,22,Ticks_Phase_8,191,5,42,127,939572460
105,8,22,Ticks_Phase_8,192,1,48,44,940320756
105,8,22,Ticks_Phase_8,193,5,42,127,940373440
105,8,22,Ticks_Phase_8,194,1,48,57,941118300
105,8,22,Ticks_Phase_8,195,5,42,127,941173004
105,8,22,Ticks_Phase_8,196,1,48,64,941950736
105,8,22,Ticks_Phase_8,197,5,42,127,941973012
105,8,22,Ticks_Phase_8,198,1,48,65,942729104
105,8,22,Ticks_Phase_8,199,5,42,127,942772748
105,8,22,Ticks_Phase_8,200,5,42,127,943492468
105,8,22,Ticks_Phase_8,201,1,48,56,943502704
105,8,22,Ticks_Phase_8,202,5,42,127,944293224
105,8,22,Ticks_Phase_8,203,1,48,57,944346888
105,8,22,Ticks_Phase_8,204,1,48,59,945075972
105,8,22,Ticks_Phase_8,205,5,42,127,945092928
105,8,22,Ticks_Phase_8,206,1,48,60,945857564
105,8,22,Ticks_Phase_8,207,5,42,127,945893012
105,8,22,Ticks_Phase_8,208,5,42,127,946692360
105,8,22,Ticks_Phase_8,209,1,48,64,946709852
105,8,22,Ticks_Phase_8,210,5,42,127,947493116
105,8,22,Ticks_Phase_8,211,1,48,66,947501932
105,8,22,Ticks_Phase_8,212,5,42,127,948292904
105,8,22,Ticks_Phase_8,213,1,48,50,948358624
105,8,22,Ticks_Phase_8,214,1,48,52,949093208
105,8,22,Ticks_Phase_8,215,5,42,127,949094404
105,8,22,Ticks_Phase_8,216,5,42,127,949892476
105,8,22,Ticks_Phase_8,217,1,48,53,949895968
105,8,22,Ticks_Phase_8,218,5,42,127,950693408
105,8,22,Ticks_Phase_8,219,1,48,49,950715476
105,8,22,Ticks_Phase_8,220,5,42,127,951492896
105,8,22,Ticks_Phase_8,221,1,48,45,951518256
105,8,22,Ticks_Phase_8,222,5,42,127,952292908
105,8,22,Ticks_Phase_8,223,1,48,50,952293796
105,8,22,Ticks_Phase_8,224,5,42,127,953092396
105,8,22,Ticks_Phase_8,225,1,48,56,953119848
105,8,22,Ticks_Phase_8,226,5,42,127,953893156
105,8,22,Ticks_Phase_8,227,1,48,56,953945996
105,8,22,Ticks_Phase_8,228,1,48,54,954689376
105,8,22,Ticks_Phase_8,229,5,42,127,954693008
105,8,22,Ticks_Phase_8,230,5,42,127,955492800
105,8,22,Ticks_Phase_8,231,1,48,53,955530376
105,8,22,Ticks_Phase_8,232,5,42,127,956292512
105,8,22,Ticks_Phase_8,233,1,48,43,956301776
105,8,22,Ticks_Phase_8,234,1,48,59,957047772
105,8,22,Ticks_Phase_8,235,5,42,127,957173108
105,8,22,Ticks_Phase_8,236,1,48,57,957927420
105,8,22,Ticks_Phase_8,237,5,42,127,957973132
105,8,22,Ticks_Phase_8,238,1,48,46,958753800
105,8,22,Ticks_Phase_8,239,5,42,127,958772624
105,8,22,Ticks_Phase_8,240,1,48,54,959553284
105,8,22,Ticks_Phase_8,241,5,42,127,959573380
105,8,22,Ticks_Phase_8,242,1,48,51,960363476
105,8,22,Ticks_Phase_8,243,5,42,127,960373096
105,8,22,Ticks_Phase_8,244,1,48,47,961158544
105,8,22,Ticks_Phase_8,245,5,42,127,961173032
105,8,22,Ticks_Phase_8,246,1,48,49,961953468
105,8,22,Ticks_Phase_8,247,5,42,127,961972768
105,8,22,Ticks_Phase_8,248,1,48,49,962757020
105,8,22,Ticks_Phase_8,249,5,42,127,962773300
105,8,22,Ticks_Phase_8,250,5,42,127,963573020
105,8,22,Ticks_Phase_8,251,1,48,50,963618520
105,8,22,Ticks_Phase_8,252,1,48,48,964354720
105,8,22,Ticks_Phase_8,253,5,42,127,964372796
105,8,22,Ticks_Phase_8,254,5,42,127,965172812
105,8,22,Ticks_Phase_8,255,1,48,47,965184624
105,8,22,Ticks_Phase_8,256,1,48,51,965963504
105,8,22,Ticks_Phase_8,257,5,42,127,965973344
105,8,22,Ticks_Phase_8,258,5,42,127,966773060
105,8,22,Ticks_Phase_8,259,1,48,47,966787708
105,8,22,Ticks_Phase_8,260,5,42,127,967572772
105,8,22,Ticks_Phase_8,261,1,48,49,967581140
105,8,22,Ticks_Phase_8,262,1,48,44,968365132
105,8,22,Ticks_Phase_8,263,5,42,127,968372872
105,8,22,Ticks_Phase_8,264,1,48,46,969123704
105,8,22,Ticks_Phase_8,265,5,42,127,969173308
105,8,22,Ticks_Phase_8,266,1,48,43,969955164
105,8,22,Ticks_Phase_8,267,5,42,127,969973096
105,8,22,Ticks_Phase_8,268,1,48,54,970722384
105,8,22,Ticks_Phase_8,269,5,42,127,970932852
105,8,22,Ticks_Phase_8,270,5,42,127,971733480
105,8,22,Ticks_Phase_8,271,1,48,39,971759888
105,8,22,Ticks_Phase_8,272,5,42,127,972533044
105,8,22,Ticks_Phase_8,273,1,48,50,972687884
105,8,22,Ticks_Phase_8,274,5,42,127,973332904
105,8,22,Ticks_Phase_8,275,1,48,46,973456668
105,8,22,Ticks_Phase_8,276,5,42,127,974132836
105,8,22,Ticks_Phase_8,277,1,48,45,974276540
105,8,22,Ticks_Phase_8,278,5,42,127,974933300
105,8,22,Ticks_Phase_8,279,1,48,44,974997372
105,8,22,Ticks_Phase_8,280,5,42,127,975733008
105,8,22,Ticks_Phase_8,281,1,48,43,975760464
105,8,22,Ticks_Phase_8,282,1,48,32,976499428
105,8,22,Ticks_Phase_8,283,5,42,127,976532864
105,8,22,Ticks_Phase_8,284,1,48,47,977276152
105,8,22,Ticks_Phase_8,285,5,42,127,977332672
105,8,22,Ticks_Phase_8,286,1,48,48,978079756
105,8,22,Ticks_Phase_8,287,5,42,127,978133432
105,8,22,Ticks_Phase_8,288,1,48,33,978890424
105,8,22,Ticks_Phase_8,289,5,42,127,978933144
105,8,22,Ticks_Phase_8,290,5,42,127,979732716
105,8,22,Ticks_Phase_8,291,1,48,30,979746920
105,8,22,Ticks_Phase_8,292,1,48,35,980471136
105,8,22,Ticks_Phase_8,293,5,42,127,980532644
105,8,22,Ticks_Phase_8,294,1,48,44,981307232
105,8,22,Ticks_Phase_8,295,5,42,127,981333252
105,8,22,Ticks_Phase_8,296,5,42,127,982133044
105,8,22,Ticks_Phase_8,297,1,48,46,982149344
105,8,22,Ticks_Phase_8,298,1,48,46,982918640
105,8,22,Ticks_Phase_8,299,5,42,127,982932828
105,8,22,Ticks_Phase_8,300,1,48,50,983732720
105,8,22,Ticks_Phase_8,301,5,42,127,983734056
105,8,22,Ticks_Phase_8,302,1,48,43,984509996
105,8,22,Ticks_Phase_8,303,5,42,127,984533692
105,8,22,Ticks_Phase_8,304,5,42,127,985332968
105,8,22,Ticks_Phase_8,305,1,48,49,985334380
105,8,22,Ticks_Phase_8,306,5,42,127,985972996
105,8,22,Ticks_Phase_8,307,5,42,127,986772804
105,8,22,Ticks_Phase_8,308,5,42,127,987572784
105,8,22,Ticks_Phase_8,309,1,48,59,987749640
105,8,22,Ticks_Phase_8,310,1,48,49,988324232
105,8,22,Ticks_Phase_8,311,5,42,127,988373312
105,8,22,Ticks_Phase_8,312,5,42,127,989173176
105,8,22,Ticks_Phase_8,313,1,48,47,989174144
105,8,22,Ticks_Phase_8,314,1,48,53,989909940
105,8,22,Ticks_Phase_8,315,5,42,127,989972884
105,8,22,Ticks_Phase_8,316,1,48,57,990691916
105,8,22,Ticks_Phase_8,317,5,42,127,990772744
105,8,22,Ticks_Phase_8,318,1,48,39,991558192
105,8,22,Ticks_Phase_8,319,5,42,127,991573428
105,8,22,Ticks_Phase_8,320,1,48,49,992331772
105,8,22,Ticks_Phase_8,321,5,42,127,992373140
105,8,22,Ticks_Phase_8,322,1,48,43,993155068
105,8,22,Ticks_Phase_8,323,5,42,127,993172700
105,8,22,Ticks_Phase_8,324,1,48,47,993916440
105,8,22,Ticks_Phase_8,325,5,42,127,993972812
105,8,22,Ticks_Phase_8,326,1,48,54,994693688
105,8,22,Ticks_Phase_8,327,5,42,127,994773492
105,8,22,Ticks_Phase_8,328,1,48,51,995452212
105,8,22,Ticks_Phase_8,329,5,42,127,995572968
105,8,22,Ticks_Phase_8,330,1,48,61,996334320
105,8,22,Ticks_Phase_8,331,5,42,127,996372840
105,8,22,Ticks_Phase_8,332,1,48,54,997155524
105,8,22,Ticks_Phase_8,333,5,42,127,997172556
105,8,22,Ticks_Phase_8,334,1,48,54,997912856
105,8,22,Ticks_Phase_8,335,5,42,127,997973464
105,8,22,Ticks_Phase_8,336,1,48,43,998729784
105,8,22,Ticks_Phase_8,337,5,42,127,998773172
105,8,22,Ticks_Phase_8,338,1,48,56,999566568
105,8,22,Ticks_Phase_8,339,5,42,127,999572736
105,8,22,Ticks_Phase_8,340,1,48,52,1000339984
105,8,22,Ticks_Phase_8,341,5,42,127,1000372548
105,8,22,Ticks_Phase_8,342,5,42,127,1001173388
105,8,22,Ticks_Phase_8,0,9999,9999,9999,865970232
105,8,22,Ticks_Phase_8,1,9999,9999,9999,866771012
105,8,22,Ticks_Phase_8,2,9999,9999,9999,867570748
105,8,22,Ticks_Phase_8,3,9999,9999,9999,868370524
105,8,22,Ticks_Phase_8,4,9999,9999,9999,869170236
105,8,22,Ticks_Phase_8,5,9999,9999,9999,869971056
105,8,22,Ticks_Phase_8,6,9999,9999,9999,870770764
105,8,22,Ticks_Phase_8,7,9999,9999,9999,871570552
105,8,22,Ticks_Phase_8,8,9999,9999,9999,872370292
105,8,22,Ticks_Phase_8,9,9999,9999,9999,873171048
105,8,22,Ticks_Phase_8,10,9999,9999,9999,873970760
105,8,22,Ticks_Phase_8,11,9999,9999,9999,874770544
105,8,22,Ticks_Phase_8,12,9999,9999,9999,875570256
105,8,22,Ticks_Phase_8,13,9999,9999,9999,876371016
105,8,22,Ticks_Phase_8,14,9999,9999,9999,877170800
105,8,22,Ticks_Phase_8,15,9999,9999,9999,877970516
105,8,22,Ticks_Phase_8,16,9999,9999,9999,878770252
105,8,22,Ticks_Phase_8,17,9999,9999,9999,879571008
105,8,22,Ticks_Phase_8,18,9999,9999,9999,880370796
105,8,22,Ticks_Phase_8,19,9999,9999,9999,881170508
105,8,22,Ticks_Phase_8,20,9999,9999,9999,881970296
105,8,22,Ticks_Phase_8,21,9999,9999,9999,882771052
105,8,22,Ticks_Phase_8,22,9999,9999,9999,883570764
105,8,22,Ticks_Phase_8,23,9999,9999,9999,884370552
105,8,22,Ticks_Phase_8,24,9999,9999,9999,885170304
105,8,22,Ticks_Phase_8,25,9999,9999,9999,885971068
105,8,22,Ticks_Phase_8,26,9999,9999,9999,886770780
105,8,22,Ticks_Phase_8,27,9999,9999,9999,887570492
105,8,22,Ticks_Phase_8,28,9999,9999,9999,888370284
105,8,22,Ticks_Phase_8,29,9999,9999,9999,889171040
105,8,22,Ticks_Phase_8,30,9999,9999,9999,889950308
105,8,22,Ticks_Phase_8,31,9999,9999,9999,890751068
105,8,22,Ticks_Phase_8,32,9999,9999,9999,891550848
105,8,22,Ticks_Phase_8,33,9999,9999,9999,892350580
105,8,22,Ticks_Phase_8,34,9999,9999,9999,893150276
105,8,22,Ticks_Phase_8,35,9999,9999,9999,893951052
105,8,22,Ticks_Phase_8,36,9999,9999,9999,894750836
105,8,22,Ticks_Phase_8,37,9999,9999,9999,895550548
105,8,22,Ticks_Phase_8,38,9999,9999,9999,896350268
105,8,22,Ticks_Phase_8,39,9999,9999,9999,897151100
105,8,22,Ticks_Phase_8,40,9999,9999,9999,897950784
105,8,22,Ticks_Phase_8,41,9999,9999,9999,898750580
105,8,22,Ticks_Phase_8,42,9999,9999,9999,899550308
105,8,22,Ticks_Phase_8,43,9999,9999,9999,900351064
105,8,22,Ticks_Phase_8,44,9999,9999,9999,901150836
105,8,22,Ticks_Phase_8,45,9999,9999,9999,901950564
105,8,22,Ticks_Phase_8,46,9999,9999,9999,902750276
105,8,22,Ticks_Phase_8,47,9999,9999,9999,903551036
105,8,22,Ticks_Phase_8,48,9999,9999,9999,904370244
105,8,22,Ticks_Phase_8,49,9999,9999,9999,905171004
105,8,22,Ticks_Phase_8,50,9999,9999,9999,905970792
105,8,22,Ticks_Phase_8,51,9999,9999,9999,906770504
105,8,22,Ticks_Phase_8,52,9999,9999,9999,907570296
105,8,22,Ticks_Phase_8,53,9999,9999,9999,908371048
105,8,22,Ticks_Phase_8,54,9999,9999,9999,909170760
105,8,22,Ticks_Phase_8,55,9999,9999,9999,909970548
105,8,22,Ticks_Phase_8,56,9999,9999,9999,910770280
105,8,22,Ticks_Phase_8,57,9999,9999,9999,911571040
105,8,22,Ticks_Phase_8,58,9999,9999,9999,912370752
105,8,22,Ticks_Phase_8,59,9999,9999,9999,913170536
105,8,22,Ticks_Phase_8,60,9999,9999,9999,913970248
105,8,22,Ticks_Phase_8,61,9999,9999,9999,914771060
105,8,22,Ticks_Phase_8,62,9999,9999,9999,915570772
105,8,22,Ticks_Phase_8,63,9999,9999,9999,916370536
105,8,22,Ticks_Phase_8,64,9999,9999,9999,917210188
105,8,22,Ticks_Phase_8,65,9999,9999,9999,918010948
105,8,22,Ticks_Phase_8,66,9999,9999,9999,918810736
105,8,22,Ticks_Phase_8,67,9999,9999,9999,919610448
105,8,22,Ticks_Phase_8,68,9999,9999,9999,920410164
105,8,22,Ticks_Phase_8,69,9999,9999,9999,921210968
105,8,22,Ticks_Phase_8,70,9999,9999,9999,922010684
105,8,22,Ticks_Phase_8,71,9999,9999,9999,922810456
105,8,22,Ticks_Phase_8,72,9999,9999,9999,923610192
105,8,22,Ticks_Phase_8,73,9999,9999,9999,924410944
105,8,22,Ticks_Phase_8,74,9999,9999,9999,925210728
105,8,22,Ticks_Phase_8,75,9999,9999,9999,926010448
105,8,22,Ticks_Phase_8,76,9999,9999,9999,926810228
105,8,22,Ticks_Phase_8,77,9999,9999,9999,927610964
105,8,22,Ticks_Phase_8,78,9999,9999,9999,928410680
105,8,22,Ticks_Phase_8,79,9999,9999,9999,929210488
105,8,22,Ticks_Phase_8,80,9999,9999,9999,930010200
105,8,22,Ticks_Phase_8,81,9999,9999,9999,930771020
105,8,22,Ticks_Phase_8,82,9999,9999,9999,931570808
105,8,22,Ticks_Phase_8,83,9999,9999,9999,932370520
105,8,22,Ticks_Phase_8,84,9999,9999,9999,933170288
105,8,22,Ticks_Phase_8,85,9999,9999,9999,933971044
105,8,22,Ticks_Phase_8,86,9999,9999,9999,934770756
105,8,22,Ticks_Phase_8,87,9999,9999,9999,935570528
105,8,22,Ticks_Phase_8,88,9999,9999,9999,936370280
105,8,22,Ticks_Phase_8,89,9999,9999,9999,937171036
105,8,22,Ticks_Phase_8,90,9999,9999,9999,937970752
105,8,22,Ticks_Phase_8,91,9999,9999,9999,938770536
105,8,22,Ticks_Phase_8,92,9999,9999,9999,939570248
105,8,22,Ticks_Phase_8,93,9999,9999,9999,940371004
105,8,22,Ticks_Phase_8,94,9999,9999,9999,941170792
105,8,22,Ticks_Phase_8,95,9999,9999,9999,941970504
105,8,22,Ticks_Phase_8,96,9999,9999,9999,942770240
105,8,22,Ticks_Phase_8,97,9999,9999,9999,943490104
105,8,22,Ticks_Phase_8,98,9999,9999,9999,944290936
105,8,22,Ticks_Phase_8,99,9999,9999,9999,945090640
105,8,22,Ticks_Phase_8,100,9999,9999,9999,945890428
105,8,22,Ticks_Phase_8,101,9999,9999,9999,946690148
105,8,22,Ticks_Phase_8,102,9999,9999,9999,947490904
105,8,22,Ticks_Phase_8,103,9999,9999,9999,948290616
105,8,22,Ticks_Phase_8,104,9999,9999,9999,949090404
105,8,22,Ticks_Phase_8,105,9999,9999,9999,949890116
105,8,22,Ticks_Phase_8,106,9999,9999,9999,950690872
105,8,22,Ticks_Phase_8,107,9999,9999,9999,951490684
105,8,22,Ticks_Phase_8,108,9999,9999,9999,952290396
105,8,22,Ticks_Phase_8,109,9999,9999,9999,953090108
105,8,22,Ticks_Phase_8,110,9999,9999,9999,953890944
105,8,22,Ticks_Phase_8,111,9999,9999,9999,954690648
105,8,22,Ticks_Phase_8,112,9999,9999,9999,955490364
105,8,22,Ticks_Phase_8,113,9999,9999,9999,956290152
105,8,22,Ticks_Phase_8,114,9999,9999,9999,957170744
105,8,22,Ticks_Phase_8,115,9999,9999,9999,957970548
105,8,22,Ticks_Phase_8,116,9999,9999,9999,958770260
105,8,22,Ticks_Phase_8,117,9999,9999,9999,959571020
105,8,22,Ticks_Phase_8,118,9999,9999,9999,960370808
105,8,22,Ticks_Phase_8,119,9999,9999,9999,961170520
105,8,22,Ticks_Phase_8,120,9999,9999,9999,961970256
105,8,22,Ticks_Phase_8,121,9999,9999,9999,962771016
105,8,22,Ticks_Phase_8,122,9999,9999,9999,963570808
105,8,22,Ticks_Phase_8,123,9999,9999,9999,964370512
105,8,22,Ticks_Phase_8,124,9999,9999,9999,965170228
105,8,22,Ticks_Phase_8,125,9999,9999,9999,965971056
105,8,22,Ticks_Phase_8,126,9999,9999,9999,966770772
105,8,22,Ticks_Phase_8,127,9999,9999,9999,967570484
105,8,22,Ticks_Phase_8,128,9999,9999,9999,968370288
105,8,22,Ticks_Phase_8,129,9999,9999,9999,969171024
105,8,22,Ticks_Phase_8,130,9999,9999,9999,969970808
105,8,22,Ticks_Phase_8,131,9999,9999,9999,970930264
105,8,22,Ticks_Phase_8,132,9999,9999,9999,971731044
105,8,22,Ticks_Phase_8,133,9999,9999,9999,972530756
105,8,22,Ticks_Phase_8,134,9999,9999,9999,973330544
105,8,22,Ticks_Phase_8,135,9999,9999,9999,974130252
105,8,22,Ticks_Phase_8,136,9999,9999,9999,974931012
105,8,22,Ticks_Phase_8,137,9999,9999,9999,975730796
105,8,22,Ticks_Phase_8,138,9999,9999,9999,976530504
105,8,22,Ticks_Phase_8,139,9999,9999,9999,977330240
105,8,22,Ticks_Phase_8,140,9999,9999,9999,978131072
105,8,22,Ticks_Phase_8,141,9999,9999,9999,978930784
105,8,22,Ticks_Phase_8,142,9999,9999,9999,979730504
105,8,22,Ticks_Phase_8,143,9999,9999,9999,980530284
105,8,22,Ticks_Phase_8,144,9999,9999,9999,981331040
105,8,22,Ticks_Phase_8,145,9999,9999,9999,982130760
105,8,22,Ticks_Phase_8,146,9999,9999,9999,982930540
105,8,22,Ticks_Phase_8,147,9999,9999,9999,983730284
105,8,22,Ticks_Phase_8,148,9999,9999,9999,984531036
105,8,22,Ticks_Phase_8,149,9999,9999,9999,985330752
105,8,22,Ticks_Phase_8,150,9999,9999,9999,985970780
105,8,22,Ticks_Phase_8,151,9999,9999,9999,986770516
105,8,22,Ticks_Phase_8,152,9999,9999,9999,987570276
105,8,22,Ticks_Phase_8,153,9999,9999,9999,988371024
105,8,22,Ticks_Phase_8,154,9999,9999,9999,989170744
105,8,22,Ticks_Phase_8,155,9999,9999,9999,989970524
105,8,22,Ticks_Phase_8,156,9999,9999,9999,990770232
105,8,22,Ticks_Phase_8,157,9999,9999,9999,991571068
105,8,22,Ticks_Phase_8,158,9999,9999,9999,992370776
105,8,22,Ticks_Phase_8,159,9999,9999,9999,993170492
105,8,22,Ticks_Phase_8,160,9999,9999,9999,993970300
105,8,22,Ticks_Phase_8,161,9999,9999,9999,994771060
105,8,22,Ticks_Phase_8,162,9999,9999,9999,995570756
105,8,22,Ticks_Phase_8,163,9999,9999,9999,996370556
105,8,22,Ticks_Phase_8,164,9999,9999,9999,997170268
105,8,22,Ticks_Phase_8,165,9999,9999,9999,997971028
105,8,22,Ticks_Phase_8,166,9999,9999,9999,998770812
105,8,22,Ticks_Phase_8,167,9999,9999,9999,999570524
105,8,22,Ticks_Phase_8,168,9999,9999,9999,1000370260
105,8,22,Ticks_Phase_8,169,9999,9999,9999,1001171024
105,9,21,Ticks_Linear_5,0,5,42,127,1011047916
105,9,21,Ticks_Linear_5,1,5,42,127,1011527940
105,9,21,Ticks_Linear_5,2,1,48,17,1011984696
105,9,21,Ticks_Linear_5,3,5,42,127,1012008480
105,9,21,Ticks_Linear_5,4,1,48,31,1012435344
105,9,21,Ticks_Linear_5,5,5,42,127,1012487588
105,9,21,Ticks_Linear_5,6,1,48,22,1012960808
105,9,21,Ticks_Linear_5,7,5,42,127,1012967744
105,9,21,Ticks_Linear_5,8,1,48,30,1013396616
105,9,21,Ticks_Linear_5,9,5,42,127,1013458452
105,9,21,Ticks_Linear_5,10,1,48,33,1013924480
105,9,21,Ticks_Linear_5,11,5,42,127,1013947820
105,9,21,Ticks_Linear_5,12,1,48,26,1014408588
105,9,21,Ticks_Linear_5,13,5,42,127,1014438456
105,9,21,Ticks_Linear_5,14,1,48,46,1014901992
105,9,21,Ticks_Linear_5,15,5,42,127,1014927796
105,9,21,Ticks_Linear_5,16,1,48,43,1015384984
105,9,21,Ticks_Linear_5,17,5,42,127,1015418284
105,9,21,Ticks_Linear_5,18,1,48,40,1015917696
105,9,21,Ticks_Linear_5,19,5,42,127,1015919032
105,9,21,Ticks_Linear_5,20,5,42,127,1016417616
105,9,21,Ticks_Linear_5,21,1,48,48,1016457956
105,9,21,Ticks_Linear_5,22,1,48,43,1016894868
105,9,21,Ticks_Linear_5,23,5,42,127,1016918356
105,9,21,Ticks_Linear_5,24,1,48,39,1017406708
105,9,21,Ticks_Linear_5,25,5,42,127,1017418048
105,9,21,Ticks_Linear_5,26,1,48,40,1017862132
105,9,21,Ticks_Linear_5,27,5,42,127,1017917748
105,9,21,Ticks_Linear_5,28,1,48,48,1018357572
105,9,21,Ticks_Linear_5,29,5,42,127,1018427632
105,9,21,Ticks_Linear_5,30,1,48,51,1018859596
105,9,21,Ticks_Linear_5,31,5,42,127,1018937596
105,9,21,Ticks_Linear_5,32,1,48,54,1019370896
105,9,21,Ticks_Linear_5,33,5,42,127,1019447552
105,9,21,Ticks_Linear_5,34,5,42,127,1019957592
105,9,21,Ticks_Linear_5,35,1,48,49,1020001524
105,9,21,Ticks_Linear_5,36,1,48,51,1020398612
105,9,21,Ticks_Linear_5,37,5,42,127,1020467544
105,9,21,Ticks_Linear_5,38,1,48,58,1020912232
105,9,21,Ticks_Linear_5,39,5,42,127,1020987836
105,9,21,Ticks_Linear_5,40,1,48,61,1021439792
105,9,21,Ticks_Linear_5,41,5,42,127,1021507908
105,9,21,Ticks_Linear_5,42,5,42,127,1022028432
105,9,21,Ticks_Linear_5,43,1,48,62,1022029620
105,9,21,Ticks_Linear_5,44,1,48,62,1022546908
105,9,21,Ticks_Linear_5,45,5,42,127,1022548344
105,9,21,Ticks_Linear_5,46,1,48,62,1023036396
105,9,21,Ticks_Linear_5,47,5,42,127,1023067516
105,9,21,Ticks_Linear_5,48,1,48,27,1023100796
105,9,21,Ticks_Linear_5,49,1,48,53,1023564520
105,9,21,Ticks_Linear_5,50,5,42,127,1023597900
105,9,21,Ticks_Linear_5,51,5,42,127,1024128232
105,9,21,Ticks_Linear_5,52,1,48,57,1024143628
105,9,21,Ticks_Linear_5,53,1,48,52,1024606620
105,9,21,Ticks_Linear_5,54,5,42,127,1024657732
105,9,21,Ticks_Linear_5,55,1,48,40,1025101444
105,9,21,Ticks_Linear_5,56,5,42,127,1025188304
105,9,21,Ticks_Linear_5,57,1,48,58,1025668692
105,9,21,Ticks_Linear_5,58,5,42,127,1025717512
105,9,21,Ticks_Linear_5,59,1,48,65,1026213048
105,9,21,Ticks_Linear_5,60,5,42,127,1026258324
105,9,21,Ticks_Linear_5,61,1,48,53,1026785548
105,9,21,Ticks_Linear_5,62,5,42,127,1026797940
105,9,21,Ticks_Linear_5,63,5,42,127,1027337488
105,9,21,Ticks_Linear_5,64,1,48,57,1027343144
105,9,21,Ticks_Linear_5,65,1,48,38,1027387472
105,9,21,Ticks_Linear_5,66,1,48,58,1027870216
105,9,21,Ticks_Linear_5,67,5,42,127,1027878344
105,9,21,Ticks_Linear_5,68,1,48,42,1028384732
105,9,21,Ticks_Linear_5,69,5,42,127,1028417812
105,9,21,Ticks_Linear_5,70,5,42,127,1028967840
105,9,21,Ticks_Linear_5,71,1,48,64,1028977256
105,9,21,Ticks_Linear_5,72,5,42,127,1029517640
105,9,21,Ticks_Linear_5,73,1,48,24,1029533556
105,9,21,Ticks_Linear_5,74,1,48,45,1030047472
105,9,21,Ticks_Linear_5,75,5,42,127,1030067532
105,9,21,Ticks_Linear_5,76,5,42,127,1030617412
105,9,21,Ticks_Linear_5,77,1,48,57,1030620528
105,9,21,Ticks_Linear_5,78,5,42,127,1031168480
105,9,21,Ticks_Linear_5,79,1,48,61,1031181412
105,9,21,Ticks_Linear_5,80,5,42,127,1031727568
105,9,21,Ticks_Linear_5,81,1,48,61,1031745504
105,9,21,Ticks_Linear_5,82,1,48,45,1032278820
105,9,21,Ticks_Linear_5,83,5,42,127,1032287472
105,9,21,Ticks_Linear_5,84,5,42,127,1032847684
105,9,21,Ticks_Linear_5,85,1,48,46,1032890744
105,9,21,Ticks_Linear_5,86,1,48,48,1033389228
105,9,21,Ticks_Linear_5,87,5,42,127,1033407764
105,9,21,Ticks_Linear_5,88,5,42,127,1033968128
105,9,21,Ticks_Linear_5,89,1,48,54,1034002552
105,9,21,Ticks_Linear_5,90,1,48,55,1034494880
105,9,21,Ticks_Linear_5,91,5,42,127,1034538364
105,9,21,Ticks_Linear_5,92,1,48,45,1035102500
105,9,21,Ticks_Linear_5,93,5,42,127,1035107636
105,9,21,Ticks_Linear_5,94,5,42,127,1035678332
105,9,21,Ticks_Linear_5,95,1,48,64,1035695712
105,9,21,Ticks_Linear_5,96,5,42,127,1036248376
105,9,21,Ticks_Linear_5,97,1,48,52,1036258764
105,9,21,Ticks_Linear_5,98,1,48,58,1036793700
105,9,21,Ticks_Linear_5,99,5,42,127,1036828124
105,9,21,Ticks_Linear_5,100,1,48,49,1037381704
105,9,21,Ticks_Linear_5,101,5,42,127,1037407584
105,9,21,Ticks_Linear_5,102,1,48,66,1037905360
105,9,21,Ticks_Linear_5,103,5,42,127,1037988408
105,9,21,Ticks_Linear_5,104,1,48,46,1038501692
105,9,21,Ticks_Linear_5,105,5,42,127,1038567712
105,9,21,Ticks_Linear_5,106,1,48,55,1039114320
105,9,21,Ticks_Linear_5,107,5,42,127,1039148364
105,9,21,Ticks_Linear_5,108,1,48,59,1039685528
105,9,21,Ticks_Linear_5,109,5,42,127,1039728116
105,9,21,Ticks_Linear_5,110,1,48,66,1040288140
105,9,21,Ticks_Linear_5,111,5,42,127,1040317784
105,9,21,Ticks_Linear_5,112,1,48,50,1040857508
105,9,21,Ticks_Linear_5,113,5,42,127,1040907648
105,9,21,Ticks_Linear_5,114,1,48,65,1041441376
105,9,21,Ticks_Linear_5,115,5,42,127,1041497364
105,9,21,Ticks_Linear_5,116,1,48,56,1042037536
105,9,21,Ticks_Linear_5,117,5,42,127,1042088224
105,9,21,Ticks_Linear_5,118,1,48,54,1042646376
105,9,21,Ticks_Linear_5,119,5,42,127,1042678312
105,9,21,Ticks_Linear_5,120,1,48,57,1043214436
105,9,21,Ticks_Linear_5,121,5,42,127,1043278212
105,9,21,Ticks_Linear_5,122,1,48,59,1043805200
105,9,21,Ticks_Linear_5,123,5,42,127,1043878284
105,9,21,Ticks_Linear_5,124,1,48,54,1044428272
105,9,21,Ticks_Linear_5,125,5,42,127,1044478188
105,9,21,Ticks_Linear_5,126,1,48,47,1045057448
105,9,21,Ticks_Linear_5,127,5,42,127,1045078384
105,9,21,Ticks_Linear_5,128,5,42,127,1045677344
105,9,21,Ticks_Linear_5,129,1,48,61,1045692136
105,9,21,Ticks_Linear_5,130,5,42,127,1046287648
105,9,21,Ticks_Linear_5,131,1,48,61,1046304612
105,9,21,Ticks_Linear_5,132,1,48,49,1046896588
105,9,21,Ticks_Linear_5,133,5,42,127,1046898028
105,9,21,Ticks_Linear_5,134,5,42,127,1047508364
105,9,21,Ticks_Linear_5,135,1,48,57,1047555672
105,9,21,Ticks_Linear_5,136,1,48,53,1048107692
105,9,21,Ticks_Linear_5,137,5,42,127,1048117620
105,9,21,Ticks_Linear_5,138,1,48,50,1048692012
105,9,21,Ticks_Linear_5,139,5,42,127,1048727928
105,9,21,Ticks_Linear_5,140,1,48,52,1049307816
105,9,21,Ticks_Linear_5,141,5,42,127,1049347324
105,9,21,Ticks_Linear_5,142,1,48,47,1049924632
105,9,21,Ticks_Linear_5,143,5,42,127,1049968112
105,9,21,Ticks_Linear_5,144,1,48,59,1050499376
105,9,21,Ticks_Linear_5,145,5,42,127,1050587508
105,9,21,Ticks_Linear_5,146,1,48,55,1051177188
105,9,21,Ticks_Linear_5,147,5,42,127,1051208224
105,9,21,Ticks_Linear_5,148,5,42,127,1051827552
105,9,21,Ticks_Linear_5,149,1,48,65,1051846548
105,9,21,Ticks_Linear_5,150,1,48,58,1052419096
105,9,21,Ticks_Linear_5,151,5,42,127,1052458300
105,9,21,Ticks_Linear_5,152,1,48,65,1053010976
105,9,21,Ticks_Linear_5,153,5,42,127,1053088228
105,9,21,Ticks_Linear_5,154,1,48,58,1053597596
105,9,21,Ticks_Linear_5,155,5,42,127,1053718064
105,9,21,Ticks_Linear_5,156,1,48,55,1054224844
105,9,21,Ticks_Linear_5,157,5,42,127,1054347620
105,9,21,Ticks_Linear_5,158,1,48,51,1054904300
105,9,21,Ticks_Linear_5,159,5,42,127,1054978340
105,9,21,Ticks_Linear_5,160,1,48,45,1055525168
105,9,21,Ticks_Linear_5,161,5,42,127,1055618452
105,9,21,Ticks_Linear_5,162,1,48,57,1056173768
105,9,21,Ticks_Linear_5,163,5,42,127,1056258440
105,9,21,Ticks_Linear_5,164,1,48,53,1056865100
105,9,21,Ticks_Linear_5,165,5,42,127,1056898404
105,9,21,Ticks_Linear_5,166,1,48,59,1057435196
105,9,21,Ticks_Linear_5,167,5,42,127,1057538376
105,9,21,Ticks_Linear_5,168,1,48,37,1058079464
105,9,21,Ticks_Linear_5,169,5,42,127,1058178340
105,9,21,Ticks_Linear_5,170,1,48,57,1058695004
105,9,21,Ticks_Linear_5,171,5,42,127,1058838100
105,9,21,Ticks_Linear_5,172,1,48,50,1059356200
105,9,21,Ticks_Linear_5,173,5,42,127,1059488248
105,9,21,Ticks_Linear_5,174,1,48,56,1060007696
105,9,21,Ticks_Linear_5,175,5,42,127,1060138324
105,9,21,Ticks_Linear_5,176,1,48,52,1060723436
105,9,21,Ticks_Linear_5,177,5,42,127,1060787464
105,9,21,Ticks_Linear_5,178,1,48,61,1061354592
105,9,21,Ticks_Linear_5,179,5,42,127,1061437764
105,9,21,Ticks_Linear_5,180,1,48,51,1062043604
105,9,21,Ticks_Linear_5,181,5,42,127,1062098272
105,9,21,Ticks_Linear_5,182,1,48,64,1062700820
105,9,21,Ticks_Linear_5,183,5,42,127,1062757928
105,9,21,Ticks_Linear_5,184,1,48,65,1063355484
105,9,21,Ticks_Linear_5,185,5,42,127,1063418288
105,9,21,Ticks_Linear_5,186,5,42,127,1064077728
105,9,21,Ticks_Linear_5,187,1,48,53,1064079216
105,9,21,Ticks_Linear_5,188,5,42,127,1064738088
105,9,21,Ticks_Linear_5,189,1,48,58,1064744272
105,9,21,Ticks_Linear_5,190,1,48,54,1065307464
105,9,21,Ticks_Linear_5,191,5,42,127,1065408084
105,9,21,Ticks_Linear_5,192,1,48,63,1065987144
105,9,21,Ticks_Linear_5,193,5,42,127,1066077496
105,9,21,Ticks_Linear_5,194,1,48,50,1066714364
105,9,21,Ticks_Linear_5,195,5,42,127,1066748408
105,9,21,Ticks_Linear_5,196,1,48,62,1067379796
105,9,21,Ticks_Linear_5,197,5,42,127,1067418176
105,9,21,Ticks_Linear_5,198,1,48,43,1068023592
105,9,21,Ticks_Linear_5,199,5,42,127,1068087820
105,9,21,Ticks_Linear_5,200,1,48,61,1068720952
105,9,21,Ticks_Linear_5,201,5,42,127,1068767500
105,9,21,Ticks_Linear_5,202,1,48,39,1069400980
105,9,21,Ticks_Linear_5,203,5,42,127,1069447604
105,9,21,Ticks_Linear_5,204,1,48,62,1069990124
105,9,21,Ticks_Linear_5,205,5,42,127,1070127348
105,9,21,Ticks_Linear_5,206,1,48,63,1070696744
105,9,21,Ticks_Linear_5,207,5,42,127,1070808444
105,9,21,Ticks_Linear_5,208,1,48,54,1071366460
105,9,21,Ticks_Linear_5,209,5,42,127,1071497464
105,9,21,Ticks_Linear_5,210,1,48,61,1072065836
105,9,21,Ticks_Linear_5,211,5,42,127,1072187920
105,9,21,Ticks_Linear_5,212,1,48,51,1072705948
105,9,21,Ticks_Linear_5,213,5,42,127,1072878084
105,9,21,Ticks_Linear_5,214,1,48,41,1073415044
105,9,21,Ticks_Linear_5,215,5,42,127,1073568024
105,9,21,Ticks_Linear_5,216,1,48,59,1074088220
105,9,21,Ticks_Linear_5,217,5,42,127,1074258312
105,9,21,Ticks_Linear_5,218,1,48,69,1074758964
105,9,21,Ticks_Linear_5,219,5,42,127,1074947504
105,9,21,Ticks_Linear_5,220,1,48,77,1075407940
105,9,21,Ticks_Linear_5,221,5,42,127,1075647776
105,9,21,Ticks_Linear_5,222,1,48,67,1076155372
105,9,21,Ticks_Linear_5,223,5,42,127,1076348248
105,9,21,Ticks_Linear_5,224,1,48,58,1076858332
105,9,21,Ticks_Linear_5,225,5,42,127,1077047844
105,9,21,Ticks_Linear_5,226,1,48,58,1077579348
105,9,21,Ticks_Linear_5,227,5,42,127,1077748192
105,9,21,Ticks_Linear_5,228,1,48,48,1078327028
105,9,21,Ticks_Linear_5,229,5,42,127,1078447496
105,9,21,Ticks_Linear_5,230,1,48,63,1079103976
105,9,21,Ticks_Linear_5,231,5,42,127,1079158168
105,9,21,Ticks_Linear_5,232,1,48,53,1079812040
105,9,21,Ticks_Linear_5,233,5,42,127,1079867952
105,9,21,Ticks_Linear_5,234,1,48,54,1080530440
105,9,21,Ticks_Linear_5,235,5,42,127,1080578412
105,9,21,Ticks_Linear_5,236,1,48,57,1081204396
105,9,21,Ticks_Linear_5,237,5,42,127,1081298140
105,9,21,Ticks_Linear_5,238,1,48,59,1081885644
105,9,21,Ticks_Linear_5,239,5,42,127,1082008048
105,9,21,Ticks_Linear_5,240,1,48,58,1082552376
105,9,21,Ticks_Linear_5,241,1,48,31,1082613308
105,9,21,Ticks_Linear_5,242,5,42,127,1082727772
105,9,21,Ticks_Linear_5,243,1,48,53,1083319728
105,9,21,Ticks_Linear_5,244,5,42,127,1083447884
105,9,21,Ticks_Linear_5,245,1,48,49,1084142960
105,9,21,Ticks_Linear_5,246,5,42,127,1084167424
105,9,21,Ticks_Linear_5,247,1,48,54,1084842632
105,9,21,Ticks_Linear_5,248,5,42,127,1084888364
105,9,21,Ticks_Linear_5,249,1,48,58,1085538020
105,9,21,Ticks_Linear_5,250,5,42,127,1085617544
105,9,21,Ticks_Linear_5,251,1,48,59,1086233796
105,9,21,Ticks_Linear_5,252,5,42,127,1086347580
105,9,21,Ticks_Linear_5,253,1,48,54,1086930180
105,9,21,Ticks_Linear_5,254,5,42,127,1087078032
105,9,21,Ticks_Linear_5,255,1,48,52,1087690960
105,9,21,Ticks_Linear_5,256,5,42,127,1087807888
105,9,21,Ticks_Linear_5,257,1,48,48,1088422984
105,9,21,Ticks_Linear_5,258,5,42,127,1088537892
105,9,21,Ticks_Linear_5,259,1,48,45,1089152808
105,9,21,Ticks_Linear_5,260,5,42,127,1089268044
105,9,21,Ticks_Linear_5,261,1,48,53,1089902812
105,9,21,Ticks_Linear_5,262,5,42,127,1090008380
105,9,21,Ticks_Linear_5,263,1,48,56,1090645684
105,9,21,Ticks_Linear_5,264,5,42,127,1090758004
105,9,21,Ticks_Linear_5,265,1,48,50,1091360944
105,9,21,Ticks_Linear_5,266,5,42,127,1091498268
105,9,21,Ticks_Linear_5,267,1,48,51,1092132060
105,9,21,Ticks_Linear_5,268,5,42,127,1092237828
105,9,21,Ticks_Linear_5,269,1,48,56,1092937780
105,9,21,Ticks_Linear_5,270,5,42,127,1092977956
105,9,21,Ticks_Linear_5,271,1,48,71,1093702372
105,9,21,Ticks_Linear_5,272,5,42,127,1093727656
105,9,21,Ticks_Linear_5,273,5,42,127,1094478184
105,9,21,Ticks_Linear_5,274,1,48,68,1094494848
105,9,21,Ticks_Linear_5,275,5,42,127,1095227880
105,9,21,Ticks_Linear_5,276,1,48,42,1095380572
105,9,21,Ticks_Linear_5,277,5,42,127,1095978700
105,9,21,Ticks_Linear_5,278,1,48,61,1096111848
105,9,21,Ticks_Linear_5,279,5,42,127,1096727804
105,9,21,Ticks_Linear_5,280,1,48,63,1096856064
105,9,21,Ticks_Linear_5,281,5,42,127,1097487764
105,9,21,Ticks_Linear_5,282,1,48,61,1097560228
105,9,21,Ticks_Linear_5,283,1,48,66,1098199148
105,9,21,Ticks_Linear_5,284,5,42,127,1098247488
105,9,21,Ticks_Linear_5,285,1,48,67,1098989356
105,9,21,Ticks_Linear_5,286,5,42,127,1099008420
105,9,21,Ticks_Linear_5,287,1,48,63,1099714712
105,9,21,Ticks_Linear_5,288,5,42,127,1099768080
105,9,21,Ticks_Linear_5,289,1,48,67,1100463812
105,9,21,Ticks_Linear_5,290,5,42,127,1100527964
105,9,21,Ticks_Linear_5,291,1,48,54,1101224000
105,9,21,Ticks_Linear_5,292,5,42,127,1101297960
105,9,21,Ticks_Linear_5,293,1,48,57,1101917964
105,9,21,Ticks_Linear_5,294,5,42,127,1102068232
105,9,21,Ticks_Linear_5,295,1,48,60,1102693040
105,9,21,Ticks_Linear_5,296,5,42,127,1102838004
105,9,21,Ticks_Linear_5,297,1,48,65,1103463108
105,9,21,Ticks_Linear_5,298,5,42,127,1103608144
105,9,21,Ticks_Linear_5,299,1,48,65,1104259168
105,9,21,Ticks_Linear_5,300,5,42,127,1104378212
105,9,21,Ticks_Linear_5,301,1,48,67,1105016884
105,9,21,Ticks_Linear_5,302,5,42,127,1105157716
105,9,21,Ticks_Linear_5,303,1,48,67,1105718052
105,9,21,Ticks_Linear_5,304,5,42,127,1105937672
105,9,21,Ticks_Linear_5,305,1,48,64,1106477560
105,9,21,Ticks_Linear_5,306,5,42,127,1106718072
105,9,21,Ticks_Linear_5,307,1,48,59,1107326632
105,9,21,Ticks_Linear_5,308,5,42,127,1107498324
105,9,21,Ticks_Linear_5,309,1,48,59,1108076712
105,9,21,Ticks_Linear_5,310,5,42,127,1108277752
105,9,21,Ticks_Linear_5,311,1,48,62,1108968640
105,9,21,Ticks_Linear_5,312,5,42,127,1109069384
105,9,21,Ticks_Linear_5,313,1,48,57,1109836432
105,9,21,Ticks_Linear_5,314,5,42,127,1109857740
105,9,21,Ticks_Linear_5,315,5,42,127,1110648112
105,9,21,Ticks_Linear_5,316,1,48,54,1110708844
105,9,21,Ticks_Linear_5,317,5,42,127,1111437800
105,9,21,Ticks_Linear_5,318,1,48,58,1111481156
105,9,21,Ticks_Linear_5,319,5,42,127,1112228188
105,9,21,Ticks_Linear_5,320,1,48,58,1112388424
105,9,21,Ticks_Linear_5,321,5,42,127,1113027988
105,9,21,Ticks_Linear_5,322,1,48,56,1113131452
105,9,21,Ticks_Linear_5,323,5,42,127,1113827560
105,9,21,Ticks_Linear_5,324,1,48,63,1113909540
105,9,21,Ticks_Linear_5,325,5,42,127,1114627508
105,9,21,Ticks_Linear_5,326,1,48,77,1114892228
105,9,21,Ticks_Linear_5,327,5,42,127,1115428280
105,9,21,Ticks_Linear_5,328,1,48,74,1115825364
105,9,21,Ticks_Linear_5,329,5,42,127,1116227928
105,9,21,Ticks_Linear_5,330,1,48,59,1116520136
105,9,21,Ticks_Linear_5,331,5,42,127,1117037836
105,9,21,Ticks_Linear_5,332,1,48,66,1117345412
105,9,21,Ticks_Linear_5,333,5,42,127,1117847968
105,9,21,Ticks_Linear_5,334,1,48,61,1118235524
105,9,21,Ticks_Linear_5,335,5,42,127,1118657828
105,9,21,Ticks_Linear_5,336,1,48,53,1118953628
105,9,21,Ticks_Linear_5,337,5,42,127,1119467964
105,9,21,Ticks_Linear_5,338,1,48,72,1119819408
105,9,21,Ticks_Linear_5,339,5,42,127,1120277796
105,9,21,Ticks_Linear_5,0,9999,9999,9999,1011045464
105,9,21,Ticks_Linear_5,1,9999,9999,9999,1011525716
105,9,21,Ticks_Linear_5,2,9999,9999,9999,1012005956
105,9,21,Ticks_Linear_5,3,9999,9999,9999,1012485216
105,9,21,Ticks_Linear_5,4,9999,9999,9999,1012965440
105,9,21,Ticks_Linear_5,5,9999,9999,9999,1013455932
105,9,21,Ticks_Linear_5,6,9999,9999,9999,1013945444
105,9,21,Ticks_Linear_5,7,9999,9999,9999,1014435932
105,9,21,Ticks_Linear_5,8,9999,9999,9999,1014925424
105,9,21,Ticks_Linear_5,9,9999,9999,9999,1015415908
105,9,21,Ticks_Linear_5,10,9999,9999,9999,1015915616
105,9,21,Ticks_Linear_5,11,9999,9999,9999,1016415316
105,9,21,Ticks_Linear_5,12,9999,9999,9999,1016916056
105,9,21,Ticks_Linear_5,13,9999,9999,9999,1017415748
105,9,21,Ticks_Linear_5,14,9999,9999,9999,1017915448
105,9,21,Ticks_Linear_5,15,9999,9999,9999,1018425408
105,9,21,Ticks_Linear_5,16,9999,9999,9999,1018935368
105,9,21,Ticks_Linear_5,17,9999,9999,9999,1019445324
105,9,21,Ticks_Linear_5,18,9999,9999,9999,1019955292
105,9,21,Ticks_Linear_5,19,9999,9999,9999,1020465244
105,9,21,Ticks_Linear_5,20,9999,9999,9999,1020985464
105,9,21,Ticks_Linear_5,21,9999,9999,9999,1021505608
105,9,21,Ticks_Linear_5,22,9999,9999,9999,1022025832
105,9,21,Ticks_Linear_5,23,9999,9999,9999,1022545976
105,9,21,Ticks_Linear_5,24,9999,9999,9999,1023065216
105,9,21,Ticks_Linear_5,25,9999,9999,9999,1023595596
105,9,21,Ticks_Linear_5,26,9999,9999,9999,1024126004
105,9,21,Ticks_Linear_5,27,9999,9999,9999,1024655428
105,9,21,Ticks_Linear_5,28,9999,9999,9999,1025185856
105,9,21,Ticks_Linear_5,29,9999,9999,9999,1025715284
105,9,21,Ticks_Linear_5,30,9999,9999,9999,1026255952
105,9,21,Ticks_Linear_5,31,9999,9999,9999,1026795640
105,9,21,Ticks_Linear_5,32,9999,9999,9999,1027335260
105,9,21,Ticks_Linear_5,33,9999,9999,9999,1027875896
105,9,21,Ticks_Linear_5,34,9999,9999,9999,1028415584
105,9,21,Ticks_Linear_5,35,9999,9999,9999,1028965464
105,9,21,Ticks_Linear_5,36,9999,9999,9999,1029515340
105,9,21,Ticks_Linear_5,37,9999,9999,9999,1030065232
105,9,21,Ticks_Linear_5,38,9999,9999,9999,1030615112
105,9,21,Ticks_Linear_5,39,9999,9999,9999,1031166032
105,9,21,Ticks_Linear_5,40,9999,9999,9999,1031725120
105,9,21,Ticks_Linear_5,41,9999,9999,9999,1032285248
105,9,21,Ticks_Linear_5,42,9999,9999,9999,1032845384
105,9,21,Ticks_Linear_5,43,9999,9999,9999,1033405536
105,9,21,Ticks_Linear_5,44,9999,9999,9999,1033965676
105,9,21,Ticks_Linear_5,45,9999,9999,9999,1034535992
105,9,21,Ticks_Linear_5,46,9999,9999,9999,1035105336
105,9,21,Ticks_Linear_5,47,9999,9999,9999,1035675736
105,9,21,Ticks_Linear_5,48,9999,9999,9999,1036246080
105,9,21,Ticks_Linear_5,49,9999,9999,9999,1036825676
105,9,21,Ticks_Linear_5,50,9999,9999,9999,1037405280
105,9,21,Ticks_Linear_5,51,9999,9999,9999,1037985884
105,9,21,Ticks_Linear_5,52,9999,9999,9999,1038565488
105,9,21,Ticks_Linear_5,53,9999,9999,9999,1039146064
105,9,21,Ticks_Linear_5,54,9999,9999,9999,1039725668
105,9,21,Ticks_Linear_5,55,9999,9999,9999,1040315484
105,9,21,Ticks_Linear_5,56,9999,9999,9999,1040905272
105,9,21,Ticks_Linear_5,57,9999,9999,9999,1041495136
105,9,21,Ticks_Linear_5,58,9999,9999,9999,1042086000
105,9,21,Ticks_Linear_5,59,9999,9999,9999,1042675788
105,9,21,Ticks_Linear_5,60,9999,9999,9999,1043275836
105,9,21,Ticks_Linear_5,61,9999,9999,9999,1043875912
105,9,21,Ticks_Linear_5,62,9999,9999,9999,1044475960
105,9,21,Ticks_Linear_5,63,9999,9999,9999,1045076084
105,9,21,Ticks_Linear_5,64,9999,9999,9999,1045675116
105,9,21,Ticks_Linear_5,65,9999,9999,9999,1046285424
105,9,21,Ticks_Linear_5,66,9999,9999,9999,1046895732
105,9,21,Ticks_Linear_5,67,9999,9999,9999,1047505988
105,9,21,Ticks_Linear_5,68,9999,9999,9999,1048115316
105,9,21,Ticks_Linear_5,69,9999,9999,9999,1048725624
105,9,21,Ticks_Linear_5,70,9999,9999,9999,1049345096
105,9,21,Ticks_Linear_5,71,9999,9999,9999,1049965664
105,9,21,Ticks_Linear_5,72,9999,9999,9999,1050585208
105,9,21,Ticks_Linear_5,73,9999,9999,9999,1051205700
105,9,21,Ticks_Linear_5,74,9999,9999,9999,1051825252
105,9,21,Ticks_Linear_5,75,9999,9999,9999,1052456000
105,9,21,Ticks_Linear_5,76,9999,9999,9999,1053085776
105,9,21,Ticks_Linear_5,77,9999,9999,9999,1053715540
105,9,21,Ticks_Linear_5,78,9999,9999,9999,1054345316
105,9,21,Ticks_Linear_5,79,9999,9999,9999,1054976116
105,9,21,Ticks_Linear_5,80,9999,9999,9999,1055616080
105,9,21,Ticks_Linear_5,81,9999,9999,9999,1056256064
105,9,21,Ticks_Linear_5,82,9999,9999,9999,1056896104
105,9,21,Ticks_Linear_5,83,9999,9999,9999,1057536076
105,9,21,Ticks_Linear_5,84,9999,9999,9999,1058176116
105,9,21,Ticks_Linear_5,85,9999,9999,9999,1058835576
105,9,21,Ticks_Linear_5,86,9999,9999,9999,1059485800
105,9,21,Ticks_Linear_5,87,9999,9999,9999,1060136024
105,9,21,Ticks_Linear_5,88,9999,9999,9999,1060785240
105,9,21,Ticks_Linear_5,89,9999,9999,9999,1061435464
105,9,21,Ticks_Linear_5,90,9999,9999,9999,1062095972
105,9,21,Ticks_Linear_5,91,9999,9999,9999,1062755404
105,9,21,Ticks_Linear_5,92,9999,9999,9999,1063415912
105,9,21,Ticks_Linear_5,93,9999,9999,9999,1064075356
105,9,21,Ticks_Linear_5,94,9999,9999,9999,1064735860
105,9,21,Ticks_Linear_5,95,9999,9999,9999,1065405560
105,9,21,Ticks_Linear_5,96,9999,9999,9999,1066075192
105,9,21,Ticks_Linear_5,97,9999,9999,9999,1066745960
105,9,21,Ticks_Linear_5,98,9999,9999,9999,1067415652
105,9,21,Ticks_Linear_5,99,9999,9999,9999,1068085372
105,9,21,Ticks_Linear_5,100,9999,9999,9999,1068765276
105,9,21,Ticks_Linear_5,101,9999,9999,9999,1069445228
105,9,21,Ticks_Linear_5,102,9999,9999,9999,1070125120
105,9,21,Ticks_Linear_5,103,9999,9999,9999,1070806144
105,9,21,Ticks_Linear_5,104,9999,9999,9999,1071495236
105,9,21,Ticks_Linear_5,105,9999,9999,9999,1072185472
105,9,21,Ticks_Linear_5,106,9999,9999,9999,1072875632
105,9,21,Ticks_Linear_5,107,9999,9999,9999,1073565772
105,9,21,Ticks_Linear_5,108,9999,9999,9999,1074255936
105,9,21,Ticks_Linear_5,109,9999,9999,9999,1074945128
105,9,21,Ticks_Linear_5,110,9999,9999,9999,1075645548
105,9,21,Ticks_Linear_5,111,9999,9999,9999,1076345944
105,9,21,Ticks_Linear_5,112,9999,9999,9999,1077045320
105,9,21,Ticks_Linear_5,113,9999,9999,9999,1077745744
105,9,21,Ticks_Linear_5,114,9999,9999,9999,1078445120
105,9,21,Ticks_Linear_5,115,9999,9999,9999,1079155792
105,9,21,Ticks_Linear_5,116,9999,9999,9999,1079865428
105,9,21,Ticks_Linear_5,117,9999,9999,9999,1080576112
105,9,21,Ticks_Linear_5,118,9999,9999,9999,1081295928
105,9,21,Ticks_Linear_5,119,9999,9999,9999,1082005596
105,9,21,Ticks_Linear_5,120,9999,9999,9999,1082725468
105,9,21,Ticks_Linear_5,121,9999,9999,9999,1083445360
105,9,21,Ticks_Linear_5,122,9999,9999,9999,1084165196
105,9,21,Ticks_Linear_5,123,9999,9999,9999,1084886140
105,9,21,Ticks_Linear_5,124,9999,9999,9999,1085615168
105,9,21,Ticks_Linear_5,125,9999,9999,9999,1086345280
105,9,21,Ticks_Linear_5,126,9999,9999,9999,1087075432
105,9,21,Ticks_Linear_5,127,9999,9999,9999,1087805508
105,9,21,Ticks_Linear_5,128,9999,9999,9999,1088535664
105,9,21,Ticks_Linear_5,129,9999,9999,9999,1089265740
105,9,21,Ticks_Linear_5,130,9999,9999,9999,1090006084
105,9,21,Ticks_Linear_5,131,9999,9999,9999,1090755704
105,9,21,Ticks_Linear_5,132,9999,9999,9999,1091496040
105,9,21,Ticks_Linear_5,133,9999,9999,9999,1092235376
105,9,21,Ticks_Linear_5,134,9999,9999,9999,1092975732
105,9,21,Ticks_Linear_5,135,9999,9999,9999,1093725280
105,9,21,Ticks_Linear_5,136,9999,9999,9999,1094475884
105,9,21,Ticks_Linear_5,137,9999,9999,9999,1095225432
105,9,21,Ticks_Linear_5,138,9999,9999,9999,1095976028
105,9,21,Ticks_Linear_5,139,9999,9999,9999,1096725576
105,9,21,Ticks_Linear_5,140,9999,9999,9999,1097485388
105,9,21,Ticks_Linear_5,141,9999,9999,9999,1098245188
105,9,21,Ticks_Linear_5,142,9999,9999,9999,1099006044
105,9,21,Ticks_Linear_5,143,9999,9999,9999,1099765852
105,9,21,Ticks_Linear_5,144,9999,9999,9999,1100525664
105,9,21,Ticks_Linear_5,145,9999,9999,9999,1101295732
105,9,21,Ticks_Linear_5,146,9999,9999,9999,1102065784
105,9,21,Ticks_Linear_5,147,9999,9999,9999,1102835776
105,9,21,Ticks_Linear_5,148,9999,9999,9999,1103605844
105,9,21,Ticks_Linear_5,149,9999,9999,9999,1104375908
105,9,21,Ticks_Linear_5,150,9999,9999,9999,1105155192
105,9,21,Ticks_Linear_5,151,9999,9999,9999,1105935448
105,9,21,Ticks_Linear_5,152,9999,9999,9999,1106715772
105,9,21,Ticks_Linear_5,153,9999,9999,9999,1107496024
105,9,21,Ticks_Linear_5,154,9999,9999,9999,1108275304
105,9,21,Ticks_Linear_5,155,9999,9999,9999,1109065828
105,9,21,Ticks_Linear_5,156,9999,9999,9999,1109855292
105,9,21,Ticks_Linear_5,157,9999,9999,9999,1110645884
105,9,21,Ticks_Linear_5,158,9999,9999,9999,1111435348
105,9,21,Ticks_Linear_5,159,9999,9999,9999,1112225884
105,9,21,Ticks_Linear_5,160,9999,9999,9999,1113025612
105,9,21,Ticks_Linear_5,161,9999,9999,9999,1113825332
105,9,21,Ticks_Linear_5,162,9999,9999,9999,1114625132
105,9,21,Ticks_Linear_5,163,9999,9999,9999,1115425904
105,9,21,Ticks_Linear_5,164,9999,9999,9999,1116225624
105,9,21,Ticks_Linear_5,165,9999,9999,9999,1117035608
105,9,21,Ticks_Linear_5,166,9999,9999,9999,1117845592
105,9,21,Ticks_Linear_5,167,9999,9999,9999,1118655600
105,9,21,Ticks_Linear_5,168,9999,9999,9999,1119465584
105,9,21,Ticks_Linear_5,169,9999,9999,9999,1120275568
105,10,20,Ticks_Linear_8,0,5,42,127,1129913676
105,10,20,Ticks_Linear_8,1,1,48,72,1130479392
105,10,20,Ticks_Linear_8,2,5,42,127,1130733840
105,10,20,Ticks_Linear_8,3,1,48,59,1131397064
105,10,20,Ticks_Linear_8,4,5,42,127,1131554156
105,10,20,Ticks_Linear_8,5,1,48,62,1132166832
105,10,20,Ticks_Linear_8,6,5,42,127,1132374544
105,10,20,Ticks_Linear_8,7,1,48,60,1133075548
105,10,20,Ticks_Linear_8,8,5,42,127,1133193596
105,10,20,Ticks_Linear_8,9,1,48,53,1133915932
105,10,20,Ticks_Linear_8,10,5,42,127,1134003544
105,10,20,Ticks_Linear_8,11,1,48,46,1134744560
105,10,20,Ticks_Linear_8,12,5,42,127,1134813524
105,10,20,Ticks_Linear_8,13,1,48,58,1135504368
105,10,20,Ticks_Linear_8,14,5,42,127,1135623568
105,10,20,Ticks_Linear_8,15,1,48,57,1136300220
105,10,20,Ticks_Linear_8,16,5,42,127,1136433404
105,10,20,Ticks_Linear_8,17,1,48,56,1137096728
105,10,20,Ticks_Linear_8,18,5,42,127,1137243460
105,10,20,Ticks_Linear_8,19,1,48,62,1137881172
105,10,20,Ticks_Linear_8,20,5,42,127,1138044456
105,10,20,Ticks_Linear_8,21,1,48,65,1138666820
105,10,20,Ticks_Linear_8,22,5,42,127,1138843956
105,10,20,Ticks_Linear_8,23,1,48,50,1139478972
105,10,20,Ticks_Linear_8,24,5,42,127,1139643704
105,10,20,Ticks_Linear_8,25,1,48,52,1140329696
105,10,20,Ticks_Linear_8,26,5,42,127,1140443428
105,10,20,Ticks_Linear_8,27,1,48,48,1141206728
105,10,20,Ticks_Linear_8,28,5,42,127,1141244436
105,10,20,Ticks_Linear_8,29,1,48,39,1142019028
105,10,20,Ticks_Linear_8,30,5,42,127,1142033752
105,10,20,Ticks_Linear_8,31,1,48,53,1142795468
105,10,20,Ticks_Linear_8,32,5,42,127,1142824488
105,10,20,Ticks_Linear_8,33,1,48,54,1143518800
105,10,20,Ticks_Linear_8,34,5,42,127,1143613728
105,10,20,Ticks_Linear_8,35,1,48,51,1144390040
105,10,20,Ticks_Linear_8,36,5,42,127,1144404536
105,10,20,Ticks_Linear_8,37,1,48,59,1145155168
105,10,20,Ticks_Linear_8,38,5,42,127,1145193780
105,10,20,Ticks_Linear_8,39,1,48,46,1145940360
105,10,20,Ticks_Linear_8,40,5,42,127,1145974180
105,10,20,Ticks_Linear_8,41,1,48,64,1146679052
105,10,20,Ticks_Linear_8,42,5,42,127,1146754360
105,10,20,Ticks_Linear_8,43,1,48,62,1147472196
105,10,20,Ticks_Linear_8,44,5,42,127,1147544120
105,10,20,Ticks_Linear_8,45,1,48,58,1148300664
105,10,20,Ticks_Linear_8,46,5,42,127,1148324248
105,10,20,Ticks_Linear_8,47,1,48,54,1149077704
105,10,20,Ticks_Linear_8,48,5,42,127,1149103532
105,10,20,Ticks_Linear_8,49,1,48,55,1149809872
105,10,20,Ticks_Linear_8,50,5,42,127,1149873596
105,10,20,Ticks_Linear_8,51,1,48,53,1150583316
105,10,20,Ticks_Linear_8,52,5,42,127,1150643516
105,10,20,Ticks_Linear_8,53,1,48,48,1151370148
105,10,20,Ticks_Linear_8,54,5,42,127,1151413584
105,10,20,Ticks_Linear_8,55,1,48,61,1152168408
105,10,20,Ticks_Linear_8,56,5,42,127,1152183728
105,10,20,Ticks_Linear_8,57,1,48,65,1152881160
105,10,20,Ticks_Linear_8,58,5,42,127,1152953648
105,10,20,Ticks_Linear_8,59,1,48,62,1153634684
105,10,20,Ticks_Linear_8,60,5,42,127,1153713604
105,10,20,Ticks_Linear_8,61,1,48,56,1154440764
105,10,20,Ticks_Linear_8,62,5,42,127,1154474460
105,10,20,Ticks_Linear_8,63,1,48,58,1155221780
105,10,20,Ticks_Linear_8,64,5,42,127,1155234344
105,10,20,Ticks_Linear_8,65,1,48,52,1155950272
105,10,20,Ticks_Linear_8,66,5,42,127,1155993832
105,10,20,Ticks_Linear_8,67,1,48,44,1156735152
105,10,20,Ticks_Linear_8,68,5,42,127,1156753764
105,10,20,Ticks_Linear_8,69,1,48,57,1157475640
105,10,20,Ticks_Linear_8,70,5,42,127,1157504288
105,10,20,Ticks_Linear_8,71,1,48,49,1158190288
105,10,20,Ticks_Linear_8,72,5,42,127,1158253912
105,10,20,Ticks_Linear_8,73,1,48,51,1158973240
105,10,20,Ticks_Linear_8,74,5,42,127,1159003460
105,10,20,Ticks_Linear_8,75,5,42,127,1159754212
105,10,20,Ticks_Linear_8,76,1,48,48,1159790280
105,10,20,Ticks_Linear_8,77,5,42,127,1160503616
105,10,20,Ticks_Linear_8,78,1,48,53,1160507784
105,10,20,Ticks_Linear_8,79,1,48,53,1161211544
105,10,20,Ticks_Linear_8,80,5,42,127,1161244392
105,10,20,Ticks_Linear_8,81,5,42,127,1161984364
105,10,20,Ticks_Linear_8,82,1,48,54,1162014520
105,10,20,Ticks_Linear_8,83,5,42,127,1162723580
105,10,20,Ticks_Linear_8,84,1,48,50,1162778744
105,10,20,Ticks_Linear_8,85,5,42,127,1163463992
105,10,20,Ticks_Linear_8,86,1,48,57,1163473404
105,10,20,Ticks_Linear_8,87,5,42,127,1164204404
105,10,20,Ticks_Linear_8,88,1,48,65,1164229088
105,10,20,Ticks_Linear_8,89,5,42,127,1164933560
105,10,20,Ticks_Linear_8,90,1,48,58,1164953532
105,10,20,Ticks_Linear_8,91,1,48,62,1165631380
105,10,20,Ticks_Linear_8,92,5,42,127,1165663556
105,10,20,Ticks_Linear_8,93,1,48,64,1166346864
105,10,20,Ticks_Linear_8,94,5,42,127,1166393636
105,10,20,Ticks_Linear_8,95,1,48,62,1167043468
105,10,20,Ticks_Linear_8,96,5,42,127,1167123860
105,10,20,Ticks_Linear_8,97,1,48,49,1167722752
105,10,20,Ticks_Linear_8,98,5,42,127,1167854072
105,10,20,Ticks_Linear_8,99,1,48,50,1168559484
105,10,20,Ticks_Linear_8,100,5,42,127,1168573832
105,10,20,Ticks_Linear_8,101,1,48,45,1169228580
105,10,20,Ticks_Linear_8,102,5,42,127,1169293556
105,10,20,Ticks_Linear_8,103,5,42,127,1170013528
105,10,20,Ticks_Linear_8,104,1,48,53,1170042860
105,10,20,Ticks_Linear_8,105,1,48,54,1170685972
105,10,20,Ticks_Linear_8,106,5,42,127,1170733488
105,10,20,Ticks_Linear_8,107,1,48,61,1171362728
105,10,20,Ticks_Linear_8,108,5,42,127,1171454356
105,10,20,Ticks_Linear_8,109,1,48,54,1172059748
105,10,20,Ticks_Linear_8,110,1,48,20,1172152244
105,10,20,Ticks_Linear_8,111,5,42,127,1172164116
105,10,20,Ticks_Linear_8,112,1,48,61,1172770936
105,10,20,Ticks_Linear_8,113,5,42,127,1172873712
105,10,20,Ticks_Linear_8,114,1,48,58,1173507236
105,10,20,Ticks_Linear_8,115,5,42,127,1173584108
105,10,20,Ticks_Linear_8,116,5,42,127,1174293972
105,10,20,Ticks_Linear_8,117,1,48,61,1174299560
105,10,20,Ticks_Linear_8,118,5,42,127,1175003460
105,10,20,Ticks_Linear_8,119,1,48,55,1175021628
105,10,20,Ticks_Linear_8,120,5,42,127,1175704084
105,10,20,Ticks_Linear_8,121,1,48,52,1175713520
105,10,20,Ticks_Linear_8,122,1,48,50,1176389548
105,10,20,Ticks_Linear_8,123,5,42,127,1176404348
105,10,20,Ticks_Linear_8,124,1,48,52,1177009992
105,10,20,Ticks_Linear_8,125,5,42,127,1177103948
105,10,20,Ticks_Linear_8,126,1,48,59,1177732716
105,10,20,Ticks_Linear_8,127,5,42,127,1177804148
105,10,20,Ticks_Linear_8,128,1,48,65,1178365588
105,10,20,Ticks_Linear_8,129,5,42,127,1178503484
105,10,20,Ticks_Linear_8,130,1,48,50,1179129436
105,10,20,Ticks_Linear_8,131,5,42,127,1179193812
105,10,20,Ticks_Linear_8,132,1,48,61,1179855104
105,10,20,Ticks_Linear_8,133,5,42,127,1179884124
105,10,20,Ticks_Linear_8,134,1,48,57,1180540292
105,10,20,Ticks_Linear_8,135,5,42,127,1180574284
105,10,20,Ticks_Linear_8,136,5,42,127,1181264356
105,10,20,Ticks_Linear_8,137,1,48,63,1181297880
105,10,20,Ticks_Linear_8,138,1,48,51,1181920916
105,10,20,Ticks_Linear_8,139,5,42,127,1181954364
105,10,20,Ticks_Linear_8,140,5,42,127,1182643560
105,10,20,Ticks_Linear_8,141,1,48,50,1182658960
105,10,20,Ticks_Linear_8,142,5,42,127,1183323512
105,10,20,Ticks_Linear_8,143,1,48,53,1183413152
105,10,20,Ticks_Linear_8,144,5,42,127,1184003416
105,10,20,Ticks_Linear_8,145,1,48,51,1184081268
105,10,20,Ticks_Linear_8,146,1,48,40,1184666540
105,10,20,Ticks_Linear_8,147,5,42,127,1184684408
105,10,20,Ticks_Linear_8,148,1,48,52,1185352268
105,10,20,Ticks_Linear_8,149,5,42,127,1185364364
105,10,20,Ticks_Linear_8,150,5,42,127,1186034164
105,10,20,Ticks_Linear_8,151,1,48,57,1186037212
105,10,20,Ticks_Linear_8,152,5,42,127,1186703712
105,10,20,Ticks_Linear_8,153,1,48,59,1186718988
105,10,20,Ticks_Linear_8,154,1,48,50,1187361844
105,10,20,Ticks_Linear_8,155,5,42,127,1187373572
105,10,20,Ticks_Linear_8,156,1,48,59,1187977924
105,10,20,Ticks_Linear_8,157,5,42,127,1188044192
105,10,20,Ticks_Linear_8,158,1,48,61,1188676100
105,10,20,Ticks_Linear_8,159,5,42,127,1188714108
105,10,20,Ticks_Linear_8,160,1,48,54,1189356756
105,10,20,Ticks_Linear_8,161,5,42,127,1189374244
105,10,20,Ticks_Linear_8,162,1,48,55,1189952016
105,10,20,Ticks_Linear_8,163,5,42,127,1190033976
105,10,20,Ticks_Linear_8,164,1,48,61,1190649804
105,10,20,Ticks_Linear_8,165,5,42,127,1190694336
105,10,20,Ticks_Linear_8,166,1,48,65,1191331208
105,10,20,Ticks_Linear_8,167,5,42,127,1191353868
105,10,20,Ticks_Linear_8,168,1,48,62,1191943096
105,10,20,Ticks_Linear_8,169,5,42,127,1192014204
105,10,20,Ticks_Linear_8,170,1,48,65,1192628012
105,10,20,Ticks_Linear_8,171,5,42,127,1192664304
105,10,20,Ticks_Linear_8,172,1,48,69,1193297780
105,10,20,Ticks_Linear_8,173,5,42,127,1193323888
105,10,20,Ticks_Linear_8,174,1,48,60,1193915832
105,10,20,Ticks_Linear_8,175,5,42,127,1193974136
105,10,20,Ticks_Linear_8,176,1,48,70,1194566056
105,10,20,Ticks_Linear_8,177,5,42,127,1194624432
105,10,20,Ticks_Linear_8,178,1,48,67,1195209704
105,10,20,Ticks_Linear_8,179,5,42,127,1195273632
105,10,20,Ticks_Linear_8,180,1,48,59,1195847504
105,10,20,Ticks_Linear_8,181,5,42,127,1195913524
105,10,20,Ticks_Linear_8,182,1,48,67,1196529128
105,10,20,Ticks_Linear_8,183,5,42,127,1196553736
105,10,20,Ticks_Linear_8,184,1,48,55,1197128428
105,10,20,Ticks_Linear_8,185,5,42,127,1197193476
105,10,20,Ticks_Linear_8,186,1,48,71,1197730448
105,10,20,Ticks_Linear_8,187,5,42,127,1197833600
105,10,20,Ticks_Linear_8,188,1,48,77,1198413776
105,10,20,Ticks_Linear_8,189,5,42,127,1198473504
105,10,20,Ticks_Linear_8,190,5,42,127,1199104364
105,10,20,Ticks_Linear_8,191,1,48,57,1199127180
105,10,20,Ticks_Linear_8,192,5,42,127,1199734068
105,10,20,Ticks_Linear_8,193,1,48,48,1199779740
105,10,20,Ticks_Linear_8,194,5,42,127,1200364096
105,10,20,Ticks_Linear_8,195,1,48,71,1200450936
105,10,20,Ticks_Linear_8,196,5,42,127,1200993724
105,10,20,Ticks_Linear_8,197,1,48,67,1201024404
105,10,20,Ticks_Linear_8,198,1,48,62,1201615244
105,10,20,Ticks_Linear_8,199,5,42,127,1201624492
105,10,20,Ticks_Linear_8,200,1,48,63,1202251452
105,10,20,Ticks_Linear_8,201,5,42,127,1202254124
105,10,20,Ticks_Linear_8,202,1,48,59,1202853560
105,10,20,Ticks_Linear_8,203,5,42,127,1202873816
105,10,20,Ticks_Linear_8,204,1,48,62,1203445440
105,10,20,Ticks_Linear_8,205,5,42,127,1203494236
105,10,20,Ticks_Linear_8,206,1,48,65,1204052908
105,10,20,Ticks_Linear_8,207,5,42,127,1204113976
105,10,20,Ticks_Linear_8,208,1,48,66,1204651712
105,10,20,Ticks_Linear_8,209,5,42,127,1204734276
105,10,20,Ticks_Linear_8,210,1,48,69,1205306724
105,10,20,Ticks_Linear_8,211,5,42,127,1205343760
105,10,20,Ticks_Linear_8,212,1,48,68,1205925372
105,10,20,Ticks_Linear_8,213,5,42,127,1205954020
105,10,20,Ticks_Linear_8,214,1,48,52,1206555372
105,10,20,Ticks_Linear_8,215,5,42,127,1206564176
105,10,20,Ticks_Linear_8,216,1,48,72,1207141800
105,10,20,Ticks_Linear_8,217,5,42,127,1207173588
105,10,20,Ticks_Linear_8,218,5,42,127,1207783780
105,10,20,Ticks_Linear_8,219,1,48,52,1207791012
105,10,20,Ticks_Linear_8,220,1,48,56,1208338168
105,10,20,Ticks_Linear_8,221,5,42,127,1208383824
105,10,20,Ticks_Linear_8,222,1,48,67,1208953800
105,10,20,Ticks_Linear_8,223,5,42,127,1208984020
105,10,20,Ticks_Linear_8,224,1,48,47,1209574216
105,10,20,Ticks_Linear_8,225,5,42,127,1209583992
105,10,20,Ticks_Linear_8,226,1,48,67,1210078932
105,10,20,Ticks_Linear_8,227,5,42,127,1210184104
105,10,20,Ticks_Linear_8,228,1,48,71,1210749748
105,10,20,Ticks_Linear_8,229,5,42,127,1210784120
105,10,20,Ticks_Linear_8,230,5,42,127,1211373988
105,10,20,Ticks_Linear_8,231,1,48,64,1211430648
105,10,20,Ticks_Linear_8,232,5,42,127,1211963856
105,10,20,Ticks_Linear_8,233,1,48,68,1211972824
105,10,20,Ticks_Linear_8,234,5,42,127,1212553868
105,10,20,Ticks_Linear_8,235,1,48,63,1212559532
105,10,20,Ticks_Linear_8,236,5,42,127,1213144356
105,10,20,Ticks_Linear_8,237,1,48,58,1213198700
105,10,20,Ticks_Linear_8,238,1,48,63,1213742752
105,10,20,Ticks_Linear_8,239,5,42,127,1213744324
105,10,20,Ticks_Linear_8,240,5,42,127,1214324160
105,10,20,Ticks_Linear_8,241,1,48,57,1214422792
105,10,20,Ticks_Linear_8,242,5,42,127,1214903792
105,10,20,Ticks_Linear_8,243,1,48,61,1214970188
105,10,20,Ticks_Linear_8,244,5,42,127,1215484220
105,10,20,Ticks_Linear_8,245,1,48,71,1215511600
105,10,20,Ticks_Linear_8,246,5,42,127,1216063896
105,10,20,Ticks_Linear_8,247,1,48,60,1216145048
105,10,20,Ticks_Linear_8,248,1,48,65,1216626152
105,10,20,Ticks_Linear_8,249,5,42,127,1216643572
105,10,20,Ticks_Linear_8,250,1,48,65,1217198148
105,10,20,Ticks_Linear_8,251,5,42,127,1217213692
105,10,20,Ticks_Linear_8,252,5,42,127,1217784164
105,10,20,Ticks_Linear_8,253,1,48,61,1217790944
105,10,20,Ticks_Linear_8,254,5,42,127,1218353656
105,10,20,Ticks_Linear_8,255,1,48,65,1218378192
105,10,20,Ticks_Linear_8,256,5,42,127,1218923828
105,10,20,Ticks_Linear_8,257,1,48,56,1218956224
105,10,20,Ticks_Linear_8,258,5,42,127,1219494172
105,10,20,Ticks_Linear_8,259,1,48,62,1219597040
105,10,20,Ticks_Linear_8,260,5,42,127,1220054676
105,10,20,Ticks_Linear_8,261,1,48,52,1220170496
105,10,20,Ticks_Linear_8,262,5,42,127,1220613616
105,10,20,Ticks_Linear_8,263,1,48,59,1220683684
105,10,20,Ticks_Linear_8,264,5,42,127,1221173748
105,10,20,Ticks_Linear_8,265,1,48,54,1221225624
105,10,20,Ticks_Linear_8,266,5,42,127,1221733660
105,10,20,Ticks_Linear_8,267,1,48,55,1221804132
105,10,20,Ticks_Linear_8,268,5,42,127,1222293868
105,10,20,Ticks_Linear_8,269,1,48,57,1222368824
105,10,20,Ticks_Linear_8,270,5,42,127,1222843840
105,10,20,Ticks_Linear_8,271,1,48,51,1222968128
105,10,20,Ticks_Linear_8,272,5,42,127,1223393864
105,10,20,Ticks_Linear_8,273,1,48,53,1223446788
105,10,20,Ticks_Linear_8,274,5,42,127,1223943740
105,10,20,Ticks_Linear_8,275,1,48,51,1223964088
105,10,20,Ticks_Linear_8,276,1,48,49,1224486004
105,10,20,Ticks_Linear_8,277,5,42,127,1224493308
105,10,20,Ticks_Linear_8,278,5,42,127,1225044312
105,10,20,Ticks_Linear_8,279,1,48,53,1225061520
105,10,20,Ticks_Linear_8,280,5,42,127,1225584000
105,10,20,Ticks_Linear_8,281,1,48,56,1225645112
105,10,20,Ticks_Linear_8,282,5,42,127,1226123692
105,10,20,Ticks_Linear_8,283,1,48,58,1226127332
105,10,20,Ticks_Linear_8,284,1,48,24,1226200124
105,10,20,Ticks_Linear_8,285,5,42,127,1226664280
105,10,20,Ticks_Linear_8,286,1,48,49,1226681784
105,10,20,Ticks_Linear_8,287,5,42,127,1227203820
105,10,20,Ticks_Linear_8,288,1,48,42,1227216224
105,10,20,Ticks_Linear_8,289,5,42,127,1227743736
105,10,20,Ticks_Linear_8,290,1,48,40,1227786772
105,10,20,Ticks_Linear_8,291,5,42,127,1228273916
105,10,20,Ticks_Linear_8,292,1,48,37,1228361352
105,10,20,Ticks_Linear_8,293,5,42,127,1228803420
105,10,20,Ticks_Linear_8,294,1,48,46,1228819640
105,10,20,Ticks_Linear_8,295,5,42,127,1229333896
105,10,20,Ticks_Linear_8,296,1,48,34,1229432652
105,10,20,Ticks_Linear_8,297,5,42,127,1229864376
105,10,20,Ticks_Linear_8,298,1,48,39,1229928828
105,10,20,Ticks_Linear_8,299,1,48,44,1230387396
105,10,20,Ticks_Linear_8,300,5,42,127,1230393876
105,10,20,Ticks_Linear_8,301,5,42,127,1230913952
105,10,20,Ticks_Linear_8,302,1,48,49,1230936244
105,10,20,Ticks_Linear_8,303,5,42,127,1231434092
105,10,20,Ticks_Linear_8,304,1,48,55,1231468364
105,10,20,Ticks_Linear_8,305,5,42,127,1231954384
105,10,20,Ticks_Linear_8,306,1,48,50,1232035788
105,10,20,Ticks_Linear_8,307,5,42,127,1232473708
105,10,20,Ticks_Linear_8,308,1,48,34,1232542312
105,10,20,Ticks_Linear_8,309,5,42,127,1232993780
105,10,20,Ticks_Linear_8,310,1,48,52,1233170960
105,10,20,Ticks_Linear_8,311,5,42,127,1233503592
105,10,20,Ticks_Linear_8,312,1,48,48,1233641528
105,10,20,Ticks_Linear_8,313,5,42,127,1234013552
105,10,20,Ticks_Linear_8,314,1,48,48,1234110900
105,10,20,Ticks_Linear_8,315,5,42,127,1234523732
105,10,20,Ticks_Linear_8,316,1,48,53,1234571180
105,10,20,Ticks_Linear_8,317,1,48,52,1235026084
105,10,20,Ticks_Linear_8,318,5,42,127,1235033688
105,10,20,Ticks_Linear_8,319,1,48,46,1235511324
105,10,20,Ticks_Linear_8,320,5,42,127,1235544544
105,10,20,Ticks_Linear_8,321,1,48,48,1236032528
105,10,20,Ticks_Linear_8,322,5,42,127,1236054652
105,10,20,Ticks_Linear_8,323,1,48,48,1236494780
105,10,20,Ticks_Linear_8,324,5,42,127,1236554128
105,10,20,Ticks_Linear_8,325,1,48,48,1237045476
105,10,20,Ticks_Linear_8,326,5,42,127,1237053680
105,10,20,Ticks_Linear_8,327,5,42,127,1237553612
105,10,20,Ticks_Linear_8,328,1,48,52,1237592608
105,10,20,Ticks_Linear_8,329,5,42,127,1238054136
105,10,20,Ticks_Linear_8,330,1,48,51,1238200464
105,10,20,Ticks_Linear_8,331,5,42,127,1238543728
105,10,20,Ticks_Linear_8,332,1,48,50,1238687508
105,10,20,Ticks_Linear_8,333,5,42,127,1239034364
105,10,20,Ticks_Linear_8,334,1,48,42,1239092904
105,10,20,Ticks_Linear_8,335,5,42,127,1239523732
105,10,20,Ticks_Linear_8,336,1,48,42,1239582348
105,10,20,Ticks_Linear_8,337,5,42,127,1240014292
105,10,20,Ticks_Linear_8,338,1,48,40,1240089080
105,10,20,Ticks_Linear_8,339,5,42,127,1240503736
105,10,20,Ticks_Linear_8,0,9999,9999,9999,1129911376
105,10,20,Ticks_Linear_8,1,9999,9999,9999,1130731616
105,10,20,Ticks_Linear_8,2,9999,9999,9999,1131551856
105,10,20,Ticks_Linear_8,3,9999,9999,9999,1132372024
105,10,20,Ticks_Linear_8,4,9999,9999,9999,1133191296
105,10,20,Ticks_Linear_8,5,9999,9999,9999,1134001244
105,10,20,Ticks_Linear_8,6,9999,9999,9999,1134811224
105,10,20,Ticks_Linear_8,7,9999,9999,9999,1135621192
105,10,20,Ticks_Linear_8,8,9999,9999,9999,1136431176
105,10,20,Ticks_Linear_8,9,9999,9999,9999,1137241160
105,10,20,Ticks_Linear_8,10,9999,9999,9999,1138041932
105,10,20,Ticks_Linear_8,11,9999,9999,9999,1138841656
105,10,20,Ticks_Linear_8,12,9999,9999,9999,1139641408
105,10,20,Ticks_Linear_8,13,9999,9999,9999,1140441204
105,10,20,Ticks_Linear_8,14,9999,9999,9999,1141241916
105,10,20,Ticks_Linear_8,15,9999,9999,9999,1142031456
105,10,20,Ticks_Linear_8,16,9999,9999,9999,1142821964
105,10,20,Ticks_Linear_8,17,9999,9999,9999,1143611504
105,10,20,Ticks_Linear_8,18,9999,9999,9999,1144402016
105,10,20,Ticks_Linear_8,19,9999,9999,9999,1145191480
105,10,20,Ticks_Linear_8,20,9999,9999,9999,1145971808
105,10,20,Ticks_Linear_8,21,9999,9999,9999,1146752060
105,10,20,Ticks_Linear_8,22,9999,9999,9999,1147541600
105,10,20,Ticks_Linear_8,23,9999,9999,9999,1148321876
105,10,20,Ticks_Linear_8,24,9999,9999,9999,1149101156
105,10,20,Ticks_Linear_8,25,9999,9999,9999,1149871224
105,10,20,Ticks_Linear_8,26,9999,9999,9999,1150641216
105,10,20,Ticks_Linear_8,27,9999,9999,9999,1151411288
105,10,20,Ticks_Linear_8,28,9999,9999,9999,1152181356
105,10,20,Ticks_Linear_8,29,9999,9999,9999,1152951424
105,10,20,Ticks_Linear_8,30,9999,9999,9999,1153711232
105,10,20,Ticks_Linear_8,31,9999,9999,9999,1154472012
105,10,20,Ticks_Linear_8,32,9999,9999,9999,1155231820
105,10,20,Ticks_Linear_8,33,9999,9999,9999,1155991608
105,10,20,Ticks_Linear_8,34,9999,9999,9999,1156751464
105,10,20,Ticks_Linear_8,35,9999,9999,9999,1157502064
105,10,20,Ticks_Linear_8,36,9999,9999,9999,1158251612
105,10,20,Ticks_Linear_8,37,9999,9999,9999,1159001160
105,10,20,Ticks_Linear_8,38,9999,9999,9999,1159751764
105,10,20,Ticks_Linear_8,39,9999,9999,9999,1160501316
105,10,20,Ticks_Linear_8,40,9999,9999,9999,1161241720
105,10,20,Ticks_Linear_8,41,9999,9999,9999,1161982064
105,10,20,Ticks_Linear_8,42,9999,9999,9999,1162721356
105,10,20,Ticks_Linear_8,43,9999,9999,9999,1163461692
105,10,20,Ticks_Linear_8,44,9999,9999,9999,1164202104
105,10,20,Ticks_Linear_8,45,9999,9999,9999,1164931188
105,10,20,Ticks_Linear_8,46,9999,9999,9999,1165661260
105,10,20,Ticks_Linear_8,47,9999,9999,9999,1166391412
105,10,20,Ticks_Linear_8,48,9999,9999,9999,1167121488
105,10,20,Ticks_Linear_8,49,9999,9999,9999,1167851624
105,10,20,Ticks_Linear_8,50,9999,9999,9999,1168571460
105,10,20,Ticks_Linear_8,51,9999,9999,9999,1169291332
105,10,20,Ticks_Linear_8,52,9999,9999,9999,1170011232
105,10,20,Ticks_Linear_8,53,9999,9999,9999,1170731116
105,10,20,Ticks_Linear_8,54,9999,9999,9999,1171451980
105,10,20,Ticks_Linear_8,55,9999,9999,9999,1172161592
105,10,20,Ticks_Linear_8,56,9999,9999,9999,1172871264
105,10,20,Ticks_Linear_8,57,9999,9999,9999,1173581884
105,10,20,Ticks_Linear_8,58,9999,9999,9999,1174291524
105,10,20,Ticks_Linear_8,59,9999,9999,9999,1175001160
105,10,20,Ticks_Linear_8,60,9999,9999,9999,1175701560
105,10,20,Ticks_Linear_8,61,9999,9999,9999,1176401976
105,10,20,Ticks_Linear_8,62,9999,9999,9999,1177101424
105,10,20,Ticks_Linear_8,63,9999,9999,9999,1177801848
105,10,20,Ticks_Linear_8,64,9999,9999,9999,1178501184
105,10,20,Ticks_Linear_8,65,9999,9999,9999,1179191364
105,10,20,Ticks_Linear_8,66,9999,9999,9999,1179881528
105,10,20,Ticks_Linear_8,67,9999,9999,9999,1180571764
105,10,20,Ticks_Linear_8,68,9999,9999,9999,1181261908
105,10,20,Ticks_Linear_8,69,9999,9999,9999,1181952064
105,10,20,Ticks_Linear_8,70,9999,9999,9999,1182641260
105,10,20,Ticks_Linear_8,71,9999,9999,9999,1183321212
105,10,20,Ticks_Linear_8,72,9999,9999,9999,1184001116
105,10,20,Ticks_Linear_8,73,9999,9999,9999,1184682112
105,10,20,Ticks_Linear_8,74,9999,9999,9999,1185361988
105,10,20,Ticks_Linear_8,75,9999,9999,9999,1186031716
105,10,20,Ticks_Linear_8,76,9999,9999,9999,1186701412
105,10,20,Ticks_Linear_8,77,9999,9999,9999,1187371124
105,10,20,Ticks_Linear_8,78,9999,9999,9999,1188041816
105,10,20,Ticks_Linear_8,79,9999,9999,9999,1188711512
105,10,20,Ticks_Linear_8,80,9999,9999,9999,1189372020
105,10,20,Ticks_Linear_8,81,9999,9999,9999,1190031456
105,10,20,Ticks_Linear_8,82,9999,9999,9999,1190691964
105,10,20,Ticks_Linear_8,83,9999,9999,9999,1191351424
105,10,20,Ticks_Linear_8,84,9999,9999,9999,1192011832
105,10,20,Ticks_Linear_8,85,9999,9999,9999,1192662080
105,10,20,Ticks_Linear_8,86,9999,9999,9999,1193321588
105,10,20,Ticks_Linear_8,87,9999,9999,9999,1193971836
105,10,20,Ticks_Linear_8,88,9999,9999,9999,1194622060
105,10,20,Ticks_Linear_8,89,9999,9999,9999,1195271260
105,10,20,Ticks_Linear_8,90,9999,9999,9999,1195911224
105,10,20,Ticks_Linear_8,91,9999,9999,9999,1196551288
105,10,20,Ticks_Linear_8,92,9999,9999,9999,1197191252
105,10,20,Ticks_Linear_8,93,9999,9999,9999,1197831228
105,10,20,Ticks_Linear_8,94,9999,9999,9999,1198471280
105,10,20,Ticks_Linear_8,95,9999,9999,9999,1199102064
105,10,20,Ticks_Linear_8,96,9999,9999,9999,1199731768
105,10,20,Ticks_Linear_8,97,9999,9999,9999,1200361572
105,10,20,Ticks_Linear_8,98,9999,9999,9999,1200991352
105,10,20,Ticks_Linear_8,99,9999,9999,9999,1201622120
105,10,20,Ticks_Linear_8,100,9999,9999,9999,1202251900
105,10,20,Ticks_Linear_8,101,9999,9999,9999,1202871372
105,10,20,Ticks_Linear_8,102,9999,9999,9999,1203491940
105,10,20,Ticks_Linear_8,103,9999,9999,9999,1204111456
105,10,20,Ticks_Linear_8,104,9999,9999,9999,1204731972
105,10,20,Ticks_Linear_8,105,9999,9999,9999,1205341312
105,10,20,Ticks_Linear_8,106,9999,9999,9999,1205951572
105,10,20,Ticks_Linear_8,107,9999,9999,9999,1206561880
105,10,20,Ticks_Linear_8,108,9999,9999,9999,1207171140
105,10,20,Ticks_Linear_8,109,9999,9999,9999,1207781480
105,10,20,Ticks_Linear_8,110,9999,9999,9999,1208381524
105,10,20,Ticks_Linear_8,111,9999,9999,9999,1208981572
105,10,20,Ticks_Linear_8,112,9999,9999,9999,1209581620
105,10,20,Ticks_Linear_8,113,9999,9999,9999,1210181732
105,10,20,Ticks_Linear_8,114,9999,9999,9999,1210781820
105,10,20,Ticks_Linear_8,115,9999,9999,9999,1211371616
105,10,20,Ticks_Linear_8,116,9999,9999,9999,1211961408
105,10,20,Ticks_Linear_8,117,9999,9999,9999,1212551272
105,10,20,Ticks_Linear_8,118,9999,9999,9999,1213142132
105,10,20,Ticks_Linear_8,119,9999,9999,9999,1213741132
105,10,20,Ticks_Linear_8,120,9999,9999,9999,1214321788
105,10,20,Ticks_Linear_8,121,9999,9999,9999,1214901344
105,10,20,Ticks_Linear_8,122,9999,9999,9999,1215481920
105,10,20,Ticks_Linear_8,123,9999,9999,9999,1216061524
105,10,20,Ticks_Linear_8,124,9999,9999,9999,1216641124
105,10,20,Ticks_Linear_8,125,9999,9999,9999,1217211468
105,10,20,Ticks_Linear_8,126,9999,9999,9999,1217781864
105,10,20,Ticks_Linear_8,127,9999,9999,9999,1218351208
105,10,20,Ticks_Linear_8,128,9999,9999,9999,1218921528
105,10,20,Ticks_Linear_8,129,9999,9999,9999,1219491948
105,10,20,Ticks_Linear_8,130,9999,9999,9999,1220052080
105,10,20,Ticks_Linear_8,131,9999,9999,9999,1220611168
105,10,20,Ticks_Linear_8,132,9999,9999,9999,1221171300
105,10,20,Ticks_Linear_8,133,9999,9999,9999,1221731432
105,10,20,Ticks_Linear_8,134,9999,9999,9999,1222291568
105,10,20,Ticks_Linear_8,135,9999,9999,9999,1222841468
105,10,20,Ticks_Linear_8,136,9999,9999,9999,1223391344
105,10,20,Ticks_Linear_8,137,9999,9999,9999,1223941216
105,10,20,Ticks_Linear_8,138,9999,9999,9999,1224491084
105,10,20,Ticks_Linear_8,139,9999,9999,9999,1225042012
105,10,20,Ticks_Linear_8,140,9999,9999,9999,1225581628
105,10,20,Ticks_Linear_8,141,9999,9999,9999,1226121316
105,10,20,Ticks_Linear_8,142,9999,9999,9999,1226661984
105,10,20,Ticks_Linear_8,143,9999,9999,9999,1227201596
105,10,20,Ticks_Linear_8,144,9999,9999,9999,1227741288
105,10,20,Ticks_Linear_8,145,9999,9999,9999,1228271692
105,10,20,Ticks_Linear_8,146,9999,9999,9999,1228801120
105,10,20,Ticks_Linear_8,147,9999,9999,9999,1229331524
105,10,20,Ticks_Linear_8,148,9999,9999,9999,1229862000
105,10,20,Ticks_Linear_8,149,9999,9999,9999,1230391352
105,10,20,Ticks_Linear_8,150,9999,9999,9999,1230911576
105,10,20,Ticks_Linear_8,151,9999,9999,9999,1231431796
105,10,20,Ticks_Linear_8,152,9999,9999,9999,1231951940
105,10,20,Ticks_Linear_8,153,9999,9999,9999,1232471112
105,10,20,Ticks_Linear_8,154,9999,9999,9999,1232991332
105,10,20,Ticks_Linear_8,155,9999,9999,9999,1233501292
105,10,20,Ticks_Linear_8,156,9999,9999,9999,1234011252
105,10,20,Ticks_Linear_8,157,9999,9999,9999,1234521212
105,10,20,Ticks_Linear_8,158,9999,9999,9999,1235031164
105,10,20,Ticks_Linear_8,159,9999,9999,9999,1235542096
105,10,20,Ticks_Linear_8,160,9999,9999,9999,1236052056
105,10,20,Ticks_Linear_8,161,9999,9999,9999,1236551756
105,10,20,Ticks_Linear_8,162,9999,9999,9999,1237051456
105,10,20,Ticks_Linear_8,163,9999,9999,9999,1237551164
105,10,20,Ticks_Linear_8,164,9999,9999,9999,1238051912
105,10,20,Ticks_Linear_8,165,9999,9999,9999,1238541428
105,10,20,Ticks_Linear_8,166,9999,9999,9999,1239031916
105,10,20,Ticks_Linear_8,167,9999,9999,9999,1239521360
105,10,20,Ticks_Linear_8,168,9999,9999,9999,1240011844
105,10,20,Ticks_Linear_8,169,9999,9999,9999,1240501360
105,11,25,Jits_Pract_5,0,5,56,103,1285408212
105,11,25,Jits_Pract_5,1,5,63,98,1285411232
105,11,25,Jits_Pract_5,2,5,80,127,1285414432
105,11,25,Jits_Pract_5,0,5,56,103,1285907936
105,11,25,Jits_Pract_5,1,5,63,98,1285910960
105,11,25,Jits_Pract_5,2,5,80,127,1285914084
105,11,25,Jits_Pract_5,0,5,56,103,1286407528
105,11,25,Jits_Pract_5,1,5,80,127,1286417652
105,11,25,Jits_Pract_5,2,5,63,98,1286438184
105,11,25,Jits_Pract_5,0,5,63,98,1286868312
105,11,25,Jits_Pract_5,1,5,80,127,1286898136
105,11,25,Jits_Pract_5,2,5,56,103,1286908184
105,11,25,Jits_Pract_5,0,5,80,127,1287427452
105,11,25,Jits_Pract_5,1,5,56,103,1287437796
105,11,25,Jits_Pract_5,2,5,63,98,1287468444
105,11,25,Jits_Pract_5,0,5,63,98,1287918132
105,11,25,Jits_Pract_5,1,5,56,103,1287947584
105,11,25,Jits_Pract_5,2,5,80,127,1287958004
105,11,25,Jits_Pract_5,0,5,56,103,1288367368
105,11,25,Jits_Pract_5,1,5,63,98,1288417572
105,11,25,Jits_Pract_5,2,5,80,127,1288438252
105,11,25,Jits_Pract_5,0,5,80,127,1288868300
105,11,25,Jits_Pract_5,1,5,63,98,1288918360
105,11,25,Jits_Pract_5,2,5,56,103,1288958296
105,11,25,Jits_Pract_5,0,5,56,103,1289368344
105,11,25,Jits_Pract_5,1,5,63,98,1289397724
105,11,25,Jits_Pract_5,2,5,80,127,1289468152
105,11,25,Jits_Pract_5,0,5,56,103,1289867692
105,11,25,Jits_Pract_5,1,5,80,127,1289928260
105,11,25,Jits_Pract_5,2,5,63,98,1289957640
105,11,25,Jits_Pract_5,0,5,56,103,1290377552
105,11,25,Jits_Pract_5,1,5,63,98,1290387900
105,11,25,Jits_Pract_5,2,5,80,127,1290427688
105,11,25,Jits_Pract_5,0,5,63,98,1290868200
105,11,25,Jits_Pract_5,1,5,80,127,1290948096
105,11,25,Jits_Pract_5,2,5,56,103,1290958144
105,11,25,Jits_Pract_5,0,5,63,98,1291418004
105,11,25,Jits_Pract_5,1,5,56,103,1291457940
105,11,25,Jits_Pract_5,2,5,80,127,1291460932
105,11,25,Jits_Pract_5,0,5,56,103,1291877688
105,11,25,Jits_Pract_5,1,5,63,98,1291888108
105,11,25,Jits_Pract_5,2,5,80,127,1291928068
105,11,25,Jits_Pract_5,0,5,56,103,1292368212
105,11,25,Jits_Pract_5,1,5,63,98,1292371276
105,11,25,Jits_Pract_5,2,5,80,127,1292387696
105,11,25,Jits_Pract_5,0,9999,9999,9999,1285655648
105,11,25,Jits_Pract_5,1,9999,9999,9999,1286155372
105,11,25,Jits_Pract_5,2,9999,9999,9999,1286656092
105,11,25,Jits_Pract_5,3,9999,9999,9999,1287166016
105,11,25,Jits_Pract_5,4,9999,9999,9999,1287665752
105,11,25,Jits_Pract_5,5,9999,9999,9999,1288165496
105,11,25,Jits_Pract_5,6,9999,9999,9999,1288665152
105,11,25,Jits_Pract_5,7,9999,9999,9999,1289165940
105,11,25,Jits_Pract_5,8,9999,9999,9999,1289665608
105,11,25,Jits_Pract_5,9,9999,9999,9999,1290165356
105,11,25,Jits_Pract_5,10,9999,9999,9999,1290666044
105,11,25,Jits_Pract_5,11,9999,9999,9999,1291165788
105,11,25,Jits_Pract_5,12,9999,9999,9999,1291665488
105,11,25,Jits_Pract_5,13,9999,9999,9999,1292165204
105,11,25,Jits_Pract_5,14,9999,9999,9999,1292665908
105,12,25,Jits_Pract_5,0,5,56,103,1348781520
105,12,25,Jits_Pract_5,1,5,63,98,1348784468
105,12,25,Jits_Pract_5,2,5,80,127,1348787592
105,12,25,Jits_Pract_5,0,5,56,103,1349281244
105,12,25,Jits_Pract_5,1,5,63,98,1349284268
105,12,25,Jits_Pract_5,2,5,80,127,1349287392
105,12,25,Jits_Pract_5,0,5,56,103,1349780984
105,12,25,Jits_Pract_5,1,5,80,127,1349791256
105,12,25,Jits_Pract_5,2,5,63,98,1349810520
105,12,25,Jits_Pract_5,0,5,63,98,1350231548
105,12,25,Jits_Pract_5,1,5,80,127,1350261076
105,12,25,Jits_Pract_5,2,5,56,103,1350271420
105,12,25,Jits_Pract_5,0,5,80,127,1350790612
105,12,25,Jits_Pract_5,1,5,56,103,1350800884
105,12,25,Jits_Pract_5,2,5,63,98,1350830508
105,12,25,Jits_Pract_5,0,5,63,98,1351280920
105,12,25,Jits_Pract_5,1,5,56,103,1351310596
105,12,25,Jits_Pract_5,2,5,80,127,1351320816
105,12,25,Jits_Pract_5,3,1,48,57,1351354272
105,12,25,Jits_Pract_5,0,5,56,103,1351730640
105,12,25,Jits_Pract_5,1,5,63,98,1351780844
105,12,25,Jits_Pract_5,2,5,80,127,1351801600
105,12,25,Jits_Pract_5,3,1,48,48,1351819340
105,12,25,Jits_Pract_5,0,5,80,127,1352231464
105,12,25,Jits_Pract_5,1,5,63,98,1352280620
105,12,25,Jits_Pract_5,2,1,48,46,1352305764
105,12,25,Jits_Pract_5,3,5,56,103,1352321600
105,12,25,Jits_Pract_5,0,5,56,103,1352730872
105,12,25,Jits_Pract_5,1,5,63,98,1352760624
105,12,25,Jits_Pract_5,2,1,48,41,1352772284
105,12,25,Jits_Pract_5,3,5,80,127,1352831416
105,12,25,Jits_Pract_5,0,5,56,103,1353230724
105,12,25,Jits_Pract_5,1,1,48,48,1353257884
105,12,25,Jits_Pract_5,2,5,80,127,1353291260
105,12,25,Jits_Pract_5,3,5,63,98,1353320784
105,12,25,Jits_Pract_5,0,1,48,44,1353695176
105,12,25,Jits_Pract_5,1,5,56,103,1353740616
105,12,25,Jits_Pract_5,2,5,63,98,1353751032
105,12,25,Jits_Pract_5,3,5,80,127,1353790820
105,12,25,Jits_Pract_5,0,1,48,43,1354203488
105,12,25,Jits_Pract_5,1,5,63,98,1354231012
105,12,25,Jits_Pract_5,2,5,80,127,1354311092
105,12,25,Jits_Pract_5,3,5,56,103,1354321512
105,12,25,Jits_Pract_5,0,1,48,43,1354739228
105,12,25,Jits_Pract_5,1,5,63,98,1354781204
105,12,25,Jits_Pract_5,2,5,56,103,1354821068
105,12,25,Jits_Pract_5,3,5,80,127,1354824136
105,12,25,Jits_Pract_5,0,5,56,103,1355240888
105,12,25,Jits_Pract_5,1,1,48,47,1355241928
105,12,25,Jits_Pract_5,2,5,63,98,1355251300
105,12,25,Jits_Pract_5,3,5,80,127,1355291016
105,12,25,Jits_Pract_5,0,5,56,103,1355731444
105,12,25,Jits_Pract_5,1,5,63,98,1355734364
105,12,25,Jits_Pract_5,2,5,80,127,1355750708
105,12,25,Jits_Pract_5,3,1,48,50,1355757416
105,12,25,Jits_Pract_5,0,9999,9999,9999,1349028956
105,12,25,Jits_Pract_5,1,9999,9999,9999,1349528680
105,12,25,Jits_Pract_5,2,9999,9999,9999,1350028404
105,12,25,Jits_Pract_5,3,9999,9999,9999,1350528060
105,12,25,Jits_Pract_5,4,9999,9999,9999,1351028840
105,12,25,Jits_Pract_5,5,9999,9999,9999,1351528568
105,12,25,Jits_Pract_5,6,9999,9999,9999,1352028256
105,12,25,Jits_Pract_5,7,9999,9999,9999,1352529008
105,12,25,Jits_Pract_5,8,9999,9999,9999,1353028708
105,12,25,Jits_Pract_5,9,9999,9999,9999,1353528416
105,12,25,Jits_Pract_5,10,9999,9999,9999,1354028120
105,12,25,Jits_Pract_5,11,9999,9999,9999,1354528864
105,12,25,Jits_Pract_5,12,9999,9999,9999,1355028548
105,12,25,Jits_Pract_5,13,9999,9999,9999,1355528312
105,12,25,Jits_Pract_5,14,9999,9999,9999,1356029048
105,13,24,Jits_Pract_8,0,5,56,103,1366373784
105,13,24,Jits_Pract_8,1,5,63,98,1366376804
105,13,24,Jits_Pract_8,2,5,80,127,1366380000
105,13,24,Jits_Pract_8,0,5,56,103,1367173424
105,13,24,Jits_Pract_8,1,5,63,98,1367176444
105,13,24,Jits_Pract_8,2,5,80,127,1367179644
105,13,24,Jits_Pract_8,0,5,80,127,1367913740
105,13,24,Jits_Pract_8,1,5,63,98,1368003900
105,13,24,Jits_Pract_8,2,5,56,103,1368014172
105,13,24,Jits_Pract_8,0,5,56,103,1368734324
105,13,24,Jits_Pract_8,1,5,63,98,1368744448
105,13,24,Jits_Pract_8,2,5,80,127,1368834504
105,13,24,Jits_Pract_8,3,1,48,37,1368959576
105,13,24,Jits_Pract_8,0,5,63,98,1369504200
105,13,24,Jits_Pract_8,1,5,80,127,1369533804
105,13,24,Jits_Pract_8,2,5,56,103,1369563628
105,13,24,Jits_Pract_8,3,1,48,43,1369571624
105,13,24,Jits_Pract_8,0,1,48,41,1370275372
105,13,24,Jits_Pract_8,1,5,56,103,1370303796
105,13,24,Jits_Pract_8,2,5,80,127,1370404404
105,13,24,Jits_Pract_8,3,5,63,98,1370454304
105,13,24,Jits_Pract_8,0,1,48,40,1371091900
105,13,24,Jits_Pract_8,1,5,56,103,1371103556
105,13,24,Jits_Pract_8,2,5,80,127,1371153832
105,13,24,Jits_Pract_8,3,5,63,98,1371193604
105,13,24,Jits_Pract_8,0,1,48,43,1371913252
105,13,24,Jits_Pract_8,1,5,80,127,1371934176
105,13,24,Jits_Pract_8,2,5,63,98,1371963776
105,13,24,Jits_Pract_8,3,5,56,103,1372034560
105,13,24,Jits_Pract_8,0,5,63,98,1372763460
105,13,24,Jits_Pract_8,1,1,48,43,1372786056
105,13,24,Jits_Pract_8,2,5,56,103,1372794472
105,13,24,Jits_Pract_8,3,5,80,127,1372853468
105,13,24,Jits_Pract_8,0,1,48,39,1373484668
105,13,24,Jits_Pract_8,1,5,56,103,1373503948
105,13,24,Jits_Pract_8,2,5,80,127,1373506792
105,13,24,Jits_Pract_8,3,5,63,98,1373623532
105,13,24,Jits_Pract_8,0,1,48,22,1374146704
105,13,24,Jits_Pract_8,1,5,56,103,1374383496
105,13,24,Jits_Pract_8,2,5,80,127,1374424556
105,13,24,Jits_Pract_8,3,5,63,98,1374433704
105,13,24,Jits_Pract_8,0,1,48,47,1374913056
105,13,24,Jits_Pract_8,1,5,56,103,1375144296
105,13,24,Jits_Pract_8,2,5,80,127,1375163712
105,13,24,Jits_Pract_8,3,5,63,98,1375243576
105,13,24,Jits_Pract_8,0,1,48,46,1375811172
105,13,24,Jits_Pract_8,1,5,80,127,1375933792
105,13,24,Jits_Pract_8,2,5,56,103,1376034116
105,13,24,Jits_Pract_8,3,5,63,98,1376044460
105,13,24,Jits_Pract_8,0,5,63,98,1376703980
105,13,24,Jits_Pract_8,1,5,80,127,1376764224
105,13,24,Jits_Pract_8,2,5,56,103,1376773372
105,13,24,Jits_Pract_8,3,1,48,47,1376902424
105,13,24,Jits_Pract_8,0,5,56,103,1377503656
105,13,24,Jits_Pract_8,1,1,48,45,1377566188
105,13,24,Jits_Pract_8,2,5,63,98,1377574228
105,13,24,Jits_Pract_8,3,5,80,127,1377577368
105,13,24,Jits_Pract_8,0,9999,9999,9999,1366771816
105,13,24,Jits_Pract_8,1,9999,9999,9999,1367571532
105,13,24,Jits_Pract_8,2,9999,9999,9999,1368371264
105,13,24,Jits_Pract_8,3,9999,9999,9999,1369172024
105,13,24,Jits_Pract_8,4,9999,9999,9999,1369971788
105,13,24,Jits_Pract_8,5,9999,9999,9999,1370771568
105,13,24,Jits_Pract_8,6,9999,9999,9999,1371571324
105,13,24,Jits_Pract_8,7,9999,9999,9999,1372372052
105,13,24,Jits_Pract_8,8,9999,9999,9999,1373171816
105,13,24,Jits_Pract_8,9,9999,9999,9999,1373971560
105,13,24,Jits_Pract_8,10,9999,9999,9999,1374771320
105,13,24,Jits_Pract_8,11,9999,9999,9999,1375572052
105,13,24,Jits_Pract_8,12,9999,9999,9999,1376371812
105,13,24,Jits_Pract_8,13,9999,9999,9999,1377171516
105,13,24,Jits_Pract_8,14,9999,9999,9999,1377971260
105,14,16,Jits_ISO_5,0,5,56,103,1406893420
105,14,16,Jits_ISO_5,1,5,63,98,1406896368
105,14,16,Jits_ISO_5,2,5,80,127,1406899488
105,14,16,Jits_ISO_5,0,5,56,103,1407394112
105,14,16,Jits_ISO_5,1,5,63,98,1407397208
105,14,16,Jits_ISO_5,2,5,80,127,1407400404
105,14,16,Jits_ISO_5,0,5,56,103,1407893996
105,14,16,Jits_ISO_5,1,5,80,127,1407904120
105,14,16,Jits_ISO_5,2,5,63,98,1407923680
105,14,16,Jits_ISO_5,0,5,63,98,1408344484
105,14,16,Jits_ISO_5,1,5,80,127,1408374012
105,14,16,Jits_ISO_5,2,5,56,103,1408384356
105,14,16,Jits_ISO_5,0,5,80,127,1408903468
105,14,16,Jits_ISO_5,1,1,48,46,1408907108
105,14,16,Jits_ISO_5,2,5,56,103,1408914052
105,14,16,Jits_ISO_5,3,5,63,98,1408943428
105,14,16,Jits_ISO_5,0,5,63,98,1409393932
105,14,16,Jits_ISO_5,1,5,56,103,1409423752
105,14,16,Jits_ISO_5,2,5,80,127,1409433824
105,14,16,Jits_ISO_5,3,1,48,50,1409444964
105,14,16,Jits_ISO_5,0,5,56,103,1409843916
105,14,16,Jits_ISO_5,1,1,48,49,1409893072
105,14,16,Jits_ISO_5,2,5,63,98,1409894636
105,14,16,Jits_ISO_5,3,5,80,127,1409914124
105,14,16,Jits_ISO_5,0,5,80,127,1410344184
105,14,16,Jits_ISO_5,1,1,48,51,1410355096
105,14,16,Jits_ISO_5,2,5,63,98,1410393556
105,14,16,Jits_ISO_5,3,5,56,103,1410434392
105,14,16,Jits_ISO_5,0,5,56,103,1410844008
105,14,16,Jits_ISO_5,1,5,63,98,1410873908
105,14,16,Jits_ISO_5,2,1,48,50,1410896056
105,14,16,Jits_ISO_5,3,5,80,127,1410944328
105,14,16,Jits_ISO_5,0,5,56,103,1411343976
105,14,16,Jits_ISO_5,1,5,80,127,1411404292
105,14,16,Jits_ISO_5,2,1,48,54,1411429880
105,14,16,Jits_ISO_5,3,5,63,98,1411433812
105,14,16,Jits_ISO_5,0,5,56,103,1411853840
105,14,16,Jits_ISO_5,1,5,63,98,1411863960
105,14,16,Jits_ISO_5,2,1,48,52,1411893228
105,14,16,Jits_ISO_5,3,5,80,127,1411903892
105,14,16,Jits_ISO_5,0,5,63,98,1412344072
105,14,16,Jits_ISO_5,1,1,48,45,1412372892
105,14,16,Jits_ISO_5,2,5,80,127,1412424156
105,14,16,Jits_ISO_5,3,5,56,103,1412434500
105,14,16,Jits_ISO_5,0,1,48,54,1412885128
105,14,16,Jits_ISO_5,1,5,63,98,1412893920
105,14,16,Jits_ISO_5,2,5,56,103,1412933928
105,14,16,Jits_ISO_5,3,5,80,127,1412937144
105,14,16,Jits_ISO_5,0,5,56,103,1413354020
105,14,16,Jits_ISO_5,1,5,63,98,1413364216
105,14,16,Jits_ISO_5,2,5,80,127,1413404076
105,14,16,Jits_ISO_5,3,1,48,52,1413410336
105,14,16,Jits_ISO_5,0,5,56,103,1413844320
105,14,16,Jits_ISO_5,1,5,63,98,1413847464
105,14,16,Jits_ISO_5,2,5,80,127,1413864032
105,14,16,Jits_ISO_5,3,1,48,53,1413875616
105,14,16,Jits_ISO_5,0,1,48,54,1414349784
105,14,16,Jits_ISO_5,1,5,80,127,1414354240
105,14,16,Jits_ISO_5,2,5,56,103,1414363536
105,14,16,Jits_ISO_5,3,5,63,98,1414434040
105,14,16,Jits_ISO_5,0,5,63,98,1414843864
105,14,16,Jits_ISO_5,1,1,48,46,1414849300
105,14,16,Jits_ISO_5,2,5,56,103,1414864240
105,14,16,Jits_ISO_5,3,5,80,127,1414944032
105,14,16,Jits_ISO_5,0,1,48,54,1415341844
105,14,16,Jits_ISO_5,1,5,56,103,1415354000
105,14,16,Jits_ISO_5,2,5,80,127,1415393716
105,14,16,Jits_ISO_5,3,5,63,98,1415403836
105,14,16,Jits_ISO_5,0,1,48,47,1415799432
105,14,16,Jits_ISO_5,1,5,80,127,1415844144
105,14,16,Jits_ISO_5,2,5,63,98,1415873892
105,14,16,Jits_ISO_5,3,5,56,103,1415914040
105,14,16,Jits_ISO_5,0,1,48,55,1416298416
105,14,16,Jits_ISO_5,1,5,56,103,1416364476
105,14,16,Jits_ISO_5,2,5,63,98,1416394212
105,14,16,Jits_ISO_5,3,5,80,127,1416444260
105,14,16,Jits_ISO_5,0,1,48,53,1416845876
105,14,16,Jits_ISO_5,1,5,80,127,1416864060
105,14,16,Jits_ISO_5,2,5,56,103,1416903924
105,14,16,Jits_ISO_5,3,5,63,98,1416914268
105,14,16,Jits_ISO_5,0,5,80,127,1417344372
105,14,16,Jits_ISO_5,1,1,48,55,1417377480
105,14,16,Jits_ISO_5,2,5,63,98,1417384180
105,14,16,Jits_ISO_5,3,5,56,103,1417443892
105,14,16,Jits_ISO_5,0,5,56,103,1417844116
105,14,16,Jits_ISO_5,1,5,80,127,1417854384
105,14,16,Jits_ISO_5,2,1,48,52,1417893200
105,14,16,Jits_ISO_5,3,5,63,98,1417934120
105,14,16,Jits_ISO_5,0,5,80,127,1418343788
105,14,16,Jits_ISO_5,1,1,48,49,1418357540
105,14,16,Jits_ISO_5,2,5,63,98,1418404192
105,14,16,Jits_ISO_5,3,5,56,103,1418434092
105,14,16,Jits_ISO_5,0,5,56,103,1418843608
105,14,16,Jits_ISO_5,1,1,48,47,1418889276
105,14,16,Jits_ISO_5,2,5,80,127,1418903868
105,14,16,Jits_ISO_5,3,5,63,98,1418943800
105,14,16,Jits_ISO_5,0,1,48,57,1419376208
105,14,16,Jits_ISO_5,1,5,56,103,1419394292
105,14,16,Jits_ISO_5,2,5,63,98,1419403812
105,14,16,Jits_ISO_5,3,5,80,127,1419407176
105,14,16,Jits_ISO_5,0,5,80,127,1419844052
105,14,16,Jits_ISO_5,1,1,48,54,1419882240
105,14,16,Jits_ISO_5,2,5,63,98,1419934052
105,14,16,Jits_ISO_5,3,5,56,103,1419944396
105,14,16,Jits_ISO_5,0,5,56,103,1420343784
105,14,16,Jits_ISO_5,1,5,63,98,1420346960
105,14,16,Jits_ISO_5,2,5,80,127,1420350076
105,14,16,Jits_ISO_5,3,1,48,59,1420392316
105,14,16,Jits_ISO_5,0,5,80,127,1420863976
105,14,16,Jits_ISO_5,1,1,48,54,1420883728
105,14,16,Jits_ISO_5,2,5,63,98,1420913948
105,14,16,Jits_ISO_5,3,5,56,103,1420943844
105,14,16,Jits_ISO_5,0,5,56,103,1421354408
105,14,16,Jits_ISO_5,1,5,80,127,1421363856
105,14,16,Jits_ISO_5,2,1,48,55,1421392824
105,14,16,Jits_ISO_5,3,5,63,98,1421434276
105,14,16,Jits_ISO_5,0,1,48,52,1421858308
105,14,16,Jits_ISO_5,1,5,56,103,1421864184
105,14,16,Jits_ISO_5,2,5,63,98,1421883748
105,14,16,Jits_ISO_5,3,5,80,127,1421944208
105,14,16,Jits_ISO_5,0,1,48,51,1422347928
105,14,16,Jits_ISO_5,1,5,80,127,1422353876
105,14,16,Jits_ISO_5,2,5,63,98,1422424456
105,14,16,Jits_ISO_5,3,5,56,103,1422444372
105,14,16,Jits_ISO_5,0,1,48,61,1422869540
105,14,16,Jits_ISO_5,1,5,80,127,1422873916
105,14,16,Jits_ISO_5,2,5,56,103,1422884336
105,14,16,Jits_ISO_5,3,5,63,98,1422893336
105,14,16,Jits_ISO_5,0,5,80,127,1423363760
105,14,16,Jits_ISO_5,1,1,48,56,1423369424
105,14,16,Jits_ISO_5,2,5,56,103,1423383840
105,14,16,Jits_ISO_5,3,5,63,98,1423453520
105,14,16,Jits_ISO_5,0,5,56,103,1423874372
105,14,16,Jits_ISO_5,1,1,48,55,1423893008
105,14,16,Jits_ISO_5,2,5,80,127,1423904044
105,14,16,Jits_ISO_5,3,5,63,98,1423923824
105,14,16,Jits_ISO_5,0,5,63,98,1424363932
105,14,16,Jits_ISO_5,1,1,48,56,1424406684
105,14,16,Jits_ISO_5,2,5,56,103,1424424240
105,14,16,Jits_ISO_5,3,5,80,127,1424453988
105,14,16,Jits_ISO_5,0,5,63,98,1424854448
105,14,16,Jits_ISO_5,1,5,80,127,1424857884
105,14,16,Jits_ISO_5,2,1,48,54,1424873152
105,14,16,Jits_ISO_5,3,5,56,103,1424943524
105,14,16,Jits_ISO_5,0,5,56,103,1425383840
105,14,16,Jits_ISO_5,1,1,48,54,1425384808
105,14,16,Jits_ISO_5,2,5,63,98,1425413364
105,14,16,Jits_ISO_5,3,5,80,127,1425453300
105,14,16,Jits_ISO_5,0,5,63,98,1425883520
105,14,16,Jits_ISO_5,1,5,56,103,1425923532
105,14,16,Jits_ISO_5,2,1,48,40,1425926124
105,14,16,Jits_ISO_5,3,5,80,127,1425943908
105,14,16,Jits_ISO_5,0,1,48,44,1426383816
105,14,16,Jits_ISO_5,1,5,63,98,1426393360
105,14,16,Jits_ISO_5,2,5,56,103,1426434492
105,14,16,Jits_ISO_5,3,5,80,127,1426443940
105,14,16,Jits_ISO_5,0,5,80,127,1426873996
105,14,16,Jits_ISO_5,1,1,48,60,1426914504
105,14,16,Jits_ISO_5,2,5,63,98,1426944268
105,14,16,Jits_ISO_5,3,5,56,103,1426963752
105,14,16,Jits_ISO_5,0,1,48,54,1427345016
105,14,16,Jits_ISO_5,1,5,56,103,1427364148
105,14,16,Jits_ISO_5,2,5,80,127,1427383860
105,14,16,Jits_ISO_5,3,5,63,98,1427423720
105,14,16,Jits_ISO_5,0,1,48,57,1427857856
105,14,16,Jits_ISO_5,1,5,63,98,1427874216
105,14,16,Jits_ISO_5,2,5,80,127,1427893628
105,14,16,Jits_ISO_5,3,5,56,103,1427933492
105,14,16,Jits_ISO_5,0,1,48,60,1428358608
105,14,16,Jits_ISO_5,1,5,63,98,1428373948
105,14,16,Jits_ISO_5,2,5,56,103,1428394332
105,14,16,Jits_ISO_5,3,5,80,127,1428403632
105,14,16,Jits_ISO_5,0,5,80,127,1428873808
105,14,16,Jits_ISO_5,1,5,56,103,1428893996
105,14,16,Jits_ISO_5,2,1,48,60,1428903188
105,14,16,Jits_ISO_5,3,5,63,98,1428923736
105,14,16,Jits_ISO_5,0,1,48,58,1429375692
105,14,16,Jits_ISO_5,1,5,56,103,1429443920
105,14,16,Jits_ISO_5,2,5,80,127,1429447060
105,14,16,Jits_ISO_5,3,5,63,98,1429464452
105,14,16,Jits_ISO_5,0,5,63,98,1429863768
105,14,16,Jits_ISO_5,1,5,56,103,1429893596
105,14,16,Jits_ISO_5,2,1,48,67,1429925132
105,14,16,Jits_ISO_5,3,5,80,127,1429954000
105,14,16,Jits_ISO_5,0,1,48,75,1430374484
105,14,16,Jits_ISO_5,1,5,63,98,1430444284
105,14,16,Jits_ISO_5,2,5,56,103,1430453876
105,14,16,Jits_ISO_5,3,5,80,127,1430464000
105,14,16,Jits_ISO_5,0,5,56,103,1430893956
105,14,16,Jits_ISO_5,1,5,80,127,1430923560
105,14,16,Jits_ISO_5,2,5,63,98,1430933852
105,14,16,Jits_ISO_5,3,1,48,63,1430935188
105,14,16,Jits_ISO_5,0,1,48,63,1431413528
105,14,16,Jits_ISO_5,1,5,63,98,1431433856
105,14,16,Jits_ISO_5,2,5,56,103,1431443928
105,14,16,Jits_ISO_5,3,5,80,127,1431464236
105,14,16,Jits_ISO_5,0,5,56,103,1431863776
105,14,16,Jits_ISO_5,1,5,63,98,1431923936
105,14,16,Jits_ISO_5,2,1,48,47,1431925976
105,14,16,Jits_ISO_5,3,5,80,127,1431928644
105,14,16,Jits_ISO_5,0,5,80,127,1432383820
105,14,16,Jits_ISO_5,1,5,56,103,1432394016
105,14,16,Jits_ISO_5,2,1,48,60,1432420580
105,14,16,Jits_ISO_5,3,5,63,98,1432464160
105,14,16,Jits_ISO_5,0,1,48,62,1432881828
105,14,16,Jits_ISO_5,1,5,80,127,1432883636
105,14,16,Jits_ISO_5,2,5,56,103,1432954440
105,14,16,Jits_ISO_5,3,5,63,98,1432963588
105,14,16,Jits_ISO_5,0,1,48,48,1433395264
105,14,16,Jits_ISO_5,1,5,63,98,1433424280
105,14,16,Jits_ISO_5,2,5,56,103,1433433576
105,14,16,Jits_ISO_5,3,5,80,127,1433453884
105,14,16,Jits_ISO_5,0,5,80,127,1433873824
105,14,16,Jits_ISO_5,1,5,63,98,1433934216
105,14,16,Jits_ISO_5,2,1,48,60,1433940476
105,14,16,Jits_ISO_5,3,5,56,103,1433974072
105,14,16,Jits_ISO_5,0,5,56,103,1434413284
105,14,16,Jits_ISO_5,1,5,63,98,1434423852
105,14,16,Jits_ISO_5,2,5,80,127,1434463564
105,14,16,Jits_ISO_5,3,1,48,62,1434478892
105,14,16,Jits_ISO_5,0,5,56,103,1434874368
105,14,16,Jits_ISO_5,1,5,80,127,1434904044
105,14,16,Jits_ISO_5,2,1,48,32,1434935256
105,14,16,Jits_ISO_5,3,5,63,98,1434954088
105,14,16,Jits_ISO_5,0,5,56,103,1435413824
105,14,16,Jits_ISO_5,1,5,63,98,1435453908
105,14,16,Jits_ISO_5,2,5,80,127,1435457200
105,14,16,Jits_ISO_5,3,1,48,56,1435466772
105,14,16,Jits_ISO_5,0,5,56,103,1435913640
105,14,16,Jits_ISO_5,1,5,63,98,1435923760
105,14,16,Jits_ISO_5,2,1,48,47,1435935196
105,14,16,Jits_ISO_5,3,5,80,127,1435944212
105,14,16,Jits_ISO_5,0,5,56,103,1436374424
105,14,16,Jits_ISO_5,1,5,80,127,1436377564
105,14,16,Jits_ISO_5,2,5,63,98,1436414656
105,14,16,Jits_ISO_5,3,1,48,40,1436472920
105,14,16,Jits_ISO_5,0,5,63,98,1436924356
105,14,16,Jits_ISO_5,1,5,56,103,1436954104
105,14,16,Jits_ISO_5,2,1,48,43,1436966812
105,14,16,Jits_ISO_5,3,5,80,127,1436973364
105,14,16,Jits_ISO_5,0,5,80,127,1437394276
105,14,16,Jits_ISO_5,1,5,56,103,1437403796
105,14,16,Jits_ISO_5,2,5,63,98,1437413768
105,14,16,Jits_ISO_5,3,1,48,66,1437471632
105,14,16,Jits_ISO_5,0,5,56,103,1437893868
105,14,16,Jits_ISO_5,1,5,80,127,1437933808
105,14,16,Jits_ISO_5,2,1,48,75,1437958724
105,14,16,Jits_ISO_5,3,5,63,98,1437963920
105,14,16,Jits_ISO_5,0,5,63,98,1438403880
105,14,16,Jits_ISO_5,1,5,80,127,1438414148
105,14,16,Jits_ISO_5,2,5,56,103,1438424420
105,14,16,Jits_ISO_5,3,1,48,61,1438436904
105,14,16,Jits_ISO_5,0,5,56,103,1438884128
105,14,16,Jits_ISO_5,1,1,48,65,1438922688
105,14,16,Jits_ISO_5,2,5,63,98,1438953804
105,14,16,Jits_ISO_5,3,5,80,127,1438964148
105,14,16,Jits_ISO_5,0,5,80,127,1439383952
105,14,16,Jits_ISO_5,1,1,48,65,1439390136
105,14,16,Jits_ISO_5,2,5,56,103,1439394064
105,14,16,Jits_ISO_5,3,5,63,98,1439444264
105,14,16,Jits_ISO_5,0,5,80,127,1439893812
105,14,16,Jits_ISO_5,1,1,48,60,1439917680
105,14,16,Jits_ISO_5,2,5,56,103,1439954416
105,14,16,Jits_ISO_5,3,5,63,98,1439983868
105,14,16,Jits_ISO_5,0,1,48,67,1440380380
105,14,16,Jits_ISO_5,1,5,56,103,1440393824
105,14,16,Jits_ISO_5,2,5,80,127,1440396820
105,14,16,Jits_ISO_5,3,5,63,98,1440433636
105,14,16,Jits_ISO_5,0,1,48,69,1440919616
105,14,16,Jits_ISO_5,1,5,56,103,1440923916
105,14,16,Jits_ISO_5,2,5,63,98,1440953812
105,14,16,Jits_ISO_5,3,5,80,127,1440963936
105,14,16,Jits_ISO_5,0,5,63,98,1441433924
105,14,16,Jits_ISO_5,1,1,48,60,1441435560
105,14,16,Jits_ISO_5,2,5,80,127,1441444188
105,14,16,Jits_ISO_5,3,5,56,103,1441453408
105,14,16,Jits_ISO_5,0,5,80,127,1441883660
105,14,16,Jits_ISO_5,1,5,56,103,1441933784
105,14,16,Jits_ISO_5,2,1,48,64,1441936652
105,14,16,Jits_ISO_5,3,5,63,98,1441938216
105,14,16,Jits_ISO_5,0,5,56,103,1442413888
105,14,16,Jits_ISO_5,1,5,80,127,1442434344
105,14,16,Jits_ISO_5,2,5,63,98,1442443716
105,14,16,Jits_ISO_5,3,1,48,60,1442446612
105,14,16,Jits_ISO_5,0,5,63,98,1442894304
105,14,16,Jits_ISO_5,1,5,56,103,1442923756
105,14,16,Jits_ISO_5,2,1,48,65,1442941768
105,14,16,Jits_ISO_5,3,5,80,127,1442944580
105,14,16,Jits_ISO_5,0,5,56,103,1443404220
105,14,16,Jits_ISO_5,1,5,80,127,1443414716
105,14,16,Jits_ISO_5,2,1,48,51,1443423836
105,14,16,Jits_ISO_5,3,5,63,98,1443484040
105,14,16,Jits_ISO_5,0,5,63,98,1443893856
105,14,16,Jits_ISO_5,1,5,80,127,1443933644
105,14,16,Jits_ISO_5,2,1,48,62,1443960724
105,14,16,Jits_ISO_5,3,5,56,103,1443973648
105,14,16,Jits_ISO_5,0,5,56,103,1444413744
105,14,16,Jits_ISO_5,1,5,63,98,1444424012
105,14,16,Jits_ISO_5,2,5,80,127,1444443572
105,14,16,Jits_ISO_5,3,1,48,35,1444448784
105,14,16,Jits_ISO_5,0,1,48,32,1444924692
105,14,16,Jits_ISO_5,1,5,63,98,1444953560
105,14,16,Jits_ISO_5,2,5,80,127,1444973872
105,14,16,Jits_ISO_5,3,5,56,103,1444994776
105,14,16,Jits_ISO_5,0,5,56,103,1445393744
105,14,16,Jits_ISO_5,1,1,48,60,1445438740
105,14,16,Jits_ISO_5,2,5,80,127,1445473828
105,14,16,Jits_ISO_5,3,5,63,98,1445483876
105,14,16,Jits_ISO_5,0,5,80,127,1445933500
105,14,16,Jits_ISO_5,1,5,63,98,1445943844
105,14,16,Jits_ISO_5,2,1,48,48,1445944812
105,14,16,Jits_ISO_5,3,5,56,103,1445974484
105,14,16,Jits_ISO_5,0,5,63,98,1446394140
105,14,16,Jits_ISO_5,1,5,80,127,1446434076
105,14,16,Jits_ISO_5,2,1,48,43,1446468956
105,14,16,Jits_ISO_5,3,5,56,103,1446493556
105,14,16,Jits_ISO_5,0,5,63,98,1446904284
105,14,16,Jits_ISO_5,1,1,48,66,1446954260
105,14,16,Jits_ISO_5,2,5,56,103,1446955748
105,14,16,Jits_ISO_5,3,5,80,127,1446984076
105,14,16,Jits_ISO_5,0,5,80,127,1447414056
105,14,16,Jits_ISO_5,1,5,63,98,1447424252
105,14,16,Jits_ISO_5,2,1,48,65,1447428420
105,14,16,Jits_ISO_5,3,5,56,103,1447493996
105,14,16,Jits_ISO_5,0,1,48,44,1447913776
105,14,16,Jits_ISO_5,1,5,80,127,1447983548
105,14,16,Jits_ISO_5,2,5,56,103,1447993744
105,14,16,Jits_ISO_5,3,5,63,98,1447996808
105,14,16,Jits_ISO_5,0,1,48,64,1448412684
105,14,16,Jits_ISO_5,1,5,56,103,1448433980
105,14,16,Jits_ISO_5,2,5,80,127,1448453616
105,14,16,Jits_ISO_5,3,5,63,98,1448463812
105,14,16,Jits_ISO_5,0,5,63,98,1448943980
105,14,16,Jits_ISO_5,1,1,48,33,1448958408
105,14,16,Jits_ISO_5,2,5,56,103,1448983836
105,14,16,Jits_ISO_5,3,5,80,127,1449004592
105,14,16,Jits_ISO_5,0,1,48,38,1449436348
105,14,16,Jits_ISO_5,1,5,63,98,1449443564
105,14,16,Jits_ISO_5,2,5,56,103,1449504100
105,14,16,Jits_ISO_5,3,5,80,127,1449507168
105,14,16,Jits_ISO_5,0,5,56,103,1449903664
105,14,16,Jits_ISO_5,1,5,80,127,1449923900
105,14,16,Jits_ISO_5,2,5,63,98,1449963836
105,14,16,Jits_ISO_5,3,1,48,32,1449964876
105,14,16,Jits_ISO_5,0,5,56,103,1450433828
105,14,16,Jits_ISO_5,1,5,63,98,1450454584
105,14,16,Jits_ISO_5,2,1,48,69,1450463056
105,14,16,Jits_ISO_5,3,5,80,127,1450464548
105,14,16,Jits_ISO_5,0,5,80,127,1450903904
105,14,16,Jits_ISO_5,1,1,48,71,1450912500
105,14,16,Jits_ISO_5,2,5,56,103,1450933648
105,14,16,Jits_ISO_5,3,5,63,98,1450973732
105,14,16,Jits_ISO_5,0,5,80,127,1451413988
105,14,16,Jits_ISO_5,1,1,48,76,1451434224
105,14,16,Jits_ISO_5,2,5,56,103,1451435784
105,14,16,Jits_ISO_5,3,5,63,98,1451493856
105,14,16,Jits_ISO_5,0,1,48,70,1451881624
105,14,16,Jits_ISO_5,1,5,56,103,1451923920
105,14,16,Jits_ISO_5,2,5,80,127,1451944304
105,14,16,Jits_ISO_5,3,5,63,98,1452003628
105,14,16,Jits_ISO_5,0,1,48,80,1452365164
105,14,16,Jits_ISO_5,1,5,80,127,1452404000
105,14,16,Jits_ISO_5,2,5,56,103,1452414196
105,14,16,Jits_ISO_5,3,5,63,98,1452454304
105,14,16,Jits_ISO_5,0,1,48,74,1452857096
105,14,16,Jits_ISO_5,1,5,63,98,1452903652
105,14,16,Jits_ISO_5,2,5,56,103,1452943688
105,14,16,Jits_ISO_5,3,5,80,127,1452946828
105,14,16,Jits_ISO_5,0,1,48,65,1453389032
105,14,16,Jits_ISO_5,1,5,63,98,1453423972
105,14,16,Jits_ISO_5,2,5,80,127,1453463788
105,14,16,Jits_ISO_5,3,5,56,103,1453493596
105,14,16,Jits_ISO_5,0,1,48,62,1453909880
105,14,16,Jits_ISO_5,1,5,56,103,1453913736
105,14,16,Jits_ISO_5,2,5,63,98,1453923784
105,14,16,Jits_ISO_5,3,5,80,127,1453954504
105,14,16,Jits_ISO_5,0,1,48,76,1454382956
105,14,16,Jits_ISO_5,1,5,80,127,1454403884
105,14,16,Jits_ISO_5,2,5,63,98,1454473784
105,14,16,Jits_ISO_5,3,5,56,103,1454483692
105,14,16,Jits_ISO_5,0,5,63,98,1454903548
105,14,16,Jits_ISO_5,1,1,48,67,1454926816
105,14,16,Jits_ISO_5,2,5,56,103,1454974416
105,14,16,Jits_ISO_5,3,5,80,127,1454983788
105,14,16,Jits_ISO_5,0,5,63,98,1455404328
105,14,16,Jits_ISO_5,1,5,56,103,1455423812
105,14,16,Jits_ISO_5,2,5,80,127,1455463824
105,14,16,Jits_ISO_5,3,1,48,47,1455475040
105,14,16,Jits_ISO_5,0,5,56,103,1455923836
105,14,16,Jits_ISO_5,1,5,63,98,1455933736
105,14,16,Jits_ISO_5,2,1,48,64,1455977828
105,14,16,Jits_ISO_5,3,5,80,127,1456013592
105,14,16,Jits_ISO_5,0,5,63,98,1456414144
105,14,16,Jits_ISO_5,1,5,56,103,1456443668
105,14,16,Jits_ISO_5,2,1,48,71,1456445080
105,14,16,Jits_ISO_5,3,5,80,127,1456483672
105,14,16,Jits_ISO_5,0,5,56,103,1456913652
105,14,16,Jits_ISO_5,1,5,63,98,1456953588
105,14,16,Jits_ISO_5,2,1,48,65,1456978060
105,14,16,Jits_ISO_5,3,5,80,127,1456993744
105,14,16,Jits_ISO_5,0,5,80,127,1457413696
105,14,16,Jits_ISO_5,1,1,48,60,1457481312
105,14,16,Jits_ISO_5,2,5,56,103,1457494532
105,14,16,Jits_ISO_5,3,5,63,98,1457503680
105,14,16,Jits_ISO_5,0,5,56,103,1457954128
105,14,16,Jits_ISO_5,1,5,63,98,1457957196
105,14,16,Jits_ISO_5,2,1,48,74,1457959860
105,14,16,Jits_ISO_5,3,5,80,127,1457964540
105,14,16,Jits_ISO_5,0,5,56,103,1458474468
105,14,16,Jits_ISO_5,1,1,48,62,1458493428
105,14,16,Jits_ISO_5,2,5,63,98,1458494996
105,14,16,Jits_ISO_5,3,5,80,127,1458503996
105,14,16,Jits_ISO_5,0,5,63,98,1458934140
105,14,16,Jits_ISO_5,1,5,80,127,1458944708
105,14,16,Jits_ISO_5,2,1,48,75,1458955020
105,14,16,Jits_ISO_5,3,5,56,103,1458963816
105,14,16,Jits_ISO_5,0,5,63,98,1459433872
105,14,16,Jits_ISO_5,1,1,48,63,1459484492
105,14,16,Jits_ISO_5,2,5,56,103,1459513660
105,14,16,Jits_ISO_5,3,5,80,127,1459516876
105,14,16,Jits_ISO_5,0,5,63,98,1459943788
105,14,16,Jits_ISO_5,1,5,56,103,1459964472
105,14,16,Jits_ISO_5,2,1,48,71,1459987068
105,14,16,Jits_ISO_5,3,5,80,127,1459994064
105,14,16,Jits_ISO_5,0,1,48,45,1460435844
105,14,16,Jits_ISO_5,1,5,56,103,1460443516
105,14,16,Jits_ISO_5,2,5,63,98,1460463976
105,14,16,Jits_ISO_5,3,5,80,127,1460474172
105,14,16,Jits_ISO_5,0,1,48,72,1460948384
105,14,16,Jits_ISO_5,1,5,56,103,1460973888
105,14,16,Jits_ISO_5,2,5,63,98,1461003708
105,14,16,Jits_ISO_5,3,5,80,127,1461006996
105,14,16,Jits_ISO_5,0,5,56,103,1461423648
105,14,16,Jits_ISO_5,1,1,48,72,1461445948
105,14,16,Jits_ISO_5,2,5,63,98,1461464700
105,14,16,Jits_ISO_5,3,5,80,127,1461523964
105,14,16,Jits_ISO_5,0,5,56,103,1461943552
105,14,16,Jits_ISO_5,1,5,63,98,1461954044
105,14,16,Jits_ISO_5,2,1,48,39,1461958360
105,14,16,Jits_ISO_5,3,5,80,127,1462014572
105,14,16,Jits_ISO_5,0,5,56,103,1462444640
105,14,16,Jits_ISO_5,1,1,48,62,1462460868
105,14,16,Jits_ISO_5,2,5,80,127,1462463972
105,14,16,Jits_ISO_5,3,5,63,98,1462493644
105,14,16,Jits_ISO_5,0,5,80,127,1462944092
105,14,16,Jits_ISO_5,1,5,56,103,1462954584
105,14,16,Jits_ISO_5,2,1,48,60,1462962284
105,14,16,Jits_ISO_5,3,5,63,98,1462973916
105,14,16,Jits_ISO_5,0,5,63,98,1463433696
105,14,16,Jits_ISO_5,1,1,48,66,1463451668
105,14,16,Jits_ISO_5,2,5,80,127,1463513584
105,14,16,Jits_ISO_5,3,5,56,103,1463523628
105,14,16,Jits_ISO_5,0,5,80,127,1463993616
105,14,16,Jits_ISO_5,1,1,48,64,1463994584
105,14,16,Jits_ISO_5,2,5,56,103,1464014440
105,14,16,Jits_ISO_5,3,5,63,98,1464017504
105,14,16,Jits_ISO_5,0,5,63,98,1464463692
105,14,16,Jits_ISO_5,1,5,80,127,1464466980
105,14,16,Jits_ISO_5,2,1,48,50,1464500292
105,14,16,Jits_ISO_5,3,5,56,103,1464524440
105,14,16,Jits_ISO_5,0,5,56,103,1464943912
105,14,16,Jits_ISO_5,1,5,80,127,1464954184
105,14,16,Jits_ISO_5,2,1,48,54,1464978896
105,14,16,Jits_ISO_5,3,5,63,98,1464994284
105,14,16,Jits_ISO_5,0,5,56,103,1465424176
105,14,16,Jits_ISO_5,1,1,48,67,1465458008
105,14,16,Jits_ISO_5,2,5,63,98,1465483736
105,14,16,Jits_ISO_5,3,5,80,127,1465493956
105,14,16,Jits_ISO_5,0,5,63,98,1465934184
105,14,16,Jits_ISO_5,1,1,48,67,1465969216
105,14,16,Jits_ISO_5,2,5,80,127,1465974264
105,14,16,Jits_ISO_5,3,5,56,103,1466014004
105,14,16,Jits_ISO_5,0,1,48,38,1466393580
105,14,16,Jits_ISO_5,1,5,56,103,1466433912
105,14,16,Jits_ISO_5,2,5,63,98,1466513788
105,14,16,Jits_ISO_5,3,5,80,127,1466517228
105,14,16,Jits_ISO_5,0,9999,9999,9999,1407141968
105,14,16,Jits_ISO_5,1,9999,9999,9999,1407641688
105,14,16,Jits_ISO_5,2,9999,9999,9999,1408141404
105,14,16,Jits_ISO_5,3,9999,9999,9999,1408641136
105,14,16,Jits_ISO_5,4,9999,9999,9999,1409141812
105,14,16,Jits_ISO_5,5,9999,9999,9999,1409641564
105,14,16,Jits_ISO_5,6,9999,9999,9999,1410141296
105,14,16,Jits_ISO_5,7,9999,9999,9999,1410642012
105,14,16,Jits_ISO_5,8,9999,9999,9999,1411141688
105,14,16,Jits_ISO_5,9,9999,9999,9999,1411641432
105,14,16,Jits_ISO_5,10,9999,9999,9999,1412141180
105,14,16,Jits_ISO_5,11,9999,9999,9999,1412641900
105,14,16,Jits_ISO_5,12,9999,9999,9999,1413141628
105,14,16,Jits_ISO_5,13,9999,9999,9999,1413641284
105,14,16,Jits_ISO_5,14,9999,9999,9999,1414142064
105,14,16,Jits_ISO_5,15,9999,9999,9999,1414641736
105,14,16,Jits_ISO_5,16,9999,9999,9999,1415141468
105,14,16,Jits_ISO_5,17,9999,9999,9999,1415641200
105,14,16,Jits_ISO_5,18,9999,9999,9999,1416141900
105,14,16,Jits_ISO_5,19,9999,9999,9999,1416641636
105,14,16,Jits_ISO_5,20,9999,9999,9999,1417141368
105,14,16,Jits_ISO_5,21,9999,9999,9999,1417642076
105,14,16,Jits_ISO_5,22,9999,9999,9999,1418141816
105,14,16,Jits_ISO_5,23,9999,9999,9999,1418641488
105,14,16,Jits_ISO_5,24,9999,9999,9999,1419141212
105,14,16,Jits_ISO_5,25,9999,9999,9999,1419641924
105,14,16,Jits_ISO_5,26,9999,9999,9999,1420141660
105,14,16,Jits_ISO_5,27,9999,9999,9999,1420641380
105,14,16,Jits_ISO_5,28,9999,9999,9999,1421142076
105,14,16,Jits_ISO_5,29,9999,9999,9999,1421652084
105,14,16,Jits_ISO_5,30,9999,9999,9999,1422151756
105,14,16,Jits_ISO_5,31,9999,9999,9999,1422651488
105,14,16,Jits_ISO_5,32,9999,9999,9999,1423151220
105,14,16,Jits_ISO_5,33,9999,9999,9999,1423651928
105,14,16,Jits_ISO_5,34,9999,9999,9999,1424151672
105,14,16,Jits_ISO_5,35,9999,9999,9999,1424651348
105,14,16,Jits_ISO_5,36,9999,9999,9999,1425152120
105,14,16,Jits_ISO_5,37,9999,9999,9999,1425662040
105,14,16,Jits_ISO_5,38,9999,9999,9999,1426161716
105,14,16,Jits_ISO_5,39,9999,9999,9999,1426661452
105,14,16,Jits_ISO_5,40,9999,9999,9999,1427161188
105,14,16,Jits_ISO_5,41,9999,9999,9999,1427661908
105,14,16,Jits_ISO_5,42,9999,9999,9999,1428161636
105,14,16,Jits_ISO_5,43,9999,9999,9999,1428661368
105,14,16,Jits_ISO_5,44,9999,9999,9999,1429162072
105,14,16,Jits_ISO_5,45,9999,9999,9999,1429661812
105,14,16,Jits_ISO_5,46,9999,9999,9999,1430161472
105,14,16,Jits_ISO_5,47,9999,9999,9999,1430661188
105,14,16,Jits_ISO_5,48,9999,9999,9999,1431161968
105,14,16,Jits_ISO_5,49,9999,9999,9999,1431661648
105,14,16,Jits_ISO_5,50,9999,9999,9999,1432161372
105,14,16,Jits_ISO_5,51,9999,9999,9999,1432662096
105,14,16,Jits_ISO_5,52,9999,9999,9999,1433172036
105,14,16,Jits_ISO_5,53,9999,9999,9999,1433671772
105,14,16,Jits_ISO_5,54,9999,9999,9999,1434171504
105,14,16,Jits_ISO_5,55,9999,9999,9999,1434671180
105,14,16,Jits_ISO_5,56,9999,9999,9999,1435171896
105,14,16,Jits_ISO_5,57,9999,9999,9999,1435671640
105,14,16,Jits_ISO_5,58,9999,9999,9999,1436171384
105,14,16,Jits_ISO_5,59,9999,9999,9999,1436672088
105,14,16,Jits_ISO_5,60,9999,9999,9999,1437182032
105,14,16,Jits_ISO_5,61,9999,9999,9999,1437681760
105,14,16,Jits_ISO_5,62,9999,9999,9999,1438181432
105,14,16,Jits_ISO_5,63,9999,9999,9999,1438681176
105,14,16,Jits_ISO_5,64,9999,9999,9999,1439181884
105,14,16,Jits_ISO_5,65,9999,9999,9999,1439681624
105,14,16,Jits_ISO_5,66,9999,9999,9999,1440181300
105,14,16,Jits_ISO_5,67,9999,9999,9999,1440682084
105,14,16,Jits_ISO_5,68,9999,9999,9999,1441181820
105,14,16,Jits_ISO_5,69,9999,9999,9999,1441681480
105,14,16,Jits_ISO_5,70,9999,9999,9999,1442181180
105,14,16,Jits_ISO_5,71,9999,9999,9999,1442681972
105,14,16,Jits_ISO_5,72,9999,9999,9999,1443181640
105,14,16,Jits_ISO_5,73,9999,9999,9999,1443681376
105,14,16,Jits_ISO_5,74,9999,9999,9999,1444182096
105,14,16,Jits_ISO_5,75,9999,9999,9999,1444692088
105,14,16,Jits_ISO_5,76,9999,9999,9999,1445191764
105,14,16,Jits_ISO_5,77,9999,9999,9999,1445691496
105,14,16,Jits_ISO_5,78,9999,9999,9999,1446191172
105,14,16,Jits_ISO_5,79,9999,9999,9999,1446691892
105,14,16,Jits_ISO_5,80,9999,9999,9999,1447191624
105,14,16,Jits_ISO_5,81,9999,9999,9999,1447691360
105,14,16,Jits_ISO_5,82,9999,9999,9999,1448192076
105,14,16,Jits_ISO_5,83,9999,9999,9999,1448702072
105,14,16,Jits_ISO_5,84,9999,9999,9999,1449201732
105,14,16,Jits_ISO_5,85,9999,9999,9999,1449701460
105,14,16,Jits_ISO_5,86,9999,9999,9999,1450201192
105,14,16,Jits_ISO_5,87,9999,9999,9999,1450701912
105,14,16,Jits_ISO_5,88,9999,9999,9999,1451201656
105,14,16,Jits_ISO_5,89,9999,9999,9999,1451701332
105,14,16,Jits_ISO_5,90,9999,9999,9999,1452202052
105,14,16,Jits_ISO_5,91,9999,9999,9999,1452701780
105,14,16,Jits_ISO_5,92,9999,9999,9999,1453201500
105,14,16,Jits_ISO_5,93,9999,9999,9999,1453701208
105,14,16,Jits_ISO_5,94,9999,9999,9999,1454201980
105,14,16,Jits_ISO_5,95,9999,9999,9999,1454701644
105,14,16,Jits_ISO_5,96,9999,9999,9999,1455201376
105,14,16,Jits_ISO_5,97,9999,9999,9999,1455702080
105,14,16,Jits_ISO_5,98,9999,9999,9999,1456212072
105,14,16,Jits_ISO_5,99,9999,9999,9999,1456711744
105,14,16,Jits_ISO_5,100,9999,9999,9999,1457211480
105,14,16,Jits_ISO_5,101,9999,9999,9999,1457711228
105,14,16,Jits_ISO_5,102,9999,9999,9999,1458211940
105,14,16,Jits_ISO_5,103,9999,9999,9999,1458711616
105,14,16,Jits_ISO_5,104,9999,9999,9999,1459211364
105,14,16,Jits_ISO_5,105,9999,9999,9999,1459712068
105,14,16,Jits_ISO_5,106,9999,9999,9999,1460222060
105,14,16,Jits_ISO_5,107,9999,9999,9999,1460721720
105,14,16,Jits_ISO_5,108,9999,9999,9999,1461221444
105,14,16,Jits_ISO_5,109,9999,9999,9999,1461721176
105,14,16,Jits_ISO_5,110,9999,9999,9999,1462221896
105,14,16,Jits_ISO_5,111,9999,9999,9999,1462721644
105,14,16,Jits_ISO_5,112,9999,9999,9999,1463221312
105,14,16,Jits_ISO_5,113,9999,9999,9999,1463722036
105,14,16,Jits_ISO_5,114,9999,9999,9999,1464221764
105,14,16,Jits_ISO_5,115,9999,9999,9999,1464721504
105,14,16,Jits_ISO_5,116,9999,9999,9999,1465221212
105,14,16,Jits_ISO_5,117,9999,9999,9999,1465721928
105,14,16,Jits_ISO_5,118,9999,9999,9999,1466221676
105,14,16,Jits_ISO_5,119,9999,9999,9999,1466721404
105,15,7,Jits_ISO_8,0,5,56,103,1477681628
105,15,7,Jits_ISO_8,1,5,63,98,1477684576
105,15,7,Jits_ISO_8,2,5,80,127,1477687848
105,15,7,Jits_ISO_8,0,5,56,103,1478482524
105,15,7,Jits_ISO_8,1,5,63,98,1478485476
105,15,7,Jits_ISO_8,2,5,80,127,1478488596
105,15,7,Jits_ISO_8,0,5,80,127,1479221704
105,15,7,Jits_ISO_8,1,5,63,98,1479311716
105,15,7,Jits_ISO_8,2,5,56,103,1479321836
105,15,7,Jits_ISO_8,0,5,56,103,1480052292
105,15,7,Jits_ISO_8,1,5,63,98,1480062636
105,15,7,Jits_ISO_8,2,1,48,54,1480111936
105,15,7,Jits_ISO_8,3,5,80,127,1480152340
105,15,7,Jits_ISO_8,0,1,48,44,1480809492
105,15,7,Jits_ISO_8,1,5,63,98,1480822336
105,15,7,Jits_ISO_8,2,5,80,127,1480851964
105,15,7,Jits_ISO_8,3,5,56,103,1480881492
105,15,7,Jits_ISO_8,0,5,56,103,1481621772
105,15,7,Jits_ISO_8,1,1,48,44,1481627504
105,15,7,Jits_ISO_8,2,5,80,127,1481722388
105,15,7,Jits_ISO_8,3,5,63,98,1481772352
105,15,7,Jits_ISO_8,0,5,56,103,1482421572
105,15,7,Jits_ISO_8,1,1,48,52,1482444320
105,15,7,Jits_ISO_8,2,5,80,127,1482471916
105,15,7,Jits_ISO_8,3,5,63,98,1482511856
105,15,7,Jits_ISO_8,0,1,48,38,1483192704
105,15,7,Jits_ISO_8,1,5,80,127,1483252068
105,15,7,Jits_ISO_8,2,5,63,98,1483281744
105,15,7,Jits_ISO_8,3,5,56,103,1483352384
105,15,7,Jits_ISO_8,0,1,48,39,1484011748
105,15,7,Jits_ISO_8,1,5,63,98,1484081452
105,15,7,Jits_ISO_8,2,5,56,103,1484112380
105,15,7,Jits_ISO_8,3,5,80,127,1484171576
105,15,7,Jits_ISO_8,0,5,56,103,1484821800
105,15,7,Jits_ISO_8,1,5,80,127,1484824868
105,15,7,Jits_ISO_8,2,1,48,58,1484825756
105,15,7,Jits_ISO_8,3,5,63,98,1484941900
105,15,7,Jits_ISO_8,0,1,48,42,1485679380
105,15,7,Jits_ISO_8,1,5,56,103,1485701372
105,15,7,Jits_ISO_8,2,5,80,127,1485741340
105,15,7,Jits_ISO_8,3,5,63,98,1485751608
105,15,7,Jits_ISO_8,0,5,56,103,1486462356
105,15,7,Jits_ISO_8,1,5,80,127,1486481720
105,15,7,Jits_ISO_8,2,1,48,50,1486510544
105,15,7,Jits_ISO_8,3,5,63,98,1486561508
105,15,7,Jits_ISO_8,0,5,80,127,1487251696
105,15,7,Jits_ISO_8,1,1,48,63,1487326732
105,15,7,Jits_ISO_8,2,5,56,103,1487352312
105,15,7,Jits_ISO_8,3,5,63,98,1487362360
105,15,7,Jits_ISO_8,0,5,63,98,1488021904
105,15,7,Jits_ISO_8,1,5,80,127,1488082368
105,15,7,Jits_ISO_8,2,5,56,103,1488091444
105,15,7,Jits_ISO_8,3,1,48,63,1488149932
105,15,7,Jits_ISO_8,0,5,56,103,1488821684
105,15,7,Jits_ISO_8,1,1,48,61,1488872228
105,15,7,Jits_ISO_8,2,5,63,98,1488892480
105,15,7,Jits_ISO_8,3,5,80,127,1488895844
105,15,7,Jits_ISO_8,0,1,48,57,1489635364
105,15,7,Jits_ISO_8,1,5,63,98,1489652028
105,15,7,Jits_ISO_8,2,5,56,103,1489702532
105,15,7,Jits_ISO_8,3,5,80,127,1489705664
105,15,7,Jits_ISO_8,0,5,56,103,1490411868
105,15,7,Jits_ISO_8,1,5,80,127,1490414936
105,15,7,Jits_ISO_8,2,1,48,70,1490446972
105,15,7,Jits_ISO_8,3,5,63,98,1490501992
105,15,7,Jits_ISO_8,0,1,48,50,1491221588
105,15,7,Jits_ISO_8,1,5,63,98,1491251432
105,15,7,Jits_ISO_8,2,5,56,103,1491341652
105,15,7,Jits_ISO_8,3,5,80,127,1491372300
105,15,7,Jits_ISO_8,0,1,48,44,1491986224
105,15,7,Jits_ISO_8,1,5,56,103,1492042152
105,15,7,Jits_ISO_8,2,5,63,98,1492141440
105,15,7,Jits_ISO_8,3,5,80,127,1492172236
105,15,7,Jits_ISO_8,0,1,48,51,1492832476
105,15,7,Jits_ISO_8,1,5,63,98,1492862316
105,15,7,Jits_ISO_8,2,5,56,103,1492871468
105,15,7,Jits_ISO_8,3,5,80,127,1492961536
105,15,7,Jits_ISO_8,0,1,48,32,1493638688
105,15,7,Jits_ISO_8,1,5,63,98,1493681680
105,15,7,Jits_ISO_8,2,5,56,103,1493762360
105,15,7,Jits_ISO_8,3,5,80,127,1493765500
105,15,7,Jits_ISO_8,0,5,80,127,1494442432
105,15,7,Jits_ISO_8,1,5,63,98,1494461920
105,15,7,Jits_ISO_8,2,1,48,44,1494472012
105,15,7,Jits_ISO_8,3,5,56,103,1494522376
105,15,7,Jits_ISO_8,0,5,56,103,1495282236
105,15,7,Jits_ISO_8,1,5,63,98,1495301500
105,15,7,Jits_ISO_8,2,5,80,127,1495304640
105,15,7,Jits_ISO_8,3,1,48,17,1495397132
105,15,7,Jits_ISO_8,4,1,48,35,1495401540
105,15,7,Jits_ISO_8,0,5,63,98,1496022380
105,15,7,Jits_ISO_8,1,1,48,46,1496083792
105,15,7,Jits_ISO_8,2,5,80,127,1496102244
105,15,7,Jits_ISO_8,3,5,56,103,1496111468
105,15,7,Jits_ISO_8,0,1,48,60,1496839748
105,15,7,Jits_ISO_8,1,5,63,98,1496841488
105,15,7,Jits_ISO_8,2,5,56,103,1496862168
105,15,7,Jits_ISO_8,3,5,80,127,1496912224
105,15,7,Jits_ISO_8,0,1,48,58,1497616284
105,15,7,Jits_ISO_8,1,5,80,127,1497642392
105,15,7,Jits_ISO_8,2,5,63,98,1497682332
105,15,7,Jits_ISO_8,3,5,56,103,1497701744
105,15,7,Jits_ISO_8,0,1,48,69,1498450688
105,15,7,Jits_ISO_8,1,5,56,103,1498482180
105,15,7,Jits_ISO_8,2,5,63,98,1498492452
105,15,7,Jits_ISO_8,3,5,80,127,1498511740
105,15,7,Jits_ISO_8,0,5,56,103,1499212364
105,15,7,Jits_ISO_8,1,1,48,38,1499242536
105,15,7,Jits_ISO_8,2,5,63,98,1499302220
105,15,7,Jits_ISO_8,3,5,80,127,1499361552
105,15,7,Jits_ISO_8,0,1,48,39,1500008228
105,15,7,Jits_ISO_8,1,5,80,127,1500041532
105,15,7,Jits_ISO_8,2,5,56,103,1500051752
105,15,7,Jits_ISO_8,3,5,63,98,1500121344
105,15,7,Jits_ISO_8,0,1,48,59,1500819812
105,15,7,Jits_ISO_8,1,5,63,98,1500872128
105,15,7,Jits_ISO_8,2,5,80,127,1500962324
105,15,7,Jits_ISO_8,3,5,56,103,1500972448
105,15,7,Jits_ISO_8,0,5,63,98,1501612360
105,15,7,Jits_ISO_8,1,5,80,127,1501661668
105,15,7,Jits_ISO_8,2,1,48,57,1501667028
105,15,7,Jits_ISO_8,3,5,56,103,1501722200
105,15,7,Jits_ISO_8,0,1,48,52,1502378308
105,15,7,Jits_ISO_8,1,5,56,103,1502441952
105,15,7,Jits_ISO_8,2,5,80,127,1502492140
105,15,7,Jits_ISO_8,3,5,63,98,1502511552
105,15,7,Jits_ISO_8,0,1,48,68,1503208584
105,15,7,Jits_ISO_8,1,5,56,103,1503211992
105,15,7,Jits_ISO_8,2,5,80,127,1503272384
105,15,7,Jits_ISO_8,3,5,63,98,1503341900
105,15,7,Jits_ISO_8,0,5,56,103,1504011632
105,15,7,Jits_ISO_8,1,1,48,68,1504024716
105,15,7,Jits_ISO_8,2,5,80,127,1504042424
105,15,7,Jits_ISO_8,3,5,63,98,1504072248
105,15,7,Jits_ISO_8,0,1,48,65,1504806140
105,15,7,Jits_ISO_8,1,5,56,103,1504852472
105,15,7,Jits_ISO_8,2,5,80,127,1504871736
105,15,7,Jits_ISO_8,3,5,63,98,1504932136
105,15,7,Jits_ISO_8,0,1,48,59,1505606072
105,15,7,Jits_ISO_8,1,5,80,127,1505731836
105,15,7,Jits_ISO_8,2,5,56,103,1505742184
105,15,7,Jits_ISO_8,3,5,63,98,1505752528
105,15,7,Jits_ISO_8,0,1,48,70,1506361288
105,15,7,Jits_ISO_8,1,5,56,103,1506491772
105,15,7,Jits_ISO_8,2,5,80,127,1506531564
105,15,7,Jits_ISO_8,3,5,63,98,1506562508
105,15,7,Jits_ISO_8,0,1,48,71,1507190012
105,15,7,Jits_ISO_8,1,5,56,103,1507261908
105,15,7,Jits_ISO_8,2,5,63,98,1507291716
105,15,7,Jits_ISO_8,3,5,80,127,1507331508
105,15,7,Jits_ISO_8,0,1,48,73,1508012400
105,15,7,Jits_ISO_8,1,5,80,127,1508013736
105,15,7,Jits_ISO_8,2,5,63,98,1508061476
105,15,7,Jits_ISO_8,3,5,56,103,1508082160
105,15,7,Jits_ISO_8,0,1,48,70,1508795200
105,15,7,Jits_ISO_8,1,5,56,103,1508841836
105,15,7,Jits_ISO_8,2,5,80,127,1508911432
105,15,7,Jits_ISO_8,3,5,63,98,1508972120
105,15,7,Jits_ISO_8,0,1,48,78,1509560308
105,15,7,Jits_ISO_8,1,5,80,127,1509641552
105,15,7,Jits_ISO_8,2,5,63,98,1509731820
105,15,7,Jits_ISO_8,3,5,56,103,1509752204
105,15,7,Jits_ISO_8,0,1,48,78,1510355816
105,15,7,Jits_ISO_8,1,5,63,98,1510461776
105,15,7,Jits_ISO_8,2,5,56,103,1510482388
105,15,7,Jits_ISO_8,3,5,80,127,1510522176
105,15,7,Jits_ISO_8,0,1,48,66,1511166464
105,15,7,Jits_ISO_8,1,5,80,127,1511221568
105,15,7,Jits_ISO_8,2,5,63,98,1511242176
105,15,7,Jits_ISO_8,3,5,56,103,1511321980
105,15,7,Jits_ISO_8,0,1,48,64,1511992924
105,15,7,Jits_ISO_8,1,5,63,98,1512012204
105,15,7,Jits_ISO_8,2,5,56,103,1512121600
105,15,7,Jits_ISO_8,3,5,80,127,1512124820
105,15,7,Jits_ISO_8,0,1,48,63,1512824092
105,15,7,Jits_ISO_8,1,5,63,98,1512832360
105,15,7,Jits_ISO_8,2,5,56,103,1512841580
105,15,7,Jits_ISO_8,3,5,80,127,1512844672
105,15,7,Jits_ISO_8,0,5,56,103,1513611604
105,15,7,Jits_ISO_8,1,1,48,78,1513638940
105,15,7,Jits_ISO_8,2,5,80,127,1513731428
105,15,7,Jits_ISO_8,3,5,63,98,1513772396
105,15,7,Jits_ISO_8,0,1,48,66,1514382776
105,15,7,Jits_ISO_8,1,5,56,103,1514432100
105,15,7,Jits_ISO_8,2,5,80,127,1514511660
105,15,7,Jits_ISO_8,3,5,63,98,1514532268
105,15,7,Jits_ISO_8,0,1,48,76,1515175208
105,15,7,Jits_ISO_8,1,5,56,103,1515231656
105,15,7,Jits_ISO_8,2,5,63,98,1515342300
105,15,7,Jits_ISO_8,3,5,80,127,1515345664
105,15,7,Jits_ISO_8,0,1,48,73,1516014776
105,15,7,Jits_ISO_8,1,5,56,103,1516062228
105,15,7,Jits_ISO_8,2,5,80,127,1516091756
105,15,7,Jits_ISO_8,3,5,63,98,1516112420
105,15,7,Jits_ISO_8,0,1,48,77,1516770204
105,15,7,Jits_ISO_8,1,5,63,98,1516842304
105,15,7,Jits_ISO_8,2,5,56,103,1516851676
105,15,7,Jits_ISO_8,3,5,80,127,1516862244
105,15,7,Jits_ISO_8,0,1,48,83,1517545848
105,15,7,Jits_ISO_8,1,5,80,127,1517631968
105,15,7,Jits_ISO_8,2,5,56,103,1517682304
105,15,7,Jits_ISO_8,3,5,63,98,1517722044
105,15,7,Jits_ISO_8,0,1,48,67,1518351932
105,15,7,Jits_ISO_8,1,5,80,127,1518452040
105,15,7,Jits_ISO_8,2,5,63,98,1518471456
105,15,7,Jits_ISO_8,3,5,56,103,1518521608
105,15,7,Jits_ISO_8,0,1,48,60,1519205584
105,15,7,Jits_ISO_8,1,5,80,127,1519262128
105,15,7,Jits_ISO_8,2,5,56,103,1519291728
105,15,7,Jits_ISO_8,3,5,63,98,1519362440
105,15,7,Jits_ISO_8,0,1,48,71,1519928040
105,15,7,Jits_ISO_8,1,5,56,103,1520112172
105,15,7,Jits_ISO_8,2,5,80,127,1520122220
105,15,7,Jits_ISO_8,3,5,63,98,1520162160
105,15,7,Jits_ISO_8,0,1,48,67,1520770552
105,15,7,Jits_ISO_8,1,5,56,103,1520821696
105,15,7,Jits_ISO_8,2,5,63,98,1520842080
105,15,7,Jits_ISO_8,3,5,80,127,1520911600
105,15,7,Jits_ISO_8,0,1,48,73,1521527832
105,15,7,Jits_ISO_8,1,5,63,98,1521642056
105,15,7,Jits_ISO_8,2,5,80,127,1521702224
105,15,7,Jits_ISO_8,3,5,56,103,1521721784
105,15,7,Jits_ISO_8,0,1,48,78,1522325168
105,15,7,Jits_ISO_8,1,5,80,127,1522432324
105,15,7,Jits_ISO_8,2,5,56,103,1522462076
105,15,7,Jits_ISO_8,3,5,63,98,1522491752
105,15,7,Jits_ISO_8,0,1,48,79,1523123604
105,15,7,Jits_ISO_8,1,5,56,103,1523232028
105,15,7,Jits_ISO_8,2,5,63,98,1523291376
105,15,7,Jits_ISO_8,3,5,80,127,1523351940
105,15,7,Jits_ISO_8,0,1,48,63,1523906676
105,15,7,Jits_ISO_8,1,5,80,127,1524052268
105,15,7,Jits_ISO_8,2,5,56,103,1524071756
105,15,7,Jits_ISO_8,3,5,63,98,1524141460
105,15,7,Jits_ISO_8,0,1,48,74,1524694248
105,15,7,Jits_ISO_8,1,5,80,127,1524852128
105,15,7,Jits_ISO_8,2,5,63,98,1524871468
105,15,7,Jits_ISO_8,3,5,56,103,1524902288
105,15,7,Jits_ISO_8,0,1,48,79,1525539652
105,15,7,Jits_ISO_8,1,5,80,127,1525641648
105,15,7,Jits_ISO_8,2,5,63,98,1525662032
105,15,7,Jits_ISO_8,3,5,56,103,1525721376
105,15,7,Jits_ISO_8,0,1,48,70,1526360704
105,15,7,Jits_ISO_8,1,5,80,127,1526442344
105,15,7,Jits_ISO_8,2,5,56,103,1526541904
105,15,7,Jits_ISO_8,3,5,63,98,1526572256
105,15,7,Jits_ISO_8,0,1,48,69,1527210196
105,15,7,Jits_ISO_8,1,5,63,98,1527231940
105,15,7,Jits_ISO_8,2,5,80,127,1527281996
105,15,7,Jits_ISO_8,3,5,56,103,1527301556
105,15,7,Jits_ISO_8,0,1,48,66,1528070532
105,15,7,Jits_ISO_8,1,5,80,127,1528072172
105,15,7,Jits_ISO_8,2,5,56,103,1528102300
105,15,7,Jits_ISO_8,3,5,63,98,1528105216
105,15,7,Jits_ISO_8,0,1,48,73,1528883536
105,15,7,Jits_ISO_8,1,5,63,98,1528902068
105,15,7,Jits_ISO_8,2,5,56,103,1528942156
105,15,7,Jits_ISO_8,3,5,80,127,1528962540
105,15,7,Jits_ISO_8,0,1,48,73,1529635520
105,15,7,Jits_ISO_8,1,5,80,127,1529642292
105,15,7,Jits_ISO_8,2,5,63,98,1529722092
105,15,7,Jits_ISO_8,3,5,56,103,1529762112
105,15,7,Jits_ISO_8,0,1,48,72,1530451792
105,15,7,Jits_ISO_8,1,5,63,98,1530461488
105,15,7,Jits_ISO_8,2,5,80,127,1530541532
105,15,7,Jits_ISO_8,3,5,56,103,1530562200
105,15,7,Jits_ISO_8,0,1,48,71,1531284052
105,15,7,Jits_ISO_8,1,5,56,103,1531302208
105,15,7,Jits_ISO_8,2,5,63,98,1531311432
105,15,7,Jits_ISO_8,3,5,80,127,1531352344
105,15,7,Jits_ISO_8,0,5,56,103,1532022108
105,15,7,Jits_ISO_8,1,5,80,127,1532025172
105,15,7,Jits_ISO_8,2,1,48,59,1532036316
105,15,7,Jits_ISO_8,3,5,63,98,1532162512
105,15,7,Jits_ISO_8,0,1,48,74,1532806724
105,15,7,Jits_ISO_8,1,5,56,103,1532811800
105,15,7,Jits_ISO_8,2,5,63,98,1532901920
105,15,7,Jits_ISO_8,3,5,80,127,1532972352
105,15,7,Jits_ISO_8,0,1,48,72,1533631716
105,15,7,Jits_ISO_8,1,5,63,98,1533692348
105,15,7,Jits_ISO_8,2,5,80,127,1533695560
105,15,7,Jits_ISO_8,3,5,56,103,1533751676
105,15,7,Jits_ISO_8,0,1,48,75,1534464820
105,15,7,Jits_ISO_8,1,5,80,127,1534532132
105,15,7,Jits_ISO_8,2,5,56,103,1534552368
105,15,7,Jits_ISO_8,3,5,63,98,1534561520
105,15,7,Jits_ISO_8,0,5,56,103,1535241648
105,15,7,Jits_ISO_8,1,5,63,98,1535251996
105,15,7,Jits_ISO_8,2,1,48,66,1535287024
105,15,7,Jits_ISO_8,3,5,80,127,1535321444
105,15,7,Jits_ISO_8,0,1,48,75,1536033024
105,15,7,Jits_ISO_8,1,5,80,127,1536042340
105,15,7,Jits_ISO_8,2,5,56,103,1536091420
105,15,7,Jits_ISO_8,3,5,63,98,1536142080
105,15,7,Jits_ISO_8,0,1,48,76,1536826128
105,15,7,Jits_ISO_8,1,5,56,103,1536922076
105,15,7,Jits_ISO_8,2,5,63,98,1536932348
105,15,7,Jits_ISO_8,3,5,80,127,1536972136
105,15,7,Jits_ISO_8,0,5,56,103,1537662444
105,15,7,Jits_ISO_8,1,1,48,67,1537675704
105,15,7,Jits_ISO_8,2,5,63,98,1537702328
105,15,7,Jits_ISO_8,3,5,80,127,1537752532
105,15,7,Jits_ISO_8,0,5,80,127,1538422012
105,15,7,Jits_ISO_8,1,1,48,67,1538470728
105,15,7,Jits_ISO_8,2,5,56,103,1538472160
105,15,7,Jits_ISO_8,3,5,63,98,1538491872
105,15,7,Jits_ISO_8,0,5,80,127,1539232168
105,15,7,Jits_ISO_8,1,1,48,72,1539268996
105,15,7,Jits_ISO_8,2,5,63,98,1539291436
105,15,7,Jits_ISO_8,3,5,56,103,1539372336
105,15,7,Jits_ISO_8,0,5,80,127,1540012336
105,15,7,Jits_ISO_8,1,5,56,103,1540052276
105,15,7,Jits_ISO_8,2,1,48,62,1540060120
105,15,7,Jits_ISO_8,3,5,63,98,1540071980
105,15,7,Jits_ISO_8,0,5,56,103,1540862400
105,15,7,Jits_ISO_8,1,1,48,67,1540870192
105,15,7,Jits_ISO_8,2,5,80,127,1540871764
105,15,7,Jits_ISO_8,3,5,63,98,1540911404
105,15,7,Jits_ISO_8,0,1,48,62,1541662916
105,15,7,Jits_ISO_8,1,5,56,103,1541731720
105,15,7,Jits_ISO_8,2,5,63,98,1541771512
105,15,7,Jits_ISO_8,3,5,80,127,1541775104
105,15,7,Jits_ISO_8,0,5,63,98,1542421972
105,15,7,Jits_ISO_8,1,5,80,127,1542462060
105,15,7,Jits_ISO_8,2,1,48,72,1542519336
105,15,7,Jits_ISO_8,3,5,56,103,1542531436
105,15,7,Jits_ISO_8,0,5,63,98,1543212532
105,15,7,Jits_ISO_8,1,1,48,71,1543223600
105,15,7,Jits_ISO_8,2,5,56,103,1543292176
105,15,7,Jits_ISO_8,3,5,80,127,1543351900
105,15,7,Jits_ISO_8,0,1,48,69,1543994224
105,15,7,Jits_ISO_8,1,5,80,127,1544022352
105,15,7,Jits_ISO_8,2,5,63,98,1544071508
105,15,7,Jits_ISO_8,3,5,56,103,1544102316
105,15,7,Jits_ISO_8,0,1,48,44,1544769576
105,15,7,Jits_ISO_8,1,5,56,103,1544811872
105,15,7,Jits_ISO_8,2,5,63,98,1544862100
105,15,7,Jits_ISO_8,3,5,80,127,1544872428
105,15,7,Jits_ISO_8,0,1,48,73,1545453456
105,15,7,Jits_ISO_8,1,5,56,103,1545621924
105,15,7,Jits_ISO_8,2,5,63,98,1545731316
105,15,7,Jits_ISO_8,3,5,80,127,1545751776
105,15,7,Jits_ISO_8,0,1,48,62,1546367788
105,15,7,Jits_ISO_8,1,5,63,98,1546421796
105,15,7,Jits_ISO_8,2,5,80,127,1546471984
105,15,7,Jits_ISO_8,3,5,56,103,1546561820
105,15,7,Jits_ISO_8,0,5,63,98,1547212220
105,15,7,Jits_ISO_8,1,1,48,64,1547217360
105,15,7,Jits_ISO_8,2,5,80,127,1547241892
105,15,7,Jits_ISO_8,3,5,56,103,1547332084
105,15,7,Jits_ISO_8,0,1,48,66,1548000812
105,15,7,Jits_ISO_8,1,5,63,98,1548012072
105,15,7,Jits_ISO_8,2,5,56,103,1548022340
105,15,7,Jits_ISO_8,3,5,80,127,1548121452
105,15,7,Jits_ISO_8,0,1,48,68,1548769104
105,15,7,Jits_ISO_8,1,5,63,98,1548912008
105,15,7,Jits_ISO_8,2,5,80,127,1548941784
105,15,7,Jits_ISO_8,3,5,56,103,1548972356
105,15,7,Jits_ISO_8,0,1,48,70,1549644060
105,15,7,Jits_ISO_8,1,5,80,127,1549732148
105,15,7,Jits_ISO_8,2,5,63,98,1549741356
105,15,7,Jits_ISO_8,3,5,56,103,1549772004
105,15,7,Jits_ISO_8,0,5,80,127,1550431600
105,15,7,Jits_ISO_8,1,5,63,98,1550452056
105,15,7,Jits_ISO_8,2,5,56,103,1550502208
105,15,7,Jits_ISO_8,3,1,48,80,1550514248
105,15,7,Jits_ISO_8,0,5,63,98,1551261984
105,15,7,Jits_ISO_8,1,1,48,60,1551273648
105,15,7,Jits_ISO_8,2,5,80,127,1551321548
105,15,7,Jits_ISO_8,3,5,56,103,1551341932
105,15,7,Jits_ISO_8,0,5,63,98,1552021840
105,15,7,Jits_ISO_8,1,5,56,103,1552072192
105,15,7,Jits_ISO_8,2,5,80,127,1552082240
105,15,7,Jits_ISO_8,3,1,48,66,1552117268
105,15,7,Jits_ISO_8,0,5,56,103,1552852484
105,15,7,Jits_ISO_8,1,5,80,127,1552861560
105,15,7,Jits_ISO_8,2,1,48,76,1552868340
105,15,7,Jits_ISO_8,3,5,63,98,1552962024
105,15,7,Jits_ISO_8,0,5,80,127,1553612200
105,15,7,Jits_ISO_8,1,5,63,98,1553622324
105,15,7,Jits_ISO_8,2,1,48,67,1553692644
105,15,7,Jits_ISO_8,3,5,56,103,1553772008
105,15,7,Jits_ISO_8,0,5,63,98,1554422188
105,15,7,Jits_ISO_8,1,5,80,127,1554461980
105,15,7,Jits_ISO_8,2,1,48,70,1554462944
105,15,7,Jits_ISO_8,3,5,56,103,1554541988
105,15,7,Jits_ISO_8,0,5,56,103,1555211856
105,15,7,Jits_ISO_8,1,1,48,68,1555244864
105,15,7,Jits_ISO_8,2,5,80,127,1555311876
105,15,7,Jits_ISO_8,3,5,63,98,1555331512
105,15,7,Jits_ISO_8,0,1,48,78,1555990624
105,15,7,Jits_ISO_8,1,5,80,127,1556071712
105,15,7,Jits_ISO_8,2,5,56,103,1556081908
105,15,7,Jits_ISO_8,3,5,63,98,1556172124
105,15,7,Jits_ISO_8,0,1,48,82,1556819684
105,15,7,Jits_ISO_8,1,5,56,103,1556872020
105,15,7,Jits_ISO_8,2,5,63,98,1556891912
105,15,7,Jits_ISO_8,3,5,80,127,1556971912
105,15,7,Jits_ISO_8,0,1,48,73,1557612440
105,15,7,Jits_ISO_8,1,5,63,98,1557622208
105,15,7,Jits_ISO_8,2,5,56,103,1557712276
105,15,7,Jits_ISO_8,3,5,80,127,1557715344
105,15,7,Jits_ISO_8,0,1,48,72,1558432472
105,15,7,Jits_ISO_8,1,5,56,103,1558451676
105,15,7,Jits_ISO_8,2,5,80,127,1558511848
105,15,7,Jits_ISO_8,3,5,63,98,1558522192
105,15,7,Jits_ISO_8,0,1,48,67,1559201168
105,15,7,Jits_ISO_8,1,5,80,127,1559301500
105,15,7,Jits_ISO_8,2,5,56,103,1559311996
105,15,7,Jits_ISO_8,3,5,63,98,1559314908
105,15,7,Jits_ISO_8,0,1,48,77,1560056904
105,15,7,Jits_ISO_8,1,5,56,103,1560062256
105,15,7,Jits_ISO_8,2,5,80,127,1560071700
105,15,7,Jits_ISO_8,3,5,63,98,1560091940
105,15,7,Jits_ISO_8,0,1,48,85,1560816448
105,15,7,Jits_ISO_8,1,5,63,98,1560832736
105,15,7,Jits_ISO_8,2,5,80,127,1560891712
105,15,7,Jits_ISO_8,3,5,56,103,1560941900
105,15,7,Jits_ISO_8,0,1,48,69,1561628368
105,15,7,Jits_ISO_8,1,5,63,98,1561712020
105,15,7,Jits_ISO_8,2,5,56,103,1561722292
105,15,7,Jits_ISO_8,3,5,80,127,1561772280
105,15,7,Jits_ISO_8,0,5,63,98,1562412392
105,15,7,Jits_ISO_8,1,5,80,127,1562431880
105,15,7,Jits_ISO_8,2,5,56,103,1562442224
105,15,7,Jits_ISO_8,3,1,48,67,1562453808
105,15,7,Jits_ISO_8,0,1,48,72,1563167776
105,15,7,Jits_ISO_8,1,5,63,98,1563212004
105,15,7,Jits_ISO_8,2,5,80,127,1563215372
105,15,7,Jits_ISO_8,3,5,56,103,1563252024
105,15,7,Jits_ISO_8,0,1,48,68,1564022468
105,15,7,Jits_ISO_8,1,5,63,98,1564081484
105,15,7,Jits_ISO_8,2,5,80,127,1564112208
105,15,7,Jits_ISO_8,3,5,56,103,1564121712
105,15,7,Jits_ISO_8,0,1,48,79,1564769344
105,15,7,Jits_ISO_8,1,5,56,103,1564832040
105,15,7,Jits_ISO_8,2,5,80,127,1564861704
105,15,7,Jits_ISO_8,3,5,63,98,1564891452
105,15,7,Jits_ISO_8,0,1,48,75,1565550256
105,15,7,Jits_ISO_8,1,5,63,98,1565732128
105,15,7,Jits_ISO_8,2,5,56,103,1565772216
105,15,7,Jits_ISO_8,3,5,80,127,1565775280
105,15,7,Jits_ISO_8,0,5,80,127,1566431764
105,15,7,Jits_ISO_8,1,1,48,70,1566434808
105,15,7,Jits_ISO_8,2,5,56,103,1566511408
105,15,7,Jits_ISO_8,3,5,63,98,1566561816
105,15,7,Jits_ISO_8,0,5,80,127,1567211788
105,15,7,Jits_ISO_8,1,5,56,103,1567232396
105,15,7,Jits_ISO_8,2,1,48,62,1567261588
105,15,7,Jits_ISO_8,3,5,63,98,1567321696
105,15,7,Jits_ISO_8,0,5,80,127,1568051664
105,15,7,Jits_ISO_8,1,1,48,75,1568069456
105,15,7,Jits_ISO_8,2,5,63,98,1568091448
105,15,7,Jits_ISO_8,3,5,56,103,1568131608
105,15,7,Jits_ISO_8,0,5,63,98,1568821792
105,15,7,Jits_ISO_8,1,5,80,127,1568882036
105,15,7,Jits_ISO_8,2,5,56,103,1568911736
105,15,7,Jits_ISO_8,3,1,48,87,1568937844
105,15,7,Jits_ISO_8,0,5,56,103,1569622396
105,15,7,Jits_ISO_8,1,5,80,127,1569652000
105,15,7,Jits_ISO_8,2,5,63,98,1569742156
105,15,7,Jits_ISO_8,3,1,48,84,1569854648
105,15,7,Jits_ISO_8,0,5,56,103,1570432232
105,15,7,Jits_ISO_8,1,5,80,127,1570541800
105,15,7,Jits_ISO_8,2,5,63,98,1570571848
105,15,7,Jits_ISO_8,3,1,48,60,1570603808
105,15,7,Jits_ISO_8,0,5,56,103,1571282408
105,15,7,Jits_ISO_8,1,5,63,98,1571341680
105,15,7,Jits_ISO_8,2,5,80,127,1571372400
105,15,7,Jits_ISO_8,3,1,48,77,1571417544
105,15,7,Jits_ISO_8,0,5,56,103,1572052316
105,15,7,Jits_ISO_8,1,5,63,98,1572121928
105,15,7,Jits_ISO_8,2,5,80,127,1572141636
105,15,7,Jits_ISO_8,3,1,48,84,1572183636
105,15,7,Jits_ISO_8,0,5,80,127,1572822448
105,15,7,Jits_ISO_8,1,5,63,98,1572841788
105,15,7,Jits_ISO_8,2,5,56,103,1572892064
105,15,7,Jits_ISO_8,3,1,48,70,1572927544
105,15,7,Jits_ISO_8,0,9999,9999,9999,1478079596
105,15,7,Jits_ISO_8,1,9999,9999,9999,1478879296
105,15,7,Jits_ISO_8,2,9999,9999,9999,1479680060
105,15,7,Jits_ISO_8,3,9999,9999,9999,1480490096
105,15,7,Jits_ISO_8,4,9999,9999,9999,1481289812
105,15,7,Jits_ISO_8,5,9999,9999,9999,1482089524
105,15,7,Jits_ISO_8,6,9999,9999,9999,1482889316
105,15,7,Jits_ISO_8,7,9999,9999,9999,1483690108
105,15,7,Jits_ISO_8,8,9999,9999,9999,1484489796
105,15,7,Jits_ISO_8,9,9999,9999,9999,1485289564
105,15,7,Jits_ISO_8,10,9999,9999,9999,1486089292
105,15,7,Jits_ISO_8,11,9999,9999,9999,1486890052
105,15,7,Jits_ISO_8,12,9999,9999,9999,1487689780
105,15,7,Jits_ISO_8,13,9999,9999,9999,1488489576
105,15,7,Jits_ISO_8,14,9999,9999,9999,1489289272
105,15,7,Jits_ISO_8,15,9999,9999,9999,1490090052
105,15,7,Jits_ISO_8,16,9999,9999,9999,1490889820
105,15,7,Jits_ISO_8,17,9999,9999,9999,1491689548
105,15,7,Jits_ISO_8,18,9999,9999,9999,1492489336
105,15,7,Jits_ISO_8,19,9999,9999,9999,1493290092
105,15,7,Jits_ISO_8,20,9999,9999,9999,1494089796
105,15,7,Jits_ISO_8,21,9999,9999,9999,1494889580
105,15,7,Jits_ISO_8,22,9999,9999,9999,1495689272
105,15,7,Jits_ISO_8,23,9999,9999,9999,1496490080
105,15,7,Jits_ISO_8,24,9999,9999,9999,1497289788
105,15,7,Jits_ISO_8,25,9999,9999,9999,1498089568
105,15,7,Jits_ISO_8,26,9999,9999,9999,1498889276
105,15,7,Jits_ISO_8,27,9999,9999,9999,1499690108
105,15,7,Jits_ISO_8,28,9999,9999,9999,1500489828
105,15,7,Jits_ISO_8,29,9999,9999,9999,1501289544
105,15,7,Jits_ISO_8,30,9999,9999,9999,1502089328
105,15,7,Jits_ISO_8,31,9999,9999,9999,1502890104
105,15,7,Jits_ISO_8,32,9999,9999,9999,1503689812
105,15,7,Jits_ISO_8,33,9999,9999,9999,1504489588
105,15,7,Jits_ISO_8,34,9999,9999,9999,1505289312
105,15,7,Jits_ISO_8,35,9999,9999,9999,1506090076
105,15,7,Jits_ISO_8,36,9999,9999,9999,1506889796
105,15,7,Jits_ISO_8,37,9999,9999,9999,1507689580
105,15,7,Jits_ISO_8,38,9999,9999,9999,1508489288
105,15,7,Jits_ISO_8,39,9999,9999,9999,1509290068
105,15,7,Jits_ISO_8,40,9999,9999,9999,1510089780
105,15,7,Jits_ISO_8,41,9999,9999,9999,1510889564
105,15,7,Jits_ISO_8,42,9999,9999,9999,1511689272
105,15,7,Jits_ISO_8,43,9999,9999,9999,1512490092
105,15,7,Jits_ISO_8,44,9999,9999,9999,1513289784
105,15,7,Jits_ISO_8,45,9999,9999,9999,1514089572
105,15,7,Jits_ISO_8,46,9999,9999,9999,1514889296
105,15,7,Jits_ISO_8,47,9999,9999,9999,1515690064
105,15,7,Jits_ISO_8,48,9999,9999,9999,1516489852
105,15,7,Jits_ISO_8,49,9999,9999,9999,1517289552
105,15,7,Jits_ISO_8,50,9999,9999,9999,1518089336
105,15,7,Jits_ISO_8,51,9999,9999,9999,1518890092
105,15,7,Jits_ISO_8,52,9999,9999,9999,1519689804
105,15,7,Jits_ISO_8,53,9999,9999,9999,1520489596
105,15,7,Jits_ISO_8,54,9999,9999,9999,1521289300
105,15,7,Jits_ISO_8,55,9999,9999,9999,1522090072
105,15,7,Jits_ISO_8,56,9999,9999,9999,1522889780
105,15,7,Jits_ISO_8,57,9999,9999,9999,1523689564
105,15,7,Jits_ISO_8,58,9999,9999,9999,1524489272
105,15,7,Jits_ISO_8,59,9999,9999,9999,1525290104
105,15,7,Jits_ISO_8,60,9999,9999,9999,1526089788
105,15,7,Jits_ISO_8,61,9999,9999,9999,1526889576
105,15,7,Jits_ISO_8,62,9999,9999,9999,1527689284
105,15,7,Jits_ISO_8,63,9999,9999,9999,1528490048
105,15,7,Jits_ISO_8,64,9999,9999,9999,1529289836
105,15,7,Jits_ISO_8,65,9999,9999,9999,1530089548
105,15,7,Jits_ISO_8,66,9999,9999,9999,1530889264
105,15,7,Jits_ISO_8,67,9999,9999,9999,1531690100
105,15,7,Jits_ISO_8,68,9999,9999,9999,1532489800
105,15,7,Jits_ISO_8,69,9999,9999,9999,1533289524
105,15,7,Jits_ISO_8,70,9999,9999,9999,1534089300
105,15,7,Jits_ISO_8,71,9999,9999,9999,1534890088
105,15,7,Jits_ISO_8,72,9999,9999,9999,1535689792
105,15,7,Jits_ISO_8,73,9999,9999,9999,1536489596
105,15,7,Jits_ISO_8,74,9999,9999,9999,1537289308
105,15,7,Jits_ISO_8,75,9999,9999,9999,1538090064
105,15,7,Jits_ISO_8,76,9999,9999,9999,1538889784
105,15,7,Jits_ISO_8,77,9999,9999,9999,1539689584
105,15,7,Jits_ISO_8,78,9999,9999,9999,1540489300
105,15,7,Jits_ISO_8,79,9999,9999,9999,1541290088
105,15,7,Jits_ISO_8,80,9999,9999,9999,1542089816
105,15,7,Jits_ISO_8,81,9999,9999,9999,1542889596
105,15,7,Jits_ISO_8,82,9999,9999,9999,1543689304
105,15,7,Jits_ISO_8,83,9999,9999,9999,1544490056
105,15,7,Jits_ISO_8,84,9999,9999,9999,1545289836
105,15,7,Jits_ISO_8,85,9999,9999,9999,1546089548
105,15,7,Jits_ISO_8,86,9999,9999,9999,1546889332
105,15,7,Jits_ISO_8,87,9999,9999,9999,1547690108
105,15,7,Jits_ISO_8,88,9999,9999,9999,1548489816
105,15,7,Jits_ISO_8,89,9999,9999,9999,1549289532
105,15,7,Jits_ISO_8,90,9999,9999,9999,1550089324
105,15,7,Jits_ISO_8,91,9999,9999,9999,1550890076
105,15,7,Jits_ISO_8,92,9999,9999,9999,1551689804
105,15,7,Jits_ISO_8,93,9999,9999,9999,1552489588
105,15,7,Jits_ISO_8,94,9999,9999,9999,1553289296
105,15,7,Jits_ISO_8,95,9999,9999,9999,1554090088
105,15,7,Jits_ISO_8,96,9999,9999,9999,1554889812
105,15,7,Jits_ISO_8,97,9999,9999,9999,1555689572
105,15,7,Jits_ISO_8,98,9999,9999,9999,1556489296
105,15,7,Jits_ISO_8,99,9999,9999,9999,1557290056
105,15,7,Jits_ISO_8,100,9999,9999,9999,1558089832
105,15,7,Jits_ISO_8,101,9999,9999,9999,1558889544
105,15,7,Jits_ISO_8,102,9999,9999,9999,1559689320
105,15,7,Jits_ISO_8,103,9999,9999,9999,1560490100
105,15,7,Jits_ISO_8,104,9999,9999,9999,1561289812
105,15,7,Jits_ISO_8,105,9999,9999,9999,1562089528
105,15,7,Jits_ISO_8,106,9999,9999,9999,1562889304
105,15,7,Jits_ISO_8,107,9999,9999,9999,1563690040
105,15,7,Jits_ISO_8,108,9999,9999,9999,1564489828
105,15,7,Jits_ISO_8,109,9999,9999,9999,1565289528
105,15,7,Jits_ISO_8,110,9999,9999,9999,1566089316
105,15,7,Jits_ISO_8,111,9999,9999,9999,1566890100
105,15,7,Jits_ISO_8,112,9999,9999,9999,1567689820
105,15,7,Jits_ISO_8,113,9999,9999,9999,1568489548
105,15,7,Jits_ISO_8,114,9999,9999,9999,1569289340
105,15,7,Jits_ISO_8,115,9999,9999,9999,1570090092
105,15,7,Jits_ISO_8,116,9999,9999,9999,1570889824
105,15,7,Jits_ISO_8,117,9999,9999,9999,1571689552
105,15,7,Jits_ISO_8,118,9999,9999,9999,1572489304
105,15,7,Jits_ISO_8,119,9999,9999,9999,1573290068
105,16,17,Jits_Phase_5,0,5,56,103,1580976548
105,16,17,Jits_Phase_5,1,5,63,98,1580979724
105,16,17,Jits_Phase_5,2,5,80,127,1580982844
105,16,17,Jits_Phase_5,0,5,56,103,1581477228
105,16,17,Jits_Phase_5,1,5,63,98,1581480480
105,16,17,Jits_Phase_5,2,5,80,127,1581483524
105,16,17,Jits_Phase_5,0,5,56,103,1581976804
105,16,17,Jits_Phase_5,1,5,80,127,1581987076
105,16,17,Jits_Phase_5,2,5,63,98,1582006636
105,16,17,Jits_Phase_5,0,5,63,98,1582426536
105,16,17,Jits_Phase_5,1,1,48,22,1582443356
105,16,17,Jits_Phase_5,2,5,80,127,1582457400
105,16,17,Jits_Phase_5,3,5,56,103,1582466624
105,16,17,Jits_Phase_5,0,1,48,23,1582927516
105,16,17,Jits_Phase_5,1,5,80,127,1582986680
105,16,17,Jits_Phase_5,2,5,56,103,1582996948
105,16,17,Jits_Phase_5,3,5,63,98,1583026756
105,16,17,Jits_Phase_5,0,1,48,32,1583476600
105,16,17,Jits_Phase_5,1,5,63,98,1583478164
105,16,17,Jits_Phase_5,2,5,56,103,1583506816
105,16,17,Jits_Phase_5,3,5,80,127,1583517088
105,16,17,Jits_Phase_5,0,5,56,103,1583926680
105,16,17,Jits_Phase_5,1,5,63,98,1583976732
105,16,17,Jits_Phase_5,2,5,80,127,1583997564
105,16,17,Jits_Phase_5,3,1,48,22,1584022356
105,16,17,Jits_Phase_5,0,5,80,127,1584427640
105,16,17,Jits_Phase_5,1,5,63,98,1584476720
105,16,17,Jits_Phase_5,2,1,48,38,1584493540
105,16,17,Jits_Phase_5,3,5,56,103,1584516500
105,16,17,Jits_Phase_5,0,5,56,103,1584926956
105,16,17,Jits_Phase_5,1,5,63,98,1584956856
105,16,17,Jits_Phase_5,2,1,48,43,1584983344
105,16,17,Jits_Phase_5,3,5,80,127,1585026748
105,16,17,Jits_Phase_5,0,5,56,103,1585426944
105,16,17,Jits_Phase_5,1,1,48,35,1585481528
105,16,17,Jits_Phase_5,2,5,80,127,1585487176
105,16,17,Jits_Phase_5,3,5,63,98,1585516852
105,16,17,Jits_Phase_5,0,5,56,103,1585936752
105,16,17,Jits_Phase_5,1,5,63,98,1585947096
105,16,17,Jits_Phase_5,2,1,48,35,1585963100
105,16,17,Jits_Phase_5,3,5,80,127,1585987028
105,16,17,Jits_Phase_5,0,5,63,98,1586427524
105,16,17,Jits_Phase_5,1,1,48,41,1586449900
105,16,17,Jits_Phase_5,2,5,80,127,1586507164
105,16,17,Jits_Phase_5,3,5,56,103,1586517508
105,16,17,Jits_Phase_5,0,5,63,98,1586977176
105,16,17,Jits_Phase_5,1,1,48,48,1586987268
105,16,17,Jits_Phase_5,2,5,56,103,1587016948
105,16,17,Jits_Phase_5,3,5,80,127,1587020096
105,16,17,Jits_Phase_5,0,5,56,103,1587436840
105,16,17,Jits_Phase_5,1,5,63,98,1587447108
105,16,17,Jits_Phase_5,2,1,48,53,1587479896
105,16,17,Jits_Phase_5,3,5,80,127,1587487040
105,16,17,Jits_Phase_5,0,5,56,103,1587927604
105,16,17,Jits_Phase_5,1,5,63,98,1587930672
105,16,17,Jits_Phase_5,2,5,80,127,1587946792
105,16,17,Jits_Phase_5,3,1,48,53,1587987964
105,16,17,Jits_Phase_5,0,5,80,127,1588437544
105,16,17,Jits_Phase_5,1,5,56,103,1588446692
105,16,17,Jits_Phase_5,2,1,48,50,1588508244
105,16,17,Jits_Phase_5,3,5,63,98,1588517112
105,16,17,Jits_Phase_5,0,5,63,98,1588926892
105,16,17,Jits_Phase_5,1,1,48,51,1588930012
105,16,17,Jits_Phase_5,2,5,56,103,1588947568
105,16,17,Jits_Phase_5,3,5,80,127,1589027044
105,16,17,Jits_Phase_5,0,5,56,103,1589436904
105,16,17,Jits_Phase_5,1,5,80,127,1589476844
105,16,17,Jits_Phase_5,2,1,48,41,1589477808
105,16,17,Jits_Phase_5,3,5,63,98,1589486956
105,16,17,Jits_Phase_5,0,5,80,127,1589927524
105,16,17,Jits_Phase_5,1,1,48,53,1589950800
105,16,17,Jits_Phase_5,2,5,63,98,1589956896
105,16,17,Jits_Phase_5,3,5,56,103,1589996984
105,16,17,Jits_Phase_5,0,1,48,42,1590412644
105,16,17,Jits_Phase_5,1,5,56,103,1590446540
105,16,17,Jits_Phase_5,2,5,63,98,1590477188
105,16,17,Jits_Phase_5,3,5,80,127,1590527444
105,16,17,Jits_Phase_5,0,1,48,49,1590928436
105,16,17,Jits_Phase_5,1,5,80,127,1590947112
105,16,17,Jits_Phase_5,2,5,56,103,1590986976
105,16,17,Jits_Phase_5,3,5,63,98,1590997620
105,16,17,Jits_Phase_5,0,1,48,64,1591360576
105,16,17,Jits_Phase_5,1,5,80,127,1591426608
105,16,17,Jits_Phase_5,2,5,63,98,1591467528
105,16,17,Jits_Phase_5,3,5,56,103,1591526720
105,16,17,Jits_Phase_5,0,1,48,63,1591885576
105,16,17,Jits_Phase_5,1,5,56,103,1591927032
105,16,17,Jits_Phase_5,2,5,80,127,1591937748
105,16,17,Jits_Phase_5,3,5,63,98,1592017472
105,16,17,Jits_Phase_5,0,1,48,67,1592359768
105,16,17,Jits_Phase_5,1,5,80,127,1592426856
105,16,17,Jits_Phase_5,2,5,63,98,1592487328
105,16,17,Jits_Phase_5,3,5,56,103,1592516928
105,16,17,Jits_Phase_5,0,1,48,62,1592881772
105,16,17,Jits_Phase_5,1,5,56,103,1592926828
105,16,17,Jits_Phase_5,2,5,80,127,1592986932
105,16,17,Jits_Phase_5,3,5,63,98,1593026868
105,16,17,Jits_Phase_5,0,1,48,62,1593376212
105,16,17,Jits_Phase_5,1,5,56,103,1593476612
105,16,17,Jits_Phase_5,2,5,63,98,1593486684
105,16,17,Jits_Phase_5,3,5,80,127,1593490048
105,16,17,Jits_Phase_5,0,1,48,67,1593884184
105,16,17,Jits_Phase_5,1,5,80,127,1593926924
105,16,17,Jits_Phase_5,2,5,63,98,1594017068
105,16,17,Jits_Phase_5,3,5,56,103,1594027488
105,16,17,Jits_Phase_5,0,1,48,67,1594393448
105,16,17,Jits_Phase_5,1,5,56,103,1594426732
105,16,17,Jits_Phase_5,2,5,63,98,1594429756
105,16,17,Jits_Phase_5,3,5,80,127,1594432956
105,16,17,Jits_Phase_5,0,1,48,67,1594886964
105,16,17,Jits_Phase_5,1,5,80,127,1594946928
105,16,17,Jits_Phase_5,2,5,63,98,1594997112
105,16,17,Jits_Phase_5,3,5,56,103,1595026664
105,16,17,Jits_Phase_5,0,5,56,103,1595427204
105,16,17,Jits_Phase_5,1,5,80,127,1595437696
105,16,17,Jits_Phase_5,2,1,48,54,1595465176
105,16,17,Jits_Phase_5,3,5,63,98,1595506996
105,16,17,Jits_Phase_5,0,5,56,103,1595937304
105,16,17,Jits_Phase_5,1,5,63,98,1595956568
105,16,17,Jits_Phase_5,2,1,48,57,1595980888
105,16,17,Jits_Phase_5,3,5,80,127,1596016948
105,16,17,Jits_Phase_5,0,5,80,127,1596417440
105,16,17,Jits_Phase_5,1,1,48,65,1596481616
105,16,17,Jits_Phase_5,2,5,63,98,1596486892
105,16,17,Jits_Phase_5,3,5,56,103,1596506452
105,16,17,Jits_Phase_5,0,5,80,127,1596946724
105,16,17,Jits_Phase_5,1,1,48,68,1596957440
105,16,17,Jits_Phase_5,2,5,56,103,1596958704
105,16,17,Jits_Phase_5,3,5,63,98,1596967408
105,16,17,Jits_Phase_5,0,5,80,127,1597437492
105,16,17,Jits_Phase_5,1,5,56,103,1597456684
105,16,17,Jits_Phase_5,2,1,48,54,1597507148
105,16,17,Jits_Phase_5,3,5,63,98,1597527324
105,16,17,Jits_Phase_5,0,1,48,61,1597935508
105,16,17,Jits_Phase_5,1,5,56,103,1597947444
105,16,17,Jits_Phase_5,2,5,80,127,1597976820
105,16,17,Jits_Phase_5,3,5,63,98,1597997504
105,16,17,Jits_Phase_5,0,5,63,98,1598436788
105,16,17,Jits_Phase_5,1,1,48,62,1598471820
105,16,17,Jits_Phase_5,2,5,56,103,1598497320
105,16,17,Jits_Phase_5,3,5,80,127,1598526696
105,16,17,Jits_Phase_5,0,5,63,98,1598927176
105,16,17,Jits_Phase_5,1,5,80,127,1598930464
105,16,17,Jits_Phase_5,2,1,48,59,1598977492
105,16,17,Jits_Phase_5,3,5,56,103,1599017516
105,16,17,Jits_Phase_5,0,1,48,65,1599446916
105,16,17,Jits_Phase_5,1,5,56,103,1599448628
105,16,17,Jits_Phase_5,2,5,63,98,1599477112
105,16,17,Jits_Phase_5,3,5,80,127,1599516896
105,16,17,Jits_Phase_5,0,5,63,98,1599947120
105,16,17,Jits_Phase_5,1,1,48,53,1599974596
105,16,17,Jits_Phase_5,2,5,56,103,1599986976
105,16,17,Jits_Phase_5,3,5,80,127,1600006536
105,16,17,Jits_Phase_5,0,1,48,54,1600431256
105,16,17,Jits_Phase_5,1,5,63,98,1600457128
105,16,17,Jits_Phase_5,2,5,56,103,1600497068
105,16,17,Jits_Phase_5,3,5,80,127,1600507484
105,16,17,Jits_Phase_5,0,5,80,127,1600937404
105,16,17,Jits_Phase_5,1,1,48,52,1600980604
105,16,17,Jits_Phase_5,2,5,63,98,1601006928
105,16,17,Jits_Phase_5,3,5,56,103,1601026340
105,16,17,Jits_Phase_5,0,5,56,103,1601426832
105,16,17,Jits_Phase_5,1,5,80,127,1601447436
105,16,17,Jits_Phase_5,2,1,48,58,1601455808
105,16,17,Jits_Phase_5,3,5,63,98,1601487292
105,16,17,Jits_Phase_5,0,1,48,57,1601933520
105,16,17,Jits_Phase_5,1,5,63,98,1601936848
105,16,17,Jits_Phase_5,2,5,80,127,1601957456
105,16,17,Jits_Phase_5,3,5,56,103,1601997240
105,16,17,Jits_Phase_5,0,1,48,55,1602408296
105,16,17,Jits_Phase_5,1,5,63,98,1602436644
105,16,17,Jits_Phase_5,2,5,56,103,1602456904
105,16,17,Jits_Phase_5,3,5,80,127,1602467396
105,16,17,Jits_Phase_5,0,5,80,127,1602937144
105,16,17,Jits_Phase_5,1,5,56,103,1602956804
105,16,17,Jits_Phase_5,2,1,48,59,1602968764
105,16,17,Jits_Phase_5,3,5,63,98,1602987292
105,16,17,Jits_Phase_5,0,1,48,70,1603426388
105,16,17,Jits_Phase_5,1,5,56,103,1603506524
105,16,17,Jits_Phase_5,2,5,80,127,1603509664
105,16,17,Jits_Phase_5,3,5,63,98,1603527040
105,16,17,Jits_Phase_5,0,5,63,98,1603927436
105,16,17,Jits_Phase_5,1,1,48,59,1603947568
105,16,17,Jits_Phase_5,2,5,56,103,1603957028
105,16,17,Jits_Phase_5,3,5,80,127,1604016392
105,16,17,Jits_Phase_5,0,1,48,64,1604392300
105,16,17,Jits_Phase_5,1,5,63,98,1604507192
105,16,17,Jits_Phase_5,2,5,56,103,1604517536
105,16,17,Jits_Phase_5,3,5,80,127,1604526388
105,16,17,Jits_Phase_5,0,1,48,67,1604842456
105,16,17,Jits_Phase_5,1,5,56,103,1604966620
105,16,17,Jits_Phase_5,2,5,80,127,1604996592
105,16,17,Jits_Phase_5,3,5,63,98,1605006664
105,16,17,Jits_Phase_5,0,1,48,61,1605419904
105,16,17,Jits_Phase_5,1,5,63,98,1605506540
105,16,17,Jits_Phase_5,2,5,56,103,1605516612
105,16,17,Jits_Phase_5,3,5,80,127,1605537280
105,16,17,Jits_Phase_5,0,5,56,103,1605936556
105,16,17,Jits_Phase_5,1,5,63,98,1605996788
105,16,17,Jits_Phase_5,2,5,80,127,1606000156
105,16,17,Jits_Phase_5,3,1,48,54,1606057840
105,16,17,Jits_Phase_5,0,5,80,127,1606456684
105,16,17,Jits_Phase_5,1,5,56,103,1606466880
105,16,17,Jits_Phase_5,2,1,48,45,1606506484
105,16,17,Jits_Phase_5,3,5,63,98,1606536648
105,16,17,Jits_Phase_5,0,5,80,127,1606947304
105,16,17,Jits_Phase_5,1,1,48,48,1607014868
105,16,17,Jits_Phase_5,2,5,56,103,1607016752
105,16,17,Jits_Phase_5,3,5,63,98,1607027468
105,16,17,Jits_Phase_5,0,5,63,98,1607486852
105,16,17,Jits_Phase_5,1,5,56,103,1607497196
105,16,17,Jits_Phase_5,2,1,48,23,1607516312
105,16,17,Jits_Phase_5,3,5,80,127,1607517724
105,16,17,Jits_Phase_5,0,5,80,127,1607937380
105,16,17,Jits_Phase_5,1,1,48,50,1607967548
105,16,17,Jits_Phase_5,2,5,63,98,1607996716
105,16,17,Jits_Phase_5,3,5,56,103,1608036576
105,16,17,Jits_Phase_5,0,5,56,103,1608487264
105,16,17,Jits_Phase_5,1,5,63,98,1608496636
105,16,17,Jits_Phase_5,2,5,80,127,1608536572
105,16,17,Jits_Phase_5,3,1,48,35,1608538060
105,16,17,Jits_Phase_5,0,5,56,103,1608946948
105,16,17,Jits_Phase_5,1,5,80,127,1608976772
105,16,17,Jits_Phase_5,2,1,48,43,1609016676
105,16,17,Jits_Phase_5,3,5,63,98,1609026964
105,16,17,Jits_Phase_5,0,5,56,103,1609486640
105,16,17,Jits_Phase_5,1,1,48,41,1609502712
105,16,17,Jits_Phase_5,2,5,63,98,1609526644
105,16,17,Jits_Phase_5,3,5,80,127,1609530084
105,16,17,Jits_Phase_5,0,5,56,103,1609986472
105,16,17,Jits_Phase_5,1,5,63,98,1609996596
105,16,17,Jits_Phase_5,2,5,80,127,1610017276
105,16,17,Jits_Phase_5,3,1,48,32,1610038152
105,16,17,Jits_Phase_5,0,5,56,103,1610447348
105,16,17,Jits_Phase_5,1,5,80,127,1610450268
105,16,17,Jits_Phase_5,2,5,63,98,1610487284
105,16,17,Jits_Phase_5,3,1,48,46,1610499916
105,16,17,Jits_Phase_5,0,1,48,27,1610934936
105,16,17,Jits_Phase_5,1,5,63,98,1610986728
105,16,17,Jits_Phase_5,2,5,56,103,1611016628
105,16,17,Jits_Phase_5,3,5,80,127,1611036996
105,16,17,Jits_Phase_5,0,1,48,41,1611448544
105,16,17,Jits_Phase_5,1,5,80,127,1611456884
105,16,17,Jits_Phase_5,2,5,56,103,1611467304
105,16,17,Jits_Phase_5,3,5,63,98,1611477500
105,16,17,Jits_Phase_5,0,1,48,48,1611937724
105,16,17,Jits_Phase_5,1,5,56,103,1611956484
105,16,17,Jits_Phase_5,2,5,80,127,1611996420
105,16,17,Jits_Phase_5,3,1,48,28,1612026372
105,16,17,Jits_Phase_5,4,5,63,98,1612027564
105,16,17,Jits_Phase_5,0,5,63,98,1612466460
105,16,17,Jits_Phase_5,1,5,80,127,1612476656
105,16,17,Jits_Phase_5,2,1,48,43,1612481796
105,16,17,Jits_Phase_5,3,5,56,103,1612487216
105,16,17,Jits_Phase_5,0,5,56,103,1612957064
105,16,17,Jits_Phase_5,1,1,48,50,1612971496
105,16,17,Jits_Phase_5,2,5,63,98,1613026664
105,16,17,Jits_Phase_5,3,5,80,127,1613036860
105,16,17,Jits_Phase_5,0,5,80,127,1613466868
105,16,17,Jits_Phase_5,1,1,48,46,1613471552
105,16,17,Jits_Phase_5,2,5,56,103,1613477504
105,16,17,Jits_Phase_5,3,5,63,98,1613527552
105,16,17,Jits_Phase_5,0,5,80,127,1613976892
105,16,17,Jits_Phase_5,1,1,48,55,1613999268
105,16,17,Jits_Phase_5,2,5,56,103,1614037572
105,16,17,Jits_Phase_5,3,5,63,98,1614067020
105,16,17,Jits_Phase_5,0,5,56,103,1614476580
105,16,17,Jits_Phase_5,1,5,80,127,1614479648
105,16,17,Jits_Phase_5,2,1,48,37,1614501196
105,16,17,Jits_Phase_5,3,5,63,98,1614516660
105,16,17,Jits_Phase_5,0,5,56,103,1615007048
105,16,17,Jits_Phase_5,1,5,63,98,1615036872
105,16,17,Jits_Phase_5,2,1,48,51,1615037840
105,16,17,Jits_Phase_5,3,5,80,127,1615046988
105,16,17,Jits_Phase_5,0,1,48,65,1615492668
105,16,17,Jits_Phase_5,1,5,63,98,1615516996
105,16,17,Jits_Phase_5,2,5,80,127,1615527492
105,16,17,Jits_Phase_5,3,5,56,103,1615536416
105,16,17,Jits_Phase_5,0,5,80,127,1615966680
105,16,17,Jits_Phase_5,1,5,56,103,1616016600
105,16,17,Jits_Phase_5,2,1,48,53,1616017584
105,16,17,Jits_Phase_5,3,5,63,98,1616020788
105,16,17,Jits_Phase_5,0,1,48,57,1616484764
105,16,17,Jits_Phase_5,1,5,56,103,1616497216
105,16,17,Jits_Phase_5,2,5,80,127,1616516480
105,16,17,Jits_Phase_5,3,5,63,98,1616526848
105,16,17,Jits_Phase_5,0,1,48,62,1616976440
105,16,17,Jits_Phase_5,1,5,63,98,1616978084
105,16,17,Jits_Phase_5,2,5,56,103,1617006936
105,16,17,Jits_Phase_5,3,5,80,127,1617026496
105,16,17,Jits_Phase_5,0,1,48,56,1617482072
105,16,17,Jits_Phase_5,1,5,56,103,1617487496
105,16,17,Jits_Phase_5,2,5,80,127,1617496348
105,16,17,Jits_Phase_5,3,5,63,98,1617567096
105,16,17,Jits_Phase_5,0,1,48,59,1617949088
105,16,17,Jits_Phase_5,1,5,63,98,1617976612
105,16,17,Jits_Phase_5,2,5,80,127,1618016552
105,16,17,Jits_Phase_5,3,5,56,103,1618056572
105,16,17,Jits_Phase_5,0,1,48,51,1618461492
105,16,17,Jits_Phase_5,1,5,56,103,1618486696
105,16,17,Jits_Phase_5,2,5,63,98,1618496820
105,16,17,Jits_Phase_5,3,5,80,127,1618517276
105,16,17,Jits_Phase_5,0,1,48,46,1619017888
105,16,17,Jits_Phase_5,1,5,63,98,1619027424
105,16,17,Jits_Phase_5,2,5,80,127,1619046760
105,16,17,Jits_Phase_5,3,5,56,103,1619067368
105,16,17,Jits_Phase_5,0,5,56,103,1619466728
105,16,17,Jits_Phase_5,1,1,48,68,1619517272
105,16,17,Jits_Phase_5,2,5,80,127,1619546588
105,16,17,Jits_Phase_5,3,5,63,98,1619556860
105,16,17,Jits_Phase_5,0,1,48,54,1620003312
105,16,17,Jits_Phase_5,1,5,80,127,1620007240
105,16,17,Jits_Phase_5,2,5,63,98,1620016464
105,16,17,Jits_Phase_5,3,5,56,103,1620047480
105,16,17,Jits_Phase_5,0,1,48,48,1620428828
105,16,17,Jits_Phase_5,1,5,63,98,1620466912
105,16,17,Jits_Phase_5,2,5,80,127,1620506924
105,16,17,Jits_Phase_5,3,5,56,103,1620567444
105,16,17,Jits_Phase_5,0,1,48,56,1620957268
105,16,17,Jits_Phase_5,1,5,63,98,1620976996
105,16,17,Jits_Phase_5,2,5,56,103,1621027268
105,16,17,Jits_Phase_5,3,5,80,127,1621056852
105,16,17,Jits_Phase_5,0,5,80,127,1621476680
105,16,17,Jits_Phase_5,1,5,63,98,1621486876
105,16,17,Jits_Phase_5,2,1,48,35,1621489996
105,16,17,Jits_Phase_5,3,5,56,103,1621556544
105,16,17,Jits_Phase_5,0,1,48,51,1621908984
105,16,17,Jits_Phase_5,1,5,80,127,1622036812
105,16,17,Jits_Phase_5,2,5,56,103,1622047608
105,16,17,Jits_Phase_5,3,5,63,98,1622050444
105,16,17,Jits_Phase_5,0,1,48,49,1622458108
105,16,17,Jits_Phase_5,1,5,56,103,1622477684
105,16,17,Jits_Phase_5,2,5,80,127,1622496576
105,16,17,Jits_Phase_5,3,5,63,98,1622506848
105,16,17,Jits_Phase_5,0,5,63,98,1622987556
105,16,17,Jits_Phase_5,1,1,48,61,1622992844
105,16,17,Jits_Phase_5,2,5,56,103,1623027192
105,16,17,Jits_Phase_5,3,5,80,127,1623046528
105,16,17,Jits_Phase_5,0,1,48,59,1623435520
105,16,17,Jits_Phase_5,1,5,63,98,1623486860
105,16,17,Jits_Phase_5,2,5,56,103,1623547456
105,16,17,Jits_Phase_5,3,5,80,127,1623550596
105,16,17,Jits_Phase_5,0,5,56,103,1623946604
105,16,17,Jits_Phase_5,1,5,80,127,1623967216
105,16,17,Jits_Phase_5,2,5,63,98,1624007004
105,16,17,Jits_Phase_5,3,1,48,58,1624013708
105,16,17,Jits_Phase_5,0,5,56,103,1624477232
105,16,17,Jits_Phase_5,1,5,63,98,1624496496
105,16,17,Jits_Phase_5,2,5,80,127,1624506768
105,16,17,Jits_Phase_5,3,1,48,41,1624566520
105,16,17,Jits_Phase_5,0,5,80,127,1624947228
105,16,17,Jits_Phase_5,1,5,56,103,1624976632
105,16,17,Jits_Phase_5,2,1,48,52,1624999976
105,16,17,Jits_Phase_5,3,5,63,98,1625016560
105,16,17,Jits_Phase_5,0,5,80,127,1625457180
105,16,17,Jits_Phase_5,1,5,56,103,1625476444
105,16,17,Jits_Phase_5,2,1,48,59,1625510076
105,16,17,Jits_Phase_5,3,5,63,98,1625536996
105,16,17,Jits_Phase_5,0,5,56,103,1625966836
105,16,17,Jits_Phase_5,1,5,80,127,1625986396
105,16,17,Jits_Phase_5,2,1,48,59,1626023244
105,16,17,Jits_Phase_5,3,5,63,98,1626046872
105,16,17,Jits_Phase_5,0,5,80,127,1626447332
105,16,17,Jits_Phase_5,1,5,56,103,1626456560
105,16,17,Jits_Phase_5,2,5,63,98,1626497468
105,16,17,Jits_Phase_5,3,1,48,42,1626519412
105,16,17,Jits_Phase_5,0,1,48,60,1626926096
105,16,17,Jits_Phase_5,1,5,63,98,1626946792
105,16,17,Jits_Phase_5,2,5,56,103,1626986804
105,16,17,Jits_Phase_5,3,5,80,127,1626989944
105,16,17,Jits_Phase_5,0,5,63,98,1627467216
105,16,17,Jits_Phase_5,1,1,48,57,1627480224
105,16,17,Jits_Phase_5,2,5,80,127,1627507220
105,16,17,Jits_Phase_5,3,5,56,103,1627536696
105,16,17,Jits_Phase_5,0,5,56,103,1627956628
105,16,17,Jits_Phase_5,1,5,63,98,1627967120
105,16,17,Jits_Phase_5,2,1,48,50,1627992784
105,16,17,Jits_Phase_5,3,5,80,127,1627996564
105,16,17,Jits_Phase_5,0,5,80,127,1628447248
105,16,17,Jits_Phase_5,1,1,48,39,1628513296
105,16,17,Jits_Phase_5,2,5,63,98,1628516772
105,16,17,Jits_Phase_5,3,5,56,103,1628526968
105,16,17,Jits_Phase_5,0,5,63,98,1628946788
105,16,17,Jits_Phase_5,1,1,48,51,1628952000
105,16,17,Jits_Phase_5,2,5,56,103,1629016388
105,16,17,Jits_Phase_5,3,5,80,127,1629026732
105,16,17,Jits_Phase_5,0,5,63,98,1629427284
105,16,17,Jits_Phase_5,1,5,56,103,1629446472
105,16,17,Jits_Phase_5,2,5,80,127,1629486408
105,16,17,Jits_Phase_5,3,1,48,59,1629498444
105,16,17,Jits_Phase_5,0,5,56,103,1629907180
105,16,17,Jits_Phase_5,1,5,63,98,1629916628
105,16,17,Jits_Phase_5,2,5,80,127,1629997392
105,16,17,Jits_Phase_5,3,1,48,49,1630007632
105,16,17,Jits_Phase_5,0,5,63,98,1630396832
105,16,17,Jits_Phase_5,1,5,56,103,1630426360
105,16,17,Jits_Phase_5,2,5,80,127,1630466444
105,16,17,Jits_Phase_5,3,1,48,29,1630535116
105,16,17,Jits_Phase_5,0,5,56,103,1630896360
105,16,17,Jits_Phase_5,1,1,48,46,1630920228
105,16,17,Jits_Phase_5,2,1,38,14,1630929200
105,16,17,Jits_Phase_5,3,5,63,98,1630936420
105,16,17,Jits_Phase_5,4,5,80,127,1630977252
105,16,17,Jits_Phase_5,0,1,48,56,1631383648
105,16,17,Jits_Phase_5,1,5,80,127,1631397388
105,16,17,Jits_Phase_5,2,5,56,103,1631478440
105,16,17,Jits_Phase_5,3,5,63,98,1631487440
105,16,17,Jits_Phase_5,0,1,48,35,1631888576
105,16,17,Jits_Phase_5,1,5,56,103,1631937228
105,16,17,Jits_Phase_5,2,5,63,98,1631940288
105,16,17,Jits_Phase_5,3,5,80,127,1631947344
105,16,17,Jits_Phase_5,0,1,48,63,1632405928
105,16,17,Jits_Phase_5,1,5,56,103,1632457268
105,16,17,Jits_Phase_5,2,5,63,98,1632476456
105,16,17,Jits_Phase_5,3,5,80,127,1632486652
105,16,17,Jits_Phase_5,0,1,48,49,1632892984
105,16,17,Jits_Phase_5,1,5,63,98,1632916940
105,16,17,Jits_Phase_5,2,5,80,127,1632927208
105,16,17,Jits_Phase_5,3,5,56,103,1632946472
105,16,17,Jits_Phase_5,0,5,63,98,1633426736
105,16,17,Jits_Phase_5,1,1,48,66,1633427624
105,16,17,Jits_Phase_5,2,5,56,103,1633506744
105,16,17,Jits_Phase_5,3,5,80,127,1633509808
105,16,17,Jits_Phase_5,0,5,63,98,1633926456
105,16,17,Jits_Phase_5,1,1,48,59,1633938592
105,16,17,Jits_Phase_5,2,5,56,103,1633947228
105,16,17,Jits_Phase_5,3,5,80,127,1633976756
105,16,17,Jits_Phase_5,0,5,56,103,1634427176
105,16,17,Jits_Phase_5,1,5,63,98,1634446760
105,16,17,Jits_Phase_5,2,5,80,127,1634457104
105,16,17,Jits_Phase_5,3,1,48,70,1634460676
105,16,17,Jits_Phase_5,0,1,48,43,1634911768
105,16,17,Jits_Phase_5,1,5,56,103,1634956552
105,16,17,Jits_Phase_5,2,5,63,98,1634987344
105,16,17,Jits_Phase_5,3,5,80,127,1634990708
105,16,17,Jits_Phase_5,0,5,56,103,1635407196
105,16,17,Jits_Phase_5,1,5,63,98,1635447432
105,16,17,Jits_Phase_5,2,1,48,59,1635481440
105,16,17,Jits_Phase_5,3,5,80,127,1635506496
105,16,17,Jits_Phase_5,0,5,56,103,1635927340
105,16,17,Jits_Phase_5,1,5,63,98,1635936564
105,16,17,Jits_Phase_5,2,1,48,64,1635970768
105,16,17,Jits_Phase_5,3,5,80,127,1635997416
105,16,17,Jits_Phase_5,0,5,56,103,1636427180
105,16,17,Jits_Phase_5,1,5,80,127,1636446520
105,16,17,Jits_Phase_5,2,1,48,70,1636448384
105,16,17,Jits_Phase_5,3,5,63,98,1636477232
105,16,17,Jits_Phase_5,0,5,80,127,1636926796
105,16,17,Jits_Phase_5,1,1,48,64,1636936388
105,16,17,Jits_Phase_5,2,5,56,103,1636937956
105,16,17,Jits_Phase_5,3,5,63,98,1636956472
105,16,17,Jits_Phase_5,0,5,63,98,1637417340
105,16,17,Jits_Phase_5,1,1,48,42,1637452372
105,16,17,Jits_Phase_5,2,5,80,127,1637497204
105,16,17,Jits_Phase_5,3,5,56,103,1637506352
105,16,17,Jits_Phase_5,0,1,48,63,1637956548
105,16,17,Jits_Phase_5,1,5,80,127,1638007368
105,16,17,Jits_Phase_5,2,5,56,103,1638026652
105,16,17,Jits_Phase_5,3,5,63,98,1638029720
105,16,17,Jits_Phase_5,0,1,48,56,1638484972
105,16,17,Jits_Phase_5,1,5,63,98,1638496700
105,16,17,Jits_Phase_5,2,5,80,127,1638499988
105,16,17,Jits_Phase_5,3,5,56,103,1638557184
105,16,17,Jits_Phase_5,0,5,56,103,1638977040
105,16,17,Jits_Phase_5,1,5,80,127,1638987236
105,16,17,Jits_Phase_5,2,1,48,62,1638993420
105,16,17,Jits_Phase_5,3,5,63,98,1639027164
105,16,17,Jits_Phase_5,0,5,56,103,1639457316
105,16,17,Jits_Phase_5,1,1,48,55,1639463956
105,16,17,Jits_Phase_5,2,5,63,98,1639516580
105,16,17,Jits_Phase_5,3,5,80,127,1639526852
105,16,17,Jits_Phase_5,0,1,48,50,1639956300
105,16,17,Jits_Phase_5,1,5,63,98,1639967040
105,16,17,Jits_Phase_5,2,5,80,127,1640007272
105,16,17,Jits_Phase_5,3,5,56,103,1640047060
105,16,17,Jits_Phase_5,0,1,48,56,1640458520
105,16,17,Jits_Phase_5,1,5,56,103,1640466788
105,16,17,Jits_Phase_5,2,5,63,98,1640546728
105,16,17,Jits_Phase_5,3,5,80,127,1640550168
105,16,17,Jits_Phase_5,0,1,48,60,1640988520
105,16,17,Jits_Phase_5,1,5,80,127,1641027208
105,16,17,Jits_Phase_5,2,5,56,103,1641056584
105,16,17,Jits_Phase_5,3,5,63,98,1641059652
105,16,17,Jits_Phase_5,0,5,56,103,1641486652
105,16,17,Jits_Phase_5,1,5,80,127,1641507332
105,16,17,Jits_Phase_5,2,5,63,98,1641547196
105,16,17,Jits_Phase_5,0,5,80,127,1641966900
105,16,17,Jits_Phase_5,1,5,63,98,1641986608
105,16,17,Jits_Phase_5,2,1,48,48,1641989356
105,16,17,Jits_Phase_5,3,5,56,103,1642046916
105,16,17,Jits_Phase_5,0,5,63,98,1642476924
105,16,17,Jits_Phase_5,1,5,56,103,1642487044
105,16,17,Jits_Phase_5,2,1,48,59,1642497436
105,16,17,Jits_Phase_5,3,5,80,127,1642537312
105,16,17,Jits_Phase_5,0,5,56,103,1642967304
105,16,17,Jits_Phase_5,1,5,63,98,1642986792
105,16,17,Jits_Phase_5,2,5,80,127,1642997060
105,16,17,Jits_Phase_5,3,1,48,42,1643000700
105,16,17,Jits_Phase_5,0,1,48,50,1643425604
105,16,17,Jits_Phase_5,1,5,56,103,1643457164
105,16,17,Jits_Phase_5,2,5,63,98,1643460232
105,16,17,Jits_Phase_5,3,5,80,127,1643477324
105,16,17,Jits_Phase_5,0,1,48,61,1643922704
105,16,17,Jits_Phase_5,1,5,63,98,1643996456
105,16,17,Jits_Phase_5,2,5,56,103,1644027236
105,16,17,Jits_Phase_5,3,5,80,127,1644057060
105,16,17,Jits_Phase_5,0,1,48,49,1644423576
105,16,17,Jits_Phase_5,1,5,80,127,1644457472
105,16,17,Jits_Phase_5,2,5,56,103,1644546540
105,16,17,Jits_Phase_5,3,5,63,98,1644549456
105,16,17,Jits_Phase_5,0,1,48,56,1644920000
105,16,17,Jits_Phase_5,1,5,56,103,1644957364
105,16,17,Jits_Phase_5,2,5,80,127,1644960424
105,16,17,Jits_Phase_5,3,5,63,98,1645037056
105,16,17,Jits_Phase_5,0,1,48,55,1645413284
105,16,17,Jits_Phase_5,1,5,80,127,1645456724
105,16,17,Jits_Phase_5,2,5,63,98,1645517248
105,16,17,Jits_Phase_5,3,5,56,103,1645546996
105,16,17,Jits_Phase_5,0,1,48,60,1645938588
105,16,17,Jits_Phase_5,1,5,63,98,1645956524
105,16,17,Jits_Phase_5,2,5,80,127,1645966644
105,16,17,Jits_Phase_5,3,5,56,103,1646037500
105,16,17,Jits_Phase_5,0,1,48,35,1646422868
105,16,17,Jits_Phase_5,1,5,56,103,1646516652
105,16,17,Jits_Phase_5,2,5,80,127,1646547284
105,16,17,Jits_Phase_5,3,5,63,98,1646596364
105,16,17,Jits_Phase_5,0,1,48,58,1646939552
105,16,17,Jits_Phase_5,1,5,63,98,1647106436
105,16,17,Jits_Phase_5,2,5,56,103,1647137080
105,16,17,Jits_Phase_5,3,5,80,127,1647140072
105,16,17,Jits_Phase_5,0,1,48,35,1647580836
105,16,17,Jits_Phase_5,1,5,63,98,1647607016
105,16,17,Jits_Phase_5,2,5,80,127,1647626576
105,16,17,Jits_Phase_5,3,5,56,103,1647636772
105,16,17,Jits_Phase_5,0,1,48,48,1648053764
105,16,17,Jits_Phase_5,1,5,56,103,1648117176
105,16,17,Jits_Phase_5,2,5,63,98,1648120096
105,16,17,Jits_Phase_5,3,5,80,127,1648136440
105,16,17,Jits_Phase_5,0,5,56,103,1648566656
105,16,17,Jits_Phase_5,1,5,63,98,1648577076
105,16,17,Jits_Phase_5,2,5,80,127,1648606676
105,16,17,Jits_Phase_5,3,1,48,49,1648627776
105,16,17,Jits_Phase_5,0,5,63,98,1649087092
105,16,17,Jits_Phase_5,1,1,48,30,1649095316
105,16,17,Jits_Phase_5,2,5,80,127,1649107248
105,16,17,Jits_Phase_5,3,5,56,103,1649147184
105,16,17,Jits_Phase_5,0,1,48,48,1649605620
105,16,17,Jits_Phase_5,1,5,56,103,1649617404
105,16,17,Jits_Phase_5,2,5,63,98,1649657336
105,16,17,Jits_Phase_5,3,5,80,127,1649660628
105,16,17,Jits_Phase_5,0,5,80,127,1650056548
105,16,17,Jits_Phase_5,1,5,56,103,1650096560
105,16,17,Jits_Phase_5,2,1,48,54,1650123492
105,16,17,Jits_Phase_5,3,5,63,98,1650146676
105,16,17,Jits_Phase_5,0,1,48,43,1650615560
105,16,17,Jits_Phase_5,1,5,56,103,1650617132
105,16,17,Jits_Phase_5,2,5,80,127,1650626956
105,16,17,Jits_Phase_5,3,5,63,98,1650656632
105,16,17,Jits_Phase_5,0,5,56,103,1651067272
105,16,17,Jits_Phase_5,1,5,80,127,1651107088
105,16,17,Jits_Phase_5,2,1,48,46,1651124524
105,16,17,Jits_Phase_5,3,5,63,98,1651157504
105,16,17,Jits_Phase_5,0,5,56,103,1651566964
105,16,17,Jits_Phase_5,1,1,48,54,1651568228
105,16,17,Jits_Phase_5,2,5,80,127,1651606996
105,16,17,Jits_Phase_5,3,5,63,98,1651657196
105,16,17,Jits_Phase_5,0,5,80,127,1652056540
105,16,17,Jits_Phase_5,1,5,63,98,1652137404
105,16,17,Jits_Phase_5,2,1,48,42,1652144892
105,16,17,Jits_Phase_5,3,5,56,103,1652146472
105,16,17,Jits_Phase_5,0,5,80,127,1652607316
105,16,17,Jits_Phase_5,1,5,56,103,1652616640
105,16,17,Jits_Phase_5,2,5,63,98,1652637024
105,16,17,Jits_Phase_5,3,1,48,41,1652690480
105,16,17,Jits_Phase_5,0,5,63,98,1653077492
105,16,17,Jits_Phase_5,1,5,56,103,1653147120
105,16,17,Jits_Phase_5,2,5,80,127,1653150036
105,16,17,Jits_Phase_5,3,1,48,51,1653175568
105,16,17,Jits_Phase_5,0,5,80,127,1653566896
105,16,17,Jits_Phase_5,1,5,63,98,1653617024
105,16,17,Jits_Phase_5,2,1,48,54,1653646092
105,16,17,Jits_Phase_5,3,5,56,103,1653657128
105,16,17,Jits_Phase_5,0,5,63,98,1654106524
105,16,17,Jits_Phase_5,1,5,56,103,1654146312
105,16,17,Jits_Phase_5,2,5,80,127,1654156756
105,16,17,Jits_Phase_5,3,1,48,53,1654157944
105,16,17,Jits_Phase_5,0,5,63,98,1654597136
105,16,17,Jits_Phase_5,1,5,56,103,1654616400
105,16,17,Jits_Phase_5,2,1,48,52,1654618260
105,16,17,Jits_Phase_5,3,5,80,127,1654636996
105,16,17,Jits_Phase_5,0,5,80,127,1655056880
105,16,17,Jits_Phase_5,1,5,56,103,1655067000
105,16,17,Jits_Phase_5,2,5,63,98,1655086412
105,16,17,Jits_Phase_5,3,1,48,32,1655134484
105,16,17,Jits_Phase_5,0,1,48,55,1655561692
105,16,17,Jits_Phase_5,1,5,63,98,1655587124
105,16,17,Jits_Phase_5,2,5,56,103,1655627060
105,16,17,Jits_Phase_5,3,5,80,127,1655657256
105,16,17,Jits_Phase_5,0,5,56,103,1656047172
105,16,17,Jits_Phase_5,1,5,63,98,1656076624
105,16,17,Jits_Phase_5,2,1,48,51,1656107268
105,16,17,Jits_Phase_5,3,5,80,127,1656108680
105,16,17,Jits_Phase_5,0,5,80,127,1656467156
105,16,17,Jits_Phase_5,1,5,56,103,1656536388
105,16,17,Jits_Phase_5,2,5,63,98,1656539532
105,16,17,Jits_Phase_5,3,1,48,41,1656592088
105,16,17,Jits_Phase_5,0,5,56,103,1656977028
105,16,17,Jits_Phase_5,1,1,48,43,1656991984
105,16,17,Jits_Phase_5,2,5,63,98,1657027072
105,16,17,Jits_Phase_5,3,5,80,127,1657056744
105,16,17,Jits_Phase_5,0,1,48,45,1657371240
105,16,17,Jits_Phase_5,1,5,63,98,1657457204
105,16,17,Jits_Phase_5,2,5,80,127,1657460416
105,16,17,Jits_Phase_5,3,5,56,103,1657517300
105,16,17,Jits_Phase_5,0,1,48,37,1657986540
105,16,17,Jits_Phase_5,1,5,56,103,1657987876
105,16,17,Jits_Phase_5,2,5,80,127,1657996604
105,16,17,Jits_Phase_5,3,5,63,98,1658047100
105,16,17,Jits_Phase_5,0,5,63,98,1658456396
105,16,17,Jits_Phase_5,1,5,56,103,1658466816
105,16,17,Jits_Phase_5,2,1,48,35,1658467856
105,16,17,Jits_Phase_5,3,5,80,127,1658497384
105,16,17,Jits_Phase_5,0,5,63,98,1658987148
105,16,17,Jits_Phase_5,1,5,80,127,1658990440
105,16,17,Jits_Phase_5,2,5,56,103,1659016624
105,16,17,Jits_Phase_5,3,1,48,57,1659051576
105,16,17,Jits_Phase_5,0,1,48,58,1659503408
105,16,17,Jits_Phase_5,1,5,63,98,1659507040
105,16,17,Jits_Phase_5,2,5,56,103,1659526472
105,16,17,Jits_Phase_5,3,5,80,127,1659529612
105,16,17,Jits_Phase_5,0,5,63,98,1659966780
105,16,17,Jits_Phase_5,1,5,56,103,1660036532
105,16,17,Jits_Phase_5,2,5,80,127,1660057016
105,16,17,Jits_Phase_5,3,1,48,47,1660078712
105,16,17,Jits_Phase_5,0,5,56,103,1660457240
105,16,17,Jits_Phase_5,1,5,63,98,1660466536
105,16,17,Jits_Phase_5,2,1,48,41,1660527412
105,16,17,Jits_Phase_5,3,5,80,127,1660556532
105,16,17,Jits_Phase_5,0,5,56,103,1660976552
105,16,17,Jits_Phase_5,1,5,80,127,1661016564
105,16,17,Jits_Phase_5,2,5,63,98,1661026612
105,16,17,Jits_Phase_5,3,1,48,55,1661028096
105,16,17,Jits_Phase_5,0,5,56,103,1661496624
105,16,17,Jits_Phase_5,1,1,48,54,1661505364
105,16,17,Jits_Phase_5,2,5,63,98,1661527412
105,16,17,Jits_Phase_5,3,5,80,127,1661557236
105,16,17,Jits_Phase_5,0,5,80,127,1661956532
105,16,17,Jits_Phase_5,1,1,48,57,1661983920
105,16,17,Jits_Phase_5,2,5,63,98,1661997360
105,16,17,Jits_Phase_5,3,5,56,103,1662016996
105,16,17,Jits_Phase_5,0,1,48,53,1662474772
105,16,17,Jits_Phase_5,1,5,56,103,1662497116
105,16,17,Jits_Phase_5,2,5,80,127,1662516456
105,16,17,Jits_Phase_5,3,5,63,98,1662537060
105,16,17,Jits_Phase_5,0,1,48,37,1662954580
105,16,17,Jits_Phase_5,1,5,63,98,1662967272
105,16,17,Jits_Phase_5,2,5,56,103,1662977320
105,16,17,Jits_Phase_5,3,5,80,127,1663036884
105,16,17,Jits_Phase_5,0,1,48,46,1663460924
105,16,17,Jits_Phase_5,1,5,56,103,1663466876
105,16,17,Jits_Phase_5,2,5,63,98,1663536628
105,16,17,Jits_Phase_5,3,5,80,127,1663557088
105,16,17,Jits_Phase_5,0,1,48,38,1663963816
105,16,17,Jits_Phase_5,1,5,56,103,1663966476
105,16,17,Jits_Phase_5,2,5,63,98,1663997272
105,16,17,Jits_Phase_5,3,5,80,127,1664037208
105,16,17,Jits_Phase_5,0,5,63,98,1664457016
105,16,17,Jits_Phase_5,1,1,48,36,1664496104
105,16,17,Jits_Phase_5,2,5,56,103,1664507212
105,16,17,Jits_Phase_5,3,5,80,127,1664516360
105,16,17,Jits_Phase_5,0,5,56,103,1664996916
105,16,17,Jits_Phase_5,1,5,63,98,1665047044
105,16,17,Jits_Phase_5,2,1,48,53,1665049940
105,16,17,Jits_Phase_5,3,5,80,127,1665057084
105,16,17,Jits_Phase_5,0,5,56,103,1665466792
105,16,17,Jits_Phase_5,1,5,63,98,1665476916
105,16,17,Jits_Phase_5,2,1,48,55,1665495844
105,16,17,Jits_Phase_5,3,5,80,127,1665556996
105,16,17,Jits_Phase_5,0,9999,9999,9999,1581225028
105,16,17,Jits_Phase_5,1,9999,9999,9999,1581724736
105,16,17,Jits_Phase_5,2,9999,9999,9999,1582224464
105,16,17,Jits_Phase_5,3,9999,9999,9999,1582724216
105,16,17,Jits_Phase_5,4,9999,9999,9999,1583224932
105,16,17,Jits_Phase_5,5,9999,9999,9999,1583724612
105,16,17,Jits_Phase_5,6,9999,9999,9999,1584224364
105,16,17,Jits_Phase_5,7,9999,9999,9999,1584725100
105,16,17,Jits_Phase_5,8,9999,9999,9999,1585224788
105,16,17,Jits_Phase_5,9,9999,9999,9999,1585724476
105,16,17,Jits_Phase_5,10,9999,9999,9999,1586224244
105,16,17,Jits_Phase_5,11,9999,9999,9999,1586724984
105,16,17,Jits_Phase_5,12,9999,9999,9999,1587224656
105,16,17,Jits_Phase_5,13,9999,9999,9999,1587724404
105,16,17,Jits_Phase_5,14,9999,9999,9999,1588224076
105,16,17,Jits_Phase_5,15,9999,9999,9999,1588724812
105,16,17,Jits_Phase_5,16,9999,9999,9999,1589224572
105,16,17,Jits_Phase_5,17,9999,9999,9999,1589724248
105,16,17,Jits_Phase_5,18,9999,9999,9999,1590224984
105,16,17,Jits_Phase_5,19,9999,9999,9999,1590724676
105,16,17,Jits_Phase_5,20,9999,9999,9999,1591224424
105,16,17,Jits_Phase_5,21,9999,9999,9999,1591724100
105,16,17,Jits_Phase_5,22,9999,9999,9999,1592224892
105,16,17,Jits_Phase_5,23,9999,9999,9999,1592724568
105,16,17,Jits_Phase_5,24,9999,9999,9999,1593224324
105,16,17,Jits_Phase_5,25,9999,9999,9999,1593725012
105,16,17,Jits_Phase_5,26,9999,9999,9999,1594224764
105,16,17,Jits_Phase_5,27,9999,9999,9999,1594724412
105,16,17,Jits_Phase_5,28,9999,9999,9999,1595224164
105,16,17,Jits_Phase_5,29,9999,9999,9999,1595724884
105,16,17,Jits_Phase_5,30,9999,9999,9999,1596214384
105,16,17,Jits_Phase_5,31,9999,9999,9999,1596715124
105,16,17,Jits_Phase_5,32,9999,9999,9999,1597225072
105,16,17,Jits_Phase_5,33,9999,9999,9999,1597724764
105,16,17,Jits_Phase_5,34,9999,9999,9999,1598224456
105,16,17,Jits_Phase_5,35,9999,9999,9999,1598724212
105,16,17,Jits_Phase_5,36,9999,9999,9999,1599224920
105,16,17,Jits_Phase_5,37,9999,9999,9999,1599724600
105,16,17,Jits_Phase_5,38,9999,9999,9999,1600224348
105,16,17,Jits_Phase_5,39,9999,9999,9999,1600725076
105,16,17,Jits_Phase_5,40,9999,9999,9999,1601224824
105,16,17,Jits_Phase_5,41,9999,9999,9999,1601724508
105,16,17,Jits_Phase_5,42,9999,9999,9999,1602224196
105,16,17,Jits_Phase_5,43,9999,9999,9999,1602724988
105,16,17,Jits_Phase_5,44,9999,9999,9999,1603224660
105,16,17,Jits_Phase_5,45,9999,9999,9999,1603724344
105,16,17,Jits_Phase_5,46,9999,9999,9999,1604224068
105,16,17,Jits_Phase_5,47,9999,9999,9999,1604724788
105,16,17,Jits_Phase_5,48,9999,9999,9999,1605234804
105,16,17,Jits_Phase_5,49,9999,9999,9999,1605734484
105,16,17,Jits_Phase_5,50,9999,9999,9999,1606234224
105,16,17,Jits_Phase_5,51,9999,9999,9999,1606734960
105,16,17,Jits_Phase_5,52,9999,9999,9999,1607234648
105,16,17,Jits_Phase_5,53,9999,9999,9999,1607734340
105,16,17,Jits_Phase_5,54,9999,9999,9999,1608235064
105,16,17,Jits_Phase_5,55,9999,9999,9999,1608745016
105,16,17,Jits_Phase_5,56,9999,9999,9999,1609244776
105,16,17,Jits_Phase_5,57,9999,9999,9999,1609744460
105,16,17,Jits_Phase_5,58,9999,9999,9999,1610244152
105,16,17,Jits_Phase_5,59,9999,9999,9999,1610744944
105,16,17,Jits_Phase_5,60,9999,9999,9999,1611244636
105,16,17,Jits_Phase_5,61,9999,9999,9999,1611744380
105,16,17,Jits_Phase_5,62,9999,9999,9999,1612245080
105,16,17,Jits_Phase_5,63,9999,9999,9999,1612744808
105,16,17,Jits_Phase_5,64,9999,9999,9999,1613265008
105,16,17,Jits_Phase_5,65,9999,9999,9999,1613764696
105,16,17,Jits_Phase_5,66,9999,9999,9999,1614264384
105,16,17,Jits_Phase_5,67,9999,9999,9999,1614764136
105,16,17,Jits_Phase_5,68,9999,9999,9999,1615264876
105,16,17,Jits_Phase_5,69,9999,9999,9999,1615764564
105,16,17,Jits_Phase_5,70,9999,9999,9999,1616264304
105,16,17,Jits_Phase_5,71,9999,9999,9999,1616765012
105,16,17,Jits_Phase_5,72,9999,9999,9999,1617264760
105,16,17,Jits_Phase_5,73,9999,9999,9999,1617764436
105,16,17,Jits_Phase_5,74,9999,9999,9999,1618264184
105,16,17,Jits_Phase_5,75,9999,9999,9999,1618764904
105,16,17,Jits_Phase_5,76,9999,9999,9999,1619264584
105,16,17,Jits_Phase_5,77,9999,9999,9999,1619764336
105,16,17,Jits_Phase_5,78,9999,9999,9999,1620265076
105,16,17,Jits_Phase_5,79,9999,9999,9999,1620764748
105,16,17,Jits_Phase_5,80,9999,9999,9999,1621264496
105,16,17,Jits_Phase_5,81,9999,9999,9999,1621744696
105,16,17,Jits_Phase_5,82,9999,9999,9999,1622244460
105,16,17,Jits_Phase_5,83,9999,9999,9999,1622744136
105,16,17,Jits_Phase_5,84,9999,9999,9999,1623244864
105,16,17,Jits_Phase_5,85,9999,9999,9999,1623744612
105,16,17,Jits_Phase_5,86,9999,9999,9999,1624244284
105,16,17,Jits_Phase_5,87,9999,9999,9999,1624745024
105,16,17,Jits_Phase_5,88,9999,9999,9999,1625244784
105,16,17,Jits_Phase_5,89,9999,9999,9999,1625744472
105,16,17,Jits_Phase_5,90,9999,9999,9999,1626244212
105,16,17,Jits_Phase_5,91,9999,9999,9999,1626744940
105,16,17,Jits_Phase_5,92,9999,9999,9999,1627244616
105,16,17,Jits_Phase_5,93,9999,9999,9999,1627744372
105,16,17,Jits_Phase_5,94,9999,9999,9999,1628245088
105,16,17,Jits_Phase_5,95,9999,9999,9999,1628744780
105,16,17,Jits_Phase_5,96,9999,9999,9999,1629244472
105,16,17,Jits_Phase_5,97,9999,9999,9999,1629695072
105,16,17,Jits_Phase_5,98,9999,9999,9999,1630194748
105,16,17,Jits_Phase_5,99,9999,9999,9999,1630694512
105,16,17,Jits_Phase_5,100,9999,9999,9999,1631194216
105,16,17,Jits_Phase_5,101,9999,9999,9999,1631694932
105,16,17,Jits_Phase_5,102,9999,9999,9999,1632194672
105,16,17,Jits_Phase_5,103,9999,9999,9999,1632694352
105,16,17,Jits_Phase_5,104,9999,9999,9999,1633195072
105,16,17,Jits_Phase_5,105,9999,9999,9999,1633705080
105,16,17,Jits_Phase_5,106,9999,9999,9999,1634204756
105,16,17,Jits_Phase_5,107,9999,9999,9999,1634704504
105,16,17,Jits_Phase_5,108,9999,9999,9999,1635204160
105,16,17,Jits_Phase_5,109,9999,9999,9999,1635704952
105,16,17,Jits_Phase_5,110,9999,9999,9999,1636204644
105,16,17,Jits_Phase_5,111,9999,9999,9999,1636704336
105,16,17,Jits_Phase_5,112,9999,9999,9999,1637205068
105,16,17,Jits_Phase_5,113,9999,9999,9999,1637704764
105,16,17,Jits_Phase_5,114,9999,9999,9999,1638254704
105,16,17,Jits_Phase_5,115,9999,9999,9999,1638754376
105,16,17,Jits_Phase_5,116,9999,9999,9999,1639254120
105,16,17,Jits_Phase_5,117,9999,9999,9999,1639754852
105,16,17,Jits_Phase_5,118,9999,9999,9999,1640254536
105,16,17,Jits_Phase_5,119,9999,9999,9999,1640754280
105,16,17,Jits_Phase_5,120,9999,9999,9999,1641254992
105,16,17,Jits_Phase_5,121,9999,9999,9999,1641754688
105,16,17,Jits_Phase_5,122,9999,9999,9999,1642254392
105,16,17,Jits_Phase_5,123,9999,9999,9999,1642754152
105,16,17,Jits_Phase_5,124,9999,9999,9999,1643254868
105,16,17,Jits_Phase_5,125,9999,9999,9999,1643754616
105,16,17,Jits_Phase_5,126,9999,9999,9999,1644254288
105,16,17,Jits_Phase_5,127,9999,9999,9999,1644755004
105,16,17,Jits_Phase_5,128,9999,9999,9999,1645254740
105,16,17,Jits_Phase_5,129,9999,9999,9999,1645754488
105,16,17,Jits_Phase_5,130,9999,9999,9999,1646254132
105,16,17,Jits_Phase_5,131,9999,9999,9999,1646854268
105,16,17,Jits_Phase_5,132,9999,9999,9999,1647354984
105,16,17,Jits_Phase_5,133,9999,9999,9999,1647854660
105,16,17,Jits_Phase_5,134,9999,9999,9999,1648354404
105,16,17,Jits_Phase_5,135,9999,9999,9999,1648854072
105,16,17,Jits_Phase_5,136,9999,9999,9999,1649354808
105,16,17,Jits_Phase_5,137,9999,9999,9999,1649854556
105,16,17,Jits_Phase_5,138,9999,9999,9999,1650354300
105,16,17,Jits_Phase_5,139,9999,9999,9999,1650854968
105,16,17,Jits_Phase_5,140,9999,9999,9999,1651354720
105,16,17,Jits_Phase_5,141,9999,9999,9999,1651854408
105,16,17,Jits_Phase_5,142,9999,9999,9999,1652354148
105,16,17,Jits_Phase_5,143,9999,9999,9999,1652854880
105,16,17,Jits_Phase_5,144,9999,9999,9999,1653354564
105,16,17,Jits_Phase_5,145,9999,9999,9999,1653854320
105,16,17,Jits_Phase_5,146,9999,9999,9999,1654355060
105,16,17,Jits_Phase_5,147,9999,9999,9999,1654854736
105,16,17,Jits_Phase_5,148,9999,9999,9999,1655354480
105,16,17,Jits_Phase_5,149,9999,9999,9999,1655854172
105,16,17,Jits_Phase_5,150,9999,9999,9999,1656254584
105,16,17,Jits_Phase_5,151,9999,9999,9999,1656754268
105,16,17,Jits_Phase_5,152,9999,9999,9999,1657255008
105,16,17,Jits_Phase_5,153,9999,9999,9999,1657754680
105,16,17,Jits_Phase_5,154,9999,9999,9999,1658254428
105,16,17,Jits_Phase_5,155,9999,9999,9999,1658754152
105,16,17,Jits_Phase_5,156,9999,9999,9999,1659254856
105,16,17,Jits_Phase_5,157,9999,9999,9999,1659754596
105,16,17,Jits_Phase_5,158,9999,9999,9999,1660254272
105,16,17,Jits_Phase_5,159,9999,9999,9999,1660755064
105,16,17,Jits_Phase_5,160,9999,9999,9999,1661254756
105,16,17,Jits_Phase_5,161,9999,9999,9999,1661754448
105,16,17,Jits_Phase_5,162,9999,9999,9999,1662254136
105,16,17,Jits_Phase_5,163,9999,9999,9999,1662754876
105,16,17,Jits_Phase_5,164,9999,9999,9999,1663254624
105,16,17,Jits_Phase_5,165,9999,9999,9999,1663754300
105,16,17,Jits_Phase_5,166,9999,9999,9999,1664255096
105,16,17,Jits_Phase_5,167,9999,9999,9999,1664754772
105,16,17,Jits_Phase_5,168,9999,9999,9999,1665254524
105,16,17,Jits_Phase_5,169,9999,9999,9999,1665754208
105,17,15,Jits_Phase_8,0,5,56,103,1673733696
105,17,15,Jits_Phase_8,1,5,63,98,1673736868
105,17,15,Jits_Phase_8,2,5,80,127,1673739912
105,17,15,Jits_Phase_8,0,5,56,103,1674534236
105,17,15,Jits_Phase_8,1,5,63,98,1674537404
105,17,15,Jits_Phase_8,2,5,80,127,1674540380
105,17,15,Jits_Phase_8,0,5,80,127,1675273508
105,17,15,Jits_Phase_8,1,5,63,98,1675363864
105,17,15,Jits_Phase_8,2,5,56,103,1675373988
105,17,15,Jits_Phase_8,0,5,56,103,1676093844
105,17,15,Jits_Phase_8,1,5,63,98,1676104192
105,17,15,Jits_Phase_8,2,5,80,127,1676194124
105,17,15,Jits_Phase_8,0,5,63,98,1676863984
105,17,15,Jits_Phase_8,1,5,80,127,1676893660
105,17,15,Jits_Phase_8,2,5,56,103,1676924308
105,17,15,Jits_Phase_8,0,5,56,103,1677663552
105,17,15,Jits_Phase_8,1,1,48,15,1677689216
105,17,15,Jits_Phase_8,2,5,80,127,1677763820
105,17,15,Jits_Phase_8,3,5,63,98,1677814080
105,17,15,Jits_Phase_8,0,1,48,56,1678351892
105,17,15,Jits_Phase_8,1,5,56,103,1678464356
105,17,15,Jits_Phase_8,2,5,80,127,1678513388
105,17,15,Jits_Phase_8,3,5,63,98,1678553400
105,17,15,Jits_Phase_8,0,1,48,65,1679067200
105,17,15,Jits_Phase_8,1,5,80,127,1679293876
105,17,15,Jits_Phase_8,2,5,63,98,1679323700
105,17,15,Jits_Phase_8,3,5,56,103,1679394056
105,17,15,Jits_Phase_8,0,1,48,52,1679932596
105,17,15,Jits_Phase_8,1,5,63,98,1680124128
105,17,15,Jits_Phase_8,2,5,56,103,1680154100
105,17,15,Jits_Phase_8,3,5,80,127,1680214416
105,17,15,Jits_Phase_8,0,1,48,54,1680710536
105,17,15,Jits_Phase_8,1,5,56,103,1680863720
105,17,15,Jits_Phase_8,2,5,80,127,1680866788
105,17,15,Jits_Phase_8,3,5,63,98,1680984420
105,17,15,Jits_Phase_8,0,1,48,50,1681466388
105,17,15,Jits_Phase_8,1,5,56,103,1681744308
105,17,15,Jits_Phase_8,2,5,80,127,1681784172
105,17,15,Jits_Phase_8,3,5,63,98,1681794444
105,17,15,Jits_Phase_8,0,1,48,51,1682278480
105,17,15,Jits_Phase_8,1,5,56,103,1682504112
105,17,15,Jits_Phase_8,2,5,80,127,1682523376
105,17,15,Jits_Phase_8,3,5,63,98,1682604536
105,17,15,Jits_Phase_8,0,1,48,49,1683084788
105,17,15,Jits_Phase_8,1,5,80,127,1683293532
105,17,15,Jits_Phase_8,2,5,56,103,1683393880
105,17,15,Jits_Phase_8,3,5,63,98,1683404076
105,17,15,Jits_Phase_8,0,1,48,53,1683978496
105,17,15,Jits_Phase_8,1,5,63,98,1684063936
105,17,15,Jits_Phase_8,2,5,80,127,1684124188
105,17,15,Jits_Phase_8,3,5,56,103,1684134236
105,17,15,Jits_Phase_8,0,1,48,59,1684809336
105,17,15,Jits_Phase_8,1,5,56,103,1684864360
105,17,15,Jits_Phase_8,2,5,63,98,1684934056
105,17,15,Jits_Phase_8,3,5,80,127,1684937416
105,17,15,Jits_Phase_8,0,1,48,69,1685563312
105,17,15,Jits_Phase_8,1,5,63,98,1685693936
105,17,15,Jits_Phase_8,2,5,56,103,1685743912
105,17,15,Jits_Phase_8,3,5,80,127,1685747052
105,17,15,Jits_Phase_8,0,1,48,62,1686337732
105,17,15,Jits_Phase_8,1,5,56,103,1686453896
105,17,15,Jits_Phase_8,2,5,80,127,1686456960
105,17,15,Jits_Phase_8,3,5,63,98,1686543804
105,17,15,Jits_Phase_8,0,1,48,60,1687125408
105,17,15,Jits_Phase_8,1,5,63,98,1687294396
105,17,15,Jits_Phase_8,2,5,56,103,1687384380
105,17,15,Jits_Phase_8,3,5,80,127,1687414056
105,17,15,Jits_Phase_8,0,1,48,56,1688038024
105,17,15,Jits_Phase_8,1,5,56,103,1688083908
105,17,15,Jits_Phase_8,2,5,63,98,1688184216
105,17,15,Jits_Phase_8,3,5,80,127,1688213840
105,17,15,Jits_Phase_8,0,1,48,65,1688870000
105,17,15,Jits_Phase_8,1,5,63,98,1688904048
105,17,15,Jits_Phase_8,2,5,56,103,1688914244
105,17,15,Jits_Phase_8,3,5,80,127,1689004532
105,17,15,Jits_Phase_8,0,1,48,65,1689632680
105,17,15,Jits_Phase_8,1,5,63,98,1689724408
105,17,15,Jits_Phase_8,2,5,56,103,1689804212
105,17,15,Jits_Phase_8,3,5,80,127,1689807352
105,17,15,Jits_Phase_8,0,1,48,64,1690418936
105,17,15,Jits_Phase_8,1,5,80,127,1690484080
105,17,15,Jits_Phase_8,2,5,63,98,1690503740
105,17,15,Jits_Phase_8,3,5,56,103,1690563888
105,17,15,Jits_Phase_8,0,1,48,55,1691297684
105,17,15,Jits_Phase_8,1,5,56,103,1691324016
105,17,15,Jits_Phase_8,2,5,63,98,1691344176
105,17,15,Jits_Phase_8,3,5,80,127,1691347612
105,17,15,Jits_Phase_8,0,5,63,98,1692064132
105,17,15,Jits_Phase_8,1,1,48,54,1692130776
105,17,15,Jits_Phase_8,2,5,80,127,1692143924
105,17,15,Jits_Phase_8,3,5,56,103,1692154192
105,17,15,Jits_Phase_8,0,5,63,98,1692884492
105,17,15,Jits_Phase_8,1,5,56,103,1692903904
105,17,15,Jits_Phase_8,2,1,48,58,1692924184
105,17,15,Jits_Phase_8,3,5,80,127,1692954096
105,17,15,Jits_Phase_8,0,1,48,54,1693662040
105,17,15,Jits_Phase_8,1,5,80,127,1693684016
105,17,15,Jits_Phase_8,2,5,63,98,1693723880
105,17,15,Jits_Phase_8,3,5,56,103,1693743588
105,17,15,Jits_Phase_8,0,5,56,103,1694523860
105,17,15,Jits_Phase_8,1,1,48,55,1694524828
105,17,15,Jits_Phase_8,2,5,63,98,1694533904
105,17,15,Jits_Phase_8,3,5,80,127,1694553312
105,17,15,Jits_Phase_8,0,5,56,103,1695253952
105,17,15,Jits_Phase_8,1,1,48,59,1695281656
105,17,15,Jits_Phase_8,2,5,63,98,1695344156
105,17,15,Jits_Phase_8,3,5,80,127,1695404408
105,17,15,Jits_Phase_8,0,1,48,74,1696031900
105,17,15,Jits_Phase_8,1,5,80,127,1696084436
105,17,15,Jits_Phase_8,2,5,56,103,1696093812
105,17,15,Jits_Phase_8,3,5,63,98,1696164176
105,17,15,Jits_Phase_8,0,1,48,66,1696801440
105,17,15,Jits_Phase_8,1,5,63,98,1696913724
105,17,15,Jits_Phase_8,2,5,80,127,1697003932
105,17,15,Jits_Phase_8,3,5,56,103,1697014276
105,17,15,Jits_Phase_8,0,1,48,57,1697560900
105,17,15,Jits_Phase_8,1,5,63,98,1697643948
105,17,15,Jits_Phase_8,2,5,80,127,1697694160
105,17,15,Jits_Phase_8,3,5,56,103,1697753648
105,17,15,Jits_Phase_8,0,1,48,60,1698338104
105,17,15,Jits_Phase_8,1,5,56,103,1698463992
105,17,15,Jits_Phase_8,2,5,80,127,1698514192
105,17,15,Jits_Phase_8,3,5,63,98,1698533904
105,17,15,Jits_Phase_8,0,5,56,103,1699234248
105,17,15,Jits_Phase_8,1,1,48,56,1699244192
105,17,15,Jits_Phase_8,2,5,80,127,1699293584
105,17,15,Jits_Phase_8,3,5,63,98,1699364148
105,17,15,Jits_Phase_8,0,1,48,51,1700014352
105,17,15,Jits_Phase_8,1,5,56,103,1700044192
105,17,15,Jits_Phase_8,2,5,80,127,1700073720
105,17,15,Jits_Phase_8,3,5,63,98,1700103840
105,17,15,Jits_Phase_8,0,5,56,103,1700883732
105,17,15,Jits_Phase_8,1,1,48,51,1700895244
105,17,15,Jits_Phase_8,2,5,80,127,1700904556
105,17,15,Jits_Phase_8,3,5,63,98,1700963824
105,17,15,Jits_Phase_8,0,1,48,54,1701638288
105,17,15,Jits_Phase_8,1,5,80,127,1701763572
105,17,15,Jits_Phase_8,2,5,56,103,1701773868
105,17,15,Jits_Phase_8,3,5,63,98,1701783988
105,17,15,Jits_Phase_8,0,5,56,103,1702524248
105,17,15,Jits_Phase_8,1,1,48,54,1702555188
105,17,15,Jits_Phase_8,2,5,80,127,1702564132
105,17,15,Jits_Phase_8,3,5,63,98,1702594028
105,17,15,Jits_Phase_8,0,5,56,103,1703294280
105,17,15,Jits_Phase_8,1,1,48,74,1703305296
105,17,15,Jits_Phase_8,2,5,63,98,1703323900
105,17,15,Jits_Phase_8,3,5,80,127,1703363836
105,17,15,Jits_Phase_8,0,5,80,127,1704043932
105,17,15,Jits_Phase_8,1,5,63,98,1704094160
105,17,15,Jits_Phase_8,2,1,48,73,1704102604
105,17,15,Jits_Phase_8,3,5,56,103,1704113636
105,17,15,Jits_Phase_8,0,1,48,75,1704824860
105,17,15,Jits_Phase_8,1,5,56,103,1704874352
105,17,15,Jits_Phase_8,2,5,80,127,1704943948
105,17,15,Jits_Phase_8,3,5,63,98,1705004632
105,17,15,Jits_Phase_8,0,1,48,64,1705584156
105,17,15,Jits_Phase_8,1,5,80,127,1705674112
105,17,15,Jits_Phase_8,2,5,63,98,1705764084
105,17,15,Jits_Phase_8,3,5,56,103,1705783792
105,17,15,Jits_Phase_8,0,1,48,69,1706365632
105,17,15,Jits_Phase_8,1,5,63,98,1706494308
105,17,15,Jits_Phase_8,2,5,56,103,1706513872
105,17,15,Jits_Phase_8,3,5,80,127,1706553808
105,17,15,Jits_Phase_8,0,1,48,67,1707185864
105,17,15,Jits_Phase_8,1,5,80,127,1707254072
105,17,15,Jits_Phase_8,2,5,63,98,1707273708
105,17,15,Jits_Phase_8,3,5,56,103,1707353860
105,17,15,Jits_Phase_8,0,1,48,51,1707916240
105,17,15,Jits_Phase_8,1,5,63,98,1708043772
105,17,15,Jits_Phase_8,2,5,56,103,1708154208
105,17,15,Jits_Phase_8,3,5,80,127,1708157348
105,17,15,Jits_Phase_8,0,1,48,63,1708749620
105,17,15,Jits_Phase_8,1,5,63,98,1708863824
105,17,15,Jits_Phase_8,2,5,56,103,1708874012
105,17,15,Jits_Phase_8,3,5,80,127,1708877232
105,17,15,Jits_Phase_8,0,1,48,53,1709547192
105,17,15,Jits_Phase_8,1,5,56,103,1709644156
105,17,15,Jits_Phase_8,2,5,80,127,1709764060
105,17,15,Jits_Phase_8,3,5,63,98,1709803996
105,17,15,Jits_Phase_8,0,1,48,64,1710379540
105,17,15,Jits_Phase_8,1,5,56,103,1710464464
105,17,15,Jits_Phase_8,2,5,80,127,1710544120
105,17,15,Jits_Phase_8,3,5,63,98,1710563756
105,17,15,Jits_Phase_8,0,1,48,60,1711219908
105,17,15,Jits_Phase_8,1,5,56,103,1711264020
105,17,15,Jits_Phase_8,2,5,63,98,1711373696
105,17,15,Jits_Phase_8,3,5,80,127,1711377132
105,17,15,Jits_Phase_8,0,1,48,73,1711953588
105,17,15,Jits_Phase_8,1,5,56,103,1712103840
105,17,15,Jits_Phase_8,2,5,80,127,1712133668
105,17,15,Jits_Phase_8,3,5,63,98,1712153900
105,17,15,Jits_Phase_8,0,1,48,68,1712722184
105,17,15,Jits_Phase_8,1,5,63,98,1712894608
105,17,15,Jits_Phase_8,2,5,56,103,1712903608
105,17,15,Jits_Phase_8,3,5,80,127,1712913732
105,17,15,Jits_Phase_8,0,1,48,68,1713510608
105,17,15,Jits_Phase_8,1,5,80,127,1713683872
105,17,15,Jits_Phase_8,2,5,56,103,1713734000
105,17,15,Jits_Phase_8,3,5,63,98,1713773864
105,17,15,Jits_Phase_8,0,1,48,69,1714284296
105,17,15,Jits_Phase_8,1,5,80,127,1714504008
105,17,15,Jits_Phase_8,2,5,63,98,1714523716
105,17,15,Jits_Phase_8,3,5,56,103,1714573720
105,17,15,Jits_Phase_8,0,1,48,72,1715119584
105,17,15,Jits_Phase_8,1,5,80,127,1715314100
105,17,15,Jits_Phase_8,2,5,56,103,1715343800
105,17,15,Jits_Phase_8,3,5,63,98,1715414528
105,17,15,Jits_Phase_8,0,1,48,69,1715923404
105,17,15,Jits_Phase_8,1,5,56,103,1716163936
105,17,15,Jits_Phase_8,2,5,80,127,1716174284
105,17,15,Jits_Phase_8,3,5,63,98,1716213996
105,17,15,Jits_Phase_8,0,1,48,75,1716759192
105,17,15,Jits_Phase_8,1,5,56,103,1716873716
105,17,15,Jits_Phase_8,2,5,63,98,1716894104
105,17,15,Jits_Phase_8,3,5,80,127,1716963708
105,17,15,Jits_Phase_8,0,1,48,76,1717508452
105,17,15,Jits_Phase_8,1,5,63,98,1717693776
105,17,15,Jits_Phase_8,2,5,80,127,1717754316
105,17,15,Jits_Phase_8,3,5,56,103,1717773656
105,17,15,Jits_Phase_8,0,1,48,64,1718358548
105,17,15,Jits_Phase_8,1,5,80,127,1718484532
105,17,15,Jits_Phase_8,2,5,56,103,1718514136
105,17,15,Jits_Phase_8,3,5,63,98,1718543588
105,17,15,Jits_Phase_8,0,1,48,76,1719164604
105,17,15,Jits_Phase_8,1,5,56,103,1719283992
105,17,15,Jits_Phase_8,2,5,63,98,1719343560
105,17,15,Jits_Phase_8,3,5,80,127,1719403800
105,17,15,Jits_Phase_8,0,1,48,66,1719964460
105,17,15,Jits_Phase_8,1,5,80,127,1720104276
105,17,15,Jits_Phase_8,2,5,56,103,1720123688
105,17,15,Jits_Phase_8,3,5,63,98,1720194488
105,17,15,Jits_Phase_8,0,1,48,64,1720786616
105,17,15,Jits_Phase_8,1,5,80,127,1720904036
105,17,15,Jits_Phase_8,2,5,63,98,1720923524
105,17,15,Jits_Phase_8,3,5,56,103,1720954320
105,17,15,Jits_Phase_8,0,1,48,65,1721618440
105,17,15,Jits_Phase_8,1,5,80,127,1721693692
105,17,15,Jits_Phase_8,2,5,63,98,1721713928
105,17,15,Jits_Phase_8,3,5,56,103,1721773428
105,17,15,Jits_Phase_8,0,5,80,127,1722494424
105,17,15,Jits_Phase_8,1,1,48,65,1722502748
105,17,15,Jits_Phase_8,2,5,56,103,1722593644
105,17,15,Jits_Phase_8,3,5,63,98,1722624500
105,17,15,Jits_Phase_8,0,5,63,98,1723283888
105,17,15,Jits_Phase_8,1,5,80,127,1723334088
105,17,15,Jits_Phase_8,2,5,56,103,1723353428
105,17,15,Jits_Phase_8,3,1,48,53,1723357368
105,17,15,Jits_Phase_8,0,1,48,76,1724056784
105,17,15,Jits_Phase_8,1,5,80,127,1724123716
105,17,15,Jits_Phase_8,2,5,56,103,1724154496
105,17,15,Jits_Phase_8,3,5,63,98,1724157488
105,17,15,Jits_Phase_8,0,1,48,70,1724831268
105,17,15,Jits_Phase_8,1,5,63,98,1724973572
105,17,15,Jits_Phase_8,2,5,56,103,1725014480
105,17,15,Jits_Phase_8,3,5,80,127,1725033968
105,17,15,Jits_Phase_8,0,1,48,80,1725648564
105,17,15,Jits_Phase_8,1,5,80,127,1725734384
105,17,15,Jits_Phase_8,2,5,63,98,1725814092
105,17,15,Jits_Phase_8,3,5,56,103,1725854052
105,17,15,Jits_Phase_8,0,1,48,76,1726485340
105,17,15,Jits_Phase_8,1,5,63,98,1726553548
105,17,15,Jits_Phase_8,2,5,80,127,1726634476
105,17,15,Jits_Phase_8,3,5,56,103,1726653740
105,17,15,Jits_Phase_8,0,1,48,69,1727311020
105,17,15,Jits_Phase_8,1,5,56,103,1727394092
105,17,15,Jits_Phase_8,2,5,63,98,1727404736
105,17,15,Jits_Phase_8,3,5,80,127,1727444436
105,17,15,Jits_Phase_8,0,5,56,103,1728114044
105,17,15,Jits_Phase_8,1,5,80,127,1728116960
105,17,15,Jits_Phase_8,2,1,48,66,1728135096
105,17,15,Jits_Phase_8,3,5,63,98,1728254444
105,17,15,Jits_Phase_8,0,5,56,103,1728903640
105,17,15,Jits_Phase_8,1,1,48,56,1728940172
105,17,15,Jits_Phase_8,2,5,63,98,1728993844
105,17,15,Jits_Phase_8,3,5,80,127,1729064256
105,17,15,Jits_Phase_8,0,1,48,63,1729662900
105,17,15,Jits_Phase_8,1,5,63,98,1729784156
105,17,15,Jits_Phase_8,2,5,80,127,1729787592
105,17,15,Jits_Phase_8,3,5,56,103,1729843496
105,17,15,Jits_Phase_8,0,1,48,75,1730456304
105,17,15,Jits_Phase_8,1,5,80,127,1730623768
105,17,15,Jits_Phase_8,2,5,56,103,1730644452
105,17,15,Jits_Phase_8,3,5,63,98,1730653600
105,17,15,Jits_Phase_8,0,1,48,69,1731293536
105,17,15,Jits_Phase_8,1,5,56,103,1731333716
105,17,15,Jits_Phase_8,2,5,63,98,1731343840
105,17,15,Jits_Phase_8,3,5,80,127,1731414628
105,17,15,Jits_Phase_8,0,1,48,62,1732116740
105,17,15,Jits_Phase_8,1,5,80,127,1732134444
105,17,15,Jits_Phase_8,2,5,56,103,1732184572
105,17,15,Jits_Phase_8,3,5,63,98,1732233588
105,17,15,Jits_Phase_8,0,1,48,53,1732883232
105,17,15,Jits_Phase_8,1,5,56,103,1733013932
105,17,15,Jits_Phase_8,2,5,63,98,1733024128
105,17,15,Jits_Phase_8,3,5,80,127,1733063992
105,17,15,Jits_Phase_8,0,1,48,62,1733689584
105,17,15,Jits_Phase_8,1,5,56,103,1733754420
105,17,15,Jits_Phase_8,2,5,63,98,1733794148
105,17,15,Jits_Phase_8,3,5,80,127,1733844496
105,17,15,Jits_Phase_8,0,5,80,127,1734514180
105,17,15,Jits_Phase_8,1,5,56,103,1734564336
105,17,15,Jits_Phase_8,2,5,63,98,1734583524
105,17,15,Jits_Phase_8,3,1,48,45,1734609184
105,17,15,Jits_Phase_8,0,5,80,127,1735324088
105,17,15,Jits_Phase_8,1,1,48,45,1735354932
105,17,15,Jits_Phase_8,2,5,63,98,1735384476
105,17,15,Jits_Phase_8,3,5,56,103,1735464404
105,17,15,Jits_Phase_8,0,5,80,127,1736104532
105,17,15,Jits_Phase_8,1,1,48,49,1736112752
105,17,15,Jits_Phase_8,2,5,56,103,1736144316
105,17,15,Jits_Phase_8,3,5,63,98,1736163728
105,17,15,Jits_Phase_8,0,5,56,103,1736954420
105,17,15,Jits_Phase_8,1,5,80,127,1736963568
105,17,15,Jits_Phase_8,2,1,48,52,1736977624
105,17,15,Jits_Phase_8,3,5,63,98,1737004548
105,17,15,Jits_Phase_8,0,1,48,29,1737783832
105,17,15,Jits_Phase_8,1,5,56,103,1737823564
105,17,15,Jits_Phase_8,2,5,63,98,1737863528
105,17,15,Jits_Phase_8,3,5,80,127,1737866740
105,17,15,Jits_Phase_8,0,5,63,98,1738494536
105,17,15,Jits_Phase_8,1,5,80,127,1738534328
105,17,15,Jits_Phase_8,2,1,48,49,1738559016
105,17,15,Jits_Phase_8,3,5,56,103,1738603776
105,17,15,Jits_Phase_8,0,5,63,98,1739264404
105,17,15,Jits_Phase_8,1,5,56,103,1739344348
105,17,15,Jits_Phase_8,2,1,48,40,1739369264
105,17,15,Jits_Phase_8,3,5,80,127,1739403560
105,17,15,Jits_Phase_8,0,5,80,127,1740074348
105,17,15,Jits_Phase_8,1,5,63,98,1740123652
105,17,15,Jits_Phase_8,2,5,56,103,1740154300
105,17,15,Jits_Phase_8,3,1,48,40,1740165388
105,17,15,Jits_Phase_8,0,5,56,103,1740863924
105,17,15,Jits_Phase_8,1,1,48,42,1740897388
105,17,15,Jits_Phase_8,2,5,63,98,1740913900
105,17,15,Jits_Phase_8,3,5,80,127,1740924468
105,17,15,Jits_Phase_8,0,5,56,103,1741673808
105,17,15,Jits_Phase_8,1,5,63,98,1741784344
105,17,15,Jits_Phase_8,2,5,80,127,1741803832
105,17,15,Jits_Phase_8,0,5,63,98,1742473644
105,17,15,Jits_Phase_8,1,1,48,64,1742486500
105,17,15,Jits_Phase_8,2,5,80,127,1742523912
105,17,15,Jits_Phase_8,3,5,56,103,1742613956
105,17,15,Jits_Phase_8,0,1,48,57,1743108876
105,17,15,Jits_Phase_8,1,5,63,98,1743264308
105,17,15,Jits_Phase_8,2,5,80,127,1743293912
105,17,15,Jits_Phase_8,3,5,56,103,1743383892
105,17,15,Jits_Phase_8,0,1,48,55,1743928780
105,17,15,Jits_Phase_8,1,5,63,98,1744063984
105,17,15,Jits_Phase_8,2,5,56,103,1744074180
105,17,15,Jits_Phase_8,3,5,80,127,1744173452
105,17,15,Jits_Phase_8,0,1,48,53,1744703288
105,17,15,Jits_Phase_8,1,5,63,98,1744963980
105,17,15,Jits_Phase_8,2,5,80,127,1744993656
105,17,15,Jits_Phase_8,3,5,56,103,1745024452
105,17,15,Jits_Phase_8,0,1,48,55,1745513220
105,17,15,Jits_Phase_8,1,5,80,127,1745784320
105,17,15,Jits_Phase_8,2,5,63,98,1745794692
105,17,15,Jits_Phase_8,3,5,56,103,1745824292
105,17,15,Jits_Phase_8,0,1,48,56,1746370088
105,17,15,Jits_Phase_8,1,5,80,127,1746483620
105,17,15,Jits_Phase_8,2,5,63,98,1746504228
105,17,15,Jits_Phase_8,3,5,56,103,1746554500
105,17,15,Jits_Phase_8,0,1,48,54,1747104220
105,17,15,Jits_Phase_8,1,5,63,98,1747314384
105,17,15,Jits_Phase_8,2,5,80,127,1747373308
105,17,15,Jits_Phase_8,3,5,56,103,1747393844
105,17,15,Jits_Phase_8,0,1,48,55,1747952912
105,17,15,Jits_Phase_8,1,5,63,98,1748073844
105,17,15,Jits_Phase_8,2,5,56,103,1748123996
105,17,15,Jits_Phase_8,3,5,80,127,1748134412
105,17,15,Jits_Phase_8,0,1,48,56,1748788164
105,17,15,Jits_Phase_8,1,5,56,103,1748904336
105,17,15,Jits_Phase_8,2,5,80,127,1748913488
105,17,15,Jits_Phase_8,3,5,63,98,1749013804
105,17,15,Jits_Phase_8,0,1,48,47,1749611912
105,17,15,Jits_Phase_8,1,5,80,127,1749664324
105,17,15,Jits_Phase_8,2,5,63,98,1749674296
105,17,15,Jits_Phase_8,3,5,56,103,1749823896
105,17,15,Jits_Phase_8,0,1,48,62,1750392700
105,17,15,Jits_Phase_8,1,5,63,98,1750474264
105,17,15,Jits_Phase_8,2,5,80,127,1750514412
105,17,15,Jits_Phase_8,3,5,56,103,1750593832
105,17,15,Jits_Phase_8,0,1,48,62,1751119100
105,17,15,Jits_Phase_8,1,5,56,103,1751223660
105,17,15,Jits_Phase_8,2,5,80,127,1751323980
105,17,15,Jits_Phase_8,3,5,63,98,1751343616
105,17,15,Jits_Phase_8,0,1,48,57,1751998832
105,17,15,Jits_Phase_8,1,5,80,127,1752043820
105,17,15,Jits_Phase_8,2,5,56,103,1752054236
105,17,15,Jits_Phase_8,3,5,63,98,1752144428
105,17,15,Jits_Phase_8,0,1,48,57,1752822652
105,17,15,Jits_Phase_8,1,5,56,103,1752843580
105,17,15,Jits_Phase_8,2,5,63,98,1752864116
105,17,15,Jits_Phase_8,3,5,80,127,1752943968
105,17,15,Jits_Phase_8,0,5,63,98,1753594272
105,17,15,Jits_Phase_8,1,1,48,58,1753667440
105,17,15,Jits_Phase_8,2,5,56,103,1753684400
105,17,15,Jits_Phase_8,3,5,80,127,1753687392
105,17,15,Jits_Phase_8,0,5,56,103,1754423544
105,17,15,Jits_Phase_8,1,1,48,49,1754465328
105,17,15,Jits_Phase_8,2,5,80,127,1754484228
105,17,15,Jits_Phase_8,3,5,63,98,1754494276
105,17,15,Jits_Phase_8,0,1,48,55,1755184176
105,17,15,Jits_Phase_8,1,5,80,127,1755273532
105,17,15,Jits_Phase_8,2,5,56,103,1755283860
105,17,15,Jits_Phase_8,3,5,63,98,1755286928
105,17,15,Jits_Phase_8,0,1,48,55,1755947436
105,17,15,Jits_Phase_8,1,5,56,103,1756034400
105,17,15,Jits_Phase_8,2,5,80,127,1756044728
105,17,15,Jits_Phase_8,3,5,63,98,1756064288
105,17,15,Jits_Phase_8,0,1,48,53,1756736780
105,17,15,Jits_Phase_8,1,5,63,98,1756803440
105,17,15,Jits_Phase_8,2,5,80,127,1756863744
105,17,15,Jits_Phase_8,3,5,56,103,1756914240
105,17,15,Jits_Phase_8,0,1,48,60,1757473160
105,17,15,Jits_Phase_8,1,5,63,98,1757684172
105,17,15,Jits_Phase_8,2,5,56,103,1757694292
105,17,15,Jits_Phase_8,3,5,80,127,1757743448
105,17,15,Jits_Phase_8,0,1,48,60,1758255536
105,17,15,Jits_Phase_8,1,5,63,98,1758383468
105,17,15,Jits_Phase_8,2,5,80,127,1758404224
105,17,15,Jits_Phase_8,3,5,56,103,1758414196
105,17,15,Jits_Phase_8,0,1,48,60,1759021576
105,17,15,Jits_Phase_8,1,5,63,98,1759184260
105,17,15,Jits_Phase_8,2,5,80,127,1759187548
105,17,15,Jits_Phase_8,3,5,56,103,1759224272
105,17,15,Jits_Phase_8,0,1,48,64,1759794788
105,17,15,Jits_Phase_8,1,5,63,98,1760053532
105,17,15,Jits_Phase_8,2,5,80,127,1760084404
105,17,15,Jits_Phase_8,3,5,56,103,1760093628
105,17,15,Jits_Phase_8,0,1,48,39,1760732292
105,17,15,Jits_Phase_8,1,5,56,103,1760804308
105,17,15,Jits_Phase_8,2,5,80,127,1760834340
105,17,15,Jits_Phase_8,3,5,63,98,1760863568
105,17,15,Jits_Phase_8,0,1,48,49,1761465056
105,17,15,Jits_Phase_8,1,5,63,98,1761704320
105,17,15,Jits_Phase_8,2,5,56,103,1761744328
105,17,15,Jits_Phase_8,3,5,80,127,1761747396
105,17,15,Jits_Phase_8,0,5,80,127,1762403604
105,17,15,Jits_Phase_8,1,1,48,40,1762432800
105,17,15,Jits_Phase_8,2,5,56,103,1762483568
105,17,15,Jits_Phase_8,3,5,63,98,1762533752
105,17,15,Jits_Phase_8,0,5,80,127,1763184120
105,17,15,Jits_Phase_8,1,5,56,103,1763203412
105,17,15,Jits_Phase_8,2,5,63,98,1763293540
105,17,15,Jits_Phase_8,3,1,48,42,1763310360
105,17,15,Jits_Phase_8,0,5,80,127,1764023624
105,17,15,Jits_Phase_8,1,5,63,98,1764063564
105,17,15,Jits_Phase_8,2,1,48,53,1764091764
105,17,15,Jits_Phase_8,3,5,56,103,1764103492
105,17,15,Jits_Phase_8,0,5,63,98,1764833584
105,17,15,Jits_Phase_8,1,5,80,127,1764894276
105,17,15,Jits_Phase_8,2,1,48,58,1764921532
105,17,15,Jits_Phase_8,3,5,56,103,1764923720
105,17,15,Jits_Phase_8,0,5,56,103,1765674316
105,17,15,Jits_Phase_8,1,5,80,127,1765704212
105,17,15,Jits_Phase_8,2,5,63,98,1765794220
105,17,15,Jits_Phase_8,3,1,48,56,1765899740
105,17,15,Jits_Phase_8,0,5,56,103,1766484348
105,17,15,Jits_Phase_8,1,5,80,127,1766593764
105,17,15,Jits_Phase_8,2,5,63,98,1766623736
105,17,15,Jits_Phase_8,3,1,48,51,1766792520
105,17,15,Jits_Phase_8,0,5,56,103,1767334196
105,17,15,Jits_Phase_8,1,5,63,98,1767393544
105,17,15,Jits_Phase_8,2,5,80,127,1767424340
105,17,15,Jits_Phase_8,3,1,48,56,1767550532
105,17,15,Jits_Phase_8,0,5,56,103,1768104232
105,17,15,Jits_Phase_8,1,5,63,98,1768173992
105,17,15,Jits_Phase_8,2,5,80,127,1768194372
105,17,15,Jits_Phase_8,3,1,48,54,1768334236
105,17,15,Jits_Phase_8,0,5,80,127,1768874336
105,17,15,Jits_Phase_8,1,5,63,98,1768893676
105,17,15,Jits_Phase_8,2,5,56,103,1768944176
105,17,15,Jits_Phase_8,3,1,48,56,1769034120
105,17,15,Jits_Phase_8,0,5,63,98,1769693504
105,17,15,Jits_Phase_8,1,5,80,127,1769703700
105,17,15,Jits_Phase_8,2,5,56,103,1769754124
105,17,15,Jits_Phase_8,3,1,48,57,1769926944
105,17,15,Jits_Phase_8,0,5,63,98,1770494304
105,17,15,Jits_Phase_8,1,5,80,127,1770564060
105,17,15,Jits_Phase_8,2,5,56,103,1770584296
105,17,15,Jits_Phase_8,3,1,48,54,1770684228
105,17,15,Jits_Phase_8,0,5,63,98,1771323808
105,17,15,Jits_Phase_8,1,5,80,127,1771327096
105,17,15,Jits_Phase_8,2,5,56,103,1771394336
105,17,15,Jits_Phase_8,3,1,48,46,1771457304
105,17,15,Jits_Phase_8,0,5,80,127,1772074332
105,17,15,Jits_Phase_8,1,5,56,103,1772093820
105,17,15,Jits_Phase_8,2,5,63,98,1772104312
105,17,15,Jits_Phase_8,3,1,48,54,1772313396
105,17,15,Jits_Phase_8,0,5,56,103,1772893652
105,17,15,Jits_Phase_8,1,5,63,98,1772983660
105,17,15,Jits_Phase_8,2,5,80,127,1772987248
105,17,15,Jits_Phase_8,3,1,48,56,1773281516
105,17,15,Jits_Phase_8,0,5,80,127,1773663672
105,17,15,Jits_Phase_8,1,5,56,103,1773674092
105,17,15,Jits_Phase_8,2,5,63,98,1773694252
105,17,15,Jits_Phase_8,3,1,48,57,1774021948
105,17,15,Jits_Phase_8,0,5,63,98,1774464408
105,17,15,Jits_Phase_8,1,5,80,127,1774523976
105,17,15,Jits_Phase_8,2,5,56,103,1774534320
105,17,15,Jits_Phase_8,3,1,48,60,1774775160
105,17,15,Jits_Phase_8,0,5,63,98,1775333688
105,17,15,Jits_Phase_8,1,5,80,127,1775363512
105,17,15,Jits_Phase_8,2,5,56,103,1775404500
105,17,15,Jits_Phase_8,3,1,48,52,1775701516
105,17,15,Jits_Phase_8,0,5,56,103,1776124232
105,17,15,Jits_Phase_8,1,5,80,127,1776133456
105,17,15,Jits_Phase_8,2,5,63,98,1776173392
105,17,15,Jits_Phase_8,3,1,48,51,1776461340
105,17,15,Jits_Phase_8,0,5,80,127,1776883992
105,17,15,Jits_Phase_8,1,5,56,103,1776964088
105,17,15,Jits_Phase_8,2,5,63,98,1776974356
105,17,15,Jits_Phase_8,0,1,48,57,1777394172
105,17,15,Jits_Phase_8,1,5,80,127,1777734276
105,17,15,Jits_Phase_8,2,5,56,103,1777813948
105,17,15,Jits_Phase_8,3,5,63,98,1777824072
105,17,15,Jits_Phase_8,0,1,48,54,1778311524
105,17,15,Jits_Phase_8,1,5,80,127,1778573780
105,17,15,Jits_Phase_8,2,5,56,103,1778624280
105,17,15,Jits_Phase_8,3,5,63,98,1778674260
105,17,15,Jits_Phase_8,4,1,48,52,1778994132
105,17,15,Jits_Phase_8,0,5,56,103,1779513836
105,17,15,Jits_Phase_8,1,5,63,98,1779516900
105,17,15,Jits_Phase_8,2,5,80,127,1779564184
105,17,15,Jits_Phase_8,0,1,48,51,1780213440
105,17,15,Jits_Phase_8,1,5,56,103,1780333924
105,17,15,Jits_Phase_8,2,5,63,98,1780363776
105,17,15,Jits_Phase_8,3,5,80,127,1780374044
105,17,15,Jits_Phase_8,0,1,48,51,1780756792
105,17,15,Jits_Phase_8,1,5,63,98,1781043560
105,17,15,Jits_Phase_8,2,5,56,103,1781114288
105,17,15,Jits_Phase_8,3,5,80,127,1781164364
105,17,15,Jits_Phase_8,4,1,48,49,1781423564
105,17,15,Jits_Phase_8,0,5,63,98,1781874160
105,17,15,Jits_Phase_8,1,5,56,103,1781884208
105,17,15,Jits_Phase_8,2,5,80,127,1781887348
105,17,15,Jits_Phase_8,0,5,80,127,1782623596
105,17,15,Jits_Phase_8,1,5,56,103,1782684160
105,17,15,Jits_Phase_8,2,5,63,98,1782773992
105,17,15,Jits_Phase_8,0,1,48,59,1783322528
105,17,15,Jits_Phase_8,1,5,80,127,1783424356
105,17,15,Jits_Phase_8,2,5,56,103,1783523632
105,17,15,Jits_Phase_8,3,5,63,98,1783563496
105,17,15,Jits_Phase_8,0,5,56,103,1784274256
105,17,15,Jits_Phase_8,1,1,48,58,1784292156
105,17,15,Jits_Phase_8,2,5,63,98,1784293740
105,17,15,Jits_Phase_8,3,5,80,127,1784333676
105,17,15,Jits_Phase_8,0,5,63,98,1785044352
105,17,15,Jits_Phase_8,1,1,48,60,1785045468
105,17,15,Jits_Phase_8,2,5,56,103,1785063984
105,17,15,Jits_Phase_8,3,5,80,127,1785164288
105,17,15,Jits_Phase_8,0,5,63,98,1785833844
105,17,15,Jits_Phase_8,1,1,48,59,1785916460
105,17,15,Jits_Phase_8,2,5,80,127,1785944428
105,17,15,Jits_Phase_8,3,5,56,103,1785974104
105,17,15,Jits_Phase_8,0,5,56,103,1786654136
105,17,15,Jits_Phase_8,1,1,48,62,1786670056
105,17,15,Jits_Phase_8,2,5,63,98,1786684028
105,17,15,Jits_Phase_8,3,5,80,127,1786733932
105,17,15,Jits_Phase_8,0,1,48,40,1787409136
105,17,15,Jits_Phase_8,1,5,63,98,1787424156
105,17,15,Jits_Phase_8,2,5,56,103,1787453904
105,17,15,Jits_Phase_8,3,5,80,127,1787504768
105,17,15,Jits_Phase_8,0,1,48,62,1788198028
105,17,15,Jits_Phase_8,1,5,56,103,1788253500
105,17,15,Jits_Phase_8,2,5,63,98,1788273960
105,17,15,Jits_Phase_8,3,5,80,127,1788353988
105,17,15,Jits_Phase_8,0,1,48,59,1789020928
105,17,15,Jits_Phase_8,1,5,63,98,1789023588
105,17,15,Jits_Phase_8,2,5,56,103,1789084004
105,17,15,Jits_Phase_8,3,5,80,127,1789113756
105,17,15,Jits_Phase_8,0,5,56,103,1789864280
105,17,15,Jits_Phase_8,1,5,80,127,1789923776
105,17,15,Jits_Phase_8,2,1,48,64,1789929960
105,17,15,Jits_Phase_8,3,5,63,98,1789963560
105,17,15,Jits_Phase_8,0,5,63,98,1790643456
105,17,15,Jits_Phase_8,1,5,56,103,1790704148
105,17,15,Jits_Phase_8,2,1,48,63,1790713788
105,17,15,Jits_Phase_8,3,5,80,127,1790773744
105,17,15,Jits_Phase_8,0,1,48,62,1791487524
105,17,15,Jits_Phase_8,1,5,56,103,1791524192
105,17,15,Jits_Phase_8,2,5,63,98,1791533336
105,17,15,Jits_Phase_8,3,5,80,127,1791536628
105,17,15,Jits_Phase_8,0,5,63,98,1792263420
105,17,15,Jits_Phase_8,1,5,56,103,1792324260
105,17,15,Jits_Phase_8,2,5,80,127,1792327320
105,17,15,Jits_Phase_8,3,1,48,54,1792337488
105,17,15,Jits_Phase_8,0,5,63,98,1793043912
105,17,15,Jits_Phase_8,1,5,80,127,1793073512
105,17,15,Jits_Phase_8,2,5,56,103,1793093972
105,17,15,Jits_Phase_8,3,1,48,61,1793110124
105,17,15,Jits_Phase_8,0,5,56,103,1793773840
105,17,15,Jits_Phase_8,1,5,63,98,1793824192
105,17,15,Jits_Phase_8,2,1,48,43,1793884256
105,17,15,Jits_Phase_8,3,5,80,127,1793903980
105,17,15,Jits_Phase_8,0,5,80,127,1794474352
105,17,15,Jits_Phase_8,1,5,63,98,1794514216
105,17,15,Jits_Phase_8,2,5,56,103,1794533852
105,17,15,Jits_Phase_8,3,1,48,66,1794697080
105,17,15,Jits_Phase_8,0,5,56,103,1795343940
105,17,15,Jits_Phase_8,1,5,80,127,1795353984
105,17,15,Jits_Phase_8,2,5,63,98,1795373472
105,17,15,Jits_Phase_8,3,1,48,85,1795604276
105,17,15,Jits_Phase_8,0,5,56,103,1796124160
105,17,15,Jits_Phase_8,1,5,63,98,1796174064
105,17,15,Jits_Phase_8,2,5,80,127,1796204112
105,17,15,Jits_Phase_8,3,1,48,57,1796358048
105,17,15,Jits_Phase_8,0,5,56,103,1796873440
105,17,15,Jits_Phase_8,1,5,63,98,1796884080
105,17,15,Jits_Phase_8,2,5,80,127,1796933984
105,17,15,Jits_Phase_8,3,1,48,48,1797015112
105,17,15,Jits_Phase_8,0,5,56,103,1797664060
105,17,15,Jits_Phase_8,1,5,80,127,1797667200
105,17,15,Jits_Phase_8,2,1,48,54,1797718864
105,17,15,Jits_Phase_8,3,5,63,98,1797824160
105,17,15,Jits_Phase_8,0,1,48,59,1798391100
105,17,15,Jits_Phase_8,1,5,63,98,1798484192
105,17,15,Jits_Phase_8,2,5,56,103,1798554032
105,17,15,Jits_Phase_8,3,5,80,127,1798594044
105,17,15,Jits_Phase_8,0,1,48,70,1799103520
105,17,15,Jits_Phase_8,1,5,63,98,1799323972
105,17,15,Jits_Phase_8,2,5,56,103,1799414252
105,17,15,Jits_Phase_8,3,5,80,127,1799417320
105,17,15,Jits_Phase_8,0,1,48,68,1799833220
105,17,15,Jits_Phase_8,1,5,56,103,1800104248
105,17,15,Jits_Phase_8,2,5,63,98,1800194460
105,17,15,Jits_Phase_8,3,5,80,127,1800203904
105,17,15,Jits_Phase_8,0,1,48,61,1800695916
105,17,15,Jits_Phase_8,1,5,56,103,1800874264
105,17,15,Jits_Phase_8,2,5,63,98,1800923496
105,17,15,Jits_Phase_8,3,5,80,127,1800954292
105,17,15,Jits_Phase_8,0,1,48,65,1801522940
105,17,15,Jits_Phase_8,1,5,63,98,1801754032
105,17,15,Jits_Phase_8,2,5,80,127,1801764228
105,17,15,Jits_Phase_8,3,5,56,103,1801823496
105,17,15,Jits_Phase_8,0,1,48,46,1802366452
105,17,15,Jits_Phase_8,1,5,63,98,1802474080
105,17,15,Jits_Phase_8,2,5,80,127,1802534248
105,17,15,Jits_Phase_8,3,5,56,103,1802574184
105,17,15,Jits_Phase_8,0,1,48,59,1803251112
105,17,15,Jits_Phase_8,1,5,56,103,1803374004
105,17,15,Jits_Phase_8,2,5,80,127,1803394416
105,17,15,Jits_Phase_8,3,5,63,98,1803413828
105,17,15,Jits_Phase_8,0,1,48,63,1804012908
105,17,15,Jits_Phase_8,1,5,63,98,1804093996
105,17,15,Jits_Phase_8,2,5,56,103,1804114140
105,17,15,Jits_Phase_8,3,5,80,127,1804154152
105,17,15,Jits_Phase_8,0,1,48,66,1804878428
105,17,15,Jits_Phase_8,1,5,63,98,1804904012
105,17,15,Jits_Phase_8,2,5,80,127,1804933416
105,17,15,Jits_Phase_8,3,5,56,103,1804954020
105,17,15,Jits_Phase_8,0,5,80,127,1805673952
105,17,15,Jits_Phase_8,1,1,48,58,1805690772
105,17,15,Jits_Phase_8,2,5,56,103,1805724096
105,17,15,Jits_Phase_8,3,5,63,98,1805785220
105,17,15,Jits_Phase_8,0,5,63,98,1806464308
105,17,15,Jits_Phase_8,1,1,48,70,1806465272
105,17,15,Jits_Phase_8,2,5,56,103,1806584088
105,17,15,Jits_Phase_8,3,5,80,127,1806613912
105,17,15,Jits_Phase_8,0,1,48,46,1807204448
105,17,15,Jits_Phase_8,1,5,80,127,1807304052
105,17,15,Jits_Phase_8,2,5,63,98,1807323388
105,17,15,Jits_Phase_8,3,5,56,103,1807394192
105,17,15,Jits_Phase_8,0,1,48,80,1807997380
105,17,15,Jits_Phase_8,1,5,63,98,1808124260
105,17,15,Jits_Phase_8,2,5,56,103,1808133708
105,17,15,Jits_Phase_8,3,5,80,127,1808214324
105,17,15,Jits_Phase_8,0,1,48,61,1808774988
105,17,15,Jits_Phase_8,1,5,56,103,1808984560
105,17,15,Jits_Phase_8,2,5,80,127,1809014012
105,17,15,Jits_Phase_8,3,5,63,98,1809024604
105,17,15,Jits_Phase_8,0,9999,9999,9999,1674131580
105,17,15,Jits_Phase_8,1,9999,9999,9999,1674931300
105,17,15,Jits_Phase_8,2,9999,9999,9999,1675732080
105,17,15,Jits_Phase_8,3,9999,9999,9999,1676531816
105,17,15,Jits_Phase_8,4,9999,9999,9999,1677331544
105,17,15,Jits_Phase_8,5,9999,9999,9999,1678131324
105,17,15,Jits_Phase_8,6,9999,9999,9999,1678932068
105,17,15,Jits_Phase_8,7,9999,9999,9999,1679731824
105,17,15,Jits_Phase_8,8,9999,9999,9999,1680531536
105,17,15,Jits_Phase_8,9,9999,9999,9999,1681331280
105,17,15,Jits_Phase_8,10,9999,9999,9999,1682132064
105,17,15,Jits_Phase_8,11,9999,9999,9999,1682931820
105,17,15,Jits_Phase_8,12,9999,9999,9999,1683731580
105,17,15,Jits_Phase_8,13,9999,9999,9999,1684531260
105,17,15,Jits_Phase_8,14,9999,9999,9999,1685332052
105,17,15,Jits_Phase_8,15,9999,9999,9999,1686131796
105,17,15,Jits_Phase_8,16,9999,9999,9999,1686931564
105,17,15,Jits_Phase_8,17,9999,9999,9999,1687731324
105,17,15,Jits_Phase_8,18,9999,9999,9999,1688532060
105,17,15,Jits_Phase_8,19,9999,9999,9999,1689331816
105,17,15,Jits_Phase_8,20,9999,9999,9999,1690131572
105,17,15,Jits_Phase_8,21,9999,9999,9999,1690931324
105,17,15,Jits_Phase_8,22,9999,9999,9999,1691732044
105,17,15,Jits_Phase_8,23,9999,9999,9999,1692531800
105,17,15,Jits_Phase_8,24,9999,9999,9999,1693331580
105,17,15,Jits_Phase_8,25,9999,9999,9999,1694131264
105,17,15,Jits_Phase_8,26,9999,9999,9999,1694932068
105,17,15,Jits_Phase_8,27,9999,9999,9999,1695731840
105,17,15,Jits_Phase_8,28,9999,9999,9999,1696531536
105,17,15,Jits_Phase_8,29,9999,9999,9999,1697331296
105,17,15,Jits_Phase_8,30,9999,9999,9999,1698111572
105,17,15,Jits_Phase_8,31,9999,9999,9999,1698911304
105,17,15,Jits_Phase_8,32,9999,9999,9999,1699712104
105,17,15,Jits_Phase_8,33,9999,9999,9999,1700522076
105,17,15,Jits_Phase_8,34,9999,9999,9999,1701321832
105,17,15,Jits_Phase_8,35,9999,9999,9999,1702121536
105,17,15,Jits_Phase_8,36,9999,9999,9999,1702921296
105,17,15,Jits_Phase_8,37,9999,9999,9999,1703722040
105,17,15,Jits_Phase_8,38,9999,9999,9999,1704521808
105,17,15,Jits_Phase_8,39,9999,9999,9999,1705321576
105,17,15,Jits_Phase_8,40,9999,9999,9999,1706121288
105,17,15,Jits_Phase_8,41,9999,9999,9999,1706922092
105,17,15,Jits_Phase_8,42,9999,9999,9999,1707721844
105,17,15,Jits_Phase_8,43,9999,9999,9999,1708521592
105,17,15,Jits_Phase_8,44,9999,9999,9999,1709321332
105,17,15,Jits_Phase_8,45,9999,9999,9999,1710122064
105,17,15,Jits_Phase_8,46,9999,9999,9999,1710921824
105,17,15,Jits_Phase_8,47,9999,9999,9999,1711721576
105,17,15,Jits_Phase_8,48,9999,9999,9999,1712541812
105,17,15,Jits_Phase_8,49,9999,9999,9999,1713341568
105,17,15,Jits_Phase_8,50,9999,9999,9999,1714141248
105,17,15,Jits_Phase_8,51,9999,9999,9999,1714942052
105,17,15,Jits_Phase_8,52,9999,9999,9999,1715741812
105,17,15,Jits_Phase_8,53,9999,9999,9999,1716541504
105,17,15,Jits_Phase_8,54,9999,9999,9999,1717341256
105,17,15,Jits_Phase_8,55,9999,9999,9999,1718142060
105,17,15,Jits_Phase_8,56,9999,9999,9999,1718941760
105,17,15,Jits_Phase_8,57,9999,9999,9999,1719741516
105,17,15,Jits_Phase_8,58,9999,9999,9999,1720541276
105,17,15,Jits_Phase_8,59,9999,9999,9999,1721342080
105,17,15,Jits_Phase_8,60,9999,9999,9999,1722141760
105,17,15,Jits_Phase_8,61,9999,9999,9999,1722941524
105,17,15,Jits_Phase_8,62,9999,9999,9999,1723741288
105,17,15,Jits_Phase_8,63,9999,9999,9999,1724542012
105,17,15,Jits_Phase_8,64,9999,9999,9999,1725381728
105,17,15,Jits_Phase_8,65,9999,9999,9999,1726181484
105,17,15,Jits_Phase_8,66,9999,9999,9999,1726981244
105,17,15,Jits_Phase_8,67,9999,9999,9999,1727781980
105,17,15,Jits_Phase_8,68,9999,9999,9999,1728581728
105,17,15,Jits_Phase_8,69,9999,9999,9999,1729381500
105,17,15,Jits_Phase_8,70,9999,9999,9999,1730181216
105,17,15,Jits_Phase_8,71,9999,9999,9999,1730981956
105,17,15,Jits_Phase_8,72,9999,9999,9999,1731781712
105,17,15,Jits_Phase_8,73,9999,9999,9999,1732581472
105,17,15,Jits_Phase_8,74,9999,9999,9999,1733381236
105,17,15,Jits_Phase_8,75,9999,9999,9999,1734181968
105,17,15,Jits_Phase_8,76,9999,9999,9999,1734981724
105,17,15,Jits_Phase_8,77,9999,9999,9999,1735781496
105,17,15,Jits_Phase_8,78,9999,9999,9999,1736581212
105,17,15,Jits_Phase_8,79,9999,9999,9999,1737381956
105,17,15,Jits_Phase_8,80,9999,9999,9999,1738181728
105,17,15,Jits_Phase_8,81,9999,9999,9999,1738941556
105,17,15,Jits_Phase_8,82,9999,9999,9999,1739741240
105,17,15,Jits_Phase_8,83,9999,9999,9999,1740542040
105,17,15,Jits_Phase_8,84,9999,9999,9999,1741341804
105,17,15,Jits_Phase_8,85,9999,9999,9999,1742141524
105,17,15,Jits_Phase_8,86,9999,9999,9999,1742941240
105,17,15,Jits_Phase_8,87,9999,9999,9999,1743742036
105,17,15,Jits_Phase_8,88,9999,9999,9999,1744541808
105,17,15,Jits_Phase_8,89,9999,9999,9999,1745341548
105,17,15,Jits_Phase_8,90,9999,9999,9999,1746141240
105,17,15,Jits_Phase_8,91,9999,9999,9999,1746942040
105,17,15,Jits_Phase_8,92,9999,9999,9999,1747741800
105,17,15,Jits_Phase_8,93,9999,9999,9999,1748541552
105,17,15,Jits_Phase_8,94,9999,9999,9999,1749341312
105,17,15,Jits_Phase_8,95,9999,9999,9999,1750142036
105,17,15,Jits_Phase_8,96,9999,9999,9999,1750941812
105,17,15,Jits_Phase_8,97,9999,9999,9999,1751661684
105,17,15,Jits_Phase_8,98,9999,9999,9999,1752461400
105,17,15,Jits_Phase_8,99,9999,9999,9999,1753261160
105,17,15,Jits_Phase_8,100,9999,9999,9999,1754061884
105,17,15,Jits_Phase_8,101,9999,9999,9999,1754861644
105,17,15,Jits_Phase_8,102,9999,9999,9999,1755661408
105,17,15,Jits_Phase_8,103,9999,9999,9999,1756461168
105,17,15,Jits_Phase_8,104,9999,9999,9999,1757261900
105,17,15,Jits_Phase_8,105,9999,9999,9999,1758061664
105,17,15,Jits_Phase_8,106,9999,9999,9999,1758861436
105,17,15,Jits_Phase_8,107,9999,9999,9999,1759661176
105,17,15,Jits_Phase_8,108,9999,9999,9999,1760461912
105,17,15,Jits_Phase_8,109,9999,9999,9999,1761261668
105,17,15,Jits_Phase_8,110,9999,9999,9999,1762061424
105,17,15,Jits_Phase_8,111,9999,9999,9999,1762861112
105,17,15,Jits_Phase_8,112,9999,9999,9999,1763661924
105,17,15,Jits_Phase_8,113,9999,9999,9999,1764461696
105,17,15,Jits_Phase_8,114,9999,9999,9999,1765341276
105,17,15,Jits_Phase_8,115,9999,9999,9999,1766142080
105,17,15,Jits_Phase_8,116,9999,9999,9999,1766941784
105,17,15,Jits_Phase_8,117,9999,9999,9999,1767741560
105,17,15,Jits_Phase_8,118,9999,9999,9999,1768541264
105,17,15,Jits_Phase_8,119,9999,9999,9999,1769342076
105,17,15,Jits_Phase_8,120,9999,9999,9999,1770141788
105,17,15,Jits_Phase_8,121,9999,9999,9999,1770941548
105,17,15,Jits_Phase_8,122,9999,9999,9999,1771741296
105,17,15,Jits_Phase_8,123,9999,9999,9999,1772542020
105,17,15,Jits_Phase_8,124,9999,9999,9999,1773341800
105,17,15,Jits_Phase_8,125,9999,9999,9999,1774141544
105,17,15,Jits_Phase_8,126,9999,9999,9999,1774941288
105,17,15,Jits_Phase_8,127,9999,9999,9999,1775742040
105,17,15,Jits_Phase_8,128,9999,9999,9999,1776541816
105,17,15,Jits_Phase_8,129,9999,9999,9999,1777341520
105,17,15,Jits_Phase_8,130,9999,9999,9999,1778141240
105,17,15,Jits_Phase_8,131,9999,9999,9999,1779101776
105,17,15,Jits_Phase_8,132,9999,9999,9999,1779901532
105,17,15,Jits_Phase_8,133,9999,9999,9999,1780701252
105,17,15,Jits_Phase_8,134,9999,9999,9999,1781502052
105,17,15,Jits_Phase_8,135,9999,9999,9999,1782301780
105,17,15,Jits_Phase_8,136,9999,9999,9999,1783101500
105,17,15,Jits_Phase_8,137,9999,9999,9999,1783901264
105,17,15,Jits_Phase_8,138,9999,9999,9999,1784702068
105,17,15,Jits_Phase_8,139,9999,9999,9999,1785501784
105,17,15,Jits_Phase_8,140,9999,9999,9999,1786301540
105,17,15,Jits_Phase_8,141,9999,9999,9999,1787101300
105,17,15,Jits_Phase_8,142,9999,9999,9999,1787902040
105,17,15,Jits_Phase_8,143,9999,9999,9999,1788701796
105,17,15,Jits_Phase_8,144,9999,9999,9999,1789501552
105,17,15,Jits_Phase_8,145,9999,9999,9999,1790301312
105,17,15,Jits_Phase_8,146,9999,9999,9999,1791102056
105,17,15,Jits_Phase_8,147,9999,9999,9999,1791901756
105,17,15,Jits_Phase_8,148,9999,9999,9999,1792701508
105,17,15,Jits_Phase_8,149,9999,9999,9999,1793501264
105,17,15,Jits_Phase_8,150,9999,9999,9999,1794141276
105,17,15,Jits_Phase_8,151,9999,9999,9999,1794942016
105,17,15,Jits_Phase_8,152,9999,9999,9999,1795741808
105,17,15,Jits_Phase_8,153,9999,9999,9999,1796541512
105,17,15,Jits_Phase_8,154,9999,9999,9999,1797341276
105,17,15,Jits_Phase_8,155,9999,9999,9999,1798142080
105,17,15,Jits_Phase_8,156,9999,9999,9999,1798941780
105,17,15,Jits_Phase_8,157,9999,9999,9999,1799741536
105,17,15,Jits_Phase_8,158,9999,9999,9999,1800541300
105,17,15,Jits_Phase_8,159,9999,9999,9999,1801342028
105,17,15,Jits_Phase_8,160,9999,9999,9999,1802141812
105,17,15,Jits_Phase_8,161,9999,9999,9999,1802941496
105,17,15,Jits_Phase_8,162,9999,9999,9999,1803741260
105,17,15,Jits_Phase_8,163,9999,9999,9999,1804542064
105,17,15,Jits_Phase_8,164,9999,9999,9999,1805341816
105,17,15,Jits_Phase_8,165,9999,9999,9999,1806141496
105,17,15,Jits_Phase_8,166,9999,9999,9999,1806941268
105,17,15,Jits_Phase_8,167,9999,9999,9999,1807742072
105,17,15,Jits_Phase_8,168,9999,9999,9999,1808541784
105,17,15,Jits_Phase_8,169,9999,9999,9999,1809341552
105,18,19,Jits_Linear_5,0,5,56,103,1817246156
105,18,19,Jits_Linear_5,1,5,63,98,1817249104
105,18,19,Jits_Linear_5,2,5,80,127,1817252452
105,18,19,Jits_Linear_5,0,5,56,103,1817726288
105,18,19,Jits_Linear_5,1,5,63,98,1817729340
105,18,19,Jits_Linear_5,2,5,80,127,1817732616
105,18,19,Jits_Linear_5,0,5,56,103,1818205576
105,18,19,Jits_Linear_5,1,5,80,127,1818215996
105,18,19,Jits_Linear_5,2,5,63,98,1818236156
105,18,19,Jits_Linear_5,0,5,63,98,1818635708
105,18,19,Jits_Linear_5,1,5,80,127,1818666360
105,18,19,Jits_Linear_5,2,5,56,103,1818675656
105,18,19,Jits_Linear_5,0,1,48,62,1819167536
105,18,19,Jits_Linear_5,1,5,80,127,1819176252
105,18,19,Jits_Linear_5,2,5,56,103,1819185552
105,18,19,Jits_Linear_5,3,5,63,98,1819216200
105,18,19,Jits_Linear_5,0,5,63,98,1819655724
105,18,19,Jits_Linear_5,1,1,48,65,1819667012
105,18,19,Jits_Linear_5,2,5,56,103,1819686144
105,18,19,Jits_Linear_5,3,5,80,127,1819695592
105,18,19,Jits_Linear_5,0,5,56,103,1820096000
105,18,19,Jits_Linear_5,1,5,63,98,1820146056
105,18,19,Jits_Linear_5,2,1,48,65,1820156972
105,18,19,Jits_Linear_5,3,5,80,127,1820165836
105,18,19,Jits_Linear_5,0,5,80,127,1820586264
105,18,19,Jits_Linear_5,1,1,48,62,1820618152
105,18,19,Jits_Linear_5,2,5,63,98,1820635488
105,18,19,Jits_Linear_5,3,5,56,103,1820675352
105,18,19,Jits_Linear_5,0,5,56,103,1821075776
105,18,19,Jits_Linear_5,1,5,63,98,1821105828
105,18,19,Jits_Linear_5,2,1,48,58,1821131640
105,18,19,Jits_Linear_5,3,5,80,127,1821176176
105,18,19,Jits_Linear_5,0,5,56,103,1821566760
105,18,19,Jits_Linear_5,1,1,48,58,1821591380
105,18,19,Jits_Linear_5,2,5,80,127,1821625804
105,18,19,Jits_Linear_5,3,5,63,98,1821656304
105,18,19,Jits_Linear_5,0,5,56,103,1822066072
105,18,19,Jits_Linear_5,1,5,63,98,1822076416
105,18,19,Jits_Linear_5,2,1,48,53,1822114036
105,18,19,Jits_Linear_5,3,5,80,127,1822116152
105,18,19,Jits_Linear_5,0,5,63,98,1822555580
105,18,19,Jits_Linear_5,1,1,48,61,1822565452
105,18,19,Jits_Linear_5,2,5,80,127,1822636296
105,18,19,Jits_Linear_5,3,5,56,103,1822645820
105,18,19,Jits_Linear_5,0,1,48,79,1823055468
105,18,19,Jits_Linear_5,1,5,63,98,1823106536
105,18,19,Jits_Linear_5,2,5,56,103,1823146476
105,18,19,Jits_Linear_5,3,5,80,127,1823149692
105,18,19,Jits_Linear_5,0,1,48,65,1823535060
105,18,19,Jits_Linear_5,1,5,56,103,1823566328
105,18,19,Jits_Linear_5,2,5,63,98,1823576376
105,18,19,Jits_Linear_5,3,5,80,127,1823616264
105,18,19,Jits_Linear_5,0,1,48,76,1824007548
105,18,19,Jits_Linear_5,1,5,56,103,1824055824
105,18,19,Jits_Linear_5,2,5,63,98,1824058964
105,18,19,Jits_Linear_5,3,5,80,127,1824076132
105,18,19,Jits_Linear_5,0,1,48,74,1824493048
105,18,19,Jits_Linear_5,1,5,80,127,1824575952
105,18,19,Jits_Linear_5,2,5,56,103,1824586884
105,18,19,Jits_Linear_5,3,5,63,98,1824655764
105,18,19,Jits_Linear_5,0,1,48,71,1825006084
105,18,19,Jits_Linear_5,1,5,63,98,1825075712
105,18,19,Jits_Linear_5,2,5,56,103,1825096024
105,18,19,Jits_Linear_5,3,5,80,127,1825175904
105,18,19,Jits_Linear_5,0,1,48,71,1825522020
105,18,19,Jits_Linear_5,1,5,56,103,1825595704
105,18,19,Jits_Linear_5,2,5,80,127,1825635776
105,18,19,Jits_Linear_5,3,5,63,98,1825645976
105,18,19,Jits_Linear_5,0,1,48,71,1826008596
105,18,19,Jits_Linear_5,1,5,80,127,1826095468
105,18,19,Jits_Linear_5,2,5,63,98,1826126400
105,18,19,Jits_Linear_5,3,5,56,103,1826166264
105,18,19,Jits_Linear_5,0,1,48,67,1826507984
105,18,19,Jits_Linear_5,1,5,56,103,1826625856
105,18,19,Jits_Linear_5,2,5,63,98,1826655680
105,18,19,Jits_Linear_5,3,5,80,127,1826705688
105,18,19,Jits_Linear_5,0,1,48,64,1826992756
105,18,19,Jits_Linear_5,1,5,80,127,1827135960
105,18,19,Jits_Linear_5,2,5,56,103,1827175900
105,18,19,Jits_Linear_5,3,5,63,98,1827186096
105,18,19,Jits_Linear_5,0,1,48,73,1827486088
105,18,19,Jits_Linear_5,1,5,80,127,1827635572
105,18,19,Jits_Linear_5,2,5,63,98,1827675660
105,18,19,Jits_Linear_5,3,5,56,103,1827735856
105,18,19,Jits_Linear_5,0,1,48,73,1827979992
105,18,19,Jits_Linear_5,1,5,56,103,1828155784
105,18,19,Jits_Linear_5,2,5,80,127,1828166132
105,18,19,Jits_Linear_5,3,5,63,98,1828245880
105,18,19,Jits_Linear_5,0,1,48,68,1828479372
105,18,19,Jits_Linear_5,1,5,80,127,1828675928
105,18,19,Jits_Linear_5,2,5,63,98,1828736272
105,18,19,Jits_Linear_5,3,5,56,103,1828766096
105,18,19,Jits_Linear_5,4,1,48,72,1828966244
105,18,19,Jits_Linear_5,0,5,56,103,1829196352
105,18,19,Jits_Linear_5,1,5,80,127,1829255652
105,18,19,Jits_Linear_5,2,5,63,98,1829295664
105,18,19,Jits_Linear_5,3,1,48,62,1829419100
105,18,19,Jits_Linear_5,0,5,56,103,1829775656
105,18,19,Jits_Linear_5,1,5,63,98,1829786072
105,18,19,Jits_Linear_5,2,5,80,127,1829789584
105,18,19,Jits_Linear_5,3,1,48,69,1829890848
105,18,19,Jits_Linear_5,0,5,80,127,1830266328
105,18,19,Jits_Linear_5,1,1,48,63,1830345152
105,18,19,Jits_Linear_5,2,5,63,98,1830356188
105,18,19,Jits_Linear_5,3,5,56,103,1830365708
105,18,19,Jits_Linear_5,0,5,56,103,1830795864
105,18,19,Jits_Linear_5,1,5,63,98,1830798816
105,18,19,Jits_Linear_5,2,5,80,127,1830802008
105,18,19,Jits_Linear_5,3,1,48,54,1830832700
105,18,19,Jits_Linear_5,0,1,48,64,1831344704
105,18,19,Jits_Linear_5,1,5,80,127,1831346348
105,18,19,Jits_Linear_5,2,5,63,98,1831395656
105,18,19,Jits_Linear_5,3,5,56,103,1831426528
105,18,19,Jits_Linear_5,0,5,56,103,1831855560
105,18,19,Jits_Linear_5,1,1,48,69,1831863320
105,18,19,Jits_Linear_5,2,5,80,127,1831865900
105,18,19,Jits_Linear_5,3,5,63,98,1831936480
105,18,19,Jits_Linear_5,0,1,48,73,1832372232
105,18,19,Jits_Linear_5,1,5,56,103,1832396240
105,18,19,Jits_Linear_5,2,5,63,98,1832415580
105,18,19,Jits_Linear_5,3,5,80,127,1832475880
105,18,19,Jits_Linear_5,0,1,48,73,1832864812
105,18,19,Jits_Linear_5,1,5,80,127,1832935788
105,18,19,Jits_Linear_5,2,5,63,98,1833005680
105,18,19,Jits_Linear_5,3,5,56,103,1833025844
105,18,19,Jits_Linear_5,0,1,48,76,1833420012
105,18,19,Jits_Linear_5,1,5,80,127,1833496012
105,18,19,Jits_Linear_5,2,5,56,103,1833506284
105,18,19,Jits_Linear_5,3,5,63,98,1833516988
105,18,19,Jits_Linear_5,0,1,48,80,1833977916
105,18,19,Jits_Linear_5,1,5,80,127,1834026640
105,18,19,Jits_Linear_5,2,5,56,103,1834045684
105,18,19,Jits_Linear_5,3,5,63,98,1834115596
105,18,19,Jits_Linear_5,0,1,48,86,1834526084
105,18,19,Jits_Linear_5,1,5,56,103,1834576228
105,18,19,Jits_Linear_5,2,5,80,127,1834605832
105,18,19,Jits_Linear_5,3,5,63,98,1834626452
105,18,19,Jits_Linear_5,0,1,48,75,1835050628
105,18,19,Jits_Linear_5,1,5,63,98,1835115772
105,18,19,Jits_Linear_5,2,5,56,103,1835176252
105,18,19,Jits_Linear_5,3,5,80,127,1835205928
105,18,19,Jits_Linear_5,0,1,48,81,1835561624
105,18,19,Jits_Linear_5,1,5,63,98,1835655716
105,18,19,Jits_Linear_5,2,5,80,127,1835658928
105,18,19,Jits_Linear_5,3,5,56,103,1835745908
105,18,19,Jits_Linear_5,0,1,48,75,1836079360
105,18,19,Jits_Linear_5,1,5,56,103,1836225952
105,18,19,Jits_Linear_5,2,5,63,98,1836255704
105,18,19,Jits_Linear_5,3,5,80,127,1836295568
105,18,19,Jits_Linear_5,0,1,48,82,1836622048
105,18,19,Jits_Linear_5,1,5,63,98,1836775764
105,18,19,Jits_Linear_5,2,5,56,103,1836815780
105,18,19,Jits_Linear_5,3,5,80,127,1836836164
105,18,19,Jits_Linear_5,0,1,48,79,1837161296
105,18,19,Jits_Linear_5,1,5,63,98,1837336064
105,18,19,Jits_Linear_5,2,5,56,103,1837375932
105,18,19,Jits_Linear_5,3,5,80,127,1837386204
105,18,19,Jits_Linear_5,0,1,48,80,1837666388
105,18,19,Jits_Linear_5,1,5,80,127,1837866248
105,18,19,Jits_Linear_5,2,5,63,98,1837935936
105,18,19,Jits_Linear_5,3,5,56,103,1837955668
105,18,19,Jits_Linear_5,0,1,48,65,1838211272
105,18,19,Jits_Linear_5,1,5,56,103,1838416208
105,18,19,Jits_Linear_5,2,5,80,127,1838435696
105,18,19,Jits_Linear_5,3,5,63,98,1838475660
105,18,19,Jits_Linear_5,0,1,48,67,1838761596
105,18,19,Jits_Linear_5,1,5,63,98,1838985596
105,18,19,Jits_Linear_5,2,5,80,127,1839006056
105,18,19,Jits_Linear_5,3,5,56,103,1839045920
105,18,19,Jits_Linear_5,4,1,48,66,1839290736
105,18,19,Jits_Linear_5,0,5,63,98,1839545888
105,18,19,Jits_Linear_5,1,5,56,103,1839566272
105,18,19,Jits_Linear_5,2,5,80,127,1839576544
105,18,19,Jits_Linear_5,3,1,48,44,1839759412
105,18,19,Jits_Linear_5,0,5,80,127,1840105884
105,18,19,Jits_Linear_5,1,5,56,103,1840126268
105,18,19,Jits_Linear_5,2,1,48,63,1840145348
105,18,19,Jits_Linear_5,3,5,63,98,1840155936
105,18,19,Jits_Linear_5,0,1,48,76,1840626304
105,18,19,Jits_Linear_5,1,5,56,103,1840745892
105,18,19,Jits_Linear_5,2,5,80,127,1840748808
105,18,19,Jits_Linear_5,3,5,63,98,1840766524
105,18,19,Jits_Linear_5,0,5,63,98,1841236456
105,18,19,Jits_Linear_5,1,5,56,103,1841265984
105,18,19,Jits_Linear_5,2,1,48,62,1841267248
105,18,19,Jits_Linear_5,3,5,80,127,1841325720
105,18,19,Jits_Linear_5,0,1,48,64,1841856544
105,18,19,Jits_Linear_5,1,5,63,98,1841885712
105,18,19,Jits_Linear_5,2,5,56,103,1841895760
105,18,19,Jits_Linear_5,3,5,80,127,1841906180
105,18,19,Jits_Linear_5,0,5,56,103,1842405640
105,18,19,Jits_Linear_5,1,5,80,127,1842435616
105,18,19,Jits_Linear_5,2,5,63,98,1842445736
105,18,19,Jits_Linear_5,3,1,48,77,1842452368
105,18,19,Jits_Linear_5,0,1,48,84,1843021800
105,18,19,Jits_Linear_5,1,5,63,98,1843026256
105,18,19,Jits_Linear_5,2,5,56,103,1843035632
105,18,19,Jits_Linear_5,3,5,80,127,1843055868
105,18,19,Jits_Linear_5,0,5,56,103,1843526028
105,18,19,Jits_Linear_5,1,5,63,98,1843586520
105,18,19,Jits_Linear_5,2,5,80,127,1843589884
105,18,19,Jits_Linear_5,3,1,48,74,1843643272
105,18,19,Jits_Linear_5,0,5,80,127,1844126064
105,18,19,Jits_Linear_5,1,1,48,64,1844134516
105,18,19,Jits_Linear_5,2,5,56,103,1844136400
105,18,19,Jits_Linear_5,3,5,63,98,1844205860
105,18,19,Jits_Linear_5,0,5,80,127,1844696636
105,18,19,Jits_Linear_5,1,1,48,74,1844710316
105,18,19,Jits_Linear_5,2,5,56,103,1844766016
105,18,19,Jits_Linear_5,3,5,63,98,1844776512
105,18,19,Jits_Linear_5,0,1,48,95,1845292576
105,18,19,Jits_Linear_5,1,5,63,98,1845315912
105,18,19,Jits_Linear_5,2,5,56,103,1845326188
105,18,19,Jits_Linear_5,3,5,80,127,1845345672
105,18,19,Jits_Linear_5,0,1,48,85,1845832872
105,18,19,Jits_Linear_5,1,5,80,127,1845846540
105,18,19,Jits_Linear_5,2,5,63,98,1845905768
105,18,19,Jits_Linear_5,3,5,56,103,1845945692
105,18,19,Jits_Linear_5,0,1,48,78,1846426248
105,18,19,Jits_Linear_5,1,5,56,103,1846476024
105,18,19,Jits_Linear_5,2,5,63,98,1846486668
105,18,19,Jits_Linear_5,3,5,80,127,1846526440
105,18,19,Jits_Linear_5,0,5,56,103,1847025912
105,18,19,Jits_Linear_5,1,1,48,79,1847035852
105,18,19,Jits_Linear_5,2,5,80,127,1847055732
105,18,19,Jits_Linear_5,3,5,63,98,1847106008
105,18,19,Jits_Linear_5,0,1,48,92,1847599372
105,18,19,Jits_Linear_5,1,5,56,103,1847655744
105,18,19,Jits_Linear_5,2,5,63,98,1847695708
105,18,19,Jits_Linear_5,3,5,80,127,1847699732
105,18,19,Jits_Linear_5,0,1,48,80,1848224728
105,18,19,Jits_Linear_5,1,5,56,103,1848245508
105,18,19,Jits_Linear_5,2,5,63,98,1848256000
105,18,19,Jits_Linear_5,3,5,80,127,1848276536
105,18,19,Jits_Linear_5,0,1,48,79,1848762684
105,18,19,Jits_Linear_5,1,5,56,103,1848795684
105,18,19,Jits_Linear_5,2,5,80,127,1848798672
105,18,19,Jits_Linear_5,3,5,63,98,1848835696
105,18,19,Jits_Linear_5,0,1,48,77,1849415960
105,18,19,Jits_Linear_5,1,5,63,98,1849426472
105,18,19,Jits_Linear_5,2,5,56,103,1849455924
105,18,19,Jits_Linear_5,3,5,80,127,1849475584
105,18,19,Jits_Linear_5,0,5,80,127,1849995644
105,18,19,Jits_Linear_5,1,5,56,103,1850005916
105,18,19,Jits_Linear_5,2,5,63,98,1850016112
105,18,19,Jits_Linear_5,3,1,48,67,1850027104
105,18,19,Jits_Linear_5,0,1,48,80,1850593216
105,18,19,Jits_Linear_5,1,5,56,103,1850595728
105,18,19,Jits_Linear_5,2,5,80,127,1850635520
105,18,19,Jits_Linear_5,3,5,63,98,1850666616
105,18,19,Jits_Linear_5,0,1,48,62,1851170748
105,18,19,Jits_Linear_5,1,5,63,98,1851205996
105,18,19,Jits_Linear_5,2,5,80,127,1851216344
105,18,19,Jits_Linear_5,3,5,56,103,1851225420
105,18,19,Jits_Linear_5,0,1,48,82,1851757576
105,18,19,Jits_Linear_5,1,5,56,103,1851785648
105,18,19,Jits_Linear_5,2,5,63,98,1851857560
105,18,19,Jits_Linear_5,3,5,80,127,1851865516
105,18,19,Jits_Linear_5,0,1,48,80,1852371088
105,18,19,Jits_Linear_5,1,5,80,127,1852395920
105,18,19,Jits_Linear_5,2,5,56,103,1852406268
105,18,19,Jits_Linear_5,3,5,63,98,1852456396
105,18,19,Jits_Linear_5,0,1,48,79,1852958580
105,18,19,Jits_Linear_5,1,5,80,127,1853016380
105,18,19,Jits_Linear_5,2,5,56,103,1853075736
105,18,19,Jits_Linear_5,3,5,63,98,1853105488
105,18,19,Jits_Linear_5,0,1,48,76,1853563452
105,18,19,Jits_Linear_5,1,5,56,103,1853625700
105,18,19,Jits_Linear_5,2,5,80,127,1853628768
105,18,19,Jits_Linear_5,3,5,63,98,1853665624
105,18,19,Jits_Linear_5,0,1,48,86,1854146396
105,18,19,Jits_Linear_5,1,5,56,103,1854265692
105,18,19,Jits_Linear_5,2,5,63,98,1854296712
105,18,19,Jits_Linear_5,3,5,80,127,1854305712
105,18,19,Jits_Linear_5,0,1,48,86,1854789408
105,18,19,Jits_Linear_5,1,5,63,98,1854886256
105,18,19,Jits_Linear_5,2,5,80,127,1854895628
105,18,19,Jits_Linear_5,3,5,56,103,1854905824
105,18,19,Jits_Linear_5,0,1,48,65,1855429832
105,18,19,Jits_Linear_5,1,5,80,127,1855446492
105,18,19,Jits_Linear_5,2,5,56,103,1855495576
105,18,19,Jits_Linear_5,3,5,63,98,1855498712
105,18,19,Jits_Linear_5,0,1,48,70,1856070580
105,18,19,Jits_Linear_5,1,5,56,103,1856095564
105,18,19,Jits_Linear_5,2,5,80,127,1856116024
105,18,19,Jits_Linear_5,3,5,63,98,1856126620
105,18,19,Jits_Linear_5,0,1,48,65,1856675564
105,18,19,Jits_Linear_5,1,5,63,98,1856695596
105,18,19,Jits_Linear_5,2,5,56,103,1856726468
105,18,19,Jits_Linear_5,3,5,80,127,1856745804
105,18,19,Jits_Linear_5,0,1,48,76,1857254064
105,18,19,Jits_Linear_5,1,5,56,103,1857325492
105,18,19,Jits_Linear_5,2,5,80,127,1857335688
105,18,19,Jits_Linear_5,3,5,63,98,1857406500
105,18,19,Jits_Linear_5,0,1,48,76,1857857884
105,18,19,Jits_Linear_5,1,5,63,98,1857945828
105,18,19,Jits_Linear_5,2,5,80,127,1857985904
105,18,19,Jits_Linear_5,3,5,56,103,1858025768
105,18,19,Jits_Linear_5,0,1,48,74,1858442096
105,18,19,Jits_Linear_5,1,5,56,103,1858585824
105,18,19,Jits_Linear_5,2,5,63,98,1858596320
105,18,19,Jits_Linear_5,3,5,80,127,1858615660
105,18,19,Jits_Linear_5,0,1,48,106,1859042776
105,18,19,Jits_Linear_5,1,5,63,98,1859255684
105,18,19,Jits_Linear_5,2,5,80,127,1859276072
105,18,19,Jits_Linear_5,3,5,56,103,1859295560
105,18,19,Jits_Linear_5,0,1,48,83,1859638024
105,18,19,Jits_Linear_5,1,5,56,103,1859825976
105,18,19,Jits_Linear_5,2,5,80,127,1859905928
105,18,19,Jits_Linear_5,3,5,63,98,1859916344
105,18,19,Jits_Linear_5,0,1,48,64,1860204464
105,18,19,Jits_Linear_5,1,5,80,127,1860495688
105,18,19,Jits_Linear_5,2,5,63,98,1860506108
105,18,19,Jits_Linear_5,3,5,56,103,1860535860
105,18,19,Jits_Linear_5,0,1,48,55,1860875000
105,18,19,Jits_Linear_5,1,5,63,98,1861085580
105,18,19,Jits_Linear_5,2,5,80,127,1861125444
105,18,19,Jits_Linear_5,3,5,56,103,1861185836
105,18,19,Jits_Linear_5,0,1,48,76,1861479344
105,18,19,Jits_Linear_5,1,5,63,98,1861725592
105,18,19,Jits_Linear_5,2,5,56,103,1861775748
105,18,19,Jits_Linear_5,3,5,80,127,1861805348
105,18,19,Jits_Linear_5,0,1,48,75,1862149356
105,18,19,Jits_Linear_5,1,5,80,127,1862375896
105,18,19,Jits_Linear_5,2,5,63,98,1862386168
105,18,19,Jits_Linear_5,3,5,56,103,1862455624
105,18,19,Jits_Linear_5,0,1,48,73,1862757828
105,18,19,Jits_Linear_5,1,5,80,127,1863085540
105,18,19,Jits_Linear_5,2,5,56,103,1863095660
105,18,19,Jits_Linear_5,3,5,63,98,1863098876
105,18,19,Jits_Linear_5,0,1,48,50,1863448736
105,18,19,Jits_Linear_5,1,5,56,103,1863666132
105,18,19,Jits_Linear_5,2,5,80,127,1863685472
105,18,19,Jits_Linear_5,3,5,63,98,1863695744
105,18,19,Jits_Linear_5,0,1,48,63,1864184388
105,18,19,Jits_Linear_5,1,5,63,98,1864316484
105,18,19,Jits_Linear_5,2,5,56,103,1864356304
105,18,19,Jits_Linear_5,3,5,80,127,1864375568
105,18,19,Jits_Linear_5,0,1,48,67,1864808212
105,18,19,Jits_Linear_5,1,5,63,98,1864965596
105,18,19,Jits_Linear_5,2,5,56,103,1865025840
105,18,19,Jits_Linear_5,3,5,80,127,1865028904
105,18,19,Jits_Linear_5,0,1,48,60,1865406216
105,18,19,Jits_Linear_5,1,5,56,103,1865575860
105,18,19,Jits_Linear_5,2,5,80,127,1865596244
105,18,19,Jits_Linear_5,3,5,63,98,1865636428
105,18,19,Jits_Linear_5,0,1,48,58,1866041576
105,18,19,Jits_Linear_5,1,5,56,103,1866255680
105,18,19,Jits_Linear_5,2,5,63,98,1866276212
105,18,19,Jits_Linear_5,3,5,80,127,1866285288
105,18,19,Jits_Linear_5,0,1,48,59,1866705672
105,18,19,Jits_Linear_5,1,5,80,127,1866876508
105,18,19,Jits_Linear_5,2,5,56,103,1866905964
105,18,19,Jits_Linear_5,3,5,63,98,1866945756
105,18,19,Jits_Linear_5,0,1,48,66,1867361460
105,18,19,Jits_Linear_5,1,5,80,127,1867535704
105,18,19,Jits_Linear_5,2,5,56,103,1867556388
105,18,19,Jits_Linear_5,3,5,63,98,1867615584
105,18,19,Jits_Linear_5,0,1,48,59,1868034620
105,18,19,Jits_Linear_5,1,5,56,103,1868196640
105,18,19,Jits_Linear_5,2,5,80,127,1868215680
105,18,19,Jits_Linear_5,3,5,63,98,1868276072
105,18,19,Jits_Linear_5,0,1,48,64,1868662256
105,18,19,Jits_Linear_5,1,5,80,127,1868836424
105,18,19,Jits_Linear_5,2,5,56,103,1868845428
105,18,19,Jits_Linear_5,3,5,63,98,1868886488
105,18,19,Jits_Linear_5,0,1,48,61,1869310984
105,18,19,Jits_Linear_5,1,5,63,98,1869495644
105,18,19,Jits_Linear_5,2,5,56,103,1869535732
105,18,19,Jits_Linear_5,3,5,80,127,1869538720
105,18,19,Jits_Linear_5,0,1,48,58,1869935860
105,18,19,Jits_Linear_5,1,5,63,98,1870175652
105,18,19,Jits_Linear_5,2,5,80,127,1870215396
105,18,19,Jits_Linear_5,3,5,56,103,1870246340
105,18,19,Jits_Linear_5,0,1,48,45,1870584288
105,18,19,Jits_Linear_5,1,5,56,103,1870825732
105,18,19,Jits_Linear_5,2,5,63,98,1870836080
105,18,19,Jits_Linear_5,3,5,80,127,1870865752
105,18,19,Jits_Linear_5,0,1,48,52,1871210948
105,18,19,Jits_Linear_5,1,5,80,127,1871486296
105,18,19,Jits_Linear_5,2,5,63,98,1871555908
105,18,19,Jits_Linear_5,3,5,56,103,1871566324
105,18,19,Jits_Linear_5,0,1,48,60,1871894308
105,18,19,Jits_Linear_5,1,5,63,98,1872156128
105,18,19,Jits_Linear_5,2,5,56,103,1872225592
105,18,19,Jits_Linear_5,3,5,80,127,1872235788
105,18,19,Jits_Linear_5,0,1,48,68,1872609108
105,18,19,Jits_Linear_5,1,5,63,98,1872825836
105,18,19,Jits_Linear_5,2,5,56,103,1872846148
105,18,19,Jits_Linear_5,3,5,80,127,1872886384
105,18,19,Jits_Linear_5,0,1,48,60,1873259540
105,18,19,Jits_Linear_5,1,5,56,103,1873505560
105,18,19,Jits_Linear_5,2,5,63,98,1873515756
105,18,19,Jits_Linear_5,3,5,80,127,1873595652
105,18,19,Jits_Linear_5,4,1,48,55,1873827360
105,18,19,Jits_Linear_5,0,5,63,98,1874166344
105,18,19,Jits_Linear_5,1,5,56,103,1874195796
105,18,19,Jits_Linear_5,2,5,80,127,1874235812
105,18,19,Jits_Linear_5,0,1,48,49,1874685132
105,18,19,Jits_Linear_5,1,5,56,103,1874835692
105,18,19,Jits_Linear_5,2,5,63,98,1874875708
105,18,19,Jits_Linear_5,3,5,80,127,1874915648
105,18,19,Jits_Linear_5,0,1,48,41,1875408180
105,18,19,Jits_Linear_5,1,5,80,127,1875515712
105,18,19,Jits_Linear_5,2,5,56,103,1875595684
105,18,19,Jits_Linear_5,3,5,63,98,1875605880
105,18,19,Jits_Linear_5,0,1,48,63,1876196944
105,18,19,Jits_Linear_5,1,5,56,103,1876235476
105,18,19,Jits_Linear_5,2,5,63,98,1876238620
105,18,19,Jits_Linear_5,3,5,80,127,1876245828
105,18,19,Jits_Linear_5,0,1,48,55,1876879748
105,18,19,Jits_Linear_5,1,5,56,103,1876936124
105,18,19,Jits_Linear_5,2,5,63,98,1876955536
105,18,19,Jits_Linear_5,3,5,80,127,1876965732
105,18,19,Jits_Linear_5,0,1,48,51,1877568844
105,18,19,Jits_Linear_5,1,5,63,98,1877576136
105,18,19,Jits_Linear_5,2,5,80,127,1877586556
105,18,19,Jits_Linear_5,3,5,56,103,1877605676
105,18,19,Jits_Linear_5,0,1,48,67,1878180476
105,18,19,Jits_Linear_5,1,5,63,98,1878266448
105,18,19,Jits_Linear_5,2,5,56,103,1878346304
105,18,19,Jits_Linear_5,3,5,80,127,1878349368
105,18,19,Jits_Linear_5,0,1,48,59,1878887396
105,18,19,Jits_Linear_5,1,5,63,98,1878956528
105,18,19,Jits_Linear_5,2,5,56,103,1878975792
105,18,19,Jits_Linear_5,3,5,80,127,1879005604
105,18,19,Jits_Linear_5,0,1,48,57,1879589020
105,18,19,Jits_Linear_5,1,5,56,103,1879645468
105,18,19,Jits_Linear_5,2,5,63,98,1879666152
105,18,19,Jits_Linear_5,3,5,80,127,1879676424
105,18,19,Jits_Linear_5,0,1,48,69,1880266572
105,18,19,Jits_Linear_5,1,5,56,103,1880365412
105,18,19,Jits_Linear_5,2,5,63,98,1880396356
105,18,19,Jits_Linear_5,3,5,80,127,1880399720
105,18,19,Jits_Linear_5,0,1,48,60,1880906428
105,18,19,Jits_Linear_5,1,5,56,103,1881005516
105,18,19,Jits_Linear_5,2,5,63,98,1881046428
105,18,19,Jits_Linear_5,3,5,80,127,1881105700
105,18,19,Jits_Linear_5,0,1,48,64,1881629472
105,18,19,Jits_Linear_5,1,5,56,103,1881726464
105,18,19,Jits_Linear_5,2,5,63,98,1881735468
105,18,19,Jits_Linear_5,3,5,80,127,1881795932
105,18,19,Jits_Linear_5,0,1,48,68,1882312812
105,18,19,Jits_Linear_5,1,5,56,103,1882425820
105,18,19,Jits_Linear_5,2,5,80,127,1882446280
105,18,19,Jits_Linear_5,3,5,63,98,1882475880
105,18,19,Jits_Linear_5,0,1,48,69,1883035500
105,18,19,Jits_Linear_5,1,5,80,127,1883126992
105,18,19,Jits_Linear_5,2,5,56,103,1883136292
105,18,19,Jits_Linear_5,3,5,63,98,1883156224
105,18,19,Jits_Linear_5,0,1,48,58,1883705256
105,18,19,Jits_Linear_5,1,5,63,98,1883816256
105,18,19,Jits_Linear_5,2,5,80,127,1883896204
105,18,19,Jits_Linear_5,3,5,56,103,1883906548
105,18,19,Jits_Linear_5,0,1,48,61,1884382972
105,18,19,Jits_Linear_5,1,5,80,127,1884576324
105,18,19,Jits_Linear_5,2,5,56,103,1884595512
105,18,19,Jits_Linear_5,3,5,63,98,1884598652
105,18,19,Jits_Linear_5,0,1,48,55,1885072904
105,18,19,Jits_Linear_5,1,5,63,98,1885256188
105,18,19,Jits_Linear_5,2,5,80,127,1885259328
105,18,19,Jits_Linear_5,3,5,56,103,1885315408
105,18,19,Jits_Linear_5,0,1,48,67,1885804252
105,18,19,Jits_Linear_5,1,5,56,103,1885946268
105,18,19,Jits_Linear_5,2,5,80,127,1885955420
105,18,19,Jits_Linear_5,3,5,63,98,1885996332
105,18,19,Jits_Linear_5,0,1,48,71,1886567004
105,18,19,Jits_Linear_5,1,5,56,103,1886636360
105,18,19,Jits_Linear_5,2,5,63,98,1886695768
105,18,19,Jits_Linear_5,3,5,80,127,1886706116
105,18,19,Jits_Linear_5,0,1,48,57,1887282260
105,18,19,Jits_Linear_5,1,5,63,98,1887356564
105,18,19,Jits_Linear_5,2,5,80,127,1887396344
105,18,19,Jits_Linear_5,3,5,56,103,1887436356
105,18,19,Jits_Linear_5,0,1,48,48,1887999768
105,18,19,Jits_Linear_5,1,5,56,103,1888065884
105,18,19,Jits_Linear_5,2,5,63,98,1888145916
105,18,19,Jits_Linear_5,3,5,80,127,1888149280
105,18,19,Jits_Linear_5,0,1,48,77,1888669244
105,18,19,Jits_Linear_5,1,5,80,127,1888846380
105,18,19,Jits_Linear_5,2,5,56,103,1888875984
105,18,19,Jits_Linear_5,3,5,63,98,1888879196
105,18,19,Jits_Linear_5,0,1,48,61,1889460920
105,18,19,Jits_Linear_5,1,5,56,103,1889526136
105,18,19,Jits_Linear_5,2,5,80,127,1889545552
105,18,19,Jits_Linear_5,3,5,63,98,1889585476
105,18,19,Jits_Linear_5,0,5,80,127,1890225448
105,18,19,Jits_Linear_5,1,1,48,61,1890234716
105,18,19,Jits_Linear_5,2,5,63,98,1890246048
105,18,19,Jits_Linear_5,3,5,56,103,1890306364
105,18,19,Jits_Linear_5,0,1,48,70,1890869700
105,18,19,Jits_Linear_5,1,5,63,98,1890955620
105,18,19,Jits_Linear_5,2,5,56,103,1890965952
105,18,19,Jits_Linear_5,3,5,80,127,1891016152
105,18,19,Jits_Linear_5,0,1,48,68,1891551912
105,18,19,Jits_Linear_5,1,5,56,103,1891666340
105,18,19,Jits_Linear_5,2,5,63,98,1891685756
105,18,19,Jits_Linear_5,3,5,80,127,1891696028
105,18,19,Jits_Linear_5,0,1,48,89,1892234212
105,18,19,Jits_Linear_5,1,5,56,103,1892386392
105,18,19,Jits_Linear_5,2,5,63,98,1892389384
105,18,19,Jits_Linear_5,3,5,80,127,1892405584
105,18,19,Jits_Linear_5,0,1,48,67,1892993056
105,18,19,Jits_Linear_5,1,5,63,98,1893156188
105,18,19,Jits_Linear_5,2,5,56,103,1893186012
105,18,19,Jits_Linear_5,3,5,80,127,1893215540
105,18,19,Jits_Linear_5,0,1,48,69,1893732640
105,18,19,Jits_Linear_5,1,5,80,127,1893846492
105,18,19,Jits_Linear_5,2,5,56,103,1893935512
105,18,19,Jits_Linear_5,3,5,63,98,1893938576
105,18,19,Jits_Linear_5,0,1,48,64,1894525328
105,18,19,Jits_Linear_5,1,5,56,103,1894575400
105,18,19,Jits_Linear_5,2,5,80,127,1894578468
105,18,19,Jits_Linear_5,3,5,63,98,1894656228
105,18,19,Jits_Linear_5,0,1,48,82,1895243528
105,18,19,Jits_Linear_5,1,5,80,127,1895305556
105,18,19,Jits_Linear_5,2,5,63,98,1895366232
105,18,19,Jits_Linear_5,3,5,56,103,1895395688
105,18,19,Jits_Linear_5,0,1,48,69,1895930924
105,18,19,Jits_Linear_5,1,5,63,98,1896035836
105,18,19,Jits_Linear_5,2,5,80,127,1896046032
105,18,19,Jits_Linear_5,3,5,56,103,1896115740
105,18,19,Jits_Linear_5,0,1,48,72,1896670980
105,18,19,Jits_Linear_5,1,5,56,103,1896786232
105,18,19,Jits_Linear_5,2,5,80,127,1896816280
105,18,19,Jits_Linear_5,3,5,63,98,1896866508
105,18,19,Jits_Linear_5,0,1,48,60,1897388044
105,18,19,Jits_Linear_5,1,5,63,98,1897565480
105,18,19,Jits_Linear_5,2,5,56,103,1897596372
105,18,19,Jits_Linear_5,3,5,80,127,1897599292
105,18,19,Jits_Linear_5,0,1,48,61,1898121420
105,18,19,Jits_Linear_5,1,5,63,98,1898305904
105,18,19,Jits_Linear_5,2,5,80,127,1898326364
105,18,19,Jits_Linear_5,3,5,56,103,1898335736
105,18,19,Jits_Linear_5,0,1,48,76,1898871340
105,18,19,Jits_Linear_5,1,5,56,103,1899055404
105,18,19,Jits_Linear_5,2,5,63,98,1899058616
105,18,19,Jits_Linear_5,3,5,80,127,1899076084
105,18,19,Jits_Linear_5,0,1,48,56,1899557604
105,18,19,Jits_Linear_5,1,5,56,103,1899756044
105,18,19,Jits_Linear_5,2,5,63,98,1899766240
105,18,19,Jits_Linear_5,3,5,80,127,1899795692
105,18,19,Jits_Linear_5,0,1,48,68,1900255028
105,18,19,Jits_Linear_5,1,5,63,98,1900525996
105,18,19,Jits_Linear_5,2,5,80,127,1900546384
105,18,19,Jits_Linear_5,3,5,56,103,1900586248
105,18,19,Jits_Linear_5,0,1,48,54,1901045888
105,18,19,Jits_Linear_5,1,5,56,103,1901306360
105,18,19,Jits_Linear_5,2,5,63,98,1901346300
105,18,19,Jits_Linear_5,3,5,80,127,1901349512
105,18,19,Jits_Linear_5,0,1,48,69,1901835468
105,18,19,Jits_Linear_5,1,5,80,127,1901996364
105,18,19,Jits_Linear_5,2,5,56,103,1902036304
105,18,19,Jits_Linear_5,3,5,63,98,1902085388
105,18,19,Jits_Linear_5,0,1,48,64,1902594184
105,18,19,Jits_Linear_5,1,5,56,103,1902806328
105,18,19,Jits_Linear_5,2,5,80,127,1902815552
105,18,19,Jits_Linear_5,3,5,63,98,1902846276
105,18,19,Jits_Linear_5,0,1,48,61,1903377544
105,18,19,Jits_Linear_5,1,5,56,103,1903505708
105,18,19,Jits_Linear_5,2,5,80,127,1903545572
105,18,19,Jits_Linear_5,3,5,63,98,1903596072
105,18,19,Jits_Linear_5,0,1,48,81,1904052780
105,18,19,Jits_Linear_5,1,5,56,103,1904265692
105,18,19,Jits_Linear_5,2,5,80,127,1904305484
105,18,19,Jits_Linear_5,3,5,63,98,1904355836
105,18,19,Jits_Linear_5,0,1,48,80,1904757528
105,18,19,Jits_Linear_5,1,5,80,127,1905016284
105,18,19,Jits_Linear_5,2,5,63,98,1905096112
105,18,19,Jits_Linear_5,3,5,56,103,1905106380
105,18,19,Jits_Linear_5,0,1,48,54,1905535680
105,18,19,Jits_Linear_5,1,5,80,127,1905826348
105,18,19,Jits_Linear_5,2,5,56,103,1905836544
105,18,19,Jits_Linear_5,3,5,63,98,1905855808
105,18,19,Jits_Linear_5,0,1,48,67,1906311988
105,18,19,Jits_Linear_5,1,5,63,98,1906556220
105,18,19,Jits_Linear_5,2,5,56,103,1906626128
105,18,19,Jits_Linear_5,3,5,80,127,1906629044
105,18,19,Jits_Linear_5,0,1,48,68,1907081116
105,18,19,Jits_Linear_5,1,5,80,127,1907316248
105,18,19,Jits_Linear_5,2,5,63,98,1907366108
105,18,19,Jits_Linear_5,3,5,56,103,1907406124
105,18,19,Jits_Linear_5,0,1,48,57,1907813824
105,18,19,Jits_Linear_5,1,5,63,98,1908126316
105,18,19,Jits_Linear_5,2,5,56,103,1908166180
105,18,19,Jits_Linear_5,3,5,80,127,1908176228
105,18,19,Jits_Linear_5,0,1,48,70,1908563160
105,18,19,Jits_Linear_5,1,5,63,98,1908886160
105,18,19,Jits_Linear_5,2,5,56,103,1908906320
105,18,19,Jits_Linear_5,3,5,80,127,1908925732
105,18,19,Jits_Linear_5,0,1,48,62,1909312360
105,18,19,Jits_Linear_5,1,5,80,127,1909615932
105,18,19,Jits_Linear_5,2,5,56,103,1909626200
105,18,19,Jits_Linear_5,3,5,63,98,1909645564
105,18,19,Jits_Linear_5,4,1,48,57,1910025388
105,18,19,Jits_Linear_5,0,5,63,98,1910415864
105,18,19,Jits_Linear_5,1,5,56,103,1910455732
105,18,19,Jits_Linear_5,2,5,80,127,1910486604
105,18,19,Jits_Linear_5,0,1,48,61,1910820736
105,18,19,Jits_Linear_5,1,5,56,103,1911196232
105,18,19,Jits_Linear_5,2,5,63,98,1911225612
105,18,19,Jits_Linear_5,3,5,80,127,1911256408
105,18,19,Jits_Linear_5,4,1,48,61,1911484684
105,18,19,Jits_Linear_5,0,5,80,127,1911945580
105,18,19,Jits_Linear_5,1,5,56,103,1912016236
105,18,19,Jits_Linear_5,2,5,63,98,1912019228
105,18,19,Jits_Linear_5,3,1,48,65,1912135476
105,18,19,Jits_Linear_5,0,5,56,103,1912736216
105,18,19,Jits_Linear_5,1,5,63,98,1912786196
105,18,19,Jits_Linear_5,2,1,48,46,1912797108
105,18,19,Jits_Linear_5,3,5,80,127,1912816164
105,18,19,Jits_Linear_5,0,1,48,71,1913458996
105,18,19,Jits_Linear_5,1,5,63,98,1913495912
105,18,19,Jits_Linear_5,2,5,80,127,1913499272
105,18,19,Jits_Linear_5,3,5,56,103,1913556436
105,18,19,Jits_Linear_5,0,1,48,75,1914129732
105,18,19,Jits_Linear_5,1,5,56,103,1914306068
105,18,19,Jits_Linear_5,2,5,80,127,1914316116
105,18,19,Jits_Linear_5,3,5,63,98,1914366392
105,18,19,Jits_Linear_5,0,1,48,66,1914846040
105,18,19,Jits_Linear_5,1,5,63,98,1915065608
105,18,19,Jits_Linear_5,2,5,56,103,1915076180
105,18,19,Jits_Linear_5,3,5,80,127,1915105556
105,18,19,Jits_Linear_5,0,1,48,63,1915588864
105,18,19,Jits_Linear_5,1,1,48,28,1915651400
105,18,19,Jits_Linear_5,2,5,63,98,1915885884
105,18,19,Jits_Linear_5,3,5,80,127,1915889244
105,18,19,Jits_Linear_5,4,5,56,103,1915915632
105,18,19,Jits_Linear_5,0,1,48,44,1916398184
105,18,19,Jits_Linear_5,1,5,63,98,1916696052
105,18,19,Jits_Linear_5,2,5,56,103,1916716364
105,18,19,Jits_Linear_5,3,5,80,127,1916719428
105,18,19,Jits_Linear_5,0,1,48,58,1917181088
105,18,19,Jits_Linear_5,1,5,63,98,1917445620
105,18,19,Jits_Linear_5,2,5,56,103,1917516128
105,18,19,Jits_Linear_5,3,5,80,127,1917535540
105,18,19,Jits_Linear_5,0,1,48,52,1917946032
105,18,19,Jits_Linear_5,1,5,56,103,1918226132
105,18,19,Jits_Linear_5,2,5,63,98,1918236032
105,18,19,Jits_Linear_5,3,5,80,127,1918326016
105,18,19,Jits_Linear_5,0,1,48,54,1918680756
105,18,19,Jits_Linear_5,1,5,56,103,1919035948
105,18,19,Jits_Linear_5,2,5,80,127,1919075888
105,18,19,Jits_Linear_5,3,5,63,98,1919086236
105,18,19,Jits_Linear_5,4,1,48,81,1919309624
105,18,19,Jits_Linear_5,0,5,56,103,1919856020
105,18,19,Jits_Linear_5,1,5,63,98,1919885724
105,18,19,Jits_Linear_5,2,5,80,127,1919916300
105,18,19,Jits_Linear_5,3,1,48,61,1920127332
105,18,19,Jits_Linear_5,0,5,80,127,1920615728
105,18,19,Jits_Linear_5,1,5,63,98,1920655620
105,18,19,Jits_Linear_5,2,5,56,103,1920676152
105,18,19,Jits_Linear_5,3,1,48,69,1920682264
105,18,19,Jits_Linear_5,0,1,48,70,1921291088
105,18,19,Jits_Linear_5,1,5,56,103,1921455448
105,18,19,Jits_Linear_5,2,5,80,127,1921476204
105,18,19,Jits_Linear_5,3,5,63,98,1921496516
105,18,19,Jits_Linear_5,0,1,48,70,1922001396
105,18,19,Jits_Linear_5,1,5,63,98,1922225544
105,18,19,Jits_Linear_5,2,5,56,103,1922235740
105,18,19,Jits_Linear_5,3,5,80,127,1922296132
105,18,19,Jits_Linear_5,0,1,48,47,1922863888
105,18,19,Jits_Linear_5,1,1,38,16,1922879896
105,18,19,Jits_Linear_5,2,5,56,103,1923035380
105,18,19,Jits_Linear_5,3,5,63,98,1923106112
105,18,19,Jits_Linear_5,4,5,80,127,1923125524
105,18,19,Jits_Linear_5,0,1,48,48,1923634012
105,18,19,Jits_Linear_5,1,1,38,16,1923649416
105,18,19,Jits_Linear_5,2,5,56,103,1923845436
105,18,19,Jits_Linear_5,3,5,63,98,1923876308
105,18,19,Jits_Linear_5,4,5,80,127,1923916252
105,18,19,Jits_Linear_5,0,1,48,76,1924341256
105,18,19,Jits_Linear_5,1,5,63,98,1924646248
105,18,19,Jits_Linear_5,2,5,56,103,1924696304
105,18,19,Jits_Linear_5,3,5,80,127,1924705604
105,18,19,Jits_Linear_5,0,1,48,74,1925118924
105,18,19,Jits_Linear_5,1,5,56,103,1925496068
105,18,19,Jits_Linear_5,2,5,63,98,1925546300
105,18,19,Jits_Linear_5,3,5,80,127,1925555596
105,18,19,Jits_Linear_5,4,1,48,45,1925861312
105,18,19,Jits_Linear_5,0,5,56,103,1926275484
105,18,19,Jits_Linear_5,1,5,63,98,1926285756
105,18,19,Jits_Linear_5,2,5,80,127,1926365476
105,18,19,Jits_Linear_5,3,1,48,63,1926565204
105,18,19,Jits_Linear_5,0,9999,9999,9999,1817483344
105,18,19,Jits_Linear_5,1,9999,9999,9999,1817963632
105,18,19,Jits_Linear_5,2,9999,9999,9999,1818443888
105,18,19,Jits_Linear_5,3,9999,9999,9999,1818923096
105,18,19,Jits_Linear_5,4,9999,9999,9999,1819403392
105,18,19,Jits_Linear_5,5,9999,9999,9999,1819893868
105,18,19,Jits_Linear_5,6,9999,9999,9999,1820383292
105,18,19,Jits_Linear_5,7,9999,9999,9999,1820873852
105,18,19,Jits_Linear_5,8,9999,9999,9999,1821363296
105,18,19,Jits_Linear_5,9,9999,9999,9999,1821853756
105,18,19,Jits_Linear_5,10,9999,9999,9999,1822353532
105,18,19,Jits_Linear_5,11,9999,9999,9999,1822853236
105,18,19,Jits_Linear_5,12,9999,9999,9999,1823353944
105,18,19,Jits_Linear_5,13,9999,9999,9999,1823853624
105,18,19,Jits_Linear_5,14,9999,9999,9999,1824353372
105,18,19,Jits_Linear_5,15,9999,9999,9999,1824863320
105,18,19,Jits_Linear_5,16,9999,9999,9999,1825373272
105,18,19,Jits_Linear_5,17,9999,9999,9999,1825883224
105,18,19,Jits_Linear_5,18,9999,9999,9999,1826393176
105,18,19,Jits_Linear_5,19,9999,9999,9999,1826903132
105,18,19,Jits_Linear_5,20,9999,9999,9999,1827423344
105,18,19,Jits_Linear_5,21,9999,9999,9999,1827943488
105,18,19,Jits_Linear_5,22,9999,9999,9999,1828463700
105,18,19,Jits_Linear_5,23,9999,9999,9999,1828983908
105,18,19,Jits_Linear_5,24,9999,9999,9999,1829504064
105,18,19,Jits_Linear_5,25,9999,9999,9999,1830043752
105,18,19,Jits_Linear_5,26,9999,9999,9999,1830573128
105,18,19,Jits_Linear_5,27,9999,9999,9999,1831103596
105,18,19,Jits_Linear_5,28,9999,9999,9999,1831634020
105,18,19,Jits_Linear_5,29,9999,9999,9999,1832163452
105,18,19,Jits_Linear_5,30,9999,9999,9999,1832704064
105,18,19,Jits_Linear_5,31,9999,9999,9999,1833253952
105,18,19,Jits_Linear_5,32,9999,9999,9999,1833793644
105,18,19,Jits_Linear_5,33,9999,9999,9999,1834333268
105,18,19,Jits_Linear_5,34,9999,9999,9999,1834873936
105,18,19,Jits_Linear_5,35,9999,9999,9999,1835423844
105,18,19,Jits_Linear_5,36,9999,9999,9999,1835973720
105,18,19,Jits_Linear_5,37,9999,9999,9999,1836523604
105,18,19,Jits_Linear_5,38,9999,9999,9999,1837073488
105,18,19,Jits_Linear_5,39,9999,9999,9999,1837623380
105,18,19,Jits_Linear_5,40,9999,9999,9999,1838183528
105,18,19,Jits_Linear_5,41,9999,9999,9999,1838743624
105,18,19,Jits_Linear_5,42,9999,9999,9999,1839303764
105,18,19,Jits_Linear_5,43,9999,9999,9999,1839863888
105,18,19,Jits_Linear_5,44,9999,9999,9999,1840424036
105,18,19,Jits_Linear_5,45,9999,9999,9999,1840993340
105,18,19,Jits_Linear_5,46,9999,9999,9999,1841563704
105,18,19,Jits_Linear_5,47,9999,9999,9999,1842134124
105,18,19,Jits_Linear_5,48,9999,9999,9999,1842713676
105,18,19,Jits_Linear_5,49,9999,9999,9999,1843284032
105,18,19,Jits_Linear_5,50,9999,9999,9999,1843863676
105,18,19,Jits_Linear_5,51,9999,9999,9999,1844443244
105,18,19,Jits_Linear_5,52,9999,9999,9999,1845023860
105,18,19,Jits_Linear_5,53,9999,9999,9999,1845603436
105,18,19,Jits_Linear_5,54,9999,9999,9999,1846184060
105,18,19,Jits_Linear_5,55,9999,9999,9999,1846773880
105,18,19,Jits_Linear_5,56,9999,9999,9999,1847363692
105,18,19,Jits_Linear_5,57,9999,9999,9999,1847953468
105,18,19,Jits_Linear_5,58,9999,9999,9999,1848543288
105,18,19,Jits_Linear_5,59,9999,9999,9999,1849133164
105,18,19,Jits_Linear_5,60,9999,9999,9999,1849733196
105,18,19,Jits_Linear_5,61,9999,9999,9999,1850333272
105,18,19,Jits_Linear_5,62,9999,9999,9999,1850933368
105,18,19,Jits_Linear_5,63,9999,9999,9999,1851533396
105,18,19,Jits_Linear_5,64,9999,9999,9999,1852133480
105,18,19,Jits_Linear_5,65,9999,9999,9999,1852743748
105,18,19,Jits_Linear_5,66,9999,9999,9999,1853354044
105,18,19,Jits_Linear_5,67,9999,9999,9999,1853963332
105,18,19,Jits_Linear_5,68,9999,9999,9999,1854573676
105,18,19,Jits_Linear_5,69,9999,9999,9999,1855183976
105,18,19,Jits_Linear_5,70,9999,9999,9999,1855803452
105,18,19,Jits_Linear_5,71,9999,9999,9999,1856424012
105,18,19,Jits_Linear_5,72,9999,9999,9999,1857043568
105,18,19,Jits_Linear_5,73,9999,9999,9999,1857664128
105,18,19,Jits_Linear_5,74,9999,9999,9999,1858293876
105,18,19,Jits_Linear_5,75,9999,9999,9999,1858923628
105,18,19,Jits_Linear_5,76,9999,9999,9999,1859553336
105,18,19,Jits_Linear_5,77,9999,9999,9999,1860183112
105,18,19,Jits_Linear_5,78,9999,9999,9999,1860813932
105,18,19,Jits_Linear_5,79,9999,9999,9999,1861443684
105,18,19,Jits_Linear_5,80,9999,9999,9999,1862083648
105,18,19,Jits_Linear_5,81,9999,9999,9999,1862723664
105,18,19,Jits_Linear_5,82,9999,9999,9999,1863363696
105,18,19,Jits_Linear_5,83,9999,9999,9999,1864003708
105,18,19,Jits_Linear_5,84,9999,9999,9999,1864643680
105,18,19,Jits_Linear_5,85,9999,9999,9999,1865293876
105,18,19,Jits_Linear_5,86,9999,9999,9999,1865943128
105,18,19,Jits_Linear_5,87,9999,9999,9999,1866593404
105,18,19,Jits_Linear_5,88,9999,9999,9999,1867243608
105,18,19,Jits_Linear_5,89,9999,9999,9999,1867893884
105,18,19,Jits_Linear_5,90,9999,9999,9999,1868553328
105,18,19,Jits_Linear_5,91,9999,9999,9999,1869213808
105,18,19,Jits_Linear_5,92,9999,9999,9999,1869873216
105,18,19,Jits_Linear_5,93,9999,9999,9999,1870533708
105,18,19,Jits_Linear_5,94,9999,9999,9999,1871193200
105,18,19,Jits_Linear_5,95,9999,9999,9999,1871863880
105,18,19,Jits_Linear_5,96,9999,9999,9999,1872533592
105,18,19,Jits_Linear_5,97,9999,9999,9999,1873203272
105,18,19,Jits_Linear_5,98,9999,9999,9999,1873874020
105,18,19,Jits_Linear_5,99,9999,9999,9999,1874543704
105,18,19,Jits_Linear_5,100,9999,9999,9999,1875223612
105,18,19,Jits_Linear_5,101,9999,9999,9999,1875903584
105,18,19,Jits_Linear_5,102,9999,9999,9999,1876583520
105,18,19,Jits_Linear_5,103,9999,9999,9999,1877263420
105,18,19,Jits_Linear_5,104,9999,9999,9999,1877943392
105,18,19,Jits_Linear_5,105,9999,9999,9999,1878633596
105,18,19,Jits_Linear_5,106,9999,9999,9999,1879323756
105,18,19,Jits_Linear_5,107,9999,9999,9999,1880013896
105,18,19,Jits_Linear_5,108,9999,9999,9999,1880704124
105,18,19,Jits_Linear_5,109,9999,9999,9999,1881403476
105,18,19,Jits_Linear_5,110,9999,9999,9999,1882103900
105,18,19,Jits_Linear_5,111,9999,9999,9999,1882803276
105,18,19,Jits_Linear_5,112,9999,9999,9999,1883503676
105,18,19,Jits_Linear_5,113,9999,9999,9999,1884203132
105,18,19,Jits_Linear_5,114,9999,9999,9999,1884903480
105,18,19,Jits_Linear_5,115,9999,9999,9999,1885613112
105,18,19,Jits_Linear_5,116,9999,9999,9999,1886323776
105,18,19,Jits_Linear_5,117,9999,9999,9999,1887033412
105,18,19,Jits_Linear_5,118,9999,9999,9999,1887744100
105,18,19,Jits_Linear_5,119,9999,9999,9999,1888464000
105,18,19,Jits_Linear_5,120,9999,9999,9999,1889183828
105,18,19,Jits_Linear_5,121,9999,9999,9999,1889903708
105,18,19,Jits_Linear_5,122,9999,9999,9999,1890623608
105,18,19,Jits_Linear_5,123,9999,9999,9999,1891343448
105,18,19,Jits_Linear_5,124,9999,9999,9999,1892063352
105,18,19,Jits_Linear_5,125,9999,9999,9999,1892793432
105,18,19,Jits_Linear_5,126,9999,9999,9999,1893523532
105,18,19,Jits_Linear_5,127,9999,9999,9999,1894253664
105,18,19,Jits_Linear_5,128,9999,9999,9999,1894983752
105,18,19,Jits_Linear_5,129,9999,9999,9999,1895713916
105,18,19,Jits_Linear_5,130,9999,9999,9999,1896453228
105,18,19,Jits_Linear_5,131,9999,9999,9999,1897193584
105,18,19,Jits_Linear_5,132,9999,9999,9999,1897933936
105,18,19,Jits_Linear_5,133,9999,9999,9999,1898673248
105,18,19,Jits_Linear_5,134,9999,9999,9999,1899413596
105,18,19,Jits_Linear_5,135,9999,9999,9999,1900163168
105,18,19,Jits_Linear_5,136,9999,9999,9999,1900913768
105,18,19,Jits_Linear_5,137,9999,9999,9999,1901663332
105,18,19,Jits_Linear_5,138,9999,9999,9999,1902413880
105,18,19,Jits_Linear_5,139,9999,9999,9999,1903163456
105,18,19,Jits_Linear_5,140,9999,9999,9999,1903923296
105,18,19,Jits_Linear_5,141,9999,9999,9999,1904683132
105,18,19,Jits_Linear_5,142,9999,9999,9999,1905443940
105,18,19,Jits_Linear_5,143,9999,9999,9999,1906203704
105,18,19,Jits_Linear_5,144,9999,9999,9999,1906963540
105,18,19,Jits_Linear_5,145,9999,9999,9999,1907733568
105,18,19,Jits_Linear_5,146,9999,9999,9999,1908503676
105,18,19,Jits_Linear_5,147,9999,9999,9999,1909273704
105,18,19,Jits_Linear_5,148,9999,9999,9999,1910043720
105,18,19,Jits_Linear_5,149,9999,9999,9999,1910813752
105,18,19,Jits_Linear_5,150,9999,9999,9999,1911594096
105,18,19,Jits_Linear_5,151,9999,9999,9999,1912373328
105,18,19,Jits_Linear_5,152,9999,9999,9999,1913153636
105,18,19,Jits_Linear_5,153,9999,9999,9999,1913933924
105,18,19,Jits_Linear_5,154,9999,9999,9999,1914713168
105,18,19,Jits_Linear_5,155,9999,9999,9999,1915503720
105,18,19,Jits_Linear_5,156,9999,9999,9999,1916293220
105,18,19,Jits_Linear_5,157,9999,9999,9999,1917083764
105,18,19,Jits_Linear_5,158,9999,9999,9999,1917873272
105,18,19,Jits_Linear_5,159,9999,9999,9999,1918663752
105,18,19,Jits_Linear_5,160,9999,9999,9999,1919463504
105,18,19,Jits_Linear_5,161,9999,9999,9999,1920263276
105,18,19,Jits_Linear_5,162,9999,9999,9999,1921064032
105,18,19,Jits_Linear_5,163,9999,9999,9999,1921863740
105,18,19,Jits_Linear_5,164,9999,9999,9999,1922663508
105,18,19,Jits_Linear_5,165,9999,9999,9999,1923473520
105,18,19,Jits_Linear_5,166,9999,9999,9999,1924283500
105,18,19,Jits_Linear_5,167,9999,9999,9999,1925093456
105,18,19,Jits_Linear_5,168,9999,9999,9999,1925903412
105,18,19,Jits_Linear_5,169,9999,9999,9999,1926713428
105,19,18,Jits_Linear_8,0,5,56,103,1935898072
105,19,18,Jits_Linear_8,1,5,63,98,1935900948
105,19,18,Jits_Linear_8,2,5,80,127,1935904144
105,19,18,Jits_Linear_8,0,5,56,103,1936718236
105,19,18,Jits_Linear_8,1,5,63,98,1936721256
105,19,18,Jits_Linear_8,2,5,80,127,1936724380
105,19,18,Jits_Linear_8,0,5,80,127,1937477948
105,19,18,Jits_Linear_8,1,5,63,98,1937568036
105,19,18,Jits_Linear_8,2,5,56,103,1937578304
105,19,18,Jits_Linear_8,0,5,56,103,1938317780
105,19,18,Jits_Linear_8,1,5,63,98,1938327904
105,19,18,Jits_Linear_8,2,5,80,127,1938417964
105,19,18,Jits_Linear_8,3,1,48,38,1938445960
105,19,18,Jits_Linear_8,0,5,63,98,1939108184
105,19,18,Jits_Linear_8,1,1,48,55,1939122088
105,19,18,Jits_Linear_8,2,5,80,127,1939137856
105,19,18,Jits_Linear_8,3,5,56,103,1939167456
105,19,18,Jits_Linear_8,0,1,48,55,1939860624
105,19,18,Jits_Linear_8,1,5,56,103,1939928456
105,19,18,Jits_Linear_8,2,5,80,127,1940027720
105,19,18,Jits_Linear_8,3,5,63,98,1940077920
105,19,18,Jits_Linear_8,0,1,48,42,1940677316
105,19,18,Jits_Linear_8,1,5,56,103,1940738404
105,19,18,Jits_Linear_8,2,5,80,127,1940787472
105,19,18,Jits_Linear_8,3,5,63,98,1940827484
105,19,18,Jits_Linear_8,0,1,48,40,1941447028
105,19,18,Jits_Linear_8,1,5,80,127,1941578000
105,19,18,Jits_Linear_8,2,5,63,98,1941607976
105,19,18,Jits_Linear_8,3,5,56,103,1941677380
105,19,18,Jits_Linear_8,0,1,48,28,1942332784
105,19,18,Jits_Linear_8,1,5,63,98,1942417952
105,19,18,Jits_Linear_8,2,5,56,103,1942447616
105,19,18,Jits_Linear_8,3,5,80,127,1942507780
105,19,18,Jits_Linear_8,0,1,48,32,1943163064
105,19,18,Jits_Linear_8,1,5,56,103,1943177776
105,19,18,Jits_Linear_8,2,5,80,127,1943180916
105,19,18,Jits_Linear_8,3,5,63,98,1943298384
105,19,18,Jits_Linear_8,0,1,48,29,1943915196
105,19,18,Jits_Linear_8,1,5,56,103,1944058196
105,19,18,Jits_Linear_8,2,5,80,127,1944098136
105,19,18,Jits_Linear_8,3,5,63,98,1944108480
105,19,18,Jits_Linear_8,0,1,48,40,1944764732
105,19,18,Jits_Linear_8,1,5,56,103,1944817888
105,19,18,Jits_Linear_8,2,5,80,127,1944837452
105,19,18,Jits_Linear_8,3,5,63,98,1944918280
105,19,18,Jits_Linear_8,0,1,48,33,1945562248
105,19,18,Jits_Linear_8,1,5,80,127,1945607832
105,19,18,Jits_Linear_8,2,5,56,103,1945707916
105,19,18,Jits_Linear_8,3,5,63,98,1945718188
105,19,18,Jits_Linear_8,0,5,63,98,1946377924
105,19,18,Jits_Linear_8,1,5,80,127,1946437948
105,19,18,Jits_Linear_8,2,1,48,38,1946448516
105,19,18,Jits_Linear_8,3,5,56,103,1946449852
105,19,18,Jits_Linear_8,4,1,38,13,1946464808
105,19,18,Jits_Linear_8,0,5,56,103,1947178312
105,19,18,Jits_Linear_8,1,1,48,31,1947195284
105,19,18,Jits_Linear_8,2,5,63,98,1947248064
105,19,18,Jits_Linear_8,3,5,80,127,1947251352
105,19,18,Jits_Linear_8,0,1,48,31,1947965364
105,19,18,Jits_Linear_8,1,5,63,98,1948008032
105,19,18,Jits_Linear_8,2,5,56,103,1948057960
105,19,18,Jits_Linear_8,3,5,80,127,1948061836
105,19,18,Jits_Linear_8,0,5,56,103,1948758336
105,19,18,Jits_Linear_8,1,5,80,127,1948761404
105,19,18,Jits_Linear_8,2,1,48,32,1948785724
105,19,18,Jits_Linear_8,3,5,63,98,1948847364
105,19,18,Jits_Linear_8,0,5,63,98,1949587940
105,19,18,Jits_Linear_8,1,5,56,103,1949677928
105,19,18,Jits_Linear_8,2,5,80,127,1949707752
105,19,18,Jits_Linear_8,3,1,48,36,1949709088
105,19,18,Jits_Linear_8,0,5,56,103,1950367996
105,19,18,Jits_Linear_8,1,5,63,98,1950467424
105,19,18,Jits_Linear_8,2,5,80,127,1950498072
105,19,18,Jits_Linear_8,3,1,48,22,1950519696
105,19,18,Jits_Linear_8,0,5,63,98,1951178036
105,19,18,Jits_Linear_8,1,5,56,103,1951188304
105,19,18,Jits_Linear_8,2,1,48,31,1951254272
105,19,18,Jits_Linear_8,3,5,80,127,1951277308
105,19,18,Jits_Linear_8,0,5,63,98,1951988052
105,19,18,Jits_Linear_8,1,1,48,25,1952013420
105,19,18,Jits_Linear_8,2,5,56,103,1952068064
105,19,18,Jits_Linear_8,3,5,80,127,1952070980
105,19,18,Jits_Linear_8,0,5,80,127,1952728536
105,19,18,Jits_Linear_8,1,5,63,98,1952747876
105,19,18,Jits_Linear_8,2,5,56,103,1952808416
105,19,18,Jits_Linear_8,3,1,48,36,1952876868
105,19,18,Jits_Linear_8,0,1,48,36,1953520708
105,19,18,Jits_Linear_8,1,5,56,103,1953547708
105,19,18,Jits_Linear_8,2,5,63,98,1953568092
105,19,18,Jits_Linear_8,3,5,80,127,1953571304
105,19,18,Jits_Linear_8,0,5,63,98,1954267440
105,19,18,Jits_Linear_8,1,1,48,25,1954312292
105,19,18,Jits_Linear_8,2,5,80,127,1954348280
105,19,18,Jits_Linear_8,3,5,56,103,1954357724
105,19,18,Jits_Linear_8,0,1,48,27,1955030596
105,19,18,Jits_Linear_8,1,5,63,98,1955068312
105,19,18,Jits_Linear_8,2,5,56,103,1955087800
105,19,18,Jits_Linear_8,3,5,80,127,1955137984
105,19,18,Jits_Linear_8,0,1,48,29,1955754076
105,19,18,Jits_Linear_8,1,5,80,127,1955848348
105,19,18,Jits_Linear_8,2,5,63,98,1955887688
105,19,18,Jits_Linear_8,3,5,56,103,1955907924
105,19,18,Jits_Linear_8,0,1,48,43,1956525672
105,19,18,Jits_Linear_8,1,5,56,103,1956657692
105,19,18,Jits_Linear_8,2,5,63,98,1956667664
105,19,18,Jits_Linear_8,3,5,80,127,1956688276
105,19,18,Jits_Linear_8,0,1,48,41,1957211812
105,19,18,Jits_Linear_8,1,5,56,103,1957357804
105,19,18,Jits_Linear_8,2,5,63,98,1957448016
105,19,18,Jits_Linear_8,3,5,80,127,1957507384
105,19,18,Jits_Linear_8,0,1,48,39,1958023656
105,19,18,Jits_Linear_8,1,5,80,127,1958157640
105,19,18,Jits_Linear_8,2,5,56,103,1958167836
105,19,18,Jits_Linear_8,3,5,63,98,1958237516
105,19,18,Jits_Linear_8,0,1,48,35,1958813220
105,19,18,Jits_Linear_8,1,5,63,98,1958957396
105,19,18,Jits_Linear_8,2,5,80,127,1959047632
105,19,18,Jits_Linear_8,3,5,56,103,1959057752
105,19,18,Jits_Linear_8,0,5,63,98,1959657832
105,19,18,Jits_Linear_8,1,1,48,31,1959695180
105,19,18,Jits_Linear_8,2,5,80,127,1959707956
105,19,18,Jits_Linear_8,3,5,56,103,1959768640
105,19,18,Jits_Linear_8,0,1,48,39,1960349812
105,19,18,Jits_Linear_8,1,5,56,103,1960448792
105,19,18,Jits_Linear_8,2,5,80,127,1960497652
105,19,18,Jits_Linear_8,3,5,63,98,1960517964
105,19,18,Jits_Linear_8,0,1,48,42,1961121240
105,19,18,Jits_Linear_8,1,5,56,103,1961177392
105,19,18,Jits_Linear_8,2,5,80,127,1961237844
105,19,18,Jits_Linear_8,3,5,63,98,1961307596
105,19,18,Jits_Linear_8,0,1,48,33,1961899128
105,19,18,Jits_Linear_8,1,5,56,103,1961938332
105,19,18,Jits_Linear_8,2,5,80,127,1961968008
105,19,18,Jits_Linear_8,3,5,63,98,1961997596
105,19,18,Jits_Linear_8,0,1,48,32,1962632560
105,19,18,Jits_Linear_8,1,5,56,103,1962737996
105,19,18,Jits_Linear_8,2,5,80,127,1962757632
105,19,18,Jits_Linear_8,3,5,63,98,1962817800
105,19,18,Jits_Linear_8,0,1,48,16,1963413812
105,19,18,Jits_Linear_8,1,5,80,127,1963577912
105,19,18,Jits_Linear_8,2,5,56,103,1963587888
105,19,18,Jits_Linear_8,3,5,63,98,1963598232
105,19,18,Jits_Linear_8,0,1,48,32,1964165272
105,19,18,Jits_Linear_8,1,5,56,103,1964288668
105,19,18,Jits_Linear_8,2,5,80,127,1964328312
105,19,18,Jits_Linear_8,3,5,63,98,1964358060
105,19,18,Jits_Linear_8,0,1,48,16,1964894632
105,19,18,Jits_Linear_8,1,5,56,103,1965008260
105,19,18,Jits_Linear_8,2,5,63,98,1965037860
105,19,18,Jits_Linear_8,3,5,80,127,1965077948
105,19,18,Jits_Linear_8,0,1,48,15,1965648100
105,19,18,Jits_Linear_8,1,5,80,127,1965707860
105,19,18,Jits_Linear_8,2,5,63,98,1965757676
105,19,18,Jits_Linear_8,3,5,56,103,1965778356
105,19,18,Jits_Linear_8,0,1,48,47,1966392552
105,19,18,Jits_Linear_8,1,5,56,103,1966487832
105,19,18,Jits_Linear_8,2,5,80,127,1966557652
105,19,18,Jits_Linear_8,3,5,63,98,1966618040
105,19,18,Jits_Linear_8,0,1,48,50,1967218684
105,19,18,Jits_Linear_8,1,5,80,127,1967228252
105,19,18,Jits_Linear_8,2,5,63,98,1967318372
105,19,18,Jits_Linear_8,3,5,56,103,1967337784
105,19,18,Jits_Linear_8,0,5,63,98,1967988136
105,19,18,Jits_Linear_8,1,5,56,103,1968007648
105,19,18,Jits_Linear_8,2,1,48,48,1968011444
105,19,18,Jits_Linear_8,3,5,80,127,1968047580
105,19,18,Jits_Linear_8,0,5,80,127,1968687572
105,19,18,Jits_Linear_8,1,5,63,98,1968707884
105,19,18,Jits_Linear_8,2,1,48,37,1968720888
105,19,18,Jits_Linear_8,3,5,56,103,1968787920
105,19,18,Jits_Linear_8,0,5,63,98,1969417660
105,19,18,Jits_Linear_8,1,1,48,31,1969462360
105,19,18,Jits_Linear_8,2,5,56,103,1969528088
105,19,18,Jits_Linear_8,3,5,80,127,1969531232
105,19,18,Jits_Linear_8,0,1,48,35,1970154780
105,19,18,Jits_Linear_8,1,5,63,98,1970178636
105,19,18,Jits_Linear_8,2,5,56,103,1970187636
105,19,18,Jits_Linear_8,3,5,80,127,1970190852
105,19,18,Jits_Linear_8,0,1,48,38,1970879904
105,19,18,Jits_Linear_8,1,5,56,103,1970898212
105,19,18,Jits_Linear_8,2,5,80,127,1971018080
105,19,18,Jits_Linear_8,3,5,63,98,1971058020
105,19,18,Jits_Linear_8,0,1,48,33,1971614780
105,19,18,Jits_Linear_8,1,5,56,103,1971647780
105,19,18,Jits_Linear_8,2,5,80,127,1971727860
105,19,18,Jits_Linear_8,3,5,63,98,1971748396
105,19,18,Jits_Linear_8,0,1,48,49,1972335164
105,19,18,Jits_Linear_8,1,5,56,103,1972378084
105,19,18,Jits_Linear_8,2,5,63,98,1972487536
105,19,18,Jits_Linear_8,3,5,80,127,1972490972
105,19,18,Jits_Linear_8,0,1,48,46,1973092444
105,19,18,Jits_Linear_8,1,5,56,103,1973137676
105,19,18,Jits_Linear_8,2,5,80,127,1973167728
105,19,18,Jits_Linear_8,3,5,63,98,1973187872
105,19,18,Jits_Linear_8,0,1,48,34,1973815936
105,19,18,Jits_Linear_8,1,5,63,98,1973848620
105,19,18,Jits_Linear_8,2,5,56,103,1973857772
105,19,18,Jits_Linear_8,3,5,80,127,1973867820
105,19,18,Jits_Linear_8,0,1,48,39,1974485532
105,19,18,Jits_Linear_8,1,5,80,127,1974558020
105,19,18,Jits_Linear_8,2,5,56,103,1974608208
105,19,18,Jits_Linear_8,3,5,63,98,1974648148
105,19,18,Jits_Linear_8,0,1,48,32,1975186080
105,19,18,Jits_Linear_8,1,5,80,127,1975298544
105,19,18,Jits_Linear_8,2,5,63,98,1975317736
105,19,18,Jits_Linear_8,3,5,56,103,1975368012
105,19,18,Jits_Linear_8,0,1,48,39,1975905572
105,19,18,Jits_Linear_8,1,5,80,127,1976027724
105,19,18,Jits_Linear_8,2,5,56,103,1976058224
105,19,18,Jits_Linear_8,3,5,63,98,1976127832
105,19,18,Jits_Linear_8,0,1,48,34,1976634444
105,19,18,Jits_Linear_8,1,5,56,103,1976797820
105,19,18,Jits_Linear_8,2,5,80,127,1976807792
105,19,18,Jits_Linear_8,3,5,63,98,1976847732
105,19,18,Jits_Linear_8,0,5,56,103,1977428476
105,19,18,Jits_Linear_8,1,1,48,51,1977436404
105,19,18,Jits_Linear_8,2,5,63,98,1977447736
105,19,18,Jits_Linear_8,3,5,80,127,1977517516
105,19,18,Jits_Linear_8,0,1,48,50,1978113800
105,19,18,Jits_Linear_8,1,5,63,98,1978167704
105,19,18,Jits_Linear_8,2,5,80,127,1978228084
105,19,18,Jits_Linear_8,3,5,56,103,1978247520
105,19,18,Jits_Linear_8,0,1,48,35,1978834364
105,19,18,Jits_Linear_8,1,5,80,127,1978878600
105,19,18,Jits_Linear_8,2,5,56,103,1978908060
105,19,18,Jits_Linear_8,3,5,63,98,1978937648
105,19,18,Jits_Linear_8,0,1,48,44,1979512676
105,19,18,Jits_Linear_8,1,1,38,14,1979528476
105,19,18,Jits_Linear_8,2,5,56,103,1979587916
105,19,18,Jits_Linear_8,3,5,63,98,1979648340
105,19,18,Jits_Linear_8,4,5,80,127,1979707832
105,19,18,Jits_Linear_8,0,1,48,40,1980238124
105,19,18,Jits_Linear_8,1,5,80,127,1980318040
105,19,18,Jits_Linear_8,2,5,56,103,1980337588
105,19,18,Jits_Linear_8,3,5,63,98,1980408316
105,19,18,Jits_Linear_8,0,1,48,57,1981024388
105,19,18,Jits_Linear_8,1,5,80,127,1981027644
105,19,18,Jits_Linear_8,2,5,63,98,1981048028
105,19,18,Jits_Linear_8,3,5,56,103,1981077780
105,19,18,Jits_Linear_8,0,5,80,127,1981717992
105,19,18,Jits_Linear_8,1,1,48,35,1981731748
105,19,18,Jits_Linear_8,2,5,63,98,1981738296
105,19,18,Jits_Linear_8,3,5,56,103,1981797864
105,19,18,Jits_Linear_8,0,1,48,35,1982409848
105,19,18,Jits_Linear_8,1,5,80,127,1982418264
105,19,18,Jits_Linear_8,2,5,56,103,1982517676
105,19,18,Jits_Linear_8,3,5,63,98,1982548472
105,19,18,Jits_Linear_8,0,1,48,38,1983094496
105,19,18,Jits_Linear_8,1,5,63,98,1983107892
105,19,18,Jits_Linear_8,2,5,80,127,1983157500
105,19,18,Jits_Linear_8,3,5,56,103,1983178032
105,19,18,Jits_Linear_8,0,5,80,127,1983847844
105,19,18,Jits_Linear_8,1,1,48,42,1983857788
105,19,18,Jits_Linear_8,2,1,38,13,1983873824
105,19,18,Jits_Linear_8,3,5,56,103,1983877604
105,19,18,Jits_Linear_8,4,5,63,98,1983880748
105,19,18,Jits_Linear_8,0,5,63,98,1984577892
105,19,18,Jits_Linear_8,1,1,48,43,1984586116
105,19,18,Jits_Linear_8,2,5,56,103,1984617752
105,19,18,Jits_Linear_8,3,5,80,127,1984638532
105,19,18,Jits_Linear_8,0,5,80,127,1985217920
105,19,18,Jits_Linear_8,1,5,63,98,1985297720
105,19,18,Jits_Linear_8,2,1,48,40,1985315980
105,19,18,Jits_Linear_8,3,5,56,103,1985337724
105,19,18,Jits_Linear_8,0,5,63,98,1985927716
105,19,18,Jits_Linear_8,1,1,48,43,1985958040
105,19,18,Jits_Linear_8,2,5,80,127,1986008704
105,19,18,Jits_Linear_8,3,5,56,103,1986027968
105,19,18,Jits_Linear_8,4,1,48,21,1986102160
105,19,18,Jits_Linear_8,0,5,56,103,1986657604
105,19,18,Jits_Linear_8,1,5,63,98,1986668024
105,19,18,Jits_Linear_8,2,1,48,44,1986678712
105,19,18,Jits_Linear_8,3,5,80,127,1986707760
105,19,18,Jits_Linear_8,0,5,56,103,1987267972
105,19,18,Jits_Linear_8,1,5,80,127,1987270964
105,19,18,Jits_Linear_8,2,1,48,36,1987401000
105,19,18,Jits_Linear_8,3,5,63,98,1987408368
105,19,18,Jits_Linear_8,0,5,56,103,1987947840
105,19,18,Jits_Linear_8,1,1,48,39,1988032868
105,19,18,Jits_Linear_8,2,5,63,98,1988038068
105,19,18,Jits_Linear_8,3,5,80,127,1988107524
105,19,18,Jits_Linear_8,0,1,48,33,1988641484
105,19,18,Jits_Linear_8,1,5,63,98,1988707672
105,19,18,Jits_Linear_8,2,5,80,127,1988711112
105,19,18,Jits_Linear_8,3,5,56,103,1988768224
105,19,18,Jits_Linear_8,0,1,48,35,1989323308
105,19,18,Jits_Linear_8,1,5,80,127,1989427696
105,19,18,Jits_Linear_8,2,5,56,103,1989448008
105,19,18,Jits_Linear_8,3,5,63,98,1989458576
105,19,18,Jits_Linear_8,0,5,56,103,1990018600
105,19,18,Jits_Linear_8,1,5,63,98,1990027600
105,19,18,Jits_Linear_8,2,1,48,26,1990098700
105,19,18,Jits_Linear_8,3,5,80,127,1990099888
105,19,18,Jits_Linear_8,0,5,80,127,1990698472
105,19,18,Jits_Linear_8,1,5,56,103,1990747704
105,19,18,Jits_Linear_8,2,1,48,29,1990750676
105,19,18,Jits_Linear_8,3,5,63,98,1990797776
105,19,18,Jits_Linear_8,0,1,48,32,1991446004
105,19,18,Jits_Linear_8,1,5,56,103,1991458160
105,19,18,Jits_Linear_8,2,5,63,98,1991468656
105,19,18,Jits_Linear_8,3,5,80,127,1991508516
105,19,18,Jits_Linear_8,0,5,56,103,1992077744
105,19,18,Jits_Linear_8,1,5,63,98,1992117684
105,19,18,Jits_Linear_8,2,1,48,21,1992162228
105,19,18,Jits_Linear_8,3,5,80,127,1992167880
105,19,18,Jits_Linear_8,0,5,80,127,1992717688
105,19,18,Jits_Linear_8,1,5,56,103,1992767744
105,19,18,Jits_Linear_8,2,1,48,39,1992785536
105,19,18,Jits_Linear_8,3,5,63,98,1992788564
105,19,18,Jits_Linear_8,4,1,48,25,1992850952
105,19,18,Jits_Linear_8,0,1,48,33,1993387636
105,19,18,Jits_Linear_8,1,5,80,127,1993397624
105,19,18,Jits_Linear_8,2,5,63,98,1993457944
105,19,18,Jits_Linear_8,3,5,56,103,1993537796
105,19,18,Jits_Linear_8,0,5,80,127,1994047972
105,19,18,Jits_Linear_8,1,1,48,54,1994084800
105,19,18,Jits_Linear_8,2,5,56,103,1994087980
105,19,18,Jits_Linear_8,3,5,63,98,1994108240
105,19,18,Jits_Linear_8,0,5,56,103,1994767656
105,19,18,Jits_Linear_8,1,5,80,127,1994777928
105,19,18,Jits_Linear_8,2,1,48,46,1994791828
105,19,18,Jits_Linear_8,3,5,63,98,1994817856
105,19,18,Jits_Linear_8,0,1,48,47,1995427816
105,19,18,Jits_Linear_8,1,5,56,103,1995497896
105,19,18,Jits_Linear_8,2,5,63,98,1995537744
105,19,18,Jits_Linear_8,3,5,80,127,1995541036
105,19,18,Jits_Linear_8,0,5,63,98,1996047696
105,19,18,Jits_Linear_8,1,1,48,22,1996076224
105,19,18,Jits_Linear_8,2,5,80,127,1996087556
105,19,18,Jits_Linear_8,3,5,56,103,1996158528
105,19,18,Jits_Linear_8,0,5,63,98,1996698056
105,19,18,Jits_Linear_8,1,1,48,31,1996771900
105,19,18,Jits_Linear_8,2,5,56,103,1996777996
105,19,18,Jits_Linear_8,3,5,80,127,1996838532
105,19,18,Jits_Linear_8,0,5,80,127,1997367576
105,19,18,Jits_Linear_8,1,1,48,25,1997385000
105,19,18,Jits_Linear_8,2,5,63,98,1997417776
105,19,18,Jits_Linear_8,3,5,56,103,1997447696
105,19,18,Jits_Linear_8,0,1,48,38,1998002484
105,19,18,Jits_Linear_8,1,5,56,103,1998018020
105,19,18,Jits_Linear_8,2,5,63,98,1998068224
105,19,18,Jits_Linear_8,3,5,80,127,1998078420
105,19,18,Jits_Linear_8,0,5,56,103,1998687544
105,19,18,Jits_Linear_8,1,1,48,39,1998690136
105,19,18,Jits_Linear_8,2,5,63,98,1998798136
105,19,18,Jits_Linear_8,3,5,80,127,1998817624
105,19,18,Jits_Linear_8,0,5,63,98,1999337704
105,19,18,Jits_Linear_8,1,1,48,34,1999343964
105,19,18,Jits_Linear_8,2,5,80,127,1999387976
105,19,18,Jits_Linear_8,3,5,56,103,1999478168
105,19,18,Jits_Linear_8,0,5,63,98,1999977700
105,19,18,Jits_Linear_8,1,1,48,19,1999979640
105,19,18,Jits_Linear_8,2,5,80,127,2000007616
105,19,18,Jits_Linear_8,3,5,56,103,2000097584
105,19,18,Jits_Linear_8,0,5,63,98,2000627988
105,19,18,Jits_Linear_8,1,5,56,103,2000638404
105,19,18,Jits_Linear_8,2,5,80,127,2000737604
105,19,18,Jits_Linear_8,0,1,48,51,2001209916
105,19,18,Jits_Linear_8,1,5,63,98,2001377560
105,19,18,Jits_Linear_8,2,5,80,127,2001408656
105,19,18,Jits_Linear_8,3,5,56,103,2001438328
105,19,18,Jits_Linear_8,0,1,48,38,2001865844
105,19,18,Jits_Linear_8,1,5,80,127,2002038024
105,19,18,Jits_Linear_8,2,5,63,98,2002048692
105,19,18,Jits_Linear_8,3,5,56,103,2002077996
105,19,18,Jits_Linear_8,0,1,48,49,2002510868
105,19,18,Jits_Linear_8,1,5,80,127,2002577748
105,19,18,Jits_Linear_8,2,1,48,23,2002598416
105,19,18,Jits_Linear_8,3,5,63,98,2002599680
105,19,18,Jits_Linear_8,4,5,56,103,2002648540
105,19,18,Jits_Linear_8,0,5,63,98,2003247476
105,19,18,Jits_Linear_8,1,5,80,127,2003307868
105,19,18,Jits_Linear_8,2,5,56,103,2003328352
105,19,18,Jits_Linear_8,3,1,48,60,2003355664
105,19,18,Jits_Linear_8,0,5,63,98,2003847644
105,19,18,Jits_Linear_8,1,1,48,46,2003893764
105,19,18,Jits_Linear_8,2,5,56,103,2003897692
105,19,18,Jits_Linear_8,3,5,80,127,2003907964
105,19,18,Jits_Linear_8,0,1,48,51,2004425952
105,19,18,Jits_Linear_8,1,5,56,103,2004518352
105,19,18,Jits_Linear_8,2,5,80,127,2004527636
105,19,18,Jits_Linear_8,3,5,63,98,2004627756
105,19,18,Jits_Linear_8,0,5,80,127,2005118524
105,19,18,Jits_Linear_8,1,5,63,98,2005127524
105,19,18,Jits_Linear_8,2,1,48,46,2005140232
105,19,18,Jits_Linear_8,3,5,56,103,2005278016
105,19,18,Jits_Linear_8,0,5,63,98,2005758392
105,19,18,Jits_Linear_8,1,1,48,37,2005772072
105,19,18,Jits_Linear_8,2,5,80,127,2005798548
105,19,18,Jits_Linear_8,3,5,56,103,2005878252
105,19,18,Jits_Linear_8,0,5,56,103,2006377864
105,19,18,Jits_Linear_8,1,1,48,14,2006408884
105,19,18,Jits_Linear_8,2,1,48,24,2006413428
105,19,18,Jits_Linear_8,3,5,80,127,2006478412
105,19,18,Jits_Linear_8,4,5,63,98,2006497680
105,19,18,Jits_Linear_8,0,5,80,127,2007067936
105,19,18,Jits_Linear_8,1,5,56,103,2007078504
105,19,18,Jits_Linear_8,2,1,48,15,2007104468
105,19,18,Jits_Linear_8,3,1,48,25,2007108956
105,19,18,Jits_Linear_8,4,5,63,98,2007168560
105,19,18,Jits_Linear_8,0,5,56,103,2007697692
105,19,18,Jits_Linear_8,1,5,63,98,2007718376
105,19,18,Jits_Linear_8,2,1,48,39,2007753552
105,19,18,Jits_Linear_8,3,5,80,127,2007798384
105,19,18,Jits_Linear_8,0,5,63,98,2008268184
105,19,18,Jits_Linear_8,1,1,48,55,2008333560
105,19,18,Jits_Linear_8,2,5,56,103,2008358532
105,19,18,Jits_Linear_8,3,5,80,127,2008361376
105,19,18,Jits_Linear_8,0,5,56,103,2008918588
105,19,18,Jits_Linear_8,1,1,48,58,2008946512
105,19,18,Jits_Linear_8,2,5,80,127,2008977800
105,19,18,Jits_Linear_8,3,5,63,98,2008988444
105,19,18,Jits_Linear_8,0,1,48,57,2009564364
105,19,18,Jits_Linear_8,1,5,80,127,2009588072
105,19,18,Jits_Linear_8,2,5,56,103,2009598492
105,19,18,Jits_Linear_8,3,5,63,98,2009601408
105,19,18,Jits_Linear_8,0,5,56,103,2010167540
105,19,18,Jits_Linear_8,1,1,48,47,2010170280
105,19,18,Jits_Linear_8,2,5,80,127,2010177876
105,19,18,Jits_Linear_8,3,5,63,98,2010198336
105,19,18,Jits_Linear_8,0,1,48,50,2010752248
105,19,18,Jits_Linear_8,1,5,63,98,2010757524
105,19,18,Jits_Linear_8,2,5,80,127,2010817768
105,19,18,Jits_Linear_8,3,5,56,103,2010867956
105,19,18,Jits_Linear_8,0,1,48,59,2011355080
105,19,18,Jits_Linear_8,1,5,63,98,2011457900
105,19,18,Jits_Linear_8,2,5,56,103,2011468248
105,19,18,Jits_Linear_8,3,5,80,127,2011518400
105,19,18,Jits_Linear_8,0,5,63,98,2011967792
105,19,18,Jits_Linear_8,1,5,80,127,2011988476
105,19,18,Jits_Linear_8,2,5,56,103,2011997476
105,19,18,Jits_Linear_8,3,1,48,60,2012009884
105,19,18,Jits_Linear_8,0,5,63,98,2012578364
105,19,18,Jits_Linear_8,1,5,80,127,2012581652
105,19,18,Jits_Linear_8,2,5,56,103,2012618376
105,19,18,Jits_Linear_8,3,1,48,58,2012628244
105,19,18,Jits_Linear_8,0,1,48,61,2013184148
105,19,18,Jits_Linear_8,1,1,48,27,2013244288
105,19,18,Jits_Linear_8,2,5,63,98,2013258332
105,19,18,Jits_Linear_8,3,5,80,127,2013287784
105,19,18,Jits_Linear_8,4,5,56,103,2013297980
105,19,18,Jits_Linear_8,0,5,56,103,2013818492
105,19,18,Jits_Linear_8,1,5,80,127,2013847872
105,19,18,Jits_Linear_8,2,1,48,61,2013864768
105,19,18,Jits_Linear_8,3,5,63,98,2013877468
105,19,18,Jits_Linear_8,4,1,48,34,2013915492
105,19,18,Jits_Linear_8,0,1,48,52,2014476816
105,19,18,Jits_Linear_8,1,5,63,98,2014517672
105,19,18,Jits_Linear_8,2,5,56,103,2014557756
105,19,18,Jits_Linear_8,3,5,80,127,2014560896
105,19,18,Jits_Linear_8,0,5,80,127,2015018320
105,19,18,Jits_Linear_8,1,5,56,103,2015098440
105,19,18,Jits_Linear_8,2,1,48,54,2015118724
105,19,18,Jits_Linear_8,3,5,63,98,2015148416
105,19,18,Jits_Linear_8,0,5,80,127,2015597808
105,19,18,Jits_Linear_8,1,5,56,103,2015618516
105,19,18,Jits_Linear_8,2,5,63,98,2015707376
105,19,18,Jits_Linear_8,3,1,48,59,2015740088
105,19,18,Jits_Linear_8,0,5,80,127,2016237844
105,19,18,Jits_Linear_8,1,5,63,98,2016277864
105,19,18,Jits_Linear_8,2,1,48,59,2016279652
105,19,18,Jits_Linear_8,3,5,56,103,2016317792
105,19,18,Jits_Linear_8,0,5,63,98,2016808484
105,19,18,Jits_Linear_8,1,5,80,127,2016867828
105,19,18,Jits_Linear_8,2,1,48,50,2016874092
105,19,18,Jits_Linear_8,3,5,56,103,2016898348
105,19,18,Jits_Linear_8,0,5,56,103,2017408352
105,19,18,Jits_Linear_8,1,5,80,127,2017438252
105,19,18,Jits_Linear_8,2,1,48,52,2017439220
105,19,18,Jits_Linear_8,3,5,63,98,2017528232
105,19,18,Jits_Linear_8,0,5,56,103,2018008508
105,19,18,Jits_Linear_8,1,1,48,59,2018039276
105,19,18,Jits_Linear_8,2,5,80,127,2018117896
105,19,18,Jits_Linear_8,3,5,63,98,2018147780
105,19,18,Jits_Linear_8,0,1,48,59,2018563160
105,19,18,Jits_Linear_8,1,5,56,103,2018648300
105,19,18,Jits_Linear_8,2,5,63,98,2018707884
105,19,18,Jits_Linear_8,3,5,80,127,2018737484
105,19,18,Jits_Linear_8,0,1,48,58,2019149080
105,19,18,Jits_Linear_8,1,5,56,103,2019207568
105,19,18,Jits_Linear_8,2,5,63,98,2019278284
105,19,18,Jits_Linear_8,3,5,80,127,2019297700
105,19,18,Jits_Linear_8,0,5,80,127,2019767640
105,19,18,Jits_Linear_8,1,5,63,98,2019788248
105,19,18,Jits_Linear_8,2,5,56,103,2019838300
105,19,18,Jits_Linear_8,3,1,48,56,2019844488
105,19,18,Jits_Linear_8,0,5,63,98,2020367720
105,19,18,Jits_Linear_8,1,5,80,127,2020378216
105,19,18,Jits_Linear_8,2,1,48,55,2020401936
105,19,18,Jits_Linear_8,3,5,56,103,2020428264
105,19,18,Jits_Linear_8,0,5,63,98,2020948532
105,19,18,Jits_Linear_8,1,1,48,58,2021018464
105,19,18,Jits_Linear_8,2,5,80,127,2021019656
105,19,18,Jits_Linear_8,3,5,56,103,2021037420
105,19,18,Jits_Linear_8,0,1,48,46,2021542896
105,19,18,Jits_Linear_8,1,5,63,98,2021557616
105,19,18,Jits_Linear_8,2,5,80,127,2021560904
105,19,18,Jits_Linear_8,3,5,56,103,2021628416
105,19,18,Jits_Linear_8,0,1,48,51,2022083020
105,19,18,Jits_Linear_8,1,5,80,127,2022087996
105,19,18,Jits_Linear_8,2,5,56,103,2022107484
105,19,18,Jits_Linear_8,3,5,63,98,2022117832
105,19,18,Jits_Linear_8,0,1,48,53,2022663828
105,19,18,Jits_Linear_8,1,5,56,103,2022688284
105,19,18,Jits_Linear_8,2,5,63,98,2022778280
105,19,18,Jits_Linear_8,3,5,80,127,2022781720
105,19,18,Jits_Linear_8,0,1,48,53,2023223052
105,19,18,Jits_Linear_8,1,5,80,127,2023238216
105,19,18,Jits_Linear_8,2,5,56,103,2023248192
105,19,18,Jits_Linear_8,3,5,63,98,2023267756
105,19,18,Jits_Linear_8,0,1,48,37,2023774268
105,19,18,Jits_Linear_8,1,5,63,98,2023808340
105,19,18,Jits_Linear_8,2,5,80,127,2023867688
105,19,18,Jits_Linear_8,3,5,56,103,2023878240
105,19,18,Jits_Linear_8,0,1,48,55,2024291996
105,19,18,Jits_Linear_8,1,5,63,98,2024448328
105,19,18,Jits_Linear_8,2,5,80,127,2024478004
105,19,18,Jits_Linear_8,3,5,56,103,2024518168
105,19,18,Jits_Linear_8,0,1,48,50,2024949716
105,19,18,Jits_Linear_8,1,5,56,103,2025007364
105,19,18,Jits_Linear_8,2,5,80,127,2025017784
105,19,18,Jits_Linear_8,3,5,63,98,2025057632
105,19,18,Jits_Linear_8,0,5,80,127,2025537840
105,19,18,Jits_Linear_8,1,1,48,36,2025544776
105,19,18,Jits_Linear_8,2,5,56,103,2025617656
105,19,18,Jits_Linear_8,3,5,63,98,2025628224
105,19,18,Jits_Linear_8,0,5,80,127,2026148364
105,19,18,Jits_Linear_8,1,1,48,24,2026157484
105,19,18,Jits_Linear_8,2,5,56,103,2026228008
105,19,18,Jits_Linear_8,3,5,63,98,2026238352
105,19,18,Jits_Linear_8,0,5,80,127,2026668368
105,19,18,Jits_Linear_8,1,5,56,103,2026717448
105,19,18,Jits_Linear_8,2,1,48,40,2026749040
105,19,18,Jits_Linear_8,3,5,63,98,2026767792
105,19,18,Jits_Linear_8,0,5,56,103,2027287856
105,19,18,Jits_Linear_8,1,5,63,98,2027291296
105,19,18,Jits_Linear_8,2,5,80,127,2027338280
105,19,18,Jits_Linear_8,3,1,48,46,2027418588
105,19,18,Jits_Linear_8,0,5,56,103,2027867564
105,19,18,Jits_Linear_8,1,5,63,98,2027898388
105,19,18,Jits_Linear_8,2,1,48,40,2027907612
105,19,18,Jits_Linear_8,3,5,80,127,2027908724
105,19,18,Jits_Linear_8,0,5,63,98,2028337516
105,19,18,Jits_Linear_8,1,5,56,103,2028408272
105,19,18,Jits_Linear_8,2,5,80,127,2028458472
105,19,18,Jits_Linear_8,3,1,48,49,2028459364
105,19,18,Jits_Linear_8,0,5,63,98,2028928400
105,19,18,Jits_Linear_8,1,5,56,103,2028937620
105,19,18,Jits_Linear_8,2,5,80,127,2028940612
105,19,18,Jits_Linear_8,3,1,48,20,2028987192
105,19,18,Jits_Linear_8,0,5,80,127,2029428188
105,19,18,Jits_Linear_8,1,5,56,103,2029487608
105,19,18,Jits_Linear_8,2,1,48,50,2029505556
105,19,18,Jits_Linear_8,3,5,63,98,2029577436
105,19,18,Jits_Linear_8,0,5,80,127,2029978000
105,19,18,Jits_Linear_8,1,5,56,103,2030078252
105,19,18,Jits_Linear_8,2,1,48,43,2030106472
105,19,18,Jits_Linear_8,3,5,63,98,2030118184
105,19,18,Jits_Linear_8,0,5,56,103,2030578236
105,19,18,Jits_Linear_8,1,5,63,98,2030597352
105,19,18,Jits_Linear_8,2,5,80,127,2030637288
105,19,18,Jits_Linear_8,3,1,48,42,2030662576
105,19,18,Jits_Linear_8,0,5,63,98,2031098308
105,19,18,Jits_Linear_8,1,5,56,103,2031117644
105,19,18,Jits_Linear_8,2,1,48,39,2031135140
105,19,18,Jits_Linear_8,3,5,80,127,2031218180
105,19,18,Jits_Linear_8,0,5,63,98,2031627728
105,19,18,Jits_Linear_8,1,1,48,13,2031665548
105,19,18,Jits_Linear_8,2,1,48,26,2031670012
105,19,18,Jits_Linear_8,3,5,80,127,2031738240
105,19,18,Jits_Linear_8,4,5,56,103,2031767824
105,19,18,Jits_Linear_8,0,5,56,103,2032187692
105,19,18,Jits_Linear_8,1,1,48,57,2032204588
105,19,18,Jits_Linear_8,2,5,63,98,2032217436
105,19,18,Jits_Linear_8,3,5,80,127,2032267736
105,19,18,Jits_Linear_8,0,5,63,98,2032697644
105,19,18,Jits_Linear_8,1,5,56,103,2032728444
105,19,18,Jits_Linear_8,2,1,48,57,2032755156
105,19,18,Jits_Linear_8,3,5,80,127,2032777544
105,19,18,Jits_Linear_8,4,1,48,35,2032801544
105,19,18,Jits_Linear_8,0,1,48,44,2033191776
105,19,18,Jits_Linear_8,1,5,56,103,2033268232
105,19,18,Jits_Linear_8,2,5,63,98,2033287496
105,19,18,Jits_Linear_8,3,5,80,127,2033368396
105,19,18,Jits_Linear_8,0,1,48,52,2033710464
105,19,18,Jits_Linear_8,1,5,63,98,2033778220
105,19,18,Jits_Linear_8,2,5,56,103,2033837280
105,19,18,Jits_Linear_8,3,5,80,127,2033868224
105,19,18,Jits_Linear_8,0,1,48,44,2034136580
105,19,18,Jits_Linear_8,1,5,56,103,2034357540
105,19,18,Jits_Linear_8,2,5,80,127,2034418156
105,19,18,Jits_Linear_8,3,5,63,98,2034458168
105,19,18,Jits_Linear_8,0,1,48,36,2034752280
105,19,18,Jits_Linear_8,1,5,63,98,2034867556
105,19,18,Jits_Linear_8,2,5,56,103,2034928176
105,19,18,Jits_Linear_8,3,5,80,127,2034997708
105,19,18,Jits_Linear_8,0,1,48,50,2035394484
105,19,18,Jits_Linear_8,1,5,56,103,2035477764
105,19,18,Jits_Linear_8,2,5,63,98,2035488180
105,19,18,Jits_Linear_8,3,5,80,127,2035491696
105,19,18,Jits_Linear_8,0,5,63,98,2035948072
105,19,18,Jits_Linear_8,1,1,48,55,2035983480
105,19,18,Jits_Linear_8,2,5,56,103,2036008232
105,19,18,Jits_Linear_8,3,5,80,127,2036011300
105,19,18,Jits_Linear_8,0,5,63,98,2036457780
105,19,18,Jits_Linear_8,1,5,80,127,2036487532
105,19,18,Jits_Linear_8,2,1,48,60,2036501064
105,19,18,Jits_Linear_8,3,5,56,103,2036508132
105,19,18,Jits_Linear_8,0,5,56,103,2036988320
105,19,18,Jits_Linear_8,1,5,63,98,2037037624
105,19,18,Jits_Linear_8,2,1,48,54,2037056784
105,19,18,Jits_Linear_8,3,5,80,127,2037118264
105,19,18,Jits_Linear_8,0,5,80,127,2037488164
105,19,18,Jits_Linear_8,1,5,63,98,2037527880
105,19,18,Jits_Linear_8,2,5,56,103,2037548340
105,19,18,Jits_Linear_8,3,1,48,50,2037570864
105,19,18,Jits_Linear_8,0,1,48,62,2037957252
105,19,18,Jits_Linear_8,1,5,56,103,2038077740
105,19,18,Jits_Linear_8,2,5,80,127,2038088308
105,19,18,Jits_Linear_8,3,5,63,98,2038107424
105,19,18,Jits_Linear_8,0,1,48,65,2038374324
105,19,18,Jits_Linear_8,1,1,48,27,2038453228
105,19,18,Jits_Linear_8,2,5,56,103,2038577472
105,19,18,Jits_Linear_8,3,5,63,98,2038627676
105,19,18,Jits_Linear_8,4,5,80,127,2038658276
105,19,18,Jits_Linear_8,0,1,48,59,2038915064
105,19,18,Jits_Linear_8,1,5,56,103,2039047408
105,19,18,Jits_Linear_8,2,5,63,98,2039057752
105,19,18,Jits_Linear_8,3,5,80,127,2039108176
105,19,18,Jits_Linear_8,0,1,48,70,2039466676
105,19,18,Jits_Linear_8,1,5,56,103,2039557504
105,19,18,Jits_Linear_8,2,5,80,127,2039560572
105,19,18,Jits_Linear_8,3,5,63,98,2039718292
105,19,18,Jits_Linear_8,0,1,48,62,2040036320
105,19,18,Jits_Linear_8,1,5,63,98,2040088116
105,19,18,Jits_Linear_8,2,5,56,103,2040157412
105,19,18,Jits_Linear_8,3,5,80,127,2040197596
105,19,18,Jits_Linear_8,0,1,48,57,2040614580
105,19,18,Jits_Linear_8,1,5,63,98,2040637916
105,19,18,Jits_Linear_8,2,5,56,103,2040728212
105,19,18,Jits_Linear_8,3,5,80,127,2040731276
105,19,18,Jits_Linear_8,0,5,56,103,2041128308
105,19,18,Jits_Linear_8,1,1,48,63,2041166128
105,19,18,Jits_Linear_8,2,5,63,98,2041218316
105,19,18,Jits_Linear_8,3,5,80,127,2041227688
105,19,18,Jits_Linear_8,4,1,48,20,2041300092
105,19,18,Jits_Linear_8,0,5,56,103,2041607676
105,19,18,Jits_Linear_8,1,5,63,98,2041657732
105,19,18,Jits_Linear_8,2,1,48,61,2041673504
105,19,18,Jits_Linear_8,3,5,80,127,2041688296
105,19,18,Jits_Linear_8,4,1,48,32,2041720568
105,19,18,Jits_Linear_8,0,1,48,64,2042142220
105,19,18,Jits_Linear_8,1,1,48,40,2042187636
105,19,18,Jits_Linear_8,2,5,63,98,2042188676
105,19,18,Jits_Linear_8,3,5,80,127,2042198276
105,19,18,Jits_Linear_8,4,5,56,103,2042257868
105,19,18,Jits_Linear_8,0,5,63,98,2042608268
105,19,18,Jits_Linear_8,1,5,80,127,2042668292
105,19,18,Jits_Linear_8,2,5,56,103,2042708380
105,19,18,Jits_Linear_8,0,1,48,34,2042965780
105,19,18,Jits_Linear_8,1,5,56,103,2043208132
105,19,18,Jits_Linear_8,2,5,80,127,2043227472
105,19,18,Jits_Linear_8,3,5,63,98,2043248080
105,19,18,Jits_Linear_8,0,1,48,61,2043436572
105,19,18,Jits_Linear_8,1,5,63,98,2043627860
105,19,18,Jits_Linear_8,2,5,56,103,2043648316
105,19,18,Jits_Linear_8,3,5,80,127,2043688328
105,19,18,Jits_Linear_8,0,1,48,54,2043936232
105,19,18,Jits_Linear_8,1,5,63,98,2044137932
105,19,18,Jits_Linear_8,2,5,80,127,2044167460
105,19,18,Jits_Linear_8,3,5,56,103,2044188216
105,19,18,Jits_Linear_8,0,1,48,45,2044503308
105,19,18,Jits_Linear_8,1,5,80,127,2044607792
105,19,18,Jits_Linear_8,2,5,56,103,2044658144
105,19,18,Jits_Linear_8,3,5,63,98,2044717412
105,19,18,Jits_Linear_8,0,5,63,98,2045088160
105,19,18,Jits_Linear_8,1,1,48,62,2045116688
105,19,18,Jits_Linear_8,2,5,56,103,2045208036
105,19,18,Jits_Linear_8,3,5,80,127,2045237620
105,19,18,Jits_Linear_8,0,5,80,127,2045617512
105,19,18,Jits_Linear_8,1,1,48,59,2045629320
105,19,18,Jits_Linear_8,2,5,63,98,2045638116
105,19,18,Jits_Linear_8,3,5,56,103,2045707496
105,19,18,Jits_Linear_8,0,1,48,59,2046061176
105,19,18,Jits_Linear_8,1,5,63,98,2046127616
105,19,18,Jits_Linear_8,2,5,56,103,2046137812
105,19,18,Jits_Linear_8,3,5,80,127,2046217440
105,19,18,Jits_Linear_8,0,1,48,62,2046573220
105,19,18,Jits_Linear_8,1,5,56,103,2046678456
105,19,18,Jits_Linear_8,2,5,80,127,2046708056
105,19,18,Jits_Linear_8,3,5,63,98,2046718180
105,19,18,Jits_Linear_8,0,9999,9999,9999,1936305260
105,19,18,Jits_Linear_8,1,9999,9999,9999,1937125496
105,19,18,Jits_Linear_8,2,9999,9999,9999,1937945676
105,19,18,Jits_Linear_8,3,9999,9999,9999,1938765908
105,19,18,Jits_Linear_8,4,9999,9999,9999,1939585100
105,19,18,Jits_Linear_8,5,9999,9999,9999,1940395124
105,19,18,Jits_Linear_8,6,9999,9999,9999,1941206112
105,19,18,Jits_Linear_8,7,9999,9999,9999,1942016056
105,19,18,Jits_Linear_8,8,9999,9999,9999,1942835296
105,19,18,Jits_Linear_8,9,9999,9999,9999,1943645304
105,19,18,Jits_Linear_8,10,9999,9999,9999,1944446060
105,19,18,Jits_Linear_8,11,9999,9999,9999,1945245816
105,19,18,Jits_Linear_8,12,9999,9999,9999,1946045504
105,19,18,Jits_Linear_8,13,9999,9999,9999,1946845296
105,19,18,Jits_Linear_8,14,9999,9999,9999,1947646008
105,19,18,Jits_Linear_8,15,9999,9999,9999,1948435580
105,19,18,Jits_Linear_8,16,9999,9999,9999,1949226104
105,19,18,Jits_Linear_8,17,9999,9999,9999,1950015540
105,19,18,Jits_Linear_8,18,9999,9999,9999,1950806084
105,19,18,Jits_Linear_8,19,9999,9999,9999,1951605856
105,19,18,Jits_Linear_8,20,9999,9999,9999,1952385104
105,19,18,Jits_Linear_8,21,9999,9999,9999,1953165376
105,19,18,Jits_Linear_8,22,9999,9999,9999,1953945656
105,19,18,Jits_Linear_8,23,9999,9999,9999,1954726004
105,19,18,Jits_Linear_8,24,9999,9999,9999,1955505232
105,19,18,Jits_Linear_8,25,9999,9999,9999,1956275316
105,19,18,Jits_Linear_8,26,9999,9999,9999,1957045332
105,19,18,Jits_Linear_8,27,9999,9999,9999,1957815420
105,19,18,Jits_Linear_8,28,9999,9999,9999,1958585432
105,19,18,Jits_Linear_8,29,9999,9999,9999,1959355452
105,19,18,Jits_Linear_8,30,9999,9999,9999,1960115272
105,19,18,Jits_Linear_8,31,9999,9999,9999,1960875092
105,19,18,Jits_Linear_8,32,9999,9999,9999,1961635960
105,19,18,Jits_Linear_8,33,9999,9999,9999,1962395700
105,19,18,Jits_Linear_8,34,9999,9999,9999,1963155528
105,19,18,Jits_Linear_8,35,9999,9999,9999,1963905096
105,19,18,Jits_Linear_8,36,9999,9999,9999,1964655688
105,19,18,Jits_Linear_8,37,9999,9999,9999,1965405240
105,19,18,Jits_Linear_8,38,9999,9999,9999,1966155840
105,19,18,Jits_Linear_8,39,9999,9999,9999,1966905404
105,19,18,Jits_Linear_8,40,9999,9999,9999,1967645824
105,19,18,Jits_Linear_8,41,9999,9999,9999,1968385120
105,19,18,Jits_Linear_8,42,9999,9999,9999,1969125460
105,19,18,Jits_Linear_8,43,9999,9999,9999,1969865852
105,19,18,Jits_Linear_8,44,9999,9999,9999,1970605128
105,19,18,Jits_Linear_8,45,9999,9999,9999,1971335292
105,19,18,Jits_Linear_8,46,9999,9999,9999,1972065352
105,19,18,Jits_Linear_8,47,9999,9999,9999,1972795496
105,19,18,Jits_Linear_8,48,9999,9999,9999,1973525576
105,19,18,Jits_Linear_8,49,9999,9999,9999,1974255720
105,19,18,Jits_Linear_8,50,9999,9999,9999,1974975588
105,19,18,Jits_Linear_8,51,9999,9999,9999,1975695476
105,19,18,Jits_Linear_8,52,9999,9999,9999,1976415344
105,19,18,Jits_Linear_8,53,9999,9999,9999,1977135168
105,19,18,Jits_Linear_8,54,9999,9999,9999,1977856100
105,19,18,Jits_Linear_8,55,9999,9999,9999,1978575932
105,19,18,Jits_Linear_8,56,9999,9999,9999,1979285560
105,19,18,Jits_Linear_8,57,9999,9999,9999,1979995196
105,19,18,Jits_Linear_8,58,9999,9999,9999,1980705868
105,19,18,Jits_Linear_8,59,9999,9999,9999,1981415540
105,19,18,Jits_Linear_8,60,9999,9999,9999,1982115948
105,19,18,Jits_Linear_8,61,9999,9999,9999,1982815312
105,19,18,Jits_Linear_8,62,9999,9999,9999,1983515720
105,19,18,Jits_Linear_8,63,9999,9999,9999,1984215116
105,19,18,Jits_Linear_8,64,9999,9999,9999,1984915544
105,19,18,Jits_Linear_8,65,9999,9999,9999,1985605740
105,19,18,Jits_Linear_8,66,9999,9999,9999,1986295888
105,19,18,Jits_Linear_8,67,9999,9999,9999,1986986040
105,19,18,Jits_Linear_8,68,9999,9999,9999,1987675188
105,19,18,Jits_Linear_8,69,9999,9999,9999,1988365428
105,19,18,Jits_Linear_8,70,9999,9999,9999,1989045324
105,19,18,Jits_Linear_8,71,9999,9999,9999,1989725264
105,19,18,Jits_Linear_8,72,9999,9999,9999,1990405224
105,19,18,Jits_Linear_8,73,9999,9999,9999,1991085120
105,19,18,Jits_Linear_8,74,9999,9999,9999,1991766124
105,19,18,Jits_Linear_8,75,9999,9999,9999,1992446012
105,19,18,Jits_Linear_8,76,9999,9999,9999,1993115772
105,19,18,Jits_Linear_8,77,9999,9999,9999,1993785452
105,19,18,Jits_Linear_8,78,9999,9999,9999,1994455144
105,19,18,Jits_Linear_8,79,9999,9999,9999,1995125880
105,19,18,Jits_Linear_8,80,9999,9999,9999,1995785324
105,19,18,Jits_Linear_8,81,9999,9999,9999,1996445804
105,19,18,Jits_Linear_8,82,9999,9999,9999,1997105208
105,19,18,Jits_Linear_8,83,9999,9999,9999,1997765756
105,19,18,Jits_Linear_8,84,9999,9999,9999,1998425172
105,19,18,Jits_Linear_8,85,9999,9999,9999,1999075392
105,19,18,Jits_Linear_8,86,9999,9999,9999,1999725672
105,19,18,Jits_Linear_8,87,9999,9999,9999,2000375880
105,19,18,Jits_Linear_8,88,9999,9999,9999,2001025140
105,19,18,Jits_Linear_8,89,9999,9999,9999,2001675352
105,19,18,Jits_Linear_8,90,9999,9999,9999,2002315388
105,19,18,Jits_Linear_8,91,9999,9999,9999,2002955364
105,19,18,Jits_Linear_8,92,9999,9999,9999,2003595392
105,19,18,Jits_Linear_8,93,9999,9999,9999,2004235384
105,19,18,Jits_Linear_8,94,9999,9999,9999,2004875336
105,19,18,Jits_Linear_8,95,9999,9999,9999,2005505148
105,19,18,Jits_Linear_8,96,9999,9999,9999,2006135900
105,19,18,Jits_Linear_8,97,9999,9999,9999,2006765624
105,19,18,Jits_Linear_8,98,9999,9999,9999,2007395428
105,19,18,Jits_Linear_8,99,9999,9999,9999,2008025208
105,19,18,Jits_Linear_8,100,9999,9999,9999,2008645732
105,19,18,Jits_Linear_8,101,9999,9999,9999,2009265232
105,19,18,Jits_Linear_8,102,9999,9999,9999,2009885764
105,19,18,Jits_Linear_8,103,9999,9999,9999,2010505332
105,19,18,Jits_Linear_8,104,9999,9999,9999,2011125872
105,19,18,Jits_Linear_8,105,9999,9999,9999,2011735092
105,19,18,Jits_Linear_8,106,9999,9999,9999,2012345444
105,19,18,Jits_Linear_8,107,9999,9999,9999,2012955760
105,19,18,Jits_Linear_8,108,9999,9999,9999,2013566024
105,19,18,Jits_Linear_8,109,9999,9999,9999,2014175352
105,19,18,Jits_Linear_8,110,9999,9999,9999,2014775360
105,19,18,Jits_Linear_8,111,9999,9999,9999,2015375456
105,19,18,Jits_Linear_8,112,9999,9999,9999,2015975536
105,19,18,Jits_Linear_8,113,9999,9999,9999,2016575548
105,19,18,Jits_Linear_8,114,9999,9999,9999,2017175656
105,19,18,Jits_Linear_8,115,9999,9999,9999,2017765460
105,19,18,Jits_Linear_8,116,9999,9999,9999,2018355280
105,19,18,Jits_Linear_8,117,9999,9999,9999,2018945136
105,19,18,Jits_Linear_8,118,9999,9999,9999,2019535992
105,19,18,Jits_Linear_8,119,9999,9999,9999,2020125788
105,19,18,Jits_Linear_8,120,9999,9999,9999,2020705348
105,19,18,Jits_Linear_8,121,9999,9999,9999,2021285964
105,19,18,Jits_Linear_8,122,9999,9999,9999,2021865572
105,19,18,Jits_Linear_8,123,9999,9999,9999,2022445180
105,19,18,Jits_Linear_8,124,9999,9999,9999,2023025764
105,19,18,Jits_Linear_8,125,9999,9999,9999,2023595132
105,19,18,Jits_Linear_8,126,9999,9999,9999,2024165452
105,19,18,Jits_Linear_8,127,9999,9999,9999,2024735860
105,19,18,Jits_Linear_8,128,9999,9999,9999,2025305212
105,19,18,Jits_Linear_8,129,9999,9999,9999,2025875568
105,19,18,Jits_Linear_8,130,9999,9999,9999,2026435652
105,19,18,Jits_Linear_8,131,9999,9999,9999,2026995808
105,19,18,Jits_Linear_8,132,9999,9999,9999,2027555952
105,19,18,Jits_Linear_8,133,9999,9999,9999,2028116040
105,19,18,Jits_Linear_8,134,9999,9999,9999,2028675172
105,19,18,Jits_Linear_8,135,9999,9999,9999,2029226084
105,19,18,Jits_Linear_8,136,9999,9999,9999,2029775928
105,19,18,Jits_Linear_8,137,9999,9999,9999,2030325820
105,19,18,Jits_Linear_8,138,9999,9999,9999,2030875708
105,19,18,Jits_Linear_8,139,9999,9999,9999,2031425596
105,19,18,Jits_Linear_8,140,9999,9999,9999,2031965264
105,19,18,Jits_Linear_8,141,9999,9999,9999,2032505940
105,19,18,Jits_Linear_8,142,9999,9999,9999,2033045612
105,19,18,Jits_Linear_8,143,9999,9999,9999,2033585264
105,19,18,Jits_Linear_8,144,9999,9999,9999,2034125920
105,19,18,Jits_Linear_8,145,9999,9999,9999,2034655336
105,19,18,Jits_Linear_8,146,9999,9999,9999,2035185732
105,19,18,Jits_Linear_8,147,9999,9999,9999,2035715148
105,19,18,Jits_Linear_8,148,9999,9999,9999,2036245608
105,19,18,Jits_Linear_8,149,9999,9999,9999,2036776000
105,19,18,Jits_Linear_8,150,9999,9999,9999,2037295164
105,19,18,Jits_Linear_8,151,9999,9999,9999,2037815376
105,19,18,Jits_Linear_8,152,9999,9999,9999,2038335600
105,19,18,Jits_Linear_8,153,9999,9999,9999,2038855788
105,19,18,Jits_Linear_8,154,9999,9999,9999,2039375984
105,19,18,Jits_Linear_8,155,9999,9999,9999,2039885916
105,19,18,Jits_Linear_8,156,9999,9999,9999,2040395864
105,19,18,Jits_Linear_8,157,9999,9999,9999,2040905800
105,19,18,Jits_Linear_8,158,9999,9999,9999,2041415800
105,19,18,Jits_Linear_8,159,9999,9999,9999,2041925732
105,19,18,Jits_Linear_8,160,9999,9999,9999,2042425404
105,19,18,Jits_Linear_8,161,9999,9999,9999,2042925172
105,19,18,Jits_Linear_8,162,9999,9999,9999,2043425916
105,19,18,Jits_Linear_8,163,9999,9999,9999,2043925576
105,19,18,Jits_Linear_8,164,9999,9999,9999,2044425312
105,19,18,Jits_Linear_8,165,9999,9999,9999,2044915776
105,19,18,Jits_Linear_8,166,9999,9999,9999,2045405268
105,19,18,Jits_Linear_8,167,9999,9999,9999,2045895808
105,19,18,Jits_Linear_8,168,9999,9999,9999,2046385240
105,19,18,Jits_Linear_8,169,9999,9999,9999,2046875712
105,20,5,ISIP_5,0,5,42,127,2118160608
105,20,5,ISIP_5,1,5,42,127,2118660624
105,20,5,ISIP_5,2,5,42,127,2119161312
105,20,5,ISIP_5,3,1,48,59,2119218508
105,20,5,ISIP_5,4,5,42,127,2119660784
105,20,5,ISIP_5,5,1,48,61,2119670184
105,20,5,ISIP_5,6,5,42,127,2120160476
105,20,5,ISIP_5,7,1,48,47,2120164040
105,20,5,ISIP_5,8,1,48,54,2120629764
105,20,5,ISIP_5,9,5,42,127,2120661360
105,20,5,ISIP_5,10,1,48,50,2121094752
105,20,5,ISIP_5,11,5,42,127,2121161204
105,20,5,ISIP_5,12,1,48,58,2121620176
105,20,5,ISIP_5,13,5,42,127,2121660824
105,20,5,ISIP_5,14,1,48,54,2122128400
105,20,5,ISIP_5,15,5,42,127,2122160372
105,20,5,ISIP_5,16,1,48,51,2122580792
105,20,5,ISIP_5,17,5,42,127,2122661336
105,20,5,ISIP_5,18,1,48,50,2123085276
105,20,5,ISIP_5,19,5,42,127,2123160956
105,20,5,ISIP_5,20,1,48,52,2123632696
105,20,5,ISIP_5,21,5,42,127,2123660500
105,20,5,ISIP_5,22,1,48,59,2124137244
105,20,5,ISIP_5,23,5,42,127,2124161468
105,20,5,ISIP_5,24,1,48,54,2124598500
105,20,5,ISIP_5,25,5,42,127,2124661088
105,20,5,ISIP_5,26,1,48,59,2125085620
105,20,5,ISIP_5,27,5,42,127,2125160684
105,20,5,ISIP_5,28,1,48,57,2125571856
105,20,5,ISIP_5,29,5,42,127,2125660600
105,20,5,ISIP_5,30,1,48,61,2126066016
105,20,5,ISIP_5,31,5,42,127,2126161340
105,20,5,ISIP_5,32,1,48,58,2126529504
105,20,5,ISIP_5,33,5,42,127,2126661020
105,20,5,ISIP_5,34,1,48,57,2127041168
105,20,5,ISIP_5,35,5,42,127,2127160568
105,20,5,ISIP_5,36,1,48,55,2127584996
105,20,5,ISIP_5,37,5,42,127,2127661476
105,20,5,ISIP_5,38,1,48,50,2128111540
105,20,5,ISIP_5,39,5,42,127,2128161092
105,20,5,ISIP_5,40,1,48,55,2128649388
105,20,5,ISIP_5,41,5,42,127,2128660936
105,20,5,ISIP_5,42,1,48,59,2129126716
105,20,5,ISIP_5,43,5,42,127,2129160632
105,20,5,ISIP_5,44,1,48,48,2129581976
105,20,5,ISIP_5,45,1,48,24,2129647632
105,20,5,ISIP_5,46,5,42,127,2129661572
105,20,5,ISIP_5,47,1,48,65,2130082104
105,20,5,ISIP_5,48,5,42,127,2130160972
105,20,5,ISIP_5,49,1,48,70,2130610964
105,20,5,ISIP_5,50,5,42,127,2130660592
105,20,5,ISIP_5,51,1,48,67,2131090016
105,20,5,ISIP_5,52,5,42,127,2131160436
105,20,5,ISIP_5,53,1,48,67,2131586648
105,20,5,ISIP_5,54,5,42,127,2131661404
105,20,5,ISIP_5,55,1,48,60,2132140196
105,20,5,ISIP_5,56,5,42,127,2132160800
105,20,5,ISIP_5,57,5,42,127,2132660576
105,20,5,ISIP_5,58,1,48,46,2132698548
105,20,5,ISIP_5,59,5,42,127,2133161540
105,20,5,ISIP_5,60,1,48,61,2133164140
105,20,5,ISIP_5,61,1,48,63,2133651392
105,20,5,ISIP_5,62,5,42,127,2133661452
105,20,5,ISIP_5,63,5,42,127,2134160856
105,20,5,ISIP_5,64,1,48,71,2134169812
105,20,5,ISIP_5,65,5,42,127,2134660328
105,20,5,ISIP_5,66,1,48,62,2134678632
105,20,5,ISIP_5,67,5,42,127,2135161512
105,20,5,ISIP_5,68,1,48,63,2135181616
105,20,5,ISIP_5,69,5,42,127,2135660960
105,20,5,ISIP_5,70,1,48,64,2135684228
105,20,5,ISIP_5,71,5,42,127,2136160580
105,20,5,ISIP_5,72,1,48,73,2136181076
105,20,5,ISIP_5,73,5,42,127,2136661544
105,20,5,ISIP_5,74,1,48,59,2136701788
105,20,5,ISIP_5,75,5,42,127,2137160944
105,20,5,ISIP_5,76,1,48,56,2137193756
105,20,5,ISIP_5,77,5,42,127,2137660860
105,20,5,ISIP_5,78,1,48,62,2137679388
105,20,5,ISIP_5,79,1,48,63,2138187452
105,20,5,ISIP_5,80,1,48,62,2138697992
105,20,5,ISIP_5,81,1,48,59,2139181896
105,20,5,ISIP_5,82,1,48,58,2139683828
105,20,5,ISIP_5,83,1,48,40,2140209628
105,20,5,ISIP_5,84,1,48,61,2140718516
105,20,5,ISIP_5,85,1,48,38,2140759560
105,20,5,ISIP_5,86,1,48,46,2141251392
105,20,5,ISIP_5,87,1,48,62,2141789236
105,20,5,ISIP_5,88,1,48,73,2142246512
105,20,5,ISIP_5,89,1,48,72,2142735884
105,20,5,ISIP_5,90,1,48,69,2143248660
105,20,5,ISIP_5,91,1,48,69,2143740424
105,20,5,ISIP_5,92,1,48,75,2144236972
105,20,5,ISIP_5,93,1,48,72,2144757908
105,20,5,ISIP_5,94,1,48,69,2145250492
105,20,5,ISIP_5,95,1,48,74,2145769252
105,20,5,ISIP_5,96,1,48,66,2146228404
105,20,5,ISIP_5,97,1,48,63,2146753976
105,20,5,ISIP_5,98,1,48,67,2147274012
105,20,5,ISIP_5,99,1,48,64,2147756648
105,20,5,ISIP_5,100,1,48,76,2148290148
105,20,5,ISIP_5,101,1,48,66,2148796196
105,20,5,ISIP_5,102,1,48,59,2149305388
105,20,5,ISIP_5,103,1,48,73,2149800736
105,20,5,ISIP_5,104,1,48,58,2150312772
105,20,5,ISIP_5,105,1,48,56,2150798100
105,20,5,ISIP_5,106,1,48,78,2151344988
105,20,5,ISIP_5,107,1,48,67,2151855380
105,20,5,ISIP_5,108,1,48,67,2152327544
105,20,5,ISIP_5,109,1,48,73,2152808132
105,20,5,ISIP_5,110,1,48,76,2153336572
105,20,5,ISIP_5,111,1,48,70,2153831224
105,20,5,ISIP_5,112,1,48,35,2153899224
105,20,5,ISIP_5,113,1,48,64,2154305088
105,20,5,ISIP_5,114,1,48,62,2154804928
105,20,5,ISIP_5,115,1,48,64,2155326836
105,20,5,ISIP_5,116,1,48,75,2155807976
105,20,5,ISIP_5,117,1,48,64,2156331824
105,20,5,ISIP_5,118,1,48,67,2156851264
105,20,5,ISIP_5,119,1,48,56,2157361352
105,20,5,ISIP_5,120,1,48,59,2157833516
105,20,5,ISIP_5,121,1,48,60,2158355648
105,20,5,ISIP_5,122,1,48,75,2158848156
105,20,5,ISIP_5,123,1,48,62,2159345300
105,20,5,ISIP_5,124,1,48,71,2159809012
105,20,5,ISIP_5,125,1,48,78,2160345580
105,20,5,ISIP_5,126,1,48,47,2160839284
105,20,5,ISIP_5,127,1,48,59,2161355208
105,20,5,ISIP_5,128,1,48,68,2161833132
105,20,5,ISIP_5,129,1,48,67,2162320484
105,20,5,ISIP_5,130,1,48,68,2162817552
105,20,5,ISIP_5,131,1,48,62,2163296048
105,20,5,ISIP_5,132,1,48,65,2163836984
105,20,5,ISIP_5,133,1,48,68,2164319296
105,20,5,ISIP_5,134,1,48,76,2164796920
105,20,5,ISIP_5,135,1,48,67,2165309096
105,20,5,ISIP_5,136,1,48,64,2165814404
105,20,5,ISIP_5,137,1,48,67,2166331744
105,20,5,ISIP_5,138,1,48,76,2166816252
105,20,5,ISIP_5,139,1,48,69,2167341148
105,20,5,ISIP_5,140,1,48,65,2167821764
105,20,5,ISIP_5,141,1,48,72,2168346740
105,20,5,ISIP_5,142,1,48,63,2168841716
105,20,5,ISIP_5,143,1,48,69,2169384784
105,20,5,ISIP_5,144,1,48,70,2169920904
105,20,5,ISIP_5,145,1,48,70,2170457248
105,20,5,ISIP_5,146,1,48,70,2170968676
105,20,5,ISIP_5,147,1,48,72,2171487516
105,20,5,ISIP_5,148,1,48,69,2171981224
105,20,5,ISIP_5,149,1,48,71,2172488616
105,20,5,ISIP_5,150,1,48,72,2173002444
105,20,5,ISIP_5,151,1,48,70,2173486428
105,20,5,ISIP_5,152,1,48,65,2173992920
105,20,5,ISIP_5,153,1,48,65,2174513184
105,20,5,ISIP_5,154,1,48,62,2175004344
105,20,5,ISIP_5,155,1,48,62,2175524380
105,20,5,ISIP_5,156,1,48,66,2176061244
105,20,5,ISIP_5,157,1,48,64,2176565800
105,20,5,ISIP_5,158,1,48,56,2177071624
105,20,5,ISIP_5,159,1,48,60,2177584700
105,20,5,ISIP_5,160,1,48,67,2178073244
105,20,5,ISIP_5,161,1,48,71,2178585496
105,20,5,ISIP_5,162,1,48,54,2179095140
105,20,5,ISIP_5,163,1,48,65,2179580248
105,20,5,ISIP_5,164,1,48,79,2180070360
105,20,5,ISIP_5,165,1,48,66,2180564000
105,20,5,ISIP_5,166,1,48,69,2181059948
105,20,5,ISIP_5,167,1,48,76,2181580580
105,20,5,ISIP_5,168,1,48,72,2182074360
105,20,5,ISIP_5,169,1,48,69,2182582204
105,20,5,ISIP_5,170,1,48,69,2183075312
105,20,5,ISIP_5,171,1,48,71,2183575376
105,20,5,ISIP_5,172,1,48,56,2184091824
105,20,5,ISIP_5,173,1,48,68,2184589496
105,20,5,ISIP_5,174,1,48,64,2185087464
105,20,5,ISIP_5,175,1,48,67,2185562300
105,20,5,ISIP_5,176,1,48,73,2186066920
105,20,5,ISIP_5,177,1,48,72,2186568408
105,20,5,ISIP_5,178,1,48,69,2187088516
105,20,5,ISIP_5,179,1,48,73,2187583944
105,20,5,ISIP_5,180,1,48,67,2188068820
105,20,5,ISIP_5,181,1,48,69,2188564776
105,20,5,ISIP_5,182,1,48,61,2189070528
105,20,5,ISIP_5,183,1,48,67,2189561460
105,20,5,ISIP_5,184,1,48,68,2190043576
105,20,5,ISIP_5,185,1,48,65,2190540424
105,20,5,ISIP_5,186,1,48,70,2191024032
105,20,5,ISIP_5,187,1,48,67,2191554392
105,20,5,ISIP_5,188,1,48,69,2192029852
105,20,5,ISIP_5,189,1,48,66,2192539484
105,20,5,ISIP_5,190,1,48,64,2193052416
105,20,5,ISIP_5,191,1,48,56,2193537744
105,20,5,ISIP_5,192,1,48,69,2194044992
105,20,5,ISIP_5,193,1,48,73,2194571984
105,20,5,ISIP_5,194,1,48,68,2195072944
105,20,5,ISIP_5,195,1,48,65,2195590812
105,20,5,ISIP_5,196,1,48,73,2196058688
105,20,5,ISIP_5,197,1,48,65,2196553896
105,20,5,ISIP_5,198,1,48,62,2197076696
105,20,5,ISIP_5,199,1,48,72,2197578256
105,20,5,ISIP_5,200,1,48,70,2198081764
105,20,5,ISIP_5,0,9999,9999,9999,2118158396
105,20,5,ISIP_5,1,9999,9999,9999,2118658112
105,20,5,ISIP_5,2,9999,9999,9999,2119158872
105,20,5,ISIP_5,3,9999,9999,9999,2119658568
105,20,5,ISIP_5,4,9999,9999,9999,2120158264
105,20,5,ISIP_5,5,9999,9999,9999,2120659000
105,20,5,ISIP_5,6,9999,9999,9999,2121158768
105,20,5,ISIP_5,7,9999,9999,9999,2121658464
105,20,5,ISIP_5,8,9999,9999,9999,2122158160
105,20,5,ISIP_5,9,9999,9999,9999,2122658900
105,20,5,ISIP_5,10,9999,9999,9999,2123158592
105,20,5,ISIP_5,11,9999,9999,9999,2123658288
105,20,5,ISIP_5,12,9999,9999,9999,2124159028
105,20,5,ISIP_5,13,9999,9999,9999,2124658800
105,20,5,ISIP_5,14,9999,9999,9999,2125158468
105,20,5,ISIP_5,15,9999,9999,9999,2125658164
105,20,5,ISIP_5,16,9999,9999,9999,2126158904
105,20,5,ISIP_5,17,9999,9999,9999,2126658660
105,20,5,ISIP_5,18,9999,9999,9999,2127158352
105,20,5,ISIP_5,19,9999,9999,9999,2127659112
105,20,5,ISIP_5,20,9999,9999,9999,2128158804
105,20,5,ISIP_5,21,9999,9999,9999,2128658500
105,20,5,ISIP_5,22,9999,9999,9999,2129158196
105,20,5,ISIP_5,23,9999,9999,9999,2129658988
105,20,5,ISIP_5,24,9999,9999,9999,2130158684
105,20,5,ISIP_5,25,9999,9999,9999,2130658380
105,20,5,ISIP_5,26,9999,9999,9999,2131158072
105,20,5,ISIP_5,27,9999,9999,9999,2131658816
105,20,5,ISIP_5,28,9999,9999,9999,2132158512
105,20,5,ISIP_5,29,9999,9999,9999,2132658288
105,20,5,ISIP_5,30,9999,9999,9999,2133159028
105,20,5,ISIP_5,31,9999,9999,9999,2133658716
105,20,5,ISIP_5,32,9999,9999,9999,2134158420
105,20,5,ISIP_5,33,9999,9999,9999,2134658112
105,20,5,ISIP_5,34,9999,9999,9999,2135158852
105,20,5,ISIP_5,35,9999,9999,9999,2135658596
105,20,5,ISIP_5,36,9999,9999,9999,2136158292
105,20,5,ISIP_5,37,9999,9999,9999,2136659036
105,20,5,ISIP_5,38,9999,9999,9999,2137158728
105,20,5,ISIP_5,39,9999,9999,9999,2137658424
105,20,5,ISIP_5,40,9999,9999,9999,2138158192
105,20,5,ISIP_5,41,9999,9999,9999,2138658928
105,20,5,ISIP_5,42,9999,9999,9999,2139158620
105,20,5,ISIP_5,43,9999,9999,9999,2139658308
105,20,5,ISIP_5,44,9999,9999,9999,2140159044
105,20,5,ISIP_5,45,9999,9999,9999,2140658736
105,20,5,ISIP_5,46,9999,9999,9999,2141158480
105,20,5,ISIP_5,47,9999,9999,9999,2141658172
105,20,5,ISIP_5,48,9999,9999,9999,2142158908
105,20,5,ISIP_5,49,9999,9999,9999,2142658672
105,20,5,ISIP_5,50,9999,9999,9999,2143158364
105,20,5,ISIP_5,51,9999,9999,9999,2143659104
105,20,5,ISIP_5,52,9999,9999,9999,2144158792
105,20,5,ISIP_5,53,9999,9999,9999,2144658484
105,20,5,ISIP_5,54,9999,9999,9999,2145158248
105,20,5,ISIP_5,55,9999,9999,9999,2145658984
105,20,5,ISIP_5,56,9999,9999,9999,2146158652
105,20,5,ISIP_5,57,9999,9999,9999,2146658416
105,20,5,ISIP_5,58,9999,9999,9999,2147158108
105,20,5,ISIP_5,59,9999,9999,9999,2147658844
105,20,5,ISIP_5,60,9999,9999,9999,2148158536
105,20,5,ISIP_5,61,9999,9999,9999,2148658228
105,20,5,ISIP_5,62,9999,9999,9999,2149158964
105,20,5,ISIP_5,63,9999,9999,9999,2149658732
105,20,5,ISIP_5,64,9999,9999,9999,2150158424
105,20,5,ISIP_5,65,9999,9999,9999,2150658116
105,20,5,ISIP_5,66,9999,9999,9999,2151158852
105,20,5,ISIP_5,67,9999,9999,9999,2151658616
105,20,5,ISIP_5,68,9999,9999,9999,2152158308
105,20,5,ISIP_5,69,9999,9999,9999,2152659044
105,20,5,ISIP_5,70,9999,9999,9999,2153158736
105,20,5,ISIP_5,71,9999,9999,9999,2153658428
105,20,5,ISIP_5,72,9999,9999,9999,2154158172
105,20,5,ISIP_5,73,9999,9999,9999,2154658908
105,20,5,ISIP_5,74,9999,9999,9999,2155158596
105,20,5,ISIP_5,75,9999,9999,9999,2155658288
105,20,5,ISIP_5,76,9999,9999,9999,2156159024
105,20,5,ISIP_5,77,9999,9999,9999,2156658792
105,20,5,ISIP_5,78,9999,9999,9999,2157158456
105,20,5,ISIP_5,79,9999,9999,9999,2157658220
105,20,5,ISIP_5,80,9999,9999,9999,2158158960
105,20,5,ISIP_5,81,9999,9999,9999,2158658648
105,20,5,ISIP_5,82,9999,9999,9999,2159158340
105,20,5,ISIP_5,83,9999,9999,9999,2159659080
105,20,5,ISIP_5,84,9999,9999,9999,2160158768
105,20,5,ISIP_5,85,9999,9999,9999,2160658532
105,20,5,ISIP_5,86,9999,9999,9999,2161158224
105,20,5,ISIP_5,87,9999,9999,9999,2161658960
105,20,5,ISIP_5,88,9999,9999,9999,2162158652
105,20,5,ISIP_5,89,9999,9999,9999,2162658416
105,20,5,ISIP_5,90,9999,9999,9999,2163158108
105,20,5,ISIP_5,91,9999,9999,9999,2163658844
105,20,5,ISIP_5,92,9999,9999,9999,2164158536
105,20,5,ISIP_5,93,9999,9999,9999,2164658228
105,20,5,ISIP_5,94,9999,9999,9999,2165158964
105,20,5,ISIP_5,95,9999,9999,9999,2165658728
105,20,5,ISIP_5,96,9999,9999,9999,2166158420
105,20,5,ISIP_5,97,9999,9999,9999,2166658112
105,20,5,ISIP_5,98,9999,9999,9999,2167158848
105,20,5,ISIP_5,99,9999,9999,9999,2167658588
105,20,5,ISIP_5,100,9999,9999,9999,2168158276
105,20,5,ISIP_5,101,9999,9999,9999,2168659016
105,20,5,ISIP_5,102,9999,9999,9999,2169158708
105,20,5,ISIP_5,103,9999,9999,9999,2169658472
105,20,5,ISIP_5,104,9999,9999,9999,2170158160
105,20,5,ISIP_5,105,9999,9999,9999,2170658900
105,20,5,ISIP_5,106,9999,9999,9999,2171158588
105,20,5,ISIP_5,107,9999,9999,9999,2171658352
105,20,5,ISIP_5,108,9999,9999,9999,2172159092
105,20,5,ISIP_5,109,9999,9999,9999,2172658780
105,20,5,ISIP_5,110,9999,9999,9999,2173158472
105,20,5,ISIP_5,111,9999,9999,9999,2173658160
105,20,5,ISIP_5,112,9999,9999,9999,2174158900
105,20,5,ISIP_5,113,9999,9999,9999,2174658664
105,20,5,ISIP_5,114,9999,9999,9999,2175158356
105,20,5,ISIP_5,115,9999,9999,9999,2175659092
105,20,5,ISIP_5,116,9999,9999,9999,2176158780
105,20,5,ISIP_5,117,9999,9999,9999,2176658548
105,20,5,ISIP_5,118,9999,9999,9999,2177158252
105,20,5,ISIP_5,119,9999,9999,9999,2177658988
105,20,5,ISIP_5,120,9999,9999,9999,2178158656
105,20,5,ISIP_5,121,9999,9999,9999,2178658420
105,20,5,ISIP_5,122,9999,9999,9999,2179158112
105,20,5,ISIP_5,123,9999,9999,9999,2179658848
105,20,5,ISIP_5,124,9999,9999,9999,2180158540
105,20,5,ISIP_5,125,9999,9999,9999,2180658292
105,20,5,ISIP_5,126,9999,9999,9999,2181159028
105,20,5,ISIP_5,127,9999,9999,9999,2181658736
105,20,5,ISIP_5,128,9999,9999,9999,2182158424
105,20,5,ISIP_5,129,9999,9999,9999,2182658116
105,20,5,ISIP_5,130,9999,9999,9999,2183158852
105,20,5,ISIP_5,131,9999,9999,9999,2183658544
105,20,5,ISIP_5,132,9999,9999,9999,2184158308
105,20,5,ISIP_5,133,9999,9999,9999,2184659048
105,20,5,ISIP_5,134,9999,9999,9999,2185158740
105,20,5,ISIP_5,135,9999,9999,9999,2185658488
105,20,5,ISIP_5,136,9999,9999,9999,2186158136
105,20,5,ISIP_5,137,9999,9999,9999,2186658948
105,20,5,ISIP_5,138,9999,9999,9999,2187158620
105,20,5,ISIP_5,139,9999,9999,9999,2187658308
105,20,5,ISIP_5,140,9999,9999,9999,2188159044
105,20,5,ISIP_5,141,9999,9999,9999,2188658736
105,20,5,ISIP_5,142,9999,9999,9999,2189158476
105,20,5,ISIP_5,143,9999,9999,9999,2189658224
105,20,5,ISIP_5,144,9999,9999,9999,2190158964
105,20,5,ISIP_5,145,9999,9999,9999,2190658656
105,20,5,ISIP_5,146,9999,9999,9999,2191158348
105,20,5,ISIP_5,147,9999,9999,9999,2191659084
105,20,5,ISIP_5,148,9999,9999,9999,2192158772
105,20,5,ISIP_5,149,9999,9999,9999,2192658540
105,20,5,ISIP_5,150,9999,9999,9999,2193158232
105,20,5,ISIP_5,151,9999,9999,9999,2193658968
105,20,5,ISIP_5,152,9999,9999,9999,2194158660
105,20,5,ISIP_5,153,9999,9999,9999,2194658364
105,20,5,ISIP_5,154,9999,9999,9999,2195158132
105,20,5,ISIP_5,155,9999,9999,9999,2195658872
105,20,5,ISIP_5,156,9999,9999,9999,2196158544
105,20,5,ISIP_5,157,9999,9999,9999,2196658236
105,20,5,ISIP_5,158,9999,9999,9999,2197158988
105,20,5,ISIP_5,159,9999,9999,9999,2197658680
105,21,3,ISIP_8,0,5,42,127,2225390864
105,21,3,ISIP_8,1,5,42,127,2226190844
105,21,3,ISIP_8,2,5,42,127,2226990600
105,21,3,ISIP_8,3,1,48,58,2227782608
105,21,3,ISIP_8,4,5,42,127,2227791244
105,21,3,ISIP_8,5,1,48,67,2228533500
105,21,3,ISIP_8,6,5,42,127,2228590928
105,21,3,ISIP_8,7,1,48,70,2229311388
105,21,3,ISIP_8,8,5,42,127,2229390660
105,21,3,ISIP_8,9,1,48,66,2230154904
105,21,3,ISIP_8,10,5,42,127,2230190616
105,21,3,ISIP_8,11,1,48,56,2230973712
105,21,3,ISIP_8,12,5,42,127,2230991172
105,21,3,ISIP_8,13,1,48,47,2231754900
105,21,3,ISIP_8,14,5,42,127,2231790980
105,21,3,ISIP_8,15,1,48,50,2232536604
105,21,3,ISIP_8,16,5,42,127,2232590716
105,21,3,ISIP_8,17,1,48,54,2233342248
105,21,3,ISIP_8,18,5,42,127,2233390376
105,21,3,ISIP_8,19,1,48,48,2234141156
105,21,3,ISIP_8,20,5,42,127,2234191080
105,21,3,ISIP_8,21,1,48,50,2234956448
105,21,3,ISIP_8,22,5,42,127,2234990912
105,21,3,ISIP_8,23,1,48,54,2235784780
105,21,3,ISIP_8,24,5,42,127,2235790720
105,21,3,ISIP_8,25,5,42,127,2236590608
105,21,3,ISIP_8,26,1,48,66,2236593580
105,21,3,ISIP_8,27,5,42,127,2237391244
105,21,3,ISIP_8,28,1,48,46,2237444328
105,21,3,ISIP_8,29,1,48,45,2238157424
105,21,3,ISIP_8,30,5,42,127,2238190896
105,21,3,ISIP_8,31,1,48,54,2238944068
105,21,3,ISIP_8,32,5,42,127,2238990628
105,21,3,ISIP_8,33,1,48,54,2239777760
105,21,3,ISIP_8,34,5,42,127,2239790588
105,21,3,ISIP_8,35,1,48,54,2240559092
105,21,3,ISIP_8,36,5,42,127,2240591068
105,21,3,ISIP_8,37,5,42,127,2241391056
105,21,3,ISIP_8,38,1,48,52,2241414820
105,21,3,ISIP_8,39,1,48,46,2242142336
105,21,3,ISIP_8,40,5,42,127,2242190784
105,21,3,ISIP_8,41,1,48,58,2242967672
105,21,3,ISIP_8,42,5,42,127,2242990592
105,21,3,ISIP_8,43,5,42,127,2243791156
105,21,3,ISIP_8,44,1,48,57,2243792048
105,21,3,ISIP_8,45,5,42,127,2244590816
105,21,3,ISIP_8,46,1,48,54,2244607100
105,21,3,ISIP_8,47,5,42,127,2245390772
105,21,3,ISIP_8,48,1,48,53,2245476020
105,21,3,ISIP_8,49,1,48,56,2246177748
105,21,3,ISIP_8,50,5,42,127,2246190572
105,21,3,ISIP_8,51,5,42,127,2246991060
105,21,3,ISIP_8,52,1,48,49,2247002104
105,21,3,ISIP_8,53,1,48,50,2247785968
105,21,3,ISIP_8,54,5,42,127,2247790812
105,21,3,ISIP_8,55,1,48,58,2248586920
105,21,3,ISIP_8,56,5,42,127,2248590768
105,21,3,ISIP_8,57,1,48,53,2249406568
105,21,3,ISIP_8,58,1,48,62,2250171576
105,21,3,ISIP_8,59,1,48,69,2250908468
105,21,3,ISIP_8,60,1,48,54,2251673492
105,21,3,ISIP_8,61,1,48,43,2252492520
105,21,3,ISIP_8,62,1,48,38,2253279688
105,21,3,ISIP_8,63,1,48,54,2254032516
105,21,3,ISIP_8,64,1,48,43,2254812576
105,21,3,ISIP_8,65,1,48,55,2255649476
105,21,3,ISIP_8,66,1,48,58,2256395952
105,21,3,ISIP_8,67,1,48,58,2257167180
105,21,3,ISIP_8,68,1,48,56,2257934600
105,21,3,ISIP_8,69,1,48,44,2258734896
105,21,3,ISIP_8,70,1,48,51,2259540536
105,21,3,ISIP_8,71,1,48,55,2260288132
105,21,3,ISIP_8,72,1,48,53,2261083896
105,21,3,ISIP_8,73,1,48,53,2261903020
105,21,3,ISIP_8,74,1,48,51,2262686824
105,21,3,ISIP_8,75,1,48,46,2263483484
105,21,3,ISIP_8,76,1,48,48,2264272968
105,21,3,ISIP_8,77,1,48,62,2265045020
105,21,3,ISIP_8,78,1,48,54,2265880128
105,21,3,ISIP_8,79,1,48,62,2266634532
105,21,3,ISIP_8,80,1,48,56,2267383324
105,21,3,ISIP_8,81,1,48,61,2268138624
105,21,3,ISIP_8,82,1,48,70,2268889880
105,21,3,ISIP_8,83,1,48,54,2269645776
105,21,3,ISIP_8,84,1,48,70,2270380880
105,21,3,ISIP_8,85,1,48,70,2271201632
105,21,3,ISIP_8,86,1,48,67,2271983480
105,21,3,ISIP_8,87,1,48,59,2272721580
105,21,3,ISIP_8,88,1,48,50,2273509188
105,21,3,ISIP_8,89,1,48,62,2274249084
105,21,3,ISIP_8,90,1,48,68,2275010140
105,21,3,ISIP_8,91,1,48,75,2275775148
105,21,3,ISIP_8,92,1,48,63,2276558424
105,21,3,ISIP_8,93,1,48,70,2277298244
105,21,3,ISIP_8,94,1,48,68,2278090712
105,21,3,ISIP_8,95,1,48,68,2278855740
105,21,3,ISIP_8,96,1,48,61,2279649032
105,21,3,ISIP_8,97,1,48,54,2280403140
105,21,3,ISIP_8,98,1,48,57,2281201592
105,21,3,ISIP_8,99,1,48,57,2281947396
105,21,3,ISIP_8,100,1,48,45,2282712420
105,21,3,ISIP_8,101,1,48,66,2283506236
105,21,3,ISIP_8,102,1,48,73,2284265876
105,21,3,ISIP_8,103,1,48,75,2285029404
105,21,3,ISIP_8,104,1,48,70,2285833844
105,21,3,ISIP_8,105,1,48,69,2286584356
105,21,3,ISIP_8,106,1,48,62,2287356336
105,21,3,ISIP_8,107,1,48,74,2288153148
105,21,3,ISIP_8,108,1,48,67,2288886832
105,21,3,ISIP_8,109,1,48,70,2289710420
105,21,3,ISIP_8,110,1,48,68,2290413360
105,21,3,ISIP_8,111,1,48,67,2291188184
105,21,3,ISIP_8,112,1,48,67,2291930692
105,21,3,ISIP_8,113,1,48,46,2292641336
105,21,3,ISIP_8,114,1,48,62,2293423492
105,21,3,ISIP_8,115,1,48,64,2294155592
105,21,3,ISIP_8,116,1,48,73,2294913656
105,21,3,ISIP_8,117,1,48,83,2295617544
105,21,3,ISIP_8,118,1,48,69,2296402760
105,21,3,ISIP_8,119,1,48,79,2297164196
105,21,3,ISIP_8,120,1,48,74,2297855912
105,21,3,ISIP_8,121,1,48,59,2298639112
105,21,3,ISIP_8,122,1,48,65,2299298224
105,21,3,ISIP_8,123,1,48,76,2300060328
105,21,3,ISIP_8,124,1,48,81,2300807024
105,21,3,ISIP_8,125,1,48,69,2301489744
105,21,3,ISIP_8,126,1,48,67,2302199868
105,21,3,ISIP_8,127,1,48,67,2302975200
105,21,3,ISIP_8,128,1,48,14,2303132436
105,21,3,ISIP_8,129,1,48,65,2303663080
105,21,3,ISIP_8,130,1,48,71,2304427656
105,21,3,ISIP_8,131,1,48,52,2305140920
105,21,3,ISIP_8,132,1,48,83,2305898064
105,21,3,ISIP_8,133,1,48,68,2306653488
105,21,3,ISIP_8,134,1,48,61,2307329504
105,21,3,ISIP_8,135,1,48,68,2308087788
105,21,3,ISIP_8,136,1,48,73,2308808532
105,21,3,ISIP_8,137,1,48,69,2309573332
105,21,3,ISIP_8,138,1,48,83,2310250392
105,21,3,ISIP_8,139,1,48,67,2311065984
105,21,3,ISIP_8,140,1,48,71,2311801308
105,21,3,ISIP_8,141,1,48,79,2312489848
105,21,3,ISIP_8,142,1,48,60,2313236624
105,21,3,ISIP_8,143,1,48,69,2313946296
105,21,3,ISIP_8,144,1,48,71,2314662848
105,21,3,ISIP_8,145,1,48,57,2315434824
105,21,3,ISIP_8,146,1,48,78,2316170152
105,21,3,ISIP_8,147,1,48,69,2316871052
105,21,3,ISIP_8,148,1,48,75,2317640632
105,21,3,ISIP_8,149,1,48,86,2318362424
105,21,3,ISIP_8,150,1,48,59,2319118920
105,21,3,ISIP_8,151,1,48,58,2319819320
105,21,3,ISIP_8,152,1,48,63,2320559496
105,21,3,ISIP_8,153,1,48,63,2321244316
105,21,3,ISIP_8,154,1,48,78,2321974852
105,21,3,ISIP_8,155,1,48,89,2322748928
105,21,3,ISIP_8,156,1,48,58,2323458596
105,21,3,ISIP_8,157,1,48,59,2324142168
105,21,3,ISIP_8,158,1,48,73,2324863584
105,21,3,ISIP_8,159,1,48,72,2325595596
105,21,3,ISIP_8,160,1,48,75,2326326364
105,21,3,ISIP_8,161,1,48,61,2327062284
105,21,3,ISIP_8,162,1,48,79,2327717268
105,21,3,ISIP_8,163,1,48,74,2328393700
105,21,3,ISIP_8,164,1,48,75,2329183636
105,21,3,ISIP_8,165,1,48,67,2329813944
105,21,3,ISIP_8,166,1,48,57,2330490480
105,21,3,ISIP_8,167,1,48,65,2331177912
105,21,3,ISIP_8,168,1,48,81,2331906364
105,21,3,ISIP_8,169,1,48,74,2332568900
105,21,3,ISIP_8,170,1,48,86,2333212424
105,21,3,ISIP_8,171,1,48,59,2333951192
105,21,3,ISIP_8,172,1,48,54,2334636184
105,21,3,ISIP_8,173,1,48,69,2335378768
105,21,3,ISIP_8,174,1,48,60,2336061936
105,21,3,ISIP_8,175,1,48,86,2336753208
105,21,3,ISIP_8,176,1,48,75,2337441940
105,21,3,ISIP_8,177,1,48,67,2338200828
105,21,3,ISIP_8,178,1,48,64,2338852268
105,21,3,ISIP_8,179,1,48,71,2339558724
105,21,3,ISIP_8,180,1,48,80,2340281332
105,21,3,ISIP_8,181,1,48,68,2341057276
105,21,3,ISIP_8,182,1,48,57,2341833000
105,21,3,ISIP_8,183,1,48,61,2342604232
105,21,3,ISIP_8,184,1,48,60,2343328412
105,21,3,ISIP_8,185,1,48,65,2344105700
105,21,3,ISIP_8,186,1,48,60,2344830484
105,21,3,ISIP_8,0,9999,9999,9999,2225388652
105,21,3,ISIP_8,1,9999,9999,9999,2226188408
105,21,3,ISIP_8,2,9999,9999,9999,2226988088
105,21,3,ISIP_8,3,9999,9999,9999,2227788880
105,21,3,ISIP_8,4,9999,9999,9999,2228588612
105,21,3,ISIP_8,5,9999,9999,9999,2229388372
105,21,3,ISIP_8,6,9999,9999,9999,2230188104
105,21,3,ISIP_8,7,9999,9999,9999,2230988884
105,21,3,ISIP_8,8,9999,9999,9999,2231788620
105,21,3,ISIP_8,9,9999,9999,9999,2232588352
105,21,3,ISIP_8,10,9999,9999,9999,2233388088
105,21,3,ISIP_8,11,9999,9999,9999,2234188868
105,21,3,ISIP_8,12,9999,9999,9999,2234988600
105,21,3,ISIP_8,13,9999,9999,9999,2235788356
105,21,3,ISIP_8,14,9999,9999,9999,2236588096
105,21,3,ISIP_8,15,9999,9999,9999,2237388880
105,21,3,ISIP_8,16,9999,9999,9999,2238188604
105,21,3,ISIP_8,17,9999,9999,9999,2238988340
105,21,3,ISIP_8,18,9999,9999,9999,2239788148
105,21,3,ISIP_8,19,9999,9999,9999,2240588856
105,21,3,ISIP_8,20,9999,9999,9999,2241388620
105,21,3,ISIP_8,21,9999,9999,9999,2242188348
105,21,3,ISIP_8,22,9999,9999,9999,2242988080
105,21,3,ISIP_8,23,9999,9999,9999,2243788868
105,21,3,ISIP_8,24,9999,9999,9999,2244588600
105,21,3,ISIP_8,25,9999,9999,9999,2245388336
105,21,3,ISIP_8,26,9999,9999,9999,2246188136
105,21,3,ISIP_8,27,9999,9999,9999,2246988844
105,21,3,ISIP_8,28,9999,9999,9999,2247788596
105,21,3,ISIP_8,29,9999,9999,9999,2248588404
105,21,3,ISIP_8,30,9999,9999,9999,2249388144
105,21,3,ISIP_8,31,9999,9999,9999,2250188916
105,21,3,ISIP_8,32,9999,9999,9999,2250988644
105,21,3,ISIP_8,33,9999,9999,9999,2251788356
105,21,3,ISIP_8,34,9999,9999,9999,2252588088
105,21,3,ISIP_8,35,9999,9999,9999,2253388864
105,21,3,ISIP_8,36,9999,9999,9999,2254188620
105,21,3,ISIP_8,37,9999,9999,9999,2254988348
105,21,3,ISIP_8,38,9999,9999,9999,2255788152
105,21,3,ISIP_8,39,9999,9999,9999,2256588852
105,21,3,ISIP_8,40,9999,9999,9999,2257388656
105,21,3,ISIP_8,41,9999,9999,9999,2258188360
105,21,3,ISIP_8,42,9999,9999,9999,2258988088
105,21,3,ISIP_8,43,9999,9999,9999,2259788864
105,21,3,ISIP_8,44,9999,9999,9999,2260588616
105,21,3,ISIP_8,45,9999,9999,9999,2261388348
105,21,3,ISIP_8,46,9999,9999,9999,2262188148
105,21,3,ISIP_8,47,9999,9999,9999,2262988852
105,21,3,ISIP_8,48,9999,9999,9999,2263788656
105,21,3,ISIP_8,49,9999,9999,9999,2264588384
105,21,3,ISIP_8,50,9999,9999,9999,2265388116
105,21,3,ISIP_8,51,9999,9999,9999,2266188892
105,21,3,ISIP_8,52,9999,9999,9999,2266988644
105,21,3,ISIP_8,53,9999,9999,9999,2267788376
105,21,3,ISIP_8,54,9999,9999,9999,2268588104
105,21,3,ISIP_8,55,9999,9999,9999,2269388880
105,21,3,ISIP_8,56,9999,9999,9999,2270188612
105,21,3,ISIP_8,57,9999,9999,9999,2270988340
105,21,3,ISIP_8,58,9999,9999,9999,2271788144
105,21,3,ISIP_8,59,9999,9999,9999,2272588920
105,21,3,ISIP_8,60,9999,9999,9999,2273388600
105,21,3,ISIP_8,61,9999,9999,9999,2274188404
105,21,3,ISIP_8,62,9999,9999,9999,2274988132
105,21,3,ISIP_8,63,9999,9999,9999,2275788900
105,21,3,ISIP_8,64,9999,9999,9999,2276588632
105,21,3,ISIP_8,65,9999,9999,9999,2277388360
105,21,3,ISIP_8,66,9999,9999,9999,2278188148
105,21,3,ISIP_8,67,9999,9999,9999,2278988852
105,21,3,ISIP_8,68,9999,9999,9999,2279788604
105,21,3,ISIP_8,69,9999,9999,9999,2280588336
105,21,3,ISIP_8,70,9999,9999,9999,2281388140
105,21,3,ISIP_8,71,9999,9999,9999,2282188916
105,21,3,ISIP_8,72,9999,9999,9999,2282988644
105,21,3,ISIP_8,73,9999,9999,9999,2283788372
105,21,3,ISIP_8,74,9999,9999,9999,2284588100
105,21,3,ISIP_8,75,9999,9999,9999,2285388880
105,21,3,ISIP_8,76,9999,9999,9999,2286188636
105,21,3,ISIP_8,77,9999,9999,9999,2286988364
105,21,3,ISIP_8,78,9999,9999,9999,2287788092
105,21,3,ISIP_8,79,9999,9999,9999,2288588868
105,21,3,ISIP_8,80,9999,9999,9999,2289388596
105,21,3,ISIP_8,81,9999,9999,9999,2290188404
105,21,3,ISIP_8,82,9999,9999,9999,2290988132
105,21,3,ISIP_8,83,9999,9999,9999,2291788908
105,21,3,ISIP_8,84,9999,9999,9999,2292588660
105,21,3,ISIP_8,85,9999,9999,9999,2293388392
105,21,3,ISIP_8,86,9999,9999,9999,2294188116
105,21,3,ISIP_8,87,9999,9999,9999,2294988892
105,21,3,ISIP_8,88,9999,9999,9999,2295788604
105,21,3,ISIP_8,89,9999,9999,9999,2296588408
105,21,3,ISIP_8,90,9999,9999,9999,2297388136
105,21,3,ISIP_8,91,9999,9999,9999,2298188912
105,21,3,ISIP_8,92,9999,9999,9999,2298988592
105,21,3,ISIP_8,93,9999,9999,9999,2299788396
105,21,3,ISIP_8,94,9999,9999,9999,2300588124
105,21,3,ISIP_8,95,9999,9999,9999,2301388900
105,21,3,ISIP_8,96,9999,9999,9999,2302188628
105,21,3,ISIP_8,97,9999,9999,9999,2302988352
105,21,3,ISIP_8,98,9999,9999,9999,2303788120
105,21,3,ISIP_8,99,9999,9999,9999,2304588892
105,21,3,ISIP_8,100,9999,9999,9999,2305388648
105,21,3,ISIP_8,101,9999,9999,9999,2306188352
105,21,3,ISIP_8,102,9999,9999,9999,2306988080
105,21,3,ISIP_8,103,9999,9999,9999,2307788860
105,21,3,ISIP_8,104,9999,9999,9999,2308588660
105,21,3,ISIP_8,105,9999,9999,9999,2309388392
105,21,3,ISIP_8,106,9999,9999,9999,2310188120
105,21,3,ISIP_8,107,9999,9999,9999,2310988896
105,21,3,ISIP_8,108,9999,9999,9999,2311788652
105,21,3,ISIP_8,109,9999,9999,9999,2312588372
105,21,3,ISIP_8,110,9999,9999,9999,2313388084
105,21,3,ISIP_8,111,9999,9999,9999,2314188860
105,21,3,ISIP_8,112,9999,9999,9999,2314988588
105,21,3,ISIP_8,113,9999,9999,9999,2315788392
105,21,3,ISIP_8,114,9999,9999,9999,2316588124
105,21,3,ISIP_8,115,9999,9999,9999,2317388900
105,21,3,ISIP_8,116,9999,9999,9999,2318188652
105,21,3,ISIP_8,117,9999,9999,9999,2318988384
105,21,3,ISIP_8,118,9999,9999,9999,2319788112
105,21,3,ISIP_8,119,9999,9999,9999,2320588880
105,21,3,ISIP_8,120,9999,9999,9999,2321388596
105,21,3,ISIP_8,121,9999,9999,9999,2322188400
105,21,3,ISIP_8,122,9999,9999,9999,2322988128
105,21,3,ISIP_8,123,9999,9999,9999,2323788904
105,21,3,ISIP_8,124,9999,9999,9999,2324588656
105,21,3,ISIP_8,125,9999,9999,9999,2325388388
105,21,3,ISIP_8,126,9999,9999,9999,2326188116
105,21,3,ISIP_8,127,9999,9999,9999,2326988892
105,21,3,ISIP_8,128,9999,9999,9999,2327788612
105,21,3,ISIP_8,129,9999,9999,9999,2328588400
105,21,3,ISIP_8,130,9999,9999,9999,2329388128
105,21,3,ISIP_8,131,9999,9999,9999,2330188904
105,21,3,ISIP_8,132,9999,9999,9999,2330988660
105,21,3,ISIP_8,133,9999,9999,9999,2331788388
105,21,3,ISIP_8,134,9999,9999,9999,2332588108
105,21,3,ISIP_8,135,9999,9999,9999,2333388868
105,21,3,ISIP_8,136,9999,9999,9999,2334188600
105,21,3,ISIP_8,137,9999,9999,9999,2334988400
105,21,3,ISIP_8,138,9999,9999,9999,2335788132
105,21,3,ISIP_8,139,9999,9999,9999,2336588908
105,21,3,ISIP_8,140,9999,9999,9999,2337388660
105,21,3,ISIP_8,141,9999,9999,9999,2338188392
105,21,3,ISIP_8,142,9999,9999,9999,2338988096
105,21,3,ISIP_8,143,9999,9999,9999,2339788872
105,21,3,ISIP_8,144,9999,9999,9999,2340588604
105,21,3,ISIP_8,145,9999,9999,9999,2341388408
105,21,3,ISIP_8,146,9999,9999,9999,2342188136
105,21,3,ISIP_8,147,9999,9999,9999,2342988912
105,21,3,ISIP_8,148,9999,9999,9999,2343788592
105,21,3,ISIP_8,149,9999,9999,9999,2344588396
105,22,11,Pattern_Practice,0,5,42,127,2487142668
105,22,11,Pattern_Practice,1,5,42,127,2487642508
105,22,11,Pattern_Practice,2,5,42,127,2488143196
105,22,11,Pattern_Practice,3,5,42,127,2488642912
105,22,11,Pattern_Practice,4,1,48,46,2488739700
105,22,11,Pattern_Practice,5,5,42,127,2489142608
105,22,11,Pattern_Practice,6,1,38,64,2489194216
105,22,11,Pattern_Practice,7,5,42,127,2489643572
105,22,11,Pattern_Practice,8,1,48,59,2489726152
105,22,11,Pattern_Practice,9,5,42,127,2490143044
105,22,11,Pattern_Practice,10,1,38,52,2490270276
105,22,11,Pattern_Practice,11,5,42,127,2490642664
105,22,11,Pattern_Practice,12,1,48,67,2490840508
105,22,11,Pattern_Practice,13,1,38,30,2491098932
105,22,11,Pattern_Practice,14,1,48,13,2491111636
105,22,11,Pattern_Practice,15,5,42,127,2491142484
105,22,11,Pattern_Practice,16,1,48,60,2491351872
105,22,11,Pattern_Practice,17,1,38,28,2491587040
105,22,11,Pattern_Practice,18,1,48,14,2491599584
105,22,11,Pattern_Practice,19,5,42,127,2491643156
105,22,11,Pattern_Practice,20,1,48,46,2492036276
105,22,11,Pattern_Practice,21,5,42,127,2492142880
105,22,11,Pattern_Practice,22,1,48,54,2492343936
105,22,11,Pattern_Practice,23,5,42,127,2492642652
105,22,11,Pattern_Practice,24,1,48,42,2492753772
105,22,11,Pattern_Practice,25,1,38,30,2493091808
105,22,11,Pattern_Practice,26,1,48,14,2493104732
105,22,11,Pattern_Practice,27,5,42,127,2493143660
105,22,11,Pattern_Practice,28,1,48,37,2493525168
105,22,11,Pattern_Practice,29,5,42,127,2493643092
105,22,11,Pattern_Practice,30,1,38,31,2493964352
105,22,11,Pattern_Practice,31,1,48,14,2493976820
105,22,11,Pattern_Practice,32,5,42,127,2494142736
105,22,11,Pattern_Practice,33,1,48,60,2494395180
105,22,11,Pattern_Practice,34,5,42,127,2494642508
105,22,11,Pattern_Practice,35,1,38,33,2494822476
105,22,11,Pattern_Practice,36,1,48,48,2495061876
105,22,11,Pattern_Practice,37,5,42,127,2495143612
105,22,11,Pattern_Practice,38,5,42,127,2495642944
105,22,11,Pattern_Practice,39,1,38,36,2495689292
105,22,11,Pattern_Practice,40,1,48,73,2496137364
105,22,11,Pattern_Practice,41,5,42,127,2496142632
105,22,11,Pattern_Practice,42,1,38,38,2496611556
105,22,11,Pattern_Practice,43,5,42,127,2496642552
105,22,11,Pattern_Practice,44,1,48,67,2497102172
105,22,11,Pattern_Practice,45,5,42,127,2497143144
105,22,11,Pattern_Practice,46,1,38,30,2497568504
105,22,11,Pattern_Practice,47,5,42,127,2497642764
105,22,11,Pattern_Practice,48,1,48,78,2498061320
105,22,11,Pattern_Practice,49,5,42,127,2498142508
105,22,11,Pattern_Practice,50,1,48,59,2498540596
105,22,11,Pattern_Practice,51,5,42,127,2498643604
105,22,11,Pattern_Practice,52,1,38,37,2498762240
105,22,11,Pattern_Practice,53,1,48,17,2498774784
105,22,11,Pattern_Practice,54,1,48,94,2499050388
105,22,11,Pattern_Practice,55,5,42,127,2499144128
105,22,11,Pattern_Practice,56,1,48,45,2499529140
105,22,11,Pattern_Practice,57,5,42,127,2499642852
105,22,11,Pattern_Practice,58,1,38,43,2499971764
105,22,11,Pattern_Practice,59,5,42,127,2500142548
105,22,11,Pattern_Practice,60,1,48,73,2500437252
105,22,11,Pattern_Practice,61,1,48,39,2500483556
105,22,11,Pattern_Practice,62,5,42,127,2500643120
105,22,11,Pattern_Practice,63,1,48,67,2500890476
105,22,11,Pattern_Practice,64,5,42,127,2501142888
105,22,11,Pattern_Practice,65,1,38,58,2501336016
105,22,11,Pattern_Practice,66,1,48,61,2501596692
105,22,11,Pattern_Practice,67,5,42,127,2501642800
105,22,11,Pattern_Practice,68,1,38,38,2501796644
105,22,11,Pattern_Practice,69,5,42,127,2502143300
105,22,11,Pattern_Practice,70,1,48,94,2502257368
105,22,11,Pattern_Practice,71,5,42,127,2502643068
105,22,11,Pattern_Practice,72,1,48,53,2502734744
105,22,11,Pattern_Practice,73,5,42,127,2503142764
105,22,11,Pattern_Practice,74,1,38,62,2503189188
105,22,11,Pattern_Practice,75,1,48,39,2503404236
105,22,11,Pattern_Practice,76,1,38,14,2503416864
105,22,11,Pattern_Practice,77,1,38,38,2503602188
105,22,11,Pattern_Practice,78,5,42,127,2503642684
105,22,11,Pattern_Practice,79,1,48,50,2504050416
105,22,11,Pattern_Practice,80,1,38,15,2504063264
105,22,11,Pattern_Practice,81,5,42,127,2504143184
105,22,11,Pattern_Practice,82,1,48,97,2504519764
105,22,11,Pattern_Practice,83,5,42,127,2504642848
105,22,11,Pattern_Practice,84,1,38,38,2504967020
105,22,11,Pattern_Practice,85,5,42,127,2505142616
105,22,11,Pattern_Practice,86,1,48,81,2505203476
105,22,11,Pattern_Practice,87,1,38,40,2505380676
105,22,11,Pattern_Practice,88,5,42,127,2505643488
105,22,11,Pattern_Practice,89,1,38,54,2505827044
105,22,11,Pattern_Practice,90,5,42,127,2506143032
105,22,11,Pattern_Practice,91,1,48,64,2506290588
105,22,11,Pattern_Practice,92,5,42,127,2506642728
105,22,11,Pattern_Practice,93,1,48,54,2506752952
105,22,11,Pattern_Practice,94,1,48,73,2507014232
105,22,11,Pattern_Practice,95,5,42,127,2507142700
105,22,11,Pattern_Practice,96,1,38,51,2507212760
105,22,11,Pattern_Practice,97,1,48,18,2507225460
105,22,11,Pattern_Practice,98,5,42,127,2507643168
105,22,11,Pattern_Practice,99,1,48,54,2507653244
105,22,11,Pattern_Practice,100,1,38,40,2508063812
105,22,11,Pattern_Practice,101,5,42,127,2508143080
105,22,11,Pattern_Practice,102,1,48,59,2508535156
105,22,11,Pattern_Practice,103,5,42,127,2508642760
105,22,11,Pattern_Practice,104,1,38,43,2508940080
105,22,11,Pattern_Practice,105,1,48,18,2508953152
105,22,11,Pattern_Practice,106,5,42,127,2509143504
105,22,11,Pattern_Practice,107,1,48,54,2509426344
105,22,11,Pattern_Practice,108,5,42,127,2509642976
105,22,11,Pattern_Practice,109,1,38,45,2509836780
105,22,11,Pattern_Practice,110,5,42,127,2510142820
105,22,11,Pattern_Practice,111,1,48,80,2510341788
105,22,11,Pattern_Practice,112,5,42,127,2510642516
105,22,11,Pattern_Practice,113,1,38,45,2510769600
105,22,11,Pattern_Practice,114,5,42,127,2511143408
105,22,11,Pattern_Practice,115,1,48,90,2511243640
105,22,11,Pattern_Practice,116,5,42,127,2511642952
105,22,11,Pattern_Practice,117,1,38,32,2511663796
105,22,11,Pattern_Practice,118,1,38,56,2512111412
105,22,11,Pattern_Practice,119,5,42,127,2512142716
105,22,11,Pattern_Practice,120,1,38,57,2512582312
105,22,11,Pattern_Practice,121,5,42,127,2512642632
105,22,11,Pattern_Practice,122,1,48,46,2513039896
105,22,11,Pattern_Practice,123,5,42,127,2513143208
105,22,11,Pattern_Practice,124,1,48,82,2513477784
105,22,11,Pattern_Practice,125,5,42,127,2513642828
105,22,11,Pattern_Practice,126,1,38,62,2513935664
105,22,11,Pattern_Practice,127,5,42,127,2514142596
105,22,11,Pattern_Practice,128,1,38,67,2514372684
105,22,11,Pattern_Practice,129,5,42,127,2514643340
105,22,11,Pattern_Practice,130,1,48,79,2514767332
105,22,11,Pattern_Practice,131,5,42,127,2515142960
105,22,11,Pattern_Practice,132,1,48,59,2515163732
105,22,11,Pattern_Practice,133,1,38,79,2515580980
105,22,11,Pattern_Practice,134,5,42,127,2515642720
105,22,11,Pattern_Practice,135,1,38,76,2516024024
105,22,11,Pattern_Practice,136,5,42,127,2516142624
105,22,11,Pattern_Practice,137,1,38,67,2516485048
105,22,11,Pattern_Practice,138,1,48,86,2516516000
105,22,11,Pattern_Practice,139,5,42,127,2516643316
105,22,11,Pattern_Practice,140,1,48,47,2516870628
105,22,11,Pattern_Practice,141,1,38,78,2517045860
105,22,11,Pattern_Practice,142,5,42,127,2517144260
105,22,11,Pattern_Practice,143,1,48,100,2517280220
105,22,11,Pattern_Practice,144,5,42,127,2517642684
105,22,11,Pattern_Practice,145,1,48,68,2517662860
105,22,11,Pattern_Practice,146,1,38,91,2517841900
105,22,11,Pattern_Practice,147,1,48,57,2518059044
105,22,11,Pattern_Practice,148,5,42,127,2518143324
105,22,11,Pattern_Practice,149,1,48,49,2518424852
105,22,11,Pattern_Practice,150,1,38,75,2518619304
105,22,11,Pattern_Practice,151,5,42,127,2518643072
105,22,11,Pattern_Practice,152,1,48,75,2518836160
105,22,11,Pattern_Practice,153,5,42,127,2519142752
105,22,11,Pattern_Practice,154,1,48,51,2519191796
105,22,11,Pattern_Practice,155,1,38,53,2519378244
105,22,11,Pattern_Practice,156,1,48,76,2519595384
105,22,11,Pattern_Practice,157,5,42,127,2519642616
105,22,11,Pattern_Practice,158,1,38,69,2519990884
105,22,11,Pattern_Practice,159,5,42,127,2520143344
105,22,11,Pattern_Practice,160,1,38,79,2520381580
105,22,11,Pattern_Practice,161,5,42,127,2520643112
105,22,11,Pattern_Practice,162,1,48,83,2520791736
105,22,11,Pattern_Practice,163,5,42,127,2521142732
105,22,11,Pattern_Practice,164,1,38,87,2521222324
105,22,11,Pattern_Practice,165,1,38,75,2521580756
105,22,11,Pattern_Practice,166,5,42,127,2521643544
105,22,11,Pattern_Practice,167,1,48,71,2522011036
105,22,11,Pattern_Practice,168,5,42,127,2522143148
105,22,11,Pattern_Practice,169,1,48,94,2522422216
105,22,11,Pattern_Practice,170,5,42,127,2522642768
105,22,11,Pattern_Practice,171,1,48,75,2522816224
105,22,11,Pattern_Practice,172,1,48,46,2522846648
105,22,11,Pattern_Practice,173,5,42,127,2523142444
105,22,11,Pattern_Practice,174,1,38,77,2523221408
105,22,11,Pattern_Practice,175,1,38,70,2523390824
105,22,11,Pattern_Practice,176,1,48,80,2523602356
105,22,11,Pattern_Practice,177,5,42,127,2523643380
105,22,11,Pattern_Practice,178,1,48,82,2523982648
105,22,11,Pattern_Practice,179,5,42,127,2524142912
105,22,11,Pattern_Practice,180,1,38,63,2524146780
105,22,11,Pattern_Practice,181,1,38,58,2524418368
105,22,11,Pattern_Practice,182,5,42,127,2524642584
105,22,11,Pattern_Practice,183,1,48,87,2524873632
105,22,11,Pattern_Practice,184,1,48,21,2525143020
105,22,11,Pattern_Practice,185,5,42,127,2525144588
105,22,11,Pattern_Practice,186,5,42,127,2525643316
105,22,11,Pattern_Practice,187,1,38,73,2525646212
105,22,11,Pattern_Practice,188,1,48,79,2525655544
105,22,11,Pattern_Practice,189,1,38,74,2526103956
105,22,11,Pattern_Practice,190,1,48,71,2526124132
105,22,11,Pattern_Practice,191,5,42,127,2526142936
105,22,11,Pattern_Practice,192,1,38,95,2526531848
105,22,11,Pattern_Practice,193,1,48,68,2526549476
105,22,11,Pattern_Practice,194,5,42,127,2526642496
105,22,11,Pattern_Practice,195,1,38,99,2526953568
105,22,11,Pattern_Practice,0,9999,9999,9999,2487140456
105,22,11,Pattern_Practice,1,9999,9999,9999,2487640144
105,22,11,Pattern_Practice,2,9999,9999,9999,2488140908
105,22,11,Pattern_Practice,3,9999,9999,9999,2488640628
105,22,11,Pattern_Practice,4,9999,9999,9999,2489140320
105,22,11,Pattern_Practice,5,9999,9999,9999,2489641060
105,22,11,Pattern_Practice,6,9999,9999,9999,2490140756
105,22,11,Pattern_Practice,7,9999,9999,9999,2490640452
105,22,11,Pattern_Practice,8,9999,9999,9999,2491140196
105,22,11,Pattern_Practice,9,9999,9999,9999,2491640940
105,22,11,Pattern_Practice,10,9999,9999,9999,2492140592
105,22,11,Pattern_Practice,11,9999,9999,9999,2492640364
105,22,11,Pattern_Practice,12,9999,9999,9999,2493141076
105,22,11,Pattern_Practice,13,9999,9999,9999,2493640804
105,22,11,Pattern_Practice,14,9999,9999,9999,2494140524
105,22,11,Pattern_Practice,15,9999,9999,9999,2494640220
105,22,11,Pattern_Practice,16,9999,9999,9999,2495140956
105,22,11,Pattern_Practice,17,9999,9999,9999,2495640656
105,22,11,Pattern_Practice,18,9999,9999,9999,2496140348
105,22,11,Pattern_Practice,19,9999,9999,9999,2496640116
105,22,11,Pattern_Practice,20,9999,9999,9999,2497140856
105,22,11,Pattern_Practice,21,9999,9999,9999,2497640552
105,22,11,Pattern_Practice,22,9999,9999,9999,2498140220
105,22,11,Pattern_Practice,23,9999,9999,9999,2498640944
105,22,11,Pattern_Practice,24,9999,9999,9999,2499140664
105,22,11,Pattern_Practice,25,9999,9999,9999,2499640416
105,22,11,Pattern_Practice,26,9999,9999,9999,2500140112
105,22,11,Pattern_Practice,27,9999,9999,9999,2500640832
105,22,11,Pattern_Practice,28,9999,9999,9999,2501140600
105,22,11,Pattern_Practice,29,9999,9999,9999,2501640288
105,22,11,Pattern_Practice,30,9999,9999,9999,2502141012
105,22,11,Pattern_Practice,31,9999,9999,9999,2502640708
105,22,11,Pattern_Practice,32,9999,9999,9999,2503140404
105,22,11,Pattern_Practice,33,9999,9999,9999,2503640172
105,22,11,Pattern_Practice,34,9999,9999,9999,2504140896
105,22,11,Pattern_Practice,35,9999,9999,9999,2504640560
105,22,11,Pattern_Practice,36,9999,9999,9999,2505140328
105,22,11,Pattern_Practice,37,9999,9999,9999,2505641052
105,22,11,Pattern_Practice,38,9999,9999,9999,2506140744
105,22,11,Pattern_Practice,39,9999,9999,9999,2506640440
105,22,11,Pattern_Practice,40,9999,9999,9999,2507140188
105,22,11,Pattern_Practice,41,9999,9999,9999,2507640880
105,22,11,Pattern_Practice,42,9999,9999,9999,2508140644
105,22,11,Pattern_Practice,43,9999,9999,9999,2508640372
105,22,11,Pattern_Practice,44,9999,9999,9999,2509141068
105,22,11,Pattern_Practice,45,9999,9999,9999,2509640764
105,22,11,Pattern_Practice,46,9999,9999,9999,2510140532
105,22,11,Pattern_Practice,47,9999,9999,9999,2510640228
105,22,11,Pattern_Practice,48,9999,9999,9999,2511140972
105,22,11,Pattern_Practice,49,9999,9999,9999,2511640664
105,22,11,Pattern_Practice,50,9999,9999,9999,2512140352
105,22,11,Pattern_Practice,51,9999,9999,9999,2512640120
105,22,11,Pattern_Practice,52,9999,9999,9999,2513140848
105,22,11,Pattern_Practice,53,9999,9999,9999,2513640540
105,22,11,Pattern_Practice,54,9999,9999,9999,2514140236
105,22,11,Pattern_Practice,55,9999,9999,9999,2514640980
105,22,11,Pattern_Practice,56,9999,9999,9999,2515140672
105,22,11,Pattern_Practice,57,9999,9999,9999,2515640436
105,22,11,Pattern_Practice,58,9999,9999,9999,2516140112
105,22,11,Pattern_Practice,59,9999,9999,9999,2516640880
105,22,11,Pattern_Practice,60,9999,9999,9999,2517140568
105,22,11,Pattern_Practice,61,9999,9999,9999,2517640248
105,22,11,Pattern_Practice,62,9999,9999,9999,2518141036
105,22,11,Pattern_Practice,63,9999,9999,9999,2518640708
105,22,11,Pattern_Practice,64,9999,9999,9999,2519140464
105,22,11,Pattern_Practice,65,9999,9999,9999,2519640180
105,22,11,Pattern_Practice,66,9999,9999,9999,2520140904
105,22,11,Pattern_Practice,67,9999,9999,9999,2520640600
105,22,11,Pattern_Practice,68,9999,9999,9999,2521140296
105,22,11,Pattern_Practice,69,9999,9999,9999,2521641032
105,22,11,Pattern_Practice,70,9999,9999,9999,2522140784
105,22,11,Pattern_Practice,71,9999,9999,9999,2522640480
105,22,11,Pattern_Practice,72,9999,9999,9999,2523140156
105,22,11,Pattern_Practice,73,9999,9999,9999,2523640944
105,22,11,Pattern_Practice,74,9999,9999,9999,2524140624
105,22,11,Pattern_Practice,75,9999,9999,9999,2524640368
105,22,11,Pattern_Practice,76,9999,9999,9999,2525141112
105,22,11,Pattern_Practice,77,9999,9999,9999,2525640804
105,22,11,Pattern_Practice,78,9999,9999,9999,2526140500
105,22,11,Pattern_Practice,79,9999,9999,9999,2526640208
105,23,13,Improv_Metronome,0,5,42,127,2567386404
105,23,13,Improv_Metronome,1,5,42,127,2567887168
105,23,13,Improv_Metronome,2,5,42,127,2568387032
105,23,13,Improv_Metronome,3,1,48,72,2568870700
105,23,13,Improv_Metronome,4,5,42,127,2568886740
105,23,13,Improv_Metronome,5,1,38,76,2569111720
105,23,13,Improv_Metronome,6,1,48,62,2569383240
105,23,13,Improv_Metronome,7,5,42,127,2569387312
105,23,13,Improv_Metronome,8,1,38,22,2569682896
105,23,13,Improv_Metronome,9,5,42,127,2569887140
105,23,13,Improv_Metronome,10,1,48,56,2569951068
105,23,13,Improv_Metronome,11,1,38,32,2570216904
105,23,13,Improv_Metronome,12,5,42,127,2570386888
105,23,13,Improv_Metronome,13,1,48,62,2570489636
105,23,13,Improv_Metronome,14,1,38,68,2570733404
105,23,13,Improv_Metronome,15,5,42,127,2570886636
105,23,13,Improv_Metronome,16,1,48,68,2571029028
105,23,13,Improv_Metronome,17,1,48,45,2571326052
105,23,13,Improv_Metronome,18,5,42,127,2571387220
105,23,13,Improv_Metronome,19,1,48,54,2571598864
105,23,13,Improv_Metronome,20,5,42,127,2571886900
105,23,13,Improv_Metronome,21,1,38,59,2572147272
105,23,13,Improv_Metronome,22,1,48,15,2572159744
105,23,13,Improv_Metronome,23,5,42,127,2572386624
105,23,13,Improv_Metronome,24,1,38,82,2572407172
105,23,13,Improv_Metronome,25,1,38,108,2572687216
105,23,13,Improv_Metronome,26,5,42,127,2572887392
105,23,13,Improv_Metronome,27,1,48,78,2573267688
105,23,13,Improv_Metronome,28,5,42,127,2573387088
105,23,13,Improv_Metronome,29,1,48,43,2573813988
105,23,13,Improv_Metronome,30,5,42,127,2573886944
105,23,13,Improv_Metronome,31,1,38,79,2574378304
105,23,13,Improv_Metronome,32,5,42,127,2574386416
105,23,13,Improv_Metronome,33,5,42,127,2574887312
105,23,13,Improv_Metronome,34,1,38,105,2574935536
105,23,13,Improv_Metronome,35,5,42,127,2575386936
105,23,13,Improv_Metronome,36,1,38,74,2575436428
105,23,13,Improv_Metronome,37,1,48,115,2575696428
105,23,13,Improv_Metronome,38,5,42,127,2575886608
105,23,13,Improv_Metronome,39,1,38,53,2576236988
105,23,13,Improv_Metronome,40,5,42,127,2576386376
105,23,13,Improv_Metronome,41,1,48,78,2576468556
105,23,13,Improv_Metronome,42,1,38,60,2576884384
105,23,13,Improv_Metronome,43,5,42,127,2576887112
105,23,13,Improv_Metronome,44,1,48,25,2577152184
105,23,13,Improv_Metronome,45,5,42,127,2577386940
105,23,13,Improv_Metronome,46,1,38,100,2577762004
105,23,13,Improv_Metronome,47,5,42,127,2577886636
105,23,13,Improv_Metronome,48,1,48,63,2577990652
105,23,13,Improv_Metronome,49,1,48,37,2578329588
105,23,13,Improv_Metronome,50,5,42,127,2578387296
105,23,13,Improv_Metronome,51,1,38,117,2578519576
105,23,13,Improv_Metronome,52,5,42,127,2578886976
105,23,13,Improv_Metronome,53,1,48,55,2578889716
105,23,13,Improv_Metronome,54,1,38,89,2579241868
105,23,13,Improv_Metronome,55,5,42,127,2579386872
105,23,13,Improv_Metronome,56,1,48,70,2579462396
105,23,13,Improv_Metronome,57,1,38,66,2579773180
105,23,13,Improv_Metronome,58,1,48,19,2579786252
105,23,13,Improv_Metronome,59,5,42,127,2579886420
105,23,13,Improv_Metronome,60,1,48,56,2579958276
105,23,13,Improv_Metronome,61,1,38,117,2580286192
105,23,13,Improv_Metronome,62,5,42,127,2580387360
105,23,13,Improv_Metronome,63,1,48,48,2580660004
105,23,13,Improv_Metronome,64,1,38,61,2580817876
105,23,13,Improv_Metronome,65,5,42,127,2580887124
105,23,13,Improv_Metronome,66,1,48,68,2581224224
105,23,13,Improv_Metronome,67,1,38,99,2581363204
105,23,13,Improv_Metronome,68,5,42,127,2581387020
105,23,13,Improv_Metronome,69,1,48,127,2581742824
105,23,13,Improv_Metronome,70,5,42,127,2581887376
105,23,13,Improv_Metronome,71,1,38,114,2582151268
105,23,13,Improv_Metronome,72,1,48,88,2582363892
105,23,13,Improv_Metronome,73,5,42,127,2582386988
105,23,13,Improv_Metronome,74,1,38,106,2582764852
105,23,13,Improv_Metronome,75,5,42,127,2582886964
105,23,13,Improv_Metronome,76,1,48,76,2582957924
105,23,13,Improv_Metronome,77,1,38,119,2583340892
105,23,13,Improv_Metronome,78,5,42,127,2583386332
105,23,13,Improv_Metronome,79,1,48,106,2583743424
105,23,13,Improv_Metronome,80,5,42,127,2583887132
105,23,13,Improv_Metronome,81,1,38,105,2583941364
105,23,13,Improv_Metronome,82,1,48,54,2584339812
105,23,13,Improv_Metronome,83,5,42,127,2584387044
105,23,13,Improv_Metronome,84,1,38,95,2584504688
105,23,13,Improv_Metronome,85,5,42,127,2584886572
105,23,13,Improv_Metronome,86,1,48,124,2584899116
105,23,13,Improv_Metronome,87,1,38,78,2585261912
105,23,13,Improv_Metronome,88,5,42,127,2585387516
105,23,13,Improv_Metronome,89,1,48,81,2585492384
105,23,13,Improv_Metronome,90,1,38,111,2585852688
105,23,13,Improv_Metronome,91,5,42,127,2585887132
105,23,13,Improv_Metronome,92,1,48,51,2586018756
105,23,13,Improv_Metronome,93,5,42,127,2586386960
105,23,13,Improv_Metronome,94,1,38,117,2586397332
105,23,13,Improv_Metronome,95,1,48,88,2586784964
105,23,13,Improv_Metronome,96,5,42,127,2586886484
105,23,13,Improv_Metronome,97,1,38,74,2586986716
105,23,13,Improv_Metronome,98,1,48,61,2587356368
105,23,13,Improv_Metronome,99,5,42,127,2587387144
105,23,13,Improv_Metronome,100,1,38,105,2587521396
105,23,13,Improv_Metronome,101,5,42,127,2587887048
105,23,13,Improv_Metronome,102,1,48,121,2587927040
105,23,13,Improv_Metronome,103,1,38,92,2588270312
105,23,13,Improv_Metronome,104,5,42,127,2588386868
105,23,13,Improv_Metronome,105,1,48,94,2588491560
105,23,13,Improv_Metronome,106,1,38,78,2588811352
105,23,13,Improv_Metronome,107,5,42,127,2588887380
105,23,13,Improv_Metronome,108,1,48,85,2589023648
105,23,13,Improv_Metronome,109,1,38,103,2589374224
105,23,13,Improv_Metronome,110,5,42,127,2589387200
105,23,13,Improv_Metronome,111,1,38,108,2589741952
105,23,13,Improv_Metronome,112,5,42,127,2589887028
105,23,13,Improv_Metronome,113,1,38,114,2590098636
105,23,13,Improv_Metronome,114,5,42,127,2590386500
105,23,13,Improv_Metronome,115,1,38,82,2590482292
105,23,13,Improv_Metronome,116,1,48,18,2590494840
105,23,13,Improv_Metronome,117,1,48,127,2590878924
105,23,13,Improv_Metronome,118,5,42,127,2590887260
105,23,13,Improv_Metronome,119,1,38,127,2591244408
105,23,13,Improv_Metronome,120,5,42,127,2591386940
105,23,13,Improv_Metronome,121,1,38,123,2591432920
105,23,13,Improv_Metronome,122,1,38,51,2591463260
105,23,13,Improv_Metronome,123,1,48,127,2591845884
105,23,13,Improv_Metronome,124,5,42,127,2591886980
105,23,13,Improv_Metronome,125,1,48,127,2592092784
105,23,13,Improv_Metronome,126,5,42,127,2592386360
105,23,13,Improv_Metronome,127,1,38,122,2592421192
105,23,13,Improv_Metronome,128,1,38,99,2592767660
105,23,13,Improv_Metronome,129,1,38,49,2592800176
105,23,13,Improv_Metronome,130,5,42,127,2592887000
105,23,13,Improv_Metronome,131,1,48,121,2593112476
105,23,13,Improv_Metronome,132,1,48,104,2593283168
105,23,13,Improv_Metronome,133,5,42,127,2593386952
105,23,13,Improv_Metronome,134,1,38,119,2593653988
105,23,13,Improv_Metronome,135,5,42,127,2593886500
105,23,13,Improv_Metronome,136,1,48,108,2594021712
105,23,13,Improv_Metronome,137,1,48,87,2594234812
105,23,13,Improv_Metronome,138,5,42,127,2594387344
105,23,13,Improv_Metronome,139,5,42,127,2594887132
105,23,13,Improv_Metronome,140,1,48,87,2595168100
105,23,13,Improv_Metronome,141,1,38,65,2595173544
105,23,13,Improv_Metronome,142,5,42,127,2595386708
105,23,13,Improv_Metronome,143,1,38,78,2595592480
105,23,13,Improv_Metronome,144,1,48,104,2595601584
105,23,13,Improv_Metronome,145,5,42,127,2595886356
105,23,13,Improv_Metronome,146,1,38,60,2595991748
105,23,13,Improv_Metronome,147,1,48,90,2595998232
105,23,13,Improv_Metronome,148,1,48,88,2596387420
105,23,13,Improv_Metronome,149,5,42,127,2596388984
105,23,13,Improv_Metronome,150,1,38,101,2596403096
105,23,13,Improv_Metronome,151,1,38,111,2596821740
105,23,13,Improv_Metronome,152,5,42,127,2596886776
105,23,13,Improv_Metronome,153,1,48,79,2597245516
105,23,13,Improv_Metronome,154,5,42,127,2597386604
105,23,13,Improv_Metronome,155,1,48,112,2597434076
105,23,13,Improv_Metronome,156,1,38,127,2597886744
105,23,13,Improv_Metronome,157,5,42,127,2597888980
105,23,13,Improv_Metronome,158,5,42,127,2598387116
105,23,13,Improv_Metronome,159,1,48,127,2598413196
105,23,13,Improv_Metronome,160,1,48,75,2598733860
105,23,13,Improv_Metronome,161,5,42,127,2598886936
105,23,13,Improv_Metronome,162,1,38,90,2599095028
105,23,13,Improv_Metronome,163,1,38,77,2599377096
105,23,13,Improv_Metronome,164,5,42,127,2599386404
105,23,13,Improv_Metronome,165,1,48,114,2599658052
105,23,13,Improv_Metronome,166,5,42,127,2599887204
105,23,13,Improv_Metronome,167,1,48,96,2599908572
105,23,13,Improv_Metronome,168,1,38,99,2600195276
105,23,13,Improv_Metronome,169,5,42,127,2600386876
105,23,13,Improv_Metronome,170,1,38,79,2600420960
105,23,13,Improv_Metronome,171,1,48,104,2600667944
105,23,13,Improv_Metronome,172,5,42,127,2600886848
105,23,13,Improv_Metronome,173,1,48,73,2600900740
105,23,13,Improv_Metronome,174,1,38,95,2601161632
105,23,13,Improv_Metronome,175,5,42,127,2601387272
105,23,13,Improv_Metronome,176,1,38,82,2601400488
105,23,13,Improv_Metronome,177,1,38,42,2601443320
105,23,13,Improv_Metronome,178,1,48,93,2601625760
105,23,13,Improv_Metronome,179,1,48,74,2601822180
105,23,13,Improv_Metronome,180,5,42,127,2601886992
105,23,13,Improv_Metronome,181,1,38,115,2602094840
105,23,13,Improv_Metronome,182,1,38,92,2602334192
105,23,13,Improv_Metronome,183,5,42,127,2602386736
105,23,13,Improv_Metronome,184,1,48,127,2602602068
105,23,13,Improv_Metronome,185,5,42,127,2602886640
105,23,13,Improv_Metronome,186,1,48,38,2603127716
105,23,13,Improv_Metronome,187,1,38,118,2603369844
105,23,13,Improv_Metronome,188,5,42,127,2603387376
105,23,13,Improv_Metronome,189,5,42,127,2603887004
105,23,13,Improv_Metronome,190,1,38,94,2603941284
105,23,13,Improv_Metronome,191,1,38,81,2604203232
105,23,13,Improv_Metronome,192,1,38,58,2604239632
105,23,13,Improv_Metronome,193,5,42,127,2604386804
105,23,13,Improv_Metronome,194,1,48,127,2604733496
105,23,13,Improv_Metronome,195,5,42,127,2604887892
105,23,13,Improv_Metronome,196,1,38,122,2605250620
105,23,13,Improv_Metronome,197,5,42,127,2605387140
105,23,13,Improv_Metronome,198,1,38,93,2605515348
105,23,13,Improv_Metronome,199,1,38,44,2605557064
105,23,13,Improv_Metronome,200,5,42,127,2605886888
105,23,13,Improv_Metronome,201,1,48,118,2606026684
105,23,13,Improv_Metronome,202,1,48,127,2606318252
105,23,13,Improv_Metronome,203,5,42,127,2606386504
105,23,13,Improv_Metronome,204,1,38,113,2606839864
105,23,13,Improv_Metronome,205,5,42,127,2606887168
105,23,13,Improv_Metronome,206,1,48,127,2607374492
105,23,13,Improv_Metronome,207,5,42,127,2607386864
105,23,13,Improv_Metronome,208,5,42,127,2607886792
105,23,13,Improv_Metronome,209,1,38,120,2607893496
105,23,13,Improv_Metronome,210,1,38,45,2607948008
105,23,13,Improv_Metronome,211,5,42,127,2608386312
105,23,13,Improv_Metronome,212,1,48,127,2608437528
105,23,13,Improv_Metronome,213,5,42,127,2608887128
105,23,13,Improv_Metronome,214,1,38,107,2608892416
105,23,13,Improv_Metronome,215,1,38,64,2608929344
105,23,13,Improv_Metronome,216,1,48,81,2609356688
105,23,13,Improv_Metronome,217,5,42,127,2609386720
105,23,13,Improv_Metronome,218,1,48,102,2609639372
105,23,13,Improv_Metronome,219,5,42,127,2609886700
105,23,13,Improv_Metronome,220,1,38,88,2610090676
105,23,13,Improv_Metronome,221,1,38,37,2610141964
105,23,13,Improv_Metronome,222,1,48,101,2610334720
105,23,13,Improv_Metronome,223,5,42,127,2610387264
105,23,13,Improv_Metronome,224,1,38,126,2610569684
105,23,13,Improv_Metronome,225,1,48,92,2610867456
105,23,13,Improv_Metronome,226,5,42,127,2610887084
105,23,13,Improv_Metronome,227,5,42,127,2611386640
105,23,13,Improv_Metronome,228,1,48,92,2611390660
105,23,13,Improv_Metronome,229,1,48,121,2611658812
105,23,13,Improv_Metronome,230,5,42,127,2611886536
105,23,13,Improv_Metronome,231,1,38,90,2612102260
105,23,13,Improv_Metronome,232,1,38,37,2612164540
105,23,13,Improv_Metronome,233,1,48,97,2612334184
105,23,13,Improv_Metronome,234,5,42,127,2612387104
105,23,13,Improv_Metronome,235,1,38,119,2612542644
105,23,13,Improv_Metronome,236,1,48,83,2612807652
105,23,13,Improv_Metronome,237,5,42,127,2612886776
105,23,13,Improv_Metronome,238,1,48,124,2613273388
105,23,13,Improv_Metronome,239,5,42,127,2613386676
105,23,13,Improv_Metronome,240,1,48,111,2613546052
105,23,13,Improv_Metronome,241,5,42,127,2613887420
105,23,13,Improv_Metronome,242,1,38,86,2614002584
105,23,13,Improv_Metronome,243,1,48,81,2614212700
105,23,13,Improv_Metronome,244,5,42,127,2614387020
105,23,13,Improv_Metronome,245,1,38,107,2614428284
105,23,13,Improv_Metronome,246,1,48,109,2614680956
105,23,13,Improv_Metronome,247,5,42,127,2614886616
105,23,13,Improv_Metronome,248,1,48,112,2615136520
105,23,13,Improv_Metronome,249,5,42,127,2615386588
105,23,13,Improv_Metronome,250,1,48,127,2615392424
105,23,13,Improv_Metronome,251,1,38,88,2615837848
105,23,13,Improv_Metronome,252,5,42,127,2615887248
105,23,13,Improv_Metronome,253,1,48,85,2616036532
105,23,13,Improv_Metronome,254,1,38,101,2616247688
105,23,13,Improv_Metronome,255,1,38,37,2616306832
105,23,13,Improv_Metronome,256,5,42,127,2616387048
105,23,13,Improv_Metronome,257,1,48,111,2616485920
105,23,13,Improv_Metronome,258,5,42,127,2616886652
105,23,13,Improv_Metronome,259,1,48,75,2616968708
105,23,13,Improv_Metronome,260,1,48,127,2617209780
105,23,13,Improv_Metronome,261,5,42,127,2617387300
105,23,13,Improv_Metronome,262,1,38,100,2617856532
105,23,13,Improv_Metronome,263,5,42,127,2617886936
105,23,13,Improv_Metronome,264,1,48,112,2618314792
105,23,13,Improv_Metronome,265,5,42,127,2618386928
105,23,13,Improv_Metronome,266,1,38,105,2618752624
105,23,13,Improv_Metronome,267,5,42,127,2618886680
105,23,13,Improv_Metronome,268,1,48,74,2619189316
105,23,13,Improv_Metronome,269,5,42,127,2619387272
105,23,13,Improv_Metronome,270,1,38,74,2619613760
105,23,13,Improv_Metronome,271,5,42,127,2619886968
105,23,13,Improv_Metronome,272,1,48,88,2620048464
105,23,13,Improv_Metronome,273,1,48,111,2620253336
105,23,13,Improv_Metronome,274,5,42,127,2620386864
105,23,13,Improv_Metronome,275,1,48,85,2620441516
105,23,13,Improv_Metronome,276,1,48,127,2620652608
105,23,13,Improv_Metronome,277,5,42,127,2620887584
105,23,13,Improv_Metronome,278,1,38,97,2621090216
105,23,13,Improv_Metronome,279,1,48,127,2621365324
105,23,13,Improv_Metronome,280,5,42,127,2621387196
105,23,13,Improv_Metronome,281,1,38,72,2621551216
105,23,13,Improv_Metronome,282,1,48,100,2621774092
105,23,13,Improv_Metronome,283,5,42,127,2621886856
105,23,13,Improv_Metronome,284,1,38,81,2622214772
105,23,13,Improv_Metronome,285,1,38,45,2622261352
105,23,13,Improv_Metronome,286,5,42,127,2622386824
105,23,13,Improv_Metronome,287,1,48,127,2622669784
105,23,13,Improv_Metronome,288,5,42,127,2622887344
105,23,13,Improv_Metronome,289,1,38,89,2623101192
105,23,13,Improv_Metronome,290,5,42,127,2623386888
105,23,13,Improv_Metronome,291,1,48,127,2623492480
105,23,13,Improv_Metronome,292,1,48,82,2623694808
105,23,13,Improv_Metronome,293,1,48,127,2623845008
105,23,13,Improv_Metronome,294,5,42,127,2623886780
105,23,13,Improv_Metronome,295,1,48,81,2624026692
105,23,13,Improv_Metronome,296,1,48,47,2624058832
105,23,13,Improv_Metronome,297,5,42,127,2624386584
105,23,13,Improv_Metronome,298,1,48,127,2624494724
105,23,13,Improv_Metronome,299,1,38,78,2624722708
105,23,13,Improv_Metronome,300,5,42,127,2624887008
105,23,13,Improv_Metronome,301,1,48,75,2624944504
105,23,13,Improv_Metronome,302,1,38,90,2625172716
105,23,13,Improv_Metronome,303,1,38,36,2625231856
105,23,13,Improv_Metronome,304,5,42,127,2625386812
105,23,13,Improv_Metronome,305,1,48,124,2625647556
105,23,13,Improv_Metronome,306,5,42,127,2625886728
105,23,13,Improv_Metronome,307,1,38,85,2626050216
105,23,13,Improv_Metronome,308,5,42,127,2626387220
105,23,13,Improv_Metronome,309,1,48,127,2626493432
105,23,13,Improv_Metronome,310,5,42,127,2626886916
105,23,13,Improv_Metronome,311,1,48,64,2626991340
105,23,13,Improv_Metronome,312,1,48,121,2627152056
105,23,13,Improv_Metronome,313,1,48,73,2627372560
105,23,13,Improv_Metronome,314,5,42,127,2627386804
105,23,13,Improv_Metronome,315,1,48,127,2627592708
105,23,13,Improv_Metronome,316,5,42,127,2627886780
105,23,13,Improv_Metronome,317,1,38,80,2628019100
105,23,13,Improv_Metronome,318,1,48,85,2628268704
105,23,13,Improv_Metronome,319,5,42,127,2628387128
105,23,13,Improv_Metronome,320,1,38,83,2628464616
105,23,13,Improv_Metronome,321,1,48,101,2628711908
105,23,13,Improv_Metronome,322,5,42,127,2628886876
105,23,13,Improv_Metronome,323,1,38,87,2629148824
105,23,13,Improv_Metronome,324,5,42,127,2629386796
105,23,13,Improv_Metronome,325,1,48,127,2629575064
105,23,13,Improv_Metronome,326,5,42,127,2629887536
105,23,13,Improv_Metronome,327,1,38,94,2630017240
105,23,13,Improv_Metronome,328,5,42,127,2630386936
105,23,13,Improv_Metronome,329,1,48,96,2630480852
105,23,13,Improv_Metronome,330,1,48,106,2630641372
105,23,13,Improv_Metronome,331,1,48,113,2630860680
105,23,13,Improv_Metronome,332,5,42,127,2630886824
105,23,13,Improv_Metronome,333,1,48,127,2631067676
105,23,13,Improv_Metronome,334,5,42,127,2631386800
105,23,13,Improv_Metronome,335,1,38,27,2631845636
105,23,13,Improv_Metronome,336,5,42,127,2631887260
105,23,13,Improv_Metronome,337,1,38,103,2632260640
105,23,13,Improv_Metronome,338,1,48,127,2632288556
105,23,13,Improv_Metronome,339,5,42,127,2632386832
105,23,13,Improv_Metronome,340,1,38,101,2632720508
105,23,13,Improv_Metronome,341,1,48,112,2632734324
105,23,13,Improv_Metronome,342,5,42,127,2632886628
105,23,13,Improv_Metronome,343,1,38,84,2633193900
105,23,13,Improv_Metronome,344,1,48,68,2633210484
105,23,13,Improv_Metronome,345,5,42,127,2633387480
105,23,13,Improv_Metronome,346,1,48,108,2633609036
105,23,13,Improv_Metronome,347,1,38,85,2633618364
105,23,13,Improv_Metronome,348,5,42,127,2633887056
105,23,13,Improv_Metronome,349,1,38,84,2634027428
105,23,13,Improv_Metronome,350,5,42,127,2634386748
105,23,13,Improv_Metronome,351,1,38,99,2634437888
105,23,13,Improv_Metronome,352,1,48,121,2634631768
105,23,13,Improv_Metronome,353,5,42,127,2634886720
105,23,13,Improv_Metronome,354,1,48,100,2635058880
105,23,13,Improv_Metronome,355,1,48,89,2635257696
105,23,13,Improv_Metronome,356,1,48,36,2635307492
105,23,13,Improv_Metronome,357,5,42,127,2635387136
105,23,13,Improv_Metronome,358,1,38,127,2635739644
105,23,13,Improv_Metronome,359,5,42,127,2635887040
105,23,13,Improv_Metronome,360,1,48,122,2636202240
105,23,13,Improv_Metronome,361,5,42,127,2636386732
105,23,13,Improv_Metronome,362,1,48,123,2636462480
105,23,13,Improv_Metronome,363,1,48,104,2636859436
105,23,13,Improv_Metronome,364,5,42,127,2636887592
105,23,13,Improv_Metronome,365,1,48,127,2637093644
105,23,13,Improv_Metronome,0,9999,9999,9999,2567384112
105,23,13,Improv_Metronome,1,9999,9999,9999,2567884880
105,23,13,Improv_Metronome,2,9999,9999,9999,2568384592
105,23,13,Improv_Metronome,3,9999,9999,9999,2568884304
105,23,13,Improv_Metronome,4,9999,9999,9999,2569385024
105,23,13,Improv_Metronome,5,9999,9999,9999,2569884776
105,23,13,Improv_Metronome,6,9999,9999,9999,2570384452
105,23,13,Improv_Metronome,7,9999,9999,9999,2570884200
105,23,13,Improv_Metronome,8,9999,9999,9999,2571384936
105,23,13,Improv_Metronome,9,9999,9999,9999,2571884612
105,23,13,Improv_Metronome,10,9999,9999,9999,2572384336
105,23,13,Improv_Metronome,11,9999,9999,9999,2572885104
105,23,13,Improv_Metronome,12,9999,9999,9999,2573384800
105,23,13,Improv_Metronome,13,9999,9999,9999,2573884508
105,23,13,Improv_Metronome,14,9999,9999,9999,2574384204
105,23,13,Improv_Metronome,15,9999,9999,9999,2574884952
105,23,13,Improv_Metronome,16,9999,9999,9999,2575384648
105,23,13,Improv_Metronome,17,9999,9999,9999,2575884396
105,23,13,Improv_Metronome,18,9999,9999,9999,2576384088
105,23,13,Improv_Metronome,19,9999,9999,9999,2576884824
105,23,13,Improv_Metronome,20,9999,9999,9999,2577384504
105,23,13,Improv_Metronome,21,9999,9999,9999,2577884272
105,23,13,Improv_Metronome,22,9999,9999,9999,2578385008
105,23,13,Improv_Metronome,23,9999,9999,9999,2578884688
105,23,13,Improv_Metronome,24,9999,9999,9999,2579384436
105,23,13,Improv_Metronome,25,9999,9999,9999,2579884132
105,23,13,Improv_Metronome,26,9999,9999,9999,2580384852
105,23,13,Improv_Metronome,27,9999,9999,9999,2580884540
105,23,13,Improv_Metronome,28,9999,9999,9999,2581384288
105,23,13,Improv_Metronome,29,9999,9999,9999,2581885012
105,23,13,Improv_Metronome,30,9999,9999,9999,2582384700
105,23,13,Improv_Metronome,31,9999,9999,9999,2582884456
105,23,13,Improv_Metronome,32,9999,9999,9999,2583384116
105,23,13,Improv_Metronome,33,9999,9999,9999,2583884920
105,23,13,Improv_Metronome,34,9999,9999,9999,2584384608
105,23,13,Improv_Metronome,35,9999,9999,9999,2584884284
105,23,13,Improv_Metronome,36,9999,9999,9999,2585385080
105,23,13,Improv_Metronome,37,9999,9999,9999,2585884768
105,23,13,Improv_Metronome,38,9999,9999,9999,2586384448
105,23,13,Improv_Metronome,39,9999,9999,9999,2586884196
105,23,13,Improv_Metronome,40,9999,9999,9999,2587384928
105,23,13,Improv_Metronome,41,9999,9999,9999,2587884612
105,23,13,Improv_Metronome,42,9999,9999,9999,2588384356
105,23,13,Improv_Metronome,43,9999,9999,9999,2588885092
105,23,13,Improv_Metronome,44,9999,9999,9999,2589384764
105,23,13,Improv_Metronome,45,9999,9999,9999,2589884516
105,23,13,Improv_Metronome,46,9999,9999,9999,2590384212
105,23,13,Improv_Metronome,47,9999,9999,9999,2590884972
105,23,13,Improv_Metronome,48,9999,9999,9999,2591384652
105,23,13,Improv_Metronome,49,9999,9999,9999,2591884396
105,23,13,Improv_Metronome,50,9999,9999,9999,2592384072
105,23,13,Improv_Metronome,51,9999,9999,9999,2592884784
105,23,13,Improv_Metronome,52,9999,9999,9999,2593384516
105,23,13,Improv_Metronome,53,9999,9999,9999,2593884260
105,23,13,Improv_Metronome,54,9999,9999,9999,2594384980
105,23,13,Improv_Metronome,55,9999,9999,9999,2594884696
105,23,13,Improv_Metronome,56,9999,9999,9999,2595384420
105,23,13,Improv_Metronome,57,9999,9999,9999,2595884140
105,23,13,Improv_Metronome,58,9999,9999,9999,2596384836
105,23,13,Improv_Metronome,59,9999,9999,9999,2596884564
105,23,13,Improv_Metronome,60,9999,9999,9999,2597384240
105,23,13,Improv_Metronome,61,9999,9999,9999,2597884980
105,23,13,Improv_Metronome,62,9999,9999,9999,2598384752
105,23,13,Improv_Metronome,63,9999,9999,9999,2598884424
105,23,13,Improv_Metronome,64,9999,9999,9999,2599384116
105,23,13,Improv_Metronome,65,9999,9999,9999,2599884916
105,23,13,Improv_Metronome,66,9999,9999,9999,2600384588
105,23,13,Improv_Metronome,67,9999,9999,9999,2600884336
105,23,13,Improv_Metronome,68,9999,9999,9999,2601385056
105,23,13,Improv_Metronome,69,9999,9999,9999,2601884776
105,23,13,Improv_Metronome,70,9999,9999,9999,2602384452
105,23,13,Improv_Metronome,71,9999,9999,9999,2602884204
105,23,13,Improv_Metronome,72,9999,9999,9999,2603384940
105,23,13,Improv_Metronome,73,9999,9999,9999,2603884644
105,23,13,Improv_Metronome,74,9999,9999,9999,2604384368
105,23,13,Improv_Metronome,75,9999,9999,9999,2604885084
105,23,13,Improv_Metronome,76,9999,9999,9999,2605384780
105,23,13,Improv_Metronome,77,9999,9999,9999,2605884528
105,23,13,Improv_Metronome,78,9999,9999,9999,2606384216
105,23,13,Improv_Metronome,79,9999,9999,9999,2606884956
105,23,13,Improv_Metronome,80,9999,9999,9999,2607384652
105,23,13,Improv_Metronome,81,9999,9999,9999,2607884356
105,23,13,Improv_Metronome,82,9999,9999,9999,2608384100
105,23,13,Improv_Metronome,83,9999,9999,9999,2608884840
105,23,13,Improv_Metronome,84,9999,9999,9999,2609384508
105,23,13,Improv_Metronome,85,9999,9999,9999,2609884264
105,23,13,Improv_Metronome,86,9999,9999,9999,2610384976
105,23,13,Improv_Metronome,87,9999,9999,9999,2610884724
105,23,13,Improv_Metronome,88,9999,9999,9999,2611384428
105,23,13,Improv_Metronome,89,9999,9999,9999,2611884100
105,23,13,Improv_Metronome,90,9999,9999,9999,2612384888
105,23,13,Improv_Metronome,91,9999,9999,9999,2612884564
105,23,13,Improv_Metronome,92,9999,9999,9999,2613384240
105,23,13,Improv_Metronome,93,9999,9999,9999,2613884984
105,23,13,Improv_Metronome,94,9999,9999,9999,2614384732
105,23,13,Improv_Metronome,95,9999,9999,9999,2614884404
105,23,13,Improv_Metronome,96,9999,9999,9999,2615384148
105,23,13,Improv_Metronome,97,9999,9999,9999,2615884884
105,23,13,Improv_Metronome,98,9999,9999,9999,2616384612
105,23,13,Improv_Metronome,99,9999,9999,9999,2616884292
105,23,13,Improv_Metronome,100,9999,9999,9999,2617385012
105,23,13,Improv_Metronome,101,9999,9999,9999,2617884720
105,23,13,Improv_Metronome,102,9999,9999,9999,2618384492
105,23,13,Improv_Metronome,103,9999,9999,9999,2618884168
105,23,13,Improv_Metronome,104,9999,9999,9999,2619384912
105,23,13,Improv_Metronome,105,9999,9999,9999,2619884608
105,23,13,Improv_Metronome,106,9999,9999,9999,2620384356
105,23,13,Improv_Metronome,107,9999,9999,9999,2620885072
105,23,13,Improv_Metronome,108,9999,9999,9999,2621384760
105,23,13,Improv_Metronome,109,9999,9999,9999,2621884492
105,23,13,Improv_Metronome,110,9999,9999,9999,2622384240
105,23,13,Improv_Metronome,111,9999,9999,9999,2622884980
105,23,13,Improv_Metronome,112,9999,9999,9999,2623384676
105,23,13,Improv_Metronome,113,9999,9999,9999,2623884344
105,23,13,Improv_Metronome,114,9999,9999,9999,2624384076
105,23,13,Improv_Metronome,115,9999,9999,9999,2624884796
105,23,13,Improv_Metronome,116,9999,9999,9999,2625384524
105,23,13,Improv_Metronome,117,9999,9999,9999,2625884220
105,23,13,Improv_Metronome,118,9999,9999,9999,2626385008
105,23,13,Improv_Metronome,119,9999,9999,9999,2626884704
105,23,13,Improv_Metronome,120,9999,9999,9999,2627384368
105,23,13,Improv_Metronome,121,9999,9999,9999,2627884124
105,23,13,Improv_Metronome,122,9999,9999,9999,2628384840
105,23,13,Improv_Metronome,123,9999,9999,9999,2628884588
105,23,13,Improv_Metronome,124,9999,9999,9999,2629384284
105,23,13,Improv_Metronome,125,9999,9999,9999,2629885024
105,23,13,Improv_Metronome,126,9999,9999,9999,2630384720
105,23,13,Improv_Metronome,127,9999,9999,9999,2630884460
105,23,13,Improv_Metronome,128,9999,9999,9999,2631384140
105,23,13,Improv_Metronome,129,9999,9999,9999,2631884900
105,23,13,Improv_Metronome,130,9999,9999,9999,2632384616
105,23,13,Improv_Metronome,131,9999,9999,9999,2632884340
105,23,13,Improv_Metronome,132,9999,9999,9999,2633385044
105,23,13,Improv_Metronome,133,9999,9999,9999,2633884768
105,23,13,Improv_Metronome,134,9999,9999,9999,2634384464
105,23,13,Improv_Metronome,135,9999,9999,9999,2634884208
105,23,13,Improv_Metronome,136,9999,9999,9999,2635384924
105,23,13,Improv_Metronome,137,9999,9999,9999,2635884604
105,23,13,Improv_Metronome,138,9999,9999,9999,2636384372
105,23,13,Improv_Metronome,139,9999,9999,9999,2636885080
105,24,14,Improv_Melody,0,2,48,80,2718490016
105,24,14,Improv_Melody,1,2,72,80,2718492104
105,24,14,Improv_Melody,2,5,42,127,2718494560
105,24,14,Improv_Melody,3,5,42,110,2718987852
105,24,14,Improv_Melody,4,5,42,110,2719488324
105,24,14,Improv_Melody,5,5,42,110,2719988044
105,24,14,Improv_Melody,6,5,42,127,2720487840
105,24,14,Improv_Melody,7,5,42,110,2720987564
105,24,14,Improv_Melody,8,5,42,110,2721488184
105,24,14,Improv_Melody,9,5,42,110,2721987904
105,24,14,Improv_Melody,10,1,48,54,2722471348
105,24,14,Improv_Melody,11,2,43,80,2722490200
105,24,14,Improv_Melody,12,2,67,80,2722492428
105,24,14,Improv_Melody,13,5,42,127,2722494964
105,24,14,Improv_Melody,14,1,38,69,2722688156
105,24,14,Improv_Melody,15,1,48,61,2722931544
105,24,14,Improv_Melody,16,5,42,110,2722988436
105,24,14,Improv_Melody,17,1,38,60,2723121316
105,24,14,Improv_Melody,18,5,42,110,2723488044
105,24,14,Improv_Melody,19,1,48,62,2723556908
105,24,14,Improv_Melody,20,1,48,54,2723802920
105,24,14,Improv_Melody,21,5,42,110,2723987872
105,24,14,Improv_Melody,22,1,38,47,2724191848
105,24,14,Improv_Melody,23,1,48,16,2724204392
105,24,14,Improv_Melody,24,5,42,127,2724487672
105,24,14,Improv_Melody,25,1,48,36,2724634328
105,24,14,Improv_Melody,26,5,42,110,2724988344
105,24,14,Improv_Melody,27,1,48,76,2725104556
105,24,14,Improv_Melody,28,5,42,110,2725487972
105,24,14,Improv_Melody,29,1,48,63,2725564616
105,24,14,Improv_Melody,30,5,42,110,2725987744
105,24,14,Improv_Melody,31,1,38,32,2726035744
105,24,14,Improv_Melody,32,1,48,59,2726239348
105,24,14,Improv_Melody,33,1,38,44,2726475384
105,24,14,Improv_Melody,34,2,45,80,2726491044
105,24,14,Improv_Melody,35,2,69,80,2726492968
105,24,14,Improv_Melody,36,5,42,127,2726495584
105,24,14,Improv_Melody,37,1,48,58,2726688744
105,24,14,Improv_Melody,38,5,42,110,2726988136
105,24,14,Improv_Melody,39,1,38,47,2727227792
105,24,14,Improv_Melody,40,1,48,69,2727446952
105,24,14,Improv_Melody,41,5,42,110,2727487828
105,24,14,Improv_Melody,42,1,48,41,2727936776
105,24,14,Improv_Melody,43,5,42,110,2727987752
105,24,14,Improv_Melody,44,1,48,76,2728426828
105,24,14,Improv_Melody,45,5,42,127,2728488424
105,24,14,Improv_Melody,46,1,48,72,2728890628
105,24,14,Improv_Melody,47,5,42,110,2728988036
105,24,14,Improv_Melody,48,1,48,63,2729358460
105,24,14,Improv_Melody,49,5,42,110,2729487660
105,24,14,Improv_Melody,50,1,38,68,2729796656
105,24,14,Improv_Melody,51,5,42,110,2729987584
105,24,14,Improv_Melody,52,1,48,67,2730018600
105,24,14,Improv_Melody,53,1,38,53,2730165956
105,24,14,Improv_Melody,54,1,48,64,2730425056
105,24,14,Improv_Melody,55,2,41,80,2730491108
105,24,14,Improv_Melody,56,2,65,80,2730493036
105,24,14,Improv_Melody,57,5,42,127,2730495644
105,24,14,Improv_Melody,58,1,48,62,2730940704
105,24,14,Improv_Melody,59,5,42,110,2730987864
105,24,14,Improv_Melody,60,1,38,81,2731153976
105,24,14,Improv_Melody,61,5,42,110,2731487548
105,24,14,Improv_Melody,62,1,48,41,2731616204
105,24,14,Improv_Melody,63,5,42,110,2731988224
105,24,14,Improv_Melody,64,1,48,88,2732110492
105,24,14,Improv_Melody,65,5,42,127,2732487996
105,24,14,Improv_Melody,66,1,48,83,2732570252
105,24,14,Improv_Melody,67,1,48,78,2732984280
105,24,14,Improv_Melody,68,5,42,110,2732987840
105,24,14,Improv_Melody,69,1,38,39,2733417116
105,24,14,Improv_Melody,70,5,42,110,2733487612
105,24,14,Improv_Melody,71,1,48,67,2733860464
105,24,14,Improv_Melody,72,1,48,42,2733904648
105,24,14,Improv_Melody,73,5,42,110,2733988112
105,24,14,Improv_Melody,74,1,48,62,2734096536
105,24,14,Improv_Melody,75,2,48,80,2734490372
105,24,14,Improv_Melody,76,2,72,80,2734492528
105,24,14,Improv_Melody,77,5,42,127,2734494992
105,24,14,Improv_Melody,78,5,42,110,2734987756
105,24,14,Improv_Melody,79,1,38,83,2735148624
105,24,14,Improv_Melody,80,5,42,110,2735488356
105,24,14,Improv_Melody,81,1,48,63,2735568812
105,24,14,Improv_Melody,82,1,38,87,2735828588
105,24,14,Improv_Melody,83,5,42,110,2735988108
105,24,14,Improv_Melody,84,5,42,127,2736487828
105,24,14,Improv_Melody,85,1,48,60,2736964668
105,24,14,Improv_Melody,86,5,42,110,2736987692
105,24,14,Improv_Melody,87,1,38,75,2737389868
105,24,14,Improv_Melody,88,5,42,110,2737488324
105,24,14,Improv_Melody,89,1,48,73,2737599928
105,24,14,Improv_Melody,90,5,42,110,2737988100
105,24,14,Improv_Melody,91,1,38,75,2738069480
105,24,14,Improv_Melody,92,1,48,58,2738293728
105,24,14,Improv_Melody,93,2,43,80,2738490284
105,24,14,Improv_Melody,94,2,67,80,2738492440
105,24,14,Improv_Melody,95,5,42,127,2738495044
105,24,14,Improv_Melody,96,1,38,49,2738728344
105,24,14,Improv_Melody,97,1,48,18,2738741416
105,24,14,Improv_Melody,98,5,42,110,2738988488
105,24,14,Improv_Melody,99,1,48,73,2739173616
105,24,14,Improv_Melody,100,5,42,110,2739488112
105,24,14,Improv_Melody,101,1,48,89,2739612132
105,24,14,Improv_Melody,102,1,48,57,2739665964
105,24,14,Improv_Melody,103,5,42,110,2739987940
105,24,14,Improv_Melody,104,1,48,89,2740027564
105,24,14,Improv_Melody,105,1,38,115,2740455732
105,24,14,Improv_Melody,106,5,42,127,2740487708
105,24,14,Improv_Melody,107,1,48,100,2740513192
105,24,14,Improv_Melody,108,1,38,86,2740902156
105,24,14,Improv_Melody,109,1,48,75,2740927412
105,24,14,Improv_Melody,110,5,42,110,2740988412
105,24,14,Improv_Melody,111,1,38,67,2741133252
105,24,14,Improv_Melody,112,1,48,51,2741153884
105,24,14,Improv_Melody,113,5,42,110,2741487948
105,24,14,Improv_Melody,114,1,38,65,2741550904
105,24,14,Improv_Melody,115,1,48,67,2741563752
105,24,14,Improv_Melody,116,1,38,68,2741781236
105,24,14,Improv_Melody,117,1,48,56,2741791388
105,24,14,Improv_Melody,118,5,42,110,2741987828
105,24,14,Improv_Melody,119,1,38,77,2742250748
105,24,14,Improv_Melody,120,2,45,80,2742490928
105,24,14,Improv_Melody,121,2,69,80,2742493312
105,24,14,Improv_Melody,122,5,42,127,2742495920
105,24,14,Improv_Melody,123,1,38,72,2742684412
105,24,14,Improv_Melody,124,1,48,91,2742698604
105,24,14,Improv_Melody,125,1,38,52,2742939656
105,24,14,Improv_Melody,126,1,48,73,2742955640
105,24,14,Improv_Melody,127,5,42,110,2742988140
105,24,14,Improv_Melody,128,5,42,110,2743487744
105,24,14,Improv_Melody,129,1,38,38,2743505376
105,24,14,Improv_Melody,130,1,48,18,2743518372
105,24,14,Improv_Melody,131,5,42,110,2743987772
105,24,14,Improv_Melody,132,1,38,78,2743992464
105,24,14,Improv_Melody,133,1,48,109,2744012340
105,24,14,Improv_Melody,134,1,48,86,2744424396
105,24,14,Improv_Melody,135,1,38,33,2744438512
105,24,14,Improv_Melody,136,5,42,127,2744488296
105,24,14,Improv_Melody,137,1,38,57,2744651436
105,24,14,Improv_Melody,138,1,48,92,2744667984
105,24,14,Improv_Melody,139,5,42,110,2744987992
105,24,14,Improv_Melody,140,1,38,91,2745042348
105,24,14,Improv_Melody,141,1,38,48,2745276768
105,24,14,Improv_Melody,142,1,48,15,2745289912
105,24,14,Improv_Melody,143,5,42,110,2745487700
105,24,14,Improv_Melody,144,1,48,84,2745676464
105,24,14,Improv_Melody,145,5,42,110,2745987696
105,24,14,Improv_Melody,146,1,38,78,2746114084
105,24,14,Improv_Melody,147,1,48,114,2746143012
105,24,14,Improv_Melody,148,2,41,80,2746490908
105,24,14,Improv_Melody,149,2,65,80,2746492900
105,24,14,Improv_Melody,150,5,42,127,2746495292
105,24,14,Improv_Melody,151,1,38,67,2746557948
105,24,14,Improv_Melody,152,1,48,108,2746573940
105,24,14,Improv_Melody,153,1,38,99,2746963232
105,24,14,Improv_Melody,154,5,42,110,2746987828
105,24,14,Improv_Melody,155,1,48,72,2747001644
105,24,14,Improv_Melody,156,1,38,109,2747416676
105,24,14,Improv_Melody,157,5,42,110,2747487720
105,24,14,Improv_Melody,158,1,48,85,2747833796
105,24,14,Improv_Melody,159,5,42,110,2747988424
105,24,14,Improv_Melody,160,1,38,93,2748054176
105,24,14,Improv_Melody,161,5,42,127,2748487976
105,24,14,Improv_Melody,162,1,48,127,2748491468
105,24,14,Improv_Melody,163,1,38,65,2748494068
105,24,14,Improv_Melody,164,1,38,50,2748723596
105,24,14,Improv_Melody,165,1,48,59,2748732176
105,24,14,Improv_Melody,166,5,42,110,2748987784
105,24,14,Improv_Melody,167,1,38,83,2749132820
105,24,14,Improv_Melody,168,1,48,30,2749143864
105,24,14,Improv_Melody,169,5,42,110,2749487732
105,24,14,Improv_Melody,170,1,38,115,2749585500
105,24,14,Improv_Melody,171,1,48,78,2749804356
105,24,14,Improv_Melody,172,5,42,110,2749988084
105,24,14,Improv_Melody,173,1,38,83,2750283092
105,24,14,Improv_Melody,174,1,48,84,2750304352
105,24,14,Improv_Melody,175,2,48,80,2750490708
105,24,14,Improv_Melody,176,2,72,80,2750492712
105,24,14,Improv_Melody,177,5,42,127,2750495392
105,24,14,Improv_Melody,178,1,38,85,2750623376
105,24,14,Improv_Melody,179,1,48,115,2750630312
105,24,14,Improv_Melody,180,5,42,110,2750987492
105,24,14,Improv_Melody,181,1,38,103,2751117716
105,24,14,Improv_Melody,182,1,48,106,2751133932
105,24,14,Improv_Melody,183,5,42,110,2751488488
105,24,14,Improv_Melody,184,1,38,45,2751565136
105,24,14,Improv_Melody,185,1,38,84,2751782572
105,24,14,Improv_Melody,186,5,42,110,2751987944
105,24,14,Improv_Melody,187,1,48,127,2752231636
105,24,14,Improv_Melody,188,1,38,73,2752412276
105,24,14,Improv_Melody,189,5,42,127,2752487708
105,24,14,Improv_Melody,190,1,48,126,2752871960
105,24,14,Improv_Melody,191,5,42,110,2752987544
105,24,14,Improv_Melody,192,1,48,114,2753378392
105,24,14,Improv_Melody,193,5,42,110,2753488144
105,24,14,Improv_Melody,194,1,48,48,2753812768
105,24,14,Improv_Melody,195,5,42,110,2753987844
105,24,14,Improv_Melody,196,1,48,127,2754258312
105,24,14,Improv_Melody,197,2,43,80,2754490116
105,24,14,Improv_Melody,198,2,67,80,2754492428
105,24,14,Improv_Melody,199,5,42,127,2754495036
105,24,14,Improv_Melody,200,1,38,126,2754741500
105,24,14,Improv_Melody,201,5,42,110,2754988528
105,24,14,Improv_Melody,202,1,38,91,2755135784
105,24,14,Improv_Melody,203,1,38,42,2755183504
105,24,14,Improv_Melody,204,5,42,110,2755487984
105,24,14,Improv_Melody,205,1,38,113,2755601276
105,24,14,Improv_Melody,206,5,42,110,2755987832
105,24,14,Improv_Melody,207,1,38,98,2756044880
105,24,14,Improv_Melody,208,5,42,127,2756487456
105,24,14,Improv_Melody,209,1,38,124,2756512416
105,24,14,Improv_Melody,210,1,48,121,2756929792
105,24,14,Improv_Melody,211,5,42,110,2756988268
105,24,14,Improv_Melody,212,1,48,77,2757419320
105,24,14,Improv_Melody,213,5,42,110,2757487896
105,24,14,Improv_Melody,214,1,38,76,2757860600
105,24,14,Improv_Melody,215,5,42,110,2757987728
105,24,14,Improv_Melody,216,1,48,82,2758308988
105,24,14,Improv_Melody,217,2,45,80,2758491056
105,24,14,Improv_Melody,218,2,69,80,2758493284
105,24,14,Improv_Melody,219,5,42,127,2758495820
105,24,14,Improv_Melody,220,1,38,84,2758527588
105,24,14,Improv_Melody,221,1,38,45,2758566088
105,24,14,Improv_Melody,222,1,48,95,2758734804
105,24,14,Improv_Melody,223,1,38,118,2758915228
105,24,14,Improv_Melody,224,5,42,110,2758988264
105,24,14,Improv_Melody,225,1,48,114,2759405424
105,24,14,Improv_Melody,226,5,42,110,2759487892
105,24,14,Improv_Melody,227,1,48,101,2759634852
105,24,14,Improv_Melody,228,5,42,110,2759987500
105,24,14,Improv_Melody,229,1,38,76,2760065072
105,24,14,Improv_Melody,230,1,48,91,2760265804
105,24,14,Improv_Melody,231,1,38,90,2760481744
105,24,14,Improv_Melody,232,5,42,127,2760488592
105,24,14,Improv_Melody,233,1,48,76,2760688292
105,24,14,Improv_Melody,234,5,42,110,2760988056
105,24,14,Improv_Melody,235,1,48,69,2761170936
105,24,14,Improv_Melody,236,1,48,84,2761424956
105,24,14,Improv_Melody,237,5,42,110,2761487676
105,24,14,Improv_Melody,238,1,38,81,2761856960
105,24,14,Improv_Melody,239,1,38,52,2761895684
105,24,14,Improv_Melody,240,5,42,110,2761987636
105,24,14,Improv_Melody,241,1,48,89,2762051940
105,24,14,Improv_Melody,242,1,38,84,2762254644
105,24,14,Improv_Melody,243,1,38,44,2762302340
105,24,14,Improv_Melody,244,1,48,82,2762469292
105,24,14,Improv_Melody,245,2,41,80,2762490836
105,24,14,Improv_Melody,246,2,65,80,2762492992
105,24,14,Improv_Melody,247,5,42,127,2762495600
105,24,14,Improv_Melody,248,1,38,83,2762897428
105,24,14,Improv_Melody,249,5,42,110,2762987820
105,24,14,Improv_Melody,250,1,38,69,2763125360
105,24,14,Improv_Melody,251,5,42,110,2763487656
105,24,14,Improv_Melody,252,1,48,125,2763551888
105,24,14,Improv_Melody,253,1,38,87,2763964424
105,24,14,Improv_Melody,254,5,42,110,2763988620
105,24,14,Improv_Melody,255,1,48,88,2764403836
105,24,14,Improv_Melody,256,5,42,127,2764488020
105,24,14,Improv_Melody,257,1,48,117,2764842252
105,24,14,Improv_Melody,258,5,42,110,2764987856
105,24,14,Improv_Melody,259,1,38,48,2765312480
105,24,14,Improv_Melody,260,1,48,39,2765369380
105,24,14,Improv_Melody,261,5,42,110,2765487580
105,24,14,Improv_Melody,262,1,48,73,2765499372
105,24,14,Improv_Melody,263,1,38,86,2765722424
105,24,14,Improv_Melody,264,1,38,32,2765775960
105,24,14,Improv_Melody,265,1,48,115,2765975444
105,24,14,Improv_Melody,266,5,42,110,2765988424
105,24,14,Improv_Melody,267,1,48,77,2766453384
105,24,14,Improv_Melody,268,2,48,80,2766490716
105,24,14,Improv_Melody,269,2,72,80,2766492636
105,24,14,Improv_Melody,270,5,42,127,2766495248
105,24,14,Improv_Melody,271,1,48,70,2766688060
105,24,14,Improv_Melody,272,5,42,110,2766987604
105,24,14,Improv_Melody,273,1,38,79,2767148548
105,24,14,Improv_Melody,274,1,48,81,2767360152
105,24,14,Improv_Melody,275,5,42,110,2767488624
105,24,14,Improv_Melody,276,1,38,95,2767558916
105,24,14,Improv_Melody,277,1,48,92,2767781812
105,24,14,Improv_Melody,278,1,38,58,2767927872
105,24,14,Improv_Melody,279,5,42,110,2767988224
105,24,14,Improv_Melody,280,1,48,78,2768445072
105,24,14,Improv_Melody,281,5,42,127,2768487920
105,24,14,Improv_Melody,282,1,48,71,2768712576
105,24,14,Improv_Melody,283,5,42,110,2768987532
105,24,14,Improv_Melody,284,1,38,86,2769081756
105,24,14,Improv_Melody,285,1,48,111,2769485292
105,24,14,Improv_Melody,286,5,42,110,2769488472
105,24,14,Improv_Melody,287,1,38,101,2769892840
105,24,14,Improv_Melody,288,5,42,110,2769987932
105,24,14,Improv_Melody,289,1,48,90,2770289992
105,24,14,Improv_Melody,290,2,43,80,2770490516
105,24,14,Improv_Melody,291,2,67,80,2770492360
105,24,14,Improv_Melody,292,5,42,127,2770494976
105,24,14,Improv_Melody,293,1,38,81,2770748092
105,24,14,Improv_Melody,294,1,48,112,2770981240
105,24,14,Improv_Melody,295,5,42,110,2770988684
105,24,14,Improv_Melody,296,1,38,72,2771154948
105,24,14,Improv_Melody,297,1,48,104,2771394448
105,24,14,Improv_Melody,298,5,42,110,2771488640
105,24,14,Improv_Melody,299,1,48,71,2771808436
105,24,14,Improv_Melody,300,5,42,110,2771987824
105,24,14,Improv_Melody,301,1,48,105,2772033580
105,24,14,Improv_Melody,302,1,38,82,2772423152
105,24,14,Improv_Melody,303,1,48,115,2772459784
105,24,14,Improv_Melody,304,5,42,127,2772487420
105,24,14,Improv_Melody,305,1,38,66,2772886604
105,24,14,Improv_Melody,306,1,48,79,2772894960
105,24,14,Improv_Melody,307,5,42,110,2772988552
105,24,14,Improv_Melody,308,1,48,84,2773335028
105,24,14,Improv_Melody,309,1,38,59,2773349524
105,24,14,Improv_Melody,310,5,42,110,2773487968
105,24,14,Improv_Melody,311,1,38,77,2773763380
105,24,14,Improv_Melody,312,1,48,127,2773775024
105,24,14,Improv_Melody,313,5,42,110,2773987548
105,24,14,Improv_Melody,314,1,38,87,2774226380
105,24,14,Improv_Melody,315,1,38,81,2774437012
105,24,14,Improv_Melody,316,2,45,80,2774491088
105,24,14,Improv_Melody,317,2,69,80,2774493244
105,24,14,Improv_Melody,318,5,42,127,2774495928
105,24,14,Improv_Melody,319,1,48,84,2774706472
105,24,14,Improv_Melody,320,1,48,73,2774898404
105,24,14,Improv_Melody,321,5,42,110,2774988424
105,24,14,Improv_Melody,322,1,38,106,2775325228
105,24,14,Improv_Melody,323,5,42,110,2775487812
105,24,14,Improv_Melody,324,1,48,127,2775548596
105,24,14,Improv_Melody,325,5,42,110,2775987436
105,24,14,Improv_Melody,326,1,48,106,2776028332
105,24,14,Improv_Melody,327,1,48,127,2776475948
105,24,14,Improv_Melody,328,5,42,127,2776488552
105,24,14,Improv_Melody,329,1,48,103,2776901568
105,24,14,Improv_Melody,330,5,42,110,2776987952
105,24,14,Improv_Melody,331,1,48,92,2777373448
105,24,14,Improv_Melody,332,5,42,110,2777487712
105,24,14,Improv_Melody,333,1,48,98,2777854300
105,24,14,Improv_Melody,334,5,42,110,2777987636
105,24,14,Improv_Melody,335,1,38,105,2778084480
105,24,14,Improv_Melody,336,1,48,108,2778316728
105,24,14,Improv_Melody,337,1,38,95,2778488324
105,24,14,Improv_Melody,338,2,41,80,2778493780
105,24,14,Improv_Melody,339,2,65,80,2778495780
105,24,14,Improv_Melody,340,5,42,127,2778498468
105,24,14,Improv_Melody,341,1,38,51,2778526928
105,24,14,Improv_Melody,342,1,48,127,2778913484
105,24,14,Improv_Melody,343,5,42,110,2778987824
105,24,14,Improv_Melody,344,1,38,120,2779065200
105,24,14,Improv_Melody,345,1,38,65,2779090612
105,24,14,Improv_Melody,346,5,42,110,2779487712
105,24,14,Improv_Melody,347,1,38,82,2779530920
105,24,14,Improv_Melody,348,1,38,116,2779938572
105,24,14,Improv_Melody,349,5,42,110,2779988428
105,24,14,Improv_Melody,350,1,38,82,2780368040
105,24,14,Improv_Melody,351,5,42,127,2780488260
105,24,14,Improv_Melody,352,1,38,74,2780783964
105,24,14,Improv_Melody,353,1,48,37,2780889408
105,24,14,Improv_Melody,354,5,42,110,2780987656
105,24,14,Improv_Melody,355,1,38,100,2781258936
105,24,14,Improv_Melody,356,1,48,127,2781281320
105,24,14,Improv_Melody,357,5,42,110,2781487604
105,24,14,Improv_Melody,358,1,38,73,2781686120
105,24,14,Improv_Melody,359,1,48,84,2781705920
105,24,14,Improv_Melody,360,5,42,110,2781988312
105,24,14,Improv_Melody,361,1,38,70,2782104400
105,24,14,Improv_Melody,362,1,48,94,2782107680
105,24,14,Improv_Melody,363,2,48,80,2782490396
105,24,14,Improv_Melody,364,2,72,80,2782492776
105,24,14,Improv_Melody,365,5,42,127,2782495384
105,24,14,Improv_Melody,366,1,38,94,2782500004
105,24,14,Improv_Melody,367,1,48,91,2782556344
105,24,14,Improv_Melody,368,1,38,90,2782966356
105,24,14,Improv_Melody,369,5,42,110,2782987564
105,24,14,Improv_Melody,370,1,48,117,2783368228
105,24,14,Improv_Melody,371,5,42,110,2783488300
105,24,14,Improv_Melody,372,1,38,95,2783770964
105,24,14,Improv_Melody,373,5,42,110,2783988296
105,24,14,Improv_Melody,374,1,48,102,2784180680
105,24,14,Improv_Melody,375,5,42,127,2784487696
105,24,14,Improv_Melody,376,1,48,111,2784630792
105,24,14,Improv_Melody,377,5,42,110,2784987548
105,24,14,Improv_Melody,378,1,48,127,2785041608
105,24,14,Improv_Melody,379,1,48,127,2785457360
105,24,14,Improv_Melody,380,1,48,63,2785481420
105,24,14,Improv_Melody,381,5,42,110,2785488416
105,24,14,Improv_Melody,382,5,42,110,2785987900
105,24,14,Improv_Melody,383,1,38,127,2786276476
105,24,14,Improv_Melody,384,1,48,99,2786311904
105,24,14,Improv_Melody,385,2,43,80,2786490220
105,24,14,Improv_Melody,386,2,67,80,2786492524
105,24,14,Improv_Melody,387,5,42,127,2786494980
105,24,14,Improv_Melody,388,1,38,103,2786728280
105,24,14,Improv_Melody,389,1,48,117,2786740076
105,24,14,Improv_Melody,390,5,42,110,2786988280
105,24,14,Improv_Melody,391,1,38,90,2787157844
105,24,14,Improv_Melody,392,1,48,108,2787170240
105,24,14,Improv_Melody,393,5,42,110,2787488080
105,24,14,Improv_Melody,394,1,38,90,2787607432
105,24,14,Improv_Melody,395,1,48,100,2787647280
105,24,14,Improv_Melody,396,5,42,110,2787987732
105,24,14,Improv_Melody,397,1,38,100,2788098412
105,24,14,Improv_Melody,398,5,42,127,2788487504
105,24,14,Improv_Melody,399,1,48,118,2788508572
105,24,14,Improv_Melody,400,1,38,127,2788887056
105,24,14,Improv_Melody,401,5,42,110,2788988232
105,24,14,Improv_Melody,402,1,48,86,2789334844
105,24,14,Improv_Melody,403,5,42,110,2789487856
105,24,14,Improv_Melody,404,1,48,66,2789785704
105,24,14,Improv_Melody,405,1,48,96,2789795256
105,24,14,Improv_Melody,406,5,42,110,2789987832
105,24,14,Improv_Melody,407,1,48,83,2790195228
105,24,14,Improv_Melody,408,1,48,95,2790204252
105,24,14,Improv_Melody,409,2,45,80,2790491220
105,24,14,Improv_Melody,410,2,69,80,2790493220
105,24,14,Improv_Melody,411,5,42,127,2790495680
105,24,14,Improv_Melody,412,1,48,95,2790614956
105,24,14,Improv_Melody,413,1,48,116,2790632436
105,24,14,Improv_Melody,414,5,42,110,2790988152
105,24,14,Improv_Melody,415,5,42,110,2791488020
105,24,14,Improv_Melody,416,1,38,104,2791609872
105,24,14,Improv_Melody,417,1,48,86,2791625256
105,24,14,Improv_Melody,418,5,42,110,2791987524
105,24,14,Improv_Melody,419,1,38,80,2792020712
105,24,14,Improv_Melody,420,1,48,82,2792052796
105,24,14,Improv_Melody,421,1,48,104,2792465804
105,24,14,Improv_Melody,422,1,38,97,2792471840
105,24,14,Improv_Melody,423,5,42,127,2792488260
105,24,14,Improv_Melody,424,1,38,102,2792914368
105,24,14,Improv_Melody,425,1,48,84,2792934240
105,24,14,Improv_Melody,426,5,42,110,2792988060
105,24,14,Improv_Melody,427,1,38,76,2793311548
105,24,14,Improv_Melody,428,5,42,110,2793487792
105,24,14,Improv_Melody,429,1,48,99,2793749360
105,24,14,Improv_Melody,430,5,42,110,2793987492
105,24,14,Improv_Melody,431,1,38,86,2794152796
105,24,14,Improv_Melody,432,2,41,80,2794490820
105,24,14,Improv_Melody,433,2,65,80,2794493048
105,24,14,Improv_Melody,434,5,42,127,2794495508
105,24,14,Improv_Melody,435,1,48,108,2794591404
105,24,14,Improv_Melody,436,5,42,110,2794987952
105,24,14,Improv_Melody,437,1,48,62,2795042908
105,24,14,Improv_Melody,438,1,48,89,2795060688
105,24,14,Improv_Melody,439,1,48,105,2795445328
105,24,14,Improv_Melody,440,1,38,21,2795455324
105,24,14,Improv_Melody,441,5,42,110,2795487604
105,24,14,Improv_Melody,442,1,48,72,2795877736
105,24,14,Improv_Melody,443,1,48,115,2795904712
105,24,14,Improv_Melody,444,5,42,110,2795988304
105,24,14,Improv_Melody,445,5,42,127,2796488084
105,24,14,Improv_Melody,446,1,38,96,2796679424
105,24,14,Improv_Melody,447,1,48,89,2796709396
105,24,14,Improv_Melody,448,5,42,110,2796987740
105,24,14,Improv_Melody,449,1,38,82,2797116892
105,24,14,Improv_Melody,450,1,48,111,2797122856
105,24,14,Improv_Melody,451,5,42,110,2797487392
105,24,14,Improv_Melody,452,1,38,75,2797556108
105,24,14,Improv_Melody,453,1,48,87,2797559300
105,24,14,Improv_Melody,454,1,38,93,2797984904
105,24,14,Improv_Melody,455,5,42,110,2797988156
105,24,14,Improv_Melody,456,1,48,117,2798009456
105,24,14,Improv_Melody,457,1,38,92,2798416328
105,24,14,Improv_Melody,458,2,48,80,2798490476
105,24,14,Improv_Melody,459,2,72,80,2798492780
105,24,14,Improv_Melody,460,5,42,127,2798495312
105,24,14,Improv_Melody,461,1,48,102,2798875272
105,24,14,Improv_Melody,462,5,42,110,2798987668
105,24,14,Improv_Melody,463,1,38,94,2799303092
105,24,14,Improv_Melody,0,9999,9999,9999,2718485560
105,24,14,Improv_Melody,1,9999,9999,9999,2718985336
105,24,14,Improv_Melody,2,9999,9999,9999,2719486032
105,24,14,Improv_Melody,3,9999,9999,9999,2719985752
105,24,14,Improv_Melody,4,9999,9999,9999,2720485476
105,24,14,Improv_Melody,5,9999,9999,9999,2720985196
105,24,14,Improv_Melody,6,9999,9999,9999,2721485892
105,24,14,Improv_Melody,7,9999,9999,9999,2721985612
105,24,14,Improv_Melody,8,9999,9999,9999,2722485328
105,24,14,Improv_Melody,9,9999,9999,9999,2722986068
105,24,14,Improv_Melody,10,9999,9999,9999,2723485752
105,24,14,Improv_Melody,11,9999,9999,9999,2723985504
105,24,14,Improv_Melody,12,9999,9999,9999,2724485232
105,24,14,Improv_Melody,13,9999,9999,9999,2724985980
105,24,14,Improv_Melody,14,9999,9999,9999,2725485680
105,24,14,Improv_Melody,15,9999,9999,9999,2725985380
105,24,14,Improv_Melody,16,9999,9999,9999,2726486072
105,24,14,Improv_Melody,17,9999,9999,9999,2726985844
105,24,14,Improv_Melody,18,9999,9999,9999,2727485540
105,24,14,Improv_Melody,19,9999,9999,9999,2727985240
105,24,14,Improv_Melody,20,9999,9999,9999,2728485984
105,24,14,Improv_Melody,21,9999,9999,9999,2728985668
105,24,14,Improv_Melody,22,9999,9999,9999,2729485368
105,24,14,Improv_Melody,23,9999,9999,9999,2729985144
105,24,14,Improv_Melody,24,9999,9999,9999,2730485860
105,24,14,Improv_Melody,25,9999,9999,9999,2730985572
105,24,14,Improv_Melody,26,9999,9999,9999,2731485260
105,24,14,Improv_Melody,27,9999,9999,9999,2731986004
105,24,14,Improv_Melody,28,9999,9999,9999,2732485704
105,24,14,Improv_Melody,29,9999,9999,9999,2732985400
105,24,14,Improv_Melody,30,9999,9999,9999,2733485172
105,24,14,Improv_Melody,31,9999,9999,9999,2733985896
105,24,14,Improv_Melody,32,9999,9999,9999,2734485580
105,24,14,Improv_Melody,33,9999,9999,9999,2734985316
105,24,14,Improv_Melody,34,9999,9999,9999,2735486060
105,24,14,Improv_Melody,35,9999,9999,9999,2735985740
105,24,14,Improv_Melody,36,9999,9999,9999,2736485464
105,24,14,Improv_Melody,37,9999,9999,9999,2736985180
105,24,14,Improv_Melody,38,9999,9999,9999,2737485884
105,24,14,Improv_Melody,39,9999,9999,9999,2737985660
105,24,14,Improv_Melody,40,9999,9999,9999,2738485336
105,24,14,Improv_Melody,41,9999,9999,9999,2738986048
105,24,14,Improv_Melody,42,9999,9999,9999,2739485748
105,24,14,Improv_Melody,43,9999,9999,9999,2739985500
105,24,14,Improv_Melody,44,9999,9999,9999,2740485192
105,24,14,Improv_Melody,45,9999,9999,9999,2740985972
105,24,14,Improv_Melody,46,9999,9999,9999,2741485656
105,24,14,Improv_Melody,47,9999,9999,9999,2741985388
105,24,14,Improv_Melody,48,9999,9999,9999,2742486136
105,24,14,Improv_Melody,49,9999,9999,9999,2742985848
105,24,14,Improv_Melody,50,9999,9999,9999,2743485528
105,24,14,Improv_Melody,51,9999,9999,9999,2743985256
105,24,14,Improv_Melody,52,9999,9999,9999,2744486004
105,24,14,Improv_Melody,53,9999,9999,9999,2744985700
105,24,14,Improv_Melody,54,9999,9999,9999,2745485408
105,24,14,Improv_Melody,55,9999,9999,9999,2745985108
105,24,14,Improv_Melody,56,9999,9999,9999,2746485880
105,24,14,Improv_Melody,57,9999,9999,9999,2746985540
105,24,14,Improv_Melody,58,9999,9999,9999,2747485280
105,24,14,Improv_Melody,59,9999,9999,9999,2747985984
105,24,14,Improv_Melody,60,9999,9999,9999,2748485684
105,24,14,Improv_Melody,61,9999,9999,9999,2748985416
105,24,14,Improv_Melody,62,9999,9999,9999,2749485144
105,24,14,Improv_Melody,63,9999,9999,9999,2749985868
105,24,14,Improv_Melody,64,9999,9999,9999,2750485608
105,24,14,Improv_Melody,65,9999,9999,9999,2750985276
105,24,14,Improv_Melody,66,9999,9999,9999,2751486048
105,24,14,Improv_Melody,67,9999,9999,9999,2751985724
105,24,14,Improv_Melody,68,9999,9999,9999,2752485492
105,24,14,Improv_Melody,69,9999,9999,9999,2752985180
105,24,14,Improv_Melody,70,9999,9999,9999,2753485924
105,24,14,Improv_Melody,71,9999,9999,9999,2753985624
105,24,14,Improv_Melody,72,9999,9999,9999,2754485324
105,24,14,Improv_Melody,73,9999,9999,9999,2754986084
105,24,14,Improv_Melody,74,9999,9999,9999,2755485764
105,24,14,Improv_Melody,75,9999,9999,9999,2755985464
105,24,14,Improv_Melody,76,9999,9999,9999,2756485240
105,24,14,Improv_Melody,77,9999,9999,9999,2756985980
105,24,14,Improv_Melody,78,9999,9999,9999,2757485680
105,24,14,Improv_Melody,79,9999,9999,9999,2757985364
105,24,14,Improv_Melody,80,9999,9999,9999,2758486108
105,24,14,Improv_Melody,81,9999,9999,9999,2758985824
105,24,14,Improv_Melody,82,9999,9999,9999,2759485524
105,24,14,Improv_Melody,83,9999,9999,9999,2759985212
105,24,14,Improv_Melody,84,9999,9999,9999,2760486000
105,24,14,Improv_Melody,85,9999,9999,9999,2760985688
105,24,14,Improv_Melody,86,9999,9999,9999,2761485384
105,24,14,Improv_Melody,87,9999,9999,9999,2761985136
105,24,14,Improv_Melody,88,9999,9999,9999,2762485816
105,24,14,Improv_Melody,89,9999,9999,9999,2762985528
105,24,14,Improv_Melody,90,9999,9999,9999,2763485288
105,24,14,Improv_Melody,91,9999,9999,9999,2763986028
105,24,14,Improv_Melody,92,9999,9999,9999,2764485728
105,24,14,Improv_Melody,93,9999,9999,9999,2764985412
105,24,14,Improv_Melody,94,9999,9999,9999,2765485140
105,24,14,Improv_Melody,95,9999,9999,9999,2765985912
105,24,14,Improv_Melody,96,9999,9999,9999,2766485612
105,24,14,Improv_Melody,97,9999,9999,9999,2766985312
105,24,14,Improv_Melody,98,9999,9999,9999,2767486036
105,24,14,Improv_Melody,99,9999,9999,9999,2767985784
105,24,14,Improv_Melody,100,9999,9999,9999,2768485480
105,24,14,Improv_Melody,101,9999,9999,9999,2768985168
105,24,14,Improv_Melody,102,9999,9999,9999,2769485880
105,24,14,Improv_Melody,103,9999,9999,9999,2769985640
105,24,14,Improv_Melody,104,9999,9999,9999,2770485340
105,24,14,Improv_Melody,105,9999,9999,9999,2770986092
105,24,14,Improv_Melody,106,9999,9999,9999,2771485772
105,24,14,Improv_Melody,107,9999,9999,9999,2771985456
105,24,14,Improv_Melody,108,9999,9999,9999,2772485204
105,24,14,Improv_Melody,109,9999,9999,9999,2772985964
105,24,14,Improv_Melody,110,9999,9999,9999,2773485680
105,24,14,Improv_Melody,111,9999,9999,9999,2773985328
105,24,14,Improv_Melody,112,9999,9999,9999,2774486068
105,24,14,Improv_Melody,113,9999,9999,9999,2774985836
105,24,14,Improv_Melody,114,9999,9999,9999,2775485520
105,24,14,Improv_Melody,115,9999,9999,9999,2775985220
105,24,14,Improv_Melody,116,9999,9999,9999,2776485960
105,24,14,Improv_Melody,117,9999,9999,9999,2776985660
105,24,14,Improv_Melody,118,9999,9999,9999,2777485420
105,24,14,Improv_Melody,119,9999,9999,9999,2777985120
105,24,14,Improv_Melody,120,9999,9999,9999,2778485848
105,24,14,Improv_Melody,121,9999,9999,9999,2778985532
105,24,14,Improv_Melody,122,9999,9999,9999,2779485272
105,24,14,Improv_Melody,123,9999,9999,9999,2779985988
105,24,14,Improv_Melody,124,9999,9999,9999,2780485744
105,24,14,Improv_Melody,125,9999,9999,9999,2780985440
105,24,14,Improv_Melody,126,9999,9999,9999,2781485164
105,24,14,Improv_Melody,127,9999,9999,9999,2781985872
105,24,14,Improv_Melody,128,9999,9999,9999,2782485604
105,24,14,Improv_Melody,129,9999,9999,9999,2782985272
105,24,14,Improv_Melody,130,9999,9999,9999,2783486008
105,24,14,Improv_Melody,131,9999,9999,9999,2783985780
105,24,14,Improv_Melody,132,9999,9999,9999,2784485480
105,24,14,Improv_Melody,133,9999,9999,9999,2784985180
105,24,14,Improv_Melody,134,9999,9999,9999,2785485900
105,24,14,Improv_Melody,135,9999,9999,9999,2785985608
105,24,14,Improv_Melody,136,9999,9999,9999,2786485348
105,24,14,Improv_Melody,137,9999,9999,9999,2786986060
105,24,14,Improv_Melody,138,9999,9999,9999,2787485788
105,24,14,Improv_Melody,139,9999,9999,9999,2787985516
105,24,14,Improv_Melody,140,9999,9999,9999,2788485216
105,24,14,Improv_Melody,141,9999,9999,9999,2788985972
105,24,14,Improv_Melody,142,9999,9999,9999,2789485640
105,24,14,Improv_Melody,143,9999,9999,9999,2789985392
105,24,14,Improv_Melody,144,9999,9999,9999,2790486116
105,24,14,Improv_Melody,145,9999,9999,9999,2790985784
105,24,14,Improv_Melody,146,9999,9999,9999,2791485504
105,24,14,Improv_Melody,147,9999,9999,9999,2791985232
105,24,14,Improv_Melody,148,9999,9999,9999,2792485968
105,24,14,Improv_Melody,149,9999,9999,9999,2792985696
105,24,14,Improv_Melody,150,9999,9999,9999,2793485428
105,24,14,Improv_Melody,151,9999,9999,9999,2793985128
105,24,14,Improv_Melody,152,9999,9999,9999,2794485872
105,24,14,Improv_Melody,153,9999,9999,9999,2794985584
105,24,14,Improv_Melody,154,9999,9999,9999,2795485240
105,24,14,Improv_Melody,155,9999,9999,9999,2795986008
105,24,14,Improv_Melody,156,9999,9999,9999,2796485720
105,24,14,Improv_Melody,157,9999,9999,9999,2796985448
105,24,14,Improv_Melody,158,9999,9999,9999,2797485172
105,24,14,Improv_Melody,159,9999,9999,9999,2797985864
105,24,14,Improv_Melody,160,9999,9999,9999,2798485604
105,24,14,Improv_Melody,161,9999,9999,9999,2798985300
