pid,taskRunCount,taskID,taskName,i,channel,pitch,velocity,microseconds
1,1,Ticks_Pract_5,0,5,42,127,84221396
1071,1,Ticks_Pract_5,1,5,42,127,84720888
1071,1,Ticks_Pract_5,2,5,42,127,85220828
1071,1,Ticks_Pract_5,3,5,42,127,85720396
1071,1,Ticks_Pract_5,4,5,42,127,86221308
1071,1,Ticks_Pract_5,5,5,42,127,86720800
1071,1,Ticks_Pract_5,6,5,42,127,87220520
1071,1,Ticks_Pract_5,7,5,42,127,87721280
1071,1,Ticks_Pract_5,8,5,42,127,88221220
1071,1,Ticks_Pract_5,9,1,48,53,88268620
1071,1,Ticks_Pract_5,10,1,48,44,88661088
1071,1,Ticks_Pract_5,11,5,42,127,88720684
1071,1,Ticks_Pract_5,12,1,48,45,89220388
1071,1,Ticks_Pract_5,13,5,42,127,89221648
1071,1,Ticks_Pract_5,14,1,48,52,89706656
1071,1,Ticks_Pract_5,15,5,42,127,89721196
1071,1,Ticks_Pract_5,16,5,42,127,90220824
1071,1,Ticks_Pract_5,17,1,48,51,90234340
1071,1,Ticks_Pract_5,18,1,48,49,90709460
1071,1,Ticks_Pract_5,19,5,42,127,90720560
1071,1,Ticks_Pract_5,20,1,48,50,91211468
1071,1,Ticks_Pract_5,21,5,42,127,91221300
1071,1,Ticks_Pract_5,22,1,48,55,91713856
1071,1,Ticks_Pract_5,23,5,42,127,91721220
1071,1,Ticks_Pract_5,24,5,42,127,92220848
1071,1,Ticks_Pract_5,25,1,48,48,92232868
1071,1,Ticks_Pract_5,26,5,42,127,92720540
1071,1,Ticks_Pract_5,27,1,48,48,92728452
1071,1,Ticks_Pract_5,28,5,42,127,93221208
1071,1,Ticks_Pract_5,29,1,48,50,93244748
1071,1,Ticks_Pract_5,30,1,48,54,93708300
1071,1,Ticks_Pract_5,31,5,42,127,93721120
1071,1,Ticks_Pract_5,32,1,48,53,94205892
1071,1,Ticks_Pract_5,33,5,42,127,94220668
1071,1,Ticks_Pract_5,34,1,48,54,94703052
1071,1,Ticks_Pract_5,35,5,42,127,94721336
1071,1,Ticks_Pract_5,36,1,48,46,95213512
1071,1,Ticks_Pract_5,37,5,42,127,95221180
1071,1,Ticks_Pract_5,38,5,42,127,95720956
1071,1,Ticks_Pract_5,39,1,48,48,95721996
1071,1,Ticks_Pract_5,40,1,48,45,96204228
1071,1,Ticks_Pract_5,41,5,42,127,96220568
1071,1,Ticks_Pract_5,42,5,42,127,96721244
1071,1,Ticks_Pract_5,43,1,48,44,96722956
1071,1,Ticks_Pract_5,44,5,42,127,97221160
1071,1,Ticks_Pract_5,45,1,48,41,97224652
1071,1,Ticks_Pract_5,46,1,48,43,97720928
1071,1,Ticks_Pract_5,47,5,42,127,97722192
1071,1,Ticks_Pract_5,48,1,48,43,98212136
1071,1,Ticks_Pract_5,49,5,42,127,98221440
1071,1,Ticks_Pract_5,50,1,48,40,98689764
1071,1,Ticks_Pract_5,51,5,42,127,98721436
1071,1,Ticks_Pract_5,52,5,42,127,99220840
1071,1,Ticks_Pract_5,53,1,48,45,99230684
1071,1,Ticks_Pract_5,54,1,48,39,99688780
1071,1,Ticks_Pract_5,55,5,42,127,99720524
1071,1,Ticks_Pract_5,56,1,48,20,99769556
1071,1,Ticks_Pract_5,57,5,42,127,100221328
1071,1,Ticks_Pract_5,58,1,48,48,100222292
1071,1,Ticks_Pract_5,59,5,42,127,100721244
1071,1,Ticks_Pract_5,60,1,48,45,100723184
1071,1,Ticks_Pract_5,61,1,48,43,101209656
1071,1,Ticks_Pract_5,62,5,42,127,101220684
1071,1,Ticks_Pract_5,63,1,48,42,101717204
1071,1,Ticks_Pract_5,64,5,42,127,101720452
1071,1,Ticks_Pract_5,65,1,48,42,102218320
1071,1,Ticks_Pract_5,66,5,42,127,102221272
1071,1,Ticks_Pract_5,67,5,42,127,102720824
1071,1,Ticks_Pract_5,68,1,48,42,102727012
1071,1,Ticks_Pract_5,69,5,42,127,103220592
1071,1,Ticks_Pract_5,70,1,48,50,103228648
1071,1,Ticks_Pract_5,71,1,48,43,103712540
1071,1,Ticks_Pract_5,72,5,42,127,103721252
1071,1,Ticks_Pract_5,73,1,48,19,103793940
1071,1,Ticks_Pract_5,0,9999,9999,9999,84218960
1071,1,Ticks_Pract_5,1,9999,9999,9999,84718676
1071,1,Ticks_Pract_5,2,9999,9999,9999,85218392
1071,1,Ticks_Pract_5,3,9999,9999,9999,85718108
1071,1,Ticks_Pract_5,4,9999,9999,9999,86218872
1071,1,Ticks_Pract_5,5,9999,9999,9999,86718516
1071,1,Ticks_Pract_5,6,9999,9999,9999,87218232
1071,1,Ticks_Pract_5,7,9999,9999,9999,87718996
1071,1,Ticks_Pract_5,8,9999,9999,9999,88218712
1071,1,Ticks_Pract_5,9,9999,9999,9999,88718400
1071,1,Ticks_Pract_5,10,9999,9999,9999,89218100
1071,1,Ticks_Pract_5,11,9999,9999,9999,89718836
1071,1,Ticks_Pract_5,12,9999,9999,9999,90218612
1071,1,Ticks_Pract_5,13,9999,9999,9999,90718276
1071,1,Ticks_Pract_5,14,9999,9999,9999,91219016
1071,1,Ticks_Pract_5,15,9999,9999,9999,91718712
1071,1,Ticks_Pract_5,16,9999,9999,9999,92218488
1071,1,Ticks_Pract_5,17,9999,9999,9999,92718180
1071,1,Ticks_Pract_5,18,9999,9999,9999,93218924
1071,1,Ticks_Pract_5,19,9999,9999,9999,93718612
1071,1,Ticks_Pract_5,20,9999,9999,9999,94218308
1071,1,Ticks_Pract_5,21,9999,9999,9999,94719048
1071,1,Ticks_Pract_5,22,9999,9999,9999,95218744
1071,1,Ticks_Pract_5,23,9999,9999,9999,95718520
1071,1,Ticks_Pract_5,24,9999,9999,9999,96218208
1071,1,Ticks_Pract_5,25,9999,9999,9999,96718956
1071,1,Ticks_Pract_5,26,9999,9999,9999,97218652
1071,1,Ticks_Pract_5,27,9999,9999,9999,97718344
1071,1,Ticks_Pract_5,28,9999,9999,9999,98219080
1071,1,Ticks_Pract_5,29,9999,9999,9999,98718776
1071,1,Ticks_Pract_5,30,9999,9999,9999,99218552
1071,1,Ticks_Pract_5,31,9999,9999,9999,99718240
1071,1,Ticks_Pract_5,32,9999,9999,9999,100218964
1071,1,Ticks_Pract_5,33,9999,9999,9999,100718660
1071,1,Ticks_Pract_5,34,9999,9999,9999,101218400
1071,1,Ticks_Pract_5,35,9999,9999,9999,101718092
1071,1,Ticks_Pract_5,36,9999,9999,9999,102218836
1071,1,Ticks_Pract_5,37,9999,9999,9999,102718536
1071,1,Ticks_Pract_5,38,9999,9999,9999,103218232
1071,1,Ticks_Pract_5,39,9999,9999,9999,103718964
1072,0,Ticks_Pract_8,0,5,42,127,156399936
1072,0,Ticks_Pract_8,1,5,42,127,157199688
1072,0,Ticks_Pract_8,2,5,42,127,157999520
1072,0,Ticks_Pract_8,3,5,42,127,158800692
1072,0,Ticks_Pract_8,4,5,42,127,159599952
1072,0,Ticks_Pract_8,5,5,42,127,160399708
1072,0,Ticks_Pract_8,6,5,42,127,161199388
1072,0,Ticks_Pract_8,7,5,42,127,162000412
1072,0,Ticks_Pract_8,8,5,42,127,162799948
1072,0,Ticks_Pract_8,9,1,48,62,162810468
1072,0,Ticks_Pract_8,10,1,48,67,163578172
1072,0,Ticks_Pract_8,11,5,42,127,163599744
1072,0,Ticks_Pract_8,12,1,48,58,164393016
1072,0,Ticks_Pract_8,13,5,42,127,164399480
1072,0,Ticks_Pract_8,14,5,42,127,165200192
1072,0,Ticks_Pract_8,15,1,48,46,165216704
1072,0,Ticks_Pract_8,16,5,42,127,165999880
1072,0,Ticks_Pract_8,17,1,48,49,166042040
1072,0,Ticks_Pract_8,18,1,48,39,166794932
1072,0,Ticks_Pract_8,19,5,42,127,166799680
1072,0,Ticks_Pract_8,20,5,42,127,167599420
1072,0,Ticks_Pract_8,21,1,48,35,167613460
1072,0,Ticks_Pract_8,22,5,42,127,168400200
1072,0,Ticks_Pract_8,23,1,48,43,168405260
1072,0,Ticks_Pract_8,24,5,42,127,169199856
1072,0,Ticks_Pract_8,25,1,48,39,169213668
1072,0,Ticks_Pract_8,26,1,48,46,169979356
1072,0,Ticks_Pract_8,27,5,42,127,169999660
1072,0,Ticks_Pract_8,28,5,42,127,170799548
1072,0,Ticks_Pract_8,29,1,48,41,170803712
1072,0,Ticks_Pract_8,30,5,42,127,171600328
1072,0,Ticks_Pract_8,31,1,48,43,171636232
1072,0,Ticks_Pract_8,32,1,48,49,172379156
1072,0,Ticks_Pract_8,33,5,42,127,172399856
1072,0,Ticks_Pract_8,34,1,48,47,173193116
1072,0,Ticks_Pract_8,35,5,42,127,173199664
1072,0,Ticks_Pract_8,36,1,48,45,173994200
1072,0,Ticks_Pract_8,37,5,42,127,173999544
1072,0,Ticks_Pract_8,38,5,42,127,174800260
1072,0,Ticks_Pract_8,39,1,48,52,174804868
1072,0,Ticks_Pract_8,40,5,42,127,175599840
1072,0,Ticks_Pract_8,41,1,48,40,175626068
1072,0,Ticks_Pract_8,42,1,48,44,176395644
1072,0,Ticks_Pract_8,43,5,42,127,176399792
1072,0,Ticks_Pract_8,44,1,48,40,177190740
1072,0,Ticks_Pract_8,45,5,42,127,177199452
1072,0,Ticks_Pract_8,46,1,48,51,177996232
1072,0,Ticks_Pract_8,47,5,42,127,178000156
1072,0,Ticks_Pract_8,48,5,42,127,178800072
1072,0,Ticks_Pract_8,49,1,48,49,178823684
1072,0,Ticks_Pract_8,50,1,48,47,179599132
1072,0,Ticks_Pract_8,51,5,42,127,179600472
1072,0,Ticks_Pract_8,0,9999,9999,9999,156397648
1072,0,Ticks_Pract_8,1,9999,9999,9999,157197400
1072,0,Ticks_Pract_8,2,9999,9999,9999,157997156
1072,0,Ticks_Pract_8,3,9999,9999,9999,158797884
1072,0,Ticks_Pract_8,4,9999,9999,9999,159597664
1072,0,Ticks_Pract_8,5,9999,9999,9999,160397420
1072,0,Ticks_Pract_8,6,9999,9999,9999,161197172
1072,0,Ticks_Pract_8,7,9999,9999,9999,161997900
1072,0,Ticks_Pract_8,8,9999,9999,9999,162797656
1072,0,Ticks_Pract_8,9,9999,9999,9999,163597384
1072,0,Ticks_Pract_8,10,9999,9999,9999,164397120
1072,0,Ticks_Pract_8,11,9999,9999,9999,165197904
1072,0,Ticks_Pract_8,12,9999,9999,9999,165997664
1072,0,Ticks_Pract_8,13,9999,9999,9999,166797392
1072,0,Ticks_Pract_8,14,9999,9999,9999,167597132
1072,0,Ticks_Pract_8,15,9999,9999,9999,168397912
1072,0,Ticks_Pract_8,16,9999,9999,9999,169197644
1072,0,Ticks_Pract_8,17,9999,9999,9999,169997372
1072,0,Ticks_Pract_8,18,9999,9999,9999,170797112
1072,0,Ticks_Pract_8,19,9999,9999,9999,171597892
1072,0,Ticks_Pract_8,20,9999,9999,9999,172397640
1072,0,Ticks_Pract_8,21,9999,9999,9999,173197376
1072,0,Ticks_Pract_8,22,9999,9999,9999,173997108
1072,0,Ticks_Pract_8,23,9999,9999,9999,174797896
1072,0,Ticks_Pract_8,24,9999,9999,9999,175597628
1072,0,Ticks_Pract_8,25,9999,9999,9999,176397356
1072,0,Ticks_Pract_8,26,9999,9999,9999,177197164
1072,0,Ticks_Pract_8,27,9999,9999,9999,177997868
1072,0,Ticks_Pract_8,28,9999,9999,9999,178797636
1072,0,Ticks_Pract_8,29,9999,9999,9999,179597368
1073,4,T1_SMS_5,0,5,42,127,286704908
1073,4,T1_SMS_5,1,5,42,127,287204924
1073,4,T1_SMS_5,2,5,42,127,287704640
1073,4,T1_SMS_5,3,5,42,127,288205032
1073,4,T1_SMS_5,4,5,42,127,288704896
1073,4,T1_SMS_5,5,5,42,127,289204836
1073,4,T1_SMS_5,6,5,42,127,289705300
1073,4,T1_SMS_5,7,5,42,127,290205092
1073,4,T1_SMS_5,8,5,42,127,290704808
1073,4,T1_SMS_5,9,1,48,43,290706220
1073,4,T1_SMS_5,10,1,48,47,291167516
1073,4,T1_SMS_5,11,5,42,127,291204720
1073,4,T1_SMS_5,12,1,48,44,291686512
1073,4,T1_SMS_5,13,5,42,127,291705092
1073,4,T1_SMS_5,14,5,42,127,292204792
1073,4,T1_SMS_5,15,1,48,45,292205756
1073,4,T1_SMS_5,16,1,48,41,292692972
1073,4,T1_SMS_5,17,5,42,127,292704700
1073,4,T1_SMS_5,18,1,48,41,293191848
1073,4,T1_SMS_5,19,5,42,127,293205492
1073,4,T1_SMS_5,20,1,48,41,293694832
1073,4,T1_SMS_5,21,5,42,127,293705040
1073,4,T1_SMS_5,22,5,42,127,294204740
1073,4,T1_SMS_5,23,1,48,42,294207188
1073,4,T1_SMS_5,24,5,42,127,294704660
1073,4,T1_SMS_5,25,1,48,42,294720944
1073,4,T1_SMS_5,26,1,48,36,295203360
1073,4,T1_SMS_5,27,5,42,127,295205172
1073,4,T1_SMS_5,28,5,42,127,295704800
1073,4,T1_SMS_5,29,1,48,35,295710536
1073,4,T1_SMS_5,30,5,42,127,296204568
1073,4,T1_SMS_5,31,1,48,45,296221376
1073,4,T1_SMS_5,32,5,42,127,296705384
1073,4,T1_SMS_5,33,1,48,42,296710600
1073,4,T1_SMS_5,34,5,42,127,297205152
1073,4,T1_SMS_5,35,1,48,38,297209924
1073,4,T1_SMS_5,36,5,42,127,297704772
1073,4,T1_SMS_5,37,1,48,41,297712452
1073,4,T1_SMS_5,38,5,42,127,298204468
1073,4,T1_SMS_5,39,1,48,39,298233096
1073,4,T1_SMS_5,40,5,42,127,298705356
1073,4,T1_SMS_5,41,1,48,38,298715360
1073,4,T1_SMS_5,42,1,48,33,299188264
1073,4,T1_SMS_5,43,5,42,127,299204972
1073,4,T1_SMS_5,44,5,42,127,299704676
1073,4,T1_SMS_5,45,1,48,45,299710036
1073,4,T1_SMS_5,46,5,42,127,300205564
1073,4,T1_SMS_5,47,1,48,42,300230596
1073,4,T1_SMS_5,48,5,42,127,300705036
1073,4,T1_SMS_5,49,1,48,43,300706000
1073,4,T1_SMS_5,50,1,48,42,301199304
1073,4,T1_SMS_5,51,5,42,127,301204724
1073,4,T1_SMS_5,52,1,48,44,301686508
1073,4,T1_SMS_5,53,5,42,127,301704496
1073,4,T1_SMS_5,54,5,42,127,302205540
1073,4,T1_SMS_5,55,1,48,40,302208884
1073,4,T1_SMS_5,56,1,48,45,302704636
1073,4,T1_SMS_5,57,5,42,127,302706052
1073,4,T1_SMS_5,58,5,42,127,303204632
1073,4,T1_SMS_5,59,1,48,44,303206576
1073,4,T1_SMS_5,60,5,42,127,303704528
1073,4,T1_SMS_5,61,1,48,45,303707204
1073,4,T1_SMS_5,62,1,48,48,304189900
1073,4,T1_SMS_5,63,5,42,127,304205116
1073,4,T1_SMS_5,64,5,42,127,304704892
1073,4,T1_SMS_5,65,1,48,49,304719232
1073,4,T1_SMS_5,66,1,48,49,305198564
1073,4,T1_SMS_5,67,5,42,127,305204728
1073,4,T1_SMS_5,68,1,48,47,305694368
1073,4,T1_SMS_5,69,5,42,127,305705544
1073,4,T1_SMS_5,70,1,48,52,306202828
1073,4,T1_SMS_5,71,5,42,127,306204940
1073,4,T1_SMS_5,72,5,42,127,306704720
1073,4,T1_SMS_5,73,1,48,56,306710908
1073,4,T1_SMS_5,74,1,48,54,307192704
1073,4,T1_SMS_5,75,5,42,127,307204408
1073,4,T1_SMS_5,76,5,42,127,307705600
1073,4,T1_SMS_5,77,1,48,49,307721516
1073,4,T1_SMS_5,78,5,42,127,308204996
1073,4,T1_SMS_5,79,1,48,48,308212308
1073,4,T1_SMS_5,80,5,42,127,308704544
1073,4,T1_SMS_5,81,1,48,51,308721424
1073,4,T1_SMS_5,82,5,42,127,309205660
1073,4,T1_SMS_5,83,1,48,45,309212892
1073,4,T1_SMS_5,84,5,42,127,309705056
1073,4,T1_SMS_5,85,1,48,54,309723732
1073,4,T1_SMS_5,86,5,42,127,310204900
1073,4,T1_SMS_5,87,1,48,56,310208992
1073,4,T1_SMS_5,88,5,42,127,310704444
1073,4,T1_SMS_5,89,1,48,56,310708316
1073,4,T1_SMS_5,90,5,42,127,311205412
1073,4,T1_SMS_5,91,1,48,49,311215860
1073,4,T1_SMS_5,92,5,42,127,311704956
1073,4,T1_SMS_5,93,1,48,44,311705924
1073,4,T1_SMS_5,94,5,42,127,312204504
1073,4,T1_SMS_5,95,1,48,46,312207248
1073,4,T1_SMS_5,96,5,42,127,312705544
1073,4,T1_SMS_5,97,1,48,46,312727436
1073,4,T1_SMS_5,98,1,48,50,313203812
1073,4,T1_SMS_5,99,5,42,127,313205380
1073,4,T1_SMS_5,100,1,48,51,313689316
1073,4,T1_SMS_5,101,5,42,127,313704780
1073,4,T1_SMS_5,102,5,42,127,314204532
1073,4,T1_SMS_5,103,1,48,47,314205748
1073,4,T1_SMS_5,104,1,48,44,314699624
1073,4,T1_SMS_5,105,5,42,127,314705416
1073,4,T1_SMS_5,106,1,48,50,315180696
1073,4,T1_SMS_5,107,5,42,127,315204960
1073,4,T1_SMS_5,108,1,48,45,315674552
1073,4,T1_SMS_5,109,5,42,127,315704732
1073,4,T1_SMS_5,110,1,48,52,316167520
1073,4,T1_SMS_5,111,5,42,127,316205624
1073,4,T1_SMS_5,112,1,48,45,316671404
1073,4,T1_SMS_5,113,5,42,127,316705096
1073,4,T1_SMS_5,114,1,48,49,317178132
1073,4,T1_SMS_5,115,5,42,127,317204716
1073,4,T1_SMS_5,116,1,48,43,317679700
1073,4,T1_SMS_5,117,5,42,127,317704560
1073,4,T1_SMS_5,118,1,48,49,318153960
1073,4,T1_SMS_5,119,5,42,127,318205376
1073,4,T1_SMS_5,120,1,48,43,318676612
1073,4,T1_SMS_5,121,5,42,127,318704924
1073,4,T1_SMS_5,122,1,48,47,319159780
1073,4,T1_SMS_5,123,5,42,127,319204692
1073,4,T1_SMS_5,124,1,48,43,319682360
1073,4,T1_SMS_5,125,5,42,127,319704612
1073,4,T1_SMS_5,126,1,48,51,320192080
1073,4,T1_SMS_5,127,5,42,127,320205276
1073,4,T1_SMS_5,128,5,42,127,320704828
1073,4,T1_SMS_5,129,1,48,55,320710640
1073,4,T1_SMS_5,130,5,42,127,321204528
1073,4,T1_SMS_5,131,1,48,45,321212584
1073,4,T1_SMS_5,132,1,48,53,321691464
1073,4,T1_SMS_5,133,5,42,127,321705260
1073,4,T1_SMS_5,134,1,48,48,322183980
1073,4,T1_SMS_5,135,5,42,127,322205180
1073,4,T1_SMS_5,136,1,48,45,322695716
1073,4,T1_SMS_5,137,5,42,127,322704652
1073,4,T1_SMS_5,138,1,48,49,323185236
1073,4,T1_SMS_5,139,5,42,127,323204420
1073,4,T1_SMS_5,140,5,42,127,323705172
1073,4,T1_SMS_5,141,1,48,45,323715620
1073,4,T1_SMS_5,142,5,42,127,324204864
1073,4,T1_SMS_5,143,1,48,40,324210600
1073,4,T1_SMS_5,144,1,48,53,324691704
1073,4,T1_SMS_5,145,5,42,127,324704552
1073,4,T1_SMS_5,146,1,48,54,325178084
1073,4,T1_SMS_5,147,5,42,127,325205272
1073,4,T1_SMS_5,148,1,48,48,325685560
1073,4,T1_SMS_5,149,5,42,127,325705192
1073,4,T1_SMS_5,150,5,42,127,326204744
1073,4,T1_SMS_5,151,1,48,56,326214592
1073,4,T1_SMS_5,152,5,42,127,326704588
1073,4,T1_SMS_5,153,1,48,43,326719376
1073,4,T1_SMS_5,154,1,48,48,327189060
1073,4,T1_SMS_5,155,5,42,127,327205324
1073,4,T1_SMS_5,156,1,48,48,327672668
1073,4,T1_SMS_5,157,5,42,127,327704796
1073,4,T1_SMS_5,158,1,48,32,328192708
1073,4,T1_SMS_5,159,5,42,127,328204636
1073,4,T1_SMS_5,160,1,48,45,328693600
1073,4,T1_SMS_5,161,5,42,127,328705380
1073,4,T1_SMS_5,162,1,48,40,329186188
1073,4,T1_SMS_5,163,5,42,127,329205296
1073,4,T1_SMS_5,164,1,48,49,329675940
1073,4,T1_SMS_5,165,5,42,127,329704696
1073,4,T1_SMS_5,166,1,48,51,330196800
1073,4,T1_SMS_5,167,5,42,127,330204464
1073,4,T1_SMS_5,168,1,48,51,330695224
1073,4,T1_SMS_5,169,5,42,127,330705132
1073,4,T1_SMS_5,170,1,48,54,331178468
1073,4,T1_SMS_5,171,5,42,127,331205124
1073,4,T1_SMS_5,172,1,48,43,331681300
1073,4,T1_SMS_5,173,5,42,127,331704672
1073,4,T1_SMS_5,174,5,42,127,332205344
1073,4,T1_SMS_5,175,1,48,46,332219012
1073,4,T1_SMS_5,176,1,48,43,332697444
1073,4,T1_SMS_5,177,5,42,127,332705256
1073,4,T1_SMS_5,178,1,48,47,333189140
1073,4,T1_SMS_5,179,5,42,127,333205024
1073,4,T1_SMS_5,180,1,48,48,333685240
1073,4,T1_SMS_5,181,5,42,127,333704496
1073,4,T1_SMS_5,182,1,48,47,334185008
1073,4,T1_SMS_5,183,5,42,127,334205164
1073,4,T1_SMS_5,184,1,48,50,334695924
1073,4,T1_SMS_5,185,5,42,127,334704932
1073,4,T1_SMS_5,186,1,48,39,335200180
1073,4,T1_SMS_5,187,5,42,127,335204704
1073,4,T1_SMS_5,188,5,42,127,335704380
1073,4,T1_SMS_5,189,1,48,40,335738944
1073,4,T1_SMS_5,190,1,48,46,336190648
1073,4,T1_SMS_5,191,5,42,127,336205188
1073,4,T1_SMS_5,192,1,48,40,336689444
1073,4,T1_SMS_5,193,5,42,127,336704808
1073,4,T1_SMS_5,194,5,42,127,337204512
1073,4,T1_SMS_5,195,1,48,40,337215636
1073,4,T1_SMS_5,196,1,48,50,337699452
1073,4,T1_SMS_5,197,5,42,127,337705468
1073,4,T1_SMS_5,198,5,42,127,338205172
1073,4,T1_SMS_5,199,1,48,51,338223624
1073,4,T1_SMS_5,200,5,42,127,338704640
1073,4,T1_SMS_5,201,1,48,46,338731992
1073,4,T1_SMS_5,202,1,48,47,339160984
1073,4,T1_SMS_5,203,5,42,127,339204476
1073,4,T1_SMS_5,204,5,42,127,339705152
1073,4,T1_SMS_5,205,1,48,41,339706044
1073,4,T1_SMS_5,206,5,42,127,340204996
1073,4,T1_SMS_5,207,1,48,45,340206480
1073,4,T1_SMS_5,208,5,42,127,340704468
1073,4,T1_SMS_5,209,1,48,44,340705432
1073,4,T1_SMS_5,210,1,48,44,341185196
1073,4,T1_SMS_5,211,5,42,127,341205352
1073,4,T1_SMS_5,212,5,42,127,341705280
1073,4,T1_SMS_5,213,1,48,43,341707144
1073,4,T1_SMS_5,214,5,42,127,342204676
1073,4,T1_SMS_5,215,1,48,48,342210488
1073,4,T1_SMS_5,216,1,48,47,342689896
1073,4,T1_SMS_5,217,5,42,127,342704440
1073,4,T1_SMS_5,218,1,48,47,343185396
1073,4,T1_SMS_5,219,5,42,127,343205180
1073,4,T1_SMS_5,220,1,48,48,343703904
1073,4,T1_SMS_5,221,5,42,127,343705468
1073,4,T1_SMS_5,222,5,42,127,344204576
1073,4,T1_SMS_5,223,1,48,46,344223104
1073,4,T1_SMS_5,224,1,48,44,344697576
1073,4,T1_SMS_5,225,5,42,127,344705388
1073,4,T1_SMS_5,226,5,42,127,345205236
1073,4,T1_SMS_5,227,1,48,44,345214788
1073,4,T1_SMS_5,228,5,42,127,345705080
1073,4,T1_SMS_5,229,1,48,48,345722264
1073,4,T1_SMS_5,230,1,48,57,346201348
1073,4,T1_SMS_5,231,5,42,127,346204472
1073,4,T1_SMS_5,232,5,42,127,346705196
1073,4,T1_SMS_5,233,1,48,50,346714596
1073,4,T1_SMS_5,234,5,42,127,347205188
1073,4,T1_SMS_5,235,1,48,47,347214968
1073,4,T1_SMS_5,236,1,48,40,347699908
1073,4,T1_SMS_5,237,5,42,127,347704652
1073,4,T1_SMS_5,238,1,48,43,348196988
1073,4,T1_SMS_5,239,5,42,127,348205544
1073,4,T1_SMS_5,240,1,48,43,348692040
1073,4,T1_SMS_5,241,5,42,127,348705240
1073,4,T1_SMS_5,242,5,42,127,349205016
1073,4,T1_SMS_5,243,1,48,41,349213972
1073,4,T1_SMS_5,244,1,48,50,349698092
1073,4,T1_SMS_5,245,5,42,127,349704556
1073,4,T1_SMS_5,246,1,48,44,350203788
1073,4,T1_SMS_5,247,5,42,127,350205296
1073,4,T1_SMS_5,248,1,48,45,350691424
1073,4,T1_SMS_5,249,5,42,127,350705140
1073,4,T1_SMS_5,250,1,48,46,351197996
1073,4,T1_SMS_5,251,5,42,127,351204688
1073,4,T1_SMS_5,0,9999,9999,9999,286702696
1073,4,T1_SMS_5,1,9999,9999,9999,287202412
1073,4,T1_SMS_5,2,9999,9999,9999,287702132
1073,4,T1_SMS_5,3,9999,9999,9999,288202816
1073,4,T1_SMS_5,4,9999,9999,9999,288702536
1073,4,T1_SMS_5,5,9999,9999,9999,289202252
1073,4,T1_SMS_5,6,9999,9999,9999,289703012
1073,4,T1_SMS_5,7,9999,9999,9999,290202732
1073,4,T1_SMS_5,8,9999,9999,9999,290702448
1073,4,T1_SMS_5,9,9999,9999,9999,291202136
1073,4,T1_SMS_5,10,9999,9999,9999,291702880
1073,4,T1_SMS_5,11,9999,9999,9999,292202580
1073,4,T1_SMS_5,12,9999,9999,9999,292702268
1073,4,T1_SMS_5,13,9999,9999,9999,293203056
1073,4,T1_SMS_5,14,9999,9999,9999,293702752
1073,4,T1_SMS_5,15,9999,9999,9999,294202456
1073,4,T1_SMS_5,16,9999,9999,9999,294702152
1073,4,T1_SMS_5,17,9999,9999,9999,295202908
1073,4,T1_SMS_5,18,9999,9999,9999,295702588
1073,4,T1_SMS_5,19,9999,9999,9999,296202356
1073,4,T1_SMS_5,20,9999,9999,9999,296703024
1073,4,T1_SMS_5,21,9999,9999,9999,297202792
1073,4,T1_SMS_5,22,9999,9999,9999,297702488
1073,4,T1_SMS_5,23,9999,9999,9999,298202180
1073,4,T1_SMS_5,24,9999,9999,9999,298702920
1073,4,T1_SMS_5,25,9999,9999,9999,299202612
1073,4,T1_SMS_5,26,9999,9999,9999,299702388
1073,4,T1_SMS_5,27,9999,9999,9999,300203128
1073,4,T1_SMS_5,28,9999,9999,9999,300702824
1073,4,T1_SMS_5,29,9999,9999,9999,301202512
1073,4,T1_SMS_5,30,9999,9999,9999,301702208
1073,4,T1_SMS_5,31,9999,9999,9999,302202956
1073,4,T1_SMS_5,32,9999,9999,9999,302702652
1073,4,T1_SMS_5,33,9999,9999,9999,303202420
1073,4,T1_SMS_5,34,9999,9999,9999,303702092
1073,4,T1_SMS_5,35,9999,9999,9999,304202828
1073,4,T1_SMS_5,36,9999,9999,9999,304702532
1073,4,T1_SMS_5,37,9999,9999,9999,305202292
1073,4,T1_SMS_5,38,9999,9999,9999,305702960
1073,4,T1_SMS_5,39,9999,9999,9999,306202692
1073,4,T1_SMS_5,40,9999,9999,9999,306702432
1073,4,T1_SMS_5,41,9999,9999,9999,307202120
1073,4,T1_SMS_5,42,9999,9999,9999,307702868
1073,4,T1_SMS_5,43,9999,9999,9999,308202564
1073,4,T1_SMS_5,44,9999,9999,9999,308702260
1073,4,T1_SMS_5,45,9999,9999,9999,309203000
1073,4,T1_SMS_5,46,9999,9999,9999,309702768
1073,4,T1_SMS_5,47,9999,9999,9999,310202464
1073,4,T1_SMS_5,48,9999,9999,9999,310702160
1073,4,T1_SMS_5,49,9999,9999,9999,311202900
1073,4,T1_SMS_5,50,9999,9999,9999,311702596
1073,4,T1_SMS_5,51,9999,9999,9999,312202292
1073,4,T1_SMS_5,52,9999,9999,9999,312703032
1073,4,T1_SMS_5,53,9999,9999,9999,313202804
1073,4,T1_SMS_5,54,9999,9999,9999,313702492
1073,4,T1_SMS_5,55,9999,9999,9999,314202172
1073,4,T1_SMS_5,56,9999,9999,9999,314702904
1073,4,T1_SMS_5,57,9999,9999,9999,315202676
1073,4,T1_SMS_5,58,9999,9999,9999,315702372
1073,4,T1_SMS_5,59,9999,9999,9999,316203112
1073,4,T1_SMS_5,60,9999,9999,9999,316702808
1073,4,T1_SMS_5,61,9999,9999,9999,317202504
1073,4,T1_SMS_5,62,9999,9999,9999,317702200
1073,4,T1_SMS_5,63,9999,9999,9999,318202940
1073,4,T1_SMS_5,64,9999,9999,9999,318702712
1073,4,T1_SMS_5,65,9999,9999,9999,319202404
1073,4,T1_SMS_5,66,9999,9999,9999,319702100
1073,4,T1_SMS_5,67,9999,9999,9999,320202840
1073,4,T1_SMS_5,68,9999,9999,9999,320702544
1073,4,T1_SMS_5,69,9999,9999,9999,321202240
1073,4,T1_SMS_5,70,9999,9999,9999,321702976
1073,4,T1_SMS_5,71,9999,9999,9999,322202744
1073,4,T1_SMS_5,72,9999,9999,9999,322702440
1073,4,T1_SMS_5,73,9999,9999,9999,323202136
1073,4,T1_SMS_5,74,9999,9999,9999,323702884
1073,4,T1_SMS_5,75,9999,9999,9999,324202580
1073,4,T1_SMS_5,76,9999,9999,9999,324702268
1073,4,T1_SMS_5,77,9999,9999,9999,325203060
1073,4,T1_SMS_5,78,9999,9999,9999,325702756
1073,4,T1_SMS_5,79,9999,9999,9999,326202456
1073,4,T1_SMS_5,80,9999,9999,9999,326702152
1073,4,T1_SMS_5,81,9999,9999,9999,327202888
1073,4,T1_SMS_5,82,9999,9999,9999,327702584
1073,4,T1_SMS_5,83,9999,9999,9999,328202352
1073,4,T1_SMS_5,84,9999,9999,9999,328703092
1073,4,T1_SMS_5,85,9999,9999,9999,329202788
1073,4,T1_SMS_5,86,9999,9999,9999,329702484
1073,4,T1_SMS_5,87,9999,9999,9999,330202180
1073,4,T1_SMS_5,88,9999,9999,9999,330702920
1073,4,T1_SMS_5,89,9999,9999,9999,331202616
1073,4,T1_SMS_5,90,9999,9999,9999,331702384
1073,4,T1_SMS_5,91,9999,9999,9999,332203060
1073,4,T1_SMS_5,92,9999,9999,9999,332702820
1073,4,T1_SMS_5,93,9999,9999,9999,333202516
1073,4,T1_SMS_5,94,9999,9999,9999,333702212
1073,4,T1_SMS_5,95,9999,9999,9999,334202952
1073,4,T1_SMS_5,96,9999,9999,9999,334702648
1073,4,T1_SMS_5,97,9999,9999,9999,335202416
1073,4,T1_SMS_5,98,9999,9999,9999,335702096
1073,4,T1_SMS_5,99,9999,9999,9999,336202828
1073,4,T1_SMS_5,100,9999,9999,9999,336702524
1073,4,T1_SMS_5,101,9999,9999,9999,337202224
1073,4,T1_SMS_5,102,9999,9999,9999,337703032
1073,4,T1_SMS_5,103,9999,9999,9999,338202736
1073,4,T1_SMS_5,104,9999,9999,9999,338702428
1073,4,T1_SMS_5,105,9999,9999,9999,339202116
1073,4,T1_SMS_5,106,9999,9999,9999,339702864
1073,4,T1_SMS_5,107,9999,9999,9999,340202560
1073,4,T1_SMS_5,108,9999,9999,9999,340702256
1073,4,T1_SMS_5,109,9999,9999,9999,341202992
1073,4,T1_SMS_5,110,9999,9999,9999,341702768
1073,4,T1_SMS_5,111,9999,9999,9999,342202464
1073,4,T1_SMS_5,112,9999,9999,9999,342702152
1073,4,T1_SMS_5,113,9999,9999,9999,343202892
1073,4,T1_SMS_5,114,9999,9999,9999,343702596
1073,4,T1_SMS_5,115,9999,9999,9999,344202288
1073,4,T1_SMS_5,116,9999,9999,9999,344703024
1073,4,T1_SMS_5,117,9999,9999,9999,345202804
1073,4,T1_SMS_5,118,9999,9999,9999,345702496
1073,4,T1_SMS_5,119,9999,9999,9999,346202160
1073,4,T1_SMS_5,120,9999,9999,9999,346702908
1073,4,T1_SMS_5,121,9999,9999,9999,347202676
1073,4,T1_SMS_5,122,9999,9999,9999,347702368
1073,4,T1_SMS_5,123,9999,9999,9999,348203108
1073,4,T1_SMS_5,124,9999,9999,9999,348702804
1073,4,T1_SMS_5,125,9999,9999,9999,349202504
1073,4,T1_SMS_5,126,9999,9999,9999,349702196
1073,4,T1_SMS_5,127,9999,9999,9999,350202940
1073,4,T1_SMS_5,128,9999,9999,9999,350702704
1073,4,T1_SMS_5,129,9999,9999,9999,351202400
1074,2,T1_SMS_8,0,5,42,127,423691580
1074,2,T1_SMS_8,1,5,42,127,424492380
1074,2,T1_SMS_8,2,5,42,127,425292064
1074,2,T1_SMS_8,3,5,42,127,426092064
1074,2,T1_SMS_8,4,1,48,56,426863736
1074,2,T1_SMS_8,5,5,42,127,426891516
1074,2,T1_SMS_8,6,1,48,50,427657032
1074,2,T1_SMS_8,7,5,42,127,427692444
1074,2,T1_SMS_8,8,5,42,127,428492112
1074,2,T1_SMS_8,9,1,48,54,428511984
1074,2,T1_SMS_8,10,5,42,127,429291992
1074,2,T1_SMS_8,11,1,48,53,429296684
1074,2,T1_SMS_8,12,1,48,50,430080616
1074,2,T1_SMS_8,13,5,42,127,430091572
1074,2,T1_SMS_8,14,1,48,51,430864040
1074,2,T1_SMS_8,15,5,42,127,430892276
1074,2,T1_SMS_8,16,1,48,54,431661460
1074,2,T1_SMS_8,17,5,42,127,431692232
1074,2,T1_SMS_8,18,5,42,127,432491848
1074,2,T1_SMS_8,19,1,48,43,432495864
1074,2,T1_SMS_8,20,1,48,69,433255336
1074,2,T1_SMS_8,21,5,42,127,433291576
1074,2,T1_SMS_8,22,5,42,127,434092360
1074,2,T1_SMS_8,23,1,48,57,434095628
1074,2,T1_SMS_8,24,1,48,42,434879716
1074,2,T1_SMS_8,25,5,42,127,434892164
1074,2,T1_SMS_8,26,1,48,55,435685128
1074,2,T1_SMS_8,27,5,42,127,435691820
1074,2,T1_SMS_8,28,1,48,69,436478208
1074,2,T1_SMS_8,29,5,42,127,436491556
1074,2,T1_SMS_8,30,5,42,127,437292492
1074,2,T1_SMS_8,31,1,48,61,437299652
1074,2,T1_SMS_8,32,1,48,40,438081040
1074,2,T1_SMS_8,33,5,42,127,438092292
1074,2,T1_SMS_8,34,1,48,51,438860280
1074,2,T1_SMS_8,35,5,42,127,438891976
1074,2,T1_SMS_8,36,1,48,57,439642832
1074,2,T1_SMS_8,37,5,42,127,439691708
1074,2,T1_SMS_8,38,1,48,55,440479144
1074,2,T1_SMS_8,39,5,42,127,440492340
1074,2,T1_SMS_8,40,1,48,53,441286428
1074,2,T1_SMS_8,41,5,42,127,441292000
1074,2,T1_SMS_8,42,5,42,127,442091964
1074,2,T1_SMS_8,43,1,48,51,442124176
1074,2,T1_SMS_8,44,5,42,127,442891772
1074,2,T1_SMS_8,45,1,48,50,442902368
1074,2,T1_SMS_8,46,5,42,127,443692328
1074,2,T1_SMS_8,47,1,48,54,443711904
1074,2,T1_SMS_8,48,1,48,32,444471752
1074,2,T1_SMS_8,49,5,42,127,444492056
1074,2,T1_SMS_8,50,1,48,62,445286388
1074,2,T1_SMS_8,51,5,42,127,445291964
1074,2,T1_SMS_8,52,5,42,127,446091552
1074,2,T1_SMS_8,53,1,48,44,446095044
1074,2,T1_SMS_8,54,5,42,127,446892332
1074,2,T1_SMS_8,55,1,48,61,446897620
1074,2,T1_SMS_8,56,1,48,56,447692584
1074,2,T1_SMS_8,57,5,42,127,447693624
1074,2,T1_SMS_8,58,5,42,127,448491872
1074,2,T1_SMS_8,59,1,48,53,448515636
1074,2,T1_SMS_8,60,5,42,127,449291828
1074,2,T1_SMS_8,61,1,48,59,449293396
1074,2,T1_SMS_8,62,1,48,54,450091408
1074,2,T1_SMS_8,63,5,42,127,450092972
1074,2,T1_SMS_8,64,1,48,51,450867400
1074,2,T1_SMS_8,65,5,42,127,450892040
1074,2,T1_SMS_8,66,1,48,49,451678896
1074,2,T1_SMS_8,67,5,42,127,451691872
1074,2,T1_SMS_8,68,1,48,59,452482520
1074,2,T1_SMS_8,69,5,42,127,452491828
1074,2,T1_SMS_8,70,1,48,52,453282552
1074,2,T1_SMS_8,71,5,42,127,453292388
1074,2,T1_SMS_8,72,1,48,55,454065008
1074,2,T1_SMS_8,73,5,42,127,454092044
1074,2,T1_SMS_8,74,1,48,56,454879176
1074,2,T1_SMS_8,75,5,42,127,454891852
1074,2,T1_SMS_8,76,1,48,55,455674124
1074,2,T1_SMS_8,77,5,42,127,455691808
1074,2,T1_SMS_8,78,5,42,127,456492376
1074,2,T1_SMS_8,79,1,48,55,456502972
1074,2,T1_SMS_8,80,1,48,47,457289912
1074,2,T1_SMS_8,81,5,42,127,457292024
1074,2,T1_SMS_8,82,1,48,59,458085988
1074,2,T1_SMS_8,83,5,42,127,458092008
1074,2,T1_SMS_8,84,1,48,61,458869640
1074,2,T1_SMS_8,85,5,42,127,458891816
1074,2,T1_SMS_8,86,5,42,127,459692528
1074,2,T1_SMS_8,87,1,48,55,459694392
1074,2,T1_SMS_8,88,5,42,127,460492040
1074,2,T1_SMS_8,89,1,48,47,460508848
1074,2,T1_SMS_8,90,1,48,55,461292072
1074,2,T1_SMS_8,91,5,42,127,461293408
1074,2,T1_SMS_8,92,1,48,47,462081592
1074,2,T1_SMS_8,93,5,42,127,462091572
1074,2,T1_SMS_8,94,1,48,52,462886184
1074,2,T1_SMS_8,95,5,42,127,462892356
1074,2,T1_SMS_8,96,5,42,127,463692096
1074,2,T1_SMS_8,97,1,48,53,463721644
1074,2,T1_SMS_8,98,1,48,51,464491780
1074,2,T1_SMS_8,99,5,42,127,464493192
1074,2,T1_SMS_8,100,1,48,55,465278532
1074,2,T1_SMS_8,101,5,42,127,465291580
1074,2,T1_SMS_8,102,5,42,127,466092516
1074,2,T1_SMS_8,103,1,48,51,466097212
1074,2,T1_SMS_8,104,1,48,47,466868652
1074,2,T1_SMS_8,105,5,42,127,466892172
1074,2,T1_SMS_8,106,1,48,43,467683792
1074,2,T1_SMS_8,107,5,42,127,467691904
1074,2,T1_SMS_8,108,1,48,55,468482700
1074,2,T1_SMS_8,109,5,42,127,468491488
1074,2,T1_SMS_8,110,1,48,55,469291900
1074,2,T1_SMS_8,111,5,42,127,469293540
1074,2,T1_SMS_8,112,5,42,127,470092084
1074,2,T1_SMS_8,113,1,48,50,470141008
1074,2,T1_SMS_8,114,5,42,127,470891992
1074,2,T1_SMS_8,115,1,48,58,470908428
1074,2,T1_SMS_8,116,5,42,127,471691724
1074,2,T1_SMS_8,117,1,48,58,471704416
1074,2,T1_SMS_8,118,1,48,62,472480496
1074,2,T1_SMS_8,119,5,42,127,472492572
1074,2,T1_SMS_8,120,1,48,60,473291868
1074,2,T1_SMS_8,121,5,42,127,473293280
1074,2,T1_SMS_8,122,5,42,127,474091972
1074,2,T1_SMS_8,123,1,48,56,474095692
1074,2,T1_SMS_8,124,1,48,54,474890876
1074,2,T1_SMS_8,125,5,42,127,474892448
1074,2,T1_SMS_8,126,1,48,26,474961000
1074,2,T1_SMS_8,127,1,48,53,475683000
1074,2,T1_SMS_8,128,5,42,127,475692752
1074,2,T1_SMS_8,129,5,42,127,476492196
1074,2,T1_SMS_8,130,1,48,60,476496360
1074,2,T1_SMS_8,131,5,42,127,477291956
1074,2,T1_SMS_8,132,1,48,59,477310556
1074,2,T1_SMS_8,133,5,42,127,478091616
1074,2,T1_SMS_8,134,1,48,57,478109544
1074,2,T1_SMS_8,135,1,48,49,478869996
1074,2,T1_SMS_8,136,5,42,127,478892316
1074,2,T1_SMS_8,137,1,48,52,479683640
1074,2,T1_SMS_8,138,5,42,127,479692272
1074,2,T1_SMS_8,139,1,48,50,480490888
1074,2,T1_SMS_8,140,5,42,127,480492452
1074,2,T1_SMS_8,141,5,42,127,481291524
1074,2,T1_SMS_8,142,1,48,64,481313044
1074,2,T1_SMS_8,143,5,42,127,482092380
1074,2,T1_SMS_8,144,1,48,55,482104020
1074,2,T1_SMS_8,145,1,48,48,482882048
1074,2,T1_SMS_8,146,5,42,127,482892404
1074,2,T1_SMS_8,147,5,42,127,483691796
1074,2,T1_SMS_8,148,1,48,25,483715032
1074,2,T1_SMS_8,149,1,48,50,484475404
1074,2,T1_SMS_8,150,5,42,127,484491596
1074,2,T1_SMS_8,151,1,48,55,485244548
1074,2,T1_SMS_8,152,5,42,127,485292304
1074,2,T1_SMS_8,153,1,48,58,486069864
1074,2,T1_SMS_8,154,5,42,127,486092260
1074,2,T1_SMS_8,155,1,48,54,486847908
1074,2,T1_SMS_8,156,5,42,127,486891772
1074,2,T1_SMS_8,157,1,48,57,487632824
1074,2,T1_SMS_8,158,5,42,127,487691652
1074,2,T1_SMS_8,159,1,48,57,488455376
1074,2,T1_SMS_8,160,5,42,127,488492360
1074,2,T1_SMS_8,161,1,48,53,489269548
1074,2,T1_SMS_8,162,5,42,127,489292316
1074,2,T1_SMS_8,163,1,48,53,490067632
1074,2,T1_SMS_8,164,5,42,127,490091924
1074,2,T1_SMS_8,165,1,48,56,490829972
1074,2,T1_SMS_8,166,5,42,127,490891584
1074,2,T1_SMS_8,167,1,48,61,491658148
1074,2,T1_SMS_8,168,5,42,127,491692512
1074,2,T1_SMS_8,169,1,48,54,492472692
1074,2,T1_SMS_8,170,5,42,127,492492320
1074,2,T1_SMS_8,171,1,48,57,493263376
1074,2,T1_SMS_8,172,5,42,127,493291832
1074,2,T1_SMS_8,173,1,48,50,494054584
1074,2,T1_SMS_8,174,5,42,127,494091492
1074,2,T1_SMS_8,175,1,48,54,494860748
1074,2,T1_SMS_8,176,5,42,127,494892348
1074,2,T1_SMS_8,177,1,48,50,495628544
1074,2,T1_SMS_8,178,5,42,127,495692228
1074,2,T1_SMS_8,179,1,48,61,496462756
1074,2,T1_SMS_8,180,5,42,127,496491916
1074,2,T1_SMS_8,181,1,48,51,497268428
1074,2,T1_SMS_8,182,5,42,127,497291648
1074,2,T1_SMS_8,183,1,48,53,498055068
1074,2,T1_SMS_8,184,5,42,127,498092428
1074,2,T1_SMS_8,185,5,42,127,498892316
1074,2,T1_SMS_8,186,1,48,50,498908076
1074,2,T1_SMS_8,187,5,42,127,499691976
1074,2,T1_SMS_8,188,1,48,48,499697792
1074,2,T1_SMS_8,189,1,48,51,500490784
1074,2,T1_SMS_8,190,5,42,127,500492200
1074,2,T1_SMS_8,191,1,48,53,501290348
1074,2,T1_SMS_8,192,5,42,127,501292312
1074,2,T1_SMS_8,193,5,42,127,502092348
1074,2,T1_SMS_8,194,1,48,54,502138876
1074,2,T1_SMS_8,195,1,48,45,502889004
1074,2,T1_SMS_8,196,5,42,127,502892028
1074,2,T1_SMS_8,197,1,48,59,503672500
1074,2,T1_SMS_8,198,5,42,127,503691612
1074,2,T1_SMS_8,199,1,48,51,504442244
1074,2,T1_SMS_8,200,5,42,127,504492316
1074,2,T1_SMS_8,201,1,48,54,505257312
1074,2,T1_SMS_8,202,5,42,127,505292272
1074,2,T1_SMS_8,203,1,48,62,506083372
1074,2,T1_SMS_8,204,5,42,127,506092080
1074,2,T1_SMS_8,205,1,48,50,506867252
1074,2,T1_SMS_8,206,5,42,127,506891740
1074,2,T1_SMS_8,207,1,48,52,507644992
1074,2,T1_SMS_8,208,5,42,127,507692520
1074,2,T1_SMS_8,209,1,48,53,508475544
1074,2,T1_SMS_8,210,5,42,127,508492256
1074,2,T1_SMS_8,211,1,48,57,509282488
1074,2,T1_SMS_8,212,5,42,127,509292092
1074,2,T1_SMS_8,213,5,42,127,510091684
1074,2,T1_SMS_8,214,1,48,56,510098692
1074,2,T1_SMS_8,215,1,48,57,510866548
1074,2,T1_SMS_8,216,5,42,127,510892532
1074,2,T1_SMS_8,217,5,42,127,511692268
1074,2,T1_SMS_8,218,1,48,59,511701300
1074,2,T1_SMS_8,219,1,48,55,512482016
1074,2,T1_SMS_8,220,5,42,127,512492072
1074,2,T1_SMS_8,221,5,42,127,513291736
1074,2,T1_SMS_8,222,1,48,45,513296272
1074,2,T1_SMS_8,223,5,42,127,514092368
1074,2,T1_SMS_8,224,1,48,57,514119872
1074,2,T1_SMS_8,225,5,42,127,514892248
1074,2,T1_SMS_8,226,1,48,48,514895892
1074,2,T1_SMS_8,227,1,48,44,515672816
1074,2,T1_SMS_8,228,5,42,127,515692148
1074,2,T1_SMS_8,229,5,42,127,516491964
1074,2,T1_SMS_8,230,1,48,57,516518052
1074,2,T1_SMS_8,231,1,48,42,517283060
1074,2,T1_SMS_8,232,5,42,127,517292368
1074,2,T1_SMS_8,233,5,42,127,518092104
1074,2,T1_SMS_8,234,1,48,35,518139132
1074,2,T1_SMS_8,235,5,42,127,518891988
1074,2,T1_SMS_8,236,1,48,60,518908948
1074,2,T1_SMS_8,0,9999,9999,9999,423689292
1074,2,T1_SMS_8,1,9999,9999,9999,424490092
1074,2,T1_SMS_8,2,9999,9999,9999,425289776
1074,2,T1_SMS_8,3,9999,9999,9999,426089556
1074,2,T1_SMS_8,4,9999,9999,9999,426889304
1074,2,T1_SMS_8,5,9999,9999,9999,427690084
1074,2,T1_SMS_8,6,9999,9999,9999,428489824
1074,2,T1_SMS_8,7,9999,9999,9999,429289556
1074,2,T1_SMS_8,8,9999,9999,9999,430089284
1074,2,T1_SMS_8,9,9999,9999,9999,430890064
1074,2,T1_SMS_8,10,9999,9999,9999,431689796
1074,2,T1_SMS_8,11,9999,9999,9999,432489560
1074,2,T1_SMS_8,12,9999,9999,9999,433289288
1074,2,T1_SMS_8,13,9999,9999,9999,434090072
1074,2,T1_SMS_8,14,9999,9999,9999,434889800
1074,2,T1_SMS_8,15,9999,9999,9999,435689532
1074,2,T1_SMS_8,16,9999,9999,9999,436489268
1074,2,T1_SMS_8,17,9999,9999,9999,437290056
1074,2,T1_SMS_8,18,9999,9999,9999,438089780
1074,2,T1_SMS_8,19,9999,9999,9999,438889540
1074,2,T1_SMS_8,20,9999,9999,9999,439689272
1074,2,T1_SMS_8,21,9999,9999,9999,440490052
1074,2,T1_SMS_8,22,9999,9999,9999,441289788
1074,2,T1_SMS_8,23,9999,9999,9999,442089524
1074,2,T1_SMS_8,24,9999,9999,9999,442889332
1074,2,T1_SMS_8,25,9999,9999,9999,443690040
1074,2,T1_SMS_8,26,9999,9999,9999,444489840
1074,2,T1_SMS_8,27,9999,9999,9999,445289524
1074,2,T1_SMS_8,28,9999,9999,9999,446089264
1074,2,T1_SMS_8,29,9999,9999,9999,446890044
1074,2,T1_SMS_8,30,9999,9999,9999,447689776
1074,2,T1_SMS_8,31,9999,9999,9999,448489584
1074,2,T1_SMS_8,32,9999,9999,9999,449289320
1074,2,T1_SMS_8,33,9999,9999,9999,450090096
1074,2,T1_SMS_8,34,9999,9999,9999,450889828
1074,2,T1_SMS_8,35,9999,9999,9999,451689584
1074,2,T1_SMS_8,36,9999,9999,9999,452489316
1074,2,T1_SMS_8,37,9999,9999,9999,453290100
1074,2,T1_SMS_8,38,9999,9999,9999,454089832
1074,2,T1_SMS_8,39,9999,9999,9999,454889564
1074,2,T1_SMS_8,40,9999,9999,9999,455689300
1074,2,T1_SMS_8,41,9999,9999,9999,456490084
1074,2,T1_SMS_8,42,9999,9999,9999,457289776
1074,2,T1_SMS_8,43,9999,9999,9999,458089572
1074,2,T1_SMS_8,44,9999,9999,9999,458889304
1074,2,T1_SMS_8,45,9999,9999,9999,459690092
1074,2,T1_SMS_8,46,9999,9999,9999,460489828
1074,2,T1_SMS_8,47,9999,9999,9999,461289560
1074,2,T1_SMS_8,48,9999,9999,9999,462089284
1074,2,T1_SMS_8,49,9999,9999,9999,462890064
1074,2,T1_SMS_8,50,9999,9999,9999,463689804
1074,2,T1_SMS_8,51,9999,9999,9999,464489564
1074,2,T1_SMS_8,52,9999,9999,9999,465289292
1074,2,T1_SMS_8,53,9999,9999,9999,466090080
1074,2,T1_SMS_8,54,9999,9999,9999,466889808
1074,2,T1_SMS_8,55,9999,9999,9999,467689540
1074,2,T1_SMS_8,56,9999,9999,9999,468489276
1074,2,T1_SMS_8,57,9999,9999,9999,469290064
1074,2,T1_SMS_8,58,9999,9999,9999,470089796
1074,2,T1_SMS_8,59,9999,9999,9999,470889556
1074,2,T1_SMS_8,60,9999,9999,9999,471689288
1074,2,T1_SMS_8,61,9999,9999,9999,472490064
1074,2,T1_SMS_8,62,9999,9999,9999,473289804
1074,2,T1_SMS_8,63,9999,9999,9999,474089536
1074,2,T1_SMS_8,64,9999,9999,9999,474889268
1074,2,T1_SMS_8,65,9999,9999,9999,475690092
1074,2,T1_SMS_8,66,9999,9999,9999,476489832
1074,2,T1_SMS_8,67,9999,9999,9999,477289516
1074,2,T1_SMS_8,68,9999,9999,9999,478089328
1074,2,T1_SMS_8,69,9999,9999,9999,478890104
1074,2,T1_SMS_8,70,9999,9999,9999,479689836
1074,2,T1_SMS_8,71,9999,9999,9999,480489576
1074,2,T1_SMS_8,72,9999,9999,9999,481289308
1074,2,T1_SMS_8,73,9999,9999,9999,482090088
1074,2,T1_SMS_8,74,9999,9999,9999,482889816
1074,2,T1_SMS_8,75,9999,9999,9999,483689580
1074,2,T1_SMS_8,76,9999,9999,9999,484489308
1074,2,T1_SMS_8,77,9999,9999,9999,485290092
1074,2,T1_SMS_8,78,9999,9999,9999,486089824
1074,2,T1_SMS_8,79,9999,9999,9999,486889560
1074,2,T1_SMS_8,80,9999,9999,9999,487689292
1074,2,T1_SMS_8,81,9999,9999,9999,488490072
1074,2,T1_SMS_8,82,9999,9999,9999,489289804
1074,2,T1_SMS_8,83,9999,9999,9999,490089564
1074,2,T1_SMS_8,84,9999,9999,9999,490889296
1074,2,T1_SMS_8,85,9999,9999,9999,491690076
1074,2,T1_SMS_8,86,9999,9999,9999,492489808
1074,2,T1_SMS_8,87,9999,9999,9999,493289544
1074,2,T1_SMS_8,88,9999,9999,9999,494089280
1074,2,T1_SMS_8,89,9999,9999,9999,494890060
1074,2,T1_SMS_8,90,9999,9999,9999,495689792
1074,2,T1_SMS_8,91,9999,9999,9999,496489552
1074,2,T1_SMS_8,92,9999,9999,9999,497289288
1074,2,T1_SMS_8,93,9999,9999,9999,498090064
1074,2,T1_SMS_8,94,9999,9999,9999,498889808
1074,2,T1_SMS_8,95,9999,9999,9999,499689540
1074,2,T1_SMS_8,96,9999,9999,9999,500489324
1074,2,T1_SMS_8,97,9999,9999,9999,501290060
1074,2,T1_SMS_8,98,9999,9999,9999,502089836
1074,2,T1_SMS_8,99,9999,9999,9999,502889588
1074,2,T1_SMS_8,100,9999,9999,9999,503689324
1074,2,T1_SMS_8,101,9999,9999,9999,504490104
1074,2,T1_SMS_8,102,9999,9999,9999,505289836
1074,2,T1_SMS_8,103,9999,9999,9999,506089568
1074,2,T1_SMS_8,104,9999,9999,9999,506889304
1074,2,T1_SMS_8,105,9999,9999,9999,507690084
1074,2,T1_SMS_8,106,9999,9999,9999,508489820
1074,2,T1_SMS_8,107,9999,9999,9999,509289580
1074,2,T1_SMS_8,108,9999,9999,9999,510089320
1074,2,T1_SMS_8,109,9999,9999,9999,510890096
1074,2,T1_SMS_8,110,9999,9999,9999,511689832
1074,2,T1_SMS_8,111,9999,9999,9999,512489560
1074,2,T1_SMS_8,112,9999,9999,9999,513289300
1074,2,T1_SMS_8,113,9999,9999,9999,514090080
1074,2,T1_SMS_8,114,9999,9999,9999,514889812
1074,2,T1_SMS_8,115,9999,9999,9999,515689564
1074,2,T1_SMS_8,116,9999,9999,9999,516489304
1074,2,T1_SMS_8,117,9999,9999,9999,517290080
1074,2,T1_SMS_8,118,9999,9999,9999,518089816
1074,2,T1_SMS_8,119,9999,9999,9999,518889552
1075,10,Ticks_ISO_T2_5,0,5,42,127,531001796
1075,10,Ticks_ISO_T2_5,1,5,42,127,531501440
1075,10,Ticks_ISO_T2_5,2,5,42,127,532002128
1075,10,Ticks_ISO_T2_5,3,5,42,127,532501772
1075,10,Ticks_ISO_T2_5,4,5,42,127,533001712
1075,10,Ticks_ISO_T2_5,5,5,42,127,533502252
1075,10,Ticks_ISO_T2_5,6,5,42,127,534001968
1075,10,Ticks_ISO_T2_5,7,5,42,127,534501908
1075,10,Ticks_ISO_T2_5,8,5,42,127,535001400
1075,10,Ticks_ISO_T2_5,9,1,48,59,535003920
1075,10,Ticks_ISO_T2_5,10,5,42,127,535502288
1075,10,Ticks_ISO_T2_5,11,1,48,57,535525152
1075,10,Ticks_ISO_T2_5,12,5,42,127,536001836
1075,10,Ticks_ISO_T2_5,13,1,48,67,536014528
1075,10,Ticks_ISO_T2_5,14,5,42,127,536501680
1075,10,Ticks_ISO_T2_5,15,1,48,63,536527092
1075,10,Ticks_ISO_T2_5,16,5,42,127,537002272
1075,10,Ticks_ISO_T2_5,17,1,48,60,537007192
1075,10,Ticks_ISO_T2_5,18,5,42,127,537502044
1075,10,Ticks_ISO_T2_5,19,1,48,55,537507480
1075,10,Ticks_ISO_T2_5,20,5,42,127,538001736
1075,10,Ticks_ISO_T2_5,21,1,48,52,538022508
1075,10,Ticks_ISO_T2_5,22,5,42,127,538501656
1075,10,Ticks_ISO_T2_5,23,1,48,58,538510088
1075,10,Ticks_ISO_T2_5,24,5,42,127,539002176
1075,10,Ticks_ISO_T2_5,25,1,48,56,539020852
1075,10,Ticks_ISO_T2_5,26,5,42,127,539501872
1075,10,Ticks_ISO_T2_5,27,1,48,52,539514264
1075,10,Ticks_ISO_T2_5,28,5,42,127,540001716
1075,10,Ticks_ISO_T2_5,29,1,48,56,540014332
1075,10,Ticks_ISO_T2_5,30,5,42,127,540502236
1075,10,Ticks_ISO_T2_5,31,1,48,53,540509840
1075,10,Ticks_ISO_T2_5,32,5,42,127,541002052
1075,10,Ticks_ISO_T2_5,33,1,48,53,541017168
1075,10,Ticks_ISO_T2_5,34,5,42,127,541501748
1075,10,Ticks_ISO_T2_5,35,1,48,51,541508088
1075,10,Ticks_ISO_T2_5,36,5,42,127,542001668
1075,10,Ticks_ISO_T2_5,37,1,48,56,542008228
1075,10,Ticks_ISO_T2_5,38,5,42,127,542502112
1075,10,Ticks_ISO_T2_5,39,1,48,49,542503600
1075,10,Ticks_ISO_T2_5,40,5,42,127,543001956
1075,10,Ticks_ISO_T2_5,41,1,48,52,543035964
1075,10,Ticks_ISO_T2_5,42,5,42,127,543501652
1075,10,Ticks_ISO_T2_5,43,1,48,54,543509032
1075,10,Ticks_ISO_T2_5,44,1,48,25,543569520
1075,10,Ticks_ISO_T2_5,45,1,48,52,544000628
1075,10,Ticks_ISO_T2_5,46,5,42,127,544002288
1075,10,Ticks_ISO_T2_5,47,5,42,127,544502140
1075,10,Ticks_ISO_T2_5,48,1,48,56,544505776
1075,10,Ticks_ISO_T2_5,49,5,42,127,545001760
1075,10,Ticks_ISO_T2_5,50,1,48,64,545026420
1075,10,Ticks_ISO_T2_5,51,5,42,127,545501676
1075,10,Ticks_ISO_T2_5,52,1,48,56,545510180
1075,10,Ticks_ISO_T2_5,53,1,48,56,545997368
1075,10,Ticks_ISO_T2_5,54,5,42,127,546002188
1075,10,Ticks_ISO_T2_5,55,5,42,127,546502040
1075,10,Ticks_ISO_T2_5,56,1,48,57,546524152
1075,10,Ticks_ISO_T2_5,57,5,42,127,547001732
1075,10,Ticks_ISO_T2_5,58,1,48,59,547004924
1075,10,Ticks_ISO_T2_5,59,1,48,57,547498320
1075,10,Ticks_ISO_T2_5,60,5,42,127,547501568
1075,10,Ticks_ISO_T2_5,61,5,42,127,548002092
1075,10,Ticks_ISO_T2_5,62,1,48,61,548004836
1075,10,Ticks_ISO_T2_5,63,5,42,127,548502012
1075,10,Ticks_ISO_T2_5,64,1,48,61,548518892
1075,10,Ticks_ISO_T2_5,65,1,48,63,548995680
1075,10,Ticks_ISO_T2_5,66,5,42,127,549001700
1075,10,Ticks_ISO_T2_5,67,5,42,127,549502376
1075,10,Ticks_ISO_T2_5,68,1,48,54,549542664
1075,10,Ticks_ISO_T2_5,69,1,48,53,549968196
1075,10,Ticks_ISO_T2_5,70,5,42,127,550002060
1075,10,Ticks_ISO_T2_5,71,5,42,127,550501688
1075,10,Ticks_ISO_T2_5,72,1,48,52,550506300
1075,10,Ticks_ISO_T2_5,73,1,48,61,551000480
1075,10,Ticks_ISO_T2_5,74,5,42,127,551001900
1075,10,Ticks_ISO_T2_5,75,1,48,56,551488148
1075,10,Ticks_ISO_T2_5,76,5,42,127,551502168
1075,10,Ticks_ISO_T2_5,77,1,48,58,551981708
1075,10,Ticks_ISO_T2_5,78,5,42,127,552001940
1075,10,Ticks_ISO_T2_5,79,1,48,46,552489560
1075,10,Ticks_ISO_T2_5,80,5,42,127,552501784
1075,10,Ticks_ISO_T2_5,81,1,48,54,552983572
1075,10,Ticks_ISO_T2_5,82,5,42,127,553002376
1075,10,Ticks_ISO_T2_5,83,1,48,57,553484232
1075,10,Ticks_ISO_T2_5,84,5,42,127,553501996
1075,10,Ticks_ISO_T2_5,85,1,48,62,553982804
1075,10,Ticks_ISO_T2_5,86,5,42,127,554001916
1075,10,Ticks_ISO_T2_5,87,5,42,127,554501764
1075,10,Ticks_ISO_T2_5,88,1,48,59,554505032
1075,10,Ticks_ISO_T2_5,89,5,42,127,555002136
1075,10,Ticks_ISO_T2_5,90,1,48,59,555007276
1075,10,Ticks_ISO_T2_5,91,1,48,57,555479576
1075,10,Ticks_ISO_T2_5,92,5,42,127,555501824
1075,10,Ticks_ISO_T2_5,93,1,48,53,555985476
1075,10,Ticks_ISO_T2_5,94,5,42,127,556001816
1075,10,Ticks_ISO_T2_5,95,1,48,49,556472004
1075,10,Ticks_ISO_T2_5,96,5,42,127,556502484
1075,10,Ticks_ISO_T2_5,97,5,42,127,557001960
1075,10,Ticks_ISO_T2_5,98,1,48,54,557002924
1075,10,Ticks_ISO_T2_5,99,1,48,52,557498924
1075,10,Ticks_ISO_T2_5,100,5,42,127,557501724
1075,10,Ticks_ISO_T2_5,101,1,48,52,557988296
1075,10,Ticks_ISO_T2_5,102,5,42,127,558001716
1075,10,Ticks_ISO_T2_5,103,5,42,127,558502464
1075,10,Ticks_ISO_T2_5,104,1,48,52,558504832
1075,10,Ticks_ISO_T2_5,105,5,42,127,559001936
1075,10,Ticks_ISO_T2_5,106,1,48,58,559020836
1075,10,Ticks_ISO_T2_5,107,1,48,57,559480200
1075,10,Ticks_ISO_T2_5,108,5,42,127,559501624
1075,10,Ticks_ISO_T2_5,109,5,42,127,560002448
1075,10,Ticks_ISO_T2_5,110,1,48,56,560009680
1075,10,Ticks_ISO_T2_5,111,5,42,127,560502068
1075,10,Ticks_ISO_T2_5,112,1,48,60,560517080
1075,10,Ticks_ISO_T2_5,113,1,48,57,560977312
1075,10,Ticks_ISO_T2_5,114,5,42,127,561001952
1075,10,Ticks_ISO_T2_5,115,5,42,127,561501728
1075,10,Ticks_ISO_T2_5,116,1,48,52,561520708
1075,10,Ticks_ISO_T2_5,117,5,42,127,562002320
1075,10,Ticks_ISO_T2_5,118,1,48,51,562050320
1075,10,Ticks_ISO_T2_5,119,5,42,127,562501916
1075,10,Ticks_ISO_T2_5,120,1,48,51,562513884
1075,10,Ticks_ISO_T2_5,121,1,48,57,562991476
1075,10,Ticks_ISO_T2_5,122,5,42,127,563001828
1075,10,Ticks_ISO_T2_5,123,5,42,127,563501604
1075,10,Ticks_ISO_T2_5,124,1,48,69,563508468
1075,10,Ticks_ISO_T2_5,125,5,42,127,564002124
1075,10,Ticks_ISO_T2_5,126,1,48,54,564020200
1075,10,Ticks_ISO_T2_5,127,1,48,57,564494220
1075,10,Ticks_ISO_T2_5,128,5,42,127,564501812
1075,10,Ticks_ISO_T2_5,129,1,48,61,564991372
1075,10,Ticks_ISO_T2_5,130,5,42,127,565001504
1075,10,Ticks_ISO_T2_5,131,1,48,57,565501352
1075,10,Ticks_ISO_T2_5,132,5,42,127,565502840
1075,10,Ticks_ISO_T2_5,133,5,42,127,566001948
1075,10,Ticks_ISO_T2_5,134,1,48,59,566028928
1075,10,Ticks_ISO_T2_5,135,1,48,59,566475716
1075,10,Ticks_ISO_T2_5,136,5,42,127,566501636
1075,10,Ticks_ISO_T2_5,137,5,42,127,567001636
1075,10,Ticks_ISO_T2_5,138,1,48,54,567010064
1075,10,Ticks_ISO_T2_5,139,1,48,54,567485508
1075,10,Ticks_ISO_T2_5,140,5,42,127,567502148
1075,10,Ticks_ISO_T2_5,141,1,48,57,567992832
1075,10,Ticks_ISO_T2_5,142,5,42,127,568001844
1075,10,Ticks_ISO_T2_5,143,5,42,127,568501620
1075,10,Ticks_ISO_T2_5,144,1,48,53,568523360
1075,10,Ticks_ISO_T2_5,145,5,42,127,569002432
1075,10,Ticks_ISO_T2_5,146,1,48,59,569053048
1075,10,Ticks_ISO_T2_5,147,5,42,127,569501980
1075,10,Ticks_ISO_T2_5,148,1,48,59,569515124
1075,10,Ticks_ISO_T2_5,149,1,48,57,570002120
1075,10,Ticks_ISO_T2_5,150,5,42,127,570003384
1075,10,Ticks_ISO_T2_5,151,5,42,127,570501368
1075,10,Ticks_ISO_T2_5,152,1,48,56,570521916
1075,10,Ticks_ISO_T2_5,153,5,42,127,571002336
1075,10,Ticks_ISO_T2_5,154,1,48,69,571043300
1075,10,Ticks_ISO_T2_5,155,1,48,52,571484336
1075,10,Ticks_ISO_T2_5,156,5,42,127,571501872
1075,10,Ticks_ISO_T2_5,157,1,48,52,571980712
1075,10,Ticks_ISO_T2_5,158,5,42,127,572001492
1075,10,Ticks_ISO_T2_5,159,1,48,53,572483776
1075,10,Ticks_ISO_T2_5,160,5,42,127,572502384
1075,10,Ticks_ISO_T2_5,161,1,48,62,572995356
1075,10,Ticks_ISO_T2_5,162,5,42,127,573002052
1075,10,Ticks_ISO_T2_5,163,1,48,60,573484436
1075,10,Ticks_ISO_T2_5,164,5,42,127,573501748
1075,10,Ticks_ISO_T2_5,165,5,42,127,574001524
1075,10,Ticks_ISO_T2_5,166,1,48,56,574005012
1075,10,Ticks_ISO_T2_5,167,5,42,127,574502340
1075,10,Ticks_ISO_T2_5,168,1,48,52,574511740
1075,10,Ticks_ISO_T2_5,169,1,48,54,574992644
1075,10,Ticks_ISO_T2_5,170,5,42,127,575002100
1075,10,Ticks_ISO_T2_5,171,1,48,56,575486352
1075,10,Ticks_ISO_T2_5,172,5,42,127,575501644
1075,10,Ticks_ISO_T2_5,173,1,48,60,575995468
1075,10,Ticks_ISO_T2_5,174,5,42,127,576002388
1075,10,Ticks_ISO_T2_5,175,1,48,49,576486568
1075,10,Ticks_ISO_T2_5,176,5,42,127,576502008
1075,10,Ticks_ISO_T2_5,177,1,48,44,576984612
1075,10,Ticks_ISO_T2_5,178,5,42,127,577001704
1075,10,Ticks_ISO_T2_5,179,1,48,62,577483408
1075,10,Ticks_ISO_T2_5,180,5,42,127,577501396
1075,10,Ticks_ISO_T2_5,181,1,48,65,577966044
1075,10,Ticks_ISO_T2_5,182,5,42,127,578002656
1075,10,Ticks_ISO_T2_5,183,1,48,46,578489756
1075,10,Ticks_ISO_T2_5,184,5,42,127,578501984
1075,10,Ticks_ISO_T2_5,185,1,48,57,578985708
1075,10,Ticks_ISO_T2_5,186,5,42,127,579001676
1075,10,Ticks_ISO_T2_5,187,1,48,55,579470524
1075,10,Ticks_ISO_T2_5,188,5,42,127,579501520
1075,10,Ticks_ISO_T2_5,189,1,48,51,579992280
1075,10,Ticks_ISO_T2_5,190,5,42,127,580002336
1075,10,Ticks_ISO_T2_5,191,5,42,127,580501816
1075,10,Ticks_ISO_T2_5,192,1,48,46,580519892
1075,10,Ticks_ISO_T2_5,193,1,48,55,581001508
1075,10,Ticks_ISO_T2_5,194,5,42,127,581002848
1075,10,Ticks_ISO_T2_5,195,1,48,50,581501424
1075,10,Ticks_ISO_T2_5,196,5,42,127,581503068
1075,10,Ticks_ISO_T2_5,197,1,48,52,581997120
1075,10,Ticks_ISO_T2_5,198,5,42,127,582002236
1075,10,Ticks_ISO_T2_5,199,1,48,54,582477868
1075,10,Ticks_ISO_T2_5,200,5,42,127,582501708
1075,10,Ticks_ISO_T2_5,201,1,48,55,582996432
1075,10,Ticks_ISO_T2_5,202,5,42,127,583001404
1075,10,Ticks_ISO_T2_5,203,1,48,54,583471040
1075,10,Ticks_ISO_T2_5,204,5,42,127,583502416
1075,10,Ticks_ISO_T2_5,205,1,48,31,583539880
1075,10,Ticks_ISO_T2_5,206,1,48,46,583989116
1075,10,Ticks_ISO_T2_5,207,5,42,127,584001868
1075,10,Ticks_ISO_T2_5,208,1,48,29,584041944
1075,10,Ticks_ISO_T2_5,209,1,48,53,584488044
1075,10,Ticks_ISO_T2_5,210,5,42,127,584501540
1075,10,Ticks_ISO_T2_5,211,5,42,127,585002436
1075,10,Ticks_ISO_T2_5,212,1,48,35,585016480
1075,10,Ticks_ISO_T2_5,213,1,48,48,585458260
1075,10,Ticks_ISO_T2_5,214,5,42,127,585502348
1075,10,Ticks_ISO_T2_5,215,1,48,45,585962524
1075,10,Ticks_ISO_T2_5,216,5,42,127,586001748
1075,10,Ticks_ISO_T2_5,217,1,48,50,586456004
1075,10,Ticks_ISO_T2_5,218,5,42,127,586501444
1075,10,Ticks_ISO_T2_5,219,1,48,45,586999012
1075,10,Ticks_ISO_T2_5,220,5,42,127,587002632
1075,10,Ticks_ISO_T2_5,221,5,42,127,587501888
1075,10,Ticks_ISO_T2_5,222,1,48,44,587515848
1075,10,Ticks_ISO_T2_5,223,1,48,51,587972292
1075,10,Ticks_ISO_T2_5,224,5,42,127,588001500
1075,10,Ticks_ISO_T2_5,225,1,48,37,588008196
1075,10,Ticks_ISO_T2_5,226,1,48,48,588491044
1075,10,Ticks_ISO_T2_5,227,5,42,127,588502520
1075,10,Ticks_ISO_T2_5,228,1,48,51,588986848
1075,10,Ticks_ISO_T2_5,229,5,42,127,589002288
1075,10,Ticks_ISO_T2_5,230,1,48,33,589038156
1075,10,Ticks_ISO_T2_5,231,1,48,48,589480612
1075,10,Ticks_ISO_T2_5,232,5,42,127,589501888
1075,10,Ticks_ISO_T2_5,233,1,48,46,589985464
1075,10,Ticks_ISO_T2_5,234,5,42,127,590001432
1075,10,Ticks_ISO_T2_5,235,1,48,55,590482620
1075,10,Ticks_ISO_T2_5,236,5,42,127,590502324
1075,10,Ticks_ISO_T2_5,237,5,42,127,591002172
1075,10,Ticks_ISO_T2_5,238,1,48,58,591006792
1075,10,Ticks_ISO_T2_5,239,1,48,53,591473032
1075,10,Ticks_ISO_T2_5,240,5,42,127,591501636
1075,10,Ticks_ISO_T2_5,241,1,48,41,591998756
1075,10,Ticks_ISO_T2_5,242,5,42,127,592002456
1075,10,Ticks_ISO_T2_5,243,1,48,51,592488952
1075,10,Ticks_ISO_T2_5,244,5,42,127,592502296
1075,10,Ticks_ISO_T2_5,245,1,48,52,592991784
1075,10,Ticks_ISO_T2_5,246,5,42,127,593001696
1075,10,Ticks_ISO_T2_5,247,1,48,50,593474176
1075,10,Ticks_ISO_T2_5,248,5,42,127,593501612
1075,10,Ticks_ISO_T2_5,249,1,48,47,593988604
1075,10,Ticks_ISO_T2_5,250,5,42,127,594002276
1075,10,Ticks_ISO_T2_5,251,1,48,51,594476336
1075,10,Ticks_ISO_T2_5,252,5,42,127,594502168
1075,10,Ticks_ISO_T2_5,253,1,48,21,594555860
1075,10,Ticks_ISO_T2_5,254,1,48,44,594990888
1075,10,Ticks_ISO_T2_5,255,5,42,127,595001844
1075,10,Ticks_ISO_T2_5,256,1,48,44,595500036
1075,10,Ticks_ISO_T2_5,257,5,42,127,595501540
1075,10,Ticks_ISO_T2_5,258,1,48,52,595994844
1075,10,Ticks_ISO_T2_5,0,9999,9999,9999,530999364
1075,10,Ticks_ISO_T2_5,1,9999,9999,9999,531499080
1075,10,Ticks_ISO_T2_5,2,9999,9999,9999,531999844
1075,10,Ticks_ISO_T2_5,3,9999,9999,9999,532499560
1075,10,Ticks_ISO_T2_5,4,9999,9999,9999,532999276
1075,10,Ticks_ISO_T2_5,5,9999,9999,9999,533499964
1075,10,Ticks_ISO_T2_5,6,9999,9999,9999,533999680
1075,10,Ticks_ISO_T2_5,7,9999,9999,9999,534499396
1075,10,Ticks_ISO_T2_5,8,9999,9999,9999,534999116
1075,10,Ticks_ISO_T2_5,9,9999,9999,9999,535499856
1075,10,Ticks_ISO_T2_5,10,9999,9999,9999,535999548
1075,10,Ticks_ISO_T2_5,11,9999,9999,9999,536499320
1075,10,Ticks_ISO_T2_5,12,9999,9999,9999,536999988
1075,10,Ticks_ISO_T2_5,13,9999,9999,9999,537499756
1075,10,Ticks_ISO_T2_5,14,9999,9999,9999,537999448
1075,10,Ticks_ISO_T2_5,15,9999,9999,9999,538499144
1075,10,Ticks_ISO_T2_5,16,9999,9999,9999,538999888
1075,10,Ticks_ISO_T2_5,17,9999,9999,9999,539499584
1075,10,Ticks_ISO_T2_5,18,9999,9999,9999,539999280
1075,10,Ticks_ISO_T2_5,19,9999,9999,9999,540500024
1075,10,Ticks_ISO_T2_5,20,9999,9999,9999,540999768
1075,10,Ticks_ISO_T2_5,21,9999,9999,9999,541499464
1075,10,Ticks_ISO_T2_5,22,9999,9999,9999,541999160
1075,10,Ticks_ISO_T2_5,23,9999,9999,9999,542499900
1075,10,Ticks_ISO_T2_5,24,9999,9999,9999,542999672
1075,10,Ticks_ISO_T2_5,25,9999,9999,9999,543499364
1075,10,Ticks_ISO_T2_5,26,9999,9999,9999,544000100
1075,10,Ticks_ISO_T2_5,27,9999,9999,9999,544499780
1075,10,Ticks_ISO_T2_5,28,9999,9999,9999,544999472
1075,10,Ticks_ISO_T2_5,29,9999,9999,9999,545499240
1075,10,Ticks_ISO_T2_5,30,9999,9999,9999,545999976
1075,10,Ticks_ISO_T2_5,31,9999,9999,9999,546499676
1075,10,Ticks_ISO_T2_5,32,9999,9999,9999,546999372
1075,10,Ticks_ISO_T2_5,33,9999,9999,9999,547499060
1075,10,Ticks_ISO_T2_5,34,9999,9999,9999,547999808
1075,10,Ticks_ISO_T2_5,35,9999,9999,9999,548499576
1075,10,Ticks_ISO_T2_5,36,9999,9999,9999,548999264
1075,10,Ticks_ISO_T2_5,37,9999,9999,9999,549500012
1075,10,Ticks_ISO_T2_5,38,9999,9999,9999,549999700
1075,10,Ticks_ISO_T2_5,39,9999,9999,9999,550499400
1075,10,Ticks_ISO_T2_5,40,9999,9999,9999,550999096
1075,10,Ticks_ISO_T2_5,41,9999,9999,9999,551499884
1075,10,Ticks_ISO_T2_5,42,9999,9999,9999,551999580
1075,10,Ticks_ISO_T2_5,43,9999,9999,9999,552499276
1075,10,Ticks_ISO_T2_5,44,9999,9999,9999,553000016
1075,10,Ticks_ISO_T2_5,45,9999,9999,9999,553499712
1075,10,Ticks_ISO_T2_5,46,9999,9999,9999,553999480
1075,10,Ticks_ISO_T2_5,47,9999,9999,9999,554499180
1075,10,Ticks_ISO_T2_5,48,9999,9999,9999,554999924
1075,10,Ticks_ISO_T2_5,49,9999,9999,9999,555499612
1075,10,Ticks_ISO_T2_5,50,9999,9999,9999,555999308
1075,10,Ticks_ISO_T2_5,51,9999,9999,9999,556500048
1075,10,Ticks_ISO_T2_5,52,9999,9999,9999,556999748
1075,10,Ticks_ISO_T2_5,53,9999,9999,9999,557499512
1075,10,Ticks_ISO_T2_5,54,9999,9999,9999,557999204
1075,10,Ticks_ISO_T2_5,55,9999,9999,9999,558499956
1075,10,Ticks_ISO_T2_5,56,9999,9999,9999,558999648
1075,10,Ticks_ISO_T2_5,57,9999,9999,9999,559499336
1075,10,Ticks_ISO_T2_5,58,9999,9999,9999,560000088
1075,10,Ticks_ISO_T2_5,59,9999,9999,9999,560499780
1075,10,Ticks_ISO_T2_5,60,9999,9999,9999,560999520
1075,10,Ticks_ISO_T2_5,61,9999,9999,9999,561499220
1075,10,Ticks_ISO_T2_5,62,9999,9999,9999,561999936
1075,10,Ticks_ISO_T2_5,63,9999,9999,9999,562499632
1075,10,Ticks_ISO_T2_5,64,9999,9999,9999,562999396
1075,10,Ticks_ISO_T2_5,65,9999,9999,9999,563499096
1075,10,Ticks_ISO_T2_5,66,9999,9999,9999,563999836
1075,10,Ticks_ISO_T2_5,67,9999,9999,9999,564499524
1075,10,Ticks_ISO_T2_5,68,9999,9999,9999,564999220
1075,10,Ticks_ISO_T2_5,69,9999,9999,9999,565499968
1075,10,Ticks_ISO_T2_5,70,9999,9999,9999,565999736
1075,10,Ticks_ISO_T2_5,71,9999,9999,9999,566499424
1075,10,Ticks_ISO_T2_5,72,9999,9999,9999,566999128
1075,10,Ticks_ISO_T2_5,73,9999,9999,9999,567499860
1075,10,Ticks_ISO_T2_5,74,9999,9999,9999,567999556
1075,10,Ticks_ISO_T2_5,75,9999,9999,9999,568499260
1075,10,Ticks_ISO_T2_5,76,9999,9999,9999,569000000
1075,10,Ticks_ISO_T2_5,77,9999,9999,9999,569499768
1075,10,Ticks_ISO_T2_5,78,9999,9999,9999,569999460
1075,10,Ticks_ISO_T2_5,79,9999,9999,9999,570499156
1075,10,Ticks_ISO_T2_5,80,9999,9999,9999,570999900
1075,10,Ticks_ISO_T2_5,81,9999,9999,9999,571499588
1075,10,Ticks_ISO_T2_5,82,9999,9999,9999,571999280
1075,10,Ticks_ISO_T2_5,83,9999,9999,9999,572500024
1075,10,Ticks_ISO_T2_5,84,9999,9999,9999,572999764
1075,10,Ticks_ISO_T2_5,85,9999,9999,9999,573499460
1075,10,Ticks_ISO_T2_5,86,9999,9999,9999,573999160
1075,10,Ticks_ISO_T2_5,87,9999,9999,9999,574499904
1075,10,Ticks_ISO_T2_5,88,9999,9999,9999,574999664
1075,10,Ticks_ISO_T2_5,89,9999,9999,9999,575499360
1075,10,Ticks_ISO_T2_5,90,9999,9999,9999,576000100
1075,10,Ticks_ISO_T2_5,91,9999,9999,9999,576499796
1075,10,Ticks_ISO_T2_5,92,9999,9999,9999,576999492
1075,10,Ticks_ISO_T2_5,93,9999,9999,9999,577499184
1075,10,Ticks_ISO_T2_5,94,9999,9999,9999,577999924
1075,10,Ticks_ISO_T2_5,95,9999,9999,9999,578499696
1075,10,Ticks_ISO_T2_5,96,9999,9999,9999,578999392
1075,10,Ticks_ISO_T2_5,97,9999,9999,9999,579499084
1075,10,Ticks_ISO_T2_5,98,9999,9999,9999,579999828
1075,10,Ticks_ISO_T2_5,99,9999,9999,9999,580499528
1075,10,Ticks_ISO_T2_5,100,9999,9999,9999,580999224
1075,10,Ticks_ISO_T2_5,101,9999,9999,9999,581499964
1075,10,Ticks_ISO_T2_5,102,9999,9999,9999,581999728
1075,10,Ticks_ISO_T2_5,103,9999,9999,9999,582499424
1075,10,Ticks_ISO_T2_5,104,9999,9999,9999,582999116
1075,10,Ticks_ISO_T2_5,105,9999,9999,9999,583499832
1075,10,Ticks_ISO_T2_5,106,9999,9999,9999,583999580
1075,10,Ticks_ISO_T2_5,107,9999,9999,9999,584499252
1075,10,Ticks_ISO_T2_5,108,9999,9999,9999,585000000
1075,10,Ticks_ISO_T2_5,109,9999,9999,9999,585499764
1075,10,Ticks_ISO_T2_5,110,9999,9999,9999,585999464
1075,10,Ticks_ISO_T2_5,111,9999,9999,9999,586499156
1075,10,Ticks_ISO_T2_5,112,9999,9999,9999,586999900
1075,10,Ticks_ISO_T2_5,113,9999,9999,9999,587499600
1075,10,Ticks_ISO_T2_5,114,9999,9999,9999,587999288
1075,10,Ticks_ISO_T2_5,115,9999,9999,9999,588500084
1075,10,Ticks_ISO_T2_5,116,9999,9999,9999,588999780
1075,10,Ticks_ISO_T2_5,117,9999,9999,9999,589499452
1075,10,Ticks_ISO_T2_5,118,9999,9999,9999,589999220
1075,10,Ticks_ISO_T2_5,119,9999,9999,9999,590499888
1075,10,Ticks_ISO_T2_5,120,9999,9999,9999,590999664
1075,10,Ticks_ISO_T2_5,121,9999,9999,9999,591499352
1075,10,Ticks_ISO_T2_5,122,9999,9999,9999,592000092
1075,10,Ticks_ISO_T2_5,123,9999,9999,9999,592499788
1075,10,Ticks_ISO_T2_5,124,9999,9999,9999,592999484
1075,10,Ticks_ISO_T2_5,125,9999,9999,9999,593499252
1075,10,Ticks_ISO_T2_5,126,9999,9999,9999,593999992
1075,10,Ticks_ISO_T2_5,127,9999,9999,9999,594499660
1075,10,Ticks_ISO_T2_5,128,9999,9999,9999,594999408
1075,10,Ticks_ISO_T2_5,129,9999,9999,9999,595499112
1076,9,Ticks_ISO_T2_8,0,5,42,127,606095864
1076,9,Ticks_ISO_T2_8,1,5,42,127,606895396
1076,9,Ticks_ISO_T2_8,2,5,42,127,607696200
1076,9,Ticks_ISO_T2_8,3,5,42,127,608496028
1076,9,Ticks_ISO_T2_8,4,1,48,56,609283924
1076,9,Ticks_ISO_T2_8,5,5,42,127,609295700
1076,9,Ticks_ISO_T2_8,6,5,42,127,610095516
1076,9,Ticks_ISO_T2_8,7,1,48,70,610105668
1076,9,Ticks_ISO_T2_8,8,1,48,59,610882796
1076,9,Ticks_ISO_T2_8,9,5,42,127,610896164
1076,9,Ticks_ISO_T2_8,10,1,48,55,611675148
1076,9,Ticks_ISO_T2_8,11,5,42,127,611696048
1076,9,Ticks_ISO_T2_8,12,1,48,53,612488568
1076,9,Ticks_ISO_T2_8,13,5,42,127,612495852
1076,9,Ticks_ISO_T2_8,14,1,48,55,613281120
1076,9,Ticks_ISO_T2_8,15,5,42,127,613295440
1076,9,Ticks_ISO_T2_8,16,1,48,55,614093416
1076,9,Ticks_ISO_T2_8,17,5,42,127,614096220
1076,9,Ticks_ISO_T2_8,18,1,48,55,614860612
1076,9,Ticks_ISO_T2_8,19,5,42,127,614896100
1076,9,Ticks_ISO_T2_8,20,5,42,127,615695916
1076,9,Ticks_ISO_T2_8,21,1,48,57,615707040
1076,9,Ticks_ISO_T2_8,22,5,42,127,616495572
1076,9,Ticks_ISO_T2_8,23,1,48,56,616533128
1076,9,Ticks_ISO_T2_8,24,5,42,127,617296376
1076,9,Ticks_ISO_T2_8,25,1,48,53,617312212
1076,9,Ticks_ISO_T2_8,26,1,48,53,618086800
1076,9,Ticks_ISO_T2_8,27,5,42,127,618095956
1076,9,Ticks_ISO_T2_8,28,1,48,54,618895620
1076,9,Ticks_ISO_T2_8,29,5,42,127,618897036
1076,9,Ticks_ISO_T2_8,30,5,42,127,619695432
1076,9,Ticks_ISO_T2_8,31,1,48,48,619704232
1076,9,Ticks_ISO_T2_8,32,5,42,127,620496208
1076,9,Ticks_ISO_T2_8,33,1,48,48,620534556
1076,9,Ticks_ISO_T2_8,34,5,42,127,621296016
1076,9,Ticks_ISO_T2_8,35,1,48,55,621328908
1076,9,Ticks_ISO_T2_8,36,1,48,55,622089580
1076,9,Ticks_ISO_T2_8,37,5,42,127,622096116
1076,9,Ticks_ISO_T2_8,38,5,42,127,622895336
1076,9,Ticks_ISO_T2_8,39,1,48,46,622914688
1076,9,Ticks_ISO_T2_8,40,1,48,51,623690992
1076,9,Ticks_ISO_T2_8,41,5,42,127,623696284
1076,9,Ticks_ISO_T2_8,42,1,48,41,624495196
1076,9,Ticks_ISO_T2_8,43,5,42,127,624496844
1076,9,Ticks_ISO_T2_8,44,5,42,127,625295904
1076,9,Ticks_ISO_T2_8,45,1,48,50,625316452
1076,9,Ticks_ISO_T2_8,46,5,42,127,626095860
1076,9,Ticks_ISO_T2_8,47,1,48,46,626126884
1076,9,Ticks_ISO_T2_8,48,5,42,127,626896120
1076,9,Ticks_ISO_T2_8,49,1,48,54,626907020
1076,9,Ticks_ISO_T2_8,50,5,42,127,627696004
1076,9,Ticks_ISO_T2_8,51,1,48,48,627727776
1076,9,Ticks_ISO_T2_8,52,5,42,127,628495736
1076,9,Ticks_ISO_T2_8,53,1,48,53,628526832
1076,9,Ticks_ISO_T2_8,54,5,42,127,629295396
1076,9,Ticks_ISO_T2_8,55,1,48,50,629325812
1076,9,Ticks_ISO_T2_8,56,5,42,127,630096176
1076,9,Ticks_ISO_T2_8,57,1,48,51,630139612
1076,9,Ticks_ISO_T2_8,58,5,42,127,630895908
1076,9,Ticks_ISO_T2_8,59,1,48,55,630940992
1076,9,Ticks_ISO_T2_8,60,5,42,127,631695716
1076,9,Ticks_ISO_T2_8,61,1,48,54,631731672
1076,9,Ticks_ISO_T2_8,62,5,42,127,632495672
1076,9,Ticks_ISO_T2_8,63,1,48,44,632534920
1076,9,Ticks_ISO_T2_8,64,5,42,127,633296304
1076,9,Ticks_ISO_T2_8,65,1,48,56,633307580
1076,9,Ticks_ISO_T2_8,66,5,42,127,634095964
1076,9,Ticks_ISO_T2_8,67,1,48,55,634103568
1076,9,Ticks_ISO_T2_8,68,5,42,127,634895620
1076,9,Ticks_ISO_T2_8,69,1,48,56,634906748
1076,9,Ticks_ISO_T2_8,70,5,42,127,635695576
1076,9,Ticks_ISO_T2_8,71,1,48,46,635747940
1076,9,Ticks_ISO_T2_8,72,5,42,127,636496084
1076,9,Ticks_ISO_T2_8,73,1,48,44,636545652
1076,9,Ticks_ISO_T2_8,74,1,48,46,637285680
1076,9,Ticks_ISO_T2_8,75,5,42,127,637295884
1076,9,Ticks_ISO_T2_8,76,1,48,54,638087884
1076,9,Ticks_ISO_T2_8,77,5,42,127,638095620
1076,9,Ticks_ISO_T2_8,78,1,48,57,638891652
1076,9,Ticks_ISO_T2_8,79,5,42,127,638895576
1076,9,Ticks_ISO_T2_8,80,1,48,59,639691840
1076,9,Ticks_ISO_T2_8,81,5,42,127,639696208
1076,9,Ticks_ISO_T2_8,82,5,42,127,640496096
1076,9,Ticks_ISO_T2_8,83,1,48,52,640500268
1076,9,Ticks_ISO_T2_8,84,1,48,58,641291680
1076,9,Ticks_ISO_T2_8,85,5,42,127,641295748
1076,9,Ticks_ISO_T2_8,86,5,42,127,642095488
1076,9,Ticks_ISO_T2_8,87,1,48,65,642114620
1076,9,Ticks_ISO_T2_8,88,5,42,127,642896516
1076,9,Ticks_ISO_T2_8,89,1,48,43,642913404
1076,9,Ticks_ISO_T2_8,90,1,48,51,643681704
1076,9,Ticks_ISO_T2_8,91,5,42,127,643696020
1076,9,Ticks_ISO_T2_8,92,5,42,127,644495832
1076,9,Ticks_ISO_T2_8,93,1,48,58,644506432
1076,9,Ticks_ISO_T2_8,94,1,48,51,645295272
1076,9,Ticks_ISO_T2_8,95,5,42,127,645296536
1076,9,Ticks_ISO_T2_8,96,5,42,127,646096572
1076,9,Ticks_ISO_T2_8,97,1,48,48,646112184
1076,9,Ticks_ISO_T2_8,98,1,48,54,646895556
1076,9,Ticks_ISO_T2_8,99,5,42,127,646897052
1076,9,Ticks_ISO_T2_8,100,5,42,127,647695668
1076,9,Ticks_ISO_T2_8,101,1,48,65,647723544
1076,9,Ticks_ISO_T2_8,102,5,42,127,648495548
1076,9,Ticks_ISO_T2_8,103,1,48,55,648562872
1076,9,Ticks_ISO_T2_8,104,1,48,44,649267192
1076,9,Ticks_ISO_T2_8,105,5,42,127,649296420
1076,9,Ticks_ISO_T2_8,106,1,48,59,650066056
1076,9,Ticks_ISO_T2_8,107,5,42,127,650096008
1076,9,Ticks_ISO_T2_8,108,5,42,127,650895820
1076,9,Ticks_ISO_T2_8,109,1,48,62,650917048
1076,9,Ticks_ISO_T2_8,110,5,42,127,651695628
1076,9,Ticks_ISO_T2_8,111,1,48,47,651704132
1076,9,Ticks_ISO_T2_8,112,5,42,127,652496408
1076,9,Ticks_ISO_T2_8,113,1,48,50,652521144
1076,9,Ticks_ISO_T2_8,114,1,48,46,653272544
1076,9,Ticks_ISO_T2_8,115,5,42,127,653295984
1076,9,Ticks_ISO_T2_8,116,5,42,127,654095800
1076,9,Ticks_ISO_T2_8,117,1,48,57,654109020
1076,9,Ticks_ISO_T2_8,118,1,48,62,654875748
1076,9,Ticks_ISO_T2_8,119,5,42,127,654895600
1076,9,Ticks_ISO_T2_8,120,5,42,127,655696188
1076,9,Ticks_ISO_T2_8,121,1,48,42,655699164
1076,9,Ticks_ISO_T2_8,122,5,42,127,656495848
1076,9,Ticks_ISO_T2_8,123,1,48,50,656523876
1076,9,Ticks_ISO_T2_8,124,5,42,127,657295580
1076,9,Ticks_ISO_T2_8,125,1,48,44,657299076
1076,9,Ticks_ISO_T2_8,126,5,42,127,658095612
1076,9,Ticks_ISO_T2_8,127,1,48,53,658104940
1076,9,Ticks_ISO_T2_8,128,1,48,16,658211360
1076,9,Ticks_ISO_T2_8,129,1,48,46,658832904
1076,9,Ticks_ISO_T2_8,130,1,48,32,658885092
1076,9,Ticks_ISO_T2_8,131,5,42,127,658896344
1076,9,Ticks_ISO_T2_8,132,5,42,127,659696084
1076,9,Ticks_ISO_T2_8,133,1,48,43,659705560
1076,9,Ticks_ISO_T2_8,134,5,42,127,660495592
1076,9,Ticks_ISO_T2_8,135,1,48,48,660515836
1076,9,Ticks_ISO_T2_8,136,5,42,127,661295548
1076,9,Ticks_ISO_T2_8,137,1,48,51,661306972
1076,9,Ticks_ISO_T2_8,138,5,42,127,662096352
1076,9,Ticks_ISO_T2_8,139,1,48,39,662098800
1076,9,Ticks_ISO_T2_8,140,1,48,48,662868600
1076,9,Ticks_ISO_T2_8,141,5,42,127,662895856
1076,9,Ticks_ISO_T2_8,142,1,48,57,663661076
1076,9,Ticks_ISO_T2_8,143,5,42,127,663695592
1076,9,Ticks_ISO_T2_8,144,1,48,45,664460436
1076,9,Ticks_ISO_T2_8,145,5,42,127,664495324
1076,9,Ticks_ISO_T2_8,146,5,42,127,665296332
1076,9,Ticks_ISO_T2_8,147,1,48,28,665307908
1076,9,Ticks_ISO_T2_8,148,1,48,54,666057812
1076,9,Ticks_ISO_T2_8,149,5,42,127,666095912
1076,9,Ticks_ISO_T2_8,150,1,48,52,666860160
1076,9,Ticks_ISO_T2_8,151,5,42,127,666895720
1076,9,Ticks_ISO_T2_8,152,1,48,37,666902940
1076,9,Ticks_ISO_T2_8,153,1,48,51,667669072
1076,9,Ticks_ISO_T2_8,154,5,42,127,667695508
1076,9,Ticks_ISO_T2_8,155,1,48,47,668476056
1076,9,Ticks_ISO_T2_8,156,5,42,127,668496460
1076,9,Ticks_ISO_T2_8,157,5,42,127,669296124
1076,9,Ticks_ISO_T2_8,158,1,48,48,669307552
1076,9,Ticks_ISO_T2_8,159,5,42,127,670095712
1076,9,Ticks_ISO_T2_8,160,1,48,50,670119252
1076,9,Ticks_ISO_T2_8,161,1,48,46,670879472
1076,9,Ticks_ISO_T2_8,162,5,42,127,670895364
1076,9,Ticks_ISO_T2_8,163,1,48,23,670941476
1076,9,Ticks_ISO_T2_8,164,5,42,127,671696352
1076,9,Ticks_ISO_T2_8,165,1,48,47,671731484
1076,9,Ticks_ISO_T2_8,166,5,42,127,672495936
1076,9,Ticks_ISO_T2_8,167,1,48,45,672546180
1076,9,Ticks_ISO_T2_8,168,5,42,127,673295668
1076,9,Ticks_ISO_T2_8,169,1,48,41,673355036
1076,9,Ticks_ISO_T2_8,170,1,48,49,674095924
1076,9,Ticks_ISO_T2_8,171,5,42,127,674097116
1076,9,Ticks_ISO_T2_8,172,5,42,127,674896356
1076,9,Ticks_ISO_T2_8,173,1,48,48,674957072
1076,9,Ticks_ISO_T2_8,174,5,42,127,675696164
1076,9,Ticks_ISO_T2_8,175,1,48,45,675730100
1076,9,Ticks_ISO_T2_8,176,5,42,127,676495672
1076,9,Ticks_ISO_T2_8,177,1,48,48,676505076
1076,9,Ticks_ISO_T2_8,178,5,42,127,677295332
1076,9,Ticks_ISO_T2_8,179,1,48,40,677325376
1076,9,Ticks_ISO_T2_8,180,1,48,41,678065408
1076,9,Ticks_ISO_T2_8,181,5,42,127,678096256
1076,9,Ticks_ISO_T2_8,182,5,42,127,678896144
1076,9,Ticks_ISO_T2_8,183,1,48,43,678940476
1076,9,Ticks_ISO_T2_8,184,5,42,127,679695656
1076,9,Ticks_ISO_T2_8,185,1,48,40,679754348
1076,9,Ticks_ISO_T2_8,186,1,48,48,680494404
1076,9,Ticks_ISO_T2_8,187,5,42,127,680495972
1076,9,Ticks_ISO_T2_8,188,5,42,127,681296116
1076,9,Ticks_ISO_T2_8,189,1,48,41,681340824
1076,9,Ticks_ISO_T2_8,190,5,42,127,682096148
1076,9,Ticks_ISO_T2_8,191,1,48,32,682101660
1076,9,Ticks_ISO_T2_8,192,1,48,40,682864276
1076,9,Ticks_ISO_T2_8,193,5,42,127,682895652
1076,9,Ticks_ISO_T2_8,194,5,42,127,683695468
1076,9,Ticks_ISO_T2_8,195,1,48,34,683703596
1076,9,Ticks_ISO_T2_8,196,5,42,127,684496172
1076,9,Ticks_ISO_T2_8,197,1,48,41,684521132
1076,9,Ticks_ISO_T2_8,198,5,42,127,685296052
1076,9,Ticks_ISO_T2_8,199,1,48,35,685307700
1076,9,Ticks_ISO_T2_8,200,5,42,127,686095636
1076,9,Ticks_ISO_T2_8,201,1,48,36,686105640
1076,9,Ticks_ISO_T2_8,202,1,48,38,686887924
1076,9,Ticks_ISO_T2_8,203,5,42,127,686895512
1076,9,Ticks_ISO_T2_8,204,5,42,127,687696176
1076,9,Ticks_ISO_T2_8,205,1,48,36,687783812
1076,9,Ticks_ISO_T2_8,206,5,42,127,688496132
1076,9,Ticks_ISO_T2_8,207,1,48,30,688506728
1076,9,Ticks_ISO_T2_8,208,5,42,127,689296012
1076,9,Ticks_ISO_T2_8,209,1,48,39,689330776
1076,9,Ticks_ISO_T2_8,210,1,48,34,690078060
1076,9,Ticks_ISO_T2_8,211,5,42,127,690095444
1076,9,Ticks_ISO_T2_8,212,5,42,127,690896228
1076,9,Ticks_ISO_T2_8,213,1,48,33,690938768
1076,9,Ticks_ISO_T2_8,214,1,48,38,691674160
1076,9,Ticks_ISO_T2_8,215,5,42,127,691696104
1076,9,Ticks_ISO_T2_8,216,5,42,127,692495696
1076,9,Ticks_ISO_T2_8,217,1,48,34,692497416
1076,9,Ticks_ISO_T2_8,218,1,48,41,693264200
1076,9,Ticks_ISO_T2_8,219,5,42,127,693295348
1076,9,Ticks_ISO_T2_8,220,5,42,127,694096312
1076,9,Ticks_ISO_T2_8,221,1,48,43,694117236
1076,9,Ticks_ISO_T2_8,222,5,42,127,694895896
1076,9,Ticks_ISO_T2_8,223,1,48,38,694900512
1076,9,Ticks_ISO_T2_8,224,5,42,127,695695704
1076,9,Ticks_ISO_T2_8,225,1,48,41,695736600
1076,9,Ticks_ISO_T2_8,226,1,48,45,696457852
1076,9,Ticks_ISO_T2_8,227,5,42,127,696495432
1076,9,Ticks_ISO_T2_8,228,1,48,44,697296220
1076,9,Ticks_ISO_T2_8,229,5,42,127,697297560
1076,9,Ticks_ISO_T2_8,230,1,48,44,698095052
1076,9,Ticks_ISO_T2_8,231,5,42,127,698096696
1076,9,Ticks_ISO_T2_8,232,5,42,127,698895760
1076,9,Ticks_ISO_T2_8,233,1,48,47,698903516
1076,9,Ticks_ISO_T2_8,234,5,42,127,699695496
1076,9,Ticks_ISO_T2_8,235,1,48,43,699705424
1076,9,Ticks_ISO_T2_8,236,5,42,127,700496372
1076,9,Ticks_ISO_T2_8,237,1,48,51,700520064
1076,9,Ticks_ISO_T2_8,238,1,48,44,701279392
1076,9,Ticks_ISO_T2_8,239,5,42,127,701296100
1076,9,Ticks_ISO_T2_8,240,1,48,44,702062588
1076,9,Ticks_ISO_T2_8,0,9999,9999,9999,606093428
1076,9,Ticks_ISO_T2_8,1,9999,9999,9999,606893108
1076,9,Ticks_ISO_T2_8,2,9999,9999,9999,607693912
1076,9,Ticks_ISO_T2_8,3,9999,9999,9999,608493664
1076,9,Ticks_ISO_T2_8,4,9999,9999,9999,609293412
1076,9,Ticks_ISO_T2_8,5,9999,9999,9999,610093156
1076,9,Ticks_ISO_T2_8,6,9999,9999,9999,610893928
1076,9,Ticks_ISO_T2_8,7,9999,9999,9999,611693684
1076,9,Ticks_ISO_T2_8,8,9999,9999,9999,612493416
1076,9,Ticks_ISO_T2_8,9,9999,9999,9999,613293152
1076,9,Ticks_ISO_T2_8,10,9999,9999,9999,614093932
1076,9,Ticks_ISO_T2_8,11,9999,9999,9999,614893664
1076,9,Ticks_ISO_T2_8,12,9999,9999,9999,615693404
1076,9,Ticks_ISO_T2_8,13,9999,9999,9999,616493136
1076,9,Ticks_ISO_T2_8,14,9999,9999,9999,617293916
1076,9,Ticks_ISO_T2_8,15,9999,9999,9999,618093668
1076,9,Ticks_ISO_T2_8,16,9999,9999,9999,618893408
1076,9,Ticks_ISO_T2_8,17,9999,9999,9999,619693140
1076,9,Ticks_ISO_T2_8,18,9999,9999,9999,620493920
1076,9,Ticks_ISO_T2_8,19,9999,9999,9999,621293656
1076,9,Ticks_ISO_T2_8,20,9999,9999,9999,622093384
1076,9,Ticks_ISO_T2_8,21,9999,9999,9999,622893124
1076,9,Ticks_ISO_T2_8,22,9999,9999,9999,623693896
1076,9,Ticks_ISO_T2_8,23,9999,9999,9999,624493660
1076,9,Ticks_ISO_T2_8,24,9999,9999,9999,625293396
1076,9,Ticks_ISO_T2_8,25,9999,9999,9999,626093128
1076,9,Ticks_ISO_T2_8,26,9999,9999,9999,626893908
1076,9,Ticks_ISO_T2_8,27,9999,9999,9999,627693640
1076,9,Ticks_ISO_T2_8,28,9999,9999,9999,628493376
1076,9,Ticks_ISO_T2_8,29,9999,9999,9999,629293108
1076,9,Ticks_ISO_T2_8,30,9999,9999,9999,630093888
1076,9,Ticks_ISO_T2_8,31,9999,9999,9999,630893620
1076,9,Ticks_ISO_T2_8,32,9999,9999,9999,631693428
1076,9,Ticks_ISO_T2_8,33,9999,9999,9999,632493160
1076,9,Ticks_ISO_T2_8,34,9999,9999,9999,633293940
1076,9,Ticks_ISO_T2_8,35,9999,9999,9999,634093676
1076,9,Ticks_ISO_T2_8,36,9999,9999,9999,634893408
1076,9,Ticks_ISO_T2_8,37,9999,9999,9999,635693140
1076,9,Ticks_ISO_T2_8,38,9999,9999,9999,636493872
1076,9,Ticks_ISO_T2_8,39,9999,9999,9999,637293672
1076,9,Ticks_ISO_T2_8,40,9999,9999,9999,638093404
1076,9,Ticks_ISO_T2_8,41,9999,9999,9999,638893140
1076,9,Ticks_ISO_T2_8,42,9999,9999,9999,639693920
1076,9,Ticks_ISO_T2_8,43,9999,9999,9999,640493660
1076,9,Ticks_ISO_T2_8,44,9999,9999,9999,641293388
1076,9,Ticks_ISO_T2_8,45,9999,9999,9999,642093128
1076,9,Ticks_ISO_T2_8,46,9999,9999,9999,642893932
1076,9,Ticks_ISO_T2_8,47,9999,9999,9999,643693656
1076,9,Ticks_ISO_T2_8,48,9999,9999,9999,644493396
1076,9,Ticks_ISO_T2_8,49,9999,9999,9999,645293132
1076,9,Ticks_ISO_T2_8,50,9999,9999,9999,646093912
1076,9,Ticks_ISO_T2_8,51,9999,9999,9999,646893644
1076,9,Ticks_ISO_T2_8,52,9999,9999,9999,647693380
1076,9,Ticks_ISO_T2_8,53,9999,9999,9999,648493112
1076,9,Ticks_ISO_T2_8,54,9999,9999,9999,649293908
1076,9,Ticks_ISO_T2_8,55,9999,9999,9999,650093644
1076,9,Ticks_ISO_T2_8,56,9999,9999,9999,650893384
1076,9,Ticks_ISO_T2_8,57,9999,9999,9999,651693116
1076,9,Ticks_ISO_T2_8,58,9999,9999,9999,652493896
1076,9,Ticks_ISO_T2_8,59,9999,9999,9999,653293624
1076,9,Ticks_ISO_T2_8,60,9999,9999,9999,654093364
1076,9,Ticks_ISO_T2_8,61,9999,9999,9999,654893164
1076,9,Ticks_ISO_T2_8,62,9999,9999,9999,655693900
1076,9,Ticks_ISO_T2_8,63,9999,9999,9999,656493636
1076,9,Ticks_ISO_T2_8,64,9999,9999,9999,657293368
1076,9,Ticks_ISO_T2_8,65,9999,9999,9999,658093104
1076,9,Ticks_ISO_T2_8,66,9999,9999,9999,658893908
1076,9,Ticks_ISO_T2_8,67,9999,9999,9999,659693648
1076,9,Ticks_ISO_T2_8,68,9999,9999,9999,660493380
1076,9,Ticks_ISO_T2_8,69,9999,9999,9999,661293112
1076,9,Ticks_ISO_T2_8,70,9999,9999,9999,662093916
1076,9,Ticks_ISO_T2_8,71,9999,9999,9999,662893644
1076,9,Ticks_ISO_T2_8,72,9999,9999,9999,663693376
1076,9,Ticks_ISO_T2_8,73,9999,9999,9999,664493108
1076,9,Ticks_ISO_T2_8,74,9999,9999,9999,665293896
1076,9,Ticks_ISO_T2_8,75,9999,9999,9999,666093624
1076,9,Ticks_ISO_T2_8,76,9999,9999,9999,666893356
1076,9,Ticks_ISO_T2_8,77,9999,9999,9999,667693144
1076,9,Ticks_ISO_T2_8,78,9999,9999,9999,668493872
1076,9,Ticks_ISO_T2_8,79,9999,9999,9999,669293616
1076,9,Ticks_ISO_T2_8,80,9999,9999,9999,670093424
1076,9,Ticks_ISO_T2_8,81,9999,9999,9999,670893148
1076,9,Ticks_ISO_T2_8,82,9999,9999,9999,671693916
1076,9,Ticks_ISO_T2_8,83,9999,9999,9999,672493648
1076,9,Ticks_ISO_T2_8,84,9999,9999,9999,673293380
1076,9,Ticks_ISO_T2_8,85,9999,9999,9999,674093116
1076,9,Ticks_ISO_T2_8,86,9999,9999,9999,674893920
1076,9,Ticks_ISO_T2_8,87,9999,9999,9999,675693652
1076,9,Ticks_ISO_T2_8,88,9999,9999,9999,676493384
1076,9,Ticks_ISO_T2_8,89,9999,9999,9999,677293120
1076,9,Ticks_ISO_T2_8,90,9999,9999,9999,678093892
1076,9,Ticks_ISO_T2_8,91,9999,9999,9999,678893632
1076,9,Ticks_ISO_T2_8,92,9999,9999,9999,679693368
1076,9,Ticks_ISO_T2_8,93,9999,9999,9999,680493172
1076,9,Ticks_ISO_T2_8,94,9999,9999,9999,681293904
1076,9,Ticks_ISO_T2_8,95,9999,9999,9999,682093636
1076,9,Ticks_ISO_T2_8,96,9999,9999,9999,682893364
1076,9,Ticks_ISO_T2_8,97,9999,9999,9999,683693104
1076,9,Ticks_ISO_T2_8,98,9999,9999,9999,684493884
1076,9,Ticks_ISO_T2_8,99,9999,9999,9999,685293616
1076,9,Ticks_ISO_T2_8,100,9999,9999,9999,686093424
1076,9,Ticks_ISO_T2_8,101,9999,9999,9999,686893148
1076,9,Ticks_ISO_T2_8,102,9999,9999,9999,687693888
1076,9,Ticks_ISO_T2_8,103,9999,9999,9999,688493620
1076,9,Ticks_ISO_T2_8,104,9999,9999,9999,689293428
1076,9,Ticks_ISO_T2_8,105,9999,9999,9999,690093156
1076,9,Ticks_ISO_T2_8,106,9999,9999,9999,690893940
1076,9,Ticks_ISO_T2_8,107,9999,9999,9999,691693668
1076,9,Ticks_ISO_T2_8,108,9999,9999,9999,692493408
1076,9,Ticks_ISO_T2_8,109,9999,9999,9999,693293136
1076,9,Ticks_ISO_T2_8,110,9999,9999,9999,694093876
1076,9,Ticks_ISO_T2_8,111,9999,9999,9999,694893684
1076,9,Ticks_ISO_T2_8,112,9999,9999,9999,695693416
1076,9,Ticks_ISO_T2_8,113,9999,9999,9999,696493144
1076,9,Ticks_ISO_T2_8,114,9999,9999,9999,697293932
1076,9,Ticks_ISO_T2_8,115,9999,9999,9999,698093664
1076,9,Ticks_ISO_T2_8,116,9999,9999,9999,698893396
1076,9,Ticks_ISO_T2_8,117,9999,9999,9999,699693132
1076,9,Ticks_ISO_T2_8,118,9999,9999,9999,700493936
1076,9,Ticks_ISO_T2_8,119,9999,9999,9999,701293664
1077,23,Ticks_Phase_5,0,5,42,127,710556920
1077,23,Ticks_Phase_5,1,5,42,127,711056856
1077,23,Ticks_Phase_5,2,5,42,127,711556492
1077,23,Ticks_Phase_5,3,5,42,127,712057248
1077,23,Ticks_Phase_5,4,5,42,127,712556956
1077,23,Ticks_Phase_5,5,5,42,127,713056816
1077,23,Ticks_Phase_5,6,5,42,127,713557500
1077,23,Ticks_Phase_5,7,5,42,127,714056960
1077,23,Ticks_Phase_5,8,5,42,127,714556744
1077,23,Ticks_Phase_5,9,1,48,61,714583324
1077,23,Ticks_Phase_5,10,5,42,127,715056436
1077,23,Ticks_Phase_5,11,1,48,56,715057400
1077,23,Ticks_Phase_5,12,5,42,127,715557172
1077,23,Ticks_Phase_5,13,1,48,57,715579984
1077,23,Ticks_Phase_5,14,5,42,127,716057008
1077,23,Ticks_Phase_5,15,1,48,56,716102808
1077,23,Ticks_Phase_5,16,5,42,127,716556844
1077,23,Ticks_Phase_5,17,1,48,49,716589692
1077,23,Ticks_Phase_5,18,5,42,127,717057356
1077,23,Ticks_Phase_5,19,1,48,48,717069760
1077,23,Ticks_Phase_5,20,5,42,127,717557044
1077,23,Ticks_Phase_5,21,1,48,46,717568772
1077,23,Ticks_Phase_5,22,5,42,127,718056880
1077,23,Ticks_Phase_5,23,1,48,40,718075428
1077,23,Ticks_Phase_5,24,5,42,127,718556568
1077,23,Ticks_Phase_5,25,1,48,49,718568448
1077,23,Ticks_Phase_5,26,1,48,43,719056244
1077,23,Ticks_Phase_5,27,5,42,127,719057892
1077,23,Ticks_Phase_5,28,5,42,127,719557064
1077,23,Ticks_Phase_5,29,1,48,42,719581380
1077,23,Ticks_Phase_5,30,5,42,127,720056904
1077,23,Ticks_Phase_5,31,1,48,42,720083308
1077,23,Ticks_Phase_5,32,5,42,127,720557416
1077,23,Ticks_Phase_5,33,1,48,49,720575892
1077,23,Ticks_Phase_5,34,1,48,44,721063648
1077,23,Ticks_Phase_5,35,5,42,127,721067356
1077,23,Ticks_Phase_5,36,5,42,127,721567052
1077,23,Ticks_Phase_5,37,1,48,43,721582596
1077,23,Ticks_Phase_5,38,1,48,43,722062876
1077,23,Ticks_Phase_5,39,5,42,127,722066732
1077,23,Ticks_Phase_5,40,5,42,127,722566576
1077,23,Ticks_Phase_5,41,1,48,40,722573880
1077,23,Ticks_Phase_5,42,1,48,47,723061504
1077,23,Ticks_Phase_5,43,5,42,127,723067232
1077,23,Ticks_Phase_5,44,1,48,43,723566400
1077,23,Ticks_Phase_5,45,5,42,127,723567968
1077,23,Ticks_Phase_5,46,1,48,28,723613004
1077,23,Ticks_Phase_5,47,5,42,127,724066596
1077,23,Ticks_Phase_5,48,1,48,43,724095104
1077,23,Ticks_Phase_5,49,5,42,127,724567408
1077,23,Ticks_Phase_5,50,1,48,42,724590672
1077,23,Ticks_Phase_5,51,5,42,127,725067092
1077,23,Ticks_Phase_5,52,1,48,42,725085644
1077,23,Ticks_Phase_5,53,5,42,127,725556724
1077,23,Ticks_Phase_5,54,1,48,46,725566060
1077,23,Ticks_Phase_5,55,5,42,127,726057604
1077,23,Ticks_Phase_5,56,1,48,44,726079148
1077,23,Ticks_Phase_5,57,5,42,127,726557144
1077,23,Ticks_Phase_5,58,1,48,51,726561456
1077,23,Ticks_Phase_5,59,5,42,127,727056832
1077,23,Ticks_Phase_5,60,1,48,49,727069684
1077,23,Ticks_Phase_5,61,5,42,127,727556668
1077,23,Ticks_Phase_5,62,1,48,45,727582400
1077,23,Ticks_Phase_5,63,5,42,127,728057180
1077,23,Ticks_Phase_5,64,1,48,46,728074832
1077,23,Ticks_Phase_5,65,1,48,47,728542596
1077,23,Ticks_Phase_5,66,5,42,127,728557012
1077,23,Ticks_Phase_5,67,5,42,127,729056780
1077,23,Ticks_Phase_5,68,1,48,49,729065144
1077,23,Ticks_Phase_5,69,1,48,54,729542120
1077,23,Ticks_Phase_5,70,5,42,127,729557580
1077,23,Ticks_Phase_5,71,1,48,51,730038068
1077,23,Ticks_Phase_5,72,5,42,127,730057120
1077,23,Ticks_Phase_5,73,1,48,37,730074608
1077,23,Ticks_Phase_5,74,1,48,47,730550392
1077,23,Ticks_Phase_5,75,5,42,127,730556712
1077,23,Ticks_Phase_5,76,5,42,127,731056708
1077,23,Ticks_Phase_5,77,1,48,49,731059452
1077,23,Ticks_Phase_5,78,5,42,127,731557216
1077,23,Ticks_Phase_5,79,1,48,45,731559008
1077,23,Ticks_Phase_5,80,5,42,127,732056832
1077,23,Ticks_Phase_5,81,1,48,39,732077404
1077,23,Ticks_Phase_5,82,1,48,51,732541132
1077,23,Ticks_Phase_5,83,5,42,127,732556740
1077,23,Ticks_Phase_5,84,1,48,52,733055740
1077,23,Ticks_Phase_5,85,5,42,127,733057472
1077,23,Ticks_Phase_5,86,1,48,59,733553380
1077,23,Ticks_Phase_5,87,5,42,127,733557088
1077,23,Ticks_Phase_5,88,5,42,127,734056708
1077,23,Ticks_Phase_5,89,1,48,47,734072700
1077,23,Ticks_Phase_5,90,1,48,43,734566052
1077,23,Ticks_Phase_5,91,5,42,127,734567696
1077,23,Ticks_Phase_5,92,5,42,127,735066720
1077,23,Ticks_Phase_5,93,1,48,56,735090504
1077,23,Ticks_Phase_5,94,1,48,52,735553156
1077,23,Ticks_Phase_5,95,5,42,127,735567148
1077,23,Ticks_Phase_5,96,1,48,44,736064844
1077,23,Ticks_Phase_5,97,5,42,127,736066888
1077,23,Ticks_Phase_5,98,1,48,51,736562868
1077,23,Ticks_Phase_5,99,5,42,127,736566724
1077,23,Ticks_Phase_5,100,5,42,127,737067392
1077,23,Ticks_Phase_5,101,1,48,59,737082036
1077,23,Ticks_Phase_5,102,5,42,127,737567080
1077,23,Ticks_Phase_5,103,1,48,49,737594544
1077,23,Ticks_Phase_5,104,5,42,127,738066692
1077,23,Ticks_Phase_5,105,1,48,66,738075504
1077,23,Ticks_Phase_5,106,5,42,127,738566676
1077,23,Ticks_Phase_5,107,1,48,57,738595708
1077,23,Ticks_Phase_5,108,5,42,127,739067412
1077,23,Ticks_Phase_5,109,1,48,59,739098768
1077,23,Ticks_Phase_5,110,5,42,127,739566952
1077,23,Ticks_Phase_5,111,1,48,58,739594172
1077,23,Ticks_Phase_5,112,5,42,127,740066640
1077,23,Ticks_Phase_5,113,1,48,58,740089600
1077,23,Ticks_Phase_5,114,5,42,127,740567524
1077,23,Ticks_Phase_5,115,1,48,62,740573264
1077,23,Ticks_Phase_5,116,5,42,127,741067212
1077,23,Ticks_Phase_5,117,1,48,63,741100588
1077,23,Ticks_Phase_5,118,5,42,127,741566976
1077,23,Ticks_Phase_5,119,1,48,51,741574132
1077,23,Ticks_Phase_5,120,1,48,67,742060632
1077,23,Ticks_Phase_5,121,5,42,127,742066656
1077,23,Ticks_Phase_5,122,1,48,57,742566096
1077,23,Ticks_Phase_5,123,5,42,127,742586792
1077,23,Ticks_Phase_5,124,1,48,59,743078808
1077,23,Ticks_Phase_5,125,5,42,127,743086704
1077,23,Ticks_Phase_5,126,1,48,49,743586924
1077,23,Ticks_Phase_5,127,5,42,127,743588260
1077,23,Ticks_Phase_5,128,1,48,68,744065456
1077,23,Ticks_Phase_5,129,5,42,127,744086828
1077,23,Ticks_Phase_5,130,5,42,127,744586596
1077,23,Ticks_Phase_5,131,1,48,70,744604608
1077,23,Ticks_Phase_5,132,1,48,55,745086200
1077,23,Ticks_Phase_5,133,5,42,127,745087772
1077,23,Ticks_Phase_5,134,5,42,127,745587020
1077,23,Ticks_Phase_5,135,1,48,61,745614168
1077,23,Ticks_Phase_5,136,1,48,55,746072660
1077,23,Ticks_Phase_5,137,5,42,127,746086852
1077,23,Ticks_Phase_5,138,5,42,127,746586548
1077,23,Ticks_Phase_5,139,1,48,67,746589064
1077,23,Ticks_Phase_5,140,5,42,127,747087356
1077,23,Ticks_Phase_5,141,1,48,47,747109572
1077,23,Ticks_Phase_5,142,5,42,127,747586868
1077,23,Ticks_Phase_5,143,1,48,56,747594272
1077,23,Ticks_Phase_5,144,1,48,53,748082324
1077,23,Ticks_Phase_5,145,5,42,127,748086624
1077,23,Ticks_Phase_5,146,5,42,127,748587368
1077,23,Ticks_Phase_5,147,1,48,58,748600448
1077,23,Ticks_Phase_5,148,1,48,48,749069940
1077,23,Ticks_Phase_5,149,5,42,127,749086972
1077,23,Ticks_Phase_5,150,1,48,57,749584848
1077,23,Ticks_Phase_5,151,5,42,127,749586736
1077,23,Ticks_Phase_5,152,1,48,62,750082416
1077,23,Ticks_Phase_5,153,5,42,127,750086644
1077,23,Ticks_Phase_5,154,5,42,127,750587464
1077,23,Ticks_Phase_5,155,1,48,60,750592152
1077,23,Ticks_Phase_5,156,5,42,127,751066560
1077,23,Ticks_Phase_5,157,1,48,59,751092816
1077,23,Ticks_Phase_5,158,5,42,127,751567516
1077,23,Ticks_Phase_5,159,1,48,55,751573996
1077,23,Ticks_Phase_5,160,5,42,127,752067056
1077,23,Ticks_Phase_5,161,1,48,57,752068096
1077,23,Ticks_Phase_5,162,5,42,127,752566748
1077,23,Ticks_Phase_5,163,1,48,47,752582144
1077,23,Ticks_Phase_5,164,1,48,56,753059356
1077,23,Ticks_Phase_5,165,5,42,127,753067548
1077,23,Ticks_Phase_5,166,1,48,59,753549084
1077,23,Ticks_Phase_5,167,5,42,127,753567236
1077,23,Ticks_Phase_5,168,5,42,127,754066932
1077,23,Ticks_Phase_5,169,1,48,55,754076720
1077,23,Ticks_Phase_5,170,1,48,57,754558940
1077,23,Ticks_Phase_5,171,5,42,127,754566612
1077,23,Ticks_Phase_5,172,1,48,54,755051964
1077,23,Ticks_Phase_5,173,5,42,127,755067424
1077,23,Ticks_Phase_5,174,5,42,127,755567264
1077,23,Ticks_Phase_5,175,1,48,67,755573900
1077,23,Ticks_Phase_5,176,1,48,56,756064984
1077,23,Ticks_Phase_5,177,5,42,127,756066652
1077,23,Ticks_Phase_5,178,5,42,127,756567392
1077,23,Ticks_Phase_5,179,1,48,61,756585568
1077,23,Ticks_Phase_5,180,1,48,59,757046652
1077,23,Ticks_Phase_5,181,5,42,127,757067296
1077,23,Ticks_Phase_5,182,5,42,127,757567264
1077,23,Ticks_Phase_5,183,1,48,57,757577152
1077,23,Ticks_Phase_5,184,1,48,60,758051780
1077,23,Ticks_Phase_5,185,5,42,127,758066644
1077,23,Ticks_Phase_5,186,1,48,62,758539868
1077,23,Ticks_Phase_5,187,5,42,127,758567456
1077,23,Ticks_Phase_5,188,5,42,127,759016832
1077,23,Ticks_Phase_5,189,1,48,61,759052524
1077,23,Ticks_Phase_5,190,5,42,127,759516592
1077,23,Ticks_Phase_5,191,1,48,55,759542024
1077,23,Ticks_Phase_5,192,1,48,58,760005688
1077,23,Ticks_Phase_5,193,5,42,127,760017468
1077,23,Ticks_Phase_5,194,5,42,127,760516940
1077,23,Ticks_Phase_5,195,1,48,48,760524100
1077,23,Ticks_Phase_5,196,5,42,127,761016628
1077,23,Ticks_Phase_5,197,1,48,48,761031500
1077,23,Ticks_Phase_5,198,1,48,58,761503768
1077,23,Ticks_Phase_5,199,5,42,127,761517508
1077,23,Ticks_Phase_5,200,1,48,62,762011172
1077,23,Ticks_Phase_5,201,5,42,127,762027304
1077,23,Ticks_Phase_5,202,5,42,127,762527148
1077,23,Ticks_Phase_5,203,1,48,51,762542248
1077,23,Ticks_Phase_5,204,1,48,54,763006804
1077,23,Ticks_Phase_5,205,5,42,127,763026904
1077,23,Ticks_Phase_5,206,1,48,62,763507688
1077,23,Ticks_Phase_5,207,5,42,127,763526592
1077,23,Ticks_Phase_5,208,1,48,64,764001460
1077,23,Ticks_Phase_5,209,5,42,127,764027176
1077,23,Ticks_Phase_5,210,1,48,59,764500100
1077,23,Ticks_Phase_5,211,5,42,127,764526940
1077,23,Ticks_Phase_5,212,1,48,60,764995344
1077,23,Ticks_Phase_5,213,5,42,127,765026776
1077,23,Ticks_Phase_5,214,1,48,55,765518272
1077,23,Ticks_Phase_5,215,5,42,127,765527436
1077,23,Ticks_Phase_5,216,1,48,54,766024388
1077,23,Ticks_Phase_5,217,5,42,127,766027420
1077,23,Ticks_Phase_5,218,1,48,56,766516580
1077,23,Ticks_Phase_5,219,5,42,127,766526716
1077,23,Ticks_Phase_5,220,1,48,54,767023368
1077,23,Ticks_Phase_5,221,5,42,127,767026628
1077,23,Ticks_Phase_5,222,1,48,60,767519096
1077,23,Ticks_Phase_5,223,5,42,127,767576288
1077,23,Ticks_Phase_5,224,1,48,62,768053376
1077,23,Ticks_Phase_5,225,5,42,127,768077320
1077,23,Ticks_Phase_5,226,1,48,59,768563472
1077,23,Ticks_Phase_5,227,5,42,127,768576764
1077,23,Ticks_Phase_5,228,1,48,58,769044208
1077,23,Ticks_Phase_5,229,5,42,127,769076672
1077,23,Ticks_Phase_5,230,1,48,58,769548624
1077,23,Ticks_Phase_5,231,5,42,127,769577332
1077,23,Ticks_Phase_5,232,5,42,127,770077400
1077,23,Ticks_Phase_5,233,1,48,59,770078364
1077,23,Ticks_Phase_5,234,1,48,61,770567692
1077,23,Ticks_Phase_5,235,5,42,127,770576708
1077,23,Ticks_Phase_5,236,1,48,61,771074584
1077,23,Ticks_Phase_5,237,5,42,127,771076400
1077,23,Ticks_Phase_5,238,1,48,61,771562720
1077,23,Ticks_Phase_5,239,5,42,127,771577356
1077,23,Ticks_Phase_5,240,5,42,127,772077128
1077,23,Ticks_Phase_5,241,1,48,59,772091624
1077,23,Ticks_Phase_5,242,1,48,62,772569440
1077,23,Ticks_Phase_5,243,5,42,127,772576584
1077,23,Ticks_Phase_5,244,5,42,127,773077328
1077,23,Ticks_Phase_5,245,1,48,60,773088908
1077,23,Ticks_Phase_5,246,5,42,127,773577164
1077,23,Ticks_Phase_5,247,1,48,64,773595936
1077,23,Ticks_Phase_5,248,1,48,57,774073664
1077,23,Ticks_Phase_5,249,5,42,127,774076920
1077,23,Ticks_Phase_5,250,5,42,127,774576392
1077,23,Ticks_Phase_5,251,1,48,67,774604736
1077,23,Ticks_Phase_5,252,5,42,127,775077204
1077,23,Ticks_Phase_5,253,1,48,55,775087516
1077,23,Ticks_Phase_5,254,1,48,67,775574916
1077,23,Ticks_Phase_5,255,5,42,127,775577036
1077,23,Ticks_Phase_5,256,1,48,36,776105896
1077,23,Ticks_Phase_5,257,5,42,127,776177072
1077,23,Ticks_Phase_5,258,5,42,127,776676620
1077,23,Ticks_Phase_5,259,1,48,47,776680108
1077,23,Ticks_Phase_5,260,1,48,57,777163084
1077,23,Ticks_Phase_5,261,5,42,127,777176304
1077,23,Ticks_Phase_5,262,1,48,63,777670636
1077,23,Ticks_Phase_5,263,5,42,127,777677184
1077,23,Ticks_Phase_5,264,1,48,61,778170028
1077,23,Ticks_Phase_5,265,5,42,127,778177024
1077,23,Ticks_Phase_5,266,1,48,53,778668220
1077,23,Ticks_Phase_5,267,5,42,127,778676488
1077,23,Ticks_Phase_5,268,5,42,127,779177304
1077,23,Ticks_Phase_5,269,1,48,43,779179968
1077,23,Ticks_Phase_5,270,1,48,58,779656884
1077,23,Ticks_Phase_5,271,5,42,127,779676984
1077,23,Ticks_Phase_5,272,5,42,127,780176680
1077,23,Ticks_Phase_5,273,1,48,62,780177644
1077,23,Ticks_Phase_5,274,1,48,64,780675912
1077,23,Ticks_Phase_5,275,5,42,127,780677332
1077,23,Ticks_Phase_5,276,1,48,55,781160888
1077,23,Ticks_Phase_5,277,5,42,127,781177244
1077,23,Ticks_Phase_5,278,1,48,62,781674892
1077,23,Ticks_Phase_5,279,5,42,127,781676856
1077,23,Ticks_Phase_5,280,5,42,127,782176556
1077,23,Ticks_Phase_5,281,1,48,58,782184992
1077,23,Ticks_Phase_5,282,5,42,127,782677216
1077,23,Ticks_Phase_5,283,1,48,61,782680780
1077,23,Ticks_Phase_5,284,5,42,127,783177200
1077,23,Ticks_Phase_5,285,1,48,64,783181292
1077,23,Ticks_Phase_5,286,5,42,127,783676936
1077,23,Ticks_Phase_5,287,1,48,56,783725092
1077,23,Ticks_Phase_5,288,1,48,55,784169324
1077,23,Ticks_Phase_5,289,5,42,127,784176468
1077,23,Ticks_Phase_5,290,5,42,127,784677284
1077,23,Ticks_Phase_5,291,1,48,54,784688196
1077,23,Ticks_Phase_5,292,1,48,59,785175308
1077,23,Ticks_Phase_5,293,5,42,127,785177040
1077,23,Ticks_Phase_5,294,5,42,127,785577212
1077,23,Ticks_Phase_5,295,1,48,61,785682996
1077,23,Ticks_Phase_5,296,5,42,127,786076900
1077,23,Ticks_Phase_5,297,1,48,48,786153852
1077,23,Ticks_Phase_5,298,1,48,54,786576440
1077,23,Ticks_Phase_5,299,5,42,127,786578000
1077,23,Ticks_Phase_5,300,1,48,32,787068672
1077,23,Ticks_Phase_5,301,5,42,127,787076348
1077,23,Ticks_Phase_5,302,1,48,58,787559300
1077,23,Ticks_Phase_5,303,5,42,127,787577228
1077,23,Ticks_Phase_5,304,1,48,60,788067532
1077,23,Ticks_Phase_5,305,5,42,127,788076844
1077,23,Ticks_Phase_5,306,1,48,57,788552984
1077,23,Ticks_Phase_5,307,5,42,127,788576832
1077,23,Ticks_Phase_5,308,1,48,56,789037376
1077,23,Ticks_Phase_5,309,5,42,127,789077344
1077,23,Ticks_Phase_5,310,1,48,52,789565220
1077,23,Ticks_Phase_5,311,5,42,127,789577032
1077,23,Ticks_Phase_5,312,5,42,127,790076776
1077,23,Ticks_Phase_5,313,1,48,58,790090028
1077,23,Ticks_Phase_5,314,1,48,53,790551932
1077,23,Ticks_Phase_5,315,5,42,127,790576384
1077,23,Ticks_Phase_5,316,1,48,53,791066760
1077,23,Ticks_Phase_5,317,5,42,127,791077268
1077,23,Ticks_Phase_5,318,5,42,127,791576888
1077,23,Ticks_Phase_5,319,1,48,59,791579552
1077,23,Ticks_Phase_5,320,5,42,127,792076796
1077,23,Ticks_Phase_5,321,1,48,59,792081260
1077,23,Ticks_Phase_5,322,5,42,127,792577384
1077,23,Ticks_Phase_5,323,1,48,56,792596832
1077,23,Ticks_Phase_5,324,1,48,54,793051272
1077,23,Ticks_Phase_5,325,5,42,127,793076992
1077,23,Ticks_Phase_5,326,5,42,127,793576984
1077,23,Ticks_Phase_5,327,1,48,50,793580104
1077,23,Ticks_Phase_5,328,5,42,127,794076524
1077,23,Ticks_Phase_5,329,1,48,47,794095672
1077,23,Ticks_Phase_5,330,1,48,57,794564404
1077,23,Ticks_Phase_5,331,5,42,127,794577176
1077,23,Ticks_Phase_5,332,5,42,127,795076944
1077,23,Ticks_Phase_5,333,1,48,60,795080140
1077,23,Ticks_Phase_5,0,9999,9999,9999,710554708
1077,23,Ticks_Phase_5,1,9999,9999,9999,711054416
1077,23,Ticks_Phase_5,2,9999,9999,9999,711554128
1077,23,Ticks_Phase_5,3,9999,9999,9999,712054884
1077,23,Ticks_Phase_5,4,9999,9999,9999,712554592
1077,23,Ticks_Phase_5,5,9999,9999,9999,713054304
1077,23,Ticks_Phase_5,6,9999,9999,9999,713555060
1077,23,Ticks_Phase_5,7,9999,9999,9999,714054744
1077,23,Ticks_Phase_5,8,9999,9999,9999,714554456
1077,23,Ticks_Phase_5,9,9999,9999,9999,715054144
1077,23,Ticks_Phase_5,10,9999,9999,9999,715554880
1077,23,Ticks_Phase_5,11,9999,9999,9999,716054644
1077,23,Ticks_Phase_5,12,9999,9999,9999,716554332
1077,23,Ticks_Phase_5,13,9999,9999,9999,717055064
1077,23,Ticks_Phase_5,14,9999,9999,9999,717554752
1077,23,Ticks_Phase_5,15,9999,9999,9999,718054516
1077,23,Ticks_Phase_5,16,9999,9999,9999,718554204
1077,23,Ticks_Phase_5,17,9999,9999,9999,719054940
1077,23,Ticks_Phase_5,18,9999,9999,9999,719554628
1077,23,Ticks_Phase_5,19,9999,9999,9999,720054392
1077,23,Ticks_Phase_5,20,9999,9999,9999,720555128
1077,23,Ticks_Phase_5,21,9999,9999,9999,721065068
1077,23,Ticks_Phase_5,22,9999,9999,9999,721564760
1077,23,Ticks_Phase_5,23,9999,9999,9999,722064444
1077,23,Ticks_Phase_5,24,9999,9999,9999,722564212
1077,23,Ticks_Phase_5,25,9999,9999,9999,723064940
1077,23,Ticks_Phase_5,26,9999,9999,9999,723564636
1077,23,Ticks_Phase_5,27,9999,9999,9999,724064380
1077,23,Ticks_Phase_5,28,9999,9999,9999,724565116
1077,23,Ticks_Phase_5,29,9999,9999,9999,725064780
1077,23,Ticks_Phase_5,30,9999,9999,9999,725554284
1077,23,Ticks_Phase_5,31,9999,9999,9999,726055020
1077,23,Ticks_Phase_5,32,9999,9999,9999,726554708
1077,23,Ticks_Phase_5,33,9999,9999,9999,727054396
1077,23,Ticks_Phase_5,34,9999,9999,9999,727554156
1077,23,Ticks_Phase_5,35,9999,9999,9999,728054892
1077,23,Ticks_Phase_5,36,9999,9999,9999,728554572
1077,23,Ticks_Phase_5,37,9999,9999,9999,729054268
1077,23,Ticks_Phase_5,38,9999,9999,9999,729555068
1077,23,Ticks_Phase_5,39,9999,9999,9999,730054756
1077,23,Ticks_Phase_5,40,9999,9999,9999,730554424
1077,23,Ticks_Phase_5,41,9999,9999,9999,731054192
1077,23,Ticks_Phase_5,42,9999,9999,9999,731554928
1077,23,Ticks_Phase_5,43,9999,9999,9999,732054616
1077,23,Ticks_Phase_5,44,9999,9999,9999,732554300
1077,23,Ticks_Phase_5,45,9999,9999,9999,733055048
1077,23,Ticks_Phase_5,46,9999,9999,9999,733554800
1077,23,Ticks_Phase_5,47,9999,9999,9999,734054492
1077,23,Ticks_Phase_5,48,9999,9999,9999,734564444
1077,23,Ticks_Phase_5,49,9999,9999,9999,735064132
1077,23,Ticks_Phase_5,50,9999,9999,9999,735564860
1077,23,Ticks_Phase_5,51,9999,9999,9999,736064636
1077,23,Ticks_Phase_5,52,9999,9999,9999,736564288
1077,23,Ticks_Phase_5,53,9999,9999,9999,737065028
1077,23,Ticks_Phase_5,54,9999,9999,9999,737564788
1077,23,Ticks_Phase_5,55,9999,9999,9999,738064476
1077,23,Ticks_Phase_5,56,9999,9999,9999,738564164
1077,23,Ticks_Phase_5,57,9999,9999,9999,739064900
1077,23,Ticks_Phase_5,58,9999,9999,9999,739564660
1077,23,Ticks_Phase_5,59,9999,9999,9999,740064352
1077,23,Ticks_Phase_5,60,9999,9999,9999,740565084
1077,23,Ticks_Phase_5,61,9999,9999,9999,741064772
1077,23,Ticks_Phase_5,62,9999,9999,9999,741564536
1077,23,Ticks_Phase_5,63,9999,9999,9999,742064220
1077,23,Ticks_Phase_5,64,9999,9999,9999,742584428
1077,23,Ticks_Phase_5,65,9999,9999,9999,743084116
1077,23,Ticks_Phase_5,66,9999,9999,9999,743584856
1077,23,Ticks_Phase_5,67,9999,9999,9999,744084540
1077,23,Ticks_Phase_5,68,9999,9999,9999,744584308
1077,23,Ticks_Phase_5,69,9999,9999,9999,745085044
1077,23,Ticks_Phase_5,70,9999,9999,9999,745584732
1077,23,Ticks_Phase_5,71,9999,9999,9999,746084412
1077,23,Ticks_Phase_5,72,9999,9999,9999,746584184
1077,23,Ticks_Phase_5,73,9999,9999,9999,747084916
1077,23,Ticks_Phase_5,74,9999,9999,9999,747584580
1077,23,Ticks_Phase_5,75,9999,9999,9999,748084336
1077,23,Ticks_Phase_5,76,9999,9999,9999,748585076
1077,23,Ticks_Phase_5,77,9999,9999,9999,749084760
1077,23,Ticks_Phase_5,78,9999,9999,9999,749584476
1077,23,Ticks_Phase_5,79,9999,9999,9999,750084208
1077,23,Ticks_Phase_5,80,9999,9999,9999,750584948
1077,23,Ticks_Phase_5,81,9999,9999,9999,751064120
1077,23,Ticks_Phase_5,82,9999,9999,9999,751564856
1077,23,Ticks_Phase_5,83,9999,9999,9999,752064620
1077,23,Ticks_Phase_5,84,9999,9999,9999,752564308
1077,23,Ticks_Phase_5,85,9999,9999,9999,753065036
1077,23,Ticks_Phase_5,86,9999,9999,9999,753564724
1077,23,Ticks_Phase_5,87,9999,9999,9999,754064492
1077,23,Ticks_Phase_5,88,9999,9999,9999,754564176
1077,23,Ticks_Phase_5,89,9999,9999,9999,755064912
1077,23,Ticks_Phase_5,90,9999,9999,9999,755564604
1077,23,Ticks_Phase_5,91,9999,9999,9999,756064384
1077,23,Ticks_Phase_5,92,9999,9999,9999,756565104
1077,23,Ticks_Phase_5,93,9999,9999,9999,757064784
1077,23,Ticks_Phase_5,94,9999,9999,9999,757564528
1077,23,Ticks_Phase_5,95,9999,9999,9999,758064208
1077,23,Ticks_Phase_5,96,9999,9999,9999,758564944
1077,23,Ticks_Phase_5,97,9999,9999,9999,759014464
1077,23,Ticks_Phase_5,98,9999,9999,9999,759514228
1077,23,Ticks_Phase_5,99,9999,9999,9999,760014956
1077,23,Ticks_Phase_5,100,9999,9999,9999,760514652
1077,23,Ticks_Phase_5,101,9999,9999,9999,761014340
1077,23,Ticks_Phase_5,102,9999,9999,9999,761515068
1077,23,Ticks_Phase_5,103,9999,9999,9999,762025016
1077,23,Ticks_Phase_5,104,9999,9999,9999,762524784
1077,23,Ticks_Phase_5,105,9999,9999,9999,763024468
1077,23,Ticks_Phase_5,106,9999,9999,9999,763524152
1077,23,Ticks_Phase_5,107,9999,9999,9999,764024888
1077,23,Ticks_Phase_5,108,9999,9999,9999,764524652
1077,23,Ticks_Phase_5,109,9999,9999,9999,765024336
1077,23,Ticks_Phase_5,110,9999,9999,9999,765525072
1077,23,Ticks_Phase_5,111,9999,9999,9999,766024760
1077,23,Ticks_Phase_5,112,9999,9999,9999,766524500
1077,23,Ticks_Phase_5,113,9999,9999,9999,767024188
1077,23,Ticks_Phase_5,114,9999,9999,9999,767574076
1077,23,Ticks_Phase_5,115,9999,9999,9999,768074808
1077,23,Ticks_Phase_5,116,9999,9999,9999,768574548
1077,23,Ticks_Phase_5,117,9999,9999,9999,769074236
1077,23,Ticks_Phase_5,118,9999,9999,9999,769574972
1077,23,Ticks_Phase_5,119,9999,9999,9999,770074736
1077,23,Ticks_Phase_5,120,9999,9999,9999,770574420
1077,23,Ticks_Phase_5,121,9999,9999,9999,771074132
1077,23,Ticks_Phase_5,122,9999,9999,9999,771574844
1077,23,Ticks_Phase_5,123,9999,9999,9999,772074612
1077,23,Ticks_Phase_5,124,9999,9999,9999,772574296
1077,23,Ticks_Phase_5,125,9999,9999,9999,773075036
1077,23,Ticks_Phase_5,126,9999,9999,9999,773574728
1077,23,Ticks_Phase_5,127,9999,9999,9999,774074484
1077,23,Ticks_Phase_5,128,9999,9999,9999,774574180
1077,23,Ticks_Phase_5,129,9999,9999,9999,775074916
1077,23,Ticks_Phase_5,130,9999,9999,9999,775574632
1077,23,Ticks_Phase_5,131,9999,9999,9999,776174708
1077,23,Ticks_Phase_5,132,9999,9999,9999,776674404
1077,23,Ticks_Phase_5,133,9999,9999,9999,777174088
1077,23,Ticks_Phase_5,134,9999,9999,9999,777674824
1077,23,Ticks_Phase_5,135,9999,9999,9999,778174584
1077,23,Ticks_Phase_5,136,9999,9999,9999,778674272
1077,23,Ticks_Phase_5,137,9999,9999,9999,779175012
1077,23,Ticks_Phase_5,138,9999,9999,9999,779674692
1077,23,Ticks_Phase_5,139,9999,9999,9999,780174464
1077,23,Ticks_Phase_5,140,9999,9999,9999,780674152
1077,23,Ticks_Phase_5,141,9999,9999,9999,781174880
1077,23,Ticks_Phase_5,142,9999,9999,9999,781674600
1077,23,Ticks_Phase_5,143,9999,9999,9999,782174264
1077,23,Ticks_Phase_5,144,9999,9999,9999,782675000
1077,23,Ticks_Phase_5,145,9999,9999,9999,783174760
1077,23,Ticks_Phase_5,146,9999,9999,9999,783674424
1077,23,Ticks_Phase_5,147,9999,9999,9999,784174180
1077,23,Ticks_Phase_5,148,9999,9999,9999,784674920
1077,23,Ticks_Phase_5,149,9999,9999,9999,785174616
1077,23,Ticks_Phase_5,150,9999,9999,9999,785574996
1077,23,Ticks_Phase_5,151,9999,9999,9999,786074684
1077,23,Ticks_Phase_5,152,9999,9999,9999,786574448
1077,23,Ticks_Phase_5,153,9999,9999,9999,787074132
1077,23,Ticks_Phase_5,154,9999,9999,9999,787574868
1077,23,Ticks_Phase_5,155,9999,9999,9999,788074556
1077,23,Ticks_Phase_5,156,9999,9999,9999,788574320
1077,23,Ticks_Phase_5,157,9999,9999,9999,789075052
1077,23,Ticks_Phase_5,158,9999,9999,9999,789574744
1077,23,Ticks_Phase_5,159,9999,9999,9999,790074484
1077,23,Ticks_Phase_5,160,9999,9999,9999,790574168
1077,23,Ticks_Phase_5,161,9999,9999,9999,791074904
1077,23,Ticks_Phase_5,162,9999,9999,9999,791574596
1077,23,Ticks_Phase_5,163,9999,9999,9999,792074360
1077,23,Ticks_Phase_5,164,9999,9999,9999,792575096
1077,23,Ticks_Phase_5,165,9999,9999,9999,793074776
1077,23,Ticks_Phase_5,166,9999,9999,9999,793574472
1077,23,Ticks_Phase_5,167,9999,9999,9999,794074232
1077,23,Ticks_Phase_5,168,9999,9999,9999,794574960
1077,23,Ticks_Phase_5,169,9999,9999,9999,795074656
1078,22,Ticks_Phase_8,0,5,42,127,805353904
1078,22,Ticks_Phase_8,1,5,42,127,806153712
1078,22,Ticks_Phase_8,2,5,42,127,806954268
1078,22,Ticks_Phase_8,3,5,42,127,807754028
1078,22,Ticks_Phase_8,4,5,42,127,808553984
1078,22,Ticks_Phase_8,5,1,48,61,808624360
1078,22,Ticks_Phase_8,6,5,42,127,809353772
1078,22,Ticks_Phase_8,7,1,48,54,809369096
1078,22,Ticks_Phase_8,8,5,42,127,810154456
1078,22,Ticks_Phase_8,9,1,48,56,810163276
1078,22,Ticks_Phase_8,10,5,42,127,810954240
1078,22,Ticks_Phase_8,11,1,48,57,810955208
1078,22,Ticks_Phase_8,12,1,48,53,811739612
1078,22,Ticks_Phase_8,13,5,42,127,811753872
1078,22,Ticks_Phase_8,14,1,48,52,812544792
1078,22,Ticks_Phase_8,15,5,42,127,812553660
1078,22,Ticks_Phase_8,16,1,48,48,813341424
1078,22,Ticks_Phase_8,17,5,42,127,813354268
1078,22,Ticks_Phase_8,18,5,42,127,814154012
1078,22,Ticks_Phase_8,19,1,48,58,814184020
1078,22,Ticks_Phase_8,20,1,48,53,814928076
1078,22,Ticks_Phase_8,21,5,42,127,814953792
1078,22,Ticks_Phase_8,22,1,48,54,815679232
1078,22,Ticks_Phase_8,23,5,42,127,815753728
1078,22,Ticks_Phase_8,24,1,48,57,816506232
1078,22,Ticks_Phase_8,25,5,42,127,816554488
1078,22,Ticks_Phase_8,26,1,48,56,817326984
1078,22,Ticks_Phase_8,27,5,42,127,817354052
1078,22,Ticks_Phase_8,28,5,42,127,818153768
1078,22,Ticks_Phase_8,29,1,48,62,818172768
1078,22,Ticks_Phase_8,30,5,42,127,818953776
1078,22,Ticks_Phase_8,31,1,48,45,818965208
1078,22,Ticks_Phase_8,32,5,42,127,819754460
1078,22,Ticks_Phase_8,33,1,48,57,819757508
1078,22,Ticks_Phase_8,34,5,42,127,820554048
1078,22,Ticks_Phase_8,35,1,48,54,820592968
1078,22,Ticks_Phase_8,36,5,42,127,821353832
1078,22,Ticks_Phase_8,37,1,48,53,821359724
1078,22,Ticks_Phase_8,38,5,42,127,822153772
1078,22,Ticks_Phase_8,39,1,48,52,822174340
1078,22,Ticks_Phase_8,40,1,48,54,822947232
1078,22,Ticks_Phase_8,41,5,42,127,822954520
1078,22,Ticks_Phase_8,42,5,42,127,823754092
1078,22,Ticks_Phase_8,43,1,48,52,823770536
1078,22,Ticks_Phase_8,44,1,48,48,824542984
1078,22,Ticks_Phase_8,45,5,42,127,824553796
1078,22,Ticks_Phase_8,46,5,42,127,825353736
1078,22,Ticks_Phase_8,47,1,48,58,825386660
1078,22,Ticks_Phase_8,48,5,42,127,826154496
1078,22,Ticks_Phase_8,49,1,48,54,826191780
1078,22,Ticks_Phase_8,50,5,42,127,826954084
1078,22,Ticks_Phase_8,51,1,48,54,826957724
1078,22,Ticks_Phase_8,52,5,42,127,827753944
1078,22,Ticks_Phase_8,53,1,48,61,827769120
1078,22,Ticks_Phase_8,54,5,42,127,828553656
1078,22,Ticks_Phase_8,55,1,48,58,828588080
1078,22,Ticks_Phase_8,56,5,42,127,829333824
1078,22,Ticks_Phase_8,57,1,48,52,829349520
1078,22,Ticks_Phase_8,58,1,48,51,830085116
1078,22,Ticks_Phase_8,59,5,42,127,830133528
1078,22,Ticks_Phase_8,60,1,48,57,830897564
1078,22,Ticks_Phase_8,61,5,42,127,830934656
1078,22,Ticks_Phase_8,62,1,48,53,831691888
1078,22,Ticks_Phase_8,63,5,42,127,831734220
1078,22,Ticks_Phase_8,64,1,48,45,832524548
1078,22,Ticks_Phase_8,65,5,42,127,832533784
1078,22,Ticks_Phase_8,66,1,48,48,833329420
1078,22,Ticks_Phase_8,67,5,42,127,833333644
1078,22,Ticks_Phase_8,68,5,42,127,834134584
1078,22,Ticks_Phase_8,69,1,48,45,834175152
1078,22,Ticks_Phase_8,70,1,48,46,834916664
1078,22,Ticks_Phase_8,71,5,42,127,834934512
1078,22,Ticks_Phase_8,72,1,48,53,835707684
1078,22,Ticks_Phase_8,73,5,42,127,835733776
1078,22,Ticks_Phase_8,74,1,48,57,836526040
1078,22,Ticks_Phase_8,75,5,42,127,836533712
1078,22,Ticks_Phase_8,76,5,42,127,837334552
1078,22,Ticks_Phase_8,77,1,48,55,837347408
1078,22,Ticks_Phase_8,78,1,48,51,838126488
1078,22,Ticks_Phase_8,79,5,42,127,838134456
1078,22,Ticks_Phase_8,80,1,48,49,838912580
1078,22,Ticks_Phase_8,81,5,42,127,838933796
1078,22,Ticks_Phase_8,82,1,48,57,839697684
1078,22,Ticks_Phase_8,83,5,42,127,839733660
1078,22,Ticks_Phase_8,84,1,48,53,840533920
1078,22,Ticks_Phase_8,85,5,42,127,840535488
1078,22,Ticks_Phase_8,86,1,48,57,841318844
1078,22,Ticks_Phase_8,87,5,42,127,841334376
1078,22,Ticks_Phase_8,88,5,42,127,842133872
1078,22,Ticks_Phase_8,89,1,48,45,842152052
1078,22,Ticks_Phase_8,90,5,42,127,842933584
1078,22,Ticks_Phase_8,91,1,48,55,842938428
1078,22,Ticks_Phase_8,92,5,42,127,843753816
1078,22,Ticks_Phase_8,93,1,48,57,843766444
1078,22,Ticks_Phase_8,94,1,48,55,844550040
1078,22,Ticks_Phase_8,95,5,42,127,844553524
1078,22,Ticks_Phase_8,96,5,42,127,845354288
1078,22,Ticks_Phase_8,97,1,48,54,845359276
1078,22,Ticks_Phase_8,98,1,48,46,846140400
1078,22,Ticks_Phase_8,99,5,42,127,846154388
1078,22,Ticks_Phase_8,100,1,48,58,846951220
1078,22,Ticks_Phase_8,101,5,42,127,846953804
1078,22,Ticks_Phase_8,102,1,48,56,847743156
1078,22,Ticks_Phase_8,103,5,42,127,847753588
1078,22,Ticks_Phase_8,104,5,42,127,848554356
1078,22,Ticks_Phase_8,105,1,48,49,848570876
1078,22,Ticks_Phase_8,106,5,42,127,849354288
1078,22,Ticks_Phase_8,107,1,48,45,849363256
1078,22,Ticks_Phase_8,108,5,42,127,850153776
1078,22,Ticks_Phase_8,109,1,48,46,850165508
1078,22,Ticks_Phase_8,110,5,42,127,850953712
1078,22,Ticks_Phase_8,111,1,48,44,850974808
1078,22,Ticks_Phase_8,112,5,42,127,851754392
1078,22,Ticks_Phase_8,113,1,48,40,851790780
1078,22,Ticks_Phase_8,114,5,42,127,852554056
1078,22,Ticks_Phase_8,115,1,48,45,852587656
1078,22,Ticks_Phase_8,116,5,42,127,853353692
1078,22,Ticks_Phase_8,117,1,48,51,853359880
1078,22,Ticks_Phase_8,118,1,48,48,854150816
1078,22,Ticks_Phase_8,119,5,42,127,854153476
1078,22,Ticks_Phase_8,120,1,48,44,854948060
1078,22,Ticks_Phase_8,121,5,42,127,854954380
1078,22,Ticks_Phase_8,122,1,48,54,855736544
1078,22,Ticks_Phase_8,123,5,42,127,855754168
1078,22,Ticks_Phase_8,124,1,48,53,856593128
1078,22,Ticks_Phase_8,125,5,42,127,856594696
1078,22,Ticks_Phase_8,126,1,48,51,857367488
1078,22,Ticks_Phase_8,127,5,42,127,857393508
1078,22,Ticks_Phase_8,128,5,42,127,858194148
1078,22,Ticks_Phase_8,129,1,48,49,858238900
1078,22,Ticks_Phase_8,130,5,42,127,858994308
1078,22,Ticks_Phase_8,131,1,48,45,859016232
1078,22,Ticks_Phase_8,132,5,42,127,859793724
1078,22,Ticks_Phase_8,133,1,48,48,859806648
1078,22,Ticks_Phase_8,134,5,42,127,860593512
1078,22,Ticks_Phase_8,135,1,48,48,860596704
1078,22,Ticks_Phase_8,136,5,42,127,861394192
1078,22,Ticks_Phase_8,137,1,48,54,861405256
1078,22,Ticks_Phase_8,138,5,42,127,862194052
1078,22,Ticks_Phase_8,139,1,48,40,862236336
1078,22,Ticks_Phase_8,140,1,48,49,862985492
1078,22,Ticks_Phase_8,141,5,42,127,862993756
1078,22,Ticks_Phase_8,142,1,48,48,863763260
1078,22,Ticks_Phase_8,143,5,42,127,863793544
1078,22,Ticks_Phase_8,144,1,48,46,864554732
1078,22,Ticks_Phase_8,145,5,42,127,864594328
1078,22,Ticks_Phase_8,146,1,48,51,865340132
1078,22,Ticks_Phase_8,147,5,42,127,865394036
1078,22,Ticks_Phase_8,148,1,48,47,866160992
1078,22,Ticks_Phase_8,149,5,42,127,866193972
1078,22,Ticks_Phase_8,150,1,48,44,866992028
1078,22,Ticks_Phase_8,151,5,42,127,866993388
1078,22,Ticks_Phase_8,152,5,42,127,867794300
1078,22,Ticks_Phase_8,153,1,48,44,867823260
1078,22,Ticks_Phase_8,154,1,48,49,868587308
1078,22,Ticks_Phase_8,155,5,42,127,868594156
1078,22,Ticks_Phase_8,156,1,48,38,869379904
1078,22,Ticks_Phase_8,157,5,42,127,869393868
1078,22,Ticks_Phase_8,158,5,42,127,870153600
1078,22,Ticks_Phase_8,159,1,48,60,870193788
1078,22,Ticks_Phase_8,160,5,42,127,870954280
1078,22,Ticks_Phase_8,161,1,48,50,870957700
1078,22,Ticks_Phase_8,162,1,48,43,871734936
1078,22,Ticks_Phase_8,163,5,42,127,871754236
1078,22,Ticks_Phase_8,164,1,48,51,872522544
1078,22,Ticks_Phase_8,165,5,42,127,872554168
1078,22,Ticks_Phase_8,166,1,48,46,873314016
1078,22,Ticks_Phase_8,167,5,42,127,873353656
1078,22,Ticks_Phase_8,168,1,48,51,874123540
1078,22,Ticks_Phase_8,169,5,42,127,874154340
1078,22,Ticks_Phase_8,170,1,48,50,874952088
1078,22,Ticks_Phase_8,171,5,42,127,874954052
1078,22,Ticks_Phase_8,172,5,42,127,875753996
1078,22,Ticks_Phase_8,173,1,48,48,875771940
1078,22,Ticks_Phase_8,174,5,42,127,876553708
1078,22,Ticks_Phase_8,175,1,48,39,876570152
1078,22,Ticks_Phase_8,176,1,48,46,877344396
1078,22,Ticks_Phase_8,177,5,42,127,877354236
1078,22,Ticks_Phase_8,178,1,48,40,878125832
1078,22,Ticks_Phase_8,179,5,42,127,878154120
1078,22,Ticks_Phase_8,180,1,48,48,878943920
1078,22,Ticks_Phase_8,181,5,42,127,878954056
1078,22,Ticks_Phase_8,182,5,42,127,879753476
1078,22,Ticks_Phase_8,183,1,48,47,879759812
1078,22,Ticks_Phase_8,184,1,48,49,880507096
1078,22,Ticks_Phase_8,185,5,42,127,880554376
1078,22,Ticks_Phase_8,186,1,48,43,881311440
1078,22,Ticks_Phase_8,187,5,42,127,881354088
1078,22,Ticks_Phase_8,188,1,48,48,882130108
1078,22,Ticks_Phase_8,189,5,42,127,882154100
1078,22,Ticks_Phase_8,190,5,42,127,882873840
1078,22,Ticks_Phase_8,191,1,48,51,882910732
1078,22,Ticks_Phase_8,192,1,48,42,883638988
1078,22,Ticks_Phase_8,193,5,42,127,883673396
1078,22,Ticks_Phase_8,194,1,48,44,884474680
1078,22,Ticks_Phase_8,195,5,42,127,884475872
1078,22,Ticks_Phase_8,196,1,48,41,885241700
1078,22,Ticks_Phase_8,197,5,42,127,885273940
1078,22,Ticks_Phase_8,198,1,48,46,886046436
1078,22,Ticks_Phase_8,199,5,42,127,886073804
1078,22,Ticks_Phase_8,200,1,48,46,886835740
1078,22,Ticks_Phase_8,201,5,42,127,886873540
1078,22,Ticks_Phase_8,202,1,48,46,887636748
1078,22,Ticks_Phase_8,203,5,42,127,887674296
1078,22,Ticks_Phase_8,204,5,42,127,888473940
1078,22,Ticks_Phase_8,205,1,48,43,888505068
1078,22,Ticks_Phase_8,206,1,48,43,889272520
1078,22,Ticks_Phase_8,207,5,42,127,889274016
1078,22,Ticks_Phase_8,208,1,48,50,890064944
1078,22,Ticks_Phase_8,209,5,42,127,890073356
1078,22,Ticks_Phase_8,210,1,48,53,890873744
1078,22,Ticks_Phase_8,211,5,42,127,890875236
1078,22,Ticks_Phase_8,212,5,42,127,891673908
1078,22,Ticks_Phase_8,213,1,48,40,891692832
1078,22,Ticks_Phase_8,214,5,42,127,892473988
1078,22,Ticks_Phase_8,215,1,48,44,892484628
1078,22,Ticks_Phase_8,216,1,48,41,893247304
1078,22,Ticks_Phase_8,217,5,42,127,893273348
1078,22,Ticks_Phase_8,218,1,48,45,894060968
1078,22,Ticks_Phase_8,219,5,42,127,894074332
1078,22,Ticks_Phase_8,220,1,48,27,894856344
1078,22,Ticks_Phase_8,221,5,42,127,894873892
1078,22,Ticks_Phase_8,222,1,48,41,895651928
1078,22,Ticks_Phase_8,223,5,42,127,895673828
1078,22,Ticks_Phase_8,224,1,48,41,896477180
1078,22,Ticks_Phase_8,225,5,42,127,896554348
1078,22,Ticks_Phase_8,226,1,48,40,897322952
1078,22,Ticks_Phase_8,227,5,42,127,897354156
1078,22,Ticks_Phase_8,228,5,42,127,898153804
1078,22,Ticks_Phase_8,229,1,48,45,898186356
1078,22,Ticks_Phase_8,230,5,42,127,898953736
1078,22,Ticks_Phase_8,231,1,48,43,898967412
1078,22,Ticks_Phase_8,232,1,48,45,899747272
1078,22,Ticks_Phase_8,233,5,42,127,899754412
1078,22,Ticks_Phase_8,234,5,42,127,900553984
1078,22,Ticks_Phase_8,235,1,48,40,900581972
1078,22,Ticks_Phase_8,236,1,48,44,901351796
1078,22,Ticks_Phase_8,237,5,42,127,901353764
1078,22,Ticks_Phase_8,238,5,42,127,902153704
1078,22,Ticks_Phase_8,239,1,48,38,902184460
1078,22,Ticks_Phase_8,240,5,42,127,902954236
1078,22,Ticks_Phase_8,241,1,48,40,902972116
1078,22,Ticks_Phase_8,242,5,42,127,903754048
1078,22,Ticks_Phase_8,243,1,48,39,903765184
1078,22,Ticks_Phase_8,244,1,48,46,904545712
1078,22,Ticks_Phase_8,245,5,42,127,904553904
1078,22,Ticks_Phase_8,246,5,42,127,905353696
1078,22,Ticks_Phase_8,247,1,48,49,905368344
1078,22,Ticks_Phase_8,248,5,42,127,906154528
1078,22,Ticks_Phase_8,249,1,48,53,906160788
1078,22,Ticks_Phase_8,250,5,42,127,906954164
1078,22,Ticks_Phase_8,251,1,48,51,906992788
1078,22,Ticks_Phase_8,252,5,42,127,907753804
1078,22,Ticks_Phase_8,253,1,48,44,907780656
1078,22,Ticks_Phase_8,254,5,42,127,908553740
1078,22,Ticks_Phase_8,255,1,48,43,908559628
1078,22,Ticks_Phase_8,256,5,42,127,909354496
1078,22,Ticks_Phase_8,257,1,48,43,909409160
1078,22,Ticks_Phase_8,258,1,48,47,910142572
1078,22,Ticks_Phase_8,259,5,42,127,910313796
1078,22,Ticks_Phase_8,260,1,48,41,911080988
1078,22,Ticks_Phase_8,261,5,42,127,911113672
1078,22,Ticks_Phase_8,262,5,42,127,911914440
1078,22,Ticks_Phase_8,263,1,48,41,911917032
1078,22,Ticks_Phase_8,264,5,42,127,912713952
1078,22,Ticks_Phase_8,265,1,48,43,912736092
1078,22,Ticks_Phase_8,266,5,42,127,913513740
1078,22,Ticks_Phase_8,267,1,48,45,913545912
1078,22,Ticks_Phase_8,268,5,42,127,914313672
1078,22,Ticks_Phase_8,269,1,48,45,914330492
1078,22,Ticks_Phase_8,270,1,48,41,915104816
1078,22,Ticks_Phase_8,271,5,42,127,915114424
1078,22,Ticks_Phase_8,272,5,42,127,915914068
1078,22,Ticks_Phase_8,273,1,48,40,915920628
1078,22,Ticks_Phase_8,274,5,42,127,916713784
1078,22,Ticks_Phase_8,275,1,48,40,916721016
1078,22,Ticks_Phase_8,276,5,42,127,917513568
1078,22,Ticks_Phase_8,277,1,48,51,917523956
1078,22,Ticks_Phase_8,278,1,48,46,918283444
1078,22,Ticks_Phase_8,279,5,42,127,918314320
1078,22,Ticks_Phase_8,280,1,48,50,919097752
1078,22,Ticks_Phase_8,281,5,42,127,919114280
1078,22,Ticks_Phase_8,282,1,48,43,919877340
1078,22,Ticks_Phase_8,283,5,42,127,919913844
1078,22,Ticks_Phase_8,284,5,42,127,920713560
1078,22,Ticks_Phase_8,285,1,48,41,920747832
1078,22,Ticks_Phase_8,286,1,48,52,921493096
1078,22,Ticks_Phase_8,287,5,42,127,921514540
1078,22,Ticks_Phase_8,288,1,48,46,922293408
1078,22,Ticks_Phase_8,289,5,42,127,922314100
1078,22,Ticks_Phase_8,290,1,48,41,923063540
1078,22,Ticks_Phase_8,291,5,42,127,923113892
1078,22,Ticks_Phase_8,292,1,48,41,923888932
1078,22,Ticks_Phase_8,293,5,42,127,923913528
1078,22,Ticks_Phase_8,294,1,48,47,924706020
1078,22,Ticks_Phase_8,295,5,42,127,924714436
1078,22,Ticks_Phase_8,296,5,42,127,925354492
1078,22,Ticks_Phase_8,297,1,48,45,925501316
1078,22,Ticks_Phase_8,298,5,42,127,926154056
1078,22,Ticks_Phase_8,299,1,48,39,926205924
1078,22,Ticks_Phase_8,300,1,48,35,926951724
1078,22,Ticks_Phase_8,301,5,42,127,926953760
1078,22,Ticks_Phase_8,302,5,42,127,927753632
1078,22,Ticks_Phase_8,303,1,48,47,927757724
1078,22,Ticks_Phase_8,304,5,42,127,928554540
1078,22,Ticks_Phase_8,305,1,48,48,928556984
1078,22,Ticks_Phase_8,306,1,48,38,929337592
1078,22,Ticks_Phase_8,307,5,42,127,929354044
1078,22,Ticks_Phase_8,308,1,48,51,930142724
1078,22,Ticks_Phase_8,309,5,42,127,930153908
1078,22,Ticks_Phase_8,310,1,48,48,930932104
1078,22,Ticks_Phase_8,311,5,42,127,930953468
1078,22,Ticks_Phase_8,312,1,48,39,931731128
1078,22,Ticks_Phase_8,313,5,42,127,931754452
1078,22,Ticks_Phase_8,314,1,48,40,932553720
1078,22,Ticks_Phase_8,315,5,42,127,932555212
1078,22,Ticks_Phase_8,316,5,42,127,933353732
1078,22,Ticks_Phase_8,317,1,48,46,933378040
1078,22,Ticks_Phase_8,318,1,48,51,934127568
1078,22,Ticks_Phase_8,319,5,42,127,934153660
1078,22,Ticks_Phase_8,320,5,42,127,934954276
1078,22,Ticks_Phase_8,321,1,48,30,934986476
1078,22,Ticks_Phase_8,322,1,48,43,935710360
1078,22,Ticks_Phase_8,323,5,42,127,935754376
1078,22,Ticks_Phase_8,324,1,48,37,936476080
1078,22,Ticks_Phase_8,325,5,42,127,936553940
1078,22,Ticks_Phase_8,326,5,42,127,937353512
1078,22,Ticks_Phase_8,327,1,48,37,937381112
1078,22,Ticks_Phase_8,328,1,48,43,938086984
1078,22,Ticks_Phase_8,329,5,42,127,938154412
1078,22,Ticks_Phase_8,330,1,48,44,938929748
1078,22,Ticks_Phase_8,331,5,42,127,938954048
1078,22,Ticks_Phase_8,332,1,48,42,939740992
1078,22,Ticks_Phase_8,333,5,42,127,939753760
1078,22,Ticks_Phase_8,334,1,48,40,940519892
1078,22,Ticks_Phase_8,335,5,42,127,940553548
1078,22,Ticks_Phase_8,0,9999,9999,9999,805351544
1078,22,Ticks_Phase_8,1,9999,9999,9999,806151280
1078,22,Ticks_Phase_8,2,9999,9999,9999,806952056
1078,22,Ticks_Phase_8,3,9999,9999,9999,807751740
1078,22,Ticks_Phase_8,4,9999,9999,9999,808551548
1078,22,Ticks_Phase_8,5,9999,9999,9999,809351260
1078,22,Ticks_Phase_8,6,9999,9999,9999,810152020
1078,22,Ticks_Phase_8,7,9999,9999,9999,810951804
1078,22,Ticks_Phase_8,8,9999,9999,9999,811751512
1078,22,Ticks_Phase_8,9,9999,9999,9999,812551224
1078,22,Ticks_Phase_8,10,9999,9999,9999,813352056
1078,22,Ticks_Phase_8,11,9999,9999,9999,814151800
1078,22,Ticks_Phase_8,12,9999,9999,9999,814951508
1078,22,Ticks_Phase_8,13,9999,9999,9999,815751292
1078,22,Ticks_Phase_8,14,9999,9999,9999,816552052
1078,22,Ticks_Phase_8,15,9999,9999,9999,817351764
1078,22,Ticks_Phase_8,16,9999,9999,9999,818151484
1078,22,Ticks_Phase_8,17,9999,9999,9999,818951268
1078,22,Ticks_Phase_8,18,9999,9999,9999,819752024
1078,22,Ticks_Phase_8,19,9999,9999,9999,820551760
1078,22,Ticks_Phase_8,20,9999,9999,9999,821351548
1078,22,Ticks_Phase_8,21,9999,9999,9999,822151260
1078,22,Ticks_Phase_8,22,9999,9999,9999,822952012
1078,22,Ticks_Phase_8,23,9999,9999,9999,823751804
1078,22,Ticks_Phase_8,24,9999,9999,9999,824551508
1078,22,Ticks_Phase_8,25,9999,9999,9999,825351228
1078,22,Ticks_Phase_8,26,9999,9999,9999,826152060
1078,22,Ticks_Phase_8,27,9999,9999,9999,826951796
1078,22,Ticks_Phase_8,28,9999,9999,9999,827751508
1078,22,Ticks_Phase_8,29,9999,9999,9999,828551296
1078,22,Ticks_Phase_8,30,9999,9999,9999,829331536
1078,22,Ticks_Phase_8,31,9999,9999,9999,830131316
1078,22,Ticks_Phase_8,32,9999,9999,9999,830932072
1078,22,Ticks_Phase_8,33,9999,9999,9999,831731784
1078,22,Ticks_Phase_8,34,9999,9999,9999,832531572
1078,22,Ticks_Phase_8,35,9999,9999,9999,833331284
1078,22,Ticks_Phase_8,36,9999,9999,9999,834132072
1078,22,Ticks_Phase_8,37,9999,9999,9999,834931776
1078,22,Ticks_Phase_8,38,9999,9999,9999,835731564
1078,22,Ticks_Phase_8,39,9999,9999,9999,836531276
1078,22,Ticks_Phase_8,40,9999,9999,9999,837332040
1078,22,Ticks_Phase_8,41,9999,9999,9999,838131796
1078,22,Ticks_Phase_8,42,9999,9999,9999,838931512
1078,22,Ticks_Phase_8,43,9999,9999,9999,839731296
1078,22,Ticks_Phase_8,44,9999,9999,9999,840532088
1078,22,Ticks_Phase_8,45,9999,9999,9999,841331792
1078,22,Ticks_Phase_8,46,9999,9999,9999,842131512
1078,22,Ticks_Phase_8,47,9999,9999,9999,842931296
1078,22,Ticks_Phase_8,48,9999,9999,9999,843751528
1078,22,Ticks_Phase_8,49,9999,9999,9999,844551236
1078,22,Ticks_Phase_8,50,9999,9999,9999,845352000
1078,22,Ticks_Phase_8,51,9999,9999,9999,846151804
1078,22,Ticks_Phase_8,52,9999,9999,9999,846951516
1078,22,Ticks_Phase_8,53,9999,9999,9999,847751228
1078,22,Ticks_Phase_8,54,9999,9999,9999,848551992
1078,22,Ticks_Phase_8,55,9999,9999,9999,849351780
1078,22,Ticks_Phase_8,56,9999,9999,9999,850151492
1078,22,Ticks_Phase_8,57,9999,9999,9999,850951276
1078,22,Ticks_Phase_8,58,9999,9999,9999,851752032
1078,22,Ticks_Phase_8,59,9999,9999,9999,852551768
1078,22,Ticks_Phase_8,60,9999,9999,9999,853351480
1078,22,Ticks_Phase_8,61,9999,9999,9999,854151264
1078,22,Ticks_Phase_8,62,9999,9999,9999,854952020
1078,22,Ticks_Phase_8,63,9999,9999,9999,855751808
1078,22,Ticks_Phase_8,64,9999,9999,9999,856591440
1078,22,Ticks_Phase_8,65,9999,9999,9999,857391220
1078,22,Ticks_Phase_8,66,9999,9999,9999,858191936
1078,22,Ticks_Phase_8,67,9999,9999,9999,858991724
1078,22,Ticks_Phase_8,68,9999,9999,9999,859791436
1078,22,Ticks_Phase_8,69,9999,9999,9999,860591224
1078,22,Ticks_Phase_8,70,9999,9999,9999,861391980
1078,22,Ticks_Phase_8,71,9999,9999,9999,862191692
1078,22,Ticks_Phase_8,72,9999,9999,9999,862991472
1078,22,Ticks_Phase_8,73,9999,9999,9999,863791184
1078,22,Ticks_Phase_8,74,9999,9999,9999,864591964
1078,22,Ticks_Phase_8,75,9999,9999,9999,865391676
1078,22,Ticks_Phase_8,76,9999,9999,9999,866191464
1078,22,Ticks_Phase_8,77,9999,9999,9999,866991180
1078,22,Ticks_Phase_8,78,9999,9999,9999,867791940
1078,22,Ticks_Phase_8,79,9999,9999,9999,868591720
1078,22,Ticks_Phase_8,80,9999,9999,9999,869391432
1078,22,Ticks_Phase_8,81,9999,9999,9999,870151236
1078,22,Ticks_Phase_8,82,9999,9999,9999,870951996
1078,22,Ticks_Phase_8,83,9999,9999,9999,871751800
1078,22,Ticks_Phase_8,84,9999,9999,9999,872551512
1078,22,Ticks_Phase_8,85,9999,9999,9999,873351224
1078,22,Ticks_Phase_8,86,9999,9999,9999,874152056
1078,22,Ticks_Phase_8,87,9999,9999,9999,874951804
1078,22,Ticks_Phase_8,88,9999,9999,9999,875751484
1078,22,Ticks_Phase_8,89,9999,9999,9999,876551272
1078,22,Ticks_Phase_8,90,9999,9999,9999,877352024
1078,22,Ticks_Phase_8,91,9999,9999,9999,878151760
1078,22,Ticks_Phase_8,92,9999,9999,9999,878951544
1078,22,Ticks_Phase_8,93,9999,9999,9999,879751264
1078,22,Ticks_Phase_8,94,9999,9999,9999,880552016
1078,22,Ticks_Phase_8,95,9999,9999,9999,881351804
1078,22,Ticks_Phase_8,96,9999,9999,9999,882151516
1078,22,Ticks_Phase_8,97,9999,9999,9999,882871404
1078,22,Ticks_Phase_8,98,9999,9999,9999,883671112
1078,22,Ticks_Phase_8,99,9999,9999,9999,884471876
1078,22,Ticks_Phase_8,100,9999,9999,9999,885271656
1078,22,Ticks_Phase_8,101,9999,9999,9999,886071368
1078,22,Ticks_Phase_8,102,9999,9999,9999,886871104
1078,22,Ticks_Phase_8,103,9999,9999,9999,887671864
1078,22,Ticks_Phase_8,104,9999,9999,9999,888471652
1078,22,Ticks_Phase_8,105,9999,9999,9999,889271364
1078,22,Ticks_Phase_8,106,9999,9999,9999,890071144
1078,22,Ticks_Phase_8,107,9999,9999,9999,890871908
1078,22,Ticks_Phase_8,108,9999,9999,9999,891671620
1078,22,Ticks_Phase_8,109,9999,9999,9999,892471404
1078,22,Ticks_Phase_8,110,9999,9999,9999,893271136
1078,22,Ticks_Phase_8,111,9999,9999,9999,894071896
1078,22,Ticks_Phase_8,112,9999,9999,9999,894871608
1078,22,Ticks_Phase_8,113,9999,9999,9999,895671392
1078,22,Ticks_Phase_8,114,9999,9999,9999,896552060
1078,22,Ticks_Phase_8,115,9999,9999,9999,897351796
1078,22,Ticks_Phase_8,116,9999,9999,9999,898151516
1078,22,Ticks_Phase_8,117,9999,9999,9999,898951228
1078,22,Ticks_Phase_8,118,9999,9999,9999,899752052
1078,22,Ticks_Phase_8,119,9999,9999,9999,900551772
1078,22,Ticks_Phase_8,120,9999,9999,9999,901351512
1078,22,Ticks_Phase_8,121,9999,9999,9999,902151268
1078,22,Ticks_Phase_8,122,9999,9999,9999,902952024
1078,22,Ticks_Phase_8,123,9999,9999,9999,903751760
1078,22,Ticks_Phase_8,124,9999,9999,9999,904551544
1078,22,Ticks_Phase_8,125,9999,9999,9999,905351260
1078,22,Ticks_Phase_8,126,9999,9999,9999,906152020
1078,22,Ticks_Phase_8,127,9999,9999,9999,906951804
1078,22,Ticks_Phase_8,128,9999,9999,9999,907751516
1078,22,Ticks_Phase_8,129,9999,9999,9999,908551228
1078,22,Ticks_Phase_8,130,9999,9999,9999,909352060
1078,22,Ticks_Phase_8,131,9999,9999,9999,910311508
1078,22,Ticks_Phase_8,132,9999,9999,9999,911111240
1078,22,Ticks_Phase_8,133,9999,9999,9999,911912004
1078,22,Ticks_Phase_8,134,9999,9999,9999,912711740
1078,22,Ticks_Phase_8,135,9999,9999,9999,913511528
1078,22,Ticks_Phase_8,136,9999,9999,9999,914311240
1078,22,Ticks_Phase_8,137,9999,9999,9999,915111992
1078,22,Ticks_Phase_8,138,9999,9999,9999,915911780
1078,22,Ticks_Phase_8,139,9999,9999,9999,916711496
1078,22,Ticks_Phase_8,140,9999,9999,9999,917511284
1078,22,Ticks_Phase_8,141,9999,9999,9999,918312032
1078,22,Ticks_Phase_8,142,9999,9999,9999,919111768
1078,22,Ticks_Phase_8,143,9999,9999,9999,919911484
1078,22,Ticks_Phase_8,144,9999,9999,9999,920711276
1078,22,Ticks_Phase_8,145,9999,9999,9999,921512028
1078,22,Ticks_Phase_8,146,9999,9999,9999,922311740
1078,22,Ticks_Phase_8,147,9999,9999,9999,923111528
1078,22,Ticks_Phase_8,148,9999,9999,9999,923911240
1078,22,Ticks_Phase_8,149,9999,9999,9999,924712000
1078,22,Ticks_Phase_8,150,9999,9999,9999,925352056
1078,22,Ticks_Phase_8,151,9999,9999,9999,926151772
1078,22,Ticks_Phase_8,152,9999,9999,9999,926951512
1078,22,Ticks_Phase_8,153,9999,9999,9999,927751272
1078,22,Ticks_Phase_8,154,9999,9999,9999,928552028
1078,22,Ticks_Phase_8,155,9999,9999,9999,929351760
1078,22,Ticks_Phase_8,156,9999,9999,9999,930151548
1078,22,Ticks_Phase_8,157,9999,9999,9999,930951256
1078,22,Ticks_Phase_8,158,9999,9999,9999,931752016
1078,22,Ticks_Phase_8,159,9999,9999,9999,932551736
1078,22,Ticks_Phase_8,160,9999,9999,9999,933351520
1078,22,Ticks_Phase_8,161,9999,9999,9999,934151224
1078,22,Ticks_Phase_8,162,9999,9999,9999,934951988
1078,22,Ticks_Phase_8,163,9999,9999,9999,935751792
1078,22,Ticks_Phase_8,164,9999,9999,9999,936551508
1078,22,Ticks_Phase_8,165,9999,9999,9999,937351224
1078,22,Ticks_Phase_8,166,9999,9999,9999,938152052
1078,22,Ticks_Phase_8,167,9999,9999,9999,938951760
1078,22,Ticks_Phase_8,168,9999,9999,9999,939751548
1078,22,Ticks_Phase_8,169,9999,9999,9999,940551264
1079,21,Ticks_Linear_5,0,5,42,127,950762968
1079,21,Ticks_Linear_5,1,5,42,127,951243292
1079,21,Ticks_Linear_5,2,5,42,127,951723320
1079,21,Ticks_Linear_5,3,5,42,127,952202596
1079,21,Ticks_Linear_5,4,5,42,127,952683144
1079,21,Ticks_Linear_5,5,5,42,127,953173432
1079,21,Ticks_Linear_5,6,5,42,127,953662868
1079,21,Ticks_Linear_5,7,5,42,127,954153280
1079,21,Ticks_Linear_5,8,1,48,57,954625096
1079,21,Ticks_Linear_5,9,5,42,127,954642956
1079,21,Ticks_Linear_5,10,1,48,35,955101808
1079,21,Ticks_Linear_5,11,5,42,127,955133224
1079,21,Ticks_Linear_5,12,1,48,57,955621200
1079,21,Ticks_Linear_5,13,5,42,127,955633148
1079,21,Ticks_Linear_5,14,5,42,127,956133004
1079,21,Ticks_Linear_5,15,1,48,47,956139640
1079,21,Ticks_Linear_5,16,5,42,127,956632332
1079,21,Ticks_Linear_5,17,1,48,55,956645560
1079,21,Ticks_Linear_5,18,5,42,127,957133224
1079,21,Ticks_Linear_5,19,1,48,55,957137764
1079,21,Ticks_Linear_5,20,5,42,127,957633148
1079,21,Ticks_Linear_5,21,1,48,52,957635968
1079,21,Ticks_Linear_5,22,5,42,127,958143032
1079,21,Ticks_Linear_5,23,1,48,52,958151776
1079,21,Ticks_Linear_5,24,1,48,52,958645976
1079,21,Ticks_Linear_5,25,5,42,127,958652908
1079,21,Ticks_Linear_5,26,1,48,50,959163024
1079,21,Ticks_Linear_5,27,5,42,127,959164360
1079,21,Ticks_Linear_5,28,1,48,52,959666040
1079,21,Ticks_Linear_5,29,5,42,127,959672828
1079,21,Ticks_Linear_5,30,1,48,26,959757708
1079,21,Ticks_Linear_5,31,1,48,51,960158308
1079,21,Ticks_Linear_5,32,5,42,127,960182764
1079,21,Ticks_Linear_5,33,1,48,51,960676504
1079,21,Ticks_Linear_5,34,5,42,127,960703132
1079,21,Ticks_Linear_5,35,1,48,48,961196652
1079,21,Ticks_Linear_5,36,5,42,127,961223052
1079,21,Ticks_Linear_5,37,1,48,52,961725856
1079,21,Ticks_Linear_5,38,5,42,127,961743344
1079,21,Ticks_Linear_5,39,1,48,51,962251472
1079,21,Ticks_Linear_5,40,5,42,127,962263416
1079,21,Ticks_Linear_5,41,1,48,53,962744200
1079,21,Ticks_Linear_5,42,5,42,127,962782584
1079,21,Ticks_Linear_5,43,1,48,45,963294076
1079,21,Ticks_Linear_5,44,5,42,127,963312988
1079,21,Ticks_Linear_5,45,1,48,51,963817360
1079,21,Ticks_Linear_5,46,5,42,127,963842344
1079,21,Ticks_Linear_5,47,1,48,51,964336008
1079,21,Ticks_Linear_5,48,5,42,127,964372820
1079,21,Ticks_Linear_5,49,1,48,51,964862004
1079,21,Ticks_Linear_5,50,5,42,127,964903224
1079,21,Ticks_Linear_5,51,1,48,40,965422360
1079,21,Ticks_Linear_5,52,5,42,127,965432728
1079,21,Ticks_Linear_5,53,1,48,44,965942124
1079,21,Ticks_Linear_5,54,5,42,127,965973416
1079,21,Ticks_Linear_5,55,1,48,26,966001988
1079,21,Ticks_Linear_5,56,1,48,53,966509216
1079,21,Ticks_Linear_5,57,5,42,127,966513012
1079,21,Ticks_Linear_5,58,5,42,127,967052780
1079,21,Ticks_Linear_5,59,1,48,55,967065784
1079,21,Ticks_Linear_5,60,1,48,46,967578264
1079,21,Ticks_Linear_5,61,5,42,127,967593284
1079,21,Ticks_Linear_5,62,1,48,42,968116388
1079,21,Ticks_Linear_5,63,5,42,127,968133052
1079,21,Ticks_Linear_5,64,1,48,53,968677116
1079,21,Ticks_Linear_5,65,5,42,127,968682776
1079,21,Ticks_Linear_5,66,5,42,127,969232956
1079,21,Ticks_Linear_5,67,1,48,49,969256072
1079,21,Ticks_Linear_5,68,5,42,127,969782828
1079,21,Ticks_Linear_5,69,1,48,54,969791672
1079,21,Ticks_Linear_5,70,5,42,127,970332876
1079,21,Ticks_Linear_5,71,1,48,49,970349996
1079,21,Ticks_Linear_5,72,1,48,28,970411988
1079,21,Ticks_Linear_5,73,1,48,32,970876908
1079,21,Ticks_Linear_5,74,5,42,127,970882348
1079,21,Ticks_Linear_5,75,1,48,35,971435476
1079,21,Ticks_Linear_5,76,5,42,127,971442408
1079,21,Ticks_Linear_5,77,5,42,127,972002624
1079,21,Ticks_Linear_5,78,1,48,37,972020040
1079,21,Ticks_Linear_5,79,1,48,40,972562904
1079,21,Ticks_Linear_5,80,5,42,127,972564316
1079,21,Ticks_Linear_5,81,5,42,127,973122912
1079,21,Ticks_Linear_5,82,1,48,44,973139360
1079,21,Ticks_Linear_5,83,5,42,127,973683048
1079,21,Ticks_Linear_5,84,1,48,43,973699196
1079,21,Ticks_Linear_5,85,1,48,24,973754216
1079,21,Ticks_Linear_5,86,1,48,32,974242216
1079,21,Ticks_Linear_5,87,5,42,127,974253484
1079,21,Ticks_Linear_5,88,1,48,35,974831580
1079,21,Ticks_Linear_5,89,5,42,127,974833088
1079,21,Ticks_Linear_5,90,5,42,127,975403412
1079,21,Ticks_Linear_5,91,1,48,40,975410288
1079,21,Ticks_Linear_5,92,5,42,127,975972932
1079,21,Ticks_Linear_5,93,1,48,46,975982948
1079,21,Ticks_Linear_5,94,1,48,41,976537064
1079,21,Ticks_Linear_5,95,5,42,127,976543096
1079,21,Ticks_Linear_5,96,5,42,127,977122780
1079,21,Ticks_Linear_5,97,1,48,42,977123820
1079,21,Ticks_Linear_5,98,5,42,127,977703208
1079,21,Ticks_Linear_5,99,1,48,47,977726020
1079,21,Ticks_Linear_5,100,5,42,127,978282964
1079,21,Ticks_Linear_5,101,1,48,40,978283928
1079,21,Ticks_Linear_5,102,1,48,37,978859888
1079,21,Ticks_Linear_5,103,5,42,127,978862632
1079,21,Ticks_Linear_5,104,1,48,44,979423552
1079,21,Ticks_Linear_5,105,5,42,127,979443060
1079,21,Ticks_Linear_5,106,1,48,54,980004576
1079,21,Ticks_Linear_5,107,5,42,127,980032952
1079,21,Ticks_Linear_5,108,1,48,49,980617756
1079,21,Ticks_Linear_5,109,5,42,127,980622592
1079,21,Ticks_Linear_5,110,1,48,51,981196912
1079,21,Ticks_Linear_5,111,5,42,127,981212680
1079,21,Ticks_Linear_5,112,1,48,36,981795832
1079,21,Ticks_Linear_5,113,5,42,127,981803368
1079,21,Ticks_Linear_5,114,1,48,49,982381764
1079,21,Ticks_Linear_5,115,5,42,127,982393256
1079,21,Ticks_Linear_5,116,1,48,43,982972824
1079,21,Ticks_Linear_5,117,5,42,127,982993156
1079,21,Ticks_Linear_5,118,1,48,39,983587248
1079,21,Ticks_Linear_5,119,5,42,127,983593204
1079,21,Ticks_Linear_5,120,1,48,39,984156168
1079,21,Ticks_Linear_5,121,5,42,127,984193872
1079,21,Ticks_Linear_5,122,1,48,33,984766700
1079,21,Ticks_Linear_5,123,5,42,127,984792652
1079,21,Ticks_Linear_5,124,5,42,127,985392632
1079,21,Ticks_Linear_5,125,1,48,46,985397920
1079,21,Ticks_Linear_5,126,1,48,41,985959400
1079,21,Ticks_Linear_5,127,5,42,127,986002736
1079,21,Ticks_Linear_5,128,1,48,37,986592564
1079,21,Ticks_Linear_5,129,5,42,127,986613116
1079,21,Ticks_Linear_5,130,1,48,40,987176576
1079,21,Ticks_Linear_5,131,5,42,127,987223448
1079,21,Ticks_Linear_5,132,1,48,48,987813128
1079,21,Ticks_Linear_5,133,5,42,127,987832784
1079,21,Ticks_Linear_5,134,1,48,52,988433916
1079,21,Ticks_Linear_5,135,5,42,127,988443092
1079,21,Ticks_Linear_5,136,1,48,49,989008672
1079,21,Ticks_Linear_5,137,5,42,127,989062788
1079,21,Ticks_Linear_5,138,1,48,39,989640396
1079,21,Ticks_Linear_5,139,5,42,127,989682980
1079,21,Ticks_Linear_5,140,5,42,127,990302832
1079,21,Ticks_Linear_5,141,1,48,41,990334184
1079,21,Ticks_Linear_5,142,5,42,127,990923172
1079,21,Ticks_Linear_5,143,1,48,40,990956020
1079,21,Ticks_Linear_5,144,1,48,43,991539272
1079,21,Ticks_Linear_5,145,5,42,127,991542612
1079,21,Ticks_Linear_5,146,5,42,127,992173396
1079,21,Ticks_Linear_5,147,1,48,34,992186476
1079,21,Ticks_Linear_5,148,1,48,31,992801932
1079,21,Ticks_Linear_5,149,5,42,127,992813572
1079,21,Ticks_Linear_5,150,1,48,41,993429780
1079,21,Ticks_Linear_5,151,5,42,127,993453636
1079,21,Ticks_Linear_5,152,5,42,127,994093608
1079,21,Ticks_Linear_5,153,1,48,43,994097996
1079,21,Ticks_Linear_5,154,5,42,127,994733520
1079,21,Ticks_Linear_5,155,1,48,43,994739928
1079,21,Ticks_Linear_5,156,1,48,46,995369612
1079,21,Ticks_Linear_5,157,5,42,127,995373400
1079,21,Ticks_Linear_5,158,5,42,127,996013548
1079,21,Ticks_Linear_5,159,1,48,47,996015188
1079,21,Ticks_Linear_5,160,5,42,127,996653660
1079,21,Ticks_Linear_5,161,1,48,50,996683848
1079,21,Ticks_Linear_5,162,5,42,127,997293500
1079,21,Ticks_Linear_5,163,1,48,42,997294540
1079,21,Ticks_Linear_5,164,1,48,47,997926892
1079,21,Ticks_Linear_5,165,5,42,127,997933532
1079,21,Ticks_Linear_5,166,1,48,46,998580292
1079,21,Ticks_Linear_5,167,5,42,127,998592916
1079,21,Ticks_Linear_5,168,1,48,46,999215088
1079,21,Ticks_Linear_5,169,5,42,127,999243016
1079,21,Ticks_Linear_5,170,1,48,44,999870200
1079,21,Ticks_Linear_5,171,5,42,127,999893460
1079,21,Ticks_Linear_5,172,1,48,45,1000537752
1079,21,Ticks_Linear_5,173,5,42,127,1000542588
1079,21,Ticks_Linear_5,174,5,42,127,1001192744
1079,21,Ticks_Linear_5,175,1,48,49,1001218400
1079,21,Ticks_Linear_5,176,1,48,40,1001813736
1079,21,Ticks_Linear_5,177,5,42,127,1001853464
1079,21,Ticks_Linear_5,178,1,48,34,1002499748
1079,21,Ticks_Linear_5,179,5,42,127,1002512680
1079,21,Ticks_Linear_5,180,5,42,127,1003173416
1079,21,Ticks_Linear_5,181,1,48,52,1003188740
1079,21,Ticks_Linear_5,182,1,48,43,1003794984
1079,21,Ticks_Linear_5,183,5,42,127,1003832844
1079,21,Ticks_Linear_5,184,1,48,28,1004416844
1079,21,Ticks_Linear_5,185,5,42,127,1004493276
1079,21,Ticks_Linear_5,186,1,48,49,1005093880
1079,21,Ticks_Linear_5,187,5,42,127,1005162992
1079,21,Ticks_Linear_5,188,5,42,127,1005832620
1079,21,Ticks_Linear_5,189,1,48,41,1005868164
1079,21,Ticks_Linear_5,190,5,42,127,1006503312
1079,21,Ticks_Linear_5,191,1,48,47,1006545000
1079,21,Ticks_Linear_5,192,5,42,127,1007172956
1079,21,Ticks_Linear_5,193,1,48,43,1007195692
1079,21,Ticks_Linear_5,194,5,42,127,1007842648
1079,21,Ticks_Linear_5,195,1,48,40,1007853556
1079,21,Ticks_Linear_5,196,1,48,38,1008501844
1079,21,Ticks_Linear_5,197,5,42,127,1008522548
1079,21,Ticks_Linear_5,198,1,48,41,1009182464
1079,21,Ticks_Linear_5,199,5,42,127,1009202648
1079,21,Ticks_Linear_5,200,1,48,51,1009833312
1079,21,Ticks_Linear_5,201,5,42,127,1009882552
1079,21,Ticks_Linear_5,202,1,48,46,1010514340
1079,21,Ticks_Linear_5,203,5,42,127,1010562308
1079,21,Ticks_Linear_5,204,5,42,127,1011243464
1079,21,Ticks_Linear_5,205,1,48,51,1011245980
1079,21,Ticks_Linear_5,206,1,48,41,1011913740
1079,21,Ticks_Linear_5,207,5,42,127,1011932424
1079,21,Ticks_Linear_5,208,1,48,43,1012563608
1079,21,Ticks_Linear_5,209,5,42,127,1012622660
1079,21,Ticks_Linear_5,210,1,48,51,1013284820
1079,21,Ticks_Linear_5,211,5,42,127,1013312748
1079,21,Ticks_Linear_5,212,1,48,35,1013978204
1079,21,Ticks_Linear_5,213,5,42,127,1014003260
1079,21,Ticks_Linear_5,214,1,48,53,1014613852
1079,21,Ticks_Linear_5,215,5,42,127,1014693424
1079,21,Ticks_Linear_5,216,1,48,53,1015357408
1079,21,Ticks_Linear_5,217,5,42,127,1015392500
1079,21,Ticks_Linear_5,218,5,42,127,1016093128
1079,21,Ticks_Linear_5,219,1,48,54,1016108452
1079,21,Ticks_Linear_5,220,5,42,127,1016792352
1079,21,Ticks_Linear_5,221,1,48,47,1016808800
1079,21,Ticks_Linear_5,222,1,48,43,1017452216
1079,21,Ticks_Linear_5,223,5,42,127,1017492916
1079,21,Ticks_Linear_5,224,1,48,46,1018189104
1079,21,Ticks_Linear_5,225,5,42,127,1018193416
1079,21,Ticks_Linear_5,226,1,48,48,1018897288
1079,21,Ticks_Linear_5,227,5,42,127,1018902948
1079,21,Ticks_Linear_5,228,1,48,46,1019574428
1079,21,Ticks_Linear_5,229,5,42,127,1019612512
1079,21,Ticks_Linear_5,230,5,42,127,1020323344
1079,21,Ticks_Linear_5,231,1,48,39,1020324984
1079,21,Ticks_Linear_5,232,5,42,127,1021032756
1079,21,Ticks_Linear_5,233,1,48,42,1021046060
1079,21,Ticks_Linear_5,234,1,48,42,1021724564
1079,21,Ticks_Linear_5,235,5,42,127,1021742436
1079,21,Ticks_Linear_5,236,1,48,41,1022415776
1079,21,Ticks_Linear_5,237,5,42,127,1022463224
1079,21,Ticks_Linear_5,238,1,48,38,1023156188
1079,21,Ticks_Linear_5,239,5,42,127,1023183344
1079,21,Ticks_Linear_5,240,5,42,127,1023903244
1079,21,Ticks_Linear_5,241,1,48,45,1023908456
1079,21,Ticks_Linear_5,242,5,42,127,1024623284
1079,21,Ticks_Linear_5,243,1,48,43,1024654868
1079,21,Ticks_Linear_5,244,1,48,42,1025339208
1079,21,Ticks_Linear_5,245,5,42,127,1025342924
1079,21,Ticks_Linear_5,246,1,48,43,1026062832
1079,21,Ticks_Linear_5,247,5,42,127,1026073200
1079,21,Ticks_Linear_5,248,1,48,41,1026802684
1079,21,Ticks_Linear_5,249,5,42,127,1026804176
1079,21,Ticks_Linear_5,250,1,48,43,1027525080
1079,21,Ticks_Linear_5,251,5,42,127,1027533136
1079,21,Ticks_Linear_5,252,1,48,40,1028241908
1079,21,Ticks_Linear_5,253,5,42,127,1028263360
1079,21,Ticks_Linear_5,254,1,48,42,1028989128
1079,21,Ticks_Linear_5,255,5,42,127,1028993440
1079,21,Ticks_Linear_5,256,5,42,127,1029732664
1079,21,Ticks_Linear_5,257,1,48,40,1029756372
1079,21,Ticks_Linear_5,258,1,48,43,1030441404
1079,21,Ticks_Linear_5,259,5,42,127,1030473140
1079,21,Ticks_Linear_5,260,5,42,127,1031213460
1079,21,Ticks_Linear_5,261,1,48,46,1031219572
1079,21,Ticks_Linear_5,262,1,48,44,1031953452
1079,21,Ticks_Linear_5,263,5,42,127,1031963224
1079,21,Ticks_Linear_5,264,1,48,44,1032674916
1079,21,Ticks_Linear_5,265,5,42,127,1032703340
1079,21,Ticks_Linear_5,266,1,48,41,1033427532
1079,21,Ticks_Linear_5,267,5,42,127,1033453336
1079,21,Ticks_Linear_5,268,1,48,38,1034185996
1079,21,Ticks_Linear_5,269,5,42,127,1034202364
1079,21,Ticks_Linear_5,270,5,42,127,1034953188
1079,21,Ticks_Linear_5,271,1,48,42,1034983868
1079,21,Ticks_Linear_5,272,5,42,127,1035702516
1079,21,Ticks_Linear_5,273,1,48,45,1035706608
1079,21,Ticks_Linear_5,274,5,42,127,1036453112
1079,21,Ticks_Linear_5,275,1,48,45,1036463044
1079,21,Ticks_Linear_5,276,1,48,34,1037146744
1079,21,Ticks_Linear_5,277,5,42,127,1037213136
1079,21,Ticks_Linear_5,278,1,48,22,1037258248
1079,21,Ticks_Linear_5,279,1,48,42,1037965092
1079,21,Ticks_Linear_5,280,5,42,127,1037973144
1079,21,Ticks_Linear_5,281,5,42,127,1038732592
1079,21,Ticks_Linear_5,282,1,48,49,1038751968
1079,21,Ticks_Linear_5,283,5,42,127,1039492472
1079,21,Ticks_Linear_5,284,1,48,46,1039500544
1079,21,Ticks_Linear_5,285,5,42,127,1040253328
1079,21,Ticks_Linear_5,286,1,48,46,1040264088
1079,21,Ticks_Linear_5,287,1,48,49,1040997136
1079,21,Ticks_Linear_5,288,5,42,127,1041023244
1079,21,Ticks_Linear_5,289,1,48,48,1041715212
1079,21,Ticks_Linear_5,290,5,42,127,1041793460
1079,21,Ticks_Linear_5,291,1,48,42,1042537048
1079,21,Ticks_Linear_5,292,5,42,127,1042562332
1079,21,Ticks_Linear_5,293,5,42,127,1043332332
1079,21,Ticks_Linear_5,294,1,48,42,1043392968
1079,21,Ticks_Linear_5,295,5,42,127,1044102624
1079,21,Ticks_Linear_5,296,1,48,47,1044126864
1079,21,Ticks_Linear_5,297,1,48,44,1044844260
1079,21,Ticks_Linear_5,298,5,42,127,1044882944
1079,21,Ticks_Linear_5,299,5,42,127,1045663056
1079,21,Ticks_Linear_5,300,1,48,43,1045676880
1079,21,Ticks_Linear_5,301,1,48,41,1046406712
1079,21,Ticks_Linear_5,302,5,42,127,1046443300
1079,21,Ticks_Linear_5,303,1,48,41,1047187492
1079,21,Ticks_Linear_5,304,5,42,127,1047222880
1079,21,Ticks_Linear_5,305,1,48,44,1047970884
1079,21,Ticks_Linear_5,306,5,42,127,1048002836
1079,21,Ticks_Linear_5,307,1,48,44,1048775856
1079,21,Ticks_Linear_5,308,5,42,127,1048792372
1079,21,Ticks_Linear_5,309,5,42,127,1049582964
1079,21,Ticks_Linear_5,310,1,48,47,1049583932
1079,21,Ticks_Linear_5,311,5,42,127,1050372428
1079,21,Ticks_Linear_5,312,1,48,47,1050386252
1079,21,Ticks_Linear_5,313,1,48,46,1051097292
1079,21,Ticks_Linear_5,314,5,42,127,1051162860
1079,21,Ticks_Linear_5,315,1,48,36,1051912140
1079,21,Ticks_Linear_5,316,5,42,127,1051952472
1079,21,Ticks_Linear_5,317,5,42,127,1052753200
1079,21,Ticks_Linear_5,318,1,48,43,1052758488
1079,21,Ticks_Linear_5,319,5,42,127,1053553000
1079,21,Ticks_Linear_5,320,1,48,49,1053560380
1079,21,Ticks_Linear_5,321,1,48,43,1054333948
1079,21,Ticks_Linear_5,322,5,42,127,1054352788
1079,21,Ticks_Linear_5,323,1,48,44,1055097204
1079,21,Ticks_Linear_5,324,5,42,127,1055152588
1079,21,Ticks_Linear_5,325,1,48,41,1055913552
1079,21,Ticks_Linear_5,326,5,42,127,1055953132
1079,21,Ticks_Linear_5,327,5,42,127,1056763272
1079,21,Ticks_Linear_5,328,1,48,32,1056848044
1079,21,Ticks_Linear_5,329,1,48,28,1057537484
1079,21,Ticks_Linear_5,330,5,42,127,1057573248
1079,21,Ticks_Linear_5,331,1,48,25,1058321336
1079,21,Ticks_Linear_5,332,5,42,127,1058383180
1079,21,Ticks_Linear_5,333,1,48,34,1059136660
1079,21,Ticks_Linear_5,334,5,42,127,1059193088
1079,21,Ticks_Linear_5,335,1,48,37,1059943572
1079,21,Ticks_Linear_5,336,5,42,127,1060003148
1079,21,Ticks_Linear_5,0,9999,9999,9999,950760520
1079,21,Ticks_Linear_5,1,9999,9999,9999,951240768
1079,21,Ticks_Linear_5,2,9999,9999,9999,951721020
1079,21,Ticks_Linear_5,3,9999,9999,9999,952200300
1079,21,Ticks_Linear_5,4,9999,9999,9999,952680548
1079,21,Ticks_Linear_5,5,9999,9999,9999,953171060
1079,21,Ticks_Linear_5,6,9999,9999,9999,953660496
1079,21,Ticks_Linear_5,7,9999,9999,9999,954150980
1079,21,Ticks_Linear_5,8,9999,9999,9999,954640512
1079,21,Ticks_Linear_5,9,9999,9999,9999,955131000
1079,21,Ticks_Linear_5,10,9999,9999,9999,955630700
1079,21,Ticks_Linear_5,11,9999,9999,9999,956130404
1079,21,Ticks_Linear_5,12,9999,9999,9999,956630108
1079,21,Ticks_Linear_5,13,9999,9999,9999,957130852
1079,21,Ticks_Linear_5,14,9999,9999,9999,957630552
1079,21,Ticks_Linear_5,15,9999,9999,9999,958140512
1079,21,Ticks_Linear_5,16,9999,9999,9999,958650464
1079,21,Ticks_Linear_5,17,9999,9999,9999,959160428
1079,21,Ticks_Linear_5,18,9999,9999,9999,959670380
1079,21,Ticks_Linear_5,19,9999,9999,9999,960180320
1079,21,Ticks_Linear_5,20,9999,9999,9999,960700536
1079,21,Ticks_Linear_5,21,9999,9999,9999,961220680
1079,21,Ticks_Linear_5,22,9999,9999,9999,961740900
1079,21,Ticks_Linear_5,23,9999,9999,9999,962261116
1079,21,Ticks_Linear_5,24,9999,9999,9999,962780288
1079,21,Ticks_Linear_5,25,9999,9999,9999,963310692
1079,21,Ticks_Linear_5,26,9999,9999,9999,963840124
1079,21,Ticks_Linear_5,27,9999,9999,9999,964370524
1079,21,Ticks_Linear_5,28,9999,9999,9999,964900928
1079,21,Ticks_Linear_5,29,9999,9999,9999,965430356
1079,21,Ticks_Linear_5,30,9999,9999,9999,965971044
1079,21,Ticks_Linear_5,31,9999,9999,9999,966510712
1079,21,Ticks_Linear_5,32,9999,9999,9999,967050332
1079,21,Ticks_Linear_5,33,9999,9999,9999,967590988
1079,21,Ticks_Linear_5,34,9999,9999,9999,968130680
1079,21,Ticks_Linear_5,35,9999,9999,9999,968680552
1079,21,Ticks_Linear_5,36,9999,9999,9999,969230432
1079,21,Ticks_Linear_5,37,9999,9999,9999,969780308
1079,21,Ticks_Linear_5,38,9999,9999,9999,970330204
1079,21,Ticks_Linear_5,39,9999,9999,9999,970880124
1079,21,Ticks_Linear_5,40,9999,9999,9999,971440184
1079,21,Ticks_Linear_5,41,9999,9999,9999,972000324
1079,21,Ticks_Linear_5,42,9999,9999,9999,972560456
1079,21,Ticks_Linear_5,43,9999,9999,9999,973120612
1079,21,Ticks_Linear_5,44,9999,9999,9999,973680748
1079,21,Ticks_Linear_5,45,9999,9999,9999,974251112
1079,21,Ticks_Linear_5,46,9999,9999,9999,974830648
1079,21,Ticks_Linear_5,47,9999,9999,9999,975401040
1079,21,Ticks_Linear_5,48,9999,9999,9999,975970408
1079,21,Ticks_Linear_5,49,9999,9999,9999,976540796
1079,21,Ticks_Linear_5,50,9999,9999,9999,977120332
1079,21,Ticks_Linear_5,51,9999,9999,9999,977700984
1079,21,Ticks_Linear_5,52,9999,9999,9999,978280516
1079,21,Ticks_Linear_5,53,9999,9999,9999,978860112
1079,21,Ticks_Linear_5,54,9999,9999,9999,979440764
1079,21,Ticks_Linear_5,55,9999,9999,9999,980030580
1079,21,Ticks_Linear_5,56,9999,9999,9999,980620368
1079,21,Ticks_Linear_5,57,9999,9999,9999,981210232
1079,21,Ticks_Linear_5,58,9999,9999,9999,981801068
1079,21,Ticks_Linear_5,59,9999,9999,9999,982390884
1079,21,Ticks_Linear_5,60,9999,9999,9999,982990932
1079,21,Ticks_Linear_5,61,9999,9999,9999,983590980
1079,21,Ticks_Linear_5,62,9999,9999,9999,984191056
1079,21,Ticks_Linear_5,63,9999,9999,9999,984790132
1079,21,Ticks_Linear_5,64,9999,9999,9999,985390184
1079,21,Ticks_Linear_5,65,9999,9999,9999,986000512
1079,21,Ticks_Linear_5,66,9999,9999,9999,986610744
1079,21,Ticks_Linear_5,67,9999,9999,9999,987221076
1079,21,Ticks_Linear_5,68,9999,9999,9999,987830340
1079,21,Ticks_Linear_5,69,9999,9999,9999,988440644
1079,21,Ticks_Linear_5,70,9999,9999,9999,989060192
1079,21,Ticks_Linear_5,71,9999,9999,9999,989680756
1079,21,Ticks_Linear_5,72,9999,9999,9999,990300236
1079,21,Ticks_Linear_5,73,9999,9999,9999,990920800
1079,21,Ticks_Linear_5,74,9999,9999,9999,991540312
1079,21,Ticks_Linear_5,75,9999,9999,9999,992171096
1079,21,Ticks_Linear_5,76,9999,9999,9999,992811128
1079,21,Ticks_Linear_5,77,9999,9999,9999,993451116
1079,21,Ticks_Linear_5,78,9999,9999,9999,994091084
1079,21,Ticks_Linear_5,79,9999,9999,9999,994731072
1079,21,Ticks_Linear_5,80,9999,9999,9999,995371104
1079,21,Ticks_Linear_5,81,9999,9999,9999,996011100
1079,21,Ticks_Linear_5,82,9999,9999,9999,996651064
1079,21,Ticks_Linear_5,83,9999,9999,9999,997291128
1079,21,Ticks_Linear_5,84,9999,9999,9999,997931084
1079,21,Ticks_Linear_5,85,9999,9999,9999,998590544
1079,21,Ticks_Linear_5,86,9999,9999,9999,999240792
1079,21,Ticks_Linear_5,87,9999,9999,9999,999891016
1079,21,Ticks_Linear_5,88,9999,9999,9999,1000540216
1079,21,Ticks_Linear_5,89,9999,9999,9999,1001190520
1079,21,Ticks_Linear_5,90,9999,9999,9999,1001850944
1079,21,Ticks_Linear_5,91,9999,9999,9999,1002510456
1079,21,Ticks_Linear_5,92,9999,9999,9999,1003170892
1079,21,Ticks_Linear_5,93,9999,9999,9999,1003830396
1079,21,Ticks_Linear_5,94,9999,9999,9999,1004490828
1079,21,Ticks_Linear_5,95,9999,9999,9999,1005160548
1079,21,Ticks_Linear_5,96,9999,9999,9999,1005830248
1079,21,Ticks_Linear_5,97,9999,9999,9999,1006500936
1079,21,Ticks_Linear_5,98,9999,9999,9999,1007170656
1079,21,Ticks_Linear_5,99,9999,9999,9999,1007840352
1079,21,Ticks_Linear_5,100,9999,9999,9999,1008520248
1079,21,Ticks_Linear_5,101,9999,9999,9999,1009200200
1079,21,Ticks_Linear_5,102,9999,9999,9999,1009880180
1079,21,Ticks_Linear_5,103,9999,9999,9999,1010560084
1079,21,Ticks_Linear_5,104,9999,9999,9999,1011241016
1079,21,Ticks_Linear_5,105,9999,9999,9999,1011930200
1079,21,Ticks_Linear_5,106,9999,9999,9999,1012620364
1079,21,Ticks_Linear_5,107,9999,9999,9999,1013310524
1079,21,Ticks_Linear_5,108,9999,9999,9999,1014000736
1079,21,Ticks_Linear_5,109,9999,9999,9999,1014690900
1079,21,Ticks_Linear_5,110,9999,9999,9999,1015390276
1079,21,Ticks_Linear_5,111,9999,9999,9999,1016090680
1079,21,Ticks_Linear_5,112,9999,9999,9999,1016790128
1079,21,Ticks_Linear_5,113,9999,9999,9999,1017490544
1079,21,Ticks_Linear_5,114,9999,9999,9999,1018190968
1079,21,Ticks_Linear_5,115,9999,9999,9999,1018900576
1079,21,Ticks_Linear_5,116,9999,9999,9999,1019610212
1079,21,Ticks_Linear_5,117,9999,9999,9999,1020320824
1079,21,Ticks_Linear_5,118,9999,9999,9999,1021030460
1079,21,Ticks_Linear_5,119,9999,9999,9999,1021740136
1079,21,Ticks_Linear_5,120,9999,9999,9999,1022461004
1079,21,Ticks_Linear_5,121,9999,9999,9999,1023180896
1079,21,Ticks_Linear_5,122,9999,9999,9999,1023900796
1079,21,Ticks_Linear_5,123,9999,9999,9999,1024620616
1079,21,Ticks_Linear_5,124,9999,9999,9999,1025340480
1079,21,Ticks_Linear_5,125,9999,9999,9999,1026070604
1079,21,Ticks_Linear_5,126,9999,9999,9999,1026800764
1079,21,Ticks_Linear_5,127,9999,9999,9999,1027530836
1079,21,Ticks_Linear_5,128,9999,9999,9999,1028260988
1079,21,Ticks_Linear_5,129,9999,9999,9999,1028991064
1079,21,Ticks_Linear_5,130,9999,9999,9999,1029730364
1079,21,Ticks_Linear_5,131,9999,9999,9999,1030470768
1079,21,Ticks_Linear_5,132,9999,9999,9999,1031211088
1079,21,Ticks_Linear_5,133,9999,9999,9999,1031960704
1079,21,Ticks_Linear_5,134,9999,9999,9999,1032701040
1079,21,Ticks_Linear_5,135,9999,9999,9999,1033450588
1079,21,Ticks_Linear_5,136,9999,9999,9999,1034200140
1079,21,Ticks_Linear_5,137,9999,9999,9999,1034950740
1079,21,Ticks_Linear_5,138,9999,9999,9999,1035700292
1079,21,Ticks_Linear_5,139,9999,9999,9999,1036450888
1079,21,Ticks_Linear_5,140,9999,9999,9999,1037210688
1079,21,Ticks_Linear_5,141,9999,9999,9999,1037970548
1079,21,Ticks_Linear_5,142,9999,9999,9999,1038730368
1079,21,Ticks_Linear_5,143,9999,9999,9999,1039490176
1079,21,Ticks_Linear_5,144,9999,9999,9999,1040250956
1079,21,Ticks_Linear_5,145,9999,9999,9999,1041021020
1079,21,Ticks_Linear_5,146,9999,9999,9999,1041791084
1079,21,Ticks_Linear_5,147,9999,9999,9999,1042560108
1079,21,Ticks_Linear_5,148,9999,9999,9999,1043330104
1079,21,Ticks_Linear_5,149,9999,9999,9999,1044100176
1079,21,Ticks_Linear_5,150,9999,9999,9999,1044880496
1079,21,Ticks_Linear_5,151,9999,9999,9999,1045660756
1079,21,Ticks_Linear_5,152,9999,9999,9999,1046441076
1079,21,Ticks_Linear_5,153,9999,9999,9999,1047220284
1079,21,Ticks_Linear_5,154,9999,9999,9999,1048000608
1079,21,Ticks_Linear_5,155,9999,9999,9999,1048790076
1079,21,Ticks_Linear_5,156,9999,9999,9999,1049580668
1079,21,Ticks_Linear_5,157,9999,9999,9999,1050370132
1079,21,Ticks_Linear_5,158,9999,9999,9999,1051160636
1079,21,Ticks_Linear_5,159,9999,9999,9999,1051950172
1079,21,Ticks_Linear_5,160,9999,9999,9999,1052750904
1079,21,Ticks_Linear_5,161,9999,9999,9999,1053550700
1079,21,Ticks_Linear_5,162,9999,9999,9999,1054350416
1079,21,Ticks_Linear_5,163,9999,9999,9999,1055150140
1079,21,Ticks_Linear_5,164,9999,9999,9999,1055950908
1079,21,Ticks_Linear_5,165,9999,9999,9999,1056760900
1079,21,Ticks_Linear_5,166,9999,9999,9999,1057570876
1079,21,Ticks_Linear_5,167,9999,9999,9999,1058380884
1079,21,Ticks_Linear_5,168,9999,9999,9999,1059190868
1079,21,Ticks_Linear_5,169,9999,9999,9999,1060000848
10710,20,Ticks_Linear_8,0,5,42,127,1069271356
10710,20,Ticks_Linear_8,1,5,42,127,1070090724
10710,20,Ticks_Linear_8,2,5,42,127,1070910716
10710,20,Ticks_Linear_8,3,5,42,127,1071731204
10710,20,Ticks_Linear_8,4,5,42,127,1072551692
10710,20,Ticks_Linear_8,5,5,42,127,1073361620
10710,20,Ticks_Linear_8,6,5,42,127,1074171404
10710,20,Ticks_Linear_8,7,5,42,127,1074981408
10710,20,Ticks_Linear_8,8,1,48,46,1075789472
10710,20,Ticks_Linear_8,9,5,42,127,1075791136
10710,20,Ticks_Linear_8,10,1,48,46,1076568880
10710,20,Ticks_Linear_8,11,5,42,127,1076601420
10710,20,Ticks_Linear_8,12,1,48,44,1077359168
10710,20,Ticks_Linear_8,13,5,42,127,1077400844
10710,20,Ticks_Linear_8,14,1,48,50,1078177380
10710,20,Ticks_Linear_8,15,5,42,127,1078200644
10710,20,Ticks_Linear_8,16,1,48,46,1078991412
10710,20,Ticks_Linear_8,17,5,42,127,1079000516
10710,20,Ticks_Linear_8,18,1,48,45,1079754660
10710,20,Ticks_Linear_8,19,5,42,127,1079801212
10710,20,Ticks_Linear_8,20,1,48,17,1079857104
10710,20,Ticks_Linear_8,21,1,48,45,1080594056
10710,20,Ticks_Linear_8,22,5,42,127,1080600916
10710,20,Ticks_Linear_8,23,5,42,127,1081390460
10710,20,Ticks_Linear_8,24,1,48,39,1081438544
10710,20,Ticks_Linear_8,25,5,42,127,1082181072
10710,20,Ticks_Linear_8,26,1,48,52,1082183588
10710,20,Ticks_Linear_8,27,1,48,35,1082919840
10710,20,Ticks_Linear_8,28,5,42,127,1082970528
10710,20,Ticks_Linear_8,29,1,48,42,1083754180
10710,20,Ticks_Linear_8,30,5,42,127,1083760892
10710,20,Ticks_Linear_8,31,5,42,127,1084550588
10710,20,Ticks_Linear_8,32,1,48,41,1084576688
10710,20,Ticks_Linear_8,33,5,42,127,1085330840
10710,20,Ticks_Linear_8,34,1,48,43,1085346160
10710,20,Ticks_Linear_8,35,1,48,40,1086072772
10710,20,Ticks_Linear_8,36,5,42,127,1086111236
10710,20,Ticks_Linear_8,37,5,42,127,1086891568
10710,20,Ticks_Linear_8,38,1,48,41,1086909972
10710,20,Ticks_Linear_8,39,5,42,127,1087670628
10710,20,Ticks_Linear_8,40,1,48,33,1087686024
10710,20,Ticks_Linear_8,41,1,48,42,1088445060
10710,20,Ticks_Linear_8,42,5,42,127,1088450872
10710,20,Ticks_Linear_8,43,5,42,127,1089220948
10710,20,Ticks_Linear_8,44,1,48,38,1089243984
10710,20,Ticks_Linear_8,45,5,42,127,1089991016
10710,20,Ticks_Linear_8,46,1,48,41,1090048212
10710,20,Ticks_Linear_8,47,5,42,127,1090761380
10710,20,Ticks_Linear_8,48,1,48,43,1090798120
10710,20,Ticks_Linear_8,49,5,42,127,1091531300
10710,20,Ticks_Linear_8,50,1,48,40,1091551720
10710,20,Ticks_Linear_8,51,5,42,127,1092301292
10710,20,Ticks_Linear_8,52,1,48,38,1092334668
10710,20,Ticks_Linear_8,53,5,42,127,1093060952
10710,20,Ticks_Linear_8,54,1,48,40,1093121440
10710,20,Ticks_Linear_8,55,5,42,127,1093820688
10710,20,Ticks_Linear_8,56,1,48,39,1093846492
10710,20,Ticks_Linear_8,57,5,42,127,1094580496
10710,20,Ticks_Linear_8,58,1,48,40,1094623080
10710,20,Ticks_Linear_8,59,1,48,39,1095337776
10710,20,Ticks_Linear_8,60,5,42,127,1095341492
10710,20,Ticks_Linear_8,61,1,48,32,1096086660
10710,20,Ticks_Linear_8,62,5,42,127,1096110516
10710,20,Ticks_Linear_8,63,5,42,127,1096861196
10710,20,Ticks_Linear_8,64,1,48,34,1096889032
10710,20,Ticks_Linear_8,65,5,42,127,1097610672
10710,20,Ticks_Linear_8,66,1,48,36,1097652656
10710,20,Ticks_Linear_8,67,5,42,127,1098361340
10710,20,Ticks_Linear_8,68,1,48,28,1098410596
10710,20,Ticks_Linear_8,69,5,42,127,1099110740
10710,20,Ticks_Linear_8,70,1,48,31,1099141944
10710,20,Ticks_Linear_8,71,5,42,127,1099861412
10710,20,Ticks_Linear_8,72,1,48,33,1099893964
10710,20,Ticks_Linear_8,73,5,42,127,1100600632
10710,20,Ticks_Linear_8,74,1,48,37,1100604648
10710,20,Ticks_Linear_8,75,1,48,34,1101333328
10710,20,Ticks_Linear_8,76,5,42,127,1101341232
10710,20,Ticks_Linear_8,77,1,48,33,1102042440
10710,20,Ticks_Linear_8,78,5,42,127,1102081348
10710,20,Ticks_Linear_8,79,1,48,23,1102766744
10710,20,Ticks_Linear_8,80,5,42,127,1102820712
10710,20,Ticks_Linear_8,81,1,48,29,1103531280
10710,20,Ticks_Linear_8,82,5,42,127,1103561196
10710,20,Ticks_Linear_8,83,1,48,36,1104280980
10710,20,Ticks_Linear_8,84,5,42,127,1104291424
10710,20,Ticks_Linear_8,85,1,48,40,1104987164
10710,20,Ticks_Linear_8,86,5,42,127,1105021208
10710,20,Ticks_Linear_8,87,1,48,31,1105745996
10710,20,Ticks_Linear_8,88,5,42,127,1105751508
10710,20,Ticks_Linear_8,89,5,42,127,1106480372
10710,20,Ticks_Linear_8,90,1,48,38,1106488836
10710,20,Ticks_Linear_8,91,1,48,33,1107139560
10710,20,Ticks_Linear_8,92,5,42,127,1107210592
10710,20,Ticks_Linear_8,93,5,42,127,1107930344
10710,20,Ticks_Linear_8,94,1,48,32,1107959980
10710,20,Ticks_Linear_8,95,5,42,127,1108651432
10710,20,Ticks_Linear_8,96,1,48,35,1108682864
10710,20,Ticks_Linear_8,97,5,42,127,1109371476
10710,20,Ticks_Linear_8,98,1,48,29,1109393168
10710,20,Ticks_Linear_8,99,5,42,127,1110091220
10710,20,Ticks_Linear_8,100,1,48,43,1110118296
10710,20,Ticks_Linear_8,101,5,42,127,1110811164
10710,20,Ticks_Linear_8,102,1,48,55,1110854072
10710,20,Ticks_Linear_8,103,5,42,127,1111520500
10710,20,Ticks_Linear_8,104,1,48,34,1111543608
10710,20,Ticks_Linear_8,105,1,48,43,1112229512
10710,20,Ticks_Linear_8,106,5,42,127,1112231248
10710,20,Ticks_Linear_8,107,5,42,127,1112941188
10710,20,Ticks_Linear_8,108,1,48,24,1112954044
10710,20,Ticks_Linear_8,109,1,48,49,1113643780
10710,20,Ticks_Linear_8,110,5,42,127,1113650420
10710,20,Ticks_Linear_8,111,5,42,127,1114361108
10710,20,Ticks_Linear_8,112,1,48,55,1114375756
10710,20,Ticks_Linear_8,113,5,42,127,1115060484
10710,20,Ticks_Linear_8,114,1,48,52,1115069824
10710,20,Ticks_Linear_8,115,1,48,44,1115730084
10710,20,Ticks_Linear_8,116,5,42,127,1115761048
10710,20,Ticks_Linear_8,117,1,48,28,1115784444
10710,20,Ticks_Linear_8,118,1,48,46,1116422216
10710,20,Ticks_Linear_8,119,5,42,127,1116461420
10710,20,Ticks_Linear_8,120,1,48,50,1117160908
10710,20,Ticks_Linear_8,121,5,42,127,1117170984
10710,20,Ticks_Linear_8,122,1,48,41,1117859684
10710,20,Ticks_Linear_8,123,5,42,127,1117870432
10710,20,Ticks_Linear_8,124,5,42,127,1118560604
10710,20,Ticks_Linear_8,125,1,48,47,1118569572
10710,20,Ticks_Linear_8,126,1,48,50,1119244100
10710,20,Ticks_Linear_8,127,5,42,127,1119250736
10710,20,Ticks_Linear_8,128,1,48,51,1119910984
10710,20,Ticks_Linear_8,129,5,42,127,1119941120
10710,20,Ticks_Linear_8,130,1,48,26,1119976048
10710,20,Ticks_Linear_8,131,5,42,127,1120631196
10710,20,Ticks_Linear_8,132,1,48,49,1120658272
10710,20,Ticks_Linear_8,133,1,48,46,1121301072
10710,20,Ticks_Linear_8,134,5,42,127,1121321332
10710,20,Ticks_Linear_8,135,1,48,21,1121377700
10710,20,Ticks_Linear_8,136,1,48,39,1121971292
10710,20,Ticks_Linear_8,137,5,42,127,1122001212
10710,20,Ticks_Linear_8,138,1,48,38,1122676720
10710,20,Ticks_Linear_8,139,5,42,127,1122681264
10710,20,Ticks_Linear_8,140,5,42,127,1123361076
10710,20,Ticks_Linear_8,141,1,48,43,1123381348
10710,20,Ticks_Linear_8,142,5,42,127,1124041128
10710,20,Ticks_Linear_8,143,1,48,45,1124055480
10710,20,Ticks_Linear_8,144,5,42,127,1124721036
10710,20,Ticks_Linear_8,145,1,48,47,1124768184
10710,20,Ticks_Linear_8,146,1,48,44,1125377868
10710,20,Ticks_Linear_8,147,5,42,127,1125390872
10710,20,Ticks_Linear_8,148,5,42,127,1126061568
10710,20,Ticks_Linear_8,149,1,48,47,1126068052
10710,20,Ticks_Linear_8,150,5,42,127,1126741252
10710,20,Ticks_Linear_8,151,1,48,45,1126748720
10710,20,Ticks_Linear_8,152,5,42,127,1127411020
10710,20,Ticks_Linear_8,153,1,48,46,1127436376
10710,20,Ticks_Linear_8,154,1,48,26,1127979424
10710,20,Ticks_Linear_8,155,5,42,127,1128080940
10710,20,Ticks_Linear_8,156,1,48,28,1128715484
10710,20,Ticks_Linear_8,157,5,42,127,1128741288
10710,20,Ticks_Linear_8,158,5,42,127,1129400980
10710,20,Ticks_Linear_8,159,1,48,43,1129485352
10710,20,Ticks_Linear_8,160,1,48,36,1130056416
10710,20,Ticks_Linear_8,161,5,42,127,1130061180
10710,20,Ticks_Linear_8,162,1,48,34,1130684776
10710,20,Ticks_Linear_8,163,5,42,127,1130720840
10710,20,Ticks_Linear_8,164,5,42,127,1131381132
10710,20,Ticks_Linear_8,165,1,48,43,1131383216
10710,20,Ticks_Linear_8,166,1,48,34,1132007264
10710,20,Ticks_Linear_8,167,5,42,127,1132031276
10710,20,Ticks_Linear_8,168,5,42,127,1132680704
10710,20,Ticks_Linear_8,169,1,48,36,1132688088
10710,20,Ticks_Linear_8,170,1,48,42,1133328176
10710,20,Ticks_Linear_8,171,5,42,127,1133331072
10710,20,Ticks_Linear_8,172,1,48,36,1133970948
10710,20,Ticks_Linear_8,173,5,42,127,1133981020
10710,20,Ticks_Linear_8,174,5,42,127,1134631176
10710,20,Ticks_Linear_8,175,1,48,44,1134639544
10710,20,Ticks_Linear_8,176,1,48,40,1135211808
10710,20,Ticks_Linear_8,177,5,42,127,1135271308
10710,20,Ticks_Linear_8,178,5,42,127,1135911276
10710,20,Ticks_Linear_8,179,1,48,26,1135956576
10710,20,Ticks_Linear_8,180,5,42,127,1136551416
10710,20,Ticks_Linear_8,181,1,48,20,1136574228
10710,20,Ticks_Linear_8,182,5,42,127,1137191156
10710,20,Ticks_Linear_8,183,1,48,20,1137340860
10710,20,Ticks_Linear_8,184,5,42,127,1137831220
10710,20,Ticks_Linear_8,185,1,48,21,1137882496
10710,20,Ticks_Linear_8,186,1,48,43,1138440660
10710,20,Ticks_Linear_8,187,5,42,127,1138461144
10710,20,Ticks_Linear_8,188,5,42,127,1139090880
10710,20,Ticks_Linear_8,189,1,48,47,1139093628
10710,20,Ticks_Linear_8,190,5,42,127,1139720660
10710,20,Ticks_Linear_8,191,1,48,49,1139766936
10710,20,Ticks_Linear_8,192,5,42,127,1140351360
10710,20,Ticks_Linear_8,193,1,48,43,1140394840
10710,20,Ticks_Linear_8,194,1,48,40,1140949272
10710,20,Ticks_Linear_8,195,5,42,127,1140981136
10710,20,Ticks_Linear_8,196,1,48,38,1141586480
10710,20,Ticks_Linear_8,197,5,42,127,1141600828
10710,20,Ticks_Linear_8,198,1,48,44,1142195664
10710,20,Ticks_Linear_8,199,5,42,127,1142221172
10710,20,Ticks_Linear_8,200,1,48,46,1142800516
10710,20,Ticks_Linear_8,201,5,42,127,1142840940
10710,20,Ticks_Linear_8,202,1,48,37,1143461512
10710,20,Ticks_Linear_8,203,5,42,127,1143462852
10710,20,Ticks_Linear_8,204,1,48,38,1144075520
10710,20,Ticks_Linear_8,205,5,42,127,1144080808
10710,20,Ticks_Linear_8,206,5,42,127,1144691072
10710,20,Ticks_Linear_8,207,1,48,26,1144692112
10710,20,Ticks_Linear_8,208,5,42,127,1145301228
10710,20,Ticks_Linear_8,209,1,48,41,1145308012
10710,20,Ticks_Linear_8,210,1,48,45,1145899512
10710,20,Ticks_Linear_8,211,5,42,127,1145910804
10710,20,Ticks_Linear_8,212,5,42,127,1146520972
10710,20,Ticks_Linear_8,213,1,48,50,1146528204
10710,20,Ticks_Linear_8,214,5,42,127,1147131204
10710,20,Ticks_Linear_8,215,1,48,38,1147150356
10710,20,Ticks_Linear_8,216,5,42,127,1147731428
10710,20,Ticks_Linear_8,217,1,48,40,1147758280
10710,20,Ticks_Linear_8,218,1,48,39,1148313228
10710,20,Ticks_Linear_8,219,5,42,127,1148331248
10710,20,Ticks_Linear_8,220,5,42,127,1148930628
10710,20,Ticks_Linear_8,221,1,48,43,1148947972
10710,20,Ticks_Linear_8,222,1,48,44,1149527728
10710,20,Ticks_Linear_8,223,5,42,127,1149530548
10710,20,Ticks_Linear_8,224,1,48,41,1150113476
10710,20,Ticks_Linear_8,225,5,42,127,1150130520
10710,20,Ticks_Linear_8,226,1,48,34,1150707232
10710,20,Ticks_Linear_8,227,5,42,127,1150721432
10710,20,Ticks_Linear_8,228,5,42,127,1151311328
10710,20,Ticks_Linear_8,229,1,48,44,1151338720
10710,20,Ticks_Linear_8,230,5,42,127,1151901044
10710,20,Ticks_Linear_8,231,1,48,29,1151917860
10710,20,Ticks_Linear_8,232,1,48,32,1152471540
10710,20,Ticks_Linear_8,233,5,42,127,1152490972
10710,20,Ticks_Linear_8,234,1,48,36,1153052636
10710,20,Ticks_Linear_8,235,5,42,127,1153080640
10710,20,Ticks_Linear_8,236,5,42,127,1153661372
10710,20,Ticks_Linear_8,237,1,48,34,1153672656
10710,20,Ticks_Linear_8,238,1,48,33,1154231572
10710,20,Ticks_Linear_8,239,5,42,127,1154240748
10710,20,Ticks_Linear_8,240,1,48,27,1154766608
10710,20,Ticks_Linear_8,241,5,42,127,1154820576
10710,20,Ticks_Linear_8,242,1,48,20,1154858348
10710,20,Ticks_Linear_8,243,1,48,39,1155400716
10710,20,Ticks_Linear_8,244,5,42,127,1155402352
10710,20,Ticks_Linear_8,245,5,42,127,1155980696
10710,20,Ticks_Linear_8,246,1,48,34,1156023876
10710,20,Ticks_Linear_8,247,5,42,127,1156551164
10710,20,Ticks_Linear_8,248,1,48,43,1156554356
10710,20,Ticks_Linear_8,249,5,42,127,1157121480
10710,20,Ticks_Linear_8,250,1,48,40,1157138912
10710,20,Ticks_Linear_8,251,1,48,39,1157690024
10710,20,Ticks_Linear_8,252,5,42,127,1157691668
10710,20,Ticks_Linear_8,253,5,42,127,1158261096
10710,20,Ticks_Linear_8,254,1,48,32,1158281292
10710,20,Ticks_Linear_8,255,1,48,38,1158824768
10710,20,Ticks_Linear_8,256,5,42,127,1158830508
10710,20,Ticks_Linear_8,257,5,42,127,1159390576
10710,20,Ticks_Linear_8,258,1,48,46,1159394816
10710,20,Ticks_Linear_8,259,5,42,127,1159950856
10710,20,Ticks_Linear_8,260,1,48,43,1159969860
10710,20,Ticks_Linear_8,261,1,48,32,1160491176
10710,20,Ticks_Linear_8,262,5,42,127,1160510712
10710,20,Ticks_Linear_8,263,1,48,35,1161051556
10710,20,Ticks_Linear_8,264,5,42,127,1161071068
10710,20,Ticks_Linear_8,265,5,42,127,1161630984
10710,20,Ticks_Linear_8,266,1,48,37,1161656344
10710,20,Ticks_Linear_8,267,1,48,36,1162174520
10710,20,Ticks_Linear_8,268,5,42,127,1162180852
10710,20,Ticks_Linear_8,269,5,42,127,1162730732
10710,20,Ticks_Linear_8,270,1,48,47,1162751972
10710,20,Ticks_Linear_8,271,5,42,127,1163280908
10710,20,Ticks_Linear_8,272,1,48,35,1163302448
10710,20,Ticks_Linear_8,273,1,48,43,1163823172
10710,20,Ticks_Linear_8,274,5,42,127,1163830724
10710,20,Ticks_Linear_8,275,5,42,127,1164380528
10710,20,Ticks_Linear_8,276,1,48,45,1164403720
10710,20,Ticks_Linear_8,277,5,42,127,1164921416
10710,20,Ticks_Linear_8,278,1,48,40,1164922980
10710,20,Ticks_Linear_8,279,1,48,42,1165452144
10710,20,Ticks_Linear_8,280,5,42,127,1165460800
10710,20,Ticks_Linear_8,281,1,48,45,1165989816
10710,20,Ticks_Linear_8,282,5,42,127,1166000640
10710,20,Ticks_Linear_8,283,1,48,43,1166530180
10710,20,Ticks_Linear_8,284,5,42,127,1166541156
10710,20,Ticks_Linear_8,285,1,48,43,1167060660
10710,20,Ticks_Linear_8,286,5,42,127,1167080772
10710,20,Ticks_Linear_8,287,5,42,127,1167611476
10710,20,Ticks_Linear_8,288,1,48,43,1167629956
10710,20,Ticks_Linear_8,289,5,42,127,1168140760
10710,20,Ticks_Linear_8,290,1,48,40,1168146500
10710,20,Ticks_Linear_8,291,1,48,43,1168636364
10710,20,Ticks_Linear_8,292,5,42,127,1168671304
10710,20,Ticks_Linear_8,293,5,42,127,1169200592
10710,20,Ticks_Linear_8,294,1,48,42,1169204832
10710,20,Ticks_Linear_8,295,5,42,127,1169730996
10710,20,Ticks_Linear_8,296,1,48,50,1169749252
10710,20,Ticks_Linear_8,297,5,42,127,1170251288
10710,20,Ticks_Linear_8,298,1,48,42,1170255304
10710,20,Ticks_Linear_8,299,1,48,46,1170762176
10710,20,Ticks_Linear_8,300,5,42,127,1170771276
10710,20,Ticks_Linear_8,301,1,48,44,1171240136
10710,20,Ticks_Linear_8,302,5,42,127,1171290524
10710,20,Ticks_Linear_8,303,1,48,44,1171794596
10710,20,Ticks_Linear_8,304,5,42,127,1171810668
10710,20,Ticks_Linear_8,305,1,48,43,1172306500
10710,20,Ticks_Linear_8,306,5,42,127,1172330740
10710,20,Ticks_Linear_8,307,1,48,47,1172837952
10710,20,Ticks_Linear_8,308,5,42,127,1172840700
10710,20,Ticks_Linear_8,309,1,48,51,1173338344
10710,20,Ticks_Linear_8,310,5,42,127,1173350656
10710,20,Ticks_Linear_8,311,1,48,48,1173839756
10710,20,Ticks_Linear_8,312,5,42,127,1173860764
10710,20,Ticks_Linear_8,313,5,42,127,1174370584
10710,20,Ticks_Linear_8,314,1,48,45,1174378564
10710,20,Ticks_Linear_8,315,1,48,41,1174852636
10710,20,Ticks_Linear_8,316,5,42,127,1174880536
10710,20,Ticks_Linear_8,317,1,48,44,1175344448
10710,20,Ticks_Linear_8,318,5,42,127,1175381432
10710,20,Ticks_Linear_8,319,5,42,127,1175881216
10710,20,Ticks_Linear_8,320,1,48,41,1175910248
10710,20,Ticks_Linear_8,321,5,42,127,1176380840
10710,20,Ticks_Linear_8,322,1,48,45,1176400364
10710,20,Ticks_Linear_8,323,1,48,48,1176878468
10710,20,Ticks_Linear_8,324,5,42,127,1176880360
10710,20,Ticks_Linear_8,325,5,42,127,1177381264
10710,20,Ticks_Linear_8,326,1,48,43,1177414064
10710,20,Ticks_Linear_8,327,1,48,43,1177867284
10710,20,Ticks_Linear_8,328,5,42,127,1177870696
10710,20,Ticks_Linear_8,329,5,42,127,1178361416
10710,20,Ticks_Linear_8,330,1,48,42,1178365504
10710,20,Ticks_Linear_8,331,1,48,43,1178831560
10710,20,Ticks_Linear_8,332,5,42,127,1178850552
10710,20,Ticks_Linear_8,333,1,48,35,1179324292
10710,20,Ticks_Linear_8,334,5,42,127,1179341412
10710,20,Ticks_Linear_8,335,1,48,35,1179785352
10710,20,Ticks_Linear_8,336,5,42,127,1179830704
10710,20,Ticks_Linear_8,0,9999,9999,9999,1069269056
10710,20,Ticks_Linear_8,1,9999,9999,9999,1070088276
10710,20,Ticks_Linear_8,2,9999,9999,9999,1070908492
10710,20,Ticks_Linear_8,3,9999,9999,9999,1071728756
10710,20,Ticks_Linear_8,4,9999,9999,9999,1072548944
10710,20,Ticks_Linear_8,5,9999,9999,9999,1073358948
10710,20,Ticks_Linear_8,6,9999,9999,9999,1074168956
10710,20,Ticks_Linear_8,7,9999,9999,9999,1074978888
10710,20,Ticks_Linear_8,8,9999,9999,9999,1075788860
10710,20,Ticks_Linear_8,9,9999,9999,9999,1076598896
10710,20,Ticks_Linear_8,10,9999,9999,9999,1077398620
10710,20,Ticks_Linear_8,11,9999,9999,9999,1078198344
10710,20,Ticks_Linear_8,12,9999,9999,9999,1078998144
10710,20,Ticks_Linear_8,13,9999,9999,9999,1079798840
10710,20,Ticks_Linear_8,14,9999,9999,9999,1080598616
10710,20,Ticks_Linear_8,15,9999,9999,9999,1081388088
10710,20,Ticks_Linear_8,16,9999,9999,9999,1082178624
10710,20,Ticks_Linear_8,17,9999,9999,9999,1082968156
10710,20,Ticks_Linear_8,18,9999,9999,9999,1083758668
10710,20,Ticks_Linear_8,19,9999,9999,9999,1084548212
10710,20,Ticks_Linear_8,20,9999,9999,9999,1085328468
10710,20,Ticks_Linear_8,21,9999,9999,9999,1086108788
10710,20,Ticks_Linear_8,22,9999,9999,9999,1086889048
10710,20,Ticks_Linear_8,23,9999,9999,9999,1087668328
10710,20,Ticks_Linear_8,24,9999,9999,9999,1088448572
10710,20,Ticks_Linear_8,25,9999,9999,9999,1089218648
10710,20,Ticks_Linear_8,26,9999,9999,9999,1089988716
10710,20,Ticks_Linear_8,27,9999,9999,9999,1090758708
10710,20,Ticks_Linear_8,28,9999,9999,9999,1091528776
10710,20,Ticks_Linear_8,29,9999,9999,9999,1092298844
10710,20,Ticks_Linear_8,30,9999,9999,9999,1093058652
10710,20,Ticks_Linear_8,31,9999,9999,9999,1093818464
10710,20,Ticks_Linear_8,32,9999,9999,9999,1094578272
10710,20,Ticks_Linear_8,33,9999,9999,9999,1095339120
10710,20,Ticks_Linear_8,34,9999,9999,9999,1096108144
10710,20,Ticks_Linear_8,35,9999,9999,9999,1096858748
10710,20,Ticks_Linear_8,36,9999,9999,9999,1097608296
10710,20,Ticks_Linear_8,37,9999,9999,9999,1098358892
10710,20,Ticks_Linear_8,38,9999,9999,9999,1099108444
10710,20,Ticks_Linear_8,39,9999,9999,9999,1099859040
10710,20,Ticks_Linear_8,40,9999,9999,9999,1100598380
10710,20,Ticks_Linear_8,41,9999,9999,9999,1101338712
10710,20,Ticks_Linear_8,42,9999,9999,9999,1102079048
10710,20,Ticks_Linear_8,43,9999,9999,9999,1102818412
10710,20,Ticks_Linear_8,44,9999,9999,9999,1103558748
10710,20,Ticks_Linear_8,45,9999,9999,9999,1104288828
10710,20,Ticks_Linear_8,46,9999,9999,9999,1105018984
10710,20,Ticks_Linear_8,47,9999,9999,9999,1105749060
10710,20,Ticks_Linear_8,48,9999,9999,9999,1106478148
10710,20,Ticks_Linear_8,49,9999,9999,9999,1107208292
10710,20,Ticks_Linear_8,50,9999,9999,9999,1107928120
10710,20,Ticks_Linear_8,51,9999,9999,9999,1108649060
10710,20,Ticks_Linear_8,52,9999,9999,9999,1109368952
10710,20,Ticks_Linear_8,53,9999,9999,9999,1110088772
10710,20,Ticks_Linear_8,54,9999,9999,9999,1110808640
10710,20,Ticks_Linear_8,55,9999,9999,9999,1111518276
10710,20,Ticks_Linear_8,56,9999,9999,9999,1112228972
10710,20,Ticks_Linear_8,57,9999,9999,9999,1112938592
10710,20,Ticks_Linear_8,58,9999,9999,9999,1113648196
10710,20,Ticks_Linear_8,59,9999,9999,9999,1114358880
10710,20,Ticks_Linear_8,60,9999,9999,9999,1115058260
10710,20,Ticks_Linear_8,61,9999,9999,9999,1115758672
10710,20,Ticks_Linear_8,62,9999,9999,9999,1116459124
10710,20,Ticks_Linear_8,63,9999,9999,9999,1117168760
10710,20,Ticks_Linear_8,64,9999,9999,9999,1117868132
10710,20,Ticks_Linear_8,65,9999,9999,9999,1118558304
10710,20,Ticks_Linear_8,66,9999,9999,9999,1119248436
10710,20,Ticks_Linear_8,67,9999,9999,9999,1119938676
10710,20,Ticks_Linear_8,68,9999,9999,9999,1120628824
10710,20,Ticks_Linear_8,69,9999,9999,9999,1121319032
10710,20,Ticks_Linear_8,70,9999,9999,9999,1121998912
10710,20,Ticks_Linear_8,71,9999,9999,9999,1122678892
10710,20,Ticks_Linear_8,72,9999,9999,9999,1123358776
10710,20,Ticks_Linear_8,73,9999,9999,9999,1124038756
10710,20,Ticks_Linear_8,74,9999,9999,9999,1124718660
10710,20,Ticks_Linear_8,75,9999,9999,9999,1125388352
10710,20,Ticks_Linear_8,76,9999,9999,9999,1126059124
10710,20,Ticks_Linear_8,77,9999,9999,9999,1126739024
10710,20,Ticks_Linear_8,78,9999,9999,9999,1127408720
10710,20,Ticks_Linear_8,79,9999,9999,9999,1128078420
10710,20,Ticks_Linear_8,80,9999,9999,9999,1128738916
10710,20,Ticks_Linear_8,81,9999,9999,9999,1129398384
10710,20,Ticks_Linear_8,82,9999,9999,9999,1130058808
10710,20,Ticks_Linear_8,83,9999,9999,9999,1130718316
10710,20,Ticks_Linear_8,84,9999,9999,9999,1131378756
10710,20,Ticks_Linear_8,85,9999,9999,9999,1132029052
10710,20,Ticks_Linear_8,86,9999,9999,9999,1132678256
10710,20,Ticks_Linear_8,87,9999,9999,9999,1133328472
10710,20,Ticks_Linear_8,88,9999,9999,9999,1133978720
10710,20,Ticks_Linear_8,89,9999,9999,9999,1134628952
10710,20,Ticks_Linear_8,90,9999,9999,9999,1135268936
10710,20,Ticks_Linear_8,91,9999,9999,9999,1135908980
10710,20,Ticks_Linear_8,92,9999,9999,9999,1136548968
10710,20,Ticks_Linear_8,93,9999,9999,9999,1137188932
10710,20,Ticks_Linear_8,94,9999,9999,9999,1137828920
10710,20,Ticks_Linear_8,95,9999,9999,9999,1138458696
10710,20,Ticks_Linear_8,96,9999,9999,9999,1139088508
10710,20,Ticks_Linear_8,97,9999,9999,9999,1139718212
10710,20,Ticks_Linear_8,98,9999,9999,9999,1140348988
10710,20,Ticks_Linear_8,99,9999,9999,9999,1140978760
10710,20,Ticks_Linear_8,100,9999,9999,9999,1141598308
10710,20,Ticks_Linear_8,101,9999,9999,9999,1142218876
10710,20,Ticks_Linear_8,102,9999,9999,9999,1142838344
10710,20,Ticks_Linear_8,103,9999,9999,9999,1143458916
10710,20,Ticks_Linear_8,104,9999,9999,9999,1144078432
10710,20,Ticks_Linear_8,105,9999,9999,9999,1144688696
10710,20,Ticks_Linear_8,106,9999,9999,9999,1145299004
10710,20,Ticks_Linear_8,107,9999,9999,9999,1145908332
10710,20,Ticks_Linear_8,108,9999,9999,9999,1146518596
10710,20,Ticks_Linear_8,109,9999,9999,9999,1147128904
10710,20,Ticks_Linear_8,110,9999,9999,9999,1147728980
10710,20,Ticks_Linear_8,111,9999,9999,9999,1148329020
10710,20,Ticks_Linear_8,112,9999,9999,9999,1148928104
10710,20,Ticks_Linear_8,113,9999,9999,9999,1149528172
10710,20,Ticks_Linear_8,114,9999,9999,9999,1150128220
10710,20,Ticks_Linear_8,115,9999,9999,9999,1150719060
10710,20,Ticks_Linear_8,116,9999,9999,9999,1151308880
10710,20,Ticks_Linear_8,117,9999,9999,9999,1151898744
10710,20,Ticks_Linear_8,118,9999,9999,9999,1152488528
10710,20,Ticks_Linear_8,119,9999,9999,9999,1153078340
10710,20,Ticks_Linear_8,120,9999,9999,9999,1153659000
10710,20,Ticks_Linear_8,121,9999,9999,9999,1154238524
10710,20,Ticks_Linear_8,122,9999,9999,9999,1154818128
10710,20,Ticks_Linear_8,123,9999,9999,9999,1155398712
10710,20,Ticks_Linear_8,124,9999,9999,9999,1155978320
10710,20,Ticks_Linear_8,125,9999,9999,9999,1156548716
10710,20,Ticks_Linear_8,126,9999,9999,9999,1157119032
10710,20,Ticks_Linear_8,127,9999,9999,9999,1157688404
10710,20,Ticks_Linear_8,128,9999,9999,9999,1158258796
10710,20,Ticks_Linear_8,129,9999,9999,9999,1158828136
10710,20,Ticks_Linear_8,130,9999,9999,9999,1159388276
10710,20,Ticks_Linear_8,131,9999,9999,9999,1159948408
10710,20,Ticks_Linear_8,132,9999,9999,9999,1160508488
10710,20,Ticks_Linear_8,133,9999,9999,9999,1161068620
10710,20,Ticks_Linear_8,134,9999,9999,9999,1161628760
10710,20,Ticks_Linear_8,135,9999,9999,9999,1162178628
10710,20,Ticks_Linear_8,136,9999,9999,9999,1162728508
10710,20,Ticks_Linear_8,137,9999,9999,9999,1163278460
10710,20,Ticks_Linear_8,138,9999,9999,9999,1163828328
10710,20,Ticks_Linear_8,139,9999,9999,9999,1164378232
10710,20,Ticks_Linear_8,140,9999,9999,9999,1164918892
10710,20,Ticks_Linear_8,141,9999,9999,9999,1165458504
10710,20,Ticks_Linear_8,142,9999,9999,9999,1165998192
10710,20,Ticks_Linear_8,143,9999,9999,9999,1166538856
10710,20,Ticks_Linear_8,144,9999,9999,9999,1167078472
10710,20,Ticks_Linear_8,145,9999,9999,9999,1167608956
10710,20,Ticks_Linear_8,146,9999,9999,9999,1168138312
10710,20,Ticks_Linear_8,147,9999,9999,9999,1168668784
10710,20,Ticks_Linear_8,148,9999,9999,9999,1169198144
10710,20,Ticks_Linear_8,149,9999,9999,9999,1169728624
10710,20,Ticks_Linear_8,150,9999,9999,9999,1170248768
10710,20,Ticks_Linear_8,151,9999,9999,9999,1170768980
10710,20,Ticks_Linear_8,152,9999,9999,9999,1171288148
10710,20,Ticks_Linear_8,153,9999,9999,9999,1171808368
10710,20,Ticks_Linear_8,154,9999,9999,9999,1172328512
10710,20,Ticks_Linear_8,155,9999,9999,9999,1172838476
10710,20,Ticks_Linear_8,156,9999,9999,9999,1173348432
10710,20,Ticks_Linear_8,157,9999,9999,9999,1173858392
10710,20,Ticks_Linear_8,158,9999,9999,9999,1174368360
10710,20,Ticks_Linear_8,159,9999,9999,9999,1174878312
10710,20,Ticks_Linear_8,160,9999,9999,9999,1175379060
10710,20,Ticks_Linear_8,161,9999,9999,9999,1175878768
10710,20,Ticks_Linear_8,162,9999,9999,9999,1176378468
10710,20,Ticks_Linear_8,163,9999,9999,9999,1176878164
10710,20,Ticks_Linear_8,164,9999,9999,9999,1177378888
10710,20,Ticks_Linear_8,165,9999,9999,9999,1177868400
10710,20,Ticks_Linear_8,166,9999,9999,9999,1178358892
10710,20,Ticks_Linear_8,167,9999,9999,9999,1178848328
10710,20,Ticks_Linear_8,168,9999,9999,9999,1179338816
10710,20,Ticks_Linear_8,169,9999,9999,9999,1179828332
10711,25,Jits_Pract_5,0,5,56,103,1225996656
10711,25,Jits_Pract_5,1,5,63,98,1225999680
10711,25,Jits_Pract_5,2,5,80,127,1226002728
10711,25,Jits_Pract_5,0,5,56,103,1226497652
10711,25,Jits_Pract_5,1,5,63,98,1226500680
10711,25,Jits_Pract_5,2,5,80,127,1226503872
10711,25,Jits_Pract_5,0,5,56,103,1226997172
10711,25,Jits_Pract_5,1,5,80,127,1227007368
10711,25,Jits_Pract_5,2,5,63,98,1227026932
10711,25,Jits_Pract_5,0,5,63,98,1227446648
10711,25,Jits_Pract_5,1,5,80,127,1227477516
10711,25,Jits_Pract_5,2,5,56,103,1227486520
10711,25,Jits_Pract_5,0,5,80,127,1228006688
10711,25,Jits_Pract_5,1,5,56,103,1228016960
10711,25,Jits_Pract_5,2,5,63,98,1228046632
10711,25,Jits_Pract_5,0,5,63,98,1228497440
10711,25,Jits_Pract_5,1,5,56,103,1228526820
10711,25,Jits_Pract_5,2,5,80,127,1228537388
10711,25,Jits_Pract_5,0,5,56,103,1228946752
10711,25,Jits_Pract_5,1,5,63,98,1228997028
10711,25,Jits_Pract_5,2,5,80,127,1229016440
10711,25,Jits_Pract_5,0,5,80,127,1229446420
10711,25,Jits_Pract_5,1,5,63,98,1229496620
10711,25,Jits_Pract_5,2,5,56,103,1229536632
10711,25,Jits_Pract_5,0,5,56,103,1229947204
10711,25,Jits_Pract_5,1,5,63,98,1229976808
10711,25,Jits_Pract_5,2,5,80,127,1230046712
10711,25,Jits_Pract_5,0,5,56,103,1230446872
10711,25,Jits_Pract_5,1,5,80,127,1230507712
10711,25,Jits_Pract_5,2,5,63,98,1230537088
10711,25,Jits_Pract_5,0,5,56,103,1230956880
10711,25,Jits_Pract_5,1,5,63,98,1230967076
10711,25,Jits_Pract_5,2,5,80,127,1231007088
10711,25,Jits_Pract_5,0,5,63,98,1231447700
10711,25,Jits_Pract_5,1,5,80,127,1231527424
10711,25,Jits_Pract_5,2,5,56,103,1231536648
10711,25,Jits_Pract_5,0,5,63,98,1231997480
10711,25,Jits_Pract_5,1,5,56,103,1232037420
10711,25,Jits_Pract_5,2,5,80,127,1232040412
10711,25,Jits_Pract_5,0,5,56,103,1232457272
10711,25,Jits_Pract_5,1,5,63,98,1232467320
10711,25,Jits_Pract_5,2,5,80,127,1232507184
10711,25,Jits_Pract_5,0,5,56,103,1232946524
10711,25,Jits_Pract_5,1,5,63,98,1232949516
10711,25,Jits_Pract_5,2,5,80,127,1232966984
10711,25,Jits_Pract_5,0,9999,9999,9999,1226244168
10711,25,Jits_Pract_5,1,9999,9999,9999,1226744940
10711,25,Jits_Pract_5,2,9999,9999,9999,1227244612
10711,25,Jits_Pract_5,3,9999,9999,9999,1227744356
10711,25,Jits_Pract_5,4,9999,9999,9999,1228245060
10711,25,Jits_Pract_5,5,9999,9999,9999,1228744808
10711,25,Jits_Pract_5,6,9999,9999,9999,1229244536
10711,25,Jits_Pract_5,7,9999,9999,9999,1229744204
10711,25,Jits_Pract_5,8,9999,9999,9999,1230244916
10711,25,Jits_Pract_5,9,9999,9999,9999,1230744660
10711,25,Jits_Pract_5,10,9999,9999,9999,1231244400
10711,25,Jits_Pract_5,11,9999,9999,9999,1231744068
10711,25,Jits_Pract_5,12,9999,9999,9999,1232244840
10711,25,Jits_Pract_5,13,9999,9999,9999,1232744568
10711,25,Jits_Pract_5,14,9999,9999,9999,1233244220
10712,25,Jits_Pract_5,0,5,56,103,1293269424
10712,25,Jits_Pract_5,1,5,63,98,1293272372
10712,25,Jits_Pract_5,2,5,80,127,1293275568
10712,25,Jits_Pract_5,0,5,56,103,1293769000
10712,25,Jits_Pract_5,1,5,63,98,1293772096
10712,25,Jits_Pract_5,2,5,80,127,1293775292
10712,25,Jits_Pract_5,0,5,56,103,1294268744
10712,25,Jits_Pract_5,1,5,80,127,1294279088
10712,25,Jits_Pract_5,2,5,63,98,1294298576
10712,25,Jits_Pract_5,0,5,63,98,1294719564
10712,25,Jits_Pract_5,1,5,80,127,1294748940
10712,25,Jits_Pract_5,2,5,56,103,1294759212
10712,25,Jits_Pract_5,0,5,80,127,1295278708
10712,25,Jits_Pract_5,1,5,56,103,1295288756
10712,25,Jits_Pract_5,2,5,63,98,1295319548
10712,25,Jits_Pract_5,0,5,63,98,1295769016
10712,25,Jits_Pract_5,1,5,56,103,1295798544
10712,25,Jits_Pract_5,2,5,80,127,1295808812
10712,25,Jits_Pract_5,0,5,56,103,1296218624
10712,25,Jits_Pract_5,1,5,63,98,1296268752
10712,25,Jits_Pract_5,2,5,80,127,1296289064
10712,25,Jits_Pract_5,0,5,80,127,1296719116
10712,25,Jits_Pract_5,1,5,63,98,1296769544
10712,25,Jits_Pract_5,2,5,56,103,1296809552
10712,25,Jits_Pract_5,0,5,56,103,1297218784
10712,25,Jits_Pract_5,1,5,63,98,1297248760
10712,25,Jits_Pract_5,2,1,48,46,1297305960
10712,25,Jits_Pract_5,3,5,80,127,1297319404
10712,25,Jits_Pract_5,0,5,56,103,1297718864
10712,25,Jits_Pract_5,1,1,48,43,1297725268
10712,25,Jits_Pract_5,2,5,80,127,1297778948
10712,25,Jits_Pract_5,3,5,63,98,1297808700
10712,25,Jits_Pract_5,0,5,56,103,1298228536
10712,25,Jits_Pract_5,1,5,63,98,1298238956
10712,25,Jits_Pract_5,2,1,48,46,1298273316
10712,25,Jits_Pract_5,3,5,80,127,1298278740
10712,25,Jits_Pract_5,0,5,63,98,1298719072
10712,25,Jits_Pract_5,1,1,48,53,1298762520
10712,25,Jits_Pract_5,2,5,80,127,1298798964
10712,25,Jits_Pract_5,3,5,56,103,1298809160
10712,25,Jits_Pract_5,0,1,48,48,1299253068
10712,25,Jits_Pract_5,1,5,63,98,1299268908
10712,25,Jits_Pract_5,2,5,56,103,1299308848
10712,25,Jits_Pract_5,3,5,80,127,1299311988
10712,25,Jits_Pract_5,4,1,48,32,1299319900
10712,25,Jits_Pract_5,0,5,56,103,1299728748
10712,25,Jits_Pract_5,1,5,63,98,1299738944
10712,25,Jits_Pract_5,2,1,48,53,1299755320
10712,25,Jits_Pract_5,3,5,80,127,1299778976
10712,25,Jits_Pract_5,0,5,56,103,1300219232
10712,25,Jits_Pract_5,1,5,63,98,1300222300
10712,25,Jits_Pract_5,2,5,80,127,1300238572
10712,25,Jits_Pract_5,3,1,48,46,1300247088
10712,25,Jits_Pract_5,0,9999,9999,9999,1293516860
10712,25,Jits_Pract_5,1,9999,9999,9999,1294016588
10712,25,Jits_Pract_5,2,9999,9999,9999,1294516332
10712,25,Jits_Pract_5,3,9999,9999,9999,1295017048
10712,25,Jits_Pract_5,4,9999,9999,9999,1295516784
10712,25,Jits_Pract_5,5,9999,9999,9999,1296016456
10712,25,Jits_Pract_5,6,9999,9999,9999,1296516184
10712,25,Jits_Pract_5,7,9999,9999,9999,1297016900
10712,25,Jits_Pract_5,8,9999,9999,9999,1297516620
10712,25,Jits_Pract_5,9,9999,9999,9999,1298016332
10712,25,Jits_Pract_5,10,9999,9999,9999,1298517080
10712,25,Jits_Pract_5,11,9999,9999,9999,1299016788
10712,25,Jits_Pract_5,12,9999,9999,9999,1299516532
10712,25,Jits_Pract_5,13,9999,9999,9999,1300016200
10712,25,Jits_Pract_5,14,9999,9999,9999,1300516984
10713,24,Jits_Pract_8,0,5,56,103,1308962400
10713,24,Jits_Pract_8,1,5,63,98,1308965424
10713,24,Jits_Pract_8,2,5,80,127,1308968616
10713,24,Jits_Pract_8,0,5,56,103,1309761844
10713,24,Jits_Pract_8,1,5,63,98,1309765092
10713,24,Jits_Pract_8,2,5,80,127,1309768136
10713,24,Jits_Pract_8,0,5,80,127,1310502356
10713,24,Jits_Pract_8,1,5,63,98,1310592516
10713,24,Jits_Pract_8,2,5,56,103,1310601520
10713,24,Jits_Pract_8,0,5,56,103,1311321452
10713,24,Jits_Pract_8,1,5,63,98,1311331576
10713,24,Jits_Pract_8,2,5,80,127,1311421704
10713,24,Jits_Pract_8,0,5,63,98,1312091592
10713,24,Jits_Pract_8,1,1,48,55,1312119424
10713,24,Jits_Pract_8,2,5,80,127,1312122232
10713,24,Jits_Pract_8,3,5,56,103,1312151908
10713,24,Jits_Pract_8,0,1,48,54,1312880824
10713,24,Jits_Pract_8,1,5,56,103,1312892452
10713,24,Jits_Pract_8,2,5,80,127,1312991492
10713,24,Jits_Pract_8,3,5,63,98,1313041768
10713,24,Jits_Pract_8,0,5,56,103,1313692140
10713,24,Jits_Pract_8,1,5,80,127,1313742120
10713,24,Jits_Pract_8,2,1,48,54,1313759016
10713,24,Jits_Pract_8,3,5,63,98,1313782348
10713,24,Jits_Pract_8,0,5,80,127,1314521428
10713,24,Jits_Pract_8,1,5,63,98,1314552300
10713,24,Jits_Pract_8,2,1,48,52,1314562168
10713,24,Jits_Pract_8,3,5,56,103,1314621700
10713,24,Jits_Pract_8,0,5,63,98,1315351916
10713,24,Jits_Pract_8,1,1,48,54,1315373096
10713,24,Jits_Pract_8,2,5,56,103,1315381660
10713,24,Jits_Pract_8,3,5,80,127,1315441900
10713,24,Jits_Pract_8,0,5,56,103,1316092456
10713,24,Jits_Pract_8,1,5,80,127,1316095524
10713,24,Jits_Pract_8,2,1,48,50,1316149480
10713,24,Jits_Pract_8,3,5,63,98,1316212496
10713,24,Jits_Pract_8,0,1,48,50,1316954396
10713,24,Jits_Pract_8,1,5,56,103,1316971880
10713,24,Jits_Pract_8,2,5,80,127,1317011820
10713,24,Jits_Pract_8,3,5,63,98,1317022312
10713,24,Jits_Pract_8,0,5,56,103,1317731640
10713,24,Jits_Pract_8,1,5,80,127,1317752320
10713,24,Jits_Pract_8,2,1,48,46,1317769068
10713,24,Jits_Pract_8,3,5,63,98,1317832332
10713,24,Jits_Pract_8,0,5,80,127,1318522416
10713,24,Jits_Pract_8,1,1,48,50,1318561504
10713,24,Jits_Pract_8,2,5,56,103,1318621464
10713,24,Jits_Pract_8,3,5,63,98,1318631736
10713,24,Jits_Pract_8,0,5,63,98,1319292448
10713,24,Jits_Pract_8,1,5,80,127,1319351644
10713,24,Jits_Pract_8,2,5,56,103,1319361768
10713,24,Jits_Pract_8,3,1,48,50,1319376492
10713,24,Jits_Pract_8,0,5,56,103,1320092200
10713,24,Jits_Pract_8,1,1,48,48,1320114280
10713,24,Jits_Pract_8,2,5,63,98,1320161496
10713,24,Jits_Pract_8,3,5,80,127,1320164864
10713,24,Jits_Pract_8,0,9999,9999,9999,1309359160
10713,24,Jits_Pract_8,1,9999,9999,9999,1310159924
10713,24,Jits_Pract_8,2,9999,9999,9999,1310959732
10713,24,Jits_Pract_8,3,9999,9999,9999,1311759468
10713,24,Jits_Pract_8,4,9999,9999,9999,1312559200
10713,24,Jits_Pract_8,5,9999,9999,9999,1313359928
10713,24,Jits_Pract_8,6,9999,9999,9999,1314159680
10713,24,Jits_Pract_8,7,9999,9999,9999,1314959448
10713,24,Jits_Pract_8,8,9999,9999,9999,1315759200
10713,24,Jits_Pract_8,9,9999,9999,9999,1316559988
10713,24,Jits_Pract_8,10,9999,9999,9999,1317359688
10713,24,Jits_Pract_8,11,9999,9999,9999,1318159448
10713,24,Jits_Pract_8,12,9999,9999,9999,1318959172
10713,24,Jits_Pract_8,13,9999,9999,9999,1319759988
10713,24,Jits_Pract_8,14,9999,9999,9999,1320559728
10714,16,Jits_ISO_5,0,5,56,103,1348013344
10714,16,Jits_ISO_5,1,5,63,98,1348016440
10714,16,Jits_ISO_5,2,5,80,127,1348019788
10714,16,Jits_ISO_5,0,5,56,103,1348514032
10714,16,Jits_ISO_5,1,5,63,98,1348517132
10714,16,Jits_ISO_5,2,5,80,127,1348520332
10714,16,Jits_ISO_5,0,5,56,103,1349013992
10714,16,Jits_ISO_5,1,5,80,127,1349023968
10714,16,Jits_ISO_5,2,5,63,98,1349043676
10714,16,Jits_ISO_5,0,5,63,98,1349464364
10714,16,Jits_ISO_5,1,5,80,127,1349494036
10714,16,Jits_ISO_5,2,5,56,103,1349504232
10714,16,Jits_ISO_5,0,5,80,127,1350023644
10714,16,Jits_ISO_5,1,5,56,103,1350033764
10714,16,Jits_ISO_5,2,5,63,98,1350063736
10714,16,Jits_ISO_5,0,5,63,98,1350514024
10714,16,Jits_ISO_5,1,5,56,103,1350543848
10714,16,Jits_ISO_5,2,5,80,127,1350554040
10714,16,Jits_ISO_5,0,5,56,103,1350963628
10714,16,Jits_ISO_5,1,5,63,98,1351013904
10714,16,Jits_ISO_5,2,5,80,127,1351034212
10714,16,Jits_ISO_5,0,5,80,127,1351464236
10714,16,Jits_ISO_5,1,5,63,98,1351513488
10714,16,Jits_ISO_5,2,5,56,103,1351554472
10714,16,Jits_ISO_5,0,5,56,103,1351964124
10714,16,Jits_ISO_5,1,5,63,98,1351993676
10714,16,Jits_ISO_5,2,1,48,54,1352008252
10714,16,Jits_ISO_5,3,5,80,127,1352064392
10714,16,Jits_ISO_5,0,5,56,103,1352463868
10714,16,Jits_ISO_5,1,1,48,49,1352504332
10714,16,Jits_ISO_5,2,5,80,127,1352524056
10714,16,Jits_ISO_5,3,5,63,98,1352553804
10714,16,Jits_ISO_5,0,5,56,103,1352973804
10714,16,Jits_ISO_5,1,5,63,98,1352983776
10714,16,Jits_ISO_5,2,1,48,50,1353013144
10714,16,Jits_ISO_5,3,5,80,127,1353023732
10714,16,Jits_ISO_5,0,5,63,98,1353464184
10714,16,Jits_ISO_5,1,1,48,56,1353481080
10714,16,Jits_ISO_5,2,5,80,127,1353543996
10714,16,Jits_ISO_5,3,5,56,103,1353554264
10714,16,Jits_ISO_5,0,5,63,98,1354014104
10714,16,Jits_ISO_5,1,1,48,54,1354025912
10714,16,Jits_ISO_5,2,5,56,103,1354053984
10714,16,Jits_ISO_5,3,5,80,127,1354057124
10714,16,Jits_ISO_5,0,5,56,103,1354473752
10714,16,Jits_ISO_5,1,5,63,98,1354483948
10714,16,Jits_ISO_5,2,1,48,48,1354504376
10714,16,Jits_ISO_5,3,5,80,127,1354523952
10714,16,Jits_ISO_5,0,5,56,103,1354964424
10714,16,Jits_ISO_5,1,5,63,98,1354967644
10714,16,Jits_ISO_5,2,5,80,127,1354983764
10714,16,Jits_ISO_5,3,1,48,48,1354998412
10714,16,Jits_ISO_5,0,1,48,56,1355465776
10714,16,Jits_ISO_5,1,5,80,127,1355474488
10714,16,Jits_ISO_5,2,5,56,103,1355483640
10714,16,Jits_ISO_5,3,5,63,98,1355554288
10714,16,Jits_ISO_5,0,5,63,98,1355963816
10714,16,Jits_ISO_5,1,5,56,103,1355984200
10714,16,Jits_ISO_5,2,1,48,65,1356034592
10714,16,Jits_ISO_5,3,5,80,127,1356063984
10714,16,Jits_ISO_5,0,5,56,103,1356473736
10714,16,Jits_ISO_5,1,5,80,127,1356513896
10714,16,Jits_ISO_5,2,5,63,98,1356523868
10714,16,Jits_ISO_5,3,1,48,51,1356531696
10714,16,Jits_ISO_5,0,5,80,127,1356964264
10714,16,Jits_ISO_5,1,5,63,98,1356993792
10714,16,Jits_ISO_5,2,1,48,48,1356994756
10714,16,Jits_ISO_5,3,5,56,103,1357033868
10714,16,Jits_ISO_5,0,5,56,103,1357484608
10714,16,Jits_ISO_5,1,1,48,52,1357501900
10714,16,Jits_ISO_5,2,5,63,98,1357514056
10714,16,Jits_ISO_5,3,5,80,127,1357564328
10714,16,Jits_ISO_5,0,5,80,127,1357984056
10714,16,Jits_ISO_5,1,1,48,55,1358003292
10714,16,Jits_ISO_5,2,5,56,103,1358023988
10714,16,Jits_ISO_5,3,5,63,98,1358034408
10714,16,Jits_ISO_5,0,5,80,127,1358464400
10714,16,Jits_ISO_5,1,5,63,98,1358504188
10714,16,Jits_ISO_5,2,1,48,45,1358513756
10714,16,Jits_ISO_5,3,5,56,103,1358563668
10714,16,Jits_ISO_5,0,5,56,103,1358964068
10714,16,Jits_ISO_5,1,5,80,127,1358974188
10714,16,Jits_ISO_5,2,1,48,47,1359020160
10714,16,Jits_ISO_5,3,5,63,98,1359054124
10714,16,Jits_ISO_5,0,5,80,127,1359463888
10714,16,Jits_ISO_5,1,5,63,98,1359524356
10714,16,Jits_ISO_5,2,1,48,52,1359540804
10714,16,Jits_ISO_5,3,5,56,103,1359554020
10714,16,Jits_ISO_5,0,5,56,103,1359963788
10714,16,Jits_ISO_5,1,5,80,127,1360023880
10714,16,Jits_ISO_5,2,1,48,55,1360028492
10714,16,Jits_ISO_5,3,5,63,98,1360063808
10714,16,Jits_ISO_5,0,1,48,56,1360491976
10714,16,Jits_ISO_5,1,5,56,103,1360514400
10714,16,Jits_ISO_5,2,5,63,98,1360523844
10714,16,Jits_ISO_5,3,5,80,127,1360527208
10714,16,Jits_ISO_5,0,5,80,127,1360964080
10714,16,Jits_ISO_5,1,1,48,53,1361009680
10714,16,Jits_ISO_5,2,5,63,98,1361054056
10714,16,Jits_ISO_5,3,5,56,103,1361064252
10714,16,Jits_ISO_5,0,5,56,103,1361463812
10714,16,Jits_ISO_5,1,5,63,98,1361466912
10714,16,Jits_ISO_5,2,5,80,127,1361470108
10714,16,Jits_ISO_5,3,1,48,48,1361519228
10714,16,Jits_ISO_5,0,1,48,46,1361973860
10714,16,Jits_ISO_5,1,5,80,127,1361983776
10714,16,Jits_ISO_5,2,5,63,98,1362034052
10714,16,Jits_ISO_5,3,5,56,103,1362063724
10714,16,Jits_ISO_5,0,5,56,103,1362474348
10714,16,Jits_ISO_5,1,5,80,127,1362483672
10714,16,Jits_ISO_5,2,1,48,54,1362511652
10714,16,Jits_ISO_5,3,5,63,98,1362554168
10714,16,Jits_ISO_5,0,5,56,103,1362984360
10714,16,Jits_ISO_5,1,5,63,98,1363003796
10714,16,Jits_ISO_5,2,1,48,52,1363053216
10714,16,Jits_ISO_5,3,5,80,127,1363064100
10714,16,Jits_ISO_5,0,5,80,127,1363473916
10714,16,Jits_ISO_5,1,1,48,54,1363532060
10714,16,Jits_ISO_5,2,5,63,98,1363544364
10714,16,Jits_ISO_5,3,5,56,103,1363563848
10714,16,Jits_ISO_5,0,5,80,127,1363993968
10714,16,Jits_ISO_5,1,5,56,103,1364004164
10714,16,Jits_ISO_5,2,5,63,98,1364013560
10714,16,Jits_ISO_5,3,1,48,48,1364043128
10714,16,Jits_ISO_5,0,5,80,127,1364483520
10714,16,Jits_ISO_5,1,5,56,103,1364503980
10714,16,Jits_ISO_5,2,1,48,48,1364521400
10714,16,Jits_ISO_5,3,5,63,98,1364573676
10714,16,Jits_ISO_5,0,5,56,103,1364994344
10714,16,Jits_ISO_5,1,5,80,127,1365024096
10714,16,Jits_ISO_5,2,5,63,98,1365043756
10714,16,Jits_ISO_5,3,1,48,50,1365049940
10714,16,Jits_ISO_5,0,5,63,98,1365483752
10714,16,Jits_ISO_5,1,5,56,103,1365544592
10714,16,Jits_ISO_5,2,1,48,48,1365546960
10714,16,Jits_ISO_5,3,5,80,127,1365574032
10714,16,Jits_ISO_5,0,5,63,98,1365974540
10714,16,Jits_ISO_5,1,5,80,127,1365977680
10714,16,Jits_ISO_5,2,1,48,46,1366008300
10714,16,Jits_ISO_5,3,5,56,103,1366063416
10714,16,Jits_ISO_5,0,5,56,103,1366503784
10714,16,Jits_ISO_5,1,5,63,98,1366533684
10714,16,Jits_ISO_5,2,1,48,38,1366537332
10714,16,Jits_ISO_5,3,5,80,127,1366573488
10714,16,Jits_ISO_5,0,5,63,98,1367003532
10714,16,Jits_ISO_5,1,5,56,103,1367043620
10714,16,Jits_ISO_5,2,1,48,48,1367051396
10714,16,Jits_ISO_5,3,5,80,127,1367063848
10714,16,Jits_ISO_5,0,5,63,98,1367513604
10714,16,Jits_ISO_5,1,1,48,52,1367523020
10714,16,Jits_ISO_5,2,5,56,103,1367554584
10714,16,Jits_ISO_5,3,5,80,127,1367563584
10714,16,Jits_ISO_5,0,5,80,127,1367993712
10714,16,Jits_ISO_5,1,1,48,54,1368029196
10714,16,Jits_ISO_5,2,5,63,98,1368064728
10714,16,Jits_ISO_5,3,5,56,103,1368083916
10714,16,Jits_ISO_5,0,5,56,103,1368484244
10714,16,Jits_ISO_5,1,5,80,127,1368503660
10714,16,Jits_ISO_5,2,1,48,50,1368540556
10714,16,Jits_ISO_5,3,5,63,98,1368543736
10714,16,Jits_ISO_5,0,5,63,98,1368994176
10714,16,Jits_ISO_5,1,5,80,127,1369013588
10714,16,Jits_ISO_5,2,1,48,46,1369046672
10714,16,Jits_ISO_5,3,5,56,103,1369053516
10714,16,Jits_ISO_5,0,5,63,98,1369493760
10714,16,Jits_ISO_5,1,5,56,103,1369514292
10714,16,Jits_ISO_5,2,5,80,127,1369523740
10714,16,Jits_ISO_5,3,1,48,43,1369525600
10714,16,Jits_ISO_5,0,5,80,127,1369993636
10714,16,Jits_ISO_5,1,5,56,103,1370014024
10714,16,Jits_ISO_5,2,1,48,53,1370032056
10714,16,Jits_ISO_5,3,5,63,98,1370043840
10714,16,Jits_ISO_5,0,1,48,52,1370514632
10714,16,Jits_ISO_5,1,5,56,103,1370563952
10714,16,Jits_ISO_5,2,5,80,127,1370566944
10714,16,Jits_ISO_5,3,5,63,98,1370584708
10714,16,Jits_ISO_5,0,5,63,98,1370983752
10714,16,Jits_ISO_5,1,5,56,103,1371013648
10714,16,Jits_ISO_5,2,1,48,54,1371060440
10714,16,Jits_ISO_5,3,5,80,127,1371073880
10714,16,Jits_ISO_5,0,1,48,53,1371513872
10714,16,Jits_ISO_5,1,5,63,98,1371564760
10714,16,Jits_ISO_5,2,5,56,103,1371573536
10714,16,Jits_ISO_5,3,5,80,127,1371583808
10714,16,Jits_ISO_5,0,5,56,103,1372013864
10714,16,Jits_ISO_5,1,1,48,50,1372016532
10714,16,Jits_ISO_5,2,5,80,127,1372043608
10714,16,Jits_ISO_5,3,5,63,98,1372053804
10714,16,Jits_ISO_5,0,1,48,53,1372499264
10714,16,Jits_ISO_5,1,5,63,98,1372553540
10714,16,Jits_ISO_5,2,5,56,103,1372563808
10714,16,Jits_ISO_5,3,5,80,127,1372584416
10714,16,Jits_ISO_5,0,5,56,103,1372983752
10714,16,Jits_ISO_5,1,1,48,46,1373027028
10714,16,Jits_ISO_5,2,5,63,98,1373043980
10714,16,Jits_ISO_5,3,5,80,127,1373047348
10714,16,Jits_ISO_5,0,5,80,127,1373503792
10714,16,Jits_ISO_5,1,1,48,56,1373508552
10714,16,Jits_ISO_5,2,5,56,103,1373513980
10714,16,Jits_ISO_5,3,5,63,98,1373583660
10714,16,Jits_ISO_5,0,5,80,127,1374003540
10714,16,Jits_ISO_5,1,1,48,53,1374027484
10714,16,Jits_ISO_5,2,5,56,103,1374074560
10714,16,Jits_ISO_5,3,5,63,98,1374083632
10714,16,Jits_ISO_5,0,1,48,50,1374509468
10714,16,Jits_ISO_5,1,5,63,98,1374544412
10714,16,Jits_ISO_5,2,5,56,103,1374553708
10714,16,Jits_ISO_5,3,5,80,127,1374573944
10714,16,Jits_ISO_5,4,1,48,28,1374595476
10714,16,Jits_ISO_5,0,5,80,127,1374993648
10714,16,Jits_ISO_5,1,1,48,41,1375002696
10714,16,Jits_ISO_5,2,5,63,98,1375054132
10714,16,Jits_ISO_5,3,5,56,103,1375093996
10714,16,Jits_ISO_5,0,1,48,52,1375518528
10714,16,Jits_ISO_5,1,5,56,103,1375533644
10714,16,Jits_ISO_5,2,5,63,98,1375543616
10714,16,Jits_ISO_5,3,5,80,127,1375583480
10714,16,Jits_ISO_5,4,1,48,21,1375600208
10714,16,Jits_ISO_5,0,5,56,103,1375994192
10714,16,Jits_ISO_5,1,5,80,127,1376023868
10714,16,Jits_ISO_5,2,1,48,62,1376047168
10714,16,Jits_ISO_5,3,5,63,98,1376074084
10714,16,Jits_ISO_5,0,5,56,103,1376533872
10714,16,Jits_ISO_5,1,1,48,55,1376567360
10714,16,Jits_ISO_5,2,5,63,98,1376573900
10714,16,Jits_ISO_5,3,5,80,127,1376577040
10714,16,Jits_ISO_5,0,5,56,103,1377033536
10714,16,Jits_ISO_5,1,5,63,98,1377043880
10714,16,Jits_ISO_5,2,5,80,127,1377064484
10714,16,Jits_ISO_5,3,1,48,55,1377077568
10714,16,Jits_ISO_5,0,5,56,103,1377494368
10714,16,Jits_ISO_5,1,5,80,127,1377497436
10714,16,Jits_ISO_5,2,5,63,98,1377534304
10714,16,Jits_ISO_5,3,1,48,63,1377556448
10714,16,Jits_ISO_5,0,1,48,58,1378035876
10714,16,Jits_ISO_5,1,5,63,98,1378044292
10714,16,Jits_ISO_5,2,5,56,103,1378073892
10714,16,Jits_ISO_5,3,5,80,127,1378093552
10714,16,Jits_ISO_5,0,5,80,127,1378514588
10714,16,Jits_ISO_5,1,5,56,103,1378523368
10714,16,Jits_ISO_5,2,5,63,98,1378533712
10714,16,Jits_ISO_5,3,1,48,60,1378546640
10714,16,Jits_ISO_5,0,5,56,103,1379014108
10714,16,Jits_ISO_5,1,1,48,58,1379030556
10714,16,Jits_ISO_5,2,5,80,127,1379053892
10714,16,Jits_ISO_5,3,5,63,98,1379083712
10714,16,Jits_ISO_5,0,1,48,66,1379518988
10714,16,Jits_ISO_5,1,5,63,98,1379523812
10714,16,Jits_ISO_5,2,5,80,127,1379534380
10714,16,Jits_ISO_5,3,5,56,103,1379544428
10714,16,Jits_ISO_5,0,5,56,103,1380004444
10714,16,Jits_ISO_5,1,1,48,57,1380015808
10714,16,Jits_ISO_5,2,5,63,98,1380073820
10714,16,Jits_ISO_5,3,5,80,127,1380084016
10714,16,Jits_ISO_5,0,5,80,127,1380503892
10714,16,Jits_ISO_5,1,5,56,103,1380514164
10714,16,Jits_ISO_5,2,1,48,57,1380540504
10714,16,Jits_ISO_5,3,5,63,98,1380564428
10714,16,Jits_ISO_5,0,1,48,52,1380998208
10714,16,Jits_ISO_5,1,5,80,127,1381013820
10714,16,Jits_ISO_5,2,5,56,103,1381074504
10714,16,Jits_ISO_5,3,5,63,98,1381103868
10714,16,Jits_ISO_5,0,5,56,103,1381513632
10714,16,Jits_ISO_5,1,5,80,127,1381516624
10714,16,Jits_ISO_5,2,1,48,62,1381526340
10714,16,Jits_ISO_5,3,5,63,98,1381553712
10714,16,Jits_ISO_5,0,1,48,54,1382029516
10714,16,Jits_ISO_5,1,5,56,103,1382044004
10714,16,Jits_ISO_5,2,5,63,98,1382073604
10714,16,Jits_ISO_5,3,5,80,127,1382084172
10714,16,Jits_ISO_5,0,1,48,58,1382524536
10714,16,Jits_ISO_5,1,5,63,98,1382554004
10714,16,Jits_ISO_5,2,5,80,127,1382564424
10714,16,Jits_ISO_5,3,5,56,103,1382573424
10714,16,Jits_ISO_5,0,5,80,127,1383003476
10714,16,Jits_ISO_5,1,1,48,57,1383027268
10714,16,Jits_ISO_5,2,5,56,103,1383053668
10714,16,Jits_ISO_5,3,5,63,98,1383056736
10714,16,Jits_ISO_5,0,1,48,57,1383528796
10714,16,Jits_ISO_5,1,5,56,103,1383533992
10714,16,Jits_ISO_5,2,5,80,127,1383554380
10714,16,Jits_ISO_5,3,5,63,98,1383563600
10714,16,Jits_ISO_5,0,1,48,55,1384004184
10714,16,Jits_ISO_5,1,5,63,98,1384014396
10714,16,Jits_ISO_5,2,5,56,103,1384043848
10714,16,Jits_ISO_5,3,5,80,127,1384064532
10714,16,Jits_ISO_5,0,1,48,59,1384494476
10714,16,Jits_ISO_5,1,5,56,103,1384524168
10714,16,Jits_ISO_5,2,5,80,127,1384534364
10714,16,Jits_ISO_5,3,5,63,98,1384604100
10714,16,Jits_ISO_5,0,5,63,98,1385013568
10714,16,Jits_ISO_5,1,1,48,50,1385019980
10714,16,Jits_ISO_5,2,5,80,127,1385053500
10714,16,Jits_ISO_5,3,5,56,103,1385093584
10714,16,Jits_ISO_5,0,1,48,46,1385516860
10714,16,Jits_ISO_5,1,5,56,103,1385533820
10714,16,Jits_ISO_5,2,5,63,98,1385544164
10714,16,Jits_ISO_5,3,5,80,127,1385563576
10714,16,Jits_ISO_5,0,1,48,44,1386028948
10714,16,Jits_ISO_5,1,5,63,98,1386073408
10714,16,Jits_ISO_5,2,5,80,127,1386093868
10714,16,Jits_ISO_5,3,5,56,103,1386114476
10714,16,Jits_ISO_5,0,5,56,103,1386513864
10714,16,Jits_ISO_5,1,1,48,49,1386546752
10714,16,Jits_ISO_5,2,5,80,127,1386593528
10714,16,Jits_ISO_5,3,5,63,98,1386603800
10714,16,Jits_ISO_5,0,1,48,46,1387010352
10714,16,Jits_ISO_5,1,5,80,127,1387053488
10714,16,Jits_ISO_5,2,5,63,98,1387063612
10714,16,Jits_ISO_5,3,5,56,103,1387094556
10714,16,Jits_ISO_5,0,5,63,98,1387514392
10714,16,Jits_ISO_5,1,1,48,45,1387532360
10714,16,Jits_ISO_5,2,5,80,127,1387554100
10714,16,Jits_ISO_5,3,5,56,103,1387613540
10714,16,Jits_ISO_5,0,5,63,98,1388024460
10714,16,Jits_ISO_5,1,1,48,49,1388046464
10714,16,Jits_ISO_5,2,5,56,103,1388074456
10714,16,Jits_ISO_5,3,5,80,127,1388103904
10714,16,Jits_ISO_5,0,5,80,127,1388534084
10714,16,Jits_ISO_5,1,1,48,47,1388539152
10714,16,Jits_ISO_5,2,5,63,98,1388544572
10714,16,Jits_ISO_5,3,5,56,103,1388613904
10714,16,Jits_ISO_5,0,1,48,49,1389062576
10714,16,Jits_ISO_5,1,5,80,127,1389103380
10714,16,Jits_ISO_5,2,5,56,103,1389113568
10714,16,Jits_ISO_5,3,5,63,98,1389116864
10714,16,Jits_ISO_5,0,5,56,103,1389554168
10714,16,Jits_ISO_5,1,5,80,127,1389573580
10714,16,Jits_ISO_5,2,1,48,53,1389577372
10714,16,Jits_ISO_5,3,5,63,98,1389583840
10714,16,Jits_ISO_5,0,1,48,46,1390056952
10714,16,Jits_ISO_5,1,5,63,98,1390064168
10714,16,Jits_ISO_5,2,5,56,103,1390103884
10714,16,Jits_ISO_5,3,5,80,127,1390124368
10714,16,Jits_ISO_5,0,5,63,98,1390563692
10714,16,Jits_ISO_5,1,1,48,47,1390569428
10714,16,Jits_ISO_5,2,5,56,103,1390624220
10714,16,Jits_ISO_5,3,5,80,127,1390627364
10714,16,Jits_ISO_5,0,5,56,103,1391023340
10714,16,Jits_ISO_5,1,5,80,127,1391044096
10714,16,Jits_ISO_5,2,1,48,46,1391062136
10714,16,Jits_ISO_5,3,5,63,98,1391084172
10714,16,Jits_ISO_5,0,1,48,45,1391523208
10714,16,Jits_ISO_5,1,5,56,103,1391553868
10714,16,Jits_ISO_5,2,5,63,98,1391574328
10714,16,Jits_ISO_5,3,5,80,127,1391583552
10714,16,Jits_ISO_5,0,1,48,51,1392018280
10714,16,Jits_ISO_5,1,5,80,127,1392023784
10714,16,Jits_ISO_5,2,5,56,103,1392053608
10714,16,Jits_ISO_5,3,5,63,98,1392093692
10714,16,Jits_ISO_5,0,5,80,127,1392533784
10714,16,Jits_ISO_5,1,1,48,47,1392534748
10714,16,Jits_ISO_5,2,5,56,103,1392554308
10714,16,Jits_ISO_5,3,5,63,98,1392613648
10714,16,Jits_ISO_5,0,5,56,103,1393043720
10714,16,Jits_ISO_5,1,1,48,49,1393049452
10714,16,Jits_ISO_5,2,5,80,127,1393064392
10714,16,Jits_ISO_5,3,5,63,98,1393123584
10714,16,Jits_ISO_5,0,5,80,127,1393524356
10714,16,Jits_ISO_5,1,5,56,103,1393534480
10714,16,Jits_ISO_5,2,1,48,55,1393566144
10714,16,Jits_ISO_5,3,5,63,98,1393574332
10714,16,Jits_ISO_5,0,5,63,98,1394023728
10714,16,Jits_ISO_5,1,1,48,54,1394054348
10714,16,Jits_ISO_5,2,5,56,103,1394063656
10714,16,Jits_ISO_5,3,5,80,127,1394066724
10714,16,Jits_ISO_5,0,1,48,53,1394530676
10714,16,Jits_ISO_5,1,5,63,98,1394544264
10714,16,Jits_ISO_5,2,5,80,127,1394583980
10714,16,Jits_ISO_5,3,5,56,103,1394613652
10714,16,Jits_ISO_5,0,1,48,52,1395013560
10714,16,Jits_ISO_5,1,5,56,103,1395033440
10714,16,Jits_ISO_5,2,5,63,98,1395043712
10714,16,Jits_ISO_5,3,5,80,127,1395074432
10714,16,Jits_ISO_5,0,1,48,57,1395507520
10714,16,Jits_ISO_5,1,5,80,127,1395524028
10714,16,Jits_ISO_5,2,5,63,98,1395593488
10714,16,Jits_ISO_5,3,5,56,103,1395603816
10714,16,Jits_ISO_5,0,5,63,98,1396023544
10714,16,Jits_ISO_5,1,1,48,57,1396065548
10714,16,Jits_ISO_5,2,5,56,103,1396094412
10714,16,Jits_ISO_5,3,5,80,127,1396103488
10714,16,Jits_ISO_5,0,5,63,98,1396524472
10714,16,Jits_ISO_5,1,5,56,103,1396543884
10714,16,Jits_ISO_5,2,1,48,58,1396579212
10714,16,Jits_ISO_5,3,5,80,127,1396583668
10714,16,Jits_ISO_5,0,1,48,58,1397029088
10714,16,Jits_ISO_5,1,5,56,103,1397043456
10714,16,Jits_ISO_5,2,5,63,98,1397053724
10714,16,Jits_ISO_5,3,5,80,127,1397133648
10714,16,Jits_ISO_5,0,5,63,98,1397534324
10714,16,Jits_ISO_5,1,1,48,60,1397550132
10714,16,Jits_ISO_5,2,5,56,103,1397563720
10714,16,Jits_ISO_5,3,5,80,127,1397603732
10714,16,Jits_ISO_5,0,5,56,103,1398033688
10714,16,Jits_ISO_5,1,5,63,98,1398073652
10714,16,Jits_ISO_5,2,1,48,53,1398085608
10714,16,Jits_ISO_5,3,5,80,127,1398113656
10714,16,Jits_ISO_5,0,5,80,127,1398533584
10714,16,Jits_ISO_5,1,1,48,52,1398557376
10714,16,Jits_ISO_5,2,5,56,103,1398614368
10714,16,Jits_ISO_5,3,5,63,98,1398623664
10714,16,Jits_ISO_5,0,5,56,103,1399074236
10714,16,Jits_ISO_5,1,5,63,98,1399077228
10714,16,Jits_ISO_5,2,5,80,127,1399084604
10714,16,Jits_ISO_5,3,1,48,59,1399085568
10714,16,Jits_ISO_5,0,1,48,53,1399555876
10714,16,Jits_ISO_5,1,5,56,103,1399594288
10714,16,Jits_ISO_5,2,5,63,98,1399613852
10714,16,Jits_ISO_5,3,5,80,127,1399624120
10714,16,Jits_ISO_5,0,5,63,98,1400054300
10714,16,Jits_ISO_5,1,5,80,127,1400064272
10714,16,Jits_ISO_5,2,1,48,62,1400076232
10714,16,Jits_ISO_5,3,5,56,103,1400083828
10714,16,Jits_ISO_5,0,5,63,98,1400553960
10714,16,Jits_ISO_5,1,1,48,54,1400567268
10714,16,Jits_ISO_5,2,5,56,103,1400633920
10714,16,Jits_ISO_5,3,5,80,127,1400636764
10714,16,Jits_ISO_5,0,5,63,98,1401063728
10714,16,Jits_ISO_5,1,5,56,103,1401084336
10714,16,Jits_ISO_5,2,1,48,63,1401094280
10714,16,Jits_ISO_5,3,5,80,127,1401114228
10714,16,Jits_ISO_5,0,5,56,103,1401563536
10714,16,Jits_ISO_5,1,1,48,59,1401575872
10714,16,Jits_ISO_5,2,5,63,98,1401584060
10714,16,Jits_ISO_5,3,5,80,127,1401594184
10714,16,Jits_ISO_5,0,1,48,59,1402066096
10714,16,Jits_ISO_5,1,5,56,103,1402093844
10714,16,Jits_ISO_5,2,5,63,98,1402123740
10714,16,Jits_ISO_5,3,5,80,127,1402127180
10714,16,Jits_ISO_5,0,5,56,103,1402543532
10714,16,Jits_ISO_5,1,5,63,98,1402584368
10714,16,Jits_ISO_5,2,1,48,61,1402605916
10714,16,Jits_ISO_5,3,5,80,127,1402643848
10714,16,Jits_ISO_5,0,1,48,59,1403060096
10714,16,Jits_ISO_5,1,5,56,103,1403063800
10714,16,Jits_ISO_5,2,5,63,98,1403073848
10714,16,Jits_ISO_5,3,5,80,127,1403134456
10714,16,Jits_ISO_5,0,5,56,103,1403564364
10714,16,Jits_ISO_5,1,1,48,60,1403567484
10714,16,Jits_ISO_5,2,5,80,127,1403583844
10714,16,Jits_ISO_5,3,5,63,98,1403613516
10714,16,Jits_ISO_5,0,5,80,127,1404064260
10714,16,Jits_ISO_5,1,5,56,103,1404074456
10714,16,Jits_ISO_5,2,5,63,98,1404093940
10714,16,Jits_ISO_5,3,1,48,54,1404100352
10714,16,Jits_ISO_5,0,5,63,98,1404553668
10714,16,Jits_ISO_5,1,1,48,55,1404592232
10714,16,Jits_ISO_5,2,5,80,127,1404633308
10714,16,Jits_ISO_5,3,5,56,103,1404643800
10714,16,Jits_ISO_5,0,5,80,127,1405113640
10714,16,Jits_ISO_5,1,1,48,61,1405133780
10714,16,Jits_ISO_5,2,5,56,103,1405135456
10714,16,Jits_ISO_5,3,5,63,98,1405138128
10714,16,Jits_ISO_5,0,5,63,98,1405583788
10714,16,Jits_ISO_5,1,5,80,127,1405587152
10714,16,Jits_ISO_5,2,1,48,55,1405632384
10714,16,Jits_ISO_5,3,5,56,103,1405644092
10714,16,Jits_ISO_5,0,5,56,103,1406064260
10714,16,Jits_ISO_5,1,5,80,127,1406074156
10714,16,Jits_ISO_5,2,5,63,98,1406114316
10714,16,Jits_ISO_5,3,1,48,58,1406162688
10714,16,Jits_ISO_5,0,5,56,103,1406544376
10714,16,Jits_ISO_5,1,5,63,98,1406603716
10714,16,Jits_ISO_5,2,5,80,127,1406614136
10714,16,Jits_ISO_5,3,1,48,47,1406641536
10714,16,Jits_ISO_5,0,5,63,98,1407054312
10714,16,Jits_ISO_5,1,5,80,127,1407094028
10714,16,Jits_ISO_5,2,1,48,54,1407116248
10714,16,Jits_ISO_5,3,5,56,103,1407134180
10714,16,Jits_ISO_5,0,5,56,103,1407554196
10714,16,Jits_ISO_5,1,1,48,53,1407614704
10714,16,Jits_ISO_5,2,5,63,98,1407633832
10714,16,Jits_ISO_5,3,5,80,127,1407637420
10714,16,Jits_ISO_5,0,9999,9999,9999,1348261968
10714,16,Jits_ISO_5,1,9999,9999,9999,1348761688
10714,16,Jits_ISO_5,2,9999,9999,9999,1349261428
10714,16,Jits_ISO_5,3,9999,9999,9999,1349761088
10714,16,Jits_ISO_5,4,9999,9999,9999,1350261860
10714,16,Jits_ISO_5,5,9999,9999,9999,1350761532
10714,16,Jits_ISO_5,6,9999,9999,9999,1351261252
10714,16,Jits_ISO_5,7,9999,9999,9999,1351762036
10714,16,Jits_ISO_5,8,9999,9999,9999,1352261752
10714,16,Jits_ISO_5,9,9999,9999,9999,1352761424
10714,16,Jits_ISO_5,10,9999,9999,9999,1353261168
10714,16,Jits_ISO_5,11,9999,9999,9999,1353761864
10714,16,Jits_ISO_5,12,9999,9999,9999,1354261584
10714,16,Jits_ISO_5,13,9999,9999,9999,1354761312
10714,16,Jits_ISO_5,14,9999,9999,9999,1355262016
10714,16,Jits_ISO_5,15,9999,9999,9999,1355761764
10714,16,Jits_ISO_5,16,9999,9999,9999,1356261492
10714,16,Jits_ISO_5,17,9999,9999,9999,1356761148
10714,16,Jits_ISO_5,18,9999,9999,9999,1357261940
10714,16,Jits_ISO_5,19,9999,9999,9999,1357761612
10714,16,Jits_ISO_5,20,9999,9999,9999,1358261360
10714,16,Jits_ISO_5,21,9999,9999,9999,1358762076
10714,16,Jits_ISO_5,22,9999,9999,9999,1359261748
10714,16,Jits_ISO_5,23,9999,9999,9999,1359761496
10714,16,Jits_ISO_5,24,9999,9999,9999,1360261244
10714,16,Jits_ISO_5,25,9999,9999,9999,1360761956
10714,16,Jits_ISO_5,26,9999,9999,9999,1361261688
10714,16,Jits_ISO_5,27,9999,9999,9999,1361761336
10714,16,Jits_ISO_5,28,9999,9999,9999,1362262132
10714,16,Jits_ISO_5,29,9999,9999,9999,1362772052
10714,16,Jits_ISO_5,30,9999,9999,9999,1363271800
10714,16,Jits_ISO_5,31,9999,9999,9999,1363771472
10714,16,Jits_ISO_5,32,9999,9999,9999,1364271216
10714,16,Jits_ISO_5,33,9999,9999,9999,1364771908
10714,16,Jits_ISO_5,34,9999,9999,9999,1365271648
10714,16,Jits_ISO_5,35,9999,9999,9999,1365771368
10714,16,Jits_ISO_5,36,9999,9999,9999,1366272060
10714,16,Jits_ISO_5,37,9999,9999,9999,1366782060
10714,16,Jits_ISO_5,38,9999,9999,9999,1367281732
10714,16,Jits_ISO_5,39,9999,9999,9999,1367781468
10714,16,Jits_ISO_5,40,9999,9999,9999,1368281204
10714,16,Jits_ISO_5,41,9999,9999,9999,1368781920
10714,16,Jits_ISO_5,42,9999,9999,9999,1369281588
10714,16,Jits_ISO_5,43,9999,9999,9999,1369781320
10714,16,Jits_ISO_5,44,9999,9999,9999,1370282100
10714,16,Jits_ISO_5,45,9999,9999,9999,1370781772
10714,16,Jits_ISO_5,46,9999,9999,9999,1371281504
10714,16,Jits_ISO_5,47,9999,9999,9999,1371781168
10714,16,Jits_ISO_5,48,9999,9999,9999,1372281948
10714,16,Jits_ISO_5,49,9999,9999,9999,1372781628
10714,16,Jits_ISO_5,50,9999,9999,9999,1373281348
10714,16,Jits_ISO_5,51,9999,9999,9999,1373782140
10714,16,Jits_ISO_5,52,9999,9999,9999,1374292080
10714,16,Jits_ISO_5,53,9999,9999,9999,1374791732
10714,16,Jits_ISO_5,54,9999,9999,9999,1375291504
10714,16,Jits_ISO_5,55,9999,9999,9999,1375791156
10714,16,Jits_ISO_5,56,9999,9999,9999,1376291944
10714,16,Jits_ISO_5,57,9999,9999,9999,1376791608
10714,16,Jits_ISO_5,58,9999,9999,9999,1377291328
10714,16,Jits_ISO_5,59,9999,9999,9999,1377792108
10714,16,Jits_ISO_5,60,9999,9999,9999,1378302048
10714,16,Jits_ISO_5,61,9999,9999,9999,1378801776
10714,16,Jits_ISO_5,62,9999,9999,9999,1379301448
10714,16,Jits_ISO_5,63,9999,9999,9999,1379801192
10714,16,Jits_ISO_5,64,9999,9999,9999,1380301900
10714,16,Jits_ISO_5,65,9999,9999,9999,1380801644
10714,16,Jits_ISO_5,66,9999,9999,9999,1381301316
10714,16,Jits_ISO_5,67,9999,9999,9999,1381802084
10714,16,Jits_ISO_5,68,9999,9999,9999,1382301760
10714,16,Jits_ISO_5,69,9999,9999,9999,1382801496
10714,16,Jits_ISO_5,70,9999,9999,9999,1383301216
10714,16,Jits_ISO_5,71,9999,9999,9999,1383801936
10714,16,Jits_ISO_5,72,9999,9999,9999,1384301668
10714,16,Jits_ISO_5,73,9999,9999,9999,1384801400
10714,16,Jits_ISO_5,74,9999,9999,9999,1385302108
10714,16,Jits_ISO_5,75,9999,9999,9999,1385812024
10714,16,Jits_ISO_5,76,9999,9999,9999,1386311760
10714,16,Jits_ISO_5,77,9999,9999,9999,1386811496
10714,16,Jits_ISO_5,78,9999,9999,9999,1387311168
10714,16,Jits_ISO_5,79,9999,9999,9999,1387811924
10714,16,Jits_ISO_5,80,9999,9999,9999,1388311652
10714,16,Jits_ISO_5,81,9999,9999,9999,1388811388
10714,16,Jits_ISO_5,82,9999,9999,9999,1389312108
10714,16,Jits_ISO_5,83,9999,9999,9999,1389822024
10714,16,Jits_ISO_5,84,9999,9999,9999,1390321780
10714,16,Jits_ISO_5,85,9999,9999,9999,1390821432
10714,16,Jits_ISO_5,86,9999,9999,9999,1391321164
10714,16,Jits_ISO_5,87,9999,9999,9999,1391821884
10714,16,Jits_ISO_5,88,9999,9999,9999,1392321616
10714,16,Jits_ISO_5,89,9999,9999,9999,1392821344
10714,16,Jits_ISO_5,90,9999,9999,9999,1393322068
10714,16,Jits_ISO_5,91,9999,9999,9999,1393821808
10714,16,Jits_ISO_5,92,9999,9999,9999,1394321472
10714,16,Jits_ISO_5,93,9999,9999,9999,1394821200
10714,16,Jits_ISO_5,94,9999,9999,9999,1395321908
10714,16,Jits_ISO_5,95,9999,9999,9999,1395821640
10714,16,Jits_ISO_5,96,9999,9999,9999,1396321372
10714,16,Jits_ISO_5,97,9999,9999,9999,1396822076
10714,16,Jits_ISO_5,98,9999,9999,9999,1397332072
10714,16,Jits_ISO_5,99,9999,9999,9999,1397831732
10714,16,Jits_ISO_5,100,9999,9999,9999,1398331468
10714,16,Jits_ISO_5,101,9999,9999,9999,1398831212
10714,16,Jits_ISO_5,102,9999,9999,9999,1399331896
10714,16,Jits_ISO_5,103,9999,9999,9999,1399831644
10714,16,Jits_ISO_5,104,9999,9999,9999,1400331376
10714,16,Jits_ISO_5,105,9999,9999,9999,1400832080
10714,16,Jits_ISO_5,106,9999,9999,9999,1401342076
10714,16,Jits_ISO_5,107,9999,9999,9999,1401841732
10714,16,Jits_ISO_5,108,9999,9999,9999,1402341476
10714,16,Jits_ISO_5,109,9999,9999,9999,1402841208
10714,16,Jits_ISO_5,110,9999,9999,9999,1403341932
10714,16,Jits_ISO_5,111,9999,9999,9999,1403841588
10714,16,Jits_ISO_5,112,9999,9999,9999,1404341336
10714,16,Jits_ISO_5,113,9999,9999,9999,1404842056
10714,16,Jits_ISO_5,114,9999,9999,9999,1405341788
10714,16,Jits_ISO_5,115,9999,9999,9999,1405841528
10714,16,Jits_ISO_5,116,9999,9999,9999,1406341184
10714,16,Jits_ISO_5,117,9999,9999,9999,1406841980
10714,16,Jits_ISO_5,118,9999,9999,9999,1407341656
10714,16,Jits_ISO_5,119,9999,9999,9999,1407841384
10715,7,Jits_ISO_8,0,5,56,103,1417335168
10715,7,Jits_ISO_8,1,5,63,98,1417338416
10715,7,Jits_ISO_8,2,5,80,127,1417341460
10715,7,Jits_ISO_8,0,5,56,103,1418134940
10715,7,Jits_ISO_8,1,5,63,98,1418137964
10715,7,Jits_ISO_8,2,5,80,127,1418141016
10715,7,Jits_ISO_8,0,5,80,127,1418875388
10715,7,Jits_ISO_8,1,5,63,98,1418965228
10715,7,Jits_ISO_8,2,5,56,103,1418974524
10715,7,Jits_ISO_8,0,5,56,103,1419694440
10715,7,Jits_ISO_8,1,5,63,98,1419704712
10715,7,Jits_ISO_8,2,5,80,127,1419795064
10715,7,Jits_ISO_8,0,5,63,98,1420464484
10715,7,Jits_ISO_8,1,5,80,127,1420495284
10715,7,Jits_ISO_8,2,5,56,103,1420524884
10715,7,Jits_ISO_8,0,5,56,103,1421265156
10715,7,Jits_ISO_8,1,5,80,127,1421364536
10715,7,Jits_ISO_8,2,5,63,98,1421414960
10715,7,Jits_ISO_8,0,5,56,103,1422065028
10715,7,Jits_ISO_8,1,5,80,127,1422115084
10715,7,Jits_ISO_8,2,5,63,98,1422155048
10715,7,Jits_ISO_8,0,5,80,127,1422894368
10715,7,Jits_ISO_8,1,5,63,98,1422925168
10715,7,Jits_ISO_8,2,5,56,103,1422994920
10715,7,Jits_ISO_8,0,1,48,51,1423639180
10715,7,Jits_ISO_8,1,5,63,98,1423725024
10715,7,Jits_ISO_8,2,5,56,103,1423754684
10715,7,Jits_ISO_8,3,5,80,127,1423815000
10715,7,Jits_ISO_8,0,1,48,49,1424436976
10715,7,Jits_ISO_8,1,5,56,103,1424465244
10715,7,Jits_ISO_8,2,5,80,127,1424468240
10715,7,Jits_ISO_8,3,5,63,98,1424584960
10715,7,Jits_ISO_8,0,1,48,49,1425263044
10715,7,Jits_ISO_8,1,5,56,103,1425344880
10715,7,Jits_ISO_8,2,5,80,127,1425384956
10715,7,Jits_ISO_8,3,5,63,98,1425395076
10715,7,Jits_ISO_8,0,5,56,103,1426104892
10715,7,Jits_ISO_8,1,5,80,127,1426125056
10715,7,Jits_ISO_8,2,1,48,49,1426133800
10715,7,Jits_ISO_8,3,5,63,98,1426204992
10715,7,Jits_ISO_8,0,5,80,127,1426895176
10715,7,Jits_ISO_8,1,1,48,49,1426972608
10715,7,Jits_ISO_8,2,5,56,103,1426994400
10715,7,Jits_ISO_8,3,5,63,98,1427004744
10715,7,Jits_ISO_8,0,5,63,98,1427665160
10715,7,Jits_ISO_8,1,5,80,127,1427724584
10715,7,Jits_ISO_8,2,5,56,103,1427735076
10715,7,Jits_ISO_8,3,1,48,48,1427758744
10715,7,Jits_ISO_8,0,5,56,103,1428464940
10715,7,Jits_ISO_8,1,1,48,45,1428502288
10715,7,Jits_ISO_8,2,5,63,98,1428534788
10715,7,Jits_ISO_8,3,5,80,127,1428538004
10715,7,Jits_ISO_8,0,1,48,48,1429291828
10715,7,Jits_ISO_8,1,5,63,98,1429294416
10715,7,Jits_ISO_8,2,5,56,103,1429344764
10715,7,Jits_ISO_8,3,5,80,127,1429347756
10715,7,Jits_ISO_8,0,5,56,103,1430055204
10715,7,Jits_ISO_8,1,5,80,127,1430058296
10715,7,Jits_ISO_8,2,1,48,58,1430124584
10715,7,Jits_ISO_8,3,5,63,98,1430145356
10715,7,Jits_ISO_8,0,5,63,98,1430894948
10715,7,Jits_ISO_8,1,1,48,55,1430899712
10715,7,Jits_ISO_8,2,5,56,103,1430985004
10715,7,Jits_ISO_8,3,5,80,127,1431014740
10715,7,Jits_ISO_8,0,1,48,54,1431672808
10715,7,Jits_ISO_8,1,5,56,103,1431684536
10715,7,Jits_ISO_8,2,5,63,98,1431784848
10715,7,Jits_ISO_8,3,5,80,127,1431814376
10715,7,Jits_ISO_8,0,1,48,47,1432494716
10715,7,Jits_ISO_8,1,5,63,98,1432504780
10715,7,Jits_ISO_8,2,5,56,103,1432514904
10715,7,Jits_ISO_8,3,5,80,127,1432605096
10715,7,Jits_ISO_8,0,1,48,48,1433277340
10715,7,Jits_ISO_8,1,5,63,98,1433324800
10715,7,Jits_ISO_8,2,5,56,103,1433404828
10715,7,Jits_ISO_8,3,5,80,127,1433407968
10715,7,Jits_ISO_8,0,5,80,127,1434084652
10715,7,Jits_ISO_8,1,5,63,98,1434105116
10715,7,Jits_ISO_8,2,1,48,48,1434117304
10715,7,Jits_ISO_8,3,5,56,103,1434164476
10715,7,Jits_ISO_8,0,5,56,103,1434925456
10715,7,Jits_ISO_8,1,5,63,98,1434944868
10715,7,Jits_ISO_8,2,5,80,127,1434948308
10715,7,Jits_ISO_8,3,1,48,62,1434960048
10715,7,Jits_ISO_8,0,5,63,98,1435664908
10715,7,Jits_ISO_8,1,5,80,127,1435744808
10715,7,Jits_ISO_8,2,5,56,103,1435754856
10715,7,Jits_ISO_8,3,1,48,48,1435759624
10715,7,Jits_ISO_8,0,5,63,98,1436484944
10715,7,Jits_ISO_8,1,5,56,103,1436504360
10715,7,Jits_ISO_8,2,1,48,53,1436524488
10715,7,Jits_ISO_8,3,5,80,127,1436554780
10715,7,Jits_ISO_8,0,5,80,127,1437284652
10715,7,Jits_ISO_8,1,1,48,46,1437312656
10715,7,Jits_ISO_8,2,5,63,98,1437324808
10715,7,Jits_ISO_8,3,5,56,103,1437345120
10715,7,Jits_ISO_8,0,1,48,52,1438094300
10715,7,Jits_ISO_8,1,5,56,103,1438125568
10715,7,Jits_ISO_8,2,5,63,98,1438134868
10715,7,Jits_ISO_8,3,5,80,127,1438155028
10715,7,Jits_ISO_8,0,5,56,103,1438854484
10715,7,Jits_ISO_8,1,1,48,56,1438912212
10715,7,Jits_ISO_8,2,5,63,98,1438944840
10715,7,Jits_ISO_8,3,5,80,127,1439005080
10715,7,Jits_ISO_8,0,5,80,127,1439684924
10715,7,Jits_ISO_8,1,5,56,103,1439695196
10715,7,Jits_ISO_8,2,1,48,59,1439700264
10715,7,Jits_ISO_8,3,5,63,98,1439764944
10715,7,Jits_ISO_8,0,1,48,50,1440499748
10715,7,Jits_ISO_8,1,5,63,98,1440514760
10715,7,Jits_ISO_8,2,5,80,127,1440604684
10715,7,Jits_ISO_8,3,5,56,103,1440614732
10715,7,Jits_ISO_8,0,5,63,98,1441254916
10715,7,Jits_ISO_8,1,1,48,46,1441299992
10715,7,Jits_ISO_8,2,5,80,127,1441304816
10715,7,Jits_ISO_8,3,5,56,103,1441365308
10715,7,Jits_ISO_8,0,5,56,103,1442085116
10715,7,Jits_ISO_8,1,1,48,45,1442106020
10715,7,Jits_ISO_8,2,5,80,127,1442135340
10715,7,Jits_ISO_8,3,5,63,98,1442154828
10715,7,Jits_ISO_8,0,5,56,103,1442855168
10715,7,Jits_ISO_8,1,1,48,50,1442888480
10715,7,Jits_ISO_8,2,5,80,127,1442914660
10715,7,Jits_ISO_8,3,5,63,98,1442986196
10715,7,Jits_ISO_8,0,1,48,42,1443644896
10715,7,Jits_ISO_8,1,5,56,103,1443654964
10715,7,Jits_ISO_8,2,5,80,127,1443684712
10715,7,Jits_ISO_8,3,5,63,98,1443714540
10715,7,Jits_ISO_8,0,1,48,34,1444422548
10715,7,Jits_ISO_8,1,5,56,103,1444494664
10715,7,Jits_ISO_8,2,5,80,127,1444515200
10715,7,Jits_ISO_8,3,5,63,98,1444574900
10715,7,Jits_ISO_8,0,1,48,46,1445270592
10715,7,Jits_ISO_8,1,5,80,127,1445375276
10715,7,Jits_ISO_8,2,5,56,103,1445384872
10715,7,Jits_ISO_8,3,5,63,98,1445394768
10715,7,Jits_ISO_8,0,1,48,44,1446096832
10715,7,Jits_ISO_8,1,5,56,103,1446135148
10715,7,Jits_ISO_8,2,5,80,127,1446175088
10715,7,Jits_ISO_8,3,5,63,98,1446204772
10715,7,Jits_ISO_8,0,5,56,103,1446905124
10715,7,Jits_ISO_8,1,5,63,98,1446934876
10715,7,Jits_ISO_8,2,5,80,127,1446974688
10715,7,Jits_ISO_8,3,1,48,41,1446975656
10715,7,Jits_ISO_8,0,5,80,127,1447654724
10715,7,Jits_ISO_8,1,5,63,98,1447705004
10715,7,Jits_ISO_8,2,5,56,103,1447725784
10715,7,Jits_ISO_8,3,1,48,42,1447733184
10715,7,Jits_ISO_8,0,5,56,103,1448485160
10715,7,Jits_ISO_8,1,1,48,43,1448520944
10715,7,Jits_ISO_8,2,5,80,127,1448554840
10715,7,Jits_ISO_8,3,5,63,98,1448615228
10715,7,Jits_ISO_8,0,5,80,127,1449284960
10715,7,Jits_ISO_8,1,1,48,40,1449305012
10715,7,Jits_ISO_8,2,5,63,98,1449375016
10715,7,Jits_ISO_8,3,5,56,103,1449394800
10715,7,Jits_ISO_8,0,5,63,98,1450105140
10715,7,Jits_ISO_8,1,5,56,103,1450124628
10715,7,Jits_ISO_8,2,5,80,127,1450164564
10715,7,Jits_ISO_8,3,1,48,32,1450169852
10715,7,Jits_ISO_8,0,5,80,127,1450864980
10715,7,Jits_ISO_8,1,5,63,98,1450884616
10715,7,Jits_ISO_8,2,1,48,38,1450921072
10715,7,Jits_ISO_8,3,5,56,103,1450965228
10715,7,Jits_ISO_8,0,5,63,98,1451654732
10715,7,Jits_ISO_8,1,1,48,42,1451726780
10715,7,Jits_ISO_8,2,5,56,103,1451765012
10715,7,Jits_ISO_8,3,5,80,127,1451768160
10715,7,Jits_ISO_8,0,5,63,98,1452474664
10715,7,Jits_ISO_8,1,5,56,103,1452485004
10715,7,Jits_ISO_8,2,1,48,41,1452487116
10715,7,Jits_ISO_8,3,5,80,127,1452489408
10715,7,Jits_ISO_8,4,1,48,15,1452583104
10715,7,Jits_ISO_8,0,5,56,103,1453254996
10715,7,Jits_ISO_8,1,1,48,17,1453373624
10715,7,Jits_ISO_8,2,5,80,127,1453375120
10715,7,Jits_ISO_8,3,5,63,98,1453414832
10715,7,Jits_ISO_8,4,1,48,20,1453470372
10715,7,Jits_ISO_8,0,5,56,103,1454075100
10715,7,Jits_ISO_8,1,5,80,127,1454155076
10715,7,Jits_ISO_8,2,5,63,98,1454174564
10715,7,Jits_ISO_8,3,1,48,46,1454179552
10715,7,Jits_ISO_8,0,5,56,103,1454874976
10715,7,Jits_ISO_8,1,1,48,48,1454953876
10715,7,Jits_ISO_8,2,5,63,98,1454984612
10715,7,Jits_ISO_8,3,5,80,127,1454988048
10715,7,Jits_ISO_8,0,5,56,103,1455704688
10715,7,Jits_ISO_8,1,1,48,39,1455734436
10715,7,Jits_ISO_8,2,5,80,127,1455736008
10715,7,Jits_ISO_8,3,5,63,98,1455754668
10715,7,Jits_ISO_8,0,5,63,98,1456484780
10715,7,Jits_ISO_8,1,5,56,103,1456494980
10715,7,Jits_ISO_8,2,5,80,127,1456505176
10715,7,Jits_ISO_8,3,1,48,46,1456525604
10715,7,Jits_ISO_8,0,1,48,35,1457271928
10715,7,Jits_ISO_8,1,5,80,127,1457275184
10715,7,Jits_ISO_8,2,5,56,103,1457325388
10715,7,Jits_ISO_8,3,5,63,98,1457365624
10715,7,Jits_ISO_8,0,1,48,56,1458091716
10715,7,Jits_ISO_8,1,5,80,127,1458094676
10715,7,Jits_ISO_8,2,5,63,98,1458114912
10715,7,Jits_ISO_8,3,1,48,28,1458144092
10715,7,Jits_ISO_8,4,5,56,103,1458165092
10715,7,Jits_ISO_8,0,5,80,127,1458904728
10715,7,Jits_ISO_8,1,1,48,60,1458921480
10715,7,Jits_ISO_8,2,5,56,103,1458935220
10715,7,Jits_ISO_8,3,5,63,98,1459004704
10715,7,Jits_ISO_8,0,1,48,39,1459741128
10715,7,Jits_ISO_8,1,5,56,103,1459755568
10715,7,Jits_ISO_8,2,5,80,127,1459764496
10715,7,Jits_ISO_8,3,5,63,98,1459804436
10715,7,Jits_ISO_8,0,5,56,103,1460464980
10715,7,Jits_ISO_8,1,5,63,98,1460484692
10715,7,Jits_ISO_8,2,1,48,44,1460552408
10715,7,Jits_ISO_8,3,5,80,127,1460554992
10715,7,Jits_ISO_8,0,5,63,98,1461285304
10715,7,Jits_ISO_8,1,1,48,51,1461300508
10715,7,Jits_ISO_8,2,5,80,127,1461344596
10715,7,Jits_ISO_8,3,5,56,103,1461365052
10715,7,Jits_ISO_8,0,5,80,127,1462074700
10715,7,Jits_ISO_8,1,5,56,103,1462104604
10715,7,Jits_ISO_8,2,1,48,50,1462111464
10715,7,Jits_ISO_8,3,5,63,98,1462135244
10715,7,Jits_ISO_8,0,5,56,103,1462874420
10715,7,Jits_ISO_8,1,1,48,49,1462898664
10715,7,Jits_ISO_8,2,5,63,98,1462934884
10715,7,Jits_ISO_8,3,5,80,127,1462995552
10715,7,Jits_ISO_8,0,5,80,127,1463694824
10715,7,Jits_ISO_8,1,1,48,46,1463702824
10715,7,Jits_ISO_8,2,5,56,103,1463715052
10715,7,Jits_ISO_8,3,5,63,98,1463784732
10715,7,Jits_ISO_8,0,5,80,127,1464494472
10715,7,Jits_ISO_8,1,5,63,98,1464514784
10715,7,Jits_ISO_8,2,1,48,43,1464544156
10715,7,Jits_ISO_8,3,5,56,103,1464545724
10715,7,Jits_ISO_8,0,5,80,127,1465284904
10715,7,Jits_ISO_8,1,5,63,98,1465304688
10715,7,Jits_ISO_8,2,1,48,40,1465327064
10715,7,Jits_ISO_8,3,5,56,103,1465364924
10715,7,Jits_ISO_8,0,5,80,127,1466084848
10715,7,Jits_ISO_8,1,1,48,52,1466104828
10715,7,Jits_ISO_8,2,5,56,103,1466185120
10715,7,Jits_ISO_8,3,5,63,98,1466214708
10715,7,Jits_ISO_8,0,5,63,98,1466875432
10715,7,Jits_ISO_8,1,5,80,127,1466925588
10715,7,Jits_ISO_8,2,5,56,103,1466944776
10715,7,Jits_ISO_8,3,1,48,51,1466948416
10715,7,Jits_ISO_8,0,5,80,127,1467714956
10715,7,Jits_ISO_8,1,5,56,103,1467744556
10715,7,Jits_ISO_8,2,5,63,98,1467747548
10715,7,Jits_ISO_8,3,1,48,52,1467764836
10715,7,Jits_ISO_8,0,1,48,50,1468526472
10715,7,Jits_ISO_8,1,5,63,98,1468545384
10715,7,Jits_ISO_8,2,5,56,103,1468585472
10715,7,Jits_ISO_8,3,5,80,127,1468604808
10715,7,Jits_ISO_8,0,5,80,127,1469284712
10715,7,Jits_ISO_8,1,5,63,98,1469364588
10715,7,Jits_ISO_8,2,1,48,40,1469378872
10715,7,Jits_ISO_8,3,5,56,103,1469404520
10715,7,Jits_ISO_8,0,5,63,98,1470104896
10715,7,Jits_ISO_8,1,5,80,127,1470184844
10715,7,Jits_ISO_8,2,1,48,37,1470192768
10715,7,Jits_ISO_8,3,5,56,103,1470205668
10715,7,Jits_ISO_8,0,5,56,103,1470944544
10715,7,Jits_ISO_8,1,5,63,98,1470954964
10715,7,Jits_ISO_8,2,5,80,127,1470994752
10715,7,Jits_ISO_8,3,1,48,47,1470998920
10715,7,Jits_ISO_8,0,5,56,103,1471664624
10715,7,Jits_ISO_8,1,5,80,127,1471667616
10715,7,Jits_ISO_8,2,1,48,44,1471794608
10715,7,Jits_ISO_8,3,5,63,98,1471804672
10715,7,Jits_ISO_8,0,5,56,103,1472454972
10715,7,Jits_ISO_8,1,5,63,98,1472545260
10715,7,Jits_ISO_8,2,1,48,42,1472566160
10715,7,Jits_ISO_8,3,5,80,127,1472614884
10715,7,Jits_ISO_8,0,1,48,43,1473327516
10715,7,Jits_ISO_8,1,5,63,98,1473334588
10715,7,Jits_ISO_8,2,5,80,127,1473337952
10715,7,Jits_ISO_8,3,5,56,103,1473395272
10715,7,Jits_ISO_8,0,1,48,51,1474106472
10715,7,Jits_ISO_8,1,5,80,127,1474175420
10715,7,Jits_ISO_8,2,5,56,103,1474194760
10715,7,Jits_ISO_8,3,5,63,98,1474205536
10715,7,Jits_ISO_8,0,5,56,103,1474884940
10715,7,Jits_ISO_8,1,5,63,98,1474895508
10715,7,Jits_ISO_8,2,5,80,127,1474964740
10715,7,Jits_ISO_8,3,1,48,39,1474975284
10715,7,Jits_ISO_8,0,5,80,127,1475684736
10715,7,Jits_ISO_8,1,5,56,103,1475734792
10715,7,Jits_ISO_8,2,1,48,35,1475741648
10715,7,Jits_ISO_8,3,5,63,98,1475784984
10715,7,Jits_ISO_8,0,1,48,51,1476540388
10715,7,Jits_ISO_8,1,5,56,103,1476565368
10715,7,Jits_ISO_8,2,5,63,98,1476574520
10715,7,Jits_ISO_8,3,5,80,127,1476614456
10715,7,Jits_ISO_8,0,5,56,103,1477304556
10715,7,Jits_ISO_8,1,5,63,98,1477344720
10715,7,Jits_ISO_8,2,1,48,55,1477369412
10715,7,Jits_ISO_8,3,5,80,127,1477394764
10715,7,Jits_ISO_8,0,5,80,127,1478064496
10715,7,Jits_ISO_8,1,5,56,103,1478114628
10715,7,Jits_ISO_8,2,5,63,98,1478135308
10715,7,Jits_ISO_8,3,1,48,54,1478177236
10715,7,Jits_ISO_8,0,5,80,127,1478874480
10715,7,Jits_ISO_8,1,1,48,50,1478923756
10715,7,Jits_ISO_8,2,5,63,98,1478935012
10715,7,Jits_ISO_8,3,5,56,103,1479016164
10715,7,Jits_ISO_8,0,5,80,127,1479654720
10715,7,Jits_ISO_8,1,5,56,103,1479694588
10715,7,Jits_ISO_8,2,5,63,98,1479715416
10715,7,Jits_ISO_8,3,1,48,45,1479718488
10715,7,Jits_ISO_8,4,1,48,25,1479958184
10715,7,Jits_ISO_8,0,1,48,45,1480462500
10715,7,Jits_ISO_8,1,5,56,103,1480504652
10715,7,Jits_ISO_8,2,5,80,127,1480514848
10715,7,Jits_ISO_8,3,5,63,98,1480554860
10715,7,Jits_ISO_8,0,1,48,61,1481303884
10715,7,Jits_ISO_8,1,5,56,103,1481375084
10715,7,Jits_ISO_8,2,5,63,98,1481415008
10715,7,Jits_ISO_8,3,5,80,127,1481418372
10715,7,Jits_ISO_8,0,5,63,98,1482065260
10715,7,Jits_ISO_8,1,5,80,127,1482105424
10715,7,Jits_ISO_8,2,5,56,103,1482174808
10715,7,Jits_ISO_8,3,1,48,51,1482183176
10715,7,Jits_ISO_8,0,5,63,98,1482854700
10715,7,Jits_ISO_8,1,5,56,103,1482934652
10715,7,Jits_ISO_8,2,1,48,51,1482958816
10715,7,Jits_ISO_8,3,5,80,127,1482995180
10715,7,Jits_ISO_8,0,5,80,127,1483664748
10715,7,Jits_ISO_8,1,5,63,98,1483714804
10715,7,Jits_ISO_8,2,5,56,103,1483744480
10715,7,Jits_ISO_8,3,1,48,33,1483745444
10715,7,Jits_ISO_8,0,5,56,103,1484455248
10715,7,Jits_ISO_8,1,5,63,98,1484504408
10715,7,Jits_ISO_8,2,5,80,127,1484514680
10715,7,Jits_ISO_8,3,1,48,37,1484534360
10715,7,Jits_ISO_8,0,5,56,103,1485265232
10715,7,Jits_ISO_8,1,1,48,38,1485287380
10715,7,Jits_ISO_8,2,5,63,98,1485374940
10715,7,Jits_ISO_8,3,5,80,127,1485395240
10715,7,Jits_ISO_8,0,5,63,98,1486065108
10715,7,Jits_ISO_8,1,5,80,127,1486115312
10715,7,Jits_ISO_8,2,1,48,42,1486121124
10715,7,Jits_ISO_8,3,5,56,103,1486205288
10715,7,Jits_ISO_8,0,5,63,98,1486854452
10715,7,Jits_ISO_8,1,5,80,127,1486885248
10715,7,Jits_ISO_8,2,1,48,41,1486930996
10715,7,Jits_ISO_8,3,5,56,103,1486975300
10715,7,Jits_ISO_8,0,5,63,98,1487655352
10715,7,Jits_ISO_8,1,5,56,103,1487664428
10715,7,Jits_ISO_8,2,1,48,31,1487733256
10715,7,Jits_ISO_8,3,5,80,127,1487764744
10715,7,Jits_ISO_8,0,1,48,43,1488497504
10715,7,Jits_ISO_8,1,5,63,98,1488555304
10715,7,Jits_ISO_8,2,5,80,127,1488585204
10715,7,Jits_ISO_8,3,5,56,103,1488614640
10715,7,Jits_ISO_8,0,1,48,50,1489359116
10715,7,Jits_ISO_8,1,5,80,127,1489374504
10715,7,Jits_ISO_8,2,5,63,98,1489384700
10715,7,Jits_ISO_8,3,5,56,103,1489414448
10715,7,Jits_ISO_8,0,5,80,127,1490075024
10715,7,Jits_ISO_8,1,5,63,98,1490094440
10715,7,Jits_ISO_8,2,5,56,103,1490144568
10715,7,Jits_ISO_8,3,1,48,44,1490189712
10715,7,Jits_ISO_8,0,1,48,44,1490900184
10715,7,Jits_ISO_8,1,5,63,98,1490904560
10715,7,Jits_ISO_8,2,5,80,127,1490964952
10715,7,Jits_ISO_8,3,5,56,103,1490985288
10715,7,Jits_ISO_8,0,5,63,98,1491665244
10715,7,Jits_ISO_8,1,5,56,103,1491714476
10715,7,Jits_ISO_8,2,5,80,127,1491724744
10715,7,Jits_ISO_8,3,1,48,34,1491763408
10715,7,Jits_ISO_8,0,5,56,103,1492494692
10715,7,Jits_ISO_8,1,1,48,44,1492504212
10715,7,Jits_ISO_8,2,5,80,127,1492505856
10715,7,Jits_ISO_8,3,5,63,98,1492605436
10715,7,Jits_ISO_8,0,5,80,127,1493254480
10715,7,Jits_ISO_8,1,5,63,98,1493264676
10715,7,Jits_ISO_8,2,1,48,51,1493364472
10715,7,Jits_ISO_8,3,5,56,103,1493415288
10715,7,Jits_ISO_8,0,5,63,98,1494064492
10715,7,Jits_ISO_8,1,5,80,127,1494104360
10715,7,Jits_ISO_8,2,5,56,103,1494185348
10715,7,Jits_ISO_8,3,1,48,50,1494216560
10715,7,Jits_ISO_8,0,5,56,103,1494855180
10715,7,Jits_ISO_8,1,5,80,127,1494955356
10715,7,Jits_ISO_8,2,5,63,98,1494974844
10715,7,Jits_ISO_8,3,1,48,41,1495026736
10715,7,Jits_ISO_8,0,5,80,127,1495715144
10715,7,Jits_ISO_8,1,5,56,103,1495725564
10715,7,Jits_ISO_8,2,1,48,39,1495777384
10715,7,Jits_ISO_8,3,5,63,98,1495814496
10715,7,Jits_ISO_8,0,5,56,103,1496515020
10715,7,Jits_ISO_8,1,5,63,98,1496535556
10715,7,Jits_ISO_8,2,1,48,25,1496610144
10715,7,Jits_ISO_8,3,5,80,127,1496615292
10715,7,Jits_ISO_8,0,5,63,98,1497264472
10715,7,Jits_ISO_8,1,5,56,103,1497354456
10715,7,Jits_ISO_8,2,5,80,127,1497357600
10715,7,Jits_ISO_8,3,1,48,37,1497364472
10715,7,Jits_ISO_8,0,5,56,103,1498095040
10715,7,Jits_ISO_8,1,1,48,45,1498145364
10715,7,Jits_ISO_8,2,5,80,127,1498155304
10715,7,Jits_ISO_8,3,5,63,98,1498164528
10715,7,Jits_ISO_8,0,1,48,37,1498933872
10715,7,Jits_ISO_8,1,5,80,127,1498944832
10715,7,Jits_ISO_8,2,5,56,103,1498955248
10715,7,Jits_ISO_8,3,5,63,98,1498958168
10715,7,Jits_ISO_8,0,5,56,103,1499704608
10715,7,Jits_ISO_8,1,5,80,127,1499714880
10715,7,Jits_ISO_8,2,1,48,48,1499726836
10715,7,Jits_ISO_8,3,5,63,98,1499735404
10715,7,Jits_ISO_8,0,5,63,98,1500474880
10715,7,Jits_ISO_8,1,1,48,50,1500517112
10715,7,Jits_ISO_8,2,5,80,127,1500535268
10715,7,Jits_ISO_8,3,5,56,103,1500585320
10715,7,Jits_ISO_8,0,1,48,42,1501354904
10715,7,Jits_ISO_8,1,5,63,98,1501356324
10715,7,Jits_ISO_8,2,5,56,103,1501364500
10715,7,Jits_ISO_8,3,5,80,127,1501414776
10715,7,Jits_ISO_8,0,5,63,98,1502054752
10715,7,Jits_ISO_8,1,5,80,127,1502075284
10715,7,Jits_ISO_8,2,5,56,103,1502084432
10715,7,Jits_ISO_8,3,1,48,46,1502138496
10715,7,Jits_ISO_8,0,5,63,98,1502854368
10715,7,Jits_ISO_8,1,5,80,127,1502857888
10715,7,Jits_ISO_8,2,5,56,103,1502894464
10715,7,Jits_ISO_8,3,1,48,45,1502905148
10715,7,Jits_ISO_8,0,1,48,37,1503633132
10715,7,Jits_ISO_8,1,5,63,98,1503724936
10715,7,Jits_ISO_8,2,5,80,127,1503754600
10715,7,Jits_ISO_8,3,5,56,103,1503765020
10715,7,Jits_ISO_8,0,5,56,103,1504474532
10715,7,Jits_ISO_8,1,5,80,127,1504505260
10715,7,Jits_ISO_8,2,5,63,98,1504535084
10715,7,Jits_ISO_8,3,1,48,42,1504554344
10715,7,Jits_ISO_8,0,1,48,43,1505350512
10715,7,Jits_ISO_8,1,5,63,98,1505374448
10715,7,Jits_ISO_8,2,5,56,103,1505414460
10715,7,Jits_ISO_8,3,5,80,127,1505417456
10715,7,Jits_ISO_8,0,5,80,127,1506075160
10715,7,Jits_ISO_8,1,5,56,103,1506155060
10715,7,Jits_ISO_8,2,1,48,44,1506191136
10715,7,Jits_ISO_8,3,5,63,98,1506205180
10715,7,Jits_ISO_8,0,5,80,127,1506855208
10715,7,Jits_ISO_8,1,5,56,103,1506874920
10715,7,Jits_ISO_8,2,5,63,98,1506964976
10715,7,Jits_ISO_8,3,1,48,44,1507008704
10715,7,Jits_ISO_8,0,5,80,127,1507695088
10715,7,Jits_ISO_8,1,5,63,98,1507734956
10715,7,Jits_ISO_8,2,1,48,40,1507751700
10715,7,Jits_ISO_8,3,5,56,103,1507774960
10715,7,Jits_ISO_8,0,5,63,98,1508464992
10715,7,Jits_ISO_8,1,5,80,127,1508525388
10715,7,Jits_ISO_8,2,1,48,38,1508552248
10715,7,Jits_ISO_8,3,5,56,103,1508554984
10715,7,Jits_ISO_8,0,5,56,103,1509265000
10715,7,Jits_ISO_8,1,5,80,127,1509294528
10715,7,Jits_ISO_8,2,1,48,39,1509321016
10715,7,Jits_ISO_8,3,5,63,98,1509384504
10715,7,Jits_ISO_8,0,5,56,103,1510074960
10715,7,Jits_ISO_8,1,1,48,24,1510120856
10715,7,Jits_ISO_8,2,5,80,127,1510185196
10715,7,Jits_ISO_8,3,5,63,98,1510215080
10715,7,Jits_ISO_8,0,5,56,103,1510924740
10715,7,Jits_ISO_8,1,1,48,43,1510950508
10715,7,Jits_ISO_8,2,5,63,98,1510985004
10715,7,Jits_ISO_8,3,5,80,127,1511015124
10715,7,Jits_ISO_8,0,5,56,103,1511694652
10715,7,Jits_ISO_8,1,5,63,98,1511765556
10715,7,Jits_ISO_8,2,1,48,28,1511777668
10715,7,Jits_ISO_8,3,5,80,127,1511784812
10715,7,Jits_ISO_8,0,5,80,127,1512464852
10715,7,Jits_ISO_8,1,5,63,98,1512485192
10715,7,Jits_ISO_8,2,5,56,103,1512535396
10715,7,Jits_ISO_8,3,1,48,29,1512579492
10715,7,Jits_ISO_8,0,9999,9999,9999,1417732212
10715,7,Jits_ISO_8,1,9999,9999,9999,1418532960
10715,7,Jits_ISO_8,2,9999,9999,9999,1419332696
10715,7,Jits_ISO_8,3,9999,9999,9999,1420132416
10715,7,Jits_ISO_8,4,9999,9999,9999,1420932204
10715,7,Jits_ISO_8,5,9999,9999,9999,1421732956
10715,7,Jits_ISO_8,6,9999,9999,9999,1422532676
10715,7,Jits_ISO_8,7,9999,9999,9999,1423332472
10715,7,Jits_ISO_8,8,9999,9999,9999,1424132176
10715,7,Jits_ISO_8,9,9999,9999,9999,1424932916
10715,7,Jits_ISO_8,10,9999,9999,9999,1425732728
10715,7,Jits_ISO_8,11,9999,9999,9999,1426532440
10715,7,Jits_ISO_8,12,9999,9999,9999,1427332164
10715,7,Jits_ISO_8,13,9999,9999,9999,1428132932
10715,7,Jits_ISO_8,14,9999,9999,9999,1428932700
10715,7,Jits_ISO_8,15,9999,9999,9999,1429732416
10715,7,Jits_ISO_8,16,9999,9999,9999,1430532184
10715,7,Jits_ISO_8,17,9999,9999,9999,1431332960
10715,7,Jits_ISO_8,18,9999,9999,9999,1432132692
10715,7,Jits_ISO_8,19,9999,9999,9999,1432932408
10715,7,Jits_ISO_8,20,9999,9999,9999,1433732192
10715,7,Jits_ISO_8,21,9999,9999,9999,1434532948
10715,7,Jits_ISO_8,22,9999,9999,9999,1435332664
10715,7,Jits_ISO_8,23,9999,9999,9999,1436132460
10715,7,Jits_ISO_8,24,9999,9999,9999,1436932168
10715,7,Jits_ISO_8,25,9999,9999,9999,1437732920
10715,7,Jits_ISO_8,26,9999,9999,9999,1438532668
10715,7,Jits_ISO_8,27,9999,9999,9999,1439332452
10715,7,Jits_ISO_8,28,9999,9999,9999,1440132172
10715,7,Jits_ISO_8,29,9999,9999,9999,1440932952
10715,7,Jits_ISO_8,30,9999,9999,9999,1441732732
10715,7,Jits_ISO_8,31,9999,9999,9999,1442532440
10715,7,Jits_ISO_8,32,9999,9999,9999,1443332212
10715,7,Jits_ISO_8,33,9999,9999,9999,1444132976
10715,7,Jits_ISO_8,34,9999,9999,9999,1444932704
10715,7,Jits_ISO_8,35,9999,9999,9999,1445732420
10715,7,Jits_ISO_8,36,9999,9999,9999,1446532208
10715,7,Jits_ISO_8,37,9999,9999,9999,1447332964
10715,7,Jits_ISO_8,38,9999,9999,9999,1448132684
10715,7,Jits_ISO_8,39,9999,9999,9999,1448932460
10715,7,Jits_ISO_8,40,9999,9999,9999,1449732184
10715,7,Jits_ISO_8,41,9999,9999,9999,1450532956
10715,7,Jits_ISO_8,42,9999,9999,9999,1451332680
10715,7,Jits_ISO_8,43,9999,9999,9999,1452132468
10715,7,Jits_ISO_8,44,9999,9999,9999,1452932184
10715,7,Jits_ISO_8,45,9999,9999,9999,1453732944
10715,7,Jits_ISO_8,46,9999,9999,9999,1454532688
10715,7,Jits_ISO_8,47,9999,9999,9999,1455332408
10715,7,Jits_ISO_8,48,9999,9999,9999,1456132208
10715,7,Jits_ISO_8,49,9999,9999,9999,1456932972
10715,7,Jits_ISO_8,50,9999,9999,9999,1457732704
10715,7,Jits_ISO_8,51,9999,9999,9999,1458532468
10715,7,Jits_ISO_8,52,9999,9999,9999,1459332200
10715,7,Jits_ISO_8,53,9999,9999,9999,1460132976
10715,7,Jits_ISO_8,54,9999,9999,9999,1460932680
10715,7,Jits_ISO_8,55,9999,9999,9999,1461732404
10715,7,Jits_ISO_8,56,9999,9999,9999,1462532184
10715,7,Jits_ISO_8,57,9999,9999,9999,1463332956
10715,7,Jits_ISO_8,58,9999,9999,9999,1464132704
10715,7,Jits_ISO_8,59,9999,9999,9999,1464932428
10715,7,Jits_ISO_8,60,9999,9999,9999,1465732152
10715,7,Jits_ISO_8,61,9999,9999,9999,1466532928
10715,7,Jits_ISO_8,62,9999,9999,9999,1467332720
10715,7,Jits_ISO_8,63,9999,9999,9999,1468132424
10715,7,Jits_ISO_8,64,9999,9999,9999,1468932156
10715,7,Jits_ISO_8,65,9999,9999,9999,1469732912
10715,7,Jits_ISO_8,66,9999,9999,9999,1470532668
10715,7,Jits_ISO_8,67,9999,9999,9999,1471332456
10715,7,Jits_ISO_8,68,9999,9999,9999,1472132168
10715,7,Jits_ISO_8,69,9999,9999,9999,1472932940
10715,7,Jits_ISO_8,70,9999,9999,9999,1473732660
10715,7,Jits_ISO_8,71,9999,9999,9999,1474532452
10715,7,Jits_ISO_8,72,9999,9999,9999,1475332164
10715,7,Jits_ISO_8,73,9999,9999,9999,1476132932
10715,7,Jits_ISO_8,74,9999,9999,9999,1476932688
10715,7,Jits_ISO_8,75,9999,9999,9999,1477732472
10715,7,Jits_ISO_8,76,9999,9999,9999,1478532192
10715,7,Jits_ISO_8,77,9999,9999,9999,1479332964
10715,7,Jits_ISO_8,78,9999,9999,9999,1480132732
10715,7,Jits_ISO_8,79,9999,9999,9999,1480932472
10715,7,Jits_ISO_8,80,9999,9999,9999,1481732180
10715,7,Jits_ISO_8,81,9999,9999,9999,1482532936
10715,7,Jits_ISO_8,82,9999,9999,9999,1483332668
10715,7,Jits_ISO_8,83,9999,9999,9999,1484132448
10715,7,Jits_ISO_8,84,9999,9999,9999,1484932164
10715,7,Jits_ISO_8,85,9999,9999,9999,1485732936
10715,7,Jits_ISO_8,86,9999,9999,9999,1486532708
10715,7,Jits_ISO_8,87,9999,9999,9999,1487332464
10715,7,Jits_ISO_8,88,9999,9999,9999,1488132168
10715,7,Jits_ISO_8,89,9999,9999,9999,1488932960
10715,7,Jits_ISO_8,90,9999,9999,9999,1489732680
10715,7,Jits_ISO_8,91,9999,9999,9999,1490532460
10715,7,Jits_ISO_8,92,9999,9999,9999,1491332188
10715,7,Jits_ISO_8,93,9999,9999,9999,1492132940
10715,7,Jits_ISO_8,94,9999,9999,9999,1492932724
10715,7,Jits_ISO_8,95,9999,9999,9999,1493732444
10715,7,Jits_ISO_8,96,9999,9999,9999,1494532216
10715,7,Jits_ISO_8,97,9999,9999,9999,1495332920
10715,7,Jits_ISO_8,98,9999,9999,9999,1496132724
10715,7,Jits_ISO_8,99,9999,9999,9999,1496932452
10715,7,Jits_ISO_8,100,9999,9999,9999,1497732164
10715,7,Jits_ISO_8,101,9999,9999,9999,1498532924
10715,7,Jits_ISO_8,102,9999,9999,9999,1499332712
10715,7,Jits_ISO_8,103,9999,9999,9999,1500132420
10715,7,Jits_ISO_8,104,9999,9999,9999,1500932220
10715,7,Jits_ISO_8,105,9999,9999,9999,1501732932
10715,7,Jits_ISO_8,106,9999,9999,9999,1502532708
10715,7,Jits_ISO_8,107,9999,9999,9999,1503332472
10715,7,Jits_ISO_8,108,9999,9999,9999,1504132188
10715,7,Jits_ISO_8,109,9999,9999,9999,1504932940
10715,7,Jits_ISO_8,110,9999,9999,9999,1505732668
10715,7,Jits_ISO_8,111,9999,9999,9999,1506532452
10715,7,Jits_ISO_8,112,9999,9999,9999,1507332172
10715,7,Jits_ISO_8,113,9999,9999,9999,1508132972
10715,7,Jits_ISO_8,114,9999,9999,9999,1508932692
10715,7,Jits_ISO_8,115,9999,9999,9999,1509732452
10715,7,Jits_ISO_8,116,9999,9999,9999,1510532180
10715,7,Jits_ISO_8,117,9999,9999,9999,1511332960
10715,7,Jits_ISO_8,118,9999,9999,9999,1512132684
10715,7,Jits_ISO_8,119,9999,9999,9999,1512932404
10716,17,Jits_Phase_5,0,5,56,103,1521719804
10716,17,Jits_Phase_5,1,5,63,98,1521722980
10716,17,Jits_Phase_5,2,5,80,127,1521725948
10716,17,Jits_Phase_5,0,5,56,103,1522220412
10716,17,Jits_Phase_5,1,5,63,98,1522223588
10716,17,Jits_Phase_5,2,5,80,127,1522226704
10716,17,Jits_Phase_5,0,5,56,103,1522720112
10716,17,Jits_Phase_5,1,5,80,127,1522730332
10716,17,Jits_Phase_5,2,5,63,98,1522749892
10716,17,Jits_Phase_5,0,5,63,98,1523169792
10716,17,Jits_Phase_5,1,5,80,127,1523200292
10716,17,Jits_Phase_5,2,5,56,103,1523209884
10716,17,Jits_Phase_5,0,5,80,127,1523729960
10716,17,Jits_Phase_5,1,5,56,103,1523740008
10716,17,Jits_Phase_5,2,5,63,98,1523769708
10716,17,Jits_Phase_5,0,5,63,98,1524229764
10716,17,Jits_Phase_5,1,5,56,103,1524260288
10716,17,Jits_Phase_5,2,5,80,127,1524269364
10716,17,Jits_Phase_5,0,5,56,103,1524680032
10716,17,Jits_Phase_5,1,5,63,98,1524730084
10716,17,Jits_Phase_5,2,5,80,127,1524749792
10716,17,Jits_Phase_5,0,5,80,127,1525179756
10716,17,Jits_Phase_5,1,5,63,98,1525229884
10716,17,Jits_Phase_5,2,5,56,103,1525269820
10716,17,Jits_Phase_5,0,5,56,103,1525679560
10716,17,Jits_Phase_5,1,5,63,98,1525710132
10716,17,Jits_Phase_5,2,1,48,53,1525736020
10716,17,Jits_Phase_5,3,5,80,127,1525779876
10716,17,Jits_Phase_5,0,5,56,103,1526180072
10716,17,Jits_Phase_5,1,1,48,54,1526217888
10716,17,Jits_Phase_5,2,5,80,127,1526239780
10716,17,Jits_Phase_5,3,5,63,98,1526270204
10716,17,Jits_Phase_5,4,1,48,31,1526277288
10716,17,Jits_Phase_5,0,5,56,103,1526690128
10716,17,Jits_Phase_5,1,5,63,98,1526700696
10716,17,Jits_Phase_5,2,5,80,127,1526740480
10716,17,Jits_Phase_5,3,1,48,59,1526747804
10716,17,Jits_Phase_5,0,5,63,98,1527179776
10716,17,Jits_Phase_5,1,5,80,127,1527259644
10716,17,Jits_Phase_5,2,5,56,103,1527269764
10716,17,Jits_Phase_5,3,1,48,50,1527270728
10716,17,Jits_Phase_5,0,5,63,98,1527729796
10716,17,Jits_Phase_5,1,1,48,51,1527733664
10716,17,Jits_Phase_5,2,5,56,103,1527769428
10716,17,Jits_Phase_5,3,5,80,127,1527772568
10716,17,Jits_Phase_5,0,5,56,103,1528190356
10716,17,Jits_Phase_5,1,5,63,98,1528199652
10716,17,Jits_Phase_5,2,1,48,58,1528230348
10716,17,Jits_Phase_5,3,5,80,127,1528239660
10716,17,Jits_Phase_5,0,5,56,103,1528679932
10716,17,Jits_Phase_5,1,5,63,98,1528682996
10716,17,Jits_Phase_5,2,5,80,127,1528700240
10716,17,Jits_Phase_5,3,1,48,56,1528712200
10716,17,Jits_Phase_5,0,1,48,52,1529165332
10716,17,Jits_Phase_5,1,5,80,127,1529189716
10716,17,Jits_Phase_5,2,5,56,103,1529200060
10716,17,Jits_Phase_5,3,5,63,98,1529269720
10716,17,Jits_Phase_5,0,5,63,98,1529680108
10716,17,Jits_Phase_5,1,5,56,103,1529699740
10716,17,Jits_Phase_5,2,1,48,57,1529709232
10716,17,Jits_Phase_5,3,5,80,127,1529779748
10716,17,Jits_Phase_5,0,5,56,103,1530190116
10716,17,Jits_Phase_5,1,5,80,127,1530230056
10716,17,Jits_Phase_5,2,5,63,98,1530240248
10716,17,Jits_Phase_5,3,1,48,52,1530249140
10716,17,Jits_Phase_5,0,5,80,127,1530679840
10716,17,Jits_Phase_5,1,1,48,54,1530702732
10716,17,Jits_Phase_5,2,5,63,98,1530710404
10716,17,Jits_Phase_5,3,5,56,103,1530750268
10716,17,Jits_Phase_5,0,5,56,103,1531199832
10716,17,Jits_Phase_5,1,1,48,57,1531226840
10716,17,Jits_Phase_5,2,5,63,98,1531229872
10716,17,Jits_Phase_5,3,5,80,127,1531279848
10716,17,Jits_Phase_5,0,5,80,127,1531709788
10716,17,Jits_Phase_5,1,5,56,103,1531749800
10716,17,Jits_Phase_5,2,1,48,52,1531753440
10716,17,Jits_Phase_5,3,5,63,98,1531759916
10716,17,Jits_Phase_5,0,5,80,127,1532190124
10716,17,Jits_Phase_5,1,5,63,98,1532230088
10716,17,Jits_Phase_5,2,1,48,47,1532250516
10716,17,Jits_Phase_5,3,5,56,103,1532290392
10716,17,Jits_Phase_5,0,5,56,103,1532689664
10716,17,Jits_Phase_5,1,5,80,127,1532700008
10716,17,Jits_Phase_5,2,5,63,98,1532779752
10716,17,Jits_Phase_5,3,1,48,50,1532780716
10716,17,Jits_Phase_5,0,5,80,127,1533189504
10716,17,Jits_Phase_5,1,1,48,51,1533249464
10716,17,Jits_Phase_5,2,5,63,98,1533250956
10716,17,Jits_Phase_5,3,5,56,103,1533279732
10716,17,Jits_Phase_5,0,5,56,103,1533690316
10716,17,Jits_Phase_5,1,5,80,127,1533749760
10716,17,Jits_Phase_5,2,1,48,57,1533789548
10716,17,Jits_Phase_5,3,5,63,98,1533790956
10716,17,Jits_Phase_5,0,5,56,103,1534240056
10716,17,Jits_Phase_5,1,5,63,98,1534250276
10716,17,Jits_Phase_5,2,5,80,127,1534253864
10716,17,Jits_Phase_5,3,1,48,51,1534260292
10716,17,Jits_Phase_5,0,5,80,127,1534689616
10716,17,Jits_Phase_5,1,1,48,55,1534767312
10716,17,Jits_Phase_5,2,5,63,98,1534779692
10716,17,Jits_Phase_5,3,5,56,103,1534790108
10716,17,Jits_Phase_5,0,5,56,103,1535190340
10716,17,Jits_Phase_5,1,5,63,98,1535193508
10716,17,Jits_Phase_5,2,5,80,127,1535196708
10716,17,Jits_Phase_5,3,1,48,54,1535244704
10716,17,Jits_Phase_5,0,5,80,127,1535719764
10716,17,Jits_Phase_5,1,1,48,54,1535727072
10716,17,Jits_Phase_5,2,5,63,98,1535770032
10716,17,Jits_Phase_5,3,5,56,103,1535799804
10716,17,Jits_Phase_5,0,5,56,103,1536199904
10716,17,Jits_Phase_5,1,5,80,127,1536210248
10716,17,Jits_Phase_5,2,1,48,60,1536262584
10716,17,Jits_Phase_5,3,5,63,98,1536280064
10716,17,Jits_Phase_5,0,5,56,103,1536709852
10716,17,Jits_Phase_5,1,1,48,45,1536722560
10716,17,Jits_Phase_5,2,5,63,98,1536729704
10716,17,Jits_Phase_5,3,5,80,127,1536789868
10716,17,Jits_Phase_5,0,5,80,127,1537190212
10716,17,Jits_Phase_5,1,1,48,53,1537240532
10716,17,Jits_Phase_5,2,5,63,98,1537259960
10716,17,Jits_Phase_5,3,5,56,103,1537280344
10716,17,Jits_Phase_5,0,5,80,127,1537709532
10716,17,Jits_Phase_5,1,5,56,103,1537719800
10716,17,Jits_Phase_5,2,5,63,98,1537729924
10716,17,Jits_Phase_5,3,1,48,42,1537791252
10716,17,Jits_Phase_5,0,5,80,127,1538199780
10716,17,Jits_Phase_5,1,5,56,103,1538220536
10716,17,Jits_Phase_5,2,1,48,48,1538245596
10716,17,Jits_Phase_5,3,5,63,98,1538290056
10716,17,Jits_Phase_5,0,5,56,103,1538709956
10716,17,Jits_Phase_5,1,5,80,127,1538739852
10716,17,Jits_Phase_5,2,1,48,48,1538751664
10716,17,Jits_Phase_5,3,5,63,98,1538759932
10716,17,Jits_Phase_5,0,5,63,98,1539200576
10716,17,Jits_Phase_5,1,1,48,53,1539252324
10716,17,Jits_Phase_5,2,5,56,103,1539259692
10716,17,Jits_Phase_5,3,5,80,127,1539289660
10716,17,Jits_Phase_5,0,5,63,98,1539689840
10716,17,Jits_Phase_5,1,5,80,127,1539693128
10716,17,Jits_Phase_5,2,1,48,55,1539735132
10716,17,Jits_Phase_5,3,5,56,103,1539779960
10716,17,Jits_Phase_5,0,5,56,103,1540210032
10716,17,Jits_Phase_5,1,1,48,48,1540220720
10716,17,Jits_Phase_5,2,5,63,98,1540239700
10716,17,Jits_Phase_5,3,5,80,127,1540279636
10716,17,Jits_Phase_5,0,1,48,44,1540702192
10716,17,Jits_Phase_5,1,5,63,98,1540709864
10716,17,Jits_Phase_5,2,5,56,103,1540749876
10716,17,Jits_Phase_5,3,5,80,127,1540770112
10716,17,Jits_Phase_5,0,5,63,98,1541219736
10716,17,Jits_Phase_5,1,1,48,55,1541221072
10716,17,Jits_Phase_5,2,5,56,103,1541259664
10716,17,Jits_Phase_5,3,5,80,127,1541270008
10716,17,Jits_Phase_5,0,5,80,127,1541699932
10716,17,Jits_Phase_5,1,1,48,50,1541729724
10716,17,Jits_Phase_5,2,5,63,98,1541769680
10716,17,Jits_Phase_5,3,5,56,103,1541789988
10716,17,Jits_Phase_5,4,1,48,22,1541802528
10716,17,Jits_Phase_5,0,5,56,103,1542189688
10716,17,Jits_Phase_5,1,5,80,127,1542209996
10716,17,Jits_Phase_5,2,1,48,44,1542236032
10716,17,Jits_Phase_5,3,5,63,98,1542249852
10716,17,Jits_Phase_5,0,1,48,46,1542692184
10716,17,Jits_Phase_5,1,5,63,98,1542700672
10716,17,Jits_Phase_5,2,5,80,127,1542719936
10716,17,Jits_Phase_5,3,5,56,103,1542759724
10716,17,Jits_Phase_5,0,1,48,50,1543168832
10716,17,Jits_Phase_5,1,5,63,98,1543200096
10716,17,Jits_Phase_5,2,5,56,103,1543219612
10716,17,Jits_Phase_5,3,5,80,127,1543229952
10716,17,Jits_Phase_5,0,1,48,48,1543656656
10716,17,Jits_Phase_5,1,5,80,127,1543699772
10716,17,Jits_Phase_5,2,5,56,103,1543720252
10716,17,Jits_Phase_5,3,5,63,98,1543749912
10716,17,Jits_Phase_5,0,1,48,49,1544164124
10716,17,Jits_Phase_5,1,5,56,103,1544270248
10716,17,Jits_Phase_5,2,5,80,127,1544273392
10716,17,Jits_Phase_5,3,5,63,98,1544289588
10716,17,Jits_Phase_5,0,1,48,52,1544686720
10716,17,Jits_Phase_5,1,5,63,98,1544689976
10716,17,Jits_Phase_5,2,5,56,103,1544719724
10716,17,Jits_Phase_5,3,5,80,127,1544780136
10716,17,Jits_Phase_5,0,1,48,49,1545204588
10716,17,Jits_Phase_5,1,5,63,98,1545269608
10716,17,Jits_Phase_5,2,5,56,103,1545279728
10716,17,Jits_Phase_5,3,5,80,127,1545290072
10716,17,Jits_Phase_5,0,5,56,103,1545730384
10716,17,Jits_Phase_5,1,1,48,51,1545743544
10716,17,Jits_Phase_5,2,5,80,127,1545760052
10716,17,Jits_Phase_5,3,5,63,98,1545770644
10716,17,Jits_Phase_5,0,1,48,47,1546168540
10716,17,Jits_Phase_5,1,5,63,98,1546269988
10716,17,Jits_Phase_5,2,5,56,103,1546280580
10716,17,Jits_Phase_5,3,5,80,127,1546299620
10716,17,Jits_Phase_5,0,5,56,103,1546700012
10716,17,Jits_Phase_5,1,1,48,49,1546702528
10716,17,Jits_Phase_5,2,5,63,98,1546759644
10716,17,Jits_Phase_5,3,5,80,127,1546762860
10716,17,Jits_Phase_5,0,5,80,127,1547220588
10716,17,Jits_Phase_5,1,5,56,103,1547229516
10716,17,Jits_Phase_5,2,1,48,53,1547245288
10716,17,Jits_Phase_5,3,5,63,98,1547300332
10716,17,Jits_Phase_5,0,5,80,127,1547709796
10716,17,Jits_Phase_5,1,1,48,45,1547771348
10716,17,Jits_Phase_5,2,5,56,103,1547779540
10716,17,Jits_Phase_5,3,5,63,98,1547789664
10716,17,Jits_Phase_5,0,5,63,98,1548249640
10716,17,Jits_Phase_5,1,1,48,37,1548255828
10716,17,Jits_Phase_5,2,5,56,103,1548259680
10716,17,Jits_Phase_5,3,5,80,127,1548280140
10716,17,Jits_Phase_5,0,5,80,127,1548699948
10716,17,Jits_Phase_5,1,5,63,98,1548760412
10716,17,Jits_Phase_5,2,1,48,53,1548761376
10716,17,Jits_Phase_5,3,5,56,103,1548800488
10716,17,Jits_Phase_5,0,5,56,103,1549239644
10716,17,Jits_Phase_5,1,1,48,57,1549244856
10716,17,Jits_Phase_5,2,5,63,98,1549249760
10716,17,Jits_Phase_5,3,5,80,127,1549289768
10716,17,Jits_Phase_5,0,5,56,103,1549699628
10716,17,Jits_Phase_5,1,5,80,127,1549730128
10716,17,Jits_Phase_5,2,1,48,53,1549747788
10716,17,Jits_Phase_5,3,5,63,98,1549780616
10716,17,Jits_Phase_5,0,1,48,56,1550220564
10716,17,Jits_Phase_5,1,5,56,103,1550240068
10716,17,Jits_Phase_5,2,5,63,98,1550280076
10716,17,Jits_Phase_5,3,5,80,127,1550283664
10716,17,Jits_Phase_5,0,5,56,103,1550739888
10716,17,Jits_Phase_5,1,1,48,43,1550747344
10716,17,Jits_Phase_5,2,5,63,98,1550750080
10716,17,Jits_Phase_5,3,5,80,127,1550769640
10716,17,Jits_Phase_5,0,5,56,103,1551199648
10716,17,Jits_Phase_5,1,5,80,127,1551202644
10716,17,Jits_Phase_5,2,1,48,52,1551231016
10716,17,Jits_Phase_5,3,5,63,98,1551239504
10716,17,Jits_Phase_5,0,1,48,55,1551697188
10716,17,Jits_Phase_5,1,5,63,98,1551740376
10716,17,Jits_Phase_5,2,5,56,103,1551769904
10716,17,Jits_Phase_5,3,5,80,127,1551789388
10716,17,Jits_Phase_5,0,1,48,52,1552200472
10716,17,Jits_Phase_5,1,5,80,127,1552210388
10716,17,Jits_Phase_5,2,5,56,103,1552219536
10716,17,Jits_Phase_5,3,5,63,98,1552229880
10716,17,Jits_Phase_5,0,1,48,52,1552669256
10716,17,Jits_Phase_5,1,5,56,103,1552710060
10716,17,Jits_Phase_5,2,5,80,127,1552749924
10716,17,Jits_Phase_5,3,5,63,98,1552779580
10716,17,Jits_Phase_5,0,5,63,98,1553219928
10716,17,Jits_Phase_5,1,1,48,58,1553223724
10716,17,Jits_Phase_5,2,5,80,127,1553230416
10716,17,Jits_Phase_5,3,5,56,103,1553240388
10716,17,Jits_Phase_5,0,5,56,103,1553709560
10716,17,Jits_Phase_5,1,1,48,45,1553721144
10716,17,Jits_Phase_5,2,5,63,98,1553780132
10716,17,Jits_Phase_5,3,5,80,127,1553790548
10716,17,Jits_Phase_5,0,5,80,127,1554220560
10716,17,Jits_Phase_5,1,1,48,45,1554226144
10716,17,Jits_Phase_5,2,5,56,103,1554229556
10716,17,Jits_Phase_5,3,5,63,98,1554279904
10716,17,Jits_Phase_5,0,5,80,127,1554739504
10716,17,Jits_Phase_5,1,1,48,50,1554769524
10716,17,Jits_Phase_5,2,5,56,103,1554799888
10716,17,Jits_Phase_5,3,5,63,98,1554829712
10716,17,Jits_Phase_5,0,5,56,103,1555240464
10716,17,Jits_Phase_5,1,5,80,127,1555243604
10716,17,Jits_Phase_5,2,1,48,51,1555276688
10716,17,Jits_Phase_5,3,5,63,98,1555280320
10716,17,Jits_Phase_5,0,1,48,27,1555737376
10716,17,Jits_Phase_5,1,5,56,103,1555769584
10716,17,Jits_Phase_5,2,5,63,98,1555800600
10716,17,Jits_Phase_5,3,5,80,127,1555809604
10716,17,Jits_Phase_5,0,1,48,46,1556241936
10716,17,Jits_Phase_5,1,5,63,98,1556279600
10716,17,Jits_Phase_5,2,5,80,127,1556289796
10716,17,Jits_Phase_5,3,5,56,103,1556300140
10716,17,Jits_Phase_5,0,5,80,127,1556730408
10716,17,Jits_Phase_5,1,1,48,48,1556769568
10716,17,Jits_Phase_5,2,5,56,103,1556780328
10716,17,Jits_Phase_5,3,5,63,98,1556783396
10716,17,Jits_Phase_5,0,5,56,103,1557259608
10716,17,Jits_Phase_5,1,5,80,127,1557280064
10716,17,Jits_Phase_5,2,5,63,98,1557290560
10716,17,Jits_Phase_5,3,1,48,62,1557301848
10716,17,Jits_Phase_5,0,5,63,98,1557739932
10716,17,Jits_Phase_5,1,5,56,103,1557769608
10716,17,Jits_Phase_5,2,5,80,127,1557789992
10716,17,Jits_Phase_5,3,1,48,55,1557806096
10716,17,Jits_Phase_5,0,5,56,103,1558249948
10716,17,Jits_Phase_5,1,1,48,54,1558256736
10716,17,Jits_Phase_5,2,5,80,127,1558260064
10716,17,Jits_Phase_5,3,5,63,98,1558329692
10716,17,Jits_Phase_5,0,1,48,45,1558743008
10716,17,Jits_Phase_5,1,5,63,98,1558749632
10716,17,Jits_Phase_5,2,5,80,127,1558789348
10716,17,Jits_Phase_5,3,5,56,103,1558829604
10716,17,Jits_Phase_5,0,1,48,48,1559245904
10716,17,Jits_Phase_5,1,5,56,103,1559259572
10716,17,Jits_Phase_5,2,5,63,98,1559269692
10716,17,Jits_Phase_5,3,5,80,127,1559290372
10716,17,Jits_Phase_5,0,1,48,56,1559790688
10716,17,Jits_Phase_5,1,5,63,98,1559800448
10716,17,Jits_Phase_5,2,5,80,127,1559819564
10716,17,Jits_Phase_5,3,5,56,103,1559840244
10716,17,Jits_Phase_5,0,5,56,103,1560239504
10716,17,Jits_Phase_5,1,1,48,51,1560292064
10716,17,Jits_Phase_5,2,5,80,127,1560320264
10716,17,Jits_Phase_5,3,5,63,98,1560329708
10716,17,Jits_Phase_5,0,5,80,127,1560780100
10716,17,Jits_Phase_5,1,1,48,50,1560782996
10716,17,Jits_Phase_5,2,5,63,98,1560790512
10716,17,Jits_Phase_5,3,5,56,103,1560819964
10716,17,Jits_Phase_5,0,5,63,98,1561239936
10716,17,Jits_Phase_5,1,5,80,127,1561279800
10716,17,Jits_Phase_5,2,1,48,62,1561306288
10716,17,Jits_Phase_5,3,5,56,103,1561340400
10716,17,Jits_Phase_5,0,5,63,98,1561749724
10716,17,Jits_Phase_5,1,1,48,56,1561781912
10716,17,Jits_Phase_5,2,5,56,103,1561799992
10716,17,Jits_Phase_5,3,5,80,127,1561829740
10716,17,Jits_Phase_5,0,5,80,127,1562249552
10716,17,Jits_Phase_5,1,5,63,98,1562259820
10716,17,Jits_Phase_5,2,1,48,48,1562288272
10716,17,Jits_Phase_5,3,5,56,103,1562329564
10716,17,Jits_Phase_5,0,1,48,55,1562809924
10716,17,Jits_Phase_5,1,5,80,127,1562811336
10716,17,Jits_Phase_5,2,5,56,103,1562819888
10716,17,Jits_Phase_5,3,5,63,98,1562823252
10716,17,Jits_Phase_5,0,5,56,103,1563250036
10716,17,Jits_Phase_5,1,5,80,127,1563269524
10716,17,Jits_Phase_5,2,5,63,98,1563279644
10716,17,Jits_Phase_5,3,1,48,57,1563321644
10716,17,Jits_Phase_5,0,5,63,98,1563759916
10716,17,Jits_Phase_5,1,5,56,103,1563799784
10716,17,Jits_Phase_5,2,5,80,127,1563820388
10716,17,Jits_Phase_5,3,1,48,55,1563832500
10716,17,Jits_Phase_5,0,5,63,98,1564259748
10716,17,Jits_Phase_5,1,5,56,103,1564320060
10716,17,Jits_Phase_5,2,1,48,51,1564322748
10716,17,Jits_Phase_5,3,5,80,127,1564324464
10716,17,Jits_Phase_5,0,5,56,103,1564719412
10716,17,Jits_Phase_5,1,5,80,127,1564740020
10716,17,Jits_Phase_5,2,5,63,98,1564779956
10716,17,Jits_Phase_5,3,1,48,48,1564829372
10716,17,Jits_Phase_5,0,5,56,103,1565249964
10716,17,Jits_Phase_5,1,5,63,98,1565270348
10716,17,Jits_Phase_5,2,5,80,127,1565279648
10716,17,Jits_Phase_5,3,1,48,41,1565299852
10716,17,Jits_Phase_5,0,5,80,127,1565719888
10716,17,Jits_Phase_5,1,5,56,103,1565749736
10716,17,Jits_Phase_5,2,1,48,38,1565774132
10716,17,Jits_Phase_5,3,5,63,98,1565789592
10716,17,Jits_Phase_5,0,5,80,127,1566229916
10716,17,Jits_Phase_5,1,5,56,103,1566250472
10716,17,Jits_Phase_5,2,1,48,49,1566264004
10716,17,Jits_Phase_5,3,5,63,98,1566309656
10716,17,Jits_Phase_5,0,5,56,103,1566739720
10716,17,Jits_Phase_5,1,5,80,127,1566760276
10716,17,Jits_Phase_5,2,1,48,45,1566773204
10716,17,Jits_Phase_5,3,5,63,98,1566819608
10716,17,Jits_Phase_5,0,5,80,127,1567220300
10716,17,Jits_Phase_5,1,5,56,103,1567230420
10716,17,Jits_Phase_5,2,5,63,98,1567270384
10716,17,Jits_Phase_5,3,1,48,48,1567297544
10716,17,Jits_Phase_5,0,5,63,98,1567719684
10716,17,Jits_Phase_5,1,1,48,44,1567752916
10716,17,Jits_Phase_5,2,5,56,103,1567759608
10716,17,Jits_Phase_5,3,5,80,127,1567762828
10716,17,Jits_Phase_5,0,5,63,98,1568239872
10716,17,Jits_Phase_5,1,1,48,52,1568266360
10716,17,Jits_Phase_5,2,5,80,127,1568279952
10716,17,Jits_Phase_5,3,5,56,103,1568309724
10716,17,Jits_Phase_5,0,5,56,103,1568729584
10716,17,Jits_Phase_5,1,5,63,98,1568739780
10716,17,Jits_Phase_5,2,1,48,52,1568754432
10716,17,Jits_Phase_5,3,5,80,127,1568770344
10716,17,Jits_Phase_5,0,5,80,127,1569219908
10716,17,Jits_Phase_5,1,1,48,51,1569252692
10716,17,Jits_Phase_5,2,5,63,98,1569289504
10716,17,Jits_Phase_5,3,5,56,103,1569299852
10716,17,Jits_Phase_5,0,5,63,98,1569719672
10716,17,Jits_Phase_5,1,1,48,45,1569748492
10716,17,Jits_Phase_5,2,5,56,103,1569790316
10716,17,Jits_Phase_5,3,5,80,127,1569799464
10716,17,Jits_Phase_5,0,5,63,98,1570199796
10716,17,Jits_Phase_5,1,5,56,103,1570220328
10716,17,Jits_Phase_5,2,5,80,127,1570260412
10716,17,Jits_Phase_5,3,1,48,51,1570317084
10716,17,Jits_Phase_5,0,5,56,103,1570680364
10716,17,Jits_Phase_5,1,5,63,98,1570690560
10716,17,Jits_Phase_5,2,1,48,39,1570751216
10716,17,Jits_Phase_5,3,5,80,127,1570770268
10716,17,Jits_Phase_5,0,5,63,98,1571169792
10716,17,Jits_Phase_5,1,5,56,103,1571200364
10716,17,Jits_Phase_5,2,5,80,127,1571240372
10716,17,Jits_Phase_5,3,1,48,45,1571271212
10716,17,Jits_Phase_5,0,5,56,103,1571670512
10716,17,Jits_Phase_5,1,5,63,98,1571710452
10716,17,Jits_Phase_5,2,1,48,45,1571719868
10716,17,Jits_Phase_5,3,5,80,127,1571750528
10716,17,Jits_Phase_5,0,5,80,127,1572180392
10716,17,Jits_Phase_5,1,1,48,47,1572229960
10716,17,Jits_Phase_5,2,5,56,103,1572260400
10716,17,Jits_Phase_5,3,5,63,98,1572269328
10716,17,Jits_Phase_5,0,5,56,103,1572719940
10716,17,Jits_Phase_5,1,5,63,98,1572723080
10716,17,Jits_Phase_5,2,5,80,127,1572730136
10716,17,Jits_Phase_5,3,1,48,51,1572742092
10716,17,Jits_Phase_5,0,5,56,103,1573240152
10716,17,Jits_Phase_5,1,1,48,51,1573250468
10716,17,Jits_Phase_5,2,5,63,98,1573259708
10716,17,Jits_Phase_5,3,5,80,127,1573269828
10716,17,Jits_Phase_5,0,5,63,98,1573699912
10716,17,Jits_Phase_5,1,5,80,127,1573710108
10716,17,Jits_Phase_5,2,5,56,103,1573729596
10716,17,Jits_Phase_5,3,1,48,50,1573771888
10716,17,Jits_Phase_5,0,5,63,98,1574199808
10716,17,Jits_Phase_5,1,1,48,47,1574251628
10716,17,Jits_Phase_5,2,5,56,103,1574279668
10716,17,Jits_Phase_5,3,5,80,127,1574282588
10716,17,Jits_Phase_5,0,5,63,98,1574700376
10716,17,Jits_Phase_5,1,1,48,47,1574716896
10716,17,Jits_Phase_5,2,5,56,103,1574720004
10716,17,Jits_Phase_5,3,5,80,127,1574749456
10716,17,Jits_Phase_5,0,5,56,103,1575200320
10716,17,Jits_Phase_5,1,1,48,51,1575203916
10716,17,Jits_Phase_5,2,5,63,98,1575219528
10716,17,Jits_Phase_5,3,5,80,127,1575229872
10716,17,Jits_Phase_5,0,1,48,58,1575693456
10716,17,Jits_Phase_5,1,5,56,103,1575729472
10716,17,Jits_Phase_5,2,5,63,98,1575760416
10716,17,Jits_Phase_5,3,5,80,127,1575763628
10716,17,Jits_Phase_5,0,5,56,103,1576180196
10716,17,Jits_Phase_5,1,1,48,54,1576213804
10716,17,Jits_Phase_5,2,5,63,98,1576220052
10716,17,Jits_Phase_5,3,5,80,127,1576280388
10716,17,Jits_Phase_5,0,1,48,51,1576675192
10716,17,Jits_Phase_5,1,5,56,103,1576700248
10716,17,Jits_Phase_5,2,5,63,98,1576709472
10716,17,Jits_Phase_5,3,5,80,127,1576769808
10716,17,Jits_Phase_5,0,1,48,59,1577177032
10716,17,Jits_Phase_5,1,5,56,103,1577200220
10716,17,Jits_Phase_5,2,5,80,127,1577219556
10716,17,Jits_Phase_5,3,5,63,98,1577250080
10716,17,Jits_Phase_5,0,5,80,127,1577699752
10716,17,Jits_Phase_5,1,5,56,103,1577710096
10716,17,Jits_Phase_5,2,1,48,64,1577719964
10716,17,Jits_Phase_5,3,5,63,98,1577730396
10716,17,Jits_Phase_5,0,5,63,98,1578190220
10716,17,Jits_Phase_5,1,1,48,55,1578215208
10716,17,Jits_Phase_5,2,5,80,127,1578270232
10716,17,Jits_Phase_5,3,5,56,103,1578280300
10716,17,Jits_Phase_5,0,1,48,56,1578731292
10716,17,Jits_Phase_5,1,5,80,127,1578780168
10716,17,Jits_Phase_5,2,5,56,103,1578799528
10716,17,Jits_Phase_5,3,5,63,98,1578802520
10716,17,Jits_Phase_5,0,1,48,60,1579255008
10716,17,Jits_Phase_5,1,5,63,98,1579269344
10716,17,Jits_Phase_5,2,5,80,127,1579272640
10716,17,Jits_Phase_5,3,5,56,103,1579330132
10716,17,Jits_Phase_5,0,5,56,103,1579749696
10716,17,Jits_Phase_5,1,5,80,127,1579760264
10716,17,Jits_Phase_5,2,5,63,98,1579800052
10716,17,Jits_Phase_5,3,1,48,57,1579821024
10716,17,Jits_Phase_5,0,5,56,103,1580230124
10716,17,Jits_Phase_5,1,1,48,48,1580275196
10716,17,Jits_Phase_5,2,5,63,98,1580290432
10716,17,Jits_Phase_5,3,5,80,127,1580299656
10716,17,Jits_Phase_5,0,5,63,98,1580739932
10716,17,Jits_Phase_5,1,1,48,58,1580743048
10716,17,Jits_Phase_5,2,5,80,127,1580779860
10716,17,Jits_Phase_5,3,5,56,103,1580819724
10716,17,Jits_Phase_5,0,5,56,103,1581239604
10716,17,Jits_Phase_5,1,1,48,62,1581296356
10716,17,Jits_Phase_5,2,5,63,98,1581319540
10716,17,Jits_Phase_5,3,5,80,127,1581322904
10716,17,Jits_Phase_5,0,1,48,56,1581751320
10716,17,Jits_Phase_5,1,5,80,127,1581799740
10716,17,Jits_Phase_5,2,5,56,103,1581829416
10716,17,Jits_Phase_5,3,5,63,98,1581832704
10716,17,Jits_Phase_5,0,5,56,103,1582259488
10716,17,Jits_Phase_5,1,1,48,59,1582280320
10716,17,Jits_Phase_5,2,5,80,127,1582281584
10716,17,Jits_Phase_5,3,5,63,98,1582320176
10716,17,Jits_Phase_5,0,5,80,127,1582739848
10716,17,Jits_Phase_5,1,5,63,98,1582760160
10716,17,Jits_Phase_5,2,1,48,60,1582768000
10716,17,Jits_Phase_5,3,5,56,103,1582819716
10716,17,Jits_Phase_5,0,5,63,98,1583249728
10716,17,Jits_Phase_5,1,5,56,103,1583260072
10716,17,Jits_Phase_5,2,1,48,56,1583281400
10716,17,Jits_Phase_5,3,5,80,127,1583310188
10716,17,Jits_Phase_5,0,5,56,103,1583740184
10716,17,Jits_Phase_5,1,5,63,98,1583759896
10716,17,Jits_Phase_5,2,5,80,127,1583770240
10716,17,Jits_Phase_5,3,1,48,57,1583771204
10716,17,Jits_Phase_5,0,1,48,58,1584223428
10716,17,Jits_Phase_5,1,5,56,103,1584229896
10716,17,Jits_Phase_5,2,5,63,98,1584232816
10716,17,Jits_Phase_5,3,5,80,127,1584250132
10716,17,Jits_Phase_5,0,1,48,52,1584722488
10716,17,Jits_Phase_5,1,5,63,98,1584770464
10716,17,Jits_Phase_5,2,5,56,103,1584800140
10716,17,Jits_Phase_5,3,5,80,127,1584829796
10716,17,Jits_Phase_5,0,5,80,127,1585230140
10716,17,Jits_Phase_5,1,1,48,54,1585272440
10716,17,Jits_Phase_5,2,5,56,103,1585320336
10716,17,Jits_Phase_5,3,5,63,98,1585323404
10716,17,Jits_Phase_5,0,5,56,103,1585729968
10716,17,Jits_Phase_5,1,5,80,127,1585733260
10716,17,Jits_Phase_5,2,1,48,55,1585764700
10716,17,Jits_Phase_5,3,5,63,98,1585809828
10716,17,Jits_Phase_5,0,5,80,127,1586229648
10716,17,Jits_Phase_5,1,1,48,60,1586249552
10716,17,Jits_Phase_5,2,5,63,98,1586290032
10716,17,Jits_Phase_5,3,5,56,103,1586319928
10716,17,Jits_Phase_5,0,5,63,98,1586730312
10716,17,Jits_Phase_5,1,5,80,127,1586739536
10716,17,Jits_Phase_5,2,1,48,59,1586775460
10716,17,Jits_Phase_5,3,5,56,103,1586810252
10716,17,Jits_Phase_5,0,1,48,62,1587250188
10716,17,Jits_Phase_5,1,5,56,103,1587289464
10716,17,Jits_Phase_5,2,5,80,127,1587320116
10716,17,Jits_Phase_5,3,5,63,98,1587370296
10716,17,Jits_Phase_5,0,1,48,62,1587758992
10716,17,Jits_Phase_5,1,5,63,98,1587880296
10716,17,Jits_Phase_5,2,5,56,103,1587910344
10716,17,Jits_Phase_5,3,5,80,127,1587913256
10716,17,Jits_Phase_5,0,1,48,59,1588319048
10716,17,Jits_Phase_5,1,5,63,98,1588380056
10716,17,Jits_Phase_5,2,5,80,127,1588399540
10716,17,Jits_Phase_5,3,5,56,103,1588409736
10716,17,Jits_Phase_5,0,1,48,48,1588880980
10716,17,Jits_Phase_5,1,5,56,103,1588890072
10716,17,Jits_Phase_5,2,5,63,98,1588893064
10716,17,Jits_Phase_5,3,5,80,127,1588909408
10716,17,Jits_Phase_5,0,5,56,103,1589339404
10716,17,Jits_Phase_5,1,5,63,98,1589350196
10716,17,Jits_Phase_5,2,5,80,127,1589379572
10716,17,Jits_Phase_5,3,1,48,54,1589394452
10716,17,Jits_Phase_5,0,5,63,98,1589859688
10716,17,Jits_Phase_5,1,5,80,127,1589880148
10716,17,Jits_Phase_5,2,1,48,44,1589903792
10716,17,Jits_Phase_5,3,5,56,103,1589920152
10716,17,Jits_Phase_5,0,5,56,103,1590390084
10716,17,Jits_Phase_5,1,1,48,49,1590391272
10716,17,Jits_Phase_5,2,5,63,98,1590429932
10716,17,Jits_Phase_5,3,5,80,127,1590433524
10716,17,Jits_Phase_5,0,5,80,127,1590829384
10716,17,Jits_Phase_5,1,1,48,42,1590869992
10716,17,Jits_Phase_5,2,5,56,103,1590871556
10716,17,Jits_Phase_5,3,5,63,98,1590919516
10716,17,Jits_Phase_5,0,1,48,51,1591388020
10716,17,Jits_Phase_5,1,5,56,103,1591389456
10716,17,Jits_Phase_5,2,5,80,127,1591399724
10716,17,Jits_Phase_5,3,5,63,98,1591429476
10716,17,Jits_Phase_5,0,5,56,103,1591840116
10716,17,Jits_Phase_5,1,5,80,127,1591880056
10716,17,Jits_Phase_5,2,1,48,42,1591900560
10716,17,Jits_Phase_5,3,5,63,98,1591930176
10716,17,Jits_Phase_5,0,5,56,103,1592340080
10716,17,Jits_Phase_5,1,1,48,48,1592369456
10716,17,Jits_Phase_5,2,5,80,127,1592379964
10716,17,Jits_Phase_5,3,5,63,98,1592430012
10716,17,Jits_Phase_5,0,5,80,127,1592830260
10716,17,Jits_Phase_5,1,5,63,98,1592910228
10716,17,Jits_Phase_5,2,5,56,103,1592920348
10716,17,Jits_Phase_5,3,1,48,43,1592926080
10716,17,Jits_Phase_5,0,5,80,127,1593380172
10716,17,Jits_Phase_5,1,5,56,103,1593389472
10716,17,Jits_Phase_5,2,1,48,59,1593404724
10716,17,Jits_Phase_5,3,5,63,98,1593410292
10716,17,Jits_Phase_5,0,5,63,98,1593850164
10716,17,Jits_Phase_5,1,1,48,51,1593886016
10716,17,Jits_Phase_5,2,5,56,103,1593920008
10716,17,Jits_Phase_5,3,5,80,127,1593923000
10716,17,Jits_Phase_5,0,5,80,127,1594339792
10716,17,Jits_Phase_5,1,1,48,48,1594380968
10716,17,Jits_Phase_5,2,5,63,98,1594389984
10716,17,Jits_Phase_5,3,5,56,103,1594429800
10716,17,Jits_Phase_5,0,5,63,98,1594880388
10716,17,Jits_Phase_5,1,1,48,55,1594896764
10716,17,Jits_Phase_5,2,5,56,103,1594920272
10716,17,Jits_Phase_5,3,5,80,127,1594929492
10716,17,Jits_Phase_5,0,5,63,98,1595370028
10716,17,Jits_Phase_5,1,5,56,103,1595390260
10716,17,Jits_Phase_5,2,1,48,48,1595404616
10716,17,Jits_Phase_5,3,5,80,127,1595410040
10716,17,Jits_Phase_5,0,5,80,127,1595829476
10716,17,Jits_Phase_5,1,5,56,103,1595840044
10716,17,Jits_Phase_5,2,5,63,98,1595860280
10716,17,Jits_Phase_5,3,1,48,58,1595888272
10716,17,Jits_Phase_5,0,5,63,98,1596360100
10716,17,Jits_Phase_5,1,1,48,44,1596388848
10716,17,Jits_Phase_5,2,5,56,103,1596400032
10716,17,Jits_Phase_5,3,5,80,127,1596429780
10716,17,Jits_Phase_5,0,5,56,103,1596819848
10716,17,Jits_Phase_5,1,5,63,98,1596849376
10716,17,Jits_Phase_5,2,1,48,50,1596877880
10716,17,Jits_Phase_5,3,5,80,127,1596880312
10716,17,Jits_Phase_5,0,5,80,127,1597239612
10716,17,Jits_Phase_5,1,5,56,103,1597310336
10716,17,Jits_Phase_5,2,5,63,98,1597313480
10716,17,Jits_Phase_5,3,1,48,46,1597365664
10716,17,Jits_Phase_5,0,5,56,103,1597749484
10716,17,Jits_Phase_5,1,5,63,98,1597800056
10716,17,Jits_Phase_5,2,5,80,127,1597829360
10716,17,Jits_Phase_5,3,1,48,47,1597854348
10716,17,Jits_Phase_5,0,5,63,98,1598230116
10716,17,Jits_Phase_5,1,5,80,127,1598233408
10716,17,Jits_Phase_5,2,5,56,103,1598290232
10716,17,Jits_Phase_5,3,1,48,47,1598351328
10716,17,Jits_Phase_5,0,5,56,103,1598760300
10716,17,Jits_Phase_5,1,5,80,127,1598769376
10716,17,Jits_Phase_5,2,1,48,46,1598799020
10716,17,Jits_Phase_5,3,5,63,98,1598819568
10716,17,Jits_Phase_5,0,5,63,98,1599230372
10716,17,Jits_Phase_5,1,5,56,103,1599239672
10716,17,Jits_Phase_5,2,5,80,127,1599270192
10716,17,Jits_Phase_5,3,1,48,43,1599280956
10716,17,Jits_Phase_5,0,5,63,98,1599759860
10716,17,Jits_Phase_5,1,5,80,127,1599763152
10716,17,Jits_Phase_5,2,1,48,44,1599778896
10716,17,Jits_Phase_5,3,5,56,103,1599789332
10716,17,Jits_Phase_5,0,1,48,45,1600271628
10716,17,Jits_Phase_5,1,5,63,98,1600279892
10716,17,Jits_Phase_5,2,5,56,103,1600300448
10716,17,Jits_Phase_5,3,5,80,127,1600303368
10716,17,Jits_Phase_5,0,5,63,98,1600739856
10716,17,Jits_Phase_5,1,1,48,49,1600804580
10716,17,Jits_Phase_5,2,5,56,103,1600810304
10716,17,Jits_Phase_5,3,5,80,127,1600829940
10716,17,Jits_Phase_5,0,5,56,103,1601230092
10716,17,Jits_Phase_5,1,5,63,98,1601240288
10716,17,Jits_Phase_5,2,1,48,46,1601284604
10716,17,Jits_Phase_5,3,5,80,127,1601329460
10716,17,Jits_Phase_5,0,5,56,103,1601750376
10716,17,Jits_Phase_5,1,1,48,48,1601758600
10716,17,Jits_Phase_5,2,5,80,127,1601790384
10716,17,Jits_Phase_5,3,5,63,98,1601799532
10716,17,Jits_Phase_5,0,1,48,48,1602245308
10716,17,Jits_Phase_5,1,5,56,103,1602269540
10716,17,Jits_Phase_5,2,5,63,98,1602300188
10716,17,Jits_Phase_5,3,5,80,127,1602330012
10716,17,Jits_Phase_5,0,5,80,127,1602730412
10716,17,Jits_Phase_5,1,5,63,98,1602770352
10716,17,Jits_Phase_5,2,1,48,50,1602774592
10716,17,Jits_Phase_5,3,5,56,103,1602789828
10716,17,Jits_Phase_5,0,1,48,45,1603258616
10716,17,Jits_Phase_5,1,5,56,103,1603270024
10716,17,Jits_Phase_5,2,5,80,127,1603289512
10716,17,Jits_Phase_5,3,5,63,98,1603310044
10716,17,Jits_Phase_5,0,5,63,98,1603740040
10716,17,Jits_Phase_5,1,5,56,103,1603750236
10716,17,Jits_Phase_5,2,1,48,43,1603754400
10716,17,Jits_Phase_5,3,5,80,127,1603809864
10716,17,Jits_Phase_5,0,5,56,103,1604239932
10716,17,Jits_Phase_5,1,1,48,59,1604280664
10716,17,Jits_Phase_5,2,5,63,98,1604310356
10716,17,Jits_Phase_5,3,5,80,127,1604329768
10716,17,Jits_Phase_5,0,5,56,103,1604739404
10716,17,Jits_Phase_5,1,5,63,98,1604770276
10716,17,Jits_Phase_5,2,1,48,56,1604776236
10716,17,Jits_Phase_5,3,5,80,127,1604810204
10716,17,Jits_Phase_5,0,5,63,98,1605229876
10716,17,Jits_Phase_5,1,1,48,60,1605270004
10716,17,Jits_Phase_5,2,5,56,103,1605279996
10716,17,Jits_Phase_5,3,5,80,127,1605290264
10716,17,Jits_Phase_5,0,1,48,59,1605737364
10716,17,Jits_Phase_5,1,5,56,103,1605769696
10716,17,Jits_Phase_5,2,5,63,98,1605819896
10716,17,Jits_Phase_5,3,5,80,127,1605829944
10716,17,Jits_Phase_5,0,5,56,103,1606239860
10716,17,Jits_Phase_5,1,5,63,98,1606249984
10716,17,Jits_Phase_5,2,1,48,59,1606282844
10716,17,Jits_Phase_5,3,5,80,127,1606329844
10716,17,Jits_Phase_5,0,9999,9999,9999,1521967160
10716,17,Jits_Phase_5,1,9999,9999,9999,1522467916
10716,17,Jits_Phase_5,2,9999,9999,9999,1522967620
10716,17,Jits_Phase_5,3,9999,9999,9999,1523467340
10716,17,Jits_Phase_5,4,9999,9999,9999,1523968108
10716,17,Jits_Phase_5,5,9999,9999,9999,1524478024
10716,17,Jits_Phase_5,6,9999,9999,9999,1524977732
10716,17,Jits_Phase_5,7,9999,9999,9999,1525477460
10716,17,Jits_Phase_5,8,9999,9999,9999,1525977164
10716,17,Jits_Phase_5,9,9999,9999,9999,1526477880
10716,17,Jits_Phase_5,10,9999,9999,9999,1526977616
10716,17,Jits_Phase_5,11,9999,9999,9999,1527477308
10716,17,Jits_Phase_5,12,9999,9999,9999,1527978096
10716,17,Jits_Phase_5,13,9999,9999,9999,1528477772
10716,17,Jits_Phase_5,14,9999,9999,9999,1528977524
10716,17,Jits_Phase_5,15,9999,9999,9999,1529477212
10716,17,Jits_Phase_5,16,9999,9999,9999,1529977932
10716,17,Jits_Phase_5,17,9999,9999,9999,1530477680
10716,17,Jits_Phase_5,18,9999,9999,9999,1530977372
10716,17,Jits_Phase_5,19,9999,9999,9999,1531478108
10716,17,Jits_Phase_5,20,9999,9999,9999,1531988064
10716,17,Jits_Phase_5,21,9999,9999,9999,1532487756
10716,17,Jits_Phase_5,22,9999,9999,9999,1532987516
10716,17,Jits_Phase_5,23,9999,9999,9999,1533487208
10716,17,Jits_Phase_5,24,9999,9999,9999,1533987948
10716,17,Jits_Phase_5,25,9999,9999,9999,1534487608
10716,17,Jits_Phase_5,26,9999,9999,9999,1534987372
10716,17,Jits_Phase_5,27,9999,9999,9999,1535488084
10716,17,Jits_Phase_5,28,9999,9999,9999,1535998040
10716,17,Jits_Phase_5,29,9999,9999,9999,1536497732
10716,17,Jits_Phase_5,30,9999,9999,9999,1536987232
10716,17,Jits_Phase_5,31,9999,9999,9999,1537487968
10716,17,Jits_Phase_5,32,9999,9999,9999,1537987656
10716,17,Jits_Phase_5,33,9999,9999,9999,1538487420
10716,17,Jits_Phase_5,34,9999,9999,9999,1538987108
10716,17,Jits_Phase_5,35,9999,9999,9999,1539487848
10716,17,Jits_Phase_5,36,9999,9999,9999,1539987512
10716,17,Jits_Phase_5,37,9999,9999,9999,1540487260
10716,17,Jits_Phase_5,38,9999,9999,9999,1540987996
10716,17,Jits_Phase_5,39,9999,9999,9999,1541487672
10716,17,Jits_Phase_5,40,9999,9999,9999,1541987404
10716,17,Jits_Phase_5,41,9999,9999,9999,1542487140
10716,17,Jits_Phase_5,42,9999,9999,9999,1542987872
10716,17,Jits_Phase_5,43,9999,9999,9999,1543487544
10716,17,Jits_Phase_5,44,9999,9999,9999,1543987292
10716,17,Jits_Phase_5,45,9999,9999,9999,1544488012
10716,17,Jits_Phase_5,46,9999,9999,9999,1544987736
10716,17,Jits_Phase_5,47,9999,9999,9999,1545487484
10716,17,Jits_Phase_5,48,9999,9999,9999,1545997424
10716,17,Jits_Phase_5,49,9999,9999,9999,1546497120
10716,17,Jits_Phase_5,50,9999,9999,9999,1546997832
10716,17,Jits_Phase_5,51,9999,9999,9999,1547497596
10716,17,Jits_Phase_5,52,9999,9999,9999,1547997288
10716,17,Jits_Phase_5,53,9999,9999,9999,1548498028
10716,17,Jits_Phase_5,54,9999,9999,9999,1548997700
10716,17,Jits_Phase_5,55,9999,9999,9999,1549497468
10716,17,Jits_Phase_5,56,9999,9999,9999,1549997160
10716,17,Jits_Phase_5,57,9999,9999,9999,1550497888
10716,17,Jits_Phase_5,58,9999,9999,9999,1550997568
10716,17,Jits_Phase_5,59,9999,9999,9999,1551497316
10716,17,Jits_Phase_5,60,9999,9999,9999,1551998060
10716,17,Jits_Phase_5,61,9999,9999,9999,1552497736
10716,17,Jits_Phase_5,62,9999,9999,9999,1552997480
10716,17,Jits_Phase_5,63,9999,9999,9999,1553497152
10716,17,Jits_Phase_5,64,9999,9999,9999,1554017356
10716,17,Jits_Phase_5,65,9999,9999,9999,1554518092
10716,17,Jits_Phase_5,66,9999,9999,9999,1555028048
10716,17,Jits_Phase_5,67,9999,9999,9999,1555527796
10716,17,Jits_Phase_5,68,9999,9999,9999,1556027492
10716,17,Jits_Phase_5,69,9999,9999,9999,1556527172
10716,17,Jits_Phase_5,70,9999,9999,9999,1557027956
10716,17,Jits_Phase_5,71,9999,9999,9999,1557527672
10716,17,Jits_Phase_5,72,9999,9999,9999,1558027352
10716,17,Jits_Phase_5,73,9999,9999,9999,1558528076
10716,17,Jits_Phase_5,74,9999,9999,9999,1559038028
10716,17,Jits_Phase_5,75,9999,9999,9999,1559537776
10716,17,Jits_Phase_5,76,9999,9999,9999,1560037436
10716,17,Jits_Phase_5,77,9999,9999,9999,1560537188
10716,17,Jits_Phase_5,78,9999,9999,9999,1561037928
10716,17,Jits_Phase_5,79,9999,9999,9999,1561537616
10716,17,Jits_Phase_5,80,9999,9999,9999,1562037368
10716,17,Jits_Phase_5,81,9999,9999,9999,1562517564
10716,17,Jits_Phase_5,82,9999,9999,9999,1563017328
10716,17,Jits_Phase_5,83,9999,9999,9999,1563518052
10716,17,Jits_Phase_5,84,9999,9999,9999,1564017744
10716,17,Jits_Phase_5,85,9999,9999,9999,1564517492
10716,17,Jits_Phase_5,86,9999,9999,9999,1565017164
10716,17,Jits_Phase_5,87,9999,9999,9999,1565517904
10716,17,Jits_Phase_5,88,9999,9999,9999,1566017592
10716,17,Jits_Phase_5,89,9999,9999,9999,1566517356
10716,17,Jits_Phase_5,90,9999,9999,9999,1567018096
10716,17,Jits_Phase_5,91,9999,9999,9999,1567517752
10716,17,Jits_Phase_5,92,9999,9999,9999,1568017500
10716,17,Jits_Phase_5,93,9999,9999,9999,1568517176
10716,17,Jits_Phase_5,94,9999,9999,9999,1569017972
10716,17,Jits_Phase_5,95,9999,9999,9999,1569517664
10716,17,Jits_Phase_5,96,9999,9999,9999,1570017352
10716,17,Jits_Phase_5,97,9999,9999,9999,1570467956
10716,17,Jits_Phase_5,98,9999,9999,9999,1570967632
10716,17,Jits_Phase_5,99,9999,9999,9999,1571467320
10716,17,Jits_Phase_5,100,9999,9999,9999,1571968116
10716,17,Jits_Phase_5,101,9999,9999,9999,1572478072
10716,17,Jits_Phase_5,102,9999,9999,9999,1572977756
10716,17,Jits_Phase_5,103,9999,9999,9999,1573477452
10716,17,Jits_Phase_5,104,9999,9999,9999,1573977212
10716,17,Jits_Phase_5,105,9999,9999,9999,1574477928
10716,17,Jits_Phase_5,106,9999,9999,9999,1574977604
10716,17,Jits_Phase_5,107,9999,9999,9999,1575477348
10716,17,Jits_Phase_5,108,9999,9999,9999,1575978076
10716,17,Jits_Phase_5,109,9999,9999,9999,1576477800
10716,17,Jits_Phase_5,110,9999,9999,9999,1576977480
10716,17,Jits_Phase_5,111,9999,9999,9999,1577477232
10716,17,Jits_Phase_5,112,9999,9999,9999,1577977948
10716,17,Jits_Phase_5,113,9999,9999,9999,1578477640
10716,17,Jits_Phase_5,114,9999,9999,9999,1579027580
10716,17,Jits_Phase_5,115,9999,9999,9999,1579527248
10716,17,Jits_Phase_5,116,9999,9999,9999,1580027968
10716,17,Jits_Phase_5,117,9999,9999,9999,1580527732
10716,17,Jits_Phase_5,118,9999,9999,9999,1581027420
10716,17,Jits_Phase_5,119,9999,9999,9999,1581527168
10716,17,Jits_Phase_5,120,9999,9999,9999,1582027900
10716,17,Jits_Phase_5,121,9999,9999,9999,1582527576
10716,17,Jits_Phase_5,122,9999,9999,9999,1583027268
10716,17,Jits_Phase_5,123,9999,9999,9999,1583528004
10716,17,Jits_Phase_5,124,9999,9999,9999,1584027748
10716,17,Jits_Phase_5,125,9999,9999,9999,1584527424
10716,17,Jits_Phase_5,126,9999,9999,9999,1585027176
10716,17,Jits_Phase_5,127,9999,9999,9999,1585527888
10716,17,Jits_Phase_5,128,9999,9999,9999,1586027640
10716,17,Jits_Phase_5,129,9999,9999,9999,1586527332
10716,17,Jits_Phase_5,130,9999,9999,9999,1587028064
10716,17,Jits_Phase_5,131,9999,9999,9999,1587627080
10716,17,Jits_Phase_5,132,9999,9999,9999,1588127872
10716,17,Jits_Phase_5,133,9999,9999,9999,1588627552
10716,17,Jits_Phase_5,134,9999,9999,9999,1589127220
10716,17,Jits_Phase_5,135,9999,9999,9999,1589628012
10716,17,Jits_Phase_5,136,9999,9999,9999,1590127704
10716,17,Jits_Phase_5,137,9999,9999,9999,1590627452
10716,17,Jits_Phase_5,138,9999,9999,9999,1591127140
10716,17,Jits_Phase_5,139,9999,9999,9999,1591627884
10716,17,Jits_Phase_5,140,9999,9999,9999,1592127612
10716,17,Jits_Phase_5,141,9999,9999,9999,1592627304
10716,17,Jits_Phase_5,142,9999,9999,9999,1593128040
10716,17,Jits_Phase_5,143,9999,9999,9999,1593627712
10716,17,Jits_Phase_5,144,9999,9999,9999,1594127464
10716,17,Jits_Phase_5,145,9999,9999,9999,1594627140
10716,17,Jits_Phase_5,146,9999,9999,9999,1595127880
10716,17,Jits_Phase_5,147,9999,9999,9999,1595627628
10716,17,Jits_Phase_5,148,9999,9999,9999,1596127300
10716,17,Jits_Phase_5,149,9999,9999,9999,1596628044
10716,17,Jits_Phase_5,150,9999,9999,9999,1597027412
10716,17,Jits_Phase_5,151,9999,9999,9999,1597527096
10716,17,Jits_Phase_5,152,9999,9999,9999,1598027840
10716,17,Jits_Phase_5,153,9999,9999,9999,1598527588
10716,17,Jits_Phase_5,154,9999,9999,9999,1599027268
10716,17,Jits_Phase_5,155,9999,9999,9999,1599528000
10716,17,Jits_Phase_5,156,9999,9999,9999,1600027716
10716,17,Jits_Phase_5,157,9999,9999,9999,1600527456
10716,17,Jits_Phase_5,158,9999,9999,9999,1601027128
10716,17,Jits_Phase_5,159,9999,9999,9999,1601527920
10716,17,Jits_Phase_5,160,9999,9999,9999,1602027608
10716,17,Jits_Phase_5,161,9999,9999,9999,1602527300
10716,17,Jits_Phase_5,162,9999,9999,9999,1603028092
10716,17,Jits_Phase_5,163,9999,9999,9999,1603527780
10716,17,Jits_Phase_5,164,9999,9999,9999,1604027456
10716,17,Jits_Phase_5,165,9999,9999,9999,1604527208
10716,17,Jits_Phase_5,166,9999,9999,9999,1605027940
10716,17,Jits_Phase_5,167,9999,9999,9999,1605527628
10716,17,Jits_Phase_5,168,9999,9999,9999,1606027380
10716,17,Jits_Phase_5,169,9999,9999,9999,1606528104
10717,15,Jits_Phase_8,0,5,56,103,1615326732
10717,15,Jits_Phase_8,1,5,63,98,1615329984
10717,15,Jits_Phase_8,2,5,80,127,1615332880
10717,15,Jits_Phase_8,0,5,56,103,1616127268
10717,15,Jits_Phase_8,1,5,63,98,1616130296
10717,15,Jits_Phase_8,2,5,80,127,1616133568
10717,15,Jits_Phase_8,0,5,80,127,1616866916
10717,15,Jits_Phase_8,1,5,63,98,1616956704
10717,15,Jits_Phase_8,2,5,56,103,1616966976
10717,15,Jits_Phase_8,0,5,56,103,1617686884
10717,15,Jits_Phase_8,1,5,63,98,1617697104
10717,15,Jits_Phase_8,2,5,80,127,1617787160
10717,15,Jits_Phase_8,0,5,63,98,1618456948
10717,15,Jits_Phase_8,1,5,80,127,1618486800
10717,15,Jits_Phase_8,2,5,56,103,1618517300
10717,15,Jits_Phase_8,0,5,56,103,1619256916
10717,15,Jits_Phase_8,1,5,80,127,1619357016
10717,15,Jits_Phase_8,2,5,63,98,1619407140
10717,15,Jits_Phase_8,0,5,56,103,1620056652
10717,15,Jits_Phase_8,1,5,80,127,1620106780
10717,15,Jits_Phase_8,2,5,63,98,1620146644
10717,15,Jits_Phase_8,0,5,80,127,1620886876
10717,15,Jits_Phase_8,1,5,63,98,1620916704
10717,15,Jits_Phase_8,2,5,56,103,1620987204
10717,15,Jits_Phase_8,0,1,48,45,1621660732
10717,15,Jits_Phase_8,1,5,63,98,1621717248
10717,15,Jits_Phase_8,2,5,56,103,1621747000
10717,15,Jits_Phase_8,3,1,48,26,1621773624
10717,15,Jits_Phase_8,4,5,80,127,1621806640
10717,15,Jits_Phase_8,0,5,56,103,1622456808
10717,15,Jits_Phase_8,1,5,80,127,1622459652
10717,15,Jits_Phase_8,2,1,48,57,1622462244
10717,15,Jits_Phase_8,3,5,63,98,1622576760
10717,15,Jits_Phase_8,0,1,48,60,1623306812
10717,15,Jits_Phase_8,1,5,56,103,1623337204
10717,15,Jits_Phase_8,2,5,80,127,1623377292
10717,15,Jits_Phase_8,3,5,63,98,1623386740
10717,15,Jits_Phase_8,0,5,56,103,1624097264
10717,15,Jits_Phase_8,1,5,80,127,1624116604
10717,15,Jits_Phase_8,2,1,48,58,1624125500
10717,15,Jits_Phase_8,3,5,63,98,1624196688
10717,15,Jits_Phase_8,0,5,80,127,1624886776
10717,15,Jits_Phase_8,1,1,48,40,1624918520
10717,15,Jits_Phase_8,2,5,56,103,1624987020
10717,15,Jits_Phase_8,3,5,63,98,1624997364
10717,15,Jits_Phase_8,0,5,63,98,1625656664
10717,15,Jits_Phase_8,1,1,48,52,1625685636
10717,15,Jits_Phase_8,2,5,80,127,1625717048
10717,15,Jits_Phase_8,3,5,56,103,1625727244
10717,15,Jits_Phase_8,0,1,48,57,1626420716
10717,15,Jits_Phase_8,1,5,56,103,1626456704
10717,15,Jits_Phase_8,2,5,63,98,1626527048
10717,15,Jits_Phase_8,3,5,80,127,1626530636
10717,15,Jits_Phase_8,0,1,48,56,1627233264
10717,15,Jits_Phase_8,1,5,63,98,1627286872
10717,15,Jits_Phase_8,2,5,56,103,1627337128
10717,15,Jits_Phase_8,3,5,80,127,1627340124
10717,15,Jits_Phase_8,0,5,56,103,1628046764
10717,15,Jits_Phase_8,1,5,80,127,1628049680
10717,15,Jits_Phase_8,2,1,48,59,1628074520
10717,15,Jits_Phase_8,3,5,63,98,1628136812
10717,15,Jits_Phase_8,0,5,63,98,1628887504
10717,15,Jits_Phase_8,1,1,48,54,1628923508
10717,15,Jits_Phase_8,2,5,56,103,1628976608
10717,15,Jits_Phase_8,3,5,80,127,1629007480
10717,15,Jits_Phase_8,0,5,56,103,1629676856
10717,15,Jits_Phase_8,1,1,48,51,1629686420
10717,15,Jits_Phase_8,2,5,63,98,1629777120
10717,15,Jits_Phase_8,3,5,80,127,1629806856
10717,15,Jits_Phase_8,0,1,48,50,1630453584
10717,15,Jits_Phase_8,1,5,63,98,1630497176
10717,15,Jits_Phase_8,2,5,56,103,1630507520
10717,15,Jits_Phase_8,3,5,80,127,1630596588
10717,15,Jits_Phase_8,0,1,48,52,1631297960
10717,15,Jits_Phase_8,1,5,63,98,1631317464
10717,15,Jits_Phase_8,2,5,56,103,1631397316
10717,15,Jits_Phase_8,3,5,80,127,1631400160
10717,15,Jits_Phase_8,0,5,80,127,1632077144
10717,15,Jits_Phase_8,1,5,63,98,1632096780
10717,15,Jits_Phase_8,2,1,48,46,1632139680
10717,15,Jits_Phase_8,3,5,56,103,1632157012
10717,15,Jits_Phase_8,0,1,48,46,1632871560
10717,15,Jits_Phase_8,1,5,56,103,1632916840
10717,15,Jits_Phase_8,2,5,63,98,1632937524
10717,15,Jits_Phase_8,3,5,80,127,1632940812
10717,15,Jits_Phase_8,0,5,63,98,1633657108
10717,15,Jits_Phase_8,1,1,48,53,1633670420
10717,15,Jits_Phase_8,2,5,80,127,1633737048
10717,15,Jits_Phase_8,3,5,56,103,1633747468
10717,15,Jits_Phase_8,0,5,63,98,1634477620
10717,15,Jits_Phase_8,1,5,56,103,1634496808
10717,15,Jits_Phase_8,2,1,48,50,1634515144
10717,15,Jits_Phase_8,3,5,80,127,1634546928
10717,15,Jits_Phase_8,0,1,48,49,1635254108
10717,15,Jits_Phase_8,1,5,80,127,1635277144
10717,15,Jits_Phase_8,2,5,63,98,1635317308
10717,15,Jits_Phase_8,3,5,56,103,1635336720
10717,15,Jits_Phase_8,0,1,48,46,1636072148
10717,15,Jits_Phase_8,1,5,56,103,1636116836
10717,15,Jits_Phase_8,2,5,63,98,1636127056
10717,15,Jits_Phase_8,3,5,80,127,1636146692
10717,15,Jits_Phase_8,0,1,48,46,1636845644
10717,15,Jits_Phase_8,1,5,56,103,1636847064
10717,15,Jits_Phase_8,2,5,63,98,1636937076
10717,15,Jits_Phase_8,3,5,80,127,1636996552
10717,15,Jits_Phase_8,0,5,80,127,1637677648
10717,15,Jits_Phase_8,1,5,56,103,1637686648
10717,15,Jits_Phase_8,2,1,48,57,1637698612
10717,15,Jits_Phase_8,3,5,63,98,1637757440
10717,15,Jits_Phase_8,0,5,63,98,1638506792
10717,15,Jits_Phase_8,1,1,48,51,1638569024
10717,15,Jits_Phase_8,2,5,80,127,1638596996
10717,15,Jits_Phase_8,3,5,56,103,1638607340
10717,15,Jits_Phase_8,0,5,63,98,1639236952
10717,15,Jits_Phase_8,1,5,80,127,1639287152
10717,15,Jits_Phase_8,2,1,48,43,1639332368
10717,15,Jits_Phase_8,3,5,56,103,1639346636
10717,15,Jits_Phase_8,0,5,56,103,1640057152
10717,15,Jits_Phase_8,1,5,80,127,1640107504
10717,15,Jits_Phase_8,2,5,63,98,1640126692
10717,15,Jits_Phase_8,3,1,48,49,1640128704
10717,15,Jits_Phase_8,0,5,56,103,1640827300
10717,15,Jits_Phase_8,1,1,48,42,1640885588
10717,15,Jits_Phase_8,2,5,80,127,1640887084
10717,15,Jits_Phase_8,3,5,63,98,1640957512
10717,15,Jits_Phase_8,0,5,56,103,1641626920
10717,15,Jits_Phase_8,1,5,80,127,1641656668
10717,15,Jits_Phase_8,2,5,63,98,1641687612
10717,15,Jits_Phase_8,3,1,48,44,1641692828
10717,15,Jits_Phase_8,0,5,56,103,1642466764
10717,15,Jits_Phase_8,1,5,80,127,1642487296
10717,15,Jits_Phase_8,2,1,48,49,1642493484
10717,15,Jits_Phase_8,3,5,63,98,1642546508
10717,15,Jits_Phase_8,0,1,48,42,1643217500
10717,15,Jits_Phase_8,1,5,80,127,1643347448
10717,15,Jits_Phase_8,2,5,56,103,1643356524
10717,15,Jits_Phase_8,3,5,63,98,1643366720
10717,15,Jits_Phase_8,0,1,48,54,1644092656
10717,15,Jits_Phase_8,1,5,56,103,1644107072
10717,15,Jits_Phase_8,2,5,80,127,1644147012
10717,15,Jits_Phase_8,3,5,63,98,1644176688
10717,15,Jits_Phase_8,0,5,56,103,1644877320
10717,15,Jits_Phase_8,1,5,63,98,1644906848
10717,15,Jits_Phase_8,2,1,48,49,1644934920
10717,15,Jits_Phase_8,3,5,80,127,1644946780
10717,15,Jits_Phase_8,0,5,80,127,1645626672
10717,15,Jits_Phase_8,1,5,63,98,1645676876
10717,15,Jits_Phase_8,2,5,56,103,1645697632
10717,15,Jits_Phase_8,3,1,48,54,1645726600
10717,15,Jits_Phase_8,0,5,56,103,1646457372
10717,15,Jits_Phase_8,1,1,48,62,1646468288
10717,15,Jits_Phase_8,2,5,80,127,1646526972
10717,15,Jits_Phase_8,3,5,63,98,1646587348
10717,15,Jits_Phase_8,0,5,80,127,1647256924
10717,15,Jits_Phase_8,1,1,48,66,1647259592
10717,15,Jits_Phase_8,2,5,63,98,1647347200
10717,15,Jits_Phase_8,3,5,56,103,1647366448
10717,15,Jits_Phase_8,0,5,63,98,1648077376
10717,15,Jits_Phase_8,1,1,48,61,1648089932
10717,15,Jits_Phase_8,2,5,56,103,1648096708
10717,15,Jits_Phase_8,3,5,80,127,1648136644
10717,15,Jits_Phase_8,0,5,80,127,1648837196
10717,15,Jits_Phase_8,1,5,63,98,1648856536
10717,15,Jits_Phase_8,2,1,48,68,1648868796
10717,15,Jits_Phase_8,3,5,56,103,1648937540
10717,15,Jits_Phase_8,0,5,63,98,1649626404
10717,15,Jits_Phase_8,1,1,48,56,1649682256
10717,15,Jits_Phase_8,2,5,56,103,1649737152
10717,15,Jits_Phase_8,3,5,80,127,1649740220
10717,15,Jits_Phase_8,0,5,63,98,1650446752
10717,15,Jits_Phase_8,1,1,48,60,1650455112
10717,15,Jits_Phase_8,2,5,56,103,1650456856
10717,15,Jits_Phase_8,3,5,80,127,1650459856
10717,15,Jits_Phase_8,0,1,48,41,1651209644
10717,15,Jits_Phase_8,1,5,56,103,1651227128
10717,15,Jits_Phase_8,2,5,80,127,1651346940
10717,15,Jits_Phase_8,3,5,63,98,1651386728
10717,15,Jits_Phase_8,0,5,56,103,1652047220
10717,15,Jits_Phase_8,1,1,48,52,1652086160
10717,15,Jits_Phase_8,2,5,80,127,1652127084
10717,15,Jits_Phase_8,3,5,63,98,1652146496
10717,15,Jits_Phase_8,0,5,56,103,1652846912
10717,15,Jits_Phase_8,1,1,48,54,1652891684
10717,15,Jits_Phase_8,2,5,63,98,1652956592
10717,15,Jits_Phase_8,3,5,80,127,1652959956
10717,15,Jits_Phase_8,0,5,56,103,1653686764
10717,15,Jits_Phase_8,1,1,48,27,1653703064
10717,15,Jits_Phase_8,2,5,80,127,1653717480
10717,15,Jits_Phase_8,3,5,63,98,1653736744
10717,15,Jits_Phase_8,0,5,63,98,1654477168
10717,15,Jits_Phase_8,1,5,56,103,1654487292
10717,15,Jits_Phase_8,2,1,48,48,1654490032
10717,15,Jits_Phase_8,3,5,80,127,1654496728
10717,15,Jits_Phase_8,0,1,48,46,1655240616
10717,15,Jits_Phase_8,1,5,80,127,1655266648
10717,15,Jits_Phase_8,2,5,56,103,1655316776
10717,15,Jits_Phase_8,3,5,63,98,1655356724
10717,15,Jits_Phase_8,0,5,80,127,1656087312
10717,15,Jits_Phase_8,1,1,48,37,1656101244
10717,15,Jits_Phase_8,2,5,63,98,1656107344
10717,15,Jits_Phase_8,3,5,56,103,1656156496
10717,15,Jits_Phase_8,0,1,48,49,1656890068
10717,15,Jits_Phase_8,1,5,80,127,1656896768
10717,15,Jits_Phase_8,2,5,56,103,1656926592
10717,15,Jits_Phase_8,3,5,63,98,1656997304
10717,15,Jits_Phase_8,0,1,48,48,1657729012
10717,15,Jits_Phase_8,1,5,56,103,1657746872
10717,15,Jits_Phase_8,2,5,80,127,1657757220
10717,15,Jits_Phase_8,3,5,63,98,1657796936
10717,15,Jits_Phase_8,0,5,56,103,1658456364
10717,15,Jits_Phase_8,1,5,63,98,1658477048
10717,15,Jits_Phase_8,2,5,80,127,1658546504
10717,15,Jits_Phase_8,3,1,48,45,1658566184
10717,15,Jits_Phase_8,0,5,63,98,1659276584
10717,15,Jits_Phase_8,1,1,48,48,1659300904
10717,15,Jits_Phase_8,2,5,80,127,1659337340
10717,15,Jits_Phase_8,3,5,56,103,1659356380
10717,15,Jits_Phase_8,0,5,80,127,1660067124
10717,15,Jits_Phase_8,1,5,56,103,1660096952
10717,15,Jits_Phase_8,2,1,48,51,1660105772
10717,15,Jits_Phase_8,3,5,63,98,1660126468
10717,15,Jits_Phase_8,0,5,56,103,1660867040
10717,15,Jits_Phase_8,1,1,48,64,1660878032
10717,15,Jits_Phase_8,2,5,63,98,1660927352
10717,15,Jits_Phase_8,3,5,80,127,1660986628
10717,15,Jits_Phase_8,0,1,48,57,1661679892
10717,15,Jits_Phase_8,1,5,80,127,1661687112
10717,15,Jits_Phase_8,2,5,56,103,1661706600
10717,15,Jits_Phase_8,3,5,63,98,1661777200
10717,15,Jits_Phase_8,0,1,48,51,1662477032
10717,15,Jits_Phase_8,1,5,80,127,1662486872
10717,15,Jits_Phase_8,2,5,63,98,1662507432
10717,15,Jits_Phase_8,3,5,56,103,1662537328
10717,15,Jits_Phase_8,0,1,48,59,1663264292
10717,15,Jits_Phase_8,1,5,80,127,1663277512
10717,15,Jits_Phase_8,2,5,63,98,1663296848
10717,15,Jits_Phase_8,3,5,56,103,1663357388
10717,15,Jits_Phase_8,0,1,48,61,1664052136
10717,15,Jits_Phase_8,1,5,80,127,1664077268
10717,15,Jits_Phase_8,2,5,56,103,1664176532
10717,15,Jits_Phase_8,3,5,63,98,1664207252
10717,15,Jits_Phase_8,0,1,48,59,1664853472
10717,15,Jits_Phase_8,1,5,63,98,1664866764
10717,15,Jits_Phase_8,2,5,80,127,1664917116
10717,15,Jits_Phase_8,3,5,56,103,1664937276
10717,15,Jits_Phase_8,0,1,48,59,1665631872
10717,15,Jits_Phase_8,1,5,80,127,1665707428
10717,15,Jits_Phase_8,2,5,56,103,1665737012
10717,15,Jits_Phase_8,3,5,63,98,1665740224
10717,15,Jits_Phase_8,0,1,48,59,1666488264
10717,15,Jits_Phase_8,1,5,63,98,1666557372
10717,15,Jits_Phase_8,2,5,56,103,1666597324
10717,15,Jits_Phase_8,3,5,80,127,1666616660
10717,15,Jits_Phase_8,0,5,80,127,1667317208
10717,15,Jits_Phase_8,1,1,48,48,1667324516
10717,15,Jits_Phase_8,2,5,63,98,1667397172
10717,15,Jits_Phase_8,3,5,56,103,1667437168
10717,15,Jits_Phase_8,0,1,48,45,1668110360
10717,15,Jits_Phase_8,1,5,63,98,1668137232
10717,15,Jits_Phase_8,2,5,80,127,1668217236
10717,15,Jits_Phase_8,3,5,56,103,1668237020
10717,15,Jits_Phase_8,0,1,48,43,1668905432
10717,15,Jits_Phase_8,1,5,56,103,1668977300
10717,15,Jits_Phase_8,2,5,63,98,1668987196
10717,15,Jits_Phase_8,3,5,80,127,1669027120
10717,15,Jits_Phase_8,0,5,56,103,1669696900
10717,15,Jits_Phase_8,1,5,80,127,1669699968
10717,15,Jits_Phase_8,2,1,48,50,1669713352
10717,15,Jits_Phase_8,3,5,63,98,1669837204
10717,15,Jits_Phase_8,0,5,56,103,1670487364
10717,15,Jits_Phase_8,1,1,48,47,1670567208
10717,15,Jits_Phase_8,2,5,63,98,1670576520
10717,15,Jits_Phase_8,3,5,80,127,1670647248
10717,15,Jits_Phase_8,0,5,63,98,1671367228
10717,15,Jits_Phase_8,1,5,80,127,1671370440
10717,15,Jits_Phase_8,2,1,48,52,1671371408
10717,15,Jits_Phase_8,3,5,56,103,1671426560
10717,15,Jits_Phase_8,0,1,48,47,1672200812
10717,15,Jits_Phase_8,1,5,80,127,1672206832
10717,15,Jits_Phase_8,2,5,56,103,1672227244
10717,15,Jits_Phase_8,3,5,63,98,1672237516
10717,15,Jits_Phase_8,0,5,56,103,1672917372
10717,15,Jits_Phase_8,1,5,63,98,1672926596
10717,15,Jits_Phase_8,2,5,80,127,1672997196
10717,15,Jits_Phase_8,3,1,48,54,1673015312
10717,15,Jits_Phase_8,0,5,80,127,1673717140
10717,15,Jits_Phase_8,1,1,48,39,1673764404
10717,15,Jits_Phase_8,2,5,56,103,1673767212
10717,15,Jits_Phase_8,3,5,63,98,1673816592
10717,15,Jits_Phase_8,0,1,48,50,1674584944
10717,15,Jits_Phase_8,1,5,56,103,1674596876
10717,15,Jits_Phase_8,2,5,63,98,1674607372
10717,15,Jits_Phase_8,3,5,80,127,1674647084
10717,15,Jits_Phase_8,0,5,56,103,1675337008
10717,15,Jits_Phase_8,1,5,63,98,1675376948
10717,15,Jits_Phase_8,2,1,48,61,1675397452
10717,15,Jits_Phase_8,3,5,80,127,1675427140
10717,15,Jits_Phase_8,0,5,80,127,1676096924
10717,15,Jits_Phase_8,1,1,48,52,1676128592
10717,15,Jits_Phase_8,2,5,56,103,1676147044
10717,15,Jits_Phase_8,3,5,63,98,1676166604
10717,15,Jits_Phase_8,0,1,48,57,1676834680
10717,15,Jits_Phase_8,1,5,80,127,1676907016
10717,15,Jits_Phase_8,2,5,63,98,1676967244
10717,15,Jits_Phase_8,3,5,56,103,1677047188
10717,15,Jits_Phase_8,0,5,80,127,1677687228
10717,15,Jits_Phase_8,1,1,48,57,1677724052
10717,15,Jits_Phase_8,2,5,56,103,1677727232
10717,15,Jits_Phase_8,3,5,63,98,1677746500
10717,15,Jits_Phase_8,0,5,56,103,1678537044
10717,15,Jits_Phase_8,1,5,80,127,1678547388
10717,15,Jits_Phase_8,2,1,48,38,1678552900
10717,15,Jits_Phase_8,3,5,63,98,1678587172
10717,15,Jits_Phase_8,0,1,48,42,1679328012
10717,15,Jits_Phase_8,1,5,56,103,1679406432
10717,15,Jits_Phase_8,2,5,63,98,1679447404
10717,15,Jits_Phase_8,3,5,80,127,1679450916
10717,15,Jits_Phase_8,0,5,63,98,1680077308
10717,15,Jits_Phase_8,1,5,80,127,1680117096
10717,15,Jits_Phase_8,2,5,56,103,1680187024
10717,15,Jits_Phase_8,3,1,48,53,1680227680
10717,15,Jits_Phase_8,0,5,63,98,1680847096
10717,15,Jits_Phase_8,1,1,48,50,1680905884
10717,15,Jits_Phase_8,2,5,56,103,1680927132
10717,15,Jits_Phase_8,3,5,80,127,1680986472
10717,15,Jits_Phase_8,0,5,80,127,1681657112
10717,15,Jits_Phase_8,1,1,48,39,1681689376
10717,15,Jits_Phase_8,2,5,63,98,1681707332
10717,15,Jits_Phase_8,3,5,56,103,1681737156
10717,15,Jits_Phase_8,0,5,56,103,1682446912
10717,15,Jits_Phase_8,1,1,48,46,1682470960
10717,15,Jits_Phase_8,2,5,63,98,1682497132
10717,15,Jits_Phase_8,3,5,80,127,1682507108
10717,15,Jits_Phase_8,0,1,48,34,1683179888
10717,15,Jits_Phase_8,1,5,56,103,1683256960
10717,15,Jits_Phase_8,2,5,63,98,1683367232
10717,15,Jits_Phase_8,3,5,80,127,1683386940
10717,15,Jits_Phase_8,0,5,63,98,1684056576
10717,15,Jits_Phase_8,1,1,48,37,1684090856
10717,15,Jits_Phase_8,2,5,80,127,1684106696
10717,15,Jits_Phase_8,3,5,56,103,1684196884
10717,15,Jits_Phase_8,0,5,63,98,1684846816
10717,15,Jits_Phase_8,1,5,80,127,1684876864
10717,15,Jits_Phase_8,2,1,48,38,1684919912
10717,15,Jits_Phase_8,3,5,56,103,1684966764
10717,15,Jits_Phase_8,0,5,63,98,1685646716
10717,15,Jits_Phase_8,1,5,56,103,1685656912
10717,15,Jits_Phase_8,2,1,48,35,1685688432
10717,15,Jits_Phase_8,3,5,80,127,1685757224
10717,15,Jits_Phase_8,0,1,48,38,1686421704
10717,15,Jits_Phase_8,1,5,63,98,1686546768
10717,15,Jits_Phase_8,2,5,80,127,1686576468
10717,15,Jits_Phase_8,3,5,56,103,1686607264
10717,15,Jits_Phase_8,0,1,48,35,1687295504
10717,15,Jits_Phase_8,1,5,80,127,1687366948
10717,15,Jits_Phase_8,2,5,63,98,1687377372
10717,15,Jits_Phase_8,3,5,56,103,1687406956
10717,15,Jits_Phase_8,0,5,80,127,1688066452
10717,15,Jits_Phase_8,1,5,63,98,1688086840
10717,15,Jits_Phase_8,2,5,56,103,1688137064
10717,15,Jits_Phase_8,3,1,48,39,1688172768
10717,15,Jits_Phase_8,0,5,63,98,1688896884
10717,15,Jits_Phase_8,1,1,48,34,1688916492
10717,15,Jits_Phase_8,2,5,80,127,1688957344
10717,15,Jits_Phase_8,3,5,56,103,1688976828
10717,15,Jits_Phase_8,4,1,48,23,1689001508
10717,15,Jits_Phase_8,0,1,48,41,1689655388
10717,15,Jits_Phase_8,1,5,63,98,1689656884
10717,15,Jits_Phase_8,2,5,56,103,1689707012
10717,15,Jits_Phase_8,3,5,80,127,1689717056
10717,15,Jits_Phase_8,4,1,48,26,1689756424
10717,15,Jits_Phase_8,0,1,48,36,1690413328
10717,15,Jits_Phase_8,1,5,56,103,1690487160
10717,15,Jits_Phase_8,2,5,80,127,1690497356
10717,15,Jits_Phase_8,3,1,48,27,1690506388
10717,15,Jits_Phase_8,4,5,63,98,1690596828
10717,15,Jits_Phase_8,0,5,80,127,1691247016
10717,15,Jits_Phase_8,1,5,63,98,1691257216
10717,15,Jits_Phase_8,2,1,48,48,1691266184
10717,15,Jits_Phase_8,3,5,56,103,1691406804
10717,15,Jits_Phase_8,0,5,63,98,1692057048
10717,15,Jits_Phase_8,1,5,80,127,1692096916
10717,15,Jits_Phase_8,2,1,48,45,1692100932
10717,15,Jits_Phase_8,3,1,48,21,1692172528
10717,15,Jits_Phase_8,4,5,56,103,1692176752
10717,15,Jits_Phase_8,0,5,56,103,1692806492
10717,15,Jits_Phase_8,1,5,80,127,1692906812
10717,15,Jits_Phase_8,2,5,63,98,1692927272
10717,15,Jits_Phase_8,3,1,48,50,1692942748
10717,15,Jits_Phase_8,0,5,80,127,1693626720
10717,15,Jits_Phase_8,1,5,56,103,1693636916
10717,15,Jits_Phase_8,2,1,48,48,1693707984
10717,15,Jits_Phase_8,3,5,63,98,1693727140
10717,15,Jits_Phase_8,0,5,56,103,1694426344
10717,15,Jits_Phase_8,1,5,63,98,1694447028
10717,15,Jits_Phase_8,2,1,48,53,1694500440
10717,15,Jits_Phase_8,3,5,80,127,1694526988
10717,15,Jits_Phase_8,0,5,63,98,1695177044
10717,15,Jits_Phase_8,1,1,48,43,1695187880
10717,15,Jits_Phase_8,2,1,48,29,1695244880
10717,15,Jits_Phase_8,3,5,56,103,1695267172
10717,15,Jits_Phase_8,4,5,80,127,1695270164
10717,15,Jits_Phase_8,0,1,48,54,1695912572
10717,15,Jits_Phase_8,1,5,56,103,1696006916
10717,15,Jits_Phase_8,2,5,80,127,1696066888
10717,15,Jits_Phase_8,3,5,63,98,1696077232
10717,15,Jits_Phase_8,0,1,48,54,1696736916
10717,15,Jits_Phase_8,1,5,80,127,1696856376
10717,15,Jits_Phase_8,2,5,56,103,1696866792
10717,15,Jits_Phase_8,3,5,63,98,1696869788
10717,15,Jits_Phase_8,0,1,48,52,1697597828
10717,15,Jits_Phase_8,1,5,56,103,1697617404
10717,15,Jits_Phase_8,2,5,80,127,1697626552
10717,15,Jits_Phase_8,3,5,63,98,1697646936
10717,15,Jits_Phase_8,0,5,63,98,1698387196
10717,15,Jits_Phase_8,1,5,80,127,1698446616
10717,15,Jits_Phase_8,2,1,48,57,1698453772
10717,15,Jits_Phase_8,3,5,56,103,1698496808
10717,15,Jits_Phase_8,0,5,63,98,1699266824
10717,15,Jits_Phase_8,1,1,48,42,1699270916
10717,15,Jits_Phase_8,2,5,56,103,1699277312
10717,15,Jits_Phase_8,3,5,80,127,1699327288
10717,15,Jits_Phase_8,0,5,63,98,1699967312
10717,15,Jits_Phase_8,1,5,80,127,1699986724
10717,15,Jits_Phase_8,2,5,56,103,1699996992
10717,15,Jits_Phase_8,3,1,48,41,1700077876
10717,15,Jits_Phase_8,0,1,48,46,1700765764
10717,15,Jits_Phase_8,1,5,63,98,1700767428
10717,15,Jits_Phase_8,2,5,80,127,1700770564
10717,15,Jits_Phase_8,3,5,56,103,1700807140
10717,15,Jits_Phase_8,4,1,48,34,1700859312
10717,15,Jits_Phase_8,0,1,48,32,1701578112
10717,15,Jits_Phase_8,1,5,63,98,1701636576
10717,15,Jits_Phase_8,2,5,80,127,1701667176
10717,15,Jits_Phase_8,3,5,56,103,1701677728
10717,15,Jits_Phase_8,0,1,48,43,1702370452
10717,15,Jits_Phase_8,1,5,56,103,1702387036
10717,15,Jits_Phase_8,2,5,80,127,1702416936
10717,15,Jits_Phase_8,3,5,63,98,1702446488
10717,15,Jits_Phase_8,0,1,48,57,1703211656
10717,15,Jits_Phase_8,1,5,63,98,1703287136
10717,15,Jits_Phase_8,2,5,56,103,1703327060
10717,15,Jits_Phase_8,3,5,80,127,1703330124
10717,15,Jits_Phase_8,0,5,80,127,1703986652
10717,15,Jits_Phase_8,1,5,56,103,1704066600
10717,15,Jits_Phase_8,2,1,48,45,1704071964
10717,15,Jits_Phase_8,3,5,63,98,1704116796
10717,15,Jits_Phase_8,0,5,80,127,1704766800
10717,15,Jits_Phase_8,1,5,56,103,1704787184
10717,15,Jits_Phase_8,2,1,48,48,1704829336
10717,15,Jits_Phase_8,3,5,63,98,1704877604
10717,15,Jits_Phase_8,0,5,80,127,1705607016
10717,15,Jits_Phase_8,1,1,48,34,1705612908
10717,15,Jits_Phase_8,2,5,63,98,1705646656
10717,15,Jits_Phase_8,3,5,56,103,1705687416
10717,15,Jits_Phase_8,0,5,63,98,1706416832
10717,15,Jits_Phase_8,1,1,48,52,1706421892
10717,15,Jits_Phase_8,2,5,80,127,1706476844
10717,15,Jits_Phase_8,3,5,56,103,1706506516
10717,15,Jits_Phase_8,0,1,48,53,1707250184
10717,15,Jits_Phase_8,1,5,56,103,1707257180
10717,15,Jits_Phase_8,2,5,80,127,1707286856
10717,15,Jits_Phase_8,3,5,63,98,1707376996
10717,15,Jits_Phase_8,0,5,56,103,1708067156
10717,15,Jits_Phase_8,1,1,48,52,1708072892
10717,15,Jits_Phase_8,2,5,80,127,1708176676
10717,15,Jits_Phase_8,3,5,63,98,1708206648
10717,15,Jits_Phase_8,0,5,56,103,1708917056
10717,15,Jits_Phase_8,1,1,48,46,1708930364
10717,15,Jits_Phase_8,2,5,63,98,1708976768
10717,15,Jits_Phase_8,3,5,80,127,1709007116
10717,15,Jits_Phase_8,0,5,56,103,1709687092
10717,15,Jits_Phase_8,1,5,63,98,1709756924
10717,15,Jits_Phase_8,2,5,80,127,1709777156
10717,15,Jits_Phase_8,3,1,48,47,1709808148
10717,15,Jits_Phase_8,0,5,80,127,1710457268
10717,15,Jits_Phase_8,1,5,63,98,1710476832
10717,15,Jits_Phase_8,2,5,56,103,1710526808
10717,15,Jits_Phase_8,3,1,48,28,1710587312
10717,15,Jits_Phase_8,0,5,63,98,1711277492
10717,15,Jits_Phase_8,1,5,80,127,1711286716
10717,15,Jits_Phase_8,2,1,48,46,1711293800
10717,15,Jits_Phase_8,3,5,56,103,1711336760
10717,15,Jits_Phase_8,0,1,48,47,1712064168
10717,15,Jits_Phase_8,1,5,63,98,1712077168
10717,15,Jits_Phase_8,2,5,80,127,1712146772
10717,15,Jits_Phase_8,3,5,56,103,1712167244
10717,15,Jits_Phase_8,0,1,48,41,1712874660
10717,15,Jits_Phase_8,1,5,63,98,1712906668
10717,15,Jits_Phase_8,2,5,80,127,1712909880
10717,15,Jits_Phase_8,3,5,56,103,1712977252
10717,15,Jits_Phase_8,0,5,80,127,1713657272
10717,15,Jits_Phase_8,1,5,56,103,1713676760
10717,15,Jits_Phase_8,2,5,63,98,1713687032
10717,15,Jits_Phase_8,3,1,48,24,1713707632
10717,15,Jits_Phase_8,0,1,48,43,1714420588
10717,15,Jits_Phase_8,1,5,56,103,1714477436
10717,15,Jits_Phase_8,2,5,63,98,1714566580
10717,15,Jits_Phase_8,3,5,80,127,1714569872
10717,15,Jits_Phase_8,0,1,48,51,1715221912
10717,15,Jits_Phase_8,1,5,80,127,1715246692
10717,15,Jits_Phase_8,2,5,56,103,1715256668
10717,15,Jits_Phase_8,3,5,63,98,1715277124
10717,15,Jits_Phase_8,0,1,48,51,1716002500
10717,15,Jits_Phase_8,1,5,63,98,1716047116
10717,15,Jits_Phase_8,2,5,80,127,1716106592
10717,15,Jits_Phase_8,3,5,56,103,1716116936
10717,15,Jits_Phase_8,0,1,48,58,1716825568
10717,15,Jits_Phase_8,1,5,63,98,1716916620
10717,15,Jits_Phase_8,2,5,80,127,1716947476
10717,15,Jits_Phase_8,3,5,56,103,1716987188
10717,15,Jits_Phase_8,0,1,48,55,1717704580
10717,15,Jits_Phase_8,1,5,56,103,1717707092
10717,15,Jits_Phase_8,2,5,80,127,1717717288
10717,15,Jits_Phase_8,3,5,63,98,1717757448
10717,15,Jits_Phase_8,0,5,80,127,1718466996
10717,15,Jits_Phase_8,1,1,48,45,1718504664
10717,15,Jits_Phase_8,2,5,56,103,1718546784
10717,15,Jits_Phase_8,3,5,63,98,1718557008
10717,15,Jits_Phase_8,0,1,48,45,1719262532
10717,15,Jits_Phase_8,1,5,80,127,1719316736
10717,15,Jits_Phase_8,2,5,56,103,1719396688
10717,15,Jits_Phase_8,3,5,63,98,1719406812
10717,15,Jits_Phase_8,0,1,48,44,1720111476
10717,15,Jits_Phase_8,1,5,80,127,1720156388
10717,15,Jits_Phase_8,2,5,56,103,1720206740
10717,15,Jits_Phase_8,3,5,63,98,1720256924
10717,15,Jits_Phase_8,0,1,48,53,1720987876
10717,15,Jits_Phase_8,1,5,56,103,1721096596
10717,15,Jits_Phase_8,2,5,63,98,1721099516
10717,15,Jits_Phase_8,3,5,80,127,1721146672
10717,15,Jits_Phase_8,0,1,48,49,1721857380
10717,15,Jits_Phase_8,1,5,56,103,1721916840
10717,15,Jits_Phase_8,2,5,63,98,1721946588
10717,15,Jits_Phase_8,3,5,80,127,1721956696
10717,15,Jits_Phase_8,0,5,63,98,1722626604
10717,15,Jits_Phase_8,1,5,56,103,1722697280
10717,15,Jits_Phase_8,2,5,80,127,1722747480
10717,15,Jits_Phase_8,3,1,48,50,1722750380
10717,15,Jits_Phase_8,0,1,48,50,1723419684
10717,15,Jits_Phase_8,1,5,63,98,1723456872
10717,15,Jits_Phase_8,2,5,56,103,1723467140
10717,15,Jits_Phase_8,3,5,80,127,1723470132
10717,15,Jits_Phase_8,0,1,48,46,1724135416
10717,15,Jits_Phase_8,1,5,80,127,1724206416
10717,15,Jits_Phase_8,2,5,56,103,1724266868
10717,15,Jits_Phase_8,3,5,63,98,1724356924
10717,15,Jits_Phase_8,0,5,80,127,1725007228
10717,15,Jits_Phase_8,1,1,48,52,1725038820
10717,15,Jits_Phase_8,2,5,56,103,1725106496
10717,15,Jits_Phase_8,3,5,63,98,1725146496
10717,15,Jits_Phase_8,0,5,56,103,1725857272
10717,15,Jits_Phase_8,1,1,48,53,1725876316
10717,15,Jits_Phase_8,2,5,63,98,1725877724
10717,15,Jits_Phase_8,3,5,80,127,1725916468
10717,15,Jits_Phase_8,0,5,63,98,1726627300
10717,15,Jits_Phase_8,1,5,56,103,1726646492
10717,15,Jits_Phase_8,2,1,48,46,1726696208
10717,15,Jits_Phase_8,3,5,80,127,1726746900
10717,15,Jits_Phase_8,0,1,48,40,1727361684
10717,15,Jits_Phase_8,1,5,63,98,1727416636
10717,15,Jits_Phase_8,2,5,80,127,1727527456
10717,15,Jits_Phase_8,3,5,56,103,1727556908
10717,15,Jits_Phase_8,0,1,48,48,1728229928
10717,15,Jits_Phase_8,1,5,56,103,1728237000
10717,15,Jits_Phase_8,2,5,63,98,1728266600
10717,15,Jits_Phase_8,3,5,80,127,1728316752
10717,15,Jits_Phase_8,0,5,63,98,1729007092
10717,15,Jits_Phase_8,1,5,56,103,1729036548
10717,15,Jits_Phase_8,2,1,48,32,1729041684
10717,15,Jits_Phase_8,3,5,80,127,1729086764
10717,15,Jits_Phase_8,0,1,48,42,1729803056
10717,15,Jits_Phase_8,1,5,56,103,1729837576
10717,15,Jits_Phase_8,2,5,63,98,1729856840
10717,15,Jits_Phase_8,3,5,80,127,1729936692
10717,15,Jits_Phase_8,0,5,63,98,1730606328
10717,15,Jits_Phase_8,1,1,48,43,1730634608
10717,15,Jits_Phase_8,2,5,56,103,1730666788
10717,15,Jits_Phase_8,3,5,80,127,1730696460
10717,15,Jits_Phase_8,0,1,48,40,1731421772
10717,15,Jits_Phase_8,1,5,56,103,1731447200
10717,15,Jits_Phase_8,2,5,80,127,1731506548
10717,15,Jits_Phase_8,3,5,63,98,1731546468
10717,15,Jits_Phase_8,0,5,63,98,1732226292
10717,15,Jits_Phase_8,1,1,48,23,1732243188
10717,15,Jits_Phase_8,2,5,56,103,1732286900
10717,15,Jits_Phase_8,3,5,80,127,1732356488
10717,15,Jits_Phase_8,0,1,48,18,1733022188
10717,15,Jits_Phase_8,1,5,56,103,1733107032
10717,15,Jits_Phase_8,2,5,63,98,1733117228
10717,15,Jits_Phase_8,3,5,80,127,1733121548
10717,15,Jits_Phase_8,0,5,63,98,1733847376
10717,15,Jits_Phase_8,1,1,48,46,1733861056
10717,15,Jits_Phase_8,2,5,56,103,1733906860
10717,15,Jits_Phase_8,3,5,80,127,1733910224
10717,15,Jits_Phase_8,0,5,63,98,1734626744
10717,15,Jits_Phase_8,1,1,48,60,1734652260
10717,15,Jits_Phase_8,2,5,80,127,1734657536
10717,15,Jits_Phase_8,3,5,56,103,1734676724
10717,15,Jits_Phase_8,0,5,56,103,1735356744
10717,15,Jits_Phase_8,1,5,63,98,1735406872
10717,15,Jits_Phase_8,2,1,48,58,1735460884
10717,15,Jits_Phase_8,3,5,80,127,1735486756
10717,15,Jits_Phase_8,0,5,80,127,1736057184
10717,15,Jits_Phase_8,1,5,63,98,1736097348
10717,15,Jits_Phase_8,2,5,56,103,1736116536
10717,15,Jits_Phase_8,3,1,48,50,1736176144
10717,15,Jits_Phase_8,0,1,48,45,1736819528
10717,15,Jits_Phase_8,1,5,56,103,1736926532
10717,15,Jits_Phase_8,2,5,80,127,1736936804
10717,15,Jits_Phase_8,3,5,63,98,1736957264
10717,15,Jits_Phase_8,0,1,48,53,1737674348
10717,15,Jits_Phase_8,1,5,56,103,1737706752
10717,15,Jits_Phase_8,2,5,63,98,1737757128
10717,15,Jits_Phase_8,3,5,80,127,1737786712
10717,15,Jits_Phase_8,0,5,56,103,1738456396
10717,15,Jits_Phase_8,1,5,63,98,1738466816
10717,15,Jits_Phase_8,2,1,48,57,1738480652
10717,15,Jits_Phase_8,3,5,80,127,1738516788
10717,15,Jits_Phase_8,0,1,48,48,1739243536
10717,15,Jits_Phase_8,1,5,56,103,1739246936
10717,15,Jits_Phase_8,2,5,80,127,1739250300
10717,15,Jits_Phase_8,3,5,63,98,1739406672
10717,15,Jits_Phase_8,0,5,63,98,1740067244
10717,15,Jits_Phase_8,1,1,48,59,1740098612
10717,15,Jits_Phase_8,2,5,56,103,1740136768
10717,15,Jits_Phase_8,3,5,80,127,1740176780
10717,15,Jits_Phase_8,0,1,48,53,1740876560
10717,15,Jits_Phase_8,1,5,63,98,1740906776
10717,15,Jits_Phase_8,2,5,56,103,1740997264
10717,15,Jits_Phase_8,3,5,80,127,1741000332
10717,15,Jits_Phase_8,0,1,48,53,1741664480
10717,15,Jits_Phase_8,1,5,56,103,1741687348
10717,15,Jits_Phase_8,2,5,63,98,1741777244
10717,15,Jits_Phase_8,3,5,80,127,1741786544
10717,15,Jits_Phase_8,0,5,56,103,1742457220
10717,15,Jits_Phase_8,1,5,63,98,1742507352
10717,15,Jits_Phase_8,2,1,48,58,1742510324
10717,15,Jits_Phase_8,3,5,80,127,1742537092
10717,15,Jits_Phase_8,0,1,48,55,1743254868
10717,15,Jits_Phase_8,1,5,63,98,1743336852
10717,15,Jits_Phase_8,2,5,80,127,1743347124
10717,15,Jits_Phase_8,3,5,56,103,1743406400
10717,15,Jits_Phase_8,0,5,63,98,1744056608
10717,15,Jits_Phase_8,1,1,48,59,1744085136
10717,15,Jits_Phase_8,2,5,80,127,1744117364
10717,15,Jits_Phase_8,3,5,56,103,1744157104
10717,15,Jits_Phase_8,0,1,48,41,1744921684
10717,15,Jits_Phase_8,1,5,56,103,1744956924
10717,15,Jits_Phase_8,2,5,80,127,1744977308
10717,15,Jits_Phase_8,3,5,63,98,1744996572
10717,15,Jits_Phase_8,0,5,63,98,1745676656
10717,15,Jits_Phase_8,1,5,56,103,1745697064
10717,15,Jits_Phase_8,2,5,80,127,1745737224
10717,15,Jits_Phase_8,3,1,48,53,1745756756
10717,15,Jits_Phase_8,0,5,63,98,1746486772
10717,15,Jits_Phase_8,1,5,80,127,1746517496
10717,15,Jits_Phase_8,2,1,48,54,1746521064
10717,15,Jits_Phase_8,3,5,56,103,1746536828
10717,15,Jits_Phase_8,0,1,48,55,1747201432
10717,15,Jits_Phase_8,1,5,80,127,1747256704
10717,15,Jits_Phase_8,2,5,56,103,1747307120
10717,15,Jits_Phase_8,3,5,63,98,1747367432
10717,15,Jits_Phase_8,0,1,48,57,1747982384
10717,15,Jits_Phase_8,1,5,63,98,1748047096
10717,15,Jits_Phase_8,2,5,56,103,1748167108
10717,15,Jits_Phase_8,3,5,80,127,1748196708
10717,15,Jits_Phase_8,0,5,80,127,1748887092
10717,15,Jits_Phase_8,1,1,48,54,1748893428
10717,15,Jits_Phase_8,2,5,63,98,1748907248
10717,15,Jits_Phase_8,3,5,56,103,1748977152
10717,15,Jits_Phase_8,0,1,48,49,1749694464
10717,15,Jits_Phase_8,1,5,63,98,1749707236
10717,15,Jits_Phase_8,2,5,56,103,1749717284
10717,15,Jits_Phase_8,3,5,80,127,1749797212
10717,15,Jits_Phase_8,0,1,48,46,1750452020
10717,15,Jits_Phase_8,1,5,56,103,1750567148
10717,15,Jits_Phase_8,2,5,80,127,1750597048
10717,15,Jits_Phase_8,3,5,63,98,1750607096
10717,15,Jits_Phase_8,0,9999,9999,9999,1615724620
10717,15,Jits_Phase_8,1,9999,9999,9999,1616524412
10717,15,Jits_Phase_8,2,9999,9999,9999,1617324148
10717,15,Jits_Phase_8,3,9999,9999,9999,1618124856
10717,15,Jits_Phase_8,4,9999,9999,9999,1618924660
10717,15,Jits_Phase_8,5,9999,9999,9999,1619724384
10717,15,Jits_Phase_8,6,9999,9999,9999,1620524144
10717,15,Jits_Phase_8,7,9999,9999,9999,1621324924
10717,15,Jits_Phase_8,8,9999,9999,9999,1622124620
10717,15,Jits_Phase_8,9,9999,9999,9999,1622924344
10717,15,Jits_Phase_8,10,9999,9999,9999,1623724120
10717,15,Jits_Phase_8,11,9999,9999,9999,1624524856
10717,15,Jits_Phase_8,12,9999,9999,9999,1625324632
10717,15,Jits_Phase_8,13,9999,9999,9999,1626124404
10717,15,Jits_Phase_8,14,9999,9999,9999,1626924096
10717,15,Jits_Phase_8,15,9999,9999,9999,1627724892
10717,15,Jits_Phase_8,16,9999,9999,9999,1628524632
10717,15,Jits_Phase_8,17,9999,9999,9999,1629324412
10717,15,Jits_Phase_8,18,9999,9999,9999,1630124100
10717,15,Jits_Phase_8,19,9999,9999,9999,1630924916
10717,15,Jits_Phase_8,20,9999,9999,9999,1631724600
10717,15,Jits_Phase_8,21,9999,9999,9999,1632524360
10717,15,Jits_Phase_8,22,9999,9999,9999,1633324148
10717,15,Jits_Phase_8,23,9999,9999,9999,1634124876
10717,15,Jits_Phase_8,24,9999,9999,9999,1634924632
10717,15,Jits_Phase_8,25,9999,9999,9999,1635724388
10717,15,Jits_Phase_8,26,9999,9999,9999,1636524152
10717,15,Jits_Phase_8,27,9999,9999,9999,1637324880
10717,15,Jits_Phase_8,28,9999,9999,9999,1638124640
10717,15,Jits_Phase_8,29,9999,9999,9999,1638924344
10717,15,Jits_Phase_8,30,9999,9999,9999,1639704692
10717,15,Jits_Phase_8,31,9999,9999,9999,1640504440
10717,15,Jits_Phase_8,32,9999,9999,9999,1641304136
10717,15,Jits_Phase_8,33,9999,9999,9999,1642104944
10717,15,Jits_Phase_8,34,9999,9999,9999,1642904636
10717,15,Jits_Phase_8,35,9999,9999,9999,1643704416
10717,15,Jits_Phase_8,36,9999,9999,9999,1644504180
10717,15,Jits_Phase_8,37,9999,9999,9999,1645304908
10717,15,Jits_Phase_8,38,9999,9999,9999,1646104676
10717,15,Jits_Phase_8,39,9999,9999,9999,1646904392
10717,15,Jits_Phase_8,40,9999,9999,9999,1647704168
10717,15,Jits_Phase_8,41,9999,9999,9999,1648504912
10717,15,Jits_Phase_8,42,9999,9999,9999,1649304664
10717,15,Jits_Phase_8,43,9999,9999,9999,1650104424
10717,15,Jits_Phase_8,44,9999,9999,9999,1650904140
10717,15,Jits_Phase_8,45,9999,9999,9999,1651704948
10717,15,Jits_Phase_8,46,9999,9999,9999,1652504700
10717,15,Jits_Phase_8,47,9999,9999,9999,1653304412
10717,15,Jits_Phase_8,48,9999,9999,9999,1654124636
10717,15,Jits_Phase_8,49,9999,9999,9999,1654924404
10717,15,Jits_Phase_8,50,9999,9999,9999,1655724160
10717,15,Jits_Phase_8,51,9999,9999,9999,1656524888
10717,15,Jits_Phase_8,52,9999,9999,9999,1657324660
10717,15,Jits_Phase_8,53,9999,9999,9999,1658124352
10717,15,Jits_Phase_8,54,9999,9999,9999,1658924128
10717,15,Jits_Phase_8,55,9999,9999,9999,1659724872
10717,15,Jits_Phase_8,56,9999,9999,9999,1660524624
10717,15,Jits_Phase_8,57,9999,9999,9999,1661324400
10717,15,Jits_Phase_8,58,9999,9999,9999,1662124096
10717,15,Jits_Phase_8,59,9999,9999,9999,1662924900
10717,15,Jits_Phase_8,60,9999,9999,9999,1663724660
10717,15,Jits_Phase_8,61,9999,9999,9999,1664524348
10717,15,Jits_Phase_8,62,9999,9999,9999,1665324124
10717,15,Jits_Phase_8,63,9999,9999,9999,1666124920
10717,15,Jits_Phase_8,64,9999,9999,9999,1666964540
10717,15,Jits_Phase_8,65,9999,9999,9999,1667764304
10717,15,Jits_Phase_8,66,9999,9999,9999,1668565052
10717,15,Jits_Phase_8,67,9999,9999,9999,1669364816
10717,15,Jits_Phase_8,68,9999,9999,9999,1670164560
10717,15,Jits_Phase_8,69,9999,9999,9999,1670964276
10717,15,Jits_Phase_8,70,9999,9999,9999,1671765088
10717,15,Jits_Phase_8,71,9999,9999,9999,1672564856
10717,15,Jits_Phase_8,72,9999,9999,9999,1673364536
10717,15,Jits_Phase_8,73,9999,9999,9999,1674164308
10717,15,Jits_Phase_8,74,9999,9999,9999,1674965060
10717,15,Jits_Phase_8,75,9999,9999,9999,1675764820
10717,15,Jits_Phase_8,76,9999,9999,9999,1676564588
10717,15,Jits_Phase_8,77,9999,9999,9999,1677364308
10717,15,Jits_Phase_8,78,9999,9999,9999,1678165104
10717,15,Jits_Phase_8,79,9999,9999,9999,1678964800
10717,15,Jits_Phase_8,80,9999,9999,9999,1679764572
10717,15,Jits_Phase_8,81,9999,9999,9999,1680524400
10717,15,Jits_Phase_8,82,9999,9999,9999,1681324152
10717,15,Jits_Phase_8,83,9999,9999,9999,1682124880
10717,15,Jits_Phase_8,84,9999,9999,9999,1682924640
10717,15,Jits_Phase_8,85,9999,9999,9999,1683724412
10717,15,Jits_Phase_8,86,9999,9999,9999,1684524120
10717,15,Jits_Phase_8,87,9999,9999,9999,1685324916
10717,15,Jits_Phase_8,88,9999,9999,9999,1686124668
10717,15,Jits_Phase_8,89,9999,9999,9999,1686924360
10717,15,Jits_Phase_8,90,9999,9999,9999,1687724124
10717,15,Jits_Phase_8,91,9999,9999,9999,1688524924
10717,15,Jits_Phase_8,92,9999,9999,9999,1689324604
10717,15,Jits_Phase_8,93,9999,9999,9999,1690124384
10717,15,Jits_Phase_8,94,9999,9999,9999,1690924120
10717,15,Jits_Phase_8,95,9999,9999,9999,1691724896
10717,15,Jits_Phase_8,96,9999,9999,9999,1692524648
10717,15,Jits_Phase_8,97,9999,9999,9999,1693244520
10717,15,Jits_Phase_8,98,9999,9999,9999,1694044220
10717,15,Jits_Phase_8,99,9999,9999,9999,1694845040
10717,15,Jits_Phase_8,100,9999,9999,9999,1695644780
10717,15,Jits_Phase_8,101,9999,9999,9999,1696444516
10717,15,Jits_Phase_8,102,9999,9999,9999,1697244268
10717,15,Jits_Phase_8,103,9999,9999,9999,1698044992
10717,15,Jits_Phase_8,104,9999,9999,9999,1698844772
10717,15,Jits_Phase_8,105,9999,9999,9999,1699644540
10717,15,Jits_Phase_8,106,9999,9999,9999,1700444288
10717,15,Jits_Phase_8,107,9999,9999,9999,1701245052
10717,15,Jits_Phase_8,108,9999,9999,9999,1702044788
10717,15,Jits_Phase_8,109,9999,9999,9999,1702844544
10717,15,Jits_Phase_8,110,9999,9999,9999,1703644228
10717,15,Jits_Phase_8,111,9999,9999,9999,1704445032
10717,15,Jits_Phase_8,112,9999,9999,9999,1705244748
10717,15,Jits_Phase_8,113,9999,9999,9999,1706044520
10717,15,Jits_Phase_8,114,9999,9999,9999,1706924152
10717,15,Jits_Phase_8,115,9999,9999,9999,1707724880
10717,15,Jits_Phase_8,116,9999,9999,9999,1708524640
10717,15,Jits_Phase_8,117,9999,9999,9999,1709324348
10717,15,Jits_Phase_8,118,9999,9999,9999,1710124144
10717,15,Jits_Phase_8,119,9999,9999,9999,1710924884
10717,15,Jits_Phase_8,120,9999,9999,9999,1711724652
10717,15,Jits_Phase_8,121,9999,9999,9999,1712524416
10717,15,Jits_Phase_8,122,9999,9999,9999,1713324088
10717,15,Jits_Phase_8,123,9999,9999,9999,1714124884
10717,15,Jits_Phase_8,124,9999,9999,9999,1714924652
10717,15,Jits_Phase_8,125,9999,9999,9999,1715724400
10717,15,Jits_Phase_8,126,9999,9999,9999,1716524100
10717,15,Jits_Phase_8,127,9999,9999,9999,1717324908
10717,15,Jits_Phase_8,128,9999,9999,9999,1718124668
10717,15,Jits_Phase_8,129,9999,9999,9999,1718924352
10717,15,Jits_Phase_8,130,9999,9999,9999,1719724132
10717,15,Jits_Phase_8,131,9999,9999,9999,1720684612
10717,15,Jits_Phase_8,132,9999,9999,9999,1721484368
10717,15,Jits_Phase_8,133,9999,9999,9999,1722284128
10717,15,Jits_Phase_8,134,9999,9999,9999,1723084856
10717,15,Jits_Phase_8,135,9999,9999,9999,1723884600
10717,15,Jits_Phase_8,136,9999,9999,9999,1724684356
10717,15,Jits_Phase_8,137,9999,9999,9999,1725484140
10717,15,Jits_Phase_8,138,9999,9999,9999,1726284884
10717,15,Jits_Phase_8,139,9999,9999,9999,1727084652
10717,15,Jits_Phase_8,140,9999,9999,9999,1727884416
10717,15,Jits_Phase_8,141,9999,9999,9999,1728684096
10717,15,Jits_Phase_8,142,9999,9999,9999,1729484896
10717,15,Jits_Phase_8,143,9999,9999,9999,1730284652
10717,15,Jits_Phase_8,144,9999,9999,9999,1731084404
10717,15,Jits_Phase_8,145,9999,9999,9999,1731884112
10717,15,Jits_Phase_8,146,9999,9999,9999,1732684920
10717,15,Jits_Phase_8,147,9999,9999,9999,1733484668
10717,15,Jits_Phase_8,148,9999,9999,9999,1734284344
10717,15,Jits_Phase_8,149,9999,9999,9999,1735084096
10717,15,Jits_Phase_8,150,9999,9999,9999,1735724132
10717,15,Jits_Phase_8,151,9999,9999,9999,1736524876
10717,15,Jits_Phase_8,152,9999,9999,9999,1737324648
10717,15,Jits_Phase_8,153,9999,9999,9999,1738124408
10717,15,Jits_Phase_8,154,9999,9999,9999,1738924160
10717,15,Jits_Phase_8,155,9999,9999,9999,1739724888
10717,15,Jits_Phase_8,156,9999,9999,9999,1740524648
10717,15,Jits_Phase_8,157,9999,9999,9999,1741324400
10717,15,Jits_Phase_8,158,9999,9999,9999,1742124112
10717,15,Jits_Phase_8,159,9999,9999,9999,1742924912
10717,15,Jits_Phase_8,160,9999,9999,9999,1743724616
10717,15,Jits_Phase_8,161,9999,9999,9999,1744524376
10717,15,Jits_Phase_8,162,9999,9999,9999,1745324140
10717,15,Jits_Phase_8,163,9999,9999,9999,1746124864
10717,15,Jits_Phase_8,164,9999,9999,9999,1746924624
10717,15,Jits_Phase_8,165,9999,9999,9999,1747724384
10717,15,Jits_Phase_8,166,9999,9999,9999,1748524092
10717,15,Jits_Phase_8,167,9999,9999,9999,1749324892
10717,15,Jits_Phase_8,168,9999,9999,9999,1750124644
10717,15,Jits_Phase_8,169,9999,9999,9999,1750924412
10718,19,Jits_Linear_5,0,5,56,103,1759006064
10718,19,Jits_Linear_5,1,5,63,98,1759009160
10718,19,Jits_Linear_5,2,5,80,127,1759012360
10718,19,Jits_Linear_5,0,5,56,103,1759486276
10718,19,Jits_Linear_5,1,5,63,98,1759489372
10718,19,Jits_Linear_5,2,5,80,127,1759492424
10718,19,Jits_Linear_5,0,5,56,103,1759965484
10718,19,Jits_Linear_5,1,5,80,127,1759975904
10718,19,Jits_Linear_5,2,5,63,98,1759996140
10718,19,Jits_Linear_5,0,5,63,98,1760395768
10718,19,Jits_Linear_5,1,5,80,127,1760426344
10718,19,Jits_Linear_5,2,5,56,103,1760435496
10718,19,Jits_Linear_5,0,5,80,127,1760936248
10718,19,Jits_Linear_5,1,5,56,103,1760945400
10718,19,Jits_Linear_5,2,5,63,98,1760976120
10718,19,Jits_Linear_5,0,5,63,98,1761415464
10718,19,Jits_Linear_5,1,5,56,103,1761446188
10718,19,Jits_Linear_5,2,5,80,127,1761455412
10718,19,Jits_Linear_5,0,5,56,103,1761855996
10718,19,Jits_Linear_5,1,5,63,98,1761905976
10718,19,Jits_Linear_5,2,5,80,127,1761925536
10718,19,Jits_Linear_5,0,5,80,127,1762346292
10718,19,Jits_Linear_5,1,5,63,98,1762395524
10718,19,Jits_Linear_5,2,5,56,103,1762435460
10718,19,Jits_Linear_5,0,5,56,103,1762835884
10718,19,Jits_Linear_5,1,5,63,98,1762865512
10718,19,Jits_Linear_5,2,1,48,57,1762878368
10718,19,Jits_Linear_5,3,5,80,127,1762936308
10718,19,Jits_Linear_5,0,5,56,103,1763326220
10718,19,Jits_Linear_5,1,1,48,48,1763348748
10718,19,Jits_Linear_5,2,5,80,127,1763385808
10718,19,Jits_Linear_5,3,5,63,98,1763416384
10718,19,Jits_Linear_5,0,1,48,51,1763811576
10718,19,Jits_Linear_5,1,5,56,103,1763825996
10718,19,Jits_Linear_5,2,5,63,98,1763836340
10718,19,Jits_Linear_5,3,5,80,127,1763876308
10718,19,Jits_Linear_5,0,1,48,64,1764285792
10718,19,Jits_Linear_5,1,5,63,98,1764315488
10718,19,Jits_Linear_5,2,5,80,127,1764396344
10718,19,Jits_Linear_5,3,5,56,103,1764405640
10718,19,Jits_Linear_5,0,1,48,57,1764853276
10718,19,Jits_Linear_5,1,5,63,98,1764866424
10718,19,Jits_Linear_5,2,5,56,103,1764906388
10718,19,Jits_Linear_5,3,5,80,127,1764909380
10718,19,Jits_Linear_5,0,5,56,103,1765326176
10718,19,Jits_Linear_5,1,5,63,98,1765336448
10718,19,Jits_Linear_5,2,1,48,55,1765361744
10718,19,Jits_Linear_5,3,5,80,127,1765376308
10718,19,Jits_Linear_5,0,1,48,55,1765815760
10718,19,Jits_Linear_5,1,5,56,103,1765817192
10718,19,Jits_Linear_5,2,5,63,98,1765819864
10718,19,Jits_Linear_5,3,5,80,127,1765836212
10718,19,Jits_Linear_5,0,1,48,56,1766272388
10718,19,Jits_Linear_5,1,5,80,127,1766335808
10718,19,Jits_Linear_5,2,5,56,103,1766346228
10718,19,Jits_Linear_5,3,5,63,98,1766415820
10718,19,Jits_Linear_5,0,5,63,98,1766835724
10718,19,Jits_Linear_5,1,1,48,58,1766855056
10718,19,Jits_Linear_5,2,5,56,103,1766856628
10718,19,Jits_Linear_5,3,5,80,127,1766936128
10718,19,Jits_Linear_5,0,5,56,103,1767355844
10718,19,Jits_Linear_5,1,1,48,59,1767373044
10718,19,Jits_Linear_5,2,5,80,127,1767395852
10718,19,Jits_Linear_5,3,5,63,98,1767406048
10718,19,Jits_Linear_5,0,5,80,127,1767855472
10718,19,Jits_Linear_5,1,1,48,56,1767857916
10718,19,Jits_Linear_5,2,5,63,98,1767886188
10718,19,Jits_Linear_5,3,5,56,103,1767925980
10718,19,Jits_Linear_5,0,1,48,56,1768361648
10718,19,Jits_Linear_5,1,5,56,103,1768386108
10718,19,Jits_Linear_5,2,5,63,98,1768415564
10718,19,Jits_Linear_5,3,5,80,127,1768466048
10718,19,Jits_Linear_5,0,1,48,60,1768887872
10718,19,Jits_Linear_5,1,5,80,127,1768895916
10718,19,Jits_Linear_5,2,5,56,103,1768936004
10718,19,Jits_Linear_5,3,5,63,98,1768946200
10718,19,Jits_Linear_5,0,5,80,127,1769395684
10718,19,Jits_Linear_5,1,1,48,57,1769400296
10718,19,Jits_Linear_5,2,5,63,98,1769435468
10718,19,Jits_Linear_5,3,5,56,103,1769496008
10718,19,Jits_Linear_5,0,1,48,56,1769897644
10718,19,Jits_Linear_5,1,5,56,103,1769915732
10718,19,Jits_Linear_5,2,5,80,127,1769925928
10718,19,Jits_Linear_5,3,5,63,98,1770006008
10718,19,Jits_Linear_5,0,1,48,58,1770389432
10718,19,Jits_Linear_5,1,5,80,127,1770435920
10718,19,Jits_Linear_5,2,5,63,98,1770496296
10718,19,Jits_Linear_5,3,5,56,103,1770526072
10718,19,Jits_Linear_5,0,1,48,58,1770935132
10718,19,Jits_Linear_5,1,5,56,103,1770956132
10718,19,Jits_Linear_5,2,5,80,127,1771015556
10718,19,Jits_Linear_5,3,5,63,98,1771055556
10718,19,Jits_Linear_5,0,1,48,54,1771443864
10718,19,Jits_Linear_5,1,5,56,103,1771535820
10718,19,Jits_Linear_5,2,5,63,98,1771546100
10718,19,Jits_Linear_5,3,5,80,127,1771549312
10718,19,Jits_Linear_5,0,1,48,56,1772003560
10718,19,Jits_Linear_5,1,5,80,127,1772026204
10718,19,Jits_Linear_5,2,5,63,98,1772116280
10718,19,Jits_Linear_5,3,5,56,103,1772125428
10718,19,Jits_Linear_5,0,5,56,103,1772555708
10718,19,Jits_Linear_5,1,5,63,98,1772558884
10718,19,Jits_Linear_5,2,5,80,127,1772561928
10718,19,Jits_Linear_5,3,1,48,52,1772565740
10718,19,Jits_Linear_5,0,1,48,48,1773069596
10718,19,Jits_Linear_5,1,5,80,127,1773105392
10718,19,Jits_Linear_5,2,5,63,98,1773155672
10718,19,Jits_Linear_5,3,5,56,103,1773186600
10718,19,Jits_Linear_5,0,5,56,103,1773615424
10718,19,Jits_Linear_5,1,5,80,127,1773625844
10718,19,Jits_Linear_5,2,1,48,53,1773648072
10718,19,Jits_Linear_5,3,5,63,98,1773696268
10718,19,Jits_Linear_5,0,5,56,103,1774156108
10718,19,Jits_Linear_5,1,5,63,98,1774175668
10718,19,Jits_Linear_5,2,1,48,49,1774184864
10718,19,Jits_Linear_5,3,5,80,127,1774235980
10718,19,Jits_Linear_5,0,5,80,127,1774696040
10718,19,Jits_Linear_5,1,1,48,34,1774726880
10718,19,Jits_Linear_5,2,5,63,98,1774765344
10718,19,Jits_Linear_5,3,5,56,103,1774785952
10718,19,Jits_Linear_5,0,5,80,127,1775255904
10718,19,Jits_Linear_5,1,5,56,103,1775266028
10718,19,Jits_Linear_5,2,5,63,98,1775276372
10718,19,Jits_Linear_5,3,1,48,52,1775302628
10718,19,Jits_Linear_5,0,5,80,127,1775786396
10718,19,Jits_Linear_5,1,5,56,103,1775805884
10718,19,Jits_Linear_5,2,1,48,49,1775811468
10718,19,Jits_Linear_5,3,5,63,98,1775875632
10718,19,Jits_Linear_5,0,5,56,103,1776336368
10718,19,Jits_Linear_5,1,1,48,47,1776357996
10718,19,Jits_Linear_5,2,5,80,127,1776365816
10718,19,Jits_Linear_5,3,5,63,98,1776386352
10718,19,Jits_Linear_5,0,5,63,98,1776875784
10718,19,Jits_Linear_5,1,1,48,40,1776898236
10718,19,Jits_Linear_5,2,5,56,103,1776936196
10718,19,Jits_Linear_5,3,1,48,24,1776958928
10718,19,Jits_Linear_5,4,5,80,127,1776966072
10718,19,Jits_Linear_5,0,5,63,98,1777415676
10718,19,Jits_Linear_5,1,5,80,127,1777418964
10718,19,Jits_Linear_5,2,1,48,39,1777454340
10718,19,Jits_Linear_5,3,5,56,103,1777505752
10718,19,Jits_Linear_5,0,1,48,45,1777925584
10718,19,Jits_Linear_5,1,5,56,103,1777985872
10718,19,Jits_Linear_5,2,5,63,98,1778015848
10718,19,Jits_Linear_5,3,5,80,127,1778055624
10718,19,Jits_Linear_5,0,1,48,50,1778450512
10718,19,Jits_Linear_5,1,1,48,26,1778509256
10718,19,Jits_Linear_5,2,5,63,98,1778535736
10718,19,Jits_Linear_5,3,5,56,103,1778575900
10718,19,Jits_Linear_5,4,5,80,127,1778596060
10718,19,Jits_Linear_5,0,1,48,44,1779013348
10718,19,Jits_Linear_5,1,5,63,98,1779095956
10718,19,Jits_Linear_5,2,5,56,103,1779135880
10718,19,Jits_Linear_5,3,5,80,127,1779146224
10718,19,Jits_Linear_5,0,5,80,127,1779626292
10718,19,Jits_Linear_5,1,1,48,53,1779652784
10718,19,Jits_Linear_5,2,5,63,98,1779695972
10718,19,Jits_Linear_5,3,5,56,103,1779715312
10718,19,Jits_Linear_5,0,5,56,103,1780176196
10718,19,Jits_Linear_5,1,5,80,127,1780195684
10718,19,Jits_Linear_5,2,1,48,50,1780214616
10718,19,Jits_Linear_5,3,5,63,98,1780235692
10718,19,Jits_Linear_5,0,5,63,98,1780745572
10718,19,Jits_Linear_5,1,5,80,127,1780766204
10718,19,Jits_Linear_5,2,1,48,36,1780772836
10718,19,Jits_Linear_5,3,5,56,103,1780805992
10718,19,Jits_Linear_5,0,5,63,98,1781305744
10718,19,Jits_Linear_5,1,1,48,36,1781325076
10718,19,Jits_Linear_5,2,5,56,103,1781326720
10718,19,Jits_Linear_5,3,5,80,127,1781336544
10718,19,Jits_Linear_5,0,5,80,127,1781865964
10718,19,Jits_Linear_5,1,1,48,49,1781871028
10718,19,Jits_Linear_5,2,5,56,103,1781886268
10718,19,Jits_Linear_5,3,5,63,98,1781916020
10718,19,Jits_Linear_5,0,1,48,40,1782444980
10718,19,Jits_Linear_5,1,5,56,103,1782505840
10718,19,Jits_Linear_5,2,5,80,127,1782508984
10718,19,Jits_Linear_5,3,5,63,98,1782526224
10718,19,Jits_Linear_5,0,5,63,98,1782996312
10718,19,Jits_Linear_5,1,5,56,103,1783026140
10718,19,Jits_Linear_5,2,1,48,40,1783079628
10718,19,Jits_Linear_5,3,5,80,127,1783085500
10718,19,Jits_Linear_5,0,1,48,37,1783566768
10718,19,Jits_Linear_5,1,5,63,98,1783645788
10718,19,Jits_Linear_5,2,5,56,103,1783655836
10718,19,Jits_Linear_5,3,5,80,127,1783666016
10718,19,Jits_Linear_5,0,5,56,103,1784165788
10718,19,Jits_Linear_5,1,1,48,47,1784195016
10718,19,Jits_Linear_5,2,5,80,127,1784196508
10718,19,Jits_Linear_5,3,5,63,98,1784205880
10718,19,Jits_Linear_5,0,1,48,43,1784747496
10718,19,Jits_Linear_5,1,5,63,98,1784786260
10718,19,Jits_Linear_5,2,5,56,103,1784795636
10718,19,Jits_Linear_5,3,5,80,127,1784815872
10718,19,Jits_Linear_5,4,1,48,20,1784824976
10718,19,Jits_Linear_5,0,5,56,103,1785285932
10718,19,Jits_Linear_5,1,5,63,98,1785346548
10718,19,Jits_Linear_5,2,5,80,127,1785349764
10718,19,Jits_Linear_5,3,1,48,46,1785369696
10718,19,Jits_Linear_5,0,5,80,127,1785886116
10718,19,Jits_Linear_5,1,5,56,103,1785896240
10718,19,Jits_Linear_5,2,1,48,35,1785950900
10718,19,Jits_Linear_5,3,5,63,98,1785965916
10718,19,Jits_Linear_5,4,1,48,16,1786032988
10718,19,Jits_Linear_5,0,5,80,127,1786456516
10718,19,Jits_Linear_5,1,1,48,32,1786510956
10718,19,Jits_Linear_5,2,5,56,103,1786526124
10718,19,Jits_Linear_5,3,5,63,98,1786536168
10718,19,Jits_Linear_5,0,1,48,41,1787056440
10718,19,Jits_Linear_5,1,5,63,98,1787075944
10718,19,Jits_Linear_5,2,5,56,103,1787086064
10718,19,Jits_Linear_5,3,5,80,127,1787105848
10718,19,Jits_Linear_5,0,5,80,127,1787606500
10718,19,Jits_Linear_5,1,1,48,40,1787626708
10718,19,Jits_Linear_5,2,5,63,98,1787665916
10718,19,Jits_Linear_5,3,5,56,103,1787705808
10718,19,Jits_Linear_5,0,1,48,39,1788226224
10718,19,Jits_Linear_5,1,5,56,103,1788236064
10718,19,Jits_Linear_5,2,5,63,98,1788246784
10718,19,Jits_Linear_5,3,5,80,127,1788286200
10718,19,Jits_Linear_5,0,5,56,103,1788786104
10718,19,Jits_Linear_5,1,1,48,39,1788800908
10718,19,Jits_Linear_5,2,5,80,127,1788815700
10718,19,Jits_Linear_5,3,5,63,98,1788865828
10718,19,Jits_Linear_5,0,1,48,37,1789365720
10718,19,Jits_Linear_5,1,5,56,103,1789415716
10718,19,Jits_Linear_5,2,5,63,98,1789455576
10718,19,Jits_Linear_5,3,5,80,127,1789458872
10718,19,Jits_Linear_5,0,5,56,103,1790005604
10718,19,Jits_Linear_5,1,5,63,98,1790015952
10718,19,Jits_Linear_5,2,1,48,21,1790021988
10718,19,Jits_Linear_5,3,5,80,127,1790036476
10718,19,Jits_Linear_5,0,5,56,103,1790555500
10718,19,Jits_Linear_5,1,5,80,127,1790558716
10718,19,Jits_Linear_5,2,5,63,98,1790595588
10718,19,Jits_Linear_5,3,1,48,41,1790604856
10718,19,Jits_Linear_5,0,5,63,98,1791186232
10718,19,Jits_Linear_5,1,1,48,40,1791202832
10718,19,Jits_Linear_5,2,5,56,103,1791216124
10718,19,Jits_Linear_5,3,5,80,127,1791235612
10718,19,Jits_Linear_5,4,1,48,23,1791277024
10718,19,Jits_Linear_5,0,5,80,127,1791755572
10718,19,Jits_Linear_5,1,5,56,103,1791765992
10718,19,Jits_Linear_5,2,5,63,98,1791776064
10718,19,Jits_Linear_5,3,1,48,49,1791810868
10718,19,Jits_Linear_5,0,5,56,103,1792355688
10718,19,Jits_Linear_5,1,5,80,127,1792395552
10718,19,Jits_Linear_5,2,5,63,98,1792426500
10718,19,Jits_Linear_5,3,1,48,40,1792450744
10718,19,Jits_Linear_5,0,5,63,98,1792966044
10718,19,Jits_Linear_5,1,5,80,127,1792976092
10718,19,Jits_Linear_5,2,5,56,103,1792985612
10718,19,Jits_Linear_5,3,1,48,35,1793046576
10718,19,Jits_Linear_5,0,5,56,103,1793545712
10718,19,Jits_Linear_5,1,1,48,34,1793600400
10718,19,Jits_Linear_5,2,5,63,98,1793616092
10718,19,Jits_Linear_5,3,5,80,127,1793625612
10718,19,Jits_Linear_5,0,5,80,127,1794155952
10718,19,Jits_Linear_5,1,5,56,103,1794166072
10718,19,Jits_Linear_5,2,1,48,28,1794183588
10718,19,Jits_Linear_5,3,5,63,98,1794216268
10718,19,Jits_Linear_5,0,1,48,31,1794711420
10718,19,Jits_Linear_5,1,5,80,127,1794776564
10718,19,Jits_Linear_5,2,5,56,103,1794835820
10718,19,Jits_Linear_5,3,5,63,98,1794865672
10718,19,Jits_Linear_5,0,5,56,103,1795385892
10718,19,Jits_Linear_5,1,5,80,127,1795388808
10718,19,Jits_Linear_5,2,1,48,34,1795405876
10718,19,Jits_Linear_5,3,5,63,98,1795425748
10718,19,Jits_Linear_5,0,1,48,33,1795947660
10718,19,Jits_Linear_5,1,5,56,103,1796025608
10718,19,Jits_Linear_5,2,5,63,98,1796056544
10718,19,Jits_Linear_5,3,5,80,127,1796065692
10718,19,Jits_Linear_5,0,1,48,26,1796593740
10718,19,Jits_Linear_5,1,5,63,98,1796646244
10718,19,Jits_Linear_5,2,5,80,127,1796655544
10718,19,Jits_Linear_5,3,5,56,103,1796665816
10718,19,Jits_Linear_5,0,5,80,127,1797206624
10718,19,Jits_Linear_5,1,1,48,51,1797247284
10718,19,Jits_Linear_5,2,5,56,103,1797255624
10718,19,Jits_Linear_5,3,5,63,98,1797258840
10718,19,Jits_Linear_5,0,1,48,46,1797819784
10718,19,Jits_Linear_5,1,5,56,103,1797855628
10718,19,Jits_Linear_5,2,5,80,127,1797876088
10718,19,Jits_Linear_5,3,5,63,98,1797886656
10718,19,Jits_Linear_5,0,1,48,49,1798427760
10718,19,Jits_Linear_5,1,5,63,98,1798455808
10718,19,Jits_Linear_5,2,5,56,103,1798486532
10718,19,Jits_Linear_5,3,5,80,127,1798505796
10718,19,Jits_Linear_5,0,1,48,41,1799077512
10718,19,Jits_Linear_5,1,5,56,103,1799085484
10718,19,Jits_Linear_5,2,5,80,127,1799095604
10718,19,Jits_Linear_5,3,5,63,98,1799166484
10718,19,Jits_Linear_5,0,5,63,98,1799705900
10718,19,Jits_Linear_5,1,1,48,49,1799721228
10718,19,Jits_Linear_5,2,5,80,127,1799745908
10718,19,Jits_Linear_5,3,5,56,103,1799785848
10718,19,Jits_Linear_5,0,1,48,44,1800338084
10718,19,Jits_Linear_5,1,5,56,103,1800345832
10718,19,Jits_Linear_5,2,5,63,98,1800356328
10718,19,Jits_Linear_5,3,5,80,127,1800375740
10718,19,Jits_Linear_5,0,1,48,44,1800949924
10718,19,Jits_Linear_5,1,5,63,98,1801015616
10718,19,Jits_Linear_5,2,5,80,127,1801036152
10718,19,Jits_Linear_5,3,5,56,103,1801055548
10718,19,Jits_Linear_5,0,5,56,103,1801585960
10718,19,Jits_Linear_5,1,1,48,43,1801623612
10718,19,Jits_Linear_5,2,5,80,127,1801665828
10718,19,Jits_Linear_5,3,5,63,98,1801676024
10718,19,Jits_Linear_5,0,5,80,127,1802255740
10718,19,Jits_Linear_5,1,5,63,98,1802265960
10718,19,Jits_Linear_5,2,1,48,35,1802282856
10718,19,Jits_Linear_5,3,5,56,103,1802295704
10718,19,Jits_Linear_5,0,5,63,98,1802845516
10718,19,Jits_Linear_5,1,1,48,42,1802861512
10718,19,Jits_Linear_5,2,5,80,127,1802885376
10718,19,Jits_Linear_5,3,5,56,103,1802945992
10718,19,Jits_Linear_5,0,5,63,98,1803485680
10718,19,Jits_Linear_5,1,1,48,31,1803510224
10718,19,Jits_Linear_5,2,5,56,103,1803535880
10718,19,Jits_Linear_5,3,5,80,127,1803565652
10718,19,Jits_Linear_5,4,1,48,16,1803589956
10718,19,Jits_Linear_5,0,1,48,39,1804117864
10718,19,Jits_Linear_5,1,5,80,127,1804135800
10718,19,Jits_Linear_5,2,5,63,98,1804146144
10718,19,Jits_Linear_5,3,5,56,103,1804216564
10718,19,Jits_Linear_5,0,1,48,39,1804753672
10718,19,Jits_Linear_5,1,5,80,127,1804845444
10718,19,Jits_Linear_5,2,5,56,103,1804855624
10718,19,Jits_Linear_5,3,5,63,98,1804858912
10718,19,Jits_Linear_5,0,5,56,103,1805426120
10718,19,Jits_Linear_5,1,5,80,127,1805445608
10718,19,Jits_Linear_5,2,5,63,98,1805455728
10718,19,Jits_Linear_5,3,1,48,32,1805474288
10718,19,Jits_Linear_5,0,1,48,36,1806064700
10718,19,Jits_Linear_5,1,5,63,98,1806076552
10718,19,Jits_Linear_5,2,5,56,103,1806116372
10718,19,Jits_Linear_5,3,5,80,127,1806135712
10718,19,Jits_Linear_5,0,1,48,36,1806702704
10718,19,Jits_Linear_5,1,5,63,98,1806725444
10718,19,Jits_Linear_5,2,5,56,103,1806785832
10718,19,Jits_Linear_5,3,5,80,127,1806788900
10718,19,Jits_Linear_5,0,5,56,103,1807335788
10718,19,Jits_Linear_5,1,5,80,127,1807356248
10718,19,Jits_Linear_5,2,1,48,34,1807366636
10718,19,Jits_Linear_5,3,5,63,98,1807396500
10718,19,Jits_Linear_5,0,1,48,40,1807949052
10718,19,Jits_Linear_5,1,5,56,103,1808015692
10718,19,Jits_Linear_5,2,5,63,98,1808036452
10718,19,Jits_Linear_5,3,5,80,127,1808045436
10718,19,Jits_Linear_5,0,5,80,127,1808636304
10718,19,Jits_Linear_5,1,1,48,45,1808658904
10718,19,Jits_Linear_5,2,5,56,103,1808666148
10718,19,Jits_Linear_5,3,5,63,98,1808705940
10718,19,Jits_Linear_5,0,5,80,127,1809295760
10718,19,Jits_Linear_5,1,5,56,103,1809316296
10718,19,Jits_Linear_5,2,5,63,98,1809375568
10718,19,Jits_Linear_5,3,1,48,46,1809379584
10718,19,Jits_Linear_5,0,5,56,103,1809956412
10718,19,Jits_Linear_5,1,5,80,127,1809975604
10718,19,Jits_Linear_5,2,1,48,41,1809983604
10718,19,Jits_Linear_5,3,5,63,98,1810036512
10718,19,Jits_Linear_5,0,5,80,127,1810596516
10718,19,Jits_Linear_5,1,5,56,103,1810605368
10718,19,Jits_Linear_5,2,1,48,43,1810612452
10718,19,Jits_Linear_5,3,5,63,98,1810646496
10718,19,Jits_Linear_5,0,1,48,40,1811248424
10718,19,Jits_Linear_5,1,5,63,98,1811255568
10718,19,Jits_Linear_5,2,5,56,103,1811295728
10718,19,Jits_Linear_5,3,5,80,127,1811298796
10718,19,Jits_Linear_5,0,1,48,49,1811856276
10718,19,Jits_Linear_5,1,5,63,98,1811935504
10718,19,Jits_Linear_5,2,5,80,127,1811975504
10718,19,Jits_Linear_5,3,5,56,103,1812006400
10718,19,Jits_Linear_5,0,5,56,103,1812585812
10718,19,Jits_Linear_5,1,5,63,98,1812596380
10718,19,Jits_Linear_5,2,1,48,44,1812621748
10718,19,Jits_Linear_5,3,5,80,127,1812625900
10718,19,Jits_Linear_5,0,1,48,50,1813243472
10718,19,Jits_Linear_5,1,5,80,127,1813246208
10718,19,Jits_Linear_5,2,5,63,98,1813316068
10718,19,Jits_Linear_5,3,5,56,103,1813326188
10718,19,Jits_Linear_5,0,5,63,98,1813915996
10718,19,Jits_Linear_5,1,5,56,103,1813985608
10718,19,Jits_Linear_5,2,1,48,51,1813990144
10718,19,Jits_Linear_5,3,5,80,127,1813995872
10718,19,Jits_Linear_5,0,1,48,53,1814584348
10718,19,Jits_Linear_5,1,5,63,98,1814585924
10718,19,Jits_Linear_5,2,5,56,103,1814606384
10718,19,Jits_Linear_5,3,5,80,127,1814646100
10718,19,Jits_Linear_5,0,1,48,58,1815229420
10718,19,Jits_Linear_5,1,5,56,103,1815265716
10718,19,Jits_Linear_5,2,5,63,98,1815275916
10718,19,Jits_Linear_5,3,5,80,127,1815355796
10718,19,Jits_Linear_5,0,5,63,98,1815926288
10718,19,Jits_Linear_5,1,1,48,65,1815937280
10718,19,Jits_Linear_5,2,5,56,103,1815955812
10718,19,Jits_Linear_5,3,5,80,127,1815995752
10718,19,Jits_Linear_5,0,5,56,103,1816595752
10718,19,Jits_Linear_5,1,1,48,61,1816607336
10718,19,Jits_Linear_5,2,5,63,98,1816635836
10718,19,Jits_Linear_5,3,5,80,127,1816675624
10718,19,Jits_Linear_5,0,5,80,127,1817275860
10718,19,Jits_Linear_5,1,1,48,62,1817303860
10718,19,Jits_Linear_5,2,5,56,103,1817355580
10718,19,Jits_Linear_5,3,5,63,98,1817366172
10718,19,Jits_Linear_5,0,5,56,103,1817995780
10718,19,Jits_Linear_5,1,5,63,98,1817998772
10718,19,Jits_Linear_5,2,1,48,54,1818001964
10718,19,Jits_Linear_5,3,5,80,127,1818005820
10718,19,Jits_Linear_5,0,1,48,44,1818627224
10718,19,Jits_Linear_5,1,5,56,103,1818696128
10718,19,Jits_Linear_5,2,5,63,98,1818715468
10718,19,Jits_Linear_5,3,5,80,127,1818725648
10718,19,Jits_Linear_5,0,1,48,47,1819305548
10718,19,Jits_Linear_5,1,5,63,98,1819335992
10718,19,Jits_Linear_5,2,5,80,127,1819346336
10718,19,Jits_Linear_5,3,5,56,103,1819365748
10718,19,Jits_Linear_5,0,1,48,46,1819969324
10718,19,Jits_Linear_5,1,5,63,98,1820026228
10718,19,Jits_Linear_5,2,5,56,103,1820106308
10718,19,Jits_Linear_5,3,5,80,127,1820109448
10718,19,Jits_Linear_5,0,5,63,98,1820716388
10718,19,Jits_Linear_5,1,5,56,103,1820736024
10718,19,Jits_Linear_5,2,1,48,52,1820741764
10718,19,Jits_Linear_5,3,5,80,127,1820765472
10718,19,Jits_Linear_5,0,5,56,103,1821405552
10718,19,Jits_Linear_5,1,1,48,46,1821415868
10718,19,Jits_Linear_5,2,5,63,98,1821426376
10718,19,Jits_Linear_5,3,5,80,127,1821436200
10718,19,Jits_Linear_5,0,1,48,43,1822081080
10718,19,Jits_Linear_5,1,5,56,103,1822125392
10718,19,Jits_Linear_5,2,5,63,98,1822156264
10718,19,Jits_Linear_5,3,5,80,127,1822159480
10718,19,Jits_Linear_5,0,1,48,50,1822706400
10718,19,Jits_Linear_5,1,5,56,103,1822765420
10718,19,Jits_Linear_5,2,5,63,98,1822807512
10718,19,Jits_Linear_5,3,5,80,127,1822865884
10718,19,Jits_Linear_5,0,1,48,48,1823472224
10718,19,Jits_Linear_5,1,5,56,103,1823486420
10718,19,Jits_Linear_5,2,5,63,98,1823495572
10718,19,Jits_Linear_5,3,5,80,127,1823556136
10718,19,Jits_Linear_5,0,5,56,103,1824185656
10718,19,Jits_Linear_5,1,1,48,47,1824198740
10718,19,Jits_Linear_5,2,5,80,127,1824206332
10718,19,Jits_Linear_5,3,5,63,98,1824236156
10718,19,Jits_Linear_5,0,1,48,44,1824804320
10718,19,Jits_Linear_5,1,5,80,127,1824886084
10718,19,Jits_Linear_5,2,5,56,103,1824896356
10718,19,Jits_Linear_5,3,5,63,98,1824915904
10718,19,Jits_Linear_5,0,1,48,45,1825538056
10718,19,Jits_Linear_5,1,5,63,98,1825576244
10718,19,Jits_Linear_5,2,5,80,127,1825656176
10718,19,Jits_Linear_5,3,5,56,103,1825666300
10718,19,Jits_Linear_5,0,1,48,49,1826285312
10718,19,Jits_Linear_5,1,5,80,127,1826336232
10718,19,Jits_Linear_5,2,5,56,103,1826355496
10718,19,Jits_Linear_5,3,5,63,98,1826358416
10718,19,Jits_Linear_5,0,1,48,40,1826975844
10718,19,Jits_Linear_5,1,5,63,98,1827016024
10718,19,Jits_Linear_5,2,5,80,127,1827019464
10718,19,Jits_Linear_5,3,5,56,103,1827075368
10718,19,Jits_Linear_5,0,1,48,42,1827704064
10718,19,Jits_Linear_5,1,5,56,103,1827706180
10718,19,Jits_Linear_5,2,5,80,127,1827715404
10718,19,Jits_Linear_5,3,5,63,98,1827756464
10718,19,Jits_Linear_5,0,5,56,103,1828396268
10718,19,Jits_Linear_5,1,1,48,48,1828431744
10718,19,Jits_Linear_5,2,5,63,98,1828455756
10718,19,Jits_Linear_5,3,5,80,127,1828466252
10718,19,Jits_Linear_5,0,1,48,40,1829055368
10718,19,Jits_Linear_5,1,5,63,98,1829116232
10718,19,Jits_Linear_5,2,5,80,127,1829156184
10718,19,Jits_Linear_5,3,5,56,103,1829196272
10718,19,Jits_Linear_5,0,5,56,103,1829826028
10718,19,Jits_Linear_5,1,1,48,48,1829832216
10718,19,Jits_Linear_5,2,5,63,98,1829905896
10718,19,Jits_Linear_5,3,5,80,127,1829909188
10718,19,Jits_Linear_5,0,1,48,33,1830589492
10718,19,Jits_Linear_5,1,5,80,127,1830606152
10718,19,Jits_Linear_5,2,5,56,103,1830636124
10718,19,Jits_Linear_5,3,5,63,98,1830639044
10718,19,Jits_Linear_5,0,1,48,44,1831276804
10718,19,Jits_Linear_5,1,5,56,103,1831286192
10718,19,Jits_Linear_5,2,5,80,127,1831305608
10718,19,Jits_Linear_5,3,5,63,98,1831345472
10718,19,Jits_Linear_5,0,5,80,127,1831985500
10718,19,Jits_Linear_5,1,5,63,98,1832006260
10718,19,Jits_Linear_5,2,1,48,44,1832023400
10718,19,Jits_Linear_5,3,5,56,103,1832066344
10718,19,Jits_Linear_5,0,5,63,98,1832715512
10718,19,Jits_Linear_5,1,5,56,103,1832726028
10718,19,Jits_Linear_5,2,1,48,41,1832743376
10718,19,Jits_Linear_5,3,5,80,127,1832776152
10718,19,Jits_Linear_5,0,1,48,42,1833419268
10718,19,Jits_Linear_5,1,5,56,103,1833426264
10718,19,Jits_Linear_5,2,5,63,98,1833445752
10718,19,Jits_Linear_5,3,5,80,127,1833456096
10718,19,Jits_Linear_5,0,5,56,103,1834146020
10718,19,Jits_Linear_5,1,5,63,98,1834149092
10718,19,Jits_Linear_5,2,1,48,40,1834155960
10718,19,Jits_Linear_5,3,5,80,127,1834165504
10718,19,Jits_Linear_5,0,1,48,42,1834914688
10718,19,Jits_Linear_5,1,5,63,98,1834916196
10718,19,Jits_Linear_5,2,5,56,103,1834946172
10718,19,Jits_Linear_5,3,5,80,127,1834975624
10718,19,Jits_Linear_5,0,5,80,127,1835606516
10718,19,Jits_Linear_5,1,1,48,46,1835665836
10718,19,Jits_Linear_5,2,5,56,103,1835695524
10718,19,Jits_Linear_5,3,5,63,98,1835698444
10718,19,Jits_Linear_5,0,5,56,103,1836335492
10718,19,Jits_Linear_5,1,5,80,127,1836338412
10718,19,Jits_Linear_5,2,1,48,43,1836383872
10718,19,Jits_Linear_5,3,5,63,98,1836416328
10718,19,Jits_Linear_5,0,5,80,127,1837065568
10718,19,Jits_Linear_5,1,1,48,46,1837095836
10718,19,Jits_Linear_5,2,5,63,98,1837126128
10718,19,Jits_Linear_5,3,5,56,103,1837155880
10718,19,Jits_Linear_5,0,5,63,98,1837795676
10718,19,Jits_Linear_5,1,5,80,127,1837805872
10718,19,Jits_Linear_5,2,1,48,45,1837830936
10718,19,Jits_Linear_5,3,5,56,103,1837875576
10718,19,Jits_Linear_5,0,1,48,44,1838518616
10718,19,Jits_Linear_5,1,5,56,103,1838546144
10718,19,Jits_Linear_5,2,5,80,127,1838576192
10718,19,Jits_Linear_5,3,5,63,98,1838626104
10718,19,Jits_Linear_5,0,1,48,52,1839286172
10718,19,Jits_Linear_5,1,5,63,98,1839325536
10718,19,Jits_Linear_5,2,5,56,103,1839356176
10718,19,Jits_Linear_5,3,5,80,127,1839359248
10718,19,Jits_Linear_5,0,1,48,44,1840035896
10718,19,Jits_Linear_5,1,5,63,98,1840066108
10718,19,Jits_Linear_5,2,5,80,127,1840086348
10718,19,Jits_Linear_5,3,5,56,103,1840095496
10718,19,Jits_Linear_5,0,1,48,34,1840808464
10718,19,Jits_Linear_5,1,5,56,103,1840815380
10718,19,Jits_Linear_5,2,5,63,98,1840818528
10718,19,Jits_Linear_5,3,5,80,127,1840836144
10718,19,Jits_Linear_5,4,1,48,18,1840905480
10718,19,Jits_Linear_5,0,1,48,39,1841499340
10718,19,Jits_Linear_5,1,5,56,103,1841516220
10718,19,Jits_Linear_5,2,5,63,98,1841526120
10718,19,Jits_Linear_5,3,5,80,127,1841556020
10718,19,Jits_Linear_5,0,1,48,48,1842221556
10718,19,Jits_Linear_5,1,5,63,98,1842285952
10718,19,Jits_Linear_5,2,5,80,127,1842306412
10718,19,Jits_Linear_5,3,5,56,103,1842346336
10718,19,Jits_Linear_5,0,1,48,45,1843048988
10718,19,Jits_Linear_5,1,5,56,103,1843066100
10718,19,Jits_Linear_5,2,5,63,98,1843106032
10718,19,Jits_Linear_5,3,5,80,127,1843109400
10718,19,Jits_Linear_5,0,5,80,127,1843756480
10718,19,Jits_Linear_5,1,5,56,103,1843796272
10718,19,Jits_Linear_5,2,1,48,49,1843825244
10718,19,Jits_Linear_5,3,5,63,98,1843845420
10718,19,Jits_Linear_5,0,1,48,44,1844556460
10718,19,Jits_Linear_5,1,5,56,103,1844566448
10718,19,Jits_Linear_5,2,5,80,127,1844575896
10718,19,Jits_Linear_5,3,5,63,98,1844606320
10718,19,Jits_Linear_5,0,5,56,103,1845266032
10718,19,Jits_Linear_5,1,1,48,27,1845275400
10718,19,Jits_Linear_5,2,5,80,127,1845305696
10718,19,Jits_Linear_5,3,5,63,98,1845355824
10718,19,Jits_Linear_5,0,1,48,37,1845974072
10718,19,Jits_Linear_5,1,5,56,103,1846025804
10718,19,Jits_Linear_5,2,5,80,127,1846065548
10718,19,Jits_Linear_5,3,5,63,98,1846115736
10718,19,Jits_Linear_5,0,1,48,46,1846763672
10718,19,Jits_Linear_5,1,5,80,127,1846776128
10718,19,Jits_Linear_5,2,5,63,98,1846856100
10718,19,Jits_Linear_5,3,5,56,103,1846866280
10718,19,Jits_Linear_5,0,1,48,44,1847536460
10718,19,Jits_Linear_5,1,5,80,127,1847586112
10718,19,Jits_Linear_5,2,5,56,103,1847596460
10718,19,Jits_Linear_5,3,5,63,98,1847615796
10718,19,Jits_Linear_5,0,1,48,42,1848284016
10718,19,Jits_Linear_5,1,5,63,98,1848316256
10718,19,Jits_Linear_5,2,5,56,103,1848385948
10718,19,Jits_Linear_5,3,5,80,127,1848388868
10718,19,Jits_Linear_5,0,1,48,43,1849022780
10718,19,Jits_Linear_5,1,5,80,127,1849075936
10718,19,Jits_Linear_5,2,5,63,98,1849126224
10718,19,Jits_Linear_5,3,5,56,103,1849166312
10718,19,Jits_Linear_5,0,1,48,52,1849846088
10718,19,Jits_Linear_5,1,5,63,98,1849886072
10718,19,Jits_Linear_5,2,5,56,103,1849925940
10718,19,Jits_Linear_5,3,5,80,127,1849936208
10718,19,Jits_Linear_5,0,5,63,98,1850646068
10718,19,Jits_Linear_5,1,1,48,40,1850663944
10718,19,Jits_Linear_5,2,5,56,103,1850666372
10718,19,Jits_Linear_5,3,5,80,127,1850685936
10718,19,Jits_Linear_5,0,5,80,127,1851375912
10718,19,Jits_Linear_5,1,5,56,103,1851386108
10718,19,Jits_Linear_5,2,5,63,98,1851405968
10718,19,Jits_Linear_5,3,1,48,51,1851465600
10718,19,Jits_Linear_5,0,1,48,47,1852099532
10718,19,Jits_Linear_5,1,5,63,98,1852175764
10718,19,Jits_Linear_5,2,5,56,103,1852215940
10718,19,Jits_Linear_5,3,5,80,127,1852246588
10718,19,Jits_Linear_5,0,5,56,103,1852956016
10718,19,Jits_Linear_5,1,1,48,54,1852965060
10718,19,Jits_Linear_5,2,5,63,98,1852985760
10718,19,Jits_Linear_5,3,5,80,127,1853016408
10718,19,Jits_Linear_5,0,5,80,127,1853705652
10718,19,Jits_Linear_5,1,1,48,43,1853737940
10718,19,Jits_Linear_5,2,5,56,103,1853776176
10718,19,Jits_Linear_5,3,5,63,98,1853779172
10718,19,Jits_Linear_5,0,5,56,103,1854496160
10718,19,Jits_Linear_5,1,1,48,49,1854523404
10718,19,Jits_Linear_5,2,5,63,98,1854546288
10718,19,Jits_Linear_5,3,5,80,127,1854576112
10718,19,Jits_Linear_5,0,5,63,98,1855255864
10718,19,Jits_Linear_5,1,5,80,127,1855259004
10718,19,Jits_Linear_5,2,1,48,39,1855296596
10718,19,Jits_Linear_5,3,5,56,103,1855316248
10718,19,Jits_Linear_5,0,1,48,40,1856066188
10718,19,Jits_Linear_5,1,5,56,103,1856067524
10718,19,Jits_Linear_5,2,5,80,127,1856076152
10718,19,Jits_Linear_5,3,5,63,98,1856126280
10718,19,Jits_Linear_5,0,5,63,98,1856825872
10718,19,Jits_Linear_5,1,1,48,37,1856832656
10718,19,Jits_Linear_5,2,5,56,103,1856835836
10718,19,Jits_Linear_5,3,5,80,127,1856865664
10718,19,Jits_Linear_5,0,1,48,43,1857587988
10718,19,Jits_Linear_5,1,5,63,98,1857645852
10718,19,Jits_Linear_5,2,5,80,127,1857649224
10718,19,Jits_Linear_5,3,5,56,103,1857675832
10718,19,Jits_Linear_5,0,1,48,40,1858391784
10718,19,Jits_Linear_5,1,5,63,98,1858456032
10718,19,Jits_Linear_5,2,5,56,103,1858476264
10718,19,Jits_Linear_5,3,5,80,127,1858479556
10718,19,Jits_Linear_5,0,1,48,57,1859193572
10718,19,Jits_Linear_5,1,5,63,98,1859205596
10718,19,Jits_Linear_5,2,5,56,103,1859276032
10718,19,Jits_Linear_5,3,5,80,127,1859295800
10718,19,Jits_Linear_5,0,5,56,103,1859985820
10718,19,Jits_Linear_5,1,5,63,98,1859996020
10718,19,Jits_Linear_5,2,1,48,51,1860023572
10718,19,Jits_Linear_5,3,5,80,127,1860086144
10718,19,Jits_Linear_5,0,1,48,52,1860768940
10718,19,Jits_Linear_5,1,5,56,103,1860795864
10718,19,Jits_Linear_5,2,5,80,127,1860835732
10718,19,Jits_Linear_5,3,5,63,98,1860845928
10718,19,Jits_Linear_5,0,1,48,47,1861466664
10718,19,Jits_Linear_5,1,5,56,103,1861615852
10718,19,Jits_Linear_5,2,5,63,98,1861645676
10718,19,Jits_Linear_5,3,5,80,127,1861676348
10718,19,Jits_Linear_5,0,5,80,127,1862375708
10718,19,Jits_Linear_5,1,1,48,48,1862397408
10718,19,Jits_Linear_5,2,5,63,98,1862415864
10718,19,Jits_Linear_5,3,5,56,103,1862436124
10718,19,Jits_Linear_5,0,1,48,50,1863196536
10718,19,Jits_Linear_5,1,5,56,103,1863215592
10718,19,Jits_Linear_5,2,5,80,127,1863235904
10718,19,Jits_Linear_5,3,5,63,98,1863256364
10718,19,Jits_Linear_5,0,5,63,98,1863985772
10718,19,Jits_Linear_5,1,1,48,44,1863987264
10718,19,Jits_Linear_5,2,5,56,103,1863995740
10718,19,Jits_Linear_5,3,5,80,127,1864056208
10718,19,Jits_Linear_5,0,1,48,50,1864749096
10718,19,Jits_Linear_5,1,5,56,103,1864795724
10718,19,Jits_Linear_5,2,5,63,98,1864866072
10718,19,Jits_Linear_5,3,5,80,127,1864885708
10718,19,Jits_Linear_5,0,1,48,44,1865582420
10718,19,Jits_Linear_5,1,5,56,103,1865605756
10718,19,Jits_Linear_5,2,5,63,98,1865636184
10718,19,Jits_Linear_5,3,5,80,127,1865676052
10718,19,Jits_Linear_5,0,1,48,47,1866342104
10718,19,Jits_Linear_5,1,5,63,98,1866406352
10718,19,Jits_Linear_5,2,5,56,103,1866456616
10718,19,Jits_Linear_5,3,5,80,127,1866465616
10718,19,Jits_Linear_5,0,1,48,36,1867222272
10718,19,Jits_Linear_5,1,5,56,103,1867256172
10718,19,Jits_Linear_5,2,5,63,98,1867306324
10718,19,Jits_Linear_5,3,5,80,127,1867316128
10718,19,Jits_Linear_5,0,1,48,52,1868034672
10718,19,Jits_Linear_5,1,5,56,103,1868036168
10718,19,Jits_Linear_5,2,5,63,98,1868045764
10718,19,Jits_Linear_5,3,5,80,127,1868125808
10718,19,Jits_Linear_5,0,9999,9999,9999,1759243376
10718,19,Jits_Linear_5,1,9999,9999,9999,1759723612
10718,19,Jits_Linear_5,2,9999,9999,9999,1760203872
10718,19,Jits_Linear_5,3,9999,9999,9999,1760683084
10718,19,Jits_Linear_5,4,9999,9999,9999,1761163328
10718,19,Jits_Linear_5,5,9999,9999,9999,1761653852
10718,19,Jits_Linear_5,6,9999,9999,9999,1762143308
10718,19,Jits_Linear_5,7,9999,9999,9999,1762633828
10718,19,Jits_Linear_5,8,9999,9999,9999,1763123276
10718,19,Jits_Linear_5,9,9999,9999,9999,1763613764
10718,19,Jits_Linear_5,10,9999,9999,9999,1764113516
10718,19,Jits_Linear_5,11,9999,9999,9999,1764613200
10718,19,Jits_Linear_5,12,9999,9999,9999,1765113928
10718,19,Jits_Linear_5,13,9999,9999,9999,1765613688
10718,19,Jits_Linear_5,14,9999,9999,9999,1766113376
10718,19,Jits_Linear_5,15,9999,9999,9999,1766623328
10718,19,Jits_Linear_5,16,9999,9999,9999,1767133256
10718,19,Jits_Linear_5,17,9999,9999,9999,1767643212
10718,19,Jits_Linear_5,18,9999,9999,9999,1768153176
10718,19,Jits_Linear_5,19,9999,9999,9999,1768663148
10718,19,Jits_Linear_5,20,9999,9999,9999,1769183288
10718,19,Jits_Linear_5,21,9999,9999,9999,1769703552
10718,19,Jits_Linear_5,22,9999,9999,9999,1770223680
10718,19,Jits_Linear_5,23,9999,9999,9999,1770743892
10718,19,Jits_Linear_5,24,9999,9999,9999,1771264084
10718,19,Jits_Linear_5,25,9999,9999,9999,1771803724
10718,19,Jits_Linear_5,26,9999,9999,9999,1772333160
10718,19,Jits_Linear_5,27,9999,9999,9999,1772863616
10718,19,Jits_Linear_5,28,9999,9999,9999,1773394036
10718,19,Jits_Linear_5,29,9999,9999,9999,1773923388
10718,19,Jits_Linear_5,30,9999,9999,9999,1774464072
10718,19,Jits_Linear_5,31,9999,9999,9999,1775013972
10718,19,Jits_Linear_5,32,9999,9999,9999,1775553604
10718,19,Jits_Linear_5,33,9999,9999,9999,1776093240
10718,19,Jits_Linear_5,34,9999,9999,9999,1776633924
10718,19,Jits_Linear_5,35,9999,9999,9999,1777183828
10718,19,Jits_Linear_5,36,9999,9999,9999,1777733696
10718,19,Jits_Linear_5,37,9999,9999,9999,1778283580
10718,19,Jits_Linear_5,38,9999,9999,9999,1778833516
10718,19,Jits_Linear_5,39,9999,9999,9999,1779383400
10718,19,Jits_Linear_5,40,9999,9999,9999,1779943476
10718,19,Jits_Linear_5,41,9999,9999,9999,1780503664
10718,19,Jits_Linear_5,42,9999,9999,9999,1781063748
10718,19,Jits_Linear_5,43,9999,9999,9999,1781623896
10718,19,Jits_Linear_5,44,9999,9999,9999,1782184044
10718,19,Jits_Linear_5,45,9999,9999,9999,1782753344
10718,19,Jits_Linear_5,46,9999,9999,9999,1783323708
10718,19,Jits_Linear_5,47,9999,9999,9999,1783894124
10718,19,Jits_Linear_5,48,9999,9999,9999,1784473680
10718,19,Jits_Linear_5,49,9999,9999,9999,1785044092
10718,19,Jits_Linear_5,50,9999,9999,9999,1785623656
10718,19,Jits_Linear_5,51,9999,9999,9999,1786203204
10718,19,Jits_Linear_5,52,9999,9999,9999,1786783812
10718,19,Jits_Linear_5,53,9999,9999,9999,1787363384
10718,19,Jits_Linear_5,54,9999,9999,9999,1787944012
10718,19,Jits_Linear_5,55,9999,9999,9999,1788533848
10718,19,Jits_Linear_5,56,9999,9999,9999,1789123664
10718,19,Jits_Linear_5,57,9999,9999,9999,1789713468
10718,19,Jits_Linear_5,58,9999,9999,9999,1790303304
10718,19,Jits_Linear_5,59,9999,9999,9999,1790893124
10718,19,Jits_Linear_5,60,9999,9999,9999,1791493200
10718,19,Jits_Linear_5,61,9999,9999,9999,1792093300
10718,19,Jits_Linear_5,62,9999,9999,9999,1792693320
10718,19,Jits_Linear_5,63,9999,9999,9999,1793293388
10718,19,Jits_Linear_5,64,9999,9999,9999,1793893488
10718,19,Jits_Linear_5,65,9999,9999,9999,1794503772
10718,19,Jits_Linear_5,66,9999,9999,9999,1795114080
10718,19,Jits_Linear_5,67,9999,9999,9999,1795723368
10718,19,Jits_Linear_5,68,9999,9999,9999,1796333652
10718,19,Jits_Linear_5,69,9999,9999,9999,1796943948
10718,19,Jits_Linear_5,70,9999,9999,9999,1797563504
10718,19,Jits_Linear_5,71,9999,9999,9999,1798184000
10718,19,Jits_Linear_5,72,9999,9999,9999,1798803560
10718,19,Jits_Linear_5,73,9999,9999,9999,1799424092
10718,19,Jits_Linear_5,74,9999,9999,9999,1800053868
10718,19,Jits_Linear_5,75,9999,9999,9999,1800683620
10718,19,Jits_Linear_5,76,9999,9999,9999,1801313400
10718,19,Jits_Linear_5,77,9999,9999,9999,1801943148
10718,19,Jits_Linear_5,78,9999,9999,9999,1802573916
10718,19,Jits_Linear_5,79,9999,9999,9999,1803203676
10718,19,Jits_Linear_5,80,9999,9999,9999,1803843692
10718,19,Jits_Linear_5,81,9999,9999,9999,1804483700
10718,19,Jits_Linear_5,82,9999,9999,9999,1805123660
10718,19,Jits_Linear_5,83,9999,9999,9999,1805763676
10718,19,Jits_Linear_5,84,9999,9999,9999,1806403656
10718,19,Jits_Linear_5,85,9999,9999,9999,1807053932
10718,19,Jits_Linear_5,86,9999,9999,9999,1807703112
10718,19,Jits_Linear_5,87,9999,9999,9999,1808353404
10718,19,Jits_Linear_5,88,9999,9999,9999,1809003628
10718,19,Jits_Linear_5,89,9999,9999,9999,1809653844
10718,19,Jits_Linear_5,90,9999,9999,9999,1810313304
10718,19,Jits_Linear_5,91,9999,9999,9999,1810973780
10718,19,Jits_Linear_5,92,9999,9999,9999,1811633276
10718,19,Jits_Linear_5,93,9999,9999,9999,1812293692
10718,19,Jits_Linear_5,94,9999,9999,9999,1812953184
10718,19,Jits_Linear_5,95,9999,9999,9999,1813623880
10718,19,Jits_Linear_5,96,9999,9999,9999,1814293588
10718,19,Jits_Linear_5,97,9999,9999,9999,1814963268
10718,19,Jits_Linear_5,98,9999,9999,9999,1815634020
10718,19,Jits_Linear_5,99,9999,9999,9999,1816303700
10718,19,Jits_Linear_5,100,9999,9999,9999,1816983648
10718,19,Jits_Linear_5,101,9999,9999,9999,1817663564
10718,19,Jits_Linear_5,102,9999,9999,9999,1818343512
10718,19,Jits_Linear_5,103,9999,9999,9999,1819023428
10718,19,Jits_Linear_5,104,9999,9999,9999,1819703396
10718,19,Jits_Linear_5,105,9999,9999,9999,1820393600
10718,19,Jits_Linear_5,106,9999,9999,9999,1821083760
10718,19,Jits_Linear_5,107,9999,9999,9999,1821773920
10718,19,Jits_Linear_5,108,9999,9999,9999,1822464064
10718,19,Jits_Linear_5,109,9999,9999,9999,1823163516
10718,19,Jits_Linear_5,110,9999,9999,9999,1823863864
10718,19,Jits_Linear_5,111,9999,9999,9999,1824563316
10718,19,Jits_Linear_5,112,9999,9999,9999,1825263724
10718,19,Jits_Linear_5,113,9999,9999,9999,1825963104
10718,19,Jits_Linear_5,114,9999,9999,9999,1826663524
10718,19,Jits_Linear_5,115,9999,9999,9999,1827373156
10718,19,Jits_Linear_5,116,9999,9999,9999,1828083820
10718,19,Jits_Linear_5,117,9999,9999,9999,1828793460
10718,19,Jits_Linear_5,118,9999,9999,9999,1829504092
10718,19,Jits_Linear_5,119,9999,9999,9999,1830223964
10718,19,Jits_Linear_5,120,9999,9999,9999,1830943804
10718,19,Jits_Linear_5,121,9999,9999,9999,1831663684
10718,19,Jits_Linear_5,122,9999,9999,9999,1832383588
10718,19,Jits_Linear_5,123,9999,9999,9999,1833103432
10718,19,Jits_Linear_5,124,9999,9999,9999,1833823332
10718,19,Jits_Linear_5,125,9999,9999,9999,1834553416
10718,19,Jits_Linear_5,126,9999,9999,9999,1835283576
10718,19,Jits_Linear_5,127,9999,9999,9999,1836013668
10718,19,Jits_Linear_5,128,9999,9999,9999,1836743764
10718,19,Jits_Linear_5,129,9999,9999,9999,1837473872
10718,19,Jits_Linear_5,130,9999,9999,9999,1838213196
10718,19,Jits_Linear_5,131,9999,9999,9999,1838953552
10718,19,Jits_Linear_5,132,9999,9999,9999,1839693900
10718,19,Jits_Linear_5,133,9999,9999,9999,1840433216
10718,19,Jits_Linear_5,134,9999,9999,9999,1841173616
10718,19,Jits_Linear_5,135,9999,9999,9999,1841923156
10718,19,Jits_Linear_5,136,9999,9999,9999,1842673780
10718,19,Jits_Linear_5,137,9999,9999,9999,1843423352
10718,19,Jits_Linear_5,138,9999,9999,9999,1844173896
10718,19,Jits_Linear_5,139,9999,9999,9999,1844923488
10718,19,Jits_Linear_5,140,9999,9999,9999,1845683256
10718,19,Jits_Linear_5,141,9999,9999,9999,1846443108
10718,19,Jits_Linear_5,142,9999,9999,9999,1847203916
10718,19,Jits_Linear_5,143,9999,9999,9999,1847963752
10718,19,Jits_Linear_5,144,9999,9999,9999,1848723584
10718,19,Jits_Linear_5,145,9999,9999,9999,1849493608
10718,19,Jits_Linear_5,146,9999,9999,9999,1850263640
10718,19,Jits_Linear_5,147,9999,9999,9999,1851033668
10718,19,Jits_Linear_5,148,9999,9999,9999,1851803764
10718,19,Jits_Linear_5,149,9999,9999,9999,1852573812
10718,19,Jits_Linear_5,150,9999,9999,9999,1853354100
10718,19,Jits_Linear_5,151,9999,9999,9999,1854133352
10718,19,Jits_Linear_5,152,9999,9999,9999,1854913656
10718,19,Jits_Linear_5,153,9999,9999,9999,1855693944
10718,19,Jits_Linear_5,154,9999,9999,9999,1856473188
10718,19,Jits_Linear_5,155,9999,9999,9999,1857263736
10718,19,Jits_Linear_5,156,9999,9999,9999,1858053232
10718,19,Jits_Linear_5,157,9999,9999,9999,1858843728
10718,19,Jits_Linear_5,158,9999,9999,9999,1859633236
10718,19,Jits_Linear_5,159,9999,9999,9999,1860423788
10718,19,Jits_Linear_5,160,9999,9999,9999,1861223500
10718,19,Jits_Linear_5,161,9999,9999,9999,1862023272
10718,19,Jits_Linear_5,162,9999,9999,9999,1862824012
10718,19,Jits_Linear_5,163,9999,9999,9999,1863623800
10718,19,Jits_Linear_5,164,9999,9999,9999,1864423492
10718,19,Jits_Linear_5,165,9999,9999,9999,1865233528
10718,19,Jits_Linear_5,166,9999,9999,9999,1866043508
10718,19,Jits_Linear_5,167,9999,9999,9999,1866853468
10718,19,Jits_Linear_5,168,9999,9999,9999,1867663432
10718,19,Jits_Linear_5,169,9999,9999,9999,1868473464
10719,18,Jits_Linear_8,0,5,56,103,1877781788
10719,18,Jits_Linear_8,1,5,63,98,1877784892
10719,18,Jits_Linear_8,2,5,80,127,1877788012
10719,18,Jits_Linear_8,0,5,56,103,1878602176
10719,18,Jits_Linear_8,1,5,63,98,1878605052
10719,18,Jits_Linear_8,2,5,80,127,1878608248
10719,18,Jits_Linear_8,0,5,80,127,1879361968
10719,18,Jits_Linear_8,1,5,63,98,1879452032
10719,18,Jits_Linear_8,2,5,56,103,1879462376
10719,18,Jits_Linear_8,0,5,56,103,1880201556
10719,18,Jits_Linear_8,1,5,63,98,1880211752
10719,18,Jits_Linear_8,2,5,80,127,1880301960
10719,18,Jits_Linear_8,0,1,48,47,1880986256
10719,18,Jits_Linear_8,1,5,63,98,1880992132
10719,18,Jits_Linear_8,2,5,80,127,1881021736
10719,18,Jits_Linear_8,3,5,56,103,1881051484
10719,18,Jits_Linear_8,0,1,48,54,1881776192
10719,18,Jits_Linear_8,1,5,56,103,1881812704
10719,18,Jits_Linear_8,2,5,80,127,1881911696
10719,18,Jits_Linear_8,3,5,63,98,1881961748
10719,18,Jits_Linear_8,0,5,56,103,1882622508
10719,18,Jits_Linear_8,1,5,80,127,1882671468
10719,18,Jits_Linear_8,2,1,48,52,1882701040
10719,18,Jits_Linear_8,3,5,63,98,1882712372
10719,18,Jits_Linear_8,4,1,48,23,1882767464
10719,18,Jits_Linear_8,0,5,80,127,1883461984
10719,18,Jits_Linear_8,1,5,63,98,1883491812
10719,18,Jits_Linear_8,2,1,48,51,1883500108
10719,18,Jits_Linear_8,3,5,56,103,1883562532
10719,18,Jits_Linear_8,0,5,63,98,1884301544
10719,18,Jits_Linear_8,1,1,48,58,1884319636
10719,18,Jits_Linear_8,2,5,56,103,1884332488
10719,18,Jits_Linear_8,3,5,80,127,1884391752
10719,18,Jits_Linear_8,0,5,56,103,1885052372
10719,18,Jits_Linear_8,1,5,80,127,1885055440
10719,18,Jits_Linear_8,2,1,48,53,1885120228
10719,18,Jits_Linear_8,3,5,63,98,1885172240
10719,18,Jits_Linear_8,0,1,48,46,1885911368
10719,18,Jits_Linear_8,1,5,56,103,1885931916
10719,18,Jits_Linear_8,2,5,80,127,1885971808
10719,18,Jits_Linear_8,3,5,63,98,1885981932
10719,18,Jits_Linear_8,0,5,56,103,1886691752
10719,18,Jits_Linear_8,1,5,80,127,1886712284
10719,18,Jits_Linear_8,2,1,48,45,1886735784
10719,18,Jits_Linear_8,3,5,63,98,1886792172
10719,18,Jits_Linear_8,0,5,80,127,1887482456
10719,18,Jits_Linear_8,1,1,48,45,1887529648
10719,18,Jits_Linear_8,2,5,56,103,1887581604
10719,18,Jits_Linear_8,3,5,63,98,1887591876
10719,18,Jits_Linear_8,0,5,63,98,1888252556
10719,18,Jits_Linear_8,1,5,80,127,1888311632
10719,18,Jits_Linear_8,2,5,56,103,1888322124
10719,18,Jits_Linear_8,3,1,48,42,1888331692
10719,18,Jits_Linear_8,0,5,56,103,1889051888
10719,18,Jits_Linear_8,1,1,48,51,1889104828
10719,18,Jits_Linear_8,2,5,63,98,1889121788
10719,18,Jits_Linear_8,3,5,80,127,1889125152
10719,18,Jits_Linear_8,0,1,48,47,1889847780
10719,18,Jits_Linear_8,1,5,63,98,1889881384
10719,18,Jits_Linear_8,2,5,56,103,1889931584
10719,18,Jits_Linear_8,3,5,80,127,1889934728
10719,18,Jits_Linear_8,0,5,56,103,1890632280
10719,18,Jits_Linear_8,1,5,80,127,1890635272
10719,18,Jits_Linear_8,2,1,48,48,1890691964
10719,18,Jits_Linear_8,3,5,63,98,1890722256
10719,18,Jits_Linear_8,0,5,63,98,1891461628
10719,18,Jits_Linear_8,1,1,48,45,1891520496
10719,18,Jits_Linear_8,2,5,56,103,1891551540
10719,18,Jits_Linear_8,3,5,80,127,1891582484
10719,18,Jits_Linear_8,0,5,56,103,1892241760
10719,18,Jits_Linear_8,1,1,48,40,1892293356
10719,18,Jits_Linear_8,2,5,63,98,1892342376
10719,18,Jits_Linear_8,3,5,80,127,1892371856
10719,18,Jits_Linear_8,0,5,63,98,1893051952
10719,18,Jits_Linear_8,1,5,56,103,1893062148
10719,18,Jits_Linear_8,2,1,48,43,1893105420
10719,18,Jits_Linear_8,3,5,80,127,1893152372
10719,18,Jits_Linear_8,0,5,63,98,1893851408
10719,18,Jits_Linear_8,1,1,48,46,1893867260
10719,18,Jits_Linear_8,2,5,56,103,1893932348
10719,18,Jits_Linear_8,3,5,80,127,1893935488
10719,18,Jits_Linear_8,0,5,80,127,1894592044
10719,18,Jits_Linear_8,1,5,63,98,1894612356
10719,18,Jits_Linear_8,2,5,56,103,1894671628
10719,18,Jits_Linear_8,3,1,48,48,1894675816
10719,18,Jits_Linear_8,0,5,56,103,1895412264
10719,18,Jits_Linear_8,1,5,63,98,1895431600
10719,18,Jits_Linear_8,2,5,80,127,1895434816
10719,18,Jits_Linear_8,3,1,48,44,1895465160
10719,18,Jits_Linear_8,0,5,63,98,1896132084
10719,18,Jits_Linear_8,1,5,80,127,1896211832
10719,18,Jits_Linear_8,2,5,56,103,1896222324
10719,18,Jits_Linear_8,3,1,48,44,1896226944
10719,18,Jits_Linear_8,0,5,63,98,1896931688
10719,18,Jits_Linear_8,1,5,56,103,1896952372
10719,18,Jits_Linear_8,2,5,80,127,1897002376
10719,18,Jits_Linear_8,3,1,48,48,1897021156
10719,18,Jits_Linear_8,0,5,80,127,1897712336
10719,18,Jits_Linear_8,1,5,63,98,1897751928
10719,18,Jits_Linear_8,2,1,48,31,1897753340
10719,18,Jits_Linear_8,3,5,56,103,1897772604
10719,18,Jits_Linear_8,0,1,48,39,1898487340
10719,18,Jits_Linear_8,1,5,56,103,1898522240
10719,18,Jits_Linear_8,2,5,63,98,1898532508
10719,18,Jits_Linear_8,3,5,80,127,1898551700
10719,18,Jits_Linear_8,0,1,48,46,1899210168
10719,18,Jits_Linear_8,1,5,56,103,1899222324
10719,18,Jits_Linear_8,2,5,63,98,1899311424
10719,18,Jits_Linear_8,3,5,80,127,1899371812
10719,18,Jits_Linear_8,0,5,80,127,1900022536
10719,18,Jits_Linear_8,1,5,56,103,1900032364
10719,18,Jits_Linear_8,2,1,48,37,1900069360
10719,18,Jits_Linear_8,3,5,63,98,1900102432
10719,18,Jits_Linear_8,0,5,63,98,1900821960
10719,18,Jits_Linear_8,1,1,48,41,1900859464
10719,18,Jits_Linear_8,2,5,80,127,1900912240
10719,18,Jits_Linear_8,3,5,56,103,1900922360
10719,18,Jits_Linear_8,0,5,63,98,1901522276
10719,18,Jits_Linear_8,1,5,80,127,1901571580
10719,18,Jits_Linear_8,2,5,56,103,1901631996
10719,18,Jits_Linear_8,3,1,48,42,1901642532
10719,18,Jits_Linear_8,0,5,56,103,1902311764
10719,18,Jits_Linear_8,1,1,48,33,1902319984
10719,18,Jits_Linear_8,2,5,80,127,1902361984
10719,18,Jits_Linear_8,3,5,63,98,1902381544
10719,18,Jits_Linear_8,0,1,48,40,1903032080
10719,18,Jits_Linear_8,1,5,56,103,1903042144
10719,18,Jits_Linear_8,2,5,80,127,1903102316
10719,18,Jits_Linear_8,3,5,63,98,1903172304
10719,18,Jits_Linear_8,0,5,56,103,1903801676
10719,18,Jits_Linear_8,1,5,80,127,1903832472
10719,18,Jits_Linear_8,2,5,63,98,1903862076
10719,18,Jits_Linear_8,3,1,48,38,1903866168
10719,18,Jits_Linear_8,0,5,56,103,1904601444
10719,18,Jits_Linear_8,1,1,48,44,1904605312
10719,18,Jits_Linear_8,2,5,80,127,1904621896
10719,18,Jits_Linear_8,3,5,63,98,1904682236
10719,18,Jits_Linear_8,0,1,48,46,1905423808
10719,18,Jits_Linear_8,1,5,80,127,1905442140
10719,18,Jits_Linear_8,2,5,56,103,1905452260
10719,18,Jits_Linear_8,3,5,63,98,1905461484
10719,18,Jits_Linear_8,0,5,56,103,1906151904
10719,18,Jits_Linear_8,1,5,80,127,1906191620
10719,18,Jits_Linear_8,2,1,48,49,1906211076
10719,18,Jits_Linear_8,3,5,63,98,1906221512
10719,18,Jits_Linear_8,0,5,56,103,1906871640
10719,18,Jits_Linear_8,1,5,63,98,1906902440
10719,18,Jits_Linear_8,2,1,48,35,1906925188
10719,18,Jits_Linear_8,3,5,80,127,1906942296
10719,18,Jits_Linear_8,0,5,80,127,1907572064
10719,18,Jits_Linear_8,1,5,63,98,1907622344
10719,18,Jits_Linear_8,2,5,56,103,1907641832
10719,18,Jits_Linear_8,3,1,48,36,1907645552
10719,18,Jits_Linear_8,0,1,48,33,1908312092
10719,18,Jits_Linear_8,1,5,56,103,1908352420
10719,18,Jits_Linear_8,2,5,80,127,1908422160
10719,18,Jits_Linear_8,3,5,63,98,1908482328
10719,18,Jits_Linear_8,0,5,80,127,1909091652
10719,18,Jits_Linear_8,1,1,48,36,1909169160
10719,18,Jits_Linear_8,2,5,63,98,1909181856
10719,18,Jits_Linear_8,3,5,56,103,1909202240
10719,18,Jits_Linear_8,0,5,63,98,1909851420
10719,18,Jits_Linear_8,1,5,56,103,1909872100
10719,18,Jits_Linear_8,2,5,80,127,1909912188
10719,18,Jits_Linear_8,3,1,48,41,1909922504
10719,18,Jits_Linear_8,0,5,80,127,1910552124
10719,18,Jits_Linear_8,1,5,63,98,1910572436
10719,18,Jits_Linear_8,2,1,48,31,1910633844
10719,18,Jits_Linear_8,3,5,56,103,1910652296
10719,18,Jits_Linear_8,0,5,63,98,1911282112
10719,18,Jits_Linear_8,1,1,48,49,1911302992
10719,18,Jits_Linear_8,2,5,56,103,1911391748
10719,18,Jits_Linear_8,3,5,80,127,1911394664
10719,18,Jits_Linear_8,0,5,63,98,1912042004
10719,18,Jits_Linear_8,1,5,56,103,1912052196
10719,18,Jits_Linear_8,2,5,80,127,1912055188
10719,18,Jits_Linear_8,3,1,48,39,1912113100
10719,18,Jits_Linear_8,0,5,56,103,1912761724
10719,18,Jits_Linear_8,1,1,48,31,1912773312
10719,18,Jits_Linear_8,2,5,80,127,1912881460
10719,18,Jits_Linear_8,3,5,63,98,1912921400
10719,18,Jits_Linear_8,0,5,56,103,1913512280
10719,18,Jits_Linear_8,1,5,80,127,1913592228
10719,18,Jits_Linear_8,2,1,48,42,1913598784
10719,18,Jits_Linear_8,3,5,63,98,1913611484
10719,18,Jits_Linear_8,0,5,56,103,1914242380
10719,18,Jits_Linear_8,1,1,48,37,1914309700
10719,18,Jits_Linear_8,2,5,63,98,1914351912
10719,18,Jits_Linear_8,3,5,80,127,1914355200
10719,18,Jits_Linear_8,0,1,48,34,1914958340
10719,18,Jits_Linear_8,1,5,56,103,1915002132
10719,18,Jits_Linear_8,2,5,80,127,1915032032
10719,18,Jits_Linear_8,3,5,63,98,1915052404
10719,18,Jits_Linear_8,0,1,48,41,1915683408
10719,18,Jits_Linear_8,1,5,63,98,1915711980
10719,18,Jits_Linear_8,2,5,56,103,1915722104
10719,18,Jits_Linear_8,3,5,80,127,1915732520
10719,18,Jits_Linear_8,0,1,48,38,1916406484
10719,18,Jits_Linear_8,1,5,80,127,1916421352
10719,18,Jits_Linear_8,2,5,56,103,1916471732
10719,18,Jits_Linear_8,3,5,63,98,1916511656
10719,18,Jits_Linear_8,0,5,80,127,1917161852
10719,18,Jits_Linear_8,1,5,63,98,1917182312
10719,18,Jits_Linear_8,2,1,48,41,1917203064
10719,18,Jits_Linear_8,3,5,56,103,1917231484
10719,18,Jits_Linear_8,0,5,80,127,1917892020
10719,18,Jits_Linear_8,1,5,56,103,1917921844
10719,18,Jits_Linear_8,2,1,48,35,1917944516
10719,18,Jits_Linear_8,3,5,63,98,1917992364
10719,18,Jits_Linear_8,0,5,56,103,1918661904
10719,18,Jits_Linear_8,1,5,80,127,1918672324
10719,18,Jits_Linear_8,2,1,48,44,1918698664
10719,18,Jits_Linear_8,3,5,63,98,1918712032
10719,18,Jits_Linear_8,0,5,56,103,1919291908
10719,18,Jits_Linear_8,1,5,63,98,1919312368
10719,18,Jits_Linear_8,2,5,80,127,1919382196
10719,18,Jits_Linear_8,3,1,48,46,1919401356
10719,18,Jits_Linear_8,0,5,63,98,1920031968
10719,18,Jits_Linear_8,1,5,80,127,1920091464
10719,18,Jits_Linear_8,2,1,48,42,1920105816
10719,18,Jits_Linear_8,3,5,56,103,1920111916
10719,18,Jits_Linear_8,0,5,80,127,1920731600
10719,18,Jits_Linear_8,1,5,56,103,1920762176
10719,18,Jits_Linear_8,2,1,48,43,1920769036
10719,18,Jits_Linear_8,3,5,63,98,1920791868
10719,18,Jits_Linear_8,0,5,56,103,1921442136
10719,18,Jits_Linear_8,1,1,48,39,1921490068
10719,18,Jits_Linear_8,2,5,63,98,1921501624
10719,18,Jits_Linear_8,3,5,80,127,1921562040
10719,18,Jits_Linear_8,0,1,48,43,1922110692
10719,18,Jits_Linear_8,1,5,80,127,1922172300
10719,18,Jits_Linear_8,2,5,56,103,1922192008
10719,18,Jits_Linear_8,3,5,63,98,1922262352
10719,18,Jits_Linear_8,0,5,80,127,1922882080
10719,18,Jits_Linear_8,1,5,63,98,1922902396
10719,18,Jits_Linear_8,2,1,48,42,1922909024
10719,18,Jits_Linear_8,3,5,56,103,1922932284
10719,18,Jits_Linear_8,0,5,80,127,1923582404
10719,18,Jits_Linear_8,1,5,63,98,1923601916
10719,18,Jits_Linear_8,2,1,48,46,1923614028
10719,18,Jits_Linear_8,3,5,56,103,1923662148
10719,18,Jits_Linear_8,0,5,80,127,1924281928
10719,18,Jits_Linear_8,1,1,48,45,1924312020
10719,18,Jits_Linear_8,2,5,56,103,1924382048
10719,18,Jits_Linear_8,3,5,63,98,1924412608
10719,18,Jits_Linear_8,0,5,63,98,1924971944
10719,18,Jits_Linear_8,1,5,80,127,1925022148
10719,18,Jits_Linear_8,2,5,56,103,1925041412
10719,18,Jits_Linear_8,3,1,48,45,1925099752
10719,18,Jits_Linear_8,0,5,80,127,1925712212
10719,18,Jits_Linear_8,1,5,56,103,1925741888
10719,18,Jits_Linear_8,2,5,63,98,1925744956
10719,18,Jits_Linear_8,3,1,48,42,1925756096
10719,18,Jits_Linear_8,0,1,48,38,1926412504
10719,18,Jits_Linear_8,1,5,63,98,1926442296
10719,18,Jits_Linear_8,2,5,56,103,1926482160
10719,18,Jits_Linear_8,3,5,80,127,1926502020
10719,18,Jits_Linear_8,0,5,80,127,1927082380
10719,18,Jits_Linear_8,1,1,48,37,1927135248
10719,18,Jits_Linear_8,2,5,63,98,1927162172
10719,18,Jits_Linear_8,3,5,56,103,1927202136
10719,18,Jits_Linear_8,0,5,63,98,1927791952
10719,18,Jits_Linear_8,1,1,48,42,1927853884
10719,18,Jits_Linear_8,2,5,80,127,1927871892
10719,18,Jits_Linear_8,3,5,56,103,1927892276
10719,18,Jits_Linear_8,0,5,56,103,1928522040
10719,18,Jits_Linear_8,1,1,48,45,1928529496
10719,18,Jits_Linear_8,2,5,63,98,1928532232
10719,18,Jits_Linear_8,3,5,80,127,1928572168
10719,18,Jits_Linear_8,0,5,56,103,1929132308
10719,18,Jits_Linear_8,1,5,80,127,1929135304
10719,18,Jits_Linear_8,2,1,48,43,1929234944
10719,18,Jits_Linear_8,3,5,63,98,1929271904
10719,18,Jits_Linear_8,0,5,56,103,1929812348
10719,18,Jits_Linear_8,1,5,63,98,1929901364
10719,18,Jits_Linear_8,2,1,48,23,1929907624
10719,18,Jits_Linear_8,3,5,80,127,1929972088
10719,18,Jits_Linear_8,0,1,48,21,1930550740
10719,18,Jits_Linear_8,1,5,63,98,1930572112
10719,18,Jits_Linear_8,2,5,80,127,1930575628
10719,18,Jits_Linear_8,3,5,56,103,1930631532
10719,18,Jits_Linear_8,0,1,48,44,1931192680
10719,18,Jits_Linear_8,1,5,80,127,1931292060
10719,18,Jits_Linear_8,2,5,56,103,1931311400
10719,18,Jits_Linear_8,3,5,63,98,1931321968
10719,18,Jits_Linear_8,0,5,56,103,1931881892
10719,18,Jits_Linear_8,1,5,63,98,1931892164
10719,18,Jits_Linear_8,2,1,48,41,1931955888
10719,18,Jits_Linear_8,3,5,80,127,1931961912
10719,18,Jits_Linear_8,0,5,80,127,1932561788
10719,18,Jits_Linear_8,1,5,56,103,1932611920
10719,18,Jits_Linear_8,2,1,48,45,1932658860
10719,18,Jits_Linear_8,3,5,63,98,1932662040
10719,18,Jits_Linear_8,0,1,48,46,1933259600
10719,18,Jits_Linear_8,1,5,56,103,1933321752
10719,18,Jits_Linear_8,2,5,63,98,1933331972
10719,18,Jits_Linear_8,3,5,80,127,1933371748
10719,18,Jits_Linear_8,0,5,56,103,1933942236
10719,18,Jits_Linear_8,1,5,63,98,1933981952
10719,18,Jits_Linear_8,2,1,48,39,1933990844
10719,18,Jits_Linear_8,3,5,80,127,1934032296
10719,18,Jits_Linear_8,0,5,80,127,1934571988
10719,18,Jits_Linear_8,1,5,56,103,1934621920
10719,18,Jits_Linear_8,2,5,63,98,1934641704
10719,18,Jits_Linear_8,3,1,48,45,1934645796
10719,18,Jits_Linear_8,0,5,80,127,1935251812
10719,18,Jits_Linear_8,1,1,48,48,1935290900
10719,18,Jits_Linear_8,2,5,63,98,1935312124
10719,18,Jits_Linear_8,3,5,56,103,1935392000
10719,18,Jits_Linear_8,0,5,80,127,1935902044
10719,18,Jits_Linear_8,1,5,56,103,1935941984
10719,18,Jits_Linear_8,2,5,63,98,1935961320
10719,18,Jits_Linear_8,3,1,48,43,1936034112
10719,18,Jits_Linear_8,0,5,56,103,1936621996
10719,18,Jits_Linear_8,1,5,80,127,1936632192
10719,18,Jits_Linear_8,2,5,63,98,1936672156
10719,18,Jits_Linear_8,3,1,48,43,1936683148
10719,18,Jits_Linear_8,0,5,56,103,1937352168
10719,18,Jits_Linear_8,1,1,48,37,1937373796
10719,18,Jits_Linear_8,2,5,63,98,1937391952
10719,18,Jits_Linear_8,3,5,80,127,1937395240
10719,18,Jits_Linear_8,0,5,63,98,1937901900
10719,18,Jits_Linear_8,1,5,80,127,1937941864
10719,18,Jits_Linear_8,2,5,56,103,1938011696
10719,18,Jits_Linear_8,3,1,48,46,1938017808
10719,18,Jits_Linear_8,0,5,63,98,1938552116
10719,18,Jits_Linear_8,1,5,56,103,1938632064
10719,18,Jits_Linear_8,2,5,80,127,1938691628
10719,18,Jits_Linear_8,3,1,48,45,1938700456
10719,18,Jits_Linear_8,0,5,80,127,1939221812
10719,18,Jits_Linear_8,1,5,63,98,1939271944
10719,18,Jits_Linear_8,2,5,56,103,1939301692
10719,18,Jits_Linear_8,3,1,48,37,1939303560
10719,18,Jits_Linear_8,0,5,56,103,1939872088
10719,18,Jits_Linear_8,1,1,48,49,1939906000
10719,18,Jits_Linear_8,2,5,63,98,1939922360
10719,18,Jits_Linear_8,3,5,80,127,1939931584
10719,18,Jits_Linear_8,0,5,56,103,1940541792
10719,18,Jits_Linear_8,1,1,48,43,1940591516
10719,18,Jits_Linear_8,2,5,63,98,1940652376
10719,18,Jits_Linear_8,3,5,80,127,1940671936
10719,18,Jits_Linear_8,0,5,63,98,1941191924
10719,18,Jits_Linear_8,1,5,80,127,1941242200
10719,18,Jits_Linear_8,2,1,48,40,1941251100
10719,18,Jits_Linear_8,3,5,56,103,1941332352
10719,18,Jits_Linear_8,0,5,63,98,1941832024
10719,18,Jits_Linear_8,1,5,80,127,1941861700
10719,18,Jits_Linear_8,2,1,48,40,1941923628
10719,18,Jits_Linear_8,3,5,56,103,1941951752
10719,18,Jits_Linear_8,0,5,63,98,1942482208
10719,18,Jits_Linear_8,1,5,56,103,1942491732
10719,18,Jits_Linear_8,2,1,48,46,1942559992
10719,18,Jits_Linear_8,3,5,80,127,1942591848
10719,18,Jits_Linear_8,0,1,48,33,1943157928
10719,18,Jits_Linear_8,1,5,63,98,1943242028
10719,18,Jits_Linear_8,2,5,80,127,1943271836
10719,18,Jits_Linear_8,3,5,56,103,1943301588
10719,18,Jits_Linear_8,0,5,80,127,1943901772
10719,18,Jits_Linear_8,1,1,48,38,1943908180
10719,18,Jits_Linear_8,2,5,63,98,1943911740
10719,18,Jits_Linear_8,3,5,56,103,1943941564
10719,18,Jits_Linear_8,0,5,80,127,1944442224
10719,18,Jits_Linear_8,1,5,63,98,1944461860
10719,18,Jits_Linear_8,2,5,56,103,1944511840
10719,18,Jits_Linear_8,3,1,48,38,1944580812
10719,18,Jits_Linear_8,0,5,63,98,1945111860
10719,18,Jits_Linear_8,1,5,80,127,1945172400
10719,18,Jits_Linear_8,2,5,56,103,1945191812
10719,18,Jits_Linear_8,3,1,48,29,1945194636
10719,18,Jits_Linear_8,0,5,63,98,1945711856
10719,18,Jits_Linear_8,1,5,56,103,1945762208
10719,18,Jits_Linear_8,2,5,80,127,1945772480
10719,18,Jits_Linear_8,3,1,48,34,1945807728
10719,18,Jits_Linear_8,0,1,48,40,1946351076
10719,18,Jits_Linear_8,1,5,56,103,1946381668
10719,18,Jits_Linear_8,2,5,80,127,1946391864
10719,18,Jits_Linear_8,3,1,48,19,1946462092
10719,18,Jits_Linear_8,4,5,63,98,1946492308
10719,18,Jits_Linear_8,0,5,80,127,1946981712
10719,18,Jits_Linear_8,1,5,63,98,1946991836
10719,18,Jits_Linear_8,2,1,48,42,1947005144
10719,18,Jits_Linear_8,3,1,48,27,1947102668
10719,18,Jits_Linear_8,4,5,56,103,1947141576
10719,18,Jits_Linear_8,0,5,63,98,1947621776
10719,18,Jits_Linear_8,1,5,80,127,1947661792
10719,18,Jits_Linear_8,2,1,48,41,1947709352
10719,18,Jits_Linear_8,3,5,56,103,1947741680
10719,18,Jits_Linear_8,0,5,56,103,1948242172
10719,18,Jits_Linear_8,1,5,80,127,1948341600
10719,18,Jits_Linear_8,2,5,63,98,1948362056
10719,18,Jits_Linear_8,3,1,48,38,1948387120
10719,18,Jits_Linear_8,0,5,80,127,1948931560
10719,18,Jits_Linear_8,1,5,56,103,1948941608
10719,18,Jits_Linear_8,2,1,48,36,1948973720
10719,18,Jits_Linear_8,3,5,63,98,1949031736
10719,18,Jits_Linear_8,0,5,56,103,1949571656
10719,18,Jits_Linear_8,1,1,48,43,1949577472
10719,18,Jits_Linear_8,2,5,63,98,1949591812
10719,18,Jits_Linear_8,3,5,80,127,1949671828
10719,18,Jits_Linear_8,0,5,63,98,1950162376
10719,18,Jits_Linear_8,1,1,48,45,1950196212
10719,18,Jits_Linear_8,2,5,56,103,1950252604
10719,18,Jits_Linear_8,3,5,80,127,1950255520
10719,18,Jits_Linear_8,0,5,56,103,1950811460
10719,18,Jits_Linear_8,1,1,48,43,1950838924
10719,18,Jits_Linear_8,2,5,80,127,1950871920
10719,18,Jits_Linear_8,3,5,63,98,1950882116
10719,18,Jits_Linear_8,0,5,80,127,1951482272
10719,18,Jits_Linear_8,1,1,48,54,1951484284
10719,18,Jits_Linear_8,2,5,56,103,1951491708
10719,18,Jits_Linear_8,3,5,63,98,1951494776
10719,18,Jits_Linear_8,0,5,56,103,1952061696
10719,18,Jits_Linear_8,1,5,80,127,1952072192
10719,18,Jits_Linear_8,2,5,63,98,1952091456
10719,18,Jits_Linear_8,3,1,48,48,1952160500
10719,18,Jits_Linear_8,0,5,63,98,1952651512
10719,18,Jits_Linear_8,1,1,48,38,1952711600
10719,18,Jits_Linear_8,2,5,80,127,1952713020
10719,18,Jits_Linear_8,3,5,56,103,1952762324
10719,18,Jits_Linear_8,0,1,48,42,1953309552
10719,18,Jits_Linear_8,1,5,63,98,1953351996
10719,18,Jits_Linear_8,2,5,56,103,1953362344
10719,18,Jits_Linear_8,3,5,80,127,1953411556
10719,18,Jits_Linear_8,0,5,63,98,1953862020
10719,18,Jits_Linear_8,1,5,80,127,1953881432
10719,18,Jits_Linear_8,2,5,56,103,1953891628
10719,18,Jits_Linear_8,3,1,48,43,1953952884
10719,18,Jits_Linear_8,0,1,48,40,1954466536
10719,18,Jits_Linear_8,1,5,63,98,1954472484
10719,18,Jits_Linear_8,2,5,80,127,1954475772
10719,18,Jits_Linear_8,3,5,56,103,1954512420
10719,18,Jits_Linear_8,0,1,48,37,1955031904
10719,18,Jits_Linear_8,1,1,48,26,1955132536
10719,18,Jits_Linear_8,2,5,63,98,1955152336
10719,18,Jits_Linear_8,3,5,80,127,1955181940
10719,18,Jits_Linear_8,4,5,56,103,1955192432
10719,18,Jits_Linear_8,0,5,56,103,1955712552
10719,18,Jits_Linear_8,1,5,80,127,1955742004
10719,18,Jits_Linear_8,2,5,63,98,1955771900
10719,18,Jits_Linear_8,3,1,48,34,1955785136
10719,18,Jits_Linear_8,0,1,48,41,1956372492
10719,18,Jits_Linear_8,1,5,63,98,1956411628
10719,18,Jits_Linear_8,2,5,56,103,1956451560
10719,18,Jits_Linear_8,3,5,80,127,1956454708
10719,18,Jits_Linear_8,0,5,80,127,1956911604
10719,18,Jits_Linear_8,1,5,56,103,1956992448
10719,18,Jits_Linear_8,2,1,48,40,1957011908
10719,18,Jits_Linear_8,3,5,63,98,1957041448
10719,18,Jits_Linear_8,0,5,80,127,1957492060
10719,18,Jits_Linear_8,1,5,56,103,1957511400
10719,18,Jits_Linear_8,2,1,48,49,1957585536
10719,18,Jits_Linear_8,3,5,63,98,1957601524
10719,18,Jits_Linear_8,0,1,48,40,1958121108
10719,18,Jits_Linear_8,1,5,80,127,1958132068
10719,18,Jits_Linear_8,2,5,63,98,1958171884
10719,18,Jits_Linear_8,3,5,56,103,1958211820
10719,18,Jits_Linear_8,0,1,48,42,1958699708
10719,18,Jits_Linear_8,1,5,63,98,1958701368
10719,18,Jits_Linear_8,2,5,80,127,1958761764
10719,18,Jits_Linear_8,3,5,56,103,1958791512
10719,18,Jits_Linear_8,0,5,56,103,1959301668
10719,18,Jits_Linear_8,1,5,80,127,1959332464
10719,18,Jits_Linear_8,2,1,48,47,1959339028
10719,18,Jits_Linear_8,3,5,63,98,1959422440
10719,18,Jits_Linear_8,0,5,56,103,1959901528
10719,18,Jits_Linear_8,1,1,48,43,1960006412
10719,18,Jits_Linear_8,2,5,80,127,1960012436
10719,18,Jits_Linear_8,3,5,63,98,1960041812
10719,18,Jits_Linear_8,0,5,56,103,1960541656
10719,18,Jits_Linear_8,1,1,48,46,1960592876
10719,18,Jits_Linear_8,2,5,63,98,1960601968
10719,18,Jits_Linear_8,3,5,80,127,1960631644
10719,18,Jits_Linear_8,0,5,56,103,1961101664
10719,18,Jits_Linear_8,1,5,63,98,1961172320
10719,18,Jits_Linear_8,2,5,80,127,1961191808
10719,18,Jits_Linear_8,3,1,48,52,1961228484
10719,18,Jits_Linear_8,4,1,48,29,1961330232
10719,18,Jits_Linear_8,0,5,80,127,1961661792
10719,18,Jits_Linear_8,1,5,63,98,1961682400
10719,18,Jits_Linear_8,2,5,56,103,1961731408
10719,18,Jits_Linear_8,3,1,48,35,1961743240
10719,18,Jits_Linear_8,0,5,63,98,1962272236
10719,18,Jits_Linear_8,1,5,80,127,1962282580
10719,18,Jits_Linear_8,2,1,48,43,1962297008
10719,18,Jits_Linear_8,3,5,56,103,1962331432
10719,18,Jits_Linear_8,0,5,63,98,1962851624
10719,18,Jits_Linear_8,1,1,48,43,1962867028
10719,18,Jits_Linear_8,2,5,80,127,1962922572
10719,18,Jits_Linear_8,3,5,56,103,1962941688
10719,18,Jits_Linear_8,0,1,48,44,1963444168
10719,18,Jits_Linear_8,1,5,63,98,1963461956
10719,18,Jits_Linear_8,2,5,80,127,1963465244
10719,18,Jits_Linear_8,3,5,56,103,1963531488
10719,18,Jits_Linear_8,0,5,80,127,1963992496
10719,18,Jits_Linear_8,1,5,56,103,1964011836
10719,18,Jits_Linear_8,2,1,48,45,1964016376
10719,18,Jits_Linear_8,3,5,63,98,1964022176
10719,18,Jits_Linear_8,0,1,48,47,1964569880
10719,18,Jits_Linear_8,1,5,56,103,1964591476
10719,18,Jits_Linear_8,2,5,63,98,1964681596
10719,18,Jits_Linear_8,3,5,80,127,1964684812
10719,18,Jits_Linear_8,0,5,80,127,1965142468
10719,18,Jits_Linear_8,1,1,48,45,1965150944
10719,18,Jits_Linear_8,2,5,56,103,1965152660
10719,18,Jits_Linear_8,3,5,63,98,1965172068
10719,18,Jits_Linear_8,0,1,48,44,1965706768
10719,18,Jits_Linear_8,1,5,63,98,1965711600
10719,18,Jits_Linear_8,2,5,80,127,1965772360
10719,18,Jits_Linear_8,3,5,56,103,1965782632
10719,18,Jits_Linear_8,0,1,48,45,1966292016
10719,18,Jits_Linear_8,1,5,63,98,1966351628
10719,18,Jits_Linear_8,2,5,80,127,1966381528
10719,18,Jits_Linear_8,3,5,56,103,1966422348
10719,18,Jits_Linear_8,0,5,56,103,1966911848
10719,18,Jits_Linear_8,1,5,80,127,1966922120
10719,18,Jits_Linear_8,2,1,48,46,1966947412
10719,18,Jits_Linear_8,3,5,63,98,1966961976
10719,18,Jits_Linear_8,0,5,80,127,1967442404
10719,18,Jits_Linear_8,1,1,48,32,1967477360
10719,18,Jits_Linear_8,2,5,56,103,1967522344
10719,18,Jits_Linear_8,3,5,63,98,1967532616
10719,18,Jits_Linear_8,0,5,80,127,1968051560
10719,18,Jits_Linear_8,1,1,48,38,1968065312
10719,18,Jits_Linear_8,2,5,56,103,1968131576
10719,18,Jits_Linear_8,3,5,63,98,1968141844
10719,18,Jits_Linear_8,0,5,80,127,1968571784
10719,18,Jits_Linear_8,1,5,56,103,1968621836
10719,18,Jits_Linear_8,2,1,48,53,1968656668
10719,18,Jits_Linear_8,3,5,63,98,1968672428
10719,18,Jits_Linear_8,0,5,56,103,1969192420
10719,18,Jits_Linear_8,1,5,63,98,1969195488
10719,18,Jits_Linear_8,2,1,48,56,1969209932
10719,18,Jits_Linear_8,3,5,80,127,1969241344
10719,18,Jits_Linear_8,0,5,56,103,1969771976
10719,18,Jits_Linear_8,1,1,48,49,1969795624
10719,18,Jits_Linear_8,2,5,63,98,1969801644
10719,18,Jits_Linear_8,3,5,80,127,1969811840
10719,18,Jits_Linear_8,0,5,63,98,1970241852
10719,18,Jits_Linear_8,1,5,56,103,1970311388
10719,18,Jits_Linear_8,2,1,48,46,1970354812
10719,18,Jits_Linear_8,3,5,80,127,1970361660
10719,18,Jits_Linear_8,0,5,63,98,1970831812
10719,18,Jits_Linear_8,1,5,56,103,1970842456
10719,18,Jits_Linear_8,2,5,80,127,1970845296
10719,18,Jits_Linear_8,3,1,48,48,1970854940
10719,18,Jits_Linear_8,0,5,80,127,1971331552
10719,18,Jits_Linear_8,1,5,56,103,1971391720
10719,18,Jits_Linear_8,2,1,48,44,1971424436
10719,18,Jits_Linear_8,3,5,63,98,1971481948
10719,18,Jits_Linear_8,0,5,80,127,1971882264
10719,18,Jits_Linear_8,1,5,56,103,1971981616
10719,18,Jits_Linear_8,2,5,63,98,1972021580
10719,18,Jits_Linear_8,3,1,48,46,1972023592
10719,18,Jits_Linear_8,0,5,56,103,1972482416
10719,18,Jits_Linear_8,1,5,63,98,1972502008
10719,18,Jits_Linear_8,2,5,80,127,1972541868
10719,18,Jits_Linear_8,3,1,48,38,1972567384
10719,18,Jits_Linear_8,0,5,63,98,1973001588
10719,18,Jits_Linear_8,1,5,56,103,1973021996
10719,18,Jits_Linear_8,2,5,80,127,1973122320
10719,18,Jits_Linear_8,3,1,48,61,1973147084
10719,18,Jits_Linear_8,0,5,63,98,1973532080
10719,18,Jits_Linear_8,1,5,80,127,1973641548
10719,18,Jits_Linear_8,2,5,56,103,1973672568
10719,18,Jits_Linear_8,3,1,48,47,1973697636
10719,18,Jits_Linear_8,0,5,56,103,1974092292
10719,18,Jits_Linear_8,1,5,63,98,1974121896
10719,18,Jits_Linear_8,2,5,80,127,1974172172
10719,18,Jits_Linear_8,3,1,48,39,1974261076
10719,18,Jits_Linear_8,0,5,63,98,1974602024
10719,18,Jits_Linear_8,1,5,56,103,1974631772
10719,18,Jits_Linear_8,2,5,80,127,1974681900
10719,18,Jits_Linear_8,3,1,48,34,1974826104
10719,18,Jits_Linear_8,0,5,56,103,1975171372
10719,18,Jits_Linear_8,1,5,63,98,1975192056
10719,18,Jits_Linear_8,2,5,80,127,1975271776
10719,18,Jits_Linear_8,3,1,48,37,1975293104
10719,18,Jits_Linear_8,0,5,63,98,1975682372
10719,18,Jits_Linear_8,1,5,56,103,1975741792
10719,18,Jits_Linear_8,2,5,80,127,1975771616
10719,18,Jits_Linear_8,3,1,48,32,1975804180
10719,18,Jits_Linear_8,0,5,56,103,1976262136
10719,18,Jits_Linear_8,1,1,48,39,1976290136
10719,18,Jits_Linear_8,2,5,80,127,1976322300
10719,18,Jits_Linear_8,3,5,63,98,1976362336
10719,18,Jits_Linear_8,0,5,63,98,1976772024
10719,18,Jits_Linear_8,1,5,56,103,1976832344
10719,18,Jits_Linear_8,2,1,48,48,1976849336
10719,18,Jits_Linear_8,3,5,80,127,1976901964
10719,18,Jits_Linear_8,0,5,56,103,1977382160
10719,18,Jits_Linear_8,1,1,48,43,1977383128
10719,18,Jits_Linear_8,2,5,63,98,1977391528
10719,18,Jits_Linear_8,3,5,80,127,1977394816
10719,18,Jits_Linear_8,0,5,63,98,1977852376
10719,18,Jits_Linear_8,1,1,48,37,1977883320
10719,18,Jits_Linear_8,2,5,56,103,1977911592
10719,18,Jits_Linear_8,3,5,80,127,1977914660
10719,18,Jits_Linear_8,0,5,63,98,1978362388
10719,18,Jits_Linear_8,1,1,48,47,1978378392
10719,18,Jits_Linear_8,2,5,80,127,1978392008
10719,18,Jits_Linear_8,3,5,56,103,1978412320
10719,18,Jits_Linear_8,0,1,48,45,1978877308
10719,18,Jits_Linear_8,1,5,56,103,1978891576
10719,18,Jits_Linear_8,2,5,63,98,1978941736
10719,18,Jits_Linear_8,3,1,48,30,1978952712
10719,18,Jits_Linear_8,4,5,80,127,1979021732
10719,18,Jits_Linear_8,0,5,80,127,1979392292
10719,18,Jits_Linear_8,1,5,63,98,1979432404
10719,18,Jits_Linear_8,2,5,56,103,1979451668
10719,18,Jits_Linear_8,3,1,48,45,1979452636
10719,18,Jits_Linear_8,0,1,48,48,1979945016
10719,18,Jits_Linear_8,1,5,56,103,1979982572
10719,18,Jits_Linear_8,2,5,80,127,1979992400
10719,18,Jits_Linear_8,3,5,63,98,1980011740
10719,18,Jits_Linear_8,0,1,48,46,1980458172
10719,18,Jits_Linear_8,1,5,56,103,1980481880
10719,18,Jits_Linear_8,2,5,63,98,1980532012
10719,18,Jits_Linear_8,3,5,80,127,1980561748
10719,18,Jits_Linear_8,0,5,56,103,1980952048
10719,18,Jits_Linear_8,1,5,63,98,1980962172
10719,18,Jits_Linear_8,2,1,48,43,1980995632
10719,18,Jits_Linear_8,3,5,80,127,1981012292
10719,18,Jits_Linear_8,0,1,48,50,1981453028
10719,18,Jits_Linear_8,1,5,56,103,1981461760
10719,18,Jits_Linear_8,2,5,80,127,1981464760
10719,18,Jits_Linear_8,3,5,63,98,1981621484
10719,18,Jits_Linear_8,0,1,48,47,1981923548
10719,18,Jits_Linear_8,1,5,63,98,1981992376
10719,18,Jits_Linear_8,2,5,56,103,1982061896
10719,18,Jits_Linear_8,3,5,80,127,1982101908
10719,18,Jits_Linear_8,0,1,48,48,1982519288
10719,18,Jits_Linear_8,1,5,63,98,1982542256
10719,18,Jits_Linear_8,2,5,56,103,1982632220
10719,18,Jits_Linear_8,3,5,80,127,1982635516
10719,18,Jits_Linear_8,0,5,56,103,1983031600
10719,18,Jits_Linear_8,1,1,48,54,1983112712
10719,18,Jits_Linear_8,2,5,63,98,1983121652
10719,18,Jits_Linear_8,3,5,80,127,1983132148
10719,18,Jits_Linear_8,0,5,56,103,1983512036
10719,18,Jits_Linear_8,1,5,63,98,1983562388
10719,18,Jits_Linear_8,2,5,80,127,1983591768
10719,18,Jits_Linear_8,3,1,48,49,1983629584
10719,18,Jits_Linear_8,0,5,63,98,1984101716
10719,18,Jits_Linear_8,1,1,48,53,1984105584
10719,18,Jits_Linear_8,2,5,80,127,1984112276
10719,18,Jits_Linear_8,3,5,56,103,1984172520
10719,18,Jits_Linear_8,4,1,48,19,1984199512
10719,18,Jits_Linear_8,0,5,63,98,1984521480
10719,18,Jits_Linear_8,1,5,80,127,1984582120
10719,18,Jits_Linear_8,2,5,56,103,1984622208
10719,18,Jits_Linear_8,3,1,48,50,1984651176
10719,18,Jits_Linear_8,0,1,48,50,1985111060
10719,18,Jits_Linear_8,1,5,56,103,1985121572
10719,18,Jits_Linear_8,2,5,80,127,1985142252
10719,18,Jits_Linear_8,3,5,63,98,1985161516
10719,18,Jits_Linear_8,0,5,63,98,1985541448
10719,18,Jits_Linear_8,1,5,56,103,1985562152
10719,18,Jits_Linear_8,2,5,80,127,1985601944
10719,18,Jits_Linear_8,3,1,48,56,1985646040
10719,18,Jits_Linear_8,0,5,63,98,1986051384
10719,18,Jits_Linear_8,1,5,80,127,1986082132
10719,18,Jits_Linear_8,2,5,56,103,1986101548
10719,18,Jits_Linear_8,3,1,48,49,1986138596
10719,18,Jits_Linear_8,0,5,80,127,1986521392
10719,18,Jits_Linear_8,1,5,56,103,1986571520
10719,18,Jits_Linear_8,2,1,48,31,1986574568
10719,18,Jits_Linear_8,3,5,63,98,1986632276
10719,18,Jits_Linear_8,0,5,63,98,1987001584
10719,18,Jits_Linear_8,1,1,48,45,1987077064
10719,18,Jits_Linear_8,2,5,56,103,1987121552
10719,18,Jits_Linear_8,3,5,80,127,1987152128
10719,18,Jits_Linear_8,0,5,80,127,1987532128
10719,18,Jits_Linear_8,1,5,63,98,1987551544
10719,18,Jits_Linear_8,2,1,48,47,1987576684
10719,18,Jits_Linear_8,3,5,56,103,1987622288
10719,18,Jits_Linear_8,0,5,63,98,1988042240
10719,18,Jits_Linear_8,1,5,56,103,1988052436
10719,18,Jits_Linear_8,2,1,48,48,1988080436
10719,18,Jits_Linear_8,3,5,80,127,1988132396
10719,18,Jits_Linear_8,0,5,56,103,1988592048
10719,18,Jits_Linear_8,1,1,48,41,1988604532
10719,18,Jits_Linear_8,2,5,80,127,1988621960
10719,18,Jits_Linear_8,3,5,63,98,1988632156
10719,18,Jits_Linear_8,0,9999,9999,9999,1878189180
10719,18,Jits_Linear_8,1,9999,9999,9999,1879009340
10719,18,Jits_Linear_8,2,9999,9999,9999,1879829620
10719,18,Jits_Linear_8,3,9999,9999,9999,1880649800
10719,18,Jits_Linear_8,4,9999,9999,9999,1881470028
10719,18,Jits_Linear_8,5,9999,9999,9999,1882280048
10719,18,Jits_Linear_8,6,9999,9999,9999,1883090044
10719,18,Jits_Linear_8,7,9999,9999,9999,1883899996
10719,18,Jits_Linear_8,8,9999,9999,9999,1884709988
10719,18,Jits_Linear_8,9,9999,9999,9999,1885519992
10719,18,Jits_Linear_8,10,9999,9999,9999,1886319692
10719,18,Jits_Linear_8,11,9999,9999,9999,1887119448
10719,18,Jits_Linear_8,12,9999,9999,9999,1887919224
10719,18,Jits_Linear_8,13,9999,9999,9999,1888719964
10719,18,Jits_Linear_8,14,9999,9999,9999,1889519708
10719,18,Jits_Linear_8,15,9999,9999,9999,1890309200
10719,18,Jits_Linear_8,16,9999,9999,9999,1891099748
10719,18,Jits_Linear_8,17,9999,9999,9999,1891889260
10719,18,Jits_Linear_8,18,9999,9999,9999,1892679804
10719,18,Jits_Linear_8,19,9999,9999,9999,1893469308
10719,18,Jits_Linear_8,20,9999,9999,9999,1894249584
10719,18,Jits_Linear_8,21,9999,9999,9999,1895029856
10719,18,Jits_Linear_8,22,9999,9999,9999,1895809088
10719,18,Jits_Linear_8,23,9999,9999,9999,1896589376
10719,18,Jits_Linear_8,24,9999,9999,9999,1897369724
10719,18,Jits_Linear_8,25,9999,9999,9999,1898139736
10719,18,Jits_Linear_8,26,9999,9999,9999,1898909760
10719,18,Jits_Linear_8,27,9999,9999,9999,1899679848
10719,18,Jits_Linear_8,28,9999,9999,9999,1900449860
10719,18,Jits_Linear_8,29,9999,9999,9999,1901219896
10719,18,Jits_Linear_8,30,9999,9999,9999,1901979712
10719,18,Jits_Linear_8,31,9999,9999,9999,1902739536
10719,18,Jits_Linear_8,32,9999,9999,9999,1903499372
10719,18,Jits_Linear_8,33,9999,9999,9999,1904259188
10719,18,Jits_Linear_8,34,9999,9999,9999,1905019996
10719,18,Jits_Linear_8,35,9999,9999,9999,1905769580
10719,18,Jits_Linear_8,36,9999,9999,9999,1906519124
10719,18,Jits_Linear_8,37,9999,9999,9999,1907269744
10719,18,Jits_Linear_8,38,9999,9999,9999,1908019316
10719,18,Jits_Linear_8,39,9999,9999,9999,1908769864
10719,18,Jits_Linear_8,40,9999,9999,9999,1909509216
10719,18,Jits_Linear_8,41,9999,9999,9999,1910249572
10719,18,Jits_Linear_8,42,9999,9999,9999,1910989908
10719,18,Jits_Linear_8,43,9999,9999,9999,1911729212
10719,18,Jits_Linear_8,44,9999,9999,9999,1912469612
10719,18,Jits_Linear_8,45,9999,9999,9999,1913199696
10719,18,Jits_Linear_8,46,9999,9999,9999,1913929792
10719,18,Jits_Linear_8,47,9999,9999,9999,1914659956
10719,18,Jits_Linear_8,48,9999,9999,9999,1915390028
10719,18,Jits_Linear_8,49,9999,9999,9999,1916119132
10719,18,Jits_Linear_8,50,9999,9999,9999,1916839992
10719,18,Jits_Linear_8,51,9999,9999,9999,1917559884
10719,18,Jits_Linear_8,52,9999,9999,9999,1918279788
10719,18,Jits_Linear_8,53,9999,9999,9999,1918999632
10719,18,Jits_Linear_8,54,9999,9999,9999,1919719508
10719,18,Jits_Linear_8,55,9999,9999,9999,1920429148
10719,18,Jits_Linear_8,56,9999,9999,9999,1921139820
10719,18,Jits_Linear_8,57,9999,9999,9999,1921849460
10719,18,Jits_Linear_8,58,9999,9999,9999,1922560124
10719,18,Jits_Linear_8,59,9999,9999,9999,1923279936
10719,18,Jits_Linear_8,60,9999,9999,9999,1923979388
10719,18,Jits_Linear_8,61,9999,9999,9999,1924679744
10719,18,Jits_Linear_8,62,9999,9999,9999,1925379168
10719,18,Jits_Linear_8,63,9999,9999,9999,1926079568
10719,18,Jits_Linear_8,64,9999,9999,9999,1926780000
10719,18,Jits_Linear_8,65,9999,9999,9999,1927469180
10719,18,Jits_Linear_8,66,9999,9999,9999,1928159324
10719,18,Jits_Linear_8,67,9999,9999,9999,1928849476
10719,18,Jits_Linear_8,68,9999,9999,9999,1929539700
10719,18,Jits_Linear_8,69,9999,9999,9999,1930229844
10719,18,Jits_Linear_8,70,9999,9999,9999,1930909812
10719,18,Jits_Linear_8,71,9999,9999,9999,1931589704
10719,18,Jits_Linear_8,72,9999,9999,9999,1932269632
10719,18,Jits_Linear_8,73,9999,9999,9999,1932949608
10719,18,Jits_Linear_8,74,9999,9999,9999,1933629520
10719,18,Jits_Linear_8,75,9999,9999,9999,1934299192
10719,18,Jits_Linear_8,76,9999,9999,9999,1934969948
10719,18,Jits_Linear_8,77,9999,9999,9999,1935639656
10719,18,Jits_Linear_8,78,9999,9999,9999,1936309340
10719,18,Jits_Linear_8,79,9999,9999,9999,1936980096
10719,18,Jits_Linear_8,80,9999,9999,9999,1937639520
10719,18,Jits_Linear_8,81,9999,9999,9999,1938300008
10719,18,Jits_Linear_8,82,9999,9999,9999,1938959444
10719,18,Jits_Linear_8,83,9999,9999,9999,1939619896
10719,18,Jits_Linear_8,84,9999,9999,9999,1940279412
10719,18,Jits_Linear_8,85,9999,9999,9999,1940929616
10719,18,Jits_Linear_8,86,9999,9999,9999,1941579844
10719,18,Jits_Linear_8,87,9999,9999,9999,1942230104
10719,18,Jits_Linear_8,88,9999,9999,9999,1942889532
10719,18,Jits_Linear_8,89,9999,9999,9999,1943539804
10719,18,Jits_Linear_8,90,9999,9999,9999,1944179764
10719,18,Jits_Linear_8,91,9999,9999,9999,1944819780
10719,18,Jits_Linear_8,92,9999,9999,9999,1945459824
10719,18,Jits_Linear_8,93,9999,9999,9999,1946099824
10719,18,Jits_Linear_8,94,9999,9999,9999,1946739804
10719,18,Jits_Linear_8,95,9999,9999,9999,1947369588
10719,18,Jits_Linear_8,96,9999,9999,9999,1947999360
10719,18,Jits_Linear_8,97,9999,9999,9999,1948630144
10719,18,Jits_Linear_8,98,9999,9999,9999,1949270088
10719,18,Jits_Linear_8,99,9999,9999,9999,1949910104
10719,18,Jits_Linear_8,100,9999,9999,9999,1950539876
10719,18,Jits_Linear_8,101,9999,9999,9999,1951159352
10719,18,Jits_Linear_8,102,9999,9999,9999,1951779904
10719,18,Jits_Linear_8,103,9999,9999,9999,1952399468
10719,18,Jits_Linear_8,104,9999,9999,9999,1953020004
10719,18,Jits_Linear_8,105,9999,9999,9999,1953629248
10719,18,Jits_Linear_8,106,9999,9999,9999,1954239572
10719,18,Jits_Linear_8,107,9999,9999,9999,1954849912
10719,18,Jits_Linear_8,108,9999,9999,9999,1955459176
10719,18,Jits_Linear_8,109,9999,9999,9999,1956069428
10719,18,Jits_Linear_8,110,9999,9999,9999,1956669540
10719,18,Jits_Linear_8,111,9999,9999,9999,1957269612
10719,18,Jits_Linear_8,112,9999,9999,9999,1957869688
10719,18,Jits_Linear_8,113,9999,9999,9999,1958469724
10719,18,Jits_Linear_8,114,9999,9999,9999,1959069792
10719,18,Jits_Linear_8,115,9999,9999,9999,1959659596
10719,18,Jits_Linear_8,116,9999,9999,9999,1960249448
10719,18,Jits_Linear_8,117,9999,9999,9999,1960839280
10719,18,Jits_Linear_8,118,9999,9999,9999,1961430132
10719,18,Jits_Linear_8,119,9999,9999,9999,1962029108
10719,18,Jits_Linear_8,120,9999,9999,9999,1962609784
10719,18,Jits_Linear_8,121,9999,9999,9999,1963189332
10719,18,Jits_Linear_8,122,9999,9999,9999,1963769912
10719,18,Jits_Linear_8,123,9999,9999,9999,1964349548
10719,18,Jits_Linear_8,124,9999,9999,9999,1964929100
10719,18,Jits_Linear_8,125,9999,9999,9999,1965499496
10719,18,Jits_Linear_8,126,9999,9999,9999,1966069832
10719,18,Jits_Linear_8,127,9999,9999,9999,1966639216
10719,18,Jits_Linear_8,128,9999,9999,9999,1967209544
10719,18,Jits_Linear_8,129,9999,9999,9999,1967779960
10719,18,Jits_Linear_8,130,9999,9999,9999,1968340044
10719,18,Jits_Linear_8,131,9999,9999,9999,1968899148
10719,18,Jits_Linear_8,132,9999,9999,9999,1969459320
10719,18,Jits_Linear_8,133,9999,9999,9999,1970019404
10719,18,Jits_Linear_8,134,9999,9999,9999,1970579560
10719,18,Jits_Linear_8,135,9999,9999,9999,1971129420
10719,18,Jits_Linear_8,136,9999,9999,9999,1971679296
10719,18,Jits_Linear_8,137,9999,9999,9999,1972229184
10719,18,Jits_Linear_8,138,9999,9999,9999,1972779092
10719,18,Jits_Linear_8,139,9999,9999,9999,1973330024
10719,18,Jits_Linear_8,140,9999,9999,9999,1973869636
10719,18,Jits_Linear_8,141,9999,9999,9999,1974409320
10719,18,Jits_Linear_8,142,9999,9999,9999,1974949984
10719,18,Jits_Linear_8,143,9999,9999,9999,1975489592
10719,18,Jits_Linear_8,144,9999,9999,9999,1976029288
10719,18,Jits_Linear_8,145,9999,9999,9999,1976559688
10719,18,Jits_Linear_8,146,9999,9999,9999,1977089128
10719,18,Jits_Linear_8,147,9999,9999,9999,1977619540
10719,18,Jits_Linear_8,148,9999,9999,9999,1978149944
10719,18,Jits_Linear_8,149,9999,9999,9999,1978679364
10719,18,Jits_Linear_8,150,9999,9999,9999,1979199556
10719,18,Jits_Linear_8,151,9999,9999,9999,1979719752
10719,18,Jits_Linear_8,152,9999,9999,9999,1980239976
10719,18,Jits_Linear_8,153,9999,9999,9999,1980759136
10719,18,Jits_Linear_8,154,9999,9999,9999,1981279336
10719,18,Jits_Linear_8,155,9999,9999,9999,1981789284
10719,18,Jits_Linear_8,156,9999,9999,9999,1982299224
10719,18,Jits_Linear_8,157,9999,9999,9999,1982809164
10719,18,Jits_Linear_8,158,9999,9999,9999,1983319112
10719,18,Jits_Linear_8,159,9999,9999,9999,1983830112
10719,18,Jits_Linear_8,160,9999,9999,9999,1984340056
10719,18,Jits_Linear_8,161,9999,9999,9999,1984839804
10719,18,Jits_Linear_8,162,9999,9999,9999,1985339492
10719,18,Jits_Linear_8,163,9999,9999,9999,1985839168
10719,18,Jits_Linear_8,164,9999,9999,9999,1986339964
10719,18,Jits_Linear_8,165,9999,9999,9999,1986829428
10719,18,Jits_Linear_8,166,9999,9999,9999,1987319884
10719,18,Jits_Linear_8,167,9999,9999,9999,1987809380
10719,18,Jits_Linear_8,168,9999,9999,9999,1988299856
10719,18,Jits_Linear_8,169,9999,9999,9999,1988789352
10720,5,ISIP_5,0,5,42,127,2050406760
10720,5,ISIP_5,1,5,42,127,2050906552
10720,5,ISIP_5,2,5,42,127,2051407164
10720,5,ISIP_5,3,5,42,127,2051906808
10720,5,ISIP_5,4,5,42,127,2052406600
10720,5,ISIP_5,5,5,42,127,2052907364
10720,5,ISIP_5,6,5,42,127,2053407304
10720,5,ISIP_5,7,5,42,127,2053906720
10720,5,ISIP_5,8,5,42,127,2054406560
10720,5,ISIP_5,9,1,48,52,2054428180
10720,5,ISIP_5,10,1,48,53,2054907080
10720,5,ISIP_5,11,5,42,127,2054908492
10720,5,ISIP_5,12,5,42,127,2055407072
10720,5,ISIP_5,13,1,48,53,2055429268
10720,5,ISIP_5,14,5,42,127,2055906620
10720,5,ISIP_5,15,1,48,49,2055928964
10720,5,ISIP_5,16,1,48,45,2056384056
10720,5,ISIP_5,17,5,42,127,2056407352
10720,5,ISIP_5,18,1,48,31,2056436560
10720,5,ISIP_5,19,5,42,127,2056907108
10720,5,ISIP_5,20,1,48,43,2056921896
10720,5,ISIP_5,21,5,42,127,2057406804
10720,5,ISIP_5,22,1,48,44,2057408288
10720,5,ISIP_5,23,5,42,127,2057906424
10720,5,ISIP_5,24,1,48,49,2057919412
10720,5,ISIP_5,25,5,42,127,2058407312
10720,5,ISIP_5,26,1,48,47,2058421728
10720,5,ISIP_5,27,1,48,56,2058886996
10720,5,ISIP_5,28,5,42,127,2058907076
10720,5,ISIP_5,29,5,42,127,2059406556
10720,5,ISIP_5,30,1,48,42,2059424932
10720,5,ISIP_5,31,1,48,46,2059903144
10720,5,ISIP_5,32,5,42,127,2059906540
10720,5,ISIP_5,33,1,48,56,2060374412
10720,5,ISIP_5,34,5,42,127,2060407056
10720,5,ISIP_5,35,1,48,44,2060893556
10720,5,ISIP_5,36,5,42,127,2060906976
10720,5,ISIP_5,37,1,48,29,2060947556
10720,5,ISIP_5,38,5,42,127,2061406656
10720,5,ISIP_5,39,1,48,41,2061415612
10720,5,ISIP_5,40,5,42,127,2061907248
10720,5,ISIP_5,41,1,48,42,2061934904
10720,5,ISIP_5,42,5,42,127,2062407092
10720,5,ISIP_5,43,1,48,48,2062429960
10720,5,ISIP_5,44,5,42,127,2062906640
10720,5,ISIP_5,45,1,48,50,2062926212
10720,5,ISIP_5,46,1,48,35,2062979152
10720,5,ISIP_5,47,1,48,42,2063396840
10720,5,ISIP_5,48,5,42,127,2063406380
10720,5,ISIP_5,49,1,48,29,2063449652
10720,5,ISIP_5,50,1,48,50,2063903928
10720,5,ISIP_5,51,5,42,127,2063907176
10720,5,ISIP_5,52,1,48,38,2063940496
10720,5,ISIP_5,53,5,42,127,2064407004
10720,5,ISIP_5,54,1,48,56,2064433240
10720,5,ISIP_5,55,5,42,127,2064906624
10720,5,ISIP_5,56,1,48,47,2064917672
10720,5,ISIP_5,57,1,48,46,2065398620
10720,5,ISIP_5,58,5,42,127,2065407484
10720,5,ISIP_5,59,1,48,40,2065900864
10720,5,ISIP_5,60,5,42,127,2065907104
10720,5,ISIP_5,61,1,48,48,2066405600
10720,5,ISIP_5,62,5,42,127,2066407244
10720,5,ISIP_5,63,1,48,51,2066896808
10720,5,ISIP_5,64,5,42,127,2066906496
10720,5,ISIP_5,65,1,48,49,2067400468
10720,5,ISIP_5,66,5,42,127,2067407160
10720,5,ISIP_5,67,5,42,127,2067907088
10720,5,ISIP_5,68,1,48,48,2067914996
10720,5,ISIP_5,69,5,42,127,2068406780
10720,5,ISIP_5,70,1,48,49,2068414544
10720,5,ISIP_5,71,5,42,127,2068907300
10720,5,ISIP_5,72,1,48,54,2068909240
10720,5,ISIP_5,73,5,42,127,2069407212
10720,5,ISIP_5,74,1,48,49,2069423424
10720,5,ISIP_5,75,5,42,127,2069906980
10720,5,ISIP_5,76,1,48,47,2069923340
10720,5,ISIP_5,77,1,48,43,2070415176
10720,5,ISIP_5,78,1,48,46,2070914792
10720,5,ISIP_5,79,1,48,45,2071415528
10720,5,ISIP_5,80,1,48,38,2071917692
10720,5,ISIP_5,81,1,48,46,2072417304
10720,5,ISIP_5,82,1,48,45,2072916768
10720,5,ISIP_5,83,1,48,41,2073409808
10720,5,ISIP_5,84,1,48,21,2073478228
10720,5,ISIP_5,85,1,48,38,2073918828
10720,5,ISIP_5,86,1,48,51,2074426672
10720,5,ISIP_5,87,1,48,49,2074938776
10720,5,ISIP_5,88,1,48,48,2075410568
10720,5,ISIP_5,89,1,48,31,2075480332
10720,5,ISIP_5,90,1,48,45,2075940604
10720,5,ISIP_5,91,1,48,46,2076459888
10720,5,ISIP_5,92,1,48,48,2076945068
10720,5,ISIP_5,93,1,48,49,2077460620
10720,5,ISIP_5,94,1,48,50,2077973700
10720,5,ISIP_5,95,1,48,54,2078479448
10720,5,ISIP_5,96,1,48,51,2078980008
10720,5,ISIP_5,97,1,48,48,2079474612
10720,5,ISIP_5,98,1,48,52,2079983956
10720,5,ISIP_5,99,1,48,49,2080481400
10720,5,ISIP_5,100,1,48,48,2080982064
10720,5,ISIP_5,101,1,48,50,2081456696
10720,5,ISIP_5,102,1,48,51,2081963416
10720,5,ISIP_5,103,1,48,53,2082459896
10720,5,ISIP_5,104,1,48,51,2082979032
10720,5,ISIP_5,105,1,48,50,2083504600
10720,5,ISIP_5,106,1,48,50,2084011324
10720,5,ISIP_5,107,1,48,55,2084484236
10720,5,ISIP_5,108,1,48,51,2084979140
10720,5,ISIP_5,109,1,48,53,2085498648
10720,5,ISIP_5,110,1,48,49,2086016368
10720,5,ISIP_5,111,1,48,49,2086533860
10720,5,ISIP_5,112,1,48,48,2087044620
10720,5,ISIP_5,113,1,48,48,2087543560
10720,5,ISIP_5,114,1,48,52,2088036292
10720,5,ISIP_5,115,1,48,49,2088522300
10720,5,ISIP_5,116,1,48,51,2089030144
10720,5,ISIP_5,117,1,48,52,2089531256
10720,5,ISIP_5,118,1,48,54,2090046280
10720,5,ISIP_5,119,1,48,53,2090559736
10720,5,ISIP_5,120,1,48,52,2091042148
10720,5,ISIP_5,121,1,48,50,2091530248
10720,5,ISIP_5,122,1,48,46,2092048932
10720,5,ISIP_5,123,1,48,53,2092561568
10720,5,ISIP_5,124,1,48,56,2093058612
10720,5,ISIP_5,125,1,48,60,2093573712
10720,5,ISIP_5,126,1,48,57,2094078412
10720,5,ISIP_5,127,1,48,59,2094588272
10720,5,ISIP_5,128,1,48,58,2095099780
10720,5,ISIP_5,129,1,48,56,2095594308
10720,5,ISIP_5,130,1,48,59,2096144668
10720,5,ISIP_5,131,1,48,60,2096674348
10720,5,ISIP_5,132,1,48,54,2097174188
10720,5,ISIP_5,133,1,48,55,2097685320
10720,5,ISIP_5,134,1,48,59,2098182820
10720,5,ISIP_5,135,1,48,52,2098708792
10720,5,ISIP_5,136,1,48,57,2099229724
10720,5,ISIP_5,137,1,48,54,2099737644
10720,5,ISIP_5,138,1,48,58,2100249372
10720,5,ISIP_5,139,1,48,57,2100765896
10720,5,ISIP_5,140,1,48,62,2101270748
10720,5,ISIP_5,141,1,48,62,2101809556
10720,5,ISIP_5,142,1,48,63,2102350912
10720,5,ISIP_5,143,1,48,65,2102858152
10720,5,ISIP_5,144,1,48,62,2103358436
10720,5,ISIP_5,145,1,48,62,2103881544
10720,5,ISIP_5,146,1,48,54,2104390664
10720,5,ISIP_5,147,1,48,60,2104902020
10720,5,ISIP_5,148,1,48,62,2105404400
10720,5,ISIP_5,149,1,48,63,2105890628
10720,5,ISIP_5,150,1,48,56,2106386280
10720,5,ISIP_5,151,1,48,61,2106866948
10720,5,ISIP_5,152,1,48,62,2107397456
10720,5,ISIP_5,153,1,48,62,2107911144
10720,5,ISIP_5,154,1,48,65,2108395116
10720,5,ISIP_5,155,1,48,66,2108906936
10720,5,ISIP_5,156,1,48,58,2109403400
10720,5,ISIP_5,157,1,48,52,2109887228
10720,5,ISIP_5,158,1,48,65,2110399484
10720,5,ISIP_5,159,1,48,61,2110938536
10720,5,ISIP_5,160,1,48,60,2111448920
10720,5,ISIP_5,161,1,48,57,2111947864
10720,5,ISIP_5,162,1,48,66,2112473732
10720,5,ISIP_5,163,1,48,61,2112995640
10720,5,ISIP_5,164,1,48,64,2113513580
10720,5,ISIP_5,165,1,48,70,2113978184
10720,5,ISIP_5,166,1,48,65,2114500020
10720,5,ISIP_5,167,1,48,66,2115033520
10720,5,ISIP_5,168,1,48,63,2115533728
10720,5,ISIP_5,169,1,48,62,2116038580
10720,5,ISIP_5,170,1,48,57,2116554056
10720,5,ISIP_5,171,1,48,62,2117065864
10720,5,ISIP_5,172,1,48,59,2117559264
10720,5,ISIP_5,173,1,48,64,2118072268
10720,5,ISIP_5,174,1,48,64,2118586024
10720,5,ISIP_5,175,1,48,61,2119108680
10720,5,ISIP_5,176,1,48,57,2119617192
10720,5,ISIP_5,177,1,48,56,2120108360
10720,5,ISIP_5,178,1,48,56,2120626224
10720,5,ISIP_5,179,1,48,69,2121106468
10720,5,ISIP_5,180,1,48,64,2121628296
10720,5,ISIP_5,181,1,48,64,2122147284
10720,5,ISIP_5,182,1,48,54,2122656696
10720,5,ISIP_5,183,1,48,59,2123173972
10720,5,ISIP_5,184,1,48,52,2123678744
10720,5,ISIP_5,185,1,48,52,2124183896
10720,5,ISIP_5,186,1,48,54,2124675508
10720,5,ISIP_5,187,1,48,56,2125178636
10720,5,ISIP_5,188,1,48,53,2125685732
10720,5,ISIP_5,189,1,48,54,2126195596
10720,5,ISIP_5,190,1,48,51,2126718624
10720,5,ISIP_5,191,1,48,54,2127226768
10720,5,ISIP_5,192,1,48,51,2127725788
10720,5,ISIP_5,193,1,48,65,2128242156
10720,5,ISIP_5,194,1,48,54,2128739828
10720,5,ISIP_5,195,1,48,64,2129267564
10720,5,ISIP_5,196,1,48,63,2129778780
10720,5,ISIP_5,197,1,48,53,2130245932
10720,5,ISIP_5,0,9999,9999,9999,2050404472
10720,5,ISIP_5,1,9999,9999,9999,2050904116
10720,5,ISIP_5,2,9999,9999,9999,2051404876
10720,5,ISIP_5,3,9999,9999,9999,2051904596
10720,5,ISIP_5,4,9999,9999,9999,2052404312
10720,5,ISIP_5,5,9999,9999,9999,2052905076
10720,5,ISIP_5,6,9999,9999,9999,2053404792
10720,5,ISIP_5,7,9999,9999,9999,2053904436
10720,5,ISIP_5,8,9999,9999,9999,2054404200
10720,5,ISIP_5,9,9999,9999,9999,2054904944
10720,5,ISIP_5,10,9999,9999,9999,2055404636
10720,5,ISIP_5,11,9999,9999,9999,2055904332
10720,5,ISIP_5,12,9999,9999,9999,2056405068
10720,5,ISIP_5,13,9999,9999,9999,2056904820
10720,5,ISIP_5,14,9999,9999,9999,2057404516
10720,5,ISIP_5,15,9999,9999,9999,2057904212
10720,5,ISIP_5,16,9999,9999,9999,2058404952
10720,5,ISIP_5,17,9999,9999,9999,2058904644
10720,5,ISIP_5,18,9999,9999,9999,2059404344
10720,5,ISIP_5,19,9999,9999,9999,2059904104
10720,5,ISIP_5,20,9999,9999,9999,2060404844
10720,5,ISIP_5,21,9999,9999,9999,2060904540
10720,5,ISIP_5,22,9999,9999,9999,2061404220
10720,5,ISIP_5,23,9999,9999,9999,2061904960
10720,5,ISIP_5,24,9999,9999,9999,2062404656
10720,5,ISIP_5,25,9999,9999,9999,2062904428
10720,5,ISIP_5,26,9999,9999,9999,2063404092
10720,5,ISIP_5,27,9999,9999,9999,2063904888
10720,5,ISIP_5,28,9999,9999,9999,2064404568
10720,5,ISIP_5,29,9999,9999,9999,2064904312
10720,5,ISIP_5,30,9999,9999,9999,2065405048
10720,5,ISIP_5,31,9999,9999,9999,2065904744
10720,5,ISIP_5,32,9999,9999,9999,2066404444
10720,5,ISIP_5,33,9999,9999,9999,2066904132
10720,5,ISIP_5,34,9999,9999,9999,2067404876
10720,5,ISIP_5,35,9999,9999,9999,2067904576
10720,5,ISIP_5,36,9999,9999,9999,2068404344
10720,5,ISIP_5,37,9999,9999,9999,2068905012
10720,5,ISIP_5,38,9999,9999,9999,2069404776
10720,5,ISIP_5,39,9999,9999,9999,2069904468
10720,5,ISIP_5,40,9999,9999,9999,2070404164
10720,5,ISIP_5,41,9999,9999,9999,2070904904
10720,5,ISIP_5,42,9999,9999,9999,2071404592
10720,5,ISIP_5,43,9999,9999,9999,2071904360
10720,5,ISIP_5,44,9999,9999,9999,2072405096
10720,5,ISIP_5,45,9999,9999,9999,2072904788
10720,5,ISIP_5,46,9999,9999,9999,2073404480
10720,5,ISIP_5,47,9999,9999,9999,2073904224
10720,5,ISIP_5,48,9999,9999,9999,2074404960
10720,5,ISIP_5,49,9999,9999,9999,2074904652
10720,5,ISIP_5,50,9999,9999,9999,2075404344
10720,5,ISIP_5,51,9999,9999,9999,2075904060
10720,5,ISIP_5,52,9999,9999,9999,2076404800
10720,5,ISIP_5,53,9999,9999,9999,2076904564
10720,5,ISIP_5,54,9999,9999,9999,2077404256
10720,5,ISIP_5,55,9999,9999,9999,2077904992
10720,5,ISIP_5,56,9999,9999,9999,2078404684
10720,5,ISIP_5,57,9999,9999,9999,2078904376
10720,5,ISIP_5,58,9999,9999,9999,2079404140
10720,5,ISIP_5,59,9999,9999,9999,2079904876
10720,5,ISIP_5,60,9999,9999,9999,2080404564
10720,5,ISIP_5,61,9999,9999,9999,2080904256
10720,5,ISIP_5,62,9999,9999,9999,2081404992
10720,5,ISIP_5,63,9999,9999,9999,2081904760
10720,5,ISIP_5,64,9999,9999,9999,2082404448
10720,5,ISIP_5,65,9999,9999,9999,2082904140
10720,5,ISIP_5,66,9999,9999,9999,2083404880
10720,5,ISIP_5,67,9999,9999,9999,2083904572
10720,5,ISIP_5,68,9999,9999,9999,2084404336
10720,5,ISIP_5,69,9999,9999,9999,2084905072
10720,5,ISIP_5,70,9999,9999,9999,2085404764
10720,5,ISIP_5,71,9999,9999,9999,2085904452
10720,5,ISIP_5,72,9999,9999,9999,2086404192
10720,5,ISIP_5,73,9999,9999,9999,2086904932
10720,5,ISIP_5,74,9999,9999,9999,2087404620
10720,5,ISIP_5,75,9999,9999,9999,2087904312
10720,5,ISIP_5,76,9999,9999,9999,2088405048
10720,5,ISIP_5,77,9999,9999,9999,2088904816
10720,5,ISIP_5,78,9999,9999,9999,2089404508
10720,5,ISIP_5,79,9999,9999,9999,2089904200
10720,5,ISIP_5,80,9999,9999,9999,2090404936
10720,5,ISIP_5,81,9999,9999,9999,2090904628
10720,5,ISIP_5,82,9999,9999,9999,2091404392
10720,5,ISIP_5,83,9999,9999,9999,2091904084
10720,5,ISIP_5,84,9999,9999,9999,2092404820
10720,5,ISIP_5,85,9999,9999,9999,2092904512
10720,5,ISIP_5,86,9999,9999,9999,2093404276
10720,5,ISIP_5,87,9999,9999,9999,2093905012
10720,5,ISIP_5,88,9999,9999,9999,2094404704
10720,5,ISIP_5,89,9999,9999,9999,2094904396
10720,5,ISIP_5,90,9999,9999,9999,2095404084
10720,5,ISIP_5,91,9999,9999,9999,2095904820
10720,5,ISIP_5,92,9999,9999,9999,2096404588
10720,5,ISIP_5,93,9999,9999,9999,2096904280
10720,5,ISIP_5,94,9999,9999,9999,2097404992
10720,5,ISIP_5,95,9999,9999,9999,2097904756
10720,5,ISIP_5,96,9999,9999,9999,2098404448
10720,5,ISIP_5,97,9999,9999,9999,2098904136
10720,5,ISIP_5,98,9999,9999,9999,2099404872
10720,5,ISIP_5,99,9999,9999,9999,2099904564
10720,5,ISIP_5,100,9999,9999,9999,2100404328
10720,5,ISIP_5,101,9999,9999,9999,2100905068
10720,5,ISIP_5,102,9999,9999,9999,2101404760
10720,5,ISIP_5,103,9999,9999,9999,2101904500
10720,5,ISIP_5,104,9999,9999,9999,2102404156
10720,5,ISIP_5,105,9999,9999,9999,2102904892
10720,5,ISIP_5,106,9999,9999,9999,2103404656
10720,5,ISIP_5,107,9999,9999,9999,2103904348
10720,5,ISIP_5,108,9999,9999,9999,2104405088
10720,5,ISIP_5,109,9999,9999,9999,2104904780
10720,5,ISIP_5,110,9999,9999,9999,2105404468
10720,5,ISIP_5,111,9999,9999,9999,2105904236
10720,5,ISIP_5,112,9999,9999,9999,2106404972
10720,5,ISIP_5,113,9999,9999,9999,2106904664
10720,5,ISIP_5,114,9999,9999,9999,2107404352
10720,5,ISIP_5,115,9999,9999,9999,2107904100
10720,5,ISIP_5,116,9999,9999,9999,2108404832
10720,5,ISIP_5,117,9999,9999,9999,2108904528
10720,5,ISIP_5,118,9999,9999,9999,2109404212
10720,5,ISIP_5,119,9999,9999,9999,2109904948
10720,5,ISIP_5,120,9999,9999,9999,2110404716
10720,5,ISIP_5,121,9999,9999,9999,2110904412
10720,5,ISIP_5,122,9999,9999,9999,2111404100
10720,5,ISIP_5,123,9999,9999,9999,2111904840
10720,5,ISIP_5,124,9999,9999,9999,2112404528
10720,5,ISIP_5,125,9999,9999,9999,2112904292
10720,5,ISIP_5,126,9999,9999,9999,2113405032
10720,5,ISIP_5,127,9999,9999,9999,2113904720
10720,5,ISIP_5,128,9999,9999,9999,2114404412
10720,5,ISIP_5,129,9999,9999,9999,2114904176
10720,5,ISIP_5,130,9999,9999,9999,2115404912
10720,5,ISIP_5,131,9999,9999,9999,2115904604
10720,5,ISIP_5,132,9999,9999,9999,2116404292
10720,5,ISIP_5,133,9999,9999,9999,2116905032
10720,5,ISIP_5,134,9999,9999,9999,2117404720
10720,5,ISIP_5,135,9999,9999,9999,2117904484
10720,5,ISIP_5,136,9999,9999,9999,2118404152
10720,5,ISIP_5,137,9999,9999,9999,2118904888
10720,5,ISIP_5,138,9999,9999,9999,2119404652
10720,5,ISIP_5,139,9999,9999,9999,2119904344
10720,5,ISIP_5,140,9999,9999,9999,2120405080
10720,5,ISIP_5,141,9999,9999,9999,2120904768
10720,5,ISIP_5,142,9999,9999,9999,2121404536
10720,5,ISIP_5,143,9999,9999,9999,2121904228
10720,5,ISIP_5,144,9999,9999,9999,2122404964
10720,5,ISIP_5,145,9999,9999,9999,2122904656
10720,5,ISIP_5,146,9999,9999,9999,2123404344
10720,5,ISIP_5,147,9999,9999,9999,2123904112
10720,5,ISIP_5,148,9999,9999,9999,2124404848
10720,5,ISIP_5,149,9999,9999,9999,2124904540
10720,5,ISIP_5,150,9999,9999,9999,2125404232
10720,5,ISIP_5,151,9999,9999,9999,2125904968
10720,5,ISIP_5,152,9999,9999,9999,2126404660
10720,5,ISIP_5,153,9999,9999,9999,2126904424
10720,5,ISIP_5,154,9999,9999,9999,2127404116
10720,5,ISIP_5,155,9999,9999,9999,2127904852
10720,5,ISIP_5,156,9999,9999,9999,2128404544
10720,5,ISIP_5,157,9999,9999,9999,2128904308
10720,5,ISIP_5,158,9999,9999,9999,2129405024
10720,5,ISIP_5,159,9999,9999,9999,2129904712
10721,3,ISIP_8,0,5,42,127,2158510444
10721,3,ISIP_8,1,5,42,127,2159311172
10721,3,ISIP_8,2,5,42,127,2160111076
10721,3,ISIP_8,3,5,42,127,2160910856
10721,3,ISIP_8,4,5,42,127,2161710388
10721,3,ISIP_8,5,1,48,46,2161799968
10721,3,ISIP_8,6,1,48,54,2162483304
10721,3,ISIP_8,7,5,42,127,2162511308
10721,3,ISIP_8,8,1,48,54,2163253188
10721,3,ISIP_8,9,5,42,127,2163310968
10721,3,ISIP_8,10,1,48,57,2164038632
10721,3,ISIP_8,11,5,42,127,2164110924
10721,3,ISIP_8,12,1,48,58,2164886388
10721,3,ISIP_8,13,5,42,127,2164910436
10721,3,ISIP_8,14,1,48,58,2165659644
10721,3,ISIP_8,15,5,42,127,2165711216
10721,3,ISIP_8,16,1,48,57,2166474116
10721,3,ISIP_8,17,5,42,127,2166510948
10721,3,ISIP_8,18,1,48,52,2167238612
10721,3,ISIP_8,19,5,42,127,2167310928
10721,3,ISIP_8,20,1,48,53,2168100384
10721,3,ISIP_8,21,5,42,127,2168110368
10721,3,ISIP_8,22,1,48,48,2168903932
10721,3,ISIP_8,23,5,42,127,2168911148
10721,3,ISIP_8,24,1,48,51,2169695292
10721,3,ISIP_8,25,5,42,127,2169710880
10721,3,ISIP_8,26,1,48,51,2170444680
10721,3,ISIP_8,27,5,42,127,2170510764
10721,3,ISIP_8,28,1,48,52,2171267380
10721,3,ISIP_8,29,5,42,127,2171310420
10721,3,ISIP_8,30,1,48,55,2172074144
10721,3,ISIP_8,31,5,42,127,2172111276
10721,3,ISIP_8,32,1,48,52,2172842312
10721,3,ISIP_8,33,5,42,127,2172911012
10721,3,ISIP_8,34,1,48,47,2173659848
10721,3,ISIP_8,35,5,42,127,2173710844
10721,3,ISIP_8,36,1,48,55,2174469556
10721,3,ISIP_8,37,5,42,127,2174510428
10721,3,ISIP_8,38,1,48,54,2175246400
10721,3,ISIP_8,39,5,42,127,2175311204
10721,3,ISIP_8,40,1,48,56,2176076124
10721,3,ISIP_8,41,5,42,127,2176110940
10721,3,ISIP_8,42,1,48,51,2176855068
10721,3,ISIP_8,43,5,42,127,2176910676
10721,3,ISIP_8,44,1,48,54,2177659656
10721,3,ISIP_8,45,5,42,127,2177710408
10721,3,ISIP_8,46,1,48,49,2178475848
10721,3,ISIP_8,47,5,42,127,2178511188
10721,3,ISIP_8,48,1,48,48,2179301308
10721,3,ISIP_8,49,5,42,127,2179310920
10721,3,ISIP_8,50,1,48,51,2180076812
10721,3,ISIP_8,51,5,42,127,2180110676
10721,3,ISIP_8,52,5,42,127,2180910640
10721,3,ISIP_8,53,1,48,54,2180938896
10721,3,ISIP_8,54,5,42,127,2181711348
10721,3,ISIP_8,55,1,48,47,2181735712
10721,3,ISIP_8,56,1,48,51,2182478956
10721,3,ISIP_8,57,1,48,54,2183267836
10721,3,ISIP_8,58,1,48,54,2184056048
10721,3,ISIP_8,59,1,48,53,2184853536
10721,3,ISIP_8,60,1,48,50,2185608312
10721,3,ISIP_8,61,1,48,49,2186383952
10721,3,ISIP_8,62,1,48,52,2187187868
10721,3,ISIP_8,63,1,48,48,2188038712
10721,3,ISIP_8,64,1,48,57,2188858332
10721,3,ISIP_8,65,1,48,58,2189697560
10721,3,ISIP_8,66,1,48,54,2190454728
10721,3,ISIP_8,67,1,48,58,2191291932
10721,3,ISIP_8,68,1,48,54,2192119572
10721,3,ISIP_8,69,1,48,58,2192982976
10721,3,ISIP_8,70,1,48,61,2193836264
10721,3,ISIP_8,71,1,48,56,2194630832
10721,3,ISIP_8,72,1,48,59,2195445592
10721,3,ISIP_8,73,1,48,57,2196273696
10721,3,ISIP_8,74,1,48,62,2197110448
10721,3,ISIP_8,75,1,48,55,2197870836
10721,3,ISIP_8,76,1,48,57,2198778496
10721,3,ISIP_8,77,1,48,58,2199591788
10721,3,ISIP_8,78,1,48,56,2200369752
10721,3,ISIP_8,79,1,48,57,2201158184
10721,3,ISIP_8,80,1,48,48,2201965772
10721,3,ISIP_8,81,1,48,48,2202752412
10721,3,ISIP_8,82,1,48,59,2203570016
10721,3,ISIP_8,83,1,48,60,2204400040
10721,3,ISIP_8,84,1,48,53,2205209820
10721,3,ISIP_8,85,1,48,57,2206042832
10721,3,ISIP_8,86,1,48,54,2206834480
10721,3,ISIP_8,87,1,48,57,2207625160
10721,3,ISIP_8,88,1,48,51,2208462736
10721,3,ISIP_8,89,1,48,51,2209282512
10721,3,ISIP_8,90,1,48,58,2210041676
10721,3,ISIP_8,91,1,48,59,2210888400
10721,3,ISIP_8,92,1,48,48,2211690376
10721,3,ISIP_8,93,1,48,44,2212478216
10721,3,ISIP_8,94,1,48,63,2213284376
10721,3,ISIP_8,95,1,48,65,2214151372
10721,3,ISIP_8,96,1,48,59,2214973468
10721,3,ISIP_8,97,1,48,43,2215744172
10721,3,ISIP_8,98,1,48,57,2216560732
10721,3,ISIP_8,99,1,48,61,2217375944
10721,3,ISIP_8,100,1,48,66,2218196092
10721,3,ISIP_8,101,1,48,67,2218974052
10721,3,ISIP_8,102,1,48,60,2219803728
10721,3,ISIP_8,103,1,48,66,2220607496
10721,3,ISIP_8,104,1,48,67,2221417172
10721,3,ISIP_8,105,1,48,60,2222280328
10721,3,ISIP_8,106,1,48,68,2223108052
10721,3,ISIP_8,107,1,48,54,2223897088
10721,3,ISIP_8,108,1,48,56,2224716340
10721,3,ISIP_8,109,1,48,61,2225514424
10721,3,ISIP_8,110,1,48,56,2226280948
10721,3,ISIP_8,111,1,48,61,2227136172
10721,3,ISIP_8,112,1,48,55,2227967916
10721,3,ISIP_8,113,1,48,64,2228779712
10721,3,ISIP_8,114,1,48,62,2229542272
10721,3,ISIP_8,115,1,48,51,2230401832
10721,3,ISIP_8,116,1,48,61,2231180548
10721,3,ISIP_8,117,1,48,62,2232005860
10721,3,ISIP_8,118,1,48,53,2232809628
10721,3,ISIP_8,119,1,48,51,2233622844
10721,3,ISIP_8,120,1,48,61,2234428780
10721,3,ISIP_8,121,1,48,57,2235199260
10721,3,ISIP_8,122,1,48,59,2236078800
10721,3,ISIP_8,123,1,48,50,2236902312
10721,3,ISIP_8,124,1,48,52,2237711056
10721,3,ISIP_8,125,1,48,59,2238531208
10721,3,ISIP_8,126,1,48,50,2239304444
10721,3,ISIP_8,127,1,48,49,2240114432
10721,3,ISIP_8,128,1,48,49,2240938472
10721,3,ISIP_8,129,1,48,51,2241724360
10721,3,ISIP_8,130,1,48,54,2242520356
10721,3,ISIP_8,131,1,48,37,2243321648
10721,3,ISIP_8,132,1,48,52,2244162096
10721,3,ISIP_8,133,1,48,50,2244954720
10721,3,ISIP_8,134,1,48,68,2245700660
10721,3,ISIP_8,135,1,48,51,2246527920
10721,3,ISIP_8,136,1,48,61,2247327128
10721,3,ISIP_8,137,1,48,56,2248124164
10721,3,ISIP_8,138,1,48,62,2248873020
10721,3,ISIP_8,139,1,48,53,2249750800
10721,3,ISIP_8,140,1,48,64,2250524128
10721,3,ISIP_8,141,1,48,61,2251358184
10721,3,ISIP_8,142,1,48,53,2252143856
10721,3,ISIP_8,143,1,48,51,2252952336
10721,3,ISIP_8,144,1,48,53,2253733440
10721,3,ISIP_8,145,1,48,59,2254582756
10721,3,ISIP_8,146,1,48,61,2255372940
10721,3,ISIP_8,147,1,48,57,2256213956
10721,3,ISIP_8,148,1,48,63,2256974944
10721,3,ISIP_8,149,1,48,60,2257833312
10721,3,ISIP_8,150,1,48,54,2258611200
10721,3,ISIP_8,151,1,48,51,2259439576
10721,3,ISIP_8,152,1,48,43,2260226540
10721,3,ISIP_8,153,1,48,58,2261075116
10721,3,ISIP_8,154,1,48,60,2261848292
10721,3,ISIP_8,155,1,48,62,2262669712
10721,3,ISIP_8,156,1,48,68,2263434060
10721,3,ISIP_8,157,1,48,60,2264194224
10721,3,ISIP_8,158,1,48,68,2265006664
10721,3,ISIP_8,159,1,48,66,2265785528
10721,3,ISIP_8,160,1,48,66,2266555336
10721,3,ISIP_8,161,1,48,61,2267328212
10721,3,ISIP_8,162,1,48,74,2268154792
10721,3,ISIP_8,163,1,48,70,2268968612
10721,3,ISIP_8,164,1,48,77,2269753384
10721,3,ISIP_8,165,1,48,64,2270581236
10721,3,ISIP_8,166,1,48,64,2271397568
10721,3,ISIP_8,167,1,48,36,2272214204
10721,3,ISIP_8,168,1,48,65,2273017668
10721,3,ISIP_8,169,1,48,72,2273830068
10721,3,ISIP_8,170,1,48,62,2274663228
10721,3,ISIP_8,171,1,48,78,2275463032
10721,3,ISIP_8,172,1,48,74,2276279816
10721,3,ISIP_8,173,1,48,78,2277106848
10721,3,ISIP_8,174,1,48,67,2277934204
10721,3,ISIP_8,0,9999,9999,9999,2158508080
10721,3,ISIP_8,1,9999,9999,9999,2159308880
10721,3,ISIP_8,2,9999,9999,9999,2160108636
10721,3,ISIP_8,3,9999,9999,9999,2160908344
10721,3,ISIP_8,4,9999,9999,9999,2161708096
10721,3,ISIP_8,5,9999,9999,9999,2162508872
10721,3,ISIP_8,6,9999,9999,9999,2163308604
10721,3,ISIP_8,7,9999,9999,9999,2164108340
10721,3,ISIP_8,8,9999,9999,9999,2164908148
10721,3,ISIP_8,9,9999,9999,9999,2165708852
10721,3,ISIP_8,10,9999,9999,9999,2166508660
10721,3,ISIP_8,11,9999,9999,9999,2167308344
10721,3,ISIP_8,12,9999,9999,9999,2168108152
10721,3,ISIP_8,13,9999,9999,9999,2168908860
10721,3,ISIP_8,14,9999,9999,9999,2169708592
10721,3,ISIP_8,15,9999,9999,9999,2170508400
10721,3,ISIP_8,16,9999,9999,9999,2171308132
10721,3,ISIP_8,17,9999,9999,9999,2172108912
10721,3,ISIP_8,18,9999,9999,9999,2172908648
10721,3,ISIP_8,19,9999,9999,9999,2173708404
10721,3,ISIP_8,20,9999,9999,9999,2174508140
10721,3,ISIP_8,21,9999,9999,9999,2175308916
10721,3,ISIP_8,22,9999,9999,9999,2176108652
10721,3,ISIP_8,23,9999,9999,9999,2176908384
10721,3,ISIP_8,24,9999,9999,9999,2177708116
10721,3,ISIP_8,25,9999,9999,9999,2178508900
10721,3,ISIP_8,26,9999,9999,9999,2179308632
10721,3,ISIP_8,27,9999,9999,9999,2180108388
10721,3,ISIP_8,28,9999,9999,9999,2180908128
10721,3,ISIP_8,29,9999,9999,9999,2181708912
10721,3,ISIP_8,30,9999,9999,9999,2182508640
10721,3,ISIP_8,31,9999,9999,9999,2183308368
10721,3,ISIP_8,32,9999,9999,9999,2184108096
10721,3,ISIP_8,33,9999,9999,9999,2184908872
10721,3,ISIP_8,34,9999,9999,9999,2185708660
10721,3,ISIP_8,35,9999,9999,9999,2186508340
10721,3,ISIP_8,36,9999,9999,9999,2187308144
10721,3,ISIP_8,37,9999,9999,9999,2188108860
10721,3,ISIP_8,38,9999,9999,9999,2188908592
10721,3,ISIP_8,39,9999,9999,9999,2189708396
10721,3,ISIP_8,40,9999,9999,9999,2190508124
10721,3,ISIP_8,41,9999,9999,9999,2191308900
10721,3,ISIP_8,42,9999,9999,9999,2192108632
10721,3,ISIP_8,43,9999,9999,9999,2192908388
10721,3,ISIP_8,44,9999,9999,9999,2193708116
10721,3,ISIP_8,45,9999,9999,9999,2194508892
10721,3,ISIP_8,46,9999,9999,9999,2195308620
10721,3,ISIP_8,47,9999,9999,9999,2196108352
10721,3,ISIP_8,48,9999,9999,9999,2196908080
10721,3,ISIP_8,49,9999,9999,9999,2197708856
10721,3,ISIP_8,50,9999,9999,9999,2198508660
10721,3,ISIP_8,51,9999,9999,9999,2199308340
10721,3,ISIP_8,52,9999,9999,9999,2200108144
10721,3,ISIP_8,53,9999,9999,9999,2200908920
10721,3,ISIP_8,54,9999,9999,9999,2201708648
10721,3,ISIP_8,55,9999,9999,9999,2202508376
10721,3,ISIP_8,56,9999,9999,9999,2203308108
10721,3,ISIP_8,57,9999,9999,9999,2204108884
10721,3,ISIP_8,58,9999,9999,9999,2204908612
10721,3,ISIP_8,59,9999,9999,9999,2205708368
10721,3,ISIP_8,60,9999,9999,9999,2206508096
10721,3,ISIP_8,61,9999,9999,9999,2207308872
10721,3,ISIP_8,62,9999,9999,9999,2208108604
10721,3,ISIP_8,63,9999,9999,9999,2208908408
10721,3,ISIP_8,64,9999,9999,9999,2209708112
10721,3,ISIP_8,65,9999,9999,9999,2210508888
10721,3,ISIP_8,66,9999,9999,9999,2211308616
10721,3,ISIP_8,67,9999,9999,9999,2212108372
10721,3,ISIP_8,68,9999,9999,9999,2212908100
10721,3,ISIP_8,69,9999,9999,9999,2213708876
10721,3,ISIP_8,70,9999,9999,9999,2214508604
10721,3,ISIP_8,71,9999,9999,9999,2215308408
10721,3,ISIP_8,72,9999,9999,9999,2216108136
10721,3,ISIP_8,73,9999,9999,9999,2216908912
10721,3,ISIP_8,74,9999,9999,9999,2217708640
10721,3,ISIP_8,75,9999,9999,9999,2218508396
10721,3,ISIP_8,76,9999,9999,9999,2219308124
10721,3,ISIP_8,77,9999,9999,9999,2220108900
10721,3,ISIP_8,78,9999,9999,9999,2220908628
10721,3,ISIP_8,79,9999,9999,9999,2221708356
10721,3,ISIP_8,80,9999,9999,9999,2222508088
10721,3,ISIP_8,81,9999,9999,9999,2223308864
10721,3,ISIP_8,82,9999,9999,9999,2224108592
10721,3,ISIP_8,83,9999,9999,9999,2224908348
10721,3,ISIP_8,84,9999,9999,9999,2225708152
10721,3,ISIP_8,85,9999,9999,9999,2226508852
10721,3,ISIP_8,86,9999,9999,9999,2227308656
10721,3,ISIP_8,87,9999,9999,9999,2228108388
10721,3,ISIP_8,88,9999,9999,9999,2228908116
10721,3,ISIP_8,89,9999,9999,9999,2229708892
10721,3,ISIP_8,90,9999,9999,9999,2230508620
10721,3,ISIP_8,91,9999,9999,9999,2231308376
10721,3,ISIP_8,92,9999,9999,9999,2232108104
10721,3,ISIP_8,93,9999,9999,9999,2232908880
10721,3,ISIP_8,94,9999,9999,9999,2233708624
10721,3,ISIP_8,95,9999,9999,9999,2234508356
10721,3,ISIP_8,96,9999,9999,9999,2235308144
10721,3,ISIP_8,97,9999,9999,9999,2236108860
10721,3,ISIP_8,98,9999,9999,9999,2236908664
10721,3,ISIP_8,99,9999,9999,9999,2237708348
10721,3,ISIP_8,100,9999,9999,9999,2238508152
10721,3,ISIP_8,101,9999,9999,9999,2239308920
10721,3,ISIP_8,102,9999,9999,9999,2240108656
10721,3,ISIP_8,103,9999,9999,9999,2240908388
10721,3,ISIP_8,104,9999,9999,9999,2241708116
10721,3,ISIP_8,105,9999,9999,9999,2242508892
10721,3,ISIP_8,106,9999,9999,9999,2243308620
10721,3,ISIP_8,107,9999,9999,9999,2244108372
10721,3,ISIP_8,108,9999,9999,9999,2244908104
10721,3,ISIP_8,109,9999,9999,9999,2245708872
10721,3,ISIP_8,110,9999,9999,9999,2246508608
10721,3,ISIP_8,111,9999,9999,9999,2247308336
10721,3,ISIP_8,112,9999,9999,9999,2248108140
10721,3,ISIP_8,113,9999,9999,9999,2248908912
10721,3,ISIP_8,114,9999,9999,9999,2249708644
10721,3,ISIP_8,115,9999,9999,9999,2250508400
10721,3,ISIP_8,116,9999,9999,9999,2251308128
10721,3,ISIP_8,117,9999,9999,9999,2252108904
10721,3,ISIP_8,118,9999,9999,9999,2252908636
10721,3,ISIP_8,119,9999,9999,9999,2253708364
10721,3,ISIP_8,120,9999,9999,9999,2254508096
10721,3,ISIP_8,121,9999,9999,9999,2255308872
10721,3,ISIP_8,122,9999,9999,9999,2256108600
10721,3,ISIP_8,123,9999,9999,9999,2256908356
10721,3,ISIP_8,124,9999,9999,9999,2257708084
10721,3,ISIP_8,125,9999,9999,9999,2258508860
10721,3,ISIP_8,126,9999,9999,9999,2259308664
10721,3,ISIP_8,127,9999,9999,9999,2260108392
10721,3,ISIP_8,128,9999,9999,9999,2260908124
10721,3,ISIP_8,129,9999,9999,9999,2261708896
10721,3,ISIP_8,130,9999,9999,9999,2262508628
10721,3,ISIP_8,131,9999,9999,9999,2263308380
10721,3,ISIP_8,132,9999,9999,9999,2264108112
10721,3,ISIP_8,133,9999,9999,9999,2264908888
10721,3,ISIP_8,134,9999,9999,9999,2265708616
10721,3,ISIP_8,135,9999,9999,9999,2266508348
10721,3,ISIP_8,136,9999,9999,9999,2267308148
10721,3,ISIP_8,137,9999,9999,9999,2268108852
10721,3,ISIP_8,138,9999,9999,9999,2268908656
10721,3,ISIP_8,139,9999,9999,9999,2269708336
10721,3,ISIP_8,140,9999,9999,9999,2270508140
10721,3,ISIP_8,141,9999,9999,9999,2271308916
10721,3,ISIP_8,142,9999,9999,9999,2272108644
10721,3,ISIP_8,143,9999,9999,9999,2272908376
10721,3,ISIP_8,144,9999,9999,9999,2273708104
10721,3,ISIP_8,145,9999,9999,9999,2274508880
10721,3,ISIP_8,146,9999,9999,9999,2275308608
10721,3,ISIP_8,147,9999,9999,9999,2276108364
10721,3,ISIP_8,148,9999,9999,9999,2276908092
10721,3,ISIP_8,149,9999,9999,9999,2277708868
10722,11,Pattern_Practice,0,5,42,127,2393135404
10722,11,Pattern_Practice,1,5,42,127,2393636164
10722,11,Pattern_Practice,2,5,42,127,2394135808
10722,11,Pattern_Practice,3,5,42,127,2394635748
10722,11,Pattern_Practice,4,5,42,127,2395136288
10722,11,Pattern_Practice,5,5,42,127,2395636052
10722,11,Pattern_Practice,6,5,42,127,2396135920
10722,11,Pattern_Practice,7,5,42,127,2396635488
10722,11,Pattern_Practice,8,1,48,54,2397108460
10722,11,Pattern_Practice,9,5,42,127,2397136096
10722,11,Pattern_Practice,10,1,48,52,2397385008
10722,11,Pattern_Practice,11,1,38,52,2397611348
10722,11,Pattern_Practice,12,5,42,127,2397635916
10722,11,Pattern_Practice,13,1,48,52,2397904956
10722,11,Pattern_Practice,14,5,42,127,2398135744
10722,11,Pattern_Practice,15,1,48,59,2398166688
10722,11,Pattern_Practice,16,1,38,45,2398405296
10722,11,Pattern_Practice,17,5,42,127,2398636392
10722,11,Pattern_Practice,18,5,42,127,2399136036
10722,11,Pattern_Practice,19,1,48,59,2399153812
10722,11,Pattern_Practice,20,1,48,64,2399424664
10722,11,Pattern_Practice,21,5,42,127,2399635932
10722,11,Pattern_Practice,22,1,38,43,2399649148
10722,11,Pattern_Practice,23,1,48,66,2399923360
10722,11,Pattern_Practice,24,5,42,127,2400135604
10722,11,Pattern_Practice,25,1,48,58,2400177616
10722,11,Pattern_Practice,26,1,38,60,2400391692
10722,11,Pattern_Practice,27,5,42,127,2400636248
10722,11,Pattern_Practice,28,1,48,71,2401115804
10722,11,Pattern_Practice,29,5,42,127,2401135960
10722,11,Pattern_Practice,30,1,48,64,2401388912
10722,11,Pattern_Practice,31,1,38,56,2401616372
10722,11,Pattern_Practice,32,5,42,127,2401635856
10722,11,Pattern_Practice,33,1,48,57,2401894424
10722,11,Pattern_Practice,34,5,42,127,2402136284
10722,11,Pattern_Practice,35,1,48,58,2402160568
10722,11,Pattern_Practice,36,1,38,51,2402387880
10722,11,Pattern_Practice,37,5,42,127,2402636108
10722,11,Pattern_Practice,38,5,42,127,2403135820
10722,11,Pattern_Practice,39,1,48,67,2403156668
10722,11,Pattern_Practice,40,1,48,64,2403423480
10722,11,Pattern_Practice,41,5,42,127,2403635496
10722,11,Pattern_Practice,42,1,38,50,2403636388
10722,11,Pattern_Practice,43,1,48,54,2403917312
10722,11,Pattern_Practice,44,5,42,127,2404136292
10722,11,Pattern_Practice,45,1,48,58,2404178304
10722,11,Pattern_Practice,46,1,38,53,2404392748
10722,11,Pattern_Practice,47,5,42,127,2404636112
10722,11,Pattern_Practice,48,1,48,55,2405135152
10722,11,Pattern_Practice,49,5,42,127,2405136720
10722,11,Pattern_Practice,50,1,48,52,2405416224
10722,11,Pattern_Practice,51,5,42,127,2405635352
10722,11,Pattern_Practice,52,1,38,52,2405652380
10722,11,Pattern_Practice,53,1,48,58,2405938640
10722,11,Pattern_Practice,54,5,42,127,2406136196
10722,11,Pattern_Practice,55,1,48,49,2406193420
10722,11,Pattern_Practice,56,1,38,54,2406443916
10722,11,Pattern_Practice,57,5,42,127,2406635944
10722,11,Pattern_Practice,58,1,48,50,2407132704
10722,11,Pattern_Practice,59,5,42,127,2407135728
10722,11,Pattern_Practice,60,1,48,61,2407425880
10722,11,Pattern_Practice,61,5,42,127,2407636304
10722,11,Pattern_Practice,62,1,38,48,2407662012
10722,11,Pattern_Practice,63,1,48,48,2407933928
10722,11,Pattern_Practice,64,5,42,127,2408136056
10722,11,Pattern_Practice,65,1,48,58,2408172384
10722,11,Pattern_Practice,66,1,48,60,2408392068
10722,11,Pattern_Practice,67,1,38,55,2408442200
10722,11,Pattern_Practice,68,5,42,127,2408635616
10722,11,Pattern_Practice,69,5,42,127,2409135632
10722,11,Pattern_Practice,70,1,48,66,2409157596
10722,11,Pattern_Practice,71,1,48,67,2409418344
10722,11,Pattern_Practice,72,5,42,127,2409636052
10722,11,Pattern_Practice,73,1,38,54,2409642832
10722,11,Pattern_Practice,74,1,48,49,2409920640
10722,11,Pattern_Practice,75,5,42,127,2410135800
10722,11,Pattern_Practice,76,1,48,59,2410162260
10722,11,Pattern_Practice,77,1,38,54,2410411336
10722,11,Pattern_Practice,78,5,42,127,2410635772
10722,11,Pattern_Practice,79,1,48,66,2411117120
10722,11,Pattern_Practice,80,5,42,127,2411136304
10722,11,Pattern_Practice,81,1,48,57,2411393076
10722,11,Pattern_Practice,82,1,38,54,2411607372
10722,11,Pattern_Practice,83,5,42,127,2411635980
10722,11,Pattern_Practice,84,1,48,60,2411916228
10722,11,Pattern_Practice,85,5,42,127,2412135736
10722,11,Pattern_Practice,86,1,48,53,2412174460
10722,11,Pattern_Practice,87,1,38,55,2412394064
10722,11,Pattern_Practice,88,5,42,127,2412635780
10722,11,Pattern_Practice,89,1,48,54,2413132760
10722,11,Pattern_Practice,90,5,42,127,2413136164
10722,11,Pattern_Practice,91,1,48,50,2413394280
10722,11,Pattern_Practice,92,1,38,53,2413600876
10722,11,Pattern_Practice,93,5,42,127,2413635912
10722,11,Pattern_Practice,94,1,48,53,2413920956
10722,11,Pattern_Practice,95,5,42,127,2414135892
10722,11,Pattern_Practice,96,1,48,49,2414180224
10722,11,Pattern_Practice,97,1,38,54,2414395720
10722,11,Pattern_Practice,98,5,42,127,2414636536
10722,11,Pattern_Practice,99,1,48,62,2415108612
10722,11,Pattern_Practice,100,5,42,127,2415136096
10722,11,Pattern_Practice,101,1,48,67,2415386884
10722,11,Pattern_Practice,102,1,38,47,2415629608
10722,11,Pattern_Practice,103,5,42,127,2415635920
10722,11,Pattern_Practice,104,1,48,41,2415906524
10722,11,Pattern_Practice,105,5,42,127,2416135748
10722,11,Pattern_Practice,106,1,48,45,2416151736
10722,11,Pattern_Practice,107,1,38,67,2416409264
10722,11,Pattern_Practice,108,5,42,127,2416636244
10722,11,Pattern_Practice,109,5,42,127,2417135936
10722,11,Pattern_Practice,110,1,48,72,2417163540
10722,11,Pattern_Practice,111,1,48,66,2417428700
10722,11,Pattern_Practice,112,1,38,57,2417628612
10722,11,Pattern_Practice,113,5,42,127,2417635676
10722,11,Pattern_Practice,114,1,48,55,2417942736
10722,11,Pattern_Practice,115,5,42,127,2418136552
10722,11,Pattern_Practice,116,1,48,54,2418194524
10722,11,Pattern_Practice,117,1,38,55,2418436272
10722,11,Pattern_Practice,118,5,42,127,2418636076
10722,11,Pattern_Practice,119,5,42,127,2419135868
10722,11,Pattern_Practice,120,1,48,76,2419176612
10722,11,Pattern_Practice,121,1,48,60,2419448200
10722,11,Pattern_Practice,122,5,42,127,2419635836
10722,11,Pattern_Practice,123,1,38,57,2419662968
10722,11,Pattern_Practice,124,1,48,59,2419955276
10722,11,Pattern_Practice,125,5,42,127,2420136404
10722,11,Pattern_Practice,126,1,48,41,2420198692
10722,11,Pattern_Practice,127,1,38,57,2420410744
10722,11,Pattern_Practice,128,5,42,127,2420636004
10722,11,Pattern_Practice,129,5,42,127,2421135648
10722,11,Pattern_Practice,130,1,48,66,2421165764
10722,11,Pattern_Practice,131,1,48,63,2421434744
10722,11,Pattern_Practice,132,5,42,127,2421635616
10722,11,Pattern_Practice,133,1,38,57,2421671720
10722,11,Pattern_Practice,134,1,48,48,2421959544
10722,11,Pattern_Practice,135,5,42,127,2422136112
10722,11,Pattern_Practice,136,1,48,21,2422190988
10722,11,Pattern_Practice,137,1,38,54,2422420996
10722,11,Pattern_Practice,138,5,42,127,2422635788
10722,11,Pattern_Practice,139,5,42,127,2423135800
10722,11,Pattern_Practice,140,1,48,66,2423154104
10722,11,Pattern_Practice,141,1,48,62,2423411112
10722,11,Pattern_Practice,142,5,42,127,2423636520
10722,11,Pattern_Practice,143,1,38,60,2423645024
10722,11,Pattern_Practice,144,1,48,48,2423955212
10722,11,Pattern_Practice,145,5,42,127,2424136120
10722,11,Pattern_Practice,146,1,48,55,2424168404
10722,11,Pattern_Practice,147,1,38,61,2424423848
10722,11,Pattern_Practice,148,5,42,127,2424635716
10722,11,Pattern_Practice,149,5,42,127,2425135660
10722,11,Pattern_Practice,150,1,48,75,2425155760
10722,11,Pattern_Practice,151,1,48,62,2425401992
10722,11,Pattern_Practice,152,5,42,127,2425636304
10722,11,Pattern_Practice,153,1,38,47,2425661492
10722,11,Pattern_Practice,154,1,48,47,2425928444
10722,11,Pattern_Practice,155,5,42,127,2426135904
10722,11,Pattern_Practice,156,1,48,58,2426170440
10722,11,Pattern_Practice,157,1,38,56,2426407248
10722,11,Pattern_Practice,158,5,42,127,2426635648
10722,11,Pattern_Practice,159,5,42,127,2427136488
10722,11,Pattern_Practice,160,1,48,68,2427153292
10722,11,Pattern_Practice,161,1,48,66,2427397812
10722,11,Pattern_Practice,162,1,38,58,2427621588
10722,11,Pattern_Practice,163,5,42,127,2427636056
10722,11,Pattern_Practice,164,1,48,61,2427917152
10722,11,Pattern_Practice,165,5,42,127,2428135660
10722,11,Pattern_Practice,166,1,48,51,2428165360
10722,11,Pattern_Practice,167,1,38,57,2428433060
10722,11,Pattern_Practice,168,5,42,127,2428635632
10722,11,Pattern_Practice,169,5,42,127,2429136320
10722,11,Pattern_Practice,170,1,48,67,2429179404
10722,11,Pattern_Practice,171,1,48,59,2429423000
10722,11,Pattern_Practice,172,5,42,127,2429635916
10722,11,Pattern_Practice,173,1,38,55,2429647040
10722,11,Pattern_Practice,174,1,48,59,2429943464
10722,11,Pattern_Practice,175,5,42,127,2430135516
10722,11,Pattern_Practice,176,1,48,59,2430198248
10722,11,Pattern_Practice,177,1,38,55,2430439996
10722,11,Pattern_Practice,178,5,42,127,2430636532
10722,11,Pattern_Practice,179,5,42,127,2431136172
10722,11,Pattern_Practice,180,1,48,66,2431182820
10722,11,Pattern_Practice,181,1,48,61,2431420384
10722,11,Pattern_Practice,182,1,38,69,2431632516
10722,11,Pattern_Practice,183,5,42,127,2431635840
10722,11,Pattern_Practice,184,1,48,53,2431935092
10722,11,Pattern_Practice,185,5,42,127,2432135444
10722,11,Pattern_Practice,186,1,48,61,2432216352
10722,11,Pattern_Practice,187,1,38,63,2432423840
10722,11,Pattern_Practice,188,5,42,127,2432636460
10722,11,Pattern_Practice,0,9999,9999,9999,2393133116
10722,11,Pattern_Practice,1,9999,9999,9999,2393633880
10722,11,Pattern_Practice,2,9999,9999,9999,2394133596
10722,11,Pattern_Practice,3,9999,9999,9999,2394633312
10722,11,Pattern_Practice,4,9999,9999,9999,2395134000
10722,11,Pattern_Practice,5,9999,9999,9999,2395633768
10722,11,Pattern_Practice,6,9999,9999,9999,2396133484
10722,11,Pattern_Practice,7,9999,9999,9999,2396633200
10722,11,Pattern_Practice,8,9999,9999,9999,2397133884
10722,11,Pattern_Practice,9,9999,9999,9999,2397633628
10722,11,Pattern_Practice,10,9999,9999,9999,2398133308
10722,11,Pattern_Practice,11,9999,9999,9999,2398634104
10722,11,Pattern_Practice,12,9999,9999,9999,2399133748
10722,11,Pattern_Practice,13,9999,9999,9999,2399633496
10722,11,Pattern_Practice,14,9999,9999,9999,2400133168
10722,11,Pattern_Practice,15,9999,9999,9999,2400633960
10722,11,Pattern_Practice,16,9999,9999,9999,2401133672
10722,11,Pattern_Practice,17,9999,9999,9999,2401633344
10722,11,Pattern_Practice,18,9999,9999,9999,2402134072
10722,11,Pattern_Practice,19,9999,9999,9999,2402633820
10722,11,Pattern_Practice,20,9999,9999,9999,2403133536
10722,11,Pattern_Practice,21,9999,9999,9999,2403633212
10722,11,Pattern_Practice,22,9999,9999,9999,2404134004
10722,11,Pattern_Practice,23,9999,9999,9999,2404633676
10722,11,Pattern_Practice,24,9999,9999,9999,2405133392
10722,11,Pattern_Practice,25,9999,9999,9999,2405633140
10722,11,Pattern_Practice,26,9999,9999,9999,2406133836
10722,11,Pattern_Practice,27,9999,9999,9999,2406633584
10722,11,Pattern_Practice,28,9999,9999,9999,2407133292
10722,11,Pattern_Practice,29,9999,9999,9999,2407634020
10722,11,Pattern_Practice,30,9999,9999,9999,2408133692
10722,11,Pattern_Practice,31,9999,9999,9999,2408633404
10722,11,Pattern_Practice,32,9999,9999,9999,2409133124
10722,11,Pattern_Practice,33,9999,9999,9999,2409633840
10722,11,Pattern_Practice,34,9999,9999,9999,2410133588
10722,11,Pattern_Practice,35,9999,9999,9999,2410633336
10722,11,Pattern_Practice,36,9999,9999,9999,2411134016
10722,11,Pattern_Practice,37,9999,9999,9999,2411633768
10722,11,Pattern_Practice,38,9999,9999,9999,2412133448
10722,11,Pattern_Practice,39,9999,9999,9999,2412633196
10722,11,Pattern_Practice,40,9999,9999,9999,2413133880
10722,11,Pattern_Practice,41,9999,9999,9999,2413633624
10722,11,Pattern_Practice,42,9999,9999,9999,2414133308
10722,11,Pattern_Practice,43,9999,9999,9999,2414634104
10722,11,Pattern_Practice,44,9999,9999,9999,2415133812
10722,11,Pattern_Practice,45,9999,9999,9999,2415633488
10722,11,Pattern_Practice,46,9999,9999,9999,2416133240
10722,11,Pattern_Practice,47,9999,9999,9999,2416633960
10722,11,Pattern_Practice,48,9999,9999,9999,2417133652
10722,11,Pattern_Practice,49,9999,9999,9999,2417633392
10722,11,Pattern_Practice,50,9999,9999,9999,2418134116
10722,11,Pattern_Practice,51,9999,9999,9999,2418633792
10722,11,Pattern_Practice,52,9999,9999,9999,2419133504
10722,11,Pattern_Practice,53,9999,9999,9999,2419633252
10722,11,Pattern_Practice,54,9999,9999,9999,2420133972
10722,11,Pattern_Practice,55,9999,9999,9999,2420633716
10722,11,Pattern_Practice,56,9999,9999,9999,2421133360
10722,11,Pattern_Practice,57,9999,9999,9999,2421633104
10722,11,Pattern_Practice,58,9999,9999,9999,2422133828
10722,11,Pattern_Practice,59,9999,9999,9999,2422633572
10722,11,Pattern_Practice,60,9999,9999,9999,2423133288
10722,11,Pattern_Practice,61,9999,9999,9999,2423634008
10722,11,Pattern_Practice,62,9999,9999,9999,2424133684
10722,11,Pattern_Practice,63,9999,9999,9999,2424633432
10722,11,Pattern_Practice,64,9999,9999,9999,2425133148
10722,11,Pattern_Practice,65,9999,9999,9999,2425633868
10722,11,Pattern_Practice,66,9999,9999,9999,2426133616
10722,11,Pattern_Practice,67,9999,9999,9999,2426633288
10722,11,Pattern_Practice,68,9999,9999,9999,2427134052
10722,11,Pattern_Practice,69,9999,9999,9999,2427633768
10722,11,Pattern_Practice,70,9999,9999,9999,2428133448
10722,11,Pattern_Practice,71,9999,9999,9999,2428633196
10722,11,Pattern_Practice,72,9999,9999,9999,2429133884
10722,11,Pattern_Practice,73,9999,9999,9999,2429633628
10722,11,Pattern_Practice,74,9999,9999,9999,2430133304
10722,11,Pattern_Practice,75,9999,9999,9999,2430634096
10722,11,Pattern_Practice,76,9999,9999,9999,2431133812
10722,11,Pattern_Practice,77,9999,9999,9999,2431633480
10722,11,Pattern_Practice,78,9999,9999,9999,2432133232
10722,11,Pattern_Practice,79,9999,9999,9999,2432633948
10723,13,Improv_Metronome,0,5,42,127,2479961820
10723,13,Improv_Metronome,1,5,42,127,2480462136
10723,13,Improv_Metronome,2,5,42,127,2480961928
10723,13,Improv_Metronome,3,5,42,127,2481461792
10723,13,Improv_Metronome,4,5,42,127,2481962260
10723,13,Improv_Metronome,5,5,42,127,2482462048
10723,13,Improv_Metronome,6,5,42,127,2482961988
10723,13,Improv_Metronome,7,5,42,127,2483461408
10723,13,Improv_Metronome,8,5,42,127,2483962320
10723,13,Improv_Metronome,9,1,48,48,2483996180
10723,13,Improv_Metronome,10,1,48,51,2484239728
10723,13,Improv_Metronome,11,5,42,127,2484461968
10723,13,Improv_Metronome,12,1,38,52,2484490248
10723,13,Improv_Metronome,13,1,48,49,2484737972
10723,13,Improv_Metronome,14,1,48,48,2484959204
10723,13,Improv_Metronome,15,5,42,127,2484961932
10723,13,Improv_Metronome,16,1,38,55,2485219376
10723,13,Improv_Metronome,17,5,42,127,2485462364
10723,13,Improv_Metronome,18,5,42,127,2485962152
10723,13,Improv_Metronome,19,1,48,61,2485970284
10723,13,Improv_Metronome,20,1,48,57,2486234548
10723,13,Improv_Metronome,21,1,38,39,2486426928
10723,13,Improv_Metronome,22,5,42,127,2486461820
10723,13,Improv_Metronome,23,1,38,28,2486492224
10723,13,Improv_Metronome,24,1,48,48,2486725820
10723,13,Improv_Metronome,25,5,42,127,2486961624
10723,13,Improv_Metronome,26,1,48,51,2487013736
10723,13,Improv_Metronome,27,1,38,76,2487261016
10723,13,Improv_Metronome,28,5,42,127,2487462120
10723,13,Improv_Metronome,29,5,42,127,2487961836
10723,13,Improv_Metronome,30,1,48,63,2488006916
10723,13,Improv_Metronome,31,1,48,62,2488247768
10723,13,Improv_Metronome,32,5,42,127,2488461808
10723,13,Improv_Metronome,33,1,38,52,2488488932
10723,13,Improv_Metronome,34,1,48,40,2488717968
10723,13,Improv_Metronome,35,5,42,127,2488962380
10723,13,Improv_Metronome,36,1,48,56,2489001848
10723,13,Improv_Metronome,37,1,38,50,2489205672
10723,13,Improv_Metronome,38,5,42,127,2489462048
10723,13,Improv_Metronome,39,1,48,55,2489932700
10723,13,Improv_Metronome,40,5,42,127,2489961908
10723,13,Improv_Metronome,41,1,48,63,2490196760
10723,13,Improv_Metronome,42,1,38,62,2490436040
10723,13,Improv_Metronome,43,5,42,127,2490461732
10723,13,Improv_Metronome,44,1,48,55,2490695016
10723,13,Improv_Metronome,45,1,48,52,2490953220
10723,13,Improv_Metronome,46,5,42,127,2490962376
10723,13,Improv_Metronome,47,1,38,52,2491201120
10723,13,Improv_Metronome,48,5,42,127,2491462132
10723,13,Improv_Metronome,49,5,42,127,2491961772
10723,13,Improv_Metronome,50,1,48,61,2491978880
10723,13,Improv_Metronome,51,1,48,52,2492251372
10723,13,Improv_Metronome,52,5,42,127,2492461444
10723,13,Improv_Metronome,53,1,38,51,2492475712
10723,13,Improv_Metronome,54,1,48,61,2492745884
10723,13,Improv_Metronome,55,5,42,127,2492962092
10723,13,Improv_Metronome,56,1,48,57,2493006200
10723,13,Improv_Metronome,57,1,38,58,2493222740
10723,13,Improv_Metronome,58,5,42,127,2493461840
10723,13,Improv_Metronome,59,5,42,127,2493961780
10723,13,Improv_Metronome,60,1,48,72,2493973348
10723,13,Improv_Metronome,61,1,48,63,2494246140
10723,13,Improv_Metronome,62,5,42,127,2494462424
10723,13,Improv_Metronome,63,1,38,59,2494486860
10723,13,Improv_Metronome,64,1,38,29,2494573608
10723,13,Improv_Metronome,65,1,48,43,2494722084
10723,13,Improv_Metronome,66,5,42,127,2494961976
10723,13,Improv_Metronome,67,1,48,56,2494980976
10723,13,Improv_Metronome,68,1,38,61,2495220760
10723,13,Improv_Metronome,69,5,42,127,2495461700
10723,13,Improv_Metronome,70,5,42,127,2495961564
10723,13,Improv_Metronome,71,1,48,62,2495997320
10723,13,Improv_Metronome,72,1,48,56,2496263232
10723,13,Improv_Metronome,73,5,42,127,2496462280
10723,13,Improv_Metronome,74,1,38,46,2496465104
10723,13,Improv_Metronome,75,1,48,65,2496765144
10723,13,Improv_Metronome,76,5,42,127,2496961880
10723,13,Improv_Metronome,77,1,48,59,2497001276
10723,13,Improv_Metronome,78,1,38,53,2497274092
10723,13,Improv_Metronome,79,5,42,127,2497461552
10723,13,Improv_Metronome,80,5,42,127,2497962316
10723,13,Improv_Metronome,81,1,48,64,2497990796
10723,13,Improv_Metronome,82,1,48,61,2498236952
10723,13,Improv_Metronome,83,5,42,127,2498461988
10723,13,Improv_Metronome,84,1,38,55,2498487472
10723,13,Improv_Metronome,85,1,48,54,2498695036
10723,13,Improv_Metronome,86,5,42,127,2498961736
10723,13,Improv_Metronome,87,1,48,64,2498979216
10723,13,Improv_Metronome,88,1,38,45,2499178400
10723,13,Improv_Metronome,89,5,42,127,2499461556
10723,13,Improv_Metronome,90,5,42,127,2499962172
10723,13,Improv_Metronome,91,1,48,63,2499974864
10723,13,Improv_Metronome,92,1,48,63,2500221772
10723,13,Improv_Metronome,93,5,42,127,2500461920
10723,13,Improv_Metronome,94,1,38,52,2500462812
10723,13,Improv_Metronome,95,1,48,48,2500729748
10723,13,Improv_Metronome,96,5,42,127,2500961668
10723,13,Improv_Metronome,97,1,48,57,2500989396
10723,13,Improv_Metronome,98,1,38,59,2501229124
10723,13,Improv_Metronome,99,5,42,127,2501462540
10723,13,Improv_Metronome,100,1,48,61,2501961352
10723,13,Improv_Metronome,101,5,42,127,2501962924
10723,13,Improv_Metronome,102,1,48,57,2502216396
10723,13,Improv_Metronome,103,5,42,127,2502461776
10723,13,Improv_Metronome,104,1,38,62,2502473048
10723,13,Improv_Metronome,105,1,48,49,2502724220
10723,13,Improv_Metronome,106,5,42,127,2502961600
10723,13,Improv_Metronome,107,1,48,55,2502971148
10723,13,Improv_Metronome,108,1,38,70,2503217540
10723,13,Improv_Metronome,109,5,42,127,2503462544
10723,13,Improv_Metronome,110,1,48,67,2503945320
10723,13,Improv_Metronome,111,5,42,127,2503961880
10723,13,Improv_Metronome,112,1,48,52,2504203236
10723,13,Improv_Metronome,113,1,38,62,2504437136
10723,13,Improv_Metronome,114,5,42,127,2504461552
10723,13,Improv_Metronome,115,1,48,62,2504695432
10723,13,Improv_Metronome,116,5,42,127,2504962656
10723,13,Improv_Metronome,117,1,48,59,2504968912
10723,13,Improv_Metronome,118,1,38,62,2505204428
10723,13,Improv_Metronome,119,5,42,127,2505462228
10723,13,Improv_Metronome,120,5,42,127,2505961696
10723,13,Improv_Metronome,121,1,48,70,2505971024
10723,13,Improv_Metronome,122,1,48,57,2506240248
10723,13,Improv_Metronome,123,5,42,127,2506461444
10723,13,Improv_Metronome,124,1,38,75,2506486424
10723,13,Improv_Metronome,125,1,48,54,2506755408
10723,13,Improv_Metronome,126,5,42,127,2506962536
10723,13,Improv_Metronome,127,1,48,57,2507014676
10723,13,Improv_Metronome,128,1,38,66,2507257320
10723,13,Improv_Metronome,129,5,42,127,2507461988
10723,13,Improv_Metronome,130,1,48,68,2507910576
10723,13,Improv_Metronome,131,5,42,127,2507961700
10723,13,Improv_Metronome,132,1,48,53,2508190944
10723,13,Improv_Metronome,133,1,38,48,2508421992
10723,13,Improv_Metronome,134,5,42,127,2508461596
10723,13,Improv_Metronome,135,1,48,49,2508704224
10723,13,Improv_Metronome,136,5,42,127,2508962024
10723,13,Improv_Metronome,137,1,48,63,2508984288
10723,13,Improv_Metronome,138,1,38,55,2509229184
10723,13,Improv_Metronome,139,5,42,127,2509461844
10723,13,Improv_Metronome,140,5,42,127,2509961636
10723,13,Improv_Metronome,141,1,48,75,2509989812
10723,13,Improv_Metronome,142,1,48,63,2510256248
10723,13,Improv_Metronome,143,5,42,127,2510462728
10723,13,Improv_Metronome,144,1,38,62,2510509608
10723,13,Improv_Metronome,145,1,48,63,2510744320
10723,13,Improv_Metronome,146,5,42,127,2510961952
10723,13,Improv_Metronome,147,1,48,62,2510999176
10723,13,Improv_Metronome,148,1,48,52,2511253796
10723,13,Improv_Metronome,149,1,38,70,2511272844
10723,13,Improv_Metronome,150,5,42,127,2511461800
10723,13,Improv_Metronome,151,5,42,127,2511961592
10723,13,Improv_Metronome,152,1,48,57,2511995156
10723,13,Improv_Metronome,153,1,48,62,2512256204
10723,13,Improv_Metronome,154,5,42,127,2512462312
10723,13,Improv_Metronome,155,1,38,59,2512535140
10723,13,Improv_Metronome,156,1,48,48,2512799476
10723,13,Improv_Metronome,157,5,42,127,2512961912
10723,13,Improv_Metronome,158,1,48,50,2513033992
10723,13,Improv_Metronome,159,1,38,56,2513295712
10723,13,Improv_Metronome,160,5,42,127,2513461632
10723,13,Improv_Metronome,161,5,42,127,2513962396
10723,13,Improv_Metronome,162,1,48,66,2513992516
10723,13,Improv_Metronome,163,1,38,61,2514037672
10723,13,Improv_Metronome,164,1,48,53,2514260324
10723,13,Improv_Metronome,165,5,42,127,2514462172
10723,13,Improv_Metronome,166,1,48,46,2514488704
10723,13,Improv_Metronome,167,1,48,46,2514735012
10723,13,Improv_Metronome,168,5,42,127,2514961624
10723,13,Improv_Metronome,169,1,48,56,2514984932
10723,13,Improv_Metronome,170,1,38,43,2515168840
10723,13,Improv_Metronome,171,1,48,31,2515267496
10723,13,Improv_Metronome,172,5,42,127,2515461572
10723,13,Improv_Metronome,173,1,48,56,2515956532
10723,13,Improv_Metronome,174,5,42,127,2515962400
10723,13,Improv_Metronome,175,1,48,57,2516210700
10723,13,Improv_Metronome,176,1,38,61,2516445712
10723,13,Improv_Metronome,177,5,42,127,2516461904
10723,13,Improv_Metronome,178,1,48,48,2516736568
10723,13,Improv_Metronome,179,5,42,127,2516961580
10723,13,Improv_Metronome,180,1,48,58,2516972632
10723,13,Improv_Metronome,181,1,38,60,2517254940
10723,13,Improv_Metronome,182,5,42,127,2517462376
10723,13,Improv_Metronome,183,1,48,66,2517951804
10723,13,Improv_Metronome,184,5,42,127,2517962236
10723,13,Improv_Metronome,185,1,48,57,2518215116
10723,13,Improv_Metronome,186,5,42,127,2518461692
10723,13,Improv_Metronome,187,1,38,59,2518471692
10723,13,Improv_Metronome,188,1,48,43,2518738272
10723,13,Improv_Metronome,189,5,42,127,2518961512
10723,13,Improv_Metronome,190,1,48,58,2518984600
10723,13,Improv_Metronome,191,1,38,54,2519218276
10723,13,Improv_Metronome,192,5,42,127,2519462380
10723,13,Improv_Metronome,193,1,48,63,2519958988
10723,13,Improv_Metronome,194,5,42,127,2519962088
10723,13,Improv_Metronome,195,1,48,60,2520217284
10723,13,Improv_Metronome,196,5,42,127,2520461620
10723,13,Improv_Metronome,197,1,38,58,2520469076
10723,13,Improv_Metronome,198,1,48,58,2520758844
10723,13,Improv_Metronome,199,5,42,127,2520962416
10723,13,Improv_Metronome,200,1,48,54,2521028584
10723,13,Improv_Metronome,201,1,38,55,2521247520
10723,13,Improv_Metronome,202,5,42,127,2521462236
10723,13,Improv_Metronome,203,1,48,66,2521948376
10723,13,Improv_Metronome,204,5,42,127,2521961796
10723,13,Improv_Metronome,205,1,48,58,2522213328
10723,13,Improv_Metronome,206,1,38,55,2522441388
10723,13,Improv_Metronome,207,5,42,127,2522461544
10723,13,Improv_Metronome,208,1,48,54,2522750328
10723,13,Improv_Metronome,209,5,42,127,2522962420
10723,13,Improv_Metronome,210,1,48,61,2522991564
10723,13,Improv_Metronome,211,1,38,56,2523219628
10723,13,Improv_Metronome,212,5,42,127,2523462092
10723,13,Improv_Metronome,213,1,48,62,2523939772
10723,13,Improv_Metronome,214,5,42,127,2523961576
10723,13,Improv_Metronome,215,1,48,55,2524214828
10723,13,Improv_Metronome,216,1,38,57,2524404368
10723,13,Improv_Metronome,217,5,42,127,2524461548
10723,13,Improv_Metronome,218,1,48,56,2524726168
10723,13,Improv_Metronome,219,5,42,127,2524962276
10723,13,Improv_Metronome,220,1,48,59,2525012296
10723,13,Improv_Metronome,221,1,38,59,2525246936
10723,13,Improv_Metronome,222,5,42,127,2525461872
10723,13,Improv_Metronome,223,5,42,127,2525961516
10723,13,Improv_Metronome,224,1,48,65,2525967552
10723,13,Improv_Metronome,225,1,48,56,2526244908
10723,13,Improv_Metronome,226,5,42,127,2526462236
10723,13,Improv_Metronome,227,1,38,60,2526523624
10723,13,Improv_Metronome,228,1,48,51,2526768736
10723,13,Improv_Metronome,229,5,42,127,2526961956
10723,13,Improv_Metronome,230,1,48,50,2527016832
10723,13,Improv_Metronome,231,1,38,62,2527264048
10723,13,Improv_Metronome,232,5,42,127,2527461832
10723,13,Improv_Metronome,233,1,48,63,2527946468
10723,13,Improv_Metronome,234,5,42,127,2527961392
10723,13,Improv_Metronome,235,1,48,61,2528206412
10723,13,Improv_Metronome,236,1,38,60,2528451376
10723,13,Improv_Metronome,237,5,42,127,2528462332
10723,13,Improv_Metronome,238,1,48,52,2528735032
10723,13,Improv_Metronome,239,5,42,127,2528962016
10723,13,Improv_Metronome,240,1,48,55,2528993336
10723,13,Improv_Metronome,241,1,38,53,2529235008
10723,13,Improv_Metronome,242,5,42,127,2529461612
10723,13,Improv_Metronome,243,5,42,127,2529962376
10723,13,Improv_Metronome,244,1,48,62,2529972148
10723,13,Improv_Metronome,245,1,48,61,2530240604
10723,13,Improv_Metronome,246,1,38,53,2530446072
10723,13,Improv_Metronome,247,5,42,127,2530462188
10723,13,Improv_Metronome,248,1,48,56,2530733768
10723,13,Improv_Metronome,249,5,42,127,2530961644
10723,13,Improv_Metronome,250,1,48,58,2530991316
10723,13,Improv_Metronome,251,1,38,48,2531220872
10723,13,Improv_Metronome,252,5,42,127,2531461532
10723,13,Improv_Metronome,253,5,42,127,2531962372
10723,13,Improv_Metronome,254,1,48,62,2531973044
10723,13,Improv_Metronome,255,1,48,59,2532236416
10723,13,Improv_Metronome,256,1,38,58,2532453252
10723,13,Improv_Metronome,257,5,42,127,2532461816
10723,13,Improv_Metronome,258,1,48,53,2532734364
10723,13,Improv_Metronome,259,5,42,127,2532961572
10723,13,Improv_Metronome,260,1,48,52,2533013760
10723,13,Improv_Metronome,261,1,38,52,2533237700
10723,13,Improv_Metronome,262,5,42,127,2533462364
10723,13,Improv_Metronome,263,5,42,127,2533962156
10723,13,Improv_Metronome,264,1,48,66,2534011204
10723,13,Improv_Metronome,265,1,48,61,2534258712
10723,13,Improv_Metronome,266,5,42,127,2534461756
10723,13,Improv_Metronome,267,1,38,60,2534501372
10723,13,Improv_Metronome,268,1,48,56,2534777084
10723,13,Improv_Metronome,269,5,42,127,2534961504
10723,13,Improv_Metronome,270,1,48,49,2535032464
10723,13,Improv_Metronome,271,1,38,50,2535237864
10723,13,Improv_Metronome,272,5,42,127,2535462224
10723,13,Improv_Metronome,273,5,42,127,2535962164
10723,13,Improv_Metronome,274,1,48,63,2535973140
10723,13,Improv_Metronome,275,1,48,58,2536224536
10723,13,Improv_Metronome,276,1,38,52,2536438384
10723,13,Improv_Metronome,277,5,42,127,2536461760
10723,13,Improv_Metronome,278,1,48,54,2536693320
10723,13,Improv_Metronome,279,5,42,127,2536962336
10723,13,Improv_Metronome,280,1,48,59,2536979216
10723,13,Improv_Metronome,281,1,38,47,2537172844
10723,13,Improv_Metronome,282,5,42,127,2537462304
10723,13,Improv_Metronome,283,5,42,127,2537961772
10723,13,Improv_Metronome,284,1,48,71,2538002988
10723,13,Improv_Metronome,285,1,48,62,2538264336
10723,13,Improv_Metronome,286,5,42,127,2538461520
10723,13,Improv_Metronome,287,1,38,52,2538486428
10723,13,Improv_Metronome,288,1,48,62,2538799392
10723,13,Improv_Metronome,289,5,42,127,2538962316
10723,13,Improv_Metronome,290,1,48,53,2539037940
10723,13,Improv_Metronome,291,1,38,51,2539285748
10723,13,Improv_Metronome,292,5,42,127,2539462212
10723,13,Improv_Metronome,293,5,42,127,2539961632
10723,13,Improv_Metronome,294,1,48,65,2539987636
10723,13,Improv_Metronome,295,1,48,53,2540229532
10723,13,Improv_Metronome,296,5,42,127,2540461376
10723,13,Improv_Metronome,297,1,38,60,2540482520
10723,13,Improv_Metronome,298,1,48,52,2540729508
10723,13,Improv_Metronome,299,5,42,127,2540962244
10723,13,Improv_Metronome,300,1,48,51,2540963436
10723,13,Improv_Metronome,301,1,38,53,2541208008
10723,13,Improv_Metronome,302,5,42,127,2541462064
10723,13,Improv_Metronome,303,1,48,55,2541939304
10723,13,Improv_Metronome,304,5,42,127,2541961628
10723,13,Improv_Metronome,305,1,48,56,2542213160
10723,13,Improv_Metronome,306,1,38,40,2542401580
10723,13,Improv_Metronome,307,5,42,127,2542462420
10723,13,Improv_Metronome,308,1,48,59,2542705952
10723,13,Improv_Metronome,309,1,48,59,2542958620
10723,13,Improv_Metronome,310,5,42,127,2542962316
10723,13,Improv_Metronome,311,1,38,53,2543223572
10723,13,Improv_Metronome,312,5,42,127,2543461848
10723,13,Improv_Metronome,313,5,42,127,2543961340
10723,13,Improv_Metronome,314,1,48,69,2543963204
10723,13,Improv_Metronome,315,1,48,53,2544204116
10723,13,Improv_Metronome,316,1,38,46,2544448032
10723,13,Improv_Metronome,317,5,42,127,2544462128
10723,13,Improv_Metronome,318,1,48,49,2544707900
10723,13,Improv_Metronome,319,5,42,127,2544962180
10723,13,Improv_Metronome,320,1,48,51,2544963820
10723,13,Improv_Metronome,321,1,38,49,2545208844
10723,13,Improv_Metronome,322,5,42,127,2545461480
10723,13,Improv_Metronome,323,5,42,127,2545962244
10723,13,Improv_Metronome,324,1,48,61,2545977480
10723,13,Improv_Metronome,325,1,48,46,2546245036
10723,13,Improv_Metronome,326,1,38,45,2546447288
10723,13,Improv_Metronome,327,5,42,127,2546462284
10723,13,Improv_Metronome,328,1,48,56,2546737824
10723,13,Improv_Metronome,329,5,42,127,2546961664
10723,13,Improv_Metronome,330,1,48,48,2546996648
10723,13,Improv_Metronome,331,1,38,51,2547169484
10723,13,Improv_Metronome,332,5,42,127,2547461564
10723,13,Improv_Metronome,333,5,42,127,2547962400
10723,13,Improv_Metronome,334,1,48,64,2547980104
10723,13,Improv_Metronome,335,1,48,51,2548265912
10723,13,Improv_Metronome,336,5,42,127,2548462200
10723,13,Improv_Metronome,337,1,38,43,2548511944
10723,13,Improv_Metronome,338,1,48,57,2548800364
10723,13,Improv_Metronome,339,5,42,127,2548961872
10723,13,Improv_Metronome,340,1,48,46,2549056868
10723,13,Improv_Metronome,341,1,38,54,2549294652
10723,13,Improv_Metronome,342,5,42,127,2549462368
10723,13,Improv_Metronome,0,9999,9999,9999,2479959160
10723,13,Improv_Metronome,1,9999,9999,9999,2480459852
10723,13,Improv_Metronome,2,9999,9999,9999,2480959568
10723,13,Improv_Metronome,3,9999,9999,9999,2481459284
10723,13,Improv_Metronome,4,9999,9999,9999,2481960048
10723,13,Improv_Metronome,5,9999,9999,9999,2482459764
10723,13,Improv_Metronome,6,9999,9999,9999,2482959480
10723,13,Improv_Metronome,7,9999,9999,9999,2483459120
10723,13,Improv_Metronome,8,9999,9999,9999,2483959884
10723,13,Improv_Metronome,9,9999,9999,9999,2484459608
10723,13,Improv_Metronome,10,9999,9999,9999,2484959352
10723,13,Improv_Metronome,11,9999,9999,9999,2485460076
10723,13,Improv_Metronome,12,9999,9999,9999,2485959792
10723,13,Improv_Metronome,13,9999,9999,9999,2486459456
10723,13,Improv_Metronome,14,9999,9999,9999,2486959188
10723,13,Improv_Metronome,15,9999,9999,9999,2487459908
10723,13,Improv_Metronome,16,9999,9999,9999,2487959624
10723,13,Improv_Metronome,17,9999,9999,9999,2488459372
10723,13,Improv_Metronome,18,9999,9999,9999,2488960092
10723,13,Improv_Metronome,19,9999,9999,9999,2489459764
10723,13,Improv_Metronome,20,9999,9999,9999,2489959472
10723,13,Improv_Metronome,21,9999,9999,9999,2490459220
10723,13,Improv_Metronome,22,9999,9999,9999,2490959944
10723,13,Improv_Metronome,23,9999,9999,9999,2491459696
10723,13,Improv_Metronome,24,9999,9999,9999,2491959412
10723,13,Improv_Metronome,25,9999,9999,9999,2492459084
10723,13,Improv_Metronome,26,9999,9999,9999,2492959804
10723,13,Improv_Metronome,27,9999,9999,9999,2493459552
10723,13,Improv_Metronome,28,9999,9999,9999,2493959268
10723,13,Improv_Metronome,29,9999,9999,9999,2494459988
10723,13,Improv_Metronome,30,9999,9999,9999,2494959688
10723,13,Improv_Metronome,31,9999,9999,9999,2495459412
10723,13,Improv_Metronome,32,9999,9999,9999,2495959128
10723,13,Improv_Metronome,33,9999,9999,9999,2496459848
10723,13,Improv_Metronome,34,9999,9999,9999,2496959596
10723,13,Improv_Metronome,35,9999,9999,9999,2497459268
10723,13,Improv_Metronome,36,9999,9999,9999,2497960028
10723,13,Improv_Metronome,37,9999,9999,9999,2498459700
10723,13,Improv_Metronome,38,9999,9999,9999,2498959448
10723,13,Improv_Metronome,39,9999,9999,9999,2499459124
10723,13,Improv_Metronome,40,9999,9999,9999,2499959884
10723,13,Improv_Metronome,41,9999,9999,9999,2500459632
10723,13,Improv_Metronome,42,9999,9999,9999,2500959308
10723,13,Improv_Metronome,43,9999,9999,9999,2501460028
10723,13,Improv_Metronome,44,9999,9999,9999,2501959744
10723,13,Improv_Metronome,45,9999,9999,9999,2502459488
10723,13,Improv_Metronome,46,9999,9999,9999,2502959164
10723,13,Improv_Metronome,47,9999,9999,9999,2503459960
10723,13,Improv_Metronome,48,9999,9999,9999,2503959668
10723,13,Improv_Metronome,49,9999,9999,9999,2504459344
10723,13,Improv_Metronome,50,9999,9999,9999,2504960068
10723,13,Improv_Metronome,51,9999,9999,9999,2505459768
10723,13,Improv_Metronome,52,9999,9999,9999,2505959484
10723,13,Improv_Metronome,53,9999,9999,9999,2506459232
10723,13,Improv_Metronome,54,9999,9999,9999,2506959952
10723,13,Improv_Metronome,55,9999,9999,9999,2507459700
10723,13,Improv_Metronome,56,9999,9999,9999,2507959412
10723,13,Improv_Metronome,57,9999,9999,9999,2508459084
10723,13,Improv_Metronome,58,9999,9999,9999,2508959812
10723,13,Improv_Metronome,59,9999,9999,9999,2509459560
10723,13,Improv_Metronome,60,9999,9999,9999,2509959276
10723,13,Improv_Metronome,61,9999,9999,9999,2510459996
10723,13,Improv_Metronome,62,9999,9999,9999,2510959668
10723,13,Improv_Metronome,63,9999,9999,9999,2511459440
10723,13,Improv_Metronome,64,9999,9999,9999,2511959156
10723,13,Improv_Metronome,65,9999,9999,9999,2512459876
10723,13,Improv_Metronome,66,9999,9999,9999,2512959548
10723,13,Improv_Metronome,67,9999,9999,9999,2513459272
10723,13,Improv_Metronome,68,9999,9999,9999,2513960036
10723,13,Improv_Metronome,69,9999,9999,9999,2514459736
10723,13,Improv_Metronome,70,9999,9999,9999,2514959412
10723,13,Improv_Metronome,71,9999,9999,9999,2515459136
10723,13,Improv_Metronome,72,9999,9999,9999,2515959892
10723,13,Improv_Metronome,73,9999,9999,9999,2516459616
10723,13,Improv_Metronome,74,9999,9999,9999,2516959296
10723,13,Improv_Metronome,75,9999,9999,9999,2517460088
10723,13,Improv_Metronome,76,9999,9999,9999,2517959800
10723,13,Improv_Metronome,77,9999,9999,9999,2518459480
10723,13,Improv_Metronome,78,9999,9999,9999,2518959224
10723,13,Improv_Metronome,79,9999,9999,9999,2519459944
10723,13,Improv_Metronome,80,9999,9999,9999,2519959656
10723,13,Improv_Metronome,81,9999,9999,9999,2520459332
10723,13,Improv_Metronome,82,9999,9999,9999,2520960052
10723,13,Improv_Metronome,83,9999,9999,9999,2521459800
10723,13,Improv_Metronome,84,9999,9999,9999,2521959512
10723,13,Improv_Metronome,85,9999,9999,9999,2522459256
10723,13,Improv_Metronome,86,9999,9999,9999,2522959984
10723,13,Improv_Metronome,87,9999,9999,9999,2523459656
10723,13,Improv_Metronome,88,9999,9999,9999,2523959364
10723,13,Improv_Metronome,89,9999,9999,9999,2524459112
10723,13,Improv_Metronome,90,9999,9999,9999,2524959840
10723,13,Improv_Metronome,91,9999,9999,9999,2525459512
10723,13,Improv_Metronome,92,9999,9999,9999,2525959228
10723,13,Improv_Metronome,93,9999,9999,9999,2526460024
10723,13,Improv_Metronome,94,9999,9999,9999,2526959672
10723,13,Improv_Metronome,95,9999,9999,9999,2527459396
10723,13,Improv_Metronome,96,9999,9999,9999,2527959104
10723,13,Improv_Metronome,97,9999,9999,9999,2528459896
10723,13,Improv_Metronome,98,9999,9999,9999,2528959580
10723,13,Improv_Metronome,99,9999,9999,9999,2529459252
10723,13,Improv_Metronome,100,9999,9999,9999,2529960012
10723,13,Improv_Metronome,101,9999,9999,9999,2530459752
10723,13,Improv_Metronome,102,9999,9999,9999,2530959432
10723,13,Improv_Metronome,103,9999,9999,9999,2531459172
10723,13,Improv_Metronome,104,9999,9999,9999,2531959860
10723,13,Improv_Metronome,105,9999,9999,9999,2532459604
10723,13,Improv_Metronome,106,9999,9999,9999,2532959284
10723,13,Improv_Metronome,107,9999,9999,9999,2533460076
10723,13,Improv_Metronome,108,9999,9999,9999,2533959796
10723,13,Improv_Metronome,109,9999,9999,9999,2534459472
10723,13,Improv_Metronome,110,9999,9999,9999,2534959220
10723,13,Improv_Metronome,111,9999,9999,9999,2535459940
10723,13,Improv_Metronome,112,9999,9999,9999,2535959656
10723,13,Improv_Metronome,113,9999,9999,9999,2536459324
10723,13,Improv_Metronome,114,9999,9999,9999,2536960048
10723,13,Improv_Metronome,115,9999,9999,9999,2537459796
10723,13,Improv_Metronome,116,9999,9999,9999,2537959488
10723,13,Improv_Metronome,117,9999,9999,9999,2538459236
10723,13,Improv_Metronome,118,9999,9999,9999,2538959956
10723,13,Improv_Metronome,119,9999,9999,9999,2539459704
10723,13,Improv_Metronome,120,9999,9999,9999,2539959344
10723,13,Improv_Metronome,121,9999,9999,9999,2540459092
10723,13,Improv_Metronome,122,9999,9999,9999,2540959808
10723,13,Improv_Metronome,123,9999,9999,9999,2541459556
10723,13,Improv_Metronome,124,9999,9999,9999,2541959268
10723,13,Improv_Metronome,125,9999,9999,9999,2542459984
10723,13,Improv_Metronome,126,9999,9999,9999,2542959732
10723,13,Improv_Metronome,127,9999,9999,9999,2543459412
10723,13,Improv_Metronome,128,9999,9999,9999,2543959128
10723,13,Improv_Metronome,129,9999,9999,9999,2544459844
10723,13,Improv_Metronome,130,9999,9999,9999,2544959596
10723,13,Improv_Metronome,131,9999,9999,9999,2545459268
10723,13,Improv_Metronome,132,9999,9999,9999,2545960032
10723,13,Improv_Metronome,133,9999,9999,9999,2546459700
10723,13,Improv_Metronome,134,9999,9999,9999,2546959452
10723,13,Improv_Metronome,135,9999,9999,9999,2547459128
10723,13,Improv_Metronome,136,9999,9999,9999,2547959892
10723,13,Improv_Metronome,137,9999,9999,9999,2548459616
10723,13,Improv_Metronome,138,9999,9999,9999,2548959288
10723,13,Improv_Metronome,139,9999,9999,9999,2549460080
10724,14,Improv_Melody,0,2,48,80,2604128612
10724,14,Improv_Melody,1,2,72,80,2604131280
10724,14,Improv_Melody,2,5,42,127,2604132848
10724,14,Improv_Melody,3,5,42,110,2604626432
10724,14,Improv_Melody,4,5,42,110,2605126080
10724,14,Improv_Melody,5,5,42,110,2605625580
10724,14,Improv_Melody,6,5,42,127,2606125524
10724,14,Improv_Melody,7,5,42,110,2606626368
10724,14,Improv_Melody,8,5,42,110,2607125864
10724,14,Improv_Melody,9,5,42,110,2607625512
10724,14,Improv_Melody,10,2,43,80,2608128708
10724,14,Improv_Melody,11,2,67,80,2608131092
10724,14,Improv_Melody,12,5,42,127,2608133552
10724,14,Improv_Melody,13,5,42,110,2608626236
10724,14,Improv_Melody,14,5,42,110,2609125788
10724,14,Improv_Melody,15,5,42,110,2609625432
10724,14,Improv_Melody,16,1,48,47,2610089800
10724,14,Improv_Melody,17,5,42,127,2610126416
10724,14,Improv_Melody,18,1,48,47,2610576188
10724,14,Improv_Melody,19,5,42,110,2610625968
10724,14,Improv_Melody,20,1,48,51,2611087084
10724,14,Improv_Melody,21,5,42,110,2611125496
10724,14,Improv_Melody,22,1,38,66,2611574668
10724,14,Improv_Melody,23,5,42,110,2611626392
10724,14,Improv_Melody,24,2,45,80,2612128680
10724,14,Improv_Melody,25,2,69,80,2612130908
10724,14,Improv_Melody,26,5,42,127,2612133368
10724,14,Improv_Melody,27,1,48,62,2612156380
10724,14,Improv_Melody,28,1,48,53,2612605420
10724,14,Improv_Melody,29,5,42,110,2612625732
10724,14,Improv_Melody,30,1,48,59,2613116268
10724,14,Improv_Melody,31,5,42,110,2613125504
10724,14,Improv_Melody,32,1,38,73,2613566300
10724,14,Improv_Melody,33,5,42,110,2613626328
10724,14,Improv_Melody,34,1,48,57,2614088892
10724,14,Improv_Melody,35,5,42,127,2614126028
10724,14,Improv_Melody,36,1,48,57,2614573928
10724,14,Improv_Melody,37,5,42,110,2614625580
10724,14,Improv_Melody,38,1,48,58,2615080136
10724,14,Improv_Melody,39,5,42,110,2615126324
10724,14,Improv_Melody,40,1,38,78,2615579688
10724,14,Improv_Melody,41,5,42,110,2615626248
10724,14,Improv_Melody,42,2,41,80,2616128460
10724,14,Improv_Melody,43,2,65,80,2616130312
10724,14,Improv_Melody,44,5,42,127,2616133224
10724,14,Improv_Melody,45,1,48,51,2616141280
10724,14,Improv_Melody,46,1,48,57,2616592260
10724,14,Improv_Melody,47,5,42,110,2616625512
10724,14,Improv_Melody,48,5,42,110,2617126268
10724,14,Improv_Melody,49,1,48,59,2617191544
10724,14,Improv_Melody,50,1,38,49,2617571068
10724,14,Improv_Melody,51,5,42,110,2617626180
10724,14,Improv_Melody,52,1,48,62,2618110512
10724,14,Improv_Melody,53,5,42,127,2618125660
10724,14,Improv_Melody,54,1,48,63,2618593880
10724,14,Improv_Melody,55,5,42,110,2618626404
10724,14,Improv_Melody,56,1,48,61,2619110412
10724,14,Improv_Melody,57,5,42,110,2619126180
10724,14,Improv_Melody,58,1,38,70,2619587292
10724,14,Improv_Melody,59,5,42,110,2619625928
10724,14,Improv_Melody,60,1,48,56,2620110036
10724,14,Improv_Melody,61,2,48,80,2620127680
10724,14,Improv_Melody,62,2,72,80,2620129912
10724,14,Improv_Melody,63,5,42,127,2620132452
10724,14,Improv_Melody,64,1,48,61,2620598076
10724,14,Improv_Melody,65,5,42,110,2620626244
10724,14,Improv_Melody,66,1,48,61,2621122616
10724,14,Improv_Melody,67,5,42,110,2621125944
10724,14,Improv_Melody,68,5,42,110,2621625572
10724,14,Improv_Melody,69,1,38,62,2621642156
10724,14,Improv_Melody,70,5,42,127,2622125424
10724,14,Improv_Melody,71,1,48,62,2622164892
10724,14,Improv_Melody,72,1,48,57,2622582664
10724,14,Improv_Melody,73,5,42,110,2622626012
10724,14,Improv_Melody,74,1,48,61,2623092460
10724,14,Improv_Melody,75,5,42,110,2623126012
10724,14,Improv_Melody,76,1,38,69,2623591040
10724,14,Improv_Melody,77,5,42,110,2623625636
10724,14,Improv_Melody,78,1,48,59,2624128516
10724,14,Improv_Melody,79,2,43,80,2624130316
10724,14,Improv_Melody,80,2,67,80,2624132012
10724,14,Improv_Melody,81,5,42,127,2624134476
10724,14,Improv_Melody,82,1,48,54,2624588960
10724,14,Improv_Melody,83,5,42,110,2624625948
10724,14,Improv_Melody,84,5,42,110,2625125952
10724,14,Improv_Melody,85,1,48,60,2625126916
10724,14,Improv_Melody,86,1,38,71,2625620000
10724,14,Improv_Melody,87,5,42,110,2625625420
10724,14,Improv_Melody,88,5,42,127,2626126324
10724,14,Improv_Melody,89,1,48,65,2626142536
10724,14,Improv_Melody,90,1,48,61,2626606904
10724,14,Improv_Melody,91,5,42,110,2626626016
10724,14,Improv_Melody,92,1,48,64,2627114460
10724,14,Improv_Melody,93,5,42,110,2627125716
10724,14,Improv_Melody,94,1,38,70,2627573688
10724,14,Improv_Melody,95,5,42,110,2627626240
10724,14,Improv_Melody,96,1,48,59,2628119316
10724,14,Improv_Melody,97,2,45,80,2628128440
10724,14,Improv_Melody,98,2,69,80,2628130744
10724,14,Improv_Melody,99,5,42,127,2628133284
10724,14,Improv_Melody,100,5,42,110,2628625884
10724,14,Improv_Melody,101,1,48,64,2628634240
10724,14,Improv_Melody,102,1,48,64,2629109984
10724,14,Improv_Melody,103,5,42,110,2629125428
10724,14,Improv_Melody,104,5,42,110,2629626180
10724,14,Improv_Melody,105,1,38,65,2629629152
10724,14,Improv_Melody,106,5,42,127,2630126004
10724,14,Improv_Melody,107,1,48,64,2630168868
10724,14,Improv_Melody,108,1,48,60,2630621620
10724,14,Improv_Melody,109,5,42,110,2630625772
10724,14,Improv_Melody,110,1,48,65,2631103520
10724,14,Improv_Melody,111,5,42,110,2631126516
10724,14,Improv_Melody,112,1,38,75,2631605760
10724,14,Improv_Melody,113,5,42,110,2631625996
10724,14,Improv_Melody,114,1,48,62,2632116828
10724,14,Improv_Melody,115,2,41,80,2632128268
10724,14,Improv_Melody,116,2,65,80,2632130580
10724,14,Improv_Melody,117,5,42,127,2632133112
10724,14,Improv_Melody,118,1,48,57,2632615948
10724,14,Improv_Melody,119,5,42,110,2632625632
10724,14,Improv_Melody,120,1,48,58,2633103152
10724,14,Improv_Melody,121,5,42,110,2633126156
10724,14,Improv_Melody,122,1,38,67,2633558348
10724,14,Improv_Melody,123,5,42,110,2633625928
10724,14,Improv_Melody,124,1,48,60,2634114300
10724,14,Improv_Melody,125,5,42,127,2634125556
10724,14,Improv_Melody,126,1,48,66,2634624192
10724,14,Improv_Melody,127,5,42,110,2634626380
10724,14,Improv_Melody,128,1,48,63,2635120956
10724,14,Improv_Melody,129,5,42,110,2635126228
10724,14,Improv_Melody,130,1,38,57,2635609584
10724,14,Improv_Melody,131,5,42,110,2635625928
10724,14,Improv_Melody,132,2,48,80,2636128068
10724,14,Improv_Melody,133,2,72,80,2636130068
10724,14,Improv_Melody,134,5,42,127,2636132756
10724,14,Improv_Melody,135,1,48,69,2636163328
10724,14,Improv_Melody,136,5,42,110,2636626320
10724,14,Improv_Melody,137,1,48,64,2636644996
10724,14,Improv_Melody,138,1,48,68,2637125724
10724,14,Improv_Melody,139,5,42,110,2637127208
10724,14,Improv_Melody,140,1,38,65,2637577876
10724,14,Improv_Melody,141,5,42,110,2637625788
10724,14,Improv_Melody,142,1,48,55,2638114832
10724,14,Improv_Melody,143,5,42,127,2638125412
10724,14,Improv_Melody,144,5,42,110,2638626092
10724,14,Improv_Melody,145,1,48,54,2638640580
10724,14,Improv_Melody,146,1,48,66,2639113852
10724,14,Improv_Melody,147,5,42,110,2639125932
10724,14,Improv_Melody,148,1,38,69,2639614972
10724,14,Improv_Melody,149,5,42,110,2639625708
10724,14,Improv_Melody,150,2,43,80,2640129196
10724,14,Improv_Melody,151,2,67,80,2640131124
10724,14,Improv_Melody,152,5,42,127,2640133804
10724,14,Improv_Melody,153,1,48,67,2640139620
10724,14,Improv_Melody,154,5,42,110,2640626100
10724,14,Improv_Melody,155,1,48,61,2640652256
10724,14,Improv_Melody,156,1,48,63,2641121544
10724,14,Improv_Melody,157,5,42,110,2641125844
10724,14,Improv_Melody,158,1,38,80,2641595736
10724,14,Improv_Melody,159,5,42,110,2641625544
10724,14,Improv_Melody,160,5,42,127,2642126224
10724,14,Improv_Melody,161,1,48,69,2642129344
10724,14,Improv_Melody,162,5,42,110,2642625924
10724,14,Improv_Melody,163,1,48,66,2642626888
10724,14,Improv_Melody,164,5,42,110,2643125624
10724,14,Improv_Melody,165,1,48,67,2643140860
10724,14,Improv_Melody,166,1,38,66,2643619592
10724,14,Improv_Melody,167,5,42,110,2643626212
10724,14,Improv_Melody,168,1,48,61,2644127460
10724,14,Improv_Melody,169,2,45,80,2644129932
10724,14,Improv_Melody,170,2,69,80,2644131860
10724,14,Improv_Melody,171,5,42,127,2644134392
10724,14,Improv_Melody,172,5,42,110,2644626020
10724,14,Improv_Melody,173,1,48,66,2644670876
10724,14,Improv_Melody,174,5,42,110,2645125720
10724,14,Improv_Melody,175,1,48,60,2645156736
10724,14,Improv_Melody,176,5,42,110,2645626240
10724,14,Improv_Melody,177,1,38,59,2645640804
10724,14,Improv_Melody,178,5,42,127,2646125868
10724,14,Improv_Melody,179,1,48,63,2646141256
10724,14,Improv_Melody,180,5,42,110,2646625940
10724,14,Improv_Melody,181,1,48,70,2646637508
10724,14,Improv_Melody,182,5,42,110,2647126388
10724,14,Improv_Melody,183,1,48,69,2647132876
10724,14,Improv_Melody,184,1,38,62,2647587972
10724,14,Improv_Melody,185,5,42,110,2647626008
10724,14,Improv_Melody,186,1,48,58,2648123200
10724,14,Improv_Melody,187,2,41,80,2648128284
10724,14,Improv_Melody,188,2,65,80,2648130592
10724,14,Improv_Melody,189,5,42,127,2648132980
10724,14,Improv_Melody,190,5,42,110,2648625800
10724,14,Improv_Melody,191,1,48,63,2648635876
10724,14,Improv_Melody,192,5,42,110,2649126400
10724,14,Improv_Melody,193,1,48,65,2649135876
10724,14,Improv_Melody,194,1,38,60,2649608624
10724,14,Improv_Melody,195,5,42,110,2649626020
10724,14,Improv_Melody,196,1,48,69,2650126172
10724,14,Improv_Melody,197,5,42,127,2650127368
10724,14,Improv_Melody,198,1,48,71,2650620148
10724,14,Improv_Melody,199,5,42,110,2650626316
10724,14,Improv_Melody,200,5,42,110,2651126248
10724,14,Improv_Melody,201,1,48,65,2651128616
10724,14,Improv_Melody,202,1,38,57,2651561924
10724,14,Improv_Melody,203,5,42,110,2651625916
10724,14,Improv_Melody,204,2,48,80,2652127976
10724,14,Improv_Melody,205,2,72,80,2652130360
10724,14,Improv_Melody,206,5,42,127,2652132820
10724,14,Improv_Melody,207,1,48,60,2652151520
10724,14,Improv_Melody,208,5,42,110,2652626160
10724,14,Improv_Melody,209,1,48,65,2652659824
10724,14,Improv_Melody,210,5,42,110,2653126008
10724,14,Improv_Melody,211,1,48,61,2653139448
10724,14,Improv_Melody,212,5,42,110,2653625856
10724,14,Improv_Melody,213,1,48,70,2653627044
10724,14,Improv_Melody,214,1,38,60,2654095968
10724,14,Improv_Melody,215,5,42,127,2654125700
10724,14,Improv_Melody,216,1,48,55,2654603820
10724,14,Improv_Melody,217,5,42,110,2654626224
10724,14,Improv_Melody,218,1,48,50,2655122596
10724,14,Improv_Melody,219,5,42,110,2655125920
10724,14,Improv_Melody,220,5,42,110,2655625776
10724,14,Improv_Melody,221,1,48,61,2655633012
10724,14,Improv_Melody,222,1,38,62,2656117056
10724,14,Improv_Melody,223,2,43,80,2656128720
10724,14,Improv_Melody,224,2,67,80,2656130948
10724,14,Improv_Melody,225,5,42,127,2656133636
10724,14,Improv_Melody,226,5,42,110,2656626160
10724,14,Improv_Melody,227,1,48,61,2656643792
10724,14,Improv_Melody,228,1,48,59,2657109360
10724,14,Improv_Melody,229,5,42,110,2657125856
10724,14,Improv_Melody,230,5,42,110,2657625636
10724,14,Improv_Melody,231,1,48,56,2657627276
10724,14,Improv_Melody,232,5,42,127,2658126384
10724,14,Improv_Melody,233,1,48,58,2658142372
10724,14,Improv_Melody,234,1,38,60,2658591184
10724,14,Improv_Melody,235,5,42,110,2658625856
10724,14,Improv_Melody,236,1,48,59,2659113252
10724,14,Improv_Melody,237,5,42,110,2659125704
10724,14,Improv_Melody,238,1,48,50,2659614516
10724,14,Improv_Melody,239,5,42,110,2659626228
10724,14,Improv_Melody,240,2,45,80,2660128816
10724,14,Improv_Melody,241,2,69,80,2660130812
10724,14,Improv_Melody,242,5,42,127,2660133500
10724,14,Improv_Melody,243,1,48,59,2660142756
10724,14,Improv_Melody,244,5,42,110,2660625724
10724,14,Improv_Melody,245,1,48,59,2660661676
10724,14,Improv_Melody,246,1,38,52,2661111916
10724,14,Improv_Melody,247,5,42,110,2661125564
10724,14,Improv_Melody,248,5,42,110,2661626168
10724,14,Improv_Melody,249,1,48,56,2661632652
10724,14,Improv_Melody,250,5,42,127,2662126092
10724,14,Improv_Melody,251,1,48,53,2662134668
10724,14,Improv_Melody,252,1,48,57,2662625468
10724,14,Improv_Melody,253,5,42,110,2662626804
10724,14,Improv_Melody,254,5,42,110,2663126512
10724,14,Improv_Melody,255,1,48,54,2663145336
10724,14,Improv_Melody,256,1,48,58,2663619664
10724,14,Improv_Melody,257,5,42,110,2663626056
10724,14,Improv_Melody,258,1,38,47,2664112556
10724,14,Improv_Melody,259,2,41,80,2664128112
10724,14,Improv_Melody,260,2,65,80,2664130488
10724,14,Improv_Melody,261,5,42,127,2664132956
10724,14,Improv_Melody,262,1,48,58,2664154400
10724,14,Improv_Melody,263,1,38,34,2664184764
10724,14,Improv_Melody,264,1,48,56,2664592840
10724,14,Improv_Melody,265,5,42,110,2664625488
10724,14,Improv_Melody,266,1,48,48,2665111312
10724,14,Improv_Melody,267,5,42,110,2665126312
10724,14,Improv_Melody,268,5,42,110,2665625944
10724,14,Improv_Melody,269,1,48,47,2665627504
10724,14,Improv_Melody,270,1,38,52,2666095832
10724,14,Improv_Melody,271,5,42,127,2666125564
10724,14,Improv_Melody,272,1,48,51,2666575936
10724,14,Improv_Melody,273,5,42,110,2666626536
10724,14,Improv_Melody,274,1,48,49,2667098300
10724,14,Improv_Melody,275,5,42,110,2667126160
10724,14,Improv_Melody,276,1,48,49,2667594032
10724,14,Improv_Melody,277,5,42,110,2667625712
10724,14,Improv_Melody,278,1,38,50,2668076304
10724,14,Improv_Melody,279,2,48,80,2668127988
10724,14,Improv_Melody,280,2,72,80,2668130372
10724,14,Improv_Melody,281,5,42,127,2668132832
10724,14,Improv_Melody,282,1,48,45,2668584620
10724,14,Improv_Melody,283,5,42,110,2668626396
10724,14,Improv_Melody,284,1,48,53,2669107584
10724,14,Improv_Melody,285,5,42,110,2669125872
10724,14,Improv_Melody,286,1,48,58,2669604516
10724,14,Improv_Melody,287,5,42,110,2669625720
10724,14,Improv_Melody,288,1,38,63,2670083944
10724,14,Improv_Melody,289,5,42,127,2670125424
10724,14,Improv_Melody,290,1,48,51,2670597708
10724,14,Improv_Melody,291,5,42,110,2670626168
10724,14,Improv_Melody,292,1,48,55,2671102640
10724,14,Improv_Melody,293,5,42,110,2671125868
10724,14,Improv_Melody,294,1,48,57,2671603916
10724,14,Improv_Melody,295,5,42,110,2671625568
10724,14,Improv_Melody,296,1,38,65,2672096556
10724,14,Improv_Melody,297,2,43,80,2672128896
10724,14,Improv_Melody,298,2,67,80,2672131200
10724,14,Improv_Melody,299,5,42,127,2672133660
10724,14,Improv_Melody,300,1,48,48,2672599340
10724,14,Improv_Melody,301,5,42,110,2672626028
10724,14,Improv_Melody,302,1,48,49,2673123736
10724,14,Improv_Melody,303,5,42,110,2673125704
10724,14,Improv_Melody,304,1,48,57,2673619004
10724,14,Improv_Melody,305,5,42,110,2673625476
10724,14,Improv_Melody,306,1,38,63,2674121696
10724,14,Improv_Melody,307,5,42,127,2674126372
10724,14,Improv_Melody,308,1,48,59,2674612428
10724,14,Improv_Melody,309,5,42,110,2674625776
10724,14,Improv_Melody,310,1,48,60,2675116908
10724,14,Improv_Melody,311,5,42,110,2675125624
10724,14,Improv_Melody,312,1,48,63,2675605540
10724,14,Improv_Melody,313,5,42,110,2675626520
10724,14,Improv_Melody,314,2,45,80,2676128656
10724,14,Improv_Melody,315,2,69,80,2676131036
10724,14,Improv_Melody,316,5,42,127,2676133424
10724,14,Improv_Melody,317,1,38,76,2676134832
10724,14,Improv_Melody,318,1,48,48,2676620284
10724,14,Improv_Melody,319,5,42,110,2676625636
10724,14,Improv_Melody,320,1,48,55,2677122976
10724,14,Improv_Melody,321,5,42,110,2677125484
10724,14,Improv_Melody,322,1,48,54,2677592388
10724,14,Improv_Melody,323,5,42,110,2677626384
10724,14,Improv_Melody,324,1,38,62,2678115500
10724,14,Improv_Melody,325,5,42,127,2678125936
10724,14,Improv_Melody,326,1,48,53,2678605324
10724,14,Improv_Melody,327,5,42,110,2678625560
10724,14,Improv_Melody,328,1,48,59,2679097620
10724,14,Improv_Melody,329,5,42,110,2679126528
10724,14,Improv_Melody,330,1,48,63,2679608988
10724,14,Improv_Melody,331,5,42,110,2679626080
10724,14,Improv_Melody,332,1,38,59,2680098660
10724,14,Improv_Melody,333,2,41,80,2680128508
10724,14,Improv_Melody,334,2,65,80,2680130436
10724,14,Improv_Melody,335,5,42,127,2680133124
10724,14,Improv_Melody,336,1,48,55,2680588580
10724,14,Improv_Melody,337,5,42,110,2680625492
10724,14,Improv_Melody,338,1,48,54,2681101068
10724,14,Improv_Melody,339,5,42,110,2681126464
10724,14,Improv_Melody,340,1,48,60,2681617452
10724,14,Improv_Melody,341,5,42,110,2681626092
10724,14,Improv_Melody,342,1,38,56,2682096732
10724,14,Improv_Melody,343,5,42,127,2682125568
10724,14,Improv_Melody,344,1,48,57,2682602764
10724,14,Improv_Melody,345,5,42,110,2682626536
10724,14,Improv_Melody,346,1,48,57,2683124504
10724,14,Improv_Melody,347,5,42,110,2683126312
10724,14,Improv_Melody,348,1,48,55,2683615176
10724,14,Improv_Melody,349,5,42,110,2683625764
10724,14,Improv_Melody,350,1,38,61,2684103432
10724,14,Improv_Melody,351,2,48,80,2684128348
10724,14,Improv_Melody,352,2,72,80,2684130268
10724,14,Improv_Melody,353,5,42,127,2684132732
10724,14,Improv_Melody,354,1,48,49,2684577864
10724,14,Improv_Melody,355,5,42,110,2684626224
10724,14,Improv_Melody,356,1,48,53,2685119604
10724,14,Improv_Melody,0,9999,9999,9999,2604123188
10724,14,Improv_Melody,1,9999,9999,9999,2604623992
10724,14,Improv_Melody,2,9999,9999,9999,2605123640
10724,14,Improv_Melody,3,9999,9999,9999,2605623360
10724,14,Improv_Melody,4,9999,9999,9999,2606123084
10724,14,Improv_Melody,5,9999,9999,9999,2606623852
10724,14,Improv_Melody,6,9999,9999,9999,2607123572
10724,14,Improv_Melody,7,9999,9999,9999,2607623220
10724,14,Improv_Melody,8,9999,9999,9999,2608123988
10724,14,Improv_Melody,9,9999,9999,9999,2608623724
10724,14,Improv_Melody,10,9999,9999,9999,2609123420
10724,14,Improv_Melody,11,9999,9999,9999,2609623140
10724,14,Improv_Melody,12,9999,9999,9999,2610123828
10724,14,Improv_Melody,13,9999,9999,9999,2610623604
10724,14,Improv_Melody,14,9999,9999,9999,2611123280
10724,14,Improv_Melody,15,9999,9999,9999,2611624028
10724,14,Improv_Melody,16,9999,9999,9999,2612123732
10724,14,Improv_Melody,17,9999,9999,9999,2612623440
10724,14,Improv_Melody,18,9999,9999,9999,2613123140
10724,14,Improv_Melody,19,9999,9999,9999,2613623888
10724,14,Improv_Melody,20,9999,9999,9999,2614123588
10724,14,Improv_Melody,21,9999,9999,9999,2614623288
10724,14,Improv_Melody,22,9999,9999,9999,2615124032
10724,14,Improv_Melody,23,9999,9999,9999,2615623732
10724,14,Improv_Melody,24,9999,9999,9999,2616123440
10724,14,Improv_Melody,25,9999,9999,9999,2616623220
10724,14,Improv_Melody,26,9999,9999,9999,2617123900
10724,14,Improv_Melody,27,9999,9999,9999,2617623668
10724,14,Improv_Melody,28,9999,9999,9999,2618123368
10724,14,Improv_Melody,29,9999,9999,9999,2618624112
10724,14,Improv_Melody,30,9999,9999,9999,2619123812
10724,14,Improv_Melody,31,9999,9999,9999,2619623488
10724,14,Improv_Melody,32,9999,9999,9999,2620123188
10724,14,Improv_Melody,33,9999,9999,9999,2620623948
10724,14,Improv_Melody,34,9999,9999,9999,2621123652
10724,14,Improv_Melody,35,9999,9999,9999,2621623356
10724,14,Improv_Melody,36,9999,9999,9999,2622123132
10724,14,Improv_Melody,37,9999,9999,9999,2622623796
10724,14,Improv_Melody,38,9999,9999,9999,2623123572
10724,14,Improv_Melody,39,9999,9999,9999,2623623272
10724,14,Improv_Melody,40,9999,9999,9999,2624124024
10724,14,Improv_Melody,41,9999,9999,9999,2624623732
10724,14,Improv_Melody,42,9999,9999,9999,2625123436
10724,14,Improv_Melody,43,9999,9999,9999,2625623132
10724,14,Improv_Melody,44,9999,9999,9999,2626123884
10724,14,Improv_Melody,45,9999,9999,9999,2626623576
10724,14,Improv_Melody,46,9999,9999,9999,2627123276
10724,14,Improv_Melody,47,9999,9999,9999,2627624024
10724,14,Improv_Melody,48,9999,9999,9999,2628123724
10724,14,Improv_Melody,49,9999,9999,9999,2628623444
10724,14,Improv_Melody,50,9999,9999,9999,2629123136
10724,14,Improv_Melody,51,9999,9999,9999,2629623888
10724,14,Improv_Melody,52,9999,9999,9999,2630123640
10724,14,Improv_Melody,53,9999,9999,9999,2630623332
10724,14,Improv_Melody,54,9999,9999,9999,2631124076
10724,14,Improv_Melody,55,9999,9999,9999,2631623776
10724,14,Improv_Melody,56,9999,9999,9999,2632123480
10724,14,Improv_Melody,57,9999,9999,9999,2632623192
10724,14,Improv_Melody,58,9999,9999,9999,2633123940
10724,14,Improv_Melody,59,9999,9999,9999,2633623640
10724,14,Improv_Melody,60,9999,9999,9999,2634123340
10724,14,Improv_Melody,61,9999,9999,9999,2634624052
10724,14,Improv_Melody,62,9999,9999,9999,2635123788
10724,14,Improv_Melody,63,9999,9999,9999,2635623488
10724,14,Improv_Melody,64,9999,9999,9999,2636123196
10724,14,Improv_Melody,65,9999,9999,9999,2636623956
10724,14,Improv_Melody,66,9999,9999,9999,2637123656
10724,14,Improv_Melody,67,9999,9999,9999,2637623348
10724,14,Improv_Melody,68,9999,9999,9999,2638123124
10724,14,Improv_Melody,69,9999,9999,9999,2638623800
10724,14,Improv_Melody,70,9999,9999,9999,2639123568
10724,14,Improv_Melody,71,9999,9999,9999,2639623268
10724,14,Improv_Melody,72,9999,9999,9999,2640124020
10724,14,Improv_Melody,73,9999,9999,9999,2640623732
10724,14,Improv_Melody,74,9999,9999,9999,2641123404
10724,14,Improv_Melody,75,9999,9999,9999,2641623104
10724,14,Improv_Melody,76,9999,9999,9999,2642123856
10724,14,Improv_Melody,77,9999,9999,9999,2642623556
10724,14,Improv_Melody,78,9999,9999,9999,2643123256
10724,14,Improv_Melody,79,9999,9999,9999,2643623996
10724,14,Improv_Melody,80,9999,9999,9999,2644123704
10724,14,Improv_Melody,81,9999,9999,9999,2644623428
10724,14,Improv_Melody,82,9999,9999,9999,2645123128
10724,14,Improv_Melody,83,9999,9999,9999,2645623876
10724,14,Improv_Melody,84,9999,9999,9999,2646123576
10724,14,Improv_Melody,85,9999,9999,9999,2646623352
10724,14,Improv_Melody,86,9999,9999,9999,2647124024
10724,14,Improv_Melody,87,9999,9999,9999,2647623792
10724,14,Improv_Melody,88,9999,9999,9999,2648123492
10724,14,Improv_Melody,89,9999,9999,9999,2648623212
10724,14,Improv_Melody,90,9999,9999,9999,2649123960
10724,14,Improv_Melody,91,9999,9999,9999,2649623652
10724,14,Improv_Melody,92,9999,9999,9999,2650123360
10724,14,Improv_Melody,93,9999,9999,9999,2650624100
10724,14,Improv_Melody,94,9999,9999,9999,2651123808
10724,14,Improv_Melody,95,9999,9999,9999,2651623476
10724,14,Improv_Melody,96,9999,9999,9999,2652123184
10724,14,Improv_Melody,97,9999,9999,9999,2652623940
10724,14,Improv_Melody,98,9999,9999,9999,2653123644
10724,14,Improv_Melody,99,9999,9999,9999,2653623416
10724,14,Improv_Melody,100,9999,9999,9999,2654123112
10724,14,Improv_Melody,101,9999,9999,9999,2654623856
10724,14,Improv_Melody,102,9999,9999,9999,2655123556
10724,14,Improv_Melody,103,9999,9999,9999,2655623264
10724,14,Improv_Melody,104,9999,9999,9999,2656124000
10724,14,Improv_Melody,105,9999,9999,9999,2656623720
10724,14,Improv_Melody,106,9999,9999,9999,2657123416
10724,14,Improv_Melody,107,9999,9999,9999,2657623120
10724,14,Improv_Melody,108,9999,9999,9999,2658123868
10724,14,Improv_Melody,109,9999,9999,9999,2658623564
10724,14,Improv_Melody,110,9999,9999,9999,2659123264
10724,14,Improv_Melody,111,9999,9999,9999,2659624008
10724,14,Improv_Melody,112,9999,9999,9999,2660123716
10724,14,Improv_Melody,113,9999,9999,9999,2660623432
10724,14,Improv_Melody,114,9999,9999,9999,2661123124
10724,14,Improv_Melody,115,9999,9999,9999,2661623876
10724,14,Improv_Melody,116,9999,9999,9999,2662123624
10724,14,Improv_Melody,117,9999,9999,9999,2662623324
10724,14,Improv_Melody,118,9999,9999,9999,2663124072
10724,14,Improv_Melody,119,9999,9999,9999,2663623768
10724,14,Improv_Melody,120,9999,9999,9999,2664123468
10724,14,Improv_Melody,121,9999,9999,9999,2664623200
10724,14,Improv_Melody,122,9999,9999,9999,2665123948
10724,14,Improv_Melody,123,9999,9999,9999,2665623652
10724,14,Improv_Melody,124,9999,9999,9999,2666123348
10724,14,Improv_Melody,125,9999,9999,9999,2666624096
10724,14,Improv_Melody,126,9999,9999,9999,2667123796
10724,14,Improv_Melody,127,9999,9999,9999,2667623496
10724,14,Improv_Melody,128,9999,9999,9999,2668123196
10724,14,Improv_Melody,129,9999,9999,9999,2668623956
10724,14,Improv_Melody,130,9999,9999,9999,2669123656
10724,14,Improv_Melody,131,9999,9999,9999,2669623356
10724,14,Improv_Melody,132,9999,9999,9999,2670123132
10724,14,Improv_Melody,133,9999,9999,9999,2670623804
10724,14,Improv_Melody,134,9999,9999,9999,2671123504
10724,14,Improv_Melody,135,9999,9999,9999,2671623280
10724,14,Improv_Melody,136,9999,9999,9999,2672124024
10724,14,Improv_Melody,137,9999,9999,9999,2672623736
10724,14,Improv_Melody,138,9999,9999,9999,2673123448
10724,14,Improv_Melody,139,9999,9999,9999,2673623112
10724,14,Improv_Melody,140,9999,9999,9999,2674123860
10724,14,Improv_Melody,141,9999,9999,9999,2674623560
10724,14,Improv_Melody,142,9999,9999,9999,2675123260
10724,14,Improv_Melody,143,9999,9999,9999,2675624004
10724,14,Improv_Melody,144,9999,9999,9999,2676123712
10724,14,Improv_Melody,145,9999,9999,9999,2676623420
10724,14,Improv_Melody,146,9999,9999,9999,2677123120
10724,14,Improv_Melody,147,9999,9999,9999,2677623868
10724,14,Improv_Melody,148,9999,9999,9999,2678123568
10724,14,Improv_Melody,149,9999,9999,9999,2678623344
10724,14,Improv_Melody,150,9999,9999,9999,2679124088
10724,14,Improv_Melody,151,9999,9999,9999,2679623788
10724,14,Improv_Melody,152,9999,9999,9999,2680123492
10724,14,Improv_Melody,153,9999,9999,9999,2680623204
10724,14,Improv_Melody,154,9999,9999,9999,2681123948
10724,14,Improv_Melody,155,9999,9999,9999,2681623648
10724,14,Improv_Melody,156,9999,9999,9999,2682123352
10724,14,Improv_Melody,157,9999,9999,9999,2682624096
10724,14,Improv_Melody,158,9999,9999,9999,2683123808
10724,14,Improv_Melody,159,9999,9999,9999,2683623472
10724,14,Improv_Melody,160,9999,9999,9999,2684123248
10724,14,Improv_Melody,161,9999,9999,9999,2684623932
107