pid,taskRunCount,taskID,taskName,i,channel,pitch,velocity,microseconds
1,0,Ticks_Pract_8,0,5,42,127,1607721220
1081,0,Ticks_Pract_8,1,5,42,127,1608520976
1081,0,Ticks_Pract_8,2,1,48,58,1609314252
1081,0,Ticks_Pract_8,3,5,42,127,1609321172
1081,0,Ticks_Pract_8,4,1,48,58,1610062156
1081,0,Ticks_Pract_8,5,5,42,127,1610120632
1081,0,Ticks_Pract_8,6,1,48,57,1610918908
1081,0,Ticks_Pract_8,7,5,42,127,1610921260
1081,0,Ticks_Pract_8,8,5,42,127,1611720928
1081,0,Ticks_Pract_8,9,1,48,57,1611772292
1081,0,Ticks_Pract_8,10,1,48,49,1612502520
1081,0,Ticks_Pract_8,11,5,42,127,1612521028
1081,0,Ticks_Pract_8,12,1,48,55,1613271064
1081,0,Ticks_Pract_8,13,5,42,127,1613320536
1081,0,Ticks_Pract_8,14,1,48,54,1614058680
1081,0,Ticks_Pract_8,15,5,42,127,1614121392
1081,0,Ticks_Pract_8,16,1,48,53,1614835748
1081,0,Ticks_Pract_8,17,5,42,127,1614921124
1081,0,Ticks_Pract_8,18,1,48,53,1615642064
1081,0,Ticks_Pract_8,19,5,42,127,1615720936
1081,0,Ticks_Pract_8,20,1,48,46,1616461544
1081,0,Ticks_Pract_8,21,5,42,127,1616520544
1081,0,Ticks_Pract_8,22,1,48,48,1617289948
1081,0,Ticks_Pract_8,23,5,42,127,1617321324
1081,0,Ticks_Pract_8,24,1,48,53,1618059692
1081,0,Ticks_Pract_8,25,5,42,127,1618121060
1081,0,Ticks_Pract_8,26,1,48,47,1618822324
1081,0,Ticks_Pract_8,27,5,42,127,1618921524
1081,0,Ticks_Pract_8,28,1,48,45,1619674120
1081,0,Ticks_Pract_8,29,5,42,127,1619720524
1081,0,Ticks_Pract_8,30,1,48,48,1620500256
1081,0,Ticks_Pract_8,31,5,42,127,1620521456
1081,0,Ticks_Pract_8,32,1,48,49,1621296772
1081,0,Ticks_Pract_8,33,5,42,127,1621321188
1081,0,Ticks_Pract_8,34,5,42,127,1622120784
1081,0,Ticks_Pract_8,35,1,48,48,1622125392
1081,0,Ticks_Pract_8,36,1,48,39,1622896844
1081,0,Ticks_Pract_8,37,5,42,127,1622920460
1081,0,Ticks_Pract_8,38,1,48,47,1623715072
1081,0,Ticks_Pract_8,39,5,42,127,1623721460
1081,0,Ticks_Pract_8,40,5,42,127,1624521052
1081,0,Ticks_Pract_8,41,1,48,44,1624526940
1081,0,Ticks_Pract_8,42,1,48,46,1625306240
1081,0,Ticks_Pract_8,43,5,42,127,1625320928
1081,0,Ticks_Pract_8,44,1,48,44,1626085476
1081,0,Ticks_Pract_8,45,5,42,127,1626120588
1081,0,Ticks_Pract_8,46,1,48,45,1626906592
1081,0,Ticks_Pract_8,47,5,42,127,1626921368
1081,0,Ticks_Pract_8,48,5,42,127,1627721032
1081,0,Ticks_Pract_8,49,1,48,42,1627742028
1081,0,Ticks_Pract_8,50,1,48,42,1628480260
1081,0,Ticks_Pract_8,51,5,42,127,1628520908
1081,0,Ticks_Pract_8,52,1,48,46,1629272660
1081,0,Ticks_Pract_8,53,5,42,127,1629320516
1081,0,Ticks_Pract_8,54,1,48,39,1630057360
1081,0,Ticks_Pract_8,55,5,42,127,1630121372
1081,0,Ticks_Pract_8,56,1,48,44,1630857192
1081,0,Ticks_Pract_8,57,5,42,127,1630921104
1081,0,Ticks_Pract_8,58,1,48,44,1631652068
1081,0,Ticks_Pract_8,0,9999,9999,9999,1607719008
1081,0,Ticks_Pract_8,1,9999,9999,9999,1608518764
1081,0,Ticks_Pract_8,2,9999,9999,9999,1609318512
1081,0,Ticks_Pract_8,3,9999,9999,9999,1610118196
1081,0,Ticks_Pract_8,4,9999,9999,9999,1610918972
1081,0,Ticks_Pract_8,5,9999,9999,9999,1611718716
1081,0,Ticks_Pract_8,6,9999,9999,9999,1612518516
1081,0,Ticks_Pract_8,7,9999,9999,9999,1613318248
1081,0,Ticks_Pract_8,8,9999,9999,9999,1614119028
1081,0,Ticks_Pract_8,9,9999,9999,9999,1614918764
1081,0,Ticks_Pract_8,10,9999,9999,9999,1615718500
1081,0,Ticks_Pract_8,11,9999,9999,9999,1616518256
1081,0,Ticks_Pract_8,12,9999,9999,9999,1617318960
1081,0,Ticks_Pract_8,13,9999,9999,9999,1618118772
1081,0,Ticks_Pract_8,14,9999,9999,9999,1618918504
1081,0,Ticks_Pract_8,15,9999,9999,9999,1619718240
1081,0,Ticks_Pract_8,16,9999,9999,9999,1620519020
1081,0,Ticks_Pract_8,17,9999,9999,9999,1621318752
1081,0,Ticks_Pract_8,18,9999,9999,9999,1622118492
1081,0,Ticks_Pract_8,19,9999,9999,9999,1622918244
1081,0,Ticks_Pract_8,20,9999,9999,9999,1623719024
1081,0,Ticks_Pract_8,21,9999,9999,9999,1624518764
1081,0,Ticks_Pract_8,22,9999,9999,9999,1625318492
1081,0,Ticks_Pract_8,23,9999,9999,9999,1626118224
1081,0,Ticks_Pract_8,24,9999,9999,9999,1626919004
1081,0,Ticks_Pract_8,25,9999,9999,9999,1627718744
1081,0,Ticks_Pract_8,26,9999,9999,9999,1628518472
1081,0,Ticks_Pract_8,27,9999,9999,9999,1629318228
1081,0,Ticks_Pract_8,28,9999,9999,9999,1630119008
1081,0,Ticks_Pract_8,29,9999,9999,9999,1630918744
1082,1,Ticks_Pract_5,0,5,42,127,1650921760
1082,1,Ticks_Pract_5,1,5,42,127,1651421624
1082,1,Ticks_Pract_5,2,5,42,127,1651922312
1082,1,Ticks_Pract_5,3,5,42,127,1652421956
1082,1,Ticks_Pract_5,4,1,48,46,1652458136
1082,1,Ticks_Pract_5,5,5,42,127,1652922020
1082,1,Ticks_Pract_5,6,1,48,48,1652937036
1082,1,Ticks_Pract_5,7,1,48,49,1653411728
1082,1,Ticks_Pract_5,8,5,42,127,1653421412
1082,1,Ticks_Pract_5,9,1,48,52,1653881576
1082,1,Ticks_Pract_5,10,5,42,127,1653922004
1082,1,Ticks_Pract_5,11,1,48,50,1654409100
1082,1,Ticks_Pract_5,12,5,42,127,1654421848
1082,1,Ticks_Pract_5,13,1,48,50,1654893132
1082,1,Ticks_Pract_5,14,5,42,127,1654921768
1082,1,Ticks_Pract_5,15,5,42,127,1655422364
1082,1,Ticks_Pract_5,16,1,48,46,1655423928
1082,1,Ticks_Pract_5,17,1,48,50,1655909732
1082,1,Ticks_Pract_5,18,5,42,127,1655921956
1082,1,Ticks_Pract_5,19,1,48,51,1656401420
1082,1,Ticks_Pract_5,20,5,42,127,1656421872
1082,1,Ticks_Pract_5,21,1,48,51,1656902984
1082,1,Ticks_Pract_5,22,5,42,127,1656921716
1082,1,Ticks_Pract_5,23,1,48,49,1657395424
1082,1,Ticks_Pract_5,24,5,42,127,1657422160
1082,1,Ticks_Pract_5,25,1,48,43,1657875892
1082,1,Ticks_Pract_5,26,5,42,127,1657922004
1082,1,Ticks_Pract_5,27,1,48,45,1658389580
1082,1,Ticks_Pract_5,28,5,42,127,1658421772
1082,1,Ticks_Pract_5,29,1,48,44,1658886652
1082,1,Ticks_Pract_5,30,5,42,127,1658922216
1082,1,Ticks_Pract_5,31,1,48,45,1659373032
1082,1,Ticks_Pract_5,32,5,42,127,1659421912
1082,1,Ticks_Pract_5,33,1,48,49,1659895240
1082,1,Ticks_Pract_5,34,5,42,127,1659921828
1082,1,Ticks_Pract_5,35,1,48,36,1660393740
1082,1,Ticks_Pract_5,36,5,42,127,1660421748
1082,1,Ticks_Pract_5,37,1,48,48,1660897328
1082,1,Ticks_Pract_5,38,5,42,127,1660922340
1082,1,Ticks_Pract_5,39,1,48,42,1661414220
1082,1,Ticks_Pract_5,40,5,42,127,1661421960
1082,1,Ticks_Pract_5,41,1,48,46,1661896788
1082,1,Ticks_Pract_5,42,5,42,127,1661921804
1082,1,Ticks_Pract_5,43,1,48,45,1662397832
1082,1,Ticks_Pract_5,44,5,42,127,1662422324
1082,1,Ticks_Pract_5,45,1,48,44,1662916000
1082,1,Ticks_Pract_5,46,5,42,127,1662922020
1082,1,Ticks_Pract_5,47,5,42,127,1663421792
1082,1,Ticks_Pract_5,48,1,48,43,1663437932
1082,1,Ticks_Pract_5,49,1,48,42,1663891304
1082,1,Ticks_Pract_5,50,5,42,127,1663921780
1082,1,Ticks_Pract_5,51,5,42,127,1664422376
1082,1,Ticks_Pract_5,52,1,48,39,1664429684
1082,1,Ticks_Pract_5,53,1,48,40,1664915444
1082,1,Ticks_Pract_5,54,5,42,127,1664921916
1082,1,Ticks_Pract_5,55,5,42,127,1665421916
1082,1,Ticks_Pract_5,56,1,48,36,1665443064
1082,1,Ticks_Pract_5,57,1,48,42,1665914612
1082,1,Ticks_Pract_5,58,5,42,127,1665922276
1082,1,Ticks_Pract_5,59,1,48,37,1666421504
1082,1,Ticks_Pract_5,60,5,42,127,1666423068
1082,1,Ticks_Pract_5,61,5,42,127,1666921772
1082,1,Ticks_Pract_5,62,1,48,36,1666925936
1082,1,Ticks_Pract_5,63,5,42,127,1667421764
1082,1,Ticks_Pract_5,64,1,48,32,1667437076
1082,1,Ticks_Pract_5,65,1,48,41,1667897860
1082,1,Ticks_Pract_5,66,5,42,127,1667922348
1082,1,Ticks_Pract_5,67,1,48,35,1668418872
1082,1,Ticks_Pract_5,68,5,42,127,1668421968
1082,1,Ticks_Pract_5,69,1,48,37,1668916248
1082,1,Ticks_Pract_5,70,5,42,127,1668921664
1082,1,Ticks_Pract_5,71,5,42,127,1669421368
1082,1,Ticks_Pract_5,72,1,48,28,1669448272
1082,1,Ticks_Pract_5,73,5,42,127,1669922108
1082,1,Ticks_Pract_5,74,1,48,27,1669925224
1082,1,Ticks_Pract_5,75,5,42,127,1670421728
1082,1,Ticks_Pract_5,76,1,48,37,1670430604
1082,1,Ticks_Pract_5,0,9999,9999,9999,1650919472
1082,1,Ticks_Pract_5,1,9999,9999,9999,1651419188
1082,1,Ticks_Pract_5,2,9999,9999,9999,1651919952
1082,1,Ticks_Pract_5,3,9999,9999,9999,1652419668
1082,1,Ticks_Pract_5,4,9999,9999,9999,1652919364
1082,1,Ticks_Pract_5,5,9999,9999,9999,1653419124
1082,1,Ticks_Pract_5,6,9999,9999,9999,1653919792
1082,1,Ticks_Pract_5,7,9999,9999,9999,1654419564
1082,1,Ticks_Pract_5,8,9999,9999,9999,1654919256
1082,1,Ticks_Pract_5,9,9999,9999,9999,1655420004
1082,1,Ticks_Pract_5,10,9999,9999,9999,1655919668
1082,1,Ticks_Pract_5,11,9999,9999,9999,1656419436
1082,1,Ticks_Pract_5,12,9999,9999,9999,1656919132
1082,1,Ticks_Pract_5,13,9999,9999,9999,1657419876
1082,1,Ticks_Pract_5,14,9999,9999,9999,1657919568
1082,1,Ticks_Pract_5,15,9999,9999,9999,1658419264
1082,1,Ticks_Pract_5,16,9999,9999,9999,1658920004
1082,1,Ticks_Pract_5,17,9999,9999,9999,1659419700
1082,1,Ticks_Pract_5,18,9999,9999,9999,1659919468
1082,1,Ticks_Pract_5,19,9999,9999,9999,1660419160
1082,1,Ticks_Pract_5,20,9999,9999,9999,1660919904
1082,1,Ticks_Pract_5,21,9999,9999,9999,1661419600
1082,1,Ticks_Pract_5,22,9999,9999,9999,1661919296
1082,1,Ticks_Pract_5,23,9999,9999,9999,1662420036
1082,1,Ticks_Pract_5,24,9999,9999,9999,1662919732
1082,1,Ticks_Pract_5,25,9999,9999,9999,1663419508
1082,1,Ticks_Pract_5,26,9999,9999,9999,1663919196
1082,1,Ticks_Pract_5,27,9999,9999,9999,1664419940
1082,1,Ticks_Pract_5,28,9999,9999,9999,1664919632
1082,1,Ticks_Pract_5,29,9999,9999,9999,1665419332
1082,1,Ticks_Pract_5,30,9999,9999,9999,1665920068
1082,1,Ticks_Pract_5,31,9999,9999,9999,1666419816
1082,1,Ticks_Pract_5,32,9999,9999,9999,1666919488
1082,1,Ticks_Pract_5,33,9999,9999,9999,1667419252
1082,1,Ticks_Pract_5,34,9999,9999,9999,1667919988
1082,1,Ticks_Pract_5,35,9999,9999,9999,1668419684
1082,1,Ticks_Pract_5,36,9999,9999,9999,1668919380
1082,1,Ticks_Pract_5,37,9999,9999,9999,1669419080
1082,1,Ticks_Pract_5,38,9999,9999,9999,1669919820
1082,1,Ticks_Pract_5,39,9999,9999,9999,1670419516
1083,2,T1_SMS_8,0,5,42,127,1778661744
1083,2,T1_SMS_8,1,5,42,127,1779461648
1083,2,T1_SMS_8,2,1,48,52,1780232040
1083,2,T1_SMS_8,3,5,42,127,1780262296
1083,2,T1_SMS_8,4,1,48,52,1780965952
1083,2,T1_SMS_8,5,5,42,127,1781062088
1083,2,T1_SMS_8,6,1,48,54,1781839216
1083,2,T1_SMS_8,7,5,42,127,1781861688
1083,2,T1_SMS_8,8,5,42,127,1782661600
1083,2,T1_SMS_8,9,1,48,57,1782692244
1083,2,T1_SMS_8,10,5,42,127,1783462156
1083,2,T1_SMS_8,11,1,48,58,1783499912
1083,2,T1_SMS_8,12,5,42,127,1784261892
1083,2,T1_SMS_8,13,1,48,51,1784268672
1083,2,T1_SMS_8,14,5,42,127,1785061700
1083,2,T1_SMS_8,15,1,48,52,1785105804
1083,2,T1_SMS_8,16,5,42,127,1785861432
1083,2,T1_SMS_8,17,1,48,50,1785866944
1083,2,T1_SMS_8,18,1,48,46,1786659108
1083,2,T1_SMS_8,19,5,42,127,1786662280
1083,2,T1_SMS_8,20,5,42,127,1787461872
1083,2,T1_SMS_8,21,1,48,51,1787464536
1083,2,T1_SMS_8,22,1,48,46,1788248176
1083,2,T1_SMS_8,23,5,42,127,1788261820
1083,2,T1_SMS_8,24,1,48,49,1789017096
1083,2,T1_SMS_8,25,5,42,127,1789061428
1083,2,T1_SMS_8,26,1,48,48,1789836140
1083,2,T1_SMS_8,27,5,42,127,1789862208
1083,2,T1_SMS_8,28,1,48,48,1790623912
1083,2,T1_SMS_8,29,5,42,127,1790661944
1083,2,T1_SMS_8,30,1,48,48,1791414744
1083,2,T1_SMS_8,31,5,42,127,1791461824
1083,2,T1_SMS_8,32,1,48,48,1792253148
1083,2,T1_SMS_8,33,5,42,127,1792261408
1083,2,T1_SMS_8,34,1,48,47,1793025284
1083,2,T1_SMS_8,35,5,42,127,1793062268
1083,2,T1_SMS_8,36,1,48,48,1793860568
1083,2,T1_SMS_8,37,5,42,127,1793861928
1083,2,T1_SMS_8,38,5,42,127,1794661668
1083,2,T1_SMS_8,39,1,48,45,1794669272
1083,2,T1_SMS_8,40,5,42,127,1795461648
1083,2,T1_SMS_8,41,1,48,47,1795478536
1083,2,T1_SMS_8,42,5,42,127,1796262132
1083,2,T1_SMS_8,43,1,48,50,1796280060
1083,2,T1_SMS_8,44,1,48,47,1797035420
1083,2,T1_SMS_8,45,5,42,127,1797061932
1083,2,T1_SMS_8,46,5,42,127,1797861600
1083,2,T1_SMS_8,47,1,48,45,1797932260
1083,2,T1_SMS_8,48,1,48,43,1798623740
1083,2,T1_SMS_8,49,5,42,127,1798661772
1083,2,T1_SMS_8,50,5,42,127,1799462408
1083,2,T1_SMS_8,51,1,48,42,1799526792
1083,2,T1_SMS_8,52,5,42,127,1800261916
1083,2,T1_SMS_8,53,1,48,44,1800285232
1083,2,T1_SMS_8,54,5,42,127,1801061872
1083,2,T1_SMS_8,55,1,48,50,1801119172
1083,2,T1_SMS_8,56,1,48,46,1801820800
1083,2,T1_SMS_8,57,5,42,127,1801861772
1083,2,T1_SMS_8,58,5,42,127,1802662188
1083,2,T1_SMS_8,59,1,48,47,1802684904
1083,2,T1_SMS_8,60,5,42,127,1803461996
1083,2,T1_SMS_8,61,1,48,54,1803508200
1083,2,T1_SMS_8,62,1,48,46,1804230348
1083,2,T1_SMS_8,63,5,42,127,1804261724
1083,2,T1_SMS_8,64,1,48,46,1805046388
1083,2,T1_SMS_8,65,5,42,127,1805061680
1083,2,T1_SMS_8,66,1,48,49,1805827048
1083,2,T1_SMS_8,67,5,42,127,1805862236
1083,2,T1_SMS_8,68,1,48,50,1806627008
1083,2,T1_SMS_8,69,5,42,127,1806661968
1083,2,T1_SMS_8,70,1,48,51,1807429808
1083,2,T1_SMS_8,71,5,42,127,1807461780
1083,2,T1_SMS_8,72,1,48,49,1808236648
1083,2,T1_SMS_8,73,5,42,127,1808261608
1083,2,T1_SMS_8,74,1,48,48,1809032588
1083,2,T1_SMS_8,75,5,42,127,1809062464
1083,2,T1_SMS_8,76,1,48,51,1809826704
1083,2,T1_SMS_8,77,5,42,127,1809861972
1083,2,T1_SMS_8,78,1,48,49,1810616724
1083,2,T1_SMS_8,79,5,42,127,1810661784
1083,2,T1_SMS_8,80,1,48,51,1811410692
1083,2,T1_SMS_8,81,5,42,127,1811461440
1083,2,T1_SMS_8,82,1,48,43,1812250072
1083,2,T1_SMS_8,83,5,42,127,1812262144
1083,2,T1_SMS_8,84,1,48,47,1813045236
1083,2,T1_SMS_8,85,5,42,127,1813062028
1083,2,T1_SMS_8,86,1,48,44,1813823352
1083,2,T1_SMS_8,87,5,42,127,1813861612
1083,2,T1_SMS_8,88,5,42,127,1814661528
1083,2,T1_SMS_8,89,1,48,46,1814673024
1083,2,T1_SMS_8,90,1,48,50,1815460416
1083,2,T1_SMS_8,91,5,42,127,1815462080
1083,2,T1_SMS_8,92,5,42,127,1816261968
1083,2,T1_SMS_8,93,1,48,47,1816267628
1083,2,T1_SMS_8,94,5,42,127,1817061852
1083,2,T1_SMS_8,95,1,48,47,1817069160
1083,2,T1_SMS_8,96,5,42,127,1817861436
1083,2,T1_SMS_8,97,1,48,41,1817870236
1083,2,T1_SMS_8,98,1,48,47,1818622608
1083,2,T1_SMS_8,99,5,42,127,1818662432
1083,2,T1_SMS_8,100,1,48,52,1819444332
1083,2,T1_SMS_8,101,5,42,127,1819461868
1083,2,T1_SMS_8,102,1,48,52,1820238824
1083,2,T1_SMS_8,103,5,42,127,1820261748
1083,2,T1_SMS_8,104,1,48,42,1821021880
1083,2,T1_SMS_8,105,5,42,127,1821061580
1083,2,T1_SMS_8,106,1,48,48,1821841536
1083,2,T1_SMS_8,107,5,42,127,1821862360
1083,2,T1_SMS_8,108,1,48,42,1822619500
1083,2,T1_SMS_8,109,5,42,127,1822661872
1083,2,T1_SMS_8,110,1,48,40,1823453720
1083,2,T1_SMS_8,111,5,42,127,1823461684
1083,2,T1_SMS_8,112,1,48,45,1824230640
1083,2,T1_SMS_8,113,5,42,127,1824261636
1083,2,T1_SMS_8,114,1,48,35,1825002996
1083,2,T1_SMS_8,115,5,42,127,1825062344
1083,2,T1_SMS_8,116,1,48,43,1825835640
1083,2,T1_SMS_8,117,5,42,127,1825862004
1083,2,T1_SMS_8,118,1,48,47,1826636640
1083,2,T1_SMS_8,119,5,42,127,1826661736
1083,2,T1_SMS_8,120,1,48,43,1827411472
1083,2,T1_SMS_8,121,5,42,127,1827461572
1083,2,T1_SMS_8,122,1,48,48,1828231728
1083,2,T1_SMS_8,123,5,42,127,1828262204
1083,2,T1_SMS_8,124,5,42,127,1829061944
1083,2,T1_SMS_8,125,1,48,50,1829089524
1083,2,T1_SMS_8,126,1,48,45,1829815860
1083,2,T1_SMS_8,127,5,42,127,1829861748
1083,2,T1_SMS_8,128,5,42,127,1830661412
1083,2,T1_SMS_8,129,1,48,45,1830668424
1083,2,T1_SMS_8,130,1,48,46,1831417948
1083,2,T1_SMS_8,131,5,42,127,1831462408
1083,2,T1_SMS_8,132,5,42,127,1832261852
1083,2,T1_SMS_8,133,1,48,44,1832294212
1083,2,T1_SMS_8,134,1,48,40,1833048752
1083,2,T1_SMS_8,135,5,42,127,1833061724
1083,2,T1_SMS_8,136,5,42,127,1833861416
1083,2,T1_SMS_8,137,1,48,41,1833870596
1083,2,T1_SMS_8,138,1,48,45,1834659316
1083,2,T1_SMS_8,139,5,42,127,1834662340
1083,2,T1_SMS_8,140,5,42,127,1835462008
1083,2,T1_SMS_8,141,1,48,42,1835464676
1083,2,T1_SMS_8,142,5,42,127,1836261668
1083,2,T1_SMS_8,143,1,48,36,1836306600
1083,2,T1_SMS_8,144,1,48,43,1837059656
1083,2,T1_SMS_8,145,5,42,127,1837061392
1083,2,T1_SMS_8,146,1,48,42,1837805668
1083,2,T1_SMS_8,147,5,42,127,1837862472
1083,2,T1_SMS_8,148,1,48,46,1838617292
1083,2,T1_SMS_8,149,5,42,127,1838662128
1083,2,T1_SMS_8,150,1,48,40,1839436396
1083,2,T1_SMS_8,151,5,42,127,1839461640
1083,2,T1_SMS_8,152,1,48,49,1840175396
1083,2,T1_SMS_8,153,5,42,127,1840261548
1083,2,T1_SMS_8,154,1,48,46,1840995172
1083,2,T1_SMS_8,155,5,42,127,1841062400
1083,2,T1_SMS_8,156,1,48,47,1841817372
1083,2,T1_SMS_8,157,5,42,127,1841861988
1083,2,T1_SMS_8,158,1,48,48,1842640372
1083,2,T1_SMS_8,159,5,42,127,1842661648
1083,2,T1_SMS_8,160,1,48,49,1843424020
1083,2,T1_SMS_8,161,5,42,127,1843461380
1083,2,T1_SMS_8,162,1,48,45,1844202212
1083,2,T1_SMS_8,163,5,42,127,1844262456
1083,2,T1_SMS_8,164,1,48,42,1844992968
1083,2,T1_SMS_8,165,5,42,127,1845062264
1083,2,T1_SMS_8,166,1,48,46,1845831668
1083,2,T1_SMS_8,167,5,42,127,1845861700
1083,2,T1_SMS_8,168,1,48,48,1846634772
1083,2,T1_SMS_8,169,5,42,127,1846661456
1083,2,T1_SMS_8,170,1,48,47,1847420468
1083,2,T1_SMS_8,171,5,42,127,1847462164
1083,2,T1_SMS_8,172,1,48,47,1848204940
1083,2,T1_SMS_8,173,5,42,127,1848262120
1083,2,T1_SMS_8,174,1,48,41,1849039308
1083,2,T1_SMS_8,175,5,42,127,1849061708
1083,2,T1_SMS_8,176,1,48,48,1849855568
1083,2,T1_SMS_8,177,5,42,127,1849861440
1083,2,T1_SMS_8,178,1,48,43,1850654332
1083,2,T1_SMS_8,179,5,42,127,1850662292
1083,2,T1_SMS_8,180,5,42,127,1851462404
1083,2,T1_SMS_8,181,1,48,43,1851470388
1083,2,T1_SMS_8,182,5,42,127,1852261692
1083,2,T1_SMS_8,183,1,48,47,1852287276
1083,2,T1_SMS_8,184,1,48,45,1853060172
1083,2,T1_SMS_8,185,5,42,127,1853061740
1083,2,T1_SMS_8,186,1,48,46,1853834440
1083,2,T1_SMS_8,187,5,42,127,1853862372
1083,2,T1_SMS_8,188,1,48,45,1854632980
1083,2,T1_SMS_8,189,5,42,127,1854661956
1083,2,T1_SMS_8,190,1,48,48,1855446024
1083,2,T1_SMS_8,191,5,42,127,1855461688
1083,2,T1_SMS_8,192,1,48,46,1856204316
1083,2,T1_SMS_8,193,5,42,127,1856261496
1083,2,T1_SMS_8,194,1,48,40,1857029484
1083,2,T1_SMS_8,195,5,42,127,1857062204
1083,2,T1_SMS_8,196,1,48,42,1857837816
1083,2,T1_SMS_8,197,5,42,127,1857862012
1083,2,T1_SMS_8,198,1,48,43,1858629620
1083,2,T1_SMS_8,199,5,42,127,1858661744
1083,2,T1_SMS_8,200,1,48,44,1859457064
1083,2,T1_SMS_8,201,5,42,127,1859461356
1083,2,T1_SMS_8,202,1,48,40,1860248412
1083,2,T1_SMS_8,203,5,42,127,1860262284
1083,2,T1_SMS_8,204,1,48,43,1861030048
1083,2,T1_SMS_8,205,5,42,127,1861062092
1083,2,T1_SMS_8,206,1,48,40,1861843244
1083,2,T1_SMS_8,207,5,42,127,1861861676
1083,2,T1_SMS_8,208,1,48,42,1862647992
1083,2,T1_SMS_8,209,5,42,127,1862661484
1083,2,T1_SMS_8,210,5,42,127,1863462344
1083,2,T1_SMS_8,211,1,48,40,1863474592
1083,2,T1_SMS_8,212,5,42,127,1864262080
1083,2,T1_SMS_8,213,1,48,46,1864276120
1083,2,T1_SMS_8,214,1,48,42,1865014500
1083,2,T1_SMS_8,215,5,42,127,1865061732
1083,2,T1_SMS_8,216,1,48,44,1865859676
1083,2,T1_SMS_8,217,5,42,127,1865861416
1083,2,T1_SMS_8,218,1,48,42,1866637484
1083,2,T1_SMS_8,219,5,42,127,1866662420
1083,2,T1_SMS_8,220,1,48,39,1867457260
1083,2,T1_SMS_8,221,5,42,127,1867462152
1083,2,T1_SMS_8,222,5,42,127,1868261668
1083,2,T1_SMS_8,223,1,48,41,1868273608
1083,2,T1_SMS_8,224,5,42,127,1869061480
1083,2,T1_SMS_8,225,1,48,43,1869090252
1083,2,T1_SMS_8,226,5,42,127,1869862332
1083,2,T1_SMS_8,227,1,48,38,1869867400
1083,2,T1_SMS_8,228,5,42,127,1870662212
1083,2,T1_SMS_8,229,1,48,46,1870674384
1083,2,T1_SMS_8,230,1,48,39,1871462172
1083,2,T1_SMS_8,231,5,42,127,1871463284
1083,2,T1_SMS_8,232,5,42,127,1872261408
1083,2,T1_SMS_8,233,1,48,30,1872326384
1083,2,T1_SMS_8,234,5,42,127,1873062268
1083,2,T1_SMS_8,235,1,48,39,1873100844
1083,2,T1_SMS_8,236,5,42,127,1873862148
1083,2,T1_SMS_8,237,1,48,37,1873867364
1083,2,T1_SMS_8,0,9999,9999,9999,1778659380
1083,2,T1_SMS_8,1,9999,9999,9999,1779459136
1083,2,T1_SMS_8,2,9999,9999,9999,1780259932
1083,2,T1_SMS_8,3,9999,9999,9999,1781059684
1083,2,T1_SMS_8,4,9999,9999,9999,1781859400
1083,2,T1_SMS_8,5,9999,9999,9999,1782659164
1083,2,T1_SMS_8,6,9999,9999,9999,1783459944
1083,2,T1_SMS_8,7,9999,9999,9999,1784259676
1083,2,T1_SMS_8,8,9999,9999,9999,1785059412
1083,2,T1_SMS_8,9,9999,9999,9999,1785859144
1083,2,T1_SMS_8,10,9999,9999,9999,1786659916
1083,2,T1_SMS_8,11,9999,9999,9999,1787459656
1083,2,T1_SMS_8,12,9999,9999,9999,1788259384
1083,2,T1_SMS_8,13,9999,9999,9999,1789059140
1083,2,T1_SMS_8,14,9999,9999,9999,1789859920
1083,2,T1_SMS_8,15,9999,9999,9999,1790659656
1083,2,T1_SMS_8,16,9999,9999,9999,1791459388
1083,2,T1_SMS_8,17,9999,9999,9999,1792259124
1083,2,T1_SMS_8,18,9999,9999,9999,1793059904
1083,2,T1_SMS_8,19,9999,9999,9999,1793859644
1083,2,T1_SMS_8,20,9999,9999,9999,1794659380
1083,2,T1_SMS_8,21,9999,9999,9999,1795459140
1083,2,T1_SMS_8,22,9999,9999,9999,1796259916
1083,2,T1_SMS_8,23,9999,9999,9999,1797059644
1083,2,T1_SMS_8,24,9999,9999,9999,1797859384
1083,2,T1_SMS_8,25,9999,9999,9999,1798659184
1083,2,T1_SMS_8,26,9999,9999,9999,1799459896
1083,2,T1_SMS_8,27,9999,9999,9999,1800259628
1083,2,T1_SMS_8,28,9999,9999,9999,1801059436
1083,2,T1_SMS_8,29,9999,9999,9999,1801859188
1083,2,T1_SMS_8,30,9999,9999,9999,1802659900
1083,2,T1_SMS_8,31,9999,9999,9999,1803459636
1083,2,T1_SMS_8,32,9999,9999,9999,1804259436
1083,2,T1_SMS_8,33,9999,9999,9999,1805059168
1083,2,T1_SMS_8,34,9999,9999,9999,1805859948
1083,2,T1_SMS_8,35,9999,9999,9999,1806659680
1083,2,T1_SMS_8,36,9999,9999,9999,1807459416
1083,2,T1_SMS_8,37,9999,9999,9999,1808259172
1083,2,T1_SMS_8,38,9999,9999,9999,1809059952
1083,2,T1_SMS_8,39,9999,9999,9999,1809859684
1083,2,T1_SMS_8,40,9999,9999,9999,1810659420
1083,2,T1_SMS_8,41,9999,9999,9999,1811459152
1083,2,T1_SMS_8,42,9999,9999,9999,1812259932
1083,2,T1_SMS_8,43,9999,9999,9999,1813059668
1083,2,T1_SMS_8,44,9999,9999,9999,1813859400
1083,2,T1_SMS_8,45,9999,9999,9999,1814659164
1083,2,T1_SMS_8,46,9999,9999,9999,1815459888
1083,2,T1_SMS_8,47,9999,9999,9999,1816259680
1083,2,T1_SMS_8,48,9999,9999,9999,1817059412
1083,2,T1_SMS_8,49,9999,9999,9999,1817859148
1083,2,T1_SMS_8,50,9999,9999,9999,1818659920
1083,2,T1_SMS_8,51,9999,9999,9999,1819459656
1083,2,T1_SMS_8,52,9999,9999,9999,1820259388
1083,2,T1_SMS_8,53,9999,9999,9999,1821059144
1083,2,T1_SMS_8,54,9999,9999,9999,1821859924
1083,2,T1_SMS_8,55,9999,9999,9999,1822659660
1083,2,T1_SMS_8,56,9999,9999,9999,1823459396
1083,2,T1_SMS_8,57,9999,9999,9999,1824259128
1083,2,T1_SMS_8,58,9999,9999,9999,1825059908
1083,2,T1_SMS_8,59,9999,9999,9999,1825859640
1083,2,T1_SMS_8,60,9999,9999,9999,1826659376
1083,2,T1_SMS_8,61,9999,9999,9999,1827459136
1083,2,T1_SMS_8,62,9999,9999,9999,1828259916
1083,2,T1_SMS_8,63,9999,9999,9999,1829059656
1083,2,T1_SMS_8,64,9999,9999,9999,1829859384
1083,2,T1_SMS_8,65,9999,9999,9999,1830659124
1083,2,T1_SMS_8,66,9999,9999,9999,1831459896
1083,2,T1_SMS_8,67,9999,9999,9999,1832259636
1083,2,T1_SMS_8,68,9999,9999,9999,1833059440
1083,2,T1_SMS_8,69,9999,9999,9999,1833859128
1083,2,T1_SMS_8,70,9999,9999,9999,1834659904
1083,2,T1_SMS_8,71,9999,9999,9999,1835459644
1083,2,T1_SMS_8,72,9999,9999,9999,1836259380
1083,2,T1_SMS_8,73,9999,9999,9999,1837059128
1083,2,T1_SMS_8,74,9999,9999,9999,1837859960
1083,2,T1_SMS_8,75,9999,9999,9999,1838659692
1083,2,T1_SMS_8,76,9999,9999,9999,1839459428
1083,2,T1_SMS_8,77,9999,9999,9999,1840259184
1083,2,T1_SMS_8,78,9999,9999,9999,1841059892
1083,2,T1_SMS_8,79,9999,9999,9999,1841859700
1083,2,T1_SMS_8,80,9999,9999,9999,1842659432
1083,2,T1_SMS_8,81,9999,9999,9999,1843459168
1083,2,T1_SMS_8,82,9999,9999,9999,1844259944
1083,2,T1_SMS_8,83,9999,9999,9999,1845059680
1083,2,T1_SMS_8,84,9999,9999,9999,1845859412
1083,2,T1_SMS_8,85,9999,9999,9999,1846659172
1083,2,T1_SMS_8,86,9999,9999,9999,1847459952
1083,2,T1_SMS_8,87,9999,9999,9999,1848259684
1083,2,T1_SMS_8,88,9999,9999,9999,1849059420
1083,2,T1_SMS_8,89,9999,9999,9999,1849859152
1083,2,T1_SMS_8,90,9999,9999,9999,1850659932
1083,2,T1_SMS_8,91,9999,9999,9999,1851459672
1083,2,T1_SMS_8,92,9999,9999,9999,1852259404
1083,2,T1_SMS_8,93,9999,9999,9999,1853059160
1083,2,T1_SMS_8,94,9999,9999,9999,1853859936
1083,2,T1_SMS_8,95,9999,9999,9999,1854659668
1083,2,T1_SMS_8,96,9999,9999,9999,1855459404
1083,2,T1_SMS_8,97,9999,9999,9999,1856259136
1083,2,T1_SMS_8,98,9999,9999,9999,1857059916
1083,2,T1_SMS_8,99,9999,9999,9999,1857859648
1083,2,T1_SMS_8,100,9999,9999,9999,1858659380
1083,2,T1_SMS_8,101,9999,9999,9999,1859459144
1083,2,T1_SMS_8,102,9999,9999,9999,1860259920
1083,2,T1_SMS_8,103,9999,9999,9999,1861059656
1083,2,T1_SMS_8,104,9999,9999,9999,1861859388
1083,2,T1_SMS_8,105,9999,9999,9999,1862659124
1083,2,T1_SMS_8,106,9999,9999,9999,1863459908
1083,2,T1_SMS_8,107,9999,9999,9999,1864259640
1083,2,T1_SMS_8,108,9999,9999,9999,1865059444
1083,2,T1_SMS_8,109,9999,9999,9999,1865859152
1083,2,T1_SMS_8,110,9999,9999,9999,1866659908
1083,2,T1_SMS_8,111,9999,9999,9999,1867459644
1083,2,T1_SMS_8,112,9999,9999,9999,1868259380
1083,2,T1_SMS_8,113,9999,9999,9999,1869059188
1083,2,T1_SMS_8,114,9999,9999,9999,1869859892
1083,2,T1_SMS_8,115,9999,9999,9999,1870659704
1083,2,T1_SMS_8,116,9999,9999,9999,1871459436
1083,2,T1_SMS_8,117,9999,9999,9999,1872259120
1083,2,T1_SMS_8,118,9999,9999,9999,1873059904
1083,2,T1_SMS_8,119,9999,9999,9999,1873859636
1084,4,T1_SMS_5,0,5,42,127,1949470992
1084,4,T1_SMS_5,1,5,42,127,1949970860
1084,4,T1_SMS_5,2,5,42,127,1950470500
1084,4,T1_SMS_5,3,1,48,37,1950498600
1084,4,T1_SMS_5,4,1,48,49,1950970192
1084,4,T1_SMS_5,5,5,42,127,1950971684
1084,4,T1_SMS_5,6,5,42,127,1951471088
1084,4,T1_SMS_5,7,1,48,52,1951477348
1084,4,T1_SMS_5,8,5,42,127,1951970708
1084,4,T1_SMS_5,9,1,48,48,1951985492
1084,4,T1_SMS_5,10,5,42,127,1952471672
1084,4,T1_SMS_5,11,1,48,50,1952486836
1084,4,T1_SMS_5,12,5,42,127,1952971068
1084,4,T1_SMS_5,13,1,48,50,1952990044
1084,4,T1_SMS_5,14,5,42,127,1953470764
1084,4,T1_SMS_5,15,1,48,49,1953489516
1084,4,T1_SMS_5,16,5,42,127,1953970532
1084,4,T1_SMS_5,17,1,48,47,1953971872
1084,4,T1_SMS_5,18,1,48,51,1954462032
1084,4,T1_SMS_5,19,5,42,127,1954471340
1084,4,T1_SMS_5,20,1,48,51,1954966064
1084,4,T1_SMS_5,21,5,42,127,1954970888
1084,4,T1_SMS_5,22,5,42,127,1955470740
1084,4,T1_SMS_5,23,1,48,51,1955489940
1084,4,T1_SMS_5,24,1,48,50,1955956104
1084,4,T1_SMS_5,25,5,42,127,1955970576
1084,4,T1_SMS_5,26,5,42,127,1956471100
1084,4,T1_SMS_5,27,1,48,54,1956495984
1084,4,T1_SMS_5,28,5,42,127,1956970920
1084,4,T1_SMS_5,29,1,48,50,1956975260
1084,4,T1_SMS_5,30,1,48,46,1957438936
1084,4,T1_SMS_5,31,5,42,127,1957470608
1084,4,T1_SMS_5,32,1,48,46,1957961444
1084,4,T1_SMS_5,33,5,42,127,1957971428
1084,4,T1_SMS_5,34,1,48,48,1958442736
1084,4,T1_SMS_5,35,5,42,127,1958471048
1084,4,T1_SMS_5,36,1,48,48,1958920372
1084,4,T1_SMS_5,37,5,42,127,1958970668
1084,4,T1_SMS_5,38,5,42,127,1959470668
1084,4,T1_SMS_5,39,1,48,50,1959495028
1084,4,T1_SMS_5,40,5,42,127,1959971036
1084,4,T1_SMS_5,41,1,48,45,1959983280
1084,4,T1_SMS_5,42,1,48,43,1960461416
1084,4,T1_SMS_5,43,5,42,127,1960471020
1084,4,T1_SMS_5,44,5,42,127,1960970572
1084,4,T1_SMS_5,45,1,48,47,1960994560
1084,4,T1_SMS_5,46,1,48,49,1961465892
1084,4,T1_SMS_5,47,5,42,127,1961471308
1084,4,T1_SMS_5,48,1,48,55,1961941352
1084,4,T1_SMS_5,49,5,42,127,1961971004
1084,4,T1_SMS_5,50,1,48,47,1962447624
1084,4,T1_SMS_5,51,5,42,127,1962470700
1084,4,T1_SMS_5,52,1,48,50,1962965940
1084,4,T1_SMS_5,53,5,42,127,1962970692
1084,4,T1_SMS_5,54,1,48,46,1963455840
1084,4,T1_SMS_5,55,5,42,127,1963471136
1084,4,T1_SMS_5,56,1,48,53,1963949480
1084,4,T1_SMS_5,57,5,42,127,1963970828
1084,4,T1_SMS_5,58,1,48,49,1964462264
1084,4,T1_SMS_5,59,5,42,127,1964470748
1084,4,T1_SMS_5,60,1,48,50,1964951712
1084,4,T1_SMS_5,61,5,42,127,1964971416
1084,4,T1_SMS_5,62,1,48,47,1965433600
1084,4,T1_SMS_5,63,5,42,127,1965471036
1084,4,T1_SMS_5,64,5,42,127,1965970736
1084,4,T1_SMS_5,65,1,48,46,1965997196
1084,4,T1_SMS_5,66,5,42,127,1966470580
1084,4,T1_SMS_5,67,1,48,45,1966505560
1084,4,T1_SMS_5,68,5,42,127,1966971176
1084,4,T1_SMS_5,69,1,48,49,1966988880
1084,4,T1_SMS_5,70,5,42,127,1967470944
1084,4,T1_SMS_5,71,1,48,44,1967492088
1084,4,T1_SMS_5,72,5,42,127,1967970616
1084,4,T1_SMS_5,73,1,48,45,1967974852
1084,4,T1_SMS_5,74,5,42,127,1968471504
1084,4,T1_SMS_5,75,1,48,46,1968478368
1084,4,T1_SMS_5,76,1,48,46,1968957696
1084,4,T1_SMS_5,77,5,42,127,1968971192
1084,4,T1_SMS_5,78,1,48,47,1969458292
1084,4,T1_SMS_5,79,5,42,127,1969470740
1084,4,T1_SMS_5,80,5,42,127,1969970440
1084,4,T1_SMS_5,81,1,48,49,1969992932
1084,4,T1_SMS_5,82,5,42,127,1970471328
1084,4,T1_SMS_5,83,1,48,51,1970481332
1084,4,T1_SMS_5,84,5,42,127,1970971172
1084,4,T1_SMS_5,85,1,48,49,1970973184
1084,4,T1_SMS_5,86,5,42,127,1971470644
1084,4,T1_SMS_5,87,1,48,46,1971478400
1084,4,T1_SMS_5,88,5,42,127,1971970340
1084,4,T1_SMS_5,89,1,48,43,1972002032
1084,4,T1_SMS_5,90,5,42,127,1972471080
1084,4,T1_SMS_5,91,1,48,46,1972481380
1084,4,T1_SMS_5,92,5,42,127,1972970848
1084,4,T1_SMS_5,93,1,48,40,1972996708
1084,4,T1_SMS_5,94,1,48,49,1973462352
1084,4,T1_SMS_5,95,5,42,127,1973470612
1084,4,T1_SMS_5,96,1,48,45,1973931156
1084,4,T1_SMS_5,97,5,42,127,1973971280
1084,4,T1_SMS_5,98,1,48,47,1974453292
1084,4,T1_SMS_5,99,5,42,127,1974471048
1084,4,T1_SMS_5,100,1,48,44,1974955080
1084,4,T1_SMS_5,101,5,42,127,1974970744
1084,4,T1_SMS_5,102,5,42,127,1975470372
1084,4,T1_SMS_5,103,1,48,52,1975487328
1084,4,T1_SMS_5,104,5,42,127,1975971264
1084,4,T1_SMS_5,105,1,48,47,1975982832
1084,4,T1_SMS_5,106,5,42,127,1976470956
1084,4,T1_SMS_5,107,1,48,52,1976494568
1084,4,T1_SMS_5,108,5,42,127,1976970576
1084,4,T1_SMS_5,109,1,48,46,1976977736
1084,4,T1_SMS_5,110,5,42,127,1977471320
1084,4,T1_SMS_5,111,1,48,48,1977484760
1084,4,T1_SMS_5,112,5,42,127,1977971164
1084,4,T1_SMS_5,113,1,48,51,1977980564
1084,4,T1_SMS_5,114,5,42,127,1978470832
1084,4,T1_SMS_5,115,1,48,47,1978472392
1084,4,T1_SMS_5,116,5,42,127,1978970452
1084,4,T1_SMS_5,117,1,48,48,1978982548
1084,4,T1_SMS_5,118,1,48,52,1979465168
1084,4,T1_SMS_5,119,5,42,127,1979471412
1084,4,T1_SMS_5,120,5,42,127,1979970964
1084,4,T1_SMS_5,121,1,48,46,1979997200
1084,4,T1_SMS_5,122,1,48,48,1980422524
1084,4,T1_SMS_5,123,5,42,127,1980470724
1084,4,T1_SMS_5,124,5,42,127,1980971472
1084,4,T1_SMS_5,125,1,48,41,1981149572
1084,4,T1_SMS_5,126,5,42,127,1981471244
1084,4,T1_SMS_5,127,1,48,49,1981511088
1084,4,T1_SMS_5,128,5,42,127,1981970716
1084,4,T1_SMS_5,129,1,48,16,1981984752
1084,4,T1_SMS_5,130,5,42,127,1982470484
1084,4,T1_SMS_5,131,1,48,45,1982540996
1084,4,T1_SMS_5,132,1,48,40,1982926156
1084,4,T1_SMS_5,133,5,42,127,1982971516
1084,4,T1_SMS_5,134,5,42,127,1983471072
1084,4,T1_SMS_5,135,1,48,35,1983716108
1084,4,T1_SMS_5,136,5,42,127,1983970764
1084,4,T1_SMS_5,137,1,48,38,1984061100
1084,4,T1_SMS_5,138,5,42,127,1984471360
1084,4,T1_SMS_5,139,1,48,35,1984482484
1084,4,T1_SMS_5,140,5,42,127,1984971276
1084,4,T1_SMS_5,141,1,48,36,1985005736
1084,4,T1_SMS_5,142,5,42,127,1985470972
1084,4,T1_SMS_5,143,1,48,42,1985483068
1084,4,T1_SMS_5,144,5,42,127,1985970520
1084,4,T1_SMS_5,145,1,48,42,1985973184
1084,4,T1_SMS_5,146,5,42,127,1986471408
1084,4,T1_SMS_5,147,1,48,51,1986490464
1084,4,T1_SMS_5,148,5,42,127,1986971180
1084,4,T1_SMS_5,149,1,48,48,1986977816
1084,4,T1_SMS_5,150,5,42,127,1987470652
1084,4,T1_SMS_5,151,1,48,46,1987484460
1084,4,T1_SMS_5,152,5,42,127,1987970344
1084,4,T1_SMS_5,153,1,48,49,1987988724
1084,4,T1_SMS_5,154,5,42,127,1988471312
1084,4,T1_SMS_5,155,1,48,43,1988478696
1084,4,T1_SMS_5,156,5,42,127,1988970832
1084,4,T1_SMS_5,157,1,48,48,1988982552
1084,4,T1_SMS_5,158,1,48,41,1989461264
1084,4,T1_SMS_5,159,5,42,127,1989470500
1084,4,T1_SMS_5,160,1,48,46,1989953400
1084,4,T1_SMS_5,161,5,42,127,1989971464
1084,4,T1_SMS_5,162,5,42,127,1990471312
1084,4,T1_SMS_5,163,1,48,39,1990489988
1084,4,T1_SMS_5,164,1,48,46,1990948680
1084,4,T1_SMS_5,165,5,42,127,1990970704
1084,4,T1_SMS_5,166,1,48,44,1991450316
1084,4,T1_SMS_5,167,5,42,127,1991470400
1084,4,T1_SMS_5,168,1,48,42,1991956672
1084,4,T1_SMS_5,169,5,42,127,1991971364
1084,4,T1_SMS_5,170,5,42,127,1992470992
1084,4,T1_SMS_5,171,1,48,46,1992487724
1084,4,T1_SMS_5,172,5,42,127,1992970612
1084,4,T1_SMS_5,173,1,48,38,1992973276
1084,4,T1_SMS_5,174,1,48,43,1993470596
1084,4,T1_SMS_5,175,5,42,127,1993472244
1084,4,T1_SMS_5,176,5,42,127,1993971272
1084,4,T1_SMS_5,177,1,48,43,1993975288
1084,4,T1_SMS_5,178,1,48,48,1994454024
1084,4,T1_SMS_5,179,5,42,127,1994470736
1084,4,T1_SMS_5,180,1,48,49,1994962692
1084,4,T1_SMS_5,181,5,42,127,1994970432
1084,4,T1_SMS_5,182,1,48,44,1995469904
1084,4,T1_SMS_5,183,5,42,127,1995471476
1084,4,T1_SMS_5,184,5,42,127,1995971100
1084,4,T1_SMS_5,185,1,48,51,1996008104
1084,4,T1_SMS_5,186,1,48,43,1996453180
1084,4,T1_SMS_5,187,5,42,127,1996470492
1084,4,T1_SMS_5,188,5,42,127,1996971316
1084,4,T1_SMS_5,189,1,48,44,1996976604
1084,4,T1_SMS_5,190,5,42,127,1997471084
1084,4,T1_SMS_5,191,1,48,48,1997481160
1084,4,T1_SMS_5,192,1,48,48,1997970484
1084,4,T1_SMS_5,193,5,42,127,1997972044
1084,4,T1_SMS_5,194,5,42,127,1998470624
1084,4,T1_SMS_5,195,1,48,48,1998488180
1084,4,T1_SMS_5,196,1,48,51,1998952376
1084,4,T1_SMS_5,197,5,42,127,1998971212
1084,4,T1_SMS_5,198,5,42,127,1999470988
1084,4,T1_SMS_5,199,1,48,48,1999488916
1084,4,T1_SMS_5,200,5,42,127,1999970732
1084,4,T1_SMS_5,201,1,48,37,1999984872
1084,4,T1_SMS_5,202,5,42,127,2000471476
1084,4,T1_SMS_5,203,1,48,40,2000490772
1084,4,T1_SMS_5,204,1,48,49,2000964240
1084,4,T1_SMS_5,205,5,42,127,2000971308
1084,4,T1_SMS_5,206,1,48,46,2001464236
1084,4,T1_SMS_5,207,5,42,127,2001471004
1084,4,T1_SMS_5,208,5,42,127,2001970484
1084,4,T1_SMS_5,209,1,48,47,2001990356
1084,4,T1_SMS_5,210,1,48,43,2002463252
1084,4,T1_SMS_5,211,5,42,127,2002471216
1084,4,T1_SMS_5,212,1,48,47,2002963320
1084,4,T1_SMS_5,213,5,42,127,2002970912
1084,4,T1_SMS_5,214,1,48,41,2003467436
1084,4,T1_SMS_5,215,5,42,127,2003470608
1084,4,T1_SMS_5,216,1,48,42,2003959496
1084,4,T1_SMS_5,217,5,42,127,2003970376
1084,4,T1_SMS_5,218,1,48,44,2004413716
1084,4,T1_SMS_5,219,5,42,127,2004471116
1084,4,T1_SMS_5,220,5,42,127,2004970820
1084,4,T1_SMS_5,221,1,48,28,2004995628
1084,4,T1_SMS_5,222,5,42,127,2005470440
1084,4,T1_SMS_5,223,1,48,36,2005505124
1084,4,T1_SMS_5,224,5,42,127,2005971332
1084,4,T1_SMS_5,225,1,48,40,2006001752
1084,4,T1_SMS_5,226,5,42,127,2006471100
1084,4,T1_SMS_5,227,1,48,49,2006472064
1084,4,T1_SMS_5,228,5,42,127,2006970644
1084,4,T1_SMS_5,229,1,48,42,2006975180
1084,4,T1_SMS_5,230,1,48,35,2007458628
1084,4,T1_SMS_5,231,5,42,127,2007470484
1084,4,T1_SMS_5,232,1,48,47,2007964156
1084,4,T1_SMS_5,233,5,42,127,2007971224
1084,4,T1_SMS_5,234,5,42,127,2008470852
1084,4,T1_SMS_5,235,1,48,50,2008490352
1084,4,T1_SMS_5,236,1,48,44,2008944176
1084,4,T1_SMS_5,237,5,42,127,2008970540
1084,4,T1_SMS_5,238,5,42,127,2009471216
1084,4,T1_SMS_5,239,1,48,35,2009492432
1084,4,T1_SMS_5,240,5,42,127,2009971060
1084,4,T1_SMS_5,241,1,48,33,2009992052
1084,4,T1_SMS_5,242,5,42,127,2010470656
1084,4,T1_SMS_5,243,1,48,39,2010477912
1084,4,T1_SMS_5,244,5,42,127,2010970500
1084,4,T1_SMS_5,245,1,48,31,2010994736
1084,4,T1_SMS_5,246,1,48,44,2011451372
1084,4,T1_SMS_5,247,5,42,127,2011471084
1084,4,T1_SMS_5,248,1,48,40,2011937836
1084,4,T1_SMS_5,249,5,42,127,2011971076
1084,4,T1_SMS_5,250,1,48,42,2012456004
1084,4,T1_SMS_5,251,5,42,127,2012470624
1084,4,T1_SMS_5,252,5,42,127,2012971372
1084,4,T1_SMS_5,253,1,48,37,2012989372
1084,4,T1_SMS_5,254,1,48,37,2013461828
1084,4,T1_SMS_5,255,5,42,127,2013471136
1084,4,T1_SMS_5,256,1,48,43,2013952472
1084,4,T1_SMS_5,257,5,42,127,2013970832
1084,4,T1_SMS_5,258,1,48,42,2014458972
1084,4,T1_SMS_5,0,9999,9999,9999,1949468780
1084,4,T1_SMS_5,1,9999,9999,9999,1949968496
1084,4,T1_SMS_5,2,9999,9999,9999,1950468216
1084,4,T1_SMS_5,3,9999,9999,9999,1950968884
1084,4,T1_SMS_5,4,9999,9999,9999,1951468652
1084,4,T1_SMS_5,5,9999,9999,9999,1951968348
1084,4,T1_SMS_5,6,9999,9999,9999,1952469088
1084,4,T1_SMS_5,7,9999,9999,9999,1952968784
1084,4,T1_SMS_5,8,9999,9999,9999,1953468476
1084,4,T1_SMS_5,9,9999,9999,9999,1953968248
1084,4,T1_SMS_5,10,9999,9999,9999,1954468980
1084,4,T1_SMS_5,11,9999,9999,9999,1954968676
1084,4,T1_SMS_5,12,9999,9999,9999,1955468376
1084,4,T1_SMS_5,13,9999,9999,9999,1955968068
1084,4,T1_SMS_5,14,9999,9999,9999,1956468816
1084,4,T1_SMS_5,15,9999,9999,9999,1956968560
1084,4,T1_SMS_5,16,9999,9999,9999,1957468248
1084,4,T1_SMS_5,17,9999,9999,9999,1957968992
1084,4,T1_SMS_5,18,9999,9999,9999,1958468684
1084,4,T1_SMS_5,19,9999,9999,9999,1958968380
1084,4,T1_SMS_5,20,9999,9999,9999,1959468084
1084,4,T1_SMS_5,21,9999,9999,9999,1959968824
1084,4,T1_SMS_5,22,9999,9999,9999,1960468584
1084,4,T1_SMS_5,23,9999,9999,9999,1960968288
1084,4,T1_SMS_5,24,9999,9999,9999,1961469024
1084,4,T1_SMS_5,25,9999,9999,9999,1961968720
1084,4,T1_SMS_5,26,9999,9999,9999,1962468412
1084,4,T1_SMS_5,27,9999,9999,9999,1962968180
1084,4,T1_SMS_5,28,9999,9999,9999,1963468848
1084,4,T1_SMS_5,29,9999,9999,9999,1963968616
1084,4,T1_SMS_5,30,9999,9999,9999,1964468312
1084,4,T1_SMS_5,31,9999,9999,9999,1964969052
1084,4,T1_SMS_5,32,9999,9999,9999,1965468748
1084,4,T1_SMS_5,33,9999,9999,9999,1965968452
1084,4,T1_SMS_5,34,9999,9999,9999,1966468144
1084,4,T1_SMS_5,35,9999,9999,9999,1966968888
1084,4,T1_SMS_5,36,9999,9999,9999,1967468656
1084,4,T1_SMS_5,37,9999,9999,9999,1967968328
1084,4,T1_SMS_5,38,9999,9999,9999,1968469068
1084,4,T1_SMS_5,39,9999,9999,9999,1968968756
1084,4,T1_SMS_5,40,9999,9999,9999,1969468528
1084,4,T1_SMS_5,41,9999,9999,9999,1969968228
1084,4,T1_SMS_5,42,9999,9999,9999,1970468968
1084,4,T1_SMS_5,43,9999,9999,9999,1970968664
1084,4,T1_SMS_5,44,9999,9999,9999,1971468360
1084,4,T1_SMS_5,45,9999,9999,9999,1971968052
1084,4,T1_SMS_5,46,9999,9999,9999,1972468792
1084,4,T1_SMS_5,47,9999,9999,9999,1972968560
1084,4,T1_SMS_5,48,9999,9999,9999,1973468252
1084,4,T1_SMS_5,49,9999,9999,9999,1973968992
1084,4,T1_SMS_5,50,9999,9999,9999,1974468688
1084,4,T1_SMS_5,51,9999,9999,9999,1974968384
1084,4,T1_SMS_5,52,9999,9999,9999,1975468088
1084,4,T1_SMS_5,53,9999,9999,9999,1975968828
1084,4,T1_SMS_5,54,9999,9999,9999,1976468596
1084,4,T1_SMS_5,55,9999,9999,9999,1976968292
1084,4,T1_SMS_5,56,9999,9999,9999,1977469032
1084,4,T1_SMS_5,57,9999,9999,9999,1977968728
1084,4,T1_SMS_5,58,9999,9999,9999,1978468472
1084,4,T1_SMS_5,59,9999,9999,9999,1978968168
1084,4,T1_SMS_5,60,9999,9999,9999,1979468900
1084,4,T1_SMS_5,61,9999,9999,9999,1979968604
1084,4,T1_SMS_5,62,9999,9999,9999,1980468292
1084,4,T1_SMS_5,63,9999,9999,9999,1980969036
1084,4,T1_SMS_5,64,9999,9999,9999,1981468732
1084,4,T1_SMS_5,65,9999,9999,9999,1981968504
1084,4,T1_SMS_5,66,9999,9999,9999,1982468196
1084,4,T1_SMS_5,67,9999,9999,9999,1982968932
1084,4,T1_SMS_5,68,9999,9999,9999,1983468632
1084,4,T1_SMS_5,69,9999,9999,9999,1983968328
1084,4,T1_SMS_5,70,9999,9999,9999,1984469072
1084,4,T1_SMS_5,71,9999,9999,9999,1984968768
1084,4,T1_SMS_5,72,9999,9999,9999,1985468536
1084,4,T1_SMS_5,73,9999,9999,9999,1985968232
1084,4,T1_SMS_5,74,9999,9999,9999,1986468972
1084,4,T1_SMS_5,75,9999,9999,9999,1986968668
1084,4,T1_SMS_5,76,9999,9999,9999,1987468364
1084,4,T1_SMS_5,77,9999,9999,9999,1987968056
1084,4,T1_SMS_5,78,9999,9999,9999,1988468800
1084,4,T1_SMS_5,79,9999,9999,9999,1988968548
1084,4,T1_SMS_5,80,9999,9999,9999,1989468212
1084,4,T1_SMS_5,81,9999,9999,9999,1989968956
1084,4,T1_SMS_5,82,9999,9999,9999,1990468728
1084,4,T1_SMS_5,83,9999,9999,9999,1990968420
1084,4,T1_SMS_5,84,9999,9999,9999,1991468112
1084,4,T1_SMS_5,85,9999,9999,9999,1991968852
1084,4,T1_SMS_5,86,9999,9999,9999,1992468556
1084,4,T1_SMS_5,87,9999,9999,9999,1992968248
1084,4,T1_SMS_5,88,9999,9999,9999,1993468992
1084,4,T1_SMS_5,89,9999,9999,9999,1993968760
1084,4,T1_SMS_5,90,9999,9999,9999,1994468448
1084,4,T1_SMS_5,91,9999,9999,9999,1994968144
1084,4,T1_SMS_5,92,9999,9999,9999,1995468896
1084,4,T1_SMS_5,93,9999,9999,9999,1995968592
1084,4,T1_SMS_5,94,9999,9999,9999,1996468280
1084,4,T1_SMS_5,95,9999,9999,9999,1996969028
1084,4,T1_SMS_5,96,9999,9999,9999,1997468724
1084,4,T1_SMS_5,97,9999,9999,9999,1997968492
1084,4,T1_SMS_5,98,9999,9999,9999,1998468188
1084,4,T1_SMS_5,99,9999,9999,9999,1998968924
1084,4,T1_SMS_5,100,9999,9999,9999,1999468628
1084,4,T1_SMS_5,101,9999,9999,9999,1999968372
1084,4,T1_SMS_5,102,9999,9999,9999,2000469112
1084,4,T1_SMS_5,103,9999,9999,9999,2000968796
1084,4,T1_SMS_5,104,9999,9999,9999,2001468496
1084,4,T1_SMS_5,105,9999,9999,9999,2001968196
1084,4,T1_SMS_5,106,9999,9999,9999,2002468932
1084,4,T1_SMS_5,107,9999,9999,9999,2002968628
1084,4,T1_SMS_5,108,9999,9999,9999,2003468396
1084,4,T1_SMS_5,109,9999,9999,9999,2003968092
1084,4,T1_SMS_5,110,9999,9999,9999,2004468832
1084,4,T1_SMS_5,111,9999,9999,9999,2004968532
1084,4,T1_SMS_5,112,9999,9999,9999,2005468228
1084,4,T1_SMS_5,113,9999,9999,9999,2005968968
1084,4,T1_SMS_5,114,9999,9999,9999,2006468664
1084,4,T1_SMS_5,115,9999,9999,9999,2006968432
1084,4,T1_SMS_5,116,9999,9999,9999,2007468124
1084,4,T1_SMS_5,117,9999,9999,9999,2007968864
1084,4,T1_SMS_5,118,9999,9999,9999,2008468564
1084,4,T1_SMS_5,119,9999,9999,9999,2008968252
1084,4,T1_SMS_5,120,9999,9999,9999,2009469004
1084,4,T1_SMS_5,121,9999,9999,9999,2009968700
1084,4,T1_SMS_5,122,9999,9999,9999,2010468444
1084,4,T1_SMS_5,123,9999,9999,9999,2010968136
1084,4,T1_SMS_5,124,9999,9999,9999,2011468872
1084,4,T1_SMS_5,125,9999,9999,9999,2011968568
1084,4,T1_SMS_5,126,9999,9999,9999,2012468336
1084,4,T1_SMS_5,127,9999,9999,9999,2012969008
1084,4,T1_SMS_5,128,9999,9999,9999,2013468772
1084,4,T1_SMS_5,129,9999,9999,9999,2013968468
1085,9,Ticks_ISO_T2_8,0,5,42,127,2025372244
1085,9,Ticks_ISO_T2_8,1,5,42,127,2026171776
1085,9,Ticks_ISO_T2_8,2,5,42,127,2026971380
1085,9,Ticks_ISO_T2_8,3,1,48,46,2027034036
1085,9,Ticks_ISO_T2_8,4,1,48,50,2027757984
1085,9,Ticks_ISO_T2_8,5,5,42,127,2027772300
1085,9,Ticks_ISO_T2_8,6,5,42,127,2028572192
1085,9,Ticks_ISO_T2_8,7,1,48,44,2028594384
1085,9,Ticks_ISO_T2_8,8,5,42,127,2029372072
1085,9,Ticks_ISO_T2_8,9,1,48,51,2029390380
1085,9,Ticks_ISO_T2_8,10,5,42,127,2030171512
1085,9,Ticks_ISO_T2_8,11,1,48,52,2030195972
1085,9,Ticks_ISO_T2_8,12,5,42,127,2030972240
1085,9,Ticks_ISO_T2_8,13,1,48,49,2030997052
1085,9,Ticks_ISO_T2_8,14,5,42,127,2031771976
1085,9,Ticks_ISO_T2_8,15,1,48,53,2031817956
1085,9,Ticks_ISO_T2_8,16,1,48,47,2032564860
1085,9,Ticks_ISO_T2_8,17,5,42,127,2032571704
1085,9,Ticks_ISO_T2_8,18,1,48,47,2033352700
1085,9,Ticks_ISO_T2_8,19,5,42,127,2033371364
1085,9,Ticks_ISO_T2_8,20,1,48,48,2034154832
1085,9,Ticks_ISO_T2_8,21,5,42,127,2034172368
1085,9,Ticks_ISO_T2_8,22,1,48,43,2034925840
1085,9,Ticks_ISO_T2_8,23,5,42,127,2034972024
1085,9,Ticks_ISO_T2_8,24,1,48,51,2035756544
1085,9,Ticks_ISO_T2_8,25,5,42,127,2035771908
1085,9,Ticks_ISO_T2_8,26,1,48,49,2036559492
1085,9,Ticks_ISO_T2_8,27,5,42,127,2036571492
1085,9,Ticks_ISO_T2_8,28,5,42,127,2037372380
1085,9,Ticks_ISO_T2_8,29,1,48,48,2037384476
1085,9,Ticks_ISO_T2_8,30,1,48,47,2038164668
1085,9,Ticks_ISO_T2_8,31,5,42,127,2038172180
1085,9,Ticks_ISO_T2_8,32,5,42,127,2038971700
1085,9,Ticks_ISO_T2_8,33,1,48,46,2038999056
1085,9,Ticks_ISO_T2_8,34,1,48,49,2039750748
1085,9,Ticks_ISO_T2_8,35,5,42,127,2039771496
1085,9,Ticks_ISO_T2_8,36,5,42,127,2040572212
1085,9,Ticks_ISO_T2_8,37,1,48,52,2040581612
1085,9,Ticks_ISO_T2_8,38,5,42,127,2041372092
1085,9,Ticks_ISO_T2_8,39,1,48,48,2041400116
1085,9,Ticks_ISO_T2_8,40,1,48,50,2042134688
1085,9,Ticks_ISO_T2_8,41,5,42,127,2042171892
1085,9,Ticks_ISO_T2_8,42,5,42,127,2042971632
1085,9,Ticks_ISO_T2_8,43,1,48,46,2042976776
1085,9,Ticks_ISO_T2_8,44,1,48,48,2043769932
1085,9,Ticks_ISO_T2_8,45,5,42,127,2043772280
1085,9,Ticks_ISO_T2_8,46,1,48,40,2044528152
1085,9,Ticks_ISO_T2_8,47,5,42,127,2044572088
1085,9,Ticks_ISO_T2_8,48,5,42,127,2045371756
1085,9,Ticks_ISO_T2_8,49,1,48,47,2045375844
1085,9,Ticks_ISO_T2_8,50,1,48,40,2046146536
1085,9,Ticks_ISO_T2_8,51,5,42,127,2046171484
1085,9,Ticks_ISO_T2_8,52,1,48,33,2046966168
1085,9,Ticks_ISO_T2_8,53,5,42,127,2046972188
1085,9,Ticks_ISO_T2_8,54,5,42,127,2047772152
1085,9,Ticks_ISO_T2_8,55,1,48,36,2047803844
1085,9,Ticks_ISO_T2_8,56,5,42,127,2048571884
1085,9,Ticks_ISO_T2_8,57,1,48,33,2048631132
1085,9,Ticks_ISO_T2_8,58,1,48,42,2049350336
1085,9,Ticks_ISO_T2_8,59,5,42,127,2049371536
1085,9,Ticks_ISO_T2_8,60,1,48,36,2050172352
1085,9,Ticks_ISO_T2_8,61,5,42,127,2050173764
1085,9,Ticks_ISO_T2_8,62,1,48,35,2050954840
1085,9,Ticks_ISO_T2_8,63,5,42,127,2050972076
1085,9,Ticks_ISO_T2_8,64,1,48,43,2051740212
1085,9,Ticks_ISO_T2_8,65,5,42,127,2051771960
1085,9,Ticks_ISO_T2_8,66,1,48,43,2052571700
1085,9,Ticks_ISO_T2_8,67,5,42,127,2052573036
1085,9,Ticks_ISO_T2_8,68,5,42,127,2053372404
1085,9,Ticks_ISO_T2_8,69,1,48,44,2053379120
1085,9,Ticks_ISO_T2_8,70,5,42,127,2054171992
1085,9,Ticks_ISO_T2_8,71,1,48,43,2054173852
1085,9,Ticks_ISO_T2_8,72,1,48,47,2054945276
1085,9,Ticks_ISO_T2_8,73,5,42,127,2054971940
1085,9,Ticks_ISO_T2_8,74,5,42,127,2055771456
1085,9,Ticks_ISO_T2_8,75,1,48,57,2055787544
1085,9,Ticks_ISO_T2_8,76,5,42,127,2056572188
1085,9,Ticks_ISO_T2_8,77,1,48,51,2056595652
1085,9,Ticks_ISO_T2_8,78,1,48,46,2057370100
1085,9,Ticks_ISO_T2_8,79,5,42,127,2057371840
1085,9,Ticks_ISO_T2_8,80,5,42,127,2058171952
1085,9,Ticks_ISO_T2_8,81,1,48,47,2058205812
1085,9,Ticks_ISO_T2_8,82,1,48,42,2058939412
1085,9,Ticks_ISO_T2_8,83,5,42,127,2058971752
1085,9,Ticks_ISO_T2_8,84,1,48,35,2059764568
1085,9,Ticks_ISO_T2_8,85,5,42,127,2059772160
1085,9,Ticks_ISO_T2_8,86,5,42,127,2060571976
1085,9,Ticks_ISO_T2_8,87,1,48,46,2060592228
1085,9,Ticks_ISO_T2_8,88,1,48,48,2061364412
1085,9,Ticks_ISO_T2_8,89,5,42,127,2061371852
1085,9,Ticks_ISO_T2_8,90,1,48,46,2062171220
1085,9,Ticks_ISO_T2_8,91,5,42,127,2062172704
1085,9,Ticks_ISO_T2_8,92,1,48,42,2062959268
1085,9,Ticks_ISO_T2_8,93,5,42,127,2062972168
1085,9,Ticks_ISO_T2_8,94,1,48,41,2063756980
1085,9,Ticks_ISO_T2_8,95,5,42,127,2063771900
1085,9,Ticks_ISO_T2_8,96,1,48,50,2064517672
1085,9,Ticks_ISO_T2_8,97,5,42,127,2064571784
1085,9,Ticks_ISO_T2_8,98,1,48,52,2065369780
1085,9,Ticks_ISO_T2_8,99,5,42,127,2065371440
1085,9,Ticks_ISO_T2_8,100,1,48,44,2066149676
1085,9,Ticks_ISO_T2_8,101,5,42,127,2066172148
1085,9,Ticks_ISO_T2_8,102,1,48,53,2066945516
1085,9,Ticks_ISO_T2_8,103,5,42,127,2066971956
1085,9,Ticks_ISO_T2_8,104,1,48,43,2067749884
1085,9,Ticks_ISO_T2_8,105,5,42,127,2067771764
1085,9,Ticks_ISO_T2_8,106,1,48,44,2068568696
1085,9,Ticks_ISO_T2_8,107,5,42,127,2068571644
1085,9,Ticks_ISO_T2_8,108,1,48,53,2069334172
1085,9,Ticks_ISO_T2_8,109,5,42,127,2069372300
1085,9,Ticks_ISO_T2_8,110,5,42,127,2070172116
1085,9,Ticks_ISO_T2_8,111,1,48,46,2070179496
1085,9,Ticks_ISO_T2_8,112,1,48,49,2070965148
1085,9,Ticks_ISO_T2_8,113,5,42,127,2070971692
1085,9,Ticks_ISO_T2_8,114,5,42,127,2071771508
1085,9,Ticks_ISO_T2_8,115,1,48,43,2071776720
1085,9,Ticks_ISO_T2_8,116,5,42,127,2072572140
1085,9,Ticks_ISO_T2_8,117,1,48,41,2072619688
1085,9,Ticks_ISO_T2_8,118,5,42,127,2073371944
1085,9,Ticks_ISO_T2_8,119,1,48,45,2073377680
1085,9,Ticks_ISO_T2_8,120,1,48,44,2074144632
1085,9,Ticks_ISO_T2_8,121,5,42,127,2074171748
1085,9,Ticks_ISO_T2_8,122,1,48,49,2074942800
1085,9,Ticks_ISO_T2_8,123,5,42,127,2074971632
1085,9,Ticks_ISO_T2_8,124,1,48,43,2075727424
1085,9,Ticks_ISO_T2_8,125,5,42,127,2075772136
1085,9,Ticks_ISO_T2_8,126,5,42,127,2076571876
1085,9,Ticks_ISO_T2_8,127,1,48,37,2076599756
1085,9,Ticks_ISO_T2_8,128,1,48,40,2077347484
1085,9,Ticks_ISO_T2_8,129,5,42,127,2077371680
1085,9,Ticks_ISO_T2_8,130,1,48,40,2078156492
1085,9,Ticks_ISO_T2_8,131,5,42,127,2078171488
1085,9,Ticks_ISO_T2_8,132,1,48,44,2078960264
1085,9,Ticks_ISO_T2_8,133,5,42,127,2078972192
1085,9,Ticks_ISO_T2_8,134,5,42,127,2079772156
1085,9,Ticks_ISO_T2_8,135,1,48,39,2079783724
1085,9,Ticks_ISO_T2_8,136,1,48,43,2080526972
1085,9,Ticks_ISO_T2_8,137,5,42,127,2080571732
1085,9,Ticks_ISO_T2_8,138,1,48,37,2081370720
1085,9,Ticks_ISO_T2_8,139,5,42,127,2081372364
1085,9,Ticks_ISO_T2_8,140,1,48,46,2082167228
1085,9,Ticks_ISO_T2_8,141,5,42,127,2082172124
1085,9,Ticks_ISO_T2_8,142,1,48,46,2082963596
1085,9,Ticks_ISO_T2_8,143,5,42,127,2082972008
1085,9,Ticks_ISO_T2_8,144,5,42,127,2083771820
1085,9,Ticks_ISO_T2_8,145,1,48,46,2083778380
1085,9,Ticks_ISO_T2_8,146,5,42,127,2084571704
1085,9,Ticks_ISO_T2_8,147,1,48,47,2084612148
1085,9,Ticks_ISO_T2_8,148,5,42,127,2085372260
1085,9,Ticks_ISO_T2_8,149,1,48,46,2085375004
1085,9,Ticks_ISO_T2_8,150,1,48,45,2086150340
1085,9,Ticks_ISO_T2_8,151,5,42,127,2086171984
1085,9,Ticks_ISO_T2_8,152,1,48,46,2086920524
1085,9,Ticks_ISO_T2_8,153,5,42,127,2086971720
1085,9,Ticks_ISO_T2_8,154,1,48,38,2087672164
1085,9,Ticks_ISO_T2_8,155,5,42,127,2087772412
1085,9,Ticks_ISO_T2_8,156,1,48,39,2088549616
1085,9,Ticks_ISO_T2_8,157,5,42,127,2088572184
1085,9,Ticks_ISO_T2_8,158,1,48,32,2089357296
1085,9,Ticks_ISO_T2_8,159,5,42,127,2089371992
1085,9,Ticks_ISO_T2_8,160,5,42,127,2090171808
1085,9,Ticks_ISO_T2_8,161,1,48,43,2090195568
1085,9,Ticks_ISO_T2_8,162,5,42,127,2090971692
1085,9,Ticks_ISO_T2_8,163,1,48,37,2091009144
1085,9,Ticks_ISO_T2_8,164,1,48,47,2091751188
1085,9,Ticks_ISO_T2_8,165,5,42,127,2091772164
1085,9,Ticks_ISO_T2_8,166,1,48,43,2092515092
1085,9,Ticks_ISO_T2_8,167,5,42,127,2092571900
1085,9,Ticks_ISO_T2_8,168,1,48,39,2093335540
1085,9,Ticks_ISO_T2_8,169,5,42,127,2093371632
1085,9,Ticks_ISO_T2_8,170,1,48,40,2094165348
1085,9,Ticks_ISO_T2_8,171,5,42,127,2094171664
1085,9,Ticks_ISO_T2_8,172,1,48,40,2094903672
1085,9,Ticks_ISO_T2_8,173,5,42,127,2094972244
1085,9,Ticks_ISO_T2_8,174,1,48,46,2095707448
1085,9,Ticks_ISO_T2_8,175,5,42,127,2095771980
1085,9,Ticks_ISO_T2_8,176,1,48,37,2096481972
1085,9,Ticks_ISO_T2_8,177,1,48,28,2096532988
1085,9,Ticks_ISO_T2_8,178,5,42,127,2096571616
1085,9,Ticks_ISO_T2_8,179,5,42,127,2097371432
1085,9,Ticks_ISO_T2_8,180,1,48,21,2097425932
1085,9,Ticks_ISO_T2_8,181,5,42,127,2098172212
1085,9,Ticks_ISO_T2_8,182,1,48,43,2098205468
1085,9,Ticks_ISO_T2_8,183,5,42,127,2098972020
1085,9,Ticks_ISO_T2_8,184,1,48,44,2099029220
1085,9,Ticks_ISO_T2_8,185,5,42,127,2099771676
1085,9,Ticks_ISO_T2_8,186,1,48,47,2099779432
1085,9,Ticks_ISO_T2_8,187,5,42,127,2100571560
1085,9,Ticks_ISO_T2_8,188,1,48,43,2100607096
1085,9,Ticks_ISO_T2_8,189,1,48,34,2101366264
1085,9,Ticks_ISO_T2_8,190,5,42,127,2101372208
1085,9,Ticks_ISO_T2_8,191,5,42,127,2102172024
1085,9,Ticks_ISO_T2_8,192,1,48,47,2102173512
1085,9,Ticks_ISO_T2_8,193,1,48,46,2102939480
1085,9,Ticks_ISO_T2_8,194,5,42,127,2102971680
1085,9,Ticks_ISO_T2_8,195,1,48,43,2103757392
1085,9,Ticks_ISO_T2_8,196,5,42,127,2103771484
1085,9,Ticks_ISO_T2_8,197,1,48,37,2104537976
1085,9,Ticks_ISO_T2_8,198,5,42,127,2104572416
1085,9,Ticks_ISO_T2_8,199,1,48,40,2105335536
1085,9,Ticks_ISO_T2_8,200,5,42,127,2105372072
1085,9,Ticks_ISO_T2_8,201,1,48,44,2106148068
1085,9,Ticks_ISO_T2_8,202,5,42,127,2106171736
1085,9,Ticks_ISO_T2_8,203,1,48,40,2106920272
1085,9,Ticks_ISO_T2_8,204,5,42,127,2106971616
1085,9,Ticks_ISO_T2_8,205,5,42,127,2107772428
1085,9,Ticks_ISO_T2_8,206,1,48,44,2107780484
1085,9,Ticks_ISO_T2_8,207,5,42,127,2108571940
1085,9,Ticks_ISO_T2_8,208,1,48,45,2108588520
1085,9,Ticks_ISO_T2_8,209,1,48,46,2109344700
1085,9,Ticks_ISO_T2_8,210,5,42,127,2109371812
1085,9,Ticks_ISO_T2_8,211,1,48,44,2110158348
1085,9,Ticks_ISO_T2_8,212,5,42,127,2110171396
1085,9,Ticks_ISO_T2_8,213,1,48,43,2110969452
1085,9,Ticks_ISO_T2_8,214,5,42,127,2110972548
1085,9,Ticks_ISO_T2_8,215,1,48,43,2111729540
1085,9,Ticks_ISO_T2_8,216,5,42,127,2111772060
1085,9,Ticks_ISO_T2_8,217,1,48,46,2112519028
1085,9,Ticks_ISO_T2_8,218,5,42,127,2112571644
1085,9,Ticks_ISO_T2_8,219,5,42,127,2113371532
1085,9,Ticks_ISO_T2_8,220,1,48,49,2113377648
1085,9,Ticks_ISO_T2_8,221,5,42,127,2114172340
1085,9,Ticks_ISO_T2_8,222,1,48,39,2114184956
1085,9,Ticks_ISO_T2_8,223,1,48,45,2114940320
1085,9,Ticks_ISO_T2_8,224,5,42,127,2114971920
1085,9,Ticks_ISO_T2_8,225,5,42,127,2115771808
1085,9,Ticks_ISO_T2_8,226,1,48,39,2115783600
1085,9,Ticks_ISO_T2_8,227,1,48,43,2116552880
1085,9,Ticks_ISO_T2_8,228,5,42,127,2116571684
1085,9,Ticks_ISO_T2_8,229,1,48,44,2117325908
1085,9,Ticks_ISO_T2_8,230,5,42,127,2117372388
1085,9,Ticks_ISO_T2_8,231,1,48,33,2118156388
1085,9,Ticks_ISO_T2_8,232,5,42,127,2118172124
1085,9,Ticks_ISO_T2_8,233,5,42,127,2118971716
1085,9,Ticks_ISO_T2_8,234,1,48,38,2118988152
1085,9,Ticks_ISO_T2_8,235,5,42,127,2119771520
1085,9,Ticks_ISO_T2_8,236,1,48,41,2119774564
1085,9,Ticks_ISO_T2_8,237,1,48,43,2120565476
1085,9,Ticks_ISO_T2_8,238,5,42,127,2120572392
1085,9,Ticks_ISO_T2_8,239,1,48,40,2121312080
1085,9,Ticks_ISO_T2_8,0,9999,9999,9999,2025369656
1085,9,Ticks_ISO_T2_8,1,9999,9999,9999,2026169412
1085,9,Ticks_ISO_T2_8,2,9999,9999,9999,2026969168
1085,9,Ticks_ISO_T2_8,3,9999,9999,9999,2027769940
1085,9,Ticks_ISO_T2_8,4,9999,9999,9999,2028569680
1085,9,Ticks_ISO_T2_8,5,9999,9999,9999,2029369412
1085,9,Ticks_ISO_T2_8,6,9999,9999,9999,2030169148
1085,9,Ticks_ISO_T2_8,7,9999,9999,9999,2030969952
1085,9,Ticks_ISO_T2_8,8,9999,9999,9999,2031769684
1085,9,Ticks_ISO_T2_8,9,9999,9999,9999,2032569416
1085,9,Ticks_ISO_T2_8,10,9999,9999,9999,2033369148
1085,9,Ticks_ISO_T2_8,11,9999,9999,9999,2034169928
1085,9,Ticks_ISO_T2_8,12,9999,9999,9999,2034969664
1085,9,Ticks_ISO_T2_8,13,9999,9999,9999,2035769396
1085,9,Ticks_ISO_T2_8,14,9999,9999,9999,2036569204
1085,9,Ticks_ISO_T2_8,15,9999,9999,9999,2037369940
1085,9,Ticks_ISO_T2_8,16,9999,9999,9999,2038169668
1085,9,Ticks_ISO_T2_8,17,9999,9999,9999,2038969408
1085,9,Ticks_ISO_T2_8,18,9999,9999,9999,2039769136
1085,9,Ticks_ISO_T2_8,19,9999,9999,9999,2040569924
1085,9,Ticks_ISO_T2_8,20,9999,9999,9999,2041369656
1085,9,Ticks_ISO_T2_8,21,9999,9999,9999,2042169456
1085,9,Ticks_ISO_T2_8,22,9999,9999,9999,2042969196
1085,9,Ticks_ISO_T2_8,23,9999,9999,9999,2043769992
1085,9,Ticks_ISO_T2_8,24,9999,9999,9999,2044569652
1085,9,Ticks_ISO_T2_8,25,9999,9999,9999,2045369392
1085,9,Ticks_ISO_T2_8,26,9999,9999,9999,2046169196
1085,9,Ticks_ISO_T2_8,27,9999,9999,9999,2046969900
1085,9,Ticks_ISO_T2_8,28,9999,9999,9999,2047769716
1085,9,Ticks_ISO_T2_8,29,9999,9999,9999,2048569448
1085,9,Ticks_ISO_T2_8,30,9999,9999,9999,2049369176
1085,9,Ticks_ISO_T2_8,31,9999,9999,9999,2050169912
1085,9,Ticks_ISO_T2_8,32,9999,9999,9999,2050969716
1085,9,Ticks_ISO_T2_8,33,9999,9999,9999,2051769448
1085,9,Ticks_ISO_T2_8,34,9999,9999,9999,2052569188
1085,9,Ticks_ISO_T2_8,35,9999,9999,9999,2053369968
1085,9,Ticks_ISO_T2_8,36,9999,9999,9999,2054169704
1085,9,Ticks_ISO_T2_8,37,9999,9999,9999,2054969428
1085,9,Ticks_ISO_T2_8,38,9999,9999,9999,2055769168
1085,9,Ticks_ISO_T2_8,39,9999,9999,9999,2056569972
1085,9,Ticks_ISO_T2_8,40,9999,9999,9999,2057369648
1085,9,Ticks_ISO_T2_8,41,9999,9999,9999,2058169440
1085,9,Ticks_ISO_T2_8,42,9999,9999,9999,2058969168
1085,9,Ticks_ISO_T2_8,43,9999,9999,9999,2059769948
1085,9,Ticks_ISO_T2_8,44,9999,9999,9999,2060569688
1085,9,Ticks_ISO_T2_8,45,9999,9999,9999,2061369412
1085,9,Ticks_ISO_T2_8,46,9999,9999,9999,2062169152
1085,9,Ticks_ISO_T2_8,47,9999,9999,9999,2062969952
1085,9,Ticks_ISO_T2_8,48,9999,9999,9999,2063769688
1085,9,Ticks_ISO_T2_8,49,9999,9999,9999,2064569420
1085,9,Ticks_ISO_T2_8,50,9999,9999,9999,2065369176
1085,9,Ticks_ISO_T2_8,51,9999,9999,9999,2066169936
1085,9,Ticks_ISO_T2_8,52,9999,9999,9999,2066969668
1085,9,Ticks_ISO_T2_8,53,9999,9999,9999,2067769400
1085,9,Ticks_ISO_T2_8,54,9999,9999,9999,2068569136
1085,9,Ticks_ISO_T2_8,55,9999,9999,9999,2069369936
1085,9,Ticks_ISO_T2_8,56,9999,9999,9999,2070169676
1085,9,Ticks_ISO_T2_8,57,9999,9999,9999,2070969404
1085,9,Ticks_ISO_T2_8,58,9999,9999,9999,2071769144
1085,9,Ticks_ISO_T2_8,59,9999,9999,9999,2072569924
1085,9,Ticks_ISO_T2_8,60,9999,9999,9999,2073369656
1085,9,Ticks_ISO_T2_8,61,9999,9999,9999,2074169460
1085,9,Ticks_ISO_T2_8,62,9999,9999,9999,2074969196
1085,9,Ticks_ISO_T2_8,63,9999,9999,9999,2075769924
1085,9,Ticks_ISO_T2_8,64,9999,9999,9999,2076569664
1085,9,Ticks_ISO_T2_8,65,9999,9999,9999,2077369388
1085,9,Ticks_ISO_T2_8,66,9999,9999,9999,2078169200
1085,9,Ticks_ISO_T2_8,67,9999,9999,9999,2078969904
1085,9,Ticks_ISO_T2_8,68,9999,9999,9999,2079769720
1085,9,Ticks_ISO_T2_8,69,9999,9999,9999,2080569444
1085,9,Ticks_ISO_T2_8,70,9999,9999,9999,2081369184
1085,9,Ticks_ISO_T2_8,71,9999,9999,9999,2082169912
1085,9,Ticks_ISO_T2_8,72,9999,9999,9999,2082969720
1085,9,Ticks_ISO_T2_8,73,9999,9999,9999,2083769456
1085,9,Ticks_ISO_T2_8,74,9999,9999,9999,2084569192
1085,9,Ticks_ISO_T2_8,75,9999,9999,9999,2085369972
1085,9,Ticks_ISO_T2_8,76,9999,9999,9999,2086169700
1085,9,Ticks_ISO_T2_8,77,9999,9999,9999,2086969432
1085,9,Ticks_ISO_T2_8,78,9999,9999,9999,2087769164
1085,9,Ticks_ISO_T2_8,79,9999,9999,9999,2088569972
1085,9,Ticks_ISO_T2_8,80,9999,9999,9999,2089369704
1085,9,Ticks_ISO_T2_8,81,9999,9999,9999,2090169444
1085,9,Ticks_ISO_T2_8,82,9999,9999,9999,2090969180
1085,9,Ticks_ISO_T2_8,83,9999,9999,9999,2091769952
1085,9,Ticks_ISO_T2_8,84,9999,9999,9999,2092569684
1085,9,Ticks_ISO_T2_8,85,9999,9999,9999,2093369420
1085,9,Ticks_ISO_T2_8,86,9999,9999,9999,2094169152
1085,9,Ticks_ISO_T2_8,87,9999,9999,9999,2094969960
1085,9,Ticks_ISO_T2_8,88,9999,9999,9999,2095769692
1085,9,Ticks_ISO_T2_8,89,9999,9999,9999,2096569404
1085,9,Ticks_ISO_T2_8,90,9999,9999,9999,2097369144
1085,9,Ticks_ISO_T2_8,91,9999,9999,9999,2098169924
1085,9,Ticks_ISO_T2_8,92,9999,9999,9999,2098969656
1085,9,Ticks_ISO_T2_8,93,9999,9999,9999,2099769464
1085,9,Ticks_ISO_T2_8,94,9999,9999,9999,2100569196
1085,9,Ticks_ISO_T2_8,95,9999,9999,9999,2101369920
1085,9,Ticks_ISO_T2_8,96,9999,9999,9999,2102169660
1085,9,Ticks_ISO_T2_8,97,9999,9999,9999,2102969392
1085,9,Ticks_ISO_T2_8,98,9999,9999,9999,2103769196
1085,9,Ticks_ISO_T2_8,99,9999,9999,9999,2104569904
1085,9,Ticks_ISO_T2_8,100,9999,9999,9999,2105369712
1085,9,Ticks_ISO_T2_8,101,9999,9999,9999,2106169448
1085,9,Ticks_ISO_T2_8,102,9999,9999,9999,2106969180
1085,9,Ticks_ISO_T2_8,103,9999,9999,9999,2107769916
1085,9,Ticks_ISO_T2_8,104,9999,9999,9999,2108569648
1085,9,Ticks_ISO_T2_8,105,9999,9999,9999,2109369452
1085,9,Ticks_ISO_T2_8,106,9999,9999,9999,2110169184
1085,9,Ticks_ISO_T2_8,107,9999,9999,9999,2110969964
1085,9,Ticks_ISO_T2_8,108,9999,9999,9999,2111769696
1085,9,Ticks_ISO_T2_8,109,9999,9999,9999,2112569432
1085,9,Ticks_ISO_T2_8,110,9999,9999,9999,2113369172
1085,9,Ticks_ISO_T2_8,111,9999,9999,9999,2114169900
1085,9,Ticks_ISO_T2_8,112,9999,9999,9999,2114969704
1085,9,Ticks_ISO_T2_8,113,9999,9999,9999,2115769444
1085,9,Ticks_ISO_T2_8,114,9999,9999,9999,2116569172
1085,9,Ticks_ISO_T2_8,115,9999,9999,9999,2117369952
1085,9,Ticks_ISO_T2_8,116,9999,9999,9999,2118169688
1085,9,Ticks_ISO_T2_8,117,9999,9999,9999,2118969428
1085,9,Ticks_ISO_T2_8,118,9999,9999,9999,2119769160
1085,9,Ticks_ISO_T2_8,119,9999,9999,9999,2120569956
1086,10,Ticks_ISO_T2_5,0,5,42,127,2130704636
1086,10,Ticks_ISO_T2_5,1,5,42,127,2131204576
1086,10,Ticks_ISO_T2_5,2,5,42,127,2131705340
1086,10,Ticks_ISO_T2_5,3,1,48,42,2131732920
1086,10,Ticks_ISO_T2_5,4,5,42,127,2132204960
1086,10,Ticks_ISO_T2_5,5,1,48,40,2132208080
1086,10,Ticks_ISO_T2_5,6,5,42,127,2132704580
1086,10,Ticks_ISO_T2_5,7,1,48,45,2132708296
1086,10,Ticks_ISO_T2_5,8,1,48,46,2133193608
1086,10,Ticks_ISO_T2_5,9,5,42,127,2133205388
1086,10,Ticks_ISO_T2_5,10,5,42,127,2133705236
1086,10,Ticks_ISO_T2_5,11,1,48,43,2133721300
1086,10,Ticks_ISO_T2_5,12,1,48,49,2134203504
1086,10,Ticks_ISO_T2_5,13,5,42,127,2134204924
1086,10,Ticks_ISO_T2_5,14,5,42,127,2134704404
1086,10,Ticks_ISO_T2_5,15,1,48,44,2134707376
1086,10,Ticks_ISO_T2_5,16,1,48,47,2135184612
1086,10,Ticks_ISO_T2_5,17,5,42,127,2135205436
1086,10,Ticks_ISO_T2_5,18,5,42,127,2135704912
1086,10,Ticks_ISO_T2_5,19,1,48,45,2135706252
1086,10,Ticks_ISO_T2_5,20,5,42,127,2136204608
1086,10,Ticks_ISO_T2_5,21,1,48,42,2136222016
1086,10,Ticks_ISO_T2_5,22,5,42,127,2136705424
1086,10,Ticks_ISO_T2_5,23,1,48,47,2136708324
1086,10,Ticks_ISO_T2_5,24,5,42,127,2137205268
1086,10,Ticks_ISO_T2_5,25,1,48,43,2137221332
1086,10,Ticks_ISO_T2_5,26,5,42,127,2137704816
1086,10,Ticks_ISO_T2_5,27,1,48,43,2137735832
1086,10,Ticks_ISO_T2_5,28,5,42,127,2138204412
1086,10,Ticks_ISO_T2_5,29,1,48,43,2138218628
1086,10,Ticks_ISO_T2_5,30,5,42,127,2138705376
1086,10,Ticks_ISO_T2_5,31,1,48,38,2138715156
1086,10,Ticks_ISO_T2_5,32,5,42,127,2139204920
1086,10,Ticks_ISO_T2_5,33,1,48,41,2139224420
1086,10,Ticks_ISO_T2_5,34,5,42,127,2139704540
1086,10,Ticks_ISO_T2_5,35,1,48,40,2139753908
1086,10,Ticks_ISO_T2_5,36,5,42,127,2140205432
1086,10,Ticks_ISO_T2_5,37,1,48,33,2140208404
1086,10,Ticks_ISO_T2_5,38,5,42,127,2140705348
1086,10,Ticks_ISO_T2_5,39,1,48,38,2140712432
1086,10,Ticks_ISO_T2_5,40,1,48,44,2141203076
1086,10,Ticks_ISO_T2_5,41,5,42,127,2141204812
1086,10,Ticks_ISO_T2_5,42,1,48,40,2141693476
1086,10,Ticks_ISO_T2_5,43,5,42,127,2141704432
1086,10,Ticks_ISO_T2_5,44,1,48,46,2142188312
1086,10,Ticks_ISO_T2_5,45,5,42,127,2142205248
1086,10,Ticks_ISO_T2_5,46,1,48,49,2142689948
1086,10,Ticks_ISO_T2_5,47,5,42,127,2142705164
1086,10,Ticks_ISO_T2_5,48,1,48,50,2143161296
1086,10,Ticks_ISO_T2_5,49,5,42,127,2143204712
1086,10,Ticks_ISO_T2_5,50,1,48,43,2143692552
1086,10,Ticks_ISO_T2_5,51,5,42,127,2143704408
1086,10,Ticks_ISO_T2_5,52,5,42,127,2144205452
1086,10,Ticks_ISO_T2_5,53,1,48,46,2144210820
1086,10,Ticks_ISO_T2_5,54,5,42,127,2144705076
1086,10,Ticks_ISO_T2_5,55,1,48,40,2144728768
1086,10,Ticks_ISO_T2_5,56,5,42,127,2145204548
1086,10,Ticks_ISO_T2_5,57,1,48,38,2145208040
1086,10,Ticks_ISO_T2_5,58,1,48,44,2145700684
1086,10,Ticks_ISO_T2_5,59,5,42,127,2145705432
1086,10,Ticks_ISO_T2_5,60,1,48,41,2146195596
1086,10,Ticks_ISO_T2_5,61,5,42,127,2146205200
1086,10,Ticks_ISO_T2_5,62,5,42,127,2146704752
1086,10,Ticks_ISO_T2_5,63,1,48,49,2146722160
1086,10,Ticks_ISO_T2_5,64,5,42,127,2147204448
1086,10,Ticks_ISO_T2_5,65,1,48,44,2147216548
1086,10,Ticks_ISO_T2_5,66,1,48,46,2147682160
1086,10,Ticks_ISO_T2_5,67,5,42,127,2147705108
1086,10,Ticks_ISO_T2_5,68,5,42,127,2148204884
1086,10,Ticks_ISO_T2_5,69,1,48,46,2148221020
1086,10,Ticks_ISO_T2_5,70,5,42,127,2148704480
1086,10,Ticks_ISO_T2_5,71,1,48,42,2148722060
1086,10,Ticks_ISO_T2_5,72,5,42,127,2149205292
1086,10,Ticks_ISO_T2_5,73,1,48,46,2149214696
1086,10,Ticks_ISO_T2_5,74,5,42,127,2149705212
1086,10,Ticks_ISO_T2_5,75,1,48,44,2149725908
1086,10,Ticks_ISO_T2_5,76,1,48,44,2150204760
1086,10,Ticks_ISO_T2_5,77,5,42,127,2150206020
1086,10,Ticks_ISO_T2_5,78,1,48,40,2150691472
1086,10,Ticks_ISO_T2_5,79,5,42,127,2150704372
1086,10,Ticks_ISO_T2_5,80,1,48,42,2151201116
1086,10,Ticks_ISO_T2_5,81,5,42,127,2151205264
1086,10,Ticks_ISO_T2_5,82,5,42,127,2151704892
1086,10,Ticks_ISO_T2_5,83,1,48,46,2151716016
1086,10,Ticks_ISO_T2_5,84,5,42,127,2152204660
1086,10,Ticks_ISO_T2_5,85,1,48,46,2152205700
1086,10,Ticks_ISO_T2_5,86,5,42,127,2152705476
1086,10,Ticks_ISO_T2_5,87,1,48,43,2152730140
1086,10,Ticks_ISO_T2_5,88,1,48,45,2153188752
1086,10,Ticks_ISO_T2_5,89,5,42,127,2153205088
1086,10,Ticks_ISO_T2_5,90,1,48,47,2153692104
1086,10,Ticks_ISO_T2_5,91,5,42,127,2153704784
1086,10,Ticks_ISO_T2_5,92,5,42,127,2154204484
1086,10,Ticks_ISO_T2_5,93,1,48,45,2154215084
1086,10,Ticks_ISO_T2_5,94,1,48,43,2154688808
1086,10,Ticks_ISO_T2_5,95,5,42,127,2154705220
1086,10,Ticks_ISO_T2_5,96,1,48,47,2155204092
1086,10,Ticks_ISO_T2_5,97,5,42,127,2155205664
1086,10,Ticks_ISO_T2_5,98,5,42,127,2155704616
1086,10,Ticks_ISO_T2_5,99,1,48,49,2155728908
1086,10,Ticks_ISO_T2_5,100,1,48,47,2156205284
1086,10,Ticks_ISO_T2_5,101,5,42,127,2156206552
1086,10,Ticks_ISO_T2_5,102,5,42,127,2156705128
1086,10,Ticks_ISO_T2_5,103,1,48,43,2156712140
1086,10,Ticks_ISO_T2_5,104,1,48,49,2157170976
1086,10,Ticks_ISO_T2_5,105,5,42,127,2157204888
1086,10,Ticks_ISO_T2_5,106,5,42,127,2157704516
1086,10,Ticks_ISO_T2_5,107,1,48,44,2157710928
1086,10,Ticks_ISO_T2_5,108,1,48,43,2158186600
1086,10,Ticks_ISO_T2_5,109,5,42,127,2158205328
1086,10,Ticks_ISO_T2_5,110,5,42,127,2158705028
1086,10,Ticks_ISO_T2_5,111,1,48,39,2158721832
1086,10,Ticks_ISO_T2_5,112,5,42,127,2159204648
1086,10,Ticks_ISO_T2_5,113,1,48,44,2159205612
1086,10,Ticks_ISO_T2_5,114,5,42,127,2159704316
1086,10,Ticks_ISO_T2_5,115,1,48,43,2159708932
1086,10,Ticks_ISO_T2_5,116,1,48,45,2160186396
1086,10,Ticks_ISO_T2_5,117,5,42,127,2160205052
1086,10,Ticks_ISO_T2_5,118,5,42,127,2160704976
1086,10,Ticks_ISO_T2_5,119,1,48,39,2160709144
1086,10,Ticks_ISO_T2_5,120,5,42,127,2161204520
1086,10,Ticks_ISO_T2_5,121,1,48,46,2161216620
1086,10,Ticks_ISO_T2_5,122,1,48,40,2161692652
1086,10,Ticks_ISO_T2_5,123,5,42,127,2161705256
1086,10,Ticks_ISO_T2_5,124,5,42,127,2162205104
1086,10,Ticks_ISO_T2_5,125,1,48,42,2162228276
1086,10,Ticks_ISO_T2_5,126,5,42,127,2162704724
1086,10,Ticks_ISO_T2_5,127,1,48,43,2162731852
1086,10,Ticks_ISO_T2_5,128,1,48,43,2163192484
1086,10,Ticks_ISO_T2_5,129,5,42,127,2163204560
1086,10,Ticks_ISO_T2_5,130,1,48,41,2163678044
1086,10,Ticks_ISO_T2_5,131,5,42,127,2163705228
1086,10,Ticks_ISO_T2_5,132,5,42,127,2164204932
1086,10,Ticks_ISO_T2_5,133,1,48,49,2164238044
1086,10,Ticks_ISO_T2_5,134,1,48,45,2164701144
1086,10,Ticks_ISO_T2_5,135,5,42,127,2164704544
1086,10,Ticks_ISO_T2_5,136,5,42,127,2165205220
1086,10,Ticks_ISO_T2_5,137,1,48,45,2165212972
1086,10,Ticks_ISO_T2_5,138,1,48,44,2165699412
1086,10,Ticks_ISO_T2_5,139,5,42,127,2165705128
1086,10,Ticks_ISO_T2_5,140,1,48,41,2166204608
1086,10,Ticks_ISO_T2_5,141,5,42,127,2166206168
1086,10,Ticks_ISO_T2_5,142,1,48,43,2166701568
1086,10,Ticks_ISO_T2_5,143,5,42,127,2166704444
1086,10,Ticks_ISO_T2_5,144,1,48,44,2167172840
1086,10,Ticks_ISO_T2_5,145,5,42,127,2167205260
1086,10,Ticks_ISO_T2_5,146,1,48,47,2167691908
1086,10,Ticks_ISO_T2_5,147,5,42,127,2167705028
1086,10,Ticks_ISO_T2_5,148,5,42,127,2168204584
1086,10,Ticks_ISO_T2_5,149,1,48,47,2168215780
1086,10,Ticks_ISO_T2_5,150,1,48,47,2168704268
1086,10,Ticks_ISO_T2_5,151,5,42,127,2168705616
1086,10,Ticks_ISO_T2_5,152,1,48,39,2169196756
1086,10,Ticks_ISO_T2_5,153,5,42,127,2169205164
1086,10,Ticks_ISO_T2_5,154,1,48,48,2169699668
1086,10,Ticks_ISO_T2_5,155,5,42,127,2169705008
1086,10,Ticks_ISO_T2_5,156,5,42,127,2170204460
1086,10,Ticks_ISO_T2_5,157,1,48,43,2170219948
1086,10,Ticks_ISO_T2_5,158,1,48,49,2170682272
1086,10,Ticks_ISO_T2_5,159,5,42,127,2170705272
1086,10,Ticks_ISO_T2_5,160,1,48,48,2171198952
1086,10,Ticks_ISO_T2_5,161,5,42,127,2171204892
1086,10,Ticks_ISO_T2_5,162,5,42,127,2171704816
1086,10,Ticks_ISO_T2_5,163,1,48,46,2171706300
1086,10,Ticks_ISO_T2_5,164,1,48,41,2172190788
1086,10,Ticks_ISO_T2_5,165,5,42,127,2172205552
1086,10,Ticks_ISO_T2_5,166,5,42,127,2172705180
1086,10,Ticks_ISO_T2_5,167,1,48,42,2172725428
1086,10,Ticks_ISO_T2_5,168,5,42,127,2173205020
1086,10,Ticks_ISO_T2_5,169,1,48,40,2173228264
1086,10,Ticks_ISO_T2_5,170,1,48,46,2173692412
1086,10,Ticks_ISO_T2_5,171,5,42,127,2173704488
1086,10,Ticks_ISO_T2_5,172,5,42,127,2174205308
1086,10,Ticks_ISO_T2_5,173,1,48,34,2174222644
1086,10,Ticks_ISO_T2_5,174,5,42,127,2174705228
1086,10,Ticks_ISO_T2_5,175,1,48,44,2174742304
1086,10,Ticks_ISO_T2_5,176,5,42,127,2175204996
1086,10,Ticks_ISO_T2_5,177,1,48,41,2175205964
1086,10,Ticks_ISO_T2_5,178,5,42,127,2175704396
1086,10,Ticks_ISO_T2_5,179,1,48,44,2175725016
1086,10,Ticks_ISO_T2_5,180,5,42,127,2176205060
1086,10,Ticks_ISO_T2_5,181,1,48,47,2176213860
1086,10,Ticks_ISO_T2_5,182,5,42,127,2176705052
1086,10,Ticks_ISO_T2_5,183,1,48,39,2176711840
1086,10,Ticks_ISO_T2_5,184,5,42,127,2177204524
1086,10,Ticks_ISO_T2_5,185,1,48,43,2177213176
1086,10,Ticks_ISO_T2_5,186,1,48,50,2177701040
1086,10,Ticks_ISO_T2_5,187,5,42,127,2177705260
1086,10,Ticks_ISO_T2_5,188,1,48,43,2178197892
1086,10,Ticks_ISO_T2_5,189,5,42,127,2178205176
1086,10,Ticks_ISO_T2_5,190,1,48,44,2178692500
1086,10,Ticks_ISO_T2_5,191,5,42,127,2178705020
1086,10,Ticks_ISO_T2_5,192,5,42,127,2179204352
1086,10,Ticks_ISO_T2_5,193,1,48,42,2179210012
1086,10,Ticks_ISO_T2_5,194,1,48,47,2179679300
1086,10,Ticks_ISO_T2_5,195,5,42,127,2179705308
1086,10,Ticks_ISO_T2_5,196,5,42,127,2180205084
1086,10,Ticks_ISO_T2_5,197,1,48,38,2180235656
1086,10,Ticks_ISO_T2_5,198,5,42,127,2180704832
1086,10,Ticks_ISO_T2_5,199,1,48,32,2180740268
1086,10,Ticks_ISO_T2_5,200,5,42,127,2181205544
1086,10,Ticks_ISO_T2_5,201,1,48,29,2181211880
1086,10,Ticks_ISO_T2_5,202,1,48,44,2181688148
1086,10,Ticks_ISO_T2_5,203,5,42,127,2181705012
1086,10,Ticks_ISO_T2_5,204,5,42,127,2182204936
1086,10,Ticks_ISO_T2_5,205,1,48,37,2182257300
1086,10,Ticks_ISO_T2_5,206,5,42,127,2182704404
1086,10,Ticks_ISO_T2_5,207,1,48,39,2182705372
1086,10,Ticks_ISO_T2_5,208,1,48,40,2183192692
1086,10,Ticks_ISO_T2_5,209,5,42,127,2183205140
1086,10,Ticks_ISO_T2_5,210,1,48,44,2183700460
1086,10,Ticks_ISO_T2_5,211,5,42,127,2183705132
1086,10,Ticks_ISO_T2_5,212,1,48,40,2184183928
1086,10,Ticks_ISO_T2_5,213,5,42,127,2184204828
1086,10,Ticks_ISO_T2_5,214,1,48,40,2184677040
1086,10,Ticks_ISO_T2_5,215,5,42,127,2184705344
1086,10,Ticks_ISO_T2_5,216,1,48,44,2185154816
1086,10,Ticks_ISO_T2_5,217,5,42,127,2185205040
1086,10,Ticks_ISO_T2_5,218,1,48,48,2185625864
1086,10,Ticks_ISO_T2_5,219,5,42,127,2185705032
1086,10,Ticks_ISO_T2_5,220,1,48,43,2186148900
1086,10,Ticks_ISO_T2_5,221,5,42,127,2186204652
1086,10,Ticks_ISO_T2_5,222,1,48,44,2186631388
1086,10,Ticks_ISO_T2_5,223,5,42,127,2186705244
1086,10,Ticks_ISO_T2_5,224,1,48,40,2187160548
1086,10,Ticks_ISO_T2_5,225,5,42,127,2187204940
1086,10,Ticks_ISO_T2_5,226,1,48,28,2187690388
1086,10,Ticks_ISO_T2_5,227,5,42,127,2187704856
1086,10,Ticks_ISO_T2_5,228,5,42,127,2188205528
1086,10,Ticks_ISO_T2_5,229,1,48,27,2188219344
1086,10,Ticks_ISO_T2_5,230,5,42,127,2188705224
1086,10,Ticks_ISO_T2_5,231,1,48,35,2188720012
1086,10,Ticks_ISO_T2_5,232,5,42,127,2189204920
1086,10,Ticks_ISO_T2_5,233,1,48,35,2189212904
1086,10,Ticks_ISO_T2_5,234,1,48,39,2189677652
1086,10,Ticks_ISO_T2_5,235,5,42,127,2189704684
1086,10,Ticks_ISO_T2_5,236,5,42,127,2190205356
1086,10,Ticks_ISO_T2_5,237,1,48,29,2190212220
1086,10,Ticks_ISO_T2_5,238,1,48,38,2190670956
1086,10,Ticks_ISO_T2_5,239,5,42,127,2190705116
1086,10,Ticks_ISO_T2_5,240,1,48,38,2191176332
1086,10,Ticks_ISO_T2_5,241,5,42,127,2191204812
1086,10,Ticks_ISO_T2_5,242,5,42,127,2191704416
1086,10,Ticks_ISO_T2_5,243,1,48,39,2191706936
1086,10,Ticks_ISO_T2_5,244,1,48,41,2192168468
1086,10,Ticks_ISO_T2_5,245,5,42,127,2192205148
1086,10,Ticks_ISO_T2_5,246,1,48,40,2192671080
1086,10,Ticks_ISO_T2_5,247,5,42,127,2192704844
1086,10,Ticks_ISO_T2_5,248,1,48,44,2193203792
1086,10,Ticks_ISO_T2_5,249,5,42,127,2193205364
1086,10,Ticks_ISO_T2_5,250,5,42,127,2193705216
1086,10,Ticks_ISO_T2_5,251,1,48,42,2193714088
1086,10,Ticks_ISO_T2_5,252,1,48,42,2194195144
1086,10,Ticks_ISO_T2_5,253,5,42,127,2194204976
1086,10,Ticks_ISO_T2_5,254,1,48,38,2194693420
1086,10,Ticks_ISO_T2_5,255,5,42,127,2194704820
1086,10,Ticks_ISO_T2_5,256,1,48,40,2195172916
1086,10,Ticks_ISO_T2_5,257,5,42,127,2195204516
1086,10,Ticks_ISO_T2_5,258,1,48,40,2195696320
1086,10,Ticks_ISO_T2_5,0,9999,9999,9999,2130702424
1086,10,Ticks_ISO_T2_5,1,9999,9999,9999,2131202140
1086,10,Ticks_ISO_T2_5,2,9999,9999,9999,2131702904
1086,10,Ticks_ISO_T2_5,3,9999,9999,9999,2132202600
1086,10,Ticks_ISO_T2_5,4,9999,9999,9999,2132702292
1086,10,Ticks_ISO_T2_5,5,9999,9999,9999,2133203028
1086,10,Ticks_ISO_T2_5,6,9999,9999,9999,2133702728
1086,10,Ticks_ISO_T2_5,7,9999,9999,9999,2134202424
1086,10,Ticks_ISO_T2_5,8,9999,9999,9999,2134702192
1086,10,Ticks_ISO_T2_5,9,9999,9999,9999,2135202928
1086,10,Ticks_ISO_T2_5,10,9999,9999,9999,2135702628
1086,10,Ticks_ISO_T2_5,11,9999,9999,9999,2136202324
1086,10,Ticks_ISO_T2_5,12,9999,9999,9999,2136703064
1086,10,Ticks_ISO_T2_5,13,9999,9999,9999,2137202760
1086,10,Ticks_ISO_T2_5,14,9999,9999,9999,2137702456
1086,10,Ticks_ISO_T2_5,15,9999,9999,9999,2138202200
1086,10,Ticks_ISO_T2_5,16,9999,9999,9999,2138702940
1086,10,Ticks_ISO_T2_5,17,9999,9999,9999,2139202636
1086,10,Ticks_ISO_T2_5,18,9999,9999,9999,2139702328
1086,10,Ticks_ISO_T2_5,19,9999,9999,9999,2140203068
1086,10,Ticks_ISO_T2_5,20,9999,9999,9999,2140702836
1086,10,Ticks_ISO_T2_5,21,9999,9999,9999,2141202552
1086,10,Ticks_ISO_T2_5,22,9999,9999,9999,2141702220
1086,10,Ticks_ISO_T2_5,23,9999,9999,9999,2142202964
1086,10,Ticks_ISO_T2_5,24,9999,9999,9999,2142702656
1086,10,Ticks_ISO_T2_5,25,9999,9999,9999,2143202352
1086,10,Ticks_ISO_T2_5,26,9999,9999,9999,2143702120
1086,10,Ticks_ISO_T2_5,27,9999,9999,9999,2144202868
1086,10,Ticks_ISO_T2_5,28,9999,9999,9999,2144702564
1086,10,Ticks_ISO_T2_5,29,9999,9999,9999,2145202260
1086,10,Ticks_ISO_T2_5,30,9999,9999,9999,2145702996
1086,10,Ticks_ISO_T2_5,31,9999,9999,9999,2146202692
1086,10,Ticks_ISO_T2_5,32,9999,9999,9999,2146702392
1086,10,Ticks_ISO_T2_5,33,9999,9999,9999,2147202160
1086,10,Ticks_ISO_T2_5,34,9999,9999,9999,2147702896
1086,10,Ticks_ISO_T2_5,35,9999,9999,9999,2148202596
1086,10,Ticks_ISO_T2_5,36,9999,9999,9999,2148702268
1086,10,Ticks_ISO_T2_5,37,9999,9999,9999,2149203008
1086,10,Ticks_ISO_T2_5,38,9999,9999,9999,2149702776
1086,10,Ticks_ISO_T2_5,39,9999,9999,9999,2150202472
1086,10,Ticks_ISO_T2_5,40,9999,9999,9999,2150702160
1086,10,Ticks_ISO_T2_5,41,9999,9999,9999,2151202904
1086,10,Ticks_ISO_T2_5,42,9999,9999,9999,2151702604
1086,10,Ticks_ISO_T2_5,43,9999,9999,9999,2152202300
1086,10,Ticks_ISO_T2_5,44,9999,9999,9999,2152703040
1086,10,Ticks_ISO_T2_5,45,9999,9999,9999,2153202800
1086,10,Ticks_ISO_T2_5,46,9999,9999,9999,2153702496
1086,10,Ticks_ISO_T2_5,47,9999,9999,9999,2154202196
1086,10,Ticks_ISO_T2_5,48,9999,9999,9999,2154702932
1086,10,Ticks_ISO_T2_5,49,9999,9999,9999,2155202636
1086,10,Ticks_ISO_T2_5,50,9999,9999,9999,2155702332
1086,10,Ticks_ISO_T2_5,51,9999,9999,9999,2156203072
1086,10,Ticks_ISO_T2_5,52,9999,9999,9999,2156702768
1086,10,Ticks_ISO_T2_5,53,9999,9999,9999,2157202528
1086,10,Ticks_ISO_T2_5,54,9999,9999,9999,2157702232
1086,10,Ticks_ISO_T2_5,55,9999,9999,9999,2158202968
1086,10,Ticks_ISO_T2_5,56,9999,9999,9999,2158702668
1086,10,Ticks_ISO_T2_5,57,9999,9999,9999,2159202412
1086,10,Ticks_ISO_T2_5,58,9999,9999,9999,2159702104
1086,10,Ticks_ISO_T2_5,59,9999,9999,9999,2160202840
1086,10,Ticks_ISO_T2_5,60,9999,9999,9999,2160702540
1086,10,Ticks_ISO_T2_5,61,9999,9999,9999,2161202236
1086,10,Ticks_ISO_T2_5,62,9999,9999,9999,2161702968
1086,10,Ticks_ISO_T2_5,63,9999,9999,9999,2162202744
1086,10,Ticks_ISO_T2_5,64,9999,9999,9999,2162702440
1086,10,Ticks_ISO_T2_5,65,9999,9999,9999,2163202128
1086,10,Ticks_ISO_T2_5,66,9999,9999,9999,2163702868
1086,10,Ticks_ISO_T2_5,67,9999,9999,9999,2164202568
1086,10,Ticks_ISO_T2_5,68,9999,9999,9999,2164702260
1086,10,Ticks_ISO_T2_5,69,9999,9999,9999,2165203008
1086,10,Ticks_ISO_T2_5,70,9999,9999,9999,2165702768
1086,10,Ticks_ISO_T2_5,71,9999,9999,9999,2166202472
1086,10,Ticks_ISO_T2_5,72,9999,9999,9999,2166702160
1086,10,Ticks_ISO_T2_5,73,9999,9999,9999,2167202900
1086,10,Ticks_ISO_T2_5,74,9999,9999,9999,2167702596
1086,10,Ticks_ISO_T2_5,75,9999,9999,9999,2168202296
1086,10,Ticks_ISO_T2_5,76,9999,9999,9999,2168703036
1086,10,Ticks_ISO_T2_5,77,9999,9999,9999,2169202804
1086,10,Ticks_ISO_T2_5,78,9999,9999,9999,2169702496
1086,10,Ticks_ISO_T2_5,79,9999,9999,9999,2170202172
1086,10,Ticks_ISO_T2_5,80,9999,9999,9999,2170702908
1086,10,Ticks_ISO_T2_5,81,9999,9999,9999,2171202680
1086,10,Ticks_ISO_T2_5,82,9999,9999,9999,2171702380
1086,10,Ticks_ISO_T2_5,83,9999,9999,9999,2172203116
1086,10,Ticks_ISO_T2_5,84,9999,9999,9999,2172702816
1086,10,Ticks_ISO_T2_5,85,9999,9999,9999,2173202512
1086,10,Ticks_ISO_T2_5,86,9999,9999,9999,2173702200
1086,10,Ticks_ISO_T2_5,87,9999,9999,9999,2174202948
1086,10,Ticks_ISO_T2_5,88,9999,9999,9999,2174702644
1086,10,Ticks_ISO_T2_5,89,9999,9999,9999,2175202412
1086,10,Ticks_ISO_T2_5,90,9999,9999,9999,2175702108
1086,10,Ticks_ISO_T2_5,91,9999,9999,9999,2176202848
1086,10,Ticks_ISO_T2_5,92,9999,9999,9999,2176702544
1086,10,Ticks_ISO_T2_5,93,9999,9999,9999,2177202236
1086,10,Ticks_ISO_T2_5,94,9999,9999,9999,2177702972
1086,10,Ticks_ISO_T2_5,95,9999,9999,9999,2178202744
1086,10,Ticks_ISO_T2_5,96,9999,9999,9999,2178702436
1086,10,Ticks_ISO_T2_5,97,9999,9999,9999,2179202140
1086,10,Ticks_ISO_T2_5,98,9999,9999,9999,2179702876
1086,10,Ticks_ISO_T2_5,99,9999,9999,9999,2180202576
1086,10,Ticks_ISO_T2_5,100,9999,9999,9999,2180702320
1086,10,Ticks_ISO_T2_5,101,9999,9999,9999,2181203036
1086,10,Ticks_ISO_T2_5,102,9999,9999,9999,2181702724
1086,10,Ticks_ISO_T2_5,103,9999,9999,9999,2182202424
1086,10,Ticks_ISO_T2_5,104,9999,9999,9999,2182702192
1086,10,Ticks_ISO_T2_5,105,9999,9999,9999,2183202928
1086,10,Ticks_ISO_T2_5,106,9999,9999,9999,2183702624
1086,10,Ticks_ISO_T2_5,107,9999,9999,9999,2184202316
1086,10,Ticks_ISO_T2_5,108,9999,9999,9999,2184703060
1086,10,Ticks_ISO_T2_5,109,9999,9999,9999,2185202752
1086,10,Ticks_ISO_T2_5,110,9999,9999,9999,2185702448
1086,10,Ticks_ISO_T2_5,111,9999,9999,9999,2186202220
1086,10,Ticks_ISO_T2_5,112,9999,9999,9999,2186702960
1086,10,Ticks_ISO_T2_5,113,9999,9999,9999,2187202652
1086,10,Ticks_ISO_T2_5,114,9999,9999,9999,2187702348
1086,10,Ticks_ISO_T2_5,115,9999,9999,9999,2188203096
1086,10,Ticks_ISO_T2_5,116,9999,9999,9999,2188702788
1086,10,Ticks_ISO_T2_5,117,9999,9999,9999,2189202484
1086,10,Ticks_ISO_T2_5,118,9999,9999,9999,2189702248
1086,10,Ticks_ISO_T2_5,119,9999,9999,9999,2190202996
1086,10,Ticks_ISO_T2_5,120,9999,9999,9999,2190702684
1086,10,Ticks_ISO_T2_5,121,9999,9999,9999,2191202380
1086,10,Ticks_ISO_T2_5,122,9999,9999,9999,2191702128
1086,10,Ticks_ISO_T2_5,123,9999,9999,9999,2192202864
1086,10,Ticks_ISO_T2_5,124,9999,9999,9999,2192702560
1086,10,Ticks_ISO_T2_5,125,9999,9999,9999,2193202260
1086,10,Ticks_ISO_T2_5,126,9999,9999,9999,2193703004
1086,10,Ticks_ISO_T2_5,127,9999,9999,9999,2194202692
1086,10,Ticks_ISO_T2_5,128,9999,9999,9999,2194702384
1086,10,Ticks_ISO_T2_5,129,9999,9999,9999,2195202156
1087,20,Ticks_Linear_8,0,5,42,127,2205991560
1087,20,Ticks_Linear_8,1,5,42,127,2206810632
1087,20,Ticks_Linear_8,2,5,42,127,2207630768
1087,20,Ticks_Linear_8,3,1,48,44,2207646464
1087,20,Ticks_Linear_8,4,1,48,47,2208442800
1087,20,Ticks_Linear_8,5,5,42,127,2208450928
1087,20,Ticks_Linear_8,6,5,42,127,2209271104
1087,20,Ticks_Linear_8,7,1,48,54,2209302232
1087,20,Ticks_Linear_8,8,5,42,127,2210081012
1087,20,Ticks_Linear_8,9,1,48,51,2210115732
1087,20,Ticks_Linear_8,10,5,42,127,2210891148
1087,20,Ticks_Linear_8,11,1,48,50,2210936900
1087,20,Ticks_Linear_8,12,1,48,50,2211675616
1087,20,Ticks_Linear_8,13,5,42,127,2211701072
1087,20,Ticks_Linear_8,14,1,48,49,2212480240
1087,20,Ticks_Linear_8,15,5,42,127,2212511056
1087,20,Ticks_Linear_8,16,5,42,127,2213321196
1087,20,Ticks_Linear_8,17,1,48,41,2213326480
1087,20,Ticks_Linear_8,18,5,42,127,2214120844
1087,20,Ticks_Linear_8,19,1,48,48,2214132952
1087,20,Ticks_Linear_8,20,1,48,39,2214919664
1087,20,Ticks_Linear_8,21,5,42,127,2214921008
1087,20,Ticks_Linear_8,22,5,42,127,2215721264
1087,20,Ticks_Linear_8,23,1,48,43,2215739964
1087,20,Ticks_Linear_8,24,5,42,127,2216521060
1087,20,Ticks_Linear_8,25,1,48,49,2216540884
1087,20,Ticks_Linear_8,26,1,48,42,2217276700
1087,20,Ticks_Linear_8,27,5,42,127,2217320728
1087,20,Ticks_Linear_8,28,1,48,48,2218095992
1087,20,Ticks_Linear_8,29,5,42,127,2218111464
1087,20,Ticks_Linear_8,30,1,48,50,2218871084
1087,20,Ticks_Linear_8,31,5,42,127,2218900780
1087,20,Ticks_Linear_8,32,1,48,51,2219687424
1087,20,Ticks_Linear_8,33,5,42,127,2219691588
1087,20,Ticks_Linear_8,34,5,42,127,2220480764
1087,20,Ticks_Linear_8,35,1,48,49,2220524992
1087,20,Ticks_Linear_8,36,1,48,46,2221263660
1087,20,Ticks_Linear_8,37,5,42,127,2221271492
1087,20,Ticks_Linear_8,38,5,42,127,2222050632
1087,20,Ticks_Linear_8,39,1,48,43,2222063036
1087,20,Ticks_Linear_8,40,1,48,50,2222823644
1087,20,Ticks_Linear_8,41,5,42,127,2222830952
1087,20,Ticks_Linear_8,42,1,48,52,2223589072
1087,20,Ticks_Linear_8,43,5,42,127,2223611276
1087,20,Ticks_Linear_8,44,1,48,53,2224328500
1087,20,Ticks_Linear_8,45,5,42,127,2224390632
1087,20,Ticks_Linear_8,46,1,48,50,2225127104
1087,20,Ticks_Linear_8,47,5,42,127,2225170884
1087,20,Ticks_Linear_8,48,1,48,45,2225917992
1087,20,Ticks_Linear_8,49,5,42,127,2225940880
1087,20,Ticks_Linear_8,50,1,48,43,2226665820
1087,20,Ticks_Linear_8,51,5,42,127,2226710872
1087,20,Ticks_Linear_8,52,1,48,46,2227430800
1087,20,Ticks_Linear_8,53,5,42,127,2227480864
1087,20,Ticks_Linear_8,54,1,48,44,2228210904
1087,20,Ticks_Linear_8,55,5,42,127,2228250860
1087,20,Ticks_Linear_8,56,1,48,37,2228991156
1087,20,Ticks_Linear_8,57,5,42,127,2229021000
1087,20,Ticks_Linear_8,58,5,42,127,2229780744
1087,20,Ticks_Linear_8,59,1,48,52,2229787376
1087,20,Ticks_Linear_8,60,1,48,47,2230521852
1087,20,Ticks_Linear_8,61,5,42,127,2230540616
1087,20,Ticks_Linear_8,62,5,42,127,2231300728
1087,20,Ticks_Linear_8,63,1,48,45,2231360320
1087,20,Ticks_Linear_8,64,1,48,34,2232050836
1087,20,Ticks_Linear_8,65,5,42,127,2232061356
1087,20,Ticks_Linear_8,66,5,42,127,2232821100
1087,20,Ticks_Linear_8,67,1,48,44,2232847580
1087,20,Ticks_Linear_8,68,5,42,127,2233570720
1087,20,Ticks_Linear_8,69,1,48,46,2233597648
1087,20,Ticks_Linear_8,70,5,42,127,2234321392
1087,20,Ticks_Linear_8,71,1,48,43,2234332380
1087,20,Ticks_Linear_8,72,5,42,127,2235070796
1087,20,Ticks_Linear_8,73,1,48,48,2235099232
1087,20,Ticks_Linear_8,74,1,48,45,2235777604
1087,20,Ticks_Linear_8,75,5,42,127,2235821532
1087,20,Ticks_Linear_8,76,1,48,43,2236576504
1087,20,Ticks_Linear_8,77,5,42,127,2236581640
1087,20,Ticks_Linear_8,78,5,42,127,2237320568
1087,20,Ticks_Linear_8,79,1,48,45,2237351620
1087,20,Ticks_Linear_8,80,5,42,127,2238060904
1087,20,Ticks_Linear_8,81,1,48,48,2238080428
1087,20,Ticks_Linear_8,82,5,42,127,2238801292
1087,20,Ticks_Linear_8,83,1,48,51,2238817012
1087,20,Ticks_Linear_8,84,1,48,39,2239535808
1087,20,Ticks_Linear_8,85,5,42,127,2239540576
1087,20,Ticks_Linear_8,86,5,42,127,2240280920
1087,20,Ticks_Linear_8,87,1,48,43,2240292576
1087,20,Ticks_Linear_8,88,5,42,127,2241011148
1087,20,Ticks_Linear_8,89,1,48,49,2241033884
1087,20,Ticks_Linear_8,90,5,42,127,2241741152
1087,20,Ticks_Linear_8,91,1,48,43,2241767932
1087,20,Ticks_Linear_8,92,5,42,127,2242471528
1087,20,Ticks_Linear_8,93,1,48,47,2242483336
1087,20,Ticks_Linear_8,94,5,42,127,2243201380
1087,20,Ticks_Linear_8,95,1,48,49,2243213260
1087,20,Ticks_Linear_8,96,5,42,127,2243930540
1087,20,Ticks_Linear_8,97,1,48,42,2243939152
1087,20,Ticks_Linear_8,98,1,48,48,2244634576
1087,20,Ticks_Linear_8,99,5,42,127,2244651324
1087,20,Ticks_Linear_8,100,1,48,42,2245320256
1087,20,Ticks_Linear_8,101,5,42,127,2245371368
1087,20,Ticks_Linear_8,102,5,42,127,2246091116
1087,20,Ticks_Linear_8,103,1,48,45,2246097080
1087,20,Ticks_Linear_8,104,5,42,127,2246810936
1087,20,Ticks_Linear_8,105,1,48,43,2246869020
1087,20,Ticks_Linear_8,106,1,48,47,2247512932
1087,20,Ticks_Linear_8,107,5,42,127,2247530824
1087,20,Ticks_Linear_8,108,1,48,47,2248230288
1087,20,Ticks_Linear_8,109,5,42,127,2248240360
1087,20,Ticks_Linear_8,110,1,48,36,2248943736
1087,20,Ticks_Linear_8,111,5,42,127,2248951264
1087,20,Ticks_Linear_8,112,1,48,40,2249659624
1087,20,Ticks_Linear_8,113,5,42,127,2249661048
1087,20,Ticks_Linear_8,114,1,48,37,2250328612
1087,20,Ticks_Linear_8,115,5,42,127,2250370312
1087,20,Ticks_Linear_8,116,5,42,127,2251081196
1087,20,Ticks_Linear_8,117,1,48,38,2251095920
1087,20,Ticks_Linear_8,118,5,42,127,2251780424
1087,20,Ticks_Linear_8,119,1,48,44,2251821736
1087,20,Ticks_Linear_8,120,5,42,127,2252480920
1087,20,Ticks_Linear_8,121,1,48,41,2252523276
1087,20,Ticks_Linear_8,122,5,42,127,2253181416
1087,20,Ticks_Linear_8,123,1,48,40,2253182380
1087,20,Ticks_Linear_8,124,5,42,127,2253880692
1087,20,Ticks_Linear_8,125,1,48,39,2253942324
1087,20,Ticks_Linear_8,126,5,42,127,2254581188
1087,20,Ticks_Linear_8,127,1,48,43,2254590080
1087,20,Ticks_Linear_8,128,5,42,127,2255271204
1087,20,Ticks_Linear_8,129,1,48,43,2255302332
1087,20,Ticks_Linear_8,130,5,42,127,2255960520
1087,20,Ticks_Linear_8,131,1,48,39,2255964908
1087,20,Ticks_Linear_8,132,5,42,127,2256650680
1087,20,Ticks_Linear_8,133,1,48,41,2256690424
1087,20,Ticks_Linear_8,134,5,42,127,2257340844
1087,20,Ticks_Linear_8,135,1,48,43,2257343588
1087,20,Ticks_Linear_8,136,5,42,127,2258031008
1087,20,Ticks_Linear_8,137,1,48,59,2258061612
1087,20,Ticks_Linear_8,138,5,42,127,2258710812
1087,20,Ticks_Linear_8,139,1,48,56,2258720748
1087,20,Ticks_Linear_8,140,1,48,43,2259387144
1087,20,Ticks_Linear_8,141,5,42,127,2259390860
1087,20,Ticks_Linear_8,142,1,48,37,2260028692
1087,20,Ticks_Linear_8,143,5,42,127,2260070836
1087,20,Ticks_Linear_8,144,5,42,127,2260750800
1087,20,Ticks_Linear_8,145,1,48,51,2260795924
1087,20,Ticks_Linear_8,146,5,42,127,2261430704
1087,20,Ticks_Linear_8,147,1,48,53,2261476352
1087,20,Ticks_Linear_8,148,5,42,127,2262101372
1087,20,Ticks_Linear_8,149,1,48,48,2262133796
1087,20,Ticks_Linear_8,150,5,42,127,2262771016
1087,20,Ticks_Linear_8,151,1,48,53,2262779236
1087,20,Ticks_Linear_8,152,5,42,127,2263441180
1087,20,Ticks_Linear_8,153,1,48,49,2263494624
1087,20,Ticks_Linear_8,154,5,42,127,2264110504
1087,20,Ticks_Linear_8,155,1,48,52,2264115716
1087,20,Ticks_Linear_8,156,5,42,127,2264781272
1087,20,Ticks_Linear_8,157,1,48,56,2264796448
1087,20,Ticks_Linear_8,158,5,42,127,2265440584
1087,20,Ticks_Linear_8,159,1,48,49,2265458000
1087,20,Ticks_Linear_8,160,1,48,47,2266079076
1087,20,Ticks_Linear_8,161,5,42,127,2266101280
1087,20,Ticks_Linear_8,162,1,48,55,2266721232
1087,20,Ticks_Linear_8,163,5,42,127,2266760592
1087,20,Ticks_Linear_8,164,1,48,48,2267382316
1087,20,Ticks_Linear_8,165,5,42,127,2267421076
1087,20,Ticks_Linear_8,166,1,48,57,2268013168
1087,20,Ticks_Linear_8,167,5,42,127,2268080460
1087,20,Ticks_Linear_8,168,1,48,51,2268684732
1087,20,Ticks_Linear_8,169,5,42,127,2268730612
1087,20,Ticks_Linear_8,170,1,48,52,2269351236
1087,20,Ticks_Linear_8,171,5,42,127,2269381156
1087,20,Ticks_Linear_8,172,5,42,127,2270031164
1087,20,Ticks_Linear_8,173,1,48,54,2270065008
1087,20,Ticks_Linear_8,174,5,42,127,2270680436
1087,20,Ticks_Linear_8,175,1,48,52,2270701608
1087,20,Ticks_Linear_8,176,5,42,127,2271330688
1087,20,Ticks_Linear_8,177,1,48,51,2271347056
1087,20,Ticks_Linear_8,178,1,48,55,2271945284
1087,20,Ticks_Linear_8,179,5,42,127,2271970644
1087,20,Ticks_Linear_8,180,5,42,127,2272610640
1087,20,Ticks_Linear_8,181,1,48,49,2272635696
1087,20,Ticks_Linear_8,182,5,42,127,2273250680
1087,20,Ticks_Linear_8,183,1,48,48,2273252396
1087,20,Ticks_Linear_8,184,5,42,127,2273890668
1087,20,Ticks_Linear_8,185,1,48,51,2273936020
1087,20,Ticks_Linear_8,186,5,42,127,2274530780
1087,20,Ticks_Linear_8,187,1,48,54,2274572992
1087,20,Ticks_Linear_8,188,5,42,127,2275160412
1087,20,Ticks_Linear_8,189,1,48,48,2275201080
1087,20,Ticks_Linear_8,190,5,42,127,2275791192
1087,20,Ticks_Linear_8,191,1,48,48,2275834900
1087,20,Ticks_Linear_8,192,5,42,127,2276421044
1087,20,Ticks_Linear_8,193,1,48,51,2276466044
1087,20,Ticks_Linear_8,194,5,42,127,2277050696
1087,20,Ticks_Linear_8,195,1,48,52,2277060336
1087,20,Ticks_Linear_8,196,5,42,127,2277680404
1087,20,Ticks_Linear_8,197,1,48,47,2277740536
1087,20,Ticks_Linear_8,198,5,42,127,2278301220
1087,20,Ticks_Linear_8,199,1,48,51,2278356236
1087,20,Ticks_Linear_8,200,5,42,127,2278920516
1087,20,Ticks_Linear_8,201,1,48,49,2279014348
1087,20,Ticks_Linear_8,202,5,42,127,2279541260
1087,20,Ticks_Linear_8,203,1,48,46,2279611032
1087,20,Ticks_Linear_8,204,5,42,127,2280160628
1087,20,Ticks_Linear_8,205,1,48,41,2280217740
1087,20,Ticks_Linear_8,206,5,42,127,2280781348
1087,20,Ticks_Linear_8,207,1,48,45,2280848680
1087,20,Ticks_Linear_8,208,5,42,127,2281390336
1087,20,Ticks_Linear_8,209,1,48,43,2281456956
1087,20,Ticks_Linear_8,210,5,42,127,2282000792
1087,20,Ticks_Linear_8,211,1,48,47,2282009684
1087,20,Ticks_Linear_8,212,5,42,127,2282611124
1087,20,Ticks_Linear_8,213,1,48,29,2282645992
1087,20,Ticks_Linear_8,214,5,42,127,2283221284
1087,20,Ticks_Linear_8,215,1,48,44,2283296512
1087,20,Ticks_Linear_8,216,5,42,127,2283830768
1087,20,Ticks_Linear_8,217,1,48,42,2283876068
1087,20,Ticks_Linear_8,218,5,42,127,2284430768
1087,20,Ticks_Linear_8,219,1,48,41,2284444444
1087,20,Ticks_Linear_8,220,5,42,127,2285031040
1087,20,Ticks_Linear_8,221,1,48,42,2285061572
1087,20,Ticks_Linear_8,222,5,42,127,2285630940
1087,20,Ticks_Linear_8,223,1,48,29,2285642076
1087,20,Ticks_Linear_8,224,5,42,127,2286231164
1087,20,Ticks_Linear_8,225,1,48,33,2286246112
1087,20,Ticks_Linear_8,226,5,42,127,2286831136
1087,20,Ticks_Linear_8,227,1,48,44,2286844292
1087,20,Ticks_Linear_8,228,5,42,127,2287420780
1087,20,Ticks_Linear_8,229,1,48,44,2287424196
1087,20,Ticks_Linear_8,230,5,42,127,2288010520
1087,20,Ticks_Linear_8,231,1,48,43,2288031460
1087,20,Ticks_Linear_8,232,5,42,127,2288600308
1087,20,Ticks_Linear_8,233,1,48,34,2288614056
1087,20,Ticks_Linear_8,234,5,42,127,2289191216
1087,20,Ticks_Linear_8,235,1,48,43,2289227284
1087,20,Ticks_Linear_8,236,5,42,127,2289781108
1087,20,Ticks_Linear_8,237,1,48,45,2289789104
1087,20,Ticks_Linear_8,238,1,48,47,2290320228
1087,20,Ticks_Linear_8,239,5,42,127,2290360632
1087,20,Ticks_Linear_8,240,1,48,40,2290921772
1087,20,Ticks_Linear_8,241,5,42,127,2290941208
1087,20,Ticks_Linear_8,242,5,42,127,2291520968
1087,20,Ticks_Linear_8,243,1,48,35,2291553916
1087,20,Ticks_Linear_8,244,5,42,127,2292100448
1087,20,Ticks_Linear_8,245,1,48,39,2292121020
1087,20,Ticks_Linear_8,246,5,42,127,2292681252
1087,20,Ticks_Linear_8,247,1,48,39,2292684296
1087,20,Ticks_Linear_8,248,5,42,127,2293250524
1087,20,Ticks_Linear_8,249,1,48,42,2293266968
1087,20,Ticks_Linear_8,250,1,48,45,2293815400
1087,20,Ticks_Linear_8,251,5,42,127,2293820908
1087,20,Ticks_Linear_8,252,5,42,127,2294391112
1087,20,Ticks_Linear_8,253,1,48,39,2294423284
1087,20,Ticks_Linear_8,254,5,42,127,2294960456
1087,20,Ticks_Linear_8,255,1,48,46,2294965964
1087,20,Ticks_Linear_8,256,5,42,127,2295531000
1087,20,Ticks_Linear_8,257,1,48,47,2295538844
1087,20,Ticks_Linear_8,258,5,42,127,2296090984
1087,20,Ticks_Linear_8,259,1,48,43,2296127200
1087,20,Ticks_Linear_8,260,5,42,127,2296651044
1087,20,Ticks_Linear_8,261,1,48,45,2296709760
1087,20,Ticks_Linear_8,262,5,42,127,2297211204
1087,20,Ticks_Linear_8,263,1,48,38,2297214320
1087,20,Ticks_Linear_8,264,5,42,127,2297771412
1087,20,Ticks_Linear_8,265,1,48,40,2297805308
1087,20,Ticks_Linear_8,266,5,42,127,2298330428
1087,20,Ticks_Linear_8,267,1,48,40,2298355784
1087,20,Ticks_Linear_8,268,1,48,41,2298867436
1087,20,Ticks_Linear_8,269,5,42,127,2298881488
1087,20,Ticks_Linear_8,270,1,48,42,2299429780
1087,20,Ticks_Linear_8,271,5,42,127,2299431216
1087,20,Ticks_Linear_8,272,5,42,127,2299981096
1087,20,Ticks_Linear_8,273,1,48,31,2300039664
1087,20,Ticks_Linear_8,274,5,42,127,2300530920
1087,20,Ticks_Linear_8,275,1,48,43,2300548872
1087,20,Ticks_Linear_8,276,1,48,41,2301058960
1087,20,Ticks_Linear_8,277,5,42,127,2301081012
1087,20,Ticks_Linear_8,278,1,48,42,2301600900
1087,20,Ticks_Linear_8,279,5,42,127,2301620480
1087,20,Ticks_Linear_8,280,1,48,38,2302143652
1087,20,Ticks_Linear_8,281,5,42,127,2302161144
1087,20,Ticks_Linear_8,282,5,42,127,2302701136
1087,20,Ticks_Linear_8,283,1,48,41,2302732264
1087,20,Ticks_Linear_8,284,1,48,44,2303236880
1087,20,Ticks_Linear_8,285,5,42,127,2303240600
1087,20,Ticks_Linear_8,286,1,48,47,2303757772
1087,20,Ticks_Linear_8,287,5,42,127,2303781188
1087,20,Ticks_Linear_8,288,1,48,44,2304295144
1087,20,Ticks_Linear_8,289,5,42,127,2304310840
1087,20,Ticks_Linear_8,290,5,42,127,2304841028
1087,20,Ticks_Linear_8,291,1,48,38,2304850068
1087,20,Ticks_Linear_8,292,5,42,127,2305370456
1087,20,Ticks_Linear_8,293,1,48,41,2305371424
1087,20,Ticks_Linear_8,294,5,42,127,2305900860
1087,20,Ticks_Linear_8,295,1,48,44,2305918204
1087,20,Ticks_Linear_8,296,1,48,40,2306422308
1087,20,Ticks_Linear_8,297,5,42,127,2306431336
1087,20,Ticks_Linear_8,298,1,48,43,2306922452
1087,20,Ticks_Linear_8,299,5,42,127,2306950952
1087,20,Ticks_Linear_8,300,1,48,46,2307443124
1087,20,Ticks_Linear_8,301,5,42,127,2307470800
1087,20,Ticks_Linear_8,302,1,48,28,2307984760
1087,20,Ticks_Linear_8,303,5,42,127,2307990944
1087,20,Ticks_Linear_8,304,1,48,44,2308490976
1087,20,Ticks_Linear_8,305,5,42,127,2308511236
1087,20,Ticks_Linear_8,306,1,48,36,2309008728
1087,20,Ticks_Linear_8,307,5,42,127,2309031304
1087,20,Ticks_Linear_8,308,1,48,45,2309485128
1087,20,Ticks_Linear_8,309,5,42,127,2309541340
1087,20,Ticks_Linear_8,310,1,48,47,2310026236
1087,20,Ticks_Linear_8,311,5,42,127,2310051148
1087,20,Ticks_Linear_8,312,1,48,44,2310520108
1087,20,Ticks_Linear_8,313,5,42,127,2310561112
1087,20,Ticks_Linear_8,314,1,48,43,2311062116
1087,20,Ticks_Linear_8,315,5,42,127,2311071072
1087,20,Ticks_Linear_8,316,1,48,41,2311566460
1087,20,Ticks_Linear_8,317,5,42,127,2311581032
1087,20,Ticks_Linear_8,318,5,42,127,2312081036
1087,20,Ticks_Linear_8,319,1,48,44,2312089632
1087,20,Ticks_Linear_8,320,1,48,49,2312564812
1087,20,Ticks_Linear_8,321,5,42,127,2312580360
1087,20,Ticks_Linear_8,322,1,48,46,2313066680
1087,20,Ticks_Linear_8,323,5,42,127,2313081180
1087,20,Ticks_Linear_8,324,1,48,43,2313552132
1087,20,Ticks_Linear_8,325,5,42,127,2313581028
1087,20,Ticks_Linear_8,326,1,48,47,2314028172
1087,20,Ticks_Linear_8,327,5,42,127,2314080876
1087,20,Ticks_Linear_8,328,5,42,127,2314571272
1087,20,Ticks_Linear_8,329,1,48,38,2314614108
1087,20,Ticks_Linear_8,330,5,42,127,2315060716
1087,20,Ticks_Linear_8,331,1,48,27,2315488188
1087,20,Ticks_Linear_8,332,5,42,127,2315551068
1087,20,Ticks_Linear_8,333,1,48,38,2315836748
1087,20,Ticks_Linear_8,334,5,42,127,2316040644
1087,20,Ticks_Linear_8,335,1,48,41,2316323268
1087,20,Ticks_Linear_8,336,5,42,127,2316531208
1087,20,Ticks_Linear_8,0,9999,9999,9999,2205988964
1087,20,Ticks_Linear_8,1,9999,9999,9999,2206808184
1087,20,Ticks_Linear_8,2,9999,9999,9999,2207628396
1087,20,Ticks_Linear_8,3,9999,9999,9999,2208448632
1087,20,Ticks_Linear_8,4,9999,9999,9999,2209268804
1087,20,Ticks_Linear_8,5,9999,9999,9999,2210078788
1087,20,Ticks_Linear_8,6,9999,9999,9999,2210888772
1087,20,Ticks_Linear_8,7,9999,9999,9999,2211698776
1087,20,Ticks_Linear_8,8,9999,9999,9999,2212508756
1087,20,Ticks_Linear_8,9,9999,9999,9999,2213318748
1087,20,Ticks_Linear_8,10,9999,9999,9999,2214118472
1087,20,Ticks_Linear_8,11,9999,9999,9999,2214918268
1087,20,Ticks_Linear_8,12,9999,9999,9999,2215718964
1087,20,Ticks_Linear_8,13,9999,9999,9999,2216518764
1087,20,Ticks_Linear_8,14,9999,9999,9999,2217318504
1087,20,Ticks_Linear_8,15,9999,9999,9999,2218109016
1087,20,Ticks_Linear_8,16,9999,9999,9999,2218898556
1087,20,Ticks_Linear_8,17,9999,9999,9999,2219689068
1087,20,Ticks_Linear_8,18,9999,9999,9999,2220478540
1087,20,Ticks_Linear_8,19,9999,9999,9999,2221269120
1087,20,Ticks_Linear_8,20,9999,9999,9999,2222048332
1087,20,Ticks_Linear_8,21,9999,9999,9999,2222828652
1087,20,Ticks_Linear_8,22,9999,9999,9999,2223608904
1087,20,Ticks_Linear_8,23,9999,9999,9999,2224388184
1087,20,Ticks_Linear_8,24,9999,9999,9999,2225168512
1087,20,Ticks_Linear_8,25,9999,9999,9999,2225938504
1087,20,Ticks_Linear_8,26,9999,9999,9999,2226708572
1087,20,Ticks_Linear_8,27,9999,9999,9999,2227478640
1087,20,Ticks_Linear_8,28,9999,9999,9999,2228248636
1087,20,Ticks_Linear_8,29,9999,9999,9999,2229018700
1087,20,Ticks_Linear_8,30,9999,9999,9999,2229778516
1087,20,Ticks_Linear_8,31,9999,9999,9999,2230538320
1087,20,Ticks_Linear_8,32,9999,9999,9999,2231298132
1087,20,Ticks_Linear_8,33,9999,9999,9999,2232058984
1087,20,Ticks_Linear_8,34,9999,9999,9999,2232818800
1087,20,Ticks_Linear_8,35,9999,9999,9999,2233568348
1087,20,Ticks_Linear_8,36,9999,9999,9999,2234318944
1087,20,Ticks_Linear_8,37,9999,9999,9999,2235068496
1087,20,Ticks_Linear_8,38,9999,9999,9999,2235819088
1087,20,Ticks_Linear_8,39,9999,9999,9999,2236578896
1087,20,Ticks_Linear_8,40,9999,9999,9999,2237318268
1087,20,Ticks_Linear_8,41,9999,9999,9999,2238058604
1087,20,Ticks_Linear_8,42,9999,9999,9999,2238798920
1087,20,Ticks_Linear_8,43,9999,9999,9999,2239538276
1087,20,Ticks_Linear_8,44,9999,9999,9999,2240278620
1087,20,Ticks_Linear_8,45,9999,9999,9999,2241008700
1087,20,Ticks_Linear_8,46,9999,9999,9999,2241738852
1087,20,Ticks_Linear_8,47,9999,9999,9999,2242468932
1087,20,Ticks_Linear_8,48,9999,9999,9999,2243199084
1087,20,Ticks_Linear_8,49,9999,9999,9999,2243928164
1087,20,Ticks_Linear_8,50,9999,9999,9999,2244649024
1087,20,Ticks_Linear_8,51,9999,9999,9999,2245368916
1087,20,Ticks_Linear_8,52,9999,9999,9999,2246088816
1087,20,Ticks_Linear_8,53,9999,9999,9999,2246808640
1087,20,Ticks_Linear_8,54,9999,9999,9999,2247528524
1087,20,Ticks_Linear_8,55,9999,9999,9999,2248238136
1087,20,Ticks_Linear_8,56,9999,9999,9999,2248948816
1087,20,Ticks_Linear_8,57,9999,9999,9999,2249658456
1087,20,Ticks_Linear_8,58,9999,9999,9999,2250368088
1087,20,Ticks_Linear_8,59,9999,9999,9999,2251078748
1087,20,Ticks_Linear_8,60,9999,9999,9999,2251778128
1087,20,Ticks_Linear_8,61,9999,9999,9999,2252478548
1087,20,Ticks_Linear_8,62,9999,9999,9999,2253178968
1087,20,Ticks_Linear_8,63,9999,9999,9999,2253878392
1087,20,Ticks_Linear_8,64,9999,9999,9999,2254578812
1087,20,Ticks_Linear_8,65,9999,9999,9999,2255268980
1087,20,Ticks_Linear_8,66,9999,9999,9999,2255958072
1087,20,Ticks_Linear_8,67,9999,9999,9999,2256648308
1087,20,Ticks_Linear_8,68,9999,9999,9999,2257338468
1087,20,Ticks_Linear_8,69,9999,9999,9999,2258028632
1087,20,Ticks_Linear_8,70,9999,9999,9999,2258708588
1087,20,Ticks_Linear_8,71,9999,9999,9999,2259388488
1087,20,Ticks_Linear_8,72,9999,9999,9999,2260068464
1087,20,Ticks_Linear_8,73,9999,9999,9999,2260748352
1087,20,Ticks_Linear_8,74,9999,9999,9999,2261428328
1087,20,Ticks_Linear_8,75,9999,9999,9999,2262099072
1087,20,Ticks_Linear_8,76,9999,9999,9999,2262768716
1087,20,Ticks_Linear_8,77,9999,9999,9999,2263438436
1087,20,Ticks_Linear_8,78,9999,9999,9999,2264108132
1087,20,Ticks_Linear_8,79,9999,9999,9999,2264778824
1087,20,Ticks_Linear_8,80,9999,9999,9999,2265438332
1087,20,Ticks_Linear_8,81,9999,9999,9999,2266098756
1087,20,Ticks_Linear_8,82,9999,9999,9999,2266758220
1087,20,Ticks_Linear_8,83,9999,9999,9999,2267418700
1087,20,Ticks_Linear_8,84,9999,9999,9999,2268078164
1087,20,Ticks_Linear_8,85,9999,9999,9999,2268728388
1087,20,Ticks_Linear_8,86,9999,9999,9999,2269378636
1087,20,Ticks_Linear_8,87,9999,9999,9999,2270028864
1087,20,Ticks_Linear_8,88,9999,9999,9999,2270678140
1087,20,Ticks_Linear_8,89,9999,9999,9999,2271328312
1087,20,Ticks_Linear_8,90,9999,9999,9999,2271968344
1087,20,Ticks_Linear_8,91,9999,9999,9999,2272608340
1087,20,Ticks_Linear_8,92,9999,9999,9999,2273248380
1087,20,Ticks_Linear_8,93,9999,9999,9999,2273888368
1087,20,Ticks_Linear_8,94,9999,9999,9999,2274528332
1087,20,Ticks_Linear_8,95,9999,9999,9999,2275158116
1087,20,Ticks_Linear_8,96,9999,9999,9999,2275788892
1087,20,Ticks_Linear_8,97,9999,9999,9999,2276418668
1087,20,Ticks_Linear_8,98,9999,9999,9999,2277048400
1087,20,Ticks_Linear_8,99,9999,9999,9999,2277678180
1087,20,Ticks_Linear_8,100,9999,9999,9999,2278298700
1087,20,Ticks_Linear_8,101,9999,9999,9999,2278918220
1087,20,Ticks_Linear_8,102,9999,9999,9999,2279538812
1087,20,Ticks_Linear_8,103,9999,9999,9999,2280158332
1087,20,Ticks_Linear_8,104,9999,9999,9999,2280778824
1087,20,Ticks_Linear_8,105,9999,9999,9999,2281388112
1087,20,Ticks_Linear_8,106,9999,9999,9999,2281998416
1087,20,Ticks_Linear_8,107,9999,9999,9999,2282608752
1087,20,Ticks_Linear_8,108,9999,9999,9999,2283219060
1087,20,Ticks_Linear_8,109,9999,9999,9999,2283828320
1087,20,Ticks_Linear_8,110,9999,9999,9999,2284428396
1087,20,Ticks_Linear_8,111,9999,9999,9999,2285028444
1087,20,Ticks_Linear_8,112,9999,9999,9999,2285628492
1087,20,Ticks_Linear_8,113,9999,9999,9999,2286228568
1087,20,Ticks_Linear_8,114,9999,9999,9999,2286828616
1087,20,Ticks_Linear_8,115,9999,9999,9999,2287418480
1087,20,Ticks_Linear_8,116,9999,9999,9999,2288008296
1087,20,Ticks_Linear_8,117,9999,9999,9999,2288598084
1087,20,Ticks_Linear_8,118,9999,9999,9999,2289188920
1087,20,Ticks_Linear_8,119,9999,9999,9999,2289778808
1087,20,Ticks_Linear_8,120,9999,9999,9999,2290358332
1087,20,Ticks_Linear_8,121,9999,9999,9999,2290938984
1087,20,Ticks_Linear_8,122,9999,9999,9999,2291518520
1087,20,Ticks_Linear_8,123,9999,9999,9999,2292098152
1087,20,Ticks_Linear_8,124,9999,9999,9999,2292678728
1087,20,Ticks_Linear_8,125,9999,9999,9999,2293248076
1087,20,Ticks_Linear_8,126,9999,9999,9999,2293818464
1087,20,Ticks_Linear_8,127,9999,9999,9999,2294388812
1087,20,Ticks_Linear_8,128,9999,9999,9999,2294958156
1087,20,Ticks_Linear_8,129,9999,9999,9999,2295528552
1087,20,Ticks_Linear_8,130,9999,9999,9999,2296088688
1087,20,Ticks_Linear_8,131,9999,9999,9999,2296648820
1087,20,Ticks_Linear_8,132,9999,9999,9999,2297208904
1087,20,Ticks_Linear_8,133,9999,9999,9999,2297769040
1087,20,Ticks_Linear_8,134,9999,9999,9999,2298328128
1087,20,Ticks_Linear_8,135,9999,9999,9999,2298879040
1087,20,Ticks_Linear_8,136,9999,9999,9999,2299428924
1087,20,Ticks_Linear_8,137,9999,9999,9999,2299978872
1087,20,Ticks_Linear_8,138,9999,9999,9999,2300528696
1087,20,Ticks_Linear_8,139,9999,9999,9999,2301078640
1087,20,Ticks_Linear_8,140,9999,9999,9999,2301618256
1087,20,Ticks_Linear_8,141,9999,9999,9999,2302158920
1087,20,Ticks_Linear_8,142,9999,9999,9999,2302698616
1087,20,Ticks_Linear_8,143,9999,9999,9999,2303238224
1087,20,Ticks_Linear_8,144,9999,9999,9999,2303778888
1087,20,Ticks_Linear_8,145,9999,9999,9999,2304308316
1087,20,Ticks_Linear_8,146,9999,9999,9999,2304838728
1087,20,Ticks_Linear_8,147,9999,9999,9999,2305368156
1087,20,Ticks_Linear_8,148,9999,9999,9999,2305898560
1087,20,Ticks_Linear_8,149,9999,9999,9999,2306429036
1087,20,Ticks_Linear_8,150,9999,9999,9999,2306948208
1087,20,Ticks_Linear_8,151,9999,9999,9999,2307468352
1087,20,Ticks_Linear_8,152,9999,9999,9999,2307988572
1087,20,Ticks_Linear_8,153,9999,9999,9999,2308508788
1087,20,Ticks_Linear_8,154,9999,9999,9999,2309028932
1087,20,Ticks_Linear_8,155,9999,9999,9999,2309538892
1087,20,Ticks_Linear_8,156,9999,9999,9999,2310048852
1087,20,Ticks_Linear_8,157,9999,9999,9999,2310558812
1087,20,Ticks_Linear_8,158,9999,9999,9999,2311068772
1087,20,Ticks_Linear_8,159,9999,9999,9999,2311578732
1087,20,Ticks_Linear_8,160,9999,9999,9999,2312078440
1087,20,Ticks_Linear_8,161,9999,9999,9999,2312578136
1087,20,Ticks_Linear_8,162,9999,9999,9999,2313078880
1087,20,Ticks_Linear_8,163,9999,9999,9999,2313578580
1087,20,Ticks_Linear_8,164,9999,9999,9999,2314078280
1087,20,Ticks_Linear_8,165,9999,9999,9999,2314568824
1087,20,Ticks_Linear_8,166,9999,9999,9999,2315058268
1087,20,Ticks_Linear_8,167,9999,9999,9999,2315548768
1087,20,Ticks_Linear_8,168,9999,9999,9999,2316038196
1087,20,Ticks_Linear_8,169,9999,9999,9999,2316528760
1088,21,Ticks_Linear_5,0,5,42,127,2324912440
1088,21,Ticks_Linear_5,1,5,42,127,2325392840
1088,21,Ticks_Linear_5,2,5,42,127,2325872940
1088,21,Ticks_Linear_5,3,5,42,127,2326353164
1088,21,Ticks_Linear_5,4,1,48,40,2326418540
1088,21,Ticks_Linear_5,5,1,48,45,2326829296
1088,21,Ticks_Linear_5,6,5,42,127,2326832712
1088,21,Ticks_Linear_5,7,1,48,49,2327271868
1088,21,Ticks_Linear_5,8,5,42,127,2327322904
1088,21,Ticks_Linear_5,9,1,48,47,2327772616
1088,21,Ticks_Linear_5,10,5,42,127,2327812420
1088,21,Ticks_Linear_5,11,1,48,42,2328268116
1088,21,Ticks_Linear_5,12,5,42,127,2328302908
1088,21,Ticks_Linear_5,13,1,48,46,2328717264
1088,21,Ticks_Linear_5,14,5,42,127,2328792348
1088,21,Ticks_Linear_5,15,5,42,127,2329283064
1088,21,Ticks_Linear_5,16,1,48,37,2329290000
1088,21,Ticks_Linear_5,17,1,48,42,2329761528
1088,21,Ticks_Linear_5,18,5,42,127,2329782836
1088,21,Ticks_Linear_5,19,1,48,44,2330265944
1088,21,Ticks_Linear_5,20,5,42,127,2330283580
1088,21,Ticks_Linear_5,21,1,48,40,2330761004
1088,21,Ticks_Linear_5,22,5,42,127,2330783132
1088,21,Ticks_Linear_5,23,1,48,41,2331250432
1088,21,Ticks_Linear_5,24,5,42,127,2331282908
1088,21,Ticks_Linear_5,25,1,48,44,2331740560
1088,21,Ticks_Linear_5,26,5,42,127,2331782756
1088,21,Ticks_Linear_5,27,1,48,44,2332270496
1088,21,Ticks_Linear_5,28,5,42,127,2332292416
1088,21,Ticks_Linear_5,29,1,48,38,2332786676
1088,21,Ticks_Linear_5,30,5,42,127,2332802528
1088,21,Ticks_Linear_5,31,1,48,36,2333305928
1088,21,Ticks_Linear_5,32,5,42,127,2333313604
1088,21,Ticks_Linear_5,33,1,48,40,2333795740
1088,21,Ticks_Linear_5,34,5,42,127,2333823340
1088,21,Ticks_Linear_5,35,1,48,45,2334320676
1088,21,Ticks_Linear_5,36,5,42,127,2334333376
1088,21,Ticks_Linear_5,37,1,48,45,2334810552
1088,21,Ticks_Linear_5,38,5,42,127,2334852696
1088,21,Ticks_Linear_5,39,1,48,43,2335364932
1088,21,Ticks_Linear_5,40,5,42,127,2335372692
1088,21,Ticks_Linear_5,41,1,48,44,2335854680
1088,21,Ticks_Linear_5,42,5,42,127,2335892760
1088,21,Ticks_Linear_5,43,5,42,127,2336413060
1088,21,Ticks_Linear_5,44,1,48,39,2336414024
1088,21,Ticks_Linear_5,45,1,48,43,2336900212
1088,21,Ticks_Linear_5,46,5,42,127,2336933120
1088,21,Ticks_Linear_5,47,1,48,48,2337431060
1088,21,Ticks_Linear_5,48,5,42,127,2337462624
1088,21,Ticks_Linear_5,49,1,48,46,2337946932
1088,21,Ticks_Linear_5,50,5,42,127,2337993028
1088,21,Ticks_Linear_5,51,1,48,43,2338484076
1088,21,Ticks_Linear_5,52,5,42,127,2338522608
1088,21,Ticks_Linear_5,53,1,48,36,2339022492
1088,21,Ticks_Linear_5,54,5,42,127,2339052936
1088,21,Ticks_Linear_5,55,1,48,44,2339560004
1088,21,Ticks_Linear_5,56,5,42,127,2339583784
1088,21,Ticks_Linear_5,57,1,48,37,2340105688
1088,21,Ticks_Linear_5,58,5,42,127,2340122956
1088,21,Ticks_Linear_5,59,1,48,43,2340649788
1088,21,Ticks_Linear_5,60,5,42,127,2340662568
1088,21,Ticks_Linear_5,61,1,48,43,2341185664
1088,21,Ticks_Linear_5,62,5,42,127,2341203604
1088,21,Ticks_Linear_5,63,5,42,127,2341742876
1088,21,Ticks_Linear_5,64,1,48,32,2341758200
1088,21,Ticks_Linear_5,65,5,42,127,2342282716
1088,21,Ticks_Linear_5,66,1,48,42,2342293252
1088,21,Ticks_Linear_5,67,1,48,37,2342814120
1088,21,Ticks_Linear_5,68,5,42,127,2342832584
1088,21,Ticks_Linear_5,69,1,48,48,2343358000
1088,21,Ticks_Linear_5,70,5,42,127,2343383652
1088,21,Ticks_Linear_5,71,1,48,39,2343909744
1088,21,Ticks_Linear_5,72,5,42,127,2343933452
1088,21,Ticks_Linear_5,73,1,48,46,2344453780
1088,21,Ticks_Linear_5,74,5,42,127,2344483252
1088,21,Ticks_Linear_5,75,1,48,44,2344999160
1088,21,Ticks_Linear_5,76,5,42,127,2345032976
1088,21,Ticks_Linear_5,77,1,48,47,2345513168
1088,21,Ticks_Linear_5,78,5,42,127,2345593580
1088,21,Ticks_Linear_5,79,1,48,42,2346108368
1088,21,Ticks_Linear_5,80,5,42,127,2346153192
1088,21,Ticks_Linear_5,81,1,48,35,2346700172
1088,21,Ticks_Linear_5,82,5,42,127,2346712652
1088,21,Ticks_Linear_5,83,1,48,48,2347259708
1088,21,Ticks_Linear_5,84,5,42,127,2347272492
1088,21,Ticks_Linear_5,85,1,48,35,2347832028
1088,21,Ticks_Linear_5,86,5,42,127,2347833672
1088,21,Ticks_Linear_5,87,1,48,40,2348402444
1088,21,Ticks_Linear_5,88,5,42,127,2348404012
1088,21,Ticks_Linear_5,89,5,42,127,2348973660
1088,21,Ticks_Linear_5,90,1,48,39,2348999392
1088,21,Ticks_Linear_5,91,5,42,127,2349552896
1088,21,Ticks_Linear_5,92,1,48,40,2349558704
1088,21,Ticks_Linear_5,93,5,42,127,2350123584
1088,21,Ticks_Linear_5,94,1,48,36,2350134192
1088,21,Ticks_Linear_5,95,5,42,127,2350692656
1088,21,Ticks_Linear_5,96,1,48,38,2350721320
1088,21,Ticks_Linear_5,97,5,42,127,2351273532
1088,21,Ticks_Linear_5,98,1,48,36,2351297172
1088,21,Ticks_Linear_5,99,1,48,36,2351827924
1088,21,Ticks_Linear_5,100,5,42,127,2351853056
1088,21,Ticks_Linear_5,101,1,48,41,2352414496
1088,21,Ticks_Linear_5,102,5,42,127,2352432660
1088,21,Ticks_Linear_5,103,1,48,37,2353003568
1088,21,Ticks_Linear_5,104,5,42,127,2353013040
1088,21,Ticks_Linear_5,105,1,48,44,2353584064
1088,21,Ticks_Linear_5,106,5,42,127,2353592644
1088,21,Ticks_Linear_5,107,1,48,32,2354143604
1088,21,Ticks_Linear_5,108,5,42,127,2354182508
1088,21,Ticks_Linear_5,109,1,48,38,2354762904
1088,21,Ticks_Linear_5,110,5,42,127,2354773720
1088,21,Ticks_Linear_5,111,5,42,127,2355363320
1088,21,Ticks_Linear_5,112,1,48,38,2355388532
1088,21,Ticks_Linear_5,113,1,48,35,2355936512
1088,21,Ticks_Linear_5,114,5,42,127,2355953104
1088,21,Ticks_Linear_5,115,1,48,36,2356541768
1088,21,Ticks_Linear_5,116,5,42,127,2356543412
1088,21,Ticks_Linear_5,117,5,42,127,2357142972
1088,21,Ticks_Linear_5,118,1,48,40,2357171032
1088,21,Ticks_Linear_5,119,5,42,127,2357742872
1088,21,Ticks_Linear_5,120,1,48,39,2357761276
1088,21,Ticks_Linear_5,121,5,42,127,2358342996
1088,21,Ticks_Linear_5,122,1,48,35,2358366880
1088,21,Ticks_Linear_5,123,5,42,127,2358942992
1088,21,Ticks_Linear_5,124,1,48,38,2358962740
1088,21,Ticks_Linear_5,125,5,42,127,2359543040
1088,21,Ticks_Linear_5,126,1,48,34,2359545780
1088,21,Ticks_Linear_5,127,5,42,127,2360152600
1088,21,Ticks_Linear_5,128,1,48,35,2360158812
1088,21,Ticks_Linear_5,129,5,42,127,2360762708
1088,21,Ticks_Linear_5,130,1,48,42,2360776012
1088,21,Ticks_Linear_5,131,1,48,40,2361367724
1088,21,Ticks_Linear_5,132,5,42,127,2361373008
1088,21,Ticks_Linear_5,133,1,48,41,2361974540
1088,21,Ticks_Linear_5,134,5,42,127,2361983564
1088,21,Ticks_Linear_5,135,1,48,42,2362578032
1088,21,Ticks_Linear_5,136,5,42,127,2362592604
1088,21,Ticks_Linear_5,137,5,42,127,2363213324
1088,21,Ticks_Linear_5,138,1,48,35,2363228972
1088,21,Ticks_Linear_5,139,1,48,41,2363804512
1088,21,Ticks_Linear_5,140,5,42,127,2363832716
1088,21,Ticks_Linear_5,141,5,42,127,2364453360
1088,21,Ticks_Linear_5,142,1,48,36,2364457004
1088,21,Ticks_Linear_5,143,5,42,127,2365072680
1088,21,Ticks_Linear_5,144,1,48,45,2365074092
1088,21,Ticks_Linear_5,145,5,42,127,2365693324
1088,21,Ticks_Linear_5,146,1,48,45,2365702960
1088,21,Ticks_Linear_5,147,5,42,127,2366323052
1088,21,Ticks_Linear_5,148,1,48,38,2366331948
1088,21,Ticks_Linear_5,149,1,48,30,2366915788
1088,21,Ticks_Linear_5,150,5,42,127,2366952824
1088,21,Ticks_Linear_5,151,1,48,40,2367567584
1088,21,Ticks_Linear_5,152,5,42,127,2367582556
1088,21,Ticks_Linear_5,153,1,48,40,2368161824
1088,21,Ticks_Linear_5,154,5,42,127,2368213456
1088,21,Ticks_Linear_5,155,1,48,40,2368784108
1088,21,Ticks_Linear_5,156,5,42,127,2368843236
1088,21,Ticks_Linear_5,157,1,48,37,2369431892
1088,21,Ticks_Linear_5,158,5,42,127,2369483076
1088,21,Ticks_Linear_5,159,1,48,34,2370104652
1088,21,Ticks_Linear_5,160,5,42,127,2370123112
1088,21,Ticks_Linear_5,161,1,48,39,2370751384
1088,21,Ticks_Linear_5,162,5,42,127,2370763252
1088,21,Ticks_Linear_5,163,1,48,34,2371379728
1088,21,Ticks_Linear_5,164,5,42,127,2371403140
1088,21,Ticks_Linear_5,165,5,42,127,2372043284
1088,21,Ticks_Linear_5,166,1,48,37,2372052252
1088,21,Ticks_Linear_5,167,1,48,34,2372680496
1088,21,Ticks_Linear_5,168,5,42,127,2372693576
1088,21,Ticks_Linear_5,169,1,48,43,2373318844
1088,21,Ticks_Linear_5,170,5,42,127,2373342552
1088,21,Ticks_Linear_5,171,1,48,43,2373929448
1088,21,Ticks_Linear_5,172,5,42,127,2373992724
1088,21,Ticks_Linear_5,173,1,48,40,2374633552
1088,21,Ticks_Linear_5,174,5,42,127,2374643248
1088,21,Ticks_Linear_5,175,5,42,127,2375293280
1088,21,Ticks_Linear_5,176,1,48,44,2375297296
1088,21,Ticks_Linear_5,177,1,48,33,2375941364
1088,21,Ticks_Linear_5,178,5,42,127,2375952708
1088,21,Ticks_Linear_5,179,1,48,46,2376558424
1088,21,Ticks_Linear_5,180,5,42,127,2376613288
1088,21,Ticks_Linear_5,181,1,48,40,2377234336
1088,21,Ticks_Linear_5,182,5,42,127,2377272648
1088,21,Ticks_Linear_5,183,1,48,42,2377863020
1088,21,Ticks_Linear_5,184,5,42,127,2377933452
1088,21,Ticks_Linear_5,185,1,48,42,2378525148
1088,21,Ticks_Linear_5,186,5,42,127,2378592616
1088,21,Ticks_Linear_5,187,1,48,35,2379239344
1088,21,Ticks_Linear_5,188,5,42,127,2379263580
1088,21,Ticks_Linear_5,189,1,48,40,2379883088
1088,21,Ticks_Linear_5,190,5,42,127,2379933152
1088,21,Ticks_Linear_5,191,1,48,38,2380551216
1088,21,Ticks_Linear_5,192,5,42,127,2380602696
1088,21,Ticks_Linear_5,193,1,48,44,2381230520
1088,21,Ticks_Linear_5,194,5,42,127,2381272492
1088,21,Ticks_Linear_5,195,5,42,127,2381943336
1088,21,Ticks_Linear_5,196,1,48,46,2381945936
1088,21,Ticks_Linear_5,197,1,48,43,2382535472
1088,21,Ticks_Linear_5,198,5,42,127,2382623208
1088,21,Ticks_Linear_5,199,1,48,27,2383295356
1088,21,Ticks_Linear_5,200,5,42,127,2383303040
1088,21,Ticks_Linear_5,201,5,42,127,2383982876
1088,21,Ticks_Linear_5,202,1,48,40,2384008532
1088,21,Ticks_Linear_5,203,1,48,38,2384657160
1088,21,Ticks_Linear_5,204,5,42,127,2384662896
1088,21,Ticks_Linear_5,205,1,48,41,2385342052
1088,21,Ticks_Linear_5,206,5,42,127,2385343392
1088,21,Ticks_Linear_5,207,1,48,39,2385994624
1088,21,Ticks_Linear_5,208,5,42,127,2386033108
1088,21,Ticks_Linear_5,209,1,48,40,2386668760
1088,21,Ticks_Linear_5,210,5,42,127,2386723172
1088,21,Ticks_Linear_5,211,1,48,44,2387363424
1088,21,Ticks_Linear_5,212,5,42,127,2387413336
1088,21,Ticks_Linear_5,213,1,48,38,2388058224
1088,21,Ticks_Linear_5,214,5,42,127,2388102452
1088,21,Ticks_Linear_5,215,1,48,38,2388759144
1088,21,Ticks_Linear_5,216,5,42,127,2388792816
1088,21,Ticks_Linear_5,217,1,48,34,2389472604
1088,21,Ticks_Linear_5,218,5,42,127,2389493236
1088,21,Ticks_Linear_5,219,1,48,39,2390191788
1088,21,Ticks_Linear_5,220,5,42,127,2390193436
1088,21,Ticks_Linear_5,221,1,48,40,2390836428
1088,21,Ticks_Linear_5,222,5,42,127,2390893180
1088,21,Ticks_Linear_5,223,1,48,40,2391575188
1088,21,Ticks_Linear_5,224,5,42,127,2391593352
1088,21,Ticks_Linear_5,225,1,48,37,2392276512
1088,21,Ticks_Linear_5,226,5,42,127,2392292656
1088,21,Ticks_Linear_5,227,1,48,40,2392957168
1088,21,Ticks_Linear_5,228,5,42,127,2393003412
1088,21,Ticks_Linear_5,229,1,48,38,2393671644
1088,21,Ticks_Linear_5,230,5,42,127,2393713196
1088,21,Ticks_Linear_5,231,1,48,29,2394420700
1088,21,Ticks_Linear_5,232,5,42,127,2394422508
1088,21,Ticks_Linear_5,233,1,48,41,2395110076
1088,21,Ticks_Linear_5,234,5,42,127,2395133340
1088,21,Ticks_Linear_5,235,1,48,38,2395823088
1088,21,Ticks_Linear_5,236,5,42,127,2395843124
1088,21,Ticks_Linear_5,237,5,42,127,2396562876
1088,21,Ticks_Linear_5,238,1,48,37,2396581056
1088,21,Ticks_Linear_5,239,1,48,43,2397255660
1088,21,Ticks_Linear_5,240,5,42,127,2397282688
1088,21,Ticks_Linear_5,241,1,48,36,2397962680
1088,21,Ticks_Linear_5,242,5,42,127,2398002556
1088,21,Ticks_Linear_5,243,1,48,39,2398673212
1088,21,Ticks_Linear_5,244,5,42,127,2398722300
1088,21,Ticks_Linear_5,245,1,48,36,2399380516
1088,21,Ticks_Linear_5,246,5,42,127,2399443240
1088,21,Ticks_Linear_5,247,1,48,39,2400083240
1088,21,Ticks_Linear_5,248,5,42,127,2400173468
1088,21,Ticks_Linear_5,249,1,48,35,2400819152
1088,21,Ticks_Linear_5,250,5,42,127,2400913204
1088,21,Ticks_Linear_5,251,1,48,36,2401592752
1088,21,Ticks_Linear_5,252,5,42,127,2401642988
1088,21,Ticks_Linear_5,253,1,48,35,2402369324
1088,21,Ticks_Linear_5,254,5,42,127,2402373040
1088,21,Ticks_Linear_5,255,1,48,35,2403083832
1088,21,Ticks_Linear_5,256,5,42,127,2403103340
1088,21,Ticks_Linear_5,257,1,48,30,2403761268
1088,21,Ticks_Linear_5,258,5,42,127,2403842332
1088,21,Ticks_Linear_5,259,1,48,32,2404492392
1088,21,Ticks_Linear_5,260,5,42,127,2404582820
1088,21,Ticks_Linear_5,261,1,48,32,2405284696
1088,21,Ticks_Linear_5,262,5,42,127,2405323080
1088,21,Ticks_Linear_5,263,1,48,33,2406055216
1088,21,Ticks_Linear_5,264,5,42,127,2406062520
1088,21,Ticks_Linear_5,265,1,48,33,2406716068
1088,21,Ticks_Linear_5,266,5,42,127,2406803008
1088,21,Ticks_Linear_5,267,1,48,38,2407454912
1088,21,Ticks_Linear_5,268,5,42,127,2407553512
1088,21,Ticks_Linear_5,269,5,42,127,2408303308
1088,21,Ticks_Linear_5,270,1,48,38,2408328816
1088,21,Ticks_Linear_5,271,5,42,127,2409052636
1088,21,Ticks_Linear_5,272,1,48,39,2409099108
1088,21,Ticks_Linear_5,273,1,48,40,2409776948
1088,21,Ticks_Linear_5,274,5,42,127,2409803276
1088,21,Ticks_Linear_5,275,1,48,41,2410526048
1088,21,Ticks_Linear_5,276,5,42,127,2410552824
1088,21,Ticks_Linear_5,277,1,48,39,2411260092
1088,21,Ticks_Linear_5,278,5,42,127,2411312412
1088,21,Ticks_Linear_5,279,1,48,38,2411936104
1088,21,Ticks_Linear_5,280,5,42,127,2412073252
1088,21,Ticks_Linear_5,281,1,48,35,2412773800
1088,21,Ticks_Linear_5,282,5,42,127,2412833076
1088,21,Ticks_Linear_5,283,1,48,24,2413555772
1088,21,Ticks_Linear_5,284,5,42,127,2413593108
1088,21,Ticks_Linear_5,285,1,48,35,2414296708
1088,21,Ticks_Linear_5,286,5,42,127,2414352620
1088,21,Ticks_Linear_5,287,5,42,127,2415122992
1088,21,Ticks_Linear_5,288,1,48,37,2415129104
1088,21,Ticks_Linear_5,289,1,48,37,2415878480
1088,21,Ticks_Linear_5,290,5,42,127,2415892976
1088,21,Ticks_Linear_5,291,1,48,35,2416629076
1088,21,Ticks_Linear_5,292,5,42,127,2416662896
1088,21,Ticks_Linear_5,293,1,48,37,2417422516
1088,21,Ticks_Linear_5,294,5,42,127,2417433184
1088,21,Ticks_Linear_5,295,1,48,34,2418152140
1088,21,Ticks_Linear_5,296,5,42,127,2418203180
1088,21,Ticks_Linear_5,297,1,48,36,2418935164
1088,21,Ticks_Linear_5,298,5,42,127,2418983284
1088,21,Ticks_Linear_5,299,1,48,38,2419659320
1088,21,Ticks_Linear_5,300,5,42,127,2419762696
1088,21,Ticks_Linear_5,301,1,48,35,2420492676
1088,21,Ticks_Linear_5,302,5,42,127,2420542888
1088,21,Ticks_Linear_5,303,1,48,29,2421239668
1088,21,Ticks_Linear_5,304,5,42,127,2421323068
1088,21,Ticks_Linear_5,305,1,48,42,2422072356
1088,21,Ticks_Linear_5,306,5,42,127,2422103468
1088,21,Ticks_Linear_5,307,5,42,127,2422893116
1088,21,Ticks_Linear_5,308,1,48,43,2422901704
1088,21,Ticks_Linear_5,309,5,42,127,2423682428
1088,21,Ticks_Linear_5,310,1,48,35,2423752056
1088,21,Ticks_Linear_5,311,5,42,127,2424472940
1088,21,Ticks_Linear_5,312,1,48,35,2424543388
1088,21,Ticks_Linear_5,313,1,48,32,2425211884
1088,21,Ticks_Linear_5,314,5,42,127,2425262400
1088,21,Ticks_Linear_5,315,1,48,35,2425980444
1088,21,Ticks_Linear_5,316,5,42,127,2426052984
1088,21,Ticks_Linear_5,317,1,48,30,2426827056
1088,21,Ticks_Linear_5,318,5,42,127,2426852784
1088,21,Ticks_Linear_5,319,1,48,37,2427651380
1088,21,Ticks_Linear_5,320,5,42,127,2427652952
1088,21,Ticks_Linear_5,321,1,48,37,2428431600
1088,21,Ticks_Linear_5,322,5,42,127,2428453128
1088,21,Ticks_Linear_5,323,5,42,127,2429252932
1088,21,Ticks_Linear_5,324,1,48,39,2429283564
1088,21,Ticks_Linear_5,325,1,48,35,2430050864
1088,21,Ticks_Linear_5,326,5,42,127,2430052672
1088,21,Ticks_Linear_5,327,1,48,40,2430829884
1088,21,Ticks_Linear_5,328,5,42,127,2430862880
1088,21,Ticks_Linear_5,329,1,48,32,2431635676
1088,21,Ticks_Linear_5,330,5,42,127,2431672860
1088,21,Ticks_Linear_5,331,1,48,39,2432456068
1088,21,Ticks_Linear_5,332,5,42,127,2432482696
1088,21,Ticks_Linear_5,333,1,48,34,2433221424
1088,21,Ticks_Linear_5,334,5,42,127,2433292752
1088,21,Ticks_Linear_5,335,1,48,22,2434023916
1088,21,Ticks_Linear_5,336,5,42,127,2434102884
1088,21,Ticks_Linear_5,0,9999,9999,9999,2324910140
1088,21,Ticks_Linear_5,1,9999,9999,9999,2325390392
1088,21,Ticks_Linear_5,2,9999,9999,9999,2325870716
1088,21,Ticks_Linear_5,3,9999,9999,9999,2326350940
1088,21,Ticks_Linear_5,4,9999,9999,9999,2326830188
1088,21,Ticks_Linear_5,5,9999,9999,9999,2327320680
1088,21,Ticks_Linear_5,6,9999,9999,9999,2327810124
1088,21,Ticks_Linear_5,7,9999,9999,9999,2328300608
1088,21,Ticks_Linear_5,8,9999,9999,9999,2328790124
1088,21,Ticks_Linear_5,9,9999,9999,9999,2329280616
1088,21,Ticks_Linear_5,10,9999,9999,9999,2329780312
1088,21,Ticks_Linear_5,11,9999,9999,9999,2330281060
1088,21,Ticks_Linear_5,12,9999,9999,9999,2330780760
1088,21,Ticks_Linear_5,13,9999,9999,9999,2331280460
1088,21,Ticks_Linear_5,14,9999,9999,9999,2331780160
1088,21,Ticks_Linear_5,15,9999,9999,9999,2332290120
1088,21,Ticks_Linear_5,16,9999,9999,9999,2332800080
1088,21,Ticks_Linear_5,17,9999,9999,9999,2333311084
1088,21,Ticks_Linear_5,18,9999,9999,9999,2333821044
1088,21,Ticks_Linear_5,19,9999,9999,9999,2334331004
1088,21,Ticks_Linear_5,20,9999,9999,9999,2334850176
1088,21,Ticks_Linear_5,21,9999,9999,9999,2335370320
1088,21,Ticks_Linear_5,22,9999,9999,9999,2335890536
1088,21,Ticks_Linear_5,23,9999,9999,9999,2336410684
1088,21,Ticks_Linear_5,24,9999,9999,9999,2336930896
1088,21,Ticks_Linear_5,25,9999,9999,9999,2337460328
1088,21,Ticks_Linear_5,26,9999,9999,9999,2337990732
1088,21,Ticks_Linear_5,27,9999,9999,9999,2338520160
1088,21,Ticks_Linear_5,28,9999,9999,9999,2339050564
1088,21,Ticks_Linear_5,29,9999,9999,9999,2339581040
1088,21,Ticks_Linear_5,30,9999,9999,9999,2340120656
1088,21,Ticks_Linear_5,31,9999,9999,9999,2340660344
1088,21,Ticks_Linear_5,32,9999,9999,9999,2341201004
1088,21,Ticks_Linear_5,33,9999,9999,9999,2341740652
1088,21,Ticks_Linear_5,34,9999,9999,9999,2342280268
1088,21,Ticks_Linear_5,35,9999,9999,9999,2342830136
1088,21,Ticks_Linear_5,36,9999,9999,9999,2343381056
1088,21,Ticks_Linear_5,37,9999,9999,9999,2343931004
1088,21,Ticks_Linear_5,38,9999,9999,9999,2344480880
1088,21,Ticks_Linear_5,39,9999,9999,9999,2345030752
1088,21,Ticks_Linear_5,40,9999,9999,9999,2345590912
1088,21,Ticks_Linear_5,41,9999,9999,9999,2346150968
1088,21,Ticks_Linear_5,42,9999,9999,9999,2346710132
1088,21,Ticks_Linear_5,43,9999,9999,9999,2347270268
1088,21,Ticks_Linear_5,44,9999,9999,9999,2347830332
1088,21,Ticks_Linear_5,45,9999,9999,9999,2348400748
1088,21,Ticks_Linear_5,46,9999,9999,9999,2348971064
1088,21,Ticks_Linear_5,47,9999,9999,9999,2349550672
1088,21,Ticks_Linear_5,48,9999,9999,9999,2350121060
1088,21,Ticks_Linear_5,49,9999,9999,9999,2350690356
1088,21,Ticks_Linear_5,50,9999,9999,9999,2351271012
1088,21,Ticks_Linear_5,51,9999,9999,9999,2351850608
1088,21,Ticks_Linear_5,52,9999,9999,9999,2352430140
1088,21,Ticks_Linear_5,53,9999,9999,9999,2353010740
1088,21,Ticks_Linear_5,54,9999,9999,9999,2353590348
1088,21,Ticks_Linear_5,55,9999,9999,9999,2354180212
1088,21,Ticks_Linear_5,56,9999,9999,9999,2354771048
1088,21,Ticks_Linear_5,57,9999,9999,9999,2355360872
1088,21,Ticks_Linear_5,58,9999,9999,9999,2355950656
1088,21,Ticks_Linear_5,59,9999,9999,9999,2356540524
1088,21,Ticks_Linear_5,60,9999,9999,9999,2357140600
1088,21,Ticks_Linear_5,61,9999,9999,9999,2357740648
1088,21,Ticks_Linear_5,62,9999,9999,9999,2358340696
1088,21,Ticks_Linear_5,63,9999,9999,9999,2358940768
1088,21,Ticks_Linear_5,64,9999,9999,9999,2359540816
1088,21,Ticks_Linear_5,65,9999,9999,9999,2360150076
1088,21,Ticks_Linear_5,66,9999,9999,9999,2360760412
1088,21,Ticks_Linear_5,67,9999,9999,9999,2361370712
1088,21,Ticks_Linear_5,68,9999,9999,9999,2361981044
1088,21,Ticks_Linear_5,69,9999,9999,9999,2362590304
1088,21,Ticks_Linear_5,70,9999,9999,9999,2363210880
1088,21,Ticks_Linear_5,71,9999,9999,9999,2363830344
1088,21,Ticks_Linear_5,72,9999,9999,9999,2364450912
1088,21,Ticks_Linear_5,73,9999,9999,9999,2365070456
1088,21,Ticks_Linear_5,74,9999,9999,9999,2365690948
1088,21,Ticks_Linear_5,75,9999,9999,9999,2366320756
1088,21,Ticks_Linear_5,76,9999,9999,9999,2366950528
1088,21,Ticks_Linear_5,77,9999,9999,9999,2367580256
1088,21,Ticks_Linear_5,78,9999,9999,9999,2368211008
1088,21,Ticks_Linear_5,79,9999,9999,9999,2368840788
1088,21,Ticks_Linear_5,80,9999,9999,9999,2369480776
1088,21,Ticks_Linear_5,81,9999,9999,9999,2370120816
1088,21,Ticks_Linear_5,82,9999,9999,9999,2370760804
1088,21,Ticks_Linear_5,83,9999,9999,9999,2371400768
1088,21,Ticks_Linear_5,84,9999,9999,9999,2372040764
1088,21,Ticks_Linear_5,85,9999,9999,9999,2372691052
1088,21,Ticks_Linear_5,86,9999,9999,9999,2373340256
1088,21,Ticks_Linear_5,87,9999,9999,9999,2373990500
1088,21,Ticks_Linear_5,88,9999,9999,9999,2374640724
1088,21,Ticks_Linear_5,89,9999,9999,9999,2375290980
1088,21,Ticks_Linear_5,90,9999,9999,9999,2375950408
1088,21,Ticks_Linear_5,91,9999,9999,9999,2376610916
1088,21,Ticks_Linear_5,92,9999,9999,9999,2377270352
1088,21,Ticks_Linear_5,93,9999,9999,9999,2377930856
1088,21,Ticks_Linear_5,94,9999,9999,9999,2378590316
1088,21,Ticks_Linear_5,95,9999,9999,9999,2379260984
1088,21,Ticks_Linear_5,96,9999,9999,9999,2379930704
1088,21,Ticks_Linear_5,97,9999,9999,9999,2380600400
1088,21,Ticks_Linear_5,98,9999,9999,9999,2381270120
1088,21,Ticks_Linear_5,99,9999,9999,9999,2381940816
1088,21,Ticks_Linear_5,100,9999,9999,9999,2382620760
1088,21,Ticks_Linear_5,101,9999,9999,9999,2383300668
1088,21,Ticks_Linear_5,102,9999,9999,9999,2383980652
1088,21,Ticks_Linear_5,103,9999,9999,9999,2384660596
1088,21,Ticks_Linear_5,104,9999,9999,9999,2385340508
1088,21,Ticks_Linear_5,105,9999,9999,9999,2386030664
1088,21,Ticks_Linear_5,106,9999,9999,9999,2386720876
1088,21,Ticks_Linear_5,107,9999,9999,9999,2387411040
1088,21,Ticks_Linear_5,108,9999,9999,9999,2388100152
1088,21,Ticks_Linear_5,109,9999,9999,9999,2388790368
1088,21,Ticks_Linear_5,110,9999,9999,9999,2389490788
1088,21,Ticks_Linear_5,111,9999,9999,9999,2390190172
1088,21,Ticks_Linear_5,112,9999,9999,9999,2390890584
1088,21,Ticks_Linear_5,113,9999,9999,9999,2391590980
1088,21,Ticks_Linear_5,114,9999,9999,9999,2392290360
1088,21,Ticks_Linear_5,115,9999,9999,9999,2393001040
1088,21,Ticks_Linear_5,116,9999,9999,9999,2393710676
1088,21,Ticks_Linear_5,117,9999,9999,9999,2394420308
1088,21,Ticks_Linear_5,118,9999,9999,9999,2395130968
1088,21,Ticks_Linear_5,119,9999,9999,9999,2395840604
1088,21,Ticks_Linear_5,120,9999,9999,9999,2396560504
1088,21,Ticks_Linear_5,121,9999,9999,9999,2397280316
1088,21,Ticks_Linear_5,122,9999,9999,9999,2398000184
1088,21,Ticks_Linear_5,123,9999,9999,9999,2398720080
1088,21,Ticks_Linear_5,124,9999,9999,9999,2399441016
1088,21,Ticks_Linear_5,125,9999,9999,9999,2400171096
1088,21,Ticks_Linear_5,126,9999,9999,9999,2400910460
1088,21,Ticks_Linear_5,127,9999,9999,9999,2401640540
1088,21,Ticks_Linear_5,128,9999,9999,9999,2402370668
1088,21,Ticks_Linear_5,129,9999,9999,9999,2403100744
1088,21,Ticks_Linear_5,130,9999,9999,9999,2403840108
1088,21,Ticks_Linear_5,131,9999,9999,9999,2404580444
1088,21,Ticks_Linear_5,132,9999,9999,9999,2405320780
1088,21,Ticks_Linear_5,133,9999,9999,9999,2406060148
1088,21,Ticks_Linear_5,134,9999,9999,9999,2406800484
1088,21,Ticks_Linear_5,135,9999,9999,9999,2407551064
1088,21,Ticks_Linear_5,136,9999,9999,9999,2408300636
1088,21,Ticks_Linear_5,137,9999,9999,9999,2409050188
1088,21,Ticks_Linear_5,138,9999,9999,9999,2409800828
1088,21,Ticks_Linear_5,139,9999,9999,9999,2410550376
1088,21,Ticks_Linear_5,140,9999,9999,9999,2411310188
1088,21,Ticks_Linear_5,141,9999,9999,9999,2412071028
1088,21,Ticks_Linear_5,142,9999,9999,9999,2412830776
1088,21,Ticks_Linear_5,143,9999,9999,9999,2413590584
1088,21,Ticks_Linear_5,144,9999,9999,9999,2414350396
1088,21,Ticks_Linear_5,145,9999,9999,9999,2415120468
1088,21,Ticks_Linear_5,146,9999,9999,9999,2415890528
1088,21,Ticks_Linear_5,147,9999,9999,9999,2416660596
1088,21,Ticks_Linear_5,148,9999,9999,9999,2417430588
1088,21,Ticks_Linear_5,149,9999,9999,9999,2418200656
1088,21,Ticks_Linear_5,150,9999,9999,9999,2418980984
1088,21,Ticks_Linear_5,151,9999,9999,9999,2419760248
1088,21,Ticks_Linear_5,152,9999,9999,9999,2420540516
1088,21,Ticks_Linear_5,153,9999,9999,9999,2421320768
1088,21,Ticks_Linear_5,154,9999,9999,9999,2422101096
1088,21,Ticks_Linear_5,155,9999,9999,9999,2422890592
1088,21,Ticks_Linear_5,156,9999,9999,9999,2423680056
1088,21,Ticks_Linear_5,157,9999,9999,9999,2424470644
1088,21,Ticks_Linear_5,158,9999,9999,9999,2425260100
1088,21,Ticks_Linear_5,159,9999,9999,9999,2426050688
1088,21,Ticks_Linear_5,160,9999,9999,9999,2426850412
1088,21,Ticks_Linear_5,161,9999,9999,9999,2427650140
1088,21,Ticks_Linear_5,162,9999,9999,9999,2428450904
1088,21,Ticks_Linear_5,163,9999,9999,9999,2429250632
1088,21,Ticks_Linear_5,164,9999,9999,9999,2430050400
1088,21,Ticks_Linear_5,165,9999,9999,9999,2430860360
1088,21,Ticks_Linear_5,166,9999,9999,9999,2431670340
1088,21,Ticks_Linear_5,167,9999,9999,9999,2432480324
1088,21,Ticks_Linear_5,168,9999,9999,9999,2433290308
1088,21,Ticks_Linear_5,169,9999,9999,9999,2434100288
1089,22,Ticks_Phase_8,0,5,42,127,2444188968
1089,22,Ticks_Phase_8,1,5,42,127,2444988776
1089,22,Ticks_Phase_8,2,5,42,127,2445788584
1089,22,Ticks_Phase_8,3,1,48,38,2445839632
1089,22,Ticks_Phase_8,4,1,48,44,2446531564
1089,22,Ticks_Phase_8,5,5,42,127,2446589184
1089,22,Ticks_Phase_8,6,1,48,46,2447317208
1089,22,Ticks_Phase_8,7,5,42,127,2447389120
1089,22,Ticks_Phase_8,8,1,48,46,2448130912
1089,22,Ticks_Phase_8,9,5,42,127,2448188756
1089,22,Ticks_Phase_8,10,1,48,50,2448958260
1089,22,Ticks_Phase_8,11,5,42,127,2448988640
1089,22,Ticks_Phase_8,12,1,48,51,2449773192
1089,22,Ticks_Phase_8,13,5,42,127,2449789176
1089,22,Ticks_Phase_8,14,1,48,45,2450536596
1089,22,Ticks_Phase_8,15,5,42,127,2450589036
1089,22,Ticks_Phase_8,16,1,48,43,2451367156
1089,22,Ticks_Phase_8,17,5,42,127,2451388896
1089,22,Ticks_Phase_8,18,1,48,38,2452155696
1089,22,Ticks_Phase_8,19,5,42,127,2452188680
1089,22,Ticks_Phase_8,20,1,48,36,2452928684
1089,22,Ticks_Phase_8,21,5,42,127,2452989292
1089,22,Ticks_Phase_8,22,1,48,38,2453760668
1089,22,Ticks_Phase_8,23,5,42,127,2453789004
1089,22,Ticks_Phase_8,24,5,42,127,2454588796
1089,22,Ticks_Phase_8,25,1,48,44,2454605092
1089,22,Ticks_Phase_8,26,1,48,31,2455385200
1089,22,Ticks_Phase_8,27,5,42,127,2455388824
1089,22,Ticks_Phase_8,28,1,48,48,2456175772
1089,22,Ticks_Phase_8,29,5,42,127,2456189284
1089,22,Ticks_Phase_8,30,5,42,127,2456988928
1089,22,Ticks_Phase_8,31,1,48,40,2457027852
1089,22,Ticks_Phase_8,32,5,42,127,2457788940
1089,22,Ticks_Phase_8,33,1,48,44,2457805604
1089,22,Ticks_Phase_8,34,1,48,40,2458576696
1089,22,Ticks_Phase_8,35,5,42,127,2458588716
1089,22,Ticks_Phase_8,36,1,48,43,2459351108
1089,22,Ticks_Phase_8,37,5,42,127,2459389400
1089,22,Ticks_Phase_8,38,1,48,43,2460168940
1089,22,Ticks_Phase_8,39,5,42,127,2460189188
1089,22,Ticks_Phase_8,40,5,42,127,2460988756
1089,22,Ticks_Phase_8,41,1,48,35,2461017368
1089,22,Ticks_Phase_8,42,1,48,36,2461730096
1089,22,Ticks_Phase_8,43,5,42,127,2461788708
1089,22,Ticks_Phase_8,44,1,48,36,2462565696
1089,22,Ticks_Phase_8,45,5,42,127,2462589244
1089,22,Ticks_Phase_8,46,1,48,42,2463339056
1089,22,Ticks_Phase_8,47,5,42,127,2463389104
1089,22,Ticks_Phase_8,48,1,48,37,2464129184
1089,22,Ticks_Phase_8,49,5,42,127,2464188816
1089,22,Ticks_Phase_8,50,1,48,43,2464962432
1089,22,Ticks_Phase_8,51,5,42,127,2464988752
1089,22,Ticks_Phase_8,52,1,48,38,2465757440
1089,22,Ticks_Phase_8,53,5,42,127,2465789288
1089,22,Ticks_Phase_8,54,1,48,35,2466573092
1089,22,Ticks_Phase_8,55,5,42,127,2466589004
1089,22,Ticks_Phase_8,56,1,48,43,2467364488
1089,22,Ticks_Phase_8,57,5,42,127,2467388788
1089,22,Ticks_Phase_8,58,1,48,42,2468148636
1089,22,Ticks_Phase_8,59,5,42,127,2468169032
1089,22,Ticks_Phase_8,60,1,48,35,2468959752
1089,22,Ticks_Phase_8,61,5,42,127,2468968768
1089,22,Ticks_Phase_8,62,5,42,127,2469768488
1089,22,Ticks_Phase_8,63,1,48,42,2469776164
1089,22,Ticks_Phase_8,64,1,48,39,2470545464
1089,22,Ticks_Phase_8,65,5,42,127,2470569608
1089,22,Ticks_Phase_8,66,1,48,38,2471332596
1089,22,Ticks_Phase_8,67,5,42,127,2471369100
1089,22,Ticks_Phase_8,68,5,42,127,2472168892
1089,22,Ticks_Phase_8,69,1,48,41,2472192084
1089,22,Ticks_Phase_8,70,1,48,38,2472952016
1089,22,Ticks_Phase_8,71,5,42,127,2472968524
1089,22,Ticks_Phase_8,72,1,48,45,2473711440
1089,22,Ticks_Phase_8,73,5,42,127,2473769508
1089,22,Ticks_Phase_8,74,1,48,52,2474526420
1089,22,Ticks_Phase_8,75,5,42,127,2474568996
1089,22,Ticks_Phase_8,76,1,48,47,2475334520
1089,22,Ticks_Phase_8,77,5,42,127,2475368956
1089,22,Ticks_Phase_8,78,1,48,49,2476117008
1089,22,Ticks_Phase_8,79,5,42,127,2476168516
1089,22,Ticks_Phase_8,80,5,42,127,2476969580
1089,22,Ticks_Phase_8,81,1,48,48,2476978168
1089,22,Ticks_Phase_8,82,1,48,41,2477756612
1089,22,Ticks_Phase_8,83,5,42,127,2477769064
1089,22,Ticks_Phase_8,84,5,42,127,2478568780
1089,22,Ticks_Phase_8,85,1,48,45,2478588304
1089,22,Ticks_Phase_8,86,5,42,127,2479368564
1089,22,Ticks_Phase_8,87,1,48,45,2479375720
1089,22,Ticks_Phase_8,88,5,42,127,2480169324
1089,22,Ticks_Phase_8,89,1,48,52,2480170288
1089,22,Ticks_Phase_8,90,1,48,48,2480950876
1089,22,Ticks_Phase_8,91,5,42,127,2480969032
1089,22,Ticks_Phase_8,92,1,48,46,2481738764
1089,22,Ticks_Phase_8,93,5,42,127,2481768768
1089,22,Ticks_Phase_8,94,1,48,44,2482540668
1089,22,Ticks_Phase_8,95,5,42,127,2482588996
1089,22,Ticks_Phase_8,96,1,48,42,2483327800
1089,22,Ticks_Phase_8,97,5,42,127,2483388860
1089,22,Ticks_Phase_8,98,1,48,47,2484140012
1089,22,Ticks_Phase_8,99,5,42,127,2484188568
1089,22,Ticks_Phase_8,100,1,48,46,2484943916
1089,22,Ticks_Phase_8,101,5,42,127,2484989328
1089,22,Ticks_Phase_8,102,1,48,45,2485714864
1089,22,Ticks_Phase_8,103,5,42,127,2485788892
1089,22,Ticks_Phase_8,104,1,48,38,2486577716
1089,22,Ticks_Phase_8,105,5,42,127,2486588752
1089,22,Ticks_Phase_8,106,1,48,40,2487321184
1089,22,Ticks_Phase_8,107,5,42,127,2487388564
1089,22,Ticks_Phase_8,108,1,48,41,2488100080
1089,22,Ticks_Phase_8,109,5,42,127,2488189320
1089,22,Ticks_Phase_8,110,1,48,32,2488968492
1089,22,Ticks_Phase_8,111,5,42,127,2488988960
1089,22,Ticks_Phase_8,112,1,48,28,2489750448
1089,22,Ticks_Phase_8,113,5,42,127,2489788748
1089,22,Ticks_Phase_8,114,1,48,40,2490548368
1089,22,Ticks_Phase_8,115,5,42,127,2490588608
1089,22,Ticks_Phase_8,116,1,48,38,2491332348
1089,22,Ticks_Phase_8,117,5,42,127,2491389296
1089,22,Ticks_Phase_8,118,1,48,32,2492127500
1089,22,Ticks_Phase_8,119,5,42,127,2492189004
1089,22,Ticks_Phase_8,120,1,48,34,2492926148
1089,22,Ticks_Phase_8,121,5,42,127,2492988868
1089,22,Ticks_Phase_8,122,1,48,36,2493735744
1089,22,Ticks_Phase_8,123,5,42,127,2493788456
1089,22,Ticks_Phase_8,124,5,42,127,2494589444
1089,22,Ticks_Phase_8,125,1,48,39,2494599384
1089,22,Ticks_Phase_8,126,1,48,39,2495398556
1089,22,Ticks_Phase_8,127,5,42,127,2495428840
1089,22,Ticks_Phase_8,128,1,48,40,2496176168
1089,22,Ticks_Phase_8,129,5,42,127,2496228700
1089,22,Ticks_Phase_8,130,1,48,38,2497013852
1089,22,Ticks_Phase_8,131,5,42,127,2497028412
1089,22,Ticks_Phase_8,132,5,42,127,2497829324
1089,22,Ticks_Phase_8,133,1,48,29,2497836028
1089,22,Ticks_Phase_8,134,5,42,127,2498629112
1089,22,Ticks_Phase_8,135,1,48,32,2498661388
1089,22,Ticks_Phase_8,136,5,42,127,2499428848
1089,22,Ticks_Phase_8,137,1,48,27,2499451660
1089,22,Ticks_Phase_8,138,5,42,127,2500228412
1089,22,Ticks_Phase_8,139,1,48,31,2500255484
1089,22,Ticks_Phase_8,140,1,48,35,2501013028
1089,22,Ticks_Phase_8,141,5,42,127,2501029384
1089,22,Ticks_Phase_8,142,1,48,34,2501769160
1089,22,Ticks_Phase_8,143,5,42,127,2501829096
1089,22,Ticks_Phase_8,144,1,48,39,2502535164
1089,22,Ticks_Phase_8,145,5,42,127,2502628588
1089,22,Ticks_Phase_8,146,1,48,37,2503414704
1089,22,Ticks_Phase_8,147,5,42,127,2503428524
1089,22,Ticks_Phase_8,148,5,42,127,2504229288
1089,22,Ticks_Phase_8,149,1,48,38,2504296376
1089,22,Ticks_Phase_8,150,5,42,127,2505028924
1089,22,Ticks_Phase_8,151,1,48,32,2505111676
1089,22,Ticks_Phase_8,152,5,42,127,2505828664
1089,22,Ticks_Phase_8,153,1,48,36,2505871472
1089,22,Ticks_Phase_8,154,5,42,127,2506628524
1089,22,Ticks_Phase_8,155,1,48,46,2506654028
1089,22,Ticks_Phase_8,156,1,48,41,2507425872
1089,22,Ticks_Phase_8,157,5,42,127,2507429276
1089,22,Ticks_Phase_8,158,5,42,127,2508228844
1089,22,Ticks_Phase_8,159,1,48,42,2508239456
1089,22,Ticks_Phase_8,160,1,48,38,2508966724
1089,22,Ticks_Phase_8,161,5,42,127,2508989008
1089,22,Ticks_Phase_8,162,1,48,36,2509746684
1089,22,Ticks_Phase_8,163,5,42,127,2509788424
1089,22,Ticks_Phase_8,164,1,48,40,2510585924
1089,22,Ticks_Phase_8,165,5,42,127,2510589476
1089,22,Ticks_Phase_8,166,1,48,38,2511348424
1089,22,Ticks_Phase_8,167,5,42,127,2511389340
1089,22,Ticks_Phase_8,168,1,48,38,2512135844
1089,22,Ticks_Phase_8,169,5,42,127,2512188756
1089,22,Ticks_Phase_8,170,5,42,127,2512988572
1089,22,Ticks_Phase_8,171,1,48,36,2513000756
1089,22,Ticks_Phase_8,172,1,48,31,2513786740
1089,22,Ticks_Phase_8,173,5,42,127,2513789328
1089,22,Ticks_Phase_8,174,1,48,36,2514530220
1089,22,Ticks_Phase_8,175,5,42,127,2514589336
1089,22,Ticks_Phase_8,176,1,48,30,2515338624
1089,22,Ticks_Phase_8,177,5,42,127,2515388752
1089,22,Ticks_Phase_8,178,5,42,127,2516188544
1089,22,Ticks_Phase_8,179,1,48,33,2516204988
1089,22,Ticks_Phase_8,180,1,48,30,2516981328
1089,22,Ticks_Phase_8,181,5,42,127,2516989444
1089,22,Ticks_Phase_8,182,1,48,34,2517756840
1089,22,Ticks_Phase_8,183,5,42,127,2517789156
1089,22,Ticks_Phase_8,184,1,48,42,2518486008
1089,22,Ticks_Phase_8,185,5,42,127,2518588852
1089,22,Ticks_Phase_8,186,1,48,38,2519334848
1089,22,Ticks_Phase_8,187,5,42,127,2519388604
1089,22,Ticks_Phase_8,188,1,48,29,2520138988
1089,22,Ticks_Phase_8,189,5,42,127,2520189288
1089,22,Ticks_Phase_8,190,1,48,36,2520929960
1089,22,Ticks_Phase_8,191,5,42,127,2520989152
1089,22,Ticks_Phase_8,192,5,42,127,2521709116
1089,22,Ticks_Phase_8,193,1,48,28,2521718156
1089,22,Ticks_Phase_8,194,1,48,33,2522496368
1089,22,Ticks_Phase_8,195,5,42,127,2522508596
1089,22,Ticks_Phase_8,196,5,42,127,2523309364
1089,22,Ticks_Phase_8,197,1,48,28,2523317356
1089,22,Ticks_Phase_8,198,1,48,39,2524115468
1089,22,Ticks_Phase_8,199,5,42,127,2524119624
1089,22,Ticks_Phase_8,200,1,48,38,2524891600
1089,22,Ticks_Phase_8,201,5,42,127,2524919188
1089,22,Ticks_Phase_8,202,1,48,34,2525714672
1089,22,Ticks_Phase_8,203,5,42,127,2525719124
1089,22,Ticks_Phase_8,204,1,48,37,2526494764
1089,22,Ticks_Phase_8,205,5,42,127,2526518612
1089,22,Ticks_Phase_8,206,1,48,46,2527312672
1089,22,Ticks_Phase_8,207,5,42,127,2527319320
1089,22,Ticks_Phase_8,208,5,42,127,2528119188
1089,22,Ticks_Phase_8,209,1,48,48,2528150916
1089,22,Ticks_Phase_8,210,1,48,37,2528911896
1089,22,Ticks_Phase_8,211,5,42,127,2528919264
1089,22,Ticks_Phase_8,212,1,48,31,2529715196
1089,22,Ticks_Phase_8,213,5,42,127,2529718756
1089,22,Ticks_Phase_8,214,1,48,44,2530502932
1089,22,Ticks_Phase_8,215,5,42,127,2530519436
1089,22,Ticks_Phase_8,216,1,48,35,2531271792
1089,22,Ticks_Phase_8,217,5,42,127,2531319148
1089,22,Ticks_Phase_8,218,1,48,39,2532114108
1089,22,Ticks_Phase_8,219,5,42,127,2532119008
1089,22,Ticks_Phase_8,220,1,48,34,2532885884
1089,22,Ticks_Phase_8,221,5,42,127,2532918572
1089,22,Ticks_Phase_8,222,1,48,38,2533683280
1089,22,Ticks_Phase_8,223,5,42,127,2533719356
1089,22,Ticks_Phase_8,224,1,48,42,2534476468
1089,22,Ticks_Phase_8,225,5,42,127,2534519144
1089,22,Ticks_Phase_8,226,1,48,41,2535272472
1089,22,Ticks_Phase_8,227,5,42,127,2535398896
1089,22,Ticks_Phase_8,228,5,42,127,2536198480
1089,22,Ticks_Phase_8,229,1,48,46,2536209092
1089,22,Ticks_Phase_8,230,5,42,127,2536999164
1089,22,Ticks_Phase_8,231,1,48,39,2537013812
1089,22,Ticks_Phase_8,232,5,42,127,2537799100
1089,22,Ticks_Phase_8,233,1,48,38,2537878480
1089,22,Ticks_Phase_8,234,1,48,45,2538568668
1089,22,Ticks_Phase_8,235,5,42,127,2538598828
1089,22,Ticks_Phase_8,236,5,42,127,2539398548
1089,22,Ticks_Phase_8,237,1,48,36,2539414316
1089,22,Ticks_Phase_8,238,5,42,127,2540199156
1089,22,Ticks_Phase_8,239,1,48,41,2540236344
1089,22,Ticks_Phase_8,240,5,42,127,2540998944
1089,22,Ticks_Phase_8,241,1,48,38,2540999908
1089,22,Ticks_Phase_8,242,1,48,37,2541797524
1089,22,Ticks_Phase_8,243,5,42,127,2541799168
1089,22,Ticks_Phase_8,244,5,42,127,2542598440
1089,22,Ticks_Phase_8,245,1,48,39,2542628668
1089,22,Ticks_Phase_8,246,1,48,39,2543379768
1089,22,Ticks_Phase_8,247,5,42,127,2543399192
1089,22,Ticks_Phase_8,248,5,42,127,2544198984
1089,22,Ticks_Phase_8,249,1,48,43,2544202696
1089,22,Ticks_Phase_8,250,1,48,38,2544971028
1089,22,Ticks_Phase_8,251,5,42,127,2544999012
1089,22,Ticks_Phase_8,252,1,48,40,2545780644
1089,22,Ticks_Phase_8,253,5,42,127,2545798576
1089,22,Ticks_Phase_8,254,1,48,35,2546563428
1089,22,Ticks_Phase_8,255,5,42,127,2546599408
1089,22,Ticks_Phase_8,256,1,48,41,2547365160
1089,22,Ticks_Phase_8,257,5,42,127,2547398972
1089,22,Ticks_Phase_8,258,5,42,127,2548199060
1089,22,Ticks_Phase_8,259,1,48,38,2548208404
1089,22,Ticks_Phase_8,260,1,48,38,2548999864
1089,22,Ticks_Phase_8,261,5,42,127,2549159336
1089,22,Ticks_Phase_8,262,5,42,127,2549958920
1089,22,Ticks_Phase_8,263,1,48,34,2550037756
1089,22,Ticks_Phase_8,264,5,42,127,2550759004
1089,22,Ticks_Phase_8,265,1,48,39,2550768344
1089,22,Ticks_Phase_8,266,5,42,127,2551558568
1089,22,Ticks_Phase_8,267,1,48,30,2551590668
1089,22,Ticks_Phase_8,268,5,42,127,2552359400
1089,22,Ticks_Phase_8,269,1,48,29,2552378324
1089,22,Ticks_Phase_8,270,1,48,33,2553156148
1089,22,Ticks_Phase_8,271,5,42,127,2553158956
1089,22,Ticks_Phase_8,272,5,42,127,2553958924
1089,22,Ticks_Phase_8,273,1,48,28,2553964660
1089,22,Ticks_Phase_8,274,5,42,127,2554758412
1089,22,Ticks_Phase_8,275,1,48,22,2554776964
1089,22,Ticks_Phase_8,276,1,48,24,2555539140
1089,22,Ticks_Phase_8,277,5,42,127,2555559236
1089,22,Ticks_Phase_8,278,1,48,22,2556258576
1089,22,Ticks_Phase_8,279,5,42,127,2556359008
1089,22,Ticks_Phase_8,280,1,48,30,2557146580
1089,22,Ticks_Phase_8,281,5,42,127,2557158884
1089,22,Ticks_Phase_8,282,1,48,31,2557951080
1089,22,Ticks_Phase_8,283,5,42,127,2557958448
1089,22,Ticks_Phase_8,284,1,48,33,2558752212
1089,22,Ticks_Phase_8,285,5,42,127,2558759132
1089,22,Ticks_Phase_8,286,5,42,127,2559558928
1089,22,Ticks_Phase_8,287,1,48,37,2559566824
1089,22,Ticks_Phase_8,288,1,48,39,2560322424
1089,22,Ticks_Phase_8,289,5,42,127,2560358880
1089,22,Ticks_Phase_8,290,1,48,46,2561106800
1089,22,Ticks_Phase_8,291,5,42,127,2561158816
1089,22,Ticks_Phase_8,292,5,42,127,2561959284
1089,22,Ticks_Phase_8,293,1,48,43,2561988392
1089,22,Ticks_Phase_8,294,5,42,127,2562758996
1089,22,Ticks_Phase_8,295,1,48,44,2562837908
1089,22,Ticks_Phase_8,296,1,48,32,2563554916
1089,22,Ticks_Phase_8,297,5,42,127,2563558624
1089,22,Ticks_Phase_8,298,5,42,127,2564198684
1089,22,Ticks_Phase_8,299,1,48,42,2564376824
1089,22,Ticks_Phase_8,300,1,48,23,2564883900
1089,22,Ticks_Phase_8,301,5,42,127,2564998520
1089,22,Ticks_Phase_8,302,1,48,30,2565775144
1089,22,Ticks_Phase_8,303,5,42,127,2565799296
1089,22,Ticks_Phase_8,304,5,42,127,2566599012
1089,22,Ticks_Phase_8,305,1,48,46,2566642720
1089,22,Ticks_Phase_8,306,1,48,43,2567341996
1089,22,Ticks_Phase_8,307,5,42,127,2567398792
1089,22,Ticks_Phase_8,308,1,48,43,2568149128
1089,22,Ticks_Phase_8,309,5,42,127,2568198652
1089,22,Ticks_Phase_8,310,1,48,42,2568937904
1089,22,Ticks_Phase_8,311,5,42,127,2568999188
1089,22,Ticks_Phase_8,312,1,48,42,2569790636
1089,22,Ticks_Phase_8,313,5,42,127,2569799124
1089,22,Ticks_Phase_8,314,5,42,127,2570598868
1089,22,Ticks_Phase_8,315,1,48,48,2570624820
1089,22,Ticks_Phase_8,316,5,42,127,2571398652
1089,22,Ticks_Phase_8,317,1,48,38,2571408668
1089,22,Ticks_Phase_8,318,5,42,127,2572199264
1089,22,Ticks_Phase_8,319,1,48,40,2572202380
1089,22,Ticks_Phase_8,320,1,48,43,2572982388
1089,22,Ticks_Phase_8,321,5,42,127,2572998896
1089,22,Ticks_Phase_8,322,5,42,127,2573798688
1089,22,Ticks_Phase_8,323,1,48,41,2573837832
1089,22,Ticks_Phase_8,324,1,48,43,2574579340
1089,22,Ticks_Phase_8,325,5,42,127,2574598764
1089,22,Ticks_Phase_8,326,5,42,127,2575399380
1089,22,Ticks_Phase_8,327,1,48,44,2575450752
1089,22,Ticks_Phase_8,328,5,42,127,2576199092
1089,22,Ticks_Phase_8,329,1,48,45,2576208060
1089,22,Ticks_Phase_8,330,5,42,127,2576998680
1089,22,Ticks_Phase_8,331,1,48,43,2577023588
1089,22,Ticks_Phase_8,332,5,42,127,2577798764
1089,22,Ticks_Phase_8,333,1,48,42,2577809676
1089,22,Ticks_Phase_8,334,1,48,44,2578573948
1089,22,Ticks_Phase_8,335,5,42,127,2578599440
1089,22,Ticks_Phase_8,336,1,48,44,2579394852
1089,22,Ticks_Phase_8,337,5,42,127,2579399004
1089,22,Ticks_Phase_8,0,9999,9999,9999,2444186680
1089,22,Ticks_Phase_8,1,9999,9999,9999,2444986488
1089,22,Ticks_Phase_8,2,9999,9999,9999,2445786220
1089,22,Ticks_Phase_8,3,9999,9999,9999,2446586972
1089,22,Ticks_Phase_8,4,9999,9999,9999,2447386684
1089,22,Ticks_Phase_8,5,9999,9999,9999,2448186468
1089,22,Ticks_Phase_8,6,9999,9999,9999,2448986208
1089,22,Ticks_Phase_8,7,9999,9999,9999,2449786964
1089,22,Ticks_Phase_8,8,9999,9999,9999,2450586748
1089,22,Ticks_Phase_8,9,9999,9999,9999,2451386460
1089,22,Ticks_Phase_8,10,9999,9999,9999,2452186172
1089,22,Ticks_Phase_8,11,9999,9999,9999,2452987004
1089,22,Ticks_Phase_8,12,9999,9999,9999,2453786716
1089,22,Ticks_Phase_8,13,9999,9999,9999,2454586436
1089,22,Ticks_Phase_8,14,9999,9999,9999,2455386240
1089,22,Ticks_Phase_8,15,9999,9999,9999,2456187000
1089,22,Ticks_Phase_8,16,9999,9999,9999,2456986716
1089,22,Ticks_Phase_8,17,9999,9999,9999,2457786428
1089,22,Ticks_Phase_8,18,9999,9999,9999,2458586208
1089,22,Ticks_Phase_8,19,9999,9999,9999,2459386968
1089,22,Ticks_Phase_8,20,9999,9999,9999,2460186752
1089,22,Ticks_Phase_8,21,9999,9999,9999,2460986468
1089,22,Ticks_Phase_8,22,9999,9999,9999,2461786200
1089,22,Ticks_Phase_8,23,9999,9999,9999,2462586960
1089,22,Ticks_Phase_8,24,9999,9999,9999,2463386744
1089,22,Ticks_Phase_8,25,9999,9999,9999,2464186456
1089,22,Ticks_Phase_8,26,9999,9999,9999,2464986168
1089,22,Ticks_Phase_8,27,9999,9999,9999,2465787004
1089,22,Ticks_Phase_8,28,9999,9999,9999,2466586716
1089,22,Ticks_Phase_8,29,9999,9999,9999,2467386428
1089,22,Ticks_Phase_8,30,9999,9999,9999,2468166744
1089,22,Ticks_Phase_8,31,9999,9999,9999,2468966484
1089,22,Ticks_Phase_8,32,9999,9999,9999,2469766200
1089,22,Ticks_Phase_8,33,9999,9999,9999,2470567024
1089,22,Ticks_Phase_8,34,9999,9999,9999,2471366740
1089,22,Ticks_Phase_8,35,9999,9999,9999,2472166456
1089,22,Ticks_Phase_8,36,9999,9999,9999,2472966236
1089,22,Ticks_Phase_8,37,9999,9999,9999,2473766996
1089,22,Ticks_Phase_8,38,9999,9999,9999,2474566784
1089,22,Ticks_Phase_8,39,9999,9999,9999,2475366520
1089,22,Ticks_Phase_8,40,9999,9999,9999,2476166228
1089,22,Ticks_Phase_8,41,9999,9999,9999,2476966996
1089,22,Ticks_Phase_8,42,9999,9999,9999,2477766776
1089,22,Ticks_Phase_8,43,9999,9999,9999,2478566492
1089,22,Ticks_Phase_8,44,9999,9999,9999,2479366204
1089,22,Ticks_Phase_8,45,9999,9999,9999,2480167036
1089,22,Ticks_Phase_8,46,9999,9999,9999,2480966744
1089,22,Ticks_Phase_8,47,9999,9999,9999,2481766480
1089,22,Ticks_Phase_8,48,9999,9999,9999,2482586712
1089,22,Ticks_Phase_8,49,9999,9999,9999,2483386496
1089,22,Ticks_Phase_8,50,9999,9999,9999,2484186208
1089,22,Ticks_Phase_8,51,9999,9999,9999,2484986968
1089,22,Ticks_Phase_8,52,9999,9999,9999,2485786680
1089,22,Ticks_Phase_8,53,9999,9999,9999,2486586464
1089,22,Ticks_Phase_8,54,9999,9999,9999,2487386200
1089,22,Ticks_Phase_8,55,9999,9999,9999,2488186960
1089,22,Ticks_Phase_8,56,9999,9999,9999,2488986748
1089,22,Ticks_Phase_8,57,9999,9999,9999,2489786460
1089,22,Ticks_Phase_8,58,9999,9999,9999,2490586172
1089,22,Ticks_Phase_8,59,9999,9999,9999,2491387008
1089,22,Ticks_Phase_8,60,9999,9999,9999,2492186720
1089,22,Ticks_Phase_8,61,9999,9999,9999,2492986432
1089,22,Ticks_Phase_8,62,9999,9999,9999,2493786168
1089,22,Ticks_Phase_8,63,9999,9999,9999,2494587004
1089,22,Ticks_Phase_8,64,9999,9999,9999,2495426628
1089,22,Ticks_Phase_8,65,9999,9999,9999,2496226416
1089,22,Ticks_Phase_8,66,9999,9999,9999,2497026124
1089,22,Ticks_Phase_8,67,9999,9999,9999,2497826892
1089,22,Ticks_Phase_8,68,9999,9999,9999,2498626676
1089,22,Ticks_Phase_8,69,9999,9999,9999,2499426412
1089,22,Ticks_Phase_8,70,9999,9999,9999,2500226124
1089,22,Ticks_Phase_8,71,9999,9999,9999,2501026876
1089,22,Ticks_Phase_8,72,9999,9999,9999,2501826664
1089,22,Ticks_Phase_8,73,9999,9999,9999,2502626376
1089,22,Ticks_Phase_8,74,9999,9999,9999,2503426164
1089,22,Ticks_Phase_8,75,9999,9999,9999,2504226928
1089,22,Ticks_Phase_8,76,9999,9999,9999,2505026636
1089,22,Ticks_Phase_8,77,9999,9999,9999,2505826376
1089,22,Ticks_Phase_8,78,9999,9999,9999,2506626160
1089,22,Ticks_Phase_8,79,9999,9999,9999,2507426912
1089,22,Ticks_Phase_8,80,9999,9999,9999,2508226632
1089,22,Ticks_Phase_8,81,9999,9999,9999,2508986496
1089,22,Ticks_Phase_8,82,9999,9999,9999,2509786212
1089,22,Ticks_Phase_8,83,9999,9999,9999,2510586968
1089,22,Ticks_Phase_8,84,9999,9999,9999,2511386680
1089,22,Ticks_Phase_8,85,9999,9999,9999,2512186468
1089,22,Ticks_Phase_8,86,9999,9999,9999,2512986212
1089,22,Ticks_Phase_8,87,9999,9999,9999,2513786964
1089,22,Ticks_Phase_8,88,9999,9999,9999,2514586752
1089,22,Ticks_Phase_8,89,9999,9999,9999,2515386464
1089,22,Ticks_Phase_8,90,9999,9999,9999,2516186184
1089,22,Ticks_Phase_8,91,9999,9999,9999,2516987008
1089,22,Ticks_Phase_8,92,9999,9999,9999,2517786724
1089,22,Ticks_Phase_8,93,9999,9999,9999,2518586492
1089,22,Ticks_Phase_8,94,9999,9999,9999,2519386172
1089,22,Ticks_Phase_8,95,9999,9999,9999,2520187000
1089,22,Ticks_Phase_8,96,9999,9999,9999,2520986716
1089,22,Ticks_Phase_8,97,9999,9999,9999,2521706604
1089,22,Ticks_Phase_8,98,9999,9999,9999,2522506308
1089,22,Ticks_Phase_8,99,9999,9999,9999,2523307076
1089,22,Ticks_Phase_8,100,9999,9999,9999,2524117112
1089,22,Ticks_Phase_8,101,9999,9999,9999,2524916828
1089,22,Ticks_Phase_8,102,9999,9999,9999,2525716540
1089,22,Ticks_Phase_8,103,9999,9999,9999,2526516328
1089,22,Ticks_Phase_8,104,9999,9999,9999,2527317108
1089,22,Ticks_Phase_8,105,9999,9999,9999,2528116828
1089,22,Ticks_Phase_8,106,9999,9999,9999,2528916608
1089,22,Ticks_Phase_8,107,9999,9999,9999,2529716320
1089,22,Ticks_Phase_8,108,9999,9999,9999,2530517076
1089,22,Ticks_Phase_8,109,9999,9999,9999,2531316864
1089,22,Ticks_Phase_8,110,9999,9999,9999,2532116576
1089,22,Ticks_Phase_8,111,9999,9999,9999,2532916288
1089,22,Ticks_Phase_8,112,9999,9999,9999,2533717072
1089,22,Ticks_Phase_8,113,9999,9999,9999,2534516856
1089,22,Ticks_Phase_8,114,9999,9999,9999,2535396460
1089,22,Ticks_Phase_8,115,9999,9999,9999,2536196196
1089,22,Ticks_Phase_8,116,9999,9999,9999,2536996952
1089,22,Ticks_Phase_8,117,9999,9999,9999,2537796664
1089,22,Ticks_Phase_8,118,9999,9999,9999,2538596468
1089,22,Ticks_Phase_8,119,9999,9999,9999,2539396188
1089,22,Ticks_Phase_8,120,9999,9999,9999,2540196944
1089,22,Ticks_Phase_8,121,9999,9999,9999,2540996732
1089,22,Ticks_Phase_8,122,9999,9999,9999,2541796444
1089,22,Ticks_Phase_8,123,9999,9999,9999,2542596152
1089,22,Ticks_Phase_8,124,9999,9999,9999,2543396980
1089,22,Ticks_Phase_8,125,9999,9999,9999,2544196696
1089,22,Ticks_Phase_8,126,9999,9999,9999,2544996428
1089,22,Ticks_Phase_8,127,9999,9999,9999,2545796216
1089,22,Ticks_Phase_8,128,9999,9999,9999,2546596972
1089,22,Ticks_Phase_8,129,9999,9999,9999,2547396684
1089,22,Ticks_Phase_8,130,9999,9999,9999,2548196476
1089,22,Ticks_Phase_8,131,9999,9999,9999,2549156972
1089,22,Ticks_Phase_8,132,9999,9999,9999,2549956708
1089,22,Ticks_Phase_8,133,9999,9999,9999,2550756420
1089,22,Ticks_Phase_8,134,9999,9999,9999,2551556208
1089,22,Ticks_Phase_8,135,9999,9999,9999,2552356968
1089,22,Ticks_Phase_8,136,9999,9999,9999,2553156672
1089,22,Ticks_Phase_8,137,9999,9999,9999,2553956416
1089,22,Ticks_Phase_8,138,9999,9999,9999,2554756200
1089,22,Ticks_Phase_8,139,9999,9999,9999,2555556952
1089,22,Ticks_Phase_8,140,9999,9999,9999,2556356724
1089,22,Ticks_Phase_8,141,9999,9999,9999,2557156448
1089,22,Ticks_Phase_8,142,9999,9999,9999,2557956164
1089,22,Ticks_Phase_8,143,9999,9999,9999,2558756920
1089,22,Ticks_Phase_8,144,9999,9999,9999,2559556712
1089,22,Ticks_Phase_8,145,9999,9999,9999,2560356444
1089,22,Ticks_Phase_8,146,9999,9999,9999,2561156156
1089,22,Ticks_Phase_8,147,9999,9999,9999,2561956920
1089,22,Ticks_Phase_8,148,9999,9999,9999,2562756708
1089,22,Ticks_Phase_8,149,9999,9999,9999,2563556412
1089,22,Ticks_Phase_8,150,9999,9999,9999,2564196472
1089,22,Ticks_Phase_8,151,9999,9999,9999,2564996160
1089,22,Ticks_Phase_8,152,9999,9999,9999,2565796936
1089,22,Ticks_Phase_8,153,9999,9999,9999,2566596724
1089,22,Ticks_Phase_8,154,9999,9999,9999,2567396432
1089,22,Ticks_Phase_8,155,9999,9999,9999,2568196216
1089,22,Ticks_Phase_8,156,9999,9999,9999,2568996976
1089,22,Ticks_Phase_8,157,9999,9999,9999,2569796688
1089,22,Ticks_Phase_8,158,9999,9999,9999,2570596432
1089,22,Ticks_Phase_8,159,9999,9999,9999,2571396220
1089,22,Ticks_Phase_8,160,9999,9999,9999,2572196976
1089,22,Ticks_Phase_8,161,9999,9999,9999,2572996684
1089,22,Ticks_Phase_8,162,9999,9999,9999,2573796476
1089,22,Ticks_Phase_8,163,9999,9999,9999,2574596180
1089,22,Ticks_Phase_8,164,9999,9999,9999,2575396944
1089,22,Ticks_Phase_8,165,9999,9999,9999,2576196732
1089,22,Ticks_Phase_8,166,9999,9999,9999,2576996468
1089,22,Ticks_Phase_8,167,9999,9999,9999,2577796180
1089,22,Ticks_Phase_8,168,9999,9999,9999,2578596932
1089,22,Ticks_Phase_8,169,9999,9999,9999,2579396720
10810,23,Ticks_Phase_5,0,5,42,127,2588910848
10810,23,Ticks_Phase_5,1,5,42,127,2589410560
10810,23,Ticks_Phase_5,2,5,42,127,2589911540
10810,23,Ticks_Phase_5,3,1,48,26,2589980864
10810,23,Ticks_Phase_5,4,5,42,127,2590411224
10810,23,Ticks_Phase_5,5,1,48,48,2590420492
10810,23,Ticks_Phase_5,6,1,48,54,2590881524
10810,23,Ticks_Phase_5,7,5,42,127,2590910760
10810,23,Ticks_Phase_5,8,1,48,52,2591406668
10810,23,Ticks_Phase_5,9,5,42,127,2591410672
10810,23,Ticks_Phase_5,10,5,42,127,2591911488
10810,23,Ticks_Phase_5,11,1,48,52,2591949584
10810,23,Ticks_Phase_5,12,5,42,127,2592411100
10810,23,Ticks_Phase_5,13,1,48,49,2592414144
10810,23,Ticks_Phase_5,14,1,48,50,2592910188
10810,23,Ticks_Phase_5,15,5,42,127,2592911532
10810,23,Ticks_Phase_5,16,1,48,48,2593407068
10810,23,Ticks_Phase_5,17,5,42,127,2593410400
10810,23,Ticks_Phase_5,18,1,48,54,2593909468
10810,23,Ticks_Phase_5,19,5,42,127,2593911132
10810,23,Ticks_Phase_5,20,1,48,51,2594408856
10810,23,Ticks_Phase_5,21,5,42,127,2594410824
10810,23,Ticks_Phase_5,22,1,48,48,2594904484
10810,23,Ticks_Phase_5,23,5,42,127,2594910512
10810,23,Ticks_Phase_5,24,1,48,45,2595402280
10810,23,Ticks_Phase_5,25,5,42,127,2595411616
10810,23,Ticks_Phase_5,26,1,48,51,2595902340
10810,23,Ticks_Phase_5,27,5,42,127,2595910984
10810,23,Ticks_Phase_5,28,1,48,48,2596400908
10810,23,Ticks_Phase_5,29,5,42,127,2596410672
10810,23,Ticks_Phase_5,30,5,42,127,2596910444
10810,23,Ticks_Phase_5,31,1,48,52,2596939328
10810,23,Ticks_Phase_5,32,5,42,127,2597411400
10810,23,Ticks_Phase_5,33,1,48,46,2597451968
10810,23,Ticks_Phase_5,34,1,48,46,2597881472
10810,23,Ticks_Phase_5,35,5,42,127,2597910784
10810,23,Ticks_Phase_5,36,1,48,46,2598371504
10810,23,Ticks_Phase_5,37,5,42,127,2598410548
10810,23,Ticks_Phase_5,38,1,48,46,2598896872
10810,23,Ticks_Phase_5,39,5,42,127,2598911576
10810,23,Ticks_Phase_5,40,1,48,47,2599374092
10810,23,Ticks_Phase_5,41,5,42,127,2599411116
10810,23,Ticks_Phase_5,42,5,42,127,2599910740
10810,23,Ticks_Phase_5,43,1,48,47,2599915496
10810,23,Ticks_Phase_5,44,1,48,48,2600407536
10810,23,Ticks_Phase_5,45,5,42,127,2600410420
10810,23,Ticks_Phase_5,46,1,48,46,2600892780
10810,23,Ticks_Phase_5,47,5,42,127,2600911452
10810,23,Ticks_Phase_5,48,1,48,44,2601391940
10810,23,Ticks_Phase_5,49,5,42,127,2601410992
10810,23,Ticks_Phase_5,50,5,42,127,2601910540
10810,23,Ticks_Phase_5,51,1,48,45,2601914176
10810,23,Ticks_Phase_5,52,1,48,49,2602400380
10810,23,Ticks_Phase_5,53,5,42,127,2602411488
10810,23,Ticks_Phase_5,54,1,48,49,2602904104
10810,23,Ticks_Phase_5,55,5,42,127,2602911400
10810,23,Ticks_Phase_5,56,1,48,49,2603399612
10810,23,Ticks_Phase_5,57,5,42,127,2603410796
10810,23,Ticks_Phase_5,58,1,48,47,2603899084
10810,23,Ticks_Phase_5,59,5,42,127,2603901272
10810,23,Ticks_Phase_5,60,1,48,45,2604400744
10810,23,Ticks_Phase_5,61,5,42,127,2604402156
10810,23,Ticks_Phase_5,62,1,48,39,2604894996
10810,23,Ticks_Phase_5,63,5,42,127,2604900648
10810,23,Ticks_Phase_5,64,1,48,48,2605381716
10810,23,Ticks_Phase_5,65,5,42,127,2605400636
10810,23,Ticks_Phase_5,66,1,48,46,2605879308
10810,23,Ticks_Phase_5,67,5,42,127,2605901120
10810,23,Ticks_Phase_5,68,1,48,42,2606365056
10810,23,Ticks_Phase_5,69,5,42,127,2606400812
10810,23,Ticks_Phase_5,70,1,48,38,2606882944
10810,23,Ticks_Phase_5,71,5,42,127,2606900648
10810,23,Ticks_Phase_5,72,1,48,43,2607343164
10810,23,Ticks_Phase_5,73,5,42,127,2607401308
10810,23,Ticks_Phase_5,74,5,42,127,2607901076
10810,23,Ticks_Phase_5,75,1,48,41,2607902792
10810,23,Ticks_Phase_5,76,1,48,48,2608376460
10810,23,Ticks_Phase_5,77,5,42,127,2608400832
10810,23,Ticks_Phase_5,78,5,42,127,2608900528
10810,23,Ticks_Phase_5,79,1,48,50,2608906344
10810,23,Ticks_Phase_5,80,1,48,53,2609379668
10810,23,Ticks_Phase_5,81,5,42,127,2609401404
10810,23,Ticks_Phase_5,82,5,42,127,2609901100
10810,23,Ticks_Phase_5,83,1,48,56,2609908784
10810,23,Ticks_Phase_5,84,1,48,50,2610388388
10810,23,Ticks_Phase_5,85,5,42,127,2610400780
10810,23,Ticks_Phase_5,86,5,42,127,2610901300
10810,23,Ticks_Phase_5,87,1,48,49,2610931156
10810,23,Ticks_Phase_5,88,1,48,53,2611391292
10810,23,Ticks_Phase_5,89,5,42,127,2611401128
10810,23,Ticks_Phase_5,90,1,48,54,2611863340
10810,23,Ticks_Phase_5,91,5,42,127,2611900744
10810,23,Ticks_Phase_5,92,1,48,54,2612385788
10810,23,Ticks_Phase_5,93,5,42,127,2612400508
10810,23,Ticks_Phase_5,94,1,48,48,2612896192
10810,23,Ticks_Phase_5,95,5,42,127,2612910384
10810,23,Ticks_Phase_5,96,1,48,53,2613402252
10810,23,Ticks_Phase_5,97,5,42,127,2613411340
10810,23,Ticks_Phase_5,98,1,48,55,2613898948
10810,23,Ticks_Phase_5,99,5,42,127,2613910880
10810,23,Ticks_Phase_5,100,5,42,127,2614410500
10810,23,Ticks_Phase_5,101,1,48,51,2614416760
10810,23,Ticks_Phase_5,102,5,42,127,2614911308
10810,23,Ticks_Phase_5,103,1,48,45,2614927828
10810,23,Ticks_Phase_5,104,1,48,44,2615401828
10810,23,Ticks_Phase_5,105,5,42,127,2615411140
10810,23,Ticks_Phase_5,106,1,48,48,2615866136
10810,23,Ticks_Phase_5,107,5,42,127,2615910684
10810,23,Ticks_Phase_5,108,5,42,127,2616410452
10810,23,Ticks_Phase_5,109,1,48,46,2616435280
10810,23,Ticks_Phase_5,110,5,42,127,2616911308
10810,23,Ticks_Phase_5,111,1,48,41,2616920424
10810,23,Ticks_Phase_5,112,1,48,51,2617406964
10810,23,Ticks_Phase_5,113,5,42,127,2617411116
10810,23,Ticks_Phase_5,114,1,48,53,2617898040
10810,23,Ticks_Phase_5,115,5,42,127,2617910652
10810,23,Ticks_Phase_5,116,5,42,127,2618411248
10810,23,Ticks_Phase_5,117,1,48,50,2618416760
10810,23,Ticks_Phase_5,118,5,42,127,2618911084
10810,23,Ticks_Phase_5,119,1,48,48,2618912048
10810,23,Ticks_Phase_5,120,1,48,46,2619376132
10810,23,Ticks_Phase_5,121,5,42,127,2619411064
10810,23,Ticks_Phase_5,122,1,48,48,2619897364
10810,23,Ticks_Phase_5,123,5,42,127,2619910504
10810,23,Ticks_Phase_5,124,1,48,43,2620402000
10810,23,Ticks_Phase_5,125,5,42,127,2620411240
10810,23,Ticks_Phase_5,126,1,48,46,2620900644
10810,23,Ticks_Phase_5,127,5,42,127,2620930400
10810,23,Ticks_Phase_5,128,1,48,53,2621394560
10810,23,Ticks_Phase_5,129,5,42,127,2621431360
10810,23,Ticks_Phase_5,130,5,42,127,2621930832
10810,23,Ticks_Phase_5,131,1,48,44,2621937464
10810,23,Ticks_Phase_5,132,1,48,44,2622414904
10810,23,Ticks_Phase_5,133,5,42,127,2622430664
10810,23,Ticks_Phase_5,134,1,48,51,2622888228
10810,23,Ticks_Phase_5,135,5,42,127,2622931248
10810,23,Ticks_Phase_5,136,1,48,48,2623409200
10810,23,Ticks_Phase_5,137,5,42,127,2623431164
10810,23,Ticks_Phase_5,138,1,48,39,2623926248
10810,23,Ticks_Phase_5,139,5,42,127,2623930928
10810,23,Ticks_Phase_5,140,1,48,46,2624408408
10810,23,Ticks_Phase_5,141,5,42,127,2624430392
10810,23,Ticks_Phase_5,142,1,48,49,2624906076
10810,23,Ticks_Phase_5,143,5,42,127,2624931124
10810,23,Ticks_Phase_5,144,1,48,44,2625376184
10810,23,Ticks_Phase_5,145,5,42,127,2625430888
10810,23,Ticks_Phase_5,146,1,48,44,2625918332
10810,23,Ticks_Phase_5,147,5,42,127,2625930500
10810,23,Ticks_Phase_5,148,1,48,40,2626416224
10810,23,Ticks_Phase_5,149,5,42,127,2626431384
10810,23,Ticks_Phase_5,150,1,48,43,2626905724
10810,23,Ticks_Phase_5,151,5,42,127,2626931220
10810,23,Ticks_Phase_5,152,1,48,42,2627388088
10810,23,Ticks_Phase_5,153,5,42,127,2627430760
10810,23,Ticks_Phase_5,154,1,48,46,2627883216
10810,23,Ticks_Phase_5,155,5,42,127,2627930596
10810,23,Ticks_Phase_5,156,1,48,40,2628374136
10810,23,Ticks_Phase_5,157,5,42,127,2628431480
10810,23,Ticks_Phase_5,158,1,48,46,2628900116
10810,23,Ticks_Phase_5,159,5,42,127,2628931068
10810,23,Ticks_Phase_5,160,1,48,46,2629391640
10810,23,Ticks_Phase_5,161,5,42,127,2629411140
10810,23,Ticks_Phase_5,162,5,42,127,2629910832
10810,23,Ticks_Phase_5,163,1,48,41,2629927576
10810,23,Ticks_Phase_5,164,5,42,127,2630410672
10810,23,Ticks_Phase_5,165,1,48,44,2630438792
10810,23,Ticks_Phase_5,166,1,48,45,2630879096
10810,23,Ticks_Phase_5,167,5,42,127,2630911396
10810,23,Ticks_Phase_5,168,1,48,43,2631387168
10810,23,Ticks_Phase_5,169,5,42,127,2631411160
10810,23,Ticks_Phase_5,170,1,48,50,2631888052
10810,23,Ticks_Phase_5,171,5,42,127,2631910704
10810,23,Ticks_Phase_5,172,1,48,49,2632384968
10810,23,Ticks_Phase_5,173,5,42,127,2632410540
10810,23,Ticks_Phase_5,174,1,48,45,2632891404
10810,23,Ticks_Phase_5,175,5,42,127,2632911200
10810,23,Ticks_Phase_5,176,1,48,44,2633368704
10810,23,Ticks_Phase_5,177,5,42,127,2633411036
10810,23,Ticks_Phase_5,178,1,48,51,2633853704
10810,23,Ticks_Phase_5,179,5,42,127,2633910576
10810,23,Ticks_Phase_5,180,1,48,49,2634352196
10810,23,Ticks_Phase_5,181,5,42,127,2634411236
10810,23,Ticks_Phase_5,182,1,48,45,2634850316
10810,23,Ticks_Phase_5,183,5,42,127,2634911296
10810,23,Ticks_Phase_5,184,1,48,43,2635358236
10810,23,Ticks_Phase_5,185,5,42,127,2635410988
10810,23,Ticks_Phase_5,186,1,48,43,2635841952
10810,23,Ticks_Phase_5,187,5,42,127,2635910452
10810,23,Ticks_Phase_5,188,1,48,42,2636369152
10810,23,Ticks_Phase_5,189,5,42,127,2636411184
10810,23,Ticks_Phase_5,190,1,48,46,2636846032
10810,23,Ticks_Phase_5,191,5,42,127,2636911248
10810,23,Ticks_Phase_5,192,1,48,51,2637347148
10810,23,Ticks_Phase_5,193,5,42,127,2637360516
10810,23,Ticks_Phase_5,194,5,42,127,2637861184
10810,23,Ticks_Phase_5,195,1,48,52,2637893884
10810,23,Ticks_Phase_5,196,1,48,43,2638339572
10810,23,Ticks_Phase_5,197,5,42,127,2638361012
10810,23,Ticks_Phase_5,198,1,48,46,2638804800
10810,23,Ticks_Phase_5,199,5,42,127,2638860552
10810,23,Ticks_Phase_5,200,1,48,47,2639276852
10810,23,Ticks_Phase_5,201,5,42,127,2639361360
10810,23,Ticks_Phase_5,202,1,48,39,2639823576
10810,23,Ticks_Phase_5,203,5,42,127,2639861052
10810,23,Ticks_Phase_5,204,1,48,42,2640303344
10810,23,Ticks_Phase_5,205,5,42,127,2640361036
10810,23,Ticks_Phase_5,206,1,48,44,2640830968
10810,23,Ticks_Phase_5,207,5,42,127,2640860576
10810,23,Ticks_Phase_5,208,1,48,51,2641269028
10810,23,Ticks_Phase_5,209,5,42,127,2641361220
10810,23,Ticks_Phase_5,210,1,48,24,2641840076
10810,23,Ticks_Phase_5,211,5,42,127,2641860996
10810,23,Ticks_Phase_5,212,1,48,48,2642334516
10810,23,Ticks_Phase_5,213,5,42,127,2642360688
10810,23,Ticks_Phase_5,214,1,48,44,2642813388
10810,23,Ticks_Phase_5,215,5,42,127,2642861424
10810,23,Ticks_Phase_5,216,1,48,28,2643365124
10810,23,Ticks_Phase_5,217,5,42,127,2643371372
10810,23,Ticks_Phase_5,218,1,48,45,2643844148
10810,23,Ticks_Phase_5,219,5,42,127,2643871060
10810,23,Ticks_Phase_5,220,1,48,48,2644334916
10810,23,Ticks_Phase_5,221,5,42,127,2644370748
10810,23,Ticks_Phase_5,222,1,48,50,2644837000
10810,23,Ticks_Phase_5,223,5,42,127,2644870508
10810,23,Ticks_Phase_5,224,1,48,48,2645320268
10810,23,Ticks_Phase_5,225,5,42,127,2645371468
10810,23,Ticks_Phase_5,226,1,48,44,2645802432
10810,23,Ticks_Phase_5,227,5,42,127,2645921092
10810,23,Ticks_Phase_5,228,1,48,39,2646314028
10810,23,Ticks_Phase_5,229,5,42,127,2646421228
10810,23,Ticks_Phase_5,230,1,48,32,2646916260
10810,23,Ticks_Phase_5,231,5,42,127,2646920488
10810,23,Ticks_Phase_5,232,5,42,127,2647421156
10810,23,Ticks_Phase_5,233,1,48,43,2647445836
10810,23,Ticks_Phase_5,234,5,42,127,2647921140
10810,23,Ticks_Phase_5,235,1,48,45,2647942460
10810,23,Ticks_Phase_5,236,1,48,44,2648420680
10810,23,Ticks_Phase_5,237,5,42,127,2648422164
10810,23,Ticks_Phase_5,238,1,48,41,2648908092
10810,23,Ticks_Phase_5,239,5,42,127,2648920508
10810,23,Ticks_Phase_5,240,1,48,43,2649404564
10810,23,Ticks_Phase_5,241,5,42,127,2649421144
10810,23,Ticks_Phase_5,242,1,48,40,2649911816
10810,23,Ticks_Phase_5,243,5,42,127,2649921056
10810,23,Ticks_Phase_5,244,1,48,41,2650388280
10810,23,Ticks_Phase_5,245,5,42,127,2650420672
10810,23,Ticks_Phase_5,246,1,48,43,2650904296
10810,23,Ticks_Phase_5,247,5,42,127,2650921328
10810,23,Ticks_Phase_5,248,1,48,43,2651383244
10810,23,Ticks_Phase_5,249,5,42,127,2651421168
10810,23,Ticks_Phase_5,250,1,48,47,2651906668
10810,23,Ticks_Phase_5,251,5,42,127,2651921004
10810,23,Ticks_Phase_5,252,1,48,49,2652387108
10810,23,Ticks_Phase_5,253,5,42,127,2652420396
10810,23,Ticks_Phase_5,254,1,48,42,2652920156
10810,23,Ticks_Phase_5,255,5,42,127,2652921800
10810,23,Ticks_Phase_5,256,1,48,45,2653401100
10810,23,Ticks_Phase_5,257,5,42,127,2653421192
10810,23,Ticks_Phase_5,258,1,48,48,2653838240
10810,23,Ticks_Phase_5,259,5,42,127,2653920580
10810,23,Ticks_Phase_5,260,1,48,41,2654365720
10810,23,Ticks_Phase_5,261,5,42,127,2654520828
10810,23,Ticks_Phase_5,262,1,48,17,2654971900
10810,23,Ticks_Phase_5,263,5,42,127,2655021356
10810,23,Ticks_Phase_5,264,5,42,127,2655531236
10810,23,Ticks_Phase_5,265,1,48,33,2655608436
10810,23,Ticks_Phase_5,266,1,48,38,2656017628
10810,23,Ticks_Phase_5,267,5,42,127,2656031068
10810,23,Ticks_Phase_5,268,1,48,23,2656531208
10810,23,Ticks_Phase_5,269,5,42,127,2656532324
10810,23,Ticks_Phase_5,270,5,42,127,2657030376
10810,23,Ticks_Phase_5,271,1,48,31,2657041808
10810,23,Ticks_Phase_5,272,1,48,38,2657487412
10810,23,Ticks_Phase_5,273,5,42,127,2657531104
10810,23,Ticks_Phase_5,274,1,48,39,2658000212
10810,23,Ticks_Phase_5,275,5,42,127,2658030868
10810,23,Ticks_Phase_5,276,1,48,42,2658467988
10810,23,Ticks_Phase_5,277,5,42,127,2658530776
10810,23,Ticks_Phase_5,278,1,48,43,2659018824
10810,23,Ticks_Phase_5,279,5,42,127,2659031440
10810,23,Ticks_Phase_5,280,5,42,127,2659531060
10810,23,Ticks_Phase_5,281,1,48,35,2659556940
10810,23,Ticks_Phase_5,282,1,48,35,2660022996
10810,23,Ticks_Phase_5,283,5,42,127,2660031040
10810,23,Ticks_Phase_5,284,1,48,41,2660502768
10810,23,Ticks_Phase_5,285,5,42,127,2660530432
10810,23,Ticks_Phase_5,286,1,48,37,2660997432
10810,23,Ticks_Phase_5,287,5,42,127,2661031240
10810,23,Ticks_Phase_5,288,1,48,40,2661491960
10810,23,Ticks_Phase_5,289,5,42,127,2661530856
10810,23,Ticks_Phase_5,290,1,48,39,2662001532
10810,23,Ticks_Phase_5,291,5,42,127,2662030840
10810,23,Ticks_Phase_5,292,1,48,38,2662494176
10810,23,Ticks_Phase_5,293,5,42,127,2662530380
10810,23,Ticks_Phase_5,294,1,48,40,2662991400
10810,23,Ticks_Phase_5,295,5,42,127,2663031040
10810,23,Ticks_Phase_5,296,1,48,35,2663483044
10810,23,Ticks_Phase_5,297,5,42,127,2663530952
10810,23,Ticks_Phase_5,298,5,42,127,2663931176
10810,23,Ticks_Phase_5,299,1,48,42,2664000948
10810,23,Ticks_Phase_5,300,5,42,127,2664430936
10810,23,Ticks_Phase_5,301,1,48,38,2664452628
10810,23,Ticks_Phase_5,302,1,48,32,2664910816
10810,23,Ticks_Phase_5,303,5,42,127,2664930768
10810,23,Ticks_Phase_5,304,1,48,35,2665374628
10810,23,Ticks_Phase_5,305,5,42,127,2665431352
10810,23,Ticks_Phase_5,306,1,48,40,2665849168
10810,23,Ticks_Phase_5,307,5,42,127,2665931116
10810,23,Ticks_Phase_5,308,1,48,34,2666365096
10810,23,Ticks_Phase_5,309,5,42,127,2666430880
10810,23,Ticks_Phase_5,310,1,48,37,2666842176
10810,23,Ticks_Phase_5,311,5,42,127,2666930420
10810,23,Ticks_Phase_5,312,5,42,127,2667431384
10810,23,Ticks_Phase_5,313,1,48,31,2667455844
10810,23,Ticks_Phase_5,314,5,42,127,2667930848
10810,23,Ticks_Phase_5,315,1,48,31,2667977996
10810,23,Ticks_Phase_5,316,1,48,34,2668414544
10810,23,Ticks_Phase_5,317,5,42,127,2668430680
10810,23,Ticks_Phase_5,318,5,42,127,2668930300
10810,23,Ticks_Phase_5,319,1,48,32,2668942852
10810,23,Ticks_Phase_5,320,5,42,127,2669431036
10810,23,Ticks_Phase_5,321,1,48,38,2669439552
10810,23,Ticks_Phase_5,322,1,48,43,2669931244
10810,23,Ticks_Phase_5,323,5,42,127,2669932284
10810,23,Ticks_Phase_5,324,1,48,43,2670431008
10810,23,Ticks_Phase_5,325,5,42,127,2670432048
10810,23,Ticks_Phase_5,326,5,42,127,2670931296
10810,23,Ticks_Phase_5,327,1,48,45,2670940112
10810,23,Ticks_Phase_5,328,1,48,42,2671398640
10810,23,Ticks_Phase_5,329,5,42,127,2671430956
10810,23,Ticks_Phase_5,330,5,42,127,2671930724
10810,23,Ticks_Phase_5,331,1,48,41,2671934140
10810,23,Ticks_Phase_5,332,1,48,46,2672410832
10810,23,Ticks_Phase_5,333,5,42,127,2672430404
10810,23,Ticks_Phase_5,334,1,48,57,2672860496
10810,23,Ticks_Phase_5,335,5,42,127,2672931288
10810,23,Ticks_Phase_5,336,1,48,43,2673361824
10810,23,Ticks_Phase_5,337,5,42,127,2673430828
10810,23,Ticks_Phase_5,0,9999,9999,9999,2588908636
10810,23,Ticks_Phase_5,1,9999,9999,9999,2589408348
10810,23,Ticks_Phase_5,2,9999,9999,9999,2589909104
10810,23,Ticks_Phase_5,3,9999,9999,9999,2590408792
10810,23,Ticks_Phase_5,4,9999,9999,9999,2590908472
10810,23,Ticks_Phase_5,5,9999,9999,9999,2591408236
10810,23,Ticks_Phase_5,6,9999,9999,9999,2591908976
10810,23,Ticks_Phase_5,7,9999,9999,9999,2592408664
10810,23,Ticks_Phase_5,8,9999,9999,9999,2592908356
10810,23,Ticks_Phase_5,9,9999,9999,9999,2593408112
10810,23,Ticks_Phase_5,10,9999,9999,9999,2593908872
10810,23,Ticks_Phase_5,11,9999,9999,9999,2594408568
10810,23,Ticks_Phase_5,12,9999,9999,9999,2594908224
10810,23,Ticks_Phase_5,13,9999,9999,9999,2595408960
10810,23,Ticks_Phase_5,14,9999,9999,9999,2595908696
10810,23,Ticks_Phase_5,15,9999,9999,9999,2596408388
10810,23,Ticks_Phase_5,16,9999,9999,9999,2596908156
10810,23,Ticks_Phase_5,17,9999,9999,9999,2597408888
10810,23,Ticks_Phase_5,18,9999,9999,9999,2597908572
10810,23,Ticks_Phase_5,19,9999,9999,9999,2598408260
10810,23,Ticks_Phase_5,20,9999,9999,9999,2598908996
10810,23,Ticks_Phase_5,21,9999,9999,9999,2599408756
10810,23,Ticks_Phase_5,22,9999,9999,9999,2599908452
10810,23,Ticks_Phase_5,23,9999,9999,9999,2600408132
10810,23,Ticks_Phase_5,24,9999,9999,9999,2600908868
10810,23,Ticks_Phase_5,25,9999,9999,9999,2601408632
10810,23,Ticks_Phase_5,26,9999,9999,9999,2601908324
10810,23,Ticks_Phase_5,27,9999,9999,9999,2602409056
10810,23,Ticks_Phase_5,28,9999,9999,9999,2602908740
10810,23,Ticks_Phase_5,29,9999,9999,9999,2603408508
10810,23,Ticks_Phase_5,30,9999,9999,9999,2603898956
10810,23,Ticks_Phase_5,31,9999,9999,9999,2604398680
10810,23,Ticks_Phase_5,32,9999,9999,9999,2604898364
10810,23,Ticks_Phase_5,33,9999,9999,9999,2605398128
10810,23,Ticks_Phase_5,34,9999,9999,9999,2605898836
10810,23,Ticks_Phase_5,35,9999,9999,9999,2606398524
10810,23,Ticks_Phase_5,36,9999,9999,9999,2606898288
10810,23,Ticks_Phase_5,37,9999,9999,9999,2607399020
10810,23,Ticks_Phase_5,38,9999,9999,9999,2607898716
10810,23,Ticks_Phase_5,39,9999,9999,9999,2608398396
10810,23,Ticks_Phase_5,40,9999,9999,9999,2608898168
10810,23,Ticks_Phase_5,41,9999,9999,9999,2609398896
10810,23,Ticks_Phase_5,42,9999,9999,9999,2609898588
10810,23,Ticks_Phase_5,43,9999,9999,9999,2610398272
10810,23,Ticks_Phase_5,44,9999,9999,9999,2610899012
10810,23,Ticks_Phase_5,45,9999,9999,9999,2611398768
10810,23,Ticks_Phase_5,46,9999,9999,9999,2611898456
10810,23,Ticks_Phase_5,47,9999,9999,9999,2612398144
10810,23,Ticks_Phase_5,48,9999,9999,9999,2612908096
10810,23,Ticks_Phase_5,49,9999,9999,9999,2613408832
10810,23,Ticks_Phase_5,50,9999,9999,9999,2613908592
10810,23,Ticks_Phase_5,51,9999,9999,9999,2614408288
10810,23,Ticks_Phase_5,52,9999,9999,9999,2614909024
10810,23,Ticks_Phase_5,53,9999,9999,9999,2615408708
10810,23,Ticks_Phase_5,54,9999,9999,9999,2615908468
10810,23,Ticks_Phase_5,55,9999,9999,9999,2616408164
10810,23,Ticks_Phase_5,56,9999,9999,9999,2616908872
10810,23,Ticks_Phase_5,57,9999,9999,9999,2617408604
10810,23,Ticks_Phase_5,58,9999,9999,9999,2617908292
10810,23,Ticks_Phase_5,59,9999,9999,9999,2618409036
10810,23,Ticks_Phase_5,60,9999,9999,9999,2618908796
10810,23,Ticks_Phase_5,61,9999,9999,9999,2619408480
10810,23,Ticks_Phase_5,62,9999,9999,9999,2619908216
10810,23,Ticks_Phase_5,63,9999,9999,9999,2620408952
10810,23,Ticks_Phase_5,64,9999,9999,9999,2620928116
10810,23,Ticks_Phase_5,65,9999,9999,9999,2621428852
10810,23,Ticks_Phase_5,66,9999,9999,9999,2621928544
10810,23,Ticks_Phase_5,67,9999,9999,9999,2622428228
10810,23,Ticks_Phase_5,68,9999,9999,9999,2622928960
10810,23,Ticks_Phase_5,69,9999,9999,9999,2623428724
10810,23,Ticks_Phase_5,70,9999,9999,9999,2623928416
10810,23,Ticks_Phase_5,71,9999,9999,9999,2624428104
10810,23,Ticks_Phase_5,72,9999,9999,9999,2624928840
10810,23,Ticks_Phase_5,73,9999,9999,9999,2625428600
10810,23,Ticks_Phase_5,74,9999,9999,9999,2625928288
10810,23,Ticks_Phase_5,75,9999,9999,9999,2626429024
10810,23,Ticks_Phase_5,76,9999,9999,9999,2626928712
10810,23,Ticks_Phase_5,77,9999,9999,9999,2627428472
10810,23,Ticks_Phase_5,78,9999,9999,9999,2627928164
10810,23,Ticks_Phase_5,79,9999,9999,9999,2628428872
10810,23,Ticks_Phase_5,80,9999,9999,9999,2628928632
10810,23,Ticks_Phase_5,81,9999,9999,9999,2629408852
10810,23,Ticks_Phase_5,82,9999,9999,9999,2629908548
10810,23,Ticks_Phase_5,83,9999,9999,9999,2630408308
10810,23,Ticks_Phase_5,84,9999,9999,9999,2630909036
10810,23,Ticks_Phase_5,85,9999,9999,9999,2631408724
10810,23,Ticks_Phase_5,86,9999,9999,9999,2631908416
10810,23,Ticks_Phase_5,87,9999,9999,9999,2632408176
10810,23,Ticks_Phase_5,88,9999,9999,9999,2632908912
10810,23,Ticks_Phase_5,89,9999,9999,9999,2633408600
10810,23,Ticks_Phase_5,90,9999,9999,9999,2633908292
10810,23,Ticks_Phase_5,91,9999,9999,9999,2634409024
10810,23,Ticks_Phase_5,92,9999,9999,9999,2634908788
10810,23,Ticks_Phase_5,93,9999,9999,9999,2635408476
10810,23,Ticks_Phase_5,94,9999,9999,9999,2635908164
10810,23,Ticks_Phase_5,95,9999,9999,9999,2636408900
10810,23,Ticks_Phase_5,96,9999,9999,9999,2636908660
10810,23,Ticks_Phase_5,97,9999,9999,9999,2637358152
10810,23,Ticks_Phase_5,98,9999,9999,9999,2637858896
10810,23,Ticks_Phase_5,99,9999,9999,9999,2638358652
10810,23,Ticks_Phase_5,100,9999,9999,9999,2638858340
10810,23,Ticks_Phase_5,101,9999,9999,9999,2639359076
10810,23,Ticks_Phase_5,102,9999,9999,9999,2639858764
10810,23,Ticks_Phase_5,103,9999,9999,9999,2640358524
10810,23,Ticks_Phase_5,104,9999,9999,9999,2640858216
10810,23,Ticks_Phase_5,105,9999,9999,9999,2641358964
10810,23,Ticks_Phase_5,106,9999,9999,9999,2641858636
10810,23,Ticks_Phase_5,107,9999,9999,9999,2642358400
10810,23,Ticks_Phase_5,108,9999,9999,9999,2642859136
10810,23,Ticks_Phase_5,109,9999,9999,9999,2643369084
10810,23,Ticks_Phase_5,110,9999,9999,9999,2643868772
10810,23,Ticks_Phase_5,111,9999,9999,9999,2644368460
10810,23,Ticks_Phase_5,112,9999,9999,9999,2644868224
10810,23,Ticks_Phase_5,113,9999,9999,9999,2645368956
10810,23,Ticks_Phase_5,114,9999,9999,9999,2645918804
10810,23,Ticks_Phase_5,115,9999,9999,9999,2646418496
10810,23,Ticks_Phase_5,116,9999,9999,9999,2646918200
10810,23,Ticks_Phase_5,117,9999,9999,9999,2647418944
10810,23,Ticks_Phase_5,118,9999,9999,9999,2647918704
10810,23,Ticks_Phase_5,119,9999,9999,9999,2648418392
10810,23,Ticks_Phase_5,120,9999,9999,9999,2648918076
10810,23,Ticks_Phase_5,121,9999,9999,9999,2649418860
10810,23,Ticks_Phase_5,122,9999,9999,9999,2649918548
10810,23,Ticks_Phase_5,123,9999,9999,9999,2650418236
10810,23,Ticks_Phase_5,124,9999,9999,9999,2650918968
10810,23,Ticks_Phase_5,125,9999,9999,9999,2651418732
10810,23,Ticks_Phase_5,126,9999,9999,9999,2651918420
10810,23,Ticks_Phase_5,127,9999,9999,9999,2652418108
10810,23,Ticks_Phase_5,128,9999,9999,9999,2652918852
10810,23,Ticks_Phase_5,129,9999,9999,9999,2653418608
10810,23,Ticks_Phase_5,130,9999,9999,9999,2653918296
10810,23,Ticks_Phase_5,131,9999,9999,9999,2654518392
10810,23,Ticks_Phase_5,132,9999,9999,9999,2655019068
10810,23,Ticks_Phase_5,133,9999,9999,9999,2655529024
10810,23,Ticks_Phase_5,134,9999,9999,9999,2656028780
10810,23,Ticks_Phase_5,135,9999,9999,9999,2656528476
10810,23,Ticks_Phase_5,136,9999,9999,9999,2657028164
10810,23,Ticks_Phase_5,137,9999,9999,9999,2657528892
10810,23,Ticks_Phase_5,138,9999,9999,9999,2658028656
10810,23,Ticks_Phase_5,139,9999,9999,9999,2658528344
10810,23,Ticks_Phase_5,140,9999,9999,9999,2659029080
10810,23,Ticks_Phase_5,141,9999,9999,9999,2659528772
10810,23,Ticks_Phase_5,142,9999,9999,9999,2660028528
10810,23,Ticks_Phase_5,143,9999,9999,9999,2660528220
10810,23,Ticks_Phase_5,144,9999,9999,9999,2661028952
10810,23,Ticks_Phase_5,145,9999,9999,9999,2661528644
10810,23,Ticks_Phase_5,146,9999,9999,9999,2662028408
10810,23,Ticks_Phase_5,147,9999,9999,9999,2662528096
10810,23,Ticks_Phase_5,148,9999,9999,9999,2663028828
10810,23,Ticks_Phase_5,149,9999,9999,9999,2663528516
10810,23,Ticks_Phase_5,150,9999,9999,9999,2663928888
10810,23,Ticks_Phase_5,151,9999,9999,9999,2664428648
10810,23,Ticks_Phase_5,152,9999,9999,9999,2664928332
10810,23,Ticks_Phase_5,153,9999,9999,9999,2665429068
10810,23,Ticks_Phase_5,154,9999,9999,9999,2665928828
10810,23,Ticks_Phase_5,155,9999,9999,9999,2666428516
10810,23,Ticks_Phase_5,156,9999,9999,9999,2666928208
10810,23,Ticks_Phase_5,157,9999,9999,9999,2667428948
10810,23,Ticks_Phase_5,158,9999,9999,9999,2667928636
10810,23,Ticks_Phase_5,159,9999,9999,9999,2668428392
10810,23,Ticks_Phase_5,160,9999,9999,9999,2668928088
10810,23,Ticks_Phase_5,161,9999,9999,9999,2669428824
10810,23,Ticks_Phase_5,162,9999,9999,9999,2669928512
10810,23,Ticks_Phase_5,163,9999,9999,9999,2670428276
10810,23,Ticks_Phase_5,164,9999,9999,9999,2670929008
10810,23,Ticks_Phase_5,165,9999,9999,9999,2671428668
10810,23,Ticks_Phase_5,166,9999,9999,9999,2671928436
10810,23,Ticks_Phase_5,167,9999,9999,9999,2672428120
10810,23,Ticks_Phase_5,168,9999,9999,9999,2672928852
10810,23,Ticks_Phase_5,169,9999,9999,9999,2673428540
10811,25,Jits_Pract_5,0,5,56,103,2726307216
10811,25,Jits_Pract_5,1,5,63,98,2726310312
10811,25,Jits_Pract_5,2,5,80,127,2726313584
10811,25,Jits_Pract_5,0,5,56,103,2726807012
10811,25,Jits_Pract_5,1,5,63,98,2726809960
10811,25,Jits_Pract_5,2,5,80,127,2726813304
10811,25,Jits_Pract_5,0,5,56,103,2727306604
10811,25,Jits_Pract_5,1,5,80,127,2727316800
10811,25,Jits_Pract_5,2,5,63,98,2727337408
10811,25,Jits_Pract_5,0,5,63,98,2727757268
10811,25,Jits_Pract_5,1,5,80,127,2727786948
10811,25,Jits_Pract_5,2,5,56,103,2727797292
10811,25,Jits_Pract_5,0,5,80,127,2728317232
10811,25,Jits_Pract_5,1,5,56,103,2728326456
10811,25,Jits_Pract_5,2,5,63,98,2728357176
10811,25,Jits_Pract_5,0,5,63,98,2728806716
10811,25,Jits_Pract_5,1,5,56,103,2728836468
10811,25,Jits_Pract_5,2,5,80,127,2728846664
10811,25,Jits_Pract_5,0,5,56,103,2729257272
10811,25,Jits_Pract_5,1,5,63,98,2729306380
10811,25,Jits_Pract_5,2,5,80,127,2729326984
10811,25,Jits_Pract_5,0,5,80,127,2729757236
10811,25,Jits_Pract_5,1,5,63,98,2729807092
10811,25,Jits_Pract_5,2,5,56,103,2729847328
10811,25,Jits_Pract_5,0,5,56,103,2730256752
10811,25,Jits_Pract_5,1,5,63,98,2730286352
10811,25,Jits_Pract_5,2,5,80,127,2730357104
10811,25,Jits_Pract_5,0,5,56,103,2730756344
10811,25,Jits_Pract_5,1,5,80,127,2730816732
10811,25,Jits_Pract_5,2,5,63,98,2730846432
10811,25,Jits_Pract_5,0,5,56,103,2731266352
10811,25,Jits_Pract_5,1,5,63,98,2731276768
10811,25,Jits_Pract_5,2,5,80,127,2731316484
10811,25,Jits_Pract_5,0,5,63,98,2731756948
10811,25,Jits_Pract_5,1,5,80,127,2731836744
10811,25,Jits_Pract_5,2,5,56,103,2731847312
10811,25,Jits_Pract_5,0,5,63,98,2732306876
10811,25,Jits_Pract_5,1,5,56,103,2732346736
10811,25,Jits_Pract_5,2,5,80,127,2732349656
10811,25,Jits_Pract_5,0,5,56,103,2732766516
10811,25,Jits_Pract_5,1,5,63,98,2732777008
10811,25,Jits_Pract_5,2,5,80,127,2732816948
10811,25,Jits_Pract_5,0,5,56,103,2733257112
10811,25,Jits_Pract_5,1,5,63,98,2733260180
10811,25,Jits_Pract_5,2,5,80,127,2733276524
10811,25,Jits_Pract_5,0,9999,9999,9999,2726554724
10811,25,Jits_Pract_5,1,9999,9999,9999,2727054448
10811,25,Jits_Pract_5,2,9999,9999,9999,2727554116
10811,25,Jits_Pract_5,3,9999,9999,9999,2728054900
10811,25,Jits_Pract_5,4,9999,9999,9999,2728554560
10811,25,Jits_Pract_5,5,9999,9999,9999,2729054308
10811,25,Jits_Pract_5,6,9999,9999,9999,2729555004
10811,25,Jits_Pract_5,7,9999,9999,9999,2730054724
10811,25,Jits_Pract_5,8,9999,9999,9999,2730554460
10811,25,Jits_Pract_5,9,9999,9999,9999,2731054200
10811,25,Jits_Pract_5,10,9999,9999,9999,2731554912
10811,25,Jits_Pract_5,11,9999,9999,9999,2732054584
10811,25,Jits_Pract_5,12,9999,9999,9999,2732554308
10811,25,Jits_Pract_5,13,9999,9999,9999,2733055080
10811,25,Jits_Pract_5,14,9999,9999,9999,2733554808
10812,24,Jits_Pract_8,0,5,56,103,2788033916
10812,24,Jits_Pract_8,1,5,63,98,2788036936
10812,24,Jits_Pract_8,2,5,80,127,2788039984
10812,24,Jits_Pract_8,0,5,56,103,2788833632
10812,24,Jits_Pract_8,1,5,63,98,2788836800
10812,24,Jits_Pract_8,2,5,80,127,2788839924
10812,24,Jits_Pract_8,0,5,80,127,2789573872
10812,24,Jits_Pract_8,1,5,63,98,2789664080
10812,24,Jits_Pract_8,2,5,56,103,2789674500
10812,24,Jits_Pract_8,3,1,48,50,2789685340
10812,24,Jits_Pract_8,0,5,56,103,2790394172
10812,24,Jits_Pract_8,1,5,63,98,2790403620
10812,24,Jits_Pract_8,2,1,48,52,2790455884
10812,24,Jits_Pract_8,3,5,80,127,2790493696
10812,24,Jits_Pract_8,0,5,63,98,2791164348
10812,24,Jits_Pract_8,1,1,48,54,2791185224
10812,24,Jits_Pract_8,2,5,80,127,2791193944
10812,24,Jits_Pract_8,3,5,56,103,2791223548
10812,24,Jits_Pract_8,0,5,56,103,2791963952
10812,24,Jits_Pract_8,1,1,48,54,2791976588
10812,24,Jits_Pract_8,2,5,80,127,2792064444
10812,24,Jits_Pract_8,3,5,63,98,2792113656
10812,24,Jits_Pract_8,0,5,56,103,2792763876
10812,24,Jits_Pract_8,1,5,80,127,2792813956
10812,24,Jits_Pract_8,2,5,63,98,2792853816
10812,24,Jits_Pract_8,3,1,48,53,2792857456
10812,24,Jits_Pract_8,0,1,48,53,2793573684
10812,24,Jits_Pract_8,1,5,80,127,2793594308
10812,24,Jits_Pract_8,2,5,63,98,2793623908
10812,24,Jits_Pract_8,3,5,56,103,2793693424
10812,24,Jits_Pract_8,0,5,63,98,2794423592
10812,24,Jits_Pract_8,1,1,48,52,2794434656
10812,24,Jits_Pract_8,2,5,56,103,2794454604
10812,24,Jits_Pract_8,3,5,80,127,2794513724
10812,24,Jits_Pract_8,0,5,56,103,2795164012
10812,24,Jits_Pract_8,1,5,80,127,2795167080
10812,24,Jits_Pract_8,2,1,48,54,2795217400
10812,24,Jits_Pract_8,3,5,63,98,2795283728
10812,24,Jits_Pract_8,0,1,48,51,2796014532
10812,24,Jits_Pract_8,1,5,56,103,2796043484
10812,24,Jits_Pract_8,2,5,80,127,2796083572
10812,24,Jits_Pract_8,3,5,63,98,2796093764
10812,24,Jits_Pract_8,0,5,56,103,2796803544
10812,24,Jits_Pract_8,1,1,48,61,2796811392
10812,24,Jits_Pract_8,2,5,80,127,2796823920
10812,24,Jits_Pract_8,3,5,63,98,2796903812
10812,24,Jits_Pract_8,0,5,80,127,2797593948
10812,24,Jits_Pract_8,1,1,48,53,2797627856
10812,24,Jits_Pract_8,2,5,56,103,2797694288
10812,24,Jits_Pract_8,3,5,63,98,2797703440
10812,24,Jits_Pract_8,0,5,63,98,2798363980
10812,24,Jits_Pract_8,1,5,80,127,2798424396
10812,24,Jits_Pract_8,2,5,56,103,2798433544
10812,24,Jits_Pract_8,3,1,48,57,2798473596
10812,24,Jits_Pract_8,0,5,56,103,2799163732
10812,24,Jits_Pract_8,1,1,48,57,2799170968
10812,24,Jits_Pract_8,2,5,63,98,2799234404
10812,24,Jits_Pract_8,3,5,80,127,2799237696
10812,24,Jits_Pract_8,0,9999,9999,9999,2788431944
10812,24,Jits_Pract_8,1,9999,9999,9999,2789231736
10812,24,Jits_Pract_8,2,9999,9999,9999,2790031448
10812,24,Jits_Pract_8,3,9999,9999,9999,2790831220
10812,24,Jits_Pract_8,4,9999,9999,9999,2791631960
10812,24,Jits_Pract_8,5,9999,9999,9999,2792431720
10812,24,Jits_Pract_8,6,9999,9999,9999,2793231416
10812,24,Jits_Pract_8,7,9999,9999,9999,2794031188
10812,24,Jits_Pract_8,8,9999,9999,9999,2794831948
10812,24,Jits_Pract_8,9,9999,9999,9999,2795631688
10812,24,Jits_Pract_8,10,9999,9999,9999,2796431468
10812,24,Jits_Pract_8,11,9999,9999,9999,2797231228
10812,24,Jits_Pract_8,12,9999,9999,9999,2798031972
10812,24,Jits_Pract_8,13,9999,9999,9999,2798831740
10812,24,Jits_Pract_8,14,9999,9999,9999,2799631412
10813,25,Jits_Pract_5,0,5,56,103,2807288260
10813,25,Jits_Pract_5,1,5,63,98,2807291360
10813,25,Jits_Pract_5,2,5,80,127,2807294480
10813,25,Jits_Pract_5,0,5,56,103,2807787988
10813,25,Jits_Pract_5,1,5,63,98,2807791164
10813,25,Jits_Pract_5,2,5,80,127,2807794428
10813,25,Jits_Pract_5,0,5,56,103,2808287508
10813,25,Jits_Pract_5,1,1,48,48,2808297400
10813,25,Jits_Pract_5,2,5,80,127,2808298968
10813,25,Jits_Pract_5,3,5,63,98,2808318452
10813,25,Jits_Pract_5,0,5,63,98,2808738288
10813,25,Jits_Pract_5,1,5,80,127,2808767740
10813,25,Jits_Pract_5,2,5,56,103,2808778236
10813,25,Jits_Pract_5,3,1,48,51,2808817320
10813,25,Jits_Pract_5,0,1,48,46,2809269492
10813,25,Jits_Pract_5,1,5,80,127,2809298356
10813,25,Jits_Pract_5,2,5,56,103,2809307508
10813,25,Jits_Pract_5,3,5,63,98,2809338452
10813,25,Jits_Pract_5,0,5,63,98,2809787724
10813,25,Jits_Pract_5,1,1,48,51,2809815352
10813,25,Jits_Pract_5,2,5,56,103,2809817392
10813,25,Jits_Pract_5,3,5,80,127,2809827588
10813,25,Jits_Pract_5,0,5,56,103,2810238420
10813,25,Jits_Pract_5,1,5,63,98,2810287500
10813,25,Jits_Pract_5,2,5,80,127,2810307884
10813,25,Jits_Pract_5,3,1,48,52,2810337004
10813,25,Jits_Pract_5,0,5,80,127,2810738124
10813,25,Jits_Pract_5,1,5,63,98,2810788328
10813,25,Jits_Pract_5,2,1,48,54,2810800588
10813,25,Jits_Pract_5,3,5,56,103,2810828408
10813,25,Jits_Pract_5,0,5,56,103,2811237684
10813,25,Jits_Pract_5,1,1,48,59,2811262004
10813,25,Jits_Pract_5,2,5,63,98,2811267500
10813,25,Jits_Pract_5,3,5,80,127,2811338448
10813,25,Jits_Pract_5,0,5,56,103,2811737612
10813,25,Jits_Pract_5,1,1,48,46,2811785840
10813,25,Jits_Pract_5,2,5,80,127,2811798000
10813,25,Jits_Pract_5,3,5,63,98,2811827524
10813,25,Jits_Pract_5,0,5,56,103,2812248408
10813,25,Jits_Pract_5,1,5,63,98,2812257632
10813,25,Jits_Pract_5,2,1,48,52,2812292360
10813,25,Jits_Pract_5,3,5,80,127,2812297560
10813,25,Jits_Pract_5,0,5,63,98,2812738120
10813,25,Jits_Pract_5,1,1,48,46,2812761864
10813,25,Jits_Pract_5,2,5,80,127,2812817784
10813,25,Jits_Pract_5,3,5,56,103,2812828428
10813,25,Jits_Pract_5,0,5,63,98,2813287736
10813,25,Jits_Pract_5,1,1,48,46,2813307716
10813,25,Jits_Pract_5,2,5,56,103,2813327668
10813,25,Jits_Pract_5,3,5,80,127,2813331032
10813,25,Jits_Pract_5,0,5,56,103,2813747468
10813,25,Jits_Pract_5,1,5,63,98,2813757736
10813,25,Jits_Pract_5,2,5,80,127,2813797776
10813,25,Jits_Pract_5,3,1,48,47,2813807868
10813,25,Jits_Pract_5,0,5,56,103,2814238028
10813,25,Jits_Pract_5,1,5,63,98,2814241096
10813,25,Jits_Pract_5,2,5,80,127,2814257660
10813,25,Jits_Pract_5,3,1,48,43,2814266484
10813,25,Jits_Pract_5,0,9999,9999,9999,2807535696
10813,25,Jits_Pract_5,1,9999,9999,9999,2808035420
10813,25,Jits_Pract_5,2,9999,9999,9999,2808535148
10813,25,Jits_Pract_5,3,9999,9999,9999,2809035900
10813,25,Jits_Pract_5,4,9999,9999,9999,2809535596
10813,25,Jits_Pract_5,5,9999,9999,9999,2810035292
10813,25,Jits_Pract_5,6,9999,9999,9999,2810536032
10813,25,Jits_Pract_5,7,9999,9999,9999,2811035740
10813,25,Jits_Pract_5,8,9999,9999,9999,2811535444
10813,25,Jits_Pract_5,9,9999,9999,9999,2812035152
10813,25,Jits_Pract_5,10,9999,9999,9999,2812535900
10813,25,Jits_Pract_5,11,9999,9999,9999,2813035608
10813,25,Jits_Pract_5,12,9999,9999,9999,2813535296
10813,25,Jits_Pract_5,13,9999,9999,9999,2814036036
10813,25,Jits_Pract_5,14,9999,9999,9999,2814535800
10814,7,Jits_ISO_8,0,5,56,103,2843672064
10814,7,Jits_ISO_8,1,5,63,98,2843675092
10814,7,Jits_ISO_8,2,5,80,127,2843678284
10814,7,Jits_ISO_8,0,5,56,103,2844471916
10814,7,Jits_ISO_8,1,5,63,98,2844475012
10814,7,Jits_ISO_8,2,5,80,127,2844477984
10814,7,Jits_ISO_8,0,5,80,127,2845212068
10814,7,Jits_ISO_8,1,1,48,59,2845243956
10814,7,Jits_ISO_8,2,5,63,98,2845302000
10814,7,Jits_ISO_8,3,5,56,103,2845312344
10814,7,Jits_ISO_8,0,1,48,63,2846022052
10814,7,Jits_ISO_8,1,5,56,103,2846032116
10814,7,Jits_ISO_8,2,5,63,98,2846041412
10814,7,Jits_ISO_8,3,5,80,127,2846131680
10814,7,Jits_ISO_8,0,5,63,98,2846802236
10814,7,Jits_ISO_8,1,5,80,127,2846831912
10814,7,Jits_ISO_8,2,1,48,60,2846837124
10814,7,Jits_ISO_8,3,5,56,103,2846861952
10814,7,Jits_ISO_8,0,1,48,47,2847596580
10814,7,Jits_ISO_8,1,5,56,103,2847601932
10814,7,Jits_ISO_8,2,5,80,127,2847702244
10814,7,Jits_ISO_8,3,5,63,98,2847751548
10814,7,Jits_ISO_8,0,5,56,103,2848401952
10814,7,Jits_ISO_8,1,5,80,127,2848452004
10814,7,Jits_ISO_8,2,1,48,51,2848455196
10814,7,Jits_ISO_8,3,5,63,98,2848492012
10814,7,Jits_ISO_8,0,1,48,54,2849213700
10814,7,Jits_ISO_8,1,5,80,127,2849232308
10814,7,Jits_ISO_8,2,5,63,98,2849261984
10814,7,Jits_ISO_8,3,5,56,103,2849331428
10814,7,Jits_ISO_8,0,1,48,57,2850030272
10814,7,Jits_ISO_8,1,5,63,98,2850061912
10814,7,Jits_ISO_8,2,5,56,103,2850092336
10814,7,Jits_ISO_8,3,5,80,127,2850151912
10814,7,Jits_ISO_8,0,5,56,103,2850802140
10814,7,Jits_ISO_8,1,5,80,127,2850805056
10814,7,Jits_ISO_8,2,1,48,55,2850893092
10814,7,Jits_ISO_8,3,5,63,98,2850921960
10814,7,Jits_ISO_8,0,1,48,54,2851628040
10814,7,Jits_ISO_8,1,5,56,103,2851681892
10814,7,Jits_ISO_8,2,5,80,127,2851721756
10814,7,Jits_ISO_8,3,5,63,98,2851732012
10814,7,Jits_ISO_8,0,5,56,103,2852441460
10814,7,Jits_ISO_8,1,5,80,127,2852461920
10814,7,Jits_ISO_8,2,1,48,46,2852467576
10814,7,Jits_ISO_8,3,5,63,98,2852541856
10814,7,Jits_ISO_8,0,5,80,127,2853231968
10814,7,Jits_ISO_8,1,1,48,49,2853279808
10814,7,Jits_ISO_8,2,5,56,103,2853332360
10814,7,Jits_ISO_8,3,5,63,98,2853341508
10814,7,Jits_ISO_8,0,5,63,98,2854001952
10814,7,Jits_ISO_8,1,5,80,127,2854061300
10814,7,Jits_ISO_8,2,5,56,103,2854071644
10814,7,Jits_ISO_8,3,1,48,50,2854083680
10814,7,Jits_ISO_8,0,1,48,51,2854784688
10814,7,Jits_ISO_8,1,5,56,103,2854801948
10814,7,Jits_ISO_8,2,5,63,98,2854872380
10814,7,Jits_ISO_8,3,5,80,127,2854875816
10814,7,Jits_ISO_8,0,1,48,48,2855532616
10814,7,Jits_ISO_8,1,5,63,98,2855632200
10814,7,Jits_ISO_8,2,5,56,103,2855682548
10814,7,Jits_ISO_8,3,5,80,127,2855685540
10814,7,Jits_ISO_8,0,1,48,48,2856339964
10814,7,Jits_ISO_8,1,5,56,103,2856392052
10814,7,Jits_ISO_8,2,5,80,127,2856395264
10814,7,Jits_ISO_8,3,5,63,98,2856482020
10814,7,Jits_ISO_8,0,1,48,49,2857111780
10814,7,Jits_ISO_8,1,5,63,98,2857231816
10814,7,Jits_ISO_8,2,5,56,103,2857321828
10814,7,Jits_ISO_8,3,5,80,127,2857351652
10814,7,Jits_ISO_8,0,1,48,44,2857972108
10814,7,Jits_ISO_8,1,5,56,103,2858022108
10814,7,Jits_ISO_8,2,5,63,98,2858121840
10814,7,Jits_ISO_8,3,5,80,127,2858152264
10814,7,Jits_ISO_8,0,1,48,48,2858808528
10814,7,Jits_ISO_8,1,5,63,98,2858841400
10814,7,Jits_ISO_8,2,5,56,103,2858851896
10814,7,Jits_ISO_8,3,5,80,127,2858942092
10814,7,Jits_ISO_8,0,1,48,48,2859606616
10814,7,Jits_ISO_8,1,5,63,98,2859661716
10814,7,Jits_ISO_8,2,5,56,103,2859741648
10814,7,Jits_ISO_8,3,5,80,127,2859744788
10814,7,Jits_ISO_8,0,1,48,49,2860419132
10814,7,Jits_ISO_8,1,5,80,127,2860421640
10814,7,Jits_ISO_8,2,5,63,98,2860441948
10814,7,Jits_ISO_8,3,5,56,103,2860502340
10814,7,Jits_ISO_8,0,5,56,103,2861262112
10814,7,Jits_ISO_8,1,1,48,51,2861273624
10814,7,Jits_ISO_8,2,5,63,98,2861281816
10814,7,Jits_ISO_8,3,5,80,127,2861284956
10814,7,Jits_ISO_8,0,5,63,98,2862001736
10814,7,Jits_ISO_8,1,1,48,57,2862057220
10814,7,Jits_ISO_8,2,5,80,127,2862082280
10814,7,Jits_ISO_8,3,5,56,103,2862091800
10814,7,Jits_ISO_8,0,5,63,98,2862821976
10814,7,Jits_ISO_8,1,1,48,49,2862825548
10814,7,Jits_ISO_8,2,5,56,103,2862842208
10814,7,Jits_ISO_8,3,5,80,127,2862892336
10814,7,Jits_ISO_8,0,1,48,50,2863574000
10814,7,Jits_ISO_8,1,5,80,127,2863621456
10814,7,Jits_ISO_8,2,5,63,98,2863661396
10814,7,Jits_ISO_8,3,5,56,103,2863681768
10814,7,Jits_ISO_8,0,1,48,41,2864355428
10814,7,Jits_ISO_8,1,5,56,103,2864462156
10814,7,Jits_ISO_8,2,5,63,98,2864472428
10814,7,Jits_ISO_8,3,5,80,127,2864491840
10814,7,Jits_ISO_8,0,5,56,103,2865192408
10814,7,Jits_ISO_8,1,1,48,52,2865197772
10814,7,Jits_ISO_8,2,5,63,98,2865282340
10814,7,Jits_ISO_8,3,5,80,127,2865341892
10814,7,Jits_ISO_8,0,1,48,49,2865996844
10814,7,Jits_ISO_8,1,5,80,127,2866021824
10814,7,Jits_ISO_8,2,5,56,103,2866031944
10814,7,Jits_ISO_8,3,5,63,98,2866101836
10814,7,Jits_ISO_8,0,1,48,50,2866790940
10814,7,Jits_ISO_8,1,5,63,98,2866852324
10814,7,Jits_ISO_8,2,5,80,127,2866942296
10814,7,Jits_ISO_8,3,5,56,103,2866951820
10814,7,Jits_ISO_8,0,5,63,98,2867591660
10814,7,Jits_ISO_8,1,5,80,127,2867641788
10814,7,Jits_ISO_8,2,1,48,40,2867642680
10814,7,Jits_ISO_8,3,5,56,103,2867702024
10814,7,Jits_ISO_8,0,5,56,103,2868421936
10814,7,Jits_ISO_8,1,1,48,51,2868443784
10814,7,Jits_ISO_8,2,5,80,127,2868472132
10814,7,Jits_ISO_8,3,5,63,98,2868491620
10814,7,Jits_ISO_8,0,5,56,103,2869191988
10814,7,Jits_ISO_8,1,1,48,48,2869217508
10814,7,Jits_ISO_8,2,5,80,127,2869251552
10814,7,Jits_ISO_8,3,5,63,98,2869322140
10814,7,Jits_ISO_8,0,5,56,103,2869991712
10814,7,Jits_ISO_8,1,1,48,48,2870015504
10814,7,Jits_ISO_8,2,5,80,127,2870021900
10814,7,Jits_ISO_8,3,5,63,98,2870052104
10814,7,Jits_ISO_8,0,5,56,103,2870831664
10814,7,Jits_ISO_8,1,1,48,46,2870839588
10814,7,Jits_ISO_8,2,5,80,127,2870851892
10814,7,Jits_ISO_8,3,5,63,98,2870912580
10814,7,Jits_ISO_8,0,1,48,48,2871631884
10814,7,Jits_ISO_8,1,5,80,127,2871712076
10814,7,Jits_ISO_8,2,5,56,103,2871722344
10814,7,Jits_ISO_8,3,5,63,98,2871731556
10814,7,Jits_ISO_8,0,5,56,103,2872472016
10814,7,Jits_ISO_8,1,1,48,53,2872478644
10814,7,Jits_ISO_8,2,5,80,127,2872511800
10814,7,Jits_ISO_8,3,5,63,98,2872541696
10814,7,Jits_ISO_8,0,5,56,103,2873241924
10814,7,Jits_ISO_8,1,5,63,98,2873271824
10814,7,Jits_ISO_8,2,1,48,42,2873276064
10814,7,Jits_ISO_8,3,5,80,127,2873311684
10814,7,Jits_ISO_8,0,5,80,127,2873991676
10814,7,Jits_ISO_8,1,5,63,98,2874041656
10814,7,Jits_ISO_8,2,1,48,46,2874046940
10814,7,Jits_ISO_8,3,5,56,103,2874062108
10814,7,Jits_ISO_8,0,1,48,46,2874784688
10814,7,Jits_ISO_8,1,5,56,103,2874822108
10814,7,Jits_ISO_8,2,5,80,127,2874891776
10814,7,Jits_ISO_8,3,5,63,98,2874952040
10814,7,Jits_ISO_8,0,1,48,47,2875588068
10814,7,Jits_ISO_8,1,5,80,127,2875621816
10814,7,Jits_ISO_8,2,5,63,98,2875711792
10814,7,Jits_ISO_8,3,5,56,103,2875732276
10814,7,Jits_ISO_8,0,1,48,46,2876367696
10814,7,Jits_ISO_8,1,5,63,98,2876441984
10814,7,Jits_ISO_8,2,5,56,103,2876461900
10814,7,Jits_ISO_8,3,5,80,127,2876502688
10814,7,Jits_ISO_8,0,1,48,51,2877194540
10814,7,Jits_ISO_8,1,5,80,127,2877201684
10814,7,Jits_ISO_8,2,5,63,98,2877222368
10814,7,Jits_ISO_8,3,5,56,103,2877302172
10814,7,Jits_ISO_8,0,1,48,48,2877983980
10814,7,Jits_ISO_8,1,5,63,98,2877992324
10814,7,Jits_ISO_8,2,5,56,103,2878101720
10814,7,Jits_ISO_8,3,5,80,127,2878105012
10814,7,Jits_ISO_8,0,5,63,98,2878811612
10814,7,Jits_ISO_8,1,5,56,103,2878821880
10814,7,Jits_ISO_8,2,5,80,127,2878824872
10814,7,Jits_ISO_8,3,1,48,51,2878838104
10814,7,Jits_ISO_8,0,1,48,44,2879574556
10814,7,Jits_ISO_8,1,5,56,103,2879591816
10814,7,Jits_ISO_8,2,5,80,127,2879711832
10814,7,Jits_ISO_8,3,5,63,98,2879751472
10814,7,Jits_ISO_8,0,1,48,41,2880393076
10814,7,Jits_ISO_8,1,5,56,103,2880411984
10814,7,Jits_ISO_8,2,5,80,127,2880491768
10814,7,Jits_ISO_8,3,5,63,98,2880512524
10814,7,Jits_ISO_8,0,1,48,46,2881176144
10814,7,Jits_ISO_8,1,5,56,103,2881211620
10814,7,Jits_ISO_8,2,5,63,98,2881322636
10814,7,Jits_ISO_8,3,5,80,127,2881325924
10814,7,Jits_ISO_8,0,1,48,41,2882014588
10814,7,Jits_ISO_8,1,5,56,103,2882042336
10814,7,Jits_ISO_8,2,5,80,127,2882071864
10814,7,Jits_ISO_8,3,5,63,98,2882092476
10814,7,Jits_ISO_8,0,5,63,98,2882821604
10814,7,Jits_ISO_8,1,5,56,103,2882831724
10814,7,Jits_ISO_8,2,5,80,127,2882841996
10814,7,Jits_ISO_8,3,1,48,42,2882861528
10814,7,Jits_ISO_8,0,5,80,127,2883612016
10814,7,Jits_ISO_8,1,1,48,46,2883636780
10814,7,Jits_ISO_8,2,5,56,103,2883662160
10814,7,Jits_ISO_8,3,5,63,98,2883702100
10814,7,Jits_ISO_8,0,5,80,127,2884432512
10814,7,Jits_ISO_8,1,1,48,54,2884447988
10814,7,Jits_ISO_8,2,5,63,98,2884451620
10814,7,Jits_ISO_8,3,5,56,103,2884501896
10814,7,Jits_ISO_8,0,1,48,51,2885226952
10814,7,Jits_ISO_8,1,5,80,127,2885242340
10814,7,Jits_ISO_8,2,5,56,103,2885271868
10814,7,Jits_ISO_8,3,5,63,98,2885341460
10814,7,Jits_ISO_8,0,1,48,54,2886014376
10814,7,Jits_ISO_8,1,5,56,103,2886092024
10814,7,Jits_ISO_8,2,5,80,127,2886102596
10814,7,Jits_ISO_8,3,5,63,98,2886142516
10814,7,Jits_ISO_8,0,5,56,103,2886801764
10814,7,Jits_ISO_8,1,1,48,55,2886813276
10814,7,Jits_ISO_8,2,5,63,98,2886822220
10814,7,Jits_ISO_8,3,5,80,127,2886891748
10814,7,Jits_ISO_8,0,1,48,52,2887595820
10814,7,Jits_ISO_8,1,5,63,98,2887621856
10814,7,Jits_ISO_8,2,5,80,127,2887682468
10814,7,Jits_ISO_8,3,5,56,103,2887701868
10814,7,Jits_ISO_8,0,1,48,58,2888365040
10814,7,Jits_ISO_8,1,5,80,127,2888411452
10814,7,Jits_ISO_8,2,5,56,103,2888442100
10814,7,Jits_ISO_8,3,5,63,98,2888471836
10814,7,Jits_ISO_8,0,1,48,51,2889192320
10814,7,Jits_ISO_8,1,5,56,103,2889212200
10814,7,Jits_ISO_8,2,5,63,98,2889271548
10814,7,Jits_ISO_8,3,5,80,127,2889332172
10814,7,Jits_ISO_8,0,1,48,59,2889993676
10814,7,Jits_ISO_8,1,5,80,127,2890031468
10814,7,Jits_ISO_8,2,5,56,103,2890051952
10814,7,Jits_ISO_8,3,5,63,98,2890121616
10814,7,Jits_ISO_8,0,1,48,54,2890816084
10814,7,Jits_ISO_8,1,5,80,127,2890832100
10814,7,Jits_ISO_8,2,5,63,98,2890851736
10814,7,Jits_ISO_8,3,5,56,103,2890882680
10814,7,Jits_ISO_8,0,1,48,51,2891616184
10814,7,Jits_ISO_8,1,5,80,127,2891621692
10814,7,Jits_ISO_8,2,5,63,98,2891642448
10814,7,Jits_ISO_8,3,5,56,103,2891701644
10814,7,Jits_ISO_8,0,5,80,127,2892421552
10814,7,Jits_ISO_8,1,1,48,49,2892445872
10814,7,Jits_ISO_8,2,5,56,103,2892521724
10814,7,Jits_ISO_8,3,5,63,98,2892551532
10814,7,Jits_ISO_8,0,5,63,98,2893212064
10814,7,Jits_ISO_8,1,5,80,127,2893262120
10814,7,Jits_ISO_8,2,5,56,103,2893281608
10814,7,Jits_ISO_8,3,1,48,56,2893282576
10814,7,Jits_ISO_8,0,1,48,51,2894005068
10814,7,Jits_ISO_8,1,5,80,127,2894051776
10814,7,Jits_ISO_8,2,5,56,103,2894082644
10814,7,Jits_ISO_8,3,5,63,98,2894085640
10814,7,Jits_ISO_8,0,1,48,54,2894789404
10814,7,Jits_ISO_8,1,5,63,98,2894882552
10814,7,Jits_ISO_8,2,5,56,103,2894922072
10814,7,Jits_ISO_8,3,5,80,127,2894941708
10814,7,Jits_ISO_8,0,1,48,56,2895605908
10814,7,Jits_ISO_8,1,5,80,127,2895621600
10814,7,Jits_ISO_8,2,5,63,98,2895702620
10814,7,Jits_ISO_8,3,5,56,103,2895742396
10814,7,Jits_ISO_8,0,1,48,44,2896437536
10814,7,Jits_ISO_8,1,5,63,98,2896441764
10814,7,Jits_ISO_8,2,5,80,127,2896521516
10814,7,Jits_ISO_8,3,5,56,103,2896542032
10814,7,Jits_ISO_8,0,1,48,54,2897237204
10814,7,Jits_ISO_8,1,5,56,103,2897282636
10814,7,Jits_ISO_8,2,5,63,98,2897291560
10814,7,Jits_ISO_8,3,5,80,127,2897331424
10814,7,Jits_ISO_8,0,5,56,103,2898002408
10814,7,Jits_ISO_8,1,5,80,127,2898005252
10814,7,Jits_ISO_8,2,1,48,53,2898034220
10814,7,Jits_ISO_8,3,5,63,98,2898141592
10814,7,Jits_ISO_8,0,1,48,55,2898781488
10814,7,Jits_ISO_8,1,5,56,103,2898791776
10814,7,Jits_ISO_8,2,5,63,98,2898881896
10814,7,Jits_ISO_8,3,5,80,127,2898951504
10814,7,Jits_ISO_8,0,1,48,53,2899580744
10814,7,Jits_ISO_8,1,5,63,98,2899673220
10814,7,Jits_ISO_8,2,5,80,127,2899676496
10814,7,Jits_ISO_8,3,5,56,103,2899731800
10814,7,Jits_ISO_8,0,1,48,54,2900382544
10814,7,Jits_ISO_8,1,5,80,127,2900512248
10814,7,Jits_ISO_8,2,5,56,103,2900531512
10814,7,Jits_ISO_8,3,5,63,98,2900541932
10814,7,Jits_ISO_8,0,5,56,103,2901221708
10814,7,Jits_ISO_8,1,5,63,98,2901231904
10814,7,Jits_ISO_8,2,1,48,52,2901255020
10814,7,Jits_ISO_8,3,5,80,127,2901301652
10814,7,Jits_ISO_8,0,1,48,50,2901999500
10814,7,Jits_ISO_8,1,5,80,127,2902021420
10814,7,Jits_ISO_8,2,5,56,103,2902071624
10814,7,Jits_ISO_8,3,5,63,98,2902121984
10814,7,Jits_ISO_8,0,1,48,51,2902874992
10814,7,Jits_ISO_8,1,5,56,103,2902902372
10814,7,Jits_ISO_8,2,5,63,98,2902912640
10814,7,Jits_ISO_8,3,5,80,127,2902952356
10814,7,Jits_ISO_8,0,5,56,103,2903641484
10814,7,Jits_ISO_8,1,5,63,98,2903682396
10814,7,Jits_ISO_8,2,1,48,54,2903709184
10814,7,Jits_ISO_8,3,5,80,127,2903731472
10814,7,Jits_ISO_8,0,5,80,127,2904402548
10814,7,Jits_ISO_8,1,5,56,103,2904451480
10814,7,Jits_ISO_8,2,5,63,98,2904471940
10814,7,Jits_ISO_8,3,1,48,49,2904494092
10814,7,Jits_ISO_8,0,1,48,50,2905197660
10814,7,Jits_ISO_8,1,5,80,127,2905212448
10814,7,Jits_ISO_8,2,5,63,98,2905271648
10814,7,Jits_ISO_8,3,5,56,103,2905351576
10814,7,Jits_ISO_8,0,5,80,127,2905991492
10814,7,Jits_ISO_8,1,1,48,54,2905995128
10814,7,Jits_ISO_8,2,5,56,103,2906031352
10814,7,Jits_ISO_8,3,5,63,98,2906051956
10814,7,Jits_ISO_8,0,1,48,54,2906765024
10814,7,Jits_ISO_8,1,5,56,103,2906841404
10814,7,Jits_ISO_8,2,5,80,127,2906851672
10814,7,Jits_ISO_8,3,5,63,98,2906891596
10814,7,Jits_ISO_8,0,1,48,53,2907591112
10814,7,Jits_ISO_8,1,5,56,103,2907711748
10814,7,Jits_ISO_8,2,5,63,98,2907751860
10814,7,Jits_ISO_8,3,5,80,127,2907755148
10814,7,Jits_ISO_8,0,1,48,59,2908377180
10814,7,Jits_ISO_8,1,5,63,98,2908402160
10814,7,Jits_ISO_8,2,5,80,127,2908441876
10814,7,Jits_ISO_8,3,5,56,103,2908511564
10814,7,Jits_ISO_8,0,5,63,98,2909191532
10814,7,Jits_ISO_8,1,1,48,55,2909192500
10814,7,Jits_ISO_8,2,5,56,103,2909272324
10814,7,Jits_ISO_8,3,5,80,127,2909331800
10814,7,Jits_ISO_8,0,5,80,127,2910001508
10814,7,Jits_ISO_8,1,1,48,59,2910046528
10814,7,Jits_ISO_8,2,5,63,98,2910051728
10814,7,Jits_ISO_8,3,5,56,103,2910082376
10814,7,Jits_ISO_8,0,5,56,103,2910792332
10814,7,Jits_ISO_8,1,5,63,98,2910842240
10814,7,Jits_ISO_8,2,5,80,127,2910851464
10814,7,Jits_ISO_8,3,1,48,58,2910852500
10814,7,Jits_ISO_8,0,1,48,54,2911592916
10814,7,Jits_ISO_8,1,5,56,103,2911602304
10814,7,Jits_ISO_8,2,5,63,98,2911711536
10814,7,Jits_ISO_8,3,5,80,127,2911732292
10814,7,Jits_ISO_8,0,1,48,51,2912382072
10814,7,Jits_ISO_8,1,5,63,98,2912401648
10814,7,Jits_ISO_8,2,5,80,127,2912451852
10814,7,Jits_ISO_8,3,5,56,103,2912542264
10814,7,Jits_ISO_8,0,5,63,98,2913192296
10814,7,Jits_ISO_8,1,1,48,59,2913216460
10814,7,Jits_ISO_8,2,5,80,127,2913221892
10814,7,Jits_ISO_8,3,5,56,103,2913312244
10814,7,Jits_ISO_8,0,5,63,98,2913992224
10814,7,Jits_ISO_8,1,1,48,53,2913997436
10814,7,Jits_ISO_8,2,5,56,103,2914002264
10814,7,Jits_ISO_8,3,5,80,127,2914101600
10814,7,Jits_ISO_8,0,1,48,51,2914772048
10814,7,Jits_ISO_8,1,5,63,98,2914892256
10814,7,Jits_ISO_8,2,5,80,127,2914921856
10814,7,Jits_ISO_8,3,5,56,103,2914951608
10814,7,Jits_ISO_8,0,1,48,47,2915555352
10814,7,Jits_ISO_8,1,5,80,127,2915712356
10814,7,Jits_ISO_8,2,5,63,98,2915721580
10814,7,Jits_ISO_8,3,5,56,103,2915752376
10814,7,Jits_ISO_8,0,5,80,127,2916411896
10814,7,Jits_ISO_8,1,5,63,98,2916432380
10814,7,Jits_ISO_8,2,1,48,47,2916468160
10814,7,Jits_ISO_8,3,5,56,103,2916482356
10814,7,Jits_ISO_8,0,1,48,49,2917214004
10814,7,Jits_ISO_8,1,5,63,98,2917242428
10814,7,Jits_ISO_8,2,5,80,127,2917301552
10814,7,Jits_ISO_8,3,5,56,103,2917322144
10814,7,Jits_ISO_8,0,5,63,98,2918002212
10814,7,Jits_ISO_8,1,1,48,51,2918039336
10814,7,Jits_ISO_8,2,5,56,103,2918052484
10814,7,Jits_ISO_8,3,5,80,127,2918061484
10814,7,Jits_ISO_8,0,1,48,51,2918820248
10814,7,Jits_ISO_8,1,5,56,103,2918831360
10814,7,Jits_ISO_8,2,5,80,127,2918841852
10814,7,Jits_ISO_8,3,5,63,98,2918942308
10814,7,Jits_ISO_8,0,5,80,127,2919592336
10814,7,Jits_ISO_8,1,5,63,98,2919601632
10814,7,Jits_ISO_8,2,1,48,51,2919611052
10814,7,Jits_ISO_8,3,5,56,103,2919752228
10814,7,Jits_ISO_8,0,5,63,98,2920402248
10814,7,Jits_ISO_8,1,5,80,127,2920442336
10814,7,Jits_ISO_8,2,1,48,52,2920460220
10814,7,Jits_ISO_8,3,5,56,103,2920522224
10814,7,Jits_ISO_8,0,5,56,103,2921191764
10814,7,Jits_ISO_8,1,1,48,47,2921244404
10814,7,Jits_ISO_8,2,5,80,127,2921292108
10814,7,Jits_ISO_8,3,5,63,98,2921311668
10814,7,Jits_ISO_8,0,1,48,49,2921977584
10814,7,Jits_ISO_8,1,5,80,127,2922052116
10814,7,Jits_ISO_8,2,5,56,103,2922062388
10814,7,Jits_ISO_8,3,5,63,98,2922152432
10814,7,Jits_ISO_8,0,1,48,49,2922728896
10814,7,Jits_ISO_8,1,5,56,103,2922851744
10814,7,Jits_ISO_8,2,5,63,98,2922872424
10814,7,Jits_ISO_8,3,5,80,127,2922951996
10814,7,Jits_ISO_8,0,1,48,49,2923510340
10814,7,Jits_ISO_8,1,5,63,98,2923602168
10814,7,Jits_ISO_8,2,5,56,103,2923692508
10814,7,Jits_ISO_8,3,5,80,127,2923695576
10814,7,Jits_ISO_8,0,1,48,53,2924345472
10814,7,Jits_ISO_8,1,5,56,103,2924431688
10814,7,Jits_ISO_8,2,5,80,127,2924492364
10814,7,Jits_ISO_8,3,5,63,98,2924502488
10814,7,Jits_ISO_8,0,1,48,49,2925194204
10814,7,Jits_ISO_8,1,5,80,127,2925281600
10814,7,Jits_ISO_8,2,5,56,103,2925291928
10814,7,Jits_ISO_8,3,5,63,98,2925294996
10814,7,Jits_ISO_8,0,5,56,103,2926041600
10814,7,Jits_ISO_8,1,1,48,55,2926050368
10814,7,Jits_ISO_8,2,5,80,127,2926052088
10814,7,Jits_ISO_8,3,5,63,98,2926072320
10814,7,Jits_ISO_8,0,5,63,98,2926811504
10814,7,Jits_ISO_8,1,1,48,55,2926834324
10814,7,Jits_ISO_8,2,5,80,127,2926872184
10814,7,Jits_ISO_8,3,5,56,103,2926922188
10814,7,Jits_ISO_8,0,1,48,49,2927617836
10814,7,Jits_ISO_8,1,5,63,98,2927692296
10814,7,Jits_ISO_8,2,5,56,103,2927702344
10814,7,Jits_ISO_8,3,5,80,127,2927751484
10814,7,Jits_ISO_8,0,5,63,98,2928391524
10814,7,Jits_ISO_8,1,5,80,127,2928412132
10814,7,Jits_ISO_8,2,5,56,103,2928422256
10814,7,Jits_ISO_8,3,1,48,51,2928448520
10814,7,Jits_ISO_8,0,1,48,48,2929156496
10814,7,Jits_ISO_8,1,5,63,98,2929192264
10814,7,Jits_ISO_8,2,5,80,127,2929195628
10814,7,Jits_ISO_8,3,5,56,103,2929232152
10814,7,Jits_ISO_8,0,1,48,52,2929948692
10814,7,Jits_ISO_8,1,5,63,98,2930061572
10814,7,Jits_ISO_8,2,5,80,127,2930092372
10814,7,Jits_ISO_8,3,5,56,103,2930101520
10814,7,Jits_ISO_8,0,1,48,49,2930767012
10814,7,Jits_ISO_8,1,5,56,103,2930812148
10814,7,Jits_ISO_8,2,5,80,127,2930841972
10814,7,Jits_ISO_8,3,5,63,98,2930871780
10814,7,Jits_ISO_8,0,1,48,46,2931588224
10814,7,Jits_ISO_8,1,5,63,98,2931712312
10814,7,Jits_ISO_8,2,5,56,103,2931752252
10814,7,Jits_ISO_8,3,5,80,127,2931755468
10814,7,Jits_ISO_8,0,5,80,127,2932411652
10814,7,Jits_ISO_8,1,1,48,42,2932482500
10814,7,Jits_ISO_8,2,5,56,103,2932491592
10814,7,Jits_ISO_8,3,5,63,98,2932541940
10814,7,Jits_ISO_8,0,5,80,127,2933192044
10814,7,Jits_ISO_8,1,5,56,103,2933211460
10814,7,Jits_ISO_8,2,1,48,45,2933284472
10814,7,Jits_ISO_8,3,5,63,98,2933301512
10814,7,Jits_ISO_8,0,1,48,46,2934023428
10814,7,Jits_ISO_8,1,5,80,127,2934031620
10814,7,Jits_ISO_8,2,5,63,98,2934071636
10814,7,Jits_ISO_8,3,5,56,103,2934111596
10814,7,Jits_ISO_8,0,5,63,98,2934801668
10814,7,Jits_ISO_8,1,1,48,47,2934836328
10814,7,Jits_ISO_8,2,5,80,127,2934862300
10814,7,Jits_ISO_8,3,5,56,103,2934892124
10814,7,Jits_ISO_8,0,5,56,103,2935601372
10814,7,Jits_ISO_8,1,1,48,51,2935611236
10814,7,Jits_ISO_8,2,5,80,127,2935632188
10814,7,Jits_ISO_8,3,5,63,98,2935722232
10814,7,Jits_ISO_8,0,5,56,103,2936411464
10814,7,Jits_ISO_8,1,1,48,46,2936454064
10814,7,Jits_ISO_8,2,5,80,127,2936522196
10814,7,Jits_ISO_8,3,5,63,98,2936551720
10814,7,Jits_ISO_8,0,5,56,103,2937261316
10814,7,Jits_ISO_8,1,5,63,98,2937321860
10814,7,Jits_ISO_8,2,1,48,50,2937345948
10814,7,Jits_ISO_8,3,5,80,127,2937351452
10814,7,Jits_ISO_8,0,5,56,103,2938031452
10814,7,Jits_ISO_8,1,1,48,49,2938084468
10814,7,Jits_ISO_8,2,5,63,98,2938102028
10814,7,Jits_ISO_8,3,5,80,127,2938121512
10814,7,Jits_ISO_8,0,5,80,127,2938801508
10814,7,Jits_ISO_8,1,5,63,98,2938822192
10814,7,Jits_ISO_8,2,1,48,44,2938855200
10814,7,Jits_ISO_8,3,5,56,103,2938872160
10814,7,Jits_ISO_8,0,9999,9999,9999,2844069960
10814,7,Jits_ISO_8,1,9999,9999,9999,2844869732
10814,7,Jits_ISO_8,2,9999,9999,9999,2845669432
10814,7,Jits_ISO_8,3,9999,9999,9999,2846469228
10814,7,Jits_ISO_8,4,9999,9999,9999,2847269984
10814,7,Jits_ISO_8,5,9999,9999,9999,2848069716
10814,7,Jits_ISO_8,6,9999,9999,9999,2848869428
10814,7,Jits_ISO_8,7,9999,9999,9999,2849669224
10814,7,Jits_ISO_8,8,9999,9999,9999,2850469984
10814,7,Jits_ISO_8,9,9999,9999,9999,2851269684
10814,7,Jits_ISO_8,10,9999,9999,9999,2852069488
10814,7,Jits_ISO_8,11,9999,9999,9999,2852869204
10814,7,Jits_ISO_8,12,9999,9999,9999,2853669976
10814,7,Jits_ISO_8,13,9999,9999,9999,2854469724
10814,7,Jits_ISO_8,14,9999,9999,9999,2855269496
10814,7,Jits_ISO_8,15,9999,9999,9999,2856069196
10814,7,Jits_ISO_8,16,9999,9999,9999,2856870008
10814,7,Jits_ISO_8,17,9999,9999,9999,2857669724
10814,7,Jits_ISO_8,18,9999,9999,9999,2858469440
10814,7,Jits_ISO_8,19,9999,9999,9999,2859269232
10814,7,Jits_ISO_8,20,9999,9999,9999,2860069980
10814,7,Jits_ISO_8,21,9999,9999,9999,2860869716
10814,7,Jits_ISO_8,22,9999,9999,9999,2861669492
10814,7,Jits_ISO_8,23,9999,9999,9999,2862469216
10814,7,Jits_ISO_8,24,9999,9999,9999,2863269976
10814,7,Jits_ISO_8,25,9999,9999,9999,2864069680
10814,7,Jits_ISO_8,26,9999,9999,9999,2864869472
10814,7,Jits_ISO_8,27,9999,9999,9999,2865669180
10814,7,Jits_ISO_8,28,9999,9999,9999,2866469952
10814,7,Jits_ISO_8,29,9999,9999,9999,2867269692
10814,7,Jits_ISO_8,30,9999,9999,9999,2868069472
10814,7,Jits_ISO_8,31,9999,9999,9999,2868869184
10814,7,Jits_ISO_8,32,9999,9999,9999,2869669952
10814,7,Jits_ISO_8,33,9999,9999,9999,2870469748
10814,7,Jits_ISO_8,34,9999,9999,9999,2871269444
10814,7,Jits_ISO_8,35,9999,9999,9999,2872069180
10814,7,Jits_ISO_8,36,9999,9999,9999,2872869944
10814,7,Jits_ISO_8,37,9999,9999,9999,2873669692
10814,7,Jits_ISO_8,38,9999,9999,9999,2874469488
10814,7,Jits_ISO_8,39,9999,9999,9999,2875269216
10814,7,Jits_ISO_8,40,9999,9999,9999,2876069972
10814,7,Jits_ISO_8,41,9999,9999,9999,2876869684
10814,7,Jits_ISO_8,42,9999,9999,9999,2877669464
10814,7,Jits_ISO_8,43,9999,9999,9999,2878469240
10814,7,Jits_ISO_8,44,9999,9999,9999,2879269980
10814,7,Jits_ISO_8,45,9999,9999,9999,2880069716
10814,7,Jits_ISO_8,46,9999,9999,9999,2880869428
10814,7,Jits_ISO_8,47,9999,9999,9999,2881669208
10814,7,Jits_ISO_8,48,9999,9999,9999,2882469964
10814,7,Jits_ISO_8,49,9999,9999,9999,2883269744
10814,7,Jits_ISO_8,50,9999,9999,9999,2884069452
10814,7,Jits_ISO_8,51,9999,9999,9999,2884869172
10814,7,Jits_ISO_8,52,9999,9999,9999,2885669944
10814,7,Jits_ISO_8,53,9999,9999,9999,2886469684
10814,7,Jits_ISO_8,54,9999,9999,9999,2887269464
10814,7,Jits_ISO_8,55,9999,9999,9999,2888069184
10814,7,Jits_ISO_8,56,9999,9999,9999,2888869940
10814,7,Jits_ISO_8,57,9999,9999,9999,2889669724
10814,7,Jits_ISO_8,58,9999,9999,9999,2890469432
10814,7,Jits_ISO_8,59,9999,9999,9999,2891269212
10814,7,Jits_ISO_8,60,9999,9999,9999,2892069968
10814,7,Jits_ISO_8,61,9999,9999,9999,2892869704
10814,7,Jits_ISO_8,62,9999,9999,9999,2893669428
10814,7,Jits_ISO_8,63,9999,9999,9999,2894469204
10814,7,Jits_ISO_8,64,9999,9999,9999,2895269968
10814,7,Jits_ISO_8,65,9999,9999,9999,2896069756
10814,7,Jits_ISO_8,66,9999,9999,9999,2896869472
10814,7,Jits_ISO_8,67,9999,9999,9999,2897669184
10814,7,Jits_ISO_8,68,9999,9999,9999,2898470000
10814,7,Jits_ISO_8,69,9999,9999,9999,2899269748
10814,7,Jits_ISO_8,70,9999,9999,9999,2900069452
10814,7,Jits_ISO_8,71,9999,9999,9999,2900869172
10814,7,Jits_ISO_8,72,9999,9999,9999,2901670000
10814,7,Jits_ISO_8,73,9999,9999,9999,2902469724
10814,7,Jits_ISO_8,74,9999,9999,9999,2903269444
10814,7,Jits_ISO_8,75,9999,9999,9999,2904069228
10814,7,Jits_ISO_8,76,9999,9999,9999,2904869996
10814,7,Jits_ISO_8,77,9999,9999,9999,2905669744
10814,7,Jits_ISO_8,78,9999,9999,9999,2906469452
10814,7,Jits_ISO_8,79,9999,9999,9999,2907269176
10814,7,Jits_ISO_8,80,9999,9999,9999,2908070008
10814,7,Jits_ISO_8,81,9999,9999,9999,2908869716
10814,7,Jits_ISO_8,82,9999,9999,9999,2909669500
10814,7,Jits_ISO_8,83,9999,9999,9999,2910469204
10814,7,Jits_ISO_8,84,9999,9999,9999,2911269968
10814,7,Jits_ISO_8,85,9999,9999,9999,2912069720
10814,7,Jits_ISO_8,86,9999,9999,9999,2912869428
10814,7,Jits_ISO_8,87,9999,9999,9999,2913669208
10814,7,Jits_ISO_8,88,9999,9999,9999,2914469964
10814,7,Jits_ISO_8,89,9999,9999,9999,2915269684
10814,7,Jits_ISO_8,90,9999,9999,9999,2916069476
10814,7,Jits_ISO_8,91,9999,9999,9999,2916869184
10814,7,Jits_ISO_8,92,9999,9999,9999,2917669956
10814,7,Jits_ISO_8,93,9999,9999,9999,2918469688
10814,7,Jits_ISO_8,94,9999,9999,9999,2919269472
10814,7,Jits_ISO_8,95,9999,9999,9999,2920069176
10814,7,Jits_ISO_8,96,9999,9999,9999,2920869948
10814,7,Jits_ISO_8,97,9999,9999,9999,2921669728
10814,7,Jits_ISO_8,98,9999,9999,9999,2922469456
10814,7,Jits_ISO_8,99,9999,9999,9999,2923269172
10814,7,Jits_ISO_8,100,9999,9999,9999,2924069988
10814,7,Jits_ISO_8,101,9999,9999,9999,2924869728
10814,7,Jits_ISO_8,102,9999,9999,9999,2925669432
10814,7,Jits_ISO_8,103,9999,9999,9999,2926469216
10814,7,Jits_ISO_8,104,9999,9999,9999,2927269988
10814,7,Jits_ISO_8,105,9999,9999,9999,2928069704
10814,7,Jits_ISO_8,106,9999,9999,9999,2928869480
10814,7,Jits_ISO_8,107,9999,9999,9999,2929669172
10814,7,Jits_ISO_8,108,9999,9999,9999,2930470008
10814,7,Jits_ISO_8,109,9999,9999,9999,2931269736
10814,7,Jits_ISO_8,110,9999,9999,9999,2932069452
10814,7,Jits_ISO_8,111,9999,9999,9999,2932869240
10814,7,Jits_ISO_8,112,9999,9999,9999,2933670008
10814,7,Jits_ISO_8,113,9999,9999,9999,2934469732
10814,7,Jits_ISO_8,114,9999,9999,9999,2935269440
10814,7,Jits_ISO_8,115,9999,9999,9999,2936069220
10814,7,Jits_ISO_8,116,9999,9999,9999,2936870004
10814,7,Jits_ISO_8,117,9999,9999,9999,2937669684
10814,7,Jits_ISO_8,118,9999,9999,9999,2938469484
10814,7,Jits_ISO_8,119,9999,9999,9999,2939269204
10815,16,Jits_ISO_5,0,5,56,103,2949669212
10815,16,Jits_ISO_5,1,5,63,98,2949672380
10815,16,Jits_ISO_5,2,5,80,127,2949675504
10815,16,Jits_ISO_5,0,5,56,103,2950169004
10815,16,Jits_ISO_5,1,5,63,98,2950172256
10815,16,Jits_ISO_5,2,5,80,127,2950175372
10815,16,Jits_ISO_5,0,5,56,103,2950668592
10815,16,Jits_ISO_5,1,5,80,127,2950678936
10815,16,Jits_ISO_5,2,1,48,44,2950681756
10815,16,Jits_ISO_5,3,5,63,98,2950699312
10815,16,Jits_ISO_5,0,5,63,98,2951119192
10815,16,Jits_ISO_5,1,5,80,127,2951149092
10815,16,Jits_ISO_5,2,5,56,103,2951159136
10815,16,Jits_ISO_5,3,1,48,47,2951190948
10815,16,Jits_ISO_5,0,1,48,55,2951664956
10815,16,Jits_ISO_5,1,5,80,127,2951679376
10815,16,Jits_ISO_5,2,5,56,103,2951688524
10815,16,Jits_ISO_5,3,5,63,98,2951719392
10815,16,Jits_ISO_5,0,1,48,53,2952160208
10815,16,Jits_ISO_5,1,5,63,98,2952169076
10815,16,Jits_ISO_5,2,5,56,103,2952198452
10815,16,Jits_ISO_5,3,5,80,127,2952208944
10815,16,Jits_ISO_5,0,5,56,103,2952619520
10815,16,Jits_ISO_5,1,5,63,98,2952668820
10815,16,Jits_ISO_5,2,1,48,51,2952685492
10815,16,Jits_ISO_5,3,5,80,127,2952689124
10815,16,Jits_ISO_5,0,5,80,127,2953119040
10815,16,Jits_ISO_5,1,1,48,53,2953168860
10815,16,Jits_ISO_5,2,5,63,98,2953170356
10815,16,Jits_ISO_5,3,5,56,103,2953209096
10815,16,Jits_ISO_5,0,5,56,103,2953618936
10815,16,Jits_ISO_5,1,5,63,98,2953648460
10815,16,Jits_ISO_5,2,1,48,46,2953654572
10815,16,Jits_ISO_5,3,5,80,127,2953719032
10815,16,Jits_ISO_5,0,5,56,103,2954118460
10815,16,Jits_ISO_5,1,1,48,50,2954160236
10815,16,Jits_ISO_5,2,5,80,127,2954178916
10815,16,Jits_ISO_5,3,5,63,98,2954208592
10815,16,Jits_ISO_5,0,5,56,103,2954628324
10815,16,Jits_ISO_5,1,5,63,98,2954638892
10815,16,Jits_ISO_5,2,1,48,43,2954670108
10815,16,Jits_ISO_5,3,5,80,127,2954678596
10815,16,Jits_ISO_5,0,5,63,98,2955118852
10815,16,Jits_ISO_5,1,1,48,51,2955148796
10815,16,Jits_ISO_5,2,5,80,127,2955198788
10815,16,Jits_ISO_5,3,5,56,103,2955209056
10815,16,Jits_ISO_5,0,5,63,98,2955669004
10815,16,Jits_ISO_5,1,1,48,36,2955691900
10815,16,Jits_ISO_5,2,5,56,103,2955708788
10815,16,Jits_ISO_5,3,5,80,127,2955711852
10815,16,Jits_ISO_5,0,5,56,103,2956128580
10815,16,Jits_ISO_5,1,5,63,98,2956138996
10815,16,Jits_ISO_5,2,5,80,127,2956178784
10815,16,Jits_ISO_5,3,1,48,40,2956211344
10815,16,Jits_ISO_5,0,5,56,103,2956619024
10815,16,Jits_ISO_5,1,5,63,98,2956622168
10815,16,Jits_ISO_5,2,5,80,127,2956638592
10815,16,Jits_ISO_5,3,1,48,46,2956680884
10815,16,Jits_ISO_5,0,5,80,127,2957129104
10815,16,Jits_ISO_5,1,5,56,103,2957139300
10815,16,Jits_ISO_5,2,1,48,42,2957144660
10815,16,Jits_ISO_5,3,5,63,98,2957208896
10815,16,Jits_ISO_5,0,5,63,98,2957618488
10815,16,Jits_ISO_5,1,5,56,103,2957639044
10815,16,Jits_ISO_5,2,1,48,43,2957644108
10815,16,Jits_ISO_5,3,5,80,127,2957719128
10815,16,Jits_ISO_5,0,5,56,103,2958128408
10815,16,Jits_ISO_5,1,1,48,31,2958158004
10815,16,Jits_ISO_5,2,5,80,127,2958168288
10815,16,Jits_ISO_5,3,5,63,98,2958178932
10815,16,Jits_ISO_5,0,5,80,127,2958618936
10815,16,Jits_ISO_5,1,5,63,98,2958648908
10815,16,Jits_ISO_5,2,1,48,42,2958658656
10815,16,Jits_ISO_5,3,5,56,103,2958688716
10815,16,Jits_ISO_5,0,5,56,103,2959139060
10815,16,Jits_ISO_5,1,1,48,47,2959156352
10815,16,Jits_ISO_5,2,5,63,98,2959169052
10815,16,Jits_ISO_5,3,5,80,127,2959219028
10815,16,Jits_ISO_5,0,5,80,127,2959638804
10815,16,Jits_ISO_5,1,1,48,51,2959640816
10815,16,Jits_ISO_5,2,5,56,103,2959679032
10815,16,Jits_ISO_5,3,5,63,98,2959689252
10815,16,Jits_ISO_5,0,5,80,127,2960119220
10815,16,Jits_ISO_5,1,5,63,98,2960159156
10815,16,Jits_ISO_5,2,1,48,51,2960161096
10815,16,Jits_ISO_5,3,5,56,103,2960218444
10815,16,Jits_ISO_5,0,5,56,103,2960619044
10815,16,Jits_ISO_5,1,5,80,127,2960629088
10815,16,Jits_ISO_5,2,1,48,41,2960659780
10815,16,Jits_ISO_5,3,5,63,98,2960708900
10815,16,Jits_ISO_5,0,5,80,127,2961118564
10815,16,Jits_ISO_5,1,1,48,49,2961164004
10815,16,Jits_ISO_5,2,5,63,98,2961179096
10815,16,Jits_ISO_5,3,5,56,103,2961208772
10815,16,Jits_ISO_5,0,5,56,103,2961619360
10815,16,Jits_ISO_5,1,1,48,52,2961676112
10815,16,Jits_ISO_5,2,5,80,127,2961679072
10815,16,Jits_ISO_5,3,5,63,98,2961718860
10815,16,Jits_ISO_5,0,1,48,54,2962151740
10815,16,Jits_ISO_5,1,5,56,103,2962169152
10815,16,Jits_ISO_5,2,5,63,98,2962178292
10815,16,Jits_ISO_5,3,5,80,127,2962181960
10815,16,Jits_ISO_5,0,5,80,127,2962619060
10815,16,Jits_ISO_5,1,1,48,58,2962628856
10815,16,Jits_ISO_5,2,5,63,98,2962708888
10815,16,Jits_ISO_5,3,5,56,103,2962719232
10815,16,Jits_ISO_5,0,5,56,103,2963118424
10815,16,Jits_ISO_5,1,5,63,98,2963121444
10815,16,Jits_ISO_5,2,5,80,127,2963124864
10815,16,Jits_ISO_5,3,1,48,52,2963157440
10815,16,Jits_ISO_5,0,5,80,127,2963638688
10815,16,Jits_ISO_5,1,1,48,57,2963651844
10815,16,Jits_ISO_5,2,5,63,98,2963688884
10815,16,Jits_ISO_5,3,5,56,103,2963718408
10815,16,Jits_ISO_5,0,5,56,103,2964118960
10815,16,Jits_ISO_5,1,5,80,127,2964129080
10815,16,Jits_ISO_5,2,1,48,57,2964161116
10815,16,Jits_ISO_5,3,5,63,98,2964198896
10815,16,Jits_ISO_5,0,5,56,103,2964628744
10815,16,Jits_ISO_5,1,1,48,55,2964630156
10815,16,Jits_ISO_5,2,5,63,98,2964649344
10815,16,Jits_ISO_5,3,5,80,127,2964708684
10815,16,Jits_ISO_5,0,5,80,127,2965119200
10815,16,Jits_ISO_5,1,1,48,48,2965131312
10815,16,Jits_ISO_5,2,5,63,98,2965188948
10815,16,Jits_ISO_5,3,5,56,103,2965208432
10815,16,Jits_ISO_5,0,5,80,127,2965638728
10815,16,Jits_ISO_5,1,5,56,103,2965648848
10815,16,Jits_ISO_5,2,5,63,98,2965658968
10815,16,Jits_ISO_5,3,1,48,54,2965672200
10815,16,Jits_ISO_5,0,5,80,127,2966129032
10815,16,Jits_ISO_5,1,1,48,53,2966136412
10815,16,Jits_ISO_5,2,5,56,103,2966148584
10815,16,Jits_ISO_5,3,5,63,98,2966219160
10815,16,Jits_ISO_5,0,5,56,103,2966638892
10815,16,Jits_ISO_5,1,1,48,54,2966652644
10815,16,Jits_ISO_5,2,5,80,127,2966668860
10815,16,Jits_ISO_5,3,5,63,98,2966689020
10815,16,Jits_ISO_5,0,5,63,98,2967128380
10815,16,Jits_ISO_5,1,1,48,50,2967137648
10815,16,Jits_ISO_5,2,5,56,103,2967188984
10815,16,Jits_ISO_5,3,5,80,127,2967218436
10815,16,Jits_ISO_5,0,5,63,98,2967618896
10815,16,Jits_ISO_5,1,5,80,127,2967622108
10815,16,Jits_ISO_5,2,1,48,58,2967661268
10815,16,Jits_ISO_5,3,5,56,103,2967709016
10815,16,Jits_ISO_5,0,1,48,55,2968116544
10815,16,Jits_ISO_5,1,5,56,103,2968139136
10815,16,Jits_ISO_5,2,5,63,98,2968168888
10815,16,Jits_ISO_5,3,5,80,127,2968208824
10815,16,Jits_ISO_5,0,1,48,56,2968621736
10815,16,Jits_ISO_5,1,5,63,98,2968638772
10815,16,Jits_ISO_5,2,5,56,103,2968678884
10815,16,Jits_ISO_5,3,5,80,127,2968699340
10815,16,Jits_ISO_5,0,5,63,98,2969148704
10815,16,Jits_ISO_5,1,1,48,55,2969156724
10815,16,Jits_ISO_5,2,5,56,103,2969188956
10815,16,Jits_ISO_5,3,5,80,127,2969198928
10815,16,Jits_ISO_5,0,5,80,127,2969629036
10815,16,Jits_ISO_5,1,1,48,58,2969667172
10815,16,Jits_ISO_5,2,5,63,98,2969698808
10815,16,Jits_ISO_5,3,5,56,103,2969719120
10815,16,Jits_ISO_5,0,5,56,103,2970118736
10815,16,Jits_ISO_5,1,5,80,127,2970139120
10815,16,Jits_ISO_5,2,1,48,53,2970161940
10815,16,Jits_ISO_5,3,5,63,98,2970179000
10815,16,Jits_ISO_5,0,5,63,98,2970628520
10815,16,Jits_ISO_5,1,1,48,54,2970630080
10815,16,Jits_ISO_5,2,5,80,127,2970648972
10815,16,Jits_ISO_5,3,5,56,103,2970689008
10815,16,Jits_ISO_5,0,1,48,55,2971096832
10815,16,Jits_ISO_5,1,5,63,98,2971129144
10815,16,Jits_ISO_5,2,5,56,103,2971148856
10815,16,Jits_ISO_5,3,5,80,127,2971158900
10815,16,Jits_ISO_5,0,1,48,51,2971609820
10815,16,Jits_ISO_5,1,5,80,127,2971628876
10815,16,Jits_ISO_5,2,5,56,103,2971649260
10815,16,Jits_ISO_5,3,5,63,98,2971679008
10815,16,Jits_ISO_5,0,1,48,50,2972128512
10815,16,Jits_ISO_5,1,5,56,103,2972199256
10815,16,Jits_ISO_5,2,5,80,127,2972202244
10815,16,Jits_ISO_5,3,5,63,98,2972218816
10815,16,Jits_ISO_5,0,5,63,98,2972619104
10815,16,Jits_ISO_5,1,5,56,103,2972648704
10815,16,Jits_ISO_5,2,1,48,45,2972702764
10815,16,Jits_ISO_5,3,5,80,127,2972709236
10815,16,Jits_ISO_5,0,1,48,48,2973150276
10815,16,Jits_ISO_5,1,5,63,98,2973198844
10815,16,Jits_ISO_5,2,5,56,103,2973208892
10815,16,Jits_ISO_5,3,5,80,127,2973219164
10815,16,Jits_ISO_5,0,5,56,103,2973649368
10815,16,Jits_ISO_5,1,1,48,54,2973656320
10815,16,Jits_ISO_5,2,5,80,127,2973678888
10815,16,Jits_ISO_5,3,5,63,98,2973689380
10815,16,Jits_ISO_5,0,1,48,46,2974183620
10815,16,Jits_ISO_5,1,5,63,98,2974188972
10815,16,Jits_ISO_5,2,5,56,103,2974199168
10815,16,Jits_ISO_5,3,5,80,127,2974218728
10815,16,Jits_ISO_5,0,5,56,103,2974619040
10815,16,Jits_ISO_5,1,5,63,98,2974679500
10815,16,Jits_ISO_5,2,5,80,127,2974682792
10815,16,Jits_ISO_5,3,1,48,50,2974693180
10815,16,Jits_ISO_5,0,5,80,127,2975139156
10815,16,Jits_ISO_5,1,5,56,103,2975149796
10815,16,Jits_ISO_5,2,1,48,51,2975167836
10815,16,Jits_ISO_5,3,5,63,98,2975219100
10815,16,Jits_ISO_5,0,5,80,127,2975628940
10815,16,Jits_ISO_5,1,1,48,52,2975660384
10815,16,Jits_ISO_5,2,5,56,103,2975699288
10815,16,Jits_ISO_5,3,5,63,98,2975708660
10815,16,Jits_ISO_5,0,1,48,57,2976160648
10815,16,Jits_ISO_5,1,5,63,98,2976169444
10815,16,Jits_ISO_5,2,5,56,103,2976178664
10815,16,Jits_ISO_5,3,5,80,127,2976198900
10815,16,Jits_ISO_5,0,5,80,127,2976618836
10815,16,Jits_ISO_5,1,1,48,57,2976649900
10815,16,Jits_ISO_5,2,5,63,98,2976679220
10815,16,Jits_ISO_5,3,5,56,103,2976719156
10815,16,Jits_ISO_5,0,5,56,103,2977158592
10815,16,Jits_ISO_5,1,5,63,98,2977168716
10815,16,Jits_ISO_5,2,1,48,55,2977190488
10815,16,Jits_ISO_5,3,5,80,127,2977208868
10815,16,Jits_ISO_5,0,5,56,103,2977619308
10815,16,Jits_ISO_5,1,5,80,127,2977649060
10815,16,Jits_ISO_5,2,1,48,51,2977677728
10815,16,Jits_ISO_5,3,5,63,98,2977699252
10815,16,Jits_ISO_5,0,1,48,49,2978149448
10815,16,Jits_ISO_5,1,5,56,103,2978158908
10815,16,Jits_ISO_5,2,5,63,98,2978198844
10815,16,Jits_ISO_5,3,5,80,127,2978202060
10815,16,Jits_ISO_5,0,1,48,61,2978636964
10815,16,Jits_ISO_5,1,5,56,103,2978658784
10815,16,Jits_ISO_5,2,5,63,98,2978668904
10815,16,Jits_ISO_5,3,5,80,127,2978689588
10815,16,Jits_ISO_5,0,5,56,103,2979118564
10815,16,Jits_ISO_5,1,5,80,127,2979121632
10815,16,Jits_ISO_5,2,1,48,52,2979129180
10815,16,Jits_ISO_5,3,5,63,98,2979159420
10815,16,Jits_ISO_5,0,1,48,54,2979617076
10815,16,Jits_ISO_5,1,5,63,98,2979659076
10815,16,Jits_ISO_5,2,5,56,103,2979688828
10815,16,Jits_ISO_5,3,5,80,127,2979709508
10815,16,Jits_ISO_5,0,5,80,127,2980129200
10815,16,Jits_ISO_5,1,5,56,103,2980139396
10815,16,Jits_ISO_5,2,5,63,98,2980148844
10815,16,Jits_ISO_5,3,1,48,54,2980151888
10815,16,Jits_ISO_5,0,5,56,103,2980628796
10815,16,Jits_ISO_5,1,1,48,57,2980635500
10815,16,Jits_ISO_5,2,5,80,127,2980668800
10815,16,Jits_ISO_5,3,5,63,98,2980698352
10815,16,Jits_ISO_5,0,1,48,54,2981136684
10815,16,Jits_ISO_5,1,5,63,98,2981138728
10815,16,Jits_ISO_5,2,5,80,127,2981148920
10815,16,Jits_ISO_5,3,5,56,103,2981159264
10815,16,Jits_ISO_5,0,5,56,103,2981618908
10815,16,Jits_ISO_5,1,1,48,46,2981654908
10815,16,Jits_ISO_5,2,5,63,98,2981688804
10815,16,Jits_ISO_5,3,5,80,127,2981698876
10815,16,Jits_ISO_5,0,1,48,50,2982105504
10815,16,Jits_ISO_5,1,5,80,127,2982118724
10815,16,Jits_ISO_5,2,5,56,103,2982128996
10815,16,Jits_ISO_5,3,5,63,98,2982179268
10815,16,Jits_ISO_5,0,1,48,45,2982587264
10815,16,Jits_ISO_5,1,5,80,127,2982628720
10815,16,Jits_ISO_5,2,5,56,103,2982689092
10815,16,Jits_ISO_5,3,5,63,98,2982718768
10815,16,Jits_ISO_5,0,5,56,103,2983128508
10815,16,Jits_ISO_5,1,1,48,46,2983130088
10815,16,Jits_ISO_5,2,5,80,127,2983132540
10815,16,Jits_ISO_5,3,5,63,98,2983169260
10815,16,Jits_ISO_5,0,1,48,49,2983628512
10815,16,Jits_ISO_5,1,5,56,103,2983658804
10815,16,Jits_ISO_5,2,5,63,98,2983688704
10815,16,Jits_ISO_5,3,5,80,127,2983698824
10815,16,Jits_ISO_5,0,1,48,50,2984128396
10815,16,Jits_ISO_5,1,5,63,98,2984168880
10815,16,Jits_ISO_5,2,5,80,127,2984178928
10815,16,Jits_ISO_5,3,5,56,103,2984189272
10815,16,Jits_ISO_5,0,5,80,127,2984619248
10815,16,Jits_ISO_5,1,1,48,51,2984660428
10815,16,Jits_ISO_5,2,5,56,103,2984668620
10815,16,Jits_ISO_5,3,5,63,98,2984671608
10815,16,Jits_ISO_5,0,5,56,103,2985148952
10815,16,Jits_ISO_5,1,1,48,53,2985159120
10815,16,Jits_ISO_5,2,5,80,127,2985169184
10815,16,Jits_ISO_5,3,5,63,98,2985178628
10815,16,Jits_ISO_5,0,5,63,98,2985629000
10815,16,Jits_ISO_5,1,5,56,103,2985658900
10815,16,Jits_ISO_5,2,1,48,47,2985659940
10815,16,Jits_ISO_5,3,5,80,127,2985679200
10815,16,Jits_ISO_5,0,5,56,103,2986138920
10815,16,Jits_ISO_5,1,1,48,50,2986146828
10815,16,Jits_ISO_5,2,5,80,127,2986149332
10815,16,Jits_ISO_5,3,5,63,98,2986219012
10815,16,Jits_ISO_5,0,5,63,98,2986628556
10815,16,Jits_ISO_5,1,1,48,56,2986666576
10815,16,Jits_ISO_5,2,5,80,127,2986669684
10815,16,Jits_ISO_5,3,5,56,103,2986709544
10815,16,Jits_ISO_5,0,1,48,52,2987133348
10815,16,Jits_ISO_5,1,5,56,103,2987138772
10815,16,Jits_ISO_5,2,5,63,98,2987148744
10815,16,Jits_ISO_5,3,5,80,127,2987169052
10815,16,Jits_ISO_5,0,1,48,54,2987604160
10815,16,Jits_ISO_5,1,5,63,98,2987678964
10815,16,Jits_ISO_5,2,5,80,127,2987698656
10815,16,Jits_ISO_5,3,5,56,103,2987718968
10815,16,Jits_ISO_5,0,5,56,103,2988119592
10815,16,Jits_ISO_5,1,1,48,48,2988139652
10815,16,Jits_ISO_5,2,5,80,127,2988199232
10815,16,Jits_ISO_5,3,5,63,98,2988208752
10815,16,Jits_ISO_5,0,1,48,59,2988612716
10815,16,Jits_ISO_5,1,5,80,127,2988659048
10815,16,Jits_ISO_5,2,5,63,98,2988669168
10815,16,Jits_ISO_5,3,5,56,103,2988698992
10815,16,Jits_ISO_5,0,5,63,98,2989119072
10815,16,Jits_ISO_5,1,1,48,44,2989127072
10815,16,Jits_ISO_5,2,5,80,127,2989158704
10815,16,Jits_ISO_5,3,5,56,103,2989219092
10815,16,Jits_ISO_5,0,5,63,98,2989628824
10815,16,Jits_ISO_5,1,1,48,49,2989649420
10815,16,Jits_ISO_5,2,5,56,103,2989679036
10815,16,Jits_ISO_5,3,5,80,127,2989708784
10815,16,Jits_ISO_5,0,5,80,127,2990138668
10815,16,Jits_ISO_5,1,1,48,46,2990139932
10815,16,Jits_ISO_5,2,5,63,98,2990148956
10815,16,Jits_ISO_5,3,5,56,103,2990218784
10815,16,Jits_ISO_5,0,1,48,41,2990673908
10815,16,Jits_ISO_5,1,5,80,127,2990709084
10815,16,Jits_ISO_5,2,5,56,103,2990719196
10815,16,Jits_ISO_5,3,5,63,98,2990722416
10815,16,Jits_ISO_5,0,5,56,103,2991149532
10815,16,Jits_ISO_5,1,1,48,48,2991150500
10815,16,Jits_ISO_5,2,5,80,127,2991168964
10815,16,Jits_ISO_5,3,5,63,98,2991179156
10815,16,Jits_ISO_5,0,1,48,54,2991643092
10815,16,Jits_ISO_5,1,5,63,98,2991659456
10815,16,Jits_ISO_5,2,5,56,103,2991699420
10815,16,Jits_ISO_5,3,5,80,127,2991718832
10815,16,Jits_ISO_5,0,1,48,51,2992144780
10815,16,Jits_ISO_5,1,5,63,98,2992159048
10815,16,Jits_ISO_5,2,5,56,103,2992218792
10815,16,Jits_ISO_5,3,5,80,127,2992221628
10815,16,Jits_ISO_5,0,5,56,103,2992618780
10815,16,Jits_ISO_5,1,5,80,127,2992639460
10815,16,Jits_ISO_5,2,1,48,55,2992662656
10815,16,Jits_ISO_5,3,5,63,98,2992679240
10815,16,Jits_ISO_5,0,1,48,48,2993149464
10815,16,Jits_ISO_5,1,5,56,103,2993150872
10815,16,Jits_ISO_5,2,5,63,98,2993168868
10815,16,Jits_ISO_5,3,5,80,127,2993178988
10815,16,Jits_ISO_5,0,5,80,127,2993619604
10815,16,Jits_ISO_5,1,1,48,48,2993630144
10815,16,Jits_ISO_5,2,5,56,103,2993649124
10815,16,Jits_ISO_5,3,5,63,98,2993688984
10815,16,Jits_ISO_5,0,1,48,49,2994111604
10815,16,Jits_ISO_5,1,5,80,127,2994129160
10815,16,Jits_ISO_5,2,5,56,103,2994148796
10815,16,Jits_ISO_5,3,5,63,98,2994209096
10815,16,Jits_ISO_5,0,1,48,51,2994622420
10815,16,Jits_ISO_5,1,5,56,103,2994639232
10815,16,Jits_ISO_5,2,5,80,127,2994658644
10815,16,Jits_ISO_5,3,5,63,98,2994718944
10815,16,Jits_ISO_5,0,1,48,46,2995091592
10815,16,Jits_ISO_5,1,5,80,127,2995118664
10815,16,Jits_ISO_5,2,5,56,103,2995128640
10815,16,Jits_ISO_5,3,5,63,98,2995168724
10815,16,Jits_ISO_5,0,5,63,98,2995619080
10815,16,Jits_ISO_5,1,1,48,50,2995632084
10815,16,Jits_ISO_5,2,5,56,103,2995659080
10815,16,Jits_ISO_5,3,5,80,127,2995662072
10815,16,Jits_ISO_5,0,1,48,48,2996114188
10815,16,Jits_ISO_5,1,5,63,98,2996139468
10815,16,Jits_ISO_5,2,5,80,127,2996179260
10815,16,Jits_ISO_5,3,5,56,103,2996208992
10815,16,Jits_ISO_5,0,5,56,103,2996628728
10815,16,Jits_ISO_5,1,1,48,44,2996635884
10815,16,Jits_ISO_5,2,5,63,98,2996639288
10815,16,Jits_ISO_5,3,5,80,127,2996668740
10815,16,Jits_ISO_5,0,5,80,127,2997119552
10815,16,Jits_ISO_5,1,1,48,44,2997121920
10815,16,Jits_ISO_5,2,5,63,98,2997188928
10815,16,Jits_ISO_5,3,5,56,103,2997199196
10815,16,Jits_ISO_5,0,1,48,48,2997609760
10815,16,Jits_ISO_5,1,5,63,98,2997619000
10815,16,Jits_ISO_5,2,5,56,103,2997688604
10815,16,Jits_ISO_5,3,5,80,127,2997699024
10815,16,Jits_ISO_5,0,1,48,53,2998104764
10815,16,Jits_ISO_5,1,5,63,98,2998118736
10815,16,Jits_ISO_5,2,5,56,103,2998139268
10815,16,Jits_ISO_5,3,5,80,127,2998179132
10815,16,Jits_ISO_5,0,1,48,47,2998594832
10815,16,Jits_ISO_5,1,5,56,103,2998628656
10815,16,Jits_ISO_5,2,5,63,98,2998639152
10815,16,Jits_ISO_5,3,5,80,127,2998718852
10815,16,Jits_ISO_5,0,1,48,50,2999105580
10815,16,Jits_ISO_5,1,5,63,98,2999119248
10815,16,Jits_ISO_5,2,5,56,103,2999148848
10815,16,Jits_ISO_5,3,5,80,127,2999188860
10815,16,Jits_ISO_5,0,5,56,103,2999618988
10815,16,Jits_ISO_5,1,1,48,45,2999649076
10815,16,Jits_ISO_5,2,5,63,98,2999658768
10815,16,Jits_ISO_5,3,5,80,127,2999698852
10815,16,Jits_ISO_5,0,5,80,127,3000118636
10815,16,Jits_ISO_5,1,1,48,48,3000121080
10815,16,Jits_ISO_5,2,5,56,103,3000198672
10815,16,Jits_ISO_5,3,5,63,98,3000208796
10815,16,Jits_ISO_5,0,1,48,46,3000594448
10815,16,Jits_ISO_5,1,5,56,103,3000659456
10815,16,Jits_ISO_5,2,5,63,98,3000662448
10815,16,Jits_ISO_5,3,5,80,127,3000668680
10815,16,Jits_ISO_5,0,1,48,44,3001120852
10815,16,Jits_ISO_5,1,5,56,103,3001178588
10815,16,Jits_ISO_5,2,5,63,98,3001198824
10815,16,Jits_ISO_5,3,5,80,127,3001209316
10815,16,Jits_ISO_5,0,5,63,98,3001639496
10815,16,Jits_ISO_5,1,1,48,45,3001645756
10815,16,Jits_ISO_5,2,5,80,127,3001648492
10815,16,Jits_ISO_5,3,5,56,103,3001668972
10815,16,Jits_ISO_5,0,1,48,46,3002134312
10815,16,Jits_ISO_5,1,5,63,98,3002138992
10815,16,Jits_ISO_5,2,5,56,103,3002218884
10815,16,Jits_ISO_5,3,5,80,127,3002221876
10815,16,Jits_ISO_5,0,5,63,98,3002638580
10815,16,Jits_ISO_5,1,1,48,45,3002654348
10815,16,Jits_ISO_5,2,5,56,103,3002659104
10815,16,Jits_ISO_5,3,5,80,127,3002688804
10815,16,Jits_ISO_5,0,5,56,103,3003138536
10815,16,Jits_ISO_5,1,1,48,47,3003143672
10815,16,Jits_ISO_5,2,5,63,98,3003158912
10815,16,Jits_ISO_5,3,5,80,127,3003169256
10815,16,Jits_ISO_5,0,1,48,45,3003632324
10815,16,Jits_ISO_5,1,5,56,103,3003668992
10815,16,Jits_ISO_5,2,5,63,98,3003698436
10815,16,Jits_ISO_5,3,5,80,127,3003701728
10815,16,Jits_ISO_5,0,5,56,103,3004119504
10815,16,Jits_ISO_5,1,1,48,44,3004135200
10815,16,Jits_ISO_5,2,5,63,98,3004159432
10815,16,Jits_ISO_5,3,5,80,127,3004218700
10815,16,Jits_ISO_5,0,1,48,45,3004623484
10815,16,Jits_ISO_5,1,5,56,103,3004638504
10815,16,Jits_ISO_5,2,5,63,98,3004648776
10815,16,Jits_ISO_5,3,5,80,127,3004709088
10815,16,Jits_ISO_5,0,1,48,34,3005114976
10815,16,Jits_ISO_5,1,5,56,103,3005139508
10815,16,Jits_ISO_5,2,5,80,127,3005158696
10815,16,Jits_ISO_5,3,5,63,98,3005188668
10815,16,Jits_ISO_5,0,1,48,47,3005613144
10815,16,Jits_ISO_5,1,5,80,127,3005639020
10815,16,Jits_ISO_5,2,5,56,103,3005649664
10815,16,Jits_ISO_5,3,5,63,98,3005668704
10815,16,Jits_ISO_5,0,1,48,43,3006084552
10815,16,Jits_ISO_5,1,5,63,98,3006128564
10815,16,Jits_ISO_5,2,5,80,127,3006209616
10815,16,Jits_ISO_5,3,5,56,103,3006218540
10815,16,Jits_ISO_5,0,1,48,46,3006623620
10815,16,Jits_ISO_5,1,5,80,127,3006688612
10815,16,Jits_ISO_5,2,5,56,103,3006708992
10815,16,Jits_ISO_5,3,5,63,98,3006712136
10815,16,Jits_ISO_5,0,1,48,48,3007146128
10815,16,Jits_ISO_5,1,5,63,98,3007158672
10815,16,Jits_ISO_5,2,5,80,127,3007161964
10815,16,Jits_ISO_5,3,5,56,103,3007218912
10815,16,Jits_ISO_5,0,5,56,103,3007638780
10815,16,Jits_ISO_5,1,5,80,127,3007649272
10815,16,Jits_ISO_5,2,1,48,47,3007651792
10815,16,Jits_ISO_5,3,5,63,98,3007689052
10815,16,Jits_ISO_5,0,5,56,103,3008119052
10815,16,Jits_ISO_5,1,1,48,43,3008143592
10815,16,Jits_ISO_5,2,5,63,98,3008178612
10815,16,Jits_ISO_5,3,5,80,127,3008188804
10815,16,Jits_ISO_5,0,5,63,98,3008629060
10815,16,Jits_ISO_5,1,1,48,48,3008630324
10815,16,Jits_ISO_5,2,5,80,127,3008669140
10815,16,Jits_ISO_5,3,5,56,103,3008709080
10815,16,Jits_ISO_5,0,1,48,47,3009125756
10815,16,Jits_ISO_5,1,5,56,103,3009128864
10815,16,Jits_ISO_5,2,5,63,98,3009208732
10815,16,Jits_ISO_5,3,5,80,127,3009212020
10815,16,Jits_ISO_5,0,9999,9999,9999,2949916788
10815,16,Jits_ISO_5,1,9999,9999,9999,2950416508
10815,16,Jits_ISO_5,2,9999,9999,9999,2950916152
10815,16,Jits_ISO_5,3,9999,9999,9999,2951416940
10815,16,Jits_ISO_5,4,9999,9999,9999,2951916604
10815,16,Jits_ISO_5,5,9999,9999,9999,2952416344
10815,16,Jits_ISO_5,6,9999,9999,9999,2952917044
10815,16,Jits_ISO_5,7,9999,9999,9999,2953416792
10815,16,Jits_ISO_5,8,9999,9999,9999,2953916536
10815,16,Jits_ISO_5,9,9999,9999,9999,2954416212
10815,16,Jits_ISO_5,10,9999,9999,9999,2954916928
10815,16,Jits_ISO_5,11,9999,9999,9999,2955416680
10815,16,Jits_ISO_5,12,9999,9999,9999,2955916408
10815,16,Jits_ISO_5,13,9999,9999,9999,2956416064
10815,16,Jits_ISO_5,14,9999,9999,9999,2956916844
10815,16,Jits_ISO_5,15,9999,9999,9999,2957416520
10815,16,Jits_ISO_5,16,9999,9999,9999,2957916264
10815,16,Jits_ISO_5,17,9999,9999,9999,2958416968
10815,16,Jits_ISO_5,18,9999,9999,9999,2958916712
10815,16,Jits_ISO_5,19,9999,9999,9999,2959416436
10815,16,Jits_ISO_5,20,9999,9999,9999,2959916104
10815,16,Jits_ISO_5,21,9999,9999,9999,2960416824
10815,16,Jits_ISO_5,22,9999,9999,9999,2960916572
10815,16,Jits_ISO_5,23,9999,9999,9999,2961416244
10815,16,Jits_ISO_5,24,9999,9999,9999,2961917044
10815,16,Jits_ISO_5,25,9999,9999,9999,2962416708
10815,16,Jits_ISO_5,26,9999,9999,9999,2962916444
10815,16,Jits_ISO_5,27,9999,9999,9999,2963416164
10815,16,Jits_ISO_5,28,9999,9999,9999,2963916888
10815,16,Jits_ISO_5,29,9999,9999,9999,2964416632
10815,16,Jits_ISO_5,30,9999,9999,9999,2964916308
10815,16,Jits_ISO_5,31,9999,9999,9999,2965417028
10815,16,Jits_ISO_5,32,9999,9999,9999,2965916772
10815,16,Jits_ISO_5,33,9999,9999,9999,2966416448
10815,16,Jits_ISO_5,34,9999,9999,9999,2966916192
10815,16,Jits_ISO_5,35,9999,9999,9999,2967416916
10815,16,Jits_ISO_5,36,9999,9999,9999,2967916640
10815,16,Jits_ISO_5,37,9999,9999,9999,2968416372
10815,16,Jits_ISO_5,38,9999,9999,9999,2968917076
10815,16,Jits_ISO_5,39,9999,9999,9999,2969416816
10815,16,Jits_ISO_5,40,9999,9999,9999,2969916528
10815,16,Jits_ISO_5,41,9999,9999,9999,2970416192
10815,16,Jits_ISO_5,42,9999,9999,9999,2970916980
10815,16,Jits_ISO_5,43,9999,9999,9999,2971416636
10815,16,Jits_ISO_5,44,9999,9999,9999,2971916368
10815,16,Jits_ISO_5,45,9999,9999,9999,2972416076
10815,16,Jits_ISO_5,46,9999,9999,9999,2972916856
10815,16,Jits_ISO_5,47,9999,9999,9999,2973416524
10815,16,Jits_ISO_5,48,9999,9999,9999,2973916256
10815,16,Jits_ISO_5,49,9999,9999,9999,2974416984
10815,16,Jits_ISO_5,50,9999,9999,9999,2974916708
10815,16,Jits_ISO_5,51,9999,9999,9999,2975416384
10815,16,Jits_ISO_5,52,9999,9999,9999,2975916136
10815,16,Jits_ISO_5,53,9999,9999,9999,2976416860
10815,16,Jits_ISO_5,54,9999,9999,9999,2976916592
10815,16,Jits_ISO_5,55,9999,9999,9999,2977416268
10815,16,Jits_ISO_5,56,9999,9999,9999,2977916988
10815,16,Jits_ISO_5,57,9999,9999,9999,2978416728
10815,16,Jits_ISO_5,58,9999,9999,9999,2978916464
10815,16,Jits_ISO_5,59,9999,9999,9999,2979416184
10815,16,Jits_ISO_5,60,9999,9999,9999,2979916908
10815,16,Jits_ISO_5,61,9999,9999,9999,2980416636
10815,16,Jits_ISO_5,62,9999,9999,9999,2980916284
10815,16,Jits_ISO_5,63,9999,9999,9999,2981417076
10815,16,Jits_ISO_5,64,9999,9999,9999,2981916736
10815,16,Jits_ISO_5,65,9999,9999,9999,2982416480
10815,16,Jits_ISO_5,66,9999,9999,9999,2982916192
10815,16,Jits_ISO_5,67,9999,9999,9999,2983416884
10815,16,Jits_ISO_5,68,9999,9999,9999,2983916632
10815,16,Jits_ISO_5,69,9999,9999,9999,2984416372
10815,16,Jits_ISO_5,70,9999,9999,9999,2984917064
10815,16,Jits_ISO_5,71,9999,9999,9999,2985416816
10815,16,Jits_ISO_5,72,9999,9999,9999,2985916488
10815,16,Jits_ISO_5,73,9999,9999,9999,2986416224
10815,16,Jits_ISO_5,74,9999,9999,9999,2986916944
10815,16,Jits_ISO_5,75,9999,9999,9999,2987416676
10815,16,Jits_ISO_5,76,9999,9999,9999,2987916344
10815,16,Jits_ISO_5,77,9999,9999,9999,2988416076
10815,16,Jits_ISO_5,78,9999,9999,9999,2988916800
10815,16,Jits_ISO_5,79,9999,9999,9999,2989416528
10815,16,Jits_ISO_5,80,9999,9999,9999,2989916260
10815,16,Jits_ISO_5,81,9999,9999,9999,2990416964
10815,16,Jits_ISO_5,82,9999,9999,9999,2990916712
10815,16,Jits_ISO_5,83,9999,9999,9999,2991416420
10815,16,Jits_ISO_5,84,9999,9999,9999,2991916092
10815,16,Jits_ISO_5,85,9999,9999,9999,2992416872
10815,16,Jits_ISO_5,86,9999,9999,9999,2992916600
10815,16,Jits_ISO_5,87,9999,9999,9999,2993416280
10815,16,Jits_ISO_5,88,9999,9999,9999,2993916984
10815,16,Jits_ISO_5,89,9999,9999,9999,2994416732
10815,16,Jits_ISO_5,90,9999,9999,9999,2994916464
10815,16,Jits_ISO_5,91,9999,9999,9999,2995416124
10815,16,Jits_ISO_5,92,9999,9999,9999,2995916896
10815,16,Jits_ISO_5,93,9999,9999,9999,2996416628
10815,16,Jits_ISO_5,94,9999,9999,9999,2996916288
10815,16,Jits_ISO_5,95,9999,9999,9999,2997417084
10815,16,Jits_ISO_5,96,9999,9999,9999,2997916760
10815,16,Jits_ISO_5,97,9999,9999,9999,2998416492
10815,16,Jits_ISO_5,98,9999,9999,9999,2998916152
10815,16,Jits_ISO_5,99,9999,9999,9999,2999416932
10815,16,Jits_ISO_5,100,9999,9999,9999,2999916664
10815,16,Jits_ISO_5,101,9999,9999,9999,3000416340
10815,16,Jits_ISO_5,102,9999,9999,9999,3000917052
10815,16,Jits_ISO_5,103,9999,9999,9999,3001416792
10815,16,Jits_ISO_5,104,9999,9999,9999,3001916496
10815,16,Jits_ISO_5,105,9999,9999,9999,3002416220
10815,16,Jits_ISO_5,106,9999,9999,9999,3002916924
10815,16,Jits_ISO_5,107,9999,9999,9999,3003416656
10815,16,Jits_ISO_5,108,9999,9999,9999,3003916400
10815,16,Jits_ISO_5,109,9999,9999,9999,3004416060
10815,16,Jits_ISO_5,110,9999,9999,9999,3004916856
10815,16,Jits_ISO_5,111,9999,9999,9999,3005416520
10815,16,Jits_ISO_5,112,9999,9999,9999,3005916252
10815,16,Jits_ISO_5,113,9999,9999,9999,3006416960
10815,16,Jits_ISO_5,114,9999,9999,9999,3006916692
10815,16,Jits_ISO_5,115,9999,9999,9999,3007416420
10815,16,Jits_ISO_5,116,9999,9999,9999,3007916156
10815,16,Jits_ISO_5,117,9999,9999,9999,3008416876
10815,16,Jits_ISO_5,118,9999,9999,9999,3008916552
10815,16,Jits_ISO_5,119,9999,9999,9999,3009416280
10816,18,Jits_Linear_8,0,5,56,103,3018848676
10816,18,Jits_Linear_8,1,5,63,98,3018851848
10816,18,Jits_Linear_8,2,5,80,127,3018855116
10816,18,Jits_Linear_8,0,5,56,103,3019668680
10816,18,Jits_Linear_8,1,5,63,98,3019671784
10816,18,Jits_Linear_8,2,5,80,127,3019674756
10816,18,Jits_Linear_8,0,5,80,127,3020428628
10816,18,Jits_Linear_8,1,1,48,55,3020470632
10816,18,Jits_Linear_8,2,5,63,98,3020518756
10816,18,Jits_Linear_8,3,5,56,103,3020528952
10816,18,Jits_Linear_8,0,5,56,103,3021269304
10816,18,Jits_Linear_8,1,1,48,55,3021278900
10816,18,Jits_Linear_8,2,5,63,98,3021280236
10816,18,Jits_Linear_8,3,5,80,127,3021368580
10816,18,Jits_Linear_8,0,5,63,98,3022058732
10816,18,Jits_Linear_8,1,5,80,127,3022088632
10816,18,Jits_Linear_8,2,1,48,60,3022107792
10816,18,Jits_Linear_8,3,5,56,103,3022119348
10816,18,Jits_Linear_8,0,1,48,56,3022833940
10816,18,Jits_Linear_8,1,5,56,103,3022879224
10816,18,Jits_Linear_8,2,5,80,127,3022978368
10816,18,Jits_Linear_8,3,5,63,98,3023028716
10816,18,Jits_Linear_8,0,5,56,103,3023689204
10816,18,Jits_Linear_8,1,1,48,56,3023731360
10816,18,Jits_Linear_8,2,5,80,127,3023739480
10816,18,Jits_Linear_8,3,5,63,98,3023779120
10816,18,Jits_Linear_8,0,1,48,61,3024517788
10816,18,Jits_Linear_8,1,5,80,127,3024528824
10816,18,Jits_Linear_8,2,5,63,98,3024558428
10816,18,Jits_Linear_8,3,5,56,103,3024629216
10816,18,Jits_Linear_8,0,5,63,98,3025368372
10816,18,Jits_Linear_8,1,1,48,55,3025395384
10816,18,Jits_Linear_8,2,5,56,103,3025399388
10816,18,Jits_Linear_8,3,5,80,127,3025458656
10816,18,Jits_Linear_8,0,5,56,103,3026119276
10816,18,Jits_Linear_8,1,5,80,127,3026122268
10816,18,Jits_Linear_8,2,1,48,54,3026199192
10816,18,Jits_Linear_8,3,5,63,98,3026238724
10816,18,Jits_Linear_8,0,1,48,52,3026959912
10816,18,Jits_Linear_8,1,5,56,103,3026998600
10816,18,Jits_Linear_8,2,5,80,127,3027038568
10816,18,Jits_Linear_8,3,5,63,98,3027048764
10816,18,Jits_Linear_8,0,5,56,103,3027758508
10816,18,Jits_Linear_8,1,1,48,54,3027765812
10816,18,Jits_Linear_8,2,5,80,127,3027779060
10816,18,Jits_Linear_8,3,5,63,98,3027858692
10816,18,Jits_Linear_8,0,5,80,127,3028548940
10816,18,Jits_Linear_8,1,1,48,50,3028597392
10816,18,Jits_Linear_8,2,5,56,103,3028649408
10816,18,Jits_Linear_8,3,5,63,98,3028658484
10816,18,Jits_Linear_8,0,5,63,98,3029319192
10816,18,Jits_Linear_8,1,5,80,127,3029378464
10816,18,Jits_Linear_8,2,5,56,103,3029388732
10816,18,Jits_Linear_8,3,1,48,53,3029400920
10816,18,Jits_Linear_8,0,5,56,103,3030118644
10816,18,Jits_Linear_8,1,1,48,63,3030167244
10816,18,Jits_Linear_8,2,5,63,98,3030189516
10816,18,Jits_Linear_8,3,5,80,127,3030192880
10816,18,Jits_Linear_8,0,1,48,56,3030941136
10816,18,Jits_Linear_8,1,5,63,98,3030949332
10816,18,Jits_Linear_8,2,5,56,103,3030999460
10816,18,Jits_Linear_8,3,5,80,127,3031002600
10816,18,Jits_Linear_8,0,5,56,103,3031698656
10816,18,Jits_Linear_8,1,5,80,127,3031701728
10816,18,Jits_Linear_8,2,1,48,64,3031760440
10816,18,Jits_Linear_8,3,5,63,98,3031789084
10816,18,Jits_Linear_8,4,1,48,34,3031814212
10816,18,Jits_Linear_8,0,1,48,56,3032516028
10816,18,Jits_Linear_8,1,5,63,98,3032529176
10816,18,Jits_Linear_8,2,5,56,103,3032619448
10816,18,Jits_Linear_8,3,5,80,127,3032649220
10816,18,Jits_Linear_8,0,5,56,103,3033308492
10816,18,Jits_Linear_8,1,1,48,53,3033326828
10816,18,Jits_Linear_8,2,5,63,98,3033408836
10816,18,Jits_Linear_8,3,5,80,127,3033438496
10816,18,Jits_Linear_8,0,5,63,98,3034118456
10816,18,Jits_Linear_8,1,5,56,103,3034128724
10816,18,Jits_Linear_8,2,1,48,51,3034146740
10816,18,Jits_Linear_8,3,5,80,127,3034218804
10816,18,Jits_Linear_8,0,5,63,98,3034919260
10816,18,Jits_Linear_8,1,1,48,54,3034920596
10816,18,Jits_Linear_8,2,5,56,103,3034999444
10816,18,Jits_Linear_8,3,5,80,127,3035002436
10816,18,Jits_Linear_8,0,5,80,127,3035658548
10816,18,Jits_Linear_8,1,5,63,98,3035679304
10816,18,Jits_Linear_8,2,1,48,59,3035733096
10816,18,Jits_Linear_8,3,5,56,103,3035738372
10816,18,Jits_Linear_8,0,5,56,103,3036478796
10816,18,Jits_Linear_8,1,1,48,60,3036482812
10816,18,Jits_Linear_8,2,5,63,98,3036499320
10816,18,Jits_Linear_8,3,5,80,127,3036502536
10816,18,Jits_Linear_8,0,5,63,98,3037198740
10816,18,Jits_Linear_8,1,1,48,57,3037214068
10816,18,Jits_Linear_8,2,5,80,127,3037278556
10816,18,Jits_Linear_8,3,5,56,103,3037288828
10816,18,Jits_Linear_8,0,5,63,98,3037998568
10816,18,Jits_Linear_8,1,5,56,103,3038019056
10816,18,Jits_Linear_8,2,1,48,55,3038025016
10816,18,Jits_Linear_8,3,5,80,127,3038069396
10816,18,Jits_Linear_8,0,5,80,127,3038778772
10816,18,Jits_Linear_8,1,1,48,59,3038807892
10816,18,Jits_Linear_8,2,5,63,98,3038818628
10816,18,Jits_Linear_8,3,5,56,103,3038839236
10816,18,Jits_Linear_8,0,1,48,58,3039552956
10816,18,Jits_Linear_8,1,5,56,103,3039588724
10816,18,Jits_Linear_8,2,5,63,98,3039599144
10816,18,Jits_Linear_8,3,5,80,127,3039618412
10816,18,Jits_Linear_8,0,5,56,103,3040289268
10816,18,Jits_Linear_8,1,1,48,56,3040319764
10816,18,Jits_Linear_8,2,5,63,98,3040379348
10816,18,Jits_Linear_8,3,5,80,127,3040438600
10816,18,Jits_Linear_8,0,5,80,127,3041088916
10816,18,Jits_Linear_8,1,5,56,103,3041099260
10816,18,Jits_Linear_8,2,1,48,56,3041118792
10816,18,Jits_Linear_8,3,5,63,98,3041168712
10816,18,Jits_Linear_8,0,1,48,55,3041863920
10816,18,Jits_Linear_8,1,5,63,98,3041888680
10816,18,Jits_Linear_8,2,5,80,127,3041978728
10816,18,Jits_Linear_8,3,5,56,103,3041988996
10816,18,Jits_Linear_8,0,5,63,98,3042589300
10816,18,Jits_Linear_8,1,5,80,127,3042639380
10816,18,Jits_Linear_8,2,1,48,54,3042692016
10816,18,Jits_Linear_8,3,5,56,103,3042698716
10816,18,Jits_Linear_8,0,5,56,103,3043378496
10816,18,Jits_Linear_8,1,1,48,55,3043419024
10816,18,Jits_Linear_8,2,5,80,127,3043428716
10816,18,Jits_Linear_8,3,5,63,98,3043449248
10816,18,Jits_Linear_8,0,5,56,103,3044108660
10816,18,Jits_Linear_8,1,5,80,127,3044169000
10816,18,Jits_Linear_8,2,1,48,55,3044176456
10816,18,Jits_Linear_8,3,5,63,98,3044238680
10816,18,Jits_Linear_8,0,5,56,103,3044868496
10816,18,Jits_Linear_8,1,5,80,127,3044899220
10816,18,Jits_Linear_8,2,1,48,55,3044916040
10816,18,Jits_Linear_8,3,5,63,98,3044928840
10816,18,Jits_Linear_8,0,1,48,56,3045657672
10816,18,Jits_Linear_8,1,5,56,103,3045669228
10816,18,Jits_Linear_8,2,5,80,127,3045688564
10816,18,Jits_Linear_8,3,5,63,98,3045749056
10816,18,Jits_Linear_8,0,1,48,58,3046432168
10816,18,Jits_Linear_8,1,5,80,127,3046509096
10816,18,Jits_Linear_8,2,5,56,103,3046519144
10816,18,Jits_Linear_8,3,5,63,98,3046529324
10816,18,Jits_Linear_8,0,5,56,103,3047218412
10816,18,Jits_Linear_8,1,1,48,54,3047223020
10816,18,Jits_Linear_8,2,5,80,127,3047258444
10816,18,Jits_Linear_8,3,5,63,98,3047289164
10816,18,Jits_Linear_8,0,5,56,103,3047938468
10816,18,Jits_Linear_8,1,5,63,98,3047969192
10816,18,Jits_Linear_8,2,1,48,59,3047999236
10816,18,Jits_Linear_8,3,5,80,127,3048009224
10816,18,Jits_Linear_8,0,5,80,127,3048639188
10816,18,Jits_Linear_8,1,5,63,98,3048689092
10816,18,Jits_Linear_8,2,5,56,103,3048708356
10816,18,Jits_Linear_8,3,1,48,47,3048734688
10816,18,Jits_Linear_8,0,5,56,103,3049419252
10816,18,Jits_Linear_8,1,1,48,45,3049457144
10816,18,Jits_Linear_8,2,5,80,127,3049488780
10816,18,Jits_Linear_8,3,5,63,98,3049549048
10816,18,Jits_Linear_8,0,5,80,127,3050158344
10816,18,Jits_Linear_8,1,1,48,57,3050185876
10816,18,Jits_Linear_8,2,5,63,98,3050248696
10816,18,Jits_Linear_8,3,5,56,103,3050269232
10816,18,Jits_Linear_8,0,5,63,98,3050919232
10816,18,Jits_Linear_8,1,5,56,103,3050938792
10816,18,Jits_Linear_8,2,5,80,127,3050978660
10816,18,Jits_Linear_8,3,1,48,48,3050986952
10816,18,Jits_Linear_8,0,5,80,127,3051618736
10816,18,Jits_Linear_8,1,5,63,98,3051639272
10816,18,Jits_Linear_8,2,5,56,103,3051719216
10816,18,Jits_Linear_8,3,1,48,54,3051730204
10816,18,Jits_Linear_8,0,5,63,98,3052348752
10816,18,Jits_Linear_8,1,1,48,54,3052422520
10816,18,Jits_Linear_8,2,5,56,103,3052459332
10816,18,Jits_Linear_8,3,5,80,127,3052462544
10816,18,Jits_Linear_8,0,5,63,98,3053108540
10816,18,Jits_Linear_8,1,5,56,103,3053118908
10816,18,Jits_Linear_8,2,5,80,127,3053122124
10816,18,Jits_Linear_8,3,1,48,54,3053154388
10816,18,Jits_Linear_8,0,5,56,103,3053828340
10816,18,Jits_Linear_8,1,1,48,56,3053843888
10816,18,Jits_Linear_8,2,5,80,127,3053949344
10816,18,Jits_Linear_8,3,5,63,98,3053989284
10816,18,Jits_Linear_8,0,5,56,103,3054579188
10816,18,Jits_Linear_8,1,1,48,50,3054611976
10816,18,Jits_Linear_8,2,5,80,127,3054659080
10816,18,Jits_Linear_8,3,5,63,98,3054679464
10816,18,Jits_Linear_8,0,5,56,103,3055309136
10816,18,Jits_Linear_8,1,1,48,58,3055364544
10816,18,Jits_Linear_8,2,5,63,98,3055418820
10816,18,Jits_Linear_8,3,5,80,127,3055422208
10816,18,Jits_Linear_8,0,5,56,103,3056069044
10816,18,Jits_Linear_8,1,1,48,52,3056096452
10816,18,Jits_Linear_8,2,5,80,127,3056098564
10816,18,Jits_Linear_8,3,5,63,98,3056119248
10816,18,Jits_Linear_8,0,5,63,98,3056778612
10816,18,Jits_Linear_8,1,5,56,103,3056789108
10816,18,Jits_Linear_8,2,5,80,127,3056799152
10816,18,Jits_Linear_8,3,1,48,55,3056853512
10816,18,Jits_Linear_8,0,5,80,127,3057489132
10816,18,Jits_Linear_8,1,1,48,44,3057534128
10816,18,Jits_Linear_8,2,5,56,103,3057538432
10816,18,Jits_Linear_8,3,5,63,98,3057579416
10816,18,Jits_Linear_8,0,1,48,51,3058222164
10816,18,Jits_Linear_8,1,5,80,127,3058228708
10816,18,Jits_Linear_8,2,5,63,98,3058249120
10816,18,Jits_Linear_8,3,5,56,103,3058299244
10816,18,Jits_Linear_8,0,5,80,127,3058958572
10816,18,Jits_Linear_8,1,1,48,47,3058961540
10816,18,Jits_Linear_8,2,5,56,103,3058989288
10816,18,Jits_Linear_8,3,5,63,98,3059059052
10816,18,Jits_Linear_8,0,1,48,56,3059704960
10816,18,Jits_Linear_8,1,5,56,103,3059728968
10816,18,Jits_Linear_8,2,5,80,127,3059739016
10816,18,Jits_Linear_8,3,5,63,98,3059779128
10816,18,Jits_Linear_8,0,5,56,103,3060358592
10816,18,Jits_Linear_8,1,5,63,98,3060378980
10816,18,Jits_Linear_8,2,5,80,127,3060448584
10816,18,Jits_Linear_8,3,1,48,58,3060479944
10816,18,Jits_Linear_8,0,5,63,98,3061099016
10816,18,Jits_Linear_8,1,1,48,56,3061115388
10816,18,Jits_Linear_8,2,5,80,127,3061159252
10816,18,Jits_Linear_8,3,5,56,103,3061178816
10816,18,Jits_Linear_8,0,1,48,55,3061791880
10816,18,Jits_Linear_8,1,5,80,127,3061799324
10816,18,Jits_Linear_8,2,5,56,103,3061828952
10816,18,Jits_Linear_8,3,5,63,98,3061858848
10816,18,Jits_Linear_8,0,5,56,103,3062509028
10816,18,Jits_Linear_8,1,1,48,55,3062532748
10816,18,Jits_Linear_8,2,5,63,98,3062569416
10816,18,Jits_Linear_8,3,5,80,127,3062628844
10816,18,Jits_Linear_8,0,5,80,127,3063239128
10816,18,Jits_Linear_8,1,5,56,103,3063258468
10816,18,Jits_Linear_8,2,1,48,54,3063272072
10816,18,Jits_Linear_8,3,5,63,98,3063329040
10816,18,Jits_Linear_8,0,5,80,127,3063948624
10816,18,Jits_Linear_8,1,5,63,98,3063969084
10816,18,Jits_Linear_8,2,1,48,53,3063986296
10816,18,Jits_Linear_8,3,5,56,103,3063998976
10816,18,Jits_Linear_8,0,5,80,127,3064639008
10816,18,Jits_Linear_8,1,5,63,98,3064659396
10816,18,Jits_Linear_8,2,1,48,59,3064704688
10816,18,Jits_Linear_8,3,5,56,103,3064718660
10816,18,Jits_Linear_8,0,5,80,127,3065339260
10816,18,Jits_Linear_8,1,1,48,52,3065403760
10816,18,Jits_Linear_8,2,5,56,103,3065438632
10816,18,Jits_Linear_8,3,5,63,98,3065469356
10816,18,Jits_Linear_8,0,5,63,98,3066029352
10816,18,Jits_Linear_8,1,5,80,127,3066078732
10816,18,Jits_Linear_8,2,5,56,103,3066099192
10816,18,Jits_Linear_8,3,1,48,49,3066106644
10816,18,Jits_Linear_8,0,5,80,127,3066768948
10816,18,Jits_Linear_8,1,1,48,55,3066780460
10816,18,Jits_Linear_8,2,5,56,103,3066798468
10816,18,Jits_Linear_8,3,5,63,98,3066801384
10816,18,Jits_Linear_8,0,1,48,55,3067496292
10816,18,Jits_Linear_8,1,5,63,98,3067498956
10816,18,Jits_Linear_8,2,5,56,103,3067539044
10816,18,Jits_Linear_8,3,5,80,127,3067559280
10816,18,Jits_Linear_8,0,5,80,127,3068139040
10816,18,Jits_Linear_8,1,1,48,48,3068179028
10816,18,Jits_Linear_8,2,5,63,98,3068218908
10816,18,Jits_Linear_8,3,5,56,103,3068258624
10816,18,Jits_Linear_8,0,5,63,98,3068848444
10816,18,Jits_Linear_8,1,1,48,56,3068897192
10816,18,Jits_Linear_8,2,5,80,127,3068929504
10816,18,Jits_Linear_8,3,5,56,103,3068948992
10816,18,Jits_Linear_8,0,5,56,103,3069578756
10816,18,Jits_Linear_8,1,5,63,98,3069589028
10816,18,Jits_Linear_8,2,1,48,55,3069592000
10816,18,Jits_Linear_8,3,5,80,127,3069628888
10816,18,Jits_Linear_8,0,5,56,103,3070188956
10816,18,Jits_Linear_8,1,5,80,127,3070192096
10816,18,Jits_Linear_8,2,1,48,52,3070289200
10816,18,Jits_Linear_8,3,5,63,98,3070329152
10816,18,Jits_Linear_8,0,5,56,103,3070869144
10816,18,Jits_Linear_8,1,5,63,98,3070958908
10816,18,Jits_Linear_8,2,1,48,54,3070961804
10816,18,Jits_Linear_8,3,5,80,127,3071028732
10816,18,Jits_Linear_8,0,1,48,54,3071576884
10816,18,Jits_Linear_8,1,5,63,98,3071628828
10816,18,Jits_Linear_8,2,5,80,127,3071632192
10816,18,Jits_Linear_8,3,5,56,103,3071689052
10816,18,Jits_Linear_8,0,1,48,55,3072279144
10816,18,Jits_Linear_8,1,5,80,127,3072348500
10816,18,Jits_Linear_8,2,5,56,103,3072368960
10816,18,Jits_Linear_8,3,5,63,98,3072379140
10816,18,Jits_Linear_8,0,5,56,103,3072939436
10816,18,Jits_Linear_8,1,5,63,98,3072948808
10816,18,Jits_Linear_8,2,5,80,127,3073019236
10816,18,Jits_Linear_8,3,1,48,57,3073032544
10816,18,Jits_Linear_8,0,5,80,127,3073619256
10816,18,Jits_Linear_8,1,1,48,51,3073649348
10816,18,Jits_Linear_8,2,5,56,103,3073668404
10816,18,Jits_Linear_8,3,5,63,98,3073718756
10816,18,Jits_Linear_8,0,1,48,53,3074333708
10816,18,Jits_Linear_8,1,5,56,103,3074379092
10816,18,Jits_Linear_8,2,5,63,98,3074389364
10816,18,Jits_Linear_8,3,5,80,127,3074429300
10816,18,Jits_Linear_8,0,5,56,103,3074998948
10816,18,Jits_Linear_8,1,5,63,98,3075038668
10816,18,Jits_Linear_8,2,1,48,58,3075042684
10816,18,Jits_Linear_8,3,5,80,127,3075088860
10816,18,Jits_Linear_8,0,5,80,127,3075629380
10816,18,Jits_Linear_8,1,5,56,103,3075678932
10816,18,Jits_Linear_8,2,1,48,52,3075682724
10816,18,Jits_Linear_8,3,5,63,98,3075699088
10816,18,Jits_Linear_8,0,5,80,127,3076309352
10816,18,Jits_Linear_8,1,1,48,51,3076339520
10816,18,Jits_Linear_8,2,5,63,98,3076369136
10816,18,Jits_Linear_8,3,5,56,103,3076448572
10816,18,Jits_Linear_8,0,5,80,127,3076958684
10816,18,Jits_Linear_8,1,5,56,103,3076998552
10816,18,Jits_Linear_8,2,1,48,60,3077003764
10816,18,Jits_Linear_8,3,5,63,98,3077019004
10816,18,Jits_Linear_8,0,1,48,55,3077666008
10816,18,Jits_Linear_8,1,5,56,103,3077678632
10816,18,Jits_Linear_8,2,5,80,127,3077689124
10816,18,Jits_Linear_8,3,5,63,98,3077728844
10816,18,Jits_Linear_8,0,1,48,48,3078338312
10816,18,Jits_Linear_8,1,5,56,103,3078408768
10816,18,Jits_Linear_8,2,5,63,98,3078448468
10816,18,Jits_Linear_8,3,5,80,127,3078452052
10816,18,Jits_Linear_8,0,5,63,98,3078958568
10816,18,Jits_Linear_8,1,1,48,55,3078994372
10816,18,Jits_Linear_8,2,5,80,127,3078999352
10816,18,Jits_Linear_8,3,5,56,103,3079069032
10816,18,Jits_Linear_8,0,5,63,98,3079608632
10816,18,Jits_Linear_8,1,1,48,42,3079653100
10816,18,Jits_Linear_8,2,5,56,103,3079688496
10816,18,Jits_Linear_8,3,5,80,127,3079748912
10816,18,Jits_Linear_8,0,5,80,127,3080279448
10816,18,Jits_Linear_8,1,1,48,55,3080281388
10816,18,Jits_Linear_8,2,5,63,98,3080328676
10816,18,Jits_Linear_8,3,5,56,103,3080359396
10816,18,Jits_Linear_8,0,5,56,103,3080928824
10816,18,Jits_Linear_8,1,1,48,53,3080942660
10816,18,Jits_Linear_8,2,5,63,98,3080978800
10816,18,Jits_Linear_8,3,5,80,127,3080988996
10816,18,Jits_Linear_8,0,1,48,59,3081579168
10816,18,Jits_Linear_8,1,5,56,103,3081599424
10816,18,Jits_Linear_8,2,5,63,98,3081708952
10816,18,Jits_Linear_8,3,5,80,127,3081729336
10816,18,Jits_Linear_8,0,5,63,98,3082248800
10816,18,Jits_Linear_8,1,1,48,55,3082260616
10816,18,Jits_Linear_8,2,5,80,127,3082299024
10816,18,Jits_Linear_8,3,5,56,103,3082388992
10816,18,Jits_Linear_8,0,5,63,98,3082888824
10816,18,Jits_Linear_8,1,5,80,127,3082919248
10816,18,Jits_Linear_8,2,1,48,55,3082930316
10816,18,Jits_Linear_8,3,5,56,103,3083009376
10816,18,Jits_Linear_8,0,5,63,98,3083538860
10816,18,Jits_Linear_8,1,5,56,103,3083549056
10816,18,Jits_Linear_8,2,1,48,55,3083584860
10816,18,Jits_Linear_8,3,5,80,127,3083649320
10816,18,Jits_Linear_8,0,1,48,50,3084207328
10816,18,Jits_Linear_8,1,5,63,98,3084289684
10816,18,Jits_Linear_8,2,5,80,127,3084319052
10816,18,Jits_Linear_8,3,5,56,103,3084348752
10816,18,Jits_Linear_8,0,1,48,49,3084886176
10816,18,Jits_Linear_8,1,5,80,127,3084959096
10816,18,Jits_Linear_8,2,5,63,98,3084969364
10816,18,Jits_Linear_8,3,5,56,103,3084999024
10816,18,Jits_Linear_8,0,5,80,127,3085498716
10816,18,Jits_Linear_8,1,5,63,98,3085519100
10816,18,Jits_Linear_8,2,1,48,50,3085545960
10816,18,Jits_Linear_8,3,5,56,103,3085569368
10816,18,Jits_Linear_8,0,1,48,53,3086162688
10816,18,Jits_Linear_8,1,5,63,98,3086168640
10816,18,Jits_Linear_8,2,5,80,127,3086228960
10816,18,Jits_Linear_8,3,5,56,103,3086249200
10816,18,Jits_Linear_8,0,5,63,98,3086768796
10816,18,Jits_Linear_8,1,5,56,103,3086818924
10816,18,Jits_Linear_8,2,1,48,57,3086827224
10816,18,Jits_Linear_8,3,5,80,127,3086828888
10816,18,Jits_Linear_8,0,1,48,55,3087378496
10816,18,Jits_Linear_8,1,5,56,103,3087439228
10816,18,Jits_Linear_8,2,5,80,127,3087448532
10816,18,Jits_Linear_8,3,5,63,98,3087548912
10816,18,Jits_Linear_8,0,5,80,127,3088028896
10816,18,Jits_Linear_8,1,1,48,51,3088038184
10816,18,Jits_Linear_8,2,5,63,98,3088039984
10816,18,Jits_Linear_8,3,5,56,103,3088188712
10816,18,Jits_Linear_8,0,5,63,98,3088679248
10816,18,Jits_Linear_8,1,1,48,48,3088714376
10816,18,Jits_Linear_8,2,5,80,127,3088719208
10816,18,Jits_Linear_8,3,5,56,103,3088799000
10816,18,Jits_Linear_8,0,5,56,103,3089309008
10816,18,Jits_Linear_8,1,1,48,55,3089343664
10816,18,Jits_Linear_8,2,5,80,127,3089409328
10816,18,Jits_Linear_8,3,5,63,98,3089428888
10816,18,Jits_Linear_8,0,1,48,52,3089991568
10816,18,Jits_Linear_8,1,5,80,127,3090008604
10816,18,Jits_Linear_8,2,5,56,103,3090018876
10816,18,Jits_Linear_8,3,5,63,98,3090108696
10816,18,Jits_Linear_8,0,1,48,55,3090639820
10816,18,Jits_Linear_8,1,5,56,103,3090648688
10816,18,Jits_Linear_8,2,5,63,98,3090668776
10816,18,Jits_Linear_8,3,5,80,127,3090748728
10816,18,Jits_Linear_8,0,5,63,98,3091239180
10816,18,Jits_Linear_8,1,5,56,103,3091329560
10816,18,Jits_Linear_8,2,1,48,47,3091330468
10816,18,Jits_Linear_8,3,5,80,127,3091333668
10816,18,Jits_Linear_8,0,5,56,103,3091888860
10816,18,Jits_Linear_8,1,1,48,48,3091916616
10816,18,Jits_Linear_8,2,5,80,127,3091949024
10816,18,Jits_Linear_8,3,5,63,98,3091959148
10816,18,Jits_Linear_8,0,1,48,51,3092535204
10816,18,Jits_Linear_8,1,5,80,127,3092559096
10816,18,Jits_Linear_8,2,5,56,103,3092568392
10816,18,Jits_Linear_8,3,5,63,98,3092571532
10816,18,Jits_Linear_8,0,5,56,103,3093138932
10816,18,Jits_Linear_8,1,5,80,127,3093148980
10816,18,Jits_Linear_8,2,5,63,98,3093168616
10816,18,Jits_Linear_8,3,1,48,48,3093203940
10816,18,Jits_Linear_8,0,5,63,98,3093728824
10816,18,Jits_Linear_8,1,1,48,53,3093785576
10816,18,Jits_Linear_8,2,5,80,127,3093788988
10816,18,Jits_Linear_8,3,5,56,103,3093839212
10816,18,Jits_Linear_8,0,1,48,41,3094403652
10816,18,Jits_Linear_8,1,5,63,98,3094429012
10816,18,Jits_Linear_8,2,5,56,103,3094439136
10816,18,Jits_Linear_8,3,5,80,127,3094488588
10816,18,Jits_Linear_8,0,5,63,98,3094938960
10816,18,Jits_Linear_8,1,5,80,127,3094958672
10816,18,Jits_Linear_8,2,5,56,103,3094968868
10816,18,Jits_Linear_8,3,1,48,48,3095064724
10816,18,Jits_Linear_8,0,5,63,98,3095549280
10816,18,Jits_Linear_8,1,5,80,127,3095552868
10816,18,Jits_Linear_8,2,5,56,103,3095589292
10816,18,Jits_Linear_8,3,1,48,43,3095650948
10816,18,Jits_Linear_8,0,5,63,98,3096229160
10816,18,Jits_Linear_8,1,1,48,42,3096239024
10816,18,Jits_Linear_8,2,5,80,127,3096258904
10816,18,Jits_Linear_8,3,5,56,103,3096269100
10816,18,Jits_Linear_8,0,5,56,103,3096789520
10816,18,Jits_Linear_8,1,5,80,127,3096819048
10816,18,Jits_Linear_8,2,5,63,98,3096848800
10816,18,Jits_Linear_8,3,1,48,43,3096865764
10816,18,Jits_Linear_8,0,1,48,49,3097390396
10816,18,Jits_Linear_8,1,5,63,98,3097488656
10816,18,Jits_Linear_8,2,5,56,103,3097528748
10816,18,Jits_Linear_8,3,5,80,127,3097531960
10816,18,Jits_Linear_8,0,5,80,127,3097988580
10816,18,Jits_Linear_8,1,1,48,48,3098023904
10816,18,Jits_Linear_8,2,5,56,103,3098069492
10816,18,Jits_Linear_8,3,5,63,98,3098118572
10816,18,Jits_Linear_8,0,5,80,127,3098568960
10816,18,Jits_Linear_8,1,5,56,103,3098588820
10816,18,Jits_Linear_8,2,5,63,98,3098678728
10816,18,Jits_Linear_8,3,1,48,41,3098700228
10816,18,Jits_Linear_8,0,5,80,127,3099209000
10816,18,Jits_Linear_8,1,5,63,98,3099248940
10816,18,Jits_Linear_8,2,1,48,43,3099288880
10816,18,Jits_Linear_8,3,5,56,103,3099290364
10816,18,Jits_Linear_8,0,5,63,98,3099778812
10816,18,Jits_Linear_8,1,5,80,127,3099838760
10816,18,Jits_Linear_8,2,5,56,103,3099868660
10816,18,Jits_Linear_8,3,1,48,43,3099900916
10816,18,Jits_Linear_8,0,5,56,103,3100378584
10816,18,Jits_Linear_8,1,5,80,127,3100409156
10816,18,Jits_Linear_8,2,1,48,45,3100480632
10816,18,Jits_Linear_8,3,5,63,98,3100499308
10816,18,Jits_Linear_8,0,5,56,103,3100978892
10816,18,Jits_Linear_8,1,5,80,127,3101089132
10816,18,Jits_Linear_8,2,1,48,40,3101094048
10816,18,Jits_Linear_8,3,5,63,98,3101118948
10816,18,Jits_Linear_8,0,5,56,103,3101618568
10816,18,Jits_Linear_8,1,5,63,98,3101678960
10816,18,Jits_Linear_8,2,1,48,46,3101700736
10816,18,Jits_Linear_8,3,5,80,127,3101708632
10816,18,Jits_Linear_8,0,5,56,103,3102178652
10816,18,Jits_Linear_8,1,5,63,98,3102249308
10816,18,Jits_Linear_8,2,5,80,127,3102268748
10816,18,Jits_Linear_8,3,1,48,50,3102271264
10816,18,Jits_Linear_8,0,5,80,127,3102738732
10816,18,Jits_Linear_8,1,5,63,98,3102759268
10816,18,Jits_Linear_8,2,5,56,103,3102808520
10816,18,Jits_Linear_8,3,1,48,47,3102909928
10816,18,Jits_Linear_8,0,5,63,98,3103349024
10816,18,Jits_Linear_8,1,5,80,127,3103359296
10816,18,Jits_Linear_8,2,5,56,103,3103408672
10816,18,Jits_Linear_8,3,1,48,33,3103446932
10816,18,Jits_Linear_8,0,5,63,98,3103928568
10816,18,Jits_Linear_8,1,5,80,127,3103999596
10816,18,Jits_Linear_8,2,5,56,103,3104018712
10816,18,Jits_Linear_8,3,1,48,41,3104060960
10816,18,Jits_Linear_8,0,5,63,98,3104538976
10816,18,Jits_Linear_8,1,5,80,127,3104542340
10816,18,Jits_Linear_8,2,1,48,40,3104556932
10816,18,Jits_Linear_8,3,5,56,103,3104608748
10816,18,Jits_Linear_8,0,5,80,127,3105069656
10816,18,Jits_Linear_8,1,5,56,103,3105088796
10816,18,Jits_Linear_8,2,5,63,98,3105099216
10816,18,Jits_Linear_8,3,1,48,45,3105182344
10816,18,Jits_Linear_8,0,1,48,39,3105654288
10816,18,Jits_Linear_8,1,5,56,103,3105668636
10816,18,Jits_Linear_8,2,5,63,98,3105758608
10816,18,Jits_Linear_8,3,5,80,127,3105761896
10816,18,Jits_Linear_8,0,1,48,45,3106218128
10816,18,Jits_Linear_8,1,5,80,127,3106219548
10816,18,Jits_Linear_8,2,5,56,103,3106228700
10816,18,Jits_Linear_8,3,5,63,98,3106249008
10816,18,Jits_Linear_8,0,5,63,98,3106788752
10816,18,Jits_Linear_8,1,1,48,44,3106798772
10816,18,Jits_Linear_8,2,5,80,127,3106849064
10816,18,Jits_Linear_8,3,5,56,103,3106859484
10816,18,Jits_Linear_8,0,1,48,49,3107396988
10816,18,Jits_Linear_8,1,5,63,98,3107428776
10816,18,Jits_Linear_8,2,5,80,127,3107458528
10816,18,Jits_Linear_8,3,5,56,103,3107499644
10816,18,Jits_Linear_8,0,5,56,103,3107988776
10816,18,Jits_Linear_8,1,5,80,127,3107998972
10816,18,Jits_Linear_8,2,5,63,98,3108039136
10816,18,Jits_Linear_8,3,1,48,43,3108053188
10816,18,Jits_Linear_8,0,5,80,127,3108519256
10816,18,Jits_Linear_8,1,5,56,103,3108599132
10816,18,Jits_Linear_8,2,5,63,98,3108609476
10816,18,Jits_Linear_8,3,1,48,43,3108652672
10816,18,Jits_Linear_8,0,5,80,127,3109128488
10816,18,Jits_Linear_8,1,1,48,48,3109195084
10816,18,Jits_Linear_8,2,5,56,103,3109208380
10816,18,Jits_Linear_8,3,5,63,98,3109218576
10816,18,Jits_Linear_8,0,5,80,127,3109648712
10816,18,Jits_Linear_8,1,5,56,103,3109698940
10816,18,Jits_Linear_8,2,5,63,98,3109748996
10816,18,Jits_Linear_8,3,1,48,53,3109773684
10816,18,Jits_Linear_8,0,5,56,103,3110269576
10816,18,Jits_Linear_8,1,5,63,98,3110272568
10816,18,Jits_Linear_8,2,1,48,43,3110312552
10816,18,Jits_Linear_8,3,5,80,127,3110318652
10816,18,Jits_Linear_8,0,5,56,103,3110848836
10816,18,Jits_Linear_8,1,5,63,98,3110878440
10816,18,Jits_Linear_8,2,5,80,127,3110888784
10816,18,Jits_Linear_8,3,1,48,41,3110915564
10816,18,Jits_Linear_8,0,5,63,98,3111318936
10816,18,Jits_Linear_8,1,5,56,103,3111388472
10816,18,Jits_Linear_8,2,5,80,127,3111438748
10816,18,Jits_Linear_8,3,1,48,46,3111448236
10816,18,Jits_Linear_8,0,5,63,98,3111908676
10816,18,Jits_Linear_8,1,5,56,103,3111918944
10816,18,Jits_Linear_8,2,5,80,127,3111921936
10816,18,Jits_Linear_8,3,1,48,44,3111965580
10816,18,Jits_Linear_8,0,5,80,127,3112408568
10816,18,Jits_Linear_8,1,5,56,103,3112468960
10816,18,Jits_Linear_8,2,5,63,98,3112559040
10816,18,Jits_Linear_8,3,1,48,34,3112591680
10816,18,Jits_Linear_8,0,5,80,127,3112959500
10816,18,Jits_Linear_8,1,5,56,103,3113058656
10816,18,Jits_Linear_8,2,5,63,98,3113098744
10816,18,Jits_Linear_8,3,1,48,46,3113119392
10816,18,Jits_Linear_8,0,5,56,103,3113559396
10816,18,Jits_Linear_8,1,5,63,98,3113578884
10816,18,Jits_Linear_8,2,5,80,127,3113618748
10816,18,Jits_Linear_8,3,1,48,45,3113689220
10816,18,Jits_Linear_8,0,5,63,98,3114078568
10816,18,Jits_Linear_8,1,5,56,103,3114098956
10816,18,Jits_Linear_8,2,5,80,127,3114199648
10816,18,Jits_Linear_8,3,1,48,47,3114248400
10816,18,Jits_Linear_8,0,5,63,98,3114608964
10816,18,Jits_Linear_8,1,5,80,127,3114718508
10816,18,Jits_Linear_8,2,5,56,103,3114749376
10816,18,Jits_Linear_8,3,1,48,42,3114799092
10816,18,Jits_Linear_8,0,5,56,103,3115169252
10816,18,Jits_Linear_8,1,5,63,98,3115198708
10816,18,Jits_Linear_8,2,5,80,127,3115249060
10816,18,Jits_Linear_8,3,1,48,41,3115331532
10816,18,Jits_Linear_8,0,5,63,98,3115678984
10816,18,Jits_Linear_8,1,5,56,103,3115708740
10816,18,Jits_Linear_8,2,5,80,127,3115758940
10816,18,Jits_Linear_8,0,1,48,47,3116193632
10816,18,Jits_Linear_8,1,5,56,103,3116248588
10816,18,Jits_Linear_8,2,5,63,98,3116268972
10816,18,Jits_Linear_8,3,5,80,127,3116348852
10816,18,Jits_Linear_8,0,5,63,98,3116759360
10816,18,Jits_Linear_8,1,1,48,43,3116815212
10816,18,Jits_Linear_8,2,5,56,103,3116818848
10816,18,Jits_Linear_8,3,5,80,127,3116848448
10816,18,Jits_Linear_8,0,1,48,45,3117316912
10816,18,Jits_Linear_8,1,5,56,103,3117339036
10816,18,Jits_Linear_8,2,5,80,127,3117399604
10816,18,Jits_Linear_8,3,5,63,98,3117439380
10816,18,Jits_Linear_8,0,5,63,98,3117848916
10816,18,Jits_Linear_8,1,1,48,46,3117909184
10816,18,Jits_Linear_8,2,5,56,103,3117910596
10816,18,Jits_Linear_8,3,5,80,127,3117978932
10816,18,Jits_Linear_8,0,5,56,103,3118459508
10816,18,Jits_Linear_8,1,1,48,43,3118467052
10816,18,Jits_Linear_8,2,5,63,98,3118468648
10816,18,Jits_Linear_8,3,5,80,127,3118471788
10816,18,Jits_Linear_8,0,5,63,98,3118929376
10816,18,Jits_Linear_8,1,5,56,103,3118988644
10816,18,Jits_Linear_8,2,5,80,127,3118991712
10816,18,Jits_Linear_8,3,1,48,41,3119009744
10816,18,Jits_Linear_8,0,5,63,98,3119439312
10816,18,Jits_Linear_8,1,5,80,127,3119468840
10816,18,Jits_Linear_8,2,5,56,103,3119489520
10816,18,Jits_Linear_8,3,1,48,34,3119529724
10816,18,Jits_Linear_8,0,5,56,103,3119968512
10816,18,Jits_Linear_8,1,5,63,98,3120018788
10816,18,Jits_Linear_8,2,1,48,43,3120025496
10816,18,Jits_Linear_8,3,5,80,127,3120098656
10816,18,Jits_Linear_8,0,5,80,127,3120469552
10816,18,Jits_Linear_8,1,5,63,98,3120509420
10816,18,Jits_Linear_8,2,5,56,103,3120528608
10816,18,Jits_Linear_8,3,1,48,40,3120551204
10816,18,Jits_Linear_8,0,1,48,43,3121050132
10816,18,Jits_Linear_8,1,5,56,103,3121059368
10816,18,Jits_Linear_8,2,5,80,127,3121069568
10816,18,Jits_Linear_8,3,5,63,98,3121088828
10816,18,Jits_Linear_8,0,5,56,103,3121558836
10816,18,Jits_Linear_8,1,1,48,39,3121576924
10816,18,Jits_Linear_8,2,5,63,98,3121609032
10816,18,Jits_Linear_8,3,5,80,127,3121638708
10816,18,Jits_Linear_8,0,5,56,103,3122028860
10816,18,Jits_Linear_8,1,5,63,98,3122039132
10816,18,Jits_Linear_8,2,5,80,127,3122089480
10816,18,Jits_Linear_8,3,1,48,43,3122105704
10816,18,Jits_Linear_8,0,5,56,103,3122538728
10816,18,Jits_Linear_8,1,5,80,127,3122541952
10816,18,Jits_Linear_8,2,1,48,31,3122590852
10816,18,Jits_Linear_8,3,5,63,98,3122698744
10816,18,Jits_Linear_8,0,1,48,45,3123066544
10816,18,Jits_Linear_8,1,5,63,98,3123069280
10816,18,Jits_Linear_8,2,5,56,103,3123138892
10816,18,Jits_Linear_8,3,5,80,127,3123178816
10816,18,Jits_Linear_8,0,1,48,45,3123592236
10816,18,Jits_Linear_8,1,5,63,98,3123619236
10816,18,Jits_Linear_8,2,5,56,103,3123709508
10816,18,Jits_Linear_8,3,5,80,127,3123712424
10816,18,Jits_Linear_8,0,5,56,103,3124108584
10816,18,Jits_Linear_8,1,1,48,47,3124174776
10816,18,Jits_Linear_8,2,5,63,98,3124198712
10816,18,Jits_Linear_8,3,5,80,127,3124208984
10816,18,Jits_Linear_8,0,5,56,103,3124588876
10816,18,Jits_Linear_8,1,5,63,98,3124639080
10816,18,Jits_Linear_8,2,5,80,127,3124668680
10816,18,Jits_Linear_8,3,1,48,43,3124719372
10816,18,Jits_Linear_8,0,5,63,98,3125178700
10816,18,Jits_Linear_8,1,5,80,127,3125188972
10816,18,Jits_Linear_8,2,1,48,42,3125215384
10816,18,Jits_Linear_8,3,5,56,103,3125249428
10816,18,Jits_Linear_8,0,5,63,98,3125598516
10816,18,Jits_Linear_8,1,5,80,127,3125658912
10816,18,Jits_Linear_8,2,5,56,103,3125698996
10816,18,Jits_Linear_8,3,1,48,38,3125732684
10816,18,Jits_Linear_8,0,5,56,103,3126198596
10816,18,Jits_Linear_8,1,1,48,37,3126204780
10816,18,Jits_Linear_8,2,5,80,127,3126219048
10816,18,Jits_Linear_8,3,5,63,98,3126238536
10816,18,Jits_Linear_8,0,5,63,98,3126618576
10816,18,Jits_Linear_8,1,5,56,103,3126638884
10816,18,Jits_Linear_8,2,5,80,127,3126678824
10816,18,Jits_Linear_8,3,1,48,46,3126701568
10816,18,Jits_Linear_8,0,5,63,98,3127128516
10816,18,Jits_Linear_8,1,5,80,127,3127159312
10816,18,Jits_Linear_8,2,5,56,103,3127178652
10816,18,Jits_Linear_8,3,1,48,41,3127213680
10816,18,Jits_Linear_8,0,5,80,127,3127598424
10816,18,Jits_Linear_8,1,5,56,103,3127648652
10816,18,Jits_Linear_8,2,5,63,98,3127708972
10816,18,Jits_Linear_8,3,1,48,36,3127733736
10816,18,Jits_Linear_8,0,5,63,98,3128078788
10816,18,Jits_Linear_8,1,1,48,41,3128184048
10816,18,Jits_Linear_8,2,5,56,103,3128198540
10816,18,Jits_Linear_8,3,5,80,127,3128229412
10816,18,Jits_Linear_8,0,5,80,127,3128609488
10816,18,Jits_Linear_8,1,5,63,98,3128628528
10816,18,Jits_Linear_8,2,1,48,43,3128668464
10816,18,Jits_Linear_8,3,5,56,103,3128699200
10816,18,Jits_Linear_8,0,5,63,98,3129119216
10816,18,Jits_Linear_8,1,5,56,103,3129129412
10816,18,Jits_Linear_8,2,1,48,40,3129170916
10816,18,Jits_Linear_8,3,5,80,127,3129209300
10816,18,Jits_Linear_8,0,5,56,103,3129668976
10816,18,Jits_Linear_8,1,5,80,127,3129698728
10816,18,Jits_Linear_8,2,5,63,98,3129708852
10816,18,Jits_Linear_8,3,1,48,41,3129720964
10816,18,Jits_Linear_8,0,9999,9999,9999,3019256956
10816,18,Jits_Linear_8,1,9999,9999,9999,3020076144
10816,18,Jits_Linear_8,2,9999,9999,9999,3020896332
10816,18,Jits_Linear_8,3,9999,9999,9999,3021716556
10816,18,Jits_Linear_8,4,9999,9999,9999,3022536768
10816,18,Jits_Linear_8,5,9999,9999,9999,3023346792
10816,18,Jits_Linear_8,6,9999,9999,9999,3024156736
10816,18,Jits_Linear_8,7,9999,9999,9999,3024966720
10816,18,Jits_Linear_8,8,9999,9999,9999,3025776740
10816,18,Jits_Linear_8,9,9999,9999,9999,3026586744
10816,18,Jits_Linear_8,10,9999,9999,9999,3027386448
10816,18,Jits_Linear_8,11,9999,9999,9999,3028186204
10816,18,Jits_Linear_8,12,9999,9999,9999,3028986952
10816,18,Jits_Linear_8,13,9999,9999,9999,3029786716
10816,18,Jits_Linear_8,14,9999,9999,9999,3030586460
10816,18,Jits_Linear_8,15,9999,9999,9999,3031376952
10816,18,Jits_Linear_8,16,9999,9999,9999,3032166480
10816,18,Jits_Linear_8,17,9999,9999,9999,3032957032
10816,18,Jits_Linear_8,18,9999,9999,9999,3033746528
10816,18,Jits_Linear_8,19,9999,9999,9999,3034537084
10816,18,Jits_Linear_8,20,9999,9999,9999,3035316308
10816,18,Jits_Linear_8,21,9999,9999,9999,3036096580
10816,18,Jits_Linear_8,22,9999,9999,9999,3036876864
10816,18,Jits_Linear_8,23,9999,9999,9999,3037656180
10816,18,Jits_Linear_8,24,9999,9999,9999,3038436452
10816,18,Jits_Linear_8,25,9999,9999,9999,3039206516
10816,18,Jits_Linear_8,26,9999,9999,9999,3039976548
10816,18,Jits_Linear_8,27,9999,9999,9999,3040746564
10816,18,Jits_Linear_8,28,9999,9999,9999,3041516660
10816,18,Jits_Linear_8,29,9999,9999,9999,3042286696
10816,18,Jits_Linear_8,30,9999,9999,9999,3043046516
10816,18,Jits_Linear_8,31,9999,9999,9999,3043806264
10816,18,Jits_Linear_8,32,9999,9999,9999,3044566100
10816,18,Jits_Linear_8,33,9999,9999,9999,3045326908
10816,18,Jits_Linear_8,34,9999,9999,9999,3046086740
10816,18,Jits_Linear_8,35,9999,9999,9999,3046836312
10816,18,Jits_Linear_8,36,9999,9999,9999,3047586920
10816,18,Jits_Linear_8,37,9999,9999,9999,3048336496
10816,18,Jits_Linear_8,38,9999,9999,9999,3049087036
10816,18,Jits_Linear_8,39,9999,9999,9999,3049836616
10816,18,Jits_Linear_8,40,9999,9999,9999,3050576976
10816,18,Jits_Linear_8,41,9999,9999,9999,3051316336
10816,18,Jits_Linear_8,42,9999,9999,9999,3052056672
10816,18,Jits_Linear_8,43,9999,9999,9999,3052797020
10816,18,Jits_Linear_8,44,9999,9999,9999,3053536372
10816,18,Jits_Linear_8,45,9999,9999,9999,3054266456
10816,18,Jits_Linear_8,46,9999,9999,9999,3054996552
10816,18,Jits_Linear_8,47,9999,9999,9999,3055726716
10816,18,Jits_Linear_8,48,9999,9999,9999,3056456808
10816,18,Jits_Linear_8,49,9999,9999,9999,3057186876
10816,18,Jits_Linear_8,50,9999,9999,9999,3057906764
10816,18,Jits_Linear_8,51,9999,9999,9999,3058626668
10816,18,Jits_Linear_8,52,9999,9999,9999,3059346488
10816,18,Jits_Linear_8,53,9999,9999,9999,3060066400
10816,18,Jits_Linear_8,54,9999,9999,9999,3060786264
10816,18,Jits_Linear_8,55,9999,9999,9999,3061496948
10816,18,Jits_Linear_8,56,9999,9999,9999,3062206576
10816,18,Jits_Linear_8,57,9999,9999,9999,3062916204
10816,18,Jits_Linear_8,58,9999,9999,9999,3063626820
10816,18,Jits_Linear_8,59,9999,9999,9999,3064336512
10816,18,Jits_Linear_8,60,9999,9999,9999,3065036864
10816,18,Jits_Linear_8,61,9999,9999,9999,3065736252
10816,18,Jits_Linear_8,62,9999,9999,9999,3066436672
10816,18,Jits_Linear_8,63,9999,9999,9999,3067136080
10816,18,Jits_Linear_8,64,9999,9999,9999,3067836512
10816,18,Jits_Linear_8,65,9999,9999,9999,3068526716
10816,18,Jits_Linear_8,66,9999,9999,9999,3069216860
10816,18,Jits_Linear_8,67,9999,9999,9999,3069907016
10816,18,Jits_Linear_8,68,9999,9999,9999,3070596196
10816,18,Jits_Linear_8,69,9999,9999,9999,3071286336
10816,18,Jits_Linear_8,70,9999,9999,9999,3071966304
10816,18,Jits_Linear_8,71,9999,9999,9999,3072646200
10816,18,Jits_Linear_8,72,9999,9999,9999,3073326204
10816,18,Jits_Linear_8,73,9999,9999,9999,3074006100
10816,18,Jits_Linear_8,74,9999,9999,9999,3074687052
10816,18,Jits_Linear_8,75,9999,9999,9999,3075356728
10816,18,Jits_Linear_8,76,9999,9999,9999,3076026440
10816,18,Jits_Linear_8,77,9999,9999,9999,3076696152
10816,18,Jits_Linear_8,78,9999,9999,9999,3077366876
10816,18,Jits_Linear_8,79,9999,9999,9999,3078036564
10816,18,Jits_Linear_8,80,9999,9999,9999,3078697020
10816,18,Jits_Linear_8,81,9999,9999,9999,3079356524
10816,18,Jits_Linear_8,82,9999,9999,9999,3080017004
10816,18,Jits_Linear_8,83,9999,9999,9999,3080676408
10816,18,Jits_Linear_8,84,9999,9999,9999,3081336896
10816,18,Jits_Linear_8,85,9999,9999,9999,3081986132
10816,18,Jits_Linear_8,86,9999,9999,9999,3082636348
10816,18,Jits_Linear_8,87,9999,9999,9999,3083286608
10816,18,Jits_Linear_8,88,9999,9999,9999,3083936892
10816,18,Jits_Linear_8,89,9999,9999,9999,3084587092
10816,18,Jits_Linear_8,90,9999,9999,9999,3085227128
10816,18,Jits_Linear_8,91,9999,9999,9999,3085867128
10816,18,Jits_Linear_8,92,9999,9999,9999,3086507100
10816,18,Jits_Linear_8,93,9999,9999,9999,3087147096
10816,18,Jits_Linear_8,94,9999,9999,9999,3087787128
10816,18,Jits_Linear_8,95,9999,9999,9999,3088427128
10816,18,Jits_Linear_8,96,9999,9999,9999,3089067088
10816,18,Jits_Linear_8,97,9999,9999,9999,3089707092
10816,18,Jits_Linear_8,98,9999,9999,9999,3090347064
10816,18,Jits_Linear_8,99,9999,9999,9999,3090987068
10816,18,Jits_Linear_8,100,9999,9999,9999,3091616824
10816,18,Jits_Linear_8,101,9999,9999,9999,3092236380
10816,18,Jits_Linear_8,102,9999,9999,9999,3092856932
10816,18,Jits_Linear_8,103,9999,9999,9999,3093476480
10816,18,Jits_Linear_8,104,9999,9999,9999,3094096968
10816,18,Jits_Linear_8,105,9999,9999,9999,3094706264
10816,18,Jits_Linear_8,106,9999,9999,9999,3095316584
10816,18,Jits_Linear_8,107,9999,9999,9999,3095926852
10816,18,Jits_Linear_8,108,9999,9999,9999,3096536144
10816,18,Jits_Linear_8,109,9999,9999,9999,3097146424
10816,18,Jits_Linear_8,110,9999,9999,9999,3097746512
10816,18,Jits_Linear_8,111,9999,9999,9999,3098346584
10816,18,Jits_Linear_8,112,9999,9999,9999,3098946616
10816,18,Jits_Linear_8,113,9999,9999,9999,3099546700
10816,18,Jits_Linear_8,114,9999,9999,9999,3100146780
10816,18,Jits_Linear_8,115,9999,9999,9999,3100736612
10816,18,Jits_Linear_8,116,9999,9999,9999,3101326436
10816,18,Jits_Linear_8,117,9999,9999,9999,3101916268
10816,18,Jits_Linear_8,118,9999,9999,9999,3102507064
10816,18,Jits_Linear_8,119,9999,9999,9999,3103106120
10816,18,Jits_Linear_8,120,9999,9999,9999,3103686720
10816,18,Jits_Linear_8,121,9999,9999,9999,3104266344
10816,18,Jits_Linear_8,122,9999,9999,9999,3104846952
10816,18,Jits_Linear_8,123,9999,9999,9999,3105426488
10816,18,Jits_Linear_8,124,9999,9999,9999,3106006112
10816,18,Jits_Linear_8,125,9999,9999,9999,3106576504
10816,18,Jits_Linear_8,126,9999,9999,9999,3107146856
10816,18,Jits_Linear_8,127,9999,9999,9999,3107716216
10816,18,Jits_Linear_8,128,9999,9999,9999,3108286544
10816,18,Jits_Linear_8,129,9999,9999,9999,3108856888
10816,18,Jits_Linear_8,130,9999,9999,9999,3109417048
10816,18,Jits_Linear_8,131,9999,9999,9999,3109976176
10816,18,Jits_Linear_8,132,9999,9999,9999,3110536252
10816,18,Jits_Linear_8,133,9999,9999,9999,3111096412
10816,18,Jits_Linear_8,134,9999,9999,9999,3111656564
10816,18,Jits_Linear_8,135,9999,9999,9999,3112206432
10816,18,Jits_Linear_8,136,9999,9999,9999,3112756312
10816,18,Jits_Linear_8,137,9999,9999,9999,3113306224
10816,18,Jits_Linear_8,138,9999,9999,9999,3113856120
10816,18,Jits_Linear_8,139,9999,9999,9999,3114406980
10816,18,Jits_Linear_8,140,9999,9999,9999,3114946668
10816,18,Jits_Linear_8,141,9999,9999,9999,3115486280
10816,18,Jits_Linear_8,142,9999,9999,9999,3116026972
10816,18,Jits_Linear_8,143,9999,9999,9999,3116566592
10816,18,Jits_Linear_8,144,9999,9999,9999,3117106272
10816,18,Jits_Linear_8,145,9999,9999,9999,3117636692
10816,18,Jits_Linear_8,146,9999,9999,9999,3118166116
10816,18,Jits_Linear_8,147,9999,9999,9999,3118696508
10816,18,Jits_Linear_8,148,9999,9999,9999,3119226992
10816,18,Jits_Linear_8,149,9999,9999,9999,3119756408
10816,18,Jits_Linear_8,150,9999,9999,9999,3120276552
10816,18,Jits_Linear_8,151,9999,9999,9999,3120796768
10816,18,Jits_Linear_8,152,9999,9999,9999,3121316992
10816,18,Jits_Linear_8,153,9999,9999,9999,3121836156
10816,18,Jits_Linear_8,154,9999,9999,9999,3122356296
10816,18,Jits_Linear_8,155,9999,9999,9999,3122866244
10816,18,Jits_Linear_8,156,9999,9999,9999,3123376204
10816,18,Jits_Linear_8,157,9999,9999,9999,3123886148
10816,18,Jits_Linear_8,158,9999,9999,9999,3124396096
10816,18,Jits_Linear_8,159,9999,9999,9999,3124907096
10816,18,Jits_Linear_8,160,9999,9999,9999,3125417064
10816,18,Jits_Linear_8,161,9999,9999,9999,3125916744
10816,18,Jits_Linear_8,162,9999,9999,9999,3126416504
10816,18,Jits_Linear_8,163,9999,9999,9999,3126916192
10816,18,Jits_Linear_8,164,9999,9999,9999,3127416920
10816,18,Jits_Linear_8,165,9999,9999,9999,3127906412
10816,18,Jits_Linear_8,166,9999,9999,9999,3128396896
10816,18,Jits_Linear_8,167,9999,9999,9999,3128886360
10816,18,Jits_Linear_8,168,9999,9999,9999,3129376836
10816,18,Jits_Linear_8,169,9999,9999,9999,3129866340
10817,19,Jits_Linear_5,0,5,56,103,3137229368
10817,19,Jits_Linear_5,1,5,63,98,3137232468
10817,19,Jits_Linear_5,2,5,80,127,3137235440
10817,19,Jits_Linear_5,0,5,56,103,3137709384
10817,19,Jits_Linear_5,1,5,63,98,3137712556
10817,19,Jits_Linear_5,2,5,80,127,3137715676
10817,19,Jits_Linear_5,0,5,56,103,3138188516
10817,19,Jits_Linear_5,1,5,80,127,3138199012
10817,19,Jits_Linear_5,2,5,63,98,3138219248
10817,19,Jits_Linear_5,3,1,48,32,3138223784
10817,19,Jits_Linear_5,0,5,63,98,3138618620
10817,19,Jits_Linear_5,1,5,80,127,3138648376
10817,19,Jits_Linear_5,2,5,56,103,3138658720
10817,19,Jits_Linear_5,3,1,48,44,3138672396
10817,19,Jits_Linear_5,0,1,48,46,3139113000
10817,19,Jits_Linear_5,1,5,80,127,3139159284
10817,19,Jits_Linear_5,2,5,56,103,3139168656
10817,19,Jits_Linear_5,3,5,63,98,3139199232
10817,19,Jits_Linear_5,0,5,63,98,3139638584
10817,19,Jits_Linear_5,1,1,48,45,3139656548
10817,19,Jits_Linear_5,2,5,56,103,3139669252
10817,19,Jits_Linear_5,3,5,80,127,3139678624
10817,19,Jits_Linear_5,0,5,56,103,3140078936
10817,19,Jits_Linear_5,1,5,63,98,3140129288
10817,19,Jits_Linear_5,2,1,48,45,3140136148
10817,19,Jits_Linear_5,3,5,80,127,3140148696
10817,19,Jits_Linear_5,0,5,80,127,3140568376
10817,19,Jits_Linear_5,1,1,48,39,3140582508
10817,19,Jits_Linear_5,2,5,63,98,3140618648
10817,19,Jits_Linear_5,3,5,56,103,3140658512
10817,19,Jits_Linear_5,0,5,56,103,3141058788
10817,19,Jits_Linear_5,1,5,63,98,3141088540
10817,19,Jits_Linear_5,2,1,48,45,3141093604
10817,19,Jits_Linear_5,3,5,80,127,3141159340
10817,19,Jits_Linear_5,0,5,56,103,3141549280
10817,19,Jits_Linear_5,1,1,48,43,3141553892
10817,19,Jits_Linear_5,2,5,80,127,3141608768
10817,19,Jits_Linear_5,3,5,63,98,3141638520
10817,19,Jits_Linear_5,0,5,56,103,3142049360
10817,19,Jits_Linear_5,1,5,63,98,3142059408
10817,19,Jits_Linear_5,2,1,48,45,3142068308
10817,19,Jits_Linear_5,3,5,80,127,3142099416
10817,19,Jits_Linear_5,0,5,63,98,3142538576
10817,19,Jits_Linear_5,1,1,48,47,3142543788
10817,19,Jits_Linear_5,2,5,80,127,3142618448
10817,19,Jits_Linear_5,3,5,56,103,3142628716
10817,19,Jits_Linear_5,0,1,48,45,3143067164
10817,19,Jits_Linear_5,1,5,63,98,3143088612
10817,19,Jits_Linear_5,2,5,56,103,3143128552
10817,19,Jits_Linear_5,3,5,80,127,3143131468
10817,19,Jits_Linear_5,0,5,56,103,3143549268
10817,19,Jits_Linear_5,1,1,48,50,3143558112
10817,19,Jits_Linear_5,2,5,63,98,3143559680
10817,19,Jits_Linear_5,3,5,80,127,3143598424
10817,19,Jits_Linear_5,0,5,56,103,3144038708
10817,19,Jits_Linear_5,1,5,63,98,3144041696
10817,19,Jits_Linear_5,2,1,48,47,3144045712
10817,19,Jits_Linear_5,3,5,80,127,3144059456
10817,19,Jits_Linear_5,0,1,48,43,3144553868
10817,19,Jits_Linear_5,1,5,80,127,3144559220
10817,19,Jits_Linear_5,2,5,56,103,3144569416
10817,19,Jits_Linear_5,3,5,63,98,3144638800
10817,19,Jits_Linear_5,0,1,48,46,3145045536
10817,19,Jits_Linear_5,1,5,63,98,3145058612
10817,19,Jits_Linear_5,2,5,56,103,3145079148
10817,19,Jits_Linear_5,3,5,80,127,3145159004
10817,19,Jits_Linear_5,0,1,48,45,3145550260
10817,19,Jits_Linear_5,1,5,56,103,3145578980
10817,19,Jits_Linear_5,2,5,80,127,3145618848
10817,19,Jits_Linear_5,3,5,63,98,3145629192
10817,19,Jits_Linear_5,0,1,48,39,3146058868
10817,19,Jits_Linear_5,1,5,80,127,3146078672
10817,19,Jits_Linear_5,2,5,63,98,3146109172
10817,19,Jits_Linear_5,3,5,56,103,3146149184
10817,19,Jits_Linear_5,0,1,48,46,3146581772
10817,19,Jits_Linear_5,1,5,56,103,3146609224
10817,19,Jits_Linear_5,2,5,63,98,3146638752
10817,19,Jits_Linear_5,3,5,80,127,3146688864
10817,19,Jits_Linear_5,0,1,48,44,3147098628
10817,19,Jits_Linear_5,1,5,80,127,3147119028
10817,19,Jits_Linear_5,2,5,56,103,3147159044
10817,19,Jits_Linear_5,3,5,63,98,3147169316
10817,19,Jits_Linear_5,0,5,80,127,3147618648
10817,19,Jits_Linear_5,1,1,48,43,3147627020
10817,19,Jits_Linear_5,2,5,63,98,3147658584
10817,19,Jits_Linear_5,3,5,56,103,3147718976
10817,19,Jits_Linear_5,0,5,56,103,3148138732
10817,19,Jits_Linear_5,1,5,80,127,3148149076
10817,19,Jits_Linear_5,2,1,48,50,3148155188
10817,19,Jits_Linear_5,3,5,63,98,3148228944
10817,19,Jits_Linear_5,0,1,48,54,3148645508
10817,19,Jits_Linear_5,1,5,80,127,3148659252
10817,19,Jits_Linear_5,2,5,63,98,3148718380
10817,19,Jits_Linear_5,3,5,56,103,3148749312
10817,19,Jits_Linear_5,0,5,56,103,3149179252
10817,19,Jits_Linear_5,1,1,48,49,3149199012
10817,19,Jits_Linear_5,2,5,80,127,3149238596
10817,19,Jits_Linear_5,3,5,63,98,3149278536
10817,19,Jits_Linear_5,0,1,48,51,3149694648
10817,19,Jits_Linear_5,1,5,56,103,3149759120
10817,19,Jits_Linear_5,2,5,63,98,3149769396
10817,19,Jits_Linear_5,3,5,80,127,3149772528
10817,19,Jits_Linear_5,0,1,48,56,3150235240
10817,19,Jits_Linear_5,1,5,80,127,3150239172
10817,19,Jits_Linear_5,2,5,63,98,3150329368
10817,19,Jits_Linear_5,3,5,56,103,3150338296
10817,19,Jits_Linear_5,0,1,48,52,3150748648
10817,19,Jits_Linear_5,1,5,56,103,3150768360
10817,19,Jits_Linear_5,2,5,63,98,3150771536
10817,19,Jits_Linear_5,3,5,80,127,3150774656
10817,19,Jits_Linear_5,0,1,48,52,3151274004
10817,19,Jits_Linear_5,1,5,80,127,3151319288
10817,19,Jits_Linear_5,2,5,63,98,3151368448
10817,19,Jits_Linear_5,3,5,56,103,3151399228
10817,19,Jits_Linear_5,0,1,48,51,3151806204
10817,19,Jits_Linear_5,1,5,56,103,3151829468
10817,19,Jits_Linear_5,2,5,80,127,3151838544
10817,19,Jits_Linear_5,3,5,63,98,3151909256
10817,19,Jits_Linear_5,0,1,48,51,3152328760
10817,19,Jits_Linear_5,1,5,56,103,3152369164
10817,19,Jits_Linear_5,2,5,63,98,3152388428
10817,19,Jits_Linear_5,3,5,80,127,3152449128
10817,19,Jits_Linear_5,0,1,48,43,3152881256
10817,19,Jits_Linear_5,1,5,80,127,3152898520
10817,19,Jits_Linear_5,2,5,63,98,3152968980
10817,19,Jits_Linear_5,3,5,56,103,3152988524
10817,19,Jits_Linear_5,0,1,48,49,3153420060
10817,19,Jits_Linear_5,1,5,80,127,3153458524
10817,19,Jits_Linear_5,2,5,56,103,3153468744
10817,19,Jits_Linear_5,3,5,63,98,3153479016
10817,19,Jits_Linear_5,0,1,48,50,3153950312
10817,19,Jits_Linear_5,1,5,80,127,3153989096
10817,19,Jits_Linear_5,2,5,56,103,3154008364
10817,19,Jits_Linear_5,3,5,63,98,3154079300
10817,19,Jits_Linear_5,0,1,48,47,3154499396
10817,19,Jits_Linear_5,1,5,56,103,3154538832
10817,19,Jits_Linear_5,2,5,80,127,3154568512
10817,19,Jits_Linear_5,3,5,63,98,3154589268
10817,19,Jits_Linear_5,0,1,48,48,3155030104
10817,19,Jits_Linear_5,1,5,63,98,3155078608
10817,19,Jits_Linear_5,2,5,56,103,3155139208
10817,19,Jits_Linear_5,3,5,80,127,3155168512
10817,19,Jits_Linear_5,0,1,48,53,3155546656
10817,19,Jits_Linear_5,1,5,63,98,3155619128
10817,19,Jits_Linear_5,2,5,80,127,3155622340
10817,19,Jits_Linear_5,3,5,56,103,3155709244
10817,19,Jits_Linear_5,0,1,48,45,3156121844
10817,19,Jits_Linear_5,1,5,56,103,3156188484
10817,19,Jits_Linear_5,2,5,63,98,3156219356
10817,19,Jits_Linear_5,3,5,80,127,3156259284
10817,19,Jits_Linear_5,0,1,48,51,3156636904
10817,19,Jits_Linear_5,1,5,63,98,3156738284
10817,19,Jits_Linear_5,2,5,56,103,3156779272
10817,19,Jits_Linear_5,3,5,80,127,3156798932
10817,19,Jits_Linear_5,0,1,48,46,3157165564
10817,19,Jits_Linear_5,1,5,63,98,3157298580
10817,19,Jits_Linear_5,2,5,56,103,3157338548
10817,19,Jits_Linear_5,3,5,80,127,3157348892
10817,19,Jits_Linear_5,0,1,48,45,3157717120
10817,19,Jits_Linear_5,1,5,80,127,3157829136
10817,19,Jits_Linear_5,2,5,63,98,3157898748
10817,19,Jits_Linear_5,3,5,56,103,3157918984
10817,19,Jits_Linear_5,0,1,48,46,3158327068
10817,19,Jits_Linear_5,1,5,56,103,3158379012
10817,19,Jits_Linear_5,2,5,80,127,3158399324
10817,19,Jits_Linear_5,3,5,63,98,3158439176
10817,19,Jits_Linear_5,0,1,48,51,3158859264
10817,19,Jits_Linear_5,1,5,63,98,3158949200
10817,19,Jits_Linear_5,2,5,80,127,3158968600
10817,19,Jits_Linear_5,3,5,56,103,3159008612
10817,19,Jits_Linear_5,0,1,48,48,3159452448
10817,19,Jits_Linear_5,1,5,63,98,3159509348
10817,19,Jits_Linear_5,2,5,56,103,3159528984
10817,19,Jits_Linear_5,3,5,80,127,3159538960
10817,19,Jits_Linear_5,0,1,48,52,3159985396
10817,19,Jits_Linear_5,1,5,80,127,3160068448
10817,19,Jits_Linear_5,2,5,56,103,3160089116
10817,19,Jits_Linear_5,3,5,63,98,3160118572
10817,19,Jits_Linear_5,0,1,48,48,3160564104
10817,19,Jits_Linear_5,1,5,56,103,3160708372
10817,19,Jits_Linear_5,2,5,80,127,3160711592
10817,19,Jits_Linear_5,3,5,63,98,3160729060
10817,19,Jits_Linear_5,0,1,48,46,3161132120
10817,19,Jits_Linear_5,1,5,63,98,3161199080
10817,19,Jits_Linear_5,2,5,56,103,3161228520
10817,19,Jits_Linear_5,3,5,80,127,3161289132
10817,19,Jits_Linear_5,0,1,48,43,3161746080
10817,19,Jits_Linear_5,1,5,63,98,3161849200
10817,19,Jits_Linear_5,2,5,56,103,3161858500
10817,19,Jits_Linear_5,3,5,80,127,3161868620
10817,19,Jits_Linear_5,0,1,48,44,3162315080
10817,19,Jits_Linear_5,1,5,56,103,3162369360
10817,19,Jits_Linear_5,2,5,80,127,3162399112
10817,19,Jits_Linear_5,3,5,63,98,3162409308
10817,19,Jits_Linear_5,0,1,48,48,3162908960
10817,19,Jits_Linear_5,1,5,63,98,3162978544
10817,19,Jits_Linear_5,2,5,56,103,3162988888
10817,19,Jits_Linear_5,3,5,80,127,3163009480
10817,19,Jits_Linear_5,0,5,56,103,3163488800
10817,19,Jits_Linear_5,1,1,48,52,3163512372
10817,19,Jits_Linear_5,2,5,63,98,3163549036
10817,19,Jits_Linear_5,3,5,80,127,3163552548
10817,19,Jits_Linear_5,0,5,80,127,3164088960
10817,19,Jits_Linear_5,1,5,56,103,3164099084
10817,19,Jits_Linear_5,2,1,48,52,3164109176
10817,19,Jits_Linear_5,3,5,63,98,3164168460
10817,19,Jits_Linear_5,0,5,80,127,3164659012
10817,19,Jits_Linear_5,1,1,48,51,3164718108
10817,19,Jits_Linear_5,2,5,56,103,3164728940
10817,19,Jits_Linear_5,3,5,63,98,3164738988
10817,19,Jits_Linear_5,0,1,48,49,3165277792
10817,19,Jits_Linear_5,1,5,63,98,3165279364
10817,19,Jits_Linear_5,2,5,56,103,3165289108
10817,19,Jits_Linear_5,3,5,80,127,3165309196
10817,19,Jits_Linear_5,0,5,80,127,3165808952
10817,19,Jits_Linear_5,1,1,48,48,3165818740
10817,19,Jits_Linear_5,2,5,63,98,3165869488
10817,19,Jits_Linear_5,3,5,56,103,3165909428
10817,19,Jits_Linear_5,0,1,48,49,3166405412
10817,19,Jits_Linear_5,1,5,56,103,3166438864
10817,19,Jits_Linear_5,2,5,63,98,3166448912
10817,19,Jits_Linear_5,3,5,80,127,3166488928
10817,19,Jits_Linear_5,0,1,48,50,3166958528
10817,19,Jits_Linear_5,1,5,56,103,3166988604
10817,19,Jits_Linear_5,2,5,80,127,3167019252
10817,19,Jits_Linear_5,3,5,63,98,3167068568
10817,19,Jits_Linear_5,0,1,48,51,3167562676
10817,19,Jits_Linear_5,1,5,56,103,3167618528
10817,19,Jits_Linear_5,2,5,63,98,3167659352
10817,19,Jits_Linear_5,3,5,80,127,3167662492
10817,19,Jits_Linear_5,0,1,48,44,3168125436
10817,19,Jits_Linear_5,1,5,56,103,3168209392
10817,19,Jits_Linear_5,2,5,63,98,3168219120
10817,19,Jits_Linear_5,3,5,80,127,3168238836
10817,19,Jits_Linear_5,0,1,48,48,3168691292
10817,19,Jits_Linear_5,1,5,56,103,3168759272
10817,19,Jits_Linear_5,2,5,80,127,3168762192
10817,19,Jits_Linear_5,3,5,63,98,3168799196
10817,19,Jits_Linear_5,0,1,48,48,3169290536
10817,19,Jits_Linear_5,1,5,63,98,3169389040
10817,19,Jits_Linear_5,2,5,56,103,3169418848
10817,19,Jits_Linear_5,3,5,80,127,3169439012
10817,19,Jits_Linear_5,0,1,48,43,3169953500
10817,19,Jits_Linear_5,1,5,80,127,3169959376
10817,19,Jits_Linear_5,2,5,56,103,3169968524
10817,19,Jits_Linear_5,3,5,63,98,3169979020
10817,19,Jits_Linear_5,0,1,48,42,3170549020
10817,19,Jits_Linear_5,1,5,56,103,3170559308
10817,19,Jits_Linear_5,2,5,80,127,3170599248
10817,19,Jits_Linear_5,3,5,63,98,3170629024
10817,19,Jits_Linear_5,0,1,48,46,3171158940
10817,19,Jits_Linear_5,1,5,63,98,3171168560
10817,19,Jits_Linear_5,2,5,80,127,3171179052
10817,19,Jits_Linear_5,3,5,56,103,3171189028
10817,19,Jits_Linear_5,0,5,56,103,3171749312
10817,19,Jits_Linear_5,1,1,48,45,3171760000
10817,19,Jits_Linear_5,2,5,63,98,3171818992
10817,19,Jits_Linear_5,3,5,80,127,3171828968
10817,19,Jits_Linear_5,0,1,48,53,3172322028
10817,19,Jits_Linear_5,1,5,80,127,3172358844
10817,19,Jits_Linear_5,2,5,56,103,3172369192
10817,19,Jits_Linear_5,3,5,63,98,3172419032
10817,19,Jits_Linear_5,0,1,48,51,3172889676
10817,19,Jits_Linear_5,1,5,80,127,3172979108
10817,19,Jits_Linear_5,2,5,56,103,3173038960
10817,19,Jits_Linear_5,3,5,63,98,3173069160
10817,19,Jits_Linear_5,0,1,48,45,3173569948
10817,19,Jits_Linear_5,1,5,56,103,3173589300
10817,19,Jits_Linear_5,2,5,80,127,3173592368
10817,19,Jits_Linear_5,3,5,63,98,3173629168
10817,19,Jits_Linear_5,0,1,48,46,3174204952
10817,19,Jits_Linear_5,1,5,56,103,3174229412
10817,19,Jits_Linear_5,2,5,63,98,3174259016
10817,19,Jits_Linear_5,3,5,80,127,3174269360
10817,19,Jits_Linear_5,0,1,48,50,3174829476
10817,19,Jits_Linear_5,1,5,63,98,3174848904
10817,19,Jits_Linear_5,2,5,80,127,3174859100
10817,19,Jits_Linear_5,3,5,56,103,3174869296
10817,19,Jits_Linear_5,0,5,80,127,3175409060
10817,19,Jits_Linear_5,1,1,48,45,3175456520
10817,19,Jits_Linear_5,2,5,56,103,3175459180
10817,19,Jits_Linear_5,3,5,63,98,3175462320
10817,19,Jits_Linear_5,0,1,48,47,3176008460
10817,19,Jits_Linear_5,1,5,56,103,3176059136
10817,19,Jits_Linear_5,2,5,80,127,3176078776
10817,19,Jits_Linear_5,3,5,63,98,3176088896
10817,19,Jits_Linear_5,0,1,48,42,3176601120
10817,19,Jits_Linear_5,1,5,63,98,3176659216
10817,19,Jits_Linear_5,2,5,56,103,3176688968
10817,19,Jits_Linear_5,3,5,80,127,3176708592
10817,19,Jits_Linear_5,0,1,48,46,3177237616
10817,19,Jits_Linear_5,1,5,56,103,3177289136
10817,19,Jits_Linear_5,2,5,80,127,3177299256
10817,19,Jits_Linear_5,3,5,63,98,3177369000
10817,19,Jits_Linear_5,0,1,48,49,3177883120
10817,19,Jits_Linear_5,1,5,63,98,3177899260
10817,19,Jits_Linear_5,2,5,80,127,3177939424
10817,19,Jits_Linear_5,3,5,56,103,3177979140
10817,19,Jits_Linear_5,0,1,48,45,3178531236
10817,19,Jits_Linear_5,1,5,56,103,3178539352
10817,19,Jits_Linear_5,2,5,63,98,3178548800
10817,19,Jits_Linear_5,3,5,80,127,3178569060
10817,19,Jits_Linear_5,0,1,48,48,3179130584
10817,19,Jits_Linear_5,1,5,63,98,3179209136
10817,19,Jits_Linear_5,2,5,80,127,3179228388
10817,19,Jits_Linear_5,3,5,56,103,3179249144
10817,19,Jits_Linear_5,0,5,56,103,3179778288
10817,19,Jits_Linear_5,1,1,48,46,3179807864
10817,19,Jits_Linear_5,2,5,80,127,3179859452
10817,19,Jits_Linear_5,3,5,63,98,3179868604
10817,19,Jits_Linear_5,0,1,48,45,3180433964
10817,19,Jits_Linear_5,1,5,80,127,3180449280
10817,19,Jits_Linear_5,2,5,63,98,3180459328
10817,19,Jits_Linear_5,3,5,56,103,3180489004
10817,19,Jits_Linear_5,0,5,63,98,3181038884
10817,19,Jits_Linear_5,1,1,48,48,3181067928
10817,19,Jits_Linear_5,2,5,80,127,3181078964
10817,19,Jits_Linear_5,3,5,56,103,3181139304
10817,19,Jits_Linear_5,0,1,48,45,3181646212
10817,19,Jits_Linear_5,1,5,63,98,3181678916
10817,19,Jits_Linear_5,2,5,56,103,3181729124
10817,19,Jits_Linear_5,3,5,80,127,3181758860
10817,19,Jits_Linear_5,0,1,48,43,3182264952
10817,19,Jits_Linear_5,1,5,80,127,3182329348
10817,19,Jits_Linear_5,2,5,63,98,3182338348
10817,19,Jits_Linear_5,3,5,56,103,3182409160
10817,19,Jits_Linear_5,0,1,48,38,3182911520
10817,19,Jits_Linear_5,1,5,80,127,3183038756
10817,19,Jits_Linear_5,2,5,56,103,3183048948
10817,19,Jits_Linear_5,3,5,63,98,3183052168
10817,19,Jits_Linear_5,0,5,56,103,3183618404
10817,19,Jits_Linear_5,1,5,80,127,3183638788
10817,19,Jits_Linear_5,2,5,63,98,3183649280
10817,19,Jits_Linear_5,3,1,48,41,3183656736
10817,19,Jits_Linear_5,0,5,63,98,3184268796
10817,19,Jits_Linear_5,1,1,48,43,3184297100
10817,19,Jits_Linear_5,2,5,56,103,3184308880
10817,19,Jits_Linear_5,3,5,80,127,3184329040
10817,19,Jits_Linear_5,0,5,63,98,3184918932
10817,19,Jits_Linear_5,1,1,48,44,3184927380
10817,19,Jits_Linear_5,2,5,56,103,3184979268
10817,19,Jits_Linear_5,3,5,80,127,3184982336
10817,19,Jits_Linear_5,0,5,56,103,3185529152
10817,19,Jits_Linear_5,1,5,80,127,3185548788
10817,19,Jits_Linear_5,2,5,63,98,3185588652
10817,19,Jits_Linear_5,3,1,48,38,3185610880
10817,19,Jits_Linear_5,0,1,48,40,3186184724
10817,19,Jits_Linear_5,1,5,56,103,3186209184
10817,19,Jits_Linear_5,2,5,63,98,3186228600
10817,19,Jits_Linear_5,3,5,80,127,3186238892
10817,19,Jits_Linear_5,0,1,48,30,3186798472
10817,19,Jits_Linear_5,1,5,80,127,3186828916
10817,19,Jits_Linear_5,2,5,56,103,3186859492
10817,19,Jits_Linear_5,3,5,63,98,3186899416
10817,19,Jits_Linear_5,0,1,48,38,3187435400
10817,19,Jits_Linear_5,1,5,80,127,3187489088
10817,19,Jits_Linear_5,2,5,56,103,3187508872
10817,19,Jits_Linear_5,3,5,63,98,3187569048
10817,19,Jits_Linear_5,0,1,48,41,3188101076
10817,19,Jits_Linear_5,1,5,56,103,3188148760
10817,19,Jits_Linear_5,2,5,80,127,3188169072
10817,19,Jits_Linear_5,3,5,63,98,3188228552
10817,19,Jits_Linear_5,0,1,48,39,3188781628
10817,19,Jits_Linear_5,1,5,80,127,3188788700
10817,19,Jits_Linear_5,2,5,56,103,3188798700
10817,19,Jits_Linear_5,3,5,63,98,3188838636
10817,19,Jits_Linear_5,0,1,48,38,3189433424
10817,19,Jits_Linear_5,1,5,63,98,3189449040
10817,19,Jits_Linear_5,2,5,56,103,3189488896
10817,19,Jits_Linear_5,3,5,80,127,3189492040
10817,19,Jits_Linear_5,0,1,48,46,3190124392
10817,19,Jits_Linear_5,1,5,63,98,3190129148
10817,19,Jits_Linear_5,2,5,80,127,3190168940
10817,19,Jits_Linear_5,3,5,56,103,3190198840
10817,19,Jits_Linear_5,0,5,56,103,3190779288
10817,19,Jits_Linear_5,1,1,48,53,3190780400
10817,19,Jits_Linear_5,2,5,63,98,3190788580
10817,19,Jits_Linear_5,3,5,80,127,3190819152
10817,19,Jits_Linear_5,0,1,48,43,3191417584
10817,19,Jits_Linear_5,1,5,80,127,3191438960
10817,19,Jits_Linear_5,2,5,63,98,3191510428
10817,19,Jits_Linear_5,3,5,56,103,3191518904
10817,19,Jits_Linear_5,0,1,48,45,3192103820
10817,19,Jits_Linear_5,1,5,63,98,3192109400
10817,19,Jits_Linear_5,2,5,56,103,3192178960
10817,19,Jits_Linear_5,3,5,80,127,3192189232
10817,19,Jits_Linear_5,0,1,48,41,3192769872
10817,19,Jits_Linear_5,1,5,63,98,3192779112
10817,19,Jits_Linear_5,2,5,56,103,3192798676
10817,19,Jits_Linear_5,3,5,80,127,3192838688
10817,19,Jits_Linear_5,0,1,48,47,3193413568
10817,19,Jits_Linear_5,1,5,56,103,3193459008
10817,19,Jits_Linear_5,2,5,63,98,3193469280
10817,19,Jits_Linear_5,3,5,80,127,3193549060
10817,19,Jits_Linear_5,0,5,63,98,3194118732
10817,19,Jits_Linear_5,1,1,48,48,3194128076
10817,19,Jits_Linear_5,2,5,56,103,3194149228
10817,19,Jits_Linear_5,3,5,80,127,3194189120
10817,19,Jits_Linear_5,0,1,48,44,3194782488
10817,19,Jits_Linear_5,1,5,56,103,3194789112
10817,19,Jits_Linear_5,2,5,63,98,3194829128
10817,19,Jits_Linear_5,3,5,80,127,3194869216
10817,19,Jits_Linear_5,0,1,48,39,3195451528
10817,19,Jits_Linear_5,1,5,80,127,3195469160
10817,19,Jits_Linear_5,2,5,56,103,3195549768
10817,19,Jits_Linear_5,3,5,63,98,3195559364
10817,19,Jits_Linear_5,0,1,48,43,3196149088
10817,19,Jits_Linear_5,1,5,56,103,3196188972
10817,19,Jits_Linear_5,2,5,63,98,3196191960
10817,19,Jits_Linear_5,3,5,80,127,3196199164
10817,19,Jits_Linear_5,0,1,48,45,3196770980
10817,19,Jits_Linear_5,1,5,56,103,3196888776
10817,19,Jits_Linear_5,2,5,63,98,3196908788
10817,19,Jits_Linear_5,3,5,80,127,3196919060
10817,19,Jits_Linear_5,0,5,63,98,3197528616
10817,19,Jits_Linear_5,1,5,80,127,3197538588
10817,19,Jits_Linear_5,2,5,56,103,3197559124
10817,19,Jits_Linear_5,3,1,48,41,3197566504
10817,19,Jits_Linear_5,0,1,48,45,3198211380
10817,19,Jits_Linear_5,1,5,63,98,3198218824
10817,19,Jits_Linear_5,2,5,56,103,3198298648
10817,19,Jits_Linear_5,3,5,80,127,3198301564
10817,19,Jits_Linear_5,0,5,63,98,3198908760
10817,19,Jits_Linear_5,1,5,56,103,3198929220
10817,19,Jits_Linear_5,2,1,48,38,3198952864
10817,19,Jits_Linear_5,3,5,80,127,3198958888
10817,19,Jits_Linear_5,0,1,48,41,3199591616
10817,19,Jits_Linear_5,1,5,56,103,3199598840
10817,19,Jits_Linear_5,2,5,63,98,3199618548
10817,19,Jits_Linear_5,3,5,80,127,3199628524
10817,19,Jits_Linear_5,0,1,48,46,3200225924
10817,19,Jits_Linear_5,1,5,56,103,3200320000
10817,19,Jits_Linear_5,2,5,63,98,3200348780
10817,19,Jits_Linear_5,3,5,80,127,3200351996
10817,19,Jits_Linear_5,0,1,48,40,3200905516
10817,19,Jits_Linear_5,1,5,56,103,3200958824
10817,19,Jits_Linear_5,2,5,63,98,3200998764
10817,19,Jits_Linear_5,3,5,80,127,3201059216
10817,19,Jits_Linear_5,0,1,48,45,3201572504
10817,19,Jits_Linear_5,1,5,56,103,3201668464
10817,19,Jits_Linear_5,2,5,63,98,3201678796
10817,19,Jits_Linear_5,3,5,80,127,3201739112
10817,19,Jits_Linear_5,0,1,48,40,3202270684
10817,19,Jits_Linear_5,1,5,56,103,3202369024
10817,19,Jits_Linear_5,2,5,80,127,3202389408
10817,19,Jits_Linear_5,3,5,63,98,3202418936
10817,19,Jits_Linear_5,0,1,48,47,3203008496
10817,19,Jits_Linear_5,1,5,80,127,3203069288
10817,19,Jits_Linear_5,2,5,56,103,3203078660
10817,19,Jits_Linear_5,3,5,63,98,3203098972
10817,19,Jits_Linear_5,0,1,48,43,3203751176
10817,19,Jits_Linear_5,1,5,63,98,3203758624
10817,19,Jits_Linear_5,2,5,80,127,3203839472
10817,19,Jits_Linear_5,3,5,56,103,3203848756
10817,19,Jits_Linear_5,0,1,48,46,3204458492
10817,19,Jits_Linear_5,1,5,80,127,3204519136
10817,19,Jits_Linear_5,2,5,56,103,3204538696
10817,19,Jits_Linear_5,3,5,63,98,3204541836
10817,19,Jits_Linear_5,0,1,48,46,3205193596
10817,19,Jits_Linear_5,1,5,63,98,3205199248
10817,19,Jits_Linear_5,2,5,80,127,3205202836
10817,19,Jits_Linear_5,3,5,56,103,3205258520
10817,19,Jits_Linear_5,0,1,48,39,3205868076
10817,19,Jits_Linear_5,1,5,56,103,3205889528
10817,19,Jits_Linear_5,2,5,80,127,3205898676
10817,19,Jits_Linear_5,3,5,63,98,3205938540
10817,19,Jits_Linear_5,0,1,48,41,3206471512
10817,19,Jits_Linear_5,1,5,56,103,3206578672
10817,19,Jits_Linear_5,2,5,63,98,3206638844
10817,19,Jits_Linear_5,3,5,80,127,3206649336
10817,19,Jits_Linear_5,0,1,48,41,3207194384
10817,19,Jits_Linear_5,1,5,63,98,3207298504
10817,19,Jits_Linear_5,2,5,80,127,3207339568
10817,19,Jits_Linear_5,3,5,56,103,3207379580
10817,19,Jits_Linear_5,0,1,48,40,3207977912
10817,19,Jits_Linear_5,1,5,56,103,3208009056
10817,19,Jits_Linear_5,2,5,63,98,3208088916
10817,19,Jits_Linear_5,3,5,80,127,3208092128
10817,19,Jits_Linear_5,0,1,48,37,3208731080
10817,19,Jits_Linear_5,1,5,80,127,3208779232
10817,19,Jits_Linear_5,2,5,56,103,3208808908
10817,19,Jits_Linear_5,3,5,63,98,3208811900
10817,19,Jits_Linear_5,0,5,56,103,3209459176
10817,19,Jits_Linear_5,1,5,80,127,3209478664
10817,19,Jits_Linear_5,2,5,63,98,3209518456
10817,19,Jits_Linear_5,3,1,48,39,3209558388
10817,19,Jits_Linear_5,0,5,80,127,3210158720
10817,19,Jits_Linear_5,1,1,48,38,3210171276
10817,19,Jits_Linear_5,2,5,63,98,3210178876
10817,19,Jits_Linear_5,3,5,56,103,3210239492
10817,19,Jits_Linear_5,0,5,63,98,3210888456
10817,19,Jits_Linear_5,1,5,56,103,3210898724
10817,19,Jits_Linear_5,2,1,48,40,3210906476
10817,19,Jits_Linear_5,3,5,80,127,3210948920
10817,19,Jits_Linear_5,0,1,48,46,3211590864
10817,19,Jits_Linear_5,1,5,56,103,3211599208
10817,19,Jits_Linear_5,2,5,63,98,3211618620
10817,19,Jits_Linear_5,3,5,80,127,3211628816
10817,19,Jits_Linear_5,0,1,48,42,3212255660
10817,19,Jits_Linear_5,1,5,56,103,3212319000
10817,19,Jits_Linear_5,2,5,63,98,3212322224
10817,19,Jits_Linear_5,3,5,80,127,3212338716
10817,19,Jits_Linear_5,0,1,48,39,3212918968
10817,19,Jits_Linear_5,1,5,63,98,3213089132
10817,19,Jits_Linear_5,2,5,56,103,3213118684
10817,19,Jits_Linear_5,3,5,80,127,3213148584
10817,19,Jits_Linear_5,0,1,48,42,3213729908
10817,19,Jits_Linear_5,1,5,80,127,3213779456
10817,19,Jits_Linear_5,2,5,56,103,3213869428
10817,19,Jits_Linear_5,3,5,63,98,3213872568
10817,19,Jits_Linear_5,0,5,56,103,3214509620
10817,19,Jits_Linear_5,1,5,80,127,3214512540
10817,19,Jits_Linear_5,2,5,63,98,3214589416
10817,19,Jits_Linear_5,3,1,48,32,3214606928
10817,19,Jits_Linear_5,0,5,80,127,3215238672
10817,19,Jits_Linear_5,1,1,48,32,3215299364
10817,19,Jits_Linear_5,2,5,63,98,3215300480
10817,19,Jits_Linear_5,3,5,56,103,3215328588
10817,19,Jits_Linear_5,0,5,63,98,3215968484
10817,19,Jits_Linear_5,1,5,80,127,3215978832
10817,19,Jits_Linear_5,2,5,56,103,3216048660
10817,19,Jits_Linear_5,3,1,48,38,3216051332
10817,19,Jits_Linear_5,0,1,48,40,3216717360
10817,19,Jits_Linear_5,1,5,56,103,3216719244
10817,19,Jits_Linear_5,2,5,80,127,3216748772
10817,19,Jits_Linear_5,3,5,63,98,3216799124
10817,19,Jits_Linear_5,0,1,48,38,3217434668
10817,19,Jits_Linear_5,1,5,63,98,3217498564
10817,19,Jits_Linear_5,2,5,56,103,3217529344
10817,19,Jits_Linear_5,3,5,80,127,3217532484
10817,19,Jits_Linear_5,0,1,48,40,3218163476
10817,19,Jits_Linear_5,1,5,63,98,3218238840
10817,19,Jits_Linear_5,2,5,80,127,3218259880
10817,19,Jits_Linear_5,3,5,56,103,3218268508
10817,19,Jits_Linear_5,0,1,48,34,3218984236
10817,19,Jits_Linear_5,1,5,56,103,3218989436
10817,19,Jits_Linear_5,2,5,63,98,3218992648
10817,19,Jits_Linear_5,3,5,80,127,3219008800
10817,19,Jits_Linear_5,0,5,56,103,3219688960
10817,19,Jits_Linear_5,1,1,48,41,3219697804
10817,19,Jits_Linear_5,2,5,63,98,3219699448
10817,19,Jits_Linear_5,3,5,80,127,3219728680
10817,19,Jits_Linear_5,0,1,48,45,3220373096
10817,19,Jits_Linear_5,1,5,63,98,3220458772
10817,19,Jits_Linear_5,2,5,80,127,3220479440
10817,19,Jits_Linear_5,3,5,56,103,3220519528
10817,19,Jits_Linear_5,0,1,48,51,3221166220
10817,19,Jits_Linear_5,1,5,56,103,3221239216
10817,19,Jits_Linear_5,2,5,63,98,3221279064
10817,19,Jits_Linear_5,3,5,80,127,3221282504
10817,19,Jits_Linear_5,0,5,80,127,3221929448
10817,19,Jits_Linear_5,1,1,48,40,3221944332
10817,19,Jits_Linear_5,2,5,56,103,3221969460
10817,19,Jits_Linear_5,3,5,63,98,3222018540
10817,19,Jits_Linear_5,0,1,48,46,3222691892
10817,19,Jits_Linear_5,1,5,56,103,3222739420
10817,19,Jits_Linear_5,2,5,80,127,3222748644
10817,19,Jits_Linear_5,3,5,63,98,3222779516
10817,19,Jits_Linear_5,0,5,56,103,3223438808
10817,19,Jits_Linear_5,1,1,48,47,3223443500
10817,19,Jits_Linear_5,2,5,80,127,3223478596
10817,19,Jits_Linear_5,3,5,63,98,3223528720
10817,19,Jits_Linear_5,0,1,48,45,3224192920
10817,19,Jits_Linear_5,1,5,56,103,3224198500
10817,19,Jits_Linear_5,2,5,80,127,3224238440
10817,19,Jits_Linear_5,3,5,63,98,3224288568
10817,19,Jits_Linear_5,0,1,48,47,3224912904
10817,19,Jits_Linear_5,1,5,80,127,3224949196
10817,19,Jits_Linear_5,2,5,63,98,3225028904
10817,19,Jits_Linear_5,3,5,56,103,3225039324
10817,19,Jits_Linear_5,0,1,48,43,3225731928
10817,19,Jits_Linear_5,1,5,80,127,3225759160
10817,19,Jits_Linear_5,2,5,56,103,3225769728
10817,19,Jits_Linear_5,3,5,63,98,3225788768
10817,19,Jits_Linear_5,0,1,48,36,3226452432
10817,19,Jits_Linear_5,1,5,63,98,3226489252
10817,19,Jits_Linear_5,2,5,56,103,3226558844
10817,19,Jits_Linear_5,3,5,80,127,3226561908
10817,19,Jits_Linear_5,0,1,48,44,3227235860
10817,19,Jits_Linear_5,1,5,80,127,3227249156
10817,19,Jits_Linear_5,2,5,63,98,3227299212
10817,19,Jits_Linear_5,3,5,56,103,3227339360
10817,19,Jits_Linear_5,0,1,48,45,3228049512
10817,19,Jits_Linear_5,1,5,63,98,3228058972
10817,19,Jits_Linear_5,2,5,56,103,3228098916
10817,19,Jits_Linear_5,3,5,80,127,3228109108
10817,19,Jits_Linear_5,0,5,63,98,3228818676
10817,19,Jits_Linear_5,1,1,48,47,3228833548
10817,19,Jits_Linear_5,2,5,56,103,3228839500
10817,19,Jits_Linear_5,3,5,80,127,3228858764
10817,19,Jits_Linear_5,0,5,80,127,3229549136
10817,19,Jits_Linear_5,1,1,48,46,3229556368
10817,19,Jits_Linear_5,2,5,56,103,3229559180
10817,19,Jits_Linear_5,3,5,63,98,3229578668
10817,19,Jits_Linear_5,0,1,48,44,3230289180
10817,19,Jits_Linear_5,1,5,63,98,3230348692
10817,19,Jits_Linear_5,2,5,56,103,3230388696
10817,19,Jits_Linear_5,3,5,80,127,3230419416
10817,19,Jits_Linear_5,0,1,48,44,3231048644
10817,19,Jits_Linear_5,1,5,56,103,3231129140
10817,19,Jits_Linear_5,2,5,63,98,3231158576
10817,19,Jits_Linear_5,3,5,80,127,3231189228
10817,19,Jits_Linear_5,0,1,48,44,3231859284
10817,19,Jits_Linear_5,1,5,80,127,3231878488
10817,19,Jits_Linear_5,2,5,56,103,3231949220
10817,19,Jits_Linear_5,3,5,63,98,3231952284
10817,19,Jits_Linear_5,0,1,48,47,3232648856
10817,19,Jits_Linear_5,1,5,56,103,3232669332
10817,19,Jits_Linear_5,2,5,63,98,3232719464
10817,19,Jits_Linear_5,3,5,80,127,3232748900
10817,19,Jits_Linear_5,0,5,63,98,3233429024
10817,19,Jits_Linear_5,1,5,80,127,3233432464
10817,19,Jits_Linear_5,2,1,48,41,3233440092
10817,19,Jits_Linear_5,3,5,56,103,3233489260
10817,19,Jits_Linear_5,0,1,48,42,3234181096
10817,19,Jits_Linear_5,1,5,56,103,3234238896
10817,19,Jits_Linear_5,2,5,80,127,3234249316
10817,19,Jits_Linear_5,3,5,63,98,3234299504
10817,19,Jits_Linear_5,0,1,48,41,3234983492
10817,19,Jits_Linear_5,1,5,63,98,3234998736
10817,19,Jits_Linear_5,2,5,56,103,3235008932
10817,19,Jits_Linear_5,3,5,80,127,3235038608
10817,19,Jits_Linear_5,0,1,48,38,3235736348
10817,19,Jits_Linear_5,1,5,63,98,3235818808
10817,19,Jits_Linear_5,2,5,80,127,3235822244
10817,19,Jits_Linear_5,3,5,56,103,3235848468
10817,19,Jits_Linear_5,0,1,48,44,3236527440
10817,19,Jits_Linear_5,1,5,63,98,3236628824
10817,19,Jits_Linear_5,2,5,56,103,3236649428
10817,19,Jits_Linear_5,3,5,80,127,3236652348
10817,19,Jits_Linear_5,0,1,48,37,3237350428
10817,19,Jits_Linear_5,1,5,63,98,3237378400
10817,19,Jits_Linear_5,2,5,56,103,3237449216
10817,19,Jits_Linear_5,3,5,80,127,3237468480
10817,19,Jits_Linear_5,0,1,48,37,3238156176
10817,19,Jits_Linear_5,1,5,56,103,3238158692
10817,19,Jits_Linear_5,2,5,63,98,3238169184
10817,19,Jits_Linear_5,3,5,80,127,3238259184
10817,19,Jits_Linear_5,0,1,48,41,3238941352
10817,19,Jits_Linear_5,1,5,56,103,3238968676
10817,19,Jits_Linear_5,2,5,80,127,3239008768
10817,19,Jits_Linear_5,3,5,63,98,3239018892
10817,19,Jits_Linear_5,0,1,48,39,3239741596
10817,19,Jits_Linear_5,1,5,56,103,3239788828
10817,19,Jits_Linear_5,2,5,63,98,3239818656
10817,19,Jits_Linear_5,3,5,80,127,3239849436
10817,19,Jits_Linear_5,0,5,80,127,3240548672
10817,19,Jits_Linear_5,1,5,63,98,3240588692
10817,19,Jits_Linear_5,2,1,48,41,3240589732
10817,19,Jits_Linear_5,3,5,56,103,3240609292
10817,19,Jits_Linear_5,0,5,56,103,3241389292
10817,19,Jits_Linear_5,1,1,48,46,3241398488
10817,19,Jits_Linear_5,2,5,80,127,3241409072
10817,19,Jits_Linear_5,3,5,63,98,3241429308
10817,19,Jits_Linear_5,0,1,48,36,3242147092
10817,19,Jits_Linear_5,1,5,63,98,3242158428
10817,19,Jits_Linear_5,2,5,56,103,3242168772
10817,19,Jits_Linear_5,3,5,80,127,3242229316
10817,19,Jits_Linear_5,0,1,48,50,3242945200
10817,19,Jits_Linear_5,1,5,56,103,3242968464
10817,19,Jits_Linear_5,2,5,63,98,3243039196
10817,19,Jits_Linear_5,3,5,80,127,3243058520
10817,19,Jits_Linear_5,0,1,48,44,3243747388
10817,19,Jits_Linear_5,1,5,56,103,3243778352
10817,19,Jits_Linear_5,2,5,63,98,3243809300
10817,19,Jits_Linear_5,3,5,80,127,3243849176
10817,19,Jits_Linear_5,0,1,48,44,3244540552
10817,19,Jits_Linear_5,1,5,63,98,3244579168
10817,19,Jits_Linear_5,2,5,56,103,3244629324
10817,19,Jits_Linear_5,3,5,80,127,3244638608
10817,19,Jits_Linear_5,0,1,48,37,3245369048
10817,19,Jits_Linear_5,1,5,56,103,3245429236
10817,19,Jits_Linear_5,2,5,63,98,3245479276
10817,19,Jits_Linear_5,3,5,80,127,3245488352
10817,19,Jits_Linear_5,0,5,56,103,3246209388
10817,19,Jits_Linear_5,1,5,63,98,3246218684
10817,19,Jits_Linear_5,2,1,48,32,3246252372
10817,19,Jits_Linear_5,3,5,80,127,3246298548
10817,19,Jits_Linear_5,0,9999,9999,9999,3137466480
10817,19,Jits_Linear_5,1,9999,9999,9999,3137946720
10817,19,Jits_Linear_5,2,9999,9999,9999,3138426956
10817,19,Jits_Linear_5,3,9999,9999,9999,3138906208
10817,19,Jits_Linear_5,4,9999,9999,9999,3139386496
10817,19,Jits_Linear_5,5,9999,9999,9999,3139876952
10817,19,Jits_Linear_5,6,9999,9999,9999,3140366448
10817,19,Jits_Linear_5,7,9999,9999,9999,3140856940
10817,19,Jits_Linear_5,8,9999,9999,9999,3141346380
10817,19,Jits_Linear_5,9,9999,9999,9999,3141836872
10817,19,Jits_Linear_5,10,9999,9999,9999,3142336576
10817,19,Jits_Linear_5,11,9999,9999,9999,3142836284
10817,19,Jits_Linear_5,12,9999,9999,9999,3143337016
10817,19,Jits_Linear_5,13,9999,9999,9999,3143836780
10817,19,Jits_Linear_5,14,9999,9999,9999,3144336472
10817,19,Jits_Linear_5,15,9999,9999,9999,3144846440
10817,19,Jits_Linear_5,16,9999,9999,9999,3145356396
10817,19,Jits_Linear_5,17,9999,9999,9999,3145866352
10817,19,Jits_Linear_5,18,9999,9999,9999,3146376304
10817,19,Jits_Linear_5,19,9999,9999,9999,3146886256
10817,19,Jits_Linear_5,20,9999,9999,9999,3147406400
10817,19,Jits_Linear_5,21,9999,9999,9999,3147926616
10817,19,Jits_Linear_5,22,9999,9999,9999,3148446844
10817,19,Jits_Linear_5,23,9999,9999,9999,3148967004
10817,19,Jits_Linear_5,24,9999,9999,9999,3149486176
10817,19,Jits_Linear_5,25,9999,9999,9999,3150016588
10817,19,Jits_Linear_5,26,9999,9999,9999,3150547068
10817,19,Jits_Linear_5,27,9999,9999,9999,3151076476
10817,19,Jits_Linear_5,28,9999,9999,9999,3151606884
10817,19,Jits_Linear_5,29,9999,9999,9999,3152136316
10817,19,Jits_Linear_5,30,9999,9999,9999,3152676984
10817,19,Jits_Linear_5,31,9999,9999,9999,3153216632
10817,19,Jits_Linear_5,32,9999,9999,9999,3153756252
10817,19,Jits_Linear_5,33,9999,9999,9999,3154296920
10817,19,Jits_Linear_5,34,9999,9999,9999,3154836540
10817,19,Jits_Linear_5,35,9999,9999,9999,3155386432
10817,19,Jits_Linear_5,36,9999,9999,9999,3155936380
10817,19,Jits_Linear_5,37,9999,9999,9999,3156486268
10817,19,Jits_Linear_5,38,9999,9999,9999,3157036152
10817,19,Jits_Linear_5,39,9999,9999,9999,3157587036
10817,19,Jits_Linear_5,40,9999,9999,9999,3158146116
10817,19,Jits_Linear_5,41,9999,9999,9999,3158706240
10817,19,Jits_Linear_5,42,9999,9999,9999,3159266388
10817,19,Jits_Linear_5,43,9999,9999,9999,3159826536
10817,19,Jits_Linear_5,44,9999,9999,9999,3160386680
10817,19,Jits_Linear_5,45,9999,9999,9999,3160957016
10817,19,Jits_Linear_5,46,9999,9999,9999,3161526380
10817,19,Jits_Linear_5,47,9999,9999,9999,3162096728
10817,19,Jits_Linear_5,48,9999,9999,9999,3162667068
10817,19,Jits_Linear_5,49,9999,9999,9999,3163246656
10817,19,Jits_Linear_5,50,9999,9999,9999,3163826272
10817,19,Jits_Linear_5,51,9999,9999,9999,3164406888
10817,19,Jits_Linear_5,52,9999,9999,9999,3164986484
10817,19,Jits_Linear_5,53,9999,9999,9999,3165567104
10817,19,Jits_Linear_5,54,9999,9999,9999,3166146660
10817,19,Jits_Linear_5,55,9999,9999,9999,3166736500
10817,19,Jits_Linear_5,56,9999,9999,9999,3167326268
10817,19,Jits_Linear_5,57,9999,9999,9999,3167916152
10817,19,Jits_Linear_5,58,9999,9999,9999,3168506944
10817,19,Jits_Linear_5,59,9999,9999,9999,3169096776
10817,19,Jits_Linear_5,60,9999,9999,9999,3169696856
10817,19,Jits_Linear_5,61,9999,9999,9999,3170296936
10817,19,Jits_Linear_5,62,9999,9999,9999,3170896972
10817,19,Jits_Linear_5,63,9999,9999,9999,3171497052
10817,19,Jits_Linear_5,64,9999,9999,9999,3172096088
10817,19,Jits_Linear_5,65,9999,9999,9999,3172706400
10817,19,Jits_Linear_5,66,9999,9999,9999,3173316672
10817,19,Jits_Linear_5,67,9999,9999,9999,3173927004
10817,19,Jits_Linear_5,68,9999,9999,9999,3174536260
10817,19,Jits_Linear_5,69,9999,9999,9999,3175146608
10817,19,Jits_Linear_5,70,9999,9999,9999,3175766112
10817,19,Jits_Linear_5,71,9999,9999,9999,3176386660
10817,19,Jits_Linear_5,72,9999,9999,9999,3177006144
10817,19,Jits_Linear_5,73,9999,9999,9999,3177626700
10817,19,Jits_Linear_5,74,9999,9999,9999,3178246264
10817,19,Jits_Linear_5,75,9999,9999,9999,3178877012
10817,19,Jits_Linear_5,76,9999,9999,9999,3179506768
10817,19,Jits_Linear_5,77,9999,9999,9999,3180136548
10817,19,Jits_Linear_5,78,9999,9999,9999,3180766316
10817,19,Jits_Linear_5,79,9999,9999,9999,3181397064
10817,19,Jits_Linear_5,80,9999,9999,9999,3182037084
10817,19,Jits_Linear_5,81,9999,9999,9999,3182677048
10817,19,Jits_Linear_5,82,9999,9999,9999,3183317064
10817,19,Jits_Linear_5,83,9999,9999,9999,3183957104
10817,19,Jits_Linear_5,84,9999,9999,9999,3184597060
10817,19,Jits_Linear_5,85,9999,9999,9999,3185246320
10817,19,Jits_Linear_5,86,9999,9999,9999,3185896524
10817,19,Jits_Linear_5,87,9999,9999,9999,3186546768
10817,19,Jits_Linear_5,88,9999,9999,9999,3187197044
10817,19,Jits_Linear_5,89,9999,9999,9999,3187846228
10817,19,Jits_Linear_5,90,9999,9999,9999,3188506700
10817,19,Jits_Linear_5,91,9999,9999,9999,3189166140
10817,19,Jits_Linear_5,92,9999,9999,9999,3189826620
10817,19,Jits_Linear_5,93,9999,9999,9999,3190486116
10817,19,Jits_Linear_5,94,9999,9999,9999,3191146604
10817,19,Jits_Linear_5,95,9999,9999,9999,3191816312
10817,19,Jits_Linear_5,96,9999,9999,9999,3192486992
10817,19,Jits_Linear_5,97,9999,9999,9999,3193156700
10817,19,Jits_Linear_5,98,9999,9999,9999,3193826388
10817,19,Jits_Linear_5,99,9999,9999,9999,3194496096
10817,19,Jits_Linear_5,100,9999,9999,9999,3195177020
10817,19,Jits_Linear_5,101,9999,9999,9999,3195856996
10817,19,Jits_Linear_5,102,9999,9999,9999,3196536956
10817,19,Jits_Linear_5,103,9999,9999,9999,3197216836
10817,19,Jits_Linear_5,104,9999,9999,9999,3197896808
10817,19,Jits_Linear_5,105,9999,9999,9999,3198586968
10817,19,Jits_Linear_5,106,9999,9999,9999,3199276132
10817,19,Jits_Linear_5,107,9999,9999,9999,3199966292
10817,19,Jits_Linear_5,108,9999,9999,9999,3200656448
10817,19,Jits_Linear_5,109,9999,9999,9999,3201346680
10817,19,Jits_Linear_5,110,9999,9999,9999,3202047080
10817,19,Jits_Linear_5,111,9999,9999,9999,3202746456
10817,19,Jits_Linear_5,112,9999,9999,9999,3203446876
10817,19,Jits_Linear_5,113,9999,9999,9999,3204146232
10817,19,Jits_Linear_5,114,9999,9999,9999,3204846648
10817,19,Jits_Linear_5,115,9999,9999,9999,3205556280
10817,19,Jits_Linear_5,116,9999,9999,9999,3206266944
10817,19,Jits_Linear_5,117,9999,9999,9999,3206976584
10817,19,Jits_Linear_5,118,9999,9999,9999,3207686200
10817,19,Jits_Linear_5,119,9999,9999,9999,3208396880
10817,19,Jits_Linear_5,120,9999,9999,9999,3209116784
10817,19,Jits_Linear_5,121,9999,9999,9999,3209836612
10817,19,Jits_Linear_5,122,9999,9999,9999,3210556532
10817,19,Jits_Linear_5,123,9999,9999,9999,3211276352
10817,19,Jits_Linear_5,124,9999,9999,9999,3211996252
10817,19,Jits_Linear_5,125,9999,9999,9999,3212726380
10817,19,Jits_Linear_5,126,9999,9999,9999,3213456476
10817,19,Jits_Linear_5,127,9999,9999,9999,3214186564
10817,19,Jits_Linear_5,128,9999,9999,9999,3214916716
10817,19,Jits_Linear_5,129,9999,9999,9999,3215646800
10817,19,Jits_Linear_5,130,9999,9999,9999,3216386124
10817,19,Jits_Linear_5,131,9999,9999,9999,3217126480
10817,19,Jits_Linear_5,132,9999,9999,9999,3217866828
10817,19,Jits_Linear_5,133,9999,9999,9999,3218606140
10817,19,Jits_Linear_5,134,9999,9999,9999,3219346492
10817,19,Jits_Linear_5,135,9999,9999,9999,3220096064
10817,19,Jits_Linear_5,136,9999,9999,9999,3220846700
10817,19,Jits_Linear_5,137,9999,9999,9999,3221596272
10817,19,Jits_Linear_5,138,9999,9999,9999,3222346820
10817,19,Jits_Linear_5,139,9999,9999,9999,3223096412
10817,19,Jits_Linear_5,140,9999,9999,9999,3223856228
10817,19,Jits_Linear_5,141,9999,9999,9999,3224617044
10817,19,Jits_Linear_5,142,9999,9999,9999,3225376884
10817,19,Jits_Linear_5,143,9999,9999,9999,3226136648
10817,19,Jits_Linear_5,144,9999,9999,9999,3226896476
10817,19,Jits_Linear_5,145,9999,9999,9999,3227666508
10817,19,Jits_Linear_5,146,9999,9999,9999,3228436540
10817,19,Jits_Linear_5,147,9999,9999,9999,3229206644
10817,19,Jits_Linear_5,148,9999,9999,9999,3229976668
10817,19,Jits_Linear_5,149,9999,9999,9999,3230746712
10817,19,Jits_Linear_5,150,9999,9999,9999,3231527008
10817,19,Jits_Linear_5,151,9999,9999,9999,3232306244
10817,19,Jits_Linear_5,152,9999,9999,9999,3233086556
10817,19,Jits_Linear_5,153,9999,9999,9999,3233866832
10817,19,Jits_Linear_5,154,9999,9999,9999,3234646076
10817,19,Jits_Linear_5,155,9999,9999,9999,3235436632
10817,19,Jits_Linear_5,156,9999,9999,9999,3236226132
10817,19,Jits_Linear_5,157,9999,9999,9999,3237016680
10817,19,Jits_Linear_5,158,9999,9999,9999,3237806188
10817,19,Jits_Linear_5,159,9999,9999,9999,3238596664
10817,19,Jits_Linear_5,160,9999,9999,9999,3239396436
10817,19,Jits_Linear_5,161,9999,9999,9999,3240196212
10817,19,Jits_Linear_5,162,9999,9999,9999,3240996952
10817,19,Jits_Linear_5,163,9999,9999,9999,3241796692
10817,19,Jits_Linear_5,164,9999,9999,9999,3242596476
10817,19,Jits_Linear_5,165,9999,9999,9999,3243406440
10817,19,Jits_Linear_5,166,9999,9999,9999,3244216400
10817,19,Jits_Linear_5,167,9999,9999,9999,3245026432
10817,19,Jits_Linear_5,168,9999,9999,9999,3245836396
10817,19,Jits_Linear_5,169,9999,9999,9999,3246646380
10818,15,Jits_Phase_8,0,5,56,103,3255311820
10818,15,Jits_Phase_8,1,5,63,98,3255314920
10818,15,Jits_Phase_8,2,5,80,127,3255317888
10818,15,Jits_Phase_8,0,5,56,103,3256111464
10818,15,Jits_Phase_8,1,5,63,98,3256114712
10818,15,Jits_Phase_8,2,5,80,127,3256117756
10818,15,Jits_Phase_8,0,5,80,127,3256851908
10818,15,Jits_Phase_8,1,1,48,54,3256903228
10818,15,Jits_Phase_8,2,5,63,98,3256941988
10818,15,Jits_Phase_8,3,5,56,103,3256952184
10818,15,Jits_Phase_8,0,5,56,103,3257672088
10818,15,Jits_Phase_8,1,5,63,98,3257682432
10818,15,Jits_Phase_8,2,1,48,58,3257718360
10818,15,Jits_Phase_8,3,5,80,127,3257772336
10818,15,Jits_Phase_8,0,5,63,98,3258441968
10818,15,Jits_Phase_8,1,1,48,51,3258458716
10818,15,Jits_Phase_8,2,5,80,127,3258472084
10818,15,Jits_Phase_8,3,5,56,103,3258501536
10818,15,Jits_Phase_8,0,1,48,48,3259221092
10818,15,Jits_Phase_8,1,5,56,103,3259241864
10818,15,Jits_Phase_8,2,5,80,127,3259342320
10818,15,Jits_Phase_8,3,5,63,98,3259392448
10818,15,Jits_Phase_8,0,5,56,103,3260041484
10818,15,Jits_Phase_8,1,1,48,46,3260086928
10818,15,Jits_Phase_8,2,5,80,127,3260091980
10818,15,Jits_Phase_8,3,5,63,98,3260131840
10818,15,Jits_Phase_8,0,1,48,51,3260856504
10818,15,Jits_Phase_8,1,5,80,127,3260871968
10818,15,Jits_Phase_8,2,5,63,98,3260902016
10818,15,Jits_Phase_8,3,5,56,103,3260972280
10818,15,Jits_Phase_8,0,1,48,46,3261674244
10818,15,Jits_Phase_8,1,5,63,98,3261701472
10818,15,Jits_Phase_8,2,5,56,103,3261732272
10818,15,Jits_Phase_8,3,5,80,127,3261791696
10818,15,Jits_Phase_8,0,5,56,103,3262441976
10818,15,Jits_Phase_8,1,5,80,127,3262444820
10818,15,Jits_Phase_8,2,1,48,49,3262489140
10818,15,Jits_Phase_8,3,5,63,98,3262561644
10818,15,Jits_Phase_8,0,1,48,56,3263257208
10818,15,Jits_Phase_8,1,5,56,103,3263321476
10818,15,Jits_Phase_8,2,5,80,127,3263362300
10818,15,Jits_Phase_8,3,5,63,98,3263371820
10818,15,Jits_Phase_8,0,1,48,49,3264064496
10818,15,Jits_Phase_8,1,5,56,103,3264082208
10818,15,Jits_Phase_8,2,5,80,127,3264101916
10818,15,Jits_Phase_8,3,5,63,98,3264181548
10818,15,Jits_Phase_8,0,5,80,127,3264871932
10818,15,Jits_Phase_8,1,1,48,46,3264899016
10818,15,Jits_Phase_8,2,5,56,103,3264972324
10818,15,Jits_Phase_8,3,5,63,98,3264982296
10818,15,Jits_Phase_8,0,5,63,98,3265641816
10818,15,Jits_Phase_8,1,5,80,127,3265702136
10818,15,Jits_Phase_8,2,5,56,103,3265711508
10818,15,Jits_Phase_8,3,1,48,43,3265744588
10818,15,Jits_Phase_8,0,5,56,103,3266441720
10818,15,Jits_Phase_8,1,1,48,37,3266451816
10818,15,Jits_Phase_8,2,5,63,98,3266512292
10818,15,Jits_Phase_8,3,5,80,127,3266515580
10818,15,Jits_Phase_8,0,1,48,41,3267199556
10818,15,Jits_Phase_8,1,5,63,98,3267271972
10818,15,Jits_Phase_8,2,5,56,103,3267322076
10818,15,Jits_Phase_8,3,5,80,127,3267325148
10818,15,Jits_Phase_8,0,5,56,103,3268032016
10818,15,Jits_Phase_8,1,5,80,127,3268035080
10818,15,Jits_Phase_8,2,1,48,36,3268048240
10818,15,Jits_Phase_8,3,5,63,98,3268121988
10818,15,Jits_Phase_8,0,1,48,46,3268860444
10818,15,Jits_Phase_8,1,5,63,98,3268871552
10818,15,Jits_Phase_8,2,5,56,103,3268961772
10818,15,Jits_Phase_8,3,5,80,127,3268992344
10818,15,Jits_Phase_8,0,1,48,44,3269646488
10818,15,Jits_Phase_8,1,5,56,103,3269662028
10818,15,Jits_Phase_8,2,5,63,98,3269762436
10818,15,Jits_Phase_8,3,5,80,127,3269792108
10818,15,Jits_Phase_8,0,1,48,47,3270458328
10818,15,Jits_Phase_8,1,5,63,98,3270482192
10818,15,Jits_Phase_8,2,5,56,103,3270491712
10818,15,Jits_Phase_8,3,5,80,127,3270581604
10818,15,Jits_Phase_8,0,1,48,51,3271243868
10818,15,Jits_Phase_8,1,5,63,98,3271301360
10818,15,Jits_Phase_8,2,5,56,103,3271382336
10818,15,Jits_Phase_8,3,5,80,127,3271385328
10818,15,Jits_Phase_8,0,5,80,127,3272062236
10818,15,Jits_Phase_8,1,1,48,45,3272078012
10818,15,Jits_Phase_8,2,5,63,98,3272081792
10818,15,Jits_Phase_8,3,5,56,103,3272142180
10818,15,Jits_Phase_8,0,1,48,45,3272873216
10818,15,Jits_Phase_8,1,5,56,103,3272901864
10818,15,Jits_Phase_8,2,5,63,98,3272921496
10818,15,Jits_Phase_8,3,5,80,127,3272924860
10818,15,Jits_Phase_8,0,5,63,98,3273642352
10818,15,Jits_Phase_8,1,1,48,38,3273659248
10818,15,Jits_Phase_8,2,5,80,127,3273722292
10818,15,Jits_Phase_8,3,5,56,103,3273731812
10818,15,Jits_Phase_8,0,5,63,98,3274461664
10818,15,Jits_Phase_8,1,1,48,48,3274475344
10818,15,Jits_Phase_8,2,5,56,103,3274481968
10818,15,Jits_Phase_8,3,5,80,127,3274532244
10818,15,Jits_Phase_8,0,5,80,127,3275262248
10818,15,Jits_Phase_8,1,1,48,45,3275268732
10818,15,Jits_Phase_8,2,5,63,98,3275302180
10818,15,Jits_Phase_8,3,5,56,103,3275321768
10818,15,Jits_Phase_8,0,1,48,43,3276060420
10818,15,Jits_Phase_8,1,5,56,103,3276101900
10818,15,Jits_Phase_8,2,5,63,98,3276112168
10818,15,Jits_Phase_8,3,5,80,127,3276131880
10818,15,Jits_Phase_8,0,5,56,103,3276832112
10818,15,Jits_Phase_8,1,1,48,48,3276851520
10818,15,Jits_Phase_8,2,5,63,98,3276922116
10818,15,Jits_Phase_8,3,5,80,127,3276981964
10818,15,Jits_Phase_8,0,1,48,55,3277625576
10818,15,Jits_Phase_8,1,5,80,127,3277661492
10818,15,Jits_Phase_8,2,5,56,103,3277671912
10818,15,Jits_Phase_8,3,5,63,98,3277741356
10818,15,Jits_Phase_8,0,1,48,52,3278469544
10818,15,Jits_Phase_8,1,5,63,98,3278491964
10818,15,Jits_Phase_8,2,5,80,127,3278582156
10818,15,Jits_Phase_8,3,5,56,103,3278592504
10818,15,Jits_Phase_8,0,5,63,98,3279222056
10818,15,Jits_Phase_8,1,5,80,127,3279272332
10818,15,Jits_Phase_8,2,1,48,53,3279295680
10818,15,Jits_Phase_8,3,5,56,103,3279331816
10818,15,Jits_Phase_8,0,5,56,103,3280042564
10818,15,Jits_Phase_8,1,1,48,45,3280088980
10818,15,Jits_Phase_8,2,5,80,127,3280091640
10818,15,Jits_Phase_8,3,5,63,98,3280112024
10818,15,Jits_Phase_8,0,5,56,103,3280812516
10818,15,Jits_Phase_8,1,5,80,127,3280871864
10818,15,Jits_Phase_8,2,1,48,49,3280877676
10818,15,Jits_Phase_8,3,5,63,98,3280941388
10818,15,Jits_Phase_8,0,5,56,103,3281612212
10818,15,Jits_Phase_8,1,5,80,127,3281641964
10818,15,Jits_Phase_8,2,1,48,40,3281662020
10818,15,Jits_Phase_8,3,5,63,98,3281671632
10818,15,Jits_Phase_8,0,1,48,48,3282370296
10818,15,Jits_Phase_8,1,5,56,103,3282451760
10818,15,Jits_Phase_8,2,5,80,127,3282472352
10818,15,Jits_Phase_8,3,5,63,98,3282531644
10818,15,Jits_Phase_8,0,1,48,40,3283262832
10818,15,Jits_Phase_8,1,5,80,127,3283331560
10818,15,Jits_Phase_8,2,5,56,103,3283341680
10818,15,Jits_Phase_8,3,5,63,98,3283351876
10818,15,Jits_Phase_8,0,5,56,103,3284092220
10818,15,Jits_Phase_8,1,5,80,127,3284132084
10818,15,Jits_Phase_8,2,1,48,48,3284146736
10818,15,Jits_Phase_8,3,5,63,98,3284161904
10818,15,Jits_Phase_8,0,5,56,103,3284862180
10818,15,Jits_Phase_8,1,5,63,98,3284891932
10818,15,Jits_Phase_8,2,5,80,127,3284932016
10818,15,Jits_Phase_8,3,1,48,51,3284947936
10818,15,Jits_Phase_8,0,5,80,127,3285611896
10818,15,Jits_Phase_8,1,1,48,43,3285644232
10818,15,Jits_Phase_8,2,5,63,98,3285662016
10818,15,Jits_Phase_8,3,5,56,103,3285681800
10818,15,Jits_Phase_8,0,1,48,40,3286365324
10818,15,Jits_Phase_8,1,5,56,103,3286442296
10818,15,Jits_Phase_8,2,5,80,127,3286511964
10818,15,Jits_Phase_8,3,5,63,98,3286572500
10818,15,Jits_Phase_8,0,5,80,127,3287242212
10818,15,Jits_Phase_8,1,1,48,42,3287246824
10818,15,Jits_Phase_8,2,5,63,98,3287332268
10818,15,Jits_Phase_8,3,5,56,103,3287351764
10818,15,Jits_Phase_8,0,5,63,98,3288062296
10818,15,Jits_Phase_8,1,5,56,103,3288081856
10818,15,Jits_Phase_8,2,1,48,44,3288117208
10818,15,Jits_Phase_8,3,5,80,127,3288121664
10818,15,Jits_Phase_8,0,5,80,127,3288822120
10818,15,Jits_Phase_8,1,5,63,98,3288841680
10818,15,Jits_Phase_8,2,1,48,46,3288860768
10818,15,Jits_Phase_8,3,5,56,103,3288921420
10818,15,Jits_Phase_8,0,5,63,98,3289611772
10818,15,Jits_Phase_8,1,1,48,40,3289654100
10818,15,Jits_Phase_8,2,5,56,103,3289722152
10818,15,Jits_Phase_8,3,5,80,127,3289725220
10818,15,Jits_Phase_8,0,5,63,98,3290431848
10818,15,Jits_Phase_8,1,5,56,103,3290441960
10818,15,Jits_Phase_8,2,1,48,44,3290444812
10818,15,Jits_Phase_8,3,5,80,127,3290446224
10818,15,Jits_Phase_8,0,5,56,103,3291212036
10818,15,Jits_Phase_8,1,1,48,40,3291219788
10818,15,Jits_Phase_8,2,5,80,127,3291331816
10818,15,Jits_Phase_8,3,5,63,98,3291371752
10818,15,Jits_Phase_8,0,5,56,103,3292032256
10818,15,Jits_Phase_8,1,5,80,127,3292112720
10818,15,Jits_Phase_8,2,5,63,98,3292131688
10818,15,Jits_Phase_8,3,1,48,44,3292163048
10818,15,Jits_Phase_8,0,5,56,103,3292832104
10818,15,Jits_Phase_8,1,1,48,35,3292929092
10818,15,Jits_Phase_8,2,5,63,98,3292941556
10818,15,Jits_Phase_8,3,5,80,127,3292944924
10818,15,Jits_Phase_8,0,5,56,103,3293671876
10818,15,Jits_Phase_8,1,5,80,127,3293701776
10818,15,Jits_Phase_8,2,1,48,42,3293705720
10818,15,Jits_Phase_8,3,5,63,98,3293721860
10818,15,Jits_Phase_8,0,1,48,40,3294454608
10818,15,Jits_Phase_8,1,5,63,98,3294462432
10818,15,Jits_Phase_8,2,5,56,103,3294471580
10818,15,Jits_Phase_8,3,5,80,127,3294481700
10818,15,Jits_Phase_8,0,1,48,47,3295226636
10818,15,Jits_Phase_8,1,5,80,127,3295251772
10818,15,Jits_Phase_8,2,5,56,103,3295301924
10818,15,Jits_Phase_8,3,5,63,98,3295341920
10818,15,Jits_Phase_8,0,1,48,40,3296070268
10818,15,Jits_Phase_8,1,5,80,127,3296072004
10818,15,Jits_Phase_8,2,5,63,98,3296091788
10818,15,Jits_Phase_8,3,5,56,103,3296141616
10818,15,Jits_Phase_8,0,1,48,39,3296877872
10818,15,Jits_Phase_8,1,5,80,127,3296882024
10818,15,Jits_Phase_8,2,5,56,103,3296911624
10818,15,Jits_Phase_8,3,5,63,98,3296982632
10818,15,Jits_Phase_8,0,1,48,40,3297692544
10818,15,Jits_Phase_8,1,5,56,103,3297731908
10818,15,Jits_Phase_8,2,5,80,127,3297742176
10818,15,Jits_Phase_8,3,5,63,98,3297782040
10818,15,Jits_Phase_8,0,5,56,103,3298441472
10818,15,Jits_Phase_8,1,5,63,98,3298462004
10818,15,Jits_Phase_8,2,1,48,43,3298524308
10818,15,Jits_Phase_8,3,5,80,127,3298531676
10818,15,Jits_Phase_8,0,1,48,42,3299201944
10818,15,Jits_Phase_8,1,5,63,98,3299261688
10818,15,Jits_Phase_8,2,5,80,127,3299322360
10818,15,Jits_Phase_8,3,5,56,103,3299341696
10818,15,Jits_Phase_8,0,1,48,48,3300034740
10818,15,Jits_Phase_8,1,5,80,127,3300052596
10818,15,Jits_Phase_8,2,5,56,103,3300081976
10818,15,Jits_Phase_8,3,5,63,98,3300111876
10818,15,Jits_Phase_8,0,1,48,40,3300821168
10818,15,Jits_Phase_8,1,5,56,103,3300851980
10818,15,Jits_Phase_8,2,5,63,98,3300913028
10818,15,Jits_Phase_8,3,5,80,127,3300971996
10818,15,Jits_Phase_8,0,1,48,43,3301656472
10818,15,Jits_Phase_8,1,5,80,127,3301672612
10818,15,Jits_Phase_8,2,5,56,103,3301691828
10818,15,Jits_Phase_8,3,5,63,98,3301762540
10818,15,Jits_Phase_8,0,1,48,45,3302468696
10818,15,Jits_Phase_8,1,5,80,127,3302472024
10818,15,Jits_Phase_8,2,5,63,98,3302491588
10818,15,Jits_Phase_8,3,5,56,103,3302522160
10818,15,Jits_Phase_8,0,5,80,127,3303261600
10818,15,Jits_Phase_8,1,1,48,44,3303269204
10818,15,Jits_Phase_8,2,5,63,98,3303281904
10818,15,Jits_Phase_8,3,5,56,103,3303341540
10818,15,Jits_Phase_8,0,5,80,127,3304062564
10818,15,Jits_Phase_8,1,1,48,35,3304082992
10818,15,Jits_Phase_8,2,5,56,103,3304161608
10818,15,Jits_Phase_8,3,5,63,98,3304192540
10818,15,Jits_Phase_8,0,5,63,98,3304851780
10818,15,Jits_Phase_8,1,5,80,127,3304901980
10818,15,Jits_Phase_8,2,5,56,103,3304921468
10818,15,Jits_Phase_8,3,1,48,40,3304939408
10818,15,Jits_Phase_8,0,5,80,127,3305691392
10818,15,Jits_Phase_8,1,1,48,38,3305709336
10818,15,Jits_Phase_8,2,5,56,103,3305722404
10818,15,Jits_Phase_8,3,5,63,98,3305725400
10818,15,Jits_Phase_8,0,1,48,38,3306540604
10818,15,Jits_Phase_8,1,5,63,98,3306542020
10818,15,Jits_Phase_8,2,5,56,103,3306582508
10818,15,Jits_Phase_8,3,5,80,127,3306601772
10818,15,Jits_Phase_8,0,5,80,127,3307302528
10818,15,Jits_Phase_8,1,5,63,98,3307382128
10818,15,Jits_Phase_8,2,1,48,25,3307387268
10818,15,Jits_Phase_8,3,5,56,103,3307422208
10818,15,Jits_Phase_8,0,5,63,98,3308121440
10818,15,Jits_Phase_8,1,5,80,127,3308202356
10818,15,Jits_Phase_8,2,5,56,103,3308221916
10818,15,Jits_Phase_8,3,1,48,34,3308240928
10818,15,Jits_Phase_8,0,5,56,103,3308962256
10818,15,Jits_Phase_8,1,5,63,98,3308972380
10818,15,Jits_Phase_8,2,1,48,39,3308973864
10818,15,Jits_Phase_8,3,5,80,127,3309012532
10818,15,Jits_Phase_8,0,5,56,103,3309682080
10818,15,Jits_Phase_8,1,5,80,127,3309685372
10818,15,Jits_Phase_8,2,1,48,41,3309740276
10818,15,Jits_Phase_8,3,5,63,98,3309822548
10818,15,Jits_Phase_8,0,5,56,103,3310471504
10818,15,Jits_Phase_8,1,1,48,36,3310496416
10818,15,Jits_Phase_8,2,5,63,98,3310561632
10818,15,Jits_Phase_8,3,5,80,127,3310632564
10818,15,Jits_Phase_8,0,1,48,43,3311284876
10818,15,Jits_Phase_8,1,5,63,98,3311352108
10818,15,Jits_Phase_8,2,5,80,127,3311355548
10818,15,Jits_Phase_8,3,5,56,103,3311411608
10818,15,Jits_Phase_8,0,1,48,41,3312103512
10818,15,Jits_Phase_8,1,5,80,127,3312191896
10818,15,Jits_Phase_8,2,5,56,103,3312212340
10818,15,Jits_Phase_8,3,5,63,98,3312221488
10818,15,Jits_Phase_8,0,5,56,103,3312901440
10818,15,Jits_Phase_8,1,1,48,46,3312904264
10818,15,Jits_Phase_8,2,5,63,98,3312911852
10818,15,Jits_Phase_8,3,5,80,127,3312982456
10818,15,Jits_Phase_8,0,5,80,127,3313702552
10818,15,Jits_Phase_8,1,1,48,37,3313711824
10818,15,Jits_Phase_8,2,5,56,103,3313752528
10818,15,Jits_Phase_8,3,5,63,98,3313801684
10818,15,Jits_Phase_8,0,1,48,42,3314510172
10818,15,Jits_Phase_8,1,5,56,103,3314581816
10818,15,Jits_Phase_8,2,5,63,98,3314592384
10818,15,Jits_Phase_8,3,5,80,127,3314632528
10818,15,Jits_Phase_8,0,5,56,103,3315322548
10818,15,Jits_Phase_8,1,1,48,53,3315330176
10818,15,Jits_Phase_8,2,5,63,98,3315362256
10818,15,Jits_Phase_8,3,5,80,127,3315412456
10818,15,Jits_Phase_8,0,5,80,127,3316081936
10818,15,Jits_Phase_8,1,1,48,43,3316084980
10818,15,Jits_Phase_8,2,5,56,103,3316132504
10818,15,Jits_Phase_8,3,5,63,98,3316151692
10818,15,Jits_Phase_8,0,5,80,127,3316892192
10818,15,Jits_Phase_8,1,1,48,41,3316897856
10818,15,Jits_Phase_8,2,5,63,98,3316952428
10818,15,Jits_Phase_8,3,5,56,103,3317032428
10818,15,Jits_Phase_8,0,1,48,51,3317672036
10818,15,Jits_Phase_8,1,5,80,127,3317673448
10818,15,Jits_Phase_8,2,5,56,103,3317712416
10818,15,Jits_Phase_8,3,5,63,98,3317731604
10818,15,Jits_Phase_8,0,1,48,50,3318470488
10818,15,Jits_Phase_8,1,5,56,103,3318522428
10818,15,Jits_Phase_8,2,5,80,127,3318531504
10818,15,Jits_Phase_8,3,5,63,98,3318572400
10818,15,Jits_Phase_8,0,1,48,51,3319264620
10818,15,Jits_Phase_8,1,5,56,103,3319391724
10818,15,Jits_Phase_8,2,5,63,98,3319431512
10818,15,Jits_Phase_8,3,5,80,127,3319435024
10818,15,Jits_Phase_8,0,5,63,98,3320062312
10818,15,Jits_Phase_8,1,1,48,39,3320096444
10818,15,Jits_Phase_8,2,5,80,127,3320102320
10818,15,Jits_Phase_8,3,5,56,103,3320171876
10818,15,Jits_Phase_8,0,1,48,47,3320812600
10818,15,Jits_Phase_8,1,5,63,98,3320832400
10818,15,Jits_Phase_8,2,5,56,103,3320912204
10818,15,Jits_Phase_8,3,5,80,127,3320971620
10818,15,Jits_Phase_8,0,1,48,48,3321562976
10818,15,Jits_Phase_8,1,5,80,127,3321642344
10818,15,Jits_Phase_8,2,5,63,98,3321691584
10818,15,Jits_Phase_8,3,5,56,103,3321722232
10818,15,Jits_Phase_8,0,1,48,48,3322345420
10818,15,Jits_Phase_8,1,5,56,103,3322431864
10818,15,Jits_Phase_8,2,5,63,98,3322482048
10818,15,Jits_Phase_8,3,5,80,127,3322492172
10818,15,Jits_Phase_8,0,1,48,44,3323171776
10818,15,Jits_Phase_8,1,5,56,103,3323241956
10818,15,Jits_Phase_8,2,5,63,98,3323352380
10818,15,Jits_Phase_8,3,5,80,127,3323371788
10818,15,Jits_Phase_8,0,5,63,98,3324041724
10818,15,Jits_Phase_8,1,1,48,43,3324058020
10818,15,Jits_Phase_8,2,5,80,127,3324091620
10818,15,Jits_Phase_8,3,5,56,103,3324181884
10818,15,Jits_Phase_8,0,1,48,44,3324817840
10818,15,Jits_Phase_8,1,5,63,98,3324832404
10818,15,Jits_Phase_8,2,5,80,127,3324861932
10818,15,Jits_Phase_8,3,5,56,103,3324952120
10818,15,Jits_Phase_8,0,1,48,35,3325605756
10818,15,Jits_Phase_8,1,5,63,98,3325631788
10818,15,Jits_Phase_8,2,5,56,103,3325642280
10818,15,Jits_Phase_8,3,5,80,127,3325741464
10818,15,Jits_Phase_8,0,1,48,42,3326377536
10818,15,Jits_Phase_8,1,5,63,98,3326532220
10818,15,Jits_Phase_8,2,5,80,127,3326561600
10818,15,Jits_Phase_8,3,5,56,103,3326592392
10818,15,Jits_Phase_8,0,1,48,39,3327273292
10818,15,Jits_Phase_8,1,5,80,127,3327352456
10818,15,Jits_Phase_8,2,5,63,98,3327362432
10818,15,Jits_Phase_8,3,5,56,103,3327392312
10818,15,Jits_Phase_8,0,5,80,127,3328051464
10818,15,Jits_Phase_8,1,5,63,98,3328072296
10818,15,Jits_Phase_8,2,5,56,103,3328122200
10818,15,Jits_Phase_8,3,1,48,43,3328123088
10818,15,Jits_Phase_8,0,1,48,40,3328868192
10818,15,Jits_Phase_8,1,5,63,98,3328882164
10818,15,Jits_Phase_8,2,5,80,127,3328941436
10818,15,Jits_Phase_8,3,5,56,103,3328962192
10818,15,Jits_Phase_8,0,1,48,37,3329611624
10818,15,Jits_Phase_8,1,5,63,98,3329641692
10818,15,Jits_Phase_8,2,5,56,103,3329692120
10818,15,Jits_Phase_8,3,5,80,127,3329702388
10818,15,Jits_Phase_8,0,1,48,41,3330397732
10818,15,Jits_Phase_8,1,5,56,103,3330472312
10818,15,Jits_Phase_8,2,5,80,127,3330481388
10818,15,Jits_Phase_8,3,5,63,98,3330581840
10818,15,Jits_Phase_8,0,1,48,35,3331205956
10818,15,Jits_Phase_8,1,5,80,127,3331232288
10818,15,Jits_Phase_8,2,5,63,98,3331242336
10818,15,Jits_Phase_8,3,5,56,103,3331391808
10818,15,Jits_Phase_8,0,1,48,37,3332040044
10818,15,Jits_Phase_8,1,5,63,98,3332042232
10818,15,Jits_Phase_8,2,5,80,127,3332082096
10818,15,Jits_Phase_8,3,5,56,103,3332162196
10818,15,Jits_Phase_8,0,5,56,103,3332791796
10818,15,Jits_Phase_8,1,5,80,127,3332891972
10818,15,Jits_Phase_8,2,1,48,31,3332905500
10818,15,Jits_Phase_8,3,5,63,98,3332911476
10818,15,Jits_Phase_8,0,5,80,127,3333612108
10818,15,Jits_Phase_8,1,1,48,40,3333613672
10818,15,Jits_Phase_8,2,5,56,103,3333622148
10818,15,Jits_Phase_8,3,5,63,98,3333712292
10818,15,Jits_Phase_8,0,1,48,36,3334356404
10818,15,Jits_Phase_8,1,5,56,103,3334411656
10818,15,Jits_Phase_8,2,5,63,98,3334432192
10818,15,Jits_Phase_8,3,5,80,127,3334512140
10818,15,Jits_Phase_8,0,5,63,98,3335162348
10818,15,Jits_Phase_8,1,1,48,39,3335173492
10818,15,Jits_Phase_8,2,5,56,103,3335252280
10818,15,Jits_Phase_8,3,5,80,127,3335255492
10818,15,Jits_Phase_8,0,1,48,33,3335975176
10818,15,Jits_Phase_8,1,5,56,103,3335991636
10818,15,Jits_Phase_8,2,5,80,127,3336052252
10818,15,Jits_Phase_8,3,5,63,98,3336062224
10818,15,Jits_Phase_8,0,1,48,31,3336779372
10818,15,Jits_Phase_8,1,5,80,127,3336841672
10818,15,Jits_Phase_8,2,5,56,103,3336852012
10818,15,Jits_Phase_8,3,5,63,98,3336855080
10818,15,Jits_Phase_8,0,1,48,42,3337556576
10818,15,Jits_Phase_8,1,5,56,103,3337602312
10818,15,Jits_Phase_8,2,5,80,127,3337611684
10818,15,Jits_Phase_8,3,5,63,98,3337632068
10818,15,Jits_Phase_8,0,1,48,42,3338331912
10818,15,Jits_Phase_8,1,5,63,98,3338371496
10818,15,Jits_Phase_8,2,5,80,127,3338431800
10818,15,Jits_Phase_8,3,5,56,103,3338482220
10818,15,Jits_Phase_8,0,1,48,39,3339168448
10818,15,Jits_Phase_8,1,5,63,98,3339252096
10818,15,Jits_Phase_8,2,5,56,103,3339262292
10818,15,Jits_Phase_8,3,5,80,127,3339311604
10818,15,Jits_Phase_8,0,5,63,98,3339951400
10818,15,Jits_Phase_8,1,5,80,127,3339972080
10818,15,Jits_Phase_8,2,5,56,103,3339982128
10818,15,Jits_Phase_8,3,1,48,40,3339994316
10818,15,Jits_Phase_8,0,1,48,47,3340732836
10818,15,Jits_Phase_8,1,5,63,98,3340752188
10818,15,Jits_Phase_8,2,5,80,127,3340755552
10818,15,Jits_Phase_8,3,5,56,103,3340792200
10818,15,Jits_Phase_8,0,1,48,15,3341567776
10818,15,Jits_Phase_8,1,5,63,98,3341621636
10818,15,Jits_Phase_8,2,5,80,127,3341652284
10818,15,Jits_Phase_8,3,5,56,103,3341661432
10818,15,Jits_Phase_8,0,5,56,103,3342372228
10818,15,Jits_Phase_8,1,1,48,42,3342379700
10818,15,Jits_Phase_8,2,5,80,127,3342401848
10818,15,Jits_Phase_8,3,5,63,98,3342431596
10818,15,Jits_Phase_8,0,1,48,34,3343137192
10818,15,Jits_Phase_8,1,5,63,98,3343272244
10818,15,Jits_Phase_8,2,5,56,103,3343312256
10818,15,Jits_Phase_8,3,5,80,127,3343315248
10818,15,Jits_Phase_8,0,1,48,41,3343946640
10818,15,Jits_Phase_8,1,5,80,127,3343971848
10818,15,Jits_Phase_8,2,5,56,103,3344051704
10818,15,Jits_Phase_8,3,5,63,98,3344101904
10818,15,Jits_Phase_8,0,1,48,43,3344709088
10818,15,Jits_Phase_8,1,5,80,127,3344752200
10818,15,Jits_Phase_8,2,5,56,103,3344771392
10818,15,Jits_Phase_8,3,5,63,98,3344861580
10818,15,Jits_Phase_8,0,1,48,47,3345531776
10818,15,Jits_Phase_8,1,5,80,127,3345591516
10818,15,Jits_Phase_8,2,5,63,98,3345632184
10818,15,Jits_Phase_8,3,5,56,103,3345671676
10818,15,Jits_Phase_8,0,1,48,48,3346323144
10818,15,Jits_Phase_8,1,5,63,98,3346401692
10818,15,Jits_Phase_8,2,5,80,127,3346461992
10818,15,Jits_Phase_8,3,5,56,103,3346491916
10818,15,Jits_Phase_8,0,1,48,36,3347123720
10818,15,Jits_Phase_8,1,5,56,103,3347242260
10818,15,Jits_Phase_8,2,5,80,127,3347272112
10818,15,Jits_Phase_8,3,5,63,98,3347362092
10818,15,Jits_Phase_8,0,1,48,39,3348018200
10818,15,Jits_Phase_8,1,5,56,103,3348052396
10818,15,Jits_Phase_8,2,5,80,127,3348161996
10818,15,Jits_Phase_8,3,5,63,98,3348191744
10818,15,Jits_Phase_8,0,1,48,40,3348840300
10818,15,Jits_Phase_8,1,5,56,103,3348902136
10818,15,Jits_Phase_8,2,5,63,98,3348961612
10818,15,Jits_Phase_8,3,5,80,127,3348992332
10818,15,Jits_Phase_8,0,5,56,103,3349672312
10818,15,Jits_Phase_8,1,1,48,47,3349728992
10818,15,Jits_Phase_8,2,5,63,98,3349742136
10818,15,Jits_Phase_8,3,5,80,127,3349762372
10818,15,Jits_Phase_8,0,5,80,127,3350442344
10818,15,Jits_Phase_8,1,5,63,98,3350461908
10818,15,Jits_Phase_8,2,5,56,103,3350512180
10818,15,Jits_Phase_8,3,1,48,39,3350518068
10818,15,Jits_Phase_8,0,5,63,98,3351261520
10818,15,Jits_Phase_8,1,5,80,127,3351272012
10818,15,Jits_Phase_8,2,1,48,47,3351313192
10818,15,Jits_Phase_8,3,5,56,103,3351322132
10818,15,Jits_Phase_8,0,5,63,98,3352062324
10818,15,Jits_Phase_8,1,1,48,37,3352128920
10818,15,Jits_Phase_8,2,5,80,127,3352132100
10818,15,Jits_Phase_8,3,5,56,103,3352152408
10818,15,Jits_Phase_8,0,1,48,39,3352874636
10818,15,Jits_Phase_8,1,5,63,98,3352891996
10818,15,Jits_Phase_8,2,5,80,127,3352895136
10818,15,Jits_Phase_8,3,5,56,103,3352962352
10818,15,Jits_Phase_8,0,5,80,127,3353642284
10818,15,Jits_Phase_8,1,5,56,103,3353662016
10818,15,Jits_Phase_8,2,5,63,98,3353671992
10818,15,Jits_Phase_8,3,1,48,24,3353714064
10818,15,Jits_Phase_8,0,5,56,103,3354461480
10818,15,Jits_Phase_8,1,1,48,32,3354469848
10818,15,Jits_Phase_8,2,5,63,98,3354551604
10818,15,Jits_Phase_8,3,5,80,127,3354554892
10818,15,Jits_Phase_8,0,5,80,127,3355231724
10818,15,Jits_Phase_8,1,5,56,103,3355242068
10818,15,Jits_Phase_8,2,5,63,98,3355262304
10818,15,Jits_Phase_8,3,1,48,26,3355267888
10818,15,Jits_Phase_8,0,5,63,98,3356032312
10818,15,Jits_Phase_8,1,1,48,45,3356043304
10818,15,Jits_Phase_8,2,5,80,127,3356091872
10818,15,Jits_Phase_8,3,5,56,103,3356102140
10818,15,Jits_Phase_8,0,1,48,38,3356836072
10818,15,Jits_Phase_8,1,5,63,98,3356901884
10818,15,Jits_Phase_8,2,5,80,127,3356931336
10818,15,Jits_Phase_8,3,5,56,103,3356972380
10818,15,Jits_Phase_8,0,1,48,44,3357638900
10818,15,Jits_Phase_8,1,5,56,103,3357692128
10818,15,Jits_Phase_8,2,5,80,127,3357701652
10818,15,Jits_Phase_8,3,5,63,98,3357741500
10818,15,Jits_Phase_8,0,1,48,49,3358415632
10818,15,Jits_Phase_8,1,5,80,127,3358452076
10818,15,Jits_Phase_8,2,5,56,103,3358531860
10818,15,Jits_Phase_8,3,5,63,98,3358542056
10818,15,Jits_Phase_8,0,1,48,41,3359227280
10818,15,Jits_Phase_8,1,5,80,127,3359302032
10818,15,Jits_Phase_8,2,5,56,103,3359382036
10818,15,Jits_Phase_8,3,5,63,98,3359392084
10818,15,Jits_Phase_8,0,1,48,46,3360094576
10818,15,Jits_Phase_8,1,5,80,127,3360141880
10818,15,Jits_Phase_8,2,5,56,103,3360191860
10818,15,Jits_Phase_8,3,5,63,98,3360241972
10818,15,Jits_Phase_8,0,1,48,39,3360889072
10818,15,Jits_Phase_8,1,5,56,103,3361081960
10818,15,Jits_Phase_8,2,5,63,98,3361084952
10818,15,Jits_Phase_8,3,5,80,127,3361131864
10818,15,Jits_Phase_8,0,1,48,37,3361856604
10818,15,Jits_Phase_8,1,5,56,103,3361901960
10818,15,Jits_Phase_8,2,5,63,98,3361931784
10818,15,Jits_Phase_8,3,5,80,127,3361941904
10818,15,Jits_Phase_8,0,5,63,98,3362611672
10818,15,Jits_Phase_8,1,5,56,103,3362682176
10818,15,Jits_Phase_8,2,1,48,40,3362683664
10818,15,Jits_Phase_8,3,5,80,127,3362732296
10818,15,Jits_Phase_8,0,5,63,98,3363441924
10818,15,Jits_Phase_8,1,1,48,38,3363449228
10818,15,Jits_Phase_8,2,5,56,103,3363452332
10818,15,Jits_Phase_8,3,5,80,127,3363455472
10818,15,Jits_Phase_8,0,5,80,127,3364191540
10818,15,Jits_Phase_8,1,1,48,47,3364215860
10818,15,Jits_Phase_8,2,5,56,103,3364252224
10818,15,Jits_Phase_8,3,5,63,98,3364342116
10818,15,Jits_Phase_8,0,5,80,127,3364992284
10818,15,Jits_Phase_8,1,1,48,39,3365072424
10818,15,Jits_Phase_8,2,5,56,103,3365091928
10818,15,Jits_Phase_8,3,5,63,98,3365131716
10818,15,Jits_Phase_8,0,5,56,103,3365842404
10818,15,Jits_Phase_8,1,5,63,98,3365861820
10818,15,Jits_Phase_8,2,1,48,41,3365879240
10818,15,Jits_Phase_8,3,5,80,127,3365901896
10818,15,Jits_Phase_8,0,5,63,98,3366612284
10818,15,Jits_Phase_8,1,5,56,103,3366631696
10818,15,Jits_Phase_8,2,1,48,38,3366670784
10818,15,Jits_Phase_8,3,5,80,127,3366732108
10818,15,Jits_Phase_8,0,1,48,42,3367383164
10818,15,Jits_Phase_8,1,5,63,98,3367401844
10818,15,Jits_Phase_8,2,5,80,127,3367512440
10818,15,Jits_Phase_8,3,5,56,103,3367542264
10818,15,Jits_Phase_8,0,1,48,44,3368114440
10818,15,Jits_Phase_8,1,5,56,103,3368221968
10818,15,Jits_Phase_8,2,5,63,98,3368251668
10818,15,Jits_Phase_8,3,5,80,127,3368301940
10818,15,Jits_Phase_8,0,1,48,33,3368889628
10818,15,Jits_Phase_8,1,5,63,98,3368991976
10818,15,Jits_Phase_8,2,5,56,103,3369021976
10818,15,Jits_Phase_8,3,5,80,127,3369071880
10818,15,Jits_Phase_8,0,1,48,40,3369701440
10818,15,Jits_Phase_8,1,5,56,103,3369821572
10818,15,Jits_Phase_8,2,5,63,98,3369842180
10818,15,Jits_Phase_8,3,5,80,127,3369921896
10818,15,Jits_Phase_8,0,5,63,98,3370591900
10818,15,Jits_Phase_8,1,1,48,40,3370597788
10818,15,Jits_Phase_8,2,5,56,103,3370651912
10818,15,Jits_Phase_8,3,5,80,127,3370681660
10818,15,Jits_Phase_8,0,1,48,40,3371403312
10818,15,Jits_Phase_8,1,5,56,103,3371432256
10818,15,Jits_Phase_8,2,5,80,127,3371491600
10818,15,Jits_Phase_8,3,5,63,98,3371531820
10818,15,Jits_Phase_8,0,5,63,98,3372211496
10818,15,Jits_Phase_8,1,1,48,27,3372235736
10818,15,Jits_Phase_8,2,5,56,103,3372271884
10818,15,Jits_Phase_8,3,5,80,127,3372341796
10818,15,Jits_Phase_8,0,1,48,28,3373002528
10818,15,Jits_Phase_8,1,5,56,103,3373092088
10818,15,Jits_Phase_8,2,5,63,98,3373101632
10818,15,Jits_Phase_8,3,5,80,127,3373105728
10818,15,Jits_Phase_8,0,1,48,31,3373813220
10818,15,Jits_Phase_8,1,5,63,98,3373831604
10818,15,Jits_Phase_8,2,5,56,103,3373891944
10818,15,Jits_Phase_8,3,5,80,127,3373895008
10818,15,Jits_Phase_8,0,5,63,98,3374611880
10818,15,Jits_Phase_8,1,1,48,38,3374627204
10818,15,Jits_Phase_8,2,5,80,127,3374641644
10818,15,Jits_Phase_8,3,5,56,103,3374661956
10818,15,Jits_Phase_8,0,5,56,103,3375341880
10818,15,Jits_Phase_8,1,5,63,98,3375392232
10818,15,Jits_Phase_8,2,5,80,127,3375472048
10818,15,Jits_Phase_8,3,1,48,43,3375477260
10818,15,Jits_Phase_8,0,5,80,127,3376042244
10818,15,Jits_Phase_8,1,5,63,98,3376082408
10818,15,Jits_Phase_8,2,5,56,103,3376101820
10818,15,Jits_Phase_8,3,1,48,33,3376193508
10818,15,Jits_Phase_8,0,1,48,40,3376737532
10818,15,Jits_Phase_8,1,5,56,103,3376911816
10818,15,Jits_Phase_8,2,5,80,127,3376922088
10818,15,Jits_Phase_8,3,5,63,98,3376941448
10818,15,Jits_Phase_8,0,5,56,103,3377692044
10818,15,Jits_Phase_8,1,5,63,98,3377742124
10818,15,Jits_Phase_8,2,1,48,37,3377752440
10818,15,Jits_Phase_8,3,5,80,127,3377771792
10818,15,Jits_Phase_8,0,5,56,103,3378441696
10818,15,Jits_Phase_8,1,5,63,98,3378451968
10818,15,Jits_Phase_8,2,5,80,127,3378502116
10818,15,Jits_Phase_8,3,1,48,43,3378581580
10818,15,Jits_Phase_8,0,5,56,103,3379232168
10818,15,Jits_Phase_8,1,5,80,127,3379235232
10818,15,Jits_Phase_8,2,1,48,40,3379325804
10818,15,Jits_Phase_8,3,5,63,98,3379391836
10818,15,Jits_Phase_8,0,5,63,98,3380052328
10818,15,Jits_Phase_8,1,5,56,103,3380121936
10818,15,Jits_Phase_8,2,1,48,43,3380132476
10818,15,Jits_Phase_8,3,5,80,127,3380161868
10818,15,Jits_Phase_8,0,1,48,44,3380847776
10818,15,Jits_Phase_8,1,5,63,98,3380892088
10818,15,Jits_Phase_8,2,5,56,103,3380982204
10818,15,Jits_Phase_8,3,5,80,127,3380985192
10818,15,Jits_Phase_8,0,5,56,103,3381672364
10818,15,Jits_Phase_8,1,1,48,43,3381682456
10818,15,Jits_Phase_8,2,5,63,98,3381762568
10818,15,Jits_Phase_8,3,5,80,127,3381771568
10818,15,Jits_Phase_8,0,5,56,103,3382442320
10818,15,Jits_Phase_8,1,1,48,46,3382489280
10818,15,Jits_Phase_8,2,5,63,98,3382491692
10818,15,Jits_Phase_8,3,5,80,127,3382522192
10818,15,Jits_Phase_8,0,1,48,48,3383233364
10818,15,Jits_Phase_8,1,5,63,98,3383322024
10818,15,Jits_Phase_8,2,5,80,127,3383332652
10818,15,Jits_Phase_8,3,5,56,103,3383391720
10818,15,Jits_Phase_8,0,5,63,98,3384041852
10818,15,Jits_Phase_8,1,1,48,46,3384084828
10818,15,Jits_Phase_8,2,5,80,127,3384102384
10818,15,Jits_Phase_8,3,5,56,103,3384142272
10818,15,Jits_Phase_8,0,1,48,38,3384822764
10818,15,Jits_Phase_8,1,5,56,103,3384941928
10818,15,Jits_Phase_8,2,5,80,127,3384962612
10818,15,Jits_Phase_8,3,5,63,98,3384981800
10818,15,Jits_Phase_8,0,1,48,40,3385660792
10818,15,Jits_Phase_8,1,5,63,98,3385662212
10818,15,Jits_Phase_8,2,5,56,103,3385682228
10818,15,Jits_Phase_8,3,5,80,127,3385722092
10818,15,Jits_Phase_8,0,1,48,42,3386406768
10818,15,Jits_Phase_8,1,5,63,98,3386471788
10818,15,Jits_Phase_8,2,5,80,127,3386502644
10818,15,Jits_Phase_8,3,5,56,103,3386522052
10818,15,Jits_Phase_8,0,1,48,37,3387193744
10818,15,Jits_Phase_8,1,5,80,127,3387241796
10818,15,Jits_Phase_8,2,5,56,103,3387291924
10818,15,Jits_Phase_8,3,5,63,98,3387352524
10818,15,Jits_Phase_8,0,1,48,43,3387999184
10818,15,Jits_Phase_8,1,5,63,98,3388032560
10818,15,Jits_Phase_8,2,5,56,103,3388152200
10818,15,Jits_Phase_8,3,5,80,127,3388181872
10818,15,Jits_Phase_8,0,1,48,38,3388868928
10818,15,Jits_Phase_8,1,5,80,127,3388872328
10818,15,Jits_Phase_8,2,5,63,98,3388891520
10818,15,Jits_Phase_8,3,5,56,103,3388962024
10818,15,Jits_Phase_8,0,1,48,42,3389684348
10818,15,Jits_Phase_8,1,5,63,98,3389692392
10818,15,Jits_Phase_8,2,5,56,103,3389701468
10818,15,Jits_Phase_8,3,5,80,127,3389782616
10818,15,Jits_Phase_8,0,1,48,39,3390448816
10818,15,Jits_Phase_8,1,5,56,103,3390552400
10818,15,Jits_Phase_8,2,5,80,127,3390582076
10818,15,Jits_Phase_8,3,5,63,98,3390592644
10818,15,Jits_Phase_8,0,9999,9999,9999,3255709780
10818,15,Jits_Phase_8,1,9999,9999,9999,3256509544
10818,15,Jits_Phase_8,2,9999,9999,9999,3257309264
10818,15,Jits_Phase_8,3,9999,9999,9999,3258110012
10818,15,Jits_Phase_8,4,9999,9999,9999,3258909780
10818,15,Jits_Phase_8,5,9999,9999,9999,3259709568
10818,15,Jits_Phase_8,6,9999,9999,9999,3260509252
10818,15,Jits_Phase_8,7,9999,9999,9999,3261310072
10818,15,Jits_Phase_8,8,9999,9999,9999,3262109764
10818,15,Jits_Phase_8,9,9999,9999,9999,3262909512
10818,15,Jits_Phase_8,10,9999,9999,9999,3263709292
10818,15,Jits_Phase_8,11,9999,9999,9999,3264510024
10818,15,Jits_Phase_8,12,9999,9999,9999,3265309788
10818,15,Jits_Phase_8,13,9999,9999,9999,3266109504
10818,15,Jits_Phase_8,14,9999,9999,9999,3266909252
10818,15,Jits_Phase_8,15,9999,9999,9999,3267710064
10818,15,Jits_Phase_8,16,9999,9999,9999,3268509808
10818,15,Jits_Phase_8,17,9999,9999,9999,3269309512
10818,15,Jits_Phase_8,18,9999,9999,9999,3270109276
10818,15,Jits_Phase_8,19,9999,9999,9999,3270910008
10818,15,Jits_Phase_8,20,9999,9999,9999,3271709768
10818,15,Jits_Phase_8,21,9999,9999,9999,3272509548
10818,15,Jits_Phase_8,22,9999,9999,9999,3273309240
10818,15,Jits_Phase_8,23,9999,9999,9999,3274110044
10818,15,Jits_Phase_8,24,9999,9999,9999,3274909800
10818,15,Jits_Phase_8,25,9999,9999,9999,3275709560
10818,15,Jits_Phase_8,26,9999,9999,9999,3276509260
10818,15,Jits_Phase_8,27,9999,9999,9999,3277310068
10818,15,Jits_Phase_8,28,9999,9999,9999,3278109760
10818,15,Jits_Phase_8,29,9999,9999,9999,3278909548
10818,15,Jits_Phase_8,30,9999,9999,9999,3279689820
10818,15,Jits_Phase_8,31,9999,9999,9999,3280489580
10818,15,Jits_Phase_8,32,9999,9999,9999,3281289276
10818,15,Jits_Phase_8,33,9999,9999,9999,3282090088
10818,15,Jits_Phase_8,34,9999,9999,9999,3282889788
10818,15,Jits_Phase_8,35,9999,9999,9999,3283689556
10818,15,Jits_Phase_8,36,9999,9999,9999,3284489320
10818,15,Jits_Phase_8,37,9999,9999,9999,3285290064
10818,15,Jits_Phase_8,38,9999,9999,9999,3286089848
10818,15,Jits_Phase_8,39,9999,9999,9999,3286889548
10818,15,Jits_Phase_8,40,9999,9999,9999,3287689308
10818,15,Jits_Phase_8,41,9999,9999,9999,3288490052
10818,15,Jits_Phase_8,42,9999,9999,9999,3289289808
10818,15,Jits_Phase_8,43,9999,9999,9999,3290089568
10818,15,Jits_Phase_8,44,9999,9999,9999,3290889308
10818,15,Jits_Phase_8,45,9999,9999,9999,3291690044
10818,15,Jits_Phase_8,46,9999,9999,9999,3292489836
10818,15,Jits_Phase_8,47,9999,9999,9999,3293289528
10818,15,Jits_Phase_8,48,9999,9999,9999,3294109752
10818,15,Jits_Phase_8,49,9999,9999,9999,3294909524
10818,15,Jits_Phase_8,50,9999,9999,9999,3295709280
10818,15,Jits_Phase_8,51,9999,9999,9999,3296510008
10818,15,Jits_Phase_8,52,9999,9999,9999,3297309768
10818,15,Jits_Phase_8,53,9999,9999,9999,3298109556
10818,15,Jits_Phase_8,54,9999,9999,9999,3298909308
10818,15,Jits_Phase_8,55,9999,9999,9999,3299710052
10818,15,Jits_Phase_8,56,9999,9999,9999,3300509808
10818,15,Jits_Phase_8,57,9999,9999,9999,3301309540
10818,15,Jits_Phase_8,58,9999,9999,9999,3302109300
10818,15,Jits_Phase_8,59,9999,9999,9999,3302910028
10818,15,Jits_Phase_8,60,9999,9999,9999,3303709784
10818,15,Jits_Phase_8,61,9999,9999,9999,3304509508
10818,15,Jits_Phase_8,62,9999,9999,9999,3305309280
10818,15,Jits_Phase_8,63,9999,9999,9999,3306110076
10818,15,Jits_Phase_8,64,9999,9999,9999,3306949712
10818,15,Jits_Phase_8,65,9999,9999,9999,3307749476
10818,15,Jits_Phase_8,66,9999,9999,9999,3308549176
10818,15,Jits_Phase_8,67,9999,9999,9999,3309349988
10818,15,Jits_Phase_8,68,9999,9999,9999,3310149688
10818,15,Jits_Phase_8,69,9999,9999,9999,3310949460
10818,15,Jits_Phase_8,70,9999,9999,9999,3311749228
10818,15,Jits_Phase_8,71,9999,9999,9999,3312549968
10818,15,Jits_Phase_8,72,9999,9999,9999,3313349724
10818,15,Jits_Phase_8,73,9999,9999,9999,3314149472
10818,15,Jits_Phase_8,74,9999,9999,9999,3314949180
10818,15,Jits_Phase_8,75,9999,9999,9999,3315749988
10818,15,Jits_Phase_8,76,9999,9999,9999,3316549700
10818,15,Jits_Phase_8,77,9999,9999,9999,3317349472
10818,15,Jits_Phase_8,78,9999,9999,9999,3318149236
10818,15,Jits_Phase_8,79,9999,9999,9999,3318949972
10818,15,Jits_Phase_8,80,9999,9999,9999,3319749728
10818,15,Jits_Phase_8,81,9999,9999,9999,3320509556
10818,15,Jits_Phase_8,82,9999,9999,9999,3321309240
10818,15,Jits_Phase_8,83,9999,9999,9999,3322110040
10818,15,Jits_Phase_8,84,9999,9999,9999,3322909796
10818,15,Jits_Phase_8,85,9999,9999,9999,3323709508
10818,15,Jits_Phase_8,86,9999,9999,9999,3324509264
10818,15,Jits_Phase_8,87,9999,9999,9999,3325310068
10818,15,Jits_Phase_8,88,9999,9999,9999,3326109796
10818,15,Jits_Phase_8,89,9999,9999,9999,3326909564
10818,15,Jits_Phase_8,90,9999,9999,9999,3327709260
10818,15,Jits_Phase_8,91,9999,9999,9999,3328510060
10818,15,Jits_Phase_8,92,9999,9999,9999,3329309760
10818,15,Jits_Phase_8,93,9999,9999,9999,3330109536
10818,15,Jits_Phase_8,94,9999,9999,9999,3330909296
10818,15,Jits_Phase_8,95,9999,9999,9999,3331710024
10818,15,Jits_Phase_8,96,9999,9999,9999,3332509780
10818,15,Jits_Phase_8,97,9999,9999,9999,3333229676
10818,15,Jits_Phase_8,98,9999,9999,9999,3334029384
10818,15,Jits_Phase_8,99,9999,9999,9999,3334829164
10818,15,Jits_Phase_8,100,9999,9999,9999,3335629884
10818,15,Jits_Phase_8,101,9999,9999,9999,3336429644
10818,15,Jits_Phase_8,102,9999,9999,9999,3337229396
10818,15,Jits_Phase_8,103,9999,9999,9999,3338029152
10818,15,Jits_Phase_8,104,9999,9999,9999,3338829904
10818,15,Jits_Phase_8,105,9999,9999,9999,3339629672
10818,15,Jits_Phase_8,106,9999,9999,9999,3340429424
10818,15,Jits_Phase_8,107,9999,9999,9999,3341229164
10818,15,Jits_Phase_8,108,9999,9999,9999,3342029896
10818,15,Jits_Phase_8,109,9999,9999,9999,3342829652
10818,15,Jits_Phase_8,110,9999,9999,9999,3343629424
10818,15,Jits_Phase_8,111,9999,9999,9999,3344429112
10818,15,Jits_Phase_8,112,9999,9999,9999,3345229936
10818,15,Jits_Phase_8,113,9999,9999,9999,3346029620
10818,15,Jits_Phase_8,114,9999,9999,9999,3346909240
10818,15,Jits_Phase_8,115,9999,9999,9999,3347710048
10818,15,Jits_Phase_8,116,9999,9999,9999,3348509812
10818,15,Jits_Phase_8,117,9999,9999,9999,3349309528
10818,15,Jits_Phase_8,118,9999,9999,9999,3350109292
10818,15,Jits_Phase_8,119,9999,9999,9999,3350910032
10818,15,Jits_Phase_8,120,9999,9999,9999,3351709800
10818,15,Jits_Phase_8,121,9999,9999,9999,3352509564
10818,15,Jits_Phase_8,122,9999,9999,9999,3353309244
10818,15,Jits_Phase_8,123,9999,9999,9999,3354110040
10818,15,Jits_Phase_8,124,9999,9999,9999,3354909808
10818,15,Jits_Phase_8,125,9999,9999,9999,3355709520
10818,15,Jits_Phase_8,126,9999,9999,9999,3356509288
10818,15,Jits_Phase_8,127,9999,9999,9999,3357310024
10818,15,Jits_Phase_8,128,9999,9999,9999,3358109756
10818,15,Jits_Phase_8,129,9999,9999,9999,3358909564
10818,15,Jits_Phase_8,130,9999,9999,9999,3359709252
10818,15,Jits_Phase_8,131,9999,9999,9999,3360669808
10818,15,Jits_Phase_8,132,9999,9999,9999,3361469560
10818,15,Jits_Phase_8,133,9999,9999,9999,3362269248
10818,15,Jits_Phase_8,134,9999,9999,9999,3363070052
10818,15,Jits_Phase_8,135,9999,9999,9999,3363869792
10818,15,Jits_Phase_8,136,9999,9999,9999,3364669500
10818,15,Jits_Phase_8,137,9999,9999,9999,3365469272
10818,15,Jits_Phase_8,138,9999,9999,9999,3366270016
10818,15,Jits_Phase_8,139,9999,9999,9999,3367069788
10818,15,Jits_Phase_8,140,9999,9999,9999,3367869548
10818,15,Jits_Phase_8,141,9999,9999,9999,3368669300
10818,15,Jits_Phase_8,142,9999,9999,9999,3369470024
10818,15,Jits_Phase_8,143,9999,9999,9999,3370269780
10818,15,Jits_Phase_8,144,9999,9999,9999,3371069556
10818,15,Jits_Phase_8,145,9999,9999,9999,3371869244
10818,15,Jits_Phase_8,146,9999,9999,9999,3372670048
10818,15,Jits_Phase_8,147,9999,9999,9999,3373469800
10818,15,Jits_Phase_8,148,9999,9999,9999,3374269552
10818,15,Jits_Phase_8,149,9999,9999,9999,3375069304
10818,15,Jits_Phase_8,150,9999,9999,9999,3375709268
10818,15,Jits_Phase_8,151,9999,9999,9999,3376510008
10818,15,Jits_Phase_8,152,9999,9999,9999,3377309780
10818,15,Jits_Phase_8,153,9999,9999,9999,3378109544
10818,15,Jits_Phase_8,154,9999,9999,9999,3378909308
10818,15,Jits_Phase_8,155,9999,9999,9999,3379710040
10818,15,Jits_Phase_8,156,9999,9999,9999,3380509808
10818,15,Jits_Phase_8,157,9999,9999,9999,3381309508
10818,15,Jits_Phase_8,158,9999,9999,9999,3382109268
10818,15,Jits_Phase_8,159,9999,9999,9999,3382910012
10818,15,Jits_Phase_8,160,9999,9999,9999,3383709788
10818,15,Jits_Phase_8,161,9999,9999,9999,3384509540
10818,15,Jits_Phase_8,162,9999,9999,9999,3385309308
10818,15,Jits_Phase_8,163,9999,9999,9999,3386110032
10818,15,Jits_Phase_8,164,9999,9999,9999,3386909788
10818,15,Jits_Phase_8,165,9999,9999,9999,3387709496
10818,15,Jits_Phase_8,166,9999,9999,9999,3388509256
10818,15,Jits_Phase_8,167,9999,9999,9999,3389310064
10818,15,Jits_Phase_8,168,9999,9999,9999,3390109748
10818,15,Jits_Phase_8,169,9999,9999,9999,3390909516
10819,17,Jits_Phase_5,0,5,56,103,3399200168
10819,17,Jits_Phase_5,1,5,63,98,3399203188
10819,17,Jits_Phase_5,2,5,80,127,3399206388
10819,17,Jits_Phase_5,0,5,56,103,3399699800
10819,17,Jits_Phase_5,1,5,63,98,3399702824
10819,17,Jits_Phase_5,2,5,80,127,3399706020
10819,17,Jits_Phase_5,0,5,56,103,3400199676
10819,17,Jits_Phase_5,1,1,48,54,3400200568
10819,17,Jits_Phase_5,2,5,80,127,3400209864
10819,17,Jits_Phase_5,3,5,63,98,3400230472
10819,17,Jits_Phase_5,0,5,63,98,3400660332
10819,17,Jits_Phase_5,1,5,80,127,3400690008
10819,17,Jits_Phase_5,2,5,56,103,3400700280
10819,17,Jits_Phase_5,3,1,48,55,3400706392
10819,17,Jits_Phase_5,0,1,48,54,3401207608
10819,17,Jits_Phase_5,1,5,80,127,3401219560
10819,17,Jits_Phase_5,2,5,56,103,3401229608
10819,17,Jits_Phase_5,3,5,63,98,3401260352
10819,17,Jits_Phase_5,0,5,63,98,3401709956
10819,17,Jits_Phase_5,1,1,48,54,3401736296
10819,17,Jits_Phase_5,2,5,56,103,3401739552
10819,17,Jits_Phase_5,3,5,80,127,3401749748
10819,17,Jits_Phase_5,0,5,56,103,3402159440
10819,17,Jits_Phase_5,1,5,63,98,3402209716
10819,17,Jits_Phase_5,2,5,80,127,3402230324
10819,17,Jits_Phase_5,3,1,48,52,3402257484
10819,17,Jits_Phase_5,0,5,80,127,3402660472
10819,17,Jits_Phase_5,1,5,63,98,3402710376
10819,17,Jits_Phase_5,2,1,48,50,3402744136
10819,17,Jits_Phase_5,3,5,56,103,3402750604
10819,17,Jits_Phase_5,0,5,56,103,3403159864
10819,17,Jits_Phase_5,1,5,63,98,3403189616
10819,17,Jits_Phase_5,2,1,48,51,3403234156
10819,17,Jits_Phase_5,3,5,80,127,3403260260
10819,17,Jits_Phase_5,0,5,56,103,3403659708
10819,17,Jits_Phase_5,1,5,80,127,3403720024
10819,17,Jits_Phase_5,2,1,48,51,3403744936
10819,17,Jits_Phase_5,3,5,63,98,3403749764
10819,17,Jits_Phase_5,0,5,56,103,3404169588
10819,17,Jits_Phase_5,1,5,63,98,3404179784
10819,17,Jits_Phase_5,2,1,48,51,3404200732
10819,17,Jits_Phase_5,3,5,80,127,3404219712
10819,17,Jits_Phase_5,0,5,63,98,3404660132
10819,17,Jits_Phase_5,1,1,48,50,3404693816
10819,17,Jits_Phase_5,2,5,80,127,3404739920
10819,17,Jits_Phase_5,3,5,56,103,3404750488
10819,17,Jits_Phase_5,0,5,63,98,3405210080
10819,17,Jits_Phase_5,1,1,48,47,3405238308
10819,17,Jits_Phase_5,2,5,56,103,3405249860
10819,17,Jits_Phase_5,3,5,80,127,3405253224
10819,17,Jits_Phase_5,0,5,56,103,3405669892
10819,17,Jits_Phase_5,1,5,63,98,3405680088
10819,17,Jits_Phase_5,2,5,80,127,3405719876
10819,17,Jits_Phase_5,3,1,48,41,3405744564
10819,17,Jits_Phase_5,0,5,56,103,3406160212
10819,17,Jits_Phase_5,1,5,63,98,3406163276
10819,17,Jits_Phase_5,2,5,80,127,3406179624
10819,17,Jits_Phase_5,3,1,48,47,3406244388
10819,17,Jits_Phase_5,0,5,80,127,3406670296
10819,17,Jits_Phase_5,1,5,56,103,3406680420
10819,17,Jits_Phase_5,2,1,48,42,3406723616
10819,17,Jits_Phase_5,3,5,63,98,3406750388
10819,17,Jits_Phase_5,0,5,63,98,3407159648
10819,17,Jits_Phase_5,1,5,56,103,3407180332
10819,17,Jits_Phase_5,2,1,48,47,3407217920
10819,17,Jits_Phase_5,3,5,80,127,3407260264
10819,17,Jits_Phase_5,0,5,56,103,3407669736
10819,17,Jits_Phase_5,1,5,80,127,3407709528
10819,17,Jits_Phase_5,2,1,48,46,3407711012
10819,17,Jits_Phase_5,3,5,63,98,3407719864
10819,17,Jits_Phase_5,0,5,80,127,3408170376
10819,17,Jits_Phase_5,1,5,63,98,3408200224
10819,17,Jits_Phase_5,2,1,48,43,3408234508
10819,17,Jits_Phase_5,3,5,56,103,3408239856
10819,17,Jits_Phase_5,0,5,56,103,3408689564
10819,17,Jits_Phase_5,1,5,63,98,3408720288
10819,17,Jits_Phase_5,2,1,48,45,3408748664
10819,17,Jits_Phase_5,3,5,80,127,3408770480
10819,17,Jits_Phase_5,0,5,80,127,3409190424
10819,17,Jits_Phase_5,1,1,48,46,3409203312
10819,17,Jits_Phase_5,2,5,56,103,3409230236
10819,17,Jits_Phase_5,3,5,63,98,3409240356
10819,17,Jits_Phase_5,0,5,80,127,3409669512
10819,17,Jits_Phase_5,1,5,63,98,3409709328
10819,17,Jits_Phase_5,2,1,48,48,3409740240
10819,17,Jits_Phase_5,3,5,56,103,3409769780
10819,17,Jits_Phase_5,0,5,56,103,3410170324
10819,17,Jits_Phase_5,1,5,80,127,3410179400
10819,17,Jits_Phase_5,2,1,48,48,3410184536
10819,17,Jits_Phase_5,3,5,63,98,3410260404
10819,17,Jits_Phase_5,0,5,80,127,3410669928
10819,17,Jits_Phase_5,1,5,63,98,3410730320
10819,17,Jits_Phase_5,2,1,48,47,3410752488
10819,17,Jits_Phase_5,3,5,56,103,3410760232
10819,17,Jits_Phase_5,0,5,56,103,3411169616
10819,17,Jits_Phase_5,1,5,80,127,3411230232
10819,17,Jits_Phase_5,2,1,48,46,3411254500
10819,17,Jits_Phase_5,3,5,63,98,3411270260
10819,17,Jits_Phase_5,0,5,56,103,3411719652
10819,17,Jits_Phase_5,1,5,63,98,3411729772
10819,17,Jits_Phase_5,2,5,80,127,3411733284
10819,17,Jits_Phase_5,3,1,48,46,3411788284
10819,17,Jits_Phase_5,0,5,80,127,3412180448
10819,17,Jits_Phase_5,1,5,63,98,3412269412
10819,17,Jits_Phase_5,2,5,56,103,3412279680
10819,17,Jits_Phase_5,3,1,48,47,3412286988
10819,17,Jits_Phase_5,0,5,56,103,3412680124
10819,17,Jits_Phase_5,1,5,63,98,3412683224
10819,17,Jits_Phase_5,2,5,80,127,3412686192
10819,17,Jits_Phase_5,3,1,48,45,3412761692
10819,17,Jits_Phase_5,0,5,80,127,3413200404
10819,17,Jits_Phase_5,1,1,48,48,3413226440
10819,17,Jits_Phase_5,2,5,63,98,3413250376
10819,17,Jits_Phase_5,3,5,56,103,3413280052
10819,17,Jits_Phase_5,0,5,56,103,3413679492
10819,17,Jits_Phase_5,1,5,80,127,3413689912
10819,17,Jits_Phase_5,2,1,48,43,3413722328
10819,17,Jits_Phase_5,3,5,63,98,3413760408
10819,17,Jits_Phase_5,0,5,56,103,3414189372
10819,17,Jits_Phase_5,1,5,63,98,3414209832
10819,17,Jits_Phase_5,2,1,48,38,3414225984
10819,17,Jits_Phase_5,3,5,80,127,3414270436
10819,17,Jits_Phase_5,0,5,80,127,3414669808
10819,17,Jits_Phase_5,1,5,63,98,3414740312
10819,17,Jits_Phase_5,2,5,56,103,3414759724
10819,17,Jits_Phase_5,3,1,48,43,3414767104
10819,17,Jits_Phase_5,0,5,80,127,3415189948
10819,17,Jits_Phase_5,1,5,56,103,3415200368
10819,17,Jits_Phase_5,2,5,63,98,3415210268
10819,17,Jits_Phase_5,3,1,48,48,3415275404
10819,17,Jits_Phase_5,0,5,80,127,3415680348
10819,17,Jits_Phase_5,1,5,56,103,3415699832
10819,17,Jits_Phase_5,2,1,48,42,3415713436
10819,17,Jits_Phase_5,3,5,63,98,3415769356
10819,17,Jits_Phase_5,0,5,56,103,3416190448
10819,17,Jits_Phase_5,1,5,80,127,3416220196
10819,17,Jits_Phase_5,2,1,48,44,3416227428
10819,17,Jits_Phase_5,3,5,63,98,3416239380
10819,17,Jits_Phase_5,0,5,63,98,3416679652
10819,17,Jits_Phase_5,1,1,48,48,3416732436
10819,17,Jits_Phase_5,2,5,56,103,3416740332
10819,17,Jits_Phase_5,3,5,80,127,3416769856
10819,17,Jits_Phase_5,0,5,63,98,3417170176
10819,17,Jits_Phase_5,1,5,80,127,3417173396
10819,17,Jits_Phase_5,2,1,48,40,3417233828
10819,17,Jits_Phase_5,3,5,56,103,3417260376
10819,17,Jits_Phase_5,0,5,56,103,3417689328
10819,17,Jits_Phase_5,1,5,63,98,3417720496
10819,17,Jits_Phase_5,2,1,48,44,3417751112
10819,17,Jits_Phase_5,3,5,80,127,3417760276
10819,17,Jits_Phase_5,0,5,63,98,3418190212
10819,17,Jits_Phase_5,1,5,56,103,3418230076
10819,17,Jits_Phase_5,2,1,48,49,3418235364
10819,17,Jits_Phase_5,3,5,80,127,3418249556
10819,17,Jits_Phase_5,0,5,63,98,3418700300
10819,17,Jits_Phase_5,1,5,56,103,3418740092
10819,17,Jits_Phase_5,2,5,80,127,3418750360
10819,17,Jits_Phase_5,3,1,48,47,3418753032
10819,17,Jits_Phase_5,0,5,80,127,3419180424
10819,17,Jits_Phase_5,1,5,63,98,3419250104
10819,17,Jits_Phase_5,2,5,56,103,3419269440
10819,17,Jits_Phase_5,3,1,48,55,3419270332
10819,17,Jits_Phase_5,0,5,56,103,3419669900
10819,17,Jits_Phase_5,1,5,80,127,3419690360
10819,17,Jits_Phase_5,2,5,63,98,3419730172
10819,17,Jits_Phase_5,3,1,48,46,3419792920
10819,17,Jits_Phase_5,0,5,63,98,3420179700
10819,17,Jits_Phase_5,1,5,80,127,3420200308
10819,17,Jits_Phase_5,2,1,48,44,3420239816
10819,17,Jits_Phase_5,3,5,56,103,3420241308
10819,17,Jits_Phase_5,0,5,63,98,3420679448
10819,17,Jits_Phase_5,1,5,56,103,3420700276
10819,17,Jits_Phase_5,2,5,80,127,3420710324
10819,17,Jits_Phase_5,3,1,48,43,3420736084
10819,17,Jits_Phase_5,0,5,80,127,3421180156
10819,17,Jits_Phase_5,1,5,56,103,3421199716
10819,17,Jits_Phase_5,2,1,48,41,3421224112
10819,17,Jits_Phase_5,3,5,63,98,3421229484
10819,17,Jits_Phase_5,0,1,48,37,3421740676
10819,17,Jits_Phase_5,1,5,56,103,3421749688
10819,17,Jits_Phase_5,2,5,80,127,3421752604
10819,17,Jits_Phase_5,3,5,63,98,3421770220
10819,17,Jits_Phase_5,0,5,63,98,3422169404
10819,17,Jits_Phase_5,1,5,56,103,3422200124
10819,17,Jits_Phase_5,2,1,48,45,3422247136
10819,17,Jits_Phase_5,3,5,80,127,3422259556
10819,17,Jits_Phase_5,0,1,48,43,3422713316
10819,17,Jits_Phase_5,1,5,63,98,3422750132
10819,17,Jits_Phase_5,2,5,56,103,3422760252
10819,17,Jits_Phase_5,3,5,80,127,3422769500
10819,17,Jits_Phase_5,0,5,56,103,3423210112
10819,17,Jits_Phase_5,1,5,80,127,3423239564
10819,17,Jits_Phase_5,2,5,63,98,3423249760
10819,17,Jits_Phase_5,3,1,48,43,3423261344
10819,17,Jits_Phase_5,0,1,48,51,3423732396
10819,17,Jits_Phase_5,1,5,63,98,3423749432
10819,17,Jits_Phase_5,2,5,56,103,3423759628
10819,17,Jits_Phase_5,3,5,80,127,3423780160
10819,17,Jits_Phase_5,0,5,56,103,3424179592
10819,17,Jits_Phase_5,1,5,63,98,3424240204
10819,17,Jits_Phase_5,2,1,48,46,3424241112
10819,17,Jits_Phase_5,3,5,80,127,3424244532
10819,17,Jits_Phase_5,0,5,80,127,3424699800
10819,17,Jits_Phase_5,1,5,56,103,3424710292
10819,17,Jits_Phase_5,2,1,48,48,3424735132
10819,17,Jits_Phase_5,3,5,63,98,3424779668
10819,17,Jits_Phase_5,0,5,80,127,3425190200
10819,17,Jits_Phase_5,1,1,48,49,3425231824
10819,17,Jits_Phase_5,2,5,56,103,3425260020
10819,17,Jits_Phase_5,3,5,63,98,3425270216
10819,17,Jits_Phase_5,0,5,63,98,3425730200
10819,17,Jits_Phase_5,1,5,56,103,3425740096
10819,17,Jits_Phase_5,2,1,48,48,3425753852
10819,17,Jits_Phase_5,3,5,80,127,3425759724
10819,17,Jits_Phase_5,0,5,80,127,3426179532
10819,17,Jits_Phase_5,1,1,48,49,3426228584
10819,17,Jits_Phase_5,2,5,63,98,3426239920
10819,17,Jits_Phase_5,3,5,56,103,3426280076
10819,17,Jits_Phase_5,0,1,48,53,3426706904
10819,17,Jits_Phase_5,1,5,56,103,3426720200
10819,17,Jits_Phase_5,2,5,63,98,3426730320
10819,17,Jits_Phase_5,3,5,80,127,3426770256
10819,17,Jits_Phase_5,0,5,56,103,3427180024
10819,17,Jits_Phase_5,1,5,80,127,3427209552
10819,17,Jits_Phase_5,2,1,48,49,3427228708
10819,17,Jits_Phase_5,3,5,63,98,3427259892
10819,17,Jits_Phase_5,0,1,48,51,3427711892
10819,17,Jits_Phase_5,1,5,56,103,3427719492
10819,17,Jits_Phase_5,2,5,63,98,3427759348
10819,17,Jits_Phase_5,3,5,80,127,3427762716
10819,17,Jits_Phase_5,0,1,48,49,3428209320
10819,17,Jits_Phase_5,1,5,56,103,3428220356
10819,17,Jits_Phase_5,2,5,63,98,3428229432
10819,17,Jits_Phase_5,3,5,80,127,3428250036
10819,17,Jits_Phase_5,0,5,56,103,3428680028
10819,17,Jits_Phase_5,1,5,80,127,3428683168
10819,17,Jits_Phase_5,2,5,63,98,3428720264
10819,17,Jits_Phase_5,3,1,48,51,3428732748
10819,17,Jits_Phase_5,0,1,48,46,3429216676
10819,17,Jits_Phase_5,1,5,63,98,3429219708
10819,17,Jits_Phase_5,2,5,56,103,3429250280
10819,17,Jits_Phase_5,3,5,80,127,3429269988
10819,17,Jits_Phase_5,0,1,48,46,3429688364
10819,17,Jits_Phase_5,1,5,80,127,3429690012
10819,17,Jits_Phase_5,2,5,56,103,3429699912
10819,17,Jits_Phase_5,3,5,63,98,3429710332
10819,17,Jits_Phase_5,0,5,56,103,3430189392
10819,17,Jits_Phase_5,1,1,48,49,3430219412
10819,17,Jits_Phase_5,2,5,80,127,3430230296
10819,17,Jits_Phase_5,3,5,63,98,3430259972
10819,17,Jits_Phase_5,0,1,48,46,3430700244
10819,17,Jits_Phase_5,1,5,63,98,3430701432
10819,17,Jits_Phase_5,2,5,80,127,3430709760
10819,17,Jits_Phase_5,3,5,56,103,3430720028
10819,17,Jits_Phase_5,0,5,56,103,3431190000
10819,17,Jits_Phase_5,1,1,48,48,3431209680
10819,17,Jits_Phase_5,2,5,63,98,3431259404
10819,17,Jits_Phase_5,3,5,80,127,3431269596
10819,17,Jits_Phase_5,0,5,80,127,3431699952
10819,17,Jits_Phase_5,1,5,56,103,3431710076
10819,17,Jits_Phase_5,2,1,48,44,3431737180
10819,17,Jits_Phase_5,3,5,63,98,3431760292
10819,17,Jits_Phase_5,0,5,80,127,3432209980
10819,17,Jits_Phase_5,1,1,48,48,3432246604
10819,17,Jits_Phase_5,2,5,56,103,3432270164
10819,17,Jits_Phase_5,3,5,63,98,3432300060
10819,17,Jits_Phase_5,0,5,56,103,3432709444
10819,17,Jits_Phase_5,1,5,80,127,3432712512
10819,17,Jits_Phase_5,2,1,48,47,3432728752
10819,17,Jits_Phase_5,3,5,63,98,3432749400
10819,17,Jits_Phase_5,0,5,56,103,3433240056
10819,17,Jits_Phase_5,1,1,48,45,3433246536
10819,17,Jits_Phase_5,2,5,63,98,3433269524
10819,17,Jits_Phase_5,3,5,80,127,3433279796
10819,17,Jits_Phase_5,0,1,48,51,3433714384
10819,17,Jits_Phase_5,1,5,63,98,3433750004
10819,17,Jits_Phase_5,2,5,80,127,3433760200
10819,17,Jits_Phase_5,3,5,56,103,3433770792
10819,17,Jits_Phase_5,0,5,80,127,3434200392
10819,17,Jits_Phase_5,1,1,48,51,3434219628
10819,17,Jits_Phase_5,2,5,56,103,3434249460
10819,17,Jits_Phase_5,3,5,63,98,3434252604
10819,17,Jits_Phase_5,0,5,56,103,3434730036
10819,17,Jits_Phase_5,1,5,80,127,3434750272
10819,17,Jits_Phase_5,2,1,48,48,3434752864
10819,17,Jits_Phase_5,3,5,63,98,3434759416
10819,17,Jits_Phase_5,0,5,63,98,3435210100
10819,17,Jits_Phase_5,1,5,56,103,3435239996
10819,17,Jits_Phase_5,2,1,48,51,3435254572
10819,17,Jits_Phase_5,3,5,80,127,3435260300
10819,17,Jits_Phase_5,0,1,48,54,3435697756
10819,17,Jits_Phase_5,1,5,56,103,3435720104
10819,17,Jits_Phase_5,2,5,80,127,3435730148
10819,17,Jits_Phase_5,3,5,63,98,3435800184
10819,17,Jits_Phase_5,0,1,48,46,3436198628
10819,17,Jits_Phase_5,1,5,63,98,3436209516
10819,17,Jits_Phase_5,2,5,80,127,3436249456
10819,17,Jits_Phase_5,3,5,56,103,3436290364
10819,17,Jits_Phase_5,0,5,56,103,3436719536
10819,17,Jits_Phase_5,1,5,63,98,3436730032
10819,17,Jits_Phase_5,2,1,48,47,3436731144
10819,17,Jits_Phase_5,3,5,80,127,3436750256
10819,17,Jits_Phase_5,0,1,48,54,3437236860
10819,17,Jits_Phase_5,1,5,63,98,3437260124
10819,17,Jits_Phase_5,2,5,80,127,3437279460
10819,17,Jits_Phase_5,3,5,56,103,3437300068
10819,17,Jits_Phase_5,0,5,56,103,3437699424
10819,17,Jits_Phase_5,1,1,48,49,3437718204
10819,17,Jits_Phase_5,2,5,80,127,3437780260
10819,17,Jits_Phase_5,3,5,63,98,3437789408
10819,17,Jits_Phase_5,0,5,80,127,3438240244
10819,17,Jits_Phase_5,1,5,63,98,3438250292
10819,17,Jits_Phase_5,2,1,48,52,3438251260
10819,17,Jits_Phase_5,3,5,56,103,3438280032
10819,17,Jits_Phase_5,0,5,63,98,3438700000
10819,17,Jits_Phase_5,1,5,80,127,3438740012
10819,17,Jits_Phase_5,2,1,48,49,3438748984
10819,17,Jits_Phase_5,3,5,56,103,3438800168
10819,17,Jits_Phase_5,0,5,63,98,3439209792
10819,17,Jits_Phase_5,1,1,48,49,3439232388
10819,17,Jits_Phase_5,2,5,56,103,3439259912
10819,17,Jits_Phase_5,3,5,80,127,3439289956
10819,17,Jits_Phase_5,0,1,48,51,3439702612
10819,17,Jits_Phase_5,1,5,80,127,3439709684
10819,17,Jits_Phase_5,2,5,63,98,3439719880
10819,17,Jits_Phase_5,3,5,56,103,3439789632
10819,17,Jits_Phase_5,0,1,48,43,3440233232
10819,17,Jits_Phase_5,1,5,80,127,3440269824
10819,17,Jits_Phase_5,2,5,56,103,3440279868
10819,17,Jits_Phase_5,3,5,63,98,3440283156
10819,17,Jits_Phase_5,0,5,56,103,3440709868
10819,17,Jits_Phase_5,1,5,80,127,3440729432
10819,17,Jits_Phase_5,2,1,48,44,3440736736
10819,17,Jits_Phase_5,3,5,63,98,3440739992
10819,17,Jits_Phase_5,0,5,63,98,3441219892
10819,17,Jits_Phase_5,1,1,48,47,3441225104
10819,17,Jits_Phase_5,2,5,56,103,3441259972
10819,17,Jits_Phase_5,3,5,80,127,3441280284
10819,17,Jits_Phase_5,0,1,48,50,3441707260
10819,17,Jits_Phase_5,1,5,63,98,3441719860
10819,17,Jits_Phase_5,2,5,56,103,3441779948
10819,17,Jits_Phase_5,3,5,80,127,3441783092
10819,17,Jits_Phase_5,0,5,56,103,3442179504
10819,17,Jits_Phase_5,1,5,80,127,3442199888
10819,17,Jits_Phase_5,2,1,48,47,3442231652
10819,17,Jits_Phase_5,3,5,63,98,3442240144
10819,17,Jits_Phase_5,0,1,48,53,3442692036
10819,17,Jits_Phase_5,1,5,56,103,3442709900
10819,17,Jits_Phase_5,2,5,63,98,3442730384
10819,17,Jits_Phase_5,3,5,80,127,3442739832
10819,17,Jits_Phase_5,0,5,80,127,3443180052
10819,17,Jits_Phase_5,1,1,48,52,3443182420
10819,17,Jits_Phase_5,2,5,56,103,3443209720
10819,17,Jits_Phase_5,3,5,63,98,3443249384
10819,17,Jits_Phase_5,0,1,48,51,3443663368
10819,17,Jits_Phase_5,1,5,80,127,3443689996
10819,17,Jits_Phase_5,2,5,56,103,3443710308
10819,17,Jits_Phase_5,3,5,63,98,3443769804
10819,17,Jits_Phase_5,0,1,48,50,3444175772
10819,17,Jits_Phase_5,1,5,56,103,3444199932
10819,17,Jits_Phase_5,2,5,80,127,3444220244
10819,17,Jits_Phase_5,3,5,63,98,3444279744
10819,17,Jits_Phase_5,0,1,48,46,3444677864
10819,17,Jits_Phase_5,1,5,80,127,3444679980
10819,17,Jits_Phase_5,2,5,56,103,3444690472
10819,17,Jits_Phase_5,3,5,63,98,3444730184
10819,17,Jits_Phase_5,0,1,48,52,3445146120
10819,17,Jits_Phase_5,1,5,63,98,3445180020
10819,17,Jits_Phase_5,2,5,56,103,3445219732
10819,17,Jits_Phase_5,3,5,80,127,3445222872
10819,17,Jits_Phase_5,0,1,48,54,3445646004
10819,17,Jits_Phase_5,1,5,63,98,3445700132
10819,17,Jits_Phase_5,2,5,80,127,3445740072
10819,17,Jits_Phase_5,3,5,56,103,3445769732
10819,17,Jits_Phase_5,0,1,48,48,3446166584
10819,17,Jits_Phase_5,1,5,56,103,3446189544
10819,17,Jits_Phase_5,2,5,63,98,3446199668
10819,17,Jits_Phase_5,3,5,80,127,3446230388
10819,17,Jits_Phase_5,0,1,48,51,3446657284
10819,17,Jits_Phase_5,1,5,80,127,3446680000
10819,17,Jits_Phase_5,2,5,63,98,3446749756
10819,17,Jits_Phase_5,3,5,56,103,3446759936
10819,17,Jits_Phase_5,0,1,48,56,3447163912
10819,17,Jits_Phase_5,1,5,63,98,3447179824
10819,17,Jits_Phase_5,2,5,56,103,3447250404
10819,17,Jits_Phase_5,3,5,80,127,3447259464
10819,17,Jits_Phase_5,0,5,63,98,3447659880
10819,17,Jits_Phase_5,1,1,48,50,3447665988
10819,17,Jits_Phase_5,2,5,56,103,3447680332
10819,17,Jits_Phase_5,3,5,80,127,3447720196
10819,17,Jits_Phase_5,0,5,56,103,3448140004
10819,17,Jits_Phase_5,1,5,63,98,3448150348
10819,17,Jits_Phase_5,2,1,48,53,3448156832
10819,17,Jits_Phase_5,3,5,80,127,3448230208
10819,17,Jits_Phase_5,0,5,63,98,3448629800
10819,17,Jits_Phase_5,1,1,48,56,3448650156
10819,17,Jits_Phase_5,2,5,56,103,3448660292
10819,17,Jits_Phase_5,3,5,80,127,3448700228
10819,17,Jits_Phase_5,0,1,48,55,3449104760
10819,17,Jits_Phase_5,1,5,56,103,3449130364
10819,17,Jits_Phase_5,2,5,63,98,3449170376
10819,17,Jits_Phase_5,3,5,80,127,3449210372
10819,17,Jits_Phase_5,0,1,48,55,3449614696
10819,17,Jits_Phase_5,1,5,80,127,3449630012
10819,17,Jits_Phase_5,2,5,56,103,3449709832
10819,17,Jits_Phase_5,3,5,63,98,3449720384
10819,17,Jits_Phase_5,0,1,48,49,3450129360
10819,17,Jits_Phase_5,1,5,56,103,3450169792
10819,17,Jits_Phase_5,2,5,63,98,3450172856
10819,17,Jits_Phase_5,3,5,80,127,3450179912
10819,17,Jits_Phase_5,0,1,48,44,3450646096
10819,17,Jits_Phase_5,1,5,56,103,3450689912
10819,17,Jits_Phase_5,2,5,63,98,3450710444
10819,17,Jits_Phase_5,3,5,80,127,3450719668
10819,17,Jits_Phase_5,0,5,63,98,3451149640
10819,17,Jits_Phase_5,1,5,80,127,3451159912
10819,17,Jits_Phase_5,2,1,48,53,3451161776
10819,17,Jits_Phase_5,3,5,56,103,3451180388
10819,17,Jits_Phase_5,0,1,48,54,3451620728
10819,17,Jits_Phase_5,1,5,63,98,3451650496
10819,17,Jits_Phase_5,2,5,56,103,3451730144
10819,17,Jits_Phase_5,3,5,80,127,3451733292
10819,17,Jits_Phase_5,0,1,48,48,3452143392
10819,17,Jits_Phase_5,1,5,63,98,3452150016
10819,17,Jits_Phase_5,2,5,56,103,3452169652
10819,17,Jits_Phase_5,3,5,80,127,3452200372
10819,17,Jits_Phase_5,0,1,48,54,3452648792
10819,17,Jits_Phase_5,1,5,56,103,3452650212
10819,17,Jits_Phase_5,2,5,63,98,3452670300
10819,17,Jits_Phase_5,3,5,80,127,3452679672
10819,17,Jits_Phase_5,0,1,48,48,3453115164
10819,17,Jits_Phase_5,1,5,56,103,3453189672
10819,17,Jits_Phase_5,2,5,63,98,3453220152
10819,17,Jits_Phase_5,3,5,80,127,3453223664
10819,17,Jits_Phase_5,0,5,56,103,3453640176
10819,17,Jits_Phase_5,1,1,48,53,3453658140
10819,17,Jits_Phase_5,2,5,63,98,3453679884
10819,17,Jits_Phase_5,3,5,80,127,3453740596
10819,17,Jits_Phase_5,0,5,56,103,3454160244
10819,17,Jits_Phase_5,1,1,48,46,3454162992
10819,17,Jits_Phase_5,2,5,63,98,3454169536
10819,17,Jits_Phase_5,3,5,80,127,3454229776
10819,17,Jits_Phase_5,0,1,48,51,3454646104
10819,17,Jits_Phase_5,1,5,56,103,3454660000
10819,17,Jits_Phase_5,2,5,80,127,3454680384
10819,17,Jits_Phase_5,3,5,63,98,3454709984
10819,17,Jits_Phase_5,0,1,48,51,3455157016
10819,17,Jits_Phase_5,1,5,80,127,3455159748
10819,17,Jits_Phase_5,2,5,56,103,3455170020
10819,17,Jits_Phase_5,3,5,63,98,3455190332
10819,17,Jits_Phase_5,0,1,48,41,3455641792
10819,17,Jits_Phase_5,1,5,63,98,3455650132
10819,17,Jits_Phase_5,2,5,80,127,3455730000
10819,17,Jits_Phase_5,3,5,56,103,3455740256
10819,17,Jits_Phase_5,0,1,48,47,3456155468
10819,17,Jits_Phase_5,1,5,80,127,3456239940
10819,17,Jits_Phase_5,2,5,56,103,3456259632
10819,17,Jits_Phase_5,3,5,63,98,3456262700
10819,17,Jits_Phase_5,0,1,48,49,3456711560
10819,17,Jits_Phase_5,1,5,63,98,3456729644
10819,17,Jits_Phase_5,2,5,80,127,3456732856
10819,17,Jits_Phase_5,3,5,56,103,3456789732
10819,17,Jits_Phase_5,0,5,56,103,3457209912
10819,17,Jits_Phase_5,1,5,80,127,3457219960
10819,17,Jits_Phase_5,2,5,63,98,3457259820
10819,17,Jits_Phase_5,3,1,48,42,3457277168
10819,17,Jits_Phase_5,0,5,56,103,3457689820
10819,17,Jits_Phase_5,1,1,48,45,3457744256
10819,17,Jits_Phase_5,2,5,63,98,3457750280
10819,17,Jits_Phase_5,3,5,80,127,3457759800
10819,17,Jits_Phase_5,0,5,63,98,3458199848
10819,17,Jits_Phase_5,1,1,48,49,3458228144
10819,17,Jits_Phase_5,2,5,80,127,3458239856
10819,17,Jits_Phase_5,3,5,56,103,3458279864
10819,17,Jits_Phase_5,0,5,56,103,3458699820
10819,17,Jits_Phase_5,1,1,48,49,3458736720
10819,17,Jits_Phase_5,2,5,63,98,3458779756
10819,17,Jits_Phase_5,3,5,80,127,3458783044
10819,17,Jits_Phase_5,0,1,48,49,3459233856
10819,17,Jits_Phase_5,1,5,80,127,3459259808
10819,17,Jits_Phase_5,2,5,56,103,3459289556
10819,17,Jits_Phase_5,3,5,63,98,3459292768
10819,17,Jits_Phase_5,0,5,56,103,3459719776
10819,17,Jits_Phase_5,1,1,48,51,3459727552
10819,17,Jits_Phase_5,2,5,80,127,3459740080
10819,17,Jits_Phase_5,3,5,63,98,3459780016
10819,17,Jits_Phase_5,0,5,80,127,3460199912
10819,17,Jits_Phase_5,1,5,63,98,3460220224
10819,17,Jits_Phase_5,2,1,48,47,3460239608
10819,17,Jits_Phase_5,3,5,56,103,3460279932
10819,17,Jits_Phase_5,0,5,63,98,3460709944
10819,17,Jits_Phase_5,1,5,56,103,3460719920
10819,17,Jits_Phase_5,2,1,48,48,3460742740
10819,17,Jits_Phase_5,3,5,80,127,3460770112
10819,17,Jits_Phase_5,0,5,56,103,3461200180
10819,17,Jits_Phase_5,1,5,63,98,3461219892
10819,17,Jits_Phase_5,2,5,80,127,3461230012
10819,17,Jits_Phase_5,3,1,48,46,3461257412
10819,17,Jits_Phase_5,0,5,56,103,3461689676
10819,17,Jits_Phase_5,1,5,63,98,3461692664
10819,17,Jits_Phase_5,2,5,80,127,3461710132
10819,17,Jits_Phase_5,3,1,48,48,3461734972
10819,17,Jits_Phase_5,0,1,48,43,3462201752
10819,17,Jits_Phase_5,1,5,63,98,3462230324
10819,17,Jits_Phase_5,2,5,56,103,3462260220
10819,17,Jits_Phase_5,3,5,80,127,3462289748
10819,17,Jits_Phase_5,0,5,80,127,3462690272
10819,17,Jits_Phase_5,1,1,48,43,3462717460
10819,17,Jits_Phase_5,2,5,56,103,3462780196
10819,17,Jits_Phase_5,3,5,63,98,3462783412
10819,17,Jits_Phase_5,0,5,56,103,3463189804
10819,17,Jits_Phase_5,1,5,80,127,3463192868
10819,17,Jits_Phase_5,2,1,48,48,3463204084
10819,17,Jits_Phase_5,3,5,63,98,3463269836
10819,17,Jits_Phase_5,0,1,48,50,3463683896
10819,17,Jits_Phase_5,1,5,80,127,3463689772
10819,17,Jits_Phase_5,2,5,63,98,3463749964
10819,17,Jits_Phase_5,3,5,56,103,3463779788
10819,17,Jits_Phase_5,0,1,48,53,3464176444
10819,17,Jits_Phase_5,1,5,63,98,3464190344
10819,17,Jits_Phase_5,2,5,80,127,3464199492
10819,17,Jits_Phase_5,3,5,56,103,3464270164
10819,17,Jits_Phase_5,0,1,48,52,3464691336
10819,17,Jits_Phase_5,1,5,56,103,3464749452
10819,17,Jits_Phase_5,2,5,80,127,3464780176
10819,17,Jits_Phase_5,3,5,63,98,3464830208
10819,17,Jits_Phase_5,0,1,48,49,3465224036
10819,17,Jits_Phase_5,1,5,63,98,3465349644
10819,17,Jits_Phase_5,2,5,56,103,3465380144
10819,17,Jits_Phase_5,3,5,80,127,3465383208
10819,17,Jits_Phase_5,0,1,48,48,3465779556
10819,17,Jits_Phase_5,1,5,63,98,3465850224
10819,17,Jits_Phase_5,2,5,80,127,3465869788
10819,17,Jits_Phase_5,3,5,56,103,3465880040
10819,17,Jits_Phase_5,0,5,56,103,3466360172
10819,17,Jits_Phase_5,1,1,48,48,3466363384
10819,17,Jits_Phase_5,2,5,63,98,3466364572
10819,17,Jits_Phase_5,3,5,80,127,3466379648
10819,17,Jits_Phase_5,0,5,56,103,3466809660
10819,17,Jits_Phase_5,1,5,63,98,3466820152
10819,17,Jits_Phase_5,2,5,80,127,3466849976
10819,17,Jits_Phase_5,3,1,48,45,3466905752
10819,17,Jits_Phase_5,0,5,63,98,3467329948
10819,17,Jits_Phase_5,1,5,80,127,3467350480
10819,17,Jits_Phase_5,2,1,48,46,3467366928
10819,17,Jits_Phase_5,3,5,56,103,3467390408
10819,17,Jits_Phase_5,0,1,48,42,3467860116
10819,17,Jits_Phase_5,1,5,56,103,3467861600
10819,17,Jits_Phase_5,2,5,63,98,3467900416
10819,17,Jits_Phase_5,3,5,80,127,3467903704
10819,17,Jits_Phase_5,0,5,80,127,3468299600
10819,17,Jits_Phase_5,1,5,56,103,3468339712
10819,17,Jits_Phase_5,2,1,48,49,3468378044
10819,17,Jits_Phase_5,3,5,63,98,3468389608
10819,17,Jits_Phase_5,0,1,48,48,3468859624
10819,17,Jits_Phase_5,1,5,56,103,3468861112
10819,17,Jits_Phase_5,2,5,80,127,3468869960
10819,17,Jits_Phase_5,3,5,63,98,3468899784
10819,17,Jits_Phase_5,0,5,56,103,3469310572
10819,17,Jits_Phase_5,1,5,80,127,3469350140
10819,17,Jits_Phase_5,2,1,48,49,3469379284
10819,17,Jits_Phase_5,3,5,63,98,3469400508
10819,17,Jits_Phase_5,0,5,56,103,3469810120
10819,17,Jits_Phase_5,1,1,48,50,3469841712
10819,17,Jits_Phase_5,2,5,80,127,3469850052
10819,17,Jits_Phase_5,3,5,63,98,3469900352
10819,17,Jits_Phase_5,0,5,80,127,3470299624
10819,17,Jits_Phase_5,1,1,48,49,3470352564
10819,17,Jits_Phase_5,2,5,63,98,3470380628
10819,17,Jits_Phase_5,3,5,56,103,3470389632
10819,17,Jits_Phase_5,0,5,80,127,3470850484
10819,17,Jits_Phase_5,1,5,56,103,3470859632
10819,17,Jits_Phase_5,2,1,48,49,3470865140
10819,17,Jits_Phase_5,3,5,63,98,3470880232
10819,17,Jits_Phase_5,0,5,63,98,3471320728
10819,17,Jits_Phase_5,1,1,48,48,3471365572
10819,17,Jits_Phase_5,2,5,56,103,3471390028
10819,17,Jits_Phase_5,3,5,80,127,3471393016
10819,17,Jits_Phase_5,0,5,80,127,3471809836
10819,17,Jits_Phase_5,1,1,48,51,3471839704
10819,17,Jits_Phase_5,2,5,63,98,3471859956
10819,17,Jits_Phase_5,3,5,56,103,3471899968
10819,17,Jits_Phase_5,0,1,48,46,3472331664
10819,17,Jits_Phase_5,1,5,63,98,3472349748
10819,17,Jits_Phase_5,2,5,56,103,3472389612
10819,17,Jits_Phase_5,3,5,80,127,3472399660
10819,17,Jits_Phase_5,0,1,48,48,3472798312
10819,17,Jits_Phase_5,1,5,63,98,3472850400
10819,17,Jits_Phase_5,2,5,56,103,3472869888
10819,17,Jits_Phase_5,3,5,80,127,3472890124
10819,17,Jits_Phase_5,0,5,80,127,3473310004
10819,17,Jits_Phase_5,1,5,56,103,3473320644
10819,17,Jits_Phase_5,2,1,48,46,3473328644
10819,17,Jits_Phase_5,3,5,63,98,3473339828
10819,17,Jits_Phase_5,0,1,48,45,3473837144
10819,17,Jits_Phase_5,1,5,63,98,3473839576
10819,17,Jits_Phase_5,2,5,56,103,3473880712
10819,17,Jits_Phase_5,3,5,80,127,3473910236
10819,17,Jits_Phase_5,0,5,56,103,3474300380
10819,17,Jits_Phase_5,1,1,48,44,3474315332
10819,17,Jits_Phase_5,2,5,63,98,3474329896
10819,17,Jits_Phase_5,3,5,80,127,3474359796
10819,17,Jits_Phase_5,0,5,80,127,3474720040
10819,17,Jits_Phase_5,1,5,56,103,3474789820
10819,17,Jits_Phase_5,2,5,63,98,3474792736
10819,17,Jits_Phase_5,3,1,48,49,3474799236
10819,17,Jits_Phase_5,0,5,56,103,3475230060
10819,17,Jits_Phase_5,1,5,63,98,3475280432
10819,17,Jits_Phase_5,2,1,48,55,3475299140
10819,17,Jits_Phase_5,3,5,80,127,3475309804
10819,17,Jits_Phase_5,0,5,63,98,3475710416
10819,17,Jits_Phase_5,1,5,80,127,3475713780
10819,17,Jits_Phase_5,2,1,48,48,3475753564
10819,17,Jits_Phase_5,3,5,56,103,3475769700
10819,17,Jits_Phase_5,0,1,48,41,3476218592
10819,17,Jits_Phase_5,1,5,56,103,3476239668
10819,17,Jits_Phase_5,2,5,80,127,3476249940
10819,17,Jits_Phase_5,3,5,63,98,3476300088
10819,17,Jits_Phase_5,0,5,63,98,3476709608
10819,17,Jits_Phase_5,1,5,56,103,3476719880
10819,17,Jits_Phase_5,2,1,48,46,3476746136
10819,17,Jits_Phase_5,3,5,80,127,3476749696
10819,17,Jits_Phase_5,0,1,48,48,3477238616
10819,17,Jits_Phase_5,1,5,63,98,3477240136
10819,17,Jits_Phase_5,2,5,80,127,3477243428
10819,17,Jits_Phase_5,3,5,56,103,3477269812
10819,17,Jits_Phase_5,0,5,63,98,3477760636
10819,17,Jits_Phase_5,1,1,48,48,3477763904
10819,17,Jits_Phase_5,2,5,56,103,3477779816
10819,17,Jits_Phase_5,3,5,80,127,3477782884
10819,17,Jits_Phase_5,0,5,63,98,3478220072
10819,17,Jits_Phase_5,1,1,48,49,3478280132
10819,17,Jits_Phase_5,2,5,56,103,3478289820
10819,17,Jits_Phase_5,3,5,80,127,3478310428
10819,17,Jits_Phase_5,0,5,56,103,3478709540
10819,17,Jits_Phase_5,1,5,63,98,3478719808
10819,17,Jits_Phase_5,2,1,48,49,3478749304
10819,17,Jits_Phase_5,3,5,80,127,3478809928
10819,17,Jits_Phase_5,0,1,48,42,3479199760
10819,17,Jits_Phase_5,1,5,56,103,3479229676
10819,17,Jits_Phase_5,2,5,80,127,3479269688
10819,17,Jits_Phase_5,3,5,63,98,3479280104
10819,17,Jits_Phase_5,0,1,48,35,3479723548
10819,17,Jits_Phase_5,1,5,56,103,3479750028
10819,17,Jits_Phase_5,2,5,63,98,3479779776
10819,17,Jits_Phase_5,3,5,80,127,3479810424
10819,17,Jits_Phase_5,0,1,48,43,3480208648
10819,17,Jits_Phase_5,1,5,80,127,3480210368
10819,17,Jits_Phase_5,2,5,63,98,3480249784
10819,17,Jits_Phase_5,3,5,56,103,3480270464
10819,17,Jits_Phase_5,0,1,48,45,3480651576
10819,17,Jits_Phase_5,1,5,56,103,3480749600
10819,17,Jits_Phase_5,2,5,80,127,3480769820
10819,17,Jits_Phase_5,3,5,63,98,3480790576
10819,17,Jits_Phase_5,0,5,63,98,3481219392
10819,17,Jits_Phase_5,1,5,56,103,3481229812
10819,17,Jits_Phase_5,2,1,48,40,3481256892
10819,17,Jits_Phase_5,3,5,80,127,3481290188
10819,17,Jits_Phase_5,0,5,56,103,3481720112
10819,17,Jits_Phase_5,1,1,48,36,3481780472
10819,17,Jits_Phase_5,2,5,63,98,3481789788
10819,17,Jits_Phase_5,3,5,80,127,3481810392
10819,17,Jits_Phase_5,0,5,56,103,3482219880
10819,17,Jits_Phase_5,1,5,63,98,3482249556
10819,17,Jits_Phase_5,2,1,48,41,3482273572
10819,17,Jits_Phase_5,3,5,80,127,3482289560
10819,17,Jits_Phase_5,0,1,48,46,3482707088
10819,17,Jits_Phase_5,1,5,63,98,3482710716
10819,17,Jits_Phase_5,2,5,56,103,3482759648
10819,17,Jits_Phase_5,3,5,80,127,3482769768
10819,17,Jits_Phase_5,0,1,48,51,3483212536
10819,17,Jits_Phase_5,1,5,56,103,3483260584
10819,17,Jits_Phase_5,2,5,63,98,3483309504
10819,17,Jits_Phase_5,3,5,80,127,3483319700
10819,17,Jits_Phase_5,0,5,56,103,3483730232
10819,17,Jits_Phase_5,1,1,48,42,3483732824
10819,17,Jits_Phase_5,2,5,63,98,3483739672
10819,17,Jits_Phase_5,3,5,80,127,3483820508
10819,17,Jits_Phase_5,0,9999,9999,9999,3399447672
10819,17,Jits_Phase_5,1,9999,9999,9999,3399947384
10819,17,Jits_Phase_5,2,9999,9999,9999,3400448064
10819,17,Jits_Phase_5,3,9999,9999,9999,3400958012
10819,17,Jits_Phase_5,4,9999,9999,9999,3401457764
10819,17,Jits_Phase_5,5,9999,9999,9999,3401957444
10819,17,Jits_Phase_5,6,9999,9999,9999,3402457196
10819,17,Jits_Phase_5,7,9999,9999,9999,3402957932
10819,17,Jits_Phase_5,8,9999,9999,9999,3403457624
10819,17,Jits_Phase_5,9,9999,9999,9999,3403957316
10819,17,Jits_Phase_5,10,9999,9999,9999,3404458048
10819,17,Jits_Phase_5,11,9999,9999,9999,3404957816
10819,17,Jits_Phase_5,12,9999,9999,9999,3405457488
10819,17,Jits_Phase_5,13,9999,9999,9999,3405957232
10819,17,Jits_Phase_5,14,9999,9999,9999,3406457952
10819,17,Jits_Phase_5,15,9999,9999,9999,3406957640
10819,17,Jits_Phase_5,16,9999,9999,9999,3407457404
10819,17,Jits_Phase_5,17,9999,9999,9999,3407958128
10819,17,Jits_Phase_5,18,9999,9999,9999,3408468080
10819,17,Jits_Phase_5,19,9999,9999,9999,3408967768
10819,17,Jits_Phase_5,20,9999,9999,9999,3409467456
10819,17,Jits_Phase_5,21,9999,9999,9999,3409967220
10819,17,Jits_Phase_5,22,9999,9999,9999,3410467928
10819,17,Jits_Phase_5,23,9999,9999,9999,3410967608
10819,17,Jits_Phase_5,24,9999,9999,9999,3411467376
10819,17,Jits_Phase_5,25,9999,9999,9999,3411968104
10819,17,Jits_Phase_5,26,9999,9999,9999,3412478060
10819,17,Jits_Phase_5,27,9999,9999,9999,3412977720
10819,17,Jits_Phase_5,28,9999,9999,9999,3413477488
10819,17,Jits_Phase_5,29,9999,9999,9999,3413977172
10819,17,Jits_Phase_5,30,9999,9999,9999,3414467648
10819,17,Jits_Phase_5,31,9999,9999,9999,3414967416
10819,17,Jits_Phase_5,32,9999,9999,9999,3415467104
10819,17,Jits_Phase_5,33,9999,9999,9999,3415967840
10819,17,Jits_Phase_5,34,9999,9999,9999,3416467528
10819,17,Jits_Phase_5,35,9999,9999,9999,3416967292
10819,17,Jits_Phase_5,36,9999,9999,9999,3417468004
10819,17,Jits_Phase_5,37,9999,9999,9999,3417967676
10819,17,Jits_Phase_5,38,9999,9999,9999,3418467444
10819,17,Jits_Phase_5,39,9999,9999,9999,3418967120
10819,17,Jits_Phase_5,40,9999,9999,9999,3419467844
10819,17,Jits_Phase_5,41,9999,9999,9999,3419967604
10819,17,Jits_Phase_5,42,9999,9999,9999,3420467288
10819,17,Jits_Phase_5,43,9999,9999,9999,3420968056
10819,17,Jits_Phase_5,44,9999,9999,9999,3421467724
10819,17,Jits_Phase_5,45,9999,9999,9999,3421967484
10819,17,Jits_Phase_5,46,9999,9999,9999,3422467156
10819,17,Jits_Phase_5,47,9999,9999,9999,3422967884
10819,17,Jits_Phase_5,48,9999,9999,9999,3423477824
10819,17,Jits_Phase_5,49,9999,9999,9999,3423977596
10819,17,Jits_Phase_5,50,9999,9999,9999,3424477264
10819,17,Jits_Phase_5,51,9999,9999,9999,3424978004
10819,17,Jits_Phase_5,52,9999,9999,9999,3425477696
10819,17,Jits_Phase_5,53,9999,9999,9999,3425977464
10819,17,Jits_Phase_5,54,9999,9999,9999,3426477144
10819,17,Jits_Phase_5,55,9999,9999,9999,3426977880
10819,17,Jits_Phase_5,56,9999,9999,9999,3427477628
10819,17,Jits_Phase_5,57,9999,9999,9999,3427977312
10819,17,Jits_Phase_5,58,9999,9999,9999,3428478036
10819,17,Jits_Phase_5,59,9999,9999,9999,3428977772
10819,17,Jits_Phase_5,60,9999,9999,9999,3429477468
10819,17,Jits_Phase_5,61,9999,9999,9999,3429977212
10819,17,Jits_Phase_5,62,9999,9999,9999,3430477932
10819,17,Jits_Phase_5,63,9999,9999,9999,3430977620
10819,17,Jits_Phase_5,64,9999,9999,9999,3431497820
10819,17,Jits_Phase_5,65,9999,9999,9999,3431997508
10819,17,Jits_Phase_5,66,9999,9999,9999,3432497272
10819,17,Jits_Phase_5,67,9999,9999,9999,3432997972
10819,17,Jits_Phase_5,68,9999,9999,9999,3433497656
10819,17,Jits_Phase_5,69,9999,9999,9999,3433997424
10819,17,Jits_Phase_5,70,9999,9999,9999,3434497088
10819,17,Jits_Phase_5,71,9999,9999,9999,3434997824
10819,17,Jits_Phase_5,72,9999,9999,9999,3435497588
10819,17,Jits_Phase_5,73,9999,9999,9999,3435997264
10819,17,Jits_Phase_5,74,9999,9999,9999,3436497984
10819,17,Jits_Phase_5,75,9999,9999,9999,3436997736
10819,17,Jits_Phase_5,76,9999,9999,9999,3437497428
10819,17,Jits_Phase_5,77,9999,9999,9999,3437997180
10819,17,Jits_Phase_5,78,9999,9999,9999,3438497920
10819,17,Jits_Phase_5,79,9999,9999,9999,3438997608
10819,17,Jits_Phase_5,80,9999,9999,9999,3439497284
10819,17,Jits_Phase_5,81,9999,9999,9999,3439977556
10819,17,Jits_Phase_5,82,9999,9999,9999,3440477308
10819,17,Jits_Phase_5,83,9999,9999,9999,3440978028
10819,17,Jits_Phase_5,84,9999,9999,9999,3441477720
10819,17,Jits_Phase_5,85,9999,9999,9999,3441977464
10819,17,Jits_Phase_5,86,9999,9999,9999,3442477136
10819,17,Jits_Phase_5,87,9999,9999,9999,3442977844
10819,17,Jits_Phase_5,88,9999,9999,9999,3443477584
10819,17,Jits_Phase_5,89,9999,9999,9999,3443977272
10819,17,Jits_Phase_5,90,9999,9999,9999,3444478068
10819,17,Jits_Phase_5,91,9999,9999,9999,3444977736
10819,17,Jits_Phase_5,92,9999,9999,9999,3445477472
10819,17,Jits_Phase_5,93,9999,9999,9999,3445977148
10819,17,Jits_Phase_5,94,9999,9999,9999,3446477940
10819,17,Jits_Phase_5,95,9999,9999,9999,3446977616
10819,17,Jits_Phase_5,96,9999,9999,9999,3447477364
10819,17,Jits_Phase_5,97,9999,9999,9999,3447927896
10819,17,Jits_Phase_5,98,9999,9999,9999,3448427644
10819,17,Jits_Phase_5,99,9999,9999,9999,3448927332
10819,17,Jits_Phase_5,100,9999,9999,9999,3449428052
10819,17,Jits_Phase_5,101,9999,9999,9999,3449927800
10819,17,Jits_Phase_5,102,9999,9999,9999,3450427468
10819,17,Jits_Phase_5,103,9999,9999,9999,3450927220
10819,17,Jits_Phase_5,104,9999,9999,9999,3451427916
10819,17,Jits_Phase_5,105,9999,9999,9999,3451927656
10819,17,Jits_Phase_5,106,9999,9999,9999,3452427328
10819,17,Jits_Phase_5,107,9999,9999,9999,3452928124
10819,17,Jits_Phase_5,108,9999,9999,9999,3453438032
10819,17,Jits_Phase_5,109,9999,9999,9999,3453937784
10819,17,Jits_Phase_5,110,9999,9999,9999,3454437472
10819,17,Jits_Phase_5,111,9999,9999,9999,3454937160
10819,17,Jits_Phase_5,112,9999,9999,9999,3455437880
10819,17,Jits_Phase_5,113,9999,9999,9999,3455937636
10819,17,Jits_Phase_5,114,9999,9999,9999,3456487500
10819,17,Jits_Phase_5,115,9999,9999,9999,3456987244
10819,17,Jits_Phase_5,116,9999,9999,9999,3457487964
10819,17,Jits_Phase_5,117,9999,9999,9999,3457987652
10819,17,Jits_Phase_5,118,9999,9999,9999,3458487416
10819,17,Jits_Phase_5,119,9999,9999,9999,3458987084
10819,17,Jits_Phase_5,120,9999,9999,9999,3459487816
10819,17,Jits_Phase_5,121,9999,9999,9999,3459987568
10819,17,Jits_Phase_5,122,9999,9999,9999,3460487256
10819,17,Jits_Phase_5,123,9999,9999,9999,3460987996
10819,17,Jits_Phase_5,124,9999,9999,9999,3461487672
10819,17,Jits_Phase_5,125,9999,9999,9999,3461987416
10819,17,Jits_Phase_5,126,9999,9999,9999,3462487108
10819,17,Jits_Phase_5,127,9999,9999,9999,3462987896
10819,17,Jits_Phase_5,128,9999,9999,9999,3463487572
10819,17,Jits_Phase_5,129,9999,9999,9999,3463987264
10819,17,Jits_Phase_5,130,9999,9999,9999,3464488028
10819,17,Jits_Phase_5,131,9999,9999,9999,3465088112
10819,17,Jits_Phase_5,132,9999,9999,9999,3465598044
10819,17,Jits_Phase_5,133,9999,9999,9999,3466097720
10819,17,Jits_Phase_5,134,9999,9999,9999,3466597460
10819,17,Jits_Phase_5,135,9999,9999,9999,3467097148
10819,17,Jits_Phase_5,136,9999,9999,9999,3467597884
10819,17,Jits_Phase_5,137,9999,9999,9999,3468097628
10819,17,Jits_Phase_5,138,9999,9999,9999,3468597304
10819,17,Jits_Phase_5,139,9999,9999,9999,3469098044
10819,17,Jits_Phase_5,140,9999,9999,9999,3469597772
10819,17,Jits_Phase_5,141,9999,9999,9999,3470097464
10819,17,Jits_Phase_5,142,9999,9999,9999,3470597228
10819,17,Jits_Phase_5,143,9999,9999,9999,3471097968
10819,17,Jits_Phase_5,144,9999,9999,9999,3471597652
10819,17,Jits_Phase_5,145,9999,9999,9999,3472097404
10819,17,Jits_Phase_5,146,9999,9999,9999,3472598144
10819,17,Jits_Phase_5,147,9999,9999,9999,3473108084
10819,17,Jits_Phase_5,148,9999,9999,9999,3473607752
10819,17,Jits_Phase_5,149,9999,9999,9999,3474107448
10819,17,Jits_Phase_5,150,9999,9999,9999,3474507868
10819,17,Jits_Phase_5,151,9999,9999,9999,3475007552
10819,17,Jits_Phase_5,152,9999,9999,9999,3475507316
10819,17,Jits_Phase_5,153,9999,9999,9999,3476008036
10819,17,Jits_Phase_5,154,9999,9999,9999,3476507760
10819,17,Jits_Phase_5,155,9999,9999,9999,3477007436
10819,17,Jits_Phase_5,156,9999,9999,9999,3477507176
10819,17,Jits_Phase_5,157,9999,9999,9999,3478007892
10819,17,Jits_Phase_5,158,9999,9999,9999,3478507616
10819,17,Jits_Phase_5,159,9999,9999,9999,3479007292
10819,17,Jits_Phase_5,160,9999,9999,9999,3479508032
10819,17,Jits_Phase_5,161,9999,9999,9999,3480007784
10819,17,Jits_Phase_5,162,9999,9999,9999,3480507456
10819,17,Jits_Phase_5,163,9999,9999,9999,3481007208
10819,17,Jits_Phase_5,164,9999,9999,9999,3481507928
10819,17,Jits_Phase_5,165,9999,9999,9999,3482007608
10819,17,Jits_Phase_5,166,9999,9999,9999,3482507372
10819,17,Jits_Phase_5,167,9999,9999,9999,3483008108
10819,17,Jits_Phase_5,168,9999,9999,9999,3483518048
10819,17,Jits_Phase_5,169,9999,9999,9999,3484017724
10820,3,ISIP_8,0,5,42,127,3551746596
10820,3,ISIP_8,1,5,42,127,3552546420
10820,3,ISIP_8,2,5,42,127,3553345756
10820,3,ISIP_8,3,1,48,49,3553362636
10820,3,ISIP_8,4,1,48,49,3554132880
10820,3,ISIP_8,5,5,42,127,3554145632
10820,3,ISIP_8,6,5,42,127,3554946496
10820,3,ISIP_8,7,1,48,51,3554978632
10820,3,ISIP_8,8,5,42,127,3555746448
10820,3,ISIP_8,9,1,48,50,3555803948
10820,3,ISIP_8,10,5,42,127,3556545956
10820,3,ISIP_8,11,1,48,55,3556567852
10820,3,ISIP_8,12,5,42,127,3557345692
10820,3,ISIP_8,13,1,48,48,3557361904
10820,3,ISIP_8,14,5,42,127,3558146548
10820,3,ISIP_8,15,1,48,45,3558164400
10820,3,ISIP_8,16,1,48,54,3558914080
10820,3,ISIP_8,17,5,42,127,3558946272
10820,3,ISIP_8,18,1,48,51,3559702644
10820,3,ISIP_8,19,5,42,127,3559745784
10820,3,ISIP_8,20,1,48,50,3560494692
10820,3,ISIP_8,21,5,42,127,3560545588
10820,3,ISIP_8,22,1,48,51,3561282760
10820,3,ISIP_8,23,5,42,127,3561346520
10820,3,ISIP_8,24,1,48,53,3562089372
10820,3,ISIP_8,25,5,42,127,3562146324
10820,3,ISIP_8,26,1,48,47,3562861208
10820,3,ISIP_8,27,5,42,127,3562945988
10820,3,ISIP_8,28,1,48,53,3563665352
10820,3,ISIP_8,29,5,42,127,3563745572
10820,3,ISIP_8,30,1,48,51,3564503684
10820,3,ISIP_8,31,5,42,127,3564546276
10820,3,ISIP_8,32,1,48,48,3565287408
10820,3,ISIP_8,33,5,42,127,3565346232
10820,3,ISIP_8,34,1,48,50,3566071800
10820,3,ISIP_8,35,5,42,127,3566145760
10820,3,ISIP_8,36,1,48,47,3566892952
10820,3,ISIP_8,37,5,42,127,3566945644
10820,3,ISIP_8,38,1,48,51,3567694628
10820,3,ISIP_8,39,5,42,127,3567746276
10820,3,ISIP_8,40,1,48,50,3568481200
10820,3,ISIP_8,41,5,42,127,3568546232
10820,3,ISIP_8,42,1,48,54,3569294024
10820,3,ISIP_8,43,5,42,127,3569346040
10820,3,ISIP_8,44,1,48,57,3570062940
10820,3,ISIP_8,45,5,42,127,3570145700
10820,3,ISIP_8,46,1,48,49,3570844948
10820,3,ISIP_8,47,5,42,127,3570946316
10820,3,ISIP_8,48,1,48,55,3571637872
10820,3,ISIP_8,49,5,42,127,3571746124
10820,3,ISIP_8,50,1,48,54,3572509860
10820,3,ISIP_8,51,5,42,127,3572546040
10820,3,ISIP_8,52,1,48,57,3573298772
10820,3,ISIP_8,53,5,42,127,3573345552
10820,3,ISIP_8,54,1,48,54,3574075912
10820,3,ISIP_8,55,5,42,127,3574146408
10820,3,ISIP_8,56,1,48,54,3574867120
10820,3,ISIP_8,57,5,42,127,3574946212
10820,3,ISIP_8,58,1,48,55,3575669848
10820,3,ISIP_8,59,1,48,53,3576526196
10820,3,ISIP_8,60,1,48,54,3577311268
10820,3,ISIP_8,61,1,48,51,3578082868
10820,3,ISIP_8,62,1,48,50,3578867788
10820,3,ISIP_8,63,1,48,54,3579615228
10820,3,ISIP_8,64,1,48,62,3580441512
10820,3,ISIP_8,65,1,48,49,3581218728
10820,3,ISIP_8,66,1,48,50,3581975576
10820,3,ISIP_8,67,1,48,48,3582698108
10820,3,ISIP_8,68,1,48,51,3583462084
10820,3,ISIP_8,69,1,48,50,3584226284
10820,3,ISIP_8,70,1,48,48,3584970816
10820,3,ISIP_8,71,1,48,54,3585741224
10820,3,ISIP_8,72,1,48,47,3586514176
10820,3,ISIP_8,73,1,48,49,3587276648
10820,3,ISIP_8,74,1,48,43,3588050428
10820,3,ISIP_8,75,1,48,49,3588793460
10820,3,ISIP_8,76,1,48,45,3589546068
10820,3,ISIP_8,77,1,48,51,3590298752
10820,3,ISIP_8,78,1,48,48,3591090696
10820,3,ISIP_8,79,1,48,49,3591814056
10820,3,ISIP_8,80,1,48,50,3592612068
10820,3,ISIP_8,81,1,48,54,3593395268
10820,3,ISIP_8,82,1,48,54,3594161856
10820,3,ISIP_8,83,1,48,48,3594903684
10820,3,ISIP_8,84,1,48,50,3595673416
10820,3,ISIP_8,85,1,48,55,3596430960
10820,3,ISIP_8,86,1,48,54,3597198900
10820,3,ISIP_8,87,1,48,48,3597959440
10820,3,ISIP_8,88,1,48,47,3598694912
10820,3,ISIP_8,89,1,48,49,3599498388
10820,3,ISIP_8,90,1,48,49,3600291828
10820,3,ISIP_8,91,1,48,57,3601006740
10820,3,ISIP_8,92,1,48,53,3601771836
10820,3,ISIP_8,93,1,48,56,3602504772
10820,3,ISIP_8,94,1,48,57,3603239132
10820,3,ISIP_8,95,1,48,53,3604028084
10820,3,ISIP_8,96,1,48,51,3604800888
10820,3,ISIP_8,97,1,48,50,3605533348
10820,3,ISIP_8,98,1,48,53,3606408352
10820,3,ISIP_8,99,1,48,56,3607161628
10820,3,ISIP_8,100,1,48,54,3607943032
10820,3,ISIP_8,101,1,48,55,3608704392
10820,3,ISIP_8,102,1,48,50,3609499632
10820,3,ISIP_8,103,1,48,52,3610220004
10820,3,ISIP_8,104,1,48,58,3610989592
10820,3,ISIP_8,105,1,48,51,3611779592
10820,3,ISIP_8,106,1,48,56,3612547084
10820,3,ISIP_8,107,1,48,55,3613315088
10820,3,ISIP_8,108,1,48,56,3614066564
10820,3,ISIP_8,109,1,48,54,3614836004
10820,3,ISIP_8,110,1,48,58,3615606780
10820,3,ISIP_8,111,1,48,51,3616349068
10820,3,ISIP_8,112,1,48,53,3617131148
10820,3,ISIP_8,113,1,48,48,3617940900
10820,3,ISIP_8,114,1,48,58,3618707796
10820,3,ISIP_8,115,1,48,58,3619443416
10820,3,ISIP_8,116,1,48,63,3620223252
10820,3,ISIP_8,117,1,48,54,3621034572
10820,3,ISIP_8,118,1,48,55,3621817700
10820,3,ISIP_8,119,1,48,56,3622589304
10820,3,ISIP_8,120,1,48,58,3623375492
10820,3,ISIP_8,121,1,48,57,3624187412
10820,3,ISIP_8,122,1,48,63,3624935232
10820,3,ISIP_8,123,1,48,59,3625705644
10820,3,ISIP_8,124,1,48,42,3626496544
10820,3,ISIP_8,125,1,48,51,3627320460
10820,3,ISIP_8,126,1,48,51,3628119960
10820,3,ISIP_8,127,1,48,56,3628862320
10820,3,ISIP_8,128,1,48,60,3629667736
10820,3,ISIP_8,129,1,48,51,3630474120
10820,3,ISIP_8,130,1,48,54,3631276544
10820,3,ISIP_8,131,1,48,54,3632062512
10820,3,ISIP_8,132,1,48,56,3632904944
10820,3,ISIP_8,133,1,48,55,3633723404
10820,3,ISIP_8,134,1,48,57,3634549608
10820,3,ISIP_8,135,1,48,51,3635304160
10820,3,ISIP_8,136,1,48,57,3636112716
10820,3,ISIP_8,137,1,48,55,3636959496
10820,3,ISIP_8,138,1,48,55,3637778672
10820,3,ISIP_8,139,1,48,59,3638587476
10820,3,ISIP_8,140,1,48,52,3639384508
10820,3,ISIP_8,141,1,48,57,3640160152
10820,3,ISIP_8,142,1,48,53,3640976260
10820,3,ISIP_8,143,1,48,57,3641771656
10820,3,ISIP_8,144,1,48,51,3642560240
10820,3,ISIP_8,145,1,48,54,3643343364
10820,3,ISIP_8,146,1,48,62,3644108840
10820,3,ISIP_8,147,1,48,57,3644882236
10820,3,ISIP_8,148,1,48,49,3645685404
10820,3,ISIP_8,149,1,48,58,3646445792
10820,3,ISIP_8,150,1,48,52,3647243576
10820,3,ISIP_8,151,1,48,58,3648008304
10820,3,ISIP_8,152,1,48,50,3648786564
10820,3,ISIP_8,153,1,48,57,3649557188
10820,3,ISIP_8,154,1,48,57,3650322592
10820,3,ISIP_8,155,1,48,62,3651105436
10820,3,ISIP_8,156,1,48,52,3651890060
10820,3,ISIP_8,157,1,48,57,3652651864
10820,3,ISIP_8,158,1,48,59,3653448980
10820,3,ISIP_8,159,1,48,59,3654256036
10820,3,ISIP_8,160,1,48,56,3655012980
10820,3,ISIP_8,161,1,48,52,3655788928
10820,3,ISIP_8,162,1,48,61,3656584468
10820,3,ISIP_8,163,1,48,58,3657367064
10820,3,ISIP_8,164,1,48,61,3658142172
10820,3,ISIP_8,165,1,48,51,3658897924
10820,3,ISIP_8,166,1,48,58,3659655160
10820,3,ISIP_8,167,1,48,49,3660406276
10820,3,ISIP_8,168,1,48,56,3661177060
10820,3,ISIP_8,169,1,48,48,3661921064
10820,3,ISIP_8,170,1,48,63,3662717948
10820,3,ISIP_8,171,1,48,62,3663542812
10820,3,ISIP_8,172,1,48,63,3664365356
10820,3,ISIP_8,173,1,48,57,3665165156
10820,3,ISIP_8,174,1,48,58,3665940428
10820,3,ISIP_8,175,1,48,64,3666721936
10820,3,ISIP_8,176,1,48,58,3667513208
10820,3,ISIP_8,177,1,48,60,3668311148
10820,3,ISIP_8,178,1,48,59,3669154856
10820,3,ISIP_8,179,1,48,62,3669933712
10820,3,ISIP_8,180,1,48,51,3670809436
10820,3,ISIP_8,181,1,48,61,3671584580
10820,3,ISIP_8,0,9999,9999,9999,3551744084
10820,3,ISIP_8,1,9999,9999,9999,3552543836
10820,3,ISIP_8,2,9999,9999,9999,3553343544
10820,3,ISIP_8,3,9999,9999,9999,3554143344
10820,3,ISIP_8,4,9999,9999,9999,3554944056
10820,3,ISIP_8,5,9999,9999,9999,3555743864
10820,3,ISIP_8,6,9999,9999,9999,3556543596
10820,3,ISIP_8,7,9999,9999,9999,3557343328
10820,3,ISIP_8,8,9999,9999,9999,3558144108
10820,3,ISIP_8,9,9999,9999,9999,3558943836
10820,3,ISIP_8,10,9999,9999,9999,3559743568
10820,3,ISIP_8,11,9999,9999,9999,3560543300
10820,3,ISIP_8,12,9999,9999,9999,3561344080
10820,3,ISIP_8,13,9999,9999,9999,3562143816
10820,3,ISIP_8,14,9999,9999,9999,3562943548
10820,3,ISIP_8,15,9999,9999,9999,3563743284
10820,3,ISIP_8,16,9999,9999,9999,3564544064
10820,3,ISIP_8,17,9999,9999,9999,3565343796
10820,3,ISIP_8,18,9999,9999,9999,3566143548
10820,3,ISIP_8,19,9999,9999,9999,3566943284
10820,3,ISIP_8,20,9999,9999,9999,3567744064
10820,3,ISIP_8,21,9999,9999,9999,3568543796
10820,3,ISIP_8,22,9999,9999,9999,3569343604
10820,3,ISIP_8,23,9999,9999,9999,3570143336
10820,3,ISIP_8,24,9999,9999,9999,3570944104
10820,3,ISIP_8,25,9999,9999,9999,3571743836
10820,3,ISIP_8,26,9999,9999,9999,3572543604
10820,3,ISIP_8,27,9999,9999,9999,3573343336
10820,3,ISIP_8,28,9999,9999,9999,3574144116
10820,3,ISIP_8,29,9999,9999,9999,3574943852
10820,3,ISIP_8,30,9999,9999,9999,3575743584
10820,3,ISIP_8,31,9999,9999,9999,3576543312
10820,3,ISIP_8,32,9999,9999,9999,3577344088
10820,3,ISIP_8,33,9999,9999,9999,3578143816
10820,3,ISIP_8,34,9999,9999,9999,3578943572
10820,3,ISIP_8,35,9999,9999,9999,3579743284
10820,3,ISIP_8,36,9999,9999,9999,3580544060
10820,3,ISIP_8,37,9999,9999,9999,3581343840
10820,3,ISIP_8,38,9999,9999,9999,3582143568
10820,3,ISIP_8,39,9999,9999,9999,3582943296
10820,3,ISIP_8,40,9999,9999,9999,3583744072
10820,3,ISIP_8,41,9999,9999,9999,3584543800
10820,3,ISIP_8,42,9999,9999,9999,3585343556
10820,3,ISIP_8,43,9999,9999,9999,3586143284
10820,3,ISIP_8,44,9999,9999,9999,3586944060
10820,3,ISIP_8,45,9999,9999,9999,3587743864
10820,3,ISIP_8,46,9999,9999,9999,3588543592
10820,3,ISIP_8,47,9999,9999,9999,3589343320
10820,3,ISIP_8,48,9999,9999,9999,3590144096
10820,3,ISIP_8,49,9999,9999,9999,3590943824
10820,3,ISIP_8,50,9999,9999,9999,3591743580
10820,3,ISIP_8,51,9999,9999,9999,3592543308
10820,3,ISIP_8,52,9999,9999,9999,3593344084
10820,3,ISIP_8,53,9999,9999,9999,3594143812
10820,3,ISIP_8,54,9999,9999,9999,3594943536
10820,3,ISIP_8,55,9999,9999,9999,3595743344
10820,3,ISIP_8,56,9999,9999,9999,3596544104
10820,3,ISIP_8,57,9999,9999,9999,3597343832
10820,3,ISIP_8,58,9999,9999,9999,3598143584
10820,3,ISIP_8,59,9999,9999,9999,3598943316
10820,3,ISIP_8,60,9999,9999,9999,3599744092
10820,3,ISIP_8,61,9999,9999,9999,3600543820
10820,3,ISIP_8,62,9999,9999,9999,3601343548
10820,3,ISIP_8,63,9999,9999,9999,3602143280
10820,3,ISIP_8,64,9999,9999,9999,3602944056
10820,3,ISIP_8,65,9999,9999,9999,3603743860
10820,3,ISIP_8,66,9999,9999,9999,3604543540
10820,3,ISIP_8,67,9999,9999,9999,3605343344
10820,3,ISIP_8,68,9999,9999,9999,3606144120
10820,3,ISIP_8,69,9999,9999,9999,3606943848
10820,3,ISIP_8,70,9999,9999,9999,3607743580
10820,3,ISIP_8,71,9999,9999,9999,3608543308
10820,3,ISIP_8,72,9999,9999,9999,3609344084
10820,3,ISIP_8,73,9999,9999,9999,3610143812
10820,3,ISIP_8,74,9999,9999,9999,3610943568
10820,3,ISIP_8,75,9999,9999,9999,3611743296
10820,3,ISIP_8,76,9999,9999,9999,3612544072
10820,3,ISIP_8,77,9999,9999,9999,3613343796
10820,3,ISIP_8,78,9999,9999,9999,3614143596
10820,3,ISIP_8,79,9999,9999,9999,3614943312
10820,3,ISIP_8,80,9999,9999,9999,3615744088
10820,3,ISIP_8,81,9999,9999,9999,3616543816
10820,3,ISIP_8,82,9999,9999,9999,3617343572
10820,3,ISIP_8,83,9999,9999,9999,3618143300
10820,3,ISIP_8,84,9999,9999,9999,3618944076
10820,3,ISIP_8,85,9999,9999,9999,3619743804
10820,3,ISIP_8,86,9999,9999,9999,3620543532
10820,3,ISIP_8,87,9999,9999,9999,3621343336
10820,3,ISIP_8,88,9999,9999,9999,3622144112
10820,3,ISIP_8,89,9999,9999,9999,3622943844
10820,3,ISIP_8,90,9999,9999,9999,3623743596
10820,3,ISIP_8,91,9999,9999,9999,3624543324
10820,3,ISIP_8,92,9999,9999,9999,3625344100
10820,3,ISIP_8,93,9999,9999,9999,3626143828
10820,3,ISIP_8,94,9999,9999,9999,3626943560
10820,3,ISIP_8,95,9999,9999,9999,3627743288
10820,3,ISIP_8,96,9999,9999,9999,3628544064
10820,3,ISIP_8,97,9999,9999,9999,3629343792
10820,3,ISIP_8,98,9999,9999,9999,3630143548
10820,3,ISIP_8,99,9999,9999,9999,3630943352
10820,3,ISIP_8,100,9999,9999,9999,3631744052
10820,3,ISIP_8,101,9999,9999,9999,3632543856
10820,3,ISIP_8,102,9999,9999,9999,3633343584
10820,3,ISIP_8,103,9999,9999,9999,3634143312
10820,3,ISIP_8,104,9999,9999,9999,3634944088
10820,3,ISIP_8,105,9999,9999,9999,3635743820
10820,3,ISIP_8,106,9999,9999,9999,3636543572
10820,3,ISIP_8,107,9999,9999,9999,3637343304
10820,3,ISIP_8,108,9999,9999,9999,3638144080
10820,3,ISIP_8,109,9999,9999,9999,3638943808
10820,3,ISIP_8,110,9999,9999,9999,3639743540
10820,3,ISIP_8,111,9999,9999,9999,3640543340
10820,3,ISIP_8,112,9999,9999,9999,3641344116
10820,3,ISIP_8,113,9999,9999,9999,3642143796
10820,3,ISIP_8,114,9999,9999,9999,3642943600
10820,3,ISIP_8,115,9999,9999,9999,3643743332
10820,3,ISIP_8,116,9999,9999,9999,3644544104
10820,3,ISIP_8,117,9999,9999,9999,3645343836
10820,3,ISIP_8,118,9999,9999,9999,3646143564
10820,3,ISIP_8,119,9999,9999,9999,3646943292
10820,3,ISIP_8,120,9999,9999,9999,3647744068
10820,3,ISIP_8,121,9999,9999,9999,3648543824
10820,3,ISIP_8,122,9999,9999,9999,3649343552
10820,3,ISIP_8,123,9999,9999,9999,3650143280
10820,3,ISIP_8,124,9999,9999,9999,3650944056
10820,3,ISIP_8,125,9999,9999,9999,3651743860
10820,3,ISIP_8,126,9999,9999,9999,3652543588
10820,3,ISIP_8,127,9999,9999,9999,3653343320
10820,3,ISIP_8,128,9999,9999,9999,3654144096
10820,3,ISIP_8,129,9999,9999,9999,3654943848
10820,3,ISIP_8,130,9999,9999,9999,3655743580
10820,3,ISIP_8,131,9999,9999,9999,3656543308
10820,3,ISIP_8,132,9999,9999,9999,3657344084
10820,3,ISIP_8,133,9999,9999,9999,3658143808
10820,3,ISIP_8,134,9999,9999,9999,3658943536
10820,3,ISIP_8,135,9999,9999,9999,3659743340
10820,3,ISIP_8,136,9999,9999,9999,3660544104
10820,3,ISIP_8,137,9999,9999,9999,3661343856
10820,3,ISIP_8,138,9999,9999,9999,3662143588
10820,3,ISIP_8,139,9999,9999,9999,3662943316
10820,3,ISIP_8,140,9999,9999,9999,3663744092
10820,3,ISIP_8,141,9999,9999,9999,3664543820
10820,3,ISIP_8,142,9999,9999,9999,3665343552
10820,3,ISIP_8,143,9999,9999,9999,3666143280
10820,3,ISIP_8,144,9999,9999,9999,3666944056
10820,3,ISIP_8,145,9999,9999,9999,3667743812
10820,3,ISIP_8,146,9999,9999,9999,3668543540
10820,3,ISIP_8,147,9999,9999,9999,3669343344
10820,3,ISIP_8,148,9999,9999,9999,3670144116
10820,3,ISIP_8,149,9999,9999,9999,3670943848
10821,5,ISIP_5,0,5,42,127,3693175092
10821,5,ISIP_5,1,5,42,127,3693674884
10821,5,ISIP_5,2,5,42,127,3694174524
10821,5,ISIP_5,3,5,42,127,3694675732
10821,5,ISIP_5,4,5,42,127,3695175080
10821,5,ISIP_5,5,1,48,49,3695237588
10821,5,ISIP_5,6,5,42,127,3695674700
10821,5,ISIP_5,7,1,48,48,3695732344
10821,5,ISIP_5,8,5,42,127,3696174544
10821,5,ISIP_5,9,1,48,46,3696241092
10821,5,ISIP_5,10,5,42,127,3696675288
10821,5,ISIP_5,11,1,48,53,3696720520
10821,5,ISIP_5,12,5,42,127,3697174884
10821,5,ISIP_5,13,1,48,57,3697189324
10821,5,ISIP_5,14,5,42,127,3697674576
10821,5,ISIP_5,15,1,48,54,3697695444
10821,5,ISIP_5,16,5,42,127,3698175540
10821,5,ISIP_5,17,1,48,56,3698205512
10821,5,ISIP_5,18,5,42,127,3698674988
10821,5,ISIP_5,19,1,48,62,3698676252
10821,5,ISIP_5,20,1,48,64,3699162528
10821,5,ISIP_5,21,5,42,127,3699174752
10821,5,ISIP_5,22,5,42,127,3699674452
10821,5,ISIP_5,23,1,48,56,3699687820
10821,5,ISIP_5,24,5,42,127,3700175420
10821,5,ISIP_5,25,1,48,56,3700183404
10821,5,ISIP_5,26,5,42,127,3700674892
10821,5,ISIP_5,27,1,48,52,3700687060
10821,5,ISIP_5,28,1,48,58,3701174584
10821,5,ISIP_5,29,5,42,127,3701175920
10821,5,ISIP_5,30,1,48,54,3701664588
10821,5,ISIP_5,31,5,42,127,3701675616
10821,5,ISIP_5,32,1,48,57,3702168028
10821,5,ISIP_5,33,5,42,127,3702175092
10821,5,ISIP_5,34,5,42,127,3702674716
10821,5,ISIP_5,35,1,48,59,3702680528
10821,5,ISIP_5,36,5,42,127,3703174488
10821,5,ISIP_5,37,1,48,60,3703187480
10821,5,ISIP_5,38,1,48,58,3703664868
10821,5,ISIP_5,39,5,42,127,3703675520
10821,5,ISIP_5,40,1,48,57,3704170844
10821,5,ISIP_5,41,5,42,127,3704174992
10821,5,ISIP_5,42,1,48,58,3704671292
10821,5,ISIP_5,43,5,42,127,3704674536
10821,5,ISIP_5,44,1,48,60,3705168140
10821,5,ISIP_5,45,5,42,127,3705175500
10821,5,ISIP_5,46,1,48,60,3705664240
10821,5,ISIP_5,47,5,42,127,3705675196
10821,5,ISIP_5,48,1,48,61,3706161472
10821,5,ISIP_5,49,5,42,127,3706174744
10821,5,ISIP_5,50,1,48,62,3706647828
10821,5,ISIP_5,51,5,42,127,3706674512
10821,5,ISIP_5,52,1,48,62,3707154556
10821,5,ISIP_5,53,5,42,127,3707175552
10821,5,ISIP_5,54,1,48,54,3707645792
10821,5,ISIP_5,55,5,42,127,3707674924
10821,5,ISIP_5,56,1,48,56,3708130804
10821,5,ISIP_5,57,5,42,127,3708174744
10821,5,ISIP_5,58,1,48,56,3708635132
10821,5,ISIP_5,59,5,42,127,3708674364
10821,5,ISIP_5,60,1,48,58,3709159888
10821,5,ISIP_5,61,5,42,127,3709175252
10821,5,ISIP_5,62,1,48,59,3709631908
10821,5,ISIP_5,63,5,42,127,3709674800
10821,5,ISIP_5,64,1,48,59,3710127340
10821,5,ISIP_5,65,5,42,127,3710174496
10821,5,ISIP_5,66,1,48,62,3710628824
10821,5,ISIP_5,67,5,42,127,3710675308
10821,5,ISIP_5,68,1,48,59,3711163976
10821,5,ISIP_5,69,5,42,127,3711175152
10821,5,ISIP_5,70,1,48,59,3711666112
10821,5,ISIP_5,71,5,42,127,3711674752
10821,5,ISIP_5,72,1,48,60,3712170376
10821,5,ISIP_5,73,5,42,127,3712174520
10821,5,ISIP_5,74,1,48,60,3712670820
10821,5,ISIP_5,75,5,42,127,3712675264
10821,5,ISIP_5,76,1,48,55,3713180776
10821,5,ISIP_5,77,1,48,53,3713709116
10821,5,ISIP_5,78,1,48,54,3714218676
10821,5,ISIP_5,79,1,48,61,3714749856
10821,5,ISIP_5,80,1,48,60,3715239228
10821,5,ISIP_5,81,1,48,54,3715769736
10821,5,ISIP_5,82,1,48,53,3716278328
10821,5,ISIP_5,83,1,48,60,3716821324
10821,5,ISIP_5,84,1,48,64,3717332456
10821,5,ISIP_5,85,1,48,52,3717851068
10821,5,ISIP_5,86,1,48,64,3718388680
10821,5,ISIP_5,87,1,48,61,3718920464
10821,5,ISIP_5,88,1,48,62,3719443864
10821,5,ISIP_5,89,1,48,62,3719977240
10821,5,ISIP_5,90,1,48,63,3720460220
10821,5,ISIP_5,91,1,48,61,3721033092
10821,5,ISIP_5,92,1,48,59,3721609452
10821,5,ISIP_5,93,1,48,57,3722187244
10821,5,ISIP_5,94,1,48,57,3722773320
10821,5,ISIP_5,95,1,48,64,3723302212
10821,5,ISIP_5,96,1,48,67,3723827708
10821,5,ISIP_5,97,1,48,57,3724419548
10821,5,ISIP_5,98,1,48,62,3724943476
10821,5,ISIP_5,99,1,48,65,3725498064
10821,5,ISIP_5,100,1,48,60,3726049816
10821,5,ISIP_5,101,1,48,56,3726599176
10821,5,ISIP_5,102,1,48,56,3727132000
10821,5,ISIP_5,103,1,48,59,3727688100
10821,5,ISIP_5,104,1,48,61,3728216364
10821,5,ISIP_5,105,1,48,59,3728736552
10821,5,ISIP_5,106,1,48,64,3729308492
10821,5,ISIP_5,107,1,48,61,3729869072
10821,5,ISIP_5,108,1,48,52,3730391796
10821,5,ISIP_5,109,1,48,62,3730952968
10821,5,ISIP_5,110,1,48,62,3731490532
10821,5,ISIP_5,111,1,48,62,3732030916
10821,5,ISIP_5,112,1,48,66,3732561048
10821,5,ISIP_5,113,1,48,60,3733110552
10821,5,ISIP_5,114,1,48,55,3733689620
10821,5,ISIP_5,115,1,48,61,3734269348
10821,5,ISIP_5,116,1,48,63,3734808828
10821,5,ISIP_5,117,1,48,58,3735386260
10821,5,ISIP_5,118,1,48,53,3735957680
10821,5,ISIP_5,119,1,48,64,3736542936
10821,5,ISIP_5,120,1,48,62,3737090128
10821,5,ISIP_5,121,1,48,61,3737629784
10821,5,ISIP_5,122,1,48,54,3738187908
10821,5,ISIP_5,123,1,48,54,3738767556
10821,5,ISIP_5,124,1,48,57,3739304492
10821,5,ISIP_5,125,1,48,54,3739866640
10821,5,ISIP_5,126,1,48,57,3740427736
10821,5,ISIP_5,127,1,48,58,3741027304
10821,5,ISIP_5,128,1,48,54,3741603292
10821,5,ISIP_5,129,1,48,67,3742142928
10821,5,ISIP_5,130,1,48,59,3742710324
10821,5,ISIP_5,131,1,48,50,3743307496
10821,5,ISIP_5,132,1,48,59,3743852292
10821,5,ISIP_5,133,1,48,63,3744430820
10821,5,ISIP_5,134,1,48,63,3745002240
10821,5,ISIP_5,135,1,48,63,3745584904
10821,5,ISIP_5,136,1,48,64,3746149076
10821,5,ISIP_5,137,1,48,68,3746722380
10821,5,ISIP_5,138,1,48,66,3747320728
10821,5,ISIP_5,139,1,48,55,3747878412
10821,5,ISIP_5,140,1,48,61,3748431884
10821,5,ISIP_5,141,1,48,67,3748986100
10821,5,ISIP_5,142,1,48,66,3749539496
10821,5,ISIP_5,143,1,48,65,3750120412
10821,5,ISIP_5,144,1,48,57,3750656608
10821,5,ISIP_5,145,1,48,66,3751207276
10821,5,ISIP_5,146,1,48,67,3751765232
10821,5,ISIP_5,147,1,48,51,3752383628
10821,5,ISIP_5,148,1,48,60,3752963796
10821,5,ISIP_5,149,1,48,61,3753513552
10821,5,ISIP_5,150,1,48,59,3754081084
10821,5,ISIP_5,151,1,48,63,3754665596
10821,5,ISIP_5,152,1,48,58,3755185348
10821,5,ISIP_5,153,1,48,61,3755753632
10821,5,ISIP_5,154,1,48,64,3756325672
10821,5,ISIP_5,155,1,48,58,3756896796
10821,5,ISIP_5,156,1,48,57,3757474204
10821,5,ISIP_5,157,1,48,57,3758050784
10821,5,ISIP_5,158,1,48,62,3758639140
10821,5,ISIP_5,159,1,48,65,3759196508
10821,5,ISIP_5,160,1,48,62,3759785728
10821,5,ISIP_5,161,1,48,55,3760334636
10821,5,ISIP_5,162,1,48,55,3760900748
10821,5,ISIP_5,163,1,48,67,3761430208
10821,5,ISIP_5,164,1,48,63,3761998512
10821,5,ISIP_5,165,1,48,49,3762627684
10821,5,ISIP_5,166,1,48,63,3763182360
10821,5,ISIP_5,167,1,48,63,3763748124
10821,5,ISIP_5,168,1,48,59,3764324408
10821,5,ISIP_5,169,1,48,57,3764926644
10821,5,ISIP_5,170,1,48,60,3765525288
10821,5,ISIP_5,171,1,48,48,3766105860
10821,5,ISIP_5,172,1,48,54,3766657540
10821,5,ISIP_5,173,1,48,54,3767264432
10821,5,ISIP_5,174,1,48,60,3767833908
10821,5,ISIP_5,175,1,48,51,3768412804
10821,5,ISIP_5,176,1,48,57,3768972032
10821,5,ISIP_5,177,1,48,65,3769532012
10821,5,ISIP_5,178,1,48,61,3770068876
10821,5,ISIP_5,179,1,48,50,3770610980
10821,5,ISIP_5,180,1,48,63,3771184832
10821,5,ISIP_5,181,1,48,62,3771754980
10821,5,ISIP_5,182,1,48,61,3772297152
10821,5,ISIP_5,183,1,48,60,3772900596
10821,5,ISIP_5,0,9999,9999,9999,3693172804
10821,5,ISIP_5,1,9999,9999,9999,3693672520
10821,5,ISIP_5,2,9999,9999,9999,3694172240
10821,5,ISIP_5,3,9999,9999,9999,3694673000
10821,5,ISIP_5,4,9999,9999,9999,3695172720
10821,5,ISIP_5,5,9999,9999,9999,3695672412
10821,5,ISIP_5,6,9999,9999,9999,3696172108
10821,5,ISIP_5,7,9999,9999,9999,3696672852
10821,5,ISIP_5,8,9999,9999,9999,3697172596
10821,5,ISIP_5,9,9999,9999,9999,3697672292
10821,5,ISIP_5,10,9999,9999,9999,3698173032
10821,5,ISIP_5,11,9999,9999,9999,3698672700
10821,5,ISIP_5,12,9999,9999,9999,3699172464
10821,5,ISIP_5,13,9999,9999,9999,3699672168
10821,5,ISIP_5,14,9999,9999,9999,3700172908
10821,5,ISIP_5,15,9999,9999,9999,3700672604
10821,5,ISIP_5,16,9999,9999,9999,3701172300
10821,5,ISIP_5,17,9999,9999,9999,3701673032
10821,5,ISIP_5,18,9999,9999,9999,3702172732
10821,5,ISIP_5,19,9999,9999,9999,3702672504
10821,5,ISIP_5,20,9999,9999,9999,3703172200
10821,5,ISIP_5,21,9999,9999,9999,3703672936
10821,5,ISIP_5,22,9999,9999,9999,3704172632
10821,5,ISIP_5,23,9999,9999,9999,3704672324
10821,5,ISIP_5,24,9999,9999,9999,3705173064
10821,5,ISIP_5,25,9999,9999,9999,3705672760
10821,5,ISIP_5,26,9999,9999,9999,3706172532
10821,5,ISIP_5,27,9999,9999,9999,3706672228
10821,5,ISIP_5,28,9999,9999,9999,3707172968
10821,5,ISIP_5,29,9999,9999,9999,3707672636
10821,5,ISIP_5,30,9999,9999,9999,3708172384
10821,5,ISIP_5,31,9999,9999,9999,3708672076
10821,5,ISIP_5,32,9999,9999,9999,3709172820
10821,5,ISIP_5,33,9999,9999,9999,3709672512
10821,5,ISIP_5,34,9999,9999,9999,3710172208
10821,5,ISIP_5,35,9999,9999,9999,3710672948
10821,5,ISIP_5,36,9999,9999,9999,3711172720
10821,5,ISIP_5,37,9999,9999,9999,3711672388
10821,5,ISIP_5,38,9999,9999,9999,3712172084
10821,5,ISIP_5,39,9999,9999,9999,3712672828
10821,5,ISIP_5,40,9999,9999,9999,3713172528
10821,5,ISIP_5,41,9999,9999,9999,3713672296
10821,5,ISIP_5,42,9999,9999,9999,3714173032
10821,5,ISIP_5,43,9999,9999,9999,3714672724
10821,5,ISIP_5,44,9999,9999,9999,3715172412
10821,5,ISIP_5,45,9999,9999,9999,3715672180
10821,5,ISIP_5,46,9999,9999,9999,3716172916
10821,5,ISIP_5,47,9999,9999,9999,3716672608
10821,5,ISIP_5,48,9999,9999,9999,3717172296
10821,5,ISIP_5,49,9999,9999,9999,3717673032
10821,5,ISIP_5,50,9999,9999,9999,3718172724
10821,5,ISIP_5,51,9999,9999,9999,3718672464
10821,5,ISIP_5,52,9999,9999,9999,3719172156
10821,5,ISIP_5,53,9999,9999,9999,3719672892
10821,5,ISIP_5,54,9999,9999,9999,3720172660
10821,5,ISIP_5,55,9999,9999,9999,3720672352
10821,5,ISIP_5,56,9999,9999,9999,3721173088
10821,5,ISIP_5,57,9999,9999,9999,3721672796
10821,5,ISIP_5,58,9999,9999,9999,3722172492
10821,5,ISIP_5,59,9999,9999,9999,3722672180
10821,5,ISIP_5,60,9999,9999,9999,3723172920
10821,5,ISIP_5,61,9999,9999,9999,3723672684
10821,5,ISIP_5,62,9999,9999,9999,3724172376
10821,5,ISIP_5,63,9999,9999,9999,3724672068
10821,5,ISIP_5,64,9999,9999,9999,3725172804
10821,5,ISIP_5,65,9999,9999,9999,3725672496
10821,5,ISIP_5,66,9999,9999,9999,3726172260
10821,5,ISIP_5,67,9999,9999,9999,3726673012
10821,5,ISIP_5,68,9999,9999,9999,3727172680
10821,5,ISIP_5,69,9999,9999,9999,3727672376
10821,5,ISIP_5,70,9999,9999,9999,3728172140
10821,5,ISIP_5,71,9999,9999,9999,3728672880
10821,5,ISIP_5,72,9999,9999,9999,3729172544
10821,5,ISIP_5,73,9999,9999,9999,3729672312
10821,5,ISIP_5,74,9999,9999,9999,3730173048
10821,5,ISIP_5,75,9999,9999,9999,3730672736
10821,5,ISIP_5,76,9999,9999,9999,3731172428
10821,5,ISIP_5,77,9999,9999,9999,3731672116
10821,5,ISIP_5,78,9999,9999,9999,3732172856
10821,5,ISIP_5,79,9999,9999,9999,3732672620
10821,5,ISIP_5,80,9999,9999,9999,3733172324
10821,5,ISIP_5,81,9999,9999,9999,3733673072
10821,5,ISIP_5,82,9999,9999,9999,3734172764
10821,5,ISIP_5,83,9999,9999,9999,3734672456
10821,5,ISIP_5,84,9999,9999,9999,3735172144
10821,5,ISIP_5,85,9999,9999,9999,3735672880
10821,5,ISIP_5,86,9999,9999,9999,3736172648
10821,5,ISIP_5,87,9999,9999,9999,3736672340
10821,5,ISIP_5,88,9999,9999,9999,3737173092
10821,5,ISIP_5,89,9999,9999,9999,3737672780
10821,5,ISIP_5,90,9999,9999,9999,3738172480
10821,5,ISIP_5,91,9999,9999,9999,3738672244
10821,5,ISIP_5,92,9999,9999,9999,3739172980
10821,5,ISIP_5,93,9999,9999,9999,3739672648
10821,5,ISIP_5,94,9999,9999,9999,3740172336
10821,5,ISIP_5,95,9999,9999,9999,3740672104
10821,5,ISIP_5,96,9999,9999,9999,3741172840
10821,5,ISIP_5,97,9999,9999,9999,3741672548
10821,5,ISIP_5,98,9999,9999,9999,3742172240
10821,5,ISIP_5,99,9999,9999,9999,3742672980
10821,5,ISIP_5,100,9999,9999,9999,3743172672
10821,5,ISIP_5,101,9999,9999,9999,3743672436
10821,5,ISIP_5,102,9999,9999,9999,3744172128
10821,5,ISIP_5,103,9999,9999,9999,3744672864
10821,5,ISIP_5,104,9999,9999,9999,3745172556
10821,5,ISIP_5,105,9999,9999,9999,3745672260
10821,5,ISIP_5,106,9999,9999,9999,3746173000
10821,5,ISIP_5,107,9999,9999,9999,3746672696
10821,5,ISIP_5,108,9999,9999,9999,3747172464
10821,5,ISIP_5,109,9999,9999,9999,3747672152
10821,5,ISIP_5,110,9999,9999,9999,3748172892
10821,5,ISIP_5,111,9999,9999,9999,3748672580
10821,5,ISIP_5,112,9999,9999,9999,3749172272
10821,5,ISIP_5,113,9999,9999,9999,3749673008
10821,5,ISIP_5,114,9999,9999,9999,3750172788
10821,5,ISIP_5,115,9999,9999,9999,3750672456
10821,5,ISIP_5,116,9999,9999,9999,3751172152
10821,5,ISIP_5,117,9999,9999,9999,3751672888
10821,5,ISIP_5,118,9999,9999,9999,3752172656
10821,5,ISIP_5,119,9999,9999,9999,3752672344
10821,5,ISIP_5,120,9999,9999,9999,3753173080
10821,5,ISIP_5,121,9999,9999,9999,3753672772
10821,5,ISIP_5,122,9999,9999,9999,3754172480
10821,5,ISIP_5,123,9999,9999,9999,3754672244
10821,5,ISIP_5,124,9999,9999,9999,3755172912
10821,5,ISIP_5,125,9999,9999,9999,3755672680
10821,5,ISIP_5,126,9999,9999,9999,3756172372
10821,5,ISIP_5,127,9999,9999,9999,3756672064
10821,5,ISIP_5,128,9999,9999,9999,3757172800
10821,5,ISIP_5,129,9999,9999,9999,3757672568
10821,5,ISIP_5,130,9999,9999,9999,3758172256
10821,5,ISIP_5,131,9999,9999,9999,3758673008
10821,5,ISIP_5,132,9999,9999,9999,3759172708
10821,5,ISIP_5,133,9999,9999,9999,3759672396
10821,5,ISIP_5,134,9999,9999,9999,3760172088
10821,5,ISIP_5,135,9999,9999,9999,3760672824
10821,5,ISIP_5,136,9999,9999,9999,3761172564
10821,5,ISIP_5,137,9999,9999,9999,3761672256
10821,5,ISIP_5,138,9999,9999,9999,3762172992
10821,5,ISIP_5,139,9999,9999,9999,3762672700
10821,5,ISIP_5,140,9999,9999,9999,3763172468
10821,5,ISIP_5,141,9999,9999,9999,3763672160
10821,5,ISIP_5,142,9999,9999,9999,3764172896
10821,5,ISIP_5,143,9999,9999,9999,3764672588
10821,5,ISIP_5,144,9999,9999,9999,3765172280
10821,5,ISIP_5,145,9999,9999,9999,3765673016
10821,5,ISIP_5,146,9999,9999,9999,3766172724
10821,5,ISIP_5,147,9999,9999,9999,3766672488
10821,5,ISIP_5,148,9999,9999,9999,3767172188
10821,5,ISIP_5,149,9999,9999,9999,3767672924
10821,5,ISIP_5,150,9999,9999,9999,3768172664
10821,5,ISIP_5,151,9999,9999,9999,3768672356
10821,5,ISIP_5,152,9999,9999,9999,3769173092
10821,5,ISIP_5,153,9999,9999,9999,3769672780
10821,5,ISIP_5,154,9999,9999,9999,3770172472
10821,5,ISIP_5,155,9999,9999,9999,3770672180
10821,5,ISIP_5,156,9999,9999,9999,3771172924
10821,5,ISIP_5,157,9999,9999,9999,3771672660
10821,5,ISIP_5,158,9999,9999,9999,3772172352
10821,5,ISIP_5,159,9999,9999,9999,3772672120
10822,11,Pattern_Practice,0,5,42,127,3899929956
10822,11,Pattern_Practice,1,5,42,127,3900429572
10822,11,Pattern_Practice,2,5,42,127,3900930560
10822,11,Pattern_Practice,3,1,48,44,3901034608
10822,11,Pattern_Practice,4,1,48,32,3901327444
10822,11,Pattern_Practice,5,5,42,127,3901430160
10822,11,Pattern_Practice,6,1,38,32,3901614984
10822,11,Pattern_Practice,7,1,48,32,3901928336
10822,11,Pattern_Practice,8,5,42,127,3901929700
10822,11,Pattern_Practice,9,1,48,20,3902250072
10822,11,Pattern_Practice,10,5,42,127,3902429528
10822,11,Pattern_Practice,11,1,48,31,3902565660
10822,11,Pattern_Practice,12,1,38,39,3902845628
10822,11,Pattern_Practice,13,5,42,127,3902930484
10822,11,Pattern_Practice,14,1,48,40,3903167132
10822,11,Pattern_Practice,15,5,42,127,3903429868
10822,11,Pattern_Practice,16,1,48,27,3903502400
10822,11,Pattern_Practice,17,1,48,34,3903783440
10822,11,Pattern_Practice,18,5,42,127,3903929688
10822,11,Pattern_Practice,19,1,38,38,3904059388
10822,11,Pattern_Practice,20,1,48,30,3904350508
10822,11,Pattern_Practice,21,5,42,127,3904429528
10822,11,Pattern_Practice,22,1,48,32,3904666924
10822,11,Pattern_Practice,23,5,42,127,3904930108
10822,11,Pattern_Practice,24,1,48,39,3904957612
10822,11,Pattern_Practice,25,1,38,41,3905251116
10822,11,Pattern_Practice,26,5,42,127,3905429852
10822,11,Pattern_Practice,27,1,48,44,3905573020
10822,11,Pattern_Practice,28,1,48,34,3905878720
10822,11,Pattern_Practice,29,5,42,127,3905929468
10822,11,Pattern_Practice,30,1,48,40,3906181072
10822,11,Pattern_Practice,31,5,42,127,3906430564
10822,11,Pattern_Practice,32,1,38,46,3906457320
10822,11,Pattern_Practice,33,1,48,36,3906743948
10822,11,Pattern_Practice,34,5,42,127,3906930088
10822,11,Pattern_Practice,35,1,48,32,3907039572
10822,11,Pattern_Practice,36,1,48,41,3907305628
10822,11,Pattern_Practice,37,5,42,127,3907429836
10822,11,Pattern_Practice,38,1,38,30,3907603820
10822,11,Pattern_Practice,39,5,42,127,3907929532
10822,11,Pattern_Practice,40,1,48,41,3907936840
10822,11,Pattern_Practice,41,1,48,28,3908223688
10822,11,Pattern_Practice,42,5,42,127,3908430400
10822,11,Pattern_Practice,43,1,48,35,3908517220
10822,11,Pattern_Practice,44,1,38,42,3908831896
10822,11,Pattern_Practice,45,5,42,127,3908929924
10822,11,Pattern_Practice,46,1,48,32,3909166288
10822,11,Pattern_Practice,47,5,42,127,3909429544
10822,11,Pattern_Practice,48,1,48,30,3909498484
10822,11,Pattern_Practice,49,1,48,27,3909779204
10822,11,Pattern_Practice,50,5,42,127,3909930412
10822,11,Pattern_Practice,51,1,38,48,3910099136
10822,11,Pattern_Practice,52,5,42,127,3910430184
10822,11,Pattern_Practice,53,1,48,36,3910817560
10822,11,Pattern_Practice,54,5,42,127,3910929776
10822,11,Pattern_Practice,55,1,48,27,3911135172
10822,11,Pattern_Practice,56,5,42,127,3911429472
10822,11,Pattern_Practice,57,1,38,40,3911472260
10822,11,Pattern_Practice,58,1,48,34,3911763300
10822,11,Pattern_Practice,59,5,42,127,3911930416
10822,11,Pattern_Practice,60,1,48,38,3912078520
10822,11,Pattern_Practice,61,1,48,42,3912361184
10822,11,Pattern_Practice,62,5,42,127,3912429880
10822,11,Pattern_Practice,63,1,38,46,3912697344
10822,11,Pattern_Practice,64,5,42,127,3912929708
10822,11,Pattern_Practice,65,1,48,35,3913033452
10822,11,Pattern_Practice,66,1,48,39,3913328688
10822,11,Pattern_Practice,67,5,42,127,3913430428
10822,11,Pattern_Practice,68,1,48,42,3913633432
10822,11,Pattern_Practice,69,5,42,127,3913929976
10822,11,Pattern_Practice,70,1,38,48,3913943192
10822,11,Pattern_Practice,71,1,48,34,3914242832
10822,11,Pattern_Practice,72,5,42,127,3914429720
10822,11,Pattern_Practice,73,1,48,39,3914560696
10822,11,Pattern_Practice,74,1,48,42,3914858916
10822,11,Pattern_Practice,75,5,42,127,3914929484
10822,11,Pattern_Practice,76,1,38,50,3915182216
10822,11,Pattern_Practice,77,5,42,127,3915430432
10822,11,Pattern_Practice,78,1,48,42,3915485084
10822,11,Pattern_Practice,79,1,48,40,3915784432
10822,11,Pattern_Practice,80,5,42,127,3915930108
10822,11,Pattern_Practice,81,1,48,42,3916096452
10822,11,Pattern_Practice,82,1,38,48,3916416816
10822,11,Pattern_Practice,83,5,42,127,3916429644
10822,11,Pattern_Practice,84,1,48,38,3916739368
10822,11,Pattern_Practice,85,5,42,127,3916930296
10822,11,Pattern_Practice,86,1,48,43,3917044412
10822,11,Pattern_Practice,87,1,48,45,3917345952
10822,11,Pattern_Practice,88,5,42,127,3917430208
10822,11,Pattern_Practice,89,1,38,41,3917641272
10822,11,Pattern_Practice,90,5,42,127,3917929888
10822,11,Pattern_Practice,91,1,48,41,3917980276
10822,11,Pattern_Practice,92,1,48,43,3918268100
10822,11,Pattern_Practice,93,5,42,127,3918429484
10822,11,Pattern_Practice,94,1,48,43,3918599848
10822,11,Pattern_Practice,95,1,38,53,3918912756
10822,11,Pattern_Practice,96,5,42,127,3918930368
10822,11,Pattern_Practice,97,1,48,45,3919224084
10822,11,Pattern_Practice,98,5,42,127,3919429976
10822,11,Pattern_Practice,99,1,48,46,3919553816
10822,11,Pattern_Practice,100,1,38,43,3919900604
10822,11,Pattern_Practice,101,5,42,127,3919929664
10822,11,Pattern_Practice,102,5,42,127,3920429364
10822,11,Pattern_Practice,103,1,48,42,3920600108
10822,11,Pattern_Practice,104,1,48,45,3920895256
10822,11,Pattern_Practice,105,5,42,127,3920930320
10822,11,Pattern_Practice,106,1,38,59,3921230996
10822,11,Pattern_Practice,107,1,38,34,3921287068
10822,11,Pattern_Practice,108,5,42,127,3921429832
10822,11,Pattern_Practice,109,1,48,49,3921575288
10822,11,Pattern_Practice,110,1,48,53,3921907920
10822,11,Pattern_Practice,111,5,42,127,3921929644
10822,11,Pattern_Practice,112,1,38,55,3922250764
10822,11,Pattern_Practice,113,5,42,127,3922430296
10822,11,Pattern_Practice,114,5,42,127,3922930012
10822,11,Pattern_Practice,115,1,48,52,3923051260
10822,11,Pattern_Practice,116,1,48,46,3923363244
10822,11,Pattern_Practice,117,5,42,127,3923429924
10822,11,Pattern_Practice,118,1,38,47,3923691324
10822,11,Pattern_Practice,119,5,42,127,3923929380
10822,11,Pattern_Practice,120,1,48,49,3923991160
10822,11,Pattern_Practice,121,1,48,53,3924304944
10822,11,Pattern_Practice,122,5,42,127,3924430172
10822,11,Pattern_Practice,123,1,38,49,3924677684
10822,11,Pattern_Practice,124,5,42,127,3924929868
10822,11,Pattern_Practice,125,5,42,127,3925429508
10822,11,Pattern_Practice,126,1,48,56,3925445868
10822,11,Pattern_Practice,127,1,48,57,3925749176
10822,11,Pattern_Practice,128,5,42,127,3925930452
10822,11,Pattern_Practice,129,1,38,53,3926046236
10822,11,Pattern_Practice,130,1,48,52,3926355456
10822,11,Pattern_Practice,131,5,42,127,3926429992
10822,11,Pattern_Practice,132,1,48,52,3926653468
10822,11,Pattern_Practice,133,5,42,127,3926929744
10822,11,Pattern_Practice,134,1,38,56,3927003544
10822,11,Pattern_Practice,135,5,42,127,3927429584
10822,11,Pattern_Practice,136,1,48,52,3927775452
10822,11,Pattern_Practice,137,5,42,127,3927930180
10822,11,Pattern_Practice,138,1,48,54,3928084408
10822,11,Pattern_Practice,139,1,38,57,3928371788
10822,11,Pattern_Practice,140,5,42,127,3928429864
10822,11,Pattern_Practice,141,1,48,45,3928641680
10822,11,Pattern_Practice,142,5,42,127,3928929620
10822,11,Pattern_Practice,143,1,48,56,3928974172
10822,11,Pattern_Practice,144,1,38,68,3929262596
10822,11,Pattern_Practice,145,5,42,127,3929430264
10822,11,Pattern_Practice,146,5,42,127,3929930204
10822,11,Pattern_Practice,147,1,48,56,3930043872
10822,11,Pattern_Practice,148,5,42,127,3930429752
10822,11,Pattern_Practice,149,1,38,70,3930678456
10822,11,Pattern_Practice,150,5,42,127,3930929444
10822,11,Pattern_Practice,151,1,48,49,3931346968
10822,11,Pattern_Practice,152,5,42,127,3931430200
10822,11,Pattern_Practice,153,1,48,55,3931652984
10822,11,Pattern_Practice,154,5,42,127,3931929956
10822,11,Pattern_Practice,155,1,38,70,3932029340
10822,11,Pattern_Practice,156,1,38,40,3932069332
10822,11,Pattern_Practice,157,5,42,127,3932429528
10822,11,Pattern_Practice,158,1,48,51,3932686084
10822,11,Pattern_Practice,159,5,42,127,3932930344
10822,11,Pattern_Practice,160,1,38,65,3933359784
10822,11,Pattern_Practice,161,5,42,127,3933430056
10822,11,Pattern_Practice,162,5,42,127,3933930052
10822,11,Pattern_Practice,163,1,48,51,3934018464
10822,11,Pattern_Practice,164,1,48,49,3934354836
10822,11,Pattern_Practice,165,5,42,127,3934429520
10822,11,Pattern_Practice,166,1,38,59,3934692568
10822,11,Pattern_Practice,167,5,42,127,3934930316
10822,11,Pattern_Practice,168,1,48,57,3935338816
10822,11,Pattern_Practice,169,5,42,127,3935430176
10822,11,Pattern_Practice,170,5,42,127,3935929728
10822,11,Pattern_Practice,171,1,38,57,3936023228
10822,11,Pattern_Practice,172,5,42,127,3936429276
10822,11,Pattern_Practice,173,1,48,61,3936629064
10822,11,Pattern_Practice,174,5,42,127,3936930240
10822,11,Pattern_Practice,175,1,48,52,3936956696
10822,11,Pattern_Practice,176,1,38,61,3937266356
10822,11,Pattern_Practice,177,5,42,127,3937430136
10822,11,Pattern_Practice,178,5,42,127,3937929704
10822,11,Pattern_Practice,179,1,48,56,3937930596
10822,11,Pattern_Practice,180,1,48,57,3938234932
10822,11,Pattern_Practice,181,5,42,127,3938430276
10822,11,Pattern_Practice,182,1,38,51,3938558084
10822,11,Pattern_Practice,183,1,48,48,3938838444
10822,11,Pattern_Practice,184,5,42,127,3938930184
10822,11,Pattern_Practice,185,1,48,52,3939150304
10822,11,Pattern_Practice,186,1,48,32,3939225372
10822,11,Pattern_Practice,187,5,42,127,3939429696
10822,11,Pattern_Practice,188,1,48,55,3939531096
10822,11,Pattern_Practice,189,1,38,56,3939790648
10822,11,Pattern_Practice,0,9999,9999,9999,3899927668
10822,11,Pattern_Practice,1,9999,9999,9999,3900427360
10822,11,Pattern_Practice,2,9999,9999,9999,3900928052
10822,11,Pattern_Practice,3,9999,9999,9999,3901427796
10822,11,Pattern_Practice,4,9999,9999,9999,3901927492
10822,11,Pattern_Practice,5,9999,9999,9999,3902427240
10822,11,Pattern_Practice,6,9999,9999,9999,3902927972
10822,11,Pattern_Practice,7,9999,9999,9999,3903427652
10822,11,Pattern_Practice,8,9999,9999,9999,3903927400
10822,11,Pattern_Practice,9,9999,9999,9999,3904427088
10822,11,Pattern_Practice,10,9999,9999,9999,3904927820
10822,11,Pattern_Practice,11,9999,9999,9999,3905427564
10822,11,Pattern_Practice,12,9999,9999,9999,3905927256
10822,11,Pattern_Practice,13,9999,9999,9999,3906427980
10822,11,Pattern_Practice,14,9999,9999,9999,3906927728
10822,11,Pattern_Practice,15,9999,9999,9999,3907427400
10822,11,Pattern_Practice,16,9999,9999,9999,3907927096
10822,11,Pattern_Practice,17,9999,9999,9999,3908427888
10822,11,Pattern_Practice,18,9999,9999,9999,3908927596
10822,11,Pattern_Practice,19,9999,9999,9999,3909427256
10822,11,Pattern_Practice,20,9999,9999,9999,3909928052
10822,11,Pattern_Practice,21,9999,9999,9999,3910427744
10822,11,Pattern_Practice,22,9999,9999,9999,3910927416
10822,11,Pattern_Practice,23,9999,9999,9999,3911427184
10822,11,Pattern_Practice,24,9999,9999,9999,3911927904
10822,11,Pattern_Practice,25,9999,9999,9999,3912427592
10822,11,Pattern_Practice,26,9999,9999,9999,3912927348
10822,11,Pattern_Practice,27,9999,9999,9999,3913428068
10822,11,Pattern_Practice,28,9999,9999,9999,3913927760
10822,11,Pattern_Practice,29,9999,9999,9999,3914427508
10822,11,Pattern_Practice,30,9999,9999,9999,3914927196
10822,11,Pattern_Practice,31,9999,9999,9999,3915427924
10822,11,Pattern_Practice,32,9999,9999,9999,3915927672
10822,11,Pattern_Practice,33,9999,9999,9999,3916427356
10822,11,Pattern_Practice,34,9999,9999,9999,3916928084
10822,11,Pattern_Practice,35,9999,9999,9999,3917427772
10822,11,Pattern_Practice,36,9999,9999,9999,3917927524
10822,11,Pattern_Practice,37,9999,9999,9999,3918427196
10822,11,Pattern_Practice,38,9999,9999,9999,3918927932
10822,11,Pattern_Practice,39,9999,9999,9999,3919427684
10822,11,Pattern_Practice,40,9999,9999,9999,3919927376
10822,11,Pattern_Practice,41,9999,9999,9999,3920427076
10822,11,Pattern_Practice,42,9999,9999,9999,3920927812
10822,11,Pattern_Practice,43,9999,9999,9999,3921427544
10822,11,Pattern_Practice,44,9999,9999,9999,3921927280
10822,11,Pattern_Practice,45,9999,9999,9999,3922428008
10822,11,Pattern_Practice,46,9999,9999,9999,3922927724
10822,11,Pattern_Practice,47,9999,9999,9999,3923427412
10822,11,Pattern_Practice,48,9999,9999,9999,3923927092
10822,11,Pattern_Practice,49,9999,9999,9999,3924427884
10822,11,Pattern_Practice,50,9999,9999,9999,3924927580
10822,11,Pattern_Practice,51,9999,9999,9999,3925427296
10822,11,Pattern_Practice,52,9999,9999,9999,3925928016
10822,11,Pattern_Practice,53,9999,9999,9999,3926427704
10822,11,Pattern_Practice,54,9999,9999,9999,3926927456
10822,11,Pattern_Practice,55,9999,9999,9999,3927427148
10822,11,Pattern_Practice,56,9999,9999,9999,3927927892
10822,11,Pattern_Practice,57,9999,9999,9999,3928427580
10822,11,Pattern_Practice,58,9999,9999,9999,3928927332
10822,11,Pattern_Practice,59,9999,9999,9999,3929428052
10822,11,Pattern_Practice,60,9999,9999,9999,3929927768
10822,11,Pattern_Practice,61,9999,9999,9999,3930427464
10822,11,Pattern_Practice,62,9999,9999,9999,3930927156
10822,11,Pattern_Practice,63,9999,9999,9999,3931427916
10822,11,Pattern_Practice,64,9999,9999,9999,3931927668
10822,11,Pattern_Practice,65,9999,9999,9999,3932427316
10822,11,Pattern_Practice,66,9999,9999,9999,3932928060
10822,11,Pattern_Practice,67,9999,9999,9999,3933427768
10822,11,Pattern_Practice,68,9999,9999,9999,3933927540
10822,11,Pattern_Practice,69,9999,9999,9999,3934427232
10822,11,Pattern_Practice,70,9999,9999,9999,3934927956
10822,11,Pattern_Practice,71,9999,9999,9999,3935427668
10822,11,Pattern_Practice,72,9999,9999,9999,3935927368
10822,11,Pattern_Practice,73,9999,9999,9999,3936427060
10822,11,Pattern_Practice,74,9999,9999,9999,3936927804
10822,11,Pattern_Practice,75,9999,9999,9999,3937427552
10822,11,Pattern_Practice,76,9999,9999,9999,3937927264
10822,11,Pattern_Practice,77,9999,9999,9999,3938427988
10822,11,Pattern_Practice,78,9999,9999,9999,3938927672
10822,11,Pattern_Practice,79,9999,9999,9999,3939427408
10823,13,Improv_Metronome,0,5,42,127,3969853704
10823,13,Improv_Metronome,1,5,42,127,3970353492
10823,13,Improv_Metronome,2,5,42,127,3970854480
10823,13,Improv_Metronome,3,1,48,41,3970934792
10823,13,Improv_Metronome,4,1,48,50,3971198460
10823,13,Improv_Metronome,5,5,42,127,3971354080
10823,13,Improv_Metronome,6,1,38,44,3971464084
10823,13,Improv_Metronome,7,1,48,51,3971752284
10823,13,Improv_Metronome,8,5,42,127,3971853656
10823,13,Improv_Metronome,9,1,48,48,3972036432
10823,13,Improv_Metronome,10,1,38,50,3972305708
10823,13,Improv_Metronome,11,5,42,127,3972354660
10823,13,Improv_Metronome,12,5,42,127,3972854140
10823,13,Improv_Metronome,13,1,48,47,3972989084
10823,13,Improv_Metronome,14,1,48,49,3973238532
10823,13,Improv_Metronome,15,5,42,127,3973353740
10823,13,Improv_Metronome,16,1,38,50,3973523832
10823,13,Improv_Metronome,17,1,48,51,3973782564
10823,13,Improv_Metronome,18,5,42,127,3973853576
10823,13,Improv_Metronome,19,1,48,44,3974084240
10823,13,Improv_Metronome,20,5,42,127,3974354528
10823,13,Improv_Metronome,21,1,38,61,3974357796
10823,13,Improv_Metronome,22,1,38,38,3974404524
10823,13,Improv_Metronome,23,5,42,127,3974853976
10823,13,Improv_Metronome,24,1,48,47,3975071868
10823,13,Improv_Metronome,25,1,48,51,3975346452
10823,13,Improv_Metronome,26,5,42,127,3975353592
10823,13,Improv_Metronome,27,1,38,57,3975635044
10823,13,Improv_Metronome,28,5,42,127,3975853420
10823,13,Improv_Metronome,29,1,48,51,3975892072
10823,13,Improv_Metronome,30,1,48,45,3976178024
10823,13,Improv_Metronome,31,5,42,127,3976354212
10823,13,Improv_Metronome,32,1,38,63,3976458612
10823,13,Improv_Metronome,33,5,42,127,3976853908
10823,13,Improv_Metronome,34,1,38,54,3977220496
10823,13,Improv_Metronome,35,1,38,41,3977259468
10823,13,Improv_Metronome,36,5,42,127,3977353508
10823,13,Improv_Metronome,37,1,38,62,3977524192
10823,13,Improv_Metronome,38,1,38,38,3977570552
10823,13,Improv_Metronome,39,1,48,59,3977810356
10823,13,Improv_Metronome,40,5,42,127,3977854664
10823,13,Improv_Metronome,41,1,38,58,3978114576
10823,13,Improv_Metronome,42,5,42,127,3978353976
10823,13,Improv_Metronome,43,1,38,64,3978726620
10823,13,Improv_Metronome,44,1,38,50,3978758984
10823,13,Improv_Metronome,45,5,42,127,3978853796
10823,13,Improv_Metronome,46,1,48,56,3978971508
10823,13,Improv_Metronome,47,5,42,127,3979353344
10823,13,Improv_Metronome,48,5,42,127,3979854184
10823,13,Improv_Metronome,49,5,42,127,3980353900
10823,13,Improv_Metronome,50,1,48,67,3980354864
10823,13,Improv_Metronome,51,1,48,49,3980651200
10823,13,Improv_Metronome,52,5,42,127,3980853644
10823,13,Improv_Metronome,53,1,48,60,3980949964
10823,13,Improv_Metronome,54,1,38,59,3981246236
10823,13,Improv_Metronome,55,1,38,29,3981300896
10823,13,Improv_Metronome,56,5,42,127,3981354580
10823,13,Improv_Metronome,57,5,42,127,3981853984
10823,13,Improv_Metronome,58,1,48,48,3981880964
10823,13,Improv_Metronome,59,1,48,44,3982158468
10823,13,Improv_Metronome,60,5,42,127,3982353732
10823,13,Improv_Metronome,61,1,48,48,3982437036
10823,13,Improv_Metronome,62,1,38,47,3982727776
10823,13,Improv_Metronome,63,5,42,127,3982853532
10823,13,Improv_Metronome,64,5,42,127,3983354144
10823,13,Improv_Metronome,65,1,48,45,3983499252
10823,13,Improv_Metronome,66,1,48,52,3983766432
10823,13,Improv_Metronome,67,5,42,127,3983853984
10823,13,Improv_Metronome,68,1,48,48,3984098936
10823,13,Improv_Metronome,69,1,38,68,3984347192
10823,13,Improv_Metronome,70,5,42,127,3984353732
10823,13,Improv_Metronome,71,1,48,51,3984641912
10823,13,Improv_Metronome,72,5,42,127,3984854384
10823,13,Improv_Metronome,73,1,48,51,3984941896
10823,13,Improv_Metronome,74,1,48,59,3985210276
10823,13,Improv_Metronome,75,5,42,127,3985354056
10823,13,Improv_Metronome,76,1,38,65,3985482336
10823,13,Improv_Metronome,77,5,42,127,3985853676
10823,13,Improv_Metronome,78,1,48,49,3986021296
10823,13,Improv_Metronome,79,1,48,59,3986302468
10823,13,Improv_Metronome,80,5,42,127,3986353440
10823,13,Improv_Metronome,81,1,38,64,3986577448
10823,13,Improv_Metronome,82,1,48,50,3986836624
10823,13,Improv_Metronome,83,5,42,127,3986854380
10823,13,Improv_Metronome,84,1,48,55,3987118260
10823,13,Improv_Metronome,85,5,42,127,3987353840
10823,13,Improv_Metronome,86,1,48,55,3987406324
10823,13,Improv_Metronome,87,1,38,67,3987668492
10823,13,Improv_Metronome,88,5,42,127,3987853660
10823,13,Improv_Metronome,89,1,48,56,3988210596
10823,13,Improv_Metronome,90,5,42,127,3988354552
10823,13,Improv_Metronome,91,1,48,49,3988479368
10823,13,Improv_Metronome,92,1,38,59,3988776488
10823,13,Improv_Metronome,93,5,42,127,3988854088
10823,13,Improv_Metronome,94,1,48,54,3989070316
10823,13,Improv_Metronome,95,5,42,127,3989353844
10823,13,Improv_Metronome,96,1,48,52,3989371472
10823,13,Improv_Metronome,97,1,48,51,3989637160
10823,13,Improv_Metronome,98,5,42,127,3989853516
10823,13,Improv_Metronome,99,1,38,70,3989923204
10823,13,Improv_Metronome,100,5,42,127,3990354332
10823,13,Improv_Metronome,101,1,48,53,3990473240
10823,13,Improv_Metronome,102,1,48,50,3990733240
10823,13,Improv_Metronome,103,5,42,127,3990853856
10823,13,Improv_Metronome,104,1,38,63,3991006720
10823,13,Improv_Metronome,105,1,48,50,3991290800
10823,13,Improv_Metronome,106,5,42,127,3991353616
10823,13,Improv_Metronome,107,1,48,51,3991569992
10823,13,Improv_Metronome,108,1,48,54,3991835524
10823,13,Improv_Metronome,109,5,42,127,3991853364
10823,13,Improv_Metronome,110,1,38,69,3992120080
10823,13,Improv_Metronome,111,1,38,37,3992169052
10823,13,Improv_Metronome,112,5,42,127,3992354144
10823,13,Improv_Metronome,113,1,38,64,3992694324
10823,13,Improv_Metronome,114,5,42,127,3992853764
10823,13,Improv_Metronome,115,1,38,68,3992947988
10823,13,Improv_Metronome,116,1,48,81,3993231844
10823,13,Improv_Metronome,117,5,42,127,3993353560
10823,13,Improv_Metronome,118,1,38,64,3993756148
10823,13,Improv_Metronome,119,5,42,127,3993854240
10823,13,Improv_Metronome,120,1,38,63,3994030604
10823,13,Improv_Metronome,121,1,48,71,3994345104
10823,13,Improv_Metronome,122,5,42,127,3994354188
10823,13,Improv_Metronome,123,5,42,127,3994853664
10823,13,Improv_Metronome,124,1,38,59,3994885360
10823,13,Improv_Metronome,125,1,38,73,3995109080
10823,13,Improv_Metronome,126,1,38,35,3995150120
10823,13,Improv_Metronome,127,5,42,127,3995353316
10823,13,Improv_Metronome,128,1,48,73,3995417344
10823,13,Improv_Metronome,129,5,42,127,3995854208
10823,13,Improv_Metronome,130,1,38,61,3995910956
10823,13,Improv_Metronome,131,1,38,59,3996149488
10823,13,Improv_Metronome,132,5,42,127,3996353952
10823,13,Improv_Metronome,133,1,48,66,3996429104
10823,13,Improv_Metronome,134,5,42,127,3996853724
10823,13,Improv_Metronome,135,1,38,58,3996904412
10823,13,Improv_Metronome,136,1,38,59,3997160900
10823,13,Improv_Metronome,137,5,42,127,3997354296
10823,13,Improv_Metronome,138,1,48,63,3997460664
10823,13,Improv_Metronome,139,5,42,127,3997854140
10823,13,Improv_Metronome,140,1,48,48,3997963696
10823,13,Improv_Metronome,141,1,48,45,3998232244
10823,13,Improv_Metronome,142,5,42,127,3998353884
10823,13,Improv_Metronome,143,1,48,52,3998499000
10823,13,Improv_Metronome,144,1,48,47,3998765500
10823,13,Improv_Metronome,145,5,42,127,3998853500
10823,13,Improv_Metronome,146,1,38,62,3999037336
10823,13,Improv_Metronome,147,5,42,127,3999354300
10823,13,Improv_Metronome,148,1,48,52,3999660156
10823,13,Improv_Metronome,149,5,42,127,3999854072
10823,13,Improv_Metronome,150,1,48,41,3999942088
10823,13,Improv_Metronome,151,1,48,41,4000209564
10823,13,Improv_Metronome,152,5,42,127,4000353592
10823,13,Improv_Metronome,153,1,48,47,4000494640
10823,13,Improv_Metronome,154,1,38,57,4000777076
10823,13,Improv_Metronome,155,5,42,127,4000854476
10823,13,Improv_Metronome,156,5,42,127,4001354180
10823,13,Improv_Metronome,157,1,48,57,4001409360
10823,13,Improv_Metronome,158,1,48,46,4001677364
10823,13,Improv_Metronome,159,5,42,127,4001853776
10823,13,Improv_Metronome,160,1,38,56,4001961016
10823,13,Improv_Metronome,161,1,38,61,4002218472
10823,13,Improv_Metronome,162,5,42,127,4002353524
10823,13,Improv_Metronome,163,1,48,52,4002529948
10823,13,Improv_Metronome,164,1,48,46,4002813584
10823,13,Improv_Metronome,165,5,42,127,4002854184
10823,13,Improv_Metronome,166,1,38,57,4003113420
10823,13,Improv_Metronome,167,5,42,127,4003354088
10823,13,Improv_Metronome,168,1,38,51,4003381444
10823,13,Improv_Metronome,169,1,48,56,4003702852
10823,13,Improv_Metronome,170,5,42,127,4003853588
10823,13,Improv_Metronome,171,1,48,51,4003993384
10823,13,Improv_Metronome,172,1,38,52,4004289964
10823,13,Improv_Metronome,173,5,42,127,4004354324
10823,13,Improv_Metronome,174,1,38,53,4004582968
10823,13,Improv_Metronome,175,5,42,127,4004854076
10823,13,Improv_Metronome,176,1,48,49,4004882580
10823,13,Improv_Metronome,177,1,48,43,4005180052
10823,13,Improv_Metronome,178,5,42,127,4005353976
10823,13,Improv_Metronome,179,1,38,53,4005460864
10823,13,Improv_Metronome,180,1,38,50,4005739416
10823,13,Improv_Metronome,181,5,42,127,4005853576
10823,13,Improv_Metronome,182,1,48,46,4006052016
10823,13,Improv_Metronome,183,1,48,39,4006339392
10823,13,Improv_Metronome,184,5,42,127,4006354312
10823,13,Improv_Metronome,185,1,38,59,4006644584
10823,13,Improv_Metronome,186,5,42,127,4006854136
10823,13,Improv_Metronome,187,1,38,56,4006960880
10823,13,Improv_Metronome,188,1,48,41,4007274280
10823,13,Improv_Metronome,189,5,42,127,4007353752
10823,13,Improv_Metronome,190,1,48,29,4007548512
10823,13,Improv_Metronome,191,5,42,127,4007853432
10823,13,Improv_Metronome,192,1,48,42,4007859768
10823,13,Improv_Metronome,193,1,38,61,4008167488
10823,13,Improv_Metronome,194,5,42,127,4008354296
10823,13,Improv_Metronome,195,5,42,127,4008853792
10823,13,Improv_Metronome,196,1,48,53,4008856688
10823,13,Improv_Metronome,197,1,48,46,4009144588
10823,13,Improv_Metronome,198,5,42,127,4009353464
10823,13,Improv_Metronome,199,1,48,45,4009458760
10823,13,Improv_Metronome,200,1,38,70,4009729304
10823,13,Improv_Metronome,201,5,42,127,4009854332
10823,13,Improv_Metronome,202,5,42,127,4010354196
10823,13,Improv_Metronome,203,1,48,51,4010398008
10823,13,Improv_Metronome,204,1,48,39,4010674160
10823,13,Improv_Metronome,205,5,42,127,4010854020
10823,13,Improv_Metronome,206,1,48,41,4010942108
10823,13,Improv_Metronome,207,1,38,52,4011238840
10823,13,Improv_Metronome,208,5,42,127,4011353396
10823,13,Improv_Metronome,209,5,42,127,4011854160
10823,13,Improv_Metronome,210,1,48,41,4011861096
10823,13,Improv_Metronome,211,1,48,37,4012178164
10823,13,Improv_Metronome,212,5,42,127,4012354132
10823,13,Improv_Metronome,213,1,48,42,4012447308
10823,13,Improv_Metronome,214,1,38,54,4012718528
10823,13,Improv_Metronome,215,5,42,127,4012853580
10823,13,Improv_Metronome,216,1,48,38,4013315004
10823,13,Improv_Metronome,217,5,42,127,4013354336
10823,13,Improv_Metronome,218,1,48,25,4013639528
10823,13,Improv_Metronome,219,5,42,127,4013854168
10823,13,Improv_Metronome,220,1,48,44,4013917576
10823,13,Improv_Metronome,221,1,38,54,4014200312
10823,13,Improv_Metronome,222,5,42,127,4014354136
10823,13,Improv_Metronome,223,1,48,50,4014806148
10823,13,Improv_Metronome,224,5,42,127,4014853376
10823,13,Improv_Metronome,225,1,48,41,4015120940
10823,13,Improv_Metronome,226,5,42,127,4015354176
10823,13,Improv_Metronome,227,1,38,54,4015419484
10823,13,Improv_Metronome,228,5,42,127,4015854096
10823,13,Improv_Metronome,229,1,48,52,4015967040
10823,13,Improv_Metronome,230,1,48,39,4016245368
10823,13,Improv_Metronome,231,5,42,127,4016353768
10823,13,Improv_Metronome,232,1,38,55,4016523488
10823,13,Improv_Metronome,233,5,42,127,4016854364
10823,13,Improv_Metronome,234,1,48,54,4017098956
10823,13,Improv_Metronome,235,5,42,127,4017354056
10823,13,Improv_Metronome,236,1,48,42,4017403772
10823,13,Improv_Metronome,237,1,38,57,4017706804
10823,13,Improv_Metronome,238,5,42,127,4017853952
10823,13,Improv_Metronome,239,1,48,46,4018289228
10823,13,Improv_Metronome,240,5,42,127,4018353440
10823,13,Improv_Metronome,241,1,48,47,4018576024
10823,13,Improv_Metronome,242,5,42,127,4018854316
10823,13,Improv_Metronome,243,1,38,57,4018934924
10823,13,Improv_Metronome,244,5,42,127,4019354084
10823,13,Improv_Metronome,245,1,48,42,4019527844
10823,13,Improv_Metronome,246,1,48,44,4019803024
10823,13,Improv_Metronome,247,5,42,127,4019853848
10823,13,Improv_Metronome,248,1,38,54,4020090868
10823,13,Improv_Metronome,249,5,42,127,4020354352
10823,13,Improv_Metronome,250,1,48,49,4020655192
10823,13,Improv_Metronome,251,5,42,127,4020854044
10823,13,Improv_Metronome,252,1,48,42,4020950960
10823,13,Improv_Metronome,253,1,38,54,4021201988
10823,13,Improv_Metronome,254,5,42,127,4021354016
10823,13,Improv_Metronome,255,1,48,40,4021836040
10823,13,Improv_Metronome,256,5,42,127,4021853800
10823,13,Improv_Metronome,257,1,48,45,4022151336
10823,13,Improv_Metronome,258,5,42,127,4022354376
10823,13,Improv_Metronome,259,1,38,57,4022443144
10823,13,Improv_Metronome,260,5,42,127,4022853996
10823,13,Improv_Metronome,261,1,48,44,4023006936
10823,13,Improv_Metronome,262,1,48,42,4023305680
10823,13,Improv_Metronome,263,5,42,127,4023353908
10823,13,Improv_Metronome,264,1,38,56,4023616960
10823,13,Improv_Metronome,265,5,42,127,4023853364
10823,13,Improv_Metronome,266,1,48,46,4024209328
10823,13,Improv_Metronome,267,5,42,127,4024354104
10823,13,Improv_Metronome,268,1,48,44,4024529040
10823,13,Improv_Metronome,269,1,38,58,4024821348
10823,13,Improv_Metronome,270,5,42,127,4024853868
10823,13,Improv_Metronome,271,5,42,127,4025353692
10823,13,Improv_Metronome,272,1,48,52,4025416004
10823,13,Improv_Metronome,273,1,48,47,4025721932
10823,13,Improv_Metronome,274,5,42,127,4025854412
10823,13,Improv_Metronome,275,1,38,58,4025999676
10823,13,Improv_Metronome,276,5,42,127,4026353884
10823,13,Improv_Metronome,277,1,48,55,4026525172
10823,13,Improv_Metronome,278,1,48,45,4026827960
10823,13,Improv_Metronome,279,5,42,127,4026853868
10823,13,Improv_Metronome,280,1,38,55,4027112132
10823,13,Improv_Metronome,281,5,42,127,4027353324
10823,13,Improv_Metronome,282,1,48,41,4027683208
10823,13,Improv_Metronome,283,5,42,127,4027854140
10823,13,Improv_Metronome,284,1,48,43,4027994984
10823,13,Improv_Metronome,285,1,38,57,4028329860
10823,13,Improv_Metronome,286,5,42,127,4028353904
10823,13,Improv_Metronome,287,5,42,127,4028853608
10823,13,Improv_Metronome,288,1,48,41,4028950324
10823,13,Improv_Metronome,289,1,48,48,4029218772
10823,13,Improv_Metronome,290,5,42,127,4029354328
10823,13,Improv_Metronome,291,1,38,65,4029513876
10823,13,Improv_Metronome,292,5,42,127,4029854096
10823,13,Improv_Metronome,293,1,48,40,4030075948
10823,13,Improv_Metronome,294,5,42,127,4030353864
10823,13,Improv_Metronome,295,1,48,46,4030387652
10823,13,Improv_Metronome,296,1,38,64,4030693728
10823,13,Improv_Metronome,297,5,42,127,4030853388
10823,13,Improv_Metronome,298,1,48,47,4031330776
10823,13,Improv_Metronome,299,5,42,127,4031354072
10823,13,Improv_Metronome,300,1,48,44,4031640532
10823,13,Improv_Metronome,301,5,42,127,4031853900
10823,13,Improv_Metronome,302,1,38,73,4031937800
10823,13,Improv_Metronome,303,5,42,127,4032353740
10823,13,Improv_Metronome,304,1,48,50,4032528552
10823,13,Improv_Metronome,305,1,48,48,4032825500
10823,13,Improv_Metronome,306,5,42,127,4032854332
10823,13,Improv_Metronome,307,1,38,67,4033118200
10823,13,Improv_Metronome,308,5,42,127,4033354160
10823,13,Improv_Metronome,309,1,38,66,4033742808
10823,13,Improv_Metronome,310,5,42,127,4033853708
10823,13,Improv_Metronome,311,1,38,59,4034057804
10823,13,Improv_Metronome,312,5,42,127,4034353624
10823,13,Improv_Metronome,313,1,48,76,4034370428
10823,13,Improv_Metronome,314,1,48,34,4034419624
10823,13,Improv_Metronome,315,5,42,127,4034854120
10823,13,Improv_Metronome,316,1,38,58,4034966968
10823,13,Improv_Metronome,317,1,38,55,4035249784
10823,13,Improv_Metronome,318,5,42,127,4035354092
10823,13,Improv_Metronome,319,1,48,59,4035591332
10823,13,Improv_Metronome,320,5,42,127,4035853712
10823,13,Improv_Metronome,321,1,38,59,4036156044
10823,13,Improv_Metronome,322,5,42,127,4036354652
10823,13,Improv_Metronome,323,1,38,51,4036461844
10823,13,Improv_Metronome,324,1,48,47,4036788564
10823,13,Improv_Metronome,325,5,42,127,4036854044
10823,13,Improv_Metronome,326,5,42,127,4037353968
10823,13,Improv_Metronome,327,1,38,57,4037378484
10823,13,Improv_Metronome,328,1,38,51,4037656452
10823,13,Improv_Metronome,329,5,42,127,4037853568
10823,13,Improv_Metronome,330,1,48,51,4038011616
10823,13,Improv_Metronome,331,5,42,127,4038354756
10823,13,Improv_Metronome,332,1,38,55,4038615208
10823,13,Improv_Metronome,333,5,42,127,4038853928
10823,13,Improv_Metronome,334,1,38,59,4038920776
10823,13,Improv_Metronome,335,1,48,56,4039225828
10823,13,Improv_Metronome,336,5,42,127,4039353676
10823,13,Improv_Metronome,337,1,48,58,4039522352
10823,13,Improv_Metronome,338,1,38,64,4039815780
10823,13,Improv_Metronome,0,9999,9999,9999,3969851492
10823,13,Improv_Metronome,1,9999,9999,9999,3970351208
10823,13,Improv_Metronome,2,9999,9999,9999,3970851896
10823,13,Improv_Metronome,3,9999,9999,9999,3971351644
10823,13,Improv_Metronome,4,9999,9999,9999,3971851368
10823,13,Improv_Metronome,5,9999,9999,9999,3972352076
10823,13,Improv_Metronome,6,9999,9999,9999,3972851780
10823,13,Improv_Metronome,7,9999,9999,9999,3973351528
10823,13,Improv_Metronome,8,9999,9999,9999,3973851216
10823,13,Improv_Metronome,9,9999,9999,9999,3974351944
10823,13,Improv_Metronome,10,9999,9999,9999,3974851688
10823,13,Improv_Metronome,11,9999,9999,9999,3975351380
10823,13,Improv_Metronome,12,9999,9999,9999,3975851060
10823,13,Improv_Metronome,13,9999,9999,9999,3976351852
10823,13,Improv_Metronome,14,9999,9999,9999,3976851548
10823,13,Improv_Metronome,15,9999,9999,9999,3977351220
10823,13,Improv_Metronome,16,9999,9999,9999,3977852008
10823,13,Improv_Metronome,17,9999,9999,9999,3978351688
10823,13,Improv_Metronome,18,9999,9999,9999,3978851376
10823,13,Improv_Metronome,19,9999,9999,9999,3979351132
10823,13,Improv_Metronome,20,9999,9999,9999,3979851896
10823,13,Improv_Metronome,21,9999,9999,9999,3980351536
10823,13,Improv_Metronome,22,9999,9999,9999,3980851284
10823,13,Improv_Metronome,23,9999,9999,9999,3981351996
10823,13,Improv_Metronome,24,9999,9999,9999,3981851700
10823,13,Improv_Metronome,25,9999,9999,9999,3982351448
10823,13,Improv_Metronome,26,9999,9999,9999,3982851168
10823,13,Improv_Metronome,27,9999,9999,9999,3983351860
10823,13,Improv_Metronome,28,9999,9999,9999,3983851624
10823,13,Improv_Metronome,29,9999,9999,9999,3984351296
10823,13,Improv_Metronome,30,9999,9999,9999,3984852020
10823,13,Improv_Metronome,31,9999,9999,9999,3985351768
10823,13,Improv_Metronome,32,9999,9999,9999,3985851464
10823,13,Improv_Metronome,33,9999,9999,9999,3986351152
10823,13,Improv_Metronome,34,9999,9999,9999,3986851948
10823,13,Improv_Metronome,35,9999,9999,9999,3987351628
10823,13,Improv_Metronome,36,9999,9999,9999,3987851372
10823,13,Improv_Metronome,37,9999,9999,9999,3988352116
10823,13,Improv_Metronome,38,9999,9999,9999,3988851804
10823,13,Improv_Metronome,39,9999,9999,9999,3989351484
10823,13,Improv_Metronome,40,9999,9999,9999,3989851228
10823,13,Improv_Metronome,41,9999,9999,9999,3990351972
10823,13,Improv_Metronome,42,9999,9999,9999,3990851644
10823,13,Improv_Metronome,43,9999,9999,9999,3991351404
10823,13,Improv_Metronome,44,9999,9999,9999,3991851076
10823,13,Improv_Metronome,45,9999,9999,9999,3992351856
10823,13,Improv_Metronome,46,9999,9999,9999,3992851552
10823,13,Improv_Metronome,47,9999,9999,9999,3993351276
10823,13,Improv_Metronome,48,9999,9999,9999,3993851956
10823,13,Improv_Metronome,49,9999,9999,9999,3994351680
10823,13,Improv_Metronome,50,9999,9999,9999,3994851380
10823,13,Improv_Metronome,51,9999,9999,9999,3995351104
10823,13,Improv_Metronome,52,9999,9999,9999,3995851848
10823,13,Improv_Metronome,53,9999,9999,9999,3996351592
10823,13,Improv_Metronome,54,9999,9999,9999,3996851288
10823,13,Improv_Metronome,55,9999,9999,9999,3997352008
10823,13,Improv_Metronome,56,9999,9999,9999,3997851704
10823,13,Improv_Metronome,57,9999,9999,9999,3998351448
10823,13,Improv_Metronome,58,9999,9999,9999,3998851136
10823,13,Improv_Metronome,59,9999,9999,9999,3999351864
10823,13,Improv_Metronome,60,9999,9999,9999,3999851636
10823,13,Improv_Metronome,61,9999,9999,9999,4000351308
10823,13,Improv_Metronome,62,9999,9999,9999,4000852040
10823,13,Improv_Metronome,63,9999,9999,9999,4001351744
10823,13,Improv_Metronome,64,9999,9999,9999,4001851492
10823,13,Improv_Metronome,65,9999,9999,9999,4002351164
10823,13,Improv_Metronome,66,9999,9999,9999,4002851896
10823,13,Improv_Metronome,67,9999,9999,9999,4003351652
10823,13,Improv_Metronome,68,9999,9999,9999,4003851376
10823,13,Improv_Metronome,69,9999,9999,9999,4004352112
10823,13,Improv_Metronome,70,9999,9999,9999,4004851792
10823,13,Improv_Metronome,71,9999,9999,9999,4005351540
10823,13,Improv_Metronome,72,9999,9999,9999,4005851216
10823,13,Improv_Metronome,73,9999,9999,9999,4006351948
10823,13,Improv_Metronome,74,9999,9999,9999,4006851704
10823,13,Improv_Metronome,75,9999,9999,9999,4007351392
10823,13,Improv_Metronome,76,9999,9999,9999,4007851072
10823,13,Improv_Metronome,77,9999,9999,9999,4008351864
10823,13,Improv_Metronome,78,9999,9999,9999,4008851504
10823,13,Improv_Metronome,79,9999,9999,9999,4009351252
10823,13,Improv_Metronome,80,9999,9999,9999,4009851972
10823,13,Improv_Metronome,81,9999,9999,9999,4010351688
10823,13,Improv_Metronome,82,9999,9999,9999,4010851436
10823,13,Improv_Metronome,83,9999,9999,9999,4011351108
10823,13,Improv_Metronome,84,9999,9999,9999,4011851872
10823,13,Improv_Metronome,85,9999,9999,9999,4012351548
10823,13,Improv_Metronome,86,9999,9999,9999,4012851292
10823,13,Improv_Metronome,87,9999,9999,9999,4013352052
10823,13,Improv_Metronome,88,9999,9999,9999,4013851732
10823,13,Improv_Metronome,89,9999,9999,9999,4014351480
10823,13,Improv_Metronome,90,9999,9999,9999,4014851164
10823,13,Improv_Metronome,91,9999,9999,9999,4015351892
10823,13,Improv_Metronome,92,9999,9999,9999,4015851588
10823,13,Improv_Metronome,93,9999,9999,9999,4016351332
10823,13,Improv_Metronome,94,9999,9999,9999,4016852076
10823,13,Improv_Metronome,95,9999,9999,9999,4017351772
10823,13,Improv_Metronome,96,9999,9999,9999,4017851444
10823,13,Improv_Metronome,97,9999,9999,9999,4018351152
10823,13,Improv_Metronome,98,9999,9999,9999,4018851952
10823,13,Improv_Metronome,99,9999,9999,9999,4019351648
10823,13,Improv_Metronome,100,9999,9999,9999,4019851340
10823,13,Improv_Metronome,101,9999,9999,9999,4020352064
10823,13,Improv_Metronome,102,9999,9999,9999,4020851832
10823,13,Improv_Metronome,103,9999,9999,9999,4021351508
10823,13,Improv_Metronome,104,9999,9999,9999,4021851216
10823,13,Improv_Metronome,105,9999,9999,9999,4022351940
10823,13,Improv_Metronome,106,9999,9999,9999,4022851636
10823,13,Improv_Metronome,107,9999,9999,9999,4023351396
10823,13,Improv_Metronome,108,9999,9999,9999,4023851080
10823,13,Improv_Metronome,109,9999,9999,9999,4024351820
10823,13,Improv_Metronome,110,9999,9999,9999,4024851508
10823,13,Improv_Metronome,111,9999,9999,9999,4025351260
10823,13,Improv_Metronome,112,9999,9999,9999,4025851976
10823,13,Improv_Metronome,113,9999,9999,9999,4026351672
10823,13,Improv_Metronome,114,9999,9999,9999,4026851436
10823,13,Improv_Metronome,115,9999,9999,9999,4027351112
10823,13,Improv_Metronome,116,9999,9999,9999,4027851856
10823,13,Improv_Metronome,117,9999,9999,9999,4028351544
10823,13,Improv_Metronome,118,9999,9999,9999,4028851320
10823,13,Improv_Metronome,119,9999,9999,9999,4029352040
10823,13,Improv_Metronome,120,9999,9999,9999,4029851736
10823,13,Improv_Metronome,121,9999,9999,9999,4030351428
10823,13,Improv_Metronome,122,9999,9999,9999,4030851176
10823,13,Improv_Metronome,123,9999,9999,9999,4031351860
10823,13,Improv_Metronome,124,9999,9999,9999,4031851612
10823,13,Improv_Metronome,125,9999,9999,9999,4032351308
10823,13,Improv_Metronome,126,9999,9999,9999,4032852044
10823,13,Improv_Metronome,127,9999,9999,9999,4033351800
10823,13,Improv_Metronome,128,9999,9999,9999,4033851492
10823,13,Improv_Metronome,129,9999,9999,9999,4034351188
10823,13,Improv_Metronome,130,9999,9999,9999,4034851908
10823,13,Improv_Metronome,131,9999,9999,9999,4035351656
10823,13,Improv_Metronome,132,9999,9999,9999,4035851328
10823,13,Improv_Metronome,133,9999,9999,9999,4036352068
10823,13,Improv_Metronome,134,9999,9999,9999,4036851832
10823,13,Improv_Metronome,135,9999,9999,9999,4037351536
10823,13,Improv_Metronome,136,9999,9999,9999,4037851204
10823,13,Improv_Metronome,137,9999,9999,9999,4038351948
10823,13,Improv_Metronome,138,9999,9999,9999,4038851640
10823,13,Improv_Metronome,139,9999,9999,9999,4039351392
10824,14,Improv_Melody,0,2,48,80,4088856196
10824,14,Improv_Melody,1,2,72,80,4088858128
10824,14,Improv_Melody,2,5,42,127,4088860892
10824,14,Improv_Melody,3,5,42,110,4089353704
10824,14,Improv_Melody,4,5,42,110,4089854300
10824,14,Improv_Melody,5,5,42,110,4090353944
10824,14,Improv_Melody,6,5,42,127,4090853816
10824,14,Improv_Melody,7,5,42,110,4091353388
10824,14,Improv_Melody,8,5,42,110,4091854084
10824,14,Improv_Melody,9,5,42,110,4092353880
10824,14,Improv_Melody,10,2,43,80,4092856180
10824,14,Improv_Melody,11,2,67,80,4092858412
10824,14,Improv_Melody,12,5,42,127,4092860872
10824,14,Improv_Melody,13,5,42,110,4093354308
10824,14,Improv_Melody,14,5,42,110,4093853956
10824,14,Improv_Melody,15,5,42,110,4094353676
10824,14,Improv_Melody,16,5,42,127,4094853620
10824,14,Improv_Melody,17,5,42,110,4095354168
10824,14,Improv_Melody,18,5,42,110,4095853888
10824,14,Improv_Melody,19,5,42,110,4096353832
10824,14,Improv_Melody,20,2,45,80,4096856880
10824,14,Improv_Melody,21,2,69,80,4096858812
10824,14,Improv_Melody,22,5,42,127,4096861424
10824,14,Improv_Melody,23,5,42,110,4097354040
10824,14,Improv_Melody,24,5,42,110,4097853760
10824,14,Improv_Melody,25,5,42,110,4098353556
10824,14,Improv_Melody,26,5,42,127,4098854252
10824,14,Improv_Melody,27,5,42,110,4099353972
10824,14,Improv_Melody,28,5,42,110,4099853696
10824,14,Improv_Melody,29,5,42,110,4100354364
10824,14,Improv_Melody,30,2,41,80,4100856588
10824,14,Improv_Melody,31,2,65,80,4100858668
10824,14,Improv_Melody,32,5,42,127,4100861208
10824,14,Improv_Melody,33,5,42,110,4101353820
10824,14,Improv_Melody,34,5,42,110,4101853616
10824,14,Improv_Melody,35,5,42,110,4102354236
10824,14,Improv_Melody,36,5,42,127,4102853884
10824,14,Improv_Melody,37,5,42,110,4103353756
10824,14,Improv_Melody,38,5,42,110,4103853552
10824,14,Improv_Melody,39,5,42,110,4104354024
10824,14,Improv_Melody,40,2,48,80,4104856248
10824,14,Improv_Melody,41,2,72,80,4104858476
10824,14,Improv_Melody,42,5,42,127,4104861016
10824,14,Improv_Melody,43,5,42,110,4105353632
10824,14,Improv_Melody,44,5,42,110,4105854176
10824,14,Improv_Melody,45,5,42,110,4106353972
10824,14,Improv_Melody,46,1,48,31,4106359260
10824,14,Improv_Melody,47,1,38,25,4106766256
10824,14,Improv_Melody,48,5,42,127,4106853664
10824,14,Improv_Melody,49,5,42,110,4107353668
10824,14,Improv_Melody,50,5,42,110,4107854064
10824,14,Improv_Melody,51,1,48,50,4108347536
10824,14,Improv_Melody,52,5,42,110,4108353780
10824,14,Improv_Melody,53,2,43,80,4108856140
10824,14,Improv_Melody,54,2,67,80,4108858216
10824,14,Improv_Melody,55,5,42,127,4108860904
10824,14,Improv_Melody,56,1,48,53,4108931268
10824,14,Improv_Melody,57,5,42,110,4109354616
10824,14,Improv_Melody,58,1,38,50,4109362076
10824,14,Improv_Melody,59,5,42,110,4109854096
10824,14,Improv_Melody,60,1,48,34,4109896032
10824,14,Improv_Melody,61,1,48,44,4110260004
10824,14,Improv_Melody,62,5,42,110,4110354744
10824,14,Improv_Melody,63,1,38,54,4110722232
10824,14,Improv_Melody,64,5,42,127,4110853448
10824,14,Improv_Melody,65,5,42,110,4111354440
10824,14,Improv_Melody,66,1,48,54,4111818440
10824,14,Improv_Melody,67,5,42,110,4111853856
10824,14,Improv_Melody,68,1,48,63,4112283580
10824,14,Improv_Melody,69,5,42,110,4112353556
10824,14,Improv_Melody,70,1,38,51,4112758744
10824,14,Improv_Melody,71,2,45,80,4112857100
10824,14,Improv_Melody,72,2,69,80,4112859396
10824,14,Improv_Melody,73,5,42,127,4112861928
10824,14,Improv_Melody,74,1,48,55,4113229588
10824,14,Improv_Melody,75,5,42,110,4113354076
10824,14,Improv_Melody,76,1,48,58,4113689200
10824,14,Improv_Melody,77,5,42,110,4113853700
10824,14,Improv_Melody,78,1,38,51,4114135984
10824,14,Improv_Melody,79,5,42,110,4114353624
10824,14,Improv_Melody,80,5,42,127,4114854392
10824,14,Improv_Melody,81,1,48,46,4114998308
10824,14,Improv_Melody,82,5,42,110,4115353944
10824,14,Improv_Melody,83,1,48,38,4115447120
10824,14,Improv_Melody,84,1,38,64,4115829964
10824,14,Improv_Melody,85,5,42,110,4115853784
10824,14,Improv_Melody,86,1,48,51,4116285756
10824,14,Improv_Melody,87,5,42,110,4116354456
10824,14,Improv_Melody,88,1,48,55,4116740776
10824,14,Improv_Melody,89,1,48,44,4116777800
10824,14,Improv_Melody,90,2,41,80,4116856560
10824,14,Improv_Melody,91,2,65,80,4116858492
10824,14,Improv_Melody,92,5,42,127,4116861104
10824,14,Improv_Melody,93,1,38,86,4117158264
10824,14,Improv_Melody,94,5,42,110,4117353836
10824,14,Improv_Melody,95,5,42,110,4117853556
10824,14,Improv_Melody,96,1,48,56,4118054908
10824,14,Improv_Melody,97,5,42,110,4118354376
10824,14,Improv_Melody,98,1,48,43,4118426984
10824,14,Improv_Melody,99,1,38,61,4118774716
10824,14,Improv_Melody,100,5,42,127,4118853920
10824,14,Improv_Melody,101,1,48,39,4119138444
10824,14,Improv_Melody,102,5,42,110,4119353680
10824,14,Improv_Melody,103,1,48,45,4119486652
10824,14,Improv_Melody,104,1,38,58,4119814564
10824,14,Improv_Melody,105,5,42,110,4119853524
10824,14,Improv_Melody,106,5,42,110,4120354200
10824,14,Improv_Melody,107,1,48,51,4120619512
10824,14,Improv_Melody,108,2,48,80,4120856404
10824,14,Improv_Melody,109,2,72,80,4120858480
10824,14,Improv_Melody,110,5,42,127,4120861020
10824,14,Improv_Melody,111,1,48,46,4120927272
10824,14,Improv_Melody,112,1,38,44,4121242244
10824,14,Improv_Melody,113,5,42,110,4121353668
10824,14,Improv_Melody,114,1,38,51,4121542660
10824,14,Improv_Melody,115,5,42,110,4121854312
10824,14,Improv_Melody,116,1,48,40,4121862816
10824,14,Improv_Melody,117,1,48,41,4122156204
10824,14,Improv_Melody,118,5,42,110,4122353992
10824,14,Improv_Melody,119,1,38,63,4122463944
10824,14,Improv_Melody,120,5,42,127,4122853616
10824,14,Improv_Melody,121,1,48,43,4123063580
10824,14,Improv_Melody,122,5,42,110,4123353540
10824,14,Improv_Melody,123,1,48,45,4123362644
10824,14,Improv_Melody,124,1,38,69,4123643660
10824,14,Improv_Melody,125,5,42,110,4123854116
10824,14,Improv_Melody,126,1,38,65,4123983072
10824,14,Improv_Melody,127,1,48,37,4124297144
10824,14,Improv_Melody,128,5,42,110,4124353960
10824,14,Improv_Melody,129,1,48,45,4124567724
10824,14,Improv_Melody,130,2,43,80,4124856152
10824,14,Improv_Melody,131,2,67,80,4124858228
10824,14,Improv_Melody,132,5,42,127,4124860696
10824,14,Improv_Melody,133,1,38,75,4124867704
10824,14,Improv_Melody,134,1,38,36,4124933052
10824,14,Improv_Melody,135,5,42,110,4125354460
10824,14,Improv_Melody,136,1,48,46,4125458132
10824,14,Improv_Melody,137,1,48,46,4125746780
10824,14,Improv_Melody,138,5,42,110,4125854140
10824,14,Improv_Melody,139,1,38,81,4126025352
10824,14,Improv_Melody,140,1,38,37,4126078960
10824,14,Improv_Melody,141,1,38,66,4126307996
10824,14,Improv_Melody,142,5,42,110,4126353660
10824,14,Improv_Melody,143,1,48,40,4126622468
10824,14,Improv_Melody,144,5,42,127,4126853348
10824,14,Improv_Melody,145,1,48,48,4126905304
10824,14,Improv_Melody,146,1,38,71,4127181988
10824,14,Improv_Melody,147,5,42,110,4127354292
10824,14,Improv_Melody,148,1,48,49,4127740404
10824,14,Improv_Melody,149,5,42,110,4127853844
10824,14,Improv_Melody,150,1,48,44,4128024232
10824,14,Improv_Melody,151,1,38,74,4128324700
10824,14,Improv_Melody,152,5,42,110,4128353612
10824,14,Improv_Melody,153,1,38,23,4128395684
10824,14,Improv_Melody,154,1,38,63,4128638780
10824,14,Improv_Melody,155,2,45,80,4128857052
10824,14,Improv_Melody,156,2,69,80,4128859052
10824,14,Improv_Melody,157,5,42,127,4128861592
10824,14,Improv_Melody,158,1,48,44,4128938384
10824,14,Improv_Melody,159,1,48,49,4129200704
10824,14,Improv_Melody,160,5,42,110,4129354308
10824,14,Improv_Melody,161,1,38,68,4129494680
10824,14,Improv_Melody,162,5,42,110,4129854008
10824,14,Improv_Melody,163,1,48,46,4130040828
10824,14,Improv_Melody,164,1,48,51,4130320376
10824,14,Improv_Melody,165,5,42,110,4130353552
10824,14,Improv_Melody,166,1,38,73,4130595888
10824,14,Improv_Melody,167,5,42,127,4130854208
10824,14,Improv_Melody,168,1,38,59,4130885228
10824,14,Improv_Melody,169,1,48,57,4131171932
10824,14,Improv_Melody,170,5,42,110,4131353892
10824,14,Improv_Melody,171,1,48,53,4131446168
10824,14,Improv_Melody,172,1,38,84,4131708708
10824,14,Improv_Melody,173,1,38,47,4131760076
10824,14,Improv_Melody,174,5,42,110,4131853624
10824,14,Improv_Melody,175,1,48,53,4132264708
10824,14,Improv_Melody,176,5,42,110,4132354508
10824,14,Improv_Melody,177,1,48,55,4132538424
10824,14,Improv_Melody,178,1,38,78,4132818468
10824,14,Improv_Melody,179,2,41,80,4132856612
10824,14,Improv_Melody,180,2,65,80,4132858920
10824,14,Improv_Melody,181,5,42,127,4132861528
10824,14,Improv_Melody,182,1,38,77,4133111340
10824,14,Improv_Melody,183,5,42,110,4133353736
10824,14,Improv_Melody,184,1,48,48,4133398020
10824,14,Improv_Melody,185,1,48,53,4133667368
10824,14,Improv_Melody,186,5,42,110,4133853492
10824,14,Improv_Melody,187,1,38,79,4133942952
10824,14,Improv_Melody,188,1,38,45,4133975836
10824,14,Improv_Melody,189,5,42,110,4134354216
10824,14,Improv_Melody,190,1,48,43,4134514960
10824,14,Improv_Melody,191,1,48,41,4134791112
10824,14,Improv_Melody,192,5,42,127,4134854132
10824,14,Improv_Melody,193,1,38,67,4135065348
10824,14,Improv_Melody,194,5,42,110,4135353668
10824,14,Improv_Melody,195,1,38,61,4135362848
10824,14,Improv_Melody,196,1,48,44,4135659796
10824,14,Improv_Melody,197,5,42,110,4135853420
10824,14,Improv_Melody,198,1,48,50,4135918396
10824,14,Improv_Melody,199,1,38,75,4136171288
10824,14,Improv_Melody,200,5,42,110,4136354068
10824,14,Improv_Melody,201,1,48,47,4136707640
10824,14,Improv_Melody,202,2,48,80,4136856344
10824,14,Improv_Melody,203,2,72,80,4136858728
10824,14,Improv_Melody,204,5,42,127,4136861260
10824,14,Improv_Melody,205,1,48,49,4136979672
10824,14,Improv_Melody,206,1,38,72,4137253132
10824,14,Improv_Melody,207,5,42,110,4137353460
10824,14,Improv_Melody,208,1,38,72,4137556164
10824,14,Improv_Melody,209,1,48,41,4137839656
10824,14,Improv_Melody,210,5,42,110,4137854424
10824,14,Improv_Melody,211,1,48,41,4138110148
10824,14,Improv_Melody,212,5,42,110,4138353960
10824,14,Improv_Melody,213,1,48,51,4138399488
10824,14,Improv_Melody,214,1,38,74,4138509820
10824,14,Improv_Melody,215,5,42,127,4138853636
10824,14,Improv_Melody,216,1,48,49,4139144828
10824,14,Improv_Melody,217,5,42,110,4139353412
10824,14,Improv_Melody,218,1,48,54,4139451224
10824,14,Improv_Melody,219,1,38,95,4139718932
10824,14,Improv_Melody,220,1,38,53,4139747852
10824,14,Improv_Melody,221,5,42,110,4139854188
10824,14,Improv_Melody,222,1,48,59,4140325512
10824,14,Improv_Melody,223,5,42,110,4140354124
10824,14,Improv_Melody,224,1,48,44,4140623988
10824,14,Improv_Melody,225,2,43,80,4140856088
10824,14,Improv_Melody,226,2,67,80,4140858244
10824,14,Improv_Melody,227,5,42,127,4140861004
10824,14,Improv_Melody,228,1,38,84,4140911544
10824,14,Improv_Melody,229,1,38,51,4140942264
10824,14,Improv_Melody,230,5,42,110,4141354324
10824,14,Improv_Melody,231,1,48,50,4141567180
10824,14,Improv_Melody,232,5,42,110,4141854172
10824,14,Improv_Melody,233,1,48,48,4141862452
10824,14,Improv_Melody,234,1,38,87,4142127912
10824,14,Improv_Melody,235,5,42,110,4142354000
10824,14,Improv_Melody,236,1,48,51,4142720812
10824,14,Improv_Melody,237,5,42,127,4142853452
10824,14,Improv_Melody,238,1,48,56,4143012924
10824,14,Improv_Melody,239,1,38,79,4143289604
10824,14,Improv_Melody,240,1,38,49,4143325032
10824,14,Improv_Melody,241,5,42,110,4143354172
10824,14,Improv_Melody,242,5,42,110,4143854176
10824,14,Improv_Melody,243,1,38,95,4143902124
10824,14,Improv_Melody,244,1,38,82,4144171104
10824,14,Improv_Melody,245,5,42,110,4144353928
10824,14,Improv_Melody,246,1,48,56,4144469048
10824,14,Improv_Melody,247,1,38,71,4144755972
10824,14,Improv_Melody,248,2,45,80,4144856556
10824,14,Improv_Melody,249,2,69,80,4144859012
10824,14,Improv_Melody,250,5,42,127,4144861476
10824,14,Improv_Melody,251,1,38,83,4145036952
10824,14,Improv_Melody,252,1,48,53,4145303836
10824,14,Improv_Melody,253,5,42,110,4145354140
10824,14,Improv_Melody,254,1,48,27,4145369140
10824,14,Improv_Melody,255,1,38,84,4145620460
10824,14,Improv_Melody,256,5,42,110,4145854024
10824,14,Improv_Melody,257,1,38,66,4145914660
10824,14,Improv_Melody,258,1,48,54,4146227644
10824,14,Improv_Melody,259,5,42,110,4146353476
10824,14,Improv_Melody,260,1,38,19,4146509284
10824,14,Improv_Melody,261,1,38,69,4146845276
10824,14,Improv_Melody,262,5,42,127,4146854364
10824,14,Improv_Melody,263,1,38,22,4146918432
10824,14,Improv_Melody,264,1,48,52,4147183892
10824,14,Improv_Melody,265,5,42,110,4147354176
10824,14,Improv_Melody,266,1,48,54,4147844652
10824,14,Improv_Melody,267,5,42,110,4147853968
10824,14,Improv_Melody,268,1,48,54,4148164064
10824,14,Improv_Melody,269,5,42,110,4148354324
10824,14,Improv_Melody,270,1,38,73,4148444732
10824,14,Improv_Melody,271,1,38,39,4148487720
10824,14,Improv_Melody,272,1,48,50,4148723384
10824,14,Improv_Melody,273,2,41,80,4148856608
10824,14,Improv_Melody,274,2,65,80,4148858836
10824,14,Improv_Melody,275,5,42,127,4148861300
10824,14,Improv_Melody,276,1,48,53,4149025408
10824,14,Improv_Melody,277,1,38,69,4149307924
10824,14,Improv_Melody,278,5,42,110,4149354036
10824,14,Improv_Melody,279,5,42,110,4149853592
10824,14,Improv_Melody,280,1,48,53,4150014016
10824,14,Improv_Melody,281,1,48,57,4150309344
10824,14,Improv_Melody,282,5,42,110,4150354260
10824,14,Improv_Melody,283,1,38,76,4150552612
10824,14,Improv_Melody,284,5,42,127,4150853944
10824,14,Improv_Melody,285,1,48,51,4150873444
10824,14,Improv_Melody,286,1,48,68,4151167252
10824,14,Improv_Melody,287,5,42,110,4151353920
10824,14,Improv_Melody,288,1,38,84,4151446724
10824,14,Improv_Melody,289,1,38,38,4151493900
10824,14,Improv_Melody,290,5,42,110,4151853376
10824,14,Improv_Melody,291,1,48,54,4152121752
10824,14,Improv_Melody,292,5,42,110,4152354048
10824,14,Improv_Melody,293,1,48,57,4152406680
10824,14,Improv_Melody,294,1,38,82,4152648504
10824,14,Improv_Melody,295,1,38,41,4152686180
10824,14,Improv_Melody,296,2,48,80,4152856660
10824,14,Improv_Melody,297,2,72,80,4152858812
10824,14,Improv_Melody,298,5,42,127,4152861268
10824,14,Improv_Melody,299,1,48,53,4152972020
10824,14,Improv_Melody,300,1,48,59,4153248404
10824,14,Improv_Melody,301,5,42,110,4153353840
10824,14,Improv_Melody,302,1,38,89,4153519200
10824,14,Improv_Melody,303,1,38,39,4153578940
10824,14,Improv_Melody,304,5,42,110,4153854316
10824,14,Improv_Melody,305,1,48,61,4154266552
10824,14,Improv_Melody,306,5,42,110,4154354108
10824,14,Improv_Melody,307,1,48,59,4154560836
10824,14,Improv_Melody,308,1,38,93,4154826664
10824,14,Improv_Melody,309,5,42,127,4154853708
10824,14,Improv_Melody,310,1,38,41,4154871396
10824,14,Improv_Melody,311,1,48,55,4155130648
10824,14,Improv_Melody,312,5,42,110,4155353444
10824,14,Improv_Melody,313,1,48,62,4155399228
10824,14,Improv_Melody,314,1,38,92,4155637728
10824,14,Improv_Melody,315,5,42,110,4155854320
10824,14,Improv_Melody,316,1,48,59,4156298576
10824,14,Improv_Melody,317,5,42,110,4156353960
10824,14,Improv_Melody,318,1,48,57,4156587616
10824,14,Improv_Melody,319,1,38,93,4156843948
10824,14,Improv_Melody,320,2,43,80,4156856144
10824,14,Improv_Melody,321,2,67,80,4156858376
10824,14,Improv_Melody,322,5,42,127,4156860908
10824,14,Improv_Melody,323,1,38,42,4156881664
10824,14,Improv_Melody,324,1,48,60,4157113088
10824,14,Improv_Melody,325,5,42,110,4157354360
10824,14,Improv_Melody,326,1,48,57,4157414176
10824,14,Improv_Melody,327,1,38,91,4157647324
10824,14,Improv_Melody,328,1,38,54,4157677596
10824,14,Improv_Melody,329,5,42,110,4157854016
10824,14,Improv_Melody,330,1,48,54,4158337836
10824,14,Improv_Melody,331,5,42,110,4158353732
10824,14,Improv_Melody,332,1,48,60,4158606536
10824,14,Improv_Melody,333,5,42,127,4158853344
10824,14,Improv_Melody,334,1,38,91,4158875760
10824,14,Improv_Melody,335,1,38,46,4158927200
10824,14,Improv_Melody,336,1,48,60,4159140452
10824,14,Improv_Melody,337,5,42,110,4159354268
10824,14,Improv_Melody,338,1,48,62,4159425904
10824,14,Improv_Melody,339,1,38,105,4159664436
10824,14,Improv_Melody,340,1,38,55,4159705328
10824,14,Improv_Melody,341,5,42,110,4159853852
10824,14,Improv_Melody,342,5,42,110,4160353724
10824,14,Improv_Melody,343,1,48,55,4160377632
10824,14,Improv_Melody,344,1,48,53,4160635688
10824,14,Improv_Melody,345,2,45,80,4160857028
10824,14,Improv_Melody,346,2,69,80,4160859260
10824,14,Improv_Melody,347,5,42,127,4160861792
10824,14,Improv_Melody,348,1,38,79,4160868652
10824,14,Improv_Melody,349,1,38,54,4160904236
10824,14,Improv_Melody,350,1,48,49,4161148152
10824,14,Improv_Melody,351,5,42,110,4161353968
10824,14,Improv_Melody,352,1,48,61,4161417300
10824,14,Improv_Melody,353,1,38,89,4161652168
10824,14,Improv_Melody,354,1,38,53,4161679072
10824,14,Improv_Melody,355,5,42,110,4161853772
10824,14,Improv_Melody,356,1,48,52,4162303684
10824,14,Improv_Melody,357,5,42,110,4162353636
10824,14,Improv_Melody,358,1,48,57,4162560936
10824,14,Improv_Melody,359,1,38,75,4162816076
10824,14,Improv_Melody,360,5,42,127,4162854212
10824,14,Improv_Melody,361,1,48,63,4163064800
10824,14,Improv_Melody,362,1,38,87,4163310892
10824,14,Improv_Melody,363,5,42,110,4163353964
10824,14,Improv_Melody,364,5,42,110,4163853672
10824,14,Improv_Melody,365,5,42,110,4164354264
10824,14,Improv_Melody,366,1,48,57,4164382316
10824,14,Improv_Melody,367,1,48,59,4164643964
10824,14,Improv_Melody,368,2,41,80,4164856820
10824,14,Improv_Melody,369,2,65,80,4164858824
10824,14,Improv_Melody,370,5,42,127,4164861512
10824,14,Improv_Melody,371,1,38,71,4164897340
10824,14,Improv_Melody,372,1,48,58,4165140664
10824,14,Improv_Melody,373,5,42,110,4165353784
10824,14,Improv_Melody,374,1,48,60,4165420212
10824,14,Improv_Melody,375,1,38,88,4165655900
10824,14,Improv_Melody,376,5,42,110,4165853540
10824,14,Improv_Melody,377,1,48,54,4166324272
10824,14,Improv_Melody,378,5,42,110,4166354376
10824,14,Improv_Melody,379,1,48,62,4166585112
10824,14,Improv_Melody,380,1,38,84,4166852780
10824,14,Improv_Melody,381,5,42,127,4166855472
10824,14,Improv_Melody,382,1,48,52,4167125780
10824,14,Improv_Melody,383,5,42,110,4167353740
10824,14,Improv_Melody,384,1,48,64,4167405176
10824,14,Improv_Melody,385,1,38,76,4167642736
10824,14,Improv_Melody,386,5,42,110,4167853564
10824,14,Improv_Melody,387,1,48,54,4168318680
10824,14,Improv_Melody,388,5,42,110,4168354028
10824,14,Improv_Melody,389,1,48,62,4168593140
10824,14,Improv_Melody,390,2,48,80,4168856516
10824,14,Improv_Melody,391,2,72,80,4168858592
10824,14,Improv_Melody,392,5,42,127,4168861056
10824,14,Improv_Melody,393,1,38,69,4168862020
10824,14,Improv_Melody,394,1,48,59,4169143696
10824,14,Improv_Melody,395,5,42,110,4169353552
10824,14,Improv_Melody,396,1,48,62,4169417860
10824,14,Improv_Melody,397,1,38,90,4169662672
10824,14,Improv_Melody,0,9999,9999,9999,4088851508
10824,14,Improv_Melody,1,9999,9999,9999,4089351264
10824,14,Improv_Melody,2,9999,9999,9999,4089852004
10824,14,Improv_Melody,3,9999,9999,9999,4090351728
10824,14,Improv_Melody,4,9999,9999,9999,4090851448
10824,14,Improv_Melody,5,9999,9999,9999,4091351096
10824,14,Improv_Melody,6,9999,9999,9999,4091851868
10824,14,Improv_Melody,7,9999,9999,9999,4092351588
10824,14,Improv_Melody,8,9999,9999,9999,4092851308
10824,14,Improv_Melody,9,9999,9999,9999,4093352016
10824,14,Improv_Melody,10,9999,9999,9999,4093851740
10824,14,Improv_Melody,11,9999,9999,9999,4094351460
10824,14,Improv_Melody,12,9999,9999,9999,4094851180
10824,14,Improv_Melody,13,9999,9999,9999,4095351876
10824,14,Improv_Melody,14,9999,9999,9999,4095851596
10824,14,Improv_Melody,15,9999,9999,9999,4096351320
10824,14,Improv_Melody,16,9999,9999,9999,4096852088
10824,14,Improv_Melody,17,9999,9999,9999,4097351748
10824,14,Improv_Melody,18,9999,9999,9999,4097851468
10824,14,Improv_Melody,19,9999,9999,9999,4098351192
10824,14,Improv_Melody,20,9999,9999,9999,4098851960
10824,14,Improv_Melody,21,9999,9999,9999,4099351608
10824,14,Improv_Melody,22,9999,9999,9999,4099851328
10824,14,Improv_Melody,23,9999,9999,9999,4100352072
10824,14,Improv_Melody,24,9999,9999,9999,4100851796
10824,14,Improv_Melody,25,9999,9999,9999,4101351532
10824,14,Improv_Melody,26,9999,9999,9999,4101851252
10824,14,Improv_Melody,27,9999,9999,9999,4102351948
10824,14,Improv_Melody,28,9999,9999,9999,4102851668
10824,14,Improv_Melody,29,9999,9999,9999,4103351392
10824,14,Improv_Melody,30,9999,9999,9999,4103851112
10824,14,Improv_Melody,31,9999,9999,9999,4104351808
10824,14,Improv_Melody,32,9999,9999,9999,4104851528
10824,14,Improv_Melody,33,9999,9999,9999,4105351264
10824,14,Improv_Melody,34,9999,9999,9999,4105851960
10824,14,Improv_Melody,35,9999,9999,9999,4106351680
10824,14,Improv_Melody,36,9999,9999,9999,4106851448
10824,14,Improv_Melody,37,9999,9999,9999,4107351152
10824,14,Improv_Melody,38,9999,9999,9999,4107851848
10824,14,Improv_Melody,39,9999,9999,9999,4108351564
10824,14,Improv_Melody,40,9999,9999,9999,4108851268
10824,14,Improv_Melody,41,9999,9999,9999,4109352028
10824,14,Improv_Melody,42,9999,9999,9999,4109851728
10824,14,Improv_Melody,43,9999,9999,9999,4110351424
10824,14,Improv_Melody,44,9999,9999,9999,4110851156
10824,14,Improv_Melody,45,9999,9999,9999,4111351924
10824,14,Improv_Melody,46,9999,9999,9999,4111851640
10824,14,Improv_Melody,47,9999,9999,9999,4112351340
10824,14,Improv_Melody,48,9999,9999,9999,4112852072
10824,14,Improv_Melody,49,9999,9999,9999,4113351784
10824,14,Improv_Melody,50,9999,9999,9999,4113851484
10824,14,Improv_Melody,51,9999,9999,9999,4114351184
10824,14,Improv_Melody,52,9999,9999,9999,4114851952
10824,14,Improv_Melody,53,9999,9999,9999,4115351652
10824,14,Improv_Melody,54,9999,9999,9999,4115851344
10824,14,Improv_Melody,55,9999,9999,9999,4116352092
10824,14,Improv_Melody,56,9999,9999,9999,4116851768
10824,14,Improv_Melody,57,9999,9999,9999,4117351544
10824,14,Improv_Melody,58,9999,9999,9999,4117851188
10824,14,Improv_Melody,59,9999,9999,9999,4118351936
10824,14,Improv_Melody,60,9999,9999,9999,4118851704
10824,14,Improv_Melody,61,9999,9999,9999,4119351388
10824,14,Improv_Melody,62,9999,9999,9999,4119851084
10824,14,Improv_Melody,63,9999,9999,9999,4120351832
10824,14,Improv_Melody,64,9999,9999,9999,4120851536
10824,14,Improv_Melody,65,9999,9999,9999,4121351276
10824,14,Improv_Melody,66,9999,9999,9999,4121852020
10824,14,Improv_Melody,67,9999,9999,9999,4122351700
10824,14,Improv_Melody,68,9999,9999,9999,4122851400
10824,14,Improv_Melody,69,9999,9999,9999,4123351100
10824,14,Improv_Melody,70,9999,9999,9999,4123851824
10824,14,Improv_Melody,71,9999,9999,9999,4124351592
10824,14,Improv_Melody,72,9999,9999,9999,4124851280
10824,14,Improv_Melody,73,9999,9999,9999,4125352020
10824,14,Improv_Melody,74,9999,9999,9999,4125851700
10824,14,Improv_Melody,75,9999,9999,9999,4126351444
10824,14,Improv_Melody,76,9999,9999,9999,4126851128
10824,14,Improv_Melody,77,9999,9999,9999,4127351928
10824,14,Improv_Melody,78,9999,9999,9999,4127851628
10824,14,Improv_Melody,79,9999,9999,9999,4128351320
10824,14,Improv_Melody,80,9999,9999,9999,4128852032
10824,14,Improv_Melody,81,9999,9999,9999,4129351796
10824,14,Improv_Melody,82,9999,9999,9999,4129851492
10824,14,Improv_Melody,83,9999,9999,9999,4130351188
10824,14,Improv_Melody,84,9999,9999,9999,4130851920
10824,14,Improv_Melody,85,9999,9999,9999,4131351600
10824,14,Improv_Melody,86,9999,9999,9999,4131851332
10824,14,Improv_Melody,87,9999,9999,9999,4132352068
10824,14,Improv_Melody,88,9999,9999,9999,4132851820
10824,14,Improv_Melody,89,9999,9999,9999,4133351520
10824,14,Improv_Melody,90,9999,9999,9999,4133851200
10824,14,Improv_Melody,91,9999,9999,9999,4134351924
10824,14,Improv_Melody,92,9999,9999,9999,4134851692
10824,14,Improv_Melody,93,9999,9999,9999,4135351376
10824,14,Improv_Melody,94,9999,9999,9999,4135851128
10824,14,Improv_Melody,95,9999,9999,9999,4136351852
10824,14,Improv_Melody,96,9999,9999,9999,4136851552
10824,14,Improv_Melody,97,9999,9999,9999,4137351244
10824,14,Improv_Melody,98,9999,9999,9999,4137851984
10824,14,Improv_Melody,99,9999,9999,9999,4138351668
10824,14,Improv_Melody,100,9999,9999,9999,4138851420
10824,14,Improv_Melody,101,9999,9999,9999,4139351120
10824,14,Improv_Melody,102,9999,9999,9999,4139851896
10824,14,Improv_Melody,103,9999,9999,9999,4140351536
10824,14,Improv_Melody,104,9999,9999,9999,4140851296
10824,14,Improv_Melody,105,9999,9999,9999,4141352032
10824,14,Improv_Melody,106,9999,9999,9999,4141851732
10824,14,Improv_Melody,107,9999,9999,9999,4142351412
10824,14,Improv_Melody,108,9999,9999,9999,4142851160
10824,14,Improv_Melody,109,9999,9999,9999,4143351880
10824,14,Improv_Melody,110,9999,9999,9999,4143851584
10824,14,Improv_Melody,111,9999,9999,9999,4144351336
10824,14,Improv_Melody,112,9999,9999,9999,4144852064
10824,14,Improv_Melody,113,9999,9999,9999,4145351772
10824,14,Improv_Melody,114,9999,9999,9999,4145851508
10824,14,Improv_Melody,115,9999,9999,9999,4146351188
10824,14,Improv_Melody,116,9999,9999,9999,4146851924
10824,14,Improv_Melody,117,9999,9999,9999,4147351660
10824,14,Improv_Melody,118,9999,9999,9999,4147851376
10824,14,Improv_Melody,119,9999,9999,9999,4148352108
10824,14,Improv_Melody,120,9999,9999,9999,4148851816
10824,14,Improv_Melody,121,9999,9999,9999,4149351524
10824,14,Improv_Melody,122,9999,9999,9999,4149851228
10824,14,Improv_Melody,123,9999,9999,9999,4150351968
10824,14,Improv_Melody,124,9999,9999,9999,4150851652
10824,14,Improv_Melody,125,9999,9999,9999,4151351404
10824,14,Improv_Melody,126,9999,9999,9999,4151851084
10824,14,Improv_Melody,127,9999,9999,9999,4152351828
10824,14,Improv_Melody,128,9999,9999,9999,4152851560
10824,14,Improv_Melody,129,9999,9999,9999,4153351252
10824,14,Improv_Melody,130,9999,9999,9999,4153852024
10824,14,Improv_Melody,131,9999,9999,9999,4154351668
10824,14,Improv_Melody,132,9999,9999,9999,4154851416
10824,14,Improv_Melody,133,9999,9999,9999,4155351152
10824,14,Improv_Melody,134,9999,9999,9999,4155851876
10824,14,Improv_Melody,135,9999,9999,9999,4156351596
10824,14,Improv_Melody,136,9999,9999,9999,4156851272
10824,14,Improv_Melody,137,9999,9999,9999,4157351996
10824,14,Improv_Melody,138,9999,9999,9999,4157851724
10824,14,Improv_Melody,139,9999,9999,9999,4158351440
10824,14,Improv_Melody,140,9999,9999,9999,4158851124
10824,14,Improv_Melody,141,9999,9999,9999,4159351904
10824,14,Improv_Melody,142,9999,9999,9999,4159851636
10824,14,Improv_Melody,143,9999,9999,9999,4160351280
10824,14,Improv_Melody,144,9999,9999,9999,4160852080
10824,14,Improv_Melody,145,9999,9999,9999,4161351752
10824,14,Improv_Melody,146,9999,9999,9999,4161851480
10824,14,Improv_Melody,147,9999,9999,9999,4162351196
10824,14,Improv_Melody,148,9999,9999,9999,4162851920
10824,14,Improv_Melody,149,9999,9999,9999,4163351672
10824,14,Improv_Melody,150,9999,9999,9999,4163851380
10824,14,Improv_Melody,151,9999,9999,9999,4164352048
10824,14,Improv_Melody,152,9999,9999,9999,4164851800
10824,14,Improv_Melody,153,9999,9999,9999,4165351496
10824,14,Improv_Melody,154,9999,9999,9999,4165851248
10824,14,Improv_Melody,155,9999,9999,9999,4166351936
10824,14,Improv_Melody,156,9999,9999,9999,4166851696
10824,14,Improv_Melody,157,9999,9999,9999,4167351372
10824,14,Improv_Melody,158,9999,9999,9999,4167851124
10824,14,Improv_Melody,159,9999,9999,9999,4168351812
10824,14,Improv_Melody,160,9999,9999,9999,4168851568
10824,14,Improv_Melody,161,9999,9999,9999,4169351260
108