pid,taskRunCount,taskID,taskName,i,channel,pitch,velocity,microseconds
112,1,0,Ticks_Pract_8,0,5,42,127,100650424
112,1,0,Ticks_Pract_8,1,5,42,127,101450404
112,1,0,Ticks_Pract_8,2,5,42,127,102249712
112,1,0,Ticks_Pract_8,3,1,48,28,102334508
112,1,0,Ticks_Pract_8,4,1,48,19,102408412
112,1,0,Ticks_Pract_8,5,5,42,127,103049572
112,1,0,Ticks_Pract_8,6,1,48,43,103070268
112,1,0,Ticks_Pract_8,7,5,42,127,103850204
112,1,0,Ticks_Pract_8,8,1,48,33,103853840
112,1,0,Ticks_Pract_8,9,1,48,41,104574420
112,1,0,Ticks_Pract_8,10,5,42,127,104650596
112,1,0,Ticks_Pract_8,11,1,48,38,105405496
112,1,0,Ticks_Pract_8,12,5,42,127,105449760
112,1,0,Ticks_Pract_8,13,1,48,38,106159752
112,1,0,Ticks_Pract_8,14,5,42,127,106249568
112,1,0,Ticks_Pract_8,15,1,48,37,106990704
112,1,0,Ticks_Pract_8,16,5,42,127,107050200
112,1,0,Ticks_Pract_8,17,1,48,36,107763056
112,1,0,Ticks_Pract_8,18,5,42,127,107850228
112,1,0,Ticks_Pract_8,19,1,48,35,108551200
112,1,0,Ticks_Pract_8,20,5,42,127,108650392
112,1,0,Ticks_Pract_8,21,1,48,35,109274908
112,1,0,Ticks_Pract_8,22,5,42,127,109449436
112,1,0,Ticks_Pract_8,23,1,48,41,110169564
112,1,0,Ticks_Pract_8,24,5,42,127,110250228
112,1,0,Ticks_Pract_8,25,1,48,36,110965476
112,1,0,Ticks_Pract_8,26,5,42,127,111050036
112,1,0,Ticks_Pract_8,27,1,48,39,111771420
112,1,0,Ticks_Pract_8,28,5,42,127,111849792
112,1,0,Ticks_Pract_8,29,1,48,39,112533080
112,1,0,Ticks_Pract_8,30,5,42,127,112649436
112,1,0,Ticks_Pract_8,31,1,48,43,113310900
112,1,0,Ticks_Pract_8,32,5,42,127,113450292
112,1,0,Ticks_Pract_8,33,1,48,36,114159056
112,1,0,Ticks_Pract_8,34,5,42,127,114250192
112,1,0,Ticks_Pract_8,35,1,48,37,114947496
112,1,0,Ticks_Pract_8,36,5,42,127,115049836
112,1,0,Ticks_Pract_8,37,1,48,44,115762856
112,1,0,Ticks_Pract_8,38,5,42,127,115849508
112,1,0,Ticks_Pract_8,39,1,48,41,116515244
112,1,0,Ticks_Pract_8,40,1,48,22,116584040
112,1,0,Ticks_Pract_8,41,5,42,127,116650344
112,1,0,Ticks_Pract_8,42,1,48,41,117355272
112,1,0,Ticks_Pract_8,43,5,42,127,117450212
112,1,0,Ticks_Pract_8,44,1,48,40,118168100
112,1,0,Ticks_Pract_8,45,5,42,127,118249764
112,1,0,Ticks_Pract_8,46,1,48,42,118953172
112,1,0,Ticks_Pract_8,47,5,42,127,119049496
112,1,0,Ticks_Pract_8,48,1,48,33,119781276
112,1,0,Ticks_Pract_8,49,5,42,127,119850348
112,1,0,Ticks_Pract_8,50,5,42,127,120650164
112,1,0,Ticks_Pract_8,51,1,48,45,120710504
112,1,0,Ticks_Pract_8,52,1,48,37,121402284
112,1,0,Ticks_Pract_8,53,5,42,127,121449816
112,1,0,Ticks_Pract_8,54,1,48,32,122164768
112,1,0,Ticks_Pract_8,55,5,42,127,122249624
112,1,0,Ticks_Pract_8,56,1,48,30,122959944
112,1,0,Ticks_Pract_8,57,5,42,127,123050332
112,1,0,Ticks_Pract_8,58,1,48,32,123716664
112,1,0,Ticks_Pract_8,59,5,42,127,123850344
112,1,0,Ticks_Pract_8,60,1,48,38,124530536
112,1,0,Ticks_Pract_8,0,9999,9999,9999,100647988
112,1,0,Ticks_Pract_8,1,9999,9999,9999,101447744
112,1,0,Ticks_Pract_8,2,9999,9999,9999,102247496
112,1,0,Ticks_Pract_8,3,9999,9999,9999,103047284
112,1,0,Ticks_Pract_8,4,9999,9999,9999,103847988
112,1,0,Ticks_Pract_8,5,9999,9999,9999,104647788
112,1,0,Ticks_Pract_8,6,9999,9999,9999,105447472
112,1,0,Ticks_Pract_8,7,9999,9999,9999,106247280
112,1,0,Ticks_Pract_8,8,9999,9999,9999,107047984
112,1,0,Ticks_Pract_8,9,9999,9999,9999,107847792
112,1,0,Ticks_Pract_8,10,9999,9999,9999,108647528
112,1,0,Ticks_Pract_8,11,9999,9999,9999,109447220
112,1,0,Ticks_Pract_8,12,9999,9999,9999,110248016
112,1,0,Ticks_Pract_8,13,9999,9999,9999,111047748
112,1,0,Ticks_Pract_8,14,9999,9999,9999,111847504
112,1,0,Ticks_Pract_8,15,9999,9999,9999,112647224
112,1,0,Ticks_Pract_8,16,9999,9999,9999,113448004
112,1,0,Ticks_Pract_8,17,9999,9999,9999,114247756
112,1,0,Ticks_Pract_8,18,9999,9999,9999,115047472
112,1,0,Ticks_Pract_8,19,9999,9999,9999,115847220
112,1,0,Ticks_Pract_8,20,9999,9999,9999,116647984
112,1,0,Ticks_Pract_8,21,9999,9999,9999,117447792
112,1,0,Ticks_Pract_8,22,9999,9999,9999,118247476
112,1,0,Ticks_Pract_8,23,9999,9999,9999,119047284
112,1,0,Ticks_Pract_8,24,9999,9999,9999,119847988
112,1,0,Ticks_Pract_8,25,9999,9999,9999,120647728
112,1,0,Ticks_Pract_8,26,9999,9999,9999,121447532
112,1,0,Ticks_Pract_8,27,9999,9999,9999,122247264
112,1,0,Ticks_Pract_8,28,9999,9999,9999,123048044
112,1,0,Ticks_Pract_8,29,9999,9999,9999,123847760
112,2,1,Ticks_Pract_5,0,5,42,127,157999324
112,2,1,Ticks_Pract_5,1,5,42,127,158500084
112,2,1,Ticks_Pract_5,2,5,42,127,159000100
112,2,1,Ticks_Pract_5,3,5,42,127,159499592
112,2,1,Ticks_Pract_5,4,5,42,127,160000432
112,2,1,Ticks_Pract_5,5,1,48,38,160005196
112,2,1,Ticks_Pract_5,6,1,48,37,160439024
112,2,1,Ticks_Pract_5,7,5,42,127,160499968
112,2,1,Ticks_Pract_5,8,1,48,38,160907004
112,2,1,Ticks_Pract_5,9,5,42,127,160999812
112,2,1,Ticks_Pract_5,10,1,48,42,161372136
112,2,1,Ticks_Pract_5,11,5,42,127,161499416
112,2,1,Ticks_Pract_5,12,1,48,39,161866000
112,2,1,Ticks_Pract_5,13,5,42,127,162000132
112,2,1,Ticks_Pract_5,14,1,48,42,162354552
112,2,1,Ticks_Pract_5,15,5,42,127,162499976
112,2,1,Ticks_Pract_5,16,1,48,45,162839436
112,2,1,Ticks_Pract_5,17,5,42,127,162999672
112,2,1,Ticks_Pract_5,18,1,48,42,163332848
112,2,1,Ticks_Pract_5,19,5,42,127,163500412
112,2,1,Ticks_Pract_5,20,1,48,40,163810176
112,2,1,Ticks_Pract_5,21,5,42,127,163999960
112,2,1,Ticks_Pract_5,22,1,48,39,164283520
112,2,1,Ticks_Pract_5,23,5,42,127,164499948
112,2,1,Ticks_Pract_5,24,1,48,40,164795704
112,2,1,Ticks_Pract_5,25,5,42,127,164999420
112,2,1,Ticks_Pract_5,26,1,48,42,165335264
112,2,1,Ticks_Pract_5,27,5,42,127,165500312
112,2,1,Ticks_Pract_5,28,1,48,40,165821944
112,2,1,Ticks_Pract_5,29,5,42,127,165999856
112,2,1,Ticks_Pract_5,30,1,48,40,166329420
112,2,1,Ticks_Pract_5,31,5,42,127,166499624
112,2,1,Ticks_Pract_5,32,1,48,37,166852592
112,2,1,Ticks_Pract_5,33,5,42,127,167000440
112,2,1,Ticks_Pract_5,34,1,48,42,167344140
112,2,1,Ticks_Pract_5,35,5,42,127,167500208
112,2,1,Ticks_Pract_5,36,1,48,43,167907136
112,2,1,Ticks_Pract_5,37,5,42,127,168000068
112,2,1,Ticks_Pract_5,38,1,48,41,168449688
112,2,1,Ticks_Pract_5,39,5,42,127,168499540
112,2,1,Ticks_Pract_5,40,1,48,40,168990520
112,2,1,Ticks_Pract_5,41,5,42,127,169000208
112,2,1,Ticks_Pract_5,42,5,42,127,169500132
112,2,1,Ticks_Pract_5,43,1,48,37,169506464
112,2,1,Ticks_Pract_5,44,5,42,127,169999900
112,2,1,Ticks_Pract_5,45,1,48,35,170025380
112,2,1,Ticks_Pract_5,46,5,42,127,170499372
112,2,1,Ticks_Pract_5,47,1,48,40,170523132
112,2,1,Ticks_Pract_5,48,5,42,127,171000260
112,2,1,Ticks_Pract_5,49,1,48,40,171017740
112,2,1,Ticks_Pract_5,50,1,48,34,171499808
112,2,1,Ticks_Pract_5,51,5,42,127,171501144
112,2,1,Ticks_Pract_5,52,1,48,36,171974828
112,2,1,Ticks_Pract_5,53,5,42,127,171999568
112,2,1,Ticks_Pract_5,54,1,48,36,172464200
112,2,1,Ticks_Pract_5,55,5,42,127,172500208
112,2,1,Ticks_Pract_5,56,1,48,43,172936964
112,2,1,Ticks_Pract_5,57,5,42,127,172999980
112,2,1,Ticks_Pract_5,58,1,48,40,173422144
112,2,1,Ticks_Pract_5,59,5,42,127,173500044
112,2,1,Ticks_Pract_5,60,1,48,35,173872096
112,2,1,Ticks_Pract_5,61,5,42,127,173999352
112,2,1,Ticks_Pract_5,62,1,48,41,174419292
112,2,1,Ticks_Pract_5,63,5,42,127,174500256
112,2,1,Ticks_Pract_5,64,1,48,37,174883828
112,2,1,Ticks_Pract_5,65,5,42,127,175000084
112,2,1,Ticks_Pract_5,66,1,48,33,175371856
112,2,1,Ticks_Pract_5,67,5,42,127,175499780
112,2,1,Ticks_Pract_5,68,1,48,36,175875364
112,2,1,Ticks_Pract_5,69,5,42,127,176000296
112,2,1,Ticks_Pract_5,70,1,48,37,176372364
112,2,1,Ticks_Pract_5,71,5,42,127,176500212
112,2,1,Ticks_Pract_5,72,1,48,31,176897196
112,2,1,Ticks_Pract_5,73,5,42,127,176999984
112,2,1,Ticks_Pract_5,74,1,48,38,177371308
112,2,1,Ticks_Pract_5,75,5,42,127,177499604
112,2,1,Ticks_Pract_5,76,1,48,41,177908324
112,2,1,Ticks_Pract_5,0,9999,9999,9999,157997112
112,2,1,Ticks_Pract_5,1,9999,9999,9999,158497872
112,2,1,Ticks_Pract_5,2,9999,9999,9999,158997588
112,2,1,Ticks_Pract_5,3,9999,9999,9999,159497308
112,2,1,Ticks_Pract_5,4,9999,9999,9999,159998068
112,2,1,Ticks_Pract_5,5,9999,9999,9999,160497756
112,2,1,Ticks_Pract_5,6,9999,9999,9999,160997452
112,2,1,Ticks_Pract_5,7,9999,9999,9999,161497204
112,2,1,Ticks_Pract_5,8,9999,9999,9999,161997920
112,2,1,Ticks_Pract_5,9,9999,9999,9999,162497616
112,2,1,Ticks_Pract_5,10,9999,9999,9999,162997312
112,2,1,Ticks_Pract_5,11,9999,9999,9999,163498052
112,2,1,Ticks_Pract_5,12,9999,9999,9999,163997748
112,2,1,Ticks_Pract_5,13,9999,9999,9999,164497516
112,2,1,Ticks_Pract_5,14,9999,9999,9999,164997208
112,2,1,Ticks_Pract_5,15,9999,9999,9999,165497952
112,2,1,Ticks_Pract_5,16,9999,9999,9999,165997644
112,2,1,Ticks_Pract_5,17,9999,9999,9999,166497340
112,2,1,Ticks_Pract_5,18,9999,9999,9999,166998080
112,2,1,Ticks_Pract_5,19,9999,9999,9999,167497848
112,2,1,Ticks_Pract_5,20,9999,9999,9999,167997560
112,2,1,Ticks_Pract_5,21,9999,9999,9999,168497252
112,2,1,Ticks_Pract_5,22,9999,9999,9999,168997996
112,2,1,Ticks_Pract_5,23,9999,9999,9999,169497696
112,2,1,Ticks_Pract_5,24,9999,9999,9999,169997392
112,2,1,Ticks_Pract_5,25,9999,9999,9999,170497084
112,2,1,Ticks_Pract_5,26,9999,9999,9999,170997824
112,2,1,Ticks_Pract_5,27,9999,9999,9999,171497520
112,2,1,Ticks_Pract_5,28,9999,9999,9999,171997284
112,2,1,Ticks_Pract_5,29,9999,9999,9999,172497996
112,2,1,Ticks_Pract_5,30,9999,9999,9999,172997692
112,2,1,Ticks_Pract_5,31,9999,9999,9999,173497460
112,2,1,Ticks_Pract_5,32,9999,9999,9999,173997140
112,2,1,Ticks_Pract_5,33,9999,9999,9999,174497896
112,2,1,Ticks_Pract_5,34,9999,9999,9999,174997576
112,2,1,Ticks_Pract_5,35,9999,9999,9999,175497268
112,2,1,Ticks_Pract_5,36,9999,9999,9999,175998012
112,2,1,Ticks_Pract_5,37,9999,9999,9999,176497780
112,2,1,Ticks_Pract_5,38,9999,9999,9999,176997472
112,2,1,Ticks_Pract_5,39,9999,9999,9999,177497168
112,3,2,T1_SMS_8,0,5,42,127,277543264
112,3,2,T1_SMS_8,1,5,42,127,278343016
112,3,2,T1_SMS_8,2,5,42,127,279142700
112,3,2,T1_SMS_8,3,5,42,127,279942528
112,3,2,T1_SMS_8,4,5,42,127,280743404
112,3,2,T1_SMS_8,5,1,48,43,280761332
112,3,2,T1_SMS_8,6,1,48,43,281504648
112,3,2,T1_SMS_8,7,5,42,127,281543132
112,3,2,T1_SMS_8,8,1,48,45,282323160
112,3,2,T1_SMS_8,9,5,42,127,282342740
112,3,2,T1_SMS_8,10,1,48,43,283135632
112,3,2,T1_SMS_8,11,5,42,127,283142472
112,3,2,T1_SMS_8,12,1,48,48,283940748
112,3,2,T1_SMS_8,13,5,42,127,283943328
112,3,2,T1_SMS_8,14,1,48,38,284715500
112,3,2,T1_SMS_8,15,5,42,127,284742984
112,3,2,T1_SMS_8,16,1,48,37,285529300
112,3,2,T1_SMS_8,17,5,42,127,285542940
112,3,2,T1_SMS_8,18,1,48,38,286296200
112,3,2,T1_SMS_8,19,5,42,127,286342452
112,3,2,T1_SMS_8,20,1,48,45,287053440
112,3,2,T1_SMS_8,21,5,42,127,287143308
112,3,2,T1_SMS_8,22,1,48,41,287866264
112,3,2,T1_SMS_8,23,5,42,127,287942968
112,3,2,T1_SMS_8,24,1,48,42,288641840
112,3,2,T1_SMS_8,25,5,42,127,288742860
112,3,2,T1_SMS_8,26,1,48,38,289388168
112,3,2,T1_SMS_8,27,5,42,127,289542592
112,3,2,T1_SMS_8,28,1,48,33,290207720
112,3,2,T1_SMS_8,29,5,42,127,290343224
112,3,2,T1_SMS_8,30,1,48,29,291057148
112,3,2,T1_SMS_8,31,5,42,127,291143268
112,3,2,T1_SMS_8,32,1,48,49,291876844
112,3,2,T1_SMS_8,33,5,42,127,291942852
112,3,2,T1_SMS_8,34,1,48,45,292685112
112,3,2,T1_SMS_8,35,5,42,127,292742440
112,3,2,T1_SMS_8,36,1,48,45,293469216
112,3,2,T1_SMS_8,37,5,42,127,293543220
112,3,2,T1_SMS_8,38,1,48,19,293565992
112,3,2,T1_SMS_8,39,1,48,45,294279324
112,3,2,T1_SMS_8,40,5,42,127,294343228
112,3,2,T1_SMS_8,41,1,48,19,294375456
112,3,2,T1_SMS_8,42,5,42,127,295142972
112,3,2,T1_SMS_8,43,1,48,36,295163892
112,3,2,T1_SMS_8,44,1,48,21,295230968
112,3,2,T1_SMS_8,45,5,42,127,295942388
112,3,2,T1_SMS_8,46,1,48,28,295969440
112,3,2,T1_SMS_8,47,1,48,36,296698624
112,3,2,T1_SMS_8,48,5,42,127,296743164
112,3,2,T1_SMS_8,49,1,48,35,297464472
112,3,2,T1_SMS_8,50,5,42,127,297543120
112,3,2,T1_SMS_8,51,1,48,40,298183104
112,3,2,T1_SMS_8,52,5,42,127,298342688
112,3,2,T1_SMS_8,53,1,48,36,299040452
112,3,2,T1_SMS_8,54,5,42,127,299142500
112,3,2,T1_SMS_8,55,1,48,46,299817080
112,3,2,T1_SMS_8,56,5,42,127,299943204
112,3,2,T1_SMS_8,57,1,48,48,300636412
112,3,2,T1_SMS_8,58,5,42,127,300742936
112,3,2,T1_SMS_8,59,1,48,46,301438236
112,3,2,T1_SMS_8,60,5,42,127,301542992
112,3,2,T1_SMS_8,61,1,48,42,302292296
112,3,2,T1_SMS_8,62,5,42,127,302342520
112,3,2,T1_SMS_8,63,1,48,50,303030524
112,3,2,T1_SMS_8,64,5,42,127,303143208
112,3,2,T1_SMS_8,65,1,48,52,303829084
112,3,2,T1_SMS_8,66,5,42,127,303943088
112,3,2,T1_SMS_8,67,1,48,31,304501788
112,3,2,T1_SMS_8,68,5,42,127,304743048
112,3,2,T1_SMS_8,69,1,48,30,305502148
112,3,2,T1_SMS_8,70,5,42,127,305542424
112,3,2,T1_SMS_8,71,5,42,127,306343208
112,3,2,T1_SMS_8,72,1,48,37,306393328
112,3,2,T1_SMS_8,73,5,42,127,307142868
112,3,2,T1_SMS_8,74,1,48,35,307187752
112,3,2,T1_SMS_8,75,5,42,127,307942848
112,3,2,T1_SMS_8,76,1,48,35,307964592
112,3,2,T1_SMS_8,77,5,42,127,308742432
112,3,2,T1_SMS_8,78,1,48,35,308765668
112,3,2,T1_SMS_8,79,5,42,127,309543364
112,3,2,T1_SMS_8,80,1,48,29,309626216
112,3,2,T1_SMS_8,81,5,42,127,310342948
112,3,2,T1_SMS_8,82,1,48,52,310777400
112,3,2,T1_SMS_8,83,5,42,127,311142904
112,3,2,T1_SMS_8,84,5,42,127,311942436
112,3,2,T1_SMS_8,85,5,42,127,312743236
112,3,2,T1_SMS_8,86,1,48,25,312848780
112,3,2,T1_SMS_8,87,5,42,127,313543044
112,3,2,T1_SMS_8,88,1,48,36,313579028
112,3,2,T1_SMS_8,89,5,42,127,314342952
112,3,2,T1_SMS_8,90,1,48,37,314359912
112,3,2,T1_SMS_8,91,1,48,36,315121852
112,3,2,T1_SMS_8,92,5,42,127,315142456
112,3,2,T1_SMS_8,93,1,48,39,315849308
112,3,2,T1_SMS_8,94,5,42,127,315943144
112,3,2,T1_SMS_8,95,1,48,35,316666712
112,3,2,T1_SMS_8,96,5,42,127,316743044
112,3,2,T1_SMS_8,97,1,48,47,317419852
112,3,2,T1_SMS_8,98,5,42,127,317542908
112,3,2,T1_SMS_8,99,1,48,44,318208960
112,3,2,T1_SMS_8,100,5,42,127,318342568
112,3,2,T1_SMS_8,101,1,48,44,319017000
112,3,2,T1_SMS_8,102,5,42,127,319143352
112,3,2,T1_SMS_8,103,1,48,47,319805740
112,3,2,T1_SMS_8,104,5,42,127,319943160
112,3,2,T1_SMS_8,105,1,48,40,320600008
112,3,2,T1_SMS_8,106,5,42,127,320742768
112,3,2,T1_SMS_8,107,1,48,26,321492592
112,3,2,T1_SMS_8,108,5,42,127,321542368
112,3,2,T1_SMS_8,109,1,48,33,322217060
112,3,2,T1_SMS_8,110,5,42,127,322343132
112,3,2,T1_SMS_8,111,1,48,48,323034320
112,3,2,T1_SMS_8,112,5,42,127,323142944
112,3,2,T1_SMS_8,113,1,48,42,323851704
112,3,2,T1_SMS_8,114,1,48,26,323913988
112,3,2,T1_SMS_8,115,5,42,127,323942968
112,3,2,T1_SMS_8,116,5,42,127,324742632
112,3,2,T1_SMS_8,117,1,48,30,324787640
112,3,2,T1_SMS_8,118,1,48,36,325527292
112,3,2,T1_SMS_8,119,5,42,127,325543484
112,3,2,T1_SMS_8,120,1,48,36,326220588
112,3,2,T1_SMS_8,121,5,42,127,326342904
112,3,2,T1_SMS_8,122,1,48,43,327111352
112,3,2,T1_SMS_8,123,5,42,127,327142900
112,3,2,T1_SMS_8,124,1,48,36,327893980
112,3,2,T1_SMS_8,125,5,42,127,327942636
112,3,2,T1_SMS_8,126,1,48,35,328653976
112,3,2,T1_SMS_8,127,5,42,127,328743340
112,3,2,T1_SMS_8,128,1,48,46,329463008
112,3,2,T1_SMS_8,129,5,42,127,329542928
112,3,2,T1_SMS_8,130,1,48,43,330138476
112,3,2,T1_SMS_8,131,5,42,127,330343016
112,3,2,T1_SMS_8,132,1,48,42,331115880
112,3,2,T1_SMS_8,133,5,42,127,331142692
112,3,2,T1_SMS_8,134,1,48,42,331940744
112,3,2,T1_SMS_8,135,5,42,127,331943248
112,3,2,T1_SMS_8,136,1,48,41,332724168
112,3,2,T1_SMS_8,137,5,42,127,332742980
112,3,2,T1_SMS_8,138,1,48,39,333481940
112,3,2,T1_SMS_8,139,5,42,127,333542740
112,3,2,T1_SMS_8,140,1,48,42,334247420
112,3,2,T1_SMS_8,141,5,42,127,334342752
112,3,2,T1_SMS_8,142,1,48,43,335099236
112,3,2,T1_SMS_8,143,5,42,127,335143176
112,3,2,T1_SMS_8,144,1,48,42,335919616
112,3,2,T1_SMS_8,145,5,42,127,335942984
112,3,2,T1_SMS_8,146,1,48,45,336690252
112,3,2,T1_SMS_8,147,5,42,127,336742644
112,3,2,T1_SMS_8,148,1,48,38,337510780
112,3,2,T1_SMS_8,149,5,42,127,337542672
112,3,2,T1_SMS_8,150,1,48,45,338308940
112,3,2,T1_SMS_8,151,5,42,127,338343304
112,3,2,T1_SMS_8,152,1,48,31,339143416
112,3,2,T1_SMS_8,153,5,42,127,339144680
112,3,2,T1_SMS_8,154,1,48,40,339923168
112,3,2,T1_SMS_8,155,5,42,127,339942800
112,3,2,T1_SMS_8,156,1,48,38,340710936
112,3,2,T1_SMS_8,157,5,42,127,340742608
112,3,2,T1_SMS_8,158,1,48,38,341522712
112,3,2,T1_SMS_8,159,5,42,127,341543164
112,3,2,T1_SMS_8,160,1,48,36,342324160
112,3,2,T1_SMS_8,161,5,42,127,342342972
112,3,2,T1_SMS_8,162,1,48,41,343142032
112,3,2,T1_SMS_8,163,5,42,127,343143680
112,3,2,T1_SMS_8,164,5,42,127,343942520
112,3,2,T1_SMS_8,165,1,48,32,344069904
112,3,2,T1_SMS_8,166,5,42,127,344743452
112,3,2,T1_SMS_8,167,5,42,127,345542908
112,3,2,T1_SMS_8,168,1,48,39,345675900
112,3,2,T1_SMS_8,169,5,42,127,346342740
112,3,2,T1_SMS_8,170,5,42,127,347142572
112,3,2,T1_SMS_8,171,5,42,127,347943224
112,3,2,T1_SMS_8,172,1,48,33,347992644
112,3,2,T1_SMS_8,173,5,42,127,348742956
112,3,2,T1_SMS_8,174,1,48,40,348796784
112,3,2,T1_SMS_8,175,5,42,127,349542692
112,3,2,T1_SMS_8,176,1,48,43,349558452
112,3,2,T1_SMS_8,177,1,48,39,350327496
112,3,2,T1_SMS_8,178,5,42,127,350342640
112,3,2,T1_SMS_8,179,1,48,33,351131344
112,3,2,T1_SMS_8,180,5,42,127,351143196
112,3,2,T1_SMS_8,181,1,48,28,351893376
112,3,2,T1_SMS_8,182,5,42,127,351943080
112,3,2,T1_SMS_8,183,1,48,45,352640904
112,3,2,T1_SMS_8,184,5,42,127,352742748
112,3,2,T1_SMS_8,185,1,48,29,353471532
112,3,2,T1_SMS_8,186,5,42,127,353542720
112,3,2,T1_SMS_8,187,5,42,127,354343132
112,3,2,T1_SMS_8,188,1,48,32,354370716
112,3,2,T1_SMS_8,189,1,48,27,355133628
112,3,2,T1_SMS_8,190,5,42,127,355143084
112,3,2,T1_SMS_8,191,1,48,37,355920644
112,3,2,T1_SMS_8,192,5,42,127,355942744
112,3,2,T1_SMS_8,193,1,48,33,356683056
112,3,2,T1_SMS_8,194,5,42,127,356742776
112,3,2,T1_SMS_8,195,1,48,38,357535740
112,3,2,T1_SMS_8,196,5,42,127,357543184
112,3,2,T1_SMS_8,197,1,48,31,358289252
112,3,2,T1_SMS_8,198,5,42,127,358343064
112,3,2,T1_SMS_8,199,1,48,41,358993616
112,3,2,T1_SMS_8,200,5,42,127,359142732
112,3,2,T1_SMS_8,201,1,48,44,359879592
112,3,2,T1_SMS_8,202,5,42,127,359942704
112,3,2,T1_SMS_8,203,1,48,35,360657964
112,3,2,T1_SMS_8,204,5,42,127,360743408
112,3,2,T1_SMS_8,205,1,48,45,361486492
112,3,2,T1_SMS_8,206,5,42,127,361542920
112,3,2,T1_SMS_8,207,1,48,44,362255028
112,3,2,T1_SMS_8,208,5,42,127,362342804
112,3,2,T1_SMS_8,209,1,48,46,363113180
112,3,2,T1_SMS_8,210,5,42,127,363142908
112,3,2,T1_SMS_8,211,1,48,44,363904388
112,3,2,T1_SMS_8,212,5,42,127,363943388
112,3,2,T1_SMS_8,213,1,48,47,364684600
112,3,2,T1_SMS_8,214,5,42,127,364742976
112,3,2,T1_SMS_8,215,5,42,127,365542816
112,3,2,T1_SMS_8,216,1,48,44,365553336
112,3,2,T1_SMS_8,217,1,48,39,366319096
112,3,2,T1_SMS_8,218,5,42,127,366342540
112,3,2,T1_SMS_8,219,1,48,39,367122720
112,3,2,T1_SMS_8,220,5,42,127,367143248
112,3,2,T1_SMS_8,221,1,48,38,367939580
112,3,2,T1_SMS_8,222,5,42,127,367942908
112,3,2,T1_SMS_8,223,1,48,43,368708200
112,3,2,T1_SMS_8,224,5,42,127,368742792
112,3,2,T1_SMS_8,225,1,48,23,368770876
112,3,2,T1_SMS_8,226,1,48,20,369520928
112,3,2,T1_SMS_8,227,5,42,127,369542504
112,3,2,T1_SMS_8,228,1,48,42,370257680
112,3,2,T1_SMS_8,229,1,48,21,370328944
112,3,2,T1_SMS_8,230,5,42,127,370343408
112,3,2,T1_SMS_8,231,1,48,26,371102420
112,3,2,T1_SMS_8,232,5,42,127,371142920
112,3,2,T1_SMS_8,233,1,48,45,371853084
112,3,2,T1_SMS_8,234,5,42,127,371942900
112,3,2,T1_SMS_8,235,1,48,36,372712536
112,3,2,T1_SMS_8,236,5,42,127,372742488
112,3,2,T1_SMS_8,237,1,48,43,373503740
112,3,2,T1_SMS_8,0,9999,9999,9999,277540976
112,3,2,T1_SMS_8,1,9999,9999,9999,278340656
112,3,2,T1_SMS_8,2,9999,9999,9999,279140408
112,3,2,T1_SMS_8,3,9999,9999,9999,279940164
112,3,2,T1_SMS_8,4,9999,9999,9999,280740968
112,3,2,T1_SMS_8,5,9999,9999,9999,281540696
112,3,2,T1_SMS_8,6,9999,9999,9999,282340452
112,3,2,T1_SMS_8,7,9999,9999,9999,283140184
112,3,2,T1_SMS_8,8,9999,9999,9999,283940964
112,3,2,T1_SMS_8,9,9999,9999,9999,284740696
112,3,2,T1_SMS_8,10,9999,9999,9999,285540432
112,3,2,T1_SMS_8,11,9999,9999,9999,286340164
112,3,2,T1_SMS_8,12,9999,9999,9999,287140944
112,3,2,T1_SMS_8,13,9999,9999,9999,287940680
112,3,2,T1_SMS_8,14,9999,9999,9999,288740424
112,3,2,T1_SMS_8,15,9999,9999,9999,289540156
112,3,2,T1_SMS_8,16,9999,9999,9999,290340936
112,3,2,T1_SMS_8,17,9999,9999,9999,291140684
112,3,2,T1_SMS_8,18,9999,9999,9999,291940416
112,3,2,T1_SMS_8,19,9999,9999,9999,292740152
112,3,2,T1_SMS_8,20,9999,9999,9999,293540932
112,3,2,T1_SMS_8,21,9999,9999,9999,294340720
112,3,2,T1_SMS_8,22,9999,9999,9999,295140460
112,3,2,T1_SMS_8,23,9999,9999,9999,295940176
112,3,2,T1_SMS_8,24,9999,9999,9999,296740948
112,3,2,T1_SMS_8,25,9999,9999,9999,297540684
112,3,2,T1_SMS_8,26,9999,9999,9999,298340400
112,3,2,T1_SMS_8,27,9999,9999,9999,299140212
112,3,2,T1_SMS_8,28,9999,9999,9999,299940916
112,3,2,T1_SMS_8,29,9999,9999,9999,300740724
112,3,2,T1_SMS_8,30,9999,9999,9999,301540408
112,3,2,T1_SMS_8,31,9999,9999,9999,302340156
112,3,2,T1_SMS_8,32,9999,9999,9999,303140920
112,3,2,T1_SMS_8,33,9999,9999,9999,303940728
112,3,2,T1_SMS_8,34,9999,9999,9999,304740460
112,3,2,T1_SMS_8,35,9999,9999,9999,305540212
112,3,2,T1_SMS_8,36,9999,9999,9999,306340920
112,3,2,T1_SMS_8,37,9999,9999,9999,307140656
112,3,2,T1_SMS_8,38,9999,9999,9999,307940412
112,3,2,T1_SMS_8,39,9999,9999,9999,308740144
112,3,2,T1_SMS_8,40,9999,9999,9999,309540924
112,3,2,T1_SMS_8,41,9999,9999,9999,310340660
112,3,2,T1_SMS_8,42,9999,9999,9999,311140464
112,3,2,T1_SMS_8,43,9999,9999,9999,311940148
112,3,2,T1_SMS_8,44,9999,9999,9999,312740948
112,3,2,T1_SMS_8,45,9999,9999,9999,313540680
112,3,2,T1_SMS_8,46,9999,9999,9999,314340440
112,3,2,T1_SMS_8,47,9999,9999,9999,315140168
112,3,2,T1_SMS_8,48,9999,9999,9999,315940932
112,3,2,T1_SMS_8,49,9999,9999,9999,316740680
112,3,2,T1_SMS_8,50,9999,9999,9999,317540400
112,3,2,T1_SMS_8,51,9999,9999,9999,318340208
112,3,2,T1_SMS_8,52,9999,9999,9999,319140912
112,3,2,T1_SMS_8,53,9999,9999,9999,319940724
112,3,2,T1_SMS_8,54,9999,9999,9999,320740408
112,3,2,T1_SMS_8,55,9999,9999,9999,321540156
112,3,2,T1_SMS_8,56,9999,9999,9999,322340920
112,3,2,T1_SMS_8,57,9999,9999,9999,323140656
112,3,2,T1_SMS_8,58,9999,9999,9999,323940456
112,3,2,T1_SMS_8,59,9999,9999,9999,324740196
112,3,2,T1_SMS_8,60,9999,9999,9999,325540972
112,3,2,T1_SMS_8,61,9999,9999,9999,326340692
112,3,2,T1_SMS_8,62,9999,9999,9999,327140464
112,3,2,T1_SMS_8,63,9999,9999,9999,327940200
112,3,2,T1_SMS_8,64,9999,9999,9999,328740980
112,3,2,T1_SMS_8,65,9999,9999,9999,329540712
112,3,2,T1_SMS_8,66,9999,9999,9999,330340432
112,3,2,T1_SMS_8,67,9999,9999,9999,331140180
112,3,2,T1_SMS_8,68,9999,9999,9999,331940960
112,3,2,T1_SMS_8,69,9999,9999,9999,332740692
112,3,2,T1_SMS_8,70,9999,9999,9999,333540452
112,3,2,T1_SMS_8,71,9999,9999,9999,334340240
112,3,2,T1_SMS_8,72,9999,9999,9999,335140964
112,3,2,T1_SMS_8,73,9999,9999,9999,335940696
112,3,2,T1_SMS_8,74,9999,9999,9999,336740428
112,3,2,T1_SMS_8,75,9999,9999,9999,337540164
112,3,2,T1_SMS_8,76,9999,9999,9999,338340944
112,3,2,T1_SMS_8,77,9999,9999,9999,339140684
112,3,2,T1_SMS_8,78,9999,9999,9999,339940436
112,3,2,T1_SMS_8,79,9999,9999,9999,340740172
112,3,2,T1_SMS_8,80,9999,9999,9999,341540952
112,3,2,T1_SMS_8,81,9999,9999,9999,342340684
112,3,2,T1_SMS_8,82,9999,9999,9999,343140424
112,3,2,T1_SMS_8,83,9999,9999,9999,343940156
112,3,2,T1_SMS_8,84,9999,9999,9999,344740940
112,3,2,T1_SMS_8,85,9999,9999,9999,345540696
112,3,2,T1_SMS_8,86,9999,9999,9999,346340452
112,3,2,T1_SMS_8,87,9999,9999,9999,347140208
112,3,2,T1_SMS_8,88,9999,9999,9999,347940936
112,3,2,T1_SMS_8,89,9999,9999,9999,348740668
112,3,2,T1_SMS_8,90,9999,9999,9999,349540404
112,3,2,T1_SMS_8,91,9999,9999,9999,350340204
112,3,2,T1_SMS_8,92,9999,9999,9999,351140908
112,3,2,T1_SMS_8,93,9999,9999,9999,351940716
112,3,2,T1_SMS_8,94,9999,9999,9999,352740460
112,3,2,T1_SMS_8,95,9999,9999,9999,353540208
112,3,2,T1_SMS_8,96,9999,9999,9999,354340920
112,3,2,T1_SMS_8,97,9999,9999,9999,355140724
112,3,2,T1_SMS_8,98,9999,9999,9999,355940456
112,3,2,T1_SMS_8,99,9999,9999,9999,356740192
112,3,2,T1_SMS_8,100,9999,9999,9999,357540972
112,3,2,T1_SMS_8,101,9999,9999,9999,358340704
112,3,2,T1_SMS_8,102,9999,9999,9999,359140444
112,3,2,T1_SMS_8,103,9999,9999,9999,359940192
112,3,2,T1_SMS_8,104,9999,9999,9999,360740972
112,3,2,T1_SMS_8,105,9999,9999,9999,361540708
112,3,2,T1_SMS_8,106,9999,9999,9999,362340440
112,3,2,T1_SMS_8,107,9999,9999,9999,363140172
112,3,2,T1_SMS_8,108,9999,9999,9999,363940952
112,3,2,T1_SMS_8,109,9999,9999,9999,364740688
112,3,2,T1_SMS_8,110,9999,9999,9999,365540452
112,3,2,T1_SMS_8,111,9999,9999,9999,366340180
112,3,2,T1_SMS_8,112,9999,9999,9999,367140960
112,3,2,T1_SMS_8,113,9999,9999,9999,367940692
112,3,2,T1_SMS_8,114,9999,9999,9999,368740428
112,3,2,T1_SMS_8,115,9999,9999,9999,369540216
112,3,2,T1_SMS_8,116,9999,9999,9999,370340972
112,3,2,T1_SMS_8,117,9999,9999,9999,371140708
112,3,2,T1_SMS_8,118,9999,9999,9999,371940464
112,3,2,T1_SMS_8,119,9999,9999,9999,372740200
112,4,4,T1_SMS_5,0,5,42,127,444879068
112,4,4,T1_SMS_5,1,5,42,127,445379060
112,4,4,T1_SMS_5,2,5,42,127,445878852
112,4,4,T1_SMS_5,3,5,42,127,446379316
112,4,4,T1_SMS_5,4,5,42,127,446879180
112,4,4,T1_SMS_5,5,1,48,31,446923364
112,4,4,T1_SMS_5,6,1,48,44,447343832
112,4,4,T1_SMS_5,7,5,42,127,447378944
112,4,4,T1_SMS_5,8,1,48,44,447808220
112,4,4,T1_SMS_5,9,5,42,127,447878936
112,4,4,T1_SMS_5,10,1,48,46,448305448
112,4,4,T1_SMS_5,11,5,42,127,448379308
112,4,4,T1_SMS_5,12,1,48,48,448784648
112,4,4,T1_SMS_5,13,5,42,127,448878928
112,4,4,T1_SMS_5,14,1,48,48,449297356
112,4,4,T1_SMS_5,15,5,42,127,449378920
112,4,4,T1_SMS_5,16,1,48,50,449829516
112,4,4,T1_SMS_5,17,5,42,127,449879368
112,4,4,T1_SMS_5,18,1,48,43,450308640
112,4,4,T1_SMS_5,19,5,42,127,450378988
112,4,4,T1_SMS_5,20,1,48,45,450816268
112,4,4,T1_SMS_5,21,5,42,127,450878904
112,4,4,T1_SMS_5,22,1,48,43,451318808
112,4,4,T1_SMS_5,23,5,42,127,451378824
112,4,4,T1_SMS_5,24,1,48,46,451817752
112,4,4,T1_SMS_5,25,5,42,127,451879344
112,4,4,T1_SMS_5,26,1,48,47,452331132
112,4,4,T1_SMS_5,27,5,42,127,452378888
112,4,4,T1_SMS_5,28,1,48,48,452823124
112,4,4,T1_SMS_5,29,5,42,127,452878880
112,4,4,T1_SMS_5,30,1,48,50,453315236
112,4,4,T1_SMS_5,31,5,42,127,453378352
112,4,4,T1_SMS_5,32,1,48,49,453805804
112,4,4,T1_SMS_5,33,5,42,127,453879096
112,4,4,T1_SMS_5,34,1,48,48,454298620
112,4,4,T1_SMS_5,35,5,42,127,454378792
112,4,4,T1_SMS_5,36,1,48,48,454799212
112,4,4,T1_SMS_5,37,5,42,127,454878784
112,4,4,T1_SMS_5,38,1,48,45,455284024
112,4,4,T1_SMS_5,39,5,42,127,455379804
112,4,4,T1_SMS_5,40,1,48,49,455782220
112,4,4,T1_SMS_5,41,5,42,127,455879044
112,4,4,T1_SMS_5,42,1,48,51,456305324
112,4,4,T1_SMS_5,43,5,42,127,456378664
112,4,4,T1_SMS_5,44,1,48,49,456792680
112,4,4,T1_SMS_5,45,5,42,127,456878584
112,4,4,T1_SMS_5,46,1,48,48,457298364
112,4,4,T1_SMS_5,47,5,42,127,457379328
112,4,4,T1_SMS_5,48,1,48,43,457817208
112,4,4,T1_SMS_5,49,5,42,127,457878800
112,4,4,T1_SMS_5,50,1,48,50,458291468
112,4,4,T1_SMS_5,51,5,42,127,458378568
112,4,4,T1_SMS_5,52,1,48,51,458792212
112,4,4,T1_SMS_5,53,5,42,127,458879312
112,4,4,T1_SMS_5,54,1,48,49,459318836
112,4,4,T1_SMS_5,55,5,42,127,459379008
112,4,4,T1_SMS_5,56,1,48,46,459827356
112,4,4,T1_SMS_5,57,5,42,127,459878700
112,4,4,T1_SMS_5,58,1,48,19,460352852
112,4,4,T1_SMS_5,59,5,42,127,460378616
112,4,4,T1_SMS_5,60,1,48,54,460797424
112,4,4,T1_SMS_5,61,5,42,127,460879212
112,4,4,T1_SMS_5,62,1,48,48,461377396
112,4,4,T1_SMS_5,63,5,42,127,461378832
112,4,4,T1_SMS_5,64,1,48,44,461845280
112,4,4,T1_SMS_5,65,5,42,127,461878604
112,4,4,T1_SMS_5,66,1,48,45,462363596
112,4,4,T1_SMS_5,67,5,42,127,462379492
112,4,4,T1_SMS_5,68,1,48,48,462832624
112,4,4,T1_SMS_5,69,5,42,127,462879036
112,4,4,T1_SMS_5,70,1,48,51,463319608
112,4,4,T1_SMS_5,71,5,42,127,463378732
112,4,4,T1_SMS_5,72,1,48,48,463775664
112,4,4,T1_SMS_5,73,5,42,127,463878636
112,4,4,T1_SMS_5,74,1,48,48,464285836
112,4,4,T1_SMS_5,75,5,42,127,464379820
112,4,4,T1_SMS_5,76,1,48,47,464767432
112,4,4,T1_SMS_5,77,5,42,127,464878996
112,4,4,T1_SMS_5,78,1,48,44,465292176
112,4,4,T1_SMS_5,79,5,42,127,465378556
112,4,4,T1_SMS_5,80,1,48,51,465768016
112,4,4,T1_SMS_5,81,5,42,127,465879356
112,4,4,T1_SMS_5,82,1,48,47,466281768
112,4,4,T1_SMS_5,83,5,42,127,466379100
112,4,4,T1_SMS_5,84,1,48,51,466742496
112,4,4,T1_SMS_5,85,5,42,127,466878720
112,4,4,T1_SMS_5,86,1,48,43,467296420
112,4,4,T1_SMS_5,87,5,42,127,467378504
112,4,4,T1_SMS_5,88,1,48,45,467795288
112,4,4,T1_SMS_5,89,5,42,127,467879472
112,4,4,T1_SMS_5,90,1,48,50,468267460
112,4,4,T1_SMS_5,91,5,42,127,468378852
112,4,4,T1_SMS_5,92,1,48,47,468772464
112,4,4,T1_SMS_5,93,5,42,127,468878624
112,4,4,T1_SMS_5,94,1,48,47,469284200
112,4,4,T1_SMS_5,95,5,42,127,469378408
112,4,4,T1_SMS_5,96,1,48,44,469776868
112,4,4,T1_SMS_5,97,5,42,127,469879060
112,4,4,T1_SMS_5,98,1,48,50,470305208
112,4,4,T1_SMS_5,99,5,42,127,470378848
112,4,4,T1_SMS_5,100,1,48,52,470790988
112,4,4,T1_SMS_5,101,5,42,127,470878540
112,4,4,T1_SMS_5,102,1,48,51,471285596
112,4,4,T1_SMS_5,103,5,42,127,471379652
112,4,4,T1_SMS_5,104,5,42,127,471878908
112,4,4,T1_SMS_5,105,1,48,48,471880320
112,4,4,T1_SMS_5,106,1,48,44,472313636
112,4,4,T1_SMS_5,107,5,42,127,472378596
112,4,4,T1_SMS_5,108,1,48,48,472833232
112,4,4,T1_SMS_5,109,5,42,127,472878444
112,4,4,T1_SMS_5,110,1,48,46,473328140
112,4,4,T1_SMS_5,111,5,42,127,473379112
112,4,4,T1_SMS_5,112,1,48,49,473824992
112,4,4,T1_SMS_5,113,5,42,127,473878956
112,4,4,T1_SMS_5,114,1,48,41,474265724
112,4,4,T1_SMS_5,115,5,42,127,474378636
112,4,4,T1_SMS_5,116,5,42,127,474879620
112,4,4,T1_SMS_5,117,1,48,39,474890744
112,4,4,T1_SMS_5,118,1,48,46,475377740
112,4,4,T1_SMS_5,119,5,42,127,475379016
112,4,4,T1_SMS_5,120,1,48,40,475879236
112,4,4,T1_SMS_5,121,5,42,127,475880424
112,4,4,T1_SMS_5,122,1,48,48,476355980
112,4,4,T1_SMS_5,123,5,42,127,476378552
112,4,4,T1_SMS_5,124,5,42,127,476879152
112,4,4,T1_SMS_5,125,1,48,44,476880564
112,4,4,T1_SMS_5,126,1,48,41,477327844
112,4,4,T1_SMS_5,127,5,42,127,477378892
112,4,4,T1_SMS_5,128,1,48,44,477843844
112,4,4,T1_SMS_5,129,5,42,127,477878736
112,4,4,T1_SMS_5,130,1,48,47,478325732
112,4,4,T1_SMS_5,131,5,42,127,478379700
112,4,4,T1_SMS_5,132,1,48,46,478845700
112,4,4,T1_SMS_5,133,5,42,127,478879024
112,4,4,T1_SMS_5,134,1,48,45,479333660
112,4,4,T1_SMS_5,135,5,42,127,479378720
112,4,4,T1_SMS_5,136,1,48,46,479835668
112,4,4,T1_SMS_5,137,5,42,127,479878492
112,4,4,T1_SMS_5,138,1,48,42,480300288
112,4,4,T1_SMS_5,139,5,42,127,480379380
112,4,4,T1_SMS_5,140,1,48,44,480842992
112,4,4,T1_SMS_5,141,5,42,127,480878928
112,4,4,T1_SMS_5,142,1,48,39,481361756
112,4,4,T1_SMS_5,143,5,42,127,481378620
112,4,4,T1_SMS_5,144,1,48,46,481857568
112,4,4,T1_SMS_5,145,5,42,127,481879512
112,4,4,T1_SMS_5,146,1,48,48,482345960
112,4,4,T1_SMS_5,147,5,42,127,482379060
112,4,4,T1_SMS_5,148,1,48,44,482852536
112,4,4,T1_SMS_5,149,5,42,127,482878828
112,4,4,T1_SMS_5,150,1,48,39,483361960
112,4,4,T1_SMS_5,151,5,42,127,483378672
112,4,4,T1_SMS_5,152,1,48,43,483847368
112,4,4,T1_SMS_5,153,5,42,127,483879412
112,4,4,T1_SMS_5,154,1,48,46,484346012
112,4,4,T1_SMS_5,155,5,42,127,484378960
112,4,4,T1_SMS_5,156,1,48,43,484847204
112,4,4,T1_SMS_5,157,5,42,127,484878728
112,4,4,T1_SMS_5,158,1,48,44,485315904
112,4,4,T1_SMS_5,159,5,42,127,485378572
112,4,4,T1_SMS_5,160,1,48,44,485851824
112,4,4,T1_SMS_5,161,5,42,127,485879312
112,4,4,T1_SMS_5,162,1,48,39,486366260
112,4,4,T1_SMS_5,163,5,42,127,486378788
112,4,4,T1_SMS_5,164,1,48,47,486867304
112,4,4,T1_SMS_5,165,5,42,127,486878704
112,4,4,T1_SMS_5,166,1,48,43,487353732
112,4,4,T1_SMS_5,167,5,42,127,487379520
112,4,4,T1_SMS_5,168,1,48,39,487861200
112,4,4,T1_SMS_5,169,5,42,127,487878968
112,4,4,T1_SMS_5,170,1,48,43,488350732
112,4,4,T1_SMS_5,171,5,42,127,488378812
112,4,4,T1_SMS_5,172,1,48,45,488817140
112,4,4,T1_SMS_5,173,5,42,127,488878656
112,4,4,T1_SMS_5,174,1,48,47,489328200
112,4,4,T1_SMS_5,175,5,42,127,489379100
112,4,4,T1_SMS_5,176,1,48,42,489834028
112,4,4,T1_SMS_5,177,5,42,127,489878868
112,4,4,T1_SMS_5,178,1,48,47,490342628
112,4,4,T1_SMS_5,179,5,42,127,490378636
112,4,4,T1_SMS_5,180,1,48,43,490820476
112,4,4,T1_SMS_5,181,5,42,127,490879380
112,4,4,T1_SMS_5,182,1,48,40,491314112
112,4,4,T1_SMS_5,183,5,42,127,491379224
112,4,4,T1_SMS_5,184,1,48,36,491820016
112,4,4,T1_SMS_5,185,5,42,127,491878692
112,4,4,T1_SMS_5,186,1,48,44,492315824
112,4,4,T1_SMS_5,187,5,42,127,492378536
112,4,4,T1_SMS_5,188,1,48,43,492827336
112,4,4,T1_SMS_5,189,5,42,127,492879204
112,4,4,T1_SMS_5,190,1,48,44,493307960
112,4,4,T1_SMS_5,191,5,42,127,493378900
112,4,4,T1_SMS_5,192,1,48,39,493855896
112,4,4,T1_SMS_5,193,5,42,127,493878744
112,4,4,T1_SMS_5,194,1,48,37,494355068
112,4,4,T1_SMS_5,195,5,42,127,494379340
112,4,4,T1_SMS_5,196,1,48,36,494837112
112,4,4,T1_SMS_5,197,5,42,127,494878956
112,4,4,T1_SMS_5,198,1,48,29,495323040
112,4,4,T1_SMS_5,199,5,42,127,495378652
112,4,4,T1_SMS_5,200,1,48,46,495799972
112,4,4,T1_SMS_5,201,5,42,127,495878568
112,4,4,T1_SMS_5,202,1,48,50,496315220
112,4,4,T1_SMS_5,203,5,42,127,496379384
112,4,4,T1_SMS_5,204,1,48,51,496808268
112,4,4,T1_SMS_5,205,5,42,127,496878860
112,4,4,T1_SMS_5,206,1,48,43,497290004
112,4,4,T1_SMS_5,207,5,42,127,497378552
112,4,4,T1_SMS_5,208,1,48,46,497827176
112,4,4,T1_SMS_5,209,5,42,127,497879368
112,4,4,T1_SMS_5,210,1,48,53,498305256
112,4,4,T1_SMS_5,211,5,42,127,498379288
112,4,4,T1_SMS_5,212,1,48,46,498807564
112,4,4,T1_SMS_5,213,5,42,127,498878736
112,4,4,T1_SMS_5,214,1,48,44,499340844
112,4,4,T1_SMS_5,215,5,42,127,499378580
112,4,4,T1_SMS_5,216,1,48,39,499828948
112,4,4,T1_SMS_5,217,5,42,127,499879392
112,4,4,T1_SMS_5,218,1,48,41,500324900
112,4,4,T1_SMS_5,219,5,42,127,500379016
112,4,4,T1_SMS_5,220,1,48,37,500824152
112,4,4,T1_SMS_5,221,5,42,127,500878636
112,4,4,T1_SMS_5,222,1,48,38,501322272
112,4,4,T1_SMS_5,223,5,42,127,501378404
112,4,4,T1_SMS_5,224,1,48,38,501820696
112,4,4,T1_SMS_5,225,5,42,127,501879148
112,4,4,T1_SMS_5,226,1,48,41,502315524
112,4,4,T1_SMS_5,227,5,42,127,502378916
112,4,4,T1_SMS_5,228,1,48,33,502805944
112,4,4,T1_SMS_5,229,5,42,127,502878536
112,4,4,T1_SMS_5,230,1,48,32,503313644
112,4,4,T1_SMS_5,231,5,42,127,503379424
112,4,4,T1_SMS_5,232,1,48,38,503818428
112,4,4,T1_SMS_5,233,5,42,127,503879044
112,4,4,T1_SMS_5,234,1,48,44,504294708
112,4,4,T1_SMS_5,235,5,42,127,504378816
112,4,4,T1_SMS_5,236,1,48,31,504840256
112,4,4,T1_SMS_5,237,5,42,127,504878584
112,4,4,T1_SMS_5,238,1,48,35,505332844
112,4,4,T1_SMS_5,239,5,42,127,505379624
112,4,4,T1_SMS_5,240,1,48,30,505817800
112,4,4,T1_SMS_5,241,5,42,127,505878796
112,4,4,T1_SMS_5,242,1,48,40,506318244
112,4,4,T1_SMS_5,243,5,42,127,506378716
112,4,4,T1_SMS_5,244,1,48,39,506864764
112,4,4,T1_SMS_5,245,5,42,127,506879456
112,4,4,T1_SMS_5,246,1,48,45,507363336
112,4,4,T1_SMS_5,247,5,42,127,507379076
112,4,4,T1_SMS_5,248,1,48,47,507862952
112,4,4,T1_SMS_5,249,5,42,127,507878696
112,4,4,T1_SMS_5,250,5,42,127,508378400
112,4,4,T1_SMS_5,251,1,48,40,508380412
112,4,4,T1_SMS_5,252,1,48,33,508875580
112,4,4,T1_SMS_5,253,5,42,127,508879508
112,4,4,T1_SMS_5,254,1,48,28,509347576
112,4,4,T1_SMS_5,255,5,42,127,509378804
112,4,4,T1_SMS_5,256,1,48,42,509827972
112,4,4,T1_SMS_5,0,9999,9999,9999,444876856
112,4,4,T1_SMS_5,1,9999,9999,9999,445376624
112,4,4,T1_SMS_5,2,9999,9999,9999,445876340
112,4,4,T1_SMS_5,3,9999,9999,9999,446377032
112,4,4,T1_SMS_5,4,9999,9999,9999,446876744
112,4,4,T1_SMS_5,5,9999,9999,9999,447376436
112,4,4,T1_SMS_5,6,9999,9999,9999,447876204
112,4,4,T1_SMS_5,7,9999,9999,9999,448376948
112,4,4,T1_SMS_5,8,9999,9999,9999,448876640
112,4,4,T1_SMS_5,9,9999,9999,9999,449376336
112,4,4,T1_SMS_5,10,9999,9999,9999,449877080
112,4,4,T1_SMS_5,11,9999,9999,9999,450376776
112,4,4,T1_SMS_5,12,9999,9999,9999,450876472
112,4,4,T1_SMS_5,13,9999,9999,9999,451376240
112,4,4,T1_SMS_5,14,9999,9999,9999,451876984
112,4,4,T1_SMS_5,15,9999,9999,9999,452376676
112,4,4,T1_SMS_5,16,9999,9999,9999,452876372
112,4,4,T1_SMS_5,17,9999,9999,9999,453376068
112,4,4,T1_SMS_5,18,9999,9999,9999,453876808
112,4,4,T1_SMS_5,19,9999,9999,9999,454376504
112,4,4,T1_SMS_5,20,9999,9999,9999,454876272
112,4,4,T1_SMS_5,21,9999,9999,9999,455377016
112,4,4,T1_SMS_5,22,9999,9999,9999,455876684
112,4,4,T1_SMS_5,23,9999,9999,9999,456376380
112,4,4,T1_SMS_5,24,9999,9999,9999,456876148
112,4,4,T1_SMS_5,25,9999,9999,9999,457376892
112,4,4,T1_SMS_5,26,9999,9999,9999,457876588
112,4,4,T1_SMS_5,27,9999,9999,9999,458376284
112,4,4,T1_SMS_5,28,9999,9999,9999,458877024
112,4,4,T1_SMS_5,29,9999,9999,9999,459376720
112,4,4,T1_SMS_5,30,9999,9999,9999,459876412
112,4,4,T1_SMS_5,31,9999,9999,9999,460376184
112,4,4,T1_SMS_5,32,9999,9999,9999,460876924
112,4,4,T1_SMS_5,33,9999,9999,9999,461376624
112,4,4,T1_SMS_5,34,9999,9999,9999,461876316
112,4,4,T1_SMS_5,35,9999,9999,9999,462377056
112,4,4,T1_SMS_5,36,9999,9999,9999,462876752
112,4,4,T1_SMS_5,37,9999,9999,9999,463376448
112,4,4,T1_SMS_5,38,9999,9999,9999,463876200
112,4,4,T1_SMS_5,39,9999,9999,9999,464376956
112,4,4,T1_SMS_5,40,9999,9999,9999,464876636
112,4,4,T1_SMS_5,41,9999,9999,9999,465376344
112,4,4,T1_SMS_5,42,9999,9999,9999,465877072
112,4,4,T1_SMS_5,43,9999,9999,9999,466376816
112,4,4,T1_SMS_5,44,9999,9999,9999,466876508
112,4,4,T1_SMS_5,45,9999,9999,9999,467376220
112,4,4,T1_SMS_5,46,9999,9999,9999,467876960
112,4,4,T1_SMS_5,47,9999,9999,9999,468376640
112,4,4,T1_SMS_5,48,9999,9999,9999,468876412
112,4,4,T1_SMS_5,49,9999,9999,9999,469376120
112,4,4,T1_SMS_5,50,9999,9999,9999,469876848
112,4,4,T1_SMS_5,51,9999,9999,9999,470376560
112,4,4,T1_SMS_5,52,9999,9999,9999,470876252
112,4,4,T1_SMS_5,53,9999,9999,9999,471376996
112,4,4,T1_SMS_5,54,9999,9999,9999,471876696
112,4,4,T1_SMS_5,55,9999,9999,9999,472376384
112,4,4,T1_SMS_5,56,9999,9999,9999,472876084
112,4,4,T1_SMS_5,57,9999,9999,9999,473376828
112,4,4,T1_SMS_5,58,9999,9999,9999,473876596
112,4,4,T1_SMS_5,59,9999,9999,9999,474376276
112,4,4,T1_SMS_5,60,9999,9999,9999,474877036
112,4,4,T1_SMS_5,61,9999,9999,9999,475376736
112,4,4,T1_SMS_5,62,9999,9999,9999,475876428
112,4,4,T1_SMS_5,63,9999,9999,9999,476376120
112,4,4,T1_SMS_5,64,9999,9999,9999,476876864
112,4,4,T1_SMS_5,65,9999,9999,9999,477376604
112,4,4,T1_SMS_5,66,9999,9999,9999,477876300
112,4,4,T1_SMS_5,67,9999,9999,9999,478377044
112,4,4,T1_SMS_5,68,9999,9999,9999,478876740
112,4,4,T1_SMS_5,69,9999,9999,9999,479376436
112,4,4,T1_SMS_5,70,9999,9999,9999,479876204
112,4,4,T1_SMS_5,71,9999,9999,9999,480376948
112,4,4,T1_SMS_5,72,9999,9999,9999,480876640
112,4,4,T1_SMS_5,73,9999,9999,9999,481376336
112,4,4,T1_SMS_5,74,9999,9999,9999,481877076
112,4,4,T1_SMS_5,75,9999,9999,9999,482376772
112,4,4,T1_SMS_5,76,9999,9999,9999,482876540
112,4,4,T1_SMS_5,77,9999,9999,9999,483376236
112,4,4,T1_SMS_5,78,9999,9999,9999,483876976
112,4,4,T1_SMS_5,79,9999,9999,9999,484376672
112,4,4,T1_SMS_5,80,9999,9999,9999,484876368
112,4,4,T1_SMS_5,81,9999,9999,9999,485376060
112,4,4,T1_SMS_5,82,9999,9999,9999,485876804
112,4,4,T1_SMS_5,83,9999,9999,9999,486376500
112,4,4,T1_SMS_5,84,9999,9999,9999,486876268
112,4,4,T1_SMS_5,85,9999,9999,9999,487377012
112,4,4,T1_SMS_5,86,9999,9999,9999,487876680
112,4,4,T1_SMS_5,87,9999,9999,9999,488376376
112,4,4,T1_SMS_5,88,9999,9999,9999,488876144
112,4,4,T1_SMS_5,89,9999,9999,9999,489376884
112,4,4,T1_SMS_5,90,9999,9999,9999,489876584
112,4,4,T1_SMS_5,91,9999,9999,9999,490376276
112,4,4,T1_SMS_5,92,9999,9999,9999,490877016
112,4,4,T1_SMS_5,93,9999,9999,9999,491376712
112,4,4,T1_SMS_5,94,9999,9999,9999,491876408
112,4,4,T1_SMS_5,95,9999,9999,9999,492376176
112,4,4,T1_SMS_5,96,9999,9999,9999,492876920
112,4,4,T1_SMS_5,97,9999,9999,9999,493376612
112,4,4,T1_SMS_5,98,9999,9999,9999,493876312
112,4,4,T1_SMS_5,99,9999,9999,9999,494377052
112,4,4,T1_SMS_5,100,9999,9999,9999,494876744
112,4,4,T1_SMS_5,101,9999,9999,9999,495376440
112,4,4,T1_SMS_5,102,9999,9999,9999,495876208
112,4,4,T1_SMS_5,103,9999,9999,9999,496376952
112,4,4,T1_SMS_5,104,9999,9999,9999,496876648
112,4,4,T1_SMS_5,105,9999,9999,9999,497376340
112,4,4,T1_SMS_5,106,9999,9999,9999,497877084
112,4,4,T1_SMS_5,107,9999,9999,9999,498376828
112,4,4,T1_SMS_5,108,9999,9999,9999,498876524
112,4,4,T1_SMS_5,109,9999,9999,9999,499376220
112,4,4,T1_SMS_5,110,9999,9999,9999,499876960
112,4,4,T1_SMS_5,111,9999,9999,9999,500376652
112,4,4,T1_SMS_5,112,9999,9999,9999,500876352
112,4,4,T1_SMS_5,113,9999,9999,9999,501376120
112,4,4,T1_SMS_5,114,9999,9999,9999,501876860
112,4,4,T1_SMS_5,115,9999,9999,9999,502376556
112,4,4,T1_SMS_5,116,9999,9999,9999,502876248
112,4,4,T1_SMS_5,117,9999,9999,9999,503376992
112,4,4,T1_SMS_5,118,9999,9999,9999,503876684
112,4,4,T1_SMS_5,119,9999,9999,9999,504376380
112,4,4,T1_SMS_5,120,9999,9999,9999,504876148
112,4,4,T1_SMS_5,121,9999,9999,9999,505376892
112,4,4,T1_SMS_5,122,9999,9999,9999,505876584
112,4,4,T1_SMS_5,123,9999,9999,9999,506376280
112,4,4,T1_SMS_5,124,9999,9999,9999,506877020
112,4,4,T1_SMS_5,125,9999,9999,9999,507376716
112,4,4,T1_SMS_5,126,9999,9999,9999,507876412
112,4,4,T1_SMS_5,127,9999,9999,9999,508376188
112,4,4,T1_SMS_5,128,9999,9999,9999,508876924
112,4,4,T1_SMS_5,129,9999,9999,9999,509376592
112,5,9,Ticks_ISO_T2_8,0,5,42,127,520400176
112,5,9,Ticks_ISO_T2_8,1,5,42,127,521199856
112,5,9,Ticks_ISO_T2_8,2,5,42,127,521999760
112,5,9,Ticks_ISO_T2_8,3,5,42,127,522799440
112,5,9,Ticks_ISO_T2_8,4,5,42,127,523600468
112,5,9,Ticks_ISO_T2_8,5,1,48,50,523679208
112,5,9,Ticks_ISO_T2_8,6,5,42,127,524399976
112,5,9,Ticks_ISO_T2_8,7,1,48,56,524456496
112,5,9,Ticks_ISO_T2_8,8,5,42,127,525199856
112,5,9,Ticks_ISO_T2_8,9,1,48,51,525327240
112,5,9,Ticks_ISO_T2_8,10,5,42,127,525999520
112,5,9,Ticks_ISO_T2_8,11,1,48,50,526112168
112,5,9,Ticks_ISO_T2_8,12,5,42,127,526800324
112,5,9,Ticks_ISO_T2_8,13,1,48,49,526877640
112,5,9,Ticks_ISO_T2_8,14,5,42,127,527599908
112,5,9,Ticks_ISO_T2_8,15,1,48,48,527611328
112,5,9,Ticks_ISO_T2_8,16,1,48,50,528335496
112,5,9,Ticks_ISO_T2_8,17,5,42,127,528399708
112,5,9,Ticks_ISO_T2_8,18,1,48,48,529086360
112,5,9,Ticks_ISO_T2_8,19,5,42,127,529199428
112,5,9,Ticks_ISO_T2_8,20,1,48,42,529885596
112,5,9,Ticks_ISO_T2_8,21,5,42,127,530000356
112,5,9,Ticks_ISO_T2_8,22,1,48,56,530692360
112,5,9,Ticks_ISO_T2_8,23,5,42,127,530800236
112,5,9,Ticks_ISO_T2_8,24,1,48,49,531527324
112,5,9,Ticks_ISO_T2_8,25,5,42,127,531599688
112,5,9,Ticks_ISO_T2_8,26,1,48,50,532321968
112,5,9,Ticks_ISO_T2_8,27,1,48,23,532389788
112,5,9,Ticks_ISO_T2_8,28,5,42,127,532399624
112,5,9,Ticks_ISO_T2_8,29,1,48,43,533121680
112,5,9,Ticks_ISO_T2_8,30,5,42,127,533200128
112,5,9,Ticks_ISO_T2_8,31,1,48,39,533955296
112,5,9,Ticks_ISO_T2_8,32,5,42,127,534000236
112,5,9,Ticks_ISO_T2_8,33,1,48,51,534699680
112,5,9,Ticks_ISO_T2_8,34,5,42,127,534799580
112,5,9,Ticks_ISO_T2_8,35,1,48,49,535515596
112,5,9,Ticks_ISO_T2_8,36,5,42,127,535599328
112,5,9,Ticks_ISO_T2_8,37,1,48,32,536339640
112,5,9,Ticks_ISO_T2_8,38,5,42,127,536400184
112,5,9,Ticks_ISO_T2_8,39,1,48,54,537070332
112,5,9,Ticks_ISO_T2_8,40,5,42,127,537200272
112,5,9,Ticks_ISO_T2_8,41,1,48,45,537951300
112,5,9,Ticks_ISO_T2_8,42,5,42,127,537999800
112,5,9,Ticks_ISO_T2_8,43,1,48,47,538731428
112,5,9,Ticks_ISO_T2_8,44,5,42,127,538799456
112,5,9,Ticks_ISO_T2_8,45,1,48,38,539538048
112,5,9,Ticks_ISO_T2_8,46,5,42,127,539600112
112,5,9,Ticks_ISO_T2_8,47,1,48,48,540320952
112,5,9,Ticks_ISO_T2_8,48,5,42,127,540400072
112,5,9,Ticks_ISO_T2_8,49,1,48,42,541186084
112,5,9,Ticks_ISO_T2_8,50,5,42,127,541199656
112,5,9,Ticks_ISO_T2_8,51,5,42,127,541999396
112,5,9,Ticks_ISO_T2_8,52,1,48,44,542023756
112,5,9,Ticks_ISO_T2_8,53,1,48,45,542781660
112,5,9,Ticks_ISO_T2_8,54,5,42,127,542800168
112,5,9,Ticks_ISO_T2_8,55,1,48,33,543585356
112,5,9,Ticks_ISO_T2_8,56,5,42,127,543599976
112,5,9,Ticks_ISO_T2_8,57,1,48,22,544388384
112,5,9,Ticks_ISO_T2_8,58,5,42,127,544399932
112,5,9,Ticks_ISO_T2_8,59,1,48,43,545150788
112,5,9,Ticks_ISO_T2_8,60,5,42,127,545199440
112,5,9,Ticks_ISO_T2_8,61,1,48,32,545993856
112,5,9,Ticks_ISO_T2_8,62,5,42,127,546000172
112,5,9,Ticks_ISO_T2_8,63,1,48,43,546753096
112,5,9,Ticks_ISO_T2_8,64,5,42,127,546800052
112,5,9,Ticks_ISO_T2_8,65,1,48,47,547572900
112,5,9,Ticks_ISO_T2_8,66,5,42,127,547599936
112,5,9,Ticks_ISO_T2_8,67,5,42,127,548399380
112,5,9,Ticks_ISO_T2_8,68,1,48,41,548440124
112,5,9,Ticks_ISO_T2_8,69,5,42,127,549200232
112,5,9,Ticks_ISO_T2_8,70,1,48,40,549208588
112,5,9,Ticks_ISO_T2_8,71,1,48,38,549998988
112,5,9,Ticks_ISO_T2_8,72,5,42,127,550000552
112,5,9,Ticks_ISO_T2_8,73,1,48,33,550790388
112,5,9,Ticks_ISO_T2_8,74,5,42,127,550799844
112,5,9,Ticks_ISO_T2_8,75,1,48,38,551574036
112,5,9,Ticks_ISO_T2_8,76,5,42,127,551599428
112,5,9,Ticks_ISO_T2_8,77,1,48,32,552395788
112,5,9,Ticks_ISO_T2_8,78,5,42,127,552400156
112,5,9,Ticks_ISO_T2_8,79,1,48,46,553187216
112,5,9,Ticks_ISO_T2_8,80,5,42,127,553199964
112,5,9,Ticks_ISO_T2_8,81,5,42,127,553999780
112,5,9,Ticks_ISO_T2_8,82,1,48,35,554030500
112,5,9,Ticks_ISO_T2_8,83,5,42,127,554799516
112,5,9,Ticks_ISO_T2_8,84,1,48,32,554877284
112,5,9,Ticks_ISO_T2_8,85,1,48,35,555600592
112,5,9,Ticks_ISO_T2_8,86,5,42,127,555601856
112,5,9,Ticks_ISO_T2_8,87,5,42,127,556400104
112,5,9,Ticks_ISO_T2_8,88,1,48,38,556425292
112,5,9,Ticks_ISO_T2_8,89,1,48,27,557198408
112,5,9,Ticks_ISO_T2_8,90,5,42,127,557199980
112,5,9,Ticks_ISO_T2_8,91,5,42,127,557999500
112,5,9,Ticks_ISO_T2_8,92,1,48,32,558016448
112,5,9,Ticks_ISO_T2_8,93,1,48,36,558781164
112,5,9,Ticks_ISO_T2_8,94,5,42,127,558800220
112,5,9,Ticks_ISO_T2_8,95,1,48,45,559511408
112,5,9,Ticks_ISO_T2_8,96,5,42,127,559600104
112,5,9,Ticks_ISO_T2_8,97,5,42,127,560399844
112,5,9,Ticks_ISO_T2_8,98,1,48,29,560406028
112,5,9,Ticks_ISO_T2_8,99,5,42,127,561199428
112,5,9,Ticks_ISO_T2_8,100,1,48,46,561209200
112,5,9,Ticks_ISO_T2_8,101,1,48,49,561973320
112,5,9,Ticks_ISO_T2_8,102,5,42,127,562000276
112,5,9,Ticks_ISO_T2_8,103,1,48,38,562771848
112,5,9,Ticks_ISO_T2_8,104,5,42,127,562800084
112,5,9,Ticks_ISO_T2_8,105,1,48,46,563561040
112,5,9,Ticks_ISO_T2_8,106,5,42,127,563599892
112,5,9,Ticks_ISO_T2_8,107,1,48,49,564374084
112,5,9,Ticks_ISO_T2_8,108,5,42,127,564399404
112,5,9,Ticks_ISO_T2_8,109,1,48,48,565162824
112,5,9,Ticks_ISO_T2_8,110,5,42,127,565200280
112,5,9,Ticks_ISO_T2_8,111,1,48,42,565986064
112,5,9,Ticks_ISO_T2_8,112,5,42,127,565999868
112,5,9,Ticks_ISO_T2_8,113,1,48,39,566785948
112,5,9,Ticks_ISO_T2_8,114,5,42,127,566799972
112,5,9,Ticks_ISO_T2_8,115,5,42,127,567599344
112,5,9,Ticks_ISO_T2_8,116,1,48,27,567611440
112,5,9,Ticks_ISO_T2_8,117,5,42,127,568400200
112,5,9,Ticks_ISO_T2_8,118,1,48,27,568406236
112,5,9,Ticks_ISO_T2_8,119,1,48,42,569150076
112,5,9,Ticks_ISO_T2_8,120,5,42,127,569199852
112,5,9,Ticks_ISO_T2_8,121,1,48,40,569991620
112,5,9,Ticks_ISO_T2_8,122,5,42,127,569999956
112,5,9,Ticks_ISO_T2_8,123,1,48,43,570782756
112,5,9,Ticks_ISO_T2_8,124,5,42,127,570799392
112,5,9,Ticks_ISO_T2_8,125,5,42,127,571600280
112,5,9,Ticks_ISO_T2_8,126,1,48,35,571633768
112,5,9,Ticks_ISO_T2_8,127,1,48,39,572388304
112,5,9,Ticks_ISO_T2_8,128,5,42,127,572399860
112,5,9,Ticks_ISO_T2_8,129,1,48,35,573183104
112,5,9,Ticks_ISO_T2_8,130,5,42,127,573199744
112,5,9,Ticks_ISO_T2_8,131,1,48,48,573889388
112,5,9,Ticks_ISO_T2_8,132,5,42,127,573999832
112,5,9,Ticks_ISO_T2_8,133,1,48,49,574746820
112,5,9,Ticks_ISO_T2_8,134,5,42,127,574800108
112,5,9,Ticks_ISO_T2_8,135,1,48,47,575541316
112,5,9,Ticks_ISO_T2_8,136,5,42,127,575599916
112,5,9,Ticks_ISO_T2_8,137,1,48,48,576366176
112,5,9,Ticks_ISO_T2_8,138,5,42,127,576399724
112,5,9,Ticks_ISO_T2_8,139,1,48,42,577193660
112,5,9,Ticks_ISO_T2_8,140,5,42,127,577199680
112,5,9,Ticks_ISO_T2_8,141,5,42,127,578000120
112,5,9,Ticks_ISO_T2_8,142,1,48,42,578111392
112,5,9,Ticks_ISO_T2_8,143,5,42,127,578800004
112,5,9,Ticks_ISO_T2_8,144,5,42,127,579599684
112,5,9,Ticks_ISO_T2_8,145,5,42,127,580399440
112,5,9,Ticks_ISO_T2_8,146,1,48,41,580437192
112,5,9,Ticks_ISO_T2_8,147,5,42,127,581200144
112,5,9,Ticks_ISO_T2_8,148,1,48,33,581232284
112,5,9,Ticks_ISO_T2_8,149,1,48,44,581956908
112,5,9,Ticks_ISO_T2_8,150,5,42,127,582000020
112,5,9,Ticks_ISO_T2_8,151,1,48,40,582763744
112,5,9,Ticks_ISO_T2_8,152,5,42,127,582799604
112,5,9,Ticks_ISO_T2_8,153,1,48,44,583599348
112,5,9,Ticks_ISO_T2_8,154,5,42,127,583600760
112,5,9,Ticks_ISO_T2_8,155,1,48,42,584391136
112,5,9,Ticks_ISO_T2_8,156,5,42,127,584400292
112,5,9,Ticks_ISO_T2_8,157,1,48,49,585170744
112,5,9,Ticks_ISO_T2_8,158,5,42,127,585199952
112,5,9,Ticks_ISO_T2_8,159,1,48,46,585964272
112,5,9,Ticks_ISO_T2_8,160,5,42,127,585999688
112,5,9,Ticks_ISO_T2_8,161,5,42,127,586799576
112,5,9,Ticks_ISO_T2_8,162,1,48,44,586814884
112,5,9,Ticks_ISO_T2_8,163,1,48,43,587591636
112,5,9,Ticks_ISO_T2_8,164,5,42,127,587600124
112,5,9,Ticks_ISO_T2_8,165,1,48,42,588375736
112,5,9,Ticks_ISO_T2_8,166,5,42,127,588400008
112,5,9,Ticks_ISO_T2_8,167,1,48,40,589189460
112,5,9,Ticks_ISO_T2_8,168,5,42,127,589199744
112,5,9,Ticks_ISO_T2_8,169,1,48,29,589983960
112,5,9,Ticks_ISO_T2_8,170,5,42,127,589999552
112,5,9,Ticks_ISO_T2_8,171,1,48,49,590707776
112,5,9,Ticks_ISO_T2_8,172,5,42,127,590800708
112,5,9,Ticks_ISO_T2_8,173,1,48,45,591593320
112,5,9,Ticks_ISO_T2_8,174,5,42,127,591599940
112,5,9,Ticks_ISO_T2_8,175,5,42,127,592399828
112,5,9,Ticks_ISO_T2_8,176,1,48,45,592411924
112,5,9,Ticks_ISO_T2_8,177,1,48,42,593199264
112,5,9,Ticks_ISO_T2_8,178,5,42,127,593200600
112,5,9,Ticks_ISO_T2_8,179,1,48,44,593987436
112,5,9,Ticks_ISO_T2_8,180,5,42,127,594000408
112,5,9,Ticks_ISO_T2_8,181,1,48,39,594758296
112,5,9,Ticks_ISO_T2_8,182,5,42,127,594799844
112,5,9,Ticks_ISO_T2_8,183,5,42,127,595599808
112,5,9,Ticks_ISO_T2_8,184,1,48,30,595641148
112,5,9,Ticks_ISO_T2_8,185,5,42,127,596399616
112,5,9,Ticks_ISO_T2_8,186,1,48,44,596406556
112,5,9,Ticks_ISO_T2_8,187,5,42,127,597200200
112,5,9,Ticks_ISO_T2_8,188,1,48,46,597234060
112,5,9,Ticks_ISO_T2_8,189,1,48,44,597964140
112,5,9,Ticks_ISO_T2_8,190,5,42,127,597999928
112,5,9,Ticks_ISO_T2_8,191,1,48,43,598759684
112,5,9,Ticks_ISO_T2_8,192,5,42,127,598799660
112,5,9,Ticks_ISO_T2_8,193,1,48,52,599557844
112,5,9,Ticks_ISO_T2_8,194,5,42,127,599599692
112,5,9,Ticks_ISO_T2_8,195,1,48,49,600329752
112,5,9,Ticks_ISO_T2_8,196,5,42,127,600400100
112,5,9,Ticks_ISO_T2_8,197,1,48,40,601126344
112,5,9,Ticks_ISO_T2_8,198,5,42,127,601199904
112,5,9,Ticks_ISO_T2_8,199,1,48,42,601943136
112,5,9,Ticks_ISO_T2_8,200,5,42,127,601999788
112,5,9,Ticks_ISO_T2_8,201,1,48,53,602747876
112,5,9,Ticks_ISO_T2_8,202,5,42,127,602799892
112,5,9,Ticks_ISO_T2_8,203,1,48,47,603583212
112,5,9,Ticks_ISO_T2_8,204,5,42,127,603600180
112,5,9,Ticks_ISO_T2_8,205,1,48,50,604397036
112,5,9,Ticks_ISO_T2_8,206,5,42,127,604399912
112,5,9,Ticks_ISO_T2_8,207,5,42,127,605199652
112,5,9,Ticks_ISO_T2_8,208,1,48,50,605208608
112,5,9,Ticks_ISO_T2_8,209,5,42,127,605999460
112,5,9,Ticks_ISO_T2_8,210,1,48,49,606028312
112,5,9,Ticks_ISO_T2_8,211,5,42,127,606800240
112,5,9,Ticks_ISO_T2_8,212,1,48,50,606831932
112,5,9,Ticks_ISO_T2_8,213,5,42,127,607599972
112,5,9,Ticks_ISO_T2_8,214,1,48,49,607656792
112,5,9,Ticks_ISO_T2_8,215,5,42,127,608399856
112,5,9,Ticks_ISO_T2_8,216,1,48,48,608527016
112,5,9,Ticks_ISO_T2_8,217,5,42,127,609199516
112,5,9,Ticks_ISO_T2_8,218,1,48,37,609486092
112,5,9,Ticks_ISO_T2_8,219,5,42,127,610000248
112,5,9,Ticks_ISO_T2_8,220,5,42,127,610799928
112,5,9,Ticks_ISO_T2_8,221,5,42,127,611599756
112,5,9,Ticks_ISO_T2_8,222,5,42,127,612399584
112,5,9,Ticks_ISO_T2_8,223,1,48,42,612593764
112,5,9,Ticks_ISO_T2_8,224,5,42,127,613200440
112,5,9,Ticks_ISO_T2_8,225,1,48,38,613376964
112,5,9,Ticks_ISO_T2_8,226,5,42,127,614000024
112,5,9,Ticks_ISO_T2_8,227,1,48,46,614152240
112,5,9,Ticks_ISO_T2_8,228,5,42,127,614799680
112,5,9,Ticks_ISO_T2_8,229,1,48,46,614880692
112,5,9,Ticks_ISO_T2_8,230,5,42,127,615599564
112,5,9,Ticks_ISO_T2_8,231,1,48,46,615614420
112,5,9,Ticks_ISO_T2_8,232,1,48,44,616386536
112,5,9,Ticks_ISO_T2_8,0,9999,9999,9999,520397888
112,5,9,Ticks_ISO_T2_8,1,9999,9999,9999,521197640
112,5,9,Ticks_ISO_T2_8,2,9999,9999,9999,521997396
112,5,9,Ticks_ISO_T2_8,3,9999,9999,9999,522797152
112,5,9,Ticks_ISO_T2_8,4,9999,9999,9999,523597880
112,5,9,Ticks_ISO_T2_8,5,9999,9999,9999,524397616
112,5,9,Ticks_ISO_T2_8,6,9999,9999,9999,525197420
112,5,9,Ticks_ISO_T2_8,7,9999,9999,9999,525997156
112,5,9,Ticks_ISO_T2_8,8,9999,9999,9999,526797888
112,5,9,Ticks_ISO_T2_8,9,9999,9999,9999,527597620
112,5,9,Ticks_ISO_T2_8,10,9999,9999,9999,528397420
112,5,9,Ticks_ISO_T2_8,11,9999,9999,9999,529197136
112,5,9,Ticks_ISO_T2_8,12,9999,9999,9999,529997916
112,5,9,Ticks_ISO_T2_8,13,9999,9999,9999,530797652
112,5,9,Ticks_ISO_T2_8,14,9999,9999,9999,531597400
112,5,9,Ticks_ISO_T2_8,15,9999,9999,9999,532397112
112,5,9,Ticks_ISO_T2_8,16,9999,9999,9999,533197916
112,5,9,Ticks_ISO_T2_8,17,9999,9999,9999,533997648
112,5,9,Ticks_ISO_T2_8,18,9999,9999,9999,534797364
112,5,9,Ticks_ISO_T2_8,19,9999,9999,9999,535597116
112,5,9,Ticks_ISO_T2_8,20,9999,9999,9999,536397896
112,5,9,Ticks_ISO_T2_8,21,9999,9999,9999,537197688
112,5,9,Ticks_ISO_T2_8,22,9999,9999,9999,537997364
112,5,9,Ticks_ISO_T2_8,23,9999,9999,9999,538797168
112,5,9,Ticks_ISO_T2_8,24,9999,9999,9999,539597900
112,5,9,Ticks_ISO_T2_8,25,9999,9999,9999,540397632
112,5,9,Ticks_ISO_T2_8,26,9999,9999,9999,541197368
112,5,9,Ticks_ISO_T2_8,27,9999,9999,9999,541997108
112,5,9,Ticks_ISO_T2_8,28,9999,9999,9999,542797880
112,5,9,Ticks_ISO_T2_8,29,9999,9999,9999,543597688
112,5,9,Ticks_ISO_T2_8,30,9999,9999,9999,544397420
112,5,9,Ticks_ISO_T2_8,31,9999,9999,9999,545197152
112,5,9,Ticks_ISO_T2_8,32,9999,9999,9999,545997884
112,5,9,Ticks_ISO_T2_8,33,9999,9999,9999,546797616
112,5,9,Ticks_ISO_T2_8,34,9999,9999,9999,547597424
112,5,9,Ticks_ISO_T2_8,35,9999,9999,9999,548397164
112,5,9,Ticks_ISO_T2_8,36,9999,9999,9999,549197944
112,5,9,Ticks_ISO_T2_8,37,9999,9999,9999,549997676
112,5,9,Ticks_ISO_T2_8,38,9999,9999,9999,550797404
112,5,9,Ticks_ISO_T2_8,39,9999,9999,9999,551597140
112,5,9,Ticks_ISO_T2_8,40,9999,9999,9999,552397868
112,5,9,Ticks_ISO_T2_8,41,9999,9999,9999,553197676
112,5,9,Ticks_ISO_T2_8,42,9999,9999,9999,553997416
112,5,9,Ticks_ISO_T2_8,43,9999,9999,9999,554797152
112,5,9,Ticks_ISO_T2_8,44,9999,9999,9999,555597932
112,5,9,Ticks_ISO_T2_8,45,9999,9999,9999,556397668
112,5,9,Ticks_ISO_T2_8,46,9999,9999,9999,557197400
112,5,9,Ticks_ISO_T2_8,47,9999,9999,9999,557997136
112,5,9,Ticks_ISO_T2_8,48,9999,9999,9999,558797932
112,5,9,Ticks_ISO_T2_8,49,9999,9999,9999,559597668
112,5,9,Ticks_ISO_T2_8,50,9999,9999,9999,560397408
112,5,9,Ticks_ISO_T2_8,51,9999,9999,9999,561197140
112,5,9,Ticks_ISO_T2_8,52,9999,9999,9999,561997916
112,5,9,Ticks_ISO_T2_8,53,9999,9999,9999,562797648
112,5,9,Ticks_ISO_T2_8,54,9999,9999,9999,563597380
112,5,9,Ticks_ISO_T2_8,55,9999,9999,9999,564397116
112,5,9,Ticks_ISO_T2_8,56,9999,9999,9999,565197920
112,5,9,Ticks_ISO_T2_8,57,9999,9999,9999,565997652
112,5,9,Ticks_ISO_T2_8,58,9999,9999,9999,566797388
112,5,9,Ticks_ISO_T2_8,59,9999,9999,9999,567597128
112,5,9,Ticks_ISO_T2_8,60,9999,9999,9999,568397908
112,5,9,Ticks_ISO_T2_8,61,9999,9999,9999,569197636
112,5,9,Ticks_ISO_T2_8,62,9999,9999,9999,569997372
112,5,9,Ticks_ISO_T2_8,63,9999,9999,9999,570797108
112,5,9,Ticks_ISO_T2_8,64,9999,9999,9999,571597916
112,5,9,Ticks_ISO_T2_8,65,9999,9999,9999,572397644
112,5,9,Ticks_ISO_T2_8,66,9999,9999,9999,573197380
112,5,9,Ticks_ISO_T2_8,67,9999,9999,9999,573997172
112,5,9,Ticks_ISO_T2_8,68,9999,9999,9999,574797892
112,5,9,Ticks_ISO_T2_8,69,9999,9999,9999,575597628
112,5,9,Ticks_ISO_T2_8,70,9999,9999,9999,576397360
112,5,9,Ticks_ISO_T2_8,71,9999,9999,9999,577197168
112,5,9,Ticks_ISO_T2_8,72,9999,9999,9999,577997904
112,5,9,Ticks_ISO_T2_8,73,9999,9999,9999,578797640
112,5,9,Ticks_ISO_T2_8,74,9999,9999,9999,579597396
112,5,9,Ticks_ISO_T2_8,75,9999,9999,9999,580397152
112,5,9,Ticks_ISO_T2_8,76,9999,9999,9999,581197932
112,5,9,Ticks_ISO_T2_8,77,9999,9999,9999,581997660
112,5,9,Ticks_ISO_T2_8,78,9999,9999,9999,582797392
112,5,9,Ticks_ISO_T2_8,79,9999,9999,9999,583597132
112,5,9,Ticks_ISO_T2_8,80,9999,9999,9999,584397932
112,5,9,Ticks_ISO_T2_8,81,9999,9999,9999,585197664
112,5,9,Ticks_ISO_T2_8,82,9999,9999,9999,585997400
112,5,9,Ticks_ISO_T2_8,83,9999,9999,9999,586797140
112,5,9,Ticks_ISO_T2_8,84,9999,9999,9999,587597912
112,5,9,Ticks_ISO_T2_8,85,9999,9999,9999,588397644
112,5,9,Ticks_ISO_T2_8,86,9999,9999,9999,589197380
112,5,9,Ticks_ISO_T2_8,87,9999,9999,9999,589997116
112,5,9,Ticks_ISO_T2_8,88,9999,9999,9999,590797916
112,5,9,Ticks_ISO_T2_8,89,9999,9999,9999,591597652
112,5,9,Ticks_ISO_T2_8,90,9999,9999,9999,592397392
112,5,9,Ticks_ISO_T2_8,91,9999,9999,9999,593197124
112,5,9,Ticks_ISO_T2_8,92,9999,9999,9999,593997900
112,5,9,Ticks_ISO_T2_8,93,9999,9999,9999,594797632
112,5,9,Ticks_ISO_T2_8,94,9999,9999,9999,595597372
112,5,9,Ticks_ISO_T2_8,95,9999,9999,9999,596397108
112,5,9,Ticks_ISO_T2_8,96,9999,9999,9999,597197912
112,5,9,Ticks_ISO_T2_8,97,9999,9999,9999,597997640
112,5,9,Ticks_ISO_T2_8,98,9999,9999,9999,598797372
112,5,9,Ticks_ISO_T2_8,99,9999,9999,9999,599597104
112,5,9,Ticks_ISO_T2_8,100,9999,9999,9999,600397884
112,5,9,Ticks_ISO_T2_8,101,9999,9999,9999,601197616
112,5,9,Ticks_ISO_T2_8,102,9999,9999,9999,601997428
112,5,9,Ticks_ISO_T2_8,103,9999,9999,9999,602797160
112,5,9,Ticks_ISO_T2_8,104,9999,9999,9999,603597892
112,5,9,Ticks_ISO_T2_8,105,9999,9999,9999,604397624
112,5,9,Ticks_ISO_T2_8,106,9999,9999,9999,605197364
112,5,9,Ticks_ISO_T2_8,107,9999,9999,9999,605997172
112,5,9,Ticks_ISO_T2_8,108,9999,9999,9999,606797876
112,5,9,Ticks_ISO_T2_8,109,9999,9999,9999,607597684
112,5,9,Ticks_ISO_T2_8,110,9999,9999,9999,608397420
112,5,9,Ticks_ISO_T2_8,111,9999,9999,9999,609197152
112,5,9,Ticks_ISO_T2_8,112,9999,9999,9999,609997884
112,5,9,Ticks_ISO_T2_8,113,9999,9999,9999,610797640
112,5,9,Ticks_ISO_T2_8,114,9999,9999,9999,611597392
112,5,9,Ticks_ISO_T2_8,115,9999,9999,9999,612397148
112,5,9,Ticks_ISO_T2_8,116,9999,9999,9999,613197928
112,5,9,Ticks_ISO_T2_8,117,9999,9999,9999,613997660
112,5,9,Ticks_ISO_T2_8,118,9999,9999,9999,614797392
112,5,9,Ticks_ISO_T2_8,119,9999,9999,9999,615597128
112,6,10,Ticks_ISO_T2_5,0,5,42,127,626092572
112,6,10,Ticks_ISO_T2_5,1,5,42,127,626592064
112,6,10,Ticks_ISO_T2_5,2,5,42,127,627091780
112,6,10,Ticks_ISO_T2_5,3,5,42,127,627591572
112,6,10,Ticks_ISO_T2_5,4,5,42,127,628092708
112,6,10,Ticks_ISO_T2_5,5,1,48,37,628179032
112,6,10,Ticks_ISO_T2_5,6,5,42,127,628591956
112,6,10,Ticks_ISO_T2_5,7,1,48,35,628616844
112,6,10,Ticks_ISO_T2_5,8,5,42,127,629091652
112,6,10,Ticks_ISO_T2_5,9,1,48,43,629099708
112,6,10,Ticks_ISO_T2_5,10,1,48,42,629581728
112,6,10,Ticks_ISO_T2_5,11,5,42,127,629592460
112,6,10,Ticks_ISO_T2_5,12,1,48,38,630073796
112,6,10,Ticks_ISO_T2_5,13,5,42,127,630092376
112,6,10,Ticks_ISO_T2_5,14,1,48,33,630547464
112,6,10,Ticks_ISO_T2_5,15,5,42,127,630591776
112,6,10,Ticks_ISO_T2_5,16,1,48,38,631046260
112,6,10,Ticks_ISO_T2_5,17,5,42,127,631091468
112,6,10,Ticks_ISO_T2_5,18,1,48,51,631552680
112,6,10,Ticks_ISO_T2_5,19,5,42,127,631592580
112,6,10,Ticks_ISO_T2_5,20,1,48,48,632045268
112,6,10,Ticks_ISO_T2_5,21,5,42,127,632092352
112,6,10,Ticks_ISO_T2_5,22,1,48,45,632562024
112,6,10,Ticks_ISO_T2_5,23,5,42,127,632591824
112,6,10,Ticks_ISO_T2_5,24,1,48,38,633007988
112,6,10,Ticks_ISO_T2_5,25,5,42,127,633091296
112,6,10,Ticks_ISO_T2_5,26,1,48,42,633577648
112,6,10,Ticks_ISO_T2_5,27,5,42,127,633592408
112,6,10,Ticks_ISO_T2_5,28,1,48,54,634074044
112,6,10,Ticks_ISO_T2_5,29,5,42,127,634091808
112,6,10,Ticks_ISO_T2_5,30,1,48,49,634551272
112,6,10,Ticks_ISO_T2_5,31,5,42,127,634591724
112,6,10,Ticks_ISO_T2_5,32,1,48,43,635026960
112,6,10,Ticks_ISO_T2_5,33,5,42,127,635092540
112,6,10,Ticks_ISO_T2_5,34,1,48,41,635527480
112,6,10,Ticks_ISO_T2_5,35,5,42,127,635592232
112,6,10,Ticks_ISO_T2_5,36,1,48,45,636043248
112,6,10,Ticks_ISO_T2_5,37,5,42,127,636091756
112,6,10,Ticks_ISO_T2_5,38,1,48,44,636550728
112,6,10,Ticks_ISO_T2_5,39,5,42,127,636591452
112,6,10,Ticks_ISO_T2_5,40,1,48,43,637044508
112,6,10,Ticks_ISO_T2_5,41,5,42,127,637092416
112,6,10,Ticks_ISO_T2_5,42,1,48,50,637531344
112,6,10,Ticks_ISO_T2_5,43,5,42,127,637592112
112,6,10,Ticks_ISO_T2_5,44,1,48,44,638023332
112,6,10,Ticks_ISO_T2_5,45,5,42,127,638091512
112,6,10,Ticks_ISO_T2_5,46,1,48,47,638518764
112,6,10,Ticks_ISO_T2_5,47,5,42,127,638592324
112,6,10,Ticks_ISO_T2_5,48,1,48,46,639003424
112,6,10,Ticks_ISO_T2_5,49,5,42,127,639092020
112,6,10,Ticks_ISO_T2_5,50,1,48,50,639530420
112,6,10,Ticks_ISO_T2_5,51,5,42,127,639591712
112,6,10,Ticks_ISO_T2_5,52,1,48,51,639998700
112,6,10,Ticks_ISO_T2_5,53,5,42,127,640091484
112,6,10,Ticks_ISO_T2_5,54,1,48,54,640524800
112,6,10,Ticks_ISO_T2_5,55,5,42,127,640592228
112,6,10,Ticks_ISO_T2_5,56,1,48,53,641047160
112,6,10,Ticks_ISO_T2_5,57,5,42,127,641092144
112,6,10,Ticks_ISO_T2_5,58,1,48,48,641559944
112,6,10,Ticks_ISO_T2_5,59,5,42,127,641591616
112,6,10,Ticks_ISO_T2_5,60,1,48,45,642085292
112,6,10,Ticks_ISO_T2_5,61,5,42,127,642092356
112,6,10,Ticks_ISO_T2_5,62,1,48,53,642585284
112,6,10,Ticks_ISO_T2_5,63,5,42,127,642592124
112,6,10,Ticks_ISO_T2_5,64,1,48,53,643054532
112,6,10,Ticks_ISO_T2_5,65,5,42,127,643091744
112,6,10,Ticks_ISO_T2_5,66,1,48,47,643566196
112,6,10,Ticks_ISO_T2_5,67,5,42,127,643591588
112,6,10,Ticks_ISO_T2_5,68,1,48,46,644042184
112,6,10,Ticks_ISO_T2_5,69,5,42,127,644092180
112,6,10,Ticks_ISO_T2_5,70,1,48,47,644521360
112,6,10,Ticks_ISO_T2_5,71,5,42,127,644591952
112,6,10,Ticks_ISO_T2_5,72,1,48,50,645048280
112,6,10,Ticks_ISO_T2_5,73,5,42,127,645091648
112,6,10,Ticks_ISO_T2_5,74,1,48,54,645536380
112,6,10,Ticks_ISO_T2_5,75,5,42,127,645592388
112,6,10,Ticks_ISO_T2_5,76,1,48,51,646014832
112,6,10,Ticks_ISO_T2_5,77,5,42,127,646092232
112,6,10,Ticks_ISO_T2_5,78,1,48,51,646525300
112,6,10,Ticks_ISO_T2_5,79,5,42,127,646591752
112,6,10,Ticks_ISO_T2_5,80,1,48,44,646972860
112,6,10,Ticks_ISO_T2_5,81,5,42,127,647091432
112,6,10,Ticks_ISO_T2_5,82,1,48,50,647569116
112,6,10,Ticks_ISO_T2_5,83,5,42,127,647592340
112,6,10,Ticks_ISO_T2_5,84,5,42,127,648092192
112,6,10,Ticks_ISO_T2_5,85,1,48,46,648110568
112,6,10,Ticks_ISO_T2_5,86,5,42,127,648591588
112,6,10,Ticks_ISO_T2_5,87,1,48,49,648657784
112,6,10,Ticks_ISO_T2_5,88,1,48,47,649091876
112,6,10,Ticks_ISO_T2_5,89,5,42,127,649093144
112,6,10,Ticks_ISO_T2_5,90,1,48,47,649590204
112,6,10,Ticks_ISO_T2_5,91,5,42,127,649592092
112,6,10,Ticks_ISO_T2_5,92,1,48,47,650086364
112,6,10,Ticks_ISO_T2_5,93,5,42,127,650091860
112,6,10,Ticks_ISO_T2_5,94,1,48,48,650583888
112,6,10,Ticks_ISO_T2_5,95,5,42,127,650591480
112,6,10,Ticks_ISO_T2_5,96,1,48,46,651072596
112,6,10,Ticks_ISO_T2_5,97,5,42,127,651092224
112,6,10,Ticks_ISO_T2_5,98,1,48,41,651564804
112,6,10,Ticks_ISO_T2_5,99,5,42,127,651592140
112,6,10,Ticks_ISO_T2_5,100,1,48,49,652042660
112,6,10,Ticks_ISO_T2_5,101,5,42,127,652091688
112,6,10,Ticks_ISO_T2_5,102,1,48,36,652540412
112,6,10,Ticks_ISO_T2_5,103,5,42,127,652591456
112,6,10,Ticks_ISO_T2_5,104,1,48,56,653025744
112,6,10,Ticks_ISO_T2_5,105,5,42,127,653092196
112,6,10,Ticks_ISO_T2_5,106,1,48,54,653540476
112,6,10,Ticks_ISO_T2_5,107,5,42,127,653592044
112,6,10,Ticks_ISO_T2_5,108,1,48,51,654000428
112,6,10,Ticks_ISO_T2_5,109,5,42,127,654091588
112,6,10,Ticks_ISO_T2_5,110,1,48,53,654561104
112,6,10,Ticks_ISO_T2_5,111,5,42,127,654592328
112,6,10,Ticks_ISO_T2_5,112,1,48,50,655056984
112,6,10,Ticks_ISO_T2_5,113,5,42,127,655092248
112,6,10,Ticks_ISO_T2_5,114,1,48,54,655555080
112,6,10,Ticks_ISO_T2_5,115,5,42,127,655591916
112,6,10,Ticks_ISO_T2_5,116,1,48,51,656039344
112,6,10,Ticks_ISO_T2_5,117,5,42,127,656091460
112,6,10,Ticks_ISO_T2_5,118,1,48,53,656525196
112,6,10,Ticks_ISO_T2_5,119,5,42,127,656592204
112,6,10,Ticks_ISO_T2_5,120,1,48,51,657013744
112,6,10,Ticks_ISO_T2_5,121,5,42,127,657092120
112,6,10,Ticks_ISO_T2_5,122,1,48,47,657512024
112,6,10,Ticks_ISO_T2_5,123,5,42,127,657591644
112,6,10,Ticks_ISO_T2_5,124,1,48,48,658010228
112,6,10,Ticks_ISO_T2_5,125,5,42,127,658092384
112,6,10,Ticks_ISO_T2_5,126,1,48,50,658507976
112,6,10,Ticks_ISO_T2_5,127,5,42,127,658592228
112,6,10,Ticks_ISO_T2_5,128,1,48,51,659007072
112,6,10,Ticks_ISO_T2_5,129,5,42,127,659091924
112,6,10,Ticks_ISO_T2_5,130,1,48,51,659517236
112,6,10,Ticks_ISO_T2_5,131,5,42,127,659591472
112,6,10,Ticks_ISO_T2_5,132,1,48,53,660016932
112,6,10,Ticks_ISO_T2_5,133,5,42,127,660092140
112,6,10,Ticks_ISO_T2_5,134,1,48,57,660518496
112,6,10,Ticks_ISO_T2_5,135,5,42,127,660591980
112,6,10,Ticks_ISO_T2_5,136,1,48,54,661030012
112,6,10,Ticks_ISO_T2_5,137,5,42,127,661091676
112,6,10,Ticks_ISO_T2_5,138,1,48,45,661550572
112,6,10,Ticks_ISO_T2_5,139,5,42,127,661592416
112,6,10,Ticks_ISO_T2_5,140,1,48,42,662043456
112,6,10,Ticks_ISO_T2_5,141,5,42,127,662092260
112,6,10,Ticks_ISO_T2_5,142,1,48,52,662553628
112,6,10,Ticks_ISO_T2_5,143,5,42,127,662592104
112,6,10,Ticks_ISO_T2_5,144,1,48,51,663047860
112,6,10,Ticks_ISO_T2_5,145,5,42,127,663091504
112,6,10,Ticks_ISO_T2_5,146,1,48,49,663554212
112,6,10,Ticks_ISO_T2_5,147,5,42,127,663592392
112,6,10,Ticks_ISO_T2_5,148,1,48,53,664034980
112,6,10,Ticks_ISO_T2_5,149,5,42,127,664092160
112,6,10,Ticks_ISO_T2_5,150,1,48,50,664526524
112,6,10,Ticks_ISO_T2_5,151,5,42,127,664591632
112,6,10,Ticks_ISO_T2_5,152,1,48,53,665011008
112,6,10,Ticks_ISO_T2_5,153,5,42,127,665091404
112,6,10,Ticks_ISO_T2_5,154,1,48,48,665516012
112,6,10,Ticks_ISO_T2_5,155,5,42,127,665592220
112,6,10,Ticks_ISO_T2_5,156,1,48,48,666004716
112,6,10,Ticks_ISO_T2_5,157,5,42,127,666092060
112,6,10,Ticks_ISO_T2_5,158,1,48,52,666525352
112,6,10,Ticks_ISO_T2_5,159,5,42,127,666591536
112,6,10,Ticks_ISO_T2_5,160,1,48,48,667025424
112,6,10,Ticks_ISO_T2_5,161,5,42,127,667092276
112,6,10,Ticks_ISO_T2_5,162,1,48,50,667541420
112,6,10,Ticks_ISO_T2_5,163,5,42,127,667592116
112,6,10,Ticks_ISO_T2_5,164,1,48,45,668023016
112,6,10,Ticks_ISO_T2_5,165,5,42,127,668091712
112,6,10,Ticks_ISO_T2_5,166,1,48,55,668533256
112,6,10,Ticks_ISO_T2_5,167,5,42,127,668591336
112,6,10,Ticks_ISO_T2_5,168,1,48,50,669021728
112,6,10,Ticks_ISO_T2_5,169,5,42,127,669092148
112,6,10,Ticks_ISO_T2_5,170,1,48,54,669523596
112,6,10,Ticks_ISO_T2_5,171,5,42,127,669592068
112,6,10,Ticks_ISO_T2_5,172,1,48,55,670022996
112,6,10,Ticks_ISO_T2_5,173,5,42,127,670091616
112,6,10,Ticks_ISO_T2_5,174,1,48,55,670527104
112,6,10,Ticks_ISO_T2_5,175,5,42,127,670592508
112,6,10,Ticks_ISO_T2_5,176,1,48,51,671028140
112,6,10,Ticks_ISO_T2_5,177,5,42,127,671092128
112,6,10,Ticks_ISO_T2_5,178,1,48,55,671533148
112,6,10,Ticks_ISO_T2_5,179,5,42,127,671591972
112,6,10,Ticks_ISO_T2_5,180,1,48,57,672047504
112,6,10,Ticks_ISO_T2_5,181,5,42,127,672091444
112,6,10,Ticks_ISO_T2_5,182,1,48,48,672559764
112,6,10,Ticks_ISO_T2_5,183,5,42,127,672592188
112,6,10,Ticks_ISO_T2_5,184,1,48,49,673048312
112,6,10,Ticks_ISO_T2_5,185,5,42,127,673092104
112,6,10,Ticks_ISO_T2_5,186,1,48,47,673534916
112,6,10,Ticks_ISO_T2_5,187,5,42,127,673591948
112,6,10,Ticks_ISO_T2_5,188,1,48,43,674033044
112,6,10,Ticks_ISO_T2_5,189,5,42,127,674092392
112,6,10,Ticks_ISO_T2_5,190,1,48,51,674504088
112,6,10,Ticks_ISO_T2_5,191,5,42,127,674592084
112,6,10,Ticks_ISO_T2_5,192,1,48,52,674993212
112,6,10,Ticks_ISO_T2_5,193,5,42,127,675092060
112,6,10,Ticks_ISO_T2_5,194,1,48,44,675566376
112,6,10,Ticks_ISO_T2_5,195,5,42,127,675591472
112,6,10,Ticks_ISO_T2_5,196,1,48,43,676054408
112,6,10,Ticks_ISO_T2_5,197,5,42,127,676092216
112,6,10,Ticks_ISO_T2_5,198,1,48,50,676554852
112,6,10,Ticks_ISO_T2_5,199,5,42,127,676591908
112,6,10,Ticks_ISO_T2_5,200,1,48,47,677043000
112,6,10,Ticks_ISO_T2_5,201,5,42,127,677091828
112,6,10,Ticks_ISO_T2_5,202,1,48,47,677529756
112,6,10,Ticks_ISO_T2_5,203,5,42,127,677592420
112,6,10,Ticks_ISO_T2_5,204,1,48,49,678025632
112,6,10,Ticks_ISO_T2_5,205,5,42,127,678092188
112,6,10,Ticks_ISO_T2_5,206,1,48,52,678530268
112,6,10,Ticks_ISO_T2_5,207,5,42,127,678592008
112,6,10,Ticks_ISO_T2_5,208,1,48,47,679032576
112,6,10,Ticks_ISO_T2_5,209,5,42,127,679091704
112,6,10,Ticks_ISO_T2_5,210,1,48,52,679513500
112,6,10,Ticks_ISO_T2_5,211,5,42,127,679592296
112,6,10,Ticks_ISO_T2_5,212,1,48,47,680024636
112,6,10,Ticks_ISO_T2_5,213,5,42,127,680092140
112,6,10,Ticks_ISO_T2_5,214,1,48,46,680519924
112,6,10,Ticks_ISO_T2_5,215,5,42,127,680591912
112,6,10,Ticks_ISO_T2_5,216,1,48,43,681014004
112,6,10,Ticks_ISO_T2_5,217,5,42,127,681091456
112,6,10,Ticks_ISO_T2_5,218,1,48,40,681545792
112,6,10,Ticks_ISO_T2_5,219,5,42,127,681592200
112,6,10,Ticks_ISO_T2_5,220,1,48,39,682020208
112,6,10,Ticks_ISO_T2_5,221,5,42,127,682091968
112,6,10,Ticks_ISO_T2_5,222,1,48,47,682535828
112,6,10,Ticks_ISO_T2_5,223,5,42,127,682591664
112,6,10,Ticks_ISO_T2_5,224,1,48,42,683014956
112,6,10,Ticks_ISO_T2_5,225,5,42,127,683092332
112,6,10,Ticks_ISO_T2_5,226,1,48,51,683505300
112,6,10,Ticks_ISO_T2_5,227,5,42,127,683592100
112,6,10,Ticks_ISO_T2_5,228,1,48,47,683985916
112,6,10,Ticks_ISO_T2_5,229,5,42,127,684091928
112,6,10,Ticks_ISO_T2_5,230,1,48,46,684526380
112,6,10,Ticks_ISO_T2_5,231,5,42,127,684591340
112,6,10,Ticks_ISO_T2_5,232,1,48,52,685066768
112,6,10,Ticks_ISO_T2_5,233,5,42,127,685092156
112,6,10,Ticks_ISO_T2_5,234,1,48,57,685575288
112,6,10,Ticks_ISO_T2_5,235,5,42,127,685591852
112,6,10,Ticks_ISO_T2_5,236,1,48,43,686075280
112,6,10,Ticks_ISO_T2_5,237,5,42,127,686091772
112,6,10,Ticks_ISO_T2_5,238,1,48,49,686568244
112,6,10,Ticks_ISO_T2_5,239,5,42,127,686592288
112,6,10,Ticks_ISO_T2_5,240,1,48,41,687066668
112,6,10,Ticks_ISO_T2_5,241,5,42,127,687092132
112,6,10,Ticks_ISO_T2_5,242,1,48,42,687551976
112,6,10,Ticks_ISO_T2_5,243,5,42,127,687591828
112,6,10,Ticks_ISO_T2_5,244,1,48,50,688062964
112,6,10,Ticks_ISO_T2_5,245,5,42,127,688091448
112,6,10,Ticks_ISO_T2_5,246,1,48,42,688540368
112,6,10,Ticks_ISO_T2_5,247,5,42,127,688592112
112,6,10,Ticks_ISO_T2_5,248,1,48,39,689030036
112,6,10,Ticks_ISO_T2_5,249,5,42,127,689091880
112,6,10,Ticks_ISO_T2_5,250,1,48,45,689512980
112,6,10,Ticks_ISO_T2_5,251,5,42,127,689591772
112,6,10,Ticks_ISO_T2_5,252,1,48,43,689991280
112,6,10,Ticks_ISO_T2_5,253,5,42,127,690092428
112,6,10,Ticks_ISO_T2_5,254,1,48,41,690490300
112,6,10,Ticks_ISO_T2_5,255,5,42,127,690592196
112,6,10,Ticks_ISO_T2_5,256,1,48,50,690985208
112,6,10,Ticks_ISO_T2_5,0,9999,9999,9999,626090060
112,6,10,Ticks_ISO_T2_5,1,9999,9999,9999,626589776
112,6,10,Ticks_ISO_T2_5,2,9999,9999,9999,627089496
112,6,10,Ticks_ISO_T2_5,3,9999,9999,9999,627589212
112,6,10,Ticks_ISO_T2_5,4,9999,9999,9999,628089976
112,6,10,Ticks_ISO_T2_5,5,9999,9999,9999,628589668
112,6,10,Ticks_ISO_T2_5,6,9999,9999,9999,629089364
112,6,10,Ticks_ISO_T2_5,7,9999,9999,9999,629590100
112,6,10,Ticks_ISO_T2_5,8,9999,9999,9999,630089792
112,6,10,Ticks_ISO_T2_5,9,9999,9999,9999,630589488
112,6,10,Ticks_ISO_T2_5,10,9999,9999,9999,631089256
112,6,10,Ticks_ISO_T2_5,11,9999,9999,9999,631589996
112,6,10,Ticks_ISO_T2_5,12,9999,9999,9999,632089696
112,6,10,Ticks_ISO_T2_5,13,9999,9999,9999,632589392
112,6,10,Ticks_ISO_T2_5,14,9999,9999,9999,633089084
112,6,10,Ticks_ISO_T2_5,15,9999,9999,9999,633589828
112,6,10,Ticks_ISO_T2_5,16,9999,9999,9999,634089520
112,6,10,Ticks_ISO_T2_5,17,9999,9999,9999,634589288
112,6,10,Ticks_ISO_T2_5,18,9999,9999,9999,635090032
112,6,10,Ticks_ISO_T2_5,19,9999,9999,9999,635589724
112,6,10,Ticks_ISO_T2_5,20,9999,9999,9999,636089396
112,6,10,Ticks_ISO_T2_5,21,9999,9999,9999,636589164
112,6,10,Ticks_ISO_T2_5,22,9999,9999,9999,637089904
112,6,10,Ticks_ISO_T2_5,23,9999,9999,9999,637589600
112,6,10,Ticks_ISO_T2_5,24,9999,9999,9999,638089300
112,6,10,Ticks_ISO_T2_5,25,9999,9999,9999,638590040
112,6,10,Ticks_ISO_T2_5,26,9999,9999,9999,639089732
112,6,10,Ticks_ISO_T2_5,27,9999,9999,9999,639589428
112,6,10,Ticks_ISO_T2_5,28,9999,9999,9999,640089200
112,6,10,Ticks_ISO_T2_5,29,9999,9999,9999,640589940
112,6,10,Ticks_ISO_T2_5,30,9999,9999,9999,641089636
112,6,10,Ticks_ISO_T2_5,31,9999,9999,9999,641589328
112,6,10,Ticks_ISO_T2_5,32,9999,9999,9999,642090072
112,6,10,Ticks_ISO_T2_5,33,9999,9999,9999,642589764
112,6,10,Ticks_ISO_T2_5,34,9999,9999,9999,643089460
112,6,10,Ticks_ISO_T2_5,35,9999,9999,9999,643589228
112,6,10,Ticks_ISO_T2_5,36,9999,9999,9999,644089972
112,6,10,Ticks_ISO_T2_5,37,9999,9999,9999,644589668
112,6,10,Ticks_ISO_T2_5,38,9999,9999,9999,645089360
112,6,10,Ticks_ISO_T2_5,39,9999,9999,9999,645590104
112,6,10,Ticks_ISO_T2_5,40,9999,9999,9999,646089800
112,6,10,Ticks_ISO_T2_5,41,9999,9999,9999,646589540
112,6,10,Ticks_ISO_T2_5,42,9999,9999,9999,647089220
112,6,10,Ticks_ISO_T2_5,43,9999,9999,9999,647589976
112,6,10,Ticks_ISO_T2_5,44,9999,9999,9999,648089680
112,6,10,Ticks_ISO_T2_5,45,9999,9999,9999,648589376
112,6,10,Ticks_ISO_T2_5,46,9999,9999,9999,649089144
112,6,10,Ticks_ISO_T2_5,47,9999,9999,9999,649589828
112,6,10,Ticks_ISO_T2_5,48,9999,9999,9999,650089576
112,6,10,Ticks_ISO_T2_5,49,9999,9999,9999,650589268
112,6,10,Ticks_ISO_T2_5,50,9999,9999,9999,651090012
112,6,10,Ticks_ISO_T2_5,51,9999,9999,9999,651589704
112,6,10,Ticks_ISO_T2_5,52,9999,9999,9999,652089400
112,6,10,Ticks_ISO_T2_5,53,9999,9999,9999,652589168
112,6,10,Ticks_ISO_T2_5,54,9999,9999,9999,653089912
112,6,10,Ticks_ISO_T2_5,55,9999,9999,9999,653589608
112,6,10,Ticks_ISO_T2_5,56,9999,9999,9999,654089304
112,6,10,Ticks_ISO_T2_5,57,9999,9999,9999,654590044
112,6,10,Ticks_ISO_T2_5,58,9999,9999,9999,655089740
112,6,10,Ticks_ISO_T2_5,59,9999,9999,9999,655589480
112,6,10,Ticks_ISO_T2_5,60,9999,9999,9999,656089176
112,6,10,Ticks_ISO_T2_5,61,9999,9999,9999,656589916
112,6,10,Ticks_ISO_T2_5,62,9999,9999,9999,657089588
112,6,10,Ticks_ISO_T2_5,63,9999,9999,9999,657589356
112,6,10,Ticks_ISO_T2_5,64,9999,9999,9999,658090100
112,6,10,Ticks_ISO_T2_5,65,9999,9999,9999,658589792
112,6,10,Ticks_ISO_T2_5,66,9999,9999,9999,659089488
112,6,10,Ticks_ISO_T2_5,67,9999,9999,9999,659589184
112,6,10,Ticks_ISO_T2_5,68,9999,9999,9999,660089928
112,6,10,Ticks_ISO_T2_5,69,9999,9999,9999,660589620
112,6,10,Ticks_ISO_T2_5,70,9999,9999,9999,661089388
112,6,10,Ticks_ISO_T2_5,71,9999,9999,9999,661590132
112,6,10,Ticks_ISO_T2_5,72,9999,9999,9999,662089828
112,6,10,Ticks_ISO_T2_5,73,9999,9999,9999,662589520
112,6,10,Ticks_ISO_T2_5,74,9999,9999,9999,663089216
112,6,10,Ticks_ISO_T2_5,75,9999,9999,9999,663589956
112,6,10,Ticks_ISO_T2_5,76,9999,9999,9999,664089652
112,6,10,Ticks_ISO_T2_5,77,9999,9999,9999,664589424
112,6,10,Ticks_ISO_T2_5,78,9999,9999,9999,665089116
112,6,10,Ticks_ISO_T2_5,79,9999,9999,9999,665589860
112,6,10,Ticks_ISO_T2_5,80,9999,9999,9999,666089552
112,6,10,Ticks_ISO_T2_5,81,9999,9999,9999,666589248
112,6,10,Ticks_ISO_T2_5,82,9999,9999,9999,667089988
112,6,10,Ticks_ISO_T2_5,83,9999,9999,9999,667589684
112,6,10,Ticks_ISO_T2_5,84,9999,9999,9999,668089428
112,6,10,Ticks_ISO_T2_5,85,9999,9999,9999,668589124
112,6,10,Ticks_ISO_T2_5,86,9999,9999,9999,669089864
112,6,10,Ticks_ISO_T2_5,87,9999,9999,9999,669589560
112,6,10,Ticks_ISO_T2_5,88,9999,9999,9999,670089332
112,6,10,Ticks_ISO_T2_5,89,9999,9999,9999,670590072
112,6,10,Ticks_ISO_T2_5,90,9999,9999,9999,671089768
112,6,10,Ticks_ISO_T2_5,91,9999,9999,9999,671589460
112,6,10,Ticks_ISO_T2_5,92,9999,9999,9999,672089156
112,6,10,Ticks_ISO_T2_5,93,9999,9999,9999,672589900
112,6,10,Ticks_ISO_T2_5,94,9999,9999,9999,673089592
112,6,10,Ticks_ISO_T2_5,95,9999,9999,9999,673589364
112,6,10,Ticks_ISO_T2_5,96,9999,9999,9999,674090104
112,6,10,Ticks_ISO_T2_5,97,9999,9999,9999,674589796
112,6,10,Ticks_ISO_T2_5,98,9999,9999,9999,675089476
112,6,10,Ticks_ISO_T2_5,99,9999,9999,9999,675589188
112,6,10,Ticks_ISO_T2_5,100,9999,9999,9999,676089928
112,6,10,Ticks_ISO_T2_5,101,9999,9999,9999,676589624
112,6,10,Ticks_ISO_T2_5,102,9999,9999,9999,677089392
112,6,10,Ticks_ISO_T2_5,103,9999,9999,9999,677590132
112,6,10,Ticks_ISO_T2_5,104,9999,9999,9999,678089828
112,6,10,Ticks_ISO_T2_5,105,9999,9999,9999,678589496
112,6,10,Ticks_ISO_T2_5,106,9999,9999,9999,679089268
112,6,10,Ticks_ISO_T2_5,107,9999,9999,9999,679590008
112,6,10,Ticks_ISO_T2_5,108,9999,9999,9999,680089704
112,6,10,Ticks_ISO_T2_5,109,9999,9999,9999,680589404
112,6,10,Ticks_ISO_T2_5,110,9999,9999,9999,681089096
112,6,10,Ticks_ISO_T2_5,111,9999,9999,9999,681589840
112,6,10,Ticks_ISO_T2_5,112,9999,9999,9999,682089536
112,6,10,Ticks_ISO_T2_5,113,9999,9999,9999,682589304
112,6,10,Ticks_ISO_T2_5,114,9999,9999,9999,683089972
112,6,10,Ticks_ISO_T2_5,115,9999,9999,9999,683589740
112,6,10,Ticks_ISO_T2_5,116,9999,9999,9999,684089420
112,6,10,Ticks_ISO_T2_5,117,9999,9999,9999,684589128
112,6,10,Ticks_ISO_T2_5,118,9999,9999,9999,685089872
112,6,10,Ticks_ISO_T2_5,119,9999,9999,9999,685589568
112,6,10,Ticks_ISO_T2_5,120,9999,9999,9999,686089336
112,6,10,Ticks_ISO_T2_5,121,9999,9999,9999,686590000
112,6,10,Ticks_ISO_T2_5,122,9999,9999,9999,687089772
112,6,10,Ticks_ISO_T2_5,123,9999,9999,9999,687589464
112,6,10,Ticks_ISO_T2_5,124,9999,9999,9999,688089160
112,6,10,Ticks_ISO_T2_5,125,9999,9999,9999,688589900
112,6,10,Ticks_ISO_T2_5,126,9999,9999,9999,689089596
112,6,10,Ticks_ISO_T2_5,127,9999,9999,9999,689589340
112,6,10,Ticks_ISO_T2_5,128,9999,9999,9999,690090064
112,6,10,Ticks_ISO_T2_5,129,9999,9999,9999,690589760
112,7,22,Ticks_Phase_8,0,5,42,127,701127020
112,7,22,Ticks_Phase_8,1,5,42,127,701926828
112,7,22,Ticks_Phase_8,2,5,42,127,702726636
112,7,22,Ticks_Phase_8,3,5,42,127,703527268
112,7,22,Ticks_Phase_8,4,1,48,47,704314984
112,7,22,Ticks_Phase_8,5,5,42,127,704327068
112,7,22,Ticks_Phase_8,6,1,48,48,705069756
112,7,22,Ticks_Phase_8,7,5,42,127,705126704
112,7,22,Ticks_Phase_8,8,1,48,48,705887896
112,7,22,Ticks_Phase_8,9,5,42,127,705926640
112,7,22,Ticks_Phase_8,10,1,48,46,706661364
112,7,22,Ticks_Phase_8,11,5,42,127,706727372
112,7,22,Ticks_Phase_8,12,1,48,47,707428128
112,7,22,Ticks_Phase_8,13,5,42,127,707526948
112,7,22,Ticks_Phase_8,14,1,48,51,708225748
112,7,22,Ticks_Phase_8,15,5,42,127,708326732
112,7,22,Ticks_Phase_8,16,1,48,44,709041100
112,7,22,Ticks_Phase_8,17,5,42,127,709126460
112,7,22,Ticks_Phase_8,18,1,48,42,709872288
112,7,22,Ticks_Phase_8,19,5,42,127,709927368
112,7,22,Ticks_Phase_8,20,1,48,37,710600040
112,7,22,Ticks_Phase_8,21,5,42,127,710726988
112,7,22,Ticks_Phase_8,22,1,48,46,711311804
112,7,22,Ticks_Phase_8,23,5,42,127,711526704
112,7,22,Ticks_Phase_8,24,1,48,46,712246796
112,7,22,Ticks_Phase_8,25,5,42,127,712326580
112,7,22,Ticks_Phase_8,26,1,48,51,713025164
112,7,22,Ticks_Phase_8,27,5,42,127,713127248
112,7,22,Ticks_Phase_8,28,1,48,54,713886504
112,7,22,Ticks_Phase_8,29,5,42,127,713927000
112,7,22,Ticks_Phase_8,30,1,48,44,714674148
112,7,22,Ticks_Phase_8,31,5,42,127,714726712
112,7,22,Ticks_Phase_8,32,1,48,51,715458244
112,7,22,Ticks_Phase_8,33,5,42,127,715526424
112,7,22,Ticks_Phase_8,34,1,48,54,716213140
112,7,22,Ticks_Phase_8,35,5,42,127,716327312
112,7,22,Ticks_Phase_8,36,1,48,47,717056100
112,7,22,Ticks_Phase_8,37,5,42,127,717126968
112,7,22,Ticks_Phase_8,38,1,48,54,717899312
112,7,22,Ticks_Phase_8,39,5,42,127,717926752
112,7,22,Ticks_Phase_8,40,1,48,50,718710108
112,7,22,Ticks_Phase_8,41,5,42,127,718726688
112,7,22,Ticks_Phase_8,42,5,42,127,719527380
112,7,22,Ticks_Phase_8,43,1,48,44,719539108
112,7,22,Ticks_Phase_8,44,5,42,127,720326968
112,7,22,Ticks_Phase_8,45,1,48,46,720379064
112,7,22,Ticks_Phase_8,46,5,42,127,721126752
112,7,22,Ticks_Phase_8,47,1,48,58,721148368
112,7,22,Ticks_Phase_8,48,1,48,48,721905532
112,7,22,Ticks_Phase_8,49,5,42,127,721926680
112,7,22,Ticks_Phase_8,50,1,48,42,722719396
112,7,22,Ticks_Phase_8,51,5,42,127,722727216
112,7,22,Ticks_Phase_8,52,1,48,47,723493712
112,7,22,Ticks_Phase_8,53,5,42,127,723527080
112,7,22,Ticks_Phase_8,54,1,48,43,724219744
112,7,22,Ticks_Phase_8,55,5,42,127,724326704
112,7,22,Ticks_Phase_8,56,1,48,51,725075476
112,7,22,Ticks_Phase_8,57,5,42,127,725107332
112,7,22,Ticks_Phase_8,58,1,48,43,725865008
112,7,22,Ticks_Phase_8,59,5,42,127,725906748
112,7,22,Ticks_Phase_8,60,1,48,39,726664260
112,7,22,Ticks_Phase_8,61,5,42,127,726706460
112,7,22,Ticks_Phase_8,62,1,48,41,727437916
112,7,22,Ticks_Phase_8,63,5,42,127,727507392
112,7,22,Ticks_Phase_8,64,1,48,42,728271720
112,7,22,Ticks_Phase_8,65,5,42,127,728306956
112,7,22,Ticks_Phase_8,66,1,48,46,729049644
112,7,22,Ticks_Phase_8,67,5,42,127,729106668
112,7,22,Ticks_Phase_8,68,1,48,41,729863580
112,7,22,Ticks_Phase_8,69,5,42,127,729906528
112,7,22,Ticks_Phase_8,70,1,48,33,730659256
112,7,22,Ticks_Phase_8,71,5,42,127,730707660
112,7,22,Ticks_Phase_8,72,1,48,46,731426920
112,7,22,Ticks_Phase_8,73,5,42,127,731506924
112,7,22,Ticks_Phase_8,74,1,48,36,732269012
112,7,22,Ticks_Phase_8,75,5,42,127,732306860
112,7,22,Ticks_Phase_8,76,1,48,57,733017576
112,7,22,Ticks_Phase_8,77,5,42,127,733106496
112,7,22,Ticks_Phase_8,78,1,48,40,733838628
112,7,22,Ticks_Phase_8,79,5,42,127,733907500
112,7,22,Ticks_Phase_8,80,1,48,29,734686220
112,7,22,Ticks_Phase_8,81,5,42,127,734707140
112,7,22,Ticks_Phase_8,82,1,48,46,735402028
112,7,22,Ticks_Phase_8,83,1,48,19,735479840
112,7,22,Ticks_Phase_8,84,5,42,127,735506752
112,7,22,Ticks_Phase_8,85,5,42,127,736306472
112,7,22,Ticks_Phase_8,86,1,48,42,736327268
112,7,22,Ticks_Phase_8,87,5,42,127,737107528
112,7,22,Ticks_Phase_8,88,1,48,40,737118440
112,7,22,Ticks_Phase_8,89,5,42,127,737907240
112,7,22,Ticks_Phase_8,90,1,48,37,737954312
112,7,22,Ticks_Phase_8,91,5,42,127,738706804
112,7,22,Ticks_Phase_8,92,1,48,33,738764456
112,7,22,Ticks_Phase_8,93,1,48,54,739512612
112,7,22,Ticks_Phase_8,94,5,42,127,739526904
112,7,22,Ticks_Phase_8,95,5,42,127,740326772
112,7,22,Ticks_Phase_8,96,1,48,55,740344336
112,7,22,Ticks_Phase_8,97,1,48,46,741118360
112,7,22,Ticks_Phase_8,98,5,42,127,741126476
112,7,22,Ticks_Phase_8,99,1,48,46,741910580
112,7,22,Ticks_Phase_8,100,5,42,127,741927456
112,7,22,Ticks_Phase_8,101,1,48,50,742695024
112,7,22,Ticks_Phase_8,102,5,42,127,742727320
112,7,22,Ticks_Phase_8,103,1,48,49,743484696
112,7,22,Ticks_Phase_8,104,5,42,127,743526660
112,7,22,Ticks_Phase_8,105,1,48,49,744302896
112,7,22,Ticks_Phase_8,106,5,42,127,744326448
112,7,22,Ticks_Phase_8,107,1,48,50,745080144
112,7,22,Ticks_Phase_8,108,5,42,127,745127204
112,7,22,Ticks_Phase_8,109,1,48,49,745882472
112,7,22,Ticks_Phase_8,110,5,42,127,745927240
112,7,22,Ticks_Phase_8,111,1,48,46,746646620
112,7,22,Ticks_Phase_8,112,5,42,127,746726728
112,7,22,Ticks_Phase_8,113,1,48,46,747500792
112,7,22,Ticks_Phase_8,114,5,42,127,747526436
112,7,22,Ticks_Phase_8,115,1,48,48,748293760
112,7,22,Ticks_Phase_8,116,5,42,127,748327344
112,7,22,Ticks_Phase_8,117,1,48,45,749097452
112,7,22,Ticks_Phase_8,118,5,42,127,749127132
112,7,22,Ticks_Phase_8,119,5,42,127,749926700
112,7,22,Ticks_Phase_8,120,1,48,56,749946520
112,7,22,Ticks_Phase_8,121,5,42,127,750726412
112,7,22,Ticks_Phase_8,122,1,48,51,750779180
112,7,22,Ticks_Phase_8,123,5,42,127,751527172
112,7,22,Ticks_Phase_8,124,1,48,46,751563184
112,7,22,Ticks_Phase_8,125,1,48,48,752353000
112,7,22,Ticks_Phase_8,126,5,42,127,752367188
112,7,22,Ticks_Phase_8,127,1,48,48,753142528
112,7,22,Ticks_Phase_8,128,5,42,127,753166680
112,7,22,Ticks_Phase_8,129,5,42,127,753966324
112,7,22,Ticks_Phase_8,130,1,48,25,754010184
112,7,22,Ticks_Phase_8,131,1,48,46,754738812
112,7,22,Ticks_Phase_8,132,5,42,127,754767152
112,7,22,Ticks_Phase_8,133,5,42,127,755567240
112,7,22,Ticks_Phase_8,134,1,48,52,755570508
112,7,22,Ticks_Phase_8,135,5,42,127,756366656
112,7,22,Ticks_Phase_8,136,1,48,52,756398236
112,7,22,Ticks_Phase_8,137,5,42,127,757166368
112,7,22,Ticks_Phase_8,138,1,48,45,757181164
112,7,22,Ticks_Phase_8,139,1,48,51,757950612
112,7,22,Ticks_Phase_8,140,5,42,127,757967116
112,7,22,Ticks_Phase_8,141,1,48,47,758747928
112,7,22,Ticks_Phase_8,142,5,42,127,758766980
112,7,22,Ticks_Phase_8,143,1,48,58,759503744
112,7,22,Ticks_Phase_8,144,5,42,127,759566692
112,7,22,Ticks_Phase_8,145,1,48,52,760333864
112,7,22,Ticks_Phase_8,146,5,42,127,760366328
112,7,22,Ticks_Phase_8,147,1,48,46,761146988
112,7,22,Ticks_Phase_8,148,5,42,127,761167160
112,7,22,Ticks_Phase_8,149,1,48,53,761893220
112,7,22,Ticks_Phase_8,150,5,42,127,761967096
112,7,22,Ticks_Phase_8,151,1,48,52,762731500
112,7,22,Ticks_Phase_8,152,5,42,127,762766584
112,7,22,Ticks_Phase_8,153,1,48,54,763549560
112,7,22,Ticks_Phase_8,154,5,42,127,763566444
112,7,22,Ticks_Phase_8,155,1,48,54,764353036
112,7,22,Ticks_Phase_8,156,5,42,127,764367228
112,7,22,Ticks_Phase_8,157,1,48,30,764425152
112,7,22,Ticks_Phase_8,158,5,42,127,765166924
112,7,22,Ticks_Phase_8,159,1,48,39,765197904
112,7,22,Ticks_Phase_8,160,5,42,127,765926724
112,7,22,Ticks_Phase_8,161,1,48,50,765954100
112,7,22,Ticks_Phase_8,162,5,42,127,766726508
112,7,22,Ticks_Phase_8,163,1,48,53,766786468
112,7,22,Ticks_Phase_8,164,5,42,127,767527268
112,7,22,Ticks_Phase_8,165,1,48,49,767563184
112,7,22,Ticks_Phase_8,166,5,42,127,768327276
112,7,22,Ticks_Phase_8,167,1,48,46,768390308
112,7,22,Ticks_Phase_8,168,5,42,127,769126840
112,7,22,Ticks_Phase_8,169,1,48,51,769145764
112,7,22,Ticks_Phase_8,170,5,42,127,769926552
112,7,22,Ticks_Phase_8,171,1,48,48,769945628
112,7,22,Ticks_Phase_8,172,1,48,49,770674860
112,7,22,Ticks_Phase_8,173,5,42,127,770727304
112,7,22,Ticks_Phase_8,174,1,48,28,770742160
112,7,22,Ticks_Phase_8,175,1,48,53,771448856
112,7,22,Ticks_Phase_8,176,5,42,127,771527164
112,7,22,Ticks_Phase_8,177,1,48,57,772307528
112,7,22,Ticks_Phase_8,178,5,42,127,772326952
112,7,22,Ticks_Phase_8,179,1,48,51,773080948
112,7,22,Ticks_Phase_8,180,5,42,127,773126516
112,7,22,Ticks_Phase_8,181,1,48,53,773863060
112,7,22,Ticks_Phase_8,182,5,42,127,773927348
112,7,22,Ticks_Phase_8,183,1,48,57,774630504
112,7,22,Ticks_Phase_8,184,5,42,127,774728244
112,7,22,Ticks_Phase_8,185,1,48,54,775456720
112,7,22,Ticks_Phase_8,186,5,42,127,775526996
112,7,22,Ticks_Phase_8,187,1,48,55,776268716
112,7,22,Ticks_Phase_8,188,5,42,127,776326412
112,7,22,Ticks_Phase_8,189,1,48,51,777091564
112,7,22,Ticks_Phase_8,190,5,42,127,777127244
112,7,22,Ticks_Phase_8,191,1,48,47,777848896
112,7,22,Ticks_Phase_8,192,5,42,127,777926980
112,7,22,Ticks_Phase_8,193,5,42,127,778646848
112,7,22,Ticks_Phase_8,194,1,48,51,778687432
112,7,22,Ticks_Phase_8,195,5,42,127,779446780
112,7,22,Ticks_Phase_8,196,1,48,44,779468348
112,7,22,Ticks_Phase_8,197,1,48,49,780231948
112,7,22,Ticks_Phase_8,198,5,42,127,780247260
112,7,22,Ticks_Phase_8,199,1,48,52,780945448
112,7,22,Ticks_Phase_8,200,5,42,127,781047176
112,7,22,Ticks_Phase_8,201,1,48,51,781752036
112,7,22,Ticks_Phase_8,202,5,42,127,781847040
112,7,22,Ticks_Phase_8,203,1,48,49,782514688
112,7,22,Ticks_Phase_8,204,5,42,127,782646752
112,7,22,Ticks_Phase_8,205,1,48,52,783341680
112,7,22,Ticks_Phase_8,206,5,42,127,783447436
112,7,22,Ticks_Phase_8,207,1,48,50,784157640
112,7,22,Ticks_Phase_8,208,5,42,127,784247012
112,7,22,Ticks_Phase_8,209,1,48,51,784985888
112,7,22,Ticks_Phase_8,210,5,42,127,785046948
112,7,22,Ticks_Phase_8,211,1,48,47,785778936
112,7,22,Ticks_Phase_8,212,5,42,127,785846812
112,7,22,Ticks_Phase_8,213,1,48,45,786561344
112,7,22,Ticks_Phase_8,214,5,42,127,786647376
112,7,22,Ticks_Phase_8,215,1,48,59,787320920
112,7,22,Ticks_Phase_8,216,5,42,127,787447220
112,7,22,Ticks_Phase_8,217,1,48,52,788130512
112,7,22,Ticks_Phase_8,218,5,42,127,788247080
112,7,22,Ticks_Phase_8,219,1,48,49,788956168
112,7,22,Ticks_Phase_8,220,5,42,127,789046880
112,7,22,Ticks_Phase_8,221,1,48,54,789746216
112,7,22,Ticks_Phase_8,222,5,42,127,789847476
112,7,22,Ticks_Phase_8,223,1,48,56,790547800
112,7,22,Ticks_Phase_8,224,5,42,127,790647040
112,7,22,Ticks_Phase_8,225,1,48,51,791393336
112,7,22,Ticks_Phase_8,226,5,42,127,791446988
112,7,22,Ticks_Phase_8,227,1,48,56,792215148
112,7,22,Ticks_Phase_8,228,5,42,127,792326616
112,7,22,Ticks_Phase_8,229,1,48,55,793055400
112,7,22,Ticks_Phase_8,230,5,42,127,793127316
112,7,22,Ticks_Phase_8,231,1,48,49,793913808
112,7,22,Ticks_Phase_8,232,5,42,127,793927100
112,7,22,Ticks_Phase_8,233,1,48,56,794697428
112,7,22,Ticks_Phase_8,234,5,42,127,794726664
112,7,22,Ticks_Phase_8,235,1,48,36,795523640
112,7,22,Ticks_Phase_8,236,5,42,127,795526448
112,7,22,Ticks_Phase_8,237,1,48,56,796324768
112,7,22,Ticks_Phase_8,238,5,42,127,796327280
112,7,22,Ticks_Phase_8,239,1,48,54,797075596
112,7,22,Ticks_Phase_8,240,5,42,127,797127092
112,7,22,Ticks_Phase_8,241,1,48,52,797884592
112,7,22,Ticks_Phase_8,242,5,42,127,797926728
112,7,22,Ticks_Phase_8,243,1,48,54,798649404
112,7,22,Ticks_Phase_8,244,5,42,127,798726440
112,7,22,Ticks_Phase_8,245,1,48,56,799466816
112,7,22,Ticks_Phase_8,246,5,42,127,799527272
112,7,22,Ticks_Phase_8,247,1,48,56,800273104
112,7,22,Ticks_Phase_8,248,5,42,127,800326988
112,7,22,Ticks_Phase_8,249,5,42,127,801126852
112,7,22,Ticks_Phase_8,250,1,48,48,801140452
112,7,22,Ticks_Phase_8,251,1,48,55,801921804
112,7,22,Ticks_Phase_8,252,5,42,127,801926632
112,7,22,Ticks_Phase_8,253,5,42,127,802727172
112,7,22,Ticks_Phase_8,254,1,48,49,802730812
112,7,22,Ticks_Phase_8,255,1,48,41,803517288
112,7,22,Ticks_Phase_8,256,5,42,127,803527124
112,7,22,Ticks_Phase_8,257,1,48,54,804313620
112,7,22,Ticks_Phase_8,258,5,42,127,804326836
112,7,22,Ticks_Phase_8,259,5,42,127,805126856
112,7,22,Ticks_Phase_8,260,1,48,35,805135524
112,7,22,Ticks_Phase_8,261,1,48,53,805960232
112,7,22,Ticks_Phase_8,262,5,42,127,806086984
112,7,22,Ticks_Phase_8,263,1,48,54,806837228
112,7,22,Ticks_Phase_8,264,5,42,127,806886712
112,7,22,Ticks_Phase_8,265,1,48,59,807631716
112,7,22,Ticks_Phase_8,266,5,42,127,807686572
112,7,22,Ticks_Phase_8,267,1,48,53,808459296
112,7,22,Ticks_Phase_8,268,5,42,127,808487328
112,7,22,Ticks_Phase_8,269,1,48,60,809255932
112,7,22,Ticks_Phase_8,270,5,42,127,809286896
112,7,22,Ticks_Phase_8,271,1,48,48,810035800
112,7,22,Ticks_Phase_8,272,5,42,127,810086752
112,7,22,Ticks_Phase_8,273,1,48,52,810817168
112,7,22,Ticks_Phase_8,274,5,42,127,810886764
112,7,22,Ticks_Phase_8,275,1,48,47,811613796
112,7,22,Ticks_Phase_8,276,5,42,127,811687372
112,7,22,Ticks_Phase_8,277,1,48,55,812379592
112,7,22,Ticks_Phase_8,278,5,42,127,812487020
112,7,22,Ticks_Phase_8,279,1,48,60,813128528
112,7,22,Ticks_Phase_8,280,5,42,127,813286732
112,7,22,Ticks_Phase_8,281,1,48,53,813861436
112,7,22,Ticks_Phase_8,282,5,42,127,814086740
112,7,22,Ticks_Phase_8,283,1,48,53,814758136
112,7,22,Ticks_Phase_8,284,5,42,127,814887424
112,7,22,Ticks_Phase_8,285,1,48,45,815647584
112,7,22,Ticks_Phase_8,286,5,42,127,815687004
112,7,22,Ticks_Phase_8,287,1,48,55,816438608
112,7,22,Ticks_Phase_8,288,5,42,127,816486792
112,7,22,Ticks_Phase_8,289,1,48,54,817188972
112,7,22,Ticks_Phase_8,290,5,42,127,817286784
112,7,22,Ticks_Phase_8,291,1,48,51,817937380
112,7,22,Ticks_Phase_8,292,5,42,127,818087396
112,7,22,Ticks_Phase_8,293,1,48,43,818817820
112,7,22,Ticks_Phase_8,294,5,42,127,818887072
112,7,22,Ticks_Phase_8,295,1,48,50,819545788
112,7,22,Ticks_Phase_8,296,5,42,127,819686768
112,7,22,Ticks_Phase_8,297,1,48,45,820443920
112,7,22,Ticks_Phase_8,298,5,42,127,820486572
112,7,22,Ticks_Phase_8,299,5,42,127,821126604
112,7,22,Ticks_Phase_8,300,1,48,34,821233608
112,7,22,Ticks_Phase_8,301,1,48,48,821894384
112,7,22,Ticks_Phase_8,302,5,42,127,821927504
112,7,22,Ticks_Phase_8,303,1,48,24,821964400
112,7,22,Ticks_Phase_8,304,1,48,52,822616784
112,7,22,Ticks_Phase_8,305,5,42,127,822726908
112,7,22,Ticks_Phase_8,306,1,48,51,823333436
112,7,22,Ticks_Phase_8,307,5,42,127,823526840
112,7,22,Ticks_Phase_8,308,1,48,52,824089796
112,7,22,Ticks_Phase_8,309,5,42,127,824326480
112,7,22,Ticks_Phase_8,310,1,48,48,824900664
112,7,22,Ticks_Phase_8,311,5,42,127,825127532
112,7,22,Ticks_Phase_8,312,1,48,55,825851220
112,7,22,Ticks_Phase_8,313,5,42,127,825927112
112,7,22,Ticks_Phase_8,314,1,48,49,826677524
112,7,22,Ticks_Phase_8,315,5,42,127,826726748
112,7,22,Ticks_Phase_8,316,1,48,54,827419268
112,7,22,Ticks_Phase_8,317,5,42,127,827526372
112,7,22,Ticks_Phase_8,318,1,48,52,828259420
112,7,22,Ticks_Phase_8,319,5,42,127,828327520
112,7,22,Ticks_Phase_8,320,1,48,51,829078004
112,7,22,Ticks_Phase_8,321,5,42,127,829127108
112,7,22,Ticks_Phase_8,322,1,48,49,829879956
112,7,22,Ticks_Phase_8,323,5,42,127,829926744
112,7,22,Ticks_Phase_8,324,1,48,43,830671676
112,7,22,Ticks_Phase_8,325,5,42,127,830726456
112,7,22,Ticks_Phase_8,326,1,48,54,831463748
112,7,22,Ticks_Phase_8,327,5,42,127,831527512
112,7,22,Ticks_Phase_8,328,1,48,55,832294904
112,7,22,Ticks_Phase_8,329,5,42,127,832327000
112,7,22,Ticks_Phase_8,330,1,48,55,833090812
112,7,22,Ticks_Phase_8,331,5,42,127,833126860
112,7,22,Ticks_Phase_8,332,1,48,56,833841016
112,7,22,Ticks_Phase_8,333,5,42,127,833926500
112,7,22,Ticks_Phase_8,334,1,48,58,834657584
112,7,22,Ticks_Phase_8,335,5,42,127,834727404
112,7,22,Ticks_Phase_8,336,1,48,54,835465312
112,7,22,Ticks_Phase_8,337,5,42,127,835527140
112,7,22,Ticks_Phase_8,338,1,48,49,836302480
112,7,22,Ticks_Phase_8,339,5,42,127,836326856
112,7,22,Ticks_Phase_8,0,9999,9999,9999,701124732
112,7,22,Ticks_Phase_8,1,9999,9999,9999,701924464
112,7,22,Ticks_Phase_8,2,9999,9999,9999,702724196
112,7,22,Ticks_Phase_8,3,9999,9999,9999,703524976
112,7,22,Ticks_Phase_8,4,9999,9999,9999,704324704
112,7,22,Ticks_Phase_8,5,9999,9999,9999,705124416
112,7,22,Ticks_Phase_8,6,9999,9999,9999,705924204
112,7,22,Ticks_Phase_8,7,9999,9999,9999,706724936
112,7,22,Ticks_Phase_8,8,9999,9999,9999,707524732
112,7,22,Ticks_Phase_8,9,9999,9999,9999,708324444
112,7,22,Ticks_Phase_8,10,9999,9999,9999,709124172
112,7,22,Ticks_Phase_8,11,9999,9999,9999,709924928
112,7,22,Ticks_Phase_8,12,9999,9999,9999,710724700
112,7,22,Ticks_Phase_8,13,9999,9999,9999,711524412
112,7,22,Ticks_Phase_8,14,9999,9999,9999,712324216
112,7,22,Ticks_Phase_8,15,9999,9999,9999,713124960
112,7,22,Ticks_Phase_8,16,9999,9999,9999,713924712
112,7,22,Ticks_Phase_8,17,9999,9999,9999,714724424
112,7,22,Ticks_Phase_8,18,9999,9999,9999,715524208
112,7,22,Ticks_Phase_8,19,9999,9999,9999,716324952
112,7,22,Ticks_Phase_8,20,9999,9999,9999,717124676
112,7,22,Ticks_Phase_8,21,9999,9999,9999,717924464
112,7,22,Ticks_Phase_8,22,9999,9999,9999,718724176
112,7,22,Ticks_Phase_8,23,9999,9999,9999,719524940
112,7,22,Ticks_Phase_8,24,9999,9999,9999,720324676
112,7,22,Ticks_Phase_8,25,9999,9999,9999,721124464
112,7,22,Ticks_Phase_8,26,9999,9999,9999,721924168
112,7,22,Ticks_Phase_8,27,9999,9999,9999,722724928
112,7,22,Ticks_Phase_8,28,9999,9999,9999,723524712
112,7,22,Ticks_Phase_8,29,9999,9999,9999,724324412
112,7,22,Ticks_Phase_8,30,9999,9999,9999,725104744
112,7,22,Ticks_Phase_8,31,9999,9999,9999,725904456
112,7,22,Ticks_Phase_8,32,9999,9999,9999,726704244
112,7,22,Ticks_Phase_8,33,9999,9999,9999,727504952
112,7,22,Ticks_Phase_8,34,9999,9999,9999,728304740
112,7,22,Ticks_Phase_8,35,9999,9999,9999,729104452
112,7,22,Ticks_Phase_8,36,9999,9999,9999,729904240
112,7,22,Ticks_Phase_8,37,9999,9999,9999,730704996
112,7,22,Ticks_Phase_8,38,9999,9999,9999,731504708
112,7,22,Ticks_Phase_8,39,9999,9999,9999,732304496
112,7,22,Ticks_Phase_8,40,9999,9999,9999,733104208
112,7,22,Ticks_Phase_8,41,9999,9999,9999,733904988
112,7,22,Ticks_Phase_8,42,9999,9999,9999,734704700
112,7,22,Ticks_Phase_8,43,9999,9999,9999,735504464
112,7,22,Ticks_Phase_8,44,9999,9999,9999,736304184
112,7,22,Ticks_Phase_8,45,9999,9999,9999,737105016
112,7,22,Ticks_Phase_8,46,9999,9999,9999,737904728
112,7,22,Ticks_Phase_8,47,9999,9999,9999,738704440
112,7,22,Ticks_Phase_8,48,9999,9999,9999,739524688
112,7,22,Ticks_Phase_8,49,9999,9999,9999,740324408
112,7,22,Ticks_Phase_8,50,9999,9999,9999,741124188
112,7,22,Ticks_Phase_8,51,9999,9999,9999,741924944
112,7,22,Ticks_Phase_8,52,9999,9999,9999,742724732
112,7,22,Ticks_Phase_8,53,9999,9999,9999,743524444
112,7,22,Ticks_Phase_8,54,9999,9999,9999,744324156
112,7,22,Ticks_Phase_8,55,9999,9999,9999,745124992
112,7,22,Ticks_Phase_8,56,9999,9999,9999,745924728
112,7,22,Ticks_Phase_8,57,9999,9999,9999,746724436
112,7,22,Ticks_Phase_8,58,9999,9999,9999,747524224
112,7,22,Ticks_Phase_8,59,9999,9999,9999,748324980
112,7,22,Ticks_Phase_8,60,9999,9999,9999,749124696
112,7,22,Ticks_Phase_8,61,9999,9999,9999,749924412
112,7,22,Ticks_Phase_8,62,9999,9999,9999,750724200
112,7,22,Ticks_Phase_8,63,9999,9999,9999,751524956
112,7,22,Ticks_Phase_8,64,9999,9999,9999,752364604
112,7,22,Ticks_Phase_8,65,9999,9999,9999,753164392
112,7,22,Ticks_Phase_8,66,9999,9999,9999,753964112
112,7,22,Ticks_Phase_8,67,9999,9999,9999,754764864
112,7,22,Ticks_Phase_8,68,9999,9999,9999,755564652
112,7,22,Ticks_Phase_8,69,9999,9999,9999,756364364
112,7,22,Ticks_Phase_8,70,9999,9999,9999,757164152
112,7,22,Ticks_Phase_8,71,9999,9999,9999,757964904
112,7,22,Ticks_Phase_8,72,9999,9999,9999,758764616
112,7,22,Ticks_Phase_8,73,9999,9999,9999,759564400
112,7,22,Ticks_Phase_8,74,9999,9999,9999,760364112
112,7,22,Ticks_Phase_8,75,9999,9999,9999,761164872
112,7,22,Ticks_Phase_8,76,9999,9999,9999,761964656
112,7,22,Ticks_Phase_8,77,9999,9999,9999,762764368
112,7,22,Ticks_Phase_8,78,9999,9999,9999,763564156
112,7,22,Ticks_Phase_8,79,9999,9999,9999,764364864
112,7,22,Ticks_Phase_8,80,9999,9999,9999,765164636
112,7,22,Ticks_Phase_8,81,9999,9999,9999,765924432
112,7,22,Ticks_Phase_8,82,9999,9999,9999,766724220
112,7,22,Ticks_Phase_8,83,9999,9999,9999,767524980
112,7,22,Ticks_Phase_8,84,9999,9999,9999,768324692
112,7,22,Ticks_Phase_8,85,9999,9999,9999,769124476
112,7,22,Ticks_Phase_8,86,9999,9999,9999,769924188
112,7,22,Ticks_Phase_8,87,9999,9999,9999,770724940
112,7,22,Ticks_Phase_8,88,9999,9999,9999,771524728
112,7,22,Ticks_Phase_8,89,9999,9999,9999,772324440
112,7,22,Ticks_Phase_8,90,9999,9999,9999,773124152
112,7,22,Ticks_Phase_8,91,9999,9999,9999,773924984
112,7,22,Ticks_Phase_8,92,9999,9999,9999,774724700
112,7,22,Ticks_Phase_8,93,9999,9999,9999,775524412
112,7,22,Ticks_Phase_8,94,9999,9999,9999,776324196
112,7,22,Ticks_Phase_8,95,9999,9999,9999,777124956
112,7,22,Ticks_Phase_8,96,9999,9999,9999,777924692
112,7,22,Ticks_Phase_8,97,9999,9999,9999,778644556
112,7,22,Ticks_Phase_8,98,9999,9999,9999,779444344
112,7,22,Ticks_Phase_8,99,9999,9999,9999,780245044
112,7,22,Ticks_Phase_8,100,9999,9999,9999,781044816
112,7,22,Ticks_Phase_8,101,9999,9999,9999,781844600
112,7,22,Ticks_Phase_8,102,9999,9999,9999,782644312
112,7,22,Ticks_Phase_8,103,9999,9999,9999,783445072
112,7,22,Ticks_Phase_8,104,9999,9999,9999,784244800
112,7,22,Ticks_Phase_8,105,9999,9999,9999,785044588
112,7,22,Ticks_Phase_8,106,9999,9999,9999,785844300
112,7,22,Ticks_Phase_8,107,9999,9999,9999,786645084
112,7,22,Ticks_Phase_8,108,9999,9999,9999,787444856
112,7,22,Ticks_Phase_8,109,9999,9999,9999,788244568
112,7,22,Ticks_Phase_8,110,9999,9999,9999,789044296
112,7,22,Ticks_Phase_8,111,9999,9999,9999,789845112
112,7,22,Ticks_Phase_8,112,9999,9999,9999,790644824
112,7,22,Ticks_Phase_8,113,9999,9999,9999,791444552
112,7,22,Ticks_Phase_8,114,9999,9999,9999,792324176
112,7,22,Ticks_Phase_8,115,9999,9999,9999,793124952
112,7,22,Ticks_Phase_8,116,9999,9999,9999,793924664
112,7,22,Ticks_Phase_8,117,9999,9999,9999,794724448
112,7,22,Ticks_Phase_8,118,9999,9999,9999,795524160
112,7,22,Ticks_Phase_8,119,9999,9999,9999,796324920
112,7,22,Ticks_Phase_8,120,9999,9999,9999,797124728
112,7,22,Ticks_Phase_8,121,9999,9999,9999,797924440
112,7,22,Ticks_Phase_8,122,9999,9999,9999,798724152
112,7,22,Ticks_Phase_8,123,9999,9999,9999,799524984
112,7,22,Ticks_Phase_8,124,9999,9999,9999,800324696
112,7,22,Ticks_Phase_8,125,9999,9999,9999,801124416
112,7,22,Ticks_Phase_8,126,9999,9999,9999,801924192
112,7,22,Ticks_Phase_8,127,9999,9999,9999,802724960
112,7,22,Ticks_Phase_8,128,9999,9999,9999,803524688
112,7,22,Ticks_Phase_8,129,9999,9999,9999,804324476
112,7,22,Ticks_Phase_8,130,9999,9999,9999,805124192
112,7,22,Ticks_Phase_8,131,9999,9999,9999,806084692
112,7,22,Ticks_Phase_8,132,9999,9999,9999,806884420
112,7,22,Ticks_Phase_8,133,9999,9999,9999,807684208
112,7,22,Ticks_Phase_8,134,9999,9999,9999,808484968
112,7,22,Ticks_Phase_8,135,9999,9999,9999,809284680
112,7,22,Ticks_Phase_8,136,9999,9999,9999,810084464
112,7,22,Ticks_Phase_8,137,9999,9999,9999,810884176
112,7,22,Ticks_Phase_8,138,9999,9999,9999,811684936
112,7,22,Ticks_Phase_8,139,9999,9999,9999,812484732
112,7,22,Ticks_Phase_8,140,9999,9999,9999,813284444
112,7,22,Ticks_Phase_8,141,9999,9999,9999,814084156
112,7,22,Ticks_Phase_8,142,9999,9999,9999,814884988
112,7,22,Ticks_Phase_8,143,9999,9999,9999,815684716
112,7,22,Ticks_Phase_8,144,9999,9999,9999,816484428
112,7,22,Ticks_Phase_8,145,9999,9999,9999,817284200
112,7,22,Ticks_Phase_8,146,9999,9999,9999,818084956
112,7,22,Ticks_Phase_8,147,9999,9999,9999,818884708
112,7,22,Ticks_Phase_8,148,9999,9999,9999,819684480
112,7,22,Ticks_Phase_8,149,9999,9999,9999,820484204
112,7,22,Ticks_Phase_8,150,9999,9999,9999,821124164
112,7,22,Ticks_Phase_8,151,9999,9999,9999,821924916
112,7,22,Ticks_Phase_8,152,9999,9999,9999,822724692
112,7,22,Ticks_Phase_8,153,9999,9999,9999,823524476
112,7,22,Ticks_Phase_8,154,9999,9999,9999,824324188
112,7,22,Ticks_Phase_8,155,9999,9999,9999,825124948
112,7,22,Ticks_Phase_8,156,9999,9999,9999,825924672
112,7,22,Ticks_Phase_8,157,9999,9999,9999,826724460
112,7,22,Ticks_Phase_8,158,9999,9999,9999,827524156
112,7,22,Ticks_Phase_8,159,9999,9999,9999,828324932
112,7,22,Ticks_Phase_8,160,9999,9999,9999,829124672
112,7,22,Ticks_Phase_8,161,9999,9999,9999,829924456
112,7,22,Ticks_Phase_8,162,9999,9999,9999,830724168
112,7,22,Ticks_Phase_8,163,9999,9999,9999,831524924
112,7,22,Ticks_Phase_8,164,9999,9999,9999,832324712
112,7,22,Ticks_Phase_8,165,9999,9999,9999,833124424
112,7,22,Ticks_Phase_8,166,9999,9999,9999,833924208
112,7,22,Ticks_Phase_8,167,9999,9999,9999,834724968
112,7,22,Ticks_Phase_8,168,9999,9999,9999,835524704
112,7,22,Ticks_Phase_8,169,9999,9999,9999,836324416
112,8,23,Ticks_Phase_5,0,5,42,127,845853180
112,8,23,Ticks_Phase_5,1,5,42,127,846352816
112,8,23,Ticks_Phase_5,2,5,42,127,846852452
112,8,23,Ticks_Phase_5,3,5,42,127,847353280
112,8,23,Ticks_Phase_5,4,5,42,127,847852768
112,8,23,Ticks_Phase_5,5,1,48,51,847878124
112,8,23,Ticks_Phase_5,6,5,42,127,848352532
112,8,23,Ticks_Phase_5,7,1,48,54,848394368
112,8,23,Ticks_Phase_5,8,5,42,127,848853340
112,8,23,Ticks_Phase_5,9,1,48,48,848888284
112,8,23,Ticks_Phase_5,10,5,42,127,849353180
112,8,23,Ticks_Phase_5,11,1,48,54,849378688
112,8,23,Ticks_Phase_5,12,5,42,127,849852792
112,8,23,Ticks_Phase_5,13,1,48,53,849875752
112,8,23,Ticks_Phase_5,14,5,42,127,850352456
112,8,23,Ticks_Phase_5,15,1,48,57,850365108
112,8,23,Ticks_Phase_5,16,5,42,127,850853268
112,8,23,Ticks_Phase_5,17,1,48,49,850870920
112,8,23,Ticks_Phase_5,18,1,48,54,851352428
112,8,23,Ticks_Phase_5,19,5,42,127,851354068
112,8,23,Ticks_Phase_5,20,5,42,127,851852720
112,8,23,Ticks_Phase_5,21,1,48,58,851868720
112,8,23,Ticks_Phase_5,22,5,42,127,852353380
112,8,23,Ticks_Phase_5,23,1,48,54,852357248
112,8,23,Ticks_Phase_5,24,5,42,127,852853216
112,8,23,Ticks_Phase_5,25,1,48,52,852858504
112,8,23,Ticks_Phase_5,26,1,48,55,853340592
112,8,23,Ticks_Phase_5,27,5,42,127,853352824
112,8,23,Ticks_Phase_5,28,5,42,127,853852592
112,8,23,Ticks_Phase_5,29,1,48,46,853883272
112,8,23,Ticks_Phase_5,30,1,48,59,854351284
112,8,23,Ticks_Phase_5,31,5,42,127,854353172
112,8,23,Ticks_Phase_5,32,1,48,50,854848932
112,8,23,Ticks_Phase_5,33,5,42,127,854853160
112,8,23,Ticks_Phase_5,34,1,48,59,855348844
112,8,23,Ticks_Phase_5,35,5,42,127,855352548
112,8,23,Ticks_Phase_5,36,1,48,56,855830108
112,8,23,Ticks_Phase_5,37,5,42,127,855853508
112,8,23,Ticks_Phase_5,38,1,48,54,856328524
112,8,23,Ticks_Phase_5,39,5,42,127,856363304
112,8,23,Ticks_Phase_5,40,1,48,53,856840116
112,8,23,Ticks_Phase_5,41,5,42,127,856863068
112,8,23,Ticks_Phase_5,42,1,48,45,857353964
112,8,23,Ticks_Phase_5,43,5,42,127,857362904
112,8,23,Ticks_Phase_5,44,1,48,48,857853876
112,8,23,Ticks_Phase_5,45,5,42,127,857862520
112,8,23,Ticks_Phase_5,46,1,48,45,858351172
112,8,23,Ticks_Phase_5,47,5,42,127,858363252
112,8,23,Ticks_Phase_5,48,1,48,50,858823668
112,8,23,Ticks_Phase_5,49,5,42,127,858862940
112,8,23,Ticks_Phase_5,50,1,48,66,859295324
112,8,23,Ticks_Phase_5,51,5,42,127,859362628
112,8,23,Ticks_Phase_5,52,1,48,43,859829312
112,8,23,Ticks_Phase_5,53,5,42,127,859863364
112,8,23,Ticks_Phase_5,54,1,48,58,860285712
112,8,23,Ticks_Phase_5,55,5,42,127,860363052
112,8,23,Ticks_Phase_5,56,1,48,51,860802108
112,8,23,Ticks_Phase_5,57,5,42,127,860852532
112,8,23,Ticks_Phase_5,58,1,48,57,861347848
112,8,23,Ticks_Phase_5,59,5,42,127,861353340
112,8,23,Ticks_Phase_5,60,5,42,127,861853036
112,8,23,Ticks_Phase_5,61,1,48,57,861857952
112,8,23,Ticks_Phase_5,62,1,48,56,862349308
112,8,23,Ticks_Phase_5,63,5,42,127,862352716
112,8,23,Ticks_Phase_5,64,1,48,55,862844964
112,8,23,Ticks_Phase_5,65,5,42,127,862852556
112,8,23,Ticks_Phase_5,66,1,48,58,863310956
112,8,23,Ticks_Phase_5,67,5,42,127,863353064
112,8,23,Ticks_Phase_5,68,1,48,57,863787644
112,8,23,Ticks_Phase_5,69,5,42,127,863853052
112,8,23,Ticks_Phase_5,70,1,48,62,864258204
112,8,23,Ticks_Phase_5,71,5,42,127,864352516
112,8,23,Ticks_Phase_5,72,1,48,46,864793916
112,8,23,Ticks_Phase_5,73,5,42,127,864853476
112,8,23,Ticks_Phase_5,74,1,48,62,865284836
112,8,23,Ticks_Phase_5,75,5,42,127,865353240
112,8,23,Ticks_Phase_5,76,1,48,64,865800336
112,8,23,Ticks_Phase_5,77,5,42,127,865852776
112,8,23,Ticks_Phase_5,78,1,48,64,866334536
112,8,23,Ticks_Phase_5,79,5,42,127,866352616
112,8,23,Ticks_Phase_5,80,1,48,63,866816552
112,8,23,Ticks_Phase_5,81,5,42,127,866853200
112,8,23,Ticks_Phase_5,82,1,48,54,867313848
112,8,23,Ticks_Phase_5,83,5,42,127,867353112
112,8,23,Ticks_Phase_5,84,1,48,51,867818920
112,8,23,Ticks_Phase_5,85,5,42,127,867852652
112,8,23,Ticks_Phase_5,86,1,48,59,868279936
112,8,23,Ticks_Phase_5,87,5,42,127,868353460
112,8,23,Ticks_Phase_5,88,1,48,58,868794324
112,8,23,Ticks_Phase_5,89,5,42,127,868853216
112,8,23,Ticks_Phase_5,90,1,48,50,869308840
112,8,23,Ticks_Phase_5,91,5,42,127,869353056
112,8,23,Ticks_Phase_5,92,1,48,68,869775776
112,8,23,Ticks_Phase_5,93,5,42,127,869862628
112,8,23,Ticks_Phase_5,94,1,48,65,870320928
112,8,23,Ticks_Phase_5,95,5,42,127,870362468
112,8,23,Ticks_Phase_5,96,1,48,61,870851796
112,8,23,Ticks_Phase_5,97,5,42,127,870863352
112,8,23,Ticks_Phase_5,98,1,48,65,871312288
112,8,23,Ticks_Phase_5,99,5,42,127,871363336
112,8,23,Ticks_Phase_5,100,1,48,55,871812876
112,8,23,Ticks_Phase_5,101,5,42,127,871862924
112,8,23,Ticks_Phase_5,102,1,48,58,872305748
112,8,23,Ticks_Phase_5,103,5,42,127,872363584
112,8,23,Ticks_Phase_5,104,1,48,59,872787012
112,8,23,Ticks_Phase_5,105,5,42,127,872863124
112,8,23,Ticks_Phase_5,106,1,48,54,873252852
112,8,23,Ticks_Phase_5,107,5,42,127,873363024
112,8,23,Ticks_Phase_5,108,1,48,51,873741308
112,8,23,Ticks_Phase_5,109,5,42,127,873862488
112,8,23,Ticks_Phase_5,110,1,48,59,874291476
112,8,23,Ticks_Phase_5,111,5,42,127,874363312
112,8,23,Ticks_Phase_5,112,1,48,51,874821644
112,8,23,Ticks_Phase_5,113,5,42,127,874863076
112,8,23,Ticks_Phase_5,114,1,48,52,875304396
112,8,23,Ticks_Phase_5,115,5,42,127,875362540
112,8,23,Ticks_Phase_5,116,1,48,48,875775104
112,8,23,Ticks_Phase_5,117,5,42,127,875863352
112,8,23,Ticks_Phase_5,118,1,48,49,876296880
112,8,23,Ticks_Phase_5,119,5,42,127,876363188
112,8,23,Ticks_Phase_5,120,1,48,40,876794772
112,8,23,Ticks_Phase_5,121,5,42,127,876863024
112,8,23,Ticks_Phase_5,122,1,48,56,877277240
112,8,23,Ticks_Phase_5,123,5,42,127,877362640
112,8,23,Ticks_Phase_5,124,1,48,61,877786808
112,8,23,Ticks_Phase_5,125,5,42,127,877882844
112,8,23,Ticks_Phase_5,126,1,48,53,878300364
112,8,23,Ticks_Phase_5,127,5,42,127,878382384
112,8,23,Ticks_Phase_5,128,1,48,55,878816740
112,8,23,Ticks_Phase_5,129,5,42,127,878883196
112,8,23,Ticks_Phase_5,130,1,48,42,879313880
112,8,23,Ticks_Phase_5,131,5,42,127,879382956
112,8,23,Ticks_Phase_5,132,1,48,49,879814096
112,8,23,Ticks_Phase_5,133,5,42,127,879882720
112,8,23,Ticks_Phase_5,134,1,48,46,880343736
112,8,23,Ticks_Phase_5,135,5,42,127,880383232
112,8,23,Ticks_Phase_5,136,1,48,56,880816516
112,8,23,Ticks_Phase_5,137,5,42,127,880882996
112,8,23,Ticks_Phase_5,138,1,48,50,881328708
112,8,23,Ticks_Phase_5,139,5,42,127,881382832
112,8,23,Ticks_Phase_5,140,1,48,43,881831696
112,8,23,Ticks_Phase_5,141,5,42,127,881882596
112,8,23,Ticks_Phase_5,142,1,48,51,882324040
112,8,23,Ticks_Phase_5,143,5,42,127,882383256
112,8,23,Ticks_Phase_5,144,1,48,45,882804556
112,8,23,Ticks_Phase_5,145,5,42,127,882882868
112,8,23,Ticks_Phase_5,146,1,48,54,883336892
112,8,23,Ticks_Phase_5,147,5,42,127,883382756
112,8,23,Ticks_Phase_5,148,1,48,54,883836280
112,8,23,Ticks_Phase_5,149,5,42,127,883883416
112,8,23,Ticks_Phase_5,150,1,48,51,884312608
112,8,23,Ticks_Phase_5,151,5,42,127,884383028
112,8,23,Ticks_Phase_5,152,1,48,53,884776568
112,8,23,Ticks_Phase_5,153,5,42,127,884883000
112,8,23,Ticks_Phase_5,154,1,48,46,885239188
112,8,23,Ticks_Phase_5,155,5,42,127,885382836
112,8,23,Ticks_Phase_5,156,1,48,60,885797216
112,8,23,Ticks_Phase_5,157,5,42,127,885883292
112,8,23,Ticks_Phase_5,158,5,42,127,886362472
112,8,23,Ticks_Phase_5,159,1,48,46,886382892
112,8,23,Ticks_Phase_5,160,5,42,127,886863280
112,8,23,Ticks_Phase_5,161,1,48,45,886875908
112,8,23,Ticks_Phase_5,162,1,48,42,887362820
112,8,23,Ticks_Phase_5,163,5,42,127,887364156
112,8,23,Ticks_Phase_5,164,1,48,48,887829964
112,8,23,Ticks_Phase_5,165,5,42,127,887862576
112,8,23,Ticks_Phase_5,166,1,48,59,888336844
112,8,23,Ticks_Phase_5,167,5,42,127,888363308
112,8,23,Ticks_Phase_5,168,1,48,60,888797884
112,8,23,Ticks_Phase_5,169,5,42,127,888863220
112,8,23,Ticks_Phase_5,170,1,48,51,889318392
112,8,23,Ticks_Phase_5,171,5,42,127,889362760
112,8,23,Ticks_Phase_5,172,1,48,56,889862000
112,8,23,Ticks_Phase_5,173,5,42,127,889863644
112,8,23,Ticks_Phase_5,174,1,48,50,890353868
112,8,23,Ticks_Phase_5,175,5,42,127,890363108
112,8,23,Ticks_Phase_5,176,1,48,48,890811924
112,8,23,Ticks_Phase_5,177,5,42,127,890862872
112,8,23,Ticks_Phase_5,178,1,48,41,891332572
112,8,23,Ticks_Phase_5,179,5,42,127,891362784
112,8,23,Ticks_Phase_5,180,1,48,46,891808492
112,8,23,Ticks_Phase_5,181,5,42,127,891863292
112,8,23,Ticks_Phase_5,182,1,48,54,892340616
112,8,23,Ticks_Phase_5,183,5,42,127,892363204
112,8,23,Ticks_Phase_5,184,1,48,41,892816780
112,8,23,Ticks_Phase_5,185,5,42,127,892862892
112,8,23,Ticks_Phase_5,186,1,48,52,893326356
112,8,23,Ticks_Phase_5,187,5,42,127,893362632
112,8,23,Ticks_Phase_5,188,1,48,51,893833908
112,8,23,Ticks_Phase_5,189,5,42,127,893863216
112,8,23,Ticks_Phase_5,190,5,42,127,894312816
112,8,23,Ticks_Phase_5,191,1,48,66,894366552
112,8,23,Ticks_Phase_5,192,1,48,68,894778612
112,8,23,Ticks_Phase_5,193,5,42,127,894812644
112,8,23,Ticks_Phase_5,194,1,48,57,895288932
112,8,23,Ticks_Phase_5,195,5,42,127,895313452
112,8,23,Ticks_Phase_5,196,1,48,59,895723028
112,8,23,Ticks_Phase_5,197,5,42,127,895812992
112,8,23,Ticks_Phase_5,198,1,48,50,896217168
112,8,23,Ticks_Phase_5,199,5,42,127,896312752
112,8,23,Ticks_Phase_5,200,5,42,127,896813420
112,8,23,Ticks_Phase_5,201,1,48,51,896890076
112,8,23,Ticks_Phase_5,202,5,42,127,897323516
112,8,23,Ticks_Phase_5,203,1,48,60,897386700
112,8,23,Ticks_Phase_5,204,5,42,127,897822980
112,8,23,Ticks_Phase_5,205,1,48,58,897878888
112,8,23,Ticks_Phase_5,206,5,42,127,898322820
112,8,23,Ticks_Phase_5,207,1,48,51,898330740
112,8,23,Ticks_Phase_5,208,1,48,59,898798880
112,8,23,Ticks_Phase_5,209,5,42,127,898822724
112,8,23,Ticks_Phase_5,210,1,48,57,899280068
112,8,23,Ticks_Phase_5,211,5,42,127,899323236
112,8,23,Ticks_Phase_5,212,1,48,62,899763264
112,8,23,Ticks_Phase_5,213,5,42,127,899823000
112,8,23,Ticks_Phase_5,214,1,48,56,900267812
112,8,23,Ticks_Phase_5,215,5,42,127,900322836
112,8,23,Ticks_Phase_5,216,1,48,54,900756496
112,8,23,Ticks_Phase_5,217,5,42,127,900823496
112,8,23,Ticks_Phase_5,218,1,48,48,901231544
112,8,23,Ticks_Phase_5,219,5,42,127,901323108
112,8,23,Ticks_Phase_5,220,1,48,54,901746652
112,8,23,Ticks_Phase_5,221,5,42,127,901822796
112,8,23,Ticks_Phase_5,222,1,48,59,902267164
112,8,23,Ticks_Phase_5,223,5,42,127,902322608
112,8,23,Ticks_Phase_5,224,1,48,51,902754792
112,8,23,Ticks_Phase_5,225,5,42,127,902872632
112,8,23,Ticks_Phase_5,226,1,48,50,903306076
112,8,23,Ticks_Phase_5,227,5,42,127,903373084
112,8,23,Ticks_Phase_5,228,1,48,54,903819164
112,8,23,Ticks_Phase_5,229,5,42,127,903872772
112,8,23,Ticks_Phase_5,230,1,48,66,904330012
112,8,23,Ticks_Phase_5,231,5,42,127,904372584
112,8,23,Ticks_Phase_5,232,1,48,51,904818244
112,8,23,Ticks_Phase_5,233,5,42,127,904873244
112,8,23,Ticks_Phase_5,234,1,48,51,905359720
112,8,23,Ticks_Phase_5,235,5,42,127,905372932
112,8,23,Ticks_Phase_5,236,1,48,54,905858656
112,8,23,Ticks_Phase_5,237,5,42,127,905872696
112,8,23,Ticks_Phase_5,238,1,48,40,906359464
112,8,23,Ticks_Phase_5,239,5,42,127,906372680
112,8,23,Ticks_Phase_5,240,1,48,37,906849044
112,8,23,Ticks_Phase_5,241,5,42,127,906873268
112,8,23,Ticks_Phase_5,242,1,48,41,907362672
112,8,23,Ticks_Phase_5,243,5,42,127,907372808
112,8,23,Ticks_Phase_5,244,5,42,127,907872652
112,8,23,Ticks_Phase_5,245,1,48,46,907879960
112,8,23,Ticks_Phase_5,246,1,48,59,908334780
112,8,23,Ticks_Phase_5,247,5,42,127,908373748
112,8,23,Ticks_Phase_5,248,1,48,42,908837388
112,8,23,Ticks_Phase_5,249,5,42,127,908872992
112,8,23,Ticks_Phase_5,250,1,48,46,909331168
112,8,23,Ticks_Phase_5,251,5,42,127,909372680
112,8,23,Ticks_Phase_5,252,1,48,52,909831304
112,8,23,Ticks_Phase_5,253,5,42,127,909872592
112,8,23,Ticks_Phase_5,254,1,48,50,910325592
112,8,23,Ticks_Phase_5,255,5,42,127,910373104
112,8,23,Ticks_Phase_5,256,1,48,44,910803640
112,8,23,Ticks_Phase_5,257,5,42,127,910872868
112,8,23,Ticks_Phase_5,258,1,48,42,911321308
112,8,23,Ticks_Phase_5,259,5,42,127,911472888
112,8,23,Ticks_Phase_5,260,1,48,40,911891912
112,8,23,Ticks_Phase_5,261,5,42,127,911972816
112,8,23,Ticks_Phase_5,262,5,42,127,912472660
112,8,23,Ticks_Phase_5,263,1,48,44,912508652
112,8,23,Ticks_Phase_5,264,5,42,127,912973096
112,8,23,Ticks_Phase_5,265,1,48,49,913035900
112,8,23,Ticks_Phase_5,266,1,48,40,913442420
112,8,23,Ticks_Phase_5,267,5,42,127,913472852
112,8,23,Ticks_Phase_5,268,1,48,48,913912824
112,8,23,Ticks_Phase_5,269,5,42,127,913972688
112,8,23,Ticks_Phase_5,270,1,48,52,914360920
112,8,23,Ticks_Phase_5,271,5,42,127,914473260
112,8,23,Ticks_Phase_5,272,1,48,48,914824108
112,8,23,Ticks_Phase_5,273,5,42,127,914973100
112,8,23,Ticks_Phase_5,274,5,42,127,915472660
112,8,23,Ticks_Phase_5,275,1,48,51,915478244
112,8,23,Ticks_Phase_5,276,5,42,127,915972720
112,8,23,Ticks_Phase_5,277,1,48,47,916047428
112,8,23,Ticks_Phase_5,278,5,42,127,916473232
112,8,23,Ticks_Phase_5,279,1,48,55,916547720
112,8,23,Ticks_Phase_5,280,5,42,127,916972844
112,8,23,Ticks_Phase_5,281,1,48,54,917060280
112,8,23,Ticks_Phase_5,282,5,42,127,917472608
112,8,23,Ticks_Phase_5,283,1,48,48,917508600
112,8,23,Ticks_Phase_5,284,5,42,127,917973488
112,8,23,Ticks_Phase_5,285,1,48,56,917988368
112,8,23,Ticks_Phase_5,286,5,42,127,918473028
112,8,23,Ticks_Phase_5,287,1,48,54,918474588
112,8,23,Ticks_Phase_5,288,1,48,55,918969608
112,8,23,Ticks_Phase_5,289,5,42,127,918972712
112,8,23,Ticks_Phase_5,290,1,48,37,919464108
112,8,23,Ticks_Phase_5,291,5,42,127,919472596
112,8,23,Ticks_Phase_5,292,1,48,54,919924256
112,8,23,Ticks_Phase_5,293,5,42,127,919973332
112,8,23,Ticks_Phase_5,294,1,48,49,920430912
112,8,23,Ticks_Phase_5,295,5,42,127,920473024
112,8,23,Ticks_Phase_5,296,5,42,127,920873492
112,8,23,Ticks_Phase_5,297,1,48,52,920905968
112,8,23,Ticks_Phase_5,298,5,42,127,921373180
112,8,23,Ticks_Phase_5,299,1,48,55,921394356
112,8,23,Ticks_Phase_5,300,1,48,54,921821248
112,8,23,Ticks_Phase_5,301,5,42,127,921872716
112,8,23,Ticks_Phase_5,302,1,48,45,922280084
112,8,23,Ticks_Phase_5,303,5,42,127,922372628
112,8,23,Ticks_Phase_5,304,1,48,45,922799916
112,8,23,Ticks_Phase_5,305,5,42,127,922873216
112,8,23,Ticks_Phase_5,306,1,48,49,923320980
112,8,23,Ticks_Phase_5,307,5,42,127,923372904
112,8,23,Ticks_Phase_5,308,1,48,44,923868140
112,8,23,Ticks_Phase_5,309,5,42,127,923872816
112,8,23,Ticks_Phase_5,310,5,42,127,924373336
112,8,23,Ticks_Phase_5,311,1,48,53,924382148
112,8,23,Ticks_Phase_5,312,5,42,127,924873024
112,8,23,Ticks_Phase_5,313,1,48,52,924875540
112,8,23,Ticks_Phase_5,314,1,48,58,925364936
112,8,23,Ticks_Phase_5,315,5,42,127,925372780
112,8,23,Ticks_Phase_5,316,1,48,51,925840432
112,8,23,Ticks_Phase_5,317,5,42,127,925872592
112,8,23,Ticks_Phase_5,318,1,48,47,926320724
112,8,23,Ticks_Phase_5,319,5,42,127,926373404
112,8,23,Ticks_Phase_5,320,5,42,127,926872876
112,8,23,Ticks_Phase_5,321,1,48,30,926879508
112,8,23,Ticks_Phase_5,322,1,48,60,927320336
112,8,23,Ticks_Phase_5,323,5,42,127,927372628
112,8,23,Ticks_Phase_5,324,1,48,43,927840692
112,8,23,Ticks_Phase_5,325,5,42,127,927873512
112,8,23,Ticks_Phase_5,326,1,48,43,928340440
112,8,23,Ticks_Phase_5,327,5,42,127,928372976
112,8,23,Ticks_Phase_5,328,1,48,45,928834668
112,8,23,Ticks_Phase_5,329,5,42,127,928872888
112,8,23,Ticks_Phase_5,330,1,48,53,929319520
112,8,23,Ticks_Phase_5,331,5,42,127,929372504
112,8,23,Ticks_Phase_5,332,1,48,46,929813372
112,8,23,Ticks_Phase_5,333,5,42,127,929873460
112,8,23,Ticks_Phase_5,334,1,48,44,930319500
112,8,23,Ticks_Phase_5,335,5,42,127,930373076
112,8,23,Ticks_Phase_5,0,9999,9999,9999,845850744
112,8,23,Ticks_Phase_5,1,9999,9999,9999,846350452
112,8,23,Ticks_Phase_5,2,9999,9999,9999,846850164
112,8,23,Ticks_Phase_5,3,9999,9999,9999,847350844
112,8,23,Ticks_Phase_5,4,9999,9999,9999,847850556
112,8,23,Ticks_Phase_5,5,9999,9999,9999,848350316
112,8,23,Ticks_Phase_5,6,9999,9999,9999,848851052
112,8,23,Ticks_Phase_5,7,9999,9999,9999,849350744
112,8,23,Ticks_Phase_5,8,9999,9999,9999,849850432
112,8,23,Ticks_Phase_5,9,9999,9999,9999,850350168
112,8,23,Ticks_Phase_5,10,9999,9999,9999,850850904
112,8,23,Ticks_Phase_5,11,9999,9999,9999,851350592
112,8,23,Ticks_Phase_5,12,9999,9999,9999,851850356
112,8,23,Ticks_Phase_5,13,9999,9999,9999,852351092
112,8,23,Ticks_Phase_5,14,9999,9999,9999,852850780
112,8,23,Ticks_Phase_5,15,9999,9999,9999,853350464
112,8,23,Ticks_Phase_5,16,9999,9999,9999,853850228
112,8,23,Ticks_Phase_5,17,9999,9999,9999,854350908
112,8,23,Ticks_Phase_5,18,9999,9999,9999,854850648
112,8,23,Ticks_Phase_5,19,9999,9999,9999,855350336
112,8,23,Ticks_Phase_5,20,9999,9999,9999,855851072
112,8,23,Ticks_Phase_5,21,9999,9999,9999,856361020
112,8,23,Ticks_Phase_5,22,9999,9999,9999,856860780
112,8,23,Ticks_Phase_5,23,9999,9999,9999,857360472
112,8,23,Ticks_Phase_5,24,9999,9999,9999,857860156
112,8,23,Ticks_Phase_5,25,9999,9999,9999,858360892
112,8,23,Ticks_Phase_5,26,9999,9999,9999,858860656
112,8,23,Ticks_Phase_5,27,9999,9999,9999,859360344
112,8,23,Ticks_Phase_5,28,9999,9999,9999,859861080
112,8,23,Ticks_Phase_5,29,9999,9999,9999,860360764
112,8,23,Ticks_Phase_5,30,9999,9999,9999,860850244
112,8,23,Ticks_Phase_5,31,9999,9999,9999,861350980
112,8,23,Ticks_Phase_5,32,9999,9999,9999,861850748
112,8,23,Ticks_Phase_5,33,9999,9999,9999,862350432
112,8,23,Ticks_Phase_5,34,9999,9999,9999,862850120
112,8,23,Ticks_Phase_5,35,9999,9999,9999,863350852
112,8,23,Ticks_Phase_5,36,9999,9999,9999,863850616
112,8,23,Ticks_Phase_5,37,9999,9999,9999,864350304
112,8,23,Ticks_Phase_5,38,9999,9999,9999,864851040
112,8,23,Ticks_Phase_5,39,9999,9999,9999,865350728
112,8,23,Ticks_Phase_5,40,9999,9999,9999,865850492
112,8,23,Ticks_Phase_5,41,9999,9999,9999,866350180
112,8,23,Ticks_Phase_5,42,9999,9999,9999,866850916
112,8,23,Ticks_Phase_5,43,9999,9999,9999,867350604
112,8,23,Ticks_Phase_5,44,9999,9999,9999,867850364
112,8,23,Ticks_Phase_5,45,9999,9999,9999,868351100
112,8,23,Ticks_Phase_5,46,9999,9999,9999,868850780
112,8,23,Ticks_Phase_5,47,9999,9999,9999,869350468
112,8,23,Ticks_Phase_5,48,9999,9999,9999,869860416
112,8,23,Ticks_Phase_5,49,9999,9999,9999,870360180
112,8,23,Ticks_Phase_5,50,9999,9999,9999,870860916
112,8,23,Ticks_Phase_5,51,9999,9999,9999,871360604
112,8,23,Ticks_Phase_5,52,9999,9999,9999,871860344
112,8,23,Ticks_Phase_5,53,9999,9999,9999,872361076
112,8,23,Ticks_Phase_5,54,9999,9999,9999,872860764
112,8,23,Ticks_Phase_5,55,9999,9999,9999,873360440
112,8,23,Ticks_Phase_5,56,9999,9999,9999,873860204
112,8,23,Ticks_Phase_5,57,9999,9999,9999,874360952
112,8,23,Ticks_Phase_5,58,9999,9999,9999,874860640
112,8,23,Ticks_Phase_5,59,9999,9999,9999,875360328
112,8,23,Ticks_Phase_5,60,9999,9999,9999,875861064
112,8,23,Ticks_Phase_5,61,9999,9999,9999,876360824
112,8,23,Ticks_Phase_5,62,9999,9999,9999,876860516
112,8,23,Ticks_Phase_5,63,9999,9999,9999,877360204
112,8,23,Ticks_Phase_5,64,9999,9999,9999,877880408
112,8,23,Ticks_Phase_5,65,9999,9999,9999,878380100
112,8,23,Ticks_Phase_5,66,9999,9999,9999,878880832
112,8,23,Ticks_Phase_5,67,9999,9999,9999,879380596
112,8,23,Ticks_Phase_5,68,9999,9999,9999,879880284
112,8,23,Ticks_Phase_5,69,9999,9999,9999,880381020
112,8,23,Ticks_Phase_5,70,9999,9999,9999,880880708
112,8,23,Ticks_Phase_5,71,9999,9999,9999,881380472
112,8,23,Ticks_Phase_5,72,9999,9999,9999,881880160
112,8,23,Ticks_Phase_5,73,9999,9999,9999,882380896
112,8,23,Ticks_Phase_5,74,9999,9999,9999,882880584
112,8,23,Ticks_Phase_5,75,9999,9999,9999,883380320
112,8,23,Ticks_Phase_5,76,9999,9999,9999,883881056
112,8,23,Ticks_Phase_5,77,9999,9999,9999,884380744
112,8,23,Ticks_Phase_5,78,9999,9999,9999,884880492
112,8,23,Ticks_Phase_5,79,9999,9999,9999,885380180
112,8,23,Ticks_Phase_5,80,9999,9999,9999,885880928
112,8,23,Ticks_Phase_5,81,9999,9999,9999,886360184
112,8,23,Ticks_Phase_5,82,9999,9999,9999,886860916
112,8,23,Ticks_Phase_5,83,9999,9999,9999,887360604
112,8,23,Ticks_Phase_5,84,9999,9999,9999,887860288
112,8,23,Ticks_Phase_5,85,9999,9999,9999,888361020
112,8,23,Ticks_Phase_5,86,9999,9999,9999,888860784
112,8,23,Ticks_Phase_5,87,9999,9999,9999,889360472
112,8,23,Ticks_Phase_5,88,9999,9999,9999,889860168
112,8,23,Ticks_Phase_5,89,9999,9999,9999,890360896
112,8,23,Ticks_Phase_5,90,9999,9999,9999,890860660
112,8,23,Ticks_Phase_5,91,9999,9999,9999,891360348
112,8,23,Ticks_Phase_5,92,9999,9999,9999,891861080
112,8,23,Ticks_Phase_5,93,9999,9999,9999,892360768
112,8,23,Ticks_Phase_5,94,9999,9999,9999,892860532
112,8,23,Ticks_Phase_5,95,9999,9999,9999,893360196
112,8,23,Ticks_Phase_5,96,9999,9999,9999,893860928
112,8,23,Ticks_Phase_5,97,9999,9999,9999,894310528
112,8,23,Ticks_Phase_5,98,9999,9999,9999,894810208
112,8,23,Ticks_Phase_5,99,9999,9999,9999,895310944
112,8,23,Ticks_Phase_5,100,9999,9999,9999,895810632
112,8,23,Ticks_Phase_5,101,9999,9999,9999,896310392
112,8,23,Ticks_Phase_5,102,9999,9999,9999,896811136
112,8,23,Ticks_Phase_5,103,9999,9999,9999,897321080
112,8,23,Ticks_Phase_5,104,9999,9999,9999,897820768
112,8,23,Ticks_Phase_5,105,9999,9999,9999,898320456
112,8,23,Ticks_Phase_5,106,9999,9999,9999,898820216
112,8,23,Ticks_Phase_5,107,9999,9999,9999,899320952
112,8,23,Ticks_Phase_5,108,9999,9999,9999,899820640
112,8,23,Ticks_Phase_5,109,9999,9999,9999,900320328
112,8,23,Ticks_Phase_5,110,9999,9999,9999,900821060
112,8,23,Ticks_Phase_5,111,9999,9999,9999,901320824
112,8,23,Ticks_Phase_5,112,9999,9999,9999,901820508
112,8,23,Ticks_Phase_5,113,9999,9999,9999,902320248
112,8,23,Ticks_Phase_5,114,9999,9999,9999,902870120
112,8,23,Ticks_Phase_5,115,9999,9999,9999,903370872
112,8,23,Ticks_Phase_5,116,9999,9999,9999,903870560
112,8,23,Ticks_Phase_5,117,9999,9999,9999,904370296
112,8,23,Ticks_Phase_5,118,9999,9999,9999,904871032
112,8,23,Ticks_Phase_5,119,9999,9999,9999,905370720
112,8,23,Ticks_Phase_5,120,9999,9999,9999,905870408
112,8,23,Ticks_Phase_5,121,9999,9999,9999,906370172
112,8,23,Ticks_Phase_5,122,9999,9999,9999,906870908
112,8,23,Ticks_Phase_5,123,9999,9999,9999,907370596
112,8,23,Ticks_Phase_5,124,9999,9999,9999,907870292
112,8,23,Ticks_Phase_5,125,9999,9999,9999,908371016
112,8,23,Ticks_Phase_5,126,9999,9999,9999,908870780
112,8,23,Ticks_Phase_5,127,9999,9999,9999,909370468
112,8,23,Ticks_Phase_5,128,9999,9999,9999,909870156
112,8,23,Ticks_Phase_5,129,9999,9999,9999,910370892
112,8,23,Ticks_Phase_5,130,9999,9999,9999,910870652
112,8,23,Ticks_Phase_5,131,9999,9999,9999,911470676
112,8,23,Ticks_Phase_5,132,9999,9999,9999,911970380
112,8,23,Ticks_Phase_5,133,9999,9999,9999,912470076
112,8,23,Ticks_Phase_5,134,9999,9999,9999,912970808
112,8,23,Ticks_Phase_5,135,9999,9999,9999,913470564
112,8,23,Ticks_Phase_5,136,9999,9999,9999,913970252
112,8,23,Ticks_Phase_5,137,9999,9999,9999,914470976
112,8,23,Ticks_Phase_5,138,9999,9999,9999,914970736
112,8,23,Ticks_Phase_5,139,9999,9999,9999,915470448
112,8,23,Ticks_Phase_5,140,9999,9999,9999,915970136
112,8,23,Ticks_Phase_5,141,9999,9999,9999,916470868
112,8,23,Ticks_Phase_5,142,9999,9999,9999,916970556
112,8,23,Ticks_Phase_5,143,9999,9999,9999,917470320
112,8,23,Ticks_Phase_5,144,9999,9999,9999,917971056
112,8,23,Ticks_Phase_5,145,9999,9999,9999,918470744
112,8,23,Ticks_Phase_5,146,9999,9999,9999,918970424
112,8,23,Ticks_Phase_5,147,9999,9999,9999,919470160
112,8,23,Ticks_Phase_5,148,9999,9999,9999,919970900
112,8,23,Ticks_Phase_5,149,9999,9999,9999,920470588
112,8,23,Ticks_Phase_5,150,9999,9999,9999,920870980
112,8,23,Ticks_Phase_5,151,9999,9999,9999,921370744
112,8,23,Ticks_Phase_5,152,9999,9999,9999,921870428
112,8,23,Ticks_Phase_5,153,9999,9999,9999,922370120
112,8,23,Ticks_Phase_5,154,9999,9999,9999,922870852
112,8,23,Ticks_Phase_5,155,9999,9999,9999,923370616
112,8,23,Ticks_Phase_5,156,9999,9999,9999,923870308
112,8,23,Ticks_Phase_5,157,9999,9999,9999,924371048
112,8,23,Ticks_Phase_5,158,9999,9999,9999,924870736
112,8,23,Ticks_Phase_5,159,9999,9999,9999,925370492
112,8,23,Ticks_Phase_5,160,9999,9999,9999,925870156
112,8,23,Ticks_Phase_5,161,9999,9999,9999,926370892
112,8,23,Ticks_Phase_5,162,9999,9999,9999,926870588
112,8,23,Ticks_Phase_5,163,9999,9999,9999,927370344
112,8,23,Ticks_Phase_5,164,9999,9999,9999,927871076
112,8,23,Ticks_Phase_5,165,9999,9999,9999,928370764
112,8,23,Ticks_Phase_5,166,9999,9999,9999,928870452
112,8,23,Ticks_Phase_5,167,9999,9999,9999,929370216
112,8,23,Ticks_Phase_5,168,9999,9999,9999,929870952
112,8,23,Ticks_Phase_5,169,9999,9999,9999,930370640
112,9,20,Ticks_Linear_8,0,5,42,127,940826868
112,9,20,Ticks_Linear_8,1,5,42,127,941647656
112,9,20,Ticks_Linear_8,2,5,42,127,942466352
112,9,20,Ticks_Linear_8,3,5,42,127,943286936
112,9,20,Ticks_Linear_8,4,1,48,49,944098620
112,9,20,Ticks_Linear_8,5,5,42,127,944106824
112,9,20,Ticks_Linear_8,6,1,48,56,944893688
112,9,20,Ticks_Linear_8,7,5,42,127,944916804
112,9,20,Ticks_Linear_8,8,1,48,47,945699708
112,9,20,Ticks_Linear_8,9,5,42,127,945726788
112,9,20,Ticks_Linear_8,10,1,48,41,946435708
112,9,20,Ticks_Linear_8,11,5,42,127,946536828
112,9,20,Ticks_Linear_8,12,5,42,127,947346684
112,9,20,Ticks_Linear_8,13,1,48,47,948066704
112,9,20,Ticks_Linear_8,14,5,42,127,948156932
112,9,20,Ticks_Linear_8,15,5,42,127,948956440
112,9,20,Ticks_Linear_8,16,1,48,44,949017372
112,9,20,Ticks_Linear_8,17,1,48,39,949754160
112,9,20,Ticks_Linear_8,18,5,42,127,949757352
112,9,20,Ticks_Linear_8,19,1,48,46,950478032
112,9,20,Ticks_Linear_8,20,5,42,127,950557152
112,9,20,Ticks_Linear_8,21,1,48,41,951296480
112,9,20,Ticks_Linear_8,22,5,42,127,951356876
112,9,20,Ticks_Linear_8,23,1,48,47,952067220
112,9,20,Ticks_Linear_8,24,5,42,127,952156524
112,9,20,Ticks_Linear_8,25,1,48,57,952839152
112,9,20,Ticks_Linear_8,26,5,42,127,952947096
112,9,20,Ticks_Linear_8,27,1,48,50,953638580
112,9,20,Ticks_Linear_8,28,5,42,127,953736488
112,9,20,Ticks_Linear_8,29,1,48,50,954494684
112,9,20,Ticks_Linear_8,30,5,42,127,954527236
112,9,20,Ticks_Linear_8,31,1,48,42,955262584
112,9,20,Ticks_Linear_8,32,5,42,127,955316480
112,9,20,Ticks_Linear_8,33,1,48,41,956040296
112,9,20,Ticks_Linear_8,34,5,42,127,956107236
112,9,20,Ticks_Linear_8,35,1,48,42,956858168
112,9,20,Ticks_Linear_8,36,5,42,127,956887416
112,9,20,Ticks_Linear_8,37,1,48,51,957634072
112,9,20,Ticks_Linear_8,38,5,42,127,957666548
112,9,20,Ticks_Linear_8,39,1,48,53,958414176
112,9,20,Ticks_Linear_8,40,5,42,127,958447100
112,9,20,Ticks_Linear_8,41,1,48,39,959214648
112,9,20,Ticks_Linear_8,42,5,42,127,959227276
112,9,20,Ticks_Linear_8,43,1,48,53,959990188
112,9,20,Ticks_Linear_8,44,5,42,127,960006556
112,9,20,Ticks_Linear_8,45,1,48,52,960714268
112,9,20,Ticks_Linear_8,46,5,42,127,960776552
112,9,20,Ticks_Linear_8,47,1,48,50,961509584
112,9,20,Ticks_Linear_8,48,5,42,127,961546472
112,9,20,Ticks_Linear_8,49,1,48,49,962310360
112,9,20,Ticks_Linear_8,50,5,42,127,962316764
112,9,20,Ticks_Linear_8,51,1,48,48,963073676
112,9,20,Ticks_Linear_8,52,5,42,127,963086832
112,9,20,Ticks_Linear_8,53,5,42,127,963857132
112,9,20,Ticks_Linear_8,54,1,48,56,963859508
112,9,20,Ticks_Linear_8,55,1,48,54,964556236
112,9,20,Ticks_Linear_8,56,5,42,127,964616564
112,9,20,Ticks_Linear_8,57,1,48,48,965309224
112,9,20,Ticks_Linear_8,58,5,42,127,965377416
112,9,20,Ticks_Linear_8,59,1,48,65,966108208
112,9,20,Ticks_Linear_8,60,5,42,127,966137228
112,9,20,Ticks_Linear_8,61,1,48,49,966894360
112,9,20,Ticks_Linear_8,62,5,42,127,966897036
112,9,20,Ticks_Linear_8,63,1,48,59,967604276
112,9,20,Ticks_Linear_8,64,5,42,127,967656920
112,9,20,Ticks_Linear_8,65,1,48,48,968399088
112,9,20,Ticks_Linear_8,66,5,42,127,968407368
112,9,20,Ticks_Linear_8,67,5,42,127,969157000
112,9,20,Ticks_Linear_8,68,1,48,36,969198016
112,9,20,Ticks_Linear_8,69,5,42,127,969906524
112,9,20,Ticks_Linear_8,70,1,48,58,969913704
112,9,20,Ticks_Linear_8,71,1,48,57,970600004
112,9,20,Ticks_Linear_8,72,5,42,127,970657116
112,9,20,Ticks_Linear_8,73,1,48,60,971382056
112,9,20,Ticks_Linear_8,74,5,42,127,971406664
112,9,20,Ticks_Linear_8,75,1,48,57,972141116
112,9,20,Ticks_Linear_8,76,5,42,127,972147076
112,9,20,Ticks_Linear_8,77,1,48,50,972836004
112,9,20,Ticks_Linear_8,78,5,42,127,972887340
112,9,20,Ticks_Linear_8,79,1,48,54,973558436
112,9,20,Ticks_Linear_8,80,5,42,127,973627000
112,9,20,Ticks_Linear_8,81,1,48,50,974315176
112,9,20,Ticks_Linear_8,82,5,42,127,974367112
112,9,20,Ticks_Linear_8,83,1,48,44,975038668
112,9,20,Ticks_Linear_8,84,5,42,127,975106408
112,9,20,Ticks_Linear_8,85,1,48,61,975760104
112,9,20,Ticks_Linear_8,86,5,42,127,975836484
112,9,20,Ticks_Linear_8,87,1,48,48,976487412
112,9,20,Ticks_Linear_8,88,5,42,127,976566932
112,9,20,Ticks_Linear_8,89,5,42,127,977296848
112,9,20,Ticks_Linear_8,90,1,48,52,977311796
112,9,20,Ticks_Linear_8,91,5,42,127,978026848
112,9,20,Ticks_Linear_8,92,1,48,55,978028712
112,9,20,Ticks_Linear_8,93,1,48,56,978754100
112,9,20,Ticks_Linear_8,94,5,42,127,978756996
112,9,20,Ticks_Linear_8,95,5,42,127,979476968
112,9,20,Ticks_Linear_8,96,1,48,42,979516488
112,9,20,Ticks_Linear_8,97,5,42,127,980196940
112,9,20,Ticks_Linear_8,98,1,48,46,980210916
112,9,20,Ticks_Linear_8,99,1,48,55,980879236
112,9,20,Ticks_Linear_8,100,5,42,127,980916576
112,9,20,Ticks_Linear_8,101,1,48,48,981534172
112,9,20,Ticks_Linear_8,102,5,42,127,981636432
112,9,20,Ticks_Linear_8,103,1,48,55,982310536
112,9,20,Ticks_Linear_8,104,5,42,127,982357312
112,9,20,Ticks_Linear_8,105,1,48,53,983048856
112,9,20,Ticks_Linear_8,106,5,42,127,983066872
112,9,20,Ticks_Linear_8,107,5,42,127,983776812
112,9,20,Ticks_Linear_8,108,1,48,52,983784416
112,9,20,Ticks_Linear_8,109,1,48,56,984480380
112,9,20,Ticks_Linear_8,110,5,42,127,984487240
112,9,20,Ticks_Linear_8,111,1,48,52,985173312
112,9,20,Ticks_Linear_8,112,5,42,127,985197024
112,9,20,Ticks_Linear_8,113,5,42,127,985906740
112,9,20,Ticks_Linear_8,114,1,48,43,985916300
112,9,20,Ticks_Linear_8,115,5,42,127,986607012
112,9,20,Ticks_Linear_8,116,1,48,51,986664640
112,9,20,Ticks_Linear_8,117,1,48,59,987264456
112,9,20,Ticks_Linear_8,118,5,42,127,987307480
112,9,20,Ticks_Linear_8,119,1,48,46,987960752
112,9,20,Ticks_Linear_8,120,5,42,127,988006852
112,9,20,Ticks_Linear_8,121,1,48,39,988697952
112,9,20,Ticks_Linear_8,122,5,42,127,988707056
112,9,20,Ticks_Linear_8,123,1,48,42,989403608
112,9,20,Ticks_Linear_8,124,5,42,127,989406804
112,9,20,Ticks_Linear_8,125,1,48,44,990093824
112,9,20,Ticks_Linear_8,126,5,42,127,990096940
112,9,20,Ticks_Linear_8,127,5,42,127,990786888
112,9,20,Ticks_Linear_8,128,1,48,31,990889232
112,9,20,Ticks_Linear_8,129,1,48,42,991458276
112,9,20,Ticks_Linear_8,130,5,42,127,991477044
112,9,20,Ticks_Linear_8,131,1,48,44,992166284
112,9,20,Ticks_Linear_8,132,5,42,127,992167852
112,9,20,Ticks_Linear_8,133,1,48,35,992777772
112,9,20,Ticks_Linear_8,134,5,42,127,992856448
112,9,20,Ticks_Linear_8,135,1,48,33,993445668
112,9,20,Ticks_Linear_8,136,5,42,127,993537324
112,9,20,Ticks_Linear_8,137,1,48,53,994131412
112,9,20,Ticks_Linear_8,138,5,42,127,994217276
112,9,20,Ticks_Linear_8,139,1,48,43,994866664
112,9,20,Ticks_Linear_8,140,5,42,127,994897328
112,9,20,Ticks_Linear_8,141,1,48,45,995553892
112,9,20,Ticks_Linear_8,142,5,42,127,995577156
112,9,20,Ticks_Linear_8,143,1,48,49,996204568
112,9,20,Ticks_Linear_8,144,5,42,127,996257260
112,9,20,Ticks_Linear_8,145,1,48,40,996926156
112,9,20,Ticks_Linear_8,146,5,42,127,996927804
112,9,20,Ticks_Linear_8,147,1,48,52,997550724
112,9,20,Ticks_Linear_8,148,5,42,127,997596700
112,9,20,Ticks_Linear_8,149,1,48,59,998263276
112,9,20,Ticks_Linear_8,150,5,42,127,998267220
112,9,20,Ticks_Linear_8,151,1,48,45,998857072
112,9,20,Ticks_Linear_8,152,5,42,127,998937012
112,9,20,Ticks_Linear_8,153,1,48,44,999534312
112,9,20,Ticks_Linear_8,154,5,42,127,999606808
112,9,20,Ticks_Linear_8,155,1,48,51,1000210708
112,9,20,Ticks_Linear_8,156,5,42,127,1000267288
112,9,20,Ticks_Linear_8,157,1,48,51,1000864664
112,9,20,Ticks_Linear_8,158,5,42,127,1000926748
112,9,20,Ticks_Linear_8,159,1,48,44,1001527132
112,9,20,Ticks_Linear_8,160,5,42,127,1001587008
112,9,20,Ticks_Linear_8,161,1,48,41,1002201488
112,9,20,Ticks_Linear_8,162,5,42,127,1002246768
112,9,20,Ticks_Linear_8,163,1,48,36,1002871556
112,9,20,Ticks_Linear_8,164,5,42,127,1002906952
112,9,20,Ticks_Linear_8,165,1,48,49,1003493192
112,9,20,Ticks_Linear_8,166,5,42,127,1003557124
112,9,20,Ticks_Linear_8,167,1,48,51,1004183860
112,9,20,Ticks_Linear_8,168,5,42,127,1004206600
112,9,20,Ticks_Linear_8,169,1,48,37,1004791572
112,9,20,Ticks_Linear_8,170,5,42,127,1004856700
112,9,20,Ticks_Linear_8,171,1,48,49,1005416644
112,9,20,Ticks_Linear_8,172,5,42,127,1005506796
112,9,20,Ticks_Linear_8,173,1,48,28,1006118264
112,9,20,Ticks_Linear_8,174,5,42,127,1006157172
112,9,20,Ticks_Linear_8,175,1,48,60,1006688580
112,9,20,Ticks_Linear_8,176,5,42,127,1006797140
112,9,20,Ticks_Linear_8,177,5,42,127,1007437128
112,9,20,Ticks_Linear_8,178,1,48,63,1007551924
112,9,20,Ticks_Linear_8,179,5,42,127,1008077192
112,9,20,Ticks_Linear_8,180,5,42,127,1008717176
112,9,20,Ticks_Linear_8,181,5,42,127,1009357264
112,9,20,Ticks_Linear_8,182,5,42,127,1009987060
112,9,20,Ticks_Linear_8,183,1,48,59,1010556084
112,9,20,Ticks_Linear_8,184,5,42,127,1010616808
112,9,20,Ticks_Linear_8,185,5,42,127,1011246668
112,9,20,Ticks_Linear_8,186,1,48,59,1011248008
112,9,20,Ticks_Linear_8,187,5,42,127,1011877272
112,9,20,Ticks_Linear_8,188,1,48,48,1011907524
112,9,20,Ticks_Linear_8,189,5,42,127,1012507004
112,9,20,Ticks_Linear_8,190,1,48,49,1012555504
112,9,20,Ticks_Linear_8,191,5,42,127,1013126672
112,9,20,Ticks_Linear_8,192,1,48,43,1013190396
112,9,20,Ticks_Linear_8,193,1,48,51,1013731932
112,9,20,Ticks_Linear_8,194,5,42,127,1013747180
112,9,20,Ticks_Linear_8,195,1,48,49,1014359548
112,9,20,Ticks_Linear_8,196,5,42,127,1014366628
112,9,20,Ticks_Linear_8,197,1,48,53,1014932256
112,9,20,Ticks_Linear_8,198,5,42,127,1014987072
112,9,20,Ticks_Linear_8,199,1,48,49,1015572464
112,9,20,Ticks_Linear_8,200,5,42,127,1015606520
112,9,20,Ticks_Linear_8,201,5,42,127,1016216980
112,9,20,Ticks_Linear_8,202,1,48,56,1016264596
112,9,20,Ticks_Linear_8,203,5,42,127,1016827388
112,9,20,Ticks_Linear_8,204,1,48,51,1016853268
112,9,20,Ticks_Linear_8,205,5,42,127,1017436500
112,9,20,Ticks_Linear_8,206,1,48,29,1017440740
112,9,20,Ticks_Linear_8,207,1,48,51,1018010212
112,9,20,Ticks_Linear_8,208,5,42,127,1018046900
112,9,20,Ticks_Linear_8,209,1,48,49,1018642184
112,9,20,Ticks_Linear_8,210,5,42,127,1018657060
112,9,20,Ticks_Linear_8,211,1,48,44,1019214152
112,9,20,Ticks_Linear_8,212,5,42,127,1019257332
112,9,20,Ticks_Linear_8,213,1,48,55,1019796836
112,9,20,Ticks_Linear_8,214,5,42,127,1019857480
112,9,20,Ticks_Linear_8,215,1,48,42,1020416232
112,9,20,Ticks_Linear_8,216,5,42,127,1020457308
112,9,20,Ticks_Linear_8,217,1,48,51,1021002340
112,9,20,Ticks_Linear_8,218,5,42,127,1021057504
112,9,20,Ticks_Linear_8,219,1,48,45,1021601872
112,9,20,Ticks_Linear_8,220,5,42,127,1021656532
112,9,20,Ticks_Linear_8,221,1,48,46,1022219396
112,9,20,Ticks_Linear_8,222,5,42,127,1022247220
112,9,20,Ticks_Linear_8,223,5,42,127,1022837388
112,9,20,Ticks_Linear_8,224,1,48,30,1022857736
112,9,20,Ticks_Linear_8,225,1,48,55,1023418768
112,9,20,Ticks_Linear_8,226,5,42,127,1023426896
112,9,20,Ticks_Linear_8,227,1,48,45,1024007364
112,9,20,Ticks_Linear_8,228,5,42,127,1024016688
112,9,20,Ticks_Linear_8,229,1,48,45,1024602084
112,9,20,Ticks_Linear_8,230,5,42,127,1024606480
112,9,20,Ticks_Linear_8,231,5,42,127,1025187288
112,9,20,Ticks_Linear_8,232,1,48,44,1025224812
112,9,20,Ticks_Linear_8,233,5,42,127,1025766768
112,9,20,Ticks_Linear_8,234,1,48,44,1025824024
112,9,20,Ticks_Linear_8,235,5,42,127,1026347420
112,9,20,Ticks_Linear_8,236,1,48,49,1026349060
112,9,20,Ticks_Linear_8,237,5,42,127,1026926952
112,9,20,Ticks_Linear_8,238,1,48,49,1026934628
112,9,20,Ticks_Linear_8,239,1,48,45,1027503656
112,9,20,Ticks_Linear_8,240,5,42,127,1027506700
112,9,20,Ticks_Linear_8,241,1,48,41,1028069416
112,9,20,Ticks_Linear_8,242,5,42,127,1028076868
112,9,20,Ticks_Linear_8,243,1,48,50,1028603780
112,9,20,Ticks_Linear_8,244,5,42,127,1028647412
112,9,20,Ticks_Linear_8,245,1,48,51,1029153356
112,9,20,Ticks_Linear_8,246,5,42,127,1029216536
112,9,20,Ticks_Linear_8,247,1,48,42,1029756412
112,9,20,Ticks_Linear_8,248,5,42,127,1029786856
112,9,20,Ticks_Linear_8,249,1,48,38,1030332516
112,9,20,Ticks_Linear_8,250,5,42,127,1030357496
112,9,20,Ticks_Linear_8,251,1,48,44,1030902084
112,9,20,Ticks_Linear_8,252,5,42,127,1030916436
112,9,20,Ticks_Linear_8,253,1,48,39,1031470680
112,9,20,Ticks_Linear_8,254,5,42,127,1031476568
112,9,20,Ticks_Linear_8,255,1,48,49,1032004912
112,9,20,Ticks_Linear_8,256,5,42,127,1032036704
112,9,20,Ticks_Linear_8,257,1,48,49,1032568040
112,9,20,Ticks_Linear_8,258,5,42,127,1032596836
112,9,20,Ticks_Linear_8,259,5,42,127,1033157076
112,9,20,Ticks_Linear_8,260,1,48,41,1033193064
112,9,20,Ticks_Linear_8,261,5,42,127,1033706728
112,9,20,Ticks_Linear_8,262,1,48,53,1033717116
112,9,20,Ticks_Linear_8,263,5,42,127,1034256828
112,9,20,Ticks_Linear_8,264,1,48,42,1034290724
112,9,20,Ticks_Linear_8,265,5,42,127,1034806628
112,9,20,Ticks_Linear_8,266,1,48,43,1034856252
112,9,20,Ticks_Linear_8,267,5,42,127,1035356500
112,9,20,Ticks_Linear_8,268,1,48,45,1035379684
112,9,20,Ticks_Linear_8,269,5,42,127,1035906376
112,9,20,Ticks_Linear_8,270,1,48,37,1035946120
112,9,20,Ticks_Linear_8,271,1,48,52,1036431036
112,9,20,Ticks_Linear_8,272,5,42,127,1036447328
112,9,20,Ticks_Linear_8,273,1,48,50,1036916288
112,9,20,Ticks_Linear_8,274,5,42,127,1036986820
112,9,20,Ticks_Linear_8,275,1,48,41,1037457700
112,9,20,Ticks_Linear_8,276,5,42,127,1037527408
112,9,20,Ticks_Linear_8,277,1,48,43,1038042712
112,9,20,Ticks_Linear_8,278,5,42,127,1038067248
112,9,20,Ticks_Linear_8,279,5,42,127,1038606724
112,9,20,Ticks_Linear_8,280,1,48,56,1038609768
112,9,20,Ticks_Linear_8,281,5,42,127,1039137424
112,9,20,Ticks_Linear_8,282,1,48,47,1039193036
112,9,20,Ticks_Linear_8,283,5,42,127,1039666412
112,9,20,Ticks_Linear_8,284,1,48,47,1039765308
112,9,20,Ticks_Linear_8,285,5,42,127,1040196960
112,9,20,Ticks_Linear_8,286,1,48,43,1040297732
112,9,20,Ticks_Linear_8,287,5,42,127,1040727288
112,9,20,Ticks_Linear_8,288,1,48,31,1040898852
112,9,20,Ticks_Linear_8,289,5,42,127,1041257168
112,9,20,Ticks_Linear_8,290,5,42,127,1041776960
112,9,20,Ticks_Linear_8,291,1,48,40,1042293252
112,9,20,Ticks_Linear_8,292,5,42,127,1042297196
112,9,20,Ticks_Linear_8,293,1,48,41,1042811156
112,9,20,Ticks_Linear_8,294,5,42,127,1042817412
112,9,20,Ticks_Linear_8,295,1,48,40,1043272508
112,9,20,Ticks_Linear_8,296,5,42,127,1043336584
112,9,20,Ticks_Linear_8,297,5,42,127,1043856736
112,9,20,Ticks_Linear_8,298,1,48,39,1043888464
112,9,20,Ticks_Linear_8,299,5,42,127,1044366620
112,9,20,Ticks_Linear_8,300,1,48,51,1044418216
112,9,20,Ticks_Linear_8,301,5,42,127,1044876804
112,9,20,Ticks_Linear_8,302,1,48,42,1044930268
112,9,20,Ticks_Linear_8,303,5,42,127,1045386764
112,9,20,Ticks_Linear_8,304,1,48,43,1045402084
112,9,20,Ticks_Linear_8,305,1,48,41,1045895968
112,9,20,Ticks_Linear_8,306,5,42,127,1045897464
112,9,20,Ticks_Linear_8,307,5,42,127,1046406460
112,9,20,Ticks_Linear_8,308,1,48,41,1046410172
112,9,20,Ticks_Linear_8,309,5,42,127,1046907208
112,9,20,Ticks_Linear_8,310,1,48,40,1047000884
112,9,20,Ticks_Linear_8,311,5,42,127,1047406908
112,9,20,Ticks_Linear_8,312,1,48,30,1047455408
112,9,20,Ticks_Linear_8,313,5,42,127,1047906608
112,9,20,Ticks_Linear_8,314,1,48,30,1047956232
112,9,20,Ticks_Linear_8,315,5,42,127,1048407428
112,9,20,Ticks_Linear_8,316,1,48,32,1048455032
112,9,20,Ticks_Linear_8,317,5,42,127,1048907276
112,9,20,Ticks_Linear_8,318,1,48,44,1048941700
112,9,20,Ticks_Linear_8,319,5,42,127,1049396568
112,9,20,Ticks_Linear_8,320,1,48,36,1049433160
112,9,20,Ticks_Linear_8,321,1,48,49,1049887500
112,9,20,Ticks_Linear_8,322,5,42,127,1049888688
112,9,20,Ticks_Linear_8,323,1,48,41,1050330912
112,9,20,Ticks_Linear_8,324,5,42,127,1050376492
112,9,20,Ticks_Linear_8,325,1,48,42,1050837212
112,9,20,Ticks_Linear_8,326,5,42,127,1050867204
112,9,20,Ticks_Linear_8,327,1,48,43,1051311564
112,9,20,Ticks_Linear_8,328,5,42,127,1051356420
112,9,20,Ticks_Linear_8,0,9999,9999,9999,940824644
112,9,20,Ticks_Linear_8,1,9999,9999,9999,941644908
112,9,20,Ticks_Linear_8,2,9999,9999,9999,942464124
112,9,20,Ticks_Linear_8,3,9999,9999,9999,943284312
112,9,20,Ticks_Linear_8,4,9999,9999,9999,944104520
112,9,20,Ticks_Linear_8,5,9999,9999,9999,944914504
112,9,20,Ticks_Linear_8,6,9999,9999,9999,945724488
112,9,20,Ticks_Linear_8,7,9999,9999,9999,946534452
112,9,20,Ticks_Linear_8,8,9999,9999,9999,947344460
112,9,20,Ticks_Linear_8,9,9999,9999,9999,948154484
112,9,20,Ticks_Linear_8,10,9999,9999,9999,948954212
112,9,20,Ticks_Linear_8,11,9999,9999,9999,949754980
112,9,20,Ticks_Linear_8,12,9999,9999,9999,950554700
112,9,20,Ticks_Linear_8,13,9999,9999,9999,951354424
112,9,20,Ticks_Linear_8,14,9999,9999,9999,952154224
112,9,20,Ticks_Linear_8,15,9999,9999,9999,952944720
112,9,20,Ticks_Linear_8,16,9999,9999,9999,953734260
112,9,20,Ticks_Linear_8,17,9999,9999,9999,954524788
112,9,20,Ticks_Linear_8,18,9999,9999,9999,955314252
112,9,20,Ticks_Linear_8,19,9999,9999,9999,956104788
112,9,20,Ticks_Linear_8,20,9999,9999,9999,956885116
112,9,20,Ticks_Linear_8,21,9999,9999,9999,957664324
112,9,20,Ticks_Linear_8,22,9999,9999,9999,958444648
112,9,20,Ticks_Linear_8,23,9999,9999,9999,959224900
112,9,20,Ticks_Linear_8,24,9999,9999,9999,960004180
112,9,20,Ticks_Linear_8,25,9999,9999,9999,960774252
112,9,20,Ticks_Linear_8,26,9999,9999,9999,961544244
112,9,20,Ticks_Linear_8,27,9999,9999,9999,962314316
112,9,20,Ticks_Linear_8,28,9999,9999,9999,963084384
112,9,20,Ticks_Linear_8,29,9999,9999,9999,963854456
112,9,20,Ticks_Linear_8,30,9999,9999,9999,964614260
112,9,20,Ticks_Linear_8,31,9999,9999,9999,965375040
112,9,20,Ticks_Linear_8,32,9999,9999,9999,966134852
112,9,20,Ticks_Linear_8,33,9999,9999,9999,966894660
112,9,20,Ticks_Linear_8,34,9999,9999,9999,967654468
112,9,20,Ticks_Linear_8,35,9999,9999,9999,968405068
112,9,20,Ticks_Linear_8,36,9999,9999,9999,969154624
112,9,20,Ticks_Linear_8,37,9999,9999,9999,969904224
112,9,20,Ticks_Linear_8,38,9999,9999,9999,970654812
112,9,20,Ticks_Linear_8,39,9999,9999,9999,971404364
112,9,20,Ticks_Linear_8,40,9999,9999,9999,972144700
112,9,20,Ticks_Linear_8,41,9999,9999,9999,972885112
112,9,20,Ticks_Linear_8,42,9999,9999,9999,973624404
112,9,20,Ticks_Linear_8,43,9999,9999,9999,974364740
112,9,20,Ticks_Linear_8,44,9999,9999,9999,975104104
112,9,20,Ticks_Linear_8,45,9999,9999,9999,975834184
112,9,20,Ticks_Linear_8,46,9999,9999,9999,976564312
112,9,20,Ticks_Linear_8,47,9999,9999,9999,977294396
112,9,20,Ticks_Linear_8,48,9999,9999,9999,978024548
112,9,20,Ticks_Linear_8,49,9999,9999,9999,978754620
112,9,20,Ticks_Linear_8,50,9999,9999,9999,979474520
112,9,20,Ticks_Linear_8,51,9999,9999,9999,980194412
112,9,20,Ticks_Linear_8,52,9999,9999,9999,980914276
112,9,20,Ticks_Linear_8,53,9999,9999,9999,981634128
112,9,20,Ticks_Linear_8,54,9999,9999,9999,982355012
112,9,20,Ticks_Linear_8,55,9999,9999,9999,983064644
112,9,20,Ticks_Linear_8,56,9999,9999,9999,983774288
112,9,20,Ticks_Linear_8,57,9999,9999,9999,984484940
112,9,20,Ticks_Linear_8,58,9999,9999,9999,985194572
112,9,20,Ticks_Linear_8,59,9999,9999,9999,985904212
112,9,20,Ticks_Linear_8,60,9999,9999,9999,986604636
112,9,20,Ticks_Linear_8,61,9999,9999,9999,987305028
112,9,20,Ticks_Linear_8,62,9999,9999,9999,988004476
112,9,20,Ticks_Linear_8,63,9999,9999,9999,988704828
112,9,20,Ticks_Linear_8,64,9999,9999,9999,989404276
112,9,20,Ticks_Linear_8,65,9999,9999,9999,990094416
112,9,20,Ticks_Linear_8,66,9999,9999,9999,990784588
112,9,20,Ticks_Linear_8,67,9999,9999,9999,991474744
112,9,20,Ticks_Linear_8,68,9999,9999,9999,992164960
112,9,20,Ticks_Linear_8,69,9999,9999,9999,992854072
112,9,20,Ticks_Linear_8,70,9999,9999,9999,993535096
112,9,20,Ticks_Linear_8,71,9999,9999,9999,994214976
112,9,20,Ticks_Linear_8,72,9999,9999,9999,994894952
112,9,20,Ticks_Linear_8,73,9999,9999,9999,995574856
112,9,20,Ticks_Linear_8,74,9999,9999,9999,996254812
112,9,20,Ticks_Linear_8,75,9999,9999,9999,996924536
112,9,20,Ticks_Linear_8,76,9999,9999,9999,997594176
112,9,20,Ticks_Linear_8,77,9999,9999,9999,998264916
112,9,20,Ticks_Linear_8,78,9999,9999,9999,998934636
112,9,20,Ticks_Linear_8,79,9999,9999,9999,999604284
112,9,20,Ticks_Linear_8,80,9999,9999,9999,1000264764
112,9,20,Ticks_Linear_8,81,9999,9999,9999,1000924224
112,9,20,Ticks_Linear_8,82,9999,9999,9999,1001584704
112,9,20,Ticks_Linear_8,83,9999,9999,9999,1002244168
112,9,20,Ticks_Linear_8,84,9999,9999,9999,1002904648
112,9,20,Ticks_Linear_8,85,9999,9999,9999,1003554896
112,9,20,Ticks_Linear_8,86,9999,9999,9999,1004204148
112,9,20,Ticks_Linear_8,87,9999,9999,9999,1004854396
112,9,20,Ticks_Linear_8,88,9999,9999,9999,1005504572
112,9,20,Ticks_Linear_8,89,9999,9999,9999,1006154868
112,9,20,Ticks_Linear_8,90,9999,9999,9999,1006794840
112,9,20,Ticks_Linear_8,91,9999,9999,9999,1007434824
112,9,20,Ticks_Linear_8,92,9999,9999,9999,1008074816
112,9,20,Ticks_Linear_8,93,9999,9999,9999,1008714876
112,9,20,Ticks_Linear_8,94,9999,9999,9999,1009354812
112,9,20,Ticks_Linear_8,95,9999,9999,9999,1009984612
112,9,20,Ticks_Linear_8,96,9999,9999,9999,1010614356
112,9,20,Ticks_Linear_8,97,9999,9999,9999,1011244144
112,9,20,Ticks_Linear_8,98,9999,9999,9999,1011874896
112,9,20,Ticks_Linear_8,99,9999,9999,9999,1012504700
112,9,20,Ticks_Linear_8,100,9999,9999,9999,1013124220
112,9,20,Ticks_Linear_8,101,9999,9999,9999,1013744732
112,9,20,Ticks_Linear_8,102,9999,9999,9999,1014364252
112,9,20,Ticks_Linear_8,103,9999,9999,9999,1014984772
112,9,20,Ticks_Linear_8,104,9999,9999,9999,1015604292
112,9,20,Ticks_Linear_8,105,9999,9999,9999,1016214604
112,9,20,Ticks_Linear_8,106,9999,9999,9999,1016824936
112,9,20,Ticks_Linear_8,107,9999,9999,9999,1017434200
112,9,20,Ticks_Linear_8,108,9999,9999,9999,1018044524
112,9,20,Ticks_Linear_8,109,9999,9999,9999,1018654832
112,9,20,Ticks_Linear_8,110,9999,9999,9999,1019254884
112,9,20,Ticks_Linear_8,111,9999,9999,9999,1019854956
112,9,20,Ticks_Linear_8,112,9999,9999,9999,1020455004
112,9,20,Ticks_Linear_8,113,9999,9999,9999,1021055052
112,9,20,Ticks_Linear_8,114,9999,9999,9999,1021654084
112,9,20,Ticks_Linear_8,115,9999,9999,9999,1022244920
112,9,20,Ticks_Linear_8,116,9999,9999,9999,1022834788
112,9,20,Ticks_Linear_8,117,9999,9999,9999,1023424596
112,9,20,Ticks_Linear_8,118,9999,9999,9999,1024014460
112,9,20,Ticks_Linear_8,119,9999,9999,9999,1024604252
112,9,20,Ticks_Linear_8,120,9999,9999,9999,1025184836
112,9,20,Ticks_Linear_8,121,9999,9999,9999,1025764468
112,9,20,Ticks_Linear_8,122,9999,9999,9999,1026345044
112,9,20,Ticks_Linear_8,123,9999,9999,9999,1026924652
112,9,20,Ticks_Linear_8,124,9999,9999,9999,1027504248
112,9,20,Ticks_Linear_8,125,9999,9999,9999,1028074568
112,9,20,Ticks_Linear_8,126,9999,9999,9999,1028644964
112,9,20,Ticks_Linear_8,127,9999,9999,9999,1029214312
112,9,20,Ticks_Linear_8,128,9999,9999,9999,1029784628
112,9,20,Ticks_Linear_8,129,9999,9999,9999,1030355048
112,9,20,Ticks_Linear_8,130,9999,9999,9999,1030914136
112,9,20,Ticks_Linear_8,131,9999,9999,9999,1031474268
112,9,20,Ticks_Linear_8,132,9999,9999,9999,1032034400
112,9,20,Ticks_Linear_8,133,9999,9999,9999,1032594536
112,9,20,Ticks_Linear_8,134,9999,9999,9999,1033154624
112,9,20,Ticks_Linear_8,135,9999,9999,9999,1033704500
112,9,20,Ticks_Linear_8,136,9999,9999,9999,1034254452
112,9,20,Ticks_Linear_8,137,9999,9999,9999,1034804328
112,9,20,Ticks_Linear_8,138,9999,9999,9999,1035354200
112,9,20,Ticks_Linear_8,139,9999,9999,9999,1035904076
112,9,20,Ticks_Linear_8,140,9999,9999,9999,1036444732
112,9,20,Ticks_Linear_8,141,9999,9999,9999,1036984444
112,9,20,Ticks_Linear_8,142,9999,9999,9999,1037525108
112,9,20,Ticks_Linear_8,143,9999,9999,9999,1038064724
112,9,20,Ticks_Linear_8,144,9999,9999,9999,1038604348
112,9,20,Ticks_Linear_8,145,9999,9999,9999,1039134828
112,9,20,Ticks_Linear_8,146,9999,9999,9999,1039664184
112,9,20,Ticks_Linear_8,147,9999,9999,9999,1040194660
112,9,20,Ticks_Linear_8,148,9999,9999,9999,1040725064
112,9,20,Ticks_Linear_8,149,9999,9999,9999,1041254492
112,9,20,Ticks_Linear_8,150,9999,9999,9999,1041774660
112,9,20,Ticks_Linear_8,151,9999,9999,9999,1042294896
112,9,20,Ticks_Linear_8,152,9999,9999,9999,1042815040
112,9,20,Ticks_Linear_8,153,9999,9999,9999,1043334208
112,9,20,Ticks_Linear_8,154,9999,9999,9999,1043854436
112,9,20,Ticks_Linear_8,155,9999,9999,9999,1044364392
112,9,20,Ticks_Linear_8,156,9999,9999,9999,1044874352
112,9,20,Ticks_Linear_8,157,9999,9999,9999,1045384312
112,9,20,Ticks_Linear_8,158,9999,9999,9999,1045894272
112,9,20,Ticks_Linear_8,159,9999,9999,9999,1046404156
112,9,20,Ticks_Linear_8,160,9999,9999,9999,1046904904
112,9,20,Ticks_Linear_8,161,9999,9999,9999,1047404604
112,9,20,Ticks_Linear_8,162,9999,9999,9999,1047904380
112,9,20,Ticks_Linear_8,163,9999,9999,9999,1048405052
112,9,20,Ticks_Linear_8,164,9999,9999,9999,1048904824
112,9,20,Ticks_Linear_8,165,9999,9999,9999,1049394268
112,9,20,Ticks_Linear_8,166,9999,9999,9999,1049884756
112,9,20,Ticks_Linear_8,167,9999,9999,9999,1050374264
112,9,20,Ticks_Linear_8,168,9999,9999,9999,1050864752
112,9,20,Ticks_Linear_8,169,9999,9999,9999,1051354192
112,10,21,Ticks_Linear_5,0,5,42,127,1059946004
112,10,21,Ticks_Linear_5,1,5,42,127,1060425960
112,10,21,Ticks_Linear_5,2,5,42,127,1060906284
112,10,21,Ticks_Linear_5,3,5,42,127,1061385708
112,10,21,Ticks_Linear_5,4,1,48,38,1061862984
112,10,21,Ticks_Linear_5,5,5,42,127,1061865952
112,10,21,Ticks_Linear_5,6,1,48,44,1062328396
112,10,21,Ticks_Linear_5,7,5,42,127,1062356292
112,10,21,Ticks_Linear_5,8,1,48,48,1062780804
112,10,21,Ticks_Linear_5,9,5,42,127,1062845956
112,10,21,Ticks_Linear_5,10,1,48,49,1063268680
112,10,21,Ticks_Linear_5,11,5,42,127,1063336268
112,10,21,Ticks_Linear_5,12,1,48,45,1063734684
112,10,21,Ticks_Linear_5,13,5,42,127,1063826080
112,10,21,Ticks_Linear_5,14,1,48,45,1064222464
112,10,21,Ticks_Linear_5,15,5,42,127,1064316268
112,10,21,Ticks_Linear_5,16,1,48,51,1064709216
112,10,21,Ticks_Linear_5,17,5,42,127,1064815956
112,10,21,Ticks_Linear_5,18,1,48,50,1065203512
112,10,21,Ticks_Linear_5,19,5,42,127,1065315876
112,10,21,Ticks_Linear_5,20,1,48,47,1065784852
112,10,21,Ticks_Linear_5,21,5,42,127,1065816492
112,10,21,Ticks_Linear_5,22,1,48,52,1066297656
112,10,21,Ticks_Linear_5,23,5,42,127,1066326304
112,10,21,Ticks_Linear_5,24,1,48,48,1066800720
112,10,21,Ticks_Linear_5,25,5,42,127,1066826152
112,10,21,Ticks_Linear_5,26,1,48,47,1067298624
112,10,21,Ticks_Linear_5,27,5,42,127,1067336332
112,10,21,Ticks_Linear_5,28,1,48,51,1067802664
112,10,21,Ticks_Linear_5,29,5,42,127,1067846068
112,10,21,Ticks_Linear_5,30,1,48,49,1068313832
112,10,21,Ticks_Linear_5,31,5,42,127,1068355952
112,10,21,Ticks_Linear_5,32,1,48,46,1068832392
112,10,21,Ticks_Linear_5,33,5,42,127,1068865912
112,10,21,Ticks_Linear_5,34,1,48,50,1069331416
112,10,21,Ticks_Linear_5,35,5,42,127,1069375948
112,10,21,Ticks_Linear_5,36,1,48,46,1069834796
112,10,21,Ticks_Linear_5,37,5,42,127,1069896092
112,10,21,Ticks_Linear_5,38,1,48,48,1070338464
112,10,21,Ticks_Linear_5,39,5,42,127,1070416232
112,10,21,Ticks_Linear_5,40,1,48,48,1070901884
112,10,21,Ticks_Linear_5,41,5,42,127,1070936456
112,10,21,Ticks_Linear_5,42,1,48,43,1071439256
112,10,21,Ticks_Linear_5,43,5,42,127,1071466032
112,10,21,Ticks_Linear_5,44,1,48,50,1071953928
112,10,21,Ticks_Linear_5,45,5,42,127,1071986100
112,10,21,Ticks_Linear_5,46,1,48,43,1072491000
112,10,21,Ticks_Linear_5,47,5,42,127,1072515308
112,10,21,Ticks_Linear_5,48,1,48,51,1073004484
112,10,21,Ticks_Linear_5,49,5,42,127,1073045932
112,10,21,Ticks_Linear_5,50,1,48,60,1073514968
112,10,21,Ticks_Linear_5,51,5,42,127,1073576188
112,10,21,Ticks_Linear_5,52,1,48,50,1074106172
112,10,21,Ticks_Linear_5,53,5,42,127,1074107288
112,10,21,Ticks_Linear_5,54,5,42,127,1074636204
112,10,21,Ticks_Linear_5,55,1,48,52,1074644940
112,10,21,Ticks_Linear_5,56,1,48,53,1075148512
112,10,21,Ticks_Linear_5,57,5,42,127,1075175960
112,10,21,Ticks_Linear_5,58,1,48,51,1075674356
112,10,21,Ticks_Linear_5,59,5,42,127,1075715352
112,10,21,Ticks_Linear_5,60,1,48,39,1076223020
112,10,21,Ticks_Linear_5,61,5,42,127,1076256012
112,10,21,Ticks_Linear_5,62,1,48,47,1076755972
112,10,21,Ticks_Linear_5,63,5,42,127,1076795924
112,10,21,Ticks_Linear_5,64,1,48,52,1077236352
112,10,21,Ticks_Linear_5,65,5,42,127,1077336428
112,10,21,Ticks_Linear_5,66,1,48,43,1077814012
112,10,21,Ticks_Linear_5,67,5,42,127,1077895600
112,10,21,Ticks_Linear_5,68,1,48,54,1078440192
112,10,21,Ticks_Linear_5,69,5,42,127,1078445400
112,10,21,Ticks_Linear_5,70,5,42,127,1078996204
112,10,21,Ticks_Linear_5,71,1,48,53,1079022532
112,10,21,Ticks_Linear_5,72,5,42,127,1079546224
112,10,21,Ticks_Linear_5,73,1,48,49,1079575784
112,10,21,Ticks_Linear_5,74,5,42,127,1080096028
112,10,21,Ticks_Linear_5,75,1,48,53,1080119064
112,10,21,Ticks_Linear_5,76,5,42,127,1080656384
112,10,21,Ticks_Linear_5,77,1,48,45,1080664824
112,10,21,Ticks_Linear_5,78,5,42,127,1081216368
112,10,21,Ticks_Linear_5,79,1,48,45,1081260376
112,10,21,Ticks_Linear_5,80,5,42,127,1081775452
112,10,21,Ticks_Linear_5,81,1,48,54,1081843904
112,10,21,Ticks_Linear_5,82,5,42,127,1082335684
112,10,21,Ticks_Linear_5,83,1,48,47,1082469560
112,10,21,Ticks_Linear_5,84,5,42,127,1082895668
112,10,21,Ticks_Linear_5,85,1,48,43,1083060272
112,10,21,Ticks_Linear_5,86,5,42,127,1083466060
112,10,21,Ticks_Linear_5,87,1,48,51,1083603920
112,10,21,Ticks_Linear_5,88,5,42,127,1084035404
112,10,21,Ticks_Linear_5,89,1,48,48,1084163768
112,10,21,Ticks_Linear_5,90,5,42,127,1084605896
112,10,21,Ticks_Linear_5,91,1,48,42,1084723064
112,10,21,Ticks_Linear_5,92,5,42,127,1085176140
112,10,21,Ticks_Linear_5,93,1,48,59,1085266356
112,10,21,Ticks_Linear_5,94,5,42,127,1085745708
112,10,21,Ticks_Linear_5,95,1,48,49,1085762604
112,10,21,Ticks_Linear_5,96,1,48,48,1086284752
112,10,21,Ticks_Linear_5,97,5,42,127,1086326204
112,10,21,Ticks_Linear_5,98,1,48,52,1086882924
112,10,21,Ticks_Linear_5,99,5,42,127,1086905684
112,10,21,Ticks_Linear_5,100,5,42,127,1087486416
112,10,21,Ticks_Linear_5,101,1,48,52,1087524512
112,10,21,Ticks_Linear_5,102,5,42,127,1088065872
112,10,21,Ticks_Linear_5,103,1,48,28,1088120212
112,10,21,Ticks_Linear_5,104,5,42,127,1088645700
112,10,21,Ticks_Linear_5,105,1,48,51,1088675860
112,10,21,Ticks_Linear_5,106,1,48,46,1089229180
112,10,21,Ticks_Linear_5,107,5,42,127,1089236256
112,10,21,Ticks_Linear_5,108,1,48,54,1089825224
112,10,21,Ticks_Linear_5,109,5,42,127,1089826788
112,10,21,Ticks_Linear_5,110,1,48,48,1090390628
112,10,21,Ticks_Linear_5,111,5,42,127,1090416132
112,10,21,Ticks_Linear_5,112,5,42,127,1091005804
112,10,21,Ticks_Linear_5,113,1,48,49,1091008852
112,10,21,Ticks_Linear_5,114,1,48,52,1091561840
112,10,21,Ticks_Linear_5,115,5,42,127,1091595588
112,10,21,Ticks_Linear_5,116,1,48,44,1092169232
112,10,21,Ticks_Linear_5,117,5,42,127,1092195784
112,10,21,Ticks_Linear_5,118,1,48,57,1092745992
112,10,21,Ticks_Linear_5,119,5,42,127,1092795856
112,10,21,Ticks_Linear_5,120,1,48,43,1093315068
112,10,21,Ticks_Linear_5,121,5,42,127,1093395832
112,10,21,Ticks_Linear_5,122,1,48,58,1093900880
112,10,21,Ticks_Linear_5,123,5,42,127,1093996088
112,10,21,Ticks_Linear_5,124,1,48,61,1094505652
112,10,21,Ticks_Linear_5,125,5,42,127,1094595956
112,10,21,Ticks_Linear_5,126,1,48,59,1095150804
112,10,21,Ticks_Linear_5,127,5,42,127,1095206336
112,10,21,Ticks_Linear_5,128,1,48,46,1095810836
112,10,21,Ticks_Linear_5,129,5,42,127,1095815820
112,10,21,Ticks_Linear_5,130,5,42,127,1096425712
112,10,21,Ticks_Linear_5,131,1,48,55,1096481472
112,10,21,Ticks_Linear_5,132,5,42,127,1097036092
112,10,21,Ticks_Linear_5,133,1,48,52,1097073504
112,10,21,Ticks_Linear_5,134,5,42,127,1097645656
112,10,21,Ticks_Linear_5,135,1,48,41,1097680820
112,10,21,Ticks_Linear_5,136,1,48,42,1098207320
112,10,21,Ticks_Linear_5,137,5,42,127,1098265916
112,10,21,Ticks_Linear_5,138,1,48,54,1098754940
112,10,21,Ticks_Linear_5,139,5,42,127,1098885792
112,10,21,Ticks_Linear_5,140,1,48,56,1099365700
112,10,21,Ticks_Linear_5,141,5,42,127,1099505936
112,10,21,Ticks_Linear_5,142,1,48,47,1100071652
112,10,21,Ticks_Linear_5,143,5,42,127,1100125544
112,10,21,Ticks_Linear_5,144,1,48,52,1100643708
112,10,21,Ticks_Linear_5,145,5,42,127,1100746048
112,10,21,Ticks_Linear_5,146,1,48,46,1101281368
112,10,21,Ticks_Linear_5,147,5,42,127,1101375768
112,10,21,Ticks_Linear_5,148,1,48,51,1101911740
112,10,21,Ticks_Linear_5,149,5,42,127,1102005780
112,10,21,Ticks_Linear_5,150,1,48,46,1102574352
112,10,21,Ticks_Linear_5,151,5,42,127,1102636548
112,10,21,Ticks_Linear_5,152,1,48,52,1103213872
112,10,21,Ticks_Linear_5,153,5,42,127,1103266100
112,10,21,Ticks_Linear_5,154,1,48,50,1103844648
112,10,21,Ticks_Linear_5,155,5,42,127,1103895832
112,10,21,Ticks_Linear_5,156,1,48,47,1104526620
112,10,21,Ticks_Linear_5,157,5,42,127,1104535868
112,10,21,Ticks_Linear_5,158,5,42,127,1105175864
112,10,21,Ticks_Linear_5,159,1,48,38,1105201896
112,10,21,Ticks_Linear_5,160,1,48,43,1105767928
112,10,21,Ticks_Linear_5,161,5,42,127,1105815896
112,10,21,Ticks_Linear_5,162,1,48,40,1106395784
112,10,21,Ticks_Linear_5,163,5,42,127,1106455956
112,10,21,Ticks_Linear_5,164,1,48,20,1106980928
112,10,21,Ticks_Linear_5,165,5,42,127,1107095980
112,10,21,Ticks_Linear_5,166,1,48,39,1107502192
112,10,21,Ticks_Linear_5,167,5,42,127,1107746452
112,10,21,Ticks_Linear_5,168,1,48,17,1108114004
112,10,21,Ticks_Linear_5,169,5,42,127,1108396376
112,10,21,Ticks_Linear_5,170,1,48,38,1109014628
112,10,21,Ticks_Linear_5,171,5,42,127,1109045516
112,10,21,Ticks_Linear_5,172,1,48,53,1109636392
112,10,21,Ticks_Linear_5,173,5,42,127,1109695984
112,10,21,Ticks_Linear_5,174,1,48,35,1110299212
112,10,21,Ticks_Linear_5,175,5,42,127,1110345984
112,10,21,Ticks_Linear_5,176,1,48,45,1110869456
112,10,21,Ticks_Linear_5,177,5,42,127,1111005428
112,10,21,Ticks_Linear_5,178,1,48,55,1111482028
112,10,21,Ticks_Linear_5,179,5,42,127,1111665988
112,10,21,Ticks_Linear_5,180,1,48,46,1112164764
112,10,21,Ticks_Linear_5,181,5,42,127,1112325520
112,10,21,Ticks_Linear_5,182,1,48,49,1112900900
112,10,21,Ticks_Linear_5,183,5,42,127,1112986016
112,10,21,Ticks_Linear_5,184,1,48,48,1113522244
112,10,21,Ticks_Linear_5,185,5,42,127,1113645316
112,10,21,Ticks_Linear_5,186,1,48,53,1114179960
112,10,21,Ticks_Linear_5,187,5,42,127,1114316452
112,10,21,Ticks_Linear_5,188,1,48,43,1114865480
112,10,21,Ticks_Linear_5,189,5,42,127,1114985852
112,10,21,Ticks_Linear_5,190,1,48,43,1115544840
112,10,21,Ticks_Linear_5,191,5,42,127,1115655420
112,10,21,Ticks_Linear_5,192,1,48,37,1116201148
112,10,21,Ticks_Linear_5,193,5,42,127,1116326456
112,10,21,Ticks_Linear_5,194,1,48,35,1116927112
112,10,21,Ticks_Linear_5,195,5,42,127,1116995972
112,10,21,Ticks_Linear_5,196,1,48,52,1117565800
112,10,21,Ticks_Linear_5,197,5,42,127,1117676008
112,10,21,Ticks_Linear_5,198,1,48,49,1118180772
112,10,21,Ticks_Linear_5,199,5,42,127,1118355740
112,10,21,Ticks_Linear_5,200,1,48,46,1118862220
112,10,21,Ticks_Linear_5,201,5,42,127,1119035716
112,10,21,Ticks_Linear_5,202,1,48,49,1119512916
112,10,21,Ticks_Linear_5,203,5,42,127,1119715692
112,10,21,Ticks_Linear_5,204,1,48,50,1120230492
112,10,21,Ticks_Linear_5,205,5,42,127,1120395720
112,10,21,Ticks_Linear_5,206,1,48,46,1120881988
112,10,21,Ticks_Linear_5,207,5,42,127,1121085884
112,10,21,Ticks_Linear_5,208,1,48,50,1121620456
112,10,21,Ticks_Linear_5,209,5,42,127,1121776124
112,10,21,Ticks_Linear_5,210,1,48,47,1122339672
112,10,21,Ticks_Linear_5,211,5,42,127,1122466260
112,10,21,Ticks_Linear_5,212,1,48,51,1122975076
112,10,21,Ticks_Linear_5,213,5,42,127,1123156276
112,10,21,Ticks_Linear_5,214,1,48,40,1123594168
112,10,21,Ticks_Linear_5,215,5,42,127,1123845464
112,10,21,Ticks_Linear_5,216,1,48,46,1124231952
112,10,21,Ticks_Linear_5,217,5,42,127,1124545812
112,10,21,Ticks_Linear_5,218,1,48,44,1124869024
112,10,21,Ticks_Linear_5,219,5,42,127,1125246208
112,10,21,Ticks_Linear_5,220,1,48,54,1125705000
112,10,21,Ticks_Linear_5,221,5,42,127,1125945808
112,10,21,Ticks_Linear_5,222,1,48,57,1126444068
112,10,21,Ticks_Linear_5,223,5,42,127,1126646304
112,10,21,Ticks_Linear_5,224,1,48,51,1127151220
112,10,21,Ticks_Linear_5,225,5,42,127,1127345384
112,10,21,Ticks_Linear_5,226,1,48,51,1127877484
112,10,21,Ticks_Linear_5,227,5,42,127,1128056112
112,10,21,Ticks_Linear_5,228,1,48,56,1128588516
112,10,21,Ticks_Linear_5,229,5,42,127,1128765748
112,10,21,Ticks_Linear_5,230,1,48,48,1129283776
112,10,21,Ticks_Linear_5,231,5,42,127,1129475308
112,10,21,Ticks_Linear_5,232,1,48,58,1129946232
112,10,21,Ticks_Linear_5,233,5,42,127,1130186212
112,10,21,Ticks_Linear_5,234,1,48,37,1130659952
112,10,21,Ticks_Linear_5,235,5,42,127,1130895676
112,10,21,Ticks_Linear_5,236,1,48,46,1131370480
112,10,21,Ticks_Linear_5,237,5,42,127,1131615496
112,10,21,Ticks_Linear_5,238,1,48,53,1132091272
112,10,21,Ticks_Linear_5,239,5,42,127,1132335384
112,10,21,Ticks_Linear_5,240,1,48,59,1132835656
112,10,21,Ticks_Linear_5,241,5,42,127,1133056328
112,10,21,Ticks_Linear_5,242,1,48,48,1133550528
112,10,21,Ticks_Linear_5,243,5,42,127,1133776292
112,10,21,Ticks_Linear_5,244,1,48,45,1134293780
112,10,21,Ticks_Linear_5,245,5,42,127,1134496160
112,10,21,Ticks_Linear_5,246,1,48,52,1135003612
112,10,21,Ticks_Linear_5,247,5,42,127,1135226388
112,10,21,Ticks_Linear_5,248,1,48,44,1135708840
112,10,21,Ticks_Linear_5,249,5,42,127,1135956316
112,10,21,Ticks_Linear_5,250,1,48,53,1136472008
112,10,21,Ticks_Linear_5,251,5,42,127,1136685496
112,10,21,Ticks_Linear_5,252,1,48,45,1137219620
112,10,21,Ticks_Linear_5,253,5,42,127,1137415500
112,10,21,Ticks_Linear_5,254,1,48,46,1137952160
112,10,21,Ticks_Linear_5,255,5,42,127,1138145728
112,10,21,Ticks_Linear_5,256,1,48,38,1138754364
112,10,21,Ticks_Linear_5,257,5,42,127,1138885992
112,10,21,Ticks_Linear_5,258,1,48,45,1139479944
112,10,21,Ticks_Linear_5,259,5,42,127,1139626376
112,10,21,Ticks_Linear_5,260,1,48,32,1140230392
112,10,21,Ticks_Linear_5,261,5,42,127,1140365592
112,10,21,Ticks_Linear_5,262,1,48,38,1140935384
112,10,21,Ticks_Linear_5,263,5,42,127,1141106224
112,10,21,Ticks_Linear_5,264,1,48,51,1141728520
112,10,21,Ticks_Linear_5,265,5,42,127,1141846492
112,10,21,Ticks_Linear_5,266,1,48,50,1142458596
112,10,21,Ticks_Linear_5,267,5,42,127,1142596260
112,10,21,Ticks_Linear_5,268,1,48,38,1143229408
112,10,21,Ticks_Linear_5,269,5,42,127,1143345440
112,10,21,Ticks_Linear_5,270,1,48,47,1144010556
112,10,21,Ticks_Linear_5,271,5,42,127,1144096276
112,10,21,Ticks_Linear_5,272,1,48,32,1144754872
112,10,21,Ticks_Linear_5,273,5,42,127,1144845748
112,10,21,Ticks_Linear_5,274,1,48,54,1145476612
112,10,21,Ticks_Linear_5,275,5,42,127,1145596256
112,10,21,Ticks_Linear_5,276,1,48,42,1146288788
112,10,21,Ticks_Linear_5,277,5,42,127,1146356228
112,10,21,Ticks_Linear_5,278,1,48,41,1146990456
112,10,21,Ticks_Linear_5,279,5,42,127,1147116096
112,10,21,Ticks_Linear_5,280,1,48,50,1147764276
112,10,21,Ticks_Linear_5,281,5,42,127,1147875604
112,10,21,Ticks_Linear_5,282,1,48,60,1148487312
112,10,21,Ticks_Linear_5,283,5,42,127,1148635416
112,10,21,Ticks_Linear_5,284,1,48,54,1149229444
112,10,21,Ticks_Linear_5,285,5,42,127,1149396344
112,10,21,Ticks_Linear_5,286,1,48,56,1149956456
112,10,21,Ticks_Linear_5,287,5,42,127,1150166268
112,10,21,Ticks_Linear_5,288,1,48,43,1150700832
112,10,21,Ticks_Linear_5,289,5,42,127,1150936408
112,10,21,Ticks_Linear_5,290,1,48,48,1151436752
112,10,21,Ticks_Linear_5,291,5,42,127,1151715836
112,10,21,Ticks_Linear_5,292,1,48,50,1152180908
112,10,21,Ticks_Linear_5,293,5,42,127,1152485976
112,10,21,Ticks_Linear_5,294,1,48,50,1152908116
112,10,21,Ticks_Linear_5,295,5,42,127,1153256044
112,10,21,Ticks_Linear_5,296,1,48,54,1153646812
112,10,21,Ticks_Linear_5,297,5,42,127,1154036000
112,10,21,Ticks_Linear_5,298,1,48,48,1154438668
112,10,21,Ticks_Linear_5,299,5,42,127,1154816328
112,10,21,Ticks_Linear_5,300,1,48,54,1155242948
112,10,21,Ticks_Linear_5,301,5,42,127,1155595752
112,10,21,Ticks_Linear_5,302,1,48,49,1156009432
112,10,21,Ticks_Linear_5,303,5,42,127,1156376080
112,10,21,Ticks_Linear_5,304,1,48,52,1156771780
112,10,21,Ticks_Linear_5,305,5,42,127,1157156108
112,10,21,Ticks_Linear_5,306,1,48,45,1157579920
112,10,21,Ticks_Linear_5,307,5,42,127,1157945944
112,10,21,Ticks_Linear_5,308,1,48,44,1158312144
112,10,21,Ticks_Linear_5,309,5,42,127,1158736308
112,10,21,Ticks_Linear_5,310,1,48,48,1159091448
112,10,21,Ticks_Linear_5,311,5,42,127,1159525772
112,10,21,Ticks_Linear_5,312,1,48,47,1159881656
112,10,21,Ticks_Linear_5,313,5,42,127,1160316284
112,10,21,Ticks_Linear_5,314,1,48,43,1160635108
112,10,21,Ticks_Linear_5,315,5,42,127,1161105748
112,10,21,Ticks_Linear_5,316,1,48,42,1161430632
112,10,21,Ticks_Linear_5,317,5,42,127,1161905644
112,10,21,Ticks_Linear_5,318,1,48,47,1162171044
112,10,21,Ticks_Linear_5,319,5,42,127,1162706268
112,10,21,Ticks_Linear_5,320,1,48,47,1163044388
112,10,21,Ticks_Linear_5,321,5,42,127,1163505992
112,10,21,Ticks_Linear_5,322,1,48,41,1163903636
112,10,21,Ticks_Linear_5,323,5,42,127,1164305716
112,10,21,Ticks_Linear_5,324,1,48,49,1164709880
112,10,21,Ticks_Linear_5,325,5,42,127,1165105664
112,10,21,Ticks_Linear_5,326,1,48,53,1165513444
112,10,21,Ticks_Linear_5,327,5,42,127,1165915572
112,10,21,Ticks_Linear_5,328,1,48,42,1166336840
112,10,21,Ticks_Linear_5,329,5,42,127,1166725408
112,10,21,Ticks_Linear_5,330,1,48,49,1167144656
112,10,21,Ticks_Linear_5,331,5,42,127,1167535340
112,10,21,Ticks_Linear_5,332,1,48,37,1168003468
112,10,21,Ticks_Linear_5,333,5,42,127,1168345472
112,10,21,Ticks_Linear_5,334,1,48,43,1168788808
112,10,21,Ticks_Linear_5,335,5,42,127,1169155604
112,10,21,Ticks_Linear_5,0,9999,9999,9999,1059943484
112,10,21,Ticks_Linear_5,1,9999,9999,9999,1060423736
112,10,21,Ticks_Linear_5,2,9999,9999,9999,1060904060
112,10,21,Ticks_Linear_5,3,9999,9999,9999,1061383260
112,10,21,Ticks_Linear_5,4,9999,9999,9999,1061863504
112,10,21,Ticks_Linear_5,5,9999,9999,9999,1062353992
112,10,21,Ticks_Linear_5,6,9999,9999,9999,1062843508
112,10,21,Ticks_Linear_5,7,9999,9999,9999,1063333968
112,10,21,Ticks_Linear_5,8,9999,9999,9999,1063823484
112,10,21,Ticks_Linear_5,9,9999,9999,9999,1064313972
112,10,21,Ticks_Linear_5,10,9999,9999,9999,1064813656
112,10,21,Ticks_Linear_5,11,9999,9999,9999,1065313356
112,10,21,Ticks_Linear_5,12,9999,9999,9999,1065814116
112,10,21,Ticks_Linear_5,13,9999,9999,9999,1066324076
112,10,21,Ticks_Linear_5,14,9999,9999,9999,1066823776
112,10,21,Ticks_Linear_5,15,9999,9999,9999,1067333736
112,10,21,Ticks_Linear_5,16,9999,9999,9999,1067843696
112,10,21,Ticks_Linear_5,17,9999,9999,9999,1068353652
112,10,21,Ticks_Linear_5,18,9999,9999,9999,1068863612
112,10,21,Ticks_Linear_5,19,9999,9999,9999,1069373500
112,10,21,Ticks_Linear_5,20,9999,9999,9999,1069893720
112,10,21,Ticks_Linear_5,21,9999,9999,9999,1070413936
112,10,21,Ticks_Linear_5,22,9999,9999,9999,1070934080
112,10,21,Ticks_Linear_5,23,9999,9999,9999,1071463512
112,10,21,Ticks_Linear_5,24,9999,9999,9999,1071983728
112,10,21,Ticks_Linear_5,25,9999,9999,9999,1072513084
112,10,21,Ticks_Linear_5,26,9999,9999,9999,1073043560
112,10,21,Ticks_Linear_5,27,9999,9999,9999,1073573964
112,10,21,Ticks_Linear_5,28,9999,9999,9999,1074103352
112,10,21,Ticks_Linear_5,29,9999,9999,9999,1074633828
112,10,21,Ticks_Linear_5,30,9999,9999,9999,1075173440
112,10,21,Ticks_Linear_5,31,9999,9999,9999,1075713128
112,10,21,Ticks_Linear_5,32,9999,9999,9999,1076253788
112,10,21,Ticks_Linear_5,33,9999,9999,9999,1076793404
112,10,21,Ticks_Linear_5,34,9999,9999,9999,1077334124
112,10,21,Ticks_Linear_5,35,9999,9999,9999,1077893228
112,10,21,Ticks_Linear_5,36,9999,9999,9999,1078443100
112,10,21,Ticks_Linear_5,37,9999,9999,9999,1078993980
112,10,21,Ticks_Linear_5,38,9999,9999,9999,1079543928
112,10,21,Ticks_Linear_5,39,9999,9999,9999,1080093800
112,10,21,Ticks_Linear_5,40,9999,9999,9999,1080653936
112,10,21,Ticks_Linear_5,41,9999,9999,9999,1081214068
112,10,21,Ticks_Linear_5,42,9999,9999,9999,1081773152
112,10,21,Ticks_Linear_5,43,9999,9999,9999,1082333236
112,10,21,Ticks_Linear_5,44,9999,9999,9999,1082893368
112,10,21,Ticks_Linear_5,45,9999,9999,9999,1083463760
112,10,21,Ticks_Linear_5,46,9999,9999,9999,1084033108
112,10,21,Ticks_Linear_5,47,9999,9999,9999,1084603452
112,10,21,Ticks_Linear_5,48,9999,9999,9999,1085173840
112,10,21,Ticks_Linear_5,49,9999,9999,9999,1085743184
112,10,21,Ticks_Linear_5,50,9999,9999,9999,1086323832
112,10,21,Ticks_Linear_5,51,9999,9999,9999,1086903384
112,10,21,Ticks_Linear_5,52,9999,9999,9999,1087483968
112,10,21,Ticks_Linear_5,53,9999,9999,9999,1088063572
112,10,21,Ticks_Linear_5,54,9999,9999,9999,1088643180
112,10,21,Ticks_Linear_5,55,9999,9999,9999,1089234032
112,10,21,Ticks_Linear_5,56,9999,9999,9999,1089823828
112,10,21,Ticks_Linear_5,57,9999,9999,9999,1090413688
112,10,21,Ticks_Linear_5,58,9999,9999,9999,1091003508
112,10,21,Ticks_Linear_5,59,9999,9999,9999,1091593288
112,10,21,Ticks_Linear_5,60,9999,9999,9999,1092193336
112,10,21,Ticks_Linear_5,61,9999,9999,9999,1092793412
112,10,21,Ticks_Linear_5,62,9999,9999,9999,1093393532
112,10,21,Ticks_Linear_5,63,9999,9999,9999,1093993584
112,10,21,Ticks_Linear_5,64,9999,9999,9999,1094593656
112,10,21,Ticks_Linear_5,65,9999,9999,9999,1095203964
112,10,21,Ticks_Linear_5,66,9999,9999,9999,1095813224
112,10,21,Ticks_Linear_5,67,9999,9999,9999,1096423488
112,10,21,Ticks_Linear_5,68,9999,9999,9999,1097033796
112,10,21,Ticks_Linear_5,69,9999,9999,9999,1097643132
112,10,21,Ticks_Linear_5,70,9999,9999,9999,1098263620
112,10,21,Ticks_Linear_5,71,9999,9999,9999,1098883196
112,10,21,Ticks_Linear_5,72,9999,9999,9999,1099503712
112,10,21,Ticks_Linear_5,73,9999,9999,9999,1100123248
112,10,21,Ticks_Linear_5,74,9999,9999,9999,1100743748
112,10,21,Ticks_Linear_5,75,9999,9999,9999,1101373544
112,10,21,Ticks_Linear_5,76,9999,9999,9999,1102003256
112,10,21,Ticks_Linear_5,77,9999,9999,9999,1102634100
112,10,21,Ticks_Linear_5,78,9999,9999,9999,1103263804
112,10,21,Ticks_Linear_5,79,9999,9999,9999,1103893608
112,10,21,Ticks_Linear_5,80,9999,9999,9999,1104533572
112,10,21,Ticks_Linear_5,81,9999,9999,9999,1105173564
112,10,21,Ticks_Linear_5,82,9999,9999,9999,1105813596
112,10,21,Ticks_Linear_5,83,9999,9999,9999,1106453584
112,10,21,Ticks_Linear_5,84,9999,9999,9999,1107093608
112,10,21,Ticks_Linear_5,85,9999,9999,9999,1107743856
112,10,21,Ticks_Linear_5,86,9999,9999,9999,1108394076
112,10,21,Ticks_Linear_5,87,9999,9999,9999,1109043292
112,10,21,Ticks_Linear_5,88,9999,9999,9999,1109693540
112,10,21,Ticks_Linear_5,89,9999,9999,9999,1110343760
112,10,21,Ticks_Linear_5,90,9999,9999,9999,1111003204
112,10,21,Ticks_Linear_5,91,9999,9999,9999,1111663688
112,10,21,Ticks_Linear_5,92,9999,9999,9999,1112323148
112,10,21,Ticks_Linear_5,93,9999,9999,9999,1112983644
112,10,21,Ticks_Linear_5,94,9999,9999,9999,1113643088
112,10,21,Ticks_Linear_5,95,9999,9999,9999,1114313856
112,10,21,Ticks_Linear_5,96,9999,9999,9999,1114983552
112,10,21,Ticks_Linear_5,97,9999,9999,9999,1115653196
112,10,21,Ticks_Linear_5,98,9999,9999,9999,1116323936
112,10,21,Ticks_Linear_5,99,9999,9999,9999,1116993600
112,10,21,Ticks_Linear_5,100,9999,9999,9999,1117673564
112,10,21,Ticks_Linear_5,101,9999,9999,9999,1118353516
112,10,21,Ticks_Linear_5,102,9999,9999,9999,1119033416
112,10,21,Ticks_Linear_5,103,9999,9999,9999,1119713396
112,10,21,Ticks_Linear_5,104,9999,9999,9999,1120393272
112,10,21,Ticks_Linear_5,105,9999,9999,9999,1121083512
112,10,21,Ticks_Linear_5,106,9999,9999,9999,1121773676
112,10,21,Ticks_Linear_5,107,9999,9999,9999,1122463812
112,10,21,Ticks_Linear_5,108,9999,9999,9999,1123153976
112,10,21,Ticks_Linear_5,109,9999,9999,9999,1123843164
112,10,21,Ticks_Linear_5,110,9999,9999,9999,1124543588
112,10,21,Ticks_Linear_5,111,9999,9999,9999,1125243984
112,10,21,Ticks_Linear_5,112,9999,9999,9999,1125943360
112,10,21,Ticks_Linear_5,113,9999,9999,9999,1126643784
112,10,21,Ticks_Linear_5,114,9999,9999,9999,1127343160
112,10,21,Ticks_Linear_5,115,9999,9999,9999,1128053816
112,10,21,Ticks_Linear_5,116,9999,9999,9999,1128763452
112,10,21,Ticks_Linear_5,117,9999,9999,9999,1129473084
112,10,21,Ticks_Linear_5,118,9999,9999,9999,1130183768
112,10,21,Ticks_Linear_5,119,9999,9999,9999,1130893376
112,10,21,Ticks_Linear_5,120,9999,9999,9999,1131613272
112,10,21,Ticks_Linear_5,121,9999,9999,9999,1132333160
112,10,21,Ticks_Linear_5,122,9999,9999,9999,1133054024
112,10,21,Ticks_Linear_5,123,9999,9999,9999,1133773920
112,10,21,Ticks_Linear_5,124,9999,9999,9999,1134493788
112,10,21,Ticks_Linear_5,125,9999,9999,9999,1135223868
112,10,21,Ticks_Linear_5,126,9999,9999,9999,1135954016
112,10,21,Ticks_Linear_5,127,9999,9999,9999,1136683124
112,10,21,Ticks_Linear_5,128,9999,9999,9999,1137413200
112,10,21,Ticks_Linear_5,129,9999,9999,9999,1138143352
112,10,21,Ticks_Linear_5,130,9999,9999,9999,1138883692
112,10,21,Ticks_Linear_5,131,9999,9999,9999,1139624004
112,10,21,Ticks_Linear_5,132,9999,9999,9999,1140363368
112,10,21,Ticks_Linear_5,133,9999,9999,9999,1141103704
112,10,21,Ticks_Linear_5,134,9999,9999,9999,1141844040
112,10,21,Ticks_Linear_5,135,9999,9999,9999,1142593592
112,10,21,Ticks_Linear_5,136,9999,9999,9999,1143343216
112,10,21,Ticks_Linear_5,137,9999,9999,9999,1144093752
112,10,21,Ticks_Linear_5,138,9999,9999,9999,1144843376
112,10,21,Ticks_Linear_5,139,9999,9999,9999,1145593956
112,10,21,Ticks_Linear_5,140,9999,9999,9999,1146353780
112,10,21,Ticks_Linear_5,141,9999,9999,9999,1147113576
112,10,21,Ticks_Linear_5,142,9999,9999,9999,1147873380
112,10,21,Ticks_Linear_5,143,9999,9999,9999,1148633192
112,10,21,Ticks_Linear_5,144,9999,9999,9999,1149394044
112,10,21,Ticks_Linear_5,145,9999,9999,9999,1150164040
112,10,21,Ticks_Linear_5,146,9999,9999,9999,1150934108
112,10,21,Ticks_Linear_5,147,9999,9999,9999,1151713388
112,10,21,Ticks_Linear_5,148,9999,9999,9999,1152483452
112,10,21,Ticks_Linear_5,149,9999,9999,9999,1153253448
112,10,21,Ticks_Linear_5,150,9999,9999,9999,1154033776
112,10,21,Ticks_Linear_5,151,9999,9999,9999,1154814028
112,10,21,Ticks_Linear_5,152,9999,9999,9999,1155593304
112,10,21,Ticks_Linear_5,153,9999,9999,9999,1156373556
112,10,21,Ticks_Linear_5,154,9999,9999,9999,1157153884
112,10,21,Ticks_Linear_5,155,9999,9999,9999,1157943424
112,10,21,Ticks_Linear_5,156,9999,9999,9999,1158733936
112,10,21,Ticks_Linear_5,157,9999,9999,9999,1159523400
112,10,21,Ticks_Linear_5,158,9999,9999,9999,1160313912
112,10,21,Ticks_Linear_5,159,9999,9999,9999,1161103452
112,10,21,Ticks_Linear_5,160,9999,9999,9999,1161903200
112,10,21,Ticks_Linear_5,161,9999,9999,9999,1162703968
112,10,21,Ticks_Linear_5,162,9999,9999,9999,1163503692
112,10,21,Ticks_Linear_5,163,9999,9999,9999,1164303420
112,10,21,Ticks_Linear_5,164,9999,9999,9999,1165103220
112,10,21,Ticks_Linear_5,165,9999,9999,9999,1165913200
112,10,21,Ticks_Linear_5,166,9999,9999,9999,1166723184
112,10,21,Ticks_Linear_5,167,9999,9999,9999,1167533116
112,10,21,Ticks_Linear_5,168,9999,9999,9999,1168343100
112,10,21,Ticks_Linear_5,169,9999,9999,9999,1169153084
112,11,25,Jits_Pract_5,0,5,56,103,1220549084
112,11,25,Jits_Pract_5,1,5,63,98,1220552104
112,11,25,Jits_Pract_5,2,5,80,127,1220555304
112,11,25,Jits_Pract_5,0,5,56,103,1221048660
112,11,25,Jits_Pract_5,1,5,63,98,1221051756
112,11,25,Jits_Pract_5,2,5,80,127,1221054952
112,11,25,Jits_Pract_5,0,5,56,103,1221549376
112,11,25,Jits_Pract_5,1,5,80,127,1221558596
112,11,25,Jits_Pract_5,2,5,63,98,1221579280
112,11,25,Jits_Pract_5,0,5,63,98,1221999044
112,11,25,Jits_Pract_5,1,5,80,127,1222028720
112,11,25,Jits_Pract_5,2,5,56,103,1222039064
112,11,25,Jits_Pract_5,0,5,80,127,1222559084
112,11,25,Jits_Pract_5,1,5,56,103,1222569280
112,11,25,Jits_Pract_5,2,5,63,98,1222598956
112,11,25,Jits_Pract_5,0,5,63,98,1223048544
112,11,25,Jits_Pract_5,1,5,56,103,1223079340
112,11,25,Jits_Pract_5,2,5,80,127,1223088564
112,11,25,Jits_Pract_5,0,5,56,103,1223499248
112,11,25,Jits_Pract_5,1,5,63,98,1223549228
112,11,25,Jits_Pract_5,2,5,80,127,1223569088
112,11,25,Jits_Pract_5,0,5,80,127,1223998920
112,11,25,Jits_Pract_5,1,5,63,98,1224049124
112,11,25,Jits_Pract_5,2,5,56,103,1224089060
112,11,25,Jits_Pract_5,0,5,56,103,1224498592
112,11,25,Jits_Pract_5,1,5,63,98,1224529168
112,11,25,Jits_Pract_5,2,5,80,127,1224598996
112,11,25,Jits_Pract_5,0,5,56,103,1224999384
112,11,25,Jits_Pract_5,1,5,80,127,1225058728
112,11,25,Jits_Pract_5,2,5,63,98,1225089452
112,11,25,Jits_Pract_5,0,5,56,103,1225509168
112,11,25,Jits_Pract_5,1,5,63,98,1225518540
112,11,25,Jits_Pract_5,2,5,80,127,1225559448
112,11,25,Jits_Pract_5,0,5,63,98,1225998648
112,11,25,Jits_Pract_5,1,5,80,127,1226078520
112,11,25,Jits_Pract_5,2,5,56,103,1226089084
112,11,25,Jits_Pract_5,0,5,63,98,1226548724
112,11,25,Jits_Pract_5,1,5,56,103,1226588812
112,11,25,Jits_Pract_5,2,5,80,127,1226591656
112,11,25,Jits_Pract_5,0,5,56,103,1227009488
112,11,25,Jits_Pract_5,1,5,63,98,1227018636
112,11,25,Jits_Pract_5,2,5,80,127,1227058500
112,11,25,Jits_Pract_5,0,5,56,103,1227498888
112,11,25,Jits_Pract_5,1,5,63,98,1227502028
112,11,25,Jits_Pract_5,2,5,80,127,1227519272
112,11,25,Jits_Pract_5,0,9999,9999,9999,1220796520
112,11,25,Jits_Pract_5,1,9999,9999,9999,1221296248
112,11,25,Jits_Pract_5,2,9999,9999,9999,1221796940
112,11,25,Jits_Pract_5,3,9999,9999,9999,1222296676
112,11,25,Jits_Pract_5,4,9999,9999,9999,1222796384
112,11,25,Jits_Pract_5,5,9999,9999,9999,1223296112
112,11,25,Jits_Pract_5,6,9999,9999,9999,1223796812
112,11,25,Jits_Pract_5,7,9999,9999,9999,1224296560
112,11,25,Jits_Pract_5,8,9999,9999,9999,1224796228
112,11,25,Jits_Pract_5,9,9999,9999,9999,1225296948
112,11,25,Jits_Pract_5,10,9999,9999,9999,1225796688
112,11,25,Jits_Pract_5,11,9999,9999,9999,1226296436
112,11,25,Jits_Pract_5,12,9999,9999,9999,1226796084
112,11,25,Jits_Pract_5,13,9999,9999,9999,1227296860
112,11,25,Jits_Pract_5,14,9999,9999,9999,1227796588
112,12,24,Jits_Pract_8,0,5,56,103,1272821052
112,12,24,Jits_Pract_8,1,5,63,98,1272824076
112,12,24,Jits_Pract_8,2,5,80,127,1272827272
112,12,24,Jits_Pract_8,0,5,56,103,1273620844
112,12,24,Jits_Pract_8,1,5,63,98,1273623868
112,12,24,Jits_Pract_8,2,5,80,127,1273627064
112,12,24,Jits_Pract_8,0,5,80,127,1274361376
112,12,24,Jits_Pract_8,1,5,63,98,1274451364
112,12,24,Jits_Pract_8,2,5,56,103,1274460512
112,12,24,Jits_Pract_8,0,5,56,103,1275181420
112,12,24,Jits_Pract_8,1,5,63,98,1275190568
112,12,24,Jits_Pract_8,2,5,80,127,1275280772
112,12,24,Jits_Pract_8,3,1,48,41,1275351636
112,12,24,Jits_Pract_8,0,5,63,98,1275950548
112,12,24,Jits_Pract_8,1,5,80,127,1275981344
112,12,24,Jits_Pract_8,2,1,48,45,1276000284
112,12,24,Jits_Pract_8,3,5,56,103,1276010788
112,12,24,Jits_Pract_8,0,1,48,48,1276741352
112,12,24,Jits_Pract_8,1,5,56,103,1276751268
112,12,24,Jits_Pract_8,2,5,80,127,1276850480
112,12,24,Jits_Pract_8,3,5,63,98,1276900752
112,12,24,Jits_Pract_8,0,5,56,103,1277551104
112,12,24,Jits_Pract_8,1,1,48,51,1277576400
112,12,24,Jits_Pract_8,2,5,80,127,1277601376
112,12,24,Jits_Pract_8,3,5,63,98,1277641188
112,12,24,Jits_Pract_8,0,1,48,49,1278319456
112,12,24,Jits_Pract_8,1,5,80,127,1278381536
112,12,24,Jits_Pract_8,2,5,63,98,1278411284
112,12,24,Jits_Pract_8,3,5,56,103,1278480652
112,12,24,Jits_Pract_8,0,1,48,47,1279121156
112,12,24,Jits_Pract_8,1,5,63,98,1279210816
112,12,24,Jits_Pract_8,2,5,56,103,1279240476
112,12,24,Jits_Pract_8,3,5,80,127,1279300940
112,12,24,Jits_Pract_8,0,1,48,50,1279944768
112,12,24,Jits_Pract_8,1,5,56,103,1279951384
112,12,24,Jits_Pract_8,2,5,80,127,1279954304
112,12,24,Jits_Pract_8,3,5,63,98,1280071092
112,12,24,Jits_Pract_8,0,1,48,48,1280661320
112,12,24,Jits_Pract_8,1,5,56,103,1280830828
112,12,24,Jits_Pract_8,2,5,80,127,1280870620
112,12,24,Jits_Pract_8,3,5,63,98,1280880964
112,12,24,Jits_Pract_8,0,1,48,53,1281493616
112,12,24,Jits_Pract_8,1,5,56,103,1281591404
112,12,24,Jits_Pract_8,2,5,80,127,1281611412
112,12,24,Jits_Pract_8,3,5,63,98,1281691056
112,12,24,Jits_Pract_8,0,1,48,49,1282283180
112,12,24,Jits_Pract_8,1,5,80,127,1282381284
112,12,24,Jits_Pract_8,2,5,56,103,1282480644
112,12,24,Jits_Pract_8,3,5,63,98,1282490688
112,12,24,Jits_Pract_8,0,1,48,49,1283083016
112,12,24,Jits_Pract_8,1,5,63,98,1283151148
112,12,24,Jits_Pract_8,2,5,80,127,1283210556
112,12,24,Jits_Pract_8,3,5,56,103,1283220972
112,12,24,Jits_Pract_8,0,1,48,51,1283818552
112,12,24,Jits_Pract_8,1,5,56,103,1283951032
112,12,24,Jits_Pract_8,2,5,63,98,1284020516
112,12,24,Jits_Pract_8,3,5,80,127,1284023804
112,12,24,Jits_Pract_8,0,9999,9999,9999,1273218164
112,12,24,Jits_Pract_8,1,9999,9999,9999,1274018924
112,12,24,Jits_Pract_8,2,9999,9999,9999,1274818680
112,12,24,Jits_Pract_8,3,9999,9999,9999,1275618392
112,12,24,Jits_Pract_8,4,9999,9999,9999,1276418160
112,12,24,Jits_Pract_8,5,9999,9999,9999,1277218892
112,12,24,Jits_Pract_8,6,9999,9999,9999,1278018644
112,12,24,Jits_Pract_8,7,9999,9999,9999,1278818416
112,12,24,Jits_Pract_8,8,9999,9999,9999,1279618108
112,12,24,Jits_Pract_8,9,9999,9999,9999,1280418896
112,12,24,Jits_Pract_8,10,9999,9999,9999,1281218680
112,12,24,Jits_Pract_8,11,9999,9999,9999,1282018360
112,12,24,Jits_Pract_8,12,9999,9999,9999,1282818120
112,12,24,Jits_Pract_8,13,9999,9999,9999,1283618916
112,12,24,Jits_Pract_8,14,9999,9999,9999,1284418660
112,13,25,Jits_Pract_5,0,5,56,103,1295068500
112,13,25,Jits_Pract_5,1,5,63,98,1295071896
112,13,25,Jits_Pract_5,2,5,80,127,1295074944
112,13,25,Jits_Pract_5,0,5,56,103,1295569272
112,13,25,Jits_Pract_5,1,5,63,98,1295572364
112,13,25,Jits_Pract_5,2,5,80,127,1295575492
112,13,25,Jits_Pract_5,0,5,56,103,1296069088
112,13,25,Jits_Pract_5,1,5,80,127,1296079360
112,13,25,Jits_Pract_5,2,5,63,98,1296098548
112,13,25,Jits_Pract_5,0,5,63,98,1296518464
112,13,25,Jits_Pract_5,1,5,80,127,1296549188
112,13,25,Jits_Pract_5,2,5,56,103,1296558436
112,13,25,Jits_Pract_5,3,1,48,51,1296647932
112,13,25,Jits_Pract_5,0,1,48,49,1297070360
112,13,25,Jits_Pract_5,1,5,80,127,1297078556
112,13,25,Jits_Pract_5,2,5,56,103,1297089124
112,13,25,Jits_Pract_5,3,5,63,98,1297118652
112,13,25,Jits_Pract_5,0,1,48,57,1297535932
112,13,25,Jits_Pract_5,1,5,63,98,1297569160
112,13,25,Jits_Pract_5,2,5,56,103,1297599012
112,13,25,Jits_Pract_5,3,5,80,127,1297609060
112,13,25,Jits_Pract_5,0,5,56,103,1298018740
112,13,25,Jits_Pract_5,1,1,48,55,1298037452
112,13,25,Jits_Pract_5,2,5,63,98,1298068864
112,13,25,Jits_Pract_5,3,5,80,127,1298089272
112,13,25,Jits_Pract_5,0,1,48,53,1298516232
112,13,25,Jits_Pract_5,1,5,80,127,1298519340
112,13,25,Jits_Pract_5,2,5,63,98,1298568496
112,13,25,Jits_Pract_5,3,5,56,103,1298609040
112,13,25,Jits_Pract_5,0,1,48,52,1299006580
112,13,25,Jits_Pract_5,1,5,56,103,1299019256
112,13,25,Jits_Pract_5,2,5,63,98,1299049004
112,13,25,Jits_Pract_5,3,5,80,127,1299118396
112,13,25,Jits_Pract_5,0,1,48,51,1299501980
112,13,25,Jits_Pract_5,1,5,56,103,1299519020
112,13,25,Jits_Pract_5,2,5,80,127,1299579336
112,13,25,Jits_Pract_5,3,5,63,98,1299609072
112,13,25,Jits_Pract_5,0,1,48,55,1299964288
112,13,25,Jits_Pract_5,1,5,56,103,1300028976
112,13,25,Jits_Pract_5,2,5,63,98,1300039172
112,13,25,Jits_Pract_5,3,5,80,127,1300078948
112,13,25,Jits_Pract_5,0,1,48,55,1300447056
112,13,25,Jits_Pract_5,1,5,63,98,1300519228
112,13,25,Jits_Pract_5,2,5,80,127,1300599236
112,13,25,Jits_Pract_5,3,5,56,103,1300609280
112,13,25,Jits_Pract_5,0,1,48,51,1300958216
112,13,25,Jits_Pract_5,1,5,63,98,1301069104
112,13,25,Jits_Pract_5,2,5,56,103,1301109116
112,13,25,Jits_Pract_5,3,5,80,127,1301112184
112,13,25,Jits_Pract_5,0,1,48,51,1301473168
112,13,25,Jits_Pract_5,1,5,56,103,1301529096
112,13,25,Jits_Pract_5,2,5,63,98,1301539216
112,13,25,Jits_Pract_5,3,5,80,127,1301579064
112,13,25,Jits_Pract_5,0,1,48,54,1301938104
112,13,25,Jits_Pract_5,1,5,56,103,1302018444
112,13,25,Jits_Pract_5,2,5,63,98,1302021360
112,13,25,Jits_Pract_5,3,5,80,127,1302039184
112,13,25,Jits_Pract_5,0,9999,9999,9999,1295317060
112,13,25,Jits_Pract_5,1,9999,9999,9999,1295816784
112,13,25,Jits_Pract_5,2,9999,9999,9999,1296316532
112,13,25,Jits_Pract_5,3,9999,9999,9999,1296816248
112,13,25,Jits_Pract_5,4,9999,9999,9999,1297316968
112,13,25,Jits_Pract_5,5,9999,9999,9999,1297816664
112,13,25,Jits_Pract_5,6,9999,9999,9999,1298316356
112,13,25,Jits_Pract_5,7,9999,9999,9999,1298816064
112,13,25,Jits_Pract_5,8,9999,9999,9999,1299316800
112,13,25,Jits_Pract_5,9,9999,9999,9999,1299816568
112,13,25,Jits_Pract_5,10,9999,9999,9999,1300316260
112,13,25,Jits_Pract_5,11,9999,9999,9999,1300817000
112,13,25,Jits_Pract_5,12,9999,9999,9999,1301316688
112,13,25,Jits_Pract_5,13,9999,9999,9999,1301816376
112,13,25,Jits_Pract_5,14,9999,9999,9999,1302316128
112,14,7,Jits_ISO_8,0,5,56,103,1331091760
112,14,7,Jits_ISO_8,1,5,63,98,1331094860
112,14,7,Jits_ISO_8,2,5,80,127,1331097836
112,14,7,Jits_ISO_8,0,5,56,103,1331891784
112,14,7,Jits_ISO_8,1,5,63,98,1331894888
112,14,7,Jits_ISO_8,2,5,80,127,1331898008
112,14,7,Jits_ISO_8,0,5,80,127,1332631912
112,14,7,Jits_ISO_8,1,5,63,98,1332722000
112,14,7,Jits_ISO_8,2,5,56,103,1332732568
112,14,7,Jits_ISO_8,0,5,56,103,1333452112
112,14,7,Jits_ISO_8,1,5,63,98,1333462456
112,14,7,Jits_ISO_8,2,1,48,62,1333530988
112,14,7,Jits_ISO_8,3,5,80,127,1333551608
112,14,7,Jits_ISO_8,0,5,63,98,1334222164
112,14,7,Jits_ISO_8,1,1,48,69,1334239528
112,14,7,Jits_ISO_8,2,5,80,127,1334251760
112,14,7,Jits_ISO_8,3,5,56,103,1334281732
112,14,7,Jits_ISO_8,0,5,56,103,1335021936
112,14,7,Jits_ISO_8,1,1,48,57,1335026620
112,14,7,Jits_ISO_8,2,5,80,127,1335122612
112,14,7,Jits_ISO_8,3,5,63,98,1335171544
112,14,7,Jits_ISO_8,0,5,56,103,1335821664
112,14,7,Jits_ISO_8,1,1,48,56,1335840000
112,14,7,Jits_ISO_8,2,5,80,127,1335871860
112,14,7,Jits_ISO_8,3,5,63,98,1335911796
112,14,7,Jits_ISO_8,0,1,48,58,1336583512
112,14,7,Jits_ISO_8,1,5,80,127,1336652316
112,14,7,Jits_ISO_8,2,5,63,98,1336681772
112,14,7,Jits_ISO_8,3,5,56,103,1336751464
112,14,7,Jits_ISO_8,0,1,48,51,1337369572
112,14,7,Jits_ISO_8,1,5,63,98,1337481612
112,14,7,Jits_ISO_8,2,5,56,103,1337512432
112,14,7,Jits_ISO_8,3,5,80,127,1337571552
112,14,7,Jits_ISO_8,0,1,48,53,1338171928
112,14,7,Jits_ISO_8,1,5,56,103,1338221844
112,14,7,Jits_ISO_8,2,5,80,127,1338224916
112,14,7,Jits_ISO_8,3,5,63,98,1338341732
112,14,7,Jits_ISO_8,0,1,48,48,1338907548
112,14,7,Jits_ISO_8,1,5,56,103,1339101648
112,14,7,Jits_ISO_8,2,5,80,127,1339141440
112,14,7,Jits_ISO_8,3,5,63,98,1339151636
112,14,7,Jits_ISO_8,0,1,48,54,1339760924
112,14,7,Jits_ISO_8,1,5,56,103,1339862400
112,14,7,Jits_ISO_8,2,5,80,127,1339881960
112,14,7,Jits_ISO_8,3,5,63,98,1339961684
112,14,7,Jits_ISO_8,0,1,48,44,1340598632
112,14,7,Jits_ISO_8,1,5,80,127,1340651864
112,14,7,Jits_ISO_8,2,5,56,103,1340752172
112,14,7,Jits_ISO_8,3,5,63,98,1340761396
112,14,7,Jits_ISO_8,0,1,48,54,1341388976
112,14,7,Jits_ISO_8,1,5,63,98,1341421976
112,14,7,Jits_ISO_8,2,5,80,127,1341482292
112,14,7,Jits_ISO_8,3,5,56,103,1341491724
112,14,7,Jits_ISO_8,0,1,48,51,1342121412
112,14,7,Jits_ISO_8,1,5,56,103,1342221816
112,14,7,Jits_ISO_8,2,5,63,98,1342292396
112,14,7,Jits_ISO_8,3,5,80,127,1342295832
112,14,7,Jits_ISO_8,0,1,48,40,1342903720
112,14,7,Jits_ISO_8,1,5,63,98,1343052008
112,14,7,Jits_ISO_8,2,5,56,103,1343102356
112,14,7,Jits_ISO_8,3,5,80,127,1343105500
112,14,7,Jits_ISO_8,0,1,48,48,1343695996
112,14,7,Jits_ISO_8,1,5,56,103,1343811916
112,14,7,Jits_ISO_8,2,5,80,127,1343815280
112,14,7,Jits_ISO_8,3,5,63,98,1343902124
112,14,7,Jits_ISO_8,0,1,48,47,1344540348
112,14,7,Jits_ISO_8,1,5,63,98,1344651620
112,14,7,Jits_ISO_8,2,5,56,103,1344741708
112,14,7,Jits_ISO_8,3,5,80,127,1344771380
112,14,7,Jits_ISO_8,0,1,48,48,1345391304
112,14,7,Jits_ISO_8,1,5,56,103,1345442352
112,14,7,Jits_ISO_8,2,5,63,98,1345541564
112,14,7,Jits_ISO_8,3,5,80,127,1345572512
112,14,7,Jits_ISO_8,0,1,48,55,1346206824
112,14,7,Jits_ISO_8,1,5,63,98,1346262468
112,14,7,Jits_ISO_8,2,5,56,103,1346271544
112,14,7,Jits_ISO_8,3,5,80,127,1346361660
112,14,7,Jits_ISO_8,0,1,48,54,1346987668
112,14,7,Jits_ISO_8,1,5,63,98,1347081732
112,14,7,Jits_ISO_8,2,5,56,103,1347161440
112,14,7,Jits_ISO_8,3,5,80,127,1347164432
112,14,7,Jits_ISO_8,0,1,48,49,1347767144
112,14,7,Jits_ISO_8,1,5,80,127,1347842476
112,14,7,Jits_ISO_8,2,5,63,98,1347861964
112,14,7,Jits_ISO_8,3,5,56,103,1347922264
112,14,7,Jits_ISO_8,0,1,48,46,1348565056
112,14,7,Jits_ISO_8,1,5,56,103,1348681952
112,14,7,Jits_ISO_8,2,5,63,98,1348701660
112,14,7,Jits_ISO_8,3,5,80,127,1348704876
112,14,7,Jits_ISO_8,0,1,48,56,1349325344
112,14,7,Jits_ISO_8,1,5,63,98,1349421560
112,14,7,Jits_ISO_8,2,5,80,127,1349502404
112,14,7,Jits_ISO_8,3,5,56,103,1349511556
112,14,7,Jits_ISO_8,0,1,48,42,1350087136
112,14,7,Jits_ISO_8,1,5,63,98,1350241648
112,14,7,Jits_ISO_8,2,5,56,103,1350262552
112,14,7,Jits_ISO_8,3,5,80,127,1350312480
112,14,7,Jits_ISO_8,0,1,48,52,1350816012
112,14,7,Jits_ISO_8,1,5,80,127,1351042324
112,14,7,Jits_ISO_8,2,5,63,98,1351082436
112,14,7,Jits_ISO_8,3,5,56,103,1351101700
112,14,7,Jits_ISO_8,0,1,48,53,1351685720
112,14,7,Jits_ISO_8,1,5,56,103,1351882212
112,14,7,Jits_ISO_8,2,5,63,98,1351892480
112,14,7,Jits_ISO_8,3,5,80,127,1351911672
112,14,7,Jits_ISO_8,0,1,48,41,1352524536
112,14,7,Jits_ISO_8,1,5,56,103,1352612252
112,14,7,Jits_ISO_8,2,5,63,98,1352702448
112,14,7,Jits_ISO_8,3,5,80,127,1352761644
112,14,7,Jits_ISO_8,0,1,48,53,1353339820
112,14,7,Jits_ISO_8,1,5,80,127,1353441544
112,14,7,Jits_ISO_8,2,5,56,103,1353452036
112,14,7,Jits_ISO_8,3,5,63,98,1353521492
112,14,7,Jits_ISO_8,0,5,63,98,1354272432
112,14,7,Jits_ISO_8,1,5,80,127,1354362348
112,14,7,Jits_ISO_8,2,5,56,103,1354371572
112,14,7,Jits_ISO_8,3,1,48,37,1354538172
112,14,7,Jits_ISO_8,0,5,63,98,1355011536
112,14,7,Jits_ISO_8,1,5,80,127,1355061592
112,14,7,Jits_ISO_8,2,5,56,103,1355121980
112,14,7,Jits_ISO_8,3,1,48,49,1355145024
112,14,7,Jits_ISO_8,0,1,48,49,1355807304
112,14,7,Jits_ISO_8,1,5,56,103,1355841876
112,14,7,Jits_ISO_8,2,5,80,127,1355892228
112,14,7,Jits_ISO_8,3,5,63,98,1355911404
112,14,7,Jits_ISO_8,0,5,56,103,1356612140
112,14,7,Jits_ISO_8,1,1,48,48,1356621864
112,14,7,Jits_ISO_8,2,5,80,127,1356672380
112,14,7,Jits_ISO_8,3,5,63,98,1356741996
112,14,7,Jits_ISO_8,0,5,56,103,1357411712
112,14,7,Jits_ISO_8,1,1,48,43,1357422548
112,14,7,Jits_ISO_8,2,5,80,127,1357442428
112,14,7,Jits_ISO_8,3,5,63,98,1357472328
112,14,7,Jits_ISO_8,0,1,48,41,1358134304
112,14,7,Jits_ISO_8,1,5,56,103,1358252416
112,14,7,Jits_ISO_8,2,5,80,127,1358271828
112,14,7,Jits_ISO_8,3,5,63,98,1358332440
112,14,7,Jits_ISO_8,0,1,48,52,1358897364
112,14,7,Jits_ISO_8,1,5,80,127,1359132144
112,14,7,Jits_ISO_8,2,5,56,103,1359142340
112,14,7,Jits_ISO_8,3,5,63,98,1359151416
112,14,7,Jits_ISO_8,0,1,48,47,1359715592
112,14,7,Jits_ISO_8,1,5,56,103,1359891776
112,14,7,Jits_ISO_8,2,5,80,127,1359931716
112,14,7,Jits_ISO_8,3,5,63,98,1359961316
112,14,7,Jits_ISO_8,0,1,48,47,1360576388
112,14,7,Jits_ISO_8,1,5,56,103,1360661836
112,14,7,Jits_ISO_8,2,5,63,98,1360691424
112,14,7,Jits_ISO_8,3,5,80,127,1360731512
112,14,7,Jits_ISO_8,0,1,48,38,1361333696
112,14,7,Jits_ISO_8,1,5,80,127,1361411420
112,14,7,Jits_ISO_8,2,5,63,98,1361461536
112,14,7,Jits_ISO_8,3,5,56,103,1361482364
112,14,7,Jits_ISO_8,0,1,48,50,1362102312
112,14,7,Jits_ISO_8,1,5,56,103,1362241976
112,14,7,Jits_ISO_8,2,5,80,127,1362311436
112,14,7,Jits_ISO_8,3,5,63,98,1362372072
112,14,7,Jits_ISO_8,0,1,48,46,1362948388
112,14,7,Jits_ISO_8,1,5,80,127,1363041688
112,14,7,Jits_ISO_8,2,5,63,98,1363131628
112,14,7,Jits_ISO_8,3,5,56,103,1363152308
112,14,7,Jits_ISO_8,0,1,48,47,1363759800
112,14,7,Jits_ISO_8,1,5,63,98,1363862148
112,14,7,Jits_ISO_8,2,5,56,103,1363882412
112,14,7,Jits_ISO_8,3,5,80,127,1363922276
112,14,7,Jits_ISO_8,0,1,48,51,1364566468
112,14,7,Jits_ISO_8,1,5,80,127,1364621716
112,14,7,Jits_ISO_8,2,5,63,98,1364642176
112,14,7,Jits_ISO_8,3,5,56,103,1364722252
112,14,7,Jits_ISO_8,0,1,48,40,1365408544
112,14,7,Jits_ISO_8,1,5,63,98,1365412348
112,14,7,Jits_ISO_8,2,5,56,103,1365521644
112,14,7,Jits_ISO_8,3,5,80,127,1365524792
112,14,7,Jits_ISO_8,0,1,48,49,1366177596
112,14,7,Jits_ISO_8,1,5,63,98,1366232352
112,14,7,Jits_ISO_8,2,5,56,103,1366241572
112,14,7,Jits_ISO_8,3,5,80,127,1366244640
112,14,7,Jits_ISO_8,0,1,48,51,1366877864
112,14,7,Jits_ISO_8,1,5,56,103,1367011648
112,14,7,Jits_ISO_8,2,5,80,127,1367131380
112,14,7,Jits_ISO_8,3,5,63,98,1367171392
112,14,7,Jits_ISO_8,0,1,48,46,1367802060
112,14,7,Jits_ISO_8,1,5,56,103,1367831976
112,14,7,Jits_ISO_8,2,5,80,127,1367911760
112,14,7,Jits_ISO_8,3,5,63,98,1367932220
112,14,7,Jits_ISO_8,0,5,56,103,1368631692
112,14,7,Jits_ISO_8,1,1,48,46,1368648968
112,14,7,Jits_ISO_8,2,5,63,98,1368742372
112,14,7,Jits_ISO_8,3,5,80,127,1368746248
112,14,7,Jits_ISO_8,0,1,48,39,1369455652
112,14,7,Jits_ISO_8,1,5,56,103,1369462196
112,14,7,Jits_ISO_8,2,5,80,127,1369491796
112,14,7,Jits_ISO_8,3,5,63,98,1369512356
112,14,7,Jits_ISO_8,0,1,48,38,1370208972
112,14,7,Jits_ISO_8,1,5,63,98,1370242276
112,14,7,Jits_ISO_8,2,5,56,103,1370251720
112,14,7,Jits_ISO_8,3,5,80,127,1370261992
112,14,7,Jits_ISO_8,0,1,48,46,1370937872
112,14,7,Jits_ISO_8,1,5,80,127,1371032068
112,14,7,Jits_ISO_8,2,5,56,103,1371082072
112,14,7,Jits_ISO_8,3,5,63,98,1371122236
112,14,7,Jits_ISO_8,0,1,48,38,1371801348
112,14,7,Jits_ISO_8,1,5,80,127,1371852196
112,14,7,Jits_ISO_8,2,5,63,98,1371871460
112,14,7,Jits_ISO_8,3,5,56,103,1371921648
112,14,7,Jits_ISO_8,0,1,48,45,1372565688
112,14,7,Jits_ISO_8,1,5,80,127,1372663052
112,14,7,Jits_ISO_8,2,5,56,103,1372691980
112,14,7,Jits_ISO_8,3,5,63,98,1372761436
112,14,7,Jits_ISO_8,0,1,48,46,1373411208
112,14,7,Jits_ISO_8,1,5,56,103,1373512064
112,14,7,Jits_ISO_8,2,5,80,127,1373522260
112,14,7,Jits_ISO_8,3,5,63,98,1373562196
112,14,7,Jits_ISO_8,0,5,56,103,1374221668
112,14,7,Jits_ISO_8,1,5,63,98,1374242200
112,14,7,Jits_ISO_8,2,1,48,48,1374245616
112,14,7,Jits_ISO_8,3,5,80,127,1374311724
112,14,7,Jits_ISO_8,0,1,48,40,1374986508
112,14,7,Jits_ISO_8,1,5,63,98,1375041980
112,14,7,Jits_ISO_8,2,5,80,127,1375102284
112,14,7,Jits_ISO_8,3,5,56,103,1375121768
112,14,7,Jits_ISO_8,0,1,48,44,1375794008
112,14,7,Jits_ISO_8,1,5,80,127,1375832320
112,14,7,Jits_ISO_8,2,5,56,103,1375862220
112,14,7,Jits_ISO_8,3,5,63,98,1375891956
112,14,7,Jits_ISO_8,0,1,48,43,1376559260
112,14,7,Jits_ISO_8,1,5,56,103,1376632176
112,14,7,Jits_ISO_8,2,5,63,98,1376691456
112,14,7,Jits_ISO_8,3,5,80,127,1376752220
112,14,7,Jits_ISO_8,0,1,48,41,1377320524
112,14,7,Jits_ISO_8,1,5,80,127,1377452572
112,14,7,Jits_ISO_8,2,5,56,103,1377471908
112,14,7,Jits_ISO_8,3,5,63,98,1377541516
112,14,7,Jits_ISO_8,0,1,48,42,1378146744
112,14,7,Jits_ISO_8,1,5,80,127,1378252204
112,14,7,Jits_ISO_8,2,5,63,98,1378271468
112,14,7,Jits_ISO_8,3,5,56,103,1378302412
112,14,7,Jits_ISO_8,0,1,48,42,1378958884
112,14,7,Jits_ISO_8,1,5,80,127,1379041584
112,14,7,Jits_ISO_8,2,5,63,98,1379062104
112,14,7,Jits_ISO_8,3,5,56,103,1379121376
112,14,7,Jits_ISO_8,0,1,48,48,1379744960
112,14,7,Jits_ISO_8,1,5,80,127,1379842396
112,14,7,Jits_ISO_8,2,5,56,103,1379941752
112,14,7,Jits_ISO_8,3,5,63,98,1379971500
112,14,7,Jits_ISO_8,0,1,48,40,1380623744
112,14,7,Jits_ISO_8,1,5,63,98,1380632084
112,14,7,Jits_ISO_8,2,5,80,127,1380682064
112,14,7,Jits_ISO_8,3,5,56,103,1380701552
112,14,7,Jits_ISO_8,0,1,48,39,1381386584
112,14,7,Jits_ISO_8,1,5,80,127,1381471652
112,14,7,Jits_ISO_8,2,5,56,103,1381502284
112,14,7,Jits_ISO_8,3,5,63,98,1381505352
112,14,7,Jits_ISO_8,0,1,48,42,1382202772
112,14,7,Jits_ISO_8,1,5,63,98,1382301980
112,14,7,Jits_ISO_8,2,5,56,103,1382342020
112,14,7,Jits_ISO_8,3,5,80,127,1382361432
112,14,7,Jits_ISO_8,0,1,48,47,1382958276
112,14,7,Jits_ISO_8,1,5,80,127,1383042372
112,14,7,Jits_ISO_8,2,5,63,98,1383122180
112,14,7,Jits_ISO_8,3,5,56,103,1383162192
112,14,7,Jits_ISO_8,0,1,48,48,1383818220
112,14,7,Jits_ISO_8,1,5,63,98,1383861664
112,14,7,Jits_ISO_8,2,5,80,127,1383941372
112,14,7,Jits_ISO_8,3,5,56,103,1383961980
112,14,7,Jits_ISO_8,0,1,48,52,1384654008
112,14,7,Jits_ISO_8,1,5,56,103,1384702360
112,14,7,Jits_ISO_8,2,5,63,98,1384711508
112,14,7,Jits_ISO_8,3,5,80,127,1384751432
112,14,7,Jits_ISO_8,0,5,56,103,1385422132
112,14,7,Jits_ISO_8,1,5,80,127,1385425196
112,14,7,Jits_ISO_8,2,1,48,49,1385449364
112,14,7,Jits_ISO_8,3,5,63,98,1385561388
112,14,7,Jits_ISO_8,0,5,56,103,1386211652
112,14,7,Jits_ISO_8,1,1,48,45,1386248928
112,14,7,Jits_ISO_8,2,5,63,98,1386301932
112,14,7,Jits_ISO_8,3,5,80,127,1386371452
112,14,7,Jits_ISO_8,0,1,48,45,1387035772
112,14,7,Jits_ISO_8,1,5,63,98,1387092212
112,14,7,Jits_ISO_8,2,5,80,127,1387095804
112,14,7,Jits_ISO_8,3,5,56,103,1387151840
112,14,7,Jits_ISO_8,0,1,48,42,1387864768
112,14,7,Jits_ISO_8,1,5,80,127,1387932076
112,14,7,Jits_ISO_8,2,5,56,103,1387951368
112,14,7,Jits_ISO_8,3,5,63,98,1387962068
112,14,7,Jits_ISO_8,0,5,56,103,1388641820
112,14,7,Jits_ISO_8,1,5,63,98,1388652164
112,14,7,Jits_ISO_8,2,1,48,44,1388703232
112,14,7,Jits_ISO_8,3,5,80,127,1388721492
112,14,7,Jits_ISO_8,0,1,48,40,1389435360
112,14,7,Jits_ISO_8,1,5,80,127,1389442356
112,14,7,Jits_ISO_8,2,5,56,103,1389491464
112,14,7,Jits_ISO_8,3,5,63,98,1389541872
112,14,7,Jits_ISO_8,0,1,48,38,1390226224
112,14,7,Jits_ISO_8,1,5,56,103,1390322244
112,14,7,Jits_ISO_8,2,5,63,98,1390332216
112,14,7,Jits_ISO_8,3,5,80,127,1390372152
112,14,7,Jits_ISO_8,0,1,48,45,1390986156
112,14,7,Jits_ISO_8,1,5,56,103,1391062336
112,14,7,Jits_ISO_8,2,5,63,98,1391102260
112,14,7,Jits_ISO_8,3,5,80,127,1391151416
112,14,7,Jits_ISO_8,0,1,48,39,1391793988
112,14,7,Jits_ISO_8,1,5,80,127,1391822188
112,14,7,Jits_ISO_8,2,5,56,103,1391872316
112,14,7,Jits_ISO_8,3,5,63,98,1391892084
112,14,7,Jits_ISO_8,0,1,48,46,1392566420
112,14,7,Jits_ISO_8,1,5,80,127,1392632232
112,14,7,Jits_ISO_8,2,5,63,98,1392691564
112,14,7,Jits_ISO_8,3,5,56,103,1392771432
112,14,7,Jits_ISO_8,0,1,48,53,1393388224
112,14,7,Jits_ISO_8,1,5,80,127,1393411636
112,14,7,Jits_ISO_8,2,5,56,103,1393452328
112,14,7,Jits_ISO_8,3,5,63,98,1393472036
112,14,7,Jits_ISO_8,0,1,48,52,1394226068
112,14,7,Jits_ISO_8,1,5,56,103,1394262364
112,14,7,Jits_ISO_8,2,5,80,127,1394271812
112,14,7,Jits_ISO_8,3,5,63,98,1394311452
112,14,7,Jits_ISO_8,0,5,56,103,1395131932
112,14,7,Jits_ISO_8,1,1,48,31,1395161880
112,14,7,Jits_ISO_8,2,5,63,98,1395171864
112,14,7,Jits_ISO_8,3,5,80,127,1395175004
112,14,7,Jits_ISO_8,0,5,63,98,1395821796
112,14,7,Jits_ISO_8,1,5,80,127,1395861736
112,14,7,Jits_ISO_8,2,1,48,48,1395875512
112,14,7,Jits_ISO_8,3,5,56,103,1395931432
112,14,7,Jits_ISO_8,0,5,63,98,1396611536
112,14,7,Jits_ISO_8,1,1,48,50,1396631364
112,14,7,Jits_ISO_8,2,5,56,103,1396692324
112,14,7,Jits_ISO_8,3,5,80,127,1396751800
112,14,7,Jits_ISO_8,0,5,80,127,1397421308
112,14,7,Jits_ISO_8,1,1,48,44,1397440168
112,14,7,Jits_ISO_8,2,5,63,98,1397471880
112,14,7,Jits_ISO_8,3,5,56,103,1397502304
112,14,7,Jits_ISO_8,0,5,56,103,1398211964
112,14,7,Jits_ISO_8,1,5,63,98,1398262016
112,14,7,Jits_ISO_8,2,5,80,127,1398272584
112,14,7,Jits_ISO_8,3,1,48,23,1398274596
112,14,7,Jits_ISO_8,0,1,48,44,1398952828
112,14,7,Jits_ISO_8,1,5,56,103,1399021860
112,14,7,Jits_ISO_8,2,5,63,98,1399131612
112,14,7,Jits_ISO_8,3,5,80,127,1399151920
112,14,7,Jits_ISO_8,0,1,48,54,1399792704
112,14,7,Jits_ISO_8,1,5,63,98,1399821796
112,14,7,Jits_ISO_8,2,5,80,127,1399871848
112,14,7,Jits_ISO_8,3,5,56,103,1399962040
112,14,7,Jits_ISO_8,0,1,48,54,1400587384
112,14,7,Jits_ISO_8,1,5,63,98,1400612216
112,14,7,Jits_ISO_8,2,5,80,127,1400641964
112,14,7,Jits_ISO_8,3,5,56,103,1400732008
112,14,7,Jits_ISO_8,0,1,48,30,1401360048
112,14,7,Jits_ISO_8,1,5,63,98,1401411920
112,14,7,Jits_ISO_8,2,5,56,103,1401422116
112,14,7,Jits_ISO_8,3,5,80,127,1401521696
112,14,7,Jits_ISO_8,0,1,48,45,1402117260
112,14,7,Jits_ISO_8,1,5,63,98,1402312028
112,14,7,Jits_ISO_8,2,5,80,127,1402341852
112,14,7,Jits_ISO_8,3,5,56,103,1402371604
112,14,7,Jits_ISO_8,0,5,80,127,1403132296
112,14,7,Jits_ISO_8,1,1,48,47,1403135936
112,14,7,Jits_ISO_8,2,5,63,98,1403141440
112,14,7,Jits_ISO_8,3,5,56,103,1403172088
112,14,7,Jits_ISO_8,0,5,80,127,1403831780
112,14,7,Jits_ISO_8,1,5,63,98,1403852092
112,14,7,Jits_ISO_8,2,5,56,103,1403902440
112,14,7,Jits_ISO_8,3,1,48,50,1403940328
112,14,7,Jits_ISO_8,0,5,63,98,1404661996
112,14,7,Jits_ISO_8,1,5,80,127,1404721788
112,14,7,Jits_ISO_8,2,5,56,103,1404741948
112,14,7,Jits_ISO_8,0,1,48,41,1405222708
112,14,7,Jits_ISO_8,1,5,63,98,1405421892
112,14,7,Jits_ISO_8,2,5,56,103,1405472024
112,14,7,Jits_ISO_8,3,5,80,127,1405482440
112,14,7,Jits_ISO_8,0,1,48,45,1406219176
112,14,7,Jits_ISO_8,1,5,56,103,1406252628
112,14,7,Jits_ISO_8,2,5,80,127,1406261628
112,14,7,Jits_ISO_8,3,5,63,98,1406361936
112,14,7,Jits_ISO_8,0,5,80,127,1407012260
112,14,7,Jits_ISO_8,1,5,63,98,1407021412
112,14,7,Jits_ISO_8,2,1,48,54,1407050160
112,14,7,Jits_ISO_8,3,5,56,103,1407172080
112,14,7,Jits_ISO_8,0,5,63,98,1407822172
112,14,7,Jits_ISO_8,1,5,80,127,1407862112
112,14,7,Jits_ISO_8,2,1,48,43,1407880376
112,14,7,Jits_ISO_8,3,5,56,103,1407941924
112,14,7,Jits_ISO_8,0,5,56,103,1408611912
112,14,7,Jits_ISO_8,1,1,48,45,1408648368
112,14,7,Jits_ISO_8,2,5,80,127,1408712180
112,14,7,Jits_ISO_8,3,5,63,98,1408731892
112,14,7,Jits_ISO_8,0,5,80,127,1409471752
112,14,7,Jits_ISO_8,1,1,48,48,1409476068
112,14,7,Jits_ISO_8,2,5,56,103,1409482016
112,14,7,Jits_ISO_8,3,5,63,98,1409572148
112,14,7,Jits_ISO_8,0,5,56,103,1410271704
112,14,7,Jits_ISO_8,1,1,48,45,1410287552
112,14,7,Jits_ISO_8,2,5,63,98,1410292008
112,14,7,Jits_ISO_8,3,5,80,127,1410371876
112,14,7,Jits_ISO_8,0,5,63,98,1411022128
112,14,7,Jits_ISO_8,1,1,48,49,1411078584
112,14,7,Jits_ISO_8,2,5,56,103,1411112404
112,14,7,Jits_ISO_8,3,5,80,127,1411115324
112,14,7,Jits_ISO_8,0,1,48,34,1411831912
112,14,7,Jits_ISO_8,1,5,56,103,1411851860
112,14,7,Jits_ISO_8,2,5,80,127,1411912104
112,14,7,Jits_ISO_8,3,5,63,98,1411922376
112,14,7,Jits_ISO_8,0,1,48,50,1412595204
112,14,7,Jits_ISO_8,1,5,80,127,1412701684
112,14,7,Jits_ISO_8,2,5,56,103,1412711804
112,14,7,Jits_ISO_8,3,5,63,98,1412714944
112,14,7,Jits_ISO_8,0,1,48,44,1413374968
112,14,7,Jits_ISO_8,1,5,56,103,1413462808
112,14,7,Jits_ISO_8,2,5,80,127,1413471588
112,14,7,Jits_ISO_8,3,5,63,98,1413492180
112,14,7,Jits_ISO_8,0,1,48,51,1414172584
112,14,7,Jits_ISO_8,1,5,63,98,1414232548
112,14,7,Jits_ISO_8,2,5,80,127,1414291880
112,14,7,Jits_ISO_8,3,5,56,103,1414342104
112,14,7,Jits_ISO_8,0,1,48,48,1415002640
112,14,7,Jits_ISO_8,1,5,63,98,1415111988
112,14,7,Jits_ISO_8,2,5,56,103,1415122260
112,14,7,Jits_ISO_8,3,5,80,127,1415171640
112,14,7,Jits_ISO_8,0,5,63,98,1415811676
112,14,7,Jits_ISO_8,1,1,48,47,1415824616
112,14,7,Jits_ISO_8,2,5,80,127,1415831908
112,14,7,Jits_ISO_8,3,5,56,103,1415842128
112,14,7,Jits_ISO_8,0,1,48,49,1416563392
112,14,7,Jits_ISO_8,1,5,63,98,1416612292
112,14,7,Jits_ISO_8,2,5,80,127,1416615580
112,14,7,Jits_ISO_8,3,5,56,103,1416652008
112,14,7,Jits_ISO_8,0,1,48,45,1417344868
112,14,7,Jits_ISO_8,1,5,63,98,1417481572
112,14,7,Jits_ISO_8,2,5,80,127,1417512520
112,14,7,Jits_ISO_8,3,5,56,103,1417521444
112,14,7,Jits_ISO_8,0,1,48,44,1418193164
112,14,7,Jits_ISO_8,1,5,56,103,1418232148
112,14,7,Jits_ISO_8,2,5,80,127,1418261824
112,14,7,Jits_ISO_8,3,5,63,98,1418291648
112,14,7,Jits_ISO_8,0,1,48,40,1418959288
112,14,7,Jits_ISO_8,1,5,63,98,1419132236
112,14,7,Jits_ISO_8,2,5,56,103,1419172276
112,14,7,Jits_ISO_8,3,5,80,127,1419175416
112,14,7,Jits_ISO_8,0,1,48,48,1419815948
112,14,7,Jits_ISO_8,1,5,80,127,1419831788
112,14,7,Jits_ISO_8,2,5,56,103,1419911568
112,14,7,Jits_ISO_8,3,5,63,98,1419961720
112,14,7,Jits_ISO_8,0,5,80,127,1420612024
112,14,7,Jits_ISO_8,1,5,56,103,1420632412
112,14,7,Jits_ISO_8,2,1,48,48,1420635380
112,14,7,Jits_ISO_8,3,5,63,98,1420721512
112,14,7,Jits_ISO_8,0,5,80,127,1421451600
112,14,7,Jits_ISO_8,1,5,63,98,1421491716
112,14,7,Jits_ISO_8,2,1,48,44,1421523676
112,14,7,Jits_ISO_8,3,5,56,103,1421531500
112,14,7,Jits_ISO_8,0,5,63,98,1422221804
112,14,7,Jits_ISO_8,1,1,48,45,1422262564
112,14,7,Jits_ISO_8,2,5,80,127,1422282064
112,14,7,Jits_ISO_8,3,5,56,103,1422311888
112,14,7,Jits_ISO_8,0,1,48,52,1423004240
112,14,7,Jits_ISO_8,1,5,56,103,1423021452
112,14,7,Jits_ISO_8,2,5,80,127,1423052024
112,14,7,Jits_ISO_8,3,5,63,98,1423142368
112,14,7,Jits_ISO_8,0,1,48,47,1423787856
112,14,7,Jits_ISO_8,1,5,56,103,1423832616
112,14,7,Jits_ISO_8,2,5,80,127,1423942072
112,14,7,Jits_ISO_8,3,5,63,98,1423971672
112,14,7,Jits_ISO_8,0,1,48,56,1424635004
112,14,7,Jits_ISO_8,1,5,56,103,1424682380
112,14,7,Jits_ISO_8,2,5,63,98,1424741640
112,14,7,Jits_ISO_8,3,5,80,127,1424771612
112,14,7,Jits_ISO_8,0,1,48,45,1425422132
112,14,7,Jits_ISO_8,1,5,56,103,1425452428
112,14,7,Jits_ISO_8,2,5,63,98,1425521948
112,14,7,Jits_ISO_8,3,5,80,127,1425541584
112,14,7,Jits_ISO_8,0,1,48,51,1426201920
112,14,7,Jits_ISO_8,1,5,80,127,1426221572
112,14,7,Jits_ISO_8,2,5,63,98,1426241884
112,14,7,Jits_ISO_8,3,5,56,103,1426292012
112,14,7,Jits_ISO_8,0,9999,9999,9999,1331489876
112,14,7,Jits_ISO_8,1,9999,9999,9999,1332289652
112,14,7,Jits_ISO_8,2,9999,9999,9999,1333089372
112,14,7,Jits_ISO_8,3,9999,9999,9999,1333889144
112,14,7,Jits_ISO_8,4,9999,9999,9999,1334689908
112,14,7,Jits_ISO_8,5,9999,9999,9999,1335489640
112,14,7,Jits_ISO_8,6,9999,9999,9999,1336289360
112,14,7,Jits_ISO_8,7,9999,9999,9999,1337089088
112,14,7,Jits_ISO_8,8,9999,9999,9999,1337889848
112,14,7,Jits_ISO_8,9,9999,9999,9999,1338689620
112,14,7,Jits_ISO_8,10,9999,9999,9999,1339489336
112,14,7,Jits_ISO_8,11,9999,9999,9999,1340289120
112,14,7,Jits_ISO_8,12,9999,9999,9999,1341089880
112,14,7,Jits_ISO_8,13,9999,9999,9999,1341889604
112,14,7,Jits_ISO_8,14,9999,9999,9999,1342689376
112,14,7,Jits_ISO_8,15,9999,9999,9999,1343489076
112,14,7,Jits_ISO_8,16,9999,9999,9999,1344289888
112,14,7,Jits_ISO_8,17,9999,9999,9999,1345089600
112,14,7,Jits_ISO_8,18,9999,9999,9999,1345889388
112,14,7,Jits_ISO_8,19,9999,9999,9999,1346689096
112,14,7,Jits_ISO_8,20,9999,9999,9999,1347489848
112,14,7,Jits_ISO_8,21,9999,9999,9999,1348289652
112,14,7,Jits_ISO_8,22,9999,9999,9999,1349089352
112,14,7,Jits_ISO_8,23,9999,9999,9999,1349889132
112,14,7,Jits_ISO_8,24,9999,9999,9999,1350689884
112,14,7,Jits_ISO_8,25,9999,9999,9999,1351489588
112,14,7,Jits_ISO_8,26,9999,9999,9999,1352289372
112,14,7,Jits_ISO_8,27,9999,9999,9999,1353089080
112,14,7,Jits_ISO_8,28,9999,9999,9999,1353889904
112,14,7,Jits_ISO_8,29,9999,9999,9999,1354689644
112,14,7,Jits_ISO_8,30,9999,9999,9999,1355489348
112,14,7,Jits_ISO_8,31,9999,9999,9999,1356289128
112,14,7,Jits_ISO_8,32,9999,9999,9999,1357089880
112,14,7,Jits_ISO_8,33,9999,9999,9999,1357889596
112,14,7,Jits_ISO_8,34,9999,9999,9999,1358689396
112,14,7,Jits_ISO_8,35,9999,9999,9999,1359489112
112,14,7,Jits_ISO_8,36,9999,9999,9999,1360289872
112,14,7,Jits_ISO_8,37,9999,9999,9999,1361089612
112,14,7,Jits_ISO_8,38,9999,9999,9999,1361889388
112,14,7,Jits_ISO_8,39,9999,9999,9999,1362689100
112,14,7,Jits_ISO_8,40,9999,9999,9999,1363489856
112,14,7,Jits_ISO_8,41,9999,9999,9999,1364289640
112,14,7,Jits_ISO_8,42,9999,9999,9999,1365089396
112,14,7,Jits_ISO_8,43,9999,9999,9999,1365889092
112,14,7,Jits_ISO_8,44,9999,9999,9999,1366689928
112,14,7,Jits_ISO_8,45,9999,9999,9999,1367489636
112,14,7,Jits_ISO_8,46,9999,9999,9999,1368289348
112,14,7,Jits_ISO_8,47,9999,9999,9999,1369089124
112,14,7,Jits_ISO_8,48,9999,9999,9999,1369889892
112,14,7,Jits_ISO_8,49,9999,9999,9999,1370689596
112,14,7,Jits_ISO_8,50,9999,9999,9999,1371489376
112,14,7,Jits_ISO_8,51,9999,9999,9999,1372289084
112,14,7,Jits_ISO_8,52,9999,9999,9999,1373089868
112,14,7,Jits_ISO_8,53,9999,9999,9999,1373889660
112,14,7,Jits_ISO_8,54,9999,9999,9999,1374689364
112,14,7,Jits_ISO_8,55,9999,9999,9999,1375489084
112,14,7,Jits_ISO_8,56,9999,9999,9999,1376289908
112,14,7,Jits_ISO_8,57,9999,9999,9999,1377089620
112,14,7,Jits_ISO_8,58,9999,9999,9999,1377889404
112,14,7,Jits_ISO_8,59,9999,9999,9999,1378689108
112,14,7,Jits_ISO_8,60,9999,9999,9999,1379489884
112,14,7,Jits_ISO_8,61,9999,9999,9999,1380289596
112,14,7,Jits_ISO_8,62,9999,9999,9999,1381089380
112,14,7,Jits_ISO_8,63,9999,9999,9999,1381889076
112,14,7,Jits_ISO_8,64,9999,9999,9999,1382689916
112,14,7,Jits_ISO_8,65,9999,9999,9999,1383489628
112,14,7,Jits_ISO_8,66,9999,9999,9999,1384289340
112,14,7,Jits_ISO_8,67,9999,9999,9999,1385089132
112,14,7,Jits_ISO_8,68,9999,9999,9999,1385889896
112,14,7,Jits_ISO_8,69,9999,9999,9999,1386689624
112,14,7,Jits_ISO_8,70,9999,9999,9999,1387489340
112,14,7,Jits_ISO_8,71,9999,9999,9999,1388289136
112,14,7,Jits_ISO_8,72,9999,9999,9999,1389089888
112,14,7,Jits_ISO_8,73,9999,9999,9999,1389889612
112,14,7,Jits_ISO_8,74,9999,9999,9999,1390689404
112,14,7,Jits_ISO_8,75,9999,9999,9999,1391489112
112,14,7,Jits_ISO_8,76,9999,9999,9999,1392289888
112,14,7,Jits_ISO_8,77,9999,9999,9999,1393089604
112,14,7,Jits_ISO_8,78,9999,9999,9999,1393889380
112,14,7,Jits_ISO_8,79,9999,9999,9999,1394689088
112,14,7,Jits_ISO_8,80,9999,9999,9999,1395489844
112,14,7,Jits_ISO_8,81,9999,9999,9999,1396289640
112,14,7,Jits_ISO_8,82,9999,9999,9999,1397089352
112,14,7,Jits_ISO_8,83,9999,9999,9999,1397889132
112,14,7,Jits_ISO_8,84,9999,9999,9999,1398689844
112,14,7,Jits_ISO_8,85,9999,9999,9999,1399489644
112,14,7,Jits_ISO_8,86,9999,9999,9999,1400289352
112,14,7,Jits_ISO_8,87,9999,9999,9999,1401089136
112,14,7,Jits_ISO_8,88,9999,9999,9999,1401889884
112,14,7,Jits_ISO_8,89,9999,9999,9999,1402689600
112,14,7,Jits_ISO_8,90,9999,9999,9999,1403489392
112,14,7,Jits_ISO_8,91,9999,9999,9999,1404289112
112,14,7,Jits_ISO_8,92,9999,9999,9999,1405089860
112,14,7,Jits_ISO_8,93,9999,9999,9999,1405889612
112,14,7,Jits_ISO_8,94,9999,9999,9999,1406689396
112,14,7,Jits_ISO_8,95,9999,9999,9999,1407489104
112,14,7,Jits_ISO_8,96,9999,9999,9999,1408289872
112,14,7,Jits_ISO_8,97,9999,9999,9999,1409089652
112,14,7,Jits_ISO_8,98,9999,9999,9999,1409889380
112,14,7,Jits_ISO_8,99,9999,9999,9999,1410689108
112,14,7,Jits_ISO_8,100,9999,9999,9999,1411489892
112,14,7,Jits_ISO_8,101,9999,9999,9999,1412289600
112,14,7,Jits_ISO_8,102,9999,9999,9999,1413089380
112,14,7,Jits_ISO_8,103,9999,9999,9999,1413889084
112,14,7,Jits_ISO_8,104,9999,9999,9999,1414689844
112,14,7,Jits_ISO_8,105,9999,9999,9999,1415489636
112,14,7,Jits_ISO_8,106,9999,9999,9999,1416289336
112,14,7,Jits_ISO_8,107,9999,9999,9999,1417089100
112,14,7,Jits_ISO_8,108,9999,9999,9999,1417889880
112,14,7,Jits_ISO_8,109,9999,9999,9999,1418689588
112,14,7,Jits_ISO_8,110,9999,9999,9999,1419489372
112,14,7,Jits_ISO_8,111,9999,9999,9999,1420289084
112,14,7,Jits_ISO_8,112,9999,9999,9999,1421089908
112,14,7,Jits_ISO_8,113,9999,9999,9999,1421889632
112,14,7,Jits_ISO_8,114,9999,9999,9999,1422689352
112,14,7,Jits_ISO_8,115,9999,9999,9999,1423489132
112,14,7,Jits_ISO_8,116,9999,9999,9999,1424289844
112,14,7,Jits_ISO_8,117,9999,9999,9999,1425089632
112,14,7,Jits_ISO_8,118,9999,9999,9999,1425889348
112,14,7,Jits_ISO_8,119,9999,9999,9999,1426689128
112,15,16,Jits_ISO_5,0,5,56,103,1434918260
112,15,16,Jits_ISO_5,1,5,63,98,1434921356
112,15,16,Jits_ISO_5,2,5,80,127,1434924480
112,15,16,Jits_ISO_5,0,5,56,103,1435417904
112,15,16,Jits_ISO_5,1,5,63,98,1435421228
112,15,16,Jits_ISO_5,2,5,80,127,1435424272
112,15,16,Jits_ISO_5,0,5,56,103,1435917640
112,15,16,Jits_ISO_5,1,5,80,127,1435927912
112,15,16,Jits_ISO_5,2,5,63,98,1435948520
112,15,16,Jits_ISO_5,0,5,63,98,1436368232
112,15,16,Jits_ISO_5,1,5,80,127,1436398056
112,15,16,Jits_ISO_5,2,5,56,103,1436408252
112,15,16,Jits_ISO_5,3,1,48,34,1436436624
112,15,16,Jits_ISO_5,0,1,48,48,1436921268
112,15,16,Jits_ISO_5,1,5,80,127,1436928416
112,15,16,Jits_ISO_5,2,5,56,103,1436937564
112,15,16,Jits_ISO_5,3,5,63,98,1436968284
112,15,16,Jits_ISO_5,0,1,48,47,1437395820
112,15,16,Jits_ISO_5,1,5,63,98,1437417812
112,15,16,Jits_ISO_5,2,5,56,103,1437447416
112,15,16,Jits_ISO_5,3,5,80,127,1437457684
112,15,16,Jits_ISO_5,0,5,56,103,1437868260
112,15,16,Jits_ISO_5,1,1,48,50,1437888236
112,15,16,Jits_ISO_5,2,5,63,98,1437917480
112,15,16,Jits_ISO_5,3,5,80,127,1437938164
112,15,16,Jits_ISO_5,0,1,48,49,1438366528
112,15,16,Jits_ISO_5,1,5,80,127,1438378336
112,15,16,Jits_ISO_5,2,5,63,98,1438427640
112,15,16,Jits_ISO_5,3,5,56,103,1438467412
112,15,16,Jits_ISO_5,0,1,48,48,1438855848
112,15,16,Jits_ISO_5,1,5,56,103,1438878196
112,15,16,Jits_ISO_5,2,5,63,98,1438907820
112,15,16,Jits_ISO_5,3,5,80,127,1438978304
112,15,16,Jits_ISO_5,0,1,48,47,1439355264
112,15,16,Jits_ISO_5,1,5,56,103,1439377700
112,15,16,Jits_ISO_5,2,5,80,127,1439438264
112,15,16,Jits_ISO_5,3,5,63,98,1439467848
112,15,16,Jits_ISO_5,0,1,48,47,1439843912
112,15,16,Jits_ISO_5,1,5,56,103,1439887624
112,15,16,Jits_ISO_5,2,5,63,98,1439897896
112,15,16,Jits_ISO_5,3,5,80,127,1439937856
112,15,16,Jits_ISO_5,0,1,48,50,1440355404
112,15,16,Jits_ISO_5,1,5,63,98,1440378364
112,15,16,Jits_ISO_5,2,5,80,127,1440458392
112,15,16,Jits_ISO_5,3,5,56,103,1440468436
112,15,16,Jits_ISO_5,0,1,48,48,1440856948
112,15,16,Jits_ISO_5,1,5,63,98,1440928244
112,15,16,Jits_ISO_5,2,5,56,103,1440968312
112,15,16,Jits_ISO_5,3,5,80,127,1440971304
112,15,16,Jits_ISO_5,0,1,48,45,1441364000
112,15,16,Jits_ISO_5,1,5,56,103,1441387784
112,15,16,Jits_ISO_5,2,5,63,98,1441398352
112,15,16,Jits_ISO_5,3,5,80,127,1441437992
112,15,16,Jits_ISO_5,0,1,48,46,1441854284
112,15,16,Jits_ISO_5,1,5,56,103,1441878368
112,15,16,Jits_ISO_5,2,5,63,98,1441881436
112,15,16,Jits_ISO_5,3,5,80,127,1441897928
112,15,16,Jits_ISO_5,0,1,48,45,1442325996
112,15,16,Jits_ISO_5,1,5,80,127,1442397420
112,15,16,Jits_ISO_5,2,5,56,103,1442407688
112,15,16,Jits_ISO_5,3,5,63,98,1442477300
112,15,16,Jits_ISO_5,0,1,48,50,1442847600
112,15,16,Jits_ISO_5,1,5,63,98,1442888228
112,15,16,Jits_ISO_5,2,5,56,103,1442907640
112,15,16,Jits_ISO_5,3,5,80,127,1442988264
112,15,16,Jits_ISO_5,0,1,48,48,1443382156
112,15,16,Jits_ISO_5,1,5,56,103,1443398220
112,15,16,Jits_ISO_5,2,5,80,127,1443438012
112,15,16,Jits_ISO_5,3,5,63,98,1443448204
112,15,16,Jits_ISO_5,0,1,48,48,1443854840
112,15,16,Jits_ISO_5,1,5,80,127,1443887392
112,15,16,Jits_ISO_5,2,5,63,98,1443918264
112,15,16,Jits_ISO_5,3,5,56,103,1443958332
112,15,16,Jits_ISO_5,0,1,48,46,1444345796
112,15,16,Jits_ISO_5,1,5,56,103,1444407796
112,15,16,Jits_ISO_5,2,5,63,98,1444438296
112,15,16,Jits_ISO_5,3,5,80,127,1444487504
112,15,16,Jits_ISO_5,0,1,48,46,1444862172
112,15,16,Jits_ISO_5,1,5,80,127,1444908352
112,15,16,Jits_ISO_5,2,5,56,103,1444948216
112,15,16,Jits_ISO_5,3,5,63,98,1444957664
112,15,16,Jits_ISO_5,0,1,48,40,1445365344
112,15,16,Jits_ISO_5,1,5,80,127,1445387488
112,15,16,Jits_ISO_5,2,5,63,98,1445427500
112,15,16,Jits_ISO_5,3,5,56,103,1445488168
112,15,16,Jits_ISO_5,0,5,56,103,1445888272
112,15,16,Jits_ISO_5,1,1,48,43,1445889760
112,15,16,Jits_ISO_5,2,5,80,127,1445897492
112,15,16,Jits_ISO_5,3,5,63,98,1445977428
112,15,16,Jits_ISO_5,0,5,80,127,1446388092
112,15,16,Jits_ISO_5,1,1,48,46,1446398556
112,15,16,Jits_ISO_5,2,5,63,98,1446447576
112,15,16,Jits_ISO_5,3,5,56,103,1446478148
112,15,16,Jits_ISO_5,0,1,48,42,1446886096
112,15,16,Jits_ISO_5,1,5,56,103,1446887684
112,15,16,Jits_ISO_5,2,5,80,127,1446948148
112,15,16,Jits_ISO_5,3,5,63,98,1446988068
112,15,16,Jits_ISO_5,0,1,48,45,1447397808
112,15,16,Jits_ISO_5,1,5,56,103,1447437764
112,15,16,Jits_ISO_5,2,5,63,98,1447447880
112,15,16,Jits_ISO_5,3,5,80,127,1447451244
112,15,16,Jits_ISO_5,0,1,48,46,1447873096
112,15,16,Jits_ISO_5,1,5,80,127,1447888264
112,15,16,Jits_ISO_5,2,5,63,98,1447978380
112,15,16,Jits_ISO_5,3,5,56,103,1447987456
112,15,16,Jits_ISO_5,0,5,56,103,1448387988
112,15,16,Jits_ISO_5,1,5,63,98,1448391236
112,15,16,Jits_ISO_5,2,5,80,127,1448394284
112,15,16,Jits_ISO_5,3,1,48,42,1448395768
112,15,16,Jits_ISO_5,0,1,48,46,1448859420
112,15,16,Jits_ISO_5,1,5,80,127,1448908320
112,15,16,Jits_ISO_5,2,5,63,98,1448958284
112,15,16,Jits_ISO_5,3,5,56,103,1448988104
112,15,16,Jits_ISO_5,0,1,48,48,1449365592
112,15,16,Jits_ISO_5,1,5,56,103,1449388424
112,15,16,Jits_ISO_5,2,5,80,127,1449397576
112,15,16,Jits_ISO_5,3,5,63,98,1449468356
112,15,16,Jits_ISO_5,0,1,48,51,1449850568
112,15,16,Jits_ISO_5,1,5,56,103,1449907636
112,15,16,Jits_ISO_5,2,5,63,98,1449928168
112,15,16,Jits_ISO_5,3,5,80,127,1449987344
112,15,16,Jits_ISO_5,0,1,48,45,1450357644
112,15,16,Jits_ISO_5,1,5,80,127,1450398276
112,15,16,Jits_ISO_5,2,5,63,98,1450467568
112,15,16,Jits_ISO_5,3,5,56,103,1450488172
112,15,16,Jits_ISO_5,0,1,48,45,1450865280
112,15,16,Jits_ISO_5,1,5,80,127,1450918236
112,15,16,Jits_ISO_5,2,5,56,103,1450927464
112,15,16,Jits_ISO_5,3,5,63,98,1450937584
112,15,16,Jits_ISO_5,0,1,48,40,1451392884
112,15,16,Jits_ISO_5,1,5,80,127,1451407680
112,15,16,Jits_ISO_5,2,5,56,103,1451428164
112,15,16,Jits_ISO_5,3,5,63,98,1451497972
112,15,16,Jits_ISO_5,0,1,48,43,1451859660
112,15,16,Jits_ISO_5,1,5,56,103,1451917676
112,15,16,Jits_ISO_5,2,5,80,127,1451948272
112,15,16,Jits_ISO_5,3,5,63,98,1451968040
112,15,16,Jits_ISO_5,0,1,48,49,1452362232
112,15,16,Jits_ISO_5,1,5,63,98,1452408340
112,15,16,Jits_ISO_5,2,5,56,103,1452467544
112,15,16,Jits_ISO_5,3,5,80,127,1452498340
112,15,16,Jits_ISO_5,0,1,48,44,1452863908
112,15,16,Jits_ISO_5,1,5,63,98,1452897500
112,15,16,Jits_ISO_5,2,5,80,127,1452901092
112,15,16,Jits_ISO_5,3,5,56,103,1452987868
112,15,16,Jits_ISO_5,0,1,48,31,1453369412
112,15,16,Jits_ISO_5,1,5,56,103,1453418132
112,15,16,Jits_ISO_5,2,5,63,98,1453447436
112,15,16,Jits_ISO_5,3,5,80,127,1453487456
112,15,16,Jits_ISO_5,0,1,48,35,1453857384
112,15,16,Jits_ISO_5,1,5,63,98,1453927904
112,15,16,Jits_ISO_5,2,5,56,103,1453967604
112,15,16,Jits_ISO_5,3,5,80,127,1453988236
112,15,16,Jits_ISO_5,0,1,48,36,1454389028
112,15,16,Jits_ISO_5,1,5,63,98,1454437828
112,15,16,Jits_ISO_5,2,5,56,103,1454477616
112,15,16,Jits_ISO_5,3,5,80,127,1454488244
112,15,16,Jits_ISO_5,0,1,48,40,1454888020
112,15,16,Jits_ISO_5,1,5,80,127,1454918160
112,15,16,Jits_ISO_5,2,5,63,98,1454987600
112,15,16,Jits_ISO_5,3,5,56,103,1455008156
112,15,16,Jits_ISO_5,0,1,48,39,1455383172
112,15,16,Jits_ISO_5,1,5,56,103,1455407480
112,15,16,Jits_ISO_5,2,5,80,127,1455428236
112,15,16,Jits_ISO_5,3,5,63,98,1455468172
112,15,16,Jits_ISO_5,0,1,48,37,1455877520
112,15,16,Jits_ISO_5,1,5,63,98,1455917400
112,15,16,Jits_ISO_5,2,5,80,127,1455938080
112,15,16,Jits_ISO_5,3,5,56,103,1455978224
112,15,16,Jits_ISO_5,0,1,48,48,1456372296
112,15,16,Jits_ISO_5,1,5,63,98,1456418180
112,15,16,Jits_ISO_5,2,5,56,103,1456437592
112,15,16,Jits_ISO_5,3,5,80,127,1456447936
112,15,16,Jits_ISO_5,0,1,48,41,1456872176
112,15,16,Jits_ISO_5,1,5,80,127,1456918132
112,15,16,Jits_ISO_5,2,5,56,103,1456938220
112,15,16,Jits_ISO_5,3,5,63,98,1456968116
112,15,16,Jits_ISO_5,0,1,48,45,1457366524
112,15,16,Jits_ISO_5,1,5,56,103,1457488200
112,15,16,Jits_ISO_5,2,5,80,127,1457491340
112,15,16,Jits_ISO_5,3,5,63,98,1457507832
112,15,16,Jits_ISO_5,0,1,48,36,1457886632
112,15,16,Jits_ISO_5,1,5,63,98,1457908080
112,15,16,Jits_ISO_5,2,5,56,103,1457937980
112,15,16,Jits_ISO_5,3,5,80,127,1457998128
112,15,16,Jits_ISO_5,0,1,48,48,1458398196
112,15,16,Jits_ISO_5,1,5,63,98,1458487604
112,15,16,Jits_ISO_5,2,5,56,103,1458497860
112,15,16,Jits_ISO_5,3,5,80,127,1458508056
112,15,16,Jits_ISO_5,0,5,56,103,1458938352
112,15,16,Jits_ISO_5,1,1,48,42,1458943636
112,15,16,Jits_ISO_5,2,5,80,127,1458968020
112,15,16,Jits_ISO_5,3,5,63,98,1458978364
112,15,16,Jits_ISO_5,0,1,48,51,1459444500
112,15,16,Jits_ISO_5,1,5,63,98,1459478100
112,15,16,Jits_ISO_5,2,5,56,103,1459488296
112,15,16,Jits_ISO_5,3,5,80,127,1459507560
112,15,16,Jits_ISO_5,0,5,56,103,1459908168
112,15,16,Jits_ISO_5,1,1,48,46,1459916916
112,15,16,Jits_ISO_5,2,5,63,98,1459968400
112,15,16,Jits_ISO_5,3,5,80,127,1459971764
112,15,16,Jits_ISO_5,0,1,48,43,1460389896
112,15,16,Jits_ISO_5,1,5,80,127,1460428280
112,15,16,Jits_ISO_5,2,5,56,103,1460438324
112,15,16,Jits_ISO_5,3,5,63,98,1460508060
112,15,16,Jits_ISO_5,0,1,48,44,1460873636
112,15,16,Jits_ISO_5,1,5,80,127,1460917524
112,15,16,Jits_ISO_5,2,5,56,103,1460988236
112,15,16,Jits_ISO_5,3,5,63,98,1460997608
112,15,16,Jits_ISO_5,0,1,48,51,1461421496
112,15,16,Jits_ISO_5,1,5,63,98,1461467604
112,15,16,Jits_ISO_5,2,5,56,103,1461477948
112,15,16,Jits_ISO_5,3,5,80,127,1461498184
112,15,16,Jits_ISO_5,0,5,80,127,1461918348
112,15,16,Jits_ISO_5,1,1,48,49,1461921464
112,15,16,Jits_ISO_5,2,5,63,98,1461977536
112,15,16,Jits_ISO_5,3,5,56,103,1462018296
112,15,16,Jits_ISO_5,0,1,48,39,1462408004
112,15,16,Jits_ISO_5,1,5,56,103,1462457804
112,15,16,Jits_ISO_5,2,5,63,98,1462468148
112,15,16,Jits_ISO_5,3,5,80,127,1462507920
112,15,16,Jits_ISO_5,0,1,48,33,1462911480
112,15,16,Jits_ISO_5,1,5,56,103,1462917356
112,15,16,Jits_ISO_5,2,5,80,127,1462948176
112,15,16,Jits_ISO_5,3,5,63,98,1462998376
112,15,16,Jits_ISO_5,0,1,48,39,1463386500
112,15,16,Jits_ISO_5,1,5,56,103,1463458092
112,15,16,Jits_ISO_5,2,5,63,98,1463498160
112,15,16,Jits_ISO_5,3,5,80,127,1463501376
112,15,16,Jits_ISO_5,0,1,48,32,1463874820
112,15,16,Jits_ISO_5,1,5,56,103,1463957868
112,15,16,Jits_ISO_5,2,5,63,98,1463968236
112,15,16,Jits_ISO_5,3,5,80,127,1463987560
112,15,16,Jits_ISO_5,0,5,56,103,1464417516
112,15,16,Jits_ISO_5,1,5,80,127,1464420660
112,15,16,Jits_ISO_5,2,1,48,49,1464427384
112,15,16,Jits_ISO_5,3,5,63,98,1464457600
112,15,16,Jits_ISO_5,0,1,48,49,1464911372
112,15,16,Jits_ISO_5,1,5,63,98,1464958300
112,15,16,Jits_ISO_5,2,5,56,103,1464988124
112,15,16,Jits_ISO_5,3,5,80,127,1465007672
112,15,16,Jits_ISO_5,0,1,48,49,1465421496
112,15,16,Jits_ISO_5,1,5,80,127,1465437560
112,15,16,Jits_ISO_5,2,5,56,103,1465447980
112,15,16,Jits_ISO_5,3,5,63,98,1465457952
112,15,16,Jits_ISO_5,0,1,48,40,1465912080
112,15,16,Jits_ISO_5,1,5,56,103,1465938336
112,15,16,Jits_ISO_5,2,5,80,127,1465978200
112,15,16,Jits_ISO_5,3,5,63,98,1466007952
112,15,16,Jits_ISO_5,0,1,48,53,1466390468
112,15,16,Jits_ISO_5,1,5,63,98,1466448112
112,15,16,Jits_ISO_5,2,5,80,127,1466457412
112,15,16,Jits_ISO_5,3,5,56,103,1466467828
112,15,16,Jits_ISO_5,0,1,48,57,1466915812
112,15,16,Jits_ISO_5,1,5,56,103,1466927392
112,15,16,Jits_ISO_5,2,5,63,98,1466998120
112,15,16,Jits_ISO_5,3,5,80,127,1467008388
112,15,16,Jits_ISO_5,0,1,48,47,1467397956
112,15,16,Jits_ISO_5,1,5,80,127,1467428172
112,15,16,Jits_ISO_5,2,5,56,103,1467437396
112,15,16,Jits_ISO_5,3,5,63,98,1467487816
112,15,16,Jits_ISO_5,0,1,48,54,1467929752
112,15,16,Jits_ISO_5,1,5,80,127,1467938020
112,15,16,Jits_ISO_5,2,5,56,103,1467997436
112,15,16,Jits_ISO_5,3,5,63,98,1468028216
112,15,16,Jits_ISO_5,0,5,56,103,1468438132
112,15,16,Jits_ISO_5,1,1,48,46,1468441272
112,15,16,Jits_ISO_5,2,5,80,127,1468442536
112,15,16,Jits_ISO_5,3,5,63,98,1468477912
112,15,16,Jits_ISO_5,0,1,48,43,1468930716
112,15,16,Jits_ISO_5,1,5,56,103,1468968280
112,15,16,Jits_ISO_5,2,5,63,98,1468998028
112,15,16,Jits_ISO_5,3,5,80,127,1469008296
112,15,16,Jits_ISO_5,0,1,48,52,1469421608
112,15,16,Jits_ISO_5,1,5,63,98,1469478204
112,15,16,Jits_ISO_5,2,5,80,127,1469487500
112,15,16,Jits_ISO_5,3,5,56,103,1469497916
112,15,16,Jits_ISO_5,0,1,48,39,1469892868
112,15,16,Jits_ISO_5,1,5,80,127,1469928112
112,15,16,Jits_ISO_5,2,5,56,103,1469977940
112,15,16,Jits_ISO_5,3,5,63,98,1469980932
112,15,16,Jits_ISO_5,0,1,48,52,1470357360
112,15,16,Jits_ISO_5,1,5,56,103,1470458164
112,15,16,Jits_ISO_5,2,5,80,127,1470477872
112,15,16,Jits_ISO_5,3,5,63,98,1470487844
112,15,16,Jits_ISO_5,0,1,48,42,1470902740
112,15,16,Jits_ISO_5,1,5,63,98,1470937460
112,15,16,Jits_ISO_5,2,5,56,103,1470968036
112,15,16,Jits_ISO_5,3,5,80,127,1470987744
112,15,16,Jits_ISO_5,0,1,48,54,1471410196
112,15,16,Jits_ISO_5,1,5,56,103,1471448428
112,15,16,Jits_ISO_5,2,5,80,127,1471457652
112,15,16,Jits_ISO_5,3,5,63,98,1471528212
112,15,16,Jits_ISO_5,0,1,48,36,1471868772
112,15,16,Jits_ISO_5,1,5,63,98,1471938120
112,15,16,Jits_ISO_5,2,5,80,127,1471977820
112,15,16,Jits_ISO_5,3,5,56,103,1472017980
112,15,16,Jits_ISO_5,0,1,48,45,1472391652
112,15,16,Jits_ISO_5,1,5,56,103,1472448048
112,15,16,Jits_ISO_5,2,5,63,98,1472458244
112,15,16,Jits_ISO_5,3,5,80,127,1472477584
112,15,16,Jits_ISO_5,0,1,48,51,1472955928
112,15,16,Jits_ISO_5,1,5,63,98,1472997900
112,15,16,Jits_ISO_5,2,5,80,127,1473018212
112,15,16,Jits_ISO_5,3,5,56,103,1473037624
112,15,16,Jits_ISO_5,0,5,56,103,1473438160
112,15,16,Jits_ISO_5,1,1,48,40,1473441128
112,15,16,Jits_ISO_5,2,5,80,127,1473518096
112,15,16,Jits_ISO_5,3,5,63,98,1473528068
112,15,16,Jits_ISO_5,0,1,48,50,1473938080
112,15,16,Jits_ISO_5,1,5,80,127,1473977836
112,15,16,Jits_ISO_5,2,5,63,98,1473988032
112,15,16,Jits_ISO_5,3,5,56,103,1474017856
112,15,16,Jits_ISO_5,0,5,63,98,1474437544
112,15,16,Jits_ISO_5,1,1,48,47,1474446888
112,15,16,Jits_ISO_5,2,5,80,127,1474477500
112,15,16,Jits_ISO_5,3,5,56,103,1474538772
112,15,16,Jits_ISO_5,0,1,48,46,1474923376
112,15,16,Jits_ISO_5,1,5,63,98,1474947312
112,15,16,Jits_ISO_5,2,5,56,103,1474997912
112,15,16,Jits_ISO_5,3,5,80,127,1475028316
112,15,16,Jits_ISO_5,0,1,48,48,1475415260
112,15,16,Jits_ISO_5,1,5,80,127,1475458356
112,15,16,Jits_ISO_5,2,5,63,98,1475467652
112,15,16,Jits_ISO_5,3,5,56,103,1475538312
112,15,16,Jits_ISO_5,0,1,48,46,1475920444
112,15,16,Jits_ISO_5,1,5,80,127,1476027692
112,15,16,Jits_ISO_5,2,5,56,103,1476037964
112,15,16,Jits_ISO_5,3,5,63,98,1476041028
112,15,16,Jits_ISO_5,0,5,56,103,1476468008
112,15,16,Jits_ISO_5,1,5,80,127,1476487720
112,15,16,Jits_ISO_5,2,1,48,38,1476489284
112,15,16,Jits_ISO_5,3,5,63,98,1476497832
112,15,16,Jits_ISO_5,0,5,63,98,1476988208
112,15,16,Jits_ISO_5,1,1,48,54,1476989692
112,15,16,Jits_ISO_5,2,5,56,103,1477028164
112,15,16,Jits_ISO_5,3,5,80,127,1477047796
112,15,16,Jits_ISO_5,0,5,63,98,1477487948
112,15,16,Jits_ISO_5,1,1,48,46,1477531744
112,15,16,Jits_ISO_5,2,5,56,103,1477548272
112,15,16,Jits_ISO_5,3,5,80,127,1477551492
112,15,16,Jits_ISO_5,0,5,56,103,1477947964
112,15,16,Jits_ISO_5,1,5,80,127,1477968276
112,15,16,Jits_ISO_5,2,5,63,98,1478008288
112,15,16,Jits_ISO_5,3,1,48,42,1478009252
112,15,16,Jits_ISO_5,0,5,56,103,1478478128
112,15,16,Jits_ISO_5,1,5,63,98,1478497764
112,15,16,Jits_ISO_5,2,1,48,50,1478508036
112,15,16,Jits_ISO_5,3,5,80,127,1478509372
112,15,16,Jits_ISO_5,0,5,80,127,1478948208
112,15,16,Jits_ISO_5,1,1,48,41,1478966696
112,15,16,Jits_ISO_5,2,5,56,103,1478977876
112,15,16,Jits_ISO_5,3,5,63,98,1479017964
112,15,16,Jits_ISO_5,0,1,48,44,1479416532
112,15,16,Jits_ISO_5,1,5,80,127,1479458208
112,15,16,Jits_ISO_5,2,5,56,103,1479477548
112,15,16,Jits_ISO_5,3,5,63,98,1479537920
112,15,16,Jits_ISO_5,0,1,48,30,1479926980
112,15,16,Jits_ISO_5,1,5,56,103,1479968208
112,15,16,Jits_ISO_5,2,5,80,127,1479987696
112,15,16,Jits_ISO_5,3,5,63,98,1480047844
112,15,16,Jits_ISO_5,0,1,48,48,1480439900
112,15,16,Jits_ISO_5,1,5,80,127,1480448240
112,15,16,Jits_ISO_5,2,5,56,103,1480457836
112,15,16,Jits_ISO_5,3,5,63,98,1480497624
112,15,16,Jits_ISO_5,0,5,63,98,1480948048
112,15,16,Jits_ISO_5,1,1,48,46,1480949088
112,15,16,Jits_ISO_5,2,5,56,103,1480988052
112,15,16,Jits_ISO_5,3,5,80,127,1480990968
112,15,16,Jits_ISO_5,0,1,48,31,1481437700
112,15,16,Jits_ISO_5,1,5,63,98,1481468216
112,15,16,Jits_ISO_5,2,5,80,127,1481508152
112,15,16,Jits_ISO_5,3,5,56,103,1481537884
112,15,16,Jits_ISO_5,0,1,48,43,1481912176
112,15,16,Jits_ISO_5,1,5,56,103,1481957908
112,15,16,Jits_ISO_5,2,5,63,98,1481967956
112,15,16,Jits_ISO_5,3,5,80,127,1481997704
112,15,16,Jits_ISO_5,0,5,80,127,1482448208
112,15,16,Jits_ISO_5,1,1,48,32,1482449172
112,15,16,Jits_ISO_5,2,5,63,98,1482517804
112,15,16,Jits_ISO_5,3,5,56,103,1482528004
112,15,16,Jits_ISO_5,0,1,48,49,1482939304
112,15,16,Jits_ISO_5,1,5,63,98,1482948024
112,15,16,Jits_ISO_5,2,5,56,103,1483017776
112,15,16,Jits_ISO_5,3,5,80,127,1483027896
112,15,16,Jits_ISO_5,0,1,48,55,1483428476
112,15,16,Jits_ISO_5,1,5,63,98,1483447832
112,15,16,Jits_ISO_5,2,5,56,103,1483468140
112,15,16,Jits_ISO_5,3,5,80,127,1483508076
112,15,16,Jits_ISO_5,0,1,48,41,1483903896
112,15,16,Jits_ISO_5,1,5,56,103,1483957824
112,15,16,Jits_ISO_5,2,5,63,98,1483967796
112,15,16,Jits_ISO_5,3,5,80,127,1484047720
112,15,16,Jits_ISO_5,0,1,48,36,1484445236
112,15,16,Jits_ISO_5,1,5,63,98,1484458308
112,15,16,Jits_ISO_5,2,5,56,103,1484488056
112,15,16,Jits_ISO_5,3,5,80,127,1484527916
112,15,16,Jits_ISO_5,0,1,48,41,1484957748
112,15,16,Jits_ISO_5,1,5,56,103,1484959160
112,15,16,Jits_ISO_5,2,5,63,98,1484997904
112,15,16,Jits_ISO_5,3,5,80,127,1485037912
112,15,16,Jits_ISO_5,0,1,48,44,1485447908
112,15,16,Jits_ISO_5,1,5,80,127,1485457820
112,15,16,Jits_ISO_5,2,5,56,103,1485537788
112,15,16,Jits_ISO_5,3,5,63,98,1485547896
112,15,16,Jits_ISO_5,0,1,48,47,1485981224
112,15,16,Jits_ISO_5,1,5,56,103,1485997280
112,15,16,Jits_ISO_5,2,5,63,98,1486000500
112,15,16,Jits_ISO_5,3,5,80,127,1486007780
112,15,16,Jits_ISO_5,0,1,48,49,1486469464
112,15,16,Jits_ISO_5,1,5,56,103,1486517836
112,15,16,Jits_ISO_5,2,5,63,98,1486538144
112,15,16,Jits_ISO_5,3,5,80,127,1486548268
112,15,16,Jits_ISO_5,0,1,48,55,1486956536
112,15,16,Jits_ISO_5,1,5,63,98,1486978364
112,15,16,Jits_ISO_5,2,5,80,127,1486987588
112,15,16,Jits_ISO_5,3,5,56,103,1487008220
112,15,16,Jits_ISO_5,0,1,48,43,1487444268
112,15,16,Jits_ISO_5,1,5,63,98,1487478088
112,15,16,Jits_ISO_5,2,5,56,103,1487557964
112,15,16,Jits_ISO_5,3,5,80,127,1487561032
112,15,16,Jits_ISO_5,0,1,48,48,1487977524
112,15,16,Jits_ISO_5,1,5,63,98,1487979012
112,15,16,Jits_ISO_5,2,5,56,103,1487998424
112,15,16,Jits_ISO_5,3,5,80,127,1488028096
112,15,16,Jits_ISO_5,0,5,56,103,1488487672
112,15,16,Jits_ISO_5,1,1,48,43,1488507228
112,15,16,Jits_ISO_5,2,5,63,98,1488508792
112,15,16,Jits_ISO_5,3,5,80,127,1488517568
112,15,16,Jits_ISO_5,0,1,48,39,1489008208
112,15,16,Jits_ISO_5,1,5,56,103,1489018348
112,15,16,Jits_ISO_5,2,5,63,98,1489047872
112,15,16,Jits_ISO_5,3,5,80,127,1489051384
112,15,16,Jits_ISO_5,0,5,56,103,1489467736
112,15,16,Jits_ISO_5,1,5,63,98,1489507748
112,15,16,Jits_ISO_5,2,1,48,44,1489514156
112,15,16,Jits_ISO_5,3,5,80,127,1489568076
112,15,16,Jits_ISO_5,0,1,48,45,1489969916
112,15,16,Jits_ISO_5,1,5,56,103,1489987852
112,15,16,Jits_ISO_5,2,5,63,98,1489998124
112,15,16,Jits_ISO_5,3,5,80,127,1490057688
112,15,16,Jits_ISO_5,0,1,48,44,1490470548
112,15,16,Jits_ISO_5,1,5,56,103,1490487736
112,15,16,Jits_ISO_5,2,5,80,127,1490508044
112,15,16,Jits_ISO_5,3,5,63,98,1490537792
112,15,16,Jits_ISO_5,0,1,48,31,1490956432
112,15,16,Jits_ISO_5,1,5,80,127,1490988812
112,15,16,Jits_ISO_5,2,5,56,103,1490997516
112,15,16,Jits_ISO_5,3,5,63,98,1491018196
112,15,16,Jits_ISO_5,0,1,48,41,1491454720
112,15,16,Jits_ISO_5,1,5,63,98,1491477832
112,15,16,Jits_ISO_5,2,5,80,127,1491557684
112,15,16,Jits_ISO_5,3,5,56,103,1491568104
112,15,16,Jits_ISO_5,0,1,48,44,1491979040
112,15,16,Jits_ISO_5,1,5,80,127,1492037880
112,15,16,Jits_ISO_5,2,5,56,103,1492057660
112,15,16,Jits_ISO_5,3,5,63,98,1492060652
112,15,16,Jits_ISO_5,0,5,63,98,1492507944
112,15,16,Jits_ISO_5,1,5,80,127,1492511308
112,15,16,Jits_ISO_5,2,1,48,31,1492527024
112,15,16,Jits_ISO_5,3,5,56,103,1492568696
112,15,16,Jits_ISO_5,0,5,56,103,1492988788
112,15,16,Jits_ISO_5,1,5,80,127,1492997568
112,15,16,Jits_ISO_5,2,5,63,98,1493037652
112,15,16,Jits_ISO_5,3,1,48,33,1493046472
112,15,16,Jits_ISO_5,0,5,56,103,1493467712
112,15,16,Jits_ISO_5,1,5,63,98,1493527880
112,15,16,Jits_ISO_5,2,1,48,42,1493537620
112,15,16,Jits_ISO_5,3,5,80,127,1493539188
112,15,16,Jits_ISO_5,0,5,63,98,1493977724
112,15,16,Jits_ISO_5,1,1,48,48,1494005876
112,15,16,Jits_ISO_5,2,5,80,127,1494018628
112,15,16,Jits_ISO_5,3,5,56,103,1494058712
112,15,16,Jits_ISO_5,0,5,56,103,1494478280
112,15,16,Jits_ISO_5,1,1,48,48,1494487924
112,15,16,Jits_ISO_5,2,5,63,98,1494557912
112,15,16,Jits_ISO_5,3,5,80,127,1494561656
112,15,16,Jits_ISO_5,0,9999,9999,9999,1435165764
112,15,16,Jits_ISO_5,1,9999,9999,9999,1435665484
112,15,16,Jits_ISO_5,2,9999,9999,9999,1436165220
112,15,16,Jits_ISO_5,3,9999,9999,9999,1436665980
112,15,16,Jits_ISO_5,4,9999,9999,9999,1437165644
112,15,16,Jits_ISO_5,5,9999,9999,9999,1437665380
112,15,16,Jits_ISO_5,6,9999,9999,9999,1438166088
112,15,16,Jits_ISO_5,7,9999,9999,9999,1438676020
112,15,16,Jits_ISO_5,8,9999,9999,9999,1439175756
112,15,16,Jits_ISO_5,9,9999,9999,9999,1439675488
112,15,16,Jits_ISO_5,10,9999,9999,9999,1440175216
112,15,16,Jits_ISO_5,11,9999,9999,9999,1440675924
112,15,16,Jits_ISO_5,12,9999,9999,9999,1441175628
112,15,16,Jits_ISO_5,13,9999,9999,9999,1441675352
112,15,16,Jits_ISO_5,14,9999,9999,9999,1442176116
112,15,16,Jits_ISO_5,15,9999,9999,9999,1442686032
112,15,16,Jits_ISO_5,16,9999,9999,9999,1443185764
112,15,16,Jits_ISO_5,17,9999,9999,9999,1443685492
112,15,16,Jits_ISO_5,18,9999,9999,9999,1444185148
112,15,16,Jits_ISO_5,19,9999,9999,9999,1444685928
112,15,16,Jits_ISO_5,20,9999,9999,9999,1445185584
112,15,16,Jits_ISO_5,21,9999,9999,9999,1445685320
112,15,16,Jits_ISO_5,22,9999,9999,9999,1446186100
112,15,16,Jits_ISO_5,23,9999,9999,9999,1446685768
112,15,16,Jits_ISO_5,24,9999,9999,9999,1447185520
112,15,16,Jits_ISO_5,25,9999,9999,9999,1447685172
112,15,16,Jits_ISO_5,26,9999,9999,9999,1448185952
112,15,16,Jits_ISO_5,27,9999,9999,9999,1448685660
112,15,16,Jits_ISO_5,28,9999,9999,9999,1449185332
112,15,16,Jits_ISO_5,29,9999,9999,9999,1449686108
112,15,16,Jits_ISO_5,30,9999,9999,9999,1450196028
112,15,16,Jits_ISO_5,31,9999,9999,9999,1450695736
112,15,16,Jits_ISO_5,32,9999,9999,9999,1451195468
112,15,16,Jits_ISO_5,33,9999,9999,9999,1451695200
112,15,16,Jits_ISO_5,34,9999,9999,9999,1452195904
112,15,16,Jits_ISO_5,35,9999,9999,9999,1452695616
112,15,16,Jits_ISO_5,36,9999,9999,9999,1453195332
112,15,16,Jits_ISO_5,37,9999,9999,9999,1453696116
112,15,16,Jits_ISO_5,38,9999,9999,9999,1454206036
112,15,16,Jits_ISO_5,39,9999,9999,9999,1454705772
112,15,16,Jits_ISO_5,40,9999,9999,9999,1455205432
112,15,16,Jits_ISO_5,41,9999,9999,9999,1455705164
112,15,16,Jits_ISO_5,42,9999,9999,9999,1456205940
112,15,16,Jits_ISO_5,43,9999,9999,9999,1456705596
112,15,16,Jits_ISO_5,44,9999,9999,9999,1457205332
112,15,16,Jits_ISO_5,45,9999,9999,9999,1457706108
112,15,16,Jits_ISO_5,46,9999,9999,9999,1458205764
112,15,16,Jits_ISO_5,47,9999,9999,9999,1458705504
112,15,16,Jits_ISO_5,48,9999,9999,9999,1459205240
112,15,16,Jits_ISO_5,49,9999,9999,9999,1459705968
112,15,16,Jits_ISO_5,50,9999,9999,9999,1460205688
112,15,16,Jits_ISO_5,51,9999,9999,9999,1460705364
112,15,16,Jits_ISO_5,52,9999,9999,9999,1461206072
112,15,16,Jits_ISO_5,53,9999,9999,9999,1461716068
112,15,16,Jits_ISO_5,54,9999,9999,9999,1462215732
112,15,16,Jits_ISO_5,55,9999,9999,9999,1462715484
112,15,16,Jits_ISO_5,56,9999,9999,9999,1463215212
112,15,16,Jits_ISO_5,57,9999,9999,9999,1463715912
112,15,16,Jits_ISO_5,58,9999,9999,9999,1464215620
112,15,16,Jits_ISO_5,59,9999,9999,9999,1464715336
112,15,16,Jits_ISO_5,60,9999,9999,9999,1465216108
112,15,16,Jits_ISO_5,61,9999,9999,9999,1465726024
112,15,16,Jits_ISO_5,62,9999,9999,9999,1466225760
112,15,16,Jits_ISO_5,63,9999,9999,9999,1466725492
112,15,16,Jits_ISO_5,64,9999,9999,9999,1467225152
112,15,16,Jits_ISO_5,65,9999,9999,9999,1467725932
112,15,16,Jits_ISO_5,66,9999,9999,9999,1468225592
112,15,16,Jits_ISO_5,67,9999,9999,9999,1468725312
112,15,16,Jits_ISO_5,68,9999,9999,9999,1469226032
112,15,16,Jits_ISO_5,69,9999,9999,9999,1469725768
112,15,16,Jits_ISO_5,70,9999,9999,9999,1470225488
112,15,16,Jits_ISO_5,71,9999,9999,9999,1470725220
112,15,16,Jits_ISO_5,72,9999,9999,9999,1471225928
112,15,16,Jits_ISO_5,73,9999,9999,9999,1471725660
112,15,16,Jits_ISO_5,74,9999,9999,9999,1472225396
112,15,16,Jits_ISO_5,75,9999,9999,9999,1472726104
112,15,16,Jits_ISO_5,76,9999,9999,9999,1473236032
112,15,16,Jits_ISO_5,77,9999,9999,9999,1473735764
112,15,16,Jits_ISO_5,78,9999,9999,9999,1474235516
112,15,16,Jits_ISO_5,79,9999,9999,9999,1474735172
112,15,16,Jits_ISO_5,80,9999,9999,9999,1475235956
112,15,16,Jits_ISO_5,81,9999,9999,9999,1475735664
112,15,16,Jits_ISO_5,82,9999,9999,9999,1476235388
112,15,16,Jits_ISO_5,83,9999,9999,9999,1476736092
112,15,16,Jits_ISO_5,84,9999,9999,9999,1477246032
112,15,16,Jits_ISO_5,85,9999,9999,9999,1477745760
112,15,16,Jits_ISO_5,86,9999,9999,9999,1478245492
112,15,16,Jits_ISO_5,87,9999,9999,9999,1478745168
112,15,16,Jits_ISO_5,88,9999,9999,9999,1479245888
112,15,16,Jits_ISO_5,89,9999,9999,9999,1479745632
112,15,16,Jits_ISO_5,90,9999,9999,9999,1480245368
112,15,16,Jits_ISO_5,91,9999,9999,9999,1480746068
112,15,16,Jits_ISO_5,92,9999,9999,9999,1481245788
112,15,16,Jits_ISO_5,93,9999,9999,9999,1481745524
112,15,16,Jits_ISO_5,94,9999,9999,9999,1482245180
112,15,16,Jits_ISO_5,95,9999,9999,9999,1482745960
112,15,16,Jits_ISO_5,96,9999,9999,9999,1483245636
112,15,16,Jits_ISO_5,97,9999,9999,9999,1483745364
112,15,16,Jits_ISO_5,98,9999,9999,9999,1484246068
112,15,16,Jits_ISO_5,99,9999,9999,9999,1484756064
112,15,16,Jits_ISO_5,100,9999,9999,9999,1485255796
112,15,16,Jits_ISO_5,101,9999,9999,9999,1485755456
112,15,16,Jits_ISO_5,102,9999,9999,9999,1486255180
112,15,16,Jits_ISO_5,103,9999,9999,9999,1486755964
112,15,16,Jits_ISO_5,104,9999,9999,9999,1487255668
112,15,16,Jits_ISO_5,105,9999,9999,9999,1487755316
112,15,16,Jits_ISO_5,106,9999,9999,9999,1488256096
112,15,16,Jits_ISO_5,107,9999,9999,9999,1488766016
112,15,16,Jits_ISO_5,108,9999,9999,9999,1489265756
112,15,16,Jits_ISO_5,109,9999,9999,9999,1489765488
112,15,16,Jits_ISO_5,110,9999,9999,9999,1490265160
112,15,16,Jits_ISO_5,111,9999,9999,9999,1490765940
112,15,16,Jits_ISO_5,112,9999,9999,9999,1491265596
112,15,16,Jits_ISO_5,113,9999,9999,9999,1491765332
112,15,16,Jits_ISO_5,114,9999,9999,9999,1492266036
112,15,16,Jits_ISO_5,115,9999,9999,9999,1492765760
112,15,16,Jits_ISO_5,116,9999,9999,9999,1493265492
112,15,16,Jits_ISO_5,117,9999,9999,9999,1493765240
112,15,16,Jits_ISO_5,118,9999,9999,9999,1494265964
112,15,16,Jits_ISO_5,119,9999,9999,9999,1494765692
112,16,15,Jits_Phase_8,0,5,56,103,1505125692
112,16,15,Jits_Phase_8,1,5,63,98,1505128788
112,16,15,Jits_Phase_8,2,5,80,127,1505131836
112,16,15,Jits_Phase_8,0,5,56,103,1505925408
112,16,15,Jits_Phase_8,1,5,63,98,1505928580
112,16,15,Jits_Phase_8,2,5,80,127,1505931628
112,16,15,Jits_Phase_8,0,5,80,127,1506665728
112,16,15,Jits_Phase_8,1,1,48,50,1506755132
112,16,15,Jits_Phase_8,2,5,63,98,1506756704
112,16,15,Jits_Phase_8,3,5,56,103,1506766300
112,16,15,Jits_Phase_8,0,5,56,103,1507486128
112,16,15,Jits_Phase_8,1,5,63,98,1507496252
112,16,15,Jits_Phase_8,2,1,48,58,1507515180
112,16,15,Jits_Phase_8,3,5,80,127,1507586596
112,16,15,Jits_Phase_8,0,5,63,98,1508256008
112,16,15,Jits_Phase_8,1,5,80,127,1508285684
112,16,15,Jits_Phase_8,2,1,48,54,1508289848
112,16,15,Jits_Phase_8,3,5,56,103,1508315648
112,16,15,Jits_Phase_8,0,5,56,103,1509055980
112,16,15,Jits_Phase_8,1,1,48,54,1509060220
112,16,15,Jits_Phase_8,2,5,80,127,1509156432
112,16,15,Jits_Phase_8,3,5,63,98,1509206484
112,16,15,Jits_Phase_8,0,5,56,103,1509855532
112,16,15,Jits_Phase_8,1,5,80,127,1509905880
112,16,15,Jits_Phase_8,2,5,63,98,1509945668
112,16,15,Jits_Phase_8,3,1,48,47,1509951476
112,16,15,Jits_Phase_8,0,1,48,53,1510685944
112,16,15,Jits_Phase_8,1,5,80,127,1510687504
112,16,15,Jits_Phase_8,2,5,63,98,1510715836
112,16,15,Jits_Phase_8,3,5,56,103,1510786548
112,16,15,Jits_Phase_8,0,1,48,51,1511492704
112,16,15,Jits_Phase_8,1,5,63,98,1511515440
112,16,15,Jits_Phase_8,2,5,56,103,1511546384
112,16,15,Jits_Phase_8,3,5,80,127,1511605592
112,16,15,Jits_Phase_8,0,5,56,103,1512255868
112,16,15,Jits_Phase_8,1,5,80,127,1512258784
112,16,15,Jits_Phase_8,2,1,48,54,1512283940
112,16,15,Jits_Phase_8,3,5,63,98,1512375608
112,16,15,Jits_Phase_8,0,1,48,51,1513045260
112,16,15,Jits_Phase_8,1,5,56,103,1513135588
112,16,15,Jits_Phase_8,2,5,80,127,1513176488
112,16,15,Jits_Phase_8,3,5,63,98,1513185636
112,16,15,Jits_Phase_8,0,5,56,103,1513896324
112,16,15,Jits_Phase_8,1,1,48,43,1513902212
112,16,15,Jits_Phase_8,2,5,80,127,1513915732
112,16,15,Jits_Phase_8,3,5,63,98,1513996176
112,16,15,Jits_Phase_8,0,1,48,57,1514644728
112,16,15,Jits_Phase_8,1,5,80,127,1514685904
112,16,15,Jits_Phase_8,2,5,56,103,1514786436
112,16,15,Jits_Phase_8,3,5,63,98,1514796480
112,16,15,Jits_Phase_8,0,5,63,98,1515455928
112,16,15,Jits_Phase_8,1,5,80,127,1515516396
112,16,15,Jits_Phase_8,2,1,48,49,1515524336
112,16,15,Jits_Phase_8,3,5,56,103,1515525836
112,16,15,Jits_Phase_8,0,1,48,48,1516250324
112,16,15,Jits_Phase_8,1,5,56,103,1516255600
112,16,15,Jits_Phase_8,2,5,63,98,1516326256
112,16,15,Jits_Phase_8,3,5,80,127,1516329468
112,16,15,Jits_Phase_8,0,1,48,53,1516969972
112,16,15,Jits_Phase_8,1,5,63,98,1517086196
112,16,15,Jits_Phase_8,2,5,56,103,1517136324
112,16,15,Jits_Phase_8,3,5,80,127,1517139316
112,16,15,Jits_Phase_8,0,1,48,49,1517833348
112,16,15,Jits_Phase_8,1,5,56,103,1517845876
112,16,15,Jits_Phase_8,2,5,80,127,1517848868
112,16,15,Jits_Phase_8,3,5,63,98,1517935916
112,16,15,Jits_Phase_8,0,1,48,54,1518576668
112,16,15,Jits_Phase_8,1,5,63,98,1518685540
112,16,15,Jits_Phase_8,2,5,56,103,1518775700
112,16,15,Jits_Phase_8,3,5,80,127,1518806572
112,16,15,Jits_Phase_8,0,1,48,57,1519430216
112,16,15,Jits_Phase_8,1,5,56,103,1519476028
112,16,15,Jits_Phase_8,2,5,63,98,1519576508
112,16,15,Jits_Phase_8,3,5,80,127,1519606408
112,16,15,Jits_Phase_8,0,1,48,55,1520247592
112,16,15,Jits_Phase_8,1,5,63,98,1520296420
112,16,15,Jits_Phase_8,2,5,56,103,1520305492
112,16,15,Jits_Phase_8,3,5,80,127,1520395608
112,16,15,Jits_Phase_8,0,1,48,58,1520967036
112,16,15,Jits_Phase_8,1,5,63,98,1521115420
112,16,15,Jits_Phase_8,2,5,56,103,1521196412
112,16,15,Jits_Phase_8,3,5,80,127,1521199628
112,16,15,Jits_Phase_8,0,1,48,50,1521845264
112,16,15,Jits_Phase_8,1,5,80,127,1521876452
112,16,15,Jits_Phase_8,2,5,63,98,1521895788
112,16,15,Jits_Phase_8,3,5,56,103,1521956312
112,16,15,Jits_Phase_8,0,1,48,48,1522594140
112,16,15,Jits_Phase_8,1,5,56,103,1522716120
112,16,15,Jits_Phase_8,2,5,63,98,1522735456
112,16,15,Jits_Phase_8,3,5,80,127,1522738820
112,16,15,Jits_Phase_8,0,1,48,54,1523392448
112,16,15,Jits_Phase_8,1,5,63,98,1523456396
112,16,15,Jits_Phase_8,2,5,80,127,1523536176
112,16,15,Jits_Phase_8,3,5,56,103,1523545400
112,16,15,Jits_Phase_8,0,1,48,46,1524247060
112,16,15,Jits_Phase_8,1,5,63,98,1524275704
112,16,15,Jits_Phase_8,2,5,56,103,1524296164
112,16,15,Jits_Phase_8,3,5,80,127,1524346200
112,16,15,Jits_Phase_8,0,1,48,60,1524971208
112,16,15,Jits_Phase_8,1,5,80,127,1525076268
112,16,15,Jits_Phase_8,2,5,63,98,1525116360
112,16,15,Jits_Phase_8,3,5,56,103,1525135696
112,16,15,Jits_Phase_8,0,1,48,48,1525837576
112,16,15,Jits_Phase_8,1,5,56,103,1525916224
112,16,15,Jits_Phase_8,2,5,63,98,1525926492
112,16,15,Jits_Phase_8,3,5,80,127,1525945592
112,16,15,Jits_Phase_8,0,1,48,48,1526637792
112,16,15,Jits_Phase_8,1,5,56,103,1526646132
112,16,15,Jits_Phase_8,2,5,63,98,1526736276
112,16,15,Jits_Phase_8,3,5,80,127,1526795764
112,16,15,Jits_Phase_8,0,1,48,54,1527435456
112,16,15,Jits_Phase_8,1,5,80,127,1527475436
112,16,15,Jits_Phase_8,2,5,56,103,1527485928
112,16,15,Jits_Phase_8,3,5,63,98,1527555368
112,16,15,Jits_Phase_8,0,1,48,40,1528242036
112,16,15,Jits_Phase_8,1,5,63,98,1528306204
112,16,15,Jits_Phase_8,2,5,80,127,1528396248
112,16,15,Jits_Phase_8,3,5,56,103,1528406596
112,16,15,Jits_Phase_8,0,1,48,59,1529017532
112,16,15,Jits_Phase_8,1,5,63,98,1529036140
112,16,15,Jits_Phase_8,2,5,80,127,1529086268
112,16,15,Jits_Phase_8,3,5,56,103,1529145596
112,16,15,Jits_Phase_8,0,1,48,52,1529722700
112,16,15,Jits_Phase_8,1,5,56,103,1529856412
112,16,15,Jits_Phase_8,2,5,80,127,1529905492
112,16,15,Jits_Phase_8,3,5,63,98,1529926024
112,16,15,Jits_Phase_8,0,1,48,32,1530534040
112,16,15,Jits_Phase_8,1,5,56,103,1530626440
112,16,15,Jits_Phase_8,2,5,80,127,1530685768
112,16,15,Jits_Phase_8,3,5,63,98,1530755520
112,16,15,Jits_Phase_8,0,1,48,48,1531404072
112,16,15,Jits_Phase_8,1,5,56,103,1531426196
112,16,15,Jits_Phase_8,2,5,80,127,1531456020
112,16,15,Jits_Phase_8,3,5,63,98,1531485620
112,16,15,Jits_Phase_8,0,1,48,61,1532219476
112,16,15,Jits_Phase_8,1,5,56,103,1532275996
112,16,15,Jits_Phase_8,2,5,80,127,1532295632
112,16,15,Jits_Phase_8,3,5,63,98,1532356032
112,16,15,Jits_Phase_8,0,1,48,28,1533042828
112,16,15,Jits_Phase_8,1,5,80,127,1533155780
112,16,15,Jits_Phase_8,2,5,56,103,1533166200
112,16,15,Jits_Phase_8,3,5,63,98,1533176172
112,16,15,Jits_Phase_8,0,1,48,59,1533762348
112,16,15,Jits_Phase_8,1,5,56,103,1533915392
112,16,15,Jits_Phase_8,2,5,80,127,1533955476
112,16,15,Jits_Phase_8,3,5,63,98,1533986052
112,16,15,Jits_Phase_8,0,1,48,61,1534678204
112,16,15,Jits_Phase_8,1,5,56,103,1534685424
112,16,15,Jits_Phase_8,2,5,63,98,1534716224
112,16,15,Jits_Phase_8,3,5,80,127,1534756232
112,16,15,Jits_Phase_8,0,5,80,127,1535436268
112,16,15,Jits_Phase_8,1,1,48,57,1535444192
112,16,15,Jits_Phase_8,2,5,63,98,1535486240
112,16,15,Jits_Phase_8,3,5,56,103,1535505724
112,16,15,Jits_Phase_8,0,1,48,54,1536191044
112,16,15,Jits_Phase_8,1,5,56,103,1536265476
112,16,15,Jits_Phase_8,2,5,80,127,1536336340
112,16,15,Jits_Phase_8,3,5,63,98,1536395608
112,16,15,Jits_Phase_8,0,1,48,56,1537010508
112,16,15,Jits_Phase_8,1,5,80,127,1537066284
112,16,15,Jits_Phase_8,2,5,63,98,1537155432
112,16,15,Jits_Phase_8,3,5,56,103,1537176188
112,16,15,Jits_Phase_8,0,1,48,56,1537851528
112,16,15,Jits_Phase_8,1,5,63,98,1537885576
112,16,15,Jits_Phase_8,2,5,56,103,1537906184
112,16,15,Jits_Phase_8,3,5,80,127,1537946196
112,16,15,Jits_Phase_8,0,5,80,127,1538646428
112,16,15,Jits_Phase_8,1,1,48,57,1538648944
112,16,15,Jits_Phase_8,2,5,63,98,1538665984
112,16,15,Jits_Phase_8,3,5,56,103,1538745788
112,16,15,Jits_Phase_8,0,5,63,98,1539436008
112,16,15,Jits_Phase_8,1,1,48,57,1539448492
112,16,15,Jits_Phase_8,2,5,56,103,1539545400
112,16,15,Jits_Phase_8,3,5,80,127,1539548392
112,16,15,Jits_Phase_8,0,1,48,54,1540219016
112,16,15,Jits_Phase_8,1,5,63,98,1540256080
112,16,15,Jits_Phase_8,2,5,56,103,1540266268
112,16,15,Jits_Phase_8,3,5,80,127,1540269340
112,16,15,Jits_Phase_8,0,1,48,61,1540962176
112,16,15,Jits_Phase_8,1,5,56,103,1541036260
112,16,15,Jits_Phase_8,2,5,80,127,1541156200
112,16,15,Jits_Phase_8,3,5,63,98,1541196212
112,16,15,Jits_Phase_8,0,1,48,63,1541843920
112,16,15,Jits_Phase_8,1,5,56,103,1541855724
112,16,15,Jits_Phase_8,2,5,80,127,1541935596
112,16,15,Jits_Phase_8,3,5,63,98,1541956188
112,16,15,Jits_Phase_8,0,5,56,103,1542656316
112,16,15,Jits_Phase_8,1,1,48,59,1542710676
112,16,15,Jits_Phase_8,2,5,63,98,1542766144
112,16,15,Jits_Phase_8,3,5,80,127,1542769432
112,16,15,Jits_Phase_8,0,1,48,58,1543476800
112,16,15,Jits_Phase_8,1,5,56,103,1543495932
112,16,15,Jits_Phase_8,2,5,80,127,1543526128
112,16,15,Jits_Phase_8,3,5,63,98,1543546288
112,16,15,Jits_Phase_8,0,5,63,98,1544285656
112,16,15,Jits_Phase_8,1,5,56,103,1544296000
112,16,15,Jits_Phase_8,2,1,48,57,1544304152
112,16,15,Jits_Phase_8,3,5,80,127,1544305964
112,16,15,Jits_Phase_8,0,1,48,59,1545010140
112,16,15,Jits_Phase_8,1,5,80,127,1545076032
112,16,15,Jits_Phase_8,2,5,56,103,1545126172
112,16,15,Jits_Phase_8,3,5,63,98,1545166184
112,16,15,Jits_Phase_8,0,1,48,42,1545828412
112,16,15,Jits_Phase_8,1,5,80,127,1545896268
112,16,15,Jits_Phase_8,2,5,63,98,1545916052
112,16,15,Jits_Phase_8,3,5,56,103,1545966164
112,16,15,Jits_Phase_8,0,1,48,49,1546673384
112,16,15,Jits_Phase_8,1,5,80,127,1546706216
112,16,15,Jits_Phase_8,2,5,56,103,1546735892
112,16,15,Jits_Phase_8,3,5,63,98,1546805704
112,16,15,Jits_Phase_8,0,1,48,63,1547512604
112,16,15,Jits_Phase_8,1,5,56,103,1547556320
112,16,15,Jits_Phase_8,2,5,80,127,1547565544
112,16,15,Jits_Phase_8,3,5,63,98,1547606456
112,16,15,Jits_Phase_8,0,5,56,103,1548265964
112,16,15,Jits_Phase_8,1,5,63,98,1548286272
112,16,15,Jits_Phase_8,2,1,48,55,1548309992
112,16,15,Jits_Phase_8,3,5,80,127,1548356096
112,16,15,Jits_Phase_8,0,1,48,61,1548998268
112,16,15,Jits_Phase_8,1,5,63,98,1549086032
112,16,15,Jits_Phase_8,2,5,80,127,1549145360
112,16,15,Jits_Phase_8,3,5,56,103,1549166044
112,16,15,Jits_Phase_8,0,1,48,49,1549854752
112,16,15,Jits_Phase_8,1,5,80,127,1549875524
112,16,15,Jits_Phase_8,2,5,56,103,1549906324
112,16,15,Jits_Phase_8,3,5,63,98,1549935848
112,16,15,Jits_Phase_8,0,1,48,56,1550589164
112,16,15,Jits_Phase_8,1,5,56,103,1550676400
112,16,15,Jits_Phase_8,2,5,63,98,1550736028
112,16,15,Jits_Phase_8,3,5,80,127,1550796220
112,16,15,Jits_Phase_8,0,1,48,39,1551391240
112,16,15,Jits_Phase_8,1,5,80,127,1551495628
112,16,15,Jits_Phase_8,2,5,56,103,1551515964
112,16,15,Jits_Phase_8,3,5,63,98,1551585868
112,16,15,Jits_Phase_8,0,1,48,55,1552220672
112,16,15,Jits_Phase_8,1,5,80,127,1552296400
112,16,15,Jits_Phase_8,2,5,63,98,1552315816
112,16,15,Jits_Phase_8,3,5,56,103,1552345548
112,16,15,Jits_Phase_8,0,1,48,55,1553003808
112,16,15,Jits_Phase_8,1,5,80,127,1553085892
112,16,15,Jits_Phase_8,2,5,63,98,1553106264
112,16,15,Jits_Phase_8,3,5,56,103,1553166128
112,16,15,Jits_Phase_8,0,1,48,58,1553814580
112,16,15,Jits_Phase_8,1,5,80,127,1553885424
112,16,15,Jits_Phase_8,2,5,56,103,1553986032
112,16,15,Jits_Phase_8,3,5,63,98,1554015708
112,16,15,Jits_Phase_8,0,1,48,53,1554610756
112,16,15,Jits_Phase_8,1,5,63,98,1554676120
112,16,15,Jits_Phase_8,2,5,80,127,1554726308
112,16,15,Jits_Phase_8,3,5,56,103,1554745648
112,16,15,Jits_Phase_8,0,1,48,59,1555330696
112,16,15,Jits_Phase_8,1,5,80,127,1555515872
112,16,15,Jits_Phase_8,2,5,56,103,1555545396
112,16,15,Jits_Phase_8,3,5,63,98,1555548684
112,16,15,Jits_Phase_8,0,1,48,51,1556217612
112,16,15,Jits_Phase_8,1,5,63,98,1556365896
112,16,15,Jits_Phase_8,2,5,56,103,1556405712
112,16,15,Jits_Phase_8,3,5,80,127,1556426020
112,16,15,Jits_Phase_8,0,1,48,53,1557119864
112,16,15,Jits_Phase_8,1,5,80,127,1557125596
112,16,15,Jits_Phase_8,2,5,63,98,1557206392
112,16,15,Jits_Phase_8,3,5,56,103,1557246312
112,16,15,Jits_Phase_8,0,5,63,98,1557945844
112,16,15,Jits_Phase_8,1,1,48,51,1557973376
112,16,15,Jits_Phase_8,2,5,80,127,1558025708
112,16,15,Jits_Phase_8,3,5,56,103,1558046016
112,16,15,Jits_Phase_8,0,1,48,58,1558760776
112,16,15,Jits_Phase_8,1,5,56,103,1558786284
112,16,15,Jits_Phase_8,2,5,63,98,1558795876
112,16,15,Jits_Phase_8,3,5,80,127,1558835740
112,16,15,Jits_Phase_8,0,1,48,57,1559463136
112,16,15,Jits_Phase_8,1,5,56,103,1559506252
112,16,15,Jits_Phase_8,2,5,80,127,1559509540
112,16,15,Jits_Phase_8,3,5,63,98,1559645740
112,16,15,Jits_Phase_8,0,5,56,103,1560295892
112,16,15,Jits_Phase_8,1,1,48,51,1560336848
112,16,15,Jits_Phase_8,2,5,63,98,1560385796
112,16,15,Jits_Phase_8,3,5,80,127,1560455684
112,16,15,Jits_Phase_8,0,1,48,48,1561130096
112,16,15,Jits_Phase_8,1,5,63,98,1561176424
112,16,15,Jits_Phase_8,2,5,80,127,1561179712
112,16,15,Jits_Phase_8,3,5,56,103,1561235904
112,16,15,Jits_Phase_8,0,1,48,53,1561938912
112,16,15,Jits_Phase_8,1,5,80,127,1562016140
112,16,15,Jits_Phase_8,2,5,56,103,1562035612
112,16,15,Jits_Phase_8,3,5,63,98,1562045804
112,16,15,Jits_Phase_8,0,5,56,103,1562725680
112,16,15,Jits_Phase_8,1,5,63,98,1562735952
112,16,15,Jits_Phase_8,2,1,48,42,1562776528
112,16,15,Jits_Phase_8,3,5,80,127,1562805796
112,16,15,Jits_Phase_8,0,1,48,56,1563462616
112,16,15,Jits_Phase_8,1,5,80,127,1563525592
112,16,15,Jits_Phase_8,2,5,56,103,1563575656
112,16,15,Jits_Phase_8,3,5,63,98,1563625932
112,16,15,Jits_Phase_8,0,1,48,44,1564298944
112,16,15,Jits_Phase_8,1,5,56,103,1564406128
112,16,15,Jits_Phase_8,2,5,63,98,1564416544
112,16,15,Jits_Phase_8,3,5,80,127,1564456408
112,16,15,Jits_Phase_8,0,5,56,103,1565145680
112,16,15,Jits_Phase_8,1,5,63,98,1565186440
112,16,15,Jits_Phase_8,2,1,48,39,1565202592
112,16,15,Jits_Phase_8,3,5,80,127,1565235812
112,16,15,Jits_Phase_8,0,1,48,47,1565888400
112,16,15,Jits_Phase_8,1,5,80,127,1565906408
112,16,15,Jits_Phase_8,2,5,56,103,1565955564
112,16,15,Jits_Phase_8,3,5,63,98,1565975948
112,16,15,Jits_Phase_8,0,1,48,48,1566674080
112,16,15,Jits_Phase_8,1,5,80,127,1566716204
112,16,15,Jits_Phase_8,2,5,63,98,1566775608
112,16,15,Jits_Phase_8,3,5,56,103,1566855552
112,16,15,Jits_Phase_8,0,5,80,127,1567495740
112,16,15,Jits_Phase_8,1,5,56,103,1567535680
112,16,15,Jits_Phase_8,2,1,48,43,1567545848
112,16,15,Jits_Phase_8,3,5,63,98,1567555832
112,16,15,Jits_Phase_8,0,1,48,44,1568303572
112,16,15,Jits_Phase_8,1,5,56,103,1568345548
112,16,15,Jits_Phase_8,2,5,80,127,1568355820
112,16,15,Jits_Phase_8,3,5,63,98,1568396640
112,16,15,Jits_Phase_8,0,1,48,56,1569131860
112,16,15,Jits_Phase_8,1,5,56,103,1569215984
112,16,15,Jits_Phase_8,2,5,63,98,1569255756
112,16,15,Jits_Phase_8,3,5,80,127,1569259120
112,16,15,Jits_Phase_8,0,5,63,98,1569885732
112,16,15,Jits_Phase_8,1,5,80,127,1569925600
112,16,15,Jits_Phase_8,2,1,48,60,1569965160
112,16,15,Jits_Phase_8,3,5,56,103,1569996120
112,16,15,Jits_Phase_8,4,1,48,29,1570077652
112,16,15,Jits_Phase_8,0,5,63,98,1570655484
112,16,15,Jits_Phase_8,1,5,56,103,1570735600
112,16,15,Jits_Phase_8,2,1,48,61,1570783752
112,16,15,Jits_Phase_8,3,5,80,127,1570795832
112,16,15,Jits_Phase_8,0,5,80,127,1571465652
112,16,15,Jits_Phase_8,1,5,63,98,1571515732
112,16,15,Jits_Phase_8,2,1,48,56,1571538552
112,16,15,Jits_Phase_8,3,5,56,103,1571545624
112,16,15,Jits_Phase_8,0,5,56,103,1572256084
112,16,15,Jits_Phase_8,1,1,48,43,1572296820
112,16,15,Jits_Phase_8,2,5,63,98,1572306428
112,16,15,Jits_Phase_8,3,5,80,127,1572315800
112,16,15,Jits_Phase_8,0,1,48,55,1573014740
112,16,15,Jits_Phase_8,1,5,56,103,1573066032
112,16,15,Jits_Phase_8,2,5,63,98,1573175632
112,16,15,Jits_Phase_8,3,5,80,127,1573196092
112,16,15,Jits_Phase_8,0,5,63,98,1573865800
112,16,15,Jits_Phase_8,1,1,48,58,1573879476
112,16,15,Jits_Phase_8,2,5,80,127,1573916144
112,16,15,Jits_Phase_8,3,5,56,103,1574006260
112,16,15,Jits_Phase_8,0,5,63,98,1574656636
112,16,15,Jits_Phase_8,1,5,80,127,1574685940
112,16,15,Jits_Phase_8,2,1,48,48,1574712872
112,16,15,Jits_Phase_8,3,5,56,103,1574776136
112,16,15,Jits_Phase_8,0,5,63,98,1575456092
112,16,15,Jits_Phase_8,1,5,56,103,1575466512
112,16,15,Jits_Phase_8,2,1,48,40,1575492396
112,16,15,Jits_Phase_8,3,5,80,127,1575565628
112,16,15,Jits_Phase_8,0,1,48,46,1576309824
112,16,15,Jits_Phase_8,1,5,63,98,1576356256
112,16,15,Jits_Phase_8,2,5,80,127,1576385856
112,16,15,Jits_Phase_8,3,5,56,103,1576415592
112,16,15,Jits_Phase_8,0,1,48,57,1577140104
112,16,15,Jits_Phase_8,1,5,80,127,1577176772
112,16,15,Jits_Phase_8,2,5,63,98,1577185624
112,16,15,Jits_Phase_8,3,5,56,103,1577216644
112,16,15,Jits_Phase_8,0,5,80,127,1577875828
112,16,15,Jits_Phase_8,1,5,63,98,1577896460
112,16,15,Jits_Phase_8,2,5,56,103,1577945612
112,16,15,Jits_Phase_8,3,1,48,52,1577956004
112,16,15,Jits_Phase_8,0,5,63,98,1578706340
112,16,15,Jits_Phase_8,1,1,48,51,1578716052
112,16,15,Jits_Phase_8,2,5,80,127,1578765676
112,16,15,Jits_Phase_8,3,5,56,103,1578786356
112,16,15,Jits_Phase_8,0,5,63,98,1579466088
112,16,15,Jits_Phase_8,1,1,48,53,1579513328
112,16,15,Jits_Phase_8,2,5,56,103,1579516436
112,16,15,Jits_Phase_8,3,5,80,127,1579525584
112,16,15,Jits_Phase_8,0,1,48,45,1580285516
112,16,15,Jits_Phase_8,1,5,56,103,1580295656
112,16,15,Jits_Phase_8,2,5,80,127,1580305704
112,16,15,Jits_Phase_8,3,5,63,98,1580406156
112,16,15,Jits_Phase_8,4,1,48,15,1580410840
112,16,15,Jits_Phase_8,0,5,80,127,1581056640
112,16,15,Jits_Phase_8,1,5,63,98,1581065564
112,16,15,Jits_Phase_8,2,1,48,54,1581147572
112,16,15,Jits_Phase_8,3,5,56,103,1581216172
112,16,15,Jits_Phase_8,0,5,63,98,1581866520
112,16,15,Jits_Phase_8,1,5,80,127,1581906384
112,16,15,Jits_Phase_8,2,1,48,65,1581940144
112,16,15,Jits_Phase_8,3,5,56,103,1581986344
112,16,15,Jits_Phase_8,0,5,56,103,1582616004
112,16,15,Jits_Phase_8,1,1,48,57,1582681228
112,16,15,Jits_Phase_8,2,5,80,127,1582716396
112,16,15,Jits_Phase_8,3,5,63,98,1582735736
112,16,15,Jits_Phase_8,0,5,80,127,1583436012
112,16,15,Jits_Phase_8,1,5,56,103,1583446508
112,16,15,Jits_Phase_8,2,1,48,54,1583459816
112,16,15,Jits_Phase_8,3,5,63,98,1583535608
112,16,15,Jits_Phase_8,0,1,48,66,1584231924
112,16,15,Jits_Phase_8,1,5,56,103,1584235856
112,16,15,Jits_Phase_8,2,5,63,98,1584256468
112,16,15,Jits_Phase_8,3,5,80,127,1584336420
112,16,15,Jits_Phase_8,0,5,63,98,1584985356
112,16,15,Jits_Phase_8,1,1,48,45,1585010344
112,16,15,Jits_Phase_8,2,5,56,103,1585075652
112,16,15,Jits_Phase_8,3,5,80,127,1585078420
112,16,15,Jits_Phase_8,0,1,48,48,1585744392
112,16,15,Jits_Phase_8,1,5,56,103,1585815888
112,16,15,Jits_Phase_8,2,5,80,127,1585876488
112,16,15,Jits_Phase_8,3,5,63,98,1585885488
112,16,15,Jits_Phase_8,0,1,48,54,1586522680
112,16,15,Jits_Phase_8,1,5,80,127,1586666052
112,16,15,Jits_Phase_8,2,5,56,103,1586676172
112,16,15,Jits_Phase_8,3,5,63,98,1586679388
112,16,15,Jits_Phase_8,0,1,48,50,1587344476
112,16,15,Jits_Phase_8,1,5,56,103,1587425588
112,16,15,Jits_Phase_8,2,5,80,127,1587435856
112,16,15,Jits_Phase_8,3,5,63,98,1587456300
112,16,15,Jits_Phase_8,0,1,48,51,1588129856
112,16,15,Jits_Phase_8,1,5,63,98,1588195592
112,16,15,Jits_Phase_8,2,5,80,127,1588256044
112,16,15,Jits_Phase_8,3,5,56,103,1588306540
112,16,15,Jits_Phase_8,0,1,48,54,1588973356
112,16,15,Jits_Phase_8,1,5,63,98,1589076472
112,16,15,Jits_Phase_8,2,5,56,103,1589085620
112,16,15,Jits_Phase_8,3,5,80,127,1589135672
112,16,15,Jits_Phase_8,0,5,63,98,1589775716
112,16,15,Jits_Phase_8,1,5,80,127,1589796324
112,16,15,Jits_Phase_8,2,5,56,103,1589805400
112,16,15,Jits_Phase_8,3,1,48,49,1589849492
112,16,15,Jits_Phase_8,0,1,48,62,1590549500
112,16,15,Jits_Phase_8,1,5,63,98,1590575456
112,16,15,Jits_Phase_8,2,5,80,127,1590578820
112,16,15,Jits_Phase_8,3,5,56,103,1590616592
112,16,15,Jits_Phase_8,0,1,48,56,1591323388
112,16,15,Jits_Phase_8,1,5,63,98,1591445840
112,16,15,Jits_Phase_8,2,5,80,127,1591475540
112,16,15,Jits_Phase_8,3,5,56,103,1591485660
112,16,15,Jits_Phase_8,0,1,48,54,1592121204
112,16,15,Jits_Phase_8,1,5,56,103,1592195416
112,16,15,Jits_Phase_8,2,5,80,127,1592226148
112,16,15,Jits_Phase_8,3,5,63,98,1592255896
112,16,15,Jits_Phase_8,0,1,48,43,1592935508
112,16,15,Jits_Phase_8,1,5,63,98,1593095500
112,16,15,Jits_Phase_8,2,5,56,103,1593135436
112,16,15,Jits_Phase_8,3,5,80,127,1593138428
112,16,15,Jits_Phase_8,0,1,48,56,1593789224
112,16,15,Jits_Phase_8,1,5,80,127,1593795852
112,16,15,Jits_Phase_8,2,5,56,103,1593875796
112,16,15,Jits_Phase_8,3,5,63,98,1593926132
112,16,15,Jits_Phase_8,0,5,80,127,1594576428
112,16,15,Jits_Phase_8,1,1,48,56,1594594412
112,16,15,Jits_Phase_8,2,5,56,103,1594595912
112,16,15,Jits_Phase_8,3,5,63,98,1594685744
112,16,15,Jits_Phase_8,0,1,48,61,1595305216
112,16,15,Jits_Phase_8,1,5,80,127,1595415884
112,16,15,Jits_Phase_8,2,5,63,98,1595455752
112,16,15,Jits_Phase_8,3,5,56,103,1595495688
112,16,15,Jits_Phase_8,0,1,48,56,1596073268
112,16,15,Jits_Phase_8,1,5,63,98,1596225836
112,16,15,Jits_Phase_8,2,5,80,127,1596286228
112,16,15,Jits_Phase_8,3,5,56,103,1596316224
112,16,15,Jits_Phase_8,0,1,48,51,1596907420
112,16,15,Jits_Phase_8,1,5,56,103,1597065520
112,16,15,Jits_Phase_8,2,5,80,127,1597096344
112,16,15,Jits_Phase_8,3,5,63,98,1597186548
112,16,15,Jits_Phase_8,0,1,48,55,1597762312
112,16,15,Jits_Phase_8,1,5,56,103,1597875568
112,16,15,Jits_Phase_8,2,5,80,127,1597986228
112,16,15,Jits_Phase_8,3,5,63,98,1598015980
112,16,15,Jits_Phase_8,0,1,48,50,1598565540
112,16,15,Jits_Phase_8,1,5,56,103,1598725456
112,16,15,Jits_Phase_8,2,5,63,98,1598785848
112,16,15,Jits_Phase_8,3,5,80,127,1598815596
112,16,15,Jits_Phase_8,0,1,48,52,1599360052
112,16,15,Jits_Phase_8,1,5,56,103,1599495404
112,16,15,Jits_Phase_8,2,5,63,98,1599566428
112,16,15,Jits_Phase_8,3,5,80,127,1599585616
112,16,15,Jits_Phase_8,0,1,48,44,1600175428
112,16,15,Jits_Phase_8,1,5,80,127,1600265580
112,16,15,Jits_Phase_8,2,5,63,98,1600286172
112,16,15,Jits_Phase_8,3,5,56,103,1600336448
112,16,15,Jits_Phase_8,0,1,48,48,1600980928
112,16,15,Jits_Phase_8,1,5,63,98,1601085768
112,16,15,Jits_Phase_8,2,5,80,127,1601096188
112,16,15,Jits_Phase_8,3,5,56,103,1601146464
112,16,15,Jits_Phase_8,0,1,48,51,1601790872
112,16,15,Jits_Phase_8,1,5,63,98,1601885536
112,16,15,Jits_Phase_8,2,5,80,127,1601956276
112,16,15,Jits_Phase_8,3,5,56,103,1601975612
112,16,15,Jits_Phase_8,0,1,48,44,1602590260
112,16,15,Jits_Phase_8,1,5,63,98,1602716096
112,16,15,Jits_Phase_8,2,5,80,127,1602719532
112,16,15,Jits_Phase_8,3,5,56,103,1602785624
112,16,15,Jits_Phase_8,0,5,80,127,1603465496
112,16,15,Jits_Phase_8,1,1,48,46,1603475432
112,16,15,Jits_Phase_8,2,5,56,103,1603486196
112,16,15,Jits_Phase_8,3,5,63,98,1603496392
112,16,15,Jits_Phase_8,0,1,48,51,1604249960
112,16,15,Jits_Phase_8,1,5,56,103,1604285804
112,16,15,Jits_Phase_8,2,5,63,98,1604375996
112,16,15,Jits_Phase_8,3,5,80,127,1604379212
112,16,15,Jits_Phase_8,0,5,80,127,1605055964
112,16,15,Jits_Phase_8,1,5,56,103,1605066084
112,16,15,Jits_Phase_8,2,1,48,52,1605079764
112,16,15,Jits_Phase_8,3,5,63,98,1605085640
112,16,15,Jits_Phase_8,0,1,48,52,1605828196
112,16,15,Jits_Phase_8,1,5,63,98,1605855572
112,16,15,Jits_Phase_8,2,5,80,127,1605916112
112,16,15,Jits_Phase_8,3,5,56,103,1605926144
112,16,15,Jits_Phase_8,0,1,48,53,1606623984
112,16,15,Jits_Phase_8,1,5,63,98,1606726184
112,16,15,Jits_Phase_8,2,5,80,127,1606755712
112,16,15,Jits_Phase_8,3,5,56,103,1606795500
112,16,15,Jits_Phase_8,0,1,48,53,1607437076
112,16,15,Jits_Phase_8,1,5,56,103,1607515476
112,16,15,Jits_Phase_8,2,5,80,127,1607525968
112,16,15,Jits_Phase_8,3,5,63,98,1607565816
112,16,15,Jits_Phase_8,0,1,48,45,1608222816
112,16,15,Jits_Phase_8,1,5,80,127,1608276272
112,16,15,Jits_Phase_8,2,5,56,103,1608356156
112,16,15,Jits_Phase_8,3,5,63,98,1608365304
112,16,15,Jits_Phase_8,0,1,48,46,1609013128
112,16,15,Jits_Phase_8,1,5,80,127,1609126388
112,16,15,Jits_Phase_8,2,5,56,103,1609206336
112,16,15,Jits_Phase_8,3,5,63,98,1609216308
112,16,15,Jits_Phase_8,0,1,48,44,1609920740
112,16,15,Jits_Phase_8,1,5,80,127,1609966100
112,16,15,Jits_Phase_8,2,5,56,103,1610016304
112,16,15,Jits_Phase_8,3,5,63,98,1610066412
112,16,15,Jits_Phase_8,0,1,48,51,1610764404
112,16,15,Jits_Phase_8,1,5,56,103,1610906264
112,16,15,Jits_Phase_8,2,5,63,98,1610909176
112,16,15,Jits_Phase_8,3,5,80,127,1610956160
112,16,15,Jits_Phase_8,0,1,48,47,1611682612
112,16,15,Jits_Phase_8,1,5,56,103,1611726256
112,16,15,Jits_Phase_8,2,5,63,98,1611755860
112,16,15,Jits_Phase_8,3,5,80,127,1611766128
112,16,15,Jits_Phase_8,0,5,63,98,1612436020
112,16,15,Jits_Phase_8,1,5,56,103,1612505580
112,16,15,Jits_Phase_8,2,1,48,47,1612525112
112,16,15,Jits_Phase_8,3,5,80,127,1612555624
112,16,15,Jits_Phase_8,0,1,48,54,1613232768
112,16,15,Jits_Phase_8,1,5,63,98,1613266292
112,16,15,Jits_Phase_8,2,5,56,103,1613275440
112,16,15,Jits_Phase_8,3,5,80,127,1613278580
112,16,15,Jits_Phase_8,0,1,48,44,1614011012
112,16,15,Jits_Phase_8,1,5,80,127,1614015840
112,16,15,Jits_Phase_8,2,5,56,103,1614076380
112,16,15,Jits_Phase_8,3,5,63,98,1614166272
112,16,15,Jits_Phase_8,0,1,48,60,1614794220
112,16,15,Jits_Phase_8,1,5,80,127,1614815596
112,16,15,Jits_Phase_8,2,5,56,103,1614916200
112,16,15,Jits_Phase_8,3,5,63,98,1614955992
112,16,15,Jits_Phase_8,0,1,48,52,1615620864
112,16,15,Jits_Phase_8,1,5,56,103,1615665632
112,16,15,Jits_Phase_8,2,5,63,98,1615685940
112,16,15,Jits_Phase_8,3,5,80,127,1615726160
112,16,15,Jits_Phase_8,0,1,48,58,1616365940
112,16,15,Jits_Phase_8,1,5,63,98,1616435716
112,16,15,Jits_Phase_8,2,5,56,103,1616456028
112,16,15,Jits_Phase_8,3,5,80,127,1616556356
112,16,15,Jits_Phase_8,0,1,48,57,1617117668
112,16,15,Jits_Phase_8,1,5,63,98,1617226244
112,16,15,Jits_Phase_8,2,5,80,127,1617335656
112,16,15,Jits_Phase_8,3,5,56,103,1617366452
112,16,15,Jits_Phase_8,0,1,48,55,1617965236
112,16,15,Jits_Phase_8,1,5,56,103,1618046396
112,16,15,Jits_Phase_8,2,5,63,98,1618076156
112,16,15,Jits_Phase_8,3,5,80,127,1618126060
112,16,15,Jits_Phase_8,0,5,63,98,1618816268
112,16,15,Jits_Phase_8,1,1,48,45,1618821328
112,16,15,Jits_Phase_8,2,5,56,103,1618846108
112,16,15,Jits_Phase_8,3,5,80,127,1618896308
112,16,15,Jits_Phase_8,0,1,48,49,1619570872
112,16,15,Jits_Phase_8,1,5,56,103,1619645928
112,16,15,Jits_Phase_8,2,5,63,98,1619666236
112,16,15,Jits_Phase_8,3,5,80,127,1619746164
112,16,15,Jits_Phase_8,0,1,48,37,1620374632
112,16,15,Jits_Phase_8,1,5,63,98,1620416012
112,16,15,Jits_Phase_8,2,5,56,103,1620476312
112,16,15,Jits_Phase_8,3,5,80,127,1620505912
112,16,15,Jits_Phase_8,0,1,48,50,1621200748
112,16,15,Jits_Phase_8,1,5,56,103,1621255480
112,16,15,Jits_Phase_8,2,5,80,127,1621316076
112,16,15,Jits_Phase_8,3,5,63,98,1621356088
112,16,15,Jits_Phase_8,0,1,48,46,1622003968
112,16,15,Jits_Phase_8,1,5,63,98,1622035980
112,16,15,Jits_Phase_8,2,5,56,103,1622096280
112,16,15,Jits_Phase_8,3,5,80,127,1622166036
112,16,15,Jits_Phase_8,0,1,48,49,1622767660
112,16,15,Jits_Phase_8,1,5,56,103,1622915344
112,16,15,Jits_Phase_8,2,5,63,98,1622925612
112,16,15,Jits_Phase_8,3,5,80,127,1622929196
112,16,15,Jits_Phase_8,0,5,63,98,1623655928
112,16,15,Jits_Phase_8,1,1,48,38,1623668708
112,16,15,Jits_Phase_8,2,5,56,103,1623716184
112,16,15,Jits_Phase_8,3,5,80,127,1623719324
112,16,15,Jits_Phase_8,0,1,48,36,1624395036
112,16,15,Jits_Phase_8,1,5,63,98,1624436116
112,16,15,Jits_Phase_8,2,5,80,127,1624465864
112,16,15,Jits_Phase_8,3,5,56,103,1624486276
112,16,15,Jits_Phase_8,0,5,56,103,1625166052
112,16,15,Jits_Phase_8,1,1,48,38,1625181824
112,16,15,Jits_Phase_8,2,5,63,98,1625216396
112,16,15,Jits_Phase_8,3,5,80,127,1625296196
112,16,15,Jits_Phase_8,0,5,80,127,1625865816
112,16,15,Jits_Phase_8,1,5,63,98,1625905680
112,16,15,Jits_Phase_8,2,5,56,103,1625925988
112,16,15,Jits_Phase_8,3,1,48,48,1625942288
112,16,15,Jits_Phase_8,0,1,48,35,1626607636
112,16,15,Jits_Phase_8,1,5,56,103,1626736060
112,16,15,Jits_Phase_8,2,5,80,127,1626746332
112,16,15,Jits_Phase_8,3,5,63,98,1626765820
112,16,15,Jits_Phase_8,0,1,48,39,1627475428
112,16,15,Jits_Phase_8,1,5,56,103,1627516356
112,16,15,Jits_Phase_8,2,5,63,98,1627565612
112,16,15,Jits_Phase_8,3,5,80,127,1627596096
112,16,15,Jits_Phase_8,0,1,48,35,1628250756
112,16,15,Jits_Phase_8,1,5,56,103,1628265848
112,16,15,Jits_Phase_8,2,5,63,98,1628276192
112,16,15,Jits_Phase_8,3,5,80,127,1628326120
112,16,15,Jits_Phase_8,0,1,48,36,1629004816
112,16,15,Jits_Phase_8,1,5,56,103,1629056532
112,16,15,Jits_Phase_8,2,5,80,127,1629059372
112,16,15,Jits_Phase_8,3,5,63,98,1629216048
112,16,15,Jits_Phase_8,0,1,48,36,1629792260
112,16,15,Jits_Phase_8,1,5,63,98,1629875856
112,16,15,Jits_Phase_8,2,5,56,103,1629946200
112,16,15,Jits_Phase_8,3,5,80,127,1629986064
112,16,15,Jits_Phase_8,0,1,48,49,1630609180
112,16,15,Jits_Phase_8,1,5,63,98,1630716212
112,16,15,Jits_Phase_8,2,5,56,103,1630806492
112,16,15,Jits_Phase_8,3,5,80,127,1630809336
112,16,15,Jits_Phase_8,0,1,48,40,1631465988
112,16,15,Jits_Phase_8,1,5,56,103,1631495752
112,16,15,Jits_Phase_8,2,5,63,98,1631585648
112,16,15,Jits_Phase_8,3,5,80,127,1631595772
112,16,15,Jits_Phase_8,0,5,56,103,1632265704
112,16,15,Jits_Phase_8,1,5,63,98,1632315980
112,16,15,Jits_Phase_8,2,1,48,44,1632321792
112,16,15,Jits_Phase_8,3,5,80,127,1632345428
112,16,15,Jits_Phase_8,0,1,48,34,1633101172
112,16,15,Jits_Phase_8,1,5,63,98,1633146156
112,16,15,Jits_Phase_8,2,5,80,127,1633155308
112,16,15,Jits_Phase_8,3,5,56,103,1633215928
112,16,15,Jits_Phase_8,0,5,63,98,1633866136
112,16,15,Jits_Phase_8,1,5,80,127,1633925628
112,16,15,Jits_Phase_8,2,5,56,103,1633965444
112,16,15,Jits_Phase_8,3,1,48,41,1633977480
112,16,15,Jits_Phase_8,0,1,48,37,1634742820
112,16,15,Jits_Phase_8,1,5,56,103,1634766084
112,16,15,Jits_Phase_8,2,5,80,127,1634785792
112,16,15,Jits_Phase_8,3,5,63,98,1634806032
112,16,15,Jits_Phase_8,0,5,63,98,1635485992
112,16,15,Jits_Phase_8,1,5,56,103,1635505776
112,16,15,Jits_Phase_8,2,1,48,35,1635515044
112,16,15,Jits_Phase_8,3,5,80,127,1635545632
112,16,15,Jits_Phase_8,0,1,48,24,1636256496
112,16,15,Jits_Phase_8,1,5,63,98,1636296152
112,16,15,Jits_Phase_8,2,5,80,127,1636325980
112,16,15,Jits_Phase_8,3,5,56,103,1636346288
112,16,15,Jits_Phase_8,0,1,48,31,1637015720
112,16,15,Jits_Phase_8,1,5,80,127,1637066088
112,16,15,Jits_Phase_8,2,5,56,103,1637116128
112,16,15,Jits_Phase_8,3,5,63,98,1637175768
112,16,15,Jits_Phase_8,0,1,48,47,1637829328
112,16,15,Jits_Phase_8,1,5,63,98,1637855732
112,16,15,Jits_Phase_8,2,5,56,103,1637976644
112,16,15,Jits_Phase_8,3,5,80,127,1638006244
112,16,15,Jits_Phase_8,0,1,48,51,1638601292
112,16,15,Jits_Phase_8,1,5,80,127,1638696180
112,16,15,Jits_Phase_8,2,5,63,98,1638715800
112,16,15,Jits_Phase_8,3,5,56,103,1638786304
112,16,15,Jits_Phase_8,0,1,48,48,1639422548
112,16,15,Jits_Phase_8,1,5,63,98,1639515772
112,16,15,Jits_Phase_8,2,5,56,103,1639525744
112,16,15,Jits_Phase_8,3,5,80,127,1639605636
112,16,15,Jits_Phase_8,0,1,48,55,1640246892
112,16,15,Jits_Phase_8,1,5,56,103,1640375792
112,16,15,Jits_Phase_8,2,5,80,127,1640406664
112,16,15,Jits_Phase_8,3,5,63,98,1640415592
112,16,15,Jits_Phase_8,0,9999,9999,9999,1505523800
112,16,15,Jits_Phase_8,1,9999,9999,9999,1506323516
112,16,15,Jits_Phase_8,2,9999,9999,9999,1507123308
112,16,15,Jits_Phase_8,3,9999,9999,9999,1507924052
112,16,15,Jits_Phase_8,4,9999,9999,9999,1508723820
112,16,15,Jits_Phase_8,5,9999,9999,9999,1509523576
112,16,15,Jits_Phase_8,6,9999,9999,9999,1510323296
112,16,15,Jits_Phase_8,7,9999,9999,9999,1511124044
112,16,15,Jits_Phase_8,8,9999,9999,9999,1511923804
112,16,15,Jits_Phase_8,9,9999,9999,9999,1512723548
112,16,15,Jits_Phase_8,10,9999,9999,9999,1513523328
112,16,15,Jits_Phase_8,11,9999,9999,9999,1514324060
112,16,15,Jits_Phase_8,12,9999,9999,9999,1515123840
112,16,15,Jits_Phase_8,13,9999,9999,9999,1515923520
112,16,15,Jits_Phase_8,14,9999,9999,9999,1516723288
112,16,15,Jits_Phase_8,15,9999,9999,9999,1517524084
112,16,15,Jits_Phase_8,16,9999,9999,9999,1518323824
112,16,15,Jits_Phase_8,17,9999,9999,9999,1519123516
112,16,15,Jits_Phase_8,18,9999,9999,9999,1519923280
112,16,15,Jits_Phase_8,19,9999,9999,9999,1520724084
112,16,15,Jits_Phase_8,20,9999,9999,9999,1521523840
112,16,15,Jits_Phase_8,21,9999,9999,9999,1522323520
112,16,15,Jits_Phase_8,22,9999,9999,9999,1523123288
112,16,15,Jits_Phase_8,23,9999,9999,9999,1523924092
112,16,15,Jits_Phase_8,24,9999,9999,9999,1524723772
112,16,15,Jits_Phase_8,25,9999,9999,9999,1525523528
112,16,15,Jits_Phase_8,26,9999,9999,9999,1526323288
112,16,15,Jits_Phase_8,27,9999,9999,9999,1527124096
112,16,15,Jits_Phase_8,28,9999,9999,9999,1527923772
112,16,15,Jits_Phase_8,29,9999,9999,9999,1528723540
112,16,15,Jits_Phase_8,30,9999,9999,9999,1529503836
112,16,15,Jits_Phase_8,31,9999,9999,9999,1530303596
112,16,15,Jits_Phase_8,32,9999,9999,9999,1531103352
112,16,15,Jits_Phase_8,33,9999,9999,9999,1531904076
112,16,15,Jits_Phase_8,34,9999,9999,9999,1532714100
112,16,15,Jits_Phase_8,35,9999,9999,9999,1533513792
112,16,15,Jits_Phase_8,36,9999,9999,9999,1534313556
112,16,15,Jits_Phase_8,37,9999,9999,9999,1535113320
112,16,15,Jits_Phase_8,38,9999,9999,9999,1535914068
112,16,15,Jits_Phase_8,39,9999,9999,9999,1536713848
112,16,15,Jits_Phase_8,40,9999,9999,9999,1537513584
112,16,15,Jits_Phase_8,41,9999,9999,9999,1538313316
112,16,15,Jits_Phase_8,42,9999,9999,9999,1539114044
112,16,15,Jits_Phase_8,43,9999,9999,9999,1539913804
112,16,15,Jits_Phase_8,44,9999,9999,9999,1540713548
112,16,15,Jits_Phase_8,45,9999,9999,9999,1541513304
112,16,15,Jits_Phase_8,46,9999,9999,9999,1542314060
112,16,15,Jits_Phase_8,47,9999,9999,9999,1543113812
112,16,15,Jits_Phase_8,48,9999,9999,9999,1543934036
112,16,15,Jits_Phase_8,49,9999,9999,9999,1544733784
112,16,15,Jits_Phase_8,50,9999,9999,9999,1545533540
112,16,15,Jits_Phase_8,51,9999,9999,9999,1546333300
112,16,15,Jits_Phase_8,52,9999,9999,9999,1547134032
112,16,15,Jits_Phase_8,53,9999,9999,9999,1547933820
112,16,15,Jits_Phase_8,54,9999,9999,9999,1548733504
112,16,15,Jits_Phase_8,55,9999,9999,9999,1549533276
112,16,15,Jits_Phase_8,56,9999,9999,9999,1550334080
112,16,15,Jits_Phase_8,57,9999,9999,9999,1551133768
112,16,15,Jits_Phase_8,58,9999,9999,9999,1551933524
112,16,15,Jits_Phase_8,59,9999,9999,9999,1552733284
112,16,15,Jits_Phase_8,60,9999,9999,9999,1553534012
112,16,15,Jits_Phase_8,61,9999,9999,9999,1554333796
112,16,15,Jits_Phase_8,62,9999,9999,9999,1555133556
112,16,15,Jits_Phase_8,63,9999,9999,9999,1555933304
112,16,15,Jits_Phase_8,64,9999,9999,9999,1556773976
112,16,15,Jits_Phase_8,65,9999,9999,9999,1557573740
112,16,15,Jits_Phase_8,66,9999,9999,9999,1558373432
112,16,15,Jits_Phase_8,67,9999,9999,9999,1559173196
112,16,15,Jits_Phase_8,68,9999,9999,9999,1559974016
112,16,15,Jits_Phase_8,69,9999,9999,9999,1560773700
112,16,15,Jits_Phase_8,70,9999,9999,9999,1561573468
112,16,15,Jits_Phase_8,71,9999,9999,9999,1562373236
112,16,15,Jits_Phase_8,72,9999,9999,9999,1563173964
112,16,15,Jits_Phase_8,73,9999,9999,9999,1563973736
112,16,15,Jits_Phase_8,74,9999,9999,9999,1564773504
112,16,15,Jits_Phase_8,75,9999,9999,9999,1565573192
112,16,15,Jits_Phase_8,76,9999,9999,9999,1566373956
112,16,15,Jits_Phase_8,77,9999,9999,9999,1567173716
112,16,15,Jits_Phase_8,78,9999,9999,9999,1567973468
112,16,15,Jits_Phase_8,79,9999,9999,9999,1568773240
112,16,15,Jits_Phase_8,80,9999,9999,9999,1569573972
112,16,15,Jits_Phase_8,81,9999,9999,9999,1570333776
112,16,15,Jits_Phase_8,82,9999,9999,9999,1571133512
112,16,15,Jits_Phase_8,83,9999,9999,9999,1571933272
112,16,15,Jits_Phase_8,84,9999,9999,9999,1572734008
112,16,15,Jits_Phase_8,85,9999,9999,9999,1573533808
112,16,15,Jits_Phase_8,86,9999,9999,9999,1574333564
112,16,15,Jits_Phase_8,87,9999,9999,9999,1575133244
112,16,15,Jits_Phase_8,88,9999,9999,9999,1575934040
112,16,15,Jits_Phase_8,89,9999,9999,9999,1576733808
112,16,15,Jits_Phase_8,90,9999,9999,9999,1577533500
112,16,15,Jits_Phase_8,91,9999,9999,9999,1578333252
112,16,15,Jits_Phase_8,92,9999,9999,9999,1579134076
112,16,15,Jits_Phase_8,93,9999,9999,9999,1579933780
112,16,15,Jits_Phase_8,94,9999,9999,9999,1580733516
112,16,15,Jits_Phase_8,95,9999,9999,9999,1581533248
112,16,15,Jits_Phase_8,96,9999,9999,9999,1582334060
112,16,15,Jits_Phase_8,97,9999,9999,9999,1583053884
112,16,15,Jits_Phase_8,98,9999,9999,9999,1583853660
112,16,15,Jits_Phase_8,99,9999,9999,9999,1584653440
112,16,15,Jits_Phase_8,100,9999,9999,9999,1585453112
112,16,15,Jits_Phase_8,101,9999,9999,9999,1586253892
112,16,15,Jits_Phase_8,102,9999,9999,9999,1587053644
112,16,15,Jits_Phase_8,103,9999,9999,9999,1587853400
112,16,15,Jits_Phase_8,104,9999,9999,9999,1588653176
112,16,15,Jits_Phase_8,105,9999,9999,9999,1589453912
112,16,15,Jits_Phase_8,106,9999,9999,9999,1590253664
112,16,15,Jits_Phase_8,107,9999,9999,9999,1591053404
112,16,15,Jits_Phase_8,108,9999,9999,9999,1591853168
112,16,15,Jits_Phase_8,109,9999,9999,9999,1592653892
112,16,15,Jits_Phase_8,110,9999,9999,9999,1593453652
112,16,15,Jits_Phase_8,111,9999,9999,9999,1594253412
112,16,15,Jits_Phase_8,112,9999,9999,9999,1595053112
112,16,15,Jits_Phase_8,113,9999,9999,9999,1595853928
112,16,15,Jits_Phase_8,114,9999,9999,9999,1596733548
112,16,15,Jits_Phase_8,115,9999,9999,9999,1597533308
112,16,15,Jits_Phase_8,116,9999,9999,9999,1598334044
112,16,15,Jits_Phase_8,117,9999,9999,9999,1599133764
112,16,15,Jits_Phase_8,118,9999,9999,9999,1599933524
112,16,15,Jits_Phase_8,119,9999,9999,9999,1600733276
112,16,15,Jits_Phase_8,120,9999,9999,9999,1601534072
112,16,15,Jits_Phase_8,121,9999,9999,9999,1602333756
112,16,15,Jits_Phase_8,122,9999,9999,9999,1603133508
112,16,15,Jits_Phase_8,123,9999,9999,9999,1603933252
112,16,15,Jits_Phase_8,124,9999,9999,9999,1604734064
112,16,15,Jits_Phase_8,125,9999,9999,9999,1605533760
112,16,15,Jits_Phase_8,126,9999,9999,9999,1606333532
112,16,15,Jits_Phase_8,127,9999,9999,9999,1607133292
112,16,15,Jits_Phase_8,128,9999,9999,9999,1607934024
112,16,15,Jits_Phase_8,129,9999,9999,9999,1608733784
112,16,15,Jits_Phase_8,130,9999,9999,9999,1609533548
112,16,15,Jits_Phase_8,131,9999,9999,9999,1610494024
112,16,15,Jits_Phase_8,132,9999,9999,9999,1611293776
112,16,15,Jits_Phase_8,133,9999,9999,9999,1612093544
112,16,15,Jits_Phase_8,134,9999,9999,9999,1612893304
112,16,15,Jits_Phase_8,135,9999,9999,9999,1613694020
112,16,15,Jits_Phase_8,136,9999,9999,9999,1614493800
112,16,15,Jits_Phase_8,137,9999,9999,9999,1615293560
112,16,15,Jits_Phase_8,138,9999,9999,9999,1616093248
112,16,15,Jits_Phase_8,139,9999,9999,9999,1616894048
112,16,15,Jits_Phase_8,140,9999,9999,9999,1617693808
112,16,15,Jits_Phase_8,141,9999,9999,9999,1618493564
112,16,15,Jits_Phase_8,142,9999,9999,9999,1619293240
112,16,15,Jits_Phase_8,143,9999,9999,9999,1620094044
112,16,15,Jits_Phase_8,144,9999,9999,9999,1620893820
112,16,15,Jits_Phase_8,145,9999,9999,9999,1621693508
112,16,15,Jits_Phase_8,146,9999,9999,9999,1622493240
112,16,15,Jits_Phase_8,147,9999,9999,9999,1623294040
112,16,15,Jits_Phase_8,148,9999,9999,9999,1624093792
112,16,15,Jits_Phase_8,149,9999,9999,9999,1624893544
112,16,15,Jits_Phase_8,150,9999,9999,9999,1625533508
112,16,15,Jits_Phase_8,151,9999,9999,9999,1626333280
112,16,15,Jits_Phase_8,152,9999,9999,9999,1627134028
112,16,15,Jits_Phase_8,153,9999,9999,9999,1627933788
112,16,15,Jits_Phase_8,154,9999,9999,9999,1628733540
112,16,15,Jits_Phase_8,155,9999,9999,9999,1629533288
112,16,15,Jits_Phase_8,156,9999,9999,9999,1630334020
112,16,15,Jits_Phase_8,157,9999,9999,9999,1631133800
112,16,15,Jits_Phase_8,158,9999,9999,9999,1631933564
112,16,15,Jits_Phase_8,159,9999,9999,9999,1632733244
112,16,15,Jits_Phase_8,160,9999,9999,9999,1633534068
112,16,15,Jits_Phase_8,161,9999,9999,9999,1634333752
112,16,15,Jits_Phase_8,162,9999,9999,9999,1635133524
112,16,15,Jits_Phase_8,163,9999,9999,9999,1635933276
112,16,15,Jits_Phase_8,164,9999,9999,9999,1636734008
112,16,15,Jits_Phase_8,165,9999,9999,9999,1637533788
112,16,15,Jits_Phase_8,166,9999,9999,9999,1638333548
112,16,15,Jits_Phase_8,167,9999,9999,9999,1639133312
112,16,15,Jits_Phase_8,168,9999,9999,9999,1639934040
112,16,15,Jits_Phase_8,169,9999,9999,9999,1640733804
112,17,17,Jits_Phase_5,0,5,56,103,1648895568
112,17,17,Jits_Phase_5,1,5,63,98,1648898596
112,17,17,Jits_Phase_5,2,5,80,127,1648901712
112,17,17,Jits_Phase_5,0,5,56,103,1649395128
112,17,17,Jits_Phase_5,1,5,63,98,1649398376
112,17,17,Jits_Phase_5,2,5,80,127,1649401272
112,17,17,Jits_Phase_5,0,5,56,103,1649894704
112,17,17,Jits_Phase_5,1,5,80,127,1649904972
112,17,17,Jits_Phase_5,2,5,63,98,1649924608
112,17,17,Jits_Phase_5,0,5,63,98,1650345504
112,17,17,Jits_Phase_5,1,5,80,127,1650374956
112,17,17,Jits_Phase_5,2,5,56,103,1650385376
112,17,17,Jits_Phase_5,0,1,48,65,1650846908
112,17,17,Jits_Phase_5,1,5,80,127,1650904396
112,17,17,Jits_Phase_5,2,5,56,103,1650914592
112,17,17,Jits_Phase_5,3,5,63,98,1650945376
112,17,17,Jits_Phase_5,0,5,63,98,1651394944
112,17,17,Jits_Phase_5,1,1,48,66,1651405332
112,17,17,Jits_Phase_5,2,5,56,103,1651424536
112,17,17,Jits_Phase_5,3,5,80,127,1651434808
112,17,17,Jits_Phase_5,0,5,56,103,1651844400
112,17,17,Jits_Phase_5,1,1,48,59,1651881844
112,17,17,Jits_Phase_5,2,5,63,98,1651894620
112,17,17,Jits_Phase_5,3,5,80,127,1651915004
112,17,17,Jits_Phase_5,0,5,80,127,1652345280
112,17,17,Jits_Phase_5,1,1,48,57,1652347800
112,17,17,Jits_Phase_5,2,5,63,98,1652395648
112,17,17,Jits_Phase_5,3,5,56,103,1652435288
112,17,17,Jits_Phase_5,0,1,48,60,1652842848
112,17,17,Jits_Phase_5,1,5,56,103,1652844812
112,17,17,Jits_Phase_5,2,5,63,98,1652874564
112,17,17,Jits_Phase_5,3,5,80,127,1652945220
112,17,17,Jits_Phase_5,0,1,48,57,1653324908
112,17,17,Jits_Phase_5,1,5,56,103,1653344560
112,17,17,Jits_Phase_5,2,5,80,127,1653404900
112,17,17,Jits_Phase_5,3,5,63,98,1653434856
112,17,17,Jits_Phase_5,0,1,48,63,1653797520
112,17,17,Jits_Phase_5,1,5,56,103,1653854712
112,17,17,Jits_Phase_5,2,5,63,98,1653864760
112,17,17,Jits_Phase_5,3,5,80,127,1653904756
112,17,17,Jits_Phase_5,0,1,48,58,1654284908
112,17,17,Jits_Phase_5,1,5,63,98,1654345168
112,17,17,Jits_Phase_5,2,5,80,127,1654424896
112,17,17,Jits_Phase_5,3,5,56,103,1654435316
112,17,17,Jits_Phase_5,0,1,48,58,1654774844
112,17,17,Jits_Phase_5,1,5,63,98,1654895024
112,17,17,Jits_Phase_5,2,5,56,103,1654934836
112,17,17,Jits_Phase_5,3,5,80,127,1654937904
112,17,17,Jits_Phase_5,0,1,48,55,1655315120
112,17,17,Jits_Phase_5,1,5,56,103,1655354628
112,17,17,Jits_Phase_5,2,5,63,98,1655364900
112,17,17,Jits_Phase_5,3,5,80,127,1655404836
112,17,17,Jits_Phase_5,0,1,48,59,1655795388
112,17,17,Jits_Phase_5,1,5,56,103,1655845456
112,17,17,Jits_Phase_5,2,5,63,98,1655848524
112,17,17,Jits_Phase_5,3,5,80,127,1655864720
112,17,17,Jits_Phase_5,0,1,48,57,1656260652
112,17,17,Jits_Phase_5,1,5,80,127,1656355456
112,17,17,Jits_Phase_5,2,5,56,103,1656365564
112,17,17,Jits_Phase_5,3,5,63,98,1656435016
112,17,17,Jits_Phase_5,0,1,48,56,1656737032
112,17,17,Jits_Phase_5,1,5,63,98,1656844552
112,17,17,Jits_Phase_5,2,5,56,103,1656865088
112,17,17,Jits_Phase_5,3,5,80,127,1656944952
112,17,17,Jits_Phase_5,0,1,48,55,1657284208
112,17,17,Jits_Phase_5,1,5,56,103,1657354508
112,17,17,Jits_Phase_5,2,5,80,127,1657394504
112,17,17,Jits_Phase_5,3,5,63,98,1657404920
112,17,17,Jits_Phase_5,0,1,48,56,1657800724
112,17,17,Jits_Phase_5,1,5,80,127,1657855596
112,17,17,Jits_Phase_5,2,5,63,98,1657885120
112,17,17,Jits_Phase_5,3,5,56,103,1657925116
112,17,17,Jits_Phase_5,0,1,48,54,1658309688
112,17,17,Jits_Phase_5,1,5,56,103,1658374596
112,17,17,Jits_Phase_5,2,5,63,98,1658405828
112,17,17,Jits_Phase_5,3,5,80,127,1658455356
112,17,17,Jits_Phase_5,0,1,48,53,1658815812
112,17,17,Jits_Phase_5,1,5,80,127,1658875396
112,17,17,Jits_Phase_5,2,5,56,103,1658915408
112,17,17,Jits_Phase_5,3,5,63,98,1658925516
112,17,17,Jits_Phase_5,0,1,48,62,1659332800
112,17,17,Jits_Phase_5,1,5,80,127,1659354544
112,17,17,Jits_Phase_5,2,5,63,98,1659394484
112,17,17,Jits_Phase_5,3,5,56,103,1659454928
112,17,17,Jits_Phase_5,0,1,48,49,1659824976
112,17,17,Jits_Phase_5,1,5,56,103,1659855492
112,17,17,Jits_Phase_5,2,5,80,127,1659864344
112,17,17,Jits_Phase_5,3,5,63,98,1659945312
112,17,17,Jits_Phase_5,0,1,48,58,1660348916
112,17,17,Jits_Phase_5,1,5,80,127,1660354792
112,17,17,Jits_Phase_5,2,5,63,98,1660415480
112,17,17,Jits_Phase_5,3,5,56,103,1660445140
112,17,17,Jits_Phase_5,0,1,48,57,1660827772
112,17,17,Jits_Phase_5,1,5,56,103,1660854768
112,17,17,Jits_Phase_5,2,5,80,127,1660915008
112,17,17,Jits_Phase_5,3,5,63,98,1660954852
112,17,17,Jits_Phase_5,0,1,48,60,1661285692
112,17,17,Jits_Phase_5,1,5,56,103,1661404548
112,17,17,Jits_Phase_5,2,5,63,98,1661414892
112,17,17,Jits_Phase_5,3,5,80,127,1661418404
112,17,17,Jits_Phase_5,0,1,48,61,1661794052
112,17,17,Jits_Phase_5,1,5,80,127,1661855452
112,17,17,Jits_Phase_5,2,5,63,98,1661945348
112,17,17,Jits_Phase_5,3,5,56,103,1661954572
112,17,17,Jits_Phase_5,0,1,48,65,1662311992
112,17,17,Jits_Phase_5,1,5,56,103,1662354720
112,17,17,Jits_Phase_5,2,5,63,98,1662357768
112,17,17,Jits_Phase_5,3,5,80,127,1662361188
112,17,17,Jits_Phase_5,0,1,48,50,1662810224
112,17,17,Jits_Phase_5,1,5,80,127,1662874936
112,17,17,Jits_Phase_5,2,5,63,98,1662925420
112,17,17,Jits_Phase_5,3,5,56,103,1662954720
112,17,17,Jits_Phase_5,0,1,48,57,1663274324
112,17,17,Jits_Phase_5,1,5,56,103,1663355628
112,17,17,Jits_Phase_5,2,5,80,127,1663364332
112,17,17,Jits_Phase_5,3,5,63,98,1663435288
112,17,17,Jits_Phase_5,0,1,48,63,1663762760
112,17,17,Jits_Phase_5,1,5,56,103,1663865476
112,17,17,Jits_Phase_5,2,5,63,98,1663884744
112,17,17,Jits_Phase_5,3,5,80,127,1663944932
112,17,17,Jits_Phase_5,0,1,48,56,1664258976
112,17,17,Jits_Phase_5,1,5,80,127,1664344416
112,17,17,Jits_Phase_5,2,5,63,98,1664415452
112,17,17,Jits_Phase_5,3,5,56,103,1664434492
112,17,17,Jits_Phase_5,0,1,48,51,1664785556
112,17,17,Jits_Phase_5,1,5,80,127,1664864544
112,17,17,Jits_Phase_5,2,5,56,103,1664874816
112,17,17,Jits_Phase_5,3,5,63,98,1664885292
112,17,17,Jits_Phase_5,0,1,48,62,1665296164
112,17,17,Jits_Phase_5,1,5,80,127,1665355300
112,17,17,Jits_Phase_5,2,5,56,103,1665374488
112,17,17,Jits_Phase_5,3,5,63,98,1665445372
112,17,17,Jits_Phase_5,0,1,48,58,1665769536
112,17,17,Jits_Phase_5,1,5,56,103,1665865292
112,17,17,Jits_Phase_5,2,5,80,127,1665894744
112,17,17,Jits_Phase_5,3,5,63,98,1665915424
112,17,17,Jits_Phase_5,0,1,48,56,1666258120
112,17,17,Jits_Phase_5,1,5,63,98,1666354480
112,17,17,Jits_Phase_5,2,5,56,103,1666415096
112,17,17,Jits_Phase_5,3,5,80,127,1666444620
112,17,17,Jits_Phase_5,0,1,48,59,1666751872
112,17,17,Jits_Phase_5,1,5,63,98,1666845164
112,17,17,Jits_Phase_5,2,5,80,127,1666848380
112,17,17,Jits_Phase_5,3,5,56,103,1666935440
112,17,17,Jits_Phase_5,0,1,48,62,1667236040
112,17,17,Jits_Phase_5,1,5,56,103,1667365432
112,17,17,Jits_Phase_5,2,5,63,98,1667394808
112,17,17,Jits_Phase_5,3,5,80,127,1667434820
112,17,17,Jits_Phase_5,0,1,48,66,1667728112
112,17,17,Jits_Phase_5,1,5,63,98,1667865028
112,17,17,Jits_Phase_5,2,5,56,103,1667904820
112,17,17,Jits_Phase_5,3,5,80,127,1667925352
112,17,17,Jits_Phase_5,0,1,48,57,1668242556
112,17,17,Jits_Phase_5,1,5,63,98,1668375188
112,17,17,Jits_Phase_5,2,5,56,103,1668414904
112,17,17,Jits_Phase_5,3,5,80,127,1668425324
112,17,17,Jits_Phase_5,0,1,48,63,1668723644
112,17,17,Jits_Phase_5,1,5,80,127,1668855536
112,17,17,Jits_Phase_5,2,5,63,98,1668924844
112,17,17,Jits_Phase_5,3,5,56,103,1668945376
112,17,17,Jits_Phase_5,0,1,48,63,1669283136
112,17,17,Jits_Phase_5,1,5,56,103,1669344592
112,17,17,Jits_Phase_5,2,5,80,127,1669365272
112,17,17,Jits_Phase_5,3,5,63,98,1669405120
112,17,17,Jits_Phase_5,0,1,48,58,1669791784
112,17,17,Jits_Phase_5,1,5,63,98,1669854524
112,17,17,Jits_Phase_5,2,5,80,127,1669875208
112,17,17,Jits_Phase_5,3,5,56,103,1669915128
112,17,17,Jits_Phase_5,0,1,48,64,1670299028
112,17,17,Jits_Phase_5,1,5,63,98,1670355396
112,17,17,Jits_Phase_5,2,5,56,103,1670374808
112,17,17,Jits_Phase_5,3,5,80,127,1670385080
112,17,17,Jits_Phase_5,0,1,48,68,1670755000
112,17,17,Jits_Phase_5,1,5,80,127,1670855128
112,17,17,Jits_Phase_5,2,5,56,103,1670874392
112,17,17,Jits_Phase_5,3,5,63,98,1670905188
112,17,17,Jits_Phase_5,0,1,48,56,1671295952
112,17,17,Jits_Phase_5,1,5,56,103,1671425376
112,17,17,Jits_Phase_5,2,5,80,127,1671428440
112,17,17,Jits_Phase_5,3,5,63,98,1671444708
112,17,17,Jits_Phase_5,0,1,48,47,1671802580
112,17,17,Jits_Phase_5,1,5,63,98,1671845196
112,17,17,Jits_Phase_5,2,5,56,103,1671875168
112,17,17,Jits_Phase_5,3,5,80,127,1671935392
112,17,17,Jits_Phase_5,0,1,48,59,1672300084
112,17,17,Jits_Phase_5,1,5,63,98,1672424720
112,17,17,Jits_Phase_5,2,5,56,103,1672435212
112,17,17,Jits_Phase_5,3,5,80,127,1672445260
112,17,17,Jits_Phase_5,0,1,48,49,1672811000
112,17,17,Jits_Phase_5,1,5,56,103,1672884556
112,17,17,Jits_Phase_5,2,5,80,127,1672915336
112,17,17,Jits_Phase_5,3,5,63,98,1672924560
112,17,17,Jits_Phase_5,0,1,48,57,1673290000
112,17,17,Jits_Phase_5,1,5,63,98,1673425420
112,17,17,Jits_Phase_5,2,5,56,103,1673434348
112,17,17,Jits_Phase_5,3,5,80,127,1673455176
112,17,17,Jits_Phase_5,0,1,48,58,1673774028
112,17,17,Jits_Phase_5,1,5,56,103,1673855340
112,17,17,Jits_Phase_5,2,5,63,98,1673914688
112,17,17,Jits_Phase_5,3,5,80,127,1673918052
112,17,17,Jits_Phase_5,0,1,48,53,1674293476
112,17,17,Jits_Phase_5,1,5,80,127,1674374484
112,17,17,Jits_Phase_5,2,5,56,103,1674384608
112,17,17,Jits_Phase_5,3,5,63,98,1674455340
112,17,17,Jits_Phase_5,0,1,48,51,1674799208
112,17,17,Jits_Phase_5,1,5,80,127,1674865240
112,17,17,Jits_Phase_5,2,5,56,103,1674934780
112,17,17,Jits_Phase_5,3,5,63,98,1674944976
112,17,17,Jits_Phase_5,0,1,48,54,1675278200
112,17,17,Jits_Phase_5,1,5,63,98,1675404608
112,17,17,Jits_Phase_5,2,5,56,103,1675414976
112,17,17,Jits_Phase_5,3,5,80,127,1675435508
112,17,17,Jits_Phase_5,0,1,48,64,1675766344
112,17,17,Jits_Phase_5,1,5,80,127,1675855296
112,17,17,Jits_Phase_5,2,5,63,98,1675914552
112,17,17,Jits_Phase_5,3,5,56,103,1675954512
112,17,17,Jits_Phase_5,0,1,48,62,1676265572
112,17,17,Jits_Phase_5,1,5,56,103,1676394964
112,17,17,Jits_Phase_5,2,5,63,98,1676405164
112,17,17,Jits_Phase_5,3,5,80,127,1676445196
112,17,17,Jits_Phase_5,0,1,48,53,1676788392
112,17,17,Jits_Phase_5,1,5,56,103,1676854576
112,17,17,Jits_Phase_5,2,5,80,127,1676885300
112,17,17,Jits_Phase_5,3,5,63,98,1676934660
112,17,17,Jits_Phase_5,0,1,48,60,1677275416
112,17,17,Jits_Phase_5,1,5,56,103,1677395292
112,17,17,Jits_Phase_5,2,5,63,98,1677435300
112,17,17,Jits_Phase_5,3,5,80,127,1677438592
112,17,17,Jits_Phase_5,0,1,48,63,1677791100
112,17,17,Jits_Phase_5,1,5,56,103,1677895108
112,17,17,Jits_Phase_5,2,5,63,98,1677905232
112,17,17,Jits_Phase_5,3,5,80,127,1677924716
112,17,17,Jits_Phase_5,0,1,48,57,1678296028
112,17,17,Jits_Phase_5,1,5,56,103,1678354788
112,17,17,Jits_Phase_5,2,5,80,127,1678357928
112,17,17,Jits_Phase_5,3,5,63,98,1678394860
112,17,17,Jits_Phase_5,0,1,48,61,1678767512
112,17,17,Jits_Phase_5,1,5,63,98,1678894444
112,17,17,Jits_Phase_5,2,5,56,103,1678925164
112,17,17,Jits_Phase_5,3,5,80,127,1678944500
112,17,17,Jits_Phase_5,0,1,48,51,1679258420
112,17,17,Jits_Phase_5,1,5,80,127,1679364448
112,17,17,Jits_Phase_5,2,5,56,103,1679374568
112,17,17,Jits_Phase_5,3,5,63,98,1679385212
112,17,17,Jits_Phase_5,0,1,48,66,1679817576
112,17,17,Jits_Phase_5,1,5,56,103,1679865252
112,17,17,Jits_Phase_5,2,5,80,127,1679905116
112,17,17,Jits_Phase_5,3,5,63,98,1679934700
112,17,17,Jits_Phase_5,0,1,48,59,1680312464
112,17,17,Jits_Phase_5,1,5,63,98,1680375264
112,17,17,Jits_Phase_5,2,5,80,127,1680385384
112,17,17,Jits_Phase_5,3,5,56,103,1680394460
112,17,17,Jits_Phase_5,0,1,48,62,1680812880
112,17,17,Jits_Phase_5,1,5,56,103,1680864596
112,17,17,Jits_Phase_5,2,5,63,98,1680935160
112,17,17,Jits_Phase_5,3,5,80,127,1680944608
112,17,17,Jits_Phase_5,0,1,48,56,1681312460
112,17,17,Jits_Phase_5,1,5,80,127,1681374608
112,17,17,Jits_Phase_5,2,5,56,103,1681384876
112,17,17,Jits_Phase_5,3,5,63,98,1681435060
112,17,17,Jits_Phase_5,0,1,48,65,1681807168
112,17,17,Jits_Phase_5,1,5,80,127,1681884464
112,17,17,Jits_Phase_5,2,5,56,103,1681945208
112,17,17,Jits_Phase_5,3,5,63,98,1681974588
112,17,17,Jits_Phase_5,0,1,48,56,1682329412
112,17,17,Jits_Phase_5,1,5,56,103,1682385332
112,17,17,Jits_Phase_5,2,5,80,127,1682388476
112,17,17,Jits_Phase_5,3,5,63,98,1682425196
112,17,17,Jits_Phase_5,0,1,48,50,1682829272
112,17,17,Jits_Phase_5,1,5,56,103,1682914592
112,17,17,Jits_Phase_5,2,5,63,98,1682945300
112,17,17,Jits_Phase_5,3,5,80,127,1682954672
112,17,17,Jits_Phase_5,0,1,48,61,1683343120
112,17,17,Jits_Phase_5,1,5,63,98,1683424604
112,17,17,Jits_Phase_5,2,5,80,127,1683434876
112,17,17,Jits_Phase_5,3,5,56,103,1683445280
112,17,17,Jits_Phase_5,0,5,80,127,1683875140
112,17,17,Jits_Phase_5,1,1,48,57,1683883584
112,17,17,Jits_Phase_5,2,5,56,103,1683925328
112,17,17,Jits_Phase_5,3,5,63,98,1683928400
112,17,17,Jits_Phase_5,0,1,48,57,1684399128
112,17,17,Jits_Phase_5,1,5,56,103,1684404552
112,17,17,Jits_Phase_5,2,5,80,127,1684425084
112,17,17,Jits_Phase_5,3,5,63,98,1684435280
112,17,17,Jits_Phase_5,0,1,48,57,1684873832
112,17,17,Jits_Phase_5,1,5,63,98,1684885040
112,17,17,Jits_Phase_5,2,5,56,103,1684914568
112,17,17,Jits_Phase_5,3,5,80,127,1684934948
112,17,17,Jits_Phase_5,0,1,48,62,1685342340
112,17,17,Jits_Phase_5,1,5,56,103,1685395340
112,17,17,Jits_Phase_5,2,5,80,127,1685405092
112,17,17,Jits_Phase_5,3,5,63,98,1685474604
112,17,17,Jits_Phase_5,0,1,48,54,1685833764
112,17,17,Jits_Phase_5,1,5,63,98,1685885400
112,17,17,Jits_Phase_5,2,5,80,127,1685925288
112,17,17,Jits_Phase_5,3,5,56,103,1685965284
112,17,17,Jits_Phase_5,0,1,48,66,1686335228
112,17,17,Jits_Phase_5,1,5,56,103,1686395192
112,17,17,Jits_Phase_5,2,5,63,98,1686404416
112,17,17,Jits_Phase_5,3,5,80,127,1686424972
112,17,17,Jits_Phase_5,0,1,48,42,1686822668
112,17,17,Jits_Phase_5,1,5,63,98,1686935096
112,17,17,Jits_Phase_5,2,5,80,127,1686955408
112,17,17,Jits_Phase_5,3,5,56,103,1686974964
112,17,17,Jits_Phase_5,0,1,48,46,1687303260
112,17,17,Jits_Phase_5,1,5,56,103,1687375200
112,17,17,Jits_Phase_5,2,5,80,127,1687455080
112,17,17,Jits_Phase_5,3,5,63,98,1687465424
112,17,17,Jits_Phase_5,0,1,48,57,1687843092
112,17,17,Jits_Phase_5,1,5,80,127,1687914956
112,17,17,Jits_Phase_5,2,5,63,98,1687925228
112,17,17,Jits_Phase_5,3,5,56,103,1687955280
112,17,17,Jits_Phase_5,0,1,48,58,1688349564
112,17,17,Jits_Phase_5,1,5,63,98,1688374620
112,17,17,Jits_Phase_5,2,5,80,127,1688414560
112,17,17,Jits_Phase_5,3,5,56,103,1688474956
112,17,17,Jits_Phase_5,0,1,48,57,1688838376
112,17,17,Jits_Phase_5,1,5,63,98,1688884556
112,17,17,Jits_Phase_5,2,5,56,103,1688934816
112,17,17,Jits_Phase_5,3,5,80,127,1688964488
112,17,17,Jits_Phase_5,0,1,48,60,1689322704
112,17,17,Jits_Phase_5,1,5,80,127,1689385428
112,17,17,Jits_Phase_5,2,5,63,98,1689394576
112,17,17,Jits_Phase_5,3,5,56,103,1689465212
112,17,17,Jits_Phase_5,0,1,48,57,1689811424
112,17,17,Jits_Phase_5,1,5,80,127,1689944652
112,17,17,Jits_Phase_5,2,5,56,103,1689954624
112,17,17,Jits_Phase_5,3,5,63,98,1689957912
112,17,17,Jits_Phase_5,0,1,48,46,1690339868
112,17,17,Jits_Phase_5,1,5,56,103,1690384776
112,17,17,Jits_Phase_5,2,5,80,127,1690405160
112,17,17,Jits_Phase_5,3,5,63,98,1690414532
112,17,17,Jits_Phase_5,0,1,48,47,1690829052
112,17,17,Jits_Phase_5,1,5,63,98,1690894860
112,17,17,Jits_Phase_5,2,5,56,103,1690934784
112,17,17,Jits_Phase_5,3,5,80,127,1690955172
112,17,17,Jits_Phase_5,0,1,48,42,1691299804
112,17,17,Jits_Phase_5,1,5,63,98,1691394388
112,17,17,Jits_Phase_5,2,5,56,103,1691454984
112,17,17,Jits_Phase_5,3,5,80,127,1691458200
112,17,17,Jits_Phase_5,0,1,48,44,1691806076
112,17,17,Jits_Phase_5,1,5,56,103,1691855248
112,17,17,Jits_Phase_5,2,5,80,127,1691874660
112,17,17,Jits_Phase_5,3,5,63,98,1691914656
112,17,17,Jits_Phase_5,0,1,48,48,1692264740
112,17,17,Jits_Phase_5,1,5,56,103,1692384496
112,17,17,Jits_Phase_5,2,5,63,98,1692405104
112,17,17,Jits_Phase_5,3,5,80,127,1692415372
112,17,17,Jits_Phase_5,0,1,48,33,1692775420
112,17,17,Jits_Phase_5,1,5,80,127,1692854736
112,17,17,Jits_Phase_5,2,5,56,103,1692885296
112,17,17,Jits_Phase_5,3,5,63,98,1692925232
112,17,17,Jits_Phase_5,0,1,48,52,1693297492
112,17,17,Jits_Phase_5,1,5,80,127,1693364528
112,17,17,Jits_Phase_5,2,5,56,103,1693385132
112,17,17,Jits_Phase_5,3,5,63,98,1693444460
112,17,17,Jits_Phase_5,0,1,48,66,1693818968
112,17,17,Jits_Phase_5,1,5,56,103,1693874464
112,17,17,Jits_Phase_5,2,5,80,127,1693895068
112,17,17,Jits_Phase_5,3,5,63,98,1693954392
112,17,17,Jits_Phase_5,0,1,48,53,1694292112
112,17,17,Jits_Phase_5,1,5,80,127,1694355028
112,17,17,Jits_Phase_5,2,5,56,103,1694365072
112,17,17,Jits_Phase_5,3,5,63,98,1694405068
112,17,17,Jits_Phase_5,0,1,48,62,1694725412
112,17,17,Jits_Phase_5,1,5,63,98,1694854432
112,17,17,Jits_Phase_5,2,5,56,103,1694894392
112,17,17,Jits_Phase_5,3,5,80,127,1694897684
112,17,17,Jits_Phase_5,0,1,48,56,1695287844
112,17,17,Jits_Phase_5,1,5,63,98,1695374856
112,17,17,Jits_Phase_5,2,5,80,127,1695414580
112,17,17,Jits_Phase_5,3,5,56,103,1695445228
112,17,17,Jits_Phase_5,0,1,48,61,1695818236
112,17,17,Jits_Phase_5,1,5,56,103,1695865240
112,17,17,Jits_Phase_5,2,5,63,98,1695874388
112,17,17,Jits_Phase_5,3,5,80,127,1695905136
112,17,17,Jits_Phase_5,0,1,48,44,1696326300
112,17,17,Jits_Phase_5,1,5,80,127,1696354944
112,17,17,Jits_Phase_5,2,5,63,98,1696425312
112,17,17,Jits_Phase_5,3,5,56,103,1696434756
112,17,17,Jits_Phase_5,0,1,48,59,1696813008
112,17,17,Jits_Phase_5,1,5,63,98,1696855288
112,17,17,Jits_Phase_5,2,5,56,103,1696925056
112,17,17,Jits_Phase_5,3,5,80,127,1696935248
112,17,17,Jits_Phase_5,0,1,48,56,1697315676
112,17,17,Jits_Phase_5,1,5,63,98,1697334808
112,17,17,Jits_Phase_5,2,5,56,103,1697355044
112,17,17,Jits_Phase_5,3,5,80,127,1697395056
112,17,17,Jits_Phase_5,0,1,48,60,1697785988
112,17,17,Jits_Phase_5,1,5,56,103,1697814856
112,17,17,Jits_Phase_5,2,5,63,98,1697825276
112,17,17,Jits_Phase_5,3,5,80,127,1697904976
112,17,17,Jits_Phase_5,0,1,48,61,1698260032
112,17,17,Jits_Phase_5,1,5,63,98,1698305392
112,17,17,Jits_Phase_5,2,5,56,103,1698335212
112,17,17,Jits_Phase_5,3,5,80,127,1698375060
112,17,17,Jits_Phase_5,0,1,48,56,1698752820
112,17,17,Jits_Phase_5,1,5,56,103,1698815324
112,17,17,Jits_Phase_5,2,5,63,98,1698855248
112,17,17,Jits_Phase_5,3,5,80,127,1698895260
112,17,17,Jits_Phase_5,0,1,48,63,1699236904
112,17,17,Jits_Phase_5,1,5,80,127,1699315068
112,17,17,Jits_Phase_5,2,5,56,103,1699394996
112,17,17,Jits_Phase_5,3,5,63,98,1699405416
112,17,17,Jits_Phase_5,0,1,48,57,1699751028
112,17,17,Jits_Phase_5,1,5,56,103,1699854884
112,17,17,Jits_Phase_5,2,5,63,98,1699857948
112,17,17,Jits_Phase_5,3,5,80,127,1699864856
112,17,17,Jits_Phase_5,0,1,48,61,1700314460
112,17,17,Jits_Phase_5,1,5,56,103,1700374792
112,17,17,Jits_Phase_5,2,5,63,98,1700395328
112,17,17,Jits_Phase_5,3,5,80,127,1700404924
112,17,17,Jits_Phase_5,0,1,48,65,1700812772
112,17,17,Jits_Phase_5,1,5,63,98,1700834688
112,17,17,Jits_Phase_5,2,5,80,127,1700845032
112,17,17,Jits_Phase_5,3,5,56,103,1700865344
112,17,17,Jits_Phase_5,0,1,48,49,1701304892
112,17,17,Jits_Phase_5,1,5,63,98,1701335336
112,17,17,Jits_Phase_5,2,5,56,103,1701415260
112,17,17,Jits_Phase_5,3,5,80,127,1701418400
112,17,17,Jits_Phase_5,0,1,48,61,1701776888
112,17,17,Jits_Phase_5,1,5,63,98,1701835004
112,17,17,Jits_Phase_5,2,5,56,103,1701854784
112,17,17,Jits_Phase_5,3,5,80,127,1701885268
112,17,17,Jits_Phase_5,0,1,48,63,1702295464
112,17,17,Jits_Phase_5,1,5,56,103,1702334824
112,17,17,Jits_Phase_5,2,5,63,98,1702355208
112,17,17,Jits_Phase_5,3,5,80,127,1702364952
112,17,17,Jits_Phase_5,0,1,48,43,1702823684
112,17,17,Jits_Phase_5,1,5,56,103,1702865140
112,17,17,Jits_Phase_5,2,5,63,98,1702895036
112,17,17,Jits_Phase_5,3,5,80,127,1702898252
112,17,17,Jits_Phase_5,0,1,48,57,1703295828
112,17,17,Jits_Phase_5,1,5,56,103,1703314760
112,17,17,Jits_Phase_5,2,5,63,98,1703354920
112,17,17,Jits_Phase_5,3,5,80,127,1703415216
112,17,17,Jits_Phase_5,0,1,48,53,1703788612
112,17,17,Jits_Phase_5,1,5,56,103,1703835112
112,17,17,Jits_Phase_5,2,5,63,98,1703845232
112,17,17,Jits_Phase_5,3,5,80,127,1703904780
112,17,17,Jits_Phase_5,0,1,48,54,1704297948
112,17,17,Jits_Phase_5,1,5,56,103,1704334836
112,17,17,Jits_Phase_5,2,5,80,127,1704355096
112,17,17,Jits_Phase_5,3,5,63,98,1704384768
112,17,17,Jits_Phase_5,0,1,48,51,1704803548
112,17,17,Jits_Phase_5,1,5,80,127,1704834360
112,17,17,Jits_Phase_5,2,5,56,103,1704844776
112,17,17,Jits_Phase_5,3,5,63,98,1704865260
112,17,17,Jits_Phase_5,0,1,48,35,1705308000
112,17,17,Jits_Phase_5,1,5,63,98,1705324812
112,17,17,Jits_Phase_5,2,5,80,127,1705404840
112,17,17,Jits_Phase_5,3,5,56,103,1705414964
112,17,17,Jits_Phase_5,0,1,48,60,1705749156
112,17,17,Jits_Phase_5,1,5,80,127,1705914920
112,17,17,Jits_Phase_5,2,5,56,103,1705935072
112,17,17,Jits_Phase_5,3,5,63,98,1705938220
112,17,17,Jits_Phase_5,0,5,63,98,1706405088
112,17,17,Jits_Phase_5,1,5,80,127,1706408308
112,17,17,Jits_Phase_5,2,1,48,44,1706429484
112,17,17,Jits_Phase_5,3,5,56,103,1706464648
112,17,17,Jits_Phase_5,0,1,48,65,1706867916
112,17,17,Jits_Phase_5,1,5,56,103,1706884352
112,17,17,Jits_Phase_5,2,5,80,127,1706894844
112,17,17,Jits_Phase_5,3,5,63,98,1706934952
112,17,17,Jits_Phase_5,0,5,56,103,1707364996
112,17,17,Jits_Phase_5,1,5,63,98,1707425116
112,17,17,Jits_Phase_5,2,1,48,49,1707426528
112,17,17,Jits_Phase_5,3,5,80,127,1707435304
112,17,17,Jits_Phase_5,0,5,63,98,1707874868
112,17,17,Jits_Phase_5,1,5,80,127,1707915028
112,17,17,Jits_Phase_5,2,1,48,56,1707919720
112,17,17,Jits_Phase_5,3,5,56,103,1707954684
112,17,17,Jits_Phase_5,0,5,56,103,1708375440
112,17,17,Jits_Phase_5,1,1,48,54,1708423964
112,17,17,Jits_Phase_5,2,5,63,98,1708455400
112,17,17,Jits_Phase_5,3,5,80,127,1708458836
112,17,17,Jits_Phase_5,0,5,80,127,1708934680
112,17,17,Jits_Phase_5,1,1,48,31,1708959024
112,17,17,Jits_Phase_5,2,5,56,103,1708965268
112,17,17,Jits_Phase_5,3,5,63,98,1708968336
112,17,17,Jits_Phase_5,0,5,56,103,1709395628
112,17,17,Jits_Phase_5,1,1,48,54,1709411104
112,17,17,Jits_Phase_5,2,5,80,127,1709414736
112,17,17,Jits_Phase_5,3,5,63,98,1709454820
112,17,17,Jits_Phase_5,0,5,80,127,1709874788
112,17,17,Jits_Phase_5,1,5,63,98,1709894876
112,17,17,Jits_Phase_5,2,1,48,46,1709948856
112,17,17,Jits_Phase_5,3,5,56,103,1709954508
112,17,17,Jits_Phase_5,0,5,63,98,1710384592
112,17,17,Jits_Phase_5,1,5,56,103,1710394640
112,17,17,Jits_Phase_5,2,1,48,42,1710407200
112,17,17,Jits_Phase_5,3,5,80,127,1710444980
112,17,17,Jits_Phase_5,0,5,56,103,1710874904
112,17,17,Jits_Phase_5,1,5,63,98,1710894540
112,17,17,Jits_Phase_5,2,1,48,49,1710898032
112,17,17,Jits_Phase_5,3,5,80,127,1710904652
112,17,17,Jits_Phase_5,0,1,48,64,1711342328
112,17,17,Jits_Phase_5,1,5,56,103,1711364612
112,17,17,Jits_Phase_5,2,5,63,98,1711367756
112,17,17,Jits_Phase_5,3,5,80,127,1711384848
112,17,17,Jits_Phase_5,0,1,48,53,1711805288
112,17,17,Jits_Phase_5,1,5,63,98,1711905316
112,17,17,Jits_Phase_5,2,5,56,103,1711934768
112,17,17,Jits_Phase_5,3,5,80,127,1711964664
112,17,17,Jits_Phase_5,0,5,80,127,1712364936
112,17,17,Jits_Phase_5,1,1,48,61,1712365828
112,17,17,Jits_Phase_5,2,5,56,103,1712455136
112,17,17,Jits_Phase_5,3,5,63,98,1712458276
112,17,17,Jits_Phase_5,0,5,56,103,1712864764
112,17,17,Jits_Phase_5,1,5,80,127,1712867756
112,17,17,Jits_Phase_5,2,1,48,54,1712884668
112,17,17,Jits_Phase_5,3,5,63,98,1712944696
112,17,17,Jits_Phase_5,0,5,80,127,1713365340
112,17,17,Jits_Phase_5,1,1,48,56,1713369284
112,17,17,Jits_Phase_5,2,5,63,98,1713424752
112,17,17,Jits_Phase_5,3,5,56,103,1713454572
112,17,17,Jits_Phase_5,0,5,63,98,1713865028
112,17,17,Jits_Phase_5,1,5,80,127,1713875224
112,17,17,Jits_Phase_5,2,1,48,56,1713898492
112,17,17,Jits_Phase_5,3,5,56,103,1713944820
112,17,17,Jits_Phase_5,0,1,48,49,1714373888
112,17,17,Jits_Phase_5,1,5,56,103,1714425080
112,17,17,Jits_Phase_5,2,5,80,127,1714454752
112,17,17,Jits_Phase_5,3,5,63,98,1714505012
112,17,17,Jits_Phase_5,0,1,48,55,1714887408
112,17,17,Jits_Phase_5,1,5,63,98,1715014936
112,17,17,Jits_Phase_5,2,5,56,103,1715044832
112,17,17,Jits_Phase_5,3,5,80,127,1715047900
112,17,17,Jits_Phase_5,0,1,48,57,1715425888
112,17,17,Jits_Phase_5,1,5,63,98,1715514692
112,17,17,Jits_Phase_5,2,5,80,127,1715535360
112,17,17,Jits_Phase_5,3,5,56,103,1715544436
112,17,17,Jits_Phase_5,0,1,48,51,1715951100
112,17,17,Jits_Phase_5,1,5,56,103,1716024632
112,17,17,Jits_Phase_5,2,5,63,98,1716027696
112,17,17,Jits_Phase_5,3,5,80,127,1716045148
112,17,17,Jits_Phase_5,0,1,48,55,1716429492
112,17,17,Jits_Phase_5,1,5,56,103,1716475228
112,17,17,Jits_Phase_5,2,5,63,98,1716484524
112,17,17,Jits_Phase_5,3,5,80,127,1716515244
112,17,17,Jits_Phase_5,0,1,48,51,1716904896
112,17,17,Jits_Phase_5,1,5,63,98,1716994748
112,17,17,Jits_Phase_5,2,5,80,127,1717015044
112,17,17,Jits_Phase_5,3,5,56,103,1717054832
112,17,17,Jits_Phase_5,0,1,48,62,1717357048
112,17,17,Jits_Phase_5,1,5,56,103,1717524756
112,17,17,Jits_Phase_5,2,5,63,98,1717564764
112,17,17,Jits_Phase_5,3,5,80,127,1717568352
112,17,17,Jits_Phase_5,0,1,48,55,1717922808
112,17,17,Jits_Phase_5,1,5,80,127,1717965176
112,17,17,Jits_Phase_5,2,5,56,103,1718005040
112,17,17,Jits_Phase_5,3,5,63,98,1718055148
112,17,17,Jits_Phase_5,0,1,48,55,1718477184
112,17,17,Jits_Phase_5,1,5,56,103,1718525236
112,17,17,Jits_Phase_5,2,5,80,127,1718534532
112,17,17,Jits_Phase_5,3,5,63,98,1718565104
112,17,17,Jits_Phase_5,0,1,48,46,1718954096
112,17,17,Jits_Phase_5,1,5,56,103,1718974940
112,17,17,Jits_Phase_5,2,5,80,127,1719014880
112,17,17,Jits_Phase_5,3,5,63,98,1719065064
112,17,17,Jits_Phase_5,0,1,48,51,1719436660
112,17,17,Jits_Phase_5,1,5,56,103,1719474544
112,17,17,Jits_Phase_5,2,5,80,127,1719514852
112,17,17,Jits_Phase_5,3,5,63,98,1719564740
112,17,17,Jits_Phase_5,0,1,48,49,1719940300
112,17,17,Jits_Phase_5,1,5,80,127,1719965152
112,17,17,Jits_Phase_5,2,5,63,98,1720045008
112,17,17,Jits_Phase_5,3,5,56,103,1720055204
112,17,17,Jits_Phase_5,0,1,48,50,1720449564
112,17,17,Jits_Phase_5,1,5,80,127,1720514952
112,17,17,Jits_Phase_5,2,5,56,103,1720525148
112,17,17,Jits_Phase_5,3,5,63,98,1720544616
112,17,17,Jits_Phase_5,0,1,48,54,1720940392
112,17,17,Jits_Phase_5,1,5,63,98,1720984880
112,17,17,Jits_Phase_5,2,5,56,103,1721054544
112,17,17,Jits_Phase_5,3,5,80,127,1721057612
112,17,17,Jits_Phase_5,0,1,48,52,1721420132
112,17,17,Jits_Phase_5,1,5,80,127,1721474408
112,17,17,Jits_Phase_5,2,5,63,98,1721524544
112,17,17,Jits_Phase_5,3,5,56,103,1721564780
112,17,17,Jits_Phase_5,0,1,48,59,1721939288
112,17,17,Jits_Phase_5,1,5,63,98,1722014940
112,17,17,Jits_Phase_5,2,5,56,103,1722055012
112,17,17,Jits_Phase_5,3,5,80,127,1722065208
112,17,17,Jits_Phase_5,0,1,48,56,1722432984
112,17,17,Jits_Phase_5,1,5,63,98,1722504700
112,17,17,Jits_Phase_5,2,5,56,103,1722525112
112,17,17,Jits_Phase_5,3,5,80,127,1722544580
112,17,17,Jits_Phase_5,0,1,48,49,1722944112
112,17,17,Jits_Phase_5,1,5,80,127,1722965632
112,17,17,Jits_Phase_5,2,5,56,103,1722974560
112,17,17,Jits_Phase_5,3,5,63,98,1722994940
112,17,17,Jits_Phase_5,0,1,48,65,1723427808
112,17,17,Jits_Phase_5,1,5,63,98,1723494668
112,17,17,Jits_Phase_5,2,5,56,103,1723534668
112,17,17,Jits_Phase_5,3,5,80,127,1723565416
112,17,17,Jits_Phase_5,0,1,48,54,1723911000
112,17,17,Jits_Phase_5,1,5,56,103,1723954640
112,17,17,Jits_Phase_5,2,5,63,98,1723985360
112,17,17,Jits_Phase_5,3,5,80,127,1724014944
112,17,17,Jits_Phase_5,0,5,80,127,1724375440
112,17,17,Jits_Phase_5,1,1,48,49,1724424344
112,17,17,Jits_Phase_5,2,5,56,103,1724445036
112,17,17,Jits_Phase_5,3,5,63,98,1724448028
112,17,17,Jits_Phase_5,0,5,56,103,1724885308
112,17,17,Jits_Phase_5,1,5,63,98,1724934540
112,17,17,Jits_Phase_5,2,1,48,55,1724945152
112,17,17,Jits_Phase_5,3,5,80,127,1724965400
112,17,17,Jits_Phase_5,0,5,63,98,1725364544
112,17,17,Jits_Phase_5,1,5,80,127,1725367760
112,17,17,Jits_Phase_5,2,1,48,57,1725373964
112,17,17,Jits_Phase_5,3,5,56,103,1725424924
112,17,17,Jits_Phase_5,0,1,48,57,1725815156
112,17,17,Jits_Phase_5,1,5,56,103,1725894992
112,17,17,Jits_Phase_5,2,5,80,127,1725905560
112,17,17,Jits_Phase_5,3,5,63,98,1725954624
112,17,17,Jits_Phase_5,0,1,48,54,1726297520
112,17,17,Jits_Phase_5,1,5,63,98,1726365148
112,17,17,Jits_Phase_5,2,5,56,103,1726375344
112,17,17,Jits_Phase_5,3,5,80,127,1726404852
112,17,17,Jits_Phase_5,0,1,48,53,1726838540
112,17,17,Jits_Phase_5,1,5,63,98,1726894636
112,17,17,Jits_Phase_5,2,5,80,127,1726897924
112,17,17,Jits_Phase_5,3,5,56,103,1726925428
112,17,17,Jits_Phase_5,0,1,48,52,1727356860
112,17,17,Jits_Phase_5,1,5,63,98,1727414604
112,17,17,Jits_Phase_5,2,5,56,103,1727435132
112,17,17,Jits_Phase_5,3,5,80,127,1727438496
112,17,17,Jits_Phase_5,0,5,63,98,1727874544
112,17,17,Jits_Phase_5,1,1,48,57,1727878192
112,17,17,Jits_Phase_5,2,5,56,103,1727945216
112,17,17,Jits_Phase_5,3,5,80,127,1727964700
112,17,17,Jits_Phase_5,0,5,56,103,1728364784
112,17,17,Jits_Phase_5,1,5,63,98,1728375276
112,17,17,Jits_Phase_5,2,1,48,53,1728381164
112,17,17,Jits_Phase_5,3,5,80,127,1728465348
112,17,17,Jits_Phase_5,0,1,48,45,1728873584
112,17,17,Jits_Phase_5,1,5,56,103,1728885140
112,17,17,Jits_Phase_5,2,5,80,127,1728925028
112,17,17,Jits_Phase_5,3,5,63,98,1728935372
112,17,17,Jits_Phase_5,0,1,48,62,1729341244
112,17,17,Jits_Phase_5,1,5,56,103,1729405264
112,17,17,Jits_Phase_5,2,5,63,98,1729435096
112,17,17,Jits_Phase_5,3,5,80,127,1729464620
112,17,17,Jits_Phase_5,0,1,48,50,1729852552
112,17,17,Jits_Phase_5,1,5,80,127,1729865080
112,17,17,Jits_Phase_5,2,5,63,98,1729904868
112,17,17,Jits_Phase_5,3,5,56,103,1729924504
112,17,17,Jits_Phase_5,0,1,48,68,1730374540
112,17,17,Jits_Phase_5,1,5,56,103,1730404832
112,17,17,Jits_Phase_5,2,5,80,127,1730425144
112,17,17,Jits_Phase_5,3,5,63,98,1730444628
112,17,17,Jits_Phase_5,0,1,48,61,1730874624
112,17,17,Jits_Phase_5,1,5,63,98,1730875888
112,17,17,Jits_Phase_5,2,5,56,103,1730885184
112,17,17,Jits_Phase_5,3,5,80,127,1730945500
112,17,17,Jits_Phase_5,0,1,48,53,1731372320
112,17,17,Jits_Phase_5,1,5,56,103,1731374364
112,17,17,Jits_Phase_5,2,5,63,98,1731445236
112,17,17,Jits_Phase_5,3,5,80,127,1731464500
112,17,17,Jits_Phase_5,0,5,56,103,1731875168
112,17,17,Jits_Phase_5,1,1,48,37,1731878732
112,17,17,Jits_Phase_5,2,5,63,98,1731904912
112,17,17,Jits_Phase_5,3,5,80,127,1731944696
112,17,17,Jits_Phase_5,0,5,63,98,1732364744
112,17,17,Jits_Phase_5,1,1,48,40,1732383152
112,17,17,Jits_Phase_5,2,5,56,103,1732414788
112,17,17,Jits_Phase_5,3,5,80,127,1732424984
112,17,17,Jits_Phase_5,0,1,48,47,1732875324
112,17,17,Jits_Phase_5,1,5,56,103,1732905464
112,17,17,Jits_Phase_5,2,5,63,98,1732954620
112,17,17,Jits_Phase_5,3,5,80,127,1732964592
112,17,17,Jits_Phase_5,0,1,48,54,1733359936
112,17,17,Jits_Phase_5,1,5,56,103,1733384540
112,17,17,Jits_Phase_5,2,5,63,98,1733394884
112,17,17,Jits_Phase_5,3,5,80,127,1733474808
112,17,17,Jits_Phase_5,0,9999,9999,9999,1649142852
112,17,17,Jits_Phase_5,1,9999,9999,9999,1649642560
112,17,17,Jits_Phase_5,2,9999,9999,9999,1650142288
112,17,17,Jits_Phase_5,3,9999,9999,9999,1650643056
112,17,17,Jits_Phase_5,4,9999,9999,9999,1651142752
112,17,17,Jits_Phase_5,5,9999,9999,9999,1651642432
112,17,17,Jits_Phase_5,6,9999,9999,9999,1652142180
112,17,17,Jits_Phase_5,7,9999,9999,9999,1652642912
112,17,17,Jits_Phase_5,8,9999,9999,9999,1653142600
112,17,17,Jits_Phase_5,9,9999,9999,9999,1653642324
112,17,17,Jits_Phase_5,10,9999,9999,9999,1654143032
112,17,17,Jits_Phase_5,11,9999,9999,9999,1654642784
112,17,17,Jits_Phase_5,12,9999,9999,9999,1655142528
112,17,17,Jits_Phase_5,13,9999,9999,9999,1655642200
112,17,17,Jits_Phase_5,14,9999,9999,9999,1656142908
112,17,17,Jits_Phase_5,15,9999,9999,9999,1656642656
112,17,17,Jits_Phase_5,16,9999,9999,9999,1657142328
112,17,17,Jits_Phase_5,17,9999,9999,9999,1657643124
112,17,17,Jits_Phase_5,18,9999,9999,9999,1658153060
112,17,17,Jits_Phase_5,19,9999,9999,9999,1658652736
112,17,17,Jits_Phase_5,20,9999,9999,9999,1659152484
112,17,17,Jits_Phase_5,21,9999,9999,9999,1659652160
112,17,17,Jits_Phase_5,22,9999,9999,9999,1660152956
112,17,17,Jits_Phase_5,23,9999,9999,9999,1660652632
112,17,17,Jits_Phase_5,24,9999,9999,9999,1661152380
112,17,17,Jits_Phase_5,25,9999,9999,9999,1661653096
112,17,17,Jits_Phase_5,26,9999,9999,9999,1662152772
112,17,17,Jits_Phase_5,27,9999,9999,9999,1662652496
112,17,17,Jits_Phase_5,28,9999,9999,9999,1663152248
112,17,17,Jits_Phase_5,29,9999,9999,9999,1663652968
112,17,17,Jits_Phase_5,30,9999,9999,9999,1664142432
112,17,17,Jits_Phase_5,31,9999,9999,9999,1664642108
112,17,17,Jits_Phase_5,32,9999,9999,9999,1665142900
112,17,17,Jits_Phase_5,33,9999,9999,9999,1665642576
112,17,17,Jits_Phase_5,34,9999,9999,9999,1666142324
112,17,17,Jits_Phase_5,35,9999,9999,9999,1666643048
112,17,17,Jits_Phase_5,36,9999,9999,9999,1667142784
112,17,17,Jits_Phase_5,37,9999,9999,9999,1667642460
112,17,17,Jits_Phase_5,38,9999,9999,9999,1668142208
112,17,17,Jits_Phase_5,39,9999,9999,9999,1668642928
112,17,17,Jits_Phase_5,40,9999,9999,9999,1669142608
112,17,17,Jits_Phase_5,41,9999,9999,9999,1669642352
112,17,17,Jits_Phase_5,42,9999,9999,9999,1670143072
112,17,17,Jits_Phase_5,43,9999,9999,9999,1670642744
112,17,17,Jits_Phase_5,44,9999,9999,9999,1671142492
112,17,17,Jits_Phase_5,45,9999,9999,9999,1671642236
112,17,17,Jits_Phase_5,46,9999,9999,9999,1672142956
112,17,17,Jits_Phase_5,47,9999,9999,9999,1672642640
112,17,17,Jits_Phase_5,48,9999,9999,9999,1673152576
112,17,17,Jits_Phase_5,49,9999,9999,9999,1673652332
112,17,17,Jits_Phase_5,50,9999,9999,9999,1674153044
112,17,17,Jits_Phase_5,51,9999,9999,9999,1674652792
112,17,17,Jits_Phase_5,52,9999,9999,9999,1675152444
112,17,17,Jits_Phase_5,53,9999,9999,9999,1675652192
112,17,17,Jits_Phase_5,54,9999,9999,9999,1676152912
112,17,17,Jits_Phase_5,55,9999,9999,9999,1676652664
112,17,17,Jits_Phase_5,56,9999,9999,9999,1677152340
112,17,17,Jits_Phase_5,57,9999,9999,9999,1677653056
112,17,17,Jits_Phase_5,58,9999,9999,9999,1678152808
112,17,17,Jits_Phase_5,59,9999,9999,9999,1678652540
112,17,17,Jits_Phase_5,60,9999,9999,9999,1679152216
112,17,17,Jits_Phase_5,61,9999,9999,9999,1679652932
112,17,17,Jits_Phase_5,62,9999,9999,9999,1680152676
112,17,17,Jits_Phase_5,63,9999,9999,9999,1680652348
112,17,17,Jits_Phase_5,64,9999,9999,9999,1681172548
112,17,17,Jits_Phase_5,65,9999,9999,9999,1681672292
112,17,17,Jits_Phase_5,66,9999,9999,9999,1682173012
112,17,17,Jits_Phase_5,67,9999,9999,9999,1682672748
112,17,17,Jits_Phase_5,68,9999,9999,9999,1683172424
112,17,17,Jits_Phase_5,69,9999,9999,9999,1683672176
112,17,17,Jits_Phase_5,70,9999,9999,9999,1684172884
112,17,17,Jits_Phase_5,71,9999,9999,9999,1684672568
112,17,17,Jits_Phase_5,72,9999,9999,9999,1685172316
112,17,17,Jits_Phase_5,73,9999,9999,9999,1685673028
112,17,17,Jits_Phase_5,74,9999,9999,9999,1686172780
112,17,17,Jits_Phase_5,75,9999,9999,9999,1686672496
112,17,17,Jits_Phase_5,76,9999,9999,9999,1687172172
112,17,17,Jits_Phase_5,77,9999,9999,9999,1687672892
112,17,17,Jits_Phase_5,78,9999,9999,9999,1688172636
112,17,17,Jits_Phase_5,79,9999,9999,9999,1688672384
112,17,17,Jits_Phase_5,80,9999,9999,9999,1689173104
112,17,17,Jits_Phase_5,81,9999,9999,9999,1689652328
112,17,17,Jits_Phase_5,82,9999,9999,9999,1690153052
112,17,17,Jits_Phase_5,83,9999,9999,9999,1690652796
112,17,17,Jits_Phase_5,84,9999,9999,9999,1691152476
112,17,17,Jits_Phase_5,85,9999,9999,9999,1691652216
112,17,17,Jits_Phase_5,86,9999,9999,9999,1692152932
112,17,17,Jits_Phase_5,87,9999,9999,9999,1692652604
112,17,17,Jits_Phase_5,88,9999,9999,9999,1693152352
112,17,17,Jits_Phase_5,89,9999,9999,9999,1693653072
112,17,17,Jits_Phase_5,90,9999,9999,9999,1694152820
112,17,17,Jits_Phase_5,91,9999,9999,9999,1694652488
112,17,17,Jits_Phase_5,92,9999,9999,9999,1695152220
112,17,17,Jits_Phase_5,93,9999,9999,9999,1695652944
112,17,17,Jits_Phase_5,94,9999,9999,9999,1696152688
112,17,17,Jits_Phase_5,95,9999,9999,9999,1696652412
112,17,17,Jits_Phase_5,96,9999,9999,9999,1697152080
112,17,17,Jits_Phase_5,97,9999,9999,9999,1697602680
112,17,17,Jits_Phase_5,98,9999,9999,9999,1698102356
112,17,17,Jits_Phase_5,99,9999,9999,9999,1698603076
112,17,17,Jits_Phase_5,100,9999,9999,9999,1699113088
112,17,17,Jits_Phase_5,101,9999,9999,9999,1699612760
112,17,17,Jits_Phase_5,102,9999,9999,9999,1700112496
112,17,17,Jits_Phase_5,103,9999,9999,9999,1700612176
112,17,17,Jits_Phase_5,104,9999,9999,9999,1701112892
112,17,17,Jits_Phase_5,105,9999,9999,9999,1701612640
112,17,17,Jits_Phase_5,106,9999,9999,9999,1702112312
112,17,17,Jits_Phase_5,107,9999,9999,9999,1702613104
112,17,17,Jits_Phase_5,108,9999,9999,9999,1703112776
112,17,17,Jits_Phase_5,109,9999,9999,9999,1703612524
112,17,17,Jits_Phase_5,110,9999,9999,9999,1704112200
112,17,17,Jits_Phase_5,111,9999,9999,9999,1704612920
112,17,17,Jits_Phase_5,112,9999,9999,9999,1705112664
112,17,17,Jits_Phase_5,113,9999,9999,9999,1705612392
112,17,17,Jits_Phase_5,114,9999,9999,9999,1706162272
112,17,17,Jits_Phase_5,115,9999,9999,9999,1706662984
112,17,17,Jits_Phase_5,116,9999,9999,9999,1707162732
112,17,17,Jits_Phase_5,117,9999,9999,9999,1707662456
112,17,17,Jits_Phase_5,118,9999,9999,9999,1708162136
112,17,17,Jits_Phase_5,119,9999,9999,9999,1708662852
112,17,17,Jits_Phase_5,120,9999,9999,9999,1709162608
112,17,17,Jits_Phase_5,121,9999,9999,9999,1709662296
112,17,17,Jits_Phase_5,122,9999,9999,9999,1710163032
112,17,17,Jits_Phase_5,123,9999,9999,9999,1710662720
112,17,17,Jits_Phase_5,124,9999,9999,9999,1711162468
112,17,17,Jits_Phase_5,125,9999,9999,9999,1711662144
112,17,17,Jits_Phase_5,126,9999,9999,9999,1712162868
112,17,17,Jits_Phase_5,127,9999,9999,9999,1712662612
112,17,17,Jits_Phase_5,128,9999,9999,9999,1713162360
112,17,17,Jits_Phase_5,129,9999,9999,9999,1713663096
112,17,17,Jits_Phase_5,130,9999,9999,9999,1714162780
112,17,17,Jits_Phase_5,131,9999,9999,9999,1714762840
112,17,17,Jits_Phase_5,132,9999,9999,9999,1715262588
112,17,17,Jits_Phase_5,133,9999,9999,9999,1715762264
112,17,17,Jits_Phase_5,134,9999,9999,9999,1716262976
112,17,17,Jits_Phase_5,135,9999,9999,9999,1716762724
112,17,17,Jits_Phase_5,136,9999,9999,9999,1717262396
112,17,17,Jits_Phase_5,137,9999,9999,9999,1717762144
112,17,17,Jits_Phase_5,138,9999,9999,9999,1718262864
112,17,17,Jits_Phase_5,139,9999,9999,9999,1718762616
112,17,17,Jits_Phase_5,140,9999,9999,9999,1719262292
112,17,17,Jits_Phase_5,141,9999,9999,9999,1719763016
112,17,17,Jits_Phase_5,142,9999,9999,9999,1720262768
112,17,17,Jits_Phase_5,143,9999,9999,9999,1720762444
112,17,17,Jits_Phase_5,144,9999,9999,9999,1721262184
112,17,17,Jits_Phase_5,145,9999,9999,9999,1721762908
112,17,17,Jits_Phase_5,146,9999,9999,9999,1722262588
112,17,17,Jits_Phase_5,147,9999,9999,9999,1722762308
112,17,17,Jits_Phase_5,148,9999,9999,9999,1723263092
112,17,17,Jits_Phase_5,149,9999,9999,9999,1723762768
112,17,17,Jits_Phase_5,150,9999,9999,9999,1724162136
112,17,17,Jits_Phase_5,151,9999,9999,9999,1724662852
112,17,17,Jits_Phase_5,152,9999,9999,9999,1725162616
112,17,17,Jits_Phase_5,153,9999,9999,9999,1725662292
112,17,17,Jits_Phase_5,154,9999,9999,9999,1726163012
112,17,17,Jits_Phase_5,155,9999,9999,9999,1726662756
112,17,17,Jits_Phase_5,156,9999,9999,9999,1727162420
112,17,17,Jits_Phase_5,157,9999,9999,9999,1727662164
112,17,17,Jits_Phase_5,158,9999,9999,9999,1728162888
112,17,17,Jits_Phase_5,159,9999,9999,9999,1728662640
112,17,17,Jits_Phase_5,160,9999,9999,9999,1729162304
112,17,17,Jits_Phase_5,161,9999,9999,9999,1729663096
112,17,17,Jits_Phase_5,162,9999,9999,9999,1730162768
112,17,17,Jits_Phase_5,163,9999,9999,9999,1730662516
112,17,17,Jits_Phase_5,164,9999,9999,9999,1731162188
112,17,17,Jits_Phase_5,165,9999,9999,9999,1731662912
112,17,17,Jits_Phase_5,166,9999,9999,9999,1732162660
112,17,17,Jits_Phase_5,167,9999,9999,9999,1732662348
112,17,17,Jits_Phase_5,168,9999,9999,9999,1733163076
112,17,17,Jits_Phase_5,169,9999,9999,9999,1733673084
112,18,18,Jits_Linear_8,0,5,56,103,1742868820
112,18,18,Jits_Linear_8,1,5,63,98,1742871912
112,18,18,Jits_Linear_8,2,5,80,127,1742875036
112,18,18,Jits_Linear_8,0,5,56,103,1743689276
112,18,18,Jits_Linear_8,1,5,63,98,1743692524
112,18,18,Jits_Linear_8,2,5,80,127,1743695644
112,18,18,Jits_Linear_8,0,5,80,127,1744448768
112,18,18,Jits_Linear_8,1,5,63,98,1744538928
112,18,18,Jits_Linear_8,2,5,56,103,1744549348
112,18,18,Jits_Linear_8,0,5,56,103,1745288428
112,18,18,Jits_Linear_8,1,5,63,98,1745298948
112,18,18,Jits_Linear_8,2,5,80,127,1745389004
112,18,18,Jits_Linear_8,0,5,63,98,1746079108
112,18,18,Jits_Linear_8,1,5,80,127,1746108712
112,18,18,Jits_Linear_8,2,5,56,103,1746138460
112,18,18,Jits_Linear_8,3,1,48,41,1746183972
112,18,18,Jits_Linear_8,0,1,48,49,1746870728
112,18,18,Jits_Linear_8,1,5,56,103,1746899300
112,18,18,Jits_Linear_8,2,5,80,127,1746998564
112,18,18,Jits_Linear_8,3,5,63,98,1747048688
112,18,18,Jits_Linear_8,0,5,56,103,1747709252
112,18,18,Jits_Linear_8,1,5,80,127,1747758408
112,18,18,Jits_Linear_8,2,1,48,62,1747759968
112,18,18,Jits_Linear_8,3,5,63,98,1747799536
112,18,18,Jits_Linear_8,0,5,80,127,1748549248
112,18,18,Jits_Linear_8,1,1,48,55,1748555580
112,18,18,Jits_Linear_8,2,5,63,98,1748578620
112,18,18,Jits_Linear_8,3,5,56,103,1748649300
112,18,18,Jits_Linear_8,0,1,48,54,1749282300
112,18,18,Jits_Linear_8,1,5,63,98,1749388560
112,18,18,Jits_Linear_8,2,5,56,103,1749419380
112,18,18,Jits_Linear_8,3,5,80,127,1749478724
112,18,18,Jits_Linear_8,0,1,48,56,1750045264
112,18,18,Jits_Linear_8,1,5,56,103,1750139156
112,18,18,Jits_Linear_8,2,5,80,127,1750142228
112,18,18,Jits_Linear_8,3,5,63,98,1750259060
112,18,18,Jits_Linear_8,0,1,48,63,1750790692
112,18,18,Jits_Linear_8,1,5,56,103,1751018800
112,18,18,Jits_Linear_8,2,5,80,127,1751058740
112,18,18,Jits_Linear_8,3,5,63,98,1751069160
112,18,18,Jits_Linear_8,0,1,48,57,1751643272
112,18,18,Jits_Linear_8,1,5,56,103,1751778552
112,18,18,Jits_Linear_8,2,5,80,127,1751799308
112,18,18,Jits_Linear_8,3,5,63,98,1751879180
112,18,18,Jits_Linear_8,0,1,48,55,1752406624
112,18,18,Jits_Linear_8,1,5,80,127,1752569164
112,18,18,Jits_Linear_8,2,5,56,103,1752668520
112,18,18,Jits_Linear_8,3,5,63,98,1752678716
112,18,18,Jits_Linear_8,0,1,48,51,1753252624
112,18,18,Jits_Linear_8,1,5,63,98,1753339344
112,18,18,Jits_Linear_8,2,5,80,127,1753398600
112,18,18,Jits_Linear_8,3,5,56,103,1753409020
112,18,18,Jits_Linear_8,0,1,48,51,1753998112
112,18,18,Jits_Linear_8,1,5,56,103,1754139152
112,18,18,Jits_Linear_8,2,5,63,98,1754208612
112,18,18,Jits_Linear_8,3,5,80,127,1754212124
112,18,18,Jits_Linear_8,0,1,48,51,1754770604
112,18,18,Jits_Linear_8,1,5,63,98,1754968640
112,18,18,Jits_Linear_8,2,5,56,103,1755018692
112,18,18,Jits_Linear_8,3,5,80,127,1755021680
112,18,18,Jits_Linear_8,0,1,48,55,1755603804
112,18,18,Jits_Linear_8,1,5,56,103,1755719128
112,18,18,Jits_Linear_8,2,5,80,127,1755722196
112,18,18,Jits_Linear_8,3,5,63,98,1755809284
112,18,18,Jits_Linear_8,0,1,48,40,1756435612
112,18,18,Jits_Linear_8,1,5,63,98,1756548392
112,18,18,Jits_Linear_8,2,5,56,103,1756638556
112,18,18,Jits_Linear_8,3,5,80,127,1756669352
112,18,18,Jits_Linear_8,0,1,48,50,1757220244
112,18,18,Jits_Linear_8,1,5,56,103,1757328920
112,18,18,Jits_Linear_8,2,5,63,98,1757429244
112,18,18,Jits_Linear_8,3,5,80,127,1757458848
112,18,18,Jits_Linear_8,0,1,48,49,1758015124
112,18,18,Jits_Linear_8,1,5,63,98,1758138796
112,18,18,Jits_Linear_8,2,5,56,103,1758148992
112,18,18,Jits_Linear_8,3,5,80,127,1758239052
112,18,18,Jits_Linear_8,0,1,48,46,1758804024
112,18,18,Jits_Linear_8,1,5,63,98,1758938480
112,18,18,Jits_Linear_8,2,5,56,103,1759019324
112,18,18,Jits_Linear_8,3,5,80,127,1759022536
112,18,18,Jits_Linear_8,0,1,48,50,1759597192
112,18,18,Jits_Linear_8,1,5,80,127,1759678980
112,18,18,Jits_Linear_8,2,5,63,98,1759699276
112,18,18,Jits_Linear_8,3,5,56,103,1759759212
112,18,18,Jits_Linear_8,0,1,48,49,1760365988
112,18,18,Jits_Linear_8,1,5,56,103,1760499248
112,18,18,Jits_Linear_8,2,5,63,98,1760518436
112,18,18,Jits_Linear_8,3,5,80,127,1760522020
112,18,18,Jits_Linear_8,0,1,48,46,1761089172
112,18,18,Jits_Linear_8,1,5,63,98,1761219052
112,18,18,Jits_Linear_8,2,5,80,127,1761298924
112,18,18,Jits_Linear_8,3,5,56,103,1761309196
112,18,18,Jits_Linear_8,0,1,48,54,1761861944
112,18,18,Jits_Linear_8,1,5,63,98,1762018652
112,18,18,Jits_Linear_8,2,5,56,103,1762039260
112,18,18,Jits_Linear_8,3,5,80,127,1762089312
112,18,18,Jits_Linear_8,0,1,48,49,1762683420
112,18,18,Jits_Linear_8,1,5,80,127,1762798920
112,18,18,Jits_Linear_8,2,5,63,98,1762839012
112,18,18,Jits_Linear_8,3,5,56,103,1762859324
112,18,18,Jits_Linear_8,0,1,48,55,1763471112
112,18,18,Jits_Linear_8,1,5,56,103,1763608916
112,18,18,Jits_Linear_8,2,5,63,98,1763619264
112,18,18,Jits_Linear_8,3,5,80,127,1763638528
112,18,18,Jits_Linear_8,0,1,48,54,1764260312
112,18,18,Jits_Linear_8,1,5,56,103,1764309336
112,18,18,Jits_Linear_8,2,5,63,98,1764398488
112,18,18,Jits_Linear_8,3,5,80,127,1764459024
112,18,18,Jits_Linear_8,0,1,48,52,1765051820
112,18,18,Jits_Linear_8,1,5,80,127,1765109168
112,18,18,Jits_Linear_8,2,5,56,103,1765119440
112,18,18,Jits_Linear_8,3,5,63,98,1765188956
112,18,18,Jits_Linear_8,0,1,48,59,1765760372
112,18,18,Jits_Linear_8,1,5,63,98,1765908832
112,18,18,Jits_Linear_8,2,5,80,127,1765998820
112,18,18,Jits_Linear_8,3,5,56,103,1766009240
112,18,18,Jits_Linear_8,0,1,48,56,1766561280
112,18,18,Jits_Linear_8,1,5,63,98,1766609260
112,18,18,Jits_Linear_8,2,5,80,127,1766658328
112,18,18,Jits_Linear_8,3,5,56,103,1766718940
112,18,18,Jits_Linear_8,0,1,48,40,1767349276
112,18,18,Jits_Linear_8,1,5,56,103,1767399044
112,18,18,Jits_Linear_8,2,5,80,127,1767449084
112,18,18,Jits_Linear_8,3,5,63,98,1767469472
112,18,18,Jits_Linear_8,0,1,48,61,1768041932
112,18,18,Jits_Linear_8,1,5,56,103,1768128828
112,18,18,Jits_Linear_8,2,5,80,127,1768189204
112,18,18,Jits_Linear_8,3,5,63,98,1768259108
112,18,18,Jits_Linear_8,0,1,48,48,1768834112
112,18,18,Jits_Linear_8,1,5,56,103,1768888932
112,18,18,Jits_Linear_8,2,5,80,127,1768919436
112,18,18,Jits_Linear_8,3,5,63,98,1768949168
112,18,18,Jits_Linear_8,0,1,48,51,1769590776
112,18,18,Jits_Linear_8,1,5,56,103,1769688372
112,18,18,Jits_Linear_8,2,5,80,127,1769709052
112,18,18,Jits_Linear_8,3,5,63,98,1769769292
112,18,18,Jits_Linear_8,0,1,48,56,1770376312
112,18,18,Jits_Linear_8,1,5,80,127,1770529108
112,18,18,Jits_Linear_8,2,5,56,103,1770539304
112,18,18,Jits_Linear_8,3,5,63,98,1770548456
112,18,18,Jits_Linear_8,0,1,48,54,1771167408
112,18,18,Jits_Linear_8,1,5,56,103,1771238904
112,18,18,Jits_Linear_8,2,5,80,127,1771278980
112,18,18,Jits_Linear_8,3,5,63,98,1771309404
112,18,18,Jits_Linear_8,0,5,56,103,1771959032
112,18,18,Jits_Linear_8,1,1,48,50,1771963872
112,18,18,Jits_Linear_8,2,5,63,98,1771989300
112,18,18,Jits_Linear_8,3,5,80,127,1772029240
112,18,18,Jits_Linear_8,0,5,80,127,1772658984
112,18,18,Jits_Linear_8,1,5,63,98,1772709360
112,18,18,Jits_Linear_8,2,1,48,49,1772718332
112,18,18,Jits_Linear_8,3,5,56,103,1772728768
112,18,18,Jits_Linear_8,0,1,48,48,1773419984
112,18,18,Jits_Linear_8,1,5,56,103,1773439412
112,18,18,Jits_Linear_8,2,5,80,127,1773509044
112,18,18,Jits_Linear_8,3,5,63,98,1773569568
112,18,18,Jits_Linear_8,0,1,48,46,1774170740
112,18,18,Jits_Linear_8,1,5,80,127,1774178784
112,18,18,Jits_Linear_8,2,5,63,98,1774269080
112,18,18,Jits_Linear_8,3,5,56,103,1774289316
112,18,18,Jits_Linear_8,0,5,63,98,1774938396
112,18,18,Jits_Linear_8,1,5,56,103,1774958932
112,18,18,Jits_Linear_8,2,1,48,54,1774976368
112,18,18,Jits_Linear_8,3,5,80,127,1774998812
112,18,18,Jits_Linear_8,0,5,80,127,1775638804
112,18,18,Jits_Linear_8,1,5,63,98,1775659336
112,18,18,Jits_Linear_8,2,1,48,48,1775668236
112,18,18,Jits_Linear_8,3,5,56,103,1775739200
112,18,18,Jits_Linear_8,0,5,63,98,1776368964
112,18,18,Jits_Linear_8,1,1,48,40,1776376716
112,18,18,Jits_Linear_8,2,5,56,103,1776478780
112,18,18,Jits_Linear_8,3,5,80,127,1776481920
112,18,18,Jits_Linear_8,0,1,48,36,1777090980
112,18,18,Jits_Linear_8,1,5,63,98,1777128920
112,18,18,Jits_Linear_8,2,5,56,103,1777139040
112,18,18,Jits_Linear_8,3,5,80,127,1777142180
112,18,18,Jits_Linear_8,0,1,48,39,1777809656
112,18,18,Jits_Linear_8,1,5,56,103,1777848940
112,18,18,Jits_Linear_8,2,5,80,127,1777968656
112,18,18,Jits_Linear_8,3,5,63,98,1778008296
112,18,18,Jits_Linear_8,0,5,56,103,1778599332
112,18,18,Jits_Linear_8,1,5,80,127,1778679204
112,18,18,Jits_Linear_8,2,1,48,47,1778689668
112,18,18,Jits_Linear_8,3,5,63,98,1778698536
112,18,18,Jits_Linear_8,0,5,56,103,1779329476
112,18,18,Jits_Linear_8,1,1,48,47,1779393152
112,18,18,Jits_Linear_8,2,5,63,98,1779438960
112,18,18,Jits_Linear_8,3,5,80,127,1779442248
112,18,18,Jits_Linear_8,0,5,56,103,1780089084
112,18,18,Jits_Linear_8,1,5,80,127,1780118860
112,18,18,Jits_Linear_8,2,5,63,98,1780139244
112,18,18,Jits_Linear_8,3,1,48,46,1780140212
112,18,18,Jits_Linear_8,0,5,63,98,1780798872
112,18,18,Jits_Linear_8,1,5,56,103,1780809144
112,18,18,Jits_Linear_8,2,5,80,127,1780819264
112,18,18,Jits_Linear_8,3,1,48,43,1780871676
112,18,18,Jits_Linear_8,0,5,80,127,1781508420
112,18,18,Jits_Linear_8,1,1,48,41,1781529296
112,18,18,Jits_Linear_8,2,5,56,103,1781558764
112,18,18,Jits_Linear_8,3,5,63,98,1781599000
112,18,18,Jits_Linear_8,0,5,80,127,1782248924
112,18,18,Jits_Linear_8,1,5,63,98,1782269164
112,18,18,Jits_Linear_8,2,1,48,48,1782304264
112,18,18,Jits_Linear_8,3,5,56,103,1782318532
112,18,18,Jits_Linear_8,0,5,80,127,1782978868
112,18,18,Jits_Linear_8,1,5,56,103,1783008696
112,18,18,Jits_Linear_8,2,1,48,48,1783025068
112,18,18,Jits_Linear_8,3,5,63,98,1783079264
112,18,18,Jits_Linear_8,0,1,48,48,1783689800
112,18,18,Jits_Linear_8,1,5,56,103,1783748968
112,18,18,Jits_Linear_8,2,5,80,127,1783759164
112,18,18,Jits_Linear_8,3,5,63,98,1783799160
112,18,18,Jits_Linear_8,0,5,56,103,1784378708
112,18,18,Jits_Linear_8,1,5,63,98,1784399096
112,18,18,Jits_Linear_8,2,1,48,54,1784427696
112,18,18,Jits_Linear_8,3,5,80,127,1784468792
112,18,18,Jits_Linear_8,0,1,48,46,1785068456
112,18,18,Jits_Linear_8,1,5,63,98,1785119056
112,18,18,Jits_Linear_8,2,5,80,127,1785178684
112,18,18,Jits_Linear_8,3,5,56,103,1785198924
112,18,18,Jits_Linear_8,0,5,80,127,1785818500
112,18,18,Jits_Linear_8,1,1,48,53,1785830612
112,18,18,Jits_Linear_8,2,5,56,103,1785849292
112,18,18,Jits_Linear_8,3,5,63,98,1785878968
112,18,18,Jits_Linear_8,0,5,56,103,1786529112
112,18,18,Jits_Linear_8,1,1,48,52,1786569772
112,18,18,Jits_Linear_8,2,5,63,98,1786588748
112,18,18,Jits_Linear_8,3,5,80,127,1786648992
112,18,18,Jits_Linear_8,0,1,48,51,1787227760
112,18,18,Jits_Linear_8,1,5,80,127,1787259176
112,18,18,Jits_Linear_8,2,5,56,103,1787278764
112,18,18,Jits_Linear_8,3,5,63,98,1787349252
112,18,18,Jits_Linear_8,0,1,48,55,1787916244
112,18,18,Jits_Linear_8,1,5,80,127,1787968880
112,18,18,Jits_Linear_8,2,5,63,98,1787989340
112,18,18,Jits_Linear_8,3,5,56,103,1788019076
112,18,18,Jits_Linear_8,0,1,48,62,1788597940
112,18,18,Jits_Linear_8,1,5,80,127,1788659100
112,18,18,Jits_Linear_8,2,5,63,98,1788678660
112,18,18,Jits_Linear_8,3,5,56,103,1788739036
112,18,18,Jits_Linear_8,0,1,48,42,1789269996
112,18,18,Jits_Linear_8,1,5,80,127,1789358612
112,18,18,Jits_Linear_8,2,5,56,103,1789458772
112,18,18,Jits_Linear_8,3,5,63,98,1789488744
112,18,18,Jits_Linear_8,0,1,48,60,1790014164
112,18,18,Jits_Linear_8,1,5,63,98,1790048812
112,18,18,Jits_Linear_8,2,5,80,127,1790098668
112,18,18,Jits_Linear_8,3,5,56,103,1790119488
112,18,18,Jits_Linear_8,0,1,48,56,1790624888
112,18,18,Jits_Linear_8,1,5,80,127,1790788992
112,18,18,Jits_Linear_8,2,5,56,103,1790818588
112,18,18,Jits_Linear_8,3,5,63,98,1790821880
112,18,18,Jits_Linear_8,0,1,48,51,1791319136
112,18,18,Jits_Linear_8,1,5,63,98,1791519212
112,18,18,Jits_Linear_8,2,5,56,103,1791559076
112,18,18,Jits_Linear_8,3,5,80,127,1791578492
112,18,18,Jits_Linear_8,0,1,48,52,1792107892
112,18,18,Jits_Linear_8,1,5,80,127,1792158960
112,18,18,Jits_Linear_8,2,5,63,98,1792238896
112,18,18,Jits_Linear_8,3,5,56,103,1792278836
112,18,18,Jits_Linear_8,0,1,48,57,1792797968
112,18,18,Jits_Linear_8,1,5,63,98,1792868792
112,18,18,Jits_Linear_8,2,5,80,127,1792948528
112,18,18,Jits_Linear_8,3,5,56,103,1792968984
112,18,18,Jits_Linear_8,0,1,48,62,1793472448
112,18,18,Jits_Linear_8,1,5,56,103,1793598864
112,18,18,Jits_Linear_8,2,5,63,98,1793609064
112,18,18,Jits_Linear_8,3,5,80,127,1793649152
112,18,18,Jits_Linear_8,0,1,48,60,1794124732
112,18,18,Jits_Linear_8,1,5,56,103,1794209228
112,18,18,Jits_Linear_8,2,5,80,127,1794212072
112,18,18,Jits_Linear_8,3,5,63,98,1794349616
112,18,18,Jits_Linear_8,0,1,48,58,1794813672
112,18,18,Jits_Linear_8,1,5,56,103,1794889152
112,18,18,Jits_Linear_8,2,5,63,98,1794979300
112,18,18,Jits_Linear_8,3,5,80,127,1795048832
112,18,18,Jits_Linear_8,0,1,48,59,1795428956
112,18,18,Jits_Linear_8,1,5,63,98,1795648740
112,18,18,Jits_Linear_8,2,5,80,127,1795652108
112,18,18,Jits_Linear_8,3,5,56,103,1795709508
112,18,18,Jits_Linear_8,0,1,48,54,1796155432
112,18,18,Jits_Linear_8,1,1,48,30,1796220448
112,18,18,Jits_Linear_8,2,5,80,127,1796368760
112,18,18,Jits_Linear_8,3,5,56,103,1796389220
112,18,18,Jits_Linear_8,4,5,63,98,1796398448
112,18,18,Jits_Linear_8,0,1,48,47,1796927016
112,18,18,Jits_Linear_8,1,5,56,103,1796958508
112,18,18,Jits_Linear_8,2,5,63,98,1796968852
112,18,18,Jits_Linear_8,3,5,80,127,1797038468
112,18,18,Jits_Linear_8,0,1,48,43,1797526488
112,18,18,Jits_Linear_8,1,5,80,127,1797638452
112,18,18,Jits_Linear_8,2,5,56,103,1797688804
112,18,18,Jits_Linear_8,3,5,63,98,1797739004
112,18,18,Jits_Linear_8,0,1,48,44,1798230852
112,18,18,Jits_Linear_8,1,5,56,103,1798399540
112,18,18,Jits_Linear_8,2,5,63,98,1798408616
112,18,18,Jits_Linear_8,3,5,80,127,1798448628
112,18,18,Jits_Linear_8,0,1,48,45,1798958180
112,18,18,Jits_Linear_8,1,5,56,103,1799018816
112,18,18,Jits_Linear_8,2,5,63,98,1799058840
112,18,18,Jits_Linear_8,3,5,80,127,1799109040
112,18,18,Jits_Linear_8,0,1,48,40,1799643676
112,18,18,Jits_Linear_8,1,5,80,127,1799648504
112,18,18,Jits_Linear_8,2,5,56,103,1799698784
112,18,18,Jits_Linear_8,3,5,63,98,1799719540
112,18,18,Jits_Linear_8,0,5,80,127,1800328592
112,18,18,Jits_Linear_8,1,1,48,39,1800349196
112,18,18,Jits_Linear_8,2,5,63,98,1800389000
112,18,18,Jits_Linear_8,3,5,56,103,1800468932
112,18,18,Jits_Linear_8,0,5,80,127,1800978820
112,18,18,Jits_Linear_8,1,5,56,103,1801018760
112,18,18,Jits_Linear_8,2,1,48,44,1801022400
112,18,18,Jits_Linear_8,3,5,63,98,1801039512
112,18,18,Jits_Linear_8,0,5,56,103,1801698652
112,18,18,Jits_Linear_8,1,5,80,127,1801708848
112,18,18,Jits_Linear_8,2,1,48,41,1801738268
112,18,18,Jits_Linear_8,3,5,63,98,1801748776
112,18,18,Jits_Linear_8,0,1,48,52,1802352336
112,18,18,Jits_Linear_8,1,5,56,103,1802439152
112,18,18,Jits_Linear_8,2,5,63,98,1802479000
112,18,18,Jits_Linear_8,3,5,80,127,1802482512
112,18,18,Jits_Linear_8,0,5,63,98,1802989024
112,18,18,Jits_Linear_8,1,1,48,50,1803003676
112,18,18,Jits_Linear_8,2,5,80,127,1803028884
112,18,18,Jits_Linear_8,3,5,56,103,1803098548
112,18,18,Jits_Linear_8,0,5,63,98,1803639136
112,18,18,Jits_Linear_8,1,1,48,42,1803643300
112,18,18,Jits_Linear_8,2,5,56,103,1803719028
112,18,18,Jits_Linear_8,3,5,80,127,1803778428
112,18,18,Jits_Linear_8,0,1,48,45,1804289320
112,18,18,Jits_Linear_8,1,5,80,127,1804308972
112,18,18,Jits_Linear_8,2,5,63,98,1804359024
112,18,18,Jits_Linear_8,3,5,56,103,1804388984
112,18,18,Jits_Linear_8,0,1,48,46,1804922556
112,18,18,Jits_Linear_8,1,5,56,103,1804959252
112,18,18,Jits_Linear_8,2,5,63,98,1805009380
112,18,18,Jits_Linear_8,3,5,80,127,1805018604
112,18,18,Jits_Linear_8,0,1,48,42,1805550820
112,18,18,Jits_Linear_8,1,5,56,103,1805628768
112,18,18,Jits_Linear_8,2,5,63,98,1805739444
112,18,18,Jits_Linear_8,3,5,80,127,1805758708
112,18,18,Jits_Linear_8,0,1,48,43,1806279440
112,18,18,Jits_Linear_8,1,5,63,98,1806280708
112,18,18,Jits_Linear_8,2,5,80,127,1806329416
112,18,18,Jits_Linear_8,3,5,56,103,1806419604
112,18,18,Jits_Linear_8,0,5,63,98,1806918920
112,18,18,Jits_Linear_8,1,5,80,127,1806948672
112,18,18,Jits_Linear_8,2,1,48,42,1806988804
112,18,18,Jits_Linear_8,3,5,56,103,1807038800
112,18,18,Jits_Linear_8,0,5,63,98,1807569404
112,18,18,Jits_Linear_8,1,5,56,103,1807578480
112,18,18,Jits_Linear_8,2,1,48,46,1807614336
112,18,18,Jits_Linear_8,3,5,80,127,1807678720
112,18,18,Jits_Linear_8,0,1,48,26,1808282892
112,18,18,Jits_Linear_8,1,5,63,98,1808318884
112,18,18,Jits_Linear_8,2,5,80,127,1808348560
112,18,18,Jits_Linear_8,3,5,56,103,1808379340
112,18,18,Jits_Linear_8,0,1,48,47,1808913380
112,18,18,Jits_Linear_8,1,5,80,127,1808979496
112,18,18,Jits_Linear_8,2,5,63,98,1808988496
112,18,18,Jits_Linear_8,3,5,56,103,1809019352
112,18,18,Jits_Linear_8,0,5,80,127,1809518964
112,18,18,Jits_Linear_8,1,5,63,98,1809538452
112,18,18,Jits_Linear_8,2,1,48,50,1809543812
112,18,18,Jits_Linear_8,3,5,56,103,1809588520
112,18,18,Jits_Linear_8,0,1,48,43,1810155664
112,18,18,Jits_Linear_8,1,5,63,98,1810188588
112,18,18,Jits_Linear_8,2,5,80,127,1810249208
112,18,18,Jits_Linear_8,3,5,56,103,1810268456
112,18,18,Jits_Linear_8,0,1,48,45,1810781288
112,18,18,Jits_Linear_8,1,5,63,98,1810788808
112,18,18,Jits_Linear_8,2,5,56,103,1810838888
112,18,18,Jits_Linear_8,3,5,80,127,1810849380
112,18,18,Jits_Linear_8,0,1,48,48,1811390516
112,18,18,Jits_Linear_8,1,5,56,103,1811458572
112,18,18,Jits_Linear_8,2,5,80,127,1811468768
112,18,18,Jits_Linear_8,3,5,63,98,1811569072
112,18,18,Jits_Linear_8,0,1,48,39,1812020176
112,18,18,Jits_Linear_8,1,5,80,127,1812058416
112,18,18,Jits_Linear_8,2,5,63,98,1812068612
112,18,18,Jits_Linear_8,3,5,56,103,1812219288
112,18,18,Jits_Linear_8,0,5,63,98,1812698524
112,18,18,Jits_Linear_8,1,1,48,45,1812712276
112,18,18,Jits_Linear_8,2,5,80,127,1812738308
112,18,18,Jits_Linear_8,3,5,56,103,1812819284
112,18,18,Jits_Linear_8,0,5,56,103,1813319040
112,18,18,Jits_Linear_8,1,1,48,35,1813348236
112,18,18,Jits_Linear_8,2,5,80,127,1813419384
112,18,18,Jits_Linear_8,3,5,63,98,1813438796
112,18,18,Jits_Linear_8,0,1,48,50,1813907132
112,18,18,Jits_Linear_8,1,5,80,127,1814009184
112,18,18,Jits_Linear_8,2,5,56,103,1814018632
112,18,18,Jits_Linear_8,3,5,63,98,1814108468
112,18,18,Jits_Linear_8,0,1,48,51,1814520384
112,18,18,Jits_Linear_8,1,5,56,103,1814638928
112,18,18,Jits_Linear_8,2,5,63,98,1814658488
112,18,18,Jits_Linear_8,3,5,80,127,1814739504
112,18,18,Jits_Linear_8,0,5,63,98,1815209452
112,18,18,Jits_Linear_8,1,1,48,30,1815213096
112,18,18,Jits_Linear_8,2,5,56,103,1815298456
112,18,18,Jits_Linear_8,3,5,80,127,1815301596
112,18,18,Jits_Linear_8,0,1,48,37,1815830684
112,18,18,Jits_Linear_8,1,5,56,103,1815858432
112,18,18,Jits_Linear_8,2,5,80,127,1815919268
112,18,18,Jits_Linear_8,3,5,63,98,1815929524
112,18,18,Jits_Linear_8,0,1,48,42,1816487348
112,18,18,Jits_Linear_8,1,5,80,127,1816529252
112,18,18,Jits_Linear_8,2,5,56,103,1816538548
112,18,18,Jits_Linear_8,3,5,63,98,1816541612
112,18,18,Jits_Linear_8,0,1,48,48,1817104632
112,18,18,Jits_Linear_8,1,5,56,103,1817108784
112,18,18,Jits_Linear_8,2,5,80,127,1817119352
112,18,18,Jits_Linear_8,3,5,63,98,1817138544
112,18,18,Jits_Linear_8,0,5,63,98,1817698592
112,18,18,Jits_Linear_8,1,1,48,50,1817721192
112,18,18,Jits_Linear_8,2,5,80,127,1817759376
112,18,18,Jits_Linear_8,3,5,56,103,1817809352
112,18,18,Jits_Linear_8,0,1,48,50,1818330644
112,18,18,Jits_Linear_8,1,5,63,98,1818399224
112,18,18,Jits_Linear_8,2,5,56,103,1818409272
112,18,18,Jits_Linear_8,3,5,80,127,1818458340
112,18,18,Jits_Linear_8,0,5,63,98,1818909176
112,18,18,Jits_Linear_8,1,5,80,127,1818928364
112,18,18,Jits_Linear_8,2,5,56,103,1818938856
112,18,18,Jits_Linear_8,3,1,48,40,1818966484
112,18,18,Jits_Linear_8,0,5,63,98,1819519344
112,18,18,Jits_Linear_8,1,5,80,127,1819522560
112,18,18,Jits_Linear_8,2,1,48,33,1819554472
112,18,18,Jits_Linear_8,3,5,56,103,1819559376
112,18,18,Jits_Linear_8,0,1,48,40,1820090624
112,18,18,Jits_Linear_8,1,5,63,98,1820199272
112,18,18,Jits_Linear_8,2,5,80,127,1820229100
112,18,18,Jits_Linear_8,3,5,56,103,1820239368
112,18,18,Jits_Linear_8,0,5,56,103,1820759360
112,18,18,Jits_Linear_8,1,1,48,43,1820781884
112,18,18,Jits_Linear_8,2,5,80,127,1820789104
112,18,18,Jits_Linear_8,3,5,63,98,1820818728
112,18,18,Jits_Linear_8,0,1,48,41,1821346460
112,18,18,Jits_Linear_8,1,5,63,98,1821458868
112,18,18,Jits_Linear_8,2,5,56,103,1821498880
112,18,18,Jits_Linear_8,3,5,80,127,1821501724
112,18,18,Jits_Linear_8,0,5,80,127,1821958488
112,18,18,Jits_Linear_8,1,1,48,44,1821981680
112,18,18,Jits_Linear_8,2,5,56,103,1822039476
112,18,18,Jits_Linear_8,3,5,63,98,1822088544
112,18,18,Jits_Linear_8,0,5,80,127,1822539244
112,18,18,Jits_Linear_8,1,5,56,103,1822558432
112,18,18,Jits_Linear_8,2,1,48,37,1822632972
112,18,18,Jits_Linear_8,3,5,63,98,1822648732
112,18,18,Jits_Linear_8,0,5,80,127,1823179360
112,18,18,Jits_Linear_8,1,1,48,43,1823206072
112,18,18,Jits_Linear_8,2,5,63,98,1823219068
112,18,18,Jits_Linear_8,3,5,56,103,1823259228
112,18,18,Jits_Linear_8,0,5,63,98,1823748356
112,18,18,Jits_Linear_8,1,1,48,45,1823807992
112,18,18,Jits_Linear_8,2,5,80,127,1823809484
112,18,18,Jits_Linear_8,3,5,56,103,1823838712
112,18,18,Jits_Linear_8,0,5,56,103,1824348492
112,18,18,Jits_Linear_8,1,5,80,127,1824379216
112,18,18,Jits_Linear_8,2,1,48,45,1824381664
112,18,18,Jits_Linear_8,3,5,63,98,1824469220
112,18,18,Jits_Linear_8,0,5,56,103,1824948456
112,18,18,Jits_Linear_8,1,1,48,42,1824954712
112,18,18,Jits_Linear_8,2,5,80,127,1825059320
112,18,18,Jits_Linear_8,3,5,63,98,1825088996
112,18,18,Jits_Linear_8,0,1,48,44,1825578928
112,18,18,Jits_Linear_8,1,5,56,103,1825588620
112,18,18,Jits_Linear_8,2,5,63,98,1825649088
112,18,18,Jits_Linear_8,3,5,80,127,1825678848
112,18,18,Jits_Linear_8,0,5,56,103,1826148696
112,18,18,Jits_Linear_8,1,5,63,98,1826219380
112,18,18,Jits_Linear_8,2,5,80,127,1826238940
112,18,18,Jits_Linear_8,3,1,48,41,1826241456
112,18,18,Jits_Linear_8,0,5,80,127,1826708800
112,18,18,Jits_Linear_8,1,5,63,98,1826729260
112,18,18,Jits_Linear_8,2,5,56,103,1826778416
112,18,18,Jits_Linear_8,3,1,48,33,1826811348
112,18,18,Jits_Linear_8,0,5,63,98,1827309104
112,18,18,Jits_Linear_8,1,5,80,127,1827319228
112,18,18,Jits_Linear_8,2,1,48,46,1827365268
112,18,18,Jits_Linear_8,3,5,56,103,1827369344
112,18,18,Jits_Linear_8,0,5,63,98,1827888496
112,18,18,Jits_Linear_8,1,5,80,127,1827959076
112,18,18,Jits_Linear_8,2,5,56,103,1827978636
112,18,18,Jits_Linear_8,3,1,48,41,1827988228
112,18,18,Jits_Linear_8,0,5,63,98,1828498772
112,18,18,Jits_Linear_8,1,5,80,127,1828502280
112,18,18,Jits_Linear_8,2,5,56,103,1828568376
112,18,18,Jits_Linear_8,3,1,48,38,1828572540
112,18,18,Jits_Linear_8,0,5,80,127,1829029228
112,18,18,Jits_Linear_8,1,5,56,103,1829048864
112,18,18,Jits_Linear_8,2,5,63,98,1829059060
112,18,18,Jits_Linear_8,3,1,48,43,1829181744
112,18,18,Jits_Linear_8,0,5,56,103,1829629308
112,18,18,Jits_Linear_8,1,5,63,98,1829719368
112,18,18,Jits_Linear_8,2,5,80,127,1829722952
112,18,18,Jits_Linear_8,0,1,48,43,1830031960
112,18,18,Jits_Linear_8,1,5,80,127,1830179200
112,18,18,Jits_Linear_8,2,5,56,103,1830189544
112,18,18,Jits_Linear_8,3,5,63,98,1830209032
112,18,18,Jits_Linear_8,0,1,48,56,1830716148
112,18,18,Jits_Linear_8,1,5,63,98,1830748480
112,18,18,Jits_Linear_8,2,5,80,127,1830809032
112,18,18,Jits_Linear_8,3,5,56,103,1830819152
112,18,18,Jits_Linear_8,0,1,48,52,1831328848
112,18,18,Jits_Linear_8,1,5,63,98,1831388432
112,18,18,Jits_Linear_8,2,5,80,127,1831419304
112,18,18,Jits_Linear_8,3,5,56,103,1831459304
112,18,18,Jits_Linear_8,0,1,48,51,1831946836
112,18,18,Jits_Linear_8,1,5,56,103,1831948572
112,18,18,Jits_Linear_8,2,5,80,127,1831959140
112,18,18,Jits_Linear_8,3,5,63,98,1831999004
112,18,18,Jits_Linear_8,0,5,80,127,1832479196
112,18,18,Jits_Linear_8,1,1,48,55,1832513108
112,18,18,Jits_Linear_8,2,5,56,103,1832559140
112,18,18,Jits_Linear_8,3,5,63,98,1832569336
112,18,18,Jits_Linear_8,0,5,80,127,1833089256
112,18,18,Jits_Linear_8,1,1,48,48,1833105128
112,18,18,Jits_Linear_8,2,5,56,103,1833169368
112,18,18,Jits_Linear_8,3,5,63,98,1833178516
112,18,18,Jits_Linear_8,0,5,80,127,1833608508
112,18,18,Jits_Linear_8,1,5,56,103,1833658736
112,18,18,Jits_Linear_8,2,1,48,51,1833666040
112,18,18,Jits_Linear_8,3,5,63,98,1833709076
112,18,18,Jits_Linear_8,0,1,48,51,1834206868
112,18,18,Jits_Linear_8,1,5,56,103,1834229136
112,18,18,Jits_Linear_8,2,5,63,98,1834232128
112,18,18,Jits_Linear_8,3,5,80,127,1834279264
112,18,18,Jits_Linear_8,0,1,48,46,1834727364
112,18,18,Jits_Linear_8,1,5,56,103,1834808828
112,18,18,Jits_Linear_8,2,5,63,98,1834839392
112,18,18,Jits_Linear_8,3,5,80,127,1834848540
112,18,18,Jits_Linear_8,0,5,63,98,1835278704
112,18,18,Jits_Linear_8,1,1,48,48,1835346616
112,18,18,Jits_Linear_8,2,5,56,103,1835349352
112,18,18,Jits_Linear_8,3,5,80,127,1835398432
112,18,18,Jits_Linear_8,0,1,48,49,1835858516
112,18,18,Jits_Linear_8,1,5,63,98,1835868432
112,18,18,Jits_Linear_8,2,5,56,103,1835878772
112,18,18,Jits_Linear_8,3,5,80,127,1835881912
112,18,18,Jits_Linear_8,0,5,80,127,1836369212
112,18,18,Jits_Linear_8,1,1,48,43,1836418940
112,18,18,Jits_Linear_8,2,5,56,103,1836428876
112,18,18,Jits_Linear_8,3,5,63,98,1836519968
112,18,18,Jits_Linear_8,0,5,80,127,1836919104
112,18,18,Jits_Linear_8,1,1,48,46,1836946684
112,18,18,Jits_Linear_8,2,5,56,103,1837018476
112,18,18,Jits_Linear_8,3,5,63,98,1837058548
112,18,18,Jits_Linear_8,0,1,48,43,1837464784
112,18,18,Jits_Linear_8,1,5,56,103,1837519360
112,18,18,Jits_Linear_8,2,5,63,98,1837538848
112,18,18,Jits_Linear_8,3,5,80,127,1837578552
112,18,18,Jits_Linear_8,0,1,48,49,1838020740
112,18,18,Jits_Linear_8,1,5,63,98,1838039272
112,18,18,Jits_Linear_8,2,5,56,103,1838058980
112,18,18,Jits_Linear_8,3,5,80,127,1838159288
112,18,18,Jits_Linear_8,0,1,48,50,1838533440
112,18,18,Jits_Linear_8,1,5,63,98,1838568916
112,18,18,Jits_Linear_8,2,5,80,127,1838679344
112,18,18,Jits_Linear_8,3,5,56,103,1838709092
112,18,18,Jits_Linear_8,0,1,48,53,1839094860
112,18,18,Jits_Linear_8,1,5,56,103,1839128908
112,18,18,Jits_Linear_8,2,5,63,98,1839158736
112,18,18,Jits_Linear_8,3,5,80,127,1839209072
112,18,18,Jits_Linear_8,0,5,63,98,1839638932
112,18,18,Jits_Linear_8,1,1,48,43,1839668156
112,18,18,Jits_Linear_8,2,5,56,103,1839669500
112,18,18,Jits_Linear_8,3,5,80,127,1839719024
112,18,18,Jits_Linear_8,0,1,48,50,1840162988
112,18,18,Jits_Linear_8,1,5,56,103,1840209320
112,18,18,Jits_Linear_8,2,5,63,98,1840228736
112,18,18,Jits_Linear_8,3,5,80,127,1840308616
112,18,18,Jits_Linear_8,0,1,48,52,1840652996
112,18,18,Jits_Linear_8,1,5,63,98,1840719264
112,18,18,Jits_Linear_8,2,5,56,103,1840778592
112,18,18,Jits_Linear_8,3,5,80,127,1840809264
112,18,18,Jits_Linear_8,0,1,48,54,1841212460
112,18,18,Jits_Linear_8,1,5,56,103,1841298976
112,18,18,Jits_Linear_8,2,5,80,127,1841359204
112,18,18,Jits_Linear_8,3,5,63,98,1841399144
112,18,18,Jits_Linear_8,0,1,48,54,1841710492
112,18,18,Jits_Linear_8,1,5,63,98,1841818944
112,18,18,Jits_Linear_8,2,5,56,103,1841879336
112,18,18,Jits_Linear_8,3,5,80,127,1841948944
112,18,18,Jits_Linear_8,0,1,48,46,1842325724
112,18,18,Jits_Linear_8,1,5,56,103,1842429284
112,18,18,Jits_Linear_8,2,5,63,98,1842438580
112,18,18,Jits_Linear_8,3,5,80,127,1842442092
112,18,18,Jits_Linear_8,0,5,63,98,1842899312
112,18,18,Jits_Linear_8,1,1,48,37,1842925728
112,18,18,Jits_Linear_8,2,5,56,103,1842958944
112,18,18,Jits_Linear_8,3,5,80,127,1842961936
112,18,18,Jits_Linear_8,0,5,63,98,1843409168
112,18,18,Jits_Linear_8,1,5,80,127,1843438916
112,18,18,Jits_Linear_8,2,1,48,53,1843458700
112,18,18,Jits_Linear_8,3,5,56,103,1843460040
112,18,18,Jits_Linear_8,0,5,56,103,1843938808
112,18,18,Jits_Linear_8,1,1,48,43,1843955552
112,18,18,Jits_Linear_8,2,5,63,98,1843988928
112,18,18,Jits_Linear_8,3,5,80,127,1844068856
112,18,18,Jits_Linear_8,0,5,80,127,1844439396
112,18,18,Jits_Linear_8,1,1,48,45,1844471808
112,18,18,Jits_Linear_8,2,5,63,98,1844479480
112,18,18,Jits_Linear_8,3,5,56,103,1844498892
112,18,18,Jits_Linear_8,0,1,48,40,1844970744
112,18,18,Jits_Linear_8,1,5,56,103,1845029136
112,18,18,Jits_Linear_8,2,5,80,127,1845038508
112,18,18,Jits_Linear_8,3,5,63,98,1845058892
112,18,18,Jits_Linear_8,0,1,48,39,1845512748
112,18,18,Jits_Linear_8,1,5,56,103,1845529188
112,18,18,Jits_Linear_8,2,5,63,98,1845579020
112,18,18,Jits_Linear_8,3,5,80,127,1845610100
112,18,18,Jits_Linear_8,0,5,56,103,1845998908
112,18,18,Jits_Linear_8,1,5,63,98,1846009328
112,18,18,Jits_Linear_8,2,1,48,45,1846058024
112,18,18,Jits_Linear_8,3,5,80,127,1846059448
112,18,18,Jits_Linear_8,0,5,56,103,1846508856
112,18,18,Jits_Linear_8,1,5,80,127,1846512072
112,18,18,Jits_Linear_8,2,1,48,44,1846575204
112,18,18,Jits_Linear_8,3,5,63,98,1846668828
112,18,18,Jits_Linear_8,0,5,63,98,1847039404
112,18,18,Jits_Linear_8,1,1,48,37,1847082900
112,18,18,Jits_Linear_8,2,5,56,103,1847109080
112,18,18,Jits_Linear_8,3,5,80,127,1847148944
112,18,18,Jits_Linear_8,0,1,48,42,1847574932
112,18,18,Jits_Linear_8,1,5,63,98,1847589200
112,18,18,Jits_Linear_8,2,5,56,103,1847679396
112,18,18,Jits_Linear_8,3,5,80,127,1847682612
112,18,18,Jits_Linear_8,0,5,56,103,1848078920
112,18,18,Jits_Linear_8,1,1,48,42,1848117636
112,18,18,Jits_Linear_8,2,5,63,98,1848168976
112,18,18,Jits_Linear_8,3,5,80,127,1848179024
112,18,18,Jits_Linear_8,0,5,56,103,1848558840
112,18,18,Jits_Linear_8,1,5,63,98,1848609120
112,18,18,Jits_Linear_8,2,1,48,51,1848631116
112,18,18,Jits_Linear_8,3,5,80,127,1848638788
112,18,18,Jits_Linear_8,0,1,48,39,1849101500
112,18,18,Jits_Linear_8,1,5,63,98,1849138692
112,18,18,Jits_Linear_8,2,5,80,127,1849148740
112,18,18,Jits_Linear_8,3,5,56,103,1849209188
112,18,18,Jits_Linear_8,0,5,63,98,1849559408
112,18,18,Jits_Linear_8,1,1,48,44,1849582608
112,18,18,Jits_Linear_8,2,5,80,127,1849618672
112,18,18,Jits_Linear_8,3,5,56,103,1849658984
112,18,18,Jits_Linear_8,0,1,48,42,1850088200
112,18,18,Jits_Linear_8,1,5,56,103,1850158356
112,18,18,Jits_Linear_8,2,5,80,127,1850179036
112,18,18,Jits_Linear_8,3,5,63,98,1850199408
112,18,18,Jits_Linear_8,0,5,63,98,1850579224
112,18,18,Jits_Linear_8,1,5,56,103,1850598936
112,18,18,Jits_Linear_8,2,1,48,40,1850601304
112,18,18,Jits_Linear_8,3,5,80,127,1850638864
112,18,18,Jits_Linear_8,0,5,63,98,1851089308
112,18,18,Jits_Linear_8,1,1,48,43,1851104264
112,18,18,Jits_Linear_8,2,5,80,127,1851118980
112,18,18,Jits_Linear_8,3,5,56,103,1851138392
112,18,18,Jits_Linear_8,0,5,80,127,1851559240
112,18,18,Jits_Linear_8,1,1,48,38,1851573144
112,18,18,Jits_Linear_8,2,5,56,103,1851608396
112,18,18,Jits_Linear_8,3,5,63,98,1851668860
112,18,18,Jits_Linear_8,0,5,63,98,1852038900
112,18,18,Jits_Linear_8,1,1,48,47,1852052832
112,18,18,Jits_Linear_8,2,5,56,103,1852159312
112,18,18,Jits_Linear_8,3,5,80,127,1852188988
112,18,18,Jits_Linear_8,0,5,80,127,1852568956
112,18,18,Jits_Linear_8,1,1,48,47,1852580096
112,18,18,Jits_Linear_8,2,5,63,98,1852589408
112,18,18,Jits_Linear_8,3,5,56,103,1852659088
112,18,18,Jits_Linear_8,0,5,63,98,1853078764
112,18,18,Jits_Linear_8,1,1,48,49,1853082856
112,18,18,Jits_Linear_8,2,5,56,103,1853089104
112,18,18,Jits_Linear_8,3,5,80,127,1853168976
112,18,18,Jits_Linear_8,0,1,48,54,1853606576
112,18,18,Jits_Linear_8,1,5,56,103,1853628716
112,18,18,Jits_Linear_8,2,5,80,127,1853658692
112,18,18,Jits_Linear_8,3,5,63,98,1853669108
112,18,18,Jits_Linear_8,0,9999,9999,9999,1743276152
112,18,18,Jits_Linear_8,1,9999,9999,9999,1744096316
112,18,18,Jits_Linear_8,2,9999,9999,9999,1744916568
112,18,18,Jits_Linear_8,3,9999,9999,9999,1745736820
112,18,18,Jits_Linear_8,4,9999,9999,9999,1746557044
112,18,18,Jits_Linear_8,5,9999,9999,9999,1747367012
112,18,18,Jits_Linear_8,6,9999,9999,9999,1748176952
112,18,18,Jits_Linear_8,7,9999,9999,9999,1748986984
112,18,18,Jits_Linear_8,8,9999,9999,9999,1749796948
112,18,18,Jits_Linear_8,9,9999,9999,9999,1750606952
112,18,18,Jits_Linear_8,10,9999,9999,9999,1751406712
112,18,18,Jits_Linear_8,11,9999,9999,9999,1752206396
112,18,18,Jits_Linear_8,12,9999,9999,9999,1753006180
112,18,18,Jits_Linear_8,13,9999,9999,9999,1753806904
112,18,18,Jits_Linear_8,14,9999,9999,9999,1754606716
112,18,18,Jits_Linear_8,15,9999,9999,9999,1755396172
112,18,18,Jits_Linear_8,16,9999,9999,9999,1756186696
112,18,18,Jits_Linear_8,17,9999,9999,9999,1756976192
112,18,18,Jits_Linear_8,18,9999,9999,9999,1757766736
112,18,18,Jits_Linear_8,19,9999,9999,9999,1758556228
112,18,18,Jits_Linear_8,20,9999,9999,9999,1759336576
112,18,18,Jits_Linear_8,21,9999,9999,9999,1760116844
112,18,18,Jits_Linear_8,22,9999,9999,9999,1760896068
112,18,18,Jits_Linear_8,23,9999,9999,9999,1761676416
112,18,18,Jits_Linear_8,24,9999,9999,9999,1762456632
112,18,18,Jits_Linear_8,25,9999,9999,9999,1763226716
112,18,18,Jits_Linear_8,26,9999,9999,9999,1763996776
112,18,18,Jits_Linear_8,27,9999,9999,9999,1764766788
112,18,18,Jits_Linear_8,28,9999,9999,9999,1765536872
112,18,18,Jits_Linear_8,29,9999,9999,9999,1766306892
112,18,18,Jits_Linear_8,30,9999,9999,9999,1767066708
112,18,18,Jits_Linear_8,31,9999,9999,9999,1767826532
112,18,18,Jits_Linear_8,32,9999,9999,9999,1768586324
112,18,18,Jits_Linear_8,33,9999,9999,9999,1769346132
112,18,18,Jits_Linear_8,34,9999,9999,9999,1770107000
112,18,18,Jits_Linear_8,35,9999,9999,9999,1770856568
112,18,18,Jits_Linear_8,36,9999,9999,9999,1771606132
112,18,18,Jits_Linear_8,37,9999,9999,9999,1772356664
112,18,18,Jits_Linear_8,38,9999,9999,9999,1773106232
112,18,18,Jits_Linear_8,39,9999,9999,9999,1773856856
112,18,18,Jits_Linear_8,40,9999,9999,9999,1774596160
112,18,18,Jits_Linear_8,41,9999,9999,9999,1775336572
112,18,18,Jits_Linear_8,42,9999,9999,9999,1776076912
112,18,18,Jits_Linear_8,43,9999,9999,9999,1776816212
112,18,18,Jits_Linear_8,44,9999,9999,9999,1777556532
112,18,18,Jits_Linear_8,45,9999,9999,9999,1778286668
112,18,18,Jits_Linear_8,46,9999,9999,9999,1779016820
112,18,18,Jits_Linear_8,47,9999,9999,9999,1779746908
112,18,18,Jits_Linear_8,48,9999,9999,9999,1780477000
112,18,18,Jits_Linear_8,49,9999,9999,9999,1781206116
112,18,18,Jits_Linear_8,50,9999,9999,9999,1781926976
112,18,18,Jits_Linear_8,51,9999,9999,9999,1782646856
112,18,18,Jits_Linear_8,52,9999,9999,9999,1783366760
112,18,18,Jits_Linear_8,53,9999,9999,9999,1784086596
112,18,18,Jits_Linear_8,54,9999,9999,9999,1784806480
112,18,18,Jits_Linear_8,55,9999,9999,9999,1785516124
112,18,18,Jits_Linear_8,56,9999,9999,9999,1786226768
112,18,18,Jits_Linear_8,57,9999,9999,9999,1786936412
112,18,18,Jits_Linear_8,58,9999,9999,9999,1787647100
112,18,18,Jits_Linear_8,59,9999,9999,9999,1788356728
112,18,18,Jits_Linear_8,60,9999,9999,9999,1789056064
112,18,18,Jits_Linear_8,61,9999,9999,9999,1789756480
112,18,18,Jits_Linear_8,62,9999,9999,9999,1790456888
112,18,18,Jits_Linear_8,63,9999,9999,9999,1791156320
112,18,18,Jits_Linear_8,64,9999,9999,9999,1791856712
112,18,18,Jits_Linear_8,65,9999,9999,9999,1792546940
112,18,18,Jits_Linear_8,66,9999,9999,9999,1793237092
112,18,18,Jits_Linear_8,67,9999,9999,9999,1793926252
112,18,18,Jits_Linear_8,68,9999,9999,9999,1794616380
112,18,18,Jits_Linear_8,69,9999,9999,9999,1795306604
112,18,18,Jits_Linear_8,70,9999,9999,9999,1795986556
112,18,18,Jits_Linear_8,71,9999,9999,9999,1796666480
112,18,18,Jits_Linear_8,72,9999,9999,9999,1797346356
112,18,18,Jits_Linear_8,73,9999,9999,9999,1798026368
112,18,18,Jits_Linear_8,74,9999,9999,9999,1798706248
112,18,18,Jits_Linear_8,75,9999,9999,9999,1799377000
112,18,18,Jits_Linear_8,76,9999,9999,9999,1800046664
112,18,18,Jits_Linear_8,77,9999,9999,9999,1800716364
112,18,18,Jits_Linear_8,78,9999,9999,9999,1801387116
112,18,18,Jits_Linear_8,79,9999,9999,9999,1802067060
112,18,18,Jits_Linear_8,80,9999,9999,9999,1802726508
112,18,18,Jits_Linear_8,81,9999,9999,9999,1803386956
112,18,18,Jits_Linear_8,82,9999,9999,9999,1804046460
112,18,18,Jits_Linear_8,83,9999,9999,9999,1804706936
112,18,18,Jits_Linear_8,84,9999,9999,9999,1805366332
112,18,18,Jits_Linear_8,85,9999,9999,9999,1806016628
112,18,18,Jits_Linear_8,86,9999,9999,9999,1806666816
112,18,18,Jits_Linear_8,87,9999,9999,9999,1807317076
112,18,18,Jits_Linear_8,88,9999,9999,9999,1807966292
112,18,18,Jits_Linear_8,89,9999,9999,9999,1808616512
112,18,18,Jits_Linear_8,90,9999,9999,9999,1809256524
112,18,18,Jits_Linear_8,91,9999,9999,9999,1809896540
112,18,18,Jits_Linear_8,92,9999,9999,9999,1810536560
112,18,18,Jits_Linear_8,93,9999,9999,9999,1811176508
112,18,18,Jits_Linear_8,94,9999,9999,9999,1811816508
112,18,18,Jits_Linear_8,95,9999,9999,9999,1812446268
112,18,18,Jits_Linear_8,96,9999,9999,9999,1813077052
112,18,18,Jits_Linear_8,97,9999,9999,9999,1813706812
112,18,18,Jits_Linear_8,98,9999,9999,9999,1814336572
112,18,18,Jits_Linear_8,99,9999,9999,9999,1814966340
112,18,18,Jits_Linear_8,100,9999,9999,9999,1815586924
112,18,18,Jits_Linear_8,101,9999,9999,9999,1816206424
112,18,18,Jits_Linear_8,102,9999,9999,9999,1816826940
112,18,18,Jits_Linear_8,103,9999,9999,9999,1817446488
112,18,18,Jits_Linear_8,104,9999,9999,9999,1818067032
112,18,18,Jits_Linear_8,105,9999,9999,9999,1818676328
112,18,18,Jits_Linear_8,106,9999,9999,9999,1819286600
112,18,18,Jits_Linear_8,107,9999,9999,9999,1819896916
112,18,18,Jits_Linear_8,108,9999,9999,9999,1820506204
112,18,18,Jits_Linear_8,109,9999,9999,9999,1821116488
112,18,18,Jits_Linear_8,110,9999,9999,9999,1821716572
112,18,18,Jits_Linear_8,111,9999,9999,9999,1822316648
112,18,18,Jits_Linear_8,112,9999,9999,9999,1822916676
112,18,18,Jits_Linear_8,113,9999,9999,9999,1823516760
112,18,18,Jits_Linear_8,114,9999,9999,9999,1824116844
112,18,18,Jits_Linear_8,115,9999,9999,9999,1824706676
112,18,18,Jits_Linear_8,116,9999,9999,9999,1825296500
112,18,18,Jits_Linear_8,117,9999,9999,9999,1825886328
112,18,18,Jits_Linear_8,118,9999,9999,9999,1826476088
112,18,18,Jits_Linear_8,119,9999,9999,9999,1827066952
112,18,18,Jits_Linear_8,120,9999,9999,9999,1827646580
112,18,18,Jits_Linear_8,121,9999,9999,9999,1828226120
112,18,18,Jits_Linear_8,122,9999,9999,9999,1828806720
112,18,18,Jits_Linear_8,123,9999,9999,9999,1829386332
112,18,18,Jits_Linear_8,124,9999,9999,9999,1829966948
112,18,18,Jits_Linear_8,125,9999,9999,9999,1830536248
112,18,18,Jits_Linear_8,126,9999,9999,9999,1831106664
112,18,18,Jits_Linear_8,127,9999,9999,9999,1831676996
112,18,18,Jits_Linear_8,128,9999,9999,9999,1832246348
112,18,18,Jits_Linear_8,129,9999,9999,9999,1832816752
112,18,18,Jits_Linear_8,130,9999,9999,9999,1833376864
112,18,18,Jits_Linear_8,131,9999,9999,9999,1833937016
112,18,18,Jits_Linear_8,132,9999,9999,9999,1834496116
112,18,18,Jits_Linear_8,133,9999,9999,9999,1835056192
112,18,18,Jits_Linear_8,134,9999,9999,9999,1835616332
112,18,18,Jits_Linear_8,135,9999,9999,9999,1836166268
112,18,18,Jits_Linear_8,136,9999,9999,9999,1836716088
112,18,18,Jits_Linear_8,137,9999,9999,9999,1837267024
112,18,18,Jits_Linear_8,138,9999,9999,9999,1837816916
112,18,18,Jits_Linear_8,139,9999,9999,9999,1838366792
112,18,18,Jits_Linear_8,140,9999,9999,9999,1838906484
112,18,18,Jits_Linear_8,141,9999,9999,9999,1839446092
112,18,18,Jits_Linear_8,142,9999,9999,9999,1839986744
112,18,18,Jits_Linear_8,143,9999,9999,9999,1840526456
112,18,18,Jits_Linear_8,144,9999,9999,9999,1841067108
112,18,18,Jits_Linear_8,145,9999,9999,9999,1841606720
112,18,18,Jits_Linear_8,146,9999,9999,9999,1842136148
112,18,18,Jits_Linear_8,147,9999,9999,9999,1842666612
112,18,18,Jits_Linear_8,148,9999,9999,9999,1843197000
112,18,18,Jits_Linear_8,149,9999,9999,9999,1843726416
112,18,18,Jits_Linear_8,150,9999,9999,9999,1844246620
112,18,18,Jits_Linear_8,151,9999,9999,9999,1844766836
112,18,18,Jits_Linear_8,152,9999,9999,9999,1845286984
112,18,18,Jits_Linear_8,153,9999,9999,9999,1845806144
112,18,18,Jits_Linear_8,154,9999,9999,9999,1846326348
112,18,18,Jits_Linear_8,155,9999,9999,9999,1846836292
112,18,18,Jits_Linear_8,156,9999,9999,9999,1847346244
112,18,18,Jits_Linear_8,157,9999,9999,9999,1847856188
112,18,18,Jits_Linear_8,158,9999,9999,9999,1848366136
112,18,18,Jits_Linear_8,159,9999,9999,9999,1848876092
112,18,18,Jits_Linear_8,160,9999,9999,9999,1849376836
112,18,18,Jits_Linear_8,161,9999,9999,9999,1849876584
112,18,18,Jits_Linear_8,162,9999,9999,9999,1850376272
112,18,18,Jits_Linear_8,163,9999,9999,9999,1850876992
112,18,18,Jits_Linear_8,164,9999,9999,9999,1851376744
112,18,18,Jits_Linear_8,165,9999,9999,9999,1851866232
112,18,18,Jits_Linear_8,166,9999,9999,9999,1852356712
112,18,18,Jits_Linear_8,167,9999,9999,9999,1852846200
112,18,18,Jits_Linear_8,168,9999,9999,9999,1853336684
112,18,18,Jits_Linear_8,169,9999,9999,9999,1853826160
112,19,19,Jits_Linear_5,0,5,56,103,1861953004
112,19,19,Jits_Linear_5,1,5,63,98,1861956108
112,19,19,Jits_Linear_5,2,5,80,127,1861959300
112,19,19,Jits_Linear_5,0,5,56,103,1862433088
112,19,19,Jits_Linear_5,1,5,63,98,1862436420
112,19,19,Jits_Linear_5,2,5,80,127,1862439536
112,19,19,Jits_Linear_5,0,5,56,103,1862913496
112,19,19,Jits_Linear_5,1,5,80,127,1862922720
112,19,19,Jits_Linear_5,2,5,63,98,1862943032
112,19,19,Jits_Linear_5,0,5,63,98,1863342656
112,19,19,Jits_Linear_5,1,5,80,127,1863373084
112,19,19,Jits_Linear_5,2,5,56,103,1863383724
112,19,19,Jits_Linear_5,0,1,48,43,1863856948
112,19,19,Jits_Linear_5,1,5,80,127,1863883128
112,19,19,Jits_Linear_5,2,5,56,103,1863893400
112,19,19,Jits_Linear_5,3,5,63,98,1863923076
112,19,19,Jits_Linear_5,0,1,48,43,1864345184
112,19,19,Jits_Linear_5,1,5,63,98,1864363344
112,19,19,Jits_Linear_5,2,5,56,103,1864393020
112,19,19,Jits_Linear_5,3,5,80,127,1864403440
112,19,19,Jits_Linear_5,0,5,56,103,1864802776
112,19,19,Jits_Linear_5,1,1,48,51,1864824032
112,19,19,Jits_Linear_5,2,5,63,98,1864852776
112,19,19,Jits_Linear_5,3,5,80,127,1864873532
112,19,19,Jits_Linear_5,0,1,48,60,1865264380
112,19,19,Jits_Linear_5,1,5,80,127,1865293548
112,19,19,Jits_Linear_5,2,5,63,98,1865343452
112,19,19,Jits_Linear_5,3,5,56,103,1865383180
112,19,19,Jits_Linear_5,0,1,48,53,1865773288
112,19,19,Jits_Linear_5,1,5,56,103,1865782676
112,19,19,Jits_Linear_5,2,5,63,98,1865813772
112,19,19,Jits_Linear_5,3,5,80,127,1865883092
112,19,19,Jits_Linear_5,0,1,48,54,1866209948
112,19,19,Jits_Linear_5,1,5,56,103,1866273148
112,19,19,Jits_Linear_5,2,5,80,127,1866332628
112,19,19,Jits_Linear_5,3,5,63,98,1866363276
112,19,19,Jits_Linear_5,0,1,48,51,1866671220
112,19,19,Jits_Linear_5,1,5,56,103,1866772824
112,19,19,Jits_Linear_5,2,5,63,98,1866783020
112,19,19,Jits_Linear_5,3,5,80,127,1866822960
112,19,19,Jits_Linear_5,0,1,48,52,1867185956
112,19,19,Jits_Linear_5,1,5,63,98,1867263604
112,19,19,Jits_Linear_5,2,5,80,127,1867343316
112,19,19,Jits_Linear_5,3,5,56,103,1867352612
112,19,19,Jits_Linear_5,0,1,48,53,1867666016
112,19,19,Jits_Linear_5,1,5,63,98,1867813108
112,19,19,Jits_Linear_5,2,5,56,103,1867853044
112,19,19,Jits_Linear_5,3,5,80,127,1867856192
112,19,19,Jits_Linear_5,0,1,48,48,1868237028
112,19,19,Jits_Linear_5,1,5,56,103,1868272872
112,19,19,Jits_Linear_5,2,5,63,98,1868283368
112,19,19,Jits_Linear_5,3,5,80,127,1868323084
112,19,19,Jits_Linear_5,0,1,48,45,1868706440
112,19,19,Jits_Linear_5,1,5,56,103,1868762440
112,19,19,Jits_Linear_5,2,5,63,98,1868765432
112,19,19,Jits_Linear_5,3,5,80,127,1868782824
112,19,19,Jits_Linear_5,0,1,48,48,1869182864
112,19,19,Jits_Linear_5,1,5,80,127,1869282556
112,19,19,Jits_Linear_5,2,5,56,103,1869293048
112,19,19,Jits_Linear_5,3,5,63,98,1869362656
112,19,19,Jits_Linear_5,0,1,48,47,1869702636
112,19,19,Jits_Linear_5,1,5,63,98,1869783600
112,19,19,Jits_Linear_5,2,5,56,103,1869803676
112,19,19,Jits_Linear_5,3,5,80,127,1869882796
112,19,19,Jits_Linear_5,0,1,48,46,1870163136
112,19,19,Jits_Linear_5,1,5,56,103,1870302604
112,19,19,Jits_Linear_5,2,5,80,127,1870342472
112,19,19,Jits_Linear_5,3,5,63,98,1870352888
112,19,19,Jits_Linear_5,0,1,48,55,1870724112
112,19,19,Jits_Linear_5,1,5,80,127,1870803428
112,19,19,Jits_Linear_5,2,5,63,98,1870833016
112,19,19,Jits_Linear_5,3,5,56,103,1870872808
112,19,19,Jits_Linear_5,0,1,48,52,1871236900
112,19,19,Jits_Linear_5,1,5,56,103,1871332712
112,19,19,Jits_Linear_5,2,5,63,98,1871362596
112,19,19,Jits_Linear_5,3,5,80,127,1871412724
112,19,19,Jits_Linear_5,0,1,48,49,1871740776
112,19,19,Jits_Linear_5,1,5,80,127,1871842652
112,19,19,Jits_Linear_5,2,5,56,103,1871882740
112,19,19,Jits_Linear_5,3,5,63,98,1871892936
112,19,19,Jits_Linear_5,0,1,48,54,1872269788
112,19,19,Jits_Linear_5,1,5,80,127,1872343552
112,19,19,Jits_Linear_5,2,5,63,98,1872383700
112,19,19,Jits_Linear_5,3,5,56,103,1872442672
112,19,19,Jits_Linear_5,0,1,48,56,1872826504
112,19,19,Jits_Linear_5,1,5,56,103,1872862572
112,19,19,Jits_Linear_5,2,5,80,127,1872872768
112,19,19,Jits_Linear_5,3,5,63,98,1872952696
112,19,19,Jits_Linear_5,0,1,48,62,1873297860
112,19,19,Jits_Linear_5,1,5,80,127,1873382708
112,19,19,Jits_Linear_5,2,5,63,98,1873443460
112,19,19,Jits_Linear_5,3,5,56,103,1873472912
112,19,19,Jits_Linear_5,0,1,48,48,1873886932
112,19,19,Jits_Linear_5,1,5,56,103,1873902848
112,19,19,Jits_Linear_5,2,5,80,127,1873963616
112,19,19,Jits_Linear_5,3,5,63,98,1874003392
112,19,19,Jits_Linear_5,0,1,48,52,1874394572
112,19,19,Jits_Linear_5,1,5,56,103,1874482484
112,19,19,Jits_Linear_5,2,5,63,98,1874494180
112,19,19,Jits_Linear_5,3,5,80,127,1874496928
112,19,19,Jits_Linear_5,0,1,48,51,1874903244
112,19,19,Jits_Linear_5,1,5,80,127,1874962904
112,19,19,Jits_Linear_5,2,5,63,98,1875052952
112,19,19,Jits_Linear_5,3,5,56,103,1875063224
112,19,19,Jits_Linear_5,0,1,48,59,1875452604
112,19,19,Jits_Linear_5,1,5,56,103,1875493296
112,19,19,Jits_Linear_5,2,5,63,98,1875496396
112,19,19,Jits_Linear_5,3,5,80,127,1875499516
112,19,19,Jits_Linear_5,0,1,48,52,1875961336
112,19,19,Jits_Linear_5,1,5,80,127,1876043248
112,19,19,Jits_Linear_5,2,5,63,98,1876093588
112,19,19,Jits_Linear_5,3,5,56,103,1876122992
112,19,19,Jits_Linear_5,0,1,48,57,1876465740
112,19,19,Jits_Linear_5,1,5,56,103,1876553056
112,19,19,Jits_Linear_5,2,5,80,127,1876563460
112,19,19,Jits_Linear_5,3,5,63,98,1876633020
112,19,19,Jits_Linear_5,0,1,48,51,1876977556
112,19,19,Jits_Linear_5,1,5,56,103,1877092736
112,19,19,Jits_Linear_5,2,5,63,98,1877113344
112,19,19,Jits_Linear_5,3,5,80,127,1877172716
112,19,19,Jits_Linear_5,0,1,48,53,1877498896
112,19,19,Jits_Linear_5,1,5,80,127,1877623288
112,19,19,Jits_Linear_5,2,5,63,98,1877692852
112,19,19,Jits_Linear_5,3,5,56,103,1877713460
112,19,19,Jits_Linear_5,0,1,48,55,1878023320
112,19,19,Jits_Linear_5,1,5,80,127,1878183316
112,19,19,Jits_Linear_5,2,5,56,103,1878192616
112,19,19,Jits_Linear_5,3,5,63,98,1878202664
112,19,19,Jits_Linear_5,0,1,48,49,1878586304
112,19,19,Jits_Linear_5,1,5,80,127,1878712668
112,19,19,Jits_Linear_5,2,5,56,103,1878733276
112,19,19,Jits_Linear_5,3,5,63,98,1878802664
112,19,19,Jits_Linear_5,0,1,48,49,1879138512
112,19,19,Jits_Linear_5,1,5,56,103,1879262480
112,19,19,Jits_Linear_5,2,5,80,127,1879293500
112,19,19,Jits_Linear_5,3,5,63,98,1879312692
112,19,19,Jits_Linear_5,0,1,48,51,1879703040
112,19,19,Jits_Linear_5,1,5,63,98,1879803300
112,19,19,Jits_Linear_5,2,5,56,103,1879862496
112,19,19,Jits_Linear_5,3,5,80,127,1879893444
112,19,19,Jits_Linear_5,0,1,48,56,1880247452
112,19,19,Jits_Linear_5,1,5,63,98,1880342860
112,19,19,Jits_Linear_5,2,5,80,127,1880347108
112,19,19,Jits_Linear_5,3,5,56,103,1880433132
112,19,19,Jits_Linear_5,0,1,48,50,1880823860
112,19,19,Jits_Linear_5,1,5,56,103,1880913488
112,19,19,Jits_Linear_5,2,5,63,98,1880943152
112,19,19,Jits_Linear_5,3,5,80,127,1880982892
112,19,19,Jits_Linear_5,0,1,48,51,1881384160
112,19,19,Jits_Linear_5,1,5,63,98,1881463304
112,19,19,Jits_Linear_5,2,5,56,103,1881503032
112,19,19,Jits_Linear_5,3,5,80,127,1881522592
112,19,19,Jits_Linear_5,0,1,48,57,1881915688
112,19,19,Jits_Linear_5,1,5,63,98,1882023464
112,19,19,Jits_Linear_5,2,5,56,103,1882063332
112,19,19,Jits_Linear_5,3,5,80,127,1882072408
112,19,19,Jits_Linear_5,0,1,48,47,1882469616
112,19,19,Jits_Linear_5,1,5,80,127,1882552692
112,19,19,Jits_Linear_5,2,5,63,98,1882623408
112,19,19,Jits_Linear_5,3,5,56,103,1882642748
112,19,19,Jits_Linear_5,0,1,48,39,1883028364
112,19,19,Jits_Linear_5,1,5,56,103,1883102580
112,19,19,Jits_Linear_5,2,5,80,127,1883123320
112,19,19,Jits_Linear_5,3,5,63,98,1883163112
112,19,19,Jits_Linear_5,0,1,48,45,1883562300
112,19,19,Jits_Linear_5,1,5,63,98,1883672828
112,19,19,Jits_Linear_5,2,5,80,127,1883693512
112,19,19,Jits_Linear_5,3,5,56,103,1883733524
112,19,19,Jits_Linear_5,0,1,48,51,1884098616
112,19,19,Jits_Linear_5,1,5,63,98,1884233196
112,19,19,Jits_Linear_5,2,5,56,103,1884252460
112,19,19,Jits_Linear_5,3,5,80,127,1884262656
112,19,19,Jits_Linear_5,0,1,48,51,1884649908
112,19,19,Jits_Linear_5,1,5,80,127,1884793408
112,19,19,Jits_Linear_5,2,5,56,103,1884812624
112,19,19,Jits_Linear_5,3,5,63,98,1884843572
112,19,19,Jits_Linear_5,0,1,48,51,1885204676
112,19,19,Jits_Linear_5,1,5,56,103,1885433376
112,19,19,Jits_Linear_5,2,5,80,127,1885436296
112,19,19,Jits_Linear_5,3,5,63,98,1885452788
112,19,19,Jits_Linear_5,0,1,48,43,1885778668
112,19,19,Jits_Linear_5,1,5,63,98,1885922644
112,19,19,Jits_Linear_5,2,5,56,103,1885953368
112,19,19,Jits_Linear_5,3,5,80,127,1886012712
112,19,19,Jits_Linear_5,0,1,48,51,1886365220
112,19,19,Jits_Linear_5,1,5,63,98,1886572856
112,19,19,Jits_Linear_5,2,5,56,103,1886583272
112,19,19,Jits_Linear_5,3,5,80,127,1886593324
112,19,19,Jits_Linear_5,0,1,48,51,1886919376
112,19,19,Jits_Linear_5,1,5,56,103,1887103340
112,19,19,Jits_Linear_5,2,5,80,127,1887132968
112,19,19,Jits_Linear_5,3,5,63,98,1887143384
112,19,19,Jits_Linear_5,0,1,48,51,1887544120
112,19,19,Jits_Linear_5,1,5,63,98,1887712592
112,19,19,Jits_Linear_5,2,5,56,103,1887722788
112,19,19,Jits_Linear_5,3,5,80,127,1887743324
112,19,19,Jits_Linear_5,0,1,48,56,1888102256
112,19,19,Jits_Linear_5,1,5,56,103,1888213476
112,19,19,Jits_Linear_5,2,5,63,98,1888272896
112,19,19,Jits_Linear_5,3,5,80,127,1888276260
112,19,19,Jits_Linear_5,0,1,48,51,1888668548
112,19,19,Jits_Linear_5,1,5,80,127,1888813400
112,19,19,Jits_Linear_5,2,5,56,103,1888822696
112,19,19,Jits_Linear_5,3,5,63,98,1888893204
112,19,19,Jits_Linear_5,0,1,48,49,1889203004
112,19,19,Jits_Linear_5,1,5,80,127,1889382836
112,19,19,Jits_Linear_5,2,5,56,103,1889453372
112,19,19,Jits_Linear_5,3,5,63,98,1889462520
112,19,19,Jits_Linear_5,0,1,48,53,1889722380
112,19,19,Jits_Linear_5,1,5,63,98,1890003324
112,19,19,Jits_Linear_5,2,5,56,103,1890012624
112,19,19,Jits_Linear_5,3,5,80,127,1890033232
112,19,19,Jits_Linear_5,4,1,48,54,1890272064
112,19,19,Jits_Linear_5,0,5,80,127,1890532824
112,19,19,Jits_Linear_5,1,5,63,98,1890593292
112,19,19,Jits_Linear_5,2,5,56,103,1890633156
112,19,19,Jits_Linear_5,0,1,48,52,1890901532
112,19,19,Jits_Linear_5,1,5,56,103,1891162456
112,19,19,Jits_Linear_5,2,5,63,98,1891172652
112,19,19,Jits_Linear_5,3,5,80,127,1891212692
112,19,19,Jits_Linear_5,0,1,48,51,1891482900
112,19,19,Jits_Linear_5,1,5,56,103,1891713384
112,19,19,Jits_Linear_5,2,5,80,127,1891743232
112,19,19,Jits_Linear_5,3,5,63,98,1891793360
112,19,19,Jits_Linear_5,0,1,48,50,1892066060
112,19,19,Jits_Linear_5,1,1,48,21,1892137648
112,19,19,Jits_Linear_5,2,5,56,103,1892343260
112,19,19,Jits_Linear_5,3,5,63,98,1892383196
112,19,19,Jits_Linear_5,4,5,80,127,1892386412
112,19,19,Jits_Linear_5,0,1,48,55,1892655140
112,19,19,Jits_Linear_5,1,5,56,103,1892933120
112,19,19,Jits_Linear_5,2,5,63,98,1892943392
112,19,19,Jits_Linear_5,3,5,80,127,1892962656
112,19,19,Jits_Linear_5,0,1,48,57,1893241356
112,19,19,Jits_Linear_5,1,5,56,103,1893482844
112,19,19,Jits_Linear_5,2,5,80,127,1893486136
112,19,19,Jits_Linear_5,3,5,63,98,1893522884
112,19,19,Jits_Linear_5,4,1,48,57,1893820280
112,19,19,Jits_Linear_5,0,5,63,98,1894112608
112,19,19,Jits_Linear_5,1,5,56,103,1894143404
112,19,19,Jits_Linear_5,2,5,80,127,1894162744
112,19,19,Jits_Linear_5,0,1,48,51,1894440524
112,19,19,Jits_Linear_5,1,5,80,127,1894683256
112,19,19,Jits_Linear_5,2,5,56,103,1894693228
112,19,19,Jits_Linear_5,3,5,63,98,1894702376
112,19,19,Jits_Linear_5,4,1,48,50,1895006676
112,19,19,Jits_Linear_5,0,5,56,103,1895283176
112,19,19,Jits_Linear_5,1,5,80,127,1895323216
112,19,19,Jits_Linear_5,2,5,63,98,1895352592
112,19,19,Jits_Linear_5,0,1,48,43,1895627700
112,19,19,Jits_Linear_5,1,5,63,98,1895893332
112,19,19,Jits_Linear_5,2,5,80,127,1895902556
112,19,19,Jits_Linear_5,3,5,56,103,1895912900
112,19,19,Jits_Linear_5,0,1,48,46,1896238840
112,19,19,Jits_Linear_5,1,5,56,103,1896473028
112,19,19,Jits_Linear_5,2,5,63,98,1896542564
112,19,19,Jits_Linear_5,3,5,80,127,1896552836
112,19,19,Jits_Linear_5,0,1,48,43,1896860152
112,19,19,Jits_Linear_5,1,5,80,127,1897083224
112,19,19,Jits_Linear_5,2,5,56,103,1897092452
112,19,19,Jits_Linear_5,3,5,63,98,1897142528
112,19,19,Jits_Linear_5,0,1,48,18,1897440712
112,19,19,Jits_Linear_5,1,5,80,127,1897702664
112,19,19,Jits_Linear_5,2,5,56,103,1897763056
112,19,19,Jits_Linear_5,3,5,63,98,1897793252
112,19,19,Jits_Linear_5,4,1,48,46,1898020684
112,19,19,Jits_Linear_5,0,5,56,103,1898313224
112,19,19,Jits_Linear_5,1,5,80,127,1898316364
112,19,19,Jits_Linear_5,2,5,63,98,1898353088
112,19,19,Jits_Linear_5,3,1,48,50,1898621068
112,19,19,Jits_Linear_5,0,5,56,103,1898953044
112,19,19,Jits_Linear_5,1,5,63,98,1898982724
112,19,19,Jits_Linear_5,2,5,80,127,1898993216
112,19,19,Jits_Linear_5,0,1,48,41,1899271596
112,19,19,Jits_Linear_5,1,5,63,98,1899572560
112,19,19,Jits_Linear_5,2,5,80,127,1899583052
112,19,19,Jits_Linear_5,3,5,56,103,1899593104
112,19,19,Jits_Linear_5,4,1,48,52,1899832156
112,19,19,Jits_Linear_5,0,5,80,127,1900132852
112,19,19,Jits_Linear_5,1,5,56,103,1900183152
112,19,19,Jits_Linear_5,2,5,63,98,1900186148
112,19,19,Jits_Linear_5,3,1,48,57,1900458388
112,19,19,Jits_Linear_5,0,5,56,103,1900783012
112,19,19,Jits_Linear_5,1,5,80,127,1900802276
112,19,19,Jits_Linear_5,2,5,63,98,1900812548
112,19,19,Jits_Linear_5,3,1,48,56,1901059680
112,19,19,Jits_Linear_5,0,5,63,98,1901382960
112,19,19,Jits_Linear_5,1,5,56,103,1901412636
112,19,19,Jits_Linear_5,2,5,80,127,1901433244
112,19,19,Jits_Linear_5,3,1,48,53,1901679032
112,19,19,Jits_Linear_5,0,5,56,103,1902012732
112,19,19,Jits_Linear_5,1,5,80,127,1902023076
112,19,19,Jits_Linear_5,2,5,63,98,1902092612
112,19,19,Jits_Linear_5,3,1,48,58,1902310768
112,19,19,Jits_Linear_5,0,5,63,98,1902623240
112,19,19,Jits_Linear_5,1,5,80,127,1902663108
112,19,19,Jits_Linear_5,2,5,56,103,1902703120
112,19,19,Jits_Linear_5,3,1,48,61,1902927116
112,19,19,Jits_Linear_5,0,5,56,103,1903263056
112,19,19,Jits_Linear_5,1,5,63,98,1903273180
112,19,19,Jits_Linear_5,2,5,80,127,1903292740
112,19,19,Jits_Linear_5,3,1,48,52,1903583036
112,19,19,Jits_Linear_5,0,5,63,98,1903932756
112,19,19,Jits_Linear_5,1,5,80,127,1903953364
112,19,19,Jits_Linear_5,2,5,56,103,1903972632
112,19,19,Jits_Linear_5,3,1,48,50,1904218272
112,19,19,Jits_Linear_5,0,5,56,103,1904503320
112,19,19,Jits_Linear_5,1,5,80,127,1904583072
112,19,19,Jits_Linear_5,2,5,63,98,1904593196
112,19,19,Jits_Linear_5,3,1,48,48,1904839504
112,19,19,Jits_Linear_5,0,5,80,127,1905172900
112,19,19,Jits_Linear_5,1,5,63,98,1905183320
112,19,19,Jits_Linear_5,2,5,56,103,1905212776
112,19,19,Jits_Linear_5,0,1,48,57,1905522348
112,19,19,Jits_Linear_5,1,5,63,98,1905762596
112,19,19,Jits_Linear_5,2,5,80,127,1905802560
112,19,19,Jits_Linear_5,3,5,56,103,1905862952
112,19,19,Jits_Linear_5,0,1,48,57,1906165012
112,19,19,Jits_Linear_5,1,5,63,98,1906402712
112,19,19,Jits_Linear_5,2,5,56,103,1906453212
112,19,19,Jits_Linear_5,3,5,80,127,1906482668
112,19,19,Jits_Linear_5,0,1,48,56,1906814392
112,19,19,Jits_Linear_5,1,5,80,127,1907052988
112,19,19,Jits_Linear_5,2,5,63,98,1907063260
112,19,19,Jits_Linear_5,3,5,56,103,1907132968
112,19,19,Jits_Linear_5,0,1,48,47,1907453756
112,19,19,Jits_Linear_5,1,5,80,127,1907762416
112,19,19,Jits_Linear_5,2,5,56,103,1907772832
112,19,19,Jits_Linear_5,3,5,63,98,1907776048
112,19,19,Jits_Linear_5,0,1,48,44,1908091152
112,19,19,Jits_Linear_5,1,5,56,103,1908343232
112,19,19,Jits_Linear_5,2,5,80,127,1908362520
112,19,19,Jits_Linear_5,3,5,63,98,1908373088
112,19,19,Jits_Linear_5,0,1,48,50,1908694880
112,19,19,Jits_Linear_5,1,5,63,98,1908993464
112,19,19,Jits_Linear_5,2,5,56,103,1909033252
112,19,19,Jits_Linear_5,3,5,80,127,1909052888
112,19,19,Jits_Linear_5,0,1,48,45,1909379064
112,19,19,Jits_Linear_5,1,5,63,98,1909643244
112,19,19,Jits_Linear_5,2,5,56,103,1909703116
112,19,19,Jits_Linear_5,3,5,80,127,1909706184
112,19,19,Jits_Linear_5,0,1,48,49,1910012740
112,19,19,Jits_Linear_5,1,5,56,103,1910253060
112,19,19,Jits_Linear_5,2,5,80,127,1910273372
112,19,19,Jits_Linear_5,3,5,63,98,1910313236
112,19,19,Jits_Linear_5,0,1,48,52,1910656196
112,19,19,Jits_Linear_5,1,5,56,103,1910932808
112,19,19,Jits_Linear_5,2,5,63,98,1910953272
112,19,19,Jits_Linear_5,3,5,80,127,1910962568
112,19,19,Jits_Linear_5,0,1,48,46,1911296756
112,19,19,Jits_Linear_5,1,5,80,127,1911553268
112,19,19,Jits_Linear_5,2,5,56,103,1911583164
112,19,19,Jits_Linear_5,3,5,63,98,1911623108
112,19,19,Jits_Linear_5,4,1,48,54,1911882016
112,19,19,Jits_Linear_5,0,5,80,127,1912212928
112,19,19,Jits_Linear_5,1,5,56,103,1912233312
112,19,19,Jits_Linear_5,2,5,63,98,1912292732
112,19,19,Jits_Linear_5,3,1,48,57,1912548412
112,19,19,Jits_Linear_5,0,5,56,103,1912873412
112,19,19,Jits_Linear_5,1,5,80,127,1912893048
112,19,19,Jits_Linear_5,2,5,63,98,1912953140
112,19,19,Jits_Linear_5,3,1,48,43,1913192344
112,19,19,Jits_Linear_5,0,5,80,127,1913513388
112,19,19,Jits_Linear_5,1,5,56,103,1913522688
112,19,19,Jits_Linear_5,2,5,63,98,1913562476
112,19,19,Jits_Linear_5,3,1,48,55,1913820420
112,19,19,Jits_Linear_5,0,5,63,98,1914172896
112,19,19,Jits_Linear_5,1,5,56,103,1914212908
112,19,19,Jits_Linear_5,2,5,80,127,1914215980
112,19,19,Jits_Linear_5,3,1,48,46,1914449852
112,19,19,Jits_Linear_5,0,5,63,98,1914852708
112,19,19,Jits_Linear_5,1,5,80,127,1914892948
112,19,19,Jits_Linear_5,2,5,56,103,1914923372
112,19,19,Jits_Linear_5,3,1,48,45,1915117700
112,19,19,Jits_Linear_5,0,5,56,103,1915502972
112,19,19,Jits_Linear_5,1,5,63,98,1915513316
112,19,19,Jits_Linear_5,2,5,80,127,1915542792
112,19,19,Jits_Linear_5,3,1,48,58,1915789780
112,19,19,Jits_Linear_5,0,5,80,127,1916162356
112,19,19,Jits_Linear_5,1,5,63,98,1916233012
112,19,19,Jits_Linear_5,2,5,56,103,1916243284
112,19,19,Jits_Linear_5,3,1,48,52,1916529900
112,19,19,Jits_Linear_5,0,5,63,98,1916833120
112,19,19,Jits_Linear_5,1,5,56,103,1916903028
112,19,19,Jits_Linear_5,2,5,80,127,1916912928
112,19,19,Jits_Linear_5,3,1,48,56,1917132428
112,19,19,Jits_Linear_5,0,5,63,98,1917502804
112,19,19,Jits_Linear_5,1,5,56,103,1917523340
112,19,19,Jits_Linear_5,2,5,80,127,1917563204
112,19,19,Jits_Linear_5,3,1,48,47,1917772820
112,19,19,Jits_Linear_5,0,5,56,103,1918182848
112,19,19,Jits_Linear_5,1,5,63,98,1918193048
112,19,19,Jits_Linear_5,2,5,80,127,1918272916
112,19,19,Jits_Linear_5,3,1,48,56,1918402600
112,19,19,Jits_Linear_5,4,1,48,27,1918466020
112,19,19,Jits_Linear_5,0,5,63,98,1918843212
112,19,19,Jits_Linear_5,1,5,56,103,1918872912
112,19,19,Jits_Linear_5,2,5,80,127,1918912780
112,19,19,Jits_Linear_5,3,1,48,59,1919106112
112,19,19,Jits_Linear_5,0,5,56,103,1919513068
112,19,19,Jits_Linear_5,1,5,63,98,1919553012
112,19,19,Jits_Linear_5,2,5,80,127,1919593100
112,19,19,Jits_Linear_5,3,1,48,66,1919766004
112,19,19,Jits_Linear_5,0,5,80,127,1920192984
112,19,19,Jits_Linear_5,1,5,56,103,1920273008
112,19,19,Jits_Linear_5,2,5,63,98,1920283204
112,19,19,Jits_Linear_5,3,1,48,57,1920498652
112,19,19,Jits_Linear_5,0,5,56,103,1920912756
112,19,19,Jits_Linear_5,1,5,63,98,1920915896
112,19,19,Jits_Linear_5,2,5,80,127,1920923100
112,19,19,Jits_Linear_5,3,1,48,52,1921201196
112,19,19,Jits_Linear_5,0,1,48,24,1921271620
112,19,19,Jits_Linear_5,1,5,56,103,1921613048
112,19,19,Jits_Linear_5,2,5,63,98,1921632832
112,19,19,Jits_Linear_5,3,5,80,127,1921642952
112,19,19,Jits_Linear_5,0,1,48,55,1921952396
112,19,19,Jits_Linear_5,1,5,63,98,1922253160
112,19,19,Jits_Linear_5,2,5,80,127,1922263356
112,19,19,Jits_Linear_5,3,5,56,103,1922282992
112,19,19,Jits_Linear_5,0,1,48,52,1922638600
112,19,19,Jits_Linear_5,1,1,48,28,1922707616
112,19,19,Jits_Linear_5,2,5,63,98,1922943272
112,19,19,Jits_Linear_5,3,5,56,103,1923023244
112,19,19,Jits_Linear_5,4,5,80,127,1923026316
112,19,19,Jits_Linear_5,0,1,48,65,1923368296
112,19,19,Jits_Linear_5,1,1,48,31,1923449940
112,19,19,Jits_Linear_5,2,5,63,98,1923632432
112,19,19,Jits_Linear_5,3,5,56,103,1923653116
112,19,19,Jits_Linear_5,4,5,80,127,1923682864
112,19,19,Jits_Linear_5,0,1,48,61,1924117696
112,19,19,Jits_Linear_5,1,1,48,36,1924183468
112,19,19,Jits_Linear_5,2,5,56,103,1924322860
112,19,19,Jits_Linear_5,3,5,63,98,1924343172
112,19,19,Jits_Linear_5,4,5,80,127,1924353516
112,19,19,Jits_Linear_5,0,1,48,61,1924836824
112,19,19,Jits_Linear_5,1,5,56,103,1925042832
112,19,19,Jits_Linear_5,2,5,63,98,1925073256
112,19,19,Jits_Linear_5,3,5,80,127,1925076848
112,19,19,Jits_Linear_5,0,1,48,40,1925531184
112,19,19,Jits_Linear_5,1,5,56,103,1925682616
112,19,19,Jits_Linear_5,2,5,63,98,1925722632
112,19,19,Jits_Linear_5,3,5,80,127,1925782824
112,19,19,Jits_Linear_5,0,1,48,51,1926197860
112,19,19,Jits_Linear_5,1,5,56,103,1926393304
112,19,19,Jits_Linear_5,2,5,63,98,1926402680
112,19,19,Jits_Linear_5,3,5,80,127,1926462920
112,19,19,Jits_Linear_5,0,1,48,54,1926886524
112,19,19,Jits_Linear_5,1,5,56,103,1927092908
112,19,19,Jits_Linear_5,2,5,80,127,1927113144
112,19,19,Jits_Linear_5,3,5,63,98,1927142672
112,19,19,Jits_Linear_5,0,1,48,55,1927609420
112,19,19,Jits_Linear_5,1,5,80,127,1927792932
112,19,19,Jits_Linear_5,2,5,56,103,1927803128
112,19,19,Jits_Linear_5,3,5,63,98,1927822788
112,19,19,Jits_Linear_5,0,1,48,60,1928350992
112,19,19,Jits_Linear_5,1,5,63,98,1928483236
112,19,19,Jits_Linear_5,2,5,80,127,1928563036
112,19,19,Jits_Linear_5,3,5,56,103,1928573384
112,19,19,Jits_Linear_5,0,1,48,47,1929065848
112,19,19,Jits_Linear_5,1,5,80,127,1929242860
112,19,19,Jits_Linear_5,2,5,56,103,1929262572
112,19,19,Jits_Linear_5,3,5,63,98,1929265640
112,19,19,Jits_Linear_5,0,1,48,45,1929791448
112,19,19,Jits_Linear_5,1,5,63,98,1929922972
112,19,19,Jits_Linear_5,2,5,80,127,1929926264
112,19,19,Jits_Linear_5,3,5,56,103,1929983512
112,19,19,Jits_Linear_5,0,1,48,38,1930460624
112,19,19,Jits_Linear_5,1,5,56,103,1930613104
112,19,19,Jits_Linear_5,2,5,80,127,1930623224
112,19,19,Jits_Linear_5,3,5,63,98,1930663264
112,19,19,Jits_Linear_5,0,1,48,61,1931139580
112,19,19,Jits_Linear_5,1,5,56,103,1931303188
112,19,19,Jits_Linear_5,2,5,63,98,1931362908
112,19,19,Jits_Linear_5,3,5,80,127,1931372952
112,19,19,Jits_Linear_5,0,1,48,49,1931789580
112,19,19,Jits_Linear_5,1,5,63,98,1932023092
112,19,19,Jits_Linear_5,2,5,80,127,1932063036
112,19,19,Jits_Linear_5,3,5,56,103,1932102900
112,19,19,Jits_Linear_5,0,1,48,54,1932453824
112,19,19,Jits_Linear_5,1,5,56,103,1932732812
112,19,19,Jits_Linear_5,2,5,63,98,1932812684
112,19,19,Jits_Linear_5,3,5,80,127,1932815976
112,19,19,Jits_Linear_5,0,1,48,51,1933131232
112,19,19,Jits_Linear_5,1,5,80,127,1933502892
112,19,19,Jits_Linear_5,2,5,56,103,1933532640
112,19,19,Jits_Linear_5,3,5,63,98,1933535560
112,19,19,Jits_Linear_5,4,1,48,49,1933839332
112,19,19,Jits_Linear_5,0,5,56,103,1934182828
112,19,19,Jits_Linear_5,1,5,80,127,1934203140
112,19,19,Jits_Linear_5,2,5,63,98,1934243104
112,19,19,Jits_Linear_5,3,1,48,52,1934506948
112,19,19,Jits_Linear_5,0,5,80,127,1934883116
112,19,19,Jits_Linear_5,1,5,63,98,1934902756
112,19,19,Jits_Linear_5,2,5,56,103,1934962996
112,19,19,Jits_Linear_5,3,1,48,51,1935203924
112,19,19,Jits_Linear_5,0,5,63,98,1935613152
112,19,19,Jits_Linear_5,1,5,56,103,1935622676
112,19,19,Jits_Linear_5,2,5,80,127,1935672652
112,19,19,Jits_Linear_5,3,1,48,64,1935917916
112,19,19,Jits_Linear_5,0,5,56,103,1936322916
112,19,19,Jits_Linear_5,1,5,63,98,1936343600
112,19,19,Jits_Linear_5,2,5,80,127,1936352748
112,19,19,Jits_Linear_5,3,1,48,44,1936637940
112,19,19,Jits_Linear_5,0,5,56,103,1937042736
112,19,19,Jits_Linear_5,1,5,63,98,1937045804
112,19,19,Jits_Linear_5,2,5,80,127,1937063568
112,19,19,Jits_Linear_5,3,1,48,61,1937332668
112,19,19,Jits_Linear_5,0,5,63,98,1937812840
112,19,19,Jits_Linear_5,1,5,56,103,1937842520
112,19,19,Jits_Linear_5,2,5,80,127,1937873464
112,19,19,Jits_Linear_5,3,1,48,52,1938101588
112,19,19,Jits_Linear_5,4,1,48,30,1938162024
112,19,19,Jits_Linear_5,0,5,80,127,1938513212
112,19,19,Jits_Linear_5,1,5,56,103,1938603376
112,19,19,Jits_Linear_5,2,5,63,98,1938606520
112,19,19,Jits_Linear_5,0,1,48,60,1938930788
112,19,19,Jits_Linear_5,1,5,56,103,1939243328
112,19,19,Jits_Linear_5,2,5,80,127,1939246544
112,19,19,Jits_Linear_5,3,5,63,98,1939323196
112,19,19,Jits_Linear_5,4,1,48,53,1939616660
112,19,19,Jits_Linear_5,0,5,80,127,1939972436
112,19,19,Jits_Linear_5,1,5,63,98,1940032828
112,19,19,Jits_Linear_5,2,5,56,103,1940062652
112,19,19,Jits_Linear_5,3,1,48,46,1940329264
112,19,19,Jits_Linear_5,0,5,63,98,1940702616
112,19,19,Jits_Linear_5,1,5,80,127,1940712888
112,19,19,Jits_Linear_5,2,5,56,103,1940782572
112,19,19,Jits_Linear_5,3,1,48,39,1941052188
112,19,19,Jits_Linear_5,0,5,56,103,1941453080
112,19,19,Jits_Linear_5,1,5,80,127,1941482980
112,19,19,Jits_Linear_5,2,5,63,98,1941533108
112,19,19,Jits_Linear_5,3,1,48,46,1941774860
112,19,19,Jits_Linear_5,0,5,63,98,1942232492
112,19,19,Jits_Linear_5,1,5,56,103,1942263288
112,19,19,Jits_Linear_5,2,5,80,127,1942266432
112,19,19,Jits_Linear_5,3,1,48,48,1942599124
112,19,19,Jits_Linear_5,0,5,63,98,1942972768
112,19,19,Jits_Linear_5,1,5,80,127,1942993304
112,19,19,Jits_Linear_5,2,5,56,103,1943002676
112,19,19,Jits_Linear_5,3,1,48,52,1943331332
112,19,19,Jits_Linear_5,0,5,56,103,1943723468
112,19,19,Jits_Linear_5,1,5,63,98,1943726688
112,19,19,Jits_Linear_5,2,5,80,127,1943742808
112,19,19,Jits_Linear_5,0,1,48,46,1944112168
112,19,19,Jits_Linear_5,1,5,56,103,1944422768
112,19,19,Jits_Linear_5,2,5,63,98,1944432964
112,19,19,Jits_Linear_5,3,5,80,127,1944462588
112,19,19,Jits_Linear_5,0,1,48,49,1944841740
112,19,19,Jits_Linear_5,1,5,63,98,1945192772
112,19,19,Jits_Linear_5,2,5,80,127,1945213456
112,19,19,Jits_Linear_5,3,5,56,103,1945253200
112,19,19,Jits_Linear_5,0,1,48,36,1945616904
112,19,19,Jits_Linear_5,1,5,56,103,1945973064
112,19,19,Jits_Linear_5,2,5,63,98,1946013108
112,19,19,Jits_Linear_5,3,5,80,127,1946016472
112,19,19,Jits_Linear_5,0,1,48,48,1946409028
112,19,19,Jits_Linear_5,1,5,80,127,1946663516
112,19,19,Jits_Linear_5,2,5,56,103,1946703456
112,19,19,Jits_Linear_5,3,5,63,98,1946753364
112,19,19,Jits_Linear_5,0,1,48,50,1947145496
112,19,19,Jits_Linear_5,1,5,56,103,1947473476
112,19,19,Jits_Linear_5,2,5,80,127,1947482480
112,19,19,Jits_Linear_5,3,5,63,98,1947513276
112,19,19,Jits_Linear_5,0,1,48,48,1947898660
112,19,19,Jits_Linear_5,1,5,56,103,1948172560
112,19,19,Jits_Linear_5,2,5,80,127,1948212500
112,19,19,Jits_Linear_5,3,5,63,98,1948262780
112,19,19,Jits_Linear_5,0,1,48,61,1948641508
112,19,19,Jits_Linear_5,1,5,56,103,1948932548
112,19,19,Jits_Linear_5,2,5,80,127,1948973608
112,19,19,Jits_Linear_5,3,5,63,98,1949022540
112,19,19,Jits_Linear_5,4,1,48,59,1949326940
112,19,19,Jits_Linear_5,0,5,80,127,1949683160
112,19,19,Jits_Linear_5,1,5,63,98,1949762888
112,19,19,Jits_Linear_5,2,5,56,103,1949773456
112,19,19,Jits_Linear_5,3,1,48,53,1950076264
112,19,19,Jits_Linear_5,0,5,80,127,1950492996
112,19,19,Jits_Linear_5,1,5,56,103,1950503416
112,19,19,Jits_Linear_5,2,5,63,98,1950522680
112,19,19,Jits_Linear_5,3,1,48,49,1950853656
112,19,19,Jits_Linear_5,0,5,63,98,1951223080
112,19,19,Jits_Linear_5,1,5,56,103,1951292912
112,19,19,Jits_Linear_5,2,5,80,127,1951295904
112,19,19,Jits_Linear_5,3,1,48,44,1951580740
112,19,19,Jits_Linear_5,0,5,80,127,1951982984
112,19,19,Jits_Linear_5,1,5,63,98,1952033340
112,19,19,Jits_Linear_5,2,5,56,103,1952073204
112,19,19,Jits_Linear_5,3,1,48,57,1952354884
112,19,19,Jits_Linear_5,0,5,63,98,1952792892
112,19,19,Jits_Linear_5,1,5,56,103,1952832908
112,19,19,Jits_Linear_5,2,5,80,127,1952843104
112,19,19,Jits_Linear_5,0,1,48,51,1953177336
112,19,19,Jits_Linear_5,1,5,63,98,1953552892
112,19,19,Jits_Linear_5,2,5,56,103,1953573204
112,19,19,Jits_Linear_5,3,5,80,127,1953592768
112,19,19,Jits_Linear_5,4,1,48,49,1953898860
112,19,19,Jits_Linear_5,0,5,80,127,1954282832
112,19,19,Jits_Linear_5,1,5,56,103,1954293252
112,19,19,Jits_Linear_5,2,5,63,98,1954312444
112,19,19,Jits_Linear_5,3,1,48,51,1954633672
112,19,19,Jits_Linear_5,0,5,63,98,1955082468
112,19,19,Jits_Linear_5,1,5,56,103,1955122484
112,19,19,Jits_Linear_5,2,5,80,127,1955153504
112,19,19,Jits_Linear_5,3,1,48,50,1955420732
112,19,19,Jits_Linear_5,0,5,56,103,1955862764
112,19,19,Jits_Linear_5,1,5,63,98,1955892516
112,19,19,Jits_Linear_5,2,5,80,127,1955923536
112,19,19,Jits_Linear_5,3,1,48,46,1956175696
112,19,19,Jits_Linear_5,0,5,80,127,1956612352
112,19,19,Jits_Linear_5,1,5,56,103,1956683232
112,19,19,Jits_Linear_5,2,5,63,98,1956686372
112,19,19,Jits_Linear_5,3,1,48,38,1956984312
112,19,19,Jits_Linear_5,0,5,56,103,1957402984
112,19,19,Jits_Linear_5,1,5,63,98,1957453560
112,19,19,Jits_Linear_5,2,5,80,127,1957482792
112,19,19,Jits_Linear_5,3,1,48,56,1957728804
112,19,19,Jits_Linear_5,0,5,63,98,1958162896
112,19,19,Jits_Linear_5,1,5,80,127,1958166260
112,19,19,Jits_Linear_5,2,5,56,103,1958223436
112,19,19,Jits_Linear_5,3,1,48,50,1958519416
112,19,19,Jits_Linear_5,0,5,56,103,1958972844
112,19,19,Jits_Linear_5,1,5,80,127,1958983412
112,19,19,Jits_Linear_5,2,5,63,98,1959033392
112,19,19,Jits_Linear_5,3,1,48,51,1959297616
112,19,19,Jits_Linear_5,0,5,63,98,1959732680
112,19,19,Jits_Linear_5,1,5,56,103,1959742952
112,19,19,Jits_Linear_5,2,5,80,127,1959772476
112,19,19,Jits_Linear_5,3,1,48,48,1960105200
112,19,19,Jits_Linear_5,0,5,63,98,1960552748
112,19,19,Jits_Linear_5,1,5,80,127,1960556412
112,19,19,Jits_Linear_5,2,5,56,103,1960582448
112,19,19,Jits_Linear_5,3,1,48,45,1960909292
112,19,19,Jits_Linear_5,0,5,63,98,1961362652
112,19,19,Jits_Linear_5,1,5,56,103,1961383408
112,19,19,Jits_Linear_5,2,5,80,127,1961386624
112,19,19,Jits_Linear_5,3,1,48,55,1961733712
112,19,19,Jits_Linear_5,0,5,63,98,1962113392
112,19,19,Jits_Linear_5,1,5,56,103,1962183248
112,19,19,Jits_Linear_5,2,5,80,127,1962202364
112,19,19,Jits_Linear_5,3,1,48,60,1962516252
112,19,19,Jits_Linear_5,0,5,56,103,1962892660
112,19,19,Jits_Linear_5,1,5,63,98,1962903080
112,19,19,Jits_Linear_5,2,5,80,127,1962993288
112,19,19,Jits_Linear_5,3,1,48,49,1963318564
112,19,19,Jits_Linear_5,0,5,56,103,1963702784
112,19,19,Jits_Linear_5,1,5,80,127,1963742652
112,19,19,Jits_Linear_5,2,5,63,98,1963752920
112,19,19,Jits_Linear_5,0,1,48,41,1964153812
112,19,19,Jits_Linear_5,1,5,56,103,1964522812
112,19,19,Jits_Linear_5,2,5,63,98,1964552564
112,19,19,Jits_Linear_5,3,5,80,127,1964583360
112,19,19,Jits_Linear_5,4,1,48,52,1964917624
112,19,19,Jits_Linear_5,0,5,80,127,1965282712
112,19,19,Jits_Linear_5,1,5,63,98,1965322580
112,19,19,Jits_Linear_5,2,5,56,103,1965343112
112,19,19,Jits_Linear_5,3,1,48,48,1965691696
112,19,19,Jits_Linear_5,0,5,56,103,1966123256
112,19,19,Jits_Linear_5,1,5,80,127,1966142968
112,19,19,Jits_Linear_5,2,5,63,98,1966163352
112,19,19,Jits_Linear_5,3,1,48,51,1966498240
112,19,19,Jits_Linear_5,0,5,63,98,1966893444
112,19,19,Jits_Linear_5,1,5,56,103,1966902668
112,19,19,Jits_Linear_5,2,5,80,127,1966963056
112,19,19,Jits_Linear_5,3,1,48,45,1967286112
112,19,19,Jits_Linear_5,0,5,56,103,1967703476
112,19,19,Jits_Linear_5,1,5,63,98,1967773184
112,19,19,Jits_Linear_5,2,5,80,127,1967792372
112,19,19,Jits_Linear_5,3,1,48,61,1968076520
112,19,19,Jits_Linear_5,0,5,56,103,1968513376
112,19,19,Jits_Linear_5,1,5,63,98,1968543152
112,19,19,Jits_Linear_5,2,5,80,127,1968583092
112,19,19,Jits_Linear_5,3,1,48,42,1968883352
112,19,19,Jits_Linear_5,0,5,63,98,1969313260
112,19,19,Jits_Linear_5,1,5,56,103,1969363240
112,19,19,Jits_Linear_5,2,5,80,127,1969372464
112,19,19,Jits_Linear_5,3,1,48,48,1969639076
112,19,19,Jits_Linear_5,0,5,56,103,1970163152
112,19,19,Jits_Linear_5,1,5,63,98,1970213208
112,19,19,Jits_Linear_5,2,5,80,127,1970222356
112,19,19,Jits_Linear_5,3,1,48,54,1970518488
112,19,19,Jits_Linear_5,0,5,56,103,1970943384
112,19,19,Jits_Linear_5,1,5,63,98,1970952536
112,19,19,Jits_Linear_5,2,5,80,127,1971032628
112,19,19,Jits_Linear_5,3,1,48,48,1971326072
112,19,19,Jits_Linear_5,0,9999,9999,9999,1862190192
112,19,19,Jits_Linear_5,1,9999,9999,9999,1862670432
112,19,19,Jits_Linear_5,2,9999,9999,9999,1863150688
112,19,19,Jits_Linear_5,3,9999,9999,9999,1863630940
112,19,19,Jits_Linear_5,4,9999,9999,9999,1864110192
112,19,19,Jits_Linear_5,5,9999,9999,9999,1864600668
112,19,19,Jits_Linear_5,6,9999,9999,9999,1865090144
112,19,19,Jits_Linear_5,7,9999,9999,9999,1865580624
112,19,19,Jits_Linear_5,8,9999,9999,9999,1866070124
112,19,19,Jits_Linear_5,9,9999,9999,9999,1866560596
112,19,19,Jits_Linear_5,10,9999,9999,9999,1867060284
112,19,19,Jits_Linear_5,11,9999,9999,9999,1867561020
112,19,19,Jits_Linear_5,12,9999,9999,9999,1868060780
112,19,19,Jits_Linear_5,13,9999,9999,9999,1868560464
112,19,19,Jits_Linear_5,14,9999,9999,9999,1869060212
112,19,19,Jits_Linear_5,15,9999,9999,9999,1869570164
112,19,19,Jits_Linear_5,16,9999,9999,9999,1870080116
112,19,19,Jits_Linear_5,17,9999,9999,9999,1870591036
112,19,19,Jits_Linear_5,18,9999,9999,9999,1871100988
112,19,19,Jits_Linear_5,19,9999,9999,9999,1871610944
112,19,19,Jits_Linear_5,20,9999,9999,9999,1872130112
112,19,19,Jits_Linear_5,21,9999,9999,9999,1872650328
112,19,19,Jits_Linear_5,22,9999,9999,9999,1873170540
112,19,19,Jits_Linear_5,23,9999,9999,9999,1873690684
112,19,19,Jits_Linear_5,24,9999,9999,9999,1874210900
112,19,19,Jits_Linear_5,25,9999,9999,9999,1874740324
112,19,19,Jits_Linear_5,26,9999,9999,9999,1875270732
112,19,19,Jits_Linear_5,27,9999,9999,9999,1875800140
112,19,19,Jits_Linear_5,28,9999,9999,9999,1876330620
112,19,19,Jits_Linear_5,29,9999,9999,9999,1876861024
112,19,19,Jits_Linear_5,30,9999,9999,9999,1877400672
112,19,19,Jits_Linear_5,31,9999,9999,9999,1877940296
112,19,19,Jits_Linear_5,32,9999,9999,9999,1878480960
112,19,19,Jits_Linear_5,33,9999,9999,9999,1879020656
112,19,19,Jits_Linear_5,34,9999,9999,9999,1879560276
112,19,19,Jits_Linear_5,35,9999,9999,9999,1880110168
112,19,19,Jits_Linear_5,36,9999,9999,9999,1880661092
112,19,19,Jits_Linear_5,37,9999,9999,9999,1881210976
112,19,19,Jits_Linear_5,38,9999,9999,9999,1881760888
112,19,19,Jits_Linear_5,39,9999,9999,9999,1882310776
112,19,19,Jits_Linear_5,40,9999,9999,9999,1882870856
112,19,19,Jits_Linear_5,41,9999,9999,9999,1883431000
112,19,19,Jits_Linear_5,42,9999,9999,9999,1883990100
112,19,19,Jits_Linear_5,43,9999,9999,9999,1884550248
112,19,19,Jits_Linear_5,44,9999,9999,9999,1885110340
112,19,19,Jits_Linear_5,45,9999,9999,9999,1885680748
112,19,19,Jits_Linear_5,46,9999,9999,9999,1886251084
112,19,19,Jits_Linear_5,47,9999,9999,9999,1886830648
112,19,19,Jits_Linear_5,48,9999,9999,9999,1887401084
112,19,19,Jits_Linear_5,49,9999,9999,9999,1887970384
112,19,19,Jits_Linear_5,50,9999,9999,9999,1888550972
112,19,19,Jits_Linear_5,51,9999,9999,9999,1889130600
112,19,19,Jits_Linear_5,52,9999,9999,9999,1889710180
112,19,19,Jits_Linear_5,53,9999,9999,9999,1890290776
112,19,19,Jits_Linear_5,54,9999,9999,9999,1890870332
112,19,19,Jits_Linear_5,55,9999,9999,9999,1891460176
112,19,19,Jits_Linear_5,56,9999,9999,9999,1892051060
112,19,19,Jits_Linear_5,57,9999,9999,9999,1892640824
112,19,19,Jits_Linear_5,58,9999,9999,9999,1893230696
112,19,19,Jits_Linear_5,59,9999,9999,9999,1893820504
112,19,19,Jits_Linear_5,60,9999,9999,9999,1894420592
112,19,19,Jits_Linear_5,61,9999,9999,9999,1895020600
112,19,19,Jits_Linear_5,62,9999,9999,9999,1895620704
112,19,19,Jits_Linear_5,63,9999,9999,9999,1896220792
112,19,19,Jits_Linear_5,64,9999,9999,9999,1896820800
112,19,19,Jits_Linear_5,65,9999,9999,9999,1897430136
112,19,19,Jits_Linear_5,66,9999,9999,9999,1898040384
112,19,19,Jits_Linear_5,67,9999,9999,9999,1898650736
112,19,19,Jits_Linear_5,68,9999,9999,9999,1899261032
112,19,19,Jits_Linear_5,69,9999,9999,9999,1899870276
112,19,19,Jits_Linear_5,70,9999,9999,9999,1900490816
112,19,19,Jits_Linear_5,71,9999,9999,9999,1901110396
112,19,19,Jits_Linear_5,72,9999,9999,9999,1901730892
112,19,19,Jits_Linear_5,73,9999,9999,9999,1902350452
112,19,19,Jits_Linear_5,74,9999,9999,9999,1902971004
112,19,19,Jits_Linear_5,75,9999,9999,9999,1903600704
112,19,19,Jits_Linear_5,76,9999,9999,9999,1904230472
112,19,19,Jits_Linear_5,77,9999,9999,9999,1904860252
112,19,19,Jits_Linear_5,78,9999,9999,9999,1905491000
112,19,19,Jits_Linear_5,79,9999,9999,9999,1906120804
112,19,19,Jits_Linear_5,80,9999,9999,9999,1906760816
112,19,19,Jits_Linear_5,81,9999,9999,9999,1907400780
112,19,19,Jits_Linear_5,82,9999,9999,9999,1908040792
112,19,19,Jits_Linear_5,83,9999,9999,9999,1908680760
112,19,19,Jits_Linear_5,84,9999,9999,9999,1909320780
112,19,19,Jits_Linear_5,85,9999,9999,9999,1909971004
112,19,19,Jits_Linear_5,86,9999,9999,9999,1910620232
112,19,19,Jits_Linear_5,87,9999,9999,9999,1911270460
112,19,19,Jits_Linear_5,88,9999,9999,9999,1911920728
112,19,19,Jits_Linear_5,89,9999,9999,9999,1912570952
112,19,19,Jits_Linear_5,90,9999,9999,9999,1913230416
112,19,19,Jits_Linear_5,91,9999,9999,9999,1913890892
112,19,19,Jits_Linear_5,92,9999,9999,9999,1914550396
112,19,19,Jits_Linear_5,93,9999,9999,9999,1915210808
112,19,19,Jits_Linear_5,94,9999,9999,9999,1915870308
112,19,19,Jits_Linear_5,95,9999,9999,9999,1916540980
112,19,19,Jits_Linear_5,96,9999,9999,9999,1917210700
112,19,19,Jits_Linear_5,97,9999,9999,9999,1917880388
112,19,19,Jits_Linear_5,98,9999,9999,9999,1918550140
112,19,19,Jits_Linear_5,99,9999,9999,9999,1919220800
112,19,19,Jits_Linear_5,100,9999,9999,9999,1919900772
112,19,19,Jits_Linear_5,101,9999,9999,9999,1920580680
112,19,19,Jits_Linear_5,102,9999,9999,9999,1921260656
112,19,19,Jits_Linear_5,103,9999,9999,9999,1921940608
112,19,19,Jits_Linear_5,104,9999,9999,9999,1922620476
112,19,19,Jits_Linear_5,105,9999,9999,9999,1923310688
112,19,19,Jits_Linear_5,106,9999,9999,9999,1924000896
112,19,19,Jits_Linear_5,107,9999,9999,9999,1924691000
112,19,19,Jits_Linear_5,108,9999,9999,9999,1925380180
112,19,19,Jits_Linear_5,109,9999,9999,9999,1926070340
112,19,19,Jits_Linear_5,110,9999,9999,9999,1926770812
112,19,19,Jits_Linear_5,111,9999,9999,9999,1927470188
112,19,19,Jits_Linear_5,112,9999,9999,9999,1928170612
112,19,19,Jits_Linear_5,113,9999,9999,9999,1928871040
112,19,19,Jits_Linear_5,114,9999,9999,9999,1929570388
112,19,19,Jits_Linear_5,115,9999,9999,9999,1930281068
112,19,19,Jits_Linear_5,116,9999,9999,9999,1930990712
112,19,19,Jits_Linear_5,117,9999,9999,9999,1931700352
112,19,19,Jits_Linear_5,118,9999,9999,9999,1932410940
112,19,19,Jits_Linear_5,119,9999,9999,9999,1933120576
112,19,19,Jits_Linear_5,120,9999,9999,9999,1933840452
112,19,19,Jits_Linear_5,121,9999,9999,9999,1934560356
112,19,19,Jits_Linear_5,122,9999,9999,9999,1935280196
112,19,19,Jits_Linear_5,123,9999,9999,9999,1936000092
112,19,19,Jits_Linear_5,124,9999,9999,9999,1936721016
112,19,19,Jits_Linear_5,125,9999,9999,9999,1937451076
112,19,19,Jits_Linear_5,126,9999,9999,9999,1938190396
112,19,19,Jits_Linear_5,127,9999,9999,9999,1938920560
112,19,19,Jits_Linear_5,128,9999,9999,9999,1939650664
112,19,19,Jits_Linear_5,129,9999,9999,9999,1940380752
112,19,19,Jits_Linear_5,130,9999,9999,9999,1941120124
112,19,19,Jits_Linear_5,131,9999,9999,9999,1941860476
112,19,19,Jits_Linear_5,132,9999,9999,9999,1942600768
112,19,19,Jits_Linear_5,133,9999,9999,9999,1943340156
112,19,19,Jits_Linear_5,134,9999,9999,9999,1944080440
112,19,19,Jits_Linear_5,135,9999,9999,9999,1944831084
112,19,19,Jits_Linear_5,136,9999,9999,9999,1945580644
112,19,19,Jits_Linear_5,137,9999,9999,9999,1946330216
112,19,19,Jits_Linear_5,138,9999,9999,9999,1947080756
112,19,19,Jits_Linear_5,139,9999,9999,9999,1947830336
112,19,19,Jits_Linear_5,140,9999,9999,9999,1948590176
112,19,19,Jits_Linear_5,141,9999,9999,9999,1949350980
112,19,19,Jits_Linear_5,142,9999,9999,9999,1950110816
112,19,19,Jits_Linear_5,143,9999,9999,9999,1950870644
112,19,19,Jits_Linear_5,144,9999,9999,9999,1951630416
112,19,19,Jits_Linear_5,145,9999,9999,9999,1952400444
112,19,19,Jits_Linear_5,146,9999,9999,9999,1953170532
112,19,19,Jits_Linear_5,147,9999,9999,9999,1953940608
112,19,19,Jits_Linear_5,148,9999,9999,9999,1954710624
112,19,19,Jits_Linear_5,149,9999,9999,9999,1955480668
112,19,19,Jits_Linear_5,150,9999,9999,9999,1956260964
112,19,19,Jits_Linear_5,151,9999,9999,9999,1957040212
112,19,19,Jits_Linear_5,152,9999,9999,9999,1957820520
112,19,19,Jits_Linear_5,153,9999,9999,9999,1958600792
112,19,19,Jits_Linear_5,154,9999,9999,9999,1959381084
112,19,19,Jits_Linear_5,155,9999,9999,9999,1960170584
112,19,19,Jits_Linear_5,156,9999,9999,9999,1960960080
112,19,19,Jits_Linear_5,157,9999,9999,9999,1961750628
112,19,19,Jits_Linear_5,158,9999,9999,9999,1962540140
112,19,19,Jits_Linear_5,159,9999,9999,9999,1963330620
112,19,19,Jits_Linear_5,160,9999,9999,9999,1964130412
112,19,19,Jits_Linear_5,161,9999,9999,9999,1964930128
112,19,19,Jits_Linear_5,162,9999,9999,9999,1965730884
112,19,19,Jits_Linear_5,163,9999,9999,9999,1966530672
112,19,19,Jits_Linear_5,164,9999,9999,9999,1967330376
112,19,19,Jits_Linear_5,165,9999,9999,9999,1968140412
112,19,19,Jits_Linear_5,166,9999,9999,9999,1968950384
112,19,19,Jits_Linear_5,167,9999,9999,9999,1969760340
112,19,19,Jits_Linear_5,168,9999,9999,9999,1970570344
112,19,19,Jits_Linear_5,169,9999,9999,9999,1971380324
112,20,3,ISIP_8,0,5,42,127,2163904040
112,20,3,ISIP_8,1,5,42,127,2164703720
112,20,3,ISIP_8,2,1,48,47,2165500144
112,20,3,ISIP_8,3,5,42,127,2165504292
112,20,3,ISIP_8,4,1,48,47,2166289632
112,20,3,ISIP_8,5,5,42,127,2166304028
112,20,3,ISIP_8,6,1,48,46,2167052188
112,20,3,ISIP_8,7,5,42,127,2167103836
112,20,3,ISIP_8,8,1,48,48,2167807492
112,20,3,ISIP_8,9,5,42,127,2167903924
112,20,3,ISIP_8,10,1,48,48,2168582840
112,20,3,ISIP_8,11,5,42,127,2168704284
112,20,3,ISIP_8,12,1,48,47,2169360284
112,20,3,ISIP_8,13,5,42,127,2169504092
112,20,3,ISIP_8,14,1,48,47,2170150072
112,20,3,ISIP_8,15,5,42,127,2170303896
112,20,3,ISIP_8,16,1,48,35,2170952720
112,20,3,ISIP_8,17,5,42,127,2171103632
112,20,3,ISIP_8,18,1,48,39,2171764120
112,20,3,ISIP_8,19,5,42,127,2171904336
112,20,3,ISIP_8,20,1,48,38,2172560284
112,20,3,ISIP_8,21,5,42,127,2172704068
112,20,3,ISIP_8,22,1,48,45,2173386804
112,20,3,ISIP_8,23,5,42,127,2173503876
112,20,3,ISIP_8,24,1,48,40,2174137616
112,20,3,ISIP_8,25,5,42,127,2174303460
112,20,3,ISIP_8,26,1,48,43,2174892992
112,20,3,ISIP_8,27,5,42,127,2175104416
112,20,3,ISIP_8,28,1,48,39,2175694228
112,20,3,ISIP_8,29,5,42,127,2175904152
112,20,3,ISIP_8,30,1,48,44,2176533976
112,20,3,ISIP_8,31,5,42,127,2176703812
112,20,3,ISIP_8,32,1,48,45,2177315084
112,20,3,ISIP_8,33,5,42,127,2177503616
112,20,3,ISIP_8,34,1,48,42,2178108684
112,20,3,ISIP_8,35,5,42,127,2178304396
112,20,3,ISIP_8,36,1,48,29,2178918592
112,20,3,ISIP_8,37,5,42,127,2179104132
112,20,3,ISIP_8,38,1,48,27,2179777960
112,20,3,ISIP_8,39,5,42,127,2179903864
112,20,3,ISIP_8,40,1,48,35,2180531768
112,20,3,ISIP_8,41,5,42,127,2180703672
112,20,3,ISIP_8,42,1,48,48,2181343624
112,20,3,ISIP_8,43,5,42,127,2181504256
112,20,3,ISIP_8,44,1,48,35,2182136772
112,20,3,ISIP_8,45,5,42,127,2182304212
112,20,3,ISIP_8,46,1,48,48,2182918556
112,20,3,ISIP_8,47,5,42,127,2183103948
112,20,3,ISIP_8,48,1,48,44,2183731900
112,20,3,ISIP_8,49,5,42,127,2183903680
112,20,3,ISIP_8,50,1,48,44,2184535820
112,20,3,ISIP_8,51,5,42,127,2184704308
112,20,3,ISIP_8,52,1,48,43,2185321644
112,20,3,ISIP_8,53,5,42,127,2185504116
112,20,3,ISIP_8,54,1,48,43,2186151916
112,20,3,ISIP_8,55,5,42,127,2186303776
112,20,3,ISIP_8,56,1,48,45,2186918968
112,20,3,ISIP_8,57,5,42,127,2187103588
112,20,3,ISIP_8,58,1,48,43,2187742708
112,20,3,ISIP_8,59,1,48,42,2188562784
112,20,3,ISIP_8,60,1,48,37,2189365284
112,20,3,ISIP_8,61,1,48,44,2190186776
112,20,3,ISIP_8,62,1,48,26,2190999844
112,20,3,ISIP_8,63,1,48,43,2191799120
112,20,3,ISIP_8,64,1,48,41,2192584636
112,20,3,ISIP_8,65,1,48,34,2193348168
112,20,3,ISIP_8,66,1,48,41,2194136156
112,20,3,ISIP_8,67,1,48,45,2194885096
112,20,3,ISIP_8,68,1,48,45,2195699112
112,20,3,ISIP_8,69,1,48,45,2196495476
112,20,3,ISIP_8,70,1,48,40,2197278972
112,20,3,ISIP_8,71,1,48,46,2198067104
112,20,3,ISIP_8,72,1,48,47,2198830856
112,20,3,ISIP_8,73,1,48,32,2199602084
112,20,3,ISIP_8,74,1,48,45,2200358880
112,20,3,ISIP_8,75,1,48,39,2201148888
112,20,3,ISIP_8,76,1,48,41,2201888476
112,20,3,ISIP_8,77,1,48,49,2202670408
112,20,3,ISIP_8,78,1,48,46,2203420464
112,20,3,ISIP_8,79,1,48,46,2204193196
112,20,3,ISIP_8,80,1,48,37,2204897032
112,20,3,ISIP_8,81,1,48,56,2205639540
112,20,3,ISIP_8,82,1,48,49,2206352432
112,20,3,ISIP_8,83,1,48,36,2207086076
112,20,3,ISIP_8,84,1,48,37,2207832324
112,20,3,ISIP_8,85,1,48,45,2208552244
112,20,3,ISIP_8,86,1,48,31,2209297220
112,20,3,ISIP_8,87,1,48,54,2210051176
112,20,3,ISIP_8,88,1,48,53,2210794132
112,20,3,ISIP_8,89,1,48,48,2211518912
112,20,3,ISIP_8,90,1,48,39,2212276156
112,20,3,ISIP_8,91,1,48,55,2213021736
112,20,3,ISIP_8,92,1,48,47,2213780924
112,20,3,ISIP_8,93,1,48,34,2214517496
112,20,3,ISIP_8,94,1,48,49,2215266816
112,20,3,ISIP_8,95,1,48,43,2215984192
112,20,3,ISIP_8,96,1,48,44,2216750412
112,20,3,ISIP_8,97,1,48,47,2217481760
112,20,3,ISIP_8,98,1,48,46,2218203476
112,20,3,ISIP_8,99,1,48,50,2218948304
112,20,3,ISIP_8,100,1,48,42,2219656336
112,20,3,ISIP_8,101,1,48,52,2220413648
112,20,3,ISIP_8,102,1,48,48,2221144096
112,20,3,ISIP_8,103,1,48,46,2221856984
112,20,3,ISIP_8,104,1,48,47,2222581164
112,20,3,ISIP_8,105,1,48,36,2223327712
112,20,3,ISIP_8,106,1,48,48,2224026612
112,20,3,ISIP_8,107,1,48,49,2224735064
112,20,3,ISIP_8,108,1,48,50,2225443452
112,20,3,ISIP_8,109,1,48,49,2226150132
112,20,3,ISIP_8,110,1,48,45,2226855020
112,20,3,ISIP_8,111,1,48,51,2227622064
112,20,3,ISIP_8,112,1,48,43,2228340532
112,20,3,ISIP_8,113,1,48,47,2229028440
112,20,3,ISIP_8,114,1,48,46,2229757264
112,20,3,ISIP_8,115,1,48,51,2230445396
112,20,3,ISIP_8,116,1,48,50,2231150928
112,20,3,ISIP_8,117,1,48,51,2231887440
112,20,3,ISIP_8,118,1,48,47,2232644012
112,20,3,ISIP_8,119,1,48,51,2233395496
112,20,3,ISIP_8,120,1,48,48,2234105020
112,20,3,ISIP_8,121,1,48,18,2234204256
112,20,3,ISIP_8,122,1,48,52,2234925520
112,20,3,ISIP_8,123,1,48,51,2235698916
112,20,3,ISIP_8,124,1,48,48,2236500960
112,20,3,ISIP_8,125,1,48,54,2237268604
112,20,3,ISIP_8,126,1,48,47,2238036024
112,20,3,ISIP_8,127,1,48,51,2238787428
112,20,3,ISIP_8,128,1,48,52,2239588952
112,20,3,ISIP_8,129,1,48,48,2240335724
112,20,3,ISIP_8,130,1,48,47,2241061932
112,20,3,ISIP_8,131,1,48,53,2241821792
112,20,3,ISIP_8,132,1,48,48,2242589880
112,20,3,ISIP_8,133,1,48,48,2243340764
112,20,3,ISIP_8,134,1,48,47,2244105040
112,20,3,ISIP_8,135,1,48,51,2244861240
112,20,3,ISIP_8,136,1,48,51,2245580108
112,20,3,ISIP_8,137,1,48,47,2246287452
112,20,3,ISIP_8,138,1,48,52,2247052328
112,20,3,ISIP_8,139,1,48,48,2247826848
112,20,3,ISIP_8,140,1,48,52,2248519288
112,20,3,ISIP_8,141,1,48,55,2249283940
112,20,3,ISIP_8,142,1,48,47,2250032732
112,20,3,ISIP_8,143,1,48,43,2250798504
112,20,3,ISIP_8,144,1,48,49,2251533300
112,20,3,ISIP_8,145,1,48,51,2252251804
112,20,3,ISIP_8,146,1,48,40,2253090724
112,20,3,ISIP_8,147,1,48,52,2253874072
112,20,3,ISIP_8,148,1,48,48,2254575672
112,20,3,ISIP_8,149,1,48,47,2255339724
112,20,3,ISIP_8,150,1,48,36,2256137656
112,20,3,ISIP_8,151,1,48,53,2256816064
112,20,3,ISIP_8,152,1,48,49,2257527456
112,20,3,ISIP_8,153,1,48,53,2258178304
112,20,3,ISIP_8,154,1,48,45,2258868380
112,20,3,ISIP_8,155,1,48,47,2259580220
112,20,3,ISIP_8,156,1,48,54,2260272664
112,20,3,ISIP_8,157,1,48,47,2260963488
112,20,3,ISIP_8,158,1,48,51,2261613972
112,20,3,ISIP_8,159,1,48,55,2262246588
112,20,3,ISIP_8,160,1,48,50,2262936212
112,20,3,ISIP_8,161,1,48,43,2263580864
112,20,3,ISIP_8,162,1,48,56,2264143604
112,20,3,ISIP_8,163,1,48,40,2264890976
112,20,3,ISIP_8,164,1,48,50,2265604764
112,20,3,ISIP_8,165,1,48,38,2266260116
112,20,3,ISIP_8,166,1,48,40,2266992204
112,20,3,ISIP_8,167,1,48,44,2267633288
112,20,3,ISIP_8,168,1,48,42,2268244208
112,20,3,ISIP_8,169,1,48,54,2268843032
112,20,3,ISIP_8,170,1,48,48,2269460588
112,20,3,ISIP_8,171,1,48,40,2270140492
112,20,3,ISIP_8,172,1,48,49,2270827248
112,20,3,ISIP_8,173,1,48,26,2271404456
112,20,3,ISIP_8,174,1,48,46,2272020304
112,20,3,ISIP_8,175,1,48,52,2272787348
112,20,3,ISIP_8,176,1,48,55,2273533148
112,20,3,ISIP_8,177,1,48,48,2274273172
112,20,3,ISIP_8,178,1,48,46,2275004312
112,20,3,ISIP_8,179,1,48,45,2275767020
112,20,3,ISIP_8,180,1,48,51,2276511696
112,20,3,ISIP_8,181,1,48,47,2277254284
112,20,3,ISIP_8,182,1,48,44,2278008532
112,20,3,ISIP_8,183,1,48,50,2278695516
112,20,3,ISIP_8,184,1,48,49,2279495320
112,20,3,ISIP_8,185,1,48,37,2280157796
112,20,3,ISIP_8,186,1,48,48,2280904416
112,20,3,ISIP_8,187,1,48,44,2281667348
112,20,3,ISIP_8,188,1,48,49,2282363336
112,20,3,ISIP_8,189,1,48,48,2283164112
112,20,3,ISIP_8,0,9999,9999,9999,2163901528
112,20,3,ISIP_8,1,9999,9999,9999,2164701280
112,20,3,ISIP_8,2,9999,9999,9999,2165502004
112,20,3,ISIP_8,3,9999,9999,9999,2166301812
112,20,3,ISIP_8,4,9999,9999,9999,2167101544
112,20,3,ISIP_8,5,9999,9999,9999,2167901280
112,20,3,ISIP_8,6,9999,9999,9999,2168702068
112,20,3,ISIP_8,7,9999,9999,9999,2169501800
112,20,3,ISIP_8,8,9999,9999,9999,2170301532
112,20,3,ISIP_8,9,9999,9999,9999,2171101268
112,20,3,ISIP_8,10,9999,9999,9999,2171902048
112,20,3,ISIP_8,11,9999,9999,9999,2172701780
112,20,3,ISIP_8,12,9999,9999,9999,2173501512
112,20,3,ISIP_8,13,9999,9999,9999,2174301248
112,20,3,ISIP_8,14,9999,9999,9999,2175102052
112,20,3,ISIP_8,15,9999,9999,9999,2175901788
112,20,3,ISIP_8,16,9999,9999,9999,2176701520
112,20,3,ISIP_8,17,9999,9999,9999,2177501256
112,20,3,ISIP_8,18,9999,9999,9999,2178302036
112,20,3,ISIP_8,19,9999,9999,9999,2179101768
112,20,3,ISIP_8,20,9999,9999,9999,2179901500
112,20,3,ISIP_8,21,9999,9999,9999,2180701236
112,20,3,ISIP_8,22,9999,9999,9999,2181502040
112,20,3,ISIP_8,23,9999,9999,9999,2182301776
112,20,3,ISIP_8,24,9999,9999,9999,2183101508
112,20,3,ISIP_8,25,9999,9999,9999,2183901240
112,20,3,ISIP_8,26,9999,9999,9999,2184702020
112,20,3,ISIP_8,27,9999,9999,9999,2185501752
112,20,3,ISIP_8,28,9999,9999,9999,2186301488
112,20,3,ISIP_8,29,9999,9999,9999,2187101296
112,20,3,ISIP_8,30,9999,9999,9999,2187902028
112,20,3,ISIP_8,31,9999,9999,9999,2188701756
112,20,3,ISIP_8,32,9999,9999,9999,2189501484
112,20,3,ISIP_8,33,9999,9999,9999,2190301288
112,20,3,ISIP_8,34,9999,9999,9999,2191102064
112,20,3,ISIP_8,35,9999,9999,9999,2191901792
112,20,3,ISIP_8,36,9999,9999,9999,2192701524
112,20,3,ISIP_8,37,9999,9999,9999,2193501252
112,20,3,ISIP_8,38,9999,9999,9999,2194302052
112,20,3,ISIP_8,39,9999,9999,9999,2195101784
112,20,3,ISIP_8,40,9999,9999,9999,2195901512
112,20,3,ISIP_8,41,9999,9999,9999,2196701240
112,20,3,ISIP_8,42,9999,9999,9999,2197502016
112,20,3,ISIP_8,43,9999,9999,9999,2198301744
112,20,3,ISIP_8,44,9999,9999,9999,2199101548
112,20,3,ISIP_8,45,9999,9999,9999,2199901276
112,20,3,ISIP_8,46,9999,9999,9999,2200702000
112,20,3,ISIP_8,47,9999,9999,9999,2201501804
112,20,3,ISIP_8,48,9999,9999,9999,2202301532
112,20,3,ISIP_8,49,9999,9999,9999,2203101264
112,20,3,ISIP_8,50,9999,9999,9999,2203902040
112,20,3,ISIP_8,51,9999,9999,9999,2204701768
112,20,3,ISIP_8,52,9999,9999,9999,2205501496
112,20,3,ISIP_8,53,9999,9999,9999,2206301300
112,20,3,ISIP_8,54,9999,9999,9999,2207102020
112,20,3,ISIP_8,55,9999,9999,9999,2207901748
112,20,3,ISIP_8,56,9999,9999,9999,2208701536
112,20,3,ISIP_8,57,9999,9999,9999,2209501268
112,20,3,ISIP_8,58,9999,9999,9999,2210302044
112,20,3,ISIP_8,59,9999,9999,9999,2211101776
112,20,3,ISIP_8,60,9999,9999,9999,2211901504
112,20,3,ISIP_8,61,9999,9999,9999,2212701236
112,20,3,ISIP_8,62,9999,9999,9999,2213502036
112,20,3,ISIP_8,63,9999,9999,9999,2214301764
112,20,3,ISIP_8,64,9999,9999,9999,2215101492
112,20,3,ISIP_8,65,9999,9999,9999,2215901296
112,20,3,ISIP_8,66,9999,9999,9999,2216702072
112,20,3,ISIP_8,67,9999,9999,9999,2217501792
112,20,3,ISIP_8,68,9999,9999,9999,2218301524
112,20,3,ISIP_8,69,9999,9999,9999,2219101240
112,20,3,ISIP_8,70,9999,9999,9999,2219902040
112,20,3,ISIP_8,71,9999,9999,9999,2220701768
112,20,3,ISIP_8,72,9999,9999,9999,2221501496
112,20,3,ISIP_8,73,9999,9999,9999,2222301304
112,20,3,ISIP_8,74,9999,9999,9999,2223102004
112,20,3,ISIP_8,75,9999,9999,9999,2223901808
112,20,3,ISIP_8,76,9999,9999,9999,2224701540
112,20,3,ISIP_8,77,9999,9999,9999,2225501260
112,20,3,ISIP_8,78,9999,9999,9999,2226302044
112,20,3,ISIP_8,79,9999,9999,9999,2227101776
112,20,3,ISIP_8,80,9999,9999,9999,2227901504
112,20,3,ISIP_8,81,9999,9999,9999,2228701236
112,20,3,ISIP_8,82,9999,9999,9999,2229502008
112,20,3,ISIP_8,83,9999,9999,9999,2230301812
112,20,3,ISIP_8,84,9999,9999,9999,2231101544
112,20,3,ISIP_8,85,9999,9999,9999,2231901268
112,20,3,ISIP_8,86,9999,9999,9999,2232702068
112,20,3,ISIP_8,87,9999,9999,9999,2233501780
112,20,3,ISIP_8,88,9999,9999,9999,2234301488
112,20,3,ISIP_8,89,9999,9999,9999,2235101292
112,20,3,ISIP_8,90,9999,9999,9999,2235902064
112,20,3,ISIP_8,91,9999,9999,9999,2236701796
112,20,3,ISIP_8,92,9999,9999,9999,2237501524
112,20,3,ISIP_8,93,9999,9999,9999,2238301252
112,20,3,ISIP_8,94,9999,9999,9999,2239102052
112,20,3,ISIP_8,95,9999,9999,9999,2239901780
112,20,3,ISIP_8,96,9999,9999,9999,2240701512
112,20,3,ISIP_8,97,9999,9999,9999,2241501240
112,20,3,ISIP_8,98,9999,9999,9999,2242302016
112,20,3,ISIP_8,99,9999,9999,9999,2243101744
112,20,3,ISIP_8,100,9999,9999,9999,2243901548
112,20,3,ISIP_8,101,9999,9999,9999,2244701276
112,20,3,ISIP_8,102,9999,9999,9999,2245502004
112,20,3,ISIP_8,103,9999,9999,9999,2246301800
112,20,3,ISIP_8,104,9999,9999,9999,2247101532
112,20,3,ISIP_8,105,9999,9999,9999,2247901260
112,20,3,ISIP_8,106,9999,9999,9999,2248702020
112,20,3,ISIP_8,107,9999,9999,9999,2249501748
112,20,3,ISIP_8,108,9999,9999,9999,2250301552
112,20,3,ISIP_8,109,9999,9999,9999,2251101280
112,20,3,ISIP_8,110,9999,9999,9999,2251902008
112,20,3,ISIP_8,111,9999,9999,9999,2252701812
112,20,3,ISIP_8,112,9999,9999,9999,2253501540
112,20,3,ISIP_8,113,9999,9999,9999,2254301268
112,20,3,ISIP_8,114,9999,9999,9999,2255102044
112,20,3,ISIP_8,115,9999,9999,9999,2255901776
112,20,3,ISIP_8,116,9999,9999,9999,2256701504
112,20,3,ISIP_8,117,9999,9999,9999,2257501236
112,20,3,ISIP_8,118,9999,9999,9999,2258302016
112,20,3,ISIP_8,119,9999,9999,9999,2259101744
112,20,3,ISIP_8,120,9999,9999,9999,2259901548
112,20,3,ISIP_8,121,9999,9999,9999,2260701276
112,20,3,ISIP_8,122,9999,9999,9999,2261502052
112,20,3,ISIP_8,123,9999,9999,9999,2262301776
112,20,3,ISIP_8,124,9999,9999,9999,2263101492
112,20,3,ISIP_8,125,9999,9999,9999,2263901296
112,20,3,ISIP_8,126,9999,9999,9999,2264702020
112,20,3,ISIP_8,127,9999,9999,9999,2265501748
112,20,3,ISIP_8,128,9999,9999,9999,2266301548
112,20,3,ISIP_8,129,9999,9999,9999,2267101260
112,20,3,ISIP_8,130,9999,9999,9999,2267902036
112,20,3,ISIP_8,131,9999,9999,9999,2268701768
112,20,3,ISIP_8,132,9999,9999,9999,2269501488
112,20,3,ISIP_8,133,9999,9999,9999,2270301276
112,20,3,ISIP_8,134,9999,9999,9999,2271102004
112,20,3,ISIP_8,135,9999,9999,9999,2271901808
112,20,3,ISIP_8,136,9999,9999,9999,2272701540
112,20,3,ISIP_8,137,9999,9999,9999,2273501268
112,20,3,ISIP_8,138,9999,9999,9999,2274302036
112,20,3,ISIP_8,139,9999,9999,9999,2275101752
112,20,3,ISIP_8,140,9999,9999,9999,2275901556
112,20,3,ISIP_8,141,9999,9999,9999,2276701284
112,20,3,ISIP_8,142,9999,9999,9999,2277502012
112,20,3,ISIP_8,143,9999,9999,9999,2278301816
112,20,3,ISIP_8,144,9999,9999,9999,2279101544
112,20,3,ISIP_8,145,9999,9999,9999,2279901272
112,20,3,ISIP_8,146,9999,9999,9999,2280702048
112,20,3,ISIP_8,147,9999,9999,9999,2281501776
112,20,3,ISIP_8,148,9999,9999,9999,2282301508
112,20,3,ISIP_8,149,9999,9999,9999,2283101240
112,21,5,ISIP_5,0,5,42,127,2307437092
112,21,5,ISIP_5,1,5,42,127,2307936664
112,21,5,ISIP_5,2,5,42,127,2308437276
112,21,5,ISIP_5,3,5,42,127,2308936992
112,21,5,ISIP_5,4,5,42,127,2309437004
112,21,5,ISIP_5,5,1,48,58,2309441624
112,21,5,ISIP_5,6,5,42,127,2309936476
112,21,5,ISIP_5,7,1,48,49,2309970412
112,21,5,ISIP_5,8,5,42,127,2310437220
112,21,5,ISIP_5,9,1,48,43,2310453652
112,21,5,ISIP_5,10,1,48,47,2310935856
112,21,5,ISIP_5,11,5,42,127,2310937352
112,21,5,ISIP_5,12,5,42,127,2311436904
112,21,5,ISIP_5,13,1,48,43,2311438768
112,21,5,ISIP_5,14,1,48,49,2311915164
112,21,5,ISIP_5,15,5,42,127,2311937340
112,21,5,ISIP_5,16,1,48,46,2312415684
112,21,5,ISIP_5,17,5,42,127,2312437108
112,21,5,ISIP_5,18,1,48,46,2312894432
112,21,5,ISIP_5,19,5,42,127,2312937028
112,21,5,ISIP_5,20,1,48,50,2313401908
112,21,5,ISIP_5,21,5,42,127,2313436576
112,21,5,ISIP_5,22,1,48,51,2313893448
112,21,5,ISIP_5,23,5,42,127,2313937316
112,21,5,ISIP_5,24,1,48,49,2314396140
112,21,5,ISIP_5,25,5,42,127,2314437012
112,21,5,ISIP_5,26,1,48,51,2314893964
112,21,5,ISIP_5,27,5,42,127,2314936856
112,21,5,ISIP_5,28,1,48,55,2315372992
112,21,5,ISIP_5,29,5,42,127,2315437376
112,21,5,ISIP_5,30,1,48,51,2315862884
112,21,5,ISIP_5,31,5,42,127,2315936996
112,21,5,ISIP_5,32,1,48,52,2316382480
112,21,5,ISIP_5,33,5,42,127,2316436988
112,21,5,ISIP_5,34,1,48,55,2316863700
112,21,5,ISIP_5,35,5,42,127,2316936832
112,21,5,ISIP_5,36,1,48,54,2317371092
112,21,5,ISIP_5,37,5,42,127,2317437276
112,21,5,ISIP_5,38,1,48,52,2317885000
112,21,5,ISIP_5,39,5,42,127,2317936944
112,21,5,ISIP_5,40,1,48,50,2318393676
112,21,5,ISIP_5,41,5,42,127,2318436940
112,21,5,ISIP_5,42,1,48,51,2318891124
112,21,5,ISIP_5,43,5,42,127,2318936412
112,21,5,ISIP_5,44,1,48,57,2319385960
112,21,5,ISIP_5,45,5,42,127,2319437228
112,21,5,ISIP_5,46,1,48,54,2319903908
112,21,5,ISIP_5,47,5,42,127,2319936924
112,21,5,ISIP_5,48,1,48,48,2320434504
112,21,5,ISIP_5,49,5,42,127,2320436768
112,21,5,ISIP_5,50,5,42,127,2320937292
112,21,5,ISIP_5,51,1,48,57,2320961500
112,21,5,ISIP_5,52,1,48,49,2321428792
112,21,5,ISIP_5,53,5,42,127,2321437052
112,21,5,ISIP_5,54,1,48,56,2321913376
112,21,5,ISIP_5,55,5,42,127,2321936972
112,21,5,ISIP_5,56,1,48,54,2322381656
112,21,5,ISIP_5,57,5,42,127,2322436520
112,21,5,ISIP_5,58,1,48,46,2322885388
112,21,5,ISIP_5,59,5,42,127,2322937184
112,21,5,ISIP_5,60,1,48,51,2323385388
112,21,5,ISIP_5,61,5,42,127,2323436956
112,21,5,ISIP_5,62,1,48,62,2323893756
112,21,5,ISIP_5,63,5,42,127,2323936728
112,21,5,ISIP_5,64,1,48,54,2324398012
112,21,5,ISIP_5,65,5,42,127,2324437320
112,21,5,ISIP_5,66,1,48,54,2324889636
112,21,5,ISIP_5,67,5,42,127,2324937016
112,21,5,ISIP_5,68,1,48,59,2325411764
112,21,5,ISIP_5,69,5,42,127,2325436712
112,21,5,ISIP_5,70,1,48,45,2325935124
112,21,5,ISIP_5,71,5,42,127,2325936628
112,21,5,ISIP_5,72,1,48,54,2326422828
112,21,5,ISIP_5,73,5,42,127,2326437148
112,21,5,ISIP_5,74,1,48,50,2326898936
112,21,5,ISIP_5,75,5,42,127,2326936892
112,21,5,ISIP_5,76,1,48,54,2327394416
112,21,5,ISIP_5,77,1,48,49,2327942912
112,21,5,ISIP_5,78,1,48,49,2328440804
112,21,5,ISIP_5,79,1,48,43,2328971088
112,21,5,ISIP_5,80,1,48,55,2329459336
112,21,5,ISIP_5,81,1,48,48,2329990220
112,21,5,ISIP_5,82,1,48,57,2330503304
112,21,5,ISIP_5,83,1,48,49,2331015408
112,21,5,ISIP_5,84,1,48,52,2331543072
112,21,5,ISIP_5,85,1,48,52,2332048896
112,21,5,ISIP_5,86,1,48,46,2332579772
112,21,5,ISIP_5,87,1,48,54,2333105576
112,21,5,ISIP_5,88,1,48,51,2333607580
112,21,5,ISIP_5,89,1,48,56,2334120288
112,21,5,ISIP_5,90,1,48,51,2334638972
112,21,5,ISIP_5,91,1,48,56,2335137396
112,21,5,ISIP_5,92,1,48,54,2335673888
112,21,5,ISIP_5,93,1,48,59,2336215688
112,21,5,ISIP_5,94,1,48,48,2336725104
112,21,5,ISIP_5,95,1,48,58,2337259948
112,21,5,ISIP_5,96,1,48,52,2337804892
112,21,5,ISIP_5,97,1,48,56,2338326048
112,21,5,ISIP_5,98,1,48,55,2338862836
112,21,5,ISIP_5,99,1,48,52,2339403368
112,21,5,ISIP_5,100,1,48,58,2339925424
112,21,5,ISIP_5,101,1,48,57,2340466660
112,21,5,ISIP_5,102,1,48,52,2340981240
112,21,5,ISIP_5,103,1,48,49,2341509052
112,21,5,ISIP_5,104,1,48,58,2342008592
112,21,5,ISIP_5,105,1,48,55,2342524148
112,21,5,ISIP_5,106,1,48,58,2343031684
112,21,5,ISIP_5,107,1,48,55,2343547608
112,21,5,ISIP_5,108,1,48,49,2344032468
112,21,5,ISIP_5,109,1,48,56,2344548464
112,21,5,ISIP_5,110,1,48,40,2345066028
112,21,5,ISIP_5,111,1,48,46,2345599476
112,21,5,ISIP_5,112,1,48,57,2346115996
112,21,5,ISIP_5,113,1,48,49,2346636856
112,21,5,ISIP_5,114,1,48,54,2347167512
112,21,5,ISIP_5,115,1,48,41,2347664208
112,21,5,ISIP_5,116,1,48,50,2348195464
112,21,5,ISIP_5,117,1,48,46,2348685956
112,21,5,ISIP_5,118,1,48,47,2349187816
112,21,5,ISIP_5,119,1,48,43,2349674916
112,21,5,ISIP_5,120,1,48,41,2350188068
112,21,5,ISIP_5,121,1,48,54,2350699352
112,21,5,ISIP_5,122,1,48,53,2351221136
112,21,5,ISIP_5,123,1,48,45,2351732268
112,21,5,ISIP_5,124,1,48,41,2352236724
112,21,5,ISIP_5,125,1,48,46,2352775108
112,21,5,ISIP_5,126,1,48,46,2353281904
112,21,5,ISIP_5,127,1,48,48,2353799400
112,21,5,ISIP_5,128,1,48,53,2354346140
112,21,5,ISIP_5,129,1,48,37,2354850164
112,21,5,ISIP_5,130,1,48,43,2355351656
112,21,5,ISIP_5,131,1,48,53,2355855756
112,21,5,ISIP_5,132,1,48,49,2356358588
112,21,5,ISIP_5,133,1,48,45,2356846580
112,21,5,ISIP_5,134,1,48,50,2357320920
112,21,5,ISIP_5,135,1,48,40,2357803480
112,21,5,ISIP_5,136,1,48,45,2358279384
112,21,5,ISIP_5,137,1,48,48,2358814528
112,21,5,ISIP_5,138,1,48,46,2359308684
112,21,5,ISIP_5,139,1,48,44,2359806728
112,21,5,ISIP_5,140,1,48,38,2360308288
112,21,5,ISIP_5,141,1,48,51,2360786588
112,21,5,ISIP_5,142,1,48,54,2361285304
112,21,5,ISIP_5,143,1,48,44,2361801152
112,21,5,ISIP_5,144,1,48,52,2362302412
112,21,5,ISIP_5,145,1,48,52,2362811756
112,21,5,ISIP_5,146,1,48,52,2363322212
112,21,5,ISIP_5,147,1,48,49,2363836192
112,21,5,ISIP_5,148,1,48,52,2364345904
112,21,5,ISIP_5,149,1,48,46,2364855168
112,21,5,ISIP_5,150,1,48,48,2365322020
112,21,5,ISIP_5,151,1,48,46,2365831216
112,21,5,ISIP_5,152,1,48,53,2366302156
112,21,5,ISIP_5,153,1,48,41,2366794820
112,21,5,ISIP_5,154,1,48,45,2367279096
112,21,5,ISIP_5,155,1,48,50,2367758144
112,21,5,ISIP_5,156,1,48,49,2368238688
112,21,5,ISIP_5,157,1,48,46,2368714440
112,21,5,ISIP_5,158,1,48,46,2369221088
112,21,5,ISIP_5,159,1,48,48,2369743968
112,21,5,ISIP_5,160,1,48,51,2370243356
112,21,5,ISIP_5,161,1,48,46,2370765116
112,21,5,ISIP_5,162,1,48,47,2371278640
112,21,5,ISIP_5,163,1,48,41,2371807728
112,21,5,ISIP_5,164,1,48,40,2372333976
112,21,5,ISIP_5,165,1,48,51,2372839048
112,21,5,ISIP_5,166,1,48,47,2373329020
112,21,5,ISIP_5,167,1,48,46,2373814120
112,21,5,ISIP_5,168,1,48,49,2374297132
112,21,5,ISIP_5,169,1,48,48,2374772588
112,21,5,ISIP_5,170,1,48,45,2375248616
112,21,5,ISIP_5,171,1,48,34,2375758108
112,21,5,ISIP_5,172,1,48,42,2376225408
112,21,5,ISIP_5,173,1,48,43,2376702064
112,21,5,ISIP_5,174,1,48,45,2377191280
112,21,5,ISIP_5,175,1,48,43,2377664044
112,21,5,ISIP_5,176,1,48,45,2378148696
112,21,5,ISIP_5,177,1,48,44,2378616824
112,21,5,ISIP_5,178,1,48,45,2379089712
112,21,5,ISIP_5,179,1,48,40,2379592024
112,21,5,ISIP_5,180,1,48,45,2380118196
112,21,5,ISIP_5,181,1,48,47,2380631272
112,21,5,ISIP_5,182,1,48,46,2381174820
112,21,5,ISIP_5,183,1,48,44,2381729112
112,21,5,ISIP_5,184,1,48,40,2382304944
112,21,5,ISIP_5,185,1,48,39,2382847048
112,21,5,ISIP_5,186,1,48,39,2383389148
112,21,5,ISIP_5,187,1,48,43,2383950408
112,21,5,ISIP_5,188,1,48,41,2384524024
112,21,5,ISIP_5,189,1,48,43,2385100308
112,21,5,ISIP_5,190,1,48,43,2385634784
112,21,5,ISIP_5,191,1,48,41,2386189748
112,21,5,ISIP_5,192,1,48,43,2386789968
112,21,5,ISIP_5,193,1,48,47,2387343012
112,21,5,ISIP_5,0,9999,9999,9999,2307434584
112,21,5,ISIP_5,1,9999,9999,9999,2307934300
112,21,5,ISIP_5,2,9999,9999,9999,2308435060
112,21,5,ISIP_5,3,9999,9999,9999,2308934704
112,21,5,ISIP_5,4,9999,9999,9999,2309434420
112,21,5,ISIP_5,5,9999,9999,9999,2309934188
112,21,5,ISIP_5,6,9999,9999,9999,2310434932
112,21,5,ISIP_5,7,9999,9999,9999,2310934624
112,21,5,ISIP_5,8,9999,9999,9999,2311434320
112,21,5,ISIP_5,9,9999,9999,9999,2311935056
112,21,5,ISIP_5,10,9999,9999,9999,2312434748
112,21,5,ISIP_5,11,9999,9999,9999,2312934516
112,21,5,ISIP_5,12,9999,9999,9999,2313434212
112,21,5,ISIP_5,13,9999,9999,9999,2313934956
112,21,5,ISIP_5,14,9999,9999,9999,2314434648
112,21,5,ISIP_5,15,9999,9999,9999,2314934348
112,21,5,ISIP_5,16,9999,9999,9999,2315435088
112,21,5,ISIP_5,17,9999,9999,9999,2315934784
112,21,5,ISIP_5,18,9999,9999,9999,2316434552
112,21,5,ISIP_5,19,9999,9999,9999,2316934248
112,21,5,ISIP_5,20,9999,9999,9999,2317434988
112,21,5,ISIP_5,21,9999,9999,9999,2317934656
112,21,5,ISIP_5,22,9999,9999,9999,2318434352
112,21,5,ISIP_5,23,9999,9999,9999,2318934124
112,21,5,ISIP_5,24,9999,9999,9999,2319434864
112,21,5,ISIP_5,25,9999,9999,9999,2319934564
112,21,5,ISIP_5,26,9999,9999,9999,2320434292
112,21,5,ISIP_5,27,9999,9999,9999,2320935004
112,21,5,ISIP_5,28,9999,9999,9999,2321434692
112,21,5,ISIP_5,29,9999,9999,9999,2321934388
112,21,5,ISIP_5,30,9999,9999,9999,2322434156
112,21,5,ISIP_5,31,9999,9999,9999,2322934896
112,21,5,ISIP_5,32,9999,9999,9999,2323434596
112,21,5,ISIP_5,33,9999,9999,9999,2323934292
112,21,5,ISIP_5,34,9999,9999,9999,2324435032
112,21,5,ISIP_5,35,9999,9999,9999,2324934728
112,21,5,ISIP_5,36,9999,9999,9999,2325434424
112,21,5,ISIP_5,37,9999,9999,9999,2325934200
112,21,5,ISIP_5,38,9999,9999,9999,2326434932
112,21,5,ISIP_5,39,9999,9999,9999,2326934604
112,21,5,ISIP_5,40,9999,9999,9999,2327434300
112,21,5,ISIP_5,41,9999,9999,9999,2327935044
112,21,5,ISIP_5,42,9999,9999,9999,2328434808
112,21,5,ISIP_5,43,9999,9999,9999,2328934472
112,21,5,ISIP_5,44,9999,9999,9999,2329434164
112,21,5,ISIP_5,45,9999,9999,9999,2329934900
112,21,5,ISIP_5,46,9999,9999,9999,2330434668
112,21,5,ISIP_5,47,9999,9999,9999,2330934360
112,21,5,ISIP_5,48,9999,9999,9999,2331435100
112,21,5,ISIP_5,49,9999,9999,9999,2331934788
112,21,5,ISIP_5,50,9999,9999,9999,2332434552
112,21,5,ISIP_5,51,9999,9999,9999,2332934244
112,21,5,ISIP_5,52,9999,9999,9999,2333434980
112,21,5,ISIP_5,53,9999,9999,9999,2333934672
112,21,5,ISIP_5,54,9999,9999,9999,2334434364
112,21,5,ISIP_5,55,9999,9999,9999,2334934128
112,21,5,ISIP_5,56,9999,9999,9999,2335434868
112,21,5,ISIP_5,57,9999,9999,9999,2335934560
112,21,5,ISIP_5,58,9999,9999,9999,2336434248
112,21,5,ISIP_5,59,9999,9999,9999,2336934988
112,21,5,ISIP_5,60,9999,9999,9999,2337434676
112,21,5,ISIP_5,61,9999,9999,9999,2337934440
112,21,5,ISIP_5,62,9999,9999,9999,2338434132
112,21,5,ISIP_5,63,9999,9999,9999,2338934884
112,21,5,ISIP_5,64,9999,9999,9999,2339434548
112,21,5,ISIP_5,65,9999,9999,9999,2339934316
112,21,5,ISIP_5,66,9999,9999,9999,2340435056
112,21,5,ISIP_5,67,9999,9999,9999,2340934748
112,21,5,ISIP_5,68,9999,9999,9999,2341434440
112,21,5,ISIP_5,69,9999,9999,9999,2341934128
112,21,5,ISIP_5,70,9999,9999,9999,2342434868
112,21,5,ISIP_5,71,9999,9999,9999,2342934632
112,21,5,ISIP_5,72,9999,9999,9999,2343434324
112,21,5,ISIP_5,73,9999,9999,9999,2343935064
112,21,5,ISIP_5,74,9999,9999,9999,2344434752
112,21,5,ISIP_5,75,9999,9999,9999,2344934516
112,21,5,ISIP_5,76,9999,9999,9999,2345434208
112,21,5,ISIP_5,77,9999,9999,9999,2345934944
112,21,5,ISIP_5,78,9999,9999,9999,2346434636
112,21,5,ISIP_5,79,9999,9999,9999,2346934328
112,21,5,ISIP_5,80,9999,9999,9999,2347435064
112,21,5,ISIP_5,81,9999,9999,9999,2347934828
112,21,5,ISIP_5,82,9999,9999,9999,2348434520
112,21,5,ISIP_5,83,9999,9999,9999,2348934212
112,21,5,ISIP_5,84,9999,9999,9999,2349434948
112,21,5,ISIP_5,85,9999,9999,9999,2349934688
112,21,5,ISIP_5,86,9999,9999,9999,2350434380
112,21,5,ISIP_5,87,9999,9999,9999,2350934068
112,21,5,ISIP_5,88,9999,9999,9999,2351434808
112,21,5,ISIP_5,89,9999,9999,9999,2351934572
112,21,5,ISIP_5,90,9999,9999,9999,2352434264
112,21,5,ISIP_5,91,9999,9999,9999,2352935004
112,21,5,ISIP_5,92,9999,9999,9999,2353434692
112,21,5,ISIP_5,93,9999,9999,9999,2353934384
112,21,5,ISIP_5,94,9999,9999,9999,2354434164
112,21,5,ISIP_5,95,9999,9999,9999,2354934904
112,21,5,ISIP_5,96,9999,9999,9999,2355434592
112,21,5,ISIP_5,97,9999,9999,9999,2355934284
112,21,5,ISIP_5,98,9999,9999,9999,2356435020
112,21,5,ISIP_5,99,9999,9999,9999,2356934712
112,21,5,ISIP_5,100,9999,9999,9999,2357434460
112,21,5,ISIP_5,101,9999,9999,9999,2357934152
112,21,5,ISIP_5,102,9999,9999,9999,2358434888
112,21,5,ISIP_5,103,9999,9999,9999,2358934580
112,21,5,ISIP_5,104,9999,9999,9999,2359434344
112,21,5,ISIP_5,105,9999,9999,9999,2359935084
112,21,5,ISIP_5,106,9999,9999,9999,2360434772
112,21,5,ISIP_5,107,9999,9999,9999,2360934512
112,21,5,ISIP_5,108,9999,9999,9999,2361434204
112,21,5,ISIP_5,109,9999,9999,9999,2361934940
112,21,5,ISIP_5,110,9999,9999,9999,2362434632
112,21,5,ISIP_5,111,9999,9999,9999,2362934324
112,21,5,ISIP_5,112,9999,9999,9999,2363435060
112,21,5,ISIP_5,113,9999,9999,9999,2363934840
112,21,5,ISIP_5,114,9999,9999,9999,2364434532
112,21,5,ISIP_5,115,9999,9999,9999,2364934224
112,21,5,ISIP_5,116,9999,9999,9999,2365434944
112,21,5,ISIP_5,117,9999,9999,9999,2365934708
112,21,5,ISIP_5,118,9999,9999,9999,2366434400
112,21,5,ISIP_5,119,9999,9999,9999,2366934092
112,21,5,ISIP_5,120,9999,9999,9999,2367434828
112,21,5,ISIP_5,121,9999,9999,9999,2367934520
112,21,5,ISIP_5,122,9999,9999,9999,2368434284
112,21,5,ISIP_5,123,9999,9999,9999,2368935020
112,21,5,ISIP_5,124,9999,9999,9999,2369434712
112,21,5,ISIP_5,125,9999,9999,9999,2369934404
112,21,5,ISIP_5,126,9999,9999,9999,2370434168
112,21,5,ISIP_5,127,9999,9999,9999,2370934832
112,21,5,ISIP_5,128,9999,9999,9999,2371434572
112,21,5,ISIP_5,129,9999,9999,9999,2371934264
112,21,5,ISIP_5,130,9999,9999,9999,2372435000
112,21,5,ISIP_5,131,9999,9999,9999,2372934708
112,21,5,ISIP_5,132,9999,9999,9999,2373434456
112,21,5,ISIP_5,133,9999,9999,9999,2373934148
112,21,5,ISIP_5,134,9999,9999,9999,2374434888
112,21,5,ISIP_5,135,9999,9999,9999,2374934576
112,21,5,ISIP_5,136,9999,9999,9999,2375434344
112,21,5,ISIP_5,137,9999,9999,9999,2375935080
112,21,5,ISIP_5,138,9999,9999,9999,2376434768
112,21,5,ISIP_5,139,9999,9999,9999,2376934460
112,21,5,ISIP_5,140,9999,9999,9999,2377434224
112,21,5,ISIP_5,141,9999,9999,9999,2377934960
112,21,5,ISIP_5,142,9999,9999,9999,2378434652
112,21,5,ISIP_5,143,9999,9999,9999,2378934344
112,21,5,ISIP_5,144,9999,9999,9999,2379435084
112,21,5,ISIP_5,145,9999,9999,9999,2379934772
112,21,5,ISIP_5,146,9999,9999,9999,2380434536
112,21,5,ISIP_5,147,9999,9999,9999,2380934228
112,21,5,ISIP_5,148,9999,9999,9999,2381434964
112,21,5,ISIP_5,149,9999,9999,9999,2381934704
112,21,5,ISIP_5,150,9999,9999,9999,2382434396
112,21,5,ISIP_5,151,9999,9999,9999,2382934100
112,21,5,ISIP_5,152,9999,9999,9999,2383434840
112,21,5,ISIP_5,153,9999,9999,9999,2383934536
112,21,5,ISIP_5,154,9999,9999,9999,2384434228
112,21,5,ISIP_5,155,9999,9999,9999,2384934964
112,21,5,ISIP_5,156,9999,9999,9999,2385434732
112,21,5,ISIP_5,157,9999,9999,9999,2385934424
112,21,5,ISIP_5,158,9999,9999,9999,2386434112
112,21,5,ISIP_5,159,9999,9999,9999,2386934852
112,22,11,Pattern_Practice,0,5,42,127,2467259776
112,22,11,Pattern_Practice,1,5,42,127,2467759640
112,22,11,Pattern_Practice,2,5,42,127,2468260256
112,22,11,Pattern_Practice,3,5,42,127,2468759972
112,22,11,Pattern_Practice,4,1,48,57,2469252620
112,22,11,Pattern_Practice,5,5,42,127,2469259684
112,22,11,Pattern_Practice,6,1,38,48,2469701052
112,22,11,Pattern_Practice,7,5,42,127,2469760576
112,22,11,Pattern_Practice,8,1,48,58,2470173444
112,22,11,Pattern_Practice,9,5,42,127,2470260044
112,22,11,Pattern_Practice,10,1,48,63,2470723628
112,22,11,Pattern_Practice,11,5,42,127,2470759712
112,22,11,Pattern_Practice,12,1,38,54,2471201408
112,22,11,Pattern_Practice,13,5,42,127,2471259632
112,22,11,Pattern_Practice,14,1,48,54,2471675892
112,22,11,Pattern_Practice,15,5,42,127,2471760224
112,22,11,Pattern_Practice,16,1,38,53,2472155396
112,22,11,Pattern_Practice,17,5,42,127,2472259904
112,22,11,Pattern_Practice,18,1,48,62,2472601456
112,22,11,Pattern_Practice,19,5,42,127,2472759524
112,22,11,Pattern_Practice,20,1,38,59,2473122692
112,22,11,Pattern_Practice,21,5,42,127,2473260636
112,22,11,Pattern_Practice,22,1,48,55,2473617224
112,22,11,Pattern_Practice,23,5,42,127,2473760032
112,22,11,Pattern_Practice,24,1,38,36,2474117444
112,22,11,Pattern_Practice,25,5,42,127,2474259800
112,22,11,Pattern_Practice,26,1,38,65,2474602752
112,22,11,Pattern_Practice,27,5,42,127,2474759644
112,22,11,Pattern_Practice,28,1,38,53,2475087856
112,22,11,Pattern_Practice,29,5,42,127,2475260460
112,22,11,Pattern_Practice,30,1,38,59,2475552852
112,22,11,Pattern_Practice,31,5,42,127,2475759856
112,22,11,Pattern_Practice,32,1,38,65,2476055456
112,22,11,Pattern_Practice,33,5,42,127,2476259704
112,22,11,Pattern_Practice,34,1,38,70,2476595472
112,22,11,Pattern_Practice,35,5,42,127,2476760592
112,22,11,Pattern_Practice,36,1,38,24,2477024032
112,22,11,Pattern_Practice,37,5,42,127,2477260508
112,22,11,Pattern_Practice,38,1,48,60,2477516176
112,22,11,Pattern_Practice,39,5,42,127,2477759760
112,22,11,Pattern_Practice,40,1,38,63,2477960296
112,22,11,Pattern_Practice,41,5,42,127,2478259528
112,22,11,Pattern_Practice,42,1,38,56,2478469112
112,22,11,Pattern_Practice,43,5,42,127,2478760420
112,22,11,Pattern_Practice,44,1,38,59,2478875284
112,22,11,Pattern_Practice,45,5,42,127,2479259892
112,22,11,Pattern_Practice,46,1,38,51,2479370424
112,22,11,Pattern_Practice,47,5,42,127,2479759660
112,22,11,Pattern_Practice,48,1,38,60,2479817232
112,22,11,Pattern_Practice,49,5,42,127,2480259504
112,22,11,Pattern_Practice,50,1,38,67,2480286040
112,22,11,Pattern_Practice,51,1,38,56,2480732656
112,22,11,Pattern_Practice,52,5,42,127,2480760316
112,22,11,Pattern_Practice,53,1,48,66,2481177076
112,22,11,Pattern_Practice,54,5,42,127,2481259860
112,22,11,Pattern_Practice,55,1,38,56,2481672952
112,22,11,Pattern_Practice,56,5,42,127,2481759528
112,22,11,Pattern_Practice,57,1,38,67,2482105252
112,22,11,Pattern_Practice,58,5,42,127,2482260476
112,22,11,Pattern_Practice,59,1,38,68,2482556184
112,22,11,Pattern_Practice,60,1,38,30,2482606796
112,22,11,Pattern_Practice,61,5,42,127,2482760152
112,22,11,Pattern_Practice,62,1,38,66,2483012368
112,22,11,Pattern_Practice,63,5,42,127,2483259696
112,22,11,Pattern_Practice,64,1,38,73,2483441308
112,22,11,Pattern_Practice,65,5,42,127,2483759464
112,22,11,Pattern_Practice,66,1,48,73,2483895224
112,22,11,Pattern_Practice,67,5,42,127,2484260132
112,22,11,Pattern_Practice,68,1,38,62,2484305140
112,22,11,Pattern_Practice,69,1,38,80,2484659856
112,22,11,Pattern_Practice,70,5,42,127,2484760028
112,22,11,Pattern_Practice,71,1,38,61,2485058324
112,22,11,Pattern_Practice,72,1,38,33,2485119512
112,22,11,Pattern_Practice,73,5,42,127,2485259552
112,22,11,Pattern_Practice,74,1,38,68,2485400772
112,22,11,Pattern_Practice,75,1,38,63,2485752028
112,22,11,Pattern_Practice,76,5,42,127,2485760364
112,22,11,Pattern_Practice,77,1,38,33,2485805280
112,22,11,Pattern_Practice,78,1,48,83,2486160744
112,22,11,Pattern_Practice,79,5,42,127,2486259944
112,22,11,Pattern_Practice,80,1,38,64,2486557120
112,22,11,Pattern_Practice,81,5,42,127,2486759716
112,22,11,Pattern_Practice,82,1,38,63,2486931976
112,22,11,Pattern_Practice,83,5,42,127,2487259488
112,22,11,Pattern_Practice,84,1,38,62,2487304116
112,22,11,Pattern_Practice,85,5,42,127,2487760300
112,22,11,Pattern_Practice,86,1,48,69,2487772400
112,22,11,Pattern_Practice,87,1,38,65,2488149976
112,22,11,Pattern_Practice,88,5,42,127,2488259824
112,22,11,Pattern_Practice,89,1,38,67,2488582580
112,22,11,Pattern_Practice,90,5,42,127,2488759520
112,22,11,Pattern_Practice,91,1,38,70,2489071352
112,22,11,Pattern_Practice,92,5,42,127,2489260264
112,22,11,Pattern_Practice,93,1,48,84,2489622884
112,22,11,Pattern_Practice,94,5,42,127,2489760180
112,22,11,Pattern_Practice,95,1,38,61,2490084360
112,22,11,Pattern_Practice,96,5,42,127,2490260024
112,22,11,Pattern_Practice,97,1,48,84,2490575300
112,22,11,Pattern_Practice,98,5,42,127,2490759420
112,22,11,Pattern_Practice,99,1,48,62,2491022108
112,22,11,Pattern_Practice,100,5,42,127,2491260312
112,22,11,Pattern_Practice,101,1,48,60,2491495904
112,22,11,Pattern_Practice,102,5,42,127,2491760080
112,22,11,Pattern_Practice,103,1,48,70,2492027188
112,22,11,Pattern_Practice,104,5,42,127,2492259676
112,22,11,Pattern_Practice,105,1,48,79,2492572204
112,22,11,Pattern_Practice,106,5,42,127,2492760492
112,22,11,Pattern_Practice,107,1,48,58,2493024460
112,22,11,Pattern_Practice,108,5,42,127,2493260260
112,22,11,Pattern_Practice,109,1,48,66,2493512556
112,22,11,Pattern_Practice,110,5,42,127,2493759732
112,22,11,Pattern_Practice,111,1,48,60,2494048752
112,22,11,Pattern_Practice,112,5,42,127,2494259576
112,22,11,Pattern_Practice,113,1,48,71,2494602700
112,22,11,Pattern_Practice,114,5,42,127,2494760244
112,22,11,Pattern_Practice,115,1,48,70,2495134408
112,22,11,Pattern_Practice,116,5,42,127,2495260088
112,22,11,Pattern_Practice,117,1,38,85,2495666040
112,22,11,Pattern_Practice,118,5,42,127,2495759632
112,22,11,Pattern_Practice,119,1,38,64,2496173068
112,22,11,Pattern_Practice,120,5,42,127,2496259344
112,22,11,Pattern_Practice,121,1,38,74,2496722356
112,22,11,Pattern_Practice,122,5,42,127,2496760160
112,22,11,Pattern_Practice,123,1,38,55,2497231100
112,22,11,Pattern_Practice,124,5,42,127,2497259852
112,22,11,Pattern_Practice,125,1,38,56,2497726080
112,22,11,Pattern_Practice,126,5,42,127,2497759548
112,22,11,Pattern_Practice,127,1,38,64,2498230184
112,22,11,Pattern_Practice,128,5,42,127,2498260288
112,22,11,Pattern_Practice,129,1,48,77,2498721580
112,22,11,Pattern_Practice,130,5,42,127,2498759984
112,22,11,Pattern_Practice,131,1,38,58,2499210732
112,22,11,Pattern_Practice,132,5,42,127,2499259680
112,22,11,Pattern_Practice,133,1,48,69,2499688036
112,22,11,Pattern_Practice,134,5,42,127,2499759376
112,22,11,Pattern_Practice,135,1,38,57,2500176136
112,22,11,Pattern_Practice,136,5,42,127,2500260116
112,22,11,Pattern_Practice,137,1,38,77,2500658328
112,22,11,Pattern_Practice,138,5,42,127,2500760020
112,22,11,Pattern_Practice,139,1,38,65,2501142460
112,22,11,Pattern_Practice,140,5,42,127,2501259488
112,22,11,Pattern_Practice,141,1,38,77,2501672672
112,22,11,Pattern_Practice,142,5,42,127,2501760620
112,22,11,Pattern_Practice,143,1,38,77,2502180592
112,22,11,Pattern_Practice,144,5,42,127,2502260012
112,22,11,Pattern_Practice,145,1,38,71,2502669520
112,22,11,Pattern_Practice,146,5,42,127,2502759980
112,22,11,Pattern_Practice,147,1,38,61,2503173076
112,22,11,Pattern_Practice,148,1,38,32,2503236556
112,22,11,Pattern_Practice,149,5,42,127,2503259408
112,22,11,Pattern_Practice,150,1,38,71,2503704616
112,22,11,Pattern_Practice,151,5,42,127,2503760224
112,22,11,Pattern_Practice,152,1,38,59,2504179104
112,22,11,Pattern_Practice,153,5,42,127,2504260216
112,22,11,Pattern_Practice,154,1,48,86,2504682160
112,22,11,Pattern_Practice,155,5,42,127,2504759688
112,22,11,Pattern_Practice,156,1,38,64,2505147076
112,22,11,Pattern_Practice,157,5,42,127,2505260340
112,22,11,Pattern_Practice,158,1,38,88,2505629416
112,22,11,Pattern_Practice,159,5,42,127,2505760180
112,22,11,Pattern_Practice,160,1,38,65,2506089968
112,22,11,Pattern_Practice,161,1,38,24,2506163548
112,22,11,Pattern_Practice,162,5,42,127,2506260068
112,22,11,Pattern_Practice,163,1,38,57,2506584380
112,22,11,Pattern_Practice,164,5,42,127,2506759448
112,22,11,Pattern_Practice,165,1,38,65,2507037924
112,22,11,Pattern_Practice,0,9999,9999,9999,2467257416
112,22,11,Pattern_Practice,1,9999,9999,9999,2467757132
112,22,11,Pattern_Practice,2,9999,9999,9999,2468257896
112,22,11,Pattern_Practice,3,9999,9999,9999,2468757612
112,22,11,Pattern_Practice,4,9999,9999,9999,2469257324
112,22,11,Pattern_Practice,5,9999,9999,9999,2469758064
112,22,11,Pattern_Practice,6,9999,9999,9999,2470257756
112,22,11,Pattern_Practice,7,9999,9999,9999,2470757428
112,22,11,Pattern_Practice,8,9999,9999,9999,2471257196
112,22,11,Pattern_Practice,9,9999,9999,9999,2471757936
112,22,11,Pattern_Practice,10,9999,9999,9999,2472257616
112,22,11,Pattern_Practice,11,9999,9999,9999,2472757312
112,22,11,Pattern_Practice,12,9999,9999,9999,2473258052
112,22,11,Pattern_Practice,13,9999,9999,9999,2473757748
112,22,11,Pattern_Practice,14,9999,9999,9999,2474257516
112,22,11,Pattern_Practice,15,9999,9999,9999,2474757208
112,22,11,Pattern_Practice,16,9999,9999,9999,2475257952
112,22,11,Pattern_Practice,17,9999,9999,9999,2475757644
112,22,11,Pattern_Practice,18,9999,9999,9999,2476257340
112,22,11,Pattern_Practice,19,9999,9999,9999,2476758084
112,22,11,Pattern_Practice,20,9999,9999,9999,2477257776
112,22,11,Pattern_Practice,21,9999,9999,9999,2477757548
112,22,11,Pattern_Practice,22,9999,9999,9999,2478257240
112,22,11,Pattern_Practice,23,9999,9999,9999,2478757984
112,22,11,Pattern_Practice,24,9999,9999,9999,2479257680
112,22,11,Pattern_Practice,25,9999,9999,9999,2479757372
112,22,11,Pattern_Practice,26,9999,9999,9999,2480257144
112,22,11,Pattern_Practice,27,9999,9999,9999,2480757880
112,22,11,Pattern_Practice,28,9999,9999,9999,2481257548
112,22,11,Pattern_Practice,29,9999,9999,9999,2481757244
112,22,11,Pattern_Practice,30,9999,9999,9999,2482257968
112,22,11,Pattern_Practice,31,9999,9999,9999,2482757716
112,22,11,Pattern_Practice,32,9999,9999,9999,2483257408
112,22,11,Pattern_Practice,33,9999,9999,9999,2483757104
112,22,11,Pattern_Practice,34,9999,9999,9999,2484257848
112,22,11,Pattern_Practice,35,9999,9999,9999,2484757592
112,22,11,Pattern_Practice,36,9999,9999,9999,2485257264
112,22,11,Pattern_Practice,37,9999,9999,9999,2485758000
112,22,11,Pattern_Practice,38,9999,9999,9999,2486257732
112,22,11,Pattern_Practice,39,9999,9999,9999,2486757428
112,22,11,Pattern_Practice,40,9999,9999,9999,2487257200
112,22,11,Pattern_Practice,41,9999,9999,9999,2487757940
112,22,11,Pattern_Practice,42,9999,9999,9999,2488257612
112,22,11,Pattern_Practice,43,9999,9999,9999,2488757308
112,22,11,Pattern_Practice,44,9999,9999,9999,2489258052
112,22,11,Pattern_Practice,45,9999,9999,9999,2489757744
112,22,11,Pattern_Practice,46,9999,9999,9999,2490257512
112,22,11,Pattern_Practice,47,9999,9999,9999,2490757208
112,22,11,Pattern_Practice,48,9999,9999,9999,2491257952
112,22,11,Pattern_Practice,49,9999,9999,9999,2491757644
112,22,11,Pattern_Practice,50,9999,9999,9999,2492257388
112,22,11,Pattern_Practice,51,9999,9999,9999,2492758128
112,22,11,Pattern_Practice,52,9999,9999,9999,2493257824
112,22,11,Pattern_Practice,53,9999,9999,9999,2493757520
112,22,11,Pattern_Practice,54,9999,9999,9999,2494257216
112,22,11,Pattern_Practice,55,9999,9999,9999,2494757956
112,22,11,Pattern_Practice,56,9999,9999,9999,2495257652
112,22,11,Pattern_Practice,57,9999,9999,9999,2495757400
112,22,11,Pattern_Practice,58,9999,9999,9999,2496257132
112,22,11,Pattern_Practice,59,9999,9999,9999,2496757876
112,22,11,Pattern_Practice,60,9999,9999,9999,2497257568
112,22,11,Pattern_Practice,61,9999,9999,9999,2497757264
112,22,11,Pattern_Practice,62,9999,9999,9999,2498258004
112,22,11,Pattern_Practice,63,9999,9999,9999,2498757700
112,22,11,Pattern_Practice,64,9999,9999,9999,2499257396
112,22,11,Pattern_Practice,65,9999,9999,9999,2499757164
112,22,11,Pattern_Practice,66,9999,9999,9999,2500257904
112,22,11,Pattern_Practice,67,9999,9999,9999,2500757584
112,22,11,Pattern_Practice,68,9999,9999,9999,2501257276
112,22,11,Pattern_Practice,69,9999,9999,9999,2501758036
112,22,11,Pattern_Practice,70,9999,9999,9999,2502257728
112,22,11,Pattern_Practice,71,9999,9999,9999,2502757472
112,22,11,Pattern_Practice,72,9999,9999,9999,2503257196
112,22,11,Pattern_Practice,73,9999,9999,9999,2503757936
112,22,11,Pattern_Practice,74,9999,9999,9999,2504257632
112,22,11,Pattern_Practice,75,9999,9999,9999,2504757328
112,22,11,Pattern_Practice,76,9999,9999,9999,2505258052
112,22,11,Pattern_Practice,77,9999,9999,9999,2505757748
112,22,11,Pattern_Practice,78,9999,9999,9999,2506257484
112,22,11,Pattern_Practice,79,9999,9999,9999,2506757236
112,23,13,Improv_Metronome,0,5,42,127,2543580708
112,23,13,Improv_Metronome,1,5,42,127,2544081396
112,23,13,Improv_Metronome,2,5,42,127,2544580964
112,23,13,Improv_Metronome,3,5,42,127,2545080828
112,23,13,Improv_Metronome,4,5,42,127,2545581372
112,23,13,Improv_Metronome,5,1,48,58,2545708800
112,23,13,Improv_Metronome,6,5,42,127,2546080988
112,23,13,Improv_Metronome,7,1,48,69,2546153220
112,23,13,Improv_Metronome,8,5,42,127,2546580832
112,23,13,Improv_Metronome,9,1,38,26,2546589864
112,23,13,Improv_Metronome,10,5,42,127,2547080528
112,23,13,Improv_Metronome,11,1,38,67,2547115064
112,23,13,Improv_Metronome,12,5,42,127,2547581268
112,23,13,Improv_Metronome,13,1,38,49,2547595684
112,23,13,Improv_Metronome,14,1,38,64,2548051504
112,23,13,Improv_Metronome,15,5,42,127,2548080884
112,23,13,Improv_Metronome,16,1,38,70,2548545508
112,23,13,Improv_Metronome,17,5,42,127,2548580852
112,23,13,Improv_Metronome,18,1,38,77,2549078208
112,23,13,Improv_Metronome,19,5,42,127,2549080620
112,23,13,Improv_Metronome,20,1,38,65,2549561280
112,23,13,Improv_Metronome,21,5,42,127,2549581288
112,23,13,Improv_Metronome,22,1,38,68,2550032328
112,23,13,Improv_Metronome,23,5,42,127,2550080760
112,23,13,Improv_Metronome,24,1,38,60,2550507644
112,23,13,Improv_Metronome,25,5,42,127,2550580676
112,23,13,Improv_Metronome,26,1,38,81,2551005616
112,23,13,Improv_Metronome,27,5,42,127,2551081268
112,23,13,Improv_Metronome,28,1,38,62,2551538072
112,23,13,Improv_Metronome,29,5,42,127,2551581040
112,23,13,Improv_Metronome,30,1,48,110,2552055124
112,23,13,Improv_Metronome,31,5,42,127,2552080736
112,23,13,Improv_Metronome,32,1,38,88,2552529088
112,23,13,Improv_Metronome,33,5,42,127,2552580432
112,23,13,Improv_Metronome,34,1,38,77,2553026088
112,23,13,Improv_Metronome,35,5,42,127,2553081320
112,23,13,Improv_Metronome,36,1,38,65,2553487860
112,23,13,Improv_Metronome,37,1,38,39,2553537656
112,23,13,Improv_Metronome,38,5,42,127,2553580844
112,23,13,Improv_Metronome,39,1,38,82,2553961876
112,23,13,Improv_Metronome,40,5,42,127,2554080600
112,23,13,Improv_Metronome,41,1,38,76,2554447188
112,23,13,Improv_Metronome,42,1,38,28,2554508448
112,23,13,Improv_Metronome,43,5,42,127,2554581408
112,23,13,Improv_Metronome,44,1,48,111,2554947228
112,23,13,Improv_Metronome,45,5,42,127,2555081160
112,23,13,Improv_Metronome,46,1,38,43,2555419028
112,23,13,Improv_Metronome,47,5,42,127,2555580784
112,23,13,Improv_Metronome,48,1,38,68,2555849832
112,23,13,Improv_Metronome,49,5,42,127,2556080700
112,23,13,Improv_Metronome,50,1,38,70,2556417516
112,23,13,Improv_Metronome,51,5,42,127,2556581368
112,23,13,Improv_Metronome,52,1,38,81,2556984304
112,23,13,Improv_Metronome,53,5,42,127,2557081076
112,23,13,Improv_Metronome,54,1,38,59,2557437624
112,23,13,Improv_Metronome,55,5,42,127,2557580684
112,23,13,Improv_Metronome,56,1,38,77,2557914360
112,23,13,Improv_Metronome,57,5,42,127,2558081352
112,23,13,Improv_Metronome,58,1,38,95,2558394384
112,23,13,Improv_Metronome,59,5,42,127,2558581492
112,23,13,Improv_Metronome,60,1,48,109,2558854584
112,23,13,Improv_Metronome,61,5,42,127,2559081492
112,23,13,Improv_Metronome,62,1,38,29,2559288804
112,23,13,Improv_Metronome,63,5,42,127,2559580412
112,23,13,Improv_Metronome,64,1,38,75,2559763216
112,23,13,Improv_Metronome,65,5,42,127,2560081300
112,23,13,Improv_Metronome,66,1,38,64,2560241000
112,23,13,Improv_Metronome,67,5,42,127,2560580920
112,23,13,Improv_Metronome,68,1,38,73,2560705312
112,23,13,Improv_Metronome,69,5,42,127,2561080544
112,23,13,Improv_Metronome,70,1,38,70,2561119340
112,23,13,Improv_Metronome,71,1,38,55,2561574064
112,23,13,Improv_Metronome,72,5,42,127,2561581280
112,23,13,Improv_Metronome,73,1,38,77,2562057232
112,23,13,Improv_Metronome,74,5,42,127,2562081272
112,23,13,Improv_Metronome,75,1,38,55,2562523640
112,23,13,Improv_Metronome,76,5,42,127,2562580820
112,23,13,Improv_Metronome,77,1,38,87,2562962896
112,23,13,Improv_Metronome,78,5,42,127,2563080496
112,23,13,Improv_Metronome,79,1,38,63,2563449052
112,23,13,Improv_Metronome,80,5,42,127,2563581388
112,23,13,Improv_Metronome,81,1,48,71,2563986292
112,23,13,Improv_Metronome,82,5,42,127,2564081380
112,23,13,Improv_Metronome,83,1,38,69,2564398972
112,23,13,Improv_Metronome,84,5,42,127,2564580628
112,23,13,Improv_Metronome,85,1,38,84,2564856036
112,23,13,Improv_Metronome,86,5,42,127,2565080324
112,23,13,Improv_Metronome,87,1,38,79,2565293200
112,23,13,Improv_Metronome,88,5,42,127,2565581288
112,23,13,Improv_Metronome,89,1,48,66,2565718668
112,23,13,Improv_Metronome,90,1,38,76,2566060968
112,23,13,Improv_Metronome,91,5,42,127,2566080828
112,23,13,Improv_Metronome,92,1,38,79,2566479336
112,23,13,Improv_Metronome,93,5,42,127,2566580580
112,23,13,Improv_Metronome,94,1,38,72,2566890168
112,23,13,Improv_Metronome,95,5,42,127,2567081472
112,23,13,Improv_Metronome,96,1,38,67,2567368620
112,23,13,Improv_Metronome,97,5,42,127,2567581240
112,23,13,Improv_Metronome,98,1,38,68,2567839592
112,23,13,Improv_Metronome,99,5,42,127,2568080788
112,23,13,Improv_Metronome,100,1,38,72,2568301216
112,23,13,Improv_Metronome,101,5,42,127,2568580408
112,23,13,Improv_Metronome,102,1,38,63,2568853416
112,23,13,Improv_Metronome,103,1,38,35,2568900896
112,23,13,Improv_Metronome,104,5,42,127,2569081200
112,23,13,Improv_Metronome,105,1,38,85,2569343220
112,23,13,Improv_Metronome,106,5,42,127,2569581344
112,23,13,Improv_Metronome,107,1,38,76,2569723212
112,23,13,Improv_Metronome,108,1,38,46,2569784528
112,23,13,Improv_Metronome,109,1,38,16,2569954020
112,23,13,Improv_Metronome,110,5,42,127,2570080596
112,23,13,Improv_Metronome,111,1,48,83,2570297136
112,23,13,Improv_Metronome,112,5,42,127,2570581336
112,23,13,Improv_Metronome,113,1,38,60,2570709912
112,23,13,Improv_Metronome,114,5,42,127,2571081180
112,23,13,Improv_Metronome,115,1,38,71,2571178568
112,23,13,Improv_Metronome,116,5,42,127,2571580728
112,23,13,Improv_Metronome,117,1,38,60,2571663300
112,23,13,Improv_Metronome,118,5,42,127,2572080348
112,23,13,Improv_Metronome,119,1,38,77,2572152748
112,23,13,Improv_Metronome,120,5,42,127,2572581088
112,23,13,Improv_Metronome,121,1,38,71,2572588992
112,23,13,Improv_Metronome,122,1,48,83,2573035264
112,23,13,Improv_Metronome,123,5,42,127,2573081148
112,23,13,Improv_Metronome,124,1,38,78,2573458668
112,23,13,Improv_Metronome,125,5,42,127,2573580604
112,23,13,Improv_Metronome,126,1,38,74,2573918840
112,23,13,Improv_Metronome,127,5,42,127,2574081496
112,23,13,Improv_Metronome,128,1,38,76,2574334464
112,23,13,Improv_Metronome,129,1,38,40,2574381864
112,23,13,Improv_Metronome,130,5,42,127,2574581020
112,23,13,Improv_Metronome,131,1,38,67,2574826056
112,23,13,Improv_Metronome,132,5,42,127,2575080936
112,23,13,Improv_Metronome,133,1,38,79,2575373624
112,23,13,Improv_Metronome,134,5,42,127,2575580704
112,23,13,Improv_Metronome,135,1,38,78,2575982544
112,23,13,Improv_Metronome,136,5,42,127,2576081224
112,23,13,Improv_Metronome,137,1,38,77,2576403684
112,23,13,Improv_Metronome,138,1,38,30,2576473444
112,23,13,Improv_Metronome,139,5,42,127,2576581044
112,23,13,Improv_Metronome,140,1,38,73,2576957352
112,23,13,Improv_Metronome,141,5,42,127,2577080740
112,23,13,Improv_Metronome,142,1,38,70,2577413220
112,23,13,Improv_Metronome,143,5,42,127,2577581408
112,23,13,Improv_Metronome,144,1,38,68,2577977912
112,23,13,Improv_Metronome,145,5,42,127,2578081028
112,23,13,Improv_Metronome,146,1,38,85,2578459504
112,23,13,Improv_Metronome,147,5,42,127,2578580944
112,23,13,Improv_Metronome,148,1,48,101,2578929428
112,23,13,Improv_Metronome,149,5,42,127,2579080488
112,23,13,Improv_Metronome,150,1,38,78,2579359864
112,23,13,Improv_Metronome,151,5,42,127,2579581156
112,23,13,Improv_Metronome,152,1,38,71,2579823656
112,23,13,Improv_Metronome,153,5,42,127,2580080852
112,23,13,Improv_Metronome,154,1,38,57,2580274332
112,23,13,Improv_Metronome,155,5,42,127,2580580820
112,23,13,Improv_Metronome,156,1,38,69,2580762572
112,23,13,Improv_Metronome,157,5,42,127,2581080284
112,23,13,Improv_Metronome,158,1,38,54,2581226740
112,23,13,Improv_Metronome,159,5,42,127,2581581100
112,23,13,Improv_Metronome,160,1,38,61,2581746404
112,23,13,Improv_Metronome,161,5,42,127,2582081016
112,23,13,Improv_Metronome,162,1,38,65,2582190300
112,23,13,Improv_Metronome,163,5,42,127,2582580636
112,23,13,Improv_Metronome,164,1,48,60,2582650796
112,23,13,Improv_Metronome,165,1,38,60,2583064208
112,23,13,Improv_Metronome,166,5,42,127,2583081372
112,23,13,Improv_Metronome,167,1,38,73,2583530996
112,23,13,Improv_Metronome,168,5,42,127,2583580992
112,23,13,Improv_Metronome,169,1,38,67,2584006904
112,23,13,Improv_Metronome,170,5,42,127,2584080836
112,23,13,Improv_Metronome,171,1,38,71,2584506672
112,23,13,Improv_Metronome,172,5,42,127,2584580456
112,23,13,Improv_Metronome,173,1,38,70,2584988264
112,23,13,Improv_Metronome,174,5,42,127,2585081196
112,23,13,Improv_Metronome,175,1,48,75,2585456920
112,23,13,Improv_Metronome,176,5,42,127,2585580804
112,23,13,Improv_Metronome,177,1,38,56,2585880364
112,23,13,Improv_Metronome,178,5,42,127,2586080720
112,23,13,Improv_Metronome,179,1,38,86,2586282672
112,23,13,Improv_Metronome,180,5,42,127,2586581388
112,23,13,Improv_Metronome,181,1,38,67,2586758732
112,23,13,Improv_Metronome,182,5,42,127,2587081008
112,23,13,Improv_Metronome,183,1,38,76,2587259176
112,23,13,Improv_Metronome,184,5,42,127,2587580776
112,23,13,Improv_Metronome,185,1,38,68,2587681808
112,23,13,Improv_Metronome,186,5,42,127,2588080692
112,23,13,Improv_Metronome,187,1,38,57,2588182024
112,23,13,Improv_Metronome,188,5,42,127,2588581212
112,23,13,Improv_Metronome,189,1,38,65,2588605048
112,23,13,Improv_Metronome,190,1,38,59,2589057456
112,23,13,Improv_Metronome,191,5,42,127,2589081124
112,23,13,Improv_Metronome,192,1,38,76,2589525188
112,23,13,Improv_Metronome,193,5,42,127,2589580744
112,23,13,Improv_Metronome,194,1,48,71,2590001172
112,23,13,Improv_Metronome,195,5,42,127,2590081336
112,23,13,Improv_Metronome,196,1,38,58,2590422252
112,23,13,Improv_Metronome,197,5,42,127,2590581164
112,23,13,Improv_Metronome,198,1,38,73,2590854256
112,23,13,Improv_Metronome,199,5,42,127,2591080932
112,23,13,Improv_Metronome,200,1,38,63,2591292592
112,23,13,Improv_Metronome,201,5,42,127,2591580604
112,23,13,Improv_Metronome,202,1,38,56,2591735512
112,23,13,Improv_Metronome,203,5,42,127,2592081196
112,23,13,Improv_Metronome,204,1,38,62,2592261612
112,23,13,Improv_Metronome,205,5,42,127,2592580964
112,23,13,Improv_Metronome,206,1,38,56,2592803044
112,23,13,Improv_Metronome,207,5,42,127,2593080660
112,23,13,Improv_Metronome,208,1,38,65,2593340436
112,23,13,Improv_Metronome,209,5,42,127,2593581328
112,23,13,Improv_Metronome,210,1,38,78,2593861148
112,23,13,Improv_Metronome,211,5,42,127,2594081172
112,23,13,Improv_Metronome,212,1,38,69,2594365556
112,23,13,Improv_Metronome,213,5,42,127,2594580792
112,23,13,Improv_Metronome,214,1,48,103,2594835252
112,23,13,Improv_Metronome,215,5,42,127,2595080708
112,23,13,Improv_Metronome,216,1,38,62,2595259028
112,23,13,Improv_Metronome,217,5,42,127,2595581228
112,23,13,Improv_Metronome,218,1,38,75,2595751096
112,23,13,Improv_Metronome,219,5,42,127,2596081072
112,23,13,Improv_Metronome,220,1,38,70,2596216984
112,23,13,Improv_Metronome,221,5,42,127,2596580692
112,23,13,Improv_Metronome,222,1,38,65,2596789532
112,23,13,Improv_Metronome,223,5,42,127,2597080536
112,23,13,Improv_Metronome,224,1,38,64,2597273516
112,23,13,Improv_Metronome,225,5,42,127,2597581208
112,23,13,Improv_Metronome,226,1,38,68,2597806800
112,23,13,Improv_Metronome,227,5,42,127,2598080828
112,23,13,Improv_Metronome,228,1,38,46,2598197188
112,23,13,Improv_Metronome,229,5,42,127,2598580820
112,23,13,Improv_Metronome,230,1,38,57,2598733236
112,23,13,Improv_Metronome,231,5,42,127,2599081340
112,23,13,Improv_Metronome,232,1,38,60,2599201144
112,23,13,Improv_Metronome,233,5,42,127,2599581108
112,23,13,Improv_Metronome,234,1,48,65,2599658348
112,23,13,Improv_Metronome,235,5,42,127,2600080876
112,23,13,Improv_Metronome,236,1,38,73,2600109800
112,23,13,Improv_Metronome,237,1,38,68,2600510720
112,23,13,Improv_Metronome,238,5,42,127,2600580712
112,23,13,Improv_Metronome,239,1,38,59,2600980796
112,23,13,Improv_Metronome,240,5,42,127,2601081812
112,23,13,Improv_Metronome,241,1,38,65,2601503076
112,23,13,Improv_Metronome,242,5,42,127,2601580928
112,23,13,Improv_Metronome,243,1,38,67,2601985048
112,23,13,Improv_Metronome,244,5,42,127,2602080744
112,23,13,Improv_Metronome,245,1,48,79,2602434400
112,23,13,Improv_Metronome,246,5,42,127,2602581472
112,23,13,Improv_Metronome,247,1,48,62,2602876352
112,23,13,Improv_Metronome,248,5,42,127,2603080944
112,23,13,Improv_Metronome,249,1,38,85,2603356800
112,23,13,Improv_Metronome,250,5,42,127,2603580788
112,23,13,Improv_Metronome,251,1,38,63,2603761128
112,23,13,Improv_Metronome,252,5,42,127,2604080704
112,23,13,Improv_Metronome,253,1,38,66,2604186324
112,23,13,Improv_Metronome,254,1,38,63,2604580844
112,23,13,Improv_Metronome,255,5,42,127,2604583756
112,23,13,Improv_Metronome,256,1,38,63,2605009888
112,23,13,Improv_Metronome,257,5,42,127,2605080912
112,23,13,Improv_Metronome,258,1,38,64,2605461492
112,23,13,Improv_Metronome,259,5,42,127,2605580668
112,23,13,Improv_Metronome,260,1,48,97,2605946752
112,23,13,Improv_Metronome,261,5,42,127,2606081556
112,23,13,Improv_Metronome,262,1,48,82,2606351508
112,23,13,Improv_Metronome,263,5,42,127,2606581100
112,23,13,Improv_Metronome,264,1,38,103,2606797492
112,23,13,Improv_Metronome,265,5,42,127,2607080720
112,23,13,Improv_Metronome,266,1,38,74,2607221268
112,23,13,Improv_Metronome,267,5,42,127,2607580788
112,23,13,Improv_Metronome,268,1,38,70,2607700220
112,23,13,Improv_Metronome,269,5,42,127,2608081232
112,23,13,Improv_Metronome,270,1,38,60,2608100880
112,23,13,Improv_Metronome,271,1,38,73,2608526056
112,23,13,Improv_Metronome,272,5,42,127,2608580920
112,23,13,Improv_Metronome,273,1,38,72,2608966116
112,23,13,Improv_Metronome,274,5,42,127,2609080672
112,23,13,Improv_Metronome,275,1,48,90,2609418612
112,23,13,Improv_Metronome,276,5,42,127,2609581564
112,23,13,Improv_Metronome,277,1,48,67,2609798704
112,23,13,Improv_Metronome,278,5,42,127,2610081108
112,23,13,Improv_Metronome,279,1,38,84,2610235472
112,23,13,Improv_Metronome,280,5,42,127,2610580804
112,23,13,Improv_Metronome,281,1,38,75,2610659544
112,23,13,Improv_Metronome,282,5,42,127,2611080648
112,23,13,Improv_Metronome,283,1,38,69,2611125732
112,23,13,Improv_Metronome,284,5,42,127,2611581388
112,23,13,Improv_Metronome,285,1,38,63,2611587048
112,23,13,Improv_Metronome,286,5,42,127,2612081012
112,23,13,Improv_Metronome,287,1,38,74,2612123544
112,23,13,Improv_Metronome,288,1,38,68,2612554384
112,23,13,Improv_Metronome,289,5,42,127,2612580992
112,23,13,Improv_Metronome,290,1,48,81,2613004636
112,23,13,Improv_Metronome,291,5,42,127,2613080588
112,23,13,Improv_Metronome,292,1,48,78,2613336976
112,23,13,Improv_Metronome,0,9999,9999,9999,2543578196
112,23,13,Improv_Metronome,1,9999,9999,9999,2544078960
112,23,13,Improv_Metronome,2,9999,9999,9999,2544578676
112,23,13,Improv_Metronome,3,9999,9999,9999,2545078392
112,23,13,Improv_Metronome,4,9999,9999,9999,2545579084
112,23,13,Improv_Metronome,5,9999,9999,9999,2546078776
112,23,13,Improv_Metronome,6,9999,9999,9999,2546578544
112,23,13,Improv_Metronome,7,9999,9999,9999,2547078240
112,23,13,Improv_Metronome,8,9999,9999,9999,2547578980
112,23,13,Improv_Metronome,9,9999,9999,9999,2548078672
112,23,13,Improv_Metronome,10,9999,9999,9999,2548578416
112,23,13,Improv_Metronome,11,9999,9999,9999,2549078080
112,23,13,Improv_Metronome,12,9999,9999,9999,2549578852
112,23,13,Improv_Metronome,13,9999,9999,9999,2550078544
112,23,13,Improv_Metronome,14,9999,9999,9999,2550578240
112,23,13,Improv_Metronome,15,9999,9999,9999,2551078980
112,23,13,Improv_Metronome,16,9999,9999,9999,2551578680
112,23,13,Improv_Metronome,17,9999,9999,9999,2552078448
112,23,13,Improv_Metronome,18,9999,9999,9999,2552578144
112,23,13,Improv_Metronome,19,9999,9999,9999,2553078884
112,23,13,Improv_Metronome,20,9999,9999,9999,2553578556
112,23,13,Improv_Metronome,21,9999,9999,9999,2554078312
112,23,13,Improv_Metronome,22,9999,9999,9999,2554579048
112,23,13,Improv_Metronome,23,9999,9999,9999,2555078724
112,23,13,Improv_Metronome,24,9999,9999,9999,2555578420
112,23,13,Improv_Metronome,25,9999,9999,9999,2556078188
112,23,13,Improv_Metronome,26,9999,9999,9999,2556578928
112,23,13,Improv_Metronome,27,9999,9999,9999,2557078640
112,23,13,Improv_Metronome,28,9999,9999,9999,2557578324
112,23,13,Improv_Metronome,29,9999,9999,9999,2558079064
112,23,13,Improv_Metronome,30,9999,9999,9999,2558578760
112,23,13,Improv_Metronome,31,9999,9999,9999,2559078504
112,23,13,Improv_Metronome,32,9999,9999,9999,2559578196
112,23,13,Improv_Metronome,33,9999,9999,9999,2560078940
112,23,13,Improv_Metronome,34,9999,9999,9999,2560578636
112,23,13,Improv_Metronome,35,9999,9999,9999,2561078328
112,23,13,Improv_Metronome,36,9999,9999,9999,2561579064
112,23,13,Improv_Metronome,37,9999,9999,9999,2562078836
112,23,13,Improv_Metronome,38,9999,9999,9999,2562578532
112,23,13,Improv_Metronome,39,9999,9999,9999,2563078208
112,23,13,Improv_Metronome,40,9999,9999,9999,2563578952
112,23,13,Improv_Metronome,41,9999,9999,9999,2564078644
112,23,13,Improv_Metronome,42,9999,9999,9999,2564578416
112,23,13,Improv_Metronome,43,9999,9999,9999,2565078108
112,23,13,Improv_Metronome,44,9999,9999,9999,2565578852
112,23,13,Improv_Metronome,45,9999,9999,9999,2566078540
112,23,13,Improv_Metronome,46,9999,9999,9999,2566578292
112,23,13,Improv_Metronome,47,9999,9999,9999,2567078960
112,23,13,Improv_Metronome,48,9999,9999,9999,2567578732
112,23,13,Improv_Metronome,49,9999,9999,9999,2568078424
112,23,13,Improv_Metronome,50,9999,9999,9999,2568578120
112,23,13,Improv_Metronome,51,9999,9999,9999,2569078840
112,23,13,Improv_Metronome,52,9999,9999,9999,2569578608
112,23,13,Improv_Metronome,53,9999,9999,9999,2570078308
112,23,13,Improv_Metronome,54,9999,9999,9999,2570579048
112,23,13,Improv_Metronome,55,9999,9999,9999,2571078744
112,23,13,Improv_Metronome,56,9999,9999,9999,2571578440
112,23,13,Improv_Metronome,57,9999,9999,9999,2572078132
112,23,13,Improv_Metronome,58,9999,9999,9999,2572578876
112,23,13,Improv_Metronome,59,9999,9999,9999,2573078640
112,23,13,Improv_Metronome,60,9999,9999,9999,2573578316
112,23,13,Improv_Metronome,61,9999,9999,9999,2574079056
112,23,13,Improv_Metronome,62,9999,9999,9999,2574578804
112,23,13,Improv_Metronome,63,9999,9999,9999,2575078500
112,23,13,Improv_Metronome,64,9999,9999,9999,2575578196
112,23,13,Improv_Metronome,65,9999,9999,9999,2576078936
112,23,13,Improv_Metronome,66,9999,9999,9999,2576578608
112,23,13,Improv_Metronome,67,9999,9999,9999,2577078380
112,23,13,Improv_Metronome,68,9999,9999,9999,2577579120
112,23,13,Improv_Metronome,69,9999,9999,9999,2578078812
112,23,13,Improv_Metronome,70,9999,9999,9999,2578578508
112,23,13,Improv_Metronome,71,9999,9999,9999,2579078204
112,23,13,Improv_Metronome,72,9999,9999,9999,2579578944
112,23,13,Improv_Metronome,73,9999,9999,9999,2580078640
112,23,13,Improv_Metronome,74,9999,9999,9999,2580578384
112,23,13,Improv_Metronome,75,9999,9999,9999,2581078072
112,23,13,Improv_Metronome,76,9999,9999,9999,2581578812
112,23,13,Improv_Metronome,77,9999,9999,9999,2582078580
112,23,13,Improv_Metronome,78,9999,9999,9999,2582578276
112,23,13,Improv_Metronome,79,9999,9999,9999,2583079008
112,23,13,Improv_Metronome,80,9999,9999,9999,2583578708
112,23,13,Improv_Metronome,81,9999,9999,9999,2584078400
112,23,13,Improv_Metronome,82,9999,9999,9999,2584578168
112,23,13,Improv_Metronome,83,9999,9999,9999,2585078836
112,23,13,Improv_Metronome,84,9999,9999,9999,2585578588
112,23,13,Improv_Metronome,85,9999,9999,9999,2586078284
112,23,13,Improv_Metronome,86,9999,9999,9999,2586579024
112,23,13,Improv_Metronome,87,9999,9999,9999,2587078720
112,23,13,Improv_Metronome,88,9999,9999,9999,2587578488
112,23,13,Improv_Metronome,89,9999,9999,9999,2588078184
112,23,13,Improv_Metronome,90,9999,9999,9999,2588578924
112,23,13,Improv_Metronome,91,9999,9999,9999,2589078612
112,23,13,Improv_Metronome,92,9999,9999,9999,2589578308
112,23,13,Improv_Metronome,93,9999,9999,9999,2590079048
112,23,13,Improv_Metronome,94,9999,9999,9999,2590578800
112,23,13,Improv_Metronome,95,9999,9999,9999,2591078496
112,23,13,Improv_Metronome,96,9999,9999,9999,2591578168
112,23,13,Improv_Metronome,97,9999,9999,9999,2592078908
112,23,13,Improv_Metronome,98,9999,9999,9999,2592578676
112,23,13,Improv_Metronome,99,9999,9999,9999,2593078372
112,23,13,Improv_Metronome,100,9999,9999,9999,2593579116
112,23,13,Improv_Metronome,101,9999,9999,9999,2594078808
112,23,13,Improv_Metronome,102,9999,9999,9999,2594578504
112,23,13,Improv_Metronome,103,9999,9999,9999,2595078196
112,23,13,Improv_Metronome,104,9999,9999,9999,2595578940
112,23,13,Improv_Metronome,105,9999,9999,9999,2596078708
112,23,13,Improv_Metronome,106,9999,9999,9999,2596578404
112,23,13,Improv_Metronome,107,9999,9999,9999,2597078100
112,23,13,Improv_Metronome,108,9999,9999,9999,2597578844
112,23,13,Improv_Metronome,109,9999,9999,9999,2598078540
112,23,13,Improv_Metronome,110,9999,9999,9999,2598578236
112,23,13,Improv_Metronome,111,9999,9999,9999,2599078976
112,23,13,Improv_Metronome,112,9999,9999,9999,2599578744
112,23,13,Improv_Metronome,113,9999,9999,9999,2600078440
112,23,13,Improv_Metronome,114,9999,9999,9999,2600578128
112,23,13,Improv_Metronome,115,9999,9999,9999,2601078868
112,23,13,Improv_Metronome,116,9999,9999,9999,2601578564
112,23,13,Improv_Metronome,117,9999,9999,9999,2602078308
112,23,13,Improv_Metronome,118,9999,9999,9999,2602579036
112,23,13,Improv_Metronome,119,9999,9999,9999,2603078728
112,23,13,Improv_Metronome,120,9999,9999,9999,2603578424
112,23,13,Improv_Metronome,121,9999,9999,9999,2604078196
112,23,13,Improv_Metronome,122,9999,9999,9999,2604578936
112,23,13,Improv_Metronome,123,9999,9999,9999,2605078624
112,23,13,Improv_Metronome,124,9999,9999,9999,2605578304
112,23,13,Improv_Metronome,125,9999,9999,9999,2606079044
112,23,13,Improv_Metronome,126,9999,9999,9999,2606578740
112,23,13,Improv_Metronome,127,9999,9999,9999,2607078508
112,23,13,Improv_Metronome,128,9999,9999,9999,2607578204
112,23,13,Improv_Metronome,129,9999,9999,9999,2608078944
112,23,13,Improv_Metronome,130,9999,9999,9999,2608578632
112,23,13,Improv_Metronome,131,9999,9999,9999,2609078384
112,23,13,Improv_Metronome,132,9999,9999,9999,2609579128
112,23,13,Improv_Metronome,133,9999,9999,9999,2610078820
112,23,13,Improv_Metronome,134,9999,9999,9999,2610578516
112,23,13,Improv_Metronome,135,9999,9999,9999,2611078212
112,23,13,Improv_Metronome,136,9999,9999,9999,2611578952
112,23,13,Improv_Metronome,137,9999,9999,9999,2612078648
112,23,13,Improv_Metronome,138,9999,9999,9999,2612578388
112,23,13,Improv_Metronome,139,9999,9999,9999,2613078076
112,24,14,Improv_Melody,0,2,48,80,2662845816
112,24,14,Improv_Melody,1,2,72,80,2662847976
112,24,14,Improv_Melody,2,5,42,127,2662850508
112,24,14,Improv_Melody,3,5,42,110,2663343504
112,24,14,Improv_Melody,4,5,42,110,2663844196
112,24,14,Improv_Melody,5,5,42,110,2664343844
112,24,14,Improv_Melody,6,5,42,127,2664843792
112,24,14,Improv_Melody,7,5,42,110,2665344336
112,24,14,Improv_Melody,8,5,42,110,2665844056
112,24,14,Improv_Melody,9,5,42,110,2666343780
112,24,14,Improv_Melody,10,1,38,86,2666827420
112,24,14,Improv_Melody,11,2,43,80,2666846120
112,24,14,Improv_Melody,12,2,67,80,2666848276
112,24,14,Improv_Melody,13,5,42,127,2666850908
112,24,14,Improv_Melody,14,5,42,110,2667344384
112,24,14,Improv_Melody,15,1,38,62,2667382160
112,24,14,Improv_Melody,16,5,42,110,2667843936
112,24,14,Improv_Melody,17,1,38,58,2667854012
112,24,14,Improv_Melody,18,1,38,59,2668333788
112,24,14,Improv_Melody,19,5,42,110,2668343852
112,24,14,Improv_Melody,20,1,38,63,2668802080
112,24,14,Improv_Melody,21,5,42,127,2668844524
112,24,14,Improv_Melody,22,1,38,57,2669250164
112,24,14,Improv_Melody,23,5,42,110,2669344060
112,24,14,Improv_Melody,24,1,38,65,2669746352
112,24,14,Improv_Melody,25,5,42,110,2669843836
112,24,14,Improv_Melody,26,1,38,66,2670256744
112,24,14,Improv_Melody,27,5,42,110,2670343700
112,24,14,Improv_Melody,28,1,48,92,2670789580
112,24,14,Improv_Melody,29,2,45,80,2670846880
112,24,14,Improv_Melody,30,2,69,80,2670849108
112,24,14,Improv_Melody,31,5,42,127,2670851640
112,24,14,Improv_Melody,32,5,42,110,2671343868
112,24,14,Improv_Melody,33,1,38,42,2671649716
112,24,14,Improv_Melody,34,5,42,110,2671843644
112,24,14,Improv_Melody,35,1,38,63,2672169388
112,24,14,Improv_Melody,36,5,42,110,2672344540
112,24,14,Improv_Melody,37,1,38,51,2672671404
112,24,14,Improv_Melody,38,5,42,127,2672844236
112,24,14,Improv_Melody,39,1,38,58,2673149860
112,24,14,Improv_Melody,40,5,42,110,2673343788
112,24,14,Improv_Melody,41,1,38,55,2673652108
112,24,14,Improv_Melody,42,5,42,110,2673843564
112,24,14,Improv_Melody,43,1,38,61,2674127272
112,24,14,Improv_Melody,44,5,42,110,2674344236
112,24,14,Improv_Melody,45,1,48,98,2674622636
112,24,14,Improv_Melody,46,2,41,80,2674846588
112,24,14,Improv_Melody,47,2,65,80,2674848736
112,24,14,Improv_Melody,48,5,42,127,2674851500
112,24,14,Improv_Melody,49,1,38,59,2675167528
112,24,14,Improv_Melody,50,5,42,110,2675343724
112,24,14,Improv_Melody,51,1,38,58,2675643960
112,24,14,Improv_Melody,52,5,42,110,2675843648
112,24,14,Improv_Melody,53,1,38,58,2676167672
112,24,14,Improv_Melody,54,5,42,110,2676344320
112,24,14,Improv_Melody,55,1,38,55,2676697664
112,24,14,Improv_Melody,56,1,38,57,2676711636
112,24,14,Improv_Melody,57,5,42,127,2676843924
112,24,14,Improv_Melody,58,1,38,51,2677194880
112,24,14,Improv_Melody,59,5,42,110,2677343600
112,24,14,Improv_Melody,60,1,38,50,2677711604
112,24,14,Improv_Melody,61,5,42,110,2677844468
112,24,14,Improv_Melody,62,1,38,50,2678200760
112,24,14,Improv_Melody,63,5,42,110,2678344168
112,24,14,Improv_Melody,64,1,38,60,2678742792
112,24,14,Improv_Melody,65,1,38,38,2678788400
112,24,14,Improv_Melody,66,2,48,80,2678846368
112,24,14,Improv_Melody,67,2,72,80,2678848368
112,24,14,Improv_Melody,68,5,42,127,2678851056
112,24,14,Improv_Melody,69,1,48,59,2679222740
112,24,14,Improv_Melody,70,5,42,110,2679343560
112,24,14,Improv_Melody,71,5,42,110,2679844476
112,24,14,Improv_Melody,72,1,38,60,2679873400
112,24,14,Improv_Melody,73,1,38,49,2680283476
112,24,14,Improv_Melody,74,5,42,110,2680343800
112,24,14,Improv_Melody,75,1,38,56,2680786092
112,24,14,Improv_Melody,76,5,42,127,2680843648
112,24,14,Improv_Melody,77,1,38,59,2681289380
112,24,14,Improv_Melody,78,5,42,110,2681344248
112,24,14,Improv_Melody,79,1,38,50,2681761180
112,24,14,Improv_Melody,80,5,42,110,2681844096
112,24,14,Improv_Melody,81,1,38,63,2682239932
112,24,14,Improv_Melody,82,5,42,110,2682343928
112,24,14,Improv_Melody,83,1,48,84,2682765064
112,24,14,Improv_Melody,84,2,43,80,2682845996
112,24,14,Improv_Melody,85,2,67,80,2682848148
112,24,14,Improv_Melody,86,5,42,127,2682850688
112,24,14,Improv_Melody,87,1,38,59,2683300984
112,24,14,Improv_Melody,88,5,42,110,2683344328
112,24,14,Improv_Melody,89,1,38,61,2683756324
112,24,14,Improv_Melody,90,5,42,110,2683844100
112,24,14,Improv_Melody,91,1,38,58,2684215536
112,24,14,Improv_Melody,92,1,38,61,2684232868
112,24,14,Improv_Melody,93,5,42,110,2684343540
112,24,14,Improv_Melody,94,1,38,79,2684724036
112,24,14,Improv_Melody,95,5,42,127,2684844288
112,24,14,Improv_Melody,96,1,38,56,2685222992
112,24,14,Improv_Melody,97,5,42,110,2685344208
112,24,14,Improv_Melody,98,1,38,55,2685728900
112,24,14,Improv_Melody,99,5,42,110,2685843912
112,24,14,Improv_Melody,100,1,38,67,2686223512
112,24,14,Improv_Melody,101,1,38,69,2686238148
112,24,14,Improv_Melody,102,5,42,110,2686343588
112,24,14,Improv_Melody,103,1,48,90,2686738148
112,24,14,Improv_Melody,104,2,45,80,2686846840
112,24,14,Improv_Melody,105,2,69,80,2686849068
112,24,14,Improv_Melody,106,5,42,127,2686851604
112,24,14,Improv_Melody,107,5,42,110,2687344144
112,24,14,Improv_Melody,108,1,38,61,2687363124
112,24,14,Improv_Melody,109,1,38,58,2687827992
112,24,14,Improv_Melody,110,5,42,110,2687843616
112,24,14,Improv_Melody,111,1,38,59,2688294936
112,24,14,Improv_Melody,112,5,42,110,2688344340
112,24,14,Improv_Melody,113,1,38,61,2688773244
112,24,14,Improv_Melody,114,5,42,127,2688844188
112,24,14,Improv_Melody,115,1,38,62,2689261396
112,24,14,Improv_Melody,116,5,42,110,2689343788
112,24,14,Improv_Melody,117,1,38,58,2689787648
112,24,14,Improv_Melody,118,5,42,110,2689843636
112,24,14,Improv_Melody,119,1,38,63,2690251668
112,24,14,Improv_Melody,120,5,42,110,2690344312
112,24,14,Improv_Melody,121,1,48,109,2690771492
112,24,14,Improv_Melody,122,2,41,80,2690846512
112,24,14,Improv_Melody,123,2,65,80,2690848892
112,24,14,Improv_Melody,124,5,42,127,2690851428
112,24,14,Improv_Melody,125,1,38,64,2691336052
112,24,14,Improv_Melody,126,5,42,110,2691343724
112,24,14,Improv_Melody,127,1,38,51,2691791768
112,24,14,Improv_Melody,128,5,42,110,2691843424
112,24,14,Improv_Melody,129,1,38,56,2692261256
112,24,14,Improv_Melody,130,5,42,110,2692344392
112,24,14,Improv_Melody,131,1,38,58,2692731188
112,24,14,Improv_Melody,132,5,42,127,2692844152
112,24,14,Improv_Melody,133,1,38,58,2693212388
112,24,14,Improv_Melody,134,5,42,110,2693343556
112,24,14,Improv_Melody,135,1,38,61,2693757216
112,24,14,Improv_Melody,136,5,42,110,2693844612
112,24,14,Improv_Melody,137,1,38,65,2694258932
112,24,14,Improv_Melody,138,1,38,73,2694268408
112,24,14,Improv_Melody,139,5,42,110,2694344292
112,24,14,Improv_Melody,140,1,48,83,2694792116
112,24,14,Improv_Melody,141,2,48,80,2694846276
112,24,14,Improv_Melody,142,2,72,80,2694848348
112,24,14,Improv_Melody,143,5,42,127,2694850964
112,24,14,Improv_Melody,144,1,38,74,2695334392
112,24,14,Improv_Melody,145,5,42,110,2695343336
112,24,14,Improv_Melody,146,1,38,64,2695778964
112,24,14,Improv_Melody,147,1,38,53,2695801832
112,24,14,Improv_Melody,148,5,42,110,2695844208
112,24,14,Improv_Melody,149,1,38,56,2696250572
112,24,14,Improv_Melody,150,5,42,110,2696344192
112,24,14,Improv_Melody,151,1,38,57,2696751248
112,24,14,Improv_Melody,152,5,42,127,2696843520
112,24,14,Improv_Melody,153,1,38,60,2697231268
112,24,14,Improv_Melody,154,5,42,110,2697344264
112,24,14,Improv_Melody,155,1,38,53,2697716536
112,24,14,Improv_Melody,156,5,42,110,2697844264
112,24,14,Improv_Melody,157,1,38,92,2698191700
112,24,14,Improv_Melody,158,5,42,110,2698343740
112,24,14,Improv_Melody,159,1,48,81,2698712344
112,24,14,Improv_Melody,160,2,43,80,2698846224
112,24,14,Improv_Melody,161,2,67,80,2698848708
112,24,14,Improv_Melody,162,5,42,127,2698851092
112,24,14,Improv_Melody,163,1,38,65,2699319480
112,24,14,Improv_Melody,164,5,42,110,2699344204
112,24,14,Improv_Melody,165,1,38,56,2699805116
112,24,14,Improv_Melody,166,5,42,110,2699844124
112,24,14,Improv_Melody,167,1,38,67,2700272956
112,24,14,Improv_Melody,168,5,42,110,2700343680
112,24,14,Improv_Melody,169,1,38,62,2700757248
112,24,14,Improv_Melody,170,5,42,127,2700844352
112,24,14,Improv_Melody,171,1,38,61,2701252532
112,24,14,Improv_Melody,172,5,42,110,2701344052
112,24,14,Improv_Melody,173,1,38,60,2701749396
112,24,14,Improv_Melody,174,5,42,110,2701844488
112,24,14,Improv_Melody,175,1,38,59,2702225156
112,24,14,Improv_Melody,176,5,42,110,2702343660
112,24,14,Improv_Melody,177,1,48,91,2702781480
112,24,14,Improv_Melody,178,2,45,80,2702846852
112,24,14,Improv_Melody,179,2,69,80,2702849084
112,24,14,Improv_Melody,180,5,42,127,2702851540
112,24,14,Improv_Melody,181,1,38,55,2703316348
112,24,14,Improv_Melody,182,1,38,71,2703325380
112,24,14,Improv_Melody,183,5,42,110,2703344040
112,24,14,Improv_Melody,184,1,38,69,2703786552
112,24,14,Improv_Melody,185,5,42,110,2703843960
112,24,14,Improv_Melody,186,1,38,58,2704254020
112,24,14,Improv_Melody,187,1,38,73,2704272844
112,24,14,Improv_Melody,188,5,42,110,2704344388
112,24,14,Improv_Melody,189,1,38,69,2704759380
112,24,14,Improv_Melody,190,5,42,127,2704844240
112,24,14,Improv_Melody,191,1,38,58,2705241776
112,24,14,Improv_Melody,192,1,38,124,2705246244
112,24,14,Improv_Melody,193,5,42,110,2705343828
112,24,14,Improv_Melody,194,1,38,57,2705734048
112,24,14,Improv_Melody,195,5,42,110,2705843452
112,24,14,Improv_Melody,196,1,38,64,2706215200
112,24,14,Improv_Melody,197,5,42,110,2706344276
112,24,14,Improv_Melody,198,1,48,91,2706776308
112,24,14,Improv_Melody,199,2,41,80,2706846488
112,24,14,Improv_Melody,200,2,65,80,2706848716
112,24,14,Improv_Melody,201,5,42,127,2706851256
112,24,14,Improv_Melody,202,1,38,49,2707305964
112,24,14,Improv_Melody,203,1,38,71,2707316416
112,24,14,Improv_Melody,204,5,42,110,2707343832
112,24,14,Improv_Melody,205,1,38,69,2707766428
112,24,14,Improv_Melody,206,5,42,110,2707843380
112,24,14,Improv_Melody,207,1,38,66,2708244132
112,24,14,Improv_Melody,208,1,38,57,2708264084
112,24,14,Improv_Melody,209,5,42,110,2708344032
112,24,14,Improv_Melody,210,1,38,58,2708755780
112,24,14,Improv_Melody,211,5,42,127,2708843804
112,24,14,Improv_Melody,212,1,38,60,2709248964
112,24,14,Improv_Melody,213,5,42,110,2709343464
112,24,14,Improv_Melody,214,1,38,73,2709765848
112,24,14,Improv_Melody,215,5,42,110,2709844276
112,24,14,Improv_Melody,216,5,42,110,2710343984
112,24,14,Improv_Melody,217,1,48,74,2710351736
112,24,14,Improv_Melody,218,2,48,80,2710846492
112,24,14,Improv_Melody,219,2,72,80,2710848640
112,24,14,Improv_Melody,220,5,42,127,2710851248
112,24,14,Improv_Melody,221,1,38,60,2711148372
112,24,14,Improv_Melody,222,5,42,110,2711343324
112,24,14,Improv_Melody,223,1,38,57,2711550884
112,24,14,Improv_Melody,224,1,38,59,2711564480
112,24,14,Improv_Melody,225,5,42,110,2711844268
112,24,14,Improv_Melody,226,1,38,30,2712099108
112,24,14,Improv_Melody,227,1,38,34,2712126764
112,24,14,Improv_Melody,228,5,42,110,2712343800
112,24,14,Improv_Melody,229,1,38,57,2712571112
112,24,14,Improv_Melody,230,5,42,127,2712843724
112,24,14,Improv_Melody,231,1,38,67,2713081280
112,24,14,Improv_Melody,232,5,42,110,2713344244
112,24,14,Improv_Melody,233,1,38,64,2713604840
112,24,14,Improv_Melody,234,5,42,110,2713844020
112,24,14,Improv_Melody,235,1,38,74,2714137900
112,24,14,Improv_Melody,236,1,38,65,2714160468
112,24,14,Improv_Melody,237,1,38,47,2714186852
112,24,14,Improv_Melody,238,5,42,110,2714343752
112,24,14,Improv_Melody,239,1,48,92,2714653188
112,24,14,Improv_Melody,240,2,43,80,2714846104
112,24,14,Improv_Melody,241,2,67,80,2714848332
112,24,14,Improv_Melody,242,5,42,127,2714851088
112,24,14,Improv_Melody,243,1,38,65,2715221716
112,24,14,Improv_Melody,244,5,42,110,2715344208
112,24,14,Improv_Melody,245,1,38,69,2715703836
112,24,14,Improv_Melody,246,5,42,110,2715843836
112,24,14,Improv_Melody,247,1,38,60,2716200468
112,24,14,Improv_Melody,248,5,42,110,2716343608
112,24,14,Improv_Melody,249,1,38,59,2716722008
112,24,14,Improv_Melody,250,5,42,127,2716844280
112,24,14,Improv_Melody,251,1,38,52,2717210792
112,24,14,Improv_Melody,252,1,38,65,2717219220
112,24,14,Improv_Melody,253,5,42,110,2717344108
112,24,14,Improv_Melody,254,1,38,74,2717733728
112,24,14,Improv_Melody,255,5,42,110,2717843732
112,24,14,Improv_Melody,256,1,38,59,2718228192
112,24,14,Improv_Melody,257,1,38,78,2718239916
112,24,14,Improv_Melody,258,5,42,110,2718343560
112,24,14,Improv_Melody,259,1,48,76,2718798628
112,24,14,Improv_Melody,260,2,45,80,2718846824
112,24,14,Improv_Melody,261,2,69,80,2718848900
112,24,14,Improv_Melody,262,5,42,127,2718851664
112,24,14,Improv_Melody,263,1,38,45,2719313676
112,24,14,Improv_Melody,264,1,38,86,2719329160
112,24,14,Improv_Melody,265,5,42,110,2719343864
112,24,14,Improv_Melody,266,1,38,73,2719774456
112,24,14,Improv_Melody,267,5,42,110,2719843636
112,24,14,Improv_Melody,268,1,38,73,2720242968
112,24,14,Improv_Melody,269,1,38,64,2720259848
112,24,14,Improv_Melody,270,5,42,110,2720344636
112,24,14,Improv_Melody,271,1,38,77,2720717664
112,24,14,Improv_Melody,272,5,42,127,2720844172
112,24,14,Improv_Melody,273,1,38,59,2721196200
112,24,14,Improv_Melody,274,5,42,110,2721343720
112,24,14,Improv_Melody,275,1,38,70,2721756188
112,24,14,Improv_Melody,276,5,42,110,2721843660
112,24,14,Improv_Melody,277,1,38,69,2722281836
112,24,14,Improv_Melody,278,5,42,110,2722344184
112,24,14,Improv_Melody,279,1,48,96,2722802328
112,24,14,Improv_Melody,280,2,41,80,2722846460
112,24,14,Improv_Melody,281,2,65,80,2722848612
112,24,14,Improv_Melody,282,5,42,127,2722851452
112,24,14,Improv_Melody,283,1,38,94,2723316704
112,24,14,Improv_Melody,284,5,42,110,2723343672
112,24,14,Improv_Melody,285,1,38,71,2723760756
112,24,14,Improv_Melody,286,5,42,110,2723843296
112,24,14,Improv_Melody,287,1,38,59,2724252152
112,24,14,Improv_Melody,288,5,42,110,2724344028
112,24,14,Improv_Melody,289,1,38,60,2724774740
112,24,14,Improv_Melody,290,1,38,73,2724785936
112,24,14,Improv_Melody,291,5,42,127,2724843944
112,24,14,Improv_Melody,292,1,38,61,2725263196
112,24,14,Improv_Melody,293,5,42,110,2725343572
112,24,14,Improv_Melody,294,1,38,62,2725778460
112,24,14,Improv_Melody,295,5,42,110,2725844244
112,24,14,Improv_Melody,296,1,38,71,2726270968
112,24,14,Improv_Melody,297,5,42,110,2726344092
112,24,14,Improv_Melody,298,1,38,54,2726787428
112,24,14,Improv_Melody,299,1,48,73,2726827128
112,24,14,Improv_Melody,300,2,48,80,2726846124
112,24,14,Improv_Melody,301,2,72,80,2726848500
112,24,14,Improv_Melody,302,5,42,127,2726850964
112,24,14,Improv_Melody,303,1,38,42,2727330028
112,24,14,Improv_Melody,304,1,38,73,2727344488
112,24,14,Improv_Melody,305,5,42,110,2727346652
112,24,14,Improv_Melody,306,1,38,78,2727792156
112,24,14,Improv_Melody,307,5,42,110,2727844328
112,24,14,Improv_Melody,308,1,38,69,2728279640
112,24,14,Improv_Melody,309,5,42,110,2728343956
112,24,14,Improv_Melody,310,1,38,63,2728771716
112,24,14,Improv_Melody,311,5,42,127,2728843584
112,24,14,Improv_Melody,312,1,38,53,2729270592
112,24,14,Improv_Melody,313,1,38,71,2729279544
112,24,14,Improv_Melody,314,5,42,110,2729344532
112,24,14,Improv_Melody,315,1,38,58,2729781564
112,24,14,Improv_Melody,316,5,42,110,2729843932
112,24,14,Improv_Melody,317,1,38,65,2730299356
112,24,14,Improv_Melody,318,1,38,78,2730307796
112,24,14,Improv_Melody,319,5,42,110,2730343760
112,24,14,Improv_Melody,320,1,48,92,2730799860
112,24,14,Improv_Melody,321,2,43,80,2730845860
112,24,14,Improv_Melody,322,2,67,80,2730848504
112,24,14,Improv_Melody,323,5,42,127,2730850740
112,24,14,Improv_Melody,324,1,38,63,2731303180
112,24,14,Improv_Melody,325,1,38,64,2731317300
112,24,14,Improv_Melody,326,5,42,110,2731344188
112,24,14,Improv_Melody,327,1,38,81,2731767184
112,24,14,Improv_Melody,328,5,42,110,2731843888
112,24,14,Improv_Melody,329,1,38,89,2732249380
112,24,14,Improv_Melody,330,5,42,110,2732343648
112,24,14,Improv_Melody,331,1,38,67,2732753416
112,24,14,Improv_Melody,332,5,42,127,2732844336
112,24,14,Improv_Melody,333,1,38,70,2733234644
112,24,14,Improv_Melody,334,5,42,110,2733344096
112,24,14,Improv_Melody,335,1,38,65,2733719612
112,24,14,Improv_Melody,336,1,38,73,2733731404
112,24,14,Improv_Melody,337,5,42,110,2733844000
112,24,14,Improv_Melody,338,1,38,71,2734233492
112,24,14,Improv_Melody,339,5,42,110,2734343700
112,24,14,Improv_Melody,340,1,48,107,2734762888
112,24,14,Improv_Melody,341,2,45,80,2734846964
112,24,14,Improv_Melody,342,2,69,80,2734849192
112,24,14,Improv_Melody,343,5,42,127,2734851728
112,24,14,Improv_Melody,344,1,38,94,2735282948
112,24,14,Improv_Melody,345,5,42,110,2735343876
112,24,14,Improv_Melody,346,1,38,84,2735735004
112,24,14,Improv_Melody,347,5,42,110,2735843636
112,24,14,Improv_Melody,348,1,38,88,2736229692
112,24,14,Improv_Melody,349,5,42,110,2736344308
112,24,14,Improv_Melody,350,1,38,68,2736734632
112,24,14,Improv_Melody,351,1,38,72,2736746424
112,24,14,Improv_Melody,352,5,42,127,2736844064
112,24,14,Improv_Melody,353,1,38,77,2737226956
112,24,14,Improv_Melody,354,5,42,110,2737343836
112,24,14,Improv_Melody,355,1,38,64,2737716180
112,24,14,Improv_Melody,356,5,42,110,2737843536
112,24,14,Improv_Melody,357,1,38,69,2738218052
112,24,14,Improv_Melody,358,5,42,110,2738344432
112,24,14,Improv_Melody,359,1,48,92,2738793464
112,24,14,Improv_Melody,360,2,41,80,2738846576
112,24,14,Improv_Melody,361,2,65,80,2738848652
112,24,14,Improv_Melody,362,5,42,127,2738851340
112,24,14,Improv_Melody,363,1,38,78,2739281192
112,24,14,Improv_Melody,364,5,42,110,2739343636
112,24,14,Improv_Melody,365,1,38,73,2739771912
112,24,14,Improv_Melody,366,5,42,110,2739843484
112,24,14,Improv_Melody,367,1,38,62,2740249848
112,24,14,Improv_Melody,368,1,38,69,2740262096
112,24,14,Improv_Melody,369,5,42,110,2740344356
112,24,14,Improv_Melody,370,1,38,67,2740729108
112,24,14,Improv_Melody,371,5,42,127,2740843820
112,24,14,Improv_Melody,372,1,38,71,2741227760
112,24,14,Improv_Melody,373,5,42,110,2741343520
112,24,14,Improv_Melody,374,1,38,61,2741763736
112,24,14,Improv_Melody,375,1,38,62,2741779496
112,24,14,Improv_Melody,376,5,42,110,2741844384
112,24,14,Improv_Melody,377,1,38,82,2742275084
112,24,14,Improv_Melody,378,5,42,110,2742344160
112,24,14,Improv_Melody,379,1,48,81,2742785628
112,24,14,Improv_Melody,380,2,48,80,2742846364
112,24,14,Improv_Melody,381,2,72,80,2742848520
112,24,14,Improv_Melody,382,5,42,127,2742850828
112,24,14,Improv_Melody,383,1,38,72,2743283320
112,24,14,Improv_Melody,384,5,42,110,2743343424
112,24,14,Improv_Melody,385,1,38,62,2743764024
112,24,14,Improv_Melody,0,9999,9999,9999,2662841432
112,24,14,Improv_Melody,1,9999,9999,9999,2663341136
112,24,14,Improv_Melody,2,9999,9999,9999,2663841904
112,24,14,Improv_Melody,3,9999,9999,9999,2664341552
112,24,14,Improv_Melody,4,9999,9999,9999,2664841276
112,24,14,Improv_Melody,5,9999,9999,9999,2665342040
112,24,14,Improv_Melody,6,9999,9999,9999,2665841764
112,24,14,Improv_Melody,7,9999,9999,9999,2666341484
112,24,14,Improv_Melody,8,9999,9999,9999,2666841176
112,24,14,Improv_Melody,9,9999,9999,9999,2667341944
112,24,14,Improv_Melody,10,9999,9999,9999,2667841644
112,24,14,Improv_Melody,11,9999,9999,9999,2668341336
112,24,14,Improv_Melody,12,9999,9999,9999,2668842084
112,24,14,Improv_Melody,13,9999,9999,9999,2669341768
112,24,14,Improv_Melody,14,9999,9999,9999,2669841484
112,24,14,Improv_Melody,15,9999,9999,9999,2670341184
112,24,14,Improv_Melody,16,9999,9999,9999,2670841932
112,24,14,Improv_Melody,17,9999,9999,9999,2671341652
112,24,14,Improv_Melody,18,9999,9999,9999,2671841352
112,24,14,Improv_Melody,19,9999,9999,9999,2672342096
112,24,14,Improv_Melody,20,9999,9999,9999,2672841796
112,24,14,Improv_Melody,21,9999,9999,9999,2673341496
112,24,14,Improv_Melody,22,9999,9999,9999,2673841272
112,24,14,Improv_Melody,23,9999,9999,9999,2674341944
112,24,14,Improv_Melody,24,9999,9999,9999,2674841716
112,24,14,Improv_Melody,25,9999,9999,9999,2675341428
112,24,14,Improv_Melody,26,9999,9999,9999,2675841128
112,24,14,Improv_Melody,27,9999,9999,9999,2676341876
112,24,14,Improv_Melody,28,9999,9999,9999,2676841556
112,24,14,Improv_Melody,29,9999,9999,9999,2677341304
112,24,14,Improv_Melody,30,9999,9999,9999,2677842028
112,24,14,Improv_Melody,31,9999,9999,9999,2678341728
112,24,14,Improv_Melody,32,9999,9999,9999,2678841424
112,24,14,Improv_Melody,33,9999,9999,9999,2679341120
112,24,14,Improv_Melody,34,9999,9999,9999,2679841888
112,24,14,Improv_Melody,35,9999,9999,9999,2680341584
112,24,14,Improv_Melody,36,9999,9999,9999,2680841284
112,24,14,Improv_Melody,37,9999,9999,9999,2681342028
112,24,14,Improv_Melody,38,9999,9999,9999,2681841728
112,24,14,Improv_Melody,39,9999,9999,9999,2682341488
112,24,14,Improv_Melody,40,9999,9999,9999,2682841200
112,24,14,Improv_Melody,41,9999,9999,9999,2683341888
112,24,14,Improv_Melody,42,9999,9999,9999,2683841584
112,24,14,Improv_Melody,43,9999,9999,9999,2684341320
112,24,14,Improv_Melody,44,9999,9999,9999,2684842068
112,24,14,Improv_Melody,45,9999,9999,9999,2685341768
112,24,14,Improv_Melody,46,9999,9999,9999,2685841468
112,24,14,Improv_Melody,47,9999,9999,9999,2686341220
112,24,14,Improv_Melody,48,9999,9999,9999,2686841968
112,24,14,Improv_Melody,49,9999,9999,9999,2687341628
112,24,14,Improv_Melody,50,9999,9999,9999,2687841396
112,24,14,Improv_Melody,51,9999,9999,9999,2688342120
112,24,14,Improv_Melody,52,9999,9999,9999,2688841820
112,24,14,Improv_Melody,53,9999,9999,9999,2689341496
112,24,14,Improv_Melody,54,9999,9999,9999,2689841272
112,24,14,Improv_Melody,55,9999,9999,9999,2690341944
112,24,14,Improv_Melody,56,9999,9999,9999,2690841716
112,24,14,Improv_Melody,57,9999,9999,9999,2691341432
112,24,14,Improv_Melody,58,9999,9999,9999,2691841132
112,24,14,Improv_Melody,59,9999,9999,9999,2692341876
112,24,14,Improv_Melody,60,9999,9999,9999,2692841564
112,24,14,Improv_Melody,61,9999,9999,9999,2693341264
112,24,14,Improv_Melody,62,9999,9999,9999,2693842024
112,24,14,Improv_Melody,63,9999,9999,9999,2694341704
112,24,14,Improv_Melody,64,9999,9999,9999,2694841400
112,24,14,Improv_Melody,65,9999,9999,9999,2695341116
112,24,14,Improv_Melody,66,9999,9999,9999,2695841840
112,24,14,Improv_Melody,67,9999,9999,9999,2696341600
112,24,14,Improv_Melody,68,9999,9999,9999,2696841316
112,24,14,Improv_Melody,69,9999,9999,9999,2697342048
112,24,14,Improv_Melody,70,9999,9999,9999,2697841748
112,24,14,Improv_Melody,71,9999,9999,9999,2698341448
112,24,14,Improv_Melody,72,9999,9999,9999,2698841196
112,24,14,Improv_Melody,73,9999,9999,9999,2699341908
112,24,14,Improv_Melody,74,9999,9999,9999,2699841608
112,24,14,Improv_Melody,75,9999,9999,9999,2700341312
112,24,14,Improv_Melody,76,9999,9999,9999,2700842060
112,24,14,Improv_Melody,77,9999,9999,9999,2701341760
112,24,14,Improv_Melody,78,9999,9999,9999,2701841460
112,24,14,Improv_Melody,79,9999,9999,9999,2702341220
112,24,14,Improv_Melody,80,9999,9999,9999,2702841908
112,24,14,Improv_Melody,81,9999,9999,9999,2703341672
112,24,14,Improv_Melody,82,9999,9999,9999,2703841372
112,24,14,Improv_Melody,83,9999,9999,9999,2704342096
112,24,14,Improv_Melody,84,9999,9999,9999,2704841796
112,24,14,Improv_Melody,85,9999,9999,9999,2705341536
112,24,14,Improv_Melody,86,9999,9999,9999,2705841232
112,24,14,Improv_Melody,87,9999,9999,9999,2706341980
112,24,14,Improv_Melody,88,9999,9999,9999,2706841696
112,24,14,Improv_Melody,89,9999,9999,9999,2707341388
112,24,14,Improv_Melody,90,9999,9999,9999,2707841088
112,24,14,Improv_Melody,91,9999,9999,9999,2708341812
112,24,14,Improv_Melody,92,9999,9999,9999,2708841588
112,24,14,Improv_Melody,93,9999,9999,9999,2709341244
112,24,14,Improv_Melody,94,9999,9999,9999,2709841984
112,24,14,Improv_Melody,95,9999,9999,9999,2710341688
112,24,14,Improv_Melody,96,9999,9999,9999,2710841464
112,24,14,Improv_Melody,97,9999,9999,9999,2711341104
112,24,14,Improv_Melody,98,9999,9999,9999,2711841900
112,24,14,Improv_Melody,99,9999,9999,9999,2712341580
112,24,14,Improv_Melody,100,9999,9999,9999,2712841280
112,24,14,Improv_Melody,101,9999,9999,9999,2713342024
112,24,14,Improv_Melody,102,9999,9999,9999,2713841724
112,24,14,Improv_Melody,103,9999,9999,9999,2714341456
112,24,14,Improv_Melody,104,9999,9999,9999,2714841156
112,24,14,Improv_Melody,105,9999,9999,9999,2715341916
112,24,14,Improv_Melody,106,9999,9999,9999,2715841616
112,24,14,Improv_Melody,107,9999,9999,9999,2716341316
112,24,14,Improv_Melody,108,9999,9999,9999,2716842060
112,24,14,Improv_Melody,109,9999,9999,9999,2717341812
112,24,14,Improv_Melody,110,9999,9999,9999,2717841512
112,24,14,Improv_Melody,111,9999,9999,9999,2718341192
112,24,14,Improv_Melody,112,9999,9999,9999,2718841952
112,24,14,Improv_Melody,113,9999,9999,9999,2719341644
112,24,14,Improv_Melody,114,9999,9999,9999,2719841344
112,24,14,Improv_Melody,115,9999,9999,9999,2720342120
112,24,14,Improv_Melody,116,9999,9999,9999,2720841804
112,24,14,Improv_Melody,117,9999,9999,9999,2721341504
112,24,14,Improv_Melody,118,9999,9999,9999,2721841220
112,24,14,Improv_Melody,119,9999,9999,9999,2722341964
112,24,14,Improv_Melody,120,9999,9999,9999,2722841664
112,24,14,Improv_Melody,121,9999,9999,9999,2723341380
112,24,14,Improv_Melody,122,9999,9999,9999,2723841080
112,24,14,Improv_Melody,123,9999,9999,9999,2724341824
112,24,14,Improv_Melody,124,9999,9999,9999,2724841580
112,24,14,Improv_Melody,125,9999,9999,9999,2725341276
112,24,14,Improv_Melody,126,9999,9999,9999,2725842024
112,24,14,Improv_Melody,127,9999,9999,9999,2726341724
112,24,14,Improv_Melody,128,9999,9999,9999,2726841404
112,24,14,Improv_Melody,129,9999,9999,9999,2727341164
112,24,14,Improv_Melody,130,9999,9999,9999,2727841888
112,24,14,Improv_Melody,131,9999,9999,9999,2728341588
112,24,14,Improv_Melody,132,9999,9999,9999,2728841292
112,24,14,Improv_Melody,133,9999,9999,9999,2729342016
112,24,14,Improv_Melody,134,9999,9999,9999,2729841716
112,24,14,Improv_Melody,135,9999,9999,9999,2730341468
112,24,14,Improv_Melody,136,9999,9999,9999,2730841144
112,24,14,Improv_Melody,137,9999,9999,9999,2731341896
112,24,14,Improv_Melody,138,9999,9999,9999,2731841596
112,24,14,Improv_Melody,139,9999,9999,9999,2732341356
112,24,14,Improv_Melody,140,9999,9999,9999,2732842044
112,24,14,Improv_Melody,141,9999,9999,9999,2733341804
112,24,14,Improv_Melody,142,9999,9999,9999,2733841484
112,24,14,Improv_Melody,143,9999,9999,9999,2734341184
112,24,14,Improv_Melody,144,9999,9999,9999,2734841944
112,24,14,Improv_Melody,145,9999,9999,9999,2735341656
112,24,14,Improv_Melody,146,9999,9999,9999,2735841340
112,24,14,Improv_Melody,147,9999,9999,9999,2736342088
112,24,14,Improv_Melody,148,9999,9999,9999,2736841844
112,24,14,Improv_Melody,149,9999,9999,9999,2737341544
112,24,14,Improv_Melody,150,9999,9999,9999,2737841244
112,24,14,Improv_Melody,151,9999,9999,9999,2738341988
112,24,14,Improv_Melody,152,9999,9999,9999,2738841704
112,24,14,Improv_Melody,153,9999,9999,9999,2739341416
112,24,14,Improv_Melody,154,9999,9999,9999,2739841116
112,24,14,Improv_Melody,155,9999,9999,9999,2740341844
112,24,14,Improv_Melody,156,9999,9999,9999,2740841528
112,24,14,Improv_Melody,157,9999,9999,9999,2741341276
112,24,14,Improv_Melody,158,9999,9999,9999,2741842016
112,24,14,Improv_Melody,159,9999,9999,9999,2742341720
112,24,14,Improv_Melody,160,9999,9999,9999,2742841416
112,24,14,Improv_Melody,161,9999,9999,9999,2743341132
