pid,taskRunCount,taskID,taskName,i,channel,pitch,velocity,microseconds
1,1,Ticks_Pract_5,0,5,42,127,110419264
1171,1,Ticks_Pract_5,1,5,42,127,110919132
1171,1,Ticks_Pract_5,2,5,42,127,111418624
1171,1,Ticks_Pract_5,3,5,42,127,111918492
1171,1,Ticks_Pract_5,4,5,42,127,112419252
1171,1,Ticks_Pract_5,5,5,42,127,112918820
1171,1,Ticks_Pract_5,6,1,48,40,112975048
1171,1,Ticks_Pract_5,7,1,48,39,113390800
1171,1,Ticks_Pract_5,8,5,42,127,113418660
1171,1,Ticks_Pract_5,9,1,48,39,113843272
1171,1,Ticks_Pract_5,10,5,42,127,113919400
1171,1,Ticks_Pract_5,11,1,48,42,114371936
1171,1,Ticks_Pract_5,12,5,42,127,114419168
1171,1,Ticks_Pract_5,13,1,48,43,114881656
1171,1,Ticks_Pract_5,14,5,42,127,114918864
1171,1,Ticks_Pract_5,15,1,48,42,115391220
1171,1,Ticks_Pract_5,16,5,42,127,115418484
1171,1,Ticks_Pract_5,17,1,48,40,115885208
1171,1,Ticks_Pract_5,18,5,42,127,115919224
1171,1,Ticks_Pract_5,19,1,48,38,116392452
1171,1,Ticks_Pract_5,20,5,42,127,116419140
1171,1,Ticks_Pract_5,21,1,48,38,116911148
1171,1,Ticks_Pract_5,22,5,42,127,116918612
1171,1,Ticks_Pract_5,23,1,48,39,117400368
1171,1,Ticks_Pract_5,24,5,42,127,117419252
1171,1,Ticks_Pract_5,25,1,48,37,117887048
1171,1,Ticks_Pract_5,26,5,42,127,117919172
1171,1,Ticks_Pract_5,27,1,48,42,118351660
1171,1,Ticks_Pract_5,28,5,42,127,118418940
1171,1,Ticks_Pract_5,29,1,48,38,118887112
1171,1,Ticks_Pract_5,30,5,42,127,118918564
1171,1,Ticks_Pract_5,31,1,48,44,119361076
1171,1,Ticks_Pract_5,32,5,42,127,119419228
1171,1,Ticks_Pract_5,33,1,48,37,119861216
1171,1,Ticks_Pract_5,34,5,42,127,119918996
1171,1,Ticks_Pract_5,35,1,48,40,120348200
1171,1,Ticks_Pract_5,36,5,42,127,120418616
1171,1,Ticks_Pract_5,37,1,48,43,120864196
1171,1,Ticks_Pract_5,38,5,42,127,120919508
1171,1,Ticks_Pract_5,39,1,48,45,121398148
1171,1,Ticks_Pract_5,40,5,42,127,121419128
1171,1,Ticks_Pract_5,41,1,48,43,121860744
1171,1,Ticks_Pract_5,42,5,42,127,121918972
1171,1,Ticks_Pract_5,43,1,48,37,122359020
1171,1,Ticks_Pract_5,44,5,42,127,122418516
1171,1,Ticks_Pract_5,45,1,48,27,122868436
1171,1,Ticks_Pract_5,46,5,42,127,122919256
1171,1,Ticks_Pract_5,47,1,48,44,123327816
1171,1,Ticks_Pract_5,48,5,42,127,123419176
1171,1,Ticks_Pract_5,49,1,48,35,123876876
1171,1,Ticks_Pract_5,50,5,42,127,123918572
1171,1,Ticks_Pract_5,51,1,48,46,124370964
1171,1,Ticks_Pract_5,52,5,42,127,124418420
1171,1,Ticks_Pract_5,53,1,48,47,124880676
1171,1,Ticks_Pract_5,54,5,42,127,124919084
1171,1,Ticks_Pract_5,55,1,48,45,125361048
1171,1,Ticks_Pract_5,56,5,42,127,125419152
1171,1,Ticks_Pract_5,57,1,48,44,125872412
1171,1,Ticks_Pract_5,58,5,42,127,125918548
1171,1,Ticks_Pract_5,59,1,48,39,126363732
1171,1,Ticks_Pract_5,60,5,42,127,126419288
1171,1,Ticks_Pract_5,61,1,48,43,126859536
1171,1,Ticks_Pract_5,62,5,42,127,126918984
1171,1,Ticks_Pract_5,63,1,48,39,127359528
1171,1,Ticks_Pract_5,64,5,42,127,127418900
1171,1,Ticks_Pract_5,65,1,48,37,127859668
1171,1,Ticks_Pract_5,66,5,42,127,127918348
1171,1,Ticks_Pract_5,67,1,48,43,128383300
1171,1,Ticks_Pract_5,68,5,42,127,128419164
1171,1,Ticks_Pract_5,69,1,48,47,128836392
1171,1,Ticks_Pract_5,70,5,42,127,128919080
1171,1,Ticks_Pract_5,71,1,48,44,129343196
1171,1,Ticks_Pract_5,72,5,42,127,129418852
1171,1,Ticks_Pract_5,73,1,48,44,129792552
1171,1,Ticks_Pract_5,74,5,42,127,129919356
1171,1,Ticks_Pract_5,75,1,48,47,130400332
1171,1,Ticks_Pract_5,0,9999,9999,9999,110416980
1171,1,Ticks_Pract_5,1,9999,9999,9999,110916696
1171,1,Ticks_Pract_5,2,9999,9999,9999,111416412
1171,1,Ticks_Pract_5,3,9999,9999,9999,111916128
1171,1,Ticks_Pract_5,4,9999,9999,9999,112416892
1171,1,Ticks_Pract_5,5,9999,9999,9999,112916536
1171,1,Ticks_Pract_5,6,9999,9999,9999,113416296
1171,1,Ticks_Pract_5,7,9999,9999,9999,113917040
1171,1,Ticks_Pract_5,8,9999,9999,9999,114416732
1171,1,Ticks_Pract_5,9,9999,9999,9999,114916428
1171,1,Ticks_Pract_5,10,9999,9999,9999,115416124
1171,1,Ticks_Pract_5,11,9999,9999,9999,115916864
1171,1,Ticks_Pract_5,12,9999,9999,9999,116416632
1171,1,Ticks_Pract_5,13,9999,9999,9999,116916300
1171,1,Ticks_Pract_5,14,9999,9999,9999,117417040
1171,1,Ticks_Pract_5,15,9999,9999,9999,117916736
1171,1,Ticks_Pract_5,16,9999,9999,9999,118416504
1171,1,Ticks_Pract_5,17,9999,9999,9999,118916200
1171,1,Ticks_Pract_5,18,9999,9999,9999,119416944
1171,1,Ticks_Pract_5,19,9999,9999,9999,119916636
1171,1,Ticks_Pract_5,20,9999,9999,9999,120416332
1171,1,Ticks_Pract_5,21,9999,9999,9999,120917072
1171,1,Ticks_Pract_5,22,9999,9999,9999,121416768
1171,1,Ticks_Pract_5,23,9999,9999,9999,121916536
1171,1,Ticks_Pract_5,24,9999,9999,9999,122416228
1171,1,Ticks_Pract_5,25,9999,9999,9999,122916972
1171,1,Ticks_Pract_5,26,9999,9999,9999,123416668
1171,1,Ticks_Pract_5,27,9999,9999,9999,123916360
1171,1,Ticks_Pract_5,28,9999,9999,9999,124416056
1171,1,Ticks_Pract_5,29,9999,9999,9999,124916796
1171,1,Ticks_Pract_5,30,9999,9999,9999,125416568
1171,1,Ticks_Pract_5,31,9999,9999,9999,125916260
1171,1,Ticks_Pract_5,32,9999,9999,9999,126417004
1171,1,Ticks_Pract_5,33,9999,9999,9999,126916696
1171,1,Ticks_Pract_5,34,9999,9999,9999,127416392
1171,1,Ticks_Pract_5,35,9999,9999,9999,127916136
1171,1,Ticks_Pract_5,36,9999,9999,9999,128416876
1171,1,Ticks_Pract_5,37,9999,9999,9999,128916572
1171,1,Ticks_Pract_5,38,9999,9999,9999,129416268
1171,1,Ticks_Pract_5,39,9999,9999,9999,129916992
1172,0,Ticks_Pract_8,0,5,42,127,158163336
1172,0,Ticks_Pract_8,1,5,42,127,158963316
1172,0,Ticks_Pract_8,2,5,42,127,159762772
1172,0,Ticks_Pract_8,3,5,42,127,160562680
1172,0,Ticks_Pract_8,4,1,48,52,161286996
1172,0,Ticks_Pract_8,5,5,42,127,161363248
1172,0,Ticks_Pract_8,6,1,48,39,162061452
1172,0,Ticks_Pract_8,7,5,42,127,162163340
1172,0,Ticks_Pract_8,8,5,42,127,162962724
1172,0,Ticks_Pract_8,9,1,48,32,162973396
1172,0,Ticks_Pract_8,10,5,42,127,163762532
1172,0,Ticks_Pract_8,11,1,48,42,163814940
1172,0,Ticks_Pract_8,12,5,42,127,164563312
1172,0,Ticks_Pract_8,13,1,48,42,164629112
1172,0,Ticks_Pract_8,14,5,42,127,165363196
1172,0,Ticks_Pract_8,15,1,48,42,165427948
1172,0,Ticks_Pract_8,16,5,42,127,166162928
1172,0,Ticks_Pract_8,17,1,48,44,166190284
1172,0,Ticks_Pract_8,18,1,48,44,166939436
1172,0,Ticks_Pract_8,19,5,42,127,166962656
1172,0,Ticks_Pract_8,20,1,48,45,167716352
1172,0,Ticks_Pract_8,21,5,42,127,167763212
1172,0,Ticks_Pract_8,22,1,48,43,168515792
1172,0,Ticks_Pract_8,23,5,42,127,168563096
1172,0,Ticks_Pract_8,24,1,48,45,169327044
1172,0,Ticks_Pract_8,25,5,42,127,169363052
1172,0,Ticks_Pract_8,26,1,48,43,170130964
1172,0,Ticks_Pract_8,27,5,42,127,170162636
1172,0,Ticks_Pract_8,28,5,42,127,170963276
1172,0,Ticks_Pract_8,29,1,48,34,170983220
1172,0,Ticks_Pract_8,30,1,48,44,171729904
1172,0,Ticks_Pract_8,31,5,42,127,171763152
1172,0,Ticks_Pract_8,32,5,42,127,172562968
1172,0,Ticks_Pract_8,33,1,48,41,172577604
1172,0,Ticks_Pract_8,34,1,48,44,173356380
1172,0,Ticks_Pract_8,35,5,42,127,173362396
1172,0,Ticks_Pract_8,36,1,48,45,174138684
1172,0,Ticks_Pract_8,37,5,42,127,174163324
1172,0,Ticks_Pract_8,38,1,48,44,174890100
1172,0,Ticks_Pract_8,39,5,42,127,174962984
1172,0,Ticks_Pract_8,40,1,48,39,175678384
1172,0,Ticks_Pract_8,41,5,42,127,175762940
1172,0,Ticks_Pract_8,42,1,48,42,176458524
1172,0,Ticks_Pract_8,43,5,42,127,176562908
1172,0,Ticks_Pract_8,44,1,48,43,177265884
1172,0,Ticks_Pract_8,45,5,42,127,177363180
1172,0,Ticks_Pract_8,46,1,48,43,178033756
1172,0,Ticks_Pract_8,47,5,42,127,178162972
1172,0,Ticks_Pract_8,48,1,48,43,178940248
1172,0,Ticks_Pract_8,49,5,42,127,178962872
1172,0,Ticks_Pract_8,50,5,42,127,179762460
1172,0,Ticks_Pract_8,51,1,48,50,179765204
1172,0,Ticks_Pract_8,52,5,42,127,180563392
1172,0,Ticks_Pract_8,53,1,48,40,180650212
1172,0,Ticks_Pract_8,54,5,42,127,181363124
1172,0,Ticks_Pract_8,55,1,48,45,181380532
1172,0,Ticks_Pract_8,0,9999,9999,9999,158160976
1172,0,Ticks_Pract_8,1,9999,9999,9999,158960732
1172,0,Ticks_Pract_8,2,9999,9999,9999,159760484
1172,0,Ticks_Pract_8,3,9999,9999,9999,160560240
1172,0,Ticks_Pract_8,4,9999,9999,9999,161360960
1172,0,Ticks_Pract_8,5,9999,9999,9999,162160756
1172,0,Ticks_Pract_8,6,9999,9999,9999,162960436
1172,0,Ticks_Pract_8,7,9999,9999,9999,163760244
1172,0,Ticks_Pract_8,8,9999,9999,9999,164560952
1172,0,Ticks_Pract_8,9,9999,9999,9999,165360756
1172,0,Ticks_Pract_8,10,9999,9999,9999,166160492
1172,0,Ticks_Pract_8,11,9999,9999,9999,166960220
1172,0,Ticks_Pract_8,12,9999,9999,9999,167761000
1172,0,Ticks_Pract_8,13,9999,9999,9999,168560732
1172,0,Ticks_Pract_8,14,9999,9999,9999,169360468
1172,0,Ticks_Pract_8,15,9999,9999,9999,170160200
1172,0,Ticks_Pract_8,16,9999,9999,9999,170960988
1172,0,Ticks_Pract_8,17,9999,9999,9999,171760716
1172,0,Ticks_Pract_8,18,9999,9999,9999,172560456
1172,0,Ticks_Pract_8,19,9999,9999,9999,173360184
1172,0,Ticks_Pract_8,20,9999,9999,9999,174160964
1172,0,Ticks_Pract_8,21,9999,9999,9999,174960696
1172,0,Ticks_Pract_8,22,9999,9999,9999,175760504
1172,0,Ticks_Pract_8,23,9999,9999,9999,176560220
1172,0,Ticks_Pract_8,24,9999,9999,9999,177360968
1172,0,Ticks_Pract_8,25,9999,9999,9999,178160760
1172,0,Ticks_Pract_8,26,9999,9999,9999,178960432
1172,0,Ticks_Pract_8,27,9999,9999,9999,179760172
1172,0,Ticks_Pract_8,28,9999,9999,9999,180560956
1172,0,Ticks_Pract_8,29,9999,9999,9999,181360688
1173,4,T1_SMS_5,0,5,42,127,292918684
1173,4,T1_SMS_5,1,5,42,127,293419448
1173,4,T1_SMS_5,2,5,42,127,293919016
1173,4,T1_SMS_5,3,5,42,127,294418656
1173,4,T1_SMS_5,4,1,48,31,294913172
1173,4,T1_SMS_5,5,5,42,127,294918588
1173,4,T1_SMS_5,6,1,48,43,295338864
1173,4,T1_SMS_5,7,5,42,127,295419332
1173,4,T1_SMS_5,8,1,48,37,295844096
1173,4,T1_SMS_5,9,5,42,127,295918880
1173,4,T1_SMS_5,10,1,48,38,296321352
1173,4,T1_SMS_5,11,5,42,127,296418556
1173,4,T1_SMS_5,12,1,48,40,296856048
1173,4,T1_SMS_5,13,5,42,127,296919536
1173,4,T1_SMS_5,14,1,48,40,297354020
1173,4,T1_SMS_5,15,5,42,127,297419084
1173,4,T1_SMS_5,16,1,48,39,297847512
1173,4,T1_SMS_5,17,5,42,127,297918780
1173,4,T1_SMS_5,18,1,48,38,298348852
1173,4,T1_SMS_5,19,5,42,127,298418624
1173,4,T1_SMS_5,20,1,48,40,298865296
1173,4,T1_SMS_5,21,5,42,127,298919340
1173,4,T1_SMS_5,22,1,48,39,299372396
1173,4,T1_SMS_5,23,5,42,127,299418960
1173,4,T1_SMS_5,24,1,48,39,299897528
1173,4,T1_SMS_5,25,5,42,127,299918580
1173,4,T1_SMS_5,26,1,48,43,300392432
1173,4,T1_SMS_5,27,5,42,127,300418348
1173,4,T1_SMS_5,28,1,48,44,300909480
1173,4,T1_SMS_5,29,5,42,127,300919240
1173,4,T1_SMS_5,30,1,48,38,301414188
1173,4,T1_SMS_5,31,5,42,127,301418788
1173,4,T1_SMS_5,32,1,48,41,301914480
1173,4,T1_SMS_5,33,5,42,127,301918780
1173,4,T1_SMS_5,34,1,48,40,302410288
1173,4,T1_SMS_5,35,5,42,127,302419372
1173,4,T1_SMS_5,36,1,48,41,302896744
1173,4,T1_SMS_5,37,5,42,127,302919064
1173,4,T1_SMS_5,38,1,48,40,303386116
1173,4,T1_SMS_5,39,5,42,127,303418688
1173,4,T1_SMS_5,40,1,48,35,303896428
1173,4,T1_SMS_5,41,5,42,127,303918384
1173,4,T1_SMS_5,42,1,48,39,304373312
1173,4,T1_SMS_5,43,5,42,127,304419348
1173,4,T1_SMS_5,44,1,48,37,304906068
1173,4,T1_SMS_5,45,5,42,127,304918820
1173,4,T1_SMS_5,46,1,48,41,305398436
1173,4,T1_SMS_5,47,5,42,127,305418664
1173,4,T1_SMS_5,48,1,48,44,305881600
1173,4,T1_SMS_5,49,5,42,127,305919480
1173,4,T1_SMS_5,50,1,48,45,306345292
1173,4,T1_SMS_5,51,5,42,127,306419252
1173,4,T1_SMS_5,52,1,48,41,306874252
1173,4,T1_SMS_5,53,5,42,127,306918720
1173,4,T1_SMS_5,54,1,48,40,307395192
1173,4,T1_SMS_5,55,5,42,127,307418416
1173,4,T1_SMS_5,56,1,48,42,307883816
1173,4,T1_SMS_5,57,5,42,127,307919380
1173,4,T1_SMS_5,58,1,48,41,308365084
1173,4,T1_SMS_5,59,5,42,127,308419148
1173,4,T1_SMS_5,60,1,48,34,308846836
1173,4,T1_SMS_5,61,5,42,127,308918696
1173,4,T1_SMS_5,62,1,48,41,309331120
1173,4,T1_SMS_5,63,5,42,127,309419436
1173,4,T1_SMS_5,64,1,48,43,309829768
1173,4,T1_SMS_5,65,5,42,127,309919256
1173,4,T1_SMS_5,66,1,48,36,310337692
1173,4,T1_SMS_5,67,5,42,127,310418728
1173,4,T1_SMS_5,68,1,48,40,310857352
1173,4,T1_SMS_5,69,5,42,127,310918572
1173,4,T1_SMS_5,70,1,48,43,311337000
1173,4,T1_SMS_5,71,5,42,127,311419460
1173,4,T1_SMS_5,72,1,48,40,311864968
1173,4,T1_SMS_5,73,5,42,127,311919232
1173,4,T1_SMS_5,74,1,48,44,312331080
1173,4,T1_SMS_5,75,5,42,127,312418556
1173,4,T1_SMS_5,76,1,48,41,312850296
1173,4,T1_SMS_5,77,5,42,127,312919372
1173,4,T1_SMS_5,78,1,48,43,313341240
1173,4,T1_SMS_5,79,5,42,127,313419288
1173,4,T1_SMS_5,80,1,48,37,313874668
1173,4,T1_SMS_5,81,5,42,127,313918908
1173,4,T1_SMS_5,82,1,48,45,314357312
1173,4,T1_SMS_5,83,5,42,127,314418532
1173,4,T1_SMS_5,84,1,48,44,314866204
1173,4,T1_SMS_5,85,5,42,127,314919196
1173,4,T1_SMS_5,86,1,48,40,315386920
1173,4,T1_SMS_5,87,5,42,127,315419188
1173,4,T1_SMS_5,88,1,48,44,315879808
1173,4,T1_SMS_5,89,5,42,127,315918740
1173,4,T1_SMS_5,90,1,48,45,316371348
1173,4,T1_SMS_5,91,5,42,127,316418432
1173,4,T1_SMS_5,92,1,48,41,316901260
1173,4,T1_SMS_5,93,5,42,127,316919172
1173,4,T1_SMS_5,94,1,48,42,317405068
1173,4,T1_SMS_5,95,5,42,127,317418796
1173,4,T1_SMS_5,96,1,48,47,317890704
1173,4,T1_SMS_5,97,5,42,127,317918564
1173,4,T1_SMS_5,98,1,48,45,318405356
1173,4,T1_SMS_5,99,5,42,127,318419304
1173,4,T1_SMS_5,100,1,48,44,318883336
1173,4,T1_SMS_5,101,5,42,127,318919296
1173,4,T1_SMS_5,102,1,48,46,319363732
1173,4,T1_SMS_5,103,5,42,127,319418696
1173,4,T1_SMS_5,104,1,48,46,319856620
1173,4,T1_SMS_5,105,5,42,127,319918392
1173,4,T1_SMS_5,106,1,48,42,320362528
1173,4,T1_SMS_5,107,5,42,127,320419256
1173,4,T1_SMS_5,108,1,48,40,320853100
1173,4,T1_SMS_5,109,5,42,127,320918880
1173,4,T1_SMS_5,110,1,48,46,321336936
1173,4,T1_SMS_5,111,5,42,127,321418500
1173,4,T1_SMS_5,112,1,48,44,321898192
1173,4,T1_SMS_5,113,5,42,127,321919244
1173,4,T1_SMS_5,114,1,48,39,322393844
1173,4,T1_SMS_5,115,5,42,127,322419088
1173,4,T1_SMS_5,116,1,48,45,322888080
1173,4,T1_SMS_5,117,5,42,127,322918708
1173,4,T1_SMS_5,118,1,48,45,323393532
1173,4,T1_SMS_5,119,5,42,127,323418332
1173,4,T1_SMS_5,120,1,48,41,323917260
1173,4,T1_SMS_5,121,5,42,127,323919072
1173,4,T1_SMS_5,122,1,48,45,324411404
1173,4,T1_SMS_5,123,5,42,127,324418840
1173,4,T1_SMS_5,124,1,48,46,324913712
1173,4,T1_SMS_5,125,5,42,127,324918536
1173,4,T1_SMS_5,126,1,48,42,325412288
1173,4,T1_SMS_5,127,5,42,127,325419352
1173,4,T1_SMS_5,128,1,48,41,325866804
1173,4,T1_SMS_5,129,5,42,127,325919196
1173,4,T1_SMS_5,130,1,48,37,326389912
1173,4,T1_SMS_5,131,5,42,127,326418892
1173,4,T1_SMS_5,132,1,48,40,326898504
1173,4,T1_SMS_5,133,5,42,127,326918364
1173,4,T1_SMS_5,134,1,48,44,327387128
1173,4,T1_SMS_5,135,5,42,127,327419180
1173,4,T1_SMS_5,136,1,48,43,327859900
1173,4,T1_SMS_5,137,5,42,127,327918948
1173,4,T1_SMS_5,138,1,48,39,328390936
1173,4,T1_SMS_5,139,5,42,127,328418792
1173,4,T1_SMS_5,140,1,48,45,328870704
1173,4,T1_SMS_5,141,5,42,127,328919312
1173,4,T1_SMS_5,142,1,48,42,329377432
1173,4,T1_SMS_5,143,5,42,127,329419228
1173,4,T1_SMS_5,144,1,48,43,329888948
1173,4,T1_SMS_5,145,5,42,127,329918772
1173,4,T1_SMS_5,146,1,48,41,330377796
1173,4,T1_SMS_5,147,5,42,127,330418396
1173,4,T1_SMS_5,148,1,48,47,330868888
1173,4,T1_SMS_5,149,5,42,127,330919260
1173,4,T1_SMS_5,150,1,48,44,331383988
1173,4,T1_SMS_5,151,5,42,127,331418956
1173,4,T1_SMS_5,152,1,48,40,331883232
1173,4,T1_SMS_5,153,5,42,127,331918724
1173,4,T1_SMS_5,154,1,48,40,332370736
1173,4,T1_SMS_5,155,5,42,127,332418344
1173,4,T1_SMS_5,156,1,48,41,332863552
1173,4,T1_SMS_5,157,5,42,127,332919088
1173,4,T1_SMS_5,158,1,48,40,333394512
1173,4,T1_SMS_5,159,5,42,127,333418780
1173,4,T1_SMS_5,160,1,48,46,333878948
1173,4,T1_SMS_5,161,5,42,127,333918624
1173,4,T1_SMS_5,162,1,48,40,334386800
1173,4,T1_SMS_5,163,5,42,127,334419292
1173,4,T1_SMS_5,164,1,48,39,334883052
1173,4,T1_SMS_5,165,5,42,127,334918916
1173,4,T1_SMS_5,166,1,48,38,335389624
1173,4,T1_SMS_5,167,5,42,127,335418684
1173,4,T1_SMS_5,168,1,48,37,335875336
1173,4,T1_SMS_5,169,5,42,127,335918528
1173,4,T1_SMS_5,170,1,48,41,336358876
1173,4,T1_SMS_5,171,5,42,127,336419048
1173,4,T1_SMS_5,172,1,48,40,336868820
1173,4,T1_SMS_5,173,5,42,127,336918968
1173,4,T1_SMS_5,174,1,48,37,337393196
1173,4,T1_SMS_5,175,5,42,127,337418588
1173,4,T1_SMS_5,176,1,48,42,337883540
1173,4,T1_SMS_5,177,5,42,127,337919624
1173,4,T1_SMS_5,178,1,48,42,338391464
1173,4,T1_SMS_5,179,5,42,127,338419172
1173,4,T1_SMS_5,180,1,48,38,338902000
1173,4,T1_SMS_5,181,5,42,127,338918716
1173,4,T1_SMS_5,182,1,48,40,339402296
1173,4,T1_SMS_5,183,5,42,127,339418488
1173,4,T1_SMS_5,184,1,48,39,339884264
1173,4,T1_SMS_5,185,5,42,127,339919156
1173,4,T1_SMS_5,186,1,48,39,340383936
1173,4,T1_SMS_5,187,5,42,127,340418924
1173,4,T1_SMS_5,188,1,48,36,340870688
1173,4,T1_SMS_5,189,5,42,127,340918692
1173,4,T1_SMS_5,190,1,48,41,341363804
1173,4,T1_SMS_5,191,5,42,127,341419360
1173,4,T1_SMS_5,192,1,48,40,341876728
1173,4,T1_SMS_5,193,5,42,127,341918956
1173,4,T1_SMS_5,194,1,48,36,342371644
1173,4,T1_SMS_5,195,5,42,127,342418652
1173,4,T1_SMS_5,196,1,48,38,342867672
1173,4,T1_SMS_5,197,5,42,127,342918640
1173,4,T1_SMS_5,198,1,48,33,343383968
1173,4,T1_SMS_5,199,5,42,127,343419308
1173,4,T1_SMS_5,200,1,48,35,343895408
1173,4,T1_SMS_5,201,5,42,127,343918932
1173,4,T1_SMS_5,202,1,48,38,344370572
1173,4,T1_SMS_5,203,5,42,127,344418772
1173,4,T1_SMS_5,204,1,48,35,344887092
1173,4,T1_SMS_5,205,5,42,127,344919588
1173,4,T1_SMS_5,206,1,48,37,345402120
1173,4,T1_SMS_5,207,5,42,127,345418988
1173,4,T1_SMS_5,208,1,48,39,345910568
1173,4,T1_SMS_5,209,5,42,127,345918904
1173,4,T1_SMS_5,210,1,48,36,346417780
1173,4,T1_SMS_5,211,5,42,127,346419348
1173,4,T1_SMS_5,212,1,48,44,346896116
1173,4,T1_SMS_5,213,5,42,127,346919340
1173,4,T1_SMS_5,214,5,42,127,347419116
1173,4,T1_SMS_5,215,1,48,42,347434056
1173,4,T1_SMS_5,216,5,42,127,347918664
1173,4,T1_SMS_5,217,1,48,40,347943624
1173,4,T1_SMS_5,218,5,42,127,348418656
1173,4,T1_SMS_5,219,1,48,35,348454988
1173,4,T1_SMS_5,220,5,42,127,348919252
1173,4,T1_SMS_5,221,1,48,36,348959024
1173,4,T1_SMS_5,222,5,42,127,349418800
1173,4,T1_SMS_5,223,1,48,36,349467996
1173,4,T1_SMS_5,224,5,42,127,349918716
1173,4,T1_SMS_5,225,1,48,39,349923556
1173,4,T1_SMS_5,226,1,48,39,350407376
1173,4,T1_SMS_5,227,5,42,127,350419304
1173,4,T1_SMS_5,228,1,48,38,350882656
1173,4,T1_SMS_5,229,5,42,127,350919072
1173,4,T1_SMS_5,230,1,48,40,351396940
1173,4,T1_SMS_5,231,5,42,127,351418768
1173,4,T1_SMS_5,232,1,48,38,351882724
1173,4,T1_SMS_5,233,5,42,127,351918612
1173,4,T1_SMS_5,234,1,48,35,352363120
1173,4,T1_SMS_5,235,5,42,127,352419328
1173,4,T1_SMS_5,236,1,48,38,352844040
1173,4,T1_SMS_5,237,5,42,127,352918800
1173,4,T1_SMS_5,238,1,48,38,353354132
1173,4,T1_SMS_5,239,5,42,127,353418496
1173,4,T1_SMS_5,240,1,48,37,353857120
1173,4,T1_SMS_5,241,5,42,127,353919460
1173,4,T1_SMS_5,242,1,48,41,354348736
1173,4,T1_SMS_5,243,5,42,127,354419080
1173,4,T1_SMS_5,244,1,48,39,354868928
1173,4,T1_SMS_5,245,5,42,127,354918776
1173,4,T1_SMS_5,246,1,48,42,355373780
1173,4,T1_SMS_5,247,5,42,127,355418544
1173,4,T1_SMS_5,248,1,48,38,355867416
1173,4,T1_SMS_5,249,5,42,127,355919288
1173,4,T1_SMS_5,250,1,48,40,356367188
1173,4,T1_SMS_5,251,5,42,127,356419056
1173,4,T1_SMS_5,252,1,48,37,356882212
1173,4,T1_SMS_5,253,5,42,127,356918600
1173,4,T1_SMS_5,254,1,48,37,357398512
1173,4,T1_SMS_5,255,5,42,127,357419344
1173,4,T1_SMS_5,256,1,48,39,357891700
1173,4,T1_SMS_5,0,9999,9999,9999,292916324
1173,4,T1_SMS_5,1,9999,9999,9999,293417012
1173,4,T1_SMS_5,2,9999,9999,9999,293916728
1173,4,T1_SMS_5,3,9999,9999,9999,294416444
1173,4,T1_SMS_5,4,9999,9999,9999,294916156
1173,4,T1_SMS_5,5,9999,9999,9999,295416896
1173,4,T1_SMS_5,6,9999,9999,9999,295916668
1173,4,T1_SMS_5,7,9999,9999,9999,296416320
1173,4,T1_SMS_5,8,9999,9999,9999,296917104
1173,4,T1_SMS_5,9,9999,9999,9999,297416800
1173,4,T1_SMS_5,10,9999,9999,9999,297916492
1173,4,T1_SMS_5,11,9999,9999,9999,298416188
1173,4,T1_SMS_5,12,9999,9999,9999,298916976
1173,4,T1_SMS_5,13,9999,9999,9999,299416672
1173,4,T1_SMS_5,14,9999,9999,9999,299916368
1173,4,T1_SMS_5,15,9999,9999,9999,300416064
1173,4,T1_SMS_5,16,9999,9999,9999,300916804
1173,4,T1_SMS_5,17,9999,9999,9999,301416500
1173,4,T1_SMS_5,18,9999,9999,9999,301916268
1173,4,T1_SMS_5,19,9999,9999,9999,302417012
1173,4,T1_SMS_5,20,9999,9999,9999,302916704
1173,4,T1_SMS_5,21,9999,9999,9999,303416404
1173,4,T1_SMS_5,22,9999,9999,9999,303916100
1173,4,T1_SMS_5,23,9999,9999,9999,304416840
1173,4,T1_SMS_5,24,9999,9999,9999,304916536
1173,4,T1_SMS_5,25,9999,9999,9999,305416304
1173,4,T1_SMS_5,26,9999,9999,9999,305917048
1173,4,T1_SMS_5,27,9999,9999,9999,306416740
1173,4,T1_SMS_5,28,9999,9999,9999,306916436
1173,4,T1_SMS_5,29,9999,9999,9999,307416132
1173,4,T1_SMS_5,30,9999,9999,9999,307916872
1173,4,T1_SMS_5,31,9999,9999,9999,308416564
1173,4,T1_SMS_5,32,9999,9999,9999,308916336
1173,4,T1_SMS_5,33,9999,9999,9999,309417052
1173,4,T1_SMS_5,34,9999,9999,9999,309916748
1173,4,T1_SMS_5,35,9999,9999,9999,310416440
1173,4,T1_SMS_5,36,9999,9999,9999,310916212
1173,4,T1_SMS_5,37,9999,9999,9999,311416952
1173,4,T1_SMS_5,38,9999,9999,9999,311916648
1173,4,T1_SMS_5,39,9999,9999,9999,312416344
1173,4,T1_SMS_5,40,9999,9999,9999,312917084
1173,4,T1_SMS_5,41,9999,9999,9999,313416780
1173,4,T1_SMS_5,42,9999,9999,9999,313916472
1173,4,T1_SMS_5,43,9999,9999,9999,314416244
1173,4,T1_SMS_5,44,9999,9999,9999,314916984
1173,4,T1_SMS_5,45,9999,9999,9999,315416680
1173,4,T1_SMS_5,46,9999,9999,9999,315916376
1173,4,T1_SMS_5,47,9999,9999,9999,316416072
1173,4,T1_SMS_5,48,9999,9999,9999,316916812
1173,4,T1_SMS_5,49,9999,9999,9999,317416508
1173,4,T1_SMS_5,50,9999,9999,9999,317916276
1173,4,T1_SMS_5,51,9999,9999,9999,318417020
1173,4,T1_SMS_5,52,9999,9999,9999,318916712
1173,4,T1_SMS_5,53,9999,9999,9999,319416412
1173,4,T1_SMS_5,54,9999,9999,9999,319916108
1173,4,T1_SMS_5,55,9999,9999,9999,320416824
1173,4,T1_SMS_5,56,9999,9999,9999,320916592
1173,4,T1_SMS_5,57,9999,9999,9999,321416288
1173,4,T1_SMS_5,58,9999,9999,9999,321917032
1173,4,T1_SMS_5,59,9999,9999,9999,322416728
1173,4,T1_SMS_5,60,9999,9999,9999,322916420
1173,4,T1_SMS_5,61,9999,9999,9999,323416120
1173,4,T1_SMS_5,62,9999,9999,9999,323916884
1173,4,T1_SMS_5,63,9999,9999,9999,324416628
1173,4,T1_SMS_5,64,9999,9999,9999,324916324
1173,4,T1_SMS_5,65,9999,9999,9999,325417068
1173,4,T1_SMS_5,66,9999,9999,9999,325916760
1173,4,T1_SMS_5,67,9999,9999,9999,326416456
1173,4,T1_SMS_5,68,9999,9999,9999,326916152
1173,4,T1_SMS_5,69,9999,9999,9999,327416892
1173,4,T1_SMS_5,70,9999,9999,9999,327916664
1173,4,T1_SMS_5,71,9999,9999,9999,328416356
1173,4,T1_SMS_5,72,9999,9999,9999,328917100
1173,4,T1_SMS_5,73,9999,9999,9999,329416792
1173,4,T1_SMS_5,74,9999,9999,9999,329916488
1173,4,T1_SMS_5,75,9999,9999,9999,330416184
1173,4,T1_SMS_5,76,9999,9999,9999,330916972
1173,4,T1_SMS_5,77,9999,9999,9999,331416668
1173,4,T1_SMS_5,78,9999,9999,9999,331916364
1173,4,T1_SMS_5,79,9999,9999,9999,332416060
1173,4,T1_SMS_5,80,9999,9999,9999,332916800
1173,4,T1_SMS_5,81,9999,9999,9999,333416568
1173,4,T1_SMS_5,82,9999,9999,9999,333916264
1173,4,T1_SMS_5,83,9999,9999,9999,334417008
1173,4,T1_SMS_5,84,9999,9999,9999,334916704
1173,4,T1_SMS_5,85,9999,9999,9999,335416400
1173,4,T1_SMS_5,86,9999,9999,9999,335916096
1173,4,T1_SMS_5,87,9999,9999,9999,336416836
1173,4,T1_SMS_5,88,9999,9999,9999,336916532
1173,4,T1_SMS_5,89,9999,9999,9999,337416300
1173,4,T1_SMS_5,90,9999,9999,9999,337917040
1173,4,T1_SMS_5,91,9999,9999,9999,338416736
1173,4,T1_SMS_5,92,9999,9999,9999,338916432
1173,4,T1_SMS_5,93,9999,9999,9999,339416128
1173,4,T1_SMS_5,94,9999,9999,9999,339916868
1173,4,T1_SMS_5,95,9999,9999,9999,340416636
1173,4,T1_SMS_5,96,9999,9999,9999,340916332
1173,4,T1_SMS_5,97,9999,9999,9999,341417076
1173,4,T1_SMS_5,98,9999,9999,9999,341916744
1173,4,T1_SMS_5,99,9999,9999,9999,342416440
1173,4,T1_SMS_5,100,9999,9999,9999,342916208
1173,4,T1_SMS_5,101,9999,9999,9999,343416948
1173,4,T1_SMS_5,102,9999,9999,9999,343916644
1173,4,T1_SMS_5,103,9999,9999,9999,344416340
1173,4,T1_SMS_5,104,9999,9999,9999,344917080
1173,4,T1_SMS_5,105,9999,9999,9999,345416776
1173,4,T1_SMS_5,106,9999,9999,9999,345916472
1173,4,T1_SMS_5,107,9999,9999,9999,346416248
1173,4,T1_SMS_5,108,9999,9999,9999,346916980
1173,4,T1_SMS_5,109,9999,9999,9999,347416684
1173,4,T1_SMS_5,110,9999,9999,9999,347916376
1173,4,T1_SMS_5,111,9999,9999,9999,348416072
1173,4,T1_SMS_5,112,9999,9999,9999,348916816
1173,4,T1_SMS_5,113,9999,9999,9999,349416512
1173,4,T1_SMS_5,114,9999,9999,9999,349916280
1173,4,T1_SMS_5,115,9999,9999,9999,350417016
1173,4,T1_SMS_5,116,9999,9999,9999,350916712
1173,4,T1_SMS_5,117,9999,9999,9999,351416408
1173,4,T1_SMS_5,118,9999,9999,9999,351916104
1173,4,T1_SMS_5,119,9999,9999,9999,352416892
1173,4,T1_SMS_5,120,9999,9999,9999,352916588
1173,4,T1_SMS_5,121,9999,9999,9999,353416284
1173,4,T1_SMS_5,122,9999,9999,9999,353917024
1173,4,T1_SMS_5,123,9999,9999,9999,354416720
1173,4,T1_SMS_5,124,9999,9999,9999,354916416
1173,4,T1_SMS_5,125,9999,9999,9999,355416184
1173,4,T1_SMS_5,126,9999,9999,9999,355916852
1173,4,T1_SMS_5,127,9999,9999,9999,356416620
1173,4,T1_SMS_5,128,9999,9999,9999,356916316
1173,4,T1_SMS_5,129,9999,9999,9999,357417056
1174,2,T1_SMS_8,0,5,42,127,431461008
1174,2,T1_SMS_8,1,5,42,127,432260392
1174,2,T1_SMS_8,2,5,42,127,433061144
1174,2,T1_SMS_8,3,5,42,127,433860824
1174,2,T1_SMS_8,4,5,42,127,434660880
1174,2,T1_SMS_8,5,1,48,53,434663920
1174,2,T1_SMS_8,6,1,48,49,435446436
1174,2,T1_SMS_8,7,5,42,127,435460384
1174,2,T1_SMS_8,8,5,42,127,436261096
1174,2,T1_SMS_8,9,1,48,46,436262960
1174,2,T1_SMS_8,10,5,42,127,437060832
1174,2,T1_SMS_8,11,1,48,48,437100900
1174,2,T1_SMS_8,12,5,42,127,437860712
1174,2,T1_SMS_8,13,1,48,40,437896136
1174,2,T1_SMS_8,14,5,42,127,438660592
1174,2,T1_SMS_8,15,1,48,41,438674856
1174,2,T1_SMS_8,16,1,48,46,439454304
1174,2,T1_SMS_8,17,5,42,127,439461392
1174,2,T1_SMS_8,18,5,42,127,440260836
1174,2,T1_SMS_8,19,1,48,43,440261800
1174,2,T1_SMS_8,20,1,48,41,441036816
1174,2,T1_SMS_8,21,5,42,127,441060860
1174,2,T1_SMS_8,22,1,48,48,441852032
1174,2,T1_SMS_8,23,5,42,127,441860592
1174,2,T1_SMS_8,24,5,42,127,442661084
1174,2,T1_SMS_8,25,1,48,48,442666816
1174,2,T1_SMS_8,26,5,42,127,443460964
1174,2,T1_SMS_8,27,1,48,46,443484652
1174,2,T1_SMS_8,28,5,42,127,444260772
1174,2,T1_SMS_8,29,1,48,47,444323984
1174,2,T1_SMS_8,30,5,42,127,445060436
1174,2,T1_SMS_8,31,1,48,44,445089508
1174,2,T1_SMS_8,32,5,42,127,445861312
1174,2,T1_SMS_8,33,1,48,43,445896896
1174,2,T1_SMS_8,34,5,42,127,446660896
1174,2,T1_SMS_8,35,1,48,41,446682120
1174,2,T1_SMS_8,36,1,48,43,447437628
1174,2,T1_SMS_8,37,5,42,127,447460700
1174,2,T1_SMS_8,38,1,48,48,448226740
1174,2,T1_SMS_8,39,5,42,127,448260504
1174,2,T1_SMS_8,40,5,42,127,449061216
1174,2,T1_SMS_8,41,1,48,41,449075556
1174,2,T1_SMS_8,42,5,42,127,449860952
1174,2,T1_SMS_8,43,1,48,43,449882092
1174,2,T1_SMS_8,44,5,42,127,450660684
1174,2,T1_SMS_8,45,1,48,43,450679656
1174,2,T1_SMS_8,46,5,42,127,451460492
1174,2,T1_SMS_8,47,1,48,37,451497964
1174,2,T1_SMS_8,48,5,42,127,452261148
1174,2,T1_SMS_8,49,1,48,48,452290144
1174,2,T1_SMS_8,50,5,42,127,453060880
1174,2,T1_SMS_8,51,1,48,39,453121072
1174,2,T1_SMS_8,52,1,48,45,453847780
1174,2,T1_SMS_8,53,5,42,127,453860680
1174,2,T1_SMS_8,54,1,48,40,454650880
1174,2,T1_SMS_8,55,5,42,127,454660416
1174,2,T1_SMS_8,56,5,42,127,455461352
1174,2,T1_SMS_8,57,1,48,40,455464996
1174,2,T1_SMS_8,58,1,48,41,456249600
1174,2,T1_SMS_8,59,5,42,127,456260928
1174,2,T1_SMS_8,60,5,42,127,457060668
1174,2,T1_SMS_8,61,1,48,38,457078744
1174,2,T1_SMS_8,62,1,48,41,457854004
1174,2,T1_SMS_8,63,5,42,127,457860616
1174,2,T1_SMS_8,64,5,42,127,458661356
1174,2,T1_SMS_8,65,1,48,44,458685192
1174,2,T1_SMS_8,66,5,42,127,459460940
1174,2,T1_SMS_8,67,1,48,41,459465628
1174,2,T1_SMS_8,68,5,42,127,460260676
1174,2,T1_SMS_8,69,1,48,36,460317348
1174,2,T1_SMS_8,70,5,42,127,461060484
1174,2,T1_SMS_8,71,1,48,44,461081032
1174,2,T1_SMS_8,72,1,48,43,461840352
1174,2,T1_SMS_8,73,5,42,127,461861332
1174,2,T1_SMS_8,74,1,48,43,462637548
1174,2,T1_SMS_8,75,5,42,127,462660992
1174,2,T1_SMS_8,76,1,48,44,463435480
1174,2,T1_SMS_8,77,5,42,127,463460724
1174,2,T1_SMS_8,78,1,48,43,464231248
1174,2,T1_SMS_8,79,5,42,127,464260384
1174,2,T1_SMS_8,80,5,42,127,465061344
1174,2,T1_SMS_8,81,1,48,42,465062308
1174,2,T1_SMS_8,82,5,42,127,465860928
1174,2,T1_SMS_8,83,1,48,37,465883788
1174,2,T1_SMS_8,84,1,48,41,466633392
1174,2,T1_SMS_8,85,5,42,127,466660652
1174,2,T1_SMS_8,86,1,48,47,467439184
1174,2,T1_SMS_8,87,5,42,127,467460460
1174,2,T1_SMS_8,88,5,42,127,468261172
1174,2,T1_SMS_8,89,1,48,38,468269456
1174,2,T1_SMS_8,90,1,48,43,469055704
1174,2,T1_SMS_8,91,5,42,127,469061048
1174,2,T1_SMS_8,92,1,48,45,469842200
1174,2,T1_SMS_8,93,5,42,127,469860708
1174,2,T1_SMS_8,94,1,48,39,470652328
1174,2,T1_SMS_8,95,5,42,127,470660368
1174,2,T1_SMS_8,96,1,48,43,471441064
1174,2,T1_SMS_8,97,5,42,127,471461172
1174,2,T1_SMS_8,98,1,48,38,472218212
1174,2,T1_SMS_8,99,5,42,127,472261052
1174,2,T1_SMS_8,100,1,48,38,472968652
1174,2,T1_SMS_8,101,5,42,127,473060712
1174,2,T1_SMS_8,102,1,48,36,473732408
1174,2,T1_SMS_8,103,5,42,127,473860356
1174,2,T1_SMS_8,104,1,48,44,474558120
1174,2,T1_SMS_8,105,5,42,127,474661356
1174,2,T1_SMS_8,106,1,48,42,475387844
1174,2,T1_SMS_8,107,5,42,127,475460960
1174,2,T1_SMS_8,108,1,48,38,476206656
1174,2,T1_SMS_8,109,5,42,127,476260764
1174,2,T1_SMS_8,110,5,42,127,477060432
1174,2,T1_SMS_8,111,1,48,39,477069308
1174,2,T1_SMS_8,112,5,42,127,477861160
1174,2,T1_SMS_8,113,1,48,36,477891808
1174,2,T1_SMS_8,114,1,48,40,478595456
1174,2,T1_SMS_8,115,5,42,127,478661184
1174,2,T1_SMS_8,116,1,48,36,479409500
1174,2,T1_SMS_8,117,5,42,127,479460844
1174,2,T1_SMS_8,118,1,48,40,480227184
1174,2,T1_SMS_8,119,5,42,127,480260576
1174,2,T1_SMS_8,120,5,42,127,481061288
1174,2,T1_SMS_8,121,1,48,38,481065380
1174,2,T1_SMS_8,122,1,48,40,481858212
1174,2,T1_SMS_8,123,5,42,127,481861088
1174,2,T1_SMS_8,124,5,42,127,482660828
1174,2,T1_SMS_8,125,1,48,34,482679132
1174,2,T1_SMS_8,126,1,48,44,483439204
1174,2,T1_SMS_8,127,5,42,127,483460408
1174,2,T1_SMS_8,128,5,42,127,484261220
1174,2,T1_SMS_8,129,1,48,33,484281840
1174,2,T1_SMS_8,130,5,42,127,485061100
1174,2,T1_SMS_8,131,1,48,38,485072076
1174,2,T1_SMS_8,132,5,42,127,485860984
1174,2,T1_SMS_8,133,1,48,43,485903292
1174,2,T1_SMS_8,134,1,48,43,486654912
1174,2,T1_SMS_8,135,5,42,127,486660336
1174,2,T1_SMS_8,136,5,42,127,487461124
1174,2,T1_SMS_8,137,1,48,35,487475388
1174,2,T1_SMS_8,138,5,42,127,488261004
1174,2,T1_SMS_8,139,1,48,36,488262640
1174,2,T1_SMS_8,140,5,42,127,489060888
1174,2,T1_SMS_8,141,1,48,30,489112924
1174,2,T1_SMS_8,142,5,42,127,489860396
1174,2,T1_SMS_8,143,1,48,36,489883484
1174,2,T1_SMS_8,144,5,42,127,490661204
1174,2,T1_SMS_8,145,1,48,40,490672996
1174,2,T1_SMS_8,146,1,48,44,491458584
1174,2,T1_SMS_8,147,5,42,127,491461008
1174,2,T1_SMS_8,148,1,48,39,492221064
1174,2,T1_SMS_8,149,5,42,127,492260964
1174,2,T1_SMS_8,150,1,48,35,493021168
1174,2,T1_SMS_8,151,5,42,127,493060328
1174,2,T1_SMS_8,152,5,42,127,493861112
1174,2,T1_SMS_8,153,1,48,30,493864008
1174,2,T1_SMS_8,154,1,48,39,494601040
1174,2,T1_SMS_8,155,5,42,127,494660840
1174,2,T1_SMS_8,156,1,48,38,495357764
1174,2,T1_SMS_8,157,5,42,127,495460708
1174,2,T1_SMS_8,158,5,42,127,496260684
1174,2,T1_SMS_8,159,1,48,32,496267768
1174,2,T1_SMS_8,160,5,42,127,497061116
1174,2,T1_SMS_8,161,1,48,31,497085324
1174,2,T1_SMS_8,162,1,48,38,497848692
1174,2,T1_SMS_8,163,5,42,127,497860992
1174,2,T1_SMS_8,164,5,42,127,498660660
1174,2,T1_SMS_8,165,1,48,38,498698032
1174,2,T1_SMS_8,166,5,42,127,499460688
1174,2,T1_SMS_8,167,1,48,41,499502108
1174,2,T1_SMS_8,168,5,42,127,500261320
1174,2,T1_SMS_8,169,1,48,33,500342748
1174,2,T1_SMS_8,170,1,48,34,501053756
1174,2,T1_SMS_8,171,5,42,127,501060824
1174,2,T1_SMS_8,172,5,42,127,501860712
1174,2,T1_SMS_8,173,1,48,42,502492432
1174,2,T1_SMS_8,174,5,42,127,502660596
1174,2,T1_SMS_8,175,1,48,35,503361352
1174,2,T1_SMS_8,176,5,42,127,503461104
1174,2,T1_SMS_8,177,1,48,34,504237628
1174,2,T1_SMS_8,178,5,42,127,504260848
1174,2,T1_SMS_8,179,5,42,127,505060664
1174,2,T1_SMS_8,180,1,48,35,505065348
1174,2,T1_SMS_8,181,1,48,33,505857516
1174,2,T1_SMS_8,182,5,42,127,505860540
1174,2,T1_SMS_8,183,5,42,127,506661328
1174,2,T1_SMS_8,184,1,48,34,506678732
1174,2,T1_SMS_8,185,1,48,36,507457428
1174,2,T1_SMS_8,186,5,42,127,507460980
1174,2,T1_SMS_8,187,1,48,39,508237564
1174,2,T1_SMS_8,188,5,42,127,508260636
1174,2,T1_SMS_8,189,5,42,127,509060452
1174,2,T1_SMS_8,190,1,48,29,509148420
1174,2,T1_SMS_8,191,5,42,127,509861404
1174,2,T1_SMS_8,192,1,48,34,509927956
1174,2,T1_SMS_8,193,1,48,41,510655336
1174,2,T1_SMS_8,194,5,42,127,510660908
1174,2,T1_SMS_8,195,1,48,38,511454548
1174,2,T1_SMS_8,196,5,42,127,511460644
1174,2,T1_SMS_8,197,5,42,127,512260308
1174,2,T1_SMS_8,198,1,48,36,512273524
1174,2,T1_SMS_8,199,1,48,37,513017968
1174,2,T1_SMS_8,200,5,42,127,513061376
1174,2,T1_SMS_8,201,1,48,37,513816120
1174,2,T1_SMS_8,202,5,42,127,513860960
1174,2,T1_SMS_8,203,1,48,33,514605832
1174,2,T1_SMS_8,204,5,42,127,514660696
1174,2,T1_SMS_8,205,1,48,36,515410428
1174,2,T1_SMS_8,206,5,42,127,515460352
1174,2,T1_SMS_8,207,1,48,36,516216444
1174,2,T1_SMS_8,208,5,42,127,516261380
1174,2,T1_SMS_8,209,1,48,36,516995460
1174,2,T1_SMS_8,210,5,42,127,517060964
1174,2,T1_SMS_8,211,1,48,36,517838224
1174,2,T1_SMS_8,212,5,42,127,517860696
1174,2,T1_SMS_8,213,5,42,127,518660364
1174,2,T1_SMS_8,214,1,48,25,518674024
1174,2,T1_SMS_8,215,1,48,31,519449136
1174,2,T1_SMS_8,216,5,42,127,519461288
1174,2,T1_SMS_8,217,1,48,34,520260352
1174,2,T1_SMS_8,218,5,42,127,520261916
1174,2,T1_SMS_8,219,5,42,127,521060588
1174,2,T1_SMS_8,220,1,48,37,521082180
1174,2,T1_SMS_8,221,5,42,127,521860396
1174,2,T1_SMS_8,222,1,48,36,521905348
1174,2,T1_SMS_8,223,1,48,35,522604812
1174,2,T1_SMS_8,224,5,42,127,522661340
1174,2,T1_SMS_8,225,1,48,32,523390184
1174,2,T1_SMS_8,226,5,42,127,523461224
1174,2,T1_SMS_8,227,1,48,32,524202804
1174,2,T1_SMS_8,228,5,42,127,524260732
1174,2,T1_SMS_8,229,1,48,35,525028268
1174,2,T1_SMS_8,230,5,42,127,525060392
1174,2,T1_SMS_8,231,1,48,34,525826212
1174,2,T1_SMS_8,232,5,42,127,525861096
1174,2,T1_SMS_8,233,1,48,35,526598936
1174,2,T1_SMS_8,234,5,42,127,526661056
1174,2,T1_SMS_8,235,1,48,41,527389100
1174,2,T1_SMS_8,0,9999,9999,9999,431458424
1174,2,T1_SMS_8,1,9999,9999,9999,432258104
1174,2,T1_SMS_8,2,9999,9999,9999,433058908
1174,2,T1_SMS_8,3,9999,9999,9999,433858612
1174,2,T1_SMS_8,4,9999,9999,9999,434658368
1174,2,T1_SMS_8,5,9999,9999,9999,435458096
1174,2,T1_SMS_8,6,9999,9999,9999,436258880
1174,2,T1_SMS_8,7,9999,9999,9999,437058616
1174,2,T1_SMS_8,8,9999,9999,9999,437858424
1174,2,T1_SMS_8,9,9999,9999,9999,438658156
1174,2,T1_SMS_8,10,9999,9999,9999,439458932
1174,2,T1_SMS_8,11,9999,9999,9999,440258620
1174,2,T1_SMS_8,12,9999,9999,9999,441058424
1174,2,T1_SMS_8,13,9999,9999,9999,441858156
1174,2,T1_SMS_8,14,9999,9999,9999,442658868
1174,2,T1_SMS_8,15,9999,9999,9999,443458676
1174,2,T1_SMS_8,16,9999,9999,9999,444258408
1174,2,T1_SMS_8,17,9999,9999,9999,445058148
1174,2,T1_SMS_8,18,9999,9999,9999,445858932
1174,2,T1_SMS_8,19,9999,9999,9999,446658608
1174,2,T1_SMS_8,20,9999,9999,9999,447458412
1174,2,T1_SMS_8,21,9999,9999,9999,448258144
1174,2,T1_SMS_8,22,9999,9999,9999,449058928
1174,2,T1_SMS_8,23,9999,9999,9999,449858664
1174,2,T1_SMS_8,24,9999,9999,9999,450658396
1174,2,T1_SMS_8,25,9999,9999,9999,451458128
1174,2,T1_SMS_8,26,9999,9999,9999,452258932
1174,2,T1_SMS_8,27,9999,9999,9999,453058668
1174,2,T1_SMS_8,28,9999,9999,9999,453858392
1174,2,T1_SMS_8,29,9999,9999,9999,454658128
1174,2,T1_SMS_8,30,9999,9999,9999,455458912
1174,2,T1_SMS_8,31,9999,9999,9999,456258640
1174,2,T1_SMS_8,32,9999,9999,9999,457058380
1174,2,T1_SMS_8,33,9999,9999,9999,457858108
1174,2,T1_SMS_8,34,9999,9999,9999,458658920
1174,2,T1_SMS_8,35,9999,9999,9999,459458652
1174,2,T1_SMS_8,36,9999,9999,9999,460258388
1174,2,T1_SMS_8,37,9999,9999,9999,461058120
1174,2,T1_SMS_8,38,9999,9999,9999,461858896
1174,2,T1_SMS_8,39,9999,9999,9999,462658628
1174,2,T1_SMS_8,40,9999,9999,9999,463458364
1174,2,T1_SMS_8,41,9999,9999,9999,464258096
1174,2,T1_SMS_8,42,9999,9999,9999,465058904
1174,2,T1_SMS_8,43,9999,9999,9999,465858640
1174,2,T1_SMS_8,44,9999,9999,9999,466658368
1174,2,T1_SMS_8,45,9999,9999,9999,467458100
1174,2,T1_SMS_8,46,9999,9999,9999,468258884
1174,2,T1_SMS_8,47,9999,9999,9999,469058612
1174,2,T1_SMS_8,48,9999,9999,9999,469858420
1174,2,T1_SMS_8,49,9999,9999,9999,470658152
1174,2,T1_SMS_8,50,9999,9999,9999,471458884
1174,2,T1_SMS_8,51,9999,9999,9999,472258616
1174,2,T1_SMS_8,52,9999,9999,9999,473058424
1174,2,T1_SMS_8,53,9999,9999,9999,473858140
1174,2,T1_SMS_8,54,9999,9999,9999,474658920
1174,2,T1_SMS_8,55,9999,9999,9999,475458672
1174,2,T1_SMS_8,56,9999,9999,9999,476258404
1174,2,T1_SMS_8,57,9999,9999,9999,477058144
1174,2,T1_SMS_8,58,9999,9999,9999,477858872
1174,2,T1_SMS_8,59,9999,9999,9999,478658676
1174,2,T1_SMS_8,60,9999,9999,9999,479458408
1174,2,T1_SMS_8,61,9999,9999,9999,480258140
1174,2,T1_SMS_8,62,9999,9999,9999,481058928
1174,2,T1_SMS_8,63,9999,9999,9999,481858652
1174,2,T1_SMS_8,64,9999,9999,9999,482658392
1174,2,T1_SMS_8,65,9999,9999,9999,483458120
1174,2,T1_SMS_8,66,9999,9999,9999,484258932
1174,2,T1_SMS_8,67,9999,9999,9999,485058664
1174,2,T1_SMS_8,68,9999,9999,9999,485858396
1174,2,T1_SMS_8,69,9999,9999,9999,486658124
1174,2,T1_SMS_8,70,9999,9999,9999,487458912
1174,2,T1_SMS_8,71,9999,9999,9999,488258644
1174,2,T1_SMS_8,72,9999,9999,9999,489058376
1174,2,T1_SMS_8,73,9999,9999,9999,489858108
1174,2,T1_SMS_8,74,9999,9999,9999,490658916
1174,2,T1_SMS_8,75,9999,9999,9999,491458644
1174,2,T1_SMS_8,76,9999,9999,9999,492258380
1174,2,T1_SMS_8,77,9999,9999,9999,493058112
1174,2,T1_SMS_8,78,9999,9999,9999,493858896
1174,2,T1_SMS_8,79,9999,9999,9999,494658624
1174,2,T1_SMS_8,80,9999,9999,9999,495458420
1174,2,T1_SMS_8,81,9999,9999,9999,496258100
1174,2,T1_SMS_8,82,9999,9999,9999,497058904
1174,2,T1_SMS_8,83,9999,9999,9999,497858628
1174,2,T1_SMS_8,84,9999,9999,9999,498658372
1174,2,T1_SMS_8,85,9999,9999,9999,499458104
1174,2,T1_SMS_8,86,9999,9999,9999,500258884
1174,2,T1_SMS_8,87,9999,9999,9999,501058608
1174,2,T1_SMS_8,88,9999,9999,9999,501858424
1174,2,T1_SMS_8,89,9999,9999,9999,502658156
1174,2,T1_SMS_8,90,9999,9999,9999,503458888
1174,2,T1_SMS_8,91,9999,9999,9999,504258636
1174,2,T1_SMS_8,92,9999,9999,9999,505058376
1174,2,T1_SMS_8,93,9999,9999,9999,505858104
1174,2,T1_SMS_8,94,9999,9999,9999,506658888
1174,2,T1_SMS_8,95,9999,9999,9999,507458616
1174,2,T1_SMS_8,96,9999,9999,9999,508258348
1174,2,T1_SMS_8,97,9999,9999,9999,509058164
1174,2,T1_SMS_8,98,9999,9999,9999,509858892
1174,2,T1_SMS_8,99,9999,9999,9999,510658620
1174,2,T1_SMS_8,100,9999,9999,9999,511458356
1174,2,T1_SMS_8,101,9999,9999,9999,512258092
1174,2,T1_SMS_8,102,9999,9999,9999,513058868
1174,2,T1_SMS_8,103,9999,9999,9999,513858672
1174,2,T1_SMS_8,104,9999,9999,9999,514658408
1174,2,T1_SMS_8,105,9999,9999,9999,515458140
1174,2,T1_SMS_8,106,9999,9999,9999,516258868
1174,2,T1_SMS_8,107,9999,9999,9999,517058676
1174,2,T1_SMS_8,108,9999,9999,9999,517858408
1174,2,T1_SMS_8,109,9999,9999,9999,518658148
1174,2,T1_SMS_8,110,9999,9999,9999,519458924
1174,2,T1_SMS_8,111,9999,9999,9999,520258664
1174,2,T1_SMS_8,112,9999,9999,9999,521058372
1174,2,T1_SMS_8,113,9999,9999,9999,521858104
1174,2,T1_SMS_8,114,9999,9999,9999,522658904
1174,2,T1_SMS_8,115,9999,9999,9999,523458636
1174,2,T1_SMS_8,116,9999,9999,9999,524258372
1174,2,T1_SMS_8,117,9999,9999,9999,525058104
1174,2,T1_SMS_8,118,9999,9999,9999,525858884
1174,2,T1_SMS_8,119,9999,9999,9999,526658616
1175,23,Ticks_Phase_5,0,5,42,127,537426300
1175,23,Ticks_Phase_5,1,5,42,127,537925936
1175,23,Ticks_Phase_5,2,5,42,127,538425792
1175,23,Ticks_Phase_5,3,5,42,127,538925356
1175,23,Ticks_Phase_5,4,5,42,127,539426260
1175,23,Ticks_Phase_5,5,5,42,127,539926120
1175,23,Ticks_Phase_5,6,5,42,127,540425532
1175,23,Ticks_Phase_5,7,5,42,127,540926364
1175,23,Ticks_Phase_5,8,1,48,42,541364856
1175,23,Ticks_Phase_5,9,5,42,127,541426216
1175,23,Ticks_Phase_5,10,1,48,42,541878400
1175,23,Ticks_Phase_5,11,5,42,127,541925980
1175,23,Ticks_Phase_5,12,1,48,33,542397928
1175,23,Ticks_Phase_5,13,5,42,127,542425368
1175,23,Ticks_Phase_5,14,1,48,45,542917536
1175,23,Ticks_Phase_5,15,5,42,127,542926176
1175,23,Ticks_Phase_5,16,1,48,43,543402168
1175,23,Ticks_Phase_5,17,5,42,127,543425940
1175,23,Ticks_Phase_5,18,1,48,39,543920208
1175,23,Ticks_Phase_5,19,5,42,127,543925852
1175,23,Ticks_Phase_5,20,5,42,127,544426296
1175,23,Ticks_Phase_5,21,1,48,38,544436912
1175,23,Ticks_Phase_5,22,1,48,43,544905032
1175,23,Ticks_Phase_5,23,5,42,127,544926176
1175,23,Ticks_Phase_5,24,1,48,39,545407316
1175,23,Ticks_Phase_5,25,5,42,127,545425988
1175,23,Ticks_Phase_5,26,1,48,36,545897416
1175,23,Ticks_Phase_5,27,5,42,127,545925456
1175,23,Ticks_Phase_5,28,1,48,33,546401596
1175,23,Ticks_Phase_5,29,5,42,127,546426192
1175,23,Ticks_Phase_5,30,1,48,34,546863700
1175,23,Ticks_Phase_5,31,5,42,127,546925880
1175,23,Ticks_Phase_5,32,1,48,34,547396108
1175,23,Ticks_Phase_5,33,5,42,127,547425940
1175,23,Ticks_Phase_5,34,1,48,34,547904332
1175,23,Ticks_Phase_5,35,5,42,127,547926380
1175,23,Ticks_Phase_5,36,1,48,36,548411276
1175,23,Ticks_Phase_5,37,5,42,127,548425992
1175,23,Ticks_Phase_5,38,1,48,35,548896664
1175,23,Ticks_Phase_5,39,5,42,127,548925904
1175,23,Ticks_Phase_5,40,1,48,38,549395088
1175,23,Ticks_Phase_5,41,5,42,127,549425744
1175,23,Ticks_Phase_5,42,1,48,36,549888264
1175,23,Ticks_Phase_5,43,5,42,127,549926260
1175,23,Ticks_Phase_5,44,1,48,34,550392140
1175,23,Ticks_Phase_5,45,5,42,127,550425948
1175,23,Ticks_Phase_5,46,1,48,28,550917596
1175,23,Ticks_Phase_5,47,5,42,127,550925932
1175,23,Ticks_Phase_5,48,5,42,127,551426528
1175,23,Ticks_Phase_5,49,1,48,32,551436616
1175,23,Ticks_Phase_5,50,1,48,36,551911944
1175,23,Ticks_Phase_5,51,5,42,127,551936320
1175,23,Ticks_Phase_5,52,1,48,36,552387376
1175,23,Ticks_Phase_5,53,5,42,127,552425824
1175,23,Ticks_Phase_5,54,1,48,34,552901508
1175,23,Ticks_Phase_5,55,5,42,127,552925808
1175,23,Ticks_Phase_5,56,1,48,38,553392512
1175,23,Ticks_Phase_5,57,5,42,127,553426248
1175,23,Ticks_Phase_5,58,1,48,35,553889508
1175,23,Ticks_Phase_5,59,5,42,127,553925936
1175,23,Ticks_Phase_5,60,1,48,33,554388272
1175,23,Ticks_Phase_5,61,5,42,127,554425696
1175,23,Ticks_Phase_5,62,1,48,31,554903768
1175,23,Ticks_Phase_5,63,5,42,127,554925608
1175,23,Ticks_Phase_5,64,1,48,35,555400896
1175,23,Ticks_Phase_5,65,5,42,127,555426120
1175,23,Ticks_Phase_5,66,1,48,35,555883588
1175,23,Ticks_Phase_5,67,5,42,127,555925784
1175,23,Ticks_Phase_5,68,1,48,32,556368824
1175,23,Ticks_Phase_5,69,5,42,127,556425472
1175,23,Ticks_Phase_5,70,1,48,34,556889556
1175,23,Ticks_Phase_5,71,5,42,127,556926428
1175,23,Ticks_Phase_5,72,1,48,39,557344464
1175,23,Ticks_Phase_5,73,5,42,127,557425968
1175,23,Ticks_Phase_5,74,1,48,33,557904436
1175,23,Ticks_Phase_5,75,5,42,127,557925804
1175,23,Ticks_Phase_5,76,1,48,36,558370044
1175,23,Ticks_Phase_5,77,5,42,127,558425568
1175,23,Ticks_Phase_5,78,1,48,30,558878420
1175,23,Ticks_Phase_5,79,5,42,127,558926304
1175,23,Ticks_Phase_5,80,1,48,30,559376388
1175,23,Ticks_Phase_5,81,5,42,127,559425988
1175,23,Ticks_Phase_5,82,1,48,39,559858472
1175,23,Ticks_Phase_5,83,5,42,127,559925752
1175,23,Ticks_Phase_5,84,1,48,33,560397928
1175,23,Ticks_Phase_5,85,5,42,127,560426412
1175,23,Ticks_Phase_5,86,1,48,35,560889820
1175,23,Ticks_Phase_5,87,5,42,127,560926176
1175,23,Ticks_Phase_5,88,1,48,37,561402992
1175,23,Ticks_Phase_5,89,5,42,127,561436052
1175,23,Ticks_Phase_5,90,1,48,32,561894452
1175,23,Ticks_Phase_5,91,5,42,127,561935664
1175,23,Ticks_Phase_5,92,1,48,34,562386792
1175,23,Ticks_Phase_5,93,5,42,127,562435352
1175,23,Ticks_Phase_5,94,1,48,36,562889624
1175,23,Ticks_Phase_5,95,5,42,127,562936384
1175,23,Ticks_Phase_5,96,1,48,35,563379876
1175,23,Ticks_Phase_5,97,5,42,127,563436000
1175,23,Ticks_Phase_5,98,1,48,30,563923372
1175,23,Ticks_Phase_5,99,5,42,127,563935688
1175,23,Ticks_Phase_5,100,1,48,37,564412348
1175,23,Ticks_Phase_5,101,5,42,127,564436424
1175,23,Ticks_Phase_5,102,1,48,32,564906800
1175,23,Ticks_Phase_5,103,5,42,127,564936036
1175,23,Ticks_Phase_5,104,1,48,34,565417204
1175,23,Ticks_Phase_5,105,5,42,127,565435724
1175,23,Ticks_Phase_5,106,1,48,31,565913480
1175,23,Ticks_Phase_5,107,5,42,127,565935488
1175,23,Ticks_Phase_5,108,1,48,35,566399100
1175,23,Ticks_Phase_5,109,5,42,127,566436220
1175,23,Ticks_Phase_5,110,1,48,36,566890244
1175,23,Ticks_Phase_5,111,5,42,127,566935888
1175,23,Ticks_Phase_5,112,1,48,33,567393464
1175,23,Ticks_Phase_5,113,5,42,127,567435648
1175,23,Ticks_Phase_5,114,1,48,35,567884988
1175,23,Ticks_Phase_5,115,5,42,127,567936312
1175,23,Ticks_Phase_5,116,1,48,34,568405936
1175,23,Ticks_Phase_5,117,5,42,127,568436148
1175,23,Ticks_Phase_5,118,1,48,36,568903748
1175,23,Ticks_Phase_5,119,5,42,127,568935908
1175,23,Ticks_Phase_5,120,1,48,35,569411300
1175,23,Ticks_Phase_5,121,5,42,127,569456044
1175,23,Ticks_Phase_5,122,1,48,35,569917816
1175,23,Ticks_Phase_5,123,5,42,127,569955808
1175,23,Ticks_Phase_5,124,1,48,38,570392480
1175,23,Ticks_Phase_5,125,5,42,127,570456548
1175,23,Ticks_Phase_5,126,1,48,32,570916664
1175,23,Ticks_Phase_5,127,5,42,127,570966424
1175,23,Ticks_Phase_5,128,1,48,38,571383392
1175,23,Ticks_Phase_5,129,5,42,127,571466032
1175,23,Ticks_Phase_5,130,1,48,29,571898440
1175,23,Ticks_Phase_5,131,5,42,127,571965796
1175,23,Ticks_Phase_5,132,1,48,30,572406220
1175,23,Ticks_Phase_5,133,5,42,127,572465484
1175,23,Ticks_Phase_5,134,1,48,34,572912188
1175,23,Ticks_Phase_5,135,5,42,127,572966216
1175,23,Ticks_Phase_5,136,1,48,36,573420340
1175,23,Ticks_Phase_5,137,5,42,127,573465908
1175,23,Ticks_Phase_5,138,1,48,35,573887308
1175,23,Ticks_Phase_5,139,5,42,127,573965820
1175,23,Ticks_Phase_5,140,1,48,29,574417776
1175,23,Ticks_Phase_5,141,5,42,127,574466408
1175,23,Ticks_Phase_5,142,1,48,35,574905108
1175,23,Ticks_Phase_5,143,5,42,127,574976356
1175,23,Ticks_Phase_5,144,1,48,32,575412800
1175,23,Ticks_Phase_5,145,5,42,127,575476192
1175,23,Ticks_Phase_5,146,1,48,30,575913760
1175,23,Ticks_Phase_5,147,5,42,127,575975804
1175,23,Ticks_Phase_5,148,1,48,32,576429560
1175,23,Ticks_Phase_5,149,5,42,127,576475496
1175,23,Ticks_Phase_5,150,1,48,33,576927828
1175,23,Ticks_Phase_5,151,5,42,127,576976228
1175,23,Ticks_Phase_5,152,1,48,34,577435880
1175,23,Ticks_Phase_5,153,5,42,127,577475968
1175,23,Ticks_Phase_5,154,1,48,33,577954304
1175,23,Ticks_Phase_5,155,5,42,127,577956112
1175,23,Ticks_Phase_5,156,1,48,33,578425644
1175,23,Ticks_Phase_5,157,5,42,127,578456072
1175,23,Ticks_Phase_5,158,1,48,32,578923448
1175,23,Ticks_Phase_5,159,5,42,127,578955612
1175,23,Ticks_Phase_5,160,1,48,34,579406220
1175,23,Ticks_Phase_5,161,5,42,127,579456352
1175,23,Ticks_Phase_5,162,1,48,32,579922676
1175,23,Ticks_Phase_5,163,5,42,127,579956036
1175,23,Ticks_Phase_5,164,1,48,35,580404172
1175,23,Ticks_Phase_5,165,5,42,127,580455724
1175,23,Ticks_Phase_5,166,1,48,32,580898172
1175,23,Ticks_Phase_5,167,5,42,127,580955488
1175,23,Ticks_Phase_5,168,1,48,31,581404224
1175,23,Ticks_Phase_5,169,5,42,127,581456224
1175,23,Ticks_Phase_5,170,1,48,28,581904212
1175,23,Ticks_Phase_5,171,5,42,127,581956060
1175,23,Ticks_Phase_5,172,1,48,33,582377164
1175,23,Ticks_Phase_5,173,5,42,127,582455676
1175,23,Ticks_Phase_5,174,1,48,31,582935044
1175,23,Ticks_Phase_5,175,5,42,127,582956340
1175,23,Ticks_Phase_5,176,1,48,34,583434880
1175,23,Ticks_Phase_5,177,5,42,127,583456176
1175,23,Ticks_Phase_5,178,1,48,32,583945200
1175,23,Ticks_Phase_5,179,5,42,127,583956088
1175,23,Ticks_Phase_5,180,1,48,31,584444972
1175,23,Ticks_Phase_5,181,5,42,127,584455480
1175,23,Ticks_Phase_5,182,1,48,28,584936644
1175,23,Ticks_Phase_5,183,5,42,127,584956216
1175,23,Ticks_Phase_5,184,1,48,35,585421124
1175,23,Ticks_Phase_5,185,5,42,127,585456200
1175,23,Ticks_Phase_5,186,5,42,127,585905648
1175,23,Ticks_Phase_5,187,1,48,29,585943152
1175,23,Ticks_Phase_5,188,5,42,127,586406160
1175,23,Ticks_Phase_5,189,1,48,33,586441780
1175,23,Ticks_Phase_5,190,1,48,36,586885200
1175,23,Ticks_Phase_5,191,5,42,127,586906040
1175,23,Ticks_Phase_5,192,5,42,127,587405784
1175,23,Ticks_Phase_5,193,1,48,28,587437468
1175,23,Ticks_Phase_5,194,5,42,127,587906376
1175,23,Ticks_Phase_5,195,1,48,30,587936108
1175,23,Ticks_Phase_5,196,5,42,127,588416328
1175,23,Ticks_Phase_5,197,1,48,33,588424912
1175,23,Ticks_Phase_5,198,1,48,33,588914192
1175,23,Ticks_Phase_5,199,5,42,127,588916004
1175,23,Ticks_Phase_5,200,1,48,33,589413108
1175,23,Ticks_Phase_5,201,5,42,127,589415764
1175,23,Ticks_Phase_5,202,1,48,32,589910256
1175,23,Ticks_Phase_5,203,5,42,127,589915528
1175,23,Ticks_Phase_5,204,1,48,28,590393308
1175,23,Ticks_Phase_5,205,5,42,127,590416188
1175,23,Ticks_Phase_5,206,1,48,29,590878480
1175,23,Ticks_Phase_5,207,5,42,127,590915876
1175,23,Ticks_Phase_5,208,1,48,28,591373456
1175,23,Ticks_Phase_5,209,5,42,127,591415788
1175,23,Ticks_Phase_5,210,1,48,31,591857716
1175,23,Ticks_Phase_5,211,5,42,127,591916456
1175,23,Ticks_Phase_5,212,1,48,33,592362036
1175,23,Ticks_Phase_5,213,5,42,127,592416064
1175,23,Ticks_Phase_5,214,1,48,35,592860076
1175,23,Ticks_Phase_5,215,5,42,127,592915752
1175,23,Ticks_Phase_5,216,1,48,32,593361940
1175,23,Ticks_Phase_5,217,5,42,127,593415592
1175,23,Ticks_Phase_5,218,1,48,29,593880352
1175,23,Ticks_Phase_5,219,5,42,127,593916180
1175,23,Ticks_Phase_5,220,1,48,33,594385584
1175,23,Ticks_Phase_5,221,5,42,127,594466120
1175,23,Ticks_Phase_5,222,1,48,26,594936644
1175,23,Ticks_Phase_5,223,5,42,127,594966032
1175,23,Ticks_Phase_5,224,1,48,31,595416792
1175,23,Ticks_Phase_5,225,5,42,127,595465572
1175,23,Ticks_Phase_5,226,1,48,27,595917452
1175,23,Ticks_Phase_5,227,5,42,127,595966232
1175,23,Ticks_Phase_5,228,1,48,23,596455332
1175,23,Ticks_Phase_5,229,5,42,127,596466068
1175,23,Ticks_Phase_5,230,1,48,26,596943252
1175,23,Ticks_Phase_5,231,5,42,127,596965904
1175,23,Ticks_Phase_5,232,1,48,27,597443240
1175,23,Ticks_Phase_5,233,5,42,127,597465444
1175,23,Ticks_Phase_5,234,1,48,27,597952212
1175,23,Ticks_Phase_5,235,5,42,127,597966180
1175,23,Ticks_Phase_5,236,1,48,27,598462456
1175,23,Ticks_Phase_5,237,5,42,127,598466012
1175,23,Ticks_Phase_5,238,1,48,29,598925812
1175,23,Ticks_Phase_5,239,5,42,127,598965852
1175,23,Ticks_Phase_5,240,1,48,26,599393524
1175,23,Ticks_Phase_5,241,5,42,127,599466216
1175,23,Ticks_Phase_5,242,1,48,25,599943684
1175,23,Ticks_Phase_5,243,5,42,127,599966124
1175,23,Ticks_Phase_5,244,5,42,127,600465868
1175,23,Ticks_Phase_5,245,1,48,25,600474764
1175,23,Ticks_Phase_5,246,1,48,27,600953804
1175,23,Ticks_Phase_5,247,5,42,127,600965748
1175,23,Ticks_Phase_5,248,1,48,32,601447964
1175,23,Ticks_Phase_5,249,5,42,127,601466188
1175,23,Ticks_Phase_5,250,1,48,27,601954992
1175,23,Ticks_Phase_5,251,5,42,127,601965876
1175,23,Ticks_Phase_5,252,1,48,25,602456104
1175,23,Ticks_Phase_5,253,5,42,127,602465860
1175,23,Ticks_Phase_5,254,1,48,24,602959604
1175,23,Ticks_Phase_5,255,5,42,127,603065760
1175,23,Ticks_Phase_5,256,5,42,127,603565544
1175,23,Ticks_Phase_5,257,1,48,24,603856036
1175,23,Ticks_Phase_5,258,5,42,127,604066132
1175,23,Ticks_Phase_5,259,1,48,24,604350704
1175,23,Ticks_Phase_5,260,5,42,127,604565872
1175,23,Ticks_Phase_5,261,1,48,27,604805736
1175,23,Ticks_Phase_5,262,5,42,127,605065708
1175,23,Ticks_Phase_5,263,1,48,25,605305500
1175,23,Ticks_Phase_5,264,5,42,127,605566220
1175,23,Ticks_Phase_5,265,1,48,28,605848392
1175,23,Ticks_Phase_5,266,5,42,127,606066056
1175,23,Ticks_Phase_5,267,1,48,29,606435504
1175,23,Ticks_Phase_5,268,5,42,127,606565668
1175,23,Ticks_Phase_5,269,1,48,31,606942068
1175,23,Ticks_Phase_5,270,5,42,127,607065504
1175,23,Ticks_Phase_5,271,1,48,29,607467376
1175,23,Ticks_Phase_5,272,5,42,127,607566164
1175,23,Ticks_Phase_5,273,1,48,34,607993868
1175,23,Ticks_Phase_5,274,5,42,127,608065868
1175,23,Ticks_Phase_5,275,1,48,34,608523672
1175,23,Ticks_Phase_5,276,5,42,127,608565704
1175,23,Ticks_Phase_5,277,1,48,33,609020872
1175,23,Ticks_Phase_5,278,5,42,127,609066292
1175,23,Ticks_Phase_5,279,1,48,35,609526336
1175,23,Ticks_Phase_5,280,5,42,127,609566052
1175,23,Ticks_Phase_5,281,1,48,31,610043316
1175,23,Ticks_Phase_5,282,5,42,127,610065744
1175,23,Ticks_Phase_5,283,1,48,29,610546756
1175,23,Ticks_Phase_5,284,5,42,127,610565580
1175,23,Ticks_Phase_5,285,1,48,31,611066620
1175,23,Ticks_Phase_5,286,5,42,127,611067812
1175,23,Ticks_Phase_5,287,1,48,37,611530852
1175,23,Ticks_Phase_5,288,5,42,127,611566004
1175,23,Ticks_Phase_5,289,5,42,127,612065700
1175,23,Ticks_Phase_5,290,1,48,27,612070540
1175,23,Ticks_Phase_5,291,5,42,127,612465916
1175,23,Ticks_Phase_5,292,1,48,32,612554064
1175,23,Ticks_Phase_5,293,5,42,127,612965604
1175,23,Ticks_Phase_5,294,1,48,25,613007816
1175,23,Ticks_Phase_5,295,1,48,28,613402340
1175,23,Ticks_Phase_5,296,5,42,127,613465508
1175,23,Ticks_Phase_5,297,1,48,29,613882260
1175,23,Ticks_Phase_5,298,5,42,127,613966316
1175,23,Ticks_Phase_5,299,1,48,26,614403228
1175,23,Ticks_Phase_5,300,5,42,127,614465928
1175,23,Ticks_Phase_5,301,1,48,31,614893536
1175,23,Ticks_Phase_5,302,5,42,127,614965620
1175,23,Ticks_Phase_5,303,1,48,28,615415700
1175,23,Ticks_Phase_5,304,5,42,127,615466352
1175,23,Ticks_Phase_5,305,1,48,34,615907972
1175,23,Ticks_Phase_5,306,5,42,127,615966188
1175,23,Ticks_Phase_5,307,1,48,28,616438736
1175,23,Ticks_Phase_5,308,5,42,127,616465728
1175,23,Ticks_Phase_5,309,1,48,30,616901656
1175,23,Ticks_Phase_5,310,5,42,127,616965344
1175,23,Ticks_Phase_5,311,1,48,29,617426508
1175,23,Ticks_Phase_5,312,5,42,127,617466152
1175,23,Ticks_Phase_5,313,1,48,33,617920204
1175,23,Ticks_Phase_5,314,5,42,127,617965992
1175,23,Ticks_Phase_5,315,1,48,23,618430528
1175,23,Ticks_Phase_5,316,5,42,127,618465604
1175,23,Ticks_Phase_5,317,1,48,27,618935536
1175,23,Ticks_Phase_5,318,5,42,127,618966564
1175,23,Ticks_Phase_5,319,1,48,34,619419268
1175,23,Ticks_Phase_5,320,5,42,127,619466104
1175,23,Ticks_Phase_5,321,1,48,35,619916232
1175,23,Ticks_Phase_5,322,5,42,127,619965788
1175,23,Ticks_Phase_5,323,1,48,33,620428356
1175,23,Ticks_Phase_5,324,5,42,127,620465480
1175,23,Ticks_Phase_5,325,1,48,30,620930136
1175,23,Ticks_Phase_5,326,5,42,127,620966436
1175,23,Ticks_Phase_5,327,1,48,39,621402412
1175,23,Ticks_Phase_5,328,5,42,127,621465952
1175,23,Ticks_Phase_5,329,1,48,34,621928740
1175,23,Ticks_Phase_5,330,5,42,127,621965692
1175,23,Ticks_Phase_5,0,9999,9999,9999,537423940
1175,23,Ticks_Phase_5,1,9999,9999,9999,537923648
1175,23,Ticks_Phase_5,2,9999,9999,9999,538423356
1175,23,Ticks_Phase_5,3,9999,9999,9999,538923068
1175,23,Ticks_Phase_5,4,9999,9999,9999,539423824
1175,23,Ticks_Phase_5,5,9999,9999,9999,539923536
1175,23,Ticks_Phase_5,6,9999,9999,9999,540423248
1175,23,Ticks_Phase_5,7,9999,9999,9999,540924000
1175,23,Ticks_Phase_5,8,9999,9999,9999,541423704
1175,23,Ticks_Phase_5,9,9999,9999,9999,541923396
1175,23,Ticks_Phase_5,10,9999,9999,9999,542423156
1175,23,Ticks_Phase_5,11,9999,9999,9999,542923892
1175,23,Ticks_Phase_5,12,9999,9999,9999,543423580
1175,23,Ticks_Phase_5,13,9999,9999,9999,543923268
1175,23,Ticks_Phase_5,14,9999,9999,9999,544424012
1175,23,Ticks_Phase_5,15,9999,9999,9999,544923744
1175,23,Ticks_Phase_5,16,9999,9999,9999,545423480
1175,23,Ticks_Phase_5,17,9999,9999,9999,545923172
1175,23,Ticks_Phase_5,18,9999,9999,9999,546423904
1175,23,Ticks_Phase_5,19,9999,9999,9999,546923592
1175,23,Ticks_Phase_5,20,9999,9999,9999,547423356
1175,23,Ticks_Phase_5,21,9999,9999,9999,547924092
1175,23,Ticks_Phase_5,22,9999,9999,9999,548423780
1175,23,Ticks_Phase_5,23,9999,9999,9999,548923468
1175,23,Ticks_Phase_5,24,9999,9999,9999,549423160
1175,23,Ticks_Phase_5,25,9999,9999,9999,549923896
1175,23,Ticks_Phase_5,26,9999,9999,9999,550423660
1175,23,Ticks_Phase_5,27,9999,9999,9999,550923348
1175,23,Ticks_Phase_5,28,9999,9999,9999,551424088
1175,23,Ticks_Phase_5,29,9999,9999,9999,551934032
1175,23,Ticks_Phase_5,30,9999,9999,9999,552423536
1175,23,Ticks_Phase_5,31,9999,9999,9999,552923224
1175,23,Ticks_Phase_5,32,9999,9999,9999,553423960
1175,23,Ticks_Phase_5,33,9999,9999,9999,553923648
1175,23,Ticks_Phase_5,34,9999,9999,9999,554423412
1175,23,Ticks_Phase_5,35,9999,9999,9999,554923100
1175,23,Ticks_Phase_5,36,9999,9999,9999,555423832
1175,23,Ticks_Phase_5,37,9999,9999,9999,555923572
1175,23,Ticks_Phase_5,38,9999,9999,9999,556423260
1175,23,Ticks_Phase_5,39,9999,9999,9999,556923992
1175,23,Ticks_Phase_5,40,9999,9999,9999,557423680
1175,23,Ticks_Phase_5,41,9999,9999,9999,557923444
1175,23,Ticks_Phase_5,42,9999,9999,9999,558423132
1175,23,Ticks_Phase_5,43,9999,9999,9999,558923868
1175,23,Ticks_Phase_5,44,9999,9999,9999,559423556
1175,23,Ticks_Phase_5,45,9999,9999,9999,559923316
1175,23,Ticks_Phase_5,46,9999,9999,9999,560424052
1175,23,Ticks_Phase_5,47,9999,9999,9999,560923740
1175,23,Ticks_Phase_5,48,9999,9999,9999,561433688
1175,23,Ticks_Phase_5,49,9999,9999,9999,561933380
1175,23,Ticks_Phase_5,50,9999,9999,9999,562433140
1175,23,Ticks_Phase_5,51,9999,9999,9999,562933876
1175,23,Ticks_Phase_5,52,9999,9999,9999,563433564
1175,23,Ticks_Phase_5,53,9999,9999,9999,563933256
1175,23,Ticks_Phase_5,54,9999,9999,9999,564433988
1175,23,Ticks_Phase_5,55,9999,9999,9999,564933752
1175,23,Ticks_Phase_5,56,9999,9999,9999,565433440
1175,23,Ticks_Phase_5,57,9999,9999,9999,565933128
1175,23,Ticks_Phase_5,58,9999,9999,9999,566433860
1175,23,Ticks_Phase_5,59,9999,9999,9999,566933600
1175,23,Ticks_Phase_5,60,9999,9999,9999,567433288
1175,23,Ticks_Phase_5,61,9999,9999,9999,567934024
1175,23,Ticks_Phase_5,62,9999,9999,9999,568433788
1175,23,Ticks_Phase_5,63,9999,9999,9999,568933472
1175,23,Ticks_Phase_5,64,9999,9999,9999,569453684
1175,23,Ticks_Phase_5,65,9999,9999,9999,569953372
1175,23,Ticks_Phase_5,66,9999,9999,9999,570454112
1175,23,Ticks_Phase_5,67,9999,9999,9999,570964060
1175,23,Ticks_Phase_5,68,9999,9999,9999,571463748
1175,23,Ticks_Phase_5,69,9999,9999,9999,571963508
1175,23,Ticks_Phase_5,70,9999,9999,9999,572463196
1175,23,Ticks_Phase_5,71,9999,9999,9999,572963932
1175,23,Ticks_Phase_5,72,9999,9999,9999,573463620
1175,23,Ticks_Phase_5,73,9999,9999,9999,573963384
1175,23,Ticks_Phase_5,74,9999,9999,9999,574464120
1175,23,Ticks_Phase_5,75,9999,9999,9999,574974068
1175,23,Ticks_Phase_5,76,9999,9999,9999,575473756
1175,23,Ticks_Phase_5,77,9999,9999,9999,575973444
1175,23,Ticks_Phase_5,78,9999,9999,9999,576473208
1175,23,Ticks_Phase_5,79,9999,9999,9999,576973944
1175,23,Ticks_Phase_5,80,9999,9999,9999,577473608
1175,23,Ticks_Phase_5,81,9999,9999,9999,577953848
1175,23,Ticks_Phase_5,82,9999,9999,9999,578453564
1175,23,Ticks_Phase_5,83,9999,9999,9999,578953328
1175,23,Ticks_Phase_5,84,9999,9999,9999,579454060
1175,23,Ticks_Phase_5,85,9999,9999,9999,579953752
1175,23,Ticks_Phase_5,86,9999,9999,9999,580453440
1175,23,Ticks_Phase_5,87,9999,9999,9999,580953200
1175,23,Ticks_Phase_5,88,9999,9999,9999,581453936
1175,23,Ticks_Phase_5,89,9999,9999,9999,581953628
1175,23,Ticks_Phase_5,90,9999,9999,9999,582453316
1175,23,Ticks_Phase_5,91,9999,9999,9999,582954052
1175,23,Ticks_Phase_5,92,9999,9999,9999,583453812
1175,23,Ticks_Phase_5,93,9999,9999,9999,583953504
1175,23,Ticks_Phase_5,94,9999,9999,9999,584453192
1175,23,Ticks_Phase_5,95,9999,9999,9999,584953928
1175,23,Ticks_Phase_5,96,9999,9999,9999,585453692
1175,23,Ticks_Phase_5,97,9999,9999,9999,585903212
1175,23,Ticks_Phase_5,98,9999,9999,9999,586403948
1175,23,Ticks_Phase_5,99,9999,9999,9999,586903680
1175,23,Ticks_Phase_5,100,9999,9999,9999,587403348
1175,23,Ticks_Phase_5,101,9999,9999,9999,587904088
1175,23,Ticks_Phase_5,102,9999,9999,9999,588414036
1175,23,Ticks_Phase_5,103,9999,9999,9999,588913740
1175,23,Ticks_Phase_5,104,9999,9999,9999,589413480
1175,23,Ticks_Phase_5,105,9999,9999,9999,589913168
1175,23,Ticks_Phase_5,106,9999,9999,9999,590413900
1175,23,Ticks_Phase_5,107,9999,9999,9999,590913592
1175,23,Ticks_Phase_5,108,9999,9999,9999,591413352
1175,23,Ticks_Phase_5,109,9999,9999,9999,591914092
1175,23,Ticks_Phase_5,110,9999,9999,9999,592413780
1175,23,Ticks_Phase_5,111,9999,9999,9999,592913468
1175,23,Ticks_Phase_5,112,9999,9999,9999,593413232
1175,23,Ticks_Phase_5,113,9999,9999,9999,593913964
1175,23,Ticks_Phase_5,114,9999,9999,9999,594463832
1175,23,Ticks_Phase_5,115,9999,9999,9999,594963520
1175,23,Ticks_Phase_5,116,9999,9999,9999,595463284
1175,23,Ticks_Phase_5,117,9999,9999,9999,595964020
1175,23,Ticks_Phase_5,118,9999,9999,9999,596463708
1175,23,Ticks_Phase_5,119,9999,9999,9999,596963392
1175,23,Ticks_Phase_5,120,9999,9999,9999,597463156
1175,23,Ticks_Phase_5,121,9999,9999,9999,597963892
1175,23,Ticks_Phase_5,122,9999,9999,9999,598463580
1175,23,Ticks_Phase_5,123,9999,9999,9999,598963268
1175,23,Ticks_Phase_5,124,9999,9999,9999,599464004
1175,23,Ticks_Phase_5,125,9999,9999,9999,599963764
1175,23,Ticks_Phase_5,126,9999,9999,9999,600463436
1175,23,Ticks_Phase_5,127,9999,9999,9999,600963164
1175,23,Ticks_Phase_5,128,9999,9999,9999,601463900
1175,23,Ticks_Phase_5,129,9999,9999,9999,601963588
1175,23,Ticks_Phase_5,130,9999,9999,9999,602463352
1175,23,Ticks_Phase_5,131,9999,9999,9999,603063396
1175,23,Ticks_Phase_5,132,9999,9999,9999,603563108
1175,23,Ticks_Phase_5,133,9999,9999,9999,604063848
1175,23,Ticks_Phase_5,134,9999,9999,9999,604563508
1175,23,Ticks_Phase_5,135,9999,9999,9999,605063272
1175,23,Ticks_Phase_5,136,9999,9999,9999,605564004
1175,23,Ticks_Phase_5,137,9999,9999,9999,606063692
1175,23,Ticks_Phase_5,138,9999,9999,9999,606563456
1175,23,Ticks_Phase_5,139,9999,9999,9999,607063144
1175,23,Ticks_Phase_5,140,9999,9999,9999,607563880
1175,23,Ticks_Phase_5,141,9999,9999,9999,608063580
1175,23,Ticks_Phase_5,142,9999,9999,9999,608563268
1175,23,Ticks_Phase_5,143,9999,9999,9999,609064004
1175,23,Ticks_Phase_5,144,9999,9999,9999,609563768
1175,23,Ticks_Phase_5,145,9999,9999,9999,610063456
1175,23,Ticks_Phase_5,146,9999,9999,9999,610563144
1175,23,Ticks_Phase_5,147,9999,9999,9999,611063888
1175,23,Ticks_Phase_5,148,9999,9999,9999,611563644
1175,23,Ticks_Phase_5,149,9999,9999,9999,612063336
1175,23,Ticks_Phase_5,150,9999,9999,9999,612463700
1175,23,Ticks_Phase_5,151,9999,9999,9999,612963388
1175,23,Ticks_Phase_5,152,9999,9999,9999,613463148
1175,23,Ticks_Phase_5,153,9999,9999,9999,613963880
1175,23,Ticks_Phase_5,154,9999,9999,9999,614463568
1175,23,Ticks_Phase_5,155,9999,9999,9999,614963256
1175,23,Ticks_Phase_5,156,9999,9999,9999,615463992
1175,23,Ticks_Phase_5,157,9999,9999,9999,615963752
1175,23,Ticks_Phase_5,158,9999,9999,9999,616463444
1175,23,Ticks_Phase_5,159,9999,9999,9999,616963132
1175,23,Ticks_Phase_5,160,9999,9999,9999,617463864
1175,23,Ticks_Phase_5,161,9999,9999,9999,617963632
1175,23,Ticks_Phase_5,162,9999,9999,9999,618463320
1175,23,Ticks_Phase_5,163,9999,9999,9999,618964052
1175,23,Ticks_Phase_5,164,9999,9999,9999,619463744
1175,23,Ticks_Phase_5,165,9999,9999,9999,619963504
1175,23,Ticks_Phase_5,166,9999,9999,9999,620463192
1175,23,Ticks_Phase_5,167,9999,9999,9999,620963924
1175,23,Ticks_Phase_5,168,9999,9999,9999,621463664
1175,23,Ticks_Phase_5,169,9999,9999,9999,621963328
1176,22,Ticks_Phase_8,0,5,42,127,706254156
1176,22,Ticks_Phase_8,1,5,42,127,707053816
1176,22,Ticks_Phase_8,2,5,42,127,707853696
1176,22,Ticks_Phase_8,3,5,42,127,708653508
1176,22,Ticks_Phase_8,4,5,42,127,709454212
1176,22,Ticks_Phase_8,5,1,48,48,709455848
1176,22,Ticks_Phase_8,6,1,48,47,710227232
1176,22,Ticks_Phase_8,7,5,42,127,710253992
1176,22,Ticks_Phase_8,8,5,42,127,711053640
1176,22,Ticks_Phase_8,9,1,48,43,711104336
1176,22,Ticks_Phase_8,10,5,42,127,711853596
1176,22,Ticks_Phase_8,11,1,48,47,711954672
1176,22,Ticks_Phase_8,12,5,42,127,712654060
1176,22,Ticks_Phase_8,13,1,48,42,712782764
1176,22,Ticks_Phase_8,14,5,42,127,713453920
1176,22,Ticks_Phase_8,15,1,48,44,713581572
1176,22,Ticks_Phase_8,16,5,42,127,714253780
1176,22,Ticks_Phase_8,17,1,48,40,714372756
1176,22,Ticks_Phase_8,18,5,42,127,715053644
1176,22,Ticks_Phase_8,19,1,48,43,715081096
1176,22,Ticks_Phase_8,20,1,48,40,715832056
1176,22,Ticks_Phase_8,21,5,42,127,715854096
1176,22,Ticks_Phase_8,22,1,48,41,716617532
1176,22,Ticks_Phase_8,23,5,42,127,716653884
1176,22,Ticks_Phase_8,24,1,48,39,717426908
1176,22,Ticks_Phase_8,25,5,42,127,717453744
1176,22,Ticks_Phase_8,26,1,48,40,718227516
1176,22,Ticks_Phase_8,27,5,42,127,718253408
1176,22,Ticks_Phase_8,28,1,48,39,719025680
1176,22,Ticks_Phase_8,29,5,42,127,719054092
1176,22,Ticks_Phase_8,30,1,48,38,719848080
1176,22,Ticks_Phase_8,31,5,42,127,719854024
1176,22,Ticks_Phase_8,32,5,42,127,720653672
1176,22,Ticks_Phase_8,33,1,48,43,720668996
1176,22,Ticks_Phase_8,34,5,42,127,721453532
1176,22,Ticks_Phase_8,35,1,48,46,721482492
1176,22,Ticks_Phase_8,36,5,42,127,722254364
1176,22,Ticks_Phase_8,37,1,48,42,722263332
1176,22,Ticks_Phase_8,38,1,48,39,723038392
1176,22,Ticks_Phase_8,39,5,42,127,723053920
1176,22,Ticks_Phase_8,40,1,48,38,723838252
1176,22,Ticks_Phase_8,41,5,42,127,723853708
1176,22,Ticks_Phase_8,42,1,48,41,724644356
1176,22,Ticks_Phase_8,43,5,42,127,724653520
1176,22,Ticks_Phase_8,44,1,48,36,725407820
1176,22,Ticks_Phase_8,45,5,42,127,725454276
1176,22,Ticks_Phase_8,46,1,48,44,726211880
1176,22,Ticks_Phase_8,47,5,42,127,726253988
1176,22,Ticks_Phase_8,48,1,48,19,726298204
1176,22,Ticks_Phase_8,49,1,48,38,727050424
1176,22,Ticks_Phase_8,50,5,42,127,727053604
1176,22,Ticks_Phase_8,51,5,42,127,727853396
1176,22,Ticks_Phase_8,52,1,48,41,727880620
1176,22,Ticks_Phase_8,53,5,42,127,728654304
1176,22,Ticks_Phase_8,54,1,48,38,728662820
1176,22,Ticks_Phase_8,55,1,48,39,729416680
1176,22,Ticks_Phase_8,56,5,42,127,729454008
1176,22,Ticks_Phase_8,57,1,48,44,730213328
1176,22,Ticks_Phase_8,58,5,42,127,730234324
1176,22,Ticks_Phase_8,59,1,48,45,731009072
1176,22,Ticks_Phase_8,60,5,42,127,731034064
1176,22,Ticks_Phase_8,61,1,48,43,731825952
1176,22,Ticks_Phase_8,62,5,42,127,731833772
1176,22,Ticks_Phase_8,63,1,48,43,732610760
1176,22,Ticks_Phase_8,64,5,42,127,732633412
1176,22,Ticks_Phase_8,65,1,48,42,733398936
1176,22,Ticks_Phase_8,66,5,42,127,733434320
1176,22,Ticks_Phase_8,67,1,48,35,734198576
1176,22,Ticks_Phase_8,68,5,42,127,734233956
1176,22,Ticks_Phase_8,69,1,48,36,734993876
1176,22,Ticks_Phase_8,70,5,42,127,735033592
1176,22,Ticks_Phase_8,71,1,48,40,735812984
1176,22,Ticks_Phase_8,72,5,42,127,735833452
1176,22,Ticks_Phase_8,73,1,48,40,736598532
1176,22,Ticks_Phase_8,74,5,42,127,736634284
1176,22,Ticks_Phase_8,75,1,48,33,737433880
1176,22,Ticks_Phase_8,76,5,42,127,737435144
1176,22,Ticks_Phase_8,77,1,48,37,738200224
1176,22,Ticks_Phase_8,78,5,42,127,738233660
1176,22,Ticks_Phase_8,79,5,42,127,739033528
1176,22,Ticks_Phase_8,80,1,48,40,739048924
1176,22,Ticks_Phase_8,81,5,42,127,739834208
1176,22,Ticks_Phase_8,82,1,48,35,739869524
1176,22,Ticks_Phase_8,83,1,48,40,740626552
1176,22,Ticks_Phase_8,84,5,42,127,740634288
1176,22,Ticks_Phase_8,85,1,48,36,741421844
1176,22,Ticks_Phase_8,86,5,42,127,741433704
1176,22,Ticks_Phase_8,87,5,42,127,742233496
1176,22,Ticks_Phase_8,88,1,48,39,742245604
1176,22,Ticks_Phase_8,89,1,48,37,742990180
1176,22,Ticks_Phase_8,90,5,42,127,743034172
1176,22,Ticks_Phase_8,91,1,48,41,743808244
1176,22,Ticks_Phase_8,92,5,42,127,743834208
1176,22,Ticks_Phase_8,93,1,48,33,744609252
1176,22,Ticks_Phase_8,94,5,42,127,744654068
1176,22,Ticks_Phase_8,95,1,48,38,745410084
1176,22,Ticks_Phase_8,96,5,42,127,745454152
1176,22,Ticks_Phase_8,97,1,48,38,746245524
1176,22,Ticks_Phase_8,98,5,42,127,746253568
1176,22,Ticks_Phase_8,99,1,48,33,747035052
1176,22,Ticks_Phase_8,100,5,42,127,747053356
1176,22,Ticks_Phase_8,101,1,48,38,747782720
1176,22,Ticks_Phase_8,102,5,42,127,747854188
1176,22,Ticks_Phase_8,103,1,48,33,748626312
1176,22,Ticks_Phase_8,104,5,42,127,748654048
1176,22,Ticks_Phase_8,105,5,42,127,749453768
1176,22,Ticks_Phase_8,106,1,48,34,749463732
1176,22,Ticks_Phase_8,107,5,42,127,750253356
1176,22,Ticks_Phase_8,108,1,48,40,750254248
1176,22,Ticks_Phase_8,109,1,48,38,751039396
1176,22,Ticks_Phase_8,110,5,42,127,751054108
1176,22,Ticks_Phase_8,111,1,48,38,751830200
1176,22,Ticks_Phase_8,112,5,42,127,751853968
1176,22,Ticks_Phase_8,113,5,42,127,752653912
1176,22,Ticks_Phase_8,114,1,48,28,752673964
1176,22,Ticks_Phase_8,115,1,48,32,753444456
1176,22,Ticks_Phase_8,116,5,42,127,753453396
1176,22,Ticks_Phase_8,117,1,48,38,754203280
1176,22,Ticks_Phase_8,118,5,42,127,754254152
1176,22,Ticks_Phase_8,119,5,42,127,755053872
1176,22,Ticks_Phase_8,120,1,48,33,755073396
1176,22,Ticks_Phase_8,121,1,48,41,755853508
1176,22,Ticks_Phase_8,122,5,42,127,755854996
1176,22,Ticks_Phase_8,123,5,42,127,756653620
1176,22,Ticks_Phase_8,124,1,48,34,756660704
1176,22,Ticks_Phase_8,125,1,48,34,757441008
1176,22,Ticks_Phase_8,126,5,42,127,757494140
1176,22,Ticks_Phase_8,127,1,48,31,758265068
1176,22,Ticks_Phase_8,128,5,42,127,758293852
1176,22,Ticks_Phase_8,129,1,48,37,759062160
1176,22,Ticks_Phase_8,130,5,42,127,759093712
1176,22,Ticks_Phase_8,131,5,42,127,759894252
1176,22,Ticks_Phase_8,132,1,48,34,759901500
1176,22,Ticks_Phase_8,133,5,42,127,760694264
1176,22,Ticks_Phase_8,134,1,48,34,760712664
1176,22,Ticks_Phase_8,135,5,42,127,761493848
1176,22,Ticks_Phase_8,136,1,48,21,761540700
1176,22,Ticks_Phase_8,137,1,48,32,762244820
1176,22,Ticks_Phase_8,138,5,42,127,762293852
1176,22,Ticks_Phase_8,139,1,48,35,763044408
1176,22,Ticks_Phase_8,140,5,42,127,763094236
1176,22,Ticks_Phase_8,141,1,48,35,763859840
1176,22,Ticks_Phase_8,142,5,42,127,763894024
1176,22,Ticks_Phase_8,143,1,48,37,764634472
1176,22,Ticks_Phase_8,144,5,42,127,764693808
1176,22,Ticks_Phase_8,145,1,48,34,765448104
1176,22,Ticks_Phase_8,146,5,42,127,765493892
1176,22,Ticks_Phase_8,147,5,42,127,766294508
1176,22,Ticks_Phase_8,148,1,48,35,766297704
1176,22,Ticks_Phase_8,149,1,48,39,767036900
1176,22,Ticks_Phase_8,150,5,42,127,767093992
1176,22,Ticks_Phase_8,151,1,48,33,767825748
1176,22,Ticks_Phase_8,152,5,42,127,767893728
1176,22,Ticks_Phase_8,153,1,48,30,768625536
1176,22,Ticks_Phase_8,154,5,42,127,768693736
1176,22,Ticks_Phase_8,155,1,48,32,769457996
1176,22,Ticks_Phase_8,156,5,42,127,769494420
1176,22,Ticks_Phase_8,157,1,48,33,770259352
1176,22,Ticks_Phase_8,158,5,42,127,770294208
1176,22,Ticks_Phase_8,159,1,48,31,771051816
1176,22,Ticks_Phase_8,160,5,42,127,771053856
1176,22,Ticks_Phase_8,161,1,48,30,771838856
1176,22,Ticks_Phase_8,162,5,42,127,771853568
1176,22,Ticks_Phase_8,163,1,48,32,772595740
1176,22,Ticks_Phase_8,164,5,42,127,772653428
1176,22,Ticks_Phase_8,165,1,48,33,773366312
1176,22,Ticks_Phase_8,166,5,42,127,773454408
1176,22,Ticks_Phase_8,167,1,48,35,774208184
1176,22,Ticks_Phase_8,168,5,42,127,774253900
1176,22,Ticks_Phase_8,169,5,42,127,775053544
1176,22,Ticks_Phase_8,170,1,48,31,775076676
1176,22,Ticks_Phase_8,171,1,48,38,775830392
1176,22,Ticks_Phase_8,172,5,42,127,775853420
1176,22,Ticks_Phase_8,173,1,48,35,776573624
1176,22,Ticks_Phase_8,174,5,42,127,776654400
1176,22,Ticks_Phase_8,175,1,48,27,777397400
1176,22,Ticks_Phase_8,176,5,42,127,777453892
1176,22,Ticks_Phase_8,177,1,48,31,778210880
1176,22,Ticks_Phase_8,178,5,42,127,778253676
1176,22,Ticks_Phase_8,179,1,48,34,779016664
1176,22,Ticks_Phase_8,180,5,42,127,779053388
1176,22,Ticks_Phase_8,181,1,48,35,779822892
1176,22,Ticks_Phase_8,182,5,42,127,779854368
1176,22,Ticks_Phase_8,183,5,42,127,780653864
1176,22,Ticks_Phase_8,184,1,48,30,780660720
1176,22,Ticks_Phase_8,185,1,48,32,781425008
1176,22,Ticks_Phase_8,186,5,42,127,781453644
1176,22,Ticks_Phase_8,187,1,48,32,782219244
1176,22,Ticks_Phase_8,188,5,42,127,782253528
1176,22,Ticks_Phase_8,189,1,48,32,783019060
1176,22,Ticks_Phase_8,190,5,42,127,783054360
1176,22,Ticks_Phase_8,191,5,42,127,783774028
1176,22,Ticks_Phase_8,192,1,48,32,783851424
1176,22,Ticks_Phase_8,193,5,42,127,784573740
1176,22,Ticks_Phase_8,194,1,48,32,784618944
1176,22,Ticks_Phase_8,195,1,48,35,785350640
1176,22,Ticks_Phase_8,196,5,42,127,785373592
1176,22,Ticks_Phase_8,197,1,48,30,786142124
1176,22,Ticks_Phase_8,198,5,42,127,786174276
1176,22,Ticks_Phase_8,199,1,48,29,786952252
1176,22,Ticks_Phase_8,200,5,42,127,786974140
1176,22,Ticks_Phase_8,201,1,48,29,787758616
1176,22,Ticks_Phase_8,202,5,42,127,787773700
1176,22,Ticks_Phase_8,203,5,42,127,788573420
1176,22,Ticks_Phase_8,204,1,48,32,788582684
1176,22,Ticks_Phase_8,205,1,48,32,789369944
1176,22,Ticks_Phase_8,206,5,42,127,789374320
1176,22,Ticks_Phase_8,207,5,42,127,790174288
1176,22,Ticks_Phase_8,208,1,48,33,790202200
1176,22,Ticks_Phase_8,209,1,48,33,790942068
1176,22,Ticks_Phase_8,210,5,42,127,790973696
1176,22,Ticks_Phase_8,211,5,42,127,791773412
1176,22,Ticks_Phase_8,212,1,48,33,791777432
1176,22,Ticks_Phase_8,213,1,48,35,792571136
1176,22,Ticks_Phase_8,214,5,42,127,792574240
1176,22,Ticks_Phase_8,215,5,42,127,793374180
1176,22,Ticks_Phase_8,216,1,48,29,793388828
1176,22,Ticks_Phase_8,217,1,48,32,794100016
1176,22,Ticks_Phase_8,218,5,42,127,794173812
1176,22,Ticks_Phase_8,219,1,48,39,794905492
1176,22,Ticks_Phase_8,220,5,42,127,794973524
1176,22,Ticks_Phase_8,221,1,48,28,795753884
1176,22,Ticks_Phase_8,222,5,42,127,795774280
1176,22,Ticks_Phase_8,223,1,48,32,796551948
1176,22,Ticks_Phase_8,224,5,42,127,796574168
1176,22,Ticks_Phase_8,225,1,48,32,797338348
1176,22,Ticks_Phase_8,226,5,42,127,797453620
1176,22,Ticks_Phase_8,227,1,48,30,798147724
1176,22,Ticks_Phase_8,228,5,42,127,798253408
1176,22,Ticks_Phase_8,229,1,48,31,798999180
1176,22,Ticks_Phase_8,230,5,42,127,799054104
1176,22,Ticks_Phase_8,231,1,48,28,799834244
1176,22,Ticks_Phase_8,232,5,42,127,799854040
1176,22,Ticks_Phase_8,233,1,48,28,800632984
1176,22,Ticks_Phase_8,234,5,42,127,800653824
1176,22,Ticks_Phase_8,235,5,42,127,801453496
1176,22,Ticks_Phase_8,236,1,48,29,801459236
1176,22,Ticks_Phase_8,237,5,42,127,802254252
1176,22,Ticks_Phase_8,238,1,48,30,802263816
1176,22,Ticks_Phase_8,239,1,48,28,803045844
1176,22,Ticks_Phase_8,240,5,42,127,803053884
1176,22,Ticks_Phase_8,241,1,48,27,803843980
1176,22,Ticks_Phase_8,242,5,42,127,803853744
1176,22,Ticks_Phase_8,243,5,42,127,804653468
1176,22,Ticks_Phase_8,244,1,48,24,804659948
1176,22,Ticks_Phase_8,245,5,42,127,805454076
1176,22,Ticks_Phase_8,246,1,48,28,805471360
1176,22,Ticks_Phase_8,247,1,48,30,806235852
1176,22,Ticks_Phase_8,248,5,42,127,806254076
1176,22,Ticks_Phase_8,249,1,48,34,807014072
1176,22,Ticks_Phase_8,250,5,42,127,807054012
1176,22,Ticks_Phase_8,251,5,42,127,807853360
1176,22,Ticks_Phase_8,252,1,48,21,807871688
1176,22,Ticks_Phase_8,253,5,42,127,808654192
1176,22,Ticks_Phase_8,254,1,48,27,808671160
1176,22,Ticks_Phase_8,255,1,48,31,809450944
1176,22,Ticks_Phase_8,256,5,42,127,809453972
1176,22,Ticks_Phase_8,257,5,42,127,810253768
1176,22,Ticks_Phase_8,258,1,48,29,810260176
1176,22,Ticks_Phase_8,259,1,48,35,811055912
1176,22,Ticks_Phase_8,260,5,42,127,811214192
1176,22,Ticks_Phase_8,261,1,48,32,812002588
1176,22,Ticks_Phase_8,262,5,42,127,812013916
1176,22,Ticks_Phase_8,263,5,42,127,812813784
1176,22,Ticks_Phase_8,264,1,48,35,812816904
1176,22,Ticks_Phase_8,265,1,48,36,813605744
1176,22,Ticks_Phase_8,266,5,42,127,813613416
1176,22,Ticks_Phase_8,267,5,42,127,814414180
1176,22,Ticks_Phase_8,268,1,48,36,814424272
1176,22,Ticks_Phase_8,269,1,48,29,815189216
1176,22,Ticks_Phase_8,270,5,42,127,815213888
1176,22,Ticks_Phase_8,271,1,48,31,815963096
1176,22,Ticks_Phase_8,272,5,42,127,816013896
1176,22,Ticks_Phase_8,273,1,48,32,816801240
1176,22,Ticks_Phase_8,274,5,42,127,816813632
1176,22,Ticks_Phase_8,275,1,48,31,817612504
1176,22,Ticks_Phase_8,276,5,42,127,817614244
1176,22,Ticks_Phase_8,277,1,48,34,818395280
1176,22,Ticks_Phase_8,278,5,42,127,818413880
1176,22,Ticks_Phase_8,279,5,42,127,819213672
1176,22,Ticks_Phase_8,280,1,48,32,819225404
1176,22,Ticks_Phase_8,281,5,42,127,820013460
1176,22,Ticks_Phase_8,282,1,48,32,820023700
1176,22,Ticks_Phase_8,283,5,42,127,820814292
1176,22,Ticks_Phase_8,284,1,48,28,820892628
1176,22,Ticks_Phase_8,285,5,42,127,821614004
1176,22,Ticks_Phase_8,286,1,48,32,821739508
1176,22,Ticks_Phase_8,287,5,42,127,822413792
1176,22,Ticks_Phase_8,288,1,48,30,822479388
1176,22,Ticks_Phase_8,289,5,42,127,823213528
1176,22,Ticks_Phase_8,290,1,48,31,823280896
1176,22,Ticks_Phase_8,291,5,42,127,824014064
1176,22,Ticks_Phase_8,292,1,48,34,824028112
1176,22,Ticks_Phase_8,293,1,48,34,824796664
1176,22,Ticks_Phase_8,294,5,42,127,824813916
1176,22,Ticks_Phase_8,295,5,42,127,825613640
1176,22,Ticks_Phase_8,296,1,48,25,825622080
1176,22,Ticks_Phase_8,297,5,42,127,826253664
1176,22,Ticks_Phase_8,298,1,48,37,826393032
1176,22,Ticks_Phase_8,299,5,42,127,827053624
1176,22,Ticks_Phase_8,300,1,48,38,827772796
1176,22,Ticks_Phase_8,301,5,42,127,827854172
1176,22,Ticks_Phase_8,302,1,48,32,828516864
1176,22,Ticks_Phase_8,303,5,42,127,828653796
1176,22,Ticks_Phase_8,304,1,48,35,829318816
1176,22,Ticks_Phase_8,305,5,42,127,829453804
1176,22,Ticks_Phase_8,306,1,48,33,830196584
1176,22,Ticks_Phase_8,307,5,42,127,830253604
1176,22,Ticks_Phase_8,308,1,48,37,831001612
1176,22,Ticks_Phase_8,309,5,42,127,831054216
1176,22,Ticks_Phase_8,310,1,48,35,831785748
1176,22,Ticks_Phase_8,311,5,42,127,831853928
1176,22,Ticks_Phase_8,312,1,48,35,832600804
1176,22,Ticks_Phase_8,313,5,42,127,832653788
1176,22,Ticks_Phase_8,314,1,48,34,833445628
1176,22,Ticks_Phase_8,315,5,42,127,833453448
1176,22,Ticks_Phase_8,316,5,42,127,834254288
1176,22,Ticks_Phase_8,317,1,48,32,834280544
1176,22,Ticks_Phase_8,318,5,42,127,835053852
1176,22,Ticks_Phase_8,319,1,48,27,835135152
1176,22,Ticks_Phase_8,320,5,42,127,835853708
1176,22,Ticks_Phase_8,321,1,48,35,836077100
1176,22,Ticks_Phase_8,322,5,42,127,836653496
1176,22,Ticks_Phase_8,323,1,48,17,836910052
1176,22,Ticks_Phase_8,324,5,42,127,837454404
1176,22,Ticks_Phase_8,325,1,48,24,837543744
1176,22,Ticks_Phase_8,326,5,42,127,838253964
1176,22,Ticks_Phase_8,327,1,48,18,838446800
1176,22,Ticks_Phase_8,328,5,42,127,839053824
1176,22,Ticks_Phase_8,329,1,48,32,839234500
1176,22,Ticks_Phase_8,330,5,42,127,839853460
1176,22,Ticks_Phase_8,331,1,48,29,839956784
1176,22,Ticks_Phase_8,332,5,42,127,840654444
1176,22,Ticks_Phase_8,333,1,48,31,840679204
1176,22,Ticks_Phase_8,334,1,48,33,841444540
1176,22,Ticks_Phase_8,335,5,42,127,841454076
1176,22,Ticks_Phase_8,0,9999,9999,9999,706251872
1176,22,Ticks_Phase_8,1,9999,9999,9999,707051604
1176,22,Ticks_Phase_8,2,9999,9999,9999,707851336
1176,22,Ticks_Phase_8,3,9999,9999,9999,708651072
1176,22,Ticks_Phase_8,4,9999,9999,9999,709451852
1176,22,Ticks_Phase_8,5,9999,9999,9999,710251632
1176,22,Ticks_Phase_8,6,9999,9999,9999,711051352
1176,22,Ticks_Phase_8,7,9999,9999,9999,711851088
1176,22,Ticks_Phase_8,8,9999,9999,9999,712651848
1176,22,Ticks_Phase_8,9,9999,9999,9999,713451632
1176,22,Ticks_Phase_8,10,9999,9999,9999,714251344
1176,22,Ticks_Phase_8,11,9999,9999,9999,715051136
1176,22,Ticks_Phase_8,12,9999,9999,9999,715851884
1176,22,Ticks_Phase_8,13,9999,9999,9999,716651596
1176,22,Ticks_Phase_8,14,9999,9999,9999,717451384
1176,22,Ticks_Phase_8,15,9999,9999,9999,718251120
1176,22,Ticks_Phase_8,16,9999,9999,9999,719051880
1176,22,Ticks_Phase_8,17,9999,9999,9999,719851592
1176,22,Ticks_Phase_8,18,9999,9999,9999,720651384
1176,22,Ticks_Phase_8,19,9999,9999,9999,721451096
1176,22,Ticks_Phase_8,20,9999,9999,9999,722251852
1176,22,Ticks_Phase_8,21,9999,9999,9999,723051636
1176,22,Ticks_Phase_8,22,9999,9999,9999,723851348
1176,22,Ticks_Phase_8,23,9999,9999,9999,724651084
1176,22,Ticks_Phase_8,24,9999,9999,9999,725451844
1176,22,Ticks_Phase_8,25,9999,9999,9999,726251628
1176,22,Ticks_Phase_8,26,9999,9999,9999,727051316
1176,22,Ticks_Phase_8,27,9999,9999,9999,727851108
1176,22,Ticks_Phase_8,28,9999,9999,9999,728651868
1176,22,Ticks_Phase_8,29,9999,9999,9999,729451572
1176,22,Ticks_Phase_8,30,9999,9999,9999,730231888
1176,22,Ticks_Phase_8,31,9999,9999,9999,731031628
1176,22,Ticks_Phase_8,32,9999,9999,9999,731831412
1176,22,Ticks_Phase_8,33,9999,9999,9999,732631124
1176,22,Ticks_Phase_8,34,9999,9999,9999,733431884
1176,22,Ticks_Phase_8,35,9999,9999,9999,734231668
1176,22,Ticks_Phase_8,36,9999,9999,9999,735031380
1176,22,Ticks_Phase_8,37,9999,9999,9999,735831164
1176,22,Ticks_Phase_8,38,9999,9999,9999,736631924
1176,22,Ticks_Phase_8,39,9999,9999,9999,737431668
1176,22,Ticks_Phase_8,40,9999,9999,9999,738231372
1176,22,Ticks_Phase_8,41,9999,9999,9999,739031164
1176,22,Ticks_Phase_8,42,9999,9999,9999,739831924
1176,22,Ticks_Phase_8,43,9999,9999,9999,740631628
1176,22,Ticks_Phase_8,44,9999,9999,9999,741431416
1176,22,Ticks_Phase_8,45,9999,9999,9999,742231132
1176,22,Ticks_Phase_8,46,9999,9999,9999,743031888
1176,22,Ticks_Phase_8,47,9999,9999,9999,743831624
1176,22,Ticks_Phase_8,48,9999,9999,9999,744651856
1176,22,Ticks_Phase_8,49,9999,9999,9999,745451644
1176,22,Ticks_Phase_8,50,9999,9999,9999,746251356
1176,22,Ticks_Phase_8,51,9999,9999,9999,747051068
1176,22,Ticks_Phase_8,52,9999,9999,9999,747851900
1176,22,Ticks_Phase_8,53,9999,9999,9999,748651616
1176,22,Ticks_Phase_8,54,9999,9999,9999,749451332
1176,22,Ticks_Phase_8,55,9999,9999,9999,750251068
1176,22,Ticks_Phase_8,56,9999,9999,9999,751051896
1176,22,Ticks_Phase_8,57,9999,9999,9999,751851608
1176,22,Ticks_Phase_8,58,9999,9999,9999,752651328
1176,22,Ticks_Phase_8,59,9999,9999,9999,753451108
1176,22,Ticks_Phase_8,60,9999,9999,9999,754251868
1176,22,Ticks_Phase_8,61,9999,9999,9999,755051588
1176,22,Ticks_Phase_8,62,9999,9999,9999,755851372
1176,22,Ticks_Phase_8,63,9999,9999,9999,756651108
1176,22,Ticks_Phase_8,64,9999,9999,9999,757491780
1176,22,Ticks_Phase_8,65,9999,9999,9999,758291564
1176,22,Ticks_Phase_8,66,9999,9999,9999,759091276
1176,22,Ticks_Phase_8,67,9999,9999,9999,759892040
1176,22,Ticks_Phase_8,68,9999,9999,9999,760691828
1176,22,Ticks_Phase_8,69,9999,9999,9999,761491564
1176,22,Ticks_Phase_8,70,9999,9999,9999,762291268
1176,22,Ticks_Phase_8,71,9999,9999,9999,763092024
1176,22,Ticks_Phase_8,72,9999,9999,9999,763891812
1176,22,Ticks_Phase_8,73,9999,9999,9999,764691524
1176,22,Ticks_Phase_8,74,9999,9999,9999,765491308
1176,22,Ticks_Phase_8,75,9999,9999,9999,766292072
1176,22,Ticks_Phase_8,76,9999,9999,9999,767091780
1176,22,Ticks_Phase_8,77,9999,9999,9999,767891516
1176,22,Ticks_Phase_8,78,9999,9999,9999,768691304
1176,22,Ticks_Phase_8,79,9999,9999,9999,769492060
1176,22,Ticks_Phase_8,80,9999,9999,9999,770291772
1176,22,Ticks_Phase_8,81,9999,9999,9999,771051608
1176,22,Ticks_Phase_8,82,9999,9999,9999,771851356
1176,22,Ticks_Phase_8,83,9999,9999,9999,772651068
1176,22,Ticks_Phase_8,84,9999,9999,9999,773451900
1176,22,Ticks_Phase_8,85,9999,9999,9999,774251612
1176,22,Ticks_Phase_8,86,9999,9999,9999,775051332
1176,22,Ticks_Phase_8,87,9999,9999,9999,775851136
1176,22,Ticks_Phase_8,88,9999,9999,9999,776651892
1176,22,Ticks_Phase_8,89,9999,9999,9999,777451604
1176,22,Ticks_Phase_8,90,9999,9999,9999,778251392
1176,22,Ticks_Phase_8,91,9999,9999,9999,779051104
1176,22,Ticks_Phase_8,92,9999,9999,9999,779851860
1176,22,Ticks_Phase_8,93,9999,9999,9999,780651580
1176,22,Ticks_Phase_8,94,9999,9999,9999,781451356
1176,22,Ticks_Phase_8,95,9999,9999,9999,782251092
1176,22,Ticks_Phase_8,96,9999,9999,9999,783051852
1176,22,Ticks_Phase_8,97,9999,9999,9999,783771740
1176,22,Ticks_Phase_8,98,9999,9999,9999,784571452
1176,22,Ticks_Phase_8,99,9999,9999,9999,785371232
1176,22,Ticks_Phase_8,100,9999,9999,9999,786171992
1176,22,Ticks_Phase_8,101,9999,9999,9999,786971704
1176,22,Ticks_Phase_8,102,9999,9999,9999,787771488
1176,22,Ticks_Phase_8,103,9999,9999,9999,788571208
1176,22,Ticks_Phase_8,104,9999,9999,9999,789371960
1176,22,Ticks_Phase_8,105,9999,9999,9999,790171704
1176,22,Ticks_Phase_8,106,9999,9999,9999,790971484
1176,22,Ticks_Phase_8,107,9999,9999,9999,791771200
1176,22,Ticks_Phase_8,108,9999,9999,9999,792572028
1176,22,Ticks_Phase_8,109,9999,9999,9999,793371744
1176,22,Ticks_Phase_8,110,9999,9999,9999,794171452
1176,22,Ticks_Phase_8,111,9999,9999,9999,794971236
1176,22,Ticks_Phase_8,112,9999,9999,9999,795771992
1176,22,Ticks_Phase_8,113,9999,9999,9999,796571732
1176,22,Ticks_Phase_8,114,9999,9999,9999,797451332
1176,22,Ticks_Phase_8,115,9999,9999,9999,798251120
1176,22,Ticks_Phase_8,116,9999,9999,9999,799051892
1176,22,Ticks_Phase_8,117,9999,9999,9999,799851604
1176,22,Ticks_Phase_8,118,9999,9999,9999,800651392
1176,22,Ticks_Phase_8,119,9999,9999,9999,801451136
1176,22,Ticks_Phase_8,120,9999,9999,9999,802251892
1176,22,Ticks_Phase_8,121,9999,9999,9999,803051600
1176,22,Ticks_Phase_8,122,9999,9999,9999,803851384
1176,22,Ticks_Phase_8,123,9999,9999,9999,804651104
1176,22,Ticks_Phase_8,124,9999,9999,9999,805451864
1176,22,Ticks_Phase_8,125,9999,9999,9999,806251644
1176,22,Ticks_Phase_8,126,9999,9999,9999,807051356
1176,22,Ticks_Phase_8,127,9999,9999,9999,807851072
1176,22,Ticks_Phase_8,128,9999,9999,9999,808651832
1176,22,Ticks_Phase_8,129,9999,9999,9999,809451612
1176,22,Ticks_Phase_8,130,9999,9999,9999,810251332
1176,22,Ticks_Phase_8,131,9999,9999,9999,811211904
1176,22,Ticks_Phase_8,132,9999,9999,9999,812011632
1176,22,Ticks_Phase_8,133,9999,9999,9999,812811348
1176,22,Ticks_Phase_8,134,9999,9999,9999,813611128
1176,22,Ticks_Phase_8,135,9999,9999,9999,814411892
1176,22,Ticks_Phase_8,136,9999,9999,9999,815211600
1176,22,Ticks_Phase_8,137,9999,9999,9999,816011388
1176,22,Ticks_Phase_8,138,9999,9999,9999,816811124
1176,22,Ticks_Phase_8,139,9999,9999,9999,817611904
1176,22,Ticks_Phase_8,140,9999,9999,9999,818411592
1176,22,Ticks_Phase_8,141,9999,9999,9999,819211384
1176,22,Ticks_Phase_8,142,9999,9999,9999,820011100
1176,22,Ticks_Phase_8,143,9999,9999,9999,820811856
1176,22,Ticks_Phase_8,144,9999,9999,9999,821611644
1176,22,Ticks_Phase_8,145,9999,9999,9999,822411356
1176,22,Ticks_Phase_8,146,9999,9999,9999,823211092
1176,22,Ticks_Phase_8,147,9999,9999,9999,824011852
1176,22,Ticks_Phase_8,148,9999,9999,9999,824811632
1176,22,Ticks_Phase_8,149,9999,9999,9999,825611352
1176,22,Ticks_Phase_8,150,9999,9999,9999,826251376
1176,22,Ticks_Phase_8,151,9999,9999,9999,827051116
1176,22,Ticks_Phase_8,152,9999,9999,9999,827851888
1176,22,Ticks_Phase_8,153,9999,9999,9999,828651584
1176,22,Ticks_Phase_8,154,9999,9999,9999,829451368
1176,22,Ticks_Phase_8,155,9999,9999,9999,830251096
1176,22,Ticks_Phase_8,156,9999,9999,9999,831051856
1176,22,Ticks_Phase_8,157,9999,9999,9999,831851640
1176,22,Ticks_Phase_8,158,9999,9999,9999,832651352
1176,22,Ticks_Phase_8,159,9999,9999,9999,833451088
1176,22,Ticks_Phase_8,160,9999,9999,9999,834251852
1176,22,Ticks_Phase_8,161,9999,9999,9999,835051640
1176,22,Ticks_Phase_8,162,9999,9999,9999,835851348
1176,22,Ticks_Phase_8,163,9999,9999,9999,836651136
1176,22,Ticks_Phase_8,164,9999,9999,9999,837451892
1176,22,Ticks_Phase_8,165,9999,9999,9999,838251604
1176,22,Ticks_Phase_8,166,9999,9999,9999,839051388
1176,22,Ticks_Phase_8,167,9999,9999,9999,839851100
1176,22,Ticks_Phase_8,168,9999,9999,9999,840651860
1176,22,Ticks_Phase_8,169,9999,9999,9999,841451640
1177,21,Ticks_Linear_5,0,5,42,127,852114888
1177,21,Ticks_Linear_5,1,5,42,127,852595040
1177,21,Ticks_Linear_5,2,5,42,127,853075288
1177,21,Ticks_Linear_5,3,5,42,127,853554640
1177,21,Ticks_Linear_5,4,5,42,127,854034816
1177,21,Ticks_Linear_5,5,5,42,127,854525400
1177,21,Ticks_Linear_5,6,5,42,127,855015012
1177,21,Ticks_Linear_5,7,5,42,127,855505372
1177,21,Ticks_Linear_5,8,1,48,42,855961156
1177,21,Ticks_Linear_5,9,5,42,127,855994828
1177,21,Ticks_Linear_5,10,1,48,43,856414636
1177,21,Ticks_Linear_5,11,5,42,127,856485168
1177,21,Ticks_Linear_5,12,1,48,32,856937920
1177,21,Ticks_Linear_5,13,5,42,127,856985016
1177,21,Ticks_Linear_5,14,1,48,38,857434924
1177,21,Ticks_Linear_5,15,5,42,127,857484616
1177,21,Ticks_Linear_5,16,1,48,32,857944060
1177,21,Ticks_Linear_5,17,5,42,127,857985364
1177,21,Ticks_Linear_5,18,1,48,35,858460976
1177,21,Ticks_Linear_5,19,5,42,127,858485060
1177,21,Ticks_Linear_5,20,1,48,34,858965328
1177,21,Ticks_Linear_5,21,5,42,127,858984764
1177,21,Ticks_Linear_5,22,1,48,36,859468544
1177,21,Ticks_Linear_5,23,5,42,127,859494948
1177,21,Ticks_Linear_5,24,1,48,32,859963904
1177,21,Ticks_Linear_5,25,5,42,127,860004904
1177,21,Ticks_Linear_5,26,1,48,30,860460900
1177,21,Ticks_Linear_5,27,5,42,127,860514936
1177,21,Ticks_Linear_5,28,1,48,35,860967568
1177,21,Ticks_Linear_5,29,5,42,127,861024896
1177,21,Ticks_Linear_5,30,1,48,32,861475956
1177,21,Ticks_Linear_5,31,5,42,127,861534856
1177,21,Ticks_Linear_5,32,1,48,30,861991748
1177,21,Ticks_Linear_5,33,5,42,127,862054704
1177,21,Ticks_Linear_5,34,1,48,32,862516164
1177,21,Ticks_Linear_5,35,5,42,127,862574920
1177,21,Ticks_Linear_5,36,1,48,33,863056232
1177,21,Ticks_Linear_5,37,5,42,127,863095136
1177,21,Ticks_Linear_5,38,1,48,34,863588280
1177,21,Ticks_Linear_5,39,5,42,127,863615208
1177,21,Ticks_Linear_5,40,1,48,27,864105276
1177,21,Ticks_Linear_5,41,5,42,127,864134376
1177,21,Ticks_Linear_5,42,1,48,33,864608648
1177,21,Ticks_Linear_5,43,5,42,127,864664880
1177,21,Ticks_Linear_5,44,1,48,31,865143324
1177,21,Ticks_Linear_5,45,5,42,127,865195432
1177,21,Ticks_Linear_5,46,1,48,26,865690896
1177,21,Ticks_Linear_5,47,5,42,127,865725012
1177,21,Ticks_Linear_5,48,1,48,33,866216656
1177,21,Ticks_Linear_5,49,5,42,127,866255192
1177,21,Ticks_Linear_5,50,1,48,32,866742872
1177,21,Ticks_Linear_5,51,5,42,127,866784844
1177,21,Ticks_Linear_5,52,1,48,32,867276944
1177,21,Ticks_Linear_5,53,5,42,127,867325280
1177,21,Ticks_Linear_5,54,1,48,33,867805248
1177,21,Ticks_Linear_5,55,5,42,127,867864896
1177,21,Ticks_Linear_5,56,1,48,32,868349204
1177,21,Ticks_Linear_5,57,5,42,127,868404812
1177,21,Ticks_Linear_5,58,1,48,32,868884400
1177,21,Ticks_Linear_5,59,5,42,127,868945176
1177,21,Ticks_Linear_5,60,1,48,29,869385748
1177,21,Ticks_Linear_5,61,5,42,127,869484852
1177,21,Ticks_Linear_5,62,1,48,29,869948052
1177,21,Ticks_Linear_5,63,5,42,127,870034764
1177,21,Ticks_Linear_5,64,1,48,32,870495008
1177,21,Ticks_Linear_5,65,5,42,127,870584640
1177,21,Ticks_Linear_5,66,1,48,29,871062420
1177,21,Ticks_Linear_5,67,5,42,127,871134588
1177,21,Ticks_Linear_5,68,1,48,29,871605188
1177,21,Ticks_Linear_5,69,5,42,127,871684612
1177,21,Ticks_Linear_5,70,1,48,29,872162020
1177,21,Ticks_Linear_5,71,5,42,127,872235604
1177,21,Ticks_Linear_5,72,1,48,30,872712956
1177,21,Ticks_Linear_5,73,5,42,127,872794692
1177,21,Ticks_Linear_5,74,1,48,26,873279444
1177,21,Ticks_Linear_5,75,5,42,127,873354824
1177,21,Ticks_Linear_5,76,1,48,33,873873908
1177,21,Ticks_Linear_5,77,5,42,127,873914612
1177,21,Ticks_Linear_5,78,1,48,35,874431336
1177,21,Ticks_Linear_5,79,5,42,127,874474744
1177,21,Ticks_Linear_5,80,1,48,31,875027872
1177,21,Ticks_Linear_5,81,5,42,127,875034952
1177,21,Ticks_Linear_5,82,5,42,127,875605576
1177,21,Ticks_Linear_5,83,1,48,29,875608020
1177,21,Ticks_Linear_5,84,5,42,127,876174644
1177,21,Ticks_Linear_5,85,1,48,28,876180536
1177,21,Ticks_Linear_5,86,1,48,31,876741016
1177,21,Ticks_Linear_5,87,5,42,127,876745104
1177,21,Ticks_Linear_5,88,1,48,30,877292532
1177,21,Ticks_Linear_5,89,5,42,127,877314524
1177,21,Ticks_Linear_5,90,1,48,28,877845188
1177,21,Ticks_Linear_5,91,5,42,127,877884696
1177,21,Ticks_Linear_5,92,1,48,28,878394088
1177,21,Ticks_Linear_5,93,5,42,127,878465496
1177,21,Ticks_Linear_5,94,1,48,29,879009512
1177,21,Ticks_Linear_5,95,5,42,127,879044904
1177,21,Ticks_Linear_5,96,1,48,30,879607168
1177,21,Ticks_Linear_5,97,5,42,127,879624656
1177,21,Ticks_Linear_5,98,1,48,34,880177932
1177,21,Ticks_Linear_5,99,5,42,127,880205456
1177,21,Ticks_Linear_5,100,5,42,127,880784868
1177,21,Ticks_Linear_5,101,1,48,26,880795856
1177,21,Ticks_Linear_5,102,1,48,27,881341132
1177,21,Ticks_Linear_5,103,5,42,127,881374652
1177,21,Ticks_Linear_5,104,1,48,32,881885548
1177,21,Ticks_Linear_5,105,5,42,127,881965716
1177,21,Ticks_Linear_5,106,1,48,29,882496300
1177,21,Ticks_Linear_5,107,5,42,127,882564568
1177,21,Ticks_Linear_5,108,1,48,27,883082268
1177,21,Ticks_Linear_5,109,5,42,127,883155500
1177,21,Ticks_Linear_5,110,1,48,29,883732976
1177,21,Ticks_Linear_5,111,5,42,127,883745364
1177,21,Ticks_Linear_5,112,1,48,30,884337888
1177,21,Ticks_Linear_5,113,5,42,127,884345412
1177,21,Ticks_Linear_5,114,1,48,28,884913996
1177,21,Ticks_Linear_5,115,5,42,127,884945264
1177,21,Ticks_Linear_5,116,1,48,28,885495396
1177,21,Ticks_Linear_5,117,5,42,127,885545532
1177,21,Ticks_Linear_5,118,1,48,30,886081284
1177,21,Ticks_Linear_5,119,5,42,127,886145584
1177,21,Ticks_Linear_5,120,1,48,27,886707428
1177,21,Ticks_Linear_5,121,5,42,127,886744536
1177,21,Ticks_Linear_5,122,1,48,28,887298036
1177,21,Ticks_Linear_5,123,5,42,127,887354620
1177,21,Ticks_Linear_5,124,1,48,27,887889100
1177,21,Ticks_Linear_5,125,5,42,127,887964952
1177,21,Ticks_Linear_5,126,1,48,32,888515984
1177,21,Ticks_Linear_5,127,5,42,127,888575260
1177,21,Ticks_Linear_5,128,1,48,27,889138048
1177,21,Ticks_Linear_5,129,5,42,127,889184520
1177,21,Ticks_Linear_5,130,1,48,31,889759988
1177,21,Ticks_Linear_5,131,5,42,127,889794852
1177,21,Ticks_Linear_5,132,1,48,31,890361980
1177,21,Ticks_Linear_5,133,5,42,127,890414372
1177,21,Ticks_Linear_5,134,1,48,27,890998208
1177,21,Ticks_Linear_5,135,5,42,127,891035188
1177,21,Ticks_Linear_5,136,1,48,32,891603600
1177,21,Ticks_Linear_5,137,5,42,127,891654488
1177,21,Ticks_Linear_5,138,1,48,31,892196908
1177,21,Ticks_Linear_5,139,5,42,127,892275352
1177,21,Ticks_Linear_5,140,1,48,30,892828808
1177,21,Ticks_Linear_5,141,5,42,127,892894524
1177,21,Ticks_Linear_5,142,1,48,33,893420620
1177,21,Ticks_Linear_5,143,5,42,127,893525412
1177,21,Ticks_Linear_5,144,1,48,26,894083576
1177,21,Ticks_Linear_5,145,5,42,127,894155304
1177,21,Ticks_Linear_5,146,1,48,27,894724536
1177,21,Ticks_Linear_5,147,5,42,127,894785156
1177,21,Ticks_Linear_5,148,5,42,127,895414520
1177,21,Ticks_Linear_5,149,1,48,30,895419208
1177,21,Ticks_Linear_5,150,5,42,127,896045568
1177,21,Ticks_Linear_5,151,1,48,28,896101780
1177,21,Ticks_Linear_5,152,5,42,127,896685408
1177,21,Ticks_Linear_5,153,1,48,26,896716016
1177,21,Ticks_Linear_5,154,1,48,27,897195768
1177,21,Ticks_Linear_5,155,5,42,127,897325500
1177,21,Ticks_Linear_5,156,1,48,28,897854980
1177,21,Ticks_Linear_5,157,5,42,127,897965564
1177,21,Ticks_Linear_5,158,1,48,30,898468752
1177,21,Ticks_Linear_5,159,5,42,127,898605376
1177,21,Ticks_Linear_5,160,1,48,25,899155980
1177,21,Ticks_Linear_5,161,5,42,127,899245308
1177,21,Ticks_Linear_5,162,1,48,32,899777916
1177,21,Ticks_Linear_5,163,5,42,127,899905096
1177,21,Ticks_Linear_5,164,1,48,30,900435704
1177,21,Ticks_Linear_5,165,5,42,127,900555344
1177,21,Ticks_Linear_5,166,1,48,29,901146604
1177,21,Ticks_Linear_5,167,5,42,127,901205284
1177,21,Ticks_Linear_5,168,1,48,30,901832416
1177,21,Ticks_Linear_5,169,5,42,127,901854560
1177,21,Ticks_Linear_5,170,1,48,29,902475016
1177,21,Ticks_Linear_5,171,5,42,127,902504932
1177,21,Ticks_Linear_5,172,1,48,28,903126388
1177,21,Ticks_Linear_5,173,5,42,127,903165288
1177,21,Ticks_Linear_5,174,1,48,35,903769120
1177,21,Ticks_Linear_5,175,5,42,127,903824896
1177,21,Ticks_Linear_5,176,1,48,28,904428128
1177,21,Ticks_Linear_5,177,5,42,127,904485232
1177,21,Ticks_Linear_5,178,1,48,27,905116120
1177,21,Ticks_Linear_5,179,5,42,127,905144616
1177,21,Ticks_Linear_5,180,1,48,30,905787380
1177,21,Ticks_Linear_5,181,5,42,127,905805248
1177,21,Ticks_Linear_5,182,1,48,28,906427296
1177,21,Ticks_Linear_5,183,5,42,127,906474892
1177,21,Ticks_Linear_5,184,1,48,31,907066140
1177,21,Ticks_Linear_5,185,5,42,127,907144588
1177,21,Ticks_Linear_5,186,1,48,34,907716136
1177,21,Ticks_Linear_5,187,5,42,127,907815240
1177,21,Ticks_Linear_5,188,1,48,29,908435432
1177,21,Ticks_Linear_5,189,5,42,127,908484900
1177,21,Ticks_Linear_5,190,1,48,27,909145196
1177,21,Ticks_Linear_5,191,5,42,127,909154816
1177,21,Ticks_Linear_5,192,1,48,32,909834500
1177,21,Ticks_Linear_5,193,5,42,127,909835912
1177,21,Ticks_Linear_5,194,5,42,127,910514408
1177,21,Ticks_Linear_5,195,1,48,28,910541336
1177,21,Ticks_Linear_5,196,1,48,29,911184800
1177,21,Ticks_Linear_5,197,5,42,127,911194352
1177,21,Ticks_Linear_5,198,1,48,32,911863360
1177,21,Ticks_Linear_5,199,5,42,127,911874404
1177,21,Ticks_Linear_5,200,1,48,31,912528280
1177,21,Ticks_Linear_5,201,5,42,127,912555504
1177,21,Ticks_Linear_5,202,1,48,30,913237812
1177,21,Ticks_Linear_5,203,5,42,127,913244744
1177,21,Ticks_Linear_5,204,1,48,26,913904392
1177,21,Ticks_Linear_5,205,5,42,127,913934908
1177,21,Ticks_Linear_5,206,1,48,25,914579420
1177,21,Ticks_Linear_5,207,5,42,127,914624996
1177,21,Ticks_Linear_5,208,1,48,31,915236832
1177,21,Ticks_Linear_5,209,5,42,127,915314984
1177,21,Ticks_Linear_5,210,1,48,24,915958004
1177,21,Ticks_Linear_5,211,5,42,127,916005224
1177,21,Ticks_Linear_5,212,1,48,31,916598868
1177,21,Ticks_Linear_5,213,5,42,127,916704880
1177,21,Ticks_Linear_5,214,1,48,24,917311264
1177,21,Ticks_Linear_5,215,5,42,127,917405092
1177,21,Ticks_Linear_5,216,1,48,27,918065464
1177,21,Ticks_Linear_5,217,5,42,127,918104520
1177,21,Ticks_Linear_5,218,1,48,26,918784980
1177,21,Ticks_Linear_5,219,5,42,127,918804792
1177,21,Ticks_Linear_5,220,1,48,24,919485856
1177,21,Ticks_Linear_5,221,5,42,127,919505364
1177,21,Ticks_Linear_5,222,1,48,26,920192252
1177,21,Ticks_Linear_5,223,5,42,127,920214848
1177,21,Ticks_Linear_5,224,1,48,27,920918724
1177,21,Ticks_Linear_5,225,5,42,127,920924684
1177,21,Ticks_Linear_5,226,1,48,19,921620416
1177,21,Ticks_Linear_5,227,5,42,127,921635068
1177,21,Ticks_Linear_5,228,1,48,21,922325564
1177,21,Ticks_Linear_5,229,5,42,127,922344776
1177,21,Ticks_Linear_5,230,1,48,22,923042904
1177,21,Ticks_Linear_5,231,5,42,127,923054412
1177,21,Ticks_Linear_5,232,1,48,20,923743612
1177,21,Ticks_Linear_5,233,5,42,127,923775252
1177,21,Ticks_Linear_5,234,1,48,21,924485220
1177,21,Ticks_Linear_5,235,5,42,127,924495444
1177,21,Ticks_Linear_5,236,5,42,127,925215044
1177,21,Ticks_Linear_5,237,1,48,18,925230892
1177,21,Ticks_Linear_5,238,1,48,22,925923440
1177,21,Ticks_Linear_5,239,5,42,127,925934860
1177,21,Ticks_Linear_5,240,1,48,19,926626548
1177,21,Ticks_Linear_5,241,5,42,127,926654900
1177,21,Ticks_Linear_5,242,1,48,19,927339680
1177,21,Ticks_Linear_5,243,5,42,127,927384976
1177,21,Ticks_Linear_5,244,1,48,21,928101432
1177,21,Ticks_Linear_5,245,5,42,127,928114956
1177,21,Ticks_Linear_5,246,1,48,20,928845264
1177,21,Ticks_Linear_5,247,5,42,127,928846528
1177,21,Ticks_Linear_5,248,1,48,21,929554180
1177,21,Ticks_Linear_5,249,5,42,127,929575264
1177,21,Ticks_Linear_5,250,1,48,22,930280356
1177,21,Ticks_Linear_5,251,5,42,127,930305564
1177,21,Ticks_Linear_5,252,1,48,23,931035380
1177,21,Ticks_Linear_5,253,5,42,127,931044780
1177,21,Ticks_Linear_5,254,5,42,127,931785048
1177,21,Ticks_Linear_5,255,1,48,23,931789588
1177,21,Ticks_Linear_5,256,5,42,127,932525536
1177,21,Ticks_Linear_5,257,1,48,22,932555844
1177,21,Ticks_Linear_5,258,1,48,26,933123892
1177,21,Ticks_Linear_5,259,5,42,127,933274988
1177,21,Ticks_Linear_5,260,1,48,22,933850964
1177,21,Ticks_Linear_5,261,5,42,127,934015376
1177,21,Ticks_Linear_5,262,1,48,21,934574168
1177,21,Ticks_Linear_5,263,5,42,127,934764780
1177,21,Ticks_Linear_5,264,1,48,19,935339360
1177,21,Ticks_Linear_5,265,5,42,127,935514476
1177,21,Ticks_Linear_5,266,1,48,27,936205364
1177,21,Ticks_Linear_5,267,5,42,127,936265160
1177,21,Ticks_Linear_5,268,1,48,22,936991372
1177,21,Ticks_Linear_5,269,5,42,127,937014560
1177,21,Ticks_Linear_5,270,1,48,25,937745424
1177,21,Ticks_Linear_5,271,5,42,127,937765456
1177,21,Ticks_Linear_5,272,1,48,17,938514144
1177,21,Ticks_Linear_5,273,5,42,127,938525040
1177,21,Ticks_Linear_5,274,1,48,25,939273804
1177,21,Ticks_Linear_5,275,5,42,127,939284772
1177,21,Ticks_Linear_5,276,5,42,127,940044588
1177,21,Ticks_Linear_5,277,1,48,24,940058340
1177,21,Ticks_Linear_5,278,1,48,29,940795584
1177,21,Ticks_Linear_5,279,5,42,127,940804464
1177,21,Ticks_Linear_5,280,5,42,127,941565476
1177,21,Ticks_Linear_5,281,1,48,25,941566440
1177,21,Ticks_Linear_5,282,5,42,127,942335392
1177,21,Ticks_Linear_5,283,1,48,28,942345104
1177,21,Ticks_Linear_5,284,5,42,127,943105388
1177,21,Ticks_Linear_5,285,1,48,25,943117120
1177,21,Ticks_Linear_5,286,5,42,127,943874408
1177,21,Ticks_Linear_5,287,1,48,22,943877076
1177,21,Ticks_Linear_5,288,1,48,29,944631168
1177,21,Ticks_Linear_5,289,5,42,127,944644544
1177,21,Ticks_Linear_5,290,1,48,26,945364472
1177,21,Ticks_Linear_5,291,5,42,127,945414612
1177,21,Ticks_Linear_5,292,1,48,21,946139480
1177,21,Ticks_Linear_5,293,5,42,127,946194864
1177,21,Ticks_Linear_5,294,1,48,21,946900336
1177,21,Ticks_Linear_5,295,5,42,127,946975192
1177,21,Ticks_Linear_5,296,5,42,127,947755376
1177,21,Ticks_Linear_5,297,1,48,16,947766664
1177,21,Ticks_Linear_5,298,5,42,127,948534508
1177,21,Ticks_Linear_5,299,1,48,18,948574844
1177,21,Ticks_Linear_5,300,5,42,127,949315056
1177,21,Ticks_Linear_5,301,1,48,24,949318704
1177,21,Ticks_Linear_5,302,5,42,127,950104372
1177,21,Ticks_Linear_5,303,1,48,21,950109288
1177,21,Ticks_Linear_5,304,5,42,127,950895256
1177,21,Ticks_Linear_5,305,1,48,22,950926860
1177,21,Ticks_Linear_5,306,5,42,127,951684420
1177,21,Ticks_Linear_5,307,1,48,19,951695128
1177,21,Ticks_Linear_5,308,5,42,127,952475256
1177,21,Ticks_Linear_5,309,1,48,22,952540608
1177,21,Ticks_Linear_5,310,1,48,20,953235096
1177,21,Ticks_Linear_5,311,5,42,127,953264492
1177,21,Ticks_Linear_5,312,1,48,16,954016096
1177,21,Ticks_Linear_5,313,5,42,127,954065260
1177,21,Ticks_Linear_5,314,5,42,127,954865140
1177,21,Ticks_Linear_5,315,1,48,19,954868708
1177,21,Ticks_Linear_5,316,5,42,127,955664640
1177,21,Ticks_Linear_5,317,1,48,20,955671348
1177,21,Ticks_Linear_5,318,1,48,21,956453388
1177,21,Ticks_Linear_5,319,5,42,127,956464360
1177,21,Ticks_Linear_5,320,5,42,127,957265208
1177,21,Ticks_Linear_5,321,1,48,23,957287348
1177,21,Ticks_Linear_5,322,1,48,22,958069524
1177,21,Ticks_Linear_5,323,5,42,127,958075332
1177,21,Ticks_Linear_5,324,1,48,20,958872116
1177,21,Ticks_Linear_5,325,5,42,127,958885116
1177,21,Ticks_Linear_5,326,5,42,127,959695184
1177,21,Ticks_Linear_5,327,1,48,16,959733576
1177,21,Ticks_Linear_5,328,1,48,28,960467152
1177,21,Ticks_Linear_5,329,5,42,127,960505160
1177,21,Ticks_Linear_5,330,1,48,23,961296904
1177,21,Ticks_Linear_5,331,5,42,127,961315216
1177,21,Ticks_Linear_5,0,9999,9999,9999,852112440
1177,21,Ticks_Linear_5,1,9999,9999,9999,852592740
1177,21,Ticks_Linear_5,2,9999,9999,9999,853072992
1177,21,Ticks_Linear_5,3,9999,9999,9999,853552192
1177,21,Ticks_Linear_5,4,9999,9999,9999,854032444
1177,21,Ticks_Linear_5,5,9999,9999,9999,854522952
1177,21,Ticks_Linear_5,6,9999,9999,9999,855012416
1177,21,Ticks_Linear_5,7,9999,9999,9999,855502924
1177,21,Ticks_Linear_5,8,9999,9999,9999,855992380
1177,21,Ticks_Linear_5,9,9999,9999,9999,856482868
1177,21,Ticks_Linear_5,10,9999,9999,9999,856982644
1177,21,Ticks_Linear_5,11,9999,9999,9999,857482320
1177,21,Ticks_Linear_5,12,9999,9999,9999,857983064
1177,21,Ticks_Linear_5,13,9999,9999,9999,858482764
1177,21,Ticks_Linear_5,14,9999,9999,9999,858982464
1177,21,Ticks_Linear_5,15,9999,9999,9999,859492424
1177,21,Ticks_Linear_5,16,9999,9999,9999,860002384
1177,21,Ticks_Linear_5,17,9999,9999,9999,860512344
1177,21,Ticks_Linear_5,18,9999,9999,9999,861022300
1177,21,Ticks_Linear_5,19,9999,9999,9999,861532260
1177,21,Ticks_Linear_5,20,9999,9999,9999,862052480
1177,21,Ticks_Linear_5,21,9999,9999,9999,862572620
1177,21,Ticks_Linear_5,22,9999,9999,9999,863092840
1177,21,Ticks_Linear_5,23,9999,9999,9999,863612984
1177,21,Ticks_Linear_5,24,9999,9999,9999,864132152
1177,21,Ticks_Linear_5,25,9999,9999,9999,864662580
1177,21,Ticks_Linear_5,26,9999,9999,9999,865193060
1177,21,Ticks_Linear_5,27,9999,9999,9999,865722492
1177,21,Ticks_Linear_5,28,9999,9999,9999,866252892
1177,21,Ticks_Linear_5,29,9999,9999,9999,866782324
1177,21,Ticks_Linear_5,30,9999,9999,9999,867322984
1177,21,Ticks_Linear_5,31,9999,9999,9999,867862600
1177,21,Ticks_Linear_5,32,9999,9999,9999,868402288
1177,21,Ticks_Linear_5,33,9999,9999,9999,868942952
1177,21,Ticks_Linear_5,34,9999,9999,9999,869482552
1177,21,Ticks_Linear_5,35,9999,9999,9999,870032468
1177,21,Ticks_Linear_5,36,9999,9999,9999,870582340
1177,21,Ticks_Linear_5,37,9999,9999,9999,871132216
1177,21,Ticks_Linear_5,38,9999,9999,9999,871682164
1177,21,Ticks_Linear_5,39,9999,9999,9999,872233084
1177,21,Ticks_Linear_5,40,9999,9999,9999,872792172
1177,21,Ticks_Linear_5,41,9999,9999,9999,873352304
1177,21,Ticks_Linear_5,42,9999,9999,9999,873912388
1177,21,Ticks_Linear_5,43,9999,9999,9999,874472520
1177,21,Ticks_Linear_5,44,9999,9999,9999,875032652
1177,21,Ticks_Linear_5,45,9999,9999,9999,875603052
1177,21,Ticks_Linear_5,46,9999,9999,9999,876172348
1177,21,Ticks_Linear_5,47,9999,9999,9999,876742732
1177,21,Ticks_Linear_5,48,9999,9999,9999,877312080
1177,21,Ticks_Linear_5,49,9999,9999,9999,877882472
1177,21,Ticks_Linear_5,50,9999,9999,9999,878463048
1177,21,Ticks_Linear_5,51,9999,9999,9999,879042680
1177,21,Ticks_Linear_5,52,9999,9999,9999,879622208
1177,21,Ticks_Linear_5,53,9999,9999,9999,880202860
1177,21,Ticks_Linear_5,54,9999,9999,9999,880782420
1177,21,Ticks_Linear_5,55,9999,9999,9999,881372280
1177,21,Ticks_Linear_5,56,9999,9999,9999,881963120
1177,21,Ticks_Linear_5,57,9999,9999,9999,882562120
1177,21,Ticks_Linear_5,58,9999,9999,9999,883152980
1177,21,Ticks_Linear_5,59,9999,9999,9999,883742844
1177,21,Ticks_Linear_5,60,9999,9999,9999,884342892
1177,21,Ticks_Linear_5,61,9999,9999,9999,884942964
1177,21,Ticks_Linear_5,62,9999,9999,9999,885543012
1177,21,Ticks_Linear_5,63,9999,9999,9999,886143060
1177,21,Ticks_Linear_5,64,9999,9999,9999,886742088
1177,21,Ticks_Linear_5,65,9999,9999,9999,887352396
1177,21,Ticks_Linear_5,66,9999,9999,9999,887962728
1177,21,Ticks_Linear_5,67,9999,9999,9999,888573036
1177,21,Ticks_Linear_5,68,9999,9999,9999,889182300
1177,21,Ticks_Linear_5,69,9999,9999,9999,889792628
1177,21,Ticks_Linear_5,70,9999,9999,9999,890412148
1177,21,Ticks_Linear_5,71,9999,9999,9999,891032668
1177,21,Ticks_Linear_5,72,9999,9999,9999,891652188
1177,21,Ticks_Linear_5,73,9999,9999,9999,892272756
1177,21,Ticks_Linear_5,74,9999,9999,9999,892892224
1177,21,Ticks_Linear_5,75,9999,9999,9999,893523040
1177,21,Ticks_Linear_5,76,9999,9999,9999,894152784
1177,21,Ticks_Linear_5,77,9999,9999,9999,894782560
1177,21,Ticks_Linear_5,78,9999,9999,9999,895412296
1177,21,Ticks_Linear_5,79,9999,9999,9999,896043120
1177,21,Ticks_Linear_5,80,9999,9999,9999,896683108
1177,21,Ticks_Linear_5,81,9999,9999,9999,897323128
1177,21,Ticks_Linear_5,82,9999,9999,9999,897963116
1177,21,Ticks_Linear_5,83,9999,9999,9999,898603080
1177,21,Ticks_Linear_5,84,9999,9999,9999,899243080
1177,21,Ticks_Linear_5,85,9999,9999,9999,899902576
1177,21,Ticks_Linear_5,86,9999,9999,9999,900552824
1177,21,Ticks_Linear_5,87,9999,9999,9999,901203060
1177,21,Ticks_Linear_5,88,9999,9999,9999,901852260
1177,21,Ticks_Linear_5,89,9999,9999,9999,902502484
1177,21,Ticks_Linear_5,90,9999,9999,9999,903162992
1177,21,Ticks_Linear_5,91,9999,9999,9999,903822452
1177,21,Ticks_Linear_5,92,9999,9999,9999,904482936
1177,21,Ticks_Linear_5,93,9999,9999,9999,905142392
1177,21,Ticks_Linear_5,94,9999,9999,9999,905802872
1177,21,Ticks_Linear_5,95,9999,9999,9999,906472520
1177,21,Ticks_Linear_5,96,9999,9999,9999,907142216
1177,21,Ticks_Linear_5,97,9999,9999,9999,907812940
1177,21,Ticks_Linear_5,98,9999,9999,9999,908482676
1177,21,Ticks_Linear_5,99,9999,9999,9999,909152368
1177,21,Ticks_Linear_5,100,9999,9999,9999,909832276
1177,21,Ticks_Linear_5,101,9999,9999,9999,910512184
1177,21,Ticks_Linear_5,102,9999,9999,9999,911192128
1177,21,Ticks_Linear_5,103,9999,9999,9999,911872108
1177,21,Ticks_Linear_5,104,9999,9999,9999,912553056
1177,21,Ticks_Linear_5,105,9999,9999,9999,913242224
1177,21,Ticks_Linear_5,106,9999,9999,9999,913932388
1177,21,Ticks_Linear_5,107,9999,9999,9999,914622548
1177,21,Ticks_Linear_5,108,9999,9999,9999,915312760
1177,21,Ticks_Linear_5,109,9999,9999,9999,916002924
1177,21,Ticks_Linear_5,110,9999,9999,9999,916702284
1177,21,Ticks_Linear_5,111,9999,9999,9999,917402720
1177,21,Ticks_Linear_5,112,9999,9999,9999,918102072
1177,21,Ticks_Linear_5,113,9999,9999,9999,918802496
1177,21,Ticks_Linear_5,114,9999,9999,9999,919502916
1177,21,Ticks_Linear_5,115,9999,9999,9999,920212552
1177,21,Ticks_Linear_5,116,9999,9999,9999,920922236
1177,21,Ticks_Linear_5,117,9999,9999,9999,921632844
1177,21,Ticks_Linear_5,118,9999,9999,9999,922342476
1177,21,Ticks_Linear_5,119,9999,9999,9999,923052112
1177,21,Ticks_Linear_5,120,9999,9999,9999,923773028
1177,21,Ticks_Linear_5,121,9999,9999,9999,924492920
1177,21,Ticks_Linear_5,122,9999,9999,9999,925212748
1177,21,Ticks_Linear_5,123,9999,9999,9999,925932636
1177,21,Ticks_Linear_5,124,9999,9999,9999,926652528
1177,21,Ticks_Linear_5,125,9999,9999,9999,927382604
1177,21,Ticks_Linear_5,126,9999,9999,9999,928112732
1177,21,Ticks_Linear_5,127,9999,9999,9999,928842816
1177,21,Ticks_Linear_5,128,9999,9999,9999,929572964
1177,21,Ticks_Linear_5,129,9999,9999,9999,930303040
1177,21,Ticks_Linear_5,130,9999,9999,9999,931042408
1177,21,Ticks_Linear_5,131,9999,9999,9999,931782748
1177,21,Ticks_Linear_5,132,9999,9999,9999,932523088
1177,21,Ticks_Linear_5,133,9999,9999,9999,933272692
1177,21,Ticks_Linear_5,134,9999,9999,9999,934013004
1177,21,Ticks_Linear_5,135,9999,9999,9999,934762552
1177,21,Ticks_Linear_5,136,9999,9999,9999,935512176
1177,21,Ticks_Linear_5,137,9999,9999,9999,936262712
1177,21,Ticks_Linear_5,138,9999,9999,9999,937012336
1177,21,Ticks_Linear_5,139,9999,9999,9999,937762932
1177,21,Ticks_Linear_5,140,9999,9999,9999,938522744
1177,21,Ticks_Linear_5,141,9999,9999,9999,939282548
1177,21,Ticks_Linear_5,142,9999,9999,9999,940042364
1177,21,Ticks_Linear_5,143,9999,9999,9999,940802164
1177,21,Ticks_Linear_5,144,9999,9999,9999,941562952
1177,21,Ticks_Linear_5,145,9999,9999,9999,942333020
1177,21,Ticks_Linear_5,146,9999,9999,9999,943103088
1177,21,Ticks_Linear_5,147,9999,9999,9999,943872108
1177,21,Ticks_Linear_5,148,9999,9999,9999,944642172
1177,21,Ticks_Linear_5,149,9999,9999,9999,945412164
1177,21,Ticks_Linear_5,150,9999,9999,9999,946192492
1177,21,Ticks_Linear_5,151,9999,9999,9999,946972744
1177,21,Ticks_Linear_5,152,9999,9999,9999,947753076
1177,21,Ticks_Linear_5,153,9999,9999,9999,948532284
1177,21,Ticks_Linear_5,154,9999,9999,9999,949312608
1177,21,Ticks_Linear_5,155,9999,9999,9999,950102072
1177,21,Ticks_Linear_5,156,9999,9999,9999,950892660
1177,21,Ticks_Linear_5,157,9999,9999,9999,951682124
1177,21,Ticks_Linear_5,158,9999,9999,9999,952472660
1177,21,Ticks_Linear_5,159,9999,9999,9999,953262192
1177,21,Ticks_Linear_5,160,9999,9999,9999,954062964
1177,21,Ticks_Linear_5,161,9999,9999,9999,954862692
1177,21,Ticks_Linear_5,162,9999,9999,9999,955662416
1177,21,Ticks_Linear_5,163,9999,9999,9999,956462136
1177,21,Ticks_Linear_5,164,9999,9999,9999,957262908
1177,21,Ticks_Linear_5,165,9999,9999,9999,958072888
1177,21,Ticks_Linear_5,166,9999,9999,9999,958882896
1177,21,Ticks_Linear_5,167,9999,9999,9999,959692884
1177,21,Ticks_Linear_5,168,9999,9999,9999,960502860
1177,21,Ticks_Linear_5,169,9999,9999,9999,961312840
1178,20,Ticks_Linear_8,0,5,42,127,971564532
1178,20,Ticks_Linear_8,1,5,42,127,972383676
1178,20,Ticks_Linear_8,2,5,42,127,973203816
1178,20,Ticks_Linear_8,3,5,42,127,974024008
1178,20,Ticks_Linear_8,4,5,42,127,974844344
1178,20,Ticks_Linear_8,5,1,48,40,974867984
1178,20,Ticks_Linear_8,6,1,48,36,975613696
1178,20,Ticks_Linear_8,7,5,42,127,975654248
1178,20,Ticks_Linear_8,8,5,42,127,976464236
1178,20,Ticks_Linear_8,9,1,48,34,976482264
1178,20,Ticks_Linear_8,10,5,42,127,977274220
1178,20,Ticks_Linear_8,11,1,48,34,977341700
1178,20,Ticks_Linear_8,12,5,42,127,978084156
1178,20,Ticks_Linear_8,13,1,48,29,978148228
1178,20,Ticks_Linear_8,14,5,42,127,978894136
1178,20,Ticks_Linear_8,15,1,48,29,978939712
1178,20,Ticks_Linear_8,16,5,42,127,979693860
1178,20,Ticks_Linear_8,17,1,48,32,979735700
1178,20,Ticks_Linear_8,18,5,42,127,980493660
1178,20,Ticks_Linear_8,19,1,48,34,980547324
1178,20,Ticks_Linear_8,20,5,42,127,981293680
1178,20,Ticks_Linear_8,21,1,48,37,981357308
1178,20,Ticks_Linear_8,22,5,42,127,982094152
1178,20,Ticks_Linear_8,23,1,48,26,982164024
1178,20,Ticks_Linear_8,24,1,48,29,982876228
1178,20,Ticks_Linear_8,25,5,42,127,982893944
1178,20,Ticks_Linear_8,26,5,42,127,983683640
1178,20,Ticks_Linear_8,27,1,48,19,983690000
1178,20,Ticks_Linear_8,28,1,48,24,984424228
1178,20,Ticks_Linear_8,29,5,42,127,984474020
1178,20,Ticks_Linear_8,30,5,42,127,985263492
1178,20,Ticks_Linear_8,31,1,48,24,986026492
1178,20,Ticks_Linear_8,32,5,42,127,986054016
1178,20,Ticks_Linear_8,33,1,48,26,986838272
1178,20,Ticks_Linear_8,34,5,42,127,986843484
1178,20,Ticks_Linear_8,35,1,48,36,987610056
1178,20,Ticks_Linear_8,36,5,42,127,987623736
1178,20,Ticks_Linear_8,37,5,42,127,988404140
1178,20,Ticks_Linear_8,38,1,48,34,988433704
1178,20,Ticks_Linear_8,39,1,48,30,989171532
1178,20,Ticks_Linear_8,40,5,42,127,989184388
1178,20,Ticks_Linear_8,41,1,48,33,989963528
1178,20,Ticks_Linear_8,42,5,42,127,989964940
1178,20,Ticks_Linear_8,43,5,42,127,990743932
1178,20,Ticks_Linear_8,44,1,48,29,990790780
1178,20,Ticks_Linear_8,45,5,42,127,991513924
1178,20,Ticks_Linear_8,46,1,48,32,991579572
1178,20,Ticks_Linear_8,47,1,48,30,992265524
1178,20,Ticks_Linear_8,48,5,42,127,992283912
1178,20,Ticks_Linear_8,49,1,48,33,992982424
1178,20,Ticks_Linear_8,50,5,42,127,993053976
1178,20,Ticks_Linear_8,51,1,48,33,993752416
1178,20,Ticks_Linear_8,52,5,42,127,993824120
1178,20,Ticks_Linear_8,53,1,48,28,994550408
1178,20,Ticks_Linear_8,54,5,42,127,994594336
1178,20,Ticks_Linear_8,55,1,48,27,995319428
1178,20,Ticks_Linear_8,56,5,42,127,995353848
1178,20,Ticks_Linear_8,57,1,48,28,996076320
1178,20,Ticks_Linear_8,58,5,42,127,996113808
1178,20,Ticks_Linear_8,59,1,48,31,996781768
1178,20,Ticks_Linear_8,60,5,42,127,996874424
1178,20,Ticks_Linear_8,61,1,48,31,997566356
1178,20,Ticks_Linear_8,62,5,42,127,997634324
1178,20,Ticks_Linear_8,63,1,48,34,998356792
1178,20,Ticks_Linear_8,64,5,42,127,998403420
1178,20,Ticks_Linear_8,65,1,48,27,999136000
1178,20,Ticks_Linear_8,66,5,42,127,999154240
1178,20,Ticks_Linear_8,67,5,42,127,999903500
1178,20,Ticks_Linear_8,68,1,48,27,999912312
1178,20,Ticks_Linear_8,69,1,48,30,1000615780
1178,20,Ticks_Linear_8,70,5,42,127,1000654312
1178,20,Ticks_Linear_8,71,5,42,127,1001403796
1178,20,Ticks_Linear_8,72,1,48,29,1001411176
1178,20,Ticks_Linear_8,73,5,42,127,1002154316
1178,20,Ticks_Linear_8,74,1,48,26,1002175636
1178,20,Ticks_Linear_8,75,1,48,29,1002862384
1178,20,Ticks_Linear_8,76,5,42,127,1002893748
1178,20,Ticks_Linear_8,77,5,42,127,1003634144
1178,20,Ticks_Linear_8,78,1,48,22,1004126172
1178,20,Ticks_Linear_8,79,5,42,127,1004374256
1178,20,Ticks_Linear_8,80,1,48,24,1004714048
1178,20,Ticks_Linear_8,81,5,42,127,1005113624
1178,20,Ticks_Linear_8,82,1,48,21,1005472812
1178,20,Ticks_Linear_8,83,5,42,127,1005854256
1178,20,Ticks_Linear_8,84,5,42,127,1006584132
1178,20,Ticks_Linear_8,85,1,48,22,1006601252
1178,20,Ticks_Linear_8,86,5,42,127,1007314432
1178,20,Ticks_Linear_8,87,1,48,29,1007712164
1178,20,Ticks_Linear_8,88,5,42,127,1008044512
1178,20,Ticks_Linear_8,89,1,48,21,1008387796
1178,20,Ticks_Linear_8,90,5,42,127,1008773396
1178,20,Ticks_Linear_8,91,5,42,127,1009503472
1178,20,Ticks_Linear_8,92,5,42,127,1010223460
1178,20,Ticks_Linear_8,93,5,42,127,1010944424
1178,20,Ticks_Linear_8,94,1,48,26,1011602964
1178,20,Ticks_Linear_8,95,5,42,127,1011664256
1178,20,Ticks_Linear_8,96,1,48,22,1012332792
1178,20,Ticks_Linear_8,97,5,42,127,1012384076
1178,20,Ticks_Linear_8,98,1,48,33,1013059340
1178,20,Ticks_Linear_8,99,5,42,127,1013104096
1178,20,Ticks_Linear_8,100,5,42,127,1013813512
1178,20,Ticks_Linear_8,101,1,48,30,1013828688
1178,20,Ticks_Linear_8,102,5,42,127,1014524268
1178,20,Ticks_Linear_8,103,1,48,33,1014539140
1178,20,Ticks_Linear_8,104,5,42,127,1015233904
1178,20,Ticks_Linear_8,105,1,48,30,1015316632
1178,20,Ticks_Linear_8,106,5,42,127,1015943912
1178,20,Ticks_Linear_8,107,1,48,15,1016160684
1178,20,Ticks_Linear_8,108,5,42,127,1016654124
1178,20,Ticks_Linear_8,109,1,48,19,1016871736
1178,20,Ticks_Linear_8,110,5,42,127,1017353648
1178,20,Ticks_Linear_8,111,5,42,127,1018053944
1178,20,Ticks_Linear_8,112,5,42,127,1018754360
1178,20,Ticks_Linear_8,113,1,48,22,1019379612
1178,20,Ticks_Linear_8,114,5,42,127,1019464136
1178,20,Ticks_Linear_8,115,1,48,24,1020028788
1178,20,Ticks_Linear_8,116,5,42,127,1020163344
1178,20,Ticks_Linear_8,117,1,48,19,1020743752
1178,20,Ticks_Linear_8,118,5,42,127,1020853656
1178,20,Ticks_Linear_8,119,1,48,20,1021449336
1178,20,Ticks_Linear_8,120,5,42,127,1021543812
1178,20,Ticks_Linear_8,121,1,48,21,1022168184
1178,20,Ticks_Linear_8,122,5,42,127,1022234052
1178,20,Ticks_Linear_8,123,1,48,20,1022887032
1178,20,Ticks_Linear_8,124,5,42,127,1022924140
1178,20,Ticks_Linear_8,125,5,42,127,1023614212
1178,20,Ticks_Linear_8,126,1,48,22,1023647532
1178,20,Ticks_Linear_8,127,5,42,127,1024294264
1178,20,Ticks_Linear_8,128,1,48,21,1024327716
1178,20,Ticks_Linear_8,129,5,42,127,1024974168
1178,20,Ticks_Linear_8,130,1,48,17,1025033080
1178,20,Ticks_Linear_8,131,5,42,127,1025654120
1178,20,Ticks_Linear_8,132,1,48,24,1025795212
1178,20,Ticks_Linear_8,133,5,42,127,1026334024
1178,20,Ticks_Linear_8,134,5,42,127,1027013952
1178,20,Ticks_Linear_8,135,5,42,127,1027683592
1178,20,Ticks_Linear_8,136,5,42,127,1028354304
1178,20,Ticks_Linear_8,137,5,42,127,1029034304
1178,20,Ticks_Linear_8,138,1,48,26,1029045364
1178,20,Ticks_Linear_8,139,5,42,127,1029704076
1178,20,Ticks_Linear_8,140,1,48,35,1029738796
1178,20,Ticks_Linear_8,141,5,42,127,1030373644
1178,20,Ticks_Linear_8,142,1,48,30,1030388896
1178,20,Ticks_Linear_8,143,5,42,127,1031034128
1178,20,Ticks_Linear_8,144,1,48,29,1031058312
1178,20,Ticks_Linear_8,145,1,48,31,1031689788
1178,20,Ticks_Linear_8,146,5,42,127,1031693656
1178,20,Ticks_Linear_8,147,5,42,127,1032354092
1178,20,Ticks_Linear_8,148,1,48,31,1032362312
1178,20,Ticks_Linear_8,149,1,48,34,1032987492
1178,20,Ticks_Linear_8,150,5,42,127,1033013744
1178,20,Ticks_Linear_8,151,5,42,127,1033674036
1178,20,Ticks_Linear_8,152,1,48,29,1033686816
1178,20,Ticks_Linear_8,153,5,42,127,1034324332
1178,20,Ticks_Linear_8,154,1,48,28,1034395624
1178,20,Ticks_Linear_8,155,5,42,127,1034973684
1178,20,Ticks_Linear_8,156,1,48,28,1035005040
1178,20,Ticks_Linear_8,157,5,42,127,1035623756
1178,20,Ticks_Linear_8,158,1,48,24,1035696176
1178,20,Ticks_Linear_8,159,5,42,127,1036274004
1178,20,Ticks_Linear_8,160,1,48,26,1036314344
1178,20,Ticks_Linear_8,161,1,48,31,1036917736
1178,20,Ticks_Linear_8,162,5,42,127,1036924520
1178,20,Ticks_Linear_8,163,1,48,27,1037534812
1178,20,Ticks_Linear_8,164,5,42,127,1037564508
1178,20,Ticks_Linear_8,165,1,48,28,1038185936
1178,20,Ticks_Linear_8,166,5,42,127,1038204396
1178,20,Ticks_Linear_8,167,1,48,32,1038771564
1178,20,Ticks_Linear_8,168,5,42,127,1038844388
1178,20,Ticks_Linear_8,169,1,48,23,1039433768
1178,20,Ticks_Linear_8,170,5,42,127,1039484428
1178,20,Ticks_Linear_8,171,1,48,25,1040107372
1178,20,Ticks_Linear_8,172,5,42,127,1040124564
1178,20,Ticks_Linear_8,173,1,48,23,1040750552
1178,20,Ticks_Linear_8,174,5,42,127,1040753972
1178,20,Ticks_Linear_8,175,5,42,127,1041383708
1178,20,Ticks_Linear_8,176,1,48,29,1041429360
1178,20,Ticks_Linear_8,177,5,42,127,1042013416
1178,20,Ticks_Linear_8,178,1,48,28,1042063668
1178,20,Ticks_Linear_8,179,5,42,127,1042644340
1178,20,Ticks_Linear_8,180,1,48,25,1042673300
1178,20,Ticks_Linear_8,181,5,42,127,1043274192
1178,20,Ticks_Linear_8,182,1,48,21,1043295812
1178,20,Ticks_Linear_8,183,1,48,24,1043857596
1178,20,Ticks_Linear_8,184,5,42,127,1043893508
1178,20,Ticks_Linear_8,185,1,48,22,1044509608
1178,20,Ticks_Linear_8,186,5,42,127,1044514448
1178,20,Ticks_Linear_8,187,1,48,27,1045094384
1178,20,Ticks_Linear_8,188,5,42,127,1045133544
1178,20,Ticks_Linear_8,189,1,48,25,1045727412
1178,20,Ticks_Linear_8,190,5,42,127,1045754408
1178,20,Ticks_Linear_8,191,1,48,27,1046358308
1178,20,Ticks_Linear_8,192,5,42,127,1046373632
1178,20,Ticks_Linear_8,193,1,48,25,1046941308
1178,20,Ticks_Linear_8,194,5,42,127,1046984040
1178,20,Ticks_Linear_8,195,1,48,23,1047577456
1178,20,Ticks_Linear_8,196,5,42,127,1047594276
1178,20,Ticks_Linear_8,197,1,48,24,1048173316
1178,20,Ticks_Linear_8,198,5,42,127,1048203708
1178,20,Ticks_Linear_8,199,1,48,24,1048765000
1178,20,Ticks_Linear_8,200,5,42,127,1048814016
1178,20,Ticks_Linear_8,201,1,48,24,1049402496
1178,20,Ticks_Linear_8,202,5,42,127,1049424252
1178,20,Ticks_Linear_8,203,5,42,127,1050024404
1178,20,Ticks_Linear_8,204,1,48,32,1050047148
1178,20,Ticks_Linear_8,205,5,42,127,1050624380
1178,20,Ticks_Linear_8,206,1,48,29,1050660896
1178,20,Ticks_Linear_8,207,5,42,127,1051224500
1178,20,Ticks_Linear_8,208,1,48,24,1051271760
1178,20,Ticks_Linear_8,209,1,48,24,1051792560
1178,20,Ticks_Linear_8,210,5,42,127,1051833856
1178,20,Ticks_Linear_8,211,1,48,26,1052395368
1178,20,Ticks_Linear_8,212,5,42,127,1052433756
1178,20,Ticks_Linear_8,213,1,48,33,1052987484
1178,20,Ticks_Linear_8,214,5,42,127,1053023472
1178,20,Ticks_Linear_8,215,1,48,28,1053607548
1178,20,Ticks_Linear_8,216,5,42,127,1053613360
1178,20,Ticks_Linear_8,217,1,48,31,1054193824
1178,20,Ticks_Linear_8,218,5,42,127,1054204344
1178,20,Ticks_Linear_8,219,1,48,27,1054793312
1178,20,Ticks_Linear_8,220,5,42,127,1054794728
1178,20,Ticks_Linear_8,221,1,48,29,1055376420
1178,20,Ticks_Linear_8,222,5,42,127,1055383804
1178,20,Ticks_Linear_8,223,1,48,30,1055955280
1178,20,Ticks_Linear_8,224,5,42,127,1055963632
1178,20,Ticks_Linear_8,225,1,48,27,1056534284
1178,20,Ticks_Linear_8,226,5,42,127,1056544060
1178,20,Ticks_Linear_8,227,1,48,28,1057111348
1178,20,Ticks_Linear_8,228,5,42,127,1057123588
1178,20,Ticks_Linear_8,229,1,48,29,1057670520
1178,20,Ticks_Linear_8,230,5,42,127,1057704264
1178,20,Ticks_Linear_8,231,5,42,127,1058284248
1178,20,Ticks_Linear_8,232,1,48,29,1058292616
1178,20,Ticks_Linear_8,233,5,42,127,1058854120
1178,20,Ticks_Linear_8,234,1,48,27,1058908012
1178,20,Ticks_Linear_8,235,1,48,28,1059399972
1178,20,Ticks_Linear_8,236,5,42,127,1059423608
1178,20,Ticks_Linear_8,237,1,48,27,1059942668
1178,20,Ticks_Linear_8,238,5,42,127,1059994100
1178,20,Ticks_Linear_8,239,1,48,28,1060490832
1178,20,Ticks_Linear_8,240,5,42,127,1060564344
1178,20,Ticks_Linear_8,241,1,48,25,1061063556
1178,20,Ticks_Linear_8,242,5,42,127,1061133764
1178,20,Ticks_Linear_8,243,1,48,27,1061622196
1178,20,Ticks_Linear_8,244,5,42,127,1061693748
1178,20,Ticks_Linear_8,245,1,48,24,1062191244
1178,20,Ticks_Linear_8,246,5,42,127,1062253884
1178,20,Ticks_Linear_8,247,1,48,27,1062773840
1178,20,Ticks_Linear_8,248,5,42,127,1062814040
1178,20,Ticks_Linear_8,249,1,48,27,1063331144
1178,20,Ticks_Linear_8,250,5,42,127,1063374172
1178,20,Ticks_Linear_8,251,1,48,24,1063911808
1178,20,Ticks_Linear_8,252,5,42,127,1063934308
1178,20,Ticks_Linear_8,253,1,48,23,1064457560
1178,20,Ticks_Linear_8,254,5,42,127,1064484332
1178,20,Ticks_Linear_8,255,1,48,23,1064997996
1178,20,Ticks_Linear_8,256,5,42,127,1065034208
1178,20,Ticks_Linear_8,257,1,48,23,1065519564
1178,20,Ticks_Linear_8,258,5,42,127,1065583936
1178,20,Ticks_Linear_8,259,1,48,24,1066085164
1178,20,Ticks_Linear_8,260,5,42,127,1066133836
1178,20,Ticks_Linear_8,261,1,48,22,1066643228
1178,20,Ticks_Linear_8,262,5,42,127,1066683860
1178,20,Ticks_Linear_8,263,1,48,20,1067179692
1178,20,Ticks_Linear_8,264,5,42,127,1067224444
1178,20,Ticks_Linear_8,265,1,48,22,1067713704
1178,20,Ticks_Linear_8,266,5,42,127,1067774396
1178,20,Ticks_Linear_8,267,1,48,23,1068223588
1178,20,Ticks_Linear_8,268,5,42,127,1068313864
1178,20,Ticks_Linear_8,269,1,48,23,1068790448
1178,20,Ticks_Linear_8,270,5,42,127,1068853480
1178,20,Ticks_Linear_8,271,1,48,22,1069335688
1178,20,Ticks_Linear_8,272,5,42,127,1069394364
1178,20,Ticks_Linear_8,273,1,48,24,1069861892
1178,20,Ticks_Linear_8,274,5,42,127,1069924020
1178,20,Ticks_Linear_8,275,1,48,24,1070387956
1178,20,Ticks_Linear_8,276,5,42,127,1070454124
1178,20,Ticks_Linear_8,277,1,48,19,1070955956
1178,20,Ticks_Linear_8,278,5,42,127,1070983432
1178,20,Ticks_Linear_8,279,1,48,22,1071484488
1178,20,Ticks_Linear_8,280,5,42,127,1071513908
1178,20,Ticks_Linear_8,281,1,48,21,1072009224
1178,20,Ticks_Linear_8,282,5,42,127,1072044460
1178,20,Ticks_Linear_8,283,1,48,23,1072519104
1178,20,Ticks_Linear_8,284,5,42,127,1072563560
1178,20,Ticks_Linear_8,285,1,48,21,1073051524
1178,20,Ticks_Linear_8,286,5,42,127,1073083776
1178,20,Ticks_Linear_8,287,1,48,22,1073572800
1178,20,Ticks_Linear_8,288,5,42,127,1073603920
1178,20,Ticks_Linear_8,289,1,48,23,1074081480
1178,20,Ticks_Linear_8,290,5,42,127,1074124064
1178,20,Ticks_Linear_8,291,1,48,22,1074578788
1178,20,Ticks_Linear_8,292,5,42,127,1074644356
1178,20,Ticks_Linear_8,293,1,48,22,1075115932
1178,20,Ticks_Linear_8,294,5,42,127,1075154168
1178,20,Ticks_Linear_8,295,1,48,27,1075619376
1178,20,Ticks_Linear_8,296,5,42,127,1075664200
1178,20,Ticks_Linear_8,297,1,48,25,1076129704
1178,20,Ticks_Linear_8,298,5,42,127,1076174088
1178,20,Ticks_Linear_8,299,1,48,26,1076665056
1178,20,Ticks_Linear_8,300,5,42,127,1076684120
1178,20,Ticks_Linear_8,301,1,48,25,1077180252
1178,20,Ticks_Linear_8,302,5,42,127,1077194156
1178,20,Ticks_Linear_8,303,1,48,27,1077674720
1178,20,Ticks_Linear_8,304,5,42,127,1077693780
1178,20,Ticks_Linear_8,305,1,48,24,1078173224
1178,20,Ticks_Linear_8,306,5,42,127,1078193632
1178,20,Ticks_Linear_8,307,1,48,24,1078645860
1178,20,Ticks_Linear_8,308,5,42,127,1078694228
1178,20,Ticks_Linear_8,309,1,48,27,1079126244
1178,20,Ticks_Linear_8,310,5,42,127,1079194004
1178,20,Ticks_Linear_8,311,1,48,23,1079635896
1178,20,Ticks_Linear_8,312,5,42,127,1079693852
1178,20,Ticks_Linear_8,313,1,48,21,1080141136
1178,20,Ticks_Linear_8,314,5,42,127,1080184092
1178,20,Ticks_Linear_8,315,1,48,24,1080636572
1178,20,Ticks_Linear_8,316,5,42,127,1080673980
1178,20,Ticks_Linear_8,317,1,48,23,1081115300
1178,20,Ticks_Linear_8,318,5,42,127,1081164020
1178,20,Ticks_Linear_8,319,1,48,24,1081581684
1178,20,Ticks_Linear_8,320,5,42,127,1081653684
1178,20,Ticks_Linear_8,321,1,48,24,1082078676
1178,20,Ticks_Linear_8,322,5,42,127,1082144248
1178,20,Ticks_Linear_8,0,9999,9999,9999,971562084
1178,20,Ticks_Linear_8,1,9999,9999,9999,972381304
1178,20,Ticks_Linear_8,2,9999,9999,9999,973201516
1178,20,Ticks_Linear_8,3,9999,9999,9999,974021708
1178,20,Ticks_Linear_8,4,9999,9999,9999,974841972
1178,20,Ticks_Linear_8,5,9999,9999,9999,975651948
1178,20,Ticks_Linear_8,6,9999,9999,9999,976461940
1178,20,Ticks_Linear_8,7,9999,9999,9999,977271920
1178,20,Ticks_Linear_8,8,9999,9999,9999,978081856
1178,20,Ticks_Linear_8,9,9999,9999,9999,978891836
1178,20,Ticks_Linear_8,10,9999,9999,9999,979691636
1178,20,Ticks_Linear_8,11,9999,9999,9999,980491360
1178,20,Ticks_Linear_8,12,9999,9999,9999,981291084
1178,20,Ticks_Linear_8,13,9999,9999,9999,982091852
1178,20,Ticks_Linear_8,14,9999,9999,9999,982891644
1178,20,Ticks_Linear_8,15,9999,9999,9999,983681116
1178,20,Ticks_Linear_8,16,9999,9999,9999,984471648
1178,20,Ticks_Linear_8,17,9999,9999,9999,985261116
1178,20,Ticks_Linear_8,18,9999,9999,9999,986051644
1178,20,Ticks_Linear_8,19,9999,9999,9999,986841184
1178,20,Ticks_Linear_8,20,9999,9999,9999,987621436
1178,20,Ticks_Linear_8,21,9999,9999,9999,988401768
1178,20,Ticks_Linear_8,22,9999,9999,9999,989182016
1178,20,Ticks_Linear_8,23,9999,9999,9999,989961304
1178,20,Ticks_Linear_8,24,9999,9999,9999,990741632
1178,20,Ticks_Linear_8,25,9999,9999,9999,991511624
1178,20,Ticks_Linear_8,26,9999,9999,9999,992281688
1178,20,Ticks_Linear_8,27,9999,9999,9999,993051752
1178,20,Ticks_Linear_8,28,9999,9999,9999,993821820
1178,20,Ticks_Linear_8,29,9999,9999,9999,994591816
1178,20,Ticks_Linear_8,30,9999,9999,9999,995351624
1178,20,Ticks_Linear_8,31,9999,9999,9999,996111436
1178,20,Ticks_Linear_8,32,9999,9999,9999,996871244
1178,20,Ticks_Linear_8,33,9999,9999,9999,997632100
1178,20,Ticks_Linear_8,34,9999,9999,9999,998401120
1178,20,Ticks_Linear_8,35,9999,9999,9999,999151716
1178,20,Ticks_Linear_8,36,9999,9999,9999,999901272
1178,20,Ticks_Linear_8,37,9999,9999,9999,1000651864
1178,20,Ticks_Linear_8,38,9999,9999,9999,1001401420
1178,20,Ticks_Linear_8,39,9999,9999,9999,1002152016
1178,20,Ticks_Linear_8,40,9999,9999,9999,1002891376
1178,20,Ticks_Linear_8,41,9999,9999,9999,1003631696
1178,20,Ticks_Linear_8,42,9999,9999,9999,1004372032
1178,20,Ticks_Linear_8,43,9999,9999,9999,1005111400
1178,20,Ticks_Linear_8,44,9999,9999,9999,1005851732
1178,20,Ticks_Linear_8,45,9999,9999,9999,1006581836
1178,20,Ticks_Linear_8,46,9999,9999,9999,1007311988
1178,20,Ticks_Linear_8,47,9999,9999,9999,1008042064
1178,20,Ticks_Linear_8,48,9999,9999,9999,1008771144
1178,20,Ticks_Linear_8,49,9999,9999,9999,1009501248
1178,20,Ticks_Linear_8,50,9999,9999,9999,1010221164
1178,20,Ticks_Linear_8,51,9999,9999,9999,1010942052
1178,20,Ticks_Linear_8,52,9999,9999,9999,1011661884
1178,20,Ticks_Linear_8,53,9999,9999,9999,1012381776
1178,20,Ticks_Linear_8,54,9999,9999,9999,1013101648
1178,20,Ticks_Linear_8,55,9999,9999,9999,1013811288
1178,20,Ticks_Linear_8,56,9999,9999,9999,1014521968
1178,20,Ticks_Linear_8,57,9999,9999,9999,1015231604
1178,20,Ticks_Linear_8,58,9999,9999,9999,1015941240
1178,20,Ticks_Linear_8,59,9999,9999,9999,1016651896
1178,20,Ticks_Linear_8,60,9999,9999,9999,1017351272
1178,20,Ticks_Linear_8,61,9999,9999,9999,1018051644
1178,20,Ticks_Linear_8,62,9999,9999,9999,1018752060
1178,20,Ticks_Linear_8,63,9999,9999,9999,1019461688
1178,20,Ticks_Linear_8,64,9999,9999,9999,1020161120
1178,20,Ticks_Linear_8,65,9999,9999,9999,1020851284
1178,20,Ticks_Linear_8,66,9999,9999,9999,1021541440
1178,20,Ticks_Linear_8,67,9999,9999,9999,1022231676
1178,20,Ticks_Linear_8,68,9999,9999,9999,1022921840
1178,20,Ticks_Linear_8,69,9999,9999,9999,1023611984
1178,20,Ticks_Linear_8,70,9999,9999,9999,1024291964
1178,20,Ticks_Linear_8,71,9999,9999,9999,1024971868
1178,20,Ticks_Linear_8,72,9999,9999,9999,1025651820
1178,20,Ticks_Linear_8,73,9999,9999,9999,1026331724
1178,20,Ticks_Linear_8,74,9999,9999,9999,1027011652
1178,20,Ticks_Linear_8,75,9999,9999,9999,1027681368
1178,20,Ticks_Linear_8,76,9999,9999,9999,1028352080
1178,20,Ticks_Linear_8,77,9999,9999,9999,1029032004
1178,20,Ticks_Linear_8,78,9999,9999,9999,1029701700
1178,20,Ticks_Linear_8,79,9999,9999,9999,1030371420
1178,20,Ticks_Linear_8,80,9999,9999,9999,1031031904
1178,20,Ticks_Linear_8,81,9999,9999,9999,1031691356
1178,20,Ticks_Linear_8,82,9999,9999,9999,1032351868
1178,20,Ticks_Linear_8,83,9999,9999,9999,1033011296
1178,20,Ticks_Linear_8,84,9999,9999,9999,1033671736
1178,20,Ticks_Linear_8,85,9999,9999,9999,1034322036
1178,20,Ticks_Linear_8,86,9999,9999,9999,1034971236
1178,20,Ticks_Linear_8,87,9999,9999,9999,1035621460
1178,20,Ticks_Linear_8,88,9999,9999,9999,1036271708
1178,20,Ticks_Linear_8,89,9999,9999,9999,1036921924
1178,20,Ticks_Linear_8,90,9999,9999,9999,1037561912
1178,20,Ticks_Linear_8,91,9999,9999,9999,1038201948
1178,20,Ticks_Linear_8,92,9999,9999,9999,1038841940
1178,20,Ticks_Linear_8,93,9999,9999,9999,1039481980
1178,20,Ticks_Linear_8,94,9999,9999,9999,1040121968
1178,20,Ticks_Linear_8,95,9999,9999,9999,1040751672
1178,20,Ticks_Linear_8,96,9999,9999,9999,1041381484
1178,20,Ticks_Linear_8,97,9999,9999,9999,1042011192
1178,20,Ticks_Linear_8,98,9999,9999,9999,1042642040
1178,20,Ticks_Linear_8,99,9999,9999,9999,1043271744
1178,20,Ticks_Linear_8,100,9999,9999,9999,1043891284
1178,20,Ticks_Linear_8,101,9999,9999,9999,1044511852
1178,20,Ticks_Linear_8,102,9999,9999,9999,1045131320
1178,20,Ticks_Linear_8,103,9999,9999,9999,1045751888
1178,20,Ticks_Linear_8,104,9999,9999,9999,1046371404
1178,20,Ticks_Linear_8,105,9999,9999,9999,1046981744
1178,20,Ticks_Linear_8,106,9999,9999,9999,1047592048
1178,20,Ticks_Linear_8,107,9999,9999,9999,1048201336
1178,20,Ticks_Linear_8,108,9999,9999,9999,1048811644
1178,20,Ticks_Linear_8,109,9999,9999,9999,1049421952
1178,20,Ticks_Linear_8,110,9999,9999,9999,1050021956
1178,20,Ticks_Linear_8,111,9999,9999,9999,1050622004
1178,20,Ticks_Linear_8,112,9999,9999,9999,1051222128
1178,20,Ticks_Linear_8,113,9999,9999,9999,1051831408
1178,20,Ticks_Linear_8,114,9999,9999,9999,1052431456
1178,20,Ticks_Linear_8,115,9999,9999,9999,1053021248
1178,20,Ticks_Linear_8,116,9999,9999,9999,1053611136
1178,20,Ticks_Linear_8,117,9999,9999,9999,1054201972
1178,20,Ticks_Linear_8,118,9999,9999,9999,1054791768
1178,20,Ticks_Linear_8,119,9999,9999,9999,1055381576
1178,20,Ticks_Linear_8,120,9999,9999,9999,1055961184
1178,20,Ticks_Linear_8,121,9999,9999,9999,1056541760
1178,20,Ticks_Linear_8,122,9999,9999,9999,1057121364
1178,20,Ticks_Linear_8,123,9999,9999,9999,1057701964
1178,20,Ticks_Linear_8,124,9999,9999,9999,1058281576
1178,20,Ticks_Linear_8,125,9999,9999,9999,1058851896
1178,20,Ticks_Linear_8,126,9999,9999,9999,1059421312
1178,20,Ticks_Linear_8,127,9999,9999,9999,1059991652
1178,20,Ticks_Linear_8,128,9999,9999,9999,1060562044
1178,20,Ticks_Linear_8,129,9999,9999,9999,1061131316
1178,20,Ticks_Linear_8,130,9999,9999,9999,1061691452
1178,20,Ticks_Linear_8,131,9999,9999,9999,1062251584
1178,20,Ticks_Linear_8,132,9999,9999,9999,1062811744
1178,20,Ticks_Linear_8,133,9999,9999,9999,1063371876
1178,20,Ticks_Linear_8,134,9999,9999,9999,1063932012
1178,20,Ticks_Linear_8,135,9999,9999,9999,1064481888
1178,20,Ticks_Linear_8,136,9999,9999,9999,1065031760
1178,20,Ticks_Linear_8,137,9999,9999,9999,1065581636
1178,20,Ticks_Linear_8,138,9999,9999,9999,1066131536
1178,20,Ticks_Linear_8,139,9999,9999,9999,1066681412
1178,20,Ticks_Linear_8,140,9999,9999,9999,1067222072
1178,20,Ticks_Linear_8,141,9999,9999,9999,1067772024
1178,20,Ticks_Linear_8,142,9999,9999,9999,1068311640
1178,20,Ticks_Linear_8,143,9999,9999,9999,1068851256
1178,20,Ticks_Linear_8,144,9999,9999,9999,1069391992
1178,20,Ticks_Linear_8,145,9999,9999,9999,1069921352
1178,20,Ticks_Linear_8,146,9999,9999,9999,1070451828
1178,20,Ticks_Linear_8,147,9999,9999,9999,1070981208
1178,20,Ticks_Linear_8,148,9999,9999,9999,1071511612
1178,20,Ticks_Linear_8,149,9999,9999,9999,1072042088
1178,20,Ticks_Linear_8,150,9999,9999,9999,1072561260
1178,20,Ticks_Linear_8,151,9999,9999,9999,1073081404
1178,20,Ticks_Linear_8,152,9999,9999,9999,1073601620
1178,20,Ticks_Linear_8,153,9999,9999,9999,1074121840
1178,20,Ticks_Linear_8,154,9999,9999,9999,1074641984
1178,20,Ticks_Linear_8,155,9999,9999,9999,1075151944
1178,20,Ticks_Linear_8,156,9999,9999,9999,1075661904
1178,20,Ticks_Linear_8,157,9999,9999,9999,1076171860
1178,20,Ticks_Linear_8,158,9999,9999,9999,1076681824
1178,20,Ticks_Linear_8,159,9999,9999,9999,1077191780
1178,20,Ticks_Linear_8,160,9999,9999,9999,1077691484
1178,20,Ticks_Linear_8,161,9999,9999,9999,1078191184
1178,20,Ticks_Linear_8,162,9999,9999,9999,1078691932
1178,20,Ticks_Linear_8,163,9999,9999,9999,1079191632
1178,20,Ticks_Linear_8,164,9999,9999,9999,1079691332
1178,20,Ticks_Linear_8,165,9999,9999,9999,1080181868
1178,20,Ticks_Linear_8,166,9999,9999,9999,1080671308
1178,20,Ticks_Linear_8,167,9999,9999,9999,1081161796
1178,20,Ticks_Linear_8,168,9999,9999,9999,1081651312
1178,20,Ticks_Linear_8,169,9999,9999,9999,1082141800
1179,10,Ticks_ISO_T2_5,0,5,42,127,1091157408
1179,10,Ticks_ISO_T2_5,1,5,42,127,1091657124
1179,10,Ticks_ISO_T2_5,2,5,42,127,1092156692
1179,10,Ticks_ISO_T2_5,3,5,42,127,1092656632
1179,10,Ticks_ISO_T2_5,4,1,48,33,1093094676
1179,10,Ticks_ISO_T2_5,5,5,42,127,1093157164
1179,10,Ticks_ISO_T2_5,6,1,48,26,1093598180
1179,10,Ticks_ISO_T2_5,7,5,42,127,1093656932
1179,10,Ticks_ISO_T2_5,8,1,48,30,1094069904
1179,10,Ticks_ISO_T2_5,9,5,42,127,1094156556
1179,10,Ticks_ISO_T2_5,10,1,48,27,1094601236
1179,10,Ticks_ISO_T2_5,11,5,42,127,1094657296
1179,10,Ticks_ISO_T2_5,12,1,48,28,1095100108
1179,10,Ticks_ISO_T2_5,13,5,42,127,1095157212
1179,10,Ticks_ISO_T2_5,14,1,48,25,1095606312
1179,10,Ticks_ISO_T2_5,15,5,42,127,1095656908
1179,10,Ticks_ISO_T2_5,16,1,48,28,1096106824
1179,10,Ticks_ISO_T2_5,17,5,42,127,1096156528
1179,10,Ticks_ISO_T2_5,18,1,48,24,1096617892
1179,10,Ticks_ISO_T2_5,19,5,42,127,1096657348
1179,10,Ticks_ISO_T2_5,20,1,48,27,1097098296
1179,10,Ticks_ISO_T2_5,21,5,42,127,1097157040
1179,10,Ticks_ISO_T2_5,22,1,48,32,1097584944
1179,10,Ticks_ISO_T2_5,23,5,42,127,1097656660
1179,10,Ticks_ISO_T2_5,24,1,48,28,1098102736
1179,10,Ticks_ISO_T2_5,25,5,42,127,1098157328
1179,10,Ticks_ISO_T2_5,26,1,48,31,1098590392
1179,10,Ticks_ISO_T2_5,27,5,42,127,1098657244
1179,10,Ticks_ISO_T2_5,28,1,48,26,1099081704
1179,10,Ticks_ISO_T2_5,29,5,42,127,1099156864
1179,10,Ticks_ISO_T2_5,30,1,48,25,1099581328
1179,10,Ticks_ISO_T2_5,31,5,42,127,1099656412
1179,10,Ticks_ISO_T2_5,32,1,48,25,1100067112
1179,10,Ticks_ISO_T2_5,33,5,42,127,1100157200
1179,10,Ticks_ISO_T2_5,34,1,48,24,1100580268
1179,10,Ticks_ISO_T2_5,35,5,42,127,1100656972
1179,10,Ticks_ISO_T2_5,36,1,48,27,1101085876
1179,10,Ticks_ISO_T2_5,37,5,42,127,1101156668
1179,10,Ticks_ISO_T2_5,38,1,48,24,1101601852
1179,10,Ticks_ISO_T2_5,39,5,42,127,1101656560
1179,10,Ticks_ISO_T2_5,40,1,48,26,1102093840
1179,10,Ticks_ISO_T2_5,41,5,42,127,1102157300
1179,10,Ticks_ISO_T2_5,42,1,48,27,1102608340
1179,10,Ticks_ISO_T2_5,43,5,42,127,1102656844
1179,10,Ticks_ISO_T2_5,44,1,48,28,1103123292
1179,10,Ticks_ISO_T2_5,45,5,42,127,1103156540
1179,10,Ticks_ISO_T2_5,46,1,48,29,1103616260
1179,10,Ticks_ISO_T2_5,47,5,42,127,1103657356
1179,10,Ticks_ISO_T2_5,48,1,48,24,1104131808
1179,10,Ticks_ISO_T2_5,49,5,42,127,1104157200
1179,10,Ticks_ISO_T2_5,50,1,48,21,1104653268
1179,10,Ticks_ISO_T2_5,51,5,42,127,1104656896
1179,10,Ticks_ISO_T2_5,52,1,48,26,1105141296
1179,10,Ticks_ISO_T2_5,53,5,42,127,1105156368
1179,10,Ticks_ISO_T2_5,54,5,42,127,1105657188
1179,10,Ticks_ISO_T2_5,55,1,48,23,1105660604
1179,10,Ticks_ISO_T2_5,56,1,48,21,1106147268
1179,10,Ticks_ISO_T2_5,57,5,42,127,1106156876
1179,10,Ticks_ISO_T2_5,58,5,42,127,1106656652
1179,10,Ticks_ISO_T2_5,59,1,48,20,1106661940
1179,10,Ticks_ISO_T2_5,60,1,48,23,1107143964
1179,10,Ticks_ISO_T2_5,61,5,42,127,1107157312
1179,10,Ticks_ISO_T2_5,62,1,48,21,1107628920
1179,10,Ticks_ISO_T2_5,63,5,42,127,1107657156
1179,10,Ticks_ISO_T2_5,64,1,48,24,1108114932
1179,10,Ticks_ISO_T2_5,65,5,42,127,1108156776
1179,10,Ticks_ISO_T2_5,66,1,48,24,1108620232
1179,10,Ticks_ISO_T2_5,67,5,42,127,1108656472
1179,10,Ticks_ISO_T2_5,68,1,48,26,1109094776
1179,10,Ticks_ISO_T2_5,69,5,42,127,1109157216
1179,10,Ticks_ISO_T2_5,70,1,48,22,1109604568
1179,10,Ticks_ISO_T2_5,71,5,42,127,1109656984
1179,10,Ticks_ISO_T2_5,72,1,48,20,1110088404
1179,10,Ticks_ISO_T2_5,73,5,42,127,1110156680
1179,10,Ticks_ISO_T2_5,74,1,48,27,1110565508
1179,10,Ticks_ISO_T2_5,75,5,42,127,1110657496
1179,10,Ticks_ISO_T2_5,76,1,48,24,1111104172
1179,10,Ticks_ISO_T2_5,77,5,42,127,1111157092
1179,10,Ticks_ISO_T2_5,78,1,48,23,1111592128
1179,10,Ticks_ISO_T2_5,79,5,42,127,1111656784
1179,10,Ticks_ISO_T2_5,80,1,48,26,1112069384
1179,10,Ticks_ISO_T2_5,81,5,42,127,1112156628
1179,10,Ticks_ISO_T2_5,82,1,48,27,1112568552
1179,10,Ticks_ISO_T2_5,83,5,42,127,1112657148
1179,10,Ticks_ISO_T2_5,84,1,48,24,1113059196
1179,10,Ticks_ISO_T2_5,85,5,42,127,1113157200
1179,10,Ticks_ISO_T2_5,86,1,48,23,1113561364
1179,10,Ticks_ISO_T2_5,87,5,42,127,1113656612
1179,10,Ticks_ISO_T2_5,88,1,48,23,1114066884
1179,10,Ticks_ISO_T2_5,89,5,42,127,1114157280
1179,10,Ticks_ISO_T2_5,90,1,48,27,1114610560
1179,10,Ticks_ISO_T2_5,91,5,42,127,1114657124
1179,10,Ticks_ISO_T2_5,92,1,48,27,1115106292
1179,10,Ticks_ISO_T2_5,93,5,42,127,1115157116
1179,10,Ticks_ISO_T2_5,94,1,48,22,1115605096
1179,10,Ticks_ISO_T2_5,95,5,42,127,1115656440
1179,10,Ticks_ISO_T2_5,96,1,48,26,1116080700
1179,10,Ticks_ISO_T2_5,97,5,42,127,1116157256
1179,10,Ticks_ISO_T2_5,98,1,48,24,1116583464
1179,10,Ticks_ISO_T2_5,99,5,42,127,1116657172
1179,10,Ticks_ISO_T2_5,100,1,48,21,1117091088
1179,10,Ticks_ISO_T2_5,101,5,42,127,1117156572
1179,10,Ticks_ISO_T2_5,102,1,48,26,1117604544
1179,10,Ticks_ISO_T2_5,103,5,42,127,1117656416
1179,10,Ticks_ISO_T2_5,104,1,48,21,1118112916
1179,10,Ticks_ISO_T2_5,105,5,42,127,1118157304
1179,10,Ticks_ISO_T2_5,106,1,48,21,1118622184
1179,10,Ticks_ISO_T2_5,107,5,42,127,1118657072
1179,10,Ticks_ISO_T2_5,108,1,48,26,1119131904
1179,10,Ticks_ISO_T2_5,109,5,42,127,1119156544
1179,10,Ticks_ISO_T2_5,110,1,48,23,1119651192
1179,10,Ticks_ISO_T2_5,111,5,42,127,1119657288
1179,10,Ticks_ISO_T2_5,112,1,48,27,1120141688
1179,10,Ticks_ISO_T2_5,113,5,42,127,1120156980
1179,10,Ticks_ISO_T2_5,114,1,48,25,1120616224
1179,10,Ticks_ISO_T2_5,115,5,42,127,1120656900
1179,10,Ticks_ISO_T2_5,116,1,48,24,1121119060
1179,10,Ticks_ISO_T2_5,117,5,42,127,1121156444
1179,10,Ticks_ISO_T2_5,118,1,48,25,1121584792
1179,10,Ticks_ISO_T2_5,119,5,42,127,1121657084
1179,10,Ticks_ISO_T2_5,120,1,48,22,1122107080
1179,10,Ticks_ISO_T2_5,121,5,42,127,1122157080
1179,10,Ticks_ISO_T2_5,122,1,48,26,1122590916
1179,10,Ticks_ISO_T2_5,123,5,42,127,1122656772
1179,10,Ticks_ISO_T2_5,124,1,48,24,1123112152
1179,10,Ticks_ISO_T2_5,125,5,42,127,1123157440
1179,10,Ticks_ISO_T2_5,126,1,48,24,1123624040
1179,10,Ticks_ISO_T2_5,127,5,42,127,1123657208
1179,10,Ticks_ISO_T2_5,128,1,48,21,1124108404
1179,10,Ticks_ISO_T2_5,129,5,42,127,1124156976
1179,10,Ticks_ISO_T2_5,130,1,48,24,1124623432
1179,10,Ticks_ISO_T2_5,131,5,42,127,1124656376
1179,10,Ticks_ISO_T2_5,132,1,48,26,1125121404
1179,10,Ticks_ISO_T2_5,133,5,42,127,1125157268
1179,10,Ticks_ISO_T2_5,134,1,48,24,1125628280
1179,10,Ticks_ISO_T2_5,135,5,42,127,1125657108
1179,10,Ticks_ISO_T2_5,136,1,48,22,1126124008
1179,10,Ticks_ISO_T2_5,137,5,42,127,1126156952
1179,10,Ticks_ISO_T2_5,138,1,48,22,1126613976
1179,10,Ticks_ISO_T2_5,139,5,42,127,1126657248
1179,10,Ticks_ISO_T2_5,140,1,48,22,1127088396
1179,10,Ticks_ISO_T2_5,141,5,42,127,1127157092
1179,10,Ticks_ISO_T2_5,142,1,48,21,1127595416
1179,10,Ticks_ISO_T2_5,143,5,42,127,1127656712
1179,10,Ticks_ISO_T2_5,144,1,48,21,1128107604
1179,10,Ticks_ISO_T2_5,145,5,42,127,1128156632
1179,10,Ticks_ISO_T2_5,146,1,48,23,1128597652
1179,10,Ticks_ISO_T2_5,147,5,42,127,1128657224
1179,10,Ticks_ISO_T2_5,148,1,48,26,1129110132
1179,10,Ticks_ISO_T2_5,149,5,42,127,1129156920
1179,10,Ticks_ISO_T2_5,150,1,48,23,1129586164
1179,10,Ticks_ISO_T2_5,151,5,42,127,1129656612
1179,10,Ticks_ISO_T2_5,152,1,48,24,1130101268
1179,10,Ticks_ISO_T2_5,153,5,42,127,1130157504
1179,10,Ticks_ISO_T2_5,154,1,48,26,1130567452
1179,10,Ticks_ISO_T2_5,155,5,42,127,1130657124
1179,10,Ticks_ISO_T2_5,156,1,48,18,1131105672
1179,10,Ticks_ISO_T2_5,157,5,42,127,1131156892
1179,10,Ticks_ISO_T2_5,158,1,48,24,1131606860
1179,10,Ticks_ISO_T2_5,159,5,42,127,1131656588
1179,10,Ticks_ISO_T2_5,160,1,48,21,1132114704
1179,10,Ticks_ISO_T2_5,161,5,42,127,1132157152
1179,10,Ticks_ISO_T2_5,162,1,48,20,1132595776
1179,10,Ticks_ISO_T2_5,163,5,42,127,1132657144
1179,10,Ticks_ISO_T2_5,164,1,48,20,1133072136
1179,10,Ticks_ISO_T2_5,165,5,42,127,1133156620
1179,10,Ticks_ISO_T2_5,166,1,48,22,1133577592
1179,10,Ticks_ISO_T2_5,167,5,42,127,1133656536
1179,10,Ticks_ISO_T2_5,168,1,48,19,1134096808
1179,10,Ticks_ISO_T2_5,169,5,42,127,1134157052
1179,10,Ticks_ISO_T2_5,170,1,48,23,1134598068
1179,10,Ticks_ISO_T2_5,171,5,42,127,1134656824
1179,10,Ticks_ISO_T2_5,172,1,48,19,1135095592
1179,10,Ticks_ISO_T2_5,173,5,42,127,1135156516
1179,10,Ticks_ISO_T2_5,174,1,48,19,1135608084
1179,10,Ticks_ISO_T2_5,175,5,42,127,1135657260
1179,10,Ticks_ISO_T2_5,176,1,48,22,1136100668
1179,10,Ticks_ISO_T2_5,177,5,42,127,1136156952
1179,10,Ticks_ISO_T2_5,178,1,48,21,1136603432
1179,10,Ticks_ISO_T2_5,179,5,42,127,1136656796
1179,10,Ticks_ISO_T2_5,180,1,48,20,1137112996
1179,10,Ticks_ISO_T2_5,181,5,42,127,1137156640
1179,10,Ticks_ISO_T2_5,182,1,48,21,1137630716
1179,10,Ticks_ISO_T2_5,183,5,42,127,1137657156
1179,10,Ticks_ISO_T2_5,184,1,48,21,1138117704
1179,10,Ticks_ISO_T2_5,185,5,42,127,1138156780
1179,10,Ticks_ISO_T2_5,186,1,48,17,1138600564
1179,10,Ticks_ISO_T2_5,187,5,42,127,1138656548
1179,10,Ticks_ISO_T2_5,188,1,48,21,1139097940
1179,10,Ticks_ISO_T2_5,189,5,42,127,1139157736
1179,10,Ticks_ISO_T2_5,190,1,48,22,1139606612
1179,10,Ticks_ISO_T2_5,191,5,42,127,1139656984
1179,10,Ticks_ISO_T2_5,192,1,48,22,1140089076
1179,10,Ticks_ISO_T2_5,193,5,42,127,1140156752
1179,10,Ticks_ISO_T2_5,194,1,48,22,1140601556
1179,10,Ticks_ISO_T2_5,195,5,42,127,1140656520
1179,10,Ticks_ISO_T2_5,196,1,48,22,1141118336
1179,10,Ticks_ISO_T2_5,197,5,42,127,1141157188
1179,10,Ticks_ISO_T2_5,198,1,48,21,1141627132
1179,10,Ticks_ISO_T2_5,199,5,42,127,1141656956
1179,10,Ticks_ISO_T2_5,200,1,48,21,1142105876
1179,10,Ticks_ISO_T2_5,201,5,42,127,1142156652
1179,10,Ticks_ISO_T2_5,202,1,48,20,1142590540
1179,10,Ticks_ISO_T2_5,203,5,42,127,1142657616
1179,10,Ticks_ISO_T2_5,204,1,48,24,1143067120
1179,10,Ticks_ISO_T2_5,205,5,42,127,1143157060
1179,10,Ticks_ISO_T2_5,206,1,48,21,1143583272
1179,10,Ticks_ISO_T2_5,207,5,42,127,1143656756
1179,10,Ticks_ISO_T2_5,208,1,48,22,1144061844
1179,10,Ticks_ISO_T2_5,209,5,42,127,1144156428
1179,10,Ticks_ISO_T2_5,210,1,48,19,1144587504
1179,10,Ticks_ISO_T2_5,211,5,42,127,1144657692
1179,10,Ticks_ISO_T2_5,212,1,48,25,1145086592
1179,10,Ticks_ISO_T2_5,213,5,42,127,1145157016
1179,10,Ticks_ISO_T2_5,214,1,48,21,1145590328
1179,10,Ticks_ISO_T2_5,215,5,42,127,1145656636
1179,10,Ticks_ISO_T2_5,216,1,48,20,1146091068
1179,10,Ticks_ISO_T2_5,217,5,42,127,1146157600
1179,10,Ticks_ISO_T2_5,218,1,48,21,1146576104
1179,10,Ticks_ISO_T2_5,219,5,42,127,1146657068
1179,10,Ticks_ISO_T2_5,220,1,48,23,1147076320
1179,10,Ticks_ISO_T2_5,221,5,42,127,1147156912
1179,10,Ticks_ISO_T2_5,222,1,48,14,1147599428
1179,10,Ticks_ISO_T2_5,223,5,42,127,1147656460
1179,10,Ticks_ISO_T2_5,224,1,48,20,1148083344
1179,10,Ticks_ISO_T2_5,225,5,42,127,1148157500
1179,10,Ticks_ISO_T2_5,226,1,48,21,1148604276
1179,10,Ticks_ISO_T2_5,227,5,42,127,1148657120
1179,10,Ticks_ISO_T2_5,228,1,48,19,1149111900
1179,10,Ticks_ISO_T2_5,229,5,42,127,1149156592
1179,10,Ticks_ISO_T2_5,230,1,48,19,1149646672
1179,10,Ticks_ISO_T2_5,231,5,42,127,1149656284
1179,10,Ticks_ISO_T2_5,232,1,48,21,1150144420
1179,10,Ticks_ISO_T2_5,233,5,42,127,1150157396
1179,10,Ticks_ISO_T2_5,234,1,48,19,1150621832
1179,10,Ticks_ISO_T2_5,235,5,42,127,1150657092
1179,10,Ticks_ISO_T2_5,236,1,48,21,1151102824
1179,10,Ticks_ISO_T2_5,237,5,42,127,1151156492
1179,10,Ticks_ISO_T2_5,238,1,48,19,1151616360
1179,10,Ticks_ISO_T2_5,239,5,42,127,1151657456
1179,10,Ticks_ISO_T2_5,240,1,48,21,1152105252
1179,10,Ticks_ISO_T2_5,241,5,42,127,1152157296
1179,10,Ticks_ISO_T2_5,242,1,48,20,1152586852
1179,10,Ticks_ISO_T2_5,243,5,42,127,1152656768
1179,10,Ticks_ISO_T2_5,244,1,48,20,1153062308
1179,10,Ticks_ISO_T2_5,245,5,42,127,1153156464
1179,10,Ticks_ISO_T2_5,246,1,48,21,1153604188
1179,10,Ticks_ISO_T2_5,247,5,42,127,1153657328
1179,10,Ticks_ISO_T2_5,248,1,48,21,1154082564
1179,10,Ticks_ISO_T2_5,249,5,42,127,1154157024
1179,10,Ticks_ISO_T2_5,250,1,48,20,1154584952
1179,10,Ticks_ISO_T2_5,251,5,42,127,1154656568
1179,10,Ticks_ISO_T2_5,252,1,48,19,1155058020
1179,10,Ticks_ISO_T2_5,253,5,42,127,1155157372
1179,10,Ticks_ISO_T2_5,254,1,48,20,1155568040
1179,10,Ticks_ISO_T2_5,255,5,42,127,1155657156
1179,10,Ticks_ISO_T2_5,256,1,48,21,1156034148
1179,10,Ticks_ISO_T2_5,0,9999,9999,9999,1091155044
1179,10,Ticks_ISO_T2_5,1,9999,9999,9999,1091654760
1179,10,Ticks_ISO_T2_5,2,9999,9999,9999,1092154476
1179,10,Ticks_ISO_T2_5,3,9999,9999,9999,1092654192
1179,10,Ticks_ISO_T2_5,4,9999,9999,9999,1093154876
1179,10,Ticks_ISO_T2_5,5,9999,9999,9999,1093654644
1179,10,Ticks_ISO_T2_5,6,9999,9999,9999,1094154340
1179,10,Ticks_ISO_T2_5,7,9999,9999,9999,1094655080
1179,10,Ticks_ISO_T2_5,8,9999,9999,9999,1095154776
1179,10,Ticks_ISO_T2_5,9,9999,9999,9999,1095654472
1179,10,Ticks_ISO_T2_5,10,9999,9999,9999,1096154164
1179,10,Ticks_ISO_T2_5,11,9999,9999,9999,1096654908
1179,10,Ticks_ISO_T2_5,12,9999,9999,9999,1097154680
1179,10,Ticks_ISO_T2_5,13,9999,9999,9999,1097654372
1179,10,Ticks_ISO_T2_5,14,9999,9999,9999,1098155112
1179,10,Ticks_ISO_T2_5,15,9999,9999,9999,1098654808
1179,10,Ticks_ISO_T2_5,16,9999,9999,9999,1099154500
1179,10,Ticks_ISO_T2_5,17,9999,9999,9999,1099654196
1179,10,Ticks_ISO_T2_5,18,9999,9999,9999,1100154988
1179,10,Ticks_ISO_T2_5,19,9999,9999,9999,1100654684
1179,10,Ticks_ISO_T2_5,20,9999,9999,9999,1101154380
1179,10,Ticks_ISO_T2_5,21,9999,9999,9999,1101654124
1179,10,Ticks_ISO_T2_5,22,9999,9999,9999,1102154864
1179,10,Ticks_ISO_T2_5,23,9999,9999,9999,1102654556
1179,10,Ticks_ISO_T2_5,24,9999,9999,9999,1103154252
1179,10,Ticks_ISO_T2_5,25,9999,9999,9999,1103654992
1179,10,Ticks_ISO_T2_5,26,9999,9999,9999,1104154688
1179,10,Ticks_ISO_T2_5,27,9999,9999,9999,1104654456
1179,10,Ticks_ISO_T2_5,28,9999,9999,9999,1105154152
1179,10,Ticks_ISO_T2_5,29,9999,9999,9999,1105654900
1179,10,Ticks_ISO_T2_5,30,9999,9999,9999,1106154588
1179,10,Ticks_ISO_T2_5,31,9999,9999,9999,1106654288
1179,10,Ticks_ISO_T2_5,32,9999,9999,9999,1107155024
1179,10,Ticks_ISO_T2_5,33,9999,9999,9999,1107654720
1179,10,Ticks_ISO_T2_5,34,9999,9999,9999,1108154488
1179,10,Ticks_ISO_T2_5,35,9999,9999,9999,1108654184
1179,10,Ticks_ISO_T2_5,36,9999,9999,9999,1109154928
1179,10,Ticks_ISO_T2_5,37,9999,9999,9999,1109654624
1179,10,Ticks_ISO_T2_5,38,9999,9999,9999,1110154316
1179,10,Ticks_ISO_T2_5,39,9999,9999,9999,1110655056
1179,10,Ticks_ISO_T2_5,40,9999,9999,9999,1111154800
1179,10,Ticks_ISO_T2_5,41,9999,9999,9999,1111654496
1179,10,Ticks_ISO_T2_5,42,9999,9999,9999,1112154192
1179,10,Ticks_ISO_T2_5,43,9999,9999,9999,1112654936
1179,10,Ticks_ISO_T2_5,44,9999,9999,9999,1113154616
1179,10,Ticks_ISO_T2_5,45,9999,9999,9999,1113654324
1179,10,Ticks_ISO_T2_5,46,9999,9999,9999,1114155068
1179,10,Ticks_ISO_T2_5,47,9999,9999,9999,1114654836
1179,10,Ticks_ISO_T2_5,48,9999,9999,9999,1115154528
1179,10,Ticks_ISO_T2_5,49,9999,9999,9999,1115654224
1179,10,Ticks_ISO_T2_5,50,9999,9999,9999,1116154964
1179,10,Ticks_ISO_T2_5,51,9999,9999,9999,1116654660
1179,10,Ticks_ISO_T2_5,52,9999,9999,9999,1117154356
1179,10,Ticks_ISO_T2_5,53,9999,9999,9999,1117654124
1179,10,Ticks_ISO_T2_5,54,9999,9999,9999,1118154868
1179,10,Ticks_ISO_T2_5,55,9999,9999,9999,1118654560
1179,10,Ticks_ISO_T2_5,56,9999,9999,9999,1119154256
1179,10,Ticks_ISO_T2_5,57,9999,9999,9999,1119654996
1179,10,Ticks_ISO_T2_5,58,9999,9999,9999,1120154692
1179,10,Ticks_ISO_T2_5,59,9999,9999,9999,1120654388
1179,10,Ticks_ISO_T2_5,60,9999,9999,9999,1121154156
1179,10,Ticks_ISO_T2_5,61,9999,9999,9999,1121654872
1179,10,Ticks_ISO_T2_5,62,9999,9999,9999,1122154568
1179,10,Ticks_ISO_T2_5,63,9999,9999,9999,1122654260
1179,10,Ticks_ISO_T2_5,64,9999,9999,9999,1123155000
1179,10,Ticks_ISO_T2_5,65,9999,9999,9999,1123654772
1179,10,Ticks_ISO_T2_5,66,9999,9999,9999,1124154468
1179,10,Ticks_ISO_T2_5,67,9999,9999,9999,1124654160
1179,10,Ticks_ISO_T2_5,68,9999,9999,9999,1125154904
1179,10,Ticks_ISO_T2_5,69,9999,9999,9999,1125654600
1179,10,Ticks_ISO_T2_5,70,9999,9999,9999,1126154292
1179,10,Ticks_ISO_T2_5,71,9999,9999,9999,1126655032
1179,10,Ticks_ISO_T2_5,72,9999,9999,9999,1127154804
1179,10,Ticks_ISO_T2_5,73,9999,9999,9999,1127654496
1179,10,Ticks_ISO_T2_5,74,9999,9999,9999,1128154192
1179,10,Ticks_ISO_T2_5,75,9999,9999,9999,1128654936
1179,10,Ticks_ISO_T2_5,76,9999,9999,9999,1129154628
1179,10,Ticks_ISO_T2_5,77,9999,9999,9999,1129654324
1179,10,Ticks_ISO_T2_5,78,9999,9999,9999,1130155064
1179,10,Ticks_ISO_T2_5,79,9999,9999,9999,1130654832
1179,10,Ticks_ISO_T2_5,80,9999,9999,9999,1131154528
1179,10,Ticks_ISO_T2_5,81,9999,9999,9999,1131654224
1179,10,Ticks_ISO_T2_5,82,9999,9999,9999,1132154940
1179,10,Ticks_ISO_T2_5,83,9999,9999,9999,1132654708
1179,10,Ticks_ISO_T2_5,84,9999,9999,9999,1133154404
1179,10,Ticks_ISO_T2_5,85,9999,9999,9999,1133654096
1179,10,Ticks_ISO_T2_5,86,9999,9999,9999,1134154840
1179,10,Ticks_ISO_T2_5,87,9999,9999,9999,1134654532
1179,10,Ticks_ISO_T2_5,88,9999,9999,9999,1135154228
1179,10,Ticks_ISO_T2_5,89,9999,9999,9999,1135654968
1179,10,Ticks_ISO_T2_5,90,9999,9999,9999,1136154736
1179,10,Ticks_ISO_T2_5,91,9999,9999,9999,1136654432
1179,10,Ticks_ISO_T2_5,92,9999,9999,9999,1137154128
1179,10,Ticks_ISO_T2_5,93,9999,9999,9999,1137654868
1179,10,Ticks_ISO_T2_5,94,9999,9999,9999,1138154564
1179,10,Ticks_ISO_T2_5,95,9999,9999,9999,1138654260
1179,10,Ticks_ISO_T2_5,96,9999,9999,9999,1139155000
1179,10,Ticks_ISO_T2_5,97,9999,9999,9999,1139654772
1179,10,Ticks_ISO_T2_5,98,9999,9999,9999,1140154464
1179,10,Ticks_ISO_T2_5,99,9999,9999,9999,1140654160
1179,10,Ticks_ISO_T2_5,100,9999,9999,9999,1141154900
1179,10,Ticks_ISO_T2_5,101,9999,9999,9999,1141654592
1179,10,Ticks_ISO_T2_5,102,9999,9999,9999,1142154288
1179,10,Ticks_ISO_T2_5,103,9999,9999,9999,1142655028
1179,10,Ticks_ISO_T2_5,104,9999,9999,9999,1143154772
1179,10,Ticks_ISO_T2_5,105,9999,9999,9999,1143654468
1179,10,Ticks_ISO_T2_5,106,9999,9999,9999,1144154212
1179,10,Ticks_ISO_T2_5,107,9999,9999,9999,1144654956
1179,10,Ticks_ISO_T2_5,108,9999,9999,9999,1145154652
1179,10,Ticks_ISO_T2_5,109,9999,9999,9999,1145654344
1179,10,Ticks_ISO_T2_5,110,9999,9999,9999,1146155088
1179,10,Ticks_ISO_T2_5,111,9999,9999,9999,1146654780
1179,10,Ticks_ISO_T2_5,112,9999,9999,9999,1147154552
1179,10,Ticks_ISO_T2_5,113,9999,9999,9999,1147654248
1179,10,Ticks_ISO_T2_5,114,9999,9999,9999,1148154988
1179,10,Ticks_ISO_T2_5,115,9999,9999,9999,1148654684
1179,10,Ticks_ISO_T2_5,116,9999,9999,9999,1149154376
1179,10,Ticks_ISO_T2_5,117,9999,9999,9999,1149654072
1179,10,Ticks_ISO_T2_5,118,9999,9999,9999,1150154812
1179,10,Ticks_ISO_T2_5,119,9999,9999,9999,1150654580
1179,10,Ticks_ISO_T2_5,120,9999,9999,9999,1151154276
1179,10,Ticks_ISO_T2_5,121,9999,9999,9999,1151655016
1179,10,Ticks_ISO_T2_5,122,9999,9999,9999,1152154712
1179,10,Ticks_ISO_T2_5,123,9999,9999,9999,1152654404
1179,10,Ticks_ISO_T2_5,124,9999,9999,9999,1153154100
1179,10,Ticks_ISO_T2_5,125,9999,9999,9999,1153654892
1179,10,Ticks_ISO_T2_5,126,9999,9999,9999,1154154588
1179,10,Ticks_ISO_T2_5,127,9999,9999,9999,1154654280
1179,10,Ticks_ISO_T2_5,128,9999,9999,9999,1155155008
1179,10,Ticks_ISO_T2_5,129,9999,9999,9999,1155654720
11710,9,Ticks_ISO_T2_8,0,5,42,127,1165314472
11710,9,Ticks_ISO_T2_8,1,5,42,127,1166115196
11710,9,Ticks_ISO_T2_8,2,5,42,127,1166915028
11710,9,Ticks_ISO_T2_8,3,5,42,127,1167715004
11710,9,Ticks_ISO_T2_8,4,1,48,42,1167730916
11710,9,Ticks_ISO_T2_8,5,1,48,35,1168428384
11710,9,Ticks_ISO_T2_8,6,5,42,127,1168514384
11710,9,Ticks_ISO_T2_8,7,1,48,34,1169224600
11710,9,Ticks_ISO_T2_8,8,5,42,127,1169315236
11710,9,Ticks_ISO_T2_8,9,1,48,35,1170095492
11710,9,Ticks_ISO_T2_8,10,5,42,127,1170115044
11710,9,Ticks_ISO_T2_8,11,5,42,127,1170914636
11710,9,Ticks_ISO_T2_8,12,1,48,24,1170947380
11710,9,Ticks_ISO_T2_8,13,5,42,127,1171714448
11710,9,Ticks_ISO_T2_8,14,1,48,32,1171731480
11710,9,Ticks_ISO_T2_8,15,5,42,127,1172515152
11710,9,Ticks_ISO_T2_8,16,1,48,35,1172522312
11710,9,Ticks_ISO_T2_8,17,1,48,32,1173313684
11710,9,Ticks_ISO_T2_8,18,5,42,127,1173315180
11710,9,Ticks_ISO_T2_8,19,1,48,30,1174090568
11710,9,Ticks_ISO_T2_8,20,5,42,127,1174114764
11710,9,Ticks_ISO_T2_8,21,1,48,33,1174868612
11710,9,Ticks_ISO_T2_8,22,5,42,127,1174914372
11710,9,Ticks_ISO_T2_8,23,1,48,32,1175642988
11710,9,Ticks_ISO_T2_8,24,5,42,127,1175715080
11710,9,Ticks_ISO_T2_8,25,1,48,24,1176431352
11710,9,Ticks_ISO_T2_8,26,5,42,127,1176514812
11710,9,Ticks_ISO_T2_8,27,1,48,32,1177253176
11710,9,Ticks_ISO_T2_8,28,5,42,127,1177314768
11710,9,Ticks_ISO_T2_8,29,5,42,127,1178114284
11710,9,Ticks_ISO_T2_8,30,1,48,30,1178143652
11710,9,Ticks_ISO_T2_8,31,1,48,31,1178859372
11710,9,Ticks_ISO_T2_8,32,5,42,127,1178915132
11710,9,Ticks_ISO_T2_8,33,1,48,32,1179647512
11710,9,Ticks_ISO_T2_8,34,5,42,127,1179714864
11710,9,Ticks_ISO_T2_8,35,1,48,29,1180501624
11710,9,Ticks_ISO_T2_8,36,5,42,127,1180514824
11710,9,Ticks_ISO_T2_8,37,5,42,127,1181314292
11710,9,Ticks_ISO_T2_8,38,1,48,28,1181325112
11710,9,Ticks_ISO_T2_8,39,5,42,127,1182115220
11710,9,Ticks_ISO_T2_8,40,1,48,29,1182132624
11710,9,Ticks_ISO_T2_8,41,5,42,127,1182914952
11710,9,Ticks_ISO_T2_8,42,1,48,33,1182937744
11710,9,Ticks_ISO_T2_8,43,5,42,127,1183714836
11710,9,Ticks_ISO_T2_8,44,1,48,29,1183798368
11710,9,Ticks_ISO_T2_8,45,5,42,127,1184514420
11710,9,Ticks_ISO_T2_8,46,1,48,28,1184634520
11710,9,Ticks_ISO_T2_8,47,5,42,127,1185315200
11710,9,Ticks_ISO_T2_8,48,1,48,31,1185328040
11710,9,Ticks_ISO_T2_8,49,1,48,32,1186107416
11710,9,Ticks_ISO_T2_8,50,5,42,127,1186114848
11710,9,Ticks_ISO_T2_8,51,1,48,34,1186875508
11710,9,Ticks_ISO_T2_8,52,5,42,127,1186914732
11710,9,Ticks_ISO_T2_8,53,1,48,35,1187708548
11710,9,Ticks_ISO_T2_8,54,5,42,127,1187714488
11710,9,Ticks_ISO_T2_8,55,1,48,35,1188513456
11710,9,Ticks_ISO_T2_8,56,5,42,127,1188515120
11710,9,Ticks_ISO_T2_8,57,1,48,32,1189313804
11710,9,Ticks_ISO_T2_8,58,5,42,127,1189315228
11710,9,Ticks_ISO_T2_8,59,1,48,33,1190110140
11710,9,Ticks_ISO_T2_8,60,5,42,127,1190114812
11710,9,Ticks_ISO_T2_8,61,1,48,28,1190875472
11710,9,Ticks_ISO_T2_8,62,5,42,127,1190914548
11710,9,Ticks_ISO_T2_8,63,1,48,32,1191645284
11710,9,Ticks_ISO_T2_8,64,5,42,127,1191715104
11710,9,Ticks_ISO_T2_8,65,1,48,27,1192419364
11710,9,Ticks_ISO_T2_8,66,5,42,127,1192514912
11710,9,Ticks_ISO_T2_8,67,1,48,27,1193240412
11710,9,Ticks_ISO_T2_8,68,5,42,127,1193314868
11710,9,Ticks_ISO_T2_8,69,1,48,24,1194072904
11710,9,Ticks_ISO_T2_8,70,5,42,127,1194114772
11710,9,Ticks_ISO_T2_8,71,1,48,25,1194862464
11710,9,Ticks_ISO_T2_8,72,5,42,127,1194915108
11710,9,Ticks_ISO_T2_8,73,1,48,20,1195678836
11710,9,Ticks_ISO_T2_8,74,5,42,127,1195714844
11710,9,Ticks_ISO_T2_8,75,1,48,29,1196454184
11710,9,Ticks_ISO_T2_8,76,5,42,127,1196514800
11710,9,Ticks_ISO_T2_8,77,1,48,33,1197211428
11710,9,Ticks_ISO_T2_8,78,5,42,127,1197314596
11710,9,Ticks_ISO_T2_8,79,1,48,26,1198026420
11710,9,Ticks_ISO_T2_8,80,5,42,127,1198115316
11710,9,Ticks_ISO_T2_8,81,1,48,27,1198912940
11710,9,Ticks_ISO_T2_8,82,5,42,127,1198914824
11710,9,Ticks_ISO_T2_8,83,1,48,25,1199664188
11710,9,Ticks_ISO_T2_8,84,5,42,127,1199714632
11710,9,Ticks_ISO_T2_8,85,1,48,28,1200431756
11710,9,Ticks_ISO_T2_8,86,5,42,127,1200514616
11710,9,Ticks_ISO_T2_8,87,1,48,28,1201216304
11710,9,Ticks_ISO_T2_8,88,5,42,127,1201315604
11710,9,Ticks_ISO_T2_8,89,1,48,23,1202060348
11710,9,Ticks_ISO_T2_8,90,5,42,127,1202114980
11710,9,Ticks_ISO_T2_8,91,1,48,26,1202863444
11710,9,Ticks_ISO_T2_8,92,5,42,127,1202914640
11710,9,Ticks_ISO_T2_8,93,1,48,21,1203707680
11710,9,Ticks_ISO_T2_8,94,5,42,127,1203714448
11710,9,Ticks_ISO_T2_8,95,1,48,23,1204464552
11710,9,Ticks_ISO_T2_8,96,5,42,127,1204515152
11710,9,Ticks_ISO_T2_8,97,5,42,127,1205314816
11710,9,Ticks_ISO_T2_8,98,1,48,27,1205319356
11710,9,Ticks_ISO_T2_8,99,1,48,26,1206108000
11710,9,Ticks_ISO_T2_8,100,5,42,127,1206114616
11710,9,Ticks_ISO_T2_8,101,5,42,127,1206914532
11710,9,Ticks_ISO_T2_8,102,1,48,23,1206948020
11710,9,Ticks_ISO_T2_8,103,1,48,32,1207678548
11710,9,Ticks_ISO_T2_8,104,5,42,127,1207715156
11710,9,Ticks_ISO_T2_8,105,1,48,27,1208482244
11710,9,Ticks_ISO_T2_8,106,5,42,127,1208515036
11710,9,Ticks_ISO_T2_8,107,5,42,127,1209314704
11710,9,Ticks_ISO_T2_8,108,1,48,22,1209324032
11710,9,Ticks_ISO_T2_8,109,5,42,127,1210114436
11710,9,Ticks_ISO_T2_8,110,1,48,30,1210129372
11710,9,Ticks_ISO_T2_8,111,1,48,30,1210897080
11710,9,Ticks_ISO_T2_8,112,5,42,127,1210915360
11710,9,Ticks_ISO_T2_8,113,1,48,27,1211691876
11710,9,Ticks_ISO_T2_8,114,5,42,127,1211714872
11710,9,Ticks_ISO_T2_8,115,1,48,27,1212490412
11710,9,Ticks_ISO_T2_8,116,5,42,127,1212514532
11710,9,Ticks_ISO_T2_8,117,1,48,31,1213286932
11710,9,Ticks_ISO_T2_8,118,5,42,127,1213314288
11710,9,Ticks_ISO_T2_8,119,1,48,29,1214079952
11710,9,Ticks_ISO_T2_8,120,5,42,127,1214115364
11710,9,Ticks_ISO_T2_8,121,1,48,25,1214894648
11710,9,Ticks_ISO_T2_8,122,5,42,127,1214915324
11710,9,Ticks_ISO_T2_8,123,5,42,127,1215714764
11710,9,Ticks_ISO_T2_8,124,1,48,32,1215717212
11710,9,Ticks_ISO_T2_8,125,1,48,28,1216495684
11710,9,Ticks_ISO_T2_8,126,5,42,127,1216514268
11710,9,Ticks_ISO_T2_8,127,1,48,23,1217300880
11710,9,Ticks_ISO_T2_8,128,5,42,127,1217315196
11710,9,Ticks_ISO_T2_8,129,5,42,127,1218115084
11710,9,Ticks_ISO_T2_8,130,1,48,28,1218165928
11710,9,Ticks_ISO_T2_8,131,1,48,27,1218901020
11710,9,Ticks_ISO_T2_8,132,5,42,127,1218914588
11710,9,Ticks_ISO_T2_8,133,5,42,127,1219714428
11710,9,Ticks_ISO_T2_8,134,1,48,28,1219727572
11710,9,Ticks_ISO_T2_8,135,1,48,28,1220498040
11710,9,Ticks_ISO_T2_8,136,5,42,127,1220515052
11710,9,Ticks_ISO_T2_8,137,1,48,21,1221309892
11710,9,Ticks_ISO_T2_8,138,5,42,127,1221315084
11710,9,Ticks_ISO_T2_8,139,1,48,29,1222071628
11710,9,Ticks_ISO_T2_8,140,5,42,127,1222114668
11710,9,Ticks_ISO_T2_8,141,1,48,27,1222877348
11710,9,Ticks_ISO_T2_8,142,5,42,127,1222914628
11710,9,Ticks_ISO_T2_8,143,5,42,127,1223715116
11710,9,Ticks_ISO_T2_8,144,1,48,24,1223726164
11710,9,Ticks_ISO_T2_8,145,1,48,25,1224510320
11710,9,Ticks_ISO_T2_8,146,5,42,127,1224515064
11710,9,Ticks_ISO_T2_8,147,1,48,29,1225281932
11710,9,Ticks_ISO_T2_8,148,5,42,127,1225314872
11710,9,Ticks_ISO_T2_8,149,5,42,127,1226114264
11710,9,Ticks_ISO_T2_8,150,1,48,29,1226115232
11710,9,Ticks_ISO_T2_8,151,1,48,26,1226909024
11710,9,Ticks_ISO_T2_8,152,5,42,127,1226915112
11710,9,Ticks_ISO_T2_8,153,5,42,127,1227714780
11710,9,Ticks_ISO_T2_8,154,1,48,27,1227733604
11710,9,Ticks_ISO_T2_8,155,1,48,27,1228514884
11710,9,Ticks_ISO_T2_8,156,5,42,127,1228516220
11710,9,Ticks_ISO_T2_8,157,1,48,27,1229302988
11710,9,Ticks_ISO_T2_8,158,5,42,127,1229314388
11710,9,Ticks_ISO_T2_8,159,1,48,25,1230071152
11710,9,Ticks_ISO_T2_8,160,5,42,127,1230115240
11710,9,Ticks_ISO_T2_8,161,1,48,29,1230826760
11710,9,Ticks_ISO_T2_8,162,5,42,127,1230914976
11710,9,Ticks_ISO_T2_8,163,1,48,23,1231653192
11710,9,Ticks_ISO_T2_8,164,5,42,127,1231714860
11710,9,Ticks_ISO_T2_8,165,1,48,24,1232477008
11710,9,Ticks_ISO_T2_8,166,5,42,127,1232514840
11710,9,Ticks_ISO_T2_8,167,1,48,24,1233261336
11710,9,Ticks_ISO_T2_8,168,5,42,127,1233315324
11710,9,Ticks_ISO_T2_8,169,1,48,27,1234093704
11710,9,Ticks_ISO_T2_8,170,5,42,127,1234114908
11710,9,Ticks_ISO_T2_8,171,1,48,30,1234837716
11710,9,Ticks_ISO_T2_8,172,5,42,127,1234914716
11710,9,Ticks_ISO_T2_8,173,1,48,21,1235683824
11710,9,Ticks_ISO_T2_8,174,5,42,127,1235714672
11710,9,Ticks_ISO_T2_8,175,1,48,27,1236478472
11710,9,Ticks_ISO_T2_8,176,5,42,127,1236515376
11710,9,Ticks_ISO_T2_8,177,1,48,27,1237257340
11710,9,Ticks_ISO_T2_8,178,5,42,127,1237314888
11710,9,Ticks_ISO_T2_8,179,1,48,26,1238069856
11710,9,Ticks_ISO_T2_8,180,5,42,127,1238114620
11710,9,Ticks_ISO_T2_8,181,1,48,21,1238873480
11710,9,Ticks_ISO_T2_8,182,5,42,127,1238914528
11710,9,Ticks_ISO_T2_8,183,1,48,27,1239665360
11710,9,Ticks_ISO_T2_8,184,5,42,127,1239715084
11710,9,Ticks_ISO_T2_8,185,1,48,26,1240461828
11710,9,Ticks_ISO_T2_8,186,5,42,127,1240514892
11710,9,Ticks_ISO_T2_8,187,1,48,22,1241284972
11710,9,Ticks_ISO_T2_8,188,5,42,127,1241314552
11710,9,Ticks_ISO_T2_8,189,1,48,27,1242075052
11710,9,Ticks_ISO_T2_8,190,5,42,127,1242114508
11710,9,Ticks_ISO_T2_8,191,1,48,23,1242881224
11710,9,Ticks_ISO_T2_8,192,5,42,127,1242915064
11710,9,Ticks_ISO_T2_8,193,1,48,26,1243656648
11710,9,Ticks_ISO_T2_8,194,5,42,127,1243714872
11710,9,Ticks_ISO_T2_8,195,1,48,32,1244453388
11710,9,Ticks_ISO_T2_8,196,5,42,127,1244514604
11710,9,Ticks_ISO_T2_8,197,1,48,23,1245240252
11710,9,Ticks_ISO_T2_8,198,5,42,127,1245314512
11710,9,Ticks_ISO_T2_8,199,1,48,22,1246086612
11710,9,Ticks_ISO_T2_8,200,5,42,127,1246115140
11710,9,Ticks_ISO_T2_8,201,5,42,127,1246914956
11710,9,Ticks_ISO_T2_8,202,1,48,23,1246937676
11710,9,Ticks_ISO_T2_8,203,1,48,26,1247712260
11710,9,Ticks_ISO_T2_8,204,5,42,127,1247714608
11710,9,Ticks_ISO_T2_8,205,1,48,21,1248488056
11710,9,Ticks_ISO_T2_8,206,5,42,127,1248514416
11710,9,Ticks_ISO_T2_8,207,1,48,29,1249279112
11710,9,Ticks_ISO_T2_8,208,5,42,127,1249315048
11710,9,Ticks_ISO_T2_8,209,5,42,127,1250114788
11710,9,Ticks_ISO_T2_8,210,1,48,25,1250116200
11710,9,Ticks_ISO_T2_8,211,5,42,127,1250914524
11710,9,Ticks_ISO_T2_8,212,1,48,27,1250937264
11710,9,Ticks_ISO_T2_8,213,5,42,127,1251714356
11710,9,Ticks_ISO_T2_8,214,1,48,23,1251731464
11710,9,Ticks_ISO_T2_8,215,1,48,24,1252488472
11710,9,Ticks_ISO_T2_8,216,5,42,127,1252515352
11710,9,Ticks_ISO_T2_8,217,1,48,26,1253312060
11710,9,Ticks_ISO_T2_8,218,5,42,127,1253314788
11710,9,Ticks_ISO_T2_8,219,5,42,127,1254114600
11710,9,Ticks_ISO_T2_8,220,1,48,25,1254127368
11710,9,Ticks_ISO_T2_8,221,1,48,24,1254886624
11710,9,Ticks_ISO_T2_8,222,5,42,127,1254914404
11710,9,Ticks_ISO_T2_8,223,1,48,24,1255656208
11710,9,Ticks_ISO_T2_8,224,5,42,127,1255715256
11710,9,Ticks_ISO_T2_8,225,1,48,32,1256453328
11710,9,Ticks_ISO_T2_8,226,5,42,127,1256514916
11710,9,Ticks_ISO_T2_8,227,1,48,23,1257260164
11710,9,Ticks_ISO_T2_8,228,5,42,127,1257314576
11710,9,Ticks_ISO_T2_8,229,1,48,13,1258110560
11710,9,Ticks_ISO_T2_8,230,5,42,127,1258114408
11710,9,Ticks_ISO_T2_8,231,1,48,22,1258889576
11710,9,Ticks_ISO_T2_8,232,5,42,127,1258915264
11710,9,Ticks_ISO_T2_8,233,1,48,26,1259676368
11710,9,Ticks_ISO_T2_8,234,5,42,127,1259714996
11710,9,Ticks_ISO_T2_8,235,1,48,22,1260462416
11710,9,Ticks_ISO_T2_8,236,5,42,127,1260514804
11710,9,Ticks_ISO_T2_8,237,1,48,24,1261303960
11710,9,Ticks_ISO_T2_8,0,9999,9999,9999,1165312108
11710,9,Ticks_ISO_T2_8,1,9999,9999,9999,1166112836
11710,9,Ticks_ISO_T2_8,2,9999,9999,9999,1166912588
11710,9,Ticks_ISO_T2_8,3,9999,9999,9999,1167712344
11710,9,Ticks_ISO_T2_8,4,9999,9999,9999,1168512096
11710,9,Ticks_ISO_T2_8,5,9999,9999,9999,1169312876
11710,9,Ticks_ISO_T2_8,6,9999,9999,9999,1170112608
11710,9,Ticks_ISO_T2_8,7,9999,9999,9999,1170912348
11710,9,Ticks_ISO_T2_8,8,9999,9999,9999,1171712084
11710,9,Ticks_ISO_T2_8,9,9999,9999,9999,1172512864
11710,9,Ticks_ISO_T2_8,10,9999,9999,9999,1173312600
11710,9,Ticks_ISO_T2_8,11,9999,9999,9999,1174112328
11710,9,Ticks_ISO_T2_8,12,9999,9999,9999,1174912084
11710,9,Ticks_ISO_T2_8,13,9999,9999,9999,1175712864
11710,9,Ticks_ISO_T2_8,14,9999,9999,9999,1176512596
11710,9,Ticks_ISO_T2_8,15,9999,9999,9999,1177312332
11710,9,Ticks_ISO_T2_8,16,9999,9999,9999,1178112068
11710,9,Ticks_ISO_T2_8,17,9999,9999,9999,1178912844
11710,9,Ticks_ISO_T2_8,18,9999,9999,9999,1179712576
11710,9,Ticks_ISO_T2_8,19,9999,9999,9999,1180512312
11710,9,Ticks_ISO_T2_8,20,9999,9999,9999,1181312076
11710,9,Ticks_ISO_T2_8,21,9999,9999,9999,1182112856
11710,9,Ticks_ISO_T2_8,22,9999,9999,9999,1182912592
11710,9,Ticks_ISO_T2_8,23,9999,9999,9999,1183712324
11710,9,Ticks_ISO_T2_8,24,9999,9999,9999,1184512056
11710,9,Ticks_ISO_T2_8,25,9999,9999,9999,1185312836
11710,9,Ticks_ISO_T2_8,26,9999,9999,9999,1186112560
11710,9,Ticks_ISO_T2_8,27,9999,9999,9999,1186912368
11710,9,Ticks_ISO_T2_8,28,9999,9999,9999,1187712052
11710,9,Ticks_ISO_T2_8,29,9999,9999,9999,1188512856
11710,9,Ticks_ISO_T2_8,30,9999,9999,9999,1189312572
11710,9,Ticks_ISO_T2_8,31,9999,9999,9999,1190112304
11710,9,Ticks_ISO_T2_8,32,9999,9999,9999,1190912112
11710,9,Ticks_ISO_T2_8,33,9999,9999,9999,1191712816
11710,9,Ticks_ISO_T2_8,34,9999,9999,9999,1192512624
11710,9,Ticks_ISO_T2_8,35,9999,9999,9999,1193312356
11710,9,Ticks_ISO_T2_8,36,9999,9999,9999,1194112116
11710,9,Ticks_ISO_T2_8,37,9999,9999,9999,1194912820
11710,9,Ticks_ISO_T2_8,38,9999,9999,9999,1195712632
11710,9,Ticks_ISO_T2_8,39,9999,9999,9999,1196512364
11710,9,Ticks_ISO_T2_8,40,9999,9999,9999,1197312084
11710,9,Ticks_ISO_T2_8,41,9999,9999,9999,1198112876
11710,9,Ticks_ISO_T2_8,42,9999,9999,9999,1198912568
11710,9,Ticks_ISO_T2_8,43,9999,9999,9999,1199712344
11710,9,Ticks_ISO_T2_8,44,9999,9999,9999,1200512104
11710,9,Ticks_ISO_T2_8,45,9999,9999,9999,1201312884
11710,9,Ticks_ISO_T2_8,46,9999,9999,9999,1202112616
11710,9,Ticks_ISO_T2_8,47,9999,9999,9999,1202912352
11710,9,Ticks_ISO_T2_8,48,9999,9999,9999,1203712084
11710,9,Ticks_ISO_T2_8,49,9999,9999,9999,1204512864
11710,9,Ticks_ISO_T2_8,50,9999,9999,9999,1205312604
11710,9,Ticks_ISO_T2_8,51,9999,9999,9999,1206112328
11710,9,Ticks_ISO_T2_8,52,9999,9999,9999,1206912096
11710,9,Ticks_ISO_T2_8,53,9999,9999,9999,1207712868
11710,9,Ticks_ISO_T2_8,54,9999,9999,9999,1208512600
11710,9,Ticks_ISO_T2_8,55,9999,9999,9999,1209312340
11710,9,Ticks_ISO_T2_8,56,9999,9999,9999,1210112076
11710,9,Ticks_ISO_T2_8,57,9999,9999,9999,1210912848
11710,9,Ticks_ISO_T2_8,58,9999,9999,9999,1211712584
11710,9,Ticks_ISO_T2_8,59,9999,9999,9999,1212512316
11710,9,Ticks_ISO_T2_8,60,9999,9999,9999,1213312076
11710,9,Ticks_ISO_T2_8,61,9999,9999,9999,1214112856
11710,9,Ticks_ISO_T2_8,62,9999,9999,9999,1214912588
11710,9,Ticks_ISO_T2_8,63,9999,9999,9999,1215712328
11710,9,Ticks_ISO_T2_8,64,9999,9999,9999,1216512056
11710,9,Ticks_ISO_T2_8,65,9999,9999,9999,1217312836
11710,9,Ticks_ISO_T2_8,66,9999,9999,9999,1218112572
11710,9,Ticks_ISO_T2_8,67,9999,9999,9999,1218912376
11710,9,Ticks_ISO_T2_8,68,9999,9999,9999,1219712068
11710,9,Ticks_ISO_T2_8,69,9999,9999,9999,1220512840
11710,9,Ticks_ISO_T2_8,70,9999,9999,9999,1221312572
11710,9,Ticks_ISO_T2_8,71,9999,9999,9999,1222112304
11710,9,Ticks_ISO_T2_8,72,9999,9999,9999,1222912116
11710,9,Ticks_ISO_T2_8,73,9999,9999,9999,1223712828
11710,9,Ticks_ISO_T2_8,74,9999,9999,9999,1224512628
11710,9,Ticks_ISO_T2_8,75,9999,9999,9999,1225312364
11710,9,Ticks_ISO_T2_8,76,9999,9999,9999,1226112052
11710,9,Ticks_ISO_T2_8,77,9999,9999,9999,1226912824
11710,9,Ticks_ISO_T2_8,78,9999,9999,9999,1227712564
11710,9,Ticks_ISO_T2_8,79,9999,9999,9999,1228512372
11710,9,Ticks_ISO_T2_8,80,9999,9999,9999,1229312100
11710,9,Ticks_ISO_T2_8,81,9999,9999,9999,1230112880
11710,9,Ticks_ISO_T2_8,82,9999,9999,9999,1230912612
11710,9,Ticks_ISO_T2_8,83,9999,9999,9999,1231712348
11710,9,Ticks_ISO_T2_8,84,9999,9999,9999,1232512104
11710,9,Ticks_ISO_T2_8,85,9999,9999,9999,1233312884
11710,9,Ticks_ISO_T2_8,86,9999,9999,9999,1234112620
11710,9,Ticks_ISO_T2_8,87,9999,9999,9999,1234912352
11710,9,Ticks_ISO_T2_8,88,9999,9999,9999,1235712088
11710,9,Ticks_ISO_T2_8,89,9999,9999,9999,1236512868
11710,9,Ticks_ISO_T2_8,90,9999,9999,9999,1237312600
11710,9,Ticks_ISO_T2_8,91,9999,9999,9999,1238112332
11710,9,Ticks_ISO_T2_8,92,9999,9999,9999,1238912092
11710,9,Ticks_ISO_T2_8,93,9999,9999,9999,1239712872
11710,9,Ticks_ISO_T2_8,94,9999,9999,9999,1240512604
11710,9,Ticks_ISO_T2_8,95,9999,9999,9999,1241312340
11710,9,Ticks_ISO_T2_8,96,9999,9999,9999,1242112072
11710,9,Ticks_ISO_T2_8,97,9999,9999,9999,1242912852
11710,9,Ticks_ISO_T2_8,98,9999,9999,9999,1243712584
11710,9,Ticks_ISO_T2_8,99,9999,9999,9999,1244512316
11710,9,Ticks_ISO_T2_8,100,9999,9999,9999,1245312076
11710,9,Ticks_ISO_T2_8,101,9999,9999,9999,1246112852
11710,9,Ticks_ISO_T2_8,102,9999,9999,9999,1246912596
11710,9,Ticks_ISO_T2_8,103,9999,9999,9999,1247712324
11710,9,Ticks_ISO_T2_8,104,9999,9999,9999,1248512056
11710,9,Ticks_ISO_T2_8,105,9999,9999,9999,1249312836
11710,9,Ticks_ISO_T2_8,106,9999,9999,9999,1250112576
11710,9,Ticks_ISO_T2_8,107,9999,9999,9999,1250912308
11710,9,Ticks_ISO_T2_8,108,9999,9999,9999,1251712068
11710,9,Ticks_ISO_T2_8,109,9999,9999,9999,1252512840
11710,9,Ticks_ISO_T2_8,110,9999,9999,9999,1253312576
11710,9,Ticks_ISO_T2_8,111,9999,9999,9999,1254112312
11710,9,Ticks_ISO_T2_8,112,9999,9999,9999,1254912116
11710,9,Ticks_ISO_T2_8,113,9999,9999,9999,1255712820
11710,9,Ticks_ISO_T2_8,114,9999,9999,9999,1256512628
11710,9,Ticks_ISO_T2_8,115,9999,9999,9999,1257312360
11710,9,Ticks_ISO_T2_8,116,9999,9999,9999,1258112120
11710,9,Ticks_ISO_T2_8,117,9999,9999,9999,1258912824
11710,9,Ticks_ISO_T2_8,118,9999,9999,9999,1259712560
11710,9,Ticks_ISO_T2_8,119,9999,9999,9999,1260512368
11711,25,Jits_Pract_5,0,5,56,103,1306149500
11711,25,Jits_Pract_5,1,5,63,98,1306152376
11711,25,Jits_Pract_5,2,5,80,127,1306155500
11711,25,Jits_Pract_5,0,5,56,103,1306649152
11711,25,Jits_Pract_5,1,5,63,98,1306652252
11711,25,Jits_Pract_5,2,5,80,127,1306655224
11711,25,Jits_Pract_5,0,5,56,103,1307148672
11711,25,Jits_Pract_5,1,5,80,127,1307158868
11711,25,Jits_Pract_5,2,5,63,98,1307179324
11711,25,Jits_Pract_5,0,5,63,98,1307599412
11711,25,Jits_Pract_5,1,5,80,127,1307629016
11711,25,Jits_Pract_5,2,5,56,103,1307639432
11711,25,Jits_Pract_5,0,5,80,127,1308159304
11711,25,Jits_Pract_5,1,5,56,103,1308168532
11711,25,Jits_Pract_5,2,5,63,98,1308199252
11711,25,Jits_Pract_5,0,5,63,98,1308648792
11711,25,Jits_Pract_5,1,5,56,103,1308678544
11711,25,Jits_Pract_5,2,5,80,127,1308688664
11711,25,Jits_Pract_5,0,5,56,103,1309099372
11711,25,Jits_Pract_5,1,5,63,98,1309148532
11711,25,Jits_Pract_5,2,5,80,127,1309169140
11711,25,Jits_Pract_5,0,5,80,127,1309599268
11711,25,Jits_Pract_5,1,5,63,98,1309649396
11711,25,Jits_Pract_5,2,5,56,103,1309689184
11711,25,Jits_Pract_5,0,5,56,103,1310099236
11711,25,Jits_Pract_5,1,5,63,98,1310128544
11711,25,Jits_Pract_5,2,5,80,127,1310199196
11711,25,Jits_Pract_5,0,5,56,103,1310598388
11711,25,Jits_Pract_5,1,5,80,127,1310659224
11711,25,Jits_Pract_5,2,5,63,98,1310688604
11711,25,Jits_Pract_5,0,5,56,103,1311108400
11711,25,Jits_Pract_5,1,5,63,98,1311118668
11711,25,Jits_Pract_5,2,5,80,127,1311158608
11711,25,Jits_Pract_5,0,5,63,98,1311599116
11711,25,Jits_Pract_5,1,5,80,127,1311678792
11711,25,Jits_Pract_5,2,5,56,103,1311689208
11711,25,Jits_Pract_5,0,5,63,98,1312148848
11711,25,Jits_Pract_5,1,5,56,103,1312188712
11711,25,Jits_Pract_5,2,5,80,127,1312191852
11711,25,Jits_Pract_5,0,5,56,103,1312608608
11711,25,Jits_Pract_5,1,5,63,98,1312619028
11711,25,Jits_Pract_5,2,5,80,127,1312659068
11711,25,Jits_Pract_5,0,5,56,103,1313099276
11711,25,Jits_Pract_5,1,5,63,98,1313102344
11711,25,Jits_Pract_5,2,5,80,127,1313118612
11711,25,Jits_Pract_5,0,9999,9999,9999,1306396792
11711,25,Jits_Pract_5,1,9999,9999,9999,1306896440
11711,25,Jits_Pract_5,2,9999,9999,9999,1307396188
11711,25,Jits_Pract_5,3,9999,9999,9999,1307896900
11711,25,Jits_Pract_5,4,9999,9999,9999,1308396632
11711,25,Jits_Pract_5,5,9999,9999,9999,1308896308
11711,25,Jits_Pract_5,6,9999,9999,9999,1309397084
11711,25,Jits_Pract_5,7,9999,9999,9999,1309896756
11711,25,Jits_Pract_5,8,9999,9999,9999,1310396504
11711,25,Jits_Pract_5,9,9999,9999,9999,1310896248
11711,25,Jits_Pract_5,10,9999,9999,9999,1311396964
11711,25,Jits_Pract_5,11,9999,9999,9999,1311896632
11711,25,Jits_Pract_5,12,9999,9999,9999,1312396356
11711,25,Jits_Pract_5,13,9999,9999,9999,1312896080
11711,25,Jits_Pract_5,14,9999,9999,9999,1313396852
11712,25,Jits_Pract_5,0,5,56,103,1368771952
11712,25,Jits_Pract_5,1,5,63,98,1368775200
11712,25,Jits_Pract_5,2,5,80,127,1368778248
11712,25,Jits_Pract_5,0,5,56,103,1369271676
11712,25,Jits_Pract_5,1,5,63,98,1369274772
11712,25,Jits_Pract_5,2,5,80,127,1369277896
11712,25,Jits_Pract_5,0,5,56,103,1369772392
11712,25,Jits_Pract_5,1,5,80,127,1369781616
11712,25,Jits_Pract_5,2,5,63,98,1369802072
11712,25,Jits_Pract_5,0,5,63,98,1370222060
11712,25,Jits_Pract_5,1,5,80,127,1370251688
11712,25,Jits_Pract_5,2,5,56,103,1370261808
11712,25,Jits_Pract_5,0,1,48,23,1370739992
11712,25,Jits_Pract_5,1,5,80,127,1370782192
11712,25,Jits_Pract_5,2,5,56,103,1370792388
11712,25,Jits_Pract_5,3,5,63,98,1370822060
11712,25,Jits_Pract_5,0,1,48,24,1371254288
11712,25,Jits_Pract_5,1,5,63,98,1371271476
11712,25,Jits_Pract_5,2,5,56,103,1371302272
11712,25,Jits_Pract_5,3,5,80,127,1371311420
11712,25,Jits_Pract_5,0,5,56,103,1371732192
11712,25,Jits_Pract_5,1,1,48,26,1371745796
11712,25,Jits_Pract_5,2,5,63,98,1371781440
11712,25,Jits_Pract_5,3,5,80,127,1371801972
11712,25,Jits_Pract_5,0,1,48,28,1372217768
11712,25,Jits_Pract_5,1,5,80,127,1372232184
11712,25,Jits_Pract_5,2,5,63,98,1372282112
11712,25,Jits_Pract_5,3,5,56,103,1372322036
11712,25,Jits_Pract_5,0,1,48,27,1372716632
11712,25,Jits_Pract_5,1,5,56,103,1372731948
11712,25,Jits_Pract_5,2,5,63,98,1372761476
11712,25,Jits_Pract_5,3,5,80,127,1372831988
11712,25,Jits_Pract_5,0,1,48,29,1373217296
11712,25,Jits_Pract_5,1,5,56,103,1373231416
11712,25,Jits_Pract_5,2,5,80,127,1373292028
11712,25,Jits_Pract_5,3,5,63,98,1373321568
11712,25,Jits_Pract_5,0,1,48,32,1373739328
11712,25,Jits_Pract_5,1,5,56,103,1373741368
11712,25,Jits_Pract_5,2,5,63,98,1373751864
11712,25,Jits_Pract_5,3,5,80,127,1373791800
11712,25,Jits_Pract_5,0,5,63,98,1374231996
11712,25,Jits_Pract_5,1,1,48,31,1374236312
11712,25,Jits_Pract_5,2,5,80,127,1374311860
11712,25,Jits_Pract_5,3,5,56,103,1374322080
11712,25,Jits_Pract_5,0,1,48,34,1374753908
11712,25,Jits_Pract_5,1,5,63,98,1374781952
11712,25,Jits_Pract_5,2,5,56,103,1374821740
11712,25,Jits_Pract_5,3,5,80,127,1374824884
11712,25,Jits_Pract_5,0,5,56,103,1375241860
11712,25,Jits_Pract_5,1,5,63,98,1375251908
11712,25,Jits_Pract_5,2,1,48,31,1375270320
11712,25,Jits_Pract_5,3,5,80,127,1375291988
11712,25,Jits_Pract_5,0,5,56,103,1375732196
11712,25,Jits_Pract_5,1,5,63,98,1375735112
11712,25,Jits_Pract_5,2,1,48,31,1375742736
11712,25,Jits_Pract_5,3,5,80,127,1375751676
11712,25,Jits_Pract_5,0,9999,9999,9999,1369019464
11712,25,Jits_Pract_5,1,9999,9999,9999,1369519188
11712,25,Jits_Pract_5,2,9999,9999,9999,1370019904
11712,25,Jits_Pract_5,3,9999,9999,9999,1370519644
11712,25,Jits_Pract_5,4,9999,9999,9999,1371019356
11712,25,Jits_Pract_5,5,9999,9999,9999,1371520096
11712,25,Jits_Pract_5,6,9999,9999,9999,1372030048
11712,25,Jits_Pract_5,7,9999,9999,9999,1372529756
11712,25,Jits_Pract_5,8,9999,9999,9999,1373029492
11712,25,Jits_Pract_5,9,9999,9999,9999,1373529184
11712,25,Jits_Pract_5,10,9999,9999,9999,1374029920
11712,25,Jits_Pract_5,11,9999,9999,9999,1374529612
11712,25,Jits_Pract_5,12,9999,9999,9999,1375029296
11712,25,Jits_Pract_5,13,9999,9999,9999,1375530104
11712,25,Jits_Pract_5,14,9999,9999,9999,1376029796
11713,24,Jits_Pract_8,0,5,56,103,1389431128
11713,24,Jits_Pract_8,1,5,63,98,1389434528
11713,24,Jits_Pract_8,2,5,80,127,1389437500
11713,24,Jits_Pract_8,0,5,56,103,1390230992
11713,24,Jits_Pract_8,1,5,63,98,1390234016
11713,24,Jits_Pract_8,2,5,80,127,1390237212
11713,24,Jits_Pract_8,0,5,80,127,1390971456
11713,24,Jits_Pract_8,1,1,48,39,1391057804
11713,24,Jits_Pract_8,2,5,63,98,1391061584
11713,24,Jits_Pract_8,3,5,56,103,1391070660
11713,24,Jits_Pract_8,0,1,48,34,1391743628
11713,24,Jits_Pract_8,1,5,56,103,1391790556
11713,24,Jits_Pract_8,2,5,63,98,1391800904
11713,24,Jits_Pract_8,3,5,80,127,1391890792
11713,24,Jits_Pract_8,0,1,48,38,1392511544
11713,24,Jits_Pract_8,1,5,63,98,1392560568
11713,24,Jits_Pract_8,2,5,80,127,1392591292
11713,24,Jits_Pract_8,3,5,56,103,1392621024
11713,24,Jits_Pract_8,0,1,48,34,1393333844
11713,24,Jits_Pract_8,1,5,56,103,1393361368
11713,24,Jits_Pract_8,2,5,80,127,1393460480
11713,24,Jits_Pract_8,3,5,63,98,1393510756
11713,24,Jits_Pract_8,0,5,56,103,1394161132
11713,24,Jits_Pract_8,1,5,80,127,1394211112
11713,24,Jits_Pract_8,2,1,48,35,1394243448
11713,24,Jits_Pract_8,3,5,63,98,1394250968
11713,24,Jits_Pract_8,0,5,80,127,1394990424
11713,24,Jits_Pract_8,1,5,63,98,1395021368
11713,24,Jits_Pract_8,2,5,56,103,1395090700
11713,24,Jits_Pract_8,3,1,48,36,1395145280
11713,24,Jits_Pract_8,0,5,63,98,1395821060
11713,24,Jits_Pract_8,1,5,56,103,1395850684
11713,24,Jits_Pract_8,2,5,80,127,1395911000
11713,24,Jits_Pract_8,3,1,48,29,1396016740
11713,24,Jits_Pract_8,0,5,56,103,1396561400
11713,24,Jits_Pract_8,1,5,80,127,1396564320
11713,24,Jits_Pract_8,2,5,63,98,1396681148
11713,24,Jits_Pract_8,3,1,48,32,1396792520
11713,24,Jits_Pract_8,0,5,56,103,1397440976
11713,24,Jits_Pract_8,1,5,80,127,1397480916
11713,24,Jits_Pract_8,2,5,63,98,1397491336
11713,24,Jits_Pract_8,3,1,48,28,1397587044
11713,24,Jits_Pract_8,0,5,56,103,1398200744
11713,24,Jits_Pract_8,1,5,80,127,1398221204
11713,24,Jits_Pract_8,2,5,63,98,1398301144
11713,24,Jits_Pract_8,3,1,48,32,1398312360
11713,24,Jits_Pract_8,0,5,80,127,1398991300
11713,24,Jits_Pract_8,1,1,48,35,1399055852
11713,24,Jits_Pract_8,2,5,56,103,1399090496
11713,24,Jits_Pract_8,3,5,63,98,1399100764
11713,24,Jits_Pract_8,0,5,63,98,1399761380
11713,24,Jits_Pract_8,1,5,80,127,1399820652
11713,24,Jits_Pract_8,2,5,56,103,1399830848
11713,24,Jits_Pract_8,3,1,48,37,1399903708
11713,24,Jits_Pract_8,0,5,56,103,1400561132
11713,24,Jits_Pract_8,1,1,48,35,1400622096
11713,24,Jits_Pract_8,2,5,63,98,1400630656
11713,24,Jits_Pract_8,3,5,80,127,1400634020
11713,24,Jits_Pract_8,0,9999,9999,9999,1389828164
11713,24,Jits_Pract_8,1,9999,9999,9999,1390628924
11713,24,Jits_Pract_8,2,9999,9999,9999,1391428712
11713,24,Jits_Pract_8,3,9999,9999,9999,1392228408
11713,24,Jits_Pract_8,4,9999,9999,9999,1393028184
11713,24,Jits_Pract_8,5,9999,9999,9999,1393828920
11713,24,Jits_Pract_8,6,9999,9999,9999,1394628672
11713,24,Jits_Pract_8,7,9999,9999,9999,1395428444
11713,24,Jits_Pract_8,8,9999,9999,9999,1396228216
11713,24,Jits_Pract_8,9,9999,9999,9999,1397028928
11713,24,Jits_Pract_8,10,9999,9999,9999,1397828704
11713,24,Jits_Pract_8,11,9999,9999,9999,1398628400
11713,24,Jits_Pract_8,12,9999,9999,9999,1399428180
11713,24,Jits_Pract_8,13,9999,9999,9999,1400228916
11713,24,Jits_Pract_8,14,9999,9999,9999,1401028660
11714,17,Jits_Phase_5,0,5,56,103,1430534748
11714,17,Jits_Phase_5,1,5,63,98,1430537852
11714,17,Jits_Phase_5,2,5,80,127,1430540968
11714,17,Jits_Phase_5,0,5,56,103,1431035200
11714,17,Jits_Phase_5,1,5,63,98,1431038300
11714,17,Jits_Phase_5,2,5,80,127,1431041500
11714,17,Jits_Phase_5,0,5,56,103,1431534860
11714,17,Jits_Phase_5,1,5,80,127,1431545128
11714,17,Jits_Phase_5,2,5,63,98,1431564764
11714,17,Jits_Phase_5,0,5,63,98,1431984692
11714,17,Jits_Phase_5,1,5,80,127,1432015116
11714,17,Jits_Phase_5,2,5,56,103,1432024564
11714,17,Jits_Phase_5,0,1,48,37,1432441280
11714,17,Jits_Phase_5,1,5,80,127,1432544764
11714,17,Jits_Phase_5,2,5,56,103,1432554960
11714,17,Jits_Phase_5,3,5,63,98,1432584484
11714,17,Jits_Phase_5,0,1,48,35,1432965764
11714,17,Jits_Phase_5,1,5,63,98,1433035092
11714,17,Jits_Phase_5,2,5,56,103,1433064752
11714,17,Jits_Phase_5,3,5,80,127,1433075024
11714,17,Jits_Phase_5,0,5,56,103,1433484732
11714,17,Jits_Phase_5,1,1,48,32,1433490092
11714,17,Jits_Phase_5,2,5,63,98,1433534852
11714,17,Jits_Phase_5,3,5,80,127,1433555456
11714,17,Jits_Phase_5,0,1,48,36,1433984868
11714,17,Jits_Phase_5,1,5,80,127,1433986360
11714,17,Jits_Phase_5,2,5,63,98,1434034764
11714,17,Jits_Phase_5,3,5,56,103,1434074552
11714,17,Jits_Phase_5,0,5,56,103,1434495480
11714,17,Jits_Phase_5,1,1,48,31,1434515836
11714,17,Jits_Phase_5,2,5,63,98,1434525000
11714,17,Jits_Phase_5,3,5,80,127,1434594676
11714,17,Jits_Phase_5,0,5,56,103,1434995168
11714,17,Jits_Phase_5,1,1,48,33,1435006232
11714,17,Jits_Phase_5,2,5,80,127,1435054652
11714,17,Jits_Phase_5,3,5,63,98,1435085376
11714,17,Jits_Phase_5,0,1,48,36,1435495776
11714,17,Jits_Phase_5,1,5,56,103,1435504968
11714,17,Jits_Phase_5,2,5,63,98,1435515236
11714,17,Jits_Phase_5,3,5,80,127,1435555100
11714,17,Jits_Phase_5,0,1,48,31,1435990572
11714,17,Jits_Phase_5,1,5,63,98,1435994724
11714,17,Jits_Phase_5,2,5,80,127,1436075588
11714,17,Jits_Phase_5,3,5,56,103,1436084572
11714,17,Jits_Phase_5,0,1,48,32,1436542340
11714,17,Jits_Phase_5,1,5,63,98,1436545520
11714,17,Jits_Phase_5,2,5,56,103,1436585604
11714,17,Jits_Phase_5,3,5,80,127,1436588520
11714,17,Jits_Phase_5,0,5,56,103,1437005460
11714,17,Jits_Phase_5,1,5,63,98,1437015808
11714,17,Jits_Phase_5,2,5,80,127,1437055468
11714,17,Jits_Phase_5,3,1,48,32,1437068552
11714,17,Jits_Phase_5,0,5,56,103,1437494584
11714,17,Jits_Phase_5,1,5,63,98,1437497724
11714,17,Jits_Phase_5,2,5,80,127,1437515044
11714,17,Jits_Phase_5,3,1,48,34,1437524904
11714,17,Jits_Phase_5,0,5,80,127,1438004744
11714,17,Jits_Phase_5,1,5,56,103,1438014868
11714,17,Jits_Phase_5,2,1,48,28,1438024432
11714,17,Jits_Phase_5,3,5,63,98,1438084412
11714,17,Jits_Phase_5,0,5,63,98,1438495140
11714,17,Jits_Phase_5,1,5,56,103,1438514408
11714,17,Jits_Phase_5,2,1,48,33,1438531900
11714,17,Jits_Phase_5,3,5,80,127,1438594364
11714,17,Jits_Phase_5,0,5,56,103,1439005008
11714,17,Jits_Phase_5,1,1,48,31,1439012916
11714,17,Jits_Phase_5,2,5,80,127,1439044940
11714,17,Jits_Phase_5,3,5,63,98,1439055356
11714,17,Jits_Phase_5,0,5,80,127,1439494508
11714,17,Jits_Phase_5,1,1,48,32,1439507140
11714,17,Jits_Phase_5,2,5,63,98,1439525520
11714,17,Jits_Phase_5,3,5,56,103,1439565380
11714,17,Jits_Phase_5,0,1,48,33,1440013516
11714,17,Jits_Phase_5,1,5,56,103,1440014940
11714,17,Jits_Phase_5,2,5,63,98,1440045512
11714,17,Jits_Phase_5,3,5,80,127,1440094516
11714,17,Jits_Phase_5,0,1,48,34,1440504476
11714,17,Jits_Phase_5,1,5,80,127,1440514316
11714,17,Jits_Phase_5,2,5,56,103,1440555452
11714,17,Jits_Phase_5,3,5,63,98,1440564600
11714,17,Jits_Phase_5,0,5,80,127,1440994740
11714,17,Jits_Phase_5,1,1,48,34,1440999508
11714,17,Jits_Phase_5,2,5,63,98,1441034600
11714,17,Jits_Phase_5,3,5,56,103,1441095120
11714,17,Jits_Phase_5,0,5,56,103,1441495328
11714,17,Jits_Phase_5,1,1,48,33,1441496740
11714,17,Jits_Phase_5,2,5,80,127,1441504768
11714,17,Jits_Phase_5,3,5,63,98,1441584708
11714,17,Jits_Phase_5,0,1,48,33,1441985244
11714,17,Jits_Phase_5,1,5,80,127,1441995084
11714,17,Jits_Phase_5,2,5,63,98,1442054500
11714,17,Jits_Phase_5,3,5,56,103,1442085500
11714,17,Jits_Phase_5,0,5,56,103,1442494836
11714,17,Jits_Phase_5,1,1,48,34,1442501616
11714,17,Jits_Phase_5,2,5,80,127,1442555368
11714,17,Jits_Phase_5,3,5,63,98,1442595376
11714,17,Jits_Phase_5,0,1,48,30,1443015996
11714,17,Jits_Phase_5,1,5,56,103,1443044788
11714,17,Jits_Phase_5,2,5,63,98,1443054984
11714,17,Jits_Phase_5,3,5,80,127,1443058420
11714,17,Jits_Phase_5,0,5,80,127,1443495240
11714,17,Jits_Phase_5,1,1,48,32,1443530120
11714,17,Jits_Phase_5,2,5,63,98,1443585440
11714,17,Jits_Phase_5,3,5,56,103,1443594736
11714,17,Jits_Phase_5,0,5,56,103,1443994908
11714,17,Jits_Phase_5,1,5,63,98,1443998008
11714,17,Jits_Phase_5,2,5,80,127,1444001280
11714,17,Jits_Phase_5,3,1,48,27,1444023376
11714,17,Jits_Phase_5,0,1,48,35,1444455872
11714,17,Jits_Phase_5,1,5,80,127,1444515336
11714,17,Jits_Phase_5,2,5,63,98,1444565296
11714,17,Jits_Phase_5,3,5,56,103,1444595344
11714,17,Jits_Phase_5,0,1,48,29,1444978868
11714,17,Jits_Phase_5,1,5,56,103,1444994480
11714,17,Jits_Phase_5,2,5,80,127,1445004604
11714,17,Jits_Phase_5,3,5,63,98,1445075312
11714,17,Jits_Phase_5,0,1,48,32,1445497948
11714,17,Jits_Phase_5,1,5,56,103,1445505316
11714,17,Jits_Phase_5,2,5,63,98,1445524728
11714,17,Jits_Phase_5,3,5,80,127,1445585412
11714,17,Jits_Phase_5,0,5,80,127,1445984596
11714,17,Jits_Phase_5,1,1,48,29,1446002560
11714,17,Jits_Phase_5,2,5,63,98,1446055416
11714,17,Jits_Phase_5,3,5,56,103,1446074676
11714,17,Jits_Phase_5,0,5,80,127,1446504964
11714,17,Jits_Phase_5,1,1,48,33,1446506528
11714,17,Jits_Phase_5,2,5,56,103,1446515028
11714,17,Jits_Phase_5,3,5,63,98,1446525668
11714,17,Jits_Phase_5,0,1,48,37,1446993840
11714,17,Jits_Phase_5,1,5,80,127,1446995420
11714,17,Jits_Phase_5,2,5,56,103,1447014760
11714,17,Jits_Phase_5,3,5,63,98,1447085360
11714,17,Jits_Phase_5,0,1,48,32,1447487800
11714,17,Jits_Phase_5,1,5,56,103,1447505356
11714,17,Jits_Phase_5,2,5,80,127,1447534836
11714,17,Jits_Phase_5,3,5,63,98,1447554396
11714,17,Jits_Phase_5,0,1,48,31,1447986272
11714,17,Jits_Phase_5,1,5,63,98,1447994688
11714,17,Jits_Phase_5,2,5,56,103,1448055104
11714,17,Jits_Phase_5,3,5,80,127,1448084836
11714,17,Jits_Phase_5,0,1,48,28,1448481216
11714,17,Jits_Phase_5,1,5,63,98,1448485220
11714,17,Jits_Phase_5,2,5,80,127,1448488656
11714,17,Jits_Phase_5,3,5,56,103,1448575296
11714,17,Jits_Phase_5,0,1,48,29,1448948140
11714,17,Jits_Phase_5,1,5,56,103,1449005556
11714,17,Jits_Phase_5,2,5,63,98,1449035380
11714,17,Jits_Phase_5,3,5,80,127,1449075252
11714,17,Jits_Phase_5,0,1,48,28,1449454644
11714,17,Jits_Phase_5,1,5,63,98,1449505232
11714,17,Jits_Phase_5,2,5,56,103,1449545244
11714,17,Jits_Phase_5,3,5,80,127,1449564492
11714,17,Jits_Phase_5,0,1,48,27,1449959848
11714,17,Jits_Phase_5,1,5,63,98,1450015168
11714,17,Jits_Phase_5,2,5,56,103,1450054944
11714,17,Jits_Phase_5,3,5,80,127,1450065360
11714,17,Jits_Phase_5,0,1,48,31,1450473172
11714,17,Jits_Phase_5,1,5,80,127,1450504656
11714,17,Jits_Phase_5,2,5,63,98,1450575220
11714,17,Jits_Phase_5,3,5,56,103,1450594856
11714,17,Jits_Phase_5,0,1,48,33,1450963852
11714,17,Jits_Phase_5,1,5,56,103,1450995116
11714,17,Jits_Phase_5,2,5,80,127,1451014528
11714,17,Jits_Phase_5,3,5,63,98,1451054468
11714,17,Jits_Phase_5,0,1,48,35,1451453788
11714,17,Jits_Phase_5,1,5,63,98,1451505128
11714,17,Jits_Phase_5,2,5,80,127,1451524316
11714,17,Jits_Phase_5,3,5,56,103,1451565356
11714,17,Jits_Phase_5,0,1,48,28,1451982140
11714,17,Jits_Phase_5,1,5,63,98,1452004652
11714,17,Jits_Phase_5,2,5,56,103,1452025336
11714,17,Jits_Phase_5,3,5,80,127,1452034408
11714,17,Jits_Phase_5,0,1,48,29,1452481664
11714,17,Jits_Phase_5,1,5,80,127,1452504548
11714,17,Jits_Phase_5,2,5,56,103,1452524856
11714,17,Jits_Phase_5,3,5,63,98,1452554756
11714,17,Jits_Phase_5,0,1,48,29,1452958408
11714,17,Jits_Phase_5,1,5,56,103,1453074696
11714,17,Jits_Phase_5,2,5,80,127,1453077840
11714,17,Jits_Phase_5,3,5,63,98,1453095380
11714,17,Jits_Phase_5,0,5,63,98,1453494604
11714,17,Jits_Phase_5,1,1,48,28,1453521020
11714,17,Jits_Phase_5,2,5,56,103,1453525320
11714,17,Jits_Phase_5,3,5,80,127,1453584660
11714,17,Jits_Phase_5,0,1,48,30,1453965252
11714,17,Jits_Phase_5,1,5,63,98,1454075244
11714,17,Jits_Phase_5,2,5,56,103,1454084392
11714,17,Jits_Phase_5,3,5,80,127,1454094588
11714,17,Jits_Phase_5,0,1,48,30,1454523752
11714,17,Jits_Phase_5,1,5,56,103,1454535380
11714,17,Jits_Phase_5,2,5,80,127,1454564760
11714,17,Jits_Phase_5,3,5,63,98,1454575252
11714,17,Jits_Phase_5,0,1,48,33,1455018400
11714,17,Jits_Phase_5,1,5,63,98,1455074772
11714,17,Jits_Phase_5,2,5,56,103,1455084892
11714,17,Jits_Phase_5,3,5,80,127,1455105352
11714,17,Jits_Phase_5,0,5,56,103,1455504708
11714,17,Jits_Phase_5,1,1,48,31,1455540932
11714,17,Jits_Phase_5,2,5,63,98,1455565236
11714,17,Jits_Phase_5,3,5,80,127,1455568600
11714,17,Jits_Phase_5,0,1,48,31,1456002412
11714,17,Jits_Phase_5,1,5,80,127,1456025056
11714,17,Jits_Phase_5,2,5,56,103,1456035472
11714,17,Jits_Phase_5,3,5,63,98,1456104912
11714,17,Jits_Phase_5,0,1,48,31,1456508516
11714,17,Jits_Phase_5,1,5,80,127,1456514392
11714,17,Jits_Phase_5,2,5,56,103,1456585120
11714,17,Jits_Phase_5,3,5,63,98,1456595388
11714,17,Jits_Phase_5,0,1,48,28,1457027524
11714,17,Jits_Phase_5,1,5,63,98,1457055272
11714,17,Jits_Phase_5,2,5,56,103,1457065468
11714,17,Jits_Phase_5,3,5,80,127,1457084656
11714,17,Jits_Phase_5,0,5,80,127,1457504588
11714,17,Jits_Phase_5,1,1,48,27,1457514304
11714,17,Jits_Phase_5,2,5,63,98,1457564996
11714,17,Jits_Phase_5,3,5,56,103,1457605152
11714,17,Jits_Phase_5,0,1,48,32,1458010004
11714,17,Jits_Phase_5,1,5,56,103,1458045276
11714,17,Jits_Phase_5,2,5,63,98,1458054500
11714,17,Jits_Phase_5,3,5,80,127,1458094508
11714,17,Jits_Phase_5,0,5,56,103,1458505004
11714,17,Jits_Phase_5,1,1,48,28,1458531936
11714,17,Jits_Phase_5,2,5,80,127,1458534672
11714,17,Jits_Phase_5,3,5,63,98,1458585040
11714,17,Jits_Phase_5,0,1,48,29,1459024144
11714,17,Jits_Phase_5,1,5,56,103,1459044616
11714,17,Jits_Phase_5,2,5,63,98,1459084652
11714,17,Jits_Phase_5,3,5,80,127,1459087940
11714,17,Jits_Phase_5,0,1,48,27,1459523428
11714,17,Jits_Phase_5,1,5,56,103,1459544500
11714,17,Jits_Phase_5,2,5,63,98,1459554548
11714,17,Jits_Phase_5,3,5,80,127,1459575180
11714,17,Jits_Phase_5,0,5,56,103,1460005296
11714,17,Jits_Phase_5,1,1,48,33,1460006276
11714,17,Jits_Phase_5,2,5,80,127,1460009476
11714,17,Jits_Phase_5,3,5,63,98,1460045148
11714,17,Jits_Phase_5,0,1,48,28,1460514912
11714,17,Jits_Phase_5,1,5,63,98,1460545048
11714,17,Jits_Phase_5,2,5,56,103,1460574500
11714,17,Jits_Phase_5,3,5,80,127,1460595056
11714,17,Jits_Phase_5,0,1,48,27,1461005288
11714,17,Jits_Phase_5,1,5,80,127,1461014980
11714,17,Jits_Phase_5,2,5,56,103,1461025100
11714,17,Jits_Phase_5,3,5,63,98,1461035372
11714,17,Jits_Phase_5,0,1,48,30,1461483988
11714,17,Jits_Phase_5,1,5,56,103,1461514500
11714,17,Jits_Phase_5,2,5,80,127,1461554440
11714,17,Jits_Phase_5,3,5,63,98,1461585292
11714,17,Jits_Phase_5,0,1,48,29,1461980576
11714,17,Jits_Phase_5,1,5,63,98,1462034924
11714,17,Jits_Phase_5,2,5,80,127,1462045196
11714,17,Jits_Phase_5,3,5,56,103,1462055244
11714,17,Jits_Phase_5,0,1,48,27,1462518612
11714,17,Jits_Phase_5,1,5,56,103,1462525308
11714,17,Jits_Phase_5,2,5,63,98,1462595064
11714,17,Jits_Phase_5,3,5,80,127,1462605112
11714,17,Jits_Phase_5,0,1,48,28,1463022944
11714,17,Jits_Phase_5,1,5,80,127,1463035172
11714,17,Jits_Phase_5,2,5,56,103,1463044472
11714,17,Jits_Phase_5,3,5,63,98,1463094596
11714,17,Jits_Phase_5,0,1,48,29,1463534600
11714,17,Jits_Phase_5,1,5,80,127,1463545180
11714,17,Jits_Phase_5,2,5,56,103,1463604600
11714,17,Jits_Phase_5,3,5,63,98,1463635304
11714,17,Jits_Phase_5,0,5,56,103,1464045160
11714,17,Jits_Phase_5,1,5,80,127,1464048224
11714,17,Jits_Phase_5,2,5,63,98,1464085020
11714,17,Jits_Phase_5,3,1,48,27,1464092872
11714,17,Jits_Phase_5,0,1,48,30,1464560160
11714,17,Jits_Phase_5,1,5,56,103,1464575324
11714,17,Jits_Phase_5,2,5,63,98,1464604928
11714,17,Jits_Phase_5,3,5,80,127,1464615196
11714,17,Jits_Phase_5,0,1,48,29,1465043516
11714,17,Jits_Phase_5,1,5,63,98,1465085264
11714,17,Jits_Phase_5,2,5,80,127,1465094488
11714,17,Jits_Phase_5,3,5,56,103,1465104684
11714,17,Jits_Phase_5,0,5,80,127,1465534904
11714,17,Jits_Phase_5,1,1,48,26,1465565668
11714,17,Jits_Phase_5,2,5,56,103,1465584944
11714,17,Jits_Phase_5,3,5,63,98,1465588012
11714,17,Jits_Phase_5,0,1,48,30,1466048476
11714,17,Jits_Phase_5,1,5,56,103,1466065216
11714,17,Jits_Phase_5,2,5,80,127,1466084852
11714,17,Jits_Phase_5,3,5,63,98,1466095048
11714,17,Jits_Phase_5,0,5,63,98,1466544372
11714,17,Jits_Phase_5,1,1,48,27,1466545336
11714,17,Jits_Phase_5,2,5,56,103,1466575160
11714,17,Jits_Phase_5,3,5,80,127,1466594796
11714,17,Jits_Phase_5,0,1,48,27,1467029096
11714,17,Jits_Phase_5,1,5,56,103,1467054304
11714,17,Jits_Phase_5,2,5,80,127,1467064648
11714,17,Jits_Phase_5,3,5,63,98,1467135428
11714,17,Jits_Phase_5,0,1,48,27,1467534024
11714,17,Jits_Phase_5,1,5,63,98,1467544912
11714,17,Jits_Phase_5,2,5,80,127,1467584848
11714,17,Jits_Phase_5,3,5,56,103,1467625080
11714,17,Jits_Phase_5,0,1,48,27,1468048976
11714,17,Jits_Phase_5,1,5,56,103,1468055220
11714,17,Jits_Phase_5,2,5,63,98,1468065268
11714,17,Jits_Phase_5,3,5,80,127,1468084536
11714,17,Jits_Phase_5,0,1,48,28,1468545136
11714,17,Jits_Phase_5,1,5,63,98,1468594680
11714,17,Jits_Phase_5,2,5,80,127,1468615064
11714,17,Jits_Phase_5,3,5,56,103,1468634476
11714,17,Jits_Phase_5,0,5,56,103,1469034928
11714,17,Jits_Phase_5,1,1,48,30,1469077176
11714,17,Jits_Phase_5,2,5,80,127,1469114964
11714,17,Jits_Phase_5,3,5,63,98,1469125084
11714,17,Jits_Phase_5,0,1,48,32,1469544556
11714,17,Jits_Phase_5,1,5,80,127,1469574492
11714,17,Jits_Phase_5,2,5,63,98,1469584840
11714,17,Jits_Phase_5,3,5,56,103,1469614512
11714,17,Jits_Phase_5,0,5,63,98,1470035340
11714,17,Jits_Phase_5,1,1,48,26,1470039952
11714,17,Jits_Phase_5,2,5,80,127,1470075220
11714,17,Jits_Phase_5,3,5,56,103,1470134860
11714,17,Jits_Phase_5,0,5,63,98,1470545204
11714,17,Jits_Phase_5,1,1,48,28,1470556716
11714,17,Jits_Phase_5,2,5,56,103,1470594376
11714,17,Jits_Phase_5,3,5,80,127,1470625096
11714,17,Jits_Phase_5,0,1,48,30,1471033092
11714,17,Jits_Phase_5,1,5,80,127,1471044948
11714,17,Jits_Phase_5,2,5,63,98,1471055296
11714,17,Jits_Phase_5,3,5,56,103,1471124996
11714,17,Jits_Phase_5,0,1,48,28,1471548944
11714,17,Jits_Phase_5,1,5,80,127,1471605036
11714,17,Jits_Phase_5,2,5,56,103,1471615224
11714,17,Jits_Phase_5,3,5,63,98,1471618372
11714,17,Jits_Phase_5,0,1,48,27,1472042244
11714,17,Jits_Phase_5,1,5,56,103,1472045500
11714,17,Jits_Phase_5,2,5,80,127,1472065132
11714,17,Jits_Phase_5,3,5,63,98,1472075104
11714,17,Jits_Phase_5,0,5,63,98,1472555292
11714,17,Jits_Phase_5,1,1,48,26,1472558336
11714,17,Jits_Phase_5,2,5,56,103,1472595224
11714,17,Jits_Phase_5,3,5,80,127,1472614932
11714,17,Jits_Phase_5,0,1,48,31,1473033292
11714,17,Jits_Phase_5,1,5,63,98,1473055184
11714,17,Jits_Phase_5,2,5,56,103,1473114524
11714,17,Jits_Phase_5,3,5,80,127,1473117516
11714,17,Jits_Phase_5,0,5,56,103,1473515004
11714,17,Jits_Phase_5,1,1,48,28,1473528988
11714,17,Jits_Phase_5,2,5,80,127,1473535380
11714,17,Jits_Phase_5,3,5,63,98,1473575244
11714,17,Jits_Phase_5,0,1,48,28,1474002808
11714,17,Jits_Phase_5,1,5,56,103,1474045252
11714,17,Jits_Phase_5,2,5,63,98,1474064960
11714,17,Jits_Phase_5,3,5,80,127,1474075008
11714,17,Jits_Phase_5,0,1,48,26,1474513144
11714,17,Jits_Phase_5,1,5,80,127,1474515256
11714,17,Jits_Phase_5,2,5,56,103,1474545156
11714,17,Jits_Phase_5,3,5,63,98,1474584868
11714,17,Jits_Phase_5,0,1,48,27,1475001860
11714,17,Jits_Phase_5,1,5,80,127,1475025120
11714,17,Jits_Phase_5,2,5,56,103,1475044828
11714,17,Jits_Phase_5,3,5,63,98,1475105052
11714,17,Jits_Phase_5,0,1,48,29,1475477112
11714,17,Jits_Phase_5,1,5,56,103,1475535204
11714,17,Jits_Phase_5,2,5,80,127,1475554616
11714,17,Jits_Phase_5,3,5,63,98,1475615064
11714,17,Jits_Phase_5,0,5,80,127,1476014508
11714,17,Jits_Phase_5,1,5,56,103,1476024780
11714,17,Jits_Phase_5,2,1,48,29,1476029244
11714,17,Jits_Phase_5,3,5,63,98,1476064856
11714,17,Jits_Phase_5,0,5,63,98,1476515240
11714,17,Jits_Phase_5,1,1,48,26,1476541580
11714,17,Jits_Phase_5,2,5,56,103,1476555096
11714,17,Jits_Phase_5,3,5,80,127,1476558236
11714,17,Jits_Phase_5,0,1,48,31,1477007224
11714,17,Jits_Phase_5,1,5,63,98,1477035348
11714,17,Jits_Phase_5,2,5,80,127,1477075360
11714,17,Jits_Phase_5,3,5,56,103,1477104944
11714,17,Jits_Phase_5,0,1,48,27,1477512976
11714,17,Jits_Phase_5,1,5,56,103,1477524912
11714,17,Jits_Phase_5,2,5,63,98,1477535032
11714,17,Jits_Phase_5,3,5,80,127,1477564928
11714,17,Jits_Phase_5,0,1,48,28,1478008968
11714,17,Jits_Phase_5,1,5,80,127,1478015292
11714,17,Jits_Phase_5,2,5,63,98,1478084972
11714,17,Jits_Phase_5,3,5,56,103,1478095316
11714,17,Jits_Phase_5,0,5,63,98,1478515120
11714,17,Jits_Phase_5,1,1,48,27,1478536968
11714,17,Jits_Phase_5,2,5,56,103,1478584868
11714,17,Jits_Phase_5,3,5,80,127,1478594916
11714,17,Jits_Phase_5,0,5,63,98,1478995368
11714,17,Jits_Phase_5,1,5,56,103,1479014856
11714,17,Jits_Phase_5,2,1,48,27,1479040396
11714,17,Jits_Phase_5,3,5,80,127,1479054660
11714,17,Jits_Phase_5,0,5,56,103,1479474668
11714,17,Jits_Phase_5,1,5,63,98,1479484716
11714,17,Jits_Phase_5,2,1,48,29,1479517120
11714,17,Jits_Phase_5,3,5,80,127,1479564744
11714,17,Jits_Phase_5,0,1,48,24,1479956644
11714,17,Jits_Phase_5,1,5,63,98,1479965060
11714,17,Jits_Phase_5,2,5,56,103,1479994664
11714,17,Jits_Phase_5,3,5,80,127,1480034748
11714,17,Jits_Phase_5,0,1,48,29,1480462000
11714,17,Jits_Phase_5,1,5,56,103,1480464956
11714,17,Jits_Phase_5,2,5,63,98,1480504892
11714,17,Jits_Phase_5,3,5,80,127,1480544680
11714,17,Jits_Phase_5,0,1,48,24,1480932296
11714,17,Jits_Phase_5,1,5,80,127,1480964700
11714,17,Jits_Phase_5,2,5,56,103,1481045228
11714,17,Jits_Phase_5,3,5,63,98,1481054752
11714,17,Jits_Phase_5,0,5,56,103,1481505064
11714,17,Jits_Phase_5,1,5,63,98,1481508056
11714,17,Jits_Phase_5,2,5,80,127,1481515260
11714,17,Jits_Phase_5,3,1,48,27,1481522512
11714,17,Jits_Phase_5,0,1,48,28,1481977512
11714,17,Jits_Phase_5,1,5,56,103,1482025412
11714,17,Jits_Phase_5,2,5,63,98,1482044676
11714,17,Jits_Phase_5,3,5,80,127,1482055096
11714,17,Jits_Phase_5,0,5,63,98,1482485092
11714,17,Jits_Phase_5,1,5,80,127,1482495216
11714,17,Jits_Phase_5,2,5,56,103,1482514776
11714,17,Jits_Phase_5,3,1,48,21,1482759796
11714,17,Jits_Phase_5,0,5,63,98,1482984840
11714,17,Jits_Phase_5,1,5,56,103,1483064552
11714,17,Jits_Phase_5,2,5,80,127,1483067776
11714,17,Jits_Phase_5,3,1,48,16,1483101532
11714,17,Jits_Phase_5,0,5,63,98,1483484584
11714,17,Jits_Phase_5,1,5,56,103,1483504968
11714,17,Jits_Phase_5,2,5,80,127,1483534644
11714,17,Jits_Phase_5,0,5,56,103,1483985196
11714,17,Jits_Phase_5,1,5,63,98,1484004684
11714,17,Jits_Phase_5,2,5,80,127,1484014952
11714,17,Jits_Phase_5,0,1,48,14,1484278676
11714,17,Jits_Phase_5,1,5,56,103,1484514792
11714,17,Jits_Phase_5,2,5,63,98,1484545660
11714,17,Jits_Phase_5,3,5,80,127,1484548876
11714,17,Jits_Phase_5,4,1,48,17,1484626612
11714,17,Jits_Phase_5,0,5,56,103,1484965364
11714,17,Jits_Phase_5,1,5,63,98,1485005156
11714,17,Jits_Phase_5,2,5,80,127,1485064716
11714,17,Jits_Phase_5,3,1,48,22,1485072476
11714,17,Jits_Phase_5,0,5,56,103,1485485800
11714,17,Jits_Phase_5,1,5,63,98,1485494580
11714,17,Jits_Phase_5,2,5,80,127,1485555040
11714,17,Jits_Phase_5,3,1,48,19,1485663112
11714,17,Jits_Phase_5,0,5,56,103,1485985040
11714,17,Jits_Phase_5,1,5,80,127,1486004676
11714,17,Jits_Phase_5,2,5,63,98,1486035400
11714,17,Jits_Phase_5,0,5,80,127,1486484772
11714,17,Jits_Phase_5,1,5,56,103,1486494968
11714,17,Jits_Phase_5,2,5,63,98,1486514752
11714,17,Jits_Phase_5,0,1,48,21,1486960476
11714,17,Jits_Phase_5,1,5,63,98,1486984564
11714,17,Jits_Phase_5,2,5,80,127,1487064420
11714,17,Jits_Phase_5,3,5,56,103,1487074612
11714,17,Jits_Phase_5,0,1,48,27,1487461252
11714,17,Jits_Phase_5,1,5,80,127,1487575552
11714,17,Jits_Phase_5,2,5,56,103,1487594812
11714,17,Jits_Phase_5,3,5,63,98,1487597952
11714,17,Jits_Phase_5,0,1,48,29,1487973748
11714,17,Jits_Phase_5,1,5,63,98,1488064896
11714,17,Jits_Phase_5,2,5,80,127,1488068992
11714,17,Jits_Phase_5,3,5,56,103,1488125488
11714,17,Jits_Phase_5,0,1,48,30,1488496960
11714,17,Jits_Phase_5,1,5,56,103,1488545012
11714,17,Jits_Phase_5,2,5,80,127,1488555652
11714,17,Jits_Phase_5,3,5,63,98,1488595424
11714,17,Jits_Phase_5,0,1,48,33,1489013492
11714,17,Jits_Phase_5,1,5,56,103,1489025500
11714,17,Jits_Phase_5,2,5,63,98,1489084692
11714,17,Jits_Phase_5,3,5,80,127,1489094888
11714,17,Jits_Phase_5,0,1,48,35,1489522292
11714,17,Jits_Phase_5,1,5,63,98,1489544432
11714,17,Jits_Phase_5,2,5,80,127,1489584664
11714,17,Jits_Phase_5,3,5,56,103,1489624512
11714,17,Jits_Phase_5,0,5,56,103,1490045232
11714,17,Jits_Phase_5,1,1,48,32,1490050892
11714,17,Jits_Phase_5,2,5,63,98,1490125092
11714,17,Jits_Phase_5,3,5,80,127,1490128680
11714,17,Jits_Phase_5,0,1,48,33,1490560012
11714,17,Jits_Phase_5,1,5,80,127,1490605440
11714,17,Jits_Phase_5,2,5,56,103,1490635264
11714,17,Jits_Phase_5,3,5,63,98,1490638180
11714,17,Jits_Phase_5,0,5,56,103,1491065408
11714,17,Jits_Phase_5,1,5,80,127,1491084596
11714,17,Jits_Phase_5,2,1,48,30,1491116780
11714,17,Jits_Phase_5,3,5,63,98,1491124676
11714,17,Jits_Phase_5,0,5,80,127,1491544620
11714,17,Jits_Phase_5,1,5,63,98,1491565032
11714,17,Jits_Phase_5,2,1,48,32,1491591368
11714,17,Jits_Phase_5,3,5,56,103,1491625560
11714,17,Jits_Phase_5,0,5,63,98,1492055620
11714,17,Jits_Phase_5,1,5,56,103,1492064620
11714,17,Jits_Phase_5,2,1,48,32,1492087392
11714,17,Jits_Phase_5,3,5,80,127,1492114764
11714,17,Jits_Phase_5,0,5,56,103,1492544736
11714,17,Jits_Phase_5,1,1,48,35,1492553624
11714,17,Jits_Phase_5,2,5,63,98,1492565632
11714,17,Jits_Phase_5,3,5,80,127,1492574560
11714,17,Jits_Phase_5,0,5,56,103,1493035492
11714,17,Jits_Phase_5,1,5,63,98,1493038560
11714,17,Jits_Phase_5,2,5,80,127,1493054756
11714,17,Jits_Phase_5,3,1,48,27,1493055720
11714,17,Jits_Phase_5,0,1,48,34,1493506740
11714,17,Jits_Phase_5,1,5,63,98,1493574948
11714,17,Jits_Phase_5,2,5,56,103,1493604680
11714,17,Jits_Phase_5,3,5,80,127,1493634600
11714,17,Jits_Phase_5,0,5,80,127,1494034772
11714,17,Jits_Phase_5,1,1,48,32,1494038040
11714,17,Jits_Phase_5,2,5,56,103,1494124996
11714,17,Jits_Phase_5,3,5,63,98,1494127984
11714,17,Jits_Phase_5,0,5,56,103,1494534600
11714,17,Jits_Phase_5,1,5,80,127,1494537592
11714,17,Jits_Phase_5,2,1,48,35,1494556076
11714,17,Jits_Phase_5,3,5,63,98,1494615656
11714,17,Jits_Phase_5,0,5,80,127,1495035328
11714,17,Jits_Phase_5,1,1,48,32,1495036368
11714,17,Jits_Phase_5,2,5,63,98,1495094588
11714,17,Jits_Phase_5,3,5,56,103,1495125752
11714,17,Jits_Phase_5,0,1,48,32,1495534188
11714,17,Jits_Phase_5,1,5,63,98,1495535760
11714,17,Jits_Phase_5,2,5,80,127,1495545132
11714,17,Jits_Phase_5,3,5,56,103,1495614732
11714,17,Jits_Phase_5,0,1,48,34,1496000936
11714,17,Jits_Phase_5,1,5,56,103,1496096248
11714,17,Jits_Phase_5,2,5,80,127,1496124656
11714,17,Jits_Phase_5,3,5,63,98,1496174880
11714,17,Jits_Phase_5,0,1,48,28,1496554632
11714,17,Jits_Phase_5,1,5,63,98,1496684800
11714,17,Jits_Phase_5,2,5,56,103,1496714548
11714,17,Jits_Phase_5,3,5,80,127,1496717688
11714,17,Jits_Phase_5,0,1,48,27,1497178208
11714,17,Jits_Phase_5,1,5,63,98,1497184604
11714,17,Jits_Phase_5,2,5,80,127,1497205012
11714,17,Jits_Phase_5,3,5,56,103,1497215280
11714,17,Jits_Phase_5,0,1,48,30,1497679676
11714,17,Jits_Phase_5,1,5,56,103,1497694620
11714,17,Jits_Phase_5,2,5,63,98,1497697460
11714,17,Jits_Phase_5,3,5,80,127,1497715100
11714,17,Jits_Phase_5,0,5,56,103,1498145220
11714,17,Jits_Phase_5,1,5,63,98,1498155488
11714,17,Jits_Phase_5,2,1,48,25,1498177564
11714,17,Jits_Phase_5,3,5,80,127,1498185008
11714,17,Jits_Phase_5,0,1,48,23,1498649736
11714,17,Jits_Phase_5,1,5,63,98,1498665500
11714,17,Jits_Phase_5,2,5,80,127,1498684760
11714,17,Jits_Phase_5,3,5,56,103,1498724696
11714,17,Jits_Phase_5,0,1,48,21,1499158632
11714,17,Jits_Phase_5,1,5,56,103,1499194696
11714,17,Jits_Phase_5,2,5,63,98,1499234632
11714,17,Jits_Phase_5,3,5,80,127,1499237920
11714,17,Jits_Phase_5,0,5,80,127,1499635032
11714,17,Jits_Phase_5,1,1,48,23,1499672156
11714,17,Jits_Phase_5,2,5,56,103,1499674892
11714,17,Jits_Phase_5,3,5,63,98,1499725312
11714,17,Jits_Phase_5,0,1,48,25,1500174028
11714,17,Jits_Phase_5,1,5,56,103,1500195476
11714,17,Jits_Phase_5,2,5,80,127,1500205524
11714,17,Jits_Phase_5,3,5,63,98,1500235196
11714,17,Jits_Phase_5,0,5,56,103,1500644744
11714,17,Jits_Phase_5,1,1,48,25,1500667488
11714,17,Jits_Phase_5,2,5,80,127,1500684600
11714,17,Jits_Phase_5,3,5,63,98,1500734800
11714,17,Jits_Phase_5,0,5,56,103,1501144284
11714,17,Jits_Phase_5,1,1,48,26,1501155272
11714,17,Jits_Phase_5,2,5,80,127,1501185340
11714,17,Jits_Phase_5,3,5,63,98,1501234640
11714,17,Jits_Phase_5,0,5,80,127,1501634836
11714,17,Jits_Phase_5,1,1,48,29,1501650756
11714,17,Jits_Phase_5,2,5,63,98,1501714772
11714,17,Jits_Phase_5,3,5,56,103,1501725116
11714,17,Jits_Phase_5,0,5,80,127,1502184724
11714,17,Jits_Phase_5,1,1,48,24,1502186136
11714,17,Jits_Phase_5,2,5,56,103,1502195284
11714,17,Jits_Phase_5,3,5,63,98,1502214548
11714,17,Jits_Phase_5,0,5,63,98,1502654824
11714,17,Jits_Phase_5,1,1,48,27,1502671640
11714,17,Jits_Phase_5,2,5,56,103,1502724492
11714,17,Jits_Phase_5,3,5,80,127,1502727484
11714,17,Jits_Phase_5,0,1,48,29,1503141336
11714,17,Jits_Phase_5,1,5,80,127,1503145564
11714,17,Jits_Phase_5,2,5,63,98,1503194496
11714,17,Jits_Phase_5,3,5,56,103,1503234508
11714,17,Jits_Phase_5,0,1,48,23,1503647916
11714,17,Jits_Phase_5,1,5,63,98,1503685176
11714,17,Jits_Phase_5,2,5,56,103,1503724968
11714,17,Jits_Phase_5,3,5,80,127,1503735312
11714,17,Jits_Phase_5,0,1,48,28,1504154868
11714,17,Jits_Phase_5,1,5,63,98,1504174372
11714,17,Jits_Phase_5,2,5,56,103,1504195128
11714,17,Jits_Phase_5,3,5,80,127,1504215364
11714,17,Jits_Phase_5,0,1,48,29,1504621644
11714,17,Jits_Phase_5,1,5,80,127,1504635384
11714,17,Jits_Phase_5,2,5,56,103,1504644460
11714,17,Jits_Phase_5,3,5,63,98,1504664916
11714,17,Jits_Phase_5,0,1,48,23,1505120908
11714,17,Jits_Phase_5,1,5,63,98,1505164648
11714,17,Jits_Phase_5,2,5,56,103,1505204736
11714,17,Jits_Phase_5,3,5,80,127,1505235440
11714,17,Jits_Phase_5,0,1,48,28,1505619468
11714,17,Jits_Phase_5,1,5,56,103,1505624368
11714,17,Jits_Phase_5,2,5,63,98,1505655340
11714,17,Jits_Phase_5,3,5,80,127,1505684792
11714,17,Jits_Phase_5,0,5,80,127,1506045392
11714,17,Jits_Phase_5,1,5,56,103,1506115144
11714,17,Jits_Phase_5,2,5,63,98,1506118208
11714,17,Jits_Phase_5,3,1,48,29,1506158440
11714,17,Jits_Phase_5,0,5,56,103,1506555264
11714,17,Jits_Phase_5,1,5,63,98,1506605536
11714,17,Jits_Phase_5,2,1,48,29,1506629404
11714,17,Jits_Phase_5,3,5,80,127,1506635352
11714,17,Jits_Phase_5,0,5,63,98,1507034504
11714,17,Jits_Phase_5,1,5,80,127,1507037792
11714,17,Jits_Phase_5,2,5,56,103,1507095036
11714,17,Jits_Phase_5,3,1,48,28,1507123484
11714,17,Jits_Phase_5,0,5,56,103,1507564884
11714,17,Jits_Phase_5,1,5,80,127,1507575376
11714,17,Jits_Phase_5,2,5,63,98,1507625276
11714,17,Jits_Phase_5,3,1,48,17,1507632676
11714,17,Jits_Phase_5,0,5,63,98,1508035052
11714,17,Jits_Phase_5,1,5,56,103,1508045248
11714,17,Jits_Phase_5,2,5,80,127,1508075072
11714,17,Jits_Phase_5,3,1,48,21,1508120736
11714,17,Jits_Phase_5,0,5,63,98,1508565288
11714,17,Jits_Phase_5,1,5,80,127,1508568576
11714,17,Jits_Phase_5,2,5,56,103,1508595256
11714,17,Jits_Phase_5,0,1,48,26,1508950224
11714,17,Jits_Phase_5,1,5,63,98,1509084596
11714,17,Jits_Phase_5,2,5,56,103,1509105052
11714,17,Jits_Phase_5,3,5,80,127,1509108268
11714,17,Jits_Phase_5,0,1,48,22,1509514432
11714,17,Jits_Phase_5,1,5,63,98,1509545396
11714,17,Jits_Phase_5,2,5,56,103,1509615132
11714,17,Jits_Phase_5,3,5,80,127,1509634544
11714,17,Jits_Phase_5,0,5,56,103,1510034816
11714,17,Jits_Phase_5,1,5,63,98,1510045088
11714,17,Jits_Phase_5,2,1,48,18,1510063496
11714,17,Jits_Phase_5,3,5,80,127,1510135284
11714,17,Jits_Phase_5,0,1,48,28,1510542720
11714,17,Jits_Phase_5,1,5,56,103,1510555100
11714,17,Jits_Phase_5,2,5,80,127,1510595112
11714,17,Jits_Phase_5,3,5,63,98,1510605232
11714,17,Jits_Phase_5,0,1,48,24,1511041552
11714,17,Jits_Phase_5,1,5,56,103,1511075300
11714,17,Jits_Phase_5,2,5,63,98,1511105048
11714,17,Jits_Phase_5,3,5,80,127,1511134576
11714,17,Jits_Phase_5,0,5,80,127,1511535124
11714,17,Jits_Phase_5,1,1,48,26,1511554136
11714,17,Jits_Phase_5,2,5,63,98,1511574832
11714,17,Jits_Phase_5,3,5,56,103,1511595364
11714,17,Jits_Phase_5,0,1,48,28,1512066620
11714,17,Jits_Phase_5,1,5,56,103,1512074588
11714,17,Jits_Phase_5,2,5,80,127,1512095196
11714,17,Jits_Phase_5,3,5,63,98,1512114684
11714,17,Jits_Phase_5,0,5,63,98,1512544656
11714,17,Jits_Phase_5,1,5,56,103,1512555024
11714,17,Jits_Phase_5,2,1,48,24,1512562784
11714,17,Jits_Phase_5,3,5,80,127,1512615256
11714,17,Jits_Phase_5,0,1,48,26,1513039192
11714,17,Jits_Phase_5,1,5,56,103,1513045216
11714,17,Jits_Phase_5,2,5,63,98,1513114996
11714,17,Jits_Phase_5,3,5,80,127,1513134316
11714,17,Jits_Phase_5,0,1,48,29,1513505912
11714,17,Jits_Phase_5,1,5,56,103,1513545044
11714,17,Jits_Phase_5,2,5,63,98,1513574868
11714,17,Jits_Phase_5,3,5,80,127,1513614640
11714,17,Jits_Phase_5,0,5,63,98,1514034660
11714,17,Jits_Phase_5,1,1,48,24,1514048340
11714,17,Jits_Phase_5,2,5,56,103,1514084856
11714,17,Jits_Phase_5,3,5,80,127,1514095224
11714,17,Jits_Phase_5,0,1,48,25,1514544496
11714,17,Jits_Phase_5,1,5,56,103,1514575084
11714,17,Jits_Phase_5,2,5,63,98,1514625308
11714,17,Jits_Phase_5,3,5,80,127,1514634532
11714,17,Jits_Phase_5,0,5,56,103,1515045248
11714,17,Jits_Phase_5,1,5,63,98,1515054400
11714,17,Jits_Phase_5,2,1,48,26,1515070172
11714,17,Jits_Phase_5,3,5,80,127,1515135328
11714,17,Jits_Phase_5,0,9999,9999,9999,1430783080
11714,17,Jits_Phase_5,1,9999,9999,9999,1431282788
11714,17,Jits_Phase_5,2,9999,9999,9999,1431782520
11714,17,Jits_Phase_5,3,9999,9999,9999,1432282172
11714,17,Jits_Phase_5,4,9999,9999,9999,1432782912
11714,17,Jits_Phase_5,5,9999,9999,9999,1433282664
11714,17,Jits_Phase_5,6,9999,9999,9999,1433782340
11714,17,Jits_Phase_5,7,9999,9999,9999,1434283080
11714,17,Jits_Phase_5,8,9999,9999,9999,1434793088
11714,17,Jits_Phase_5,9,9999,9999,9999,1435292780
11714,17,Jits_Phase_5,10,9999,9999,9999,1435792468
11714,17,Jits_Phase_5,11,9999,9999,9999,1436292216
11714,17,Jits_Phase_5,12,9999,9999,9999,1436792932
11714,17,Jits_Phase_5,13,9999,9999,9999,1437292680
11714,17,Jits_Phase_5,14,9999,9999,9999,1437792328
11714,17,Jits_Phase_5,15,9999,9999,9999,1438293064
11714,17,Jits_Phase_5,16,9999,9999,9999,1438792824
11714,17,Jits_Phase_5,17,9999,9999,9999,1439292500
11714,17,Jits_Phase_5,18,9999,9999,9999,1439792188
11714,17,Jits_Phase_5,19,9999,9999,9999,1440292928
11714,17,Jits_Phase_5,20,9999,9999,9999,1440792676
11714,17,Jits_Phase_5,21,9999,9999,9999,1441292348
11714,17,Jits_Phase_5,22,9999,9999,9999,1441792112
11714,17,Jits_Phase_5,23,9999,9999,9999,1442292848
11714,17,Jits_Phase_5,24,9999,9999,9999,1442792520
11714,17,Jits_Phase_5,25,9999,9999,9999,1443292272
11714,17,Jits_Phase_5,26,9999,9999,9999,1443793000
11714,17,Jits_Phase_5,27,9999,9999,9999,1444292660
11714,17,Jits_Phase_5,28,9999,9999,9999,1444792424
11714,17,Jits_Phase_5,29,9999,9999,9999,1445292096
11714,17,Jits_Phase_5,30,9999,9999,9999,1445782628
11714,17,Jits_Phase_5,31,9999,9999,9999,1446282308
11714,17,Jits_Phase_5,32,9999,9999,9999,1446783036
11714,17,Jits_Phase_5,33,9999,9999,9999,1447282796
11714,17,Jits_Phase_5,34,9999,9999,9999,1447782520
11714,17,Jits_Phase_5,35,9999,9999,9999,1448282192
11714,17,Jits_Phase_5,36,9999,9999,9999,1448782972
11714,17,Jits_Phase_5,37,9999,9999,9999,1449282644
11714,17,Jits_Phase_5,38,9999,9999,9999,1449782396
11714,17,Jits_Phase_5,39,9999,9999,9999,1450283116
11714,17,Jits_Phase_5,40,9999,9999,9999,1450793056
11714,17,Jits_Phase_5,41,9999,9999,9999,1451292732
11714,17,Jits_Phase_5,42,9999,9999,9999,1451792476
11714,17,Jits_Phase_5,43,9999,9999,9999,1452292148
11714,17,Jits_Phase_5,44,9999,9999,9999,1452792944
11714,17,Jits_Phase_5,45,9999,9999,9999,1453292612
11714,17,Jits_Phase_5,46,9999,9999,9999,1453792360
11714,17,Jits_Phase_5,47,9999,9999,9999,1454293092
11714,17,Jits_Phase_5,48,9999,9999,9999,1454803032
11714,17,Jits_Phase_5,49,9999,9999,9999,1455302716
11714,17,Jits_Phase_5,50,9999,9999,9999,1455802456
11714,17,Jits_Phase_5,51,9999,9999,9999,1456302144
11714,17,Jits_Phase_5,52,9999,9999,9999,1456802940
11714,17,Jits_Phase_5,53,9999,9999,9999,1457302620
11714,17,Jits_Phase_5,54,9999,9999,9999,1457802296
11714,17,Jits_Phase_5,55,9999,9999,9999,1458303036
11714,17,Jits_Phase_5,56,9999,9999,9999,1458802784
11714,17,Jits_Phase_5,57,9999,9999,9999,1459302516
11714,17,Jits_Phase_5,58,9999,9999,9999,1459802188
11714,17,Jits_Phase_5,59,9999,9999,9999,1460302968
11714,17,Jits_Phase_5,60,9999,9999,9999,1460802660
11714,17,Jits_Phase_5,61,9999,9999,9999,1461302328
11714,17,Jits_Phase_5,62,9999,9999,9999,1461803124
11714,17,Jits_Phase_5,63,9999,9999,9999,1462313060
11714,17,Jits_Phase_5,64,9999,9999,9999,1462832216
11714,17,Jits_Phase_5,65,9999,9999,9999,1463332932
11714,17,Jits_Phase_5,66,9999,9999,9999,1463832684
11714,17,Jits_Phase_5,67,9999,9999,9999,1464332344
11714,17,Jits_Phase_5,68,9999,9999,9999,1464832112
11714,17,Jits_Phase_5,69,9999,9999,9999,1465332836
11714,17,Jits_Phase_5,70,9999,9999,9999,1465832576
11714,17,Jits_Phase_5,71,9999,9999,9999,1466332264
11714,17,Jits_Phase_5,72,9999,9999,9999,1466832984
11714,17,Jits_Phase_5,73,9999,9999,9999,1467332660
11714,17,Jits_Phase_5,74,9999,9999,9999,1467832412
11714,17,Jits_Phase_5,75,9999,9999,9999,1468332088
11714,17,Jits_Phase_5,76,9999,9999,9999,1468832888
11714,17,Jits_Phase_5,77,9999,9999,9999,1469332564
11714,17,Jits_Phase_5,78,9999,9999,9999,1469832252
11714,17,Jits_Phase_5,79,9999,9999,9999,1470333048
11714,17,Jits_Phase_5,80,9999,9999,9999,1470832724
11714,17,Jits_Phase_5,81,9999,9999,9999,1471312972
11714,17,Jits_Phase_5,82,9999,9999,9999,1471812720
11714,17,Jits_Phase_5,83,9999,9999,9999,1472312396
11714,17,Jits_Phase_5,84,9999,9999,9999,1472812148
11714,17,Jits_Phase_5,85,9999,9999,9999,1473312864
11714,17,Jits_Phase_5,86,9999,9999,9999,1473812536
11714,17,Jits_Phase_5,87,9999,9999,9999,1474312300
11714,17,Jits_Phase_5,88,9999,9999,9999,1474813016
11714,17,Jits_Phase_5,89,9999,9999,9999,1475312696
11714,17,Jits_Phase_5,90,9999,9999,9999,1475812444
11714,17,Jits_Phase_5,91,9999,9999,9999,1476312188
11714,17,Jits_Phase_5,92,9999,9999,9999,1476812912
11714,17,Jits_Phase_5,93,9999,9999,9999,1477312588
11714,17,Jits_Phase_5,94,9999,9999,9999,1477812332
11714,17,Jits_Phase_5,95,9999,9999,9999,1478313056
11714,17,Jits_Phase_5,96,9999,9999,9999,1478812732
11714,17,Jits_Phase_5,97,9999,9999,9999,1479262264
11714,17,Jits_Phase_5,98,9999,9999,9999,1479763060
11714,17,Jits_Phase_5,99,9999,9999,9999,1480262748
11714,17,Jits_Phase_5,100,9999,9999,9999,1480762496
11714,17,Jits_Phase_5,101,9999,9999,9999,1481262168
11714,17,Jits_Phase_5,102,9999,9999,9999,1481762880
11714,17,Jits_Phase_5,103,9999,9999,9999,1482262648
11714,17,Jits_Phase_5,104,9999,9999,9999,1482762336
11714,17,Jits_Phase_5,105,9999,9999,9999,1483263040
11714,17,Jits_Phase_5,106,9999,9999,9999,1483762808
11714,17,Jits_Phase_5,107,9999,9999,9999,1484262520
11714,17,Jits_Phase_5,108,9999,9999,9999,1484762200
11714,17,Jits_Phase_5,109,9999,9999,9999,1485262972
11714,17,Jits_Phase_5,110,9999,9999,9999,1485762660
11714,17,Jits_Phase_5,111,9999,9999,9999,1486262372
11714,17,Jits_Phase_5,112,9999,9999,9999,1486763068
11714,17,Jits_Phase_5,113,9999,9999,9999,1487273040
11714,17,Jits_Phase_5,114,9999,9999,9999,1487822904
11714,17,Jits_Phase_5,115,9999,9999,9999,1488322648
11714,17,Jits_Phase_5,116,9999,9999,9999,1488822396
11714,17,Jits_Phase_5,117,9999,9999,9999,1489323116
11714,17,Jits_Phase_5,118,9999,9999,9999,1489833052
11714,17,Jits_Phase_5,119,9999,9999,9999,1490332796
11714,17,Jits_Phase_5,120,9999,9999,9999,1490832480
11714,17,Jits_Phase_5,121,9999,9999,9999,1491332152
11714,17,Jits_Phase_5,122,9999,9999,9999,1491832888
11714,17,Jits_Phase_5,123,9999,9999,9999,1492332652
11714,17,Jits_Phase_5,124,9999,9999,9999,1492832372
11714,17,Jits_Phase_5,125,9999,9999,9999,1493333088
11714,17,Jits_Phase_5,126,9999,9999,9999,1493832780
11714,17,Jits_Phase_5,127,9999,9999,9999,1494332520
11714,17,Jits_Phase_5,128,9999,9999,9999,1494832200
11714,17,Jits_Phase_5,129,9999,9999,9999,1495332936
11714,17,Jits_Phase_5,130,9999,9999,9999,1495832700
11714,17,Jits_Phase_5,131,9999,9999,9999,1496432708
11714,17,Jits_Phase_5,132,9999,9999,9999,1496932424
11714,17,Jits_Phase_5,133,9999,9999,9999,1497432176
11714,17,Jits_Phase_5,134,9999,9999,9999,1497932888
11714,17,Jits_Phase_5,135,9999,9999,9999,1498432632
11714,17,Jits_Phase_5,136,9999,9999,9999,1498932324
11714,17,Jits_Phase_5,137,9999,9999,9999,1499433040
11714,17,Jits_Phase_5,138,9999,9999,9999,1499932792
11714,17,Jits_Phase_5,139,9999,9999,9999,1500432484
11714,17,Jits_Phase_5,140,9999,9999,9999,1500932164
11714,17,Jits_Phase_5,141,9999,9999,9999,1501432904
11714,17,Jits_Phase_5,142,9999,9999,9999,1501932668
11714,17,Jits_Phase_5,143,9999,9999,9999,1502432360
11714,17,Jits_Phase_5,144,9999,9999,9999,1502933092
11714,17,Jits_Phase_5,145,9999,9999,9999,1503432768
11714,17,Jits_Phase_5,146,9999,9999,9999,1503932528
11714,17,Jits_Phase_5,147,9999,9999,9999,1504432204
11714,17,Jits_Phase_5,148,9999,9999,9999,1504932920
11714,17,Jits_Phase_5,149,9999,9999,9999,1505432672
11714,17,Jits_Phase_5,150,9999,9999,9999,1505833060
11714,17,Jits_Phase_5,151,9999,9999,9999,1506332728
11714,17,Jits_Phase_5,152,9999,9999,9999,1506832496
11714,17,Jits_Phase_5,153,9999,9999,9999,1507332172
11714,17,Jits_Phase_5,154,9999,9999,9999,1507832896
11714,17,Jits_Phase_5,155,9999,9999,9999,1508332656
11714,17,Jits_Phase_5,156,9999,9999,9999,1508832340
11714,17,Jits_Phase_5,157,9999,9999,9999,1509333068
11714,17,Jits_Phase_5,158,9999,9999,9999,1509832824
11714,17,Jits_Phase_5,159,9999,9999,9999,1510332500
11714,17,Jits_Phase_5,160,9999,9999,9999,1510832188
11714,17,Jits_Phase_5,161,9999,9999,9999,1511332984
11714,17,Jits_Phase_5,162,9999,9999,9999,1511832656
11714,17,Jits_Phase_5,163,9999,9999,9999,1512332348
11714,17,Jits_Phase_5,164,9999,9999,9999,1512832096
11714,17,Jits_Phase_5,165,9999,9999,9999,1513332820
11714,17,Jits_Phase_5,166,9999,9999,9999,1513832524
11714,17,Jits_Phase_5,167,9999,9999,9999,1514332268
11714,17,Jits_Phase_5,168,9999,9999,9999,1514832992
11714,17,Jits_Phase_5,169,9999,9999,9999,1515332668
11715,15,Jits_Phase_8,0,5,56,103,1524256284
11715,15,Jits_Phase_8,1,5,63,98,1524259312
11715,15,Jits_Phase_8,2,5,80,127,1524262428
11715,15,Jits_Phase_8,0,5,56,103,1525055776
11715,15,Jits_Phase_8,1,5,63,98,1525058872
11715,15,Jits_Phase_8,2,5,80,127,1525062072
11715,15,Jits_Phase_8,0,5,80,127,1525796172
11715,15,Jits_Phase_8,1,5,63,98,1525886332
11715,15,Jits_Phase_8,2,5,56,103,1525895480
11715,15,Jits_Phase_8,3,1,48,40,1525928784
11715,15,Jits_Phase_8,0,5,56,103,1526616320
11715,15,Jits_Phase_8,1,1,48,34,1526623176
11715,15,Jits_Phase_8,2,5,63,98,1526625836
11715,15,Jits_Phase_8,3,5,80,127,1526715916
11715,15,Jits_Phase_8,0,1,48,36,1527367584
11715,15,Jits_Phase_8,1,5,63,98,1527385444
11715,15,Jits_Phase_8,2,5,80,127,1527416268
11715,15,Jits_Phase_8,3,5,56,103,1527445868
11715,15,Jits_Phase_8,0,5,56,103,1528186204
11715,15,Jits_Phase_8,1,1,48,32,1528202428
11715,15,Jits_Phase_8,2,5,80,127,1528285620
11715,15,Jits_Phase_8,3,5,63,98,1528335880
11715,15,Jits_Phase_8,0,5,56,103,1528985904
11715,15,Jits_Phase_8,1,5,80,127,1529036180
11715,15,Jits_Phase_8,2,1,48,32,1529057728
11715,15,Jits_Phase_8,3,5,63,98,1529076036
11715,15,Jits_Phase_8,0,5,80,127,1529816536
11715,15,Jits_Phase_8,1,5,63,98,1529846064
11715,15,Jits_Phase_8,2,1,48,30,1529879148
11715,15,Jits_Phase_8,3,5,56,103,1529915812
11715,15,Jits_Phase_8,0,5,63,98,1530645908
11715,15,Jits_Phase_8,1,5,56,103,1530675732
11715,15,Jits_Phase_8,2,1,48,31,1530731460
11715,15,Jits_Phase_8,3,5,80,127,1530735916
11715,15,Jits_Phase_8,0,5,56,103,1531386180
11715,15,Jits_Phase_8,1,5,80,127,1531389172
11715,15,Jits_Phase_8,2,5,63,98,1531506004
11715,15,Jits_Phase_8,0,1,48,24,1532225284
11715,15,Jits_Phase_8,1,5,56,103,1532265868
11715,15,Jits_Phase_8,2,5,80,127,1532305880
11715,15,Jits_Phase_8,3,5,63,98,1532316004
11715,15,Jits_Phase_8,0,1,48,29,1533001584
11715,15,Jits_Phase_8,1,5,56,103,1533025968
11715,15,Jits_Phase_8,2,5,80,127,1533046084
11715,15,Jits_Phase_8,3,5,63,98,1533125932
11715,15,Jits_Phase_8,0,5,80,127,1533816176
11715,15,Jits_Phase_8,1,1,48,27,1533834588
11715,15,Jits_Phase_8,2,5,56,103,1533915668
11715,15,Jits_Phase_8,3,5,63,98,1533925788
11715,15,Jits_Phase_8,0,5,63,98,1534586208
11715,15,Jits_Phase_8,1,5,80,127,1534645852
11715,15,Jits_Phase_8,2,5,56,103,1534655824
11715,15,Jits_Phase_8,3,1,48,31,1534671976
11715,15,Jits_Phase_8,0,5,56,103,1535385892
11715,15,Jits_Phase_8,1,1,48,24,1535441448
11715,15,Jits_Phase_8,2,5,63,98,1535455864
11715,15,Jits_Phase_8,3,5,80,127,1535459076
11715,15,Jits_Phase_8,0,5,63,98,1536216520
11715,15,Jits_Phase_8,1,1,48,20,1536231924
11715,15,Jits_Phase_8,2,5,56,103,1536265816
11715,15,Jits_Phase_8,3,5,80,127,1536268884
11715,15,Jits_Phase_8,0,5,56,103,1536976256
11715,15,Jits_Phase_8,1,5,80,127,1536979176
11715,15,Jits_Phase_8,2,1,48,30,1537057440
11715,15,Jits_Phase_8,3,5,63,98,1537066456
11715,15,Jits_Phase_8,0,5,63,98,1537815872
11715,15,Jits_Phase_8,1,1,48,27,1537862064
11715,15,Jits_Phase_8,2,5,56,103,1537905952
11715,15,Jits_Phase_8,3,5,80,127,1537935700
11715,15,Jits_Phase_8,0,5,56,103,1538605596
11715,15,Jits_Phase_8,1,1,48,28,1538698940
11715,15,Jits_Phase_8,2,5,63,98,1538705712
11715,15,Jits_Phase_8,3,5,80,127,1538735464
11715,15,Jits_Phase_8,0,5,63,98,1539425752
11715,15,Jits_Phase_8,1,5,56,103,1539435896
11715,15,Jits_Phase_8,2,1,48,32,1539491748
11715,15,Jits_Phase_8,3,5,80,127,1539526020
11715,15,Jits_Phase_8,0,5,63,98,1540245764
11715,15,Jits_Phase_8,1,5,56,103,1540325708
11715,15,Jits_Phase_8,2,5,80,127,1540328624
11715,15,Jits_Phase_8,3,1,48,36,1540436700
11715,15,Jits_Phase_8,0,5,80,127,1541005732
11715,15,Jits_Phase_8,1,5,63,98,1541026044
11715,15,Jits_Phase_8,2,5,56,103,1541085684
11715,15,Jits_Phase_8,3,1,48,24,1541131944
11715,15,Jits_Phase_8,0,1,48,26,1541772496
11715,15,Jits_Phase_8,1,5,56,103,1541846404
11715,15,Jits_Phase_8,2,5,63,98,1541865888
11715,15,Jits_Phase_8,3,5,80,127,1541870132
11715,15,Jits_Phase_8,0,1,48,31,1542551644
11715,15,Jits_Phase_8,1,5,63,98,1542585764
11715,15,Jits_Phase_8,2,5,80,127,1542665696
11715,15,Jits_Phase_8,3,5,56,103,1542675816
11715,15,Jits_Phase_8,0,1,48,35,1543339120
11715,15,Jits_Phase_8,1,5,63,98,1543405900
11715,15,Jits_Phase_8,2,5,56,103,1543426656
11715,15,Jits_Phase_8,3,5,80,127,1543475648
11715,15,Jits_Phase_8,0,1,48,28,1544118944
11715,15,Jits_Phase_8,1,5,80,127,1544205584
11715,15,Jits_Phase_8,2,5,63,98,1544245512
11715,15,Jits_Phase_8,3,5,56,103,1544266044
11715,15,Jits_Phase_8,0,1,48,35,1544927020
11715,15,Jits_Phase_8,1,5,56,103,1545046456
11715,15,Jits_Phase_8,2,5,63,98,1545055532
11715,15,Jits_Phase_8,3,5,80,127,1545076012
11715,15,Jits_Phase_8,0,1,48,29,1545747160
11715,15,Jits_Phase_8,1,5,56,103,1545775508
11715,15,Jits_Phase_8,2,5,63,98,1545865652
11715,15,Jits_Phase_8,3,5,80,127,1545926040
11715,15,Jits_Phase_8,0,1,48,30,1546577856
11715,15,Jits_Phase_8,1,5,80,127,1546605932
11715,15,Jits_Phase_8,2,5,56,103,1546616352
11715,15,Jits_Phase_8,3,5,63,98,1546685792
11715,15,Jits_Phase_8,0,1,48,31,1547436336
11715,15,Jits_Phase_8,1,5,63,98,1547437676
11715,15,Jits_Phase_8,2,5,80,127,1547525344
11715,15,Jits_Phase_8,3,5,56,103,1547535676
11715,15,Jits_Phase_8,0,5,63,98,1548165456
11715,15,Jits_Phase_8,1,5,80,127,1548215732
11715,15,Jits_Phase_8,2,5,56,103,1548275972
11715,15,Jits_Phase_8,3,1,48,29,1548307256
11715,15,Jits_Phase_8,0,1,48,30,1548968840
11715,15,Jits_Phase_8,1,5,56,103,1548985656
11715,15,Jits_Phase_8,2,5,80,127,1549035860
11715,15,Jits_Phase_8,3,5,63,98,1549056392
11715,15,Jits_Phase_8,0,5,56,103,1549755748
11715,15,Jits_Phase_8,1,1,48,29,1549784348
11715,15,Jits_Phase_8,2,5,80,127,1549816428
11715,15,Jits_Phase_8,3,5,63,98,1549885720
11715,15,Jits_Phase_8,0,5,56,103,1550555520
11715,15,Jits_Phase_8,1,5,80,127,1550586244
11715,15,Jits_Phase_8,2,1,48,31,1550599924
11715,15,Jits_Phase_8,3,5,63,98,1550616060
11715,15,Jits_Phase_8,0,1,48,30,1551336000
11715,15,Jits_Phase_8,1,5,56,103,1551396484
11715,15,Jits_Phase_8,2,5,80,127,1551415600
11715,15,Jits_Phase_8,3,5,63,98,1551476220
11715,15,Jits_Phase_8,0,1,48,30,1552188200
11715,15,Jits_Phase_8,1,5,80,127,1552275764
11715,15,Jits_Phase_8,2,5,56,103,1552286168
11715,15,Jits_Phase_8,3,5,63,98,1552296292
11715,15,Jits_Phase_8,0,5,56,103,1553035676
11715,15,Jits_Phase_8,1,1,48,33,1553048384
11715,15,Jits_Phase_8,2,5,80,127,1553075536
11715,15,Jits_Phase_8,3,5,63,98,1553106328
11715,15,Jits_Phase_8,0,5,56,103,1553805564
11715,15,Jits_Phase_8,1,5,63,98,1553836360
11715,15,Jits_Phase_8,2,1,48,31,1553861728
11715,15,Jits_Phase_8,3,5,80,127,1553876288
11715,15,Jits_Phase_8,0,5,80,127,1554556336
11715,15,Jits_Phase_8,1,5,63,98,1554605416
11715,15,Jits_Phase_8,2,5,56,103,1554626096
11715,15,Jits_Phase_8,3,1,48,32,1554635364
11715,15,Jits_Phase_8,0,5,56,103,1555385624
11715,15,Jits_Phase_8,1,1,48,29,1555389264
11715,15,Jits_Phase_8,2,5,80,127,1555456496
11715,15,Jits_Phase_8,3,5,63,98,1555515748
11715,15,Jits_Phase_8,0,5,80,127,1556185400
11715,15,Jits_Phase_8,1,1,48,30,1556255648
11715,15,Jits_Phase_8,2,5,63,98,1556275528
11715,15,Jits_Phase_8,3,5,56,103,1556296208
11715,15,Jits_Phase_8,0,5,63,98,1557005628
11715,15,Jits_Phase_8,1,5,56,103,1557026384
11715,15,Jits_Phase_8,2,5,80,127,1557066024
11715,15,Jits_Phase_8,3,1,48,27,1557091912
11715,15,Jits_Phase_8,0,5,80,127,1557765376
11715,15,Jits_Phase_8,1,5,63,98,1557786060
11715,15,Jits_Phase_8,2,1,48,30,1557787024
11715,15,Jits_Phase_8,3,5,56,103,1557865944
11715,15,Jits_Phase_8,0,5,63,98,1558556152
11715,15,Jits_Phase_8,1,1,48,32,1558622720
11715,15,Jits_Phase_8,2,5,56,103,1558665560
11715,15,Jits_Phase_8,3,5,80,127,1558668628
11715,15,Jits_Phase_8,0,5,63,98,1559376204
11715,15,Jits_Phase_8,1,5,56,103,1559385428
11715,15,Jits_Phase_8,2,5,80,127,1559388492
11715,15,Jits_Phase_8,3,1,48,24,1559446032
11715,15,Jits_Phase_8,0,5,56,103,1560155492
11715,15,Jits_Phase_8,1,1,48,20,1560172188
11715,15,Jits_Phase_8,2,5,80,127,1560276272
11715,15,Jits_Phase_8,3,5,63,98,1560316284
11715,15,Jits_Phase_8,0,5,56,103,1560975672
11715,15,Jits_Phase_8,1,1,48,27,1561001340
11715,15,Jits_Phase_8,2,5,80,127,1561055536
11715,15,Jits_Phase_8,3,5,63,98,1561076072
11715,15,Jits_Phase_8,0,5,56,103,1561775376
11715,15,Jits_Phase_8,1,1,48,29,1561804348
11715,15,Jits_Phase_8,2,5,63,98,1561886100
11715,15,Jits_Phase_8,3,5,80,127,1561889468
11715,15,Jits_Phase_8,0,5,56,103,1562616048
11715,15,Jits_Phase_8,1,5,80,127,1562645796
11715,15,Jits_Phase_8,2,1,48,24,1562654240
11715,15,Jits_Phase_8,3,5,63,98,1562666248
11715,15,Jits_Phase_8,0,5,63,98,1563405556
11715,15,Jits_Phase_8,1,5,56,103,1563416124
11715,15,Jits_Phase_8,2,5,80,127,1563426096
11715,15,Jits_Phase_8,3,1,48,21,1563432280
11715,15,Jits_Phase_8,0,5,80,127,1564196164
11715,15,Jits_Phase_8,1,1,48,29,1564220108
11715,15,Jits_Phase_8,2,5,56,103,1564246432
11715,15,Jits_Phase_8,3,5,63,98,1564286324
11715,15,Jits_Phase_8,0,5,80,127,1565016464
11715,15,Jits_Phase_8,1,1,48,25,1565030692
11715,15,Jits_Phase_8,2,5,63,98,1565036116
11715,15,Jits_Phase_8,3,5,56,103,1565086240
11715,15,Jits_Phase_8,0,5,80,127,1565826524
11715,15,Jits_Phase_8,1,1,48,31,1565853532
11715,15,Jits_Phase_8,2,5,56,103,1565856268
11715,15,Jits_Phase_8,3,5,63,98,1565925872
11715,15,Jits_Phase_8,0,5,56,103,1566676348
11715,15,Jits_Phase_8,1,1,48,29,1566679468
11715,15,Jits_Phase_8,2,5,80,127,1566685496
11715,15,Jits_Phase_8,3,5,63,98,1566725432
11715,15,Jits_Phase_8,0,5,56,103,1567386148
11715,15,Jits_Phase_8,1,5,63,98,1567405488
11715,15,Jits_Phase_8,2,5,80,127,1567476136
11715,15,Jits_Phase_8,3,1,48,30,1567491392
11715,15,Jits_Phase_8,0,5,63,98,1568206148
11715,15,Jits_Phase_8,1,5,80,127,1568265492
11715,15,Jits_Phase_8,2,5,56,103,1568286248
11715,15,Jits_Phase_8,3,1,48,22,1568294544
11715,15,Jits_Phase_8,0,5,80,127,1568995564
11715,15,Jits_Phase_8,1,1,48,22,1569025760
11715,15,Jits_Phase_8,2,5,56,103,1569027180
11715,15,Jits_Phase_8,3,5,63,98,1569056252
11715,15,Jits_Phase_8,0,1,48,23,1569754920
11715,15,Jits_Phase_8,1,5,56,103,1569795404
11715,15,Jits_Phase_8,2,5,63,98,1569856148
11715,15,Jits_Phase_8,3,5,80,127,1569916264
11715,15,Jits_Phase_8,0,1,48,35,1570568236
11715,15,Jits_Phase_8,1,5,80,127,1570615760
11715,15,Jits_Phase_8,2,5,56,103,1570635996
11715,15,Jits_Phase_8,3,5,63,98,1570705908
11715,15,Jits_Phase_8,0,1,48,35,1571403124
11715,15,Jits_Phase_8,1,5,80,127,1571416568
11715,15,Jits_Phase_8,2,5,63,98,1571435932
11715,15,Jits_Phase_8,3,5,56,103,1571465680
11715,15,Jits_Phase_8,0,1,48,33,1572205188
11715,15,Jits_Phase_8,1,5,80,127,1572206836
11715,15,Jits_Phase_8,2,5,63,98,1572226396
11715,15,Jits_Phase_8,3,5,56,103,1572286036
11715,15,Jits_Phase_8,0,5,80,127,1573005776
11715,15,Jits_Phase_8,1,1,48,32,1573037516
11715,15,Jits_Phase_8,2,5,56,103,1573106096
11715,15,Jits_Phase_8,3,5,63,98,1573136276
11715,15,Jits_Phase_8,0,5,63,98,1573796188
11715,15,Jits_Phase_8,1,5,80,127,1573846316
11715,15,Jits_Phase_8,2,5,56,103,1573866028
11715,15,Jits_Phase_8,3,1,48,26,1573895224
11715,15,Jits_Phase_8,0,5,80,127,1574635876
11715,15,Jits_Phase_8,1,1,48,27,1574652252
11715,15,Jits_Phase_8,2,5,56,103,1574665620
11715,15,Jits_Phase_8,3,5,63,98,1574668908
11715,15,Jits_Phase_8,0,1,48,34,1575420764
11715,15,Jits_Phase_8,1,5,63,98,1575486056
11715,15,Jits_Phase_8,2,5,56,103,1575526080
11715,15,Jits_Phase_8,3,5,80,127,1575546240
11715,15,Jits_Phase_8,0,1,48,27,1576220232
11715,15,Jits_Phase_8,1,5,80,127,1576255852
11715,15,Jits_Phase_8,2,5,63,98,1576335808
11715,15,Jits_Phase_8,3,5,56,103,1576375672
11715,15,Jits_Phase_8,0,5,63,98,1577086288
11715,15,Jits_Phase_8,1,1,48,28,1577100940
11715,15,Jits_Phase_8,2,5,80,127,1577166152
11715,15,Jits_Phase_8,3,5,56,103,1577176348
11715,15,Jits_Phase_8,0,1,48,27,1577864524
11715,15,Jits_Phase_8,1,5,56,103,1577926128
11715,15,Jits_Phase_8,2,5,63,98,1577936248
11715,15,Jits_Phase_8,3,5,80,127,1577976320
11715,15,Jits_Phase_8,0,5,56,103,1578645800
11715,15,Jits_Phase_8,1,5,80,127,1578648868
11715,15,Jits_Phase_8,2,1,48,28,1578682776
11715,15,Jits_Phase_8,3,5,63,98,1578786252
11715,15,Jits_Phase_8,0,1,48,29,1579429124
11715,15,Jits_Phase_8,1,5,56,103,1579436416
11715,15,Jits_Phase_8,2,5,63,98,1579525492
11715,15,Jits_Phase_8,3,5,80,127,1579596140
11715,15,Jits_Phase_8,0,1,48,25,1580219888
11715,15,Jits_Phase_8,1,5,63,98,1580315952
11715,15,Jits_Phase_8,2,5,80,127,1580319092
11715,15,Jits_Phase_8,3,5,56,103,1580376488
11715,15,Jits_Phase_8,0,1,48,28,1581000160
11715,15,Jits_Phase_8,1,5,80,127,1581155864
11715,15,Jits_Phase_8,2,5,56,103,1581176100
11715,15,Jits_Phase_8,3,5,63,98,1581186296
11715,15,Jits_Phase_8,0,5,56,103,1581866244
11715,15,Jits_Phase_8,1,1,48,24,1581868912
11715,15,Jits_Phase_8,2,5,63,98,1581875836
11715,15,Jits_Phase_8,3,5,80,127,1581946212
11715,15,Jits_Phase_8,0,1,48,25,1582645004
11715,15,Jits_Phase_8,1,5,80,127,1582666084
11715,15,Jits_Phase_8,2,5,56,103,1582716236
11715,15,Jits_Phase_8,3,5,63,98,1582765300
11715,15,Jits_Phase_8,0,1,48,29,1583478424
11715,15,Jits_Phase_8,1,5,56,103,1583545660
11715,15,Jits_Phase_8,2,5,63,98,1583555928
11715,15,Jits_Phase_8,3,5,80,127,1583595852
11715,15,Jits_Phase_8,0,5,56,103,1584286020
11715,15,Jits_Phase_8,1,1,48,25,1584322996
11715,15,Jits_Phase_8,2,5,63,98,1584326028
11715,15,Jits_Phase_8,3,5,80,127,1584376152
11715,15,Jits_Phase_8,0,5,80,127,1585045864
11715,15,Jits_Phase_8,1,5,56,103,1585095988
11715,15,Jits_Phase_8,2,1,48,23,1585114344
11715,15,Jits_Phase_8,3,5,63,98,1585115988
11715,15,Jits_Phase_8,0,5,80,127,1585855748
11715,15,Jits_Phase_8,1,5,63,98,1585916212
11715,15,Jits_Phase_8,2,1,48,24,1585921872
11715,15,Jits_Phase_8,3,5,56,103,1585996220
11715,15,Jits_Phase_8,0,5,80,127,1586636116
11715,15,Jits_Phase_8,1,5,56,103,1586675984
11715,15,Jits_Phase_8,2,1,48,25,1586680148
11715,15,Jits_Phase_8,3,5,63,98,1586695760
11715,15,Jits_Phase_8,0,1,48,27,1587440720
11715,15,Jits_Phase_8,1,5,56,103,1587486000
11715,15,Jits_Phase_8,2,5,80,127,1587496272
11715,15,Jits_Phase_8,3,5,63,98,1587536284
11715,15,Jits_Phase_8,0,1,48,33,1588241072
11715,15,Jits_Phase_8,1,5,56,103,1588355520
11715,15,Jits_Phase_8,2,5,63,98,1588396808
11715,15,Jits_Phase_8,3,5,80,127,1588399868
11715,15,Jits_Phase_8,0,5,63,98,1589026036
11715,15,Jits_Phase_8,1,5,80,127,1589066124
11715,15,Jits_Phase_8,2,1,48,27,1589107104
11715,15,Jits_Phase_8,3,5,56,103,1589135748
11715,15,Jits_Phase_8,0,5,63,98,1589796128
11715,15,Jits_Phase_8,1,5,56,103,1589876172
11715,15,Jits_Phase_8,2,1,48,32,1589909632
11715,15,Jits_Phase_8,3,5,80,127,1589935652
11715,15,Jits_Phase_8,0,5,80,127,1590606144
11715,15,Jits_Phase_8,1,1,48,26,1590645552
11715,15,Jits_Phase_8,2,5,63,98,1590656812
11715,15,Jits_Phase_8,3,5,56,103,1590686040
11715,15,Jits_Phase_8,0,5,56,103,1591395724
11715,15,Jits_Phase_8,1,5,63,98,1591445804
11715,15,Jits_Phase_8,2,5,80,127,1591456000
11715,15,Jits_Phase_8,3,1,48,27,1591483304
11715,15,Jits_Phase_8,0,1,48,26,1592183708
11715,15,Jits_Phase_8,1,5,56,103,1592205624
11715,15,Jits_Phase_8,2,5,63,98,1592316420
11715,15,Jits_Phase_8,3,5,80,127,1592335756
11715,15,Jits_Phase_8,0,5,63,98,1593005612
11715,15,Jits_Phase_8,1,5,80,127,1593055588
11715,15,Jits_Phase_8,2,1,48,24,1593059608
11715,15,Jits_Phase_8,3,5,56,103,1593145788
11715,15,Jits_Phase_8,0,5,63,98,1593796076
11715,15,Jits_Phase_8,1,5,80,127,1593825752
11715,15,Jits_Phase_8,2,1,48,24,1593891124
11715,15,Jits_Phase_8,3,5,56,103,1593915728
11715,15,Jits_Phase_8,0,5,63,98,1594595684
11715,15,Jits_Phase_8,1,5,56,103,1594606028
11715,15,Jits_Phase_8,2,1,48,26,1594659868
11715,15,Jits_Phase_8,3,5,80,127,1594706416
11715,15,Jits_Phase_8,0,1,48,19,1595392400
11715,15,Jits_Phase_8,1,5,63,98,1595495760
11715,15,Jits_Phase_8,2,5,80,127,1595525588
11715,15,Jits_Phase_8,3,5,56,103,1595556160
11715,15,Jits_Phase_8,0,1,48,14,1596302100
11715,15,Jits_Phase_8,1,5,80,127,1596316068
11715,15,Jits_Phase_8,2,5,63,98,1596326488
11715,15,Jits_Phase_8,3,5,56,103,1596356088
11715,15,Jits_Phase_8,0,5,80,127,1597016396
11715,15,Jits_Phase_8,1,5,63,98,1597035832
11715,15,Jits_Phase_8,2,5,56,103,1597086180
11715,15,Jits_Phase_8,3,1,48,21,1597101584
11715,15,Jits_Phase_8,0,5,63,98,1597845860
11715,15,Jits_Phase_8,1,1,48,27,1597857972
11715,15,Jits_Phase_8,2,5,80,127,1597906392
11715,15,Jits_Phase_8,3,5,56,103,1597925732
11715,15,Jits_Phase_8,0,5,63,98,1598605612
11715,15,Jits_Phase_8,1,5,56,103,1598655816
11715,15,Jits_Phase_8,2,1,48,18,1598663124
11715,15,Jits_Phase_8,3,5,80,127,1598666376
11715,15,Jits_Phase_8,0,5,56,103,1599436076
11715,15,Jits_Phase_8,1,5,80,127,1599446496
11715,15,Jits_Phase_8,2,5,63,98,1599545840
11715,15,Jits_Phase_8,3,1,48,21,1599623980
11715,15,Jits_Phase_8,0,5,80,127,1600195992
11715,15,Jits_Phase_8,1,5,63,98,1600206336
11715,15,Jits_Phase_8,2,1,48,17,1600328124
11715,15,Jits_Phase_8,3,5,56,103,1600355572
11715,15,Jits_Phase_8,0,5,63,98,1601005800
11715,15,Jits_Phase_8,1,5,80,127,1601045888
11715,15,Jits_Phase_8,2,1,48,21,1601081444
11715,15,Jits_Phase_8,3,5,56,103,1601125624
11715,15,Jits_Phase_8,0,5,56,103,1601755432
11715,15,Jits_Phase_8,1,5,80,127,1601855904
11715,15,Jits_Phase_8,2,1,48,15,1601861644
11715,15,Jits_Phase_8,3,5,63,98,1601876284
11715,15,Jits_Phase_8,0,1,48,20,1602565372
11715,15,Jits_Phase_8,1,5,80,127,1602575732
11715,15,Jits_Phase_8,2,5,56,103,1602585928
11715,15,Jits_Phase_8,3,5,63,98,1602676364
11715,15,Jits_Phase_8,0,5,56,103,1603375496
11715,15,Jits_Phase_8,1,5,63,98,1603396032
11715,15,Jits_Phase_8,2,1,48,18,1603429360
11715,15,Jits_Phase_8,3,5,80,127,1603475840
11715,15,Jits_Phase_8,0,5,63,98,1604126492
11715,15,Jits_Phase_8,1,5,56,103,1604216276
11715,15,Jits_Phase_8,2,5,80,127,1604219268
11715,15,Jits_Phase_8,3,1,48,19,1604318432
11715,15,Jits_Phase_8,0,5,56,103,1604955684
11715,15,Jits_Phase_8,1,5,80,127,1605015876
11715,15,Jits_Phase_8,2,5,63,98,1605026296
11715,15,Jits_Phase_8,0,5,80,127,1605805344
11715,15,Jits_Phase_8,1,5,56,103,1605815616
11715,15,Jits_Phase_8,2,5,63,98,1605818832
11715,15,Jits_Phase_8,3,1,48,20,1605825404
11715,15,Jits_Phase_8,0,5,56,103,1606566372
11715,15,Jits_Phase_8,1,5,80,127,1606575520
11715,15,Jits_Phase_8,2,5,63,98,1606595832
11715,15,Jits_Phase_8,0,5,63,98,1607336212
11715,15,Jits_Phase_8,1,1,48,20,1607385340
11715,15,Jits_Phase_8,2,5,80,127,1607395624
11715,15,Jits_Phase_8,3,5,56,103,1607445976
11715,15,Jits_Phase_8,0,1,48,20,1608061308
11715,15,Jits_Phase_8,1,5,63,98,1608216116
11715,15,Jits_Phase_8,2,5,56,103,1608226160
11715,15,Jits_Phase_8,3,5,80,127,1608276360
11715,15,Jits_Phase_8,0,5,63,98,1608916400
11715,15,Jits_Phase_8,1,1,48,20,1608925448
11715,15,Jits_Phase_8,2,5,80,127,1608935808
11715,15,Jits_Phase_8,3,5,56,103,1608946448
11715,15,Jits_Phase_8,0,1,48,21,1609662388
11715,15,Jits_Phase_8,1,5,63,98,1609716288
11715,15,Jits_Phase_8,2,5,80,127,1609719432
11715,15,Jits_Phase_8,3,5,56,103,1609757184
11715,15,Jits_Phase_8,0,1,48,19,1610503948
11715,15,Jits_Phase_8,1,5,63,98,1610585336
11715,15,Jits_Phase_8,2,5,80,127,1610616292
11715,15,Jits_Phase_8,3,5,56,103,1610626412
11715,15,Jits_Phase_8,0,1,48,17,1611270732
11715,15,Jits_Phase_8,1,5,56,103,1611336020
11715,15,Jits_Phase_8,2,5,80,127,1611365724
11715,15,Jits_Phase_8,3,5,63,98,1611395308
11715,15,Jits_Phase_8,0,1,48,17,1612130196
11715,15,Jits_Phase_8,1,5,63,98,1612236108
11715,15,Jits_Phase_8,2,5,56,103,1612276192
11715,15,Jits_Phase_8,3,5,80,127,1612279112
11715,15,Jits_Phase_8,0,5,80,127,1612935640
11715,15,Jits_Phase_8,1,1,48,20,1612970596
11715,15,Jits_Phase_8,2,5,56,103,1613016404
11715,15,Jits_Phase_8,3,5,63,98,1613065540
11715,15,Jits_Phase_8,0,5,80,127,1613716008
11715,15,Jits_Phase_8,1,5,56,103,1613736168
11715,15,Jits_Phase_8,2,5,63,98,1613826448
11715,15,Jits_Phase_8,3,1,48,19,1613856536
11715,15,Jits_Phase_8,0,5,80,127,1614555484
11715,15,Jits_Phase_8,1,1,48,17,1614594144
11715,15,Jits_Phase_8,2,5,63,98,1614595640
11715,15,Jits_Phase_8,3,5,56,103,1614636404
11715,15,Jits_Phase_8,0,1,48,20,1615361368
11715,15,Jits_Phase_8,1,5,63,98,1615365448
11715,15,Jits_Phase_8,2,5,80,127,1615425984
11715,15,Jits_Phase_8,3,5,56,103,1615455512
11715,15,Jits_Phase_8,0,5,56,103,1616206256
11715,15,Jits_Phase_8,1,1,48,19,1616216796
11715,15,Jits_Phase_8,2,5,80,127,1616235948
11715,15,Jits_Phase_8,3,5,63,98,1616326212
11715,15,Jits_Phase_8,0,5,56,103,1617016160
11715,15,Jits_Phase_8,1,1,48,26,1617098392
11715,15,Jits_Phase_8,2,5,80,127,1617125696
11715,15,Jits_Phase_8,3,5,63,98,1617155444
11715,15,Jits_Phase_8,0,5,56,103,1617866064
11715,15,Jits_Phase_8,1,1,48,20,1617902436
11715,15,Jits_Phase_8,2,5,63,98,1617925548
11715,15,Jits_Phase_8,3,5,80,127,1617956120
11715,15,Jits_Phase_8,0,5,56,103,1618636092
11715,15,Jits_Phase_8,1,5,63,98,1618706000
11715,15,Jits_Phase_8,2,5,80,127,1618726232
11715,15,Jits_Phase_8,3,1,48,17,1618784796
11715,15,Jits_Phase_8,0,5,80,127,1619406272
11715,15,Jits_Phase_8,1,5,63,98,1619425536
11715,15,Jits_Phase_8,2,5,56,103,1619475960
11715,15,Jits_Phase_8,3,1,48,17,1619510316
11715,15,Jits_Phase_8,0,5,63,98,1620226344
11715,15,Jits_Phase_8,1,5,80,127,1620235492
11715,15,Jits_Phase_8,2,5,56,103,1620285916
11715,15,Jits_Phase_8,0,5,63,98,1621026280
11715,15,Jits_Phase_8,1,5,80,127,1621095988
11715,15,Jits_Phase_8,2,1,48,16,1621111316
11715,15,Jits_Phase_8,3,5,56,103,1621116140
11715,15,Jits_Phase_8,0,5,63,98,1621855560
11715,15,Jits_Phase_8,1,5,80,127,1621858924
11715,15,Jits_Phase_8,2,5,56,103,1621926284
11715,15,Jits_Phase_8,3,1,48,25,1621938472
11715,15,Jits_Phase_8,0,5,80,127,1622606136
11715,15,Jits_Phase_8,1,5,56,103,1622625624
11715,15,Jits_Phase_8,2,5,63,98,1622636140
11715,15,Jits_Phase_8,3,1,48,28,1622746168
11715,15,Jits_Phase_8,0,5,56,103,1623426452
11715,15,Jits_Phase_8,1,5,63,98,1623515540
11715,15,Jits_Phase_8,2,5,80,127,1623518976
11715,15,Jits_Phase_8,3,1,48,16,1623534096
11715,15,Jits_Phase_8,0,5,80,127,1624195352
11715,15,Jits_Phase_8,1,5,56,103,1624205624
11715,15,Jits_Phase_8,2,5,63,98,1624226156
11715,15,Jits_Phase_8,3,1,48,21,1624264720
11715,15,Jits_Phase_8,0,1,48,20,1624987816
11715,15,Jits_Phase_8,1,5,63,98,1624996232
11715,15,Jits_Phase_8,2,5,80,127,1625055724
11715,15,Jits_Phase_8,3,5,56,103,1625065920
11715,15,Jits_Phase_8,0,1,48,22,1625804576
11715,15,Jits_Phase_8,1,5,63,98,1625865512
11715,15,Jits_Phase_8,2,5,80,127,1625896312
11715,15,Jits_Phase_8,3,5,56,103,1625936380
11715,15,Jits_Phase_8,0,5,56,103,1626656068
11715,15,Jits_Phase_8,1,5,80,127,1626666484
11715,15,Jits_Phase_8,2,1,48,23,1626694788
11715,15,Jits_Phase_8,3,5,63,98,1626706268
11715,15,Jits_Phase_8,0,5,80,127,1627415976
11715,15,Jits_Phase_8,1,1,48,21,1627461800
11715,15,Jits_Phase_8,2,5,56,103,1627495792
11715,15,Jits_Phase_8,3,5,63,98,1627505916
11715,15,Jits_Phase_8,0,5,80,127,1628265752
11715,15,Jits_Phase_8,1,1,48,21,1628296964
11715,15,Jits_Phase_8,2,5,56,103,1628345912
11715,15,Jits_Phase_8,3,5,63,98,1628356036
11715,15,Jits_Phase_8,0,5,80,127,1629105612
11715,15,Jits_Phase_8,1,5,56,103,1629156040
11715,15,Jits_Phase_8,2,1,48,22,1629163424
11715,15,Jits_Phase_8,3,5,63,98,1629206084
11715,15,Jits_Phase_8,0,1,48,22,1630029784
11715,15,Jits_Phase_8,1,5,56,103,1630045624
11715,15,Jits_Phase_8,2,5,63,98,1630048840
11715,15,Jits_Phase_8,3,5,80,127,1630095896
11715,15,Jits_Phase_8,0,1,48,24,1630858084
11715,15,Jits_Phase_8,1,5,56,103,1630865756
11715,15,Jits_Phase_8,2,5,63,98,1630895360
11715,15,Jits_Phase_8,3,5,80,127,1630905928
11715,15,Jits_Phase_8,0,5,63,98,1631576568
11715,15,Jits_Phase_8,1,5,56,103,1631646128
11715,15,Jits_Phase_8,2,1,48,24,1631690744
11715,15,Jits_Phase_8,3,5,80,127,1631696100
11715,15,Jits_Phase_8,0,5,63,98,1632405804
11715,15,Jits_Phase_8,1,5,56,103,1632416220
11715,15,Jits_Phase_8,2,5,80,127,1632419212
11715,15,Jits_Phase_8,3,1,48,18,1632506916
11715,15,Jits_Phase_8,0,5,80,127,1633155796
11715,15,Jits_Phase_8,1,1,48,22,1633176076
11715,15,Jits_Phase_8,2,5,56,103,1633215884
11715,15,Jits_Phase_8,3,5,63,98,1633305924
11715,15,Jits_Phase_8,0,5,80,127,1633956168
11715,15,Jits_Phase_8,1,1,48,26,1634004100
11715,15,Jits_Phase_8,2,5,56,103,1634055736
11715,15,Jits_Phase_8,3,5,63,98,1634095672
11715,15,Jits_Phase_8,0,5,56,103,1634806064
11715,15,Jits_Phase_8,1,5,63,98,1634825700
11715,15,Jits_Phase_8,2,1,48,31,1634858188
11715,15,Jits_Phase_8,3,5,80,127,1634865632
11715,15,Jits_Phase_8,0,5,63,98,1635576092
11715,15,Jits_Phase_8,1,5,56,103,1635595804
11715,15,Jits_Phase_8,2,1,48,27,1635631432
11715,15,Jits_Phase_8,3,5,80,127,1635695840
11715,15,Jits_Phase_8,0,5,63,98,1636365736
11715,15,Jits_Phase_8,1,1,48,22,1636421368
11715,15,Jits_Phase_8,2,5,80,127,1636476192
11715,15,Jits_Phase_8,3,5,56,103,1636505940
11715,15,Jits_Phase_8,0,5,56,103,1637185952
11715,15,Jits_Phase_8,1,5,63,98,1637215628
11715,15,Jits_Phase_8,2,1,48,23,1637218996
11715,15,Jits_Phase_8,3,5,80,127,1637265844
11715,15,Jits_Phase_8,0,5,63,98,1637955904
11715,15,Jits_Phase_8,1,1,48,27,1637958800
11715,15,Jits_Phase_8,2,5,56,103,1637985720
11715,15,Jits_Phase_8,3,5,80,127,1638035772
11715,15,Jits_Phase_8,0,1,48,26,1638742184
11715,15,Jits_Phase_8,1,5,56,103,1638786516
11715,15,Jits_Phase_8,2,5,63,98,1638805856
11715,15,Jits_Phase_8,3,5,80,127,1638885784
11715,15,Jits_Phase_8,0,1,48,23,1639553292
11715,15,Jits_Phase_8,1,5,63,98,1639555704
11715,15,Jits_Phase_8,2,5,56,103,1639615872
11715,15,Jits_Phase_8,3,5,80,127,1639645696
11715,15,Jits_Phase_8,0,1,48,21,1640385928
11715,15,Jits_Phase_8,1,5,56,103,1640396064
11715,15,Jits_Phase_8,2,5,80,127,1640455556
11715,15,Jits_Phase_8,3,5,63,98,1640495632
11715,15,Jits_Phase_8,0,5,63,98,1641176576
11715,15,Jits_Phase_8,1,5,56,103,1641235920
11715,15,Jits_Phase_8,2,1,48,19,1641245412
11715,15,Jits_Phase_8,3,5,80,127,1641305740
11715,15,Jits_Phase_8,0,1,48,22,1642021844
11715,15,Jits_Phase_8,1,5,56,103,1642055968
11715,15,Jits_Phase_8,2,5,63,98,1642066236
11715,15,Jits_Phase_8,3,5,80,127,1642069824
11715,15,Jits_Phase_8,0,5,63,98,1642796460
11715,15,Jits_Phase_8,1,5,56,103,1642855828
11715,15,Jits_Phase_8,2,5,80,127,1642858820
11715,15,Jits_Phase_8,3,1,48,24,1642862016
11715,15,Jits_Phase_8,0,5,63,98,1643575532
11715,15,Jits_Phase_8,1,5,80,127,1643606480
11715,15,Jits_Phase_8,2,1,48,24,1643620184
11715,15,Jits_Phase_8,3,5,56,103,1643625908
11715,15,Jits_Phase_8,0,5,56,103,1644305756
11715,15,Jits_Phase_8,1,5,63,98,1644355960
11715,15,Jits_Phase_8,2,1,48,22,1644382448
11715,15,Jits_Phase_8,3,5,80,127,1644435696
11715,15,Jits_Phase_8,0,5,80,127,1645006116
11715,15,Jits_Phase_8,1,5,63,98,1645045984
11715,15,Jits_Phase_8,2,5,56,103,1645065544
11715,15,Jits_Phase_8,3,1,48,24,1645071276
11715,15,Jits_Phase_8,0,1,48,19,1645723052
11715,15,Jits_Phase_8,1,5,56,103,1645875688
11715,15,Jits_Phase_8,2,5,80,127,1645885736
11715,15,Jits_Phase_8,3,5,63,98,1645906492
11715,15,Jits_Phase_8,0,1,48,24,1646635356
11715,15,Jits_Phase_8,1,5,56,103,1646655832
11715,15,Jits_Phase_8,2,5,63,98,1646705984
11715,15,Jits_Phase_8,3,5,80,127,1646735792
11715,15,Jits_Phase_8,0,5,56,103,1647405404
11715,15,Jits_Phase_8,1,5,63,98,1647415600
11715,15,Jits_Phase_8,2,5,80,127,1647465824
11715,15,Jits_Phase_8,3,1,48,24,1647480176
11715,15,Jits_Phase_8,0,1,48,22,1648172980
11715,15,Jits_Phase_8,1,5,56,103,1648196016
11715,15,Jits_Phase_8,2,5,80,127,1648199084
11715,15,Jits_Phase_8,3,5,63,98,1648355752
11715,15,Jits_Phase_8,0,1,48,21,1649001676
11715,15,Jits_Phase_8,1,5,63,98,1649016612
11715,15,Jits_Phase_8,2,5,56,103,1649085772
11715,15,Jits_Phase_8,3,5,80,127,1649125620
11715,15,Jits_Phase_8,0,1,48,21,1649781276
11715,15,Jits_Phase_8,1,5,63,98,1649855928
11715,15,Jits_Phase_8,2,5,56,103,1649945972
11715,15,Jits_Phase_8,3,5,80,127,1649949112
11715,15,Jits_Phase_8,0,5,56,103,1650636356
11715,15,Jits_Phase_8,1,1,48,23,1650713340
11715,15,Jits_Phase_8,2,5,63,98,1650726412
11715,15,Jits_Phase_8,3,5,80,127,1650735412
11715,15,Jits_Phase_8,0,5,56,103,1651406464
11715,15,Jits_Phase_8,1,1,48,19,1651448848
11715,15,Jits_Phase_8,2,5,63,98,1651456588
11715,15,Jits_Phase_8,3,5,80,127,1651485964
11715,15,Jits_Phase_8,0,1,48,21,1652283288
11715,15,Jits_Phase_8,1,5,63,98,1652285948
11715,15,Jits_Phase_8,2,5,80,127,1652296068
11715,15,Jits_Phase_8,3,5,56,103,1652355436
11715,15,Jits_Phase_8,0,5,63,98,1653005624
11715,15,Jits_Phase_8,1,1,48,21,1653034372
11715,15,Jits_Phase_8,2,5,80,127,1653066156
11715,15,Jits_Phase_8,3,5,56,103,1653105896
11715,15,Jits_Phase_8,0,1,48,20,1653764368
11715,15,Jits_Phase_8,1,5,56,103,1653905704
11715,15,Jits_Phase_8,2,5,80,127,1653926384
11715,15,Jits_Phase_8,3,5,63,98,1653945576
11715,15,Jits_Phase_8,0,5,63,98,1654625696
11715,15,Jits_Phase_8,1,1,48,20,1654643416
11715,15,Jits_Phase_8,2,5,56,103,1654646444
11715,15,Jits_Phase_8,3,5,80,127,1654686160
11715,15,Jits_Phase_8,0,1,48,21,1655433124
11715,15,Jits_Phase_8,1,5,63,98,1655435708
11715,15,Jits_Phase_8,2,5,80,127,1655466432
11715,15,Jits_Phase_8,3,5,56,103,1655485920
11715,15,Jits_Phase_8,0,1,48,26,1656196704
11715,15,Jits_Phase_8,1,5,80,127,1656205648
11715,15,Jits_Phase_8,2,5,56,103,1656255996
11715,15,Jits_Phase_8,3,5,63,98,1656316372
11715,15,Jits_Phase_8,0,1,48,36,1656994148
11715,15,Jits_Phase_8,1,5,63,98,1656996188
11715,15,Jits_Phase_8,2,5,56,103,1657116124
11715,15,Jits_Phase_8,3,5,80,127,1657145572
11715,15,Jits_Phase_8,0,5,80,127,1657836036
11715,15,Jits_Phase_8,1,5,63,98,1657856344
11715,15,Jits_Phase_8,2,1,48,19,1657893320
11715,15,Jits_Phase_8,3,5,56,103,1657926016
11715,15,Jits_Phase_8,0,5,63,98,1658656336
11715,15,Jits_Phase_8,1,5,56,103,1658666384
11715,15,Jits_Phase_8,2,5,80,127,1658746200
11715,15,Jits_Phase_8,3,1,48,22,1658758980
11715,15,Jits_Phase_8,0,5,56,103,1659516208
11715,15,Jits_Phase_8,1,1,48,28,1659522616
11715,15,Jits_Phase_8,2,5,80,127,1659546248
11715,15,Jits_Phase_8,3,5,63,98,1659556148
11715,15,Jits_Phase_8,0,9999,9999,9999,1524653124
11715,15,Jits_Phase_8,1,9999,9999,9999,1525453888
11715,15,Jits_Phase_8,2,9999,9999,9999,1526253676
11715,15,Jits_Phase_8,3,9999,9999,9999,1527053372
11715,15,Jits_Phase_8,4,9999,9999,9999,1527853140
11715,15,Jits_Phase_8,5,9999,9999,9999,1528653948
11715,15,Jits_Phase_8,6,9999,9999,9999,1529453668
11715,15,Jits_Phase_8,7,9999,9999,9999,1530253368
11715,15,Jits_Phase_8,8,9999,9999,9999,1531053144
11715,15,Jits_Phase_8,9,9999,9999,9999,1531853884
11715,15,Jits_Phase_8,10,9999,9999,9999,1532653680
11715,15,Jits_Phase_8,11,9999,9999,9999,1533453368
11715,15,Jits_Phase_8,12,9999,9999,9999,1534253132
11715,15,Jits_Phase_8,13,9999,9999,9999,1535053948
11715,15,Jits_Phase_8,14,9999,9999,9999,1535853648
11715,15,Jits_Phase_8,15,9999,9999,9999,1536653412
11715,15,Jits_Phase_8,16,9999,9999,9999,1537453152
11715,15,Jits_Phase_8,17,9999,9999,9999,1538253900
11715,15,Jits_Phase_8,18,9999,9999,9999,1539053664
11715,15,Jits_Phase_8,19,9999,9999,9999,1539853436
11715,15,Jits_Phase_8,20,9999,9999,9999,1540653116
11715,15,Jits_Phase_8,21,9999,9999,9999,1541453920
11715,15,Jits_Phase_8,22,9999,9999,9999,1542253632
11715,15,Jits_Phase_8,23,9999,9999,9999,1543053388
11715,15,Jits_Phase_8,24,9999,9999,9999,1543853148
11715,15,Jits_Phase_8,25,9999,9999,9999,1544653952
11715,15,Jits_Phase_8,26,9999,9999,9999,1545453636
11715,15,Jits_Phase_8,27,9999,9999,9999,1546253396
11715,15,Jits_Phase_8,28,9999,9999,9999,1547053152
11715,15,Jits_Phase_8,29,9999,9999,9999,1547853892
11715,15,Jits_Phase_8,30,9999,9999,9999,1548633196
11715,15,Jits_Phase_8,31,9999,9999,9999,1549433948
11715,15,Jits_Phase_8,32,9999,9999,9999,1550233704
11715,15,Jits_Phase_8,33,9999,9999,9999,1551033472
11715,15,Jits_Phase_8,34,9999,9999,9999,1551833168
11715,15,Jits_Phase_8,35,9999,9999,9999,1552633912
11715,15,Jits_Phase_8,36,9999,9999,9999,1553433672
11715,15,Jits_Phase_8,37,9999,9999,9999,1554233448
11715,15,Jits_Phase_8,38,9999,9999,9999,1555033140
11715,15,Jits_Phase_8,39,9999,9999,9999,1555833916
11715,15,Jits_Phase_8,40,9999,9999,9999,1556633688
11715,15,Jits_Phase_8,41,9999,9999,9999,1557433464
11715,15,Jits_Phase_8,42,9999,9999,9999,1558233140
11715,15,Jits_Phase_8,43,9999,9999,9999,1559033952
11715,15,Jits_Phase_8,44,9999,9999,9999,1559833692
11715,15,Jits_Phase_8,45,9999,9999,9999,1560633452
11715,15,Jits_Phase_8,46,9999,9999,9999,1561433156
11715,15,Jits_Phase_8,47,9999,9999,9999,1562233920
11715,15,Jits_Phase_8,48,9999,9999,9999,1563053172
11715,15,Jits_Phase_8,49,9999,9999,9999,1563853908
11715,15,Jits_Phase_8,50,9999,9999,9999,1564653668
11715,15,Jits_Phase_8,51,9999,9999,9999,1565453364
11715,15,Jits_Phase_8,52,9999,9999,9999,1566253140
11715,15,Jits_Phase_8,53,9999,9999,9999,1567053892
11715,15,Jits_Phase_8,54,9999,9999,9999,1567853688
11715,15,Jits_Phase_8,55,9999,9999,9999,1568653388
11715,15,Jits_Phase_8,56,9999,9999,9999,1569453140
11715,15,Jits_Phase_8,57,9999,9999,9999,1570253884
11715,15,Jits_Phase_8,58,9999,9999,9999,1571053644
11715,15,Jits_Phase_8,59,9999,9999,9999,1571853400
11715,15,Jits_Phase_8,60,9999,9999,9999,1572653160
11715,15,Jits_Phase_8,61,9999,9999,9999,1573453896
11715,15,Jits_Phase_8,62,9999,9999,9999,1574253692
11715,15,Jits_Phase_8,63,9999,9999,9999,1575053440
11715,15,Jits_Phase_8,64,9999,9999,9999,1575894124
11715,15,Jits_Phase_8,65,9999,9999,9999,1576704076
11715,15,Jits_Phase_8,66,9999,9999,9999,1577514104
11715,15,Jits_Phase_8,67,9999,9999,9999,1578313792
11715,15,Jits_Phase_8,68,9999,9999,9999,1579113560
11715,15,Jits_Phase_8,69,9999,9999,9999,1579913336
11715,15,Jits_Phase_8,70,9999,9999,9999,1580714060
11715,15,Jits_Phase_8,71,9999,9999,9999,1581513800
11715,15,Jits_Phase_8,72,9999,9999,9999,1582313556
11715,15,Jits_Phase_8,73,9999,9999,9999,1583113328
11715,15,Jits_Phase_8,74,9999,9999,9999,1583914068
11715,15,Jits_Phase_8,75,9999,9999,9999,1584713832
11715,15,Jits_Phase_8,76,9999,9999,9999,1585513552
11715,15,Jits_Phase_8,77,9999,9999,9999,1586313328
11715,15,Jits_Phase_8,78,9999,9999,9999,1587114068
11715,15,Jits_Phase_8,79,9999,9999,9999,1587913844
11715,15,Jits_Phase_8,80,9999,9999,9999,1588713528
11715,15,Jits_Phase_8,81,9999,9999,9999,1589473352
11715,15,Jits_Phase_8,82,9999,9999,9999,1590273112
11715,15,Jits_Phase_8,83,9999,9999,9999,1591073908
11715,15,Jits_Phase_8,84,9999,9999,9999,1591873600
11715,15,Jits_Phase_8,85,9999,9999,9999,1592673376
11715,15,Jits_Phase_8,86,9999,9999,9999,1593473080
11715,15,Jits_Phase_8,87,9999,9999,9999,1594273880
11715,15,Jits_Phase_8,88,9999,9999,9999,1595073636
11715,15,Jits_Phase_8,89,9999,9999,9999,1595873404
11715,15,Jits_Phase_8,90,9999,9999,9999,1596673096
11715,15,Jits_Phase_8,91,9999,9999,9999,1597473896
11715,15,Jits_Phase_8,92,9999,9999,9999,1598273600
11715,15,Jits_Phase_8,93,9999,9999,9999,1599073348
11715,15,Jits_Phase_8,94,9999,9999,9999,1599873128
11715,15,Jits_Phase_8,95,9999,9999,9999,1600673872
11715,15,Jits_Phase_8,96,9999,9999,9999,1601473640
11715,15,Jits_Phase_8,97,9999,9999,9999,1602193464
11715,15,Jits_Phase_8,98,9999,9999,9999,1602993236
11715,15,Jits_Phase_8,99,9999,9999,9999,1603794044
11715,15,Jits_Phase_8,100,9999,9999,9999,1604593728
11715,15,Jits_Phase_8,101,9999,9999,9999,1605393508
11715,15,Jits_Phase_8,102,9999,9999,9999,1606193216
11715,15,Jits_Phase_8,103,9999,9999,9999,1606993980
11715,15,Jits_Phase_8,104,9999,9999,9999,1607793720
11715,15,Jits_Phase_8,105,9999,9999,9999,1608593480
11715,15,Jits_Phase_8,106,9999,9999,9999,1609393228
11715,15,Jits_Phase_8,107,9999,9999,9999,1610194012
11715,15,Jits_Phase_8,108,9999,9999,9999,1610993772
11715,15,Jits_Phase_8,109,9999,9999,9999,1611793528
11715,15,Jits_Phase_8,110,9999,9999,9999,1612593212
11715,15,Jits_Phase_8,111,9999,9999,9999,1613394020
11715,15,Jits_Phase_8,112,9999,9999,9999,1614193736
11715,15,Jits_Phase_8,113,9999,9999,9999,1614993512
11715,15,Jits_Phase_8,114,9999,9999,9999,1615873144
11715,15,Jits_Phase_8,115,9999,9999,9999,1616673872
11715,15,Jits_Phase_8,116,9999,9999,9999,1617473644
11715,15,Jits_Phase_8,117,9999,9999,9999,1618273352
11715,15,Jits_Phase_8,118,9999,9999,9999,1619073148
11715,15,Jits_Phase_8,119,9999,9999,9999,1619873884
11715,15,Jits_Phase_8,120,9999,9999,9999,1620673600
11715,15,Jits_Phase_8,121,9999,9999,9999,1621473372
11715,15,Jits_Phase_8,122,9999,9999,9999,1622273100
11715,15,Jits_Phase_8,123,9999,9999,9999,1623073896
11715,15,Jits_Phase_8,124,9999,9999,9999,1623873660
11715,15,Jits_Phase_8,125,9999,9999,9999,1624673352
11715,15,Jits_Phase_8,126,9999,9999,9999,1625473144
11715,15,Jits_Phase_8,127,9999,9999,9999,1626273880
11715,15,Jits_Phase_8,128,9999,9999,9999,1627073636
11715,15,Jits_Phase_8,129,9999,9999,9999,1627873336
11715,15,Jits_Phase_8,130,9999,9999,9999,1628673116
11715,15,Jits_Phase_8,131,9999,9999,9999,1629633608
11715,15,Jits_Phase_8,132,9999,9999,9999,1630433352
11715,15,Jits_Phase_8,133,9999,9999,9999,1631233120
11715,15,Jits_Phase_8,134,9999,9999,9999,1632033852
11715,15,Jits_Phase_8,135,9999,9999,9999,1632833600
11715,15,Jits_Phase_8,136,9999,9999,9999,1633633352
11715,15,Jits_Phase_8,137,9999,9999,9999,1634433080
11715,15,Jits_Phase_8,138,9999,9999,9999,1635233900
11715,15,Jits_Phase_8,139,9999,9999,9999,1636033596
11715,15,Jits_Phase_8,140,9999,9999,9999,1636833356
11715,15,Jits_Phase_8,141,9999,9999,9999,1637633116
11715,15,Jits_Phase_8,142,9999,9999,9999,1638433904
11715,15,Jits_Phase_8,143,9999,9999,9999,1639233592
11715,15,Jits_Phase_8,144,9999,9999,9999,1640033344
11715,15,Jits_Phase_8,145,9999,9999,9999,1640833128
11715,15,Jits_Phase_8,146,9999,9999,9999,1641633856
11715,15,Jits_Phase_8,147,9999,9999,9999,1642433608
11715,15,Jits_Phase_8,148,9999,9999,9999,1643233356
11715,15,Jits_Phase_8,149,9999,9999,9999,1644033108
11715,15,Jits_Phase_8,150,9999,9999,9999,1644673144
11715,15,Jits_Phase_8,151,9999,9999,9999,1645473880
11715,15,Jits_Phase_8,152,9999,9999,9999,1646273652
11715,15,Jits_Phase_8,153,9999,9999,9999,1647073340
11715,15,Jits_Phase_8,154,9999,9999,9999,1647873088
11715,15,Jits_Phase_8,155,9999,9999,9999,1648673896
11715,15,Jits_Phase_8,156,9999,9999,9999,1649473652
11715,15,Jits_Phase_8,157,9999,9999,9999,1650273356
11715,15,Jits_Phase_8,158,9999,9999,9999,1651073116
11715,15,Jits_Phase_8,159,9999,9999,9999,1651873860
11715,15,Jits_Phase_8,160,9999,9999,9999,1652673636
11715,15,Jits_Phase_8,161,9999,9999,9999,1653473392
11715,15,Jits_Phase_8,162,9999,9999,9999,1654273080
11715,15,Jits_Phase_8,163,9999,9999,9999,1655073880
11715,15,Jits_Phase_8,164,9999,9999,9999,1655873640
11715,15,Jits_Phase_8,165,9999,9999,9999,1656673344
11715,15,Jits_Phase_8,166,9999,9999,9999,1657473104
11715,15,Jits_Phase_8,167,9999,9999,9999,1658273912
11715,15,Jits_Phase_8,168,9999,9999,9999,1659073612
11715,15,Jits_Phase_8,169,9999,9999,9999,1659873376
11716,19,Jits_Linear_5,0,5,56,103,1668984100
11716,19,Jits_Linear_5,1,5,63,98,1668987192
11716,19,Jits_Linear_5,2,5,80,127,1668990316
11716,19,Jits_Linear_5,0,5,56,103,1669464380
11716,19,Jits_Linear_5,1,5,63,98,1669467408
11716,19,Jits_Linear_5,2,5,80,127,1669470828
11716,19,Jits_Linear_5,0,5,56,103,1669943640
11716,19,Jits_Linear_5,1,5,80,127,1669953984
11716,19,Jits_Linear_5,2,5,63,98,1669974372
11716,19,Jits_Linear_5,0,5,63,98,1670374072
11716,19,Jits_Linear_5,1,5,80,127,1670403528
11716,19,Jits_Linear_5,2,5,56,103,1670413948
11716,19,Jits_Linear_5,0,1,48,44,1670833904
11716,19,Jits_Linear_5,1,5,80,127,1670914324
11716,19,Jits_Linear_5,2,5,56,103,1670923624
11716,19,Jits_Linear_5,3,5,63,98,1670954328
11716,19,Jits_Linear_5,0,1,48,41,1671309984
11716,19,Jits_Linear_5,1,5,63,98,1671393860
11716,19,Jits_Linear_5,2,5,56,103,1671424348
11716,19,Jits_Linear_5,3,5,80,127,1671433572
11716,19,Jits_Linear_5,0,1,48,35,1671787128
11716,19,Jits_Linear_5,1,5,56,103,1671833988
11716,19,Jits_Linear_5,2,5,63,98,1671884328
11716,19,Jits_Linear_5,3,5,80,127,1671903516
11716,19,Jits_Linear_5,0,1,48,37,1672265292
11716,19,Jits_Linear_5,1,5,80,127,1672323484
11716,19,Jits_Linear_5,2,5,63,98,1672373524
11716,19,Jits_Linear_5,3,5,56,103,1672413464
11716,19,Jits_Linear_5,0,1,48,39,1672800184
11716,19,Jits_Linear_5,1,5,56,103,1672814080
11716,19,Jits_Linear_5,2,5,63,98,1672843608
11716,19,Jits_Linear_5,3,5,80,127,1672914248
11716,19,Jits_Linear_5,0,1,48,37,1673255720
11716,19,Jits_Linear_5,1,5,56,103,1673304452
11716,19,Jits_Linear_5,2,5,80,127,1673363960
11716,19,Jits_Linear_5,3,5,63,98,1673393636
11716,19,Jits_Linear_5,0,1,48,36,1673754512
11716,19,Jits_Linear_5,1,5,56,103,1673804216
11716,19,Jits_Linear_5,2,5,63,98,1673814336
11716,19,Jits_Linear_5,3,5,80,127,1673854360
11716,19,Jits_Linear_5,0,1,48,32,1674260260
11716,19,Jits_Linear_5,1,5,63,98,1674293564
11716,19,Jits_Linear_5,2,5,80,127,1674373376
11716,19,Jits_Linear_5,3,5,56,103,1674384016
11716,19,Jits_Linear_5,0,1,48,30,1674775692
11716,19,Jits_Linear_5,1,5,63,98,1674843452
11716,19,Jits_Linear_5,2,5,56,103,1674883476
11716,19,Jits_Linear_5,3,5,80,127,1674886392
11716,19,Jits_Linear_5,0,1,48,31,1675292916
11716,19,Jits_Linear_5,1,5,56,103,1675304248
11716,19,Jits_Linear_5,2,5,63,98,1675313400
11716,19,Jits_Linear_5,3,5,80,127,1675353412
11716,19,Jits_Linear_5,0,1,48,31,1675779104
11716,19,Jits_Linear_5,1,5,56,103,1675793744
11716,19,Jits_Linear_5,2,5,63,98,1675796884
11716,19,Jits_Linear_5,3,5,80,127,1675814204
11716,19,Jits_Linear_5,0,1,48,29,1676258892
11716,19,Jits_Linear_5,1,5,80,127,1676314072
11716,19,Jits_Linear_5,2,5,56,103,1676324192
11716,19,Jits_Linear_5,3,5,63,98,1676394108
11716,19,Jits_Linear_5,0,1,48,31,1676766828
11716,19,Jits_Linear_5,1,5,63,98,1676813760
11716,19,Jits_Linear_5,2,5,56,103,1676834220
11716,19,Jits_Linear_5,3,5,80,127,1676914176
11716,19,Jits_Linear_5,0,1,48,31,1677258796
11716,19,Jits_Linear_5,1,5,56,103,1677333976
11716,19,Jits_Linear_5,2,5,80,127,1677373904
11716,19,Jits_Linear_5,3,5,63,98,1677384024
11716,19,Jits_Linear_5,0,1,48,30,1677777216
11716,19,Jits_Linear_5,1,5,80,127,1677833516
11716,19,Jits_Linear_5,2,5,63,98,1677864240
11716,19,Jits_Linear_5,3,5,56,103,1677904168
11716,19,Jits_Linear_5,0,1,48,33,1678304332
11716,19,Jits_Linear_5,1,5,56,103,1678363996
11716,19,Jits_Linear_5,2,5,63,98,1678393968
11716,19,Jits_Linear_5,3,5,80,127,1678444108
11716,19,Jits_Linear_5,0,1,48,32,1678821312
11716,19,Jits_Linear_5,1,5,80,127,1678873876
11716,19,Jits_Linear_5,2,5,56,103,1678913892
11716,19,Jits_Linear_5,3,5,63,98,1678923996
11716,19,Jits_Linear_5,0,1,48,24,1679324536
11716,19,Jits_Linear_5,1,5,80,127,1679373784
11716,19,Jits_Linear_5,2,5,63,98,1679413728
11716,19,Jits_Linear_5,3,5,56,103,1679474128
11716,19,Jits_Linear_5,0,1,48,25,1679814628
11716,19,Jits_Linear_5,1,5,56,103,1679893852
11716,19,Jits_Linear_5,2,5,80,127,1679904048
11716,19,Jits_Linear_5,3,5,63,98,1679983928
11716,19,Jits_Linear_5,0,1,48,32,1680331676
11716,19,Jits_Linear_5,1,5,80,127,1680414060
11716,19,Jits_Linear_5,2,5,63,98,1680473540
11716,19,Jits_Linear_5,3,5,56,103,1680504140
11716,19,Jits_Linear_5,0,1,48,31,1680883524
11716,19,Jits_Linear_5,1,5,56,103,1680934124
11716,19,Jits_Linear_5,2,5,80,127,1680993632
11716,19,Jits_Linear_5,3,5,63,98,1681033716
11716,19,Jits_Linear_5,0,1,48,30,1681411756
11716,19,Jits_Linear_5,1,5,56,103,1681513832
11716,19,Jits_Linear_5,2,5,63,98,1681524104
11716,19,Jits_Linear_5,3,5,80,127,1681527392
11716,19,Jits_Linear_5,0,1,48,25,1681933976
11716,19,Jits_Linear_5,1,5,80,127,1681994092
11716,19,Jits_Linear_5,2,5,63,98,1682084164
11716,19,Jits_Linear_5,3,5,56,103,1682093760
11716,19,Jits_Linear_5,0,1,48,27,1682480256
11716,19,Jits_Linear_5,1,5,56,103,1682523728
11716,19,Jits_Linear_5,2,5,63,98,1682526904
11716,19,Jits_Linear_5,3,5,80,127,1682529972
11716,19,Jits_Linear_5,0,1,48,27,1682970248
11716,19,Jits_Linear_5,1,5,80,127,1683074584
11716,19,Jits_Linear_5,2,5,63,98,1683123668
11716,19,Jits_Linear_5,3,5,56,103,1683154316
11716,19,Jits_Linear_5,0,1,48,27,1683551616
11716,19,Jits_Linear_5,1,5,56,103,1683584300
11716,19,Jits_Linear_5,2,5,80,127,1683593824
11716,19,Jits_Linear_5,3,5,63,98,1683664168
11716,19,Jits_Linear_5,0,1,48,30,1684054492
11716,19,Jits_Linear_5,1,5,56,103,1684123996
11716,19,Jits_Linear_5,2,5,63,98,1684143412
11716,19,Jits_Linear_5,3,5,80,127,1684203860
11716,19,Jits_Linear_5,0,1,48,30,1684584544
11716,19,Jits_Linear_5,1,5,80,127,1684653648
11716,19,Jits_Linear_5,2,5,63,98,1684724068
11716,19,Jits_Linear_5,3,5,56,103,1684743556
11716,19,Jits_Linear_5,0,1,48,23,1685168056
11716,19,Jits_Linear_5,1,5,80,127,1685213796
11716,19,Jits_Linear_5,2,5,56,103,1685223916
11716,19,Jits_Linear_5,3,5,63,98,1685233888
11716,19,Jits_Linear_5,0,1,48,29,1685707376
11716,19,Jits_Linear_5,1,5,80,127,1685744044
11716,19,Jits_Linear_5,2,5,56,103,1685763532
11716,19,Jits_Linear_5,3,5,63,98,1685834024
11716,19,Jits_Linear_5,0,1,48,27,1686265060
11716,19,Jits_Linear_5,1,5,56,103,1686293856
11716,19,Jits_Linear_5,2,5,80,127,1686323684
11716,19,Jits_Linear_5,3,5,63,98,1686344068
11716,19,Jits_Linear_5,0,1,48,29,1686792092
11716,19,Jits_Linear_5,1,5,63,98,1686833700
11716,19,Jits_Linear_5,2,5,56,103,1686893880
11716,19,Jits_Linear_5,3,5,80,127,1686923556
11716,19,Jits_Linear_5,0,1,48,26,1687311396
11716,19,Jits_Linear_5,1,5,63,98,1687374144
11716,19,Jits_Linear_5,2,5,80,127,1687377728
11716,19,Jits_Linear_5,3,5,56,103,1687464284
11716,19,Jits_Linear_5,0,1,48,25,1687882412
11716,19,Jits_Linear_5,1,5,56,103,1687943672
11716,19,Jits_Linear_5,2,5,63,98,1687974320
11716,19,Jits_Linear_5,3,5,80,127,1688014168
11716,19,Jits_Linear_5,0,1,48,31,1688415828
11716,19,Jits_Linear_5,1,5,63,98,1688493404
11716,19,Jits_Linear_5,2,5,56,103,1688534600
11716,19,Jits_Linear_5,3,5,80,127,1688553716
11716,19,Jits_Linear_5,0,1,48,32,1688949296
11716,19,Jits_Linear_5,1,5,63,98,1689053688
11716,19,Jits_Linear_5,2,5,56,103,1689093776
11716,19,Jits_Linear_5,3,5,80,127,1689103824
11716,19,Jits_Linear_5,0,1,48,29,1689499036
11716,19,Jits_Linear_5,1,5,80,127,1689584108
11716,19,Jits_Linear_5,2,5,63,98,1689653780
11716,19,Jits_Linear_5,3,5,56,103,1689674016
11716,19,Jits_Linear_5,0,1,48,29,1690086540
11716,19,Jits_Linear_5,1,5,56,103,1690133992
11716,19,Jits_Linear_5,2,5,80,127,1690154452
11716,19,Jits_Linear_5,3,5,63,98,1690194528
11716,19,Jits_Linear_5,0,1,48,29,1690594532
11716,19,Jits_Linear_5,1,5,63,98,1690704156
11716,19,Jits_Linear_5,2,5,80,127,1690723668
11716,19,Jits_Linear_5,3,5,56,103,1690763684
11716,19,Jits_Linear_5,0,1,48,27,1691192140
11716,19,Jits_Linear_5,1,5,63,98,1691264416
11716,19,Jits_Linear_5,2,5,56,103,1691283680
11716,19,Jits_Linear_5,3,5,80,127,1691294008
11716,19,Jits_Linear_5,0,1,48,25,1691712576
11716,19,Jits_Linear_5,1,5,80,127,1691823572
11716,19,Jits_Linear_5,2,5,56,103,1691843884
11716,19,Jits_Linear_5,3,5,63,98,1691873708
11716,19,Jits_Linear_5,0,1,48,31,1692257300
11716,19,Jits_Linear_5,1,5,56,103,1692463656
11716,19,Jits_Linear_5,2,5,80,127,1692466796
11716,19,Jits_Linear_5,3,5,63,98,1692483892
11716,19,Jits_Linear_5,0,1,48,27,1692879624
11716,19,Jits_Linear_5,1,5,63,98,1692953836
11716,19,Jits_Linear_5,2,5,56,103,1692983796
11716,19,Jits_Linear_5,3,5,80,127,1693044064
11716,19,Jits_Linear_5,0,1,48,24,1693491016
11716,19,Jits_Linear_5,1,5,63,98,1693604352
11716,19,Jits_Linear_5,2,5,56,103,1693613652
11716,19,Jits_Linear_5,3,5,80,127,1693623624
11716,19,Jits_Linear_5,0,1,48,22,1694123004
11716,19,Jits_Linear_5,1,5,56,103,1694124588
11716,19,Jits_Linear_5,2,5,80,127,1694153968
11716,19,Jits_Linear_5,3,5,63,98,1694164536
11716,19,Jits_Linear_5,0,1,48,22,1694707788
11716,19,Jits_Linear_5,1,5,63,98,1694733740
11716,19,Jits_Linear_5,2,5,56,103,1694743788
11716,19,Jits_Linear_5,3,5,80,127,1694764692
11716,19,Jits_Linear_5,0,5,56,103,1695243628
11716,19,Jits_Linear_5,1,1,48,28,1695256036
11716,19,Jits_Linear_5,2,5,63,98,1695304088
11716,19,Jits_Linear_5,3,5,80,127,1695307524
11716,19,Jits_Linear_5,0,1,48,30,1695776388
11716,19,Jits_Linear_5,1,5,80,127,1695843648
11716,19,Jits_Linear_5,2,5,56,103,1695853844
11716,19,Jits_Linear_5,3,5,63,98,1695923664
11716,19,Jits_Linear_5,0,1,48,26,1696367948
11716,19,Jits_Linear_5,1,5,80,127,1696414132
11716,19,Jits_Linear_5,2,5,56,103,1696483652
11716,19,Jits_Linear_5,3,5,63,98,1696494000
11716,19,Jits_Linear_5,0,1,48,29,1697023336
11716,19,Jits_Linear_5,1,5,63,98,1697033624
11716,19,Jits_Linear_5,2,5,56,103,1697043748
11716,19,Jits_Linear_5,3,5,80,127,1697064580
11716,19,Jits_Linear_5,0,5,80,127,1697563936
11716,19,Jits_Linear_5,1,1,48,30,1697575744
11716,19,Jits_Linear_5,2,5,63,98,1697624620
11716,19,Jits_Linear_5,3,5,56,103,1697664512
11716,19,Jits_Linear_5,0,1,48,31,1698187700
11716,19,Jits_Linear_5,1,5,56,103,1698193648
11716,19,Jits_Linear_5,2,5,63,98,1698203920
11716,19,Jits_Linear_5,3,5,80,127,1698243860
11716,19,Jits_Linear_5,0,5,56,103,1698743612
11716,19,Jits_Linear_5,1,5,80,127,1698774484
11716,19,Jits_Linear_5,2,1,48,27,1698776124
11716,19,Jits_Linear_5,3,5,63,98,1698823560
11716,19,Jits_Linear_5,0,1,48,34,1699328012
11716,19,Jits_Linear_5,1,5,56,103,1699373444
11716,19,Jits_Linear_5,2,5,63,98,1699414508
11716,19,Jits_Linear_5,3,5,80,127,1699417720
11716,19,Jits_Linear_5,0,1,48,35,1699909044
11716,19,Jits_Linear_5,1,5,56,103,1699964392
11716,19,Jits_Linear_5,2,5,63,98,1699973620
11716,19,Jits_Linear_5,3,5,80,127,1699993928
11716,19,Jits_Linear_5,0,1,48,31,1700514732
11716,19,Jits_Linear_5,1,5,56,103,1700515944
11716,19,Jits_Linear_5,2,5,80,127,1700518684
11716,19,Jits_Linear_5,3,5,63,98,1700554216
11716,19,Jits_Linear_5,0,1,48,29,1701056396
11716,19,Jits_Linear_5,1,5,63,98,1701143868
11716,19,Jits_Linear_5,2,5,56,103,1701173752
11716,19,Jits_Linear_5,3,5,80,127,1701194360
11716,19,Jits_Linear_5,0,1,48,25,1701706760
11716,19,Jits_Linear_5,1,5,80,127,1701714424
11716,19,Jits_Linear_5,2,5,56,103,1701723500
11716,19,Jits_Linear_5,3,5,63,98,1701733872
11716,19,Jits_Linear_5,0,1,48,31,1702306332
11716,19,Jits_Linear_5,1,5,56,103,1702314376
11716,19,Jits_Linear_5,2,5,80,127,1702354468
11716,19,Jits_Linear_5,3,5,63,98,1702383920
11716,19,Jits_Linear_5,0,1,48,30,1702872408
11716,19,Jits_Linear_5,1,5,63,98,1702923604
11716,19,Jits_Linear_5,2,5,80,127,1702933872
11716,19,Jits_Linear_5,3,5,56,103,1702944368
11716,19,Jits_Linear_5,0,1,48,27,1703496148
11716,19,Jits_Linear_5,1,5,56,103,1703504192
11716,19,Jits_Linear_5,2,5,63,98,1703573900
11716,19,Jits_Linear_5,3,5,80,127,1703584320
11716,19,Jits_Linear_5,0,1,48,28,1704107192
11716,19,Jits_Linear_5,1,5,80,127,1704113588
11716,19,Jits_Linear_5,2,5,56,103,1704123712
11716,19,Jits_Linear_5,3,5,63,98,1704173840
11716,19,Jits_Linear_5,0,1,48,27,1704699768
11716,19,Jits_Linear_5,1,5,80,127,1704734116
11716,19,Jits_Linear_5,2,5,56,103,1704793392
11716,19,Jits_Linear_5,3,5,63,98,1704824344
11716,19,Jits_Linear_5,0,5,56,103,1705344344
11716,19,Jits_Linear_5,1,5,80,127,1705347484
11716,19,Jits_Linear_5,2,1,48,27,1705348824
11716,19,Jits_Linear_5,3,5,63,98,1705384424
11716,19,Jits_Linear_5,0,1,48,26,1705954588
11716,19,Jits_Linear_5,1,5,56,103,1705984428
11716,19,Jits_Linear_5,2,5,63,98,1706014256
11716,19,Jits_Linear_5,3,5,80,127,1706024452
11716,19,Jits_Linear_5,0,1,48,26,1706563888
11716,19,Jits_Linear_5,1,5,63,98,1706603872
11716,19,Jits_Linear_5,2,5,80,127,1706614140
11716,19,Jits_Linear_5,3,5,56,103,1706624336
11716,19,Jits_Linear_5,0,5,80,127,1707164096
11716,19,Jits_Linear_5,1,1,48,26,1707165212
11716,19,Jits_Linear_5,2,5,56,103,1707214368
11716,19,Jits_Linear_5,3,5,63,98,1707217284
11716,19,Jits_Linear_5,0,1,48,31,1707795844
11716,19,Jits_Linear_5,1,5,56,103,1707814300
11716,19,Jits_Linear_5,2,5,80,127,1707833640
11716,19,Jits_Linear_5,3,5,63,98,1707843836
11716,19,Jits_Linear_5,0,1,48,27,1708400056
11716,19,Jits_Linear_5,1,5,63,98,1708414400
11716,19,Jits_Linear_5,2,5,56,103,1708444152
11716,19,Jits_Linear_5,3,5,80,127,1708463344
11716,19,Jits_Linear_5,0,1,48,25,1709009724
11716,19,Jits_Linear_5,1,5,56,103,1709044224
11716,19,Jits_Linear_5,2,5,80,127,1709054344
11716,19,Jits_Linear_5,3,5,63,98,1709124088
11716,19,Jits_Linear_5,0,1,48,28,1709615952
11716,19,Jits_Linear_5,1,5,63,98,1709654344
11716,19,Jits_Linear_5,2,5,80,127,1709694384
11716,19,Jits_Linear_5,3,5,56,103,1709734236
11716,19,Jits_Linear_5,0,1,48,28,1710281860
11716,19,Jits_Linear_5,1,5,56,103,1710294312
11716,19,Jits_Linear_5,2,5,63,98,1710303612
11716,19,Jits_Linear_5,3,5,80,127,1710324072
11716,19,Jits_Linear_5,0,1,48,28,1710855100
11716,19,Jits_Linear_5,1,5,63,98,1710964376
11716,19,Jits_Linear_5,2,5,80,127,1710983420
11716,19,Jits_Linear_5,3,5,56,103,1711004028
11716,19,Jits_Linear_5,0,5,56,103,1711533392
11716,19,Jits_Linear_5,1,1,48,23,1711565280
11716,19,Jits_Linear_5,2,5,80,127,1711614304
11716,19,Jits_Linear_5,3,5,63,98,1711623528
11716,19,Jits_Linear_5,0,1,48,28,1712170680
11716,19,Jits_Linear_5,1,5,80,127,1712204132
11716,19,Jits_Linear_5,2,5,63,98,1712214480
11716,19,Jits_Linear_5,3,5,56,103,1712244104
11716,19,Jits_Linear_5,0,5,63,98,1712794052
11716,19,Jits_Linear_5,1,1,48,24,1712820016
11716,19,Jits_Linear_5,2,5,80,127,1712834060
11716,19,Jits_Linear_5,3,5,56,103,1712894228
11716,19,Jits_Linear_5,0,5,63,98,1713444180
11716,19,Jits_Linear_5,1,1,48,22,1713445740
11716,19,Jits_Linear_5,2,5,56,103,1713494304
11716,19,Jits_Linear_5,3,5,80,127,1713524228
11716,19,Jits_Linear_5,0,5,80,127,1714093436
11716,19,Jits_Linear_5,1,1,48,22,1714098652
11716,19,Jits_Linear_5,2,5,63,98,1714103628
11716,19,Jits_Linear_5,3,5,56,103,1714174432
11716,19,Jits_Linear_5,0,1,48,28,1714737184
11716,19,Jits_Linear_5,1,5,80,127,1714804068
11716,19,Jits_Linear_5,2,5,56,103,1714814264
11716,19,Jits_Linear_5,3,5,63,98,1714817404
11716,19,Jits_Linear_5,0,5,56,103,1715383700
11716,19,Jits_Linear_5,1,5,80,127,1715404236
11716,19,Jits_Linear_5,2,5,63,98,1715414504
11716,19,Jits_Linear_5,3,1,48,24,1715432016
11716,19,Jits_Linear_5,0,1,48,26,1716021604
11716,19,Jits_Linear_5,1,5,63,98,1716034060
11716,19,Jits_Linear_5,2,5,56,103,1716073804
11716,19,Jits_Linear_5,3,5,80,127,1716094412
11716,19,Jits_Linear_5,0,1,48,32,1716641624
11716,19,Jits_Linear_5,1,5,63,98,1716674180
11716,19,Jits_Linear_5,2,5,56,103,1716734332
11716,19,Jits_Linear_5,3,5,80,127,1716737400
11716,19,Jits_Linear_5,0,1,48,27,1717262468
11716,19,Jits_Linear_5,1,5,56,103,1717293356
11716,19,Jits_Linear_5,2,5,80,127,1717313968
11716,19,Jits_Linear_5,3,5,63,98,1717354740
11716,19,Jits_Linear_5,0,1,48,32,1717882944
11716,19,Jits_Linear_5,1,5,56,103,1717974372
11716,19,Jits_Linear_5,2,5,63,98,1717993844
11716,19,Jits_Linear_5,3,5,80,127,1718004040
11716,19,Jits_Linear_5,0,1,48,23,1718540024
11716,19,Jits_Linear_5,1,5,80,127,1718594080
11716,19,Jits_Linear_5,2,5,56,103,1718623632
11716,19,Jits_Linear_5,3,5,63,98,1718663408
11716,19,Jits_Linear_5,0,1,48,25,1719191072
11716,19,Jits_Linear_5,1,5,80,127,1719254420
11716,19,Jits_Linear_5,2,5,56,103,1719273984
11716,19,Jits_Linear_5,3,5,63,98,1719334208
11716,19,Jits_Linear_5,0,1,48,21,1719867436
11716,19,Jits_Linear_5,1,5,56,103,1719914088
11716,19,Jits_Linear_5,2,5,80,127,1719934252
11716,19,Jits_Linear_5,3,5,63,98,1719993660
11716,19,Jits_Linear_5,0,1,48,24,1720518108
11716,19,Jits_Linear_5,1,5,80,127,1720554028
11716,19,Jits_Linear_5,2,5,56,103,1720564152
11716,19,Jits_Linear_5,3,5,63,98,1720604164
11716,19,Jits_Linear_5,0,1,48,24,1721175800
11716,19,Jits_Linear_5,1,5,63,98,1721214440
11716,19,Jits_Linear_5,2,5,56,103,1721254380
11716,19,Jits_Linear_5,3,5,80,127,1721257296
11716,19,Jits_Linear_5,0,1,48,20,1721829008
11716,19,Jits_Linear_5,1,5,63,98,1721894228
11716,19,Jits_Linear_5,2,5,80,127,1721934228
11716,19,Jits_Linear_5,3,5,56,103,1721964004
11716,19,Jits_Linear_5,0,1,48,22,1722537680
11716,19,Jits_Linear_5,1,5,56,103,1722543484
11716,19,Jits_Linear_5,2,5,63,98,1722553980
11716,19,Jits_Linear_5,3,5,80,127,1722584404
11716,19,Jits_Linear_5,0,5,80,127,1723203952
11716,19,Jits_Linear_5,1,1,48,21,1723206620
11716,19,Jits_Linear_5,2,5,63,98,1723273584
11716,19,Jits_Linear_5,3,5,56,103,1723283928
11716,19,Jits_Linear_5,0,5,63,98,1723873600
11716,19,Jits_Linear_5,1,1,48,22,1723883544
11716,19,Jits_Linear_5,2,5,56,103,1723944176
11716,19,Jits_Linear_5,3,5,80,127,1723953400
11716,19,Jits_Linear_5,0,1,48,22,1724528652
11716,19,Jits_Linear_5,1,5,63,98,1724544416
11716,19,Jits_Linear_5,2,5,56,103,1724563756
11716,19,Jits_Linear_5,3,5,80,127,1724603992
11716,19,Jits_Linear_5,0,1,48,23,1725182304
11716,19,Jits_Linear_5,1,5,56,103,1725224432
11716,19,Jits_Linear_5,2,5,63,98,1725233656
11716,19,Jits_Linear_5,3,5,80,127,1725314288
11716,19,Jits_Linear_5,0,1,48,29,1725823536
11716,19,Jits_Linear_5,1,5,63,98,1725883876
11716,19,Jits_Linear_5,2,5,56,103,1725913328
11716,19,Jits_Linear_5,3,5,80,127,1725954372
11716,19,Jits_Linear_5,0,1,48,29,1726513672
11716,19,Jits_Linear_5,1,5,56,103,1726553408
11716,19,Jits_Linear_5,2,5,63,98,1726594272
11716,19,Jits_Linear_5,3,5,80,127,1726634344
11716,19,Jits_Linear_5,0,1,48,21,1727174912
11716,19,Jits_Linear_5,1,5,80,127,1727234276
11716,19,Jits_Linear_5,2,5,56,103,1727314360
11716,19,Jits_Linear_5,3,5,63,98,1727323508
11716,19,Jits_Linear_5,0,1,48,21,1727947788
11716,19,Jits_Linear_5,1,5,56,103,1727954260
11716,19,Jits_Linear_5,2,5,63,98,1727957324
11716,19,Jits_Linear_5,3,5,80,127,1727963408
11716,19,Jits_Linear_5,0,5,56,103,1728653712
11716,19,Jits_Linear_5,1,1,48,23,1728658776
11716,19,Jits_Linear_5,2,5,63,98,1728674092
11716,19,Jits_Linear_5,3,5,80,127,1728684360
11716,19,Jits_Linear_5,0,5,63,98,1729304004
11716,19,Jits_Linear_5,1,5,80,127,1729314128
11716,19,Jits_Linear_5,2,5,56,103,1729333764
11716,19,Jits_Linear_5,3,1,48,21,1729378856
11716,19,Jits_Linear_5,0,1,48,23,1729914784
11716,19,Jits_Linear_5,1,5,63,98,1729994084
11716,19,Jits_Linear_5,2,5,56,103,1730074012
11716,19,Jits_Linear_5,3,5,80,127,1730077152
11716,19,Jits_Linear_5,0,1,48,25,1730660300
11716,19,Jits_Linear_5,1,5,63,98,1730684316
11716,19,Jits_Linear_5,2,5,56,103,1730703728
11716,19,Jits_Linear_5,3,5,80,127,1730733628
11716,19,Jits_Linear_5,0,1,48,21,1731352248
11716,19,Jits_Linear_5,1,5,56,103,1731373472
11716,19,Jits_Linear_5,2,5,63,98,1731393784
11716,19,Jits_Linear_5,3,5,80,127,1731404204
11716,19,Jits_Linear_5,0,1,48,23,1732010992
11716,19,Jits_Linear_5,1,5,56,103,1732094276
11716,19,Jits_Linear_5,2,5,63,98,1732124084
11716,19,Jits_Linear_5,3,5,80,127,1732127524
11716,19,Jits_Linear_5,0,5,56,103,1732734312
11716,19,Jits_Linear_5,1,1,48,23,1732752048
11716,19,Jits_Linear_5,2,5,63,98,1732774248
11716,19,Jits_Linear_5,3,5,80,127,1732833740
11716,19,Jits_Linear_5,0,5,56,103,1733443944
11716,19,Jits_Linear_5,1,1,48,23,1733447512
11716,19,Jits_Linear_5,2,5,63,98,1733454136
11716,19,Jits_Linear_5,3,5,80,127,1733513728
11716,19,Jits_Linear_5,0,1,48,24,1734117148
11716,19,Jits_Linear_5,1,5,56,103,1734144448
11716,19,Jits_Linear_5,2,5,80,127,1734163864
11716,19,Jits_Linear_5,3,5,63,98,1734193764
11716,19,Jits_Linear_5,0,5,80,127,1734843760
11716,19,Jits_Linear_5,1,1,48,23,1734845700
11716,19,Jits_Linear_5,2,5,56,103,1734854100
11716,19,Jits_Linear_5,3,5,63,98,1734873660
11716,19,Jits_Linear_5,0,1,48,21,1735529468
11716,19,Jits_Linear_5,1,5,63,98,1735533852
11716,19,Jits_Linear_5,2,5,80,127,1735613800
11716,19,Jits_Linear_5,3,5,56,103,1735624952
11716,19,Jits_Linear_5,0,5,80,127,1736293776
11716,19,Jits_Linear_5,1,1,48,27,1736297940
11716,19,Jits_Linear_5,2,5,56,103,1736314304
11716,19,Jits_Linear_5,3,5,63,98,1736317292
11716,19,Jits_Linear_5,0,5,63,98,1736973656
11716,19,Jits_Linear_5,1,5,80,127,1736977092
11716,19,Jits_Linear_5,2,5,56,103,1737034120
11716,19,Jits_Linear_5,3,1,48,23,1737045188
11716,19,Jits_Linear_5,0,5,56,103,1737663736
11716,19,Jits_Linear_5,1,5,80,127,1737674228
11716,19,Jits_Linear_5,2,1,48,21,1737708740
11716,19,Jits_Linear_5,3,5,63,98,1737714012
11716,19,Jits_Linear_5,0,1,48,24,1738351092
11716,19,Jits_Linear_5,1,5,56,103,1738353976
11716,19,Jits_Linear_5,2,5,63,98,1738413544
11716,19,Jits_Linear_5,3,5,80,127,1738423592
11716,19,Jits_Linear_5,0,1,48,22,1739014036
11716,19,Jits_Linear_5,1,5,63,98,1739074004
11716,19,Jits_Linear_5,2,5,80,127,1739113732
11716,19,Jits_Linear_5,3,5,56,103,1739153748
11716,19,Jits_Linear_5,0,1,48,22,1739792564
11716,19,Jits_Linear_5,1,5,56,103,1739794208
11716,19,Jits_Linear_5,2,5,63,98,1739873736
11716,19,Jits_Linear_5,3,5,80,127,1739877024
11716,19,Jits_Linear_5,0,1,48,26,1740518800
11716,19,Jits_Linear_5,1,5,80,127,1740563784
11716,19,Jits_Linear_5,2,5,56,103,1740593608
11716,19,Jits_Linear_5,3,5,63,98,1740596900
11716,19,Jits_Linear_5,0,5,56,103,1741243908
11716,19,Jits_Linear_5,1,1,48,23,1741258112
11716,19,Jits_Linear_5,2,5,80,127,1741264360
11716,19,Jits_Linear_5,3,5,63,98,1741304148
11716,19,Jits_Linear_5,0,5,80,127,1741944268
11716,19,Jits_Linear_5,1,5,63,98,1741963532
11716,19,Jits_Linear_5,2,1,48,24,1741964500
11716,19,Jits_Linear_5,3,5,56,103,1742024064
11716,19,Jits_Linear_5,0,5,63,98,1742674500
11716,19,Jits_Linear_5,1,5,56,103,1742683648
11716,19,Jits_Linear_5,2,1,48,24,1742697428
11716,19,Jits_Linear_5,3,5,80,127,1742733572
11716,19,Jits_Linear_5,0,1,48,24,1743358624
11716,19,Jits_Linear_5,1,5,56,103,1743394172
11716,19,Jits_Linear_5,2,5,63,98,1743413512
11716,19,Jits_Linear_5,3,5,80,127,1743423708
11716,19,Jits_Linear_5,0,1,48,21,1744075384
11716,19,Jits_Linear_5,1,5,56,103,1744113996
11716,19,Jits_Linear_5,2,5,63,98,1744116988
11716,19,Jits_Linear_5,3,5,80,127,1744133708
11716,19,Jits_Linear_5,0,1,48,22,1744756312
11716,19,Jits_Linear_5,1,5,63,98,1744884148
11716,19,Jits_Linear_5,2,5,56,103,1744913824
11716,19,Jits_Linear_5,3,5,80,127,1744943648
11716,19,Jits_Linear_5,0,5,80,127,1745574476
11716,19,Jits_Linear_5,1,1,48,21,1745610628
11716,19,Jits_Linear_5,2,5,56,103,1745664688
11716,19,Jits_Linear_5,3,5,63,98,1745667676
11716,19,Jits_Linear_5,0,5,56,103,1746304576
11716,19,Jits_Linear_5,1,5,80,127,1746307568
11716,19,Jits_Linear_5,2,5,63,98,1746384372
11716,19,Jits_Linear_5,3,1,48,22,1746408240
11716,19,Jits_Linear_5,0,5,80,127,1747033452
11716,19,Jits_Linear_5,1,1,48,24,1747045740
11716,19,Jits_Linear_5,2,5,63,98,1747093864
11716,19,Jits_Linear_5,3,5,56,103,1747123540
11716,19,Jits_Linear_5,0,5,63,98,1747763564
11716,19,Jits_Linear_5,1,5,80,127,1747773684
11716,19,Jits_Linear_5,2,1,48,22,1747791552
11716,19,Jits_Linear_5,3,5,56,103,1747843608
11716,19,Jits_Linear_5,0,5,56,103,1748524516
11716,19,Jits_Linear_5,1,1,48,25,1748530700
11716,19,Jits_Linear_5,2,5,80,127,1748554040
11716,19,Jits_Linear_5,3,5,63,98,1748604488
11716,19,Jits_Linear_5,0,1,48,27,1749287700
11716,19,Jits_Linear_5,1,5,63,98,1749303620
11716,19,Jits_Linear_5,2,5,56,103,1749334344
11716,19,Jits_Linear_5,3,5,80,127,1749337408
11716,19,Jits_Linear_5,0,1,48,24,1750001520
11716,19,Jits_Linear_5,1,5,63,98,1750043968
11716,19,Jits_Linear_5,2,5,80,127,1750063456
11716,19,Jits_Linear_5,3,5,56,103,1750073652
11716,19,Jits_Linear_5,0,1,48,25,1750773820
11716,19,Jits_Linear_5,1,5,56,103,1750793620
11716,19,Jits_Linear_5,2,5,63,98,1750796684
11716,19,Jits_Linear_5,3,5,80,127,1750814152
11716,19,Jits_Linear_5,0,5,56,103,1751493892
11716,19,Jits_Linear_5,1,5,63,98,1751504460
11716,19,Jits_Linear_5,2,1,48,20,1751530876
11716,19,Jits_Linear_5,3,5,80,127,1751534056
11716,19,Jits_Linear_5,0,1,48,22,1752244796
11716,19,Jits_Linear_5,1,5,63,98,1752264152
11716,19,Jits_Linear_5,2,5,80,127,1752283640
11716,19,Jits_Linear_5,3,5,56,103,1752323428
11716,19,Jits_Linear_5,0,1,48,24,1753012956
11716,19,Jits_Linear_5,1,5,56,103,1753044520
11716,19,Jits_Linear_5,2,5,63,98,1753084384
11716,19,Jits_Linear_5,3,5,80,127,1753087672
11716,19,Jits_Linear_5,0,5,80,127,1753733632
11716,19,Jits_Linear_5,1,5,56,103,1753773500
11716,19,Jits_Linear_5,2,1,48,21,1753800360
11716,19,Jits_Linear_5,3,5,63,98,1753823472
11716,19,Jits_Linear_5,0,1,48,24,1754497792
11716,19,Jits_Linear_5,1,5,56,103,1754543532
11716,19,Jits_Linear_5,2,5,80,127,1754553804
11716,19,Jits_Linear_5,3,5,63,98,1754584380
11716,19,Jits_Linear_5,0,5,56,103,1755243816
11716,19,Jits_Linear_5,1,1,48,21,1755263424
11716,19,Jits_Linear_5,2,5,80,127,1755283828
11716,19,Jits_Linear_5,3,5,63,98,1755334176
11716,19,Jits_Linear_5,0,1,48,24,1755985328
11716,19,Jits_Linear_5,1,5,56,103,1756003664
11716,19,Jits_Linear_5,2,5,80,127,1756043604
11716,19,Jits_Linear_5,3,5,63,98,1756093940
11716,19,Jits_Linear_5,0,5,80,127,1756754416
11716,19,Jits_Linear_5,1,1,48,20,1756758432
11716,19,Jits_Linear_5,2,5,63,98,1756834160
11716,19,Jits_Linear_5,3,5,56,103,1756844280
11716,19,Jits_Linear_5,0,1,48,21,1757553900
11716,19,Jits_Linear_5,1,5,80,127,1757564412
11716,19,Jits_Linear_5,2,5,56,103,1757573488
11716,19,Jits_Linear_5,3,5,63,98,1757594096
11716,19,Jits_Linear_5,0,5,63,98,1758294264
11716,19,Jits_Linear_5,1,1,48,23,1758295232
11716,19,Jits_Linear_5,2,5,56,103,1758364344
11716,19,Jits_Linear_5,3,5,80,127,1758367252
11716,19,Jits_Linear_5,0,5,80,127,1759054392
11716,19,Jits_Linear_5,1,1,48,20,1759062316
11716,19,Jits_Linear_5,2,5,63,98,1759104392
11716,19,Jits_Linear_5,3,5,56,103,1759144332
11716,19,Jits_Linear_5,0,1,48,18,1759804400
11716,19,Jits_Linear_5,1,5,63,98,1759864316
11716,19,Jits_Linear_5,2,5,56,103,1759904168
11716,19,Jits_Linear_5,3,5,80,127,1759914288
11716,19,Jits_Linear_5,0,5,63,98,1760624240
11716,19,Jits_Linear_5,1,1,48,25,1760639492
11716,19,Jits_Linear_5,2,5,56,103,1760643572
11716,19,Jits_Linear_5,3,5,80,127,1760664108
11716,19,Jits_Linear_5,0,5,80,127,1761354236
11716,19,Jits_Linear_5,1,5,56,103,1761364360
11716,19,Jits_Linear_5,2,5,63,98,1761383724
11716,19,Jits_Linear_5,3,1,48,23,1761451280
11716,19,Jits_Linear_5,0,1,48,16,1762150328
11716,19,Jits_Linear_5,1,5,63,98,1762153964
11716,19,Jits_Linear_5,2,5,56,103,1762193756
11716,19,Jits_Linear_5,3,5,80,127,1762223432
11716,19,Jits_Linear_5,0,1,48,22,1762904464
11716,19,Jits_Linear_5,1,5,56,103,1762934404
11716,19,Jits_Linear_5,2,5,63,98,1762963860
11716,19,Jits_Linear_5,3,5,80,127,1762993460
11716,19,Jits_Linear_5,0,1,48,18,1763662728
11716,19,Jits_Linear_5,1,5,80,127,1763683680
11716,19,Jits_Linear_5,2,5,56,103,1763754488
11716,19,Jits_Linear_5,3,5,63,98,1763758140
11716,19,Jits_Linear_5,0,1,48,21,1764427564
11716,19,Jits_Linear_5,1,5,56,103,1764474224
11716,19,Jits_Linear_5,2,5,63,98,1764524416
11716,19,Jits_Linear_5,3,5,80,127,1764554088
11716,19,Jits_Linear_5,0,1,48,22,1765203816
11716,19,Jits_Linear_5,1,5,63,98,1765234056
11716,19,Jits_Linear_5,2,5,80,127,1765237348
11716,19,Jits_Linear_5,3,5,56,103,1765293328
11716,19,Jits_Linear_5,0,1,48,23,1766020068
11716,19,Jits_Linear_5,1,5,56,103,1766044004
11716,19,Jits_Linear_5,2,5,80,127,1766054128
11716,19,Jits_Linear_5,3,5,63,98,1766104404
11716,19,Jits_Linear_5,0,5,63,98,1766803776
11716,19,Jits_Linear_5,1,5,56,103,1766814196
11716,19,Jits_Linear_5,2,5,80,127,1766843652
11716,19,Jits_Linear_5,3,1,48,24,1766853440
11716,19,Jits_Linear_5,0,1,48,19,1767573768
11716,19,Jits_Linear_5,1,5,63,98,1767623988
11716,19,Jits_Linear_5,2,5,80,127,1767627352
11716,19,Jits_Linear_5,3,5,56,103,1767653664
11716,19,Jits_Linear_5,0,1,48,22,1768335912
11716,19,Jits_Linear_5,1,5,63,98,1768434076
11716,19,Jits_Linear_5,2,5,56,103,1768453412
11716,19,Jits_Linear_5,3,5,80,127,1768456552
11716,19,Jits_Linear_5,0,5,63,98,1769183588
11716,19,Jits_Linear_5,1,1,48,24,1769206332
11716,19,Jits_Linear_5,2,5,56,103,1769254236
11716,19,Jits_Linear_5,3,5,80,127,1769273576
11716,19,Jits_Linear_5,0,5,56,103,1769964176
11716,19,Jits_Linear_5,1,5,63,98,1769974076
11716,19,Jits_Linear_5,2,1,48,22,1770023872
11716,19,Jits_Linear_5,3,5,80,127,1770064204
11716,19,Jits_Linear_5,0,1,48,25,1770765724
11716,19,Jits_Linear_5,1,5,56,103,1770774140
11716,19,Jits_Linear_5,2,5,80,127,1770813932
11716,19,Jits_Linear_5,3,5,63,98,1770824128
11716,19,Jits_Linear_5,0,1,48,21,1771563400
11716,19,Jits_Linear_5,1,5,56,103,1771594068
11716,19,Jits_Linear_5,2,5,63,98,1771623844
11716,19,Jits_Linear_5,3,5,80,127,1771653592
11716,19,Jits_Linear_5,0,1,48,21,1772351016
11716,19,Jits_Linear_5,1,5,80,127,1772353900
11716,19,Jits_Linear_5,2,5,63,98,1772394016
11716,19,Jits_Linear_5,3,5,56,103,1772414252
11716,19,Jits_Linear_5,0,1,48,16,1773157488
11716,19,Jits_Linear_5,1,5,56,103,1773193704
11716,19,Jits_Linear_5,2,5,80,127,1773214092
11716,19,Jits_Linear_5,3,5,63,98,1773233580
11716,19,Jits_Linear_5,0,5,63,98,1773963588
11716,19,Jits_Linear_5,1,5,56,103,1773974012
11716,19,Jits_Linear_5,2,1,48,21,1774018932
11716,19,Jits_Linear_5,3,5,80,127,1774034172
11716,19,Jits_Linear_5,0,5,56,103,1774773624
11716,19,Jits_Linear_5,1,1,48,15,1774784088
11716,19,Jits_Linear_5,2,5,63,98,1774844200
11716,19,Jits_Linear_5,3,5,80,127,1774863836
11716,19,Jits_Linear_5,0,1,48,21,1775557036
11716,19,Jits_Linear_5,1,5,56,103,1775583516
11716,19,Jits_Linear_5,2,5,63,98,1775614388
11716,19,Jits_Linear_5,3,5,80,127,1775654240
11716,19,Jits_Linear_5,0,5,63,98,1776384268
11716,19,Jits_Linear_5,1,1,48,24,1776418176
11716,19,Jits_Linear_5,2,5,56,103,1776433420
11716,19,Jits_Linear_5,3,5,80,127,1776443912
11716,19,Jits_Linear_5,0,1,48,21,1777179048
11716,19,Jits_Linear_5,1,5,56,103,1777234152
11716,19,Jits_Linear_5,2,5,63,98,1777283544
11716,19,Jits_Linear_5,3,5,80,127,1777293740
11716,19,Jits_Linear_5,0,1,48,22,1778005948
11716,19,Jits_Linear_5,1,5,56,103,1778013572
11716,19,Jits_Linear_5,2,5,63,98,1778024140
11716,19,Jits_Linear_5,3,5,80,127,1778103924
11716,19,Jits_Linear_5,0,9999,9999,9999,1669221436
11716,19,Jits_Linear_5,1,9999,9999,9999,1669701696
11716,19,Jits_Linear_5,2,9999,9999,9999,1670181956
11716,19,Jits_Linear_5,3,9999,9999,9999,1670661236
11716,19,Jits_Linear_5,4,9999,9999,9999,1671141460
11716,19,Jits_Linear_5,5,9999,9999,9999,1671631936
11716,19,Jits_Linear_5,6,9999,9999,9999,1672121436
11716,19,Jits_Linear_5,7,9999,9999,9999,1672611904
11716,19,Jits_Linear_5,8,9999,9999,9999,1673101380
11716,19,Jits_Linear_5,9,9999,9999,9999,1673591924
11716,19,Jits_Linear_5,10,9999,9999,9999,1674091608
11716,19,Jits_Linear_5,11,9999,9999,9999,1674591348
11716,19,Jits_Linear_5,12,9999,9999,9999,1675092080
11716,19,Jits_Linear_5,13,9999,9999,9999,1675591768
11716,19,Jits_Linear_5,14,9999,9999,9999,1676091492
11716,19,Jits_Linear_5,15,9999,9999,9999,1676601444
11716,19,Jits_Linear_5,16,9999,9999,9999,1677111392
11716,19,Jits_Linear_5,17,9999,9999,9999,1677621348
11716,19,Jits_Linear_5,18,9999,9999,9999,1678131304
11716,19,Jits_Linear_5,19,9999,9999,9999,1678641252
11716,19,Jits_Linear_5,20,9999,9999,9999,1679161472
11716,19,Jits_Linear_5,21,9999,9999,9999,1679681608
11716,19,Jits_Linear_5,22,9999,9999,9999,1680201820
11716,19,Jits_Linear_5,23,9999,9999,9999,1680722036
11716,19,Jits_Linear_5,24,9999,9999,9999,1681241200
11716,19,Jits_Linear_5,25,9999,9999,9999,1681771616
11716,19,Jits_Linear_5,26,9999,9999,9999,1682302020
11716,19,Jits_Linear_5,27,9999,9999,9999,1682831420
11716,19,Jits_Linear_5,28,9999,9999,9999,1683361900
11716,19,Jits_Linear_5,29,9999,9999,9999,1683891304
11716,19,Jits_Linear_5,30,9999,9999,9999,1684431968
11716,19,Jits_Linear_5,31,9999,9999,9999,1684971588
11716,19,Jits_Linear_5,32,9999,9999,9999,1685511276
11716,19,Jits_Linear_5,33,9999,9999,9999,1686051944
11716,19,Jits_Linear_5,34,9999,9999,9999,1686591564
11716,19,Jits_Linear_5,35,9999,9999,9999,1687141476
11716,19,Jits_Linear_5,36,9999,9999,9999,1687691348
11716,19,Jits_Linear_5,37,9999,9999,9999,1688241232
11716,19,Jits_Linear_5,38,9999,9999,9999,1688791116
11716,19,Jits_Linear_5,39,9999,9999,9999,1689342048
11716,19,Jits_Linear_5,40,9999,9999,9999,1689901152
11716,19,Jits_Linear_5,41,9999,9999,9999,1690461296
11716,19,Jits_Linear_5,42,9999,9999,9999,1691021384
11716,19,Jits_Linear_5,43,9999,9999,9999,1691581524
11716,19,Jits_Linear_5,44,9999,9999,9999,1692141668
11716,19,Jits_Linear_5,45,9999,9999,9999,1692712000
11716,19,Jits_Linear_5,46,9999,9999,9999,1693281388
11716,19,Jits_Linear_5,47,9999,9999,9999,1693851732
11716,19,Jits_Linear_5,48,9999,9999,9999,1694422072
11716,19,Jits_Linear_5,49,9999,9999,9999,1695001704
11716,19,Jits_Linear_5,50,9999,9999,9999,1695581248
11716,19,Jits_Linear_5,51,9999,9999,9999,1696161884
11716,19,Jits_Linear_5,52,9999,9999,9999,1696741436
11716,19,Jits_Linear_5,53,9999,9999,9999,1697322092
11716,19,Jits_Linear_5,54,9999,9999,9999,1697901672
11716,19,Jits_Linear_5,55,9999,9999,9999,1698491504
11716,19,Jits_Linear_5,56,9999,9999,9999,1699081320
11716,19,Jits_Linear_5,57,9999,9999,9999,1699671144
11716,19,Jits_Linear_5,58,9999,9999,9999,1700261952
11716,19,Jits_Linear_5,59,9999,9999,9999,1700851832
11716,19,Jits_Linear_5,60,9999,9999,9999,1701451840
11716,19,Jits_Linear_5,61,9999,9999,9999,1702051936
11716,19,Jits_Linear_5,62,9999,9999,9999,1702652016
11716,19,Jits_Linear_5,63,9999,9999,9999,1703252096
11716,19,Jits_Linear_5,64,9999,9999,9999,1703851076
11716,19,Jits_Linear_5,65,9999,9999,9999,1704461416
11716,19,Jits_Linear_5,66,9999,9999,9999,1705071708
11716,19,Jits_Linear_5,67,9999,9999,9999,1705682040
11716,19,Jits_Linear_5,68,9999,9999,9999,1706291280
11716,19,Jits_Linear_5,69,9999,9999,9999,1706901576
11716,19,Jits_Linear_5,70,9999,9999,9999,1707521124
11716,19,Jits_Linear_5,71,9999,9999,9999,1708141624
11716,19,Jits_Linear_5,72,9999,9999,9999,1708761180
11716,19,Jits_Linear_5,73,9999,9999,9999,1709381716
11716,19,Jits_Linear_5,74,9999,9999,9999,1710001224
11716,19,Jits_Linear_5,75,9999,9999,9999,1710632024
11716,19,Jits_Linear_5,76,9999,9999,9999,1711261800
11716,19,Jits_Linear_5,77,9999,9999,9999,1711891552
11716,19,Jits_Linear_5,78,9999,9999,9999,1712521344
11716,19,Jits_Linear_5,79,9999,9999,9999,1713152060
11716,19,Jits_Linear_5,80,9999,9999,9999,1713792104
11716,19,Jits_Linear_5,81,9999,9999,9999,1714432120
11716,19,Jits_Linear_5,82,9999,9999,9999,1715072100
11716,19,Jits_Linear_5,83,9999,9999,9999,1715712116
11716,19,Jits_Linear_5,84,9999,9999,9999,1716352096
11716,19,Jits_Linear_5,85,9999,9999,9999,1717011512
11716,19,Jits_Linear_5,86,9999,9999,9999,1717661808
11716,19,Jits_Linear_5,87,9999,9999,9999,1718312008
11716,19,Jits_Linear_5,88,9999,9999,9999,1718961260
11716,19,Jits_Linear_5,89,9999,9999,9999,1719611464
11716,19,Jits_Linear_5,90,9999,9999,9999,1720271960
11716,19,Jits_Linear_5,91,9999,9999,9999,1720931400
11716,19,Jits_Linear_5,92,9999,9999,9999,1721591924
11716,19,Jits_Linear_5,93,9999,9999,9999,1722251372
11716,19,Jits_Linear_5,94,9999,9999,9999,1722911832
11716,19,Jits_Linear_5,95,9999,9999,9999,1723581540
11716,19,Jits_Linear_5,96,9999,9999,9999,1724251240
11716,19,Jits_Linear_5,97,9999,9999,9999,1724921984
11716,19,Jits_Linear_5,98,9999,9999,9999,1725591612
11716,19,Jits_Linear_5,99,9999,9999,9999,1726261368
11716,19,Jits_Linear_5,100,9999,9999,9999,1726941264
11716,19,Jits_Linear_5,101,9999,9999,9999,1727621236
11716,19,Jits_Linear_5,102,9999,9999,9999,1728301176
11716,19,Jits_Linear_5,103,9999,9999,9999,1728982124
11716,19,Jits_Linear_5,104,9999,9999,9999,1729671252
11716,19,Jits_Linear_5,105,9999,9999,9999,1730361456
11716,19,Jits_Linear_5,106,9999,9999,9999,1731051616
11716,19,Jits_Linear_5,107,9999,9999,9999,1731741776
11716,19,Jits_Linear_5,108,9999,9999,9999,1732431980
11716,19,Jits_Linear_5,109,9999,9999,9999,1733121088
11716,19,Jits_Linear_5,110,9999,9999,9999,1733821532
11716,19,Jits_Linear_5,111,9999,9999,9999,1734521968
11716,19,Jits_Linear_5,112,9999,9999,9999,1735221320
11716,19,Jits_Linear_5,113,9999,9999,9999,1735921760
11716,19,Jits_Linear_5,114,9999,9999,9999,1736621132
11716,19,Jits_Linear_5,115,9999,9999,9999,1737331832
11716,19,Jits_Linear_5,116,9999,9999,9999,1738041440
11716,19,Jits_Linear_5,117,9999,9999,9999,1738752072
11716,19,Jits_Linear_5,118,9999,9999,9999,1739471976
11716,19,Jits_Linear_5,119,9999,9999,9999,1740181612
11716,19,Jits_Linear_5,120,9999,9999,9999,1740901436
11716,19,Jits_Linear_5,121,9999,9999,9999,1741621316
11716,19,Jits_Linear_5,122,9999,9999,9999,1742341236
11716,19,Jits_Linear_5,123,9999,9999,9999,1743062124
11716,19,Jits_Linear_5,124,9999,9999,9999,1743791168
11716,19,Jits_Linear_5,125,9999,9999,9999,1744521320
11716,19,Jits_Linear_5,126,9999,9999,9999,1745251416
11716,19,Jits_Linear_5,127,9999,9999,9999,1745981552
11716,19,Jits_Linear_5,128,9999,9999,9999,1746711648
11716,19,Jits_Linear_5,129,9999,9999,9999,1747441756
11716,19,Jits_Linear_5,130,9999,9999,9999,1748182124
11716,19,Jits_Linear_5,131,9999,9999,9999,1748931696
11716,19,Jits_Linear_5,132,9999,9999,9999,1749672060
11716,19,Jits_Linear_5,133,9999,9999,9999,1750411372
11716,19,Jits_Linear_5,134,9999,9999,9999,1751151720
11716,19,Jits_Linear_5,135,9999,9999,9999,1751901296
11716,19,Jits_Linear_5,136,9999,9999,9999,1752651832
11716,19,Jits_Linear_5,137,9999,9999,9999,1753401404
11716,19,Jits_Linear_5,138,9999,9999,9999,1754152028
11716,19,Jits_Linear_5,139,9999,9999,9999,1754901620
11716,19,Jits_Linear_5,140,9999,9999,9999,1755661384
11716,19,Jits_Linear_5,141,9999,9999,9999,1756421236
11716,19,Jits_Linear_5,142,9999,9999,9999,1757182048
11716,19,Jits_Linear_5,143,9999,9999,9999,1757941828
11716,19,Jits_Linear_5,144,9999,9999,9999,1758701660
11716,19,Jits_Linear_5,145,9999,9999,9999,1759471688
11716,19,Jits_Linear_5,146,9999,9999,9999,1760241736
11716,19,Jits_Linear_5,147,9999,9999,9999,1761011768
11716,19,Jits_Linear_5,148,9999,9999,9999,1761781864
11716,19,Jits_Linear_5,149,9999,9999,9999,1762551908
11716,19,Jits_Linear_5,150,9999,9999,9999,1763331152
11716,19,Jits_Linear_5,151,9999,9999,9999,1764111436
11716,19,Jits_Linear_5,152,9999,9999,9999,1764891724
11716,19,Jits_Linear_5,153,9999,9999,9999,1765672000
11716,19,Jits_Linear_5,154,9999,9999,9999,1766451316
11716,19,Jits_Linear_5,155,9999,9999,9999,1767241792
11716,19,Jits_Linear_5,156,9999,9999,9999,1768031316
11716,19,Jits_Linear_5,157,9999,9999,9999,1768821860
11716,19,Jits_Linear_5,158,9999,9999,9999,1769611368
11716,19,Jits_Linear_5,159,9999,9999,9999,1770401848
11716,19,Jits_Linear_5,160,9999,9999,9999,1771201632
11716,19,Jits_Linear_5,161,9999,9999,9999,1772001400
11716,19,Jits_Linear_5,162,9999,9999,9999,1772801092
11716,19,Jits_Linear_5,163,9999,9999,9999,1773601912
11716,19,Jits_Linear_5,164,9999,9999,9999,1774401608
11716,19,Jits_Linear_5,165,9999,9999,9999,1775211596
11716,19,Jits_Linear_5,166,9999,9999,9999,1776021568
11716,19,Jits_Linear_5,167,9999,9999,9999,1776831600
11716,19,Jits_Linear_5,168,9999,9999,9999,1777641564
11716,19,Jits_Linear_5,169,9999,9999,9999,1778451524
11717,18,Jits_Linear_8,0,5,56,103,1787636100
11717,18,Jits_Linear_8,1,5,63,98,1787639120
11717,18,Jits_Linear_8,2,5,80,127,1787642320
11717,18,Jits_Linear_8,0,5,56,103,1788456484
11717,18,Jits_Linear_8,1,5,63,98,1788459512
11717,18,Jits_Linear_8,2,5,80,127,1788462856
11717,18,Jits_Linear_8,0,5,80,127,1789216052
11717,18,Jits_Linear_8,1,5,63,98,1789306212
11717,18,Jits_Linear_8,2,5,56,103,1789315588
11717,18,Jits_Linear_8,0,5,56,103,1790055808
11717,18,Jits_Linear_8,1,5,63,98,1790066152
11717,18,Jits_Linear_8,2,5,80,127,1790156140
11717,18,Jits_Linear_8,0,5,63,98,1790846316
11717,18,Jits_Linear_8,1,1,48,35,1790847284
11717,18,Jits_Linear_8,2,5,80,127,1790875912
11717,18,Jits_Linear_8,3,5,56,103,1790905812
11717,18,Jits_Linear_8,0,1,48,27,1791622720
11717,18,Jits_Linear_8,1,5,56,103,1791665688
11717,18,Jits_Linear_8,2,5,80,127,1791765852
11717,18,Jits_Linear_8,3,5,63,98,1791815976
11717,18,Jits_Linear_8,0,5,56,103,1792475716
11717,18,Jits_Linear_8,1,1,48,25,1792508504
11717,18,Jits_Linear_8,2,5,80,127,1792525540
11717,18,Jits_Linear_8,3,5,63,98,1792565480
11717,18,Jits_Linear_8,0,5,80,127,1793316612
11717,18,Jits_Linear_8,1,1,48,26,1793319732
11717,18,Jits_Linear_8,2,5,63,98,1793345764
11717,18,Jits_Linear_8,3,5,56,103,1793415752
11717,18,Jits_Linear_8,0,5,63,98,1794155968
11717,18,Jits_Linear_8,1,5,56,103,1794185496
11717,18,Jits_Linear_8,2,1,48,28,1794194768
11717,18,Jits_Linear_8,3,5,80,127,1794245880
11717,18,Jits_Linear_8,0,5,56,103,1794905572
11717,18,Jits_Linear_8,1,5,80,127,1794908492
11717,18,Jits_Linear_8,2,1,48,23,1795015156
11717,18,Jits_Linear_8,3,5,63,98,1795026416
11717,18,Jits_Linear_8,0,1,48,22,1795782692
11717,18,Jits_Linear_8,1,5,56,103,1795785948
11717,18,Jits_Linear_8,2,5,80,127,1795826036
11717,18,Jits_Linear_8,3,5,63,98,1795836380
11717,18,Jits_Linear_8,0,5,56,103,1796545852
11717,18,Jits_Linear_8,1,5,80,127,1796566532
11717,18,Jits_Linear_8,2,1,48,24,1796612800
11717,18,Jits_Linear_8,3,5,63,98,1796646248
11717,18,Jits_Linear_8,0,5,80,127,1797336552
11717,18,Jits_Linear_8,1,1,48,33,1797398564
11717,18,Jits_Linear_8,2,5,56,103,1797435828
11717,18,Jits_Linear_8,3,5,63,98,1797445948
11717,18,Jits_Linear_8,0,5,63,98,1798105684
11717,18,Jits_Linear_8,1,5,80,127,1798165928
11717,18,Jits_Linear_8,2,5,56,103,1798176124
11717,18,Jits_Linear_8,3,1,48,32,1798224948
11717,18,Jits_Linear_8,0,5,56,103,1798906328
11717,18,Jits_Linear_8,1,1,48,19,1798920984
11717,18,Jits_Linear_8,2,5,63,98,1798975704
11717,18,Jits_Linear_8,3,5,80,127,1798979148
11717,18,Jits_Linear_8,0,1,48,32,1799710772
11717,18,Jits_Linear_8,1,5,63,98,1799735604
11717,18,Jits_Linear_8,2,5,56,103,1799785980
11717,18,Jits_Linear_8,3,5,80,127,1799788972
11717,18,Jits_Linear_8,0,5,56,103,1800486348
11717,18,Jits_Linear_8,1,5,80,127,1800489416
11717,18,Jits_Linear_8,2,1,48,23,1800504688
11717,18,Jits_Linear_8,3,5,63,98,1800576576
11717,18,Jits_Linear_8,0,1,48,30,1801258948
11717,18,Jits_Linear_8,1,5,63,98,1801315796
11717,18,Jits_Linear_8,2,5,56,103,1801405768
11717,18,Jits_Linear_8,3,5,80,127,1801435668
11717,18,Jits_Linear_8,0,5,56,103,1802095932
11717,18,Jits_Linear_8,1,1,48,26,1802100096
11717,18,Jits_Linear_8,2,5,63,98,1802196536
11717,18,Jits_Linear_8,3,5,80,127,1802225912
11717,18,Jits_Linear_8,0,5,63,98,1802905900
11717,18,Jits_Linear_8,1,1,48,33,1802910064
11717,18,Jits_Linear_8,2,5,56,103,1802916312
11717,18,Jits_Linear_8,3,5,80,127,1803006504
11717,18,Jits_Linear_8,0,1,48,31,1803704752
11717,18,Jits_Linear_8,1,5,63,98,1803706396
11717,18,Jits_Linear_8,2,5,56,103,1803785520
11717,18,Jits_Linear_8,3,5,80,127,1803788588
11717,18,Jits_Linear_8,0,5,80,127,1804446508
11717,18,Jits_Linear_8,1,5,63,98,1804465404
11717,18,Jits_Linear_8,2,1,48,25,1804524736
11717,18,Jits_Linear_8,3,5,56,103,1804526380
11717,18,Jits_Linear_8,0,1,48,25,1805221508
11717,18,Jits_Linear_8,1,5,56,103,1805266568
11717,18,Jits_Linear_8,2,5,63,98,1805285684
11717,18,Jits_Linear_8,3,5,80,127,1805289196
11717,18,Jits_Linear_8,0,1,48,24,1805958020
11717,18,Jits_Linear_8,1,5,63,98,1805986372
11717,18,Jits_Linear_8,2,5,80,127,1806066004
11717,18,Jits_Linear_8,3,5,56,103,1806076648
11717,18,Jits_Linear_8,0,1,48,26,1806717840
11717,18,Jits_Linear_8,1,5,63,98,1806785824
11717,18,Jits_Linear_8,2,5,56,103,1806806508
11717,18,Jits_Linear_8,3,5,80,127,1806855424
11717,18,Jits_Linear_8,0,1,48,20,1807496320
11717,18,Jits_Linear_8,1,5,80,127,1807566248
11717,18,Jits_Linear_8,2,5,63,98,1807606248
11717,18,Jits_Linear_8,3,5,56,103,1807625512
11717,18,Jits_Linear_8,0,1,48,22,1808313688
11717,18,Jits_Linear_8,1,5,56,103,1808376340
11717,18,Jits_Linear_8,2,5,63,98,1808386536
11717,18,Jits_Linear_8,3,5,80,127,1808405860
11717,18,Jits_Linear_8,0,5,56,103,1809075556
11717,18,Jits_Linear_8,1,1,48,34,1809080396
11717,18,Jits_Linear_8,2,5,63,98,1809165688
11717,18,Jits_Linear_8,3,5,80,127,1809226436
11717,18,Jits_Linear_8,0,5,80,127,1809876452
11717,18,Jits_Linear_8,1,5,56,103,1809885524
11717,18,Jits_Linear_8,2,1,48,33,1809898684
11717,18,Jits_Linear_8,3,5,63,98,1809956396
11717,18,Jits_Linear_8,0,1,48,26,1810669364
11717,18,Jits_Linear_8,1,5,63,98,1810676212
11717,18,Jits_Linear_8,2,5,80,127,1810766188
11717,18,Jits_Linear_8,3,5,56,103,1810776384
11717,18,Jits_Linear_8,0,5,63,98,1811385600
11717,18,Jits_Linear_8,1,5,80,127,1811435880
11717,18,Jits_Linear_8,2,1,48,25,1811489116
11717,18,Jits_Linear_8,3,5,56,103,1811496260
11717,18,Jits_Linear_8,0,5,56,103,1812176288
11717,18,Jits_Linear_8,1,1,48,24,1812204212
11717,18,Jits_Linear_8,2,5,80,127,1812226556
11717,18,Jits_Linear_8,3,5,63,98,1812245968
11717,18,Jits_Linear_8,0,5,56,103,1812906300
11717,18,Jits_Linear_8,1,1,48,28,1812935348
11717,18,Jits_Linear_8,2,5,80,127,1812965788
11717,18,Jits_Linear_8,3,5,63,98,1813036352
11717,18,Jits_Linear_8,0,5,56,103,1813666360
11717,18,Jits_Linear_8,1,5,80,127,1813695960
11717,18,Jits_Linear_8,2,1,48,24,1813721180
11717,18,Jits_Linear_8,3,5,63,98,1813725480
11717,18,Jits_Linear_8,0,1,48,21,1814443248
11717,18,Jits_Linear_8,1,5,56,103,1814466188
11717,18,Jits_Linear_8,2,5,80,127,1814486280
11717,18,Jits_Linear_8,3,5,63,98,1814545832
11717,18,Jits_Linear_8,0,1,48,27,1815180804
11717,18,Jits_Linear_8,1,5,80,127,1815305720
11717,18,Jits_Linear_8,2,5,56,103,1815315988
11717,18,Jits_Linear_8,3,5,63,98,1815326112
11717,18,Jits_Linear_8,0,1,48,17,1815973440
11717,18,Jits_Linear_8,1,5,56,103,1816016256
11717,18,Jits_Linear_8,2,5,80,127,1816056048
11717,18,Jits_Linear_8,3,5,63,98,1816086008
11717,18,Jits_Linear_8,0,5,56,103,1816736236
11717,18,Jits_Linear_8,1,5,63,98,1816765912
11717,18,Jits_Linear_8,2,1,48,17,1816770524
11717,18,Jits_Linear_8,3,5,80,127,1816805620
11717,18,Jits_Linear_8,0,5,80,127,1817435388
11717,18,Jits_Linear_8,1,1,48,16,1817469888
11717,18,Jits_Linear_8,2,5,63,98,1817485804
11717,18,Jits_Linear_8,3,5,56,103,1817506040
11717,18,Jits_Linear_8,0,1,48,21,1818153120
11717,18,Jits_Linear_8,1,5,56,103,1818215892
11717,18,Jits_Linear_8,2,5,80,127,1818285412
11717,18,Jits_Linear_8,3,5,63,98,1818346024
11717,18,Jits_Linear_8,0,5,80,127,1818956068
11717,18,Jits_Linear_8,1,1,48,18,1819006936
11717,18,Jits_Linear_8,2,5,63,98,1819046224
11717,18,Jits_Linear_8,3,5,56,103,1819065860
11717,18,Jits_Linear_8,0,5,63,98,1819716060
11717,18,Jits_Linear_8,1,5,56,103,1819736620
11717,18,Jits_Linear_8,2,1,48,17,1819741008
11717,18,Jits_Linear_8,3,5,80,127,1819776328
11717,18,Jits_Linear_8,0,5,80,127,1820416388
11717,18,Jits_Linear_8,1,5,63,98,1820435952
11717,18,Jits_Linear_8,2,1,48,24,1820469712
11717,18,Jits_Linear_8,3,5,56,103,1820515988
11717,18,Jits_Linear_8,0,5,63,98,1821145504
11717,18,Jits_Linear_8,1,1,48,22,1821183824
11717,18,Jits_Linear_8,2,5,56,103,1821256012
11717,18,Jits_Linear_8,3,5,80,127,1821259004
11717,18,Jits_Linear_8,0,5,63,98,1821906216
11717,18,Jits_Linear_8,1,5,56,103,1821915512
11717,18,Jits_Linear_8,2,5,80,127,1821918656
11717,18,Jits_Linear_8,3,1,48,23,1821954744
11717,18,Jits_Linear_8,0,1,48,20,1822607996
11717,18,Jits_Linear_8,1,5,56,103,1822626080
11717,18,Jits_Linear_8,2,5,80,127,1822746244
11717,18,Jits_Linear_8,3,5,63,98,1822786108
11717,18,Jits_Linear_8,0,5,56,103,1823375656
11717,18,Jits_Linear_8,1,1,48,19,1823379072
11717,18,Jits_Linear_8,2,5,80,127,1823455596
11717,18,Jits_Linear_8,3,5,63,98,1823476056
11717,18,Jits_Linear_8,0,5,56,103,1824106048
11717,18,Jits_Linear_8,1,1,48,20,1824150292
11717,18,Jits_Linear_8,2,5,63,98,1824216404
11717,18,Jits_Linear_8,3,5,80,127,1824219992
11717,18,Jits_Linear_8,0,1,48,19,1824854736
11717,18,Jits_Linear_8,1,5,56,103,1824865572
11717,18,Jits_Linear_8,2,5,80,127,1824896372
11717,18,Jits_Linear_8,3,5,63,98,1824916008
11717,18,Jits_Linear_8,0,5,63,98,1825576304
11717,18,Jits_Linear_8,1,1,48,22,1825581292
11717,18,Jits_Linear_8,2,5,56,103,1825585444
11717,18,Jits_Linear_8,3,5,80,127,1825595864
11717,18,Jits_Linear_8,0,5,80,127,1826286000
11717,18,Jits_Linear_8,1,1,48,19,1826298856
11717,18,Jits_Linear_8,2,5,56,103,1826336124
11717,18,Jits_Linear_8,3,5,63,98,1826375988
11717,18,Jits_Linear_8,0,5,80,127,1827026284
11717,18,Jits_Linear_8,1,5,63,98,1827045992
11717,18,Jits_Linear_8,2,1,48,18,1827054140
11717,18,Jits_Linear_8,3,5,56,103,1827095964
11717,18,Jits_Linear_8,0,5,80,127,1827756376
11717,18,Jits_Linear_8,1,5,56,103,1827786128
11717,18,Jits_Linear_8,2,1,48,29,1827794796
11717,18,Jits_Linear_8,3,5,63,98,1827855876
11717,18,Jits_Linear_8,0,1,48,25,1828509068
11717,18,Jits_Linear_8,1,5,56,103,1828525356
11717,18,Jits_Linear_8,2,5,80,127,1828535776
11717,18,Jits_Linear_8,3,5,63,98,1828575712
11717,18,Jits_Linear_8,0,5,56,103,1829165512
11717,18,Jits_Linear_8,1,5,63,98,1829186048
11717,18,Jits_Linear_8,2,5,80,127,1829255976
11717,18,Jits_Linear_8,3,1,48,13,1829266964
11717,18,Jits_Linear_8,0,5,63,98,1829905868
11717,18,Jits_Linear_8,1,1,48,21,1829908028
11717,18,Jits_Linear_8,2,5,80,127,1829966180
11717,18,Jits_Linear_8,3,5,56,103,1829985912
11717,18,Jits_Linear_8,0,5,80,127,1830606132
11717,18,Jits_Linear_8,1,1,48,25,1830622056
11717,18,Jits_Linear_8,2,5,56,103,1830635876
11717,18,Jits_Linear_8,3,5,63,98,1830665552
11717,18,Jits_Linear_8,0,1,48,32,1831282684
11717,18,Jits_Linear_8,1,5,56,103,1831315988
11717,18,Jits_Linear_8,2,5,63,98,1831376512
11717,18,Jits_Linear_8,3,5,80,127,1831435784
11717,18,Jits_Linear_8,0,1,48,31,1832027984
11717,18,Jits_Linear_8,1,5,80,127,1832045920
11717,18,Jits_Linear_8,2,5,56,103,1832066680
11717,18,Jits_Linear_8,3,5,63,98,1832136196
11717,18,Jits_Linear_8,0,5,80,127,1832755756
11717,18,Jits_Linear_8,1,5,63,98,1832775992
11717,18,Jits_Linear_8,2,1,48,25,1832781724
11717,18,Jits_Linear_8,3,5,56,103,1832805908
11717,18,Jits_Linear_8,0,5,80,127,1833445916
11717,18,Jits_Linear_8,1,5,63,98,1833466080
11717,18,Jits_Linear_8,2,1,48,31,1833480360
11717,18,Jits_Linear_8,3,5,56,103,1833525712
11717,18,Jits_Linear_8,0,5,80,127,1834146116
11717,18,Jits_Linear_8,1,1,48,30,1834161448
11717,18,Jits_Linear_8,2,5,56,103,1834245760
11717,18,Jits_Linear_8,3,5,63,98,1834276172
11717,18,Jits_Linear_8,0,5,63,98,1834836260
11717,18,Jits_Linear_8,1,5,80,127,1834885812
11717,18,Jits_Linear_8,2,5,56,103,1834906048
11717,18,Jits_Linear_8,3,1,48,30,1834917784
11717,18,Jits_Linear_8,0,1,48,26,1835535444
11717,18,Jits_Linear_8,1,5,80,127,1835575848
11717,18,Jits_Linear_8,2,5,56,103,1835606568
11717,18,Jits_Linear_8,3,5,63,98,1835609736
11717,18,Jits_Linear_8,0,1,48,25,1836244760
11717,18,Jits_Linear_8,1,5,63,98,1836305992
11717,18,Jits_Linear_8,2,5,56,103,1836345772
11717,18,Jits_Linear_8,3,5,80,127,1836366228
11717,18,Jits_Linear_8,0,5,80,127,1836945804
11717,18,Jits_Linear_8,1,1,48,31,1836969452
11717,18,Jits_Linear_8,2,5,63,98,1837025748
11717,18,Jits_Linear_8,3,5,56,103,1837065832
11717,18,Jits_Linear_8,0,5,63,98,1837656724
11717,18,Jits_Linear_8,1,1,48,30,1837716716
11717,18,Jits_Linear_8,2,5,80,127,1837736368
11717,18,Jits_Linear_8,3,5,56,103,1837755780
11717,18,Jits_Linear_8,0,5,56,103,1838385740
11717,18,Jits_Linear_8,1,5,63,98,1838395788
11717,18,Jits_Linear_8,2,5,80,127,1838435824
11717,18,Jits_Linear_8,3,1,48,29,1838438648
11717,18,Jits_Linear_8,0,5,56,103,1838995812
11717,18,Jits_Linear_8,1,5,80,127,1838998732
11717,18,Jits_Linear_8,2,1,48,31,1839088908
11717,18,Jits_Linear_8,3,5,63,98,1839136056
11717,18,Jits_Linear_8,0,5,56,103,1839675752
11717,18,Jits_Linear_8,1,5,63,98,1839765844
11717,18,Jits_Linear_8,2,1,48,19,1839779596
11717,18,Jits_Linear_8,3,5,80,127,1839835740
11717,18,Jits_Linear_8,0,1,48,22,1840376904
11717,18,Jits_Linear_8,1,5,63,98,1840435592
11717,18,Jits_Linear_8,2,5,80,127,1840438880
11717,18,Jits_Linear_8,3,5,56,103,1840495844
11717,18,Jits_Linear_8,0,1,48,21,1841103816
11717,18,Jits_Linear_8,1,5,80,127,1841155632
11717,18,Jits_Linear_8,2,5,56,103,1841176016
11717,18,Jits_Linear_8,3,5,63,98,1841186064
11717,18,Jits_Linear_8,0,5,56,103,1841746196
11717,18,Jits_Linear_8,1,5,63,98,1841755668
11717,18,Jits_Linear_8,2,1,48,25,1841819996
11717,18,Jits_Linear_8,3,5,80,127,1841826092
11717,18,Jits_Linear_8,0,1,48,27,1842428980
11717,18,Jits_Linear_8,1,5,80,127,1842435524
11717,18,Jits_Linear_8,2,5,56,103,1842485580
11717,18,Jits_Linear_8,3,5,63,98,1842535716
11717,18,Jits_Linear_8,0,1,48,15,1843124828
11717,18,Jits_Linear_8,1,5,56,103,1843196476
11717,18,Jits_Linear_8,2,5,63,98,1843205700
11717,18,Jits_Linear_8,3,5,80,127,1843245548
11717,18,Jits_Linear_8,0,1,48,22,1843812652
11717,18,Jits_Linear_8,1,5,56,103,1843815756
11717,18,Jits_Linear_8,2,5,63,98,1843855624
11717,18,Jits_Linear_8,3,5,80,127,1843905808
11717,18,Jits_Linear_8,0,5,80,127,1844445648
11717,18,Jits_Linear_8,1,1,48,24,1844485708
11717,18,Jits_Linear_8,2,5,56,103,1844495696
11717,18,Jits_Linear_8,3,5,63,98,1844516308
11717,18,Jits_Linear_8,0,1,48,26,1845100636
11717,18,Jits_Linear_8,1,5,80,127,1845125616
11717,18,Jits_Linear_8,2,5,63,98,1845185860
11717,18,Jits_Linear_8,3,5,56,103,1845265936
11717,18,Jits_Linear_8,0,1,48,24,1845774076
11717,18,Jits_Linear_8,1,5,80,127,1845775584
11717,18,Jits_Linear_8,2,5,56,103,1845815596
11717,18,Jits_Linear_8,3,5,63,98,1845836204
11717,18,Jits_Linear_8,0,1,48,23,1846415428
11717,18,Jits_Linear_8,1,5,56,103,1846495544
11717,18,Jits_Linear_8,2,5,80,127,1846505960
11717,18,Jits_Linear_8,3,5,63,98,1846545888
11717,18,Jits_Linear_8,0,1,48,22,1847103512
11717,18,Jits_Linear_8,1,5,56,103,1847225684
11717,18,Jits_Linear_8,2,5,63,98,1847265624
11717,18,Jits_Linear_8,3,5,80,127,1847268912
11717,18,Jits_Linear_8,0,5,63,98,1847775724
11717,18,Jits_Linear_8,1,1,48,24,1847782660
11717,18,Jits_Linear_8,2,5,80,127,1847815508
11717,18,Jits_Linear_8,3,5,56,103,1847886296
11717,18,Jits_Linear_8,0,5,63,98,1848425784
11717,18,Jits_Linear_8,1,1,48,26,1848445244
11717,18,Jits_Linear_8,2,5,56,103,1848505652
11717,18,Jits_Linear_8,3,5,80,127,1848566104
11717,18,Jits_Linear_8,0,1,48,20,1849084112
11717,18,Jits_Linear_8,1,5,80,127,1849095520
11717,18,Jits_Linear_8,2,5,63,98,1849145648
11717,18,Jits_Linear_8,3,5,56,103,1849176656
11717,18,Jits_Linear_8,0,1,48,20,1849716840
11717,18,Jits_Linear_8,1,5,56,103,1849745932
11717,18,Jits_Linear_8,2,5,63,98,1849795912
11717,18,Jits_Linear_8,3,5,80,127,1849806408
11717,18,Jits_Linear_8,0,1,48,21,1850361168
11717,18,Jits_Linear_8,1,5,56,103,1850415448
11717,18,Jits_Linear_8,2,5,63,98,1850526196
11717,18,Jits_Linear_8,3,5,80,127,1850545460
11717,18,Jits_Linear_8,0,1,48,18,1851004060
11717,18,Jits_Linear_8,1,5,63,98,1851065668
11717,18,Jits_Linear_8,2,5,80,127,1851115856
11717,18,Jits_Linear_8,3,5,56,103,1851205912
11717,18,Jits_Linear_8,0,5,63,98,1851705672
11717,18,Jits_Linear_8,1,1,48,17,1851709088
11717,18,Jits_Linear_8,2,5,80,127,1851736564
11717,18,Jits_Linear_8,3,5,56,103,1851825560
11717,18,Jits_Linear_8,0,5,63,98,1852355956
11717,18,Jits_Linear_8,1,5,56,103,1852366448
11717,18,Jits_Linear_8,2,1,48,16,1852367416
11717,18,Jits_Linear_8,3,5,80,127,1852465480
11717,18,Jits_Linear_8,0,1,48,21,1852947808
11717,18,Jits_Linear_8,1,5,63,98,1853105636
11717,18,Jits_Linear_8,2,5,80,127,1853136284
11717,18,Jits_Linear_8,3,5,56,103,1853165888
11717,18,Jits_Linear_8,0,1,48,19,1853652420
11717,18,Jits_Linear_8,1,5,80,127,1853765952
11717,18,Jits_Linear_8,2,5,63,98,1853776372
11717,18,Jits_Linear_8,3,5,56,103,1853806072
11717,18,Jits_Linear_8,0,5,80,127,1854305536
11717,18,Jits_Linear_8,1,1,48,19,1854318168
11717,18,Jits_Linear_8,2,5,63,98,1854326212
11717,18,Jits_Linear_8,3,5,56,103,1854376488
11717,18,Jits_Linear_8,0,1,48,19,1854930224
11717,18,Jits_Linear_8,1,5,63,98,1854976332
11717,18,Jits_Linear_8,2,5,80,127,1855035888
11717,18,Jits_Linear_8,3,5,56,103,1855056496
11717,18,Jits_Linear_8,0,5,63,98,1855576360
11717,18,Jits_Linear_8,1,1,48,17,1855599332
11717,18,Jits_Linear_8,2,5,56,103,1855625436
11717,18,Jits_Linear_8,3,5,80,127,1855635928
11717,18,Jits_Linear_8,0,1,48,20,1856189576
11717,18,Jits_Linear_8,1,5,56,103,1856246392
11717,18,Jits_Linear_8,2,5,80,127,1856256516
11717,18,Jits_Linear_8,3,5,63,98,1856355800
11717,18,Jits_Linear_8,0,1,48,26,1856756376
11717,18,Jits_Linear_8,1,5,80,127,1856846236
11717,18,Jits_Linear_8,2,5,63,98,1856856516
11717,18,Jits_Linear_8,3,5,56,103,1857006060
11717,18,Jits_Linear_8,0,1,48,23,1857445256
11717,18,Jits_Linear_8,1,5,63,98,1857486184
11717,18,Jits_Linear_8,2,5,80,127,1857526124
11717,18,Jits_Linear_8,3,5,56,103,1857605980
11717,18,Jits_Linear_8,0,1,48,22,1858058124
11717,18,Jits_Linear_8,1,5,56,103,1858105656
11717,18,Jits_Linear_8,2,5,80,127,1858205996
11717,18,Jits_Linear_8,3,5,63,98,1858225556
11717,18,Jits_Linear_8,0,1,48,22,1858590308
11717,18,Jits_Linear_8,1,5,80,127,1858795868
11717,18,Jits_Linear_8,2,5,56,103,1858806508
11717,18,Jits_Linear_8,3,5,63,98,1858896120
11717,18,Jits_Linear_8,0,1,48,22,1859278220
11717,18,Jits_Linear_8,1,5,56,103,1859425636
11717,18,Jits_Linear_8,2,5,63,98,1859446320
11717,18,Jits_Linear_8,3,5,80,127,1859526112
11717,18,Jits_Linear_8,0,1,48,19,1859931212
11717,18,Jits_Linear_8,1,5,63,98,1859996200
11717,18,Jits_Linear_8,2,5,56,103,1860086320
11717,18,Jits_Linear_8,3,5,80,127,1860089536
11717,18,Jits_Linear_8,0,1,48,19,1860619980
11717,18,Jits_Linear_8,1,5,56,103,1860646160
11717,18,Jits_Linear_8,2,5,80,127,1860705680
11717,18,Jits_Linear_8,3,5,63,98,1860715864
11717,18,Jits_Linear_8,0,1,48,18,1861246232
11717,18,Jits_Linear_8,1,5,80,127,1861316156
11717,18,Jits_Linear_8,2,5,56,103,1861326428
11717,18,Jits_Linear_8,3,5,63,98,1861329492
11717,18,Jits_Linear_8,0,1,48,16,1861866892
11717,18,Jits_Linear_8,1,5,56,103,1861895464
11717,18,Jits_Linear_8,2,5,80,127,1861905736
11717,18,Jits_Linear_8,3,5,63,98,1861926196
11717,18,Jits_Linear_8,0,1,48,17,1862450768
11717,18,Jits_Linear_8,1,5,63,98,1862486336
11717,18,Jits_Linear_8,2,5,80,127,1862545668
11717,18,Jits_Linear_8,3,5,56,103,1862596092
11717,18,Jits_Linear_8,0,1,48,18,1863044508
11717,18,Jits_Linear_8,1,5,63,98,1863185744
11717,18,Jits_Linear_8,2,5,56,103,1863196240
11717,18,Jits_Linear_8,3,5,80,127,1863246068
11717,18,Jits_Linear_8,0,5,63,98,1863695780
11717,18,Jits_Linear_8,1,5,80,127,1863716168
11717,18,Jits_Linear_8,2,5,56,103,1863725316
11717,18,Jits_Linear_8,3,1,48,19,1863737800
11717,18,Jits_Linear_8,0,1,48,19,1864254756
11717,18,Jits_Linear_8,1,5,63,98,1864306120
11717,18,Jits_Linear_8,2,5,80,127,1864309408
11717,18,Jits_Linear_8,3,5,56,103,1864346056
11717,18,Jits_Linear_8,0,1,48,28,1864827252
11717,18,Jits_Linear_8,1,5,63,98,1864986024
11717,18,Jits_Linear_8,2,5,80,127,1865015628
11717,18,Jits_Linear_8,3,5,56,103,1865025896
11717,18,Jits_Linear_8,0,1,48,20,1865478708
11717,18,Jits_Linear_8,1,5,56,103,1865546092
11717,18,Jits_Linear_8,2,5,80,127,1865575780
11717,18,Jits_Linear_8,3,5,63,98,1865605380
11717,18,Jits_Linear_8,0,1,48,20,1866071528
11717,18,Jits_Linear_8,1,5,63,98,1866245524
11717,18,Jits_Linear_8,2,5,56,103,1866285460
11717,18,Jits_Linear_8,3,5,80,127,1866288452
11717,18,Jits_Linear_8,0,5,80,127,1866746188
11717,18,Jits_Linear_8,1,1,48,17,1866780996
11717,18,Jits_Linear_8,2,5,56,103,1866826356
11717,18,Jits_Linear_8,3,5,63,98,1866876196
11717,18,Jits_Linear_8,0,5,80,127,1867325676
11717,18,Jits_Linear_8,1,5,56,103,1867346360
11717,18,Jits_Linear_8,2,1,48,22,1867362160
11717,18,Jits_Linear_8,3,5,63,98,1867436364
11717,18,Jits_Linear_8,0,1,48,19,1867905524
11717,18,Jits_Linear_8,1,5,80,127,1867965784
11717,18,Jits_Linear_8,2,5,63,98,1868005784
11717,18,Jits_Linear_8,3,5,56,103,1868045648
11717,18,Jits_Linear_8,0,1,48,21,1868530456
11717,18,Jits_Linear_8,1,5,63,98,1868536180
11717,18,Jits_Linear_8,2,5,80,127,1868595452
11717,18,Jits_Linear_8,3,5,56,103,1868626248
11717,18,Jits_Linear_8,0,1,48,21,1869127980
11717,18,Jits_Linear_8,1,5,56,103,1869136172
11717,18,Jits_Linear_8,2,5,80,127,1869166024
11717,18,Jits_Linear_8,3,5,63,98,1869256068
11717,18,Jits_Linear_8,0,1,48,19,1869703956
11717,18,Jits_Linear_8,1,5,56,103,1869736192
11717,18,Jits_Linear_8,2,5,80,127,1869846092
11717,18,Jits_Linear_8,3,5,63,98,1869875544
11717,18,Jits_Linear_8,0,1,48,18,1870293748
11717,18,Jits_Linear_8,1,5,56,103,1870376352
11717,18,Jits_Linear_8,2,5,63,98,1870435708
11717,18,Jits_Linear_8,3,5,80,127,1870466356
11717,18,Jits_Linear_8,0,1,48,18,1870887536
11717,18,Jits_Linear_8,1,5,56,103,1870936512
11717,18,Jits_Linear_8,2,5,63,98,1871006036
11717,18,Jits_Linear_8,3,5,80,127,1871025524
11717,18,Jits_Linear_8,0,1,48,16,1871490556
11717,18,Jits_Linear_8,1,5,80,127,1871495460
11717,18,Jits_Linear_8,2,5,63,98,1871516140
11717,18,Jits_Linear_8,3,5,56,103,1871566192
11717,18,Jits_Linear_8,0,1,48,19,1872062824
11717,18,Jits_Linear_8,1,5,63,98,1872095672
11717,18,Jits_Linear_8,2,5,80,127,1872105868
11717,18,Jits_Linear_8,3,5,56,103,1872156504
11717,18,Jits_Linear_8,0,1,48,15,1872672704
11717,18,Jits_Linear_8,1,5,63,98,1872676408
11717,18,Jits_Linear_8,2,5,80,127,1872745972
11717,18,Jits_Linear_8,3,5,56,103,1872766280
11717,18,Jits_Linear_8,0,1,48,16,1873263580
11717,18,Jits_Linear_8,1,5,63,98,1873285496
11717,18,Jits_Linear_8,2,5,80,127,1873289012
11717,18,Jits_Linear_8,3,5,56,103,1873356004
11717,18,Jits_Linear_8,0,1,48,23,1873787236
11717,18,Jits_Linear_8,1,5,80,127,1873816032
11717,18,Jits_Linear_8,2,5,56,103,1873836344
11717,18,Jits_Linear_8,3,5,63,98,1873845568
11717,18,Jits_Linear_8,0,1,48,24,1874360472
11717,18,Jits_Linear_8,1,5,56,103,1874415872
11717,18,Jits_Linear_8,2,5,63,98,1874506064
11717,18,Jits_Linear_8,3,5,80,127,1874509356
11717,18,Jits_Linear_8,0,1,48,26,1874884868
11717,18,Jits_Linear_8,1,5,80,127,1874966032
11717,18,Jits_Linear_8,2,5,56,103,1874976156
11717,18,Jits_Linear_8,3,5,63,98,1874995476
11717,18,Jits_Linear_8,0,1,48,14,1875474288
11717,18,Jits_Linear_8,1,5,63,98,1875536272
11717,18,Jits_Linear_8,2,5,80,127,1875595628
11717,18,Jits_Linear_8,3,5,56,103,1875605900
11717,18,Jits_Linear_8,0,1,48,21,1876026852
11717,18,Jits_Linear_8,1,5,63,98,1876176360
11717,18,Jits_Linear_8,2,5,80,127,1876206184
11717,18,Jits_Linear_8,3,5,56,103,1876245900
11717,18,Jits_Linear_8,0,1,48,18,1876671372
11717,18,Jits_Linear_8,1,5,56,103,1876736292
11717,18,Jits_Linear_8,2,5,80,127,1876745740
11717,18,Jits_Linear_8,3,5,63,98,1876785740
11717,18,Jits_Linear_8,0,1,48,19,1877250696
11717,18,Jits_Linear_8,1,5,80,127,1877265864
11717,18,Jits_Linear_8,2,5,56,103,1877345616
11717,18,Jits_Linear_8,3,5,63,98,1877356020
11717,18,Jits_Linear_8,0,1,48,16,1877819904
11717,18,Jits_Linear_8,1,5,80,127,1877876076
11717,18,Jits_Linear_8,2,5,56,103,1877955936
11717,18,Jits_Linear_8,3,5,63,98,1877966132
11717,18,Jits_Linear_8,0,5,80,127,1878396296
11717,18,Jits_Linear_8,1,1,48,19,1878436576
11717,18,Jits_Linear_8,2,5,56,103,1878445592
11717,18,Jits_Linear_8,3,5,63,98,1878495720
11717,18,Jits_Linear_8,0,1,48,19,1878924056
11717,18,Jits_Linear_8,1,5,56,103,1879015780
11717,18,Jits_Linear_8,2,5,63,98,1879018924
11717,18,Jits_Linear_8,3,5,80,127,1879065896
11717,18,Jits_Linear_8,0,1,48,18,1879487632
11717,18,Jits_Linear_8,1,5,56,103,1879596428
11717,18,Jits_Linear_8,2,5,63,98,1879626032
11717,18,Jits_Linear_8,3,5,80,127,1879636228
11717,18,Jits_Linear_8,0,5,63,98,1880066392
11717,18,Jits_Linear_8,1,1,48,21,1880080368
11717,18,Jits_Linear_8,2,5,56,103,1880135920
11717,18,Jits_Linear_8,3,5,80,127,1880186204
11717,18,Jits_Linear_8,0,1,48,20,1880585816
11717,18,Jits_Linear_8,1,5,63,98,1880656268
11717,18,Jits_Linear_8,2,5,56,103,1880665516
11717,18,Jits_Linear_8,3,5,80,127,1880668432
11717,18,Jits_Linear_8,0,1,48,21,1881123672
11717,18,Jits_Linear_8,1,5,80,127,1881156004
11717,18,Jits_Linear_8,2,5,56,103,1881216404
11717,18,Jits_Linear_8,3,5,63,98,1881305640
11717,18,Jits_Linear_8,0,1,48,22,1881678648
11717,18,Jits_Linear_8,1,5,80,127,1881705752
11717,18,Jits_Linear_8,2,5,56,103,1881806212
11717,18,Jits_Linear_8,3,5,63,98,1881846224
11717,18,Jits_Linear_8,0,1,48,16,1882266768
11717,18,Jits_Linear_8,1,5,56,103,1882306052
11717,18,Jits_Linear_8,2,5,63,98,1882326364
11717,18,Jits_Linear_8,3,5,80,127,1882366360
11717,18,Jits_Linear_8,0,1,48,21,1882774836
11717,18,Jits_Linear_8,1,5,63,98,1882826032
11717,18,Jits_Linear_8,2,5,56,103,1882845520
11717,18,Jits_Linear_8,3,5,80,127,1882945900
11717,18,Jits_Linear_8,0,1,48,23,1883298700
11717,18,Jits_Linear_8,1,5,63,98,1883355452
11717,18,Jits_Linear_8,2,5,80,127,1883466100
11717,18,Jits_Linear_8,3,5,56,103,1883495800
11717,18,Jits_Linear_8,0,1,48,15,1883892860
11717,18,Jits_Linear_8,1,5,56,103,1883915892
11717,18,Jits_Linear_8,2,5,63,98,1883946468
11717,18,Jits_Linear_8,3,5,80,127,1883995632
11717,18,Jits_Linear_8,0,1,48,21,1884399276
11717,18,Jits_Linear_8,1,5,63,98,1884425828
11717,18,Jits_Linear_8,2,5,56,103,1884456480
11717,18,Jits_Linear_8,3,5,80,127,1884505344
11717,18,Jits_Linear_8,0,1,48,23,1884901116
11717,18,Jits_Linear_8,1,5,56,103,1884995840
11717,18,Jits_Linear_8,2,5,63,98,1885016400
11717,18,Jits_Linear_8,3,5,80,127,1885096268
11717,18,Jits_Linear_8,0,1,48,21,1885443736
11717,18,Jits_Linear_8,1,5,63,98,1885505868
11717,18,Jits_Linear_8,2,5,56,103,1885566420
11717,18,Jits_Linear_8,3,5,80,127,1885596020
11717,18,Jits_Linear_8,0,1,48,21,1886014284
11717,18,Jits_Linear_8,1,5,56,103,1886085436
11717,18,Jits_Linear_8,2,5,80,127,1886145888
11717,18,Jits_Linear_8,3,5,63,98,1886185752
11717,18,Jits_Linear_8,0,1,48,15,1886572192
11717,18,Jits_Linear_8,1,5,63,98,1886595304
11717,18,Jits_Linear_8,2,5,56,103,1886655920
11717,18,Jits_Linear_8,3,5,80,127,1886725736
11717,18,Jits_Linear_8,0,1,48,18,1887139832
11717,18,Jits_Linear_8,1,5,56,103,1887205796
11717,18,Jits_Linear_8,2,5,63,98,1887216068
11717,18,Jits_Linear_8,3,5,80,127,1887219356
11717,18,Jits_Linear_8,0,5,63,98,1887675884
11717,18,Jits_Linear_8,1,1,48,16,1887705080
11717,18,Jits_Linear_8,2,5,56,103,1887736120
11717,18,Jits_Linear_8,3,5,80,127,1887739112
11717,18,Jits_Linear_8,0,5,63,98,1888185668
11717,18,Jits_Linear_8,1,5,80,127,1888216540
11717,18,Jits_Linear_8,2,1,48,23,1888231044
11717,18,Jits_Linear_8,3,5,56,103,1888235872
11717,18,Jits_Linear_8,0,5,56,103,1888716132
11717,18,Jits_Linear_8,1,1,48,18,1888747420
11717,18,Jits_Linear_8,2,5,63,98,1888766400
11717,18,Jits_Linear_8,3,5,80,127,1888846180
11717,18,Jits_Linear_8,0,1,48,22,1889212036
11717,18,Jits_Linear_8,1,5,80,127,1889226008
11717,18,Jits_Linear_8,2,5,63,98,1889266020
11717,18,Jits_Linear_8,3,5,56,103,1889285656
11717,18,Jits_Linear_8,0,1,48,21,1889693968
11717,18,Jits_Linear_8,1,5,56,103,1889815872
11717,18,Jits_Linear_8,2,5,80,127,1889826216
11717,18,Jits_Linear_8,3,5,63,98,1889845704
11717,18,Jits_Linear_8,0,1,48,24,1890238436
11717,18,Jits_Linear_8,1,5,56,103,1890315716
11717,18,Jits_Linear_8,2,5,63,98,1890365904
11717,18,Jits_Linear_8,3,5,80,127,1890395604
11717,18,Jits_Linear_8,0,1,48,23,1890760592
11717,18,Jits_Linear_8,1,5,56,103,1890785652
11717,18,Jits_Linear_8,2,5,63,98,1890795848
11717,18,Jits_Linear_8,3,5,80,127,1890846048
11717,18,Jits_Linear_8,0,1,48,20,1891264624
11717,18,Jits_Linear_8,1,5,56,103,1891295736
11717,18,Jits_Linear_8,2,5,80,127,1891298952
11717,18,Jits_Linear_8,3,5,63,98,1891456596
11717,18,Jits_Linear_8,0,1,48,20,1891776800
11717,18,Jits_Linear_8,1,5,63,98,1891826048
11717,18,Jits_Linear_8,2,5,56,103,1891895640
11717,18,Jits_Linear_8,3,5,80,127,1891935828
11717,18,Jits_Linear_8,0,1,48,22,1892370948
11717,18,Jits_Linear_8,1,5,63,98,1892375852
11717,18,Jits_Linear_8,2,5,56,103,1892466156
11717,18,Jits_Linear_8,3,5,80,127,1892469148
11717,18,Jits_Linear_8,0,5,56,103,1892866540
11717,18,Jits_Linear_8,1,1,48,24,1892925708
11717,18,Jits_Linear_8,2,5,63,98,1892955648
11717,18,Jits_Linear_8,3,5,80,127,1892965620
11717,18,Jits_Linear_8,0,5,56,103,1893345560
11717,18,Jits_Linear_8,1,5,63,98,1893395836
11717,18,Jits_Linear_8,2,5,80,127,1893425808
11717,18,Jits_Linear_8,3,1,48,23,1893481164
11717,18,Jits_Linear_8,0,5,63,98,1893926240
11717,18,Jits_Linear_8,1,5,80,127,1893935760
11717,18,Jits_Linear_8,2,1,48,13,1893936728
11717,18,Jits_Linear_8,3,5,56,103,1893995872
11717,18,Jits_Linear_8,0,5,63,98,1894346060
11717,18,Jits_Linear_8,1,5,80,127,1894405628
11717,18,Jits_Linear_8,2,5,56,103,1894445564
11717,18,Jits_Linear_8,3,1,48,15,1894456704
11717,18,Jits_Linear_8,0,1,48,20,1894898824
11717,18,Jits_Linear_8,1,5,56,103,1894946204
11717,18,Jits_Linear_8,2,5,80,127,1894965692
11717,18,Jits_Linear_8,3,5,63,98,1894986004
11717,18,Jits_Linear_8,0,5,63,98,1895365928
11717,18,Jits_Linear_8,1,1,48,22,1895382000
11717,18,Jits_Linear_8,2,5,56,103,1895385636
11717,18,Jits_Linear_8,3,5,80,127,1895426548
11717,18,Jits_Linear_8,0,1,48,20,1895873204
11717,18,Jits_Linear_8,1,5,63,98,1895875940
11717,18,Jits_Linear_8,2,5,80,127,1895905540
11717,18,Jits_Linear_8,3,5,56,103,1895926224
11717,18,Jits_Linear_8,0,5,80,127,1896345952
11717,18,Jits_Linear_8,1,1,48,28,1896353036
11717,18,Jits_Linear_8,2,5,56,103,1896396076
11717,18,Jits_Linear_8,3,5,63,98,1896455476
11717,18,Jits_Linear_8,0,1,48,22,1896789860
11717,18,Jits_Linear_8,1,5,63,98,1896826604
11717,18,Jits_Linear_8,2,5,56,103,1896946096
11717,18,Jits_Linear_8,3,5,80,127,1896975844
11717,18,Jits_Linear_8,0,1,48,21,1897285180
11717,18,Jits_Linear_8,1,5,80,127,1897355660
11717,18,Jits_Linear_8,2,5,63,98,1897376044
11717,18,Jits_Linear_8,3,5,56,103,1897445784
11717,18,Jits_Linear_8,0,1,48,19,1897822856
11717,18,Jits_Linear_8,1,5,63,98,1897865676
11717,18,Jits_Linear_8,2,5,56,103,1897875948
11717,18,Jits_Linear_8,3,5,80,127,1897955876
11717,18,Jits_Linear_8,0,1,48,23,1898334248
11717,18,Jits_Linear_8,1,5,56,103,1898415412
11717,18,Jits_Linear_8,2,5,80,127,1898446268
11717,18,Jits_Linear_8,3,5,63,98,1898456760
11717,18,Jits_Linear_8,0,9999,9999,9999,1788043360
11717,18,Jits_Linear_8,1,9999,9999,9999,1788863600
11717,18,Jits_Linear_8,2,9999,9999,9999,1789683780
11717,18,Jits_Linear_8,3,9999,9999,9999,1790504028
11717,18,Jits_Linear_8,4,9999,9999,9999,1791323232
11717,18,Jits_Linear_8,5,9999,9999,9999,1792133180
11717,18,Jits_Linear_8,6,9999,9999,9999,1792943196
11717,18,Jits_Linear_8,7,9999,9999,9999,1793753156
11717,18,Jits_Linear_8,8,9999,9999,9999,1794563188
11717,18,Jits_Linear_8,9,9999,9999,9999,1795373168
11717,18,Jits_Linear_8,10,9999,9999,9999,1796173916
11717,18,Jits_Linear_8,11,9999,9999,9999,1796973624
11717,18,Jits_Linear_8,12,9999,9999,9999,1797773396
11717,18,Jits_Linear_8,13,9999,9999,9999,1798573160
11717,18,Jits_Linear_8,14,9999,9999,9999,1799373948
11717,18,Jits_Linear_8,15,9999,9999,9999,1800163448
11717,18,Jits_Linear_8,16,9999,9999,9999,1800953968
11717,18,Jits_Linear_8,17,9999,9999,9999,1801743480
11717,18,Jits_Linear_8,18,9999,9999,9999,1802533948
11717,18,Jits_Linear_8,19,9999,9999,9999,1803323456
11717,18,Jits_Linear_8,20,9999,9999,9999,1804103800
11717,18,Jits_Linear_8,21,9999,9999,9999,1804884072
11717,18,Jits_Linear_8,22,9999,9999,9999,1805663324
11717,18,Jits_Linear_8,23,9999,9999,9999,1806443596
11717,18,Jits_Linear_8,24,9999,9999,9999,1807223868
11717,18,Jits_Linear_8,25,9999,9999,9999,1807993952
11717,18,Jits_Linear_8,26,9999,9999,9999,1808763964
11717,18,Jits_Linear_8,27,9999,9999,9999,1809534052
11717,18,Jits_Linear_8,28,9999,9999,9999,1810304072
11717,18,Jits_Linear_8,29,9999,9999,9999,1811083372
11717,18,Jits_Linear_8,30,9999,9999,9999,1811843192
11717,18,Jits_Linear_8,31,9999,9999,9999,1812603984
11717,18,Jits_Linear_8,32,9999,9999,9999,1813363816
11717,18,Jits_Linear_8,33,9999,9999,9999,1814123648
11717,18,Jits_Linear_8,34,9999,9999,9999,1814883408
11717,18,Jits_Linear_8,35,9999,9999,9999,1815633996
11717,18,Jits_Linear_8,36,9999,9999,9999,1816383556
11717,18,Jits_Linear_8,37,9999,9999,9999,1817133116
11717,18,Jits_Linear_8,38,9999,9999,9999,1817883732
11717,18,Jits_Linear_8,39,9999,9999,9999,1818633312
11717,18,Jits_Linear_8,40,9999,9999,9999,1819373656
11717,18,Jits_Linear_8,41,9999,9999,9999,1820114012
11717,18,Jits_Linear_8,42,9999,9999,9999,1820853304
11717,18,Jits_Linear_8,43,9999,9999,9999,1821593724
11717,18,Jits_Linear_8,44,9999,9999,9999,1822334048
11717,18,Jits_Linear_8,45,9999,9999,9999,1823063136
11717,18,Jits_Linear_8,46,9999,9999,9999,1823793220
11717,18,Jits_Linear_8,47,9999,9999,9999,1824523376
11717,18,Jits_Linear_8,48,9999,9999,9999,1825253472
11717,18,Jits_Linear_8,49,9999,9999,9999,1825983544
11717,18,Jits_Linear_8,50,9999,9999,9999,1826703436
11717,18,Jits_Linear_8,51,9999,9999,9999,1827423340
11717,18,Jits_Linear_8,52,9999,9999,9999,1828143220
11717,18,Jits_Linear_8,53,9999,9999,9999,1828864108
11717,18,Jits_Linear_8,54,9999,9999,9999,1829593208
11717,18,Jits_Linear_8,55,9999,9999,9999,1830303828
11717,18,Jits_Linear_8,56,9999,9999,9999,1831013452
11717,18,Jits_Linear_8,57,9999,9999,9999,1831723072
11717,18,Jits_Linear_8,58,9999,9999,9999,1832433744
11717,18,Jits_Linear_8,59,9999,9999,9999,1833143372
11717,18,Jits_Linear_8,60,9999,9999,9999,1833843796
11717,18,Jits_Linear_8,61,9999,9999,9999,1834543232
11717,18,Jits_Linear_8,62,9999,9999,9999,1835243584
11717,18,Jits_Linear_8,63,9999,9999,9999,1835944060
11717,18,Jits_Linear_8,64,9999,9999,9999,1836643428
11717,18,Jits_Linear_8,65,9999,9999,9999,1837333628
11717,18,Jits_Linear_8,66,9999,9999,9999,1838023796
11717,18,Jits_Linear_8,67,9999,9999,9999,1838713948
11717,18,Jits_Linear_8,68,9999,9999,9999,1839403104
11717,18,Jits_Linear_8,69,9999,9999,9999,1840093272
11717,18,Jits_Linear_8,70,9999,9999,9999,1840773240
11717,18,Jits_Linear_8,71,9999,9999,9999,1841453112
11717,18,Jits_Linear_8,72,9999,9999,9999,1842134112
11717,18,Jits_Linear_8,73,9999,9999,9999,1842823228
11717,18,Jits_Linear_8,74,9999,9999,9999,1843503168
11717,18,Jits_Linear_8,75,9999,9999,9999,1844173916
11717,18,Jits_Linear_8,76,9999,9999,9999,1844843608
11717,18,Jits_Linear_8,77,9999,9999,9999,1845513296
11717,18,Jits_Linear_8,78,9999,9999,9999,1846184032
11717,18,Jits_Linear_8,79,9999,9999,9999,1846853700
11717,18,Jits_Linear_8,80,9999,9999,9999,1847513204
11717,18,Jits_Linear_8,81,9999,9999,9999,1848173680
11717,18,Jits_Linear_8,82,9999,9999,9999,1848833088
11717,18,Jits_Linear_8,83,9999,9999,9999,1849493612
11717,18,Jits_Linear_8,84,9999,9999,9999,1850154060
11717,18,Jits_Linear_8,85,9999,9999,9999,1850803304
11717,18,Jits_Linear_8,86,9999,9999,9999,1851453496
11717,18,Jits_Linear_8,87,9999,9999,9999,1852103776
11717,18,Jits_Linear_8,88,9999,9999,9999,1852754036
11717,18,Jits_Linear_8,89,9999,9999,9999,1853403208
11717,18,Jits_Linear_8,90,9999,9999,9999,1854043244
11717,18,Jits_Linear_8,91,9999,9999,9999,1854683240
11717,18,Jits_Linear_8,92,9999,9999,9999,1855323208
11717,18,Jits_Linear_8,93,9999,9999,9999,1855963208
11717,18,Jits_Linear_8,94,9999,9999,9999,1856603232
11717,18,Jits_Linear_8,95,9999,9999,9999,1857234012
11717,18,Jits_Linear_8,96,9999,9999,9999,1857863752
11717,18,Jits_Linear_8,97,9999,9999,9999,1858493512
11717,18,Jits_Linear_8,98,9999,9999,9999,1859123256
11717,18,Jits_Linear_8,99,9999,9999,9999,1859754068
11717,18,Jits_Linear_8,100,9999,9999,9999,1860373608
11717,18,Jits_Linear_8,101,9999,9999,9999,1860993108
11717,18,Jits_Linear_8,102,9999,9999,9999,1861613624
11717,18,Jits_Linear_8,103,9999,9999,9999,1862233196
11717,18,Jits_Linear_8,104,9999,9999,9999,1862853716
11717,18,Jits_Linear_8,105,9999,9999,9999,1863464056
11717,18,Jits_Linear_8,106,9999,9999,9999,1864073284
11717,18,Jits_Linear_8,107,9999,9999,9999,1864683596
11717,18,Jits_Linear_8,108,9999,9999,9999,1865293928
11717,18,Jits_Linear_8,109,9999,9999,9999,1865903228
11717,18,Jits_Linear_8,110,9999,9999,9999,1866503228
11717,18,Jits_Linear_8,111,9999,9999,9999,1867103328
11717,18,Jits_Linear_8,112,9999,9999,9999,1867703408
11717,18,Jits_Linear_8,113,9999,9999,9999,1868303416
11717,18,Jits_Linear_8,114,9999,9999,9999,1868903508
11717,18,Jits_Linear_8,115,9999,9999,9999,1869493312
11717,18,Jits_Linear_8,116,9999,9999,9999,1870083196
11717,18,Jits_Linear_8,117,9999,9999,9999,1870673984
11717,18,Jits_Linear_8,118,9999,9999,9999,1871263816
11717,18,Jits_Linear_8,119,9999,9999,9999,1871853692
11717,18,Jits_Linear_8,120,9999,9999,9999,1872433232
11717,18,Jits_Linear_8,121,9999,9999,9999,1873013844
11717,18,Jits_Linear_8,122,9999,9999,9999,1873593452
11717,18,Jits_Linear_8,123,9999,9999,9999,1874174040
11717,18,Jits_Linear_8,124,9999,9999,9999,1874753648
11717,18,Jits_Linear_8,125,9999,9999,9999,1875323988
11717,18,Jits_Linear_8,126,9999,9999,9999,1875893336
11717,18,Jits_Linear_8,127,9999,9999,9999,1876463740
11717,18,Jits_Linear_8,128,9999,9999,9999,1877034068
11717,18,Jits_Linear_8,129,9999,9999,9999,1877603452
11717,18,Jits_Linear_8,130,9999,9999,9999,1878163524
11717,18,Jits_Linear_8,131,9999,9999,9999,1878723660
11717,18,Jits_Linear_8,132,9999,9999,9999,1879283808
11717,18,Jits_Linear_8,133,9999,9999,9999,1879843956
11717,18,Jits_Linear_8,134,9999,9999,9999,1880404092
11717,18,Jits_Linear_8,135,9999,9999,9999,1880953980
11717,18,Jits_Linear_8,136,9999,9999,9999,1881503852
11717,18,Jits_Linear_8,137,9999,9999,9999,1882053728
11717,18,Jits_Linear_8,138,9999,9999,9999,1882603604
11717,18,Jits_Linear_8,139,9999,9999,9999,1883153476
11717,18,Jits_Linear_8,140,9999,9999,9999,1883693168
11717,18,Jits_Linear_8,141,9999,9999,9999,1884233828
11717,18,Jits_Linear_8,142,9999,9999,9999,1884773452
11717,18,Jits_Linear_8,143,9999,9999,9999,1885313140
11717,18,Jits_Linear_8,144,9999,9999,9999,1885853792
11717,18,Jits_Linear_8,145,9999,9999,9999,1886383216
11717,18,Jits_Linear_8,146,9999,9999,9999,1886913616
11717,18,Jits_Linear_8,147,9999,9999,9999,1887444080
11717,18,Jits_Linear_8,148,9999,9999,9999,1887973496
11717,18,Jits_Linear_8,149,9999,9999,9999,1888503888
11717,18,Jits_Linear_8,150,9999,9999,9999,1889024092
11717,18,Jits_Linear_8,151,9999,9999,9999,1889553528
11717,18,Jits_Linear_8,152,9999,9999,9999,1890073656
11717,18,Jits_Linear_8,153,9999,9999,9999,1890593864
11717,18,Jits_Linear_8,154,9999,9999,9999,1891114068
11717,18,Jits_Linear_8,155,9999,9999,9999,1891624000
11717,18,Jits_Linear_8,156,9999,9999,9999,1892133944
11717,18,Jits_Linear_8,157,9999,9999,9999,1892643956
11717,18,Jits_Linear_8,158,9999,9999,9999,1893153900
11717,18,Jits_Linear_8,159,9999,9999,9999,1893663856
11717,18,Jits_Linear_8,160,9999,9999,9999,1894163560
11717,18,Jits_Linear_8,161,9999,9999,9999,1894663236
11717,18,Jits_Linear_8,162,9999,9999,9999,1895164024
11717,18,Jits_Linear_8,163,9999,9999,9999,1895663700
11717,18,Jits_Linear_8,164,9999,9999,9999,1896163452
11717,18,Jits_Linear_8,165,9999,9999,9999,1896653916
11717,18,Jits_Linear_8,166,9999,9999,9999,1897143420
11717,18,Jits_Linear_8,167,9999,9999,9999,1897633884
11717,18,Jits_Linear_8,168,9999,9999,9999,1898123376
11717,18,Jits_Linear_8,169,9999,9999,9999,1898613852
11718,16,Jits_ISO_5,0,5,56,103,1906477436
11718,16,Jits_ISO_5,1,5,63,98,1906480384
11718,16,Jits_ISO_5,2,5,80,127,1906483508
11718,16,Jits_ISO_5,0,5,56,103,1906978284
11718,16,Jits_ISO_5,1,5,63,98,1906981380
11718,16,Jits_ISO_5,2,5,80,127,1906984504
11718,16,Jits_ISO_5,0,5,56,103,1907477872
11718,16,Jits_ISO_5,1,5,80,127,1907488288
11718,16,Jits_ISO_5,2,5,63,98,1907507552
11718,16,Jits_ISO_5,0,5,63,98,1907928464
11718,16,Jits_ISO_5,1,5,80,127,1907958288
11718,16,Jits_ISO_5,2,5,56,103,1907968408
11718,16,Jits_ISO_5,0,1,48,37,1908352924
11718,16,Jits_ISO_5,1,5,80,127,1908487500
11718,16,Jits_ISO_5,2,5,56,103,1908497772
11718,16,Jits_ISO_5,3,5,63,98,1908527448
11718,16,Jits_ISO_5,0,1,48,21,1908876276
11718,16,Jits_ISO_5,1,5,63,98,1908978172
11718,16,Jits_ISO_5,2,5,56,103,1909007624
11718,16,Jits_ISO_5,3,5,80,127,1909017820
11718,16,Jits_ISO_5,0,1,48,23,1909380504
11718,16,Jits_ISO_5,1,5,56,103,1909427656
11718,16,Jits_ISO_5,2,5,63,98,1909478812
11718,16,Jits_ISO_5,3,5,80,127,1909498300
11718,16,Jits_ISO_5,0,1,48,23,1909855284
11718,16,Jits_ISO_5,1,5,80,127,1909928212
11718,16,Jits_ISO_5,2,5,63,98,1909977352
11718,16,Jits_ISO_5,3,5,56,103,1910018408
11718,16,Jits_ISO_5,0,1,48,20,1910379524
11718,16,Jits_ISO_5,1,5,56,103,1910427948
11718,16,Jits_ISO_5,2,5,63,98,1910457696
11718,16,Jits_ISO_5,3,5,80,127,1910528332
11718,16,Jits_ISO_5,0,1,48,21,1910859372
11718,16,Jits_ISO_5,1,5,56,103,1910927604
11718,16,Jits_ISO_5,2,5,80,127,1910988128
11718,16,Jits_ISO_5,3,5,63,98,1911017952
11718,16,Jits_ISO_5,0,1,48,18,1911346604
11718,16,Jits_ISO_5,1,5,56,103,1911437604
11718,16,Jits_ISO_5,2,5,63,98,1911447784
11718,16,Jits_ISO_5,3,5,80,127,1911487796
11718,16,Jits_ISO_5,0,1,48,17,1911846784
11718,16,Jits_ISO_5,1,5,63,98,1911928192
11718,16,Jits_ISO_5,2,5,80,127,1912008196
11718,16,Jits_ISO_5,3,5,56,103,1912018316
11718,16,Jits_ISO_5,0,1,48,16,1912367420
11718,16,Jits_ISO_5,1,5,63,98,1912478332
11718,16,Jits_ISO_5,2,5,56,103,1912517972
11718,16,Jits_ISO_5,3,5,80,127,1912521112
11718,16,Jits_ISO_5,0,1,48,21,1912877036
11718,16,Jits_ISO_5,1,5,56,103,1912937772
11718,16,Jits_ISO_5,2,5,63,98,1912948264
11718,16,Jits_ISO_5,3,5,80,127,1912987960
11718,16,Jits_ISO_5,0,1,48,17,1913345068
11718,16,Jits_ISO_5,1,5,56,103,1913428204
11718,16,Jits_ISO_5,2,5,63,98,1913431424
11718,16,Jits_ISO_5,3,5,80,127,1913447752
11718,16,Jits_ISO_5,0,1,48,20,1913860668
11718,16,Jits_ISO_5,1,5,80,127,1913938388
11718,16,Jits_ISO_5,2,5,56,103,1913947560
11718,16,Jits_ISO_5,3,5,63,98,1914018120
11718,16,Jits_ISO_5,0,1,48,17,1914355296
11718,16,Jits_ISO_5,1,5,63,98,1914427708
11718,16,Jits_ISO_5,2,5,56,103,1914448092
11718,16,Jits_ISO_5,3,5,80,127,1914528312
11718,16,Jits_ISO_5,0,1,48,19,1914893816
11718,16,Jits_ISO_5,1,5,56,103,1914937752
11718,16,Jits_ISO_5,2,5,80,127,1914977716
11718,16,Jits_ISO_5,3,5,63,98,1914987836
11718,16,Jits_ISO_5,0,1,48,20,1915388756
11718,16,Jits_ISO_5,1,5,80,127,1915428120
11718,16,Jits_ISO_5,2,5,63,98,1915457940
11718,16,Jits_ISO_5,3,5,56,103,1915497888
11718,16,Jits_ISO_5,0,1,48,19,1915919952
11718,16,Jits_ISO_5,1,5,56,103,1915948448
11718,16,Jits_ISO_5,2,5,63,98,1915978268
11718,16,Jits_ISO_5,3,5,80,127,1916028328
11718,16,Jits_ISO_5,0,1,48,20,1916418120
11718,16,Jits_ISO_5,1,5,80,127,1916448036
11718,16,Jits_ISO_5,2,5,56,103,1916488196
11718,16,Jits_ISO_5,3,5,63,98,1916498244
11718,16,Jits_ISO_5,0,1,48,19,1916918672
11718,16,Jits_ISO_5,1,5,80,127,1916928292
11718,16,Jits_ISO_5,2,5,63,98,1916968304
11718,16,Jits_ISO_5,3,5,56,103,1917027728
11718,16,Jits_ISO_5,0,5,56,103,1917428256
11718,16,Jits_ISO_5,1,5,80,127,1917438304
11718,16,Jits_ISO_5,2,1,48,18,1917442100
11718,16,Jits_ISO_5,3,5,63,98,1917518236
11718,16,Jits_ISO_5,0,5,80,127,1917927780
11718,16,Jits_ISO_5,1,1,48,18,1917935460
11718,16,Jits_ISO_5,2,5,63,98,1917988312
11718,16,Jits_ISO_5,3,5,56,103,1918017984
11718,16,Jits_ISO_5,0,1,48,19,1918417312
11718,16,Jits_ISO_5,1,5,56,103,1918427596
11718,16,Jits_ISO_5,2,5,80,127,1918488136
11718,16,Jits_ISO_5,3,5,63,98,1918527980
11718,16,Jits_ISO_5,0,1,48,21,1918905268
11718,16,Jits_ISO_5,1,5,56,103,1918978280
11718,16,Jits_ISO_5,2,5,63,98,1918987648
11718,16,Jits_ISO_5,3,5,80,127,1918991160
11718,16,Jits_ISO_5,0,1,48,28,1919418572
11718,16,Jits_ISO_5,1,5,80,127,1919428108
11718,16,Jits_ISO_5,2,5,63,98,1919518224
11718,16,Jits_ISO_5,3,5,56,103,1919528272
11718,16,Jits_ISO_5,0,5,56,103,1919927612
11718,16,Jits_ISO_5,1,5,63,98,1919930708
11718,16,Jits_ISO_5,2,5,80,127,1919934132
11718,16,Jits_ISO_5,3,1,48,26,1919946404
11718,16,Jits_ISO_5,0,1,48,30,1920401092
11718,16,Jits_ISO_5,1,5,80,127,1920447952
11718,16,Jits_ISO_5,2,5,63,98,1920498136
11718,16,Jits_ISO_5,3,5,56,103,1920527588
11718,16,Jits_ISO_5,0,5,56,103,1920938324
11718,16,Jits_ISO_5,1,1,48,23,1920943540
11718,16,Jits_ISO_5,2,5,80,127,1920947616
11718,16,Jits_ISO_5,3,5,63,98,1921018116
11718,16,Jits_ISO_5,0,5,56,103,1921448188
11718,16,Jits_ISO_5,1,1,48,26,1921459772
11718,16,Jits_ISO_5,2,5,63,98,1921467892
11718,16,Jits_ISO_5,3,5,80,127,1921528128
11718,16,Jits_ISO_5,0,1,48,26,1921927900
11718,16,Jits_ISO_5,1,5,80,127,1921937960
11718,16,Jits_ISO_5,2,5,63,98,1922008392
11718,16,Jits_ISO_5,3,5,56,103,1922027860
11718,16,Jits_ISO_5,0,1,48,27,1922451076
11718,16,Jits_ISO_5,1,5,80,127,1922458076
11718,16,Jits_ISO_5,2,5,56,103,1922468120
11718,16,Jits_ISO_5,3,5,63,98,1922477344
11718,16,Jits_ISO_5,0,1,48,30,1922923984
11718,16,Jits_ISO_5,1,5,80,127,1922947392
11718,16,Jits_ISO_5,2,5,56,103,1922968000
11718,16,Jits_ISO_5,3,5,63,98,1923037588
11718,16,Jits_ISO_5,0,1,48,27,1923437212
11718,16,Jits_ISO_5,1,5,56,103,1923458512
11718,16,Jits_ISO_5,2,5,80,127,1923488036
11718,16,Jits_ISO_5,3,5,63,98,1923507524
11718,16,Jits_ISO_5,0,1,48,26,1923923672
11718,16,Jits_ISO_5,1,5,63,98,1923947980
11718,16,Jits_ISO_5,2,5,56,103,1924008444
11718,16,Jits_ISO_5,3,5,80,127,1924038104
11718,16,Jits_ISO_5,0,5,63,98,1924438356
11718,16,Jits_ISO_5,1,1,48,23,1924441796
11718,16,Jits_ISO_5,2,5,80,127,1924442984
11718,16,Jits_ISO_5,3,5,56,103,1924527432
11718,16,Jits_ISO_5,0,1,48,30,1924928960
11718,16,Jits_ISO_5,1,5,56,103,1924967968
11718,16,Jits_ISO_5,2,5,63,98,1924997496
11718,16,Jits_ISO_5,3,5,80,127,1925037416
11718,16,Jits_ISO_5,0,1,48,24,1925457540
11718,16,Jits_ISO_5,1,5,63,98,1925467628
11718,16,Jits_ISO_5,2,5,56,103,1925507416
11718,16,Jits_ISO_5,3,5,80,127,1925527876
11718,16,Jits_ISO_5,0,1,48,33,1925960792
11718,16,Jits_ISO_5,1,5,63,98,1925977476
11718,16,Jits_ISO_5,2,5,56,103,1926018384
11718,16,Jits_ISO_5,3,5,80,127,1926027608
11718,16,Jits_ISO_5,0,1,48,30,1926419392
11718,16,Jits_ISO_5,1,5,80,127,1926457852
11718,16,Jits_ISO_5,2,5,63,98,1926528368
11718,16,Jits_ISO_5,3,5,56,103,1926548152
11718,16,Jits_ISO_5,0,5,56,103,1926948232
11718,16,Jits_ISO_5,1,5,80,127,1926967792
11718,16,Jits_ISO_5,2,1,48,29,1926972032
11718,16,Jits_ISO_5,3,5,63,98,1927007524
11718,16,Jits_ISO_5,0,1,48,26,1927450932
11718,16,Jits_ISO_5,1,5,63,98,1927458228
11718,16,Jits_ISO_5,2,5,80,127,1927477564
11718,16,Jits_ISO_5,3,5,56,103,1927517524
11718,16,Jits_ISO_5,0,1,48,29,1927925260
11718,16,Jits_ISO_5,1,5,63,98,1927957808
11718,16,Jits_ISO_5,2,5,56,103,1927978416
11718,16,Jits_ISO_5,3,5,80,127,1927987492
11718,16,Jits_ISO_5,0,1,48,29,1928402368
11718,16,Jits_ISO_5,1,5,80,127,1928457540
11718,16,Jits_ISO_5,2,5,56,103,1928477924
11718,16,Jits_ISO_5,3,5,63,98,1928507880
11718,16,Jits_ISO_5,0,1,48,25,1928914308
11718,16,Jits_ISO_5,1,5,56,103,1929028048
11718,16,Jits_ISO_5,2,5,80,127,1929030968
11718,16,Jits_ISO_5,3,5,63,98,1929048456
11718,16,Jits_ISO_5,0,1,48,26,1929442280
11718,16,Jits_ISO_5,1,5,63,98,1929447784
11718,16,Jits_ISO_5,2,5,56,103,1929477680
11718,16,Jits_ISO_5,3,5,80,127,1929537844
11718,16,Jits_ISO_5,0,1,48,29,1929945844
11718,16,Jits_ISO_5,1,5,63,98,1930028424
11718,16,Jits_ISO_5,2,5,56,103,1930037796
11718,16,Jits_ISO_5,3,5,80,127,1930047828
11718,16,Jits_ISO_5,0,1,48,26,1930457716
11718,16,Jits_ISO_5,1,5,56,103,1930477892
11718,16,Jits_ISO_5,2,5,80,127,1930508012
11718,16,Jits_ISO_5,3,5,63,98,1930517836
11718,16,Jits_ISO_5,0,1,48,27,1930965232
11718,16,Jits_ISO_5,1,5,63,98,1931017708
11718,16,Jits_ISO_5,2,5,56,103,1931027904
11718,16,Jits_ISO_5,3,5,80,127,1931048288
11718,16,Jits_ISO_5,0,1,48,25,1931439356
11718,16,Jits_ISO_5,1,5,56,103,1931447844
11718,16,Jits_ISO_5,2,5,63,98,1931508012
11718,16,Jits_ISO_5,3,5,80,127,1931511300
11718,16,Jits_ISO_5,0,1,48,22,1931953908
11718,16,Jits_ISO_5,1,5,80,127,1931967876
11718,16,Jits_ISO_5,2,5,56,103,1931978072
11718,16,Jits_ISO_5,3,5,63,98,1932048484
11718,16,Jits_ISO_5,0,1,48,29,1932402924
11718,16,Jits_ISO_5,1,5,80,127,1932467684
11718,16,Jits_ISO_5,2,5,56,103,1932538100
11718,16,Jits_ISO_5,3,5,63,98,1932547396
11718,16,Jits_ISO_5,0,1,48,24,1932954348
11718,16,Jits_ISO_5,1,5,63,98,1933008176
11718,16,Jits_ISO_5,2,5,56,103,1933017400
11718,16,Jits_ISO_5,3,5,80,127,1933037932
11718,16,Jits_ISO_5,0,5,80,127,1933457796
11718,16,Jits_ISO_5,1,1,48,26,1933474768
11718,16,Jits_ISO_5,2,5,63,98,1933518180
11718,16,Jits_ISO_5,3,5,56,103,1933558116
11718,16,Jits_ISO_5,0,1,48,24,1933978792
11718,16,Jits_ISO_5,1,5,56,103,1933997320
11718,16,Jits_ISO_5,2,5,63,98,1934007816
11718,16,Jits_ISO_5,3,5,80,127,1934047676
11718,16,Jits_ISO_5,0,5,56,103,1934458180
11718,16,Jits_ISO_5,1,1,48,22,1934467892
11718,16,Jits_ISO_5,2,5,80,127,1934487848
11718,16,Jits_ISO_5,3,5,63,98,1934537972
11718,16,Jits_ISO_5,0,1,48,25,1934907748
11718,16,Jits_ISO_5,1,5,56,103,1934998000
11718,16,Jits_ISO_5,2,5,63,98,1935037920
11718,16,Jits_ISO_5,3,5,80,127,1935040988
11718,16,Jits_ISO_5,0,1,48,23,1935409348
11718,16,Jits_ISO_5,1,5,56,103,1935497876
11718,16,Jits_ISO_5,2,5,63,98,1935507912
11718,16,Jits_ISO_5,3,5,80,127,1935528444
11718,16,Jits_ISO_5,0,1,48,23,1935941672
11718,16,Jits_ISO_5,1,5,56,103,1935958428
11718,16,Jits_ISO_5,2,5,80,127,1935961568
11718,16,Jits_ISO_5,3,5,63,98,1935998288
11718,16,Jits_ISO_5,0,1,48,21,1936444532
11718,16,Jits_ISO_5,1,5,63,98,1936508492
11718,16,Jits_ISO_5,2,5,56,103,1936538680
11718,16,Jits_ISO_5,3,5,80,127,1936557640
11718,16,Jits_ISO_5,0,1,48,23,1936932428
11718,16,Jits_ISO_5,1,5,80,127,1936978560
11718,16,Jits_ISO_5,2,5,56,103,1936987632
11718,16,Jits_ISO_5,3,5,63,98,1936997828
11718,16,Jits_ISO_5,0,1,48,20,1937458084
11718,16,Jits_ISO_5,1,5,56,103,1937477964
11718,16,Jits_ISO_5,2,5,80,127,1937517928
11718,16,Jits_ISO_5,3,5,63,98,1937547676
11718,16,Jits_ISO_5,0,1,48,19,1937961484
11718,16,Jits_ISO_5,1,5,63,98,1937987812
11718,16,Jits_ISO_5,2,5,80,127,1937998160
11718,16,Jits_ISO_5,3,5,56,103,1938008600
11718,16,Jits_ISO_5,0,1,48,21,1938427584
11718,16,Jits_ISO_5,1,5,56,103,1938468064
11718,16,Jits_ISO_5,2,5,63,98,1938537752
11718,16,Jits_ISO_5,3,5,80,127,1938548024
11718,16,Jits_ISO_5,0,1,48,19,1938915780
11718,16,Jits_ISO_5,1,5,80,127,1938967868
11718,16,Jits_ISO_5,2,5,56,103,1938978288
11718,16,Jits_ISO_5,3,5,63,98,1939028272
11718,16,Jits_ISO_5,0,1,48,19,1939407940
11718,16,Jits_ISO_5,1,5,80,127,1939477788
11718,16,Jits_ISO_5,2,5,56,103,1939538188
11718,16,Jits_ISO_5,3,5,63,98,1939568008
11718,16,Jits_ISO_5,0,1,48,24,1939966712
11718,16,Jits_ISO_5,1,5,56,103,1939977596
11718,16,Jits_ISO_5,2,5,80,127,1939980736
11718,16,Jits_ISO_5,3,5,63,98,1940017756
11718,16,Jits_ISO_5,0,1,48,23,1940462156
11718,16,Jits_ISO_5,1,5,56,103,1940508036
11718,16,Jits_ISO_5,2,5,63,98,1940537640
11718,16,Jits_ISO_5,3,5,80,127,1940547984
11718,16,Jits_ISO_5,0,1,48,19,1940958528
11718,16,Jits_ISO_5,1,5,63,98,1941017964
11718,16,Jits_ISO_5,2,5,80,127,1941028236
11718,16,Jits_ISO_5,3,5,56,103,1941037532
11718,16,Jits_ISO_5,0,1,48,21,1941442976
11718,16,Jits_ISO_5,1,5,80,127,1941467580
11718,16,Jits_ISO_5,2,5,56,103,1941517704
11718,16,Jits_ISO_5,3,5,63,98,1941520768
11718,16,Jits_ISO_5,0,1,48,18,1941941500
11718,16,Jits_ISO_5,1,5,56,103,1941997868
11718,16,Jits_ISO_5,2,5,80,127,1942018476
11718,16,Jits_ISO_5,3,5,63,98,1942027772
11718,16,Jits_ISO_5,0,1,48,18,1942432988
11718,16,Jits_ISO_5,1,5,63,98,1942478272
11718,16,Jits_ISO_5,2,5,56,103,1942507872
11718,16,Jits_ISO_5,3,5,80,127,1942528476
11718,16,Jits_ISO_5,0,1,48,16,1942918420
11718,16,Jits_ISO_5,1,5,56,103,1942988264
11718,16,Jits_ISO_5,2,5,80,127,1942998460
11718,16,Jits_ISO_5,3,5,63,98,1943067900
11718,16,Jits_ISO_5,0,1,48,15,1943399940
11718,16,Jits_ISO_5,1,5,63,98,1943477512
11718,16,Jits_ISO_5,2,5,80,127,1943517732
11718,16,Jits_ISO_5,3,5,56,103,1943557444
11718,16,Jits_ISO_5,0,1,48,19,1943972788
11718,16,Jits_ISO_5,1,5,56,103,1943997848
11718,16,Jits_ISO_5,2,5,63,98,1944008268
11718,16,Jits_ISO_5,3,5,80,127,1944027752
11718,16,Jits_ISO_5,0,1,48,20,1944479048
11718,16,Jits_ISO_5,1,5,63,98,1944537440
11718,16,Jits_ISO_5,2,5,80,127,1944557972
11718,16,Jits_ISO_5,3,5,56,103,1944578564
11718,16,Jits_ISO_5,0,5,56,103,1944977768
11718,16,Jits_ISO_5,1,1,48,22,1945003212
11718,16,Jits_ISO_5,2,5,80,127,1945057632
11718,16,Jits_ISO_5,3,5,63,98,1945067828
11718,16,Jits_ISO_5,0,1,48,16,1945443692
11718,16,Jits_ISO_5,1,5,80,127,1945517668
11718,16,Jits_ISO_5,2,5,63,98,1945527644
11718,16,Jits_ISO_5,3,5,56,103,1945558572
11718,16,Jits_ISO_5,0,1,48,17,1945936296
11718,16,Jits_ISO_5,1,5,63,98,1945978520
11718,16,Jits_ISO_5,2,5,80,127,1946018232
11718,16,Jits_ISO_5,3,5,56,103,1946077632
11718,16,Jits_ISO_5,0,5,63,98,1946488152
11718,16,Jits_ISO_5,1,5,56,103,1946538500
11718,16,Jits_ISO_5,2,5,80,127,1946568024
11718,16,Jits_ISO_5,0,1,48,19,1946966272
11718,16,Jits_ISO_5,1,5,80,127,1946998056
11718,16,Jits_ISO_5,2,5,63,98,1947008552
11718,16,Jits_ISO_5,3,5,56,103,1947078064
11718,16,Jits_ISO_5,0,1,48,23,1947462148
11718,16,Jits_ISO_5,1,5,80,127,1947567524
11718,16,Jits_ISO_5,2,5,56,103,1947577792
11718,16,Jits_ISO_5,3,5,63,98,1947580860
11718,16,Jits_ISO_5,0,1,48,18,1947975656
11718,16,Jits_ISO_5,1,5,56,103,1948017972
11718,16,Jits_ISO_5,2,5,80,127,1948037460
11718,16,Jits_ISO_5,3,5,63,98,1948047804
11718,16,Jits_ISO_5,0,1,48,17,1948479600
11718,16,Jits_ISO_5,1,5,63,98,1948527972
11718,16,Jits_ISO_5,2,5,56,103,1948568060
11718,16,Jits_ISO_5,3,5,80,127,1948588356
11718,16,Jits_ISO_5,0,1,48,22,1948960748
11718,16,Jits_ISO_5,1,5,63,98,1949027564
11718,16,Jits_ISO_5,2,5,56,103,1949088004
11718,16,Jits_ISO_5,3,5,80,127,1949091152
11718,16,Jits_ISO_5,0,5,56,103,1949487564
11718,16,Jits_ISO_5,1,1,48,22,1949504312
11718,16,Jits_ISO_5,2,5,80,127,1949508020
11718,16,Jits_ISO_5,3,5,63,98,1949547904
11718,16,Jits_ISO_5,0,1,48,19,1949941948
11718,16,Jits_ISO_5,1,5,56,103,1950018020
11718,16,Jits_ISO_5,2,5,63,98,1950038340
11718,16,Jits_ISO_5,3,5,80,127,1950047488
11718,16,Jits_ISO_5,0,1,48,20,1950440776
11718,16,Jits_ISO_5,1,5,80,127,1950487780
11718,16,Jits_ISO_5,2,5,56,103,1950517604
11718,16,Jits_ISO_5,3,5,63,98,1950557548
11718,16,Jits_ISO_5,0,1,48,22,1950886796
11718,16,Jits_ISO_5,1,5,80,127,1950997836
11718,16,Jits_ISO_5,2,5,56,103,1951018444
11718,16,Jits_ISO_5,3,5,63,98,1951077660
11718,16,Jits_ISO_5,0,1,48,19,1951435436
11718,16,Jits_ISO_5,1,5,56,103,1951507772
11718,16,Jits_ISO_5,2,5,80,127,1951528380
11718,16,Jits_ISO_5,3,5,63,98,1951587656
11718,16,Jits_ISO_5,0,1,48,19,1951942148
11718,16,Jits_ISO_5,1,5,80,127,1951988476
11718,16,Jits_ISO_5,2,5,56,103,1951998672
11718,16,Jits_ISO_5,3,5,63,98,1952038236
11718,16,Jits_ISO_5,0,1,48,18,1952420748
11718,16,Jits_ISO_5,1,5,63,98,1952487684
11718,16,Jits_ISO_5,2,5,56,103,1952527756
11718,16,Jits_ISO_5,3,5,80,127,1952530748
11718,16,Jits_ISO_5,0,1,48,16,1952937112
11718,16,Jits_ISO_5,1,5,63,98,1953007932
11718,16,Jits_ISO_5,2,5,80,127,1953047856
11718,16,Jits_ISO_5,3,5,56,103,1953077528
11718,16,Jits_ISO_5,0,1,48,16,1953426208
11718,16,Jits_ISO_5,1,5,56,103,1953497404
11718,16,Jits_ISO_5,2,5,63,98,1953507900
11718,16,Jits_ISO_5,3,5,80,127,1953538380
11718,16,Jits_ISO_5,0,1,48,13,1953923156
11718,16,Jits_ISO_5,1,5,80,127,1953987916
11718,16,Jits_ISO_5,2,5,63,98,1954057580
11718,16,Jits_ISO_5,3,5,56,103,1954067776
11718,16,Jits_ISO_5,0,1,48,17,1954445364
11718,16,Jits_ISO_5,1,5,63,98,1954487800
11718,16,Jits_ISO_5,2,5,56,103,1954558436
11718,16,Jits_ISO_5,3,5,80,127,1954567660
11718,16,Jits_ISO_5,0,1,48,15,1954957768
11718,16,Jits_ISO_5,1,5,63,98,1954988504
11718,16,Jits_ISO_5,2,5,56,103,1955007992
11718,16,Jits_ISO_5,3,5,80,127,1955047780
11718,16,Jits_ISO_5,0,1,48,18,1955436748
11718,16,Jits_ISO_5,1,5,56,103,1955507716
11718,16,Jits_ISO_5,2,5,63,98,1955517836
11718,16,Jits_ISO_5,3,5,80,127,1955597540
11718,16,Jits_ISO_5,0,1,48,18,1955934672
11718,16,Jits_ISO_5,1,5,63,98,1955998308
11718,16,Jits_ISO_5,2,5,56,103,1956027760
11718,16,Jits_ISO_5,3,5,80,127,1956067608
11718,16,Jits_ISO_5,0,1,48,15,1956434180
11718,16,Jits_ISO_5,1,5,56,103,1956497744
11718,16,Jits_ISO_5,2,5,63,98,1956537592
11718,16,Jits_ISO_5,3,5,80,127,1956577528
11718,16,Jits_ISO_5,0,1,48,14,1956947184
11718,16,Jits_ISO_5,1,5,80,127,1956997404
11718,16,Jits_ISO_5,2,5,56,103,1957078376
11718,16,Jits_ISO_5,3,5,63,98,1957087452
11718,16,Jits_ISO_5,0,1,48,16,1957488196
11718,16,Jits_ISO_5,1,5,56,103,1957538264
11718,16,Jits_ISO_5,2,5,63,98,1957541180
11718,16,Jits_ISO_5,3,5,80,127,1957548608
11718,16,Jits_ISO_5,0,1,48,18,1957977288
11718,16,Jits_ISO_5,1,5,56,103,1958058368
11718,16,Jits_ISO_5,2,5,63,98,1958077988
11718,16,Jits_ISO_5,3,5,80,127,1958088260
11718,16,Jits_ISO_5,0,1,48,15,1958496876
11718,16,Jits_ISO_5,1,5,63,98,1958518252
11718,16,Jits_ISO_5,2,5,80,127,1958528372
11718,16,Jits_ISO_5,3,5,56,103,1958548004
11718,16,Jits_ISO_5,0,1,48,14,1958987740
11718,16,Jits_ISO_5,1,5,63,98,1959017832
11718,16,Jits_ISO_5,2,5,56,103,1959097832
11718,16,Jits_ISO_5,3,5,80,127,1959100748
11718,16,Jits_ISO_5,0,1,48,17,1959476460
11718,16,Jits_ISO_5,1,5,63,98,1959527748
11718,16,Jits_ISO_5,2,5,56,103,1959548356
11718,16,Jits_ISO_5,3,5,80,127,1959578240
11718,16,Jits_ISO_5,0,1,48,16,1959968848
11718,16,Jits_ISO_5,1,5,56,103,1960027632
11718,16,Jits_ISO_5,2,5,63,98,1960048164
11718,16,Jits_ISO_5,3,5,80,127,1960058360
11718,16,Jits_ISO_5,0,1,48,15,1960483552
11718,16,Jits_ISO_5,1,5,56,103,1960558156
11718,16,Jits_ISO_5,2,5,63,98,1960587592
11718,16,Jits_ISO_5,3,5,80,127,1960590880
11718,16,Jits_ISO_5,0,1,48,15,1960978720
11718,16,Jits_ISO_5,1,5,56,103,1961007588
11718,16,Jits_ISO_5,2,5,63,98,1961048448
11718,16,Jits_ISO_5,3,5,80,127,1961107696
11718,16,Jits_ISO_5,0,1,48,14,1961459944
11718,16,Jits_ISO_5,1,5,56,103,1961527624
11718,16,Jits_ISO_5,2,5,63,98,1961537896
11718,16,Jits_ISO_5,3,5,80,127,1961598364
11718,16,Jits_ISO_5,0,1,48,15,1961957200
11718,16,Jits_ISO_5,1,5,56,103,1962028472
11718,16,Jits_ISO_5,2,5,80,127,1962047808
11718,16,Jits_ISO_5,3,5,63,98,1962077568
11718,16,Jits_ISO_5,0,5,80,127,1962528064
11718,16,Jits_ISO_5,1,5,56,103,1962538336
11718,16,Jits_ISO_5,2,5,63,98,1962557744
11718,16,Jits_ISO_5,0,1,48,19,1962959516
11718,16,Jits_ISO_5,1,5,63,98,1963017532
11718,16,Jits_ISO_5,2,5,80,127,1963097484
11718,16,Jits_ISO_5,3,5,56,103,1963107680
11718,16,Jits_ISO_5,0,1,48,16,1963480528
11718,16,Jits_ISO_5,1,5,80,127,1963578388
11718,16,Jits_ISO_5,2,5,56,103,1963598092
11718,16,Jits_ISO_5,3,5,63,98,1963601236
11718,16,Jits_ISO_5,0,1,48,17,1964034844
11718,16,Jits_ISO_5,1,5,63,98,1964047988
11718,16,Jits_ISO_5,2,5,80,127,1964051200
11718,16,Jits_ISO_5,3,5,56,103,1964108224
11718,16,Jits_ISO_5,0,1,48,18,1964521088
11718,16,Jits_ISO_5,1,5,56,103,1964528088
11718,16,Jits_ISO_5,2,5,80,127,1964538284
11718,16,Jits_ISO_5,3,5,63,98,1964578292
11718,16,Jits_ISO_5,0,5,56,103,1965008348
11718,16,Jits_ISO_5,1,1,48,13,1965010716
11718,16,Jits_ISO_5,2,5,63,98,1965067684
11718,16,Jits_ISO_5,3,5,80,127,1965078028
11718,16,Jits_ISO_5,0,5,63,98,1965518288
11718,16,Jits_ISO_5,1,5,80,127,1965558148
11718,16,Jits_ISO_5,2,5,56,103,1965598160
11718,16,Jits_ISO_5,0,1,48,16,1965955508
11718,16,Jits_ISO_5,1,5,56,103,1966018156
11718,16,Jits_ISO_5,2,5,63,98,1966097708
11718,16,Jits_ISO_5,3,5,80,127,1966101368
11718,16,Jits_ISO_5,0,9999,9999,9999,1906725988
11718,16,Jits_ISO_5,1,9999,9999,9999,1907225712
11718,16,Jits_ISO_5,2,9999,9999,9999,1907725380
11718,16,Jits_ISO_5,3,9999,9999,9999,1908225116
11718,16,Jits_ISO_5,4,9999,9999,9999,1908725868
11718,16,Jits_ISO_5,5,9999,9999,9999,1909225532
11718,16,Jits_ISO_5,6,9999,9999,9999,1909725268
11718,16,Jits_ISO_5,7,9999,9999,9999,1910225976
11718,16,Jits_ISO_5,8,9999,9999,9999,1910725708
11718,16,Jits_ISO_5,9,9999,9999,9999,1911225440
11718,16,Jits_ISO_5,10,9999,9999,9999,1911725172
11718,16,Jits_ISO_5,11,9999,9999,9999,1912225880
11718,16,Jits_ISO_5,12,9999,9999,9999,1912725608
11718,16,Jits_ISO_5,13,9999,9999,9999,1913225340
11718,16,Jits_ISO_5,14,9999,9999,9999,1913726028
11718,16,Jits_ISO_5,15,9999,9999,9999,1914225760
11718,16,Jits_ISO_5,16,9999,9999,9999,1914725464
11718,16,Jits_ISO_5,17,9999,9999,9999,1915225200
11718,16,Jits_ISO_5,18,9999,9999,9999,1915725876
11718,16,Jits_ISO_5,19,9999,9999,9999,1916225608
11718,16,Jits_ISO_5,20,9999,9999,9999,1916725344
11718,16,Jits_ISO_5,21,9999,9999,9999,1917226052
11718,16,Jits_ISO_5,22,9999,9999,9999,1917725784
11718,16,Jits_ISO_5,23,9999,9999,9999,1918225460
11718,16,Jits_ISO_5,24,9999,9999,9999,1918725208
11718,16,Jits_ISO_5,25,9999,9999,9999,1919225912
11718,16,Jits_ISO_5,26,9999,9999,9999,1919725648
11718,16,Jits_ISO_5,27,9999,9999,9999,1920225356
11718,16,Jits_ISO_5,28,9999,9999,9999,1920726084
11718,16,Jits_ISO_5,29,9999,9999,9999,1921236076
11718,16,Jits_ISO_5,30,9999,9999,9999,1921735752
11718,16,Jits_ISO_5,31,9999,9999,9999,1922235500
11718,16,Jits_ISO_5,32,9999,9999,9999,1922735156
11718,16,Jits_ISO_5,33,9999,9999,9999,1923235936
11718,16,Jits_ISO_5,34,9999,9999,9999,1923735672
11718,16,Jits_ISO_5,35,9999,9999,9999,1924235332
11718,16,Jits_ISO_5,36,9999,9999,9999,1924736104
11718,16,Jits_ISO_5,37,9999,9999,9999,1925246028
11718,16,Jits_ISO_5,38,9999,9999,9999,1925745760
11718,16,Jits_ISO_5,39,9999,9999,9999,1926245492
11718,16,Jits_ISO_5,40,9999,9999,9999,1926745156
11718,16,Jits_ISO_5,41,9999,9999,9999,1927245908
11718,16,Jits_ISO_5,42,9999,9999,9999,1927745648
11718,16,Jits_ISO_5,43,9999,9999,9999,1928245304
11718,16,Jits_ISO_5,44,9999,9999,9999,1928746080
11718,16,Jits_ISO_5,45,9999,9999,9999,1929245812
11718,16,Jits_ISO_5,46,9999,9999,9999,1929745468
11718,16,Jits_ISO_5,47,9999,9999,9999,1930245208
11718,16,Jits_ISO_5,48,9999,9999,9999,1930745912
11718,16,Jits_ISO_5,49,9999,9999,9999,1931245652
11718,16,Jits_ISO_5,50,9999,9999,9999,1931745376
11718,16,Jits_ISO_5,51,9999,9999,9999,1932246080
11718,16,Jits_ISO_5,52,9999,9999,9999,1932756084
11718,16,Jits_ISO_5,53,9999,9999,9999,1933255744
11718,16,Jits_ISO_5,54,9999,9999,9999,1933755476
11718,16,Jits_ISO_5,55,9999,9999,9999,1934255228
11718,16,Jits_ISO_5,56,9999,9999,9999,1934755932
11718,16,Jits_ISO_5,57,9999,9999,9999,1935255672
11718,16,Jits_ISO_5,58,9999,9999,9999,1935755336
11718,16,Jits_ISO_5,59,9999,9999,9999,1936256100
11718,16,Jits_ISO_5,60,9999,9999,9999,1936766024
11718,16,Jits_ISO_5,61,9999,9999,9999,1937265756
11718,16,Jits_ISO_5,62,9999,9999,9999,1937765488
11718,16,Jits_ISO_5,63,9999,9999,9999,1938265144
11718,16,Jits_ISO_5,64,9999,9999,9999,1938765900
11718,16,Jits_ISO_5,65,9999,9999,9999,1939265624
11718,16,Jits_ISO_5,66,9999,9999,9999,1939765360
11718,16,Jits_ISO_5,67,9999,9999,9999,1940266056
11718,16,Jits_ISO_5,68,9999,9999,9999,1940765792
11718,16,Jits_ISO_5,69,9999,9999,9999,1941265532
11718,16,Jits_ISO_5,70,9999,9999,9999,1941765180
11718,16,Jits_ISO_5,71,9999,9999,9999,1942265960
11718,16,Jits_ISO_5,72,9999,9999,9999,1942765692
11718,16,Jits_ISO_5,73,9999,9999,9999,1943265352
11718,16,Jits_ISO_5,74,9999,9999,9999,1943766132
11718,16,Jits_ISO_5,75,9999,9999,9999,1944276052
11718,16,Jits_ISO_5,76,9999,9999,9999,1944775788
11718,16,Jits_ISO_5,77,9999,9999,9999,1945275448
11718,16,Jits_ISO_5,78,9999,9999,9999,1945775204
11718,16,Jits_ISO_5,79,9999,9999,9999,1946275908
11718,16,Jits_ISO_5,80,9999,9999,9999,1946775664
11718,16,Jits_ISO_5,81,9999,9999,9999,1947275364
11718,16,Jits_ISO_5,82,9999,9999,9999,1947776068
11718,16,Jits_ISO_5,83,9999,9999,9999,1948286064
11718,16,Jits_ISO_5,84,9999,9999,9999,1948785732
11718,16,Jits_ISO_5,85,9999,9999,9999,1949285464
11718,16,Jits_ISO_5,86,9999,9999,9999,1949785192
11718,16,Jits_ISO_5,87,9999,9999,9999,1950285888
11718,16,Jits_ISO_5,88,9999,9999,9999,1950785616
11718,16,Jits_ISO_5,89,9999,9999,9999,1951285348
11718,16,Jits_ISO_5,90,9999,9999,9999,1951786052
11718,16,Jits_ISO_5,91,9999,9999,9999,1952285784
11718,16,Jits_ISO_5,92,9999,9999,9999,1952785508
11718,16,Jits_ISO_5,93,9999,9999,9999,1953285240
11718,16,Jits_ISO_5,94,9999,9999,9999,1953785944
11718,16,Jits_ISO_5,95,9999,9999,9999,1954285676
11718,16,Jits_ISO_5,96,9999,9999,9999,1954785336
11718,16,Jits_ISO_5,97,9999,9999,9999,1955286112
11718,16,Jits_ISO_5,98,9999,9999,9999,1955796040
11718,16,Jits_ISO_5,99,9999,9999,9999,1956295772
11718,16,Jits_ISO_5,100,9999,9999,9999,1956795504
11718,16,Jits_ISO_5,101,9999,9999,9999,1957295164
11718,16,Jits_ISO_5,102,9999,9999,9999,1957795936
11718,16,Jits_ISO_5,103,9999,9999,9999,1958295676
11718,16,Jits_ISO_5,104,9999,9999,9999,1958795332
11718,16,Jits_ISO_5,105,9999,9999,9999,1959296108
11718,16,Jits_ISO_5,106,9999,9999,9999,1959806028
11718,16,Jits_ISO_5,107,9999,9999,9999,1960305764
11718,16,Jits_ISO_5,108,9999,9999,9999,1960805492
11718,16,Jits_ISO_5,109,9999,9999,9999,1961305148
11718,16,Jits_ISO_5,110,9999,9999,9999,1961805904
11718,16,Jits_ISO_5,111,9999,9999,9999,1962305632
11718,16,Jits_ISO_5,112,9999,9999,9999,1962805312
11718,16,Jits_ISO_5,113,9999,9999,9999,1963306076
11718,16,Jits_ISO_5,114,9999,9999,9999,1963805784
11718,16,Jits_ISO_5,115,9999,9999,9999,1964305512
11718,16,Jits_ISO_5,116,9999,9999,9999,1964805172
11718,16,Jits_ISO_5,117,9999,9999,9999,1965305952
11718,16,Jits_ISO_5,118,9999,9999,9999,1965805652
11718,16,Jits_ISO_5,119,9999,9999,9999,1966305348
11719,7,Jits_ISO_8,0,5,56,103,1976088056
11719,7,Jits_ISO_8,1,5,63,98,1976091084
11719,7,Jits_ISO_8,2,5,80,127,1976094204
11719,7,Jits_ISO_8,0,5,56,103,1976887756
11719,7,Jits_ISO_8,1,5,63,98,1976890780
11719,7,Jits_ISO_8,2,5,80,127,1976893904
11719,7,Jits_ISO_8,0,5,80,127,1977628060
11719,7,Jits_ISO_8,1,5,63,98,1977718148
11719,7,Jits_ISO_8,2,5,56,103,1977728268
11719,7,Jits_ISO_8,3,1,48,40,1977753036
11719,7,Jits_ISO_8,0,5,56,103,1978448336
11719,7,Jits_ISO_8,1,5,63,98,1978457340
11719,7,Jits_ISO_8,2,1,48,38,1978465240
11719,7,Jits_ISO_8,3,5,80,127,1978547760
11719,7,Jits_ISO_8,0,5,63,98,1979218168
11719,7,Jits_ISO_8,1,1,48,35,1979245552
11719,7,Jits_ISO_8,2,5,80,127,1979247988
11719,7,Jits_ISO_8,3,5,56,103,1979277960
11719,7,Jits_ISO_8,0,5,56,103,1980018096
11719,7,Jits_ISO_8,1,1,48,33,1980019580
11719,7,Jits_ISO_8,2,5,80,127,1980118252
11719,7,Jits_ISO_8,3,5,63,98,1980167480
11719,7,Jits_ISO_8,0,5,56,103,1980817740
11719,7,Jits_ISO_8,1,1,48,28,1980825568
11719,7,Jits_ISO_8,2,5,80,127,1980868012
11719,7,Jits_ISO_8,3,5,63,98,1980907952
11719,7,Jits_ISO_8,0,1,48,23,1981601244
11719,7,Jits_ISO_8,1,5,80,127,1981648100
11719,7,Jits_ISO_8,2,5,63,98,1981677928
11719,7,Jits_ISO_8,3,5,56,103,1981747668
11719,7,Jits_ISO_8,0,1,48,24,1982424996
11719,7,Jits_ISO_8,1,5,63,98,1982477928
11719,7,Jits_ISO_8,2,5,56,103,1982508428
11719,7,Jits_ISO_8,3,5,80,127,1982567708
11719,7,Jits_ISO_8,0,5,56,103,1983217932
11719,7,Jits_ISO_8,1,5,80,127,1983221148
11719,7,Jits_ISO_8,2,1,48,15,1983238812
11719,7,Jits_ISO_8,3,5,63,98,1983337812
11719,7,Jits_ISO_8,0,1,48,28,1983996416
11719,7,Jits_ISO_8,1,5,56,103,1984097816
11719,7,Jits_ISO_8,2,5,80,127,1984137680
11719,7,Jits_ISO_8,3,5,63,98,1984147804
11719,7,Jits_ISO_8,0,1,48,34,1984812380
11719,7,Jits_ISO_8,1,5,56,103,1984857764
11719,7,Jits_ISO_8,2,5,80,127,1984877852
11719,7,Jits_ISO_8,3,5,63,98,1984957780
11719,7,Jits_ISO_8,0,5,80,127,1985647968
11719,7,Jits_ISO_8,1,1,48,32,1985669224
11719,7,Jits_ISO_8,2,5,56,103,1985748436
11719,7,Jits_ISO_8,3,5,63,98,1985757584
11719,7,Jits_ISO_8,0,5,63,98,1986417952
11719,7,Jits_ISO_8,1,5,80,127,1986477672
11719,7,Jits_ISO_8,2,5,56,103,1986487792
11719,7,Jits_ISO_8,3,1,48,30,1986534732
11719,7,Jits_ISO_8,0,1,48,25,1987214540
11719,7,Jits_ISO_8,1,5,56,103,1987217796
11719,7,Jits_ISO_8,2,5,63,98,1987288376
11719,7,Jits_ISO_8,3,5,80,127,1987291812
11719,7,Jits_ISO_8,0,1,48,24,1987988992
11719,7,Jits_ISO_8,1,5,63,98,1988048208
11719,7,Jits_ISO_8,2,5,56,103,1988098544
11719,7,Jits_ISO_8,3,5,80,127,1988101612
11719,7,Jits_ISO_8,0,1,48,24,1988785240
11719,7,Jits_ISO_8,1,5,56,103,1988807892
11719,7,Jits_ISO_8,2,5,80,127,1988810964
11719,7,Jits_ISO_8,3,5,63,98,1988898164
11719,7,Jits_ISO_8,0,1,48,24,1989595736
11719,7,Jits_ISO_8,1,5,63,98,1989647604
11719,7,Jits_ISO_8,2,5,56,103,1989737748
11719,7,Jits_ISO_8,3,5,80,127,1989767648
11719,7,Jits_ISO_8,0,5,56,103,1990438184
11719,7,Jits_ISO_8,1,1,48,22,1990466184
11719,7,Jits_ISO_8,2,5,63,98,1990537556
11719,7,Jits_ISO_8,3,5,80,127,1990568560
11719,7,Jits_ISO_8,0,5,63,98,1991257568
11719,7,Jits_ISO_8,1,5,56,103,1991267692
11719,7,Jits_ISO_8,2,1,48,20,1991271560
11719,7,Jits_ISO_8,3,5,80,127,1991357888
11719,7,Jits_ISO_8,0,5,63,98,1992077808
11719,7,Jits_ISO_8,1,1,48,29,1992089096
11719,7,Jits_ISO_8,2,5,56,103,1992157524
11719,7,Jits_ISO_8,3,5,80,127,1992160592
11719,7,Jits_ISO_8,0,5,80,127,1992837508
11719,7,Jits_ISO_8,1,5,63,98,1992857892
11719,7,Jits_ISO_8,2,1,48,19,1992863404
11719,7,Jits_ISO_8,3,5,56,103,1992918500
11719,7,Jits_ISO_8,0,1,48,18,1993668284
11719,7,Jits_ISO_8,1,5,56,103,1993678124
11719,7,Jits_ISO_8,2,5,63,98,1993697760
11719,7,Jits_ISO_8,3,5,80,127,1993701048
11719,7,Jits_ISO_8,0,5,63,98,1994417516
11719,7,Jits_ISO_8,1,5,80,127,1994498584
11719,7,Jits_ISO_8,2,1,48,22,1994501184
11719,7,Jits_ISO_8,3,5,56,103,1994507652
11719,7,Jits_ISO_8,0,5,63,98,1995237756
11719,7,Jits_ISO_8,1,1,48,21,1995249716
11719,7,Jits_ISO_8,2,5,56,103,1995258280
11719,7,Jits_ISO_8,3,5,80,127,1995308332
11719,7,Jits_ISO_8,0,1,48,21,1995979812
11719,7,Jits_ISO_8,1,5,80,127,1996037456
11719,7,Jits_ISO_8,2,5,63,98,1996077544
11719,7,Jits_ISO_8,3,5,56,103,1996097840
11719,7,Jits_ISO_8,0,1,48,26,1996765592
11719,7,Jits_ISO_8,1,5,56,103,1996878280
11719,7,Jits_ISO_8,2,5,63,98,1996888624
11719,7,Jits_ISO_8,3,5,80,127,1996907740
11719,7,Jits_ISO_8,0,1,48,21,1997584968
11719,7,Jits_ISO_8,1,5,56,103,1997608380
11719,7,Jits_ISO_8,2,5,63,98,1997698524
11719,7,Jits_ISO_8,3,5,80,127,1997757868
11719,7,Jits_ISO_8,0,5,80,127,1998437716
11719,7,Jits_ISO_8,1,1,48,21,1998447536
11719,7,Jits_ISO_8,2,5,56,103,1998449176
11719,7,Jits_ISO_8,3,5,63,98,1998517512
11719,7,Jits_ISO_8,0,1,48,25,1999254476
11719,7,Jits_ISO_8,1,5,63,98,1999268372
11719,7,Jits_ISO_8,2,5,80,127,1999358420
11719,7,Jits_ISO_8,3,5,56,103,1999367496
11719,7,Jits_ISO_8,0,5,63,98,2000007628
11719,7,Jits_ISO_8,1,5,80,127,2000057828
11719,7,Jits_ISO_8,2,1,48,21,2000088152
11719,7,Jits_ISO_8,3,5,56,103,2000118064
11719,7,Jits_ISO_8,0,5,56,103,2000837900
11719,7,Jits_ISO_8,1,1,48,21,2000845432
11719,7,Jits_ISO_8,2,5,80,127,2000888320
11719,7,Jits_ISO_8,3,5,63,98,2000907508
11719,7,Jits_ISO_8,0,1,48,24,2001607952
11719,7,Jits_ISO_8,1,5,56,103,2001609436
11719,7,Jits_ISO_8,2,5,80,127,2001667368
11719,7,Jits_ISO_8,3,5,63,98,2001738080
11719,7,Jits_ISO_8,0,5,56,103,2002407732
11719,7,Jits_ISO_8,1,5,80,127,2002437484
11719,7,Jits_ISO_8,2,1,48,21,2002449892
11719,7,Jits_ISO_8,3,5,63,98,2002468424
11719,7,Jits_ISO_8,0,1,48,23,2003179696
11719,7,Jits_ISO_8,1,5,56,103,2003247456
11719,7,Jits_ISO_8,2,5,80,127,2003267840
11719,7,Jits_ISO_8,3,5,63,98,2003328240
11719,7,Jits_ISO_8,0,1,48,24,2004017248
11719,7,Jits_ISO_8,1,5,80,127,2004128240
11719,7,Jits_ISO_8,2,5,56,103,2004138360
11719,7,Jits_ISO_8,3,5,63,98,2004147512
11719,7,Jits_ISO_8,0,1,48,20,2004880216
11719,7,Jits_ISO_8,1,5,56,103,2004887888
11719,7,Jits_ISO_8,2,5,80,127,2004927904
11719,7,Jits_ISO_8,3,5,63,98,2004957504
11719,7,Jits_ISO_8,0,5,56,103,2005658012
11719,7,Jits_ISO_8,1,5,63,98,2005687692
11719,7,Jits_ISO_8,2,1,48,21,2005698608
11719,7,Jits_ISO_8,3,5,80,127,2005727548
11719,7,Jits_ISO_8,0,5,80,127,2006407608
11719,7,Jits_ISO_8,1,5,63,98,2006457660
11719,7,Jits_ISO_8,2,5,56,103,2006478344
11719,7,Jits_ISO_8,3,1,48,22,2006521836
11719,7,Jits_ISO_8,0,1,48,21,2007208936
11719,7,Jits_ISO_8,1,5,56,103,2007237960
11719,7,Jits_ISO_8,2,5,80,127,2007307556
11719,7,Jits_ISO_8,3,5,63,98,2007368096
11719,7,Jits_ISO_8,0,5,80,127,2008037680
11719,7,Jits_ISO_8,1,1,48,21,2008077368
11719,7,Jits_ISO_8,2,5,63,98,2008127736
11719,7,Jits_ISO_8,3,5,56,103,2008148440
11719,7,Jits_ISO_8,0,5,63,98,2008858232
11719,7,Jits_ISO_8,1,5,56,103,2008877348
11719,7,Jits_ISO_8,2,5,80,127,2008918504
11719,7,Jits_ISO_8,3,1,48,20,2008919620
11719,7,Jits_ISO_8,0,5,80,127,2009617632
11719,7,Jits_ISO_8,1,5,63,98,2009638240
11719,7,Jits_ISO_8,2,1,48,27,2009644504
11719,7,Jits_ISO_8,3,5,56,103,2009718056
11719,7,Jits_ISO_8,0,5,63,98,2010408284
11719,7,Jits_ISO_8,1,1,48,25,2010431556
11719,7,Jits_ISO_8,2,5,56,103,2010517764
11719,7,Jits_ISO_8,3,5,80,127,2010521056
11719,7,Jits_ISO_8,0,1,48,28,2011221604
11719,7,Jits_ISO_8,1,5,63,98,2011227484
11719,7,Jits_ISO_8,2,5,56,103,2011237824
11719,7,Jits_ISO_8,3,5,80,127,2011240744
11719,7,Jits_ISO_8,0,1,48,26,2011992080
11719,7,Jits_ISO_8,1,5,56,103,2012007768
11719,7,Jits_ISO_8,2,5,80,127,2012127632
11719,7,Jits_ISO_8,3,5,63,98,2012167572
11719,7,Jits_ISO_8,0,1,48,25,2012799132
11719,7,Jits_ISO_8,1,5,56,103,2012828076
11719,7,Jits_ISO_8,2,5,80,127,2012908008
11719,7,Jits_ISO_8,3,5,63,98,2012928320
11719,7,Jits_ISO_8,0,1,48,27,2013615336
11719,7,Jits_ISO_8,1,5,56,103,2013627712
11719,7,Jits_ISO_8,2,5,63,98,2013738288
11719,7,Jits_ISO_8,3,5,80,127,2013741652
11719,7,Jits_ISO_8,0,1,48,24,2014444236
11719,7,Jits_ISO_8,1,5,56,103,2014458208
11719,7,Jits_ISO_8,2,5,80,127,2014488180
11719,7,Jits_ISO_8,3,5,63,98,2014508344
11719,7,Jits_ISO_8,0,1,48,25,2015230168
11719,7,Jits_ISO_8,1,5,63,98,2015237612
11719,7,Jits_ISO_8,2,5,56,103,2015247660
11719,7,Jits_ISO_8,3,5,80,127,2015258008
11719,7,Jits_ISO_8,0,5,80,127,2016028108
11719,7,Jits_ISO_8,1,1,48,22,2016045176
11719,7,Jits_ISO_8,2,5,56,103,2016078184
11719,7,Jits_ISO_8,3,5,63,98,2016118120
11719,7,Jits_ISO_8,0,1,48,28,2016810788
11719,7,Jits_ISO_8,1,5,80,127,2016848304
11719,7,Jits_ISO_8,2,5,63,98,2016867568
11719,7,Jits_ISO_8,3,5,56,103,2016918052
11719,7,Jits_ISO_8,0,1,48,22,2017602324
11719,7,Jits_ISO_8,1,5,80,127,2017658204
11719,7,Jits_ISO_8,2,5,56,103,2017688252
11719,7,Jits_ISO_8,3,5,63,98,2017757544
11719,7,Jits_ISO_8,0,1,48,28,2018424608
11719,7,Jits_ISO_8,1,5,56,103,2018508336
11719,7,Jits_ISO_8,2,5,80,127,2018519340
11719,7,Jits_ISO_8,3,5,63,98,2018558452
11719,7,Jits_ISO_8,0,5,56,103,2019217844
11719,7,Jits_ISO_8,1,5,63,98,2019238228
11719,7,Jits_ISO_8,2,1,48,29,2019271464
11719,7,Jits_ISO_8,3,5,80,127,2019308200
11719,7,Jits_ISO_8,0,5,63,98,2020038016
11719,7,Jits_ISO_8,1,1,48,27,2020072824
11719,7,Jits_ISO_8,2,5,80,127,2020098404
11719,7,Jits_ISO_8,3,5,56,103,2020118188
11719,7,Jits_ISO_8,0,5,80,127,2020827464
11719,7,Jits_ISO_8,1,5,56,103,2020858336
11719,7,Jits_ISO_8,2,1,48,25,2020859376
11719,7,Jits_ISO_8,3,5,63,98,2020887856
11719,7,Jits_ISO_8,0,5,56,103,2021628156
11719,7,Jits_ISO_8,1,1,48,24,2021672032
11719,7,Jits_ISO_8,2,5,63,98,2021687868
11719,7,Jits_ISO_8,3,5,80,127,2021748060
11719,7,Jits_ISO_8,0,1,48,22,2022438488
11719,7,Jits_ISO_8,1,5,80,127,2022447508
11719,7,Jits_ISO_8,2,5,56,103,2022467968
11719,7,Jits_ISO_8,3,5,63,98,2022538256
11719,7,Jits_ISO_8,0,5,80,127,2023248144
11719,7,Jits_ISO_8,1,1,48,22,2023262796
11719,7,Jits_ISO_8,2,5,63,98,2023267848
11719,7,Jits_ISO_8,3,5,56,103,2023298272
11719,7,Jits_ISO_8,0,5,80,127,2024037676
11719,7,Jits_ISO_8,1,5,63,98,2024058212
11719,7,Jits_ISO_8,2,1,48,19,2024065760
11719,7,Jits_ISO_8,3,5,56,103,2024117844
11719,7,Jits_ISO_8,0,5,80,127,2024837400
11719,7,Jits_ISO_8,1,1,48,23,2024911020
11719,7,Jits_ISO_8,2,5,56,103,2024938164
11719,7,Jits_ISO_8,3,5,63,98,2024967468
11719,7,Jits_ISO_8,0,5,63,98,2025627904
11719,7,Jits_ISO_8,1,5,80,127,2025678260
11719,7,Jits_ISO_8,2,5,56,103,2025697596
11719,7,Jits_ISO_8,3,1,48,22,2025721612
11719,7,Jits_ISO_8,0,1,48,21,2026460396
11719,7,Jits_ISO_8,1,5,80,127,2026467840
11719,7,Jits_ISO_8,2,5,56,103,2026498560
11719,7,Jits_ISO_8,3,5,63,98,2026501480
11719,7,Jits_ISO_8,0,1,48,24,2027191316
11719,7,Jits_ISO_8,1,5,63,98,2027298096
11719,7,Jits_ISO_8,2,5,56,103,2027338112
11719,7,Jits_ISO_8,3,5,80,127,2027357696
11719,7,Jits_ISO_8,0,5,80,127,2028037524
11719,7,Jits_ISO_8,1,1,48,21,2028040188
11719,7,Jits_ISO_8,2,5,63,98,2028118312
11719,7,Jits_ISO_8,3,5,56,103,2028158308
11719,7,Jits_ISO_8,0,5,63,98,2028857704
11719,7,Jits_ISO_8,1,1,48,21,2028908424
11719,7,Jits_ISO_8,2,5,80,127,2028937520
11719,7,Jits_ISO_8,3,5,56,103,2028958052
11719,7,Jits_ISO_8,0,1,48,22,2029692244
11719,7,Jits_ISO_8,1,5,56,103,2029698564
11719,7,Jits_ISO_8,2,5,63,98,2029707864
11719,7,Jits_ISO_8,3,5,80,127,2029747656
11719,7,Jits_ISO_8,0,5,56,103,2030418488
11719,7,Jits_ISO_8,1,5,80,127,2030421408
11719,7,Jits_ISO_8,2,1,48,21,2030478628
11719,7,Jits_ISO_8,3,5,63,98,2030557688
11719,7,Jits_ISO_8,0,5,56,103,2031207864
11719,7,Jits_ISO_8,1,1,48,20,2031213080
11719,7,Jits_ISO_8,2,5,63,98,2031297920
11719,7,Jits_ISO_8,3,5,80,127,2031367512
11719,7,Jits_ISO_8,0,1,48,22,2031978560
11719,7,Jits_ISO_8,1,5,63,98,2032088624
11719,7,Jits_ISO_8,2,5,80,127,2032091840
11719,7,Jits_ISO_8,3,5,56,103,2032147896
11719,7,Jits_ISO_8,0,1,48,21,2032801936
11719,7,Jits_ISO_8,1,5,80,127,2032928120
11719,7,Jits_ISO_8,2,5,56,103,2032947756
11719,7,Jits_ISO_8,3,5,63,98,2032957804
11719,7,Jits_ISO_8,0,5,56,103,2033637948
11719,7,Jits_ISO_8,1,5,63,98,2033647920
11719,7,Jits_ISO_8,2,1,48,22,2033693588
11719,7,Jits_ISO_8,3,5,80,127,2033717820
11719,7,Jits_ISO_8,0,1,48,21,2034421448
11719,7,Jits_ISO_8,1,5,80,127,2034437516
11719,7,Jits_ISO_8,2,5,56,103,2034487792
11719,7,Jits_ISO_8,3,5,63,98,2034537780
11719,7,Jits_ISO_8,0,1,48,26,2035226192
11719,7,Jits_ISO_8,1,5,56,103,2035318092
11719,7,Jits_ISO_8,2,5,63,98,2035328424
11719,7,Jits_ISO_8,3,5,80,127,2035368360
11719,7,Jits_ISO_8,0,5,56,103,2036057576
11719,7,Jits_ISO_8,1,1,48,24,2036077112
11719,7,Jits_ISO_8,2,5,63,98,2036098704
11719,7,Jits_ISO_8,3,5,80,127,2036147860
11719,7,Jits_ISO_8,0,5,80,127,2036818268
11719,7,Jits_ISO_8,1,5,56,103,2036867576
11719,7,Jits_ISO_8,2,1,48,22,2036874808
11719,7,Jits_ISO_8,3,5,63,98,2036888028
11719,7,Jits_ISO_8,0,5,80,127,2037628328
11719,7,Jits_ISO_8,1,1,48,20,2037681196
11719,7,Jits_ISO_8,2,5,63,98,2037687592
11719,7,Jits_ISO_8,3,5,56,103,2037767684
11719,7,Jits_ISO_8,0,5,80,127,2038407816
11719,7,Jits_ISO_8,1,5,56,103,2038447608
11719,7,Jits_ISO_8,2,1,48,23,2038466028
11719,7,Jits_ISO_8,3,5,63,98,2038467912
11719,7,Jits_ISO_8,0,5,56,103,2039257512
11719,7,Jits_ISO_8,1,1,48,19,2039263548
11719,7,Jits_ISO_8,2,5,80,127,2039267848
11719,7,Jits_ISO_8,3,5,63,98,2039307564
11719,7,Jits_ISO_8,0,1,48,18,2040051880
11719,7,Jits_ISO_8,1,5,56,103,2040127880
11719,7,Jits_ISO_8,2,5,63,98,2040167832
11719,7,Jits_ISO_8,3,5,80,127,2040171192
11719,7,Jits_ISO_8,0,5,63,98,2040817908
11719,7,Jits_ISO_8,1,1,48,20,2040841176
11719,7,Jits_ISO_8,2,5,80,127,2040857916
11719,7,Jits_ISO_8,3,5,56,103,2040927768
11719,7,Jits_ISO_8,0,5,63,98,2041607648
11719,7,Jits_ISO_8,1,1,48,22,2041617520
11719,7,Jits_ISO_8,2,5,56,103,2041688736
11719,7,Jits_ISO_8,3,5,80,127,2041747916
11719,7,Jits_ISO_8,0,1,48,24,2042380800
11719,7,Jits_ISO_8,1,5,80,127,2042417692
11719,7,Jits_ISO_8,2,5,63,98,2042467768
11719,7,Jits_ISO_8,3,5,56,103,2042498624
11719,7,Jits_ISO_8,0,5,56,103,2043208112
11719,7,Jits_ISO_8,1,1,48,21,2043246632
11719,7,Jits_ISO_8,2,5,63,98,2043258112
11719,7,Jits_ISO_8,3,5,80,127,2043267636
11719,7,Jits_ISO_8,0,5,56,103,2044017972
11719,7,Jits_ISO_8,1,1,48,23,2044026492
11719,7,Jits_ISO_8,2,5,63,98,2044127568
11719,7,Jits_ISO_8,3,5,80,127,2044148100
11719,7,Jits_ISO_8,0,5,63,98,2044817768
11719,7,Jits_ISO_8,1,5,80,127,2044867896
11719,7,Jits_ISO_8,2,1,48,21,2044878212
11719,7,Jits_ISO_8,3,5,56,103,2044958096
11719,7,Jits_ISO_8,0,5,63,98,2045608408
11719,7,Jits_ISO_8,1,5,80,127,2045638084
11719,7,Jits_ISO_8,2,1,48,23,2045686760
11719,7,Jits_ISO_8,3,5,56,103,2045728284
11719,7,Jits_ISO_8,0,5,63,98,2046407964
11719,7,Jits_ISO_8,1,5,56,103,2046418384
11719,7,Jits_ISO_8,2,1,48,24,2046468928
11719,7,Jits_ISO_8,3,5,80,127,2046517648
11719,7,Jits_ISO_8,0,1,48,19,2047185148
11719,7,Jits_ISO_8,1,5,63,98,2047308368
11719,7,Jits_ISO_8,2,5,80,127,2047337820
11719,7,Jits_ISO_8,3,5,56,103,2047367496
11719,7,Jits_ISO_8,0,1,48,24,2048034844
11719,7,Jits_ISO_8,1,5,80,127,2048128552
11719,7,Jits_ISO_8,2,5,63,98,2048137616
11719,7,Jits_ISO_8,3,5,56,103,2048168412
11719,7,Jits_ISO_8,0,5,80,127,2048827852
11719,7,Jits_ISO_8,1,5,63,98,2048848336
11719,7,Jits_ISO_8,2,5,56,103,2048898392
11719,7,Jits_ISO_8,3,1,48,22,2048906464
11719,7,Jits_ISO_8,0,5,63,98,2049658312
11719,7,Jits_ISO_8,1,1,48,21,2049671696
11719,7,Jits_ISO_8,2,5,80,127,2049717728
11719,7,Jits_ISO_8,3,5,56,103,2049738188
11719,7,Jits_ISO_8,0,5,63,98,2050418088
11719,7,Jits_ISO_8,1,1,48,19,2050460168
11719,7,Jits_ISO_8,2,5,56,103,2050468136
11719,7,Jits_ISO_8,3,5,80,127,2050477584
11719,7,Jits_ISO_8,0,1,48,21,2051235276
11719,7,Jits_ISO_8,1,5,56,103,2051247452
11719,7,Jits_ISO_8,2,5,80,127,2051257796
11719,7,Jits_ISO_8,3,5,63,98,2051358176
11719,7,Jits_ISO_8,0,5,80,127,2052008500
11719,7,Jits_ISO_8,1,5,63,98,2052017576
11719,7,Jits_ISO_8,2,1,48,22,2052050288
11719,7,Jits_ISO_8,3,5,56,103,2052168072
11719,7,Jits_ISO_8,0,5,63,98,2052818560
11719,7,Jits_ISO_8,1,1,48,22,2052840336
11719,7,Jits_ISO_8,2,5,80,127,2052858420
11719,7,Jits_ISO_8,3,5,56,103,2052938348
11719,7,Jits_ISO_8,0,5,56,103,2053607704
11719,7,Jits_ISO_8,1,1,48,22,2053671208
11719,7,Jits_ISO_8,2,5,80,127,2053708568
11719,7,Jits_ISO_8,3,5,63,98,2053727684
11719,7,Jits_ISO_8,0,1,48,20,2054394420
11719,7,Jits_ISO_8,1,5,80,127,2054467880
11719,7,Jits_ISO_8,2,5,56,103,2054478324
11719,7,Jits_ISO_8,3,5,63,98,2054568440
11719,7,Jits_ISO_8,0,1,48,21,2055261140
11719,7,Jits_ISO_8,1,5,56,103,2055267692
11719,7,Jits_ISO_8,2,5,63,98,2055288300
11719,7,Jits_ISO_8,3,5,80,127,2055368152
11719,7,Jits_ISO_8,0,5,63,98,2056018404
11719,7,Jits_ISO_8,1,1,48,22,2056064972
11719,7,Jits_ISO_8,2,5,56,103,2056108304
11719,7,Jits_ISO_8,3,5,80,127,2056111376
11719,7,Jits_ISO_8,0,5,56,103,2056847628
11719,7,Jits_ISO_8,1,1,48,17,2056872840
11719,7,Jits_ISO_8,2,5,80,127,2056908236
11719,7,Jits_ISO_8,3,5,63,98,2056918356
11719,7,Jits_ISO_8,0,1,48,23,2057649632
11719,7,Jits_ISO_8,1,5,80,127,2057697760
11719,7,Jits_ISO_8,2,5,56,103,2057708028
11719,7,Jits_ISO_8,3,5,63,98,2057711240
11719,7,Jits_ISO_8,0,5,56,103,2058457456
11719,7,Jits_ISO_8,1,5,80,127,2058467800
11719,7,Jits_ISO_8,2,5,63,98,2058488112
11719,7,Jits_ISO_8,3,1,48,23,2058495940
11719,7,Jits_ISO_8,0,5,63,98,2059227508
11719,7,Jits_ISO_8,1,1,48,21,2059272876
11719,7,Jits_ISO_8,2,5,80,127,2059288116
11719,7,Jits_ISO_8,3,5,56,103,2059338540
11719,7,Jits_ISO_8,0,1,48,18,2060098636
11719,7,Jits_ISO_8,1,5,63,98,2060108272
11719,7,Jits_ISO_8,2,5,56,103,2060118468
11719,7,Jits_ISO_8,3,5,80,127,2060167476
11719,7,Jits_ISO_8,0,5,63,98,2060807572
11719,7,Jits_ISO_8,1,5,80,127,2060828180
11719,7,Jits_ISO_8,2,5,56,103,2060838452
11719,7,Jits_ISO_8,3,1,48,19,2060844784
11719,7,Jits_ISO_8,0,5,63,98,2061608240
11719,7,Jits_ISO_8,1,5,80,127,2061611380
11719,7,Jits_ISO_8,2,1,48,19,2061613972
11719,7,Jits_ISO_8,3,5,56,103,2061648416
11719,7,Jits_ISO_8,0,1,48,20,2062408572
11719,7,Jits_ISO_8,1,5,63,98,2062477556
11719,7,Jits_ISO_8,2,5,80,127,2062508336
11719,7,Jits_ISO_8,3,5,56,103,2062517560
11719,7,Jits_ISO_8,0,5,56,103,2063228196
11719,7,Jits_ISO_8,1,1,48,29,2063234976
11719,7,Jits_ISO_8,2,5,80,127,2063258088
11719,7,Jits_ISO_8,3,5,63,98,2063287612
11719,7,Jits_ISO_8,0,1,48,31,2064037096
11719,7,Jits_ISO_8,1,5,63,98,2064128224
11719,7,Jits_ISO_8,2,5,56,103,2064168372
11719,7,Jits_ISO_8,3,5,80,127,2064171588
11719,7,Jits_ISO_8,0,5,80,127,2064827696
11719,7,Jits_ISO_8,1,5,56,103,2064907644
11719,7,Jits_ISO_8,2,1,48,28,2064929788
11719,7,Jits_ISO_8,3,5,63,98,2064957764
11719,7,Jits_ISO_8,0,5,80,127,2065608164
11719,7,Jits_ISO_8,1,5,56,103,2065627500
11719,7,Jits_ISO_8,2,5,63,98,2065717636
11719,7,Jits_ISO_8,3,1,48,28,2065727728
11719,7,Jits_ISO_8,0,5,80,127,2066447592
11719,7,Jits_ISO_8,1,5,63,98,2066487604
11719,7,Jits_ISO_8,2,1,48,29,2066511644
11719,7,Jits_ISO_8,3,5,56,103,2066527712
11719,7,Jits_ISO_8,0,5,63,98,2067217940
11719,7,Jits_ISO_8,1,1,48,30,2067271108
11719,7,Jits_ISO_8,2,5,80,127,2067278276
11719,7,Jits_ISO_8,3,5,56,103,2067308028
11719,7,Jits_ISO_8,0,5,56,103,2068017572
11719,7,Jits_ISO_8,1,5,80,127,2068048248
11719,7,Jits_ISO_8,2,1,48,30,2068068300
11719,7,Jits_ISO_8,3,5,63,98,2068138448
11719,7,Jits_ISO_8,0,5,56,103,2068827436
11719,7,Jits_ISO_8,1,1,48,30,2068882844
11719,7,Jits_ISO_8,2,5,80,127,2068938020
11719,7,Jits_ISO_8,3,5,63,98,2068968212
11719,7,Jits_ISO_8,0,5,56,103,2069677436
11719,7,Jits_ISO_8,1,1,48,30,2069700708
11719,7,Jits_ISO_8,2,5,63,98,2069738044
11719,7,Jits_ISO_8,3,5,80,127,2069767496
11719,7,Jits_ISO_8,0,5,56,103,2070447488
11719,7,Jits_ISO_8,1,1,48,19,2070504548
11719,7,Jits_ISO_8,2,5,63,98,2070518064
11719,7,Jits_ISO_8,3,5,80,127,2070537628
11719,7,Jits_ISO_8,0,5,80,127,2071217472
11719,7,Jits_ISO_8,1,5,63,98,2071237932
11719,7,Jits_ISO_8,2,1,48,22,2071271312
11719,7,Jits_ISO_8,3,5,56,103,2071288276
11719,7,Jits_ISO_8,0,9999,9999,9999,1976485952
11719,7,Jits_ISO_8,1,9999,9999,9999,1977285724
11719,7,Jits_ISO_8,2,9999,9999,9999,1978085500
11719,7,Jits_ISO_8,3,9999,9999,9999,1978885224
11719,7,Jits_ISO_8,4,9999,9999,9999,1979685988
11719,7,Jits_ISO_8,5,9999,9999,9999,1980485700
11719,7,Jits_ISO_8,6,9999,9999,9999,1981285440
11719,7,Jits_ISO_8,7,9999,9999,9999,1982085240
11719,7,Jits_ISO_8,8,9999,9999,9999,1982886004
11719,7,Jits_ISO_8,9,9999,9999,9999,1983685700
11719,7,Jits_ISO_8,10,9999,9999,9999,1984485428
11719,7,Jits_ISO_8,11,9999,9999,9999,1985285216
11719,7,Jits_ISO_8,12,9999,9999,9999,1986085976
11719,7,Jits_ISO_8,13,9999,9999,9999,1986885700
11719,7,Jits_ISO_8,14,9999,9999,9999,1987685492
11719,7,Jits_ISO_8,15,9999,9999,9999,1988485188
11719,7,Jits_ISO_8,16,9999,9999,9999,1989286004
11719,7,Jits_ISO_8,17,9999,9999,9999,1990085720
11719,7,Jits_ISO_8,18,9999,9999,9999,1990885436
11719,7,Jits_ISO_8,19,9999,9999,9999,1991685236
11719,7,Jits_ISO_8,20,9999,9999,9999,1992485992
11719,7,Jits_ISO_8,21,9999,9999,9999,1993285700
11719,7,Jits_ISO_8,22,9999,9999,9999,1994085432
11719,7,Jits_ISO_8,23,9999,9999,9999,1994885216
11719,7,Jits_ISO_8,24,9999,9999,9999,1995685972
11719,7,Jits_ISO_8,25,9999,9999,9999,1996485752
11719,7,Jits_ISO_8,26,9999,9999,9999,1997285444
11719,7,Jits_ISO_8,27,9999,9999,9999,1998085228
11719,7,Jits_ISO_8,28,9999,9999,9999,1998885984
11719,7,Jits_ISO_8,29,9999,9999,9999,1999685716
11719,7,Jits_ISO_8,30,9999,9999,9999,2000485440
11719,7,Jits_ISO_8,31,9999,9999,9999,2001285220
11719,7,Jits_ISO_8,32,9999,9999,9999,2002085988
11719,7,Jits_ISO_8,33,9999,9999,9999,2002885692
11719,7,Jits_ISO_8,34,9999,9999,9999,2003685492
11719,7,Jits_ISO_8,35,9999,9999,9999,2004485208
11719,7,Jits_ISO_8,36,9999,9999,9999,2005285972
11719,7,Jits_ISO_8,37,9999,9999,9999,2006085752
11719,7,Jits_ISO_8,38,9999,9999,9999,2006885492
11719,7,Jits_ISO_8,39,9999,9999,9999,2007685220
11719,7,Jits_ISO_8,40,9999,9999,9999,2008485976
11719,7,Jits_ISO_8,41,9999,9999,9999,2009285700
11719,7,Jits_ISO_8,42,9999,9999,9999,2010085476
11719,7,Jits_ISO_8,43,9999,9999,9999,2010885192
11719,7,Jits_ISO_8,44,9999,9999,9999,2011686004
11719,7,Jits_ISO_8,45,9999,9999,9999,2012485716
11719,7,Jits_ISO_8,46,9999,9999,9999,2013285448
11719,7,Jits_ISO_8,47,9999,9999,9999,2014085224
11719,7,Jits_ISO_8,48,9999,9999,9999,2014885980
11719,7,Jits_ISO_8,49,9999,9999,9999,2015685684
11719,7,Jits_ISO_8,50,9999,9999,9999,2016485472
11719,7,Jits_ISO_8,51,9999,9999,9999,2017285196
11719,7,Jits_ISO_8,52,9999,9999,9999,2018085952
11719,7,Jits_ISO_8,53,9999,9999,9999,2018885740
11719,7,Jits_ISO_8,54,9999,9999,9999,2019685468
11719,7,Jits_ISO_8,55,9999,9999,9999,2020485192
11719,7,Jits_ISO_8,56,9999,9999,9999,2021285944
11719,7,Jits_ISO_8,57,9999,9999,9999,2022085744
11719,7,Jits_ISO_8,58,9999,9999,9999,2022885468
11719,7,Jits_ISO_8,59,9999,9999,9999,2023685176
11719,7,Jits_ISO_8,60,9999,9999,9999,2024485944
11719,7,Jits_ISO_8,61,9999,9999,9999,2025285748
11719,7,Jits_ISO_8,62,9999,9999,9999,2026085488
11719,7,Jits_ISO_8,63,9999,9999,9999,2026885192
11719,7,Jits_ISO_8,64,9999,9999,9999,2027685956
11719,7,Jits_ISO_8,65,9999,9999,9999,2028485744
11719,7,Jits_ISO_8,66,9999,9999,9999,2029285472
11719,7,Jits_ISO_8,67,9999,9999,9999,2030085188
11719,7,Jits_ISO_8,68,9999,9999,9999,2030886008
11719,7,Jits_ISO_8,69,9999,9999,9999,2031685732
11719,7,Jits_ISO_8,70,9999,9999,9999,2032485472
11719,7,Jits_ISO_8,71,9999,9999,9999,2033285192
11719,7,Jits_ISO_8,72,9999,9999,9999,2034085944
11719,7,Jits_ISO_8,73,9999,9999,9999,2034885744
11719,7,Jits_ISO_8,74,9999,9999,9999,2035685460
11719,7,Jits_ISO_8,75,9999,9999,9999,2036485172
11719,7,Jits_ISO_8,76,9999,9999,9999,2037285940
11719,7,Jits_ISO_8,77,9999,9999,9999,2038085740
11719,7,Jits_ISO_8,78,9999,9999,9999,2038885476
11719,7,Jits_ISO_8,79,9999,9999,9999,2039685200
11719,7,Jits_ISO_8,80,9999,9999,9999,2040485976
11719,7,Jits_ISO_8,81,9999,9999,9999,2041285756
11719,7,Jits_ISO_8,82,9999,9999,9999,2042085464
11719,7,Jits_ISO_8,83,9999,9999,9999,2042885172
11719,7,Jits_ISO_8,84,9999,9999,9999,2043686000
11719,7,Jits_ISO_8,85,9999,9999,9999,2044485724
11719,7,Jits_ISO_8,86,9999,9999,9999,2045285468
11719,7,Jits_ISO_8,87,9999,9999,9999,2046085172
11719,7,Jits_ISO_8,88,9999,9999,9999,2046885996
11719,7,Jits_ISO_8,89,9999,9999,9999,2047685716
11719,7,Jits_ISO_8,90,9999,9999,9999,2048485436
11719,7,Jits_ISO_8,91,9999,9999,9999,2049285212
11719,7,Jits_ISO_8,92,9999,9999,9999,2050085980
11719,7,Jits_ISO_8,93,9999,9999,9999,2050885688
11719,7,Jits_ISO_8,94,9999,9999,9999,2051685488
11719,7,Jits_ISO_8,95,9999,9999,9999,2052485192
11719,7,Jits_ISO_8,96,9999,9999,9999,2053285960
11719,7,Jits_ISO_8,97,9999,9999,9999,2054085740
11719,7,Jits_ISO_8,98,9999,9999,9999,2054885468
11719,7,Jits_ISO_8,99,9999,9999,9999,2055685180
11719,7,Jits_ISO_8,100,9999,9999,9999,2056485996
11719,7,Jits_ISO_8,101,9999,9999,9999,2057285708
11719,7,Jits_ISO_8,102,9999,9999,9999,2058085440
11719,7,Jits_ISO_8,103,9999,9999,9999,2058885220
11719,7,Jits_ISO_8,104,9999,9999,9999,2059685964
11719,7,Jits_ISO_8,105,9999,9999,9999,2060485752
11719,7,Jits_ISO_8,106,9999,9999,9999,2061285452
11719,7,Jits_ISO_8,107,9999,9999,9999,2062085216
11719,7,Jits_ISO_8,108,9999,9999,9999,2062885972
11719,7,Jits_ISO_8,109,9999,9999,9999,2063685752
11719,7,Jits_ISO_8,110,9999,9999,9999,2064485496
11719,7,Jits_ISO_8,111,9999,9999,9999,2065285212
11719,7,Jits_ISO_8,112,9999,9999,9999,2066085972
11719,7,Jits_ISO_8,113,9999,9999,9999,2066885696
11719,7,Jits_ISO_8,114,9999,9999,9999,2067685492
11719,7,Jits_ISO_8,115,9999,9999,9999,2068485196
11719,7,Jits_ISO_8,116,9999,9999,9999,2069285972
11719,7,Jits_ISO_8,117,9999,9999,9999,2070085700
11719,7,Jits_ISO_8,118,9999,9999,9999,2070885448
11719,7,Jits_ISO_8,119,9999,9999,9999,2071685172
11720,5,ISIP_5,0,5,42,127,2142746920
11720,5,ISIP_5,1,5,42,127,2143246712
11720,5,ISIP_5,2,5,42,127,2143746432
11720,5,ISIP_5,3,5,42,127,2144247120
11720,5,ISIP_5,4,5,42,127,2144746908
11720,5,ISIP_5,5,1,48,30,2144771792
11720,5,ISIP_5,6,1,48,34,2145240576
11720,5,ISIP_5,7,5,42,127,2145246520
11720,5,ISIP_5,8,1,48,33,2145733388
11720,5,ISIP_5,9,5,42,127,2145747488
11720,5,ISIP_5,10,1,48,32,2146217084
11720,5,ISIP_5,11,5,42,127,2146246960
11720,5,ISIP_5,12,1,48,28,2146722532
11720,5,ISIP_5,13,5,42,127,2146746652
11720,5,ISIP_5,14,1,48,32,2147208320
11720,5,ISIP_5,15,5,42,127,2147246424
11720,5,ISIP_5,16,1,48,32,2147687888
11720,5,ISIP_5,17,5,42,127,2147747464
11720,5,ISIP_5,18,1,48,30,2148189232
11720,5,ISIP_5,19,5,42,127,2148246860
11720,5,ISIP_5,20,1,48,29,2148711140
11720,5,ISIP_5,21,5,42,127,2148746480
11720,5,ISIP_5,22,1,48,30,2149231032
11720,5,ISIP_5,23,5,42,127,2149247372
11720,5,ISIP_5,24,1,48,24,2149721152
11720,5,ISIP_5,25,5,42,127,2149747288
11720,5,ISIP_5,26,1,48,21,2150193820
11720,5,ISIP_5,27,5,42,127,2150246908
11720,5,ISIP_5,28,1,48,21,2150681320
11720,5,ISIP_5,29,5,42,127,2150746532
11720,5,ISIP_5,30,1,48,21,2151194108
11720,5,ISIP_5,31,5,42,127,2151247420
11720,5,ISIP_5,32,1,48,22,2151705544
11720,5,ISIP_5,33,5,42,127,2151746872
11720,5,ISIP_5,34,1,48,21,2152213244
11720,5,ISIP_5,35,5,42,127,2152246492
11720,5,ISIP_5,36,1,48,31,2152685488
11720,5,ISIP_5,37,5,42,127,2152747456
11720,5,ISIP_5,38,1,48,30,2153211808
11720,5,ISIP_5,39,5,42,127,2153247300
11720,5,ISIP_5,40,1,48,28,2153724372
11720,5,ISIP_5,41,5,42,127,2153746920
11720,5,ISIP_5,42,1,48,20,2154206344
11720,5,ISIP_5,43,5,42,127,2154246544
11720,5,ISIP_5,44,1,48,26,2154723764
11720,5,ISIP_5,45,5,42,127,2154747432
11720,5,ISIP_5,46,1,48,30,2155241108
11720,5,ISIP_5,47,5,42,127,2155247200
11720,5,ISIP_5,48,1,48,33,2155725396
11720,5,ISIP_5,49,5,42,127,2155746676
11720,5,ISIP_5,50,1,48,29,2156237060
11720,5,ISIP_5,51,5,42,127,2156247340
11720,5,ISIP_5,52,1,48,30,2156738172
11720,5,ISIP_5,53,5,42,127,2156747256
11720,5,ISIP_5,54,1,48,32,2157229492
11720,5,ISIP_5,55,5,42,127,2157246804
11720,5,ISIP_5,56,1,48,27,2157732476
11720,5,ISIP_5,57,5,42,127,2157746500
11720,5,ISIP_5,58,1,48,31,2158224016
11720,5,ISIP_5,59,5,42,127,2158247240
11720,5,ISIP_5,60,1,48,31,2158699028
11720,5,ISIP_5,61,5,42,127,2158747232
11720,5,ISIP_5,62,1,48,29,2159189224
11720,5,ISIP_5,63,5,42,127,2159246556
11720,5,ISIP_5,64,1,48,28,2159687724
11720,5,ISIP_5,65,5,42,127,2159746400
11720,5,ISIP_5,66,1,48,34,2160182080
11720,5,ISIP_5,67,5,42,127,2160247212
11720,5,ISIP_5,68,1,48,27,2160670256
11720,5,ISIP_5,69,5,42,127,2160746984
11720,5,ISIP_5,70,1,48,25,2161190516
11720,5,ISIP_5,71,5,42,127,2161246452
11720,5,ISIP_5,72,1,48,27,2161684228
11720,5,ISIP_5,73,5,42,127,2161747196
11720,5,ISIP_5,74,1,48,26,2162188112
11720,5,ISIP_5,75,5,42,127,2162246964
11720,5,ISIP_5,76,1,48,30,2162682644
11720,5,ISIP_5,77,1,48,24,2163197892
11720,5,ISIP_5,78,1,48,19,2163700052
11720,5,ISIP_5,79,1,48,23,2164202060
11720,5,ISIP_5,80,1,48,24,2164702196
11720,5,ISIP_5,81,1,48,27,2165231060
11720,5,ISIP_5,82,1,48,25,2165748268
11720,5,ISIP_5,83,1,48,25,2166307052
11720,5,ISIP_5,84,1,48,22,2166824392
11720,5,ISIP_5,85,1,48,27,2167352952
11720,5,ISIP_5,86,1,48,24,2167873888
11720,5,ISIP_5,87,1,48,25,2168406440
11720,5,ISIP_5,88,1,48,27,2168957368
11720,5,ISIP_5,89,1,48,25,2169493332
11720,5,ISIP_5,90,1,48,25,2170031248
11720,5,ISIP_5,91,1,48,21,2170614188
11720,5,ISIP_5,92,1,48,19,2171155916
11720,5,ISIP_5,93,1,48,22,2171677592
11720,5,ISIP_5,94,1,48,21,2172184312
11720,5,ISIP_5,95,1,48,25,2172713400
11720,5,ISIP_5,96,1,48,21,2173242560
11720,5,ISIP_5,97,1,48,18,2173746528
11720,5,ISIP_5,98,1,48,22,2174266716
11720,5,ISIP_5,99,1,48,28,2174780236
11720,5,ISIP_5,100,1,48,24,2175294140
11720,5,ISIP_5,101,1,48,22,2175808724
11720,5,ISIP_5,102,1,48,21,2176305348
11720,5,ISIP_5,103,1,48,20,2176833452
11720,5,ISIP_5,104,1,48,21,2177343464
11720,5,ISIP_5,105,1,48,18,2177876172
11720,5,ISIP_5,106,1,48,22,2178381468
11720,5,ISIP_5,107,1,48,23,2178888864
11720,5,ISIP_5,108,1,48,21,2179421164
11720,5,ISIP_5,109,1,48,23,2179937160
11720,5,ISIP_5,110,1,48,19,2180471780
11720,5,ISIP_5,111,1,48,21,2180973796
11720,5,ISIP_5,112,1,48,27,2181476252
11720,5,ISIP_5,113,1,48,19,2182006680
11720,5,ISIP_5,114,1,48,16,2182523652
11720,5,ISIP_5,115,1,48,21,2183052888
11720,5,ISIP_5,116,1,48,19,2183585416
11720,5,ISIP_5,117,1,48,27,2184111056
11720,5,ISIP_5,118,1,48,22,2184633864
11720,5,ISIP_5,119,1,48,22,2185137668
11720,5,ISIP_5,120,1,48,23,2185652092
11720,5,ISIP_5,121,1,48,16,2186147520
11720,5,ISIP_5,122,1,48,19,2186678628
11720,5,ISIP_5,123,1,48,21,2187204872
11720,5,ISIP_5,124,1,48,25,2187709944
11720,5,ISIP_5,125,1,48,23,2188232824
11720,5,ISIP_5,126,1,48,24,2188779276
11720,5,ISIP_5,127,1,48,24,2189263484
11720,5,ISIP_5,128,1,48,22,2189809324
11720,5,ISIP_5,129,1,48,21,2190314472
11720,5,ISIP_5,130,1,48,25,2190834812
11720,5,ISIP_5,131,1,48,21,2191346392
11720,5,ISIP_5,132,1,48,23,2191854688
11720,5,ISIP_5,133,1,48,28,2192377488
11720,5,ISIP_5,134,1,48,24,2192878224
11720,5,ISIP_5,135,1,48,27,2193375448
11720,5,ISIP_5,136,1,48,22,2193916576
11720,5,ISIP_5,137,1,48,22,2194424268
11720,5,ISIP_5,138,1,48,25,2194951708
11720,5,ISIP_5,139,1,48,24,2195458876
11720,5,ISIP_5,140,1,48,24,2196016688
11720,5,ISIP_5,141,1,48,25,2196544876
11720,5,ISIP_5,142,1,48,23,2197091564
11720,5,ISIP_5,143,1,48,24,2197648776
11720,5,ISIP_5,144,1,48,19,2198204336
11720,5,ISIP_5,145,1,48,16,2198711060
11720,5,ISIP_5,146,1,48,20,2199287732
11720,5,ISIP_5,147,1,48,20,2199829384
11720,5,ISIP_5,148,1,48,20,2200339024
11720,5,ISIP_5,149,1,48,19,2200889652
11720,5,ISIP_5,150,1,48,22,2201437836
11720,5,ISIP_5,151,1,48,18,2201958696
11720,5,ISIP_5,152,1,48,16,2202500496
11720,5,ISIP_5,153,1,48,20,2203030708
11720,5,ISIP_5,154,1,48,21,2203566748
11720,5,ISIP_5,155,1,48,21,2204096356
11720,5,ISIP_5,156,1,48,18,2204646012
11720,5,ISIP_5,157,1,48,20,2205189608
11720,5,ISIP_5,158,1,48,21,2205685556
11720,5,ISIP_5,159,1,48,24,2206242692
11720,5,ISIP_5,160,1,48,24,2206748684
11720,5,ISIP_5,161,1,48,27,2207298188
11720,5,ISIP_5,162,1,48,26,2207816056
11720,5,ISIP_5,163,1,48,27,2208299492
11720,5,ISIP_5,164,1,48,27,2208804120
11720,5,ISIP_5,165,1,48,29,2209277700
11720,5,ISIP_5,166,1,48,21,2209827884
11720,5,ISIP_5,167,1,48,31,2210332960
11720,5,ISIP_5,168,1,48,25,2210864060
11720,5,ISIP_5,169,1,48,26,2211413892
11720,5,ISIP_5,170,1,48,23,2211933176
11720,5,ISIP_5,171,1,48,22,2212471992
11720,5,ISIP_5,172,1,48,24,2212994348
11720,5,ISIP_5,173,1,48,23,2213540408
11720,5,ISIP_5,174,1,48,24,2214068600
11720,5,ISIP_5,175,1,48,28,2214598208
11720,5,ISIP_5,176,1,48,24,2215139788
11720,5,ISIP_5,177,1,48,27,2215680240
11720,5,ISIP_5,178,1,48,24,2216218976
11720,5,ISIP_5,179,1,48,23,2216783552
11720,5,ISIP_5,180,1,48,20,2217382500
11720,5,ISIP_5,181,1,48,27,2217895652
11720,5,ISIP_5,182,1,48,22,2218476728
11720,5,ISIP_5,183,1,48,25,2219024960
11720,5,ISIP_5,184,1,48,27,2219559580
11720,5,ISIP_5,185,1,48,22,2220132072
11720,5,ISIP_5,186,1,48,24,2220656824
11720,5,ISIP_5,187,1,48,24,2221210364
11720,5,ISIP_5,188,1,48,22,2221757868
11720,5,ISIP_5,189,1,48,29,2222293388
11720,5,ISIP_5,0,9999,9999,9999,2142744632
11720,5,ISIP_5,1,9999,9999,9999,2143244352
11720,5,ISIP_5,2,9999,9999,9999,2143744068
11720,5,ISIP_5,3,9999,9999,9999,2144244832
11720,5,ISIP_5,4,9999,9999,9999,2144744548
11720,5,ISIP_5,5,9999,9999,9999,2145244236
11720,5,ISIP_5,6,9999,9999,9999,2145744976
11720,5,ISIP_5,7,9999,9999,9999,2146244672
11720,5,ISIP_5,8,9999,9999,9999,2146744440
11720,5,ISIP_5,9,9999,9999,9999,2147244136
11720,5,ISIP_5,10,9999,9999,9999,2147744876
11720,5,ISIP_5,11,9999,9999,9999,2148244572
11720,5,ISIP_5,12,9999,9999,9999,2148744268
11720,5,ISIP_5,13,9999,9999,9999,2149245008
11720,5,ISIP_5,14,9999,9999,9999,2149744704
11720,5,ISIP_5,15,9999,9999,9999,2150244472
11720,5,ISIP_5,16,9999,9999,9999,2150744168
11720,5,ISIP_5,17,9999,9999,9999,2151244912
11720,5,ISIP_5,18,9999,9999,9999,2151744584
11720,5,ISIP_5,19,9999,9999,9999,2152244276
11720,5,ISIP_5,20,9999,9999,9999,2152745020
11720,5,ISIP_5,21,9999,9999,9999,2153244792
11720,5,ISIP_5,22,9999,9999,9999,2153744484
11720,5,ISIP_5,23,9999,9999,9999,2154244180
11720,5,ISIP_5,24,9999,9999,9999,2154744920
11720,5,ISIP_5,25,9999,9999,9999,2155244616
11720,5,ISIP_5,26,9999,9999,9999,2155744312
11720,5,ISIP_5,27,9999,9999,9999,2156245052
11720,5,ISIP_5,28,9999,9999,9999,2156744820
11720,5,ISIP_5,29,9999,9999,9999,2157244516
11720,5,ISIP_5,30,9999,9999,9999,2157744212
11720,5,ISIP_5,31,9999,9999,9999,2158244952
11720,5,ISIP_5,32,9999,9999,9999,2158744644
11720,5,ISIP_5,33,9999,9999,9999,2159244340
11720,5,ISIP_5,34,9999,9999,9999,2159744112
11720,5,ISIP_5,35,9999,9999,9999,2160244852
11720,5,ISIP_5,36,9999,9999,9999,2160744544
11720,5,ISIP_5,37,9999,9999,9999,2161244240
11720,5,ISIP_5,38,9999,9999,9999,2161744980
11720,5,ISIP_5,39,9999,9999,9999,2162244676
11720,5,ISIP_5,40,9999,9999,9999,2162744420
11720,5,ISIP_5,41,9999,9999,9999,2163244112
11720,5,ISIP_5,42,9999,9999,9999,2163744848
11720,5,ISIP_5,43,9999,9999,9999,2164244540
11720,5,ISIP_5,44,9999,9999,9999,2164744304
11720,5,ISIP_5,45,9999,9999,9999,2165245040
11720,5,ISIP_5,46,9999,9999,9999,2165744736
11720,5,ISIP_5,47,9999,9999,9999,2166244428
11720,5,ISIP_5,48,9999,9999,9999,2166744120
11720,5,ISIP_5,49,9999,9999,9999,2167244856
11720,5,ISIP_5,50,9999,9999,9999,2167744620
11720,5,ISIP_5,51,9999,9999,9999,2168244312
11720,5,ISIP_5,52,9999,9999,9999,2168745048
11720,5,ISIP_5,53,9999,9999,9999,2169244740
11720,5,ISIP_5,54,9999,9999,9999,2169744504
11720,5,ISIP_5,55,9999,9999,9999,2170244196
11720,5,ISIP_5,56,9999,9999,9999,2170744932
11720,5,ISIP_5,57,9999,9999,9999,2171244640
11720,5,ISIP_5,58,9999,9999,9999,2171744328
11720,5,ISIP_5,59,9999,9999,9999,2172245064
11720,5,ISIP_5,60,9999,9999,9999,2172744756
11720,5,ISIP_5,61,9999,9999,9999,2173244496
11720,5,ISIP_5,62,9999,9999,9999,2173744192
11720,5,ISIP_5,63,9999,9999,9999,2174244932
11720,5,ISIP_5,64,9999,9999,9999,2174744692
11720,5,ISIP_5,65,9999,9999,9999,2175244388
11720,5,ISIP_5,66,9999,9999,9999,2175744076
11720,5,ISIP_5,67,9999,9999,9999,2176244816
11720,5,ISIP_5,68,9999,9999,9999,2176744508
11720,5,ISIP_5,69,9999,9999,9999,2177244272
11720,5,ISIP_5,70,9999,9999,9999,2177745008
11720,5,ISIP_5,71,9999,9999,9999,2178244700
11720,5,ISIP_5,72,9999,9999,9999,2178744388
11720,5,ISIP_5,73,9999,9999,9999,2179244080
11720,5,ISIP_5,74,9999,9999,9999,2179744816
11720,5,ISIP_5,75,9999,9999,9999,2180244580
11720,5,ISIP_5,76,9999,9999,9999,2180744272
11720,5,ISIP_5,77,9999,9999,9999,2181245008
11720,5,ISIP_5,78,9999,9999,9999,2181744700
11720,5,ISIP_5,79,9999,9999,9999,2182244468
11720,5,ISIP_5,80,9999,9999,9999,2182744156
11720,5,ISIP_5,81,9999,9999,9999,2183244896
11720,5,ISIP_5,82,9999,9999,9999,2183744564
11720,5,ISIP_5,83,9999,9999,9999,2184244328
11720,5,ISIP_5,84,9999,9999,9999,2184745064
11720,5,ISIP_5,85,9999,9999,9999,2185244756
11720,5,ISIP_5,86,9999,9999,9999,2185744460
11720,5,ISIP_5,87,9999,9999,9999,2186244212
11720,5,ISIP_5,88,9999,9999,9999,2186744888
11720,5,ISIP_5,89,9999,9999,9999,2187244656
11720,5,ISIP_5,90,9999,9999,9999,2187744344
11720,5,ISIP_5,91,9999,9999,9999,2188245080
11720,5,ISIP_5,92,9999,9999,9999,2188744780
11720,5,ISIP_5,93,9999,9999,9999,2189244468
11720,5,ISIP_5,94,9999,9999,9999,2189744236
11720,5,ISIP_5,95,9999,9999,9999,2190244972
11720,5,ISIP_5,96,9999,9999,9999,2190744664
11720,5,ISIP_5,97,9999,9999,9999,2191244352
11720,5,ISIP_5,98,9999,9999,9999,2191744116
11720,5,ISIP_5,99,9999,9999,9999,2192244852
11720,5,ISIP_5,100,9999,9999,9999,2192744544
11720,5,ISIP_5,101,9999,9999,9999,2193244236
11720,5,ISIP_5,102,9999,9999,9999,2193744972
11720,5,ISIP_5,103,9999,9999,9999,2194244664
11720,5,ISIP_5,104,9999,9999,9999,2194744404
11720,5,ISIP_5,105,9999,9999,9999,2195244096
11720,5,ISIP_5,106,9999,9999,9999,2195744832
11720,5,ISIP_5,107,9999,9999,9999,2196244596
11720,5,ISIP_5,108,9999,9999,9999,2196744288
11720,5,ISIP_5,109,9999,9999,9999,2197245024
11720,5,ISIP_5,110,9999,9999,9999,2197744716
11720,5,ISIP_5,111,9999,9999,9999,2198244424
11720,5,ISIP_5,112,9999,9999,9999,2198744112
11720,5,ISIP_5,113,9999,9999,9999,2199244860
11720,5,ISIP_5,114,9999,9999,9999,2199744624
11720,5,ISIP_5,115,9999,9999,9999,2200244316
11720,5,ISIP_5,116,9999,9999,9999,2200745052
11720,5,ISIP_5,117,9999,9999,9999,2201244744
11720,5,ISIP_5,118,9999,9999,9999,2201744432
11720,5,ISIP_5,119,9999,9999,9999,2202244200
11720,5,ISIP_5,120,9999,9999,9999,2202744936
11720,5,ISIP_5,121,9999,9999,9999,2203244628
11720,5,ISIP_5,122,9999,9999,9999,2203744320
11720,5,ISIP_5,123,9999,9999,9999,2204245056
11720,5,ISIP_5,124,9999,9999,9999,2204744820
11720,5,ISIP_5,125,9999,9999,9999,2205244500
11720,5,ISIP_5,126,9999,9999,9999,2205744192
11720,5,ISIP_5,127,9999,9999,9999,2206244932
11720,5,ISIP_5,128,9999,9999,9999,2206744628
11720,5,ISIP_5,129,9999,9999,9999,2207244392
11720,5,ISIP_5,130,9999,9999,9999,2207744060
11720,5,ISIP_5,131,9999,9999,9999,2208244796
11720,5,ISIP_5,132,9999,9999,9999,2208744564
11720,5,ISIP_5,133,9999,9999,9999,2209244252
11720,5,ISIP_5,134,9999,9999,9999,2209744988
11720,5,ISIP_5,135,9999,9999,9999,2210244680
11720,5,ISIP_5,136,9999,9999,9999,2210744372
11720,5,ISIP_5,137,9999,9999,9999,2211244136
11720,5,ISIP_5,138,9999,9999,9999,2211744876
11720,5,ISIP_5,139,9999,9999,9999,2212244564
11720,5,ISIP_5,140,9999,9999,9999,2212744256
11720,5,ISIP_5,141,9999,9999,9999,2213244992
11720,5,ISIP_5,142,9999,9999,9999,2213744756
11720,5,ISIP_5,143,9999,9999,9999,2214244448
11720,5,ISIP_5,144,9999,9999,9999,2214744140
11720,5,ISIP_5,145,9999,9999,9999,2215244876
11720,5,ISIP_5,146,9999,9999,9999,2215744632
11720,5,ISIP_5,147,9999,9999,9999,2216244324
11720,5,ISIP_5,148,9999,9999,9999,2216745068
11720,5,ISIP_5,149,9999,9999,9999,2217244756
11720,5,ISIP_5,150,9999,9999,9999,2217744448
11720,5,ISIP_5,151,9999,9999,9999,2218244212
11720,5,ISIP_5,152,9999,9999,9999,2218744948
11720,5,ISIP_5,153,9999,9999,9999,2219244640
11720,5,ISIP_5,154,9999,9999,9999,2219744332
11720,5,ISIP_5,155,9999,9999,9999,2220245068
11720,5,ISIP_5,156,9999,9999,9999,2220744776
11720,5,ISIP_5,157,9999,9999,9999,2221244464
11720,5,ISIP_5,158,9999,9999,9999,2221744236
11720,5,ISIP_5,159,9999,9999,9999,2222244976
11721,3,ISIP_8,0,5,42,127,2246314448
11721,3,ISIP_8,1,5,42,127,2247114352
11721,3,ISIP_8,2,5,42,127,2247913808
11721,3,ISIP_8,3,5,42,127,2248713712
11721,3,ISIP_8,4,1,48,48,2249404452
11721,3,ISIP_8,5,5,42,127,2249514344
11721,3,ISIP_8,6,1,48,39,2250246148
11721,3,ISIP_8,7,5,42,127,2250314268
11721,3,ISIP_8,8,1,48,37,2251103424
11721,3,ISIP_8,9,5,42,127,2251113704
11721,3,ISIP_8,10,5,42,127,2251913592
11721,3,ISIP_8,11,1,48,37,2251941616
11721,3,ISIP_8,12,5,42,127,2252714296
11721,3,ISIP_8,13,1,48,35,2252715264
11721,3,ISIP_8,14,1,48,36,2253484596
11721,3,ISIP_8,15,5,42,127,2253514172
11721,3,ISIP_8,16,1,48,35,2254287620
11721,3,ISIP_8,17,5,42,127,2254314056
11721,3,ISIP_8,18,1,48,24,2255079724
11721,3,ISIP_8,19,5,42,127,2255113492
11721,3,ISIP_8,20,1,48,32,2255836148
11721,3,ISIP_8,21,5,42,127,2255914344
11721,3,ISIP_8,22,1,48,26,2256621368
11721,3,ISIP_8,23,5,42,127,2256714984
11721,3,ISIP_8,24,1,48,27,2257412872
11721,3,ISIP_8,25,5,42,127,2257514116
11721,3,ISIP_8,26,1,48,30,2258200188
11721,3,ISIP_8,27,5,42,127,2258313480
11721,3,ISIP_8,28,1,48,27,2259050888
11721,3,ISIP_8,29,5,42,127,2259114276
11721,3,ISIP_8,30,1,48,33,2259829600
11721,3,ISIP_8,31,5,42,127,2259914084
11721,3,ISIP_8,32,1,48,30,2260595832
11721,3,ISIP_8,33,5,42,127,2260713952
11721,3,ISIP_8,34,1,48,29,2261485316
11721,3,ISIP_8,35,5,42,127,2261513552
11721,3,ISIP_8,36,5,42,127,2262314336
11721,3,ISIP_8,37,1,48,32,2262330772
11721,3,ISIP_8,38,5,42,127,2263113948
11721,3,ISIP_8,39,1,48,35,2263147808
11721,3,ISIP_8,40,5,42,127,2263913828
11721,3,ISIP_8,41,1,48,27,2263964368
11721,3,ISIP_8,42,5,42,127,2264713636
11721,3,ISIP_8,43,1,48,32,2264773448
11721,3,ISIP_8,44,1,48,33,2265507196
11721,3,ISIP_8,45,5,42,127,2265514336
11721,3,ISIP_8,46,5,42,127,2266314000
11721,3,ISIP_8,47,1,48,31,2266322956
11721,3,ISIP_8,48,5,42,127,2267113884
11721,3,ISIP_8,49,1,48,29,2267127472
11721,3,ISIP_8,50,5,42,127,2267913468
11721,3,ISIP_8,51,1,48,27,2267948152
11721,3,ISIP_8,52,5,42,127,2268714320
11721,3,ISIP_8,53,1,48,36,2268729104
11721,3,ISIP_8,54,1,48,39,2269511568
11721,3,ISIP_8,55,5,42,127,2269514072
11721,3,ISIP_8,56,1,48,31,2270313036
11721,3,ISIP_8,57,1,48,28,2271183004
11721,3,ISIP_8,58,1,48,24,2271987144
11721,3,ISIP_8,59,1,48,31,2272866780
11721,3,ISIP_8,60,1,48,31,2273774440
11721,3,ISIP_8,61,1,48,26,2274655576
11721,3,ISIP_8,62,1,48,29,2275497788
11721,3,ISIP_8,63,1,48,26,2276404332
11721,3,ISIP_8,64,1,48,24,2277336476
11721,3,ISIP_8,65,1,48,29,2278252312
11721,3,ISIP_8,66,1,48,26,2279131868
11721,3,ISIP_8,67,1,48,22,2280080396
11721,3,ISIP_8,68,1,48,24,2281008700
11721,3,ISIP_8,69,1,48,23,2281946008
11721,3,ISIP_8,70,1,48,27,2282895132
11721,3,ISIP_8,71,1,48,22,2283831744
11721,3,ISIP_8,72,1,48,28,2284733008
11721,3,ISIP_8,73,1,48,36,2285650792
11721,3,ISIP_8,74,1,48,31,2286573644
11721,3,ISIP_8,75,1,48,21,2287452008
11721,3,ISIP_8,76,1,48,22,2288381884
11721,3,ISIP_8,77,1,48,21,2289320540
11721,3,ISIP_8,78,1,48,29,2290208456
11721,3,ISIP_8,79,1,48,23,2291064532
11721,3,ISIP_8,80,1,48,24,2292034388
11721,3,ISIP_8,81,1,48,22,2293012512
11721,3,ISIP_8,82,1,48,25,2293918780
11721,3,ISIP_8,83,1,48,20,2294830552
11721,3,ISIP_8,84,1,48,23,2295735020
11721,3,ISIP_8,85,1,48,24,2296653332
11721,3,ISIP_8,86,1,48,33,2297603344
11721,3,ISIP_8,87,1,48,24,2298571092
11721,3,ISIP_8,88,1,48,23,2299486860
11721,3,ISIP_8,89,1,48,36,2300484004
11721,3,ISIP_8,90,1,48,25,2301426372
11721,3,ISIP_8,91,1,48,24,2302385236
11721,3,ISIP_8,92,1,48,27,2303356572
11721,3,ISIP_8,93,1,48,26,2304415572
11721,3,ISIP_8,94,1,48,19,2305433064
11721,3,ISIP_8,95,1,48,38,2306396344
11721,3,ISIP_8,96,1,48,32,2307417128
11721,3,ISIP_8,97,1,48,31,2308376624
11721,3,ISIP_8,98,1,48,38,2309336892
11721,3,ISIP_8,99,1,48,41,2310357908
11721,3,ISIP_8,100,1,48,26,2311319524
11721,3,ISIP_8,101,1,48,33,2312310916
11721,3,ISIP_8,102,1,48,30,2313297884
11721,3,ISIP_8,103,1,48,27,2314301240
11721,3,ISIP_8,104,1,48,30,2315287452
11721,3,ISIP_8,105,1,48,24,2316226184
11721,3,ISIP_8,106,1,48,28,2317254968
11721,3,ISIP_8,107,1,48,22,2318283980
11721,3,ISIP_8,108,1,48,30,2319227060
11721,3,ISIP_8,109,1,48,28,2320184984
11721,3,ISIP_8,110,1,48,25,2321125056
11721,3,ISIP_8,111,1,48,30,2321988464
11721,3,ISIP_8,112,1,48,29,2322903904
11721,3,ISIP_8,113,1,48,22,2323750904
11721,3,ISIP_8,114,1,48,31,2324707136
11721,3,ISIP_8,115,1,48,36,2325632340
11721,3,ISIP_8,116,1,48,33,2326543892
11721,3,ISIP_8,117,1,48,26,2327425996
11721,3,ISIP_8,118,1,48,22,2328436680
11721,3,ISIP_8,119,1,48,33,2329407800
11721,3,ISIP_8,120,1,48,27,2330433376
11721,3,ISIP_8,121,1,48,32,2331367672
11721,3,ISIP_8,122,1,48,22,2332412608
11721,3,ISIP_8,123,1,48,27,2333368544
11721,3,ISIP_8,124,1,48,37,2334430172
11721,3,ISIP_8,125,1,48,24,2335448416
11721,3,ISIP_8,126,1,48,32,2336439352
11721,3,ISIP_8,127,1,48,26,2337290392
11721,3,ISIP_8,128,1,48,34,2338198448
11721,3,ISIP_8,129,1,48,35,2339100128
11721,3,ISIP_8,130,1,48,27,2339949560
11721,3,ISIP_8,131,1,48,36,2340819452
11721,3,ISIP_8,132,1,48,25,2341698940
11721,3,ISIP_8,133,1,48,31,2342639512
11721,3,ISIP_8,134,1,48,36,2343556700
11721,3,ISIP_8,135,1,48,24,2344486132
11721,3,ISIP_8,136,1,48,32,2345429420
11721,3,ISIP_8,137,1,48,28,2346435784
11721,3,ISIP_8,138,1,48,34,2347335764
11721,3,ISIP_8,139,1,48,21,2348316132
11721,3,ISIP_8,140,1,48,27,2349257252
11721,3,ISIP_8,141,1,48,30,2350178248
11721,3,ISIP_8,142,1,48,23,2351190148
11721,3,ISIP_8,143,1,48,26,2352175524
11721,3,ISIP_8,144,1,48,19,2353127116
11721,3,ISIP_8,145,1,48,32,2354055748
11721,3,ISIP_8,146,1,48,28,2355013620
11721,3,ISIP_8,147,1,48,28,2356028808
11721,3,ISIP_8,148,1,48,25,2357061332
11721,3,ISIP_8,149,1,48,25,2358177860
11721,3,ISIP_8,150,1,48,24,2359237996
11721,3,ISIP_8,151,1,48,20,2360258928
11721,3,ISIP_8,152,1,48,26,2361227120
11721,3,ISIP_8,153,1,48,24,2362205868
11721,3,ISIP_8,154,1,48,24,2363152812
11721,3,ISIP_8,155,1,48,21,2364101040
11721,3,ISIP_8,156,1,48,27,2365069760
11721,3,ISIP_8,157,1,48,29,2366046268
11721,3,ISIP_8,0,9999,9999,9999,2246312008
11721,3,ISIP_8,1,9999,9999,9999,2247111764
11721,3,ISIP_8,2,9999,9999,9999,2247911520
11721,3,ISIP_8,3,9999,9999,9999,2248711276
11721,3,ISIP_8,4,9999,9999,9999,2249512056
11721,3,ISIP_8,5,9999,9999,9999,2250311756
11721,3,ISIP_8,6,9999,9999,9999,2251111488
11721,3,ISIP_8,7,9999,9999,9999,2251911228
11721,3,ISIP_8,8,9999,9999,9999,2252712008
11721,3,ISIP_8,9,9999,9999,9999,2253511736
11721,3,ISIP_8,10,9999,9999,9999,2254311544
11721,3,ISIP_8,11,9999,9999,9999,2255111276
11721,3,ISIP_8,12,9999,9999,9999,2255911984
11721,3,ISIP_8,13,9999,9999,9999,2256711740
11721,3,ISIP_8,14,9999,9999,9999,2257511532
11721,3,ISIP_8,15,9999,9999,9999,2258311264
11721,3,ISIP_8,16,9999,9999,9999,2259111988
11721,3,ISIP_8,17,9999,9999,9999,2259911796
11721,3,ISIP_8,18,9999,9999,9999,2260711512
11721,3,ISIP_8,19,9999,9999,9999,2261511260
11721,3,ISIP_8,20,9999,9999,9999,2262312048
11721,3,ISIP_8,21,9999,9999,9999,2263111732
11721,3,ISIP_8,22,9999,9999,9999,2263911540
11721,3,ISIP_8,23,9999,9999,9999,2264711272
11721,3,ISIP_8,24,9999,9999,9999,2265512048
11721,3,ISIP_8,25,9999,9999,9999,2266311788
11721,3,ISIP_8,26,9999,9999,9999,2267111520
11721,3,ISIP_8,27,9999,9999,9999,2267911252
11721,3,ISIP_8,28,9999,9999,9999,2268712032
11721,3,ISIP_8,29,9999,9999,9999,2269511784
11721,3,ISIP_8,30,9999,9999,9999,2270311524
11721,3,ISIP_8,31,9999,9999,9999,2271111252
11721,3,ISIP_8,32,9999,9999,9999,2271912028
11721,3,ISIP_8,33,9999,9999,9999,2272711756
11721,3,ISIP_8,34,9999,9999,9999,2273511484
11721,3,ISIP_8,35,9999,9999,9999,2274311288
11721,3,ISIP_8,36,9999,9999,9999,2275111988
11721,3,ISIP_8,37,9999,9999,9999,2275911744
11721,3,ISIP_8,38,9999,9999,9999,2276711472
11721,3,ISIP_8,39,9999,9999,9999,2277511276
11721,3,ISIP_8,40,9999,9999,9999,2278311992
11721,3,ISIP_8,41,9999,9999,9999,2279111728
11721,3,ISIP_8,42,9999,9999,9999,2279911532
11721,3,ISIP_8,43,9999,9999,9999,2280711264
11721,3,ISIP_8,44,9999,9999,9999,2281512040
11721,3,ISIP_8,45,9999,9999,9999,2282311792
11721,3,ISIP_8,46,9999,9999,9999,2283111520
11721,3,ISIP_8,47,9999,9999,9999,2283911268
11721,3,ISIP_8,48,9999,9999,9999,2284712048
11721,3,ISIP_8,49,9999,9999,9999,2285511776
11721,3,ISIP_8,50,9999,9999,9999,2286311508
11721,3,ISIP_8,51,9999,9999,9999,2287111236
11721,3,ISIP_8,52,9999,9999,9999,2287912012
11721,3,ISIP_8,53,9999,9999,9999,2288711768
11721,3,ISIP_8,54,9999,9999,9999,2289511496
11721,3,ISIP_8,55,9999,9999,9999,2290311228
11721,3,ISIP_8,56,9999,9999,9999,2291112016
11721,3,ISIP_8,57,9999,9999,9999,2291911752
11721,3,ISIP_8,58,9999,9999,9999,2292711484
11721,3,ISIP_8,59,9999,9999,9999,2293511284
11721,3,ISIP_8,60,9999,9999,9999,2294311988
11721,3,ISIP_8,61,9999,9999,9999,2295111740
11721,3,ISIP_8,62,9999,9999,9999,2295911544
11721,3,ISIP_8,63,9999,9999,9999,2296711288
11721,3,ISIP_8,64,9999,9999,9999,2297511996
11721,3,ISIP_8,65,9999,9999,9999,2298311728
11721,3,ISIP_8,66,9999,9999,9999,2299111528
11721,3,ISIP_8,67,9999,9999,9999,2299911260
11721,3,ISIP_8,68,9999,9999,9999,2300712036
11721,3,ISIP_8,69,9999,9999,9999,2301511728
11721,3,ISIP_8,70,9999,9999,9999,2302311540
11721,3,ISIP_8,71,9999,9999,9999,2303111268
11721,3,ISIP_8,72,9999,9999,9999,2303912044
11721,3,ISIP_8,73,9999,9999,9999,2304711772
11721,3,ISIP_8,74,9999,9999,9999,2305511520
11721,3,ISIP_8,75,9999,9999,9999,2306311256
11721,3,ISIP_8,76,9999,9999,9999,2307112028
11721,3,ISIP_8,77,9999,9999,9999,2307911788
11721,3,ISIP_8,78,9999,9999,9999,2308711516
11721,3,ISIP_8,79,9999,9999,9999,2309511244
11721,3,ISIP_8,80,9999,9999,9999,2310312040
11721,3,ISIP_8,81,9999,9999,9999,2311111772
11721,3,ISIP_8,82,9999,9999,9999,2311911500
11721,3,ISIP_8,83,9999,9999,9999,2312711232
11721,3,ISIP_8,84,9999,9999,9999,2313512008
11721,3,ISIP_8,85,9999,9999,9999,2314311776
11721,3,ISIP_8,86,9999,9999,9999,2315111512
11721,3,ISIP_8,87,9999,9999,9999,2315911244
11721,3,ISIP_8,88,9999,9999,9999,2316712016
11721,3,ISIP_8,89,9999,9999,9999,2317511748
11721,3,ISIP_8,90,9999,9999,9999,2318311492
11721,3,ISIP_8,91,9999,9999,9999,2319111228
11721,3,ISIP_8,92,9999,9999,9999,2319912004
11721,3,ISIP_8,93,9999,9999,9999,2320711756
11721,3,ISIP_8,94,9999,9999,9999,2321511488
11721,3,ISIP_8,95,9999,9999,9999,2322311216
11721,3,ISIP_8,96,9999,9999,9999,2323111992
11721,3,ISIP_8,97,9999,9999,9999,2323911796
11721,3,ISIP_8,98,9999,9999,9999,2324711540
11721,3,ISIP_8,99,9999,9999,9999,2325511276
11721,3,ISIP_8,100,9999,9999,9999,2326312052
11721,3,ISIP_8,101,9999,9999,9999,2327111732
11721,3,ISIP_8,102,9999,9999,9999,2327911536
11721,3,ISIP_8,103,9999,9999,9999,2328711264
11721,3,ISIP_8,104,9999,9999,9999,2329512040
11721,3,ISIP_8,105,9999,9999,9999,2330311792
11721,3,ISIP_8,106,9999,9999,9999,2331111520
11721,3,ISIP_8,107,9999,9999,9999,2331911248
11721,3,ISIP_8,108,9999,9999,9999,2332712024
11721,3,ISIP_8,109,9999,9999,9999,2333511776
11721,3,ISIP_8,110,9999,9999,9999,2334311528
11721,3,ISIP_8,111,9999,9999,9999,2335111256
11721,3,ISIP_8,112,9999,9999,9999,2335912032
11721,3,ISIP_8,113,9999,9999,9999,2336711760
11721,3,ISIP_8,114,9999,9999,9999,2337511492
11721,3,ISIP_8,115,9999,9999,9999,2338311220
11721,3,ISIP_8,116,9999,9999,9999,2339112012
11721,3,ISIP_8,117,9999,9999,9999,2339911772
11721,3,ISIP_8,118,9999,9999,9999,2340711500
11721,3,ISIP_8,119,9999,9999,9999,2341511232
11721,3,ISIP_8,120,9999,9999,9999,2342312008
11721,3,ISIP_8,121,9999,9999,9999,2343111736
11721,3,ISIP_8,122,9999,9999,9999,2343911540
11721,3,ISIP_8,123,9999,9999,9999,2344711268
11721,3,ISIP_8,124,9999,9999,9999,2345511988
11721,3,ISIP_8,125,9999,9999,9999,2346311748
11721,3,ISIP_8,126,9999,9999,9999,2347111476
11721,3,ISIP_8,127,9999,9999,9999,2347911284
11721,3,ISIP_8,128,9999,9999,9999,2348712056
11721,3,ISIP_8,129,9999,9999,9999,2349511788
11721,3,ISIP_8,130,9999,9999,9999,2350311516
11721,3,ISIP_8,131,9999,9999,9999,2351111268
11721,3,ISIP_8,132,9999,9999,9999,2351912044
11721,3,ISIP_8,133,9999,9999,9999,2352711796
11721,3,ISIP_8,134,9999,9999,9999,2353511524
11721,3,ISIP_8,135,9999,9999,9999,2354311256
11721,3,ISIP_8,136,9999,9999,9999,2355112032
11721,3,ISIP_8,137,9999,9999,9999,2355911784
11721,3,ISIP_8,138,9999,9999,9999,2356711512
11721,3,ISIP_8,139,9999,9999,9999,2357511240
11721,3,ISIP_8,140,9999,9999,9999,2358312016
11721,3,ISIP_8,141,9999,9999,9999,2359111792
11721,3,ISIP_8,142,9999,9999,9999,2359911520
11721,3,ISIP_8,143,9999,9999,9999,2360711248
11721,3,ISIP_8,144,9999,9999,9999,2361512028
11721,3,ISIP_8,145,9999,9999,9999,2362311756
11721,3,ISIP_8,146,9999,9999,9999,2363111508
11721,3,ISIP_8,147,9999,9999,9999,2363911236
11721,3,ISIP_8,148,9999,9999,9999,2364712012
11721,3,ISIP_8,149,9999,9999,9999,2365511764
11722,11,Pattern_Practice,0,5,42,127,2486331744
11722,11,Pattern_Practice,1,5,42,127,2486831584
11722,11,Pattern_Practice,2,5,42,127,2487332272
11722,11,Pattern_Practice,3,5,42,127,2487831768
11722,11,Pattern_Practice,4,1,48,46,2488315064
11722,11,Pattern_Practice,5,5,42,127,2488331552
11722,11,Pattern_Practice,6,1,48,55,2488727540
11722,11,Pattern_Practice,7,5,42,127,2488832276
11722,11,Pattern_Practice,8,1,38,62,2489244660
11722,11,Pattern_Practice,9,5,42,127,2489332208
11722,11,Pattern_Practice,10,1,48,48,2489769192
11722,11,Pattern_Practice,11,5,42,127,2489831904
11722,11,Pattern_Practice,12,1,48,54,2490227076
11722,11,Pattern_Practice,13,5,42,127,2490331436
11722,11,Pattern_Practice,14,1,38,57,2490674160
11722,11,Pattern_Practice,15,5,42,127,2490832228
11722,11,Pattern_Practice,16,1,48,52,2491255460
11722,11,Pattern_Practice,17,5,42,127,2491332164
11722,11,Pattern_Practice,18,1,48,54,2491754480
11722,11,Pattern_Practice,19,5,42,127,2491831632
11722,11,Pattern_Practice,20,1,38,55,2492236376
11722,11,Pattern_Practice,21,5,42,127,2492332304
11722,11,Pattern_Practice,22,1,48,58,2492764424
11722,11,Pattern_Practice,23,5,42,127,2492832296
11722,11,Pattern_Practice,24,1,48,55,2493241000
11722,11,Pattern_Practice,25,5,42,127,2493331768
11722,11,Pattern_Practice,26,1,38,49,2493742764
11722,11,Pattern_Practice,27,5,42,127,2493831388
11722,11,Pattern_Practice,28,1,38,56,2494303596
11722,11,Pattern_Practice,29,5,42,127,2494332204
11722,11,Pattern_Practice,30,1,38,51,2494790496
11722,11,Pattern_Practice,31,5,42,127,2494832268
11722,11,Pattern_Practice,32,1,38,58,2495271692
11722,11,Pattern_Practice,33,5,42,127,2495331664
11722,11,Pattern_Practice,34,1,38,59,2495733388
11722,11,Pattern_Practice,35,1,38,22,2495808864
11722,11,Pattern_Practice,36,5,42,127,2495832312
11722,11,Pattern_Practice,37,1,48,51,2496236352
11722,11,Pattern_Practice,38,5,42,127,2496332152
11722,11,Pattern_Practice,39,1,48,46,2496703356
11722,11,Pattern_Practice,40,5,42,127,2496831984
11722,11,Pattern_Practice,41,1,48,55,2497203804
11722,11,Pattern_Practice,42,5,42,127,2497331456
11722,11,Pattern_Practice,43,5,42,127,2497832416
11722,11,Pattern_Practice,44,5,42,127,2498332208
11722,11,Pattern_Practice,45,1,38,13,2498413068
11722,11,Pattern_Practice,46,1,38,56,2498819448
11722,11,Pattern_Practice,47,5,42,127,2498831596
11722,11,Pattern_Practice,48,1,38,57,2499287056
11722,11,Pattern_Practice,49,5,42,127,2499331368
11722,11,Pattern_Practice,50,1,38,57,2499784128
11722,11,Pattern_Practice,51,5,42,127,2499832108
11722,11,Pattern_Practice,52,1,48,51,2500261756
11722,11,Pattern_Practice,53,5,42,127,2500332100
11722,11,Pattern_Practice,54,1,38,52,2500714404
11722,11,Pattern_Practice,55,5,42,127,2500831560
11722,11,Pattern_Practice,56,1,38,57,2501185152
11722,11,Pattern_Practice,57,5,42,127,2501332224
11722,11,Pattern_Practice,58,1,38,57,2501610924
11722,11,Pattern_Practice,59,5,42,127,2501832140
11722,11,Pattern_Practice,60,1,48,49,2502080548
11722,11,Pattern_Practice,61,5,42,127,2502331688
11722,11,Pattern_Practice,62,1,38,56,2502527288
11722,11,Pattern_Practice,63,5,42,127,2502831384
11722,11,Pattern_Practice,64,1,38,53,2502969760
11722,11,Pattern_Practice,65,5,42,127,2503332200
11722,11,Pattern_Practice,66,1,38,54,2503417972
11722,11,Pattern_Practice,67,5,42,127,2503832040
11722,11,Pattern_Practice,68,1,48,51,2503861264
11722,11,Pattern_Practice,69,1,38,51,2504283228
11722,11,Pattern_Practice,70,5,42,127,2504331876
11722,11,Pattern_Practice,71,1,38,53,2504724556
11722,11,Pattern_Practice,72,5,42,127,2504832308
11722,11,Pattern_Practice,73,1,38,57,2505181984
11722,11,Pattern_Practice,74,1,38,19,2505272348
11722,11,Pattern_Practice,75,5,42,127,2505332440
11722,11,Pattern_Practice,76,1,48,46,2505631020
11722,11,Pattern_Practice,77,5,42,127,2505832044
11722,11,Pattern_Practice,78,1,38,53,2506070352
11722,11,Pattern_Practice,79,5,42,127,2506331664
11722,11,Pattern_Practice,80,1,38,52,2506503456
11722,11,Pattern_Practice,81,5,42,127,2506832332
11722,11,Pattern_Practice,82,1,38,53,2506941436
11722,11,Pattern_Practice,83,5,42,127,2507332028
11722,11,Pattern_Practice,84,1,48,48,2507383464
11722,11,Pattern_Practice,85,1,38,43,2507796200
11722,11,Pattern_Practice,86,5,42,127,2507831864
11722,11,Pattern_Practice,87,1,38,50,2508209880
11722,11,Pattern_Practice,88,5,42,127,2508332344
11722,11,Pattern_Practice,89,1,38,55,2508653548
11722,11,Pattern_Practice,90,5,42,127,2508832036
11722,11,Pattern_Practice,91,1,48,46,2509100636
11722,11,Pattern_Practice,92,5,42,127,2509331956
11722,11,Pattern_Practice,93,1,38,46,2509519700
11722,11,Pattern_Practice,94,5,42,127,2509831800
11722,11,Pattern_Practice,95,1,38,47,2509936072
11722,11,Pattern_Practice,96,5,42,127,2510332168
11722,11,Pattern_Practice,97,1,38,46,2510350168
11722,11,Pattern_Practice,98,1,48,44,2510721272
11722,11,Pattern_Practice,99,5,42,127,2510831916
11722,11,Pattern_Practice,100,1,38,42,2511205408
11722,11,Pattern_Practice,101,5,42,127,2511331908
11722,11,Pattern_Practice,102,1,38,50,2511642320
11722,11,Pattern_Practice,103,5,42,127,2511832500
11722,11,Pattern_Practice,104,1,38,51,2512066244
11722,11,Pattern_Practice,105,5,42,127,2512332044
11722,11,Pattern_Practice,106,1,48,42,2512459204
11722,11,Pattern_Practice,107,5,42,127,2512831812
11722,11,Pattern_Practice,108,1,38,46,2512885496
11722,11,Pattern_Practice,109,1,38,45,2513318004
11722,11,Pattern_Practice,110,5,42,127,2513331648
11722,11,Pattern_Practice,111,1,38,52,2513736320
11722,11,Pattern_Practice,112,5,42,127,2513832376
11722,11,Pattern_Practice,113,1,48,43,2514144884
11722,11,Pattern_Practice,114,5,42,127,2514332220
11722,11,Pattern_Practice,115,1,38,40,2514599920
11722,11,Pattern_Practice,116,5,42,127,2514831616
11722,11,Pattern_Practice,117,1,38,44,2515047108
11722,11,Pattern_Practice,118,5,42,127,2515331536
11722,11,Pattern_Practice,119,1,38,43,2515504964
11722,11,Pattern_Practice,120,5,42,127,2515832028
11722,11,Pattern_Practice,121,1,38,40,2515956920
11722,11,Pattern_Practice,122,5,42,127,2516331944
11722,11,Pattern_Practice,123,1,38,44,2516382864
11722,11,Pattern_Practice,124,1,38,52,2516762608
11722,11,Pattern_Practice,125,5,42,127,2516831632
11722,11,Pattern_Practice,126,1,48,40,2517133580
11722,11,Pattern_Practice,127,5,42,127,2517332360
11722,11,Pattern_Practice,128,1,38,44,2517536236
11722,11,Pattern_Practice,129,5,42,127,2517832052
11722,11,Pattern_Practice,130,1,38,43,2517925156
11722,11,Pattern_Practice,131,5,42,127,2518331976
11722,11,Pattern_Practice,132,1,38,43,2518332940
11722,11,Pattern_Practice,133,1,38,46,2518755688
11722,11,Pattern_Practice,134,5,42,127,2518831564
11722,11,Pattern_Practice,135,1,48,39,2519092096
11722,11,Pattern_Practice,136,5,42,127,2519332216
11722,11,Pattern_Practice,137,1,38,44,2519498796
11722,11,Pattern_Practice,138,5,42,127,2519831912
11722,11,Pattern_Practice,139,1,38,40,2519853728
11722,11,Pattern_Practice,140,1,38,44,2520246744
11722,11,Pattern_Practice,141,5,42,127,2520331600
11722,11,Pattern_Practice,142,1,38,49,2520610652
11722,11,Pattern_Practice,143,5,42,127,2520832548
11722,11,Pattern_Practice,144,1,48,40,2520952304
11722,11,Pattern_Practice,145,1,38,36,2521312084
11722,11,Pattern_Practice,146,5,42,127,2521332016
11722,11,Pattern_Practice,147,1,38,46,2521645632
11722,11,Pattern_Practice,148,5,42,127,2521831696
11722,11,Pattern_Practice,149,1,38,44,2522007544
11722,11,Pattern_Practice,150,5,42,127,2522331540
11722,11,Pattern_Practice,151,1,38,48,2522338848
11722,11,Pattern_Practice,152,1,48,38,2522660848
11722,11,Pattern_Practice,153,5,42,127,2522832256
11722,11,Pattern_Practice,154,1,38,45,2522952608
11722,11,Pattern_Practice,155,1,38,37,2523283216
11722,11,Pattern_Practice,156,5,42,127,2523331872
11722,11,Pattern_Practice,157,1,38,40,2523601956
11722,11,Pattern_Practice,158,5,42,127,2523831552
11722,11,Pattern_Practice,159,1,38,52,2523910440
11722,11,Pattern_Practice,160,1,48,36,2524198784
11722,11,Pattern_Practice,161,5,42,127,2524332644
11722,11,Pattern_Practice,162,1,38,43,2524479028
11722,11,Pattern_Practice,163,1,38,42,2524831820
11722,11,Pattern_Practice,164,5,42,127,2524833984
11722,11,Pattern_Practice,165,1,38,48,2525159712
11722,11,Pattern_Practice,166,5,42,127,2525331792
11722,11,Pattern_Practice,167,1,38,50,2525486600
11722,11,Pattern_Practice,168,1,48,37,2525818056
11722,11,Pattern_Practice,169,5,42,127,2525831628
11722,11,Pattern_Practice,170,1,38,44,2526162368
11722,11,Pattern_Practice,0,9999,9999,9999,2486329456
11722,11,Pattern_Practice,1,9999,9999,9999,2486829148
11722,11,Pattern_Practice,2,9999,9999,9999,2487329912
11722,11,Pattern_Practice,3,9999,9999,9999,2487829552
11722,11,Pattern_Practice,4,9999,9999,9999,2488329336
11722,11,Pattern_Practice,5,9999,9999,9999,2488830064
11722,11,Pattern_Practice,6,9999,9999,9999,2489329772
11722,11,Pattern_Practice,7,9999,9999,9999,2489829468
11722,11,Pattern_Practice,8,9999,9999,9999,2490329148
11722,11,Pattern_Practice,9,9999,9999,9999,2490829940
11722,11,Pattern_Practice,10,9999,9999,9999,2491329652
11722,11,Pattern_Practice,11,9999,9999,9999,2491829348
11722,11,Pattern_Practice,12,9999,9999,9999,2492330088
11722,11,Pattern_Practice,13,9999,9999,9999,2492829784
11722,11,Pattern_Practice,14,9999,9999,9999,2493329480
11722,11,Pattern_Practice,15,9999,9999,9999,2493829172
11722,11,Pattern_Practice,16,9999,9999,9999,2494329916
11722,11,Pattern_Practice,17,9999,9999,9999,2494829684
11722,11,Pattern_Practice,18,9999,9999,9999,2495329380
11722,11,Pattern_Practice,19,9999,9999,9999,2495830096
11722,11,Pattern_Practice,20,9999,9999,9999,2496329792
11722,11,Pattern_Practice,21,9999,9999,9999,2496829544
11722,11,Pattern_Practice,22,9999,9999,9999,2497329216
11722,11,Pattern_Practice,23,9999,9999,9999,2497829980
11722,11,Pattern_Practice,24,9999,9999,9999,2498329696
11722,11,Pattern_Practice,25,9999,9999,9999,2498829384
11722,11,Pattern_Practice,26,9999,9999,9999,2499329080
11722,11,Pattern_Practice,27,9999,9999,9999,2499829820
11722,11,Pattern_Practice,28,9999,9999,9999,2500329592
11722,11,Pattern_Practice,29,9999,9999,9999,2500829272
11722,11,Pattern_Practice,30,9999,9999,9999,2501330012
11722,11,Pattern_Practice,31,9999,9999,9999,2501829704
11722,11,Pattern_Practice,32,9999,9999,9999,2502329400
11722,11,Pattern_Practice,33,9999,9999,9999,2502829168
11722,11,Pattern_Practice,34,9999,9999,9999,2503329912
11722,11,Pattern_Practice,35,9999,9999,9999,2503829604
11722,11,Pattern_Practice,36,9999,9999,9999,2504329292
11722,11,Pattern_Practice,37,9999,9999,9999,2504830020
11722,11,Pattern_Practice,38,9999,9999,9999,2505329780
11722,11,Pattern_Practice,39,9999,9999,9999,2505829460
11722,11,Pattern_Practice,40,9999,9999,9999,2506329156
11722,11,Pattern_Practice,41,9999,9999,9999,2506829896
11722,11,Pattern_Practice,42,9999,9999,9999,2507329588
11722,11,Pattern_Practice,43,9999,9999,9999,2507829352
11722,11,Pattern_Practice,44,9999,9999,9999,2508330056
11722,11,Pattern_Practice,45,9999,9999,9999,2508829748
11722,11,Pattern_Practice,46,9999,9999,9999,2509329520
11722,11,Pattern_Practice,47,9999,9999,9999,2509829216
11722,11,Pattern_Practice,48,9999,9999,9999,2510329956
11722,11,Pattern_Practice,49,9999,9999,9999,2510829628
11722,11,Pattern_Practice,50,9999,9999,9999,2511329396
11722,11,Pattern_Practice,51,9999,9999,9999,2511830136
11722,11,Pattern_Practice,52,9999,9999,9999,2512329832
11722,11,Pattern_Practice,53,9999,9999,9999,2512829528
11722,11,Pattern_Practice,54,9999,9999,9999,2513329212
11722,11,Pattern_Practice,55,9999,9999,9999,2513829956
11722,11,Pattern_Practice,56,9999,9999,9999,2514329708
11722,11,Pattern_Practice,57,9999,9999,9999,2514829404
11722,11,Pattern_Practice,58,9999,9999,9999,2515329096
11722,11,Pattern_Practice,59,9999,9999,9999,2515829812
11722,11,Pattern_Practice,60,9999,9999,9999,2516329584
11722,11,Pattern_Practice,61,9999,9999,9999,2516829272
11722,11,Pattern_Practice,62,9999,9999,9999,2517329996
11722,11,Pattern_Practice,63,9999,9999,9999,2517829692
11722,11,Pattern_Practice,64,9999,9999,9999,2518329464
11722,11,Pattern_Practice,65,9999,9999,9999,2518829128
11722,11,Pattern_Practice,66,9999,9999,9999,2519329856
11722,11,Pattern_Practice,67,9999,9999,9999,2519829624
11722,11,Pattern_Practice,68,9999,9999,9999,2520329312
11722,11,Pattern_Practice,69,9999,9999,9999,2520830040
11722,11,Pattern_Practice,70,9999,9999,9999,2521329728
11722,11,Pattern_Practice,71,9999,9999,9999,2521829480
11722,11,Pattern_Practice,72,9999,9999,9999,2522329176
11722,11,Pattern_Practice,73,9999,9999,9999,2522829896
11722,11,Pattern_Practice,74,9999,9999,9999,2523329584
11722,11,Pattern_Practice,75,9999,9999,9999,2523829340
11722,11,Pattern_Practice,76,9999,9999,9999,2524330060
11722,11,Pattern_Practice,77,9999,9999,9999,2524829756
11722,11,Pattern_Practice,78,9999,9999,9999,2525329504
11722,11,Pattern_Practice,79,9999,9999,9999,2525829192
11723,13,Improv_Metronome,0,5,42,127,2586433036
11723,13,Improv_Metronome,1,5,42,127,2586932604
11723,13,Improv_Metronome,2,5,42,127,2587433416
11723,13,Improv_Metronome,3,5,42,127,2587933060
11723,13,Improv_Metronome,4,5,42,127,2588432924
11723,13,Improv_Metronome,5,5,42,127,2588932492
11723,13,Improv_Metronome,6,5,42,127,2589433180
11723,13,Improv_Metronome,7,5,42,127,2589932972
11723,13,Improv_Metronome,8,1,38,45,2590367424
11723,13,Improv_Metronome,9,1,48,49,2590379896
11723,13,Improv_Metronome,10,5,42,127,2590432588
11723,13,Improv_Metronome,11,1,48,49,2590653504
11723,13,Improv_Metronome,12,1,38,28,2590680484
11723,13,Improv_Metronome,13,1,38,46,2590904116
11723,13,Improv_Metronome,14,1,48,52,2590909560
11723,13,Improv_Metronome,15,5,42,127,2590933304
11723,13,Improv_Metronome,16,1,48,59,2591242476
11723,13,Improv_Metronome,17,5,42,127,2591433104
11723,13,Improv_Metronome,18,1,48,57,2591769320
11723,13,Improv_Metronome,19,1,38,40,2591786876
11723,13,Improv_Metronome,20,5,42,127,2591932752
11723,13,Improv_Metronome,21,1,48,51,2592043356
11723,13,Improv_Metronome,22,1,38,29,2592052348
11723,13,Improv_Metronome,23,1,48,56,2592286940
11723,13,Improv_Metronome,24,1,38,50,2592290804
11723,13,Improv_Metronome,25,5,42,127,2592432416
11723,13,Improv_Metronome,26,1,48,57,2592669004
11723,13,Improv_Metronome,27,5,42,127,2592933160
11723,13,Improv_Metronome,28,1,48,59,2593171468
11723,13,Improv_Metronome,29,1,38,40,2593196580
11723,13,Improv_Metronome,30,5,42,127,2593433028
11723,13,Improv_Metronome,31,1,48,54,2593467188
11723,13,Improv_Metronome,32,1,38,39,2593482576
11723,13,Improv_Metronome,33,1,38,51,2593677480
11723,13,Improv_Metronome,34,1,48,49,2593684940
11723,13,Improv_Metronome,35,5,42,127,2593932536
11723,13,Improv_Metronome,36,1,48,56,2594076800
11723,13,Improv_Metronome,37,1,38,43,2594104492
11723,13,Improv_Metronome,38,5,42,127,2594433244
11723,13,Improv_Metronome,39,5,42,127,2594932956
11723,13,Improv_Metronome,40,5,42,127,2595432896
11723,13,Improv_Metronome,41,5,42,127,2595932540
11723,13,Improv_Metronome,42,1,38,47,2596221408
11723,13,Improv_Metronome,43,1,48,49,2596251384
11723,13,Improv_Metronome,44,5,42,127,2596433308
11723,13,Improv_Metronome,45,1,38,41,2596607488
11723,13,Improv_Metronome,46,1,48,48,2596627516
11723,13,Improv_Metronome,47,1,38,45,2596910624
11723,13,Improv_Metronome,48,5,42,127,2596933096
11723,13,Improv_Metronome,49,1,48,48,2596935696
11723,13,Improv_Metronome,50,1,48,57,2597259396
11723,13,Improv_Metronome,51,5,42,127,2597432964
11723,13,Improv_Metronome,52,1,48,51,2597715108
11723,13,Improv_Metronome,53,1,38,41,2597726008
11723,13,Improv_Metronome,54,5,42,127,2597933512
11723,13,Improv_Metronome,55,1,38,36,2598082712
11723,13,Improv_Metronome,56,1,48,47,2598089124
11723,13,Improv_Metronome,57,1,38,43,2598388288
11723,13,Improv_Metronome,58,1,48,47,2598407116
11723,13,Improv_Metronome,59,5,42,127,2598433108
11723,13,Improv_Metronome,60,1,48,46,2598738416
11723,13,Improv_Metronome,61,5,42,127,2598932980
11723,13,Improv_Metronome,62,1,48,54,2599242148
11723,13,Improv_Metronome,63,5,42,127,2599432604
11723,13,Improv_Metronome,64,1,48,58,2599757028
11723,13,Improv_Metronome,65,5,42,127,2599933268
11723,13,Improv_Metronome,66,1,48,59,2600242660
11723,13,Improv_Metronome,67,5,42,127,2600432964
11723,13,Improv_Metronome,68,1,38,45,2600707104
11723,13,Improv_Metronome,69,5,42,127,2600932956
11723,13,Improv_Metronome,70,1,48,55,2601219140
11723,13,Improv_Metronome,71,5,42,127,2601432280
11723,13,Improv_Metronome,72,1,48,52,2601684796
11723,13,Improv_Metronome,73,5,42,127,2601933092
11723,13,Improv_Metronome,74,1,48,59,2602115752
11723,13,Improv_Metronome,75,5,42,127,2602432936
11723,13,Improv_Metronome,76,1,38,47,2602550144
11723,13,Improv_Metronome,77,5,42,127,2602932928
11723,13,Improv_Metronome,78,1,48,52,2603063756
11723,13,Improv_Metronome,79,5,42,127,2603433300
11723,13,Improv_Metronome,80,1,48,51,2603508000
11723,13,Improv_Metronome,81,5,42,127,2603933144
11723,13,Improv_Metronome,82,1,48,54,2603956312
11723,13,Improv_Metronome,83,1,38,45,2604389788
11723,13,Improv_Metronome,84,5,42,127,2604432980
11723,13,Improv_Metronome,85,1,48,52,2604888436
11723,13,Improv_Metronome,86,5,42,127,2604932824
11723,13,Improv_Metronome,87,1,48,55,2605323856
11723,13,Improv_Metronome,88,5,42,127,2605433252
11723,13,Improv_Metronome,89,1,48,59,2605774932
11723,13,Improv_Metronome,90,5,42,127,2605932872
11723,13,Improv_Metronome,91,1,38,54,2606258916
11723,13,Improv_Metronome,92,5,42,127,2606432792
11723,13,Improv_Metronome,93,1,48,53,2606755024
11723,13,Improv_Metronome,94,5,42,127,2606933232
11723,13,Improv_Metronome,95,1,48,52,2607185900
11723,13,Improv_Metronome,96,5,42,127,2607433152
11723,13,Improv_Metronome,97,1,48,51,2607660688
11723,13,Improv_Metronome,98,5,42,127,2607932920
11723,13,Improv_Metronome,99,1,38,50,2608054892
11723,13,Improv_Metronome,100,5,42,127,2608432764
11723,13,Improv_Metronome,101,1,48,50,2608516888
11723,13,Improv_Metronome,102,5,42,127,2608933404
11723,13,Improv_Metronome,103,1,48,49,2608934820
11723,13,Improv_Metronome,104,1,48,52,2609332156
11723,13,Improv_Metronome,105,5,42,127,2609433152
11723,13,Improv_Metronome,106,1,38,47,2609801108
11723,13,Improv_Metronome,107,5,42,127,2609932848
11723,13,Improv_Metronome,108,1,48,51,2610286600
11723,13,Improv_Metronome,109,5,42,127,2610433368
11723,13,Improv_Metronome,110,1,48,46,2610714236
11723,13,Improv_Metronome,111,5,42,127,2610933136
11723,13,Improv_Metronome,112,1,48,50,2611141828
11723,13,Improv_Metronome,113,5,42,127,2611432756
11723,13,Improv_Metronome,114,1,38,52,2611575620
11723,13,Improv_Metronome,115,5,42,127,2611932748
11723,13,Improv_Metronome,116,1,48,49,2612048916
11723,13,Improv_Metronome,117,5,42,127,2612433120
11723,13,Improv_Metronome,118,1,48,48,2612462792
11723,13,Improv_Metronome,119,1,48,52,2612866652
11723,13,Improv_Metronome,120,5,42,127,2612932956
11723,13,Improv_Metronome,121,1,38,56,2613312488
11723,13,Improv_Metronome,122,5,42,127,2613432560
11723,13,Improv_Metronome,123,1,48,47,2613796904
11723,13,Improv_Metronome,124,5,42,127,2613933600
11723,13,Improv_Metronome,125,1,48,48,2614210500
11723,13,Improv_Metronome,126,5,42,127,2614433072
11723,13,Improv_Metronome,127,1,48,55,2614611244
11723,13,Improv_Metronome,128,5,42,127,2614932916
11723,13,Improv_Metronome,129,1,38,61,2615033716
11723,13,Improv_Metronome,130,5,42,127,2615432536
11723,13,Improv_Metronome,131,1,38,49,2615517180
11723,13,Improv_Metronome,132,1,38,50,2615931916
11723,13,Improv_Metronome,133,5,42,127,2615934688
11723,13,Improv_Metronome,134,1,38,61,2616328264
11723,13,Improv_Metronome,135,1,38,25,2616389900
11723,13,Improv_Metronome,136,5,42,127,2616433020
11723,13,Improv_Metronome,137,1,48,52,2616705572
11723,13,Improv_Metronome,138,5,42,127,2616932624
11723,13,Improv_Metronome,139,1,38,51,2617133536
11723,13,Improv_Metronome,140,5,42,127,2617432616
11723,13,Improv_Metronome,141,1,38,51,2617524452
11723,13,Improv_Metronome,142,1,38,59,2617920532
11723,13,Improv_Metronome,143,5,42,127,2617933128
11723,13,Improv_Metronome,144,1,48,51,2618286088
11723,13,Improv_Metronome,145,5,42,127,2618432808
11723,13,Improv_Metronome,146,1,38,57,2618711728
11723,13,Improv_Metronome,147,5,42,127,2618932576
11723,13,Improv_Metronome,148,1,38,57,2619109972
11723,13,Improv_Metronome,149,5,42,127,2619433440
11723,13,Improv_Metronome,150,1,38,61,2619481664
11723,13,Improv_Metronome,151,1,48,49,2619855580
11723,13,Improv_Metronome,152,5,42,127,2619933032
11723,13,Improv_Metronome,153,1,38,50,2620308528
11723,13,Improv_Metronome,154,5,42,127,2620432708
11723,13,Improv_Metronome,155,1,38,56,2620707144
11723,13,Improv_Metronome,156,5,42,127,2620932552
11723,13,Improv_Metronome,157,1,38,59,2621087312
11723,13,Improv_Metronome,158,5,42,127,2621433368
11723,13,Improv_Metronome,159,1,48,40,2621459528
11723,13,Improv_Metronome,160,1,38,61,2621908488
11723,13,Improv_Metronome,161,5,42,127,2621932832
11723,13,Improv_Metronome,162,1,38,31,2621964204
11723,13,Improv_Metronome,163,1,38,55,2622314516
11723,13,Improv_Metronome,164,5,42,127,2622432488
11723,13,Improv_Metronome,165,1,38,60,2622695176
11723,13,Improv_Metronome,166,1,38,27,2622749236
11723,13,Improv_Metronome,167,5,42,127,2622933504
11723,13,Improv_Metronome,168,1,48,48,2623031644
11723,13,Improv_Metronome,169,5,42,127,2623432976
11723,13,Improv_Metronome,170,1,38,55,2623487108
11723,13,Improv_Metronome,171,1,38,56,2623887752
11723,13,Improv_Metronome,172,5,42,127,2623932812
11723,13,Improv_Metronome,173,1,38,47,2624352812
11723,13,Improv_Metronome,174,5,42,127,2624432432
11723,13,Improv_Metronome,175,1,48,51,2624718296
11723,13,Improv_Metronome,176,5,42,127,2624933456
11723,13,Improv_Metronome,177,1,38,54,2625155388
11723,13,Improv_Metronome,178,5,42,127,2625432932
11723,13,Improv_Metronome,179,1,38,55,2625530816
11723,13,Improv_Metronome,180,1,38,21,2625601732
11723,13,Improv_Metronome,181,5,42,127,2625932528
11723,13,Improv_Metronome,182,1,38,62,2625945072
11723,13,Improv_Metronome,183,1,38,25,2626007656
11723,13,Improv_Metronome,184,1,48,53,2626312980
11723,13,Improv_Metronome,185,5,42,127,2626433452
11723,13,Improv_Metronome,186,1,48,49,2626744388
11723,13,Improv_Metronome,187,5,42,127,2626933516
11723,13,Improv_Metronome,188,1,48,48,2627120740
11723,13,Improv_Metronome,189,5,42,127,2627432840
11723,13,Improv_Metronome,190,1,48,51,2627512024
11723,13,Improv_Metronome,191,1,38,61,2627841664
11723,13,Improv_Metronome,192,5,42,127,2627932452
11723,13,Improv_Metronome,193,1,48,52,2628251376
11723,13,Improv_Metronome,194,5,42,127,2628433476
11723,13,Improv_Metronome,195,1,48,48,2628628904
11723,13,Improv_Metronome,196,5,42,127,2628932948
11723,13,Improv_Metronome,197,1,48,53,2629005632
11723,13,Improv_Metronome,198,1,38,62,2629362792
11723,13,Improv_Metronome,199,5,42,127,2629432708
11723,13,Improv_Metronome,200,1,48,54,2629810724
11723,13,Improv_Metronome,201,5,42,127,2629933512
11723,13,Improv_Metronome,202,1,48,49,2630209368
11723,13,Improv_Metronome,203,5,42,127,2630433332
11723,13,Improv_Metronome,204,1,48,58,2630562804
11723,13,Improv_Metronome,205,5,42,127,2630932876
11723,13,Improv_Metronome,206,1,38,58,2630945640
11723,13,Improv_Metronome,207,1,48,60,2631383984
11723,13,Improv_Metronome,208,5,42,127,2631432564
11723,13,Improv_Metronome,209,1,48,43,2631759220
11723,13,Improv_Metronome,210,5,42,127,2631933368
11723,13,Improv_Metronome,211,1,48,53,2632117376
11723,13,Improv_Metronome,212,5,42,127,2632433284
11723,13,Improv_Metronome,213,1,38,58,2632457572
11723,13,Improv_Metronome,214,1,48,49,2632870112
11723,13,Improv_Metronome,215,5,42,127,2632932676
11723,13,Improv_Metronome,216,1,48,51,2633249576
11723,13,Improv_Metronome,217,5,42,127,2633432352
11723,13,Improv_Metronome,218,1,48,56,2633616356
11723,13,Improv_Metronome,219,5,42,127,2633933320
11723,13,Improv_Metronome,220,1,38,49,2633975184
11723,13,Improv_Metronome,221,1,38,56,2634377172
11723,13,Improv_Metronome,222,5,42,127,2634432784
11723,13,Improv_Metronome,223,1,38,57,2634739364
11723,13,Improv_Metronome,224,5,42,127,2634932540
11723,13,Improv_Metronome,225,1,38,53,2635053712
11723,13,Improv_Metronome,226,1,48,52,2635388064
11723,13,Improv_Metronome,227,5,42,127,2635433272
11723,13,Improv_Metronome,228,1,38,59,2635767232
11723,13,Improv_Metronome,229,5,42,127,2635933324
11723,13,Improv_Metronome,230,1,38,59,2636105436
11723,13,Improv_Metronome,231,1,38,54,2636397604
11723,13,Improv_Metronome,232,5,42,127,2636432716
11723,13,Improv_Metronome,233,1,48,48,2636740568
11723,13,Improv_Metronome,234,5,42,127,2636932320
11723,13,Improv_Metronome,235,1,38,58,2637153576
11723,13,Improv_Metronome,236,1,38,26,2637210024
11723,13,Improv_Metronome,237,5,42,127,2637433188
11723,13,Improv_Metronome,238,1,38,53,2637553820
11723,13,Improv_Metronome,239,1,38,57,2637886244
11723,13,Improv_Metronome,240,5,42,127,2637933100
11723,13,Improv_Metronome,241,1,38,24,2637948100
11723,13,Improv_Metronome,242,1,48,51,2638237496
11723,13,Improv_Metronome,243,5,42,127,2638432760
11723,13,Improv_Metronome,244,1,38,61,2638640996
11723,13,Improv_Metronome,245,1,38,32,2638694984
11723,13,Improv_Metronome,246,5,42,127,2638933332
11723,13,Improv_Metronome,247,1,38,54,2639040416
11723,13,Improv_Metronome,248,1,38,62,2639398180
11723,13,Improv_Metronome,249,5,42,127,2639433168
11723,13,Improv_Metronome,250,1,48,50,2639788296
11723,13,Improv_Metronome,251,5,42,127,2639932924
11723,13,Improv_Metronome,252,1,38,56,2640188136
11723,13,Improv_Metronome,253,1,38,24,2640251096
11723,13,Improv_Metronome,254,5,42,127,2640432448
11723,13,Improv_Metronome,255,1,38,59,2640556664
11723,13,Improv_Metronome,256,1,38,69,2640932336
11723,13,Improv_Metronome,257,5,42,127,2640935328
11723,13,Improv_Metronome,258,1,38,33,2640989396
11723,13,Improv_Metronome,259,1,48,54,2641297936
11723,13,Improv_Metronome,260,5,42,127,2641433036
11723,13,Improv_Metronome,261,1,48,46,2641714604
11723,13,Improv_Metronome,262,5,42,127,2641932584
11723,13,Improv_Metronome,263,1,48,51,2642090928
11723,13,Improv_Metronome,264,5,42,127,2642433404
11723,13,Improv_Metronome,265,1,48,49,2642477460
11723,13,Improv_Metronome,266,1,38,60,2642821904
11723,13,Improv_Metronome,267,5,42,127,2642933000
11723,13,Improv_Metronome,268,1,48,53,2643274328
11723,13,Improv_Metronome,269,5,42,127,2643432992
11723,13,Improv_Metronome,270,1,48,46,2643681920
11723,13,Improv_Metronome,271,5,42,127,2643932464
11723,13,Improv_Metronome,272,1,48,51,2644097096
11723,13,Improv_Metronome,273,1,38,48,2644431156
11723,13,Improv_Metronome,274,5,42,127,2644433348
11723,13,Improv_Metronome,275,1,48,54,2644900844
11723,13,Improv_Metronome,276,5,42,127,2644932972
11723,13,Improv_Metronome,277,1,48,46,2645326196
11723,13,Improv_Metronome,278,5,42,127,2645432796
11723,13,Improv_Metronome,279,1,48,56,2645713220
11723,13,Improv_Metronome,280,5,42,127,2645933392
11723,13,Improv_Metronome,281,1,38,53,2646035312
11723,13,Improv_Metronome,282,5,42,127,2646433160
11723,13,Improv_Metronome,283,1,48,53,2646497160
11723,13,Improv_Metronome,284,5,42,127,2646933000
11723,13,Improv_Metronome,285,1,48,50,2646937620
11723,13,Improv_Metronome,286,1,48,55,2647355312
11723,13,Improv_Metronome,287,5,42,127,2647432468
11723,13,Improv_Metronome,288,1,38,48,2647681232
11723,13,Improv_Metronome,289,5,42,127,2647933340
11723,13,Improv_Metronome,290,1,48,55,2648129460
11723,13,Improv_Metronome,291,5,42,127,2648432888
11723,13,Improv_Metronome,292,1,48,52,2648554784
11723,13,Improv_Metronome,293,5,42,127,2648932880
11723,13,Improv_Metronome,294,1,48,55,2648946544
11723,13,Improv_Metronome,295,1,38,53,2649251128
11723,13,Improv_Metronome,296,5,42,127,2649432332
11723,13,Improv_Metronome,297,1,38,52,2649687172
11723,13,Improv_Metronome,298,5,42,127,2649933072
11723,13,Improv_Metronome,299,1,38,53,2650068656
11723,13,Improv_Metronome,300,5,42,127,2650432840
11723,13,Improv_Metronome,301,1,38,64,2650449348
11723,13,Improv_Metronome,302,1,48,51,2650832992
11723,13,Improv_Metronome,303,5,42,127,2650932664
11723,13,Improv_Metronome,304,1,38,53,2651228040
11723,13,Improv_Metronome,305,5,42,127,2651433380
11723,13,Improv_Metronome,306,1,38,54,2651602920
11723,13,Improv_Metronome,307,5,42,127,2651932976
11723,13,Improv_Metronome,308,1,38,52,2651960652
11723,13,Improv_Metronome,309,1,48,53,2652311680
11723,13,Improv_Metronome,310,5,42,127,2652432944
11723,13,Improv_Metronome,311,1,38,57,2652750712
11723,13,Improv_Metronome,312,5,42,127,2652932340
11723,13,Improv_Metronome,313,1,38,54,2653133028
11723,13,Improv_Metronome,314,5,42,127,2653433156
11723,13,Improv_Metronome,315,1,38,57,2653455272
11723,13,Improv_Metronome,316,1,48,52,2653823012
11723,13,Improv_Metronome,317,5,42,127,2653933056
11723,13,Improv_Metronome,318,1,38,54,2654265332
11723,13,Improv_Metronome,319,5,42,127,2654432748
11723,13,Improv_Metronome,320,1,38,59,2654643904
11723,13,Improv_Metronome,321,5,42,127,2654933340
11723,13,Improv_Metronome,322,1,38,64,2655017864
11723,13,Improv_Metronome,323,1,48,57,2655385728
11723,13,Improv_Metronome,324,5,42,127,2655433104
11723,13,Improv_Metronome,325,1,48,55,2655919600
11723,13,Improv_Metronome,326,5,42,127,2655932872
11723,13,Improv_Metronome,327,1,48,53,2656337616
11723,13,Improv_Metronome,0,9999,9999,9999,2586430524
11723,13,Improv_Metronome,1,9999,9999,9999,2586930240
11723,13,Improv_Metronome,2,9999,9999,9999,2587430980
11723,13,Improv_Metronome,3,9999,9999,9999,2587930696
11723,13,Improv_Metronome,4,9999,9999,9999,2588430412
11723,13,Improv_Metronome,5,9999,9999,9999,2588930128
11723,13,Improv_Metronome,6,9999,9999,9999,2589430892
11723,13,Improv_Metronome,7,9999,9999,9999,2589930608
11723,13,Improv_Metronome,8,9999,9999,9999,2590430300
11723,13,Improv_Metronome,9,9999,9999,9999,2590931012
11723,13,Improv_Metronome,10,9999,9999,9999,2591430740
11723,13,Improv_Metronome,11,9999,9999,9999,2591930464
11723,13,Improv_Metronome,12,9999,9999,9999,2592430128
11723,13,Improv_Metronome,13,9999,9999,9999,2592930872
11723,13,Improv_Metronome,14,9999,9999,9999,2593430592
11723,13,Improv_Metronome,15,9999,9999,9999,2593930320
11723,13,Improv_Metronome,16,9999,9999,9999,2594431028
11723,13,Improv_Metronome,17,9999,9999,9999,2594930744
11723,13,Improv_Metronome,18,9999,9999,9999,2595430460
11723,13,Improv_Metronome,19,9999,9999,9999,2595930176
11723,13,Improv_Metronome,20,9999,9999,9999,2596430944
11723,13,Improv_Metronome,21,9999,9999,9999,2596930660
11723,13,Improv_Metronome,22,9999,9999,9999,2597430380
11723,13,Improv_Metronome,23,9999,9999,9999,2597931124
11723,13,Improv_Metronome,24,9999,9999,9999,2598430820
11723,13,Improv_Metronome,25,9999,9999,9999,2598930544
11723,13,Improv_Metronome,26,9999,9999,9999,2599430240
11723,13,Improv_Metronome,27,9999,9999,9999,2599930984
11723,13,Improv_Metronome,28,9999,9999,9999,2600430676
11723,13,Improv_Metronome,29,9999,9999,9999,2600930372
11723,13,Improv_Metronome,30,9999,9999,9999,2601430064
11723,13,Improv_Metronome,31,9999,9999,9999,2601930808
11723,13,Improv_Metronome,32,9999,9999,9999,2602430576
11723,13,Improv_Metronome,33,9999,9999,9999,2602930268
11723,13,Improv_Metronome,34,9999,9999,9999,2603431012
11723,13,Improv_Metronome,35,9999,9999,9999,2603930708
11723,13,Improv_Metronome,36,9999,9999,9999,2604430396
11723,13,Improv_Metronome,37,9999,9999,9999,2604930164
11723,13,Improv_Metronome,38,9999,9999,9999,2605430888
11723,13,Improv_Metronome,39,9999,9999,9999,2605930584
11723,13,Improv_Metronome,40,9999,9999,9999,2606430280
11723,13,Improv_Metronome,41,9999,9999,9999,2606931020
11723,13,Improv_Metronome,42,9999,9999,9999,2607430716
11723,13,Improv_Metronome,43,9999,9999,9999,2607930484
11723,13,Improv_Metronome,44,9999,9999,9999,2608430180
11723,13,Improv_Metronome,45,9999,9999,9999,2608930896
11723,13,Improv_Metronome,46,9999,9999,9999,2609430584
11723,13,Improv_Metronome,47,9999,9999,9999,2609930336
11723,13,Improv_Metronome,48,9999,9999,9999,2610431080
11723,13,Improv_Metronome,49,9999,9999,9999,2610930772
11723,13,Improv_Metronome,50,9999,9999,9999,2611430468
11723,13,Improv_Metronome,51,9999,9999,9999,2611930164
11723,13,Improv_Metronome,52,9999,9999,9999,2612430904
11723,13,Improv_Metronome,53,9999,9999,9999,2612930668
11723,13,Improv_Metronome,54,9999,9999,9999,2613430348
11723,13,Improv_Metronome,55,9999,9999,9999,2613931092
11723,13,Improv_Metronome,56,9999,9999,9999,2614430784
11723,13,Improv_Metronome,57,9999,9999,9999,2614930552
11723,13,Improv_Metronome,58,9999,9999,9999,2615430248
11723,13,Improv_Metronome,59,9999,9999,9999,2615930988
11723,13,Improv_Metronome,60,9999,9999,9999,2616430656
11723,13,Improv_Metronome,61,9999,9999,9999,2616930412
11723,13,Improv_Metronome,62,9999,9999,9999,2617430108
11723,13,Improv_Metronome,63,9999,9999,9999,2617930840
11723,13,Improv_Metronome,64,9999,9999,9999,2618430520
11723,13,Improv_Metronome,65,9999,9999,9999,2618930288
11723,13,Improv_Metronome,66,9999,9999,9999,2619431004
11723,13,Improv_Metronome,67,9999,9999,9999,2619930744
11723,13,Improv_Metronome,68,9999,9999,9999,2620430420
11723,13,Improv_Metronome,69,9999,9999,9999,2620930116
11723,13,Improv_Metronome,70,9999,9999,9999,2621430856
11723,13,Improv_Metronome,71,9999,9999,9999,2621930544
11723,13,Improv_Metronome,72,9999,9999,9999,2622430276
11723,13,Improv_Metronome,73,9999,9999,9999,2622930992
11723,13,Improv_Metronome,74,9999,9999,9999,2623430764
11723,13,Improv_Metronome,75,9999,9999,9999,2623930452
11723,13,Improv_Metronome,76,9999,9999,9999,2624430144
11723,13,Improv_Metronome,77,9999,9999,9999,2624930872
11723,13,Improv_Metronome,78,9999,9999,9999,2625430640
11723,13,Improv_Metronome,79,9999,9999,9999,2625930316
11723,13,Improv_Metronome,80,9999,9999,9999,2626431088
11723,13,Improv_Metronome,81,9999,9999,9999,2626930780
11723,13,Improv_Metronome,82,9999,9999,9999,2627430476
11723,13,Improv_Metronome,83,9999,9999,9999,2627930164
11723,13,Improv_Metronome,84,9999,9999,9999,2628430964
11723,13,Improv_Metronome,85,9999,9999,9999,2628930660
11723,13,Improv_Metronome,86,9999,9999,9999,2629430348
11723,13,Improv_Metronome,87,9999,9999,9999,2629931076
11723,13,Improv_Metronome,88,9999,9999,9999,2630430820
11723,13,Improv_Metronome,89,9999,9999,9999,2630930512
11723,13,Improv_Metronome,90,9999,9999,9999,2631430200
11723,13,Improv_Metronome,91,9999,9999,9999,2631930928
11723,13,Improv_Metronome,92,9999,9999,9999,2632430696
11723,13,Improv_Metronome,93,9999,9999,9999,2632930388
11723,13,Improv_Metronome,94,9999,9999,9999,2633430064
11723,13,Improv_Metronome,95,9999,9999,9999,2633930808
11723,13,Improv_Metronome,96,9999,9999,9999,2634430572
11723,13,Improv_Metronome,97,9999,9999,9999,2634930252
11723,13,Improv_Metronome,98,9999,9999,9999,2635430988
11723,13,Improv_Metronome,99,9999,9999,9999,2635930740
11723,13,Improv_Metronome,100,9999,9999,9999,2636430428
11723,13,Improv_Metronome,101,9999,9999,9999,2636930108
11723,13,Improv_Metronome,102,9999,9999,9999,2637430900
11723,13,Improv_Metronome,103,9999,9999,9999,2637930592
11723,13,Improv_Metronome,104,9999,9999,9999,2638430324
11723,13,Improv_Metronome,105,9999,9999,9999,2638931044
11723,13,Improv_Metronome,106,9999,9999,9999,2639430732
11723,13,Improv_Metronome,107,9999,9999,9999,2639930488
11723,13,Improv_Metronome,108,9999,9999,9999,2640430160
11723,13,Improv_Metronome,109,9999,9999,9999,2640930876
11723,13,Improv_Metronome,110,9999,9999,9999,2641430600
11723,13,Improv_Metronome,111,9999,9999,9999,2641930296
11723,13,Improv_Metronome,112,9999,9999,9999,2642431040
11723,13,Improv_Metronome,113,9999,9999,9999,2642930784
11723,13,Improv_Metronome,114,9999,9999,9999,2643430480
11723,13,Improv_Metronome,115,9999,9999,9999,2643930176
11723,13,Improv_Metronome,116,9999,9999,9999,2644430948
11723,13,Improv_Metronome,117,9999,9999,9999,2644930680
11723,13,Improv_Metronome,118,9999,9999,9999,2645430360
11723,13,Improv_Metronome,119,9999,9999,9999,2645931104
11723,13,Improv_Metronome,120,9999,9999,9999,2646430796
11723,13,Improv_Metronome,121,9999,9999,9999,2646930488
11723,13,Improv_Metronome,122,9999,9999,9999,2647430256
11723,13,Improv_Metronome,123,9999,9999,9999,2647930980
11723,13,Improv_Metronome,124,9999,9999,9999,2648430672
11723,13,Improv_Metronome,125,9999,9999,9999,2648930368
11723,13,Improv_Metronome,126,9999,9999,9999,2649430120
11723,13,Improv_Metronome,127,9999,9999,9999,2649930860
11723,13,Improv_Metronome,128,9999,9999,9999,2650430556
11723,13,Improv_Metronome,129,9999,9999,9999,2650930228
11723,13,Improv_Metronome,130,9999,9999,9999,2651431016
11723,13,Improv_Metronome,131,9999,9999,9999,2651930688
11723,13,Improv_Metronome,132,9999,9999,9999,2652430432
11723,13,Improv_Metronome,133,9999,9999,9999,2652930128
11723,13,Improv_Metronome,134,9999,9999,9999,2653430868
11723,13,Improv_Metronome,135,9999,9999,9999,2653930616
11723,13,Improv_Metronome,136,9999,9999,9999,2654430312
11723,13,Improv_Metronome,137,9999,9999,9999,2654931052
11723,13,Improv_Metronome,138,9999,9999,9999,2655430744
11723,13,Improv_Metronome,139,9999,9999,9999,2655930436
11724,14,Improv_Melody,0,2,48,80,2720228616
11724,14,Improv_Melody,1,2,72,80,2720231280
11724,14,Improv_Melody,2,5,42,127,2720232700
11724,14,Improv_Melody,3,5,42,110,2720726364
11724,14,Improv_Melody,4,5,42,110,2721226160
11724,14,Improv_Melody,5,5,42,110,2721725808
11724,14,Improv_Melody,6,5,42,127,2722225604
11724,14,Improv_Melody,7,5,42,110,2722726300
11724,14,Improv_Melody,8,5,42,110,2723226096
11724,14,Improv_Melody,9,5,42,110,2723725592
11724,14,Improv_Melody,10,2,43,80,2724228788
11724,14,Improv_Melody,11,2,67,80,2724230940
11724,14,Improv_Melody,12,5,42,127,2724233484
11724,14,Improv_Melody,13,5,42,110,2724726320
11724,14,Improv_Melody,14,5,42,110,2725225744
11724,14,Improv_Melody,15,5,42,110,2725725540
11724,14,Improv_Melody,16,5,42,127,2726226160
11724,14,Improv_Melody,17,5,42,110,2726726180
11724,14,Improv_Melody,18,5,42,110,2727225604
11724,14,Improv_Melody,19,5,42,110,2727725328
11724,14,Improv_Melody,20,2,45,80,2728228496
11724,14,Improv_Melody,21,2,69,80,2728231136
11724,14,Improv_Melody,22,5,42,127,2728233376
11724,14,Improv_Melody,23,5,42,110,2728725744
11724,14,Improv_Melody,24,5,42,110,2729225540
11724,14,Improv_Melody,25,5,42,110,2729726236
11724,14,Improv_Melody,26,5,42,127,2730226180
11724,14,Improv_Melody,27,5,42,110,2730725604
11724,14,Improv_Melody,28,5,42,110,2731225324
11724,14,Improv_Melody,29,5,42,110,2731726168
11724,14,Improv_Melody,30,2,41,80,2732228468
11724,14,Improv_Melody,31,2,65,80,2732230616
11724,14,Improv_Melody,32,5,42,127,2732233228
11724,14,Improv_Melody,33,5,42,110,2732725624
11724,14,Improv_Melody,34,5,42,110,2733226316
11724,14,Improv_Melody,35,5,42,110,2733726336
11724,14,Improv_Melody,36,5,42,127,2734225984
11724,14,Improv_Melody,37,5,42,110,2734725484
11724,14,Improv_Melody,38,5,42,110,2735226176
11724,14,Improv_Melody,39,5,42,110,2735726196
11724,14,Improv_Melody,40,1,48,56,2736217272
11724,14,Improv_Melody,41,2,48,80,2736227964
11724,14,Improv_Melody,42,2,72,80,2736230268
11724,14,Improv_Melody,43,5,42,127,2736232956
11724,14,Improv_Melody,44,5,42,110,2736726456
11724,14,Improv_Melody,45,5,42,110,2737226028
11724,14,Improv_Melody,46,5,42,110,2737726048
11724,14,Improv_Melody,47,1,48,55,2738111180
11724,14,Improv_Melody,48,5,42,127,2738225448
11724,14,Improv_Melody,49,5,42,110,2738726216
11724,14,Improv_Melody,50,5,42,110,2739226136
11724,14,Improv_Melody,51,5,42,110,2739725932
11724,14,Improv_Melody,52,1,48,60,2739956612
11724,14,Improv_Melody,53,2,43,80,2740228884
11724,14,Improv_Melody,54,2,67,80,2740231036
11724,14,Improv_Melody,55,5,42,127,2740233576
11724,14,Improv_Melody,56,5,42,110,2740726120
11724,14,Improv_Melody,57,5,42,110,2741225988
11724,14,Improv_Melody,58,5,42,110,2741725488
11724,14,Improv_Melody,59,1,48,57,2742126656
11724,14,Improv_Melody,60,5,42,127,2742226236
11724,14,Improv_Melody,61,5,42,110,2742726104
11724,14,Improv_Melody,62,5,42,110,2743225904
11724,14,Improv_Melody,63,5,42,110,2743725552
11724,14,Improv_Melody,64,1,48,55,2744089368
11724,14,Improv_Melody,65,1,48,20,2744190496
11724,14,Improv_Melody,66,2,45,80,2744228876
11724,14,Improv_Melody,67,2,69,80,2744231024
11724,14,Improv_Melody,68,5,42,127,2744233480
11724,14,Improv_Melody,69,5,42,110,2744725936
11724,14,Improv_Melody,70,5,42,110,2745225880
11724,14,Improv_Melody,71,5,42,110,2745726352
11724,14,Improv_Melody,72,1,48,57,2746133248
11724,14,Improv_Melody,73,5,42,127,2746225976
11724,14,Improv_Melody,74,5,42,110,2746725920
11724,14,Improv_Melody,75,5,42,110,2747225716
11724,14,Improv_Melody,76,5,42,110,2747726264
11724,14,Improv_Melody,77,1,48,59,2748126216
11724,14,Improv_Melody,78,2,41,80,2748228624
11724,14,Improv_Melody,79,2,65,80,2748230616
11724,14,Improv_Melody,80,5,42,127,2748233156
11724,14,Improv_Melody,81,5,42,110,2748725700
11724,14,Improv_Melody,82,5,42,110,2749226392
11724,14,Improv_Melody,83,5,42,110,2749725940
11724,14,Improv_Melody,84,5,42,127,2750225736
11724,14,Improv_Melody,85,1,48,58,2750554276
11724,14,Improv_Melody,86,5,42,110,2750725584
11724,14,Improv_Melody,87,5,42,110,2751226356
11724,14,Improv_Melody,88,5,42,110,2751726000
11724,14,Improv_Melody,89,2,48,80,2752228156
11724,14,Improv_Melody,90,2,72,80,2752230304
11724,14,Improv_Melody,91,5,42,127,2752232916
11724,14,Improv_Melody,92,1,38,63,2752647176
11724,14,Improv_Melody,93,1,48,52,2752676104
11724,14,Improv_Melody,94,5,42,110,2752726332
11724,14,Improv_Melody,95,5,42,110,2753226084
11724,14,Improv_Melody,96,5,42,110,2753725880
11724,14,Improv_Melody,97,5,42,127,2754225524
11724,14,Improv_Melody,98,1,48,53,2754696556
11724,14,Improv_Melody,99,1,38,60,2754699824
11724,14,Improv_Melody,100,5,42,110,2754726120
11724,14,Improv_Melody,101,5,42,110,2755225872
11724,14,Improv_Melody,102,5,42,110,2755725744
11724,14,Improv_Melody,103,2,43,80,2756228864
11724,14,Improv_Melody,104,2,67,80,2756231092
11724,14,Improv_Melody,105,5,42,127,2756233704
11724,14,Improv_Melody,106,1,48,53,2756646168
11724,14,Improv_Melody,107,1,38,67,2756656092
11724,14,Improv_Melody,108,5,42,110,2756726220
11724,14,Improv_Melody,109,5,42,110,2757225824
11724,14,Improv_Melody,110,5,42,110,2757725620
11724,14,Improv_Melody,111,5,42,127,2758226460
11724,14,Improv_Melody,112,1,38,61,2758649668
11724,14,Improv_Melody,113,1,48,50,2758658024
11724,14,Improv_Melody,114,5,42,110,2758725936
11724,14,Improv_Melody,115,5,42,110,2759225764
11724,14,Improv_Melody,116,5,42,110,2759725408
11724,14,Improv_Melody,117,2,45,80,2760228924
11724,14,Improv_Melody,118,2,69,80,2760231072
11724,14,Improv_Melody,119,5,42,127,2760233680
11724,14,Improv_Melody,120,1,38,55,2760653300
11724,14,Improv_Melody,121,5,42,110,2760725820
11724,14,Improv_Melody,122,5,42,110,2761225604
11724,14,Improv_Melody,123,5,42,110,2761726596
11724,14,Improv_Melody,124,5,42,127,2762226092
11724,14,Improv_Melody,125,1,38,64,2762641320
11724,14,Improv_Melody,126,5,42,110,2762725732
11724,14,Improv_Melody,127,5,42,110,2763225440
11724,14,Improv_Melody,128,5,42,110,2763726432
11724,14,Improv_Melody,129,2,41,80,2764228356
11724,14,Improv_Melody,130,2,65,80,2764230508
11724,14,Improv_Melody,131,5,42,127,2764233048
11724,14,Improv_Melody,132,1,38,56,2764641240
11724,14,Improv_Melody,133,5,42,110,2764725508
11724,14,Improv_Melody,134,5,42,110,2765226560
11724,14,Improv_Melody,135,5,42,110,2765726356
11724,14,Improv_Melody,136,5,42,127,2766225704
11724,14,Improv_Melody,137,1,38,62,2766658360
11724,14,Improv_Melody,138,5,42,110,2766725496
11724,14,Improv_Melody,139,5,42,110,2767226472
11724,14,Improv_Melody,140,5,42,110,2767725896
11724,14,Improv_Melody,141,2,48,80,2768228344
11724,14,Improv_Melody,142,2,72,80,2768230268
11724,14,Improv_Melody,143,5,42,127,2768232808
11724,14,Improv_Melody,144,1,48,49,2768666340
11724,14,Improv_Melody,145,1,38,47,2768670208
11724,14,Improv_Melody,146,5,42,110,2768726448
11724,14,Improv_Melody,147,5,42,110,2769226420
11724,14,Improv_Melody,148,5,42,110,2769725700
11724,14,Improv_Melody,149,5,42,127,2770225492
11724,14,Improv_Melody,150,1,48,54,2770669192
11724,14,Improv_Melody,151,1,38,56,2770672612
11724,14,Improv_Melody,152,5,42,110,2770726384
11724,14,Improv_Melody,153,5,42,110,2771226188
11724,14,Improv_Melody,154,5,42,110,2771725536
11724,14,Improv_Melody,155,2,43,80,2772229032
11724,14,Improv_Melody,156,2,67,80,2772231264
11724,14,Improv_Melody,157,5,42,127,2772233724
11724,14,Improv_Melody,158,1,48,58,2772721132
11724,14,Improv_Melody,159,1,38,59,2772724424
11724,14,Improv_Melody,160,5,42,110,2772727432
11724,14,Improv_Melody,161,5,42,110,2773225768
11724,14,Improv_Melody,162,5,42,110,2773725640
11724,14,Improv_Melody,163,5,42,127,2774226184
11724,14,Improv_Melody,164,1,48,53,2774696464
11724,14,Improv_Melody,165,1,38,59,2774699732
11724,14,Improv_Melody,166,5,42,110,2774726104
11724,14,Improv_Melody,167,5,42,110,2775225856
11724,14,Improv_Melody,168,5,42,110,2775725356
11724,14,Improv_Melody,169,2,45,80,2776228548
11724,14,Improv_Melody,170,2,69,80,2776230848
11724,14,Improv_Melody,171,5,42,127,2776233464
11724,14,Improv_Melody,172,1,38,54,2776628424
11724,14,Improv_Melody,173,1,48,48,2776634836
11724,14,Improv_Melody,174,5,42,110,2776725964
11724,14,Improv_Melody,175,5,42,110,2777225448
11724,14,Improv_Melody,176,5,42,110,2777726292
11724,14,Improv_Melody,177,5,42,127,2778226164
11724,14,Improv_Melody,178,1,38,51,2778667200
11724,14,Improv_Melody,179,1,48,51,2778673612
11724,14,Improv_Melody,180,5,42,110,2778725636
11724,14,Improv_Melody,181,5,42,110,2779225320
11724,14,Improv_Melody,182,5,42,110,2779726236
11724,14,Improv_Melody,183,2,41,80,2780228616
11724,14,Improv_Melody,184,2,65,80,2780230764
11724,14,Improv_Melody,185,5,42,127,2780233296
11724,14,Improv_Melody,186,1,48,56,2780561064
11724,14,Improv_Melody,187,1,38,58,2780570020
11724,14,Improv_Melody,188,5,42,110,2780725624
11724,14,Improv_Melody,189,5,42,110,2781226240
11724,14,Improv_Melody,190,5,42,110,2781725940
11724,14,Improv_Melody,191,5,42,127,2782225884
11724,14,Improv_Melody,192,5,42,110,2782725460
11724,14,Improv_Melody,193,5,42,110,2783226228
11724,14,Improv_Melody,194,5,42,110,2783725948
11724,14,Improv_Melody,195,2,48,80,2784228324
11724,14,Improv_Melody,196,2,72,80,2784230476
11724,14,Improv_Melody,197,5,42,127,2784232936
11724,14,Improv_Melody,198,1,48,51,2784617500
11724,14,Improv_Melody,199,5,42,110,2784726280
11724,14,Improv_Melody,200,5,42,110,2785226148
11724,14,Improv_Melody,201,5,42,110,2785725948
11724,14,Improv_Melody,202,5,42,127,2786225520
11724,14,Improv_Melody,203,1,48,59,2786708888
11724,14,Improv_Melody,204,5,42,110,2786726132
11724,14,Improv_Melody,205,5,42,110,2787225912
11724,14,Improv_Melody,206,5,42,110,2787725784
11724,14,Improv_Melody,207,2,43,80,2788228904
11724,14,Improv_Melody,208,2,67,80,2788231212
11724,14,Improv_Melody,209,5,42,127,2788233820
11724,14,Improv_Melody,210,1,48,59,2788615888
11724,14,Improv_Melody,211,5,42,110,2788726116
11724,14,Improv_Melody,212,5,42,110,2789225764
11724,14,Improv_Melody,213,5,42,110,2789725636
11724,14,Improv_Melody,214,5,42,127,2790226400
11724,14,Improv_Melody,215,1,48,60,2790631512
11724,14,Improv_Melody,216,5,42,110,2790725880
11724,14,Improv_Melody,217,5,42,110,2791225748
11724,14,Improv_Melody,218,5,42,110,2791725544
11724,14,Improv_Melody,219,2,45,80,2792228900
11724,14,Improv_Melody,220,2,69,80,2792230744
11724,14,Improv_Melody,221,5,42,127,2792233356
11724,14,Improv_Melody,222,1,48,53,2792596128
11724,14,Improv_Melody,223,5,42,110,2792726004
11724,14,Improv_Melody,224,5,42,110,2793225724
11724,14,Improv_Melody,225,5,42,110,2793726268
11724,14,Improv_Melody,226,5,42,127,2794225988
11724,14,Improv_Melody,227,1,48,59,2794606584
11724,14,Improv_Melody,228,5,42,110,2794725616
11724,14,Improv_Melody,229,5,42,110,2795225560
11724,14,Improv_Melody,230,5,42,110,2795726104
11724,14,Improv_Melody,231,2,41,80,2796228252
11724,14,Improv_Melody,232,2,65,80,2796230480
11724,14,Improv_Melody,233,5,42,127,2796233020
11724,14,Improv_Melody,234,1,48,52,2796534380
11724,14,Improv_Melody,235,5,42,110,2796725616
11724,14,Improv_Melody,236,5,42,110,2797226380
11724,14,Improv_Melody,237,5,42,110,2797726032
11724,14,Improv_Melody,238,5,42,127,2798225676
11724,14,Improv_Melody,239,1,38,57,2798686608
11724,14,Improv_Melody,240,5,42,110,2798725764
11724,14,Improv_Melody,241,5,42,110,2799226444
11724,14,Improv_Melody,242,5,42,110,2799725940
11724,14,Improv_Melody,243,2,48,80,2800228012
11724,14,Improv_Melody,244,2,72,80,2800230240
11724,14,Improv_Melody,245,5,42,127,2800232928
11724,14,Improv_Melody,246,1,38,64,2800622548
11724,14,Improv_Melody,247,5,42,110,2800726496
11724,14,Improv_Melody,0,9999,9999,9999,2720223336
11724,14,Improv_Melody,1,9999,9999,9999,2720724072
11724,14,Improv_Melody,2,9999,9999,9999,2721223792
11724,14,Improv_Melody,3,9999,9999,9999,2721723516
11724,14,Improv_Melody,4,9999,9999,9999,2722223160
11724,14,Improv_Melody,5,9999,9999,9999,2722723932
11724,14,Improv_Melody,6,9999,9999,9999,2723223652
11724,14,Improv_Melody,7,9999,9999,9999,2723723376
11724,14,Improv_Melody,8,9999,9999,9999,2724224068
11724,14,Improv_Melody,9,9999,9999,9999,2724723804
11724,14,Improv_Melody,10,9999,9999,9999,2725223528
11724,14,Improv_Melody,11,9999,9999,9999,2725723248
11724,14,Improv_Melody,12,9999,9999,9999,2726223944
11724,14,Improv_Melody,13,9999,9999,9999,2726723664
11724,14,Improv_Melody,14,9999,9999,9999,2727223388
11724,14,Improv_Melody,15,9999,9999,9999,2727723108
11724,14,Improv_Melody,16,9999,9999,9999,2728223852
11724,14,Improv_Melody,17,9999,9999,9999,2728723524
11724,14,Improv_Melody,18,9999,9999,9999,2729223248
11724,14,Improv_Melody,19,9999,9999,9999,2729724016
11724,14,Improv_Melody,20,9999,9999,9999,2730223736
11724,14,Improv_Melody,21,9999,9999,9999,2730723384
11724,14,Improv_Melody,22,9999,9999,9999,2731223108
11724,14,Improv_Melody,23,9999,9999,9999,2731723876
11724,14,Improv_Melody,24,9999,9999,9999,2732223596
11724,14,Improv_Melody,25,9999,9999,9999,2732723256
11724,14,Improv_Melody,26,9999,9999,9999,2733224024
11724,14,Improv_Melody,27,9999,9999,9999,2733723748
11724,14,Improv_Melody,28,9999,9999,9999,2734223468
11724,14,Improv_Melody,29,9999,9999,9999,2734723188
11724,14,Improv_Melody,30,9999,9999,9999,2735223884
11724,14,Improv_Melody,31,9999,9999,9999,2735723604
11724,14,Improv_Melody,32,9999,9999,9999,2736223320
11724,14,Improv_Melody,33,9999,9999,9999,2736724088
11724,14,Improv_Melody,34,9999,9999,9999,2737223736
11724,14,Improv_Melody,35,9999,9999,9999,2737723456
11724,14,Improv_Melody,36,9999,9999,9999,2738223156
11724,14,Improv_Melody,37,9999,9999,9999,2738723900
11724,14,Improv_Melody,38,9999,9999,9999,2739223624
11724,14,Improv_Melody,39,9999,9999,9999,2739723344
11724,14,Improv_Melody,40,9999,9999,9999,2740224092
11724,14,Improv_Melody,41,9999,9999,9999,2740723828
11724,14,Improv_Melody,42,9999,9999,9999,2741223472
11724,14,Improv_Melody,43,9999,9999,9999,2741723196
11724,14,Improv_Melody,44,9999,9999,9999,2742223956
11724,14,Improv_Melody,45,9999,9999,9999,2742723664
11724,14,Improv_Melody,46,9999,9999,9999,2743223388
11724,14,Improv_Melody,47,9999,9999,9999,2743723108
11724,14,Improv_Melody,48,9999,9999,9999,2744223848
11724,14,Improv_Melody,49,9999,9999,9999,2744723568
11724,14,Improv_Melody,50,9999,9999,9999,2745223288
11724,14,Improv_Melody,51,9999,9999,9999,2745723984
11724,14,Improv_Melody,52,9999,9999,9999,2746223736
11724,14,Improv_Melody,53,9999,9999,9999,2746723404
11724,14,Improv_Melody,54,9999,9999,9999,2747223128
11724,14,Improv_Melody,55,9999,9999,9999,2747723896
11724,14,Improv_Melody,56,9999,9999,9999,2748223596
11724,14,Improv_Melody,57,9999,9999,9999,2748723260
11724,14,Improv_Melody,58,9999,9999,9999,2749224024
11724,14,Improv_Melody,59,9999,9999,9999,2749723724
11724,14,Improv_Melody,60,9999,9999,9999,2750223444
11724,14,Improv_Melody,61,9999,9999,9999,2750723144
11724,14,Improv_Melody,62,9999,9999,9999,2751223912
11724,14,Improv_Melody,63,9999,9999,9999,2751723632
11724,14,Improv_Melody,64,9999,9999,9999,2752223284
11724,14,Improv_Melody,65,9999,9999,9999,2752724040
11724,14,Improv_Melody,66,9999,9999,9999,2753223792
11724,14,Improv_Melody,67,9999,9999,9999,2753723512
11724,14,Improv_Melody,68,9999,9999,9999,2754223160
11724,14,Improv_Melody,69,9999,9999,9999,2754723900
11724,14,Improv_Melody,70,9999,9999,9999,2755223656
11724,14,Improv_Melody,71,9999,9999,9999,2755723376
11724,14,Improv_Melody,72,9999,9999,9999,2756224072
11724,14,Improv_Melody,73,9999,9999,9999,2756723780
11724,14,Improv_Melody,74,9999,9999,9999,2757223532
11724,14,Improv_Melody,75,9999,9999,9999,2757723252
11724,14,Improv_Melody,76,9999,9999,9999,2758223944
11724,14,Improv_Melody,77,9999,9999,9999,2758723640
11724,14,Improv_Melody,78,9999,9999,9999,2759223396
11724,14,Improv_Melody,79,9999,9999,9999,2759723116
11724,14,Improv_Melody,80,9999,9999,9999,2760223860
11724,14,Improv_Melody,81,9999,9999,9999,2760723528
11724,14,Improv_Melody,82,9999,9999,9999,2761223236
11724,14,Improv_Melody,83,9999,9999,9999,2761724004
11724,14,Improv_Melody,84,9999,9999,9999,2762223724
11724,14,Improv_Melody,85,9999,9999,9999,2762723440
11724,14,Improv_Melody,86,9999,9999,9999,2763223148
11724,14,Improv_Melody,87,9999,9999,9999,2763723840
11724,14,Improv_Melody,88,9999,9999,9999,2764223564
11724,14,Improv_Melody,89,9999,9999,9999,2764723292
11724,14,Improv_Melody,90,9999,9999,9999,2765224044
11724,14,Improv_Melody,91,9999,9999,9999,2765723768
11724,14,Improv_Melody,92,9999,9999,9999,2766223412
11724,14,Improv_Melody,93,9999,9999,9999,2766723128
11724,14,Improv_Melody,94,9999,9999,9999,2767223880
11724,14,Improv_Melody,95,9999,9999,9999,2767723600
11724,14,Improv_Melody,96,9999,9999,9999,2768223324
11724,14,Improv_Melody,97,9999,9999,9999,2768724080
11724,14,Improv_Melody,98,9999,9999,9999,2769223756
11724,14,Improv_Melody,99,9999,9999,9999,2769723480
11724,14,Improv_Melody,100,9999,9999,9999,2770223200
11724,14,Improv_Melody,101,9999,9999,9999,2770723944
11724,14,Improv_Melody,102,9999,9999,9999,2771223672
11724,14,Improv_Melody,103,9999,9999,9999,2771723320
11724,14,Improv_Melody,104,9999,9999,9999,2772224088
11724,14,Improv_Melody,105,9999,9999,9999,2772723816
11724,14,Improv_Melody,106,9999,9999,9999,2773223476
11724,14,Improv_Melody,107,9999,9999,9999,2773723196
11724,14,Improv_Melody,108,9999,9999,9999,2774223964
11724,14,Improv_Melody,109,9999,9999,9999,2774723660
11724,14,Improv_Melody,110,9999,9999,9999,2775223416
11724,14,Improv_Melody,111,9999,9999,9999,2775723060
11724,14,Improv_Melody,112,9999,9999,9999,2776223828
11724,14,Improv_Melody,113,9999,9999,9999,2776723524
11724,14,Improv_Melody,114,9999,9999,9999,2777223232
11724,14,Improv_Melody,115,9999,9999,9999,2777724000
11724,14,Improv_Melody,116,9999,9999,9999,2778223720
11724,14,Improv_Melody,117,9999,9999,9999,2778723420
11724,14,Improv_Melody,118,9999,9999,9999,2779223100
11724,14,Improv_Melody,119,9999,9999,9999,2779723868
11724,14,Improv_Melody,120,9999,9999,9999,2780223588
11724,14,Improv_Melody,121,9999,9999,9999,2780723256
11724,14,Improv_Melody,122,9999,9999,9999,2781224024
11724,14,Improv_Melody,123,9999,9999,9999,2781723720
11724,14,Improv_Melody,124,9999,9999,9999,2782223440
11724,14,Improv_Melody,125,9999,9999,9999,2782723164
11724,14,Improv_Melody,126,9999,9999,9999,2783223860
11724,14,Improv_Melody,127,9999,9999,9999,2783723580
11724,14,Improv_Melody,128,9999,9999,9999,2784223304
11724,14,Improv_Melody,129,9999,9999,9999,2784724064
11724,14,Improv_Melody,130,9999,9999,9999,2785223784
11724,14,Improv_Melody,131,9999,9999,9999,2785723504
11724,14,Improv_Melody,132,9999,9999,9999,2786223228
11724,14,Improv_Melody,133,9999,9999,9999,2786723916
11724,14,Improv_Melody,134,9999,9999,9999,2787223620
11724,14,Improv_Melody,135,9999,9999,9999,2787723344
11724,14,Improv_Melody,136,9999,9999,9999,2788224112
11724,14,Improv_Melody,137,9999,9999,9999,2788723824
11724,14,Improv_Melody,138,9999,9999,9999,2789223544
11724,14,Improv_Melody,139,9999,9999,9999,2789723192
11724,14,Improv_Melody,140,9999,9999,9999,2790223960
11724,14,Improv_Melody,141,9999,9999,9999,2790723660
11724,14,Improv_Melody,142,9999,9999,9999,2791223384
11724,14,Improv_Melody,143,9999,9999,9999,2791723104
11724,14,Improv_Melody,144,9999,9999,9999,2792223848
11724,14,Improv_Melody,145,9999,9999,9999,2792723560
11724,14,Improv_Melody,146,9999,9999,9999,2793223280
11724,14,Improv_Melody,147,9999,9999,9999,2793723976
11724,14,Improv_Melody,148,9999,9999,9999,2794223696
11724,14,Improv_Melody,149,9999,9999,9999,2794723396
11724,14,Improv_Melody,150,9999,9999,9999,2795223120
11724,14,Improv_Melody,151,9999,9999,9999,2795723884
11724,14,Improv_Melody,152,9999,9999,9999,2796223608
11724,14,Improv_Melody,153,9999,9999,9999,2796723320
11724,14,Improv_Melody,154,9999,9999,9999,2797224016
11724,14,Improv_Melody,155,9999,9999,9999,2797723736
11724,14,Improv_Melody,156,9999,9999,9999,2798223456
11724,14,Improv_Melody,157,9999,9999,9999,2798723172
11724,14,Improv_Melody,158,9999,9999,9999,2799223928
11724,14,Improv_Melody,159,9999,9999,9999,2799723572
11724,14,Improv_Melody,160,9999,9999,9999,2800223296
11724,14,Improv_Melody,161,9999,9999,9999,2800724056
117