pid,taskRunCount,taskID,taskName,i,channel,pitch,velocity,microseconds
115,1,0,Ticks_Pract_8,0,5,42,127,109406520
115,1,0,Ticks_Pract_8,1,5,42,127,110207472
115,1,0,Ticks_Pract_8,2,1,48,28,110396568
115,1,0,Ticks_Pract_8,3,5,42,127,111007208
115,1,0,Ticks_Pract_8,4,1,48,17,111082904
115,1,0,Ticks_Pract_8,5,5,42,127,111806940
115,1,0,Ticks_Pract_8,6,1,48,35,111865956
115,1,0,Ticks_Pract_8,7,5,42,127,112606552
115,1,0,Ticks_Pract_8,8,1,48,36,112626272
115,1,0,Ticks_Pract_8,9,1,48,33,113398240
115,1,0,Ticks_Pract_8,10,5,42,127,113407324
115,1,0,Ticks_Pract_8,11,1,48,33,114206232
115,1,0,Ticks_Pract_8,12,5,42,127,114207808
115,1,0,Ticks_Pract_8,13,1,48,28,114957764
115,1,0,Ticks_Pract_8,14,5,42,127,115006868
115,1,0,Ticks_Pract_8,15,1,48,31,115794520
115,1,0,Ticks_Pract_8,16,5,42,127,115806452
115,1,0,Ticks_Pract_8,17,5,42,127,116607312
115,1,0,Ticks_Pract_8,18,1,48,25,116624940
115,1,0,Ticks_Pract_8,19,1,48,23,117406972
115,1,0,Ticks_Pract_8,20,5,42,127,117408456
115,1,0,Ticks_Pract_8,21,5,42,127,118206928
115,1,0,Ticks_Pract_8,22,1,48,16,118272156
115,1,0,Ticks_Pract_8,23,5,42,127,119006540
115,1,0,Ticks_Pract_8,24,1,48,21,119030376
115,1,0,Ticks_Pract_8,25,5,42,127,119807392
115,1,0,Ticks_Pract_8,26,1,48,25,119828540
115,1,0,Ticks_Pract_8,27,5,42,127,120607276
115,1,0,Ticks_Pract_8,28,1,48,22,120610692
115,1,0,Ticks_Pract_8,29,5,42,127,121407080
115,1,0,Ticks_Pract_8,30,1,48,22,121422916
115,1,0,Ticks_Pract_8,31,5,42,127,122206520
115,1,0,Ticks_Pract_8,32,1,48,21,122234020
115,1,0,Ticks_Pract_8,33,5,42,127,123007448
115,1,0,Ticks_Pract_8,34,1,48,26,123040556
115,1,0,Ticks_Pract_8,35,5,42,127,123807180
115,1,0,Ticks_Pract_8,36,1,48,24,123844104
115,1,0,Ticks_Pract_8,37,5,42,127,124606988
115,1,0,Ticks_Pract_8,38,1,48,23,124639752
115,1,0,Ticks_Pract_8,39,5,42,127,125406596
115,1,0,Ticks_Pract_8,40,1,48,27,125418768
115,1,0,Ticks_Pract_8,41,5,42,127,126207376
115,1,0,Ticks_Pract_8,42,1,48,24,126213192
115,1,0,Ticks_Pract_8,43,1,48,28,126985824
115,1,0,Ticks_Pract_8,44,5,42,127,127007032
115,1,0,Ticks_Pract_8,45,1,48,25,127787732
115,1,0,Ticks_Pract_8,46,5,42,127,127807060
115,1,0,Ticks_Pract_8,47,1,48,32,128567120
115,1,0,Ticks_Pract_8,48,5,42,127,128606424
115,1,0,Ticks_Pract_8,49,5,42,127,129407436
115,1,0,Ticks_Pract_8,50,1,48,17,129421024
115,1,0,Ticks_Pract_8,51,1,48,16,130200696
115,1,0,Ticks_Pract_8,52,5,42,127,130207012
115,1,0,Ticks_Pract_8,53,1,48,26,130985168
115,1,0,Ticks_Pract_8,54,5,42,127,131006820
115,1,0,Ticks_Pract_8,55,1,48,21,131792680
115,1,0,Ticks_Pract_8,56,5,42,127,131806580
115,1,0,Ticks_Pract_8,57,1,48,28,132605544
115,1,0,Ticks_Pract_8,58,5,42,127,132607288
115,1,0,Ticks_Pract_8,0,9999,9999,9999,109404228
115,1,0,Ticks_Pract_8,1,9999,9999,9999,110205032
115,1,0,Ticks_Pract_8,2,9999,9999,9999,111004768
115,1,0,Ticks_Pract_8,3,9999,9999,9999,111804500
115,1,0,Ticks_Pract_8,4,9999,9999,9999,112604260
115,1,0,Ticks_Pract_8,5,9999,9999,9999,113405032
115,1,0,Ticks_Pract_8,6,9999,9999,9999,114204772
115,1,0,Ticks_Pract_8,7,9999,9999,9999,115004500
115,1,0,Ticks_Pract_8,8,9999,9999,9999,115804232
115,1,0,Ticks_Pract_8,9,9999,9999,9999,116605020
115,1,0,Ticks_Pract_8,10,9999,9999,9999,117404752
115,1,0,Ticks_Pract_8,11,9999,9999,9999,118204488
115,1,0,Ticks_Pract_8,12,9999,9999,9999,119004248
115,1,0,Ticks_Pract_8,13,9999,9999,9999,119805028
115,1,0,Ticks_Pract_8,14,9999,9999,9999,120604760
115,1,0,Ticks_Pract_8,15,9999,9999,9999,121404492
115,1,0,Ticks_Pract_8,16,9999,9999,9999,122204228
115,1,0,Ticks_Pract_8,17,9999,9999,9999,123005008
115,1,0,Ticks_Pract_8,18,9999,9999,9999,123804740
115,1,0,Ticks_Pract_8,19,9999,9999,9999,124604472
115,1,0,Ticks_Pract_8,20,9999,9999,9999,125404232
115,1,0,Ticks_Pract_8,21,9999,9999,9999,126205012
115,1,0,Ticks_Pract_8,22,9999,9999,9999,127004740
115,1,0,Ticks_Pract_8,23,9999,9999,9999,127804472
115,1,0,Ticks_Pract_8,24,9999,9999,9999,128604208
115,1,0,Ticks_Pract_8,25,9999,9999,9999,129404992
115,1,0,Ticks_Pract_8,26,9999,9999,9999,130204720
115,1,0,Ticks_Pract_8,27,9999,9999,9999,131004528
115,1,0,Ticks_Pract_8,28,9999,9999,9999,131804212
115,1,0,Ticks_Pract_8,29,9999,9999,9999,132605020
115,2,1,Ticks_Pract_5,0,5,42,127,153994680
115,2,1,Ticks_Pract_5,1,5,42,127,154495516
115,2,1,Ticks_Pract_5,2,1,48,35,154955252
115,2,1,Ticks_Pract_5,3,5,42,127,154995000
115,2,1,Ticks_Pract_5,4,1,48,33,155476856
115,2,1,Ticks_Pract_5,5,5,42,127,155494696
115,2,1,Ticks_Pract_5,6,1,48,28,155978352
115,2,1,Ticks_Pract_5,7,5,42,127,155994616
115,2,1,Ticks_Pract_5,8,1,48,21,156463760
115,2,1,Ticks_Pract_5,9,5,42,127,156495284
115,2,1,Ticks_Pract_5,10,1,48,22,156975044
115,2,1,Ticks_Pract_5,11,5,42,127,156994904
115,2,1,Ticks_Pract_5,12,1,48,29,157488288
115,2,1,Ticks_Pract_5,13,5,42,127,157494600
115,2,1,Ticks_Pract_5,14,1,48,34,157963820
115,2,1,Ticks_Pract_5,15,5,42,127,157995492
115,2,1,Ticks_Pract_5,16,1,48,31,158468676
115,2,1,Ticks_Pract_5,17,5,42,127,158494964
115,2,1,Ticks_Pract_5,18,1,48,31,158964256
115,2,1,Ticks_Pract_5,19,5,42,127,158994808
115,2,1,Ticks_Pract_5,20,1,48,25,159457896
115,2,1,Ticks_Pract_5,21,5,42,127,159494652
115,2,1,Ticks_Pract_5,22,1,48,25,159976964
115,2,1,Ticks_Pract_5,23,5,42,127,159995320
115,2,1,Ticks_Pract_5,24,5,42,127,160494944
115,2,1,Ticks_Pract_5,25,1,48,28,160504948
115,2,1,Ticks_Pract_5,26,5,42,127,160994640
115,2,1,Ticks_Pract_5,27,1,48,33,161005164
115,2,1,Ticks_Pract_5,28,5,42,127,161495356
115,2,1,Ticks_Pract_5,29,1,48,32,161509424
115,2,1,Ticks_Pract_5,30,1,48,32,161993004
115,2,1,Ticks_Pract_5,31,5,42,127,161995044
115,2,1,Ticks_Pract_5,32,1,48,32,162477876
115,2,1,Ticks_Pract_5,33,5,42,127,162494740
115,2,1,Ticks_Pract_5,34,1,48,31,162978468
115,2,1,Ticks_Pract_5,35,5,42,127,162994580
115,2,1,Ticks_Pract_5,36,1,48,29,163429992
115,2,1,Ticks_Pract_5,37,5,42,127,163495396
115,2,1,Ticks_Pract_5,38,1,48,28,163959836
115,2,1,Ticks_Pract_5,39,5,42,127,163994944
115,2,1,Ticks_Pract_5,40,1,48,27,164494268
115,2,1,Ticks_Pract_5,41,5,42,127,164495832
115,2,1,Ticks_Pract_5,42,1,48,31,164983600
115,2,1,Ticks_Pract_5,43,5,42,127,164994556
115,2,1,Ticks_Pract_5,44,1,48,30,165491004
115,2,1,Ticks_Pract_5,45,5,42,127,165495296
115,2,1,Ticks_Pract_5,46,1,48,27,165989504
115,2,1,Ticks_Pract_5,47,5,42,127,165994844
115,2,1,Ticks_Pract_5,48,5,42,127,166494544
115,2,1,Ticks_Pract_5,49,1,48,24,166498260
115,2,1,Ticks_Pract_5,50,1,48,28,166982904
115,2,1,Ticks_Pract_5,51,5,42,127,166995352
115,2,1,Ticks_Pract_5,52,1,48,33,167484168
115,2,1,Ticks_Pract_5,53,5,42,127,167494900
115,2,1,Ticks_Pract_5,54,5,42,127,167994600
115,2,1,Ticks_Pract_5,55,1,48,30,168008796
115,2,1,Ticks_Pract_5,56,1,48,29,168467252
115,2,1,Ticks_Pract_5,57,5,42,127,168494588
115,2,1,Ticks_Pract_5,58,1,48,26,168984752
115,2,1,Ticks_Pract_5,59,5,42,127,168995104
115,2,1,Ticks_Pract_5,60,5,42,127,169494880
115,2,1,Ticks_Pract_5,61,1,48,28,169508028
115,2,1,Ticks_Pract_5,62,5,42,127,169994576
115,2,1,Ticks_Pract_5,63,1,48,27,170022380
115,2,1,Ticks_Pract_5,64,5,42,127,170495316
115,2,1,Ticks_Pract_5,65,1,48,32,170524768
115,2,1,Ticks_Pract_5,66,5,42,127,170995160
115,2,1,Ticks_Pract_5,67,1,48,30,171075624
115,2,1,Ticks_Pract_5,68,5,42,127,171494708
115,2,1,Ticks_Pract_5,69,1,48,25,171509568
115,2,1,Ticks_Pract_5,70,5,42,127,171994400
115,2,1,Ticks_Pract_5,71,1,48,22,172026916
115,2,1,Ticks_Pract_5,72,1,48,27,172476372
115,2,1,Ticks_Pract_5,73,5,42,127,172495260
115,2,1,Ticks_Pract_5,74,1,48,27,172967248
115,2,1,Ticks_Pract_5,75,5,42,127,172994956
115,2,1,Ticks_Pract_5,76,1,48,30,173488264
115,2,1,Ticks_Pract_5,77,5,42,127,173494648
115,2,1,Ticks_Pract_5,78,1,48,34,173966712
115,2,1,Ticks_Pract_5,0,9999,9999,9999,153992244
115,2,1,Ticks_Pract_5,1,9999,9999,9999,154493008
115,2,1,Ticks_Pract_5,2,9999,9999,9999,154992716
115,2,1,Ticks_Pract_5,3,9999,9999,9999,155492412
115,2,1,Ticks_Pract_5,4,9999,9999,9999,155992180
115,2,1,Ticks_Pract_5,5,9999,9999,9999,156492848
115,2,1,Ticks_Pract_5,6,9999,9999,9999,156992616
115,2,1,Ticks_Pract_5,7,9999,9999,9999,157492312
115,2,1,Ticks_Pract_5,8,9999,9999,9999,157993056
115,2,1,Ticks_Pract_5,9,9999,9999,9999,158492752
115,2,1,Ticks_Pract_5,10,9999,9999,9999,158992448
115,2,1,Ticks_Pract_5,11,9999,9999,9999,159492216
115,2,1,Ticks_Pract_5,12,9999,9999,9999,159992884
115,2,1,Ticks_Pract_5,13,9999,9999,9999,160492656
115,2,1,Ticks_Pract_5,14,9999,9999,9999,160992352
115,2,1,Ticks_Pract_5,15,9999,9999,9999,161493068
115,2,1,Ticks_Pract_5,16,9999,9999,9999,161992796
115,2,1,Ticks_Pract_5,17,9999,9999,9999,162492528
115,2,1,Ticks_Pract_5,18,9999,9999,9999,162992220
115,2,1,Ticks_Pract_5,19,9999,9999,9999,163492964
115,2,1,Ticks_Pract_5,20,9999,9999,9999,163992656
115,2,1,Ticks_Pract_5,21,9999,9999,9999,164492356
115,2,1,Ticks_Pract_5,22,9999,9999,9999,164992120
115,2,1,Ticks_Pract_5,23,9999,9999,9999,165492788
115,2,1,Ticks_Pract_5,24,9999,9999,9999,165992556
115,2,1,Ticks_Pract_5,25,9999,9999,9999,166492260
115,2,1,Ticks_Pract_5,26,9999,9999,9999,166992992
115,2,1,Ticks_Pract_5,27,9999,9999,9999,167492688
115,2,1,Ticks_Pract_5,28,9999,9999,9999,167992388
115,2,1,Ticks_Pract_5,29,9999,9999,9999,168492152
115,2,1,Ticks_Pract_5,30,9999,9999,9999,168992820
115,2,1,Ticks_Pract_5,31,9999,9999,9999,169492596
115,2,1,Ticks_Pract_5,32,9999,9999,9999,169992288
115,2,1,Ticks_Pract_5,33,9999,9999,9999,170493032
115,2,1,Ticks_Pract_5,34,9999,9999,9999,170992724
115,2,1,Ticks_Pract_5,35,9999,9999,9999,171492420
115,2,1,Ticks_Pract_5,36,9999,9999,9999,171992164
115,2,1,Ticks_Pract_5,37,9999,9999,9999,172492900
115,2,1,Ticks_Pract_5,38,9999,9999,9999,172992592
115,2,1,Ticks_Pract_5,39,9999,9999,9999,173492288
115,3,2,T1_SMS_8,0,5,42,127,279754148
115,3,2,T1_SMS_8,1,1,48,29,280317652
115,3,2,T1_SMS_8,2,5,42,127,280553756
115,3,2,T1_SMS_8,3,5,42,127,281353584
115,3,2,T1_SMS_8,4,5,42,127,282154312
115,3,2,T1_SMS_8,5,1,48,25,282939968
115,3,2,T1_SMS_8,6,5,42,127,282954060
115,3,2,T1_SMS_8,7,1,48,28,283719652
115,3,2,T1_SMS_8,8,5,42,127,283753872
115,3,2,T1_SMS_8,9,5,42,127,284553612
115,3,2,T1_SMS_8,10,1,48,27,284569000
115,3,2,T1_SMS_8,11,5,42,127,285354536
115,3,2,T1_SMS_8,12,1,48,27,285367084
115,3,2,T1_SMS_8,13,5,42,127,286153976
115,3,2,T1_SMS_8,14,1,48,29,286180832
115,3,2,T1_SMS_8,15,1,48,23,286950704
115,3,2,T1_SMS_8,16,5,42,127,286953800
115,3,2,T1_SMS_8,17,5,42,127,287753540
115,3,2,T1_SMS_8,18,1,48,27,287763544
115,3,2,T1_SMS_8,19,1,48,22,288550692
115,3,2,T1_SMS_8,20,5,42,127,288554836
115,3,2,T1_SMS_8,21,5,42,127,289354056
115,3,2,T1_SMS_8,22,1,48,27,289369592
115,3,2,T1_SMS_8,23,1,48,24,290143200
115,3,2,T1_SMS_8,24,5,42,127,290153784
115,3,2,T1_SMS_8,25,1,48,27,290924384
115,3,2,T1_SMS_8,26,5,42,127,290953588
115,3,2,T1_SMS_8,27,1,48,28,291734216
115,3,2,T1_SMS_8,28,5,42,127,291754444
115,3,2,T1_SMS_8,29,5,42,127,292554112
115,3,2,T1_SMS_8,30,1,48,28,292555076
115,3,2,T1_SMS_8,31,1,48,25,293340888
115,3,2,T1_SMS_8,32,5,42,127,293353864
115,3,2,T1_SMS_8,33,1,48,29,294129476
115,3,2,T1_SMS_8,34,5,42,127,294153596
115,3,2,T1_SMS_8,35,1,48,24,294890464
115,3,2,T1_SMS_8,36,5,42,127,294954524
115,3,2,T1_SMS_8,37,1,48,32,295720416
115,3,2,T1_SMS_8,38,5,42,127,295754108
115,3,2,T1_SMS_8,39,1,48,32,296497416
115,3,2,T1_SMS_8,40,5,42,127,296553692
115,3,2,T1_SMS_8,41,5,42,127,297353656
115,3,2,T1_SMS_8,42,1,48,35,297386172
115,3,2,T1_SMS_8,43,1,48,33,298141232
115,3,2,T1_SMS_8,44,5,42,127,298154356
115,3,2,T1_SMS_8,45,5,42,127,298954168
115,3,2,T1_SMS_8,46,1,48,29,299010868
115,3,2,T1_SMS_8,47,1,48,23,299716536
115,3,2,T1_SMS_8,48,5,42,127,299753920
115,3,2,T1_SMS_8,49,1,48,28,300524900
115,3,2,T1_SMS_8,50,5,42,127,300553504
115,3,2,T1_SMS_8,51,1,48,25,301285060
115,3,2,T1_SMS_8,52,5,42,127,301354432
115,3,2,T1_SMS_8,53,5,42,127,302154028
115,3,2,T1_SMS_8,54,1,48,26,302172404
115,3,2,T1_SMS_8,55,1,48,32,302936220
115,3,2,T1_SMS_8,56,5,42,127,302953900
115,3,2,T1_SMS_8,57,1,48,27,303730040
115,3,2,T1_SMS_8,58,5,42,127,303753560
115,3,2,T1_SMS_8,59,1,48,29,304533364
115,3,2,T1_SMS_8,60,5,42,127,304554340
115,3,2,T1_SMS_8,61,5,42,127,305354304
115,3,2,T1_SMS_8,62,1,48,28,305367476
115,3,2,T1_SMS_8,63,5,42,127,306153692
115,3,2,T1_SMS_8,64,1,48,27,306182616
115,3,2,T1_SMS_8,65,5,42,127,306953572
115,3,2,T1_SMS_8,66,1,48,21,306967988
115,3,2,T1_SMS_8,67,1,48,27,307711752
115,3,2,T1_SMS_8,68,5,42,127,307754420
115,3,2,T1_SMS_8,69,1,48,21,308505656
115,3,2,T1_SMS_8,70,5,42,127,308554228
115,3,2,T1_SMS_8,71,1,48,27,309323412
115,3,2,T1_SMS_8,72,5,42,127,309353812
115,3,2,T1_SMS_8,73,1,48,22,310107664
115,3,2,T1_SMS_8,74,5,42,127,310153696
115,3,2,T1_SMS_8,75,1,48,19,310877852
115,3,2,T1_SMS_8,76,5,42,127,310954476
115,3,2,T1_SMS_8,77,5,42,127,311754216
115,3,2,T1_SMS_8,78,1,48,28,311811444
115,3,2,T1_SMS_8,79,5,42,127,312553756
115,3,2,T1_SMS_8,80,1,48,26,312612524
115,3,2,T1_SMS_8,81,5,42,127,313353636
115,3,2,T1_SMS_8,82,1,48,21,313357280
115,3,2,T1_SMS_8,83,1,48,25,314110624
115,3,2,T1_SMS_8,84,5,42,127,314154412
115,3,2,T1_SMS_8,85,1,48,26,314896896
115,3,2,T1_SMS_8,86,5,42,127,314954292
115,3,2,T1_SMS_8,87,1,48,24,315710240
115,3,2,T1_SMS_8,88,5,42,127,315753732
115,3,2,T1_SMS_8,89,1,48,20,316545500
115,3,2,T1_SMS_8,90,5,42,127,316553540
115,3,2,T1_SMS_8,91,1,48,21,317263932
115,3,2,T1_SMS_8,92,5,42,127,317354320
115,3,2,T1_SMS_8,93,5,42,127,318154284
115,3,2,T1_SMS_8,94,1,48,20,318170596
115,3,2,T1_SMS_8,95,5,42,127,318953816
115,3,2,T1_SMS_8,96,1,48,16,318967484
115,3,2,T1_SMS_8,97,1,48,17,319747828
115,3,2,T1_SMS_8,98,5,42,127,319753544
115,3,2,T1_SMS_8,99,1,48,19,320542176
115,3,2,T1_SMS_8,100,5,42,127,320554472
115,3,2,T1_SMS_8,101,5,42,127,321354216
115,3,2,T1_SMS_8,102,1,48,24,321358308
115,3,2,T1_SMS_8,103,5,42,127,322154020
115,3,2,T1_SMS_8,104,1,48,23,322206652
115,3,2,T1_SMS_8,105,5,42,127,322953680
115,3,2,T1_SMS_8,106,1,48,23,322963156
115,3,2,T1_SMS_8,107,1,48,19,323736244
115,3,2,T1_SMS_8,108,5,42,127,323754380
115,3,2,T1_SMS_8,109,1,48,20,324505160
115,3,2,T1_SMS_8,110,5,42,127,324554040
115,3,2,T1_SMS_8,111,5,42,127,325354100
115,3,2,T1_SMS_8,112,1,48,24,325357824
115,3,2,T1_SMS_8,113,1,48,23,326126192
115,3,2,T1_SMS_8,114,5,42,127,326153528
115,3,2,T1_SMS_8,115,1,48,21,326910148
115,3,2,T1_SMS_8,116,5,42,127,326954308
115,3,2,T1_SMS_8,117,1,48,14,327741292
115,3,2,T1_SMS_8,118,5,42,127,327754116
115,3,2,T1_SMS_8,119,1,48,17,328544768
115,3,2,T1_SMS_8,120,5,42,127,328554000
115,3,2,T1_SMS_8,121,1,48,20,329335744
115,3,2,T1_SMS_8,122,5,42,127,329353508
115,3,2,T1_SMS_8,123,1,48,27,330088664
115,3,2,T1_SMS_8,124,5,42,127,330154216
115,3,2,T1_SMS_8,125,1,48,26,330921156
115,3,2,T1_SMS_8,126,5,42,127,330954024
115,3,2,T1_SMS_8,127,5,42,127,331753936
115,3,2,T1_SMS_8,128,1,48,19,331773068
115,3,2,T1_SMS_8,129,1,48,17,332542188
115,3,2,T1_SMS_8,130,5,42,127,332553440
115,3,2,T1_SMS_8,131,1,48,18,333328980
115,3,2,T1_SMS_8,132,5,42,127,333354220
115,3,2,T1_SMS_8,133,1,48,25,334128792
115,3,2,T1_SMS_8,134,5,42,127,334154028
115,3,2,T1_SMS_8,135,1,48,15,334897032
115,3,2,T1_SMS_8,136,5,42,127,334953912
115,3,2,T1_SMS_8,137,5,42,127,335753652
115,3,2,T1_SMS_8,138,1,48,19,335799104
115,3,2,T1_SMS_8,139,1,48,21,336535092
115,3,2,T1_SMS_8,140,5,42,127,336554348
115,3,2,T1_SMS_8,141,1,48,21,337308728
115,3,2,T1_SMS_8,142,5,42,127,337354160
115,3,2,T1_SMS_8,143,1,48,26,338149848
115,3,2,T1_SMS_8,144,5,42,127,338153916
115,3,2,T1_SMS_8,145,1,48,25,338913600
115,3,2,T1_SMS_8,146,5,42,127,338953724
115,3,2,T1_SMS_8,147,5,42,127,339754288
115,3,2,T1_SMS_8,148,1,48,17,339756736
115,3,2,T1_SMS_8,149,5,42,127,340554024
115,3,2,T1_SMS_8,150,1,48,14,340578908
115,3,2,T1_SMS_8,151,1,48,15,341317512
115,3,2,T1_SMS_8,152,5,42,127,341353896
115,3,2,T1_SMS_8,153,1,48,20,342091664
115,3,2,T1_SMS_8,154,5,42,127,342153556
115,3,2,T1_SMS_8,155,1,48,18,342921248
115,3,2,T1_SMS_8,156,5,42,127,342954412
115,3,2,T1_SMS_8,157,1,48,14,343754372
115,3,2,T1_SMS_8,158,5,42,127,343755636
115,3,2,T1_SMS_8,159,1,48,16,344522880
115,3,2,T1_SMS_8,160,5,42,127,344553828
115,3,2,T1_SMS_8,161,1,48,15,345343656
115,3,2,T1_SMS_8,162,5,42,127,345353712
115,3,2,T1_SMS_8,163,1,48,14,346126112
115,3,2,T1_SMS_8,164,5,42,127,346154420
115,3,2,T1_SMS_8,165,1,48,19,346907824
115,3,2,T1_SMS_8,166,5,42,127,346954224
115,3,2,T1_SMS_8,167,1,48,21,347696932
115,3,2,T1_SMS_8,168,5,42,127,347753888
115,3,2,T1_SMS_8,169,1,48,24,348531520
115,3,2,T1_SMS_8,170,5,42,127,348553620
115,3,2,T1_SMS_8,171,1,48,22,349301188
115,3,2,T1_SMS_8,172,5,42,127,349354252
115,3,2,T1_SMS_8,173,1,48,22,350128596
115,3,2,T1_SMS_8,174,5,42,127,350154060
115,3,2,T1_SMS_8,175,1,48,18,350950644
115,3,2,T1_SMS_8,176,5,42,127,350953816
115,3,2,T1_SMS_8,177,1,48,19,351752956
115,3,2,T1_SMS_8,178,5,42,127,351754520
115,3,2,T1_SMS_8,179,1,48,24,352523780
115,3,2,T1_SMS_8,180,5,42,127,352554332
115,3,2,T1_SMS_8,181,1,48,19,353340644
115,3,2,T1_SMS_8,182,5,42,127,353354064
115,3,2,T1_SMS_8,183,1,48,24,354123396
115,3,2,T1_SMS_8,184,5,42,127,354153724
115,3,2,T1_SMS_8,185,1,48,27,354931356
115,3,2,T1_SMS_8,186,5,42,127,354953828
115,3,2,T1_SMS_8,187,1,48,19,355737224
115,3,2,T1_SMS_8,188,5,42,127,355754460
115,3,2,T1_SMS_8,189,1,48,18,356538304
115,3,2,T1_SMS_8,190,5,42,127,356554044
115,3,2,T1_SMS_8,191,1,48,20,357310884
115,3,2,T1_SMS_8,192,5,42,127,357353728
115,3,2,T1_SMS_8,193,1,48,21,358100768
115,3,2,T1_SMS_8,194,5,42,127,358153684
115,3,2,T1_SMS_8,195,1,48,19,358914640
115,3,2,T1_SMS_8,196,5,42,127,358954540
115,3,2,T1_SMS_8,197,1,48,14,359722080
115,3,2,T1_SMS_8,198,5,42,127,359754124
115,3,2,T1_SMS_8,199,1,48,24,360513504
115,3,2,T1_SMS_8,200,5,42,127,360553708
115,3,2,T1_SMS_8,201,1,48,18,361327604
115,3,2,T1_SMS_8,202,5,42,127,361353592
115,3,2,T1_SMS_8,203,5,42,127,362154380
115,3,2,T1_SMS_8,204,1,48,19,362951328
115,3,2,T1_SMS_8,205,5,42,127,362954052
115,3,2,T1_SMS_8,206,1,48,19,363744652
115,3,2,T1_SMS_8,207,5,42,127,363753812
115,3,2,T1_SMS_8,208,1,48,20,364551660
115,3,2,T1_SMS_8,209,5,42,127,364553544
115,3,2,T1_SMS_8,210,1,48,20,365333272
115,3,2,T1_SMS_8,211,5,42,127,365354324
115,3,2,T1_SMS_8,212,1,48,18,366117824
115,3,2,T1_SMS_8,213,5,42,127,366154132
115,3,2,T1_SMS_8,214,1,48,13,366948296
115,3,2,T1_SMS_8,215,5,42,127,366953792
115,3,2,T1_SMS_8,216,5,42,127,367753608
115,3,2,T1_SMS_8,217,1,48,14,367772064
115,3,2,T1_SMS_8,218,1,48,14,368549784
115,3,2,T1_SMS_8,219,5,42,127,368554532
115,3,2,T1_SMS_8,220,1,48,17,369346828
115,3,2,T1_SMS_8,221,5,42,127,369354188
115,3,2,T1_SMS_8,222,1,48,21,370105944
115,3,2,T1_SMS_8,223,5,42,127,370153724
115,3,2,T1_SMS_8,224,1,48,24,370941752
115,3,2,T1_SMS_8,225,5,42,127,370953680
115,3,2,T1_SMS_8,226,1,48,20,371733408
115,3,2,T1_SMS_8,227,5,42,127,371754536
115,3,2,T1_SMS_8,228,5,42,127,372554200
115,3,2,T1_SMS_8,229,1,48,20,372555464
115,3,2,T1_SMS_8,230,5,42,127,373353784
115,3,2,T1_SMS_8,231,1,48,20,373391388
115,3,2,T1_SMS_8,232,1,48,21,374138296
115,3,2,T1_SMS_8,233,5,42,127,374153436
115,3,2,T1_SMS_8,234,5,42,127,374954596
115,3,2,T1_SMS_8,235,1,48,19,374962580
115,3,2,T1_SMS_8,0,9999,9999,9999,279751784
115,3,2,T1_SMS_8,1,9999,9999,9999,280551544
115,3,2,T1_SMS_8,2,9999,9999,9999,281351224
115,3,2,T1_SMS_8,3,9999,9999,9999,282152024
115,3,2,T1_SMS_8,4,9999,9999,9999,282951772
115,3,2,T1_SMS_8,5,9999,9999,9999,283751508
115,3,2,T1_SMS_8,6,9999,9999,9999,284551248
115,3,2,T1_SMS_8,7,9999,9999,9999,285352028
115,3,2,T1_SMS_8,8,9999,9999,9999,286151760
115,3,2,T1_SMS_8,9,9999,9999,9999,286951512
115,3,2,T1_SMS_8,10,9999,9999,9999,287751252
115,3,2,T1_SMS_8,11,9999,9999,9999,288552028
115,3,2,T1_SMS_8,12,9999,9999,9999,289351768
115,3,2,T1_SMS_8,13,9999,9999,9999,290151496
115,3,2,T1_SMS_8,14,9999,9999,9999,290951228
115,3,2,T1_SMS_8,15,9999,9999,9999,291752008
115,3,2,T1_SMS_8,16,9999,9999,9999,292551748
115,3,2,T1_SMS_8,17,9999,9999,9999,293351500
115,3,2,T1_SMS_8,18,9999,9999,9999,294151232
115,3,2,T1_SMS_8,19,9999,9999,9999,294952012
115,3,2,T1_SMS_8,20,9999,9999,9999,295751748
115,3,2,T1_SMS_8,21,9999,9999,9999,296551480
115,3,2,T1_SMS_8,22,9999,9999,9999,297351220
115,3,2,T1_SMS_8,23,9999,9999,9999,298151992
115,3,2,T1_SMS_8,24,9999,9999,9999,298951732
115,3,2,T1_SMS_8,25,9999,9999,9999,299751484
115,3,2,T1_SMS_8,26,9999,9999,9999,300551216
115,3,2,T1_SMS_8,27,9999,9999,9999,301351996
115,3,2,T1_SMS_8,28,9999,9999,9999,302151736
115,3,2,T1_SMS_8,29,9999,9999,9999,302951540
115,3,2,T1_SMS_8,30,9999,9999,9999,303751272
115,3,2,T1_SMS_8,31,9999,9999,9999,304552052
115,3,2,T1_SMS_8,32,9999,9999,9999,305351792
115,3,2,T1_SMS_8,33,9999,9999,9999,306151476
115,3,2,T1_SMS_8,34,9999,9999,9999,306951284
115,3,2,T1_SMS_8,35,9999,9999,9999,307751984
115,3,2,T1_SMS_8,36,9999,9999,9999,308551792
115,3,2,T1_SMS_8,37,9999,9999,9999,309351524
115,3,2,T1_SMS_8,38,9999,9999,9999,310151260
115,3,2,T1_SMS_8,39,9999,9999,9999,310952040
115,3,2,T1_SMS_8,40,9999,9999,9999,311751780
115,3,2,T1_SMS_8,41,9999,9999,9999,312551540
115,3,2,T1_SMS_8,42,9999,9999,9999,313351272
115,3,2,T1_SMS_8,43,9999,9999,9999,314152048
115,3,2,T1_SMS_8,44,9999,9999,9999,314951784
115,3,2,T1_SMS_8,45,9999,9999,9999,315751516
115,3,2,T1_SMS_8,46,9999,9999,9999,316551252
115,3,2,T1_SMS_8,47,9999,9999,9999,317352032
115,3,2,T1_SMS_8,48,9999,9999,9999,318151772
115,3,2,T1_SMS_8,49,9999,9999,9999,318951528
115,3,2,T1_SMS_8,50,9999,9999,9999,319751256
115,3,2,T1_SMS_8,51,9999,9999,9999,320552036
115,3,2,T1_SMS_8,52,9999,9999,9999,321351776
115,3,2,T1_SMS_8,53,9999,9999,9999,322151512
115,3,2,T1_SMS_8,54,9999,9999,9999,322951244
115,3,2,T1_SMS_8,55,9999,9999,9999,323752016
115,3,2,T1_SMS_8,56,9999,9999,9999,324551752
115,3,2,T1_SMS_8,57,9999,9999,9999,325351516
115,3,2,T1_SMS_8,58,9999,9999,9999,326151244
115,3,2,T1_SMS_8,59,9999,9999,9999,326952020
115,3,2,T1_SMS_8,60,9999,9999,9999,327751756
115,3,2,T1_SMS_8,61,9999,9999,9999,328551488
115,3,2,T1_SMS_8,62,9999,9999,9999,329351224
115,3,2,T1_SMS_8,63,9999,9999,9999,330152004
115,3,2,T1_SMS_8,64,9999,9999,9999,330951736
115,3,2,T1_SMS_8,65,9999,9999,9999,331751500
115,3,2,T1_SMS_8,66,9999,9999,9999,332551228
115,3,2,T1_SMS_8,67,9999,9999,9999,333352008
115,3,2,T1_SMS_8,68,9999,9999,9999,334151744
115,3,2,T1_SMS_8,69,9999,9999,9999,334951476
115,3,2,T1_SMS_8,70,9999,9999,9999,335751216
115,3,2,T1_SMS_8,71,9999,9999,9999,336551988
115,3,2,T1_SMS_8,72,9999,9999,9999,337351796
115,3,2,T1_SMS_8,73,9999,9999,9999,338151480
115,3,2,T1_SMS_8,74,9999,9999,9999,338951288
115,3,2,T1_SMS_8,75,9999,9999,9999,339752000
115,3,2,T1_SMS_8,76,9999,9999,9999,340551736
115,3,2,T1_SMS_8,77,9999,9999,9999,341351536
115,3,2,T1_SMS_8,78,9999,9999,9999,342151268
115,3,2,T1_SMS_8,79,9999,9999,9999,342952048
115,3,2,T1_SMS_8,80,9999,9999,9999,343751788
115,3,2,T1_SMS_8,81,9999,9999,9999,344551540
115,3,2,T1_SMS_8,82,9999,9999,9999,345351276
115,3,2,T1_SMS_8,83,9999,9999,9999,346151984
115,3,2,T1_SMS_8,84,9999,9999,9999,346951788
115,3,2,T1_SMS_8,85,9999,9999,9999,347751524
115,3,2,T1_SMS_8,86,9999,9999,9999,348551260
115,3,2,T1_SMS_8,87,9999,9999,9999,349352036
115,3,2,T1_SMS_8,88,9999,9999,9999,350151772
115,3,2,T1_SMS_8,89,9999,9999,9999,350951528
115,3,2,T1_SMS_8,90,9999,9999,9999,351751268
115,3,2,T1_SMS_8,91,9999,9999,9999,352552044
115,3,2,T1_SMS_8,92,9999,9999,9999,353351776
115,3,2,T1_SMS_8,93,9999,9999,9999,354151508
115,3,2,T1_SMS_8,94,9999,9999,9999,354951244
115,3,2,T1_SMS_8,95,9999,9999,9999,355752024
115,3,2,T1_SMS_8,96,9999,9999,9999,356551756
115,3,2,T1_SMS_8,97,9999,9999,9999,357351512
115,3,2,T1_SMS_8,98,9999,9999,9999,358151248
115,3,2,T1_SMS_8,99,9999,9999,9999,358952028
115,3,2,T1_SMS_8,100,9999,9999,9999,359751764
115,3,2,T1_SMS_8,101,9999,9999,9999,360551496
115,3,2,T1_SMS_8,102,9999,9999,9999,361351228
115,3,2,T1_SMS_8,103,9999,9999,9999,362152016
115,3,2,T1_SMS_8,104,9999,9999,9999,362951764
115,3,2,T1_SMS_8,105,9999,9999,9999,363751524
115,3,2,T1_SMS_8,106,9999,9999,9999,364551288
115,3,2,T1_SMS_8,107,9999,9999,9999,365352036
115,3,2,T1_SMS_8,108,9999,9999,9999,366151772
115,3,2,T1_SMS_8,109,9999,9999,9999,366951504
115,3,2,T1_SMS_8,110,9999,9999,9999,367751248
115,3,2,T1_SMS_8,111,9999,9999,9999,368552020
115,3,2,T1_SMS_8,112,9999,9999,9999,369351752
115,3,2,T1_SMS_8,113,9999,9999,9999,370151512
115,3,2,T1_SMS_8,114,9999,9999,9999,370951244
115,3,2,T1_SMS_8,115,9999,9999,9999,371752024
115,3,2,T1_SMS_8,116,9999,9999,9999,372551764
115,3,2,T1_SMS_8,117,9999,9999,9999,373351496
115,3,2,T1_SMS_8,118,9999,9999,9999,374151224
115,3,2,T1_SMS_8,119,9999,9999,9999,374952008
115,4,4,T1_SMS_5,0,5,42,127,448875012
115,4,4,T1_SMS_5,1,5,42,127,449374504
115,4,4,T1_SMS_5,2,5,42,127,449875416
115,4,4,T1_SMS_5,3,5,42,127,450375208
115,4,4,T1_SMS_5,4,1,48,26,450861200
115,4,4,T1_SMS_5,5,5,42,127,450874696
115,4,4,T1_SMS_5,6,1,48,21,451353640
115,4,4,T1_SMS_5,7,5,42,127,451374392
115,4,4,T1_SMS_5,8,1,48,18,451838300
115,4,4,T1_SMS_5,9,5,42,127,451875280
115,4,4,T1_SMS_5,10,1,48,25,452347788
115,4,4,T1_SMS_5,11,5,42,127,452375048
115,4,4,T1_SMS_5,12,1,48,19,452838588
115,4,4,T1_SMS_5,13,5,42,127,452874596
115,4,4,T1_SMS_5,14,5,42,127,453375272
115,4,4,T1_SMS_5,15,1,48,21,453378324
115,4,4,T1_SMS_5,16,5,42,127,453875192
115,4,4,T1_SMS_5,17,1,48,20,453896492
115,4,4,T1_SMS_5,18,5,42,127,454375036
115,4,4,T1_SMS_5,19,1,48,22,454395360
115,4,4,T1_SMS_5,20,5,42,127,454874360
115,4,4,T1_SMS_5,21,1,48,16,454889600
115,4,4,T1_SMS_5,22,5,42,127,455375176
115,4,4,T1_SMS_5,23,1,48,20,455396776
115,4,4,T1_SMS_5,24,5,42,127,455875144
115,4,4,T1_SMS_5,25,1,48,21,455876788
115,4,4,T1_SMS_5,26,1,48,21,456373936
115,4,4,T1_SMS_5,27,5,42,127,456375432
115,4,4,T1_SMS_5,28,1,48,25,456867992
115,4,4,T1_SMS_5,29,5,42,127,456875428
115,4,4,T1_SMS_5,30,1,48,22,457371800
115,4,4,T1_SMS_5,31,5,42,127,457375344
115,4,4,T1_SMS_5,32,1,48,24,457824596
115,4,4,T1_SMS_5,33,5,42,127,457875040
115,4,4,T1_SMS_5,34,1,48,20,458373388
115,4,4,T1_SMS_5,35,5,42,127,458375032
115,4,4,T1_SMS_5,36,5,42,127,458875184
115,4,4,T1_SMS_5,37,1,48,25,458901192
115,4,4,T1_SMS_5,38,5,42,127,459375252
115,4,4,T1_SMS_5,39,1,48,20,459393852
115,4,4,T1_SMS_5,40,5,42,127,459874648
115,4,4,T1_SMS_5,41,1,48,18,459921972
115,4,4,T1_SMS_5,42,1,48,17,460374636
115,4,4,T1_SMS_5,43,5,42,127,460376208
115,4,4,T1_SMS_5,44,5,42,127,460875008
115,4,4,T1_SMS_5,45,1,48,14,460884932
115,4,4,T1_SMS_5,46,1,48,18,461367640
115,4,4,T1_SMS_5,47,5,42,127,461374996
115,4,4,T1_SMS_5,48,5,42,127,461874476
115,4,4,T1_SMS_5,49,1,48,17,461907812
115,4,4,T1_SMS_5,50,1,48,21,462362988
115,4,4,T1_SMS_5,51,5,42,127,462375212
115,4,4,T1_SMS_5,52,5,42,127,462875060
115,4,4,T1_SMS_5,53,1,48,19,462876548
115,4,4,T1_SMS_5,54,1,48,20,463341588
115,4,4,T1_SMS_5,55,5,42,127,463375048
115,4,4,T1_SMS_5,56,5,42,127,463874528
115,4,4,T1_SMS_5,57,1,48,17,463907268
115,4,4,T1_SMS_5,58,5,42,127,464375044
115,4,4,T1_SMS_5,59,1,48,23,464872028
115,4,4,T1_SMS_5,60,5,42,127,464874828
115,4,4,T1_SMS_5,61,5,42,127,465374680
115,4,4,T1_SMS_5,62,1,48,20,465398000
115,4,4,T1_SMS_5,63,5,42,127,465875348
115,4,4,T1_SMS_5,64,1,48,16,465883776
115,4,4,T1_SMS_5,65,5,42,127,466374868
115,4,4,T1_SMS_5,66,1,48,19,466390652
115,4,4,T1_SMS_5,67,5,42,127,466874860
115,4,4,T1_SMS_5,68,1,48,17,466875828
115,4,4,T1_SMS_5,69,1,48,19,467371228
115,4,4,T1_SMS_5,70,5,42,127,467374552
115,4,4,T1_SMS_5,71,5,42,127,467875300
115,4,4,T1_SMS_5,72,1,48,16,467879544
115,4,4,T1_SMS_5,73,5,42,127,468374844
115,4,4,T1_SMS_5,74,1,48,22,468388064
115,4,4,T1_SMS_5,75,1,48,19,468860440
115,4,4,T1_SMS_5,76,5,42,127,468874608
115,4,4,T1_SMS_5,77,1,48,18,469356168
115,4,4,T1_SMS_5,78,5,42,127,469375276
115,4,4,T1_SMS_5,79,1,48,20,469870600
115,4,4,T1_SMS_5,80,5,42,127,469875044
115,4,4,T1_SMS_5,81,5,42,127,470374744
115,4,4,T1_SMS_5,82,1,48,15,470379064
115,4,4,T1_SMS_5,83,5,42,127,470874588
115,4,4,T1_SMS_5,84,1,48,16,470918920
115,4,4,T1_SMS_5,85,5,42,127,471375180
115,4,4,T1_SMS_5,86,1,48,15,471394684
115,4,4,T1_SMS_5,87,1,48,14,471864140
115,4,4,T1_SMS_5,88,5,42,127,471874796
115,4,4,T1_SMS_5,89,5,42,127,472374720
115,4,4,T1_SMS_5,90,1,48,26,472389736
115,4,4,T1_SMS_5,91,5,42,127,472875316
115,4,4,T1_SMS_5,92,1,48,20,472926976
115,4,4,T1_SMS_5,93,5,42,127,473375008
115,4,4,T1_SMS_5,94,1,48,19,473376800
115,4,4,T1_SMS_5,95,1,48,21,473862248
115,4,4,T1_SMS_5,96,5,42,127,473874920
115,4,4,T1_SMS_5,97,1,48,22,474350800
115,4,4,T1_SMS_5,98,5,42,127,474374616
115,4,4,T1_SMS_5,99,5,42,127,474875288
115,4,4,T1_SMS_5,100,1,48,21,474879532
115,4,4,T1_SMS_5,101,5,42,127,475374912
115,4,4,T1_SMS_5,102,1,48,23,475375876
115,4,4,T1_SMS_5,103,5,42,127,475874756
115,4,4,T1_SMS_5,104,1,48,19,475881620
115,4,4,T1_SMS_5,105,1,48,25,476368504
115,4,4,T1_SMS_5,106,5,42,127,476375420
115,4,4,T1_SMS_5,107,5,42,127,476875044
115,4,4,T1_SMS_5,108,1,48,22,476890284
115,4,4,T1_SMS_5,109,1,48,25,477363004
115,4,4,T1_SMS_5,110,5,42,127,477374856
115,4,4,T1_SMS_5,111,1,48,21,477871304
115,4,4,T1_SMS_5,112,5,42,127,477874776
115,4,4,T1_SMS_5,113,1,48,27,478358956
115,4,4,T1_SMS_5,114,5,42,127,478375144
115,4,4,T1_SMS_5,115,1,48,20,478843020
115,4,4,T1_SMS_5,116,5,42,127,478874988
115,4,4,T1_SMS_5,117,1,48,22,479372724
115,4,4,T1_SMS_5,118,5,42,127,479374608
115,4,4,T1_SMS_5,119,5,42,127,479874536
115,4,4,T1_SMS_5,120,1,48,16,479876476
115,4,4,T1_SMS_5,121,1,48,27,480343300
115,4,4,T1_SMS_5,122,5,42,127,480375044
115,4,4,T1_SMS_5,123,1,48,24,480868948
115,4,4,T1_SMS_5,124,5,42,127,480874892
115,4,4,T1_SMS_5,125,5,42,127,481374740
115,4,4,T1_SMS_5,126,1,48,27,481377716
115,4,4,T1_SMS_5,127,5,42,127,481875332
115,4,4,T1_SMS_5,128,1,48,13,481911736
115,4,4,T1_SMS_5,129,1,48,25,482360252
115,4,4,T1_SMS_5,130,5,42,127,482374948
115,4,4,T1_SMS_5,131,1,48,20,482872064
115,4,4,T1_SMS_5,132,5,42,127,482874640
115,4,4,T1_SMS_5,133,1,48,31,483357324
115,4,4,T1_SMS_5,134,5,42,127,483374636
115,4,4,T1_SMS_5,135,5,42,127,483875236
115,4,4,T1_SMS_5,136,1,48,32,484340132
115,4,4,T1_SMS_5,137,5,42,127,484374868
115,4,4,T1_SMS_5,138,5,42,127,484874572
115,4,4,T1_SMS_5,139,1,48,24,484875836
115,4,4,T1_SMS_5,140,1,48,31,485370116
115,4,4,T1_SMS_5,141,5,42,127,485375532
115,4,4,T1_SMS_5,142,5,42,127,485875084
115,4,4,T1_SMS_5,143,1,48,20,485904080
115,4,4,T1_SMS_5,144,1,48,22,486369052
115,4,4,T1_SMS_5,145,5,42,127,486374844
115,4,4,T1_SMS_5,146,5,42,127,486874472
115,4,4,T1_SMS_5,147,1,48,17,486887544
115,4,4,T1_SMS_5,148,1,48,31,487369020
115,4,4,T1_SMS_5,149,5,42,127,487375428
115,4,4,T1_SMS_5,150,1,48,13,487873908
115,4,4,T1_SMS_5,151,5,42,127,487875472
115,4,4,T1_SMS_5,152,1,48,27,488366312
115,4,4,T1_SMS_5,153,5,42,127,488374572
115,4,4,T1_SMS_5,154,1,48,27,488868548
115,4,4,T1_SMS_5,155,5,42,127,488875536
115,4,4,T1_SMS_5,156,1,48,33,489352160
115,4,4,T1_SMS_5,157,5,42,127,489375008
115,4,4,T1_SMS_5,158,5,42,127,489874784
115,4,4,T1_SMS_5,159,1,48,30,489882240
115,4,4,T1_SMS_5,160,1,48,28,490353640
115,4,4,T1_SMS_5,161,5,42,127,490374772
115,4,4,T1_SMS_5,162,1,48,27,490870244
115,4,4,T1_SMS_5,163,5,42,127,490875212
115,4,4,T1_SMS_5,164,5,42,127,491374916
115,4,4,T1_SMS_5,165,1,48,20,491381624
115,4,4,T1_SMS_5,166,1,48,32,491862680
115,4,4,T1_SMS_5,167,5,42,127,491874756
115,4,4,T1_SMS_5,168,1,48,27,492326468
115,4,4,T1_SMS_5,169,5,42,127,492375496
115,4,4,T1_SMS_5,170,1,48,22,492858556
115,4,4,T1_SMS_5,171,5,42,127,492875192
115,4,4,T1_SMS_5,172,5,42,127,493374820
115,4,4,T1_SMS_5,173,1,48,27,493377416
115,4,4,T1_SMS_5,174,5,42,127,493874664
115,4,4,T1_SMS_5,175,1,48,22,493885260
115,4,4,T1_SMS_5,176,1,48,28,494373896
115,4,4,T1_SMS_5,177,5,42,127,494375548
115,4,4,T1_SMS_5,178,1,48,19,494847388
115,4,4,T1_SMS_5,179,5,42,127,494874944
115,4,4,T1_SMS_5,180,1,48,27,495374868
115,4,4,T1_SMS_5,181,5,42,127,495376132
115,4,4,T1_SMS_5,182,1,48,25,495867420
115,4,4,T1_SMS_5,183,5,42,127,495874556
115,4,4,T1_SMS_5,184,5,42,127,496375008
115,4,4,T1_SMS_5,185,1,48,23,496382316
115,4,4,T1_SMS_5,186,1,48,26,496846536
115,4,4,T1_SMS_5,187,5,42,127,496874848
115,4,4,T1_SMS_5,188,1,48,23,497343816
115,4,4,T1_SMS_5,189,5,42,127,497374540
115,4,4,T1_SMS_5,190,1,48,31,497874532
115,4,4,T1_SMS_5,191,5,42,127,497876180
115,4,4,T1_SMS_5,192,1,48,27,498353148
115,4,4,T1_SMS_5,193,5,42,127,498374952
115,4,4,T1_SMS_5,194,5,42,127,498874700
115,4,4,T1_SMS_5,195,1,48,27,498900064
115,4,4,T1_SMS_5,196,5,42,127,499374548
115,4,4,T1_SMS_5,197,1,48,27,499394796
115,4,4,T1_SMS_5,198,1,48,25,499862380
115,4,4,T1_SMS_5,199,5,42,127,499875280
115,4,4,T1_SMS_5,200,5,42,127,500374760
115,4,4,T1_SMS_5,201,1,48,23,500377504
115,4,4,T1_SMS_5,202,1,48,19,500856608
115,4,4,T1_SMS_5,203,5,42,127,500874596
115,4,4,T1_SMS_5,204,1,48,21,501360872
115,4,4,T1_SMS_5,205,5,42,127,501375412
115,4,4,T1_SMS_5,206,1,48,23,501860040
115,4,4,T1_SMS_5,207,5,42,127,501875256
115,4,4,T1_SMS_5,208,1,48,27,502334300
115,4,4,T1_SMS_5,209,5,42,127,502374728
115,4,4,T1_SMS_5,210,5,42,127,502874428
115,4,4,T1_SMS_5,211,1,48,21,502877996
115,4,4,T1_SMS_5,212,1,48,24,503354184
115,4,4,T1_SMS_5,213,5,42,127,503375164
115,4,4,T1_SMS_5,214,1,48,30,503844456
115,4,4,T1_SMS_5,215,5,42,127,503874860
115,4,4,T1_SMS_5,216,5,42,127,504374560
115,4,4,T1_SMS_5,217,1,48,18,504380676
115,4,4,T1_SMS_5,218,5,42,127,504875376
115,4,4,T1_SMS_5,219,1,48,19,504879096
115,4,4,T1_SMS_5,220,1,48,29,505341976
115,4,4,T1_SMS_5,221,5,42,127,505375140
115,4,4,T1_SMS_5,222,5,42,127,505874768
115,4,4,T1_SMS_5,223,1,48,25,505911244
115,4,4,T1_SMS_5,224,5,42,127,506374464
115,4,4,T1_SMS_5,225,1,48,25,506397784
115,4,4,T1_SMS_5,226,1,48,24,506862524
115,4,4,T1_SMS_5,227,5,42,127,506875348
115,4,4,T1_SMS_5,228,5,42,127,507374900
115,4,4,T1_SMS_5,229,1,48,24,507386028
115,4,4,T1_SMS_5,230,1,48,26,507863860
115,4,4,T1_SMS_5,231,5,42,127,507874664
115,4,4,T1_SMS_5,232,5,42,127,508375488
115,4,4,T1_SMS_5,233,1,48,25,508382352
115,4,4,T1_SMS_5,234,1,48,25,508840040
115,4,4,T1_SMS_5,235,5,42,127,508875248
115,4,4,T1_SMS_5,236,1,48,23,509369200
115,4,4,T1_SMS_5,237,5,42,127,509374844
115,4,4,T1_SMS_5,238,1,48,21,509846380
115,4,4,T1_SMS_5,239,5,42,127,509874392
115,4,4,T1_SMS_5,240,1,48,23,510352440
115,4,4,T1_SMS_5,241,5,42,127,510375132
115,4,4,T1_SMS_5,242,1,48,25,510833576
115,4,4,T1_SMS_5,243,5,42,127,510875128
115,4,4,T1_SMS_5,244,5,42,127,511374604
115,4,4,T1_SMS_5,245,1,48,22,511383564
115,4,4,T1_SMS_5,246,1,48,24,511837536
115,4,4,T1_SMS_5,247,5,42,127,511874368
115,4,4,T1_SMS_5,248,1,48,21,512373984
115,4,4,T1_SMS_5,249,5,42,127,512375332
115,4,4,T1_SMS_5,250,5,42,127,512874812
115,4,4,T1_SMS_5,251,1,48,18,512892368
115,4,4,T1_SMS_5,252,5,42,127,513374580
115,4,4,T1_SMS_5,253,1,48,27,513406572
115,4,4,T1_SMS_5,0,9999,9999,9999,448872500
115,4,4,T1_SMS_5,1,9999,9999,9999,449372220
115,4,4,T1_SMS_5,2,9999,9999,9999,449872980
115,4,4,T1_SMS_5,3,9999,9999,9999,450372700
115,4,4,T1_SMS_5,4,9999,9999,9999,450872408
115,4,4,T1_SMS_5,5,9999,9999,9999,451372104
115,4,4,T1_SMS_5,6,9999,9999,9999,451872844
115,4,4,T1_SMS_5,7,9999,9999,9999,452372540
115,4,4,T1_SMS_5,8,9999,9999,9999,452872312
115,4,4,T1_SMS_5,9,9999,9999,9999,453372984
115,4,4,T1_SMS_5,10,9999,9999,9999,453872756
115,4,4,T1_SMS_5,11,9999,9999,9999,454372452
115,4,4,T1_SMS_5,12,9999,9999,9999,454872148
115,4,4,T1_SMS_5,13,9999,9999,9999,455372892
115,4,4,T1_SMS_5,14,9999,9999,9999,455872560
115,4,4,T1_SMS_5,15,9999,9999,9999,456372332
115,4,4,T1_SMS_5,16,9999,9999,9999,456873068
115,4,4,T1_SMS_5,17,9999,9999,9999,457372764
115,4,4,T1_SMS_5,18,9999,9999,9999,457872456
115,4,4,T1_SMS_5,19,9999,9999,9999,458372156
115,4,4,T1_SMS_5,20,9999,9999,9999,458872900
115,4,4,T1_SMS_5,21,9999,9999,9999,459372592
115,4,4,T1_SMS_5,22,9999,9999,9999,459872360
115,4,4,T1_SMS_5,23,9999,9999,9999,460373100
115,4,4,T1_SMS_5,24,9999,9999,9999,460872796
115,4,4,T1_SMS_5,25,9999,9999,9999,461372488
115,4,4,T1_SMS_5,26,9999,9999,9999,461872188
115,4,4,T1_SMS_5,27,9999,9999,9999,462372924
115,4,4,T1_SMS_5,28,9999,9999,9999,462872628
115,4,4,T1_SMS_5,29,9999,9999,9999,463372392
115,4,4,T1_SMS_5,30,9999,9999,9999,463872092
115,4,4,T1_SMS_5,31,9999,9999,9999,464372832
115,4,4,T1_SMS_5,32,9999,9999,9999,464872544
115,4,4,T1_SMS_5,33,9999,9999,9999,465372244
115,4,4,T1_SMS_5,34,9999,9999,9999,465872984
115,4,4,T1_SMS_5,35,9999,9999,9999,466372656
115,4,4,T1_SMS_5,36,9999,9999,9999,466872424
115,4,4,T1_SMS_5,37,9999,9999,9999,467372116
115,4,4,T1_SMS_5,38,9999,9999,9999,467872864
115,4,4,T1_SMS_5,39,9999,9999,9999,468372560
115,4,4,T1_SMS_5,40,9999,9999,9999,468872248
115,4,4,T1_SMS_5,41,9999,9999,9999,469372988
115,4,4,T1_SMS_5,42,9999,9999,9999,469872756
115,4,4,T1_SMS_5,43,9999,9999,9999,470372460
115,4,4,T1_SMS_5,44,9999,9999,9999,470872152
115,4,4,T1_SMS_5,45,9999,9999,9999,471372896
115,4,4,T1_SMS_5,46,9999,9999,9999,471872584
115,4,4,T1_SMS_5,47,9999,9999,9999,472372288
115,4,4,T1_SMS_5,48,9999,9999,9999,472873028
115,4,4,T1_SMS_5,49,9999,9999,9999,473372724
115,4,4,T1_SMS_5,50,9999,9999,9999,473872484
115,4,4,T1_SMS_5,51,9999,9999,9999,474372180
115,4,4,T1_SMS_5,52,9999,9999,9999,474872928
115,4,4,T1_SMS_5,53,9999,9999,9999,475372624
115,4,4,T1_SMS_5,54,9999,9999,9999,475872320
115,4,4,T1_SMS_5,55,9999,9999,9999,476373056
115,4,4,T1_SMS_5,56,9999,9999,9999,476872808
115,4,4,T1_SMS_5,57,9999,9999,9999,477372496
115,4,4,T1_SMS_5,58,9999,9999,9999,477872192
115,4,4,T1_SMS_5,59,9999,9999,9999,478372932
115,4,4,T1_SMS_5,60,9999,9999,9999,478872628
115,4,4,T1_SMS_5,61,9999,9999,9999,479372348
115,4,4,T1_SMS_5,62,9999,9999,9999,479872100
115,4,4,T1_SMS_5,63,9999,9999,9999,480372832
115,4,4,T1_SMS_5,64,9999,9999,9999,480872528
115,4,4,T1_SMS_5,65,9999,9999,9999,481372232
115,4,4,T1_SMS_5,66,9999,9999,9999,481872972
115,4,4,T1_SMS_5,67,9999,9999,9999,482372660
115,4,4,T1_SMS_5,68,9999,9999,9999,482872428
115,4,4,T1_SMS_5,69,9999,9999,9999,483372124
115,4,4,T1_SMS_5,70,9999,9999,9999,483872872
115,4,4,T1_SMS_5,71,9999,9999,9999,484372584
115,4,4,T1_SMS_5,72,9999,9999,9999,484872284
115,4,4,T1_SMS_5,73,9999,9999,9999,485373020
115,4,4,T1_SMS_5,74,9999,9999,9999,485872720
115,4,4,T1_SMS_5,75,9999,9999,9999,486372412
115,4,4,T1_SMS_5,76,9999,9999,9999,486872184
115,4,4,T1_SMS_5,77,9999,9999,9999,487372920
115,4,4,T1_SMS_5,78,9999,9999,9999,487872596
115,4,4,T1_SMS_5,79,9999,9999,9999,488372284
115,4,4,T1_SMS_5,80,9999,9999,9999,488873024
115,4,4,T1_SMS_5,81,9999,9999,9999,489372720
115,4,4,T1_SMS_5,82,9999,9999,9999,489872496
115,4,4,T1_SMS_5,83,9999,9999,9999,490372188
115,4,4,T1_SMS_5,84,9999,9999,9999,490872928
115,4,4,T1_SMS_5,85,9999,9999,9999,491372628
115,4,4,T1_SMS_5,86,9999,9999,9999,491872320
115,4,4,T1_SMS_5,87,9999,9999,9999,492373060
115,4,4,T1_SMS_5,88,9999,9999,9999,492872756
115,4,4,T1_SMS_5,89,9999,9999,9999,493372532
115,4,4,T1_SMS_5,90,9999,9999,9999,493872228
115,4,4,T1_SMS_5,91,9999,9999,9999,494372968
115,4,4,T1_SMS_5,92,9999,9999,9999,494872656
115,4,4,T1_SMS_5,93,9999,9999,9999,495372360
115,4,4,T1_SMS_5,94,9999,9999,9999,495872048
115,4,4,T1_SMS_5,95,9999,9999,9999,496372796
115,4,4,T1_SMS_5,96,9999,9999,9999,496872560
115,4,4,T1_SMS_5,97,9999,9999,9999,497372256
115,4,4,T1_SMS_5,98,9999,9999,9999,497873000
115,4,4,T1_SMS_5,99,9999,9999,9999,498372664
115,4,4,T1_SMS_5,100,9999,9999,9999,498872416
115,4,4,T1_SMS_5,101,9999,9999,9999,499372112
115,4,4,T1_SMS_5,102,9999,9999,9999,499872848
115,4,4,T1_SMS_5,103,9999,9999,9999,500372548
115,4,4,T1_SMS_5,104,9999,9999,9999,500872308
115,4,4,T1_SMS_5,105,9999,9999,9999,501372976
115,4,4,T1_SMS_5,106,9999,9999,9999,501872744
115,4,4,T1_SMS_5,107,9999,9999,9999,502372440
115,4,4,T1_SMS_5,108,9999,9999,9999,502872140
115,4,4,T1_SMS_5,109,9999,9999,9999,503372876
115,4,4,T1_SMS_5,110,9999,9999,9999,503872576
115,4,4,T1_SMS_5,111,9999,9999,9999,504372276
115,4,4,T1_SMS_5,112,9999,9999,9999,504873016
115,4,4,T1_SMS_5,113,9999,9999,9999,505372780
115,4,4,T1_SMS_5,114,9999,9999,9999,505872480
115,4,4,T1_SMS_5,115,9999,9999,9999,506372176
115,4,4,T1_SMS_5,116,9999,9999,9999,506872912
115,4,4,T1_SMS_5,117,9999,9999,9999,507372616
115,4,4,T1_SMS_5,118,9999,9999,9999,507872304
115,4,4,T1_SMS_5,119,9999,9999,9999,508373052
115,4,4,T1_SMS_5,120,9999,9999,9999,508872816
115,4,4,T1_SMS_5,121,9999,9999,9999,509372484
115,4,4,T1_SMS_5,122,9999,9999,9999,509872180
115,4,4,T1_SMS_5,123,9999,9999,9999,510372920
115,4,4,T1_SMS_5,124,9999,9999,9999,510872692
115,4,4,T1_SMS_5,125,9999,9999,9999,511372392
115,4,4,T1_SMS_5,126,9999,9999,9999,511872084
115,4,4,T1_SMS_5,127,9999,9999,9999,512372832
115,4,4,T1_SMS_5,128,9999,9999,9999,512872524
115,4,4,T1_SMS_5,129,9999,9999,9999,513372220
115,5,9,Ticks_ISO_T2_8,0,5,42,127,524089564
115,5,9,Ticks_ISO_T2_8,1,5,42,127,524889468
115,5,9,Ticks_ISO_T2_8,2,5,42,127,525690196
115,5,9,Ticks_ISO_T2_8,3,5,42,127,526490024
115,5,9,Ticks_ISO_T2_8,4,1,48,14,526534580
115,5,9,Ticks_ISO_T2_8,5,5,42,127,527289684
115,5,9,Ticks_ISO_T2_8,6,1,48,28,527339576
115,5,9,Ticks_ISO_T2_8,7,5,42,127,528089444
115,5,9,Ticks_ISO_T2_8,8,1,48,19,528108268
115,5,9,Ticks_ISO_T2_8,9,1,48,18,528883224
115,5,9,Ticks_ISO_T2_8,10,5,42,127,528890140
115,5,9,Ticks_ISO_T2_8,11,1,48,22,529660296
115,5,9,Ticks_ISO_T2_8,12,5,42,127,529690096
115,5,9,Ticks_ISO_T2_8,13,1,48,24,530459356
115,5,9,Ticks_ISO_T2_8,14,5,42,127,530489832
115,5,9,Ticks_ISO_T2_8,15,1,48,16,531289868
115,5,9,Ticks_ISO_T2_8,16,5,42,127,531291056
115,5,9,Ticks_ISO_T2_8,17,1,48,16,532067352
115,5,9,Ticks_ISO_T2_8,18,5,42,127,532090196
115,5,9,Ticks_ISO_T2_8,19,5,42,127,532890084
115,5,9,Ticks_ISO_T2_8,20,1,48,16,532928208
115,5,9,Ticks_ISO_T2_8,21,5,42,127,533689816
115,5,9,Ticks_ISO_T2_8,22,1,48,19,533721680
115,5,9,Ticks_ISO_T2_8,23,1,48,18,534469916
115,5,9,Ticks_ISO_T2_8,24,5,42,127,534489344
115,5,9,Ticks_ISO_T2_8,25,5,42,127,535290204
115,5,9,Ticks_ISO_T2_8,26,1,48,21,536070920
115,5,9,Ticks_ISO_T2_8,27,5,42,127,536090104
115,5,9,Ticks_ISO_T2_8,28,1,48,20,536848664
115,5,9,Ticks_ISO_T2_8,29,5,42,127,536889984
115,5,9,Ticks_ISO_T2_8,30,5,42,127,537689428
115,5,9,Ticks_ISO_T2_8,31,1,48,22,537690616
115,5,9,Ticks_ISO_T2_8,32,1,48,24,538474084
115,5,9,Ticks_ISO_T2_8,33,5,42,127,538490276
115,5,9,Ticks_ISO_T2_8,34,5,42,127,539289940
115,5,9,Ticks_ISO_T2_8,35,1,48,18,539298824
115,5,9,Ticks_ISO_T2_8,36,1,48,21,540070040
115,5,9,Ticks_ISO_T2_8,37,5,42,127,540089964
115,5,9,Ticks_ISO_T2_8,38,5,42,127,540889432
115,5,9,Ticks_ISO_T2_8,39,1,48,18,540914240
115,5,9,Ticks_ISO_T2_8,40,5,42,127,541690288
115,5,9,Ticks_ISO_T2_8,41,1,48,19,541718016
115,5,9,Ticks_ISO_T2_8,42,5,42,127,542489872
115,5,9,Ticks_ISO_T2_8,43,1,48,17,542513708
115,5,9,Ticks_ISO_T2_8,44,5,42,127,543289976
115,5,9,Ticks_ISO_T2_8,45,1,48,23,544023796
115,5,9,Ticks_ISO_T2_8,46,5,42,127,544089724
115,5,9,Ticks_ISO_T2_8,47,1,48,19,544856292
115,5,9,Ticks_ISO_T2_8,48,5,42,127,544890132
115,5,9,Ticks_ISO_T2_8,49,1,48,16,545675992
115,5,9,Ticks_ISO_T2_8,50,5,42,127,545689868
115,5,9,Ticks_ISO_T2_8,51,1,48,18,546454936
115,5,9,Ticks_ISO_T2_8,52,5,42,127,546489900
115,5,9,Ticks_ISO_T2_8,53,1,48,22,547265212
115,5,9,Ticks_ISO_T2_8,54,5,42,127,547289436
115,5,9,Ticks_ISO_T2_8,55,1,48,20,548051216
115,5,9,Ticks_ISO_T2_8,56,5,42,127,548090292
115,5,9,Ticks_ISO_T2_8,57,1,48,17,548847208
115,5,9,Ticks_ISO_T2_8,58,5,42,127,548889876
115,5,9,Ticks_ISO_T2_8,59,1,48,21,549673268
115,5,9,Ticks_ISO_T2_8,60,5,42,127,549689608
115,5,9,Ticks_ISO_T2_8,61,5,42,127,550489648
115,5,9,Ticks_ISO_T2_8,62,1,48,17,550500168
115,5,9,Ticks_ISO_T2_8,63,1,48,16,551274448
115,5,9,Ticks_ISO_T2_8,64,5,42,127,551290416
115,5,9,Ticks_ISO_T2_8,65,1,48,18,552043968
115,5,9,Ticks_ISO_T2_8,66,5,42,127,552089856
115,5,9,Ticks_ISO_T2_8,67,5,42,127,552889672
115,5,9,Ticks_ISO_T2_8,68,1,48,25,552901312
115,5,9,Ticks_ISO_T2_8,69,5,42,127,553689428
115,5,9,Ticks_ISO_T2_8,70,1,48,24,553710568
115,5,9,Ticks_ISO_T2_8,71,5,42,127,554490284
115,5,9,Ticks_ISO_T2_8,72,1,48,26,554506188
115,5,9,Ticks_ISO_T2_8,73,5,42,127,555290088
115,5,9,Ticks_ISO_T2_8,74,1,48,25,555295300
115,5,9,Ticks_ISO_T2_8,75,5,42,127,556089824
115,5,9,Ticks_ISO_T2_8,76,1,48,24,556092500
115,5,9,Ticks_ISO_T2_8,77,1,48,28,556875980
115,5,9,Ticks_ISO_T2_8,78,5,42,127,556889552
115,5,9,Ticks_ISO_T2_8,79,5,42,127,557690416
115,5,9,Ticks_ISO_T2_8,80,1,48,22,557713656
115,5,9,Ticks_ISO_T2_8,81,5,42,127,558489924
115,5,9,Ticks_ISO_T2_8,82,1,48,22,558510176
115,5,9,Ticks_ISO_T2_8,83,5,42,127,559289804
115,5,9,Ticks_ISO_T2_8,84,1,48,15,559314120
115,5,9,Ticks_ISO_T2_8,85,5,42,127,560089416
115,5,9,Ticks_ISO_T2_8,86,1,48,22,560094480
115,5,9,Ticks_ISO_T2_8,87,5,42,127,560890124
115,5,9,Ticks_ISO_T2_8,88,1,48,25,560925400
115,5,9,Ticks_ISO_T2_8,89,1,48,23,561677328
115,5,9,Ticks_ISO_T2_8,90,5,42,127,561689924
115,5,9,Ticks_ISO_T2_8,91,5,42,127,562489740
115,5,9,Ticks_ISO_T2_8,92,1,48,23,562509760
115,5,9,Ticks_ISO_T2_8,93,1,48,28,563261084
115,5,9,Ticks_ISO_T2_8,94,5,42,127,563289540
115,5,9,Ticks_ISO_T2_8,95,1,48,25,564078624
115,5,9,Ticks_ISO_T2_8,96,5,42,127,564090172
115,5,9,Ticks_ISO_T2_8,97,1,48,20,564847764
115,5,9,Ticks_ISO_T2_8,98,5,42,127,564889908
115,5,9,Ticks_ISO_T2_8,99,1,48,23,565683920
115,5,9,Ticks_ISO_T2_8,100,5,42,127,565689716
115,5,9,Ticks_ISO_T2_8,101,1,48,24,566470668
115,5,9,Ticks_ISO_T2_8,102,5,42,127,566489476
115,5,9,Ticks_ISO_T2_8,103,1,48,21,567271368
115,5,9,Ticks_ISO_T2_8,104,5,42,127,567290404
115,5,9,Ticks_ISO_T2_8,105,1,48,24,568059964
115,5,9,Ticks_ISO_T2_8,106,5,42,127,568089840
115,5,9,Ticks_ISO_T2_8,107,1,48,26,568866644
115,5,9,Ticks_ISO_T2_8,108,5,42,127,568889796
115,5,9,Ticks_ISO_T2_8,109,1,48,27,569642672
115,5,9,Ticks_ISO_T2_8,110,5,42,127,569689532
115,5,9,Ticks_ISO_T2_8,111,5,42,127,570490320
115,5,9,Ticks_ISO_T2_8,112,1,48,27,570529488
115,5,9,Ticks_ISO_T2_8,113,1,48,24,571276244
115,5,9,Ticks_ISO_T2_8,114,5,42,127,571289896
115,5,9,Ticks_ISO_T2_8,115,1,48,24,572077028
115,5,9,Ticks_ISO_T2_8,116,5,42,127,572089852
115,5,9,Ticks_ISO_T2_8,117,1,48,14,572879036
115,5,9,Ticks_ISO_T2_8,118,5,42,127,572889536
115,5,9,Ticks_ISO_T2_8,119,1,48,28,573670088
115,5,9,Ticks_ISO_T2_8,120,5,42,127,573690240
115,5,9,Ticks_ISO_T2_8,121,1,48,24,574463016
115,5,9,Ticks_ISO_T2_8,122,5,42,127,574489824
115,5,9,Ticks_ISO_T2_8,123,1,48,19,575284588
115,5,9,Ticks_ISO_T2_8,124,5,42,127,575289708
115,5,9,Ticks_ISO_T2_8,125,5,42,127,576089596
115,5,9,Ticks_ISO_T2_8,126,1,48,17,576097200
115,5,9,Ticks_ISO_T2_8,127,1,48,29,576838572
115,5,9,Ticks_ISO_T2_8,128,5,42,127,576890368
115,5,9,Ticks_ISO_T2_8,129,1,48,32,577610860
115,5,9,Ticks_ISO_T2_8,130,5,42,127,577689952
115,5,9,Ticks_ISO_T2_8,131,5,42,127,578489768
115,5,9,Ticks_ISO_T2_8,132,1,48,30,578502556
115,5,9,Ticks_ISO_T2_8,133,1,48,22,579283276
115,5,9,Ticks_ISO_T2_8,134,5,42,127,579289520
115,5,9,Ticks_ISO_T2_8,135,1,48,16,580076952
115,5,9,Ticks_ISO_T2_8,136,5,42,127,580090152
115,5,9,Ticks_ISO_T2_8,137,1,48,20,580884616
115,5,9,Ticks_ISO_T2_8,138,5,42,127,580889960
115,5,9,Ticks_ISO_T2_8,139,1,48,23,581644028
115,5,9,Ticks_ISO_T2_8,140,5,42,127,581689620
115,5,9,Ticks_ISO_T2_8,141,1,48,20,582455204
115,5,9,Ticks_ISO_T2_8,142,5,42,127,582489576
115,5,9,Ticks_ISO_T2_8,143,1,48,26,583248880
115,5,9,Ticks_ISO_T2_8,144,5,42,127,583290204
115,5,9,Ticks_ISO_T2_8,145,1,48,24,584065448
115,5,9,Ticks_ISO_T2_8,146,5,42,127,584090088
115,5,9,Ticks_ISO_T2_8,147,1,48,23,584851792
115,5,9,Ticks_ISO_T2_8,148,5,42,127,584889748
115,5,9,Ticks_ISO_T2_8,149,1,48,21,585594008
115,5,9,Ticks_ISO_T2_8,150,5,42,127,585689492
115,5,9,Ticks_ISO_T2_8,151,5,42,127,586490292
115,5,9,Ticks_ISO_T2_8,152,5,42,127,587290048
115,5,9,Ticks_ISO_T2_8,153,1,48,21,587303636
115,5,9,Ticks_ISO_T2_8,154,5,42,127,588089560
115,5,9,Ticks_ISO_T2_8,155,1,48,21,588095968
115,5,9,Ticks_ISO_T2_8,156,5,42,127,588889368
115,5,9,Ticks_ISO_T2_8,157,1,48,32,588898696
115,5,9,Ticks_ISO_T2_8,158,1,48,19,589620624
115,5,9,Ticks_ISO_T2_8,159,5,42,127,589690292
115,5,9,Ticks_ISO_T2_8,160,1,48,26,590442344
115,5,9,Ticks_ISO_T2_8,161,5,42,127,590489952
115,5,9,Ticks_ISO_T2_8,162,1,48,29,591242076
115,5,9,Ticks_ISO_T2_8,163,5,42,127,591289608
115,5,9,Ticks_ISO_T2_8,164,1,48,26,592041288
115,5,9,Ticks_ISO_T2_8,165,5,42,127,592089444
115,5,9,Ticks_ISO_T2_8,166,5,42,127,592890156
115,5,9,Ticks_ISO_T2_8,167,1,48,25,592894320
115,5,9,Ticks_ISO_T2_8,168,5,42,127,593690112
115,5,9,Ticks_ISO_T2_8,169,1,48,28,593716796
115,5,9,Ticks_ISO_T2_8,170,1,48,30,594468640
115,5,9,Ticks_ISO_T2_8,171,5,42,127,594489768
115,5,9,Ticks_ISO_T2_8,172,1,48,30,595253184
115,5,9,Ticks_ISO_T2_8,173,5,42,127,595289572
115,5,9,Ticks_ISO_T2_8,174,1,48,23,596056664
115,5,9,Ticks_ISO_T2_8,175,5,42,127,596090280
115,5,9,Ticks_ISO_T2_8,176,5,42,127,596890168
115,5,9,Ticks_ISO_T2_8,177,1,48,31,596916252
115,5,9,Ticks_ISO_T2_8,178,1,48,32,597655452
115,5,9,Ticks_ISO_T2_8,179,5,42,127,597689672
115,5,9,Ticks_ISO_T2_8,180,5,42,127,598489588
115,5,9,Ticks_ISO_T2_8,181,1,48,31,598494576
115,5,9,Ticks_ISO_T2_8,182,5,42,127,599290068
115,5,9,Ticks_ISO_T2_8,183,1,48,35,599328944
115,5,9,Ticks_ISO_T2_8,184,5,42,127,600090100
115,5,9,Ticks_ISO_T2_8,185,1,48,29,600129724
115,5,9,Ticks_ISO_T2_8,186,5,42,127,600890132
115,5,9,Ticks_ISO_T2_8,187,1,48,28,600919212
115,5,9,Ticks_ISO_T2_8,188,1,48,18,601654524
115,5,9,Ticks_ISO_T2_8,189,5,42,127,601689412
115,5,9,Ticks_ISO_T2_8,190,1,48,24,602478720
115,5,9,Ticks_ISO_T2_8,191,5,42,127,602490120
115,5,9,Ticks_ISO_T2_8,192,1,48,21,603266108
115,5,9,Ticks_ISO_T2_8,193,5,42,127,603289924
115,5,9,Ticks_ISO_T2_8,194,1,48,19,604070252
115,5,9,Ticks_ISO_T2_8,195,5,42,127,604090032
115,5,9,Ticks_ISO_T2_8,196,5,42,127,604889424
115,5,9,Ticks_ISO_T2_8,197,1,48,21,604912816
115,5,9,Ticks_ISO_T2_8,198,1,48,29,605637428
115,5,9,Ticks_ISO_T2_8,199,5,42,127,605690196
115,5,9,Ticks_ISO_T2_8,200,1,48,30,606484660
115,5,9,Ticks_ISO_T2_8,201,5,42,127,606489932
115,5,9,Ticks_ISO_T2_8,202,5,42,127,607289892
115,5,9,Ticks_ISO_T2_8,203,1,48,33,607295104
115,5,9,Ticks_ISO_T2_8,204,1,48,32,608044928
115,5,9,Ticks_ISO_T2_8,205,5,42,127,608089324
115,5,9,Ticks_ISO_T2_8,206,1,48,28,608872864
115,5,9,Ticks_ISO_T2_8,207,5,42,127,608890104
115,5,9,Ticks_ISO_T2_8,208,5,42,127,609689844
115,5,9,Ticks_ISO_T2_8,209,1,48,19,609710836
115,5,9,Ticks_ISO_T2_8,210,5,42,127,610489652
115,5,9,Ticks_ISO_T2_8,211,1,48,32,611237084
115,5,9,Ticks_ISO_T2_8,212,5,42,127,611289424
115,5,9,Ticks_ISO_T2_8,213,1,48,38,612047460
115,5,9,Ticks_ISO_T2_8,214,5,42,127,612090204
115,5,9,Ticks_ISO_T2_8,215,1,48,35,612860880
115,5,9,Ticks_ISO_T2_8,216,5,42,127,612889864
115,5,9,Ticks_ISO_T2_8,217,1,48,31,613662336
115,5,9,Ticks_ISO_T2_8,218,5,42,127,613689748
115,5,9,Ticks_ISO_T2_8,219,1,48,20,614450480
115,5,9,Ticks_ISO_T2_8,220,5,42,127,614489556
115,5,9,Ticks_ISO_T2_8,221,1,48,29,615260156
115,5,9,Ticks_ISO_T2_8,222,5,42,127,615290184
115,5,9,Ticks_ISO_T2_8,223,1,48,28,616051888
115,5,9,Ticks_ISO_T2_8,224,5,42,127,616089844
115,5,9,Ticks_ISO_T2_8,225,1,48,32,616835612
115,5,9,Ticks_ISO_T2_8,226,5,42,127,616889728
115,5,9,Ticks_ISO_T2_8,227,1,48,21,617682344
115,5,9,Ticks_ISO_T2_8,228,5,42,127,617689412
115,5,9,Ticks_ISO_T2_8,229,1,48,23,618488004
115,5,9,Ticks_ISO_T2_8,230,5,42,127,618490116
115,5,9,Ticks_ISO_T2_8,231,1,48,22,619261992
115,5,9,Ticks_ISO_T2_8,232,5,42,127,619289848
115,5,9,Ticks_ISO_T2_8,0,9999,9999,9999,524087352
115,5,9,Ticks_ISO_T2_8,1,9999,9999,9999,524887108
115,5,9,Ticks_ISO_T2_8,2,9999,9999,9999,525687908
115,5,9,Ticks_ISO_T2_8,3,9999,9999,9999,526487664
115,5,9,Ticks_ISO_T2_8,4,9999,9999,9999,527287396
115,5,9,Ticks_ISO_T2_8,5,9999,9999,9999,528087152
115,5,9,Ticks_ISO_T2_8,6,9999,9999,9999,528887856
115,5,9,Ticks_ISO_T2_8,7,9999,9999,9999,529687660
115,5,9,Ticks_ISO_T2_8,8,9999,9999,9999,530487396
115,5,9,Ticks_ISO_T2_8,9,9999,9999,9999,531287132
115,5,9,Ticks_ISO_T2_8,10,9999,9999,9999,532087908
115,5,9,Ticks_ISO_T2_8,11,9999,9999,9999,532887648
115,5,9,Ticks_ISO_T2_8,12,9999,9999,9999,533687380
115,5,9,Ticks_ISO_T2_8,13,9999,9999,9999,534487132
115,5,9,Ticks_ISO_T2_8,14,9999,9999,9999,535287916
115,5,9,Ticks_ISO_T2_8,15,9999,9999,9999,536087668
115,5,9,Ticks_ISO_T2_8,16,9999,9999,9999,536887400
115,5,9,Ticks_ISO_T2_8,17,9999,9999,9999,537687140
115,5,9,Ticks_ISO_T2_8,18,9999,9999,9999,538487916
115,5,9,Ticks_ISO_T2_8,19,9999,9999,9999,539287652
115,5,9,Ticks_ISO_T2_8,20,9999,9999,9999,540087380
115,5,9,Ticks_ISO_T2_8,21,9999,9999,9999,540887144
115,5,9,Ticks_ISO_T2_8,22,9999,9999,9999,541687924
115,5,9,Ticks_ISO_T2_8,23,9999,9999,9999,542487656
115,5,9,Ticks_ISO_T2_8,24,9999,9999,9999,543287388
115,5,9,Ticks_ISO_T2_8,25,9999,9999,9999,544087140
115,5,9,Ticks_ISO_T2_8,26,9999,9999,9999,544887920
115,5,9,Ticks_ISO_T2_8,27,9999,9999,9999,545687652
115,5,9,Ticks_ISO_T2_8,28,9999,9999,9999,546487388
115,5,9,Ticks_ISO_T2_8,29,9999,9999,9999,547287148
115,5,9,Ticks_ISO_T2_8,30,9999,9999,9999,548087856
115,5,9,Ticks_ISO_T2_8,31,9999,9999,9999,548887664
115,5,9,Ticks_ISO_T2_8,32,9999,9999,9999,549687396
115,5,9,Ticks_ISO_T2_8,33,9999,9999,9999,550487136
115,5,9,Ticks_ISO_T2_8,34,9999,9999,9999,551287908
115,5,9,Ticks_ISO_T2_8,35,9999,9999,9999,552087640
115,5,9,Ticks_ISO_T2_8,36,9999,9999,9999,552887384
115,5,9,Ticks_ISO_T2_8,37,9999,9999,9999,553687140
115,5,9,Ticks_ISO_T2_8,38,9999,9999,9999,554487920
115,5,9,Ticks_ISO_T2_8,39,9999,9999,9999,555287652
115,5,9,Ticks_ISO_T2_8,40,9999,9999,9999,556087388
115,5,9,Ticks_ISO_T2_8,41,9999,9999,9999,556887116
115,5,9,Ticks_ISO_T2_8,42,9999,9999,9999,557687904
115,5,9,Ticks_ISO_T2_8,43,9999,9999,9999,558487636
115,5,9,Ticks_ISO_T2_8,44,9999,9999,9999,559287368
115,5,9,Ticks_ISO_T2_8,45,9999,9999,9999,560087128
115,5,9,Ticks_ISO_T2_8,46,9999,9999,9999,560887908
115,5,9,Ticks_ISO_T2_8,47,9999,9999,9999,561687636
115,5,9,Ticks_ISO_T2_8,48,9999,9999,9999,562487376
115,5,9,Ticks_ISO_T2_8,49,9999,9999,9999,563287104
115,5,9,Ticks_ISO_T2_8,50,9999,9999,9999,564087884
115,5,9,Ticks_ISO_T2_8,51,9999,9999,9999,564887620
115,5,9,Ticks_ISO_T2_8,52,9999,9999,9999,565687356
115,5,9,Ticks_ISO_T2_8,53,9999,9999,9999,566487112
115,5,9,Ticks_ISO_T2_8,54,9999,9999,9999,567287892
115,5,9,Ticks_ISO_T2_8,55,9999,9999,9999,568087628
115,5,9,Ticks_ISO_T2_8,56,9999,9999,9999,568887360
115,5,9,Ticks_ISO_T2_8,57,9999,9999,9999,569687092
115,5,9,Ticks_ISO_T2_8,58,9999,9999,9999,570487880
115,5,9,Ticks_ISO_T2_8,59,9999,9999,9999,571287608
115,5,9,Ticks_ISO_T2_8,60,9999,9999,9999,572087416
115,5,9,Ticks_ISO_T2_8,61,9999,9999,9999,572887100
115,5,9,Ticks_ISO_T2_8,62,9999,9999,9999,573687880
115,5,9,Ticks_ISO_T2_8,63,9999,9999,9999,574487612
115,5,9,Ticks_ISO_T2_8,64,9999,9999,9999,575287344
115,5,9,Ticks_ISO_T2_8,65,9999,9999,9999,576087160
115,5,9,Ticks_ISO_T2_8,66,9999,9999,9999,576887860
115,5,9,Ticks_ISO_T2_8,67,9999,9999,9999,577687664
115,5,9,Ticks_ISO_T2_8,68,9999,9999,9999,578487408
115,5,9,Ticks_ISO_T2_8,69,9999,9999,9999,579287156
115,5,9,Ticks_ISO_T2_8,70,9999,9999,9999,580087864
115,5,9,Ticks_ISO_T2_8,71,9999,9999,9999,580887596
115,5,9,Ticks_ISO_T2_8,72,9999,9999,9999,581687404
115,5,9,Ticks_ISO_T2_8,73,9999,9999,9999,582487140
115,5,9,Ticks_ISO_T2_8,74,9999,9999,9999,583287916
115,5,9,Ticks_ISO_T2_8,75,9999,9999,9999,584087652
115,5,9,Ticks_ISO_T2_8,76,9999,9999,9999,584887388
115,5,9,Ticks_ISO_T2_8,77,9999,9999,9999,585687128
115,5,9,Ticks_ISO_T2_8,78,9999,9999,9999,586487856
115,5,9,Ticks_ISO_T2_8,79,9999,9999,9999,587287612
115,5,9,Ticks_ISO_T2_8,80,9999,9999,9999,588087348
115,5,9,Ticks_ISO_T2_8,81,9999,9999,9999,588887156
115,5,9,Ticks_ISO_T2_8,82,9999,9999,9999,589687856
115,5,9,Ticks_ISO_T2_8,83,9999,9999,9999,590487664
115,5,9,Ticks_ISO_T2_8,84,9999,9999,9999,591287396
115,5,9,Ticks_ISO_T2_8,85,9999,9999,9999,592087156
115,5,9,Ticks_ISO_T2_8,86,9999,9999,9999,592887868
115,5,9,Ticks_ISO_T2_8,87,9999,9999,9999,593687600
115,5,9,Ticks_ISO_T2_8,88,9999,9999,9999,594487404
115,5,9,Ticks_ISO_T2_8,89,9999,9999,9999,595287136
115,5,9,Ticks_ISO_T2_8,90,9999,9999,9999,596087916
115,5,9,Ticks_ISO_T2_8,91,9999,9999,9999,596887660
115,5,9,Ticks_ISO_T2_8,92,9999,9999,9999,597687384
115,5,9,Ticks_ISO_T2_8,93,9999,9999,9999,598487148
115,5,9,Ticks_ISO_T2_8,94,9999,9999,9999,599287856
115,5,9,Ticks_ISO_T2_8,95,9999,9999,9999,600087664
115,5,9,Ticks_ISO_T2_8,96,9999,9999,9999,600887396
115,5,9,Ticks_ISO_T2_8,97,9999,9999,9999,601687124
115,5,9,Ticks_ISO_T2_8,98,9999,9999,9999,602487904
115,5,9,Ticks_ISO_T2_8,99,9999,9999,9999,603287636
115,5,9,Ticks_ISO_T2_8,100,9999,9999,9999,604087372
115,5,9,Ticks_ISO_T2_8,101,9999,9999,9999,604887136
115,5,9,Ticks_ISO_T2_8,102,9999,9999,9999,605687908
115,5,9,Ticks_ISO_T2_8,103,9999,9999,9999,606487644
115,5,9,Ticks_ISO_T2_8,104,9999,9999,9999,607287380
115,5,9,Ticks_ISO_T2_8,105,9999,9999,9999,608087112
115,5,9,Ticks_ISO_T2_8,106,9999,9999,9999,608887892
115,5,9,Ticks_ISO_T2_8,107,9999,9999,9999,609687628
115,5,9,Ticks_ISO_T2_8,108,9999,9999,9999,610487364
115,5,9,Ticks_ISO_T2_8,109,9999,9999,9999,611287136
115,5,9,Ticks_ISO_T2_8,110,9999,9999,9999,612087916
115,5,9,Ticks_ISO_T2_8,111,9999,9999,9999,612887652
115,5,9,Ticks_ISO_T2_8,112,9999,9999,9999,613687384
115,5,9,Ticks_ISO_T2_8,113,9999,9999,9999,614487120
115,5,9,Ticks_ISO_T2_8,114,9999,9999,9999,615287896
115,5,9,Ticks_ISO_T2_8,115,9999,9999,9999,616087632
115,5,9,Ticks_ISO_T2_8,116,9999,9999,9999,616887364
115,5,9,Ticks_ISO_T2_8,117,9999,9999,9999,617687124
115,5,9,Ticks_ISO_T2_8,118,9999,9999,9999,618487868
115,5,9,Ticks_ISO_T2_8,119,9999,9999,9999,619287636
115,6,10,Ticks_ISO_T2_5,0,5,42,127,629304648
115,6,10,Ticks_ISO_T2_5,1,5,42,127,629805560
115,6,10,Ticks_ISO_T2_5,2,5,42,127,630305124
115,6,10,Ticks_ISO_T2_5,3,1,48,39,630332484
115,6,10,Ticks_ISO_T2_5,4,5,42,127,630804824
115,6,10,Ticks_ISO_T2_5,5,1,48,40,630822896
115,6,10,Ticks_ISO_T2_5,6,5,42,127,631304664
115,6,10,Ticks_ISO_T2_5,7,1,48,32,631343240
115,6,10,Ticks_ISO_T2_5,8,5,42,127,631805480
115,6,10,Ticks_ISO_T2_5,9,1,48,39,631822740
115,6,10,Ticks_ISO_T2_5,10,5,42,127,632304952
115,6,10,Ticks_ISO_T2_5,11,1,48,33,632338816
115,6,10,Ticks_ISO_T2_5,12,5,42,127,632804648
115,6,10,Ticks_ISO_T2_5,13,1,48,33,632814568
115,6,10,Ticks_ISO_T2_5,14,5,42,127,633304416
115,6,10,Ticks_ISO_T2_5,15,1,48,35,633327432
115,6,10,Ticks_ISO_T2_5,16,5,42,127,633805232
115,6,10,Ticks_ISO_T2_5,17,1,48,28,633819796
115,6,10,Ticks_ISO_T2_5,18,5,42,127,634304900
115,6,10,Ticks_ISO_T2_5,19,1,48,29,634333172
115,6,10,Ticks_ISO_T2_5,20,1,48,32,634799844
115,6,10,Ticks_ISO_T2_5,21,5,42,127,634804664
115,6,10,Ticks_ISO_T2_5,22,5,42,127,635305412
115,6,10,Ticks_ISO_T2_5,23,1,48,33,635329104
115,6,10,Ticks_ISO_T2_5,24,5,42,127,635805180
115,6,10,Ticks_ISO_T2_5,25,1,48,30,635817428
115,6,10,Ticks_ISO_T2_5,26,5,42,127,636304728
115,6,10,Ticks_ISO_T2_5,27,1,48,38,636308896
115,6,10,Ticks_ISO_T2_5,28,1,48,30,636799000
115,6,10,Ticks_ISO_T2_5,29,5,42,127,636804416
115,6,10,Ticks_ISO_T2_5,30,5,42,127,637305312
115,6,10,Ticks_ISO_T2_5,31,1,48,36,637307916
115,6,10,Ticks_ISO_T2_5,32,5,42,127,637804936
115,6,10,Ticks_ISO_T2_5,33,1,48,33,637815456
115,6,10,Ticks_ISO_T2_5,34,5,42,127,638304628
115,6,10,Ticks_ISO_T2_5,35,1,48,36,638319564
115,6,10,Ticks_ISO_T2_5,36,1,48,37,638804392
115,6,10,Ticks_ISO_T2_5,37,5,42,127,638805808
115,6,10,Ticks_ISO_T2_5,38,5,42,127,639305288
115,6,10,Ticks_ISO_T2_5,39,1,48,28,639321500
115,6,10,Ticks_ISO_T2_5,40,1,48,33,639802640
115,6,10,Ticks_ISO_T2_5,41,5,42,127,639804756
115,6,10,Ticks_ISO_T2_5,42,5,42,127,640304456
115,6,10,Ticks_ISO_T2_5,43,1,48,31,640322836
115,6,10,Ticks_ISO_T2_5,44,1,48,27,640788252
115,6,10,Ticks_ISO_T2_5,45,5,42,127,640805336
115,6,10,Ticks_ISO_T2_5,46,5,42,127,641304968
115,6,10,Ticks_ISO_T2_5,47,1,48,31,641310784
115,6,10,Ticks_ISO_T2_5,48,1,48,33,641803456
115,6,10,Ticks_ISO_T2_5,49,5,42,127,641804880
115,6,10,Ticks_ISO_T2_5,50,5,42,127,642305480
115,6,10,Ticks_ISO_T2_5,51,1,48,28,642330816
115,6,10,Ticks_ISO_T2_5,52,5,42,127,642805248
115,6,10,Ticks_ISO_T2_5,53,1,48,31,642823184
115,6,10,Ticks_ISO_T2_5,54,5,42,127,643304796
115,6,10,Ticks_ISO_T2_5,55,1,48,36,643329532
115,6,10,Ticks_ISO_T2_5,56,5,42,127,643804488
115,6,10,Ticks_ISO_T2_5,57,1,48,35,643834312
115,6,10,Ticks_ISO_T2_5,58,5,42,127,644305528
115,6,10,Ticks_ISO_T2_5,59,1,48,29,644324436
115,6,10,Ticks_ISO_T2_5,60,1,48,31,644804776
115,6,10,Ticks_ISO_T2_5,61,5,42,127,644806260
115,6,10,Ticks_ISO_T2_5,62,5,42,127,645304596
115,6,10,Ticks_ISO_T2_5,63,1,48,28,645367132
115,6,10,Ticks_ISO_T2_5,64,5,42,127,645805560
115,6,10,Ticks_ISO_T2_5,65,1,48,27,645837724
115,6,10,Ticks_ISO_T2_5,66,5,42,127,646305328
115,6,10,Ticks_ISO_T2_5,67,1,48,26,646339140
115,6,10,Ticks_ISO_T2_5,68,5,42,127,646804724
115,6,10,Ticks_ISO_T2_5,69,1,48,26,646814648
115,6,10,Ticks_ISO_T2_5,70,1,48,30,647293680
115,6,10,Ticks_ISO_T2_5,71,5,42,127,647304488
115,6,10,Ticks_ISO_T2_5,72,1,48,23,647793376
115,6,10,Ticks_ISO_T2_5,73,5,42,127,647805452
115,6,10,Ticks_ISO_T2_5,74,1,48,35,648255300
115,6,10,Ticks_ISO_T2_5,75,5,42,127,648305296
115,6,10,Ticks_ISO_T2_5,76,1,48,27,648795980
115,6,10,Ticks_ISO_T2_5,77,5,42,127,648804620
115,6,10,Ticks_ISO_T2_5,78,5,42,127,649304396
115,6,10,Ticks_ISO_T2_5,79,1,48,29,649327716
115,6,10,Ticks_ISO_T2_5,80,5,42,127,649805436
115,6,10,Ticks_ISO_T2_5,81,1,48,27,649830320
115,6,10,Ticks_ISO_T2_5,82,5,42,127,650304756
115,6,10,Ticks_ISO_T2_5,83,1,48,26,650348720
115,6,10,Ticks_ISO_T2_5,84,5,42,127,650804528
115,6,10,Ticks_ISO_T2_5,85,1,48,29,650838760
115,6,10,Ticks_ISO_T2_5,86,5,42,127,651305268
115,6,10,Ticks_ISO_T2_5,87,1,48,23,651329560
115,6,10,Ticks_ISO_T2_5,88,5,42,127,651805260
115,6,10,Ticks_ISO_T2_5,89,1,48,27,651822296
115,6,10,Ticks_ISO_T2_5,90,5,42,127,652304732
115,6,10,Ticks_ISO_T2_5,91,1,48,24,652327004
115,6,10,Ticks_ISO_T2_5,92,1,48,26,652792124
115,6,10,Ticks_ISO_T2_5,93,5,42,127,652804420
115,6,10,Ticks_ISO_T2_5,94,1,48,32,653285156
115,6,10,Ticks_ISO_T2_5,95,5,42,127,653305388
115,6,10,Ticks_ISO_T2_5,96,1,48,24,653793312
115,6,10,Ticks_ISO_T2_5,97,5,42,127,653805160
115,6,10,Ticks_ISO_T2_5,98,1,48,26,654289712
115,6,10,Ticks_ISO_T2_5,99,5,42,127,654304480
115,6,10,Ticks_ISO_T2_5,100,1,48,26,654792924
115,6,10,Ticks_ISO_T2_5,101,5,42,127,654805296
115,6,10,Ticks_ISO_T2_5,102,1,48,26,655304472
115,6,10,Ticks_ISO_T2_5,103,5,42,127,655306036
115,6,10,Ticks_ISO_T2_5,104,1,48,27,655798572
115,6,10,Ticks_ISO_T2_5,105,5,42,127,655804884
115,6,10,Ticks_ISO_T2_5,106,5,42,127,656304364
115,6,10,Ticks_ISO_T2_5,107,1,48,28,656310024
115,6,10,Ticks_ISO_T2_5,108,5,42,127,656805324
115,6,10,Ticks_ISO_T2_5,109,1,48,26,656822056
115,6,10,Ticks_ISO_T2_5,110,5,42,127,657305096
115,6,10,Ticks_ISO_T2_5,111,1,48,24,657330128
115,6,10,Ticks_ISO_T2_5,112,1,48,26,657783804
115,6,10,Ticks_ISO_T2_5,113,5,42,127,657804708
115,6,10,Ticks_ISO_T2_5,114,5,42,127,658305380
115,6,10,Ticks_ISO_T2_5,115,1,48,28,658338644
115,6,10,Ticks_ISO_T2_5,116,5,42,127,658805000
115,6,10,Ticks_ISO_T2_5,117,1,48,28,658875284
115,6,10,Ticks_ISO_T2_5,118,5,42,127,659304920
115,6,10,Ticks_ISO_T2_5,119,1,48,21,659341848
115,6,10,Ticks_ISO_T2_5,120,5,42,127,659804464
115,6,10,Ticks_ISO_T2_5,121,1,48,24,659828152
115,6,10,Ticks_ISO_T2_5,122,5,42,127,660305204
115,6,10,Ticks_ISO_T2_5,123,1,48,25,660315128
115,6,10,Ticks_ISO_T2_5,124,5,42,127,660804972
115,6,10,Ticks_ISO_T2_5,125,1,48,23,660812208
115,6,10,Ticks_ISO_T2_5,126,1,48,19,661290420
115,6,10,Ticks_ISO_T2_5,127,5,42,127,661304812
115,6,10,Ticks_ISO_T2_5,128,1,48,23,661774480
115,6,10,Ticks_ISO_T2_5,129,5,42,127,661805404
115,6,10,Ticks_ISO_T2_5,130,1,48,25,662289208
115,6,10,Ticks_ISO_T2_5,131,5,42,127,662305096
115,6,10,Ticks_ISO_T2_5,132,1,48,22,662781052
115,6,10,Ticks_ISO_T2_5,133,5,42,127,662804792
115,6,10,Ticks_ISO_T2_5,134,1,48,26,663285452
115,6,10,Ticks_ISO_T2_5,135,5,42,127,663304412
115,6,10,Ticks_ISO_T2_5,136,1,48,27,663781488
115,6,10,Ticks_ISO_T2_5,137,5,42,127,663805152
115,6,10,Ticks_ISO_T2_5,138,1,48,23,664276020
115,6,10,Ticks_ISO_T2_5,139,5,42,127,664304924
115,6,10,Ticks_ISO_T2_5,140,1,48,25,664784312
115,6,10,Ticks_ISO_T2_5,141,5,42,127,664804840
115,6,10,Ticks_ISO_T2_5,142,1,48,26,665281240
115,6,10,Ticks_ISO_T2_5,143,5,42,127,665304388
115,6,10,Ticks_ISO_T2_5,144,5,42,127,665805060
115,6,10,Ticks_ISO_T2_5,145,1,48,21,665807584
115,6,10,Ticks_ISO_T2_5,146,1,48,27,666283228
115,6,10,Ticks_ISO_T2_5,147,5,42,127,666305196
115,6,10,Ticks_ISO_T2_5,148,5,42,127,666804504
115,6,10,Ticks_ISO_T2_5,149,1,48,22,666814128
115,6,10,Ticks_ISO_T2_5,150,1,48,27,667302808
115,6,10,Ticks_ISO_T2_5,151,5,42,127,667305460
115,6,10,Ticks_ISO_T2_5,152,5,42,127,667805012
115,6,10,Ticks_ISO_T2_5,153,1,48,27,667807984
115,6,10,Ticks_ISO_T2_5,154,1,48,24,668297860
115,6,10,Ticks_ISO_T2_5,155,5,42,127,668304924
115,6,10,Ticks_ISO_T2_5,156,1,48,15,668776232
115,6,10,Ticks_ISO_T2_5,157,5,42,127,668804396
115,6,10,Ticks_ISO_T2_5,158,1,48,29,669274212
115,6,10,Ticks_ISO_T2_5,159,5,42,127,669305136
115,6,10,Ticks_ISO_T2_5,160,1,48,34,669778024
115,6,10,Ticks_ISO_T2_5,161,5,42,127,669804904
115,6,10,Ticks_ISO_T2_5,162,1,48,35,670285044
115,6,10,Ticks_ISO_T2_5,163,5,42,127,670304600
115,6,10,Ticks_ISO_T2_5,164,1,48,29,670779804
115,6,10,Ticks_ISO_T2_5,165,5,42,127,670805340
115,6,10,Ticks_ISO_T2_5,166,1,48,28,671274856
115,6,10,Ticks_ISO_T2_5,167,5,42,127,671305108
115,6,10,Ticks_ISO_T2_5,168,1,48,29,671771788
115,6,10,Ticks_ISO_T2_5,169,5,42,127,671804880
115,6,10,Ticks_ISO_T2_5,170,5,42,127,672304432
115,6,10,Ticks_ISO_T2_5,171,1,48,38,672309720
115,6,10,Ticks_ISO_T2_5,172,5,42,127,672805096
115,6,10,Ticks_ISO_T2_5,173,1,48,29,672825192
115,6,10,Ticks_ISO_T2_5,174,1,48,33,673297500
115,6,10,Ticks_ISO_T2_5,175,5,42,127,673304936
115,6,10,Ticks_ISO_T2_5,176,5,42,127,673804636
115,6,10,Ticks_ISO_T2_5,177,1,48,20,673822564
115,6,10,Ticks_ISO_T2_5,178,1,48,29,674303864
115,6,10,Ticks_ISO_T2_5,179,5,42,127,674305296
115,6,10,Ticks_ISO_T2_5,180,1,48,34,674800844
115,6,10,Ticks_ISO_T2_5,181,5,42,127,674805064
115,6,10,Ticks_ISO_T2_5,182,1,48,29,675278396
115,6,10,Ticks_ISO_T2_5,183,5,42,127,675304908
115,6,10,Ticks_ISO_T2_5,184,1,48,24,675792904
115,6,10,Ticks_ISO_T2_5,185,5,42,127,675804380
115,6,10,Ticks_ISO_T2_5,186,1,48,24,676277088
115,6,10,Ticks_ISO_T2_5,187,5,42,127,676305120
115,6,10,Ticks_ISO_T2_5,188,1,48,30,676743720
115,6,10,Ticks_ISO_T2_5,189,5,42,127,676805036
115,6,10,Ticks_ISO_T2_5,190,5,42,127,677304640
115,6,10,Ticks_ISO_T2_5,191,1,48,28,677327384
115,6,10,Ticks_ISO_T2_5,192,5,42,127,677805384
115,6,10,Ticks_ISO_T2_5,193,1,48,19,677829024
115,6,10,Ticks_ISO_T2_5,194,5,42,127,678305076
115,6,10,Ticks_ISO_T2_5,195,1,48,31,678307092
115,6,10,Ticks_ISO_T2_5,196,1,48,27,678798300
115,6,10,Ticks_ISO_T2_5,197,5,42,127,678804840
115,6,10,Ticks_ISO_T2_5,198,1,48,28,679264484
115,6,10,Ticks_ISO_T2_5,199,5,42,127,679304608
115,6,10,Ticks_ISO_T2_5,200,5,42,127,679805208
115,6,10,Ticks_ISO_T2_5,201,1,48,25,679814608
115,6,10,Ticks_ISO_T2_5,202,1,48,26,680279804
115,6,10,Ticks_ISO_T2_5,203,5,42,127,680304968
115,6,10,Ticks_ISO_T2_5,204,5,42,127,680804820
115,6,10,Ticks_ISO_T2_5,205,1,48,25,680823348
115,6,10,Ticks_ISO_T2_5,206,1,48,31,681275604
115,6,10,Ticks_ISO_T2_5,207,5,42,127,681304432
115,6,10,Ticks_ISO_T2_5,208,1,48,29,681794220
115,6,10,Ticks_ISO_T2_5,209,5,42,127,681805100
115,6,10,Ticks_ISO_T2_5,210,1,48,21,682296760
115,6,10,Ticks_ISO_T2_5,211,5,42,127,682304872
115,6,10,Ticks_ISO_T2_5,212,1,48,32,682787032
115,6,10,Ticks_ISO_T2_5,213,5,42,127,682804788
115,6,10,Ticks_ISO_T2_5,214,1,48,25,683287700
115,6,10,Ticks_ISO_T2_5,215,5,42,127,683305308
115,6,10,Ticks_ISO_T2_5,216,5,42,127,683805008
115,6,10,Ticks_ISO_T2_5,217,1,48,21,683828024
115,6,10,Ticks_ISO_T2_5,218,5,42,127,684305000
115,6,10,Ticks_ISO_T2_5,219,1,48,28,684309844
115,6,10,Ticks_ISO_T2_5,220,1,48,28,684795232
115,6,10,Ticks_ISO_T2_5,221,5,42,127,684804316
115,6,10,Ticks_ISO_T2_5,222,1,48,27,685303468
115,6,10,Ticks_ISO_T2_5,223,5,42,127,685305056
115,6,10,Ticks_ISO_T2_5,224,1,48,28,685788036
115,6,10,Ticks_ISO_T2_5,225,5,42,127,685804828
115,6,10,Ticks_ISO_T2_5,226,1,48,27,686299776
115,6,10,Ticks_ISO_T2_5,227,5,42,127,686304816
115,6,10,Ticks_ISO_T2_5,228,1,48,18,686776784
115,6,10,Ticks_ISO_T2_5,229,5,42,127,686805260
115,6,10,Ticks_ISO_T2_5,230,1,48,21,687301628
115,6,10,Ticks_ISO_T2_5,231,5,42,127,687305104
115,6,10,Ticks_ISO_T2_5,232,5,42,127,687804780
115,6,10,Ticks_ISO_T2_5,233,1,48,33,687817424
115,6,10,Ticks_ISO_T2_5,234,5,42,127,688304920
115,6,10,Ticks_ISO_T2_5,235,1,48,26,688309240
115,6,10,Ticks_ISO_T2_5,236,1,48,32,688781840
115,6,10,Ticks_ISO_T2_5,237,5,42,127,688805284
115,6,10,Ticks_ISO_T2_5,238,1,48,32,689287596
115,6,10,Ticks_ISO_T2_5,239,5,42,127,689304828
115,6,10,Ticks_ISO_T2_5,240,1,48,17,689803928
115,6,10,Ticks_ISO_T2_5,241,5,42,127,689805572
115,6,10,Ticks_ISO_T2_5,242,1,48,31,690284664
115,6,10,Ticks_ISO_T2_5,243,5,42,127,690305340
115,6,10,Ticks_ISO_T2_5,244,1,48,37,690762368
115,6,10,Ticks_ISO_T2_5,245,5,42,127,690805036
115,6,10,Ticks_ISO_T2_5,246,1,48,43,691277472
115,6,10,Ticks_ISO_T2_5,247,5,42,127,691304804
115,6,10,Ticks_ISO_T2_5,248,1,48,37,691760264
115,6,10,Ticks_ISO_T2_5,249,5,42,127,691804796
115,6,10,Ticks_ISO_T2_5,250,1,48,37,692285984
115,6,10,Ticks_ISO_T2_5,251,5,42,127,692305388
115,6,10,Ticks_ISO_T2_5,252,5,42,127,692804868
115,6,10,Ticks_ISO_T2_5,253,1,48,25,692813224
115,6,10,Ticks_ISO_T2_5,254,1,48,35,693260468
115,6,10,Ticks_ISO_T2_5,255,5,42,127,693304852
115,6,10,Ticks_ISO_T2_5,256,1,48,35,693751864
115,6,10,Ticks_ISO_T2_5,257,5,42,127,693805672
115,6,10,Ticks_ISO_T2_5,0,9999,9999,9999,629302360
115,6,10,Ticks_ISO_T2_5,1,9999,9999,9999,629803124
115,6,10,Ticks_ISO_T2_5,2,9999,9999,9999,630302840
115,6,10,Ticks_ISO_T2_5,3,9999,9999,9999,630802536
115,6,10,Ticks_ISO_T2_5,4,9999,9999,9999,631302232
115,6,10,Ticks_ISO_T2_5,5,9999,9999,9999,631802972
115,6,10,Ticks_ISO_T2_5,6,9999,9999,9999,632302668
115,6,10,Ticks_ISO_T2_5,7,9999,9999,9999,632802360
115,6,10,Ticks_ISO_T2_5,8,9999,9999,9999,633302128
115,6,10,Ticks_ISO_T2_5,9,9999,9999,9999,633802872
115,6,10,Ticks_ISO_T2_5,10,9999,9999,9999,634302540
115,6,10,Ticks_ISO_T2_5,11,9999,9999,9999,634802228
115,6,10,Ticks_ISO_T2_5,12,9999,9999,9999,635302976
115,6,10,Ticks_ISO_T2_5,13,9999,9999,9999,635802744
115,6,10,Ticks_ISO_T2_5,14,9999,9999,9999,636302440
115,6,10,Ticks_ISO_T2_5,15,9999,9999,9999,636802132
115,6,10,Ticks_ISO_T2_5,16,9999,9999,9999,637302876
115,6,10,Ticks_ISO_T2_5,17,9999,9999,9999,637802572
115,6,10,Ticks_ISO_T2_5,18,9999,9999,9999,638302268
115,6,10,Ticks_ISO_T2_5,19,9999,9999,9999,638803008
115,6,10,Ticks_ISO_T2_5,20,9999,9999,9999,639302704
115,6,10,Ticks_ISO_T2_5,21,9999,9999,9999,639802432
115,6,10,Ticks_ISO_T2_5,22,9999,9999,9999,640302168
115,6,10,Ticks_ISO_T2_5,23,9999,9999,9999,640802904
115,6,10,Ticks_ISO_T2_5,24,9999,9999,9999,641302604
115,6,10,Ticks_ISO_T2_5,25,9999,9999,9999,641802304
115,6,10,Ticks_ISO_T2_5,26,9999,9999,9999,642303044
115,6,10,Ticks_ISO_T2_5,27,9999,9999,9999,642802740
115,6,10,Ticks_ISO_T2_5,28,9999,9999,9999,643302508
115,6,10,Ticks_ISO_T2_5,29,9999,9999,9999,643802204
115,6,10,Ticks_ISO_T2_5,30,9999,9999,9999,644302944
115,6,10,Ticks_ISO_T2_5,31,9999,9999,9999,644802640
115,6,10,Ticks_ISO_T2_5,32,9999,9999,9999,645302384
115,6,10,Ticks_ISO_T2_5,33,9999,9999,9999,645803124
115,6,10,Ticks_ISO_T2_5,34,9999,9999,9999,646302816
115,6,10,Ticks_ISO_T2_5,35,9999,9999,9999,646802512
115,6,10,Ticks_ISO_T2_5,36,9999,9999,9999,647302204
115,6,10,Ticks_ISO_T2_5,37,9999,9999,9999,647802944
115,6,10,Ticks_ISO_T2_5,38,9999,9999,9999,648302712
115,6,10,Ticks_ISO_T2_5,39,9999,9999,9999,648802408
115,6,10,Ticks_ISO_T2_5,40,9999,9999,9999,649302108
115,6,10,Ticks_ISO_T2_5,41,9999,9999,9999,649802852
115,6,10,Ticks_ISO_T2_5,42,9999,9999,9999,650302544
115,6,10,Ticks_ISO_T2_5,43,9999,9999,9999,650802240
115,6,10,Ticks_ISO_T2_5,44,9999,9999,9999,651302980
115,6,10,Ticks_ISO_T2_5,45,9999,9999,9999,651802676
115,6,10,Ticks_ISO_T2_5,46,9999,9999,9999,652302444
115,6,10,Ticks_ISO_T2_5,47,9999,9999,9999,652802136
115,6,10,Ticks_ISO_T2_5,48,9999,9999,9999,653302880
115,6,10,Ticks_ISO_T2_5,49,9999,9999,9999,653802576
115,6,10,Ticks_ISO_T2_5,50,9999,9999,9999,654302268
115,6,10,Ticks_ISO_T2_5,51,9999,9999,9999,654803012
115,6,10,Ticks_ISO_T2_5,52,9999,9999,9999,655302712
115,6,10,Ticks_ISO_T2_5,53,9999,9999,9999,655802448
115,6,10,Ticks_ISO_T2_5,54,9999,9999,9999,656302148
115,6,10,Ticks_ISO_T2_5,55,9999,9999,9999,656802888
115,6,10,Ticks_ISO_T2_5,56,9999,9999,9999,657302584
115,6,10,Ticks_ISO_T2_5,57,9999,9999,9999,657802348
115,6,10,Ticks_ISO_T2_5,58,9999,9999,9999,658303096
115,6,10,Ticks_ISO_T2_5,59,9999,9999,9999,658802788
115,6,10,Ticks_ISO_T2_5,60,9999,9999,9999,659302484
115,6,10,Ticks_ISO_T2_5,61,9999,9999,9999,659802176
115,6,10,Ticks_ISO_T2_5,62,9999,9999,9999,660302920
115,6,10,Ticks_ISO_T2_5,63,9999,9999,9999,660802612
115,6,10,Ticks_ISO_T2_5,64,9999,9999,9999,661302376
115,6,10,Ticks_ISO_T2_5,65,9999,9999,9999,661803116
115,6,10,Ticks_ISO_T2_5,66,9999,9999,9999,662302812
115,6,10,Ticks_ISO_T2_5,67,9999,9999,9999,662802508
115,6,10,Ticks_ISO_T2_5,68,9999,9999,9999,663302204
115,6,10,Ticks_ISO_T2_5,69,9999,9999,9999,663802944
115,6,10,Ticks_ISO_T2_5,70,9999,9999,9999,664302712
115,6,10,Ticks_ISO_T2_5,71,9999,9999,9999,664802408
115,6,10,Ticks_ISO_T2_5,72,9999,9999,9999,665302100
115,6,10,Ticks_ISO_T2_5,73,9999,9999,9999,665802848
115,6,10,Ticks_ISO_T2_5,74,9999,9999,9999,666302512
115,6,10,Ticks_ISO_T2_5,75,9999,9999,9999,666802288
115,6,10,Ticks_ISO_T2_5,76,9999,9999,9999,667303024
115,6,10,Ticks_ISO_T2_5,77,9999,9999,9999,667802724
115,6,10,Ticks_ISO_T2_5,78,9999,9999,9999,668302412
115,6,10,Ticks_ISO_T2_5,79,9999,9999,9999,668802108
115,6,10,Ticks_ISO_T2_5,80,9999,9999,9999,669302848
115,6,10,Ticks_ISO_T2_5,81,9999,9999,9999,669802544
115,6,10,Ticks_ISO_T2_5,82,9999,9999,9999,670302312
115,6,10,Ticks_ISO_T2_5,83,9999,9999,9999,670803056
115,6,10,Ticks_ISO_T2_5,84,9999,9999,9999,671302748
115,6,10,Ticks_ISO_T2_5,85,9999,9999,9999,671802444
115,6,10,Ticks_ISO_T2_5,86,9999,9999,9999,672302144
115,6,10,Ticks_ISO_T2_5,87,9999,9999,9999,672802884
115,6,10,Ticks_ISO_T2_5,88,9999,9999,9999,673302648
115,6,10,Ticks_ISO_T2_5,89,9999,9999,9999,673802352
115,6,10,Ticks_ISO_T2_5,90,9999,9999,9999,674303092
115,6,10,Ticks_ISO_T2_5,91,9999,9999,9999,674802780
115,6,10,Ticks_ISO_T2_5,92,9999,9999,9999,675302476
115,6,10,Ticks_ISO_T2_5,93,9999,9999,9999,675802168
115,6,10,Ticks_ISO_T2_5,94,9999,9999,9999,676302908
115,6,10,Ticks_ISO_T2_5,95,9999,9999,9999,676802676
115,6,10,Ticks_ISO_T2_5,96,9999,9999,9999,677302352
115,6,10,Ticks_ISO_T2_5,97,9999,9999,9999,677803096
115,6,10,Ticks_ISO_T2_5,98,9999,9999,9999,678302792
115,6,10,Ticks_ISO_T2_5,99,9999,9999,9999,678802480
115,6,10,Ticks_ISO_T2_5,100,9999,9999,9999,679302248
115,6,10,Ticks_ISO_T2_5,101,9999,9999,9999,679802996
115,6,10,Ticks_ISO_T2_5,102,9999,9999,9999,680302684
115,6,10,Ticks_ISO_T2_5,103,9999,9999,9999,680802384
115,6,10,Ticks_ISO_T2_5,104,9999,9999,9999,681302072
115,6,10,Ticks_ISO_T2_5,105,9999,9999,9999,681802816
115,6,10,Ticks_ISO_T2_5,106,9999,9999,9999,682302584
115,6,10,Ticks_ISO_T2_5,107,9999,9999,9999,682802280
115,6,10,Ticks_ISO_T2_5,108,9999,9999,9999,683303020
115,6,10,Ticks_ISO_T2_5,109,9999,9999,9999,683802720
115,6,10,Ticks_ISO_T2_5,110,9999,9999,9999,684302416
115,6,10,Ticks_ISO_T2_5,111,9999,9999,9999,684802104
115,6,10,Ticks_ISO_T2_5,112,9999,9999,9999,685302856
115,6,10,Ticks_ISO_T2_5,113,9999,9999,9999,685802616
115,6,10,Ticks_ISO_T2_5,114,9999,9999,9999,686302308
115,6,10,Ticks_ISO_T2_5,115,9999,9999,9999,686803048
115,6,10,Ticks_ISO_T2_5,116,9999,9999,9999,687302744
115,6,10,Ticks_ISO_T2_5,117,9999,9999,9999,687802420
115,6,10,Ticks_ISO_T2_5,118,9999,9999,9999,688302188
115,6,10,Ticks_ISO_T2_5,119,9999,9999,9999,688802924
115,6,10,Ticks_ISO_T2_5,120,9999,9999,9999,689302616
115,6,10,Ticks_ISO_T2_5,121,9999,9999,9999,689802320
115,6,10,Ticks_ISO_T2_5,122,9999,9999,9999,690303056
115,6,10,Ticks_ISO_T2_5,123,9999,9999,9999,690802748
115,6,10,Ticks_ISO_T2_5,124,9999,9999,9999,691302520
115,6,10,Ticks_ISO_T2_5,125,9999,9999,9999,691802212
115,6,10,Ticks_ISO_T2_5,126,9999,9999,9999,692302956
115,6,10,Ticks_ISO_T2_5,127,9999,9999,9999,692802656
115,6,10,Ticks_ISO_T2_5,128,9999,9999,9999,693302344
115,6,10,Ticks_ISO_T2_5,129,9999,9999,9999,693803088
115,7,22,Ticks_Phase_8,0,5,42,127,705153456
115,7,22,Ticks_Phase_8,1,5,42,127,705953264
115,7,22,Ticks_Phase_8,2,5,42,127,706753020
115,7,22,Ticks_Phase_8,3,1,48,36,706795380
115,7,22,Ticks_Phase_8,4,1,48,33,707526632
115,7,22,Ticks_Phase_8,5,5,42,127,707552580
115,7,22,Ticks_Phase_8,6,1,48,27,708340272
115,7,22,Ticks_Phase_8,7,5,42,127,708353340
115,7,22,Ticks_Phase_8,8,1,48,25,709149196
115,7,22,Ticks_Phase_8,9,5,42,127,709153348
115,7,22,Ticks_Phase_8,10,1,48,38,709907344
115,7,22,Ticks_Phase_8,11,5,42,127,709952912
115,7,22,Ticks_Phase_8,12,1,48,29,710744728
115,7,22,Ticks_Phase_8,13,5,42,127,710752620
115,7,22,Ticks_Phase_8,14,1,48,38,711535152
115,7,22,Ticks_Phase_8,15,5,42,127,711553456
115,7,22,Ticks_Phase_8,16,1,48,41,712318988
115,7,22,Ticks_Phase_8,17,5,42,127,712353240
115,7,22,Ticks_Phase_8,18,1,48,36,713109256
115,7,22,Ticks_Phase_8,19,5,42,127,713152828
115,7,22,Ticks_Phase_8,20,1,48,34,713931396
115,7,22,Ticks_Phase_8,21,5,42,127,713952616
115,7,22,Ticks_Phase_8,22,1,48,26,714731560
115,7,22,Ticks_Phase_8,23,5,42,127,714753448
115,7,22,Ticks_Phase_8,24,5,42,127,715553240
115,7,22,Ticks_Phase_8,25,1,48,24,715557332
115,7,22,Ticks_Phase_8,26,5,42,127,716352804
115,7,22,Ticks_Phase_8,27,1,48,24,716369176
115,7,22,Ticks_Phase_8,28,5,42,127,717152664
115,7,22,Ticks_Phase_8,29,1,48,26,717160660
115,7,22,Ticks_Phase_8,30,1,48,22,717889424
115,7,22,Ticks_Phase_8,31,5,42,127,717953416
115,7,22,Ticks_Phase_8,32,5,42,127,718753356
115,7,22,Ticks_Phase_8,33,1,48,27,719524004
115,7,22,Ticks_Phase_8,34,5,42,127,719552960
115,7,22,Ticks_Phase_8,35,1,48,35,720287840
115,7,22,Ticks_Phase_8,36,5,42,127,720352596
115,7,22,Ticks_Phase_8,37,1,48,36,721133784
115,7,22,Ticks_Phase_8,38,5,42,127,721153356
115,7,22,Ticks_Phase_8,39,1,48,32,721947120
115,7,22,Ticks_Phase_8,40,5,42,127,721953292
115,7,22,Ticks_Phase_8,41,1,48,36,722739564
115,7,22,Ticks_Phase_8,42,5,42,127,722753000
115,7,22,Ticks_Phase_8,43,1,48,36,723511356
115,7,22,Ticks_Phase_8,44,5,42,127,723552564
115,7,22,Ticks_Phase_8,45,1,48,30,724351440
115,7,22,Ticks_Phase_8,46,5,42,127,724353324
115,7,22,Ticks_Phase_8,47,1,48,29,725121040
115,7,22,Ticks_Phase_8,48,5,42,127,725153260
115,7,22,Ticks_Phase_8,49,1,48,28,725948368
115,7,22,Ticks_Phase_8,50,5,42,127,725953144
115,7,22,Ticks_Phase_8,51,1,48,30,726707496
115,7,22,Ticks_Phase_8,52,5,42,127,726752560
115,7,22,Ticks_Phase_8,53,1,48,28,727511432
115,7,22,Ticks_Phase_8,54,5,42,127,727553540
115,7,22,Ticks_Phase_8,55,1,48,32,728347832
115,7,22,Ticks_Phase_8,56,5,42,127,728353104
115,7,22,Ticks_Phase_8,57,5,42,127,729133352
115,7,22,Ticks_Phase_8,58,1,48,27,729189112
115,7,22,Ticks_Phase_8,59,1,48,18,729864732
115,7,22,Ticks_Phase_8,60,5,42,127,729943540
115,7,22,Ticks_Phase_8,61,1,48,35,730686684
115,7,22,Ticks_Phase_8,62,5,42,127,730743176
115,7,22,Ticks_Phase_8,63,1,48,32,731499196
115,7,22,Ticks_Phase_8,64,5,42,127,731543040
115,7,22,Ticks_Phase_8,65,1,48,24,732328416
115,7,22,Ticks_Phase_8,66,5,42,127,732342676
115,7,22,Ticks_Phase_8,67,1,48,30,733114052
115,7,22,Ticks_Phase_8,68,5,42,127,733143460
115,7,22,Ticks_Phase_8,69,1,48,37,733896112
115,7,22,Ticks_Phase_8,70,5,42,127,733943100
115,7,22,Ticks_Phase_8,71,1,48,35,734690200
115,7,22,Ticks_Phase_8,72,5,42,127,734743032
115,7,22,Ticks_Phase_8,73,1,48,24,735531936
115,7,22,Ticks_Phase_8,74,5,42,127,735542524
115,7,22,Ticks_Phase_8,75,1,48,33,736304684
115,7,22,Ticks_Phase_8,76,5,42,127,736343280
115,7,22,Ticks_Phase_8,77,1,48,32,737128728
115,7,22,Ticks_Phase_8,78,5,42,127,737143216
115,7,22,Ticks_Phase_8,79,1,48,30,737919900
115,7,22,Ticks_Phase_8,80,5,42,127,737943000
115,7,22,Ticks_Phase_8,81,1,48,29,738693856
115,7,22,Ticks_Phase_8,82,5,42,127,738742640
115,7,22,Ticks_Phase_8,83,1,48,38,739476412
115,7,22,Ticks_Phase_8,84,5,42,127,739543272
115,7,22,Ticks_Phase_8,85,1,48,30,740339880
115,7,22,Ticks_Phase_8,86,5,42,127,740343356
115,7,22,Ticks_Phase_8,87,1,48,35,741130392
115,7,22,Ticks_Phase_8,88,5,42,127,741142920
115,7,22,Ticks_Phase_8,89,1,48,35,741891312
115,7,22,Ticks_Phase_8,90,5,42,127,741942708
115,7,22,Ticks_Phase_8,91,1,48,39,742734076
115,7,22,Ticks_Phase_8,92,5,42,127,742743464
115,7,22,Ticks_Phase_8,93,1,48,39,743533792
115,7,22,Ticks_Phase_8,94,5,42,127,743562724
115,7,22,Ticks_Phase_8,95,1,48,33,744333876
115,7,22,Ticks_Phase_8,96,5,42,127,744363484
115,7,22,Ticks_Phase_8,97,1,48,33,745131196
115,7,22,Ticks_Phase_8,98,5,42,127,745163144
115,7,22,Ticks_Phase_8,99,1,48,34,745920356
115,7,22,Ticks_Phase_8,100,5,42,127,745962784
115,7,22,Ticks_Phase_8,101,1,48,35,746734832
115,7,22,Ticks_Phase_8,102,5,42,127,746762792
115,7,22,Ticks_Phase_8,103,1,48,34,747489152
115,7,22,Ticks_Phase_8,104,5,42,127,747563328
115,7,22,Ticks_Phase_8,105,1,48,33,748352980
115,7,22,Ticks_Phase_8,106,5,42,127,748363116
115,7,22,Ticks_Phase_8,107,1,48,29,749097196
115,7,22,Ticks_Phase_8,108,5,42,127,749162976
115,7,22,Ticks_Phase_8,109,1,48,32,749943488
115,7,22,Ticks_Phase_8,110,5,42,127,749962688
115,7,22,Ticks_Phase_8,111,1,48,28,750706500
115,7,22,Ticks_Phase_8,112,5,42,127,750763372
115,7,22,Ticks_Phase_8,113,1,48,32,751529576
115,7,22,Ticks_Phase_8,114,5,42,127,751563184
115,7,22,Ticks_Phase_8,115,1,48,19,752326776
115,7,22,Ticks_Phase_8,116,5,42,127,752362896
115,7,22,Ticks_Phase_8,117,1,48,27,753141316
115,7,22,Ticks_Phase_8,118,5,42,127,753162608
115,7,22,Ticks_Phase_8,119,1,48,37,753866728
115,7,22,Ticks_Phase_8,120,5,42,127,753963728
115,7,22,Ticks_Phase_8,121,5,42,127,754763236
115,7,22,Ticks_Phase_8,122,1,48,32,754799228
115,7,22,Ticks_Phase_8,123,5,42,127,755562800
115,7,22,Ticks_Phase_8,124,1,48,29,755585464
115,7,22,Ticks_Phase_8,125,1,48,19,756353044
115,7,22,Ticks_Phase_8,126,5,42,127,756402644
115,7,22,Ticks_Phase_8,127,1,48,30,757152156
115,7,22,Ticks_Phase_8,128,5,42,127,757203276
115,7,22,Ticks_Phase_8,129,1,48,30,757975700
115,7,22,Ticks_Phase_8,130,5,42,127,758003140
115,7,22,Ticks_Phase_8,131,1,48,26,758769720
115,7,22,Ticks_Phase_8,132,5,42,127,758802776
115,7,22,Ticks_Phase_8,133,1,48,20,759585380
115,7,22,Ticks_Phase_8,134,5,42,127,759602712
115,7,22,Ticks_Phase_8,135,1,48,28,760348544
115,7,22,Ticks_Phase_8,136,5,42,127,760403248
115,7,22,Ticks_Phase_8,137,1,48,26,761177764
115,7,22,Ticks_Phase_8,138,5,42,127,761203180
115,7,22,Ticks_Phase_8,139,1,48,30,761977028
115,7,22,Ticks_Phase_8,140,5,42,127,762002744
115,7,22,Ticks_Phase_8,141,5,42,127,762802464
115,7,22,Ticks_Phase_8,142,1,48,26,762808648
115,7,22,Ticks_Phase_8,143,1,48,29,763562228
115,7,22,Ticks_Phase_8,144,5,42,127,763603536
115,7,22,Ticks_Phase_8,145,1,48,27,764388916
115,7,22,Ticks_Phase_8,146,5,42,127,764402952
115,7,22,Ticks_Phase_8,147,1,48,21,765201000
115,7,22,Ticks_Phase_8,148,5,42,127,765202740
115,7,22,Ticks_Phase_8,149,1,48,25,766000336
115,7,22,Ticks_Phase_8,150,5,42,127,766002452
115,7,22,Ticks_Phase_8,151,1,48,26,766719452
115,7,22,Ticks_Phase_8,152,5,42,127,766803580
115,7,22,Ticks_Phase_8,153,1,48,31,767548744
115,7,22,Ticks_Phase_8,154,5,42,127,767603144
115,7,22,Ticks_Phase_8,155,5,42,127,768402788
115,7,22,Ticks_Phase_8,156,1,48,29,769201164
115,7,22,Ticks_Phase_8,157,5,42,127,769202664
115,7,22,Ticks_Phase_8,158,5,42,127,769963516
115,7,22,Ticks_Phase_8,159,1,48,29,769988228
115,7,22,Ticks_Phase_8,160,1,48,25,770759244
115,7,22,Ticks_Phase_8,161,5,42,127,770763096
115,7,22,Ticks_Phase_8,162,1,48,25,771558060
115,7,22,Ticks_Phase_8,163,5,42,127,771562812
115,7,22,Ticks_Phase_8,164,1,48,20,772320416
115,7,22,Ticks_Phase_8,165,5,42,127,772362596
115,7,22,Ticks_Phase_8,166,1,48,32,773091588
115,7,22,Ticks_Phase_8,167,5,42,127,773163504
115,7,22,Ticks_Phase_8,168,1,48,23,773950448
115,7,22,Ticks_Phase_8,169,5,42,127,773963288
115,7,22,Ticks_Phase_8,170,1,48,29,774746944
115,7,22,Ticks_Phase_8,171,5,42,127,774762852
115,7,22,Ticks_Phase_8,172,1,48,31,775511096
115,7,22,Ticks_Phase_8,173,5,42,127,775562492
115,7,22,Ticks_Phase_8,174,1,48,27,776295820
115,7,22,Ticks_Phase_8,175,5,42,127,776363544
115,7,22,Ticks_Phase_8,176,1,48,27,777149844
115,7,22,Ticks_Phase_8,177,5,42,127,777163060
115,7,22,Ticks_Phase_8,178,1,48,26,777917208
115,7,22,Ticks_Phase_8,179,5,42,127,777962920
115,7,22,Ticks_Phase_8,180,1,48,21,778696472
115,7,22,Ticks_Phase_8,181,5,42,127,778762556
115,7,22,Ticks_Phase_8,182,1,48,32,779499476
115,7,22,Ticks_Phase_8,183,5,42,127,779563540
115,7,22,Ticks_Phase_8,184,1,48,26,780327500
115,7,22,Ticks_Phase_8,185,5,42,127,780363324
115,7,22,Ticks_Phase_8,186,1,48,22,781139640
115,7,22,Ticks_Phase_8,187,5,42,127,781162816
115,7,22,Ticks_Phase_8,188,1,48,24,781934716
115,7,22,Ticks_Phase_8,189,5,42,127,781962528
115,7,22,Ticks_Phase_8,190,5,42,127,782682568
115,7,22,Ticks_Phase_8,191,1,48,28,782699612
115,7,22,Ticks_Phase_8,192,1,48,28,783412304
115,7,22,Ticks_Phase_8,193,5,42,127,783483320
115,7,22,Ticks_Phase_8,194,1,48,25,784195760
115,7,22,Ticks_Phase_8,195,5,42,127,784283180
115,7,22,Ticks_Phase_8,196,1,48,27,785051868
115,7,22,Ticks_Phase_8,197,5,42,127,785082744
115,7,22,Ticks_Phase_8,198,5,42,127,785882612
115,7,22,Ticks_Phase_8,199,1,48,29,785915760
115,7,22,Ticks_Phase_8,200,1,48,20,786625148
115,7,22,Ticks_Phase_8,201,5,42,127,786683288
115,7,22,Ticks_Phase_8,202,1,48,26,787427632
115,7,22,Ticks_Phase_8,203,5,42,127,787483152
115,7,22,Ticks_Phase_8,204,1,48,29,788219696
115,7,22,Ticks_Phase_8,205,5,42,127,788282712
115,7,22,Ticks_Phase_8,206,1,48,27,789005784
115,7,22,Ticks_Phase_8,207,5,42,127,789082424
115,7,22,Ticks_Phase_8,208,1,48,27,789849972
115,7,22,Ticks_Phase_8,209,5,42,127,789883332
115,7,22,Ticks_Phase_8,210,1,48,27,790624752
115,7,22,Ticks_Phase_8,211,5,42,127,790683116
115,7,22,Ticks_Phase_8,212,1,48,32,791415028
115,7,22,Ticks_Phase_8,213,5,42,127,791483004
115,7,22,Ticks_Phase_8,214,1,48,30,792213240
115,7,22,Ticks_Phase_8,215,5,42,127,792282564
115,7,22,Ticks_Phase_8,216,1,48,29,792982776
115,7,22,Ticks_Phase_8,217,5,42,127,793083236
115,7,22,Ticks_Phase_8,218,5,42,127,793883192
115,7,22,Ticks_Phase_8,219,1,48,28,793906904
115,7,22,Ticks_Phase_8,220,1,48,35,794661156
115,7,22,Ticks_Phase_8,221,5,42,127,794682748
115,7,22,Ticks_Phase_8,222,1,48,36,795438468
115,7,22,Ticks_Phase_8,223,5,42,127,795482388
115,7,22,Ticks_Phase_8,224,1,48,40,796229192
115,7,22,Ticks_Phase_8,225,5,42,127,796363136
115,7,22,Ticks_Phase_8,226,5,42,127,797163240
115,7,22,Ticks_Phase_8,227,1,48,27,797221632
115,7,22,Ticks_Phase_8,228,5,42,127,797962656
115,7,22,Ticks_Phase_8,229,1,48,32,798020136
115,7,22,Ticks_Phase_8,230,5,42,127,798763488
115,7,22,Ticks_Phase_8,231,1,48,27,798828764
115,7,22,Ticks_Phase_8,232,1,48,25,799539348
115,7,22,Ticks_Phase_8,233,5,42,127,799563044
115,7,22,Ticks_Phase_8,234,1,48,28,800325280
115,7,22,Ticks_Phase_8,235,5,42,127,800362908
115,7,22,Ticks_Phase_8,236,1,48,27,801156968
115,7,22,Ticks_Phase_8,237,5,42,127,801162620
115,7,22,Ticks_Phase_8,238,1,48,26,801954964
115,7,22,Ticks_Phase_8,239,5,42,127,801963380
115,7,22,Ticks_Phase_8,240,5,42,127,802763048
115,7,22,Ticks_Phase_8,241,1,48,21,802778372
115,7,22,Ticks_Phase_8,242,5,42,127,803563056
115,7,22,Ticks_Phase_8,243,1,48,26,804324936
115,7,22,Ticks_Phase_8,244,5,42,127,804362560
115,7,22,Ticks_Phase_8,245,1,48,27,805120908
115,7,22,Ticks_Phase_8,246,5,42,127,805163316
115,7,22,Ticks_Phase_8,247,1,48,23,805949064
115,7,22,Ticks_Phase_8,248,5,42,127,805963104
115,7,22,Ticks_Phase_8,249,1,48,29,806725188
115,7,22,Ticks_Phase_8,250,5,42,127,806762964
115,7,22,Ticks_Phase_8,251,1,48,33,807533816
115,7,22,Ticks_Phase_8,252,5,42,127,807562600
115,7,22,Ticks_Phase_8,253,1,48,18,808347976
115,7,22,Ticks_Phase_8,254,5,42,127,808363436
115,7,22,Ticks_Phase_8,255,5,42,127,809163104
115,7,22,Ticks_Phase_8,256,1,48,27,809809776
115,7,22,Ticks_Phase_8,257,5,42,127,810122552
115,7,22,Ticks_Phase_8,258,5,42,127,810923332
115,7,22,Ticks_Phase_8,259,1,48,34,811117360
115,7,22,Ticks_Phase_8,260,5,42,127,811723068
115,7,22,Ticks_Phase_8,261,1,48,24,811822720
115,7,22,Ticks_Phase_8,262,5,42,127,812522780
115,7,22,Ticks_Phase_8,263,1,48,32,812570916
115,7,22,Ticks_Phase_8,264,1,48,33,813313768
115,7,22,Ticks_Phase_8,265,5,42,127,813322708
115,7,22,Ticks_Phase_8,266,1,48,29,814119836
115,7,22,Ticks_Phase_8,267,5,42,127,814123320
115,7,22,Ticks_Phase_8,268,5,42,127,814923188
115,7,22,Ticks_Phase_8,269,1,48,26,814931704
115,7,22,Ticks_Phase_8,270,1,48,26,815684072
115,7,22,Ticks_Phase_8,271,5,42,127,815722816
115,7,22,Ticks_Phase_8,272,1,48,27,816464460
115,7,22,Ticks_Phase_8,273,5,42,127,816522752
115,7,22,Ticks_Phase_8,274,1,48,34,817277276
115,7,22,Ticks_Phase_8,275,5,42,127,817323364
115,7,22,Ticks_Phase_8,276,1,48,29,818101104
115,7,22,Ticks_Phase_8,277,5,42,127,818123172
115,7,22,Ticks_Phase_8,278,5,42,127,818922816
115,7,22,Ticks_Phase_8,279,1,48,23,818931632
115,7,22,Ticks_Phase_8,280,1,48,26,819721016
115,7,22,Ticks_Phase_8,281,5,42,127,819722596
115,7,22,Ticks_Phase_8,282,1,48,34,820495168
115,7,22,Ticks_Phase_8,283,5,42,127,820523356
115,7,22,Ticks_Phase_8,284,1,48,27,821312332
115,7,22,Ticks_Phase_8,285,5,42,127,821322992
115,7,22,Ticks_Phase_8,286,1,48,33,822120268
115,7,22,Ticks_Phase_8,287,5,42,127,822122852
115,7,22,Ticks_Phase_8,288,1,48,29,822921972
115,7,22,Ticks_Phase_8,289,5,42,127,822923536
115,7,22,Ticks_Phase_8,290,5,42,127,823723700
115,7,22,Ticks_Phase_8,291,1,48,35,823729816
115,7,22,Ticks_Phase_8,292,5,42,127,824523216
115,7,22,Ticks_Phase_8,293,1,48,29,824552252
115,7,22,Ticks_Phase_8,294,5,42,127,825163168
115,7,22,Ticks_Phase_8,295,1,48,32,825311308
115,7,22,Ticks_Phase_8,296,1,48,31,825919332
115,7,22,Ticks_Phase_8,297,5,42,127,825962800
115,7,22,Ticks_Phase_8,298,1,48,20,826651504
115,7,22,Ticks_Phase_8,299,5,42,127,826762872
115,7,22,Ticks_Phase_8,300,1,48,31,827537400
115,7,22,Ticks_Phase_8,301,5,42,127,827563348
115,7,22,Ticks_Phase_8,302,1,48,35,828319068
115,7,22,Ticks_Phase_8,303,5,42,127,828363156
115,7,22,Ticks_Phase_8,304,1,48,39,829082388
115,7,22,Ticks_Phase_8,305,5,42,127,829162868
115,7,22,Ticks_Phase_8,306,1,48,33,829905264
115,7,22,Ticks_Phase_8,307,5,42,127,829962732
115,7,22,Ticks_Phase_8,308,5,42,127,830763348
115,7,22,Ticks_Phase_8,309,1,48,30,830766320
115,7,22,Ticks_Phase_8,310,5,42,127,831562984
115,7,22,Ticks_Phase_8,311,1,48,34,831572844
115,7,22,Ticks_Phase_8,312,1,48,28,832352628
115,7,22,Ticks_Phase_8,313,5,42,127,832362764
115,7,22,Ticks_Phase_8,314,1,48,36,833093548
115,7,22,Ticks_Phase_8,315,5,42,127,833162552
115,7,22,Ticks_Phase_8,316,1,48,18,833956016
115,7,22,Ticks_Phase_8,317,5,42,127,833963460
115,7,22,Ticks_Phase_8,318,1,48,28,834741052
115,7,22,Ticks_Phase_8,319,5,42,127,834763044
115,7,22,Ticks_Phase_8,320,1,48,37,835509152
115,7,22,Ticks_Phase_8,321,5,42,127,835562908
115,7,22,Ticks_Phase_8,322,1,48,15,836325444
115,7,22,Ticks_Phase_8,323,5,42,127,836362692
115,7,22,Ticks_Phase_8,324,5,42,127,837163456
115,7,22,Ticks_Phase_8,325,1,48,23,837174668
115,7,22,Ticks_Phase_8,326,1,48,21,837916252
115,7,22,Ticks_Phase_8,327,5,42,127,837963236
115,7,22,Ticks_Phase_8,328,1,48,33,838690496
115,7,22,Ticks_Phase_8,329,5,42,127,838762800
115,7,22,Ticks_Phase_8,330,1,48,29,839541592
115,7,22,Ticks_Phase_8,331,5,42,127,839562660
115,7,22,Ticks_Phase_8,332,1,48,36,840347668
115,7,22,Ticks_Phase_8,333,5,42,127,840363568
115,7,22,Ticks_Phase_8,0,9999,9999,9999,705151092
115,7,22,Ticks_Phase_8,1,9999,9999,9999,705950828
115,7,22,Ticks_Phase_8,2,9999,9999,9999,706750584
115,7,22,Ticks_Phase_8,3,9999,9999,9999,707550292
115,7,22,Ticks_Phase_8,4,9999,9999,9999,708351052
115,7,22,Ticks_Phase_8,5,9999,9999,9999,709150836
115,7,22,Ticks_Phase_8,6,9999,9999,9999,709950548
115,7,22,Ticks_Phase_8,7,9999,9999,9999,710750336
115,7,22,Ticks_Phase_8,8,9999,9999,9999,711551092
115,7,22,Ticks_Phase_8,9,9999,9999,9999,712350804
115,7,22,Ticks_Phase_8,10,9999,9999,9999,713150540
115,7,22,Ticks_Phase_8,11,9999,9999,9999,713950328
115,7,22,Ticks_Phase_8,12,9999,9999,9999,714751088
115,7,22,Ticks_Phase_8,13,9999,9999,9999,715550804
115,7,22,Ticks_Phase_8,14,9999,9999,9999,716350592
115,7,22,Ticks_Phase_8,15,9999,9999,9999,717150300
115,7,22,Ticks_Phase_8,16,9999,9999,9999,717951056
115,7,22,Ticks_Phase_8,17,9999,9999,9999,718750848
115,7,22,Ticks_Phase_8,18,9999,9999,9999,719550524
115,7,22,Ticks_Phase_8,19,9999,9999,9999,720350312
115,7,22,Ticks_Phase_8,20,9999,9999,9999,721151068
115,7,22,Ticks_Phase_8,21,9999,9999,9999,721950780
115,7,22,Ticks_Phase_8,22,9999,9999,9999,722750568
115,7,22,Ticks_Phase_8,23,9999,9999,9999,723550280
115,7,22,Ticks_Phase_8,24,9999,9999,9999,724351068
115,7,22,Ticks_Phase_8,25,9999,9999,9999,725150824
115,7,22,Ticks_Phase_8,26,9999,9999,9999,725950560
115,7,22,Ticks_Phase_8,27,9999,9999,9999,726750272
115,7,22,Ticks_Phase_8,28,9999,9999,9999,727551032
115,7,22,Ticks_Phase_8,29,9999,9999,9999,728350820
115,7,22,Ticks_Phase_8,30,9999,9999,9999,729131064
115,7,22,Ticks_Phase_8,31,9999,9999,9999,729941108
115,7,22,Ticks_Phase_8,32,9999,9999,9999,730740816
115,7,22,Ticks_Phase_8,33,9999,9999,9999,731540604
115,7,22,Ticks_Phase_8,34,9999,9999,9999,732340316
115,7,22,Ticks_Phase_8,35,9999,9999,9999,733141100
115,7,22,Ticks_Phase_8,36,9999,9999,9999,733940812
115,7,22,Ticks_Phase_8,37,9999,9999,9999,734740600
115,7,22,Ticks_Phase_8,38,9999,9999,9999,735540312
115,7,22,Ticks_Phase_8,39,9999,9999,9999,736341068
115,7,22,Ticks_Phase_8,40,9999,9999,9999,737140852
115,7,22,Ticks_Phase_8,41,9999,9999,9999,737940564
115,7,22,Ticks_Phase_8,42,9999,9999,9999,738740352
115,7,22,Ticks_Phase_8,43,9999,9999,9999,739541060
115,7,22,Ticks_Phase_8,44,9999,9999,9999,740340848
115,7,22,Ticks_Phase_8,45,9999,9999,9999,741140560
115,7,22,Ticks_Phase_8,46,9999,9999,9999,741940348
115,7,22,Ticks_Phase_8,47,9999,9999,9999,742741104
115,7,22,Ticks_Phase_8,48,9999,9999,9999,743560288
115,7,22,Ticks_Phase_8,49,9999,9999,9999,744361048
115,7,22,Ticks_Phase_8,50,9999,9999,9999,745160784
115,7,22,Ticks_Phase_8,51,9999,9999,9999,745960572
115,7,22,Ticks_Phase_8,52,9999,9999,9999,746760280
115,7,22,Ticks_Phase_8,53,9999,9999,9999,747561040
115,7,22,Ticks_Phase_8,54,9999,9999,9999,748360828
115,7,22,Ticks_Phase_8,55,9999,9999,9999,749160540
115,7,22,Ticks_Phase_8,56,9999,9999,9999,749960252
115,7,22,Ticks_Phase_8,57,9999,9999,9999,750761084
115,7,22,Ticks_Phase_8,58,9999,9999,9999,751560824
115,7,22,Ticks_Phase_8,59,9999,9999,9999,752360536
115,7,22,Ticks_Phase_8,60,9999,9999,9999,753160248
115,7,22,Ticks_Phase_8,61,9999,9999,9999,753961068
115,7,22,Ticks_Phase_8,62,9999,9999,9999,754760800
115,7,22,Ticks_Phase_8,63,9999,9999,9999,755560512
115,7,22,Ticks_Phase_8,64,9999,9999,9999,756400208
115,7,22,Ticks_Phase_8,65,9999,9999,9999,757200992
115,7,22,Ticks_Phase_8,66,9999,9999,9999,758000704
115,7,22,Ticks_Phase_8,67,9999,9999,9999,758800488
115,7,22,Ticks_Phase_8,68,9999,9999,9999,759600200
115,7,22,Ticks_Phase_8,69,9999,9999,9999,760400960
115,7,22,Ticks_Phase_8,70,9999,9999,9999,761200744
115,7,22,Ticks_Phase_8,71,9999,9999,9999,762000456
115,7,22,Ticks_Phase_8,72,9999,9999,9999,762800252
115,7,22,Ticks_Phase_8,73,9999,9999,9999,763600952
115,7,22,Ticks_Phase_8,74,9999,9999,9999,764400740
115,7,22,Ticks_Phase_8,75,9999,9999,9999,765200476
115,7,22,Ticks_Phase_8,76,9999,9999,9999,766000204
115,7,22,Ticks_Phase_8,77,9999,9999,9999,766800996
115,7,22,Ticks_Phase_8,78,9999,9999,9999,767600708
115,7,22,Ticks_Phase_8,79,9999,9999,9999,768400500
115,7,22,Ticks_Phase_8,80,9999,9999,9999,769200236
115,7,22,Ticks_Phase_8,81,9999,9999,9999,769961080
115,7,22,Ticks_Phase_8,82,9999,9999,9999,770760812
115,7,22,Ticks_Phase_8,83,9999,9999,9999,771560524
115,7,22,Ticks_Phase_8,84,9999,9999,9999,772360312
115,7,22,Ticks_Phase_8,85,9999,9999,9999,773161068
115,7,22,Ticks_Phase_8,86,9999,9999,9999,773960780
115,7,22,Ticks_Phase_8,87,9999,9999,9999,774760564
115,7,22,Ticks_Phase_8,88,9999,9999,9999,775560276
115,7,22,Ticks_Phase_8,89,9999,9999,9999,776361036
115,7,22,Ticks_Phase_8,90,9999,9999,9999,777160772
115,7,22,Ticks_Phase_8,91,9999,9999,9999,777960560
115,7,22,Ticks_Phase_8,92,9999,9999,9999,778760268
115,7,22,Ticks_Phase_8,93,9999,9999,9999,779561028
115,7,22,Ticks_Phase_8,94,9999,9999,9999,780360816
115,7,22,Ticks_Phase_8,95,9999,9999,9999,781160528
115,7,22,Ticks_Phase_8,96,9999,9999,9999,781960316
115,7,22,Ticks_Phase_8,97,9999,9999,9999,782680132
115,7,22,Ticks_Phase_8,98,9999,9999,9999,783480960
115,7,22,Ticks_Phase_8,99,9999,9999,9999,784280668
115,7,22,Ticks_Phase_8,100,9999,9999,9999,785080384
115,7,22,Ticks_Phase_8,101,9999,9999,9999,785880176
115,7,22,Ticks_Phase_8,102,9999,9999,9999,786680928
115,7,22,Ticks_Phase_8,103,9999,9999,9999,787480640
115,7,22,Ticks_Phase_8,104,9999,9999,9999,788280428
115,7,22,Ticks_Phase_8,105,9999,9999,9999,789080140
115,7,22,Ticks_Phase_8,106,9999,9999,9999,789880896
115,7,22,Ticks_Phase_8,107,9999,9999,9999,790680684
115,7,22,Ticks_Phase_8,108,9999,9999,9999,791480396
115,7,22,Ticks_Phase_8,109,9999,9999,9999,792280132
115,7,22,Ticks_Phase_8,110,9999,9999,9999,793080948
115,7,22,Ticks_Phase_8,111,9999,9999,9999,793880680
115,7,22,Ticks_Phase_8,112,9999,9999,9999,794680388
115,7,22,Ticks_Phase_8,113,9999,9999,9999,795480172
115,7,22,Ticks_Phase_8,114,9999,9999,9999,796360776
115,7,22,Ticks_Phase_8,115,9999,9999,9999,797160508
115,7,22,Ticks_Phase_8,116,9999,9999,9999,797960296
115,7,22,Ticks_Phase_8,117,9999,9999,9999,798761052
115,7,22,Ticks_Phase_8,118,9999,9999,9999,799560756
115,7,22,Ticks_Phase_8,119,9999,9999,9999,800360544
115,7,22,Ticks_Phase_8,120,9999,9999,9999,801160256
115,7,22,Ticks_Phase_8,121,9999,9999,9999,801961016
115,7,22,Ticks_Phase_8,122,9999,9999,9999,802760760
115,7,22,Ticks_Phase_8,123,9999,9999,9999,803560548
115,7,22,Ticks_Phase_8,124,9999,9999,9999,804360276
115,7,22,Ticks_Phase_8,125,9999,9999,9999,805161032
115,7,22,Ticks_Phase_8,126,9999,9999,9999,805960816
115,7,22,Ticks_Phase_8,127,9999,9999,9999,806760528
115,7,22,Ticks_Phase_8,128,9999,9999,9999,807560316
115,7,22,Ticks_Phase_8,129,9999,9999,9999,808361072
115,7,22,Ticks_Phase_8,130,9999,9999,9999,809160816
115,7,22,Ticks_Phase_8,131,9999,9999,9999,810120264
115,7,22,Ticks_Phase_8,132,9999,9999,9999,810921044
115,7,22,Ticks_Phase_8,133,9999,9999,9999,811720780
115,7,22,Ticks_Phase_8,134,9999,9999,9999,812520568
115,7,22,Ticks_Phase_8,135,9999,9999,9999,813320276
115,7,22,Ticks_Phase_8,136,9999,9999,9999,814121032
115,7,22,Ticks_Phase_8,137,9999,9999,9999,814920824
115,7,22,Ticks_Phase_8,138,9999,9999,9999,815720532
115,7,22,Ticks_Phase_8,139,9999,9999,9999,816520316
115,7,22,Ticks_Phase_8,140,9999,9999,9999,817321076
115,7,22,Ticks_Phase_8,141,9999,9999,9999,818120812
115,7,22,Ticks_Phase_8,142,9999,9999,9999,818920528
115,7,22,Ticks_Phase_8,143,9999,9999,9999,819720324
115,7,22,Ticks_Phase_8,144,9999,9999,9999,820521068
115,7,22,Ticks_Phase_8,145,9999,9999,9999,821320780
115,7,22,Ticks_Phase_8,146,9999,9999,9999,822120568
115,7,22,Ticks_Phase_8,147,9999,9999,9999,822920284
115,7,22,Ticks_Phase_8,148,9999,9999,9999,823721044
115,7,22,Ticks_Phase_8,149,9999,9999,9999,824520780
115,7,22,Ticks_Phase_8,150,9999,9999,9999,825160808
115,7,22,Ticks_Phase_8,151,9999,9999,9999,825960516
115,7,22,Ticks_Phase_8,152,9999,9999,9999,826760284
115,7,22,Ticks_Phase_8,153,9999,9999,9999,827561060
115,7,22,Ticks_Phase_8,154,9999,9999,9999,828360796
115,7,22,Ticks_Phase_8,155,9999,9999,9999,829160508
115,7,22,Ticks_Phase_8,156,9999,9999,9999,829960296
115,7,22,Ticks_Phase_8,157,9999,9999,9999,830761060
115,7,22,Ticks_Phase_8,158,9999,9999,9999,831560772
115,7,22,Ticks_Phase_8,159,9999,9999,9999,832360552
115,7,22,Ticks_Phase_8,160,9999,9999,9999,833160264
115,7,22,Ticks_Phase_8,161,9999,9999,9999,833961024
115,7,22,Ticks_Phase_8,162,9999,9999,9999,834760760
115,7,22,Ticks_Phase_8,163,9999,9999,9999,835560544
115,7,22,Ticks_Phase_8,164,9999,9999,9999,836360256
115,7,22,Ticks_Phase_8,165,9999,9999,9999,837161020
115,7,22,Ticks_Phase_8,166,9999,9999,9999,837960804
115,7,22,Ticks_Phase_8,167,9999,9999,9999,838760512
115,7,22,Ticks_Phase_8,168,9999,9999,9999,839560300
115,7,22,Ticks_Phase_8,169,9999,9999,9999,840361060
115,8,23,Ticks_Phase_5,0,5,42,127,849971648
115,8,23,Ticks_Phase_5,1,5,42,127,850472480
115,8,23,Ticks_Phase_5,2,5,42,127,850972040
115,8,23,Ticks_Phase_5,3,1,48,33,851057760
115,8,23,Ticks_Phase_5,4,5,42,127,851471728
115,8,23,Ticks_Phase_5,5,1,48,40,851524800
115,8,23,Ticks_Phase_5,6,5,42,127,851971416
115,8,23,Ticks_Phase_5,7,1,48,41,852001952
115,8,23,Ticks_Phase_5,8,5,42,127,852472300
115,8,23,Ticks_Phase_5,9,1,48,35,852481864
115,8,23,Ticks_Phase_5,10,5,42,127,852971844
115,8,23,Ticks_Phase_5,11,1,48,32,853001700
115,8,23,Ticks_Phase_5,12,1,48,36,853447596
115,8,23,Ticks_Phase_5,13,5,42,127,853471596
115,8,23,Ticks_Phase_5,14,5,42,127,853972192
115,8,23,Ticks_Phase_5,15,1,48,29,853983252
115,8,23,Ticks_Phase_5,16,1,48,38,854440816
115,8,23,Ticks_Phase_5,17,5,42,127,854472168
115,8,23,Ticks_Phase_5,18,5,42,127,854971716
115,8,23,Ticks_Phase_5,19,1,48,36,854992960
115,8,23,Ticks_Phase_5,20,5,42,127,855471452
115,8,23,Ticks_Phase_5,21,1,48,36,855497360
115,8,23,Ticks_Phase_5,22,1,48,28,855964512
115,8,23,Ticks_Phase_5,23,5,42,127,855972256
115,8,23,Ticks_Phase_5,24,1,48,33,856424284
115,8,23,Ticks_Phase_5,25,5,42,127,856472020
115,8,23,Ticks_Phase_5,26,1,48,33,856961128
115,8,23,Ticks_Phase_5,27,5,42,127,856971484
115,8,23,Ticks_Phase_5,28,1,48,35,857466944
115,8,23,Ticks_Phase_5,29,5,42,127,857472444
115,8,23,Ticks_Phase_5,30,5,42,127,857972212
115,8,23,Ticks_Phase_5,31,1,48,36,857979296
115,8,23,Ticks_Phase_5,32,1,48,32,858469464
115,8,23,Ticks_Phase_5,33,5,42,127,858471968
115,8,23,Ticks_Phase_5,34,1,48,34,858946012
115,8,23,Ticks_Phase_5,35,5,42,127,858971508
115,8,23,Ticks_Phase_5,36,1,48,30,859471192
115,8,23,Ticks_Phase_5,37,5,42,127,859472836
115,8,23,Ticks_Phase_5,38,5,42,127,859972084
115,8,23,Ticks_Phase_5,39,1,48,38,859980452
115,8,23,Ticks_Phase_5,40,1,48,37,860453464
115,8,23,Ticks_Phase_5,41,5,42,127,860471620
115,8,23,Ticks_Phase_5,42,1,48,26,860881416
115,8,23,Ticks_Phase_5,43,5,42,127,860972356
115,8,23,Ticks_Phase_5,44,1,48,23,861422816
115,8,23,Ticks_Phase_5,45,5,42,127,861472192
115,8,23,Ticks_Phase_5,46,1,48,34,861948256
115,8,23,Ticks_Phase_5,47,5,42,127,861972028
115,8,23,Ticks_Phase_5,48,5,42,127,862471500
115,8,23,Ticks_Phase_5,49,1,48,29,862486368
115,8,23,Ticks_Phase_5,50,5,42,127,862972236
115,8,23,Ticks_Phase_5,51,1,48,26,862975132
115,8,23,Ticks_Phase_5,52,1,48,29,863299164
115,8,23,Ticks_Phase_5,53,5,42,127,863472128
115,8,23,Ticks_Phase_5,54,5,42,127,863971612
115,8,23,Ticks_Phase_5,55,1,48,30,864014944
115,8,23,Ticks_Phase_5,56,5,42,127,864472500
115,8,23,Ticks_Phase_5,57,1,48,35,864526620
115,8,23,Ticks_Phase_5,58,5,42,127,864972116
115,8,23,Ticks_Phase_5,59,1,48,33,865018964
115,8,23,Ticks_Phase_5,60,1,48,35,865373712
115,8,23,Ticks_Phase_5,61,5,42,127,865472004
115,8,23,Ticks_Phase_5,62,5,42,127,865971688
115,8,23,Ticks_Phase_5,63,1,48,38,866003888
115,8,23,Ticks_Phase_5,64,5,42,127,866472272
115,8,23,Ticks_Phase_5,65,1,48,35,866533008
115,8,23,Ticks_Phase_5,66,5,42,127,866972036
115,8,23,Ticks_Phase_5,67,1,48,30,867041388
115,8,23,Ticks_Phase_5,68,1,48,37,867453192
115,8,23,Ticks_Phase_5,69,5,42,127,867471720
115,8,23,Ticks_Phase_5,70,1,48,35,867898952
115,8,23,Ticks_Phase_5,71,5,42,127,867971480
115,8,23,Ticks_Phase_5,72,1,48,32,868463572
115,8,23,Ticks_Phase_5,73,5,42,127,868472140
115,8,23,Ticks_Phase_5,74,5,42,127,868972060
115,8,23,Ticks_Phase_5,75,1,48,32,869019432
115,8,23,Ticks_Phase_5,76,5,42,127,869471672
115,8,23,Ticks_Phase_5,77,1,48,27,869535520
115,8,23,Ticks_Phase_5,78,1,48,33,869953952
115,8,23,Ticks_Phase_5,79,5,42,127,869972252
115,8,23,Ticks_Phase_5,80,1,48,37,870332548
115,8,23,Ticks_Phase_5,81,5,42,127,870472000
115,8,23,Ticks_Phase_5,82,1,48,27,870951084
115,8,23,Ticks_Phase_5,83,5,42,127,870971628
115,8,23,Ticks_Phase_5,84,5,42,127,871471472
115,8,23,Ticks_Phase_5,85,1,48,36,871520800
115,8,23,Ticks_Phase_5,86,5,42,127,871972204
115,8,23,Ticks_Phase_5,87,1,48,35,872026696
115,8,23,Ticks_Phase_5,88,1,48,33,872462272
115,8,23,Ticks_Phase_5,89,5,42,127,872471888
115,8,23,Ticks_Phase_5,90,1,48,29,872890220
115,8,23,Ticks_Phase_5,91,5,42,127,872971576
115,8,23,Ticks_Phase_5,92,5,42,127,873472244
115,8,23,Ticks_Phase_5,93,1,48,43,873482032
115,8,23,Ticks_Phase_5,94,5,42,127,873982268
115,8,23,Ticks_Phase_5,95,1,48,41,874027620
115,8,23,Ticks_Phase_5,96,5,42,127,874482032
115,8,23,Ticks_Phase_5,97,1,48,36,874531888
115,8,23,Ticks_Phase_5,98,1,48,36,874962660
115,8,23,Ticks_Phase_5,99,5,42,127,874981864
115,8,23,Ticks_Phase_5,100,1,48,44,875472312
115,8,23,Ticks_Phase_5,101,5,42,127,875481552
115,8,23,Ticks_Phase_5,102,1,48,41,875918948
115,8,23,Ticks_Phase_5,103,5,42,127,875982136
115,8,23,Ticks_Phase_5,104,5,42,127,876481908
115,8,23,Ticks_Phase_5,105,1,48,33,876530412
115,8,23,Ticks_Phase_5,106,5,42,127,876981572
115,8,23,Ticks_Phase_5,107,1,48,28,877087908
115,8,23,Ticks_Phase_5,108,5,42,127,877482456
115,8,23,Ticks_Phase_5,109,1,48,42,877498480
115,8,23,Ticks_Phase_5,110,1,48,31,877935900
115,8,23,Ticks_Phase_5,111,5,42,127,877981988
115,8,23,Ticks_Phase_5,112,1,48,42,878443976
115,8,23,Ticks_Phase_5,113,5,42,127,878481972
115,8,23,Ticks_Phase_5,114,5,42,127,878981372
115,8,23,Ticks_Phase_5,115,1,48,38,879053708
115,8,23,Ticks_Phase_5,116,5,42,127,879482108
115,8,23,Ticks_Phase_5,117,1,48,32,879562684
115,8,23,Ticks_Phase_5,118,1,48,28,879945960
115,8,23,Ticks_Phase_5,119,5,42,127,879981864
115,8,23,Ticks_Phase_5,120,1,48,34,880375404
115,8,23,Ticks_Phase_5,121,5,42,127,880481908
115,8,23,Ticks_Phase_5,122,1,48,23,880970576
115,8,23,Ticks_Phase_5,123,5,42,127,880982360
115,8,23,Ticks_Phase_5,124,5,42,127,881482204
115,8,23,Ticks_Phase_5,125,1,48,33,881595280
115,8,23,Ticks_Phase_5,126,5,42,127,882002340
115,8,23,Ticks_Phase_5,127,1,48,35,882038404
115,8,23,Ticks_Phase_5,128,1,48,35,882473832
115,8,23,Ticks_Phase_5,129,5,42,127,882501872
115,8,23,Ticks_Phase_5,130,1,48,30,882877588
115,8,23,Ticks_Phase_5,131,5,42,127,883001844
115,8,23,Ticks_Phase_5,132,1,48,38,883451720
115,8,23,Ticks_Phase_5,133,5,42,127,883501472
115,8,23,Ticks_Phase_5,134,5,42,127,884002064
115,8,23,Ticks_Phase_5,135,1,48,32,884048092
115,8,23,Ticks_Phase_5,136,5,42,127,884501976
115,8,23,Ticks_Phase_5,137,1,48,31,884566204
115,8,23,Ticks_Phase_5,138,1,48,23,884968824
115,8,23,Ticks_Phase_5,139,5,42,127,885001512
115,8,23,Ticks_Phase_5,140,1,48,36,885436688
115,8,23,Ticks_Phase_5,141,5,42,127,885502320
115,8,23,Ticks_Phase_5,142,5,42,127,886001940
115,8,23,Ticks_Phase_5,143,1,48,44,886015392
115,8,23,Ticks_Phase_5,144,5,42,127,886501704
115,8,23,Ticks_Phase_5,145,1,48,41,886583752
115,8,23,Ticks_Phase_5,146,5,42,127,887001392
115,8,23,Ticks_Phase_5,147,1,48,33,887076396
115,8,23,Ticks_Phase_5,148,1,48,30,887440888
115,8,23,Ticks_Phase_5,149,5,42,127,887502192
115,8,23,Ticks_Phase_5,150,1,48,37,887911216
115,8,23,Ticks_Phase_5,151,5,42,127,888001808
115,8,23,Ticks_Phase_5,152,5,42,127,888502092
115,8,23,Ticks_Phase_5,153,1,48,34,888519740
115,8,23,Ticks_Phase_5,154,5,42,127,889002208
115,8,23,Ticks_Phase_5,155,1,48,32,889056192
115,8,23,Ticks_Phase_5,156,5,42,127,889502044
115,8,23,Ticks_Phase_5,157,1,48,27,889533720
115,8,23,Ticks_Phase_5,158,1,48,24,889959840
115,8,23,Ticks_Phase_5,159,5,42,127,890001800
115,8,23,Ticks_Phase_5,160,1,48,27,890366656
115,8,23,Ticks_Phase_5,161,5,42,127,890482004
115,8,23,Ticks_Phase_5,162,1,48,37,890944232
115,8,23,Ticks_Phase_5,163,5,42,127,890982152
115,8,23,Ticks_Phase_5,164,5,42,127,891481328
115,8,23,Ticks_Phase_5,165,1,48,29,891515892
115,8,23,Ticks_Phase_5,166,5,42,127,891982212
115,8,23,Ticks_Phase_5,167,1,48,33,892037228
115,8,23,Ticks_Phase_5,168,1,48,34,892466584
115,8,23,Ticks_Phase_5,169,5,42,127,892481892
115,8,23,Ticks_Phase_5,170,1,48,32,892841860
115,8,23,Ticks_Phase_5,171,5,42,127,892981940
115,8,23,Ticks_Phase_5,172,1,48,37,893475096
115,8,23,Ticks_Phase_5,173,5,42,127,893482468
115,8,23,Ticks_Phase_5,174,5,42,127,893982088
115,8,23,Ticks_Phase_5,175,1,48,35,894004900
115,8,23,Ticks_Phase_5,176,5,42,127,894481924
115,8,23,Ticks_Phase_5,177,1,48,32,894504968
115,8,23,Ticks_Phase_5,178,1,48,28,894969140
115,8,23,Ticks_Phase_5,179,5,42,127,894981756
115,8,23,Ticks_Phase_5,180,1,48,20,895407620
115,8,23,Ticks_Phase_5,181,5,42,127,895482192
115,8,23,Ticks_Phase_5,182,5,42,127,895981960
115,8,23,Ticks_Phase_5,183,1,48,38,896157316
115,8,23,Ticks_Phase_5,184,5,42,127,896481648
115,8,23,Ticks_Phase_5,185,1,48,34,896603012
115,8,23,Ticks_Phase_5,186,5,42,127,896982236
115,8,23,Ticks_Phase_5,187,1,48,39,897028708
115,8,23,Ticks_Phase_5,188,5,42,127,897482148
115,8,23,Ticks_Phase_5,189,1,48,28,897501744
115,8,23,Ticks_Phase_5,190,1,48,36,897915124
115,8,23,Ticks_Phase_5,191,5,42,127,897981680
115,8,23,Ticks_Phase_5,192,5,42,127,898432224
115,8,23,Ticks_Phase_5,193,1,48,32,898495872
115,8,23,Ticks_Phase_5,194,5,42,127,898931984
115,8,23,Ticks_Phase_5,195,1,48,27,898970980
115,8,23,Ticks_Phase_5,196,5,42,127,899431820
115,8,23,Ticks_Phase_5,197,1,48,35,899445348
115,8,23,Ticks_Phase_5,198,1,48,32,899922932
115,8,23,Ticks_Phase_5,199,5,42,127,899931800
115,8,23,Ticks_Phase_5,200,1,48,32,900389968
115,8,23,Ticks_Phase_5,201,5,42,127,900432164
115,8,23,Ticks_Phase_5,202,5,42,127,900931932
115,8,23,Ticks_Phase_5,203,1,48,42,900940596
115,8,23,Ticks_Phase_5,204,5,42,127,901431768
115,8,23,Ticks_Phase_5,205,1,48,32,901480424
115,8,23,Ticks_Phase_5,206,1,48,31,901920192
115,8,23,Ticks_Phase_5,207,5,42,127,901932496
115,8,23,Ticks_Phase_5,208,1,48,32,902390376
115,8,23,Ticks_Phase_5,209,5,42,127,902431964
115,8,23,Ticks_Phase_5,210,1,48,31,902915740
115,8,23,Ticks_Phase_5,211,5,42,127,902931800
115,8,23,Ticks_Phase_5,212,5,42,127,903431792
115,8,23,Ticks_Phase_5,213,1,48,29,903434316
115,8,23,Ticks_Phase_5,214,5,42,127,903932228
115,8,23,Ticks_Phase_5,215,1,48,33,903955192
115,8,23,Ticks_Phase_5,216,5,42,127,904431920
115,8,23,Ticks_Phase_5,217,1,48,28,904437208
115,8,23,Ticks_Phase_5,218,1,48,26,904859884
115,8,23,Ticks_Phase_5,219,5,42,127,904931748
115,8,23,Ticks_Phase_5,220,1,48,34,905397704
115,8,23,Ticks_Phase_5,221,5,42,127,905432560
115,8,23,Ticks_Phase_5,222,5,42,127,905942516
115,8,23,Ticks_Phase_5,223,1,48,34,905949072
115,8,23,Ticks_Phase_5,224,5,42,127,906442052
115,8,23,Ticks_Phase_5,225,1,48,30,906483588
115,8,23,Ticks_Phase_5,226,1,48,24,906963348
115,8,23,Ticks_Phase_5,227,5,42,127,906991912
115,8,23,Ticks_Phase_5,228,5,42,127,907491608
115,8,23,Ticks_Phase_5,229,1,48,33,907507528
115,8,23,Ticks_Phase_5,230,1,48,32,907950348
115,8,23,Ticks_Phase_5,231,5,42,127,907992556
115,8,23,Ticks_Phase_5,232,1,48,31,908461568
115,8,23,Ticks_Phase_5,233,5,42,127,908502504
115,8,23,Ticks_Phase_5,234,1,48,30,908968732
115,8,23,Ticks_Phase_5,235,5,42,127,909002044
115,8,23,Ticks_Phase_5,236,5,42,127,909501736
115,8,23,Ticks_Phase_5,237,1,48,27,909512196
115,8,23,Ticks_Phase_5,238,1,48,28,909971936
115,8,23,Ticks_Phase_5,239,5,42,127,910001396
115,8,23,Ticks_Phase_5,240,5,42,127,910502284
115,8,23,Ticks_Phase_5,241,1,48,31,910519668
115,8,23,Ticks_Phase_5,242,5,42,127,911001900
115,8,23,Ticks_Phase_5,243,1,48,27,911017224
115,8,23,Ticks_Phase_5,244,5,42,127,911501736
115,8,23,Ticks_Phase_5,245,1,48,32,911518180
115,8,23,Ticks_Phase_5,246,1,48,29,911969568
115,8,23,Ticks_Phase_5,247,5,42,127,912002464
115,8,23,Ticks_Phase_5,248,5,42,127,912512492
115,8,23,Ticks_Phase_5,249,1,48,28,912543620
115,8,23,Ticks_Phase_5,250,5,42,127,913012032
115,8,23,Ticks_Phase_5,251,1,48,39,913026460
115,8,23,Ticks_Phase_5,252,5,42,127,913511720
115,8,23,Ticks_Phase_5,253,1,48,29,913533708
115,8,23,Ticks_Phase_5,254,5,42,127,914011484
115,8,23,Ticks_Phase_5,255,1,48,22,914026732
115,8,23,Ticks_Phase_5,256,5,42,127,914512292
115,8,23,Ticks_Phase_5,257,1,48,32,914514964
115,8,23,Ticks_Phase_5,258,1,48,35,914993224
115,8,23,Ticks_Phase_5,259,5,42,127,915011972
115,8,23,Ticks_Phase_5,260,1,48,25,915510812
115,8,23,Ticks_Phase_5,261,5,42,127,915612072
115,8,23,Ticks_Phase_5,262,5,42,127,916111856
115,8,23,Ticks_Phase_5,263,5,42,127,916611416
115,8,23,Ticks_Phase_5,264,1,48,29,916665708
115,8,23,Ticks_Phase_5,265,1,48,24,917086504
115,8,23,Ticks_Phase_5,266,5,42,127,917112444
115,8,23,Ticks_Phase_5,267,1,48,24,917558104
115,8,23,Ticks_Phase_5,268,5,42,127,917611832
115,8,23,Ticks_Phase_5,269,1,48,35,918083860
115,8,23,Ticks_Phase_5,270,5,42,127,918111596
115,8,23,Ticks_Phase_5,271,1,48,27,918600252
115,8,23,Ticks_Phase_5,272,5,42,127,918612408
115,8,23,Ticks_Phase_5,273,1,48,27,919065404
115,8,23,Ticks_Phase_5,274,5,42,127,919111944
115,8,23,Ticks_Phase_5,275,1,48,31,919609272
115,8,23,Ticks_Phase_5,276,5,42,127,919611856
115,8,23,Ticks_Phase_5,277,1,48,32,920090104
115,8,23,Ticks_Phase_5,278,5,42,127,920111472
115,8,23,Ticks_Phase_5,279,1,48,29,920576228
115,8,23,Ticks_Phase_5,280,5,42,127,920612500
115,8,23,Ticks_Phase_5,281,1,48,24,921072548
115,8,23,Ticks_Phase_5,282,5,42,127,921112264
115,8,23,Ticks_Phase_5,283,1,48,27,921597396
115,8,23,Ticks_Phase_5,284,5,42,127,921611580
115,8,23,Ticks_Phase_5,285,1,48,19,922055368
115,8,23,Ticks_Phase_5,286,5,42,127,922112464
115,8,23,Ticks_Phase_5,287,1,48,30,922607404
115,8,23,Ticks_Phase_5,288,5,42,127,922612452
115,8,23,Ticks_Phase_5,289,1,48,21,923040128
115,8,23,Ticks_Phase_5,290,5,42,127,923111768
115,8,23,Ticks_Phase_5,291,5,42,127,923611392
115,8,23,Ticks_Phase_5,292,1,48,23,923640276
115,8,23,Ticks_Phase_5,293,5,42,127,924112348
115,8,23,Ticks_Phase_5,294,1,48,28,924115244
115,8,23,Ticks_Phase_5,295,5,42,127,924611816
115,8,23,Ticks_Phase_5,296,1,48,22,924629680
115,8,23,Ticks_Phase_5,297,5,42,127,925012328
115,8,23,Ticks_Phase_5,298,1,48,24,925119724
115,8,23,Ticks_Phase_5,299,5,42,127,925512312
115,8,23,Ticks_Phase_5,300,1,48,16,925569052
115,8,23,Ticks_Phase_5,301,5,42,127,926011704
115,8,23,Ticks_Phase_5,302,1,48,26,926023884
115,8,23,Ticks_Phase_5,303,5,42,127,926511616
115,8,23,Ticks_Phase_5,304,1,48,21,926527384
115,8,23,Ticks_Phase_5,305,1,48,19,926972772
115,8,23,Ticks_Phase_5,306,5,42,127,927012420
115,8,23,Ticks_Phase_5,307,1,48,24,927446996
115,8,23,Ticks_Phase_5,308,5,42,127,927512108
115,8,23,Ticks_Phase_5,309,1,48,29,927980168
115,8,23,Ticks_Phase_5,310,5,42,127,928011572
115,8,23,Ticks_Phase_5,311,1,48,23,928508980
115,8,23,Ticks_Phase_5,312,5,42,127,928512532
115,8,23,Ticks_Phase_5,313,1,48,23,929001112
115,8,23,Ticks_Phase_5,314,5,42,127,929012368
115,8,23,Ticks_Phase_5,315,5,42,127,929511692
115,8,23,Ticks_Phase_5,316,1,48,23,929539680
115,8,23,Ticks_Phase_5,317,5,42,127,930011456
115,8,23,Ticks_Phase_5,318,1,48,23,930039652
115,8,23,Ticks_Phase_5,319,5,42,127,930512340
115,8,23,Ticks_Phase_5,320,1,48,27,930529312
115,8,23,Ticks_Phase_5,321,1,48,23,930928312
115,8,23,Ticks_Phase_5,322,5,42,127,931012244
115,8,23,Ticks_Phase_5,323,1,48,25,931473836
115,8,23,Ticks_Phase_5,324,5,42,127,931511856
115,8,23,Ticks_Phase_5,325,1,48,27,931981836
115,8,23,Ticks_Phase_5,326,5,42,127,932012416
115,8,23,Ticks_Phase_5,327,1,48,29,932497168
115,8,23,Ticks_Phase_5,328,5,42,127,932512256
115,8,23,Ticks_Phase_5,329,1,48,28,932975292
115,8,23,Ticks_Phase_5,330,5,42,127,933011944
115,8,23,Ticks_Phase_5,331,1,48,27,933493700
115,8,23,Ticks_Phase_5,332,5,42,127,933511484
115,8,23,Ticks_Phase_5,333,1,48,23,933997432
115,8,23,Ticks_Phase_5,334,5,42,127,934012292
115,8,23,Ticks_Phase_5,335,1,48,26,934483716
115,8,23,Ticks_Phase_5,336,5,42,127,934512132
115,8,23,Ticks_Phase_5,0,9999,9999,9999,849969212
115,8,23,Ticks_Phase_5,1,9999,9999,9999,850469968
115,8,23,Ticks_Phase_5,2,9999,9999,9999,850969680
115,8,23,Ticks_Phase_5,3,9999,9999,9999,851469368
115,8,23,Ticks_Phase_5,4,9999,9999,9999,851969132
115,8,23,Ticks_Phase_5,5,9999,9999,9999,852469868
115,8,23,Ticks_Phase_5,6,9999,9999,9999,852969556
115,8,23,Ticks_Phase_5,7,9999,9999,9999,853469312
115,8,23,Ticks_Phase_5,8,9999,9999,9999,853969976
115,8,23,Ticks_Phase_5,9,9999,9999,9999,854469732
115,8,23,Ticks_Phase_5,10,9999,9999,9999,854969428
115,8,23,Ticks_Phase_5,11,9999,9999,9999,855469168
115,8,23,Ticks_Phase_5,12,9999,9999,9999,855969896
115,8,23,Ticks_Phase_5,13,9999,9999,9999,856469584
115,8,23,Ticks_Phase_5,14,9999,9999,9999,856969272
115,8,23,Ticks_Phase_5,15,9999,9999,9999,857470008
115,8,23,Ticks_Phase_5,16,9999,9999,9999,857969776
115,8,23,Ticks_Phase_5,17,9999,9999,9999,858469532
115,8,23,Ticks_Phase_5,18,9999,9999,9999,858969148
115,8,23,Ticks_Phase_5,19,9999,9999,9999,859469888
115,8,23,Ticks_Phase_5,20,9999,9999,9999,859969648
115,8,23,Ticks_Phase_5,21,9999,9999,9999,860469332
115,8,23,Ticks_Phase_5,22,9999,9999,9999,860970068
115,8,23,Ticks_Phase_5,23,9999,9999,9999,861469756
115,8,23,Ticks_Phase_5,24,9999,9999,9999,861969520
115,8,23,Ticks_Phase_5,25,9999,9999,9999,862469212
115,8,23,Ticks_Phase_5,26,9999,9999,9999,862969948
115,8,23,Ticks_Phase_5,27,9999,9999,9999,863469692
115,8,23,Ticks_Phase_5,28,9999,9999,9999,863969400
115,8,23,Ticks_Phase_5,29,9999,9999,9999,864470136
115,8,23,Ticks_Phase_5,30,9999,9999,9999,864969828
115,8,23,Ticks_Phase_5,31,9999,9999,9999,865469492
115,8,23,Ticks_Phase_5,32,9999,9999,9999,865969252
115,8,23,Ticks_Phase_5,33,9999,9999,9999,866469988
115,8,23,Ticks_Phase_5,34,9999,9999,9999,866969676
115,8,23,Ticks_Phase_5,35,9999,9999,9999,867469432
115,8,23,Ticks_Phase_5,36,9999,9999,9999,867969120
115,8,23,Ticks_Phase_5,37,9999,9999,9999,868469856
115,8,23,Ticks_Phase_5,38,9999,9999,9999,868969548
115,8,23,Ticks_Phase_5,39,9999,9999,9999,869469236
115,8,23,Ticks_Phase_5,40,9999,9999,9999,869970040
115,8,23,Ticks_Phase_5,41,9999,9999,9999,870469712
115,8,23,Ticks_Phase_5,42,9999,9999,9999,870969416
115,8,23,Ticks_Phase_5,43,9999,9999,9999,871469112
115,8,23,Ticks_Phase_5,44,9999,9999,9999,871969920
115,8,23,Ticks_Phase_5,45,9999,9999,9999,872469600
115,8,23,Ticks_Phase_5,46,9999,9999,9999,872969288
115,8,23,Ticks_Phase_5,47,9999,9999,9999,873470032
115,8,23,Ticks_Phase_5,48,9999,9999,9999,873979980
115,8,23,Ticks_Phase_5,49,9999,9999,9999,874479668
115,8,23,Ticks_Phase_5,50,9999,9999,9999,874979428
115,8,23,Ticks_Phase_5,51,9999,9999,9999,875479116
115,8,23,Ticks_Phase_5,52,9999,9999,9999,875979848
115,8,23,Ticks_Phase_5,53,9999,9999,9999,876479548
115,8,23,Ticks_Phase_5,54,9999,9999,9999,876979284
115,8,23,Ticks_Phase_5,55,9999,9999,9999,877480020
115,8,23,Ticks_Phase_5,56,9999,9999,9999,877979700
115,8,23,Ticks_Phase_5,57,9999,9999,9999,878479464
115,8,23,Ticks_Phase_5,58,9999,9999,9999,878979160
115,8,23,Ticks_Phase_5,59,9999,9999,9999,879479896
115,8,23,Ticks_Phase_5,60,9999,9999,9999,879979576
115,8,23,Ticks_Phase_5,61,9999,9999,9999,880479324
115,8,23,Ticks_Phase_5,62,9999,9999,9999,880980076
115,8,23,Ticks_Phase_5,63,9999,9999,9999,881479768
115,8,23,Ticks_Phase_5,64,9999,9999,9999,881999976
115,8,23,Ticks_Phase_5,65,9999,9999,9999,882499660
115,8,23,Ticks_Phase_5,66,9999,9999,9999,882999408
115,8,23,Ticks_Phase_5,67,9999,9999,9999,883499112
115,8,23,Ticks_Phase_5,68,9999,9999,9999,883999852
115,8,23,Ticks_Phase_5,69,9999,9999,9999,884499540
115,8,23,Ticks_Phase_5,70,9999,9999,9999,884999224
115,8,23,Ticks_Phase_5,71,9999,9999,9999,885499956
115,8,23,Ticks_Phase_5,72,9999,9999,9999,885999728
115,8,23,Ticks_Phase_5,73,9999,9999,9999,886499416
115,8,23,Ticks_Phase_5,74,9999,9999,9999,886999104
115,8,23,Ticks_Phase_5,75,9999,9999,9999,887499832
115,8,23,Ticks_Phase_5,76,9999,9999,9999,887999596
115,8,23,Ticks_Phase_5,77,9999,9999,9999,888499268
115,8,23,Ticks_Phase_5,78,9999,9999,9999,888999996
115,8,23,Ticks_Phase_5,79,9999,9999,9999,889499756
115,8,23,Ticks_Phase_5,80,9999,9999,9999,889999440
115,8,23,Ticks_Phase_5,81,9999,9999,9999,890479716
115,8,23,Ticks_Phase_5,82,9999,9999,9999,890979420
115,8,23,Ticks_Phase_5,83,9999,9999,9999,891479116
115,8,23,Ticks_Phase_5,84,9999,9999,9999,891979848
115,8,23,Ticks_Phase_5,85,9999,9999,9999,892479608
115,8,23,Ticks_Phase_5,86,9999,9999,9999,892979280
115,8,23,Ticks_Phase_5,87,9999,9999,9999,893480032
115,8,23,Ticks_Phase_5,88,9999,9999,9999,893979724
115,8,23,Ticks_Phase_5,89,9999,9999,9999,894479412
115,8,23,Ticks_Phase_5,90,9999,9999,9999,894979172
115,8,23,Ticks_Phase_5,91,9999,9999,9999,895479904
115,8,23,Ticks_Phase_5,92,9999,9999,9999,895979600
115,8,23,Ticks_Phase_5,93,9999,9999,9999,896479288
115,8,23,Ticks_Phase_5,94,9999,9999,9999,896980020
115,8,23,Ticks_Phase_5,95,9999,9999,9999,897479784
115,8,23,Ticks_Phase_5,96,9999,9999,9999,897979468
115,8,23,Ticks_Phase_5,97,9999,9999,9999,898430008
115,8,23,Ticks_Phase_5,98,9999,9999,9999,898929772
115,8,23,Ticks_Phase_5,99,9999,9999,9999,899429460
115,8,23,Ticks_Phase_5,100,9999,9999,9999,899929216
115,8,23,Ticks_Phase_5,101,9999,9999,9999,900429952
115,8,23,Ticks_Phase_5,102,9999,9999,9999,900929644
115,8,23,Ticks_Phase_5,103,9999,9999,9999,901429332
115,8,23,Ticks_Phase_5,104,9999,9999,9999,901930064
115,8,23,Ticks_Phase_5,105,9999,9999,9999,902429752
115,8,23,Ticks_Phase_5,106,9999,9999,9999,902929512
115,8,23,Ticks_Phase_5,107,9999,9999,9999,903429208
115,8,23,Ticks_Phase_5,108,9999,9999,9999,903929944
115,8,23,Ticks_Phase_5,109,9999,9999,9999,904429632
115,8,23,Ticks_Phase_5,110,9999,9999,9999,904929388
115,8,23,Ticks_Phase_5,111,9999,9999,9999,905430124
115,8,23,Ticks_Phase_5,112,9999,9999,9999,905940080
115,8,23,Ticks_Phase_5,113,9999,9999,9999,906439764
115,8,23,Ticks_Phase_5,114,9999,9999,9999,906989624
115,8,23,Ticks_Phase_5,115,9999,9999,9999,907489396
115,8,23,Ticks_Phase_5,116,9999,9999,9999,907990120
115,8,23,Ticks_Phase_5,117,9999,9999,9999,908500068
115,8,23,Ticks_Phase_5,118,9999,9999,9999,908999756
115,8,23,Ticks_Phase_5,119,9999,9999,9999,909499452
115,8,23,Ticks_Phase_5,120,9999,9999,9999,909999184
115,8,23,Ticks_Phase_5,121,9999,9999,9999,910499924
115,8,23,Ticks_Phase_5,122,9999,9999,9999,910999612
115,8,23,Ticks_Phase_5,123,9999,9999,9999,911499376
115,8,23,Ticks_Phase_5,124,9999,9999,9999,912000100
115,8,23,Ticks_Phase_5,125,9999,9999,9999,912510056
115,8,23,Ticks_Phase_5,126,9999,9999,9999,913009744
115,8,23,Ticks_Phase_5,127,9999,9999,9999,913509432
115,8,23,Ticks_Phase_5,128,9999,9999,9999,914009196
115,8,23,Ticks_Phase_5,129,9999,9999,9999,914509932
115,8,23,Ticks_Phase_5,130,9999,9999,9999,915009612
115,8,23,Ticks_Phase_5,131,9999,9999,9999,915609708
115,8,23,Ticks_Phase_5,132,9999,9999,9999,916109420
115,8,23,Ticks_Phase_5,133,9999,9999,9999,916609128
115,8,23,Ticks_Phase_5,134,9999,9999,9999,917109860
115,8,23,Ticks_Phase_5,135,9999,9999,9999,917609548
115,8,23,Ticks_Phase_5,136,9999,9999,9999,918109312
115,8,23,Ticks_Phase_5,137,9999,9999,9999,918610044
115,8,23,Ticks_Phase_5,138,9999,9999,9999,919109732
115,8,23,Ticks_Phase_5,139,9999,9999,9999,919609420
115,8,23,Ticks_Phase_5,140,9999,9999,9999,920109112
115,8,23,Ticks_Phase_5,141,9999,9999,9999,920609920
115,8,23,Ticks_Phase_5,142,9999,9999,9999,921109608
115,8,23,Ticks_Phase_5,143,9999,9999,9999,921609296
115,8,23,Ticks_Phase_5,144,9999,9999,9999,922110028
115,8,23,Ticks_Phase_5,145,9999,9999,9999,922609720
115,8,23,Ticks_Phase_5,146,9999,9999,9999,923109484
115,8,23,Ticks_Phase_5,147,9999,9999,9999,923609176
115,8,23,Ticks_Phase_5,148,9999,9999,9999,924109912
115,8,23,Ticks_Phase_5,149,9999,9999,9999,924609600
115,8,23,Ticks_Phase_5,150,9999,9999,9999,925010040
115,8,23,Ticks_Phase_5,151,9999,9999,9999,925509728
115,8,23,Ticks_Phase_5,152,9999,9999,9999,926009416
115,8,23,Ticks_Phase_5,153,9999,9999,9999,926509180
115,8,23,Ticks_Phase_5,154,9999,9999,9999,927009908
115,8,23,Ticks_Phase_5,155,9999,9999,9999,927509596
115,8,23,Ticks_Phase_5,156,9999,9999,9999,928009284
115,8,23,Ticks_Phase_5,157,9999,9999,9999,928510020
115,8,23,Ticks_Phase_5,158,9999,9999,9999,929009784
115,8,23,Ticks_Phase_5,159,9999,9999,9999,929509480
115,8,23,Ticks_Phase_5,160,9999,9999,9999,930009168
115,8,23,Ticks_Phase_5,161,9999,9999,9999,930509904
115,8,23,Ticks_Phase_5,162,9999,9999,9999,931009660
115,8,23,Ticks_Phase_5,163,9999,9999,9999,931509348
115,8,23,Ticks_Phase_5,164,9999,9999,9999,932010056
115,8,23,Ticks_Phase_5,165,9999,9999,9999,932509820
115,8,23,Ticks_Phase_5,166,9999,9999,9999,933009508
115,8,23,Ticks_Phase_5,167,9999,9999,9999,933509196
115,8,23,Ticks_Phase_5,168,9999,9999,9999,934009932
115,8,23,Ticks_Phase_5,169,9999,9999,9999,934509620
115,9,20,Ticks_Linear_8,0,5,42,127,1017091688
115,9,20,Ticks_Linear_8,1,5,42,127,1017911804
115,9,20,Ticks_Linear_8,2,5,42,127,1018731768
115,9,20,Ticks_Linear_8,3,5,42,127,1019552180
115,9,20,Ticks_Linear_8,4,5,42,127,1020372544
115,9,20,Ticks_Linear_8,5,1,48,32,1020389900
115,9,20,Ticks_Linear_8,6,5,42,127,1021182452
115,9,20,Ticks_Linear_8,7,1,48,28,1021183420
115,9,20,Ticks_Linear_8,8,5,42,127,1021992436
115,9,20,Ticks_Linear_8,9,1,48,28,1022001924
115,9,20,Ticks_Linear_8,10,5,42,127,1022802492
115,9,20,Ticks_Linear_8,11,1,48,23,1022828900
115,9,20,Ticks_Linear_8,12,1,48,31,1023579708
115,9,20,Ticks_Linear_8,13,5,42,127,1023612396
115,9,20,Ticks_Linear_8,14,5,42,127,1024422236
115,9,20,Ticks_Linear_8,15,1,48,27,1024436688
115,9,20,Ticks_Linear_8,16,1,48,33,1025210636
115,9,20,Ticks_Linear_8,17,5,42,127,1025221976
115,9,20,Ticks_Linear_8,18,5,42,127,1026021708
115,9,20,Ticks_Linear_8,19,1,48,30,1026043400
115,9,20,Ticks_Linear_8,20,5,42,127,1026821432
115,9,20,Ticks_Linear_8,21,1,48,27,1026874652
115,9,20,Ticks_Linear_8,22,1,48,26,1027621144
115,9,20,Ticks_Linear_8,23,5,42,127,1027622716
115,9,20,Ticks_Linear_8,24,1,48,22,1028361968
115,9,20,Ticks_Linear_8,25,5,42,127,1028422072
115,9,20,Ticks_Linear_8,26,5,42,127,1029211392
115,9,20,Ticks_Linear_8,27,1,48,32,1029222372
115,9,20,Ticks_Linear_8,28,1,48,27,1029974892
115,9,20,Ticks_Linear_8,29,5,42,127,1030002044
115,9,20,Ticks_Linear_8,30,5,42,127,1030791516
115,9,20,Ticks_Linear_8,31,1,48,15,1030830364
115,9,20,Ticks_Linear_8,32,5,42,127,1031582004
115,9,20,Ticks_Linear_8,33,1,48,17,1031601028
115,9,20,Ticks_Linear_8,34,5,42,127,1032371568
115,9,20,Ticks_Linear_8,35,5,42,127,1033151844
115,9,20,Ticks_Linear_8,36,1,48,20,1033180504
115,9,20,Ticks_Linear_8,37,1,48,17,1033923960
115,9,20,Ticks_Linear_8,38,5,42,127,1033932164
115,9,20,Ticks_Linear_8,39,1,48,18,1034689840
115,9,20,Ticks_Linear_8,40,5,42,127,1034712640
115,9,20,Ticks_Linear_8,41,1,48,15,1035465144
115,9,20,Ticks_Linear_8,42,5,42,127,1035501808
115,9,20,Ticks_Linear_8,43,5,42,127,1036282436
115,9,20,Ticks_Linear_8,44,1,48,14,1037046708
115,9,20,Ticks_Linear_8,45,5,42,127,1037052372
115,9,20,Ticks_Linear_8,46,1,48,24,1037802784
115,9,20,Ticks_Linear_8,47,5,42,127,1037822220
115,9,20,Ticks_Linear_8,48,1,48,22,1038590400
115,9,20,Ticks_Linear_8,49,5,42,127,1038592436
115,9,20,Ticks_Linear_8,50,5,42,127,1039362364
115,9,20,Ticks_Linear_8,51,1,48,20,1039363624
115,9,20,Ticks_Linear_8,52,5,42,127,1040141864
115,9,20,Ticks_Linear_8,53,1,48,19,1040156068
115,9,20,Ticks_Linear_8,54,1,48,20,1040896312
115,9,20,Ticks_Linear_8,55,5,42,127,1040901520
115,9,20,Ticks_Linear_8,56,5,42,127,1041662528
115,9,20,Ticks_Linear_8,57,1,48,21,1041677408
115,9,20,Ticks_Linear_8,58,5,42,127,1042422412
115,9,20,Ticks_Linear_8,59,1,48,15,1042434148
115,9,20,Ticks_Linear_8,60,5,42,127,1043182072
115,9,20,Ticks_Linear_8,61,1,48,16,1043196796
115,9,20,Ticks_Linear_8,62,1,48,16,1043903572
115,9,20,Ticks_Linear_8,63,5,42,127,1043941728
115,9,20,Ticks_Linear_8,64,1,48,13,1044675576
115,9,20,Ticks_Linear_8,65,5,42,127,1044692248
115,9,20,Ticks_Linear_8,66,5,42,127,1045441956
115,9,20,Ticks_Linear_8,67,1,48,17,1045442920
115,9,20,Ticks_Linear_8,68,1,48,16,1046190452
115,9,20,Ticks_Linear_8,69,5,42,127,1046191944
115,9,20,Ticks_Linear_8,70,1,48,16,1046926748
115,9,20,Ticks_Linear_8,71,5,42,127,1046942220
115,9,20,Ticks_Linear_8,72,1,48,17,1047673676
115,9,20,Ticks_Linear_8,73,5,42,127,1047691544
115,9,20,Ticks_Linear_8,74,1,48,15,1048404876
115,9,20,Ticks_Linear_8,75,5,42,127,1048432180
115,9,20,Ticks_Linear_8,76,5,42,127,1049172300
115,9,20,Ticks_Linear_8,77,1,48,15,1049173860
115,9,20,Ticks_Linear_8,78,5,42,127,1049911668
115,9,20,Ticks_Linear_8,79,5,42,127,1050652172
115,9,20,Ticks_Linear_8,80,1,48,20,1050659184
115,9,20,Ticks_Linear_8,81,1,48,24,1051338092
115,9,20,Ticks_Linear_8,82,5,42,127,1051392284
115,9,20,Ticks_Linear_8,83,5,42,127,1052121396
115,9,20,Ticks_Linear_8,84,1,48,21,1052160988
115,9,20,Ticks_Linear_8,85,5,42,127,1052851624
115,9,20,Ticks_Linear_8,86,1,48,24,1052862156
115,9,20,Ticks_Linear_8,87,1,48,19,1053546880
115,9,20,Ticks_Linear_8,88,5,42,127,1053581668
115,9,20,Ticks_Linear_8,89,5,42,127,1054312200
115,9,20,Ticks_Linear_8,90,1,48,21,1054325280
115,9,20,Ticks_Linear_8,91,5,42,127,1055042056
115,9,20,Ticks_Linear_8,92,5,42,127,1055761748
115,9,20,Ticks_Linear_8,93,1,48,18,1055768232
115,9,20,Ticks_Linear_8,94,1,48,22,1056463996
115,9,20,Ticks_Linear_8,95,5,42,127,1056481636
115,9,20,Ticks_Linear_8,96,5,42,127,1057201388
115,9,20,Ticks_Linear_8,97,1,48,17,1057211848
115,9,20,Ticks_Linear_8,98,5,42,127,1057922304
115,9,20,Ticks_Linear_8,99,1,48,16,1057947508
115,9,20,Ticks_Linear_8,100,1,48,18,1058626192
115,9,20,Ticks_Linear_8,101,5,42,127,1058651404
115,9,20,Ticks_Linear_8,102,1,48,18,1059351860
115,9,20,Ticks_Linear_8,103,5,42,127,1059362160
115,9,20,Ticks_Linear_8,104,5,42,127,1060072020
115,9,20,Ticks_Linear_8,105,1,48,30,1060735992
115,9,20,Ticks_Linear_8,106,5,42,127,1060781448
115,9,20,Ticks_Linear_8,107,1,48,30,1061458880
115,9,20,Ticks_Linear_8,108,5,42,127,1061492180
115,9,20,Ticks_Linear_8,109,1,48,38,1062172492
115,9,20,Ticks_Linear_8,110,5,42,127,1062201668
115,9,20,Ticks_Linear_8,111,5,42,127,1062902096
115,9,20,Ticks_Linear_8,112,1,48,34,1062904992
115,9,20,Ticks_Linear_8,113,5,42,127,1063601472
115,9,20,Ticks_Linear_8,114,1,48,28,1063606980
115,9,20,Ticks_Linear_8,115,5,42,127,1064301940
115,9,20,Ticks_Linear_8,116,1,48,23,1064326100
115,9,20,Ticks_Linear_8,117,1,48,23,1064951396
115,9,20,Ticks_Linear_8,118,5,42,127,1065002284
115,9,20,Ticks_Linear_8,119,1,48,19,1065658476
115,9,20,Ticks_Linear_8,120,5,42,127,1065702032
115,9,20,Ticks_Linear_8,121,5,42,127,1066392100
115,9,20,Ticks_Linear_8,122,1,48,23,1066412920
115,9,20,Ticks_Linear_8,123,5,42,127,1067081968
115,9,20,Ticks_Linear_8,124,1,48,23,1067105900
115,9,20,Ticks_Linear_8,125,1,48,20,1067755152
115,9,20,Ticks_Linear_8,126,5,42,127,1067772344
115,9,20,Ticks_Linear_8,127,1,48,24,1068435032
115,9,20,Ticks_Linear_8,128,5,42,127,1068461464
115,9,20,Ticks_Linear_8,129,1,48,23,1069107820
115,9,20,Ticks_Linear_8,130,5,42,127,1069152048
115,9,20,Ticks_Linear_8,131,1,48,16,1069779560
115,9,20,Ticks_Linear_8,132,5,42,127,1069831952
115,9,20,Ticks_Linear_8,133,1,48,17,1070493896
115,9,20,Ticks_Linear_8,134,5,42,127,1070511484
115,9,20,Ticks_Linear_8,135,1,48,31,1071164208
115,9,20,Ticks_Linear_8,136,5,42,127,1071192408
115,9,20,Ticks_Linear_8,137,1,48,35,1071818800
115,9,20,Ticks_Linear_8,138,5,42,127,1071881524
115,9,20,Ticks_Linear_8,139,1,48,27,1072484300
115,9,20,Ticks_Linear_8,140,5,42,127,1072561432
115,9,20,Ticks_Linear_8,141,1,48,28,1073190200
115,9,20,Ticks_Linear_8,142,5,42,127,1073232244
115,9,20,Ticks_Linear_8,143,1,48,28,1073892792
115,9,20,Ticks_Linear_8,144,5,42,127,1073901968
115,9,20,Ticks_Linear_8,145,1,48,26,1074555588
115,9,20,Ticks_Linear_8,146,5,42,127,1074571736
115,9,20,Ticks_Linear_8,147,1,48,30,1075210488
115,9,20,Ticks_Linear_8,148,5,42,127,1075242500
115,9,20,Ticks_Linear_8,149,5,42,127,1075911932
115,9,20,Ticks_Linear_8,150,1,48,29,1075915420
115,9,20,Ticks_Linear_8,151,1,48,27,1076568616
115,9,20,Ticks_Linear_8,152,5,42,127,1076571660
115,9,20,Ticks_Linear_8,153,5,42,127,1077231948
115,9,20,Ticks_Linear_8,154,1,48,20,1077255212
115,9,20,Ticks_Linear_8,155,5,42,127,1077891532
115,9,20,Ticks_Linear_8,156,1,48,22,1077907756
115,9,20,Ticks_Linear_8,157,1,48,22,1078535440
115,9,20,Ticks_Linear_8,158,5,42,127,1078551884
115,9,20,Ticks_Linear_8,159,1,48,32,1079160208
115,9,20,Ticks_Linear_8,160,5,42,127,1079212540
115,9,20,Ticks_Linear_8,161,1,48,25,1079847888
115,9,20,Ticks_Linear_8,162,5,42,127,1079861716
115,9,20,Ticks_Linear_8,163,1,48,32,1080503836
115,9,20,Ticks_Linear_8,164,5,42,127,1080511888
115,9,20,Ticks_Linear_8,165,5,42,127,1081162044
115,9,20,Ticks_Linear_8,166,1,48,32,1081183292
115,9,20,Ticks_Linear_8,167,5,42,127,1081812292
115,9,20,Ticks_Linear_8,168,1,48,29,1081817432
115,9,20,Ticks_Linear_8,169,1,48,26,1082449956
115,9,20,Ticks_Linear_8,170,5,42,127,1082461536
115,9,20,Ticks_Linear_8,171,1,48,27,1083094592
115,9,20,Ticks_Linear_8,172,5,42,127,1083101824
115,9,20,Ticks_Linear_8,173,1,48,23,1083728936
115,9,20,Ticks_Linear_8,174,5,42,127,1083741488
115,9,20,Ticks_Linear_8,175,1,48,28,1084352232
115,9,20,Ticks_Linear_8,176,5,42,127,1084381704
115,9,20,Ticks_Linear_8,177,1,48,25,1084988672
115,9,20,Ticks_Linear_8,178,5,42,127,1085021668
115,9,20,Ticks_Linear_8,179,1,48,24,1085658168
115,9,20,Ticks_Linear_8,180,5,42,127,1085661804
115,9,20,Ticks_Linear_8,181,1,48,20,1086279708
115,9,20,Ticks_Linear_8,182,5,42,127,1086292260
115,9,20,Ticks_Linear_8,183,1,48,29,1086904424
115,9,20,Ticks_Linear_8,184,5,42,127,1086922136
115,9,20,Ticks_Linear_8,185,1,48,20,1087537716
115,9,20,Ticks_Linear_8,186,5,42,127,1087551844
115,9,20,Ticks_Linear_8,187,1,48,30,1088149908
115,9,20,Ticks_Linear_8,188,5,42,127,1088181796
115,9,20,Ticks_Linear_8,189,5,42,127,1088812628
115,9,20,Ticks_Linear_8,190,1,48,32,1088841140
115,9,20,Ticks_Linear_8,191,5,42,127,1089431848
115,9,20,Ticks_Linear_8,192,1,48,28,1089464724
115,9,20,Ticks_Linear_8,193,1,48,28,1090049880
115,9,20,Ticks_Linear_8,194,5,42,127,1090051536
115,9,20,Ticks_Linear_8,195,1,48,28,1090650352
115,9,20,Ticks_Linear_8,196,5,42,127,1090671880
115,9,20,Ticks_Linear_8,197,5,42,127,1091291656
115,9,20,Ticks_Linear_8,198,1,48,26,1091308776
115,9,20,Ticks_Linear_8,199,5,42,127,1091911928
115,9,20,Ticks_Linear_8,200,1,48,32,1091913788
115,9,20,Ticks_Linear_8,201,5,42,127,1092522604
115,9,20,Ticks_Linear_8,202,1,48,24,1092544248
115,9,20,Ticks_Linear_8,203,5,42,127,1093131592
115,9,20,Ticks_Linear_8,204,1,48,29,1093183088
115,9,20,Ticks_Linear_8,205,5,42,127,1093741976
115,9,20,Ticks_Linear_8,206,5,42,127,1094352332
115,9,20,Ticks_Linear_8,207,1,48,31,1094393344
115,9,20,Ticks_Linear_8,208,1,48,31,1094960840
115,9,20,Ticks_Linear_8,209,5,42,127,1094962484
115,9,20,Ticks_Linear_8,210,5,42,127,1095561716
115,9,20,Ticks_Linear_8,211,1,48,15,1095614588
115,9,20,Ticks_Linear_8,212,5,42,127,1096161640
115,9,20,Ticks_Linear_8,213,1,48,18,1096187820
115,9,20,Ticks_Linear_8,214,5,42,127,1096761688
115,9,20,Ticks_Linear_8,215,1,48,25,1096786744
115,9,20,Ticks_Linear_8,216,5,42,127,1097361736
115,9,20,Ticks_Linear_8,217,1,48,23,1097396484
115,9,20,Ticks_Linear_8,218,5,42,127,1097961740
115,9,20,Ticks_Linear_8,219,1,48,29,1097983728
115,9,20,Ticks_Linear_8,220,5,42,127,1098551600
115,9,20,Ticks_Linear_8,221,1,48,24,1098562360
115,9,20,Ticks_Linear_8,222,5,42,127,1099141464
115,9,20,Ticks_Linear_8,223,1,48,20,1099175436
115,9,20,Ticks_Linear_8,224,5,42,127,1099732476
115,9,20,Ticks_Linear_8,225,1,48,28,1100237916
115,9,20,Ticks_Linear_8,226,5,42,127,1100322284
115,9,20,Ticks_Linear_8,227,5,42,127,1100912004
115,9,20,Ticks_Linear_8,228,1,48,17,1100913564
115,9,20,Ticks_Linear_8,229,1,48,21,1101489188
115,9,20,Ticks_Linear_8,230,5,42,127,1101491628
115,9,20,Ticks_Linear_8,231,1,48,32,1102058080
115,9,20,Ticks_Linear_8,232,5,42,127,1102072204
115,9,20,Ticks_Linear_8,233,1,48,29,1102627424
115,9,20,Ticks_Linear_8,234,5,42,127,1102651736
115,9,20,Ticks_Linear_8,235,1,48,26,1103198640
115,9,20,Ticks_Linear_8,236,5,42,127,1103232460
115,9,20,Ticks_Linear_8,237,1,48,29,1103788456
115,9,20,Ticks_Linear_8,238,5,42,127,1103812092
115,9,20,Ticks_Linear_8,239,1,48,19,1104356684
115,9,20,Ticks_Linear_8,240,5,42,127,1104382412
115,9,20,Ticks_Linear_8,241,1,48,18,1104913896
115,9,20,Ticks_Linear_8,242,5,42,127,1104951608
115,9,20,Ticks_Linear_8,243,5,42,127,1105521932
115,9,20,Ticks_Linear_8,244,1,48,27,1105526544
115,9,20,Ticks_Linear_8,245,1,48,23,1106053932
115,9,20,Ticks_Linear_8,246,5,42,127,1106092492
115,9,20,Ticks_Linear_8,247,1,48,19,1106658044
115,9,20,Ticks_Linear_8,248,5,42,127,1106661688
115,9,20,Ticks_Linear_8,249,1,48,27,1107220460
115,9,20,Ticks_Linear_8,250,5,42,127,1107221820
115,9,20,Ticks_Linear_8,251,1,48,20,1107777568
115,9,20,Ticks_Linear_8,252,5,42,127,1107781952
115,9,20,Ticks_Linear_8,253,1,48,31,1108293072
115,9,20,Ticks_Linear_8,254,5,42,127,1108342460
115,9,20,Ticks_Linear_8,255,5,42,127,1108902228
115,9,20,Ticks_Linear_8,256,1,48,31,1108919072
115,9,20,Ticks_Linear_8,257,5,42,127,1109462312
115,9,20,Ticks_Linear_8,258,1,48,29,1110002728
115,9,20,Ticks_Linear_8,259,5,42,127,1110012276
115,9,20,Ticks_Linear_8,260,1,48,34,1110539724
115,9,20,Ticks_Linear_8,261,5,42,127,1110562300
115,9,20,Ticks_Linear_8,262,1,48,34,1111103372
115,9,20,Ticks_Linear_8,263,5,42,127,1111112248
115,9,20,Ticks_Linear_8,264,1,48,24,1111642984
115,9,20,Ticks_Linear_8,265,5,42,127,1111661976
115,9,20,Ticks_Linear_8,266,1,48,24,1112168968
115,9,20,Ticks_Linear_8,267,5,42,127,1112211852
115,9,20,Ticks_Linear_8,268,1,48,35,1112733152
115,9,20,Ticks_Linear_8,269,5,42,127,1112751416
115,9,20,Ticks_Linear_8,270,5,42,127,1113292312
115,9,20,Ticks_Linear_8,271,1,48,34,1113299100
115,9,20,Ticks_Linear_8,272,5,42,127,1113831704
115,9,20,Ticks_Linear_8,273,1,48,27,1113842240
115,9,20,Ticks_Linear_8,274,1,48,22,1114363936
115,9,20,Ticks_Linear_8,275,5,42,127,1114371388
115,9,20,Ticks_Linear_8,276,1,48,27,1114895384
115,9,20,Ticks_Linear_8,277,5,42,127,1114912128
115,9,20,Ticks_Linear_8,278,1,48,22,1115414032
115,9,20,Ticks_Linear_8,279,5,42,127,1115441408
115,9,20,Ticks_Linear_8,280,1,48,23,1115935000
115,9,20,Ticks_Linear_8,281,5,42,127,1115972108
115,9,20,Ticks_Linear_8,282,1,48,27,1116479788
115,9,20,Ticks_Linear_8,283,5,42,127,1116502364
115,9,20,Ticks_Linear_8,284,1,48,26,1117026360
115,9,20,Ticks_Linear_8,285,5,42,127,1117031868
115,9,20,Ticks_Linear_8,286,5,42,127,1117562280
115,9,20,Ticks_Linear_8,287,1,48,27,1117575284
115,9,20,Ticks_Linear_8,288,1,48,29,1118080380
115,9,20,Ticks_Linear_8,289,5,42,127,1118082344
115,9,20,Ticks_Linear_8,290,1,48,27,1118585296
115,9,20,Ticks_Linear_8,291,5,42,127,1118611700
115,9,20,Ticks_Linear_8,292,5,42,127,1119132296
115,9,20,Ticks_Linear_8,293,1,48,23,1119137436
115,9,20,Ticks_Linear_8,294,1,48,27,1119639504
115,9,20,Ticks_Linear_8,295,5,42,127,1119652212
115,9,20,Ticks_Linear_8,296,1,48,19,1120166920
115,9,20,Ticks_Linear_8,297,5,42,127,1120172308
115,9,20,Ticks_Linear_8,298,1,48,24,1120671044
115,9,20,Ticks_Linear_8,299,5,42,127,1120682412
115,9,20,Ticks_Linear_8,300,1,48,24,1121176352
115,9,20,Ticks_Linear_8,301,5,42,127,1121192272
115,9,20,Ticks_Linear_8,302,1,48,29,1121681076
115,9,20,Ticks_Linear_8,303,5,42,127,1121702380
115,9,20,Ticks_Linear_8,304,1,48,33,1122201444
115,9,20,Ticks_Linear_8,305,5,42,127,1122212264
115,9,20,Ticks_Linear_8,306,1,48,18,1122715144
115,9,20,Ticks_Linear_8,307,5,42,127,1122722076
115,9,20,Ticks_Linear_8,308,1,48,24,1123171860
115,9,20,Ticks_Linear_8,309,5,42,127,1123222000
115,9,20,Ticks_Linear_8,310,1,48,28,1123694924
115,9,20,Ticks_Linear_8,311,5,42,127,1123721476
115,9,20,Ticks_Linear_8,312,1,48,26,1124214764
115,9,20,Ticks_Linear_8,313,5,42,127,1124222224
115,9,20,Ticks_Linear_8,314,1,48,24,1124697912
115,9,20,Ticks_Linear_8,315,5,42,127,1124722144
115,9,20,Ticks_Linear_8,316,1,48,27,1125181292
115,9,20,Ticks_Linear_8,317,5,42,127,1125221624
115,9,20,Ticks_Linear_8,318,1,48,21,1125701288
115,9,20,Ticks_Linear_8,319,5,42,127,1125712112
115,9,20,Ticks_Linear_8,320,1,48,21,1126174900
115,9,20,Ticks_Linear_8,321,5,42,127,1126201676
115,9,20,Ticks_Linear_8,322,1,48,24,1126650416
115,9,20,Ticks_Linear_8,323,5,42,127,1126692240
115,9,20,Ticks_Linear_8,324,1,48,18,1127172876
115,9,20,Ticks_Linear_8,325,5,42,127,1127181828
115,9,20,Ticks_Linear_8,326,1,48,22,1127661048
115,9,20,Ticks_Linear_8,327,5,42,127,1127672096
115,9,20,Ticks_Linear_8,0,9999,9999,9999,1017089092
115,9,20,Ticks_Linear_8,1,9999,9999,9999,1017909356
115,9,20,Ticks_Linear_8,2,9999,9999,9999,1018729544
115,9,20,Ticks_Linear_8,3,9999,9999,9999,1019549808
115,9,20,Ticks_Linear_8,4,9999,9999,9999,1020370020
115,9,20,Ticks_Linear_8,5,9999,9999,9999,1021180004
115,9,20,Ticks_Linear_8,6,9999,9999,9999,1021989988
115,9,20,Ticks_Linear_8,7,9999,9999,9999,1022799972
115,9,20,Ticks_Linear_8,8,9999,9999,9999,1023609948
115,9,20,Ticks_Linear_8,9,9999,9999,9999,1024419936
115,9,20,Ticks_Linear_8,10,9999,9999,9999,1025219680
115,9,20,Ticks_Linear_8,11,9999,9999,9999,1026019408
115,9,20,Ticks_Linear_8,12,9999,9999,9999,1026819136
115,9,20,Ticks_Linear_8,13,9999,9999,9999,1027619904
115,9,20,Ticks_Linear_8,14,9999,9999,9999,1028419696
115,9,20,Ticks_Linear_8,15,9999,9999,9999,1029209168
115,9,20,Ticks_Linear_8,16,9999,9999,9999,1029999672
115,9,20,Ticks_Linear_8,17,9999,9999,9999,1030789220
115,9,20,Ticks_Linear_8,18,9999,9999,9999,1031579704
115,9,20,Ticks_Linear_8,19,9999,9999,9999,1032369268
115,9,20,Ticks_Linear_8,20,9999,9999,9999,1033149544
115,9,20,Ticks_Linear_8,21,9999,9999,9999,1033929788
115,9,20,Ticks_Linear_8,22,9999,9999,9999,1034710116
115,9,20,Ticks_Linear_8,23,9999,9999,9999,1035499584
115,9,20,Ticks_Linear_8,24,9999,9999,9999,1036279916
115,9,20,Ticks_Linear_8,25,9999,9999,9999,1037049924
115,9,20,Ticks_Linear_8,26,9999,9999,9999,1037819996
115,9,20,Ticks_Linear_8,27,9999,9999,9999,1038590012
115,9,20,Ticks_Linear_8,28,9999,9999,9999,1039360064
115,9,20,Ticks_Linear_8,29,9999,9999,9999,1040139344
115,9,20,Ticks_Linear_8,30,9999,9999,9999,1040899148
115,9,20,Ticks_Linear_8,31,9999,9999,9999,1041660008
115,9,20,Ticks_Linear_8,32,9999,9999,9999,1042419816
115,9,20,Ticks_Linear_8,33,9999,9999,9999,1043179624
115,9,20,Ticks_Linear_8,34,9999,9999,9999,1043939428
115,9,20,Ticks_Linear_8,35,9999,9999,9999,1044690024
115,9,20,Ticks_Linear_8,36,9999,9999,9999,1045439580
115,9,20,Ticks_Linear_8,37,9999,9999,9999,1046189132
115,9,20,Ticks_Linear_8,38,9999,9999,9999,1046939772
115,9,20,Ticks_Linear_8,39,9999,9999,9999,1047689320
115,9,20,Ticks_Linear_8,40,9999,9999,9999,1048429660
115,9,20,Ticks_Linear_8,41,9999,9999,9999,1049170004
115,9,20,Ticks_Linear_8,42,9999,9999,9999,1049909368
115,9,20,Ticks_Linear_8,43,9999,9999,9999,1050649728
115,9,20,Ticks_Linear_8,44,9999,9999,9999,1051390056
115,9,20,Ticks_Linear_8,45,9999,9999,9999,1052119100
115,9,20,Ticks_Linear_8,46,9999,9999,9999,1052849248
115,9,20,Ticks_Linear_8,47,9999,9999,9999,1053579372
115,9,20,Ticks_Linear_8,48,9999,9999,9999,1054309456
115,9,20,Ticks_Linear_8,49,9999,9999,9999,1055039608
115,9,20,Ticks_Linear_8,50,9999,9999,9999,1055759448
115,9,20,Ticks_Linear_8,51,9999,9999,9999,1056479340
115,9,20,Ticks_Linear_8,52,9999,9999,9999,1057199164
115,9,20,Ticks_Linear_8,53,9999,9999,9999,1057920080
115,9,20,Ticks_Linear_8,54,9999,9999,9999,1058649176
115,9,20,Ticks_Linear_8,55,9999,9999,9999,1059359860
115,9,20,Ticks_Linear_8,56,9999,9999,9999,1060069500
115,9,20,Ticks_Linear_8,57,9999,9999,9999,1060779124
115,9,20,Ticks_Linear_8,58,9999,9999,9999,1061489732
115,9,20,Ticks_Linear_8,59,9999,9999,9999,1062199368
115,9,20,Ticks_Linear_8,60,9999,9999,9999,1062899796
115,9,20,Ticks_Linear_8,61,9999,9999,9999,1063599172
115,9,20,Ticks_Linear_8,62,9999,9999,9999,1064299644
115,9,20,Ticks_Linear_8,63,9999,9999,9999,1065000060
115,9,20,Ticks_Linear_8,64,9999,9999,9999,1065699436
115,9,20,Ticks_Linear_8,65,9999,9999,9999,1066389580
115,9,20,Ticks_Linear_8,66,9999,9999,9999,1067079744
115,9,20,Ticks_Linear_8,67,9999,9999,9999,1067769972
115,9,20,Ticks_Linear_8,68,9999,9999,9999,1068459064
115,9,20,Ticks_Linear_8,69,9999,9999,9999,1069149304
115,9,20,Ticks_Linear_8,70,9999,9999,9999,1069829208
115,9,20,Ticks_Linear_8,71,9999,9999,9999,1070509112
115,9,20,Ticks_Linear_8,72,9999,9999,9999,1071190112
115,9,20,Ticks_Linear_8,73,9999,9999,9999,1071879228
115,9,20,Ticks_Linear_8,74,9999,9999,9999,1072559204
115,9,20,Ticks_Linear_8,75,9999,9999,9999,1073229948
115,9,20,Ticks_Linear_8,76,9999,9999,9999,1073899592
115,9,20,Ticks_Linear_8,77,9999,9999,9999,1074569288
115,9,20,Ticks_Linear_8,78,9999,9999,9999,1075240052
115,9,20,Ticks_Linear_8,79,9999,9999,9999,1075909704
115,9,20,Ticks_Linear_8,80,9999,9999,9999,1076569212
115,9,20,Ticks_Linear_8,81,9999,9999,9999,1077229648
115,9,20,Ticks_Linear_8,82,9999,9999,9999,1077889084
115,9,20,Ticks_Linear_8,83,9999,9999,9999,1078549584
115,9,20,Ticks_Linear_8,84,9999,9999,9999,1079210064
115,9,20,Ticks_Linear_8,85,9999,9999,9999,1079859268
115,9,20,Ticks_Linear_8,86,9999,9999,9999,1080509516
115,9,20,Ticks_Linear_8,87,9999,9999,9999,1081159744
115,9,20,Ticks_Linear_8,88,9999,9999,9999,1081809996
115,9,20,Ticks_Linear_8,89,9999,9999,9999,1082459236
115,9,20,Ticks_Linear_8,90,9999,9999,9999,1083099224
115,9,20,Ticks_Linear_8,91,9999,9999,9999,1083739192
115,9,20,Ticks_Linear_8,92,9999,9999,9999,1084379256
115,9,20,Ticks_Linear_8,93,9999,9999,9999,1085019220
115,9,20,Ticks_Linear_8,94,9999,9999,9999,1085659208
115,9,20,Ticks_Linear_8,95,9999,9999,9999,1086290036
115,9,20,Ticks_Linear_8,96,9999,9999,9999,1086919764
115,9,20,Ticks_Linear_8,97,9999,9999,9999,1087549544
115,9,20,Ticks_Linear_8,98,9999,9999,9999,1088179272
115,9,20,Ticks_Linear_8,99,9999,9999,9999,1088810104
115,9,20,Ticks_Linear_8,100,9999,9999,9999,1089429624
115,9,20,Ticks_Linear_8,101,9999,9999,9999,1090049096
115,9,20,Ticks_Linear_8,102,9999,9999,9999,1090669656
115,9,20,Ticks_Linear_8,103,9999,9999,9999,1091289208
115,9,20,Ticks_Linear_8,104,9999,9999,9999,1091909700
115,9,20,Ticks_Linear_8,105,9999,9999,9999,1092520008
115,9,20,Ticks_Linear_8,106,9999,9999,9999,1093129296
115,9,20,Ticks_Linear_8,107,9999,9999,9999,1093739600
115,9,20,Ticks_Linear_8,108,9999,9999,9999,1094349884
115,9,20,Ticks_Linear_8,109,9999,9999,9999,1094959220
115,9,20,Ticks_Linear_8,110,9999,9999,9999,1095559268
115,9,20,Ticks_Linear_8,111,9999,9999,9999,1096159344
115,9,20,Ticks_Linear_8,112,9999,9999,9999,1096759388
115,9,20,Ticks_Linear_8,113,9999,9999,9999,1097359440
115,9,20,Ticks_Linear_8,114,9999,9999,9999,1097959512
115,9,20,Ticks_Linear_8,115,9999,9999,9999,1098549304
115,9,20,Ticks_Linear_8,116,9999,9999,9999,1099139164
115,9,20,Ticks_Linear_8,117,9999,9999,9999,1099730028
115,9,20,Ticks_Linear_8,118,9999,9999,9999,1100319836
115,9,20,Ticks_Linear_8,119,9999,9999,9999,1100909632
115,9,20,Ticks_Linear_8,120,9999,9999,9999,1101489256
115,9,20,Ticks_Linear_8,121,9999,9999,9999,1102069832
115,9,20,Ticks_Linear_8,122,9999,9999,9999,1102649436
115,9,20,Ticks_Linear_8,123,9999,9999,9999,1103230012
115,9,20,Ticks_Linear_8,124,9999,9999,9999,1103809644
115,9,20,Ticks_Linear_8,125,9999,9999,9999,1104379964
115,9,20,Ticks_Linear_8,126,9999,9999,9999,1104949308
115,9,20,Ticks_Linear_8,127,9999,9999,9999,1105519708
115,9,20,Ticks_Linear_8,128,9999,9999,9999,1106090044
115,9,20,Ticks_Linear_8,129,9999,9999,9999,1106659388
115,9,20,Ticks_Linear_8,130,9999,9999,9999,1107219528
115,9,20,Ticks_Linear_8,131,9999,9999,9999,1107779656
115,9,20,Ticks_Linear_8,132,9999,9999,9999,1108339788
115,9,20,Ticks_Linear_8,133,9999,9999,9999,1108899932
115,9,20,Ticks_Linear_8,134,9999,9999,9999,1109460088
115,9,20,Ticks_Linear_8,135,9999,9999,9999,1110009980
115,9,20,Ticks_Linear_8,136,9999,9999,9999,1110559852
115,9,20,Ticks_Linear_8,137,9999,9999,9999,1111109728
115,9,20,Ticks_Linear_8,138,9999,9999,9999,1111659600
115,9,20,Ticks_Linear_8,139,9999,9999,9999,1112209480
115,9,20,Ticks_Linear_8,140,9999,9999,9999,1112749116
115,9,20,Ticks_Linear_8,141,9999,9999,9999,1113289788
115,9,20,Ticks_Linear_8,142,9999,9999,9999,1113829480
115,9,20,Ticks_Linear_8,143,9999,9999,9999,1114369092
115,9,20,Ticks_Linear_8,144,9999,9999,9999,1114909752
115,9,20,Ticks_Linear_8,145,9999,9999,9999,1115439184
115,9,20,Ticks_Linear_8,146,9999,9999,9999,1115969660
115,9,20,Ticks_Linear_8,147,9999,9999,9999,1116500064
115,9,20,Ticks_Linear_8,148,9999,9999,9999,1117029496
115,9,20,Ticks_Linear_8,149,9999,9999,9999,1117559904
115,9,20,Ticks_Linear_8,150,9999,9999,9999,1118080084
115,9,20,Ticks_Linear_8,151,9999,9999,9999,1118609476
115,9,20,Ticks_Linear_8,152,9999,9999,9999,1119129700
115,9,20,Ticks_Linear_8,153,9999,9999,9999,1119649912
115,9,20,Ticks_Linear_8,154,9999,9999,9999,1120170080
115,9,20,Ticks_Linear_8,155,9999,9999,9999,1120680016
115,9,20,Ticks_Linear_8,156,9999,9999,9999,1121189976
115,9,20,Ticks_Linear_8,157,9999,9999,9999,1121699936
115,9,20,Ticks_Linear_8,158,9999,9999,9999,1122209892
115,9,20,Ticks_Linear_8,159,9999,9999,9999,1122719852
115,9,20,Ticks_Linear_8,160,9999,9999,9999,1123219552
115,9,20,Ticks_Linear_8,161,9999,9999,9999,1123719252
115,9,20,Ticks_Linear_8,162,9999,9999,9999,1124220000
115,9,20,Ticks_Linear_8,163,9999,9999,9999,1124719700
115,9,20,Ticks_Linear_8,164,9999,9999,9999,1125219400
115,9,20,Ticks_Linear_8,165,9999,9999,9999,1125709888
115,9,20,Ticks_Linear_8,166,9999,9999,9999,1126199380
115,9,20,Ticks_Linear_8,167,9999,9999,9999,1126689864
115,9,20,Ticks_Linear_8,168,9999,9999,9999,1127179384
115,9,20,Ticks_Linear_8,169,9999,9999,9999,1127669872
115,10,21,Ticks_Linear_5,0,5,42,127,1136523808
115,10,21,Ticks_Linear_5,1,5,42,127,1137003984
115,10,21,Ticks_Linear_5,2,5,42,127,1137484160
115,10,21,Ticks_Linear_5,3,5,42,127,1137964336
115,10,21,Ticks_Linear_5,4,5,42,127,1138443836
115,10,21,Ticks_Linear_5,5,1,48,21,1138449504
115,10,21,Ticks_Linear_5,6,1,48,24,1138910608
115,10,21,Ticks_Linear_5,7,5,42,127,1138934096
115,10,21,Ticks_Linear_5,8,1,48,28,1139400124
115,10,21,Ticks_Linear_5,9,5,42,127,1139423536
115,10,21,Ticks_Linear_5,10,1,48,25,1139879576
115,10,21,Ticks_Linear_5,11,5,42,127,1139914020
115,10,21,Ticks_Linear_5,12,1,48,24,1140395632
115,10,21,Ticks_Linear_5,13,5,42,127,1140403760
115,10,21,Ticks_Linear_5,14,1,48,15,1140886772
115,10,21,Ticks_Linear_5,15,5,42,127,1140894076
115,10,21,Ticks_Linear_5,16,1,48,26,1141322668
115,10,21,Ticks_Linear_5,17,5,42,127,1141393924
115,10,21,Ticks_Linear_5,18,1,48,16,1141891288
115,10,21,Ticks_Linear_5,19,5,42,127,1141893400
115,10,21,Ticks_Linear_5,20,5,42,127,1142394228
115,10,21,Ticks_Linear_5,21,1,48,14,1142419512
115,10,21,Ticks_Linear_5,22,5,42,127,1142894000
115,10,21,Ticks_Linear_5,23,1,48,22,1143379816
115,10,21,Ticks_Linear_5,24,5,42,127,1143393864
115,10,21,Ticks_Linear_5,25,5,42,127,1143903904
115,10,21,Ticks_Linear_5,26,1,48,21,1143919228
115,10,21,Ticks_Linear_5,27,1,48,17,1144397712
115,10,21,Ticks_Linear_5,28,5,42,127,1144413632
115,10,21,Ticks_Linear_5,29,1,48,22,1144876520
115,10,21,Ticks_Linear_5,30,5,42,127,1144923592
115,10,21,Ticks_Linear_5,31,5,42,127,1145433332
115,10,21,Ticks_Linear_5,32,5,42,127,1145944660
115,10,21,Ticks_Linear_5,33,1,48,21,1145970768
115,10,21,Ticks_Linear_5,34,1,48,30,1146470288
115,10,21,Ticks_Linear_5,35,5,42,127,1146473932
115,10,21,Ticks_Linear_5,36,1,48,20,1146983028
115,10,21,Ticks_Linear_5,37,5,42,127,1146993928
115,10,21,Ticks_Linear_5,38,1,48,24,1147493136
115,10,21,Ticks_Linear_5,39,5,42,127,1147514144
115,10,21,Ticks_Linear_5,40,1,48,22,1147987888
115,10,21,Ticks_Linear_5,41,5,42,127,1148034360
115,10,21,Ticks_Linear_5,42,1,48,35,1148561120
115,10,21,Ticks_Linear_5,43,5,42,127,1148563792
115,10,21,Ticks_Linear_5,44,1,48,26,1149031632
115,10,21,Ticks_Linear_5,45,5,42,127,1149094120
115,10,21,Ticks_Linear_5,46,1,48,23,1149575208
115,10,21,Ticks_Linear_5,47,5,42,127,1149623724
115,10,21,Ticks_Linear_5,48,1,48,16,1150108828
115,10,21,Ticks_Linear_5,49,5,42,127,1150154128
115,10,21,Ticks_Linear_5,50,1,48,31,1150647720
115,10,21,Ticks_Linear_5,51,5,42,127,1150683556
115,10,21,Ticks_Linear_5,52,1,48,27,1151204712
115,10,21,Ticks_Linear_5,53,5,42,127,1151213816
115,10,21,Ticks_Linear_5,54,5,42,127,1151753584
115,10,21,Ticks_Linear_5,55,1,48,27,1151754552
115,10,21,Ticks_Linear_5,56,5,42,127,1152294248
115,10,21,Ticks_Linear_5,57,1,48,16,1152305460
115,10,21,Ticks_Linear_5,58,1,48,21,1152784088
115,10,21,Ticks_Linear_5,59,5,42,127,1152833780
115,10,21,Ticks_Linear_5,60,1,48,33,1153339272
115,10,21,Ticks_Linear_5,61,5,42,127,1153373620
115,10,21,Ticks_Linear_5,62,1,48,32,1153910564
115,10,21,Ticks_Linear_5,63,5,42,127,1153914208
115,10,21,Ticks_Linear_5,64,5,42,127,1154464012
115,10,21,Ticks_Linear_5,65,1,48,21,1154480408
115,10,21,Ticks_Linear_5,66,5,42,127,1155013912
115,10,21,Ticks_Linear_5,67,1,48,29,1155024892
115,10,21,Ticks_Linear_5,68,1,48,22,1155556024
115,10,21,Ticks_Linear_5,69,5,42,127,1155563928
115,10,21,Ticks_Linear_5,70,1,48,23,1156073924
115,10,21,Ticks_Linear_5,71,5,42,127,1156113804
115,10,21,Ticks_Linear_5,72,1,48,21,1156656968
115,10,21,Ticks_Linear_5,73,5,42,127,1156663752
115,10,21,Ticks_Linear_5,74,1,48,27,1157220472
115,10,21,Ticks_Linear_5,75,5,42,127,1157224036
115,10,21,Ticks_Linear_5,76,1,48,28,1157748256
115,10,21,Ticks_Linear_5,77,5,42,127,1157783944
115,10,21,Ticks_Linear_5,78,1,48,29,1158304124
115,10,21,Ticks_Linear_5,79,5,42,127,1158344104
115,10,21,Ticks_Linear_5,80,5,42,127,1158904168
115,10,21,Ticks_Linear_5,81,1,48,21,1159412604
115,10,21,Ticks_Linear_5,82,5,42,127,1159464240
115,10,21,Ticks_Linear_5,83,5,42,127,1160033596
115,10,21,Ticks_Linear_5,84,1,48,41,1160537388
115,10,21,Ticks_Linear_5,85,5,42,127,1160604004
115,10,21,Ticks_Linear_5,86,5,42,127,1161174356
115,10,21,Ticks_Linear_5,87,1,48,31,1161212524
115,10,21,Ticks_Linear_5,88,5,42,127,1161743848
115,10,21,Ticks_Linear_5,89,1,48,29,1161758052
115,10,21,Ticks_Linear_5,90,5,42,127,1162314168
115,10,21,Ticks_Linear_5,91,1,48,20,1162349636
115,10,21,Ticks_Linear_5,92,5,42,127,1162893696
115,10,21,Ticks_Linear_5,93,1,48,27,1162896444
115,10,21,Ticks_Linear_5,94,1,48,23,1163435236
115,10,21,Ticks_Linear_5,95,5,42,127,1163474440
115,10,21,Ticks_Linear_5,96,1,48,22,1164019624
115,10,21,Ticks_Linear_5,97,5,42,127,1164053744
115,10,21,Ticks_Linear_5,98,1,48,24,1164598108
115,10,21,Ticks_Linear_5,99,5,42,127,1164633500
115,10,21,Ticks_Linear_5,100,1,48,20,1165185060
115,10,21,Ticks_Linear_5,101,5,42,127,1165214004
115,10,21,Ticks_Linear_5,102,1,48,23,1165773900
115,10,21,Ticks_Linear_5,103,5,42,127,1165803816
115,10,21,Ticks_Linear_5,104,1,48,21,1166326240
115,10,21,Ticks_Linear_5,105,5,42,127,1166393604
115,10,21,Ticks_Linear_5,106,1,48,14,1166961792
115,10,21,Ticks_Linear_5,107,5,42,127,1166983544
115,10,21,Ticks_Linear_5,108,1,48,23,1167570760
115,10,21,Ticks_Linear_5,109,5,42,127,1167574552
115,10,21,Ticks_Linear_5,110,5,42,127,1168164348
115,10,21,Ticks_Linear_5,111,1,48,18,1168177432
115,10,21,Ticks_Linear_5,112,1,48,27,1168722344
115,10,21,Ticks_Linear_5,113,5,42,127,1168764464
115,10,21,Ticks_Linear_5,114,1,48,19,1169330940
115,10,21,Ticks_Linear_5,115,5,42,127,1169364316
115,10,21,Ticks_Linear_5,116,1,48,22,1169928000
115,10,21,Ticks_Linear_5,117,5,42,127,1169964512
115,10,21,Ticks_Linear_5,118,5,42,127,1170563592
115,10,21,Ticks_Linear_5,119,1,48,16,1171147840
115,10,21,Ticks_Linear_5,120,5,42,127,1171163460
115,10,21,Ticks_Linear_5,121,1,48,21,1171758444
115,10,21,Ticks_Linear_5,122,5,42,127,1171773764
115,10,21,Ticks_Linear_5,123,1,48,24,1172332440
115,10,21,Ticks_Linear_5,124,5,42,127,1172384296
115,10,21,Ticks_Linear_5,125,1,48,24,1172939024
115,10,21,Ticks_Linear_5,126,5,42,127,1172994480
115,10,21,Ticks_Linear_5,127,5,42,127,1173614004
115,10,21,Ticks_Linear_5,128,1,48,19,1173624464
115,10,21,Ticks_Linear_5,129,5,42,127,1174224412
115,10,21,Ticks_Linear_5,130,1,48,24,1174255844
115,10,21,Ticks_Linear_5,131,5,42,127,1174843712
115,10,21,Ticks_Linear_5,132,1,48,19,1174848176
115,10,21,Ticks_Linear_5,133,1,48,21,1175446860
115,10,21,Ticks_Linear_5,134,5,42,127,1175464372
115,10,21,Ticks_Linear_5,135,1,48,23,1176056216
115,10,21,Ticks_Linear_5,136,5,42,127,1176083816
115,10,21,Ticks_Linear_5,137,1,48,25,1176700516
115,10,21,Ticks_Linear_5,138,5,42,127,1176704232
115,10,21,Ticks_Linear_5,139,1,48,17,1177313336
115,10,21,Ticks_Linear_5,140,5,42,127,1177324004
115,10,21,Ticks_Linear_5,141,1,48,22,1177954164
115,10,21,Ticks_Linear_5,142,5,42,127,1177955200
115,10,21,Ticks_Linear_5,143,1,48,25,1178568564
115,10,21,Ticks_Linear_5,144,5,42,127,1178584412
115,10,21,Ticks_Linear_5,145,1,48,32,1179168092
115,10,21,Ticks_Linear_5,146,5,42,127,1179224372
115,10,21,Ticks_Linear_5,147,1,48,21,1179836692
115,10,21,Ticks_Linear_5,148,5,42,127,1179864440
115,10,21,Ticks_Linear_5,149,1,48,29,1180478224
115,10,21,Ticks_Linear_5,150,5,42,127,1180504404
115,10,21,Ticks_Linear_5,151,1,48,26,1181122716
115,10,21,Ticks_Linear_5,152,5,42,127,1181144392
115,10,21,Ticks_Linear_5,153,1,48,24,1181732348
115,10,21,Ticks_Linear_5,154,5,42,127,1181784432
115,10,21,Ticks_Linear_5,155,1,48,21,1182389780
115,10,21,Ticks_Linear_5,156,5,42,127,1182424496
115,10,21,Ticks_Linear_5,157,1,48,20,1183044656
115,10,21,Ticks_Linear_5,158,5,42,127,1183064460
115,10,21,Ticks_Linear_5,159,1,48,25,1183691984
115,10,21,Ticks_Linear_5,160,5,42,127,1183704376
115,10,21,Ticks_Linear_5,161,1,48,21,1184329540
115,10,21,Ticks_Linear_5,162,5,42,127,1184363812
115,10,21,Ticks_Linear_5,163,1,48,19,1184976348
115,10,21,Ticks_Linear_5,164,5,42,127,1185014208
115,10,21,Ticks_Linear_5,165,1,48,16,1185632568
115,10,21,Ticks_Linear_5,166,5,42,127,1185664284
115,10,21,Ticks_Linear_5,167,5,42,127,1186313564
115,10,21,Ticks_Linear_5,168,1,48,17,1186942036
115,10,21,Ticks_Linear_5,169,5,42,127,1186963876
115,10,21,Ticks_Linear_5,170,1,48,25,1187596184
115,10,21,Ticks_Linear_5,171,5,42,127,1187624456
115,10,21,Ticks_Linear_5,172,1,48,16,1188230752
115,10,21,Ticks_Linear_5,173,5,42,127,1188283768
115,10,21,Ticks_Linear_5,174,1,48,20,1188886848
115,10,21,Ticks_Linear_5,175,5,42,127,1188944324
115,10,21,Ticks_Linear_5,176,1,48,20,1189574088
115,10,21,Ticks_Linear_5,177,5,42,127,1189603632
115,10,21,Ticks_Linear_5,178,5,42,127,1190264124
115,10,21,Ticks_Linear_5,179,1,48,19,1190275184
115,10,21,Ticks_Linear_5,180,1,48,16,1190888936
115,10,21,Ticks_Linear_5,181,5,42,127,1190934208
115,10,21,Ticks_Linear_5,182,1,48,27,1191573984
115,10,21,Ticks_Linear_5,183,5,42,127,1191603480
115,10,21,Ticks_Linear_5,184,1,48,24,1192264820
115,10,21,Ticks_Linear_5,185,5,42,127,1192274292
115,10,21,Ticks_Linear_5,186,1,48,20,1192918584
115,10,21,Ticks_Linear_5,187,5,42,127,1192944236
115,10,21,Ticks_Linear_5,188,1,48,17,1193590520
115,10,21,Ticks_Linear_5,189,5,42,127,1193613632
115,10,21,Ticks_Linear_5,190,5,42,127,1194293692
115,10,21,Ticks_Linear_5,191,1,48,19,1194959336
115,10,21,Ticks_Linear_5,192,5,42,127,1194973536
115,10,21,Ticks_Linear_5,193,1,48,21,1195633156
115,10,21,Ticks_Linear_5,194,5,42,127,1195653488
115,10,21,Ticks_Linear_5,195,5,42,127,1196333400
115,10,21,Ticks_Linear_5,196,1,48,14,1196354944
115,10,21,Ticks_Linear_5,197,1,48,27,1196982336
115,10,21,Ticks_Linear_5,198,5,42,127,1197014344
115,10,21,Ticks_Linear_5,199,1,48,22,1197626252
115,10,21,Ticks_Linear_5,200,5,42,127,1197703584
115,10,21,Ticks_Linear_5,201,1,48,31,1198357456
115,10,21,Ticks_Linear_5,202,5,42,127,1198393820
115,10,21,Ticks_Linear_5,203,1,48,26,1199064624
115,10,21,Ticks_Linear_5,204,5,42,127,1199083908
115,10,21,Ticks_Linear_5,205,1,48,27,1199746744
115,10,21,Ticks_Linear_5,206,5,42,127,1199774044
115,10,21,Ticks_Linear_5,207,1,48,17,1200444776
115,10,21,Ticks_Linear_5,208,5,42,127,1200464136
115,10,21,Ticks_Linear_5,209,5,42,127,1201163668
115,10,21,Ticks_Linear_5,210,1,48,16,1201814092
115,10,21,Ticks_Linear_5,211,5,42,127,1201864104
115,10,21,Ticks_Linear_5,212,1,48,30,1202511432
115,10,21,Ticks_Linear_5,213,5,42,127,1202563304
115,10,21,Ticks_Linear_5,214,1,48,29,1203175016
115,10,21,Ticks_Linear_5,215,5,42,127,1203264024
115,10,21,Ticks_Linear_5,216,5,42,127,1203964232
115,10,21,Ticks_Linear_5,217,1,48,23,1203984276
115,10,21,Ticks_Linear_5,218,5,42,127,1204673792
115,10,21,Ticks_Linear_5,219,1,48,23,1204689412
115,10,21,Ticks_Linear_5,220,1,48,26,1205353324
115,10,21,Ticks_Linear_5,221,5,42,127,1205383544
115,10,21,Ticks_Linear_5,222,1,48,20,1206055320
115,10,21,Ticks_Linear_5,223,5,42,127,1206094152
115,10,21,Ticks_Linear_5,224,1,48,29,1206717100
115,10,21,Ticks_Linear_5,225,5,42,127,1206803788
115,10,21,Ticks_Linear_5,226,1,48,17,1207461844
115,10,21,Ticks_Linear_5,227,5,42,127,1207513348
115,10,21,Ticks_Linear_5,228,1,48,22,1208149816
115,10,21,Ticks_Linear_5,229,5,42,127,1208234284
115,10,21,Ticks_Linear_5,230,1,48,22,1208907308
115,10,21,Ticks_Linear_5,231,5,42,127,1208954376
115,10,21,Ticks_Linear_5,232,1,48,19,1209640004
115,10,21,Ticks_Linear_5,233,5,42,127,1209674192
115,10,21,Ticks_Linear_5,234,1,48,17,1210384164
115,10,21,Ticks_Linear_5,235,5,42,127,1210393940
115,10,21,Ticks_Linear_5,236,1,48,19,1211096864
115,10,21,Ticks_Linear_5,237,5,42,127,1211113832
115,10,21,Ticks_Linear_5,238,1,48,24,1211801596
115,10,21,Ticks_Linear_5,239,5,42,127,1211843908
115,10,21,Ticks_Linear_5,240,1,48,30,1212511548
115,10,21,Ticks_Linear_5,241,5,42,127,1212573964
115,10,21,Ticks_Linear_5,242,1,48,25,1213248880
115,10,21,Ticks_Linear_5,243,5,42,127,1213304188
115,10,21,Ticks_Linear_5,244,5,42,127,1214034496
115,10,21,Ticks_Linear_5,245,1,48,19,1214055592
115,10,21,Ticks_Linear_5,246,5,42,127,1214764352
115,10,21,Ticks_Linear_5,247,1,48,18,1214786488
115,10,21,Ticks_Linear_5,248,1,48,21,1215466604
115,10,21,Ticks_Linear_5,249,5,42,127,1215503708
115,10,21,Ticks_Linear_5,250,1,48,29,1216195704
115,10,21,Ticks_Linear_5,251,5,42,127,1216244048
115,10,21,Ticks_Linear_5,252,1,48,22,1216962480
115,10,21,Ticks_Linear_5,253,5,42,127,1216984756
115,10,21,Ticks_Linear_5,254,1,48,24,1217728420
115,10,21,Ticks_Linear_5,255,5,42,127,1217734080
115,10,21,Ticks_Linear_5,256,5,42,127,1218474428
115,10,21,Ticks_Linear_5,257,1,48,25,1218478668
115,10,21,Ticks_Linear_5,258,5,42,127,1219223876
115,10,21,Ticks_Linear_5,259,5,42,127,1219973744
115,10,21,Ticks_Linear_5,260,1,48,23,1220684476
115,10,21,Ticks_Linear_5,261,5,42,127,1220723984
115,10,21,Ticks_Linear_5,262,1,48,19,1221421676
115,10,21,Ticks_Linear_5,263,5,42,127,1221473684
115,10,21,Ticks_Linear_5,264,1,48,26,1222157740
115,10,21,Ticks_Linear_5,265,5,42,127,1222224132
115,10,21,Ticks_Linear_5,266,5,42,127,1222983944
115,10,21,Ticks_Linear_5,267,1,48,21,1223730540
115,10,21,Ticks_Linear_5,268,5,42,127,1223743768
115,10,21,Ticks_Linear_5,269,1,48,26,1224483920
115,10,21,Ticks_Linear_5,270,5,42,127,1224503724
115,10,21,Ticks_Linear_5,271,1,48,27,1225193028
115,10,21,Ticks_Linear_5,272,5,42,127,1225263532
115,10,21,Ticks_Linear_5,273,1,48,14,1225949756
115,10,21,Ticks_Linear_5,274,5,42,127,1226024392
115,10,21,Ticks_Linear_5,275,1,48,15,1226688752
115,10,21,Ticks_Linear_5,276,5,42,127,1226794440
115,10,21,Ticks_Linear_5,277,5,42,127,1227564604
115,10,21,Ticks_Linear_5,278,1,48,19,1227611616
115,10,21,Ticks_Linear_5,279,5,42,127,1228333552
115,10,21,Ticks_Linear_5,280,5,42,127,1229103640
115,10,21,Ticks_Linear_5,281,1,48,27,1229108780
115,10,21,Ticks_Linear_5,282,1,48,22,1229827832
115,10,21,Ticks_Linear_5,283,5,42,127,1229873632
115,10,21,Ticks_Linear_5,284,1,48,20,1230579776
115,10,21,Ticks_Linear_5,285,5,42,127,1230653808
115,10,21,Ticks_Linear_5,286,5,42,127,1231434144
115,10,21,Ticks_Linear_5,287,1,48,19,1232163976
115,10,21,Ticks_Linear_5,288,5,42,127,1232214708
115,10,21,Ticks_Linear_5,289,1,48,16,1232939504
115,10,21,Ticks_Linear_5,290,5,42,127,1232993540
115,10,21,Ticks_Linear_5,291,1,48,21,1233708896
115,10,21,Ticks_Linear_5,292,5,42,127,1233773944
115,10,21,Ticks_Linear_5,293,5,42,127,1234563488
115,10,21,Ticks_Linear_5,294,1,48,15,1234570276
115,10,21,Ticks_Linear_5,295,1,48,16,1235328340
115,10,21,Ticks_Linear_5,296,5,42,127,1235353844
115,10,21,Ticks_Linear_5,297,1,48,17,1236076312
115,10,21,Ticks_Linear_5,298,5,42,127,1236143408
115,10,21,Ticks_Linear_5,299,5,42,127,1236934148
115,10,21,Ticks_Linear_5,300,1,48,21,1237717744
115,10,21,Ticks_Linear_5,301,5,42,127,1237723480
115,10,21,Ticks_Linear_5,302,1,48,23,1238480248
115,10,21,Ticks_Linear_5,303,5,42,127,1238524476
115,10,21,Ticks_Linear_5,304,5,42,127,1239323912
115,10,21,Ticks_Linear_5,305,1,48,19,1239341712
115,10,21,Ticks_Linear_5,306,5,42,127,1240123708
115,10,21,Ticks_Linear_5,307,1,48,19,1240131312
115,10,21,Ticks_Linear_5,308,1,48,28,1240850284
115,10,21,Ticks_Linear_5,309,5,42,127,1240923500
115,10,21,Ticks_Linear_5,310,1,48,15,1241683340
115,10,21,Ticks_Linear_5,311,5,42,127,1241724492
115,10,21,Ticks_Linear_5,312,1,48,29,1242520580
115,10,21,Ticks_Linear_5,313,5,42,127,1242534428
115,10,21,Ticks_Linear_5,314,1,48,32,1243287352
115,10,21,Ticks_Linear_5,315,5,42,127,1243344408
115,10,21,Ticks_Linear_5,316,1,48,44,1244117580
115,10,21,Ticks_Linear_5,317,5,42,127,1244154392
115,10,21,Ticks_Linear_5,318,1,48,34,1244818348
115,10,21,Ticks_Linear_5,319,5,42,127,1244964356
115,10,21,Ticks_Linear_5,320,1,48,30,1245733728
115,10,21,Ticks_Linear_5,321,5,42,127,1245774280
115,10,21,Ticks_Linear_5,0,9999,9999,9999,1136521288
115,10,21,Ticks_Linear_5,1,9999,9999,9999,1137001540
115,10,21,Ticks_Linear_5,2,9999,9999,9999,1137481788
115,10,21,Ticks_Linear_5,3,9999,9999,9999,1137962040
115,10,21,Ticks_Linear_5,4,9999,9999,9999,1138441316
115,10,21,Ticks_Linear_5,5,9999,9999,9999,1138931796
115,10,21,Ticks_Linear_5,6,9999,9999,9999,1139421236
115,10,21,Ticks_Linear_5,7,9999,9999,9999,1139911800
115,10,21,Ticks_Linear_5,8,9999,9999,9999,1140401240
115,10,21,Ticks_Linear_5,9,9999,9999,9999,1140891704
115,10,21,Ticks_Linear_5,10,9999,9999,9999,1141391476
115,10,21,Ticks_Linear_5,11,9999,9999,9999,1141891148
115,10,21,Ticks_Linear_5,12,9999,9999,9999,1142391928
115,10,21,Ticks_Linear_5,13,9999,9999,9999,1142891628
115,10,21,Ticks_Linear_5,14,9999,9999,9999,1143391344
115,10,21,Ticks_Linear_5,15,9999,9999,9999,1143901308
115,10,21,Ticks_Linear_5,16,9999,9999,9999,1144411260
115,10,21,Ticks_Linear_5,17,9999,9999,9999,1144921144
115,10,21,Ticks_Linear_5,18,9999,9999,9999,1145431108
115,10,21,Ticks_Linear_5,19,9999,9999,9999,1145942136
115,10,21,Ticks_Linear_5,20,9999,9999,9999,1146471484
115,10,21,Ticks_Linear_5,21,9999,9999,9999,1146991704
115,10,21,Ticks_Linear_5,22,9999,9999,9999,1147511920
115,10,21,Ticks_Linear_5,23,9999,9999,9999,1148032064
115,10,21,Ticks_Linear_5,24,9999,9999,9999,1148561492
115,10,21,Ticks_Linear_5,25,9999,9999,9999,1149091896
115,10,21,Ticks_Linear_5,26,9999,9999,9999,1149621352
115,10,21,Ticks_Linear_5,27,9999,9999,9999,1150151756
115,10,21,Ticks_Linear_5,28,9999,9999,9999,1150681184
115,10,21,Ticks_Linear_5,29,9999,9999,9999,1151211592
115,10,21,Ticks_Linear_5,30,9999,9999,9999,1151751288
115,10,21,Ticks_Linear_5,31,9999,9999,9999,1152291948
115,10,21,Ticks_Linear_5,32,9999,9999,9999,1152831556
115,10,21,Ticks_Linear_5,33,9999,9999,9999,1153371248
115,10,21,Ticks_Linear_5,34,9999,9999,9999,1153911908
115,10,21,Ticks_Linear_5,35,9999,9999,9999,1154461788
115,10,21,Ticks_Linear_5,36,9999,9999,9999,1155011688
115,10,21,Ticks_Linear_5,37,9999,9999,9999,1155561556
115,10,21,Ticks_Linear_5,38,9999,9999,9999,1156111432
115,10,21,Ticks_Linear_5,39,9999,9999,9999,1156661304
115,10,21,Ticks_Linear_5,40,9999,9999,9999,1157221440
115,10,21,Ticks_Linear_5,41,9999,9999,9999,1157781572
115,10,21,Ticks_Linear_5,42,9999,9999,9999,1158341732
115,10,21,Ticks_Linear_5,43,9999,9999,9999,1158901868
115,10,21,Ticks_Linear_5,44,9999,9999,9999,1159461944
115,10,21,Ticks_Linear_5,45,9999,9999,9999,1160031296
115,10,21,Ticks_Linear_5,46,9999,9999,9999,1160601704
115,10,21,Ticks_Linear_5,47,9999,9999,9999,1161172056
115,10,21,Ticks_Linear_5,48,9999,9999,9999,1161741400
115,10,21,Ticks_Linear_5,49,9999,9999,9999,1162311792
115,10,21,Ticks_Linear_5,50,9999,9999,9999,1162891324
115,10,21,Ticks_Linear_5,51,9999,9999,9999,1163471992
115,10,21,Ticks_Linear_5,52,9999,9999,9999,1164051520
115,10,21,Ticks_Linear_5,53,9999,9999,9999,1164631124
115,10,21,Ticks_Linear_5,54,9999,9999,9999,1165211704
115,10,21,Ticks_Linear_5,55,9999,9999,9999,1165801592
115,10,21,Ticks_Linear_5,56,9999,9999,9999,1166391380
115,10,21,Ticks_Linear_5,57,9999,9999,9999,1166981244
115,10,21,Ticks_Linear_5,58,9999,9999,9999,1167572032
115,10,21,Ticks_Linear_5,59,9999,9999,9999,1168161900
115,10,21,Ticks_Linear_5,60,9999,9999,9999,1168761944
115,10,21,Ticks_Linear_5,61,9999,9999,9999,1169362016
115,10,21,Ticks_Linear_5,62,9999,9999,9999,1169962064
115,10,21,Ticks_Linear_5,63,9999,9999,9999,1170561148
115,10,21,Ticks_Linear_5,64,9999,9999,9999,1171161160
115,10,21,Ticks_Linear_5,65,9999,9999,9999,1171771468
115,10,21,Ticks_Linear_5,66,9999,9999,9999,1172381776
115,10,21,Ticks_Linear_5,67,9999,9999,9999,1172992108
115,10,21,Ticks_Linear_5,68,9999,9999,9999,1173611632
115,10,21,Ticks_Linear_5,69,9999,9999,9999,1174221892
115,10,21,Ticks_Linear_5,70,9999,9999,9999,1174841412
115,10,21,Ticks_Linear_5,71,9999,9999,9999,1175461976
115,10,21,Ticks_Linear_5,72,9999,9999,9999,1176081516
115,10,21,Ticks_Linear_5,73,9999,9999,9999,1176702008
115,10,21,Ticks_Linear_5,74,9999,9999,9999,1177321556
115,10,21,Ticks_Linear_5,75,9999,9999,9999,1177951344
115,10,21,Ticks_Linear_5,76,9999,9999,9999,1178582112
115,10,21,Ticks_Linear_5,77,9999,9999,9999,1179222076
115,10,21,Ticks_Linear_5,78,9999,9999,9999,1179862140
115,10,21,Ticks_Linear_5,79,9999,9999,9999,1180502104
115,10,21,Ticks_Linear_5,80,9999,9999,9999,1181142092
115,10,21,Ticks_Linear_5,81,9999,9999,9999,1181782132
115,10,21,Ticks_Linear_5,82,9999,9999,9999,1182422124
115,10,21,Ticks_Linear_5,83,9999,9999,9999,1183062088
115,10,21,Ticks_Linear_5,84,9999,9999,9999,1183702076
115,10,21,Ticks_Linear_5,85,9999,9999,9999,1184361588
115,10,21,Ticks_Linear_5,86,9999,9999,9999,1185011836
115,10,21,Ticks_Linear_5,87,9999,9999,9999,1185662060
115,10,21,Ticks_Linear_5,88,9999,9999,9999,1186311268
115,10,21,Ticks_Linear_5,89,9999,9999,9999,1186961504
115,10,21,Ticks_Linear_5,90,9999,9999,9999,1187622012
115,10,21,Ticks_Linear_5,91,9999,9999,9999,1188281468
115,10,21,Ticks_Linear_5,92,9999,9999,9999,1188941876
115,10,21,Ticks_Linear_5,93,9999,9999,9999,1189601336
115,10,21,Ticks_Linear_5,94,9999,9999,9999,1190261824
115,10,21,Ticks_Linear_5,95,9999,9999,9999,1190931536
115,10,21,Ticks_Linear_5,96,9999,9999,9999,1191601256
115,10,21,Ticks_Linear_5,97,9999,9999,9999,1192271996
115,10,21,Ticks_Linear_5,98,9999,9999,9999,1192941640
115,10,21,Ticks_Linear_5,99,9999,9999,9999,1193611336
115,10,21,Ticks_Linear_5,100,9999,9999,9999,1194291320
115,10,21,Ticks_Linear_5,101,9999,9999,9999,1194971240
115,10,21,Ticks_Linear_5,102,9999,9999,9999,1195651192
115,10,21,Ticks_Linear_5,103,9999,9999,9999,1196331104
115,10,21,Ticks_Linear_5,104,9999,9999,9999,1197012044
115,10,21,Ticks_Linear_5,105,9999,9999,9999,1197701212
115,10,21,Ticks_Linear_5,106,9999,9999,9999,1198391372
115,10,21,Ticks_Linear_5,107,9999,9999,9999,1199081536
115,10,21,Ticks_Linear_5,108,9999,9999,9999,1199771748
115,10,21,Ticks_Linear_5,109,9999,9999,9999,1200461912
115,10,21,Ticks_Linear_5,110,9999,9999,9999,1201161296
115,10,21,Ticks_Linear_5,111,9999,9999,9999,1201861732
115,10,21,Ticks_Linear_5,112,9999,9999,9999,1202561080
115,10,21,Ticks_Linear_5,113,9999,9999,9999,1203261504
115,10,21,Ticks_Linear_5,114,9999,9999,9999,1203961932
115,10,21,Ticks_Linear_5,115,9999,9999,9999,1204671568
115,10,21,Ticks_Linear_5,116,9999,9999,9999,1205381244
115,10,21,Ticks_Linear_5,117,9999,9999,9999,1206091852
115,10,21,Ticks_Linear_5,118,9999,9999,9999,1206801488
115,10,21,Ticks_Linear_5,119,9999,9999,9999,1207511124
115,10,21,Ticks_Linear_5,120,9999,9999,9999,1208232060
115,10,21,Ticks_Linear_5,121,9999,9999,9999,1208951932
115,10,21,Ticks_Linear_5,122,9999,9999,9999,1209671748
115,10,21,Ticks_Linear_5,123,9999,9999,9999,1210391640
115,10,21,Ticks_Linear_5,124,9999,9999,9999,1211111532
115,10,21,Ticks_Linear_5,125,9999,9999,9999,1211841612
115,10,21,Ticks_Linear_5,126,9999,9999,9999,1212571740
115,10,21,Ticks_Linear_5,127,9999,9999,9999,1213301816
115,10,21,Ticks_Linear_5,128,9999,9999,9999,1214031976
115,10,21,Ticks_Linear_5,129,9999,9999,9999,1214762052
115,10,21,Ticks_Linear_5,130,9999,9999,9999,1215501412
115,10,21,Ticks_Linear_5,131,9999,9999,9999,1216241748
115,10,21,Ticks_Linear_5,132,9999,9999,9999,1216982088
115,10,21,Ticks_Linear_5,133,9999,9999,9999,1217731708
115,10,21,Ticks_Linear_5,134,9999,9999,9999,1218472052
115,10,21,Ticks_Linear_5,135,9999,9999,9999,1219221576
115,10,21,Ticks_Linear_5,136,9999,9999,9999,1219971148
115,10,21,Ticks_Linear_5,137,9999,9999,9999,1220721760
115,10,21,Ticks_Linear_5,138,9999,9999,9999,1221471312
115,10,21,Ticks_Linear_5,139,9999,9999,9999,1222221904
115,10,21,Ticks_Linear_5,140,9999,9999,9999,1222981720
115,10,21,Ticks_Linear_5,141,9999,9999,9999,1223741544
115,10,21,Ticks_Linear_5,142,9999,9999,9999,1224501352
115,10,21,Ticks_Linear_5,143,9999,9999,9999,1225261160
115,10,21,Ticks_Linear_5,144,9999,9999,9999,1226021944
115,10,21,Ticks_Linear_5,145,9999,9999,9999,1226791996
115,10,21,Ticks_Linear_5,146,9999,9999,9999,1227562084
115,10,21,Ticks_Linear_5,147,9999,9999,9999,1228331104
115,10,21,Ticks_Linear_5,148,9999,9999,9999,1229101120
115,10,21,Ticks_Linear_5,149,9999,9999,9999,1229871184
115,10,21,Ticks_Linear_5,150,9999,9999,9999,1230651512
115,10,21,Ticks_Linear_5,151,9999,9999,9999,1231431772
115,10,21,Ticks_Linear_5,152,9999,9999,9999,1232212036
115,10,21,Ticks_Linear_5,153,9999,9999,9999,1232991320
115,10,21,Ticks_Linear_5,154,9999,9999,9999,1233771644
115,10,21,Ticks_Linear_5,155,9999,9999,9999,1234561116
115,10,21,Ticks_Linear_5,156,9999,9999,9999,1235351620
115,10,21,Ticks_Linear_5,157,9999,9999,9999,1236141108
115,10,21,Ticks_Linear_5,158,9999,9999,9999,1236931704
115,10,21,Ticks_Linear_5,159,9999,9999,9999,1237721184
115,10,21,Ticks_Linear_5,160,9999,9999,9999,1238521956
115,10,21,Ticks_Linear_5,161,9999,9999,9999,1239321688
115,10,21,Ticks_Linear_5,162,9999,9999,9999,1240121408
115,10,21,Ticks_Linear_5,163,9999,9999,9999,1240921200
115,10,21,Ticks_Linear_5,164,9999,9999,9999,1241721968
115,10,21,Ticks_Linear_5,165,9999,9999,9999,1242531904
115,10,21,Ticks_Linear_5,166,9999,9999,9999,1243341888
115,10,21,Ticks_Linear_5,167,9999,9999,9999,1244151868
115,10,21,Ticks_Linear_5,168,9999,9999,9999,1244961912
115,10,21,Ticks_Linear_5,169,9999,9999,9999,1245771832
115,11,25,Jits_Pract_5,0,5,56,103,1356590560
115,11,25,Jits_Pract_5,1,5,63,98,1356593584
115,11,25,Jits_Pract_5,2,5,80,127,1356596632
115,11,25,Jits_Pract_5,0,5,56,103,1357091260
115,11,25,Jits_Pract_5,1,5,63,98,1357094512
115,11,25,Jits_Pract_5,2,5,80,127,1357097556
115,11,25,Jits_Pract_5,0,5,56,103,1357591000
115,11,25,Jits_Pract_5,1,5,80,127,1357601420
115,11,25,Jits_Pract_5,2,5,63,98,1357620608
115,11,25,Jits_Pract_5,0,5,63,98,1358040400
115,11,25,Jits_Pract_5,1,5,80,127,1358071124
115,11,25,Jits_Pract_5,2,5,56,103,1358081324
115,11,25,Jits_Pract_5,0,5,80,127,1358600512
115,11,25,Jits_Pract_5,1,5,56,103,1358610932
115,11,25,Jits_Pract_5,2,5,63,98,1358640460
115,11,25,Jits_Pract_5,0,5,63,98,1359091264
115,11,25,Jits_Pract_5,1,5,56,103,1359120716
115,11,25,Jits_Pract_5,2,5,80,127,1359131360
115,11,25,Jits_Pract_5,0,5,56,103,1359540576
115,11,25,Jits_Pract_5,1,5,63,98,1359590704
115,11,25,Jits_Pract_5,2,5,80,127,1359611312
115,11,25,Jits_Pract_5,0,5,80,127,1360041364
115,11,25,Jits_Pract_5,1,5,63,98,1360090448
115,11,25,Jits_Pract_5,2,5,56,103,1360130384
115,11,25,Jits_Pract_5,0,5,56,103,1360541156
115,11,25,Jits_Pract_5,1,5,63,98,1360570608
115,11,25,Jits_Pract_5,2,5,80,127,1360641484
115,11,25,Jits_Pract_5,0,5,56,103,1361040648
115,11,25,Jits_Pract_5,1,5,80,127,1361101212
115,11,25,Jits_Pract_5,2,5,63,98,1361131188
115,11,25,Jits_Pract_5,0,5,56,103,1361550804
115,11,25,Jits_Pract_5,1,5,63,98,1361561372
115,11,25,Jits_Pract_5,2,5,80,127,1361600812
115,11,25,Jits_Pract_5,0,5,63,98,1362041176
115,11,25,Jits_Pract_5,1,5,80,127,1362121372
115,11,25,Jits_Pract_5,2,5,56,103,1362131568
115,11,25,Jits_Pract_5,0,5,63,98,1362591208
115,11,25,Jits_Pract_5,1,5,56,103,1362631216
115,11,25,Jits_Pract_5,2,5,80,127,1362634284
115,11,25,Jits_Pract_5,0,5,56,103,1363050816
115,11,25,Jits_Pract_5,1,5,63,98,1363061384
115,11,25,Jits_Pract_5,2,5,80,127,1363101172
115,11,25,Jits_Pract_5,0,5,56,103,1363541384
115,11,25,Jits_Pract_5,1,5,63,98,1363544228
115,11,25,Jits_Pract_5,2,5,80,127,1363560944
115,11,25,Jits_Pract_5,0,9999,9999,9999,1356838972
115,11,25,Jits_Pract_5,1,9999,9999,9999,1357338700
115,11,25,Jits_Pract_5,2,9999,9999,9999,1357838444
115,11,25,Jits_Pract_5,3,9999,9999,9999,1358338112
115,11,25,Jits_Pract_5,4,9999,9999,9999,1358838888
115,11,25,Jits_Pract_5,5,9999,9999,9999,1359338560
115,11,25,Jits_Pract_5,6,9999,9999,9999,1359838288
115,11,25,Jits_Pract_5,7,9999,9999,9999,1360339004
115,11,25,Jits_Pract_5,8,9999,9999,9999,1360838720
115,11,25,Jits_Pract_5,9,9999,9999,9999,1361338460
115,11,25,Jits_Pract_5,10,9999,9999,9999,1361838200
115,11,25,Jits_Pract_5,11,9999,9999,9999,1362338916
115,11,25,Jits_Pract_5,12,9999,9999,9999,1362838616
115,11,25,Jits_Pract_5,13,9999,9999,9999,1363338312
115,11,25,Jits_Pract_5,14,9999,9999,9999,1363839084
115,12,24,Jits_Pract_8,0,5,56,103,1415062812
115,12,24,Jits_Pract_8,1,5,63,98,1415065832
115,12,24,Jits_Pract_8,2,5,80,127,1415069204
115,12,24,Jits_Pract_8,0,5,56,103,1415862776
115,12,24,Jits_Pract_8,1,5,63,98,1415865800
115,12,24,Jits_Pract_8,2,5,80,127,1415868696
115,12,24,Jits_Pract_8,0,5,80,127,1416603016
115,12,24,Jits_Pract_8,1,5,63,98,1416693300
115,12,24,Jits_Pract_8,2,5,56,103,1416703272
115,12,24,Jits_Pract_8,3,1,48,27,1416730056
115,12,24,Jits_Pract_8,0,5,56,103,1417423240
115,12,24,Jits_Pract_8,1,5,63,98,1417432464
115,12,24,Jits_Pract_8,2,1,48,31,1417496484
115,12,24,Jits_Pract_8,3,5,80,127,1417522512
115,12,24,Jits_Pract_8,0,5,63,98,1418193340
115,12,24,Jits_Pract_8,1,5,80,127,1418223240
115,12,24,Jits_Pract_8,2,1,48,29,1418236844
115,12,24,Jits_Pract_8,3,5,56,103,1418252536
115,12,24,Jits_Pract_8,0,1,48,30,1418969452
115,12,24,Jits_Pract_8,1,5,56,103,1418993160
115,12,24,Jits_Pract_8,2,5,80,127,1419093320
115,12,24,Jits_Pract_8,3,5,63,98,1419142472
115,12,24,Jits_Pract_8,0,5,56,103,1419792776
115,12,24,Jits_Pract_8,1,5,80,127,1419843204
115,12,24,Jits_Pract_8,2,1,48,30,1419867672
115,12,24,Jits_Pract_8,3,5,63,98,1419882760
115,12,24,Jits_Pract_8,0,5,80,127,1420623336
115,12,24,Jits_Pract_8,1,1,48,39,1420649296
115,12,24,Jits_Pract_8,2,5,63,98,1420653080
115,12,24,Jits_Pract_8,3,5,56,103,1420722484
115,12,24,Jits_Pract_8,0,5,63,98,1421452632
115,12,24,Jits_Pract_8,1,1,48,32,1421455972
115,12,24,Jits_Pract_8,2,5,56,103,1421483372
115,12,24,Jits_Pract_8,3,5,80,127,1421542860
115,12,24,Jits_Pract_8,0,5,56,103,1422193048
115,12,24,Jits_Pract_8,1,5,80,127,1422196112
115,12,24,Jits_Pract_8,2,1,48,38,1422304300
115,12,24,Jits_Pract_8,3,5,63,98,1422312936
115,12,24,Jits_Pract_8,0,1,48,38,1423033184
115,12,24,Jits_Pract_8,1,5,56,103,1423072620
115,12,24,Jits_Pract_8,2,5,80,127,1423112708
115,12,24,Jits_Pract_8,3,5,63,98,1423122904
115,12,24,Jits_Pract_8,0,5,56,103,1423832384
115,12,24,Jits_Pract_8,1,5,80,127,1423852988
115,12,24,Jits_Pract_8,2,1,48,40,1423874172
115,12,24,Jits_Pract_8,3,5,63,98,1423932924
115,12,24,Jits_Pract_8,0,5,80,127,1424623088
115,12,24,Jits_Pract_8,1,1,48,41,1424682920
115,12,24,Jits_Pract_8,2,5,56,103,1424723252
115,12,24,Jits_Pract_8,3,5,63,98,1424732552
115,12,24,Jits_Pract_8,0,5,63,98,1425393192
115,12,24,Jits_Pract_8,1,5,80,127,1425453360
115,12,24,Jits_Pract_8,2,5,56,103,1425462508
115,12,24,Jits_Pract_8,3,1,48,34,1425499332
115,12,24,Jits_Pract_8,0,5,56,103,1426192872
115,12,24,Jits_Pract_8,1,1,48,35,1426242972
115,12,24,Jits_Pract_8,2,5,63,98,1426263368
115,12,24,Jits_Pract_8,3,5,80,127,1426266884
115,12,24,Jits_Pract_8,0,9999,9999,9999,1415460916
115,12,24,Jits_Pract_8,1,9999,9999,9999,1416260708
115,12,24,Jits_Pract_8,2,9999,9999,9999,1417060420
115,12,24,Jits_Pract_8,3,9999,9999,9999,1417860188
115,12,24,Jits_Pract_8,4,9999,9999,9999,1418660948
115,12,24,Jits_Pract_8,5,9999,9999,9999,1419460708
115,12,24,Jits_Pract_8,6,9999,9999,9999,1420260460
115,12,24,Jits_Pract_8,7,9999,9999,9999,1421060160
115,12,24,Jits_Pract_8,8,9999,9999,9999,1421860984
115,12,24,Jits_Pract_8,9,9999,9999,9999,1422660724
115,12,24,Jits_Pract_8,10,9999,9999,9999,1423460428
115,12,24,Jits_Pract_8,11,9999,9999,9999,1424260188
115,12,24,Jits_Pract_8,12,9999,9999,9999,1425060960
115,12,24,Jits_Pract_8,13,9999,9999,9999,1425860728
115,12,24,Jits_Pract_8,14,9999,9999,9999,1426660476
115,13,25,Jits_Pract_5,0,5,56,103,1434819048
115,13,25,Jits_Pract_5,1,5,63,98,1434822068
115,13,25,Jits_Pract_5,2,5,80,127,1434825120
115,13,25,Jits_Pract_5,0,5,56,103,1435318772
115,13,25,Jits_Pract_5,1,5,63,98,1435321800
115,13,25,Jits_Pract_5,2,5,80,127,1435324844
115,13,25,Jits_Pract_5,0,5,56,103,1435819340
115,13,25,Jits_Pract_5,1,5,80,127,1435828712
115,13,25,Jits_Pract_5,2,5,63,98,1435849244
115,13,25,Jits_Pract_5,0,5,63,98,1436269084
115,13,25,Jits_Pract_5,1,5,80,127,1436298464
115,13,25,Jits_Pract_5,2,5,56,103,1436309032
115,13,25,Jits_Pract_5,0,1,48,39,1436814692
115,13,25,Jits_Pract_5,1,5,80,127,1436829208
115,13,25,Jits_Pract_5,2,5,56,103,1436839404
115,13,25,Jits_Pract_5,3,5,63,98,1436869076
115,13,25,Jits_Pract_5,0,5,63,98,1437318472
115,13,25,Jits_Pract_5,1,5,56,103,1437349220
115,13,25,Jits_Pract_5,2,1,48,35,1437354432
115,13,25,Jits_Pract_5,3,5,80,127,1437358512
115,13,25,Jits_Pract_5,0,5,56,103,1437769164
115,13,25,Jits_Pract_5,1,5,63,98,1437819292
115,13,25,Jits_Pract_5,2,5,80,127,1437839000
115,13,25,Jits_Pract_5,3,1,48,32,1437874804
115,13,25,Jits_Pract_5,0,5,80,127,1438269012
115,13,25,Jits_Pract_5,1,1,48,37,1438319068
115,13,25,Jits_Pract_5,2,5,63,98,1438320256
115,13,25,Jits_Pract_5,3,5,56,103,1438358924
115,13,25,Jits_Pract_5,0,5,56,103,1438768424
115,13,25,Jits_Pract_5,1,5,63,98,1438799368
115,13,25,Jits_Pract_5,2,1,48,38,1438839204
115,13,25,Jits_Pract_5,3,5,80,127,1438868968
115,13,25,Jits_Pract_5,0,5,56,103,1439269248
115,13,25,Jits_Pract_5,1,1,48,32,1439302632
115,13,25,Jits_Pract_5,2,5,80,127,1439328812
115,13,25,Jits_Pract_5,3,5,63,98,1439359312
115,13,25,Jits_Pract_5,0,5,56,103,1439779072
115,13,25,Jits_Pract_5,1,5,63,98,1439789564
115,13,25,Jits_Pract_5,2,1,48,35,1439825344
115,13,25,Jits_Pract_5,3,5,80,127,1439829496
115,13,25,Jits_Pract_5,0,5,63,98,1440268588
115,13,25,Jits_Pract_5,1,1,48,30,1440327452
115,13,25,Jits_Pract_5,2,5,80,127,1440348452
115,13,25,Jits_Pract_5,3,5,56,103,1440358724
115,13,25,Jits_Pract_5,0,5,63,98,1440818476
115,13,25,Jits_Pract_5,1,1,48,31,1440840176
115,13,25,Jits_Pract_5,2,5,56,103,1440858484
115,13,25,Jits_Pract_5,3,5,80,127,1440861772
115,13,25,Jits_Pract_5,0,5,56,103,1441288492
115,13,25,Jits_Pract_5,1,5,63,98,1441299060
115,13,25,Jits_Pract_5,2,5,80,127,1441339224
115,13,25,Jits_Pract_5,3,1,48,29,1441340940
115,13,25,Jits_Pract_5,0,5,56,103,1441779128
115,13,25,Jits_Pract_5,1,5,63,98,1441782268
115,13,25,Jits_Pract_5,2,5,80,127,1441798540
115,13,25,Jits_Pract_5,3,1,48,32,1441811096
115,13,25,Jits_Pract_5,0,9999,9999,9999,1435066484
115,13,25,Jits_Pract_5,1,9999,9999,9999,1435566136
115,13,25,Jits_Pract_5,2,9999,9999,9999,1436066928
115,13,25,Jits_Pract_5,3,9999,9999,9999,1436566644
115,13,25,Jits_Pract_5,4,9999,9999,9999,1437066348
115,13,25,Jits_Pract_5,5,9999,9999,9999,1437567088
115,13,25,Jits_Pract_5,6,9999,9999,9999,1438066776
115,13,25,Jits_Pract_5,7,9999,9999,9999,1438566480
115,13,25,Jits_Pract_5,8,9999,9999,9999,1439066188
115,13,25,Jits_Pract_5,9,9999,9999,9999,1439566940
115,13,25,Jits_Pract_5,10,9999,9999,9999,1440066644
115,13,25,Jits_Pract_5,11,9999,9999,9999,1440566352
115,13,25,Jits_Pract_5,12,9999,9999,9999,1441067084
115,13,25,Jits_Pract_5,13,9999,9999,9999,1441577040
115,13,25,Jits_Pract_5,14,9999,9999,9999,1442076728
115,14,7,Jits_ISO_8,0,5,56,103,1472217512
115,14,7,Jits_ISO_8,1,5,63,98,1472220608
115,14,7,Jits_ISO_8,2,5,80,127,1472223508
115,14,7,Jits_ISO_8,0,5,56,103,1473018484
115,14,7,Jits_ISO_8,1,5,63,98,1473021584
115,14,7,Jits_ISO_8,2,5,80,127,1473024704
115,14,7,Jits_ISO_8,0,5,80,127,1473757516
115,14,7,Jits_ISO_8,1,5,63,98,1473847656
115,14,7,Jits_ISO_8,2,5,56,103,1473857852
115,14,7,Jits_ISO_8,0,5,56,103,1474577840
115,14,7,Jits_ISO_8,1,5,63,98,1474587960
115,14,7,Jits_ISO_8,2,5,80,127,1474678316
115,14,7,Jits_ISO_8,0,5,63,98,1475347812
115,14,7,Jits_ISO_8,1,5,80,127,1475377488
115,14,7,Jits_ISO_8,2,1,48,33,1475390868
115,14,7,Jits_ISO_8,3,5,56,103,1475408424
115,14,7,Jits_ISO_8,0,1,48,33,1476135180
115,14,7,Jits_ISO_8,1,5,56,103,1476147580
115,14,7,Jits_ISO_8,2,5,80,127,1476248064
115,14,7,Jits_ISO_8,3,5,63,98,1476298192
115,14,7,Jits_ISO_8,0,5,56,103,1476948272
115,14,7,Jits_ISO_8,1,5,80,127,1476997576
115,14,7,Jits_ISO_8,2,1,48,31,1477006020
115,14,7,Jits_ISO_8,3,5,63,98,1477037460
115,14,7,Jits_ISO_8,0,5,80,127,1477777808
115,14,7,Jits_ISO_8,1,5,63,98,1477807512
115,14,7,Jits_ISO_8,2,1,48,32,1477819624
115,14,7,Jits_ISO_8,3,5,56,103,1477878308
115,14,7,Jits_ISO_8,0,5,63,98,1478608276
115,14,7,Jits_ISO_8,1,1,48,38,1478622484
115,14,7,Jits_ISO_8,2,5,56,103,1478637944
115,14,7,Jits_ISO_8,3,5,80,127,1478698336
115,14,7,Jits_ISO_8,0,5,56,103,1479347600
115,14,7,Jits_ISO_8,1,5,80,127,1479350516
115,14,7,Jits_ISO_8,2,1,48,35,1479409528
115,14,7,Jits_ISO_8,3,5,63,98,1479468368
115,14,7,Jits_ISO_8,0,1,48,40,1480206320
115,14,7,Jits_ISO_8,1,5,56,103,1480228372
115,14,7,Jits_ISO_8,2,5,80,127,1480268312
115,14,7,Jits_ISO_8,3,5,63,98,1480278508
115,14,7,Jits_ISO_8,0,5,56,103,1480988160
115,14,7,Jits_ISO_8,1,5,80,127,1481007424
115,14,7,Jits_ISO_8,2,1,48,33,1481009288
115,14,7,Jits_ISO_8,3,5,63,98,1481088332
115,14,7,Jits_ISO_8,0,5,80,127,1481777472
115,14,7,Jits_ISO_8,1,1,48,28,1481793620
115,14,7,Jits_ISO_8,2,5,56,103,1481878012
115,14,7,Jits_ISO_8,3,5,63,98,1481888232
115,14,7,Jits_ISO_8,0,5,63,98,1482547528
115,14,7,Jits_ISO_8,1,5,80,127,1482608216
115,14,7,Jits_ISO_8,2,5,56,103,1482618192
115,14,7,Jits_ISO_8,3,1,48,34,1482624076
115,14,7,Jits_ISO_8,0,5,56,103,1483348280
115,14,7,Jits_ISO_8,1,5,63,98,1483418208
115,14,7,Jits_ISO_8,2,5,80,127,1483421420
115,14,7,Jits_ISO_8,3,1,48,28,1483431812
115,14,7,Jits_ISO_8,0,5,63,98,1484177956
115,14,7,Jits_ISO_8,1,1,48,29,1484195180
115,14,7,Jits_ISO_8,2,5,56,103,1484228256
115,14,7,Jits_ISO_8,3,5,80,127,1484231092
115,14,7,Jits_ISO_8,0,5,56,103,1484937492
115,14,7,Jits_ISO_8,1,5,80,127,1484940636
115,14,7,Jits_ISO_8,2,1,48,32,1484979000
115,14,7,Jits_ISO_8,3,5,63,98,1485027720
115,14,7,Jits_ISO_8,0,1,48,36,1485755636
115,14,7,Jits_ISO_8,1,5,63,98,1485778280
115,14,7,Jits_ISO_8,2,5,56,103,1485868328
115,14,7,Jits_ISO_8,3,5,80,127,1485898152
115,14,7,Jits_ISO_8,0,5,56,103,1486567812
115,14,7,Jits_ISO_8,1,1,48,38,1486577832
115,14,7,Jits_ISO_8,2,5,63,98,1486668352
115,14,7,Jits_ISO_8,3,5,80,127,1486697940
115,14,7,Jits_ISO_8,0,5,63,98,1487388068
115,14,7,Jits_ISO_8,1,5,56,103,1487398188
115,14,7,Jits_ISO_8,2,1,48,40,1487435460
115,14,7,Jits_ISO_8,3,5,80,127,1487488316
115,14,7,Jits_ISO_8,0,5,63,98,1488208156
115,14,7,Jits_ISO_8,1,1,48,38,1488216080
115,14,7,Jits_ISO_8,2,5,56,103,1488288344
115,14,7,Jits_ISO_8,3,5,80,127,1488291408
115,14,7,Jits_ISO_8,0,5,80,127,1488968152
115,14,7,Jits_ISO_8,1,5,63,98,1488987492
115,14,7,Jits_ISO_8,2,5,56,103,1489048128
115,14,7,Jits_ISO_8,3,1,48,33,1489078748
115,14,7,Jits_ISO_8,0,5,56,103,1489807588
115,14,7,Jits_ISO_8,1,1,48,29,1489824508
115,14,7,Jits_ISO_8,2,5,63,98,1489828136
115,14,7,Jits_ISO_8,3,5,80,127,1489831352
115,14,7,Jits_ISO_8,0,5,63,98,1490548260
115,14,7,Jits_ISO_8,1,1,48,38,1490603320
115,14,7,Jits_ISO_8,2,5,80,127,1490628076
115,14,7,Jits_ISO_8,3,5,56,103,1490638120
115,14,7,Jits_ISO_8,0,1,48,35,1491341184
115,14,7,Jits_ISO_8,1,5,63,98,1491368288
115,14,7,Jits_ISO_8,2,5,56,103,1491387628
115,14,7,Jits_ISO_8,3,5,80,127,1491438052
115,14,7,Jits_ISO_8,0,1,48,37,1492149232
115,14,7,Jits_ISO_8,1,5,80,127,1492168288
115,14,7,Jits_ISO_8,2,5,63,98,1492207932
115,14,7,Jits_ISO_8,3,5,56,103,1492227568
115,14,7,Jits_ISO_8,0,1,48,27,1492970968
115,14,7,Jits_ISO_8,1,5,56,103,1493007712
115,14,7,Jits_ISO_8,2,5,63,98,1493018056
115,14,7,Jits_ISO_8,3,5,80,127,1493037472
115,14,7,Jits_ISO_8,0,5,56,103,1493738120
115,14,7,Jits_ISO_8,1,1,48,29,1493803052
115,14,7,Jits_ISO_8,2,5,63,98,1493828104
115,14,7,Jits_ISO_8,3,5,80,127,1493888272
115,14,7,Jits_ISO_8,0,1,48,39,1494535724
115,14,7,Jits_ISO_8,1,5,80,127,1494568412
115,14,7,Jits_ISO_8,2,5,56,103,1494577484
115,14,7,Jits_ISO_8,3,5,63,98,1494648348
115,14,7,Jits_ISO_8,0,1,48,43,1495349136
115,14,7,Jits_ISO_8,1,5,63,98,1495397864
115,14,7,Jits_ISO_8,2,5,80,127,1495488084
115,14,7,Jits_ISO_8,3,5,56,103,1495498056
115,14,7,Jits_ISO_8,0,5,63,98,1496138244
115,14,7,Jits_ISO_8,1,1,48,37,1496159868
115,14,7,Jits_ISO_8,2,5,80,127,1496188216
115,14,7,Jits_ISO_8,3,5,56,103,1496247584
115,14,7,Jits_ISO_8,0,1,48,47,1496946388
115,14,7,Jits_ISO_8,1,5,56,103,1496967688
115,14,7,Jits_ISO_8,2,5,80,127,1497017916
115,14,7,Jits_ISO_8,3,5,63,98,1497038300
115,14,7,Jits_ISO_8,0,1,48,46,1497726092
115,14,7,Jits_ISO_8,1,5,56,103,1497737504
115,14,7,Jits_ISO_8,2,5,80,127,1497798144
115,14,7,Jits_ISO_8,3,5,63,98,1497867736
115,14,7,Jits_ISO_8,0,1,48,37,1498512148
115,14,7,Jits_ISO_8,1,5,56,103,1498538280
115,14,7,Jits_ISO_8,2,5,80,127,1498568032
115,14,7,Jits_ISO_8,3,5,63,98,1498597928
115,14,7,Jits_ISO_8,0,1,48,31,1499291800
115,14,7,Jits_ISO_8,1,5,56,103,1499378140
115,14,7,Jits_ISO_8,2,5,80,127,1499397540
115,14,7,Jits_ISO_8,3,5,63,98,1499457856
115,14,7,Jits_ISO_8,0,1,48,37,1500109944
115,14,7,Jits_ISO_8,1,5,80,127,1500257928
115,14,7,Jits_ISO_8,2,5,56,103,1500267904
115,14,7,Jits_ISO_8,3,5,63,98,1500278100
115,14,7,Jits_ISO_8,0,1,48,37,1500944192
115,14,7,Jits_ISO_8,1,5,56,103,1501017360
115,14,7,Jits_ISO_8,2,5,80,127,1501058404
115,14,7,Jits_ISO_8,3,5,63,98,1501088028
115,14,7,Jits_ISO_8,0,1,48,29,1501776364
115,14,7,Jits_ISO_8,1,5,56,103,1501787696
115,14,7,Jits_ISO_8,2,5,63,98,1501818200
115,14,7,Jits_ISO_8,3,5,80,127,1501858012
115,14,7,Jits_ISO_8,0,5,80,127,1502537964
115,14,7,Jits_ISO_8,1,1,48,28,1502549476
115,14,7,Jits_ISO_8,2,5,63,98,1502588160
115,14,7,Jits_ISO_8,3,5,56,103,1502607796
115,14,7,Jits_ISO_8,0,5,56,103,1503367428
115,14,7,Jits_ISO_8,1,1,48,32,1503377448
115,14,7,Jits_ISO_8,2,5,80,127,1503438252
115,14,7,Jits_ISO_8,3,5,63,98,1503497876
115,14,7,Jits_ISO_8,0,5,80,127,1504168300
115,14,7,Jits_ISO_8,1,1,48,27,1504200792
115,14,7,Jits_ISO_8,2,5,63,98,1504258432
115,14,7,Jits_ISO_8,3,5,56,103,1504277992
115,14,7,Jits_ISO_8,0,5,63,98,1504987516
115,14,7,Jits_ISO_8,1,5,56,103,1505008048
115,14,7,Jits_ISO_8,2,5,80,127,1505047836
115,14,7,Jits_ISO_8,3,1,48,29,1505051404
115,14,7,Jits_ISO_8,0,5,80,127,1505748336
115,14,7,Jits_ISO_8,1,5,63,98,1505767972
115,14,7,Jits_ISO_8,2,1,48,40,1505775748
115,14,7,Jits_ISO_8,3,5,56,103,1505847688
115,14,7,Jits_ISO_8,0,1,48,43,1506530864
115,14,7,Jits_ISO_8,1,5,63,98,1506537788
115,14,7,Jits_ISO_8,2,5,56,103,1506648360
115,14,7,Jits_ISO_8,3,5,80,127,1506651652
115,14,7,Jits_ISO_8,0,1,48,40,1507314976
115,14,7,Jits_ISO_8,1,5,63,98,1507357944
115,14,7,Jits_ISO_8,2,5,56,103,1507368288
115,14,7,Jits_ISO_8,3,5,80,127,1507371280
115,14,7,Jits_ISO_8,0,1,48,48,1508115660
115,14,7,Jits_ISO_8,1,5,56,103,1508138304
115,14,7,Jits_ISO_8,2,5,80,127,1508258048
115,14,7,Jits_ISO_8,3,5,63,98,1508297984
115,14,7,Jits_ISO_8,0,5,56,103,1508957504
115,14,7,Jits_ISO_8,1,1,48,31,1508989620
115,14,7,Jits_ISO_8,2,5,80,127,1509037396
115,14,7,Jits_ISO_8,3,5,63,98,1509057780
115,14,7,Jits_ISO_8,0,5,56,103,1509758276
115,14,7,Jits_ISO_8,1,1,48,42,1509767324
115,14,7,Jits_ISO_8,2,5,63,98,1509867896
115,14,7,Jits_ISO_8,3,5,80,127,1509871260
115,14,7,Jits_ISO_8,0,1,48,41,1510578300
115,14,7,Jits_ISO_8,1,5,56,103,1510587984
115,14,7,Jits_ISO_8,2,5,80,127,1510617364
115,14,7,Jits_ISO_8,3,5,63,98,1510638044
115,14,7,Jits_ISO_8,0,5,63,98,1511368148
115,14,7,Jits_ISO_8,1,5,56,103,1511378268
115,14,7,Jits_ISO_8,2,1,48,46,1511387116
115,14,7,Jits_ISO_8,3,5,80,127,1511388680
115,14,7,Jits_ISO_8,0,5,80,127,1512157588
115,14,7,Jits_ISO_8,1,1,48,38,1512189624
115,14,7,Jits_ISO_8,2,5,56,103,1512207932
115,14,7,Jits_ISO_8,3,5,63,98,1512247796
115,14,7,Jits_ISO_8,0,5,80,127,1512977688
115,14,7,Jits_ISO_8,1,1,48,37,1512985912
115,14,7,Jits_ISO_8,2,5,63,98,1512998292
115,14,7,Jits_ISO_8,3,5,56,103,1513048788
115,14,7,Jits_ISO_8,0,1,48,37,1513772280
115,14,7,Jits_ISO_8,1,5,80,127,1513787816
115,14,7,Jits_ISO_8,2,5,56,103,1513817348
115,14,7,Jits_ISO_8,3,5,63,98,1513888084
115,14,7,Jits_ISO_8,0,1,48,40,1514580904
115,14,7,Jits_ISO_8,1,5,56,103,1514638028
115,14,7,Jits_ISO_8,2,5,80,127,1514647876
115,14,7,Jits_ISO_8,3,5,63,98,1514687800
115,14,7,Jits_ISO_8,0,5,56,103,1515348292
115,14,7,Jits_ISO_8,1,5,63,98,1515367780
115,14,7,Jits_ISO_8,2,1,48,46,1515425528
115,14,7,Jits_ISO_8,3,5,80,127,1515437404
115,14,7,Jits_ISO_8,0,5,63,98,1516167640
115,14,7,Jits_ISO_8,1,1,48,35,1516197240
115,14,7,Jits_ISO_8,2,5,80,127,1516227828
115,14,7,Jits_ISO_8,3,5,56,103,1516248436
115,14,7,Jits_ISO_8,0,1,48,32,1516957860
115,14,7,Jits_ISO_8,1,5,80,127,1516959272
115,14,7,Jits_ISO_8,2,5,56,103,1516987904
115,14,7,Jits_ISO_8,3,5,63,98,1517017724
115,14,7,Jits_ISO_8,0,1,48,36,1517757336
115,14,7,Jits_ISO_8,1,5,56,103,1517758828
115,14,7,Jits_ISO_8,2,5,63,98,1517818176
115,14,7,Jits_ISO_8,3,5,80,127,1517877724
115,14,7,Jits_ISO_8,0,1,48,48,1518566160
115,14,7,Jits_ISO_8,1,5,80,127,1518578020
115,14,7,Jits_ISO_8,2,5,56,103,1518597656
115,14,7,Jits_ISO_8,3,5,63,98,1518668072
115,14,7,Jits_ISO_8,0,1,48,37,1519359496
115,14,7,Jits_ISO_8,1,5,80,127,1519377804
115,14,7,Jits_ISO_8,2,5,63,98,1519398116
115,14,7,Jits_ISO_8,3,5,56,103,1519427868
115,14,7,Jits_ISO_8,0,1,48,34,1520107740
115,14,7,Jits_ISO_8,1,5,80,127,1520168296
115,14,7,Jits_ISO_8,2,5,63,98,1520187636
115,14,7,Jits_ISO_8,3,5,56,103,1520248160
115,14,7,Jits_ISO_8,0,5,80,127,1520968012
115,14,7,Jits_ISO_8,1,1,48,31,1520971204
115,14,7,Jits_ISO_8,2,5,56,103,1521068340
115,14,7,Jits_ISO_8,3,5,63,98,1521098240
115,14,7,Jits_ISO_8,0,5,63,98,1521757696
115,14,7,Jits_ISO_8,1,5,80,127,1521807828
115,14,7,Jits_ISO_8,2,1,48,34,1521815304
115,14,7,Jits_ISO_8,3,5,56,103,1521828232
115,14,7,Jits_ISO_8,0,5,80,127,1522598188
115,14,7,Jits_ISO_8,1,1,48,40,1522626180
115,14,7,Jits_ISO_8,2,5,56,103,1522627852
115,14,7,Jits_ISO_8,3,5,63,98,1522630848
115,14,7,Jits_ISO_8,0,1,48,38,1523413596
115,14,7,Jits_ISO_8,1,5,63,98,1523427644
115,14,7,Jits_ISO_8,2,5,56,103,1523467732
115,14,7,Jits_ISO_8,3,5,80,127,1523488116
115,14,7,Jits_ISO_8,0,5,80,127,1524168100
115,14,7,Jits_ISO_8,1,1,48,35,1524220664
115,14,7,Jits_ISO_8,2,5,63,98,1524247892
115,14,7,Jits_ISO_8,3,5,56,103,1524287756
115,14,7,Jits_ISO_8,0,5,63,98,1524988352
115,14,7,Jits_ISO_8,1,1,48,33,1525028188
115,14,7,Jits_ISO_8,2,5,80,127,1525068220
115,14,7,Jits_ISO_8,3,5,56,103,1525087556
115,14,7,Jits_ISO_8,0,1,48,41,1525825956
115,14,7,Jits_ISO_8,1,5,56,103,1525827924
115,14,7,Jits_ISO_8,2,5,63,98,1525838044
115,14,7,Jits_ISO_8,3,5,80,127,1525877980
115,14,7,Jits_ISO_8,0,5,56,103,1526547916
115,14,7,Jits_ISO_8,1,5,80,127,1526550760
115,14,7,Jits_ISO_8,2,1,48,31,1526637872
115,14,7,Jits_ISO_8,3,5,63,98,1526688036
115,14,7,Jits_ISO_8,0,5,56,103,1527338488
115,14,7,Jits_ISO_8,1,5,63,98,1527427652
115,14,7,Jits_ISO_8,2,1,48,31,1527437448
115,14,7,Jits_ISO_8,3,5,80,127,1527498100
115,14,7,Jits_ISO_8,0,1,48,42,1528199992
115,14,7,Jits_ISO_8,1,5,63,98,1528217948
115,14,7,Jits_ISO_8,2,5,80,127,1528221388
115,14,7,Jits_ISO_8,3,5,56,103,1528278488
115,14,7,Jits_ISO_8,0,1,48,41,1528971376
115,14,7,Jits_ISO_8,1,5,80,127,1529057740
115,14,7,Jits_ISO_8,2,5,56,103,1529078036
115,14,7,Jits_ISO_8,3,5,63,98,1529088456
115,14,7,Jits_ISO_8,0,5,56,103,1529768524
115,14,7,Jits_ISO_8,1,5,63,98,1529777452
115,14,7,Jits_ISO_8,2,1,48,32,1529818336
115,14,7,Jits_ISO_8,3,5,80,127,1529848172
115,14,7,Jits_ISO_8,0,5,80,127,1530568100
115,14,7,Jits_ISO_8,1,1,48,32,1530579536
115,14,7,Jits_ISO_8,2,5,56,103,1530618296
115,14,7,Jits_ISO_8,3,5,63,98,1530668348
115,14,7,Jits_ISO_8,0,1,48,19,1531412672
115,14,7,Jits_ISO_8,1,5,56,103,1531447616
115,14,7,Jits_ISO_8,2,5,63,98,1531457888
115,14,7,Jits_ISO_8,3,5,80,127,1531497824
115,14,7,Jits_ISO_8,0,5,56,103,1532187996
115,14,7,Jits_ISO_8,1,1,48,39,1532210668
115,14,7,Jits_ISO_8,2,5,63,98,1532227928
115,14,7,Jits_ISO_8,3,5,80,127,1532278056
115,14,7,Jits_ISO_8,0,5,80,127,1532947864
115,14,7,Jits_ISO_8,1,5,56,103,1532997920
115,14,7,Jits_ISO_8,2,1,48,19,1532999256
115,14,7,Jits_ISO_8,3,5,63,98,1533017548
115,14,7,Jits_ISO_8,0,5,80,127,1533757924
115,14,7,Jits_ISO_8,1,1,48,33,1533759860
115,14,7,Jits_ISO_8,2,5,63,98,1533818160
115,14,7,Jits_ISO_8,3,5,56,103,1533898040
115,14,7,Jits_ISO_8,0,5,80,127,1534538092
115,14,7,Jits_ISO_8,1,5,56,103,1534577960
115,14,7,Jits_ISO_8,2,1,48,35,1534591416
115,14,7,Jits_ISO_8,3,5,63,98,1534597440
115,14,7,Jits_ISO_8,0,1,48,25,1535371940
115,14,7,Jits_ISO_8,1,5,56,103,1535388028
115,14,7,Jits_ISO_8,2,5,80,127,1535398524
115,14,7,Jits_ISO_8,3,5,63,98,1535438312
115,14,7,Jits_ISO_8,0,1,48,39,1536193024
115,14,7,Jits_ISO_8,1,5,56,103,1536258612
115,14,7,Jits_ISO_8,2,5,63,98,1536298460
115,14,7,Jits_ISO_8,3,5,80,127,1536301752
115,14,7,Jits_ISO_8,0,5,63,98,1536947444
115,14,7,Jits_ISO_8,1,5,80,127,1536987532
115,14,7,Jits_ISO_8,2,1,48,30,1537025496
115,14,7,Jits_ISO_8,3,5,56,103,1537058104
115,14,7,Jits_ISO_8,0,5,63,98,1537738228
115,14,7,Jits_ISO_8,1,1,48,36,1537772888
115,14,7,Jits_ISO_8,2,5,56,103,1537817876
115,14,7,Jits_ISO_8,3,5,80,127,1537878472
115,14,7,Jits_ISO_8,0,1,48,32,1538535272
115,14,7,Jits_ISO_8,1,5,80,127,1538548196
115,14,7,Jits_ISO_8,2,5,63,98,1538598400
115,14,7,Jits_ISO_8,3,5,56,103,1538627928
115,14,7,Jits_ISO_8,0,1,48,38,1539302244
115,14,7,Jits_ISO_8,1,5,56,103,1539337568
115,14,7,Jits_ISO_8,2,5,63,98,1539387768
115,14,7,Jits_ISO_8,3,5,80,127,1539398024
115,14,7,Jits_ISO_8,0,1,48,41,1540088764
115,14,7,Jits_ISO_8,1,5,56,103,1540147680
115,14,7,Jits_ISO_8,2,5,63,98,1540258280
115,14,7,Jits_ISO_8,3,5,80,127,1540277468
115,14,7,Jits_ISO_8,0,1,48,42,1540890496
115,14,7,Jits_ISO_8,1,5,63,98,1540948220
115,14,7,Jits_ISO_8,2,5,80,127,1540997436
115,14,7,Jits_ISO_8,3,5,56,103,1541087592
115,14,7,Jits_ISO_8,0,1,48,36,1541715372
115,14,7,Jits_ISO_8,1,5,63,98,1541737812
115,14,7,Jits_ISO_8,2,5,80,127,1541767488
115,14,7,Jits_ISO_8,3,5,56,103,1541857704
115,14,7,Jits_ISO_8,0,1,48,33,1542512008
115,14,7,Jits_ISO_8,1,5,63,98,1542537664
115,14,7,Jits_ISO_8,2,5,56,103,1542547860
115,14,7,Jits_ISO_8,3,5,80,127,1542648388
115,14,7,Jits_ISO_8,0,1,48,33,1543354264
115,14,7,Jits_ISO_8,1,5,63,98,1543437616
115,14,7,Jits_ISO_8,2,5,80,127,1543468400
115,14,7,Jits_ISO_8,3,5,56,103,1543498148
115,14,7,Jits_ISO_8,0,1,48,31,1544185816
115,14,7,Jits_ISO_8,1,5,80,127,1544257860
115,14,7,Jits_ISO_8,2,5,63,98,1544268428
115,14,7,Jits_ISO_8,3,5,56,103,1544297792
115,14,7,Jits_ISO_8,0,5,80,127,1544958384
115,14,7,Jits_ISO_8,1,5,63,98,1544977872
115,14,7,Jits_ISO_8,2,1,48,35,1544986916
115,14,7,Jits_ISO_8,3,5,56,103,1545027992
115,14,7,Jits_ISO_8,0,5,63,98,1545787700
115,14,7,Jits_ISO_8,1,1,48,36,1545796748
115,14,7,Jits_ISO_8,2,5,80,127,1545848388
115,14,7,Jits_ISO_8,3,5,56,103,1545867500
115,14,7,Jits_ISO_8,0,5,63,98,1546547628
115,14,7,Jits_ISO_8,1,1,48,35,1546581388
115,14,7,Jits_ISO_8,2,5,56,103,1546597604
115,14,7,Jits_ISO_8,3,5,80,127,1546608020
115,14,7,Jits_ISO_8,0,1,48,40,1547357120
115,14,7,Jits_ISO_8,1,5,56,103,1547378196
115,14,7,Jits_ISO_8,2,5,80,127,1547388316
115,14,7,Jits_ISO_8,3,5,63,98,1547487752
115,14,7,Jits_ISO_8,0,5,80,127,1548137752
115,14,7,Jits_ISO_8,1,5,63,98,1548148320
115,14,7,Jits_ISO_8,2,1,48,35,1548149960
115,14,7,Jits_ISO_8,3,5,56,103,1548297568
115,14,7,Jits_ISO_8,0,5,63,98,1548948136
115,14,7,Jits_ISO_8,1,5,80,127,1548987852
115,14,7,Jits_ISO_8,2,1,48,36,1549000864
115,14,7,Jits_ISO_8,3,5,56,103,1549067568
115,14,7,Jits_ISO_8,0,5,56,103,1549738328
115,14,7,Jits_ISO_8,1,1,48,43,1549753880
115,14,7,Jits_ISO_8,2,5,80,127,1549837824
115,14,7,Jits_ISO_8,3,5,63,98,1549858344
115,14,7,Jits_ISO_8,0,1,48,35,1550561016
115,14,7,Jits_ISO_8,1,5,80,127,1550597464
115,14,7,Jits_ISO_8,2,5,56,103,1550607660
115,14,7,Jits_ISO_8,3,5,63,98,1550697776
115,14,7,Jits_ISO_8,0,1,48,25,1551388684
115,14,7,Jits_ISO_8,1,5,56,103,1551398220
115,14,7,Jits_ISO_8,2,5,63,98,1551417632
115,14,7,Jits_ISO_8,3,5,80,127,1551497564
115,14,7,Jits_ISO_8,0,5,63,98,1552147892
115,14,7,Jits_ISO_8,1,1,48,22,1552179032
115,14,7,Jits_ISO_8,2,5,56,103,1552237868
115,14,7,Jits_ISO_8,3,5,80,127,1552240784
115,14,7,Jits_ISO_8,0,1,48,29,1552908452
115,14,7,Jits_ISO_8,1,5,56,103,1552978376
115,14,7,Jits_ISO_8,2,5,80,127,1553037560
115,14,7,Jits_ISO_8,3,5,63,98,1553048152
115,14,7,Jits_ISO_8,0,1,48,40,1553731228
115,14,7,Jits_ISO_8,1,5,80,127,1553828816
115,14,7,Jits_ISO_8,2,5,56,103,1553837444
115,14,7,Jits_ISO_8,3,5,63,98,1553840584
115,14,7,Jits_ISO_8,0,1,48,37,1554529212
115,14,7,Jits_ISO_8,1,5,56,103,1554588080
115,14,7,Jits_ISO_8,2,5,80,127,1554598424
115,14,7,Jits_ISO_8,3,5,63,98,1554617688
115,14,7,Jits_ISO_8,0,1,48,43,1555318960
115,14,7,Jits_ISO_8,1,5,63,98,1555358340
115,14,7,Jits_ISO_8,2,5,80,127,1555417448
115,14,7,Jits_ISO_8,3,5,56,103,1555467500
115,14,7,Jits_ISO_8,0,1,48,39,1556152404
115,14,7,Jits_ISO_8,1,5,63,98,1556237548
115,14,7,Jits_ISO_8,2,5,56,103,1556247952
115,14,7,Jits_ISO_8,3,5,80,127,1556298300
115,14,7,Jits_ISO_8,0,5,63,98,1556938144
115,14,7,Jits_ISO_8,1,5,80,127,1556957556
115,14,7,Jits_ISO_8,2,5,56,103,1556967676
115,14,7,Jits_ISO_8,3,1,48,28,1556986012
115,14,7,Jits_ISO_8,0,1,48,27,1557736696
115,14,7,Jits_ISO_8,1,5,63,98,1557738284
115,14,7,Jits_ISO_8,2,5,80,127,1557741344
115,14,7,Jits_ISO_8,3,5,56,103,1557777920
115,14,7,Jits_ISO_8,0,1,48,42,1558508204
115,14,7,Jits_ISO_8,1,5,63,98,1558609356
115,14,7,Jits_ISO_8,2,5,80,127,1558638060
115,14,7,Jits_ISO_8,3,5,56,103,1558648256
115,14,7,Jits_ISO_8,0,1,48,43,1559272316
115,14,7,Jits_ISO_8,1,5,56,103,1559357988
115,14,7,Jits_ISO_8,2,5,80,127,1559387428
115,14,7,Jits_ISO_8,3,5,63,98,1559418300
115,14,7,Jits_ISO_8,0,1,48,20,1560130920
115,14,7,Jits_ISO_8,1,5,63,98,1560257880
115,14,7,Jits_ISO_8,2,5,56,103,1560298120
115,14,7,Jits_ISO_8,3,5,80,127,1560300956
115,14,7,Jits_ISO_8,0,5,80,127,1560958460
115,14,7,Jits_ISO_8,1,1,48,36,1560959424
115,14,7,Jits_ISO_8,2,5,56,103,1561038200
115,14,7,Jits_ISO_8,3,5,63,98,1561088312
115,14,7,Jits_ISO_8,0,5,80,127,1561737588
115,14,7,Jits_ISO_8,1,5,56,103,1561757996
115,14,7,Jits_ISO_8,2,1,48,34,1561785004
115,14,7,Jits_ISO_8,3,5,63,98,1561848196
115,14,7,Jits_ISO_8,0,1,48,43,1562551004
115,14,7,Jits_ISO_8,1,5,80,127,1562578232
115,14,7,Jits_ISO_8,2,5,63,98,1562618172
115,14,7,Jits_ISO_8,3,5,56,103,1562658096
115,14,7,Jits_ISO_8,0,5,63,98,1563348356
115,14,7,Jits_ISO_8,1,1,48,34,1563349396
115,14,7,Jits_ISO_8,2,5,80,127,1563407844
115,14,7,Jits_ISO_8,3,5,56,103,1563437444
115,14,7,Jits_ISO_8,0,1,48,44,1564144568
115,14,7,Jits_ISO_8,1,5,56,103,1564148052
115,14,7,Jits_ISO_8,2,5,80,127,1564177952
115,14,7,Jits_ISO_8,3,5,63,98,1564267996
115,14,7,Jits_ISO_8,0,5,56,103,1564958108
115,14,7,Jits_ISO_8,1,1,48,40,1565020712
115,14,7,Jits_ISO_8,2,5,80,127,1565067568
115,14,7,Jits_ISO_8,3,5,63,98,1565098464
115,14,7,Jits_ISO_8,0,1,48,19,1565802532
115,14,7,Jits_ISO_8,1,5,56,103,1565808180
115,14,7,Jits_ISO_8,2,5,63,98,1565868300
115,14,7,Jits_ISO_8,3,5,80,127,1565897960
115,14,7,Jits_ISO_8,0,5,56,103,1566577932
115,14,7,Jits_ISO_8,1,1,48,19,1566645748
115,14,7,Jits_ISO_8,2,5,63,98,1566647636
115,14,7,Jits_ISO_8,3,5,80,127,1566668244
115,14,7,Jits_ISO_8,0,5,80,127,1567348064
115,14,7,Jits_ISO_8,1,1,48,45,1567364288
115,14,7,Jits_ISO_8,2,5,63,98,1567367916
115,14,7,Jits_ISO_8,3,5,56,103,1567417848
115,14,7,Jits_ISO_8,0,9999,9999,9999,1472615528
115,14,7,Jits_ISO_8,1,9999,9999,9999,1473415228
115,14,7,Jits_ISO_8,2,9999,9999,9999,1474216024
115,14,7,Jits_ISO_8,3,9999,9999,9999,1475015740
115,14,7,Jits_ISO_8,4,9999,9999,9999,1475815504
115,14,7,Jits_ISO_8,5,9999,9999,9999,1476615288
115,14,7,Jits_ISO_8,6,9999,9999,9999,1477416040
115,14,7,Jits_ISO_8,7,9999,9999,9999,1478215764
115,14,7,Jits_ISO_8,8,9999,9999,9999,1479015492
115,14,7,Jits_ISO_8,9,9999,9999,9999,1479815264
115,14,7,Jits_ISO_8,10,9999,9999,9999,1480615992
115,14,7,Jits_ISO_8,11,9999,9999,9999,1481415776
115,14,7,Jits_ISO_8,12,9999,9999,9999,1482215504
115,14,7,Jits_ISO_8,13,9999,9999,9999,1483015224
115,14,7,Jits_ISO_8,14,9999,9999,9999,1483816040
115,14,7,Jits_ISO_8,15,9999,9999,9999,1484615752
115,14,7,Jits_ISO_8,16,9999,9999,9999,1485415520
115,14,7,Jits_ISO_8,17,9999,9999,9999,1486215248
115,14,7,Jits_ISO_8,18,9999,9999,9999,1487016032
115,14,7,Jits_ISO_8,19,9999,9999,9999,1487815760
115,14,7,Jits_ISO_8,20,9999,9999,9999,1488615540
115,14,7,Jits_ISO_8,21,9999,9999,9999,1489415248
115,14,7,Jits_ISO_8,22,9999,9999,9999,1490216008
115,14,7,Jits_ISO_8,23,9999,9999,9999,1491015732
115,14,7,Jits_ISO_8,24,9999,9999,9999,1491815512
115,14,7,Jits_ISO_8,25,9999,9999,9999,1492615220
115,14,7,Jits_ISO_8,26,9999,9999,9999,1493416004
115,14,7,Jits_ISO_8,27,9999,9999,9999,1494215788
115,14,7,Jits_ISO_8,28,9999,9999,9999,1495015512
115,14,7,Jits_ISO_8,29,9999,9999,9999,1495815228
115,14,7,Jits_ISO_8,30,9999,9999,9999,1496616056
115,14,7,Jits_ISO_8,31,9999,9999,9999,1497415764
115,14,7,Jits_ISO_8,32,9999,9999,9999,1498215544
115,14,7,Jits_ISO_8,33,9999,9999,9999,1499015248
115,14,7,Jits_ISO_8,34,9999,9999,9999,1499816028
115,14,7,Jits_ISO_8,35,9999,9999,9999,1500615748
115,14,7,Jits_ISO_8,36,9999,9999,9999,1501415540
115,14,7,Jits_ISO_8,37,9999,9999,9999,1502215248
115,14,7,Jits_ISO_8,38,9999,9999,9999,1503015996
115,14,7,Jits_ISO_8,39,9999,9999,9999,1503815800
115,14,7,Jits_ISO_8,40,9999,9999,9999,1504615528
115,14,7,Jits_ISO_8,41,9999,9999,9999,1505415256
115,14,7,Jits_ISO_8,42,9999,9999,9999,1506216036
115,14,7,Jits_ISO_8,43,9999,9999,9999,1507015748
115,14,7,Jits_ISO_8,44,9999,9999,9999,1507815516
115,14,7,Jits_ISO_8,45,9999,9999,9999,1508615232
115,14,7,Jits_ISO_8,46,9999,9999,9999,1509415988
115,14,7,Jits_ISO_8,47,9999,9999,9999,1510215780
115,14,7,Jits_ISO_8,48,9999,9999,9999,1511015508
115,14,7,Jits_ISO_8,49,9999,9999,9999,1511815288
115,14,7,Jits_ISO_8,50,9999,9999,9999,1512615992
115,14,7,Jits_ISO_8,51,9999,9999,9999,1513415792
115,14,7,Jits_ISO_8,52,9999,9999,9999,1514215516
115,14,7,Jits_ISO_8,53,9999,9999,9999,1515015236
115,14,7,Jits_ISO_8,54,9999,9999,9999,1515815988
115,14,7,Jits_ISO_8,55,9999,9999,9999,1516615784
115,14,7,Jits_ISO_8,56,9999,9999,9999,1517415488
115,14,7,Jits_ISO_8,57,9999,9999,9999,1518215272
115,14,7,Jits_ISO_8,58,9999,9999,9999,1519016056
115,14,7,Jits_ISO_8,59,9999,9999,9999,1519815764
115,14,7,Jits_ISO_8,60,9999,9999,9999,1520615476
115,14,7,Jits_ISO_8,61,9999,9999,9999,1521415264
115,14,7,Jits_ISO_8,62,9999,9999,9999,1522216028
115,14,7,Jits_ISO_8,63,9999,9999,9999,1523015732
115,14,7,Jits_ISO_8,64,9999,9999,9999,1523815536
115,14,7,Jits_ISO_8,65,9999,9999,9999,1524615248
115,14,7,Jits_ISO_8,66,9999,9999,9999,1525416048
115,14,7,Jits_ISO_8,67,9999,9999,9999,1526215764
115,14,7,Jits_ISO_8,68,9999,9999,9999,1527015532
115,14,7,Jits_ISO_8,69,9999,9999,9999,1527815260
115,14,7,Jits_ISO_8,70,9999,9999,9999,1528616024
115,14,7,Jits_ISO_8,71,9999,9999,9999,1529415740
115,14,7,Jits_ISO_8,72,9999,9999,9999,1530215520
115,14,7,Jits_ISO_8,73,9999,9999,9999,1531015248
115,14,7,Jits_ISO_8,74,9999,9999,9999,1531816052
115,14,7,Jits_ISO_8,75,9999,9999,9999,1532615764
115,14,7,Jits_ISO_8,76,9999,9999,9999,1533415488
115,14,7,Jits_ISO_8,77,9999,9999,9999,1534215288
115,14,7,Jits_ISO_8,78,9999,9999,9999,1535016052
115,14,7,Jits_ISO_8,79,9999,9999,9999,1535815776
115,14,7,Jits_ISO_8,80,9999,9999,9999,1536615484
115,14,7,Jits_ISO_8,81,9999,9999,9999,1537415264
115,14,7,Jits_ISO_8,82,9999,9999,9999,1538216044
115,14,7,Jits_ISO_8,83,9999,9999,9999,1539015752
115,14,7,Jits_ISO_8,84,9999,9999,9999,1539815532
115,14,7,Jits_ISO_8,85,9999,9999,9999,1540615240
115,14,7,Jits_ISO_8,86,9999,9999,9999,1541416000
115,14,7,Jits_ISO_8,87,9999,9999,9999,1542215776
115,14,7,Jits_ISO_8,88,9999,9999,9999,1543015528
115,14,7,Jits_ISO_8,89,9999,9999,9999,1543815248
115,14,7,Jits_ISO_8,90,9999,9999,9999,1544616036
115,14,7,Jits_ISO_8,91,9999,9999,9999,1545415740
115,14,7,Jits_ISO_8,92,9999,9999,9999,1546215544
115,14,7,Jits_ISO_8,93,9999,9999,9999,1547015252
115,14,7,Jits_ISO_8,94,9999,9999,9999,1547816008
115,14,7,Jits_ISO_8,95,9999,9999,9999,1548615788
115,14,7,Jits_ISO_8,96,9999,9999,9999,1549415512
115,14,7,Jits_ISO_8,97,9999,9999,9999,1550215220
115,14,7,Jits_ISO_8,98,9999,9999,9999,1551016020
115,14,7,Jits_ISO_8,99,9999,9999,9999,1551815732
115,14,7,Jits_ISO_8,100,9999,9999,9999,1552615504
115,14,7,Jits_ISO_8,101,9999,9999,9999,1553415220
115,14,7,Jits_ISO_8,102,9999,9999,9999,1554216044
115,14,7,Jits_ISO_8,103,9999,9999,9999,1555015748
115,14,7,Jits_ISO_8,104,9999,9999,9999,1555815536
115,14,7,Jits_ISO_8,105,9999,9999,9999,1556615252
115,14,7,Jits_ISO_8,106,9999,9999,9999,1557416024
115,14,7,Jits_ISO_8,107,9999,9999,9999,1558215784
115,14,7,Jits_ISO_8,108,9999,9999,9999,1559015496
115,14,7,Jits_ISO_8,109,9999,9999,9999,1559815280
115,14,7,Jits_ISO_8,110,9999,9999,9999,1560616036
115,14,7,Jits_ISO_8,111,9999,9999,9999,1561415748
115,14,7,Jits_ISO_8,112,9999,9999,9999,1562215544
115,14,7,Jits_ISO_8,113,9999,9999,9999,1563015272
115,14,7,Jits_ISO_8,114,9999,9999,9999,1563816052
115,14,7,Jits_ISO_8,115,9999,9999,9999,1564615760
115,14,7,Jits_ISO_8,116,9999,9999,9999,1565415476
115,14,7,Jits_ISO_8,117,9999,9999,9999,1566215280
115,14,7,Jits_ISO_8,118,9999,9999,9999,1567016036
115,14,7,Jits_ISO_8,119,9999,9999,9999,1567815760
115,15,16,Jits_ISO_5,0,5,56,103,1576298924
115,15,16,Jits_ISO_5,1,5,63,98,1576301944
115,15,16,Jits_ISO_5,2,5,80,127,1576305144
115,15,16,Jits_ISO_5,0,5,56,103,1576798872
115,15,16,Jits_ISO_5,1,5,63,98,1576801892
115,15,16,Jits_ISO_5,2,5,80,127,1576804936
115,15,16,Jits_ISO_5,0,5,56,103,1577299280
115,15,16,Jits_ISO_5,1,5,80,127,1577308652
115,15,16,Jits_ISO_5,2,5,63,98,1577329108
115,15,16,Jits_ISO_5,0,5,63,98,1577748748
115,15,16,Jits_ISO_5,1,5,80,127,1577778644
115,15,16,Jits_ISO_5,2,5,56,103,1577788988
115,15,16,Jits_ISO_5,0,5,80,127,1578309004
115,15,16,Jits_ISO_5,1,5,56,103,1578319272
115,15,16,Jits_ISO_5,2,1,48,44,1578332208
115,15,16,Jits_ISO_5,3,5,63,98,1578348940
115,15,16,Jits_ISO_5,0,5,63,98,1578798340
115,15,16,Jits_ISO_5,1,5,56,103,1578829140
115,15,16,Jits_ISO_5,2,5,80,127,1578839484
115,15,16,Jits_ISO_5,3,1,48,43,1578847332
115,15,16,Jits_ISO_5,0,5,56,103,1579249152
115,15,16,Jits_ISO_5,1,5,63,98,1579299132
115,15,16,Jits_ISO_5,2,5,80,127,1579318840
115,15,16,Jits_ISO_5,3,1,48,46,1579330804
115,15,16,Jits_ISO_5,0,5,80,127,1579748676
115,15,16,Jits_ISO_5,1,5,63,98,1579799248
115,15,16,Jits_ISO_5,2,1,48,47,1579807620
115,15,16,Jits_ISO_5,3,5,56,103,1579838808
115,15,16,Jits_ISO_5,0,5,56,103,1580248572
115,15,16,Jits_ISO_5,1,5,63,98,1580279148
115,15,16,Jits_ISO_5,2,1,48,46,1580315444
115,15,16,Jits_ISO_5,3,5,80,127,1580348816
115,15,16,Jits_ISO_5,0,5,56,103,1580749144
115,15,16,Jits_ISO_5,1,1,48,44,1580781328
115,15,16,Jits_ISO_5,2,5,80,127,1580808856
115,15,16,Jits_ISO_5,3,5,63,98,1580839276
115,15,16,Jits_ISO_5,0,5,56,103,1581259084
115,15,16,Jits_ISO_5,1,5,63,98,1581269280
115,15,16,Jits_ISO_5,2,1,48,43,1581276132
115,15,16,Jits_ISO_5,3,5,80,127,1581309284
115,15,16,Jits_ISO_5,0,5,63,98,1581748640
115,15,16,Jits_ISO_5,1,1,48,39,1581774908
115,15,16,Jits_ISO_5,2,5,80,127,1581828580
115,15,16,Jits_ISO_5,3,5,56,103,1581838776
115,15,16,Jits_ISO_5,0,1,48,42,1582254180
115,15,16,Jits_ISO_5,1,5,63,98,1582298564
115,15,16,Jits_ISO_5,2,5,56,103,1582338272
115,15,16,Jits_ISO_5,3,5,80,127,1582341496
115,15,16,Jits_ISO_5,0,1,48,37,1582740128
115,15,16,Jits_ISO_5,1,5,56,103,1582759408
115,15,16,Jits_ISO_5,2,5,63,98,1582768632
115,15,16,Jits_ISO_5,3,5,80,127,1582808420
115,15,16,Jits_ISO_5,0,1,48,39,1583243724
115,15,16,Jits_ISO_5,1,5,56,103,1583248844
115,15,16,Jits_ISO_5,2,5,63,98,1583251936
115,15,16,Jits_ISO_5,3,5,80,127,1583269180
115,15,16,Jits_ISO_5,0,1,48,43,1583740524
115,15,16,Jits_ISO_5,1,5,80,127,1583758680
115,15,16,Jits_ISO_5,2,5,56,103,1583768900
115,15,16,Jits_ISO_5,3,5,63,98,1583838712
115,15,16,Jits_ISO_5,0,1,48,39,1584240708
115,15,16,Jits_ISO_5,1,5,63,98,1584249196
115,15,16,Jits_ISO_5,2,5,56,103,1584268612
115,15,16,Jits_ISO_5,3,5,80,127,1584348632
115,15,16,Jits_ISO_5,0,1,48,39,1584750176
115,15,16,Jits_ISO_5,1,5,56,103,1584759192
115,15,16,Jits_ISO_5,2,5,80,127,1584799080
115,15,16,Jits_ISO_5,3,5,63,98,1584809204
115,15,16,Jits_ISO_5,0,1,48,43,1585232596
115,15,16,Jits_ISO_5,1,5,80,127,1585248808
115,15,16,Jits_ISO_5,2,5,63,98,1585279232
115,15,16,Jits_ISO_5,3,5,56,103,1585319268
115,15,16,Jits_ISO_5,0,1,48,40,1585747836
115,15,16,Jits_ISO_5,1,5,56,103,1585768764
115,15,16,Jits_ISO_5,2,5,63,98,1585798736
115,15,16,Jits_ISO_5,3,5,80,127,1585848724
115,15,16,Jits_ISO_5,0,1,48,45,1586251016
115,15,16,Jits_ISO_5,1,5,80,127,1586268648
115,15,16,Jits_ISO_5,2,5,56,103,1586308736
115,15,16,Jits_ISO_5,3,5,63,98,1586318784
115,15,16,Jits_ISO_5,0,5,80,127,1586748760
115,15,16,Jits_ISO_5,1,5,63,98,1586788624
115,15,16,Jits_ISO_5,2,1,48,44,1586789588
115,15,16,Jits_ISO_5,3,5,56,103,1586849180
115,15,16,Jits_ISO_5,0,5,56,103,1587248732
115,15,16,Jits_ISO_5,1,5,80,127,1587258856
115,15,16,Jits_ISO_5,2,1,48,41,1587288872
115,15,16,Jits_ISO_5,3,5,63,98,1587338564
115,15,16,Jits_ISO_5,0,5,80,127,1587749376
115,15,16,Jits_ISO_5,1,1,48,43,1587787564
115,15,16,Jits_ISO_5,2,5,63,98,1587808712
115,15,16,Jits_ISO_5,3,5,56,103,1587839584
115,15,16,Jits_ISO_5,0,5,56,103,1588248976
115,15,16,Jits_ISO_5,1,5,80,127,1588309292
115,15,16,Jits_ISO_5,2,1,48,42,1588310260
115,15,16,Jits_ISO_5,3,5,63,98,1588349296
115,15,16,Jits_ISO_5,0,5,56,103,1588798848
115,15,16,Jits_ISO_5,1,1,48,38,1588806908
115,15,16,Jits_ISO_5,2,5,63,98,1588808956
115,15,16,Jits_ISO_5,3,5,80,127,1588812472
115,15,16,Jits_ISO_5,0,5,80,127,1589249512
115,15,16,Jits_ISO_5,1,1,48,43,1589298416
115,15,16,Jits_ISO_5,2,5,63,98,1589338592
115,15,16,Jits_ISO_5,3,5,56,103,1589348712
115,15,16,Jits_ISO_5,0,5,56,103,1589759432
115,15,16,Jits_ISO_5,1,5,63,98,1589762456
115,15,16,Jits_ISO_5,2,5,80,127,1589765652
115,15,16,Jits_ISO_5,3,1,48,44,1589792380
115,15,16,Jits_ISO_5,0,5,80,127,1590278504
115,15,16,Jits_ISO_5,1,1,48,41,1590304468
115,15,16,Jits_ISO_5,2,5,63,98,1590328552
115,15,16,Jits_ISO_5,3,5,56,103,1590359572
115,15,16,Jits_ISO_5,0,5,56,103,1590758700
115,15,16,Jits_ISO_5,1,5,80,127,1590768972
115,15,16,Jits_ISO_5,2,5,63,98,1590838500
115,15,16,Jits_ISO_5,3,1,48,43,1590841544
115,15,16,Jits_ISO_5,0,5,56,103,1591268784
115,15,16,Jits_ISO_5,1,5,63,98,1591289096
115,15,16,Jits_ISO_5,2,1,48,43,1591337100
115,15,16,Jits_ISO_5,3,5,80,127,1591348728
115,15,16,Jits_ISO_5,0,5,80,127,1591759244
115,15,16,Jits_ISO_5,1,5,63,98,1591828704
115,15,16,Jits_ISO_5,2,5,56,103,1591849532
115,15,16,Jits_ISO_5,3,1,48,41,1591862692
115,15,16,Jits_ISO_5,0,5,80,127,1592279672
115,15,16,Jits_ISO_5,1,5,56,103,1592288524
115,15,16,Jits_ISO_5,2,5,63,98,1592298716
115,15,16,Jits_ISO_5,3,1,48,45,1592365204
115,15,16,Jits_ISO_5,0,5,80,127,1592768780
115,15,16,Jits_ISO_5,1,5,56,103,1592789536
115,15,16,Jits_ISO_5,2,5,63,98,1592858844
115,15,16,Jits_ISO_5,3,1,48,36,1592877404
115,15,16,Jits_ISO_5,0,5,56,103,1593278796
115,15,16,Jits_ISO_5,1,5,80,127,1593308696
115,15,16,Jits_ISO_5,2,5,63,98,1593329004
115,15,16,Jits_ISO_5,3,1,48,38,1593367412
115,15,16,Jits_ISO_5,0,5,63,98,1593769552
115,15,16,Jits_ISO_5,1,5,56,103,1593828824
115,15,16,Jits_ISO_5,2,5,80,127,1593858496
115,15,16,Jits_ISO_5,3,1,48,41,1593860864
115,15,16,Jits_ISO_5,0,5,63,98,1594258872
115,15,16,Jits_ISO_5,1,5,80,127,1594262236
115,15,16,Jits_ISO_5,2,5,56,103,1594348928
115,15,16,Jits_ISO_5,3,1,48,37,1594365372
115,15,16,Jits_ISO_5,0,5,56,103,1594779048
115,15,16,Jits_ISO_5,1,5,63,98,1594808876
115,15,16,Jits_ISO_5,2,5,80,127,1594848588
115,15,16,Jits_ISO_5,3,1,48,35,1594850072
115,15,16,Jits_ISO_5,0,5,63,98,1595278624
115,15,16,Jits_ISO_5,1,1,48,41,1595318364
115,15,16,Jits_ISO_5,2,5,56,103,1595319852
115,15,16,Jits_ISO_5,3,5,80,127,1595339264
115,15,16,Jits_ISO_5,0,5,63,98,1595788624
115,15,16,Jits_ISO_5,1,1,48,36,1595810876
115,15,16,Jits_ISO_5,2,5,56,103,1595828656
115,15,16,Jits_ISO_5,3,5,80,127,1595838776
115,15,16,Jits_ISO_5,0,5,80,127,1596269032
115,15,16,Jits_ISO_5,1,1,48,43,1596298224
115,15,16,Jits_ISO_5,2,5,63,98,1596338504
115,15,16,Jits_ISO_5,3,5,56,103,1596358964
115,15,16,Jits_ISO_5,0,5,56,103,1596759336
115,15,16,Jits_ISO_5,1,5,80,127,1596778896
115,15,16,Jits_ISO_5,2,1,48,35,1596807420
115,15,16,Jits_ISO_5,3,5,63,98,1596818848
115,15,16,Jits_ISO_5,0,5,63,98,1597269492
115,15,16,Jits_ISO_5,1,5,80,127,1597288756
115,15,16,Jits_ISO_5,2,1,48,32,1597311280
115,15,16,Jits_ISO_5,3,5,56,103,1597328760
115,15,16,Jits_ISO_5,0,5,63,98,1597768928
115,15,16,Jits_ISO_5,1,5,56,103,1597788416
115,15,16,Jits_ISO_5,2,5,80,127,1597798760
115,15,16,Jits_ISO_5,3,1,48,43,1597802176
115,15,16,Jits_ISO_5,0,5,80,127,1598268804
115,15,16,Jits_ISO_5,1,5,56,103,1598289488
115,15,16,Jits_ISO_5,2,1,48,40,1598299504
115,15,16,Jits_ISO_5,3,5,63,98,1598318932
115,15,16,Jits_ISO_5,0,1,48,41,1598774504
115,15,16,Jits_ISO_5,1,5,56,103,1598839264
115,15,16,Jits_ISO_5,2,5,80,127,1598842404
115,15,16,Jits_ISO_5,3,5,63,98,1598858676
115,15,16,Jits_ISO_5,0,5,63,98,1599258988
115,15,16,Jits_ISO_5,1,5,56,103,1599288664
115,15,16,Jits_ISO_5,2,1,48,41,1599309916
115,15,16,Jits_ISO_5,3,5,80,127,1599349044
115,15,16,Jits_ISO_5,0,1,48,37,1599810908
115,15,16,Jits_ISO_5,1,5,63,98,1599838652
115,15,16,Jits_ISO_5,2,5,56,103,1599848776
115,15,16,Jits_ISO_5,3,5,80,127,1599859044
115,15,16,Jits_ISO_5,0,5,56,103,1600289100
115,15,16,Jits_ISO_5,1,5,80,127,1600318924
115,15,16,Jits_ISO_5,2,1,48,46,1600327532
115,15,16,Jits_ISO_5,3,5,63,98,1600329040
115,15,16,Jits_ISO_5,0,1,48,39,1600827036
115,15,16,Jits_ISO_5,1,5,63,98,1600828700
115,15,16,Jits_ISO_5,2,5,56,103,1600838972
115,15,16,Jits_ISO_5,3,5,80,127,1600858528
115,15,16,Jits_ISO_5,0,5,56,103,1601258916
115,15,16,Jits_ISO_5,1,5,63,98,1601319376
115,15,16,Jits_ISO_5,2,5,80,127,1601322668
115,15,16,Jits_ISO_5,3,1,48,49,1601335304
115,15,16,Jits_ISO_5,0,5,80,127,1601779028
115,15,16,Jits_ISO_5,1,5,56,103,1601789448
115,15,16,Jits_ISO_5,2,1,48,37,1601814596
115,15,16,Jits_ISO_5,3,5,63,98,1601858896
115,15,16,Jits_ISO_5,0,5,80,127,1602268588
115,15,16,Jits_ISO_5,1,1,48,47,1602301976
115,15,16,Jits_ISO_5,2,5,56,103,1602339384
115,15,16,Jits_ISO_5,3,5,63,98,1602349580
115,15,16,Jits_ISO_5,0,1,48,41,1602778796
115,15,16,Jits_ISO_5,1,5,63,98,1602809312
115,15,16,Jits_ISO_5,2,5,56,103,1602818388
115,15,16,Jits_ISO_5,3,5,80,127,1602838996
115,15,16,Jits_ISO_5,0,5,80,127,1603258784
115,15,16,Jits_ISO_5,1,1,48,45,1603284744
115,15,16,Jits_ISO_5,2,5,63,98,1603319092
115,15,16,Jits_ISO_5,3,5,56,103,1603358956
115,15,16,Jits_ISO_5,0,1,48,49,1603777160
115,15,16,Jits_ISO_5,1,5,56,103,1603799504
115,15,16,Jits_ISO_5,2,5,63,98,1603808580
115,15,16,Jits_ISO_5,3,5,80,127,1603848516
115,15,16,Jits_ISO_5,0,5,56,103,1604259388
115,15,16,Jits_ISO_5,1,1,48,46,1604276288
115,15,16,Jits_ISO_5,2,5,80,127,1604288908
115,15,16,Jits_ISO_5,3,5,63,98,1604339180
115,15,16,Jits_ISO_5,0,1,48,40,1604756092
115,15,16,Jits_ISO_5,1,5,56,103,1604798688
115,15,16,Jits_ISO_5,2,5,63,98,1604838696
115,15,16,Jits_ISO_5,3,5,80,127,1604842136
115,15,16,Jits_ISO_5,0,1,48,45,1605250336
115,15,16,Jits_ISO_5,1,5,56,103,1605298488
115,15,16,Jits_ISO_5,2,5,63,98,1605308832
115,15,16,Jits_ISO_5,3,5,80,127,1605329364
115,15,16,Jits_ISO_5,0,1,48,44,1605753888
115,15,16,Jits_ISO_5,1,5,56,103,1605759308
115,15,16,Jits_ISO_5,2,5,80,127,1605762372
115,15,16,Jits_ISO_5,3,5,63,98,1605799564
115,15,16,Jits_ISO_5,0,1,48,51,1606256216
115,15,16,Jits_ISO_5,1,5,63,98,1606299280
115,15,16,Jits_ISO_5,2,5,56,103,1606328584
115,15,16,Jits_ISO_5,3,5,80,127,1606349340
115,15,16,Jits_ISO_5,0,5,80,127,1606769108
115,15,16,Jits_ISO_5,1,1,48,44,1606774920
115,15,16,Jits_ISO_5,2,5,56,103,1606779220
115,15,16,Jits_ISO_5,3,5,63,98,1606788444
115,15,16,Jits_ISO_5,0,5,56,103,1607268624
115,15,16,Jits_ISO_5,1,1,48,42,1607288752
115,15,16,Jits_ISO_5,2,5,80,127,1607308632
115,15,16,Jits_ISO_5,3,5,63,98,1607339376
115,15,16,Jits_ISO_5,0,1,48,48,1607758824
115,15,16,Jits_ISO_5,1,5,63,98,1607778632
115,15,16,Jits_ISO_5,2,5,80,127,1607788900
115,15,16,Jits_ISO_5,3,5,56,103,1607799392
115,15,16,Jits_ISO_5,0,1,48,48,1608248216
115,15,16,Jits_ISO_5,1,5,56,103,1608258880
115,15,16,Jits_ISO_5,2,5,63,98,1608328636
115,15,16,Jits_ISO_5,3,5,80,127,1608339436
115,15,16,Jits_ISO_5,0,1,48,43,1608756424
115,15,16,Jits_ISO_5,1,5,80,127,1608758536
115,15,16,Jits_ISO_5,2,5,56,103,1608768732
115,15,16,Jits_ISO_5,3,5,63,98,1608819304
115,15,16,Jits_ISO_5,0,1,48,36,1609260636
115,15,16,Jits_ISO_5,1,5,80,127,1609268680
115,15,16,Jits_ISO_5,2,5,56,103,1609329144
115,15,16,Jits_ISO_5,3,5,63,98,1609358596
115,15,16,Jits_ISO_5,0,5,56,103,1609769368
115,15,16,Jits_ISO_5,1,5,80,127,1609772360
115,15,16,Jits_ISO_5,2,1,48,37,1609791288
115,15,16,Jits_ISO_5,3,5,63,98,1609809448
115,15,16,Jits_ISO_5,0,5,56,103,1610298844
115,15,16,Jits_ISO_5,1,1,48,55,1610299736
115,15,16,Jits_ISO_5,2,5,63,98,1610328368
115,15,16,Jits_ISO_5,3,5,80,127,1610338708
115,15,16,Jits_ISO_5,0,5,63,98,1610808712
115,15,16,Jits_ISO_5,1,1,48,51,1610818832
115,15,16,Jits_ISO_5,2,5,80,127,1610820320
115,15,16,Jits_ISO_5,3,5,56,103,1610829244
115,15,16,Jits_ISO_5,0,5,80,127,1611259220
115,15,16,Jits_ISO_5,1,1,48,45,1611309340
115,15,16,Jits_ISO_5,2,5,56,103,1611310780
115,15,16,Jits_ISO_5,3,5,63,98,1611313528
115,15,16,Jits_ISO_5,0,5,56,103,1611788552
115,15,16,Jits_ISO_5,1,5,80,127,1611809384
115,15,16,Jits_ISO_5,2,5,63,98,1611819356
115,15,16,Jits_ISO_5,3,1,48,38,1611838516
115,15,16,Jits_ISO_5,0,5,63,98,1612268896
115,15,16,Jits_ISO_5,1,5,56,103,1612298644
115,15,16,Jits_ISO_5,2,1,48,57,1612301164
115,15,16,Jits_ISO_5,3,5,80,127,1612319320
115,15,16,Jits_ISO_5,0,1,48,44,1612769264
115,15,16,Jits_ISO_5,1,5,56,103,1612778808
115,15,16,Jits_ISO_5,2,5,80,127,1612789304
115,15,16,Jits_ISO_5,3,5,63,98,1612858684
115,15,16,Jits_ISO_5,0,5,63,98,1613269484
115,15,16,Jits_ISO_5,1,5,80,127,1613309424
115,15,16,Jits_ISO_5,2,1,48,22,1613331648
115,15,16,Jits_ISO_5,3,5,56,103,1613349352
115,15,16,Jits_ISO_5,0,5,56,103,1613779184
115,15,16,Jits_ISO_5,1,5,63,98,1613788556
115,15,16,Jits_ISO_5,2,5,80,127,1613809092
115,15,16,Jits_ISO_5,3,1,48,41,1613844644
115,15,16,Jits_ISO_5,0,5,63,98,1614319164
115,15,16,Jits_ISO_5,1,5,80,127,1614338352
115,15,16,Jits_ISO_5,2,1,48,44,1614341472
115,15,16,Jits_ISO_5,3,5,56,103,1614359024
115,15,16,Jits_ISO_5,0,5,56,103,1614759340
115,15,16,Jits_ISO_5,1,1,48,40,1614835420
115,15,16,Jits_ISO_5,2,5,80,127,1614839128
115,15,16,Jits_ISO_5,3,5,63,98,1614849396
115,15,16,Jits_ISO_5,0,5,80,127,1615299020
115,15,16,Jits_ISO_5,1,5,63,98,1615309368
115,15,16,Jits_ISO_5,2,1,48,42,1615326580
115,15,16,Jits_ISO_5,3,5,56,103,1615338736
115,15,16,Jits_ISO_5,0,5,63,98,1615758736
115,15,16,Jits_ISO_5,1,5,80,127,1615798772
115,15,16,Jits_ISO_5,2,1,48,42,1615819648
115,15,16,Jits_ISO_5,3,5,56,103,1615859152
115,15,16,Jits_ISO_5,0,5,63,98,1616268584
115,15,16,Jits_ISO_5,1,1,48,33,1616296968
115,15,16,Jits_ISO_5,2,5,56,103,1616318956
115,15,16,Jits_ISO_5,3,5,80,127,1616348404
115,15,16,Jits_ISO_5,0,5,80,127,1616778580
115,15,16,Jits_ISO_5,1,5,63,98,1616788952
115,15,16,Jits_ISO_5,2,1,48,40,1616796800
115,15,16,Jits_ISO_5,3,5,56,103,1616858472
115,15,16,Jits_ISO_5,0,1,48,40,1617315924
115,15,16,Jits_ISO_5,1,5,80,127,1617349072
115,15,16,Jits_ISO_5,2,5,56,103,1617359192
115,15,16,Jits_ISO_5,3,5,63,98,1617362260
115,15,16,Jits_ISO_5,0,5,56,103,1617789224
115,15,16,Jits_ISO_5,1,1,48,46,1617807960
115,15,16,Jits_ISO_5,2,5,80,127,1617809604
115,15,16,Jits_ISO_5,3,5,63,98,1617819420
115,15,16,Jits_ISO_5,0,5,63,98,1618299132
115,15,16,Jits_ISO_5,1,1,48,42,1618326016
115,15,16,Jits_ISO_5,2,5,56,103,1618339164
115,15,16,Jits_ISO_5,3,5,80,127,1618358720
115,15,16,Jits_ISO_5,0,5,63,98,1618799092
115,15,16,Jits_ISO_5,1,1,48,40,1618803184
115,15,16,Jits_ISO_5,2,5,56,103,1618859500
115,15,16,Jits_ISO_5,3,5,80,127,1618862568
115,15,16,Jits_ISO_5,0,5,56,103,1619258740
115,15,16,Jits_ISO_5,1,5,80,127,1619279200
115,15,16,Jits_ISO_5,2,1,48,46,1619316172
115,15,16,Jits_ISO_5,3,5,63,98,1619319352
115,15,16,Jits_ISO_5,0,1,48,40,1619783320
115,15,16,Jits_ISO_5,1,5,56,103,1619789120
115,15,16,Jits_ISO_5,2,5,63,98,1619808532
115,15,16,Jits_ISO_5,3,5,80,127,1619818728
115,15,16,Jits_ISO_5,0,5,80,127,1620259264
115,15,16,Jits_ISO_5,1,5,56,103,1620289016
115,15,16,Jits_ISO_5,2,1,48,45,1620305016
115,15,16,Jits_ISO_5,3,5,63,98,1620328796
115,15,16,Jits_ISO_5,0,5,80,127,1620769272
115,15,16,Jits_ISO_5,1,1,48,43,1620788460
115,15,16,Jits_ISO_5,2,5,56,103,1620790020
115,15,16,Jits_ISO_5,3,5,63,98,1620849140
115,15,16,Jits_ISO_5,0,5,56,103,1621279136
115,15,16,Jits_ISO_5,1,5,80,127,1621298400
115,15,16,Jits_ISO_5,2,1,48,44,1621301444
115,15,16,Jits_ISO_5,3,5,63,98,1621359076
115,15,16,Jits_ISO_5,0,5,80,127,1621759256
115,15,16,Jits_ISO_5,1,5,56,103,1621768628
115,15,16,Jits_ISO_5,2,1,48,38,1621786648
115,15,16,Jits_ISO_5,3,5,63,98,1621808560
115,15,16,Jits_ISO_5,0,5,63,98,1622259300
115,15,16,Jits_ISO_5,1,1,48,45,1622269172
115,15,16,Jits_ISO_5,2,5,56,103,1622299156
115,15,16,Jits_ISO_5,3,5,80,127,1622302224
115,15,16,Jits_ISO_5,0,1,48,42,1622760188
115,15,16,Jits_ISO_5,1,5,63,98,1622779244
115,15,16,Jits_ISO_5,2,5,80,127,1622819260
115,15,16,Jits_ISO_5,3,5,56,103,1622849084
115,15,16,Jits_ISO_5,0,5,56,103,1623268576
115,15,16,Jits_ISO_5,1,1,48,38,1623269616
115,15,16,Jits_ISO_5,2,5,63,98,1623279064
115,15,16,Jits_ISO_5,3,5,80,127,1623308592
115,15,16,Jits_ISO_5,0,1,48,43,1623750684
115,15,16,Jits_ISO_5,1,5,80,127,1623759172
115,15,16,Jits_ISO_5,2,5,63,98,1623828780
115,15,16,Jits_ISO_5,3,5,56,103,1623839052
115,15,16,Jits_ISO_5,0,5,63,98,1624259136
115,15,16,Jits_ISO_5,1,1,48,51,1624274316
115,15,16,Jits_ISO_5,2,5,56,103,1624328440
115,15,16,Jits_ISO_5,3,5,80,127,1624338784
115,15,16,Jits_ISO_5,0,5,63,98,1624758500
115,15,16,Jits_ISO_5,1,5,56,103,1624779032
115,15,16,Jits_ISO_5,2,1,48,35,1624781044
115,15,16,Jits_ISO_5,3,5,80,127,1624819260
115,15,16,Jits_ISO_5,0,5,56,103,1625268568
115,15,16,Jits_ISO_5,1,5,63,98,1625278912
115,15,16,Jits_ISO_5,2,1,48,29,1625280924
115,15,16,Jits_ISO_5,3,5,80,127,1625358920
115,15,16,Jits_ISO_5,0,5,63,98,1625759252
115,15,16,Jits_ISO_5,1,1,48,38,1625761264
115,15,16,Jits_ISO_5,2,5,56,103,1625788772
115,15,16,Jits_ISO_5,3,5,80,127,1625828708
115,15,16,Jits_ISO_5,0,5,56,103,1626259056
115,15,16,Jits_ISO_5,1,1,48,56,1626271092
115,15,16,Jits_ISO_5,2,5,63,98,1626298616
115,15,16,Jits_ISO_5,3,5,80,127,1626338628
115,15,16,Jits_ISO_5,0,5,80,127,1626758556
115,15,16,Jits_ISO_5,1,1,48,36,1626768452
115,15,16,Jits_ISO_5,2,5,56,103,1626839344
115,15,16,Jits_ISO_5,3,5,63,98,1626848492
115,15,16,Jits_ISO_5,0,5,56,103,1627299308
115,15,16,Jits_ISO_5,1,5,63,98,1627302376
115,15,16,Jits_ISO_5,2,1,48,32,1627306616
115,15,16,Jits_ISO_5,3,5,80,127,1627309276
115,15,16,Jits_ISO_5,0,1,48,45,1627813248
115,15,16,Jits_ISO_5,1,5,56,103,1627819348
115,15,16,Jits_ISO_5,2,5,63,98,1627838980
115,15,16,Jits_ISO_5,3,5,80,127,1627848952
115,15,16,Jits_ISO_5,0,5,63,98,1628279132
115,15,16,Jits_ISO_5,1,5,80,127,1628289400
115,15,16,Jits_ISO_5,2,5,56,103,1628309060
115,15,16,Jits_ISO_5,3,1,48,61,1628339976
115,15,16,Jits_ISO_5,0,5,63,98,1628779152
115,15,16,Jits_ISO_5,1,1,48,37,1628807308
115,15,16,Jits_ISO_5,2,5,56,103,1628858588
115,15,16,Jits_ISO_5,3,5,80,127,1628861808
115,15,16,Jits_ISO_5,0,5,63,98,1629278512
115,15,16,Jits_ISO_5,1,5,56,103,1629299044
115,15,16,Jits_ISO_5,2,5,80,127,1629329040
115,15,16,Jits_ISO_5,3,1,48,38,1629366852
115,15,16,Jits_ISO_5,0,5,56,103,1629779292
115,15,16,Jits_ISO_5,1,5,63,98,1629798852
115,15,16,Jits_ISO_5,2,5,80,127,1629809124
115,15,16,Jits_ISO_5,3,1,48,43,1629825348
115,15,16,Jits_ISO_5,0,5,56,103,1630308932
115,15,16,Jits_ISO_5,1,1,48,61,1630330408
115,15,16,Jits_ISO_5,2,5,63,98,1630338524
115,15,16,Jits_ISO_5,3,5,80,127,1630341964
115,15,16,Jits_ISO_5,0,5,56,103,1630759228
115,15,16,Jits_ISO_5,1,1,48,43,1630790440
115,15,16,Jits_ISO_5,2,5,63,98,1630799232
115,15,16,Jits_ISO_5,3,5,80,127,1630858648
115,15,16,Jits_ISO_5,0,5,56,103,1631278380
115,15,16,Jits_ISO_5,1,5,63,98,1631288800
115,15,16,Jits_ISO_5,2,1,48,47,1631289692
115,15,16,Jits_ISO_5,3,5,80,127,1631349180
115,15,16,Jits_ISO_5,0,5,56,103,1631779176
115,15,16,Jits_ISO_5,1,1,48,45,1631793384
115,15,16,Jits_ISO_5,2,5,80,127,1631798728
115,15,16,Jits_ISO_5,3,5,63,98,1631829304
115,15,16,Jits_ISO_5,0,5,80,127,1632279076
115,15,16,Jits_ISO_5,1,5,56,103,1632289344
115,15,16,Jits_ISO_5,2,1,48,53,1632304228
115,15,16,Jits_ISO_5,3,5,63,98,1632308452
115,15,16,Jits_ISO_5,0,5,63,98,1632769452
115,15,16,Jits_ISO_5,1,1,48,38,1632808168
115,15,16,Jits_ISO_5,2,5,80,127,1632849392
115,15,16,Jits_ISO_5,3,5,56,103,1632858464
115,15,16,Jits_ISO_5,0,1,48,42,1633290208
115,15,16,Jits_ISO_5,1,5,80,127,1633328524
115,15,16,Jits_ISO_5,2,5,56,103,1633349052
115,15,16,Jits_ISO_5,3,5,63,98,1633352120
115,15,16,Jits_ISO_5,0,1,48,43,1633796680
115,15,16,Jits_ISO_5,1,5,63,98,1633798424
115,15,16,Jits_ISO_5,2,5,80,127,1633801572
115,15,16,Jits_ISO_5,3,5,56,103,1633859040
115,15,16,Jits_ISO_5,0,5,56,103,1634278984
115,15,16,Jits_ISO_5,1,5,80,127,1634289028
115,15,16,Jits_ISO_5,2,1,48,54,1634309164
115,15,16,Jits_ISO_5,3,5,63,98,1634328888
115,15,16,Jits_ISO_5,0,5,56,103,1634758952
115,15,16,Jits_ISO_5,1,1,48,46,1634790620
115,15,16,Jits_ISO_5,2,5,63,98,1634818364
115,15,16,Jits_ISO_5,3,5,80,127,1634828560
115,15,16,Jits_ISO_5,0,5,63,98,1635269116
115,15,16,Jits_ISO_5,1,5,80,127,1635308832
115,15,16,Jits_ISO_5,2,1,48,45,1635316980
115,15,16,Jits_ISO_5,3,5,56,103,1635349060
115,15,16,Jits_ISO_5,0,5,56,103,1635768928
115,15,16,Jits_ISO_5,1,1,48,46,1635784932
115,15,16,Jits_ISO_5,2,5,63,98,1635848492
115,15,16,Jits_ISO_5,3,5,80,127,1635852152
115,15,16,Jits_ISO_5,0,9999,9999,9999,1576546428
115,15,16,Jits_ISO_5,1,9999,9999,9999,1577046072
115,15,16,Jits_ISO_5,2,9999,9999,9999,1577546860
115,15,16,Jits_ISO_5,3,9999,9999,9999,1578046520
115,15,16,Jits_ISO_5,4,9999,9999,9999,1578546300
115,15,16,Jits_ISO_5,5,9999,9999,9999,1579047024
115,15,16,Jits_ISO_5,6,9999,9999,9999,1579546684
115,15,16,Jits_ISO_5,7,9999,9999,9999,1580046432
115,15,16,Jits_ISO_5,8,9999,9999,9999,1580546104
115,15,16,Jits_ISO_5,9,9999,9999,9999,1581046900
115,15,16,Jits_ISO_5,10,9999,9999,9999,1581546572
115,15,16,Jits_ISO_5,11,9999,9999,9999,1582046320
115,15,16,Jits_ISO_5,12,9999,9999,9999,1582547024
115,15,16,Jits_ISO_5,13,9999,9999,9999,1583046752
115,15,16,Jits_ISO_5,14,9999,9999,9999,1583546468
115,15,16,Jits_ISO_5,15,9999,9999,9999,1584046200
115,15,16,Jits_ISO_5,16,9999,9999,9999,1584546908
115,15,16,Jits_ISO_5,17,9999,9999,9999,1585046640
115,15,16,Jits_ISO_5,18,9999,9999,9999,1585546344
115,15,16,Jits_ISO_5,19,9999,9999,9999,1586047044
115,15,16,Jits_ISO_5,20,9999,9999,9999,1586546780
115,15,16,Jits_ISO_5,21,9999,9999,9999,1587046516
115,15,16,Jits_ISO_5,22,9999,9999,9999,1587546188
115,15,16,Jits_ISO_5,23,9999,9999,9999,1588046908
115,15,16,Jits_ISO_5,24,9999,9999,9999,1588546656
115,15,16,Jits_ISO_5,25,9999,9999,9999,1589046396
115,15,16,Jits_ISO_5,26,9999,9999,9999,1589547120
115,15,16,Jits_ISO_5,27,9999,9999,9999,1590057028
115,15,16,Jits_ISO_5,28,9999,9999,9999,1590556784
115,15,16,Jits_ISO_5,29,9999,9999,9999,1591056452
115,15,16,Jits_ISO_5,30,9999,9999,9999,1591556204
115,15,16,Jits_ISO_5,31,9999,9999,9999,1592056924
115,15,16,Jits_ISO_5,32,9999,9999,9999,1592556596
115,15,16,Jits_ISO_5,33,9999,9999,9999,1593056348
115,15,16,Jits_ISO_5,34,9999,9999,9999,1593557068
115,15,16,Jits_ISO_5,35,9999,9999,9999,1594056820
115,15,16,Jits_ISO_5,36,9999,9999,9999,1594556468
115,15,16,Jits_ISO_5,37,9999,9999,9999,1595056204
115,15,16,Jits_ISO_5,38,9999,9999,9999,1595556924
115,15,16,Jits_ISO_5,39,9999,9999,9999,1596056660
115,15,16,Jits_ISO_5,40,9999,9999,9999,1596556376
115,15,16,Jits_ISO_5,41,9999,9999,9999,1597056112
115,15,16,Jits_ISO_5,42,9999,9999,9999,1597556832
115,15,16,Jits_ISO_5,43,9999,9999,9999,1598056564
115,15,16,Jits_ISO_5,44,9999,9999,9999,1598556220
115,15,16,Jits_ISO_5,45,9999,9999,9999,1599057008
115,15,16,Jits_ISO_5,46,9999,9999,9999,1599556664
115,15,16,Jits_ISO_5,47,9999,9999,9999,1600056404
115,15,16,Jits_ISO_5,48,9999,9999,9999,1600556140
115,15,16,Jits_ISO_5,49,9999,9999,9999,1601056864
115,15,16,Jits_ISO_5,50,9999,9999,9999,1601556584
115,15,16,Jits_ISO_5,51,9999,9999,9999,1602056256
115,15,16,Jits_ISO_5,52,9999,9999,9999,1602556980
115,15,16,Jits_ISO_5,53,9999,9999,9999,1603056732
115,15,16,Jits_ISO_5,54,9999,9999,9999,1603556464
115,15,16,Jits_ISO_5,55,9999,9999,9999,1604056136
115,15,16,Jits_ISO_5,56,9999,9999,9999,1604556916
115,15,16,Jits_ISO_5,57,9999,9999,9999,1605056584
115,15,16,Jits_ISO_5,58,9999,9999,9999,1605556316
115,15,16,Jits_ISO_5,59,9999,9999,9999,1606057080
115,15,16,Jits_ISO_5,60,9999,9999,9999,1606556740
115,15,16,Jits_ISO_5,61,9999,9999,9999,1607056468
115,15,16,Jits_ISO_5,62,9999,9999,9999,1607556192
115,15,16,Jits_ISO_5,63,9999,9999,9999,1608056908
115,15,16,Jits_ISO_5,64,9999,9999,9999,1608556640
115,15,16,Jits_ISO_5,65,9999,9999,9999,1609056372
115,15,16,Jits_ISO_5,66,9999,9999,9999,1609557052
115,15,16,Jits_ISO_5,67,9999,9999,9999,1610056772
115,15,16,Jits_ISO_5,68,9999,9999,9999,1610556520
115,15,16,Jits_ISO_5,69,9999,9999,9999,1611056196
115,15,16,Jits_ISO_5,70,9999,9999,9999,1611556964
115,15,16,Jits_ISO_5,71,9999,9999,9999,1612056636
115,15,16,Jits_ISO_5,72,9999,9999,9999,1612556384
115,15,16,Jits_ISO_5,73,9999,9999,9999,1613056120
115,15,16,Jits_ISO_5,74,9999,9999,9999,1613556828
115,15,16,Jits_ISO_5,75,9999,9999,9999,1614056560
115,15,16,Jits_ISO_5,76,9999,9999,9999,1614556240
115,15,16,Jits_ISO_5,77,9999,9999,9999,1615057020
115,15,16,Jits_ISO_5,78,9999,9999,9999,1615556692
115,15,16,Jits_ISO_5,79,9999,9999,9999,1616056440
115,15,16,Jits_ISO_5,80,9999,9999,9999,1616556100
115,15,16,Jits_ISO_5,81,9999,9999,9999,1617056880
115,15,16,Jits_ISO_5,82,9999,9999,9999,1617556552
115,15,16,Jits_ISO_5,83,9999,9999,9999,1618056312
115,15,16,Jits_ISO_5,84,9999,9999,9999,1618557032
115,15,16,Jits_ISO_5,85,9999,9999,9999,1619056760
115,15,16,Jits_ISO_5,86,9999,9999,9999,1619556416
115,15,16,Jits_ISO_5,87,9999,9999,9999,1620056164
115,15,16,Jits_ISO_5,88,9999,9999,9999,1620556868
115,15,16,Jits_ISO_5,89,9999,9999,9999,1621056616
115,15,16,Jits_ISO_5,90,9999,9999,9999,1621556288
115,15,16,Jits_ISO_5,91,9999,9999,9999,1622057080
115,15,16,Jits_ISO_5,92,9999,9999,9999,1622556744
115,15,16,Jits_ISO_5,93,9999,9999,9999,1623056484
115,15,16,Jits_ISO_5,94,9999,9999,9999,1623556212
115,15,16,Jits_ISO_5,95,9999,9999,9999,1624056936
115,15,16,Jits_ISO_5,96,9999,9999,9999,1624556668
115,15,16,Jits_ISO_5,97,9999,9999,9999,1625056324
115,15,16,Jits_ISO_5,98,9999,9999,9999,1625557104
115,15,16,Jits_ISO_5,99,9999,9999,9999,1626056780
115,15,16,Jits_ISO_5,100,9999,9999,9999,1626556512
115,15,16,Jits_ISO_5,101,9999,9999,9999,1627056188
115,15,16,Jits_ISO_5,102,9999,9999,9999,1627556972
115,15,16,Jits_ISO_5,103,9999,9999,9999,1628056648
115,15,16,Jits_ISO_5,104,9999,9999,9999,1628556356
115,15,16,Jits_ISO_5,105,9999,9999,9999,1629056080
115,15,16,Jits_ISO_5,106,9999,9999,9999,1629556856
115,15,16,Jits_ISO_5,107,9999,9999,9999,1630056516
115,15,16,Jits_ISO_5,108,9999,9999,9999,1630556260
115,15,16,Jits_ISO_5,109,9999,9999,9999,1631056980
115,15,16,Jits_ISO_5,110,9999,9999,9999,1631556728
115,15,16,Jits_ISO_5,111,9999,9999,9999,1632056400
115,15,16,Jits_ISO_5,112,9999,9999,9999,1632556152
115,15,16,Jits_ISO_5,113,9999,9999,9999,1633056872
115,15,16,Jits_ISO_5,114,9999,9999,9999,1633556600
115,15,16,Jits_ISO_5,115,9999,9999,9999,1634056252
115,15,16,Jits_ISO_5,116,9999,9999,9999,1634557032
115,15,16,Jits_ISO_5,117,9999,9999,9999,1635056708
115,15,16,Jits_ISO_5,118,9999,9999,9999,1635556460
115,15,16,Jits_ISO_5,119,9999,9999,9999,1636056116
115,16,15,Jits_Phase_8,0,5,56,103,1645511080
115,16,15,Jits_Phase_8,1,5,63,98,1645514028
115,16,15,Jits_Phase_8,2,5,80,127,1645517152
115,16,15,Jits_Phase_8,0,5,56,103,1646310716
115,16,15,Jits_Phase_8,1,5,63,98,1646313820
115,16,15,Jits_Phase_8,2,5,80,127,1646317016
115,16,15,Jits_Phase_8,0,5,80,127,1647051116
115,16,15,Jits_Phase_8,1,5,63,98,1647141100
115,16,15,Jits_Phase_8,2,5,56,103,1647150396
115,16,15,Jits_Phase_8,3,1,48,25,1647209556
115,16,15,Jits_Phase_8,0,5,56,103,1647871416
115,16,15,Jits_Phase_8,1,5,63,98,1647880564
115,16,15,Jits_Phase_8,2,1,48,41,1647922716
115,16,15,Jits_Phase_8,3,5,80,127,1647970836
115,16,15,Jits_Phase_8,0,5,63,98,1648641520
115,16,15,Jits_Phase_8,1,1,48,44,1648649812
115,16,15,Jits_Phase_8,2,5,80,127,1648671112
115,16,15,Jits_Phase_8,3,5,56,103,1648700636
115,16,15,Jits_Phase_8,0,1,48,44,1649438004
115,16,15,Jits_Phase_8,1,5,56,103,1649441112
115,16,15,Jits_Phase_8,2,5,80,127,1649540668
115,16,15,Jits_Phase_8,3,5,63,98,1649590820
115,16,15,Jits_Phase_8,0,5,56,103,1650240876
115,16,15,Jits_Phase_8,1,5,80,127,1650291004
115,16,15,Jits_Phase_8,2,1,48,34,1650291972
115,16,15,Jits_Phase_8,3,5,63,98,1650331036
115,16,15,Jits_Phase_8,0,5,80,127,1651071288
115,16,15,Jits_Phase_8,1,5,63,98,1651100916
115,16,15,Jits_Phase_8,2,1,48,31,1651103960
115,16,15,Jits_Phase_8,3,5,56,103,1651170808
115,16,15,Jits_Phase_8,0,1,48,40,1651892036
115,16,15,Jits_Phase_8,1,5,63,98,1651900752
115,16,15,Jits_Phase_8,2,5,56,103,1651930504
115,16,15,Jits_Phase_8,3,5,80,127,1651990800
115,16,15,Jits_Phase_8,0,5,56,103,1652641176
115,16,15,Jits_Phase_8,1,5,80,127,1652644096
115,16,15,Jits_Phase_8,2,1,48,39,1652692020
115,16,15,Jits_Phase_8,3,5,63,98,1652760816
115,16,15,Jits_Phase_8,0,1,48,36,1653440540
115,16,15,Jits_Phase_8,1,5,56,103,1653520728
115,16,15,Jits_Phase_8,2,5,80,127,1653560652
115,16,15,Jits_Phase_8,3,5,63,98,1653570920
115,16,15,Jits_Phase_8,0,5,56,103,1654280636
115,16,15,Jits_Phase_8,1,1,48,37,1654288240
115,16,15,Jits_Phase_8,2,5,80,127,1654301164
115,16,15,Jits_Phase_8,3,5,63,98,1654381164
115,16,15,Jits_Phase_8,0,5,80,127,1655071048
115,16,15,Jits_Phase_8,1,1,48,29,1655112452
115,16,15,Jits_Phase_8,2,5,56,103,1655170764
115,16,15,Jits_Phase_8,3,5,63,98,1655180812
115,16,15,Jits_Phase_8,0,5,63,98,1655841152
115,16,15,Jits_Phase_8,1,5,80,127,1655900572
115,16,15,Jits_Phase_8,2,5,56,103,1655910692
115,16,15,Jits_Phase_8,3,1,48,30,1655925872
115,16,15,Jits_Phase_8,0,1,48,37,1656637416
115,16,15,Jits_Phase_8,1,5,56,103,1656640824
115,16,15,Jits_Phase_8,2,5,63,98,1656710504
115,16,15,Jits_Phase_8,3,5,80,127,1656713868
115,16,15,Jits_Phase_8,0,1,48,34,1657396932
115,16,15,Jits_Phase_8,1,5,63,98,1657471364
115,16,15,Jits_Phase_8,2,5,56,103,1657520604
115,16,15,Jits_Phase_8,3,5,80,127,1657523596
115,16,15,Jits_Phase_8,0,1,48,31,1658205000
115,16,15,Jits_Phase_8,1,5,56,103,1658231252
115,16,15,Jits_Phase_8,2,5,80,127,1658234392
115,16,15,Jits_Phase_8,3,5,63,98,1658321464
115,16,15,Jits_Phase_8,0,1,48,42,1659030996
115,16,15,Jits_Phase_8,1,5,63,98,1659070728
115,16,15,Jits_Phase_8,2,5,56,103,1659160848
115,16,15,Jits_Phase_8,3,5,80,127,1659190820
115,16,15,Jits_Phase_8,0,5,56,103,1659861508
115,16,15,Jits_Phase_8,1,1,48,39,1659887924
115,16,15,Jits_Phase_8,2,5,63,98,1659960628
115,16,15,Jits_Phase_8,3,5,80,127,1659991336
115,16,15,Jits_Phase_8,0,1,48,34,1660678348
115,16,15,Jits_Phase_8,1,5,63,98,1660680684
115,16,15,Jits_Phase_8,2,5,56,103,1660690880
115,16,15,Jits_Phase_8,3,5,80,127,1660780848
115,16,15,Jits_Phase_8,0,1,48,39,1661446548
115,16,15,Jits_Phase_8,1,5,63,98,1661500752
115,16,15,Jits_Phase_8,2,5,56,103,1661580752
115,16,15,Jits_Phase_8,3,5,80,127,1661583768
115,16,15,Jits_Phase_8,0,5,80,127,1662260576
115,16,15,Jits_Phase_8,1,1,48,30,1662281332
115,16,15,Jits_Phase_8,2,5,63,98,1662282672
115,16,15,Jits_Phase_8,3,5,56,103,1662340592
115,16,15,Jits_Phase_8,0,1,48,30,1663057084
115,16,15,Jits_Phase_8,1,5,56,103,1663101464
115,16,15,Jits_Phase_8,2,5,63,98,1663120680
115,16,15,Jits_Phase_8,3,5,80,127,1663123968
115,16,15,Jits_Phase_8,0,5,63,98,1663840540
115,16,15,Jits_Phase_8,1,1,48,32,1663843512
115,16,15,Jits_Phase_8,2,5,80,127,1663920428
115,16,15,Jits_Phase_8,3,5,56,103,1663930624
115,16,15,Jits_Phase_8,0,5,63,98,1664660848
115,16,15,Jits_Phase_8,1,1,48,35,1664681528
115,16,15,Jits_Phase_8,2,5,56,103,1664682944
115,16,15,Jits_Phase_8,3,5,80,127,1664730452
115,16,15,Jits_Phase_8,0,5,80,127,1665460524
115,16,15,Jits_Phase_8,1,1,48,39,1665495184
115,16,15,Jits_Phase_8,2,5,63,98,1665500532
115,16,15,Jits_Phase_8,3,5,56,103,1665520992
115,16,15,Jits_Phase_8,0,1,48,25,1666277412
115,16,15,Jits_Phase_8,1,5,56,103,1666301416
115,16,15,Jits_Phase_8,2,5,63,98,1666310568
115,16,15,Jits_Phase_8,3,5,80,127,1666330876
115,16,15,Jits_Phase_8,0,5,56,103,1667031580
115,16,15,Jits_Phase_8,1,1,48,46,1667058292
115,16,15,Jits_Phase_8,2,5,63,98,1667120512
115,16,15,Jits_Phase_8,3,5,80,127,1667180884
115,16,15,Jits_Phase_8,0,1,48,33,1667817904
115,16,15,Jits_Phase_8,1,5,80,127,1667860796
115,16,15,Jits_Phase_8,2,5,56,103,1667871288
115,16,15,Jits_Phase_8,3,5,63,98,1667940656
115,16,15,Jits_Phase_8,0,1,48,38,1668659628
115,16,15,Jits_Phase_8,1,5,63,98,1668691268
115,16,15,Jits_Phase_8,2,5,80,127,1668781560
115,16,15,Jits_Phase_8,3,5,56,103,1668790784
115,16,15,Jits_Phase_8,0,5,63,98,1669421436
115,16,15,Jits_Phase_8,1,5,80,127,1669470516
115,16,15,Jits_Phase_8,2,1,48,40,1669498648
115,16,15,Jits_Phase_8,3,5,56,103,1669530924
115,16,15,Jits_Phase_8,0,1,48,44,1670220488
115,16,15,Jits_Phase_8,1,5,56,103,1670240516
115,16,15,Jits_Phase_8,2,5,80,127,1670290668
115,16,15,Jits_Phase_8,3,5,63,98,1670311500
115,16,15,Jits_Phase_8,0,5,56,103,1671010612
115,16,15,Jits_Phase_8,1,1,48,46,1671034480
115,16,15,Jits_Phase_8,2,5,80,127,1671070948
115,16,15,Jits_Phase_8,3,5,63,98,1671140688
115,16,15,Jits_Phase_8,0,5,56,103,1671810312
115,16,15,Jits_Phase_8,1,1,48,46,1671835548
115,16,15,Jits_Phase_8,2,5,80,127,1671841424
115,16,15,Jits_Phase_8,3,5,63,98,1671870876
115,16,15,Jits_Phase_8,0,1,48,47,1672610972
115,16,15,Jits_Phase_8,1,5,56,103,1672651300
115,16,15,Jits_Phase_8,2,5,80,127,1672670564
115,16,15,Jits_Phase_8,3,5,63,98,1672730864
115,16,15,Jits_Phase_8,0,1,48,26,1673426452
115,16,15,Jits_Phase_8,1,5,80,127,1673530688
115,16,15,Jits_Phase_8,2,5,56,103,1673541256
115,16,15,Jits_Phase_8,3,5,63,98,1673551300
115,16,15,Jits_Phase_8,0,1,48,32,1674275364
115,16,15,Jits_Phase_8,1,5,56,103,1674290532
115,16,15,Jits_Phase_8,2,5,80,127,1674330472
115,16,15,Jits_Phase_8,3,5,63,98,1674361492
115,16,15,Jits_Phase_8,0,1,48,38,1675047928
115,16,15,Jits_Phase_8,1,5,56,103,1675060552
115,16,15,Jits_Phase_8,2,5,63,98,1675091500
115,16,15,Jits_Phase_8,3,5,80,127,1675131360
115,16,15,Jits_Phase_8,0,1,48,41,1675795548
115,16,15,Jits_Phase_8,1,5,80,127,1675811312
115,16,15,Jits_Phase_8,2,5,63,98,1675861440
115,16,15,Jits_Phase_8,3,5,56,103,1675880852
115,16,15,Jits_Phase_8,0,1,48,41,1676556936
115,16,15,Jits_Phase_8,1,5,56,103,1676640736
115,16,15,Jits_Phase_8,2,5,80,127,1676711176
115,16,15,Jits_Phase_8,3,5,63,98,1676770816
115,16,15,Jits_Phase_8,0,5,80,127,1677441476
115,16,15,Jits_Phase_8,1,1,48,45,1677454208
115,16,15,Jits_Phase_8,2,5,63,98,1677530432
115,16,15,Jits_Phase_8,3,5,56,103,1677550964
115,16,15,Jits_Phase_8,0,5,63,98,1678260456
115,16,15,Jits_Phase_8,1,1,48,45,1678261424
115,16,15,Jits_Phase_8,2,5,56,103,1678281208
115,16,15,Jits_Phase_8,3,5,80,127,1678321144
115,16,15,Jits_Phase_8,0,5,80,127,1679021404
115,16,15,Jits_Phase_8,1,5,63,98,1679040964
115,16,15,Jits_Phase_8,2,1,48,44,1679044232
115,16,15,Jits_Phase_8,3,5,56,103,1679120748
115,16,15,Jits_Phase_8,0,5,63,98,1679810908
115,16,15,Jits_Phase_8,1,1,48,45,1679818664
115,16,15,Jits_Phase_8,2,5,56,103,1679920572
115,16,15,Jits_Phase_8,3,5,80,127,1679923492
115,16,15,Jits_Phase_8,0,1,48,44,1680607244
115,16,15,Jits_Phase_8,1,5,63,98,1680631100
115,16,15,Jits_Phase_8,2,5,56,103,1680641368
115,16,15,Jits_Phase_8,3,5,80,127,1680644436
115,16,15,Jits_Phase_8,0,1,48,43,1681405556
115,16,15,Jits_Phase_8,1,5,56,103,1681410384
115,16,15,Jits_Phase_8,2,5,80,127,1681531220
115,16,15,Jits_Phase_8,3,5,63,98,1681571256
115,16,15,Jits_Phase_8,0,5,56,103,1682230528
115,16,15,Jits_Phase_8,1,1,48,45,1682241144
115,16,15,Jits_Phase_8,2,5,80,127,1682310544
115,16,15,Jits_Phase_8,3,5,63,98,1682331104
115,16,15,Jits_Phase_8,0,1,48,53,1683011236
115,16,15,Jits_Phase_8,1,5,56,103,1683031416
115,16,15,Jits_Phase_8,2,5,63,98,1683141112
115,16,15,Jits_Phase_8,3,5,80,127,1683144328
115,16,15,Jits_Phase_8,0,1,48,44,1683850252
115,16,15,Jits_Phase_8,1,5,56,103,1683871348
115,16,15,Jits_Phase_8,2,5,80,127,1683900728
115,16,15,Jits_Phase_8,3,5,63,98,1683921184
115,16,15,Jits_Phase_8,0,1,48,40,1684619440
115,16,15,Jits_Phase_8,1,5,63,98,1684660540
115,16,15,Jits_Phase_8,2,5,56,103,1684671032
115,16,15,Jits_Phase_8,3,5,80,127,1684681304
115,16,15,Jits_Phase_8,0,1,48,35,1685430672
115,16,15,Jits_Phase_8,1,5,80,127,1685451224
115,16,15,Jits_Phase_8,2,5,56,103,1685501200
115,16,15,Jits_Phase_8,3,5,63,98,1685541200
115,16,15,Jits_Phase_8,0,1,48,40,1686224724
115,16,15,Jits_Phase_8,1,5,80,127,1686271208
115,16,15,Jits_Phase_8,2,5,63,98,1686290916
115,16,15,Jits_Phase_8,3,5,56,103,1686341028
115,16,15,Jits_Phase_8,0,1,48,35,1687038040
115,16,15,Jits_Phase_8,1,5,80,127,1687081376
115,16,15,Jits_Phase_8,2,5,56,103,1687111272
115,16,15,Jits_Phase_8,3,5,63,98,1687180640
115,16,15,Jits_Phase_8,0,1,48,48,1687866472
115,16,15,Jits_Phase_8,1,5,56,103,1687931236
115,16,15,Jits_Phase_8,2,5,80,127,1687940608
115,16,15,Jits_Phase_8,3,5,63,98,1687981308
115,16,15,Jits_Phase_8,0,5,56,103,1688641024
115,16,15,Jits_Phase_8,1,5,63,98,1688661336
115,16,15,Jits_Phase_8,2,1,48,47,1688705132
115,16,15,Jits_Phase_8,3,5,80,127,1688731032
115,16,15,Jits_Phase_8,0,1,48,46,1689434460
115,16,15,Jits_Phase_8,1,5,63,98,1689461160
115,16,15,Jits_Phase_8,2,5,80,127,1689520456
115,16,15,Jits_Phase_8,3,5,56,103,1689541124
115,16,15,Jits_Phase_8,0,5,80,127,1690250736
115,16,15,Jits_Phase_8,1,5,56,103,1690281308
115,16,15,Jits_Phase_8,2,1,48,46,1690284204
115,16,15,Jits_Phase_8,3,5,63,98,1690311200
115,16,15,Jits_Phase_8,0,5,56,103,1691051328
115,16,15,Jits_Phase_8,1,1,48,45,1691100676
115,16,15,Jits_Phase_8,2,5,63,98,1691110740
115,16,15,Jits_Phase_8,3,5,80,127,1691171052
115,16,15,Jits_Phase_8,0,5,80,127,1691870504
115,16,15,Jits_Phase_8,1,5,56,103,1691891184
115,16,15,Jits_Phase_8,2,1,48,37,1691894304
115,16,15,Jits_Phase_8,3,5,63,98,1691960560
115,16,15,Jits_Phase_8,0,5,80,127,1692671320
115,16,15,Jits_Phase_8,1,5,63,98,1692691028
115,16,15,Jits_Phase_8,2,5,56,103,1692720556
115,16,15,Jits_Phase_8,3,1,48,39,1692741504
115,16,15,Jits_Phase_8,0,5,80,127,1693461052
115,16,15,Jits_Phase_8,1,1,48,35,1693472868
115,16,15,Jits_Phase_8,2,5,63,98,1693481280
115,16,15,Jits_Phase_8,3,5,56,103,1693540920
115,16,15,Jits_Phase_8,0,5,80,127,1694260448
115,16,15,Jits_Phase_8,1,1,48,35,1694264088
115,16,15,Jits_Phase_8,2,5,56,103,1694360996
115,16,15,Jits_Phase_8,3,5,63,98,1694390744
115,16,15,Jits_Phase_8,0,5,63,98,1695051004
115,16,15,Jits_Phase_8,1,5,80,127,1695101280
115,16,15,Jits_Phase_8,2,5,56,103,1695120940
115,16,15,Jits_Phase_8,3,1,48,29,1695127128
115,16,15,Jits_Phase_8,0,5,80,127,1695891092
115,16,15,Jits_Phase_8,1,5,56,103,1695920388
115,16,15,Jits_Phase_8,2,5,63,98,1695923536
115,16,15,Jits_Phase_8,3,1,48,24,1695930784
115,16,15,Jits_Phase_8,0,1,48,26,1696689484
115,16,15,Jits_Phase_8,1,5,63,98,1696740824
115,16,15,Jits_Phase_8,2,5,56,103,1696780840
115,16,15,Jits_Phase_8,3,5,80,127,1696801060
115,16,15,Jits_Phase_8,0,5,80,127,1697500512
115,16,15,Jits_Phase_8,1,1,48,25,1697546780
115,16,15,Jits_Phase_8,2,5,63,98,1697581424
115,16,15,Jits_Phase_8,3,5,56,103,1697621284
115,16,15,Jits_Phase_8,0,5,63,98,1698320960
115,16,15,Jits_Phase_8,1,1,48,32,1698384992
115,16,15,Jits_Phase_8,2,5,80,127,1698400604
115,16,15,Jits_Phase_8,3,5,56,103,1698421064
115,16,15,Jits_Phase_8,0,1,48,29,1699143020
115,16,15,Jits_Phase_8,1,5,56,103,1699160356
115,16,15,Jits_Phase_8,2,5,63,98,1699170624
115,16,15,Jits_Phase_8,3,5,80,127,1699210636
115,16,15,Jits_Phase_8,0,5,56,103,1699881300
115,16,15,Jits_Phase_8,1,5,80,127,1699884368
115,16,15,Jits_Phase_8,2,1,48,29,1699951024
115,16,15,Jits_Phase_8,3,5,63,98,1700020520
115,16,15,Jits_Phase_8,0,5,56,103,1700670868
115,16,15,Jits_Phase_8,1,1,48,31,1700687244
115,16,15,Jits_Phase_8,2,5,63,98,1700761020
115,16,15,Jits_Phase_8,3,5,80,127,1700830536
115,16,15,Jits_Phase_8,0,1,48,24,1701518272
115,16,15,Jits_Phase_8,1,5,63,98,1701550376
115,16,15,Jits_Phase_8,2,5,80,127,1701553740
115,16,15,Jits_Phase_8,3,5,56,103,1701610912
115,16,15,Jits_Phase_8,0,1,48,37,1702315780
115,16,15,Jits_Phase_8,1,5,80,127,1702391184
115,16,15,Jits_Phase_8,2,5,56,103,1702410580
115,16,15,Jits_Phase_8,3,5,63,98,1702420852
115,16,15,Jits_Phase_8,0,5,56,103,1703100900
115,16,15,Jits_Phase_8,1,5,63,98,1703111096
115,16,15,Jits_Phase_8,2,1,48,37,1703137956
115,16,15,Jits_Phase_8,3,5,80,127,1703180620
115,16,15,Jits_Phase_8,0,1,48,39,1703900524
115,16,15,Jits_Phase_8,1,5,80,127,1703901936
115,16,15,Jits_Phase_8,2,5,56,103,1703951016
115,16,15,Jits_Phase_8,3,5,63,98,1704000976
115,16,15,Jits_Phase_8,0,1,48,30,1704705112
115,16,15,Jits_Phase_8,1,5,56,103,1704781188
115,16,15,Jits_Phase_8,2,5,63,98,1704791904
115,16,15,Jits_Phase_8,3,5,80,127,1704831456
115,16,15,Jits_Phase_8,0,5,56,103,1705520572
115,16,15,Jits_Phase_8,1,1,48,38,1705537624
115,16,15,Jits_Phase_8,2,5,63,98,1705560356
115,16,15,Jits_Phase_8,3,5,80,127,1705610780
115,16,15,Jits_Phase_8,0,5,80,127,1706281384
115,16,15,Jits_Phase_8,1,5,56,103,1706330468
115,16,15,Jits_Phase_8,2,5,63,98,1706351000
115,16,15,Jits_Phase_8,3,1,48,29,1706355316
115,16,15,Jits_Phase_8,0,5,80,127,1707091264
115,16,15,Jits_Phase_8,1,1,48,27,1707151080
115,16,15,Jits_Phase_8,2,5,63,98,1707152272
115,16,15,Jits_Phase_8,3,5,56,103,1707230716
115,16,15,Jits_Phase_8,0,5,80,127,1707870512
115,16,15,Jits_Phase_8,1,1,48,44,1707904792
115,16,15,Jits_Phase_8,2,5,56,103,1707910668
115,16,15,Jits_Phase_8,3,5,63,98,1707930928
115,16,15,Jits_Phase_8,0,1,48,41,1708699868
115,16,15,Jits_Phase_8,1,5,56,103,1708720492
115,16,15,Jits_Phase_8,2,5,80,127,1708730912
115,16,15,Jits_Phase_8,3,5,63,98,1708770996
115,16,15,Jits_Phase_8,0,1,48,37,1709528000
115,16,15,Jits_Phase_8,1,5,56,103,1709590824
115,16,15,Jits_Phase_8,2,5,63,98,1709630892
115,16,15,Jits_Phase_8,3,5,80,127,1709634260
115,16,15,Jits_Phase_8,0,5,63,98,1710260744
115,16,15,Jits_Phase_8,1,5,80,127,1710300608
115,16,15,Jits_Phase_8,2,1,48,36,1710352432
115,16,15,Jits_Phase_8,3,5,56,103,1710371180
115,16,15,Jits_Phase_8,0,5,63,98,1711030832
115,16,15,Jits_Phase_8,1,5,56,103,1711110628
115,16,15,Jits_Phase_8,2,1,48,32,1711126180
115,16,15,Jits_Phase_8,3,5,80,127,1711170864
115,16,15,Jits_Phase_8,0,5,80,127,1711840780
115,16,15,Jits_Phase_8,1,1,48,25,1711885700
115,16,15,Jits_Phase_8,2,5,63,98,1711890900
115,16,15,Jits_Phase_8,3,5,56,103,1711920648
115,16,15,Jits_Phase_8,0,5,56,103,1712631256
115,16,15,Jits_Phase_8,1,1,48,36,1712670944
115,16,15,Jits_Phase_8,2,5,63,98,1712681228
115,16,15,Jits_Phase_8,3,5,80,127,1712690676
115,16,15,Jits_Phase_8,0,1,48,37,1713432192
115,16,15,Jits_Phase_8,1,5,56,103,1713441208
115,16,15,Jits_Phase_8,2,5,63,98,1713550832
115,16,15,Jits_Phase_8,3,5,80,127,1713571140
115,16,15,Jits_Phase_8,0,5,63,98,1714240900
115,16,15,Jits_Phase_8,1,5,80,127,1714291176
115,16,15,Jits_Phase_8,2,1,48,32,1714293696
115,16,15,Jits_Phase_8,3,5,56,103,1714381100
115,16,15,Jits_Phase_8,0,5,63,98,1715031292
115,16,15,Jits_Phase_8,1,5,80,127,1715061040
115,16,15,Jits_Phase_8,2,1,48,16,1715145240
115,16,15,Jits_Phase_8,3,5,56,103,1715151188
115,16,15,Jits_Phase_8,0,5,63,98,1715831124
115,16,15,Jits_Phase_8,1,5,56,103,1715841544
115,16,15,Jits_Phase_8,2,1,48,35,1715900352
115,16,15,Jits_Phase_8,3,5,80,127,1715940756
115,16,15,Jits_Phase_8,0,1,48,38,1716641432
115,16,15,Jits_Phase_8,1,5,63,98,1716731364
115,16,15,Jits_Phase_8,2,5,80,127,1716760876
115,16,15,Jits_Phase_8,3,5,56,103,1716790848
115,16,15,Jits_Phase_8,0,1,48,43,1717397208
115,16,15,Jits_Phase_8,1,5,80,127,1717550744
115,16,15,Jits_Phase_8,2,5,63,98,1717560716
115,16,15,Jits_Phase_8,3,5,56,103,1717591516
115,16,15,Jits_Phase_8,0,1,48,38,1718226196
115,16,15,Jits_Phase_8,1,5,80,127,1718250804
115,16,15,Jits_Phase_8,2,5,63,98,1718271636
115,16,15,Jits_Phase_8,3,5,56,103,1718320568
115,16,15,Jits_Phase_8,0,1,48,37,1719045284
115,16,15,Jits_Phase_8,1,5,63,98,1719081200
115,16,15,Jits_Phase_8,2,5,80,127,1719140696
115,16,15,Jits_Phase_8,3,5,56,103,1719161212
115,16,15,Jits_Phase_8,0,1,48,29,1719834404
115,16,15,Jits_Phase_8,1,5,63,98,1719841176
115,16,15,Jits_Phase_8,2,5,56,103,1719891676
115,16,15,Jits_Phase_8,3,5,80,127,1719900600
115,16,15,Jits_Phase_8,0,1,48,34,1720634976
115,16,15,Jits_Phase_8,1,5,56,103,1720670744
115,16,15,Jits_Phase_8,2,5,80,127,1720681016
115,16,15,Jits_Phase_8,3,5,63,98,1720781120
115,16,15,Jits_Phase_8,0,5,80,127,1721431400
115,16,15,Jits_Phase_8,1,5,63,98,1721440552
115,16,15,Jits_Phase_8,2,1,48,36,1721474456
115,16,15,Jits_Phase_8,3,5,56,103,1721591136
115,16,15,Jits_Phase_8,0,5,63,98,1722241508
115,16,15,Jits_Phase_8,1,1,48,35,1722262560
115,16,15,Jits_Phase_8,2,5,80,127,1722281464
115,16,15,Jits_Phase_8,3,5,56,103,1722361760
115,16,15,Jits_Phase_8,0,5,56,103,1722991064
115,16,15,Jits_Phase_8,1,1,48,40,1723057584
115,16,15,Jits_Phase_8,2,5,80,127,1723091404
115,16,15,Jits_Phase_8,3,5,63,98,1723110740
115,16,15,Jits_Phase_8,0,1,48,40,1723807984
115,16,15,Jits_Phase_8,1,5,80,127,1723811164
115,16,15,Jits_Phase_8,2,5,56,103,1723821732
115,16,15,Jits_Phase_8,3,5,63,98,1723910428
115,16,15,Jits_Phase_8,0,1,48,29,1724582800
115,16,15,Jits_Phase_8,1,5,56,103,1724610924
115,16,15,Jits_Phase_8,2,5,63,98,1724631608
115,16,15,Jits_Phase_8,3,5,80,127,1724711532
115,16,15,Jits_Phase_8,0,5,63,98,1725360716
115,16,15,Jits_Phase_8,1,1,48,30,1725371108
115,16,15,Jits_Phase_8,2,5,56,103,1725450548
115,16,15,Jits_Phase_8,3,5,80,127,1725453760
115,16,15,Jits_Phase_8,0,1,48,36,1726175928
115,16,15,Jits_Phase_8,1,5,56,103,1726190944
115,16,15,Jits_Phase_8,2,5,80,127,1726251488
115,16,15,Jits_Phase_8,3,5,63,98,1726260484
115,16,15,Jits_Phase_8,0,1,48,38,1726942580
115,16,15,Jits_Phase_8,1,5,80,127,1727041936
115,16,15,Jits_Phase_8,2,5,56,103,1727051080
115,16,15,Jits_Phase_8,3,5,63,98,1727054076
115,16,15,Jits_Phase_8,0,1,48,27,1727710864
115,16,15,Jits_Phase_8,1,5,56,103,1727800648
115,16,15,Jits_Phase_8,2,5,80,127,1727810828
115,16,15,Jits_Phase_8,3,5,63,98,1727831588
115,16,15,Jits_Phase_8,0,1,48,36,1728528980
115,16,15,Jits_Phase_8,1,5,63,98,1728570880
115,16,15,Jits_Phase_8,2,5,80,127,1728631256
115,16,15,Jits_Phase_8,3,5,56,103,1728681408
115,16,15,Jits_Phase_8,0,1,48,48,1729318532
115,16,15,Jits_Phase_8,1,5,63,98,1729451564
115,16,15,Jits_Phase_8,2,5,56,103,1729460492
115,16,15,Jits_Phase_8,3,5,80,127,1729510764
115,16,15,Jits_Phase_8,0,5,63,98,1730150632
115,16,15,Jits_Phase_8,1,1,48,55,1730157484
115,16,15,Jits_Phase_8,2,5,80,127,1730171232
115,16,15,Jits_Phase_8,3,5,56,103,1730180680
115,16,15,Jits_Phase_8,0,5,63,98,1730950368
115,16,15,Jits_Phase_8,1,5,80,127,1730953664
115,16,15,Jits_Phase_8,2,1,48,43,1730958768
115,16,15,Jits_Phase_8,3,5,56,103,1730990552
115,16,15,Jits_Phase_8,0,1,48,45,1731721984
115,16,15,Jits_Phase_8,1,5,63,98,1731820908
115,16,15,Jits_Phase_8,2,5,80,127,1731850568
115,16,15,Jits_Phase_8,3,5,56,103,1731860764
115,16,15,Jits_Phase_8,0,5,56,103,1732570620
115,16,15,Jits_Phase_8,1,1,48,48,1732578148
115,16,15,Jits_Phase_8,2,5,80,127,1732601484
115,16,15,Jits_Phase_8,3,5,63,98,1732630932
115,16,15,Jits_Phase_8,0,1,48,53,1733367876
115,16,15,Jits_Phase_8,1,5,63,98,1733470612
115,16,15,Jits_Phase_8,2,5,56,103,1733510548
115,16,15,Jits_Phase_8,3,5,80,127,1733513616
115,16,15,Jits_Phase_8,0,1,48,33,1734135492
115,16,15,Jits_Phase_8,1,5,80,127,1734170892
115,16,15,Jits_Phase_8,2,5,56,103,1734251044
115,16,15,Jits_Phase_8,3,5,63,98,1734301196
115,16,15,Jits_Phase_8,0,5,80,127,1734951400
115,16,15,Jits_Phase_8,1,5,56,103,1734970664
115,16,15,Jits_Phase_8,2,1,48,38,1735007416
115,16,15,Jits_Phase_8,3,5,63,98,1735060816
115,16,15,Jits_Phase_8,0,5,80,127,1735791252
115,16,15,Jits_Phase_8,1,1,48,38,1735797888
115,16,15,Jits_Phase_8,2,5,63,98,1735830840
115,16,15,Jits_Phase_8,3,5,56,103,1735870924
115,16,15,Jits_Phase_8,0,1,48,52,1736587188
115,16,15,Jits_Phase_8,1,5,63,98,1736600936
115,16,15,Jits_Phase_8,2,5,80,127,1736661476
115,16,15,Jits_Phase_8,3,5,56,103,1736691060
115,16,15,Jits_Phase_8,0,1,48,32,1737359388
115,16,15,Jits_Phase_8,1,5,56,103,1737440696
115,16,15,Jits_Phase_8,2,5,80,127,1737471404
115,16,15,Jits_Phase_8,3,5,63,98,1737560340
115,16,15,Jits_Phase_8,0,1,48,44,1738209112
115,16,15,Jits_Phase_8,1,5,56,103,1738250640
115,16,15,Jits_Phase_8,2,5,80,127,1738361288
115,16,15,Jits_Phase_8,3,5,63,98,1738390836
115,16,15,Jits_Phase_8,0,1,48,38,1738984592
115,16,15,Jits_Phase_8,1,5,56,103,1739100512
115,16,15,Jits_Phase_8,2,5,63,98,1739161076
115,16,15,Jits_Phase_8,3,5,80,127,1739190604
115,16,15,Jits_Phase_8,0,1,48,43,1739834032
115,16,15,Jits_Phase_8,1,5,56,103,1739870476
115,16,15,Jits_Phase_8,2,5,63,98,1739941212
115,16,15,Jits_Phase_8,3,5,80,127,1739960772
115,16,15,Jits_Phase_8,0,1,48,25,1740634616
115,16,15,Jits_Phase_8,1,5,80,127,1740640492
115,16,15,Jits_Phase_8,2,5,63,98,1740661396
115,16,15,Jits_Phase_8,3,5,56,103,1740711248
115,16,15,Jits_Phase_8,0,1,48,34,1741459828
115,16,15,Jits_Phase_8,1,5,63,98,1741461548
115,16,15,Jits_Phase_8,2,5,80,127,1741471368
115,16,15,Jits_Phase_8,3,5,56,103,1741521272
115,16,15,Jits_Phase_8,0,1,48,40,1742233176
115,16,15,Jits_Phase_8,1,5,63,98,1742260628
115,16,15,Jits_Phase_8,2,5,80,127,1742331192
115,16,15,Jits_Phase_8,3,5,56,103,1742350756
115,16,15,Jits_Phase_8,0,1,48,33,1743063584
115,16,15,Jits_Phase_8,1,5,63,98,1743091104
115,16,15,Jits_Phase_8,2,5,80,127,1743094468
115,16,15,Jits_Phase_8,3,5,56,103,1743160768
115,16,15,Jits_Phase_8,0,5,80,127,1743840592
115,16,15,Jits_Phase_8,1,5,56,103,1743861348
115,16,15,Jits_Phase_8,2,1,48,44,1743868732
115,16,15,Jits_Phase_8,3,5,63,98,1743871316
115,16,15,Jits_Phase_8,0,1,48,41,1744642044
115,16,15,Jits_Phase_8,1,5,56,103,1744660804
115,16,15,Jits_Phase_8,2,5,63,98,1744751068
115,16,15,Jits_Phase_8,3,5,80,127,1744754360
115,16,15,Jits_Phase_8,0,5,80,127,1745431112
115,16,15,Jits_Phase_8,1,1,48,43,1745440632
115,16,15,Jits_Phase_8,2,5,56,103,1745442272
115,16,15,Jits_Phase_8,3,5,63,98,1745460564
115,16,15,Jits_Phase_8,0,5,63,98,1746230576
115,16,15,Jits_Phase_8,1,1,48,31,1746236084
115,16,15,Jits_Phase_8,2,5,80,127,1746291256
115,16,15,Jits_Phase_8,3,5,56,103,1746301376
115,16,15,Jits_Phase_8,0,1,48,27,1747025640
115,16,15,Jits_Phase_8,1,5,63,98,1747101292
115,16,15,Jits_Phase_8,2,5,80,127,1747130804
115,16,15,Jits_Phase_8,3,5,56,103,1747170668
115,16,15,Jits_Phase_8,0,1,48,27,1747857720
115,16,15,Jits_Phase_8,1,5,56,103,1747890496
115,16,15,Jits_Phase_8,2,5,80,127,1747900988
115,16,15,Jits_Phase_8,3,5,63,98,1747940852
115,16,15,Jits_Phase_8,0,5,80,127,1748651372
115,16,15,Jits_Phase_8,1,5,56,103,1748731244
115,16,15,Jits_Phase_8,2,1,48,33,1748738024
115,16,15,Jits_Phase_8,3,5,63,98,1748740536
115,16,15,Jits_Phase_8,0,5,80,127,1749501268
115,16,15,Jits_Phase_8,1,5,56,103,1749581140
115,16,15,Jits_Phase_8,2,5,63,98,1749591264
115,16,15,Jits_Phase_8,3,1,48,30,1749597072
115,16,15,Jits_Phase_8,0,5,80,127,1750341060
115,16,15,Jits_Phase_8,1,1,48,41,1750378560
115,16,15,Jits_Phase_8,2,5,56,103,1750391032
115,16,15,Jits_Phase_8,3,5,63,98,1750441332
115,16,15,Jits_Phase_8,0,1,48,49,1751149332
115,16,15,Jits_Phase_8,1,5,56,103,1751281148
115,16,15,Jits_Phase_8,2,5,63,98,1751284068
115,16,15,Jits_Phase_8,3,5,80,127,1751331128
115,16,15,Jits_Phase_8,0,1,48,45,1752091012
115,16,15,Jits_Phase_8,1,5,56,103,1752101224
115,16,15,Jits_Phase_8,2,5,63,98,1752131200
115,16,15,Jits_Phase_8,3,5,80,127,1752141248
115,16,15,Jits_Phase_8,0,5,63,98,1752811092
115,16,15,Jits_Phase_8,1,5,56,103,1752880548
115,16,15,Jits_Phase_8,2,1,48,45,1752912664
115,16,15,Jits_Phase_8,3,5,80,127,1752930820
115,16,15,Jits_Phase_8,0,5,63,98,1753641268
115,16,15,Jits_Phase_8,1,5,56,103,1753650492
115,16,15,Jits_Phase_8,2,5,80,127,1753653632
115,16,15,Jits_Phase_8,3,1,48,47,1753668900
115,16,15,Jits_Phase_8,0,5,80,127,1754391040
115,16,15,Jits_Phase_8,1,1,48,44,1754421880
115,16,15,Jits_Phase_8,2,5,56,103,1754451348
115,16,15,Jits_Phase_8,3,5,63,98,1754541564
115,16,15,Jits_Phase_8,0,5,80,127,1755190660
115,16,15,Jits_Phase_8,1,1,48,36,1755243224
115,16,15,Jits_Phase_8,2,5,56,103,1755290928
115,16,15,Jits_Phase_8,3,5,63,98,1755331016
115,16,15,Jits_Phase_8,0,5,56,103,1756040560
115,16,15,Jits_Phase_8,1,1,48,45,1756058228
115,16,15,Jits_Phase_8,2,5,63,98,1756061184
115,16,15,Jits_Phase_8,3,5,80,127,1756100976
115,16,15,Jits_Phase_8,0,5,63,98,1756810616
115,16,15,Jits_Phase_8,1,5,56,103,1756831000
115,16,15,Jits_Phase_8,2,1,48,42,1756875168
115,16,15,Jits_Phase_8,3,5,80,127,1756930412
115,16,15,Jits_Phase_8,0,5,63,98,1757601080
115,16,15,Jits_Phase_8,1,1,48,43,1757634840
115,16,15,Jits_Phase_8,2,5,80,127,1757710836
115,16,15,Jits_Phase_8,3,5,56,103,1757741396
115,16,15,Jits_Phase_8,0,1,48,48,1758397052
115,16,15,Jits_Phase_8,1,5,56,103,1758421284
115,16,15,Jits_Phase_8,2,5,63,98,1758451184
115,16,15,Jits_Phase_8,3,5,80,127,1758501296
115,16,15,Jits_Phase_8,0,1,48,45,1759145564
115,16,15,Jits_Phase_8,1,5,63,98,1759191376
115,16,15,Jits_Phase_8,2,5,56,103,1759221052
115,16,15,Jits_Phase_8,3,5,80,127,1759271236
115,16,15,Jits_Phase_8,0,1,48,51,1759937076
115,16,15,Jits_Phase_8,1,5,56,103,1760020800
115,16,15,Jits_Phase_8,2,5,63,98,1760041320
115,16,15,Jits_Phase_8,3,5,80,127,1760121188
115,16,15,Jits_Phase_8,0,1,48,35,1760756992
115,16,15,Jits_Phase_8,1,5,63,98,1760791036
115,16,15,Jits_Phase_8,2,5,56,103,1760851280
115,16,15,Jits_Phase_8,3,5,80,127,1760881088
115,16,15,Jits_Phase_8,0,1,48,50,1761568724
115,16,15,Jits_Phase_8,1,5,56,103,1761630428
115,16,15,Jits_Phase_8,2,5,80,127,1761691200
115,16,15,Jits_Phase_8,3,5,63,98,1761730916
115,16,15,Jits_Phase_8,0,1,48,46,1762393068
115,16,15,Jits_Phase_8,1,5,63,98,1762410856
115,16,15,Jits_Phase_8,2,5,56,103,1762471344
115,16,15,Jits_Phase_8,3,5,80,127,1762540860
115,16,15,Jits_Phase_8,0,1,48,47,1763164804
115,16,15,Jits_Phase_8,1,5,56,103,1763290416
115,16,15,Jits_Phase_8,2,5,63,98,1763300832
115,16,15,Jits_Phase_8,3,5,80,127,1763304200
115,16,15,Jits_Phase_8,0,1,48,45,1763995520
115,16,15,Jits_Phase_8,1,5,63,98,1764030988
115,16,15,Jits_Phase_8,2,5,56,103,1764091232
115,16,15,Jits_Phase_8,3,5,80,127,1764095180
115,16,15,Jits_Phase_8,0,1,48,38,1764787252
115,16,15,Jits_Phase_8,1,5,63,98,1764811184
115,16,15,Jits_Phase_8,2,5,80,127,1764840932
115,16,15,Jits_Phase_8,3,5,56,103,1764861240
115,16,15,Jits_Phase_8,0,5,56,103,1765541116
115,16,15,Jits_Phase_8,1,1,48,52,1765566484
115,16,15,Jits_Phase_8,2,5,63,98,1765591388
115,16,15,Jits_Phase_8,3,5,80,127,1765671164
115,16,15,Jits_Phase_8,0,5,80,127,1766240632
115,16,15,Jits_Phase_8,1,5,63,98,1766280644
115,16,15,Jits_Phase_8,2,5,56,103,1766300956
115,16,15,Jits_Phase_8,3,1,48,46,1766310896
115,16,15,Jits_Phase_8,0,1,48,52,1767031880
115,16,15,Jits_Phase_8,1,5,56,103,1767111120
115,16,15,Jits_Phase_8,2,5,80,127,1767121316
115,16,15,Jits_Phase_8,3,5,63,98,1767141012
115,16,15,Jits_Phase_8,0,1,48,60,1767771476
115,16,15,Jits_Phase_8,1,5,56,103,1767891236
115,16,15,Jits_Phase_8,2,5,63,98,1767940320
115,16,15,Jits_Phase_8,3,5,80,127,1767971264
115,16,15,Jits_Phase_8,0,1,48,50,1768617924
115,16,15,Jits_Phase_8,1,5,56,103,1768640964
115,16,15,Jits_Phase_8,2,5,63,98,1768651012
115,16,15,Jits_Phase_8,3,5,80,127,1768701360
115,16,15,Jits_Phase_8,0,1,48,44,1769396028
115,16,15,Jits_Phase_8,1,5,56,103,1769431348
115,16,15,Jits_Phase_8,2,5,80,127,1769434564
115,16,15,Jits_Phase_8,3,5,63,98,1769591060
115,16,15,Jits_Phase_8,0,5,63,98,1770250732
115,16,15,Jits_Phase_8,1,1,48,44,1770287632
115,16,15,Jits_Phase_8,2,5,56,103,1770321228
115,16,15,Jits_Phase_8,3,5,80,127,1770361092
115,16,15,Jits_Phase_8,0,1,48,50,1771052552
115,16,15,Jits_Phase_8,1,5,63,98,1771091236
115,16,15,Jits_Phase_8,2,5,56,103,1771181380
115,16,15,Jits_Phase_8,3,5,80,127,1771184372
115,16,15,Jits_Phase_8,0,1,48,41,1771864072
115,16,15,Jits_Phase_8,1,5,56,103,1771870688
115,16,15,Jits_Phase_8,2,5,63,98,1771961280
115,16,15,Jits_Phase_8,3,5,80,127,1771970880
115,16,15,Jits_Phase_8,0,5,56,103,1772640936
115,16,15,Jits_Phase_8,1,5,63,98,1772690792
115,16,15,Jits_Phase_8,2,1,48,39,1772699236
115,16,15,Jits_Phase_8,3,5,80,127,1772720828
115,16,15,Jits_Phase_8,0,5,63,98,1773521200
115,16,15,Jits_Phase_8,1,5,80,127,1773530348
115,16,15,Jits_Phase_8,2,5,56,103,1773590888
115,16,15,Jits_Phase_8,0,5,63,98,1774241208
115,16,15,Jits_Phase_8,1,1,48,57,1774275564
115,16,15,Jits_Phase_8,2,5,80,127,1774300620
115,16,15,Jits_Phase_8,3,5,56,103,1774340408
115,16,15,Jits_Phase_8,0,1,48,53,1775016872
115,16,15,Jits_Phase_8,1,5,56,103,1775141116
115,16,15,Jits_Phase_8,2,5,80,127,1775160900
115,16,15,Jits_Phase_8,3,5,63,98,1775181060
115,16,15,Jits_Phase_8,0,1,48,53,1775835228
115,16,15,Jits_Phase_8,1,5,63,98,1775860956
115,16,15,Jits_Phase_8,2,5,56,103,1775880592
115,16,15,Jits_Phase_8,3,5,80,127,1775920600
115,16,15,Jits_Phase_8,0,1,48,51,1776660540
115,16,15,Jits_Phase_8,1,5,63,98,1776670972
115,16,15,Jits_Phase_8,2,5,80,127,1776700724
115,16,15,Jits_Phase_8,3,5,56,103,1776721256
115,16,15,Jits_Phase_8,0,1,48,48,1777395472
115,16,15,Jits_Phase_8,1,5,80,127,1777441208
115,16,15,Jits_Phase_8,2,5,56,103,1777491408
115,16,15,Jits_Phase_8,3,5,63,98,1777550836
115,16,15,Jits_Phase_8,0,1,48,50,1778210000
115,16,15,Jits_Phase_8,1,5,63,98,1778230848
115,16,15,Jits_Phase_8,2,5,56,103,1778350736
115,16,15,Jits_Phase_8,3,5,80,127,1778381160
115,16,15,Jits_Phase_8,0,1,48,40,1779048484
115,16,15,Jits_Phase_8,1,5,80,127,1779071292
115,16,15,Jits_Phase_8,2,5,63,98,1779090880
115,16,15,Jits_Phase_8,3,5,56,103,1779160616
115,16,15,Jits_Phase_8,0,1,48,33,1779856132
115,16,15,Jits_Phase_8,1,5,63,98,1779890632
115,16,15,Jits_Phase_8,2,5,56,103,1779900752
115,16,15,Jits_Phase_8,3,5,80,127,1779980828
115,16,15,Jits_Phase_8,0,1,48,41,1780636712
115,16,15,Jits_Phase_8,1,5,56,103,1780750760
115,16,15,Jits_Phase_8,2,5,80,127,1780781560
115,16,15,Jits_Phase_8,3,5,63,98,1780790780
115,16,15,Jits_Phase_8,0,9999,9999,9999,1645909088
115,16,15,Jits_Phase_8,1,9999,9999,9999,1646708804
115,16,15,Jits_Phase_8,2,9999,9999,9999,1647508544
115,16,15,Jits_Phase_8,3,9999,9999,9999,1648308316
115,16,15,Jits_Phase_8,4,9999,9999,9999,1649109056
115,16,15,Jits_Phase_8,5,9999,9999,9999,1649908812
115,16,15,Jits_Phase_8,6,9999,9999,9999,1650708568
115,16,15,Jits_Phase_8,7,9999,9999,9999,1651508340
115,16,15,Jits_Phase_8,8,9999,9999,9999,1652309092
115,16,15,Jits_Phase_8,9,9999,9999,9999,1653108836
115,16,15,Jits_Phase_8,10,9999,9999,9999,1653908568
115,16,15,Jits_Phase_8,11,9999,9999,9999,1654708324
115,16,15,Jits_Phase_8,12,9999,9999,9999,1655509076
115,16,15,Jits_Phase_8,13,9999,9999,9999,1656308844
115,16,15,Jits_Phase_8,14,9999,9999,9999,1657108588
115,16,15,Jits_Phase_8,15,9999,9999,9999,1657908340
115,16,15,Jits_Phase_8,16,9999,9999,9999,1658709052
115,16,15,Jits_Phase_8,17,9999,9999,9999,1659508816
115,16,15,Jits_Phase_8,18,9999,9999,9999,1660308604
115,16,15,Jits_Phase_8,19,9999,9999,9999,1661108304
115,16,15,Jits_Phase_8,20,9999,9999,9999,1661909108
115,16,15,Jits_Phase_8,21,9999,9999,9999,1662708860
115,16,15,Jits_Phase_8,22,9999,9999,9999,1663508552
115,16,15,Jits_Phase_8,23,9999,9999,9999,1664308304
115,16,15,Jits_Phase_8,24,9999,9999,9999,1665109108
115,16,15,Jits_Phase_8,25,9999,9999,9999,1665908864
115,16,15,Jits_Phase_8,26,9999,9999,9999,1666708584
115,16,15,Jits_Phase_8,27,9999,9999,9999,1667508340
115,16,15,Jits_Phase_8,28,9999,9999,9999,1668309084
115,16,15,Jits_Phase_8,29,9999,9999,9999,1669108852
115,16,15,Jits_Phase_8,30,9999,9999,9999,1669888080
115,16,15,Jits_Phase_8,31,9999,9999,9999,1670688884
115,16,15,Jits_Phase_8,32,9999,9999,9999,1671488568
115,16,15,Jits_Phase_8,33,9999,9999,9999,1672288336
115,16,15,Jits_Phase_8,34,9999,9999,9999,1673088108
115,16,15,Jits_Phase_8,35,9999,9999,9999,1673888872
115,16,15,Jits_Phase_8,36,9999,9999,9999,1674688636
115,16,15,Jits_Phase_8,37,9999,9999,9999,1675488320
115,16,15,Jits_Phase_8,38,9999,9999,9999,1676288076
115,16,15,Jits_Phase_8,39,9999,9999,9999,1677088884
115,16,15,Jits_Phase_8,40,9999,9999,9999,1677888568
115,16,15,Jits_Phase_8,41,9999,9999,9999,1678688340
115,16,15,Jits_Phase_8,42,9999,9999,9999,1679488096
115,16,15,Jits_Phase_8,43,9999,9999,9999,1680288856
115,16,15,Jits_Phase_8,44,9999,9999,9999,1681088596
115,16,15,Jits_Phase_8,45,9999,9999,9999,1681888352
115,16,15,Jits_Phase_8,46,9999,9999,9999,1682688112
115,16,15,Jits_Phase_8,47,9999,9999,9999,1683488848
115,16,15,Jits_Phase_8,48,9999,9999,9999,1684309056
115,16,15,Jits_Phase_8,49,9999,9999,9999,1685108804
115,16,15,Jits_Phase_8,50,9999,9999,9999,1685908584
115,16,15,Jits_Phase_8,51,9999,9999,9999,1686708340
115,16,15,Jits_Phase_8,52,9999,9999,9999,1687509044
115,16,15,Jits_Phase_8,53,9999,9999,9999,1688308812
115,16,15,Jits_Phase_8,54,9999,9999,9999,1689108564
115,16,15,Jits_Phase_8,55,9999,9999,9999,1689908336
115,16,15,Jits_Phase_8,56,9999,9999,9999,1690709112
115,16,15,Jits_Phase_8,57,9999,9999,9999,1691508808
115,16,15,Jits_Phase_8,58,9999,9999,9999,1692308600
115,16,15,Jits_Phase_8,59,9999,9999,9999,1693108296
115,16,15,Jits_Phase_8,60,9999,9999,9999,1693909112
115,16,15,Jits_Phase_8,61,9999,9999,9999,1694708812
115,16,15,Jits_Phase_8,62,9999,9999,9999,1695508580
115,16,15,Jits_Phase_8,63,9999,9999,9999,1696308332
115,16,15,Jits_Phase_8,64,9999,9999,9999,1697149016
115,16,15,Jits_Phase_8,65,9999,9999,9999,1697948728
115,16,15,Jits_Phase_8,66,9999,9999,9999,1698748504
115,16,15,Jits_Phase_8,67,9999,9999,9999,1699548268
115,16,15,Jits_Phase_8,68,9999,9999,9999,1700348984
115,16,15,Jits_Phase_8,69,9999,9999,9999,1701148752
115,16,15,Jits_Phase_8,70,9999,9999,9999,1701948516
115,16,15,Jits_Phase_8,71,9999,9999,9999,1702748284
115,16,15,Jits_Phase_8,72,9999,9999,9999,1703549012
115,16,15,Jits_Phase_8,73,9999,9999,9999,1704348736
115,16,15,Jits_Phase_8,74,9999,9999,9999,1705148504
115,16,15,Jits_Phase_8,75,9999,9999,9999,1705948260
115,16,15,Jits_Phase_8,76,9999,9999,9999,1706749000
115,16,15,Jits_Phase_8,77,9999,9999,9999,1707548772
115,16,15,Jits_Phase_8,78,9999,9999,9999,1708348536
115,16,15,Jits_Phase_8,79,9999,9999,9999,1709148232
115,16,15,Jits_Phase_8,80,9999,9999,9999,1709949036
115,16,15,Jits_Phase_8,81,9999,9999,9999,1710708860
115,16,15,Jits_Phase_8,82,9999,9999,9999,1711508568
115,16,15,Jits_Phase_8,83,9999,9999,9999,1712308320
115,16,15,Jits_Phase_8,84,9999,9999,9999,1713109060
115,16,15,Jits_Phase_8,85,9999,9999,9999,1713908836
115,16,15,Jits_Phase_8,86,9999,9999,9999,1714708592
115,16,15,Jits_Phase_8,87,9999,9999,9999,1715508348
115,16,15,Jits_Phase_8,88,9999,9999,9999,1716309076
115,16,15,Jits_Phase_8,89,9999,9999,9999,1717108840
115,16,15,Jits_Phase_8,90,9999,9999,9999,1717908560
115,16,15,Jits_Phase_8,91,9999,9999,9999,1718708312
115,16,15,Jits_Phase_8,92,9999,9999,9999,1719509044
115,16,15,Jits_Phase_8,93,9999,9999,9999,1720308796
115,16,15,Jits_Phase_8,94,9999,9999,9999,1721108552
115,16,15,Jits_Phase_8,95,9999,9999,9999,1721908308
115,16,15,Jits_Phase_8,96,9999,9999,9999,1722709048
115,16,15,Jits_Phase_8,97,9999,9999,9999,1723428944
115,16,15,Jits_Phase_8,98,9999,9999,9999,1724228716
115,16,15,Jits_Phase_8,99,9999,9999,9999,1725028408
115,16,15,Jits_Phase_8,100,9999,9999,9999,1725828152
115,16,15,Jits_Phase_8,101,9999,9999,9999,1726628976
115,16,15,Jits_Phase_8,102,9999,9999,9999,1727428728
115,16,15,Jits_Phase_8,103,9999,9999,9999,1728228412
115,16,15,Jits_Phase_8,104,9999,9999,9999,1729028172
115,16,15,Jits_Phase_8,105,9999,9999,9999,1729828980
115,16,15,Jits_Phase_8,106,9999,9999,9999,1730628728
115,16,15,Jits_Phase_8,107,9999,9999,9999,1731428464
115,16,15,Jits_Phase_8,108,9999,9999,9999,1732228200
115,16,15,Jits_Phase_8,109,9999,9999,9999,1733028944
115,16,15,Jits_Phase_8,110,9999,9999,9999,1733828720
115,16,15,Jits_Phase_8,111,9999,9999,9999,1734628480
115,16,15,Jits_Phase_8,112,9999,9999,9999,1735428160
115,16,15,Jits_Phase_8,113,9999,9999,9999,1736228980
115,16,15,Jits_Phase_8,114,9999,9999,9999,1737108560
115,16,15,Jits_Phase_8,115,9999,9999,9999,1737908320
115,16,15,Jits_Phase_8,116,9999,9999,9999,1738709052
115,16,15,Jits_Phase_8,117,9999,9999,9999,1739508820
115,16,15,Jits_Phase_8,118,9999,9999,9999,1740308584
115,16,15,Jits_Phase_8,119,9999,9999,9999,1741108336
115,16,15,Jits_Phase_8,120,9999,9999,9999,1741909064
115,16,15,Jits_Phase_8,121,9999,9999,9999,1742708824
115,16,15,Jits_Phase_8,122,9999,9999,9999,1743508600
115,16,15,Jits_Phase_8,123,9999,9999,9999,1744308280
115,16,15,Jits_Phase_8,124,9999,9999,9999,1745109088
115,16,15,Jits_Phase_8,125,9999,9999,9999,1745908836
115,16,15,Jits_Phase_8,126,9999,9999,9999,1746708600
115,16,15,Jits_Phase_8,127,9999,9999,9999,1747508288
115,16,15,Jits_Phase_8,128,9999,9999,9999,1748309096
115,16,15,Jits_Phase_8,129,9999,9999,9999,1749108856
115,16,15,Jits_Phase_8,130,9999,9999,9999,1749908584
115,16,15,Jits_Phase_8,131,9999,9999,9999,1750869052
115,16,15,Jits_Phase_8,132,9999,9999,9999,1751668824
115,16,15,Jits_Phase_8,133,9999,9999,9999,1752468540
115,16,15,Jits_Phase_8,134,9999,9999,9999,1753268296
115,16,15,Jits_Phase_8,135,9999,9999,9999,1754069088
115,16,15,Jits_Phase_8,136,9999,9999,9999,1754868848
115,16,15,Jits_Phase_8,137,9999,9999,9999,1755668544
115,16,15,Jits_Phase_8,138,9999,9999,9999,1756468320
115,16,15,Jits_Phase_8,139,9999,9999,9999,1757269064
115,16,15,Jits_Phase_8,140,9999,9999,9999,1758068824
115,16,15,Jits_Phase_8,141,9999,9999,9999,1758868608
115,16,15,Jits_Phase_8,142,9999,9999,9999,1759668288
115,16,15,Jits_Phase_8,143,9999,9999,9999,1760469092
115,16,15,Jits_Phase_8,144,9999,9999,9999,1761268848
115,16,15,Jits_Phase_8,145,9999,9999,9999,1762068536
115,16,15,Jits_Phase_8,146,9999,9999,9999,1762868292
115,16,15,Jits_Phase_8,147,9999,9999,9999,1763669092
115,16,15,Jits_Phase_8,148,9999,9999,9999,1764468836
115,16,15,Jits_Phase_8,149,9999,9999,9999,1765268540
115,16,15,Jits_Phase_8,150,9999,9999,9999,1765908552
115,16,15,Jits_Phase_8,151,9999,9999,9999,1766708296
115,16,15,Jits_Phase_8,152,9999,9999,9999,1767509044
115,16,15,Jits_Phase_8,153,9999,9999,9999,1768308808
115,16,15,Jits_Phase_8,154,9999,9999,9999,1769108584
115,16,15,Jits_Phase_8,155,9999,9999,9999,1769908328
115,16,15,Jits_Phase_8,156,9999,9999,9999,1770709060
115,16,15,Jits_Phase_8,157,9999,9999,9999,1771508812
115,16,15,Jits_Phase_8,158,9999,9999,9999,1772308576
115,16,15,Jits_Phase_8,159,9999,9999,9999,1773108328
115,16,15,Jits_Phase_8,160,9999,9999,9999,1773909104
115,16,15,Jits_Phase_8,161,9999,9999,9999,1774708800
115,16,15,Jits_Phase_8,162,9999,9999,9999,1775508592
115,16,15,Jits_Phase_8,163,9999,9999,9999,1776308348
115,16,15,Jits_Phase_8,164,9999,9999,9999,1777109076
115,16,15,Jits_Phase_8,165,9999,9999,9999,1777908832
115,16,15,Jits_Phase_8,166,9999,9999,9999,1778708592
115,16,15,Jits_Phase_8,167,9999,9999,9999,1779508352
115,16,15,Jits_Phase_8,168,9999,9999,9999,1780309084
115,16,15,Jits_Phase_8,169,9999,9999,9999,1781108848
115,17,17,Jits_Phase_5,0,5,56,103,1789739448
115,17,17,Jits_Phase_5,1,5,63,98,1789742624
115,17,17,Jits_Phase_5,2,5,80,127,1789745740
115,17,17,Jits_Phase_5,0,5,56,103,1790239156
115,17,17,Jits_Phase_5,1,5,63,98,1790242332
115,17,17,Jits_Phase_5,2,5,80,127,1790245524
115,17,17,Jits_Phase_5,0,5,56,103,1790738808
115,17,17,Jits_Phase_5,1,5,80,127,1790749004
115,17,17,Jits_Phase_5,2,5,63,98,1790768492
115,17,17,Jits_Phase_5,0,5,63,98,1791189464
115,17,17,Jits_Phase_5,1,5,80,127,1791218992
115,17,17,Jits_Phase_5,2,5,56,103,1791229408
115,17,17,Jits_Phase_5,0,1,48,45,1791734912
115,17,17,Jits_Phase_5,1,5,80,127,1791748728
115,17,17,Jits_Phase_5,2,5,56,103,1791758700
115,17,17,Jits_Phase_5,3,5,63,98,1791789568
115,17,17,Jits_Phase_5,0,5,63,98,1792238904
115,17,17,Jits_Phase_5,1,1,48,47,1792253556
115,17,17,Jits_Phase_5,2,5,56,103,1792268648
115,17,17,Jits_Phase_5,3,5,80,127,1792278840
115,17,17,Jits_Phase_5,0,5,56,103,1792688608
115,17,17,Jits_Phase_5,1,5,63,98,1792738588
115,17,17,Jits_Phase_5,2,1,48,46,1792742076
115,17,17,Jits_Phase_5,3,5,80,127,1792759260
115,17,17,Jits_Phase_5,0,5,80,127,1793189344
115,17,17,Jits_Phase_5,1,1,48,48,1793197936
115,17,17,Jits_Phase_5,2,5,63,98,1793239536
115,17,17,Jits_Phase_5,3,5,56,103,1793279620
115,17,17,Jits_Phase_5,0,5,56,103,1793688808
115,17,17,Jits_Phase_5,1,5,63,98,1793718560
115,17,17,Jits_Phase_5,2,1,48,45,1793749996
115,17,17,Jits_Phase_5,3,5,80,127,1793789572
115,17,17,Jits_Phase_5,0,5,56,103,1794188648
115,17,17,Jits_Phase_5,1,5,80,127,1794249112
115,17,17,Jits_Phase_5,2,1,48,45,1794259724
115,17,17,Jits_Phase_5,3,5,63,98,1794278708
115,17,17,Jits_Phase_5,0,5,56,103,1794698604
115,17,17,Jits_Phase_5,1,5,63,98,1794708800
115,17,17,Jits_Phase_5,2,5,80,127,1794748736
115,17,17,Jits_Phase_5,3,1,48,47,1794779276
115,17,17,Jits_Phase_5,0,5,63,98,1795199460
115,17,17,Jits_Phase_5,1,1,48,42,1795258872
115,17,17,Jits_Phase_5,2,5,80,127,1795279496
115,17,17,Jits_Phase_5,3,5,56,103,1795288496
115,17,17,Jits_Phase_5,0,5,63,98,1795749360
115,17,17,Jits_Phase_5,1,1,48,40,1795763640
115,17,17,Jits_Phase_5,2,5,56,103,1795789436
115,17,17,Jits_Phase_5,3,5,80,127,1795792504
115,17,17,Jits_Phase_5,0,5,56,103,1796209148
115,17,17,Jits_Phase_5,1,5,63,98,1796219492
115,17,17,Jits_Phase_5,2,5,80,127,1796259304
115,17,17,Jits_Phase_5,3,1,48,40,1796281456
115,17,17,Jits_Phase_5,0,5,56,103,1796698568
115,17,17,Jits_Phase_5,1,5,63,98,1796701560
115,17,17,Jits_Phase_5,2,5,80,127,1796719024
115,17,17,Jits_Phase_5,3,1,48,43,1796743592
115,17,17,Jits_Phase_5,0,1,48,43,1797205536
115,17,17,Jits_Phase_5,1,5,80,127,1797208572
115,17,17,Jits_Phase_5,2,5,56,103,1797218620
115,17,17,Jits_Phase_5,3,5,63,98,1797289664
115,17,17,Jits_Phase_5,0,5,63,98,1797698884
115,17,17,Jits_Phase_5,1,1,48,38,1797717832
115,17,17,Jits_Phase_5,2,5,56,103,1797719488
115,17,17,Jits_Phase_5,3,5,80,127,1797799672
115,17,17,Jits_Phase_5,0,1,48,38,1798206928
115,17,17,Jits_Phase_5,1,5,56,103,1798208816
115,17,17,Jits_Phase_5,2,5,80,127,1798248680
115,17,17,Jits_Phase_5,3,5,63,98,1798259172
115,17,17,Jits_Phase_5,0,5,80,127,1798699280
115,17,17,Jits_Phase_5,1,1,48,42,1798710344
115,17,17,Jits_Phase_5,2,5,63,98,1798729396
115,17,17,Jits_Phase_5,3,5,56,103,1798769184
115,17,17,Jits_Phase_5,0,1,48,44,1799210840
115,17,17,Jits_Phase_5,1,5,56,103,1799218512
115,17,17,Jits_Phase_5,2,5,63,98,1799249384
115,17,17,Jits_Phase_5,3,5,80,127,1799298388
115,17,17,Jits_Phase_5,0,5,80,127,1799719540
115,17,17,Jits_Phase_5,1,1,48,39,1799730456
115,17,17,Jits_Phase_5,2,5,56,103,1799759324
115,17,17,Jits_Phase_5,3,5,63,98,1799768548
115,17,17,Jits_Phase_5,0,5,80,127,1800198704
115,17,17,Jits_Phase_5,1,1,48,42,1800233436
115,17,17,Jits_Phase_5,2,5,63,98,1800238488
115,17,17,Jits_Phase_5,3,5,56,103,1800298796
115,17,17,Jits_Phase_5,0,5,56,103,1800699364
115,17,17,Jits_Phase_5,1,5,80,127,1800708440
115,17,17,Jits_Phase_5,2,1,48,38,1800751488
115,17,17,Jits_Phase_5,3,5,63,98,1800789568
115,17,17,Jits_Phase_5,0,5,80,127,1801198904
115,17,17,Jits_Phase_5,1,1,48,39,1801253040
115,17,17,Jits_Phase_5,2,5,63,98,1801259364
115,17,17,Jits_Phase_5,3,5,56,103,1801289036
115,17,17,Jits_Phase_5,0,5,56,103,1801698672
115,17,17,Jits_Phase_5,1,5,80,127,1801759284
115,17,17,Jits_Phase_5,2,1,48,39,1801762328
115,17,17,Jits_Phase_5,3,5,63,98,1801799140
115,17,17,Jits_Phase_5,0,5,56,103,1802248556
115,17,17,Jits_Phase_5,1,1,48,38,1802255788
115,17,17,Jits_Phase_5,2,5,63,98,1802258748
115,17,17,Jits_Phase_5,3,5,80,127,1802262184
115,17,17,Jits_Phase_5,0,5,80,127,1802699164
115,17,17,Jits_Phase_5,1,1,48,40,1802760792
115,17,17,Jits_Phase_5,2,5,63,98,1802789436
115,17,17,Jits_Phase_5,3,5,56,103,1802798588
115,17,17,Jits_Phase_5,0,5,56,103,1803198988
115,17,17,Jits_Phase_5,1,5,63,98,1803202088
115,17,17,Jits_Phase_5,2,5,80,127,1803205428
115,17,17,Jits_Phase_5,3,1,48,43,1803268940
115,17,17,Jits_Phase_5,0,5,80,127,1803718900
115,17,17,Jits_Phase_5,1,1,48,42,1803750712
115,17,17,Jits_Phase_5,2,5,63,98,1803769168
115,17,17,Jits_Phase_5,3,5,56,103,1803798768
115,17,17,Jits_Phase_5,0,5,56,103,1804199256
115,17,17,Jits_Phase_5,1,5,80,127,1804208480
115,17,17,Jits_Phase_5,2,1,48,41,1804272276
115,17,17,Jits_Phase_5,3,5,63,98,1804279272
115,17,17,Jits_Phase_5,0,5,56,103,1804709208
115,17,17,Jits_Phase_5,1,5,63,98,1804728620
115,17,17,Jits_Phase_5,2,1,48,36,1804759980
115,17,17,Jits_Phase_5,3,5,80,127,1804789300
115,17,17,Jits_Phase_5,0,5,80,127,1805188496
115,17,17,Jits_Phase_5,1,1,48,40,1805247012
115,17,17,Jits_Phase_5,2,5,63,98,1805259168
115,17,17,Jits_Phase_5,3,5,56,103,1805278652
115,17,17,Jits_Phase_5,0,5,80,127,1805708668
115,17,17,Jits_Phase_5,1,1,48,36,1805716572
115,17,17,Jits_Phase_5,2,5,56,103,1805719076
115,17,17,Jits_Phase_5,3,5,63,98,1805729420
115,17,17,Jits_Phase_5,0,5,80,127,1806199260
115,17,17,Jits_Phase_5,1,5,56,103,1806218548
115,17,17,Jits_Phase_5,2,1,48,42,1806244960
115,17,17,Jits_Phase_5,3,5,63,98,1806289188
115,17,17,Jits_Phase_5,0,5,56,103,1806709212
115,17,17,Jits_Phase_5,1,1,48,41,1806732360
115,17,17,Jits_Phase_5,2,5,80,127,1806738756
115,17,17,Jits_Phase_5,3,5,63,98,1806759212
115,17,17,Jits_Phase_5,0,5,63,98,1807198636
115,17,17,Jits_Phase_5,1,1,48,40,1807248380
115,17,17,Jits_Phase_5,2,5,56,103,1807259044
115,17,17,Jits_Phase_5,3,5,80,127,1807288644
115,17,17,Jits_Phase_5,0,5,63,98,1807689312
115,17,17,Jits_Phase_5,1,5,80,127,1807692528
115,17,17,Jits_Phase_5,2,1,48,40,1807764524
115,17,17,Jits_Phase_5,3,5,56,103,1807779164
115,17,17,Jits_Phase_5,0,5,56,103,1808209212
115,17,17,Jits_Phase_5,1,5,63,98,1808239256
115,17,17,Jits_Phase_5,2,1,48,40,1808258344
115,17,17,Jits_Phase_5,3,5,80,127,1808278840
115,17,17,Jits_Phase_5,0,5,63,98,1808709196
115,17,17,Jits_Phase_5,1,1,48,31,1808731944
115,17,17,Jits_Phase_5,2,5,56,103,1808749276
115,17,17,Jits_Phase_5,3,5,80,127,1808769512
115,17,17,Jits_Phase_5,0,5,63,98,1809219064
115,17,17,Jits_Phase_5,1,1,48,33,1809234316
115,17,17,Jits_Phase_5,2,5,56,103,1809258920
115,17,17,Jits_Phase_5,3,5,80,127,1809269112
115,17,17,Jits_Phase_5,0,5,80,127,1809699108
115,17,17,Jits_Phase_5,1,1,48,36,1809723272
115,17,17,Jits_Phase_5,2,5,63,98,1809768780
115,17,17,Jits_Phase_5,3,5,56,103,1809789164
115,17,17,Jits_Phase_5,0,5,56,103,1810188608
115,17,17,Jits_Phase_5,1,5,80,127,1810209144
115,17,17,Jits_Phase_5,2,1,48,36,1810236076
115,17,17,Jits_Phase_5,3,5,63,98,1810249444
115,17,17,Jits_Phase_5,0,5,63,98,1810698560
115,17,17,Jits_Phase_5,1,5,80,127,1810719092
115,17,17,Jits_Phase_5,2,1,48,40,1810735912
115,17,17,Jits_Phase_5,3,5,56,103,1810759024
115,17,17,Jits_Phase_5,0,5,63,98,1811208496
115,17,17,Jits_Phase_5,1,5,56,103,1811229028
115,17,17,Jits_Phase_5,2,5,80,127,1811239220
115,17,17,Jits_Phase_5,3,1,48,36,1811250656
115,17,17,Jits_Phase_5,0,5,80,127,1811709284
115,17,17,Jits_Phase_5,1,5,56,103,1811728620
115,17,17,Jits_Phase_5,2,1,48,40,1811732188
115,17,17,Jits_Phase_5,3,5,63,98,1811758512
115,17,17,Jits_Phase_5,0,1,48,33,1812215148
115,17,17,Jits_Phase_5,1,5,56,103,1812278712
115,17,17,Jits_Phase_5,2,5,80,127,1812281780
115,17,17,Jits_Phase_5,3,5,63,98,1812299248
115,17,17,Jits_Phase_5,0,5,63,98,1812698456
115,17,17,Jits_Phase_5,1,5,56,103,1812729324
115,17,17,Jits_Phase_5,2,1,48,31,1812767064
115,17,17,Jits_Phase_5,3,5,80,127,1812788512
115,17,17,Jits_Phase_5,0,1,48,36,1813250168
115,17,17,Jits_Phase_5,1,5,63,98,1813279256
115,17,17,Jits_Phase_5,2,5,56,103,1813289232
115,17,17,Jits_Phase_5,3,5,80,127,1813298528
115,17,17,Jits_Phase_5,0,5,56,103,1813738792
115,17,17,Jits_Phase_5,1,1,48,39,1813755836
115,17,17,Jits_Phase_5,2,5,80,127,1813768536
115,17,17,Jits_Phase_5,3,5,63,98,1813778656
115,17,17,Jits_Phase_5,0,1,48,40,1814253204
115,17,17,Jits_Phase_5,1,5,63,98,1814278412
115,17,17,Jits_Phase_5,2,5,56,103,1814288680
115,17,17,Jits_Phase_5,3,5,80,127,1814309216
115,17,17,Jits_Phase_5,0,5,56,103,1814708644
115,17,17,Jits_Phase_5,1,1,48,43,1814767664
115,17,17,Jits_Phase_5,2,5,63,98,1814769100
115,17,17,Jits_Phase_5,3,5,80,127,1814772388
115,17,17,Jits_Phase_5,0,5,80,127,1815229000
115,17,17,Jits_Phase_5,1,5,56,103,1815239120
115,17,17,Jits_Phase_5,2,1,48,37,1815267572
115,17,17,Jits_Phase_5,3,5,63,98,1815308644
115,17,17,Jits_Phase_5,0,5,80,127,1815719252
115,17,17,Jits_Phase_5,1,1,48,38,1815738180
115,17,17,Jits_Phase_5,2,5,56,103,1815788996
115,17,17,Jits_Phase_5,3,5,63,98,1815799192
115,17,17,Jits_Phase_5,0,1,48,41,1816226240
115,17,17,Jits_Phase_5,1,5,63,98,1816259092
115,17,17,Jits_Phase_5,2,5,56,103,1816269212
115,17,17,Jits_Phase_5,3,5,80,127,1816288548
115,17,17,Jits_Phase_5,0,5,80,127,1816708332
115,17,17,Jits_Phase_5,1,1,48,34,1816734612
115,17,17,Jits_Phase_5,2,5,63,98,1816768960
115,17,17,Jits_Phase_5,3,5,56,103,1816808972
115,17,17,Jits_Phase_5,0,1,48,34,1817220572
115,17,17,Jits_Phase_5,1,5,56,103,1817249240
115,17,17,Jits_Phase_5,2,5,63,98,1817259288
115,17,17,Jits_Phase_5,3,5,80,127,1817299224
115,17,17,Jits_Phase_5,0,1,48,40,1817695064
115,17,17,Jits_Phase_5,1,5,56,103,1817709036
115,17,17,Jits_Phase_5,2,5,80,127,1817738736
115,17,17,Jits_Phase_5,3,5,63,98,1817788636
115,17,17,Jits_Phase_5,0,1,48,32,1818236912
115,17,17,Jits_Phase_5,1,5,56,103,1818248664
115,17,17,Jits_Phase_5,2,5,63,98,1818288600
115,17,17,Jits_Phase_5,3,5,80,127,1818291892
115,17,17,Jits_Phase_5,0,1,48,31,1818718840
115,17,17,Jits_Phase_5,1,5,56,103,1818749428
115,17,17,Jits_Phase_5,2,5,63,98,1818758456
115,17,17,Jits_Phase_5,3,5,80,127,1818779136
115,17,17,Jits_Phase_5,0,5,56,103,1819209172
115,17,17,Jits_Phase_5,1,5,80,127,1819212312
115,17,17,Jits_Phase_5,2,1,48,34,1819217096
115,17,17,Jits_Phase_5,3,5,63,98,1819249176
115,17,17,Jits_Phase_5,0,1,48,43,1819710912
115,17,17,Jits_Phase_5,1,5,63,98,1819748700
115,17,17,Jits_Phase_5,2,5,56,103,1819778452
115,17,17,Jits_Phase_5,3,5,80,127,1819799008
115,17,17,Jits_Phase_5,0,5,80,127,1820218868
115,17,17,Jits_Phase_5,1,5,56,103,1820229136
115,17,17,Jits_Phase_5,2,5,63,98,1820239184
115,17,17,Jits_Phase_5,3,1,48,28,1820248676
115,17,17,Jits_Phase_5,0,1,48,40,1820709828
115,17,17,Jits_Phase_5,1,5,56,103,1820718400
115,17,17,Jits_Phase_5,2,5,80,127,1820759308
115,17,17,Jits_Phase_5,3,5,63,98,1820789056
115,17,17,Jits_Phase_5,0,1,48,38,1821213172
115,17,17,Jits_Phase_5,1,5,63,98,1821229308
115,17,17,Jits_Phase_5,2,5,80,127,1821238608
115,17,17,Jits_Phase_5,3,5,56,103,1821249100
115,17,17,Jits_Phase_5,0,1,48,41,1821707084
115,17,17,Jits_Phase_5,1,5,56,103,1821719092
115,17,17,Jits_Phase_5,2,5,63,98,1821788476
115,17,17,Jits_Phase_5,3,5,80,127,1821798892
115,17,17,Jits_Phase_5,0,1,48,40,1822196552
115,17,17,Jits_Phase_5,1,5,80,127,1822228880
115,17,17,Jits_Phase_5,2,5,56,103,1822239224
115,17,17,Jits_Phase_5,3,5,63,98,1822289128
115,17,17,Jits_Phase_5,0,1,48,34,1822711072
115,17,17,Jits_Phase_5,1,5,80,127,1822738892
115,17,17,Jits_Phase_5,2,5,56,103,1822799208
115,17,17,Jits_Phase_5,3,5,63,98,1822829092
115,17,17,Jits_Phase_5,0,1,48,43,1823230972
115,17,17,Jits_Phase_5,1,5,56,103,1823238496
115,17,17,Jits_Phase_5,2,5,80,127,1823241488
115,17,17,Jits_Phase_5,3,5,63,98,1823278432
115,17,17,Jits_Phase_5,0,1,48,40,1823737916
115,17,17,Jits_Phase_5,1,5,56,103,1823769100
115,17,17,Jits_Phase_5,2,5,63,98,1823798776
115,17,17,Jits_Phase_5,3,5,80,127,1823808972
115,17,17,Jits_Phase_5,0,1,48,42,1824233540
115,17,17,Jits_Phase_5,1,5,63,98,1824279120
115,17,17,Jits_Phase_5,2,5,80,127,1824289092
115,17,17,Jits_Phase_5,3,5,56,103,1824299508
115,17,17,Jits_Phase_5,0,5,80,127,1824728384
115,17,17,Jits_Phase_5,1,1,48,31,1824772256
115,17,17,Jits_Phase_5,2,5,56,103,1824778576
115,17,17,Jits_Phase_5,3,5,63,98,1824781716
115,17,17,Jits_Phase_5,0,5,56,103,1825259076
115,17,17,Jits_Phase_5,1,1,48,47,1825265260
115,17,17,Jits_Phase_5,2,5,80,127,1825279304
115,17,17,Jits_Phase_5,3,5,63,98,1825288604
115,17,17,Jits_Phase_5,0,5,63,98,1825739064
115,17,17,Jits_Phase_5,1,5,56,103,1825769188
115,17,17,Jits_Phase_5,2,1,48,38,1825783992
115,17,17,Jits_Phase_5,3,5,80,127,1825789192
115,17,17,Jits_Phase_5,0,5,56,103,1826249152
115,17,17,Jits_Phase_5,1,5,80,127,1826259344
115,17,17,Jits_Phase_5,2,1,48,38,1826263064
115,17,17,Jits_Phase_5,3,5,63,98,1826329092
115,17,17,Jits_Phase_5,0,5,63,98,1826738428
115,17,17,Jits_Phase_5,1,5,80,127,1826778368
115,17,17,Jits_Phase_5,2,1,48,40,1826798192
115,17,17,Jits_Phase_5,3,5,56,103,1826818372
115,17,17,Jits_Phase_5,0,5,56,103,1827248440
115,17,17,Jits_Phase_5,1,5,63,98,1827258860
115,17,17,Jits_Phase_5,2,5,80,127,1827279244
115,17,17,Jits_Phase_5,3,1,48,33,1827329932
115,17,17,Jits_Phase_5,0,5,63,98,1827789256
115,17,17,Jits_Phase_5,1,1,48,40,1827796932
115,17,17,Jits_Phase_5,2,5,80,127,1827808588
115,17,17,Jits_Phase_5,3,5,56,103,1827829120
115,17,17,Jits_Phase_5,0,5,56,103,1828228452
115,17,17,Jits_Phase_5,1,1,48,39,1828306208
115,17,17,Jits_Phase_5,2,5,80,127,1828309388
115,17,17,Jits_Phase_5,3,5,63,98,1828318684
115,17,17,Jits_Phase_5,0,5,80,127,1828769072
115,17,17,Jits_Phase_5,1,5,63,98,1828779344
115,17,17,Jits_Phase_5,2,1,48,39,1828790780
115,17,17,Jits_Phase_5,3,5,56,103,1828809012
115,17,17,Jits_Phase_5,0,5,63,98,1829228880
115,17,17,Jits_Phase_5,1,5,80,127,1829268992
115,17,17,Jits_Phase_5,2,1,48,37,1829283048
115,17,17,Jits_Phase_5,3,5,56,103,1829329372
115,17,17,Jits_Phase_5,0,5,63,98,1829738968
115,17,17,Jits_Phase_5,1,5,56,103,1829789044
115,17,17,Jits_Phase_5,2,1,48,38,1829795528
115,17,17,Jits_Phase_5,3,5,80,127,1829818936
115,17,17,Jits_Phase_5,0,5,80,127,1830238720
115,17,17,Jits_Phase_5,1,5,63,98,1830248844
115,17,17,Jits_Phase_5,2,1,48,44,1830270244
115,17,17,Jits_Phase_5,3,5,56,103,1830318612
115,17,17,Jits_Phase_5,0,1,48,45,1830781308
115,17,17,Jits_Phase_5,1,5,80,127,1830798892
115,17,17,Jits_Phase_5,2,5,56,103,1830808936
115,17,17,Jits_Phase_5,3,5,63,98,1830812152
115,17,17,Jits_Phase_5,0,5,56,103,1831239136
115,17,17,Jits_Phase_5,1,5,80,127,1831258548
115,17,17,Jits_Phase_5,2,5,63,98,1831268964
115,17,17,Jits_Phase_5,3,1,48,39,1831281828
115,17,17,Jits_Phase_5,0,5,63,98,1831749012
115,17,17,Jits_Phase_5,1,1,48,38,1831750052
115,17,17,Jits_Phase_5,2,5,56,103,1831788944
115,17,17,Jits_Phase_5,3,5,80,127,1831809404
115,17,17,Jits_Phase_5,0,1,48,43,1832245656
115,17,17,Jits_Phase_5,1,5,63,98,1832248912
115,17,17,Jits_Phase_5,2,5,56,103,1832309152
115,17,17,Jits_Phase_5,3,5,80,127,1832312068
115,17,17,Jits_Phase_5,0,5,56,103,1832708584
115,17,17,Jits_Phase_5,1,5,80,127,1832729116
115,17,17,Jits_Phase_5,2,1,48,46,1832765340
115,17,17,Jits_Phase_5,3,5,63,98,1832769120
115,17,17,Jits_Phase_5,0,5,56,103,1833238764
115,17,17,Jits_Phase_5,1,1,48,32,1833240248
115,17,17,Jits_Phase_5,2,5,63,98,1833259516
115,17,17,Jits_Phase_5,3,5,80,127,1833268664
115,17,17,Jits_Phase_5,0,5,80,127,1833708932
115,17,17,Jits_Phase_5,1,1,48,40,1833724780
115,17,17,Jits_Phase_5,2,5,56,103,1833738752
115,17,17,Jits_Phase_5,3,5,63,98,1833778760
115,17,17,Jits_Phase_5,0,1,48,43,1834196068
115,17,17,Jits_Phase_5,1,5,80,127,1834218952
115,17,17,Jits_Phase_5,2,5,56,103,1834239260
115,17,17,Jits_Phase_5,3,5,63,98,1834298812
115,17,17,Jits_Phase_5,0,1,48,34,1834721072
115,17,17,Jits_Phase_5,1,5,56,103,1834729188
115,17,17,Jits_Phase_5,2,5,80,127,1834749348
115,17,17,Jits_Phase_5,3,5,63,98,1834808764
115,17,17,Jits_Phase_5,0,5,80,127,1835209020
115,17,17,Jits_Phase_5,1,1,48,33,1835218836
115,17,17,Jits_Phase_5,2,5,56,103,1835220404
115,17,17,Jits_Phase_5,3,5,63,98,1835259292
115,17,17,Jits_Phase_5,0,1,48,40,1835694356
115,17,17,Jits_Phase_5,1,5,63,98,1835708772
115,17,17,Jits_Phase_5,2,5,56,103,1835748856
115,17,17,Jits_Phase_5,3,5,80,127,1835751852
115,17,17,Jits_Phase_5,0,1,48,46,1836185924
115,17,17,Jits_Phase_5,1,5,63,98,1836229036
115,17,17,Jits_Phase_5,2,5,80,127,1836268976
115,17,17,Jits_Phase_5,3,5,56,103,1836298780
115,17,17,Jits_Phase_5,0,5,56,103,1836718380
115,17,17,Jits_Phase_5,1,5,63,98,1836728948
115,17,17,Jits_Phase_5,2,1,48,44,1836731108
115,17,17,Jits_Phase_5,3,5,80,127,1836759512
115,17,17,Jits_Phase_5,0,5,80,127,1837208924
115,17,17,Jits_Phase_5,1,1,48,45,1837230400
115,17,17,Jits_Phase_5,2,5,63,98,1837278824
115,17,17,Jits_Phase_5,3,5,56,103,1837288944
115,17,17,Jits_Phase_5,0,5,63,98,1837708688
115,17,17,Jits_Phase_5,1,1,48,45,1837743124
115,17,17,Jits_Phase_5,2,5,56,103,1837779484
115,17,17,Jits_Phase_5,3,5,80,127,1837788708
115,17,17,Jits_Phase_5,0,5,63,98,1838189008
115,17,17,Jits_Phase_5,1,5,56,103,1838209244
115,17,17,Jits_Phase_5,2,1,48,41,1838236276
115,17,17,Jits_Phase_5,3,5,80,127,1838249272
115,17,17,Jits_Phase_5,0,5,56,103,1838669056
115,17,17,Jits_Phase_5,1,5,63,98,1838679552
115,17,17,Jits_Phase_5,2,1,48,36,1838724768
115,17,17,Jits_Phase_5,3,5,80,127,1838759332
115,17,17,Jits_Phase_5,0,5,63,98,1839158976
115,17,17,Jits_Phase_5,1,5,56,103,1839189252
115,17,17,Jits_Phase_5,2,1,48,42,1839204052
115,17,17,Jits_Phase_5,3,5,80,127,1839229180
115,17,17,Jits_Phase_5,0,5,56,103,1839659476
115,17,17,Jits_Phase_5,1,1,48,44,1839677432
115,17,17,Jits_Phase_5,2,5,63,98,1839699256
115,17,17,Jits_Phase_5,3,5,80,127,1839739268
115,17,17,Jits_Phase_5,0,5,80,127,1840159164
115,17,17,Jits_Phase_5,1,1,48,42,1840165952
115,17,17,Jits_Phase_5,2,5,56,103,1840239100
115,17,17,Jits_Phase_5,3,5,63,98,1840249148
115,17,17,Jits_Phase_5,0,1,48,40,1840665932
115,17,17,Jits_Phase_5,1,5,56,103,1840698780
115,17,17,Jits_Phase_5,2,5,63,98,1840701772
115,17,17,Jits_Phase_5,3,5,80,127,1840708900
115,17,17,Jits_Phase_5,0,1,48,41,1841157888
115,17,17,Jits_Phase_5,1,5,56,103,1841219048
115,17,17,Jits_Phase_5,2,5,63,98,1841239356
115,17,17,Jits_Phase_5,3,5,80,127,1841248728
115,17,17,Jits_Phase_5,0,5,63,98,1841678872
115,17,17,Jits_Phase_5,1,1,48,38,1841682520
115,17,17,Jits_Phase_5,2,5,80,127,1841688840
115,17,17,Jits_Phase_5,3,5,56,103,1841709520
115,17,17,Jits_Phase_5,0,1,48,40,1842163596
115,17,17,Jits_Phase_5,1,5,63,98,1842178836
115,17,17,Jits_Phase_5,2,5,56,103,1842259364
115,17,17,Jits_Phase_5,3,5,80,127,1842262284
115,17,17,Jits_Phase_5,0,1,48,35,1842679340
115,17,17,Jits_Phase_5,1,5,63,98,1842680604
115,17,17,Jits_Phase_5,2,5,56,103,1842698744
115,17,17,Jits_Phase_5,3,5,80,127,1842729464
115,17,17,Jits_Phase_5,0,5,56,103,1843178792
115,17,17,Jits_Phase_5,1,1,48,41,1843188212
115,17,17,Jits_Phase_5,2,5,63,98,1843199616
115,17,17,Jits_Phase_5,3,5,80,127,1843208616
115,17,17,Jits_Phase_5,0,1,48,43,1843664656
115,17,17,Jits_Phase_5,1,5,56,103,1843709268
115,17,17,Jits_Phase_5,2,5,63,98,1843738940
115,17,17,Jits_Phase_5,3,5,80,127,1843742304
115,17,17,Jits_Phase_5,0,5,56,103,1844158820
115,17,17,Jits_Phase_5,1,1,48,43,1844199132
115,17,17,Jits_Phase_5,2,5,63,98,1844200476
115,17,17,Jits_Phase_5,3,5,80,127,1844259140
115,17,17,Jits_Phase_5,0,5,56,103,1844678888
115,17,17,Jits_Phase_5,1,5,63,98,1844689160
115,17,17,Jits_Phase_5,2,1,48,45,1844694816
115,17,17,Jits_Phase_5,3,5,80,127,1844748788
115,17,17,Jits_Phase_5,0,5,56,103,1845178728
115,17,17,Jits_Phase_5,1,5,80,127,1845199336
115,17,17,Jits_Phase_5,2,5,63,98,1845228864
115,17,17,Jits_Phase_5,3,1,48,50,1845238132
115,17,17,Jits_Phase_5,0,5,80,127,1845678640
115,17,17,Jits_Phase_5,1,5,56,103,1845688616
115,17,17,Jits_Phase_5,2,5,63,98,1845709296
115,17,17,Jits_Phase_5,3,1,48,47,1845734660
115,17,17,Jits_Phase_5,0,5,63,98,1846168812
115,17,17,Jits_Phase_5,1,1,48,41,1846229024
115,17,17,Jits_Phase_5,2,5,80,127,1846248820
115,17,17,Jits_Phase_5,3,5,56,103,1846259164
115,17,17,Jits_Phase_5,0,1,48,47,1846712432
115,17,17,Jits_Phase_5,1,5,80,127,1846758760
115,17,17,Jits_Phase_5,2,5,56,103,1846779440
115,17,17,Jits_Phase_5,3,5,63,98,1846782580
115,17,17,Jits_Phase_5,0,5,63,98,1847249288
115,17,17,Jits_Phase_5,1,5,80,127,1847252580
115,17,17,Jits_Phase_5,2,1,48,42,1847268448
115,17,17,Jits_Phase_5,3,5,56,103,1847308772
115,17,17,Jits_Phase_5,0,5,56,103,1847728652
115,17,17,Jits_Phase_5,1,5,80,127,1847738924
115,17,17,Jits_Phase_5,2,5,63,98,1847778636
115,17,17,Jits_Phase_5,3,1,48,46,1847779676
115,17,17,Jits_Phase_5,0,5,56,103,1848208860
115,17,17,Jits_Phase_5,1,1,48,42,1848257536
115,17,17,Jits_Phase_5,2,5,63,98,1848269020
115,17,17,Jits_Phase_5,3,5,80,127,1848279512
115,17,17,Jits_Phase_5,0,5,63,98,1848718664
115,17,17,Jits_Phase_5,1,1,48,41,1848746568
115,17,17,Jits_Phase_5,2,5,80,127,1848758520
115,17,17,Jits_Phase_5,3,5,56,103,1848798752
115,17,17,Jits_Phase_5,0,5,56,103,1849218464
115,17,17,Jits_Phase_5,1,1,48,35,1849256704
115,17,17,Jits_Phase_5,2,5,63,98,1849299444
115,17,17,Jits_Phase_5,3,5,80,127,1849302660
115,17,17,Jits_Phase_5,0,1,48,37,1849726612
115,17,17,Jits_Phase_5,1,5,80,127,1849778596
115,17,17,Jits_Phase_5,2,5,56,103,1849809244
115,17,17,Jits_Phase_5,3,5,63,98,1849812384
115,17,17,Jits_Phase_5,0,5,56,103,1850239512
115,17,17,Jits_Phase_5,1,1,48,28,1850255392
115,17,17,Jits_Phase_5,2,5,80,127,1850258796
115,17,17,Jits_Phase_5,3,5,63,98,1850298656
115,17,17,Jits_Phase_5,0,5,80,127,1850718532
115,17,17,Jits_Phase_5,1,5,63,98,1850738992
115,17,17,Jits_Phase_5,2,1,48,28,1850773368
115,17,17,Jits_Phase_5,3,5,56,103,1850798868
115,17,17,Jits_Phase_5,0,5,63,98,1851228556
115,17,17,Jits_Phase_5,1,5,56,103,1851238824
115,17,17,Jits_Phase_5,2,1,48,28,1851252356
115,17,17,Jits_Phase_5,3,5,80,127,1851288892
115,17,17,Jits_Phase_5,0,5,56,103,1851719012
115,17,17,Jits_Phase_5,1,5,63,98,1851738724
115,17,17,Jits_Phase_5,2,5,80,127,1851748696
115,17,17,Jits_Phase_5,3,1,48,43,1851761928
115,17,17,Jits_Phase_5,0,5,56,103,1852208656
115,17,17,Jits_Phase_5,1,5,63,98,1852211576
115,17,17,Jits_Phase_5,2,5,80,127,1852228892
115,17,17,Jits_Phase_5,3,1,48,32,1852269916
115,17,17,Jits_Phase_5,0,1,48,43,1852731292
115,17,17,Jits_Phase_5,1,5,63,98,1852749080
115,17,17,Jits_Phase_5,2,5,56,103,1852778976
115,17,17,Jits_Phase_5,3,5,80,127,1852808676
115,17,17,Jits_Phase_5,0,5,80,127,1853208904
115,17,17,Jits_Phase_5,1,1,48,40,1853257428
115,17,17,Jits_Phase_5,2,5,56,103,1853299028
115,17,17,Jits_Phase_5,3,5,63,98,1853302168
115,17,17,Jits_Phase_5,0,5,56,103,1853708660
115,17,17,Jits_Phase_5,1,5,80,127,1853711948
115,17,17,Jits_Phase_5,2,1,48,27,1853733952
115,17,17,Jits_Phase_5,3,5,63,98,1853788444
115,17,17,Jits_Phase_5,0,1,48,37,1854209004
115,17,17,Jits_Phase_5,1,5,80,127,1854210572
115,17,17,Jits_Phase_5,2,5,63,98,1854268644
115,17,17,Jits_Phase_5,3,5,56,103,1854298468
115,17,17,Jits_Phase_5,0,1,48,27,1854704224
115,17,17,Jits_Phase_5,1,5,63,98,1854719612
115,17,17,Jits_Phase_5,2,5,80,127,1854728540
115,17,17,Jits_Phase_5,3,5,56,103,1854799336
115,17,17,Jits_Phase_5,0,1,48,26,1855209224
115,17,17,Jits_Phase_5,1,5,56,103,1855278548
115,17,17,Jits_Phase_5,2,5,80,127,1855309184
115,17,17,Jits_Phase_5,3,5,63,98,1855359532
115,17,17,Jits_Phase_5,0,1,48,33,1855727696
115,17,17,Jits_Phase_5,1,5,63,98,1855869376
115,17,17,Jits_Phase_5,2,5,56,103,1855898996
115,17,17,Jits_Phase_5,3,5,80,127,1855902064
115,17,17,Jits_Phase_5,0,1,48,37,1856320260
115,17,17,Jits_Phase_5,1,5,63,98,1856368912
115,17,17,Jits_Phase_5,2,5,80,127,1856388644
115,17,17,Jits_Phase_5,3,5,56,103,1856398764
115,17,17,Jits_Phase_5,0,5,56,103,1856879000
115,17,17,Jits_Phase_5,1,5,63,98,1856881992
115,17,17,Jits_Phase_5,2,5,80,127,1856898412
115,17,17,Jits_Phase_5,3,1,48,38,1856911744
115,17,17,Jits_Phase_5,0,5,56,103,1857328488
115,17,17,Jits_Phase_5,1,5,63,98,1857338760
115,17,17,Jits_Phase_5,2,5,80,127,1857368580
115,17,17,Jits_Phase_5,3,1,48,33,1857459820
115,17,17,Jits_Phase_5,0,5,63,98,1857848632
115,17,17,Jits_Phase_5,1,5,80,127,1857869312
115,17,17,Jits_Phase_5,2,1,48,33,1857903744
115,17,17,Jits_Phase_5,3,5,56,103,1857909092
115,17,17,Jits_Phase_5,0,5,56,103,1858379020
115,17,17,Jits_Phase_5,1,5,63,98,1858419032
115,17,17,Jits_Phase_5,2,5,80,127,1858422544
115,17,17,Jits_Phase_5,0,5,80,127,1858818656
115,17,17,Jits_Phase_5,1,5,56,103,1858859344
115,17,17,Jits_Phase_5,2,1,48,38,1858899844
115,17,17,Jits_Phase_5,3,5,63,98,1858908416
115,17,17,Jits_Phase_5,0,5,56,103,1859378508
115,17,17,Jits_Phase_5,1,1,48,41,1859384016
115,17,17,Jits_Phase_5,2,5,80,127,1859388844
115,17,17,Jits_Phase_5,3,5,63,98,1859418444
115,17,17,Jits_Phase_5,0,5,56,103,1859828980
115,17,17,Jits_Phase_5,1,5,80,127,1859868992
115,17,17,Jits_Phase_5,2,1,48,43,1859890836
115,17,17,Jits_Phase_5,3,5,63,98,1859919480
115,17,17,Jits_Phase_5,0,5,56,103,1860328820
115,17,17,Jits_Phase_5,1,5,80,127,1860368832
115,17,17,Jits_Phase_5,2,1,48,32,1860370244
115,17,17,Jits_Phase_5,3,5,63,98,1860418948
115,17,17,Jits_Phase_5,0,5,80,127,1860819368
115,17,17,Jits_Phase_5,1,1,48,32,1860883388
115,17,17,Jits_Phase_5,2,5,63,98,1860899452
115,17,17,Jits_Phase_5,3,5,56,103,1860909572
115,17,17,Jits_Phase_5,0,1,48,35,1861343592
115,17,17,Jits_Phase_5,1,5,80,127,1861369320
115,17,17,Jits_Phase_5,2,5,56,103,1861378544
115,17,17,Jits_Phase_5,3,5,63,98,1861398928
115,17,17,Jits_Phase_5,0,5,63,98,1861839560
115,17,17,Jits_Phase_5,1,1,48,43,1861861788
115,17,17,Jits_Phase_5,2,5,56,103,1861908932
115,17,17,Jits_Phase_5,3,5,80,127,1861912148
115,17,17,Jits_Phase_5,0,5,80,127,1862328812
115,17,17,Jits_Phase_5,1,1,48,33,1862373884
115,17,17,Jits_Phase_5,2,5,63,98,1862378860
115,17,17,Jits_Phase_5,3,5,56,103,1862418872
115,17,17,Jits_Phase_5,0,5,63,98,1862869336
115,17,17,Jits_Phase_5,1,1,48,31,1862889388
115,17,17,Jits_Phase_5,2,5,56,103,1862909640
115,17,17,Jits_Phase_5,3,5,80,127,1862918416
115,17,17,Jits_Phase_5,0,5,63,98,1863358828
115,17,17,Jits_Phase_5,1,5,56,103,1863379360
115,17,17,Jits_Phase_5,2,5,80,127,1863398700
115,17,17,Jits_Phase_5,3,1,48,30,1863401744
115,17,17,Jits_Phase_5,0,5,80,127,1863818572
115,17,17,Jits_Phase_5,1,5,56,103,1863828768
115,17,17,Jits_Phase_5,2,5,63,98,1863849448
115,17,17,Jits_Phase_5,3,1,48,32,1863870924
115,17,17,Jits_Phase_5,0,1,48,27,1864310108
115,17,17,Jits_Phase_5,1,5,63,98,1864349336
115,17,17,Jits_Phase_5,2,5,56,103,1864388904
115,17,17,Jits_Phase_5,3,5,80,127,1864418560
115,17,17,Jits_Phase_5,0,5,56,103,1864808692
115,17,17,Jits_Phase_5,1,1,48,41,1864825216
115,17,17,Jits_Phase_5,2,5,63,98,1864838460
115,17,17,Jits_Phase_5,3,5,80,127,1864869404
115,17,17,Jits_Phase_5,0,5,80,127,1865228600
115,17,17,Jits_Phase_5,1,5,56,103,1865299472
115,17,17,Jits_Phase_5,2,5,63,98,1865302468
115,17,17,Jits_Phase_5,3,1,48,43,1865319456
115,17,17,Jits_Phase_5,0,5,56,103,1865738548
115,17,17,Jits_Phase_5,1,5,63,98,1865788672
115,17,17,Jits_Phase_5,2,1,48,34,1865807676
115,17,17,Jits_Phase_5,3,5,80,127,1865818564
115,17,17,Jits_Phase_5,0,5,63,98,1866218904
115,17,17,Jits_Phase_5,1,5,80,127,1866222268
115,17,17,Jits_Phase_5,2,5,56,103,1866279216
115,17,17,Jits_Phase_5,3,1,48,42,1866309908
115,17,17,Jits_Phase_5,0,1,48,32,1866733212
115,17,17,Jits_Phase_5,1,5,56,103,1866749352
115,17,17,Jits_Phase_5,2,5,80,127,1866758576
115,17,17,Jits_Phase_5,3,5,63,98,1866808552
115,17,17,Jits_Phase_5,0,5,63,98,1867219212
115,17,17,Jits_Phase_5,1,5,56,103,1867228436
115,17,17,Jits_Phase_5,2,1,48,39,1867236732
115,17,17,Jits_Phase_5,3,5,80,127,1867259372
115,17,17,Jits_Phase_5,0,1,48,26,1867702292
115,17,17,Jits_Phase_5,1,5,63,98,1867748840
115,17,17,Jits_Phase_5,2,5,80,127,1867752352
115,17,17,Jits_Phase_5,3,5,56,103,1867778516
115,17,17,Jits_Phase_5,0,1,48,38,1868215208
115,17,17,Jits_Phase_5,1,5,63,98,1868269112
115,17,17,Jits_Phase_5,2,5,56,103,1868289344
115,17,17,Jits_Phase_5,3,5,80,127,1868292412
115,17,17,Jits_Phase_5,0,1,48,43,1868710536
115,17,17,Jits_Phase_5,1,5,63,98,1868728620
115,17,17,Jits_Phase_5,2,5,56,103,1868799424
115,17,17,Jits_Phase_5,3,5,80,127,1868818672
115,17,17,Jits_Phase_5,0,5,56,103,1869219236
115,17,17,Jits_Phase_5,1,5,63,98,1869229360
115,17,17,Jits_Phase_5,2,1,48,38,1869230324
115,17,17,Jits_Phase_5,3,5,80,127,1869318508
115,17,17,Jits_Phase_5,0,1,48,26,1869720616
115,17,17,Jits_Phase_5,1,5,56,103,1869739444
115,17,17,Jits_Phase_5,2,5,80,127,1869779380
115,17,17,Jits_Phase_5,3,5,63,98,1869788532
115,17,17,Jits_Phase_5,0,1,48,38,1870180408
115,17,17,Jits_Phase_5,1,5,56,103,1870258524
115,17,17,Jits_Phase_5,2,5,63,98,1870289452
115,17,17,Jits_Phase_5,3,5,80,127,1870319128
115,17,17,Jits_Phase_5,0,1,48,41,1870711768
115,17,17,Jits_Phase_5,1,5,80,127,1870719364
115,17,17,Jits_Phase_5,2,5,63,98,1870759252
115,17,17,Jits_Phase_5,3,5,56,103,1870778812
115,17,17,Jits_Phase_5,0,1,48,35,1871199460
115,17,17,Jits_Phase_5,1,5,56,103,1871258996
115,17,17,Jits_Phase_5,2,5,80,127,1871278408
115,17,17,Jits_Phase_5,3,5,63,98,1871298924
115,17,17,Jits_Phase_5,0,1,48,45,1871710968
115,17,17,Jits_Phase_5,1,5,63,98,1871729276
115,17,17,Jits_Phase_5,2,5,56,103,1871739396
115,17,17,Jits_Phase_5,3,5,80,127,1871798688
115,17,17,Jits_Phase_5,0,1,48,43,1872211540
115,17,17,Jits_Phase_5,1,5,56,103,1872228652
115,17,17,Jits_Phase_5,2,5,63,98,1872299404
115,17,17,Jits_Phase_5,3,5,80,127,1872318728
115,17,17,Jits_Phase_5,0,5,56,103,1872728408
115,17,17,Jits_Phase_5,1,1,48,36,1872738500
115,17,17,Jits_Phase_5,2,5,63,98,1872759200
115,17,17,Jits_Phase_5,3,5,80,127,1872799308
115,17,17,Jits_Phase_5,0,5,63,98,1873219024
115,17,17,Jits_Phase_5,1,1,48,30,1873230164
115,17,17,Jits_Phase_5,2,5,56,103,1873269144
115,17,17,Jits_Phase_5,3,5,80,127,1873279488
115,17,17,Jits_Phase_5,0,1,48,39,1873712520
115,17,17,Jits_Phase_5,1,5,56,103,1873758548
115,17,17,Jits_Phase_5,2,5,63,98,1873808612
115,17,17,Jits_Phase_5,3,5,80,127,1873818956
115,17,17,Jits_Phase_5,0,5,56,103,1874228716
115,17,17,Jits_Phase_5,1,5,63,98,1874238764
115,17,17,Jits_Phase_5,2,1,48,41,1874252664
115,17,17,Jits_Phase_5,3,5,80,127,1874318644
115,17,17,Jits_Phase_5,0,9999,9999,9999,1789986880
115,17,17,Jits_Phase_5,1,9999,9999,9999,1790486588
115,17,17,Jits_Phase_5,2,9999,9999,9999,1790986320
115,17,17,Jits_Phase_5,3,9999,9999,9999,1791487092
115,17,17,Jits_Phase_5,4,9999,9999,9999,1791986784
115,17,17,Jits_Phase_5,5,9999,9999,9999,1792486468
115,17,17,Jits_Phase_5,6,9999,9999,9999,1792986216
115,17,17,Jits_Phase_5,7,9999,9999,9999,1793486952
115,17,17,Jits_Phase_5,8,9999,9999,9999,1793986644
115,17,17,Jits_Phase_5,9,9999,9999,9999,1794486332
115,17,17,Jits_Phase_5,10,9999,9999,9999,1794987068
115,17,17,Jits_Phase_5,11,9999,9999,9999,1795497020
115,17,17,Jits_Phase_5,12,9999,9999,9999,1795996768
115,17,17,Jits_Phase_5,13,9999,9999,9999,1796496440
115,17,17,Jits_Phase_5,14,9999,9999,9999,1796996164
115,17,17,Jits_Phase_5,15,9999,9999,9999,1797496892
115,17,17,Jits_Phase_5,16,9999,9999,9999,1797996644
115,17,17,Jits_Phase_5,17,9999,9999,9999,1798496316
115,17,17,Jits_Phase_5,18,9999,9999,9999,1798997108
115,17,17,Jits_Phase_5,19,9999,9999,9999,1799496800
115,17,17,Jits_Phase_5,20,9999,9999,9999,1799996472
115,17,17,Jits_Phase_5,21,9999,9999,9999,1800496236
115,17,17,Jits_Phase_5,22,9999,9999,9999,1800996972
115,17,17,Jits_Phase_5,23,9999,9999,9999,1801496660
115,17,17,Jits_Phase_5,24,9999,9999,9999,1801996356
115,17,17,Jits_Phase_5,25,9999,9999,9999,1802496112
115,17,17,Jits_Phase_5,26,9999,9999,9999,1802996848
115,17,17,Jits_Phase_5,27,9999,9999,9999,1803496512
115,17,17,Jits_Phase_5,28,9999,9999,9999,1803996280
115,17,17,Jits_Phase_5,29,9999,9999,9999,1804497012
115,17,17,Jits_Phase_5,30,9999,9999,9999,1804986440
115,17,17,Jits_Phase_5,31,9999,9999,9999,1805486204
115,17,17,Jits_Phase_5,32,9999,9999,9999,1805986940
115,17,17,Jits_Phase_5,33,9999,9999,9999,1806486628
115,17,17,Jits_Phase_5,34,9999,9999,9999,1806986316
115,17,17,Jits_Phase_5,35,9999,9999,9999,1807487032
115,17,17,Jits_Phase_5,36,9999,9999,9999,1807986764
115,17,17,Jits_Phase_5,37,9999,9999,9999,1808486516
115,17,17,Jits_Phase_5,38,9999,9999,9999,1808986204
115,17,17,Jits_Phase_5,39,9999,9999,9999,1809486928
115,17,17,Jits_Phase_5,40,9999,9999,9999,1809986680
115,17,17,Jits_Phase_5,41,9999,9999,9999,1810486364
115,17,17,Jits_Phase_5,42,9999,9999,9999,1810987100
115,17,17,Jits_Phase_5,43,9999,9999,9999,1811497032
115,17,17,Jits_Phase_5,44,9999,9999,9999,1811996776
115,17,17,Jits_Phase_5,45,9999,9999,9999,1812496464
115,17,17,Jits_Phase_5,46,9999,9999,9999,1812996212
115,17,17,Jits_Phase_5,47,9999,9999,9999,1813496940
115,17,17,Jits_Phase_5,48,9999,9999,9999,1814006880
115,17,17,Jits_Phase_5,49,9999,9999,9999,1814506580
115,17,17,Jits_Phase_5,50,9999,9999,9999,1815006316
115,17,17,Jits_Phase_5,51,9999,9999,9999,1815507056
115,17,17,Jits_Phase_5,52,9999,9999,9999,1816006744
115,17,17,Jits_Phase_5,53,9999,9999,9999,1816506436
115,17,17,Jits_Phase_5,54,9999,9999,9999,1817006188
115,17,17,Jits_Phase_5,55,9999,9999,9999,1817506924
115,17,17,Jits_Phase_5,56,9999,9999,9999,1818006600
115,17,17,Jits_Phase_5,57,9999,9999,9999,1818506340
115,17,17,Jits_Phase_5,58,9999,9999,9999,1819007040
115,17,17,Jits_Phase_5,59,9999,9999,9999,1819506768
115,17,17,Jits_Phase_5,60,9999,9999,9999,1820006464
115,17,17,Jits_Phase_5,61,9999,9999,9999,1820506208
115,17,17,Jits_Phase_5,62,9999,9999,9999,1821006944
115,17,17,Jits_Phase_5,63,9999,9999,9999,1821506620
115,17,17,Jits_Phase_5,64,9999,9999,9999,1822026820
115,17,17,Jits_Phase_5,65,9999,9999,9999,1822526568
115,17,17,Jits_Phase_5,66,9999,9999,9999,1823026244
115,17,17,Jits_Phase_5,67,9999,9999,9999,1823527032
115,17,17,Jits_Phase_5,68,9999,9999,9999,1824026712
115,17,17,Jits_Phase_5,69,9999,9999,9999,1824526392
115,17,17,Jits_Phase_5,70,9999,9999,9999,1825026132
115,17,17,Jits_Phase_5,71,9999,9999,9999,1825526868
115,17,17,Jits_Phase_5,72,9999,9999,9999,1826026556
115,17,17,Jits_Phase_5,73,9999,9999,9999,1826526308
115,17,17,Jits_Phase_5,74,9999,9999,9999,1827027044
115,17,17,Jits_Phase_5,75,9999,9999,9999,1827526716
115,17,17,Jits_Phase_5,76,9999,9999,9999,1828026484
115,17,17,Jits_Phase_5,77,9999,9999,9999,1828526160
115,17,17,Jits_Phase_5,78,9999,9999,9999,1829026900
115,17,17,Jits_Phase_5,79,9999,9999,9999,1829526588
115,17,17,Jits_Phase_5,80,9999,9999,9999,1830026340
115,17,17,Jits_Phase_5,81,9999,9999,9999,1830506588
115,17,17,Jits_Phase_5,82,9999,9999,9999,1831006276
115,17,17,Jits_Phase_5,83,9999,9999,9999,1831507000
115,17,17,Jits_Phase_5,84,9999,9999,9999,1832006768
115,17,17,Jits_Phase_5,85,9999,9999,9999,1832506440
115,17,17,Jits_Phase_5,86,9999,9999,9999,1833006188
115,17,17,Jits_Phase_5,87,9999,9999,9999,1833506928
115,17,17,Jits_Phase_5,88,9999,9999,9999,1834006616
115,17,17,Jits_Phase_5,89,9999,9999,9999,1834506304
115,17,17,Jits_Phase_5,90,9999,9999,9999,1835007100
115,17,17,Jits_Phase_5,91,9999,9999,9999,1835506772
115,17,17,Jits_Phase_5,92,9999,9999,9999,1836006524
115,17,17,Jits_Phase_5,93,9999,9999,9999,1836506200
115,17,17,Jits_Phase_5,94,9999,9999,9999,1837006920
115,17,17,Jits_Phase_5,95,9999,9999,9999,1837506684
115,17,17,Jits_Phase_5,96,9999,9999,9999,1838006372
115,17,17,Jits_Phase_5,97,9999,9999,9999,1838456948
115,17,17,Jits_Phase_5,98,9999,9999,9999,1838956600
115,17,17,Jits_Phase_5,99,9999,9999,9999,1839456360
115,17,17,Jits_Phase_5,100,9999,9999,9999,1839957080
115,17,17,Jits_Phase_5,101,9999,9999,9999,1840456776
115,17,17,Jits_Phase_5,102,9999,9999,9999,1840956528
115,17,17,Jits_Phase_5,103,9999,9999,9999,1841456204
115,17,17,Jits_Phase_5,104,9999,9999,9999,1841956928
115,17,17,Jits_Phase_5,105,9999,9999,9999,1842456668
115,17,17,Jits_Phase_5,106,9999,9999,9999,1842956348
115,17,17,Jits_Phase_5,107,9999,9999,9999,1843456096
115,17,17,Jits_Phase_5,108,9999,9999,9999,1843956828
115,17,17,Jits_Phase_5,109,9999,9999,9999,1844456504
115,17,17,Jits_Phase_5,110,9999,9999,9999,1844956272
115,17,17,Jits_Phase_5,111,9999,9999,9999,1845457008
115,17,17,Jits_Phase_5,112,9999,9999,9999,1845956692
115,17,17,Jits_Phase_5,113,9999,9999,9999,1846456380
115,17,17,Jits_Phase_5,114,9999,9999,9999,1847006320
115,17,17,Jits_Phase_5,115,9999,9999,9999,1847507032
115,17,17,Jits_Phase_5,116,9999,9999,9999,1848006780
115,17,17,Jits_Phase_5,117,9999,9999,9999,1848506468
115,17,17,Jits_Phase_5,118,9999,9999,9999,1849006156
115,17,17,Jits_Phase_5,119,9999,9999,9999,1849506920
115,17,17,Jits_Phase_5,120,9999,9999,9999,1850006608
115,17,17,Jits_Phase_5,121,9999,9999,9999,1850506360
115,17,17,Jits_Phase_5,122,9999,9999,9999,1851007072
115,17,17,Jits_Phase_5,123,9999,9999,9999,1851506756
115,17,17,Jits_Phase_5,124,9999,9999,9999,1852006500
115,17,17,Jits_Phase_5,125,9999,9999,9999,1852506176
115,17,17,Jits_Phase_5,126,9999,9999,9999,1853006916
115,17,17,Jits_Phase_5,127,9999,9999,9999,1853506652
115,17,17,Jits_Phase_5,128,9999,9999,9999,1854006332
115,17,17,Jits_Phase_5,129,9999,9999,9999,1854507068
115,17,17,Jits_Phase_5,130,9999,9999,9999,1855017076
115,17,17,Jits_Phase_5,131,9999,9999,9999,1855616092
115,17,17,Jits_Phase_5,132,9999,9999,9999,1856116804
115,17,17,Jits_Phase_5,133,9999,9999,9999,1856616552
115,17,17,Jits_Phase_5,134,9999,9999,9999,1857116220
115,17,17,Jits_Phase_5,135,9999,9999,9999,1857616952
115,17,17,Jits_Phase_5,136,9999,9999,9999,1858116716
115,17,17,Jits_Phase_5,137,9999,9999,9999,1858616412
115,17,17,Jits_Phase_5,138,9999,9999,9999,1859116116
115,17,17,Jits_Phase_5,139,9999,9999,9999,1859616856
115,17,17,Jits_Phase_5,140,9999,9999,9999,1860116548
115,17,17,Jits_Phase_5,141,9999,9999,9999,1860616312
115,17,17,Jits_Phase_5,142,9999,9999,9999,1861117048
115,17,17,Jits_Phase_5,143,9999,9999,9999,1861616740
115,17,17,Jits_Phase_5,144,9999,9999,9999,1862116408
115,17,17,Jits_Phase_5,145,9999,9999,9999,1862616160
115,17,17,Jits_Phase_5,146,9999,9999,9999,1863116900
115,17,17,Jits_Phase_5,147,9999,9999,9999,1863616580
115,17,17,Jits_Phase_5,148,9999,9999,9999,1864116324
115,17,17,Jits_Phase_5,149,9999,9999,9999,1864617060
115,17,17,Jits_Phase_5,150,9999,9999,9999,1865016404
115,17,17,Jits_Phase_5,151,9999,9999,9999,1865516088
115,17,17,Jits_Phase_5,152,9999,9999,9999,1866016824
115,17,17,Jits_Phase_5,153,9999,9999,9999,1866516576
115,17,17,Jits_Phase_5,154,9999,9999,9999,1867016252
115,17,17,Jits_Phase_5,155,9999,9999,9999,1867517040
115,17,17,Jits_Phase_5,156,9999,9999,9999,1868016704
115,17,17,Jits_Phase_5,157,9999,9999,9999,1868516448
115,17,17,Jits_Phase_5,158,9999,9999,9999,1869016124
115,17,17,Jits_Phase_5,159,9999,9999,9999,1869516920
115,17,17,Jits_Phase_5,160,9999,9999,9999,1870016608
115,17,17,Jits_Phase_5,161,9999,9999,9999,1870516284
115,17,17,Jits_Phase_5,162,9999,9999,9999,1871017076
115,17,17,Jits_Phase_5,163,9999,9999,9999,1871516752
115,17,17,Jits_Phase_5,164,9999,9999,9999,1872016504
115,17,17,Jits_Phase_5,165,9999,9999,9999,1872516180
115,17,17,Jits_Phase_5,166,9999,9999,9999,1873016952
115,17,17,Jits_Phase_5,167,9999,9999,9999,1873516632
115,17,17,Jits_Phase_5,168,9999,9999,9999,1874016312
115,17,17,Jits_Phase_5,169,9999,9999,9999,1874517108
115,18,18,Jits_Linear_8,0,5,56,103,1883902464
115,18,18,Jits_Linear_8,1,5,63,98,1883905492
115,18,18,Jits_Linear_8,2,5,80,127,1883908612
115,18,18,Jits_Linear_8,0,5,56,103,1884721432
115,18,18,Jits_Linear_8,1,5,63,98,1884724528
115,18,18,Jits_Linear_8,2,5,80,127,1884727876
115,18,18,Jits_Linear_8,0,5,80,127,1885482344
115,18,18,Jits_Linear_8,1,1,48,37,1885556864
115,18,18,Jits_Linear_8,2,5,63,98,1885571528
115,18,18,Jits_Linear_8,3,5,56,103,1885581648
115,18,18,Jits_Linear_8,0,5,56,103,1886321900
115,18,18,Jits_Linear_8,1,1,48,37,1886322864
115,18,18,Jits_Linear_8,2,5,63,98,1886332240
115,18,18,Jits_Linear_8,3,5,80,127,1886422304
115,18,18,Jits_Linear_8,0,5,63,98,1887111504
115,18,18,Jits_Linear_8,1,1,48,42,1887132684
115,18,18,Jits_Linear_8,2,5,80,127,1887142220
115,18,18,Jits_Linear_8,3,5,56,103,1887172044
115,18,18,Jits_Linear_8,0,1,48,58,1887897276
115,18,18,Jits_Linear_8,1,5,56,103,1887931924
115,18,18,Jits_Linear_8,2,5,80,127,1888032084
115,18,18,Jits_Linear_8,3,5,63,98,1888082212
115,18,18,Jits_Linear_8,0,5,56,103,1888741948
115,18,18,Jits_Linear_8,1,5,80,127,1888791932
115,18,18,Jits_Linear_8,2,1,48,31,1888808752
115,18,18,Jits_Linear_8,3,5,63,98,1888832088
115,18,18,Jits_Linear_8,0,1,48,32,1889562512
115,18,18,Jits_Linear_8,1,5,80,127,1889581348
115,18,18,Jits_Linear_8,2,5,63,98,1889612144
115,18,18,Jits_Linear_8,3,5,56,103,1889681908
115,18,18,Jits_Linear_8,0,1,48,21,1890392316
115,18,18,Jits_Linear_8,1,5,63,98,1890422232
115,18,18,Jits_Linear_8,2,5,56,103,1890452008
115,18,18,Jits_Linear_8,3,5,80,127,1890512384
115,18,18,Jits_Linear_8,0,5,56,103,1891171796
115,18,18,Jits_Linear_8,1,5,80,127,1891175012
115,18,18,Jits_Linear_8,2,1,48,32,1891208424
115,18,18,Jits_Linear_8,3,5,63,98,1891291540
115,18,18,Jits_Linear_8,0,1,48,35,1892010960
115,18,18,Jits_Linear_8,1,5,56,103,1892052268
115,18,18,Jits_Linear_8,2,5,80,127,1892092136
115,18,18,Jits_Linear_8,3,5,63,98,1892101436
115,18,18,Jits_Linear_8,0,5,56,103,1892812176
115,18,18,Jits_Linear_8,1,5,80,127,1892831592
115,18,18,Jits_Linear_8,2,1,48,37,1892875612
115,18,18,Jits_Linear_8,3,5,63,98,1892911380
115,18,18,Jits_Linear_8,0,5,80,127,1893601900
115,18,18,Jits_Linear_8,1,1,48,32,1893678808
115,18,18,Jits_Linear_8,2,5,56,103,1893701924
115,18,18,Jits_Linear_8,3,5,63,98,1893712120
115,18,18,Jits_Linear_8,0,5,63,98,1894371704
115,18,18,Jits_Linear_8,1,1,48,27,1894390488
115,18,18,Jits_Linear_8,2,5,80,127,1894432016
115,18,18,Jits_Linear_8,3,5,56,103,1894442288
115,18,18,Jits_Linear_8,0,1,48,38,1895114476
115,18,18,Jits_Linear_8,1,5,56,103,1895171376
115,18,18,Jits_Linear_8,2,5,63,98,1895242088
115,18,18,Jits_Linear_8,3,5,80,127,1895245832
115,18,18,Jits_Linear_8,0,1,48,38,1895921344
115,18,18,Jits_Linear_8,1,5,63,98,1896001984
115,18,18,Jits_Linear_8,2,5,56,103,1896052096
115,18,18,Jits_Linear_8,3,5,80,127,1896055312
115,18,18,Jits_Linear_8,0,5,56,103,1896751460
115,18,18,Jits_Linear_8,1,5,80,127,1896754528
115,18,18,Jits_Linear_8,2,1,48,39,1896758092
115,18,18,Jits_Linear_8,3,5,63,98,1896841760
115,18,18,Jits_Linear_8,0,1,48,38,1897548180
115,18,18,Jits_Linear_8,1,5,63,98,1897581856
115,18,18,Jits_Linear_8,2,5,56,103,1897672152
115,18,18,Jits_Linear_8,3,5,80,127,1897701752
115,18,18,Jits_Linear_8,0,5,56,103,1898362292
115,18,18,Jits_Linear_8,1,1,48,36,1898384992
115,18,18,Jits_Linear_8,2,5,63,98,1898461588
115,18,18,Jits_Linear_8,3,5,80,127,1898492296
115,18,18,Jits_Linear_8,0,5,63,98,1899172356
115,18,18,Jits_Linear_8,1,5,56,103,1899181504
115,18,18,Jits_Linear_8,2,1,48,42,1899221932
115,18,18,Jits_Linear_8,3,5,80,127,1899271704
115,18,18,Jits_Linear_8,0,1,48,46,1899947052
115,18,18,Jits_Linear_8,1,5,63,98,1899971884
115,18,18,Jits_Linear_8,2,5,56,103,1900051888
115,18,18,Jits_Linear_8,3,5,80,127,1900054956
115,18,18,Jits_Linear_8,0,5,80,127,1900712304
115,18,18,Jits_Linear_8,1,1,48,43,1900731568
115,18,18,Jits_Linear_8,2,5,63,98,1900732904
115,18,18,Jits_Linear_8,3,5,56,103,1900792248
115,18,18,Jits_Linear_8,0,5,56,103,1901531624
115,18,18,Jits_Linear_8,1,1,48,43,1901540292
115,18,18,Jits_Linear_8,2,5,63,98,1901551928
115,18,18,Jits_Linear_8,3,5,80,127,1901555140
115,18,18,Jits_Linear_8,0,5,63,98,1902252416
115,18,18,Jits_Linear_8,1,1,48,42,1902281236
115,18,18,Jits_Linear_8,2,5,80,127,1902332280
115,18,18,Jits_Linear_8,3,5,56,103,1902341652
115,18,18,Jits_Linear_8,0,1,48,34,1903020744
115,18,18,Jits_Linear_8,1,5,63,98,1903052088
115,18,18,Jits_Linear_8,2,5,56,103,1903071576
115,18,18,Jits_Linear_8,3,5,80,127,1903121984
115,18,18,Jits_Linear_8,0,1,48,36,1903764152
115,18,18,Jits_Linear_8,1,5,80,127,1903832512
115,18,18,Jits_Linear_8,2,5,63,98,1903872292
115,18,18,Jits_Linear_8,3,5,56,103,1903892000
115,18,18,Jits_Linear_8,0,1,48,41,1904557684
115,18,18,Jits_Linear_8,1,5,56,103,1904642608
115,18,18,Jits_Linear_8,2,5,63,98,1904651756
115,18,18,Jits_Linear_8,3,5,80,127,1904672052
115,18,18,Jits_Linear_8,0,5,56,103,1905341752
115,18,18,Jits_Linear_8,1,1,48,27,1905349976
115,18,18,Jits_Linear_8,2,5,63,98,1905431884
115,18,18,Jits_Linear_8,3,5,80,127,1905492556
115,18,18,Jits_Linear_8,0,5,80,127,1906141672
115,18,18,Jits_Linear_8,1,5,56,103,1906151720
115,18,18,Jits_Linear_8,2,1,48,42,1906172376
115,18,18,Jits_Linear_8,3,5,63,98,1906221544
115,18,18,Jits_Linear_8,0,1,48,44,1906905148
115,18,18,Jits_Linear_8,1,5,63,98,1906942264
115,18,18,Jits_Linear_8,2,5,80,127,1907032384
115,18,18,Jits_Linear_8,3,5,56,103,1907041608
115,18,18,Jits_Linear_8,0,5,63,98,1907641636
115,18,18,Jits_Linear_8,1,5,80,127,1907691764
115,18,18,Jits_Linear_8,2,1,48,47,1907739152
115,18,18,Jits_Linear_8,3,5,56,103,1907752300
115,18,18,Jits_Linear_8,0,5,56,103,1908432324
115,18,18,Jits_Linear_8,1,1,48,36,1908436412
115,18,18,Jits_Linear_8,2,5,80,127,1908482596
115,18,18,Jits_Linear_8,3,5,63,98,1908501856
115,18,18,Jits_Linear_8,0,5,56,103,1909162332
115,18,18,Jits_Linear_8,1,1,48,41,1909191152
115,18,18,Jits_Linear_8,2,5,80,127,1909221668
115,18,18,Jits_Linear_8,3,5,63,98,1909292528
115,18,18,Jits_Linear_8,0,5,56,103,1909922092
115,18,18,Jits_Linear_8,1,1,48,38,1909944468
115,18,18,Jits_Linear_8,2,5,80,127,1909951836
115,18,18,Jits_Linear_8,3,5,63,98,1909981660
115,18,18,Jits_Linear_8,0,1,48,38,1910639516
115,18,18,Jits_Linear_8,1,5,56,103,1910721924
115,18,18,Jits_Linear_8,2,5,80,127,1910742368
115,18,18,Jits_Linear_8,3,5,63,98,1910801712
115,18,18,Jits_Linear_8,0,1,48,35,1911426044
115,18,18,Jits_Linear_8,1,5,80,127,1911561752
115,18,18,Jits_Linear_8,2,5,56,103,1911571800
115,18,18,Jits_Linear_8,3,5,63,98,1911581924
115,18,18,Jits_Linear_8,0,5,56,103,1912272232
115,18,18,Jits_Linear_8,1,1,48,43,1912287560
115,18,18,Jits_Linear_8,2,5,80,127,1912312316
115,18,18,Jits_Linear_8,3,5,63,98,1912341768
115,18,18,Jits_Linear_8,0,5,56,103,1912992144
115,18,18,Jits_Linear_8,1,5,63,98,1913021820
115,18,18,Jits_Linear_8,2,1,48,48,1913051468
115,18,18,Jits_Linear_8,3,5,80,127,1913061676
115,18,18,Jits_Linear_8,0,5,80,127,1913691792
115,18,18,Jits_Linear_8,1,5,63,98,1913741648
115,18,18,Jits_Linear_8,2,5,56,103,1913762108
115,18,18,Jits_Linear_8,3,1,48,39,1913773324
115,18,18,Jits_Linear_8,0,5,56,103,1914471856
115,18,18,Jits_Linear_8,1,1,48,41,1914483516
115,18,18,Jits_Linear_8,2,5,80,127,1914541560
115,18,18,Jits_Linear_8,3,5,63,98,1914601788
115,18,18,Jits_Linear_8,0,5,80,127,1915212068
115,18,18,Jits_Linear_8,1,1,48,45,1915272680
115,18,18,Jits_Linear_8,2,5,63,98,1915302300
115,18,18,Jits_Linear_8,3,5,56,103,1915321712
115,18,18,Jits_Linear_8,0,5,63,98,1915972064
115,18,18,Jits_Linear_8,1,5,56,103,1915992596
115,18,18,Jits_Linear_8,2,1,48,38,1916007396
115,18,18,Jits_Linear_8,3,5,80,127,1916032604
115,18,18,Jits_Linear_8,0,5,80,127,1916672372
115,18,18,Jits_Linear_8,1,5,63,98,1916691712
115,18,18,Jits_Linear_8,2,1,48,43,1916733036
115,18,18,Jits_Linear_8,3,5,56,103,1916771572
115,18,18,Jits_Linear_8,0,5,63,98,1917401416
115,18,18,Jits_Linear_8,1,1,48,41,1917448580
115,18,18,Jits_Linear_8,2,5,56,103,1917512144
115,18,18,Jits_Linear_8,3,5,80,127,1917515284
115,18,18,Jits_Linear_8,0,5,63,98,1918162576
115,18,18,Jits_Linear_8,1,1,48,43,1918166444
115,18,18,Jits_Linear_8,2,5,56,103,1918171568
115,18,18,Jits_Linear_8,3,5,80,127,1918174484
115,18,18,Jits_Linear_8,0,1,48,47,1918870952
115,18,18,Jits_Linear_8,1,5,56,103,1918882064
115,18,18,Jits_Linear_8,2,5,80,127,1919002004
115,18,18,Jits_Linear_8,3,5,63,98,1919041792
115,18,18,Jits_Linear_8,0,5,56,103,1919631860
115,18,18,Jits_Linear_8,1,1,48,43,1919683376
115,18,18,Jits_Linear_8,2,5,80,127,1919711724
115,18,18,Jits_Linear_8,3,5,63,98,1919731964
115,18,18,Jits_Linear_8,0,5,56,103,1920361784
115,18,18,Jits_Linear_8,1,1,48,45,1920418560
115,18,18,Jits_Linear_8,2,5,63,98,1920472612
115,18,18,Jits_Linear_8,3,5,80,127,1920475976
115,18,18,Jits_Linear_8,0,1,48,46,1921116780
115,18,18,Jits_Linear_8,1,5,56,103,1921121608
115,18,18,Jits_Linear_8,2,5,80,127,1921152404
115,18,18,Jits_Linear_8,3,5,63,98,1921171744
115,18,18,Jits_Linear_8,0,5,63,98,1921832336
115,18,18,Jits_Linear_8,1,5,56,103,1921841636
115,18,18,Jits_Linear_8,2,5,80,127,1921851904
115,18,18,Jits_Linear_8,3,1,48,35,1921898844
115,18,18,Jits_Linear_8,0,5,80,127,1922541884
115,18,18,Jits_Linear_8,1,1,48,39,1922562012
115,18,18,Jits_Linear_8,2,5,56,103,1922592004
115,18,18,Jits_Linear_8,3,5,63,98,1922632020
115,18,18,Jits_Linear_8,0,1,48,40,1923278600
115,18,18,Jits_Linear_8,1,5,80,127,1923282676
115,18,18,Jits_Linear_8,2,5,63,98,1923301724
115,18,18,Jits_Linear_8,3,5,56,103,1923351776
115,18,18,Jits_Linear_8,0,5,80,127,1924012392
115,18,18,Jits_Linear_8,1,1,48,30,1924015060
115,18,18,Jits_Linear_8,2,5,56,103,1924041988
115,18,18,Jits_Linear_8,3,5,63,98,1924111580
115,18,18,Jits_Linear_8,0,1,48,46,1924775124
115,18,18,Jits_Linear_8,1,5,56,103,1924781520
115,18,18,Jits_Linear_8,2,5,80,127,1924791864
115,18,18,Jits_Linear_8,3,5,63,98,1924831580
115,18,18,Jits_Linear_8,0,5,56,103,1925421456
115,18,18,Jits_Linear_8,1,5,63,98,1925441768
115,18,18,Jits_Linear_8,2,5,80,127,1925511472
115,18,18,Jits_Linear_8,3,1,48,41,1925530704
115,18,18,Jits_Linear_8,0,5,63,98,1926161736
115,18,18,Jits_Linear_8,1,1,48,41,1926191904
115,18,18,Jits_Linear_8,2,5,80,127,1926222272
115,18,18,Jits_Linear_8,3,5,56,103,1926241536
115,18,18,Jits_Linear_8,0,5,80,127,1926862372
115,18,18,Jits_Linear_8,1,1,48,50,1926890384
115,18,18,Jits_Linear_8,2,5,56,103,1926892040
115,18,18,Jits_Linear_8,3,5,63,98,1926921568
115,18,18,Jits_Linear_8,0,1,48,53,1927549684
115,18,18,Jits_Linear_8,1,5,56,103,1927571780
115,18,18,Jits_Linear_8,2,5,63,98,1927632320
115,18,18,Jits_Linear_8,3,5,80,127,1927691572
115,18,18,Jits_Linear_8,0,1,48,42,1928291996
115,18,18,Jits_Linear_8,1,5,80,127,1928302060
115,18,18,Jits_Linear_8,2,5,56,103,1928322472
115,18,18,Jits_Linear_8,3,5,63,98,1928392136
115,18,18,Jits_Linear_8,0,1,48,39,1928980048
115,18,18,Jits_Linear_8,1,5,80,127,1929011688
115,18,18,Jits_Linear_8,2,5,63,98,1929031924
115,18,18,Jits_Linear_8,3,5,56,103,1929061748
115,18,18,Jits_Linear_8,0,1,48,42,1929676696
115,18,18,Jits_Linear_8,1,5,80,127,1929701832
115,18,18,Jits_Linear_8,2,5,63,98,1929722216
115,18,18,Jits_Linear_8,3,5,56,103,1929781544
115,18,18,Jits_Linear_8,0,1,48,46,1930386624
115,18,18,Jits_Linear_8,1,5,80,127,1930402236
115,18,18,Jits_Linear_8,2,5,56,103,1930501356
115,18,18,Jits_Linear_8,3,5,63,98,1930532300
115,18,18,Jits_Linear_8,0,5,63,98,1931092296
115,18,18,Jits_Linear_8,1,1,48,49,1931132876
115,18,18,Jits_Linear_8,2,5,80,127,1931141396
115,18,18,Jits_Linear_8,3,5,56,103,1931161852
115,18,18,Jits_Linear_8,0,1,48,28,1931789208
115,18,18,Jits_Linear_8,1,5,80,127,1931831660
115,18,18,Jits_Linear_8,2,5,56,103,1931862384
115,18,18,Jits_Linear_8,3,5,63,98,1931865520
115,18,18,Jits_Linear_8,0,1,48,45,1932488644
115,18,18,Jits_Linear_8,1,5,63,98,1932561732
115,18,18,Jits_Linear_8,2,5,56,103,1932601660
115,18,18,Jits_Linear_8,3,5,80,127,1932622416
115,18,18,Jits_Linear_8,0,5,80,127,1933201696
115,18,18,Jits_Linear_8,1,1,48,37,1933213956
115,18,18,Jits_Linear_8,2,5,63,98,1933281712
115,18,18,Jits_Linear_8,3,5,56,103,1933321560
115,18,18,Jits_Linear_8,0,5,63,98,1933912440
115,18,18,Jits_Linear_8,1,1,48,40,1933926344
115,18,18,Jits_Linear_8,2,5,80,127,1933992404
115,18,18,Jits_Linear_8,3,5,56,103,1934011668
115,18,18,Jits_Linear_8,0,5,56,103,1934641480
115,18,18,Jits_Linear_8,1,1,48,47,1934650620
115,18,18,Jits_Linear_8,2,5,63,98,1934652264
115,18,18,Jits_Linear_8,3,5,80,127,1934691756
115,18,18,Jits_Linear_8,0,5,56,103,1935251768
115,18,18,Jits_Linear_8,1,5,80,127,1935254760
115,18,18,Jits_Linear_8,2,1,48,46,1935366812
115,18,18,Jits_Linear_8,3,5,63,98,1935392240
115,18,18,Jits_Linear_8,0,5,56,103,1935931708
115,18,18,Jits_Linear_8,1,5,63,98,1936021872
115,18,18,Jits_Linear_8,2,1,48,28,1936025436
115,18,18,Jits_Linear_8,3,5,80,127,1936091472
115,18,18,Jits_Linear_8,0,1,48,38,1936642376
115,18,18,Jits_Linear_8,1,5,63,98,1936691548
115,18,18,Jits_Linear_8,2,5,80,127,1936695208
115,18,18,Jits_Linear_8,3,5,56,103,1936752144
115,18,18,Jits_Linear_8,0,1,48,34,1937351396
115,18,18,Jits_Linear_8,1,5,80,127,1937411436
115,18,18,Jits_Linear_8,2,5,56,103,1937432116
115,18,18,Jits_Linear_8,3,5,63,98,1937442388
115,18,18,Jits_Linear_8,0,5,56,103,1938002228
115,18,18,Jits_Linear_8,1,5,63,98,1938011452
115,18,18,Jits_Linear_8,2,1,48,22,1938081448
115,18,18,Jits_Linear_8,3,5,80,127,1938083020
115,18,18,Jits_Linear_8,0,1,48,37,1938672948
115,18,18,Jits_Linear_8,1,5,80,127,1938691556
115,18,18,Jits_Linear_8,2,5,56,103,1938741536
115,18,18,Jits_Linear_8,3,5,63,98,1938791868
115,18,18,Jits_Linear_8,0,1,48,35,1939384600
115,18,18,Jits_Linear_8,1,5,56,103,1939452356
115,18,18,Jits_Linear_8,2,5,63,98,1939461356
115,18,18,Jits_Linear_8,3,5,80,127,1939501280
115,18,18,Jits_Linear_8,0,5,56,103,1940072288
115,18,18,Jits_Linear_8,1,5,63,98,1940111808
115,18,18,Jits_Linear_8,2,1,48,31,1940136500
115,18,18,Jits_Linear_8,3,5,80,127,1940162076
115,18,18,Jits_Linear_8,0,5,80,127,1940701544
115,18,18,Jits_Linear_8,1,5,56,103,1940751672
115,18,18,Jits_Linear_8,2,5,63,98,1940772208
115,18,18,Jits_Linear_8,3,1,48,45,1940794504
115,18,18,Jits_Linear_8,0,5,80,127,1941381516
115,18,18,Jits_Linear_8,1,5,63,98,1941442056
115,18,18,Jits_Linear_8,2,1,48,32,1941449436
115,18,18,Jits_Linear_8,3,5,56,103,1941521920
115,18,18,Jits_Linear_8,0,5,80,127,1942031796
115,18,18,Jits_Linear_8,1,5,56,103,1942071664
115,18,18,Jits_Linear_8,2,5,63,98,1942092124
115,18,18,Jits_Linear_8,3,1,48,38,1942118308
115,18,18,Jits_Linear_8,0,1,48,32,1942743944
115,18,18,Jits_Linear_8,1,5,56,103,1942751468
115,18,18,Jits_Linear_8,2,5,80,127,1942762112
115,18,18,Jits_Linear_8,3,5,63,98,1942801900
115,18,18,Jits_Linear_8,0,1,48,33,1943391300
115,18,18,Jits_Linear_8,1,5,56,103,1943481852
115,18,18,Jits_Linear_8,2,5,63,98,1943521628
115,18,18,Jits_Linear_8,3,5,80,127,1943525212
115,18,18,Jits_Linear_8,0,5,63,98,1944031580
115,18,18,Jits_Linear_8,1,5,80,127,1944071592
115,18,18,Jits_Linear_8,2,1,48,34,1944136816
115,18,18,Jits_Linear_8,3,5,56,103,1944142164
115,18,18,Jits_Linear_8,0,5,63,98,1944682064
115,18,18,Jits_Linear_8,1,1,48,34,1944714504
115,18,18,Jits_Linear_8,2,5,56,103,1944761660
115,18,18,Jits_Linear_8,3,5,80,127,1944822256
115,18,18,Jits_Linear_8,0,5,80,127,1945351540
115,18,18,Jits_Linear_8,1,1,48,36,1945387616
115,18,18,Jits_Linear_8,2,5,63,98,1945401812
115,18,18,Jits_Linear_8,3,5,56,103,1945432384
115,18,18,Jits_Linear_8,0,5,56,103,1946001916
115,18,18,Jits_Linear_8,1,1,48,31,1946028924
115,18,18,Jits_Linear_8,2,5,63,98,1946051892
115,18,18,Jits_Linear_8,3,5,80,127,1946062088
115,18,18,Jits_Linear_8,0,5,56,103,1946671448
115,18,18,Jits_Linear_8,1,1,48,35,1946700568
115,18,18,Jits_Linear_8,2,5,63,98,1946782056
115,18,18,Jits_Linear_8,3,5,80,127,1946801452
115,18,18,Jits_Linear_8,0,5,63,98,1947321904
115,18,18,Jits_Linear_8,1,1,48,31,1947364880
115,18,18,Jits_Linear_8,2,5,80,127,1947371952
115,18,18,Jits_Linear_8,3,5,56,103,1947462144
115,18,18,Jits_Linear_8,0,5,63,98,1947961680
115,18,18,Jits_Linear_8,1,1,48,34,1947985176
115,18,18,Jits_Linear_8,2,5,80,127,1947992468
115,18,18,Jits_Linear_8,3,5,56,103,1948081416
115,18,18,Jits_Linear_8,0,5,63,98,1948611892
115,18,18,Jits_Linear_8,1,5,56,103,1948622312
115,18,18,Jits_Linear_8,2,1,48,33,1948639672
115,18,18,Jits_Linear_8,3,5,80,127,1948721504
115,18,18,Jits_Linear_8,0,1,48,32,1949272756
115,18,18,Jits_Linear_8,1,5,63,98,1949361448
115,18,18,Jits_Linear_8,2,5,80,127,1949392228
115,18,18,Jits_Linear_8,3,5,56,103,1949421904
115,18,18,Jits_Linear_8,0,1,48,29,1949968004
115,18,18,Jits_Linear_8,1,5,80,127,1950022132
115,18,18,Jits_Linear_8,2,5,63,98,1950032184
115,18,18,Jits_Linear_8,3,5,56,103,1950062080
115,18,18,Jits_Linear_8,0,5,80,127,1950561828
115,18,18,Jits_Linear_8,1,5,63,98,1950581988
115,18,18,Jits_Linear_8,2,5,56,103,1950632216
115,18,18,Jits_Linear_8,3,1,48,34,1950652192
115,18,18,Jits_Linear_8,0,5,63,98,1951232432
115,18,18,Jits_Linear_8,1,1,48,29,1951235996
115,18,18,Jits_Linear_8,2,5,80,127,1951291848
115,18,18,Jits_Linear_8,3,5,56,103,1951312160
115,18,18,Jits_Linear_8,0,5,63,98,1951832352
115,18,18,Jits_Linear_8,1,5,56,103,1951881532
115,18,18,Jits_Linear_8,2,5,80,127,1951892100
115,18,18,Jits_Linear_8,3,1,48,35,1951916420
115,18,18,Jits_Linear_8,0,5,56,103,1952502120
115,18,18,Jits_Linear_8,1,1,48,30,1952510028
115,18,18,Jits_Linear_8,2,5,80,127,1952512460
115,18,18,Jits_Linear_8,3,5,63,98,1952611716
115,18,18,Jits_Linear_8,0,5,80,127,1953102200
115,18,18,Jits_Linear_8,1,5,63,98,1953112400
115,18,18,Jits_Linear_8,2,1,48,30,1953191512
115,18,18,Jits_Linear_8,3,5,56,103,1953261884
115,18,18,Jits_Linear_8,0,5,63,98,1953742168
115,18,18,Jits_Linear_8,1,1,48,31,1953770544
115,18,18,Jits_Linear_8,2,5,80,127,1953782324
115,18,18,Jits_Linear_8,3,5,56,103,1953862120
115,18,18,Jits_Linear_8,0,5,56,103,1954361788
115,18,18,Jits_Linear_8,1,1,48,31,1954371352
115,18,18,Jits_Linear_8,2,5,80,127,1954462056
115,18,18,Jits_Linear_8,3,5,63,98,1954481452
115,18,18,Jits_Linear_8,0,1,48,31,1955044876
115,18,18,Jits_Linear_8,1,5,80,127,1955051796
115,18,18,Jits_Linear_8,2,5,56,103,1955062144
115,18,18,Jits_Linear_8,3,5,63,98,1955152188
115,18,18,Jits_Linear_8,0,5,56,103,1955681772
115,18,18,Jits_Linear_8,1,5,63,98,1955702008
115,18,18,Jits_Linear_8,2,1,48,33,1955739924
115,18,18,Jits_Linear_8,3,5,80,127,1955781972
115,18,18,Jits_Linear_8,0,5,63,98,1956251916
115,18,18,Jits_Linear_8,1,1,48,37,1956337592
115,18,18,Jits_Linear_8,2,5,56,103,1956342120
115,18,18,Jits_Linear_8,3,5,80,127,1956345112
115,18,18,Jits_Linear_8,0,5,56,103,1956902172
115,18,18,Jits_Linear_8,1,1,48,36,1956918920
115,18,18,Jits_Linear_8,2,5,80,127,1956961884
115,18,18,Jits_Linear_8,3,5,63,98,1956972080
115,18,18,Jits_Linear_8,0,1,48,34,1957494652
115,18,18,Jits_Linear_8,1,5,80,127,1957572028
115,18,18,Jits_Linear_8,2,5,56,103,1957582372
115,18,18,Jits_Linear_8,3,5,63,98,1957585440
115,18,18,Jits_Linear_8,0,1,48,36,1958150668
115,18,18,Jits_Linear_8,1,5,56,103,1958152160
115,18,18,Jits_Linear_8,2,5,80,127,1958162056
115,18,18,Jits_Linear_8,3,5,63,98,1958182292
115,18,18,Jits_Linear_8,0,5,63,98,1958742272
115,18,18,Jits_Linear_8,1,1,48,42,1958763444
115,18,18,Jits_Linear_8,2,5,80,127,1958801856
115,18,18,Jits_Linear_8,3,5,56,103,1958851912
115,18,18,Jits_Linear_8,0,1,48,36,1959384364
115,18,18,Jits_Linear_8,1,5,63,98,1959441860
115,18,18,Jits_Linear_8,2,5,56,103,1959451980
115,18,18,Jits_Linear_8,3,5,80,127,1959502240
115,18,18,Jits_Linear_8,0,5,63,98,1959951884
115,18,18,Jits_Linear_8,1,5,80,127,1959972196
115,18,18,Jits_Linear_8,2,5,56,103,1959981716
115,18,18,Jits_Linear_8,3,1,48,29,1960005812
115,18,18,Jits_Linear_8,0,1,48,22,1960545764
115,18,18,Jits_Linear_8,1,5,63,98,1960562052
115,18,18,Jits_Linear_8,2,5,80,127,1960565340
115,18,18,Jits_Linear_8,3,5,56,103,1960602016
115,18,18,Jits_Linear_8,0,1,48,38,1961113632
115,18,18,Jits_Linear_8,1,5,63,98,1961241908
115,18,18,Jits_Linear_8,2,5,80,127,1961271884
115,18,18,Jits_Linear_8,3,5,56,103,1961281932
115,18,18,Jits_Linear_8,0,5,56,103,1961802144
115,18,18,Jits_Linear_8,1,5,80,127,1961831820
115,18,18,Jits_Linear_8,2,1,48,34,1961851424
115,18,18,Jits_Linear_8,3,5,63,98,1961861440
115,18,18,Jits_Linear_8,0,1,48,40,1962452272
115,18,18,Jits_Linear_8,1,5,63,98,1962501668
115,18,18,Jits_Linear_8,2,5,56,103,1962541760
115,18,18,Jits_Linear_8,3,5,80,127,1962544748
115,18,18,Jits_Linear_8,0,5,80,127,1963002172
115,18,18,Jits_Linear_8,1,5,56,103,1963082048
115,18,18,Jits_Linear_8,2,5,63,98,1963132248
115,18,18,Jits_Linear_8,3,1,48,37,1963139572
115,18,18,Jits_Linear_8,0,5,80,127,1963581784
115,18,18,Jits_Linear_8,1,5,56,103,1963602244
115,18,18,Jits_Linear_8,2,5,63,98,1963692476
115,18,18,Jits_Linear_8,3,1,48,26,1963721144
115,18,18,Jits_Linear_8,0,5,80,127,1964221896
115,18,18,Jits_Linear_8,1,5,63,98,1964261764
115,18,18,Jits_Linear_8,2,1,48,37,1964274924
115,18,18,Jits_Linear_8,3,5,56,103,1964301844
115,18,18,Jits_Linear_8,0,5,63,98,1964792236
115,18,18,Jits_Linear_8,1,5,80,127,1964851808
115,18,18,Jits_Linear_8,2,1,48,32,1964871412
115,18,18,Jits_Linear_8,3,5,56,103,1964882152
115,18,18,Jits_Linear_8,0,5,56,103,1965392236
115,18,18,Jits_Linear_8,1,5,80,127,1965421836
115,18,18,Jits_Linear_8,2,1,48,35,1965448720
115,18,18,Jits_Linear_8,3,5,63,98,1965511988
115,18,18,Jits_Linear_8,0,5,56,103,1965992272
115,18,18,Jits_Linear_8,1,1,48,37,1966006848
115,18,18,Jits_Linear_8,2,5,80,127,1966101864
115,18,18,Jits_Linear_8,3,5,63,98,1966131764
115,18,18,Jits_Linear_8,0,5,56,103,1966632372
115,18,18,Jits_Linear_8,1,1,48,29,1966658712
115,18,18,Jits_Linear_8,2,5,63,98,1966691712
115,18,18,Jits_Linear_8,3,5,80,127,1966722536
115,18,18,Jits_Linear_8,0,5,56,103,1967192676
115,18,18,Jits_Linear_8,1,1,48,34,1967250820
115,18,18,Jits_Linear_8,2,5,63,98,1967262156
115,18,18,Jits_Linear_8,3,5,80,127,1967281644
115,18,18,Jits_Linear_8,0,5,80,127,1967751660
115,18,18,Jits_Linear_8,1,5,63,98,1967771896
115,18,18,Jits_Linear_8,2,5,56,103,1967822396
115,18,18,Jits_Linear_8,3,1,48,29,1967871444
115,18,18,Jits_Linear_8,0,5,63,98,1968351892
115,18,18,Jits_Linear_8,1,5,80,127,1968361792
115,18,18,Jits_Linear_8,2,5,56,103,1968411992
115,18,18,Jits_Linear_8,3,1,48,40,1968423576
115,18,18,Jits_Linear_8,0,5,63,98,1968932180
115,18,18,Jits_Linear_8,1,5,80,127,1969001716
115,18,18,Jits_Linear_8,2,1,48,36,1969003128
115,18,18,Jits_Linear_8,3,5,56,103,1969022712
115,18,18,Jits_Linear_8,0,5,63,98,1969541784
115,18,18,Jits_Linear_8,1,5,80,127,1969545072
115,18,18,Jits_Linear_8,2,1,48,28,1969570908
115,18,18,Jits_Linear_8,3,5,56,103,1969612132
115,18,18,Jits_Linear_8,0,5,80,127,1970071796
115,18,18,Jits_Linear_8,1,5,56,103,1970092476
115,18,18,Jits_Linear_8,2,5,63,98,1970101552
115,18,18,Jits_Linear_8,3,1,48,28,1970183560
115,18,18,Jits_Linear_8,0,5,56,103,1970672024
115,18,18,Jits_Linear_8,1,1,48,29,1970752164
115,18,18,Jits_Linear_8,2,5,63,98,1970762228
115,18,18,Jits_Linear_8,3,5,80,127,1970765588
115,18,18,Jits_Linear_8,0,5,80,127,1971221904
115,18,18,Jits_Linear_8,1,5,56,103,1971232252
115,18,18,Jits_Linear_8,2,5,63,98,1971251812
115,18,18,Jits_Linear_8,3,1,48,35,1971312172
115,18,18,Jits_Linear_8,0,5,63,98,1971792156
115,18,18,Jits_Linear_8,1,1,48,33,1971851380
115,18,18,Jits_Linear_8,2,5,80,127,1971852792
115,18,18,Jits_Linear_8,3,5,56,103,1971861792
115,18,18,Jits_Linear_8,0,1,48,29,1972374832
115,18,18,Jits_Linear_8,1,5,63,98,1972432176
115,18,18,Jits_Linear_8,2,5,80,127,1972462076
115,18,18,Jits_Linear_8,3,5,56,103,1972501852
115,18,18,Jits_Linear_8,0,5,56,103,1972992548
115,18,18,Jits_Linear_8,1,1,48,28,1972995444
115,18,18,Jits_Linear_8,2,5,80,127,1973001764
115,18,18,Jits_Linear_8,3,5,63,98,1973041632
115,18,18,Jits_Linear_8,0,5,80,127,1973521756
115,18,18,Jits_Linear_8,1,1,48,23,1973570736
115,18,18,Jits_Linear_8,2,5,56,103,1973601624
115,18,18,Jits_Linear_8,3,5,63,98,1973611892
115,18,18,Jits_Linear_8,0,5,80,127,1974132036
115,18,18,Jits_Linear_8,1,1,48,23,1974179668
115,18,18,Jits_Linear_8,2,5,56,103,1974211852
115,18,18,Jits_Linear_8,3,5,63,98,1974222124
115,18,18,Jits_Linear_8,0,5,80,127,1974652484
115,18,18,Jits_Linear_8,1,5,56,103,1974701492
115,18,18,Jits_Linear_8,2,1,48,33,1974746932
115,18,18,Jits_Linear_8,3,5,63,98,1974751684
115,18,18,Jits_Linear_8,0,5,56,103,1975271824
115,18,18,Jits_Linear_8,1,5,63,98,1975274816
115,18,18,Jits_Linear_8,2,1,48,34,1975303344
115,18,18,Jits_Linear_8,3,5,80,127,1975322020
115,18,18,Jits_Linear_8,0,5,56,103,1975852428
115,18,18,Jits_Linear_8,1,1,48,15,1975875848
115,18,18,Jits_Linear_8,2,5,63,98,1975882096
115,18,18,Jits_Linear_8,3,5,80,127,1975892516
115,18,18,Jits_Linear_8,0,5,63,98,1976322380
115,18,18,Jits_Linear_8,1,5,56,103,1976391992
115,18,18,Jits_Linear_8,2,1,48,29,1976417052
115,18,18,Jits_Linear_8,3,5,80,127,1976442408
115,18,18,Jits_Linear_8,0,5,63,98,1976912340
115,18,18,Jits_Linear_8,1,5,56,103,1976921560
115,18,18,Jits_Linear_8,2,5,80,127,1976924552
115,18,18,Jits_Linear_8,3,1,48,27,1976950908
115,18,18,Jits_Linear_8,0,5,80,127,1977411920
115,18,18,Jits_Linear_8,1,5,56,103,1977472560
115,18,18,Jits_Linear_8,2,1,48,33,1977506320
115,18,18,Jits_Linear_8,3,5,63,98,1977561716
115,18,18,Jits_Linear_8,0,5,80,127,1977961884
115,18,18,Jits_Linear_8,1,1,48,26,1978048108
115,18,18,Jits_Linear_8,2,5,56,103,1978062228
115,18,18,Jits_Linear_8,3,5,63,98,1978102092
115,18,18,Jits_Linear_8,0,5,56,103,1978561852
115,18,18,Jits_Linear_8,1,5,63,98,1978582608
115,18,18,Jits_Linear_8,2,1,48,33,1978609788
115,18,18,Jits_Linear_8,3,5,80,127,1978622540
115,18,18,Jits_Linear_8,0,5,63,98,1979082440
115,18,18,Jits_Linear_8,1,5,56,103,1979101480
115,18,18,Jits_Linear_8,2,1,48,26,1979170380
115,18,18,Jits_Linear_8,3,5,80,127,1979202020
115,18,18,Jits_Linear_8,0,5,63,98,1979611492
115,18,18,Jits_Linear_8,1,1,48,29,1979682116
115,18,18,Jits_Linear_8,2,5,80,127,1979722000
115,18,18,Jits_Linear_8,3,5,56,103,1979751748
115,18,18,Jits_Linear_8,0,5,56,103,1980171560
115,18,18,Jits_Linear_8,1,5,63,98,1980202432
115,18,18,Jits_Linear_8,2,1,48,28,1980223536
115,18,18,Jits_Linear_8,3,5,80,127,1980251728
115,18,18,Jits_Linear_8,0,5,63,98,1980681808
115,18,18,Jits_Linear_8,1,5,56,103,1980712456
115,18,18,Jits_Linear_8,2,1,48,33,1980713424
115,18,18,Jits_Linear_8,3,5,80,127,1980761904
115,18,18,Jits_Linear_8,0,1,48,27,1981233888
115,18,18,Jits_Linear_8,1,5,56,103,1981251900
115,18,18,Jits_Linear_8,2,5,63,98,1981272584
115,18,18,Jits_Linear_8,3,5,80,127,1981352536
115,18,18,Jits_Linear_8,0,5,63,98,1981761848
115,18,18,Jits_Linear_8,1,1,48,23,1981771192
115,18,18,Jits_Linear_8,2,5,56,103,1981822408
115,18,18,Jits_Linear_8,3,5,80,127,1981852456
115,18,18,Jits_Linear_8,0,1,48,32,1982307856
115,18,18,Jits_Linear_8,1,5,56,103,1982341484
115,18,18,Jits_Linear_8,2,5,80,127,1982401948
115,18,18,Jits_Linear_8,3,5,63,98,1982441724
115,18,18,Jits_Linear_8,0,5,63,98,1982851584
115,18,18,Jits_Linear_8,1,1,48,23,1982886540
115,18,18,Jits_Linear_8,2,5,56,103,1982911748
115,18,18,Jits_Linear_8,3,5,80,127,1982981560
115,18,18,Jits_Linear_8,0,1,48,24,1983396628
115,18,18,Jits_Linear_8,1,5,56,103,1983461772
115,18,18,Jits_Linear_8,2,5,63,98,1983472416
115,18,18,Jits_Linear_8,3,5,80,127,1983475552
115,18,18,Jits_Linear_8,0,1,48,28,1983931632
115,18,18,Jits_Linear_8,1,5,63,98,1983932892
115,18,18,Jits_Linear_8,2,5,56,103,1983992384
115,18,18,Jits_Linear_8,3,5,80,127,1983995524
115,18,18,Jits_Linear_8,0,5,63,98,1984441640
115,18,18,Jits_Linear_8,1,1,48,20,1984464832
115,18,18,Jits_Linear_8,2,5,80,127,1984472580
115,18,18,Jits_Linear_8,3,5,56,103,1984491844
115,18,18,Jits_Linear_8,0,1,48,33,1984947936
115,18,18,Jits_Linear_8,1,5,56,103,1984972544
115,18,18,Jits_Linear_8,2,5,63,98,1985022452
115,18,18,Jits_Linear_8,3,5,80,127,1985102380
115,18,18,Jits_Linear_8,0,5,80,127,1985482052
115,18,18,Jits_Linear_8,1,5,63,98,1985521916
115,18,18,Jits_Linear_8,2,1,48,23,1985534028
115,18,18,Jits_Linear_8,3,5,56,103,1985541472
115,18,18,Jits_Linear_8,0,1,48,24,1986044192
115,18,18,Jits_Linear_8,1,5,56,103,1986071792
115,18,18,Jits_Linear_8,2,5,80,127,1986082360
115,18,18,Jits_Linear_8,3,5,63,98,1986101548
115,18,18,Jits_Linear_8,0,5,56,103,1986571776
115,18,18,Jits_Linear_8,1,1,48,29,1986578936
115,18,18,Jits_Linear_8,2,5,63,98,1986621900
115,18,18,Jits_Linear_8,3,5,80,127,1986651648
115,18,18,Jits_Linear_8,0,5,56,103,1987041576
115,18,18,Jits_Linear_8,1,5,63,98,1987051848
115,18,18,Jits_Linear_8,2,5,80,127,1987102272
115,18,18,Jits_Linear_8,3,1,48,14,1987149884
115,18,18,Jits_Linear_8,0,5,56,103,1987551448
115,18,18,Jits_Linear_8,1,5,80,127,1987554592
115,18,18,Jits_Linear_8,2,1,48,35,1987619588
115,18,18,Jits_Linear_8,3,5,63,98,1987712252
115,18,18,Jits_Linear_8,0,5,63,98,1988082080
115,18,18,Jits_Linear_8,1,5,56,103,1988151688
115,18,18,Jits_Linear_8,2,1,48,32,1988152728
115,18,18,Jits_Linear_8,3,5,80,127,1988191544
115,18,18,Jits_Linear_8,0,5,63,98,1988632028
115,18,18,Jits_Linear_8,1,1,48,35,1988691124
115,18,18,Jits_Linear_8,2,5,56,103,1988722156
115,18,18,Jits_Linear_8,3,5,80,127,1988725444
115,18,18,Jits_Linear_8,0,5,56,103,1989122412
115,18,18,Jits_Linear_8,1,5,63,98,1989211652
115,18,18,Jits_Linear_8,2,5,80,127,1989221848
115,18,18,Jits_Linear_8,3,1,48,23,1989227736
115,18,18,Jits_Linear_8,0,5,56,103,1989601584
115,18,18,Jits_Linear_8,1,5,63,98,1989651860
115,18,18,Jits_Linear_8,2,5,80,127,1989681608
115,18,18,Jits_Linear_8,3,1,48,29,1989739256
115,18,18,Jits_Linear_8,0,5,63,98,1990182340
115,18,18,Jits_Linear_8,1,5,80,127,1990191340
115,18,18,Jits_Linear_8,2,1,48,29,1990248468
115,18,18,Jits_Linear_8,3,5,56,103,1990252092
115,18,18,Jits_Linear_8,0,5,63,98,1990602304
115,18,18,Jits_Linear_8,1,5,80,127,1990661352
115,18,18,Jits_Linear_8,2,5,56,103,1990701512
115,18,18,Jits_Linear_8,3,1,48,38,1990777072
115,18,18,Jits_Linear_8,0,5,56,103,1991202156
115,18,18,Jits_Linear_8,1,5,80,127,1991221644
115,18,18,Jits_Linear_8,2,5,63,98,1991242028
115,18,18,Jits_Linear_8,3,1,48,34,1991260508
115,18,18,Jits_Linear_8,0,5,63,98,1991622060
115,18,18,Jits_Linear_8,1,5,56,103,1991641400
115,18,18,Jits_Linear_8,2,5,80,127,1991682384
115,18,18,Jits_Linear_8,3,1,48,28,1991765732
115,18,18,Jits_Linear_8,0,5,63,98,1992132080
115,18,18,Jits_Linear_8,1,5,80,127,1992161756
115,18,18,Jits_Linear_8,2,5,56,103,1992182364
115,18,18,Jits_Linear_8,3,1,48,35,1992222048
115,18,18,Jits_Linear_8,0,5,80,127,1992602012
115,18,18,Jits_Linear_8,1,5,56,103,1992652288
115,18,18,Jits_Linear_8,2,1,48,32,1992677656
115,18,18,Jits_Linear_8,3,5,63,98,1992711624
115,18,18,Jits_Linear_8,0,5,63,98,1993082344
115,18,18,Jits_Linear_8,1,1,48,31,1993169764
115,18,18,Jits_Linear_8,2,5,56,103,1993201944
115,18,18,Jits_Linear_8,3,5,80,127,1993231768
115,18,18,Jits_Linear_8,0,5,80,127,1993611576
115,18,18,Jits_Linear_8,1,5,63,98,1993632256
115,18,18,Jits_Linear_8,2,1,48,33,1993635152
115,18,18,Jits_Linear_8,3,5,56,103,1993701784
115,18,18,Jits_Linear_8,0,1,48,31,1994119160
115,18,18,Jits_Linear_8,1,5,63,98,1994121600
115,18,18,Jits_Linear_8,2,5,56,103,1994131720
115,18,18,Jits_Linear_8,3,5,80,127,1994212848
115,18,18,Jits_Linear_8,0,1,48,36,1994613964
115,18,18,Jits_Linear_8,1,5,56,103,1994671408
115,18,18,Jits_Linear_8,2,5,80,127,1994702204
115,18,18,Jits_Linear_8,3,5,63,98,1994712328
115,18,18,Jits_Linear_8,0,9999,9999,9999,1884309576
115,18,18,Jits_Linear_8,1,9999,9999,9999,1885129816
115,18,18,Jits_Linear_8,2,9999,9999,9999,1885950048
115,18,18,Jits_Linear_8,3,9999,9999,9999,1886769224
115,18,18,Jits_Linear_8,4,9999,9999,9999,1887589440
115,18,18,Jits_Linear_8,5,9999,9999,9999,1888399412
115,18,18,Jits_Linear_8,6,9999,9999,9999,1889209432
115,18,18,Jits_Linear_8,7,9999,9999,9999,1890019388
115,18,18,Jits_Linear_8,8,9999,9999,9999,1890829412
115,18,18,Jits_Linear_8,9,9999,9999,9999,1891639416
115,18,18,Jits_Linear_8,10,9999,9999,9999,1892439120
115,18,18,Jits_Linear_8,11,9999,9999,9999,1893239924
115,18,18,Jits_Linear_8,12,9999,9999,9999,1894039640
115,18,18,Jits_Linear_8,13,9999,9999,9999,1894839408
115,18,18,Jits_Linear_8,14,9999,9999,9999,1895639148
115,18,18,Jits_Linear_8,15,9999,9999,9999,1896429676
115,18,18,Jits_Linear_8,16,9999,9999,9999,1897219152
115,18,18,Jits_Linear_8,17,9999,9999,9999,1898009712
115,18,18,Jits_Linear_8,18,9999,9999,9999,1898799208
115,18,18,Jits_Linear_8,19,9999,9999,9999,1899589692
115,18,18,Jits_Linear_8,20,9999,9999,9999,1900370040
115,18,18,Jits_Linear_8,21,9999,9999,9999,1901149264
115,18,18,Jits_Linear_8,22,9999,9999,9999,1901929544
115,18,18,Jits_Linear_8,23,9999,9999,9999,1902709828
115,18,18,Jits_Linear_8,24,9999,9999,9999,1903489136
115,18,18,Jits_Linear_8,25,9999,9999,9999,1904259168
115,18,18,Jits_Linear_8,26,9999,9999,9999,1905029180
115,18,18,Jits_Linear_8,27,9999,9999,9999,1905799268
115,18,18,Jits_Linear_8,28,9999,9999,9999,1906569300
115,18,18,Jits_Linear_8,29,9999,9999,9999,1907339332
115,18,18,Jits_Linear_8,30,9999,9999,9999,1908099152
115,18,18,Jits_Linear_8,31,9999,9999,9999,1908859992
115,18,18,Jits_Linear_8,32,9999,9999,9999,1909619820
115,18,18,Jits_Linear_8,33,9999,9999,9999,1910379576
115,18,18,Jits_Linear_8,34,9999,9999,9999,1911139412
115,18,18,Jits_Linear_8,35,9999,9999,9999,1911890032
115,18,18,Jits_Linear_8,36,9999,9999,9999,1912639596
115,18,18,Jits_Linear_8,37,9999,9999,9999,1913389176
115,18,18,Jits_Linear_8,38,9999,9999,9999,1914139716
115,18,18,Jits_Linear_8,39,9999,9999,9999,1914889296
115,18,18,Jits_Linear_8,40,9999,9999,9999,1915629660
115,18,18,Jits_Linear_8,41,9999,9999,9999,1916369992
115,18,18,Jits_Linear_8,42,9999,9999,9999,1917109360
115,18,18,Jits_Linear_8,43,9999,9999,9999,1917849708
115,18,18,Jits_Linear_8,44,9999,9999,9999,1918590008
115,18,18,Jits_Linear_8,45,9999,9999,9999,1919319116
115,18,18,Jits_Linear_8,46,9999,9999,9999,1920049272
115,18,18,Jits_Linear_8,47,9999,9999,9999,1920779360
115,18,18,Jits_Linear_8,48,9999,9999,9999,1921509504
115,18,18,Jits_Linear_8,49,9999,9999,9999,1922239576
115,18,18,Jits_Linear_8,50,9999,9999,9999,1922959468
115,18,18,Jits_Linear_8,51,9999,9999,9999,1923679344
115,18,18,Jits_Linear_8,52,9999,9999,9999,1924399164
115,18,18,Jits_Linear_8,53,9999,9999,9999,1925120124
115,18,18,Jits_Linear_8,54,9999,9999,9999,1925849156
115,18,18,Jits_Linear_8,55,9999,9999,9999,1926559844
115,18,18,Jits_Linear_8,56,9999,9999,9999,1927269440
115,18,18,Jits_Linear_8,57,9999,9999,9999,1927979084
115,18,18,Jits_Linear_8,58,9999,9999,9999,1928689756
115,18,18,Jits_Linear_8,59,9999,9999,9999,1929399384
115,18,18,Jits_Linear_8,60,9999,9999,9999,1930099768
115,18,18,Jits_Linear_8,61,9999,9999,9999,1930799208
115,18,18,Jits_Linear_8,62,9999,9999,9999,1931499616
115,18,18,Jits_Linear_8,63,9999,9999,9999,1932200020
115,18,18,Jits_Linear_8,64,9999,9999,9999,1932899440
115,18,18,Jits_Linear_8,65,9999,9999,9999,1933589592
115,18,18,Jits_Linear_8,66,9999,9999,9999,1934279760
115,18,18,Jits_Linear_8,67,9999,9999,9999,1934969964
115,18,18,Jits_Linear_8,68,9999,9999,9999,1935659132
115,18,18,Jits_Linear_8,69,9999,9999,9999,1936349300
115,18,18,Jits_Linear_8,70,9999,9999,9999,1937029196
115,18,18,Jits_Linear_8,71,9999,9999,9999,1937709136
115,18,18,Jits_Linear_8,72,9999,9999,9999,1938390140
115,18,18,Jits_Linear_8,73,9999,9999,9999,1939079256
115,18,18,Jits_Linear_8,74,9999,9999,9999,1939759196
115,18,18,Jits_Linear_8,75,9999,9999,9999,1940429944
115,18,18,Jits_Linear_8,76,9999,9999,9999,1941099624
115,18,18,Jits_Linear_8,77,9999,9999,9999,1941769336
115,18,18,Jits_Linear_8,78,9999,9999,9999,1942440012
115,18,18,Jits_Linear_8,79,9999,9999,9999,1943109700
115,18,18,Jits_Linear_8,80,9999,9999,9999,1943769208
115,18,18,Jits_Linear_8,81,9999,9999,9999,1944429660
115,18,18,Jits_Linear_8,82,9999,9999,9999,1945089092
115,18,18,Jits_Linear_8,83,9999,9999,9999,1945749572
115,18,18,Jits_Linear_8,84,9999,9999,9999,1946410108
115,18,18,Jits_Linear_8,85,9999,9999,9999,1947059296
115,18,18,Jits_Linear_8,86,9999,9999,9999,1947709500
115,18,18,Jits_Linear_8,87,9999,9999,9999,1948359788
115,18,18,Jits_Linear_8,88,9999,9999,9999,1949010044
115,18,18,Jits_Linear_8,89,9999,9999,9999,1949659220
115,18,18,Jits_Linear_8,90,9999,9999,9999,1950299232
115,18,18,Jits_Linear_8,91,9999,9999,9999,1950939256
115,18,18,Jits_Linear_8,92,9999,9999,9999,1951579200
115,18,18,Jits_Linear_8,93,9999,9999,9999,1952219220
115,18,18,Jits_Linear_8,94,9999,9999,9999,1952859224
115,18,18,Jits_Linear_8,95,9999,9999,9999,1953490048
115,18,18,Jits_Linear_8,96,9999,9999,9999,1954119796
115,18,18,Jits_Linear_8,97,9999,9999,9999,1954749560
115,18,18,Jits_Linear_8,98,9999,9999,9999,1955379320
115,18,18,Jits_Linear_8,99,9999,9999,9999,1956010060
115,18,18,Jits_Linear_8,100,9999,9999,9999,1956629612
115,18,18,Jits_Linear_8,101,9999,9999,9999,1957249112
115,18,18,Jits_Linear_8,102,9999,9999,9999,1957869644
115,18,18,Jits_Linear_8,103,9999,9999,9999,1958489192
115,18,18,Jits_Linear_8,104,9999,9999,9999,1959109740
115,18,18,Jits_Linear_8,105,9999,9999,9999,1959720004
115,18,18,Jits_Linear_8,106,9999,9999,9999,1960329312
115,18,18,Jits_Linear_8,107,9999,9999,9999,1960939628
115,18,18,Jits_Linear_8,108,9999,9999,9999,1961549888
115,18,18,Jits_Linear_8,109,9999,9999,9999,1962159196
115,18,18,Jits_Linear_8,110,9999,9999,9999,1962759284
115,18,18,Jits_Linear_8,111,9999,9999,9999,1963359332
115,18,18,Jits_Linear_8,112,9999,9999,9999,1963959364
115,18,18,Jits_Linear_8,113,9999,9999,9999,1964559448
115,18,18,Jits_Linear_8,114,9999,9999,9999,1965159532
115,18,18,Jits_Linear_8,115,9999,9999,9999,1965749364
115,18,18,Jits_Linear_8,116,9999,9999,9999,1966339192
115,18,18,Jits_Linear_8,117,9999,9999,9999,1966929996
115,18,18,Jits_Linear_8,118,9999,9999,9999,1967519844
115,18,18,Jits_Linear_8,119,9999,9999,9999,1968109660
115,18,18,Jits_Linear_8,120,9999,9999,9999,1968689216
115,18,18,Jits_Linear_8,121,9999,9999,9999,1969269880
115,18,18,Jits_Linear_8,122,9999,9999,9999,1969849436
115,18,18,Jits_Linear_8,123,9999,9999,9999,1970430016
115,18,18,Jits_Linear_8,124,9999,9999,9999,1971009644
115,18,18,Jits_Linear_8,125,9999,9999,9999,1971579980
115,18,18,Jits_Linear_8,126,9999,9999,9999,1972149360
115,18,18,Jits_Linear_8,127,9999,9999,9999,1972719688
115,18,18,Jits_Linear_8,128,9999,9999,9999,1973290092
115,18,18,Jits_Linear_8,129,9999,9999,9999,1973859388
115,18,18,Jits_Linear_8,130,9999,9999,9999,1974419572
115,18,18,Jits_Linear_8,131,9999,9999,9999,1974979700
115,18,18,Jits_Linear_8,132,9999,9999,9999,1975539772
115,18,18,Jits_Linear_8,133,9999,9999,9999,1976099928
115,18,18,Jits_Linear_8,134,9999,9999,9999,1976660084
115,18,18,Jits_Linear_8,135,9999,9999,9999,1977209944
115,18,18,Jits_Linear_8,136,9999,9999,9999,1977759840
115,18,18,Jits_Linear_8,137,9999,9999,9999,1978309732
115,18,18,Jits_Linear_8,138,9999,9999,9999,1978859620
115,18,18,Jits_Linear_8,139,9999,9999,9999,1979409508
115,18,18,Jits_Linear_8,140,9999,9999,9999,1979949124
115,18,18,Jits_Linear_8,141,9999,9999,9999,1980489856
115,18,18,Jits_Linear_8,142,9999,9999,9999,1981029472
115,18,18,Jits_Linear_8,143,9999,9999,9999,1981569108
115,18,18,Jits_Linear_8,144,9999,9999,9999,1982109764
115,18,18,Jits_Linear_8,145,9999,9999,9999,1982639188
115,18,18,Jits_Linear_8,146,9999,9999,9999,1983169660
115,18,18,Jits_Linear_8,147,9999,9999,9999,1983700052
115,18,18,Jits_Linear_8,148,9999,9999,9999,1984229464
115,18,18,Jits_Linear_8,149,9999,9999,9999,1984759932
115,18,18,Jits_Linear_8,150,9999,9999,9999,1985280068
115,18,18,Jits_Linear_8,151,9999,9999,9999,1985809488
115,18,18,Jits_Linear_8,152,9999,9999,9999,1986329712
115,18,18,Jits_Linear_8,153,9999,9999,9999,1986849848
115,18,18,Jits_Linear_8,154,9999,9999,9999,1987370060
115,18,18,Jits_Linear_8,155,9999,9999,9999,1987880008
115,18,18,Jits_Linear_8,156,9999,9999,9999,1988389968
115,18,18,Jits_Linear_8,157,9999,9999,9999,1988899904
115,18,18,Jits_Linear_8,158,9999,9999,9999,1989409852
115,18,18,Jits_Linear_8,159,9999,9999,9999,1989919804
115,18,18,Jits_Linear_8,160,9999,9999,9999,1990419580
115,18,18,Jits_Linear_8,161,9999,9999,9999,1990919256
115,18,18,Jits_Linear_8,162,9999,9999,9999,1991419992
115,18,18,Jits_Linear_8,163,9999,9999,9999,1991919680
115,18,18,Jits_Linear_8,164,9999,9999,9999,1992419436
115,18,18,Jits_Linear_8,165,9999,9999,9999,1992909900
115,18,18,Jits_Linear_8,166,9999,9999,9999,1993399404
115,18,18,Jits_Linear_8,167,9999,9999,9999,1993889868
115,18,18,Jits_Linear_8,168,9999,9999,9999,1994379372
115,18,18,Jits_Linear_8,169,9999,9999,9999,1994869820
115,19,19,Jits_Linear_5,0,5,56,103,2002906592
115,19,19,Jits_Linear_5,1,5,63,98,2002909612
115,19,19,Jits_Linear_5,2,5,80,127,2002913036
115,19,19,Jits_Linear_5,0,5,56,103,2003386828
115,19,19,Jits_Linear_5,1,5,63,98,2003389928
115,19,19,Jits_Linear_5,2,5,80,127,2003393200
115,19,19,Jits_Linear_5,0,5,56,103,2003867380
115,19,19,Jits_Linear_5,1,5,80,127,2003877208
115,19,19,Jits_Linear_5,2,5,63,98,2003896696
115,19,19,Jits_Linear_5,3,1,48,47,2003905136
115,19,19,Jits_Linear_5,0,5,63,98,2004297008
115,19,19,Jits_Linear_5,1,5,80,127,2004326764
115,19,19,Jits_Linear_5,2,5,56,103,2004336960
115,19,19,Jits_Linear_5,3,1,48,45,2004338896
115,19,19,Jits_Linear_5,0,1,48,42,2004766772
115,19,19,Jits_Linear_5,1,5,80,127,2004836700
115,19,19,Jits_Linear_5,2,5,56,103,2004847044
115,19,19,Jits_Linear_5,3,5,63,98,2004876508
115,19,19,Jits_Linear_5,0,1,48,27,2005274464
115,19,19,Jits_Linear_5,1,5,63,98,2005317212
115,19,19,Jits_Linear_5,2,5,56,103,2005346668
115,19,19,Jits_Linear_5,3,5,80,127,2005357084
115,19,19,Jits_Linear_5,0,5,56,103,2005757272
115,19,19,Jits_Linear_5,1,1,48,34,2005774860
115,19,19,Jits_Linear_5,2,5,63,98,2005806424
115,19,19,Jits_Linear_5,3,5,80,127,2005827256
115,19,19,Jits_Linear_5,0,1,48,44,2006233856
115,19,19,Jits_Linear_5,1,5,80,127,2006246780
115,19,19,Jits_Linear_5,2,5,63,98,2006296912
115,19,19,Jits_Linear_5,3,5,56,103,2006336912
115,19,19,Jits_Linear_5,0,5,56,103,2006737260
115,19,19,Jits_Linear_5,1,1,48,37,2006748324
115,19,19,Jits_Linear_5,2,5,63,98,2006767228
115,19,19,Jits_Linear_5,3,5,80,127,2006836540
115,19,19,Jits_Linear_5,0,5,56,103,2007226920
115,19,19,Jits_Linear_5,1,1,48,33,2007250568
115,19,19,Jits_Linear_5,2,5,80,127,2007287012
115,19,19,Jits_Linear_5,3,5,63,98,2007317212
115,19,19,Jits_Linear_5,0,5,56,103,2007726480
115,19,19,Jits_Linear_5,1,5,63,98,2007736748
115,19,19,Jits_Linear_5,2,1,48,35,2007748112
115,19,19,Jits_Linear_5,3,5,80,127,2007776684
115,19,19,Jits_Linear_5,0,5,63,98,2008216888
115,19,19,Jits_Linear_5,1,1,48,34,2008229972
115,19,19,Jits_Linear_5,2,5,80,127,2008296904
115,19,19,Jits_Linear_5,3,5,56,103,2008307100
115,19,19,Jits_Linear_5,0,1,48,32,2008755288
115,19,19,Jits_Linear_5,1,5,63,98,2008767216
115,19,19,Jits_Linear_5,2,5,56,103,2008806860
115,19,19,Jits_Linear_5,3,5,80,127,2008809924
115,19,19,Jits_Linear_5,0,5,56,103,2009226600
115,19,19,Jits_Linear_5,1,5,63,98,2009236944
115,19,19,Jits_Linear_5,2,1,48,33,2009255876
115,19,19,Jits_Linear_5,3,5,80,127,2009276876
115,19,19,Jits_Linear_5,0,1,48,33,2009699788
115,19,19,Jits_Linear_5,1,5,56,103,2009727412
115,19,19,Jits_Linear_5,2,5,63,98,2009730328
115,19,19,Jits_Linear_5,3,5,80,127,2009746900
115,19,19,Jits_Linear_5,0,1,48,44,2010191892
115,19,19,Jits_Linear_5,1,5,80,127,2010246492
115,19,19,Jits_Linear_5,2,5,56,103,2010256764
115,19,19,Jits_Linear_5,3,5,63,98,2010327404
115,19,19,Jits_Linear_5,0,1,48,32,2010734656
115,19,19,Jits_Linear_5,1,5,63,98,2010747128
115,19,19,Jits_Linear_5,2,5,56,103,2010766716
115,19,19,Jits_Linear_5,3,5,80,127,2010846572
115,19,19,Jits_Linear_5,0,1,48,39,2011223772
115,19,19,Jits_Linear_5,1,5,56,103,2011266396
115,19,19,Jits_Linear_5,2,5,80,127,2011307312
115,19,19,Jits_Linear_5,3,5,63,98,2011316608
115,19,19,Jits_Linear_5,0,1,48,31,2011720172
115,19,19,Jits_Linear_5,1,5,80,127,2011767104
115,19,19,Jits_Linear_5,2,5,63,98,2011796956
115,19,19,Jits_Linear_5,3,5,56,103,2011837028
115,19,19,Jits_Linear_5,0,1,48,38,2012232292
115,19,19,Jits_Linear_5,1,5,56,103,2012296488
115,19,19,Jits_Linear_5,2,5,63,98,2012327364
115,19,19,Jits_Linear_5,3,5,80,127,2012376428
115,19,19,Jits_Linear_5,0,5,80,127,2012806448
115,19,19,Jits_Linear_5,1,1,48,35,2012824020
115,19,19,Jits_Linear_5,2,5,56,103,2012846456
115,19,19,Jits_Linear_5,3,5,63,98,2012856804
115,19,19,Jits_Linear_5,0,5,80,127,2013307392
115,19,19,Jits_Linear_5,1,5,63,98,2013347284
115,19,19,Jits_Linear_5,2,1,48,33,2013355952
115,19,19,Jits_Linear_5,3,5,56,103,2013406548
115,19,19,Jits_Linear_5,0,5,56,103,2013826376
115,19,19,Jits_Linear_5,1,5,80,127,2013837092
115,19,19,Jits_Linear_5,2,1,48,40,2013856852
115,19,19,Jits_Linear_5,3,5,63,98,2013916512
115,19,19,Jits_Linear_5,0,5,80,127,2014346604
115,19,19,Jits_Linear_5,1,1,48,36,2014370024
115,19,19,Jits_Linear_5,2,5,63,98,2014406916
115,19,19,Jits_Linear_5,3,5,56,103,2014436740
115,19,19,Jits_Linear_5,0,5,56,103,2014866832
115,19,19,Jits_Linear_5,1,1,48,38,2014911156
115,19,19,Jits_Linear_5,2,5,80,127,2014927292
115,19,19,Jits_Linear_5,3,5,63,98,2014967084
115,19,19,Jits_Linear_5,0,1,48,38,2015423664
115,19,19,Jits_Linear_5,1,5,56,103,2015447376
115,19,19,Jits_Linear_5,2,5,63,98,2015456672
115,19,19,Jits_Linear_5,3,5,80,127,2015460256
115,19,19,Jits_Linear_5,0,5,80,127,2015926604
115,19,19,Jits_Linear_5,1,1,48,39,2015974540
115,19,19,Jits_Linear_5,2,5,63,98,2016016960
115,19,19,Jits_Linear_5,3,5,56,103,2016027084
115,19,19,Jits_Linear_5,0,1,48,28,2016448980
115,19,19,Jits_Linear_5,1,5,56,103,2016457008
115,19,19,Jits_Linear_5,2,5,63,98,2016460028
115,19,19,Jits_Linear_5,3,5,80,127,2016463152
115,19,19,Jits_Linear_5,0,1,48,18,2016954788
115,19,19,Jits_Linear_5,1,5,80,127,2017006956
115,19,19,Jits_Linear_5,2,5,63,98,2017057072
115,19,19,Jits_Linear_5,3,5,56,103,2017087268
115,19,19,Jits_Linear_5,0,1,48,35,2017496508
115,19,19,Jits_Linear_5,1,5,56,103,2017517132
115,19,19,Jits_Linear_5,2,5,80,127,2017527108
115,19,19,Jits_Linear_5,3,5,63,98,2017597072
115,19,19,Jits_Linear_5,0,1,48,35,2018046392
115,19,19,Jits_Linear_5,1,5,56,103,2018056608
115,19,19,Jits_Linear_5,2,5,63,98,2018077068
115,19,19,Jits_Linear_5,3,5,80,127,2018136412
115,19,19,Jits_Linear_5,0,1,48,34,2018573716
115,19,19,Jits_Linear_5,1,5,80,127,2018587088
115,19,19,Jits_Linear_5,2,5,63,98,2018656848
115,19,19,Jits_Linear_5,3,5,56,103,2018677216
115,19,19,Jits_Linear_5,0,1,48,37,2019107352
115,19,19,Jits_Linear_5,1,5,80,127,2019147160
115,19,19,Jits_Linear_5,2,5,56,103,2019157356
115,19,19,Jits_Linear_5,3,5,63,98,2019166656
115,19,19,Jits_Linear_5,0,1,48,43,2019648384
115,19,19,Jits_Linear_5,1,5,80,127,2019676660
115,19,19,Jits_Linear_5,2,5,56,103,2019696896
115,19,19,Jits_Linear_5,3,5,63,98,2019766884
115,19,19,Jits_Linear_5,0,1,48,35,2020186732
115,19,19,Jits_Linear_5,1,5,56,103,2020226272
115,19,19,Jits_Linear_5,2,5,80,127,2020257068
115,19,19,Jits_Linear_5,3,5,63,98,2020276556
115,19,19,Jits_Linear_5,0,1,48,26,2020724464
115,19,19,Jits_Linear_5,1,5,63,98,2020767084
115,19,19,Jits_Linear_5,2,5,56,103,2020826492
115,19,19,Jits_Linear_5,3,5,80,127,2020857064
115,19,19,Jits_Linear_5,0,1,48,31,2021247936
115,19,19,Jits_Linear_5,1,5,63,98,2021306856
115,19,19,Jits_Linear_5,2,5,80,127,2021310072
115,19,19,Jits_Linear_5,3,5,56,103,2021396976
115,19,19,Jits_Linear_5,0,1,48,37,2021810096
115,19,19,Jits_Linear_5,1,5,56,103,2021877040
115,19,19,Jits_Linear_5,2,5,63,98,2021906924
115,19,19,Jits_Linear_5,3,5,80,127,2021946788
115,19,19,Jits_Linear_5,0,1,48,35,2022385616
115,19,19,Jits_Linear_5,1,5,63,98,2022426852
115,19,19,Jits_Linear_5,2,5,56,103,2022467016
115,19,19,Jits_Linear_5,3,5,80,127,2022487384
115,19,19,Jits_Linear_5,0,1,48,39,2022924868
115,19,19,Jits_Linear_5,1,5,63,98,2022987152
115,19,19,Jits_Linear_5,2,5,56,103,2023027004
115,19,19,Jits_Linear_5,3,5,80,127,2023037224
115,19,19,Jits_Linear_5,0,1,48,40,2023494516
115,19,19,Jits_Linear_5,1,5,80,127,2023516732
115,19,19,Jits_Linear_5,2,5,63,98,2023587772
115,19,19,Jits_Linear_5,3,5,56,103,2023606888
115,19,19,Jits_Linear_5,0,1,48,36,2024059952
115,19,19,Jits_Linear_5,1,5,56,103,2024066272
115,19,19,Jits_Linear_5,2,5,80,127,2024086880
115,19,19,Jits_Linear_5,3,5,63,98,2024126896
115,19,19,Jits_Linear_5,0,1,48,35,2024583376
115,19,19,Jits_Linear_5,1,5,63,98,2024636832
115,19,19,Jits_Linear_5,2,5,80,127,2024657216
115,19,19,Jits_Linear_5,3,5,56,103,2024697068
115,19,19,Jits_Linear_5,0,1,48,29,2025126524
115,19,19,Jits_Linear_5,1,5,63,98,2025197052
115,19,19,Jits_Linear_5,2,5,56,103,2025217364
115,19,19,Jits_Linear_5,3,5,80,127,2025226944
115,19,19,Jits_Linear_5,0,1,48,29,2025689512
115,19,19,Jits_Linear_5,1,5,80,127,2025767164
115,19,19,Jits_Linear_5,2,5,56,103,2025787008
115,19,19,Jits_Linear_5,3,5,63,98,2025816312
115,19,19,Jits_Linear_5,0,1,48,37,2026236252
115,19,19,Jits_Linear_5,1,5,56,103,2026407264
115,19,19,Jits_Linear_5,2,5,80,127,2026410328
115,19,19,Jits_Linear_5,3,5,63,98,2026426824
115,19,19,Jits_Linear_5,0,1,48,35,2026881828
115,19,19,Jits_Linear_5,1,5,63,98,2026896848
115,19,19,Jits_Linear_5,2,5,56,103,2026926448
115,19,19,Jits_Linear_5,3,5,80,127,2026986900
115,19,19,Jits_Linear_5,0,1,48,38,2027421444
115,19,19,Jits_Linear_5,1,5,63,98,2027546964
115,19,19,Jits_Linear_5,2,5,56,103,2027557088
115,19,19,Jits_Linear_5,3,5,80,127,2027566312
115,19,19,Jits_Linear_5,0,1,48,31,2028051808
115,19,19,Jits_Linear_5,1,5,56,103,2028067052
115,19,19,Jits_Linear_5,2,5,80,127,2028096952
115,19,19,Jits_Linear_5,3,5,63,98,2028107076
115,19,19,Jits_Linear_5,0,1,48,29,2028632188
115,19,19,Jits_Linear_5,1,5,63,98,2028676380
115,19,19,Jits_Linear_5,2,5,56,103,2028686724
115,19,19,Jits_Linear_5,3,5,80,127,2028707112
115,19,19,Jits_Linear_5,0,5,56,103,2029177172
115,19,19,Jits_Linear_5,1,1,48,32,2029230564
115,19,19,Jits_Linear_5,2,5,63,98,2029236884
115,19,19,Jits_Linear_5,3,5,80,127,2029240248
115,19,19,Jits_Linear_5,0,1,48,38,2029750476
115,19,19,Jits_Linear_5,1,5,80,127,2029777252
115,19,19,Jits_Linear_5,2,5,56,103,2029786776
115,19,19,Jits_Linear_5,3,5,63,98,2029857120
115,19,19,Jits_Linear_5,0,1,48,32,2030344432
115,19,19,Jits_Linear_5,1,5,80,127,2030346768
115,19,19,Jits_Linear_5,2,5,56,103,2030417128
115,19,19,Jits_Linear_5,3,5,63,98,2030426428
115,19,19,Jits_Linear_5,0,1,48,43,2030890256
115,19,19,Jits_Linear_5,1,5,63,98,2030967012
115,19,19,Jits_Linear_5,2,5,56,103,2030977380
115,19,19,Jits_Linear_5,3,5,80,127,2030996928
115,19,19,Jits_Linear_5,0,1,48,40,2031483840
115,19,19,Jits_Linear_5,1,5,80,127,2031496540
115,19,19,Jits_Linear_5,2,5,63,98,2031556860
115,19,19,Jits_Linear_5,3,5,56,103,2031596860
115,19,19,Jits_Linear_5,0,1,48,38,2032069024
115,19,19,Jits_Linear_5,1,5,56,103,2032127268
115,19,19,Jits_Linear_5,2,5,63,98,2032136496
115,19,19,Jits_Linear_5,3,5,80,127,2032176716
115,19,19,Jits_Linear_5,0,1,48,42,2032674044
115,19,19,Jits_Linear_5,1,5,56,103,2032677524
115,19,19,Jits_Linear_5,2,5,80,127,2032707052
115,19,19,Jits_Linear_5,3,5,63,98,2032757032
115,19,19,Jits_Linear_5,0,1,48,27,2033246784
115,19,19,Jits_Linear_5,1,5,56,103,2033307072
115,19,19,Jits_Linear_5,2,5,63,98,2033346996
115,19,19,Jits_Linear_5,3,5,80,127,2033350360
115,19,19,Jits_Linear_5,0,1,48,29,2033851072
115,19,19,Jits_Linear_5,1,5,56,103,2033896812
115,19,19,Jits_Linear_5,2,5,63,98,2033907084
115,19,19,Jits_Linear_5,3,5,80,127,2033926792
115,19,19,Jits_Linear_5,0,1,48,35,2034425392
115,19,19,Jits_Linear_5,1,5,56,103,2034446768
115,19,19,Jits_Linear_5,2,5,80,127,2034449684
115,19,19,Jits_Linear_5,3,5,63,98,2034486856
115,19,19,Jits_Linear_5,0,1,48,38,2034999980
115,19,19,Jits_Linear_5,1,5,63,98,2035076608
115,19,19,Jits_Linear_5,2,5,56,103,2035107168
115,19,19,Jits_Linear_5,3,5,80,127,2035126580
115,19,19,Jits_Linear_5,0,5,80,127,2035646880
115,19,19,Jits_Linear_5,1,1,48,39,2035649396
115,19,19,Jits_Linear_5,2,5,56,103,2035657072
115,19,19,Jits_Linear_5,3,5,63,98,2035667416
115,19,19,Jits_Linear_5,0,1,48,28,2036234660
115,19,19,Jits_Linear_5,1,5,56,103,2036247040
115,19,19,Jits_Linear_5,2,5,80,127,2036286756
115,19,19,Jits_Linear_5,3,5,63,98,2036316732
115,19,19,Jits_Linear_5,0,1,48,40,2036789772
115,19,19,Jits_Linear_5,1,5,63,98,2036857160
115,19,19,Jits_Linear_5,2,5,80,127,2036866632
115,19,19,Jits_Linear_5,3,5,56,103,2036876752
115,19,19,Jits_Linear_5,0,1,48,48,2037412424
115,19,19,Jits_Linear_5,1,5,56,103,2037436956
115,19,19,Jits_Linear_5,2,5,63,98,2037506568
115,19,19,Jits_Linear_5,3,5,80,127,2037516752
115,19,19,Jits_Linear_5,0,5,80,127,2038047088
115,19,19,Jits_Linear_5,1,1,48,58,2038051928
115,19,19,Jits_Linear_5,2,5,56,103,2038057504
115,19,19,Jits_Linear_5,3,5,63,98,2038106732
115,19,19,Jits_Linear_5,0,1,48,46,2038657668
115,19,19,Jits_Linear_5,1,5,80,127,2038666684
115,19,19,Jits_Linear_5,2,5,56,103,2038727004
115,19,19,Jits_Linear_5,3,5,63,98,2038756812
115,19,19,Jits_Linear_5,0,1,48,35,2039234904
115,19,19,Jits_Linear_5,1,5,56,103,2039277028
115,19,19,Jits_Linear_5,2,5,80,127,2039279944
115,19,19,Jits_Linear_5,3,5,63,98,2039316896
115,19,19,Jits_Linear_5,0,1,48,33,2039825080
115,19,19,Jits_Linear_5,1,5,56,103,2039916960
115,19,19,Jits_Linear_5,2,5,63,98,2039946720
115,19,19,Jits_Linear_5,3,5,80,127,2039956844
115,19,19,Jits_Linear_5,0,1,48,32,2040453940
115,19,19,Jits_Linear_5,1,5,63,98,2040536624
115,19,19,Jits_Linear_5,2,5,80,127,2040546656
115,19,19,Jits_Linear_5,3,5,56,103,2040557000
115,19,19,Jits_Linear_5,0,5,80,127,2041096628
115,19,19,Jits_Linear_5,1,1,48,44,2041103636
115,19,19,Jits_Linear_5,2,5,56,103,2041146752
115,19,19,Jits_Linear_5,3,5,63,98,2041149668
115,19,19,Jits_Linear_5,0,1,48,44,2041721696
115,19,19,Jits_Linear_5,1,5,56,103,2041746928
115,19,19,Jits_Linear_5,2,5,80,127,2041767240
115,19,19,Jits_Linear_5,3,5,63,98,2041776540
115,19,19,Jits_Linear_5,0,1,48,48,2042333860
115,19,19,Jits_Linear_5,1,5,63,98,2042347008
115,19,19,Jits_Linear_5,2,5,56,103,2042376688
115,19,19,Jits_Linear_5,3,5,80,127,2042396996
115,19,19,Jits_Linear_5,0,1,48,52,2042953272
115,19,19,Jits_Linear_5,1,5,56,103,2042976540
115,19,19,Jits_Linear_5,2,5,80,127,2042986808
115,19,19,Jits_Linear_5,3,5,63,98,2043056796
115,19,19,Jits_Linear_5,0,5,63,98,2043586916
115,19,19,Jits_Linear_5,1,5,80,127,2043626932
115,19,19,Jits_Linear_5,2,1,48,39,2043649084
115,19,19,Jits_Linear_5,3,5,56,103,2043666788
115,19,19,Jits_Linear_5,0,5,56,103,2044226860
115,19,19,Jits_Linear_5,1,5,63,98,2044237056
115,19,19,Jits_Linear_5,2,1,48,54,2044249760
115,19,19,Jits_Linear_5,3,5,80,127,2044256608
115,19,19,Jits_Linear_5,0,1,48,55,2044829264
115,19,19,Jits_Linear_5,1,5,63,98,2044896576
115,19,19,Jits_Linear_5,2,5,80,127,2044917188
115,19,19,Jits_Linear_5,3,5,56,103,2044936660
115,19,19,Jits_Linear_5,0,5,56,103,2045467072
115,19,19,Jits_Linear_5,1,1,48,52,2045480232
115,19,19,Jits_Linear_5,2,5,80,127,2045546792
115,19,19,Jits_Linear_5,3,5,63,98,2045557360
115,19,19,Jits_Linear_5,0,1,48,50,2046096536
115,19,19,Jits_Linear_5,1,5,80,127,2046136792
115,19,19,Jits_Linear_5,2,5,63,98,2046146916
115,19,19,Jits_Linear_5,3,5,56,103,2046176664
115,19,19,Jits_Linear_5,0,5,63,98,2046726396
115,19,19,Jits_Linear_5,1,1,48,48,2046750484
115,19,19,Jits_Linear_5,2,5,80,127,2046766624
115,19,19,Jits_Linear_5,3,5,56,103,2046826796
115,19,19,Jits_Linear_5,0,1,48,47,2047351460
115,19,19,Jits_Linear_5,1,5,63,98,2047366428
115,19,19,Jits_Linear_5,2,5,56,103,2047416708
115,19,19,Jits_Linear_5,3,5,80,127,2047447356
115,19,19,Jits_Linear_5,0,1,48,51,2047957268
115,19,19,Jits_Linear_5,1,5,80,127,2048016708
115,19,19,Jits_Linear_5,2,5,63,98,2048027128
115,19,19,Jits_Linear_5,3,5,56,103,2048096572
115,19,19,Jits_Linear_5,0,1,48,50,2048620584
115,19,19,Jits_Linear_5,1,5,80,127,2048727616
115,19,19,Jits_Linear_5,2,5,56,103,2048736688
115,19,19,Jits_Linear_5,3,5,63,98,2048739680
115,19,19,Jits_Linear_5,0,5,56,103,2049306960
115,19,19,Jits_Linear_5,1,5,80,127,2049326524
115,19,19,Jits_Linear_5,2,5,63,98,2049336568
115,19,19,Jits_Linear_5,3,1,48,46,2049379840
115,19,19,Jits_Linear_5,0,5,63,98,2049957348
115,19,19,Jits_Linear_5,1,1,48,39,2049965496
115,19,19,Jits_Linear_5,2,5,56,103,2049997356
115,19,19,Jits_Linear_5,3,5,80,127,2050016696
115,19,19,Jits_Linear_5,0,1,48,44,2050584828
115,19,19,Jits_Linear_5,1,5,63,98,2050606428
115,19,19,Jits_Linear_5,2,5,56,103,2050666820
115,19,19,Jits_Linear_5,3,5,80,127,2050669960
115,19,19,Jits_Linear_5,0,5,56,103,2051216712
115,19,19,Jits_Linear_5,1,1,48,38,2051234580
115,19,19,Jits_Linear_5,2,5,80,127,2051237316
115,19,19,Jits_Linear_5,3,5,63,98,2051277328
115,19,19,Jits_Linear_5,0,1,48,51,2051827112
115,19,19,Jits_Linear_5,1,5,56,103,2051896592
115,19,19,Jits_Linear_5,2,5,63,98,2051917424
115,19,19,Jits_Linear_5,3,5,80,127,2051927532
115,19,19,Jits_Linear_5,0,1,48,29,2052495172
115,19,19,Jits_Linear_5,1,5,80,127,2052517224
115,19,19,Jits_Linear_5,2,5,56,103,2052547272
115,19,19,Jits_Linear_5,3,5,63,98,2052586988
115,19,19,Jits_Linear_5,0,1,48,39,2053157360
115,19,19,Jits_Linear_5,1,5,80,127,2053176792
115,19,19,Jits_Linear_5,2,5,56,103,2053197252
115,19,19,Jits_Linear_5,3,5,63,98,2053256532
115,19,19,Jits_Linear_5,0,1,48,34,2053798668
115,19,19,Jits_Linear_5,1,5,56,103,2053837284
115,19,19,Jits_Linear_5,2,5,80,127,2053856624
115,19,19,Jits_Linear_5,3,5,63,98,2053917220
115,19,19,Jits_Linear_5,0,1,48,24,2054463624
115,19,19,Jits_Linear_5,1,5,80,127,2054477368
115,19,19,Jits_Linear_5,2,5,56,103,2054487492
115,19,19,Jits_Linear_5,3,5,63,98,2054527304
115,19,19,Jits_Linear_5,0,1,48,32,2055069196
115,19,19,Jits_Linear_5,1,5,63,98,2055136584
115,19,19,Jits_Linear_5,2,5,56,103,2055176428
115,19,19,Jits_Linear_5,3,5,80,127,2055179500
115,19,19,Jits_Linear_5,0,1,48,43,2055734828
115,19,19,Jits_Linear_5,1,5,63,98,2055816472
115,19,19,Jits_Linear_5,2,5,80,127,2055856396
115,19,19,Jits_Linear_5,3,5,56,103,2055887344
115,19,19,Jits_Linear_5,0,1,48,43,2056426264
115,19,19,Jits_Linear_5,1,5,56,103,2056466676
115,19,19,Jits_Linear_5,2,5,63,98,2056477168
115,19,19,Jits_Linear_5,3,5,80,127,2056506696
115,19,19,Jits_Linear_5,0,1,48,35,2057071356
115,19,19,Jits_Linear_5,1,5,80,127,2057127160
115,19,19,Jits_Linear_5,2,5,63,98,2057196904
115,19,19,Jits_Linear_5,3,5,56,103,2057207172
115,19,19,Jits_Linear_5,0,1,48,38,2057762564
115,19,19,Jits_Linear_5,1,5,63,98,2057797216
115,19,19,Jits_Linear_5,2,5,56,103,2057866616
115,19,19,Jits_Linear_5,3,5,80,127,2057876960
115,19,19,Jits_Linear_5,0,1,48,48,2058466252
115,19,19,Jits_Linear_5,1,5,63,98,2058467748
115,19,19,Jits_Linear_5,2,5,56,103,2058487384
115,19,19,Jits_Linear_5,3,5,80,127,2058527176
115,19,19,Jits_Linear_5,0,5,56,103,2059146600
115,19,19,Jits_Linear_5,1,1,48,36,2059156420
115,19,19,Jits_Linear_5,2,5,63,98,2059157988
115,19,19,Jits_Linear_5,3,5,80,127,2059236664
115,19,19,Jits_Linear_5,0,5,63,98,2059807380
115,19,19,Jits_Linear_5,1,5,56,103,2059836760
115,19,19,Jits_Linear_5,2,1,48,26,2059842944
115,19,19,Jits_Linear_5,3,5,80,127,2059876840
115,19,19,Jits_Linear_5,0,5,56,103,2060476712
115,19,19,Jits_Linear_5,1,1,48,39,2060479828
115,19,19,Jits_Linear_5,2,5,63,98,2060516720
115,19,19,Jits_Linear_5,3,5,80,127,2060556660
115,19,19,Jits_Linear_5,0,1,48,35,2061124184
115,19,19,Jits_Linear_5,1,5,80,127,2061156664
115,19,19,Jits_Linear_5,2,5,56,103,2061236548
115,19,19,Jits_Linear_5,3,5,63,98,2061246820
115,19,19,Jits_Linear_5,0,1,48,35,2061822144
115,19,19,Jits_Linear_5,1,5,56,103,2061876572
115,19,19,Jits_Linear_5,2,5,63,98,2061879636
115,19,19,Jits_Linear_5,3,5,80,127,2061886768
115,19,19,Jits_Linear_5,0,1,48,41,2062535760
115,19,19,Jits_Linear_5,1,5,56,103,2062577136
115,19,19,Jits_Linear_5,2,5,63,98,2062596404
115,19,19,Jits_Linear_5,3,5,80,127,2062606748
115,19,19,Jits_Linear_5,0,5,63,98,2063216936
115,19,19,Jits_Linear_5,1,5,80,127,2063227156
115,19,19,Jits_Linear_5,2,1,48,31,2063236428
115,19,19,Jits_Linear_5,3,5,56,103,2063246564
115,19,19,Jits_Linear_5,0,1,48,27,2063906268
115,19,19,Jits_Linear_5,1,5,63,98,2063907832
115,19,19,Jits_Linear_5,2,5,56,103,2063987332
115,19,19,Jits_Linear_5,3,5,80,127,2063990324
115,19,19,Jits_Linear_5,0,1,48,45,2064590692
115,19,19,Jits_Linear_5,1,5,63,98,2064597392
115,19,19,Jits_Linear_5,2,5,56,103,2064616808
115,19,19,Jits_Linear_5,3,5,80,127,2064646484
115,19,19,Jits_Linear_5,0,1,48,45,2065269072
115,19,19,Jits_Linear_5,1,5,56,103,2065286504
115,19,19,Jits_Linear_5,2,5,63,98,2065307264
115,19,19,Jits_Linear_5,3,5,80,127,2065317388
115,19,19,Jits_Linear_5,0,1,48,43,2065948292
115,19,19,Jits_Linear_5,1,5,56,103,2066007508
115,19,19,Jits_Linear_5,2,5,63,98,2066037256
115,19,19,Jits_Linear_5,3,5,80,127,2066041504
115,19,19,Jits_Linear_5,0,5,56,103,2066647368
115,19,19,Jits_Linear_5,1,1,48,41,2066669216
115,19,19,Jits_Linear_5,2,5,63,98,2066687304
115,19,19,Jits_Linear_5,3,5,80,127,2066746720
115,19,19,Jits_Linear_5,0,1,48,39,2067352116
115,19,19,Jits_Linear_5,1,5,56,103,2067357168
115,19,19,Jits_Linear_5,2,5,63,98,2067367440
115,19,19,Jits_Linear_5,3,5,80,127,2067426636
115,19,19,Jits_Linear_5,0,1,48,40,2068046456
115,19,19,Jits_Linear_5,1,5,56,103,2068056448
115,19,19,Jits_Linear_5,2,5,80,127,2068077128
115,19,19,Jits_Linear_5,3,5,63,98,2068106532
115,19,19,Jits_Linear_5,0,1,48,29,2068728220
115,19,19,Jits_Linear_5,1,5,80,127,2068757088
115,19,19,Jits_Linear_5,2,5,56,103,2068767136
115,19,19,Jits_Linear_5,3,5,63,98,2068786552
115,19,19,Jits_Linear_5,0,1,48,25,2069410132
115,19,19,Jits_Linear_5,1,5,63,98,2069447248
115,19,19,Jits_Linear_5,2,5,80,127,2069527032
115,19,19,Jits_Linear_5,3,5,56,103,2069537152
115,19,19,Jits_Linear_5,0,1,48,30,2070166536
115,19,19,Jits_Linear_5,1,5,80,127,2070206792
115,19,19,Jits_Linear_5,2,5,56,103,2070227248
115,19,19,Jits_Linear_5,3,5,63,98,2070230316
115,19,19,Jits_Linear_5,0,1,48,38,2070871268
115,19,19,Jits_Linear_5,1,5,63,98,2070886880
115,19,19,Jits_Linear_5,2,5,80,127,2070890244
115,19,19,Jits_Linear_5,3,5,56,103,2070947220
115,19,19,Jits_Linear_5,0,5,56,103,2071577192
115,19,19,Jits_Linear_5,1,5,80,127,2071587240
115,19,19,Jits_Linear_5,2,1,48,37,2071609984
115,19,19,Jits_Linear_5,3,5,63,98,2071627320
115,19,19,Jits_Linear_5,0,1,48,38,2072246884
115,19,19,Jits_Linear_5,1,5,56,103,2072267284
115,19,19,Jits_Linear_5,2,5,63,98,2072326484
115,19,19,Jits_Linear_5,3,5,80,127,2072336756
115,19,19,Jits_Linear_5,0,1,48,55,2072902316
115,19,19,Jits_Linear_5,1,5,63,98,2072987192
115,19,19,Jits_Linear_5,2,5,80,127,2073027116
115,19,19,Jits_Linear_5,3,5,56,103,2073067128
115,19,19,Jits_Linear_5,0,1,48,52,2073609344
115,19,19,Jits_Linear_5,1,5,56,103,2073696512
115,19,19,Jits_Linear_5,2,5,63,98,2073776468
115,19,19,Jits_Linear_5,3,5,80,127,2073780204
115,19,19,Jits_Linear_5,0,1,48,41,2074347604
115,19,19,Jits_Linear_5,1,5,80,127,2074466596
115,19,19,Jits_Linear_5,2,5,56,103,2074497344
115,19,19,Jits_Linear_5,3,5,63,98,2074500484
115,19,19,Jits_Linear_5,0,5,56,103,2075146804
115,19,19,Jits_Linear_5,1,5,80,127,2075167116
115,19,19,Jits_Linear_5,2,1,48,50,2075198784
115,19,19,Jits_Linear_5,3,5,63,98,2075207124
115,19,19,Jits_Linear_5,0,5,80,127,2075847020
115,19,19,Jits_Linear_5,1,5,63,98,2075866436
115,19,19,Jits_Linear_5,2,1,48,46,2075869256
115,19,19,Jits_Linear_5,3,5,56,103,2075927040
115,19,19,Jits_Linear_5,0,1,48,44,2076567660
115,19,19,Jits_Linear_5,1,5,63,98,2076577124
115,19,19,Jits_Linear_5,2,5,56,103,2076587392
115,19,19,Jits_Linear_5,3,5,80,127,2076636476
115,19,19,Jits_Linear_5,0,1,48,48,2077238608
115,19,19,Jits_Linear_5,1,5,56,103,2077286884
115,19,19,Jits_Linear_5,2,5,63,98,2077307224
115,19,19,Jits_Linear_5,3,5,80,127,2077316448
115,19,19,Jits_Linear_5,0,1,48,43,2077959928
115,19,19,Jits_Linear_5,1,5,56,103,2078007164
115,19,19,Jits_Linear_5,2,5,63,98,2078010000
115,19,19,Jits_Linear_5,3,5,80,127,2078027096
115,19,19,Jits_Linear_5,0,1,48,46,2078665068
115,19,19,Jits_Linear_5,1,5,63,98,2078776640
115,19,19,Jits_Linear_5,2,5,56,103,2078807512
115,19,19,Jits_Linear_5,3,5,80,127,2078837188
115,19,19,Jits_Linear_5,0,5,80,127,2079467044
115,19,19,Jits_Linear_5,1,1,48,41,2079526964
115,19,19,Jits_Linear_5,2,5,56,103,2079556872
115,19,19,Jits_Linear_5,3,5,63,98,2079559944
115,19,19,Jits_Linear_5,0,5,56,103,2080197072
115,19,19,Jits_Linear_5,1,5,80,127,2080200060
115,19,19,Jits_Linear_5,2,1,48,45,2080212324
115,19,19,Jits_Linear_5,3,5,63,98,2080277084
115,19,19,Jits_Linear_5,0,5,80,127,2080927020
115,19,19,Jits_Linear_5,1,1,48,38,2080961604
115,19,19,Jits_Linear_5,2,5,63,98,2080986432
115,19,19,Jits_Linear_5,3,5,56,103,2081017080
115,19,19,Jits_Linear_5,0,5,63,98,2081657276
115,19,19,Jits_Linear_5,1,5,80,127,2081666424
115,19,19,Jits_Linear_5,2,1,48,38,2081692912
115,19,19,Jits_Linear_5,3,5,56,103,2081737000
115,19,19,Jits_Linear_5,0,1,48,46,2082375472
115,19,19,Jits_Linear_5,1,5,56,103,2082406964
115,19,19,Jits_Linear_5,2,5,80,127,2082436368
115,19,19,Jits_Linear_5,3,5,63,98,2082486780
115,19,19,Jits_Linear_5,0,1,48,35,2083104128
115,19,19,Jits_Linear_5,1,5,63,98,2083186960
115,19,19,Jits_Linear_5,2,5,56,103,2083217016
115,19,19,Jits_Linear_5,3,5,80,127,2083220080
115,19,19,Jits_Linear_5,0,1,48,40,2083851976
115,19,19,Jits_Linear_5,1,5,63,98,2083927312
115,19,19,Jits_Linear_5,2,5,80,127,2083946948
115,19,19,Jits_Linear_5,3,5,56,103,2083957128
115,19,19,Jits_Linear_5,0,1,48,35,2084623876
115,19,19,Jits_Linear_5,1,5,56,103,2084677108
115,19,19,Jits_Linear_5,2,5,63,98,2084679948
115,19,19,Jits_Linear_5,3,5,80,127,2084696448
115,19,19,Jits_Linear_5,0,1,48,43,2085354260
115,19,19,Jits_Linear_5,1,5,56,103,2085377452
115,19,19,Jits_Linear_5,2,5,63,98,2085386748
115,19,19,Jits_Linear_5,3,5,80,127,2085417396
115,19,19,Jits_Linear_5,0,1,48,40,2086089304
115,19,19,Jits_Linear_5,1,5,63,98,2086156988
115,19,19,Jits_Linear_5,2,5,80,127,2086177076
115,19,19,Jits_Linear_5,3,5,56,103,2086217000
115,19,19,Jits_Linear_5,0,1,48,29,2086892444
115,19,19,Jits_Linear_5,1,5,56,103,2086936912
115,19,19,Jits_Linear_5,2,5,63,98,2086977072
115,19,19,Jits_Linear_5,3,5,80,127,2086980288
115,19,19,Jits_Linear_5,0,5,80,127,2087627072
115,19,19,Jits_Linear_5,1,1,48,44,2087666180
115,19,19,Jits_Linear_5,2,5,56,103,2087667828
115,19,19,Jits_Linear_5,3,5,63,98,2087717208
115,19,19,Jits_Linear_5,0,1,48,63,2088376856
115,19,19,Jits_Linear_5,1,5,56,103,2088437044
115,19,19,Jits_Linear_5,2,5,80,127,2088447316
115,19,19,Jits_Linear_5,3,5,63,98,2088477048
115,19,19,Jits_Linear_5,0,1,48,58,2089127628
115,19,19,Jits_Linear_5,1,5,56,103,2089136496
115,19,19,Jits_Linear_5,2,5,80,127,2089176440
115,19,19,Jits_Linear_5,3,5,63,98,2089226924
115,19,19,Jits_Linear_5,0,1,48,54,2089874116
115,19,19,Jits_Linear_5,1,5,56,103,2089897380
115,19,19,Jits_Linear_5,2,5,80,127,2089937248
115,19,19,Jits_Linear_5,3,5,63,98,2089986612
115,19,19,Jits_Linear_5,0,1,48,49,2090619724
115,19,19,Jits_Linear_5,1,5,80,127,2090647028
115,19,19,Jits_Linear_5,2,5,63,98,2090726888
115,19,19,Jits_Linear_5,3,5,56,103,2090736936
115,19,19,Jits_Linear_5,0,1,48,55,2091404600
115,19,19,Jits_Linear_5,1,5,80,127,2091456844
115,19,19,Jits_Linear_5,2,5,56,103,2091467336
115,19,19,Jits_Linear_5,3,5,63,98,2091486676
115,19,19,Jits_Linear_5,0,1,48,55,2092174928
115,19,19,Jits_Linear_5,1,5,63,98,2092187012
115,19,19,Jits_Linear_5,2,5,56,103,2092256768
115,19,19,Jits_Linear_5,3,5,80,127,2092259760
115,19,19,Jits_Linear_5,0,1,48,63,2092936176
115,19,19,Jits_Linear_5,1,5,80,127,2092946844
115,19,19,Jits_Linear_5,2,5,63,98,2092996900
115,19,19,Jits_Linear_5,3,5,56,103,2093036900
115,19,19,Jits_Linear_5,0,1,48,62,2093670060
115,19,19,Jits_Linear_5,1,5,63,98,2093756732
115,19,19,Jits_Linear_5,2,5,56,103,2093796808
115,19,19,Jits_Linear_5,3,5,80,127,2093807080
115,19,19,Jits_Linear_5,0,1,48,40,2094491968
115,19,19,Jits_Linear_5,1,5,63,98,2094516652
115,19,19,Jits_Linear_5,2,5,56,103,2094536964
115,19,19,Jits_Linear_5,3,5,80,127,2094556672
115,19,19,Jits_Linear_5,0,1,48,45,2095246452
115,19,19,Jits_Linear_5,1,5,80,127,2095247864
115,19,19,Jits_Linear_5,2,5,56,103,2095257088
115,19,19,Jits_Linear_5,3,5,63,98,2095277324
115,19,19,Jits_Linear_5,0,1,48,53,2095956476
115,19,19,Jits_Linear_5,1,5,63,98,2096047916
115,19,19,Jits_Linear_5,2,5,56,103,2096087336
115,19,19,Jits_Linear_5,3,5,80,127,2096117016
115,19,19,Jits_Linear_5,0,1,48,46,2096758348
115,19,19,Jits_Linear_5,1,5,56,103,2096826660
115,19,19,Jits_Linear_5,2,5,63,98,2096856620
115,19,19,Jits_Linear_5,3,5,80,127,2096887120
115,19,19,Jits_Linear_5,0,1,48,21,2097548108
115,19,19,Jits_Linear_5,1,5,80,127,2097577208
115,19,19,Jits_Linear_5,2,5,56,103,2097646952
115,19,19,Jits_Linear_5,3,5,63,98,2097649944
115,19,19,Jits_Linear_5,0,5,56,103,2098366788
115,19,19,Jits_Linear_5,1,1,48,57,2098373868
115,19,19,Jits_Linear_5,2,5,63,98,2098416912
115,19,19,Jits_Linear_5,3,5,80,127,2098446660
115,19,19,Jits_Linear_5,0,1,48,54,2099111536
115,19,19,Jits_Linear_5,1,5,63,98,2099126628
115,19,19,Jits_Linear_5,2,5,80,127,2099129992
115,19,19,Jits_Linear_5,3,5,56,103,2099187096
115,19,19,Jits_Linear_5,0,1,48,62,2099884340
115,19,19,Jits_Linear_5,1,5,56,103,2099936508
115,19,19,Jits_Linear_5,2,5,80,127,2099946924
115,19,19,Jits_Linear_5,3,5,63,98,2099997188
115,19,19,Jits_Linear_5,0,1,48,53,2100629248
115,19,19,Jits_Linear_5,1,5,63,98,2100696416
115,19,19,Jits_Linear_5,2,5,56,103,2100706536
115,19,19,Jits_Linear_5,3,5,80,127,2100737540
115,19,19,Jits_Linear_5,0,1,48,51,2101388632
115,19,19,Jits_Linear_5,1,5,63,98,2101516688
115,19,19,Jits_Linear_5,2,5,80,127,2101520052
115,19,19,Jits_Linear_5,3,5,56,103,2101547340
115,19,19,Jits_Linear_5,0,1,48,47,2102210864
115,19,19,Jits_Linear_5,1,5,63,98,2102326568
115,19,19,Jits_Linear_5,2,5,56,103,2102347100
115,19,19,Jits_Linear_5,3,5,80,127,2102350168
115,19,19,Jits_Linear_5,0,5,63,98,2103077128
115,19,19,Jits_Linear_5,1,1,48,46,2103081736
115,19,19,Jits_Linear_5,2,5,56,103,2103146804
115,19,19,Jits_Linear_5,3,5,80,127,2103167440
115,19,19,Jits_Linear_5,0,5,56,103,2103856668
115,19,19,Jits_Linear_5,1,1,48,49,2103857784
115,19,19,Jits_Linear_5,2,5,63,98,2103866784
115,19,19,Jits_Linear_5,3,5,80,127,2103956704
115,19,19,Jits_Linear_5,0,1,48,46,2104653040
115,19,19,Jits_Linear_5,1,5,56,103,2104666560
115,19,19,Jits_Linear_5,2,5,80,127,2104706524
115,19,19,Jits_Linear_5,3,5,63,98,2104716648
115,19,19,Jits_Linear_5,0,1,48,58,2105418420
115,19,19,Jits_Linear_5,1,5,56,103,2105486656
115,19,19,Jits_Linear_5,2,5,63,98,2105518936
115,19,19,Jits_Linear_5,3,5,80,127,2105547116
115,19,19,Jits_Linear_5,0,1,48,54,2106210472
115,19,19,Jits_Linear_5,1,5,80,127,2106246640
115,19,19,Jits_Linear_5,2,5,63,98,2106286580
115,19,19,Jits_Linear_5,3,5,56,103,2106307044
115,19,19,Jits_Linear_5,0,1,48,57,2107024736
115,19,19,Jits_Linear_5,1,5,56,103,2107087388
115,19,19,Jits_Linear_5,2,5,80,127,2107106652
115,19,19,Jits_Linear_5,3,5,63,98,2107127248
115,19,19,Jits_Linear_5,0,1,48,57,2107812572
115,19,19,Jits_Linear_5,1,5,63,98,2107857412
115,19,19,Jits_Linear_5,2,5,56,103,2107866784
115,19,19,Jits_Linear_5,3,5,80,127,2107926940
115,19,19,Jits_Linear_5,0,1,48,54,2108593536
115,19,19,Jits_Linear_5,1,5,56,103,2108667224
115,19,19,Jits_Linear_5,2,5,63,98,2108736892
115,19,19,Jits_Linear_5,3,5,80,127,2108757428
115,19,19,Jits_Linear_5,0,1,48,49,2109423952
115,19,19,Jits_Linear_5,1,5,56,103,2109477332
115,19,19,Jits_Linear_5,2,5,63,98,2109506936
115,19,19,Jits_Linear_5,3,5,80,127,2109546860
115,19,19,Jits_Linear_5,0,1,48,51,2110221404
115,19,19,Jits_Linear_5,1,5,63,98,2110276956
115,19,19,Jits_Linear_5,2,5,56,103,2110327464
115,19,19,Jits_Linear_5,3,5,80,127,2110337660
115,19,19,Jits_Linear_5,0,1,48,51,2110992764
115,19,19,Jits_Linear_5,1,5,56,103,2111126852
115,19,19,Jits_Linear_5,2,5,63,98,2111177204
115,19,19,Jits_Linear_5,3,5,80,127,2111187400
115,19,19,Jits_Linear_5,0,5,56,103,2111907464
115,19,19,Jits_Linear_5,1,5,63,98,2111917436
115,19,19,Jits_Linear_5,2,1,48,39,2111989556
115,19,19,Jits_Linear_5,3,5,80,127,2111997448
115,19,19,Jits_Linear_5,0,9999,9999,9999,2003144824
115,19,19,Jits_Linear_5,1,9999,9999,9999,2003625060
115,19,19,Jits_Linear_5,2,9999,9999,9999,2004104252
115,19,19,Jits_Linear_5,3,9999,9999,9999,2004584520
115,19,19,Jits_Linear_5,4,9999,9999,9999,2005064808
115,19,19,Jits_Linear_5,5,9999,9999,9999,2005554240
115,19,19,Jits_Linear_5,6,9999,9999,9999,2006044788
115,19,19,Jits_Linear_5,7,9999,9999,9999,2006534228
115,19,19,Jits_Linear_5,8,9999,9999,9999,2007024700
115,19,19,Jits_Linear_5,9,9999,9999,9999,2007514216
115,19,19,Jits_Linear_5,10,9999,9999,9999,2008014964
115,19,19,Jits_Linear_5,11,9999,9999,9999,2008514668
115,19,19,Jits_Linear_5,12,9999,9999,9999,2009014352
115,19,19,Jits_Linear_5,13,9999,9999,9999,2009515080
115,19,19,Jits_Linear_5,14,9999,9999,9999,2010025032
115,19,19,Jits_Linear_5,15,9999,9999,9999,2010534984
115,19,19,Jits_Linear_5,16,9999,9999,9999,2011044936
115,19,19,Jits_Linear_5,17,9999,9999,9999,2011554888
115,19,19,Jits_Linear_5,18,9999,9999,9999,2012064836
115,19,19,Jits_Linear_5,19,9999,9999,9999,2012574792
115,19,19,Jits_Linear_5,20,9999,9999,9999,2013095008
115,19,19,Jits_Linear_5,21,9999,9999,9999,2013614188
115,19,19,Jits_Linear_5,22,9999,9999,9999,2014134340
115,19,19,Jits_Linear_5,23,9999,9999,9999,2014654568
115,19,19,Jits_Linear_5,24,9999,9999,9999,2015174724
115,19,19,Jits_Linear_5,25,9999,9999,9999,2015704164
115,19,19,Jits_Linear_5,26,9999,9999,9999,2016234576
115,19,19,Jits_Linear_5,27,9999,9999,9999,2016765044
115,19,19,Jits_Linear_5,28,9999,9999,9999,2017294404
115,19,19,Jits_Linear_5,29,9999,9999,9999,2017824884
115,19,19,Jits_Linear_5,30,9999,9999,9999,2018364504
115,19,19,Jits_Linear_5,31,9999,9999,9999,2018904128
115,19,19,Jits_Linear_5,32,9999,9999,9999,2019444792
115,19,19,Jits_Linear_5,33,9999,9999,9999,2019984508
115,19,19,Jits_Linear_5,34,9999,9999,9999,2020524124
115,19,19,Jits_Linear_5,35,9999,9999,9999,2021075060
115,19,19,Jits_Linear_5,36,9999,9999,9999,2021624932
115,19,19,Jits_Linear_5,37,9999,9999,9999,2022174820
115,19,19,Jits_Linear_5,38,9999,9999,9999,2022724708
115,19,19,Jits_Linear_5,39,9999,9999,9999,2023274596
115,19,19,Jits_Linear_5,40,9999,9999,9999,2023834696
115,19,19,Jits_Linear_5,41,9999,9999,9999,2024394844
115,19,19,Jits_Linear_5,42,9999,9999,9999,2024954988
115,19,19,Jits_Linear_5,43,9999,9999,9999,2025515132
115,19,19,Jits_Linear_5,44,9999,9999,9999,2026084424
115,19,19,Jits_Linear_5,45,9999,9999,9999,2026654784
115,19,19,Jits_Linear_5,46,9999,9999,9999,2027224148
115,19,19,Jits_Linear_5,47,9999,9999,9999,2027794492
115,19,19,Jits_Linear_5,48,9999,9999,9999,2028364908
115,19,19,Jits_Linear_5,49,9999,9999,9999,2028934232
115,19,19,Jits_Linear_5,50,9999,9999,9999,2029514872
115,19,19,Jits_Linear_5,51,9999,9999,9999,2030094440
115,19,19,Jits_Linear_5,52,9999,9999,9999,2030675044
115,19,19,Jits_Linear_5,53,9999,9999,9999,2031254624
115,19,19,Jits_Linear_5,54,9999,9999,9999,2031834180
115,19,19,Jits_Linear_5,55,9999,9999,9999,2032425048
115,19,19,Jits_Linear_5,56,9999,9999,9999,2033014864
115,19,19,Jits_Linear_5,57,9999,9999,9999,2033604696
115,19,19,Jits_Linear_5,58,9999,9999,9999,2034194516
115,19,19,Jits_Linear_5,59,9999,9999,9999,2034784320
115,19,19,Jits_Linear_5,60,9999,9999,9999,2035384432
115,19,19,Jits_Linear_5,61,9999,9999,9999,2035984508
115,19,19,Jits_Linear_5,62,9999,9999,9999,2036584528
115,19,19,Jits_Linear_5,63,9999,9999,9999,2037184632
115,19,19,Jits_Linear_5,64,9999,9999,9999,2037784636
115,19,19,Jits_Linear_5,65,9999,9999,9999,2038394932
115,19,19,Jits_Linear_5,66,9999,9999,9999,2039004248
115,19,19,Jits_Linear_5,67,9999,9999,9999,2039614580
115,19,19,Jits_Linear_5,68,9999,9999,9999,2040224880
115,19,19,Jits_Linear_5,69,9999,9999,9999,2040834104
115,19,19,Jits_Linear_5,70,9999,9999,9999,2041454700
115,19,19,Jits_Linear_5,71,9999,9999,9999,2042074228
115,19,19,Jits_Linear_5,72,9999,9999,9999,2042694760
115,19,19,Jits_Linear_5,73,9999,9999,9999,2043314276
115,19,19,Jits_Linear_5,74,9999,9999,9999,2043934812
115,19,19,Jits_Linear_5,75,9999,9999,9999,2044564584
115,19,19,Jits_Linear_5,76,9999,9999,9999,2045194356
115,19,19,Jits_Linear_5,77,9999,9999,9999,2045824064
115,19,19,Jits_Linear_5,78,9999,9999,9999,2046454876
115,19,19,Jits_Linear_5,79,9999,9999,9999,2047084624
115,19,19,Jits_Linear_5,80,9999,9999,9999,2047724664
115,19,19,Jits_Linear_5,81,9999,9999,9999,2048364612
115,19,19,Jits_Linear_5,82,9999,9999,9999,2049004652
115,19,19,Jits_Linear_5,83,9999,9999,9999,2049644660
115,19,19,Jits_Linear_5,84,9999,9999,9999,2050284644
115,19,19,Jits_Linear_5,85,9999,9999,9999,2050934840
115,19,19,Jits_Linear_5,86,9999,9999,9999,2051584084
115,19,19,Jits_Linear_5,87,9999,9999,9999,2052234328
115,19,19,Jits_Linear_5,88,9999,9999,9999,2052884604
115,19,19,Jits_Linear_5,89,9999,9999,9999,2053534828
115,19,19,Jits_Linear_5,90,9999,9999,9999,2054194248
115,19,19,Jits_Linear_5,91,9999,9999,9999,2054854736
115,19,19,Jits_Linear_5,92,9999,9999,9999,2055514216
115,19,19,Jits_Linear_5,93,9999,9999,9999,2056174708
115,19,19,Jits_Linear_5,94,9999,9999,9999,2056834148
115,19,19,Jits_Linear_5,95,9999,9999,9999,2057504876
115,19,19,Jits_Linear_5,96,9999,9999,9999,2058174588
115,19,19,Jits_Linear_5,97,9999,9999,9999,2058844268
115,19,19,Jits_Linear_5,98,9999,9999,9999,2059514948
115,19,19,Jits_Linear_5,99,9999,9999,9999,2060184664
115,19,19,Jits_Linear_5,100,9999,9999,9999,2060864608
115,19,19,Jits_Linear_5,101,9999,9999,9999,2061544524
115,19,19,Jits_Linear_5,102,9999,9999,9999,2062224484
115,19,19,Jits_Linear_5,103,9999,9999,9999,2062904436
115,19,19,Jits_Linear_5,104,9999,9999,9999,2063584332
115,19,19,Jits_Linear_5,105,9999,9999,9999,2064274488
115,19,19,Jits_Linear_5,106,9999,9999,9999,2064964700
115,19,19,Jits_Linear_5,107,9999,9999,9999,2065654852
115,19,19,Jits_Linear_5,108,9999,9999,9999,2066345060
115,19,19,Jits_Linear_5,109,9999,9999,9999,2067034220
115,19,19,Jits_Linear_5,110,9999,9999,9999,2067734584
115,19,19,Jits_Linear_5,111,9999,9999,9999,2068435008
115,19,19,Jits_Linear_5,112,9999,9999,9999,2069134456
115,19,19,Jits_Linear_5,113,9999,9999,9999,2069834856
115,19,19,Jits_Linear_5,114,9999,9999,9999,2070534228
115,19,19,Jits_Linear_5,115,9999,9999,9999,2071244908
115,19,19,Jits_Linear_5,116,9999,9999,9999,2071954552
115,19,19,Jits_Linear_5,117,9999,9999,9999,2072664184
115,19,19,Jits_Linear_5,118,9999,9999,9999,2073374800
115,19,19,Jits_Linear_5,119,9999,9999,9999,2074084436
115,19,19,Jits_Linear_5,120,9999,9999,9999,2074804336
115,19,19,Jits_Linear_5,121,9999,9999,9999,2075524168
115,19,19,Jits_Linear_5,122,9999,9999,9999,2076245104
115,19,19,Jits_Linear_5,123,9999,9999,9999,2076964952
115,19,19,Jits_Linear_5,124,9999,9999,9999,2077684852
115,19,19,Jits_Linear_5,125,9999,9999,9999,2078414932
115,19,19,Jits_Linear_5,126,9999,9999,9999,2079145028
115,19,19,Jits_Linear_5,127,9999,9999,9999,2079874144
115,19,19,Jits_Linear_5,128,9999,9999,9999,2080604216
115,19,19,Jits_Linear_5,129,9999,9999,9999,2081334396
115,19,19,Jits_Linear_5,130,9999,9999,9999,2082074692
115,19,19,Jits_Linear_5,131,9999,9999,9999,2082815048
115,19,19,Jits_Linear_5,132,9999,9999,9999,2083554428
115,19,19,Jits_Linear_5,133,9999,9999,9999,2084294712
115,19,19,Jits_Linear_5,134,9999,9999,9999,2085035064
115,19,19,Jits_Linear_5,135,9999,9999,9999,2085794896
115,19,19,Jits_Linear_5,136,9999,9999,9999,2086544472
115,19,19,Jits_Linear_5,137,9999,9999,9999,2087295088
115,19,19,Jits_Linear_5,138,9999,9999,9999,2088044636
115,19,19,Jits_Linear_5,139,9999,9999,9999,2088794232
115,19,19,Jits_Linear_5,140,9999,9999,9999,2089555040
115,19,19,Jits_Linear_5,141,9999,9999,9999,2090314804
115,19,19,Jits_Linear_5,142,9999,9999,9999,2091074644
115,19,19,Jits_Linear_5,143,9999,9999,9999,2091834480
115,19,19,Jits_Linear_5,144,9999,9999,9999,2092594236
115,19,19,Jits_Linear_5,145,9999,9999,9999,2093364344
115,19,19,Jits_Linear_5,146,9999,9999,9999,2094134372
115,19,19,Jits_Linear_5,147,9999,9999,9999,2094904404
115,19,19,Jits_Linear_5,148,9999,9999,9999,2095674428
115,19,19,Jits_Linear_5,149,9999,9999,9999,2096444532
115,19,19,Jits_Linear_5,150,9999,9999,9999,2097224828
115,19,19,Jits_Linear_5,151,9999,9999,9999,2098005108
115,19,19,Jits_Linear_5,152,9999,9999,9999,2098784352
115,19,19,Jits_Linear_5,153,9999,9999,9999,2099564644
115,19,19,Jits_Linear_5,154,9999,9999,9999,2100344884
115,19,19,Jits_Linear_5,155,9999,9999,9999,2101134460
115,19,19,Jits_Linear_5,156,9999,9999,9999,2101924928
115,19,19,Jits_Linear_5,157,9999,9999,9999,2102714428
115,19,19,Jits_Linear_5,158,9999,9999,9999,2103504984
115,19,19,Jits_Linear_5,159,9999,9999,9999,2104294488
115,19,19,Jits_Linear_5,160,9999,9999,9999,2105094272
115,19,19,Jits_Linear_5,161,9999,9999,9999,2105895012
115,19,19,Jits_Linear_5,162,9999,9999,9999,2106694776
115,19,19,Jits_Linear_5,163,9999,9999,9999,2107494472
115,19,19,Jits_Linear_5,164,9999,9999,9999,2108294264
115,19,19,Jits_Linear_5,165,9999,9999,9999,2109104228
115,19,19,Jits_Linear_5,166,9999,9999,9999,2109914188
115,19,19,Jits_Linear_5,167,9999,9999,9999,2110724212
115,19,19,Jits_Linear_5,168,9999,9999,9999,2111534176
115,19,19,Jits_Linear_5,169,9999,9999,9999,2112344136
115,20,3,ISIP_8,0,5,42,127,2179038644
115,20,3,ISIP_8,1,5,42,127,2179839372
115,20,3,ISIP_8,2,1,48,51,2180619564
115,20,3,ISIP_8,3,5,42,127,2180639344
115,20,3,ISIP_8,4,1,48,47,2181369332
115,20,3,ISIP_8,5,5,42,127,2181438780
115,20,3,ISIP_8,6,1,48,49,2182186716
115,20,3,ISIP_8,7,5,42,127,2182238512
115,20,3,ISIP_8,8,1,48,46,2182987200
115,20,3,ISIP_8,9,5,42,127,2183039244
115,20,3,ISIP_8,10,1,48,41,2183802736
115,20,3,ISIP_8,11,5,42,127,2183839276
115,20,3,ISIP_8,12,1,48,46,2184587368
115,20,3,ISIP_8,13,5,42,127,2184638932
115,20,3,ISIP_8,14,1,48,48,2185427788
115,20,3,ISIP_8,15,5,42,127,2185438592
115,20,3,ISIP_8,16,1,48,37,2186200148
115,20,3,ISIP_8,17,5,42,127,2186239224
115,20,3,ISIP_8,18,1,48,46,2187008332
115,20,3,ISIP_8,19,5,42,127,2187039256
115,20,3,ISIP_8,20,5,42,127,2187838772
115,20,3,ISIP_8,21,1,48,41,2188586500
115,20,3,ISIP_8,22,5,42,127,2188638592
115,20,3,ISIP_8,23,1,48,47,2189340456
115,20,3,ISIP_8,24,5,42,127,2189439384
115,20,3,ISIP_8,25,1,48,41,2190144080
115,20,3,ISIP_8,26,1,48,23,2190209976
115,20,3,ISIP_8,27,5,42,127,2190239036
115,20,3,ISIP_8,28,1,48,38,2190969768
115,20,3,ISIP_8,29,5,42,127,2191038696
115,20,3,ISIP_8,30,1,48,42,2191762172
115,20,3,ISIP_8,31,5,42,127,2191838652
115,20,3,ISIP_8,32,1,48,39,2192552484
115,20,3,ISIP_8,33,5,42,127,2192639280
115,20,3,ISIP_8,34,1,48,42,2193402108
115,20,3,ISIP_8,35,5,42,127,2193439016
115,20,3,ISIP_8,36,1,48,41,2194224948
115,20,3,ISIP_8,37,5,42,127,2194239120
115,20,3,ISIP_8,38,1,48,50,2194942556
115,20,3,ISIP_8,39,5,42,127,2195038688
115,20,3,ISIP_8,40,1,48,50,2195779840
115,20,3,ISIP_8,41,5,42,127,2195839212
115,20,3,ISIP_8,42,1,48,46,2196572016
115,20,3,ISIP_8,43,5,42,127,2196639020
115,20,3,ISIP_8,44,1,48,45,2197376936
115,20,3,ISIP_8,45,5,42,127,2197438976
115,20,3,ISIP_8,46,1,48,42,2198184076
115,20,3,ISIP_8,47,5,42,127,2198238560
115,20,3,ISIP_8,48,1,48,40,2198973860
115,20,3,ISIP_8,49,5,42,127,2199039192
115,20,3,ISIP_8,50,1,48,48,2199784140
115,20,3,ISIP_8,51,5,42,127,2199839224
115,20,3,ISIP_8,52,1,48,37,2200611696
115,20,3,ISIP_8,53,5,42,127,2200639032
115,20,3,ISIP_8,54,1,48,40,2201384132
115,20,3,ISIP_8,55,5,42,127,2201438544
115,20,3,ISIP_8,56,1,48,42,2202206384
115,20,3,ISIP_8,57,5,42,127,2202239348
115,20,3,ISIP_8,58,1,48,24,2203026784
115,20,3,ISIP_8,59,1,48,29,2204028504
115,20,3,ISIP_8,60,1,48,50,2204789412
115,20,3,ISIP_8,61,1,48,51,2205568944
115,20,3,ISIP_8,62,1,48,48,2206364188
115,20,3,ISIP_8,63,1,48,48,2207185088
115,20,3,ISIP_8,64,1,48,45,2207986084
115,20,3,ISIP_8,65,1,48,43,2208761652
115,20,3,ISIP_8,66,1,48,48,2209568864
115,20,3,ISIP_8,67,1,48,44,2210355208
115,20,3,ISIP_8,68,1,48,40,2211142892
115,20,3,ISIP_8,69,1,48,48,2211916736
115,20,3,ISIP_8,70,1,48,45,2212673380
115,20,3,ISIP_8,71,1,48,45,2213459052
115,20,3,ISIP_8,72,1,48,46,2214218000
115,20,3,ISIP_8,73,1,48,50,2214993492
115,20,3,ISIP_8,74,1,48,46,2215759940
115,20,3,ISIP_8,75,1,48,41,2216545604
115,20,3,ISIP_8,76,1,48,37,2217313168
115,20,3,ISIP_8,77,1,48,37,2218101404
115,20,3,ISIP_8,78,1,48,40,2218887524
115,20,3,ISIP_8,79,1,48,44,2219655316
115,20,3,ISIP_8,80,1,48,43,2220450552
115,20,3,ISIP_8,81,1,48,40,2221251328
115,20,3,ISIP_8,82,1,48,47,2221998256
115,20,3,ISIP_8,83,1,48,46,2222816904
115,20,3,ISIP_8,84,1,48,45,2223610648
115,20,3,ISIP_8,85,1,48,43,2224384500
115,20,3,ISIP_8,86,1,48,46,2225177872
115,20,3,ISIP_8,87,1,48,46,2225919704
115,20,3,ISIP_8,88,1,48,43,2226730280
115,20,3,ISIP_8,89,1,48,42,2227535468
115,20,3,ISIP_8,90,1,48,46,2228298248
115,20,3,ISIP_8,91,1,48,44,2229072840
115,20,3,ISIP_8,92,1,48,23,2229135604
115,20,3,ISIP_8,93,1,48,46,2229866796
115,20,3,ISIP_8,94,1,48,44,2230656300
115,20,3,ISIP_8,95,1,48,46,2231462460
115,20,3,ISIP_8,96,1,48,51,2232229724
115,20,3,ISIP_8,97,1,48,46,2233029380
115,20,3,ISIP_8,98,1,48,49,2233791408
115,20,3,ISIP_8,99,1,48,54,2234567576
115,20,3,ISIP_8,100,1,48,55,2235323628
115,20,3,ISIP_8,101,1,48,54,2236109296
115,20,3,ISIP_8,102,1,48,54,2236853528
115,20,3,ISIP_8,103,1,48,50,2237672704
115,20,3,ISIP_8,104,1,48,44,2238468172
115,20,3,ISIP_8,105,1,48,45,2239231100
115,20,3,ISIP_8,106,1,48,47,2239986472
115,20,3,ISIP_8,107,1,48,43,2240767724
115,20,3,ISIP_8,108,1,48,43,2241553316
115,20,3,ISIP_8,109,1,48,44,2242310788
115,20,3,ISIP_8,110,1,48,46,2243099072
115,20,3,ISIP_8,111,1,48,48,2243890276
115,20,3,ISIP_8,112,1,48,50,2244664268
115,20,3,ISIP_8,113,1,48,46,2245453452
115,20,3,ISIP_8,114,1,48,46,2246229532
115,20,3,ISIP_8,115,1,48,46,2247003384
115,20,3,ISIP_8,116,1,48,34,2247815848
115,20,3,ISIP_8,117,1,48,45,2248572948
115,20,3,ISIP_8,118,1,48,47,2249319472
115,20,3,ISIP_8,119,1,48,49,2250143008
115,20,3,ISIP_8,120,1,48,47,2250938096
115,20,3,ISIP_8,121,1,48,41,2251695492
115,20,3,ISIP_8,122,1,48,51,2252482656
115,20,3,ISIP_8,123,1,48,52,2253228456
115,20,3,ISIP_8,124,1,48,48,2253994820
115,20,3,ISIP_8,125,1,48,51,2254796872
115,20,3,ISIP_8,126,1,48,38,2255619116
115,20,3,ISIP_8,127,1,48,42,2256406580
115,20,3,ISIP_8,128,1,48,43,2257185960
115,20,3,ISIP_8,129,1,48,41,2257996160
115,20,3,ISIP_8,130,1,48,44,2258802800
115,20,3,ISIP_8,131,1,48,36,2259553880
115,20,3,ISIP_8,132,1,48,43,2260365900
115,20,3,ISIP_8,133,1,48,45,2261124268
115,20,3,ISIP_8,134,1,48,47,2261938584
115,20,3,ISIP_8,135,1,48,48,2262698072
115,20,3,ISIP_8,136,1,48,45,2263492484
115,20,3,ISIP_8,137,1,48,47,2264241952
115,20,3,ISIP_8,138,1,48,48,2265029116
115,20,3,ISIP_8,139,1,48,51,2265824360
115,20,3,ISIP_8,140,1,48,55,2266599400
115,20,3,ISIP_8,141,1,48,54,2267354100
115,20,3,ISIP_8,142,1,48,49,2268146804
115,20,3,ISIP_8,143,1,48,57,2268910400
115,20,3,ISIP_8,144,1,48,48,2269678120
115,20,3,ISIP_8,145,1,48,49,2270426912
115,20,3,ISIP_8,146,1,48,48,2271180940
115,20,3,ISIP_8,147,1,48,41,2271991588
115,20,3,ISIP_8,148,1,48,43,2272730360
115,20,3,ISIP_8,149,1,48,37,2273479000
115,20,3,ISIP_8,150,1,48,39,2274277756
115,20,3,ISIP_8,151,1,48,34,2275047044
115,20,3,ISIP_8,152,1,48,44,2275827460
115,20,3,ISIP_8,153,1,48,38,2276605348
115,20,3,ISIP_8,154,1,48,46,2277339704
115,20,3,ISIP_8,155,1,48,49,2278140032
115,20,3,ISIP_8,156,1,48,40,2278888752
115,20,3,ISIP_8,157,1,48,48,2279669256
115,20,3,ISIP_8,158,1,48,42,2280455072
115,20,3,ISIP_8,159,1,48,38,2281222344
115,20,3,ISIP_8,160,1,48,46,2282014664
115,20,3,ISIP_8,161,1,48,51,2282748424
115,20,3,ISIP_8,162,1,48,51,2283538128
115,20,3,ISIP_8,163,1,48,49,2284304724
115,20,3,ISIP_8,164,1,48,53,2285093680
115,20,3,ISIP_8,165,1,48,51,2285849276
115,20,3,ISIP_8,166,1,48,58,2286627760
115,20,3,ISIP_8,167,1,48,48,2287380296
115,20,3,ISIP_8,168,1,48,45,2288172844
115,20,3,ISIP_8,169,1,48,57,2288923884
115,20,3,ISIP_8,170,1,48,48,2289671100
115,20,3,ISIP_8,171,1,48,39,2290472180
115,20,3,ISIP_8,172,1,48,49,2291226056
115,20,3,ISIP_8,173,1,48,50,2291997960
115,20,3,ISIP_8,174,1,48,47,2292761408
115,20,3,ISIP_8,175,1,48,47,2293541616
115,20,3,ISIP_8,176,1,48,51,2294285996
115,20,3,ISIP_8,177,1,48,43,2295046004
115,20,3,ISIP_8,178,1,48,46,2295811172
115,20,3,ISIP_8,179,1,48,55,2296617776
115,20,3,ISIP_8,180,1,48,48,2297349664
115,20,3,ISIP_8,181,1,48,46,2298128224
115,20,3,ISIP_8,182,1,48,41,2298931548
115,20,3,ISIP_8,0,9999,9999,9999,2179036208
115,20,3,ISIP_8,1,9999,9999,9999,2179837008
115,20,3,ISIP_8,2,9999,9999,9999,2180636756
115,20,3,ISIP_8,3,9999,9999,9999,2181436492
115,20,3,ISIP_8,4,9999,9999,9999,2182236224
115,20,3,ISIP_8,5,9999,9999,9999,2183037028
115,20,3,ISIP_8,6,9999,9999,9999,2183836764
115,20,3,ISIP_8,7,9999,9999,9999,2184636496
115,20,3,ISIP_8,8,9999,9999,9999,2185436232
115,20,3,ISIP_8,9,9999,9999,9999,2186237012
115,20,3,ISIP_8,10,9999,9999,9999,2187036744
115,20,3,ISIP_8,11,9999,9999,9999,2187836484
115,20,3,ISIP_8,12,9999,9999,9999,2188636232
115,20,3,ISIP_8,13,9999,9999,9999,2189437020
115,20,3,ISIP_8,14,9999,9999,9999,2190236748
115,20,3,ISIP_8,15,9999,9999,9999,2191036480
115,20,3,ISIP_8,16,9999,9999,9999,2191836216
115,20,3,ISIP_8,17,9999,9999,9999,2192636996
115,20,3,ISIP_8,18,9999,9999,9999,2193436728
115,20,3,ISIP_8,19,9999,9999,9999,2194236536
115,20,3,ISIP_8,20,9999,9999,9999,2195036252
115,20,3,ISIP_8,21,9999,9999,9999,2195837000
115,20,3,ISIP_8,22,9999,9999,9999,2196636732
115,20,3,ISIP_8,23,9999,9999,9999,2197436464
115,20,3,ISIP_8,24,9999,9999,9999,2198236272
115,20,3,ISIP_8,25,9999,9999,9999,2199036980
115,20,3,ISIP_8,26,9999,9999,9999,2199836788
115,20,3,ISIP_8,27,9999,9999,9999,2200636520
115,20,3,ISIP_8,28,9999,9999,9999,2201436256
115,20,3,ISIP_8,29,9999,9999,9999,2202236984
115,20,3,ISIP_8,30,9999,9999,9999,2203036720
115,20,3,ISIP_8,31,9999,9999,9999,2203836532
115,20,3,ISIP_8,32,9999,9999,9999,2204636260
115,20,3,ISIP_8,33,9999,9999,9999,2205437036
115,20,3,ISIP_8,34,9999,9999,9999,2206236764
115,20,3,ISIP_8,35,9999,9999,9999,2207036496
115,20,3,ISIP_8,36,9999,9999,9999,2207836224
115,20,3,ISIP_8,37,9999,9999,9999,2208637024
115,20,3,ISIP_8,38,9999,9999,9999,2209436752
115,20,3,ISIP_8,39,9999,9999,9999,2210236480
115,20,3,ISIP_8,40,9999,9999,9999,2211036212
115,20,3,ISIP_8,41,9999,9999,9999,2211836988
115,20,3,ISIP_8,42,9999,9999,9999,2212636788
115,20,3,ISIP_8,43,9999,9999,9999,2213436520
115,20,3,ISIP_8,44,9999,9999,9999,2214236240
115,20,3,ISIP_8,45,9999,9999,9999,2215037040
115,20,3,ISIP_8,46,9999,9999,9999,2215836768
115,20,3,ISIP_8,47,9999,9999,9999,2216636500
115,20,3,ISIP_8,48,9999,9999,9999,2217436212
115,20,3,ISIP_8,49,9999,9999,9999,2218236988
115,20,3,ISIP_8,50,9999,9999,9999,2219036720
115,20,3,ISIP_8,51,9999,9999,9999,2219836524
115,20,3,ISIP_8,52,9999,9999,9999,2220636252
115,20,3,ISIP_8,53,9999,9999,9999,2221436976
115,20,3,ISIP_8,54,9999,9999,9999,2222236780
115,20,3,ISIP_8,55,9999,9999,9999,2223036512
115,20,3,ISIP_8,56,9999,9999,9999,2223836240
115,20,3,ISIP_8,57,9999,9999,9999,2224637016
115,20,3,ISIP_8,58,9999,9999,9999,2225436744
115,20,3,ISIP_8,59,9999,9999,9999,2226236472
115,20,3,ISIP_8,60,9999,9999,9999,2227036276
115,20,3,ISIP_8,61,9999,9999,9999,2227837004
115,20,3,ISIP_8,62,9999,9999,9999,2228636732
115,20,3,ISIP_8,63,9999,9999,9999,2229436516
115,20,3,ISIP_8,64,9999,9999,9999,2230236240
115,20,3,ISIP_8,65,9999,9999,9999,2231037016
115,20,3,ISIP_8,66,9999,9999,9999,2231836748
115,20,3,ISIP_8,67,9999,9999,9999,2232636476
115,20,3,ISIP_8,68,9999,9999,9999,2233436280
115,20,3,ISIP_8,69,9999,9999,9999,2234237004
115,20,3,ISIP_8,70,9999,9999,9999,2235036736
115,20,3,ISIP_8,71,9999,9999,9999,2235836468
115,20,3,ISIP_8,72,9999,9999,9999,2236636272
115,20,3,ISIP_8,73,9999,9999,9999,2237437048
115,20,3,ISIP_8,74,9999,9999,9999,2238236776
115,20,3,ISIP_8,75,9999,9999,9999,2239036508
115,20,3,ISIP_8,76,9999,9999,9999,2239836236
115,20,3,ISIP_8,77,9999,9999,9999,2240637036
115,20,3,ISIP_8,78,9999,9999,9999,2241436768
115,20,3,ISIP_8,79,9999,9999,9999,2242236496
115,20,3,ISIP_8,80,9999,9999,9999,2243036228
115,20,3,ISIP_8,81,9999,9999,9999,2243837000
115,20,3,ISIP_8,82,9999,9999,9999,2244636728
115,20,3,ISIP_8,83,9999,9999,9999,2245436532
115,20,3,ISIP_8,84,9999,9999,9999,2246236256
115,20,3,ISIP_8,85,9999,9999,9999,2247036980
115,20,3,ISIP_8,86,9999,9999,9999,2247836784
115,20,3,ISIP_8,87,9999,9999,9999,2248636512
115,20,3,ISIP_8,88,9999,9999,9999,2249436228
115,20,3,ISIP_8,89,9999,9999,9999,2250237016
115,20,3,ISIP_8,90,9999,9999,9999,2251036732
115,20,3,ISIP_8,91,9999,9999,9999,2251836536
115,20,3,ISIP_8,92,9999,9999,9999,2252636264
115,20,3,ISIP_8,93,9999,9999,9999,2253436992
115,20,3,ISIP_8,94,9999,9999,9999,2254236792
115,20,3,ISIP_8,95,9999,9999,9999,2255036524
115,20,3,ISIP_8,96,9999,9999,9999,2255836252
115,20,3,ISIP_8,97,9999,9999,9999,2256637028
115,20,3,ISIP_8,98,9999,9999,9999,2257436756
115,20,3,ISIP_8,99,9999,9999,9999,2258236484
115,20,3,ISIP_8,100,9999,9999,9999,2259036212
115,20,3,ISIP_8,101,9999,9999,9999,2259837016
115,20,3,ISIP_8,102,9999,9999,9999,2260636744
115,20,3,ISIP_8,103,9999,9999,9999,2261436472
115,20,3,ISIP_8,104,9999,9999,9999,2262236276
115,20,3,ISIP_8,105,9999,9999,9999,2263036976
115,20,3,ISIP_8,106,9999,9999,9999,2263836780
115,20,3,ISIP_8,107,9999,9999,9999,2264636512
115,20,3,ISIP_8,108,9999,9999,9999,2265436240
115,20,3,ISIP_8,109,9999,9999,9999,2266237040
115,20,3,ISIP_8,110,9999,9999,9999,2267036768
115,20,3,ISIP_8,111,9999,9999,9999,2267836500
115,20,3,ISIP_8,112,9999,9999,9999,2268636228
115,20,3,ISIP_8,113,9999,9999,9999,2269437004
115,20,3,ISIP_8,114,9999,9999,9999,2270236732
115,20,3,ISIP_8,115,9999,9999,9999,2271036464
115,20,3,ISIP_8,116,9999,9999,9999,2271836268
115,20,3,ISIP_8,117,9999,9999,9999,2272636992
115,20,3,ISIP_8,118,9999,9999,9999,2273436724
115,20,3,ISIP_8,119,9999,9999,9999,2274236524
115,20,3,ISIP_8,120,9999,9999,9999,2275036256
115,20,3,ISIP_8,121,9999,9999,9999,2275837024
115,20,3,ISIP_8,122,9999,9999,9999,2276636756
115,20,3,ISIP_8,123,9999,9999,9999,2277436484
115,20,3,ISIP_8,124,9999,9999,9999,2278236212
115,20,3,ISIP_8,125,9999,9999,9999,2279037000
115,20,3,ISIP_8,126,9999,9999,9999,2279836732
115,20,3,ISIP_8,127,9999,9999,9999,2280636532
115,20,3,ISIP_8,128,9999,9999,9999,2281436264
115,20,3,ISIP_8,129,9999,9999,9999,2282237036
115,20,3,ISIP_8,130,9999,9999,9999,2283036768
115,20,3,ISIP_8,131,9999,9999,9999,2283836496
115,20,3,ISIP_8,132,9999,9999,9999,2284636224
115,20,3,ISIP_8,133,9999,9999,9999,2285437028
115,20,3,ISIP_8,134,9999,9999,9999,2286236756
115,20,3,ISIP_8,135,9999,9999,9999,2287036484
115,20,3,ISIP_8,136,9999,9999,9999,2287836216
115,20,3,ISIP_8,137,9999,9999,9999,2288636988
115,20,3,ISIP_8,138,9999,9999,9999,2289436720
115,20,3,ISIP_8,139,9999,9999,9999,2290236524
115,20,3,ISIP_8,140,9999,9999,9999,2291036252
115,20,3,ISIP_8,141,9999,9999,9999,2291836980
115,20,3,ISIP_8,142,9999,9999,9999,2292636780
115,20,3,ISIP_8,143,9999,9999,9999,2293436512
115,20,3,ISIP_8,144,9999,9999,9999,2294236240
115,20,3,ISIP_8,145,9999,9999,9999,2295037016
115,20,3,ISIP_8,146,9999,9999,9999,2295836736
115,20,3,ISIP_8,147,9999,9999,9999,2296636468
115,20,3,ISIP_8,148,9999,9999,9999,2297436272
115,20,3,ISIP_8,149,9999,9999,9999,2298236980
115,21,5,ISIP_5,0,5,42,127,2321414580
115,21,5,ISIP_5,1,5,42,127,2321915344
115,21,5,ISIP_5,2,5,42,127,2322414916
115,21,5,ISIP_5,3,5,42,127,2322914556
115,21,5,ISIP_5,4,1,48,47,2323394408
115,21,5,ISIP_5,5,5,42,127,2323415388
115,21,5,ISIP_5,6,1,48,47,2323861868
115,21,5,ISIP_5,7,5,42,127,2323915084
115,21,5,ISIP_5,8,5,42,127,2324414932
115,21,5,ISIP_5,9,1,48,45,2324417380
115,21,5,ISIP_5,10,5,42,127,2324914480
115,21,5,ISIP_5,11,1,48,42,2324928672
115,21,5,ISIP_5,12,5,42,127,2325415296
115,21,5,ISIP_5,13,1,48,46,2325454840
115,21,5,ISIP_5,14,5,42,127,2325914992
115,21,5,ISIP_5,15,1,48,46,2325963964
115,21,5,ISIP_5,16,5,42,127,2326414760
115,21,5,ISIP_5,17,1,48,40,2326470388
115,21,5,ISIP_5,18,5,42,127,2326914380
115,21,5,ISIP_5,19,1,48,41,2326955868
115,21,5,ISIP_5,20,5,42,127,2327415124
115,21,5,ISIP_5,21,1,48,38,2327429536
115,21,5,ISIP_5,22,1,48,33,2327894780
115,21,5,ISIP_5,23,5,42,127,2327914788
115,21,5,ISIP_5,24,1,48,34,2328395596
115,21,5,ISIP_5,25,5,42,127,2328414556
115,21,5,ISIP_5,26,1,48,39,2328873376
115,21,5,ISIP_5,27,5,42,127,2328915372
115,21,5,ISIP_5,28,1,48,44,2329411744
115,21,5,ISIP_5,29,5,42,127,2329414992
115,21,5,ISIP_5,30,5,42,127,2329914916
115,21,5,ISIP_5,31,1,48,42,2329918408
115,21,5,ISIP_5,32,5,42,127,2330414316
115,21,5,ISIP_5,33,1,48,46,2330432768
115,21,5,ISIP_5,34,5,42,127,2330915128
115,21,5,ISIP_5,35,1,48,48,2330916316
115,21,5,ISIP_5,36,5,42,127,2331414824
115,21,5,ISIP_5,37,1,48,43,2331432008
115,21,5,ISIP_5,38,5,42,127,2331914596
115,21,5,ISIP_5,39,1,48,49,2331928260
115,21,5,ISIP_5,40,5,42,127,2332415408
115,21,5,ISIP_5,41,1,48,47,2332424812
115,21,5,ISIP_5,42,5,42,127,2332915032
115,21,5,ISIP_5,43,1,48,46,2332924728
115,21,5,ISIP_5,44,1,48,50,2333413520
115,21,5,ISIP_5,45,5,42,127,2333414944
115,21,5,ISIP_5,46,1,48,53,2333912060
115,21,5,ISIP_5,47,5,42,127,2333914564
115,21,5,ISIP_5,48,5,42,127,2334415240
115,21,5,ISIP_5,49,1,48,43,2334432044
115,21,5,ISIP_5,50,5,42,127,2334914936
115,21,5,ISIP_5,51,1,48,43,2334943484
115,21,5,ISIP_5,52,5,42,127,2335414776
115,21,5,ISIP_5,53,1,48,45,2335448640
115,21,5,ISIP_5,54,5,42,127,2335915296
115,21,5,ISIP_5,55,1,48,52,2335931128
115,21,5,ISIP_5,56,5,42,127,2336415064
115,21,5,ISIP_5,57,1,48,47,2336422372
115,21,5,ISIP_5,58,5,42,127,2336914688
115,21,5,ISIP_5,59,1,48,43,2336930968
115,21,5,ISIP_5,60,1,48,46,2337414076
115,21,5,ISIP_5,61,5,42,127,2337415644
115,21,5,ISIP_5,62,5,42,127,2337915272
115,21,5,ISIP_5,63,1,48,48,2337923256
115,21,5,ISIP_5,64,5,42,127,2338415044
115,21,5,ISIP_5,65,1,48,43,2338437832
115,21,5,ISIP_5,66,5,42,127,2338914712
115,21,5,ISIP_5,67,1,48,45,2338923140
115,21,5,ISIP_5,68,5,42,127,2339415432
115,21,5,ISIP_5,69,1,48,49,2339434932
115,21,5,ISIP_5,70,1,48,46,2339907660
115,21,5,ISIP_5,71,5,42,127,2339915172
115,21,5,ISIP_5,72,1,48,41,2340415096
115,21,5,ISIP_5,73,5,42,127,2340416508
115,21,5,ISIP_5,74,5,42,127,2340914644
115,21,5,ISIP_5,75,1,48,45,2340922848
115,21,5,ISIP_5,76,1,48,48,2341408384
115,21,5,ISIP_5,77,1,48,53,2341913028
115,21,5,ISIP_5,78,1,48,48,2342409788
115,21,5,ISIP_5,79,1,48,47,2342930808
115,21,5,ISIP_5,80,1,48,45,2343435960
115,21,5,ISIP_5,81,1,48,53,2343921584
115,21,5,ISIP_5,82,1,48,47,2344412824
115,21,5,ISIP_5,83,1,48,45,2344928528
115,21,5,ISIP_5,84,1,48,46,2345437344
115,21,5,ISIP_5,85,1,48,51,2345938676
115,21,5,ISIP_5,86,1,48,53,2346436420
115,21,5,ISIP_5,87,1,48,46,2346954064
115,21,5,ISIP_5,88,1,48,50,2347460408
115,21,5,ISIP_5,89,1,48,48,2347958832
115,21,5,ISIP_5,90,1,48,44,2348469740
115,21,5,ISIP_5,91,1,48,39,2348964640
115,21,5,ISIP_5,92,1,48,44,2349469644
115,21,5,ISIP_5,93,1,48,50,2349983248
115,21,5,ISIP_5,94,1,48,47,2350524452
115,21,5,ISIP_5,95,1,48,43,2351038580
115,21,5,ISIP_5,96,1,48,41,2351566916
115,21,5,ISIP_5,97,1,48,47,2352040724
115,21,5,ISIP_5,98,1,48,51,2352559416
115,21,5,ISIP_5,99,1,48,41,2353087684
115,21,5,ISIP_5,100,1,48,48,2353587300
115,21,5,ISIP_5,101,1,48,49,2354096564
115,21,5,ISIP_5,102,1,48,52,2354612412
115,21,5,ISIP_5,103,1,48,54,2355139852
115,21,5,ISIP_5,104,1,48,52,2355652332
115,21,5,ISIP_5,105,1,48,51,2356131980
115,21,5,ISIP_5,106,1,48,47,2356662340
115,21,5,ISIP_5,107,1,48,54,2357179376
115,21,5,ISIP_5,108,1,48,52,2357720728
115,21,5,ISIP_5,109,1,48,45,2358205984
115,21,5,ISIP_5,110,1,48,51,2358712784
115,21,5,ISIP_5,111,1,48,38,2359246728
115,21,5,ISIP_5,112,1,48,54,2359736548
115,21,5,ISIP_5,113,1,48,45,2360287172
115,21,5,ISIP_5,114,1,48,45,2360799952
115,21,5,ISIP_5,115,1,48,45,2361352308
115,21,5,ISIP_5,116,1,48,55,2361879444
115,21,5,ISIP_5,117,1,48,57,2362402620
115,21,5,ISIP_5,118,1,48,44,2362951992
115,21,5,ISIP_5,119,1,48,49,2363450332
115,21,5,ISIP_5,120,1,48,46,2363978748
115,21,5,ISIP_5,121,1,48,44,2364484124
115,21,5,ISIP_5,122,1,48,43,2365020316
115,21,5,ISIP_5,123,1,48,49,2365537512
115,21,5,ISIP_5,124,1,48,55,2366023884
115,21,5,ISIP_5,125,1,48,52,2366549752
115,21,5,ISIP_5,126,1,48,52,2367101376
115,21,5,ISIP_5,127,1,48,34,2367666516
115,21,5,ISIP_5,128,1,48,49,2368169500
115,21,5,ISIP_5,129,1,48,48,2368681604
115,21,5,ISIP_5,130,1,48,56,2369216976
115,21,5,ISIP_5,131,1,48,56,2369706716
115,21,5,ISIP_5,132,1,48,48,2370216952
115,21,5,ISIP_5,133,1,48,48,2370749784
115,21,5,ISIP_5,134,1,48,55,2371306620
115,21,5,ISIP_5,135,1,48,20,2371862404
115,21,5,ISIP_5,136,1,48,49,2372356340
115,21,5,ISIP_5,137,1,48,62,2372878020
115,21,5,ISIP_5,138,1,48,53,2373412540
115,21,5,ISIP_5,139,1,48,40,2373924212
115,21,5,ISIP_5,140,1,48,56,2374441852
115,21,5,ISIP_5,141,1,48,57,2374964580
115,21,5,ISIP_5,142,1,48,46,2375486488
115,21,5,ISIP_5,143,1,48,54,2375997476
115,21,5,ISIP_5,144,1,48,52,2376523040
115,21,5,ISIP_5,145,1,48,52,2377022056
115,21,5,ISIP_5,146,1,48,49,2377570964
115,21,5,ISIP_5,147,1,48,56,2378088684
115,21,5,ISIP_5,148,1,48,47,2378615852
115,21,5,ISIP_5,149,1,48,49,2379136780
115,21,5,ISIP_5,150,1,48,45,2379635876
115,21,5,ISIP_5,151,1,48,41,2380163984
115,21,5,ISIP_5,152,1,48,43,2380681408
115,21,5,ISIP_5,153,1,48,50,2381180424
115,21,5,ISIP_5,154,1,48,51,2381705396
115,21,5,ISIP_5,155,1,48,57,2382216152
115,21,5,ISIP_5,156,1,48,47,2382767080
115,21,5,ISIP_5,157,1,48,49,2383273060
115,21,5,ISIP_5,158,1,48,48,2383823680
115,21,5,ISIP_5,159,1,48,41,2384350000
115,21,5,ISIP_5,160,1,48,41,2384862708
115,21,5,ISIP_5,161,1,48,53,2385373992
115,21,5,ISIP_5,162,1,48,50,2385893056
115,21,5,ISIP_5,163,1,48,44,2386449984
115,21,5,ISIP_5,164,1,48,41,2386971064
115,21,5,ISIP_5,165,1,48,47,2387480476
115,21,5,ISIP_5,166,1,48,41,2388000588
115,21,5,ISIP_5,167,1,48,48,2388550696
115,21,5,ISIP_5,168,1,48,46,2389051732
115,21,5,ISIP_5,169,1,48,46,2389558004
115,21,5,ISIP_5,170,1,48,28,2390099132
115,21,5,ISIP_5,171,1,48,54,2390614080
115,21,5,ISIP_5,172,1,48,50,2391154112
115,21,5,ISIP_5,173,1,48,49,2391656392
115,21,5,ISIP_5,174,1,48,48,2392184960
115,21,5,ISIP_5,175,1,48,48,2392728780
115,21,5,ISIP_5,176,1,48,43,2393246568
115,21,5,ISIP_5,177,1,48,52,2393731748
115,21,5,ISIP_5,178,1,48,47,2394265324
115,21,5,ISIP_5,179,1,48,48,2394774436
115,21,5,ISIP_5,180,1,48,51,2395275248
115,21,5,ISIP_5,181,1,48,47,2395774192
115,21,5,ISIP_5,182,1,48,36,2396318092
115,21,5,ISIP_5,183,1,48,41,2396843960
115,21,5,ISIP_5,184,1,48,30,2397391000
115,21,5,ISIP_5,185,1,48,41,2397863908
115,21,5,ISIP_5,186,1,48,49,2398406312
115,21,5,ISIP_5,187,1,48,48,2398937056
115,21,5,ISIP_5,188,1,48,52,2399460012
115,21,5,ISIP_5,189,1,48,49,2399969504
115,21,5,ISIP_5,190,1,48,49,2400477868
115,21,5,ISIP_5,191,1,48,53,2401009568
115,21,5,ISIP_5,0,9999,9999,9999,2321412144
115,21,5,ISIP_5,1,9999,9999,9999,2321912908
115,21,5,ISIP_5,2,9999,9999,9999,2322412628
115,21,5,ISIP_5,3,9999,9999,9999,2322912344
115,21,5,ISIP_5,4,9999,9999,9999,2323413100
115,21,5,ISIP_5,5,9999,9999,9999,2323912796
115,21,5,ISIP_5,6,9999,9999,9999,2324412496
115,21,5,ISIP_5,7,9999,9999,9999,2324912192
115,21,5,ISIP_5,8,9999,9999,9999,2325412932
115,21,5,ISIP_5,9,9999,9999,9999,2325912628
115,21,5,ISIP_5,10,9999,9999,9999,2326412400
115,21,5,ISIP_5,11,9999,9999,9999,2326912092
115,21,5,ISIP_5,12,9999,9999,9999,2327412836
115,21,5,ISIP_5,13,9999,9999,9999,2327912500
115,21,5,ISIP_5,14,9999,9999,9999,2328412268
115,21,5,ISIP_5,15,9999,9999,9999,2328913012
115,21,5,ISIP_5,16,9999,9999,9999,2329412704
115,21,5,ISIP_5,17,9999,9999,9999,2329912404
115,21,5,ISIP_5,18,9999,9999,9999,2330412100
115,21,5,ISIP_5,19,9999,9999,9999,2330912840
115,21,5,ISIP_5,20,9999,9999,9999,2331412536
115,21,5,ISIP_5,21,9999,9999,9999,2331912308
115,21,5,ISIP_5,22,9999,9999,9999,2332413048
115,21,5,ISIP_5,23,9999,9999,9999,2332912744
115,21,5,ISIP_5,24,9999,9999,9999,2333412436
115,21,5,ISIP_5,25,9999,9999,9999,2333912128
115,21,5,ISIP_5,26,9999,9999,9999,2334412876
115,21,5,ISIP_5,27,9999,9999,9999,2334912572
115,21,5,ISIP_5,28,9999,9999,9999,2335412340
115,21,5,ISIP_5,29,9999,9999,9999,2335913008
115,21,5,ISIP_5,30,9999,9999,9999,2336412776
115,21,5,ISIP_5,31,9999,9999,9999,2336912472
115,21,5,ISIP_5,32,9999,9999,9999,2337412168
115,21,5,ISIP_5,33,9999,9999,9999,2337912908
115,21,5,ISIP_5,34,9999,9999,9999,2338412604
115,21,5,ISIP_5,35,9999,9999,9999,2338912352
115,21,5,ISIP_5,36,9999,9999,9999,2339413068
115,21,5,ISIP_5,37,9999,9999,9999,2339912808
115,21,5,ISIP_5,38,9999,9999,9999,2340412512
115,21,5,ISIP_5,39,9999,9999,9999,2340912204
115,21,5,ISIP_5,40,9999,9999,9999,2341412940
115,21,5,ISIP_5,41,9999,9999,9999,2341912656
115,21,5,ISIP_5,42,9999,9999,9999,2342412396
115,21,5,ISIP_5,43,9999,9999,9999,2342912092
115,21,5,ISIP_5,44,9999,9999,9999,2343412832
115,21,5,ISIP_5,45,9999,9999,9999,2343912520
115,21,5,ISIP_5,46,9999,9999,9999,2344412220
115,21,5,ISIP_5,47,9999,9999,9999,2344912948
115,21,5,ISIP_5,48,9999,9999,9999,2345412716
115,21,5,ISIP_5,49,9999,9999,9999,2345912404
115,21,5,ISIP_5,50,9999,9999,9999,2346412096
115,21,5,ISIP_5,51,9999,9999,9999,2346912832
115,21,5,ISIP_5,52,9999,9999,9999,2347412600
115,21,5,ISIP_5,53,9999,9999,9999,2347912288
115,21,5,ISIP_5,54,9999,9999,9999,2348413028
115,21,5,ISIP_5,55,9999,9999,9999,2348912720
115,21,5,ISIP_5,56,9999,9999,9999,2349412456
115,21,5,ISIP_5,57,9999,9999,9999,2349912148
115,21,5,ISIP_5,58,9999,9999,9999,2350412888
115,21,5,ISIP_5,59,9999,9999,9999,2350912576
115,21,5,ISIP_5,60,9999,9999,9999,2351412344
115,21,5,ISIP_5,61,9999,9999,9999,2351913080
115,21,5,ISIP_5,62,9999,9999,9999,2352412768
115,21,5,ISIP_5,63,9999,9999,9999,2352912460
115,21,5,ISIP_5,64,9999,9999,9999,2353412152
115,21,5,ISIP_5,65,9999,9999,9999,2353912892
115,21,5,ISIP_5,66,9999,9999,9999,2354412660
115,21,5,ISIP_5,67,9999,9999,9999,2354912348
115,21,5,ISIP_5,68,9999,9999,9999,2355413088
115,21,5,ISIP_5,69,9999,9999,9999,2355912780
115,21,5,ISIP_5,70,9999,9999,9999,2356412468
115,21,5,ISIP_5,71,9999,9999,9999,2356912236
115,21,5,ISIP_5,72,9999,9999,9999,2357412972
115,21,5,ISIP_5,73,9999,9999,9999,2357912664
115,21,5,ISIP_5,74,9999,9999,9999,2358412352
115,21,5,ISIP_5,75,9999,9999,9999,2358912120
115,21,5,ISIP_5,76,9999,9999,9999,2359412856
115,21,5,ISIP_5,77,9999,9999,9999,2359912524
115,21,5,ISIP_5,78,9999,9999,9999,2360412212
115,21,5,ISIP_5,79,9999,9999,9999,2360912948
115,21,5,ISIP_5,80,9999,9999,9999,2361412656
115,21,5,ISIP_5,81,9999,9999,9999,2361912424
115,21,5,ISIP_5,82,9999,9999,9999,2362412112
115,21,5,ISIP_5,83,9999,9999,9999,2362912856
115,21,5,ISIP_5,84,9999,9999,9999,2363412548
115,21,5,ISIP_5,85,9999,9999,9999,2363912312
115,21,5,ISIP_5,86,9999,9999,9999,2364413048
115,21,5,ISIP_5,87,9999,9999,9999,2364912740
115,21,5,ISIP_5,88,9999,9999,9999,2365412428
115,21,5,ISIP_5,89,9999,9999,9999,2365912120
115,21,5,ISIP_5,90,9999,9999,9999,2366412856
115,21,5,ISIP_5,91,9999,9999,9999,2366912620
115,21,5,ISIP_5,92,9999,9999,9999,2367412312
115,21,5,ISIP_5,93,9999,9999,9999,2367913052
115,21,5,ISIP_5,94,9999,9999,9999,2368412744
115,21,5,ISIP_5,95,9999,9999,9999,2368912432
115,21,5,ISIP_5,96,9999,9999,9999,2369412196
115,21,5,ISIP_5,97,9999,9999,9999,2369912936
115,21,5,ISIP_5,98,9999,9999,9999,2370412628
115,21,5,ISIP_5,99,9999,9999,9999,2370912368
115,21,5,ISIP_5,100,9999,9999,9999,2371413104
115,21,5,ISIP_5,101,9999,9999,9999,2371912812
115,21,5,ISIP_5,102,9999,9999,9999,2372412504
115,21,5,ISIP_5,103,9999,9999,9999,2372912192
115,21,5,ISIP_5,104,9999,9999,9999,2373412980
115,21,5,ISIP_5,105,9999,9999,9999,2373912676
115,21,5,ISIP_5,106,9999,9999,9999,2374412368
115,21,5,ISIP_5,107,9999,9999,9999,2374912056
115,21,5,ISIP_5,108,9999,9999,9999,2375412792
115,21,5,ISIP_5,109,9999,9999,9999,2375912560
115,21,5,ISIP_5,110,9999,9999,9999,2376412248
115,21,5,ISIP_5,111,9999,9999,9999,2376912988
115,21,5,ISIP_5,112,9999,9999,9999,2377412676
115,21,5,ISIP_5,113,9999,9999,9999,2377912440
115,21,5,ISIP_5,114,9999,9999,9999,2378412132
115,21,5,ISIP_5,115,9999,9999,9999,2378912868
115,21,5,ISIP_5,116,9999,9999,9999,2379412560
115,21,5,ISIP_5,117,9999,9999,9999,2379912252
115,21,5,ISIP_5,118,9999,9999,9999,2380412988
115,21,5,ISIP_5,119,9999,9999,9999,2380912756
115,21,5,ISIP_5,120,9999,9999,9999,2381412420
115,21,5,ISIP_5,121,9999,9999,9999,2381912112
115,21,5,ISIP_5,122,9999,9999,9999,2382412848
115,21,5,ISIP_5,123,9999,9999,9999,2382912616
115,21,5,ISIP_5,124,9999,9999,9999,2383412304
115,21,5,ISIP_5,125,9999,9999,9999,2383913060
115,21,5,ISIP_5,126,9999,9999,9999,2384412748
115,21,5,ISIP_5,127,9999,9999,9999,2384912440
115,21,5,ISIP_5,128,9999,9999,9999,2385412208
115,21,5,ISIP_5,129,9999,9999,9999,2385912944
115,21,5,ISIP_5,130,9999,9999,9999,2386412644
115,21,5,ISIP_5,131,9999,9999,9999,2386912332
115,21,5,ISIP_5,132,9999,9999,9999,2387413072
115,21,5,ISIP_5,133,9999,9999,9999,2387912764
115,21,5,ISIP_5,134,9999,9999,9999,2388412528
115,21,5,ISIP_5,135,9999,9999,9999,2388912216
115,21,5,ISIP_5,136,9999,9999,9999,2389412952
115,21,5,ISIP_5,137,9999,9999,9999,2389912644
115,21,5,ISIP_5,138,9999,9999,9999,2390412408
115,21,5,ISIP_5,139,9999,9999,9999,2390912096
115,21,5,ISIP_5,140,9999,9999,9999,2391412836
115,21,5,ISIP_5,141,9999,9999,9999,2391912504
115,21,5,ISIP_5,142,9999,9999,9999,2392412240
115,21,5,ISIP_5,143,9999,9999,9999,2392912980
115,21,5,ISIP_5,144,9999,9999,9999,2393412668
115,21,5,ISIP_5,145,9999,9999,9999,2393912436
115,21,5,ISIP_5,146,9999,9999,9999,2394412128
115,21,5,ISIP_5,147,9999,9999,9999,2394912864
115,21,5,ISIP_5,148,9999,9999,9999,2395412556
115,21,5,ISIP_5,149,9999,9999,9999,2395912248
115,21,5,ISIP_5,150,9999,9999,9999,2396412984
115,21,5,ISIP_5,151,9999,9999,9999,2396912692
115,21,5,ISIP_5,152,9999,9999,9999,2397412456
115,21,5,ISIP_5,153,9999,9999,9999,2397912148
115,21,5,ISIP_5,154,9999,9999,9999,2398412888
115,21,5,ISIP_5,155,9999,9999,9999,2398912584
115,21,5,ISIP_5,156,9999,9999,9999,2399412276
115,21,5,ISIP_5,157,9999,9999,9999,2399913012
115,21,5,ISIP_5,158,9999,9999,9999,2400412776
115,21,5,ISIP_5,159,9999,9999,9999,2400912468
115,22,11,Pattern_Practice,0,5,42,127,2519020888
115,22,11,Pattern_Practice,1,5,42,127,2519520752
115,22,11,Pattern_Practice,2,5,42,127,2520021444
115,22,11,Pattern_Practice,3,5,42,127,2520521084
115,22,11,Pattern_Practice,4,5,42,127,2521020724
115,22,11,Pattern_Practice,5,1,38,43,2521029756
115,22,11,Pattern_Practice,6,1,38,29,2521504596
115,22,11,Pattern_Practice,7,5,42,127,2521520712
115,22,11,Pattern_Practice,8,1,38,51,2521763492
115,22,11,Pattern_Practice,9,5,42,127,2522021364
115,22,11,Pattern_Practice,10,1,48,47,2522031064
115,22,11,Pattern_Practice,11,1,38,54,2522505688
115,22,11,Pattern_Practice,12,5,42,127,2522520832
115,22,11,Pattern_Practice,13,1,38,53,2523017500
115,22,11,Pattern_Practice,14,5,42,127,2523020748
115,22,11,Pattern_Practice,15,1,38,50,2523493560
115,22,11,Pattern_Practice,16,5,42,127,2523521340
115,22,11,Pattern_Practice,17,1,48,41,2523782300
115,22,11,Pattern_Practice,18,5,42,127,2524021020
115,22,11,Pattern_Practice,19,1,38,67,2524051288
115,22,11,Pattern_Practice,20,5,42,127,2524520788
115,22,11,Pattern_Practice,21,1,38,45,2524538788
115,22,11,Pattern_Practice,22,1,38,64,2524761592
115,22,11,Pattern_Practice,23,1,38,45,2525016952
115,22,11,Pattern_Practice,24,5,42,127,2525020652
115,22,11,Pattern_Practice,25,1,38,66,2525268520
115,22,11,Pattern_Practice,26,5,42,127,2525521380
115,22,11,Pattern_Practice,27,1,38,49,2525529660
115,22,11,Pattern_Practice,28,1,38,57,2525799032
115,22,11,Pattern_Practice,29,5,42,127,2526020828
115,22,11,Pattern_Practice,30,1,38,45,2526032400
115,22,11,Pattern_Practice,31,1,38,49,2526244676
115,22,11,Pattern_Practice,32,1,38,48,2526517472
115,22,11,Pattern_Practice,33,5,42,127,2526520644
115,22,11,Pattern_Practice,34,1,38,52,2526761480
115,22,11,Pattern_Practice,35,1,38,30,2526810228
115,22,11,Pattern_Practice,36,1,38,44,2527020896
115,22,11,Pattern_Practice,37,5,42,127,2527023212
115,22,11,Pattern_Practice,38,1,38,53,2527246020
115,22,11,Pattern_Practice,39,1,38,40,2527289384
115,22,11,Pattern_Practice,40,5,42,127,2527521000
115,22,11,Pattern_Practice,41,1,48,41,2527546484
115,22,11,Pattern_Practice,42,5,42,127,2528020692
115,22,11,Pattern_Practice,43,1,48,32,2528062560
115,22,11,Pattern_Practice,44,5,42,127,2528520536
115,22,11,Pattern_Practice,45,1,48,47,2528521504
115,22,11,Pattern_Practice,46,5,42,127,2529021424
115,22,11,Pattern_Practice,47,1,38,51,2529044440
115,22,11,Pattern_Practice,48,1,38,49,2529291428
115,22,11,Pattern_Practice,49,5,42,127,2529520948
115,22,11,Pattern_Practice,50,1,38,62,2529565132
115,22,11,Pattern_Practice,51,5,42,127,2530020868
115,22,11,Pattern_Practice,52,1,48,62,2530517328
115,22,11,Pattern_Practice,53,5,42,127,2530520500
115,22,11,Pattern_Practice,54,5,42,127,2531021248
115,22,11,Pattern_Practice,55,1,38,67,2531497888
115,22,11,Pattern_Practice,56,5,42,127,2531520736
115,22,11,Pattern_Practice,57,1,38,47,2531747508
115,22,11,Pattern_Practice,58,1,38,75,2532019432
115,22,11,Pattern_Practice,59,5,42,127,2532021976
115,22,11,Pattern_Practice,60,5,42,127,2532521452
115,22,11,Pattern_Practice,61,1,48,52,2532989044
115,22,11,Pattern_Practice,62,5,42,127,2533020940
115,22,11,Pattern_Practice,63,5,42,127,2533520792
115,22,11,Pattern_Practice,64,1,38,58,2533553456
115,22,11,Pattern_Practice,65,1,38,55,2533810160
115,22,11,Pattern_Practice,66,5,42,127,2534020316
115,22,11,Pattern_Practice,67,1,38,69,2534077360
115,22,11,Pattern_Practice,68,5,42,127,2534521204
115,22,11,Pattern_Practice,69,1,48,44,2534560228
115,22,11,Pattern_Practice,70,1,38,58,2534988824
115,22,11,Pattern_Practice,71,5,42,127,2535020892
115,22,11,Pattern_Practice,72,5,42,127,2535520644
115,22,11,Pattern_Practice,73,1,38,51,2535525332
115,22,11,Pattern_Practice,74,1,38,47,2535979880
115,22,11,Pattern_Practice,75,5,42,127,2536021500
115,22,11,Pattern_Practice,76,1,48,37,2536474716
115,22,11,Pattern_Practice,77,5,42,127,2536521344
115,22,11,Pattern_Practice,78,1,38,43,2536623732
115,22,11,Pattern_Practice,79,5,42,127,2537020652
115,22,11,Pattern_Practice,80,5,42,127,2537520444
115,22,11,Pattern_Practice,81,1,38,37,2537608484
115,22,11,Pattern_Practice,82,1,48,35,2537862948
115,22,11,Pattern_Practice,83,5,42,127,2538021384
115,22,11,Pattern_Practice,84,1,38,40,2538233588
115,22,11,Pattern_Practice,85,5,42,127,2538521008
115,22,11,Pattern_Practice,86,5,42,127,2539020572
115,22,11,Pattern_Practice,87,5,42,127,2539521412
115,22,11,Pattern_Practice,88,5,42,127,2540021352
115,22,11,Pattern_Practice,89,1,38,47,2540056560
115,22,11,Pattern_Practice,90,5,42,127,2540520748
115,22,11,Pattern_Practice,91,1,38,43,2540827872
115,22,11,Pattern_Practice,92,5,42,127,2541020520
115,22,11,Pattern_Practice,93,1,38,34,2541071660
115,22,11,Pattern_Practice,94,1,38,42,2541520584
115,22,11,Pattern_Practice,95,5,42,127,2541522896
115,22,11,Pattern_Practice,96,1,38,52,2542007004
115,22,11,Pattern_Practice,97,5,42,127,2542020948
115,22,11,Pattern_Practice,98,5,42,127,2542520576
115,22,11,Pattern_Practice,99,1,38,18,2542737420
115,22,11,Pattern_Practice,100,1,38,50,2543009084
115,22,11,Pattern_Practice,101,5,42,127,2543021312
115,22,11,Pattern_Practice,102,1,38,48,2543487312
115,22,11,Pattern_Practice,103,5,42,127,2543521300
115,22,11,Pattern_Practice,104,1,48,54,2543970100
115,22,11,Pattern_Practice,105,5,42,127,2544020772
115,22,11,Pattern_Practice,106,1,38,50,2544463412
115,22,11,Pattern_Practice,107,5,42,127,2544520468
115,22,11,Pattern_Practice,108,1,38,44,2544719392
115,22,11,Pattern_Practice,109,5,42,127,2545021268
115,22,11,Pattern_Practice,110,1,38,56,2545023784
115,22,11,Pattern_Practice,111,5,42,127,2545521184
115,22,11,Pattern_Practice,112,1,48,53,2545525276
115,22,11,Pattern_Practice,113,1,38,47,2545962768
115,22,11,Pattern_Practice,114,5,42,127,2546020648
115,22,11,Pattern_Practice,115,1,38,47,2546466800
115,22,11,Pattern_Practice,116,5,42,127,2546520392
115,22,11,Pattern_Practice,117,1,38,46,2546762500
115,22,11,Pattern_Practice,118,5,42,127,2547021340
115,22,11,Pattern_Practice,119,1,38,45,2547041164
115,22,11,Pattern_Practice,120,1,38,42,2547335048
115,22,11,Pattern_Practice,121,5,42,127,2547521164
115,22,11,Pattern_Practice,122,1,38,33,2547593120
115,22,11,Pattern_Practice,123,1,38,48,2547869428
115,22,11,Pattern_Practice,124,5,42,127,2548020468
115,22,11,Pattern_Practice,125,1,38,36,2548153232
115,22,11,Pattern_Practice,126,5,42,127,2548521428
115,22,11,Pattern_Practice,127,5,42,127,2549021296
115,22,11,Pattern_Practice,128,1,38,47,2549086872
115,22,11,Pattern_Practice,129,5,42,127,2549520692
115,22,11,Pattern_Practice,130,1,38,46,2549553656
115,22,11,Pattern_Practice,131,5,42,127,2550020464
115,22,11,Pattern_Practice,132,1,38,39,2550049536
115,22,11,Pattern_Practice,133,1,38,42,2550306848
115,22,11,Pattern_Practice,134,5,42,127,2550521184
115,22,11,Pattern_Practice,135,1,38,27,2550583020
115,22,11,Pattern_Practice,136,5,42,127,2551021028
115,22,11,Pattern_Practice,137,1,38,40,2551069324
115,22,11,Pattern_Practice,138,5,42,127,2551520572
115,22,11,Pattern_Practice,139,1,38,41,2551537528
115,22,11,Pattern_Practice,140,1,38,40,2552009532
115,22,11,Pattern_Practice,141,5,42,127,2552021308
115,22,11,Pattern_Practice,142,1,38,46,2552307848
115,22,11,Pattern_Practice,143,5,42,127,2552520988
115,22,11,Pattern_Practice,144,1,38,54,2552563448
115,22,11,Pattern_Practice,145,5,42,127,2553020908
115,22,11,Pattern_Practice,146,1,48,54,2553058512
115,22,11,Pattern_Practice,147,1,38,50,2553516896
115,22,11,Pattern_Practice,148,5,42,127,2553520448
115,22,11,Pattern_Practice,149,1,38,46,2553984432
115,22,11,Pattern_Practice,150,5,42,127,2554021188
115,22,11,Pattern_Practice,151,1,38,44,2554486220
115,22,11,Pattern_Practice,152,5,42,127,2554520956
115,22,11,Pattern_Practice,153,1,38,43,2554750572
115,22,11,Pattern_Practice,154,1,38,47,2555019048
115,22,11,Pattern_Practice,155,5,42,127,2555021528
115,22,11,Pattern_Practice,156,1,38,54,2555501216
115,22,11,Pattern_Practice,157,5,42,127,2555521448
115,22,11,Pattern_Practice,158,1,38,48,2556016096
115,22,11,Pattern_Practice,159,5,42,127,2556020992
115,22,11,Pattern_Practice,160,1,38,40,2556267740
115,22,11,Pattern_Practice,161,5,42,127,2556520896
115,22,11,Pattern_Practice,162,1,38,56,2556549968
115,22,11,Pattern_Practice,163,5,42,127,2557020492
115,22,11,Pattern_Practice,164,1,48,77,2557033884
115,22,11,Pattern_Practice,165,1,38,46,2557504364
115,22,11,Pattern_Practice,166,5,42,127,2557521228
115,22,11,Pattern_Practice,167,5,42,127,2558020928
115,22,11,Pattern_Practice,168,1,38,48,2558031524
115,22,11,Pattern_Practice,169,5,42,127,2558520700
115,22,11,Pattern_Practice,170,1,38,44,2558523292
115,22,11,Pattern_Practice,171,1,38,52,2558796308
115,22,11,Pattern_Practice,0,9999,9999,9999,2519018600
115,22,11,Pattern_Practice,1,9999,9999,9999,2519518320
115,22,11,Pattern_Practice,2,9999,9999,9999,2520019008
115,22,11,Pattern_Practice,3,9999,9999,9999,2520518724
115,22,11,Pattern_Practice,4,9999,9999,9999,2521018440
115,22,11,Pattern_Practice,5,9999,9999,9999,2521518128
115,22,11,Pattern_Practice,6,9999,9999,9999,2522018932
115,22,11,Pattern_Practice,7,9999,9999,9999,2522518620
115,22,11,Pattern_Practice,8,9999,9999,9999,2523018312
115,22,11,Pattern_Practice,9,9999,9999,9999,2523519056
115,22,11,Pattern_Practice,10,9999,9999,9999,2524018808
115,22,11,Pattern_Practice,11,9999,9999,9999,2524518500
115,22,11,Pattern_Practice,12,9999,9999,9999,2525018216
115,22,11,Pattern_Practice,13,9999,9999,9999,2525518944
115,22,11,Pattern_Practice,14,9999,9999,9999,2526018616
115,22,11,Pattern_Practice,15,9999,9999,9999,2526518356
115,22,11,Pattern_Practice,16,9999,9999,9999,2527019060
115,22,11,Pattern_Practice,17,9999,9999,9999,2527518788
115,22,11,Pattern_Practice,18,9999,9999,9999,2528018480
115,22,11,Pattern_Practice,19,9999,9999,9999,2528518248
115,22,11,Pattern_Practice,20,9999,9999,9999,2529018992
115,22,11,Pattern_Practice,21,9999,9999,9999,2529518664
115,22,11,Pattern_Practice,22,9999,9999,9999,2530018356
115,22,11,Pattern_Practice,23,9999,9999,9999,2530518068
115,22,11,Pattern_Practice,24,9999,9999,9999,2531018812
115,22,11,Pattern_Practice,25,9999,9999,9999,2531518524
115,22,11,Pattern_Practice,26,9999,9999,9999,2532018280
115,22,11,Pattern_Practice,27,9999,9999,9999,2532519020
115,22,11,Pattern_Practice,28,9999,9999,9999,2533018728
115,22,11,Pattern_Practice,29,9999,9999,9999,2533518432
115,22,11,Pattern_Practice,30,9999,9999,9999,2534018104
115,22,11,Pattern_Practice,31,9999,9999,9999,2534518844
115,22,11,Pattern_Practice,32,9999,9999,9999,2535018604
115,22,11,Pattern_Practice,33,9999,9999,9999,2535518284
115,22,11,Pattern_Practice,34,9999,9999,9999,2536018992
115,22,11,Pattern_Practice,35,9999,9999,9999,2536518760
115,22,11,Pattern_Practice,36,9999,9999,9999,2537018440
115,22,11,Pattern_Practice,37,9999,9999,9999,2537518160
115,22,11,Pattern_Practice,38,9999,9999,9999,2538018876
115,22,11,Pattern_Practice,39,9999,9999,9999,2538518644
115,22,11,Pattern_Practice,40,9999,9999,9999,2539018360
115,22,11,Pattern_Practice,41,9999,9999,9999,2539519052
115,22,11,Pattern_Practice,42,9999,9999,9999,2540018768
115,22,11,Pattern_Practice,43,9999,9999,9999,2540518464
115,22,11,Pattern_Practice,44,9999,9999,9999,2541018232
115,22,11,Pattern_Practice,45,9999,9999,9999,2541518900
115,22,11,Pattern_Practice,46,9999,9999,9999,2542018664
115,22,11,Pattern_Practice,47,9999,9999,9999,2542518364
115,22,11,Pattern_Practice,48,9999,9999,9999,2543019096
115,22,11,Pattern_Practice,49,9999,9999,9999,2543518792
115,22,11,Pattern_Practice,50,9999,9999,9999,2544018488
115,22,11,Pattern_Practice,51,9999,9999,9999,2544518256
115,22,11,Pattern_Practice,52,9999,9999,9999,2545018980
115,22,11,Pattern_Practice,53,9999,9999,9999,2545518676
115,22,11,Pattern_Practice,54,9999,9999,9999,2546018360
115,22,11,Pattern_Practice,55,9999,9999,9999,2546518108
115,22,11,Pattern_Practice,56,9999,9999,9999,2547018832
115,22,11,Pattern_Practice,57,9999,9999,9999,2547518580
115,22,11,Pattern_Practice,58,9999,9999,9999,2548018252
115,22,11,Pattern_Practice,59,9999,9999,9999,2548518996
115,22,11,Pattern_Practice,60,9999,9999,9999,2549018712
115,22,11,Pattern_Practice,61,9999,9999,9999,2549518408
115,22,11,Pattern_Practice,62,9999,9999,9999,2550018100
115,22,11,Pattern_Practice,63,9999,9999,9999,2550518896
115,22,11,Pattern_Practice,64,9999,9999,9999,2551018592
115,22,11,Pattern_Practice,65,9999,9999,9999,2551518288
115,22,11,Pattern_Practice,66,9999,9999,9999,2552019024
115,22,11,Pattern_Practice,67,9999,9999,9999,2552518776
115,22,11,Pattern_Practice,68,9999,9999,9999,2553018472
115,22,11,Pattern_Practice,69,9999,9999,9999,2553518160
115,22,11,Pattern_Practice,70,9999,9999,9999,2554018904
115,22,11,Pattern_Practice,71,9999,9999,9999,2554518596
115,22,11,Pattern_Practice,72,9999,9999,9999,2555018356
115,22,11,Pattern_Practice,73,9999,9999,9999,2555519084
115,22,11,Pattern_Practice,74,9999,9999,9999,2556018780
115,22,11,Pattern_Practice,75,9999,9999,9999,2556518460
115,22,11,Pattern_Practice,76,9999,9999,9999,2557018204
115,22,11,Pattern_Practice,77,9999,9999,9999,2557518940
115,22,11,Pattern_Practice,78,9999,9999,9999,2558018644
115,22,11,Pattern_Practice,79,9999,9999,9999,2558518336
115,23,13,Improv_Metronome,0,5,42,127,2593432824
115,23,13,Improv_Metronome,1,5,42,127,2593932692
115,23,13,Improv_Metronome,2,5,42,127,2594433532
115,23,13,Improv_Metronome,3,5,42,127,2594933024
115,23,13,Improv_Metronome,4,5,42,127,2595432740
115,23,13,Improv_Metronome,5,1,38,53,2595498612
115,23,13,Improv_Metronome,6,5,42,127,2595932636
115,23,13,Improv_Metronome,7,1,38,55,2595970632
115,23,13,Improv_Metronome,8,1,38,47,2596409848
115,23,13,Improv_Metronome,9,5,42,127,2596433440
115,23,13,Improv_Metronome,10,1,38,45,2596669796
115,23,13,Improv_Metronome,11,5,42,127,2596932824
115,23,13,Improv_Metronome,12,1,38,66,2596934912
115,23,13,Improv_Metronome,13,5,42,127,2597432668
115,23,13,Improv_Metronome,14,1,38,49,2597520856
115,23,13,Improv_Metronome,15,1,38,41,2597700124
115,23,13,Improv_Metronome,16,1,38,26,2597748596
115,23,13,Improv_Metronome,17,5,42,127,2597933368
115,23,13,Improv_Metronome,18,1,38,55,2598035620
115,23,13,Improv_Metronome,19,5,42,127,2598433356
115,23,13,Improv_Metronome,20,1,48,57,2598568596
115,23,13,Improv_Metronome,21,5,42,127,2598932980
115,23,13,Improv_Metronome,22,1,38,59,2599020720
115,23,13,Improv_Metronome,23,5,42,127,2599432600
115,23,13,Improv_Metronome,24,1,38,54,2599477680
115,23,13,Improv_Metronome,25,5,42,127,2599933416
115,23,13,Improv_Metronome,26,1,38,60,2599966832
115,23,13,Improv_Metronome,27,1,38,52,2600212316
115,23,13,Improv_Metronome,28,5,42,127,2600432940
115,23,13,Improv_Metronome,29,1,38,63,2600497248
115,23,13,Improv_Metronome,30,5,42,127,2600932784
115,23,13,Improv_Metronome,31,1,38,54,2600983776
115,23,13,Improv_Metronome,32,1,38,60,2601216772
115,23,13,Improv_Metronome,33,5,42,127,2601432308
115,23,13,Improv_Metronome,34,1,38,52,2601510372
115,23,13,Improv_Metronome,35,5,42,127,2601933344
115,23,13,Improv_Metronome,36,1,38,60,2601973712
115,23,13,Improv_Metronome,37,5,42,127,2602432820
115,23,13,Improv_Metronome,38,1,48,52,2602463984
115,23,13,Improv_Metronome,39,5,42,127,2602932440
115,23,13,Improv_Metronome,40,1,38,57,2602937576
115,23,13,Improv_Metronome,41,1,38,56,2603429104
115,23,13,Improv_Metronome,42,5,42,127,2603433396
115,23,13,Improv_Metronome,43,5,42,127,2603933248
115,23,13,Improv_Metronome,44,1,38,48,2603953720
115,23,13,Improv_Metronome,45,1,38,49,2604190908
115,23,13,Improv_Metronome,46,5,42,127,2604432696
115,23,13,Improv_Metronome,47,1,38,46,2604464240
115,23,13,Improv_Metronome,48,1,38,57,2604925468
115,23,13,Improv_Metronome,49,5,42,127,2604932384
115,23,13,Improv_Metronome,50,1,38,45,2605183688
115,23,13,Improv_Metronome,51,5,42,127,2605433332
115,23,13,Improv_Metronome,52,1,38,48,2605455152
115,23,13,Improv_Metronome,53,1,38,42,2605695852
115,23,13,Improv_Metronome,54,5,42,127,2605932860
115,23,13,Improv_Metronome,55,1,38,42,2605953480
115,23,13,Improv_Metronome,56,1,38,43,2606190968
115,23,13,Improv_Metronome,57,1,38,43,2606432460
115,23,13,Improv_Metronome,58,5,42,127,2606434620
115,23,13,Improv_Metronome,59,1,38,31,2606696700
115,23,13,Improv_Metronome,60,5,42,127,2606933300
115,23,13,Improv_Metronome,61,1,38,45,2606948712
115,23,13,Improv_Metronome,62,5,42,127,2607433220
115,23,13,Improv_Metronome,63,1,38,38,2607723012
115,23,13,Improv_Metronome,64,5,42,127,2607932692
115,23,13,Improv_Metronome,65,1,38,44,2607965976
115,23,13,Improv_Metronome,66,5,42,127,2608432460
115,23,13,Improv_Metronome,67,1,38,39,2608678844
115,23,13,Improv_Metronome,68,5,42,127,2608933200
115,23,13,Improv_Metronome,69,1,38,46,2608946940
115,23,13,Improv_Metronome,70,1,38,42,2609168868
115,23,13,Improv_Metronome,71,5,42,127,2609432948
115,23,13,Improv_Metronome,72,1,38,48,2609462020
115,23,13,Improv_Metronome,73,1,38,56,2609900436
115,23,13,Improv_Metronome,74,5,42,127,2609932636
115,23,13,Improv_Metronome,75,1,48,56,2610417788
115,23,13,Improv_Metronome,76,5,42,127,2610433452
115,23,13,Improv_Metronome,77,1,38,51,2610920020
115,23,13,Improv_Metronome,78,5,42,127,2610933296
115,23,13,Improv_Metronome,79,1,38,46,2611259480
115,23,13,Improv_Metronome,80,5,42,127,2611432676
115,23,13,Improv_Metronome,81,1,38,49,2611767024
115,23,13,Improv_Metronome,82,5,42,127,2611932520
115,23,13,Improv_Metronome,83,1,38,43,2612006396
115,23,13,Improv_Metronome,84,5,42,127,2612433336
115,23,13,Improv_Metronome,85,1,38,46,2612458072
115,23,13,Improv_Metronome,86,5,42,127,2612933104
115,23,13,Improv_Metronome,87,1,38,50,2612964272
115,23,13,Improv_Metronome,88,1,38,48,2613312908
115,23,13,Improv_Metronome,89,5,42,127,2613432776
115,23,13,Improv_Metronome,90,1,38,46,2613718584
115,23,13,Improv_Metronome,91,5,42,127,2613933444
115,23,13,Improv_Metronome,92,1,38,58,2613956764
115,23,13,Improv_Metronome,93,1,38,18,2614368476
115,23,13,Improv_Metronome,94,1,38,49,2614413856
115,23,13,Improv_Metronome,95,5,42,127,2614433112
115,23,13,Improv_Metronome,96,1,38,60,2614910856
115,23,13,Improv_Metronome,97,5,42,127,2614932956
115,23,13,Improv_Metronome,98,1,48,59,2615309476
115,23,13,Improv_Metronome,99,5,42,127,2615432488
115,23,13,Improv_Metronome,100,1,38,59,2615823084
115,23,13,Improv_Metronome,101,5,42,127,2615933380
115,23,13,Improv_Metronome,102,1,38,42,2616362272
115,23,13,Improv_Metronome,103,5,42,127,2616433164
115,23,13,Improv_Metronome,104,1,38,52,2616927812
115,23,13,Improv_Metronome,105,5,42,127,2616932636
115,23,13,Improv_Metronome,106,5,42,127,2617432384
115,23,13,Improv_Metronome,107,1,48,41,2617444508
115,23,13,Improv_Metronome,108,5,42,127,2617933276
115,23,13,Improv_Metronome,109,1,48,46,2617960052
115,23,13,Improv_Metronome,110,5,42,127,2618432968
115,23,13,Improv_Metronome,111,1,48,44,2618454116
115,23,13,Improv_Metronome,112,5,42,127,2618932588
115,23,13,Improv_Metronome,113,1,48,52,2619396288
115,23,13,Improv_Metronome,114,5,42,127,2619433272
115,23,13,Improv_Metronome,115,5,42,127,2619933048
115,23,13,Improv_Metronome,116,5,42,127,2620432616
115,23,13,Improv_Metronome,117,1,48,43,2620485324
115,23,13,Improv_Metronome,118,5,42,127,2620932384
115,23,13,Improv_Metronome,119,1,38,52,2621428920
115,23,13,Improv_Metronome,120,5,42,127,2621433140
115,23,13,Improv_Metronome,121,1,38,46,2621709804
115,23,13,Improv_Metronome,122,5,42,127,2621933044
115,23,13,Improv_Metronome,123,1,38,58,2621982684
115,23,13,Improv_Metronome,124,5,42,127,2622432588
115,23,13,Improv_Metronome,125,1,38,53,2622466156
115,23,13,Improv_Metronome,126,5,42,127,2622933404
115,23,13,Improv_Metronome,127,1,48,43,2622995388
115,23,13,Improv_Metronome,128,5,42,127,2623432952
115,23,13,Improv_Metronome,129,1,38,51,2623457912
115,23,13,Improv_Metronome,130,1,38,55,2623717160
115,23,13,Improv_Metronome,131,5,42,127,2623932772
115,23,13,Improv_Metronome,132,1,38,59,2623968432
115,23,13,Improv_Metronome,133,5,42,127,2624432468
115,23,13,Improv_Metronome,134,1,38,59,2624452192
115,23,13,Improv_Metronome,135,5,42,127,2624933212
115,23,13,Improv_Metronome,136,1,38,49,2624999012
115,23,13,Improv_Metronome,137,5,42,127,2625432904
115,23,13,Improv_Metronome,138,1,38,62,2625471328
115,23,13,Improv_Metronome,139,5,42,127,2625932600
115,23,13,Improv_Metronome,140,1,38,40,2625970124
115,23,13,Improv_Metronome,141,1,38,35,2626165200
115,23,13,Improv_Metronome,142,1,38,44,2626433764
115,23,13,Improv_Metronome,143,5,42,127,2626435852
115,23,13,Improv_Metronome,144,1,38,40,2626893380
115,23,13,Improv_Metronome,145,5,42,127,2626933232
115,23,13,Improv_Metronome,146,5,42,127,2627432784
115,23,13,Improv_Metronome,147,1,48,49,2627435680
115,23,13,Improv_Metronome,148,1,38,47,2627926280
115,23,13,Improv_Metronome,149,5,42,127,2627932696
115,23,13,Improv_Metronome,150,1,48,42,2628222448
115,23,13,Improv_Metronome,151,5,42,127,2628433172
115,23,13,Improv_Metronome,152,1,38,42,2628695344
115,23,13,Improv_Metronome,153,5,42,127,2628933092
115,23,13,Improv_Metronome,154,1,48,35,2628951840
115,23,13,Improv_Metronome,155,1,38,38,2629233784
115,23,13,Improv_Metronome,156,5,42,127,2629432612
115,23,13,Improv_Metronome,157,1,48,41,2629455932
115,23,13,Improv_Metronome,158,5,42,127,2629933508
115,23,13,Improv_Metronome,159,1,38,42,2629961084
115,23,13,Improv_Metronome,160,1,48,34,2630205900
115,23,13,Improv_Metronome,161,5,42,127,2630433104
115,23,13,Improv_Metronome,162,1,38,43,2630648300
115,23,13,Improv_Metronome,163,1,48,32,2630814128
115,23,13,Improv_Metronome,164,5,42,127,2630932776
115,23,13,Improv_Metronome,165,1,38,36,2631098384
115,23,13,Improv_Metronome,166,1,48,39,2631357036
115,23,13,Improv_Metronome,167,5,42,127,2631432688
115,23,13,Improv_Metronome,168,1,38,48,2631873788
115,23,13,Improv_Metronome,169,5,42,127,2631933356
115,23,13,Improv_Metronome,170,1,48,40,2632159980
115,23,13,Improv_Metronome,171,5,42,127,2632432964
115,23,13,Improv_Metronome,172,1,38,35,2632614124
115,23,13,Improv_Metronome,173,1,48,39,2632893196
115,23,13,Improv_Metronome,174,5,42,127,2632932872
115,23,13,Improv_Metronome,175,1,38,44,2633163684
115,23,13,Improv_Metronome,176,5,42,127,2633432332
115,23,13,Improv_Metronome,177,1,48,46,2633435072
115,23,13,Improv_Metronome,178,5,42,127,2633933072
115,23,13,Improv_Metronome,179,1,38,46,2633968732
115,23,13,Improv_Metronome,180,5,42,127,2634432916
115,23,13,Improv_Metronome,181,1,38,54,2634483456
115,23,13,Improv_Metronome,182,5,42,127,2634932836
115,23,13,Improv_Metronome,183,1,48,32,2634969392
115,23,13,Improv_Metronome,184,1,38,56,2635180248
115,23,13,Improv_Metronome,185,5,42,127,2635433256
115,23,13,Improv_Metronome,186,1,48,43,2635472280
115,23,13,Improv_Metronome,187,5,42,127,2635933028
115,23,13,Improv_Metronome,188,1,38,27,2635967408
115,23,13,Improv_Metronome,189,1,48,41,2636250600
115,23,13,Improv_Metronome,190,5,42,127,2636432848
115,23,13,Improv_Metronome,191,1,38,24,2636526024
115,23,13,Improv_Metronome,192,5,42,127,2636932692
115,23,13,Improv_Metronome,193,1,48,37,2636989740
115,23,13,Improv_Metronome,194,5,42,127,2637433208
115,23,13,Improv_Metronome,195,1,38,55,2637441044
115,23,13,Improv_Metronome,196,1,48,37,2637927176
115,23,13,Improv_Metronome,197,5,42,127,2637932896
115,23,13,Improv_Metronome,198,1,48,31,2638203204
115,23,13,Improv_Metronome,199,5,42,127,2638432876
115,23,13,Improv_Metronome,200,5,42,127,2638933240
115,23,13,Improv_Metronome,201,1,48,35,2638934728
115,23,13,Improv_Metronome,202,5,42,127,2639433012
115,23,13,Improv_Metronome,203,5,42,127,2639932728
115,23,13,Improv_Metronome,204,1,48,41,2639938988
115,23,13,Improv_Metronome,205,1,48,35,2640230052
115,23,13,Improv_Metronome,206,5,42,127,2640432696
115,23,13,Improv_Metronome,207,5,42,127,2640933164
115,23,13,Improv_Metronome,208,1,48,40,2640972860
115,23,13,Improv_Metronome,209,5,42,127,2641432932
115,23,13,Improv_Metronome,210,5,42,127,2641932944
115,23,13,Improv_Metronome,211,1,38,58,2641963216
115,23,13,Improv_Metronome,212,5,42,127,2642433240
115,23,13,Improv_Metronome,213,1,38,44,2642450120
115,23,13,Improv_Metronome,214,1,38,51,2642917184
115,23,13,Improv_Metronome,215,5,42,127,2642933224
115,23,13,Improv_Metronome,216,1,38,48,2643182888
115,23,13,Improv_Metronome,217,5,42,127,2643432904
115,23,13,Improv_Metronome,218,1,38,59,2643456148
115,23,13,Improv_Metronome,219,1,48,43,2643927228
115,23,13,Improv_Metronome,220,5,42,127,2643932868
115,23,13,Improv_Metronome,221,1,38,58,2644404856
115,23,13,Improv_Metronome,222,5,42,127,2644433236
115,23,13,Improv_Metronome,223,1,38,50,2644928188
115,23,13,Improv_Metronome,224,5,42,127,2644932932
115,23,13,Improv_Metronome,225,1,38,47,2645241384
115,23,13,Improv_Metronome,226,5,42,127,2645432612
115,23,13,Improv_Metronome,227,1,38,46,2645485700
115,23,13,Improv_Metronome,228,5,42,127,2645933356
115,23,13,Improv_Metronome,229,1,48,47,2645984116
115,23,13,Improv_Metronome,230,5,42,127,2646433272
115,23,13,Improv_Metronome,231,1,38,49,2646445368
115,23,13,Improv_Metronome,232,1,38,45,2646923504
115,23,13,Improv_Metronome,233,5,42,127,2646932812
115,23,13,Improv_Metronome,234,5,42,127,2647432736
115,23,13,Improv_Metronome,235,1,38,49,2647442812
115,23,13,Improv_Metronome,236,1,38,43,2647707152
115,23,13,Improv_Metronome,237,5,42,127,2647933456
115,23,13,Improv_Metronome,238,1,38,57,2647960740
115,23,13,Improv_Metronome,239,5,42,127,2648433076
115,23,13,Improv_Metronome,240,1,48,53,2648456016
115,23,13,Improv_Metronome,241,1,38,58,2648924356
115,23,13,Improv_Metronome,242,5,42,127,2648932840
115,23,13,Improv_Metronome,243,5,42,127,2649432516
115,23,13,Improv_Metronome,244,1,38,46,2649446280
115,23,13,Improv_Metronome,245,1,38,51,2649661376
115,23,13,Improv_Metronome,246,5,42,127,2649933236
115,23,13,Improv_Metronome,247,1,38,46,2649966824
115,23,13,Improv_Metronome,248,5,42,127,2650433004
115,23,13,Improv_Metronome,249,1,48,47,2650460460
115,23,13,Improv_Metronome,250,1,38,55,2650929140
115,23,13,Improv_Metronome,251,5,42,127,2650932544
115,23,13,Improv_Metronome,252,1,38,44,2651422856
115,23,13,Improv_Metronome,253,5,42,127,2651433360
115,23,13,Improv_Metronome,254,5,42,127,2651933212
115,23,13,Improv_Metronome,255,1,38,51,2651934104
115,23,13,Improv_Metronome,256,1,38,43,2652205460
115,23,13,Improv_Metronome,257,5,42,127,2652432736
115,23,13,Improv_Metronome,258,1,38,50,2652458816
115,23,13,Improv_Metronome,259,5,42,127,2652932504
115,23,13,Improv_Metronome,260,1,48,46,2652973992
115,23,13,Improv_Metronome,261,5,42,127,2653433320
115,23,13,Improv_Metronome,262,1,38,55,2653457608
115,23,13,Improv_Metronome,263,5,42,127,2653933012
115,23,13,Improv_Metronome,264,1,48,36,2653940320
115,23,13,Improv_Metronome,265,5,42,127,2654432636
115,23,13,Improv_Metronome,266,1,38,45,2654469112
115,23,13,Improv_Metronome,267,1,48,36,2654722980
115,23,13,Improv_Metronome,268,5,42,127,2654933356
115,23,13,Improv_Metronome,269,5,42,127,2655433296
115,23,13,Improv_Metronome,270,5,42,127,2655932640
115,23,13,Improv_Metronome,271,1,38,54,2655947880
115,23,13,Improv_Metronome,272,5,42,127,2656432484
115,23,13,Improv_Metronome,273,1,48,39,2656443980
115,23,13,Improv_Metronome,274,1,38,43,2656911344
115,23,13,Improv_Metronome,275,5,42,127,2656933368
115,23,13,Improv_Metronome,276,1,48,45,2657235092
115,23,13,Improv_Metronome,277,5,42,127,2657432824
115,23,13,Improv_Metronome,278,1,38,50,2657792380
115,23,13,Improv_Metronome,279,5,42,127,2657932520
115,23,13,Improv_Metronome,280,5,42,127,2658433508
115,23,13,Improv_Metronome,281,1,48,37,2658447772
115,23,13,Improv_Metronome,282,5,42,127,2658933424
115,23,13,Improv_Metronome,283,1,38,54,2658973944
115,23,13,Improv_Metronome,284,1,48,44,2659306800
115,23,13,Improv_Metronome,285,5,42,127,2659432876
115,23,13,Improv_Metronome,286,1,38,52,2659855488
115,23,13,Improv_Metronome,287,5,42,127,2659932508
115,23,13,Improv_Metronome,288,5,42,127,2660433456
115,23,13,Improv_Metronome,289,1,48,53,2660492848
115,23,13,Improv_Metronome,290,5,42,127,2660932928
115,23,13,Improv_Metronome,291,1,48,55,2660990820
115,23,13,Improv_Metronome,292,5,42,127,2661432696
115,23,13,Improv_Metronome,293,5,42,127,2661933460
115,23,13,Improv_Metronome,294,5,42,127,2662433324
115,23,13,Improv_Metronome,295,1,48,59,2662454324
115,23,13,Improv_Metronome,296,5,42,127,2662932868
115,23,13,Improv_Metronome,297,1,48,62,2662949452
115,23,13,Improv_Metronome,0,9999,9999,9999,2593430612
115,23,13,Improv_Metronome,1,9999,9999,9999,2593930328
115,23,13,Improv_Metronome,2,9999,9999,9999,2594431096
115,23,13,Improv_Metronome,3,9999,9999,9999,2594930736
115,23,13,Improv_Metronome,4,9999,9999,9999,2595430452
115,23,13,Improv_Metronome,5,9999,9999,9999,2595930200
115,23,13,Improv_Metronome,6,9999,9999,9999,2596430932
115,23,13,Improv_Metronome,7,9999,9999,9999,2596930612
115,23,13,Improv_Metronome,8,9999,9999,9999,2597430380
115,23,13,Improv_Metronome,9,9999,9999,9999,2597931080
115,23,13,Improv_Metronome,10,9999,9999,9999,2598430772
115,23,13,Improv_Metronome,11,9999,9999,9999,2598930544
115,23,13,Improv_Metronome,12,9999,9999,9999,2599430236
115,23,13,Improv_Metronome,13,9999,9999,9999,2599930980
115,23,13,Improv_Metronome,14,9999,9999,9999,2600430652
115,23,13,Improv_Metronome,15,9999,9999,9999,2600930424
115,23,13,Improv_Metronome,16,9999,9999,9999,2601430092
115,23,13,Improv_Metronome,17,9999,9999,9999,2601930836
115,23,13,Improv_Metronome,18,9999,9999,9999,2602430532
115,23,13,Improv_Metronome,19,9999,9999,9999,2602930224
115,23,13,Improv_Metronome,20,9999,9999,9999,2603430960
115,23,13,Improv_Metronome,21,9999,9999,9999,2603930736
115,23,13,Improv_Metronome,22,9999,9999,9999,2604430408
115,23,13,Improv_Metronome,23,9999,9999,9999,2604930100
115,23,13,Improv_Metronome,24,9999,9999,9999,2605430896
115,23,13,Improv_Metronome,25,9999,9999,9999,2605930572
115,23,13,Improv_Metronome,26,9999,9999,9999,2606430320
115,23,13,Improv_Metronome,27,9999,9999,9999,2606931012
115,23,13,Improv_Metronome,28,9999,9999,9999,2607430708
115,23,13,Improv_Metronome,29,9999,9999,9999,2607930480
115,23,13,Improv_Metronome,30,9999,9999,9999,2608430172
115,23,13,Improv_Metronome,31,9999,9999,9999,2608930912
115,23,13,Improv_Metronome,32,9999,9999,9999,2609430584
115,23,13,Improv_Metronome,33,9999,9999,9999,2609930348
115,23,13,Improv_Metronome,34,9999,9999,9999,2610431088
115,23,13,Improv_Metronome,35,9999,9999,9999,2610930784
115,23,13,Improv_Metronome,36,9999,9999,9999,2611430464
115,23,13,Improv_Metronome,37,9999,9999,9999,2611930232
115,23,13,Improv_Metronome,38,9999,9999,9999,2612430900
115,23,13,Improv_Metronome,39,9999,9999,9999,2612930668
115,23,13,Improv_Metronome,40,9999,9999,9999,2613430340
115,23,13,Improv_Metronome,41,9999,9999,9999,2613931084
115,23,13,Improv_Metronome,42,9999,9999,9999,2614430824
115,23,13,Improv_Metronome,43,9999,9999,9999,2614930520
115,23,13,Improv_Metronome,44,9999,9999,9999,2615430200
115,23,13,Improv_Metronome,45,9999,9999,9999,2615930944
115,23,13,Improv_Metronome,46,9999,9999,9999,2616430652
115,23,13,Improv_Metronome,47,9999,9999,9999,2616930420
115,23,13,Improv_Metronome,48,9999,9999,9999,2617430096
115,23,13,Improv_Metronome,49,9999,9999,9999,2617930836
115,23,13,Improv_Metronome,50,9999,9999,9999,2618430532
115,23,13,Improv_Metronome,51,9999,9999,9999,2618930224
115,23,13,Improv_Metronome,52,9999,9999,9999,2619430984
115,23,13,Improv_Metronome,53,9999,9999,9999,2619930684
115,23,13,Improv_Metronome,54,9999,9999,9999,2620430400
115,23,13,Improv_Metronome,55,9999,9999,9999,2620930096
115,23,13,Improv_Metronome,56,9999,9999,9999,2621430852
115,23,13,Improv_Metronome,57,9999,9999,9999,2621930608
115,23,13,Improv_Metronome,58,9999,9999,9999,2622430304
115,23,13,Improv_Metronome,59,9999,9999,9999,2622931040
115,23,13,Improv_Metronome,60,9999,9999,9999,2623430740
115,23,13,Improv_Metronome,61,9999,9999,9999,2623930484
115,23,13,Improv_Metronome,62,9999,9999,9999,2624430180
115,23,13,Improv_Metronome,63,9999,9999,9999,2624930924
115,23,13,Improv_Metronome,64,9999,9999,9999,2625430616
115,23,13,Improv_Metronome,65,9999,9999,9999,2625930312
115,23,13,Improv_Metronome,66,9999,9999,9999,2626431032
115,23,13,Improv_Metronome,67,9999,9999,9999,2626930796
115,23,13,Improv_Metronome,68,9999,9999,9999,2627430496
115,23,13,Improv_Metronome,69,9999,9999,9999,2627930160
115,23,13,Improv_Metronome,70,9999,9999,9999,2628430956
115,23,13,Improv_Metronome,71,9999,9999,9999,2628930652
115,23,13,Improv_Metronome,72,9999,9999,9999,2629430328
115,23,13,Improv_Metronome,73,9999,9999,9999,2629931072
115,23,13,Improv_Metronome,74,9999,9999,9999,2630430816
115,23,13,Improv_Metronome,75,9999,9999,9999,2630930488
115,23,13,Improv_Metronome,76,9999,9999,9999,2631430252
115,23,13,Improv_Metronome,77,9999,9999,9999,2631930996
115,23,13,Improv_Metronome,78,9999,9999,9999,2632430676
115,23,13,Improv_Metronome,79,9999,9999,9999,2632930364
115,23,13,Improv_Metronome,80,9999,9999,9999,2633430116
115,23,13,Improv_Metronome,81,9999,9999,9999,2633930860
115,23,13,Improv_Metronome,82,9999,9999,9999,2634430556
115,23,13,Improv_Metronome,83,9999,9999,9999,2634930248
115,23,13,Improv_Metronome,84,9999,9999,9999,2635430968
115,23,13,Improv_Metronome,85,9999,9999,9999,2635930740
115,23,13,Improv_Metronome,86,9999,9999,9999,2636430412
115,23,13,Improv_Metronome,87,9999,9999,9999,2636930108
115,23,13,Improv_Metronome,88,9999,9999,9999,2637430848
115,23,13,Improv_Metronome,89,9999,9999,9999,2637930608
115,23,13,Improv_Metronome,90,9999,9999,9999,2638430288
115,23,13,Improv_Metronome,91,9999,9999,9999,2638931028
115,23,13,Improv_Metronome,92,9999,9999,9999,2639430724
115,23,13,Improv_Metronome,93,9999,9999,9999,2639930440
115,23,13,Improv_Metronome,94,9999,9999,9999,2640430188
115,23,13,Improv_Metronome,95,9999,9999,9999,2640930876
115,23,13,Improv_Metronome,96,9999,9999,9999,2641430644
115,23,13,Improv_Metronome,97,9999,9999,9999,2641930360
115,23,13,Improv_Metronome,98,9999,9999,9999,2642431028
115,23,13,Improv_Metronome,99,9999,9999,9999,2642930788
115,23,13,Improv_Metronome,100,9999,9999,9999,2643430468
115,23,13,Improv_Metronome,101,9999,9999,9999,2643930208
115,23,13,Improv_Metronome,102,9999,9999,9999,2644430948
115,23,13,Improv_Metronome,103,9999,9999,9999,2644930648
115,23,13,Improv_Metronome,104,9999,9999,9999,2645430324
115,23,13,Improv_Metronome,105,9999,9999,9999,2645931068
115,23,13,Improv_Metronome,106,9999,9999,9999,2646430836
115,23,13,Improv_Metronome,107,9999,9999,9999,2646930524
115,23,13,Improv_Metronome,108,9999,9999,9999,2647430224
115,23,13,Improv_Metronome,109,9999,9999,9999,2647930944
115,23,13,Improv_Metronome,110,9999,9999,9999,2648430640
115,23,13,Improv_Metronome,111,9999,9999,9999,2648930404
115,23,13,Improv_Metronome,112,9999,9999,9999,2649430080
115,23,13,Improv_Metronome,113,9999,9999,9999,2649930872
115,23,13,Improv_Metronome,114,9999,9999,9999,2650430568
115,23,13,Improv_Metronome,115,9999,9999,9999,2650930256
115,23,13,Improv_Metronome,116,9999,9999,9999,2651431000
115,23,13,Improv_Metronome,117,9999,9999,9999,2651930700
115,23,13,Improv_Metronome,118,9999,9999,9999,2652430448
115,23,13,Improv_Metronome,119,9999,9999,9999,2652930144
115,23,13,Improv_Metronome,120,9999,9999,9999,2653430884
115,23,13,Improv_Metronome,121,9999,9999,9999,2653930576
115,23,13,Improv_Metronome,122,9999,9999,9999,2654430272
115,23,13,Improv_Metronome,123,9999,9999,9999,2654930992
115,23,13,Improv_Metronome,124,9999,9999,9999,2655430708
115,23,13,Improv_Metronome,125,9999,9999,9999,2655930428
115,23,13,Improv_Metronome,126,9999,9999,9999,2656430196
115,23,13,Improv_Metronome,127,9999,9999,9999,2656930936
115,23,13,Improv_Metronome,128,9999,9999,9999,2657430612
115,23,13,Improv_Metronome,129,9999,9999,9999,2657930308
115,23,13,Improv_Metronome,130,9999,9999,9999,2658431068
115,23,13,Improv_Metronome,131,9999,9999,9999,2658930764
115,23,13,Improv_Metronome,132,9999,9999,9999,2659430512
115,23,13,Improv_Metronome,133,9999,9999,9999,2659930224
115,23,13,Improv_Metronome,134,9999,9999,9999,2660430944
115,23,13,Improv_Metronome,135,9999,9999,9999,2660930640
115,23,13,Improv_Metronome,136,9999,9999,9999,2661430332
115,23,13,Improv_Metronome,137,9999,9999,9999,2661931100
115,23,13,Improv_Metronome,138,9999,9999,9999,2662430812
115,23,13,Improv_Metronome,139,9999,9999,9999,2662930508
115,24,14,Improv_Melody,0,2,48,80,2715047340
115,24,14,Improv_Melody,1,2,72,80,2715049708
115,24,14,Improv_Melody,2,5,42,127,2715051496
115,24,14,Improv_Melody,3,5,42,110,2715543964
115,24,14,Improv_Melody,4,5,42,110,2716043684
115,24,14,Improv_Melody,5,5,42,110,2716544456
115,24,14,Improv_Melody,6,5,42,127,2717044176
115,24,14,Improv_Melody,7,5,42,110,2717543748
115,24,14,Improv_Melody,8,5,42,110,2718043468
115,24,14,Improv_Melody,9,5,42,110,2718544212
115,24,14,Improv_Melody,10,2,43,80,2719046592
115,24,14,Improv_Melody,11,2,67,80,2719048820
115,24,14,Improv_Melody,12,5,42,127,2719051428
115,24,14,Improv_Melody,13,5,42,110,2719543596
115,24,14,Improv_Melody,14,5,42,110,2720044368
115,24,14,Improv_Melody,15,5,42,110,2720544236
115,24,14,Improv_Melody,16,5,42,127,2721043808
115,24,14,Improv_Melody,17,5,42,110,2721543680
115,24,14,Improv_Melody,18,5,42,110,2722044448
115,24,14,Improv_Melody,19,5,42,110,2722543872
115,24,14,Improv_Melody,20,2,45,80,2723045868
115,24,14,Improv_Melody,21,2,69,80,2723048176
115,24,14,Improv_Melody,22,5,42,127,2723050568
115,24,14,Improv_Melody,23,5,42,110,2723544528
115,24,14,Improv_Melody,24,5,42,110,2724044248
115,24,14,Improv_Melody,25,5,42,110,2724543824
115,24,14,Improv_Melody,26,5,42,127,2725043472
115,24,14,Improv_Melody,27,5,42,110,2725544388
115,24,14,Improv_Melody,28,5,42,110,2726044108
115,24,14,Improv_Melody,29,5,42,110,2726543608
115,24,14,Improv_Melody,30,2,41,80,2727045908
115,24,14,Improv_Melody,31,2,65,80,2727048136
115,24,14,Improv_Melody,32,5,42,127,2727050600
115,24,14,Improv_Melody,33,5,42,110,2727544260
115,24,14,Improv_Melody,34,5,42,110,2728043984
115,24,14,Improv_Melody,35,5,42,110,2728543632
115,24,14,Improv_Melody,36,5,42,127,2729044300
115,24,14,Improv_Melody,37,5,42,110,2729544172
115,24,14,Improv_Melody,38,5,42,110,2730043744
115,24,14,Improv_Melody,39,5,42,110,2730543612
115,24,14,Improv_Melody,40,1,48,51,2731043660
115,24,14,Improv_Melody,41,2,48,80,2731047412
115,24,14,Improv_Melody,42,2,72,80,2731049408
115,24,14,Improv_Melody,43,5,42,127,2731052100
115,24,14,Improv_Melody,44,5,42,110,2731544096
115,24,14,Improv_Melody,45,1,48,46,2731960824
115,24,14,Improv_Melody,46,5,42,110,2732043664
115,24,14,Improv_Melody,47,5,42,110,2732544420
115,24,14,Improv_Melody,48,5,42,127,2733044140
115,24,14,Improv_Melody,49,1,48,56,2733080468
115,24,14,Improv_Melody,50,5,42,110,2733543764
115,24,14,Improv_Melody,51,1,48,49,2733573512
115,24,14,Improv_Melody,52,1,48,77,2733875096
115,24,14,Improv_Melody,53,5,42,110,2734043444
115,24,14,Improv_Melody,54,5,42,110,2734544284
115,24,14,Improv_Melody,55,1,38,49,2735019356
115,24,14,Improv_Melody,56,2,43,80,2735046428
115,24,14,Improv_Melody,57,2,67,80,2735048656
115,24,14,Improv_Melody,58,5,42,127,2735051268
115,24,14,Improv_Melody,59,1,38,39,2735508072
115,24,14,Improv_Melody,60,5,42,110,2735543640
115,24,14,Improv_Melody,61,1,38,51,2735803320
115,24,14,Improv_Melody,62,5,42,110,2736044520
115,24,14,Improv_Melody,63,1,38,47,2736272436
115,24,14,Improv_Melody,64,1,38,65,2736518520
115,24,14,Improv_Melody,65,5,42,110,2736544064
115,24,14,Improv_Melody,66,1,38,42,2736734788
115,24,14,Improv_Melody,67,1,38,76,2737035248
115,24,14,Improv_Melody,68,5,42,127,2737043968
115,24,14,Improv_Melody,69,1,38,52,2737495832
115,24,14,Improv_Melody,70,5,42,110,2737543592
115,24,14,Improv_Melody,71,1,38,66,2737805448
115,24,14,Improv_Melody,72,5,42,110,2738044320
115,24,14,Improv_Melody,73,1,38,48,2738354136
115,24,14,Improv_Melody,74,5,42,110,2738544096
115,24,14,Improv_Melody,75,1,38,67,2738636744
115,24,14,Improv_Melody,76,2,45,80,2739046148
115,24,14,Improv_Melody,77,2,69,80,2739048532
115,24,14,Improv_Melody,78,5,42,127,2739051064
115,24,14,Improv_Melody,79,1,48,54,2739154932
115,24,14,Improv_Melody,80,5,42,110,2739544484
115,24,14,Improv_Melody,81,1,38,57,2740033888
115,24,14,Improv_Melody,82,5,42,110,2740044248
115,24,14,Improv_Melody,83,5,42,110,2740544100
115,24,14,Improv_Melody,84,5,42,127,2741043528
115,24,14,Improv_Melody,85,1,48,51,2741057116
115,24,14,Improv_Melody,86,1,48,46,2741305820
115,24,14,Improv_Melody,87,5,42,110,2741544252
115,24,14,Improv_Melody,88,1,48,55,2741592500
115,24,14,Improv_Melody,89,5,42,110,2742044172
115,24,14,Improv_Melody,90,1,38,59,2742060680
115,24,14,Improv_Melody,91,5,42,110,2742544024
115,24,14,Improv_Melody,92,2,41,80,2743045872
115,24,14,Improv_Melody,93,2,65,80,2743048028
115,24,14,Improv_Melody,94,5,42,127,2743050640
115,24,14,Improv_Melody,95,1,48,44,2743062284
115,24,14,Improv_Melody,96,5,42,110,2743544056
115,24,14,Improv_Melody,97,1,38,49,2743546072
115,24,14,Improv_Melody,98,1,48,40,2743793188
115,24,14,Improv_Melody,99,5,42,110,2744044108
115,24,14,Improv_Melody,100,1,38,52,2744257060
115,24,14,Improv_Melody,101,1,48,28,2744500752
115,24,14,Improv_Melody,102,5,42,110,2744543576
115,24,14,Improv_Melody,103,1,38,57,2744750232
115,24,14,Improv_Melody,104,1,48,42,2744989064
115,24,14,Improv_Melody,105,5,42,127,2745044228
115,24,14,Improv_Melody,106,1,38,52,2745435728
115,24,14,Improv_Melody,107,1,38,33,2745474528
115,24,14,Improv_Melody,108,5,42,110,2745543980
115,24,14,Improv_Melody,109,1,48,43,2745697900
115,24,14,Improv_Melody,110,5,42,110,2746043960
115,24,14,Improv_Melody,111,1,38,46,2746171244
115,24,14,Improv_Melody,112,5,42,110,2746543512
115,24,14,Improv_Melody,113,1,38,48,2746771652
115,24,14,Improv_Melody,114,2,48,80,2747046920
115,24,14,Improv_Melody,115,2,72,80,2747048996
115,24,14,Improv_Melody,116,5,42,127,2747051380
115,24,14,Improv_Melody,117,5,42,110,2747543992
115,24,14,Improv_Melody,118,5,42,110,2748043568
115,24,14,Improv_Melody,119,5,42,110,2748544264
115,24,14,Improv_Melody,120,1,38,18,2749022168
115,24,14,Improv_Melody,121,5,42,127,2749044052
115,24,14,Improv_Melody,122,1,38,48,2749521844
115,24,14,Improv_Melody,123,5,42,110,2749543972
115,24,14,Improv_Melody,124,1,38,73,2749765116
115,24,14,Improv_Melody,125,1,38,57,2750031468
115,24,14,Improv_Melody,126,5,42,110,2750043800
115,24,14,Improv_Melody,127,1,38,64,2750504320
115,24,14,Improv_Melody,128,5,42,110,2750544224
115,24,14,Improv_Melody,129,1,38,49,2751010596
115,24,14,Improv_Melody,130,2,43,80,2751046424
115,24,14,Improv_Melody,131,2,67,80,2751048736
115,24,14,Improv_Melody,132,5,42,127,2751051120
115,24,14,Improv_Melody,133,5,42,110,2751543944
115,24,14,Improv_Melody,134,1,38,45,2752006300
115,24,14,Improv_Melody,135,5,42,110,2752044336
115,24,14,Improv_Melody,136,1,38,48,2752515200
115,24,14,Improv_Melody,137,5,42,110,2752544180
115,24,14,Improv_Melody,138,1,38,57,2752995452
115,24,14,Improv_Melody,139,5,42,127,2753043956
115,24,14,Improv_Melody,140,1,38,46,2753500536
115,24,14,Improv_Melody,141,5,42,110,2753543804
115,24,14,Improv_Melody,142,1,38,67,2753746196
115,24,14,Improv_Melody,143,1,38,54,2754038956
115,24,14,Improv_Melody,144,5,42,110,2754044380
115,24,14,Improv_Melody,145,1,38,73,2754543036
115,24,14,Improv_Melody,146,5,42,110,2754545500
115,24,14,Improv_Melody,147,1,48,74,2755041848
115,24,14,Improv_Melody,148,2,45,80,2755046060
115,24,14,Improv_Melody,149,2,69,80,2755048064
115,24,14,Improv_Melody,150,5,42,127,2755050824
115,24,14,Improv_Melody,151,5,42,110,2755544624
115,24,14,Improv_Melody,152,5,42,110,2756044044
115,24,14,Improv_Melody,153,1,38,65,2756046060
115,24,14,Improv_Melody,154,1,38,57,2756532176
115,24,14,Improv_Melody,155,5,42,110,2756543812
115,24,14,Improv_Melody,156,1,38,63,2757016100
115,24,14,Improv_Melody,157,5,42,127,2757043736
115,24,14,Improv_Melody,158,1,38,43,2757530984
115,24,14,Improv_Melody,159,5,42,110,2757544260
115,24,14,Improv_Melody,160,1,38,56,2757786216
115,24,14,Improv_Melody,161,1,38,52,2758023556
115,24,14,Improv_Melody,162,5,42,110,2758044088
115,24,14,Improv_Melody,163,1,38,69,2758485232
115,24,14,Improv_Melody,164,5,42,110,2758543764
115,24,14,Improv_Melody,165,1,48,72,2759035196
115,24,14,Improv_Melody,166,2,41,80,2759045968
115,24,14,Improv_Melody,167,2,65,80,2759048200
115,24,14,Improv_Melody,168,5,42,127,2759050808
115,24,14,Improv_Melody,169,5,42,110,2759544080
115,24,14,Improv_Melody,170,5,42,110,2760043952
115,24,14,Improv_Melody,171,1,38,22,2760253288
115,24,14,Improv_Melody,172,5,42,110,2760543652
115,24,14,Improv_Melody,173,1,38,64,2760604216
115,24,14,Improv_Melody,174,5,42,127,2761044224
115,24,14,Improv_Melody,175,1,38,71,2761054772
115,24,14,Improv_Melody,176,1,38,54,2761512536
115,24,14,Improv_Melody,177,5,42,110,2761543992
115,24,14,Improv_Melody,178,1,38,84,2761770464
115,24,14,Improv_Melody,179,1,38,61,2762029940
115,24,14,Improv_Melody,180,5,42,110,2762043892
115,24,14,Improv_Melody,181,1,38,81,2762489400
115,24,14,Improv_Melody,182,5,42,110,2762543444
115,24,14,Improv_Melody,183,1,48,49,2762979676
115,24,14,Improv_Melody,184,2,48,80,2763046928
115,24,14,Improv_Melody,185,2,72,80,2763049076
115,24,14,Improv_Melody,186,5,42,127,2763051760
115,24,14,Improv_Melody,187,1,38,34,2763506992
115,24,14,Improv_Melody,188,5,42,110,2763543832
115,24,14,Improv_Melody,189,1,48,51,2763813832
115,24,14,Improv_Melody,190,5,42,110,2764043588
115,24,14,Improv_Melody,191,1,38,58,2764278980
115,24,14,Improv_Melody,192,1,48,44,2764518184
115,24,14,Improv_Melody,193,5,42,110,2764544700
115,24,14,Improv_Melody,194,1,38,69,2764761456
115,24,14,Improv_Melody,195,1,48,50,2765019584
115,24,14,Improv_Melody,196,5,42,127,2765043932
115,24,14,Improv_Melody,197,1,38,66,2765501632
115,24,14,Improv_Melody,198,5,42,110,2765543704
115,24,14,Improv_Melody,199,1,48,53,2765756496
115,24,14,Improv_Melody,200,5,42,110,2766043464
115,24,14,Improv_Melody,201,1,38,63,2766220208
115,24,14,Improv_Melody,202,1,48,37,2766439148
115,24,14,Improv_Melody,203,5,42,110,2766544116
115,24,14,Improv_Melody,204,1,38,70,2766714652
115,24,14,Improv_Melody,205,1,48,65,2766999564
115,24,14,Improv_Melody,206,2,43,80,2767046464
115,24,14,Improv_Melody,207,2,67,80,2767048540
115,24,14,Improv_Melody,208,5,42,127,2767051076
115,24,14,Improv_Melody,209,5,42,110,2767543604
115,24,14,Improv_Melody,210,5,42,110,2768044596
115,24,14,Improv_Melody,211,1,48,69,2768052428
115,24,14,Improv_Melody,212,5,42,110,2768544068
115,24,14,Improv_Melody,213,1,48,65,2769013376
115,24,14,Improv_Melody,214,5,42,127,2769043712
115,24,14,Improv_Melody,215,5,42,110,2769543492
115,24,14,Improv_Melody,216,5,42,110,2770044480
115,24,14,Improv_Melody,217,1,48,71,2770060616
115,24,14,Improv_Melody,218,5,42,110,2770543960
115,24,14,Improv_Melody,219,2,45,80,2771046416
115,24,14,Improv_Melody,220,1,38,67,2771047456
115,24,14,Improv_Melody,221,2,69,80,2771051260
115,24,14,Improv_Melody,222,5,42,127,2771053576
115,24,14,Improv_Melody,223,5,42,110,2771544604
115,24,14,Improv_Melody,224,1,38,51,2771559164
115,24,14,Improv_Melody,225,5,42,110,2772044428
115,24,14,Improv_Melody,226,1,38,65,2772045692
115,24,14,Improv_Melody,227,1,38,49,2772306128
115,24,14,Improv_Melody,228,5,42,110,2772543732
115,24,14,Improv_Melody,229,1,38,76,2772550440
115,24,14,Improv_Melody,230,1,38,55,2773019300
115,24,14,Improv_Melody,231,5,42,127,2773043572
115,24,14,Improv_Melody,232,1,38,73,2773312308
115,24,14,Improv_Melody,233,5,42,110,2773544676
115,24,14,Improv_Melody,234,1,38,60,2773752616
115,24,14,Improv_Melody,235,1,38,76,2774003944
115,24,14,Improv_Melody,236,5,42,110,2774044144
115,24,14,Improv_Melody,237,1,38,58,2774531540
115,24,14,Improv_Melody,238,5,42,110,2774543844
115,24,14,Improv_Melody,239,1,38,59,2775045600
115,24,14,Improv_Melody,240,2,41,80,2775048748
115,24,14,Improv_Melody,241,2,65,80,2775050596
115,24,14,Improv_Melody,242,5,42,127,2775053204
115,24,14,Improv_Melody,243,5,42,110,2775544460
115,24,14,Improv_Melody,244,1,48,45,2775549152
115,24,14,Improv_Melody,245,5,42,110,2776043788
115,24,14,Improv_Melody,246,1,48,67,2776496116
115,24,14,Improv_Melody,247,5,42,110,2776543652
115,24,14,Improv_Melody,248,5,42,127,2777044480
115,24,14,Improv_Melody,249,5,42,110,2777544276
115,24,14,Improv_Melody,250,1,48,63,2777584420
115,24,14,Improv_Melody,251,5,42,110,2778043680
115,24,14,Improv_Melody,252,5,42,110,2778543324
115,24,14,Improv_Melody,253,1,48,57,2778550108
115,24,14,Improv_Melody,254,1,38,84,2779033400
115,24,14,Improv_Melody,255,2,48,80,2779046796
115,24,14,Improv_Melody,256,2,72,80,2779049100
115,24,14,Improv_Melody,257,5,42,127,2779051632
115,24,14,Improv_Melody,258,5,42,110,2779543860
115,24,14,Improv_Melody,259,5,42,110,2780043584
115,24,14,Improv_Melody,260,1,38,60,2780065180
115,24,14,Improv_Melody,261,1,38,52,2780539720
115,24,14,Improv_Melody,262,5,42,110,2780544324
115,24,14,Improv_Melody,263,1,38,54,2780798548
115,24,14,Improv_Melody,264,5,42,127,2781044156
115,24,14,Improv_Melody,265,1,38,55,2781299668
115,24,14,Improv_Melody,266,1,38,48,2781536336
115,24,14,Improv_Melody,267,5,42,110,2781543852
115,24,14,Improv_Melody,268,1,38,66,2782009228
115,24,14,Improv_Melody,269,5,42,110,2782043700
115,24,14,Improv_Melody,270,1,38,59,2782484624
115,24,14,Improv_Melody,271,5,42,110,2782544420
115,24,14,Improv_Melody,272,1,48,65,2783021272
115,24,14,Improv_Melody,273,2,43,80,2783046552
115,24,14,Improv_Melody,274,2,67,80,2783048780
115,24,14,Improv_Melody,275,5,42,127,2783051316
115,24,14,Improv_Melody,276,5,42,110,2783543616
115,24,14,Improv_Melody,277,1,48,72,2783883304
115,24,14,Improv_Melody,278,5,42,110,2784044292
115,24,14,Improv_Melody,279,5,42,110,2784544236
115,24,14,Improv_Melody,280,1,48,24,2784773344
115,24,14,Improv_Melody,281,5,42,127,2785043712
115,24,14,Improv_Melody,282,1,48,51,2785083180
115,24,14,Improv_Melody,283,5,42,110,2785543488
115,24,14,Improv_Melody,284,1,48,54,2785545352
115,24,14,Improv_Melody,285,1,48,52,2785813408
115,24,14,Improv_Melody,286,5,42,110,2786044136
115,24,14,Improv_Melody,287,1,48,69,2786333008
115,24,14,Improv_Melody,288,5,42,110,2786544132
115,24,14,Improv_Melody,289,1,38,55,2786934604
115,24,14,Improv_Melody,290,2,45,80,2787046420
115,24,14,Improv_Melody,291,2,69,80,2787048412
115,24,14,Improv_Melody,292,5,42,127,2787050804
115,24,14,Improv_Melody,293,5,42,110,2787544392
115,24,14,Improv_Melody,294,5,42,110,2788044116
115,24,14,Improv_Melody,295,1,38,61,2788086352
115,24,14,Improv_Melody,296,5,42,110,2788543740
115,24,14,Improv_Melody,297,5,42,127,2789043612
115,24,14,Improv_Melody,298,1,48,47,2789050700
115,24,14,Improv_Melody,299,1,48,38,2789087924
115,24,14,Improv_Melody,300,5,42,110,2789544192
115,24,14,Improv_Melody,301,1,48,52,2789551648
115,24,14,Improv_Melody,302,1,48,50,2790041076
115,24,14,Improv_Melody,303,5,42,110,2790044108
115,24,14,Improv_Melody,304,1,48,34,2790301700
115,24,14,Improv_Melody,305,5,42,110,2790543644
115,24,14,Improv_Melody,306,1,48,49,2790562848
115,24,14,Improv_Melody,307,2,41,80,2791045844
115,24,14,Improv_Melody,308,2,65,80,2791048072
115,24,14,Improv_Melody,309,5,42,127,2791050388
115,24,14,Improv_Melody,310,1,38,54,2791090080
115,24,14,Improv_Melody,311,5,42,110,2791544252
115,24,14,Improv_Melody,312,5,42,110,2792043828
115,24,14,Improv_Melody,313,1,38,58,2792074168
115,24,14,Improv_Melody,314,5,42,110,2792543452
115,24,14,Improv_Melody,315,5,42,127,2793044296
115,24,14,Improv_Melody,316,1,38,56,2793045336
115,24,14,Improv_Melody,317,1,38,47,2793527916
115,24,14,Improv_Melody,318,5,42,110,2793544036
115,24,14,Improv_Melody,319,1,38,66,2794002108
115,24,14,Improv_Melody,320,5,42,110,2794043736
115,24,14,Improv_Melody,321,1,38,51,2794250988
115,24,14,Improv_Melody,322,1,38,89,2794507024
115,24,14,Improv_Melody,323,5,42,110,2794543416
115,24,14,Improv_Melody,324,1,38,51,2795010464
115,24,14,Improv_Melody,325,2,48,80,2795046588
115,24,14,Improv_Melody,326,2,72,80,2795048892
115,24,14,Improv_Melody,327,5,42,127,2795051508
115,24,14,Improv_Melody,328,5,42,110,2795543884
115,24,14,Improv_Melody,329,1,38,57,2796039744
115,24,14,Improv_Melody,0,9999,9999,9999,2715041912
115,24,14,Improv_Melody,1,9999,9999,9999,2715541596
115,24,14,Improv_Melody,2,9999,9999,9999,2716041316
115,24,14,Improv_Melody,3,9999,9999,9999,2716542012
115,24,14,Improv_Melody,4,9999,9999,9999,2717041736
115,24,14,Improv_Melody,5,9999,9999,9999,2717541456
115,24,14,Improv_Melody,6,9999,9999,9999,2718041176
115,24,14,Improv_Melody,7,9999,9999,9999,2718541920
115,24,14,Improv_Melody,8,9999,9999,9999,2719041644
115,24,14,Improv_Melody,9,9999,9999,9999,2719541304
115,24,14,Improv_Melody,10,9999,9999,9999,2720042072
115,24,14,Improv_Melody,11,9999,9999,9999,2720541796
115,24,14,Improv_Melody,12,9999,9999,9999,2721041516
115,24,14,Improv_Melody,13,9999,9999,9999,2721541240
115,24,14,Improv_Melody,14,9999,9999,9999,2722041932
115,24,14,Improv_Melody,15,9999,9999,9999,2722541656
115,24,14,Improv_Melody,16,9999,9999,9999,2723041380
115,24,14,Improv_Melody,17,9999,9999,9999,2723542088
115,24,14,Improv_Melody,18,9999,9999,9999,2724041808
115,24,14,Improv_Melody,19,9999,9999,9999,2724541532
115,24,14,Improv_Melody,20,9999,9999,9999,2725041252
115,24,14,Improv_Melody,21,9999,9999,9999,2725541948
115,24,14,Improv_Melody,22,9999,9999,9999,2726041668
115,24,14,Improv_Melody,23,9999,9999,9999,2726541392
115,24,14,Improv_Melody,24,9999,9999,9999,2727041116
115,24,14,Improv_Melody,25,9999,9999,9999,2727541820
115,24,14,Improv_Melody,26,9999,9999,9999,2728041544
115,24,14,Improv_Melody,27,9999,9999,9999,2728541264
115,24,14,Improv_Melody,28,9999,9999,9999,2729042008
115,24,14,Improv_Melody,29,9999,9999,9999,2729541732
115,24,14,Improv_Melody,30,9999,9999,9999,2730041452
115,24,14,Improv_Melody,31,9999,9999,9999,2730541172
115,24,14,Improv_Melody,32,9999,9999,9999,2731041868
115,24,14,Improv_Melody,33,9999,9999,9999,2731541584
115,24,14,Improv_Melody,34,9999,9999,9999,2732041300
115,24,14,Improv_Melody,35,9999,9999,9999,2732542052
115,24,14,Improv_Melody,36,9999,9999,9999,2733041772
115,24,14,Improv_Melody,37,9999,9999,9999,2733541472
115,24,14,Improv_Melody,38,9999,9999,9999,2734041152
115,24,14,Improv_Melody,39,9999,9999,9999,2734541920
115,24,14,Improv_Melody,40,9999,9999,9999,2735041636
115,24,14,Improv_Melody,41,9999,9999,9999,2735541348
115,24,14,Improv_Melody,42,9999,9999,9999,2736042080
115,24,14,Improv_Melody,43,9999,9999,9999,2736541772
115,24,14,Improv_Melody,44,9999,9999,9999,2737041528
115,24,14,Improv_Melody,45,9999,9999,9999,2737541228
115,24,14,Improv_Melody,46,9999,9999,9999,2738041956
115,24,14,Improv_Melody,47,9999,9999,9999,2738541656
115,24,14,Improv_Melody,48,9999,9999,9999,2739041356
115,24,14,Improv_Melody,49,9999,9999,9999,2739542116
115,24,14,Improv_Melody,50,9999,9999,9999,2740041808
115,24,14,Improv_Melody,51,9999,9999,9999,2740541512
115,24,14,Improv_Melody,52,9999,9999,9999,2741041236
115,24,14,Improv_Melody,53,9999,9999,9999,2741541960
115,24,14,Improv_Melody,54,9999,9999,9999,2742041660
115,24,14,Improv_Melody,55,9999,9999,9999,2742541432
115,24,14,Improv_Melody,56,9999,9999,9999,2743041080
115,24,14,Improv_Melody,57,9999,9999,9999,2743541840
115,24,14,Improv_Melody,58,9999,9999,9999,2744041592
115,24,14,Improv_Melody,59,9999,9999,9999,2744541284
115,24,14,Improv_Melody,60,9999,9999,9999,2745042008
115,24,14,Improv_Melody,61,9999,9999,9999,2745541688
115,24,14,Improv_Melody,62,9999,9999,9999,2746041444
115,24,14,Improv_Melody,63,9999,9999,9999,2746541148
115,24,14,Improv_Melody,64,9999,9999,9999,2747041892
115,24,14,Improv_Melody,65,9999,9999,9999,2747541552
115,24,14,Improv_Melody,66,9999,9999,9999,2748041276
115,24,14,Improv_Melody,67,9999,9999,9999,2748542044
115,24,14,Improv_Melody,68,9999,9999,9999,2749041760
115,24,14,Improv_Melody,69,9999,9999,9999,2749541460
115,24,14,Improv_Melody,70,9999,9999,9999,2750041212
115,24,14,Improv_Melody,71,9999,9999,9999,2750541932
115,24,14,Improv_Melody,72,9999,9999,9999,2751041632
115,24,14,Improv_Melody,73,9999,9999,9999,2751541352
115,24,14,Improv_Melody,74,9999,9999,9999,2752042040
115,24,14,Improv_Melody,75,9999,9999,9999,2752541816
115,24,14,Improv_Melody,76,9999,9999,9999,2753041516
115,24,14,Improv_Melody,77,9999,9999,9999,2753541216
115,24,14,Improv_Melody,78,9999,9999,9999,2754041940
115,24,14,Improv_Melody,79,9999,9999,9999,2754541644
115,24,14,Improv_Melody,80,9999,9999,9999,2755041364
115,24,14,Improv_Melody,81,9999,9999,9999,2755542104
115,24,14,Improv_Melody,82,9999,9999,9999,2756041828
115,24,14,Improv_Melody,83,9999,9999,9999,2756541520
115,24,14,Improv_Melody,84,9999,9999,9999,2757041224
115,24,14,Improv_Melody,85,9999,9999,9999,2757541968
115,24,14,Improv_Melody,86,9999,9999,9999,2758041720
115,24,14,Improv_Melody,87,9999,9999,9999,2758541396
115,24,14,Improv_Melody,88,9999,9999,9999,2759041096
115,24,14,Improv_Melody,89,9999,9999,9999,2759541864
115,24,14,Improv_Melody,90,9999,9999,9999,2760041588
115,24,14,Improv_Melody,91,9999,9999,9999,2760541284
115,24,14,Improv_Melody,92,9999,9999,9999,2761042008
115,24,14,Improv_Melody,93,9999,9999,9999,2761541700
115,24,14,Improv_Melody,94,9999,9999,9999,2762041452
115,24,14,Improv_Melody,95,9999,9999,9999,2762541152
115,24,14,Improv_Melody,96,9999,9999,9999,2763041900
115,24,14,Improv_Melody,97,9999,9999,9999,2763541612
115,24,14,Improv_Melody,98,9999,9999,9999,2764041296
115,24,14,Improv_Melody,99,9999,9999,9999,2764542036
115,24,14,Improv_Melody,100,9999,9999,9999,2765041712
115,24,14,Improv_Melody,101,9999,9999,9999,2765541488
115,24,14,Improv_Melody,102,9999,9999,9999,2766041172
115,24,14,Improv_Melody,103,9999,9999,9999,2766541896
115,24,14,Improv_Melody,104,9999,9999,9999,2767041592
115,24,14,Improv_Melody,105,9999,9999,9999,2767541312
115,24,14,Improv_Melody,106,9999,9999,9999,2768042080
115,24,14,Improv_Melody,107,9999,9999,9999,2768541776
115,24,14,Improv_Melody,108,9999,9999,9999,2769041492
115,24,14,Improv_Melody,109,9999,9999,9999,2769541200
115,24,14,Improv_Melody,110,9999,9999,9999,2770041968
115,24,14,Improv_Melody,111,9999,9999,9999,2770541668
115,24,14,Improv_Melody,112,9999,9999,9999,2771041388
115,24,14,Improv_Melody,113,9999,9999,9999,2771542088
115,24,14,Improv_Melody,114,9999,9999,9999,2772041836
115,24,14,Improv_Melody,115,9999,9999,9999,2772541516
115,24,14,Improv_Melody,116,9999,9999,9999,2773041208
115,24,14,Improv_Melody,117,9999,9999,9999,2773541940
115,24,14,Improv_Melody,118,9999,9999,9999,2774041704
115,24,14,Improv_Melody,119,9999,9999,9999,2774541404
115,24,14,Improv_Melody,120,9999,9999,9999,2775041112
115,24,14,Improv_Melody,121,9999,9999,9999,2775541872
115,24,14,Improv_Melody,122,9999,9999,9999,2776041572
115,24,14,Improv_Melody,123,9999,9999,9999,2776541288
115,24,14,Improv_Melody,124,9999,9999,9999,2777042040
115,24,14,Improv_Melody,125,9999,9999,9999,2777541688
115,24,14,Improv_Melody,126,9999,9999,9999,2778041460
115,24,14,Improv_Melody,127,9999,9999,9999,2778541108
115,24,14,Improv_Melody,128,9999,9999,9999,2779041848
115,24,14,Improv_Melody,129,9999,9999,9999,2779541568
115,24,14,Improv_Melody,130,9999,9999,9999,2780041292
115,24,14,Improv_Melody,131,9999,9999,9999,2780542032
115,24,14,Improv_Melody,132,9999,9999,9999,2781041716
115,24,14,Improv_Melody,133,9999,9999,9999,2781541488
115,24,14,Improv_Melody,134,9999,9999,9999,2782041184
115,24,14,Improv_Melody,135,9999,9999,9999,2782541908
115,24,14,Improv_Melody,136,9999,9999,9999,2783041608
115,24,14,Improv_Melody,137,9999,9999,9999,2783541324
115,24,14,Improv_Melody,138,9999,9999,9999,2784042072
115,24,14,Improv_Melody,139,9999,9999,9999,2784541792
115,24,14,Improv_Melody,140,9999,9999,9999,2785041496
115,24,14,Improv_Melody,141,9999,9999,9999,2785541196
115,24,14,Improv_Melody,142,9999,9999,9999,2786041920
115,24,14,Improv_Melody,143,9999,9999,9999,2786541620
115,24,14,Improv_Melody,144,9999,9999,9999,2787041392
115,24,14,Improv_Melody,145,9999,9999,9999,2787542100
115,24,14,Improv_Melody,146,9999,9999,9999,2788041824
115,24,14,Improv_Melody,147,9999,9999,9999,2788541524
115,24,14,Improv_Melody,148,9999,9999,9999,2789041248
115,24,14,Improv_Melody,149,9999,9999,9999,2789541972
115,24,14,Improv_Melody,150,9999,9999,9999,2790041668
115,24,14,Improv_Melody,151,9999,9999,9999,2790541428
115,24,14,Improv_Melody,152,9999,9999,9999,2791041128
115,24,14,Improv_Melody,153,9999,9999,9999,2791541812
115,24,14,Improv_Melody,154,9999,9999,9999,2792041536
115,24,14,Improv_Melody,155,9999,9999,9999,2792541236
115,24,14,Improv_Melody,156,9999,9999,9999,2793041980
115,24,14,Improv_Melody,157,9999,9999,9999,2793541748
115,24,14,Improv_Melody,158,9999,9999,9999,2794041444
115,24,14,Improv_Melody,159,9999,9999,9999,2794541124
115,24,14,Improv_Melody,160,9999,9999,9999,2795041872
115,24,14,Improv_Melody,161,9999,9999,9999,2795541592
