pid,taskRunCount,taskID,taskName,i,channel,pitch,velocity,microseconds
119,1,1,Ticks_Pract_5,0,5,42,127,83666228
119,1,1,Ticks_Pract_5,1,5,42,127,84166020
119,1,1,Ticks_Pract_5,2,5,42,127,84665660
119,1,1,Ticks_Pract_5,3,5,42,127,85165304
119,1,1,Ticks_Pract_5,4,1,48,39,85631916
119,1,1,Ticks_Pract_5,5,5,42,127,85666060
119,1,1,Ticks_Pract_5,6,1,48,50,86145972
119,1,1,Ticks_Pract_5,7,5,42,127,86165980
119,1,1,Ticks_Pract_5,8,1,48,54,86639092
119,1,1,Ticks_Pract_5,9,5,42,127,86665676
119,1,1,Ticks_Pract_5,10,1,48,41,87085500
119,1,1,Ticks_Pract_5,11,5,42,127,87166264
119,1,1,Ticks_Pract_5,12,1,48,46,87649324
119,1,1,Ticks_Pract_5,13,5,42,127,87665884
119,1,1,Ticks_Pract_5,14,1,48,42,88164680
119,1,1,Ticks_Pract_5,15,5,42,127,88166252
119,1,1,Ticks_Pract_5,16,1,48,44,88658360
119,1,1,Ticks_Pract_5,17,5,42,127,88665424
119,1,1,Ticks_Pract_5,18,1,48,29,89105448
119,1,1,Ticks_Pract_5,19,5,42,127,89166312
119,1,1,Ticks_Pract_5,20,1,48,50,89659968
119,1,1,Ticks_Pract_5,21,5,42,127,89665932
119,1,1,Ticks_Pract_5,22,1,48,57,90165980
119,1,1,Ticks_Pract_5,23,5,42,127,90167096
119,1,1,Ticks_Pract_5,24,5,42,127,90666276
119,1,1,Ticks_Pract_5,25,1,48,59,90688720
119,1,1,Ticks_Pract_5,26,1,48,53,91162940
119,1,1,Ticks_Pract_5,27,5,42,127,91166036
119,1,1,Ticks_Pract_5,28,1,48,53,91666260
119,1,1,Ticks_Pract_5,29,5,42,127,91667380
119,1,1,Ticks_Pract_5,30,5,42,127,92165512
119,1,1,Ticks_Pract_5,31,1,48,54,92169152
119,1,1,Ticks_Pract_5,32,1,48,57,92640632
119,1,1,Ticks_Pract_5,33,5,42,127,92666096
119,1,1,Ticks_Pract_5,34,1,48,54,93145032
119,1,1,Ticks_Pract_5,35,5,42,127,93165864
119,1,1,Ticks_Pract_5,36,1,48,55,93624760
119,1,1,Ticks_Pract_5,37,5,42,127,93665632
119,1,1,Ticks_Pract_5,38,1,48,57,94120716
119,1,1,Ticks_Pract_5,39,5,42,127,94166380
119,1,1,Ticks_Pract_5,40,1,48,55,94623552
119,1,1,Ticks_Pract_5,41,5,42,127,94666072
119,1,1,Ticks_Pract_5,42,1,48,62,95135888
119,1,1,Ticks_Pract_5,43,5,42,127,95165916
119,1,1,Ticks_Pract_5,44,1,48,60,95618532
119,1,1,Ticks_Pract_5,45,5,42,127,95665536
119,1,1,Ticks_Pract_5,46,1,48,74,96138192
119,1,1,Ticks_Pract_5,47,5,42,127,96166348
119,1,1,Ticks_Pract_5,48,5,42,127,96665828
119,1,1,Ticks_Pract_5,49,1,48,65,96666796
119,1,1,Ticks_Pract_5,50,1,48,70,97157032
119,1,1,Ticks_Pract_5,51,5,42,127,97165812
119,1,1,Ticks_Pract_5,52,5,42,127,97666268
119,1,1,Ticks_Pract_5,53,1,48,60,97675592
119,1,1,Ticks_Pract_5,54,5,42,127,98166108
119,1,1,Ticks_Pract_5,55,1,48,65,98194132
119,1,1,Ticks_Pract_5,56,5,42,127,98665804
119,1,1,Ticks_Pract_5,57,1,48,68,98680220
119,1,1,Ticks_Pract_5,58,5,42,127,99165496
119,1,1,Ticks_Pract_5,59,1,48,73,99176316
119,1,1,Ticks_Pract_5,60,5,42,127,99666236
119,1,1,Ticks_Pract_5,61,1,48,70,99673248
119,1,1,Ticks_Pract_5,62,1,48,70,100161632
119,1,1,Ticks_Pract_5,63,5,42,127,100165928
119,1,1,Ticks_Pract_5,64,1,48,71,100653744
119,1,1,Ticks_Pract_5,65,5,42,127,100665820
119,1,1,Ticks_Pract_5,66,1,48,75,101149548
119,1,1,Ticks_Pract_5,67,5,42,127,101165440
119,1,1,Ticks_Pract_5,68,1,48,77,101650064
119,1,1,Ticks_Pract_5,69,5,42,127,101666032
119,1,1,Ticks_Pract_5,70,1,48,77,102130536
119,1,1,Ticks_Pract_5,71,5,42,127,102165800
119,1,1,Ticks_Pract_5,72,1,48,74,102626572
119,1,1,Ticks_Pract_5,73,5,42,127,102665716
119,1,1,Ticks_Pract_5,74,1,48,75,103143540
119,1,1,Ticks_Pract_5,75,5,42,127,103166308
119,1,1,Ticks_Pract_5,76,1,48,69,103657824
119,1,1,Ticks_Pract_5,0,9999,9999,9999,83663944
119,1,1,Ticks_Pract_5,1,9999,9999,9999,84163660
119,1,1,Ticks_Pract_5,2,9999,9999,9999,84663376
119,1,1,Ticks_Pract_5,3,9999,9999,9999,85163092
119,1,1,Ticks_Pract_5,4,9999,9999,9999,85663848
119,1,1,Ticks_Pract_5,5,9999,9999,9999,86163544
119,1,1,Ticks_Pract_5,6,9999,9999,9999,86663240
119,1,1,Ticks_Pract_5,7,9999,9999,9999,87163980
119,1,1,Ticks_Pract_5,8,9999,9999,9999,87663672
119,1,1,Ticks_Pract_5,9,9999,9999,9999,88163448
119,1,1,Ticks_Pract_5,10,9999,9999,9999,88663140
119,1,1,Ticks_Pract_5,11,9999,9999,9999,89163880
119,1,1,Ticks_Pract_5,12,9999,9999,9999,89663572
119,1,1,Ticks_Pract_5,13,9999,9999,9999,90163248
119,1,1,Ticks_Pract_5,14,9999,9999,9999,90663988
119,1,1,Ticks_Pract_5,15,9999,9999,9999,91163752
119,1,1,Ticks_Pract_5,16,9999,9999,9999,91663452
119,1,1,Ticks_Pract_5,17,9999,9999,9999,92163152
119,1,1,Ticks_Pract_5,18,9999,9999,9999,92663884
119,1,1,Ticks_Pract_5,19,9999,9999,9999,93163576
119,1,1,Ticks_Pract_5,20,9999,9999,9999,93663348
119,1,1,Ticks_Pract_5,21,9999,9999,9999,94164088
119,1,1,Ticks_Pract_5,22,9999,9999,9999,94663784
119,1,1,Ticks_Pract_5,23,9999,9999,9999,95163480
119,1,1,Ticks_Pract_5,24,9999,9999,9999,95663176
119,1,1,Ticks_Pract_5,25,9999,9999,9999,96163916
119,1,1,Ticks_Pract_5,26,9999,9999,9999,96663616
119,1,1,Ticks_Pract_5,27,9999,9999,9999,97163380
119,1,1,Ticks_Pract_5,28,9999,9999,9999,97664052
119,1,1,Ticks_Pract_5,29,9999,9999,9999,98163820
119,1,1,Ticks_Pract_5,30,9999,9999,9999,98663516
119,1,1,Ticks_Pract_5,31,9999,9999,9999,99163208
119,1,1,Ticks_Pract_5,32,9999,9999,9999,99663952
119,1,1,Ticks_Pract_5,33,9999,9999,9999,100163640
119,1,1,Ticks_Pract_5,34,9999,9999,9999,100663384
119,1,1,Ticks_Pract_5,35,9999,9999,9999,101163080
119,1,1,Ticks_Pract_5,36,9999,9999,9999,101663820
119,1,1,Ticks_Pract_5,37,9999,9999,9999,102163512
119,1,1,Ticks_Pract_5,38,9999,9999,9999,102663284
119,1,1,Ticks_Pract_5,39,9999,9999,9999,103164024
119,2,0,Ticks_Pract_8,0,5,42,127,121564512
119,2,0,Ticks_Pract_8,1,5,42,127,122365540
119,2,0,Ticks_Pract_8,2,5,42,127,123164924
119,2,0,Ticks_Pract_8,3,1,48,54,123173280
119,2,0,Ticks_Pract_8,4,5,42,127,123964756
119,2,0,Ticks_Pract_8,5,1,48,62,123977752
119,2,0,Ticks_Pract_8,6,5,42,127,124764416
119,2,0,Ticks_Pract_8,7,1,48,62,124767536
119,2,0,Ticks_Pract_8,8,1,48,62,125562536
119,2,0,Ticks_Pract_8,9,5,42,127,125565484
119,2,0,Ticks_Pract_8,10,5,42,127,126365224
119,2,0,Ticks_Pract_8,11,1,48,71,126373960
119,2,0,Ticks_Pract_8,12,5,42,127,127164812
119,2,0,Ticks_Pract_8,13,1,48,81,127169952
119,2,0,Ticks_Pract_8,14,1,48,77,127931672
119,2,0,Ticks_Pract_8,15,5,42,127,127964612
119,2,0,Ticks_Pract_8,16,1,48,75,128739408
119,2,0,Ticks_Pract_8,17,5,42,127,128765168
119,2,0,Ticks_Pract_8,18,1,48,73,129559036
119,2,0,Ticks_Pract_8,19,5,42,127,129565272
119,2,0,Ticks_Pract_8,20,1,48,69,130347404
119,2,0,Ticks_Pract_8,21,5,42,127,130364736
119,2,0,Ticks_Pract_8,22,1,48,73,131144764
119,2,0,Ticks_Pract_8,23,5,42,127,131164472
119,2,0,Ticks_Pract_8,24,1,48,75,131932604
119,2,0,Ticks_Pract_8,25,5,42,127,131965396
119,2,0,Ticks_Pract_8,26,1,48,73,132735108
119,2,0,Ticks_Pract_8,27,5,42,127,132765356
119,2,0,Ticks_Pract_8,28,5,42,127,133564796
119,2,0,Ticks_Pract_8,29,1,48,70,133568968
119,2,0,Ticks_Pract_8,30,5,42,127,134364532
119,2,0,Ticks_Pract_8,31,1,48,73,134378272
119,2,0,Ticks_Pract_8,32,5,42,127,135165388
119,2,0,Ticks_Pract_8,33,1,48,69,135177484
119,2,0,Ticks_Pract_8,34,5,42,127,135965192
119,2,0,Ticks_Pract_8,35,1,48,68,135980580
119,2,0,Ticks_Pract_8,36,1,48,57,136759128
119,2,0,Ticks_Pract_8,37,5,42,127,136764648
119,2,0,Ticks_Pract_8,38,5,42,127,137564608
119,2,0,Ticks_Pract_8,39,1,48,64,137567204
119,2,0,Ticks_Pract_8,40,5,42,127,138365168
119,2,0,Ticks_Pract_8,41,1,48,61,138375540
119,2,0,Ticks_Pract_8,42,5,42,127,139165124
119,2,0,Ticks_Pract_8,43,1,48,64,139186116
119,2,0,Ticks_Pract_8,44,5,42,127,139964708
119,2,0,Ticks_Pract_8,45,1,48,54,139971268
119,2,0,Ticks_Pract_8,46,1,48,56,140759316
119,2,0,Ticks_Pract_8,47,5,42,127,140764508
119,2,0,Ticks_Pract_8,48,1,48,57,141542668
119,2,0,Ticks_Pract_8,49,5,42,127,141565212
119,2,0,Ticks_Pract_8,50,1,48,55,142337540
119,2,0,Ticks_Pract_8,51,5,42,127,142365024
119,2,0,Ticks_Pract_8,52,1,48,50,143161880
119,2,0,Ticks_Pract_8,53,5,42,127,143164708
119,2,0,Ticks_Pract_8,54,1,48,52,143947280
119,2,0,Ticks_Pract_8,55,5,42,127,143964588
119,2,0,Ticks_Pract_8,56,1,48,51,144726740
119,2,0,Ticks_Pract_8,57,5,42,127,144765144
119,2,0,Ticks_Pract_8,58,1,48,51,145545096
119,2,0,Ticks_Pract_8,0,9999,9999,9999,121562224
119,2,0,Ticks_Pract_8,1,9999,9999,9999,122362952
119,2,0,Ticks_Pract_8,2,9999,9999,9999,123162708
119,2,0,Ticks_Pract_8,3,9999,9999,9999,123962440
119,2,0,Ticks_Pract_8,4,9999,9999,9999,124762200
119,2,0,Ticks_Pract_8,5,9999,9999,9999,125562976
119,2,0,Ticks_Pract_8,6,9999,9999,9999,126362716
119,2,0,Ticks_Pract_8,7,9999,9999,9999,127162448
119,2,0,Ticks_Pract_8,8,9999,9999,9999,127962176
119,2,0,Ticks_Pract_8,9,9999,9999,9999,128762956
119,2,0,Ticks_Pract_8,10,9999,9999,9999,129562688
119,2,0,Ticks_Pract_8,11,9999,9999,9999,130362424
119,2,0,Ticks_Pract_8,12,9999,9999,9999,131162180
119,2,0,Ticks_Pract_8,13,9999,9999,9999,131962960
119,2,0,Ticks_Pract_8,14,9999,9999,9999,132762696
119,2,0,Ticks_Pract_8,15,9999,9999,9999,133562436
119,2,0,Ticks_Pract_8,16,9999,9999,9999,134362172
119,2,0,Ticks_Pract_8,17,9999,9999,9999,135162948
119,2,0,Ticks_Pract_8,18,9999,9999,9999,135962680
119,2,0,Ticks_Pract_8,19,9999,9999,9999,136762432
119,2,0,Ticks_Pract_8,20,9999,9999,9999,137562172
119,2,0,Ticks_Pract_8,21,9999,9999,9999,138362952
119,2,0,Ticks_Pract_8,22,9999,9999,9999,139162684
119,2,0,Ticks_Pract_8,23,9999,9999,9999,139962420
119,2,0,Ticks_Pract_8,24,9999,9999,9999,140762220
119,2,0,Ticks_Pract_8,25,9999,9999,9999,141562928
119,2,0,Ticks_Pract_8,26,9999,9999,9999,142362736
119,2,0,Ticks_Pract_8,27,9999,9999,9999,143162416
119,2,0,Ticks_Pract_8,28,9999,9999,9999,143962224
119,2,0,Ticks_Pract_8,29,9999,9999,9999,144762932
119,3,4,T1_SMS_5,0,5,42,127,246029692
119,3,4,T1_SMS_5,1,5,42,127,246530532
119,3,4,T1_SMS_5,2,5,42,127,247030320
119,3,4,T1_SMS_5,3,5,42,127,247529740
119,3,4,T1_SMS_5,4,5,42,127,248029456
119,3,4,T1_SMS_5,5,1,48,57,248040056
119,3,4,T1_SMS_5,6,1,48,61,248525072
119,3,4,T1_SMS_5,7,5,42,127,248530264
119,3,4,T1_SMS_5,8,1,48,57,248994848
119,3,4,T1_SMS_5,9,5,42,127,249030112
119,3,4,T1_SMS_5,10,1,48,62,249502096
119,3,4,T1_SMS_5,11,5,42,127,249529656
119,3,4,T1_SMS_5,12,1,48,57,249998948
119,3,4,T1_SMS_5,13,5,42,127,250029352
119,3,4,T1_SMS_5,14,1,48,65,250510160
119,3,4,T1_SMS_5,15,5,42,127,250530168
119,3,4,T1_SMS_5,16,1,48,59,250997220
119,3,4,T1_SMS_5,17,5,42,127,251030012
119,3,4,T1_SMS_5,18,1,48,65,251502972
119,3,4,T1_SMS_5,19,5,42,127,251529560
119,3,4,T1_SMS_5,20,1,48,60,251992196
119,3,4,T1_SMS_5,21,5,42,127,252030228
119,3,4,T1_SMS_5,22,1,48,62,252508868
119,3,4,T1_SMS_5,23,5,42,127,252530068
119,3,4,T1_SMS_5,24,1,48,57,252992104
119,3,4,T1_SMS_5,25,5,42,127,253029912
119,3,4,T1_SMS_5,26,5,42,127,253529392
119,3,4,T1_SMS_5,27,1,48,59,253531984
119,3,4,T1_SMS_5,28,1,48,49,254025304
119,3,4,T1_SMS_5,29,5,42,127,254030128
119,3,4,T1_SMS_5,30,5,42,127,254529976
119,3,4,T1_SMS_5,31,1,48,49,254540796
119,3,4,T1_SMS_5,32,5,42,127,255029596
119,3,4,T1_SMS_5,33,1,48,60,255040196
119,3,4,T1_SMS_5,34,1,48,54,255520104
119,3,4,T1_SMS_5,35,5,42,127,255530384
119,3,4,T1_SMS_5,36,1,48,53,256013444
119,3,4,T1_SMS_5,37,5,42,127,256029932
119,3,4,T1_SMS_5,38,1,48,51,256516652
119,3,4,T1_SMS_5,39,5,42,127,256529848
119,3,4,T1_SMS_5,40,1,48,52,257021960
119,3,4,T1_SMS_5,41,5,42,127,257029396
119,3,4,T1_SMS_5,42,1,48,57,257509684
119,3,4,T1_SMS_5,43,5,42,127,257530212
119,3,4,T1_SMS_5,44,5,42,127,258030064
119,3,4,T1_SMS_5,45,1,48,56,258031028
119,3,4,T1_SMS_5,46,5,42,127,258529612
119,3,4,T1_SMS_5,47,1,48,51,258540280
119,3,4,T1_SMS_5,48,1,48,54,259024028
119,3,4,T1_SMS_5,49,5,42,127,259030492
119,3,4,T1_SMS_5,50,1,48,51,259514448
119,3,4,T1_SMS_5,51,5,42,127,259530116
119,3,4,T1_SMS_5,52,1,48,53,260001052
119,3,4,T1_SMS_5,53,5,42,127,260029808
119,3,4,T1_SMS_5,54,1,48,51,260516524
119,3,4,T1_SMS_5,55,5,42,127,260529652
119,3,4,T1_SMS_5,56,1,48,53,261014500
119,3,4,T1_SMS_5,57,5,42,127,261030244
119,3,4,T1_SMS_5,58,1,48,50,261500808
119,3,4,T1_SMS_5,59,5,42,127,261530012
119,3,4,T1_SMS_5,60,1,48,50,261999980
119,3,4,T1_SMS_5,61,5,42,127,262029636
119,3,4,T1_SMS_5,62,5,42,127,262530384
119,3,4,T1_SMS_5,63,1,48,50,262542324
119,3,4,T1_SMS_5,64,5,42,127,263030228
119,3,4,T1_SMS_5,65,1,48,57,263031120
119,3,4,T1_SMS_5,66,5,42,127,263529848
119,3,4,T1_SMS_5,67,1,48,51,263537380
119,3,4,T1_SMS_5,68,1,48,50,264013124
119,3,4,T1_SMS_5,69,5,42,127,264029688
119,3,4,T1_SMS_5,70,1,48,47,264519028
119,3,4,T1_SMS_5,71,5,42,127,264530280
119,3,4,T1_SMS_5,72,1,48,50,265021040
119,3,4,T1_SMS_5,73,5,42,127,265029976
119,3,4,T1_SMS_5,74,1,48,49,265505744
119,3,4,T1_SMS_5,75,5,42,127,265529892
119,3,4,T1_SMS_5,76,1,48,49,266019956
119,3,4,T1_SMS_5,77,5,42,127,266029340
119,3,4,T1_SMS_5,78,1,48,48,266526912
119,3,4,T1_SMS_5,79,5,42,127,266530008
119,3,4,T1_SMS_5,80,1,48,49,267013584
119,3,4,T1_SMS_5,81,5,42,127,267029924
119,3,4,T1_SMS_5,82,5,42,127,267529480
119,3,4,T1_SMS_5,83,1,48,51,267535284
119,3,4,T1_SMS_5,84,5,42,127,268030220
119,3,4,T1_SMS_5,85,1,48,53,268041116
119,3,4,T1_SMS_5,86,1,48,47,268529536
119,3,4,T1_SMS_5,87,5,42,127,268531104
119,3,4,T1_SMS_5,88,5,42,127,269029760
119,3,4,T1_SMS_5,89,1,48,51,269036464
119,3,4,T1_SMS_5,90,1,48,45,269512884
119,3,4,T1_SMS_5,91,5,42,127,269529452
119,3,4,T1_SMS_5,92,1,48,52,270018040
119,3,4,T1_SMS_5,93,5,42,127,270030120
119,3,4,T1_SMS_5,94,1,48,49,270494848
119,3,4,T1_SMS_5,95,5,42,127,270529888
119,3,4,T1_SMS_5,96,1,48,49,271022964
119,3,4,T1_SMS_5,97,5,42,127,271029732
119,3,4,T1_SMS_5,98,1,48,45,271516448
119,3,4,T1_SMS_5,99,5,42,127,271530324
119,3,4,T1_SMS_5,100,1,48,47,272009496
119,3,4,T1_SMS_5,101,5,42,127,272030168
119,3,4,T1_SMS_5,102,5,42,127,272529872
119,3,4,T1_SMS_5,103,1,48,39,272535908
119,3,4,T1_SMS_5,104,5,42,127,273029492
119,3,4,T1_SMS_5,105,1,48,42,273041060
119,3,4,T1_SMS_5,106,5,42,127,273530160
119,3,4,T1_SMS_5,107,1,48,47,273536200
119,3,4,T1_SMS_5,108,5,42,127,274029932
119,3,4,T1_SMS_5,109,1,48,45,274047856
119,3,4,T1_SMS_5,110,5,42,127,274529924
119,3,4,T1_SMS_5,111,1,48,46,274539704
119,3,4,T1_SMS_5,112,5,42,127,275030368
119,3,4,T1_SMS_5,113,1,48,38,275057124
119,3,4,T1_SMS_5,114,5,42,127,275530140
119,3,4,T1_SMS_5,115,1,48,41,275548668
119,3,4,T1_SMS_5,116,5,42,127,276029908
119,3,4,T1_SMS_5,117,1,48,44,276044692
119,3,4,T1_SMS_5,118,5,42,127,276529800
119,3,4,T1_SMS_5,119,1,48,44,276553116
119,3,4,T1_SMS_5,120,1,48,43,277026064
119,3,4,T1_SMS_5,121,5,42,127,277030212
119,3,4,T1_SMS_5,122,5,42,127,277529988
119,3,4,T1_SMS_5,123,1,48,50,277537444
119,3,4,T1_SMS_5,124,5,42,127,278029908
119,3,4,T1_SMS_5,125,1,48,43,278047840
119,3,4,T1_SMS_5,126,5,42,127,278530352
119,3,4,T1_SMS_5,127,1,48,42,278544912
119,3,4,T1_SMS_5,128,1,48,48,279029440
119,3,4,T1_SMS_5,129,5,42,127,279031160
119,3,4,T1_SMS_5,130,1,48,46,279521624
119,3,4,T1_SMS_5,131,5,42,127,279529808
119,3,4,T1_SMS_5,132,1,48,43,280029808
119,3,4,T1_SMS_5,133,5,42,127,280031072
119,3,4,T1_SMS_5,134,5,42,127,280530252
119,3,4,T1_SMS_5,135,1,48,44,280549828
119,3,4,T1_SMS_5,136,1,48,40,281025568
119,3,4,T1_SMS_5,137,5,42,127,281029868
119,3,4,T1_SMS_5,138,1,48,41,281519724
119,3,4,T1_SMS_5,139,5,42,127,281529856
119,3,4,T1_SMS_5,140,1,48,46,282019196
119,3,4,T1_SMS_5,141,5,42,127,282029700
119,3,4,T1_SMS_5,142,5,42,127,282530080
119,3,4,T1_SMS_5,143,1,48,42,282531120
119,3,4,T1_SMS_5,144,5,42,127,283029848
119,3,4,T1_SMS_5,145,1,48,43,283031936
119,3,4,T1_SMS_5,146,5,42,127,283529768
119,3,4,T1_SMS_5,147,1,48,43,283533784
119,3,4,T1_SMS_5,148,5,42,127,284030436
119,3,4,T1_SMS_5,149,1,48,44,284058388
119,3,4,T1_SMS_5,150,5,42,127,284529984
119,3,4,T1_SMS_5,151,1,48,37,284542152
119,3,4,T1_SMS_5,152,1,48,43,285024696
119,3,4,T1_SMS_5,153,5,42,127,285029820
119,3,4,T1_SMS_5,154,1,48,43,285523124
119,3,4,T1_SMS_5,155,5,42,127,285529736
119,3,4,T1_SMS_5,156,5,42,127,286030040
119,3,4,T1_SMS_5,157,1,48,37,286050588
119,3,4,T1_SMS_5,158,5,42,127,286529884
119,3,4,T1_SMS_5,159,1,48,38,286565012
119,3,4,T1_SMS_5,160,1,48,25,287017172
119,3,4,T1_SMS_5,161,5,42,127,287029720
119,3,4,T1_SMS_5,162,1,48,42,287529236
119,3,4,T1_SMS_5,163,5,42,127,287530808
119,3,4,T1_SMS_5,164,5,42,127,288030064
119,3,4,T1_SMS_5,165,1,48,46,288046500
119,3,4,T1_SMS_5,166,1,48,40,288520520
119,3,4,T1_SMS_5,167,5,42,127,288529752
119,3,4,T1_SMS_5,168,1,48,46,289029232
119,3,4,T1_SMS_5,169,5,42,127,289030716
119,3,4,T1_SMS_5,170,1,48,41,289523120
119,3,4,T1_SMS_5,171,5,42,127,289530188
119,3,4,T1_SMS_5,172,1,48,40,290021548
119,3,4,T1_SMS_5,173,5,42,127,290029808
119,3,4,T1_SMS_5,174,5,42,127,290529584
119,3,4,T1_SMS_5,175,1,48,43,290531296
119,3,4,T1_SMS_5,176,1,48,41,291024820
119,3,4,T1_SMS_5,177,5,42,127,291030544
119,3,4,T1_SMS_5,178,1,48,43,291518012
119,3,4,T1_SMS_5,179,5,42,127,291530236
119,3,4,T1_SMS_5,180,1,48,43,292017412
119,3,4,T1_SMS_5,181,5,42,127,292029784
119,3,4,T1_SMS_5,182,5,42,127,292529632
119,3,4,T1_SMS_5,183,1,48,48,292532304
119,3,4,T1_SMS_5,184,1,48,40,293017468
119,3,4,T1_SMS_5,185,5,42,127,293030292
119,3,4,T1_SMS_5,186,1,48,41,293517464
119,3,4,T1_SMS_5,187,5,42,127,293529840
119,3,4,T1_SMS_5,188,1,48,55,294029240
119,3,4,T1_SMS_5,189,5,42,127,294030580
119,3,4,T1_SMS_5,190,1,48,40,294518876
119,3,4,T1_SMS_5,191,5,42,127,294530572
119,3,4,T1_SMS_5,192,5,42,127,295030276
119,3,4,T1_SMS_5,193,1,48,47,295033764
119,3,4,T1_SMS_5,194,5,42,127,295529820
119,3,4,T1_SMS_5,195,1,48,43,295543040
119,3,4,T1_SMS_5,196,1,48,39,296021248
119,3,4,T1_SMS_5,197,5,42,127,296029508
119,3,4,T1_SMS_5,198,1,48,49,296527004
119,3,4,T1_SMS_5,199,5,42,127,296530252
119,3,4,T1_SMS_5,200,5,42,127,297030100
119,3,4,T1_SMS_5,201,1,48,48,297037408
119,3,4,T1_SMS_5,202,5,42,127,297529644
119,3,4,T1_SMS_5,203,1,48,44,297540620
119,3,4,T1_SMS_5,204,1,48,44,298024040
119,3,4,T1_SMS_5,205,5,42,127,298029460
119,3,4,T1_SMS_5,206,1,48,40,298528544
119,3,4,T1_SMS_5,207,5,42,127,298530276
119,3,4,T1_SMS_5,208,5,42,127,299029976
119,3,4,T1_SMS_5,209,1,48,43,299039980
119,3,4,T1_SMS_5,210,1,48,51,299525516
119,3,4,T1_SMS_5,211,5,42,127,299529664
119,3,4,T1_SMS_5,212,5,42,127,300030488
119,3,4,T1_SMS_5,213,1,48,41,300034876
119,3,4,T1_SMS_5,214,1,48,43,300517352
119,3,4,T1_SMS_5,215,5,42,127,300530100
119,3,4,T1_SMS_5,216,1,48,44,301027764
119,3,4,T1_SMS_5,217,5,42,127,301029648
119,3,4,T1_SMS_5,218,1,48,52,301524964
119,3,4,T1_SMS_5,219,5,42,127,301529344
119,3,4,T1_SMS_5,220,1,48,50,302019056
119,3,4,T1_SMS_5,221,5,42,127,302030384
119,3,4,T1_SMS_5,222,1,48,46,302523836
119,3,4,T1_SMS_5,223,5,42,127,302530004
119,3,4,T1_SMS_5,224,1,48,45,303025252
119,3,4,T1_SMS_5,225,5,42,127,303029476
119,3,4,T1_SMS_5,226,1,48,50,303497572
119,3,4,T1_SMS_5,227,5,42,127,303530440
119,3,4,T1_SMS_5,228,1,48,51,304000704
119,3,4,T1_SMS_5,229,5,42,127,304029988
119,3,4,T1_SMS_5,230,1,48,41,304509452
119,3,4,T1_SMS_5,231,5,42,127,304529756
119,3,4,T1_SMS_5,232,5,42,127,305029460
119,3,4,T1_SMS_5,233,1,48,46,305030720
119,3,4,T1_SMS_5,234,5,42,127,305530424
119,3,4,T1_SMS_5,235,1,48,44,305534068
119,3,4,T1_SMS_5,236,1,48,39,306022896
119,3,4,T1_SMS_5,237,5,42,127,306029816
119,3,4,T1_SMS_5,238,1,48,44,306519752
119,3,4,T1_SMS_5,239,5,42,127,306529512
119,3,4,T1_SMS_5,240,1,48,39,307020792
119,3,4,T1_SMS_5,241,5,42,127,307030328
119,3,4,T1_SMS_5,242,5,42,127,307530328
119,3,4,T1_SMS_5,243,1,48,40,307539136
119,3,4,T1_SMS_5,244,1,48,41,308010212
119,3,4,T1_SMS_5,245,5,42,127,308029792
119,3,4,T1_SMS_5,246,5,42,127,308529396
119,3,4,T1_SMS_5,247,1,48,46,308545224
119,3,4,T1_SMS_5,248,5,42,127,309030336
119,3,4,T1_SMS_5,249,1,48,40,309064220
119,3,4,T1_SMS_5,250,5,42,127,309529952
119,3,4,T1_SMS_5,251,1,48,46,309541376
119,3,4,T1_SMS_5,252,5,42,127,310029648
119,3,4,T1_SMS_5,253,1,48,48,310045256
119,3,4,T1_SMS_5,254,5,42,127,310530392
119,3,4,T1_SMS_5,255,1,48,38,310552208
119,3,4,T1_SMS_5,0,9999,9999,9999,246027332
119,3,4,T1_SMS_5,1,9999,9999,9999,246528096
119,3,4,T1_SMS_5,2,9999,9999,9999,247027812
119,3,4,T1_SMS_5,3,9999,9999,9999,247527528
119,3,4,T1_SMS_5,4,9999,9999,9999,248027244
119,3,4,T1_SMS_5,5,9999,9999,9999,248527980
119,3,4,T1_SMS_5,6,9999,9999,9999,249027676
119,3,4,T1_SMS_5,7,9999,9999,9999,249527372
119,3,4,T1_SMS_5,8,9999,9999,9999,250027064
119,3,4,T1_SMS_5,9,9999,9999,9999,250527808
119,3,4,T1_SMS_5,10,9999,9999,9999,251027576
119,3,4,T1_SMS_5,11,9999,9999,9999,251527272
119,3,4,T1_SMS_5,12,9999,9999,9999,252028016
119,3,4,T1_SMS_5,13,9999,9999,9999,252527708
119,3,4,T1_SMS_5,14,9999,9999,9999,253027404
119,3,4,T1_SMS_5,15,9999,9999,9999,253527104
119,3,4,T1_SMS_5,16,9999,9999,9999,254027840
119,3,4,T1_SMS_5,17,9999,9999,9999,254527540
119,3,4,T1_SMS_5,18,9999,9999,9999,255027284
119,3,4,T1_SMS_5,19,9999,9999,9999,255528024
119,3,4,T1_SMS_5,20,9999,9999,9999,256027720
119,3,4,T1_SMS_5,21,9999,9999,9999,256527416
119,3,4,T1_SMS_5,22,9999,9999,9999,257027184
119,3,4,T1_SMS_5,23,9999,9999,9999,257527928
119,3,4,T1_SMS_5,24,9999,9999,9999,258027628
119,3,4,T1_SMS_5,25,9999,9999,9999,258527324
119,3,4,T1_SMS_5,26,9999,9999,9999,259028056
119,3,4,T1_SMS_5,27,9999,9999,9999,259527752
119,3,4,T1_SMS_5,28,9999,9999,9999,260027448
119,3,4,T1_SMS_5,29,9999,9999,9999,260527216
119,3,4,T1_SMS_5,30,9999,9999,9999,261027960
119,3,4,T1_SMS_5,31,9999,9999,9999,261527652
119,3,4,T1_SMS_5,32,9999,9999,9999,262027348
119,3,4,T1_SMS_5,33,9999,9999,9999,262528100
119,3,4,T1_SMS_5,34,9999,9999,9999,263027792
119,3,4,T1_SMS_5,35,9999,9999,9999,263527488
119,3,4,T1_SMS_5,36,9999,9999,9999,264027252
119,3,4,T1_SMS_5,37,9999,9999,9999,264527992
119,3,4,T1_SMS_5,38,9999,9999,9999,265027688
119,3,4,T1_SMS_5,39,9999,9999,9999,265527384
119,3,4,T1_SMS_5,40,9999,9999,9999,266027128
119,3,4,T1_SMS_5,41,9999,9999,9999,266527796
119,3,4,T1_SMS_5,42,9999,9999,9999,267027564
119,3,4,T1_SMS_5,43,9999,9999,9999,267527268
119,3,4,T1_SMS_5,44,9999,9999,9999,268028008
119,3,4,T1_SMS_5,45,9999,9999,9999,268527704
119,3,4,T1_SMS_5,46,9999,9999,9999,269027400
119,3,4,T1_SMS_5,47,9999,9999,9999,269527088
119,3,4,T1_SMS_5,48,9999,9999,9999,270027832
119,3,4,T1_SMS_5,49,9999,9999,9999,270527600
119,3,4,T1_SMS_5,50,9999,9999,9999,271027296
119,3,4,T1_SMS_5,51,9999,9999,9999,271528040
119,3,4,T1_SMS_5,52,9999,9999,9999,272027736
119,3,4,T1_SMS_5,53,9999,9999,9999,272527436
119,3,4,T1_SMS_5,54,9999,9999,9999,273027132
119,3,4,T1_SMS_5,55,9999,9999,9999,273527872
119,3,4,T1_SMS_5,56,9999,9999,9999,274027568
119,3,4,T1_SMS_5,57,9999,9999,9999,274527340
119,3,4,T1_SMS_5,58,9999,9999,9999,275028080
119,3,4,T1_SMS_5,59,9999,9999,9999,275527776
119,3,4,T1_SMS_5,60,9999,9999,9999,276027472
119,3,4,T1_SMS_5,61,9999,9999,9999,276527216
119,3,4,T1_SMS_5,62,9999,9999,9999,277027928
119,3,4,T1_SMS_5,63,9999,9999,9999,277527628
119,3,4,T1_SMS_5,64,9999,9999,9999,278027324
119,3,4,T1_SMS_5,65,9999,9999,9999,278528064
119,3,4,T1_SMS_5,66,9999,9999,9999,279027832
119,3,4,T1_SMS_5,67,9999,9999,9999,279527524
119,3,4,T1_SMS_5,68,9999,9999,9999,280027224
119,3,4,T1_SMS_5,69,9999,9999,9999,280527964
119,3,4,T1_SMS_5,70,9999,9999,9999,281027656
119,3,4,T1_SMS_5,71,9999,9999,9999,281527348
119,3,4,T1_SMS_5,72,9999,9999,9999,282027116
119,3,4,T1_SMS_5,73,9999,9999,9999,282527792
119,3,4,T1_SMS_5,74,9999,9999,9999,283027560
119,3,4,T1_SMS_5,75,9999,9999,9999,283527260
119,3,4,T1_SMS_5,76,9999,9999,9999,284028000
119,3,4,T1_SMS_5,77,9999,9999,9999,284527696
119,3,4,T1_SMS_5,78,9999,9999,9999,285027384
119,3,4,T1_SMS_5,79,9999,9999,9999,285527152
119,3,4,T1_SMS_5,80,9999,9999,9999,286027828
119,3,4,T1_SMS_5,81,9999,9999,9999,286527596
119,3,4,T1_SMS_5,82,9999,9999,9999,287027284
119,3,4,T1_SMS_5,83,9999,9999,9999,287528008
119,3,4,T1_SMS_5,84,9999,9999,9999,288027704
119,3,4,T1_SMS_5,85,9999,9999,9999,288527464
119,3,4,T1_SMS_5,86,9999,9999,9999,289027168
119,3,4,T1_SMS_5,87,9999,9999,9999,289527900
119,3,4,T1_SMS_5,88,9999,9999,9999,290027596
119,3,4,T1_SMS_5,89,9999,9999,9999,290527300
119,3,4,T1_SMS_5,90,9999,9999,9999,291028032
119,3,4,T1_SMS_5,91,9999,9999,9999,291527728
119,3,4,T1_SMS_5,92,9999,9999,9999,292027496
119,3,4,T1_SMS_5,93,9999,9999,9999,292527196
119,3,4,T1_SMS_5,94,9999,9999,9999,293027932
119,3,4,T1_SMS_5,95,9999,9999,9999,293527628
119,3,4,T1_SMS_5,96,9999,9999,9999,294027328
119,3,4,T1_SMS_5,97,9999,9999,9999,294528064
119,3,4,T1_SMS_5,98,9999,9999,9999,295027764
119,3,4,T1_SMS_5,99,9999,9999,9999,295527536
119,3,4,T1_SMS_5,100,9999,9999,9999,296027224
119,3,4,T1_SMS_5,101,9999,9999,9999,296527964
119,3,4,T1_SMS_5,102,9999,9999,9999,297027664
119,3,4,T1_SMS_5,103,9999,9999,9999,297527360
119,3,4,T1_SMS_5,104,9999,9999,9999,298027096
119,3,4,T1_SMS_5,105,9999,9999,9999,298527852
119,3,4,T1_SMS_5,106,9999,9999,9999,299027540
119,3,4,T1_SMS_5,107,9999,9999,9999,299527228
119,3,4,T1_SMS_5,108,9999,9999,9999,300027980
119,3,4,T1_SMS_5,109,9999,9999,9999,300527668
119,3,4,T1_SMS_5,110,9999,9999,9999,301027392
119,3,4,T1_SMS_5,111,9999,9999,9999,301527132
119,3,4,T1_SMS_5,112,9999,9999,9999,302027872
119,3,4,T1_SMS_5,113,9999,9999,9999,302527568
119,3,4,T1_SMS_5,114,9999,9999,9999,303027264
119,3,4,T1_SMS_5,115,9999,9999,9999,303528004
119,3,4,T1_SMS_5,116,9999,9999,9999,304027700
119,3,4,T1_SMS_5,117,9999,9999,9999,304527468
119,3,4,T1_SMS_5,118,9999,9999,9999,305027172
119,3,4,T1_SMS_5,119,9999,9999,9999,305527912
119,3,4,T1_SMS_5,120,9999,9999,9999,306027604
119,3,4,T1_SMS_5,121,9999,9999,9999,306527300
119,3,4,T1_SMS_5,122,9999,9999,9999,307028040
119,3,4,T1_SMS_5,123,9999,9999,9999,307527744
119,3,4,T1_SMS_5,124,9999,9999,9999,308027508
119,3,4,T1_SMS_5,125,9999,9999,9999,308527184
119,3,4,T1_SMS_5,126,9999,9999,9999,309027900
119,3,4,T1_SMS_5,127,9999,9999,9999,309527668
119,3,4,T1_SMS_5,128,9999,9999,9999,310027364
119,3,4,T1_SMS_5,129,9999,9999,9999,310528104
119,4,2,T1_SMS_8,0,5,42,127,423673248
119,4,2,T1_SMS_8,1,5,42,127,424472928
119,4,2,T1_SMS_8,2,5,42,127,425272560
119,4,2,T1_SMS_8,3,5,42,127,426072392
119,4,2,T1_SMS_8,4,1,48,78,426857972
119,4,2,T1_SMS_8,5,5,42,127,426873408
119,4,2,T1_SMS_8,6,1,48,84,427647532
119,4,2,T1_SMS_8,7,5,42,127,427672920
119,4,2,T1_SMS_8,8,1,48,68,428449356
119,4,2,T1_SMS_8,9,5,42,127,428472652
119,4,2,T1_SMS_8,10,5,42,127,429272392
119,4,2,T1_SMS_8,11,1,48,62,429281944
119,4,2,T1_SMS_8,12,1,48,64,430061988
119,4,2,T1_SMS_8,13,5,42,127,430073164
119,4,2,T1_SMS_8,14,5,42,127,430872832
119,4,2,T1_SMS_8,15,1,48,60,430892356
119,4,2,T1_SMS_8,16,1,48,62,431651580
119,4,2,T1_SMS_8,17,5,42,127,431672660
119,4,2,T1_SMS_8,18,1,48,63,432461588
119,4,2,T1_SMS_8,19,5,42,127,432472320
119,4,2,T1_SMS_8,20,1,48,58,433258328
119,4,2,T1_SMS_8,21,5,42,127,433273172
119,4,2,T1_SMS_8,22,1,48,57,434060684
119,4,2,T1_SMS_8,23,5,42,127,434073128
119,4,2,T1_SMS_8,24,1,48,52,434843436
119,4,2,T1_SMS_8,25,5,42,127,434872640
119,4,2,T1_SMS_8,26,1,48,61,435620580
119,4,2,T1_SMS_8,27,5,42,127,435672300
119,4,2,T1_SMS_8,28,1,48,62,436424648
119,4,2,T1_SMS_8,29,5,42,127,436473376
119,4,2,T1_SMS_8,30,1,48,57,437247572
119,4,2,T1_SMS_8,31,5,42,127,437273036
119,4,2,T1_SMS_8,32,1,48,55,438039004
119,4,2,T1_SMS_8,33,5,42,127,438072572
119,4,2,T1_SMS_8,34,1,48,49,438861200
119,4,2,T1_SMS_8,35,5,42,127,438872376
119,4,2,T1_SMS_8,36,1,48,53,439666092
119,4,2,T1_SMS_8,37,5,42,127,439673156
119,4,2,T1_SMS_8,38,5,42,127,440473120
119,4,2,T1_SMS_8,39,1,48,54,440490452
119,4,2,T1_SMS_8,40,5,42,127,441272560
119,4,2,T1_SMS_8,41,1,48,59,441330652
119,4,2,T1_SMS_8,42,5,42,127,442072292
119,4,2,T1_SMS_8,43,1,48,62,442099796
119,4,2,T1_SMS_8,44,1,48,53,442862860
119,4,2,T1_SMS_8,45,5,42,127,442873140
119,4,2,T1_SMS_8,46,1,48,52,443656004
119,4,2,T1_SMS_8,47,5,42,127,443673168
119,4,2,T1_SMS_8,48,1,48,52,444460628
119,4,2,T1_SMS_8,49,5,42,127,444472852
119,4,2,T1_SMS_8,50,1,48,50,445245252
119,4,2,T1_SMS_8,51,5,42,127,445272292
119,4,2,T1_SMS_8,52,1,48,53,446014916
119,4,2,T1_SMS_8,53,5,42,127,446073220
119,4,2,T1_SMS_8,54,1,48,48,446844864
119,4,2,T1_SMS_8,55,5,42,127,446873100
119,4,2,T1_SMS_8,56,1,48,48,447639216
119,4,2,T1_SMS_8,57,5,42,127,447672908
119,4,2,T1_SMS_8,58,1,48,49,448450992
119,4,2,T1_SMS_8,59,5,42,127,448472344
119,4,2,T1_SMS_8,60,1,48,48,449265088
119,4,2,T1_SMS_8,61,5,42,127,449273200
119,4,2,T1_SMS_8,62,1,48,47,450053452
119,4,2,T1_SMS_8,63,5,42,127,450073080
119,4,2,T1_SMS_8,64,5,42,127,450872624
119,4,2,T1_SMS_8,65,1,48,45,450875288
119,4,2,T1_SMS_8,66,5,42,127,451672356
119,4,2,T1_SMS_8,67,1,48,47,451695220
119,4,2,T1_SMS_8,68,5,42,127,452473136
119,4,2,T1_SMS_8,69,1,48,51,452490164
119,4,2,T1_SMS_8,70,5,42,127,453272868
119,4,2,T1_SMS_8,71,1,48,48,453278160
119,4,2,T1_SMS_8,72,5,42,127,454072900
119,4,2,T1_SMS_8,73,1,48,45,454118956
119,4,2,T1_SMS_8,74,1,48,53,454860104
119,4,2,T1_SMS_8,75,5,42,127,454872404
119,4,2,T1_SMS_8,76,1,48,51,455621696
119,4,2,T1_SMS_8,77,5,42,127,455673188
119,4,2,T1_SMS_8,78,1,48,51,456445960
119,4,2,T1_SMS_8,79,5,42,127,456472992
119,4,2,T1_SMS_8,80,1,48,46,457252052
119,4,2,T1_SMS_8,81,5,42,127,457272824
119,4,2,T1_SMS_8,82,1,48,53,458069164
119,4,2,T1_SMS_8,83,5,42,127,458072336
119,4,2,T1_SMS_8,84,1,48,49,458852364
119,4,2,T1_SMS_8,85,5,42,127,458873188
119,4,2,T1_SMS_8,86,1,48,47,459653148
119,4,2,T1_SMS_8,87,5,42,127,459672848
119,4,2,T1_SMS_8,88,5,42,127,460472884
119,4,2,T1_SMS_8,89,1,48,50,460501292
119,4,2,T1_SMS_8,90,1,48,51,461253736
119,4,2,T1_SMS_8,91,5,42,127,461272464
119,4,2,T1_SMS_8,92,1,48,51,462036236
119,4,2,T1_SMS_8,93,5,42,127,462073220
119,4,2,T1_SMS_8,94,1,48,48,462834548
119,4,2,T1_SMS_8,95,5,42,127,462872880
119,4,2,T1_SMS_8,96,1,48,48,463643784
119,4,2,T1_SMS_8,97,5,42,127,463672636
119,4,2,T1_SMS_8,98,1,48,47,464460820
119,4,2,T1_SMS_8,99,5,42,127,464472444
119,4,2,T1_SMS_8,100,1,48,48,465238264
119,4,2,T1_SMS_8,101,5,42,127,465273300
119,4,2,T1_SMS_8,102,1,48,48,466069712
119,4,2,T1_SMS_8,103,5,42,127,466072884
119,4,2,T1_SMS_8,104,5,42,127,466872696
119,4,2,T1_SMS_8,105,1,48,45,466899604
119,4,2,T1_SMS_8,106,5,42,127,467672284
119,4,2,T1_SMS_8,107,1,48,48,467680564
119,4,2,T1_SMS_8,108,1,48,43,468461204
119,4,2,T1_SMS_8,109,5,42,127,468473128
119,4,2,T1_SMS_8,110,5,42,127,469272796
119,4,2,T1_SMS_8,111,1,48,44,469276964
119,4,2,T1_SMS_8,112,5,42,127,470072628
119,4,2,T1_SMS_8,113,1,48,44,470095640
119,4,2,T1_SMS_8,114,5,42,127,470872508
119,4,2,T1_SMS_8,115,1,48,46,470901060
119,4,2,T1_SMS_8,116,5,42,127,471673140
119,4,2,T1_SMS_8,117,1,48,44,471677828
119,4,2,T1_SMS_8,118,5,42,127,472472800
119,4,2,T1_SMS_8,119,1,48,45,472492376
119,4,2,T1_SMS_8,120,5,42,127,473272756
119,4,2,T1_SMS_8,121,1,48,41,473282084
119,4,2,T1_SMS_8,122,1,48,41,474071360
119,4,2,T1_SMS_8,123,5,42,127,474072928
119,4,2,T1_SMS_8,124,5,42,127,474873120
119,4,2,T1_SMS_8,125,1,48,39,474877884
119,4,2,T1_SMS_8,126,5,42,127,475672928
119,4,2,T1_SMS_8,127,1,48,40,475683524
119,4,2,T1_SMS_8,128,5,42,127,476472760
119,4,2,T1_SMS_8,129,1,48,39,476485004
119,4,2,T1_SMS_8,130,5,42,127,477272492
119,4,2,T1_SMS_8,131,1,48,46,477282420
119,4,2,T1_SMS_8,132,5,42,127,478073124
119,4,2,T1_SMS_8,133,1,48,41,478074836
119,4,2,T1_SMS_8,134,5,42,127,478873008
119,4,2,T1_SMS_8,135,1,48,37,478893256
119,4,2,T1_SMS_8,136,1,48,44,479666944
119,4,2,T1_SMS_8,137,5,42,127,479672808
119,4,2,T1_SMS_8,138,5,42,127,480472696
119,4,2,T1_SMS_8,139,1,48,45,480475668
119,4,2,T1_SMS_8,140,1,48,40,481262820
119,4,2,T1_SMS_8,141,5,42,127,481273320
119,4,2,T1_SMS_8,142,5,42,127,482072988
119,4,2,T1_SMS_8,143,1,48,47,482079852
119,4,2,T1_SMS_8,144,5,42,127,482872672
119,4,2,T1_SMS_8,145,1,48,41,482900920
119,4,2,T1_SMS_8,146,5,42,127,483672628
119,4,2,T1_SMS_8,147,1,48,43,483684724
119,4,2,T1_SMS_8,148,5,42,127,484473260
119,4,2,T1_SMS_8,149,1,48,43,484490140
119,4,2,T1_SMS_8,150,5,42,127,485272920
119,4,2,T1_SMS_8,151,1,48,46,485306784
119,4,2,T1_SMS_8,152,5,42,127,486072580
119,4,2,T1_SMS_8,153,1,48,45,486098512
119,4,2,T1_SMS_8,154,5,42,127,486872536
119,4,2,T1_SMS_8,155,1,48,45,486918592
119,4,2,T1_SMS_8,156,5,42,127,487673316
119,4,2,T1_SMS_8,157,1,48,43,487684884
119,4,2,T1_SMS_8,158,5,42,127,488472824
119,4,2,T1_SMS_8,159,1,48,35,488490332
119,4,2,T1_SMS_8,160,5,42,127,489272584
119,4,2,T1_SMS_8,161,1,48,42,489317364
119,4,2,T1_SMS_8,162,5,42,127,490072392
119,4,2,T1_SMS_8,163,1,48,37,490098396
119,4,2,T1_SMS_8,164,1,48,39,490851440
119,4,2,T1_SMS_8,165,5,42,127,490873312
119,4,2,T1_SMS_8,166,1,48,37,491667484
119,4,2,T1_SMS_8,167,5,42,127,491672824
119,4,2,T1_SMS_8,168,1,48,39,492467664
119,4,2,T1_SMS_8,169,5,42,127,492472632
119,4,2,T1_SMS_8,170,5,42,127,493272372
119,4,2,T1_SMS_8,171,1,48,42,493285136
119,4,2,T1_SMS_8,172,1,48,43,494058300
119,4,2,T1_SMS_8,173,5,42,127,494073220
119,4,2,T1_SMS_8,174,1,48,40,494850480
119,4,2,T1_SMS_8,175,5,42,127,494872880
119,4,2,T1_SMS_8,176,1,48,44,495642884
119,4,2,T1_SMS_8,177,5,42,127,495672712
119,4,2,T1_SMS_8,178,1,48,46,496444060
119,4,2,T1_SMS_8,179,5,42,127,496472368
119,4,2,T1_SMS_8,180,1,48,40,497239832
119,4,2,T1_SMS_8,181,5,42,127,497273520
119,4,2,T1_SMS_8,182,1,48,39,498072440
119,4,2,T1_SMS_8,183,5,42,127,498074004
119,4,2,T1_SMS_8,184,1,48,39,498869740
119,4,2,T1_SMS_8,185,5,42,127,498872616
119,4,2,T1_SMS_8,186,5,42,127,499672432
119,4,2,T1_SMS_8,187,1,48,41,499689388
119,4,2,T1_SMS_8,188,1,48,39,500463520
119,4,2,T1_SMS_8,189,5,42,127,500473428
119,4,2,T1_SMS_8,190,5,42,127,501272872
119,4,2,T1_SMS_8,191,1,48,43,501292468
119,4,2,T1_SMS_8,192,5,42,127,502072704
119,4,2,T1_SMS_8,193,1,48,37,502075452
119,4,2,T1_SMS_8,194,5,42,127,502872364
119,4,2,T1_SMS_8,195,1,48,39,502886100
119,4,2,T1_SMS_8,196,1,48,36,503655296
119,4,2,T1_SMS_8,197,5,42,127,503673360
119,4,2,T1_SMS_8,198,1,48,39,504470516
119,4,2,T1_SMS_8,199,5,42,127,504473168
119,4,2,T1_SMS_8,200,1,48,39,505265464
119,4,2,T1_SMS_8,201,5,42,127,505272676
119,4,2,T1_SMS_8,202,5,42,127,506072568
119,4,2,T1_SMS_8,203,1,48,40,506077336
119,4,2,T1_SMS_8,204,1,48,40,506872368
119,4,2,T1_SMS_8,205,5,42,127,506873784
119,4,2,T1_SMS_8,206,5,42,127,507673152
119,4,2,T1_SMS_8,207,1,48,35,507690660
119,4,2,T1_SMS_8,208,5,42,127,508472612
119,4,2,T1_SMS_8,209,1,48,36,508493984
119,4,2,T1_SMS_8,210,5,42,127,509272496
119,4,2,T1_SMS_8,211,1,48,38,509293268
119,4,2,T1_SMS_8,212,1,48,35,510071236
119,4,2,T1_SMS_8,213,5,42,127,510073120
119,4,2,T1_SMS_8,214,1,48,39,510865416
119,4,2,T1_SMS_8,215,5,42,127,510873376
119,4,2,T1_SMS_8,216,5,42,127,511672820
119,4,2,T1_SMS_8,217,1,48,33,511684916
119,4,2,T1_SMS_8,218,1,48,32,512465852
119,4,2,T1_SMS_8,219,5,42,127,512472396
119,4,2,T1_SMS_8,220,5,42,127,513273184
119,4,2,T1_SMS_8,221,1,48,37,513291712
119,4,2,T1_SMS_8,222,5,42,127,514073068
119,4,2,T1_SMS_8,223,1,48,37,514085680
119,4,2,T1_SMS_8,224,5,42,127,514872748
119,4,2,T1_SMS_8,225,1,48,38,514878188
119,4,2,T1_SMS_8,226,1,48,31,515668704
119,4,2,T1_SMS_8,227,5,42,127,515672400
119,4,2,T1_SMS_8,228,5,42,127,516473112
119,4,2,T1_SMS_8,229,1,48,44,516475852
119,4,2,T1_SMS_8,230,5,42,127,517272920
119,4,2,T1_SMS_8,231,1,48,40,517291224
119,4,2,T1_SMS_8,232,5,42,127,518072952
119,4,2,T1_SMS_8,233,1,48,41,518088044
119,4,2,T1_SMS_8,234,1,48,40,518869432
119,4,2,T1_SMS_8,235,5,42,127,518872528
119,4,2,T1_SMS_8,0,9999,9999,9999,423670884
119,4,2,T1_SMS_8,1,9999,9999,9999,424470640
119,4,2,T1_SMS_8,2,9999,9999,9999,425270348
119,4,2,T1_SMS_8,3,9999,9999,9999,426070104
119,4,2,T1_SMS_8,4,9999,9999,9999,426870896
119,4,2,T1_SMS_8,5,9999,9999,9999,427670632
119,4,2,T1_SMS_8,6,9999,9999,9999,428470364
119,4,2,T1_SMS_8,7,9999,9999,9999,429270104
119,4,2,T1_SMS_8,8,9999,9999,9999,430070876
119,4,2,T1_SMS_8,9,9999,9999,9999,430870620
119,4,2,T1_SMS_8,10,9999,9999,9999,431670372
119,4,2,T1_SMS_8,11,9999,9999,9999,432470104
119,4,2,T1_SMS_8,12,9999,9999,9999,433270884
119,4,2,T1_SMS_8,13,9999,9999,9999,434070620
119,4,2,T1_SMS_8,14,9999,9999,9999,434870352
119,4,2,T1_SMS_8,15,9999,9999,9999,435670088
119,4,2,T1_SMS_8,16,9999,9999,9999,436470868
119,4,2,T1_SMS_8,17,9999,9999,9999,437270600
119,4,2,T1_SMS_8,18,9999,9999,9999,438070356
119,4,2,T1_SMS_8,19,9999,9999,9999,438870088
119,4,2,T1_SMS_8,20,9999,9999,9999,439670872
119,4,2,T1_SMS_8,21,9999,9999,9999,440470612
119,4,2,T1_SMS_8,22,9999,9999,9999,441270344
119,4,2,T1_SMS_8,23,9999,9999,9999,442070080
119,4,2,T1_SMS_8,24,9999,9999,9999,442870852
119,4,2,T1_SMS_8,25,9999,9999,9999,443670584
119,4,2,T1_SMS_8,26,9999,9999,9999,444470340
119,4,2,T1_SMS_8,27,9999,9999,9999,445270076
119,4,2,T1_SMS_8,28,9999,9999,9999,446070856
119,4,2,T1_SMS_8,29,9999,9999,9999,446870588
119,4,2,T1_SMS_8,30,9999,9999,9999,447670324
119,4,2,T1_SMS_8,31,9999,9999,9999,448470132
119,4,2,T1_SMS_8,32,9999,9999,9999,449270836
119,4,2,T1_SMS_8,33,9999,9999,9999,450070644
119,4,2,T1_SMS_8,34,9999,9999,9999,450870336
119,4,2,T1_SMS_8,35,9999,9999,9999,451670068
119,4,2,T1_SMS_8,36,9999,9999,9999,452470848
119,4,2,T1_SMS_8,37,9999,9999,9999,453270580
119,4,2,T1_SMS_8,38,9999,9999,9999,454070392
119,4,2,T1_SMS_8,39,9999,9999,9999,454870116
119,4,2,T1_SMS_8,40,9999,9999,9999,455670900
119,4,2,T1_SMS_8,41,9999,9999,9999,456470632
119,4,2,T1_SMS_8,42,9999,9999,9999,457270388
119,4,2,T1_SMS_8,43,9999,9999,9999,458070124
119,4,2,T1_SMS_8,44,9999,9999,9999,458870900
119,4,2,T1_SMS_8,45,9999,9999,9999,459670636
119,4,2,T1_SMS_8,46,9999,9999,9999,460470376
119,4,2,T1_SMS_8,47,9999,9999,9999,461270104
119,4,2,T1_SMS_8,48,9999,9999,9999,462070860
119,4,2,T1_SMS_8,49,9999,9999,9999,462870592
119,4,2,T1_SMS_8,50,9999,9999,9999,463670348
119,4,2,T1_SMS_8,51,9999,9999,9999,464470080
119,4,2,T1_SMS_8,52,9999,9999,9999,465270860
119,4,2,T1_SMS_8,53,9999,9999,9999,466070596
119,4,2,T1_SMS_8,54,9999,9999,9999,466870336
119,4,2,T1_SMS_8,55,9999,9999,9999,467670068
119,4,2,T1_SMS_8,56,9999,9999,9999,468470840
119,4,2,T1_SMS_8,57,9999,9999,9999,469270580
119,4,2,T1_SMS_8,58,9999,9999,9999,470070340
119,4,2,T1_SMS_8,59,9999,9999,9999,470870072
119,4,2,T1_SMS_8,60,9999,9999,9999,471670852
119,4,2,T1_SMS_8,61,9999,9999,9999,472470584
119,4,2,T1_SMS_8,62,9999,9999,9999,473270320
119,4,2,T1_SMS_8,63,9999,9999,9999,474070128
119,4,2,T1_SMS_8,64,9999,9999,9999,474870832
119,4,2,T1_SMS_8,65,9999,9999,9999,475670640
119,4,2,T1_SMS_8,66,9999,9999,9999,476470324
119,4,2,T1_SMS_8,67,9999,9999,9999,477270132
119,4,2,T1_SMS_8,68,9999,9999,9999,478070836
119,4,2,T1_SMS_8,69,9999,9999,9999,478870644
119,4,2,T1_SMS_8,70,9999,9999,9999,479670372
119,4,2,T1_SMS_8,71,9999,9999,9999,480470112
119,4,2,T1_SMS_8,72,9999,9999,9999,481270884
119,4,2,T1_SMS_8,73,9999,9999,9999,482070624
119,4,2,T1_SMS_8,74,9999,9999,9999,482870384
119,4,2,T1_SMS_8,75,9999,9999,9999,483670120
119,4,2,T1_SMS_8,76,9999,9999,9999,484470896
119,4,2,T1_SMS_8,77,9999,9999,9999,485270632
119,4,2,T1_SMS_8,78,9999,9999,9999,486070364
119,4,2,T1_SMS_8,79,9999,9999,9999,486870100
119,4,2,T1_SMS_8,80,9999,9999,9999,487670880
119,4,2,T1_SMS_8,81,9999,9999,9999,488470612
119,4,2,T1_SMS_8,82,9999,9999,9999,489270368
119,4,2,T1_SMS_8,83,9999,9999,9999,490070104
119,4,2,T1_SMS_8,84,9999,9999,9999,490870876
119,4,2,T1_SMS_8,85,9999,9999,9999,491670608
119,4,2,T1_SMS_8,86,9999,9999,9999,492470344
119,4,2,T1_SMS_8,87,9999,9999,9999,493270084
119,4,2,T1_SMS_8,88,9999,9999,9999,494070856
119,4,2,T1_SMS_8,89,9999,9999,9999,494870592
119,4,2,T1_SMS_8,90,9999,9999,9999,495670348
119,4,2,T1_SMS_8,91,9999,9999,9999,496470080
119,4,2,T1_SMS_8,92,9999,9999,9999,497270860
119,4,2,T1_SMS_8,93,9999,9999,9999,498070604
119,4,2,T1_SMS_8,94,9999,9999,9999,498870328
119,4,2,T1_SMS_8,95,9999,9999,9999,499670068
119,4,2,T1_SMS_8,96,9999,9999,9999,500470844
119,4,2,T1_SMS_8,97,9999,9999,9999,501270584
119,4,2,T1_SMS_8,98,9999,9999,9999,502070344
119,4,2,T1_SMS_8,99,9999,9999,9999,502870076
119,4,2,T1_SMS_8,100,9999,9999,9999,503670848
119,4,2,T1_SMS_8,101,9999,9999,9999,504470584
119,4,2,T1_SMS_8,102,9999,9999,9999,505270388
119,4,2,T1_SMS_8,103,9999,9999,9999,506070132
119,4,2,T1_SMS_8,104,9999,9999,9999,506870836
119,4,2,T1_SMS_8,105,9999,9999,9999,507670644
119,4,2,T1_SMS_8,106,9999,9999,9999,508470324
119,4,2,T1_SMS_8,107,9999,9999,9999,509270136
119,4,2,T1_SMS_8,108,9999,9999,9999,510070864
119,4,2,T1_SMS_8,109,9999,9999,9999,510870640
119,4,2,T1_SMS_8,110,9999,9999,9999,511670384
119,4,2,T1_SMS_8,111,9999,9999,9999,512470108
119,4,2,T1_SMS_8,112,9999,9999,9999,513270896
119,4,2,T1_SMS_8,113,9999,9999,9999,514070628
119,4,2,T1_SMS_8,114,9999,9999,9999,514870388
119,4,2,T1_SMS_8,115,9999,9999,9999,515670112
119,4,2,T1_SMS_8,116,9999,9999,9999,516470900
119,4,2,T1_SMS_8,117,9999,9999,9999,517270632
119,4,2,T1_SMS_8,118,9999,9999,9999,518070368
119,4,2,T1_SMS_8,119,9999,9999,9999,518870092
119,5,23,Ticks_Phase_5,0,5,42,127,529648032
119,5,23,Ticks_Phase_5,1,5,42,127,530147968
119,5,23,Ticks_Phase_5,2,5,42,127,530648500
119,5,23,Ticks_Phase_5,3,5,42,127,531158248
119,5,23,Ticks_Phase_5,4,5,42,127,531658028
119,5,23,Ticks_Phase_5,5,1,48,65,531678748
119,5,23,Ticks_Phase_5,6,5,42,127,532157940
119,5,23,Ticks_Phase_5,7,1,48,70,532234296
119,5,23,Ticks_Phase_5,8,5,42,127,532657480
119,5,23,Ticks_Phase_5,9,1,48,60,532778868
119,5,23,Ticks_Phase_5,10,5,42,127,533158212
119,5,23,Ticks_Phase_5,11,5,42,127,533658148
119,5,23,Ticks_Phase_5,12,1,48,51,533713460
119,5,23,Ticks_Phase_5,13,5,42,127,534157908
119,5,23,Ticks_Phase_5,14,1,48,54,534197952
119,5,23,Ticks_Phase_5,15,1,48,54,534657820
119,5,23,Ticks_Phase_5,16,5,42,127,534659312
119,5,23,Ticks_Phase_5,17,1,48,59,535151180
119,5,23,Ticks_Phase_5,18,5,42,127,535168364
119,5,23,Ticks_Phase_5,19,1,48,59,535646080
119,5,23,Ticks_Phase_5,20,5,42,127,535668200
119,5,23,Ticks_Phase_5,21,1,48,56,536159696
119,5,23,Ticks_Phase_5,22,5,42,127,536167812
119,5,23,Ticks_Phase_5,23,1,48,52,536667732
119,5,23,Ticks_Phase_5,24,5,42,127,536668992
119,5,23,Ticks_Phase_5,25,1,48,53,537162884
119,5,23,Ticks_Phase_5,26,5,42,127,537168308
119,5,23,Ticks_Phase_5,27,1,48,54,537663992
119,5,23,Ticks_Phase_5,28,5,42,127,537667924
119,5,23,Ticks_Phase_5,29,5,42,127,538167916
119,5,23,Ticks_Phase_5,30,1,48,52,538174248
119,5,23,Ticks_Phase_5,31,1,48,47,538647104
119,5,23,Ticks_Phase_5,32,5,42,127,538668348
119,5,23,Ticks_Phase_5,33,5,42,127,539168240
119,5,23,Ticks_Phase_5,34,1,48,48,539176704
119,5,23,Ticks_Phase_5,35,5,42,127,539668004
119,5,23,Ticks_Phase_5,36,1,48,47,539694432
119,5,23,Ticks_Phase_5,37,5,42,127,540167764
119,5,23,Ticks_Phase_5,38,1,48,48,540184736
119,5,23,Ticks_Phase_5,39,5,42,127,540668204
119,5,23,Ticks_Phase_5,40,1,48,46,540677692
119,5,23,Ticks_Phase_5,41,5,42,127,541168040
119,5,23,Ticks_Phase_5,42,1,48,51,541191304
119,5,23,Ticks_Phase_5,43,5,42,127,541667800
119,5,23,Ticks_Phase_5,44,1,48,49,541676696
119,5,23,Ticks_Phase_5,45,5,42,127,542168612
119,5,23,Ticks_Phase_5,46,1,48,49,542188588
119,5,23,Ticks_Phase_5,47,5,42,127,542678556
119,5,23,Ticks_Phase_5,48,1,48,48,542699952
119,5,23,Ticks_Phase_5,49,5,42,127,543177948
119,5,23,Ticks_Phase_5,50,1,48,48,543189012
119,5,23,Ticks_Phase_5,51,5,42,127,543677860
119,5,23,Ticks_Phase_5,52,1,48,47,543710184
119,5,23,Ticks_Phase_5,53,5,42,127,544177772
119,5,23,Ticks_Phase_5,54,1,48,45,544194668
119,5,23,Ticks_Phase_5,55,5,42,127,544668100
119,5,23,Ticks_Phase_5,56,1,48,45,544684840
119,5,23,Ticks_Phase_5,57,5,42,127,545167864
119,5,23,Ticks_Phase_5,58,1,48,44,545183704
119,5,23,Ticks_Phase_5,59,5,42,127,545667700
119,5,23,Ticks_Phase_5,60,1,48,42,545686472
119,5,23,Ticks_Phase_5,61,5,42,127,546168136
119,5,23,Ticks_Phase_5,62,1,48,46,546197772
119,5,23,Ticks_Phase_5,63,5,42,127,546667752
119,5,23,Ticks_Phase_5,64,1,48,46,546676636
119,5,23,Ticks_Phase_5,65,5,42,127,547167736
119,5,23,Ticks_Phase_5,66,1,48,41,547178648
119,5,23,Ticks_Phase_5,67,5,42,127,547668544
119,5,23,Ticks_Phase_5,68,1,48,47,547701920
119,5,23,Ticks_Phase_5,69,5,42,127,548168084
119,5,23,Ticks_Phase_5,70,1,48,43,548204072
119,5,23,Ticks_Phase_5,71,1,48,54,548659280
119,5,23,Ticks_Phase_5,72,5,42,127,548667692
119,5,23,Ticks_Phase_5,73,1,48,48,549163152
119,5,23,Ticks_Phase_5,74,5,42,127,549167752
119,5,23,Ticks_Phase_5,75,1,48,44,549655860
119,5,23,Ticks_Phase_5,76,5,42,127,549668088
119,5,23,Ticks_Phase_5,77,1,48,45,550166492
119,5,23,Ticks_Phase_5,78,5,42,127,550168000
119,5,23,Ticks_Phase_5,79,5,42,127,550667772
119,5,23,Ticks_Phase_5,80,1,48,46,550678380
119,5,23,Ticks_Phase_5,81,1,48,48,551161428
119,5,23,Ticks_Phase_5,82,5,42,127,551168500
119,5,23,Ticks_Phase_5,83,5,42,127,551668044
119,5,23,Ticks_Phase_5,84,1,48,44,551670708
119,5,23,Ticks_Phase_5,85,5,42,127,552167808
119,5,23,Ticks_Phase_5,86,1,48,46,552168772
119,5,23,Ticks_Phase_5,87,1,48,45,552633380
119,5,23,Ticks_Phase_5,88,5,42,127,552667488
119,5,23,Ticks_Phase_5,89,5,42,127,553168228
119,5,23,Ticks_Phase_5,90,1,48,44,553177420
119,5,23,Ticks_Phase_5,91,5,42,127,553678104
119,5,23,Ticks_Phase_5,92,1,48,47,553694916
119,5,23,Ticks_Phase_5,93,5,42,127,554177940
119,5,23,Ticks_Phase_5,94,1,48,49,554193780
119,5,23,Ticks_Phase_5,95,5,42,127,554677700
119,5,23,Ticks_Phase_5,96,1,48,46,554708008
119,5,23,Ticks_Phase_5,97,5,42,127,555178288
119,5,23,Ticks_Phase_5,98,1,48,43,555181256
119,5,23,Ticks_Phase_5,99,1,48,44,555675232
119,5,23,Ticks_Phase_5,100,5,42,127,555677968
119,5,23,Ticks_Phase_5,101,1,48,37,556173576
119,5,23,Ticks_Phase_5,102,5,42,127,556177804
119,5,23,Ticks_Phase_5,103,1,48,42,556665100
119,5,23,Ticks_Phase_5,104,5,42,127,556677640
119,5,23,Ticks_Phase_5,105,1,48,47,557174444
119,5,23,Ticks_Phase_5,106,5,42,127,557178228
119,5,23,Ticks_Phase_5,107,1,48,42,557672412
119,5,23,Ticks_Phase_5,108,5,42,127,557677844
119,5,23,Ticks_Phase_5,109,5,42,127,558177760
119,5,23,Ticks_Phase_5,110,1,48,45,558180880
119,5,23,Ticks_Phase_5,111,5,42,127,558678496
119,5,23,Ticks_Phase_5,112,1,48,46,558693892
119,5,23,Ticks_Phase_5,113,5,42,127,559178032
119,5,23,Ticks_Phase_5,114,1,48,42,559179744
119,5,23,Ticks_Phase_5,115,5,42,127,559677796
119,5,23,Ticks_Phase_5,116,1,48,46,559694988
119,5,23,Ticks_Phase_5,117,5,42,127,560177412
119,5,23,Ticks_Phase_5,118,1,48,49,560204780
119,5,23,Ticks_Phase_5,119,5,42,127,560678372
119,5,23,Ticks_Phase_5,120,1,48,48,560692944
119,5,23,Ticks_Phase_5,121,5,42,127,561177960
119,5,23,Ticks_Phase_5,122,1,48,46,561192556
119,5,23,Ticks_Phase_5,123,1,48,42,561696348
119,5,23,Ticks_Phase_5,124,5,42,127,561698084
119,5,23,Ticks_Phase_5,125,5,42,127,562198004
119,5,23,Ticks_Phase_5,126,1,48,45,562215972
119,5,23,Ticks_Phase_5,127,1,48,54,562697092
119,5,23,Ticks_Phase_5,128,5,42,127,562698656
119,5,23,Ticks_Phase_5,129,5,42,127,563198428
119,5,23,Ticks_Phase_5,130,1,48,48,563245076
119,5,23,Ticks_Phase_5,131,5,42,127,563697968
119,5,23,Ticks_Phase_5,132,1,48,51,563774120
119,5,23,Ticks_Phase_5,133,5,42,127,564197804
119,5,23,Ticks_Phase_5,134,1,48,54,564220320
119,5,23,Ticks_Phase_5,135,5,42,127,564697568
119,5,23,Ticks_Phase_5,136,1,48,54,564727948
119,5,23,Ticks_Phase_5,137,5,42,127,565198300
119,5,23,Ticks_Phase_5,138,1,48,46,565210408
119,5,23,Ticks_Phase_5,139,1,48,46,565687168
119,5,23,Ticks_Phase_5,140,5,42,127,565697832
119,5,23,Ticks_Phase_5,141,1,48,50,566195636
119,5,23,Ticks_Phase_5,142,5,42,127,566197520
119,5,23,Ticks_Phase_5,143,1,48,55,566684660
119,5,23,Ticks_Phase_5,144,5,42,127,566698328
119,5,23,Ticks_Phase_5,145,5,42,127,567198172
119,5,23,Ticks_Phase_5,146,1,48,46,567220464
119,5,23,Ticks_Phase_5,147,5,42,127,567697712
119,5,23,Ticks_Phase_5,148,1,48,54,567700980
119,5,23,Ticks_Phase_5,149,5,42,127,568197476
119,5,23,Ticks_Phase_5,150,1,48,50,568203436
119,5,23,Ticks_Phase_5,151,5,42,127,568698360
119,5,23,Ticks_Phase_5,152,1,48,50,568724312
119,5,23,Ticks_Phase_5,153,5,42,127,569197824
119,5,23,Ticks_Phase_5,154,1,48,49,569229628
119,5,23,Ticks_Phase_5,155,5,42,127,569697588
119,5,23,Ticks_Phase_5,156,1,48,46,569734400
119,5,23,Ticks_Phase_5,157,5,42,127,570177956
119,5,23,Ticks_Phase_5,158,1,48,49,570218292
119,5,23,Ticks_Phase_5,159,5,42,127,570677640
119,5,23,Ticks_Phase_5,160,1,48,48,570696116
119,5,23,Ticks_Phase_5,161,5,42,127,571178452
119,5,23,Ticks_Phase_5,162,1,48,43,571193248
119,5,23,Ticks_Phase_5,163,5,42,127,571678264
119,5,23,Ticks_Phase_5,164,1,48,44,571693388
119,5,23,Ticks_Phase_5,165,5,42,127,572177728
119,5,23,Ticks_Phase_5,166,1,48,41,572204904
119,5,23,Ticks_Phase_5,167,5,42,127,572677568
119,5,23,Ticks_Phase_5,168,1,48,51,572698960
119,5,23,Ticks_Phase_5,169,5,42,127,573178376
119,5,23,Ticks_Phase_5,170,1,48,47,573196028
119,5,23,Ticks_Phase_5,171,1,48,53,573676324
119,5,23,Ticks_Phase_5,172,5,42,127,573677908
119,5,23,Ticks_Phase_5,173,5,42,127,574177532
119,5,23,Ticks_Phase_5,174,1,48,47,574193152
119,5,23,Ticks_Phase_5,175,5,42,127,574678340
119,5,23,Ticks_Phase_5,176,1,48,49,574685732
119,5,23,Ticks_Phase_5,177,5,42,127,575178252
119,5,23,Ticks_Phase_5,178,1,48,51,575189388
119,5,23,Ticks_Phase_5,179,5,42,127,575677940
119,5,23,Ticks_Phase_5,180,1,48,39,575695880
119,5,23,Ticks_Phase_5,181,5,42,127,576177480
119,5,23,Ticks_Phase_5,182,1,48,45,576206212
119,5,23,Ticks_Phase_5,183,1,48,42,576670312
119,5,23,Ticks_Phase_5,184,5,42,127,576678356
119,5,23,Ticks_Phase_5,185,5,42,127,577178200
119,5,23,Ticks_Phase_5,186,1,48,41,577191652
119,5,23,Ticks_Phase_5,187,5,42,127,577677664
119,5,23,Ticks_Phase_5,188,1,48,40,577678632
119,5,23,Ticks_Phase_5,189,5,42,127,578128304
119,5,23,Ticks_Phase_5,190,1,48,46,578172832
119,5,23,Ticks_Phase_5,191,5,42,127,578627916
119,5,23,Ticks_Phase_5,192,1,48,35,578671024
119,5,23,Ticks_Phase_5,193,5,42,127,579127756
119,5,23,Ticks_Phase_5,194,1,48,42,579148924
119,5,23,Ticks_Phase_5,195,5,42,127,579628340
119,5,23,Ticks_Phase_5,196,1,48,42,579629604
119,5,23,Ticks_Phase_5,197,5,42,127,580128228
119,5,23,Ticks_Phase_5,198,1,48,39,580136996
119,5,23,Ticks_Phase_5,199,5,42,127,580627768
119,5,23,Ticks_Phase_5,200,1,48,42,580649928
119,5,23,Ticks_Phase_5,201,5,42,127,581127604
119,5,23,Ticks_Phase_5,202,1,48,37,581150564
119,5,23,Ticks_Phase_5,203,5,42,127,581628340
119,5,23,Ticks_Phase_5,204,1,48,36,581650556
119,5,23,Ticks_Phase_5,205,5,42,127,582128248
119,5,23,Ticks_Phase_5,206,1,48,42,582146132
119,5,23,Ticks_Phase_5,207,5,42,127,582627640
119,5,23,Ticks_Phase_5,208,1,48,43,582666340
119,5,23,Ticks_Phase_5,209,5,42,127,583128376
119,5,23,Ticks_Phase_5,210,1,48,40,583150588
119,5,23,Ticks_Phase_5,211,5,42,127,583638468
119,5,23,Ticks_Phase_5,212,1,48,41,583651772
119,5,23,Ticks_Phase_5,213,5,42,127,584138308
119,5,23,Ticks_Phase_5,214,1,48,39,584145016
119,5,23,Ticks_Phase_5,215,5,42,127,584637772
119,5,23,Ticks_Phase_5,216,1,48,39,584641412
119,5,23,Ticks_Phase_5,217,5,42,127,585137532
119,5,23,Ticks_Phase_5,218,1,48,43,585151280
119,5,23,Ticks_Phase_5,219,5,42,127,585638192
119,5,23,Ticks_Phase_5,220,1,48,39,585649180
119,5,23,Ticks_Phase_5,221,5,42,127,586138256
119,5,23,Ticks_Phase_5,222,1,48,43,586153428
119,5,23,Ticks_Phase_5,223,1,48,44,586664040
119,5,23,Ticks_Phase_5,224,5,42,127,586688036
119,5,23,Ticks_Phase_5,225,1,48,42,587181556
119,5,23,Ticks_Phase_5,226,5,42,127,587187428
119,5,23,Ticks_Phase_5,227,5,42,127,587688244
119,5,23,Ticks_Phase_5,228,1,48,43,587712852
119,5,23,Ticks_Phase_5,229,1,48,40,588175916
119,5,23,Ticks_Phase_5,230,5,42,127,588188224
119,5,23,Ticks_Phase_5,231,5,42,127,588687620
119,5,23,Ticks_Phase_5,232,1,48,42,588698156
119,5,23,Ticks_Phase_5,233,5,42,127,589187384
119,5,23,Ticks_Phase_5,234,1,48,44,589189092
119,5,23,Ticks_Phase_5,235,5,42,127,589688268
119,5,23,Ticks_Phase_5,236,1,48,45,589693628
119,5,23,Ticks_Phase_5,237,5,42,127,590188180
119,5,23,Ticks_Phase_5,238,1,48,47,590213012
119,5,23,Ticks_Phase_5,239,5,42,127,590687568
119,5,23,Ticks_Phase_5,240,1,48,45,590699604
119,5,23,Ticks_Phase_5,241,5,42,127,591188304
119,5,23,Ticks_Phase_5,242,1,48,41,591199440
119,5,23,Ticks_Phase_5,243,5,42,127,591687920
119,5,23,Ticks_Phase_5,244,1,48,44,591717404
119,5,23,Ticks_Phase_5,245,5,42,127,592187756
119,5,23,Ticks_Phase_5,246,1,48,41,592213040
119,5,23,Ticks_Phase_5,247,1,48,48,592685248
119,5,23,Ticks_Phase_5,248,5,42,127,592687364
119,5,23,Ticks_Phase_5,249,5,42,127,593188104
119,5,23,Ticks_Phase_5,250,1,48,43,593205068
119,5,23,Ticks_Phase_5,251,5,42,127,593687916
119,5,23,Ticks_Phase_5,252,1,48,44,593697856
119,5,23,Ticks_Phase_5,253,5,42,127,594187756
119,5,23,Ticks_Phase_5,254,1,48,47,594196720
119,5,23,Ticks_Phase_5,255,5,42,127,594688264
119,5,23,Ticks_Phase_5,256,1,48,44,594702912
119,5,23,Ticks_Phase_5,257,1,48,42,595214496
119,5,23,Ticks_Phase_5,258,5,42,127,595288544
119,5,23,Ticks_Phase_5,259,1,48,43,595725876
119,5,23,Ticks_Phase_5,260,5,42,127,595798344
119,5,23,Ticks_Phase_5,261,1,48,30,596253112
119,5,23,Ticks_Phase_5,262,5,42,127,596297956
119,5,23,Ticks_Phase_5,263,5,42,127,596797948
119,5,23,Ticks_Phase_5,264,1,48,45,596822704
119,5,23,Ticks_Phase_5,265,5,42,127,597297636
119,5,23,Ticks_Phase_5,266,1,48,29,597353548
119,5,23,Ticks_Phase_5,267,5,42,127,597798296
119,5,23,Ticks_Phase_5,268,1,48,43,597832940
119,5,23,Ticks_Phase_5,269,5,42,127,598297960
119,5,23,Ticks_Phase_5,270,1,48,39,598313676
119,5,23,Ticks_Phase_5,271,5,42,127,598797648
119,5,23,Ticks_Phase_5,272,1,48,44,598814388
119,5,23,Ticks_Phase_5,273,5,42,127,599298380
119,5,23,Ticks_Phase_5,274,1,48,45,599307496
119,5,23,Ticks_Phase_5,275,1,48,45,599783652
119,5,23,Ticks_Phase_5,276,5,42,127,599808324
119,5,23,Ticks_Phase_5,277,1,48,50,600275916
119,5,23,Ticks_Phase_5,278,5,42,127,600308012
119,5,23,Ticks_Phase_5,279,1,48,48,600792464
119,5,23,Ticks_Phase_5,280,5,42,127,600807920
119,5,23,Ticks_Phase_5,281,1,48,51,601299048
119,5,23,Ticks_Phase_5,282,5,42,127,601307464
119,5,23,Ticks_Phase_5,283,1,48,48,601806008
119,5,23,Ticks_Phase_5,284,5,42,127,601808124
119,5,23,Ticks_Phase_5,285,5,42,127,602307968
119,5,23,Ticks_Phase_5,286,1,48,44,602315884
119,5,23,Ticks_Phase_5,287,1,48,47,602807276
119,5,23,Ticks_Phase_5,288,5,42,127,602808844
119,5,23,Ticks_Phase_5,289,1,48,46,603295240
119,5,23,Ticks_Phase_5,290,5,42,127,603308308
119,5,23,Ticks_Phase_5,291,5,42,127,603808152
119,5,23,Ticks_Phase_5,292,1,48,41,603826632
119,5,23,Ticks_Phase_5,293,5,42,127,604307920
119,5,23,Ticks_Phase_5,294,1,48,45,604321444
119,5,23,Ticks_Phase_5,295,5,42,127,604708160
119,5,23,Ticks_Phase_5,296,1,48,47,604828476
119,5,23,Ticks_Phase_5,297,5,42,127,605207820
119,5,23,Ticks_Phase_5,298,1,48,42,605312508
119,5,23,Ticks_Phase_5,299,5,42,127,605707808
119,5,23,Ticks_Phase_5,300,1,48,46,605742400
119,5,23,Ticks_Phase_5,301,5,42,127,606208320
119,5,23,Ticks_Phase_5,302,1,48,47,606228436
119,5,23,Ticks_Phase_5,303,5,42,127,606708080
119,5,23,Ticks_Phase_5,304,1,48,46,606715984
119,5,23,Ticks_Phase_5,305,5,42,127,607207768
119,5,23,Ticks_Phase_5,306,1,48,42,607234988
119,5,23,Ticks_Phase_5,307,5,42,127,607707604
119,5,23,Ticks_Phase_5,308,1,48,42,607719564
119,5,23,Ticks_Phase_5,309,5,42,127,608208264
119,5,23,Ticks_Phase_5,310,1,48,37,608237900
119,5,23,Ticks_Phase_5,311,5,42,127,608707952
119,5,23,Ticks_Phase_5,312,1,48,41,608717292
119,5,23,Ticks_Phase_5,313,5,42,127,609207640
119,5,23,Ticks_Phase_5,314,1,48,40,609212852
119,5,23,Ticks_Phase_5,315,5,42,127,609708376
119,5,23,Ticks_Phase_5,316,1,48,40,609711716
119,5,23,Ticks_Phase_5,317,5,42,127,610208064
119,5,23,Ticks_Phase_5,318,1,48,43,610218824
119,5,23,Ticks_Phase_5,319,5,42,127,610707828
119,5,23,Ticks_Phase_5,320,1,48,44,610725764
119,5,23,Ticks_Phase_5,321,5,42,127,611207740
119,5,23,Ticks_Phase_5,322,1,48,44,611240664
119,5,23,Ticks_Phase_5,323,5,42,127,611708180
119,5,23,Ticks_Phase_5,324,1,48,47,611736536
119,5,23,Ticks_Phase_5,325,5,42,127,612207940
119,5,23,Ticks_Phase_5,326,1,48,44,612250596
119,5,23,Ticks_Phase_5,327,5,42,127,612707704
119,5,23,Ticks_Phase_5,328,1,48,43,612745724
119,5,23,Ticks_Phase_5,329,5,42,127,613208364
119,5,23,Ticks_Phase_5,330,1,48,46,613284268
119,5,23,Ticks_Phase_5,331,5,42,127,613718236
119,5,23,Ticks_Phase_5,332,1,48,44,613762540
119,5,23,Ticks_Phase_5,333,5,42,127,614218076
119,5,23,Ticks_Phase_5,0,9999,9999,9999,529645668
119,5,23,Ticks_Phase_5,1,9999,9999,9999,530145380
119,5,23,Ticks_Phase_5,2,9999,9999,9999,530646140
119,5,23,Ticks_Phase_5,3,9999,9999,9999,531156032
119,5,23,Ticks_Phase_5,4,9999,9999,9999,531655740
119,5,23,Ticks_Phase_5,5,9999,9999,9999,532155504
119,5,23,Ticks_Phase_5,6,9999,9999,9999,532655192
119,5,23,Ticks_Phase_5,7,9999,9999,9999,533155924
119,5,23,Ticks_Phase_5,8,9999,9999,9999,533655636
119,5,23,Ticks_Phase_5,9,9999,9999,9999,534155324
119,5,23,Ticks_Phase_5,10,9999,9999,9999,534656060
119,5,23,Ticks_Phase_5,11,9999,9999,9999,535166072
119,5,23,Ticks_Phase_5,12,9999,9999,9999,535665760
119,5,23,Ticks_Phase_5,13,9999,9999,9999,536165448
119,5,23,Ticks_Phase_5,14,9999,9999,9999,536665144
119,5,23,Ticks_Phase_5,15,9999,9999,9999,537165944
119,5,23,Ticks_Phase_5,16,9999,9999,9999,537665636
119,5,23,Ticks_Phase_5,17,9999,9999,9999,538165332
119,5,23,Ticks_Phase_5,18,9999,9999,9999,538666056
119,5,23,Ticks_Phase_5,19,9999,9999,9999,539165800
119,5,23,Ticks_Phase_5,20,9999,9999,9999,539665488
119,5,23,Ticks_Phase_5,21,9999,9999,9999,540165180
119,5,23,Ticks_Phase_5,22,9999,9999,9999,540665916
119,5,23,Ticks_Phase_5,23,9999,9999,9999,541165676
119,5,23,Ticks_Phase_5,24,9999,9999,9999,541665364
119,5,23,Ticks_Phase_5,25,9999,9999,9999,542166104
119,5,23,Ticks_Phase_5,26,9999,9999,9999,542676044
119,5,23,Ticks_Phase_5,27,9999,9999,9999,543175736
119,5,23,Ticks_Phase_5,28,9999,9999,9999,543675496
119,5,23,Ticks_Phase_5,29,9999,9999,9999,544175184
119,5,23,Ticks_Phase_5,30,9999,9999,9999,544665660
119,5,23,Ticks_Phase_5,31,9999,9999,9999,545165424
119,5,23,Ticks_Phase_5,32,9999,9999,9999,545665112
119,5,23,Ticks_Phase_5,33,9999,9999,9999,546165848
119,5,23,Ticks_Phase_5,34,9999,9999,9999,546665536
119,5,23,Ticks_Phase_5,35,9999,9999,9999,547165300
119,5,23,Ticks_Phase_5,36,9999,9999,9999,547666032
119,5,23,Ticks_Phase_5,37,9999,9999,9999,548165720
119,5,23,Ticks_Phase_5,38,9999,9999,9999,548665404
119,5,23,Ticks_Phase_5,39,9999,9999,9999,549165164
119,5,23,Ticks_Phase_5,40,9999,9999,9999,549665876
119,5,23,Ticks_Phase_5,41,9999,9999,9999,550165568
119,5,23,Ticks_Phase_5,42,9999,9999,9999,550665332
119,5,23,Ticks_Phase_5,43,9999,9999,9999,551166060
119,5,23,Ticks_Phase_5,44,9999,9999,9999,551665756
119,5,23,Ticks_Phase_5,45,9999,9999,9999,552165444
119,5,23,Ticks_Phase_5,46,9999,9999,9999,552665200
119,5,23,Ticks_Phase_5,47,9999,9999,9999,553165940
119,5,23,Ticks_Phase_5,48,9999,9999,9999,553675888
119,5,23,Ticks_Phase_5,49,9999,9999,9999,554175576
119,5,23,Ticks_Phase_5,50,9999,9999,9999,554675264
119,5,23,Ticks_Phase_5,51,9999,9999,9999,555175996
119,5,23,Ticks_Phase_5,52,9999,9999,9999,555675752
119,5,23,Ticks_Phase_5,53,9999,9999,9999,556175440
119,5,23,Ticks_Phase_5,54,9999,9999,9999,556675128
119,5,23,Ticks_Phase_5,55,9999,9999,9999,557175864
119,5,23,Ticks_Phase_5,56,9999,9999,9999,557675628
119,5,23,Ticks_Phase_5,57,9999,9999,9999,558175324
119,5,23,Ticks_Phase_5,58,9999,9999,9999,558676056
119,5,23,Ticks_Phase_5,59,9999,9999,9999,559175744
119,5,23,Ticks_Phase_5,60,9999,9999,9999,559675508
119,5,23,Ticks_Phase_5,61,9999,9999,9999,560175196
119,5,23,Ticks_Phase_5,62,9999,9999,9999,560675908
119,5,23,Ticks_Phase_5,63,9999,9999,9999,561175668
119,5,23,Ticks_Phase_5,64,9999,9999,9999,561695820
119,5,23,Ticks_Phase_5,65,9999,9999,9999,562195568
119,5,23,Ticks_Phase_5,66,9999,9999,9999,562695252
119,5,23,Ticks_Phase_5,67,9999,9999,9999,563195988
119,5,23,Ticks_Phase_5,68,9999,9999,9999,563695676
119,5,23,Ticks_Phase_5,69,9999,9999,9999,564195440
119,5,23,Ticks_Phase_5,70,9999,9999,9999,564695128
119,5,23,Ticks_Phase_5,71,9999,9999,9999,565195860
119,5,23,Ticks_Phase_5,72,9999,9999,9999,565695544
119,5,23,Ticks_Phase_5,73,9999,9999,9999,566195264
119,5,23,Ticks_Phase_5,74,9999,9999,9999,566696040
119,5,23,Ticks_Phase_5,75,9999,9999,9999,567195736
119,5,23,Ticks_Phase_5,76,9999,9999,9999,567695424
119,5,23,Ticks_Phase_5,77,9999,9999,9999,568195188
119,5,23,Ticks_Phase_5,78,9999,9999,9999,568695920
119,5,23,Ticks_Phase_5,79,9999,9999,9999,569195608
119,5,23,Ticks_Phase_5,80,9999,9999,9999,569695296
119,5,23,Ticks_Phase_5,81,9999,9999,9999,570175592
119,5,23,Ticks_Phase_5,82,9999,9999,9999,570675280
119,5,23,Ticks_Phase_5,83,9999,9999,9999,571176012
119,5,23,Ticks_Phase_5,84,9999,9999,9999,571675752
119,5,23,Ticks_Phase_5,85,9999,9999,9999,572175440
119,5,23,Ticks_Phase_5,86,9999,9999,9999,572675128
119,5,23,Ticks_Phase_5,87,9999,9999,9999,573175864
119,5,23,Ticks_Phase_5,88,9999,9999,9999,573675624
119,5,23,Ticks_Phase_5,89,9999,9999,9999,574175316
119,5,23,Ticks_Phase_5,90,9999,9999,9999,574676048
119,5,23,Ticks_Phase_5,91,9999,9999,9999,575175740
119,5,23,Ticks_Phase_5,92,9999,9999,9999,575675504
119,5,23,Ticks_Phase_5,93,9999,9999,9999,576175188
119,5,23,Ticks_Phase_5,94,9999,9999,9999,576675920
119,5,23,Ticks_Phase_5,95,9999,9999,9999,577175612
119,5,23,Ticks_Phase_5,96,9999,9999,9999,577675376
119,5,23,Ticks_Phase_5,97,9999,9999,9999,578125940
119,5,23,Ticks_Phase_5,98,9999,9999,9999,578625628
119,5,23,Ticks_Phase_5,99,9999,9999,9999,579125316
119,5,23,Ticks_Phase_5,100,9999,9999,9999,579626048
119,5,23,Ticks_Phase_5,101,9999,9999,9999,580125788
119,5,23,Ticks_Phase_5,102,9999,9999,9999,580625480
119,5,23,Ticks_Phase_5,103,9999,9999,9999,581125240
119,5,23,Ticks_Phase_5,104,9999,9999,9999,581625976
119,5,23,Ticks_Phase_5,105,9999,9999,9999,582125664
119,5,23,Ticks_Phase_5,106,9999,9999,9999,582625352
119,5,23,Ticks_Phase_5,107,9999,9999,9999,583126088
119,5,23,Ticks_Phase_5,108,9999,9999,9999,583636032
119,5,23,Ticks_Phase_5,109,9999,9999,9999,584135796
119,5,23,Ticks_Phase_5,110,9999,9999,9999,584635484
119,5,23,Ticks_Phase_5,111,9999,9999,9999,585135168
119,5,23,Ticks_Phase_5,112,9999,9999,9999,585635904
119,5,23,Ticks_Phase_5,113,9999,9999,9999,586135668
119,5,23,Ticks_Phase_5,114,9999,9999,9999,586685524
119,5,23,Ticks_Phase_5,115,9999,9999,9999,587185216
119,5,23,Ticks_Phase_5,116,9999,9999,9999,587685956
119,5,23,Ticks_Phase_5,117,9999,9999,9999,588185712
119,5,23,Ticks_Phase_5,118,9999,9999,9999,588685404
119,5,23,Ticks_Phase_5,119,9999,9999,9999,589185092
119,5,23,Ticks_Phase_5,120,9999,9999,9999,589685828
119,5,23,Ticks_Phase_5,121,9999,9999,9999,590185592
119,5,23,Ticks_Phase_5,122,9999,9999,9999,590685280
119,5,23,Ticks_Phase_5,123,9999,9999,9999,591186016
119,5,23,Ticks_Phase_5,124,9999,9999,9999,591685704
119,5,23,Ticks_Phase_5,125,9999,9999,9999,592185464
119,5,23,Ticks_Phase_5,126,9999,9999,9999,592685120
119,5,23,Ticks_Phase_5,127,9999,9999,9999,593185864
119,5,23,Ticks_Phase_5,128,9999,9999,9999,593685628
119,5,23,Ticks_Phase_5,129,9999,9999,9999,594185316
119,5,23,Ticks_Phase_5,130,9999,9999,9999,594686048
119,5,23,Ticks_Phase_5,131,9999,9999,9999,595286108
119,5,23,Ticks_Phase_5,132,9999,9999,9999,595796052
119,5,23,Ticks_Phase_5,133,9999,9999,9999,596295740
119,5,23,Ticks_Phase_5,134,9999,9999,9999,596795508
119,5,23,Ticks_Phase_5,135,9999,9999,9999,597295196
119,5,23,Ticks_Phase_5,136,9999,9999,9999,597795932
119,5,23,Ticks_Phase_5,137,9999,9999,9999,598295668
119,5,23,Ticks_Phase_5,138,9999,9999,9999,598795356
119,5,23,Ticks_Phase_5,139,9999,9999,9999,599296096
119,5,23,Ticks_Phase_5,140,9999,9999,9999,599806032
119,5,23,Ticks_Phase_5,141,9999,9999,9999,600305720
119,5,23,Ticks_Phase_5,142,9999,9999,9999,600805484
119,5,23,Ticks_Phase_5,143,9999,9999,9999,601305176
119,5,23,Ticks_Phase_5,144,9999,9999,9999,601805880
119,5,23,Ticks_Phase_5,145,9999,9999,9999,602305604
119,5,23,Ticks_Phase_5,146,9999,9999,9999,602805364
119,5,23,Ticks_Phase_5,147,9999,9999,9999,603306092
119,5,23,Ticks_Phase_5,148,9999,9999,9999,603805788
119,5,23,Ticks_Phase_5,149,9999,9999,9999,604305480
119,5,23,Ticks_Phase_5,150,9999,9999,9999,604705920
119,5,23,Ticks_Phase_5,151,9999,9999,9999,605205608
119,5,23,Ticks_Phase_5,152,9999,9999,9999,605705296
119,5,23,Ticks_Phase_5,153,9999,9999,9999,606206028
119,5,23,Ticks_Phase_5,154,9999,9999,9999,606705792
119,5,23,Ticks_Phase_5,155,9999,9999,9999,607205480
119,5,23,Ticks_Phase_5,156,9999,9999,9999,607705168
119,5,23,Ticks_Phase_5,157,9999,9999,9999,608205900
119,5,23,Ticks_Phase_5,158,9999,9999,9999,608705588
119,5,23,Ticks_Phase_5,159,9999,9999,9999,609205352
119,5,23,Ticks_Phase_5,160,9999,9999,9999,609706088
119,5,23,Ticks_Phase_5,161,9999,9999,9999,610205776
119,5,23,Ticks_Phase_5,162,9999,9999,9999,610705464
119,5,23,Ticks_Phase_5,163,9999,9999,9999,611205228
119,5,23,Ticks_Phase_5,164,9999,9999,9999,611705964
119,5,23,Ticks_Phase_5,165,9999,9999,9999,612205652
119,5,23,Ticks_Phase_5,166,9999,9999,9999,612705340
119,5,23,Ticks_Phase_5,167,9999,9999,9999,613206076
119,5,23,Ticks_Phase_5,168,9999,9999,9999,613716024
119,5,23,Ticks_Phase_5,169,9999,9999,9999,614215788
119,6,22,Ticks_Phase_8,0,5,42,127,624911784
119,6,22,Ticks_Phase_8,1,5,42,127,625711620
119,6,22,Ticks_Phase_8,2,1,48,54,626452660
119,6,22,Ticks_Phase_8,3,5,42,127,626512316
119,6,22,Ticks_Phase_8,4,1,48,58,627298592
119,6,22,Ticks_Phase_8,5,5,42,127,627311956
119,6,22,Ticks_Phase_8,6,1,48,59,628112048
119,6,22,Ticks_Phase_8,7,5,42,127,628113388
119,6,22,Ticks_Phase_8,8,5,42,127,628911688
119,6,22,Ticks_Phase_8,9,1,48,52,628918996
119,6,22,Ticks_Phase_8,10,1,48,54,629692344
119,6,22,Ticks_Phase_8,11,5,42,127,629712292
119,6,22,Ticks_Phase_8,12,1,48,59,630465992
119,6,22,Ticks_Phase_8,13,5,42,127,630512076
119,6,22,Ticks_Phase_8,14,1,48,59,631268096
119,6,22,Ticks_Phase_8,15,5,42,127,631311716
119,6,22,Ticks_Phase_8,16,1,48,56,632066092
119,6,22,Ticks_Phase_8,17,5,42,127,632111824
119,6,22,Ticks_Phase_8,18,1,48,58,632856964
119,6,22,Ticks_Phase_8,19,5,42,127,632912360
119,6,22,Ticks_Phase_8,20,1,48,57,633664192
119,6,22,Ticks_Phase_8,21,5,42,127,633712000
119,6,22,Ticks_Phase_8,22,1,48,56,634490344
119,6,22,Ticks_Phase_8,23,5,42,127,634511712
119,6,22,Ticks_Phase_8,24,5,42,127,635311728
119,6,22,Ticks_Phase_8,25,1,48,54,635317092
119,6,22,Ticks_Phase_8,26,1,48,47,636105484
119,6,22,Ticks_Phase_8,27,5,42,127,636112260
119,6,22,Ticks_Phase_8,28,1,48,55,636905272
119,6,22,Ticks_Phase_8,29,5,42,127,636911972
119,6,22,Ticks_Phase_8,30,5,42,127,637711688
119,6,22,Ticks_Phase_8,31,1,48,49,637716448
119,6,22,Ticks_Phase_8,32,1,48,48,638511048
119,6,22,Ticks_Phase_8,33,5,42,127,638512612
119,6,22,Ticks_Phase_8,34,1,48,51,639283392
119,6,22,Ticks_Phase_8,35,5,42,127,639312324
119,6,22,Ticks_Phase_8,36,1,48,51,640070828
119,6,22,Ticks_Phase_8,37,5,42,127,640111888
119,6,22,Ticks_Phase_8,38,1,48,51,640885280
119,6,22,Ticks_Phase_8,39,5,42,127,640911676
119,6,22,Ticks_Phase_8,40,5,42,127,641711468
119,6,22,Ticks_Phase_8,41,1,48,50,641714884
119,6,22,Ticks_Phase_8,42,1,48,50,642503352
119,6,22,Ticks_Phase_8,43,5,42,127,642512220
119,6,22,Ticks_Phase_8,44,5,42,127,643311940
119,6,22,Ticks_Phase_8,45,1,48,48,643334676
119,6,22,Ticks_Phase_8,46,5,42,127,644111800
119,6,22,Ticks_Phase_8,47,1,48,51,644114992
119,6,22,Ticks_Phase_8,48,1,48,48,644894544
119,6,22,Ticks_Phase_8,49,5,42,127,644911600
119,6,22,Ticks_Phase_8,50,1,48,46,645668592
119,6,22,Ticks_Phase_8,51,5,42,127,645712512
119,6,22,Ticks_Phase_8,52,1,48,43,646475344
119,6,22,Ticks_Phase_8,53,5,42,127,646511996
119,6,22,Ticks_Phase_8,54,1,48,43,647281280
119,6,22,Ticks_Phase_8,55,5,42,127,647311784
119,6,22,Ticks_Phase_8,56,1,48,40,648097088
119,6,22,Ticks_Phase_8,57,5,42,127,648111572
119,6,22,Ticks_Phase_8,58,1,48,42,648858304
119,6,22,Ticks_Phase_8,59,5,42,127,648891740
119,6,22,Ticks_Phase_8,60,1,48,41,649663264
119,6,22,Ticks_Phase_8,61,5,42,127,649691600
119,6,22,Ticks_Phase_8,62,1,48,42,650468136
119,6,22,Ticks_Phase_8,63,5,42,127,650492432
119,6,22,Ticks_Phase_8,64,5,42,127,651292300
119,6,22,Ticks_Phase_8,65,1,48,43,651314396
119,6,22,Ticks_Phase_8,66,1,48,42,652074404
119,6,22,Ticks_Phase_8,67,5,42,127,652091736
119,6,22,Ticks_Phase_8,68,1,48,43,652878232
119,6,22,Ticks_Phase_8,69,5,42,127,652891592
119,6,22,Ticks_Phase_8,70,5,42,127,653692208
119,6,22,Ticks_Phase_8,71,1,48,40,653701624
119,6,22,Ticks_Phase_8,72,1,48,35,654481252
119,6,22,Ticks_Phase_8,73,5,42,127,654492284
119,6,22,Ticks_Phase_8,74,1,48,45,655277884
119,6,22,Ticks_Phase_8,75,5,42,127,655291776
119,6,22,Ticks_Phase_8,76,5,42,127,656091568
119,6,22,Ticks_Phase_8,77,1,48,43,656095732
119,6,22,Ticks_Phase_8,78,5,42,127,656892176
119,6,22,Ticks_Phase_8,79,1,48,44,656900988
119,6,22,Ticks_Phase_8,80,5,42,127,657692112
119,6,22,Ticks_Phase_8,81,1,48,44,657742212
119,6,22,Ticks_Phase_8,82,5,42,127,658492144
119,6,22,Ticks_Phase_8,83,1,48,40,658504476
119,6,22,Ticks_Phase_8,84,5,42,127,659291412
119,6,22,Ticks_Phase_8,85,1,48,41,659307780
119,6,22,Ticks_Phase_8,86,5,42,127,660092244
119,6,22,Ticks_Phase_8,87,1,48,38,660107940
119,6,22,Ticks_Phase_8,88,5,42,127,660892104
119,6,22,Ticks_Phase_8,89,1,48,46,660899336
119,6,22,Ticks_Phase_8,90,1,48,44,661676052
119,6,22,Ticks_Phase_8,91,5,42,127,661691736
119,6,22,Ticks_Phase_8,92,1,48,36,662489480
119,6,22,Ticks_Phase_8,93,5,42,127,662491444
119,6,22,Ticks_Phase_8,94,1,48,43,663287528
119,6,22,Ticks_Phase_8,95,5,42,127,663311904
119,6,22,Ticks_Phase_8,96,1,48,35,664074740
119,6,22,Ticks_Phase_8,97,5,42,127,664111416
119,6,22,Ticks_Phase_8,98,1,48,37,664882492
119,6,22,Ticks_Phase_8,99,5,42,127,664912172
119,6,22,Ticks_Phase_8,100,1,48,41,665709080
119,6,22,Ticks_Phase_8,101,5,42,127,665712108
119,6,22,Ticks_Phase_8,102,5,42,127,666511680
119,6,22,Ticks_Phase_8,103,1,48,38,666529172
119,6,22,Ticks_Phase_8,104,5,42,127,667311540
119,6,22,Ticks_Phase_8,105,1,48,43,667316904
119,6,22,Ticks_Phase_8,106,1,48,48,668104176
119,6,22,Ticks_Phase_8,107,5,42,127,668112144
119,6,22,Ticks_Phase_8,108,1,48,41,668910568
119,6,22,Ticks_Phase_8,109,5,42,127,668912152
119,6,22,Ticks_Phase_8,110,5,42,127,669711944
119,6,22,Ticks_Phase_8,111,1,48,40,669758520
119,6,22,Ticks_Phase_8,112,5,42,127,670511456
119,6,22,Ticks_Phase_8,113,1,48,41,670540868
119,6,22,Ticks_Phase_8,114,5,42,127,671312364
119,6,22,Ticks_Phase_8,115,1,48,41,671321256
119,6,22,Ticks_Phase_8,116,5,42,127,672112000
119,6,22,Ticks_Phase_8,117,1,48,31,672124036
119,6,22,Ticks_Phase_8,118,5,42,127,672911936
119,6,22,Ticks_Phase_8,119,1,48,46,672941420
119,6,22,Ticks_Phase_8,120,5,42,127,673711424
119,6,22,Ticks_Phase_8,121,1,48,36,673736256
119,6,22,Ticks_Phase_8,122,1,48,40,674508620
119,6,22,Ticks_Phase_8,123,5,42,127,674512324
119,6,22,Ticks_Phase_8,124,1,48,44,675290596
119,6,22,Ticks_Phase_8,125,5,42,127,675312036
119,6,22,Ticks_Phase_8,126,1,48,45,676084460
119,6,22,Ticks_Phase_8,127,5,42,127,676151840
119,6,22,Ticks_Phase_8,128,1,48,41,676895328
119,6,22,Ticks_Phase_8,129,5,42,127,676952424
119,6,22,Ticks_Phase_8,130,1,48,45,677701936
119,6,22,Ticks_Phase_8,131,5,42,127,677762320
119,6,22,Ticks_Phase_8,132,1,48,49,678529436
119,6,22,Ticks_Phase_8,133,5,42,127,678572440
119,6,22,Ticks_Phase_8,134,5,42,127,679372232
119,6,22,Ticks_Phase_8,135,1,48,41,679385832
119,6,22,Ticks_Phase_8,136,5,42,127,680171796
119,6,22,Ticks_Phase_8,137,1,48,38,680241068
119,6,22,Ticks_Phase_8,138,5,42,127,680971804
119,6,22,Ticks_Phase_8,139,1,48,35,681015540
119,6,22,Ticks_Phase_8,140,5,42,127,681772516
119,6,22,Ticks_Phase_8,141,1,48,42,681798396
119,6,22,Ticks_Phase_8,142,5,42,127,682572004
119,6,22,Ticks_Phase_8,143,1,48,37,682586580
119,6,22,Ticks_Phase_8,144,5,42,127,683371940
119,6,22,Ticks_Phase_8,145,1,48,38,683387860
119,6,22,Ticks_Phase_8,146,1,48,39,684170896
119,6,22,Ticks_Phase_8,147,5,42,127,684172320
119,6,22,Ticks_Phase_8,148,1,48,40,684969296
119,6,22,Ticks_Phase_8,149,5,42,127,684972328
119,6,22,Ticks_Phase_8,150,1,48,46,685772344
119,6,22,Ticks_Phase_8,151,5,42,127,685773756
119,6,22,Ticks_Phase_8,152,1,48,41,686556668
119,6,22,Ticks_Phase_8,153,5,42,127,686571756
119,6,22,Ticks_Phase_8,154,5,42,127,687371768
119,6,22,Ticks_Phase_8,155,1,48,35,687392216
119,6,22,Ticks_Phase_8,156,5,42,127,688172556
119,6,22,Ticks_Phase_8,157,1,48,40,688204884
119,6,22,Ticks_Phase_8,158,5,42,127,688972044
119,6,22,Ticks_Phase_8,159,1,48,39,688994032
119,6,22,Ticks_Phase_8,160,5,42,127,689731916
119,6,22,Ticks_Phase_8,161,1,48,35,689780948
119,6,22,Ticks_Phase_8,162,5,42,127,690531852
119,6,22,Ticks_Phase_8,163,1,48,33,690574440
119,6,22,Ticks_Phase_8,164,5,42,127,691331416
119,6,22,Ticks_Phase_8,165,1,48,43,691369200
119,6,22,Ticks_Phase_8,166,5,42,127,692132172
119,6,22,Ticks_Phase_8,167,1,48,37,692154468
119,6,22,Ticks_Phase_8,168,5,42,127,692931960
119,6,22,Ticks_Phase_8,169,1,48,42,692944736
119,6,22,Ticks_Phase_8,170,5,42,127,693731820
119,6,22,Ticks_Phase_8,171,1,48,42,693785184
119,6,22,Ticks_Phase_8,172,5,42,127,694531532
119,6,22,Ticks_Phase_8,173,1,48,44,694555992
119,6,22,Ticks_Phase_8,174,5,42,127,695332240
119,6,22,Ticks_Phase_8,175,1,48,38,695345988
119,6,22,Ticks_Phase_8,176,1,48,42,696115736
119,6,22,Ticks_Phase_8,177,5,42,127,696132020
119,6,22,Ticks_Phase_8,178,1,48,46,696916496
119,6,22,Ticks_Phase_8,179,5,42,127,696931656
119,6,22,Ticks_Phase_8,180,1,48,46,697714336
119,6,22,Ticks_Phase_8,181,5,42,127,697731664
119,6,22,Ticks_Phase_8,182,1,48,44,698512180
119,6,22,Ticks_Phase_8,183,5,42,127,698532276
119,6,22,Ticks_Phase_8,184,1,48,44,699289956
119,6,22,Ticks_Phase_8,185,5,42,127,699331840
119,6,22,Ticks_Phase_8,186,1,48,47,700102320
119,6,22,Ticks_Phase_8,187,5,42,127,700131628
119,6,22,Ticks_Phase_8,188,1,48,39,700907792
119,6,22,Ticks_Phase_8,189,5,42,127,700931712
119,6,22,Ticks_Phase_8,190,1,48,48,701726620
119,6,22,Ticks_Phase_8,191,5,42,127,701732276
119,6,22,Ticks_Phase_8,192,5,42,127,702451988
119,6,22,Ticks_Phase_8,193,1,48,34,702519156
119,6,22,Ticks_Phase_8,194,5,42,127,703251852
119,6,22,Ticks_Phase_8,195,1,48,34,703275364
119,6,22,Ticks_Phase_8,196,1,48,27,704038368
119,6,22,Ticks_Phase_8,197,5,42,127,704051732
119,6,22,Ticks_Phase_8,198,1,48,40,704822132
119,6,22,Ticks_Phase_8,199,5,42,127,704852264
119,6,22,Ticks_Phase_8,200,1,48,32,705651304
119,6,22,Ticks_Phase_8,201,5,42,127,705652800
119,6,22,Ticks_Phase_8,202,1,48,34,706442524
119,6,22,Ticks_Phase_8,203,5,42,127,706451688
119,6,22,Ticks_Phase_8,204,1,48,28,707227176
119,6,22,Ticks_Phase_8,205,5,42,127,707251700
119,6,22,Ticks_Phase_8,206,1,48,25,708030940
119,6,22,Ticks_Phase_8,207,5,42,127,708052532
119,6,22,Ticks_Phase_8,208,1,48,29,708833264
119,6,22,Ticks_Phase_8,209,5,42,127,708851944
119,6,22,Ticks_Phase_8,210,1,48,32,709637248
119,6,22,Ticks_Phase_8,211,5,42,127,709651808
119,6,22,Ticks_Phase_8,212,1,48,42,710444100
119,6,22,Ticks_Phase_8,213,5,42,127,710451692
119,6,22,Ticks_Phase_8,214,5,42,127,711252456
119,6,22,Ticks_Phase_8,215,1,48,36,711263368
119,6,22,Ticks_Phase_8,216,5,42,127,712051948
119,6,22,Ticks_Phase_8,217,1,48,34,712084268
119,6,22,Ticks_Phase_8,218,1,48,34,712828848
119,6,22,Ticks_Phase_8,219,5,42,127,712851728
119,6,22,Ticks_Phase_8,220,5,42,127,713651596
119,6,22,Ticks_Phase_8,221,1,48,33,713662356
119,6,22,Ticks_Phase_8,222,5,42,127,714452356
119,6,22,Ticks_Phase_8,223,1,48,29,714467532
119,6,22,Ticks_Phase_8,224,5,42,127,715252292
119,6,22,Ticks_Phase_8,225,1,48,27,715261036
119,6,22,Ticks_Phase_8,226,1,48,44,716079264
119,6,22,Ticks_Phase_8,227,5,42,127,716131556
119,6,22,Ticks_Phase_8,228,1,48,27,716923972
119,6,22,Ticks_Phase_8,229,5,42,127,716931492
119,6,22,Ticks_Phase_8,230,1,48,25,717731428
119,6,22,Ticks_Phase_8,231,5,42,127,717732924
119,6,22,Ticks_Phase_8,232,5,42,127,718531896
119,6,22,Ticks_Phase_8,233,1,48,34,718534864
119,6,22,Ticks_Phase_8,234,5,42,127,719331832
119,6,22,Ticks_Phase_8,235,1,48,24,719354420
119,6,22,Ticks_Phase_8,236,5,42,127,720131392
119,6,22,Ticks_Phase_8,237,1,48,42,720145668
119,6,22,Ticks_Phase_8,238,5,42,127,720932620
119,6,22,Ticks_Phase_8,239,1,48,35,720959104
119,6,22,Ticks_Phase_8,240,5,42,127,721732336
119,6,22,Ticks_Phase_8,241,1,48,27,721764664
119,6,22,Ticks_Phase_8,242,5,42,127,722531748
119,6,22,Ticks_Phase_8,243,1,48,24,722545500
119,6,22,Ticks_Phase_8,244,5,42,127,723331388
119,6,22,Ticks_Phase_8,245,5,42,127,724132168
119,6,22,Ticks_Phase_8,246,1,48,54,724907820
119,6,22,Ticks_Phase_8,247,5,42,127,724931968
119,6,22,Ticks_Phase_8,248,1,48,63,725695104
119,6,22,Ticks_Phase_8,249,5,42,127,725731828
119,6,22,Ticks_Phase_8,250,1,48,47,726518252
119,6,22,Ticks_Phase_8,251,5,42,127,726531540
119,6,22,Ticks_Phase_8,252,5,42,127,727332184
119,6,22,Ticks_Phase_8,253,1,48,49,727336792
119,6,22,Ticks_Phase_8,254,1,48,51,728123624
119,6,22,Ticks_Phase_8,255,5,42,127,728131812
119,6,22,Ticks_Phase_8,256,1,48,45,728917264
119,6,22,Ticks_Phase_8,257,5,42,127,728931600
119,6,22,Ticks_Phase_8,258,1,48,45,729726264
119,6,22,Ticks_Phase_8,259,5,42,127,729892328
119,6,22,Ticks_Phase_8,260,1,48,50,730583492
119,6,22,Ticks_Phase_8,261,5,42,127,730692192
119,6,22,Ticks_Phase_8,262,5,42,127,731491776
119,6,22,Ticks_Phase_8,263,1,48,51,731495264
119,6,22,Ticks_Phase_8,264,5,42,127,732291412
119,6,22,Ticks_Phase_8,265,1,48,50,732331308
119,6,22,Ticks_Phase_8,266,1,48,41,733064280
119,6,22,Ticks_Phase_8,267,5,42,127,733092240
119,6,22,Ticks_Phase_8,268,1,48,48,733866012
119,6,22,Ticks_Phase_8,269,5,42,127,733892176
119,6,22,Ticks_Phase_8,270,1,48,52,734683772
119,6,22,Ticks_Phase_8,271,5,42,127,734692112
119,6,22,Ticks_Phase_8,272,5,42,127,735491532
119,6,22,Ticks_Phase_8,273,1,48,51,735495772
119,6,22,Ticks_Phase_8,274,1,48,51,736288456
119,6,22,Ticks_Phase_8,275,5,42,127,736292236
119,6,22,Ticks_Phase_8,276,5,42,127,737092028
119,6,22,Ticks_Phase_8,277,1,48,50,737107724
119,6,22,Ticks_Phase_8,278,5,42,127,737891664
119,6,22,Ticks_Phase_8,279,1,48,49,737901152
119,6,22,Ticks_Phase_8,280,5,42,127,738691376
119,6,22,Ticks_Phase_8,281,1,48,59,738735004
119,6,22,Ticks_Phase_8,282,1,48,42,739487828
119,6,22,Ticks_Phase_8,283,5,42,127,739492276
119,6,22,Ticks_Phase_8,284,5,42,127,740292068
119,6,22,Ticks_Phase_8,285,1,48,49,740295788
119,6,22,Ticks_Phase_8,286,5,42,127,741091784
119,6,22,Ticks_Phase_8,287,1,48,49,741108452
119,6,22,Ticks_Phase_8,288,5,42,127,741891492
119,6,22,Ticks_Phase_8,289,1,48,45,741896104
119,6,22,Ticks_Phase_8,290,5,42,127,742692204
119,6,22,Ticks_Phase_8,291,1,48,44,742709020
119,6,22,Ticks_Phase_8,292,5,42,127,743492060
119,6,22,Ticks_Phase_8,293,1,48,48,743498924
119,6,22,Ticks_Phase_8,294,5,42,127,744291700
119,6,22,Ticks_Phase_8,295,1,48,51,744293712
119,6,22,Ticks_Phase_8,296,5,42,127,744931652
119,6,22,Ticks_Phase_8,297,1,48,45,745105012
119,6,22,Ticks_Phase_8,298,5,42,127,745731364
119,6,22,Ticks_Phase_8,299,1,48,51,746523196
119,6,22,Ticks_Phase_8,300,5,42,127,746532164
119,6,22,Ticks_Phase_8,301,1,48,52,747296872
119,6,22,Ticks_Phase_8,302,5,42,127,747332096
119,6,22,Ticks_Phase_8,303,1,48,51,748068792
119,6,22,Ticks_Phase_8,304,5,42,127,748131660
119,6,22,Ticks_Phase_8,305,1,48,51,748876072
119,6,22,Ticks_Phase_8,306,5,42,127,748931520
119,6,22,Ticks_Phase_8,307,1,48,48,749695480
119,6,22,Ticks_Phase_8,308,5,42,127,749732204
119,6,22,Ticks_Phase_8,309,1,48,46,750484180
119,6,22,Ticks_Phase_8,310,5,42,127,750532064
119,6,22,Ticks_Phase_8,311,1,48,51,751306132
119,6,22,Ticks_Phase_8,312,5,42,127,751331776
119,6,22,Ticks_Phase_8,313,5,42,127,752131496
119,6,22,Ticks_Phase_8,314,1,48,48,752137236
119,6,22,Ticks_Phase_8,315,1,48,53,752912824
119,6,22,Ticks_Phase_8,316,5,42,127,752932124
119,6,22,Ticks_Phase_8,317,1,48,48,753712860
119,6,22,Ticks_Phase_8,318,5,42,127,753731984
119,6,22,Ticks_Phase_8,319,5,42,127,754531852
119,6,22,Ticks_Phase_8,320,1,48,48,754542912
119,6,22,Ticks_Phase_8,321,5,42,127,755331340
119,6,22,Ticks_Phase_8,322,1,48,48,755341876
119,6,22,Ticks_Phase_8,323,1,48,47,756110196
119,6,22,Ticks_Phase_8,324,5,42,127,756132164
119,6,22,Ticks_Phase_8,325,5,42,127,756931956
119,6,22,Ticks_Phase_8,326,1,48,46,756937848
119,6,22,Ticks_Phase_8,327,5,42,127,757731968
119,6,22,Ticks_Phase_8,328,1,48,53,757738080
119,6,22,Ticks_Phase_8,329,5,42,127,758531752
119,6,22,Ticks_Phase_8,330,1,48,47,758542740
119,6,22,Ticks_Phase_8,331,1,48,52,759307760
119,6,22,Ticks_Phase_8,332,5,42,127,759332156
119,6,22,Ticks_Phase_8,333,1,48,48,760097460
119,6,22,Ticks_Phase_8,334,5,42,127,760131940
119,6,22,Ticks_Phase_8,0,9999,9999,9999,624909424
119,6,22,Ticks_Phase_8,1,9999,9999,9999,625709184
119,6,22,Ticks_Phase_8,2,9999,9999,9999,626509884
119,6,22,Ticks_Phase_8,3,9999,9999,9999,627309672
119,6,22,Ticks_Phase_8,4,9999,9999,9999,628109392
119,6,22,Ticks_Phase_8,5,9999,9999,9999,628909176
119,6,22,Ticks_Phase_8,6,9999,9999,9999,629709932
119,6,22,Ticks_Phase_8,7,9999,9999,9999,630509644
119,6,22,Ticks_Phase_8,8,9999,9999,9999,631309432
119,6,22,Ticks_Phase_8,9,9999,9999,9999,632109168
119,6,22,Ticks_Phase_8,10,9999,9999,9999,632909924
119,6,22,Ticks_Phase_8,11,9999,9999,9999,633709640
119,6,22,Ticks_Phase_8,12,9999,9999,9999,634509424
119,6,22,Ticks_Phase_8,13,9999,9999,9999,635309144
119,6,22,Ticks_Phase_8,14,9999,9999,9999,636109896
119,6,22,Ticks_Phase_8,15,9999,9999,9999,636909684
119,6,22,Ticks_Phase_8,16,9999,9999,9999,637709404
119,6,22,Ticks_Phase_8,17,9999,9999,9999,638509136
119,6,22,Ticks_Phase_8,18,9999,9999,9999,639309888
119,6,22,Ticks_Phase_8,19,9999,9999,9999,640109676
119,6,22,Ticks_Phase_8,20,9999,9999,9999,640909388
119,6,22,Ticks_Phase_8,21,9999,9999,9999,641709180
119,6,22,Ticks_Phase_8,22,9999,9999,9999,642509932
119,6,22,Ticks_Phase_8,23,9999,9999,9999,643309652
119,6,22,Ticks_Phase_8,24,9999,9999,9999,644109440
119,6,22,Ticks_Phase_8,25,9999,9999,9999,644909168
119,6,22,Ticks_Phase_8,26,9999,9999,9999,645709928
119,6,22,Ticks_Phase_8,27,9999,9999,9999,646509636
119,6,22,Ticks_Phase_8,28,9999,9999,9999,647309424
119,6,22,Ticks_Phase_8,29,9999,9999,9999,648109136
119,6,22,Ticks_Phase_8,30,9999,9999,9999,648889452
119,6,22,Ticks_Phase_8,31,9999,9999,9999,649689164
119,6,22,Ticks_Phase_8,32,9999,9999,9999,650489924
119,6,22,Ticks_Phase_8,33,9999,9999,9999,651289716
119,6,22,Ticks_Phase_8,34,9999,9999,9999,652089448
119,6,22,Ticks_Phase_8,35,9999,9999,9999,652889160
119,6,22,Ticks_Phase_8,36,9999,9999,9999,653689924
119,6,22,Ticks_Phase_8,37,9999,9999,9999,654489700
119,6,22,Ticks_Phase_8,38,9999,9999,9999,655289412
119,6,22,Ticks_Phase_8,39,9999,9999,9999,656089208
119,6,22,Ticks_Phase_8,40,9999,9999,9999,656889964
119,6,22,Ticks_Phase_8,41,9999,9999,9999,657689676
119,6,22,Ticks_Phase_8,42,9999,9999,9999,658489412
119,6,22,Ticks_Phase_8,43,9999,9999,9999,659289196
119,6,22,Ticks_Phase_8,44,9999,9999,9999,660089956
119,6,22,Ticks_Phase_8,45,9999,9999,9999,660889668
119,6,22,Ticks_Phase_8,46,9999,9999,9999,661689448
119,6,22,Ticks_Phase_8,47,9999,9999,9999,662489196
119,6,22,Ticks_Phase_8,48,9999,9999,9999,663309392
119,6,22,Ticks_Phase_8,49,9999,9999,9999,664109128
119,6,22,Ticks_Phase_8,50,9999,9999,9999,664909888
119,6,22,Ticks_Phase_8,51,9999,9999,9999,665709672
119,6,22,Ticks_Phase_8,52,9999,9999,9999,666509392
119,6,22,Ticks_Phase_8,53,9999,9999,9999,667309180
119,6,22,Ticks_Phase_8,54,9999,9999,9999,668109932
119,6,22,Ticks_Phase_8,55,9999,9999,9999,668909648
119,6,22,Ticks_Phase_8,56,9999,9999,9999,669709432
119,6,22,Ticks_Phase_8,57,9999,9999,9999,670509168
119,6,22,Ticks_Phase_8,58,9999,9999,9999,671309928
119,6,22,Ticks_Phase_8,59,9999,9999,9999,672109640
119,6,22,Ticks_Phase_8,60,9999,9999,9999,672909424
119,6,22,Ticks_Phase_8,61,9999,9999,9999,673709136
119,6,22,Ticks_Phase_8,62,9999,9999,9999,674509888
119,6,22,Ticks_Phase_8,63,9999,9999,9999,675309676
119,6,22,Ticks_Phase_8,64,9999,9999,9999,676149328
119,6,22,Ticks_Phase_8,65,9999,9999,9999,676950136
119,6,22,Ticks_Phase_8,66,9999,9999,9999,677760108
119,6,22,Ticks_Phase_8,67,9999,9999,9999,678570080
119,6,22,Ticks_Phase_8,68,9999,9999,9999,679369800
119,6,22,Ticks_Phase_8,69,9999,9999,9999,680169584
119,6,22,Ticks_Phase_8,70,9999,9999,9999,680969296
119,6,22,Ticks_Phase_8,71,9999,9999,9999,681770080
119,6,22,Ticks_Phase_8,72,9999,9999,9999,682569792
119,6,22,Ticks_Phase_8,73,9999,9999,9999,683369576
119,6,22,Ticks_Phase_8,74,9999,9999,9999,684169292
119,6,22,Ticks_Phase_8,75,9999,9999,9999,684970040
119,6,22,Ticks_Phase_8,76,9999,9999,9999,685769836
119,6,22,Ticks_Phase_8,77,9999,9999,9999,686569544
119,6,22,Ticks_Phase_8,78,9999,9999,9999,687369332
119,6,22,Ticks_Phase_8,79,9999,9999,9999,688170044
119,6,22,Ticks_Phase_8,80,9999,9999,9999,688969832
119,6,22,Ticks_Phase_8,81,9999,9999,9999,689729628
119,6,22,Ticks_Phase_8,82,9999,9999,9999,690529344
119,6,22,Ticks_Phase_8,83,9999,9999,9999,691329128
119,6,22,Ticks_Phase_8,84,9999,9999,9999,692129888
119,6,22,Ticks_Phase_8,85,9999,9999,9999,692929596
119,6,22,Ticks_Phase_8,86,9999,9999,9999,693729384
119,6,22,Ticks_Phase_8,87,9999,9999,9999,694529096
119,6,22,Ticks_Phase_8,88,9999,9999,9999,695329880
119,6,22,Ticks_Phase_8,89,9999,9999,9999,696129660
119,6,22,Ticks_Phase_8,90,9999,9999,9999,696929372
119,6,22,Ticks_Phase_8,91,9999,9999,9999,697729084
119,6,22,Ticks_Phase_8,92,9999,9999,9999,698529916
119,6,22,Ticks_Phase_8,93,9999,9999,9999,699329628
119,6,22,Ticks_Phase_8,94,9999,9999,9999,700129340
119,6,22,Ticks_Phase_8,95,9999,9999,9999,700929128
119,6,22,Ticks_Phase_8,96,9999,9999,9999,701729912
119,6,22,Ticks_Phase_8,97,9999,9999,9999,702449776
119,6,22,Ticks_Phase_8,98,9999,9999,9999,703249492
119,6,22,Ticks_Phase_8,99,9999,9999,9999,704049224
119,6,22,Ticks_Phase_8,100,9999,9999,9999,704849980
119,6,22,Ticks_Phase_8,101,9999,9999,9999,705649772
119,6,22,Ticks_Phase_8,102,9999,9999,9999,706449476
119,6,22,Ticks_Phase_8,103,9999,9999,9999,707249264
119,6,22,Ticks_Phase_8,104,9999,9999,9999,708050024
119,6,22,Ticks_Phase_8,105,9999,9999,9999,708849732
119,6,22,Ticks_Phase_8,106,9999,9999,9999,709649520
119,6,22,Ticks_Phase_8,107,9999,9999,9999,710449256
119,6,22,Ticks_Phase_8,108,9999,9999,9999,711250020
119,6,22,Ticks_Phase_8,109,9999,9999,9999,712049732
119,6,22,Ticks_Phase_8,110,9999,9999,9999,712849516
119,6,22,Ticks_Phase_8,111,9999,9999,9999,713649236
119,6,22,Ticks_Phase_8,112,9999,9999,9999,714449996
119,6,22,Ticks_Phase_8,113,9999,9999,9999,715249780
119,6,22,Ticks_Phase_8,114,9999,9999,9999,716129344
119,6,22,Ticks_Phase_8,115,9999,9999,9999,716929128
119,6,22,Ticks_Phase_8,116,9999,9999,9999,717729896
119,6,22,Ticks_Phase_8,117,9999,9999,9999,718529608
119,6,22,Ticks_Phase_8,118,9999,9999,9999,719329392
119,6,22,Ticks_Phase_8,119,9999,9999,9999,720129108
119,6,22,Ticks_Phase_8,120,9999,9999,9999,720929888
119,6,22,Ticks_Phase_8,121,9999,9999,9999,721729604
119,6,22,Ticks_Phase_8,122,9999,9999,9999,722529388
119,6,22,Ticks_Phase_8,123,9999,9999,9999,723329100
119,6,22,Ticks_Phase_8,124,9999,9999,9999,724129880
119,6,22,Ticks_Phase_8,125,9999,9999,9999,724929608
119,6,22,Ticks_Phase_8,126,9999,9999,9999,725729396
119,6,22,Ticks_Phase_8,127,9999,9999,9999,726529108
119,6,22,Ticks_Phase_8,128,9999,9999,9999,727329896
119,6,22,Ticks_Phase_8,129,9999,9999,9999,728129600
119,6,22,Ticks_Phase_8,130,9999,9999,9999,728929388
119,6,22,Ticks_Phase_8,131,9999,9999,9999,729889892
119,6,22,Ticks_Phase_8,132,9999,9999,9999,730689608
119,6,22,Ticks_Phase_8,133,9999,9999,9999,731489340
119,6,22,Ticks_Phase_8,134,9999,9999,9999,732289128
119,6,22,Ticks_Phase_8,135,9999,9999,9999,733089880
119,6,22,Ticks_Phase_8,136,9999,9999,9999,733889592
119,6,22,Ticks_Phase_8,137,9999,9999,9999,734689380
119,6,22,Ticks_Phase_8,138,9999,9999,9999,735489096
119,6,22,Ticks_Phase_8,139,9999,9999,9999,736289876
119,6,22,Ticks_Phase_8,140,9999,9999,9999,737089592
119,6,22,Ticks_Phase_8,141,9999,9999,9999,737889376
119,6,22,Ticks_Phase_8,142,9999,9999,9999,738689088
119,6,22,Ticks_Phase_8,143,9999,9999,9999,739489916
119,6,22,Ticks_Phase_8,144,9999,9999,9999,740289636
119,6,22,Ticks_Phase_8,145,9999,9999,9999,741089344
119,6,22,Ticks_Phase_8,146,9999,9999,9999,741889132
119,6,22,Ticks_Phase_8,147,9999,9999,9999,742689916
119,6,22,Ticks_Phase_8,148,9999,9999,9999,743489628
119,6,22,Ticks_Phase_8,149,9999,9999,9999,744289340
119,6,22,Ticks_Phase_8,150,9999,9999,9999,744929364
119,6,22,Ticks_Phase_8,151,9999,9999,9999,745729080
119,6,22,Ticks_Phase_8,152,9999,9999,9999,746529876
119,6,22,Ticks_Phase_8,153,9999,9999,9999,747329664
119,6,22,Ticks_Phase_8,154,9999,9999,9999,748129372
119,6,22,Ticks_Phase_8,155,9999,9999,9999,748929084
119,6,22,Ticks_Phase_8,156,9999,9999,9999,749729920
119,6,22,Ticks_Phase_8,157,9999,9999,9999,750529632
119,6,22,Ticks_Phase_8,158,9999,9999,9999,751329344
119,6,22,Ticks_Phase_8,159,9999,9999,9999,752129136
119,6,22,Ticks_Phase_8,160,9999,9999,9999,752929912
119,6,22,Ticks_Phase_8,161,9999,9999,9999,753729624
119,6,22,Ticks_Phase_8,162,9999,9999,9999,754529344
119,6,22,Ticks_Phase_8,163,9999,9999,9999,755329128
119,6,22,Ticks_Phase_8,164,9999,9999,9999,756129880
119,6,22,Ticks_Phase_8,165,9999,9999,9999,756929596
119,6,22,Ticks_Phase_8,166,9999,9999,9999,757729384
119,6,22,Ticks_Phase_8,167,9999,9999,9999,758529092
119,6,22,Ticks_Phase_8,168,9999,9999,9999,759329868
119,6,22,Ticks_Phase_8,169,9999,9999,9999,760129656
119,7,21,Ticks_Linear_5,0,1,48,19,770739160
119,7,21,Ticks_Linear_5,1,5,42,127,771219688
119,7,21,Ticks_Linear_5,2,5,42,127,771700012
119,7,21,Ticks_Linear_5,3,5,42,127,772180560
119,7,21,Ticks_Linear_5,4,5,42,127,772659616
119,7,21,Ticks_Linear_5,5,1,48,58,773128860
119,7,21,Ticks_Linear_5,6,5,42,127,773139980
119,7,21,Ticks_Linear_5,7,5,42,127,773630476
119,7,21,Ticks_Linear_5,8,1,48,43,773659088
119,7,21,Ticks_Linear_5,9,5,42,127,774119768
119,7,21,Ticks_Linear_5,10,1,48,54,774156804
119,7,21,Ticks_Linear_5,11,5,42,127,774610476
119,7,21,Ticks_Linear_5,12,1,48,54,774668120
119,7,21,Ticks_Linear_5,13,5,42,127,775099696
119,7,21,Ticks_Linear_5,14,1,48,48,775148348
119,7,21,Ticks_Linear_5,15,1,48,49,775567748
119,7,21,Ticks_Linear_5,16,5,42,127,775590396
119,7,21,Ticks_Linear_5,17,1,48,41,776061528
119,7,21,Ticks_Linear_5,18,5,42,127,776089876
119,7,21,Ticks_Linear_5,19,1,48,40,776577636
119,7,21,Ticks_Linear_5,20,5,42,127,776589652
119,7,21,Ticks_Linear_5,21,1,48,39,777053808
119,7,21,Ticks_Linear_5,22,5,42,127,777090620
119,7,21,Ticks_Linear_5,23,1,48,38,777592600
119,7,21,Ticks_Linear_5,24,5,42,127,777600580
119,7,21,Ticks_Linear_5,25,1,48,45,778093496
119,7,21,Ticks_Linear_5,26,5,42,127,778100060
119,7,21,Ticks_Linear_5,27,1,48,39,778593572
119,7,21,Ticks_Linear_5,28,5,42,127,778610092
119,7,21,Ticks_Linear_5,29,1,48,45,779098524
119,7,21,Ticks_Linear_5,30,5,42,127,779120124
119,7,21,Ticks_Linear_5,31,1,48,47,779595736
119,7,21,Ticks_Linear_5,32,5,42,127,779629936
119,7,21,Ticks_Linear_5,33,1,48,48,780129448
119,7,21,Ticks_Linear_5,34,5,42,127,780139968
119,7,21,Ticks_Linear_5,35,5,42,127,780649860
119,7,21,Ticks_Linear_5,36,1,48,42,780650824
119,7,21,Ticks_Linear_5,37,1,48,38,781131088
119,7,21,Ticks_Linear_5,38,5,42,127,781170068
119,7,21,Ticks_Linear_5,39,5,42,127,781690444
119,7,21,Ticks_Linear_5,40,1,48,39,781702404
119,7,21,Ticks_Linear_5,41,5,42,127,782210512
119,7,21,Ticks_Linear_5,42,1,48,36,782214828
119,7,21,Ticks_Linear_5,43,1,48,36,782731288
119,7,21,Ticks_Linear_5,44,5,42,127,782739860
119,7,21,Ticks_Linear_5,45,1,48,37,783248360
119,7,21,Ticks_Linear_5,46,5,42,127,783260004
119,7,21,Ticks_Linear_5,47,1,48,35,783763328
119,7,21,Ticks_Linear_5,48,5,42,127,783789584
119,7,21,Ticks_Linear_5,49,1,48,35,784298000
119,7,21,Ticks_Linear_5,50,5,42,127,784319840
119,7,21,Ticks_Linear_5,51,1,48,32,784826832
119,7,21,Ticks_Linear_5,52,5,42,127,784850392
119,7,21,Ticks_Linear_5,53,1,48,38,785353944
119,7,21,Ticks_Linear_5,54,5,42,127,785379824
119,7,21,Ticks_Linear_5,55,1,48,37,785895948
119,7,21,Ticks_Linear_5,56,5,42,127,785910224
119,7,21,Ticks_Linear_5,57,1,48,28,786437300
119,7,21,Ticks_Linear_5,58,5,42,127,786449764
119,7,21,Ticks_Linear_5,59,1,48,32,786954736
119,7,21,Ticks_Linear_5,60,5,42,127,786989556
119,7,21,Ticks_Linear_5,61,1,48,38,787480428
119,7,21,Ticks_Linear_5,62,5,42,127,787530072
119,7,21,Ticks_Linear_5,63,1,48,35,788027324
119,7,21,Ticks_Linear_5,64,5,42,127,788069760
119,7,21,Ticks_Linear_5,65,1,48,35,788605288
119,7,21,Ticks_Linear_5,66,5,42,127,788610500
119,7,21,Ticks_Linear_5,67,1,48,32,789138392
119,7,21,Ticks_Linear_5,68,5,42,127,789169584
119,7,21,Ticks_Linear_5,69,1,48,26,789677712
119,7,21,Ticks_Linear_5,70,5,42,127,789720504
119,7,21,Ticks_Linear_5,71,1,48,31,790216336
119,7,21,Ticks_Linear_5,72,5,42,127,790279444
119,7,21,Ticks_Linear_5,73,1,48,30,790789440
119,7,21,Ticks_Linear_5,74,5,42,127,790829492
119,7,21,Ticks_Linear_5,75,1,48,22,791373628
119,7,21,Ticks_Linear_5,76,5,42,127,791380488
119,7,21,Ticks_Linear_5,77,1,48,29,791899096
119,7,21,Ticks_Linear_5,78,5,42,127,791939428
119,7,21,Ticks_Linear_5,79,1,48,29,792453756
119,7,21,Ticks_Linear_5,80,5,42,127,792499484
119,7,21,Ticks_Linear_5,81,1,48,32,793029776
119,7,21,Ticks_Linear_5,82,5,42,127,793059620
119,7,21,Ticks_Linear_5,83,1,48,33,793580396
119,7,21,Ticks_Linear_5,84,5,42,127,793619828
119,7,21,Ticks_Linear_5,85,1,48,38,794151860
119,7,21,Ticks_Linear_5,86,5,42,127,794179836
119,7,21,Ticks_Linear_5,87,1,48,36,794706592
119,7,21,Ticks_Linear_5,88,5,42,127,794750452
119,7,21,Ticks_Linear_5,89,1,48,29,795300732
119,7,21,Ticks_Linear_5,90,5,42,127,795319572
119,7,21,Ticks_Linear_5,91,1,48,38,795845508
119,7,21,Ticks_Linear_5,92,5,42,127,795890264
119,7,21,Ticks_Linear_5,93,1,48,35,796407140
119,7,21,Ticks_Linear_5,94,5,42,127,796460380
119,7,21,Ticks_Linear_5,95,1,48,31,797007808
119,7,21,Ticks_Linear_5,96,5,42,127,797029728
119,7,21,Ticks_Linear_5,97,1,48,33,797567868
119,7,21,Ticks_Linear_5,98,5,42,127,797610232
119,7,21,Ticks_Linear_5,99,1,48,28,798147552
119,7,21,Ticks_Linear_5,100,5,42,127,798189912
119,7,21,Ticks_Linear_5,101,1,48,38,798719976
119,7,21,Ticks_Linear_5,102,5,42,127,798769540
119,7,21,Ticks_Linear_5,103,1,48,37,799309268
119,7,21,Ticks_Linear_5,104,5,42,127,799350268
119,7,21,Ticks_Linear_5,105,1,48,36,799926004
119,7,21,Ticks_Linear_5,106,5,42,127,799929652
119,7,21,Ticks_Linear_5,107,1,48,29,800500004
119,7,21,Ticks_Linear_5,108,5,42,127,800519588
119,7,21,Ticks_Linear_5,109,1,48,34,801077764
119,7,21,Ticks_Linear_5,110,5,42,127,801110376
119,7,21,Ticks_Linear_5,111,1,48,37,801666868
119,7,21,Ticks_Linear_5,112,5,42,127,801700388
119,7,21,Ticks_Linear_5,113,1,48,33,802256580
119,7,21,Ticks_Linear_5,114,5,42,127,802290028
119,7,21,Ticks_Linear_5,115,1,48,32,802848648
119,7,21,Ticks_Linear_5,116,5,42,127,802879768
119,7,21,Ticks_Linear_5,117,1,48,32,803445544
119,7,21,Ticks_Linear_5,118,5,42,127,803479816
119,7,21,Ticks_Linear_5,119,1,48,30,804030248
119,7,21,Ticks_Linear_5,120,1,48,46,804034716
119,7,21,Ticks_Linear_5,121,5,42,127,804080216
119,7,21,Ticks_Linear_5,122,1,48,28,804678720
119,7,21,Ticks_Linear_5,123,5,42,127,804680288
119,7,21,Ticks_Linear_5,124,1,48,29,805236784
119,7,21,Ticks_Linear_5,125,5,42,127,805280336
119,7,21,Ticks_Linear_5,126,1,48,27,805825000
119,7,21,Ticks_Linear_5,127,5,42,127,805880088
119,7,21,Ticks_Linear_5,128,1,48,33,806421684
119,7,21,Ticks_Linear_5,129,5,42,127,806489448
119,7,21,Ticks_Linear_5,130,1,48,24,807081516
119,7,21,Ticks_Linear_5,131,5,42,127,807099756
119,7,21,Ticks_Linear_5,132,1,48,30,807647108
119,7,21,Ticks_Linear_5,133,5,42,127,807710536
119,7,21,Ticks_Linear_5,134,1,48,26,808232956
119,7,21,Ticks_Linear_5,135,5,42,127,808320324
119,7,21,Ticks_Linear_5,136,1,48,36,808912388
119,7,21,Ticks_Linear_5,137,5,42,127,808929732
119,7,21,Ticks_Linear_5,138,1,48,27,809493568
119,7,21,Ticks_Linear_5,139,5,42,127,809550248
119,7,21,Ticks_Linear_5,140,1,48,24,810092968
119,7,21,Ticks_Linear_5,141,5,42,127,810169696
119,7,21,Ticks_Linear_5,142,1,48,20,810706488
119,7,21,Ticks_Linear_5,143,5,42,127,810790208
119,7,21,Ticks_Linear_5,144,1,48,33,811328668
119,7,21,Ticks_Linear_5,145,5,42,127,811409804
119,7,21,Ticks_Linear_5,146,1,48,27,811986140
119,7,21,Ticks_Linear_5,147,5,42,127,812030444
119,7,21,Ticks_Linear_5,148,1,48,24,812607560
119,7,21,Ticks_Linear_5,149,5,42,127,812660472
119,7,21,Ticks_Linear_5,150,1,48,30,813264592
119,7,21,Ticks_Linear_5,151,5,42,127,813290028
119,7,21,Ticks_Linear_5,152,1,48,28,813895220
119,7,21,Ticks_Linear_5,153,5,42,127,813919684
119,7,21,Ticks_Linear_5,154,1,48,25,814501944
119,7,21,Ticks_Linear_5,155,5,42,127,814550284
119,7,21,Ticks_Linear_5,156,1,48,34,815136308
119,7,21,Ticks_Linear_5,157,5,42,127,815180088
119,7,21,Ticks_Linear_5,158,1,48,27,815781816
119,7,21,Ticks_Linear_5,159,5,42,127,815820052
119,7,21,Ticks_Linear_5,160,1,48,31,816420164
119,7,21,Ticks_Linear_5,161,5,42,127,816460116
119,7,21,Ticks_Linear_5,162,1,48,29,817052260
119,7,21,Ticks_Linear_5,163,5,42,127,817100228
119,7,21,Ticks_Linear_5,164,1,48,28,817696964
119,7,21,Ticks_Linear_5,165,5,42,127,817740292
119,7,21,Ticks_Linear_5,166,1,48,21,818366132
119,7,21,Ticks_Linear_5,167,5,42,127,818380256
119,7,21,Ticks_Linear_5,168,1,48,24,818991524
119,7,21,Ticks_Linear_5,169,5,42,127,819030284
119,7,21,Ticks_Linear_5,170,1,48,35,819644664
119,7,21,Ticks_Linear_5,171,5,42,127,819679608
119,7,21,Ticks_Linear_5,172,1,48,29,820285024
119,7,21,Ticks_Linear_5,173,5,42,127,820329928
119,7,21,Ticks_Linear_5,174,1,48,21,820933156
119,7,21,Ticks_Linear_5,175,5,42,127,820980076
119,7,21,Ticks_Linear_5,176,1,48,23,821589032
119,7,21,Ticks_Linear_5,177,5,42,127,821630476
119,7,21,Ticks_Linear_5,178,5,42,127,822289920
119,7,21,Ticks_Linear_5,179,1,48,23,822304220
119,7,21,Ticks_Linear_5,180,1,48,21,822943788
119,7,21,Ticks_Linear_5,181,5,42,127,822950196
119,7,21,Ticks_Linear_5,182,1,48,16,823563004
119,7,21,Ticks_Linear_5,183,5,42,127,823609876
119,7,21,Ticks_Linear_5,184,1,48,30,824214148
119,7,21,Ticks_Linear_5,185,5,42,127,824270060
119,7,21,Ticks_Linear_5,186,5,42,127,824930048
119,7,21,Ticks_Linear_5,187,1,48,30,825532020
119,7,21,Ticks_Linear_5,188,5,42,127,825600432
119,7,21,Ticks_Linear_5,189,1,48,30,826236552
119,7,21,Ticks_Linear_5,190,5,42,127,826269928
119,7,21,Ticks_Linear_5,191,1,48,36,826856072
119,7,21,Ticks_Linear_5,192,5,42,127,826939944
119,7,21,Ticks_Linear_5,193,1,48,24,827573576
119,7,21,Ticks_Linear_5,194,5,42,127,827609340
119,7,21,Ticks_Linear_5,195,1,48,24,828268164
119,7,21,Ticks_Linear_5,196,5,42,127,828280180
119,7,21,Ticks_Linear_5,197,1,48,20,828944960
119,7,21,Ticks_Linear_5,198,5,42,127,828960232
119,7,21,Ticks_Linear_5,199,1,48,26,829626284
119,7,21,Ticks_Linear_5,200,5,42,127,829640036
119,7,21,Ticks_Linear_5,201,1,48,27,830292864
119,7,21,Ticks_Linear_5,202,5,42,127,830320092
119,7,21,Ticks_Linear_5,203,1,48,28,830978592
119,7,21,Ticks_Linear_5,204,5,42,127,831000292
119,7,21,Ticks_Linear_5,205,1,48,28,831629284
119,7,21,Ticks_Linear_5,206,5,42,127,831679876
119,7,21,Ticks_Linear_5,207,1,48,33,832335092
119,7,21,Ticks_Linear_5,208,5,42,127,832370112
119,7,21,Ticks_Linear_5,209,5,42,127,833060132
119,7,21,Ticks_Linear_5,210,1,48,19,833271364
119,7,21,Ticks_Linear_5,211,5,42,127,833750492
119,7,21,Ticks_Linear_5,212,1,48,26,833810756
119,7,21,Ticks_Linear_5,213,1,48,24,834356128
119,7,21,Ticks_Linear_5,214,5,42,127,834439824
119,7,21,Ticks_Linear_5,215,1,48,27,834958512
119,7,21,Ticks_Linear_5,216,5,42,127,835129900
119,7,21,Ticks_Linear_5,217,5,42,127,835830092
119,7,21,Ticks_Linear_5,218,1,48,37,835838832
119,7,21,Ticks_Linear_5,219,1,48,34,836521184
119,7,21,Ticks_Linear_5,220,5,42,127,836529388
119,7,21,Ticks_Linear_5,221,1,48,30,837206992
119,7,21,Ticks_Linear_5,222,5,42,127,837229808
119,7,21,Ticks_Linear_5,223,1,48,35,837899464
119,7,21,Ticks_Linear_5,224,5,42,127,837930228
119,7,21,Ticks_Linear_5,225,1,48,28,838614184
119,7,21,Ticks_Linear_5,226,5,42,127,838629952
119,7,21,Ticks_Linear_5,227,1,48,36,839295060
119,7,21,Ticks_Linear_5,228,5,42,127,839340484
119,7,21,Ticks_Linear_5,229,1,48,47,840023268
119,7,21,Ticks_Linear_5,230,5,42,127,840049896
119,7,21,Ticks_Linear_5,231,5,42,127,840759832
119,7,21,Ticks_Linear_5,232,1,48,15,840776204
119,7,21,Ticks_Linear_5,233,1,48,22,841409940
119,7,21,Ticks_Linear_5,234,5,42,127,841470260
119,7,21,Ticks_Linear_5,235,1,48,35,842111708
119,7,21,Ticks_Linear_5,236,5,42,127,842179900
119,7,21,Ticks_Linear_5,237,1,48,21,842878412
119,7,21,Ticks_Linear_5,238,5,42,127,842899864
119,7,21,Ticks_Linear_5,239,1,48,24,843589316
119,7,21,Ticks_Linear_5,240,5,42,127,843619832
119,7,21,Ticks_Linear_5,241,1,48,42,844333764
119,7,21,Ticks_Linear_5,242,5,42,127,844339796
119,7,21,Ticks_Linear_5,243,1,48,23,845038668
119,7,21,Ticks_Linear_5,244,5,42,127,845059592
119,7,21,Ticks_Linear_5,245,1,48,32,845754876
119,7,21,Ticks_Linear_5,246,5,42,127,845780384
119,7,21,Ticks_Linear_5,247,5,42,127,846509572
119,7,21,Ticks_Linear_5,248,1,48,31,846522276
119,7,21,Ticks_Linear_5,249,1,48,35,847228748
119,7,21,Ticks_Linear_5,250,5,42,127,847239720
119,7,21,Ticks_Linear_5,251,1,48,37,847933280
119,7,21,Ticks_Linear_5,252,5,42,127,847969944
119,7,21,Ticks_Linear_5,253,1,48,18,848664036
119,7,21,Ticks_Linear_5,254,5,42,127,848699728
119,7,21,Ticks_Linear_5,255,5,42,127,849429864
119,7,21,Ticks_Linear_5,256,1,48,36,849450012
119,7,21,Ticks_Linear_5,257,1,48,32,850133156
119,7,21,Ticks_Linear_5,258,5,42,127,850170120
119,7,21,Ticks_Linear_5,259,1,48,17,850868704
119,7,21,Ticks_Linear_5,260,5,42,127,850909780
119,7,21,Ticks_Linear_5,261,1,48,41,851607456
119,7,21,Ticks_Linear_5,262,5,42,127,851649816
119,7,21,Ticks_Linear_5,263,1,48,44,852323308
119,7,21,Ticks_Linear_5,264,5,42,127,852390304
119,7,21,Ticks_Linear_5,265,1,48,44,853100420
119,7,21,Ticks_Linear_5,266,5,42,127,853129672
119,7,21,Ticks_Linear_5,267,1,48,37,853834612
119,7,21,Ticks_Linear_5,268,5,42,127,853880044
119,7,21,Ticks_Linear_5,269,1,48,45,854580872
119,7,21,Ticks_Linear_5,270,5,42,127,854629816
119,7,21,Ticks_Linear_5,271,1,48,25,855378600
119,7,21,Ticks_Linear_5,272,5,42,127,855380636
119,7,21,Ticks_Linear_5,273,5,42,127,856129820
119,7,21,Ticks_Linear_5,274,1,48,52,856144992
119,7,21,Ticks_Linear_5,275,1,48,45,856856248
119,7,21,Ticks_Linear_5,276,5,42,127,856879588
119,7,21,Ticks_Linear_5,277,1,48,49,857595884
119,7,21,Ticks_Linear_5,278,5,42,127,857640592
119,7,21,Ticks_Linear_5,279,1,48,45,858371208
119,7,21,Ticks_Linear_5,280,5,42,127,858400024
119,7,21,Ticks_Linear_5,281,1,48,43,859115804
119,7,21,Ticks_Linear_5,282,5,42,127,859159984
119,7,21,Ticks_Linear_5,283,1,48,40,859873668
119,7,21,Ticks_Linear_5,284,5,42,127,859919692
119,7,21,Ticks_Linear_5,285,1,48,39,860646728
119,7,21,Ticks_Linear_5,286,5,42,127,860679652
119,7,21,Ticks_Linear_5,287,1,48,38,861431628
119,7,21,Ticks_Linear_5,288,5,42,127,861449568
119,7,21,Ticks_Linear_5,289,1,48,43,862197648
119,7,21,Ticks_Linear_5,290,5,42,127,862219564
119,7,21,Ticks_Linear_5,291,1,48,40,862940688
119,7,21,Ticks_Linear_5,292,5,42,127,862989780
119,7,21,Ticks_Linear_5,293,1,48,38,863737632
119,7,21,Ticks_Linear_5,294,5,42,127,863759700
119,7,21,Ticks_Linear_5,295,5,42,127,864529700
119,7,21,Ticks_Linear_5,296,1,48,36,864554856
119,7,21,Ticks_Linear_5,297,5,42,127,865310052
119,7,21,Ticks_Linear_5,298,1,48,40,865334208
119,7,21,Ticks_Linear_5,299,1,48,35,866087628
119,7,21,Ticks_Linear_5,300,5,42,127,866090596
119,7,21,Ticks_Linear_5,301,5,42,127,866869584
119,7,21,Ticks_Linear_5,302,1,48,34,866896960
119,7,21,Ticks_Linear_5,303,1,48,25,867645212
119,7,21,Ticks_Linear_5,304,5,42,127,867649980
119,7,21,Ticks_Linear_5,305,1,48,40,868420160
119,7,21,Ticks_Linear_5,306,5,42,127,868430380
119,7,21,Ticks_Linear_5,307,1,48,31,869201608
119,7,21,Ticks_Linear_5,308,5,42,127,869219624
119,7,21,Ticks_Linear_5,309,1,48,35,870006416
119,7,21,Ticks_Linear_5,310,5,42,127,870010284
119,7,21,Ticks_Linear_5,311,1,48,43,870783232
119,7,21,Ticks_Linear_5,312,5,42,127,870799676
119,7,21,Ticks_Linear_5,313,1,48,44,871584596
119,7,21,Ticks_Linear_5,314,5,42,127,871590484
119,7,21,Ticks_Linear_5,315,1,48,36,872365824
119,7,21,Ticks_Linear_5,316,5,42,127,872379800
119,7,21,Ticks_Linear_5,317,5,42,127,873179384
119,7,21,Ticks_Linear_5,318,1,48,32,873182948
119,7,21,Ticks_Linear_5,319,5,42,127,873980448
119,7,21,Ticks_Linear_5,320,1,48,41,873988296
119,7,21,Ticks_Linear_5,321,5,42,127,874779976
119,7,21,Ticks_Linear_5,322,1,48,36,874796868
119,7,21,Ticks_Linear_5,323,1,48,41,875577656
119,7,21,Ticks_Linear_5,324,5,42,127,875579696
119,7,21,Ticks_Linear_5,325,5,42,127,876379500
119,7,21,Ticks_Linear_5,326,1,48,42,876396388
119,7,21,Ticks_Linear_5,327,1,48,29,877170412
119,7,21,Ticks_Linear_5,328,5,42,127,877189476
119,7,21,Ticks_Linear_5,329,1,48,31,877947288
119,7,21,Ticks_Linear_5,330,5,42,127,877999532
119,7,21,Ticks_Linear_5,331,1,48,31,878738856
119,7,21,Ticks_Linear_5,332,5,42,127,878809364
119,7,21,Ticks_Linear_5,333,1,48,29,879581112
119,7,21,Ticks_Linear_5,334,5,42,127,879619644
119,7,21,Ticks_Linear_5,335,1,48,30,880428680
119,7,21,Ticks_Linear_5,336,5,42,127,880430180
119,7,21,Ticks_Linear_5,0,9999,9999,9999,771217464
119,7,21,Ticks_Linear_5,1,9999,9999,9999,771697788
119,7,21,Ticks_Linear_5,2,9999,9999,9999,772178036
119,7,21,Ticks_Linear_5,3,9999,9999,9999,772657240
119,7,21,Ticks_Linear_5,4,9999,9999,9999,773137536
119,7,21,Ticks_Linear_5,5,9999,9999,9999,773628028
119,7,21,Ticks_Linear_5,6,9999,9999,9999,774117468
119,7,21,Ticks_Linear_5,7,9999,9999,9999,774607956
119,7,21,Ticks_Linear_5,8,9999,9999,9999,775097472
119,7,21,Ticks_Linear_5,9,9999,9999,9999,775587948
119,7,21,Ticks_Linear_5,10,9999,9999,9999,776087652
119,7,21,Ticks_Linear_5,11,9999,9999,9999,776587356
119,7,21,Ticks_Linear_5,12,9999,9999,9999,777088100
119,7,21,Ticks_Linear_5,13,9999,9999,9999,777598060
119,7,21,Ticks_Linear_5,14,9999,9999,9999,778097760
119,7,21,Ticks_Linear_5,15,9999,9999,9999,778607716
119,7,21,Ticks_Linear_5,16,9999,9999,9999,779117680
119,7,21,Ticks_Linear_5,17,9999,9999,9999,779627636
119,7,21,Ticks_Linear_5,18,9999,9999,9999,780137596
119,7,21,Ticks_Linear_5,19,9999,9999,9999,780647488
119,7,21,Ticks_Linear_5,20,9999,9999,9999,781167696
119,7,21,Ticks_Linear_5,21,9999,9999,9999,781687920
119,7,21,Ticks_Linear_5,22,9999,9999,9999,782208064
119,7,21,Ticks_Linear_5,23,9999,9999,9999,782737488
119,7,21,Ticks_Linear_5,24,9999,9999,9999,783257708
119,7,21,Ticks_Linear_5,25,9999,9999,9999,783787064
119,7,21,Ticks_Linear_5,26,9999,9999,9999,784317540
119,7,21,Ticks_Linear_5,27,9999,9999,9999,784847944
119,7,21,Ticks_Linear_5,28,9999,9999,9999,785377376
119,7,21,Ticks_Linear_5,29,9999,9999,9999,785907776
119,7,21,Ticks_Linear_5,30,9999,9999,9999,786447468
119,7,21,Ticks_Linear_5,31,9999,9999,9999,786987108
119,7,21,Ticks_Linear_5,32,9999,9999,9999,787527772
119,7,21,Ticks_Linear_5,33,9999,9999,9999,788067388
119,7,21,Ticks_Linear_5,34,9999,9999,9999,788608124
119,7,21,Ticks_Linear_5,35,9999,9999,9999,789167212
119,7,21,Ticks_Linear_5,36,9999,9999,9999,789718132
119,7,21,Ticks_Linear_5,37,9999,9999,9999,790277220
119,7,21,Ticks_Linear_5,38,9999,9999,9999,790827116
119,7,21,Ticks_Linear_5,39,9999,9999,9999,791378040
119,7,21,Ticks_Linear_5,40,9999,9999,9999,791937128
119,7,21,Ticks_Linear_5,41,9999,9999,9999,792497264
119,7,21,Ticks_Linear_5,42,9999,9999,9999,793057396
119,7,21,Ticks_Linear_5,43,9999,9999,9999,793617528
119,7,21,Ticks_Linear_5,44,9999,9999,9999,794177612
119,7,21,Ticks_Linear_5,45,9999,9999,9999,794748004
119,7,21,Ticks_Linear_5,46,9999,9999,9999,795317348
119,7,21,Ticks_Linear_5,47,9999,9999,9999,795887744
119,7,21,Ticks_Linear_5,48,9999,9999,9999,796458084
119,7,21,Ticks_Linear_5,49,9999,9999,9999,797027432
119,7,21,Ticks_Linear_5,50,9999,9999,9999,797608008
119,7,21,Ticks_Linear_5,51,9999,9999,9999,798187616
119,7,21,Ticks_Linear_5,52,9999,9999,9999,798767168
119,7,21,Ticks_Linear_5,53,9999,9999,9999,799347820
119,7,21,Ticks_Linear_5,54,9999,9999,9999,799927352
119,7,21,Ticks_Linear_5,55,9999,9999,9999,800517216
119,7,21,Ticks_Linear_5,56,9999,9999,9999,801108076
119,7,21,Ticks_Linear_5,57,9999,9999,9999,801697868
119,7,21,Ticks_Linear_5,58,9999,9999,9999,802287732
119,7,21,Ticks_Linear_5,59,9999,9999,9999,802877544
119,7,21,Ticks_Linear_5,60,9999,9999,9999,803477592
119,7,21,Ticks_Linear_5,61,9999,9999,9999,804077696
119,7,21,Ticks_Linear_5,62,9999,9999,9999,804677700
119,7,21,Ticks_Linear_5,63,9999,9999,9999,805277816
119,7,21,Ticks_Linear_5,64,9999,9999,9999,805877864
119,7,21,Ticks_Linear_5,65,9999,9999,9999,806487152
119,7,21,Ticks_Linear_5,66,9999,9999,9999,807097460
119,7,21,Ticks_Linear_5,67,9999,9999,9999,807707716
119,7,21,Ticks_Linear_5,68,9999,9999,9999,808318024
119,7,21,Ticks_Linear_5,69,9999,9999,9999,808927360
119,7,21,Ticks_Linear_5,70,9999,9999,9999,809547876
119,7,21,Ticks_Linear_5,71,9999,9999,9999,810167396
119,7,21,Ticks_Linear_5,72,9999,9999,9999,810787912
119,7,21,Ticks_Linear_5,73,9999,9999,9999,811407432
119,7,21,Ticks_Linear_5,74,9999,9999,9999,812027996
119,7,21,Ticks_Linear_5,75,9999,9999,9999,812657728
119,7,21,Ticks_Linear_5,76,9999,9999,9999,813287508
119,7,21,Ticks_Linear_5,77,9999,9999,9999,813917308
119,7,21,Ticks_Linear_5,78,9999,9999,9999,814548060
119,7,21,Ticks_Linear_5,79,9999,9999,9999,815177792
119,7,21,Ticks_Linear_5,80,9999,9999,9999,815817828
119,7,21,Ticks_Linear_5,81,9999,9999,9999,816457816
119,7,21,Ticks_Linear_5,82,9999,9999,9999,817097780
119,7,21,Ticks_Linear_5,83,9999,9999,9999,817737848
119,7,21,Ticks_Linear_5,84,9999,9999,9999,818377812
119,7,21,Ticks_Linear_5,85,9999,9999,9999,819028060
119,7,21,Ticks_Linear_5,86,9999,9999,9999,819677308
119,7,21,Ticks_Linear_5,87,9999,9999,9999,820327480
119,7,21,Ticks_Linear_5,88,9999,9999,9999,820977780
119,7,21,Ticks_Linear_5,89,9999,9999,9999,821628028
119,7,21,Ticks_Linear_5,90,9999,9999,9999,822287472
119,7,21,Ticks_Linear_5,91,9999,9999,9999,822947896
119,7,21,Ticks_Linear_5,92,9999,9999,9999,823607356
119,7,21,Ticks_Linear_5,93,9999,9999,9999,824267836
119,7,21,Ticks_Linear_5,94,9999,9999,9999,824927304
119,7,21,Ticks_Linear_5,95,9999,9999,9999,825598060
119,7,21,Ticks_Linear_5,96,9999,9999,9999,826267704
119,7,21,Ticks_Linear_5,97,9999,9999,9999,826937424
119,7,21,Ticks_Linear_5,98,9999,9999,9999,827607116
119,7,21,Ticks_Linear_5,99,9999,9999,9999,828277884
119,7,21,Ticks_Linear_5,100,9999,9999,9999,828957788
119,7,21,Ticks_Linear_5,101,9999,9999,9999,829637740
119,7,21,Ticks_Linear_5,102,9999,9999,9999,830317644
119,7,21,Ticks_Linear_5,103,9999,9999,9999,830997600
119,7,21,Ticks_Linear_5,104,9999,9999,9999,831677504
119,7,21,Ticks_Linear_5,105,9999,9999,9999,832367736
119,7,21,Ticks_Linear_5,106,9999,9999,9999,833057908
119,7,21,Ticks_Linear_5,107,9999,9999,9999,833748048
119,7,21,Ticks_Linear_5,108,9999,9999,9999,834437228
119,7,21,Ticks_Linear_5,109,9999,9999,9999,835127376
119,7,21,Ticks_Linear_5,110,9999,9999,9999,835827796
119,7,21,Ticks_Linear_5,111,9999,9999,9999,836527164
119,7,21,Ticks_Linear_5,112,9999,9999,9999,837227584
119,7,21,Ticks_Linear_5,113,9999,9999,9999,837928004
119,7,21,Ticks_Linear_5,114,9999,9999,9999,838627432
119,7,21,Ticks_Linear_5,115,9999,9999,9999,839338036
119,7,21,Ticks_Linear_5,116,9999,9999,9999,840047672
119,7,21,Ticks_Linear_5,117,9999,9999,9999,840757312
119,7,21,Ticks_Linear_5,118,9999,9999,9999,841467964
119,7,21,Ticks_Linear_5,119,9999,9999,9999,842177600
119,7,21,Ticks_Linear_5,120,9999,9999,9999,842897492
119,7,21,Ticks_Linear_5,121,9999,9999,9999,843617384
119,7,21,Ticks_Linear_5,122,9999,9999,9999,844337276
119,7,21,Ticks_Linear_5,123,9999,9999,9999,845057148
119,7,21,Ticks_Linear_5,124,9999,9999,9999,845778012
119,7,21,Ticks_Linear_5,125,9999,9999,9999,846507124
119,7,21,Ticks_Linear_5,126,9999,9999,9999,847237200
119,7,21,Ticks_Linear_5,127,9999,9999,9999,847967348
119,7,21,Ticks_Linear_5,128,9999,9999,9999,848697428
119,7,21,Ticks_Linear_5,129,9999,9999,9999,849427564
119,7,21,Ticks_Linear_5,130,9999,9999,9999,850167896
119,7,21,Ticks_Linear_5,131,9999,9999,9999,850907260
119,7,21,Ticks_Linear_5,132,9999,9999,9999,851647596
119,7,21,Ticks_Linear_5,133,9999,9999,9999,852387932
119,7,21,Ticks_Linear_5,134,9999,9999,9999,853127220
119,7,21,Ticks_Linear_5,135,9999,9999,9999,853877820
119,7,21,Ticks_Linear_5,136,9999,9999,9999,854627444
119,7,21,Ticks_Linear_5,137,9999,9999,9999,855378064
119,7,21,Ticks_Linear_5,138,9999,9999,9999,856127596
119,7,21,Ticks_Linear_5,139,9999,9999,9999,856877140
119,7,21,Ticks_Linear_5,140,9999,9999,9999,857637996
119,7,21,Ticks_Linear_5,141,9999,9999,9999,858397804
119,7,21,Ticks_Linear_5,142,9999,9999,9999,859157588
119,7,21,Ticks_Linear_5,143,9999,9999,9999,859917396
119,7,21,Ticks_Linear_5,144,9999,9999,9999,860677204
119,7,21,Ticks_Linear_5,145,9999,9999,9999,861447272
119,7,21,Ticks_Linear_5,146,9999,9999,9999,862217340
119,7,21,Ticks_Linear_5,147,9999,9999,9999,862987332
119,7,21,Ticks_Linear_5,148,9999,9999,9999,863757404
119,7,21,Ticks_Linear_5,149,9999,9999,9999,864527476
119,7,21,Ticks_Linear_5,150,9999,9999,9999,865307756
119,7,21,Ticks_Linear_5,151,9999,9999,9999,866088000
119,7,21,Ticks_Linear_5,152,9999,9999,9999,866867284
119,7,21,Ticks_Linear_5,153,9999,9999,9999,867647608
119,7,21,Ticks_Linear_5,154,9999,9999,9999,868427860
119,7,21,Ticks_Linear_5,155,9999,9999,9999,869217400
119,7,21,Ticks_Linear_5,156,9999,9999,9999,870007912
119,7,21,Ticks_Linear_5,157,9999,9999,9999,870797376
119,7,21,Ticks_Linear_5,158,9999,9999,9999,871587964
119,7,21,Ticks_Linear_5,159,9999,9999,9999,872377428
119,7,21,Ticks_Linear_5,160,9999,9999,9999,873177160
119,7,21,Ticks_Linear_5,161,9999,9999,9999,873977928
119,7,21,Ticks_Linear_5,162,9999,9999,9999,874777676
119,7,21,Ticks_Linear_5,163,9999,9999,9999,875577436
119,7,21,Ticks_Linear_5,164,9999,9999,9999,876377200
119,7,21,Ticks_Linear_5,165,9999,9999,9999,877187176
119,7,21,Ticks_Linear_5,166,9999,9999,9999,877997156
119,7,21,Ticks_Linear_5,167,9999,9999,9999,878807140
119,7,21,Ticks_Linear_5,168,9999,9999,9999,879617124
119,7,21,Ticks_Linear_5,169,9999,9999,9999,880427136
119,8,20,Ticks_Linear_8,0,5,42,127,889773416
119,8,20,Ticks_Linear_8,1,5,42,127,890593684
119,8,20,Ticks_Linear_8,2,5,42,127,891414192
119,8,20,Ticks_Linear_8,3,1,48,35,892172312
119,8,20,Ticks_Linear_8,4,5,42,127,892234228
119,8,20,Ticks_Linear_8,5,1,48,64,892990620
119,8,20,Ticks_Linear_8,6,5,42,127,893054248
119,8,20,Ticks_Linear_8,7,1,48,55,893796112
119,8,20,Ticks_Linear_8,8,5,42,127,893864304
119,8,20,Ticks_Linear_8,9,1,48,55,894600776
119,8,20,Ticks_Linear_8,10,5,42,127,894674284
119,8,20,Ticks_Linear_8,11,1,48,50,895421556
119,8,20,Ticks_Linear_8,12,5,42,127,895484416
119,8,20,Ticks_Linear_8,13,1,48,50,896243440
119,8,20,Ticks_Linear_8,14,5,42,127,896294348
119,8,20,Ticks_Linear_8,15,1,48,50,897064752
119,8,20,Ticks_Linear_8,16,5,42,127,897104112
119,8,20,Ticks_Linear_8,17,1,48,52,897889412
119,8,20,Ticks_Linear_8,18,5,42,127,897904132
119,8,20,Ticks_Linear_8,19,1,48,48,898697452
119,8,20,Ticks_Linear_8,20,5,42,127,898703856
119,8,20,Ticks_Linear_8,21,1,48,56,899496052
119,8,20,Ticks_Linear_8,22,5,42,127,899503356
119,8,20,Ticks_Linear_8,23,1,48,49,900291348
119,8,20,Ticks_Linear_8,24,5,42,127,900304204
119,8,20,Ticks_Linear_8,25,1,48,52,901093484
119,8,20,Ticks_Linear_8,26,5,42,127,901104076
119,8,20,Ticks_Linear_8,27,1,48,50,901877852
119,8,20,Ticks_Linear_8,28,5,42,127,901893472
119,8,20,Ticks_Linear_8,29,5,42,127,902684088
119,8,20,Ticks_Linear_8,30,1,48,45,902686532
119,8,20,Ticks_Linear_8,31,5,42,127,903473404
119,8,20,Ticks_Linear_8,32,1,48,52,903478472
119,8,20,Ticks_Linear_8,33,5,42,127,904264140
119,8,20,Ticks_Linear_8,34,1,48,44,904283144
119,8,20,Ticks_Linear_8,35,5,42,127,905053532
119,8,20,Ticks_Linear_8,36,1,48,51,905102712
119,8,20,Ticks_Linear_8,37,5,42,127,905833932
119,8,20,Ticks_Linear_8,38,1,48,46,905863492
119,8,20,Ticks_Linear_8,39,5,42,127,906614112
119,8,20,Ticks_Linear_8,40,1,48,43,906633712
119,8,20,Ticks_Linear_8,41,5,42,127,907394364
119,8,20,Ticks_Linear_8,42,1,48,43,907408640
119,8,20,Ticks_Linear_8,43,1,48,45,908179808
119,8,20,Ticks_Linear_8,44,5,42,127,908184120
119,8,20,Ticks_Linear_8,45,1,48,46,908951684
119,8,20,Ticks_Linear_8,46,5,42,127,908964148
119,8,20,Ticks_Linear_8,47,1,48,40,909733848
119,8,20,Ticks_Linear_8,48,5,42,127,909735188
119,8,20,Ticks_Linear_8,49,1,48,47,910499672
119,8,20,Ticks_Linear_8,50,5,42,127,910504284
119,8,20,Ticks_Linear_8,51,5,42,127,911274360
119,8,20,Ticks_Linear_8,52,1,48,47,911278076
119,8,20,Ticks_Linear_8,53,5,42,127,912044580
119,8,20,Ticks_Linear_8,54,1,48,46,912071580
119,8,20,Ticks_Linear_8,55,5,42,127,912813376
119,8,20,Ticks_Linear_8,56,1,48,45,912833800
119,8,20,Ticks_Linear_8,57,5,42,127,913574156
119,8,20,Ticks_Linear_8,58,1,48,47,913605212
119,8,20,Ticks_Linear_8,59,5,42,127,914334040
119,8,20,Ticks_Linear_8,60,1,48,43,914357900
119,8,20,Ticks_Linear_8,61,1,48,45,915071552
119,8,20,Ticks_Linear_8,62,5,42,127,915093768
119,8,20,Ticks_Linear_8,63,1,48,40,915851284
119,8,20,Ticks_Linear_8,64,5,42,127,915853800
119,8,20,Ticks_Linear_8,65,5,42,127,916613692
119,8,20,Ticks_Linear_8,66,1,48,42,916620328
119,8,20,Ticks_Linear_8,67,5,42,127,917364064
119,8,20,Ticks_Linear_8,68,1,48,43,917382392
119,8,20,Ticks_Linear_8,69,5,42,127,918113688
119,8,20,Ticks_Linear_8,70,1,48,44,918129384
119,8,20,Ticks_Linear_8,71,1,48,34,918862164
119,8,20,Ticks_Linear_8,72,5,42,127,918864200
119,8,20,Ticks_Linear_8,73,5,42,127,919613684
119,8,20,Ticks_Linear_8,74,1,48,38,919614652
119,8,20,Ticks_Linear_8,75,1,48,44,920363756
119,8,20,Ticks_Linear_8,76,5,42,127,920365100
119,8,20,Ticks_Linear_8,77,1,48,47,921100500
119,8,20,Ticks_Linear_8,78,5,42,127,921103688
119,8,20,Ticks_Linear_8,79,5,42,127,921844108
119,8,20,Ticks_Linear_8,80,1,48,45,921867376
119,8,20,Ticks_Linear_8,81,1,48,41,922569640
119,8,20,Ticks_Linear_8,82,5,42,127,922584664
119,8,20,Ticks_Linear_8,83,1,48,35,923320764
119,8,20,Ticks_Linear_8,84,5,42,127,923333916
119,8,20,Ticks_Linear_8,85,1,48,29,924073356
119,8,20,Ticks_Linear_8,86,5,42,127,924074848
119,8,20,Ticks_Linear_8,87,5,42,127,924803588
119,8,20,Ticks_Linear_8,88,1,48,44,924840032
119,8,20,Ticks_Linear_8,89,5,42,127,925533744
119,8,20,Ticks_Linear_8,90,1,48,44,925547724
119,8,20,Ticks_Linear_8,91,1,48,43,926256884
119,8,20,Ticks_Linear_8,92,5,42,127,926263740
119,8,20,Ticks_Linear_8,93,1,48,50,926981624
119,8,20,Ticks_Linear_8,94,5,42,127,926993792
119,8,20,Ticks_Linear_8,95,1,48,47,927688404
119,8,20,Ticks_Linear_8,96,5,42,127,927723872
119,8,20,Ticks_Linear_8,97,5,42,127,928443772
119,8,20,Ticks_Linear_8,98,1,48,37,928467188
119,8,20,Ticks_Linear_8,99,5,42,127,929163664
119,8,20,Ticks_Linear_8,100,1,48,42,929179508
119,8,20,Ticks_Linear_8,101,5,42,127,929883556
119,8,20,Ticks_Linear_8,102,1,48,38,929902332
119,8,20,Ticks_Linear_8,103,5,42,127,930604500
119,8,20,Ticks_Linear_8,104,1,48,43,930612792
119,8,20,Ticks_Linear_8,105,5,42,127,931324220
119,8,20,Ticks_Linear_8,106,1,48,47,931331464
119,8,20,Ticks_Linear_8,107,5,42,127,932033852
119,8,20,Ticks_Linear_8,108,1,48,33,932054572
119,8,20,Ticks_Linear_8,109,5,42,127,932743488
119,8,20,Ticks_Linear_8,110,1,48,33,932750348
119,8,20,Ticks_Linear_8,111,1,48,40,933451640
119,8,20,Ticks_Linear_8,112,5,42,127,933454308
119,8,20,Ticks_Linear_8,113,5,42,127,934163804
119,8,20,Ticks_Linear_8,114,1,48,30,934190732
119,8,20,Ticks_Linear_8,115,5,42,127,934873560
119,8,20,Ticks_Linear_8,116,1,48,34,934875572
119,8,20,Ticks_Linear_8,117,5,42,127,935573908
119,8,20,Ticks_Linear_8,118,1,48,29,935614624
119,8,20,Ticks_Linear_8,119,5,42,127,936274404
119,8,20,Ticks_Linear_8,120,1,48,36,936331972
119,8,20,Ticks_Linear_8,121,1,48,31,936969732
119,8,20,Ticks_Linear_8,122,5,42,127,936973672
119,8,20,Ticks_Linear_8,123,1,48,37,937628148
119,8,20,Ticks_Linear_8,124,5,42,127,937674244
119,8,20,Ticks_Linear_8,125,1,48,29,938348488
119,8,20,Ticks_Linear_8,126,5,42,127,938373472
119,8,20,Ticks_Linear_8,127,5,42,127,939063716
119,8,20,Ticks_Linear_8,128,1,48,43,939111776
119,8,20,Ticks_Linear_8,129,1,48,29,939726840
119,8,20,Ticks_Linear_8,130,5,42,127,939753924
119,8,20,Ticks_Linear_8,131,1,48,42,940399036
119,8,20,Ticks_Linear_8,132,5,42,127,940444308
119,8,20,Ticks_Linear_8,133,1,48,37,941112944
119,8,20,Ticks_Linear_8,134,5,42,127,941134548
119,8,20,Ticks_Linear_8,135,1,48,34,941797312
119,8,20,Ticks_Linear_8,136,5,42,127,941824688
119,8,20,Ticks_Linear_8,137,1,48,34,942474900
119,8,20,Ticks_Linear_8,138,5,42,127,942504592
119,8,20,Ticks_Linear_8,139,1,48,32,943159068
119,8,20,Ticks_Linear_8,140,5,42,127,943184424
119,8,20,Ticks_Linear_8,141,1,48,43,943824572
119,8,20,Ticks_Linear_8,142,5,42,127,943864228
119,8,20,Ticks_Linear_8,143,1,48,43,944539972
119,8,20,Ticks_Linear_8,144,5,42,127,944544284
119,8,20,Ticks_Linear_8,145,5,42,127,945224192
119,8,20,Ticks_Linear_8,146,1,48,38,945227916
119,8,20,Ticks_Linear_8,147,1,48,37,945872576
119,8,20,Ticks_Linear_8,148,5,42,127,945893732
119,8,20,Ticks_Linear_8,149,1,48,28,946532188
119,8,20,Ticks_Linear_8,150,5,42,127,946563532
119,8,20,Ticks_Linear_8,151,1,48,34,947210860
119,8,20,Ticks_Linear_8,152,5,42,127,947234296
119,8,20,Ticks_Linear_8,153,1,48,29,947851464
119,8,20,Ticks_Linear_8,154,5,42,127,947903992
119,8,20,Ticks_Linear_8,155,1,48,40,948531052
119,8,20,Ticks_Linear_8,156,5,42,127,948573564
119,8,20,Ticks_Linear_8,157,1,48,35,949216332
119,8,20,Ticks_Linear_8,158,5,42,127,949233968
119,8,20,Ticks_Linear_8,159,1,48,40,949871752
119,8,20,Ticks_Linear_8,160,5,42,127,949893504
119,8,20,Ticks_Linear_8,161,5,42,127,950553944
119,8,20,Ticks_Linear_8,162,1,48,32,950559232
119,8,20,Ticks_Linear_8,163,1,48,26,951195432
119,8,20,Ticks_Linear_8,164,5,42,127,951213372
119,8,20,Ticks_Linear_8,165,1,48,33,951848004
119,8,20,Ticks_Linear_8,166,5,42,127,951874028
119,8,20,Ticks_Linear_8,167,1,48,21,952505940
119,8,20,Ticks_Linear_8,168,5,42,127,952524400
119,8,20,Ticks_Linear_8,169,5,42,127,953174356
119,8,20,Ticks_Linear_8,170,1,48,39,953180248
119,8,20,Ticks_Linear_8,171,1,48,35,953818836
119,8,20,Ticks_Linear_8,172,5,42,127,953823600
119,8,20,Ticks_Linear_8,173,1,48,30,954439504
119,8,20,Ticks_Linear_8,174,5,42,127,954473996
119,8,20,Ticks_Linear_8,175,1,48,33,955116168
119,8,20,Ticks_Linear_8,176,5,42,127,955124148
119,8,20,Ticks_Linear_8,177,1,48,26,955758252
119,8,20,Ticks_Linear_8,178,5,42,127,955764136
119,8,20,Ticks_Linear_8,179,1,48,30,956399712
119,8,20,Ticks_Linear_8,180,5,42,127,956404248
119,8,20,Ticks_Linear_8,181,5,42,127,957044320
119,8,20,Ticks_Linear_8,182,1,48,35,957051032
119,8,20,Ticks_Linear_8,183,5,42,127,957684060
119,8,20,Ticks_Linear_8,184,1,48,28,957696468
119,8,20,Ticks_Linear_8,185,1,48,37,958319500
119,8,20,Ticks_Linear_8,186,5,42,127,958324192
119,8,20,Ticks_Linear_8,187,1,48,29,958926972
119,8,20,Ticks_Linear_8,188,5,42,127,958953748
119,8,20,Ticks_Linear_8,189,1,48,30,959578120
119,8,20,Ticks_Linear_8,190,5,42,127,959583476
119,8,20,Ticks_Linear_8,191,1,48,40,960200252
119,8,20,Ticks_Linear_8,192,5,42,127,960214452
119,8,20,Ticks_Linear_8,193,1,48,29,960828860
119,8,20,Ticks_Linear_8,194,5,42,127,960844332
119,8,20,Ticks_Linear_8,195,5,42,127,961474192
119,8,20,Ticks_Linear_8,196,1,48,29,961488396
119,8,20,Ticks_Linear_8,197,1,48,28,962093440
119,8,20,Ticks_Linear_8,198,5,42,127,962094776
119,8,20,Ticks_Linear_8,199,1,48,41,962713252
119,8,20,Ticks_Linear_8,200,5,42,127,962714896
119,8,20,Ticks_Linear_8,201,5,42,127,963333452
119,8,20,Ticks_Linear_8,202,1,48,33,963339636
119,8,20,Ticks_Linear_8,203,1,48,36,963935944
119,8,20,Ticks_Linear_8,204,5,42,127,963953960
119,8,20,Ticks_Linear_8,205,1,48,37,964570736
119,8,20,Ticks_Linear_8,206,5,42,127,964573556
119,8,20,Ticks_Linear_8,207,5,42,127,965184044
119,8,20,Ticks_Linear_8,208,1,48,30,965186644
119,8,20,Ticks_Linear_8,209,5,42,127,965794204
119,8,20,Ticks_Linear_8,210,1,48,31,965818516
119,8,20,Ticks_Linear_8,211,5,42,127,966403316
119,8,20,Ticks_Linear_8,212,1,48,14,966415944
119,8,20,Ticks_Linear_8,213,1,48,25,966420432
119,8,20,Ticks_Linear_8,214,1,48,26,967009532
119,8,20,Ticks_Linear_8,215,5,42,127,967013844
119,8,20,Ticks_Linear_8,216,1,48,36,967616320
119,8,20,Ticks_Linear_8,217,5,42,127,967624004
119,8,20,Ticks_Linear_8,218,5,42,127,968224084
119,8,20,Ticks_Linear_8,219,1,48,29,968233200
119,8,20,Ticks_Linear_8,220,5,42,127,968824056
119,8,20,Ticks_Linear_8,221,1,48,30,968843508
119,8,20,Ticks_Linear_8,222,1,48,13,969420984
119,8,20,Ticks_Linear_8,223,5,42,127,969424396
119,8,20,Ticks_Linear_8,224,1,48,13,970022888
119,8,20,Ticks_Linear_8,225,5,42,127,970024396
119,8,20,Ticks_Linear_8,226,1,48,15,970611072
119,8,20,Ticks_Linear_8,227,1,48,26,970615548
119,8,20,Ticks_Linear_8,228,5,42,127,970624352
119,8,20,Ticks_Linear_8,229,1,48,13,971202048
119,8,20,Ticks_Linear_8,230,1,48,24,971206512
119,8,20,Ticks_Linear_8,231,5,42,127,971214120
119,8,20,Ticks_Linear_8,232,1,48,14,971792792
119,8,20,Ticks_Linear_8,233,1,48,24,971797180
119,8,20,Ticks_Linear_8,234,5,42,127,971804112
119,8,20,Ticks_Linear_8,235,5,42,127,972393908
119,8,20,Ticks_Linear_8,236,1,48,15,972395920
119,8,20,Ticks_Linear_8,237,5,42,127,972983696
119,8,20,Ticks_Linear_8,238,1,48,16,973002472
119,8,20,Ticks_Linear_8,239,1,48,46,973557636
119,8,20,Ticks_Linear_8,240,5,42,127,973573484
119,8,20,Ticks_Linear_8,241,1,48,53,974142436
119,8,20,Ticks_Linear_8,242,5,42,127,974154084
119,8,20,Ticks_Linear_8,243,1,48,55,974726608
119,8,20,Ticks_Linear_8,244,5,42,127,974733764
119,8,20,Ticks_Linear_8,245,1,48,55,975308380
119,8,20,Ticks_Linear_8,246,5,42,127,975314416
119,8,20,Ticks_Linear_8,247,5,42,127,975893904
119,8,20,Ticks_Linear_8,248,1,48,54,975895916
119,8,20,Ticks_Linear_8,249,5,42,127,976473432
119,8,20,Ticks_Linear_8,250,1,48,53,976489804
119,8,20,Ticks_Linear_8,251,5,42,127,977043900
119,8,20,Ticks_Linear_8,252,1,48,52,977078844
119,8,20,Ticks_Linear_8,253,5,42,127,977614220
119,8,20,Ticks_Linear_8,254,1,48,51,977640024
119,8,20,Ticks_Linear_8,255,5,42,127,978183416
119,8,20,Ticks_Linear_8,256,1,48,51,978212028
119,8,20,Ticks_Linear_8,257,5,42,127,978754056
119,8,20,Ticks_Linear_8,258,1,48,40,978789452
119,8,20,Ticks_Linear_8,259,5,42,127,979324376
119,8,20,Ticks_Linear_8,260,1,48,44,979353408
119,8,20,Ticks_Linear_8,261,5,42,127,979884512
119,8,20,Ticks_Linear_8,262,1,48,46,979947020
119,8,20,Ticks_Linear_8,263,5,42,127,980443448
119,8,20,Ticks_Linear_8,264,1,48,48,980505008
119,8,20,Ticks_Linear_8,265,5,42,127,981004104
119,8,20,Ticks_Linear_8,266,1,48,44,981013320
119,8,20,Ticks_Linear_8,267,1,48,47,981553368
119,8,20,Ticks_Linear_8,268,5,42,127,981564036
119,8,20,Ticks_Linear_8,269,1,48,44,982116336
119,8,20,Ticks_Linear_8,270,5,42,127,982124020
119,8,20,Ticks_Linear_8,271,5,42,127,982673752
119,8,20,Ticks_Linear_8,272,1,48,46,982678892
119,8,20,Ticks_Linear_8,273,1,48,44,983222040
119,8,20,Ticks_Linear_8,274,5,42,127,983223772
119,8,20,Ticks_Linear_8,275,1,48,43,983763868
119,8,20,Ticks_Linear_8,276,5,42,127,983773496
119,8,20,Ticks_Linear_8,277,1,48,42,984310368
119,8,20,Ticks_Linear_8,278,5,42,127,984323668
119,8,20,Ticks_Linear_8,279,1,48,43,984844748
119,8,20,Ticks_Linear_8,280,5,42,127,984874540
119,8,20,Ticks_Linear_8,281,5,42,127,985413864
119,8,20,Ticks_Linear_8,282,1,48,38,985428588
119,8,20,Ticks_Linear_8,283,5,42,127,985953852
119,8,20,Ticks_Linear_8,284,1,48,43,985985504
119,8,20,Ticks_Linear_8,285,5,42,127,986494292
119,8,20,Ticks_Linear_8,286,1,48,41,986535456
119,8,20,Ticks_Linear_8,287,1,48,44,987009144
119,8,20,Ticks_Linear_8,288,5,42,127,987034052
119,8,20,Ticks_Linear_8,289,1,48,48,987527112
119,8,20,Ticks_Linear_8,290,5,42,127,987573812
119,8,20,Ticks_Linear_8,291,1,48,47,988086200
119,8,20,Ticks_Linear_8,292,5,42,127,988103996
119,8,20,Ticks_Linear_8,293,1,48,47,988621468
119,8,20,Ticks_Linear_8,294,5,42,127,988633724
119,8,20,Ticks_Linear_8,295,5,42,127,989163988
119,8,20,Ticks_Linear_8,296,1,48,47,989165400
119,8,20,Ticks_Linear_8,297,5,42,127,989694316
119,8,20,Ticks_Linear_8,298,1,48,39,989720444
119,8,20,Ticks_Linear_8,299,5,42,127,990223748
119,8,20,Ticks_Linear_8,300,1,48,45,990251140
119,8,20,Ticks_Linear_8,301,5,42,127,990743892
119,8,20,Ticks_Linear_8,302,1,48,46,990758916
119,8,20,Ticks_Linear_8,303,5,42,127,991264108
119,8,20,Ticks_Linear_8,304,1,48,41,991278908
119,8,20,Ticks_Linear_8,305,5,42,127,991784252
119,8,20,Ticks_Linear_8,306,1,48,42,991809616
119,8,20,Ticks_Linear_8,307,5,42,127,992303648
119,8,20,Ticks_Linear_8,308,1,48,47,992334776
119,8,20,Ticks_Linear_8,309,1,48,31,992824092
119,8,20,Ticks_Linear_8,310,5,42,127,992825132
119,8,20,Ticks_Linear_8,311,5,42,127,993333828
119,8,20,Ticks_Linear_8,312,1,48,43,993343992
119,8,20,Ticks_Linear_8,313,5,42,127,993844012
119,8,20,Ticks_Linear_8,314,1,48,40,993853128
119,8,20,Ticks_Linear_8,315,5,42,127,994353676
119,8,20,Ticks_Linear_8,316,1,48,38,994380228
119,8,20,Ticks_Linear_8,317,5,42,127,994863408
119,8,20,Ticks_Linear_8,318,1,48,39,994877612
119,8,20,Ticks_Linear_8,319,5,42,127,995373592
119,8,20,Ticks_Linear_8,320,1,48,38,995374928
119,8,20,Ticks_Linear_8,321,5,42,127,995874116
119,8,20,Ticks_Linear_8,322,1,48,47,995890560
119,8,20,Ticks_Linear_8,323,5,42,127,996373888
119,8,20,Ticks_Linear_8,324,1,48,46,996396108
119,8,20,Ticks_Linear_8,325,1,48,41,996866024
119,8,20,Ticks_Linear_8,326,5,42,127,996873560
119,8,20,Ticks_Linear_8,327,5,42,127,997374612
119,8,20,Ticks_Linear_8,328,1,48,36,997379900
119,8,20,Ticks_Linear_8,329,5,42,127,997874164
119,8,20,Ticks_Linear_8,330,1,48,38,997881248
119,8,20,Ticks_Linear_8,331,5,42,127,998363604
119,8,20,Ticks_Linear_8,332,1,48,23,998379448
119,8,20,Ticks_Linear_8,333,5,42,127,998854092
119,8,20,Ticks_Linear_8,334,1,48,46,998874736
119,8,20,Ticks_Linear_8,335,5,42,127,999343828
119,8,20,Ticks_Linear_8,336,1,48,42,999348748
119,8,20,Ticks_Linear_8,337,5,42,127,999833872
119,8,20,Ticks_Linear_8,338,1,48,37,999847472
119,8,20,Ticks_Linear_8,339,1,48,44,1000308432
119,8,20,Ticks_Linear_8,340,5,42,127,1000323528
119,8,20,Ticks_Linear_8,0,9999,9999,9999,889771120
119,8,20,Ticks_Linear_8,1,9999,9999,9999,890591308
119,8,20,Ticks_Linear_8,2,9999,9999,9999,891411572
119,8,20,Ticks_Linear_8,3,9999,9999,9999,892231780
119,8,20,Ticks_Linear_8,4,9999,9999,9999,893052020
119,8,20,Ticks_Linear_8,5,9999,9999,9999,893862004
119,8,20,Ticks_Linear_8,6,9999,9999,9999,894671988
119,8,20,Ticks_Linear_8,7,9999,9999,9999,895481968
119,8,20,Ticks_Linear_8,8,9999,9999,9999,896291904
119,8,20,Ticks_Linear_8,9,9999,9999,9999,897101884
119,8,20,Ticks_Linear_8,10,9999,9999,9999,897901688
119,8,20,Ticks_Linear_8,11,9999,9999,9999,898701412
119,8,20,Ticks_Linear_8,12,9999,9999,9999,899501132
119,8,20,Ticks_Linear_8,13,9999,9999,9999,900301904
119,8,20,Ticks_Linear_8,14,9999,9999,9999,901101628
119,8,20,Ticks_Linear_8,15,9999,9999,9999,901891172
119,8,20,Ticks_Linear_8,16,9999,9999,9999,902681716
119,8,20,Ticks_Linear_8,17,9999,9999,9999,903471180
119,8,20,Ticks_Linear_8,18,9999,9999,9999,904261692
119,8,20,Ticks_Linear_8,19,9999,9999,9999,905051232
119,8,20,Ticks_Linear_8,20,9999,9999,9999,905831484
119,8,20,Ticks_Linear_8,21,9999,9999,9999,906611812
119,8,20,Ticks_Linear_8,22,9999,9999,9999,907392064
119,8,20,Ticks_Linear_8,23,9999,9999,9999,908181596
119,8,20,Ticks_Linear_8,24,9999,9999,9999,908961848
119,8,20,Ticks_Linear_8,25,9999,9999,9999,909731924
119,8,20,Ticks_Linear_8,26,9999,9999,9999,910501988
119,8,20,Ticks_Linear_8,27,9999,9999,9999,911272060
119,8,20,Ticks_Linear_8,28,9999,9999,9999,912042056
119,8,20,Ticks_Linear_8,29,9999,9999,9999,912811076
119,8,20,Ticks_Linear_8,30,9999,9999,9999,913571932
119,8,20,Ticks_Linear_8,31,9999,9999,9999,914331740
119,8,20,Ticks_Linear_8,32,9999,9999,9999,915091544
119,8,20,Ticks_Linear_8,33,9999,9999,9999,915851352
119,8,20,Ticks_Linear_8,34,9999,9999,9999,916611168
119,8,20,Ticks_Linear_8,35,9999,9999,9999,917361764
119,8,20,Ticks_Linear_8,36,9999,9999,9999,918111316
119,8,20,Ticks_Linear_8,37,9999,9999,9999,918861940
119,8,20,Ticks_Linear_8,38,9999,9999,9999,919611460
119,8,20,Ticks_Linear_8,39,9999,9999,9999,920362056
119,8,20,Ticks_Linear_8,40,9999,9999,9999,921101392
119,8,20,Ticks_Linear_8,41,9999,9999,9999,921841736
119,8,20,Ticks_Linear_8,42,9999,9999,9999,922582140
119,8,20,Ticks_Linear_8,43,9999,9999,9999,923331692
119,8,20,Ticks_Linear_8,44,9999,9999,9999,924072036
119,8,20,Ticks_Linear_8,45,9999,9999,9999,924801140
119,8,20,Ticks_Linear_8,46,9999,9999,9999,925531220
119,8,20,Ticks_Linear_8,47,9999,9999,9999,926261368
119,8,20,Ticks_Linear_8,48,9999,9999,9999,926991420
119,8,20,Ticks_Linear_8,49,9999,9999,9999,927721572
119,8,20,Ticks_Linear_8,50,9999,9999,9999,928441396
119,8,20,Ticks_Linear_8,51,9999,9999,9999,929161292
119,8,20,Ticks_Linear_8,52,9999,9999,9999,929881184
119,8,20,Ticks_Linear_8,53,9999,9999,9999,930602048
119,8,20,Ticks_Linear_8,54,9999,9999,9999,931321920
119,8,20,Ticks_Linear_8,55,9999,9999,9999,932031552
119,8,20,Ticks_Linear_8,56,9999,9999,9999,932741188
119,8,20,Ticks_Linear_8,57,9999,9999,9999,933451864
119,8,20,Ticks_Linear_8,58,9999,9999,9999,934161480
119,8,20,Ticks_Linear_8,59,9999,9999,9999,934871112
119,8,20,Ticks_Linear_8,60,9999,9999,9999,935571536
119,8,20,Ticks_Linear_8,61,9999,9999,9999,936271956
119,8,20,Ticks_Linear_8,62,9999,9999,9999,936971376
119,8,20,Ticks_Linear_8,63,9999,9999,9999,937671796
119,8,20,Ticks_Linear_8,64,9999,9999,9999,938371172
119,8,20,Ticks_Linear_8,65,9999,9999,9999,939061344
119,8,20,Ticks_Linear_8,66,9999,9999,9999,939751548
119,8,20,Ticks_Linear_8,67,9999,9999,9999,940441712
119,8,20,Ticks_Linear_8,68,9999,9999,9999,941131876
119,8,20,Ticks_Linear_8,69,9999,9999,9999,941822020
119,8,20,Ticks_Linear_8,70,9999,9999,9999,942502000
119,8,20,Ticks_Linear_8,71,9999,9999,9999,943181904
119,8,20,Ticks_Linear_8,72,9999,9999,9999,943861856
119,8,20,Ticks_Linear_8,73,9999,9999,9999,944541760
119,8,20,Ticks_Linear_8,74,9999,9999,9999,945221744
119,8,20,Ticks_Linear_8,75,9999,9999,9999,945891436
119,8,20,Ticks_Linear_8,76,9999,9999,9999,946561084
119,8,20,Ticks_Linear_8,77,9999,9999,9999,947231848
119,8,20,Ticks_Linear_8,78,9999,9999,9999,947901544
119,8,20,Ticks_Linear_8,79,9999,9999,9999,948571188
119,8,20,Ticks_Linear_8,80,9999,9999,9999,949231672
119,8,20,Ticks_Linear_8,81,9999,9999,9999,949891132
119,8,20,Ticks_Linear_8,82,9999,9999,9999,950551644
119,8,20,Ticks_Linear_8,83,9999,9999,9999,951211076
119,8,20,Ticks_Linear_8,84,9999,9999,9999,951871580
119,8,20,Ticks_Linear_8,85,9999,9999,9999,952521804
119,8,20,Ticks_Linear_8,86,9999,9999,9999,953172060
119,8,20,Ticks_Linear_8,87,9999,9999,9999,953821304
119,8,20,Ticks_Linear_8,88,9999,9999,9999,954471552
119,8,20,Ticks_Linear_8,89,9999,9999,9999,955121776
119,8,20,Ticks_Linear_8,90,9999,9999,9999,955761764
119,8,20,Ticks_Linear_8,91,9999,9999,9999,956401724
119,8,20,Ticks_Linear_8,92,9999,9999,9999,957041724
119,8,20,Ticks_Linear_8,93,9999,9999,9999,957681760
119,8,20,Ticks_Linear_8,94,9999,9999,9999,958321744
119,8,20,Ticks_Linear_8,95,9999,9999,9999,958951524
119,8,20,Ticks_Linear_8,96,9999,9999,9999,959581252
119,8,20,Ticks_Linear_8,97,9999,9999,9999,960212080
119,8,20,Ticks_Linear_8,98,9999,9999,9999,960841808
119,8,20,Ticks_Linear_8,99,9999,9999,9999,961471596
119,8,20,Ticks_Linear_8,100,9999,9999,9999,962091068
119,8,20,Ticks_Linear_8,101,9999,9999,9999,962711632
119,8,20,Ticks_Linear_8,102,9999,9999,9999,963331152
119,8,20,Ticks_Linear_8,103,9999,9999,9999,963951736
119,8,20,Ticks_Linear_8,104,9999,9999,9999,964571256
119,8,20,Ticks_Linear_8,105,9999,9999,9999,965181520
119,8,20,Ticks_Linear_8,106,9999,9999,9999,965791832
119,8,20,Ticks_Linear_8,107,9999,9999,9999,966401092
119,8,20,Ticks_Linear_8,108,9999,9999,9999,967011396
119,8,20,Ticks_Linear_8,109,9999,9999,9999,967621704
119,8,20,Ticks_Linear_8,110,9999,9999,9999,968221784
119,8,20,Ticks_Linear_8,111,9999,9999,9999,968821832
119,8,20,Ticks_Linear_8,112,9999,9999,9999,969421948
119,8,20,Ticks_Linear_8,113,9999,9999,9999,970021952
119,8,20,Ticks_Linear_8,114,9999,9999,9999,970622052
119,8,20,Ticks_Linear_8,115,9999,9999,9999,971211896
119,8,20,Ticks_Linear_8,116,9999,9999,9999,971801664
119,8,20,Ticks_Linear_8,117,9999,9999,9999,972391536
119,8,20,Ticks_Linear_8,118,9999,9999,9999,972981324
119,8,20,Ticks_Linear_8,119,9999,9999,9999,973571184
119,8,20,Ticks_Linear_8,120,9999,9999,9999,974151788
119,8,20,Ticks_Linear_8,121,9999,9999,9999,974731392
119,8,20,Ticks_Linear_8,122,9999,9999,9999,975311968
119,8,20,Ticks_Linear_8,123,9999,9999,9999,975891528
119,8,20,Ticks_Linear_8,124,9999,9999,9999,976471136
119,8,20,Ticks_Linear_8,125,9999,9999,9999,977041528
119,8,20,Ticks_Linear_8,126,9999,9999,9999,977611844
119,8,20,Ticks_Linear_8,127,9999,9999,9999,978181192
119,8,20,Ticks_Linear_8,128,9999,9999,9999,978751608
119,8,20,Ticks_Linear_8,129,9999,9999,9999,979321928
119,8,20,Ticks_Linear_8,130,9999,9999,9999,979882064
119,8,20,Ticks_Linear_8,131,9999,9999,9999,980441148
119,8,20,Ticks_Linear_8,132,9999,9999,9999,981001284
119,8,20,Ticks_Linear_8,133,9999,9999,9999,981561440
119,8,20,Ticks_Linear_8,134,9999,9999,9999,982121572
119,8,20,Ticks_Linear_8,135,9999,9999,9999,982671452
119,8,20,Ticks_Linear_8,136,9999,9999,9999,983221336
119,8,20,Ticks_Linear_8,137,9999,9999,9999,983771200
119,8,20,Ticks_Linear_8,138,9999,9999,9999,984321148
119,8,20,Ticks_Linear_8,139,9999,9999,9999,984872020
119,8,20,Ticks_Linear_8,140,9999,9999,9999,985411640
119,8,20,Ticks_Linear_8,141,9999,9999,9999,985951328
119,8,20,Ticks_Linear_8,142,9999,9999,9999,986491992
119,8,20,Ticks_Linear_8,143,9999,9999,9999,987031676
119,8,20,Ticks_Linear_8,144,9999,9999,9999,987571292
119,8,20,Ticks_Linear_8,145,9999,9999,9999,988101696
119,8,20,Ticks_Linear_8,146,9999,9999,9999,988631128
119,8,20,Ticks_Linear_8,147,9999,9999,9999,989161540
119,8,20,Ticks_Linear_8,148,9999,9999,9999,989692016
119,8,20,Ticks_Linear_8,149,9999,9999,9999,990221372
119,8,20,Ticks_Linear_8,150,9999,9999,9999,990741592
119,8,20,Ticks_Linear_8,151,9999,9999,9999,991261812
119,8,20,Ticks_Linear_8,152,9999,9999,9999,991781956
119,8,20,Ticks_Linear_8,153,9999,9999,9999,992301128
119,8,20,Ticks_Linear_8,154,9999,9999,9999,992821348
119,8,20,Ticks_Linear_8,155,9999,9999,9999,993331308
119,8,20,Ticks_Linear_8,156,9999,9999,9999,993841268
119,8,20,Ticks_Linear_8,157,9999,9999,9999,994351228
119,8,20,Ticks_Linear_8,158,9999,9999,9999,994861112
119,8,20,Ticks_Linear_8,159,9999,9999,9999,995371068
119,8,20,Ticks_Linear_8,160,9999,9999,9999,995871816
119,8,20,Ticks_Linear_8,161,9999,9999,9999,996371516
119,8,20,Ticks_Linear_8,162,9999,9999,9999,996871260
119,8,20,Ticks_Linear_8,163,9999,9999,9999,997372016
119,8,20,Ticks_Linear_8,164,9999,9999,9999,997871716
119,8,20,Ticks_Linear_8,165,9999,9999,9999,998361156
119,8,20,Ticks_Linear_8,166,9999,9999,9999,998851644
119,8,20,Ticks_Linear_8,167,9999,9999,9999,999341160
119,8,20,Ticks_Linear_8,168,9999,9999,9999,999831648
119,8,20,Ticks_Linear_8,169,9999,9999,9999,1000321080
119,9,10,Ticks_ISO_T2_5,0,5,42,127,1008762336
119,9,10,Ticks_ISO_T2_5,1,5,42,127,1009261832
119,9,10,Ticks_ISO_T2_5,2,1,48,46,1009709520
119,9,10,Ticks_ISO_T2_5,3,5,42,127,1009761764
119,9,10,Ticks_ISO_T2_5,4,1,48,72,1010215496
119,9,10,Ticks_ISO_T2_5,5,5,42,127,1010262356
119,9,10,Ticks_ISO_T2_5,6,1,48,64,1010727016
119,9,10,Ticks_ISO_T2_5,7,5,42,127,1010762128
119,9,10,Ticks_ISO_T2_5,8,1,48,59,1011254608
119,9,10,Ticks_ISO_T2_5,9,5,42,127,1011261748
119,9,10,Ticks_ISO_T2_5,10,5,42,127,1011761672
119,9,10,Ticks_ISO_T2_5,11,1,48,63,1011764940
119,9,10,Ticks_ISO_T2_5,12,1,48,58,1012257136
119,9,10,Ticks_ISO_T2_5,13,5,42,127,1012262180
119,9,10,Ticks_ISO_T2_5,14,1,48,58,1012759000
119,9,10,Ticks_ISO_T2_5,15,5,42,127,1012762100
119,9,10,Ticks_ISO_T2_5,16,5,42,127,1013261700
119,9,10,Ticks_ISO_T2_5,17,1,48,54,1013264316
119,9,10,Ticks_ISO_T2_5,18,1,48,52,1013737868
119,9,10,Ticks_ISO_T2_5,19,5,42,127,1013762360
119,9,10,Ticks_ISO_T2_5,20,5,42,127,1014262212
119,9,10,Ticks_ISO_T2_5,21,1,48,50,1014281264
119,9,10,Ticks_ISO_T2_5,22,5,42,127,1014761904
119,9,10,Ticks_ISO_T2_5,23,1,48,53,1014780208
119,9,10,Ticks_ISO_T2_5,24,5,42,127,1015261524
119,9,10,Ticks_ISO_T2_5,25,1,48,55,1015274744
119,9,10,Ticks_ISO_T2_5,26,5,42,127,1015762416
119,9,10,Ticks_ISO_T2_5,27,1,48,51,1015775108
119,9,10,Ticks_ISO_T2_5,28,1,48,52,1016260904
119,9,10,Ticks_ISO_T2_5,29,5,42,127,1016262548
119,9,10,Ticks_ISO_T2_5,30,5,42,127,1016761656
119,9,10,Ticks_ISO_T2_5,31,1,48,50,1016774052
119,9,10,Ticks_ISO_T2_5,32,5,42,127,1017261500
119,9,10,Ticks_ISO_T2_5,33,1,48,55,1017267684
119,9,10,Ticks_ISO_T2_5,34,1,48,45,1017762240
119,9,10,Ticks_ISO_T2_5,35,5,42,127,1017763428
119,9,10,Ticks_ISO_T2_5,36,5,42,127,1018262008
119,9,10,Ticks_ISO_T2_5,37,1,48,49,1018281732
119,9,10,Ticks_ISO_T2_5,38,5,42,127,1018761556
119,9,10,Ticks_ISO_T2_5,39,1,48,51,1018776340
119,9,10,Ticks_ISO_T2_5,40,5,42,127,1019262224
119,9,10,Ticks_ISO_T2_5,41,1,48,47,1019272820
119,9,10,Ticks_ISO_T2_5,42,1,48,49,1019760548
119,9,10,Ticks_ISO_T2_5,43,5,42,127,1019761984
119,9,10,Ticks_ISO_T2_5,44,1,48,50,1020251844
119,9,10,Ticks_ISO_T2_5,45,5,42,127,1020261752
119,9,10,Ticks_ISO_T2_5,46,1,48,49,1020753336
119,9,10,Ticks_ISO_T2_5,47,5,42,127,1020761448
119,9,10,Ticks_ISO_T2_5,48,1,48,49,1021234332
119,9,10,Ticks_ISO_T2_5,49,5,42,127,1021262264
119,9,10,Ticks_ISO_T2_5,50,1,48,49,1021750176
119,9,10,Ticks_ISO_T2_5,51,5,42,127,1021761808
119,9,10,Ticks_ISO_T2_5,52,5,42,127,1022261584
119,9,10,Ticks_ISO_T2_5,53,1,48,48,1022278612
119,9,10,Ticks_ISO_T2_5,54,1,48,46,1022756744
119,9,10,Ticks_ISO_T2_5,55,5,42,127,1022762320
119,9,10,Ticks_ISO_T2_5,56,1,48,44,1023262172
119,9,10,Ticks_ISO_T2_5,57,5,42,127,1023263508
119,9,10,Ticks_ISO_T2_5,58,5,42,127,1023761720
119,9,10,Ticks_ISO_T2_5,59,1,48,42,1023771344
119,9,10,Ticks_ISO_T2_5,60,5,42,127,1024261612
119,9,10,Ticks_ISO_T2_5,61,1,48,43,1024286668
119,9,10,Ticks_ISO_T2_5,62,5,42,127,1024762280
119,9,10,Ticks_ISO_T2_5,63,1,48,42,1024784576
119,9,10,Ticks_ISO_T2_5,64,5,42,127,1025262124
119,9,10,Ticks_ISO_T2_5,65,1,48,44,1025273172
119,9,10,Ticks_ISO_T2_5,66,5,42,127,1025761668
119,9,10,Ticks_ISO_T2_5,67,1,48,47,1025783864
119,9,10,Ticks_ISO_T2_5,68,1,48,44,1026257140
119,9,10,Ticks_ISO_T2_5,69,5,42,127,1026262404
119,9,10,Ticks_ISO_T2_5,70,5,42,127,1026762256
119,9,10,Ticks_ISO_T2_5,71,1,48,45,1026773456
119,9,10,Ticks_ISO_T2_5,72,5,42,127,1027261728
119,9,10,Ticks_ISO_T2_5,73,1,48,46,1027296184
119,9,10,Ticks_ISO_T2_5,74,5,42,127,1027761496
119,9,10,Ticks_ISO_T2_5,75,1,48,51,1027782192
119,9,10,Ticks_ISO_T2_5,76,5,42,127,1028262164
119,9,10,Ticks_ISO_T2_5,77,1,48,47,1028277548
119,9,10,Ticks_ISO_T2_5,78,5,42,127,1028762080
119,9,10,Ticks_ISO_T2_5,79,1,48,43,1028780008
119,9,10,Ticks_ISO_T2_5,80,1,48,46,1029255672
119,9,10,Ticks_ISO_T2_5,81,5,42,127,1029261768
119,9,10,Ticks_ISO_T2_5,82,5,42,127,1029762368
119,9,10,Ticks_ISO_T2_5,83,1,48,48,1029782692
119,9,10,Ticks_ISO_T2_5,84,5,42,127,1030262212
119,9,10,Ticks_ISO_T2_5,85,1,48,42,1030296596
119,9,10,Ticks_ISO_T2_5,86,5,42,127,1030761908
119,9,10,Ticks_ISO_T2_5,87,1,48,47,1030777440
119,9,10,Ticks_ISO_T2_5,88,1,48,44,1031250712
119,9,10,Ticks_ISO_T2_5,89,5,42,127,1031261520
119,9,10,Ticks_ISO_T2_5,90,5,42,127,1031762268
119,9,10,Ticks_ISO_T2_5,91,1,48,45,1031766508
119,9,10,Ticks_ISO_T2_5,92,5,42,127,1032262184
119,9,10,Ticks_ISO_T2_5,93,1,48,43,1032288040
119,9,10,Ticks_ISO_T2_5,94,5,42,127,1032761732
119,9,10,Ticks_ISO_T2_5,95,1,48,42,1032773376
119,9,10,Ticks_ISO_T2_5,96,5,42,127,1033261352
119,9,10,Ticks_ISO_T2_5,97,1,48,43,1033280324
119,9,10,Ticks_ISO_T2_5,98,5,42,127,1033762168
119,9,10,Ticks_ISO_T2_5,99,1,48,43,1033774336
119,9,10,Ticks_ISO_T2_5,100,5,42,127,1034262232
119,9,10,Ticks_ISO_T2_5,101,1,48,51,1034281880
119,9,10,Ticks_ISO_T2_5,102,5,42,127,1034761532
119,9,10,Ticks_ISO_T2_5,103,1,48,53,1034780452
119,9,10,Ticks_ISO_T2_5,104,5,42,127,1035262272
119,9,10,Ticks_ISO_T2_5,105,1,48,45,1035284640
119,9,10,Ticks_ISO_T2_5,106,1,48,46,1035762340
119,9,10,Ticks_ISO_T2_5,107,5,42,127,1035763600
119,9,10,Ticks_ISO_T2_5,108,5,42,127,1036261736
119,9,10,Ticks_ISO_T2_5,109,1,48,54,1036280264
119,9,10,Ticks_ISO_T2_5,110,5,42,127,1036761504
119,9,10,Ticks_ISO_T2_5,111,1,48,48,1036791928
119,9,10,Ticks_ISO_T2_5,112,1,48,48,1037259288
119,9,10,Ticks_ISO_T2_5,113,5,42,127,1037262164
119,9,10,Ticks_ISO_T2_5,114,5,42,127,1037762088
119,9,10,Ticks_ISO_T2_5,115,1,48,50,1037763056
119,9,10,Ticks_ISO_T2_5,116,5,42,127,1038261560
119,9,10,Ticks_ISO_T2_5,117,1,48,48,1038272684
119,9,10,Ticks_ISO_T2_5,118,5,42,127,1038762304
119,9,10,Ticks_ISO_T2_5,119,1,48,40,1038784044
119,9,10,Ticks_ISO_T2_5,120,1,48,44,1039257696
119,9,10,Ticks_ISO_T2_5,121,5,42,127,1039262360
119,9,10,Ticks_ISO_T2_5,122,5,42,127,1039762064
119,9,10,Ticks_ISO_T2_5,123,1,48,41,1039762956
119,9,10,Ticks_ISO_T2_5,124,5,42,127,1040261460
119,9,10,Ticks_ISO_T2_5,125,1,48,41,1040275272
119,9,10,Ticks_ISO_T2_5,126,5,42,127,1040762204
119,9,10,Ticks_ISO_T2_5,127,1,48,40,1040777888
119,9,10,Ticks_ISO_T2_5,128,5,42,127,1041262196
119,9,10,Ticks_ISO_T2_5,129,1,48,46,1041288356
119,9,10,Ticks_ISO_T2_5,130,5,42,127,1041761740
119,9,10,Ticks_ISO_T2_5,131,1,48,44,1041800984
119,9,10,Ticks_ISO_T2_5,132,5,42,127,1042262260
119,9,10,Ticks_ISO_T2_5,133,1,48,42,1042310408
119,9,10,Ticks_ISO_T2_5,134,5,42,127,1042762028
119,9,10,Ticks_ISO_T2_5,135,1,48,47,1042781308
119,9,10,Ticks_ISO_T2_5,136,1,48,34,1043261420
119,9,10,Ticks_ISO_T2_5,137,5,42,127,1043263064
119,9,10,Ticks_ISO_T2_5,138,1,48,42,1043750984
119,9,10,Ticks_ISO_T2_5,139,5,42,127,1043761636
119,9,10,Ticks_ISO_T2_5,140,1,48,38,1044257332
119,9,10,Ticks_ISO_T2_5,141,5,42,127,1044262156
119,9,10,Ticks_ISO_T2_5,142,1,48,44,1044748100
119,9,10,Ticks_ISO_T2_5,143,5,42,127,1044762072
119,9,10,Ticks_ISO_T2_5,144,5,42,127,1045261772
119,9,10,Ticks_ISO_T2_5,145,1,48,37,1045280524
119,9,10,Ticks_ISO_T2_5,146,1,48,43,1045734848
119,9,10,Ticks_ISO_T2_5,147,5,42,127,1045762336
119,9,10,Ticks_ISO_T2_5,148,1,48,40,1046239928
119,9,10,Ticks_ISO_T2_5,149,5,42,127,1046262180
119,9,10,Ticks_ISO_T2_5,150,1,48,39,1046744340
119,9,10,Ticks_ISO_T2_5,151,5,42,127,1046762024
119,9,10,Ticks_ISO_T2_5,152,1,48,42,1047250316
119,9,10,Ticks_ISO_T2_5,153,5,42,127,1047261496
119,9,10,Ticks_ISO_T2_5,154,5,42,127,1047762316
119,9,10,Ticks_ISO_T2_5,155,1,48,32,1047763432
119,9,10,Ticks_ISO_T2_5,156,5,42,127,1048262012
119,9,10,Ticks_ISO_T2_5,157,1,48,31,1048269764
119,9,10,Ticks_ISO_T2_5,158,1,48,44,1048752988
119,9,10,Ticks_ISO_T2_5,159,5,42,127,1048762000
119,9,10,Ticks_ISO_T2_5,160,5,42,127,1049261328
119,9,10,Ticks_ISO_T2_5,161,1,48,40,1049274544
119,9,10,Ticks_ISO_T2_5,162,1,48,42,1049734800
119,9,10,Ticks_ISO_T2_5,163,5,42,127,1049762064
119,9,10,Ticks_ISO_T2_5,164,1,48,32,1050250952
119,9,10,Ticks_ISO_T2_5,165,5,42,127,1050261832
119,9,10,Ticks_ISO_T2_5,166,1,48,34,1050757680
119,9,10,Ticks_ISO_T2_5,167,5,42,127,1050761452
119,9,10,Ticks_ISO_T2_5,168,5,42,127,1051262352
119,9,10,Ticks_ISO_T2_5,169,1,48,32,1051267416
119,9,10,Ticks_ISO_T2_5,170,5,42,127,1051761972
119,9,10,Ticks_ISO_T2_5,171,1,48,37,1051777284
119,9,10,Ticks_ISO_T2_5,172,1,48,36,1052244348
119,9,10,Ticks_ISO_T2_5,173,5,42,127,1052261884
119,9,10,Ticks_ISO_T2_5,174,5,42,127,1052761588
119,9,10,Ticks_ISO_T2_5,175,1,48,33,1052767252
119,9,10,Ticks_ISO_T2_5,176,1,48,41,1053260284
119,9,10,Ticks_ISO_T2_5,177,5,42,127,1053262100
119,9,10,Ticks_ISO_T2_5,178,5,42,127,1053761948
119,9,10,Ticks_ISO_T2_5,179,1,48,40,1053776064
119,9,10,Ticks_ISO_T2_5,180,5,42,127,1054261644
119,9,10,Ticks_ISO_T2_5,181,1,48,25,1054285856
119,9,10,Ticks_ISO_T2_5,182,5,42,127,1054762312
119,9,10,Ticks_ISO_T2_5,183,1,48,43,1054770964
119,9,10,Ticks_ISO_T2_5,184,1,48,31,1055254336
119,9,10,Ticks_ISO_T2_5,185,5,42,127,1055262000
119,9,10,Ticks_ISO_T2_5,186,1,48,19,1055745852
119,9,10,Ticks_ISO_T2_5,187,1,48,31,1055750320
119,9,10,Ticks_ISO_T2_5,188,5,42,127,1055761748
119,9,10,Ticks_ISO_T2_5,189,5,42,127,1056261352
119,9,10,Ticks_ISO_T2_5,190,1,48,15,1056285812
119,9,10,Ticks_ISO_T2_5,191,1,48,29,1056290276
119,9,10,Ticks_ISO_T2_5,192,5,42,127,1056762220
119,9,10,Ticks_ISO_T2_5,193,1,48,18,1056763184
119,9,10,Ticks_ISO_T2_5,194,1,48,30,1056767336
119,9,10,Ticks_ISO_T2_5,195,1,48,26,1057255792
119,9,10,Ticks_ISO_T2_5,196,5,42,127,1057261956
119,9,10,Ticks_ISO_T2_5,197,1,48,14,1057761588
119,9,10,Ticks_ISO_T2_5,198,5,42,127,1057762852
119,9,10,Ticks_ISO_T2_5,199,5,42,127,1058262328
119,9,10,Ticks_ISO_T2_5,200,1,48,32,1058269264
119,9,10,Ticks_ISO_T2_5,201,5,42,127,1058762096
119,9,10,Ticks_ISO_T2_5,202,1,48,31,1058789148
119,9,10,Ticks_ISO_T2_5,203,5,42,127,1059261792
119,9,10,Ticks_ISO_T2_5,204,1,48,45,1059289740
119,9,10,Ticks_ISO_T2_5,205,5,42,127,1059761632
119,9,10,Ticks_ISO_T2_5,206,1,48,53,1059770884
119,9,10,Ticks_ISO_T2_5,207,5,42,127,1060262228
119,9,10,Ticks_ISO_T2_5,208,1,48,54,1060266316
119,9,10,Ticks_ISO_T2_5,209,5,42,127,1060761848
119,9,10,Ticks_ISO_T2_5,210,1,48,57,1060766912
119,9,10,Ticks_ISO_T2_5,211,5,42,127,1061261764
119,9,10,Ticks_ISO_T2_5,212,1,48,55,1061275656
119,9,10,Ticks_ISO_T2_5,213,5,42,127,1061762504
119,9,10,Ticks_ISO_T2_5,214,1,48,53,1061768840
119,9,10,Ticks_ISO_T2_5,215,1,48,58,1062255656
119,9,10,Ticks_ISO_T2_5,216,5,42,127,1062262120
119,9,10,Ticks_ISO_T2_5,217,5,42,127,1062761744
119,9,10,Ticks_ISO_T2_5,218,1,48,48,1062771668
119,9,10,Ticks_ISO_T2_5,219,1,48,51,1063257732
119,9,10,Ticks_ISO_T2_5,220,5,42,127,1063261508
119,9,10,Ticks_ISO_T2_5,221,1,48,57,1063750172
119,9,10,Ticks_ISO_T2_5,222,5,42,127,1063762400
119,9,10,Ticks_ISO_T2_5,223,5,42,127,1064261952
119,9,10,Ticks_ISO_T2_5,224,1,48,54,1064288484
119,9,10,Ticks_ISO_T2_5,225,5,42,127,1064761648
119,9,10,Ticks_ISO_T2_5,226,1,48,48,1064774864
119,9,10,Ticks_ISO_T2_5,227,5,42,127,1065261416
119,9,10,Ticks_ISO_T2_5,228,1,48,45,1065266100
119,9,10,Ticks_ISO_T2_5,229,1,48,48,1065756356
119,9,10,Ticks_ISO_T2_5,230,5,42,127,1065762300
119,9,10,Ticks_ISO_T2_5,231,5,42,127,1066261852
119,9,10,Ticks_ISO_T2_5,232,1,48,57,1066281872
119,9,10,Ticks_ISO_T2_5,233,5,42,127,1066761672
119,9,10,Ticks_ISO_T2_5,234,1,48,61,1066774236
119,9,10,Ticks_ISO_T2_5,235,5,42,127,1067262412
119,9,10,Ticks_ISO_T2_5,236,1,48,66,1067326596
119,9,10,Ticks_ISO_T2_5,237,5,42,127,1067761888
119,9,10,Ticks_ISO_T2_5,238,1,48,66,1067792408
119,9,10,Ticks_ISO_T2_5,239,1,48,63,1068257504
119,9,10,Ticks_ISO_T2_5,240,5,42,127,1068261724
119,9,10,Ticks_ISO_T2_5,241,1,48,61,1068751360
119,9,10,Ticks_ISO_T2_5,242,5,42,127,1068761420
119,9,10,Ticks_ISO_T2_5,243,1,48,59,1069248136
119,9,10,Ticks_ISO_T2_5,244,5,42,127,1069262160
119,9,10,Ticks_ISO_T2_5,245,1,48,68,1069760272
119,9,10,Ticks_ISO_T2_5,246,5,42,127,1069761856
119,9,10,Ticks_ISO_T2_5,247,1,48,65,1070255752
119,9,10,Ticks_ISO_T2_5,248,5,42,127,1070261624
119,9,10,Ticks_ISO_T2_5,249,1,48,62,1070756200
119,9,10,Ticks_ISO_T2_5,250,5,42,127,1070762292
119,9,10,Ticks_ISO_T2_5,251,5,42,127,1071262068
119,9,10,Ticks_ISO_T2_5,252,1,48,60,1071263032
119,9,10,Ticks_ISO_T2_5,253,1,48,61,1071756260
119,9,10,Ticks_ISO_T2_5,254,5,42,127,1071761684
119,9,10,Ticks_ISO_T2_5,255,1,48,53,1072249076
119,9,10,Ticks_ISO_T2_5,256,5,42,127,1072261524
119,9,10,Ticks_ISO_T2_5,257,1,48,64,1072759540
119,9,10,Ticks_ISO_T2_5,258,5,42,127,1072762120
119,9,10,Ticks_ISO_T2_5,259,5,42,127,1073261892
119,9,10,Ticks_ISO_T2_5,260,1,48,60,1073269876
119,9,10,Ticks_ISO_T2_5,261,1,48,64,1073758104
119,9,10,Ticks_ISO_T2_5,0,9999,9999,9999,1008759900
119,9,10,Ticks_ISO_T2_5,1,9999,9999,9999,1009259616
119,9,10,Ticks_ISO_T2_5,2,9999,9999,9999,1009759328
119,9,10,Ticks_ISO_T2_5,3,9999,9999,9999,1010260068
119,9,10,Ticks_ISO_T2_5,4,9999,9999,9999,1010759764
119,9,10,Ticks_ISO_T2_5,5,9999,9999,9999,1011259460
119,9,10,Ticks_ISO_T2_5,6,9999,9999,9999,1011759160
119,9,10,Ticks_ISO_T2_5,7,9999,9999,9999,1012259896
119,9,10,Ticks_ISO_T2_5,8,9999,9999,9999,1012759664
119,9,10,Ticks_ISO_T2_5,9,9999,9999,9999,1013259340
119,9,10,Ticks_ISO_T2_5,10,9999,9999,9999,1013760076
119,9,10,Ticks_ISO_T2_5,11,9999,9999,9999,1014259776
119,9,10,Ticks_ISO_T2_5,12,9999,9999,9999,1014759544
119,9,10,Ticks_ISO_T2_5,13,9999,9999,9999,1015259236
119,9,10,Ticks_ISO_T2_5,14,9999,9999,9999,1015759980
119,9,10,Ticks_ISO_T2_5,15,9999,9999,9999,1016259672
119,9,10,Ticks_ISO_T2_5,16,9999,9999,9999,1016759368
119,9,10,Ticks_ISO_T2_5,17,9999,9999,9999,1017259064
119,9,10,Ticks_ISO_T2_5,18,9999,9999,9999,1017759804
119,9,10,Ticks_ISO_T2_5,19,9999,9999,9999,1018259572
119,9,10,Ticks_ISO_T2_5,20,9999,9999,9999,1018759268
119,9,10,Ticks_ISO_T2_5,21,9999,9999,9999,1019260008
119,9,10,Ticks_ISO_T2_5,22,9999,9999,9999,1019759704
119,9,10,Ticks_ISO_T2_5,23,9999,9999,9999,1020259392
119,9,10,Ticks_ISO_T2_5,24,9999,9999,9999,1020759160
119,9,10,Ticks_ISO_T2_5,25,9999,9999,9999,1021259828
119,9,10,Ticks_ISO_T2_5,26,9999,9999,9999,1021759596
119,9,10,Ticks_ISO_T2_5,27,9999,9999,9999,1022259296
119,9,10,Ticks_ISO_T2_5,28,9999,9999,9999,1022760032
119,9,10,Ticks_ISO_T2_5,29,9999,9999,9999,1023259736
119,9,10,Ticks_ISO_T2_5,30,9999,9999,9999,1023759432
119,9,10,Ticks_ISO_T2_5,31,9999,9999,9999,1024259176
119,9,10,Ticks_ISO_T2_5,32,9999,9999,9999,1024759920
119,9,10,Ticks_ISO_T2_5,33,9999,9999,9999,1025259612
119,9,10,Ticks_ISO_T2_5,34,9999,9999,9999,1025759308
119,9,10,Ticks_ISO_T2_5,35,9999,9999,9999,1026260044
119,9,10,Ticks_ISO_T2_5,36,9999,9999,9999,1026759744
119,9,10,Ticks_ISO_T2_5,37,9999,9999,9999,1027259440
119,9,10,Ticks_ISO_T2_5,38,9999,9999,9999,1027759208
119,9,10,Ticks_ISO_T2_5,39,9999,9999,9999,1028259948
119,9,10,Ticks_ISO_T2_5,40,9999,9999,9999,1028759644
119,9,10,Ticks_ISO_T2_5,41,9999,9999,9999,1029259332
119,9,10,Ticks_ISO_T2_5,42,9999,9999,9999,1029760080
119,9,10,Ticks_ISO_T2_5,43,9999,9999,9999,1030259772
119,9,10,Ticks_ISO_T2_5,44,9999,9999,9999,1030759544
119,9,10,Ticks_ISO_T2_5,45,9999,9999,9999,1031259232
119,9,10,Ticks_ISO_T2_5,46,9999,9999,9999,1031759980
119,9,10,Ticks_ISO_T2_5,47,9999,9999,9999,1032259672
119,9,10,Ticks_ISO_T2_5,48,9999,9999,9999,1032759368
119,9,10,Ticks_ISO_T2_5,49,9999,9999,9999,1033259064
119,9,10,Ticks_ISO_T2_5,50,9999,9999,9999,1033759804
119,9,10,Ticks_ISO_T2_5,51,9999,9999,9999,1034259572
119,9,10,Ticks_ISO_T2_5,52,9999,9999,9999,1034759244
119,9,10,Ticks_ISO_T2_5,53,9999,9999,9999,1035259984
119,9,10,Ticks_ISO_T2_5,54,9999,9999,9999,1035759680
119,9,10,Ticks_ISO_T2_5,55,9999,9999,9999,1036259448
119,9,10,Ticks_ISO_T2_5,56,9999,9999,9999,1036759144
119,9,10,Ticks_ISO_T2_5,57,9999,9999,9999,1037259876
119,9,10,Ticks_ISO_T2_5,58,9999,9999,9999,1037759576
119,9,10,Ticks_ISO_T2_5,59,9999,9999,9999,1038259272
119,9,10,Ticks_ISO_T2_5,60,9999,9999,9999,1038760012
119,9,10,Ticks_ISO_T2_5,61,9999,9999,9999,1039259704
119,9,10,Ticks_ISO_T2_5,62,9999,9999,9999,1039759480
119,9,10,Ticks_ISO_T2_5,63,9999,9999,9999,1040259172
119,9,10,Ticks_ISO_T2_5,64,9999,9999,9999,1040759916
119,9,10,Ticks_ISO_T2_5,65,9999,9999,9999,1041259608
119,9,10,Ticks_ISO_T2_5,66,9999,9999,9999,1041759304
119,9,10,Ticks_ISO_T2_5,67,9999,9999,9999,1042260048
119,9,10,Ticks_ISO_T2_5,68,9999,9999,9999,1042759740
119,9,10,Ticks_ISO_T2_5,69,9999,9999,9999,1043259512
119,9,10,Ticks_ISO_T2_5,70,9999,9999,9999,1043759200
119,9,10,Ticks_ISO_T2_5,71,9999,9999,9999,1044259940
119,9,10,Ticks_ISO_T2_5,72,9999,9999,9999,1044759636
119,9,10,Ticks_ISO_T2_5,73,9999,9999,9999,1045259312
119,9,10,Ticks_ISO_T2_5,74,9999,9999,9999,1045760120
119,9,10,Ticks_ISO_T2_5,75,9999,9999,9999,1046259816
119,9,10,Ticks_ISO_T2_5,76,9999,9999,9999,1046759512
119,9,10,Ticks_ISO_T2_5,77,9999,9999,9999,1047259208
119,9,10,Ticks_ISO_T2_5,78,9999,9999,9999,1047759956
119,9,10,Ticks_ISO_T2_5,79,9999,9999,9999,1048259648
119,9,10,Ticks_ISO_T2_5,80,9999,9999,9999,1048759412
119,9,10,Ticks_ISO_T2_5,81,9999,9999,9999,1049259116
119,9,10,Ticks_ISO_T2_5,82,9999,9999,9999,1049759848
119,9,10,Ticks_ISO_T2_5,83,9999,9999,9999,1050259548
119,9,10,Ticks_ISO_T2_5,84,9999,9999,9999,1050759240
119,9,10,Ticks_ISO_T2_5,85,9999,9999,9999,1051259988
119,9,10,Ticks_ISO_T2_5,86,9999,9999,9999,1051759684
119,9,10,Ticks_ISO_T2_5,87,9999,9999,9999,1052259448
119,9,10,Ticks_ISO_T2_5,88,9999,9999,9999,1052759152
119,9,10,Ticks_ISO_T2_5,89,9999,9999,9999,1053259836
119,9,10,Ticks_ISO_T2_5,90,9999,9999,9999,1053759588
119,9,10,Ticks_ISO_T2_5,91,9999,9999,9999,1054259280
119,9,10,Ticks_ISO_T2_5,92,9999,9999,9999,1054760024
119,9,10,Ticks_ISO_T2_5,93,9999,9999,9999,1055259716
119,9,10,Ticks_ISO_T2_5,94,9999,9999,9999,1055759460
119,9,10,Ticks_ISO_T2_5,95,9999,9999,9999,1056259136
119,9,10,Ticks_ISO_T2_5,96,9999,9999,9999,1056759856
119,9,10,Ticks_ISO_T2_5,97,9999,9999,9999,1057259596
119,9,10,Ticks_ISO_T2_5,98,9999,9999,9999,1057759300
119,9,10,Ticks_ISO_T2_5,99,9999,9999,9999,1058260040
119,9,10,Ticks_ISO_T2_5,100,9999,9999,9999,1058759736
119,9,10,Ticks_ISO_T2_5,101,9999,9999,9999,1059259504
119,9,10,Ticks_ISO_T2_5,102,9999,9999,9999,1059759196
119,9,10,Ticks_ISO_T2_5,103,9999,9999,9999,1060259936
119,9,10,Ticks_ISO_T2_5,104,9999,9999,9999,1060759632
119,9,10,Ticks_ISO_T2_5,105,9999,9999,9999,1061259328
119,9,10,Ticks_ISO_T2_5,106,9999,9999,9999,1061760068
119,9,10,Ticks_ISO_T2_5,107,9999,9999,9999,1062259832
119,9,10,Ticks_ISO_T2_5,108,9999,9999,9999,1062759532
119,9,10,Ticks_ISO_T2_5,109,9999,9999,9999,1063259220
119,9,10,Ticks_ISO_T2_5,110,9999,9999,9999,1063759964
119,9,10,Ticks_ISO_T2_5,111,9999,9999,9999,1064259664
119,9,10,Ticks_ISO_T2_5,112,9999,9999,9999,1064759360
119,9,10,Ticks_ISO_T2_5,113,9999,9999,9999,1065259128
119,9,10,Ticks_ISO_T2_5,114,9999,9999,9999,1065759864
119,9,10,Ticks_ISO_T2_5,115,9999,9999,9999,1066259568
119,9,10,Ticks_ISO_T2_5,116,9999,9999,9999,1066759236
119,9,10,Ticks_ISO_T2_5,117,9999,9999,9999,1067259976
119,9,10,Ticks_ISO_T2_5,118,9999,9999,9999,1067759672
119,9,10,Ticks_ISO_T2_5,119,9999,9999,9999,1068259436
119,9,10,Ticks_ISO_T2_5,120,9999,9999,9999,1068759132
119,9,10,Ticks_ISO_T2_5,121,9999,9999,9999,1069259872
119,9,10,Ticks_ISO_T2_5,122,9999,9999,9999,1069759580
119,9,10,Ticks_ISO_T2_5,123,9999,9999,9999,1070259264
119,9,10,Ticks_ISO_T2_5,124,9999,9999,9999,1070760004
119,9,10,Ticks_ISO_T2_5,125,9999,9999,9999,1071259708
119,9,10,Ticks_ISO_T2_5,126,9999,9999,9999,1071759468
119,9,10,Ticks_ISO_T2_5,127,9999,9999,9999,1072259164
119,9,10,Ticks_ISO_T2_5,128,9999,9999,9999,1072759904
119,9,10,Ticks_ISO_T2_5,129,9999,9999,9999,1073259604
119,10,9,Ticks_ISO_T2_8,0,5,42,127,1082784012
119,10,9,Ticks_ISO_T2_8,1,5,42,127,1083583840
119,10,9,Ticks_ISO_T2_8,2,1,48,75,1084337852
119,10,9,Ticks_ISO_T2_8,3,5,42,127,1084383512
119,10,9,Ticks_ISO_T2_8,4,1,48,76,1085085900
119,10,9,Ticks_ISO_T2_8,5,5,42,127,1085184292
119,10,9,Ticks_ISO_T2_8,6,1,48,78,1085903360
119,10,9,Ticks_ISO_T2_8,7,5,42,127,1085984200
119,10,9,Ticks_ISO_T2_8,8,1,48,71,1086713564
119,10,9,Ticks_ISO_T2_8,9,5,42,127,1086783708
119,10,9,Ticks_ISO_T2_8,10,1,48,67,1087535312
119,10,9,Ticks_ISO_T2_8,11,5,42,127,1087583664
119,10,9,Ticks_ISO_T2_8,12,1,48,67,1088348956
119,10,9,Ticks_ISO_T2_8,13,5,42,127,1088384296
119,10,9,Ticks_ISO_T2_8,14,1,48,58,1089150040
119,10,9,Ticks_ISO_T2_8,15,5,42,127,1089184104
119,10,9,Ticks_ISO_T2_8,16,1,48,62,1089944612
119,10,9,Ticks_ISO_T2_8,17,5,42,127,1089983836
119,10,9,Ticks_ISO_T2_8,18,1,48,60,1090751748
119,10,9,Ticks_ISO_T2_8,19,5,42,127,1090783572
119,10,9,Ticks_ISO_T2_8,20,1,48,58,1091547296
119,10,9,Ticks_ISO_T2_8,21,5,42,127,1091584348
119,10,9,Ticks_ISO_T2_8,22,1,48,57,1092304688
119,10,9,Ticks_ISO_T2_8,23,5,42,127,1092384184
119,10,9,Ticks_ISO_T2_8,24,1,48,49,1093144460
119,10,9,Ticks_ISO_T2_8,25,5,42,127,1093183768
119,10,9,Ticks_ISO_T2_8,26,5,42,127,1093983508
119,10,9,Ticks_ISO_T2_8,27,1,48,53,1093989244
119,10,9,Ticks_ISO_T2_8,28,1,48,49,1094784440
119,10,9,Ticks_ISO_T2_8,29,5,42,127,1094785776
119,10,9,Ticks_ISO_T2_8,30,5,42,127,1095584244
119,10,9,Ticks_ISO_T2_8,31,1,48,41,1095594544
119,10,9,Ticks_ISO_T2_8,32,1,48,49,1096355216
119,10,9,Ticks_ISO_T2_8,33,5,42,127,1096383748
119,10,9,Ticks_ISO_T2_8,34,5,42,127,1097183488
119,10,9,Ticks_ISO_T2_8,35,1,48,47,1097197604
119,10,9,Ticks_ISO_T2_8,36,5,42,127,1097984416
119,10,9,Ticks_ISO_T2_8,37,1,48,45,1097988508
119,10,9,Ticks_ISO_T2_8,38,1,48,44,1098756136
119,10,9,Ticks_ISO_T2_8,39,5,42,127,1098784092
119,10,9,Ticks_ISO_T2_8,40,1,48,50,1099564868
119,10,9,Ticks_ISO_T2_8,41,5,42,127,1099583828
119,10,9,Ticks_ISO_T2_8,42,1,48,51,1100373356
119,10,9,Ticks_ISO_T2_8,43,5,42,127,1100383636
119,10,9,Ticks_ISO_T2_8,44,1,48,45,1101176152
119,10,9,Ticks_ISO_T2_8,45,5,42,127,1101184340
119,10,9,Ticks_ISO_T2_8,46,1,48,41,1101966540
119,10,9,Ticks_ISO_T2_8,47,5,42,127,1101984296
119,10,9,Ticks_ISO_T2_8,48,5,42,127,1102783812
119,10,9,Ticks_ISO_T2_8,49,1,48,39,1102788352
119,10,9,Ticks_ISO_T2_8,50,5,42,127,1103583472
119,10,9,Ticks_ISO_T2_8,51,1,48,40,1103587416
119,10,9,Ticks_ISO_T2_8,52,1,48,41,1104377852
119,10,9,Ticks_ISO_T2_8,53,5,42,127,1104384320
119,10,9,Ticks_ISO_T2_8,54,5,42,127,1105184232
119,10,9,Ticks_ISO_T2_8,55,1,48,52,1105962556
119,10,9,Ticks_ISO_T2_8,56,5,42,127,1105983984
119,10,9,Ticks_ISO_T2_8,57,1,48,54,1106748004
119,10,9,Ticks_ISO_T2_8,58,5,42,127,1106783568
119,10,9,Ticks_ISO_T2_8,59,1,48,56,1107528664
119,10,9,Ticks_ISO_T2_8,60,5,42,127,1107584424
119,10,9,Ticks_ISO_T2_8,61,1,48,50,1108317852
119,10,9,Ticks_ISO_T2_8,62,5,42,127,1108384156
119,10,9,Ticks_ISO_T2_8,63,1,48,48,1109105316
119,10,9,Ticks_ISO_T2_8,64,5,42,127,1109184112
119,10,9,Ticks_ISO_T2_8,65,1,48,42,1109957408
119,10,9,Ticks_ISO_T2_8,66,5,42,127,1109983472
119,10,9,Ticks_ISO_T2_8,67,1,48,61,1110772028
119,10,9,Ticks_ISO_T2_8,68,5,42,127,1110784256
119,10,9,Ticks_ISO_T2_8,69,1,48,49,1111559496
119,10,9,Ticks_ISO_T2_8,70,5,42,127,1111584012
119,10,9,Ticks_ISO_T2_8,71,1,48,35,1112345264
119,10,9,Ticks_ISO_T2_8,72,5,42,127,1112384116
119,10,9,Ticks_ISO_T2_8,73,1,48,41,1113098476
119,10,9,Ticks_ISO_T2_8,74,5,42,127,1113183700
119,10,9,Ticks_ISO_T2_8,75,1,48,38,1113922068
119,10,9,Ticks_ISO_T2_8,76,5,42,127,1113984260
119,10,9,Ticks_ISO_T2_8,77,1,48,44,1114750824
119,10,9,Ticks_ISO_T2_8,78,5,42,127,1114783996
119,10,9,Ticks_ISO_T2_8,79,1,48,47,1115546516
119,10,9,Ticks_ISO_T2_8,80,5,42,127,1115584248
119,10,9,Ticks_ISO_T2_8,81,1,48,44,1116350436
119,10,9,Ticks_ISO_T2_8,82,5,42,127,1116383684
119,10,9,Ticks_ISO_T2_8,83,1,48,49,1117159676
119,10,9,Ticks_ISO_T2_8,84,5,42,127,1117184316
119,10,9,Ticks_ISO_T2_8,85,1,48,45,1117961280
119,10,9,Ticks_ISO_T2_8,86,5,42,127,1117984048
119,10,9,Ticks_ISO_T2_8,87,1,48,51,1118759140
119,10,9,Ticks_ISO_T2_8,88,5,42,127,1118783784
119,10,9,Ticks_ISO_T2_8,89,1,48,47,1119562612
119,10,9,Ticks_ISO_T2_8,90,5,42,127,1119583888
119,10,9,Ticks_ISO_T2_8,91,1,48,49,1120356812
119,10,9,Ticks_ISO_T2_8,92,5,42,127,1120384368
119,10,9,Ticks_ISO_T2_8,93,1,48,54,1121179808
119,10,9,Ticks_ISO_T2_8,94,5,42,127,1121184324
119,10,9,Ticks_ISO_T2_8,95,1,48,57,1121973556
119,10,9,Ticks_ISO_T2_8,96,5,42,127,1121983912
119,10,9,Ticks_ISO_T2_8,97,1,48,53,1122778896
119,10,9,Ticks_ISO_T2_8,98,5,42,127,1122783868
119,10,9,Ticks_ISO_T2_8,99,5,42,127,1123584504
119,10,9,Ticks_ISO_T2_8,100,1,48,57,1123593384
119,10,9,Ticks_ISO_T2_8,101,1,48,59,1124358744
119,10,9,Ticks_ISO_T2_8,102,5,42,127,1124384232
119,10,9,Ticks_ISO_T2_8,103,1,48,59,1125137856
119,10,9,Ticks_ISO_T2_8,104,5,42,127,1125183812
119,10,9,Ticks_ISO_T2_8,105,1,48,57,1125934372
119,10,9,Ticks_ISO_T2_8,106,5,42,127,1125983696
119,10,9,Ticks_ISO_T2_8,107,1,48,53,1126722284
119,10,9,Ticks_ISO_T2_8,108,5,42,127,1126784328
119,10,9,Ticks_ISO_T2_8,109,1,48,53,1127530624
119,10,9,Ticks_ISO_T2_8,110,5,42,127,1127584060
119,10,9,Ticks_ISO_T2_8,111,1,48,54,1128319360
119,10,9,Ticks_ISO_T2_8,112,5,42,127,1128383720
119,10,9,Ticks_ISO_T2_8,113,1,48,54,1129118872
119,10,9,Ticks_ISO_T2_8,114,5,42,127,1129183676
119,10,9,Ticks_ISO_T2_8,115,1,48,50,1129946052
119,10,9,Ticks_ISO_T2_8,116,5,42,127,1129984236
119,10,9,Ticks_ISO_T2_8,117,1,48,55,1130732552
119,10,9,Ticks_ISO_T2_8,118,5,42,127,1130784068
119,10,9,Ticks_ISO_T2_8,119,1,48,54,1131576516
119,10,9,Ticks_ISO_T2_8,120,5,42,127,1131583728
119,10,9,Ticks_ISO_T2_8,121,5,42,127,1132383616
119,10,9,Ticks_ISO_T2_8,122,1,48,55,1132413140
119,10,9,Ticks_ISO_T2_8,123,5,42,127,1133184320
119,10,9,Ticks_ISO_T2_8,124,1,48,53,1133193196
119,10,9,Ticks_ISO_T2_8,125,1,48,57,1133983152
119,10,9,Ticks_ISO_T2_8,126,5,42,127,1133984716
119,10,9,Ticks_ISO_T2_8,127,1,48,52,1134764600
119,10,9,Ticks_ISO_T2_8,128,5,42,127,1134783784
119,10,9,Ticks_ISO_T2_8,129,5,42,127,1135583524
119,10,9,Ticks_ISO_T2_8,130,1,48,54,1135584488
119,10,9,Ticks_ISO_T2_8,131,1,48,51,1136364964
119,10,9,Ticks_ISO_T2_8,132,5,42,127,1136384296
119,10,9,Ticks_ISO_T2_8,133,1,48,53,1137161584
119,10,9,Ticks_ISO_T2_8,134,5,42,127,1137184056
119,10,9,Ticks_ISO_T2_8,135,5,42,127,1137983796
119,10,9,Ticks_ISO_T2_8,136,1,48,56,1137984760
119,10,9,Ticks_ISO_T2_8,137,1,48,49,1138782776
119,10,9,Ticks_ISO_T2_8,138,5,42,127,1138784420
119,10,9,Ticks_ISO_T2_8,139,5,42,127,1139584532
119,10,9,Ticks_ISO_T2_8,140,1,48,51,1139619812
119,10,9,Ticks_ISO_T2_8,141,5,42,127,1140384192
119,10,9,Ticks_ISO_T2_8,142,1,48,60,1140397188
119,10,9,Ticks_ISO_T2_8,143,5,42,127,1141183848
119,10,9,Ticks_ISO_T2_8,144,1,48,54,1141186516
119,10,9,Ticks_ISO_T2_8,145,5,42,127,1141983732
119,10,9,Ticks_ISO_T2_8,146,1,48,57,1141996348
119,10,9,Ticks_ISO_T2_8,147,1,48,56,1142770560
119,10,9,Ticks_ISO_T2_8,148,5,42,127,1142784580
119,10,9,Ticks_ISO_T2_8,149,1,48,51,1143567408
119,10,9,Ticks_ISO_T2_8,150,5,42,127,1143584188
119,10,9,Ticks_ISO_T2_8,151,1,48,52,1144341328
119,10,9,Ticks_ISO_T2_8,152,5,42,127,1144383852
119,10,9,Ticks_ISO_T2_8,153,1,48,52,1145123632
119,10,9,Ticks_ISO_T2_8,154,5,42,127,1145183732
119,10,9,Ticks_ISO_T2_8,155,1,48,54,1145934140
119,10,9,Ticks_ISO_T2_8,156,5,42,127,1145984364
119,10,9,Ticks_ISO_T2_8,157,1,48,58,1146755192
119,10,9,Ticks_ISO_T2_8,158,5,42,127,1146784020
119,10,9,Ticks_ISO_T2_8,159,1,48,54,1147575792
119,10,9,Ticks_ISO_T2_8,160,5,42,127,1147583980
119,10,9,Ticks_ISO_T2_8,161,1,48,53,1148381828
119,10,9,Ticks_ISO_T2_8,162,5,42,127,1148383564
119,10,9,Ticks_ISO_T2_8,163,5,42,127,1149184572
119,10,9,Ticks_ISO_T2_8,164,1,48,57,1149191956
119,10,9,Ticks_ISO_T2_8,165,1,48,55,1149962124
119,10,9,Ticks_ISO_T2_8,166,5,42,127,1149984000
119,10,9,Ticks_ISO_T2_8,167,1,48,57,1150760512
119,10,9,Ticks_ISO_T2_8,168,5,42,127,1150783808
119,10,9,Ticks_ISO_T2_8,169,1,48,60,1151556428
119,10,9,Ticks_ISO_T2_8,170,5,42,127,1151583468
119,10,9,Ticks_ISO_T2_8,171,5,42,127,1152384480
119,10,9,Ticks_ISO_T2_8,172,1,48,54,1152385892
119,10,9,Ticks_ISO_T2_8,173,5,42,127,1153184136
119,10,9,Ticks_ISO_T2_8,174,1,48,62,1153190324
119,10,9,Ticks_ISO_T2_8,175,5,42,127,1153983796
119,10,9,Ticks_ISO_T2_8,176,1,48,56,1153986536
119,10,9,Ticks_ISO_T2_8,177,5,42,127,1154783680
119,10,9,Ticks_ISO_T2_8,178,1,48,55,1154796368
119,10,9,Ticks_ISO_T2_8,179,5,42,127,1155584456
119,10,9,Ticks_ISO_T2_8,180,1,48,49,1155594484
119,10,9,Ticks_ISO_T2_8,181,5,42,127,1156384068
119,10,9,Ticks_ISO_T2_8,182,1,48,49,1156394368
119,10,9,Ticks_ISO_T2_8,183,5,42,127,1157183876
119,10,9,Ticks_ISO_T2_8,184,1,48,51,1157199040
119,10,9,Ticks_ISO_T2_8,185,5,42,127,1157983536
119,10,9,Ticks_ISO_T2_8,186,1,48,53,1157999440
119,10,9,Ticks_ISO_T2_8,187,5,42,127,1158784536
119,10,9,Ticks_ISO_T2_8,188,1,48,56,1158824984
119,10,9,Ticks_ISO_T2_8,189,5,42,127,1159584196
119,10,9,Ticks_ISO_T2_8,190,1,48,54,1159607884
119,10,9,Ticks_ISO_T2_8,191,5,42,127,1160383704
119,10,9,Ticks_ISO_T2_8,192,1,48,53,1160409636
119,10,9,Ticks_ISO_T2_8,193,1,48,56,1161169336
119,10,9,Ticks_ISO_T2_8,194,5,42,127,1161183580
119,10,9,Ticks_ISO_T2_8,195,1,48,59,1161979920
119,10,9,Ticks_ISO_T2_8,196,5,42,127,1161984584
119,10,9,Ticks_ISO_T2_8,197,5,42,127,1162784200
119,10,9,Ticks_ISO_T2_8,198,1,48,56,1162812976
119,10,9,Ticks_ISO_T2_8,199,1,48,53,1163579412
119,10,9,Ticks_ISO_T2_8,200,5,42,127,1163583704
119,10,9,Ticks_ISO_T2_8,201,1,48,54,1164372780
119,10,9,Ticks_ISO_T2_8,202,5,42,127,1164383512
119,10,9,Ticks_ISO_T2_8,203,5,42,127,1165184372
119,10,9,Ticks_ISO_T2_8,204,1,48,58,1165208508
119,10,9,Ticks_ISO_T2_8,205,5,42,127,1165984256
119,10,9,Ticks_ISO_T2_8,206,1,48,51,1165999420
119,10,9,Ticks_ISO_T2_8,207,1,48,55,1166768320
119,10,9,Ticks_ISO_T2_8,208,5,42,127,1166783832
119,10,9,Ticks_ISO_T2_8,209,1,48,47,1167554960
119,10,9,Ticks_ISO_T2_8,210,5,42,127,1167583492
119,10,9,Ticks_ISO_T2_8,211,1,48,51,1168350200
119,10,9,Ticks_ISO_T2_8,212,5,42,127,1168384420
119,10,9,Ticks_ISO_T2_8,213,1,48,52,1169171424
119,10,9,Ticks_ISO_T2_8,214,5,42,127,1169184400
119,10,9,Ticks_ISO_T2_8,215,1,48,57,1169964804
119,10,9,Ticks_ISO_T2_8,216,5,42,127,1169984208
119,10,9,Ticks_ISO_T2_8,217,1,48,53,1170745616
119,10,9,Ticks_ISO_T2_8,218,5,42,127,1170783496
119,10,9,Ticks_ISO_T2_8,219,1,48,54,1171582164
119,10,9,Ticks_ISO_T2_8,220,5,42,127,1171584276
119,10,9,Ticks_ISO_T2_8,221,1,48,55,1172368116
119,10,9,Ticks_ISO_T2_8,222,5,42,127,1172384308
119,10,9,Ticks_ISO_T2_8,223,1,48,54,1173146532
119,10,9,Ticks_ISO_T2_8,224,5,42,127,1173183892
119,10,9,Ticks_ISO_T2_8,225,5,42,127,1173983632
119,10,9,Ticks_ISO_T2_8,226,1,48,55,1173996628
119,10,9,Ticks_ISO_T2_8,227,5,42,127,1174784488
119,10,9,Ticks_ISO_T2_8,228,1,48,55,1174800872
119,10,9,Ticks_ISO_T2_8,229,1,48,52,1175561992
119,10,9,Ticks_ISO_T2_8,230,5,42,127,1175584088
119,10,9,Ticks_ISO_T2_8,231,1,48,50,1176351400
119,10,9,Ticks_ISO_T2_8,232,5,42,127,1176384048
119,10,9,Ticks_ISO_T2_8,233,1,48,61,1177165716
119,10,9,Ticks_ISO_T2_8,234,5,42,127,1177183704
119,10,9,Ticks_ISO_T2_8,235,5,42,127,1177984492
119,10,9,Ticks_ISO_T2_8,236,1,48,56,1177985980
119,10,9,Ticks_ISO_T2_8,0,9999,9999,9999,1082781796
119,10,9,Ticks_ISO_T2_8,1,9999,9999,9999,1083581552
119,10,9,Ticks_ISO_T2_8,2,9999,9999,9999,1084381300
119,10,9,Ticks_ISO_T2_8,3,9999,9999,9999,1085182004
119,10,9,Ticks_ISO_T2_8,4,9999,9999,9999,1085981764
119,10,9,Ticks_ISO_T2_8,5,9999,9999,9999,1086781496
119,10,9,Ticks_ISO_T2_8,6,9999,9999,9999,1087581304
119,10,9,Ticks_ISO_T2_8,7,9999,9999,9999,1088382008
119,10,9,Ticks_ISO_T2_8,8,9999,9999,9999,1089181816
119,10,9,Ticks_ISO_T2_8,9,9999,9999,9999,1089981548
119,10,9,Ticks_ISO_T2_8,10,9999,9999,9999,1090781284
119,10,9,Ticks_ISO_T2_8,11,9999,9999,9999,1091582060
119,10,9,Ticks_ISO_T2_8,12,9999,9999,9999,1092381744
119,10,9,Ticks_ISO_T2_8,13,9999,9999,9999,1093181552
119,10,9,Ticks_ISO_T2_8,14,9999,9999,9999,1093981292
119,10,9,Ticks_ISO_T2_8,15,9999,9999,9999,1094782000
119,10,9,Ticks_ISO_T2_8,16,9999,9999,9999,1095581808
119,10,9,Ticks_ISO_T2_8,17,9999,9999,9999,1096381536
119,10,9,Ticks_ISO_T2_8,18,9999,9999,9999,1097181276
119,10,9,Ticks_ISO_T2_8,19,9999,9999,9999,1097982052
119,10,9,Ticks_ISO_T2_8,20,9999,9999,9999,1098781804
119,10,9,Ticks_ISO_T2_8,21,9999,9999,9999,1099581540
119,10,9,Ticks_ISO_T2_8,22,9999,9999,9999,1100381272
119,10,9,Ticks_ISO_T2_8,23,9999,9999,9999,1101182052
119,10,9,Ticks_ISO_T2_8,24,9999,9999,9999,1101981784
119,10,9,Ticks_ISO_T2_8,25,9999,9999,9999,1102781524
119,10,9,Ticks_ISO_T2_8,26,9999,9999,9999,1103581256
119,10,9,Ticks_ISO_T2_8,27,9999,9999,9999,1104382032
119,10,9,Ticks_ISO_T2_8,28,9999,9999,9999,1105181796
119,10,9,Ticks_ISO_T2_8,29,9999,9999,9999,1105981544
119,10,9,Ticks_ISO_T2_8,30,9999,9999,9999,1106781280
119,10,9,Ticks_ISO_T2_8,31,9999,9999,9999,1107582060
119,10,9,Ticks_ISO_T2_8,32,9999,9999,9999,1108381792
119,10,9,Ticks_ISO_T2_8,33,9999,9999,9999,1109181528
119,10,9,Ticks_ISO_T2_8,34,9999,9999,9999,1109981260
119,10,9,Ticks_ISO_T2_8,35,9999,9999,9999,1110782040
119,10,9,Ticks_ISO_T2_8,36,9999,9999,9999,1111581796
119,10,9,Ticks_ISO_T2_8,37,9999,9999,9999,1112381532
119,10,9,Ticks_ISO_T2_8,38,9999,9999,9999,1113181264
119,10,9,Ticks_ISO_T2_8,39,9999,9999,9999,1113982044
119,10,9,Ticks_ISO_T2_8,40,9999,9999,9999,1114781780
119,10,9,Ticks_ISO_T2_8,41,9999,9999,9999,1115581516
119,10,9,Ticks_ISO_T2_8,42,9999,9999,9999,1116381248
119,10,9,Ticks_ISO_T2_8,43,9999,9999,9999,1117182028
119,10,9,Ticks_ISO_T2_8,44,9999,9999,9999,1117981760
119,10,9,Ticks_ISO_T2_8,45,9999,9999,9999,1118781496
119,10,9,Ticks_ISO_T2_8,46,9999,9999,9999,1119581300
119,10,9,Ticks_ISO_T2_8,47,9999,9999,9999,1120382008
119,10,9,Ticks_ISO_T2_8,48,9999,9999,9999,1121181812
119,10,9,Ticks_ISO_T2_8,49,9999,9999,9999,1121981548
119,10,9,Ticks_ISO_T2_8,50,9999,9999,9999,1122781284
119,10,9,Ticks_ISO_T2_8,51,9999,9999,9999,1123582068
119,10,9,Ticks_ISO_T2_8,52,9999,9999,9999,1124381796
119,10,9,Ticks_ISO_T2_8,53,9999,9999,9999,1125181528
119,10,9,Ticks_ISO_T2_8,54,9999,9999,9999,1125981260
119,10,9,Ticks_ISO_T2_8,55,9999,9999,9999,1126782040
119,10,9,Ticks_ISO_T2_8,56,9999,9999,9999,1127581772
119,10,9,Ticks_ISO_T2_8,57,9999,9999,9999,1128381508
119,10,9,Ticks_ISO_T2_8,58,9999,9999,9999,1129181240
119,10,9,Ticks_ISO_T2_8,59,9999,9999,9999,1129982020
119,10,9,Ticks_ISO_T2_8,60,9999,9999,9999,1130781780
119,10,9,Ticks_ISO_T2_8,61,9999,9999,9999,1131581512
119,10,9,Ticks_ISO_T2_8,62,9999,9999,9999,1132381252
119,10,9,Ticks_ISO_T2_8,63,9999,9999,9999,1133182032
119,10,9,Ticks_ISO_T2_8,64,9999,9999,9999,1133981768
119,10,9,Ticks_ISO_T2_8,65,9999,9999,9999,1134781496
119,10,9,Ticks_ISO_T2_8,66,9999,9999,9999,1135581232
119,10,9,Ticks_ISO_T2_8,67,9999,9999,9999,1136382008
119,10,9,Ticks_ISO_T2_8,68,9999,9999,9999,1137181768
119,10,9,Ticks_ISO_T2_8,69,9999,9999,9999,1137981508
119,10,9,Ticks_ISO_T2_8,70,9999,9999,9999,1138781240
119,10,9,Ticks_ISO_T2_8,71,9999,9999,9999,1139582020
119,10,9,Ticks_ISO_T2_8,72,9999,9999,9999,1140381756
119,10,9,Ticks_ISO_T2_8,73,9999,9999,9999,1141181560
119,10,9,Ticks_ISO_T2_8,74,9999,9999,9999,1141981296
119,10,9,Ticks_ISO_T2_8,75,9999,9999,9999,1142782068
119,10,9,Ticks_ISO_T2_8,76,9999,9999,9999,1143581752
119,10,9,Ticks_ISO_T2_8,77,9999,9999,9999,1144381488
119,10,9,Ticks_ISO_T2_8,78,9999,9999,9999,1145181296
119,10,9,Ticks_ISO_T2_8,79,9999,9999,9999,1145982000
119,10,9,Ticks_ISO_T2_8,80,9999,9999,9999,1146781808
119,10,9,Ticks_ISO_T2_8,81,9999,9999,9999,1147581540
119,10,9,Ticks_ISO_T2_8,82,9999,9999,9999,1148381300
119,10,9,Ticks_ISO_T2_8,83,9999,9999,9999,1149182060
119,10,9,Ticks_ISO_T2_8,84,9999,9999,9999,1149981788
119,10,9,Ticks_ISO_T2_8,85,9999,9999,9999,1150781520
119,10,9,Ticks_ISO_T2_8,86,9999,9999,9999,1151581252
119,10,9,Ticks_ISO_T2_8,87,9999,9999,9999,1152382040
119,10,9,Ticks_ISO_T2_8,88,9999,9999,9999,1153181776
119,10,9,Ticks_ISO_T2_8,89,9999,9999,9999,1153981508
119,10,9,Ticks_ISO_T2_8,90,9999,9999,9999,1154781240
119,10,9,Ticks_ISO_T2_8,91,9999,9999,9999,1155582020
119,10,9,Ticks_ISO_T2_8,92,9999,9999,9999,1156381780
119,10,9,Ticks_ISO_T2_8,93,9999,9999,9999,1157181512
119,10,9,Ticks_ISO_T2_8,94,9999,9999,9999,1157981248
119,10,9,Ticks_ISO_T2_8,95,9999,9999,9999,1158782028
119,10,9,Ticks_ISO_T2_8,96,9999,9999,9999,1159581760
119,10,9,Ticks_ISO_T2_8,97,9999,9999,9999,1160381492
119,10,9,Ticks_ISO_T2_8,98,9999,9999,9999,1161181292
119,10,9,Ticks_ISO_T2_8,99,9999,9999,9999,1161982000
119,10,9,Ticks_ISO_T2_8,100,9999,9999,9999,1162781764
119,10,9,Ticks_ISO_T2_8,101,9999,9999,9999,1163581492
119,10,9,Ticks_ISO_T2_8,102,9999,9999,9999,1164381300
119,10,9,Ticks_ISO_T2_8,103,9999,9999,9999,1165182012
119,10,9,Ticks_ISO_T2_8,104,9999,9999,9999,1165981744
119,10,9,Ticks_ISO_T2_8,105,9999,9999,9999,1166781544
119,10,9,Ticks_ISO_T2_8,106,9999,9999,9999,1167581276
119,10,9,Ticks_ISO_T2_8,107,9999,9999,9999,1168382056
119,10,9,Ticks_ISO_T2_8,108,9999,9999,9999,1169181816
119,10,9,Ticks_ISO_T2_8,109,9999,9999,9999,1169981548
119,10,9,Ticks_ISO_T2_8,110,9999,9999,9999,1170781284
119,10,9,Ticks_ISO_T2_8,111,9999,9999,9999,1171582028
119,10,9,Ticks_ISO_T2_8,112,9999,9999,9999,1172381796
119,10,9,Ticks_ISO_T2_8,113,9999,9999,9999,1173181528
119,10,9,Ticks_ISO_T2_8,114,9999,9999,9999,1173981272
119,10,9,Ticks_ISO_T2_8,115,9999,9999,9999,1174782052
119,10,9,Ticks_ISO_T2_8,116,9999,9999,9999,1175581800
119,10,9,Ticks_ISO_T2_8,117,9999,9999,9999,1176381536
119,10,9,Ticks_ISO_T2_8,118,9999,9999,9999,1177181268
119,10,9,Ticks_ISO_T2_8,119,9999,9999,9999,1177982056
119,11,25,Jits_Pract_5,0,5,56,103,1227970104
119,11,25,Jits_Pract_5,1,5,63,98,1227973204
119,11,25,Jits_Pract_5,2,5,80,127,1227976472
119,11,25,Jits_Pract_5,0,5,56,103,1228469536
119,11,25,Jits_Pract_5,1,5,63,98,1228472784
119,11,25,Jits_Pract_5,2,5,80,127,1228475828
119,11,25,Jits_Pract_5,0,5,56,103,1228970404
119,11,25,Jits_Pract_5,1,5,80,127,1228979552
119,11,25,Jits_Pract_5,2,5,63,98,1229000232
119,11,25,Jits_Pract_5,0,5,63,98,1229420100
119,11,25,Jits_Pract_5,1,5,80,127,1229449700
119,11,25,Jits_Pract_5,2,5,56,103,1229459820
119,11,25,Jits_Pract_5,0,5,80,127,1229980208
119,11,25,Jits_Pract_5,1,5,56,103,1229990256
119,11,25,Jits_Pract_5,2,5,63,98,1230020232
119,11,25,Jits_Pract_5,0,5,63,98,1230469472
119,11,25,Jits_Pract_5,1,5,56,103,1230500416
119,11,25,Jits_Pract_5,2,5,80,127,1230509344
119,11,25,Jits_Pract_5,0,5,56,103,1230919980
119,11,25,Jits_Pract_5,1,5,63,98,1230970328
119,11,25,Jits_Pract_5,2,5,80,127,1230989668
119,11,25,Jits_Pract_5,0,5,80,127,1231419720
119,11,25,Jits_Pract_5,1,5,63,98,1231469924
119,11,25,Jits_Pract_5,2,5,56,103,1231509932
119,11,25,Jits_Pract_5,0,5,56,103,1231919688
119,11,25,Jits_Pract_5,1,5,63,98,1231950336
119,11,25,Jits_Pract_5,2,5,80,127,1232019792
119,11,25,Jits_Pract_5,0,5,56,103,1232420332
119,11,25,Jits_Pract_5,1,5,80,127,1232479600
119,11,25,Jits_Pract_5,2,5,63,98,1232510396
119,11,25,Jits_Pract_5,0,5,56,103,1232930112
119,11,25,Jits_Pract_5,1,5,63,98,1232940384
119,11,25,Jits_Pract_5,2,5,80,127,1232980320
119,11,25,Jits_Pract_5,0,5,63,98,1233419664
119,11,25,Jits_Pract_5,1,5,80,127,1233499464
119,11,25,Jits_Pract_5,2,5,56,103,1233509956
119,11,25,Jits_Pract_5,0,5,63,98,1233969664
119,11,25,Jits_Pract_5,1,5,56,103,1234009528
119,11,25,Jits_Pract_5,2,5,80,127,1234012596
119,11,25,Jits_Pract_5,0,5,56,103,1234430180
119,11,25,Jits_Pract_5,1,5,63,98,1234439504
119,11,25,Jits_Pract_5,2,5,80,127,1234479512
119,11,25,Jits_Pract_5,0,5,56,103,1234919732
119,11,25,Jits_Pract_5,1,5,63,98,1234922724
119,11,25,Jits_Pract_5,2,5,80,127,1234940336
119,11,25,Jits_Pract_5,0,9999,9999,9999,1228217468
119,11,25,Jits_Pract_5,1,9999,9999,9999,1228717120
119,11,25,Jits_Pract_5,2,9999,9999,9999,1229217844
119,11,25,Jits_Pract_5,3,9999,9999,9999,1229717580
119,11,25,Jits_Pract_5,4,9999,9999,9999,1230217316
119,11,25,Jits_Pract_5,5,9999,9999,9999,1230718036
119,11,25,Jits_Pract_5,6,9999,9999,9999,1231217760
119,11,25,Jits_Pract_5,7,9999,9999,9999,1231717432
119,11,25,Jits_Pract_5,8,9999,9999,9999,1232217176
119,11,25,Jits_Pract_5,9,9999,9999,9999,1232717892
119,11,25,Jits_Pract_5,10,9999,9999,9999,1233217632
119,11,25,Jits_Pract_5,11,9999,9999,9999,1233717304
119,11,25,Jits_Pract_5,12,9999,9999,9999,1234218072
119,11,25,Jits_Pract_5,13,9999,9999,9999,1234717796
119,11,25,Jits_Pract_5,14,9999,9999,9999,1235217524
119,12,25,Jits_Pract_5,0,5,56,103,1300264248
119,12,25,Jits_Pract_5,1,5,63,98,1300267344
119,12,25,Jits_Pract_5,2,5,80,127,1300270544
119,12,25,Jits_Pract_5,0,5,56,103,1300764196
119,12,25,Jits_Pract_5,1,5,63,98,1300767372
119,12,25,Jits_Pract_5,2,5,80,127,1300770416
119,12,25,Jits_Pract_5,0,5,56,103,1301263640
119,12,25,Jits_Pract_5,1,5,80,127,1301274208
119,12,25,Jits_Pract_5,2,5,63,98,1301293396
119,12,25,Jits_Pract_5,0,5,63,98,1301714280
119,12,25,Jits_Pract_5,1,5,80,127,1301744256
119,12,25,Jits_Pract_5,2,5,56,103,1301754152
119,12,25,Jits_Pract_5,0,5,80,127,1302274416
119,12,25,Jits_Pract_5,1,5,56,103,1302283492
119,12,25,Jits_Pract_5,2,5,63,98,1302314284
119,12,25,Jits_Pract_5,0,5,63,98,1302764024
119,12,25,Jits_Pract_5,1,5,56,103,1302793576
119,12,25,Jits_Pract_5,2,5,80,127,1302804144
119,12,25,Jits_Pract_5,0,5,56,103,1303213412
119,12,25,Jits_Pract_5,1,5,63,98,1303263616
119,12,25,Jits_Pract_5,2,5,80,127,1303284072
119,12,25,Jits_Pract_5,0,5,80,127,1303714124
119,12,25,Jits_Pract_5,1,5,63,98,1303764256
119,12,25,Jits_Pract_5,2,5,56,103,1303804416
119,12,25,Jits_Pract_5,0,5,56,103,1304213944
119,12,25,Jits_Pract_5,1,5,63,98,1304243544
119,12,25,Jits_Pract_5,2,5,80,127,1304314344
119,12,25,Jits_Pract_5,0,5,56,103,1304713536
119,12,25,Jits_Pract_5,1,5,80,127,1304774004
119,12,25,Jits_Pract_5,2,5,63,98,1304804124
119,12,25,Jits_Pract_5,0,5,56,103,1305223472
119,12,25,Jits_Pract_5,1,5,63,98,1305233740
119,12,25,Jits_Pract_5,2,5,80,127,1305273828
119,12,25,Jits_Pract_5,0,5,63,98,1305713996
119,12,25,Jits_Pract_5,1,5,80,127,1305794088
119,12,25,Jits_Pract_5,2,5,56,103,1305804136
119,12,25,Jits_Pract_5,0,5,63,98,1306264148
119,12,25,Jits_Pract_5,1,5,56,103,1306304008
119,12,25,Jits_Pract_5,2,5,80,127,1306307076
119,12,25,Jits_Pract_5,0,5,56,103,1306723788
119,12,25,Jits_Pract_5,1,5,63,98,1306734056
119,12,25,Jits_Pract_5,2,5,80,127,1306773920
119,12,25,Jits_Pract_5,0,5,56,103,1307214080
119,12,25,Jits_Pract_5,1,5,63,98,1307217228
119,12,25,Jits_Pract_5,2,5,80,127,1307233648
119,12,25,Jits_Pract_5,0,9999,9999,9999,1300511836
119,12,25,Jits_Pract_5,1,9999,9999,9999,1301011556
119,12,25,Jits_Pract_5,2,9999,9999,9999,1301511228
119,12,25,Jits_Pract_5,3,9999,9999,9999,1302011992
119,12,25,Jits_Pract_5,4,9999,9999,9999,1302511720
119,12,25,Jits_Pract_5,5,9999,9999,9999,1303011392
119,12,25,Jits_Pract_5,6,9999,9999,9999,1303511120
119,12,25,Jits_Pract_5,7,9999,9999,9999,1304011836
119,12,25,Jits_Pract_5,8,9999,9999,9999,1304511580
119,12,25,Jits_Pract_5,9,9999,9999,9999,1305011324
119,12,25,Jits_Pract_5,10,9999,9999,9999,1305512036
119,12,25,Jits_Pract_5,11,9999,9999,9999,1306011708
119,12,25,Jits_Pract_5,12,9999,9999,9999,1306511432
119,12,25,Jits_Pract_5,13,9999,9999,9999,1307011160
119,12,25,Jits_Pract_5,14,9999,9999,9999,1307511860
119,13,25,Jits_Pract_5,0,5,56,103,1332402696
119,13,25,Jits_Pract_5,1,5,63,98,1332405872
119,13,25,Jits_Pract_5,2,5,80,127,1332408768
119,13,25,Jits_Pract_5,0,1,48,23,1332857592
119,13,25,Jits_Pract_5,1,5,56,103,1332912604
119,13,25,Jits_Pract_5,2,5,63,98,1332915776
119,13,25,Jits_Pract_5,3,5,80,127,1332918896
119,13,25,Jits_Pract_5,0,1,48,41,1333400644
119,13,25,Jits_Pract_5,1,5,56,103,1333413192
119,13,25,Jits_Pract_5,2,5,80,127,1333422564
119,13,25,Jits_Pract_5,3,5,63,98,1333442872
119,13,25,Jits_Pract_5,0,5,63,98,1333862764
119,13,25,Jits_Pract_5,1,5,80,127,1333892664
119,13,25,Jits_Pract_5,2,5,56,103,1333902636
119,13,25,Jits_Pract_5,3,1,48,39,1333940968
119,13,25,Jits_Pract_5,0,5,80,127,1334422764
119,13,25,Jits_Pract_5,1,5,56,103,1334433184
119,13,25,Jits_Pract_5,2,1,48,52,1334449704
119,13,25,Jits_Pract_5,3,5,63,98,1334462852
119,13,25,Jits_Pract_5,0,5,63,98,1334913552
119,13,25,Jits_Pract_5,1,5,56,103,1334943080
119,13,25,Jits_Pract_5,2,1,48,49,1334947996
119,13,25,Jits_Pract_5,3,5,80,127,1334953568
119,13,25,Jits_Pract_5,0,5,56,103,1335362900
119,13,25,Jits_Pract_5,1,5,63,98,1335413104
119,13,25,Jits_Pract_5,2,5,80,127,1335432516
119,13,25,Jits_Pract_5,3,1,48,45,1335455260
119,13,25,Jits_Pract_5,0,5,80,127,1335862604
119,13,25,Jits_Pract_5,1,1,48,42,1335907676
119,13,25,Jits_Pract_5,2,5,63,98,1335912876
119,13,25,Jits_Pract_5,3,5,56,103,1335952740
119,13,25,Jits_Pract_5,0,5,56,103,1336363580
119,13,25,Jits_Pract_5,1,5,63,98,1336393108
119,13,25,Jits_Pract_5,2,1,48,45,1336412344
119,13,25,Jits_Pract_5,3,5,80,127,1336462632
119,13,25,Jits_Pract_5,0,5,56,103,1336863060
119,13,25,Jits_Pract_5,1,1,48,40,1336884316
119,13,25,Jits_Pract_5,2,5,80,127,1336922624
119,13,25,Jits_Pract_5,3,5,63,98,1336953344
119,13,25,Jits_Pract_5,0,5,56,103,1337373108
119,13,25,Jits_Pract_5,1,5,63,98,1337383456
119,13,25,Jits_Pract_5,2,1,48,44,1337387620
119,13,25,Jits_Pract_5,3,5,80,127,1337423312
119,13,25,Jits_Pract_5,0,5,63,98,1337862476
119,13,25,Jits_Pract_5,1,1,48,43,1337886712
119,13,25,Jits_Pract_5,2,5,80,127,1337943608
119,13,25,Jits_Pract_5,3,5,56,103,1337952756
119,13,25,Jits_Pract_5,0,1,48,45,1338378532
119,13,25,Jits_Pract_5,1,5,63,98,1338413552
119,13,25,Jits_Pract_5,2,5,56,103,1338453564
119,13,25,Jits_Pract_5,3,5,80,127,1338456556
119,13,25,Jits_Pract_5,0,5,56,103,1338873432
119,13,25,Jits_Pract_5,1,5,63,98,1338882388
119,13,25,Jits_Pract_5,2,1,48,46,1338889692
119,13,25,Jits_Pract_5,3,5,80,127,1338923664
119,13,25,Jits_Pract_5,0,5,56,103,1339362652
119,13,25,Jits_Pract_5,1,5,63,98,1339365792
119,13,25,Jits_Pract_5,2,5,80,127,1339383188
119,13,25,Jits_Pract_5,3,1,48,43,1339389448
119,13,25,Jits_Pract_5,0,9999,9999,9999,1332651104
119,13,25,Jits_Pract_5,1,9999,9999,9999,1333161068
119,13,25,Jits_Pract_5,2,9999,9999,9999,1333660764
119,13,25,Jits_Pract_5,3,9999,9999,9999,1334160452
119,13,25,Jits_Pract_5,4,9999,9999,9999,1334660216
119,13,25,Jits_Pract_5,5,9999,9999,9999,1335160896
119,13,25,Jits_Pract_5,6,9999,9999,9999,1335660664
119,13,25,Jits_Pract_5,7,9999,9999,9999,1336160368
119,13,25,Jits_Pract_5,8,9999,9999,9999,1336661044
119,13,25,Jits_Pract_5,9,9999,9999,9999,1337160824
119,13,25,Jits_Pract_5,10,9999,9999,9999,1337660532
119,13,25,Jits_Pract_5,11,9999,9999,9999,1338160240
119,13,25,Jits_Pract_5,12,9999,9999,9999,1338660968
119,13,25,Jits_Pract_5,13,9999,9999,9999,1339160660
119,13,25,Jits_Pract_5,14,9999,9999,9999,1339660356
119,14,24,Jits_Pract_8,0,5,56,103,1349186840
119,14,24,Jits_Pract_8,1,5,63,98,1349190088
119,14,24,Jits_Pract_8,2,5,80,127,1349193284
119,14,24,Jits_Pract_8,0,5,56,103,1349986552
119,14,24,Jits_Pract_8,1,5,63,98,1349989652
119,14,24,Jits_Pract_8,2,5,80,127,1349992928
119,14,24,Jits_Pract_8,0,5,80,127,1350727396
119,14,24,Jits_Pract_8,1,1,48,59,1350794736
119,14,24,Jits_Pract_8,2,5,63,98,1350817228
119,14,24,Jits_Pract_8,3,5,56,103,1350827424
119,14,24,Jits_Pract_8,0,5,56,103,1351547324
119,14,24,Jits_Pract_8,1,5,63,98,1351556472
119,14,24,Jits_Pract_8,2,1,48,53,1351573068
119,14,24,Jits_Pract_8,3,5,80,127,1351646448
119,14,24,Jits_Pract_8,0,5,63,98,1352317276
119,14,24,Jits_Pract_8,1,1,48,51,1352322488
119,14,24,Jits_Pract_8,2,5,80,127,1352347092
119,14,24,Jits_Pract_8,3,5,56,103,1352376692
119,14,24,Jits_Pract_8,0,1,48,52,1353081924
119,14,24,Jits_Pract_8,1,5,56,103,1353117316
119,14,24,Jits_Pract_8,2,5,80,127,1353217500
119,14,24,Jits_Pract_8,3,5,63,98,1353266580
119,14,24,Jits_Pract_8,0,1,48,51,1353849164
119,14,24,Jits_Pract_8,1,5,56,103,1353916772
119,14,24,Jits_Pract_8,2,5,80,127,1353967108
119,14,24,Jits_Pract_8,3,5,63,98,1354006848
119,14,24,Jits_Pract_8,0,1,48,49,1354611672
119,14,24,Jits_Pract_8,1,5,80,127,1354747376
119,14,24,Jits_Pract_8,2,5,63,98,1354777076
119,14,24,Jits_Pract_8,3,5,56,103,1354846532
119,14,24,Jits_Pract_8,0,1,48,38,1355344372
119,14,24,Jits_Pract_8,1,5,63,98,1355576604
119,14,24,Jits_Pract_8,2,5,56,103,1355607476
119,14,24,Jits_Pract_8,3,5,80,127,1355666892
119,14,24,Jits_Pract_8,0,1,48,37,1356084040
119,14,24,Jits_Pract_8,1,5,56,103,1356317168
119,14,24,Jits_Pract_8,2,5,80,127,1356320308
119,14,24,Jits_Pract_8,3,5,63,98,1356436744
119,14,24,Jits_Pract_8,0,1,48,47,1356900720
119,14,24,Jits_Pract_8,1,5,56,103,1357196556
119,14,24,Jits_Pract_8,2,5,80,127,1357236720
119,14,24,Jits_Pract_8,3,5,63,98,1357246768
119,14,24,Jits_Pract_8,0,1,48,40,1357889460
119,14,24,Jits_Pract_8,1,5,56,103,1357956400
119,14,24,Jits_Pract_8,2,5,80,127,1357976932
119,14,24,Jits_Pract_8,3,5,63,98,1358056860
119,14,24,Jits_Pract_8,0,5,80,127,1358747168
119,14,24,Jits_Pract_8,1,1,48,46,1358796592
119,14,24,Jits_Pract_8,2,5,56,103,1358847212
119,14,24,Jits_Pract_8,3,5,63,98,1358856584
119,14,24,Jits_Pract_8,0,5,63,98,1359517124
119,14,24,Jits_Pract_8,1,5,80,127,1359576544
119,14,24,Jits_Pract_8,2,5,56,103,1359586664
119,14,24,Jits_Pract_8,3,1,48,44,1359589784
119,14,24,Jits_Pract_8,0,5,56,103,1360316728
119,14,24,Jits_Pract_8,1,1,48,45,1360317616
119,14,24,Jits_Pract_8,2,5,63,98,1360386352
119,14,24,Jits_Pract_8,3,5,80,127,1360389492
119,14,24,Jits_Pract_8,0,9999,9999,9999,1349584996
119,14,24,Jits_Pract_8,1,9999,9999,9999,1350384712
119,14,24,Jits_Pract_8,2,9999,9999,9999,1351184452
119,14,24,Jits_Pract_8,3,9999,9999,9999,1351984220
119,14,24,Jits_Pract_8,4,9999,9999,9999,1352784960
119,14,24,Jits_Pract_8,5,9999,9999,9999,1353584716
119,14,24,Jits_Pract_8,6,9999,9999,9999,1354384468
119,14,24,Jits_Pract_8,7,9999,9999,9999,1355184220
119,14,24,Jits_Pract_8,8,9999,9999,9999,1355984952
119,14,24,Jits_Pract_8,9,9999,9999,9999,1356784696
119,14,24,Jits_Pract_8,10,9999,9999,9999,1357584480
119,14,24,Jits_Pract_8,11,9999,9999,9999,1358384236
119,14,24,Jits_Pract_8,12,9999,9999,9999,1359184968
119,14,24,Jits_Pract_8,13,9999,9999,9999,1359984732
119,14,24,Jits_Pract_8,14,9999,9999,9999,1360784476
119,15,17,Jits_Phase_5,0,1,48,14,1454912888
119,15,17,Jits_Phase_5,1,5,56,103,1455141336
119,15,17,Jits_Phase_5,2,5,63,98,1455144512
119,15,17,Jits_Phase_5,3,5,80,127,1455147556
119,15,17,Jits_Phase_5,0,5,56,103,1455640940
119,15,17,Jits_Phase_5,1,5,63,98,1455643960
119,15,17,Jits_Phase_5,2,5,80,127,1455647084
119,15,17,Jits_Phase_5,0,5,56,103,1456140736
119,15,17,Jits_Phase_5,1,5,80,127,1456151008
119,15,17,Jits_Phase_5,2,5,63,98,1456171616
119,15,17,Jits_Phase_5,0,5,63,98,1456591068
119,15,17,Jits_Phase_5,1,5,80,127,1456620968
119,15,17,Jits_Phase_5,2,5,56,103,1456631016
119,15,17,Jits_Phase_5,0,1,48,59,1457086092
119,15,17,Jits_Phase_5,1,5,80,127,1457151404
119,15,17,Jits_Phase_5,2,5,56,103,1457160552
119,15,17,Jits_Phase_5,3,5,63,98,1457191408
119,15,17,Jits_Phase_5,0,1,48,64,1457586892
119,15,17,Jits_Phase_5,1,5,63,98,1457640796
119,15,17,Jits_Phase_5,2,5,56,103,1457670568
119,15,17,Jits_Phase_5,3,5,80,127,1457680900
119,15,17,Jits_Phase_5,0,1,48,62,1458085008
119,15,17,Jits_Phase_5,1,5,56,103,1458091476
119,15,17,Jits_Phase_5,2,5,63,98,1458140628
119,15,17,Jits_Phase_5,3,5,80,127,1458160940
119,15,17,Jits_Phase_5,0,1,48,61,1458577560
119,15,17,Jits_Phase_5,1,5,80,127,1458591224
119,15,17,Jits_Phase_5,2,5,63,98,1458641200
119,15,17,Jits_Phase_5,3,5,56,103,1458681220
119,15,17,Jits_Phase_5,0,5,56,103,1459090684
119,15,17,Jits_Phase_5,1,1,48,57,1459099728
119,15,17,Jits_Phase_5,2,5,63,98,1459120424
119,15,17,Jits_Phase_5,3,5,80,127,1459191372
119,15,17,Jits_Phase_5,0,5,56,103,1459590644
119,15,17,Jits_Phase_5,1,1,48,54,1459598940
119,15,17,Jits_Phase_5,2,5,80,127,1459650952
119,15,17,Jits_Phase_5,3,5,63,98,1459680552
119,15,17,Jits_Phase_5,0,1,48,53,1460100596
119,15,17,Jits_Phase_5,1,5,56,103,1460101936
119,15,17,Jits_Phase_5,2,5,63,98,1460110712
119,15,17,Jits_Phase_5,3,5,80,127,1460150572
119,15,17,Jits_Phase_5,0,1,48,55,1460587940
119,15,17,Jits_Phase_5,1,5,63,98,1460590972
119,15,17,Jits_Phase_5,2,5,80,127,1460670912
119,15,17,Jits_Phase_5,3,5,56,103,1460681108
119,15,17,Jits_Phase_5,0,1,48,54,1461098792
119,15,17,Jits_Phase_5,1,5,63,98,1461140840
119,15,17,Jits_Phase_5,2,5,56,103,1461180852
119,15,17,Jits_Phase_5,3,5,80,127,1461183772
119,15,17,Jits_Phase_5,0,5,56,103,1461600588
119,15,17,Jits_Phase_5,1,1,48,51,1461602072
119,15,17,Jits_Phase_5,2,5,63,98,1461611000
119,15,17,Jits_Phase_5,3,5,80,127,1461650712
119,15,17,Jits_Phase_5,0,1,48,53,1462081360
119,15,17,Jits_Phase_5,1,5,56,103,1462091196
119,15,17,Jits_Phase_5,2,5,63,98,1462094040
119,15,17,Jits_Phase_5,3,5,80,127,1462110536
119,15,17,Jits_Phase_5,0,1,48,53,1462578332
119,15,17,Jits_Phase_5,1,5,80,127,1462601048
119,15,17,Jits_Phase_5,2,5,56,103,1462611616
119,15,17,Jits_Phase_5,3,5,63,98,1462680980
119,15,17,Jits_Phase_5,0,1,48,51,1463085484
119,15,17,Jits_Phase_5,1,5,63,98,1463090684
119,15,17,Jits_Phase_5,2,5,56,103,1463110992
119,15,17,Jits_Phase_5,3,5,80,127,1463190844
119,15,17,Jits_Phase_5,0,1,48,52,1463571976
119,15,17,Jits_Phase_5,1,5,56,103,1463600624
119,15,17,Jits_Phase_5,2,5,80,127,1463640412
119,15,17,Jits_Phase_5,3,5,63,98,1463650756
119,15,17,Jits_Phase_5,0,1,48,53,1464086104
119,15,17,Jits_Phase_5,1,5,80,127,1464090932
119,15,17,Jits_Phase_5,2,5,63,98,1464120680
119,15,17,Jits_Phase_5,3,5,56,103,1464160616
119,15,17,Jits_Phase_5,0,1,48,52,1464588936
119,15,17,Jits_Phase_5,1,5,56,103,1464611504
119,15,17,Jits_Phase_5,2,5,63,98,1464640884
119,15,17,Jits_Phase_5,3,5,80,127,1464690992
119,15,17,Jits_Phase_5,0,1,48,51,1465106952
119,15,17,Jits_Phase_5,1,5,80,127,1465110884
119,15,17,Jits_Phase_5,2,5,56,103,1465150896
119,15,17,Jits_Phase_5,3,5,63,98,1465161164
119,15,17,Jits_Phase_5,0,5,80,127,1465591284
119,15,17,Jits_Phase_5,1,1,48,49,1465604544
119,15,17,Jits_Phase_5,2,5,63,98,1465631016
119,15,17,Jits_Phase_5,3,5,56,103,1465690580
119,15,17,Jits_Phase_5,0,5,56,103,1466090824
119,15,17,Jits_Phase_5,1,5,80,127,1466101100
119,15,17,Jits_Phase_5,2,1,48,46,1466137124
119,15,17,Jits_Phase_5,3,5,63,98,1466180908
119,15,17,Jits_Phase_5,0,5,80,127,1466590516
119,15,17,Jits_Phase_5,1,1,48,49,1466639140
119,15,17,Jits_Phase_5,2,5,63,98,1466651072
119,15,17,Jits_Phase_5,3,5,56,103,1466680596
119,15,17,Jits_Phase_5,0,5,56,103,1467091400
119,15,17,Jits_Phase_5,1,1,48,51,1467136868
119,15,17,Jits_Phase_5,2,5,80,127,1467150612
119,15,17,Jits_Phase_5,3,5,63,98,1467190624
119,15,17,Jits_Phase_5,0,1,48,42,1467636232
119,15,17,Jits_Phase_5,1,5,56,103,1467641156
119,15,17,Jits_Phase_5,2,5,63,98,1467650528
119,15,17,Jits_Phase_5,3,5,80,127,1467653892
119,15,17,Jits_Phase_5,0,5,80,127,1468090604
119,15,17,Jits_Phase_5,1,1,48,49,1468136572
119,15,17,Jits_Phase_5,2,5,63,98,1468180752
119,15,17,Jits_Phase_5,3,5,56,103,1468191024
119,15,17,Jits_Phase_5,0,5,56,103,1468590500
119,15,17,Jits_Phase_5,1,5,63,98,1468593524
119,15,17,Jits_Phase_5,2,5,80,127,1468596720
119,15,17,Jits_Phase_5,3,1,48,48,1468651692
119,15,17,Jits_Phase_5,0,1,48,44,1469109040
119,15,17,Jits_Phase_5,1,5,80,127,1469110548
119,15,17,Jits_Phase_5,2,5,63,98,1469160824
119,15,17,Jits_Phase_5,3,5,56,103,1469190376
119,15,17,Jits_Phase_5,0,5,56,103,1469590756
119,15,17,Jits_Phase_5,1,5,80,127,1469601320
119,15,17,Jits_Phase_5,2,1,48,43,1469618312
119,15,17,Jits_Phase_5,3,5,63,98,1469670692
119,15,17,Jits_Phase_5,0,1,48,48,1470098188
119,15,17,Jits_Phase_5,1,5,56,103,1470100772
119,15,17,Jits_Phase_5,2,5,63,98,1470121528
119,15,17,Jits_Phase_5,3,5,80,127,1470180648
119,15,17,Jits_Phase_5,0,1,48,50,1470586256
119,15,17,Jits_Phase_5,1,5,80,127,1470591232
119,15,17,Jits_Phase_5,2,5,63,98,1470660912
119,15,17,Jits_Phase_5,3,5,56,103,1470680456
119,15,17,Jits_Phase_5,0,1,48,45,1471094176
119,15,17,Jits_Phase_5,1,5,80,127,1471110536
119,15,17,Jits_Phase_5,2,5,56,103,1471120880
119,15,17,Jits_Phase_5,3,5,63,98,1471131000
119,15,17,Jits_Phase_5,0,1,48,48,1471573916
119,15,17,Jits_Phase_5,1,5,80,127,1471601140
119,15,17,Jits_Phase_5,2,5,56,103,1471620404
119,15,17,Jits_Phase_5,3,5,63,98,1471691412
119,15,17,Jits_Phase_5,0,5,56,103,1472111012
119,15,17,Jits_Phase_5,1,1,48,46,1472119756
119,15,17,Jits_Phase_5,2,5,80,127,1472140532
119,15,17,Jits_Phase_5,3,5,63,98,1472161288
119,15,17,Jits_Phase_5,0,1,48,49,1472569240
119,15,17,Jits_Phase_5,1,5,63,98,1472600356
119,15,17,Jits_Phase_5,2,5,56,103,1472660820
119,15,17,Jits_Phase_5,3,5,80,127,1472690404
119,15,17,Jits_Phase_5,0,1,48,48,1473079032
119,15,17,Jits_Phase_5,1,5,63,98,1473090808
119,15,17,Jits_Phase_5,2,5,80,127,1473094252
119,15,17,Jits_Phase_5,3,5,56,103,1473180924
119,15,17,Jits_Phase_5,0,1,48,48,1473595020
119,15,17,Jits_Phase_5,1,5,56,103,1473611156
119,15,17,Jits_Phase_5,2,5,63,98,1473640756
119,15,17,Jits_Phase_5,3,5,80,127,1473680620
119,15,17,Jits_Phase_5,0,1,48,48,1474107052
119,15,17,Jits_Phase_5,1,5,63,98,1474110832
119,15,17,Jits_Phase_5,2,5,56,103,1474150696
119,15,17,Jits_Phase_5,3,5,80,127,1474171228
119,15,17,Jits_Phase_5,0,5,63,98,1474620704
119,15,17,Jits_Phase_5,1,1,48,51,1474637080
119,15,17,Jits_Phase_5,2,5,56,103,1474660636
119,15,17,Jits_Phase_5,3,5,80,127,1474670904
119,15,17,Jits_Phase_5,0,5,80,127,1475101196
119,15,17,Jits_Phase_5,1,1,48,48,1475131816
119,15,17,Jits_Phase_5,2,5,63,98,1475170648
119,15,17,Jits_Phase_5,3,5,56,103,1475191400
119,15,17,Jits_Phase_5,0,5,56,103,1475590476
119,15,17,Jits_Phase_5,1,5,80,127,1475611084
119,15,17,Jits_Phase_5,2,5,63,98,1475650868
119,15,17,Jits_Phase_5,3,1,48,48,1475671596
119,15,17,Jits_Phase_5,0,5,63,98,1476100348
119,15,17,Jits_Phase_5,1,5,80,127,1476121104
119,15,17,Jits_Phase_5,2,5,56,103,1476160820
119,15,17,Jits_Phase_5,3,1,48,41,1476170308
119,15,17,Jits_Phase_5,0,5,63,98,1476601216
119,15,17,Jits_Phase_5,1,5,56,103,1476620552
119,15,17,Jits_Phase_5,2,5,80,127,1476630972
119,15,17,Jits_Phase_5,3,1,48,39,1476670128
119,15,17,Jits_Phase_5,0,5,80,127,1477101084
119,15,17,Jits_Phase_5,1,5,56,103,1477121496
119,15,17,Jits_Phase_5,2,5,63,98,1477151020
119,15,17,Jits_Phase_5,3,1,48,45,1477164700
119,15,17,Jits_Phase_5,0,1,48,39,1477649624
119,15,17,Jits_Phase_5,1,5,56,103,1477671288
119,15,17,Jits_Phase_5,2,5,80,127,1477674208
119,15,17,Jits_Phase_5,3,5,63,98,1477690628
119,15,17,Jits_Phase_5,0,5,63,98,1478091228
119,15,17,Jits_Phase_5,1,5,56,103,1478120756
119,15,17,Jits_Phase_5,2,1,48,44,1478154088
119,15,17,Jits_Phase_5,3,5,80,127,1478181236
119,15,17,Jits_Phase_5,0,1,48,43,1478640916
119,15,17,Jits_Phase_5,1,5,63,98,1478670632
119,15,17,Jits_Phase_5,2,5,56,103,1478681048
119,15,17,Jits_Phase_5,3,5,80,127,1478691392
119,15,17,Jits_Phase_5,0,5,56,103,1479130436
119,15,17,Jits_Phase_5,1,1,48,46,1479152664
119,15,17,Jits_Phase_5,2,5,80,127,1479161176
119,15,17,Jits_Phase_5,3,5,63,98,1479170400
119,15,17,Jits_Phase_5,0,1,48,45,1479643280
119,15,17,Jits_Phase_5,1,5,63,98,1479671176
119,15,17,Jits_Phase_5,2,5,56,103,1479681296
119,15,17,Jits_Phase_5,3,5,80,127,1479700780
119,15,17,Jits_Phase_5,0,5,56,103,1480101160
119,15,17,Jits_Phase_5,1,5,63,98,1480160576
119,15,17,Jits_Phase_5,2,5,80,127,1480163864
119,15,17,Jits_Phase_5,3,1,48,46,1480166908
119,15,17,Jits_Phase_5,0,5,80,127,1480621512
119,15,17,Jits_Phase_5,1,5,56,103,1480630660
119,15,17,Jits_Phase_5,2,1,48,46,1480638044
119,15,17,Jits_Phase_5,3,5,63,98,1480701252
119,15,17,Jits_Phase_5,0,5,80,127,1481111012
119,15,17,Jits_Phase_5,1,1,48,43,1481156160
119,15,17,Jits_Phase_5,2,5,56,103,1481180464
119,15,17,Jits_Phase_5,3,5,63,98,1481190736
119,15,17,Jits_Phase_5,0,5,63,98,1481650420
119,15,17,Jits_Phase_5,1,5,56,103,1481660764
119,15,17,Jits_Phase_5,2,1,48,45,1481666952
119,15,17,Jits_Phase_5,3,5,80,127,1481681364
119,15,17,Jits_Phase_5,0,5,80,127,1482111212
119,15,17,Jits_Phase_5,1,1,48,46,1482168888
119,15,17,Jits_Phase_5,2,5,63,98,1482170696
119,15,17,Jits_Phase_5,3,5,56,103,1482210708
119,15,17,Jits_Phase_5,0,5,56,103,1482651204
119,15,17,Jits_Phase_5,1,5,63,98,1482661104
119,15,17,Jits_Phase_5,2,5,80,127,1482701336
119,15,17,Jits_Phase_5,0,5,56,103,1483110852
119,15,17,Jits_Phase_5,1,5,80,127,1483140604
119,15,17,Jits_Phase_5,2,1,48,49,1483168064
119,15,17,Jits_Phase_5,3,5,63,98,1483190572
119,15,17,Jits_Phase_5,0,1,48,50,1483632088
119,15,17,Jits_Phase_5,1,5,56,103,1483650468
119,15,17,Jits_Phase_5,2,5,63,98,1483691376
119,15,17,Jits_Phase_5,3,5,80,127,1483694668
119,15,17,Jits_Phase_5,0,1,48,56,1484135868
119,15,17,Jits_Phase_5,1,5,56,103,1484151256
119,15,17,Jits_Phase_5,2,5,63,98,1484161528
119,15,17,Jits_Phase_5,3,5,80,127,1484180712
119,15,17,Jits_Phase_5,0,5,56,103,1484610928
119,15,17,Jits_Phase_5,1,5,80,127,1484613996
119,15,17,Jits_Phase_5,2,1,48,63,1484638552
119,15,17,Jits_Phase_5,3,5,63,98,1484651156
119,15,17,Jits_Phase_5,0,1,48,70,1485121736
119,15,17,Jits_Phase_5,1,5,63,98,1485150456
119,15,17,Jits_Phase_5,2,5,56,103,1485181324
119,15,17,Jits_Phase_5,3,5,80,127,1485201108
119,15,17,Jits_Phase_5,0,5,80,127,1485620468
119,15,17,Jits_Phase_5,1,5,56,103,1485630964
119,15,17,Jits_Phase_5,2,5,63,98,1485641308
119,15,17,Jits_Phase_5,3,1,48,69,1485650576
119,15,17,Jits_Phase_5,0,5,56,103,1486121424
119,15,17,Jits_Phase_5,1,1,48,66,1486126192
119,15,17,Jits_Phase_5,2,5,80,127,1486161356
119,15,17,Jits_Phase_5,3,5,63,98,1486191180
119,15,17,Jits_Phase_5,0,1,48,65,1486630932
119,15,17,Jits_Phase_5,1,5,63,98,1486632268
119,15,17,Jits_Phase_5,2,5,80,127,1486640444
119,15,17,Jits_Phase_5,3,5,56,103,1486650716
119,15,17,Jits_Phase_5,0,5,56,103,1487120936
119,15,17,Jits_Phase_5,1,1,48,61,1487127196
119,15,17,Jits_Phase_5,2,5,63,98,1487191360
119,15,17,Jits_Phase_5,3,5,80,127,1487200656
119,15,17,Jits_Phase_5,0,5,80,127,1487630668
119,15,17,Jits_Phase_5,1,5,56,103,1487641160
119,15,17,Jits_Phase_5,2,1,48,58,1487642124
119,15,17,Jits_Phase_5,3,5,63,98,1487691052
119,15,17,Jits_Phase_5,0,5,80,127,1488140616
119,15,17,Jits_Phase_5,1,1,48,57,1488150708
119,15,17,Jits_Phase_5,2,5,56,103,1488201072
119,15,17,Jits_Phase_5,3,5,63,98,1488230892
119,15,17,Jits_Phase_5,0,5,56,103,1488641352
119,15,17,Jits_Phase_5,1,5,80,127,1488644344
119,15,17,Jits_Phase_5,2,1,48,59,1488673684
119,15,17,Jits_Phase_5,3,5,63,98,1488681280
119,15,17,Jits_Phase_5,0,5,56,103,1489170916
119,15,17,Jits_Phase_5,1,1,48,54,1489172256
119,15,17,Jits_Phase_5,2,5,63,98,1489200364
119,15,17,Jits_Phase_5,3,5,80,127,1489210632
119,15,17,Jits_Phase_5,0,1,48,56,1489680872
119,15,17,Jits_Phase_5,1,5,63,98,1489682284
119,15,17,Jits_Phase_5,2,5,80,127,1489690988
119,15,17,Jits_Phase_5,3,5,56,103,1489701108
119,15,17,Jits_Phase_5,0,5,80,127,1490131224
119,15,17,Jits_Phase_5,1,5,56,103,1490180400
119,15,17,Jits_Phase_5,2,5,63,98,1490183544
119,15,17,Jits_Phase_5,3,1,48,56,1490184956
119,15,17,Jits_Phase_5,0,5,56,103,1490660716
119,15,17,Jits_Phase_5,1,5,80,127,1490681128
119,15,17,Jits_Phase_5,2,1,48,56,1490682092
119,15,17,Jits_Phase_5,3,5,63,98,1490690344
119,15,17,Jits_Phase_5,0,5,63,98,1491141000
119,15,17,Jits_Phase_5,1,1,48,55,1491163748
119,15,17,Jits_Phase_5,2,5,56,103,1491170740
119,15,17,Jits_Phase_5,3,5,80,127,1491191076
119,15,17,Jits_Phase_5,0,5,56,103,1491651160
119,15,17,Jits_Phase_5,1,1,48,54,1491653528
119,15,17,Jits_Phase_5,2,5,80,127,1491661124
119,15,17,Jits_Phase_5,3,5,63,98,1491730752
119,15,17,Jits_Phase_5,0,5,63,98,1492141560
119,15,17,Jits_Phase_5,1,1,48,52,1492155692
119,15,17,Jits_Phase_5,2,5,80,127,1492181340
119,15,17,Jits_Phase_5,3,5,56,103,1492221300
119,15,17,Jits_Phase_5,0,5,56,103,1492651352
119,15,17,Jits_Phase_5,1,1,48,55,1492652540
119,15,17,Jits_Phase_5,2,5,63,98,1492660640
119,15,17,Jits_Phase_5,3,5,80,127,1492681096
119,15,17,Jits_Phase_5,0,1,48,56,1493162688
119,15,17,Jits_Phase_5,1,5,63,98,1493190964
119,15,17,Jits_Phase_5,2,5,80,127,1493210600
119,15,17,Jits_Phase_5,3,5,56,103,1493231132
119,15,17,Jits_Phase_5,0,5,56,103,1493631460
119,15,17,Jits_Phase_5,1,1,48,55,1493681260
119,15,17,Jits_Phase_5,2,5,80,127,1493711096
119,15,17,Jits_Phase_5,3,5,63,98,1493720320
119,15,17,Jits_Phase_5,0,5,80,127,1494171084
119,15,17,Jits_Phase_5,1,5,63,98,1494181352
119,15,17,Jits_Phase_5,2,1,48,53,1494199236
119,15,17,Jits_Phase_5,3,5,56,103,1494211020
119,15,17,Jits_Phase_5,0,5,63,98,1494630844
119,15,17,Jits_Phase_5,1,5,80,127,1494670932
119,15,17,Jits_Phase_5,2,1,48,55,1494695104
119,15,17,Jits_Phase_5,3,5,56,103,1494731088
119,15,17,Jits_Phase_5,0,5,63,98,1495140784
119,15,17,Jits_Phase_5,1,1,48,53,1495186972
119,15,17,Jits_Phase_5,2,5,56,103,1495190976
119,15,17,Jits_Phase_5,3,5,80,127,1495220576
119,15,17,Jits_Phase_5,0,5,80,127,1495640460
119,15,17,Jits_Phase_5,1,5,63,98,1495650656
119,15,17,Jits_Phase_5,2,1,48,54,1495674820
119,15,17,Jits_Phase_5,3,5,56,103,1495721296
119,15,17,Jits_Phase_5,0,1,48,56,1496188132
119,15,17,Jits_Phase_5,1,5,80,127,1496200456
119,15,17,Jits_Phase_5,2,5,56,103,1496211020
119,15,17,Jits_Phase_5,3,5,63,98,1496213940
119,15,17,Jits_Phase_5,0,5,56,103,1496640872
119,15,17,Jits_Phase_5,1,5,80,127,1496661332
119,15,17,Jits_Phase_5,2,5,63,98,1496670480
119,15,17,Jits_Phase_5,3,1,48,51,1496696440
119,15,17,Jits_Phase_5,0,5,63,98,1497150972
119,15,17,Jits_Phase_5,1,1,48,52,1497169380
119,15,17,Jits_Phase_5,2,5,56,103,1497190828
119,15,17,Jits_Phase_5,3,5,80,127,1497211288
119,15,17,Jits_Phase_5,0,5,63,98,1497650504
119,15,17,Jits_Phase_5,1,1,48,53,1497660368
119,15,17,Jits_Phase_5,2,5,56,103,1497710884
119,15,17,Jits_Phase_5,3,5,80,127,1497713876
119,15,17,Jits_Phase_5,0,5,56,103,1498111360
119,15,17,Jits_Phase_5,1,5,80,127,1498130996
119,15,17,Jits_Phase_5,2,1,48,58,1498159744
119,15,17,Jits_Phase_5,3,5,63,98,1498171076
119,15,17,Jits_Phase_5,0,5,56,103,1498640868
119,15,17,Jits_Phase_5,1,1,48,54,1498650960
119,15,17,Jits_Phase_5,2,5,63,98,1498661168
119,15,17,Jits_Phase_5,3,5,80,127,1498670544
119,15,17,Jits_Phase_5,0,5,80,127,1499111012
119,15,17,Jits_Phase_5,1,1,48,60,1499133192
119,15,17,Jits_Phase_5,2,5,56,103,1499140336
119,15,17,Jits_Phase_5,3,5,63,98,1499181320
119,15,17,Jits_Phase_5,0,5,80,127,1499620820
119,15,17,Jits_Phase_5,1,1,48,54,1499630384
119,15,17,Jits_Phase_5,2,5,56,103,1499641296
119,15,17,Jits_Phase_5,3,5,63,98,1499700560
119,15,17,Jits_Phase_5,0,1,48,54,1500120996
119,15,17,Jits_Phase_5,1,5,56,103,1500130760
119,15,17,Jits_Phase_5,2,5,80,127,1500151096
119,15,17,Jits_Phase_5,3,5,63,98,1500210660
119,15,17,Jits_Phase_5,0,5,80,127,1500611036
119,15,17,Jits_Phase_5,1,5,56,103,1500621160
119,15,17,Jits_Phase_5,2,1,48,56,1500642036
119,15,17,Jits_Phase_5,3,5,63,98,1500661164
119,15,17,Jits_Phase_5,0,5,63,98,1501111012
119,15,17,Jits_Phase_5,1,1,48,57,1501116004
119,15,17,Jits_Phase_5,2,5,56,103,1501150720
119,15,17,Jits_Phase_5,3,5,80,127,1501153860
119,15,17,Jits_Phase_5,0,1,48,54,1501619864
119,15,17,Jits_Phase_5,1,5,63,98,1501630976
119,15,17,Jits_Phase_5,2,5,80,127,1501671060
119,15,17,Jits_Phase_5,3,5,56,103,1501700388
119,15,17,Jits_Phase_5,0,1,48,53,1502121440
119,15,17,Jits_Phase_5,1,5,56,103,1502122704
119,15,17,Jits_Phase_5,2,5,63,98,1502130732
119,15,17,Jits_Phase_5,3,5,80,127,1502161228
119,15,17,Jits_Phase_5,0,1,48,51,1502593432
119,15,17,Jits_Phase_5,1,5,80,127,1502611064
119,15,17,Jits_Phase_5,2,5,63,98,1502680520
119,15,17,Jits_Phase_5,3,5,56,103,1502690848
119,15,17,Jits_Phase_5,0,1,48,51,1503108708
119,15,17,Jits_Phase_5,1,5,63,98,1503110444
119,15,17,Jits_Phase_5,2,5,56,103,1503181096
119,15,17,Jits_Phase_5,3,5,80,127,1503191292
119,15,17,Jits_Phase_5,0,5,63,98,1503590796
119,15,17,Jits_Phase_5,1,5,56,103,1503611108
119,15,17,Jits_Phase_5,2,1,48,50,1503612444
119,15,17,Jits_Phase_5,3,5,80,127,1503651112
119,15,17,Jits_Phase_5,0,5,56,103,1504071068
119,15,17,Jits_Phase_5,1,5,63,98,1504081192
119,15,17,Jits_Phase_5,2,1,48,48,1504090832
119,15,17,Jits_Phase_5,3,5,80,127,1504161124
119,15,17,Jits_Phase_5,0,5,63,98,1504560420
119,15,17,Jits_Phase_5,1,5,56,103,1504591292
119,15,17,Jits_Phase_5,2,1,48,51,1504604300
119,15,17,Jits_Phase_5,3,5,80,127,1504631292
119,15,17,Jits_Phase_5,0,5,56,103,1505061212
119,15,17,Jits_Phase_5,1,1,48,48,1505101524
119,15,17,Jits_Phase_5,2,5,63,98,1505102788
119,15,17,Jits_Phase_5,3,5,80,127,1505141084
119,15,17,Jits_Phase_5,0,5,80,127,1505561052
119,15,17,Jits_Phase_5,1,1,48,52,1505603656
119,15,17,Jits_Phase_5,2,5,56,103,1505640840
119,15,17,Jits_Phase_5,3,5,63,98,1505651036
119,15,17,Jits_Phase_5,0,1,48,49,1506091952
119,15,17,Jits_Phase_5,1,5,56,103,1506100744
119,15,17,Jits_Phase_5,2,5,63,98,1506103664
119,15,17,Jits_Phase_5,3,5,80,127,1506111016
119,15,17,Jits_Phase_5,0,1,48,50,1506582408
119,15,17,Jits_Phase_5,1,5,56,103,1506620944
119,15,17,Jits_Phase_5,2,5,63,98,1506641252
119,15,17,Jits_Phase_5,3,5,80,127,1506650624
119,15,17,Jits_Phase_5,0,1,48,48,1507087172
119,15,17,Jits_Phase_5,1,5,63,98,1507090880
119,15,17,Jits_Phase_5,2,5,80,127,1507101076
119,15,17,Jits_Phase_5,3,5,56,103,1507120488
119,15,17,Jits_Phase_5,0,1,48,51,1507588440
119,15,17,Jits_Phase_5,1,5,63,98,1507590556
119,15,17,Jits_Phase_5,2,5,56,103,1507671620
119,15,17,Jits_Phase_5,3,5,80,127,1507674612
119,15,17,Jits_Phase_5,0,5,63,98,1508091276
119,15,17,Jits_Phase_5,1,1,48,50,1508109328
119,15,17,Jits_Phase_5,2,5,56,103,1508110904
119,15,17,Jits_Phase_5,3,5,80,127,1508141552
119,15,17,Jits_Phase_5,0,5,56,103,1508591004
119,15,17,Jits_Phase_5,1,1,48,48,1508605088
119,15,17,Jits_Phase_5,2,5,63,98,1508610360
119,15,17,Jits_Phase_5,3,5,80,127,1508621000
119,15,17,Jits_Phase_5,0,1,48,50,1509104744
119,15,17,Jits_Phase_5,1,5,56,103,1509121352
119,15,17,Jits_Phase_5,2,5,63,98,1509151024
119,15,17,Jits_Phase_5,3,5,80,127,1509154388
119,15,17,Jits_Phase_5,0,5,56,103,1509570880
119,15,17,Jits_Phase_5,1,1,48,52,1509598508
119,15,17,Jits_Phase_5,2,5,63,98,1509610740
119,15,17,Jits_Phase_5,3,5,80,127,1509671300
119,15,17,Jits_Phase_5,0,5,56,103,1510091092
119,15,17,Jits_Phase_5,1,5,63,98,1510101216
119,15,17,Jits_Phase_5,2,1,48,51,1510109512
119,15,17,Jits_Phase_5,3,5,80,127,1510160720
119,15,17,Jits_Phase_5,0,5,56,103,1510590712
119,15,17,Jits_Phase_5,1,1,48,52,1510607532
119,15,17,Jits_Phase_5,2,5,80,127,1510611236
119,15,17,Jits_Phase_5,3,5,63,98,1510640984
119,15,17,Jits_Phase_5,0,5,80,127,1511090624
119,15,17,Jits_Phase_5,1,5,56,103,1511100672
119,15,17,Jits_Phase_5,2,1,48,49,1511115768
119,15,17,Jits_Phase_5,3,5,63,98,1511121120
119,15,17,Jits_Phase_5,0,5,63,98,1511581092
119,15,17,Jits_Phase_5,1,1,48,50,1511625640
119,15,17,Jits_Phase_5,2,5,80,127,1511660808
119,15,17,Jits_Phase_5,3,5,56,103,1511671028
119,15,17,Jits_Phase_5,0,1,48,52,1512117816
119,15,17,Jits_Phase_5,1,5,80,127,1512170820
119,15,17,Jits_Phase_5,2,5,56,103,1512191452
119,15,17,Jits_Phase_5,3,5,63,98,1512194596
119,15,17,Jits_Phase_5,0,1,48,49,1512639156
119,15,17,Jits_Phase_5,1,5,63,98,1512661728
119,15,17,Jits_Phase_5,2,5,80,127,1512664864
119,15,17,Jits_Phase_5,3,5,56,103,1512720788
119,15,17,Jits_Phase_5,0,5,56,103,1513140948
119,15,17,Jits_Phase_5,1,5,80,127,1513150920
119,15,17,Jits_Phase_5,2,1,48,54,1513161532
119,15,17,Jits_Phase_5,3,5,63,98,1513190924
119,15,17,Jits_Phase_5,0,5,56,103,1513620932
119,15,17,Jits_Phase_5,1,1,48,55,1513660168
119,15,17,Jits_Phase_5,2,5,63,98,1513681392
119,15,17,Jits_Phase_5,3,5,80,127,1513690764
119,15,17,Jits_Phase_5,0,5,63,98,1514130740
119,15,17,Jits_Phase_5,1,5,80,127,1514170676
119,15,17,Jits_Phase_5,2,1,48,50,1514175520
119,15,17,Jits_Phase_5,3,5,56,103,1514210608
119,15,17,Jits_Phase_5,0,5,56,103,1514630712
119,15,17,Jits_Phase_5,1,1,48,59,1514673616
119,15,17,Jits_Phase_5,2,5,63,98,1514711696
119,15,17,Jits_Phase_5,3,5,80,127,1514715060
119,15,17,Jits_Phase_5,0,1,48,53,1515185576
119,15,17,Jits_Phase_5,1,5,80,127,1515190920
119,15,17,Jits_Phase_5,2,5,56,103,1515221264
119,15,17,Jits_Phase_5,3,5,63,98,1515224636
119,15,17,Jits_Phase_5,0,5,56,103,1515650596
119,15,17,Jits_Phase_5,1,5,80,127,1515670832
119,15,17,Jits_Phase_5,2,1,48,54,1515695972
119,15,17,Jits_Phase_5,3,5,63,98,1515710764
119,15,17,Jits_Phase_5,0,5,80,127,1516130804
119,15,17,Jits_Phase_5,1,5,63,98,1516151040
119,15,17,Jits_Phase_5,2,1,48,50,1516196556
119,15,17,Jits_Phase_5,3,5,56,103,1516210672
119,15,17,Jits_Phase_5,0,5,63,98,1516640760
119,15,17,Jits_Phase_5,1,5,56,103,1516650884
119,15,17,Jits_Phase_5,2,1,48,53,1516676920
119,15,17,Jits_Phase_5,3,5,80,127,1516701000
119,15,17,Jits_Phase_5,0,5,56,103,1517131072
119,15,17,Jits_Phase_5,1,5,63,98,1517150704
119,15,17,Jits_Phase_5,2,5,80,127,1517160900
119,15,17,Jits_Phase_5,3,1,48,55,1517167160
119,15,17,Jits_Phase_5,0,5,56,103,1517620716
119,15,17,Jits_Phase_5,1,5,63,98,1517623632
119,15,17,Jits_Phase_5,2,5,80,127,1517641024
119,15,17,Jits_Phase_5,3,1,48,51,1517653508
119,15,17,Jits_Phase_5,0,1,48,54,1518130552
119,15,17,Jits_Phase_5,1,5,63,98,1518161364
119,15,17,Jits_Phase_5,2,5,56,103,1518190892
119,15,17,Jits_Phase_5,3,5,80,127,1518220712
119,15,17,Jits_Phase_5,0,5,80,127,1518621044
119,15,17,Jits_Phase_5,1,1,48,49,1518660424
119,15,17,Jits_Phase_5,2,5,56,103,1518711012
119,15,17,Jits_Phase_5,3,5,63,98,1518714160
119,15,17,Jits_Phase_5,0,5,56,103,1519120644
119,15,17,Jits_Phase_5,1,5,80,127,1519123716
119,15,17,Jits_Phase_5,2,1,48,57,1519197100
119,15,17,Jits_Phase_5,3,5,63,98,1519200804
119,15,17,Jits_Phase_5,0,5,80,127,1519620476
119,15,17,Jits_Phase_5,1,5,63,98,1519680940
119,15,17,Jits_Phase_5,2,1,48,47,1519691856
119,15,17,Jits_Phase_5,3,5,56,103,1519710756
119,15,17,Jits_Phase_5,0,5,63,98,1520121064
119,15,17,Jits_Phase_5,1,5,80,127,1520130584
119,15,17,Jits_Phase_5,2,1,48,53,1520157668
119,15,17,Jits_Phase_5,3,5,56,103,1520201004
119,15,17,Jits_Phase_5,0,1,48,48,1520650452
119,15,17,Jits_Phase_5,1,5,56,103,1520681412
119,15,17,Jits_Phase_5,2,5,80,127,1520711088
119,15,17,Jits_Phase_5,3,5,63,98,1520761276
119,15,17,Jits_Phase_5,0,1,48,47,1521191768
119,15,17,Jits_Phase_5,1,5,63,98,1521271284
119,15,17,Jits_Phase_5,2,5,56,103,1521300792
119,15,17,Jits_Phase_5,3,5,80,127,1521303860
119,15,17,Jits_Phase_5,0,1,48,43,1521760888
119,15,17,Jits_Phase_5,1,5,63,98,1521770804
119,15,17,Jits_Phase_5,2,5,80,127,1521791636
119,15,17,Jits_Phase_5,3,5,56,103,1521800488
119,15,17,Jits_Phase_5,0,5,56,103,1522280900
119,15,17,Jits_Phase_5,1,5,63,98,1522283964
119,15,17,Jits_Phase_5,2,1,48,39,1522294280
119,15,17,Jits_Phase_5,3,5,80,127,1522301572
119,15,17,Jits_Phase_5,0,5,56,103,1522731656
119,15,17,Jits_Phase_5,1,5,63,98,1522740580
119,15,17,Jits_Phase_5,2,5,80,127,1522771524
119,15,17,Jits_Phase_5,3,1,48,42,1522810384
119,15,17,Jits_Phase_5,0,5,63,98,1523250524
119,15,17,Jits_Phase_5,1,1,48,39,1523269852
119,15,17,Jits_Phase_5,2,5,80,127,1523271496
119,15,17,Jits_Phase_5,3,5,56,103,1523310988
119,15,17,Jits_Phase_5,0,1,48,46,1523769276
119,15,17,Jits_Phase_5,1,5,56,103,1523780912
119,15,17,Jits_Phase_5,2,5,63,98,1523820848
119,15,17,Jits_Phase_5,3,5,80,127,1523824140
119,15,17,Jits_Phase_5,0,5,80,127,1524221472
119,15,17,Jits_Phase_5,1,5,56,103,1524261188
119,15,17,Jits_Phase_5,2,1,48,46,1524271132
119,15,17,Jits_Phase_5,3,5,63,98,1524311532
119,15,17,Jits_Phase_5,0,1,48,43,1524772380
119,15,17,Jits_Phase_5,1,5,56,103,1524781544
119,15,17,Jits_Phase_5,2,5,80,127,1524790540
119,15,17,Jits_Phase_5,3,5,63,98,1524821336
119,15,17,Jits_Phase_5,0,5,56,103,1525230860
119,15,17,Jits_Phase_5,1,5,80,127,1525270820
119,15,17,Jits_Phase_5,2,1,48,43,1525275288
119,15,17,Jits_Phase_5,3,5,63,98,1525321016
119,15,17,Jits_Phase_5,0,5,56,103,1525730624
119,15,17,Jits_Phase_5,1,1,48,40,1525756988
119,15,17,Jits_Phase_5,2,5,80,127,1525770580
119,15,17,Jits_Phase_5,3,5,63,98,1525820704
119,15,17,Jits_Phase_5,0,5,80,127,1526221024
119,15,17,Jits_Phase_5,1,1,48,41,1526249468
119,15,17,Jits_Phase_5,2,5,63,98,1526300984
119,15,17,Jits_Phase_5,3,5,56,103,1526311328
119,15,17,Jits_Phase_5,0,1,48,43,1526719784
119,15,17,Jits_Phase_5,1,5,80,127,1526771272
119,15,17,Jits_Phase_5,2,5,56,103,1526781392
119,15,17,Jits_Phase_5,3,5,63,98,1526800732
119,15,17,Jits_Phase_5,0,1,48,41,1527234860
119,15,17,Jits_Phase_5,1,5,63,98,1527241176
119,15,17,Jits_Phase_5,2,5,56,103,1527310732
119,15,17,Jits_Phase_5,3,5,80,127,1527313800
119,15,17,Jits_Phase_5,0,1,48,45,1527710552
119,15,17,Jits_Phase_5,1,5,80,127,1527730580
119,15,17,Jits_Phase_5,2,5,63,98,1527780784
119,15,17,Jits_Phase_5,3,5,56,103,1527820508
119,15,17,Jits_Phase_5,0,1,48,43,1528209860
119,15,17,Jits_Phase_5,1,5,63,98,1528271316
119,15,17,Jits_Phase_5,2,5,56,103,1528311260
119,15,17,Jits_Phase_5,3,5,80,127,1528321460
119,15,17,Jits_Phase_5,0,1,48,42,1528734404
119,15,17,Jits_Phase_5,1,5,63,98,1528760656
119,15,17,Jits_Phase_5,2,5,56,103,1528781264
119,15,17,Jits_Phase_5,3,5,80,127,1528800528
119,15,17,Jits_Phase_5,0,5,80,127,1529220556
119,15,17,Jits_Phase_5,1,5,56,103,1529230676
119,15,17,Jits_Phase_5,2,1,48,43,1529242040
119,15,17,Jits_Phase_5,3,5,63,98,1529251128
119,15,17,Jits_Phase_5,0,1,48,40,1529726344
119,15,17,Jits_Phase_5,1,5,63,98,1529750800
119,15,17,Jits_Phase_5,2,5,56,103,1529790816
119,15,17,Jits_Phase_5,3,5,80,127,1529820400
119,15,17,Jits_Phase_5,0,5,56,103,1530210632
119,15,17,Jits_Phase_5,1,1,48,41,1530222968
119,15,17,Jits_Phase_5,2,5,63,98,1530241572
119,15,17,Jits_Phase_5,3,5,80,127,1530271020
119,15,17,Jits_Phase_5,0,5,80,127,1530630396
119,15,17,Jits_Phase_5,1,1,48,37,1530697184
119,15,17,Jits_Phase_5,2,5,56,103,1530701112
119,15,17,Jits_Phase_5,3,5,63,98,1530704400
119,15,17,Jits_Phase_5,0,5,56,103,1531140416
119,15,17,Jits_Phase_5,1,1,48,40,1531179428
119,15,17,Jits_Phase_5,2,5,63,98,1531190612
119,15,17,Jits_Phase_5,3,5,80,127,1531221404
119,15,17,Jits_Phase_5,0,5,63,98,1531620748
119,15,17,Jits_Phase_5,1,5,80,127,1531623968
119,15,17,Jits_Phase_5,2,1,48,40,1531633604
119,15,17,Jits_Phase_5,3,5,56,103,1531681080
119,15,17,Jits_Phase_5,0,1,48,36,1532123748
119,15,17,Jits_Phase_5,1,5,56,103,1532151220
119,15,17,Jits_Phase_5,2,5,80,127,1532161344
119,15,17,Jits_Phase_5,3,5,63,98,1532210496
119,15,17,Jits_Phase_5,0,5,63,98,1532621360
119,15,17,Jits_Phase_5,1,1,48,38,1532630356
119,15,17,Jits_Phase_5,2,5,56,103,1532631924
119,15,17,Jits_Phase_5,3,5,80,127,1532661100
119,15,17,Jits_Phase_5,0,1,48,42,1533120180
119,15,17,Jits_Phase_5,1,5,63,98,1533150544
119,15,17,Jits_Phase_5,2,5,80,127,1533153832
119,15,17,Jits_Phase_5,3,5,56,103,1533181512
119,15,17,Jits_Phase_5,0,1,48,42,1533628832
119,15,17,Jits_Phase_5,1,5,63,98,1533670804
119,15,17,Jits_Phase_5,2,5,56,103,1533691508
119,15,17,Jits_Phase_5,3,5,80,127,1533694576
119,15,17,Jits_Phase_5,0,5,63,98,1534130400
119,15,17,Jits_Phase_5,1,1,48,42,1534131364
119,15,17,Jits_Phase_5,2,5,56,103,1534201364
119,15,17,Jits_Phase_5,3,5,80,127,1534220628
119,15,17,Jits_Phase_5,0,5,56,103,1534620932
119,15,17,Jits_Phase_5,1,5,63,98,1534631576
119,15,17,Jits_Phase_5,2,1,48,41,1534669760
119,15,17,Jits_Phase_5,3,5,80,127,1534721496
119,15,17,Jits_Phase_5,0,5,56,103,1535141296
119,15,17,Jits_Phase_5,1,1,48,38,1535164872
119,15,17,Jits_Phase_5,2,5,80,127,1535181452
119,15,17,Jits_Phase_5,3,5,63,98,1535191500
119,15,17,Jits_Phase_5,0,1,48,41,1535627088
119,15,17,Jits_Phase_5,1,5,56,103,1535661288
119,15,17,Jits_Phase_5,2,5,63,98,1535691408
119,15,17,Jits_Phase_5,3,5,80,127,1535722040
119,15,17,Jits_Phase_5,0,5,80,127,1536121412
119,15,17,Jits_Phase_5,1,1,48,40,1536131360
119,15,17,Jits_Phase_5,2,5,63,98,1536161196
119,15,17,Jits_Phase_5,3,5,56,103,1536180608
119,15,17,Jits_Phase_5,0,1,48,38,1536623388
119,15,17,Jits_Phase_5,1,5,56,103,1536660728
119,15,17,Jits_Phase_5,2,5,80,127,1536681408
119,15,17,Jits_Phase_5,3,5,63,98,1536700896
119,15,17,Jits_Phase_5,0,1,48,39,1537126436
119,15,17,Jits_Phase_5,1,5,63,98,1537130736
119,15,17,Jits_Phase_5,2,5,56,103,1537141300
119,15,17,Jits_Phase_5,3,5,80,127,1537200344
119,15,17,Jits_Phase_5,0,1,48,41,1537615092
119,15,17,Jits_Phase_5,1,5,56,103,1537630556
119,15,17,Jits_Phase_5,2,5,63,98,1537701504
119,15,17,Jits_Phase_5,3,5,80,127,1537720752
119,15,17,Jits_Phase_5,0,1,48,40,1538113872
119,15,17,Jits_Phase_5,1,5,56,103,1538131576
119,15,17,Jits_Phase_5,2,5,63,98,1538160880
119,15,17,Jits_Phase_5,3,5,80,127,1538200816
119,15,17,Jits_Phase_5,0,1,48,40,1538578396
119,15,17,Jits_Phase_5,1,5,63,98,1538620836
119,15,17,Jits_Phase_5,2,5,56,103,1538670964
119,15,17,Jits_Phase_5,3,5,80,127,1538681440
119,15,17,Jits_Phase_5,0,1,48,42,1539097028
119,15,17,Jits_Phase_5,1,5,56,103,1539160516
119,15,17,Jits_Phase_5,2,5,63,98,1539210704
119,15,17,Jits_Phase_5,3,5,80,127,1539220896
119,15,17,Jits_Phase_5,0,5,56,103,1539630384
119,15,17,Jits_Phase_5,1,1,48,40,1539637992
119,15,17,Jits_Phase_5,2,5,63,98,1539640648
119,15,17,Jits_Phase_5,3,5,80,127,1539720664
119,15,17,Jits_Phase_5,0,9999,9999,9999,1455388768
119,15,17,Jits_Phase_5,1,9999,9999,9999,1455888444
119,15,17,Jits_Phase_5,2,9999,9999,9999,1456388176
119,15,17,Jits_Phase_5,3,9999,9999,9999,1456888944
119,15,17,Jits_Phase_5,4,9999,9999,9999,1457388616
119,15,17,Jits_Phase_5,5,9999,9999,9999,1457888368
119,15,17,Jits_Phase_5,6,9999,9999,9999,1458389088
119,15,17,Jits_Phase_5,7,9999,9999,9999,1458888764
119,15,17,Jits_Phase_5,8,9999,9999,9999,1459388488
119,15,17,Jits_Phase_5,9,9999,9999,9999,1459888256
119,15,17,Jits_Phase_5,10,9999,9999,9999,1460388988
119,15,17,Jits_Phase_5,11,9999,9999,9999,1460888660
119,15,17,Jits_Phase_5,12,9999,9999,9999,1461388404
119,15,17,Jits_Phase_5,13,9999,9999,9999,1461888076
119,15,17,Jits_Phase_5,14,9999,9999,9999,1462388800
119,15,17,Jits_Phase_5,15,9999,9999,9999,1462888548
119,15,17,Jits_Phase_5,16,9999,9999,9999,1463388224
119,15,17,Jits_Phase_5,17,9999,9999,9999,1463889020
119,15,17,Jits_Phase_5,18,9999,9999,9999,1464388696
119,15,17,Jits_Phase_5,19,9999,9999,9999,1464888444
119,15,17,Jits_Phase_5,20,9999,9999,9999,1465388120
119,15,17,Jits_Phase_5,21,9999,9999,9999,1465888844
119,15,17,Jits_Phase_5,22,9999,9999,9999,1466388536
119,15,17,Jits_Phase_5,23,9999,9999,9999,1466888300
119,15,17,Jits_Phase_5,24,9999,9999,9999,1467389036
119,15,17,Jits_Phase_5,25,9999,9999,9999,1467888764
119,15,17,Jits_Phase_5,26,9999,9999,9999,1468388440
119,15,17,Jits_Phase_5,27,9999,9999,9999,1468888172
119,15,17,Jits_Phase_5,28,9999,9999,9999,1469388912
119,15,17,Jits_Phase_5,29,9999,9999,9999,1469888584
119,15,17,Jits_Phase_5,30,9999,9999,9999,1470379132
119,15,17,Jits_Phase_5,31,9999,9999,9999,1470889072
119,15,17,Jits_Phase_5,32,9999,9999,9999,1471388744
119,15,17,Jits_Phase_5,33,9999,9999,9999,1471888492
119,15,17,Jits_Phase_5,34,9999,9999,9999,1472388172
119,15,17,Jits_Phase_5,35,9999,9999,9999,1472888904
119,15,17,Jits_Phase_5,36,9999,9999,9999,1473388644
119,15,17,Jits_Phase_5,37,9999,9999,9999,1473888320
119,15,17,Jits_Phase_5,38,9999,9999,9999,1474389116
119,15,17,Jits_Phase_5,39,9999,9999,9999,1474888796
119,15,17,Jits_Phase_5,40,9999,9999,9999,1475388468
119,15,17,Jits_Phase_5,41,9999,9999,9999,1475888228
119,15,17,Jits_Phase_5,42,9999,9999,9999,1476388964
119,15,17,Jits_Phase_5,43,9999,9999,9999,1476888632
119,15,17,Jits_Phase_5,44,9999,9999,9999,1477388380
119,15,17,Jits_Phase_5,45,9999,9999,9999,1477888068
119,15,17,Jits_Phase_5,46,9999,9999,9999,1478388840
119,15,17,Jits_Phase_5,47,9999,9999,9999,1478888512
119,15,17,Jits_Phase_5,48,9999,9999,9999,1479398524
119,15,17,Jits_Phase_5,49,9999,9999,9999,1479898196
119,15,17,Jits_Phase_5,50,9999,9999,9999,1480398908
119,15,17,Jits_Phase_5,51,9999,9999,9999,1480898668
119,15,17,Jits_Phase_5,52,9999,9999,9999,1481398364
119,15,17,Jits_Phase_5,53,9999,9999,9999,1481899108
119,15,17,Jits_Phase_5,54,9999,9999,9999,1482409044
119,15,17,Jits_Phase_5,55,9999,9999,9999,1482908756
119,15,17,Jits_Phase_5,56,9999,9999,9999,1483408460
119,15,17,Jits_Phase_5,57,9999,9999,9999,1483908216
119,15,17,Jits_Phase_5,58,9999,9999,9999,1484408940
119,15,17,Jits_Phase_5,59,9999,9999,9999,1484908600
119,15,17,Jits_Phase_5,60,9999,9999,9999,1485408364
119,15,17,Jits_Phase_5,61,9999,9999,9999,1485909080
119,15,17,Jits_Phase_5,62,9999,9999,9999,1486408772
119,15,17,Jits_Phase_5,63,9999,9999,9999,1486908532
119,15,17,Jits_Phase_5,64,9999,9999,9999,1487428732
119,15,17,Jits_Phase_5,65,9999,9999,9999,1487928420
119,15,17,Jits_Phase_5,66,9999,9999,9999,1488428112
119,15,17,Jits_Phase_5,67,9999,9999,9999,1488928832
119,15,17,Jits_Phase_5,68,9999,9999,9999,1489428596
119,15,17,Jits_Phase_5,69,9999,9999,9999,1489928284
119,15,17,Jits_Phase_5,70,9999,9999,9999,1490428996
119,15,17,Jits_Phase_5,71,9999,9999,9999,1490928736
119,15,17,Jits_Phase_5,72,9999,9999,9999,1491428416
119,15,17,Jits_Phase_5,73,9999,9999,9999,1491928168
119,15,17,Jits_Phase_5,74,9999,9999,9999,1492428904
119,15,17,Jits_Phase_5,75,9999,9999,9999,1492928576
119,15,17,Jits_Phase_5,76,9999,9999,9999,1493428348
119,15,17,Jits_Phase_5,77,9999,9999,9999,1493929068
119,15,17,Jits_Phase_5,78,9999,9999,9999,1494428760
119,15,17,Jits_Phase_5,79,9999,9999,9999,1494928452
119,15,17,Jits_Phase_5,80,9999,9999,9999,1495428200
119,15,17,Jits_Phase_5,81,9999,9999,9999,1495908476
119,15,17,Jits_Phase_5,82,9999,9999,9999,1496408164
119,15,17,Jits_Phase_5,83,9999,9999,9999,1496908884
119,15,17,Jits_Phase_5,84,9999,9999,9999,1497408576
119,15,17,Jits_Phase_5,85,9999,9999,9999,1497908324
119,15,17,Jits_Phase_5,86,9999,9999,9999,1498409040
119,15,17,Jits_Phase_5,87,9999,9999,9999,1498908736
119,15,17,Jits_Phase_5,88,9999,9999,9999,1499408496
119,15,17,Jits_Phase_5,89,9999,9999,9999,1499908188
119,15,17,Jits_Phase_5,90,9999,9999,9999,1500408920
119,15,17,Jits_Phase_5,91,9999,9999,9999,1500908640
119,15,17,Jits_Phase_5,92,9999,9999,9999,1501408312
119,15,17,Jits_Phase_5,93,9999,9999,9999,1501909112
119,15,17,Jits_Phase_5,94,9999,9999,9999,1502408784
119,15,17,Jits_Phase_5,95,9999,9999,9999,1502908532
119,15,17,Jits_Phase_5,96,9999,9999,9999,1503408208
119,15,17,Jits_Phase_5,97,9999,9999,9999,1503858812
119,15,17,Jits_Phase_5,98,9999,9999,9999,1504358488
119,15,17,Jits_Phase_5,99,9999,9999,9999,1504858176
119,15,17,Jits_Phase_5,100,9999,9999,9999,1505358972
119,15,17,Jits_Phase_5,101,9999,9999,9999,1505858664
119,15,17,Jits_Phase_5,102,9999,9999,9999,1506358348
119,15,17,Jits_Phase_5,103,9999,9999,9999,1506859076
119,15,17,Jits_Phase_5,104,9999,9999,9999,1507369088
119,15,17,Jits_Phase_5,105,9999,9999,9999,1507868760
119,15,17,Jits_Phase_5,106,9999,9999,9999,1508368508
119,15,17,Jits_Phase_5,107,9999,9999,9999,1508868184
119,15,17,Jits_Phase_5,108,9999,9999,9999,1509368916
119,15,17,Jits_Phase_5,109,9999,9999,9999,1509868640
119,15,17,Jits_Phase_5,110,9999,9999,9999,1510368324
119,15,17,Jits_Phase_5,111,9999,9999,9999,1510869060
119,15,17,Jits_Phase_5,112,9999,9999,9999,1511368824
119,15,17,Jits_Phase_5,113,9999,9999,9999,1511868516
119,15,17,Jits_Phase_5,114,9999,9999,9999,1512418388
119,15,17,Jits_Phase_5,115,9999,9999,9999,1512918128
119,15,17,Jits_Phase_5,116,9999,9999,9999,1513418852
119,15,17,Jits_Phase_5,117,9999,9999,9999,1513918544
119,15,17,Jits_Phase_5,118,9999,9999,9999,1514418232
119,15,17,Jits_Phase_5,119,9999,9999,9999,1514919024
119,15,17,Jits_Phase_5,120,9999,9999,9999,1515418708
119,15,17,Jits_Phase_5,121,9999,9999,9999,1515918388
119,15,17,Jits_Phase_5,122,9999,9999,9999,1516418152
119,15,17,Jits_Phase_5,123,9999,9999,9999,1516918888
119,15,17,Jits_Phase_5,124,9999,9999,9999,1517418560
119,15,17,Jits_Phase_5,125,9999,9999,9999,1517918308
119,15,17,Jits_Phase_5,126,9999,9999,9999,1518419048
119,15,17,Jits_Phase_5,127,9999,9999,9999,1518918720
119,15,17,Jits_Phase_5,128,9999,9999,9999,1519418468
119,15,17,Jits_Phase_5,129,9999,9999,9999,1519918160
119,15,17,Jits_Phase_5,130,9999,9999,9999,1520418896
119,15,17,Jits_Phase_5,131,9999,9999,9999,1521018956
119,15,17,Jits_Phase_5,132,9999,9999,9999,1521518696
119,15,17,Jits_Phase_5,133,9999,9999,9999,1522018376
119,15,17,Jits_Phase_5,134,9999,9999,9999,1522518116
119,15,17,Jits_Phase_5,135,9999,9999,9999,1523018848
119,15,17,Jits_Phase_5,136,9999,9999,9999,1523518540
119,15,17,Jits_Phase_5,137,9999,9999,9999,1524018288
119,15,17,Jits_Phase_5,138,9999,9999,9999,1524519008
119,15,17,Jits_Phase_5,139,9999,9999,9999,1525018700
119,15,17,Jits_Phase_5,140,9999,9999,9999,1525518452
119,15,17,Jits_Phase_5,141,9999,9999,9999,1526018144
119,15,17,Jits_Phase_5,142,9999,9999,9999,1526518880
119,15,17,Jits_Phase_5,143,9999,9999,9999,1527018596
119,15,17,Jits_Phase_5,144,9999,9999,9999,1527518332
119,15,17,Jits_Phase_5,145,9999,9999,9999,1528019056
119,15,17,Jits_Phase_5,146,9999,9999,9999,1528518736
119,15,17,Jits_Phase_5,147,9999,9999,9999,1529018488
119,15,17,Jits_Phase_5,148,9999,9999,9999,1529518160
119,15,17,Jits_Phase_5,149,9999,9999,9999,1530018900
119,15,17,Jits_Phase_5,150,9999,9999,9999,1530418272
119,15,17,Jits_Phase_5,151,9999,9999,9999,1530919000
119,15,17,Jits_Phase_5,152,9999,9999,9999,1531418696
119,15,17,Jits_Phase_5,153,9999,9999,9999,1531918444
119,15,17,Jits_Phase_5,154,9999,9999,9999,1532418124
119,15,17,Jits_Phase_5,155,9999,9999,9999,1532918840
119,15,17,Jits_Phase_5,156,9999,9999,9999,1533418556
119,15,17,Jits_Phase_5,157,9999,9999,9999,1533918292
119,15,17,Jits_Phase_5,158,9999,9999,9999,1534419016
119,15,17,Jits_Phase_5,159,9999,9999,9999,1534918764
119,15,17,Jits_Phase_5,160,9999,9999,9999,1535418456
119,15,17,Jits_Phase_5,161,9999,9999,9999,1535918152
119,15,17,Jits_Phase_5,162,9999,9999,9999,1536418872
119,15,17,Jits_Phase_5,163,9999,9999,9999,1536918636
119,15,17,Jits_Phase_5,164,9999,9999,9999,1537418308
119,15,17,Jits_Phase_5,165,9999,9999,9999,1537919028
119,15,17,Jits_Phase_5,166,9999,9999,9999,1538418780
119,15,17,Jits_Phase_5,167,9999,9999,9999,1538918524
119,15,17,Jits_Phase_5,168,9999,9999,9999,1539418204
119,15,17,Jits_Phase_5,169,9999,9999,9999,1539918924
119,16,15,Jits_Phase_8,0,5,56,103,1550683576
119,16,15,Jits_Phase_8,1,5,63,98,1550686676
119,16,15,Jits_Phase_8,2,5,80,127,1550690092
119,16,15,Jits_Phase_8,0,5,56,103,1551484264
119,16,15,Jits_Phase_8,1,5,63,98,1551487360
119,16,15,Jits_Phase_8,2,5,80,127,1551490484
119,16,15,Jits_Phase_8,0,5,80,127,1552223536
119,16,15,Jits_Phase_8,1,1,48,70,1552269280
119,16,15,Jits_Phase_8,2,5,63,98,1552313668
119,16,15,Jits_Phase_8,3,5,56,103,1552324084
119,16,15,Jits_Phase_8,0,1,48,67,1553030464
119,16,15,Jits_Phase_8,1,5,56,103,1553043684
119,16,15,Jits_Phase_8,2,5,63,98,1553054180
119,16,15,Jits_Phase_8,3,5,80,127,1553144172
119,16,15,Jits_Phase_8,0,1,48,68,1553791484
119,16,15,Jits_Phase_8,1,5,63,98,1553814072
119,16,15,Jits_Phase_8,2,5,80,127,1553843528
119,16,15,Jits_Phase_8,3,5,56,103,1553874248
119,16,15,Jits_Phase_8,0,1,48,58,1554579104
119,16,15,Jits_Phase_8,1,5,56,103,1554613680
119,16,15,Jits_Phase_8,2,5,80,127,1554714084
119,16,15,Jits_Phase_8,3,5,63,98,1554764212
119,16,15,Jits_Phase_8,0,5,56,103,1555414272
119,16,15,Jits_Phase_8,1,5,80,127,1555463600
119,16,15,Jits_Phase_8,2,1,48,72,1555471972
119,16,15,Jits_Phase_8,3,5,63,98,1555503456
119,16,15,Jits_Phase_8,0,1,48,60,1556214336
119,16,15,Jits_Phase_8,1,5,80,127,1556244176
119,16,15,Jits_Phase_8,2,5,63,98,1556273408
119,16,15,Jits_Phase_8,3,5,56,103,1556344120
119,16,15,Jits_Phase_8,0,1,48,72,1557001044
119,16,15,Jits_Phase_8,1,5,63,98,1557074284
119,16,15,Jits_Phase_8,2,5,56,103,1557104168
119,16,15,Jits_Phase_8,3,5,80,127,1557164408
119,16,15,Jits_Phase_8,0,1,48,74,1557799084
119,16,15,Jits_Phase_8,1,5,56,103,1557813576
119,16,15,Jits_Phase_8,2,5,80,127,1557816716
119,16,15,Jits_Phase_8,3,5,63,98,1557933356
119,16,15,Jits_Phase_8,0,1,48,71,1558619728
119,16,15,Jits_Phase_8,1,5,56,103,1558694308
119,16,15,Jits_Phase_8,2,5,80,127,1558734308
119,16,15,Jits_Phase_8,3,5,63,98,1558744580
119,16,15,Jits_Phase_8,0,5,56,103,1559454000
119,16,15,Jits_Phase_8,1,1,48,69,1559459436
119,16,15,Jits_Phase_8,2,5,80,127,1559473628
119,16,15,Jits_Phase_8,3,5,63,98,1559555156
119,16,15,Jits_Phase_8,0,5,80,127,1560243436
119,16,15,Jits_Phase_8,1,1,48,75,1560304700
119,16,15,Jits_Phase_8,2,5,56,103,1560344004
119,16,15,Jits_Phase_8,3,5,63,98,1560354272
119,16,15,Jits_Phase_8,0,5,63,98,1561013544
119,16,15,Jits_Phase_8,1,5,80,127,1561074084
119,16,15,Jits_Phase_8,2,5,56,103,1561084304
119,16,15,Jits_Phase_8,3,1,48,77,1561103308
119,16,15,Jits_Phase_8,0,5,56,103,1561814272
119,16,15,Jits_Phase_8,1,1,48,70,1561840684
119,16,15,Jits_Phase_8,2,5,63,98,1561883888
119,16,15,Jits_Phase_8,3,5,80,127,1561887408
119,16,15,Jits_Phase_8,0,1,48,66,1562585824
119,16,15,Jits_Phase_8,1,5,63,98,1562643940
119,16,15,Jits_Phase_8,2,5,56,103,1562693976
119,16,15,Jits_Phase_8,3,5,80,127,1562697192
119,16,15,Jits_Phase_8,0,1,48,65,1563372992
119,16,15,Jits_Phase_8,1,5,56,103,1563403524
119,16,15,Jits_Phase_8,2,5,80,127,1563406744
119,16,15,Jits_Phase_8,3,5,63,98,1563494092
119,16,15,Jits_Phase_8,0,1,48,74,1564179256
119,16,15,Jits_Phase_8,1,5,63,98,1564244320
119,16,15,Jits_Phase_8,2,5,56,103,1564333320
119,16,15,Jits_Phase_8,3,5,80,127,1564364264
119,16,15,Jits_Phase_8,0,1,48,60,1565031088
119,16,15,Jits_Phase_8,1,5,56,103,1565033820
119,16,15,Jits_Phase_8,2,5,63,98,1565134128
119,16,15,Jits_Phase_8,3,5,80,127,1565163880
119,16,15,Jits_Phase_8,0,5,63,98,1565853972
119,16,15,Jits_Phase_8,1,5,56,103,1565864316
119,16,15,Jits_Phase_8,2,1,48,63,1565873360
119,16,15,Jits_Phase_8,3,5,80,127,1565954388
119,16,15,Jits_Phase_8,0,1,48,61,1566672892
119,16,15,Jits_Phase_8,1,5,63,98,1566674472
119,16,15,Jits_Phase_8,2,5,56,103,1566754292
119,16,15,Jits_Phase_8,3,5,80,127,1566757212
119,16,15,Jits_Phase_8,0,5,80,127,1567434080
119,16,15,Jits_Phase_8,1,5,63,98,1567453716
119,16,15,Jits_Phase_8,2,1,48,62,1567490040
119,16,15,Jits_Phase_8,3,5,56,103,1567513900
119,16,15,Jits_Phase_8,0,1,48,65,1568264344
119,16,15,Jits_Phase_8,1,5,56,103,1568273732
119,16,15,Jits_Phase_8,2,5,63,98,1568294188
119,16,15,Jits_Phase_8,3,5,80,127,1568297848
119,16,15,Jits_Phase_8,0,5,63,98,1569014072
119,16,15,Jits_Phase_8,1,1,48,59,1569041304
119,16,15,Jits_Phase_8,2,5,80,127,1569094012
119,16,15,Jits_Phase_8,3,5,56,103,1569104208
119,16,15,Jits_Phase_8,0,5,63,98,1569834356
119,16,15,Jits_Phase_8,1,1,48,65,1569835472
119,16,15,Jits_Phase_8,2,5,56,103,1569853988
119,16,15,Jits_Phase_8,3,5,80,127,1569904112
119,16,15,Jits_Phase_8,0,5,80,127,1570634032
119,16,15,Jits_Phase_8,1,1,48,64,1570642848
119,16,15,Jits_Phase_8,2,5,63,98,1570674040
119,16,15,Jits_Phase_8,3,5,56,103,1570693528
119,16,15,Jits_Phase_8,0,1,48,61,1571433252
119,16,15,Jits_Phase_8,1,5,56,103,1571473732
119,16,15,Jits_Phase_8,2,5,63,98,1571484004
119,16,15,Jits_Phase_8,3,5,80,127,1571503492
119,16,15,Jits_Phase_8,0,5,56,103,1572203896
119,16,15,Jits_Phase_8,1,1,48,68,1572245752
119,16,15,Jits_Phase_8,2,5,63,98,1572293952
119,16,15,Jits_Phase_8,3,5,80,127,1572354352
119,16,15,Jits_Phase_8,0,5,80,127,1573034312
119,16,15,Jits_Phase_8,1,1,48,61,1573035280
119,16,15,Jits_Phase_8,2,5,56,103,1573043828
119,16,15,Jits_Phase_8,3,5,63,98,1573114208
119,16,15,Jits_Phase_8,0,1,48,63,1573822220
119,16,15,Jits_Phase_8,1,5,63,98,1573863748
119,16,15,Jits_Phase_8,2,5,80,127,1573954040
119,16,15,Jits_Phase_8,3,5,56,103,1573964164
119,16,15,Jits_Phase_8,0,5,63,98,1574593844
119,16,15,Jits_Phase_8,1,1,48,67,1574639584
119,16,15,Jits_Phase_8,2,5,80,127,1574644212
119,16,15,Jits_Phase_8,3,5,56,103,1574703776
119,16,15,Jits_Phase_8,0,1,48,65,1575409744
119,16,15,Jits_Phase_8,1,5,56,103,1575414068
119,16,15,Jits_Phase_8,2,5,80,127,1575464272
119,16,15,Jits_Phase_8,3,5,63,98,1575483684
119,16,15,Jits_Phase_8,0,5,56,103,1576184164
119,16,15,Jits_Phase_8,1,1,48,60,1576196796
119,16,15,Jits_Phase_8,2,5,80,127,1576243648
119,16,15,Jits_Phase_8,3,5,63,98,1576314360
119,16,15,Jits_Phase_8,0,1,48,60,1576992076
119,16,15,Jits_Phase_8,1,5,56,103,1576994116
119,16,15,Jits_Phase_8,2,5,80,127,1577023792
119,16,15,Jits_Phase_8,3,5,63,98,1577053688
119,16,15,Jits_Phase_8,0,1,48,66,1577797132
119,16,15,Jits_Phase_8,1,5,56,103,1577844208
119,16,15,Jits_Phase_8,2,5,80,127,1577863620
119,16,15,Jits_Phase_8,3,5,63,98,1577923924
119,16,15,Jits_Phase_8,0,1,48,60,1578568412
119,16,15,Jits_Phase_8,1,5,80,127,1578723744
119,16,15,Jits_Phase_8,2,5,56,103,1578734012
119,16,15,Jits_Phase_8,3,5,63,98,1578744236
119,16,15,Jits_Phase_8,0,1,48,64,1579449692
119,16,15,Jits_Phase_8,1,5,56,103,1579483588
119,16,15,Jits_Phase_8,2,5,80,127,1579523700
119,16,15,Jits_Phase_8,3,5,63,98,1579554112
119,16,15,Jits_Phase_8,0,5,56,103,1580253688
119,16,15,Jits_Phase_8,1,1,48,69,1580259352
119,16,15,Jits_Phase_8,2,5,63,98,1580284280
119,16,15,Jits_Phase_8,3,5,80,127,1580324216
119,16,15,Jits_Phase_8,0,5,80,127,1581004236
119,16,15,Jits_Phase_8,1,1,48,65,1581048728
119,16,15,Jits_Phase_8,2,5,63,98,1581054232
119,16,15,Jits_Phase_8,3,5,56,103,1581073720
119,16,15,Jits_Phase_8,0,1,48,61,1581812996
119,16,15,Jits_Phase_8,1,5,56,103,1581833840
119,16,15,Jits_Phase_8,2,5,80,127,1581904480
119,16,15,Jits_Phase_8,3,5,63,98,1581963824
119,16,15,Jits_Phase_8,0,5,80,127,1582634360
119,16,15,Jits_Phase_8,1,1,48,58,1582648188
119,16,15,Jits_Phase_8,2,5,63,98,1582723588
119,16,15,Jits_Phase_8,3,5,56,103,1582743976
119,16,15,Jits_Phase_8,0,5,63,98,1583453836
119,16,15,Jits_Phase_8,1,1,48,54,1583454728
119,16,15,Jits_Phase_8,2,5,56,103,1583473992
119,16,15,Jits_Phase_8,3,5,80,127,1583513928
119,16,15,Jits_Phase_8,0,5,80,127,1584214560
119,16,15,Jits_Phase_8,1,5,63,98,1584233820
119,16,15,Jits_Phase_8,2,1,48,71,1584248928
119,16,15,Jits_Phase_8,3,5,56,103,1584313832
119,16,15,Jits_Phase_8,0,5,63,98,1585003840
119,16,15,Jits_Phase_8,1,1,48,57,1585050632
119,16,15,Jits_Phase_8,2,5,56,103,1585113668
119,16,15,Jits_Phase_8,3,5,80,127,1585116588
119,16,15,Jits_Phase_8,0,5,63,98,1585824044
119,16,15,Jits_Phase_8,1,5,56,103,1585834312
119,16,15,Jits_Phase_8,2,5,80,127,1585837380
119,16,15,Jits_Phase_8,3,1,48,53,1585859000
119,16,15,Jits_Phase_8,0,1,48,58,1586597076
119,16,15,Jits_Phase_8,1,5,56,103,1586604592
119,16,15,Jits_Phase_8,2,5,80,127,1586724256
119,16,15,Jits_Phase_8,3,5,63,98,1586764124
119,16,15,Jits_Phase_8,0,1,48,62,1587412132
119,16,15,Jits_Phase_8,1,5,56,103,1587423616
119,16,15,Jits_Phase_8,2,5,80,127,1587503436
119,16,15,Jits_Phase_8,3,5,63,98,1587523880
119,16,15,Jits_Phase_8,0,5,56,103,1588224300
119,16,15,Jits_Phase_8,1,1,48,57,1588239480
119,16,15,Jits_Phase_8,2,5,63,98,1588333828
119,16,15,Jits_Phase_8,3,5,80,127,1588338452
119,16,15,Jits_Phase_8,0,1,48,61,1589059092
119,16,15,Jits_Phase_8,1,5,56,103,1589063920
119,16,15,Jits_Phase_8,2,5,80,127,1589093672
119,16,15,Jits_Phase_8,3,5,63,98,1589114204
119,16,15,Jits_Phase_8,0,5,63,98,1589853720
119,16,15,Jits_Phase_8,1,5,56,103,1589863692
119,16,15,Jits_Phase_8,2,5,80,127,1589874184
119,16,15,Jits_Phase_8,3,1,48,68,1589876784
119,16,15,Jits_Phase_8,0,5,80,127,1590644032
119,16,15,Jits_Phase_8,1,1,48,78,1590647744
119,16,15,Jits_Phase_8,2,5,56,103,1590694524
119,16,15,Jits_Phase_8,3,5,63,98,1590734092
119,16,15,Jits_Phase_8,0,1,48,65,1591440016
119,16,15,Jits_Phase_8,1,5,80,127,1591464472
119,16,15,Jits_Phase_8,2,5,63,98,1591483736
119,16,15,Jits_Phase_8,3,5,56,103,1591533864
119,16,15,Jits_Phase_8,0,1,48,67,1592247116
119,16,15,Jits_Phase_8,1,5,80,127,1592274344
119,16,15,Jits_Phase_8,2,5,56,103,1592304020
119,16,15,Jits_Phase_8,3,5,63,98,1592373560
119,16,15,Jits_Phase_8,0,1,48,63,1593102732
119,16,15,Jits_Phase_8,1,5,56,103,1593124180
119,16,15,Jits_Phase_8,2,5,80,127,1593133480
119,16,15,Jits_Phase_8,3,5,63,98,1593174464
119,16,15,Jits_Phase_8,0,5,56,103,1593833796
119,16,15,Jits_Phase_8,1,5,63,98,1593854428
119,16,15,Jits_Phase_8,2,5,80,127,1593923888
119,16,15,Jits_Phase_8,3,1,48,63,1593929172
119,16,15,Jits_Phase_8,0,5,63,98,1594654192
119,16,15,Jits_Phase_8,1,1,48,65,1594695524
119,16,15,Jits_Phase_8,2,5,80,127,1594713532
119,16,15,Jits_Phase_8,3,5,56,103,1594733844
119,16,15,Jits_Phase_8,0,5,80,127,1595443540
119,16,15,Jits_Phase_8,1,5,56,103,1595474416
119,16,15,Jits_Phase_8,2,1,48,59,1595494920
119,16,15,Jits_Phase_8,3,5,63,98,1595503936
119,16,15,Jits_Phase_8,0,5,56,103,1596244580
119,16,15,Jits_Phase_8,1,1,48,46,1596261104
119,16,15,Jits_Phase_8,2,5,63,98,1596303624
119,16,15,Jits_Phase_8,3,5,80,127,1596364072
119,16,15,Jits_Phase_8,0,5,80,127,1597063464
119,16,15,Jits_Phase_8,1,5,56,103,1597084072
119,16,15,Jits_Phase_8,2,1,48,63,1597089288
119,16,15,Jits_Phase_8,3,5,63,98,1597153672
119,16,15,Jits_Phase_8,0,5,80,127,1597864436
119,16,15,Jits_Phase_8,1,5,63,98,1597883700
119,16,15,Jits_Phase_8,2,1,48,61,1597894608
119,16,15,Jits_Phase_8,3,5,56,103,1597913588
119,16,15,Jits_Phase_8,0,5,80,127,1598653716
119,16,15,Jits_Phase_8,1,1,48,59,1598673424
119,16,15,Jits_Phase_8,2,5,63,98,1598674912
119,16,15,Jits_Phase_8,3,5,56,103,1598733684
119,16,15,Jits_Phase_8,0,5,80,127,1599453492
119,16,15,Jits_Phase_8,1,1,48,55,1599490936
119,16,15,Jits_Phase_8,2,5,56,103,1599553756
119,16,15,Jits_Phase_8,3,5,63,98,1599583568
119,16,15,Jits_Phase_8,0,5,63,98,1600244224
119,16,15,Jits_Phase_8,1,5,80,127,1600294356
119,16,15,Jits_Phase_8,2,1,48,57,1600309156
119,16,15,Jits_Phase_8,3,5,56,103,1600313908
119,16,15,Jits_Phase_8,0,5,80,127,1601083692
119,16,15,Jits_Phase_8,1,1,48,60,1601093556
119,16,15,Jits_Phase_8,2,5,56,103,1601113580
119,16,15,Jits_Phase_8,3,5,63,98,1601116648
119,16,15,Jits_Phase_8,0,1,48,59,1601884324
119,16,15,Jits_Phase_8,1,5,63,98,1601933572
119,16,15,Jits_Phase_8,2,5,56,103,1601973512
119,16,15,Jits_Phase_8,3,5,80,127,1601994180
119,16,15,Jits_Phase_8,0,5,80,127,1602693480
119,16,15,Jits_Phase_8,1,1,48,67,1602715180
119,16,15,Jits_Phase_8,2,5,63,98,1602774764
119,16,15,Jits_Phase_8,3,5,56,103,1602814416
119,16,15,Jits_Phase_8,0,5,63,98,1603513708
119,16,15,Jits_Phase_8,1,1,48,55,1603564928
119,16,15,Jits_Phase_8,2,5,80,127,1603593524
119,16,15,Jits_Phase_8,3,5,56,103,1603614204
119,16,15,Jits_Phase_8,0,5,56,103,1604354328
119,16,15,Jits_Phase_8,1,5,63,98,1604363628
119,16,15,Jits_Phase_8,2,1,48,59,1604391384
119,16,15,Jits_Phase_8,3,5,80,127,1604403556
119,16,15,Jits_Phase_8,0,5,56,103,1605074660
119,16,15,Jits_Phase_8,1,5,80,127,1605077500
119,16,15,Jits_Phase_8,2,1,48,62,1605174600
119,16,15,Jits_Phase_8,3,5,63,98,1605213652
119,16,15,Jits_Phase_8,0,5,56,103,1605863784
119,16,15,Jits_Phase_8,1,5,63,98,1605954016
119,16,15,Jits_Phase_8,2,1,48,64,1605981348
119,16,15,Jits_Phase_8,3,5,80,127,1606023616
119,16,15,Jits_Phase_8,0,5,63,98,1606744420
119,16,15,Jits_Phase_8,1,5,80,127,1606747708
119,16,15,Jits_Phase_8,2,1,48,59,1606777352
119,16,15,Jits_Phase_8,3,5,56,103,1606803904
119,16,15,Jits_Phase_8,0,1,48,60,1607541356
119,16,15,Jits_Phase_8,1,5,80,127,1607584396
119,16,15,Jits_Phase_8,2,5,56,103,1607603512
119,16,15,Jits_Phase_8,3,5,63,98,1607613784
119,16,15,Jits_Phase_8,0,5,56,103,1608293668
119,16,15,Jits_Phase_8,1,5,63,98,1608303936
119,16,15,Jits_Phase_8,2,5,80,127,1608373540
119,16,15,Jits_Phase_8,3,1,48,55,1608381764
119,16,15,Jits_Phase_8,0,5,80,127,1609093360
119,16,15,Jits_Phase_8,1,1,48,59,1609135064
119,16,15,Jits_Phase_8,2,5,56,103,1609143704
119,16,15,Jits_Phase_8,3,5,63,98,1609193832
119,16,15,Jits_Phase_8,0,1,48,59,1609926812
119,16,15,Jits_Phase_8,1,5,56,103,1609974288
119,16,15,Jits_Phase_8,2,5,63,98,1609984340
119,16,15,Jits_Phase_8,3,5,80,127,1610024276
119,16,15,Jits_Phase_8,0,5,56,103,1610713500
119,16,15,Jits_Phase_8,1,5,63,98,1610754512
119,16,15,Jits_Phase_8,2,1,48,57,1610766024
119,16,15,Jits_Phase_8,3,5,80,127,1610803512
119,16,15,Jits_Phase_8,0,5,80,127,1611474388
119,16,15,Jits_Phase_8,1,5,56,103,1611523348
119,16,15,Jits_Phase_8,2,5,63,98,1611544028
119,16,15,Jits_Phase_8,3,1,48,53,1611595848
119,16,15,Jits_Phase_8,0,5,80,127,1612284376
119,16,15,Jits_Phase_8,1,5,63,98,1612343644
119,16,15,Jits_Phase_8,2,1,48,44,1612362352
119,16,15,Jits_Phase_8,3,5,56,103,1612423508
119,16,15,Jits_Phase_8,0,5,80,127,1613063548
119,16,15,Jits_Phase_8,1,5,56,103,1613103340
119,16,15,Jits_Phase_8,2,5,63,98,1613124096
119,16,15,Jits_Phase_8,3,1,48,50,1613166244
119,16,15,Jits_Phase_8,0,5,56,103,1613913436
119,16,15,Jits_Phase_8,1,1,48,44,1613921892
119,16,15,Jits_Phase_8,2,5,80,127,1613923628
119,16,15,Jits_Phase_8,3,5,63,98,1613963564
119,16,15,Jits_Phase_8,0,1,48,48,1614726732
119,16,15,Jits_Phase_8,1,5,56,103,1614783856
119,16,15,Jits_Phase_8,2,5,63,98,1614823868
119,16,15,Jits_Phase_8,3,5,80,127,1614828116
119,16,15,Jits_Phase_8,0,5,63,98,1615453556
119,16,15,Jits_Phase_8,1,5,80,127,1615493348
119,16,15,Jits_Phase_8,2,1,48,46,1615543592
119,16,15,Jits_Phase_8,3,5,56,103,1615564140
119,16,15,Jits_Phase_8,0,5,63,98,1616223648
119,16,15,Jits_Phase_8,1,5,56,103,1616303444
119,16,15,Jits_Phase_8,2,1,48,46,1616321932
119,16,15,Jits_Phase_8,3,5,80,127,1616363828
119,16,15,Jits_Phase_8,0,5,80,127,1617033444
119,16,15,Jits_Phase_8,1,5,63,98,1617083948
119,16,15,Jits_Phase_8,2,1,48,46,1617096580
119,16,15,Jits_Phase_8,3,5,56,103,1617113468
119,16,15,Jits_Phase_8,0,5,56,103,1617824076
119,16,15,Jits_Phase_8,1,1,48,47,1617843080
119,16,15,Jits_Phase_8,2,5,63,98,1617874268
119,16,15,Jits_Phase_8,3,5,80,127,1617883640
119,16,15,Jits_Phase_8,0,1,48,47,1618629044
119,16,15,Jits_Phase_8,1,5,56,103,1618634024
119,16,15,Jits_Phase_8,2,5,63,98,1618743572
119,16,15,Jits_Phase_8,3,5,80,127,1618764108
119,16,15,Jits_Phase_8,0,1,48,40,1619429480
119,16,15,Jits_Phase_8,1,5,63,98,1619433784
119,16,15,Jits_Phase_8,2,5,80,127,1619484232
119,16,15,Jits_Phase_8,3,5,56,103,1619574052
119,16,15,Jits_Phase_8,0,5,63,98,1620224356
119,16,15,Jits_Phase_8,1,1,48,40,1620249420
119,16,15,Jits_Phase_8,2,5,80,127,1620254172
119,16,15,Jits_Phase_8,3,5,56,103,1620344228
119,16,15,Jits_Phase_8,0,5,63,98,1621024260
119,16,15,Jits_Phase_8,1,5,56,103,1621034304
119,16,15,Jits_Phase_8,2,1,48,45,1621054884
119,16,15,Jits_Phase_8,3,5,80,127,1621133644
119,16,15,Jits_Phase_8,0,1,48,43,1621856940
119,16,15,Jits_Phase_8,1,5,63,98,1621924176
119,16,15,Jits_Phase_8,2,5,80,127,1621953984
119,16,15,Jits_Phase_8,3,5,56,103,1621983584
119,16,15,Jits_Phase_8,0,1,48,35,1622709820
119,16,15,Jits_Phase_8,1,5,80,127,1622744396
119,16,15,Jits_Phase_8,2,5,63,98,1622753620
119,16,15,Jits_Phase_8,3,5,56,103,1622784296
119,16,15,Jits_Phase_8,0,5,80,127,1623443996
119,16,15,Jits_Phase_8,1,5,63,98,1623464160
119,16,15,Jits_Phase_8,2,5,56,103,1623513388
119,16,15,Jits_Phase_8,3,1,48,45,1623526096
119,16,15,Jits_Phase_8,0,5,63,98,1624274260
119,16,15,Jits_Phase_8,1,1,48,46,1624288468
119,16,15,Jits_Phase_8,2,5,80,127,1624333848
119,16,15,Jits_Phase_8,3,5,56,103,1624354084
119,16,15,Jits_Phase_8,0,5,63,98,1625034088
119,16,15,Jits_Phase_8,1,5,56,103,1625084240
119,16,15,Jits_Phase_8,2,1,48,59,1625087732
119,16,15,Jits_Phase_8,3,5,80,127,1625093532
119,16,15,Jits_Phase_8,0,5,56,103,1625863388
119,16,15,Jits_Phase_8,1,1,48,52,1625872292
119,16,15,Jits_Phase_8,2,5,80,127,1625873948
119,16,15,Jits_Phase_8,3,5,63,98,1625974028
119,16,15,Jits_Phase_8,0,5,80,127,1626624348
119,16,15,Jits_Phase_8,1,5,63,98,1626633572
119,16,15,Jits_Phase_8,2,1,48,51,1626685384
119,16,15,Jits_Phase_8,3,5,56,103,1626784284
119,16,15,Jits_Phase_8,0,5,63,98,1627434232
119,16,15,Jits_Phase_8,1,5,80,127,1627474244
119,16,15,Jits_Phase_8,2,1,48,49,1627494372
119,16,15,Jits_Phase_8,3,5,56,103,1627554328
119,16,15,Jits_Phase_8,0,5,56,103,1628184088
119,16,15,Jits_Phase_8,1,1,48,48,1628262208
119,16,15,Jits_Phase_8,2,5,80,127,1628284256
119,16,15,Jits_Phase_8,3,5,63,98,1628303672
119,16,15,Jits_Phase_8,0,5,80,127,1629004096
119,16,15,Jits_Phase_8,1,5,56,103,1629014368
119,16,15,Jits_Phase_8,2,1,48,50,1629054872
119,16,15,Jits_Phase_8,3,5,63,98,1629103520
119,16,15,Jits_Phase_8,0,5,56,103,1629804092
119,16,15,Jits_Phase_8,1,1,48,51,1629812992
119,16,15,Jits_Phase_8,2,5,63,98,1629824324
119,16,15,Jits_Phase_8,3,5,80,127,1629904116
119,16,15,Jits_Phase_8,0,5,63,98,1630553524
119,16,15,Jits_Phase_8,1,1,48,53,1630604068
119,16,15,Jits_Phase_8,2,5,56,103,1630643500
119,16,15,Jits_Phase_8,3,5,80,127,1630646640
119,16,15,Jits_Phase_8,0,1,48,57,1631369040
119,16,15,Jits_Phase_8,1,5,56,103,1631383908
119,16,15,Jits_Phase_8,2,5,80,127,1631444300
119,16,15,Jits_Phase_8,3,5,63,98,1631453524
119,16,15,Jits_Phase_8,0,1,48,54,1632157116
119,16,15,Jits_Phase_8,1,5,80,127,1632233940
119,16,15,Jits_Phase_8,2,5,56,103,1632244012
119,16,15,Jits_Phase_8,3,5,63,98,1632247152
119,16,15,Jits_Phase_8,0,1,48,51,1632958288
119,16,15,Jits_Phase_8,1,5,56,103,1632993832
119,16,15,Jits_Phase_8,2,5,80,127,1633004028
119,16,15,Jits_Phase_8,3,5,63,98,1633024588
119,16,15,Jits_Phase_8,0,1,48,46,1633755356
119,16,15,Jits_Phase_8,1,5,63,98,1633763772
119,16,15,Jits_Phase_8,2,5,80,127,1633824040
119,16,15,Jits_Phase_8,3,5,56,103,1633874224
119,16,15,Jits_Phase_8,0,1,48,44,1634570488
119,16,15,Jits_Phase_8,1,5,63,98,1634644320
119,16,15,Jits_Phase_8,2,5,56,103,1634653768
119,16,15,Jits_Phase_8,3,5,80,127,1634703804
119,16,15,Jits_Phase_8,0,5,63,98,1635343848
119,16,15,Jits_Phase_8,1,5,80,127,1635364232
119,16,15,Jits_Phase_8,2,5,56,103,1635373380
119,16,15,Jits_Phase_8,3,1,48,43,1635383844
119,16,15,Jits_Phase_8,0,1,48,43,1636102728
119,16,15,Jits_Phase_8,1,5,63,98,1636143432
119,16,15,Jits_Phase_8,2,5,80,127,1636147020
119,16,15,Jits_Phase_8,3,5,56,103,1636184344
119,16,15,Jits_Phase_8,0,1,48,42,1636872500
119,16,15,Jits_Phase_8,1,5,63,98,1637013960
119,16,15,Jits_Phase_8,2,5,80,127,1637043784
119,16,15,Jits_Phase_8,3,5,56,103,1637053828
119,16,15,Jits_Phase_8,0,1,48,34,1637749712
119,16,15,Jits_Phase_8,1,5,56,103,1637763316
119,16,15,Jits_Phase_8,2,5,80,127,1637794184
119,16,15,Jits_Phase_8,3,5,63,98,1637824008
119,16,15,Jits_Phase_8,0,1,48,47,1638576000
119,16,15,Jits_Phase_8,1,5,63,98,1638663640
119,16,15,Jits_Phase_8,2,5,56,103,1638703560
119,16,15,Jits_Phase_8,3,5,80,127,1638706776
119,16,15,Jits_Phase_8,0,5,80,127,1639364024
119,16,15,Jits_Phase_8,1,5,56,103,1639443924
119,16,15,Jits_Phase_8,2,1,48,45,1639460592
119,16,15,Jits_Phase_8,3,5,63,98,1639493892
119,16,15,Jits_Phase_8,0,5,80,127,1640144168
119,16,15,Jits_Phase_8,1,5,56,103,1640163732
119,16,15,Jits_Phase_8,2,1,48,46,1640234972
119,16,15,Jits_Phase_8,3,5,63,98,1640253952
119,16,15,Jits_Phase_8,0,1,48,42,1640975620
119,16,15,Jits_Phase_8,1,5,80,127,1640983960
119,16,15,Jits_Phase_8,2,5,63,98,1641024048
119,16,15,Jits_Phase_8,3,5,56,103,1641064064
119,16,15,Jits_Phase_8,0,1,48,41,1641776052
119,16,15,Jits_Phase_8,1,5,63,98,1641793836
119,16,15,Jits_Phase_8,2,5,80,127,1641854376
119,16,15,Jits_Phase_8,3,5,56,103,1641884036
119,16,15,Jits_Phase_8,0,1,48,43,1642601492
119,16,15,Jits_Phase_8,1,5,56,103,1642633816
119,16,15,Jits_Phase_8,2,5,80,127,1642664316
119,16,15,Jits_Phase_8,3,5,63,98,1642754380
119,16,15,Jits_Phase_8,0,5,56,103,1643443840
119,16,15,Jits_Phase_8,1,1,48,46,1643474680
119,16,15,Jits_Phase_8,2,5,80,127,1643554144
119,16,15,Jits_Phase_8,3,5,63,98,1643583804
119,16,15,Jits_Phase_8,0,5,56,103,1644293464
119,16,15,Jits_Phase_8,1,1,48,49,1644319804
119,16,15,Jits_Phase_8,2,5,63,98,1644353924
119,16,15,Jits_Phase_8,3,5,80,127,1644383896
119,16,15,Jits_Phase_8,0,5,56,103,1645063572
119,16,15,Jits_Phase_8,1,5,63,98,1645134076
119,16,15,Jits_Phase_8,2,1,48,51,1645135044
119,16,15,Jits_Phase_8,3,5,80,127,1645153928
119,16,15,Jits_Phase_8,0,5,80,127,1645833748
119,16,15,Jits_Phase_8,1,5,63,98,1645854060
119,16,15,Jits_Phase_8,2,5,56,103,1645904260
119,16,15,Jits_Phase_8,3,1,48,52,1645924544
119,16,15,Jits_Phase_8,0,5,63,98,1646653744
119,16,15,Jits_Phase_8,1,5,80,127,1646664092
119,16,15,Jits_Phase_8,2,1,48,50,1646685116
119,16,15,Jits_Phase_8,3,5,56,103,1646714284
119,16,15,Jits_Phase_8,0,5,63,98,1647453720
119,16,15,Jits_Phase_8,1,1,48,43,1647473548
119,16,15,Jits_Phase_8,2,5,80,127,1647524144
119,16,15,Jits_Phase_8,3,5,56,103,1647543632
119,16,15,Jits_Phase_8,0,1,48,52,1648247224
119,16,15,Jits_Phase_8,1,5,63,98,1648283884
119,16,15,Jits_Phase_8,2,5,80,127,1648287256
119,16,15,Jits_Phase_8,3,5,56,103,1648353556
119,16,15,Jits_Phase_8,0,5,80,127,1649033820
119,16,15,Jits_Phase_8,1,1,48,48,1649034712
119,16,15,Jits_Phase_8,2,5,56,103,1649053976
119,16,15,Jits_Phase_8,3,5,63,98,1649064172
119,16,15,Jits_Phase_8,0,1,48,45,1649835648
119,16,15,Jits_Phase_8,1,5,56,103,1649853732
119,16,15,Jits_Phase_8,2,5,63,98,1649943876
119,16,15,Jits_Phase_8,3,5,80,127,1649947164
119,16,15,Jits_Phase_8,0,5,80,127,1650623744
119,16,15,Jits_Phase_8,1,1,48,47,1650629856
119,16,15,Jits_Phase_8,2,5,56,103,1650634160
119,16,15,Jits_Phase_8,3,5,63,98,1650653720
119,16,15,Jits_Phase_8,0,1,48,48,1651423436
119,16,15,Jits_Phase_8,1,5,63,98,1651424776
119,16,15,Jits_Phase_8,2,5,80,127,1651483920
119,16,15,Jits_Phase_8,3,5,56,103,1651494340
119,16,15,Jits_Phase_8,0,1,48,43,1652237712
119,16,15,Jits_Phase_8,1,5,63,98,1652293936
119,16,15,Jits_Phase_8,2,5,80,127,1652323832
119,16,15,Jits_Phase_8,3,5,56,103,1652363608
119,16,15,Jits_Phase_8,0,5,56,103,1653083660
119,16,15,Jits_Phase_8,1,1,48,40,1653091584
119,16,15,Jits_Phase_8,2,5,80,127,1653093700
119,16,15,Jits_Phase_8,3,5,63,98,1653133636
119,16,15,Jits_Phase_8,0,5,80,127,1653844544
119,16,15,Jits_Phase_8,1,1,48,46,1653884304
119,16,15,Jits_Phase_8,2,5,56,103,1653924556
119,16,15,Jits_Phase_8,3,5,63,98,1653933408
119,16,15,Jits_Phase_8,0,5,80,127,1654694216
119,16,15,Jits_Phase_8,1,1,48,49,1654727228
119,16,15,Jits_Phase_8,2,5,56,103,1654774404
119,16,15,Jits_Phase_8,3,5,63,98,1654784452
119,16,15,Jits_Phase_8,0,5,80,127,1655533932
119,16,15,Jits_Phase_8,1,1,48,38,1655573016
119,16,15,Jits_Phase_8,2,5,56,103,1655584128
119,16,15,Jits_Phase_8,3,5,63,98,1655634252
119,16,15,Jits_Phase_8,0,1,48,42,1656421928
119,16,15,Jits_Phase_8,1,5,56,103,1656474016
119,16,15,Jits_Phase_8,2,5,63,98,1656477080
119,16,15,Jits_Phase_8,3,5,80,127,1656524200
119,16,15,Jits_Phase_8,0,1,48,44,1657278684
119,16,15,Jits_Phase_8,1,5,56,103,1657294296
119,16,15,Jits_Phase_8,2,5,63,98,1657323900
119,16,15,Jits_Phase_8,3,5,80,127,1657334244
119,16,15,Jits_Phase_8,0,5,63,98,1658003768
119,16,15,Jits_Phase_8,1,5,56,103,1658073452
119,16,15,Jits_Phase_8,2,1,48,37,1658112116
119,16,15,Jits_Phase_8,3,5,80,127,1658123520
119,16,15,Jits_Phase_8,0,5,63,98,1658834392
119,16,15,Jits_Phase_8,1,5,56,103,1658843616
119,16,15,Jits_Phase_8,2,5,80,127,1658846608
119,16,15,Jits_Phase_8,3,1,48,45,1658922204
119,16,15,Jits_Phase_8,0,5,80,127,1659583792
119,16,15,Jits_Phase_8,1,5,56,103,1659644356
119,16,15,Jits_Phase_8,2,1,48,36,1659690620
119,16,15,Jits_Phase_8,3,5,63,98,1659734484
119,16,15,Jits_Phase_8,0,5,80,127,1660383640
119,16,15,Jits_Phase_8,1,5,56,103,1660483840
119,16,15,Jits_Phase_8,2,1,48,43,1660496396
119,16,15,Jits_Phase_8,3,5,63,98,1660523844
119,16,15,Jits_Phase_8,0,5,56,103,1661233488
119,16,15,Jits_Phase_8,1,5,63,98,1661253872
119,16,15,Jits_Phase_8,2,1,48,42,1661288604
119,16,15,Jits_Phase_8,3,5,80,127,1661293952
119,16,15,Jits_Phase_8,0,5,63,98,1662003588
119,16,15,Jits_Phase_8,1,5,56,103,1662023900
119,16,15,Jits_Phase_8,2,1,48,43,1662073920
119,16,15,Jits_Phase_8,3,5,80,127,1662124584
119,16,15,Jits_Phase_8,0,5,63,98,1662794052
119,16,15,Jits_Phase_8,1,1,48,46,1662854864
119,16,15,Jits_Phase_8,2,5,80,127,1662903660
119,16,15,Jits_Phase_8,3,5,56,103,1662934604
119,16,15,Jits_Phase_8,0,5,56,103,1663614416
119,16,15,Jits_Phase_8,1,1,48,44,1663644388
119,16,15,Jits_Phase_8,2,5,63,98,1663645580
119,16,15,Jits_Phase_8,3,5,80,127,1663694432
119,16,15,Jits_Phase_8,0,5,63,98,1664384520
119,16,15,Jits_Phase_8,1,5,56,103,1664414268
119,16,15,Jits_Phase_8,2,1,48,44,1664450492
119,16,15,Jits_Phase_8,3,5,80,127,1664464312
119,16,15,Jits_Phase_8,0,1,48,41,1665196672
119,16,15,Jits_Phase_8,1,5,56,103,1665213860
119,16,15,Jits_Phase_8,2,5,63,98,1665234468
119,16,15,Jits_Phase_8,3,5,80,127,1665314420
119,16,15,Jits_Phase_8,0,5,63,98,1665983732
119,16,15,Jits_Phase_8,1,1,48,43,1666007376
119,16,15,Jits_Phase_8,2,5,56,103,1666044288
119,16,15,Jits_Phase_8,3,5,80,127,1666073888
119,16,15,Jits_Phase_8,0,1,48,39,1666790412
119,16,15,Jits_Phase_8,1,5,56,103,1666823436
119,16,15,Jits_Phase_8,2,5,80,127,1666884036
119,16,15,Jits_Phase_8,3,5,63,98,1666923752
119,16,15,Jits_Phase_8,0,1,48,38,1667584732
119,16,15,Jits_Phase_8,1,5,63,98,1667603788
119,16,15,Jits_Phase_8,2,5,56,103,1667664328
119,16,15,Jits_Phase_8,3,5,80,127,1667733920
119,16,15,Jits_Phase_8,0,1,48,37,1668407188
119,16,15,Jits_Phase_8,1,5,56,103,1668483416
119,16,15,Jits_Phase_8,2,5,63,98,1668493608
119,16,15,Jits_Phase_8,3,5,80,127,1668497048
119,16,15,Jits_Phase_8,0,5,63,98,1669223832
119,16,15,Jits_Phase_8,1,1,48,38,1669238336
119,16,15,Jits_Phase_8,2,5,56,103,1669284292
119,16,15,Jits_Phase_8,3,5,80,127,1669287508
119,16,15,Jits_Phase_8,0,5,63,98,1670004176
119,16,15,Jits_Phase_8,1,5,80,127,1670033704
119,16,15,Jits_Phase_8,2,1,48,29,1670039068
119,16,15,Jits_Phase_8,3,5,56,103,1670054380
119,16,15,Jits_Phase_8,0,5,56,103,1670734324
119,16,15,Jits_Phase_8,1,5,63,98,1670784236
119,16,15,Jits_Phase_8,2,1,48,36,1670788772
119,16,15,Jits_Phase_8,3,5,80,127,1670864244
119,16,15,Jits_Phase_8,0,5,80,127,1671433572
119,16,15,Jits_Phase_8,1,5,63,98,1671473512
119,16,15,Jits_Phase_8,2,5,56,103,1671494120
119,16,15,Jits_Phase_8,3,1,48,37,1671607360
119,16,15,Jits_Phase_8,0,5,56,103,1672303916
119,16,15,Jits_Phase_8,1,5,80,127,1672314336
119,16,15,Jits_Phase_8,2,5,63,98,1672333896
119,16,15,Jits_Phase_8,3,1,48,30,1672377016
119,16,15,Jits_Phase_8,0,1,48,41,1673046120
119,16,15,Jits_Phase_8,1,5,56,103,1673084352
119,16,15,Jits_Phase_8,2,5,63,98,1673133508
119,16,15,Jits_Phase_8,3,5,80,127,1673164212
119,16,15,Jits_Phase_8,0,5,56,103,1673833700
119,16,15,Jits_Phase_8,1,1,48,45,1673835112
119,16,15,Jits_Phase_8,2,5,63,98,1673844336
119,16,15,Jits_Phase_8,3,5,80,127,1673894460
119,16,15,Jits_Phase_8,0,5,56,103,1674624244
119,16,15,Jits_Phase_8,1,5,80,127,1674627312
119,16,15,Jits_Phase_8,2,1,48,38,1674632164
119,16,15,Jits_Phase_8,3,5,63,98,1674784276
119,16,15,Jits_Phase_8,0,1,48,40,1675406216
119,16,15,Jits_Phase_8,1,5,63,98,1675443704
119,16,15,Jits_Phase_8,2,5,56,103,1675514444
119,16,15,Jits_Phase_8,3,5,80,127,1675554308
119,16,15,Jits_Phase_8,0,1,48,42,1676242840
119,16,15,Jits_Phase_8,1,5,63,98,1676284396
119,16,15,Jits_Phase_8,2,5,56,103,1676374364
119,16,15,Jits_Phase_8,3,5,80,127,1676377504
119,16,15,Jits_Phase_8,0,5,56,103,1677063628
119,16,15,Jits_Phase_8,1,1,48,33,1677107504
119,16,15,Jits_Phase_8,2,5,63,98,1677153756
119,16,15,Jits_Phase_8,3,5,80,127,1677164176
119,16,15,Jits_Phase_8,0,5,56,103,1677833516
119,16,15,Jits_Phase_8,1,5,63,98,1677883716
119,16,15,Jits_Phase_8,2,1,48,41,1677906912
119,16,15,Jits_Phase_8,3,5,80,127,1677913460
119,16,15,Jits_Phase_8,0,1,48,35,1678687712
119,16,15,Jits_Phase_8,1,5,63,98,1678714340
119,16,15,Jits_Phase_8,2,5,80,127,1678723340
119,16,15,Jits_Phase_8,3,5,56,103,1678783804
119,16,15,Jits_Phase_8,0,5,63,98,1679434020
119,16,15,Jits_Phase_8,1,5,80,127,1679493364
119,16,15,Jits_Phase_8,2,1,48,38,1679521196
119,16,15,Jits_Phase_8,3,5,56,103,1679533368
119,16,15,Jits_Phase_8,0,1,48,38,1680299292
119,16,15,Jits_Phase_8,1,5,56,103,1680334308
119,16,15,Jits_Phase_8,2,5,80,127,1680353572
119,16,15,Jits_Phase_8,3,5,63,98,1680374280
119,16,15,Jits_Phase_8,0,5,63,98,1681054212
119,16,15,Jits_Phase_8,1,5,56,103,1681073476
119,16,15,Jits_Phase_8,2,1,48,40,1681104092
119,16,15,Jits_Phase_8,3,5,80,127,1681113480
119,16,15,Jits_Phase_8,0,5,63,98,1681864152
119,16,15,Jits_Phase_8,1,1,48,29,1681881372
119,16,15,Jits_Phase_8,2,5,80,127,1681893676
119,16,15,Jits_Phase_8,3,5,56,103,1681914456
119,16,15,Jits_Phase_8,0,5,80,127,1682634088
119,16,15,Jits_Phase_8,1,1,48,41,1682657288
119,16,15,Jits_Phase_8,2,5,56,103,1682684160
119,16,15,Jits_Phase_8,3,5,63,98,1682743652
119,16,15,Jits_Phase_8,0,5,63,98,1683423668
119,16,15,Jits_Phase_8,1,1,48,40,1683476636
119,16,15,Jits_Phase_8,2,5,56,103,1683544536
119,16,15,Jits_Phase_8,3,5,80,127,1683574120
119,16,15,Jits_Phase_8,0,5,80,127,1684264360
119,16,15,Jits_Phase_8,1,1,48,43,1684274308
119,16,15,Jits_Phase_8,2,5,63,98,1684283992
119,16,15,Jits_Phase_8,3,5,56,103,1684354272
119,16,15,Jits_Phase_8,0,5,63,98,1685083392
119,16,15,Jits_Phase_8,1,1,48,43,1685084356
119,16,15,Jits_Phase_8,2,5,56,103,1685093728
119,16,15,Jits_Phase_8,3,5,80,127,1685173520
119,16,15,Jits_Phase_8,0,1,48,43,1685906188
119,16,15,Jits_Phase_8,1,5,56,103,1685943604
119,16,15,Jits_Phase_8,2,5,80,127,1685974400
119,16,15,Jits_Phase_8,3,5,63,98,1685983552
119,16,15,Jits_Phase_8,0,9999,9999,9999,1551081584
119,16,15,Jits_Phase_8,1,9999,9999,9999,1551881328
119,16,15,Jits_Phase_8,2,9999,9999,9999,1552682092
119,16,15,Jits_Phase_8,3,9999,9999,9999,1553481792
119,16,15,Jits_Phase_8,4,9999,9999,9999,1554281544
119,16,15,Jits_Phase_8,5,9999,9999,9999,1555081308
119,16,15,Jits_Phase_8,6,9999,9999,9999,1555882108
119,16,15,Jits_Phase_8,7,9999,9999,9999,1556681812
119,16,15,Jits_Phase_8,8,9999,9999,9999,1557481576
119,16,15,Jits_Phase_8,9,9999,9999,9999,1558281340
119,16,15,Jits_Phase_8,10,9999,9999,9999,1559082076
119,16,15,Jits_Phase_8,11,9999,9999,9999,1559881836
119,16,15,Jits_Phase_8,12,9999,9999,9999,1560681540
119,16,15,Jits_Phase_8,13,9999,9999,9999,1561481308
119,16,15,Jits_Phase_8,14,9999,9999,9999,1562282100
119,16,15,Jits_Phase_8,15,9999,9999,9999,1563081788
119,16,15,Jits_Phase_8,16,9999,9999,9999,1563881528
119,16,15,Jits_Phase_8,17,9999,9999,9999,1564681312
119,16,15,Jits_Phase_8,18,9999,9999,9999,1565482048
119,16,15,Jits_Phase_8,19,9999,9999,9999,1566281804
119,16,15,Jits_Phase_8,20,9999,9999,9999,1567081564
119,16,15,Jits_Phase_8,21,9999,9999,9999,1567881320
119,16,15,Jits_Phase_8,22,9999,9999,9999,1568682056
119,16,15,Jits_Phase_8,23,9999,9999,9999,1569481812
119,16,15,Jits_Phase_8,24,9999,9999,9999,1570281572
119,16,15,Jits_Phase_8,25,9999,9999,9999,1571081272
119,16,15,Jits_Phase_8,26,9999,9999,9999,1571882096
119,16,15,Jits_Phase_8,27,9999,9999,9999,1572681856
119,16,15,Jits_Phase_8,28,9999,9999,9999,1573481552
119,16,15,Jits_Phase_8,29,9999,9999,9999,1574281332
119,16,15,Jits_Phase_8,30,9999,9999,9999,1575061608
119,16,15,Jits_Phase_8,31,9999,9999,9999,1575861368
119,16,15,Jits_Phase_8,32,9999,9999,9999,1576662096
119,16,15,Jits_Phase_8,33,9999,9999,9999,1577472072
119,16,15,Jits_Phase_8,34,9999,9999,9999,1578282092
119,16,15,Jits_Phase_8,35,9999,9999,9999,1579081856
119,16,15,Jits_Phase_8,36,9999,9999,9999,1579881544
119,16,15,Jits_Phase_8,37,9999,9999,9999,1580681300
119,16,15,Jits_Phase_8,38,9999,9999,9999,1581482040
119,16,15,Jits_Phase_8,39,9999,9999,9999,1582281816
119,16,15,Jits_Phase_8,40,9999,9999,9999,1583081580
119,16,15,Jits_Phase_8,41,9999,9999,9999,1583881300
119,16,15,Jits_Phase_8,42,9999,9999,9999,1584682100
119,16,15,Jits_Phase_8,43,9999,9999,9999,1585481788
119,16,15,Jits_Phase_8,44,9999,9999,9999,1586281532
119,16,15,Jits_Phase_8,45,9999,9999,9999,1587081292
119,16,15,Jits_Phase_8,46,9999,9999,9999,1587882096
119,16,15,Jits_Phase_8,47,9999,9999,9999,1588681848
119,16,15,Jits_Phase_8,48,9999,9999,9999,1589502024
119,16,15,Jits_Phase_8,49,9999,9999,9999,1590301780
119,16,15,Jits_Phase_8,50,9999,9999,9999,1591101536
119,16,15,Jits_Phase_8,51,9999,9999,9999,1591901308
119,16,15,Jits_Phase_8,52,9999,9999,9999,1592702040
119,16,15,Jits_Phase_8,53,9999,9999,9999,1593501804
119,16,15,Jits_Phase_8,54,9999,9999,9999,1594301560
119,16,15,Jits_Phase_8,55,9999,9999,9999,1595101264
119,16,15,Jits_Phase_8,56,9999,9999,9999,1595902016
119,16,15,Jits_Phase_8,57,9999,9999,9999,1596701788
119,16,15,Jits_Phase_8,58,9999,9999,9999,1597501564
119,16,15,Jits_Phase_8,59,9999,9999,9999,1598301260
119,16,15,Jits_Phase_8,60,9999,9999,9999,1599102080
119,16,15,Jits_Phase_8,61,9999,9999,9999,1599901784
119,16,15,Jits_Phase_8,62,9999,9999,9999,1600701556
119,16,15,Jits_Phase_8,63,9999,9999,9999,1601501304
119,16,15,Jits_Phase_8,64,9999,9999,9999,1602342012
119,16,15,Jits_Phase_8,65,9999,9999,9999,1603141696
119,16,15,Jits_Phase_8,66,9999,9999,9999,1603941472
119,16,15,Jits_Phase_8,67,9999,9999,9999,1604741236
119,16,15,Jits_Phase_8,68,9999,9999,9999,1605541968
119,16,15,Jits_Phase_8,69,9999,9999,9999,1606341740
119,16,15,Jits_Phase_8,70,9999,9999,9999,1607141432
119,16,15,Jits_Phase_8,71,9999,9999,9999,1607941224
119,16,15,Jits_Phase_8,72,9999,9999,9999,1608741952
119,16,15,Jits_Phase_8,73,9999,9999,9999,1609541724
119,16,15,Jits_Phase_8,74,9999,9999,9999,1610341432
119,16,15,Jits_Phase_8,75,9999,9999,9999,1611141188
119,16,15,Jits_Phase_8,76,9999,9999,9999,1611942008
119,16,15,Jits_Phase_8,77,9999,9999,9999,1612741704
119,16,15,Jits_Phase_8,78,9999,9999,9999,1613541472
119,16,15,Jits_Phase_8,79,9999,9999,9999,1614341196
119,16,15,Jits_Phase_8,80,9999,9999,9999,1615141944
119,16,15,Jits_Phase_8,81,9999,9999,9999,1615901768
119,16,15,Jits_Phase_8,82,9999,9999,9999,1616701532
119,16,15,Jits_Phase_8,83,9999,9999,9999,1617501288
119,16,15,Jits_Phase_8,84,9999,9999,9999,1618302024
119,16,15,Jits_Phase_8,85,9999,9999,9999,1619101800
119,16,15,Jits_Phase_8,86,9999,9999,9999,1619901556
119,16,15,Jits_Phase_8,87,9999,9999,9999,1620701312
119,16,15,Jits_Phase_8,88,9999,9999,9999,1621502060
119,16,15,Jits_Phase_8,89,9999,9999,9999,1622301752
119,16,15,Jits_Phase_8,90,9999,9999,9999,1623101520
119,16,15,Jits_Phase_8,91,9999,9999,9999,1623901276
119,16,15,Jits_Phase_8,92,9999,9999,9999,1624702024
119,16,15,Jits_Phase_8,93,9999,9999,9999,1625501776
119,16,15,Jits_Phase_8,94,9999,9999,9999,1626301536
119,16,15,Jits_Phase_8,95,9999,9999,9999,1627101304
119,16,15,Jits_Phase_8,96,9999,9999,9999,1627902072
119,16,15,Jits_Phase_8,97,9999,9999,9999,1628621944
119,16,15,Jits_Phase_8,98,9999,9999,9999,1629421648
119,16,15,Jits_Phase_8,99,9999,9999,9999,1630221368
119,16,15,Jits_Phase_8,100,9999,9999,9999,1631021132
119,16,15,Jits_Phase_8,101,9999,9999,9999,1631821940
119,16,15,Jits_Phase_8,102,9999,9999,9999,1632621692
119,16,15,Jits_Phase_8,103,9999,9999,9999,1633421376
119,16,15,Jits_Phase_8,104,9999,9999,9999,1634221132
119,16,15,Jits_Phase_8,105,9999,9999,9999,1635021944
119,16,15,Jits_Phase_8,106,9999,9999,9999,1635821696
119,16,15,Jits_Phase_8,107,9999,9999,9999,1636621380
119,16,15,Jits_Phase_8,108,9999,9999,9999,1637421140
119,16,15,Jits_Phase_8,109,9999,9999,9999,1638221944
119,16,15,Jits_Phase_8,110,9999,9999,9999,1639021628
119,16,15,Jits_Phase_8,111,9999,9999,9999,1639821384
119,16,15,Jits_Phase_8,112,9999,9999,9999,1640621152
119,16,15,Jits_Phase_8,113,9999,9999,9999,1641421896
119,16,15,Jits_Phase_8,114,9999,9999,9999,1642301536
119,16,15,Jits_Phase_8,115,9999,9999,9999,1643101292
119,16,15,Jits_Phase_8,116,9999,9999,9999,1643902020
119,16,15,Jits_Phase_8,117,9999,9999,9999,1644701800
119,16,15,Jits_Phase_8,118,9999,9999,9999,1645501500
119,16,15,Jits_Phase_8,119,9999,9999,9999,1646301264
119,16,15,Jits_Phase_8,120,9999,9999,9999,1647102028
119,16,15,Jits_Phase_8,121,9999,9999,9999,1647901784
119,16,15,Jits_Phase_8,122,9999,9999,9999,1648701536
119,16,15,Jits_Phase_8,123,9999,9999,9999,1649501284
119,16,15,Jits_Phase_8,124,9999,9999,9999,1650302020
119,16,15,Jits_Phase_8,125,9999,9999,9999,1651101768
119,16,15,Jits_Phase_8,126,9999,9999,9999,1651901536
119,16,15,Jits_Phase_8,127,9999,9999,9999,1652701300
119,16,15,Jits_Phase_8,128,9999,9999,9999,1653502052
119,16,15,Jits_Phase_8,129,9999,9999,9999,1654301752
119,16,15,Jits_Phase_8,130,9999,9999,9999,1655101528
119,16,15,Jits_Phase_8,131,9999,9999,9999,1656062076
119,16,15,Jits_Phase_8,132,9999,9999,9999,1656861768
119,16,15,Jits_Phase_8,133,9999,9999,9999,1657661512
119,16,15,Jits_Phase_8,134,9999,9999,9999,1658461272
119,16,15,Jits_Phase_8,135,9999,9999,9999,1659262068
119,16,15,Jits_Phase_8,136,9999,9999,9999,1660061824
119,16,15,Jits_Phase_8,137,9999,9999,9999,1660861520
119,16,15,Jits_Phase_8,138,9999,9999,9999,1661661292
119,16,15,Jits_Phase_8,139,9999,9999,9999,1662462064
119,16,15,Jits_Phase_8,140,9999,9999,9999,1663261824
119,16,15,Jits_Phase_8,141,9999,9999,9999,1664061504
119,16,15,Jits_Phase_8,142,9999,9999,9999,1664861276
119,16,15,Jits_Phase_8,143,9999,9999,9999,1665662076
119,16,15,Jits_Phase_8,144,9999,9999,9999,1666461756
119,16,15,Jits_Phase_8,145,9999,9999,9999,1667261516
119,16,15,Jits_Phase_8,146,9999,9999,9999,1668061276
119,16,15,Jits_Phase_8,147,9999,9999,9999,1668862024
119,16,15,Jits_Phase_8,148,9999,9999,9999,1669661772
119,16,15,Jits_Phase_8,149,9999,9999,9999,1670461528
119,16,15,Jits_Phase_8,150,9999,9999,9999,1671101540
119,16,15,Jits_Phase_8,151,9999,9999,9999,1671901312
119,16,15,Jits_Phase_8,152,9999,9999,9999,1672702008
119,16,15,Jits_Phase_8,153,9999,9999,9999,1673501784
119,16,15,Jits_Phase_8,154,9999,9999,9999,1674301536
119,16,15,Jits_Phase_8,155,9999,9999,9999,1675101296
119,16,15,Jits_Phase_8,156,9999,9999,9999,1675902040
119,16,15,Jits_Phase_8,157,9999,9999,9999,1676701796
119,16,15,Jits_Phase_8,158,9999,9999,9999,1677501556
119,16,15,Jits_Phase_8,159,9999,9999,9999,1678301256
119,16,15,Jits_Phase_8,160,9999,9999,9999,1679102028
119,16,15,Jits_Phase_8,161,9999,9999,9999,1679901784
119,16,15,Jits_Phase_8,162,9999,9999,9999,1680701548
119,16,15,Jits_Phase_8,163,9999,9999,9999,1681501300
119,16,15,Jits_Phase_8,164,9999,9999,9999,1682302028
119,16,15,Jits_Phase_8,165,9999,9999,9999,1683101780
119,16,15,Jits_Phase_8,166,9999,9999,9999,1683901556
119,16,15,Jits_Phase_8,167,9999,9999,9999,1684701312
119,16,15,Jits_Phase_8,168,9999,9999,9999,1685502008
119,16,15,Jits_Phase_8,169,9999,9999,9999,1686301776
119,17,19,Jits_Linear_5,0,5,56,103,1693563224
119,17,19,Jits_Linear_5,1,5,63,98,1693566172
119,17,19,Jits_Linear_5,2,5,80,127,1693569444
119,17,19,Jits_Linear_5,0,5,56,103,1694042488
119,17,19,Jits_Linear_5,1,5,63,98,1694045584
119,17,19,Jits_Linear_5,2,5,80,127,1694048632
119,17,19,Jits_Linear_5,0,5,56,103,1694522964
119,17,19,Jits_Linear_5,1,5,80,127,1694533088
119,17,19,Jits_Linear_5,2,5,63,98,1694552424
119,17,19,Jits_Linear_5,0,5,63,98,1694952924
119,17,19,Jits_Linear_5,1,5,80,127,1694982476
119,17,19,Jits_Linear_5,2,5,56,103,1694992748
119,17,19,Jits_Linear_5,0,1,48,40,1695444068
119,17,19,Jits_Linear_5,1,5,80,127,1695492444
119,17,19,Jits_Linear_5,2,5,56,103,1695502792
119,17,19,Jits_Linear_5,3,5,63,98,1695533364
119,17,19,Jits_Linear_5,0,1,48,42,1695964508
119,17,19,Jits_Linear_5,1,5,63,98,1695972996
119,17,19,Jits_Linear_5,2,5,56,103,1696002328
119,17,19,Jits_Linear_5,3,5,80,127,1696012600
119,17,19,Jits_Linear_5,0,5,56,103,1696412912
119,17,19,Jits_Linear_5,1,1,48,41,1696445480
119,17,19,Jits_Linear_5,2,5,63,98,1696463260
119,17,19,Jits_Linear_5,3,5,80,127,1696482896
119,17,19,Jits_Linear_5,0,5,80,127,1696902496
119,17,19,Jits_Linear_5,1,1,48,45,1696914908
119,17,19,Jits_Linear_5,2,5,63,98,1696952696
119,17,19,Jits_Linear_5,3,5,56,103,1696992780
119,17,19,Jits_Linear_5,0,1,48,51,1697391540
119,17,19,Jits_Linear_5,1,5,56,103,1697393124
119,17,19,Jits_Linear_5,2,5,63,98,1697422800
119,17,19,Jits_Linear_5,3,5,80,127,1697493288
119,17,19,Jits_Linear_5,0,5,56,103,1697882700
119,17,19,Jits_Linear_5,1,1,48,50,1697892044
119,17,19,Jits_Linear_5,2,5,80,127,1697942940
119,17,19,Jits_Linear_5,3,5,63,98,1697972540
119,17,19,Jits_Linear_5,0,5,56,103,1698383156
119,17,19,Jits_Linear_5,1,5,63,98,1698392304
119,17,19,Jits_Linear_5,2,1,48,41,1698397888
119,17,19,Jits_Linear_5,3,5,80,127,1698433284
119,17,19,Jits_Linear_5,0,1,48,48,1698868200
119,17,19,Jits_Linear_5,1,5,63,98,1698872884
119,17,19,Jits_Linear_5,2,5,80,127,1698952460
119,17,19,Jits_Linear_5,3,5,56,103,1698963236
119,17,19,Jits_Linear_5,0,1,48,47,1699377412
119,17,19,Jits_Linear_5,1,5,63,98,1699422992
119,17,19,Jits_Linear_5,2,5,56,103,1699462632
119,17,19,Jits_Linear_5,3,5,80,127,1699465700
119,17,19,Jits_Linear_5,0,1,48,49,1699867200
119,17,19,Jits_Linear_5,1,5,56,103,1699883340
119,17,19,Jits_Linear_5,2,5,63,98,1699892716
119,17,19,Jits_Linear_5,3,5,80,127,1699932652
119,17,19,Jits_Linear_5,0,1,48,48,1700360972
119,17,19,Jits_Linear_5,1,5,56,103,1700372832
119,17,19,Jits_Linear_5,2,5,63,98,1700375896
119,17,19,Jits_Linear_5,3,5,80,127,1700393292
119,17,19,Jits_Linear_5,0,1,48,47,1700846624
119,17,19,Jits_Linear_5,1,5,80,127,1700892956
119,17,19,Jits_Linear_5,2,5,56,103,1700903152
119,17,19,Jits_Linear_5,3,5,63,98,1700972896
119,17,19,Jits_Linear_5,0,1,48,50,1701355580
119,17,19,Jits_Linear_5,1,5,63,98,1701392844
119,17,19,Jits_Linear_5,2,5,56,103,1701413380
119,17,19,Jits_Linear_5,3,5,80,127,1701493088
119,17,19,Jits_Linear_5,0,1,48,49,1701889648
119,17,19,Jits_Linear_5,1,5,56,103,1701912912
119,17,19,Jits_Linear_5,2,5,80,127,1701952852
119,17,19,Jits_Linear_5,3,5,63,98,1701963196
119,17,19,Jits_Linear_5,0,5,80,127,1702412900
119,17,19,Jits_Linear_5,1,1,48,50,1702414540
119,17,19,Jits_Linear_5,2,5,63,98,1702443320
119,17,19,Jits_Linear_5,3,5,56,103,1702483260
119,17,19,Jits_Linear_5,0,5,56,103,1702942944
119,17,19,Jits_Linear_5,1,1,48,46,1702952212
119,17,19,Jits_Linear_5,2,5,63,98,1702972912
119,17,19,Jits_Linear_5,3,5,80,127,1703022892
119,17,19,Jits_Linear_5,0,5,80,127,1703452988
119,17,19,Jits_Linear_5,1,1,48,44,1703481664
119,17,19,Jits_Linear_5,2,5,56,103,1703492920
119,17,19,Jits_Linear_5,3,5,63,98,1703503340
119,17,19,Jits_Linear_5,0,5,80,127,1703952616
119,17,19,Jits_Linear_5,1,1,48,48,1703962108
119,17,19,Jits_Linear_5,2,5,63,98,1703992848
119,17,19,Jits_Linear_5,3,5,56,103,1704054420
119,17,19,Jits_Linear_5,0,5,56,103,1704472992
119,17,19,Jits_Linear_5,1,5,80,127,1704483188
119,17,19,Jits_Linear_5,2,1,48,48,1704488924
119,17,19,Jits_Linear_5,3,5,63,98,1704563052
119,17,19,Jits_Linear_5,0,5,80,127,1704993068
119,17,19,Jits_Linear_5,1,1,48,49,1704998284
119,17,19,Jits_Linear_5,2,5,63,98,1705052780
119,17,19,Jits_Linear_5,3,5,56,103,1705083280
119,17,19,Jits_Linear_5,0,5,56,103,1705513220
119,17,19,Jits_Linear_5,1,1,48,45,1705532832
119,17,19,Jits_Linear_5,2,5,80,127,1705572636
119,17,19,Jits_Linear_5,3,5,63,98,1705612872
119,17,19,Jits_Linear_5,0,1,48,46,1706043236
119,17,19,Jits_Linear_5,1,5,56,103,1706092788
119,17,19,Jits_Linear_5,2,5,63,98,1706103132
119,17,19,Jits_Linear_5,3,5,80,127,1706106496
119,17,19,Jits_Linear_5,0,1,48,40,1706571468
119,17,19,Jits_Linear_5,1,5,80,127,1706573056
119,17,19,Jits_Linear_5,2,5,63,98,1706663268
119,17,19,Jits_Linear_5,3,5,56,103,1706672700
119,17,19,Jits_Linear_5,0,5,56,103,1707102852
119,17,19,Jits_Linear_5,1,5,63,98,1707105952
119,17,19,Jits_Linear_5,2,5,80,127,1707108924
119,17,19,Jits_Linear_5,3,1,48,41,1707116548
119,17,19,Jits_Linear_5,0,1,48,43,1707621244
119,17,19,Jits_Linear_5,1,5,80,127,1707652588
119,17,19,Jits_Linear_5,2,5,63,98,1707702644
119,17,19,Jits_Linear_5,3,5,56,103,1707733424
119,17,19,Jits_Linear_5,0,1,48,34,1708151956
119,17,19,Jits_Linear_5,1,5,56,103,1708162464
119,17,19,Jits_Linear_5,2,5,80,127,1708172884
119,17,19,Jits_Linear_5,3,5,63,98,1708243896
119,17,19,Jits_Linear_5,0,1,48,35,1708679796
119,17,19,Jits_Linear_5,1,5,56,103,1708703208
119,17,19,Jits_Linear_5,2,5,63,98,1708722548
119,17,19,Jits_Linear_5,3,5,80,127,1708782952
119,17,19,Jits_Linear_5,0,1,48,34,1709209228
119,17,19,Jits_Linear_5,1,5,80,127,1709232716
119,17,19,Jits_Linear_5,2,5,63,98,1709303176
119,17,19,Jits_Linear_5,3,5,56,103,1709322572
119,17,19,Jits_Linear_5,0,1,48,47,1709751708
119,17,19,Jits_Linear_5,1,5,80,127,1709792788
119,17,19,Jits_Linear_5,2,5,56,103,1709802836
119,17,19,Jits_Linear_5,3,5,63,98,1709812980
119,17,19,Jits_Linear_5,0,1,48,54,1710259468
119,17,19,Jits_Linear_5,1,5,80,127,1710322992
119,17,19,Jits_Linear_5,2,5,56,103,1710342628
119,17,19,Jits_Linear_5,3,5,63,98,1710413264
119,17,19,Jits_Linear_5,0,1,48,55,1710798636
119,17,19,Jits_Linear_5,1,5,56,103,1710872872
119,17,19,Jits_Linear_5,2,5,80,127,1710902608
119,17,19,Jits_Linear_5,3,5,63,98,1710923144
119,17,19,Jits_Linear_5,0,1,48,54,1711350488
119,17,19,Jits_Linear_5,1,5,63,98,1711412568
119,17,19,Jits_Linear_5,2,5,56,103,1711472872
119,17,19,Jits_Linear_5,3,5,80,127,1711502844
119,17,19,Jits_Linear_5,0,1,48,51,1711915892
119,17,19,Jits_Linear_5,1,5,63,98,1711953236
119,17,19,Jits_Linear_5,2,5,80,127,1711956824
119,17,19,Jits_Linear_5,3,5,56,103,1712043504
119,17,19,Jits_Linear_5,0,1,48,51,1712465024
119,17,19,Jits_Linear_5,1,5,56,103,1712522592
119,17,19,Jits_Linear_5,2,5,63,98,1712553392
119,17,19,Jits_Linear_5,3,5,80,127,1712593612
119,17,19,Jits_Linear_5,0,1,48,49,1713029432
119,17,19,Jits_Linear_5,1,5,63,98,1713072552
119,17,19,Jits_Linear_5,2,5,56,103,1713112716
119,17,19,Jits_Linear_5,3,5,80,127,1713132884
119,17,19,Jits_Linear_5,0,1,48,51,1713581580
119,17,19,Jits_Linear_5,1,5,63,98,1713632772
119,17,19,Jits_Linear_5,2,5,56,103,1713672740
119,17,19,Jits_Linear_5,3,5,80,127,1713682844
119,17,19,Jits_Linear_5,0,1,48,48,1714116700
119,17,19,Jits_Linear_5,1,5,80,127,1714162980
119,17,19,Jits_Linear_5,2,5,63,98,1714232652
119,17,19,Jits_Linear_5,3,5,56,103,1714253112
119,17,19,Jits_Linear_5,0,1,48,48,1714687656
119,17,19,Jits_Linear_5,1,5,56,103,1714713016
119,17,19,Jits_Linear_5,2,5,80,127,1714733548
119,17,19,Jits_Linear_5,3,5,63,98,1714773564
119,17,19,Jits_Linear_5,0,1,48,45,1715231628
119,17,19,Jits_Linear_5,1,5,63,98,1715283500
119,17,19,Jits_Linear_5,2,5,80,127,1715302764
119,17,19,Jits_Linear_5,3,5,56,103,1715342616
119,17,19,Jits_Linear_5,0,1,48,51,1715802040
119,17,19,Jits_Linear_5,1,5,63,98,1715842524
119,17,19,Jits_Linear_5,2,5,56,103,1715862984
119,17,19,Jits_Linear_5,3,5,80,127,1715873256
119,17,19,Jits_Linear_5,0,1,48,53,1716366600
119,17,19,Jits_Linear_5,1,5,80,127,1716402592
119,17,19,Jits_Linear_5,2,5,56,103,1716423052
119,17,19,Jits_Linear_5,3,5,63,98,1716452656
119,17,19,Jits_Linear_5,0,1,48,59,1716911840
119,17,19,Jits_Linear_5,1,5,56,103,1717042616
119,17,19,Jits_Linear_5,2,5,80,127,1717045536
119,17,19,Jits_Linear_5,3,5,63,98,1717063004
119,17,19,Jits_Linear_5,0,1,48,58,1717441488
119,17,19,Jits_Linear_5,1,5,63,98,1717534056
119,17,19,Jits_Linear_5,2,5,56,103,1717562688
119,17,19,Jits_Linear_5,3,5,80,127,1717623376
119,17,19,Jits_Linear_5,0,1,48,54,1717983128
119,17,19,Jits_Linear_5,1,5,63,98,1718192656
119,17,19,Jits_Linear_5,2,5,56,103,1718202852
119,17,19,Jits_Linear_5,3,5,80,127,1718213196
119,17,19,Jits_Linear_5,0,1,48,52,1718510400
119,17,19,Jits_Linear_5,1,5,56,103,1718712728
119,17,19,Jits_Linear_5,2,5,80,127,1718743600
119,17,19,Jits_Linear_5,3,5,63,98,1718752676
119,17,19,Jits_Linear_5,0,1,48,48,1719070544
119,17,19,Jits_Linear_5,1,5,63,98,1719323096
119,17,19,Jits_Linear_5,2,5,56,103,1719333588
119,17,19,Jits_Linear_5,3,5,80,127,1719352632
119,17,19,Jits_Linear_5,0,1,48,49,1719773972
119,17,19,Jits_Linear_5,1,5,56,103,1719822804
119,17,19,Jits_Linear_5,2,5,63,98,1719883252
119,17,19,Jits_Linear_5,3,5,80,127,1719886544
119,17,19,Jits_Linear_5,0,5,80,127,1720422732
119,17,19,Jits_Linear_5,1,5,56,103,1720433004
119,17,19,Jits_Linear_5,2,1,48,48,1720469680
119,17,19,Jits_Linear_5,3,5,63,98,1720502604
119,17,19,Jits_Linear_5,0,5,80,127,1720993004
119,17,19,Jits_Linear_5,1,5,56,103,1721062764
119,17,19,Jits_Linear_5,2,5,63,98,1721072908
119,17,19,Jits_Linear_5,3,1,48,46,1721074320
119,17,19,Jits_Linear_5,0,1,48,49,1721606640
119,17,19,Jits_Linear_5,1,5,63,98,1721612516
119,17,19,Jits_Linear_5,2,5,56,103,1721622864
119,17,19,Jits_Linear_5,3,5,80,127,1721643468
119,17,19,Jits_Linear_5,0,5,80,127,1722143292
119,17,19,Jits_Linear_5,1,1,48,48,1722162152
119,17,19,Jits_Linear_5,2,5,63,98,1722202708
119,17,19,Jits_Linear_5,3,5,56,103,1722242500
119,17,19,Jits_Linear_5,0,1,48,48,1722743140
119,17,19,Jits_Linear_5,1,5,56,103,1722772832
119,17,19,Jits_Linear_5,2,5,63,98,1722782956
119,17,19,Jits_Linear_5,3,5,80,127,1722822896
119,17,19,Jits_Linear_5,0,5,56,103,1723322648
119,17,19,Jits_Linear_5,1,1,48,46,1723338572
119,17,19,Jits_Linear_5,2,5,80,127,1723352392
119,17,19,Jits_Linear_5,3,5,63,98,1723402472
119,17,19,Jits_Linear_5,0,5,56,103,1723952592
119,17,19,Jits_Linear_5,1,1,48,43,1723954888
119,17,19,Jits_Linear_5,2,5,63,98,1723992524
119,17,19,Jits_Linear_5,3,5,80,127,1723995812
119,17,19,Jits_Linear_5,0,5,56,103,1724543540
119,17,19,Jits_Linear_5,1,1,48,50,1724544952
119,17,19,Jits_Linear_5,2,5,63,98,1724552532
119,17,19,Jits_Linear_5,3,5,80,127,1724572992
119,17,19,Jits_Linear_5,0,5,56,103,1725093432
119,17,19,Jits_Linear_5,1,5,80,127,1725096500
119,17,19,Jits_Linear_5,2,1,48,57,1725127120
119,17,19,Jits_Linear_5,3,5,63,98,1725133140
119,17,19,Jits_Linear_5,0,1,48,51,1725716736
119,17,19,Jits_Linear_5,1,5,63,98,1725723136
119,17,19,Jits_Linear_5,2,5,56,103,1725752664
119,17,19,Jits_Linear_5,3,5,80,127,1725773272
119,17,19,Jits_Linear_5,0,5,80,127,1726293552
119,17,19,Jits_Linear_5,1,5,56,103,1726302556
119,17,19,Jits_Linear_5,2,5,63,98,1726312752
119,17,19,Jits_Linear_5,3,1,48,57,1726314164
119,17,19,Jits_Linear_5,0,5,56,103,1726893424
119,17,19,Jits_Linear_5,1,1,48,55,1726906956
119,17,19,Jits_Linear_5,2,5,80,127,1726933432
119,17,19,Jits_Linear_5,3,5,63,98,1726963136
119,17,19,Jits_Linear_5,0,5,63,98,1727502612
119,17,19,Jits_Linear_5,1,1,48,50,1727503580
119,17,19,Jits_Linear_5,2,5,80,127,1727512876
119,17,19,Jits_Linear_5,3,5,56,103,1727523296
119,17,19,Jits_Linear_5,0,5,56,103,1728083432
119,17,19,Jits_Linear_5,1,1,48,44,1728104688
119,17,19,Jits_Linear_5,2,5,63,98,1728152888
119,17,19,Jits_Linear_5,3,5,80,127,1728163456
119,17,19,Jits_Linear_5,0,5,80,127,1728692596
119,17,19,Jits_Linear_5,1,5,56,103,1728702792
119,17,19,Jits_Linear_5,2,1,48,43,1728732440
119,17,19,Jits_Linear_5,3,5,63,98,1728753088
119,17,19,Jits_Linear_5,0,5,80,127,1729313092
119,17,19,Jits_Linear_5,1,1,48,46,1729319872
119,17,19,Jits_Linear_5,2,5,56,103,1729372508
119,17,19,Jits_Linear_5,3,5,63,98,1729403452
119,17,19,Jits_Linear_5,0,5,56,103,1729922404
119,17,19,Jits_Linear_5,1,5,80,127,1729925396
119,17,19,Jits_Linear_5,2,1,48,42,1729960200
119,17,19,Jits_Linear_5,3,5,63,98,1729963456
119,17,19,Jits_Linear_5,0,1,48,46,1730529932
119,17,19,Jits_Linear_5,1,5,56,103,1730562292
119,17,19,Jits_Linear_5,2,5,63,98,1730593236
119,17,19,Jits_Linear_5,3,5,80,127,1730603508
119,17,19,Jits_Linear_5,0,1,48,39,1731150048
119,17,19,Jits_Linear_5,1,5,63,98,1731182828
119,17,19,Jits_Linear_5,2,5,80,127,1731193396
119,17,19,Jits_Linear_5,3,5,56,103,1731202468
119,17,19,Jits_Linear_5,0,5,80,127,1731743052
119,17,19,Jits_Linear_5,1,1,48,42,1731769620
119,17,19,Jits_Linear_5,2,5,56,103,1731793472
119,17,19,Jits_Linear_5,3,5,63,98,1731796616
119,17,19,Jits_Linear_5,0,1,48,43,1732382920
119,17,19,Jits_Linear_5,1,5,56,103,1732393352
119,17,19,Jits_Linear_5,2,5,80,127,1732412768
119,17,19,Jits_Linear_5,3,5,63,98,1732423036
119,17,19,Jits_Linear_5,0,1,48,36,1732987404
119,17,19,Jits_Linear_5,1,5,63,98,1732993428
119,17,19,Jits_Linear_5,2,5,56,103,1733023032
119,17,19,Jits_Linear_5,3,5,80,127,1733042592
119,17,19,Jits_Linear_5,0,1,48,38,1733602552
119,17,19,Jits_Linear_5,1,5,56,103,1733623424
119,17,19,Jits_Linear_5,2,5,80,127,1733633400
119,17,19,Jits_Linear_5,3,5,63,98,1733703140
119,17,19,Jits_Linear_5,0,5,63,98,1734232360
119,17,19,Jits_Linear_5,1,5,80,127,1734273420
119,17,19,Jits_Linear_5,2,1,48,41,1734283440
119,17,19,Jits_Linear_5,3,5,56,103,1734313428
119,17,19,Jits_Linear_5,0,5,56,103,1734872376
119,17,19,Jits_Linear_5,1,5,63,98,1734882796
119,17,19,Jits_Linear_5,2,1,48,41,1734889580
119,17,19,Jits_Linear_5,3,5,80,127,1734903272
119,17,19,Jits_Linear_5,0,1,48,40,1735474184
119,17,19,Jits_Linear_5,1,5,63,98,1735543360
119,17,19,Jits_Linear_5,2,5,80,127,1735562476
119,17,19,Jits_Linear_5,3,5,56,103,1735583296
119,17,19,Jits_Linear_5,0,5,56,103,1736122700
119,17,19,Jits_Linear_5,1,1,48,36,1736162760
119,17,19,Jits_Linear_5,2,5,80,127,1736202592
119,17,19,Jits_Linear_5,3,5,63,98,1736212788
119,17,19,Jits_Linear_5,0,5,80,127,1736802692
119,17,19,Jits_Linear_5,1,1,48,39,1736807976
119,17,19,Jits_Linear_5,2,5,63,98,1736812808
119,17,19,Jits_Linear_5,3,5,56,103,1736842556
119,17,19,Jits_Linear_5,0,5,63,98,1737402708
119,17,19,Jits_Linear_5,1,5,80,127,1737442724
119,17,19,Jits_Linear_5,2,1,48,29,1737469236
119,17,19,Jits_Linear_5,3,5,56,103,1737503356
119,17,19,Jits_Linear_5,0,5,63,98,1738063424
119,17,19,Jits_Linear_5,1,1,48,38,1738109916
119,17,19,Jits_Linear_5,2,5,56,103,1738113472
119,17,19,Jits_Linear_5,3,5,80,127,1738143224
119,17,19,Jits_Linear_5,0,5,80,127,1738712360
119,17,19,Jits_Linear_5,1,5,63,98,1738722632
119,17,19,Jits_Linear_5,2,1,48,36,1738756340
119,17,19,Jits_Linear_5,3,5,56,103,1738793232
119,17,19,Jits_Linear_5,0,1,48,33,1739395164
119,17,19,Jits_Linear_5,1,5,80,127,1739423060
119,17,19,Jits_Linear_5,2,5,56,103,1739433332
119,17,19,Jits_Linear_5,3,5,63,98,1739436400
119,17,19,Jits_Linear_5,0,5,56,103,1740002768
119,17,19,Jits_Linear_5,1,5,80,127,1740023104
119,17,19,Jits_Linear_5,2,5,63,98,1740033452
119,17,19,Jits_Linear_5,3,1,48,42,1740045860
119,17,19,Jits_Linear_5,0,5,63,98,1740652864
119,17,19,Jits_Linear_5,1,1,48,30,1740663704
119,17,19,Jits_Linear_5,2,5,56,103,1740692724
119,17,19,Jits_Linear_5,3,5,80,127,1740713332
119,17,19,Jits_Linear_5,0,5,63,98,1741293060
119,17,19,Jits_Linear_5,1,1,48,42,1741310032
119,17,19,Jits_Linear_5,2,5,56,103,1741353296
119,17,19,Jits_Linear_5,3,5,80,127,1741356360
119,17,19,Jits_Linear_5,0,5,56,103,1741912460
119,17,19,Jits_Linear_5,1,5,80,127,1741933144
119,17,19,Jits_Linear_5,2,5,63,98,1741972712
119,17,19,Jits_Linear_5,3,1,48,35,1741991640
119,17,19,Jits_Linear_5,0,5,56,103,1742593416
119,17,19,Jits_Linear_5,1,1,48,37,1742594976
119,17,19,Jits_Linear_5,2,5,63,98,1742613048
119,17,19,Jits_Linear_5,3,5,80,127,1742623244
119,17,19,Jits_Linear_5,0,5,80,127,1743212988
119,17,19,Jits_Linear_5,1,5,56,103,1743242592
119,17,19,Jits_Linear_5,2,1,48,37,1743247876
119,17,19,Jits_Linear_5,3,5,63,98,1743282524
119,17,19,Jits_Linear_5,0,5,80,127,1743873344
119,17,19,Jits_Linear_5,1,5,56,103,1743893056
119,17,19,Jits_Linear_5,2,1,48,31,1743896548
119,17,19,Jits_Linear_5,3,5,63,98,1743953292
119,17,19,Jits_Linear_5,0,5,56,103,1744533000
119,17,19,Jits_Linear_5,1,5,80,127,1744553240
119,17,19,Jits_Linear_5,2,1,48,32,1744557776
119,17,19,Jits_Linear_5,3,5,63,98,1744612652
119,17,19,Jits_Linear_5,0,5,80,127,1745172828
119,17,19,Jits_Linear_5,1,5,56,103,1745183324
119,17,19,Jits_Linear_5,2,5,63,98,1745223112
119,17,19,Jits_Linear_5,3,1,48,43,1745227280
119,17,19,Jits_Linear_5,0,1,48,39,1745830340
119,17,19,Jits_Linear_5,1,5,63,98,1745833372
119,17,19,Jits_Linear_5,2,5,56,103,1745873236
119,17,19,Jits_Linear_5,3,5,80,127,1745876380
119,17,19,Jits_Linear_5,0,1,48,43,1746497944
119,17,19,Jits_Linear_5,1,5,63,98,1746513260
119,17,19,Jits_Linear_5,2,5,80,127,1746553200
119,17,19,Jits_Linear_5,3,5,56,103,1746583172
119,17,19,Jits_Linear_5,0,5,56,103,1747162420
119,17,19,Jits_Linear_5,1,5,63,98,1747172616
119,17,19,Jits_Linear_5,2,1,48,43,1747173656
119,17,19,Jits_Linear_5,3,5,80,127,1747202312
119,17,19,Jits_Linear_5,0,5,80,127,1747823148
119,17,19,Jits_Linear_5,1,1,48,43,1747829932
119,17,19,Jits_Linear_5,2,5,63,98,1747892604
119,17,19,Jits_Linear_5,3,5,56,103,1747902952
119,17,19,Jits_Linear_5,0,5,63,98,1748492652
119,17,19,Jits_Linear_5,1,1,48,39,1748500556
119,17,19,Jits_Linear_5,2,5,56,103,1748563228
119,17,19,Jits_Linear_5,3,5,80,127,1748572672
119,17,19,Jits_Linear_5,0,5,63,98,1749163380
119,17,19,Jits_Linear_5,1,5,56,103,1749182792
119,17,19,Jits_Linear_5,2,1,48,41,1749203744
119,17,19,Jits_Linear_5,3,5,80,127,1749222724
119,17,19,Jits_Linear_5,0,5,56,103,1749843348
119,17,19,Jits_Linear_5,1,5,63,98,1749852648
119,17,19,Jits_Linear_5,2,1,48,41,1749860944
119,17,19,Jits_Linear_5,3,5,80,127,1749933336
119,17,19,Jits_Linear_5,0,5,63,98,1750502704
119,17,19,Jits_Linear_5,1,5,56,103,1750532336
119,17,19,Jits_Linear_5,2,5,80,127,1750573392
119,17,19,Jits_Linear_5,3,1,48,40,1750585276
119,17,19,Jits_Linear_5,0,5,56,103,1751172560
119,17,19,Jits_Linear_5,1,5,63,98,1751213400
119,17,19,Jits_Linear_5,2,1,48,45,1751252132
119,17,19,Jits_Linear_5,3,5,80,127,1751253628
119,17,19,Jits_Linear_5,0,5,80,127,1751853516
119,17,19,Jits_Linear_5,1,1,48,46,1751900404
119,17,19,Jits_Linear_5,2,5,56,103,1751933312
119,17,19,Jits_Linear_5,3,5,63,98,1751942388
119,17,19,Jits_Linear_5,0,5,56,103,1752573292
119,17,19,Jits_Linear_5,1,5,63,98,1752576360
119,17,19,Jits_Linear_5,2,5,80,127,1752582368
119,17,19,Jits_Linear_5,3,1,48,41,1752588176
119,17,19,Jits_Linear_5,0,1,48,34,1753221900
119,17,19,Jits_Linear_5,1,5,56,103,1753272572
119,17,19,Jits_Linear_5,2,5,63,98,1753293108
119,17,19,Jits_Linear_5,3,5,80,127,1753303380
119,17,19,Jits_Linear_5,0,1,48,43,1753910172
119,17,19,Jits_Linear_5,1,5,63,98,1753912836
119,17,19,Jits_Linear_5,2,5,80,127,1753922956
119,17,19,Jits_Linear_5,3,5,56,103,1753943340
119,17,19,Jits_Linear_5,0,1,48,37,1754579184
119,17,19,Jits_Linear_5,1,5,63,98,1754602916
119,17,19,Jits_Linear_5,2,5,56,103,1754682700
119,17,19,Jits_Linear_5,3,5,80,127,1754685916
119,17,19,Jits_Linear_5,0,1,48,38,1755287776
119,17,19,Jits_Linear_5,1,5,63,98,1755292976
119,17,19,Jits_Linear_5,2,5,56,103,1755312464
119,17,19,Jits_Linear_5,3,5,80,127,1755343188
119,17,19,Jits_Linear_5,0,1,48,33,1755962512
119,17,19,Jits_Linear_5,1,5,56,103,1755983136
119,17,19,Jits_Linear_5,2,5,63,98,1756002624
119,17,19,Jits_Linear_5,3,5,80,127,1756013116
119,17,19,Jits_Linear_5,0,1,48,29,1756670116
119,17,19,Jits_Linear_5,1,5,56,103,1756703040
119,17,19,Jits_Linear_5,2,5,63,98,1756732864
119,17,19,Jits_Linear_5,3,5,80,127,1756736304
119,17,19,Jits_Linear_5,0,5,56,103,1757343056
119,17,19,Jits_Linear_5,1,1,48,43,1757375920
119,17,19,Jits_Linear_5,2,5,63,98,1757383068
119,17,19,Jits_Linear_5,3,5,80,127,1757442436
119,17,19,Jits_Linear_5,0,5,56,103,1758052864
119,17,19,Jits_Linear_5,1,5,63,98,1758062836
119,17,19,Jits_Linear_5,2,1,48,37,1758093976
119,17,19,Jits_Linear_5,3,5,80,127,1758123520
119,17,19,Jits_Linear_5,0,5,56,103,1758753072
119,17,19,Jits_Linear_5,1,5,80,127,1758772856
119,17,19,Jits_Linear_5,2,1,48,35,1758795460
119,17,19,Jits_Linear_5,3,5,63,98,1758803352
119,17,19,Jits_Linear_5,0,5,80,127,1759452664
119,17,19,Jits_Linear_5,1,5,56,103,1759463008
119,17,19,Jits_Linear_5,2,5,63,98,1759483196
119,17,19,Jits_Linear_5,3,1,48,33,1759487360
119,17,19,Jits_Linear_5,0,5,63,98,1760142912
119,17,19,Jits_Linear_5,1,1,48,33,1760154572
119,17,19,Jits_Linear_5,2,5,80,127,1760222556
119,17,19,Jits_Linear_5,3,5,56,103,1760232828
119,17,19,Jits_Linear_5,0,1,48,29,1760877444
119,17,19,Jits_Linear_5,1,5,80,127,1760902428
119,17,19,Jits_Linear_5,2,5,56,103,1760923108
119,17,19,Jits_Linear_5,3,5,63,98,1760926248
119,17,19,Jits_Linear_5,0,1,48,33,1761567376
119,17,19,Jits_Linear_5,1,5,63,98,1761582468
119,17,19,Jits_Linear_5,2,5,80,127,1761585832
119,17,19,Jits_Linear_5,3,5,56,103,1761642856
119,17,19,Jits_Linear_5,0,5,56,103,1762272824
119,17,19,Jits_Linear_5,1,5,80,127,1762282972
119,17,19,Jits_Linear_5,2,1,48,31,1762284460
119,17,19,Jits_Linear_5,3,5,63,98,1762322756
119,17,19,Jits_Linear_5,0,5,56,103,1762962996
119,17,19,Jits_Linear_5,1,1,48,43,1762994440
119,17,19,Jits_Linear_5,2,5,63,98,1763023160
119,17,19,Jits_Linear_5,3,5,80,127,1763032308
119,17,19,Jits_Linear_5,0,5,63,98,1763682840
119,17,19,Jits_Linear_5,1,1,48,36,1763720664
119,17,19,Jits_Linear_5,2,5,80,127,1763722772
119,17,19,Jits_Linear_5,3,5,56,103,1763762712
119,17,19,Jits_Linear_5,0,5,56,103,1764393300
119,17,19,Jits_Linear_5,1,1,48,35,1764416196
119,17,19,Jits_Linear_5,2,5,63,98,1764473240
119,17,19,Jits_Linear_5,3,5,80,127,1764476604
119,17,19,Jits_Linear_5,0,1,48,32,1765131016
119,17,19,Jits_Linear_5,1,5,80,127,1765163332
119,17,19,Jits_Linear_5,2,5,56,103,1765193084
119,17,19,Jits_Linear_5,3,5,63,98,1765196148
119,17,19,Jits_Linear_5,0,5,56,103,1765843204
119,17,19,Jits_Linear_5,1,5,80,127,1765862988
119,17,19,Jits_Linear_5,2,1,48,26,1765868052
119,17,19,Jits_Linear_5,3,5,63,98,1765902996
119,17,19,Jits_Linear_5,0,5,80,127,1766542868
119,17,19,Jits_Linear_5,1,5,63,98,1766563104
119,17,19,Jits_Linear_5,2,1,48,29,1766597384
119,17,19,Jits_Linear_5,3,5,56,103,1766622664
119,17,19,Jits_Linear_5,0,5,63,98,1767272748
119,17,19,Jits_Linear_5,1,1,48,34,1767277740
119,17,19,Jits_Linear_5,2,5,56,103,1767283088
119,17,19,Jits_Linear_5,3,5,80,127,1767333216
119,17,19,Jits_Linear_5,0,1,48,35,1767978224
119,17,19,Jits_Linear_5,1,5,56,103,1767982456
119,17,19,Jits_Linear_5,2,5,63,98,1768002916
119,17,19,Jits_Linear_5,3,5,80,127,1768013036
119,17,19,Jits_Linear_5,0,1,48,37,1768667460
119,17,19,Jits_Linear_5,1,5,56,103,1768703324
119,17,19,Jits_Linear_5,2,5,63,98,1768706616
119,17,19,Jits_Linear_5,3,5,80,127,1768722888
119,17,19,Jits_Linear_5,0,1,48,32,1769382780
119,17,19,Jits_Linear_5,1,5,63,98,1769473488
119,17,19,Jits_Linear_5,2,5,56,103,1769503076
119,17,19,Jits_Linear_5,3,5,80,127,1769532828
119,17,19,Jits_Linear_5,0,1,48,29,1770162132
119,17,19,Jits_Linear_5,1,5,80,127,1770163700
119,17,19,Jits_Linear_5,2,5,56,103,1770252740
119,17,19,Jits_Linear_5,3,5,63,98,1770255804
119,17,19,Jits_Linear_5,0,5,56,103,1770892596
119,17,19,Jits_Linear_5,1,5,80,127,1770895736
119,17,19,Jits_Linear_5,2,1,48,44,1770964712
119,17,19,Jits_Linear_5,3,5,63,98,1770972680
119,17,19,Jits_Linear_5,0,5,80,127,1771622764
119,17,19,Jits_Linear_5,1,5,63,98,1771683160
119,17,19,Jits_Linear_5,2,1,48,42,1771693252
119,17,19,Jits_Linear_5,3,5,56,103,1771712904
119,17,19,Jits_Linear_5,0,5,63,98,1772352872
119,17,19,Jits_Linear_5,1,5,80,127,1772363068
119,17,19,Jits_Linear_5,2,1,48,43,1772410680
119,17,19,Jits_Linear_5,3,5,56,103,1772432896
119,17,19,Jits_Linear_5,0,5,56,103,1773102660
119,17,19,Jits_Linear_5,1,5,80,127,1773133088
119,17,19,Jits_Linear_5,2,1,48,42,1773135756
119,17,19,Jits_Linear_5,3,5,63,98,1773183208
119,17,19,Jits_Linear_5,0,1,48,38,1773881464
119,17,19,Jits_Linear_5,1,5,63,98,1773882888
119,17,19,Jits_Linear_5,2,5,56,103,1773912564
119,17,19,Jits_Linear_5,3,5,80,127,1773915556
119,17,19,Jits_Linear_5,0,1,48,36,1774626504
119,17,19,Jits_Linear_5,1,5,63,98,1774633352
119,17,19,Jits_Linear_5,2,5,80,127,1774652840
119,17,19,Jits_Linear_5,3,5,56,103,1774662888
119,17,19,Jits_Linear_5,0,1,48,31,1775358176
119,17,19,Jits_Linear_5,1,5,56,103,1775382856
119,17,19,Jits_Linear_5,2,5,63,98,1775386144
119,17,19,Jits_Linear_5,3,5,80,127,1775403240
119,17,19,Jits_Linear_5,0,5,56,103,1776083700
119,17,19,Jits_Linear_5,1,5,63,98,1776092628
119,17,19,Jits_Linear_5,2,1,48,32,1776121032
119,17,19,Jits_Linear_5,3,5,80,127,1776123220
119,17,19,Jits_Linear_5,0,1,48,31,1776813180
119,17,19,Jits_Linear_5,1,5,63,98,1776853288
119,17,19,Jits_Linear_5,2,5,80,127,1776872800
119,17,19,Jits_Linear_5,3,5,56,103,1776912648
119,17,19,Jits_Linear_5,0,1,48,32,1777550376
119,17,19,Jits_Linear_5,1,5,56,103,1777632680
119,17,19,Jits_Linear_5,2,5,63,98,1777672780
119,17,19,Jits_Linear_5,3,5,80,127,1777676068
119,17,19,Jits_Linear_5,0,1,48,31,1778317712
119,17,19,Jits_Linear_5,1,5,80,127,1778322836
119,17,19,Jits_Linear_5,2,5,56,103,1778362704
119,17,19,Jits_Linear_5,3,5,63,98,1778412816
119,17,19,Jits_Linear_5,0,1,48,31,1779088464
119,17,19,Jits_Linear_5,1,5,56,103,1779132776
119,17,19,Jits_Linear_5,2,5,80,127,1779142972
119,17,19,Jits_Linear_5,3,5,63,98,1779172648
119,17,19,Jits_Linear_5,0,5,56,103,1779833060
119,17,19,Jits_Linear_5,1,5,80,127,1779873076
119,17,19,Jits_Linear_5,2,1,48,46,1779901452
119,17,19,Jits_Linear_5,3,5,63,98,1779923272
119,17,19,Jits_Linear_5,0,5,56,103,1780593136
119,17,19,Jits_Linear_5,1,5,80,127,1780632928
119,17,19,Jits_Linear_5,2,1,48,53,1780641300
119,17,19,Jits_Linear_5,3,5,63,98,1780683048
119,17,19,Jits_Linear_5,0,5,80,127,1781342652
119,17,19,Jits_Linear_5,1,1,48,49,1781378284
119,17,19,Jits_Linear_5,2,5,63,98,1781422592
119,17,19,Jits_Linear_5,3,5,56,103,1781432640
119,17,19,Jits_Linear_5,0,1,48,50,1782123004
119,17,19,Jits_Linear_5,1,5,80,127,1782152476
119,17,19,Jits_Linear_5,2,5,56,103,1782162744
119,17,19,Jits_Linear_5,3,5,63,98,1782183504
119,17,19,Jits_Linear_5,0,1,48,49,1782871312
119,17,19,Jits_Linear_5,1,5,63,98,1782882644
119,17,19,Jits_Linear_5,2,5,56,103,1782953596
119,17,19,Jits_Linear_5,3,5,80,127,1782956592
119,17,19,Jits_Linear_5,0,5,80,127,1783642556
119,17,19,Jits_Linear_5,1,1,48,47,1783643596
119,17,19,Jits_Linear_5,2,5,63,98,1783692604
119,17,19,Jits_Linear_5,3,5,56,103,1783732544
119,17,19,Jits_Linear_5,0,1,48,41,1784386792
119,17,19,Jits_Linear_5,1,5,63,98,1784452604
119,17,19,Jits_Linear_5,2,5,56,103,1784493576
119,17,19,Jits_Linear_5,3,5,80,127,1784502652
119,17,19,Jits_Linear_5,0,1,48,37,1785164916
119,17,19,Jits_Linear_5,1,5,63,98,1785213568
119,17,19,Jits_Linear_5,2,5,56,103,1785232832
119,17,19,Jits_Linear_5,3,5,80,127,1785253216
119,17,19,Jits_Linear_5,0,5,80,127,1785943516
119,17,19,Jits_Linear_5,1,5,56,103,1785952668
119,17,19,Jits_Linear_5,2,1,48,42,1785959676
119,17,19,Jits_Linear_5,3,5,63,98,1785972968
119,17,19,Jits_Linear_5,0,1,48,41,1786710976
119,17,19,Jits_Linear_5,1,5,63,98,1786743288
119,17,19,Jits_Linear_5,2,5,56,103,1786783084
119,17,19,Jits_Linear_5,3,5,80,127,1786812892
119,17,19,Jits_Linear_5,0,1,48,39,1787480340
119,17,19,Jits_Linear_5,1,5,56,103,1787522392
119,17,19,Jits_Linear_5,2,5,63,98,1787553264
119,17,19,Jits_Linear_5,3,5,80,127,1787582776
119,17,19,Jits_Linear_5,0,1,48,39,1788255900
119,17,19,Jits_Linear_5,1,5,80,127,1788272940
119,17,19,Jits_Linear_5,2,5,56,103,1788342624
119,17,19,Jits_Linear_5,3,5,63,98,1788345764
119,17,19,Jits_Linear_5,0,1,48,45,1789057984
119,17,19,Jits_Linear_5,1,5,56,103,1789062664
119,17,19,Jits_Linear_5,2,5,63,98,1789112568
119,17,19,Jits_Linear_5,3,5,80,127,1789143444
119,17,19,Jits_Linear_5,0,5,63,98,1789823404
119,17,19,Jits_Linear_5,1,5,80,127,1789826544
119,17,19,Jits_Linear_5,2,1,48,49,1789840224
119,17,19,Jits_Linear_5,3,5,56,103,1789882592
119,17,19,Jits_Linear_5,0,1,48,49,1790609112
119,17,19,Jits_Linear_5,1,5,56,103,1790633496
119,17,19,Jits_Linear_5,2,5,80,127,1790642500
119,17,19,Jits_Linear_5,3,5,63,98,1790692776
119,17,19,Jits_Linear_5,0,5,63,98,1791393268
119,17,19,Jits_Linear_5,1,1,48,37,1791398628
119,17,19,Jits_Linear_5,2,5,56,103,1791403532
119,17,19,Jits_Linear_5,3,5,80,127,1791433060
119,17,19,Jits_Linear_5,0,1,48,41,1792155912
119,17,19,Jits_Linear_5,1,5,63,98,1792213328
119,17,19,Jits_Linear_5,2,5,80,127,1792216544
119,17,19,Jits_Linear_5,3,5,56,103,1792243180
119,17,19,Jits_Linear_5,0,1,48,44,1792913264
119,17,19,Jits_Linear_5,1,5,63,98,1793023364
119,17,19,Jits_Linear_5,2,5,56,103,1793042696
119,17,19,Jits_Linear_5,3,5,80,127,1793045768
119,17,19,Jits_Linear_5,0,1,48,46,1793740064
119,17,19,Jits_Linear_5,1,5,63,98,1793772868
119,17,19,Jits_Linear_5,2,5,56,103,1793842612
119,17,19,Jits_Linear_5,3,5,80,127,1793863076
119,17,19,Jits_Linear_5,0,5,56,103,1794553464
119,17,19,Jits_Linear_5,1,5,63,98,1794562392
119,17,19,Jits_Linear_5,2,1,48,46,1794599888
119,17,19,Jits_Linear_5,3,5,80,127,1794652668
119,17,19,Jits_Linear_5,0,5,56,103,1795363440
119,17,19,Jits_Linear_5,1,1,48,49,1795400964
119,17,19,Jits_Linear_5,2,5,80,127,1795403228
119,17,19,Jits_Linear_5,3,5,63,98,1795413424
119,17,19,Jits_Linear_5,0,1,48,47,1796147308
119,17,19,Jits_Linear_5,1,5,56,103,1796183372
119,17,19,Jits_Linear_5,2,5,63,98,1796213200
119,17,19,Jits_Linear_5,3,5,80,127,1796242728
119,17,19,Jits_Linear_5,0,5,80,127,1796943292
119,17,19,Jits_Linear_5,1,1,48,43,1796947460
119,17,19,Jits_Linear_5,2,5,63,98,1796983448
119,17,19,Jits_Linear_5,3,5,56,103,1797002640
119,17,19,Jits_Linear_5,0,1,48,46,1797740404
119,17,19,Jits_Linear_5,1,5,56,103,1797782852
119,17,19,Jits_Linear_5,2,5,80,127,1797803464
119,17,19,Jits_Linear_5,3,5,63,98,1797822876
119,17,19,Jits_Linear_5,0,1,48,43,1798549244
119,17,19,Jits_Linear_5,1,5,63,98,1798552952
119,17,19,Jits_Linear_5,2,5,56,103,1798563148
119,17,19,Jits_Linear_5,3,5,80,127,1798622568
119,17,19,Jits_Linear_5,0,1,48,46,1799346252
119,17,19,Jits_Linear_5,1,5,56,103,1799363060
119,17,19,Jits_Linear_5,2,5,63,98,1799432620
119,17,19,Jits_Linear_5,3,5,80,127,1799453064
119,17,19,Jits_Linear_5,0,1,48,38,1800162808
119,17,19,Jits_Linear_5,1,5,56,103,1800172972
119,17,19,Jits_Linear_5,2,5,63,98,1800202652
119,17,19,Jits_Linear_5,3,5,80,127,1800242592
119,17,19,Jits_Linear_5,0,1,48,35,1800956752
119,17,19,Jits_Linear_5,1,5,63,98,1800972592
119,17,19,Jits_Linear_5,2,5,56,103,1801023020
119,17,19,Jits_Linear_5,3,5,80,127,1801033216
119,17,19,Jits_Linear_5,0,1,48,42,1801753608
119,17,19,Jits_Linear_5,1,5,56,103,1801822636
119,17,19,Jits_Linear_5,2,5,63,98,1801872900
119,17,19,Jits_Linear_5,3,5,80,127,1801883020
119,17,19,Jits_Linear_5,0,5,56,103,1802603080
119,17,19,Jits_Linear_5,1,5,63,98,1802613500
119,17,19,Jits_Linear_5,2,1,48,35,1802634228
119,17,19,Jits_Linear_5,3,5,80,127,1802693364
119,17,19,Jits_Linear_5,0,9999,9999,9999,1693800560
119,17,19,Jits_Linear_5,1,9999,9999,9999,1694280796
119,17,19,Jits_Linear_5,2,9999,9999,9999,1694761052
119,17,19,Jits_Linear_5,3,9999,9999,9999,1695240256
119,17,19,Jits_Linear_5,4,9999,9999,9999,1695720528
119,17,19,Jits_Linear_5,5,9999,9999,9999,1696211000
119,17,19,Jits_Linear_5,6,9999,9999,9999,1696700500
119,17,19,Jits_Linear_5,7,9999,9999,9999,1697190984
119,17,19,Jits_Linear_5,8,9999,9999,9999,1697680492
119,17,19,Jits_Linear_5,9,9999,9999,9999,1698170964
119,17,19,Jits_Linear_5,10,9999,9999,9999,1698670664
119,17,19,Jits_Linear_5,11,9999,9999,9999,1699170368
119,17,19,Jits_Linear_5,12,9999,9999,9999,1699670124
119,17,19,Jits_Linear_5,13,9999,9999,9999,1700170856
119,17,19,Jits_Linear_5,14,9999,9999,9999,1700670528
119,17,19,Jits_Linear_5,15,9999,9999,9999,1701180476
119,17,19,Jits_Linear_5,16,9999,9999,9999,1701690476
119,17,19,Jits_Linear_5,17,9999,9999,9999,1702200428
119,17,19,Jits_Linear_5,18,9999,9999,9999,1702710376
119,17,19,Jits_Linear_5,19,9999,9999,9999,1703220344
119,17,19,Jits_Linear_5,20,9999,9999,9999,1703740500
119,17,19,Jits_Linear_5,21,9999,9999,9999,1704260732
119,17,19,Jits_Linear_5,22,9999,9999,9999,1704780884
119,17,19,Jits_Linear_5,23,9999,9999,9999,1705301112
119,17,19,Jits_Linear_5,24,9999,9999,9999,1705820216
119,17,19,Jits_Linear_5,25,9999,9999,9999,1706350700
119,17,19,Jits_Linear_5,26,9999,9999,9999,1706880060
119,17,19,Jits_Linear_5,27,9999,9999,9999,1707410512
119,17,19,Jits_Linear_5,28,9999,9999,9999,1707940932
119,17,19,Jits_Linear_5,29,9999,9999,9999,1708470364
119,17,19,Jits_Linear_5,30,9999,9999,9999,1709011032
119,17,19,Jits_Linear_5,31,9999,9999,9999,1709550676
119,17,19,Jits_Linear_5,32,9999,9999,9999,1710090292
119,17,19,Jits_Linear_5,33,9999,9999,9999,1710631032
119,17,19,Jits_Linear_5,34,9999,9999,9999,1711170652
119,17,19,Jits_Linear_5,35,9999,9999,9999,1711720540
119,17,19,Jits_Linear_5,36,9999,9999,9999,1712270412
119,17,19,Jits_Linear_5,37,9999,9999,9999,1712820300
119,17,19,Jits_Linear_5,38,9999,9999,9999,1713370184
119,17,19,Jits_Linear_5,39,9999,9999,9999,1713920096
119,17,19,Jits_Linear_5,40,9999,9999,9999,1714480244
119,17,19,Jits_Linear_5,41,9999,9999,9999,1715040316
119,17,19,Jits_Linear_5,42,9999,9999,9999,1715600464
119,17,19,Jits_Linear_5,43,9999,9999,9999,1716160604
119,17,19,Jits_Linear_5,44,9999,9999,9999,1716720700
119,17,19,Jits_Linear_5,45,9999,9999,9999,1717291112
119,17,19,Jits_Linear_5,46,9999,9999,9999,1717870664
119,17,19,Jits_Linear_5,47,9999,9999,9999,1718441080
119,17,19,Jits_Linear_5,48,9999,9999,9999,1719010376
119,17,19,Jits_Linear_5,49,9999,9999,9999,1719580736
119,17,19,Jits_Linear_5,50,9999,9999,9999,1720160356
119,17,19,Jits_Linear_5,51,9999,9999,9999,1720740956
119,17,19,Jits_Linear_5,52,9999,9999,9999,1721320524
119,17,19,Jits_Linear_5,53,9999,9999,9999,1721900108
119,17,19,Jits_Linear_5,54,9999,9999,9999,1722480704
119,17,19,Jits_Linear_5,55,9999,9999,9999,1723070540
119,17,19,Jits_Linear_5,56,9999,9999,9999,1723660380
119,17,19,Jits_Linear_5,57,9999,9999,9999,1724250208
119,17,19,Jits_Linear_5,58,9999,9999,9999,1724841016
119,17,19,Jits_Linear_5,59,9999,9999,9999,1725430856
119,17,19,Jits_Linear_5,60,9999,9999,9999,1726030956
119,17,19,Jits_Linear_5,61,9999,9999,9999,1726631032
119,17,19,Jits_Linear_5,62,9999,9999,9999,1727231080
119,17,19,Jits_Linear_5,63,9999,9999,9999,1727830128
119,17,19,Jits_Linear_5,64,9999,9999,9999,1728430132
119,17,19,Jits_Linear_5,65,9999,9999,9999,1729040436
119,17,19,Jits_Linear_5,66,9999,9999,9999,1729650800
119,17,19,Jits_Linear_5,67,9999,9999,9999,1730261072
119,17,19,Jits_Linear_5,68,9999,9999,9999,1730870336
119,17,19,Jits_Linear_5,69,9999,9999,9999,1731480680
119,17,19,Jits_Linear_5,70,9999,9999,9999,1732100180
119,17,19,Jits_Linear_5,71,9999,9999,9999,1732720724
119,17,19,Jits_Linear_5,72,9999,9999,9999,1733340284
119,17,19,Jits_Linear_5,73,9999,9999,9999,1733960768
119,17,19,Jits_Linear_5,74,9999,9999,9999,1734580328
119,17,19,Jits_Linear_5,75,9999,9999,9999,1735211076
119,17,19,Jits_Linear_5,76,9999,9999,9999,1735851108
119,17,19,Jits_Linear_5,77,9999,9999,9999,1736491076
119,17,19,Jits_Linear_5,78,9999,9999,9999,1737131104
119,17,19,Jits_Linear_5,79,9999,9999,9999,1737771080
119,17,19,Jits_Linear_5,80,9999,9999,9999,1738411100
119,17,19,Jits_Linear_5,81,9999,9999,9999,1739051064
119,17,19,Jits_Linear_5,82,9999,9999,9999,1739691092
119,17,19,Jits_Linear_5,83,9999,9999,9999,1740331136
119,17,19,Jits_Linear_5,84,9999,9999,9999,1740971092
119,17,19,Jits_Linear_5,85,9999,9999,9999,1741630532
119,17,19,Jits_Linear_5,86,9999,9999,9999,1742280804
119,17,19,Jits_Linear_5,87,9999,9999,9999,1742931044
119,17,19,Jits_Linear_5,88,9999,9999,9999,1743580284
119,17,19,Jits_Linear_5,89,9999,9999,9999,1744230528
119,17,19,Jits_Linear_5,90,9999,9999,9999,1744890960
119,17,19,Jits_Linear_5,91,9999,9999,9999,1745550464
119,17,19,Jits_Linear_5,92,9999,9999,9999,1746210880
119,17,19,Jits_Linear_5,93,9999,9999,9999,1746870376
119,17,19,Jits_Linear_5,94,9999,9999,9999,1747530864
119,17,19,Jits_Linear_5,95,9999,9999,9999,1748200564
119,17,19,Jits_Linear_5,96,9999,9999,9999,1748870212
119,17,19,Jits_Linear_5,97,9999,9999,9999,1749540964
119,17,19,Jits_Linear_5,98,9999,9999,9999,1750210644
119,17,19,Jits_Linear_5,99,9999,9999,9999,1750880368
119,17,19,Jits_Linear_5,100,9999,9999,9999,1751560260
119,17,19,Jits_Linear_5,101,9999,9999,9999,1752240224
119,17,19,Jits_Linear_5,102,9999,9999,9999,1752920128
119,17,19,Jits_Linear_5,103,9999,9999,9999,1753600120
119,17,19,Jits_Linear_5,104,9999,9999,9999,1754281036
119,17,19,Jits_Linear_5,105,9999,9999,9999,1754970216
119,17,19,Jits_Linear_5,106,9999,9999,9999,1755660376
119,17,19,Jits_Linear_5,107,9999,9999,9999,1756350588
119,17,19,Jits_Linear_5,108,9999,9999,9999,1757040744
119,17,19,Jits_Linear_5,109,9999,9999,9999,1757730904
119,17,19,Jits_Linear_5,110,9999,9999,9999,1758430272
119,17,19,Jits_Linear_5,111,9999,9999,9999,1759130708
119,17,19,Jits_Linear_5,112,9999,9999,9999,1759830096
119,17,19,Jits_Linear_5,113,9999,9999,9999,1760530516
119,17,19,Jits_Linear_5,114,9999,9999,9999,1761230912
119,17,19,Jits_Linear_5,115,9999,9999,9999,1761940544
119,17,19,Jits_Linear_5,116,9999,9999,9999,1762650184
119,17,19,Jits_Linear_5,117,9999,9999,9999,1763360884
119,17,19,Jits_Linear_5,118,9999,9999,9999,1764070516
119,17,19,Jits_Linear_5,119,9999,9999,9999,1764780144
119,17,19,Jits_Linear_5,120,9999,9999,9999,1765501032
119,17,19,Jits_Linear_5,121,9999,9999,9999,1766220912
119,17,19,Jits_Linear_5,122,9999,9999,9999,1766940756
119,17,19,Jits_Linear_5,123,9999,9999,9999,1767660668
119,17,19,Jits_Linear_5,124,9999,9999,9999,1768380468
119,17,19,Jits_Linear_5,125,9999,9999,9999,1769110620
119,17,19,Jits_Linear_5,126,9999,9999,9999,1769840720
119,17,19,Jits_Linear_5,127,9999,9999,9999,1770570876
119,17,19,Jits_Linear_5,128,9999,9999,9999,1771300960
119,17,19,Jits_Linear_5,129,9999,9999,9999,1772031068
119,17,19,Jits_Linear_5,130,9999,9999,9999,1772770364
119,17,19,Jits_Linear_5,131,9999,9999,9999,1773510712
119,17,19,Jits_Linear_5,132,9999,9999,9999,1774251080
119,17,19,Jits_Linear_5,133,9999,9999,9999,1775000656
119,17,19,Jits_Linear_5,134,9999,9999,9999,1775741008
119,17,19,Jits_Linear_5,135,9999,9999,9999,1776490580
119,17,19,Jits_Linear_5,136,9999,9999,9999,1777240168
119,17,19,Jits_Linear_5,137,9999,9999,9999,1777990712
119,17,19,Jits_Linear_5,138,9999,9999,9999,1778740332
119,17,19,Jits_Linear_5,139,9999,9999,9999,1779490884
119,17,19,Jits_Linear_5,140,9999,9999,9999,1780250724
119,17,19,Jits_Linear_5,141,9999,9999,9999,1781010504
119,17,19,Jits_Linear_5,142,9999,9999,9999,1781770356
119,17,19,Jits_Linear_5,143,9999,9999,9999,1782530140
119,17,19,Jits_Linear_5,144,9999,9999,9999,1783290944
119,17,19,Jits_Linear_5,145,9999,9999,9999,1784061044
119,17,19,Jits_Linear_5,146,9999,9999,9999,1784831096
119,17,19,Jits_Linear_5,147,9999,9999,9999,1785600076
119,17,19,Jits_Linear_5,148,9999,9999,9999,1786370172
119,17,19,Jits_Linear_5,149,9999,9999,9999,1787140216
119,17,19,Jits_Linear_5,150,9999,9999,9999,1787920508
119,17,19,Jits_Linear_5,151,9999,9999,9999,1788700792
119,17,19,Jits_Linear_5,152,9999,9999,9999,1789481084
119,17,19,Jits_Linear_5,153,9999,9999,9999,1790260316
119,17,19,Jits_Linear_5,154,9999,9999,9999,1791040608
119,17,19,Jits_Linear_5,155,9999,9999,9999,1791830112
119,17,19,Jits_Linear_5,156,9999,9999,9999,1792620652
119,17,19,Jits_Linear_5,157,9999,9999,9999,1793410152
119,17,19,Jits_Linear_5,158,9999,9999,9999,1794200632
119,17,19,Jits_Linear_5,159,9999,9999,9999,1794990136
119,17,19,Jits_Linear_5,160,9999,9999,9999,1795790972
119,17,19,Jits_Linear_5,161,9999,9999,9999,1796590708
119,17,19,Jits_Linear_5,162,9999,9999,9999,1797390400
119,17,19,Jits_Linear_5,163,9999,9999,9999,1798190184
119,17,19,Jits_Linear_5,164,9999,9999,9999,1798990924
119,17,19,Jits_Linear_5,165,9999,9999,9999,1799800888
119,17,19,Jits_Linear_5,166,9999,9999,9999,1800610924
119,17,19,Jits_Linear_5,167,9999,9999,9999,1801420880
119,17,19,Jits_Linear_5,168,9999,9999,9999,1802230868
119,17,19,Jits_Linear_5,169,9999,9999,9999,1803040824
119,18,18,Jits_Linear_8,0,5,56,103,1812056376
119,18,18,Jits_Linear_8,1,5,63,98,1812059468
119,18,18,Jits_Linear_8,2,5,80,127,1812062596
119,18,18,Jits_Linear_8,0,5,56,103,1812876836
119,18,18,Jits_Linear_8,1,5,63,98,1812880008
119,18,18,Jits_Linear_8,2,5,80,127,1812883128
119,18,18,Jits_Linear_8,0,5,80,127,1813636396
119,18,18,Jits_Linear_8,1,1,48,68,1813677052
119,18,18,Jits_Linear_8,2,5,63,98,1813726600
119,18,18,Jits_Linear_8,3,5,56,103,1813737048
119,18,18,Jits_Linear_8,0,5,56,103,1814477152
119,18,18,Jits_Linear_8,1,5,63,98,1814487496
119,18,18,Jits_Linear_8,2,1,48,52,1814528628
119,18,18,Jits_Linear_8,3,5,80,127,1814576528
119,18,18,Jits_Linear_8,0,5,63,98,1815266580
119,18,18,Jits_Linear_8,1,5,80,127,1815297328
119,18,18,Jits_Linear_8,2,1,48,72,1815300300
119,18,18,Jits_Linear_8,3,5,56,103,1815327220
119,18,18,Jits_Linear_8,0,1,48,78,1816061368
119,18,18,Jits_Linear_8,1,5,56,103,1816086948
119,18,18,Jits_Linear_8,2,5,80,127,1816187184
119,18,18,Jits_Linear_8,3,5,63,98,1816237312
119,18,18,Jits_Linear_8,0,5,56,103,1816896828
119,18,18,Jits_Linear_8,1,1,48,73,1816906848
119,18,18,Jits_Linear_8,2,5,80,127,1816947176
119,18,18,Jits_Linear_8,3,5,63,98,1816987188
119,18,18,Jits_Linear_8,0,1,48,74,1817672348
119,18,18,Jits_Linear_8,1,5,80,127,1817736520
119,18,18,Jits_Linear_8,2,5,63,98,1817767304
119,18,18,Jits_Linear_8,3,5,56,103,1817837084
119,18,18,Jits_Linear_8,0,1,48,64,1818479300
119,18,18,Jits_Linear_8,1,5,63,98,1818577912
119,18,18,Jits_Linear_8,2,5,56,103,1818607092
119,18,18,Jits_Linear_8,3,5,80,127,1818667484
119,18,18,Jits_Linear_8,0,5,56,103,1819327048
119,18,18,Jits_Linear_8,1,5,80,127,1819330188
119,18,18,Jits_Linear_8,2,1,48,65,1819332860
119,18,18,Jits_Linear_8,3,5,63,98,1819446628
119,18,18,Jits_Linear_8,0,1,48,57,1820117036
119,18,18,Jits_Linear_8,1,5,56,103,1820206396
119,18,18,Jits_Linear_8,2,5,80,127,1820247440
119,18,18,Jits_Linear_8,3,5,63,98,1820256888
119,18,18,Jits_Linear_8,0,1,48,55,1820899856
119,18,18,Jits_Linear_8,1,5,56,103,1820967268
119,18,18,Jits_Linear_8,2,5,80,127,1820987052
119,18,18,Jits_Linear_8,3,5,63,98,1821066612
119,18,18,Jits_Linear_8,0,5,80,127,1821756988
119,18,18,Jits_Linear_8,1,1,48,57,1821787832
119,18,18,Jits_Linear_8,2,5,56,103,1821857084
119,18,18,Jits_Linear_8,3,5,63,98,1821867280
119,18,18,Jits_Linear_8,0,5,63,98,1822526944
119,18,18,Jits_Linear_8,1,5,80,127,1822587188
119,18,18,Jits_Linear_8,2,5,56,103,1822596412
119,18,18,Jits_Linear_8,3,1,48,57,1822612636
119,18,18,Jits_Linear_8,0,5,56,103,1823326768
119,18,18,Jits_Linear_8,1,1,48,49,1823366236
119,18,18,Jits_Linear_8,2,5,63,98,1823397196
119,18,18,Jits_Linear_8,3,5,80,127,1823400780
119,18,18,Jits_Linear_8,0,1,48,43,1824143940
119,18,18,Jits_Linear_8,1,5,63,98,1824157016
119,18,18,Jits_Linear_8,2,5,56,103,1824207216
119,18,18,Jits_Linear_8,3,5,80,127,1824210432
119,18,18,Jits_Linear_8,0,5,56,103,1824906716
119,18,18,Jits_Linear_8,1,5,80,127,1824909708
119,18,18,Jits_Linear_8,2,1,48,50,1824960324
119,18,18,Jits_Linear_8,3,5,63,98,1824996916
119,18,18,Jits_Linear_8,0,1,48,46,1825723956
119,18,18,Jits_Linear_8,1,5,63,98,1825737180
119,18,18,Jits_Linear_8,2,5,56,103,1825827252
119,18,18,Jits_Linear_8,3,5,80,127,1825856852
119,18,18,Jits_Linear_8,0,5,56,103,1826517316
119,18,18,Jits_Linear_8,1,1,48,51,1826567136
119,18,18,Jits_Linear_8,2,5,63,98,1826616764
119,18,18,Jits_Linear_8,3,5,80,127,1826647484
119,18,18,Jits_Linear_8,0,5,63,98,1827327232
119,18,18,Jits_Linear_8,1,5,56,103,1827336752
119,18,18,Jits_Linear_8,2,1,48,49,1827389620
119,18,18,Jits_Linear_8,3,5,80,127,1827426728
119,18,18,Jits_Linear_8,0,5,63,98,1828127064
119,18,18,Jits_Linear_8,1,1,48,38,1828179108
119,18,18,Jits_Linear_8,2,5,56,103,1828207004
119,18,18,Jits_Linear_8,3,5,80,127,1828210144
119,18,18,Jits_Linear_8,0,5,80,127,1828866580
119,18,18,Jits_Linear_8,1,5,63,98,1828886888
119,18,18,Jits_Linear_8,2,5,56,103,1828947280
119,18,18,Jits_Linear_8,3,1,48,47,1828980360
119,18,18,Jits_Linear_8,0,5,56,103,1829686944
119,18,18,Jits_Linear_8,1,5,63,98,1829707180
119,18,18,Jits_Linear_8,2,5,80,127,1829710320
119,18,18,Jits_Linear_8,3,1,48,42,1829731268
119,18,18,Jits_Linear_8,0,5,63,98,1830406616
119,18,18,Jits_Linear_8,1,5,80,127,1830487388
119,18,18,Jits_Linear_8,2,5,56,103,1830496684
119,18,18,Jits_Linear_8,3,1,48,27,1830517040
119,18,18,Jits_Linear_8,0,5,63,98,1831207268
119,18,18,Jits_Linear_8,1,5,56,103,1831226684
119,18,18,Jits_Linear_8,2,1,48,33,1831271076
119,18,18,Jits_Linear_8,3,5,80,127,1831276880
119,18,18,Jits_Linear_8,0,5,80,127,1831986640
119,18,18,Jits_Linear_8,1,1,48,29,1831999724
119,18,18,Jits_Linear_8,2,5,63,98,1832026572
119,18,18,Jits_Linear_8,3,5,56,103,1832046880
119,18,18,Jits_Linear_8,0,1,48,35,1832737668
119,18,18,Jits_Linear_8,1,5,56,103,1832796588
119,18,18,Jits_Linear_8,2,5,63,98,1832806632
119,18,18,Jits_Linear_8,3,5,80,127,1832827244
119,18,18,Jits_Linear_8,0,5,56,103,1833496920
119,18,18,Jits_Linear_8,1,1,48,46,1833554124
119,18,18,Jits_Linear_8,2,5,63,98,1833587048
119,18,18,Jits_Linear_8,3,5,80,127,1833646392
119,18,18,Jits_Linear_8,0,5,80,127,1834296612
119,18,18,Jits_Linear_8,1,5,56,103,1834307032
119,18,18,Jits_Linear_8,2,1,48,32,1834373228
119,18,18,Jits_Linear_8,3,5,63,98,1834376780
119,18,18,Jits_Linear_8,0,5,63,98,1835096384
119,18,18,Jits_Linear_8,1,1,48,35,1835118908
119,18,18,Jits_Linear_8,2,5,80,127,1835186664
119,18,18,Jits_Linear_8,3,5,56,103,1835196860
119,18,18,Jits_Linear_8,0,5,63,98,1835796800
119,18,18,Jits_Linear_8,1,5,80,127,1835847004
119,18,18,Jits_Linear_8,2,1,48,36,1835900988
119,18,18,Jits_Linear_8,3,5,56,103,1835906712
119,18,18,Jits_Linear_8,0,5,56,103,1836587400
119,18,18,Jits_Linear_8,1,5,80,127,1836636780
119,18,18,Jits_Linear_8,2,1,48,40,1836652560
119,18,18,Jits_Linear_8,3,5,63,98,1836656936
119,18,18,Jits_Linear_8,0,5,56,103,1837316520
119,18,18,Jits_Linear_8,1,1,48,33,1837345644
119,18,18,Jits_Linear_8,2,5,80,127,1837376760
119,18,18,Jits_Linear_8,3,5,63,98,1837446648
119,18,18,Jits_Linear_8,0,5,56,103,1838077476
119,18,18,Jits_Linear_8,1,5,80,127,1838106928
119,18,18,Jits_Linear_8,2,1,48,37,1838130724
119,18,18,Jits_Linear_8,3,5,63,98,1838136896
119,18,18,Jits_Linear_8,0,1,48,40,1838853676
119,18,18,Jits_Linear_8,1,5,56,103,1838877012
119,18,18,Jits_Linear_8,2,5,80,127,1838896800
119,18,18,Jits_Linear_8,3,5,63,98,1838956952
119,18,18,Jits_Linear_8,0,1,48,39,1839629164
119,18,18,Jits_Linear_8,1,5,80,127,1839716780
119,18,18,Jits_Linear_8,2,5,56,103,1839726888
119,18,18,Jits_Linear_8,3,5,63,98,1839737232
119,18,18,Jits_Linear_8,0,1,48,43,1840415156
119,18,18,Jits_Linear_8,1,5,56,103,1840427608
119,18,18,Jits_Linear_8,2,5,80,127,1840467400
119,18,18,Jits_Linear_8,3,5,63,98,1840497000
119,18,18,Jits_Linear_8,0,5,56,103,1841147136
119,18,18,Jits_Linear_8,1,5,63,98,1841176888
119,18,18,Jits_Linear_8,2,1,48,42,1841194832
119,18,18,Jits_Linear_8,3,5,80,127,1841216896
119,18,18,Jits_Linear_8,0,5,80,127,1841846716
119,18,18,Jits_Linear_8,1,5,63,98,1841896872
119,18,18,Jits_Linear_8,2,1,48,39,1841897836
119,18,18,Jits_Linear_8,3,5,56,103,1841917548
119,18,18,Jits_Linear_8,0,1,48,33,1842610260
119,18,18,Jits_Linear_8,1,5,56,103,1842626920
119,18,18,Jits_Linear_8,2,5,80,127,1842696556
119,18,18,Jits_Linear_8,3,5,63,98,1842756932
119,18,18,Jits_Linear_8,0,5,80,127,1843367572
119,18,18,Jits_Linear_8,1,1,48,43,1843392796
119,18,18,Jits_Linear_8,2,5,63,98,1843457508
119,18,18,Jits_Linear_8,3,5,56,103,1843476768
119,18,18,Jits_Linear_8,0,1,48,50,1844119888
119,18,18,Jits_Linear_8,1,5,63,98,1844127036
119,18,18,Jits_Linear_8,2,5,56,103,1844146744
119,18,18,Jits_Linear_8,3,5,80,127,1844186608
119,18,18,Jits_Linear_8,0,1,48,48,1844821864
119,18,18,Jits_Linear_8,1,5,80,127,1844826544
119,18,18,Jits_Linear_8,2,5,63,98,1844846932
119,18,18,Jits_Linear_8,3,5,56,103,1844926784
119,18,18,Jits_Linear_8,0,5,63,98,1845556552
119,18,18,Jits_Linear_8,1,1,48,48,1845605376
119,18,18,Jits_Linear_8,2,5,56,103,1845667280
119,18,18,Jits_Linear_8,3,5,80,127,1845670272
119,18,18,Jits_Linear_8,0,1,48,38,1846313544
119,18,18,Jits_Linear_8,1,5,63,98,1846317776
119,18,18,Jits_Linear_8,2,5,56,103,1846326544
119,18,18,Jits_Linear_8,3,5,80,127,1846329692
119,18,18,Jits_Linear_8,0,1,48,44,1847024968
119,18,18,Jits_Linear_8,1,5,56,103,1847037424
119,18,18,Jits_Linear_8,2,5,80,127,1847157288
119,18,18,Jits_Linear_8,3,5,63,98,1847197228
119,18,18,Jits_Linear_8,0,5,56,103,1847786844
119,18,18,Jits_Linear_8,1,1,48,45,1847825932
119,18,18,Jits_Linear_8,2,5,80,127,1847866712
119,18,18,Jits_Linear_8,3,5,63,98,1847887172
119,18,18,Jits_Linear_8,0,5,56,103,1848516988
119,18,18,Jits_Linear_8,1,1,48,43,1848608844
119,18,18,Jits_Linear_8,2,5,63,98,1848626396
119,18,18,Jits_Linear_8,3,5,80,127,1848629692
119,18,18,Jits_Linear_8,0,5,56,103,1849276824
119,18,18,Jits_Linear_8,1,5,80,127,1849306428
119,18,18,Jits_Linear_8,2,5,63,98,1849326836
119,18,18,Jits_Linear_8,3,1,48,36,1849342608
119,18,18,Jits_Linear_8,0,5,63,98,1849986540
119,18,18,Jits_Linear_8,1,5,56,103,1849996512
119,18,18,Jits_Linear_8,2,5,80,127,1850007008
119,18,18,Jits_Linear_8,3,1,48,45,1850090756
119,18,18,Jits_Linear_8,0,5,80,127,1850697204
119,18,18,Jits_Linear_8,1,5,56,103,1850747484
119,18,18,Jits_Linear_8,2,1,48,41,1850784460
119,18,18,Jits_Linear_8,3,5,63,98,1850787120
119,18,18,Jits_Linear_8,0,5,80,127,1851437564
119,18,18,Jits_Linear_8,1,5,63,98,1851456828
119,18,18,Jits_Linear_8,2,1,48,25,1851476880
119,18,18,Jits_Linear_8,3,5,56,103,1851506948
119,18,18,Jits_Linear_8,0,5,80,127,1852166460
119,18,18,Jits_Linear_8,1,5,56,103,1852197480
119,18,18,Jits_Linear_8,2,1,48,35,1852199776
119,18,18,Jits_Linear_8,3,5,63,98,1852267008
119,18,18,Jits_Linear_8,0,5,56,103,1852936488
119,18,18,Jits_Linear_8,1,1,48,29,1852937976
119,18,18,Jits_Linear_8,2,5,80,127,1852946828
119,18,18,Jits_Linear_8,3,5,63,98,1852986620
119,18,18,Jits_Linear_8,0,5,56,103,1853567512
119,18,18,Jits_Linear_8,1,5,63,98,1853586924
119,18,18,Jits_Linear_8,2,5,80,127,1853656384
119,18,18,Jits_Linear_8,3,1,48,29,1853673756
119,18,18,Jits_Linear_8,0,5,63,98,1854306600
119,18,18,Jits_Linear_8,1,1,48,34,1854354828
119,18,18,Jits_Linear_8,2,5,80,127,1854367208
119,18,18,Jits_Linear_8,3,5,56,103,1854386472
119,18,18,Jits_Linear_8,0,5,80,127,1855017492
119,18,18,Jits_Linear_8,1,5,56,103,1855047168
119,18,18,Jits_Linear_8,2,1,48,17,1855065580
119,18,18,Jits_Linear_8,3,5,63,98,1855076764
119,18,18,Jits_Linear_8,0,5,56,103,1855726908
119,18,18,Jits_Linear_8,1,1,48,19,1855747712
119,18,18,Jits_Linear_8,2,5,63,98,1855787372
119,18,18,Jits_Linear_8,3,5,80,127,1855846700
119,18,18,Jits_Linear_8,0,5,80,127,1856457356
119,18,18,Jits_Linear_8,1,5,56,103,1856476468
119,18,18,Jits_Linear_8,2,1,48,15,1856477660
119,18,18,Jits_Linear_8,3,5,63,98,1856547288
119,18,18,Jits_Linear_8,0,5,80,127,1857166772
119,18,18,Jits_Linear_8,1,5,63,98,1857187304
119,18,18,Jits_Linear_8,2,1,48,29,1857201288
119,18,18,Jits_Linear_8,3,5,56,103,1857216824
119,18,18,Jits_Linear_8,0,5,80,127,1857856856
119,18,18,Jits_Linear_8,1,5,63,98,1857877464
119,18,18,Jits_Linear_8,2,1,48,42,1857910324
119,18,18,Jits_Linear_8,3,5,56,103,1857936652
119,18,18,Jits_Linear_8,0,5,80,127,1858557276
119,18,18,Jits_Linear_8,1,1,48,44,1858622800
119,18,18,Jits_Linear_8,2,5,56,103,1858656476
119,18,18,Jits_Linear_8,3,5,63,98,1858687348
119,18,18,Jits_Linear_8,0,5,63,98,1859246672
119,18,18,Jits_Linear_8,1,5,80,127,1859296580
119,18,18,Jits_Linear_8,2,5,56,103,1859317212
119,18,18,Jits_Linear_8,3,1,48,41,1859385664
119,18,18,Jits_Linear_8,0,5,80,127,1859986716
119,18,18,Jits_Linear_8,1,5,56,103,1860016468
119,18,18,Jits_Linear_8,2,5,63,98,1860019532
119,18,18,Jits_Linear_8,3,1,48,32,1860024464
119,18,18,Jits_Linear_8,0,1,48,36,1860710024
119,18,18,Jits_Linear_8,1,5,63,98,1860716948
119,18,18,Jits_Linear_8,2,5,56,103,1860756816
119,18,18,Jits_Linear_8,3,5,80,127,1860777424
119,18,18,Jits_Linear_8,0,5,80,127,1861356912
119,18,18,Jits_Linear_8,1,1,48,38,1861421388
119,18,18,Jits_Linear_8,2,5,63,98,1861436852
119,18,18,Jits_Linear_8,3,5,56,103,1861476716
119,18,18,Jits_Linear_8,0,5,63,98,1862066532
119,18,18,Jits_Linear_8,1,1,48,35,1862142716
119,18,18,Jits_Linear_8,2,5,80,127,1862146352
119,18,18,Jits_Linear_8,3,5,56,103,1862166812
119,18,18,Jits_Linear_8,0,5,56,103,1862796772
119,18,18,Jits_Linear_8,1,5,63,98,1862807120
119,18,18,Jits_Linear_8,2,1,48,42,1862843720
119,18,18,Jits_Linear_8,3,5,80,127,1862846976
119,18,18,Jits_Linear_8,0,5,56,103,1863407216
119,18,18,Jits_Linear_8,1,5,80,127,1863410208
119,18,18,Jits_Linear_8,2,1,48,48,1863510796
119,18,18,Jits_Linear_8,3,5,63,98,1863547312
119,18,18,Jits_Linear_8,0,5,56,103,1864087004
119,18,18,Jits_Linear_8,1,1,48,41,1864156436
119,18,18,Jits_Linear_8,2,5,63,98,1864177084
119,18,18,Jits_Linear_8,3,5,80,127,1864246544
119,18,18,Jits_Linear_8,0,5,63,98,1864846700
119,18,18,Jits_Linear_8,1,1,48,40,1864847604
119,18,18,Jits_Linear_8,2,5,80,127,1864851324
119,18,18,Jits_Linear_8,3,5,56,103,1864907304
119,18,18,Jits_Linear_8,0,1,48,32,1865538448
119,18,18,Jits_Linear_8,1,5,80,127,1865566576
119,18,18,Jits_Linear_8,2,5,56,103,1865587404
119,18,18,Jits_Linear_8,3,5,63,98,1865597304
119,18,18,Jits_Linear_8,0,5,56,103,1866157360
119,18,18,Jits_Linear_8,1,5,63,98,1866166660
119,18,18,Jits_Linear_8,2,5,80,127,1866237188
119,18,18,Jits_Linear_8,3,1,48,29,1866261280
119,18,18,Jits_Linear_8,0,5,80,127,1866837408
119,18,18,Jits_Linear_8,1,1,48,29,1866879632
119,18,18,Jits_Linear_8,2,5,56,103,1866886480
119,18,18,Jits_Linear_8,3,5,63,98,1866936608
119,18,18,Jits_Linear_8,0,1,48,27,1867518244
119,18,18,Jits_Linear_8,1,5,56,103,1867597316
119,18,18,Jits_Linear_8,2,5,63,98,1867607364
119,18,18,Jits_Linear_8,3,5,80,127,1867647288
119,18,18,Jits_Linear_8,0,5,56,103,1868216656
119,18,18,Jits_Linear_8,1,1,48,47,1868219476
119,18,18,Jits_Linear_8,2,5,63,98,1868256588
119,18,18,Jits_Linear_8,3,5,80,127,1868306668
119,18,18,Jits_Linear_8,0,5,80,127,1868846436
119,18,18,Jits_Linear_8,1,5,56,103,1868896636
119,18,18,Jits_Linear_8,2,1,48,51,1868910844
119,18,18,Jits_Linear_8,3,5,63,98,1868917240
119,18,18,Jits_Linear_8,0,1,48,49,1869524532
119,18,18,Jits_Linear_8,1,5,80,127,1869527344
119,18,18,Jits_Linear_8,2,5,63,98,1869587160
119,18,18,Jits_Linear_8,3,5,56,103,1869666868
119,18,18,Jits_Linear_8,0,5,80,127,1870176744
119,18,18,Jits_Linear_8,1,1,48,46,1870201436
119,18,18,Jits_Linear_8,2,5,56,103,1870216600
119,18,18,Jits_Linear_8,3,5,63,98,1870237136
119,18,18,Jits_Linear_8,0,1,48,49,1870868440
119,18,18,Jits_Linear_8,1,5,56,103,1870896416
119,18,18,Jits_Linear_8,2,5,80,127,1870906612
119,18,18,Jits_Linear_8,3,5,63,98,1870946624
119,18,18,Jits_Linear_8,0,1,48,46,1871545832
119,18,18,Jits_Linear_8,1,5,56,103,1871626796
119,18,18,Jits_Linear_8,2,5,63,98,1871666644
119,18,18,Jits_Linear_8,3,5,80,127,1871670084
119,18,18,Jits_Linear_8,0,5,63,98,1872186860
119,18,18,Jits_Linear_8,1,5,80,127,1872226800
119,18,18,Jits_Linear_8,2,1,48,47,1872261008
119,18,18,Jits_Linear_8,3,5,56,103,1872297300
119,18,18,Jits_Linear_8,0,5,63,98,1872837124
119,18,18,Jits_Linear_8,1,5,56,103,1872917096
119,18,18,Jits_Linear_8,2,1,48,43,1872933544
119,18,18,Jits_Linear_8,3,5,80,127,1872977256
119,18,18,Jits_Linear_8,0,5,80,127,1873506668
119,18,18,Jits_Linear_8,1,5,63,98,1873556948
119,18,18,Jits_Linear_8,2,5,56,103,1873586476
119,18,18,Jits_Linear_8,3,1,48,35,1873594228
119,18,18,Jits_Linear_8,0,5,56,103,1874157192
119,18,18,Jits_Linear_8,1,5,63,98,1874207176
119,18,18,Jits_Linear_8,2,1,48,36,1874216016
119,18,18,Jits_Linear_8,3,5,80,127,1874217512
119,18,18,Jits_Linear_8,0,5,56,103,1874826580
119,18,18,Jits_Linear_8,1,1,48,40,1874828516
119,18,18,Jits_Linear_8,2,5,63,98,1874937320
119,18,18,Jits_Linear_8,3,5,80,127,1874956584
119,18,18,Jits_Linear_8,0,5,63,98,1875477104
119,18,18,Jits_Linear_8,1,5,80,127,1875526936
119,18,18,Jits_Linear_8,2,1,48,35,1875561744
119,18,18,Jits_Linear_8,3,5,56,103,1875617288
119,18,18,Jits_Linear_8,0,5,63,98,1876117108
119,18,18,Jits_Linear_8,1,5,80,127,1876146484
119,18,18,Jits_Linear_8,2,1,48,30,1876199452
119,18,18,Jits_Linear_8,3,5,56,103,1876236636
119,18,18,Jits_Linear_8,0,5,63,98,1876766948
119,18,18,Jits_Linear_8,1,5,56,103,1876777292
119,18,18,Jits_Linear_8,2,1,48,34,1876826716
119,18,18,Jits_Linear_8,3,5,80,127,1876876712
119,18,18,Jits_Linear_8,0,1,48,18,1877483948
119,18,18,Jits_Linear_8,1,5,63,98,1877516800
119,18,18,Jits_Linear_8,2,5,80,127,1877547376
119,18,18,Jits_Linear_8,3,5,56,103,1877578084
119,18,18,Jits_Linear_8,0,1,48,46,1878175232
119,18,18,Jits_Linear_8,1,5,80,127,1878177044
119,18,18,Jits_Linear_8,2,5,63,98,1878187464
119,18,18,Jits_Linear_8,3,5,56,103,1878217064
119,18,18,Jits_Linear_8,0,5,80,127,1878716888
119,18,18,Jits_Linear_8,1,5,63,98,1878737200
119,18,18,Jits_Linear_8,2,5,56,103,1878786380
119,18,18,Jits_Linear_8,3,1,48,42,1878836024
119,18,18,Jits_Linear_8,0,5,63,98,1879386376
119,18,18,Jits_Linear_8,1,1,48,40,1879415272
119,18,18,Jits_Linear_8,2,5,80,127,1879446836
119,18,18,Jits_Linear_8,3,5,56,103,1879467444
119,18,18,Jits_Linear_8,0,5,63,98,1879986444
119,18,18,Jits_Linear_8,1,5,56,103,1880036748
119,18,18,Jits_Linear_8,2,1,48,49,1880044500
119,18,18,Jits_Linear_8,3,5,80,127,1880047160
119,18,18,Jits_Linear_8,0,1,48,46,1880646588
119,18,18,Jits_Linear_8,1,5,56,103,1880657252
119,18,18,Jits_Linear_8,2,5,80,127,1880666552
119,18,18,Jits_Linear_8,3,5,63,98,1880766936
119,18,18,Jits_Linear_8,0,5,80,127,1881257328
119,18,18,Jits_Linear_8,1,5,63,98,1881266628
119,18,18,Jits_Linear_8,2,1,48,50,1881278816
119,18,18,Jits_Linear_8,3,5,56,103,1881417072
119,18,18,Jits_Linear_8,0,5,63,98,1881897368
119,18,18,Jits_Linear_8,1,1,48,44,1881914884
119,18,18,Jits_Linear_8,2,5,80,127,1881937228
119,18,18,Jits_Linear_8,3,5,56,103,1882017008
119,18,18,Jits_Linear_8,0,5,56,103,1882516844
119,18,18,Jits_Linear_8,1,1,48,34,1882550676
119,18,18,Jits_Linear_8,2,5,80,127,1882617188
119,18,18,Jits_Linear_8,3,5,63,98,1882636600
119,18,18,Jits_Linear_8,0,1,48,33,1883160744
119,18,18,Jits_Linear_8,1,5,80,127,1883207004
119,18,18,Jits_Linear_8,2,5,56,103,1883217348
119,18,18,Jits_Linear_8,3,5,63,98,1883307468
119,18,18,Jits_Linear_8,0,1,48,31,1883825936
119,18,18,Jits_Linear_8,1,5,56,103,1883836820
119,18,18,Jits_Linear_8,2,5,63,98,1883857208
119,18,18,Jits_Linear_8,3,5,80,127,1883937012
119,18,18,Jits_Linear_8,0,5,63,98,1884407184
119,18,18,Jits_Linear_8,1,1,48,52,1884490840
119,18,18,Jits_Linear_8,2,5,56,103,1884497312
119,18,18,Jits_Linear_8,3,5,80,127,1884500300
119,18,18,Jits_Linear_8,0,5,56,103,1885057364
119,18,18,Jits_Linear_8,1,1,48,53,1885114116
119,18,18,Jits_Linear_8,2,5,80,127,1885117000
119,18,18,Jits_Linear_8,3,5,63,98,1885126900
119,18,18,Jits_Linear_8,0,1,48,50,1885709052
119,18,18,Jits_Linear_8,1,5,80,127,1885727064
119,18,18,Jits_Linear_8,2,5,56,103,1885737408
119,18,18,Jits_Linear_8,3,5,63,98,1885740400
119,18,18,Jits_Linear_8,0,5,56,103,1886306900
119,18,18,Jits_Linear_8,1,5,80,127,1886316948
119,18,18,Jits_Linear_8,2,5,63,98,1886337336
119,18,18,Jits_Linear_8,3,1,48,45,1886352660
119,18,18,Jits_Linear_8,0,5,63,98,1886896720
119,18,18,Jits_Linear_8,1,1,48,52,1886945624
119,18,18,Jits_Linear_8,2,5,80,127,1886956832
119,18,18,Jits_Linear_8,3,5,56,103,1887006960
119,18,18,Jits_Linear_8,0,1,48,48,1887579272
119,18,18,Jits_Linear_8,1,5,63,98,1887596980
119,18,18,Jits_Linear_8,2,5,56,103,1887607252
119,18,18,Jits_Linear_8,3,5,80,127,1887657228
119,18,18,Jits_Linear_8,0,5,63,98,1888106852
119,18,18,Jits_Linear_8,1,5,80,127,1888127240
119,18,18,Jits_Linear_8,2,5,56,103,1888136684
119,18,18,Jits_Linear_8,3,1,48,48,1888219660
119,18,18,Jits_Linear_8,0,5,63,98,1888717100
119,18,18,Jits_Linear_8,1,5,80,127,1888720312
119,18,18,Jits_Linear_8,2,5,56,103,1888756988
119,18,18,Jits_Linear_8,3,1,48,47,1888821684
119,18,18,Jits_Linear_8,0,5,63,98,1889397120
119,18,18,Jits_Linear_8,1,1,48,43,1889424056
119,18,18,Jits_Linear_8,2,5,80,127,1889426936
119,18,18,Jits_Linear_8,3,5,56,103,1889436984
119,18,18,Jits_Linear_8,0,5,56,103,1889957180
119,18,18,Jits_Linear_8,1,5,80,127,1889986784
119,18,18,Jits_Linear_8,2,5,63,98,1890016684
119,18,18,Jits_Linear_8,3,1,48,44,1890026124
119,18,18,Jits_Linear_8,0,1,48,45,1890583312
119,18,18,Jits_Linear_8,1,5,63,98,1890656704
119,18,18,Jits_Linear_8,2,5,56,103,1890696848
119,18,18,Jits_Linear_8,3,5,80,127,1890699768
119,18,18,Jits_Linear_8,0,5,80,127,1891157728
119,18,18,Jits_Linear_8,1,5,56,103,1891237228
119,18,18,Jits_Linear_8,2,1,48,46,1891274900
119,18,18,Jits_Linear_8,3,5,63,98,1891287276
119,18,18,Jits_Linear_8,0,5,80,127,1891736916
119,18,18,Jits_Linear_8,1,5,56,103,1891757376
119,18,18,Jits_Linear_8,2,1,48,47,1891831684
119,18,18,Jits_Linear_8,3,5,63,98,1891846628
119,18,18,Jits_Linear_8,0,5,80,127,1892376956
119,18,18,Jits_Linear_8,1,1,48,46,1892389144
119,18,18,Jits_Linear_8,2,5,63,98,1892416892
119,18,18,Jits_Linear_8,3,5,56,103,1892456756
119,18,18,Jits_Linear_8,0,5,63,98,1892947444
119,18,18,Jits_Linear_8,1,1,48,49,1893000464
119,18,18,Jits_Linear_8,2,5,80,127,1893006860
119,18,18,Jits_Linear_8,3,5,56,103,1893037284
119,18,18,Jits_Linear_8,0,5,56,103,1893547512
119,18,18,Jits_Linear_8,1,5,80,127,1893576964
119,18,18,Jits_Linear_8,2,1,48,46,1893597320
119,18,18,Jits_Linear_8,3,5,63,98,1893667116
119,18,18,Jits_Linear_8,0,5,56,103,1894146576
119,18,18,Jits_Linear_8,1,1,48,45,1894194192
119,18,18,Jits_Linear_8,2,5,80,127,1894257080
119,18,18,Jits_Linear_8,3,5,63,98,1894286608
119,18,18,Jits_Linear_8,0,5,56,103,1894786600
119,18,18,Jits_Linear_8,1,1,48,49,1894827704
119,18,18,Jits_Linear_8,2,5,63,98,1894846688
119,18,18,Jits_Linear_8,3,5,80,127,1894876884
119,18,18,Jits_Linear_8,0,5,56,103,1895346680
119,18,18,Jits_Linear_8,1,5,63,98,1895417216
119,18,18,Jits_Linear_8,2,5,80,127,1895436924
119,18,18,Jits_Linear_8,3,1,48,49,1895447460
119,18,18,Jits_Linear_8,0,5,80,127,1895906560
119,18,18,Jits_Linear_8,1,5,63,98,1895927096
119,18,18,Jits_Linear_8,2,5,56,103,1895977448
119,18,18,Jits_Linear_8,3,1,48,48,1896033148
119,18,18,Jits_Linear_8,0,5,63,98,1896506720
119,18,18,Jits_Linear_8,1,5,80,127,1896516844
119,18,18,Jits_Linear_8,2,1,48,41,1896563932
119,18,18,Jits_Linear_8,3,5,56,103,1896567112
119,18,18,Jits_Linear_8,0,1,48,46,1897087084
119,18,18,Jits_Linear_8,1,5,63,98,1897088496
119,18,18,Jits_Linear_8,2,5,80,127,1897156912
119,18,18,Jits_Linear_8,3,5,56,103,1897176396
119,18,18,Jits_Linear_8,0,1,48,46,1897677460
119,18,18,Jits_Linear_8,1,5,63,98,1897696812
119,18,18,Jits_Linear_8,2,5,80,127,1897700052
119,18,18,Jits_Linear_8,3,5,56,103,1897767192
119,18,18,Jits_Linear_8,0,5,80,127,1898227004
119,18,18,Jits_Linear_8,1,5,56,103,1898246640
119,18,18,Jits_Linear_8,2,5,63,98,1898256836
119,18,18,Jits_Linear_8,3,1,48,53,1898277636
119,18,18,Jits_Linear_8,0,1,48,49,1898820152
119,18,18,Jits_Linear_8,1,5,56,103,1898827076
119,18,18,Jits_Linear_8,2,5,63,98,1898917116
119,18,18,Jits_Linear_8,3,5,80,127,1898920780
119,18,18,Jits_Linear_8,0,5,80,127,1899376948
119,18,18,Jits_Linear_8,1,5,56,103,1899387144
119,18,18,Jits_Linear_8,2,5,63,98,1899406632
119,18,18,Jits_Linear_8,3,1,48,51,1899428404
119,18,18,Jits_Linear_8,0,5,63,98,1899947504
119,18,18,Jits_Linear_8,1,1,48,46,1899967640
119,18,18,Jits_Linear_8,2,5,80,127,1900006868
119,18,18,Jits_Linear_8,3,5,56,103,1900016992
119,18,18,Jits_Linear_8,0,1,48,51,1900545624
119,18,18,Jits_Linear_8,1,5,63,98,1900587452
119,18,18,Jits_Linear_8,2,5,80,127,1900617056
119,18,18,Jits_Linear_8,3,5,56,103,1900656980
119,18,18,Jits_Linear_8,0,5,56,103,1901146848
119,18,18,Jits_Linear_8,1,1,48,50,1901156672
119,18,18,Jits_Linear_8,2,5,80,127,1901158084
119,18,18,Jits_Linear_8,3,5,63,98,1901196828
119,18,18,Jits_Linear_8,0,5,80,127,1901676812
119,18,18,Jits_Linear_8,1,1,48,51,1901734164
119,18,18,Jits_Linear_8,2,5,56,103,1901756824
119,18,18,Jits_Linear_8,3,5,63,98,1901766948
119,18,18,Jits_Linear_8,0,5,80,127,1902287088
119,18,18,Jits_Linear_8,1,1,48,44,1902334204
119,18,18,Jits_Linear_8,2,5,56,103,1902367200
119,18,18,Jits_Linear_8,3,5,63,98,1902377620
119,18,18,Jits_Linear_8,0,5,80,127,1902807684
119,18,18,Jits_Linear_8,1,5,56,103,1902856640
119,18,18,Jits_Linear_8,2,5,63,98,1902906696
119,18,18,Jits_Linear_8,3,1,48,49,1902914448
119,18,18,Jits_Linear_8,0,5,56,103,1903426900
119,18,18,Jits_Linear_8,1,5,63,98,1903429892
119,18,18,Jits_Linear_8,2,1,48,39,1903475212
119,18,18,Jits_Linear_8,3,5,80,127,1903477168
119,18,18,Jits_Linear_8,0,5,56,103,1904006532
119,18,18,Jits_Linear_8,1,1,48,46,1904029804
119,18,18,Jits_Linear_8,2,5,63,98,1904037620
119,18,18,Jits_Linear_8,3,5,80,127,1904046544
119,18,18,Jits_Linear_8,0,5,63,98,1904476632
119,18,18,Jits_Linear_8,1,5,56,103,1904547064
119,18,18,Jits_Linear_8,2,1,48,47,1904573324
119,18,18,Jits_Linear_8,3,5,80,127,1904597480
119,18,18,Jits_Linear_8,0,5,63,98,1905067488
119,18,18,Jits_Linear_8,1,5,56,103,1905076708
119,18,18,Jits_Linear_8,2,5,80,127,1905079776
119,18,18,Jits_Linear_8,3,1,48,43,1905118784
119,18,18,Jits_Linear_8,0,5,80,127,1905567152
119,18,18,Jits_Linear_8,1,5,56,103,1905626424
119,18,18,Jits_Linear_8,2,1,48,47,1905653456
119,18,18,Jits_Linear_8,3,5,63,98,1905716724
119,18,18,Jits_Linear_8,0,5,80,127,1906117116
119,18,18,Jits_Linear_8,1,5,56,103,1906217468
119,18,18,Jits_Linear_8,2,5,63,98,1906257332
119,18,18,Jits_Linear_8,3,1,48,43,1906263964
119,18,18,Jits_Linear_8,0,5,56,103,1906717080
119,18,18,Jits_Linear_8,1,5,63,98,1906736496
119,18,18,Jits_Linear_8,2,5,80,127,1906776804
119,18,18,Jits_Linear_8,3,1,48,49,1906824956
119,18,18,Jits_Linear_8,0,5,63,98,1907237596
119,18,18,Jits_Linear_8,1,5,56,103,1907256564
119,18,18,Jits_Linear_8,2,5,80,127,1907357036
119,18,18,Jits_Linear_8,3,1,48,50,1907387200
119,18,18,Jits_Linear_8,0,5,63,98,1907766648
119,18,18,Jits_Linear_8,1,5,80,127,1907877460
119,18,18,Jits_Linear_8,2,5,56,103,1907906912
119,18,18,Jits_Linear_8,3,1,48,49,1907929508
119,18,18,Jits_Linear_8,0,5,56,103,1908326636
119,18,18,Jits_Linear_8,1,5,63,98,1908356460
119,18,18,Jits_Linear_8,2,5,80,127,1908406588
119,18,18,Jits_Linear_8,3,1,48,48,1908440568
119,18,18,Jits_Linear_8,0,5,63,98,1908836664
119,18,18,Jits_Linear_8,1,5,56,103,1908866564
119,18,18,Jits_Linear_8,2,5,80,127,1908916764
119,18,18,Jits_Linear_8,3,1,48,49,1908956144
119,18,18,Jits_Linear_8,0,5,56,103,1909407132
119,18,18,Jits_Linear_8,1,5,63,98,1909426544
119,18,18,Jits_Linear_8,2,1,48,51,1909460304
119,18,18,Jits_Linear_8,3,5,80,127,1909506508
119,18,18,Jits_Linear_8,0,5,63,98,1909917152
119,18,18,Jits_Linear_8,1,5,56,103,1909976648
119,18,18,Jits_Linear_8,2,1,48,51,1909979768
119,18,18,Jits_Linear_8,3,5,80,127,1910007016
119,18,18,Jits_Linear_8,0,5,56,103,1910496696
119,18,18,Jits_Linear_8,1,1,48,51,1910499840
119,18,18,Jits_Linear_8,2,5,80,127,1910556956
119,18,18,Jits_Linear_8,3,5,63,98,1910597104
119,18,18,Jits_Linear_8,0,5,63,98,1911006580
119,18,18,Jits_Linear_8,1,1,48,55,1911060896
119,18,18,Jits_Linear_8,2,5,56,103,1911066844
119,18,18,Jits_Linear_8,3,5,80,127,1911136600
119,18,18,Jits_Linear_8,0,1,48,54,1911605232
119,18,18,Jits_Linear_8,1,5,56,103,1911616868
119,18,18,Jits_Linear_8,2,5,63,98,1911627060
119,18,18,Jits_Linear_8,3,5,80,127,1911630648
119,18,18,Jits_Linear_8,0,5,63,98,1912086804
119,18,18,Jits_Linear_8,1,5,56,103,1912147416
119,18,18,Jits_Linear_8,2,5,80,127,1912150332
119,18,18,Jits_Linear_8,3,1,48,55,1912157212
119,18,18,Jits_Linear_8,0,5,63,98,1912596960
119,18,18,Jits_Linear_8,1,5,80,127,1912626636
119,18,18,Jits_Linear_8,2,5,56,103,1912647020
119,18,18,Jits_Linear_8,3,1,48,51,1912722276
119,18,18,Jits_Linear_8,0,5,56,103,1913127644
119,18,18,Jits_Linear_8,1,5,63,98,1913176432
119,18,18,Jits_Linear_8,2,1,48,47,1913218732
119,18,18,Jits_Linear_8,3,5,80,127,1913257640
119,18,18,Jits_Linear_8,0,5,80,127,1913627120
119,18,18,Jits_Linear_8,1,5,63,98,1913666912
119,18,18,Jits_Linear_8,2,5,56,103,1913687516
119,18,18,Jits_Linear_8,3,1,48,43,1913718656
119,18,18,Jits_Linear_8,0,1,48,46,1914203640
119,18,18,Jits_Linear_8,1,5,56,103,1914216712
119,18,18,Jits_Linear_8,2,5,80,127,1914226984
119,18,18,Jits_Linear_8,3,5,63,98,1914246472
119,18,18,Jits_Linear_8,0,1,48,48,1914700028
119,18,18,Jits_Linear_8,1,5,56,103,1914716468
119,18,18,Jits_Linear_8,2,5,63,98,1914766672
119,18,18,Jits_Linear_8,3,5,80,127,1914797396
119,18,18,Jits_Linear_8,0,5,56,103,1915186412
119,18,18,Jits_Linear_8,1,5,63,98,1915196908
119,18,18,Jits_Linear_8,2,5,80,127,1915247180
119,18,18,Jits_Linear_8,3,1,48,37,1915271352
119,18,18,Jits_Linear_8,0,5,56,103,1915696436
119,18,18,Jits_Linear_8,1,5,80,127,1915699576
119,18,18,Jits_Linear_8,2,1,48,45,1915742480
119,18,18,Jits_Linear_8,3,5,63,98,1915857416
119,18,18,Jits_Linear_8,0,5,63,98,1916227060
119,18,18,Jits_Linear_8,1,1,48,42,1916287724
119,18,18,Jits_Linear_8,2,5,56,103,1916296592
119,18,18,Jits_Linear_8,3,5,80,127,1916336456
119,18,18,Jits_Linear_8,0,5,63,98,1916776868
119,18,18,Jits_Linear_8,1,1,48,48,1916843140
119,18,18,Jits_Linear_8,2,5,56,103,1916866920
119,18,18,Jits_Linear_8,3,5,80,127,1916869984
119,18,18,Jits_Linear_8,0,5,56,103,1917267476
119,18,18,Jits_Linear_8,1,5,63,98,1917357316
119,18,18,Jits_Linear_8,2,5,80,127,1917366764
119,18,18,Jits_Linear_8,3,1,48,41,1917402244
119,18,18,Jits_Linear_8,0,5,56,103,1917746496
119,18,18,Jits_Linear_8,1,5,63,98,1917796700
119,18,18,Jits_Linear_8,2,5,80,127,1917826452
119,18,18,Jits_Linear_8,3,1,48,42,1917910772
119,18,18,Jits_Linear_8,0,5,63,98,1918327480
119,18,18,Jits_Linear_8,1,5,80,127,1918337380
119,18,18,Jits_Linear_8,2,1,48,39,1918375568
119,18,18,Jits_Linear_8,3,5,56,103,1918396716
119,18,18,Jits_Linear_8,0,5,63,98,1918747072
119,18,18,Jits_Linear_8,1,5,80,127,1918807468
119,18,18,Jits_Linear_8,2,5,56,103,1918847332
119,18,18,Jits_Linear_8,3,1,48,40,1918884996
119,18,18,Jits_Linear_8,0,5,56,103,1919347148
119,18,18,Jits_Linear_8,1,5,80,127,1919366488
119,18,18,Jits_Linear_8,2,1,48,48,1919369904
119,18,18,Jits_Linear_8,3,5,63,98,1919387016
119,18,18,Jits_Linear_8,0,5,63,98,1919766836
119,18,18,Jits_Linear_8,1,5,56,103,1919787520
119,18,18,Jits_Linear_8,2,5,80,127,1919827532
119,18,18,Jits_Linear_8,3,1,48,46,1919859120
119,18,18,Jits_Linear_8,0,5,63,98,1920276780
119,18,18,Jits_Linear_8,1,5,80,127,1920306528
119,18,18,Jits_Linear_8,2,5,56,103,1920326988
119,18,18,Jits_Linear_8,3,1,48,53,1920358652
119,18,18,Jits_Linear_8,0,5,80,127,1920746856
119,18,18,Jits_Linear_8,1,5,56,103,1920796988
119,18,18,Jits_Linear_8,2,1,48,48,1920851124
119,18,18,Jits_Linear_8,3,5,63,98,1920856400
119,18,18,Jits_Linear_8,0,5,63,98,1921227340
119,18,18,Jits_Linear_8,1,1,48,53,1921338824
119,18,18,Jits_Linear_8,2,5,56,103,1921347016
119,18,18,Jits_Linear_8,3,5,80,127,1921376692
119,18,18,Jits_Linear_8,0,5,80,127,1921756472
119,18,18,Jits_Linear_8,1,5,63,98,1921777104
119,18,18,Jits_Linear_8,2,5,56,103,1921846564
119,18,18,Jits_Linear_8,3,1,48,52,1921853868
119,18,18,Jits_Linear_8,0,5,63,98,1922266356
119,18,18,Jits_Linear_8,1,5,56,103,1922276580
119,18,18,Jits_Linear_8,2,1,48,52,1922331084
119,18,18,Jits_Linear_8,3,5,80,127,1922356588
119,18,18,Jits_Linear_8,0,5,56,103,1922817524
119,18,18,Jits_Linear_8,1,1,48,54,1922832704
119,18,18,Jits_Linear_8,2,5,80,127,1922847196
119,18,18,Jits_Linear_8,3,5,63,98,1922857316
119,18,18,Jits_Linear_8,0,9999,9999,9999,1812464760
119,18,18,Jits_Linear_8,1,9999,9999,9999,1813284920
119,18,18,Jits_Linear_8,2,9999,9999,9999,1814104180
119,18,18,Jits_Linear_8,3,9999,9999,9999,1814924404
119,18,18,Jits_Linear_8,4,9999,9999,9999,1815744616
119,18,18,Jits_Linear_8,5,9999,9999,9999,1816554592
119,18,18,Jits_Linear_8,6,9999,9999,9999,1817364604
119,18,18,Jits_Linear_8,7,9999,9999,9999,1818174564
119,18,18,Jits_Linear_8,8,9999,9999,9999,1818984512
119,18,18,Jits_Linear_8,9,9999,9999,9999,1819794520
119,18,18,Jits_Linear_8,10,9999,9999,9999,1820594292
119,18,18,Jits_Linear_8,11,9999,9999,9999,1821395024
119,18,18,Jits_Linear_8,12,9999,9999,9999,1822194804
119,18,18,Jits_Linear_8,13,9999,9999,9999,1822994496
119,18,18,Jits_Linear_8,14,9999,9999,9999,1823794240
119,18,18,Jits_Linear_8,15,9999,9999,9999,1824584784
119,18,18,Jits_Linear_8,16,9999,9999,9999,1825374332
119,18,18,Jits_Linear_8,17,9999,9999,9999,1826164812
119,18,18,Jits_Linear_8,18,9999,9999,9999,1826954308
119,18,18,Jits_Linear_8,19,9999,9999,9999,1827744864
119,18,18,Jits_Linear_8,20,9999,9999,9999,1828524092
119,18,18,Jits_Linear_8,21,9999,9999,9999,1829304440
119,18,18,Jits_Linear_8,22,9999,9999,9999,1830084716
119,18,18,Jits_Linear_8,23,9999,9999,9999,1830865008
119,18,18,Jits_Linear_8,24,9999,9999,9999,1831644232
119,18,18,Jits_Linear_8,25,9999,9999,9999,1832414312
119,18,18,Jits_Linear_8,26,9999,9999,9999,1833184332
119,18,18,Jits_Linear_8,27,9999,9999,9999,1833954416
119,18,18,Jits_Linear_8,28,9999,9999,9999,1834724432
119,18,18,Jits_Linear_8,29,9999,9999,9999,1835494496
119,18,18,Jits_Linear_8,30,9999,9999,9999,1836254288
119,18,18,Jits_Linear_8,31,9999,9999,9999,1837014100
119,18,18,Jits_Linear_8,32,9999,9999,9999,1837774908
119,18,18,Jits_Linear_8,33,9999,9999,9999,1838534740
119,18,18,Jits_Linear_8,34,9999,9999,9999,1839294580
119,18,18,Jits_Linear_8,35,9999,9999,9999,1840044148
119,18,18,Jits_Linear_8,36,9999,9999,9999,1840794688
119,18,18,Jits_Linear_8,37,9999,9999,9999,1841544248
119,18,18,Jits_Linear_8,38,9999,9999,9999,1842294864
119,18,18,Jits_Linear_8,39,9999,9999,9999,1843044444
119,18,18,Jits_Linear_8,40,9999,9999,9999,1843784792
119,18,18,Jits_Linear_8,41,9999,9999,9999,1844524100
119,18,18,Jits_Linear_8,42,9999,9999,9999,1845264512
119,18,18,Jits_Linear_8,43,9999,9999,9999,1846004844
119,18,18,Jits_Linear_8,44,9999,9999,9999,1846744168
119,18,18,Jits_Linear_8,45,9999,9999,9999,1847474252
119,18,18,Jits_Linear_8,46,9999,9999,9999,1848204408
119,18,18,Jits_Linear_8,47,9999,9999,9999,1848934496
119,18,18,Jits_Linear_8,48,9999,9999,9999,1849664592
119,18,18,Jits_Linear_8,49,9999,9999,9999,1850394680
119,18,18,Jits_Linear_8,50,9999,9999,9999,1851114568
119,18,18,Jits_Linear_8,51,9999,9999,9999,1851834448
119,18,18,Jits_Linear_8,52,9999,9999,9999,1852554356
119,18,18,Jits_Linear_8,53,9999,9999,9999,1853274192
119,18,18,Jits_Linear_8,54,9999,9999,9999,1853995136
119,18,18,Jits_Linear_8,55,9999,9999,9999,1854714964
119,18,18,Jits_Linear_8,56,9999,9999,9999,1855424640
119,18,18,Jits_Linear_8,57,9999,9999,9999,1856134208
119,18,18,Jits_Linear_8,58,9999,9999,9999,1856844900
119,18,18,Jits_Linear_8,59,9999,9999,9999,1857554536
119,18,18,Jits_Linear_8,60,9999,9999,9999,1858254936
119,18,18,Jits_Linear_8,61,9999,9999,9999,1858954320
119,18,18,Jits_Linear_8,62,9999,9999,9999,1859654744
119,18,18,Jits_Linear_8,63,9999,9999,9999,1860354172
119,18,18,Jits_Linear_8,64,9999,9999,9999,1861054580
119,18,18,Jits_Linear_8,65,9999,9999,9999,1861744732
119,18,18,Jits_Linear_8,66,9999,9999,9999,1862434900
119,18,18,Jits_Linear_8,67,9999,9999,9999,1863125104
119,18,18,Jits_Linear_8,68,9999,9999,9999,1863814212
119,18,18,Jits_Linear_8,69,9999,9999,9999,1864504448
119,18,18,Jits_Linear_8,70,9999,9999,9999,1865184316
119,18,18,Jits_Linear_8,71,9999,9999,9999,1865864276
119,18,18,Jits_Linear_8,72,9999,9999,9999,1866544228
119,18,18,Jits_Linear_8,73,9999,9999,9999,1867224176
119,18,18,Jits_Linear_8,74,9999,9999,9999,1867904084
119,18,18,Jits_Linear_8,75,9999,9999,9999,1868574832
119,18,18,Jits_Linear_8,76,9999,9999,9999,1869244516
119,18,18,Jits_Linear_8,77,9999,9999,9999,1869914224
119,18,18,Jits_Linear_8,78,9999,9999,9999,1870584888
119,18,18,Jits_Linear_8,79,9999,9999,9999,1871254644
119,18,18,Jits_Linear_8,80,9999,9999,9999,1871915124
119,18,18,Jits_Linear_8,81,9999,9999,9999,1872584796
119,18,18,Jits_Linear_8,82,9999,9999,9999,1873244224
119,18,18,Jits_Linear_8,83,9999,9999,9999,1873904700
119,18,18,Jits_Linear_8,84,9999,9999,9999,1874564192
119,18,18,Jits_Linear_8,85,9999,9999,9999,1875214428
119,18,18,Jits_Linear_8,86,9999,9999,9999,1875864632
119,18,18,Jits_Linear_8,87,9999,9999,9999,1876514916
119,18,18,Jits_Linear_8,88,9999,9999,9999,1877164132
119,18,18,Jits_Linear_8,89,9999,9999,9999,1877814360
119,18,18,Jits_Linear_8,90,9999,9999,9999,1878454372
119,18,18,Jits_Linear_8,91,9999,9999,9999,1879094392
119,18,18,Jits_Linear_8,92,9999,9999,9999,1879734340
119,18,18,Jits_Linear_8,93,9999,9999,9999,1880374360
119,18,18,Jits_Linear_8,94,9999,9999,9999,1881014364
119,18,18,Jits_Linear_8,95,9999,9999,9999,1881644128
119,18,18,Jits_Linear_8,96,9999,9999,9999,1882274928
119,18,18,Jits_Linear_8,97,9999,9999,9999,1882904692
119,18,18,Jits_Linear_8,98,9999,9999,9999,1883534448
119,18,18,Jits_Linear_8,99,9999,9999,9999,1884164216
119,18,18,Jits_Linear_8,100,9999,9999,9999,1884784732
119,18,18,Jits_Linear_8,101,9999,9999,9999,1885404284
119,18,18,Jits_Linear_8,102,9999,9999,9999,1886024828
119,18,18,Jits_Linear_8,103,9999,9999,9999,1886644300
119,18,18,Jits_Linear_8,104,9999,9999,9999,1887264864
119,18,18,Jits_Linear_8,105,9999,9999,9999,1887874156
119,18,18,Jits_Linear_8,106,9999,9999,9999,1888484428
119,18,18,Jits_Linear_8,107,9999,9999,9999,1889094740
119,18,18,Jits_Linear_8,108,9999,9999,9999,1889705076
119,18,18,Jits_Linear_8,109,9999,9999,9999,1890314308
119,18,18,Jits_Linear_8,110,9999,9999,9999,1890914396
119,18,18,Jits_Linear_8,111,9999,9999,9999,1891514468
119,18,18,Jits_Linear_8,112,9999,9999,9999,1892114500
119,18,18,Jits_Linear_8,113,9999,9999,9999,1892714584
119,18,18,Jits_Linear_8,114,9999,9999,9999,1893314664
119,18,18,Jits_Linear_8,115,9999,9999,9999,1893904496
119,18,18,Jits_Linear_8,116,9999,9999,9999,1894494320
119,18,18,Jits_Linear_8,117,9999,9999,9999,1895084152
119,18,18,Jits_Linear_8,118,9999,9999,9999,1895674972
119,18,18,Jits_Linear_8,119,9999,9999,9999,1896264788
119,18,18,Jits_Linear_8,120,9999,9999,9999,1896844344
119,18,18,Jits_Linear_8,121,9999,9999,9999,1897425012
119,18,18,Jits_Linear_8,122,9999,9999,9999,1898004572
119,18,18,Jits_Linear_8,123,9999,9999,9999,1898584180
119,18,18,Jits_Linear_8,124,9999,9999,9999,1899164776
119,18,18,Jits_Linear_8,125,9999,9999,9999,1899734124
119,18,18,Jits_Linear_8,126,9999,9999,9999,1900304488
119,18,18,Jits_Linear_8,127,9999,9999,9999,1900874820
119,18,18,Jits_Linear_8,128,9999,9999,9999,1901444172
119,18,18,Jits_Linear_8,129,9999,9999,9999,1902014588
119,18,18,Jits_Linear_8,130,9999,9999,9999,1902574696
119,18,18,Jits_Linear_8,131,9999,9999,9999,1903134776
119,18,18,Jits_Linear_8,132,9999,9999,9999,1903694920
119,18,18,Jits_Linear_8,133,9999,9999,9999,1904255080
119,18,18,Jits_Linear_8,134,9999,9999,9999,1904814188
119,18,18,Jits_Linear_8,135,9999,9999,9999,1905365100
119,18,18,Jits_Linear_8,136,9999,9999,9999,1905914996
119,18,18,Jits_Linear_8,137,9999,9999,9999,1906464888
119,18,18,Jits_Linear_8,138,9999,9999,9999,1907014776
119,18,18,Jits_Linear_8,139,9999,9999,9999,1907564664
119,18,18,Jits_Linear_8,140,9999,9999,9999,1908104276
119,18,18,Jits_Linear_8,141,9999,9999,9999,1908644932
119,18,18,Jits_Linear_8,142,9999,9999,9999,1909184624
119,18,18,Jits_Linear_8,143,9999,9999,9999,1909724232
119,18,18,Jits_Linear_8,144,9999,9999,9999,1910264920
119,18,18,Jits_Linear_8,145,9999,9999,9999,1910794348
119,18,18,Jits_Linear_8,146,9999,9999,9999,1911324760
119,18,18,Jits_Linear_8,147,9999,9999,9999,1911854180
119,18,18,Jits_Linear_8,148,9999,9999,9999,1912384568
119,18,18,Jits_Linear_8,149,9999,9999,9999,1912915032
119,18,18,Jits_Linear_8,150,9999,9999,9999,1913434192
119,18,18,Jits_Linear_8,151,9999,9999,9999,1913954408
119,18,18,Jits_Linear_8,152,9999,9999,9999,1914474560
119,18,18,Jits_Linear_8,153,9999,9999,9999,1914994772
119,18,18,Jits_Linear_8,154,9999,9999,9999,1915514968
119,18,18,Jits_Linear_8,155,9999,9999,9999,1916024916
119,18,18,Jits_Linear_8,156,9999,9999,9999,1916534876
119,18,18,Jits_Linear_8,157,9999,9999,9999,1917044816
119,18,18,Jits_Linear_8,158,9999,9999,9999,1917554768
119,18,18,Jits_Linear_8,159,9999,9999,9999,1918064720
119,18,18,Jits_Linear_8,160,9999,9999,9999,1918564424
119,18,18,Jits_Linear_8,161,9999,9999,9999,1919064176
119,18,18,Jits_Linear_8,162,9999,9999,9999,1919564912
119,18,18,Jits_Linear_8,163,9999,9999,9999,1920064604
119,18,18,Jits_Linear_8,164,9999,9999,9999,1920564288
119,18,18,Jits_Linear_8,165,9999,9999,9999,1921054820
119,18,18,Jits_Linear_8,166,9999,9999,9999,1921544252
119,18,18,Jits_Linear_8,167,9999,9999,9999,1922034788
119,18,18,Jits_Linear_8,168,9999,9999,9999,1922524272
119,18,18,Jits_Linear_8,169,9999,9999,9999,1923014740
119,19,16,Jits_ISO_5,0,5,56,103,1930530280
119,19,16,Jits_ISO_5,1,5,63,98,1930533300
119,19,16,Jits_ISO_5,2,5,80,127,1930536500
119,19,16,Jits_ISO_5,0,5,56,103,1931030076
119,19,16,Jits_ISO_5,1,5,63,98,1931033024
119,19,16,Jits_ISO_5,2,5,80,127,1931036220
119,19,16,Jits_ISO_5,0,5,56,103,1931529592
119,19,16,Jits_ISO_5,1,5,80,127,1931539788
119,19,16,Jits_ISO_5,2,5,63,98,1931560244
119,19,16,Jits_ISO_5,0,5,63,98,1931980236
119,19,16,Jits_ISO_5,1,5,80,127,1932009936
119,19,16,Jits_ISO_5,2,5,56,103,1932020056
119,19,16,Jits_ISO_5,0,1,48,87,1932497372
119,19,16,Jits_ISO_5,1,5,80,127,1932540212
119,19,16,Jits_ISO_5,2,5,56,103,1932549512
119,19,16,Jits_ISO_5,3,5,63,98,1932580080
119,19,16,Jits_ISO_5,0,1,48,84,1932991124
119,19,16,Jits_ISO_5,1,5,63,98,1933029612
119,19,16,Jits_ISO_5,2,5,56,103,1933059436
119,19,16,Jits_ISO_5,3,5,80,127,1933069632
119,19,16,Jits_ISO_5,0,1,48,70,1933478972
119,19,16,Jits_ISO_5,1,5,56,103,1933480468
119,19,16,Jits_ISO_5,2,5,63,98,1933529324
119,19,16,Jits_ISO_5,3,5,80,127,1933550104
119,19,16,Jits_ISO_5,0,5,80,127,1933980280
119,19,16,Jits_ISO_5,1,1,48,69,1933983400
119,19,16,Jits_ISO_5,2,5,63,98,1934030104
119,19,16,Jits_ISO_5,3,5,56,103,1934069988
119,19,16,Jits_ISO_5,0,5,56,103,1934479656
119,19,16,Jits_ISO_5,1,5,63,98,1934509404
119,19,16,Jits_ISO_5,2,1,48,66,1934515140
119,19,16,Jits_ISO_5,3,5,80,127,1934580072
119,19,16,Jits_ISO_5,0,5,56,103,1934979552
119,19,16,Jits_ISO_5,1,1,48,61,1935020284
119,19,16,Jits_ISO_5,2,5,80,127,1935040084
119,19,16,Jits_ISO_5,3,5,63,98,1935069460
119,19,16,Jits_ISO_5,0,5,56,103,1935490364
119,19,16,Jits_ISO_5,1,5,63,98,1935499808
119,19,16,Jits_ISO_5,2,1,48,58,1935519488
119,19,16,Jits_ISO_5,3,5,80,127,1935539664
119,19,16,Jits_ISO_5,0,5,63,98,1935980064
119,19,16,Jits_ISO_5,1,1,48,56,1935993976
119,19,16,Jits_ISO_5,2,5,80,127,1936059780
119,19,16,Jits_ISO_5,3,5,56,103,1936070124
119,19,16,Jits_ISO_5,0,1,48,57,1936497440
119,19,16,Jits_ISO_5,1,5,63,98,1936529992
119,19,16,Jits_ISO_5,2,5,56,103,1936569624
119,19,16,Jits_ISO_5,3,5,80,127,1936572844
119,19,16,Jits_ISO_5,0,5,56,103,1936989496
119,19,16,Jits_ISO_5,1,5,63,98,1936999988
119,19,16,Jits_ISO_5,2,1,48,57,1937019000
119,19,16,Jits_ISO_5,3,5,80,127,1937039920
119,19,16,Jits_ISO_5,0,5,56,103,1937480248
119,19,16,Jits_ISO_5,1,5,63,98,1937483092
119,19,16,Jits_ISO_5,2,1,48,61,1937493036
119,19,16,Jits_ISO_5,3,5,80,127,1937499576
119,19,16,Jits_ISO_5,0,1,48,54,1937987428
119,19,16,Jits_ISO_5,1,5,80,127,1937990164
119,19,16,Jits_ISO_5,2,5,56,103,1938000212
119,19,16,Jits_ISO_5,3,5,63,98,1938069960
119,19,16,Jits_ISO_5,0,5,63,98,1938479416
119,19,16,Jits_ISO_5,1,1,48,53,1938496088
119,19,16,Jits_ISO_5,2,5,56,103,1938500164
119,19,16,Jits_ISO_5,3,5,80,127,1938579952
119,19,16,Jits_ISO_5,0,5,56,103,1938989412
119,19,16,Jits_ISO_5,1,1,48,55,1938990896
119,19,16,Jits_ISO_5,2,5,80,127,1939030240
119,19,16,Jits_ISO_5,3,5,63,98,1939039688
119,19,16,Jits_ISO_5,0,5,80,127,1939480092
119,19,16,Jits_ISO_5,1,5,63,98,1939509544
119,19,16,Jits_ISO_5,2,1,48,58,1939517840
119,19,16,Jits_ISO_5,3,5,56,103,1939549620
119,19,16,Jits_ISO_5,0,5,56,103,1940000068
119,19,16,Jits_ISO_5,1,5,63,98,1940029964
119,19,16,Jits_ISO_5,2,1,48,54,1940032484
119,19,16,Jits_ISO_5,3,5,80,127,1940080008
119,19,16,Jits_ISO_5,0,5,80,127,1940500112
119,19,16,Jits_ISO_5,1,1,48,55,1940538392
119,19,16,Jits_ISO_5,2,5,56,103,1940540044
119,19,16,Jits_ISO_5,3,5,63,98,1940550236
119,19,16,Jits_ISO_5,0,5,80,127,1940980080
119,19,16,Jits_ISO_5,1,5,63,98,1941020020
119,19,16,Jits_ISO_5,2,1,48,56,1941057684
119,19,16,Jits_ISO_5,3,5,56,103,1941080400
119,19,16,Jits_ISO_5,0,5,56,103,1941479976
119,19,16,Jits_ISO_5,1,5,80,127,1941490024
119,19,16,Jits_ISO_5,2,1,48,52,1941567768
119,19,16,Jits_ISO_5,3,5,63,98,1941569880
119,19,16,Jits_ISO_5,0,5,80,127,1941979476
119,19,16,Jits_ISO_5,1,5,63,98,1942040040
119,19,16,Jits_ISO_5,2,5,56,103,1942069788
119,19,16,Jits_ISO_5,3,1,48,53,1942070756
119,19,16,Jits_ISO_5,0,5,56,103,1942480124
119,19,16,Jits_ISO_5,1,5,80,127,1942539788
119,19,16,Jits_ISO_5,2,1,48,47,1942574224
119,19,16,Jits_ISO_5,3,5,63,98,1942579720
119,19,16,Jits_ISO_5,0,5,56,103,1943030172
119,19,16,Jits_ISO_5,1,5,63,98,1943040440
119,19,16,Jits_ISO_5,2,5,80,127,1943043952
119,19,16,Jits_ISO_5,3,1,48,54,1943046256
119,19,16,Jits_ISO_5,0,5,80,127,1943479840
119,19,16,Jits_ISO_5,1,1,48,51,1943535648
119,19,16,Jits_ISO_5,2,5,63,98,1943570212
119,19,16,Jits_ISO_5,3,5,56,103,1943579888
119,19,16,Jits_ISO_5,0,5,56,103,1943980324
119,19,16,Jits_ISO_5,1,5,63,98,1943983420
119,19,16,Jits_ISO_5,2,5,80,127,1943986620
119,19,16,Jits_ISO_5,3,1,48,53,1944029756
119,19,16,Jits_ISO_5,0,1,48,52,1944501976
119,19,16,Jits_ISO_5,1,5,80,127,1944509868
119,19,16,Jits_ISO_5,2,5,63,98,1944560020
119,19,16,Jits_ISO_5,3,5,56,103,1944589620
119,19,16,Jits_ISO_5,0,5,56,103,1944990056
119,19,16,Jits_ISO_5,1,5,80,127,1945000404
119,19,16,Jits_ISO_5,2,1,48,46,1945021128
119,19,16,Jits_ISO_5,3,5,63,98,1945070096
119,19,16,Jits_ISO_5,0,5,56,103,1945499996
119,19,16,Jits_ISO_5,1,5,63,98,1945519408
119,19,16,Jits_ISO_5,2,1,48,45,1945531592
119,19,16,Jits_ISO_5,3,5,80,127,1945579884
119,19,16,Jits_ISO_5,0,5,80,127,1945989480
119,19,16,Jits_ISO_5,1,1,48,40,1946060280
119,19,16,Jits_ISO_5,2,5,63,98,1946061544
119,19,16,Jits_ISO_5,3,5,56,103,1946079856
119,19,16,Jits_ISO_5,0,5,80,127,1946509972
119,19,16,Jits_ISO_5,1,5,56,103,1946519872
119,19,16,Jits_ISO_5,2,5,63,98,1946530068
119,19,16,Jits_ISO_5,3,1,48,43,1946561728
119,19,16,Jits_ISO_5,0,5,80,127,1947000128
119,19,16,Jits_ISO_5,1,5,56,103,1947019764
119,19,16,Jits_ISO_5,2,1,48,42,1947062664
119,19,16,Jits_ISO_5,3,5,63,98,1947090408
119,19,16,Jits_ISO_5,0,5,56,103,1947510064
119,19,16,Jits_ISO_5,1,5,80,127,1947539816
119,19,16,Jits_ISO_5,2,1,48,44,1947550880
119,19,16,Jits_ISO_5,3,5,63,98,1947560192
119,19,16,Jits_ISO_5,0,5,63,98,1947999552
119,19,16,Jits_ISO_5,1,1,48,43,1948049948
119,19,16,Jits_ISO_5,2,5,56,103,1948060232
119,19,16,Jits_ISO_5,3,5,80,127,1948089760
119,19,16,Jits_ISO_5,0,5,63,98,1948500180
119,19,16,Jits_ISO_5,1,5,80,127,1948503480
119,19,16,Jits_ISO_5,2,1,48,47,1948539948
119,19,16,Jits_ISO_5,3,5,56,103,1948589412
119,19,16,Jits_ISO_5,0,5,56,103,1949019612
119,19,16,Jits_ISO_5,1,5,63,98,1949050260
119,19,16,Jits_ISO_5,2,1,48,41,1949061920
119,19,16,Jits_ISO_5,3,5,80,127,1949090040
119,19,16,Jits_ISO_5,0,5,63,98,1949520336
119,19,16,Jits_ISO_5,1,1,48,49,1949553876
119,19,16,Jits_ISO_5,2,5,56,103,1949560120
119,19,16,Jits_ISO_5,3,5,80,127,1949579756
119,19,16,Jits_ISO_5,0,5,63,98,1950030112
119,19,16,Jits_ISO_5,1,1,48,51,1950055928
119,19,16,Jits_ISO_5,2,5,56,103,1950070192
119,19,16,Jits_ISO_5,3,5,80,127,1950080536
119,19,16,Jits_ISO_5,0,5,80,127,1950509320
119,19,16,Jits_ISO_5,1,1,48,51,1950553268
119,19,16,Jits_ISO_5,2,5,63,98,1950579968
119,19,16,Jits_ISO_5,3,5,56,103,1950599676
119,19,16,Jits_ISO_5,0,5,56,103,1951000004
119,19,16,Jits_ISO_5,1,5,80,127,1951020388
119,19,16,Jits_ISO_5,2,5,63,98,1951060324
119,19,16,Jits_ISO_5,3,1,48,54,1951070640
119,19,16,Jits_ISO_5,0,5,63,98,1951509864
119,19,16,Jits_ISO_5,1,5,80,127,1951530544
119,19,16,Jits_ISO_5,2,1,48,48,1951543028
119,19,16,Jits_ISO_5,3,5,56,103,1951570176
119,19,16,Jits_ISO_5,0,5,63,98,1952009896
119,19,16,Jits_ISO_5,1,5,56,103,1952030056
119,19,16,Jits_ISO_5,2,1,48,51,1952037140
119,19,16,Jits_ISO_5,3,5,80,127,1952040244
119,19,16,Jits_ISO_5,0,5,80,127,1952510300
119,19,16,Jits_ISO_5,1,1,48,51,1952511784
119,19,16,Jits_ISO_5,2,5,56,103,1952529852
119,19,16,Jits_ISO_5,3,5,63,98,1952559676
119,19,16,Jits_ISO_5,0,1,48,47,1953012864
119,19,16,Jits_ISO_5,1,5,56,103,1953079944
119,19,16,Jits_ISO_5,2,5,80,127,1953082932
119,19,16,Jits_ISO_5,3,5,63,98,1953100096
119,19,16,Jits_ISO_5,0,5,63,98,1953499712
119,19,16,Jits_ISO_5,1,5,56,103,1953530088
119,19,16,Jits_ISO_5,2,1,48,50,1953532024
119,19,16,Jits_ISO_5,3,5,80,127,1953589792
119,19,16,Jits_ISO_5,0,1,48,47,1954045432
119,19,16,Jits_ISO_5,1,5,63,98,1954080076
119,19,16,Jits_ISO_5,2,5,56,103,1954090344
119,19,16,Jits_ISO_5,3,5,80,127,1954099644
119,19,16,Jits_ISO_5,0,5,56,103,1954529700
119,19,16,Jits_ISO_5,1,5,80,127,1954560348
119,19,16,Jits_ISO_5,2,5,63,98,1954569792
119,19,16,Jits_ISO_5,3,1,48,39,1954584896
119,19,16,Jits_ISO_5,0,5,63,98,1955070280
119,19,16,Jits_ISO_5,1,5,56,103,1955079724
119,19,16,Jits_ISO_5,2,5,80,127,1955099960
119,19,16,Jits_ISO_5,3,1,48,35,1955116036
119,19,16,Jits_ISO_5,0,5,56,103,1955500540
119,19,16,Jits_ISO_5,1,5,63,98,1955559832
119,19,16,Jits_ISO_5,2,5,80,127,1955563048
119,19,16,Jits_ISO_5,3,1,48,41,1955586320
119,19,16,Jits_ISO_5,0,5,80,127,1956029796
119,19,16,Jits_ISO_5,1,5,56,103,1956039992
119,19,16,Jits_ISO_5,2,1,48,37,1956070256
119,19,16,Jits_ISO_5,3,5,63,98,1956109612
119,19,16,Jits_ISO_5,0,5,80,127,1956520328
119,19,16,Jits_ISO_5,1,1,48,38,1956587068
119,19,16,Jits_ISO_5,2,5,56,103,1956589876
119,19,16,Jits_ISO_5,3,5,63,98,1956600296
119,19,16,Jits_ISO_5,0,5,63,98,1957059932
119,19,16,Jits_ISO_5,1,5,56,103,1957070128
119,19,16,Jits_ISO_5,2,5,80,127,1957089860
119,19,16,Jits_ISO_5,3,1,48,43,1957097020
119,19,16,Jits_ISO_5,0,5,80,127,1957509772
119,19,16,Jits_ISO_5,1,5,63,98,1957569864
119,19,16,Jits_ISO_5,2,1,48,45,1957587360
119,19,16,Jits_ISO_5,3,5,56,103,1957609744
119,19,16,Jits_ISO_5,0,5,56,103,1958050132
119,19,16,Jits_ISO_5,1,5,63,98,1958060328
119,19,16,Jits_ISO_5,2,1,48,50,1958094680
119,19,16,Jits_ISO_5,3,5,80,127,1958100256
119,19,16,Jits_ISO_5,0,5,56,103,1958509872
119,19,16,Jits_ISO_5,1,5,80,127,1958539624
119,19,16,Jits_ISO_5,2,1,48,43,1958584164
119,19,16,Jits_ISO_5,3,5,63,98,1958589816
119,19,16,Jits_ISO_5,0,5,56,103,1959049556
119,19,16,Jits_ISO_5,1,1,48,49,1959084360
119,19,16,Jits_ISO_5,2,5,63,98,1959089780
119,19,16,Jits_ISO_5,3,5,80,127,1959093068
119,19,16,Jits_ISO_5,0,5,56,103,1959550268
119,19,16,Jits_ISO_5,1,5,63,98,1959559716
119,19,16,Jits_ISO_5,2,5,80,127,1959579948
119,19,16,Jits_ISO_5,3,1,48,40,1959584712
119,19,16,Jits_ISO_5,0,5,56,103,1960020272
119,19,16,Jits_ISO_5,1,5,80,127,1960023336
119,19,16,Jits_ISO_5,2,5,63,98,1960060356
119,19,16,Jits_ISO_5,3,1,48,42,1960066172
119,19,16,Jits_ISO_5,0,5,63,98,1960560012
119,19,16,Jits_ISO_5,1,1,48,37,1960563732
119,19,16,Jits_ISO_5,2,5,56,103,1960589756
119,19,16,Jits_ISO_5,3,5,80,127,1960610736
119,19,16,Jits_ISO_5,0,5,80,127,1961029932
119,19,16,Jits_ISO_5,1,5,56,103,1961040352
119,19,16,Jits_ISO_5,2,5,63,98,1961049424
119,19,16,Jits_ISO_5,3,1,48,45,1961090896
119,19,16,Jits_ISO_5,0,5,56,103,1961529824
119,19,16,Jits_ISO_5,1,5,80,127,1961569764
119,19,16,Jits_ISO_5,2,1,48,48,1961585692
119,19,16,Jits_ISO_5,3,5,63,98,1961600548
119,19,16,Jits_ISO_5,0,5,63,98,1962039612
119,19,16,Jits_ISO_5,1,5,80,127,1962049884
119,19,16,Jits_ISO_5,2,5,56,103,1962060004
119,19,16,Jits_ISO_5,3,1,48,47,1962093460
119,19,16,Jits_ISO_5,0,5,56,103,1962520012
119,19,16,Jits_ISO_5,1,1,48,43,1962585760
119,19,16,Jits_ISO_5,2,5,63,98,1962589836
119,19,16,Jits_ISO_5,3,5,80,127,1962599736
119,19,16,Jits_ISO_5,0,5,80,127,1963019764
119,19,16,Jits_ISO_5,1,5,56,103,1963029812
119,19,16,Jits_ISO_5,2,1,48,42,1963074352
119,19,16,Jits_ISO_5,3,5,63,98,1963080076
119,19,16,Jits_ISO_5,0,5,80,127,1963529848
119,19,16,Jits_ISO_5,1,1,48,46,1963551248
119,19,16,Jits_ISO_5,2,5,56,103,1963590008
119,19,16,Jits_ISO_5,3,5,63,98,1963619680
119,19,16,Jits_ISO_5,0,5,56,103,1964030420
119,19,16,Jits_ISO_5,1,5,80,127,1964033264
119,19,16,Jits_ISO_5,2,1,48,45,1964069984
119,19,16,Jits_ISO_5,3,5,63,98,1964071244
119,19,16,Jits_ISO_5,0,5,56,103,1964559680
119,19,16,Jits_ISO_5,1,1,48,48,1964580776
119,19,16,Jits_ISO_5,2,5,63,98,1964589644
119,19,16,Jits_ISO_5,3,5,80,127,1964599764
119,19,16,Jits_ISO_5,0,5,63,98,1965069620
119,19,16,Jits_ISO_5,1,5,80,127,1965079888
119,19,16,Jits_ISO_5,2,1,48,47,1965081904
119,19,16,Jits_ISO_5,3,5,56,103,1965090152
119,19,16,Jits_ISO_5,0,5,80,127,1965520256
119,19,16,Jits_ISO_5,1,5,56,103,1965570404
119,19,16,Jits_ISO_5,2,5,63,98,1965573696
119,19,16,Jits_ISO_5,3,1,48,48,1965583416
119,19,16,Jits_ISO_5,0,5,56,103,1966049540
119,19,16,Jits_ISO_5,1,1,48,49,1966067408
119,19,16,Jits_ISO_5,2,5,80,127,1966069992
119,19,16,Jits_ISO_5,3,5,63,98,1966080556
119,19,16,Jits_ISO_5,0,5,63,98,1966529932
119,19,16,Jits_ISO_5,1,5,56,103,1966559484
119,19,16,Jits_ISO_5,2,5,80,127,1966580164
119,19,16,Jits_ISO_5,3,1,48,46,1966584932
119,19,16,Jits_ISO_5,0,5,56,103,1967039776
119,19,16,Jits_ISO_5,1,5,80,127,1967050272
119,19,16,Jits_ISO_5,2,1,48,46,1967071548
119,19,16,Jits_ISO_5,3,5,63,98,1967119668
119,19,16,Jits_ISO_5,0,5,63,98,1967539744
119,19,16,Jits_ISO_5,1,1,48,47,1967564584
119,19,16,Jits_ISO_5,2,5,80,127,1967579452
119,19,16,Jits_ISO_5,3,5,56,103,1967619412
119,19,16,Jits_ISO_5,0,5,56,103,1968049444
119,19,16,Jits_ISO_5,1,5,63,98,1968059640
119,19,16,Jits_ISO_5,2,5,80,127,1968080320
119,19,16,Jits_ISO_5,3,1,48,44,1968093024
119,19,16,Jits_ISO_5,0,1,48,47,1968586832
119,19,16,Jits_ISO_5,1,5,63,98,1968590160
119,19,16,Jits_ISO_5,2,5,80,127,1968609744
119,19,16,Jits_ISO_5,3,5,56,103,1968630052
119,19,16,Jits_ISO_5,0,5,56,103,1969029664
119,19,16,Jits_ISO_5,1,1,48,47,1969088680
119,19,16,Jits_ISO_5,2,5,80,127,1969110648
119,19,16,Jits_ISO_5,3,5,63,98,1969119600
119,19,16,Jits_ISO_5,0,5,80,127,1969570096
119,19,16,Jits_ISO_5,1,1,48,48,1969578172
119,19,16,Jits_ISO_5,2,5,63,98,1969580584
119,19,16,Jits_ISO_5,3,5,56,103,1969609960
119,19,16,Jits_ISO_5,0,5,63,98,1970029988
119,19,16,Jits_ISO_5,1,5,80,127,1970069776
119,19,16,Jits_ISO_5,2,1,48,48,1970095740
119,19,16,Jits_ISO_5,3,5,56,103,1970130528
119,19,16,Jits_ISO_5,0,5,63,98,1970539836
119,19,16,Jits_ISO_5,1,5,56,103,1970590036
119,19,16,Jits_ISO_5,2,1,48,44,1970613456
119,19,16,Jits_ISO_5,3,5,80,127,1970619628
119,19,16,Jits_ISO_5,0,5,80,127,1971049832
119,19,16,Jits_ISO_5,1,5,63,98,1971059956
119,19,16,Jits_ISO_5,2,1,48,42,1971067856
119,19,16,Jits_ISO_5,3,5,56,103,1971129700
119,19,16,Jits_ISO_5,0,5,80,127,1971629524
119,19,16,Jits_ISO_5,1,1,48,51,1971633616
119,19,16,Jits_ISO_5,2,5,56,103,1971639636
119,19,16,Jits_ISO_5,3,5,63,98,1971642776
119,19,16,Jits_ISO_5,0,5,56,103,1972069704
119,19,16,Jits_ISO_5,1,5,80,127,1972090240
119,19,16,Jits_ISO_5,2,5,63,98,1972099608
119,19,16,Jits_ISO_5,3,1,48,47,1972161084
119,19,16,Jits_ISO_5,0,5,63,98,1972579640
119,19,16,Jits_ISO_5,1,5,56,103,1972619504
119,19,16,Jits_ISO_5,2,5,80,127,1972640260
119,19,16,Jits_ISO_5,3,1,48,54,1972660908
119,19,16,Jits_ISO_5,0,5,63,98,1973080572
119,19,16,Jits_ISO_5,1,5,56,103,1973139764
119,19,16,Jits_ISO_5,2,5,80,127,1973142756
119,19,16,Jits_ISO_5,3,1,48,56,1973151800
119,19,16,Jits_ISO_5,0,5,56,103,1973540292
119,19,16,Jits_ISO_5,1,5,80,127,1973559556
119,19,16,Jits_ISO_5,2,5,63,98,1973599568
119,19,16,Jits_ISO_5,3,1,48,58,1973640224
119,19,16,Jits_ISO_5,0,5,56,103,1974069560
119,19,16,Jits_ISO_5,1,1,48,62,1974081220
119,19,16,Jits_ISO_5,2,5,63,98,1974090012
119,19,16,Jits_ISO_5,3,5,80,127,1974100432
119,19,16,Jits_ISO_5,0,5,80,127,1974539640
119,19,16,Jits_ISO_5,1,5,56,103,1974570584
119,19,16,Jits_ISO_5,2,1,48,61,1974575352
119,19,16,Jits_ISO_5,3,5,63,98,1974610440
119,19,16,Jits_ISO_5,0,5,80,127,1975049572
119,19,16,Jits_ISO_5,1,5,56,103,1975070032
119,19,16,Jits_ISO_5,2,1,48,56,1975074496
119,19,16,Jits_ISO_5,3,5,63,98,1975129588
119,19,16,Jits_ISO_5,0,5,56,103,1975559584
119,19,16,Jits_ISO_5,1,5,80,127,1975579968
119,19,16,Jits_ISO_5,2,1,48,59,1975600920
119,19,16,Jits_ISO_5,3,5,63,98,1975640572
119,19,16,Jits_ISO_5,0,5,80,127,1976039708
119,19,16,Jits_ISO_5,1,5,56,103,1976049980
119,19,16,Jits_ISO_5,2,5,63,98,1976089840
119,19,16,Jits_ISO_5,3,1,48,59,1976093932
119,19,16,Jits_ISO_5,0,5,63,98,1976539500
119,19,16,Jits_ISO_5,1,1,48,56,1976578672
119,19,16,Jits_ISO_5,2,5,56,103,1976580192
119,19,16,Jits_ISO_5,3,5,80,127,1976582944
119,19,16,Jits_ISO_5,0,5,63,98,1977059824
119,19,16,Jits_ISO_5,1,1,48,61,1977066232
119,19,16,Jits_ISO_5,2,5,80,127,1977099604
119,19,16,Jits_ISO_5,3,5,56,103,1977130548
119,19,16,Jits_ISO_5,0,5,56,103,1977550168
119,19,16,Jits_ISO_5,1,5,63,98,1977560436
119,19,16,Jits_ISO_5,2,1,48,58,1977577356
119,19,16,Jits_ISO_5,3,5,80,127,1977590056
119,19,16,Jits_ISO_5,0,5,80,127,1978039652
119,19,16,Jits_ISO_5,1,1,48,58,1978065908
119,19,16,Jits_ISO_5,2,5,63,98,1978110244
119,19,16,Jits_ISO_5,3,5,56,103,1978119616
119,19,16,Jits_ISO_5,0,5,63,98,1978540372
119,19,16,Jits_ISO_5,1,1,48,62,1978594308
119,19,16,Jits_ISO_5,2,5,56,103,1978610216
119,19,16,Jits_ISO_5,3,5,80,127,1978620412
119,19,16,Jits_ISO_5,0,5,63,98,1979050364
119,19,16,Jits_ISO_5,1,5,56,103,1979069700
119,19,16,Jits_ISO_5,2,1,48,66,1979085476
119,19,16,Jits_ISO_5,3,5,80,127,1979109804
119,19,16,Jits_ISO_5,0,5,56,103,1979560276
119,19,16,Jits_ISO_5,1,5,63,98,1979569428
119,19,16,Jits_ISO_5,2,1,48,65,1979586248
119,19,16,Jits_ISO_5,3,5,80,127,1979650356
119,19,16,Jits_ISO_5,0,5,63,98,1980049760
119,19,16,Jits_ISO_5,1,1,48,57,1980079512
119,19,16,Jits_ISO_5,2,5,56,103,1980080848
119,19,16,Jits_ISO_5,3,5,80,127,1980120564
119,19,16,Jits_ISO_5,0,5,56,103,1980549568
119,19,16,Jits_ISO_5,1,1,48,62,1980578688
119,19,16,Jits_ISO_5,2,5,63,98,1980589500
119,19,16,Jits_ISO_5,3,5,80,127,1980630484
119,19,16,Jits_ISO_5,0,5,80,127,1981050360
119,19,16,Jits_ISO_5,1,1,48,60,1981062548
119,19,16,Jits_ISO_5,2,5,56,103,1981130296
119,19,16,Jits_ISO_5,3,5,63,98,1981140568
119,19,16,Jits_ISO_5,0,1,48,57,1981575324
119,19,16,Jits_ISO_5,1,5,56,103,1981589812
119,19,16,Jits_ISO_5,2,5,63,98,1981592880
119,19,16,Jits_ISO_5,3,5,80,127,1981600228
119,19,16,Jits_ISO_5,0,1,48,59,1982094456
119,19,16,Jits_ISO_5,1,5,56,103,1982109916
119,19,16,Jits_ISO_5,2,5,63,98,1982129476
119,19,16,Jits_ISO_5,3,5,80,127,1982139820
119,19,16,Jits_ISO_5,0,5,63,98,1982569800
119,19,16,Jits_ISO_5,1,5,80,127,1982580368
119,19,16,Jits_ISO_5,2,5,56,103,1982599484
119,19,16,Jits_ISO_5,3,1,48,58,1982605144
119,19,16,Jits_ISO_5,0,5,63,98,1983079796
119,19,16,Jits_ISO_5,1,1,48,55,1983093180
119,19,16,Jits_ISO_5,2,5,56,103,1983159576
119,19,16,Jits_ISO_5,3,5,80,127,1983162648
119,19,16,Jits_ISO_5,0,5,63,98,1983579524
119,19,16,Jits_ISO_5,1,5,56,103,1983599984
119,19,16,Jits_ISO_5,2,1,48,57,1983611496
119,19,16,Jits_ISO_5,3,5,80,127,1983629576
119,19,16,Jits_ISO_5,0,5,56,103,1984080452
119,19,16,Jits_ISO_5,1,5,63,98,1984099716
119,19,16,Jits_ISO_5,2,1,48,56,1984104856
119,19,16,Jits_ISO_5,3,5,80,127,1984110052
119,19,16,Jits_ISO_5,0,5,56,103,1984609572
119,19,16,Jits_ISO_5,1,1,48,49,1984627832
119,19,16,Jits_ISO_5,2,5,63,98,1984640360
119,19,16,Jits_ISO_5,3,5,80,127,1984643724
119,19,16,Jits_ISO_5,0,5,56,103,1985060236
119,19,16,Jits_ISO_5,1,1,48,56,1985098660
119,19,16,Jits_ISO_5,2,5,63,98,1985100096
119,19,16,Jits_ISO_5,3,5,80,127,1985159512
119,19,16,Jits_ISO_5,0,5,56,103,1985580440
119,19,16,Jits_ISO_5,1,5,63,98,1985589588
119,19,16,Jits_ISO_5,2,1,48,48,1985632264
119,19,16,Jits_ISO_5,3,5,80,127,1985649968
119,19,16,Jits_ISO_5,0,5,56,103,1986080336
119,19,16,Jits_ISO_5,1,5,80,127,1986099528
119,19,16,Jits_ISO_5,2,1,48,43,1986129868
119,19,16,Jits_ISO_5,3,5,63,98,1986131288
119,19,16,Jits_ISO_5,0,5,80,127,1986579784
119,19,16,Jits_ISO_5,1,5,56,103,1986590352
119,19,16,Jits_ISO_5,2,5,63,98,1986609392
119,19,16,Jits_ISO_5,3,1,48,50,1986628848
119,19,16,Jits_ISO_5,0,5,63,98,1987070388
119,19,16,Jits_ISO_5,1,1,48,53,1987077340
119,19,16,Jits_ISO_5,2,5,80,127,1987150472
119,19,16,Jits_ISO_5,3,5,56,103,1987160444
119,19,16,Jits_ISO_5,0,1,48,48,1987613544
119,19,16,Jits_ISO_5,1,5,80,127,1987629456
119,19,16,Jits_ISO_5,2,5,56,103,1987649760
119,19,16,Jits_ISO_5,3,5,63,98,1987653204
119,19,16,Jits_ISO_5,0,5,63,98,1988099292
119,19,16,Jits_ISO_5,1,5,80,127,1988102588
119,19,16,Jits_ISO_5,2,1,48,43,1988135228
119,19,16,Jits_ISO_5,3,5,56,103,1988159828
119,19,16,Jits_ISO_5,0,5,56,103,1988579772
119,19,16,Jits_ISO_5,1,5,80,127,1988590340
119,19,16,Jits_ISO_5,2,5,63,98,1988629828
119,19,16,Jits_ISO_5,3,1,48,48,1988655344
119,19,16,Jits_ISO_5,0,5,56,103,1989060088
119,19,16,Jits_ISO_5,1,5,63,98,1989120356
119,19,16,Jits_ISO_5,2,1,48,56,1989129280
119,19,16,Jits_ISO_5,3,5,80,127,1989130768
119,19,16,Jits_ISO_5,0,5,63,98,1989569804
119,19,16,Jits_ISO_5,1,5,80,127,1989609692
119,19,16,Jits_ISO_5,2,1,48,49,1989636924
119,19,16,Jits_ISO_5,3,5,56,103,1989649844
119,19,16,Jits_ISO_5,0,5,56,103,1990069616
119,19,16,Jits_ISO_5,1,1,48,49,1990098360
119,19,16,Jits_ISO_5,2,5,63,98,1990149424
119,19,16,Jits_ISO_5,3,5,80,127,1990152936
119,19,16,Jits_ISO_5,0,9999,9999,9999,1930777708
119,19,16,Jits_ISO_5,1,9999,9999,9999,1931277432
119,19,16,Jits_ISO_5,2,9999,9999,9999,1931777100
119,19,16,Jits_ISO_5,3,9999,9999,9999,1932277884
119,19,16,Jits_ISO_5,4,9999,9999,9999,1932777592
119,19,16,Jits_ISO_5,5,9999,9999,9999,1933277304
119,19,16,Jits_ISO_5,6,9999,9999,9999,1933778004
119,19,16,Jits_ISO_5,7,9999,9999,9999,1934277736
119,19,16,Jits_ISO_5,8,9999,9999,9999,1934777408
119,19,16,Jits_ISO_5,9,9999,9999,9999,1935277132
119,19,16,Jits_ISO_5,10,9999,9999,9999,1935777852
119,19,16,Jits_ISO_5,11,9999,9999,9999,1936277596
119,19,16,Jits_ISO_5,12,9999,9999,9999,1936777324
119,19,16,Jits_ISO_5,13,9999,9999,9999,1937278032
119,19,16,Jits_ISO_5,14,9999,9999,9999,1937777764
119,19,16,Jits_ISO_5,15,9999,9999,9999,1938277436
119,19,16,Jits_ISO_5,16,9999,9999,9999,1938777168
119,19,16,Jits_ISO_5,17,9999,9999,9999,1939277948
119,19,16,Jits_ISO_5,18,9999,9999,9999,1939777620
119,19,16,Jits_ISO_5,19,9999,9999,9999,1940277368
119,19,16,Jits_ISO_5,20,9999,9999,9999,1940778088
119,19,16,Jits_ISO_5,21,9999,9999,9999,1941277760
119,19,16,Jits_ISO_5,22,9999,9999,9999,1941777504
119,19,16,Jits_ISO_5,23,9999,9999,9999,1942277184
119,19,16,Jits_ISO_5,24,9999,9999,9999,1942777980
119,19,16,Jits_ISO_5,25,9999,9999,9999,1943277648
119,19,16,Jits_ISO_5,26,9999,9999,9999,1943777400
119,19,16,Jits_ISO_5,27,9999,9999,9999,1944278068
119,19,16,Jits_ISO_5,28,9999,9999,9999,1944788076
119,19,16,Jits_ISO_5,29,9999,9999,9999,1945287736
119,19,16,Jits_ISO_5,30,9999,9999,9999,1945787484
119,19,16,Jits_ISO_5,31,9999,9999,9999,1946287156
119,19,16,Jits_ISO_5,32,9999,9999,9999,1946787948
119,19,16,Jits_ISO_5,33,9999,9999,9999,1947287620
119,19,16,Jits_ISO_5,34,9999,9999,9999,1947787368
119,19,16,Jits_ISO_5,35,9999,9999,9999,1948288092
119,19,16,Jits_ISO_5,36,9999,9999,9999,1948798004
119,19,16,Jits_ISO_5,37,9999,9999,9999,1949297740
119,19,16,Jits_ISO_5,38,9999,9999,9999,1949797492
119,19,16,Jits_ISO_5,39,9999,9999,9999,1950297152
119,19,16,Jits_ISO_5,40,9999,9999,9999,1950797936
119,19,16,Jits_ISO_5,41,9999,9999,9999,1951297608
119,19,16,Jits_ISO_5,42,9999,9999,9999,1951797352
119,19,16,Jits_ISO_5,43,9999,9999,9999,1952298056
119,19,16,Jits_ISO_5,44,9999,9999,9999,1952797788
119,19,16,Jits_ISO_5,45,9999,9999,9999,1953297460
119,19,16,Jits_ISO_5,46,9999,9999,9999,1953797192
119,19,16,Jits_ISO_5,47,9999,9999,9999,1954297976
119,19,16,Jits_ISO_5,48,9999,9999,9999,1954797636
119,19,16,Jits_ISO_5,49,9999,9999,9999,1955297388
119,19,16,Jits_ISO_5,50,9999,9999,9999,1955798136
119,19,16,Jits_ISO_5,51,9999,9999,9999,1956308068
119,19,16,Jits_ISO_5,52,9999,9999,9999,1956807744
119,19,16,Jits_ISO_5,53,9999,9999,9999,1957307496
119,19,16,Jits_ISO_5,54,9999,9999,9999,1957807156
119,19,16,Jits_ISO_5,55,9999,9999,9999,1958307952
119,19,16,Jits_ISO_5,56,9999,9999,9999,1958807628
119,19,16,Jits_ISO_5,57,9999,9999,9999,1959307368
119,19,16,Jits_ISO_5,58,9999,9999,9999,1959808092
119,19,16,Jits_ISO_5,59,9999,9999,9999,1960318012
119,19,16,Jits_ISO_5,60,9999,9999,9999,1960817764
119,19,16,Jits_ISO_5,61,9999,9999,9999,1961317492
119,19,16,Jits_ISO_5,62,9999,9999,9999,1961817168
119,19,16,Jits_ISO_5,63,9999,9999,9999,1962317884
119,19,16,Jits_ISO_5,64,9999,9999,9999,1962817620
119,19,16,Jits_ISO_5,65,9999,9999,9999,1963317364
119,19,16,Jits_ISO_5,66,9999,9999,9999,1963818088
119,19,16,Jits_ISO_5,67,9999,9999,9999,1964317748
119,19,16,Jits_ISO_5,68,9999,9999,9999,1964817504
119,19,16,Jits_ISO_5,69,9999,9999,9999,1965317180
119,19,16,Jits_ISO_5,70,9999,9999,9999,1965817948
119,19,16,Jits_ISO_5,71,9999,9999,9999,1966317624
119,19,16,Jits_ISO_5,72,9999,9999,9999,1966817372
119,19,16,Jits_ISO_5,73,9999,9999,9999,1967318124
119,19,16,Jits_ISO_5,74,9999,9999,9999,1967828060
119,19,16,Jits_ISO_5,75,9999,9999,9999,1968327788
119,19,16,Jits_ISO_5,76,9999,9999,9999,1968827464
119,19,16,Jits_ISO_5,77,9999,9999,9999,1969327200
119,19,16,Jits_ISO_5,78,9999,9999,9999,1969827920
119,19,16,Jits_ISO_5,79,9999,9999,9999,1970327668
119,19,16,Jits_ISO_5,80,9999,9999,9999,1970827328
119,19,16,Jits_ISO_5,81,9999,9999,9999,1971328108
119,19,16,Jits_ISO_5,82,9999,9999,9999,1971838044
119,19,16,Jits_ISO_5,83,9999,9999,9999,1972337716
119,19,16,Jits_ISO_5,84,9999,9999,9999,1972837464
119,19,16,Jits_ISO_5,85,9999,9999,9999,1973337196
119,19,16,Jits_ISO_5,86,9999,9999,9999,1973837896
119,19,16,Jits_ISO_5,87,9999,9999,9999,1974337644
119,19,16,Jits_ISO_5,88,9999,9999,9999,1974837316
119,19,16,Jits_ISO_5,89,9999,9999,9999,1975338036
119,19,16,Jits_ISO_5,90,9999,9999,9999,1975837784
119,19,16,Jits_ISO_5,91,9999,9999,9999,1976337532
119,19,16,Jits_ISO_5,92,9999,9999,9999,1976837240
119,19,16,Jits_ISO_5,93,9999,9999,9999,1977337948
119,19,16,Jits_ISO_5,94,9999,9999,9999,1977837680
119,19,16,Jits_ISO_5,95,9999,9999,9999,1978337352
119,19,16,Jits_ISO_5,96,9999,9999,9999,1978838124
119,19,16,Jits_ISO_5,97,9999,9999,9999,1979348040
119,19,16,Jits_ISO_5,98,9999,9999,9999,1979847768
119,19,16,Jits_ISO_5,99,9999,9999,9999,1980347512
119,19,16,Jits_ISO_5,100,9999,9999,9999,1980847172
119,19,16,Jits_ISO_5,101,9999,9999,9999,1981347892
119,19,16,Jits_ISO_5,102,9999,9999,9999,1981847632
119,19,16,Jits_ISO_5,103,9999,9999,9999,1982347372
119,19,16,Jits_ISO_5,104,9999,9999,9999,1982848076
119,19,16,Jits_ISO_5,105,9999,9999,9999,1983358064
119,19,16,Jits_ISO_5,106,9999,9999,9999,1983857724
119,19,16,Jits_ISO_5,107,9999,9999,9999,1984357456
119,19,16,Jits_ISO_5,108,9999,9999,9999,1984857196
119,19,16,Jits_ISO_5,109,9999,9999,9999,1985357920
119,19,16,Jits_ISO_5,110,9999,9999,9999,1985857592
119,19,16,Jits_ISO_5,111,9999,9999,9999,1986357340
119,19,16,Jits_ISO_5,112,9999,9999,9999,1986858060
119,19,16,Jits_ISO_5,113,9999,9999,9999,1987357808
119,19,16,Jits_ISO_5,114,9999,9999,9999,1987857464
119,19,16,Jits_ISO_5,115,9999,9999,9999,1988357188
119,19,16,Jits_ISO_5,116,9999,9999,9999,1988857972
119,19,16,Jits_ISO_5,117,9999,9999,9999,1989357644
119,19,16,Jits_ISO_5,118,9999,9999,9999,1989857396
119,19,16,Jits_ISO_5,119,9999,9999,9999,1990358068
119,20,7,Jits_ISO_8,0,5,56,103,1999129084
119,20,7,Jits_ISO_8,1,5,63,98,1999132032
119,20,7,Jits_ISO_8,2,5,80,127,1999135232
119,20,7,Jits_ISO_8,0,5,56,103,1999928788
119,20,7,Jits_ISO_8,1,5,63,98,1999931888
119,20,7,Jits_ISO_8,2,5,80,127,1999935008
119,20,7,Jits_ISO_8,0,5,80,127,2000669088
119,20,7,Jits_ISO_8,1,1,48,65,2000683668
119,20,7,Jits_ISO_8,2,5,63,98,2000759292
119,20,7,Jits_ISO_8,3,5,56,103,2000769416
119,20,7,Jits_ISO_8,0,5,56,103,2001489116
119,20,7,Jits_ISO_8,1,5,63,98,2001498340
119,20,7,Jits_ISO_8,2,1,48,71,2001499308
119,20,7,Jits_ISO_8,3,5,80,127,2001588540
119,20,7,Jits_ISO_8,0,5,63,98,2002259244
119,20,7,Jits_ISO_8,1,5,80,127,2002288996
119,20,7,Jits_ISO_8,2,5,56,103,2002318672
119,20,7,Jits_ISO_8,3,1,48,86,2002325532
119,20,7,Jits_ISO_8,0,1,48,80,2003052620
119,20,7,Jits_ISO_8,1,5,56,103,2003059088
119,20,7,Jits_ISO_8,2,5,80,127,2003159324
119,20,7,Jits_ISO_8,3,5,63,98,2003208432
119,20,7,Jits_ISO_8,0,5,56,103,2003858808
119,20,7,Jits_ISO_8,1,5,80,127,2003909084
119,20,7,Jits_ISO_8,2,1,48,64,2003935452
119,20,7,Jits_ISO_8,3,5,63,98,2003948892
119,20,7,Jits_ISO_8,0,1,48,69,2004665456
119,20,7,Jits_ISO_8,1,5,80,127,2004689236
119,20,7,Jits_ISO_8,2,5,63,98,2004719160
119,20,7,Jits_ISO_8,3,5,56,103,2004788756
119,20,7,Jits_ISO_8,0,1,48,58,2005453404
119,20,7,Jits_ISO_8,1,5,63,98,2005518644
119,20,7,Jits_ISO_8,2,5,56,103,2005549440
119,20,7,Jits_ISO_8,3,5,80,127,2005608916
119,20,7,Jits_ISO_8,0,5,56,103,2006259020
119,20,7,Jits_ISO_8,1,5,80,127,2006262236
119,20,7,Jits_ISO_8,2,1,48,62,2006276460
119,20,7,Jits_ISO_8,3,5,63,98,2006378800
119,20,7,Jits_ISO_8,0,1,48,61,2007032620
119,20,7,Jits_ISO_8,1,5,56,103,2007138880
119,20,7,Jits_ISO_8,2,5,80,127,2007178744
119,20,7,Jits_ISO_8,3,5,63,98,2007188940
119,20,7,Jits_ISO_8,0,1,48,58,2007861860
119,20,7,Jits_ISO_8,1,5,56,103,2007898604
119,20,7,Jits_ISO_8,2,5,80,127,2007918916
119,20,7,Jits_ISO_8,3,5,63,98,2007998768
119,20,7,Jits_ISO_8,0,1,48,58,2008672660
119,20,7,Jits_ISO_8,1,5,80,127,2008689020
119,20,7,Jits_ISO_8,2,5,56,103,2008789256
119,20,7,Jits_ISO_8,3,5,63,98,2008798580
119,20,7,Jits_ISO_8,0,5,63,98,2009459148
119,20,7,Jits_ISO_8,1,1,48,54,2009508052
119,20,7,Jits_ISO_8,2,5,80,127,2009518488
119,20,7,Jits_ISO_8,3,5,56,103,2009529056
119,20,7,Jits_ISO_8,0,5,56,103,2010258932
119,20,7,Jits_ISO_8,1,1,48,57,2010283624
119,20,7,Jits_ISO_8,2,5,63,98,2010328384
119,20,7,Jits_ISO_8,3,5,80,127,2010331672
119,20,7,Jits_ISO_8,0,1,48,48,2011062408
119,20,7,Jits_ISO_8,1,5,63,98,2011089404
119,20,7,Jits_ISO_8,2,5,56,103,2011138360
119,20,7,Jits_ISO_8,3,5,80,127,2011141576
119,20,7,Jits_ISO_8,0,5,56,103,2011849100
119,20,7,Jits_ISO_8,1,5,80,127,2011852020
119,20,7,Jits_ISO_8,2,1,48,55,2011852984
119,20,7,Jits_ISO_8,3,5,63,98,2011939176
119,20,7,Jits_ISO_8,0,1,48,53,2012646172
119,20,7,Jits_ISO_8,1,5,63,98,2012688840
119,20,7,Jits_ISO_8,2,5,56,103,2012778960
119,20,7,Jits_ISO_8,3,5,80,127,2012808636
119,20,7,Jits_ISO_8,0,1,48,51,2013450768
119,20,7,Jits_ISO_8,1,5,56,103,2013479264
119,20,7,Jits_ISO_8,2,5,63,98,2013578752
119,20,7,Jits_ISO_8,3,5,80,127,2013609324
119,20,7,Jits_ISO_8,0,1,48,53,2014290044
119,20,7,Jits_ISO_8,1,5,63,98,2014298384
119,20,7,Jits_ISO_8,2,5,56,103,2014308804
119,20,7,Jits_ISO_8,3,5,80,127,2014398700
119,20,7,Jits_ISO_8,0,5,63,98,2015118780
119,20,7,Jits_ISO_8,1,1,48,54,2015138388
119,20,7,Jits_ISO_8,2,5,56,103,2015198668
119,20,7,Jits_ISO_8,3,5,80,127,2015201884
119,20,7,Jits_ISO_8,0,5,80,127,2015878552
119,20,7,Jits_ISO_8,1,5,63,98,2015898940
119,20,7,Jits_ISO_8,2,1,48,56,2015948736
119,20,7,Jits_ISO_8,3,5,56,103,2015959324
119,20,7,Jits_ISO_8,0,1,48,55,2016708816
119,20,7,Jits_ISO_8,1,5,56,103,2016719176
119,20,7,Jits_ISO_8,2,5,63,98,2016738916
119,20,7,Jits_ISO_8,3,5,80,127,2016742124
119,20,7,Jits_ISO_8,0,5,63,98,2017458644
119,20,7,Jits_ISO_8,1,1,48,53,2017486856
119,20,7,Jits_ISO_8,2,5,80,127,2017538388
119,20,7,Jits_ISO_8,3,5,56,103,2017548880
119,20,7,Jits_ISO_8,0,5,63,98,2018278832
119,20,7,Jits_ISO_8,1,1,48,51,2018286756
119,20,7,Jits_ISO_8,2,5,56,103,2018299136
119,20,7,Jits_ISO_8,3,5,80,127,2018349412
119,20,7,Jits_ISO_8,0,5,80,127,2019078540
119,20,7,Jits_ISO_8,1,1,48,43,2019105696
119,20,7,Jits_ISO_8,2,5,63,98,2019118696
119,20,7,Jits_ISO_8,3,5,56,103,2019138784
119,20,7,Jits_ISO_8,0,1,48,52,2019861140
119,20,7,Jits_ISO_8,1,5,56,103,2019919308
119,20,7,Jits_ISO_8,2,5,63,98,2019928384
119,20,7,Jits_ISO_8,3,5,80,127,2019948768
119,20,7,Jits_ISO_8,0,1,48,62,2020630132
119,20,7,Jits_ISO_8,1,5,56,103,2020649188
119,20,7,Jits_ISO_8,2,5,63,98,2020738708
119,20,7,Jits_ISO_8,3,5,80,127,2020798804
119,20,7,Jits_ISO_8,0,1,48,64,2021439736
119,20,7,Jits_ISO_8,1,5,80,127,2021478720
119,20,7,Jits_ISO_8,2,5,56,103,2021489064
119,20,7,Jits_ISO_8,3,5,63,98,2021558880
119,20,7,Jits_ISO_8,0,1,48,61,2022280576
119,20,7,Jits_ISO_8,1,5,63,98,2022309372
119,20,7,Jits_ISO_8,2,5,80,127,2022399444
119,20,7,Jits_ISO_8,3,5,56,103,2022408516
119,20,7,Jits_ISO_8,0,5,63,98,2023048928
119,20,7,Jits_ISO_8,1,5,80,127,2023098760
119,20,7,Jits_ISO_8,2,1,48,54,2023121356
119,20,7,Jits_ISO_8,3,5,56,103,2023159168
119,20,7,Jits_ISO_8,0,5,56,103,2023878980
119,20,7,Jits_ISO_8,1,1,48,59,2023916972
119,20,7,Jits_ISO_8,2,5,80,127,2023929128
119,20,7,Jits_ISO_8,3,5,63,98,2023948616
119,20,7,Jits_ISO_8,0,5,56,103,2024649036
119,20,7,Jits_ISO_8,1,1,48,52,2024678108
119,20,7,Jits_ISO_8,2,5,80,127,2024708548
119,20,7,Jits_ISO_8,3,5,63,98,2024779336
119,20,7,Jits_ISO_8,0,5,56,103,2025448860
119,20,7,Jits_ISO_8,1,5,80,127,2025478536
119,20,7,Jits_ISO_8,2,1,48,44,2025501208
119,20,7,Jits_ISO_8,3,5,63,98,2025509328
119,20,7,Jits_ISO_8,0,1,48,46,2026251692
119,20,7,Jits_ISO_8,1,5,56,103,2026288580
119,20,7,Jits_ISO_8,2,5,80,127,2026308968
119,20,7,Jits_ISO_8,3,5,63,98,2026369492
119,20,7,Jits_ISO_8,0,1,48,39,2027078680
119,20,7,Jits_ISO_8,1,5,80,127,2027169060
119,20,7,Jits_ISO_8,2,5,56,103,2027179464
119,20,7,Jits_ISO_8,3,5,63,98,2027188836
119,20,7,Jits_ISO_8,0,1,48,45,2027920124
119,20,7,Jits_ISO_8,1,5,56,103,2027928916
119,20,7,Jits_ISO_8,2,5,80,127,2027968932
119,20,7,Jits_ISO_8,3,5,63,98,2027998704
119,20,7,Jits_ISO_8,0,5,56,103,2028698892
119,20,7,Jits_ISO_8,1,5,63,98,2028728568
119,20,7,Jits_ISO_8,2,1,48,33,2028761432
119,20,7,Jits_ISO_8,3,5,80,127,2028768524
119,20,7,Jits_ISO_8,0,5,80,127,2029448716
119,20,7,Jits_ISO_8,1,5,63,98,2029498844
119,20,7,Jits_ISO_8,2,5,56,103,2029519156
119,20,7,Jits_ISO_8,3,1,48,47,2029527824
119,20,7,Jits_ISO_8,0,1,48,55,2030264580
119,20,7,Jits_ISO_8,1,5,56,103,2030278924
119,20,7,Jits_ISO_8,2,5,80,127,2030348708
119,20,7,Jits_ISO_8,3,5,63,98,2030409156
119,20,7,Jits_ISO_8,0,1,48,48,2031032900
119,20,7,Jits_ISO_8,1,5,80,127,2031078808
119,20,7,Jits_ISO_8,2,5,63,98,2031168780
119,20,7,Jits_ISO_8,3,5,56,103,2031189464
119,20,7,Jits_ISO_8,0,1,48,40,2031877232
119,20,7,Jits_ISO_8,1,5,63,98,2031899052
119,20,7,Jits_ISO_8,2,5,56,103,2031918464
119,20,7,Jits_ISO_8,3,5,80,127,2031959672
119,20,7,Jits_ISO_8,0,5,80,127,2032658760
119,20,7,Jits_ISO_8,1,5,63,98,2032679220
119,20,7,Jits_ISO_8,2,1,48,51,2032704208
119,20,7,Jits_ISO_8,3,5,56,103,2032759156
119,20,7,Jits_ISO_8,0,5,63,98,2033449412
119,20,7,Jits_ISO_8,1,1,48,52,2033480928
119,20,7,Jits_ISO_8,2,5,56,103,2033558868
119,20,7,Jits_ISO_8,3,5,80,127,2033561936
119,20,7,Jits_ISO_8,0,5,63,98,2034268668
119,20,7,Jits_ISO_8,1,5,56,103,2034278712
119,20,7,Jits_ISO_8,2,1,48,51,2034280292
119,20,7,Jits_ISO_8,3,5,80,127,2034282968
119,20,7,Jits_ISO_8,0,5,56,103,2035048800
119,20,7,Jits_ISO_8,1,1,48,51,2035070876
119,20,7,Jits_ISO_8,2,5,80,127,2035168536
119,20,7,Jits_ISO_8,3,5,63,98,2035208624
119,20,7,Jits_ISO_8,0,5,56,103,2035868980
119,20,7,Jits_ISO_8,1,1,48,45,2035885056
119,20,7,Jits_ISO_8,2,5,80,127,2035948948
119,20,7,Jits_ISO_8,3,5,63,98,2035969628
119,20,7,Jits_ISO_8,0,5,56,103,2036668708
119,20,7,Jits_ISO_8,1,1,48,51,2036721000
119,20,7,Jits_ISO_8,2,5,63,98,2036779536
119,20,7,Jits_ISO_8,3,5,80,127,2036782900
119,20,7,Jits_ISO_8,0,5,56,103,2037499392
119,20,7,Jits_ISO_8,1,1,48,49,2037503112
119,20,7,Jits_ISO_8,2,5,80,127,2037528988
119,20,7,Jits_ISO_8,3,5,63,98,2037549520
119,20,7,Jits_ISO_8,0,5,63,98,2038278368
119,20,7,Jits_ISO_8,1,5,56,103,2038288640
119,20,7,Jits_ISO_8,2,5,80,127,2038298984
119,20,7,Jits_ISO_8,3,1,48,39,2038308696
119,20,7,Jits_ISO_8,0,5,80,127,2039068928
119,20,7,Jits_ISO_8,1,1,48,49,2039088908
119,20,7,Jits_ISO_8,2,5,56,103,2039119348
119,20,7,Jits_ISO_8,3,5,63,98,2039159360
119,20,7,Jits_ISO_8,0,5,80,127,2039889256
119,20,7,Jits_ISO_8,1,5,63,98,2039908744
119,20,7,Jits_ISO_8,2,1,48,49,2039913428
119,20,7,Jits_ISO_8,3,5,56,103,2039958864
119,20,7,Jits_ISO_8,0,5,80,127,2040699392
119,20,7,Jits_ISO_8,1,5,56,103,2040728844
119,20,7,Jits_ISO_8,2,1,48,50,2040732484
119,20,7,Jits_ISO_8,3,5,63,98,2040798692
119,20,7,Jits_ISO_8,0,1,48,49,2041519092
119,20,7,Jits_ISO_8,1,5,56,103,2041549608
119,20,7,Jits_ISO_8,2,5,80,127,2041559432
119,20,7,Jits_ISO_8,3,5,63,98,2041599544
119,20,7,Jits_ISO_8,0,5,56,103,2042258828
119,20,7,Jits_ISO_8,1,5,63,98,2042279216
119,20,7,Jits_ISO_8,2,1,48,50,2042335692
119,20,7,Jits_ISO_8,3,5,80,127,2042348840
119,20,7,Jits_ISO_8,0,5,63,98,2043078928
119,20,7,Jits_ISO_8,1,1,48,50,2043093580
119,20,7,Jits_ISO_8,2,5,80,127,2043138588
119,20,7,Jits_ISO_8,3,5,56,103,2043158900
119,20,7,Jits_ISO_8,0,5,80,127,2043868476
119,20,7,Jits_ISO_8,1,1,48,54,2043893772
119,20,7,Jits_ISO_8,2,5,56,103,2043899268
119,20,7,Jits_ISO_8,3,5,63,98,2043929016
119,20,7,Jits_ISO_8,0,1,48,48,2044667500
119,20,7,Jits_ISO_8,1,5,56,103,2044669388
119,20,7,Jits_ISO_8,2,5,63,98,2044728660
119,20,7,Jits_ISO_8,3,5,80,127,2044789260
119,20,7,Jits_ISO_8,0,5,80,127,2045488516
119,20,7,Jits_ISO_8,1,1,48,49,2045491336
119,20,7,Jits_ISO_8,2,5,56,103,2045508968
119,20,7,Jits_ISO_8,3,5,63,98,2045578500
119,20,7,Jits_ISO_8,0,5,80,127,2046289212
119,20,7,Jits_ISO_8,1,1,48,47,2046295476
119,20,7,Jits_ISO_8,2,5,63,98,2046308844
119,20,7,Jits_ISO_8,3,5,56,103,2046338516
119,20,7,Jits_ISO_8,0,5,80,127,2047078672
119,20,7,Jits_ISO_8,1,1,48,40,2047090552
119,20,7,Jits_ISO_8,2,5,63,98,2047099196
119,20,7,Jits_ISO_8,3,5,56,103,2047158840
119,20,7,Jits_ISO_8,0,5,80,127,2047878396
119,20,7,Jits_ISO_8,1,1,48,30,2047926228
119,20,7,Jits_ISO_8,2,5,56,103,2047978812
119,20,7,Jits_ISO_8,3,5,63,98,2048008412
119,20,7,Jits_ISO_8,0,5,63,98,2048669280
119,20,7,Jits_ISO_8,1,5,80,127,2048719188
119,20,7,Jits_ISO_8,2,5,56,103,2048738700
119,20,7,Jits_ISO_8,3,1,48,40,2048764584
119,20,7,Jits_ISO_8,0,5,80,127,2049508572
119,20,7,Jits_ISO_8,1,1,48,31,2049521652
119,20,7,Jits_ISO_8,2,5,56,103,2049538464
119,20,7,Jits_ISO_8,3,5,63,98,2049541604
119,20,7,Jits_ISO_8,0,1,48,35,2050278960
119,20,7,Jits_ISO_8,1,5,63,98,2050339144
119,20,7,Jits_ISO_8,2,5,56,103,2050379368
119,20,7,Jits_ISO_8,3,5,80,127,2050398556
119,20,7,Jits_ISO_8,0,1,48,35,2051073940
119,20,7,Jits_ISO_8,1,5,80,127,2051078544
119,20,7,Jits_ISO_8,2,5,63,98,2051159316
119,20,7,Jits_ISO_8,3,5,56,103,2051199236
119,20,7,Jits_ISO_8,0,1,48,37,2051862264
119,20,7,Jits_ISO_8,1,5,63,98,2051898708
119,20,7,Jits_ISO_8,2,5,80,127,2051978564
119,20,7,Jits_ISO_8,3,5,56,103,2051999396
119,20,7,Jits_ISO_8,0,1,48,31,2052699444
119,20,7,Jits_ISO_8,1,5,56,103,2052738356
119,20,7,Jits_ISO_8,2,5,63,98,2052748628
119,20,7,Jits_ISO_8,3,5,80,127,2052788564
119,20,7,Jits_ISO_8,0,5,56,103,2053459252
119,20,7,Jits_ISO_8,1,5,80,127,2053462392
119,20,7,Jits_ISO_8,2,1,48,30,2053513464
119,20,7,Jits_ISO_8,3,5,63,98,2053598696
119,20,7,Jits_ISO_8,0,5,56,103,2054248772
119,20,7,Jits_ISO_8,1,1,48,29,2054278200
119,20,7,Jits_ISO_8,2,5,63,98,2054338904
119,20,7,Jits_ISO_8,3,5,80,127,2054408520
119,20,7,Jits_ISO_8,0,1,48,30,2055064864
119,20,7,Jits_ISO_8,1,5,63,98,2055128432
119,20,7,Jits_ISO_8,2,5,80,127,2055132044
119,20,7,Jits_ISO_8,3,5,56,103,2055189052
119,20,7,Jits_ISO_8,0,1,48,33,2055877988
119,20,7,Jits_ISO_8,1,5,80,127,2055969068
119,20,7,Jits_ISO_8,2,5,56,103,2055988540
119,20,7,Jits_ISO_8,3,5,63,98,2055999108
119,20,7,Jits_ISO_8,0,5,56,103,2056678808
119,20,7,Jits_ISO_8,1,5,63,98,2056689300
119,20,7,Jits_ISO_8,2,1,48,33,2056725608
119,20,7,Jits_ISO_8,3,5,80,127,2056758604
119,20,7,Jits_ISO_8,0,5,80,127,2057478380
119,20,7,Jits_ISO_8,1,1,48,40,2057493104
119,20,7,Jits_ISO_8,2,5,56,103,2057528796
119,20,7,Jits_ISO_8,3,5,63,98,2057579148
119,20,7,Jits_ISO_8,0,1,48,41,2058300244
119,20,7,Jits_ISO_8,1,5,56,103,2058359088
119,20,7,Jits_ISO_8,2,5,63,98,2058369508
119,20,7,Jits_ISO_8,3,5,80,127,2058409356
119,20,7,Jits_ISO_8,0,5,56,103,2059098348
119,20,7,Jits_ISO_8,1,1,48,38,2059112480
119,20,7,Jits_ISO_8,2,5,63,98,2059138504
119,20,7,Jits_ISO_8,3,5,80,127,2059188628
119,20,7,Jits_ISO_8,0,5,80,127,2059859184
119,20,7,Jits_ISO_8,1,5,56,103,2059908492
119,20,7,Jits_ISO_8,2,1,48,29,2059916864
119,20,7,Jits_ISO_8,3,5,63,98,2059928944
119,20,7,Jits_ISO_8,0,5,80,127,2060669244
119,20,7,Jits_ISO_8,1,1,48,37,2060719716
119,20,7,Jits_ISO_8,2,5,63,98,2060728732
119,20,7,Jits_ISO_8,3,5,56,103,2060808552
119,20,7,Jits_ISO_8,0,5,80,127,2061448516
119,20,7,Jits_ISO_8,1,5,56,103,2061488456
119,20,7,Jits_ISO_8,2,5,63,98,2061509212
119,20,7,Jits_ISO_8,3,1,48,41,2061577912
119,20,7,Jits_ISO_8,0,1,48,35,2062254856
119,20,7,Jits_ISO_8,1,5,56,103,2062298520
119,20,7,Jits_ISO_8,2,5,80,127,2062309016
119,20,7,Jits_ISO_8,3,5,63,98,2062348792
119,20,7,Jits_ISO_8,0,1,48,46,2063030672
119,20,7,Jits_ISO_8,1,5,56,103,2063168940
119,20,7,Jits_ISO_8,2,5,63,98,2063209028
119,20,7,Jits_ISO_8,3,5,80,127,2063212392
119,20,7,Jits_ISO_8,0,5,63,98,2063858988
119,20,7,Jits_ISO_8,1,5,80,127,2063899224
119,20,7,Jits_ISO_8,2,1,48,45,2063918756
119,20,7,Jits_ISO_8,3,5,56,103,2063968676
119,20,7,Jits_ISO_8,0,5,63,98,2064648508
119,20,7,Jits_ISO_8,1,1,48,45,2064655888
119,20,7,Jits_ISO_8,2,5,56,103,2064728376
119,20,7,Jits_ISO_8,3,5,80,127,2064789048
119,20,7,Jits_ISO_8,0,1,48,44,2065453420
119,20,7,Jits_ISO_8,1,5,80,127,2065458548
119,20,7,Jits_ISO_8,2,5,63,98,2065508900
119,20,7,Jits_ISO_8,3,5,56,103,2065538352
119,20,7,Jits_ISO_8,0,1,48,46,2066214832
119,20,7,Jits_ISO_8,1,5,56,103,2066249036
119,20,7,Jits_ISO_8,2,5,63,98,2066299240
119,20,7,Jits_ISO_8,3,5,80,127,2066308388
119,20,7,Jits_ISO_8,0,1,48,41,2067011024
119,20,7,Jits_ISO_8,1,5,56,103,2067059000
119,20,7,Jits_ISO_8,2,5,63,98,2067168700
119,20,7,Jits_ISO_8,3,5,80,127,2067189084
119,20,7,Jits_ISO_8,0,1,48,43,2067831708
119,20,7,Jits_ISO_8,1,5,63,98,2067858936
119,20,7,Jits_ISO_8,2,5,80,127,2067909136
119,20,7,Jits_ISO_8,3,5,56,103,2067999056
119,20,7,Jits_ISO_8,0,5,63,98,2068649432
119,20,7,Jits_ISO_8,1,1,48,45,2068654272
119,20,7,Jits_ISO_8,2,5,80,127,2068679028
119,20,7,Jits_ISO_8,3,5,56,103,2068769096
119,20,7,Jits_ISO_8,0,1,48,44,2069435984
119,20,7,Jits_ISO_8,1,5,63,98,2069449132
119,20,7,Jits_ISO_8,2,5,56,103,2069459252
119,20,7,Jits_ISO_8,3,5,80,127,2069558612
119,20,7,Jits_ISO_8,0,1,48,40,2070227464
119,20,7,Jits_ISO_8,1,5,63,98,2070349096
119,20,7,Jits_ISO_8,2,5,80,127,2070378848
119,20,7,Jits_ISO_8,3,5,56,103,2070408448
119,20,7,Jits_ISO_8,0,1,48,41,2071125120
119,20,7,Jits_ISO_8,1,5,80,127,2071169580
119,20,7,Jits_ISO_8,2,5,63,98,2071178728
119,20,7,Jits_ISO_8,3,5,56,103,2071209452
119,20,7,Jits_ISO_8,0,5,80,127,2071868756
119,20,7,Jits_ISO_8,1,5,63,98,2071889292
119,20,7,Jits_ISO_8,2,5,56,103,2071938444
119,20,7,Jits_ISO_8,3,1,48,39,2071942536
119,20,7,Jits_ISO_8,0,1,48,35,2072649188
119,20,7,Jits_ISO_8,1,5,63,98,2072699336
119,20,7,Jits_ISO_8,2,5,80,127,2072758816
119,20,7,Jits_ISO_8,3,5,56,103,2072779052
119,20,7,Jits_ISO_8,0,5,63,98,2073459044
119,20,7,Jits_ISO_8,1,1,48,37,2073474300
119,20,7,Jits_ISO_8,2,5,56,103,2073509168
119,20,7,Jits_ISO_8,3,5,80,127,2073518316
119,20,7,Jits_ISO_8,0,1,48,36,2074257452
119,20,7,Jits_ISO_8,1,5,56,103,2074288784
119,20,7,Jits_ISO_8,2,5,80,127,2074298832
119,20,7,Jits_ISO_8,3,5,63,98,2074399016
119,20,7,Jits_ISO_8,0,5,80,127,2075049312
119,20,7,Jits_ISO_8,1,1,48,31,2075051984
119,20,7,Jits_ISO_8,2,5,63,98,2075058756
119,20,7,Jits_ISO_8,3,5,56,103,2075209056
119,20,7,Jits_ISO_8,0,5,63,98,2075859372
119,20,7,Jits_ISO_8,1,1,48,24,2075872032
119,20,7,Jits_ISO_8,2,5,80,127,2075899332
119,20,7,Jits_ISO_8,3,5,56,103,2075979112
119,20,7,Jits_ISO_8,0,5,56,103,2076648988
119,20,7,Jits_ISO_8,1,1,48,28,2076679312
119,20,7,Jits_ISO_8,2,5,80,127,2076749308
119,20,7,Jits_ISO_8,3,5,63,98,2076768720
119,20,7,Jits_ISO_8,0,1,48,23,2077460520
119,20,7,Jits_ISO_8,1,5,80,127,2077509020
119,20,7,Jits_ISO_8,2,5,56,103,2077519216
119,20,7,Jits_ISO_8,3,5,63,98,2077609408
119,20,7,Jits_ISO_8,0,1,48,29,2078291468
119,20,7,Jits_ISO_8,1,5,56,103,2078308732
119,20,7,Jits_ISO_8,2,5,63,98,2078329264
119,20,7,Jits_ISO_8,3,5,80,127,2078409044
119,20,7,Jits_ISO_8,0,5,63,98,2079059448
119,20,7,Jits_ISO_8,1,1,48,20,2079089768
119,20,7,Jits_ISO_8,2,5,56,103,2079149804
119,20,7,Jits_ISO_8,3,5,80,127,2079152716
119,20,7,Jits_ISO_8,0,5,56,103,2079888668
119,20,7,Jits_ISO_8,1,1,48,37,2079907228
119,20,7,Jits_ISO_8,2,5,80,127,2079949204
119,20,7,Jits_ISO_8,3,5,63,98,2079959548
119,20,7,Jits_ISO_8,0,1,48,30,2080697880
119,20,7,Jits_ISO_8,1,5,80,127,2080738832
119,20,7,Jits_ISO_8,2,5,56,103,2080748876
119,20,7,Jits_ISO_8,3,5,63,98,2080752092
119,20,7,Jits_ISO_8,0,1,48,27,2081489936
119,20,7,Jits_ISO_8,1,5,56,103,2081498448
119,20,7,Jits_ISO_8,2,5,80,127,2081508720
119,20,7,Jits_ISO_8,3,5,63,98,2081529104
119,20,7,Jits_ISO_8,0,5,63,98,2082268640
119,20,7,Jits_ISO_8,1,1,48,32,2082279180
119,20,7,Jits_ISO_8,2,5,80,127,2082328876
119,20,7,Jits_ISO_8,3,5,56,103,2082379064
119,20,7,Jits_ISO_8,0,1,48,24,2083082324
119,20,7,Jits_ISO_8,1,5,63,98,2083149108
119,20,7,Jits_ISO_8,2,5,56,103,2083159380
119,20,7,Jits_ISO_8,3,5,80,127,2083208744
119,20,7,Jits_ISO_8,0,5,63,98,2083848808
119,20,7,Jits_ISO_8,1,5,80,127,2083868968
119,20,7,Jits_ISO_8,2,5,56,103,2083879388
119,20,7,Jits_ISO_8,3,1,48,22,2083909552
119,20,7,Jits_ISO_8,4,1,48,39,2083914096
119,20,7,Jits_ISO_8,0,5,63,98,2084649328
119,20,7,Jits_ISO_8,1,5,80,127,2084652764
119,20,7,Jits_ISO_8,2,1,48,38,2084685480
119,20,7,Jits_ISO_8,3,5,56,103,2084689184
119,20,7,Jits_ISO_8,0,1,48,32,2085466676
119,20,7,Jits_ISO_8,1,5,63,98,2085518768
119,20,7,Jits_ISO_8,2,5,80,127,2085549568
119,20,7,Jits_ISO_8,3,5,56,103,2085558776
119,20,7,Jits_ISO_8,0,1,48,31,2086255360
119,20,7,Jits_ISO_8,1,5,56,103,2086269556
119,20,7,Jits_ISO_8,2,5,80,127,2086298860
119,20,7,Jits_ISO_8,3,5,63,98,2086328756
119,20,7,Jits_ISO_8,0,1,48,28,2087040688
119,20,7,Jits_ISO_8,1,5,63,98,2087169448
119,20,7,Jits_ISO_8,2,5,56,103,2087209608
119,20,7,Jits_ISO_8,3,5,80,127,2087212600
119,20,7,Jits_ISO_8,0,5,80,127,2087868904
119,20,7,Jits_ISO_8,1,1,48,22,2087899548
119,20,7,Jits_ISO_8,2,5,56,103,2087948648
119,20,7,Jits_ISO_8,3,5,63,98,2087998832
119,20,7,Jits_ISO_8,0,5,80,127,2088648924
119,20,7,Jits_ISO_8,1,5,56,103,2088668660
119,20,7,Jits_ISO_8,2,1,48,27,2088737488
119,20,7,Jits_ISO_8,3,5,63,98,2088758712
119,20,7,Jits_ISO_8,0,5,80,127,2089488680
119,20,7,Jits_ISO_8,1,1,48,36,2089510156
119,20,7,Jits_ISO_8,2,5,63,98,2089528540
119,20,7,Jits_ISO_8,3,5,56,103,2089568552
119,20,7,Jits_ISO_8,0,5,63,98,2090258804
119,20,7,Jits_ISO_8,1,5,80,127,2090319572
119,20,7,Jits_ISO_8,2,1,48,45,2090323588
119,20,7,Jits_ISO_8,3,5,56,103,2090348868
119,20,7,Jits_ISO_8,0,5,56,103,2091058660
119,20,7,Jits_ISO_8,1,1,48,42,2091085900
119,20,7,Jits_ISO_8,2,5,80,127,2091089228
119,20,7,Jits_ISO_8,3,5,63,98,2091180392
119,20,7,Jits_ISO_8,0,5,56,103,2091868648
119,20,7,Jits_ISO_8,1,1,48,33,2091876572
119,20,7,Jits_ISO_8,2,5,80,127,2091979212
119,20,7,Jits_ISO_8,3,5,63,98,2092008912
119,20,7,Jits_ISO_8,0,1,48,34,2092708204
119,20,7,Jits_ISO_8,1,5,56,103,2092718416
119,20,7,Jits_ISO_8,2,5,63,98,2092778836
119,20,7,Jits_ISO_8,3,5,80,127,2092808720
119,20,7,Jits_ISO_8,0,1,48,34,2093486880
119,20,7,Jits_ISO_8,1,5,56,103,2093488612
119,20,7,Jits_ISO_8,2,5,63,98,2093559144
119,20,7,Jits_ISO_8,3,5,80,127,2093578556
119,20,7,Jits_ISO_8,0,5,80,127,2094258656
119,20,7,Jits_ISO_8,1,5,63,98,2094278968
119,20,7,Jits_ISO_8,2,1,48,32,2094295640
119,20,7,Jits_ISO_8,3,5,56,103,2094329384
119,20,7,Jits_ISO_8,0,9999,9999,9999,1999527024
119,20,7,Jits_ISO_8,1,9999,9999,9999,2000326728
119,20,7,Jits_ISO_8,2,9999,9999,9999,2001126452
119,20,7,Jits_ISO_8,3,9999,9999,9999,2001926248
119,20,7,Jits_ISO_8,4,9999,9999,9999,2002727012
119,20,7,Jits_ISO_8,5,9999,9999,9999,2003526724
119,20,7,Jits_ISO_8,6,9999,9999,9999,2004326504
119,20,7,Jits_ISO_8,7,9999,9999,9999,2005126228
119,20,7,Jits_ISO_8,8,9999,9999,9999,2005926988
119,20,7,Jits_ISO_8,9,9999,9999,9999,2006726756
119,20,7,Jits_ISO_8,10,9999,9999,9999,2007526516
119,20,7,Jits_ISO_8,11,9999,9999,9999,2008326228
119,20,7,Jits_ISO_8,12,9999,9999,9999,2009126988
119,20,7,Jits_ISO_8,13,9999,9999,9999,2009926772
119,20,7,Jits_ISO_8,14,9999,9999,9999,2010726520
119,20,7,Jits_ISO_8,15,9999,9999,9999,2011526236
119,20,7,Jits_ISO_8,16,9999,9999,9999,2012326980
119,20,7,Jits_ISO_8,17,9999,9999,9999,2013126708
119,20,7,Jits_ISO_8,18,9999,9999,9999,2013926524
119,20,7,Jits_ISO_8,19,9999,9999,9999,2014726236
119,20,7,Jits_ISO_8,20,9999,9999,9999,2015526988
119,20,7,Jits_ISO_8,21,9999,9999,9999,2016326772
119,20,7,Jits_ISO_8,22,9999,9999,9999,2017126488
119,20,7,Jits_ISO_8,23,9999,9999,9999,2017926196
119,20,7,Jits_ISO_8,24,9999,9999,9999,2018727024
119,20,7,Jits_ISO_8,25,9999,9999,9999,2019526732
119,20,7,Jits_ISO_8,26,9999,9999,9999,2020326480
119,20,7,Jits_ISO_8,27,9999,9999,9999,2021126264
119,20,7,Jits_ISO_8,28,9999,9999,9999,2021927020
119,20,7,Jits_ISO_8,29,9999,9999,9999,2022726736
119,20,7,Jits_ISO_8,30,9999,9999,9999,2023526520
119,20,7,Jits_ISO_8,31,9999,9999,9999,2024326228
119,20,7,Jits_ISO_8,32,9999,9999,9999,2025127000
119,20,7,Jits_ISO_8,33,9999,9999,9999,2025926720
119,20,7,Jits_ISO_8,34,9999,9999,9999,2026726468
119,20,7,Jits_ISO_8,35,9999,9999,9999,2027526260
119,20,7,Jits_ISO_8,36,9999,9999,9999,2028327024
119,20,7,Jits_ISO_8,37,9999,9999,9999,2029126732
119,20,7,Jits_ISO_8,38,9999,9999,9999,2029926452
119,20,7,Jits_ISO_8,39,9999,9999,9999,2030726252
119,20,7,Jits_ISO_8,40,9999,9999,9999,2031527012
119,20,7,Jits_ISO_8,41,9999,9999,9999,2032326728
119,20,7,Jits_ISO_8,42,9999,9999,9999,2033126456
119,20,7,Jits_ISO_8,43,9999,9999,9999,2033926244
119,20,7,Jits_ISO_8,44,9999,9999,9999,2034726984
119,20,7,Jits_ISO_8,45,9999,9999,9999,2035526768
119,20,7,Jits_ISO_8,46,9999,9999,9999,2036326496
119,20,7,Jits_ISO_8,47,9999,9999,9999,2037126212
119,20,7,Jits_ISO_8,48,9999,9999,9999,2037926984
119,20,7,Jits_ISO_8,49,9999,9999,9999,2038726776
119,20,7,Jits_ISO_8,50,9999,9999,9999,2039526512
119,20,7,Jits_ISO_8,51,9999,9999,9999,2040326236
119,20,7,Jits_ISO_8,52,9999,9999,9999,2041127012
119,20,7,Jits_ISO_8,53,9999,9999,9999,2041926744
119,20,7,Jits_ISO_8,54,9999,9999,9999,2042726524
119,20,7,Jits_ISO_8,55,9999,9999,9999,2043526252
119,20,7,Jits_ISO_8,56,9999,9999,9999,2044327008
119,20,7,Jits_ISO_8,57,9999,9999,9999,2045126732
119,20,7,Jits_ISO_8,58,9999,9999,9999,2045926472
119,20,7,Jits_ISO_8,59,9999,9999,9999,2046726268
119,20,7,Jits_ISO_8,60,9999,9999,9999,2047526964
119,20,7,Jits_ISO_8,61,9999,9999,9999,2048326768
119,20,7,Jits_ISO_8,62,9999,9999,9999,2049126492
119,20,7,Jits_ISO_8,63,9999,9999,9999,2049926264
119,20,7,Jits_ISO_8,64,9999,9999,9999,2050726964
119,20,7,Jits_ISO_8,65,9999,9999,9999,2051526748
119,20,7,Jits_ISO_8,66,9999,9999,9999,2052326484
119,20,7,Jits_ISO_8,67,9999,9999,9999,2053126200
119,20,7,Jits_ISO_8,68,9999,9999,9999,2053927016
119,20,7,Jits_ISO_8,69,9999,9999,9999,2054726736
119,20,7,Jits_ISO_8,70,9999,9999,9999,2055526456
119,20,7,Jits_ISO_8,71,9999,9999,9999,2056326248
119,20,7,Jits_ISO_8,72,9999,9999,9999,2057127000
119,20,7,Jits_ISO_8,73,9999,9999,9999,2057926720
119,20,7,Jits_ISO_8,74,9999,9999,9999,2058726480
119,20,7,Jits_ISO_8,75,9999,9999,9999,2059526264
119,20,7,Jits_ISO_8,76,9999,9999,9999,2060327032
119,20,7,Jits_ISO_8,77,9999,9999,9999,2061126756
119,20,7,Jits_ISO_8,78,9999,9999,9999,2061926472
119,20,7,Jits_ISO_8,79,9999,9999,9999,2062726196
119,20,7,Jits_ISO_8,80,9999,9999,9999,2063527028
119,20,7,Jits_ISO_8,81,9999,9999,9999,2064326736
119,20,7,Jits_ISO_8,82,9999,9999,9999,2065126472
119,20,7,Jits_ISO_8,83,9999,9999,9999,2065926252
119,20,7,Jits_ISO_8,84,9999,9999,9999,2066727000
119,20,7,Jits_ISO_8,85,9999,9999,9999,2067526708
119,20,7,Jits_ISO_8,86,9999,9999,9999,2068326492
119,20,7,Jits_ISO_8,87,9999,9999,9999,2069126196
119,20,7,Jits_ISO_8,88,9999,9999,9999,2069927024
119,20,7,Jits_ISO_8,89,9999,9999,9999,2070726740
119,20,7,Jits_ISO_8,90,9999,9999,9999,2071526488
119,20,7,Jits_ISO_8,91,9999,9999,9999,2072326264
119,20,7,Jits_ISO_8,92,9999,9999,9999,2073126960
119,20,7,Jits_ISO_8,93,9999,9999,9999,2073926740
119,20,7,Jits_ISO_8,94,9999,9999,9999,2074726524
119,20,7,Jits_ISO_8,95,9999,9999,9999,2075526228
119,20,7,Jits_ISO_8,96,9999,9999,9999,2076327000
119,20,7,Jits_ISO_8,97,9999,9999,9999,2077126780
119,20,7,Jits_ISO_8,98,9999,9999,9999,2077926456
119,20,7,Jits_ISO_8,99,9999,9999,9999,2078726244
119,20,7,Jits_ISO_8,100,9999,9999,9999,2079526988
119,20,7,Jits_ISO_8,101,9999,9999,9999,2080326772
119,20,7,Jits_ISO_8,102,9999,9999,9999,2081126488
119,20,7,Jits_ISO_8,103,9999,9999,9999,2081926196
119,20,7,Jits_ISO_8,104,9999,9999,9999,2082727024
119,20,7,Jits_ISO_8,105,9999,9999,9999,2083526740
119,20,7,Jits_ISO_8,106,9999,9999,9999,2084326520
119,20,7,Jits_ISO_8,107,9999,9999,9999,2085126228
119,20,7,Jits_ISO_8,108,9999,9999,9999,2085926992
119,20,7,Jits_ISO_8,109,9999,9999,9999,2086726768
119,20,7,Jits_ISO_8,110,9999,9999,9999,2087526484
119,20,7,Jits_ISO_8,111,9999,9999,9999,2088326196
119,20,7,Jits_ISO_8,112,9999,9999,9999,2089127032
119,20,7,Jits_ISO_8,113,9999,9999,9999,2089926760
119,20,7,Jits_ISO_8,114,9999,9999,9999,2090726504
119,20,7,Jits_ISO_8,115,9999,9999,9999,2091526212
119,20,7,Jits_ISO_8,116,9999,9999,9999,2092326984
119,20,7,Jits_ISO_8,117,9999,9999,9999,2093126716
119,20,7,Jits_ISO_8,118,9999,9999,9999,2093926500
119,20,7,Jits_ISO_8,119,9999,9999,9999,2094726252
119,21,5,ISIP_5,0,5,42,127,2169280832
119,21,5,ISIP_5,1,5,42,127,2169780476
119,21,5,ISIP_5,2,5,42,127,2170281312
119,21,5,ISIP_5,3,5,42,127,2170781252
119,21,5,ISIP_5,4,1,48,65,2171240316
119,21,5,ISIP_5,5,5,42,127,2171280668
119,21,5,ISIP_5,6,1,48,60,2171708972
119,21,5,ISIP_5,7,5,42,127,2171780512
119,21,5,ISIP_5,8,1,48,55,2172228260
119,21,5,ISIP_5,9,5,42,127,2172281176
119,21,5,ISIP_5,10,1,48,51,2172737608
119,21,5,ISIP_5,11,5,42,127,2172781096
119,21,5,ISIP_5,12,1,48,63,2173252184
119,21,5,ISIP_5,13,5,42,127,2173280716
119,21,5,ISIP_5,14,1,48,52,2173768484
119,21,5,ISIP_5,15,5,42,127,2173781308
119,21,5,ISIP_5,16,1,48,59,2174260920
119,21,5,ISIP_5,17,5,42,127,2174281152
119,21,5,ISIP_5,18,5,42,127,2174780776
119,21,5,ISIP_5,19,1,48,60,2174788012
119,21,5,ISIP_5,20,5,42,127,2175280400
119,21,5,ISIP_5,21,1,48,60,2175283964
119,21,5,ISIP_5,22,5,42,127,2175781288
119,21,5,ISIP_5,23,1,48,57,2175806324
119,21,5,ISIP_5,24,1,48,53,2176272792
119,21,5,ISIP_5,25,5,42,127,2176281124
119,21,5,ISIP_5,26,5,42,127,2176780752
119,21,5,ISIP_5,27,1,48,54,2176783272
119,21,5,ISIP_5,28,5,42,127,2177281496
119,21,5,ISIP_5,29,1,48,53,2177305408
119,21,5,ISIP_5,30,5,42,127,2177781116
119,21,5,ISIP_5,31,1,48,51,2177803312
119,21,5,ISIP_5,32,5,42,127,2178280960
119,21,5,ISIP_5,33,1,48,50,2178292528
119,21,5,ISIP_5,34,5,42,127,2178780576
119,21,5,ISIP_5,35,1,48,57,2178798136
119,21,5,ISIP_5,36,5,42,127,2179281224
119,21,5,ISIP_5,37,1,48,51,2179295488
119,21,5,ISIP_5,38,5,42,127,2179781192
119,21,5,ISIP_5,39,1,48,48,2179807076
119,21,5,ISIP_5,40,5,42,127,2180280664
119,21,5,ISIP_5,41,1,48,52,2180305176
119,21,5,ISIP_5,42,5,42,127,2180781408
119,21,5,ISIP_5,43,1,48,52,2180799708
119,21,5,ISIP_5,44,5,42,127,2181281100
119,21,5,ISIP_5,45,1,48,50,2181301120
119,21,5,ISIP_5,46,5,42,127,2181780940
119,21,5,ISIP_5,47,1,48,52,2181789000
119,21,5,ISIP_5,48,1,48,57,2182279808
119,21,5,ISIP_5,49,5,42,127,2182281456
119,21,5,ISIP_5,50,1,48,51,2182772960
119,21,5,ISIP_5,51,5,42,127,2182781220
119,21,5,ISIP_5,52,5,42,127,2183280924
119,21,5,ISIP_5,53,1,48,48,2183283968
119,21,5,ISIP_5,54,5,42,127,2183780840
119,21,5,ISIP_5,55,1,48,48,2183789124
119,21,5,ISIP_5,56,5,42,127,2184280388
119,21,5,ISIP_5,57,1,48,50,2184287168
119,21,5,ISIP_5,58,5,42,127,2184781128
119,21,5,ISIP_5,59,1,48,54,2184790532
119,21,5,ISIP_5,60,5,42,127,2185280824
119,21,5,ISIP_5,61,1,48,51,2185298824
119,21,5,ISIP_5,62,5,42,127,2185780740
119,21,5,ISIP_5,63,1,48,49,2185793884
119,21,5,ISIP_5,64,5,42,127,2186281336
119,21,5,ISIP_5,65,1,48,55,2186292908
119,21,5,ISIP_5,66,5,42,127,2186781104
119,21,5,ISIP_5,67,1,48,52,2186805548
119,21,5,ISIP_5,68,5,42,127,2187280876
119,21,5,ISIP_5,69,1,48,50,2187302692
119,21,5,ISIP_5,70,5,42,127,2187780644
119,21,5,ISIP_5,71,1,48,48,2187794764
119,21,5,ISIP_5,72,5,42,127,2188281236
119,21,5,ISIP_5,73,1,48,50,2188293556
119,21,5,ISIP_5,74,1,48,48,2188779652
119,21,5,ISIP_5,75,5,42,127,2188781148
119,21,5,ISIP_5,76,1,48,49,2189288008
119,21,5,ISIP_5,77,1,48,53,2189773520
119,21,5,ISIP_5,78,1,48,49,2190300700
119,21,5,ISIP_5,79,1,48,51,2190811688
119,21,5,ISIP_5,80,1,48,52,2191338376
119,21,5,ISIP_5,81,1,48,50,2191856172
119,21,5,ISIP_5,82,1,48,47,2192390864
119,21,5,ISIP_5,83,1,48,49,2192915540
119,21,5,ISIP_5,84,1,48,49,2193437592
119,21,5,ISIP_5,85,1,48,48,2193976556
119,21,5,ISIP_5,86,1,48,48,2194495768
119,21,5,ISIP_5,87,1,48,48,2195043628
119,21,5,ISIP_5,88,1,48,49,2195568000
119,21,5,ISIP_5,89,1,48,52,2196080856
119,21,5,ISIP_5,90,1,48,56,2196616824
119,21,5,ISIP_5,91,1,48,51,2197139628
119,21,5,ISIP_5,92,1,48,55,2197667664
119,21,5,ISIP_5,93,1,48,55,2198179024
119,21,5,ISIP_5,94,1,48,54,2198701304
119,21,5,ISIP_5,95,1,48,54,2199239588
119,21,5,ISIP_5,96,1,48,54,2199779036
119,21,5,ISIP_5,97,1,48,53,2200295856
119,21,5,ISIP_5,98,1,48,54,2200809984
119,21,5,ISIP_5,99,1,48,54,2201338996
119,21,5,ISIP_5,100,1,48,54,2201831876
119,21,5,ISIP_5,101,1,48,52,2202345404
119,21,5,ISIP_5,102,1,48,54,2202879652
119,21,5,ISIP_5,103,1,48,52,2203413676
119,21,5,ISIP_5,104,1,48,55,2203953384
119,21,5,ISIP_5,105,1,48,62,2204485836
119,21,5,ISIP_5,106,1,48,60,2204999812
119,21,5,ISIP_5,107,1,48,60,2205536076
119,21,5,ISIP_5,108,1,48,67,2206057012
119,21,5,ISIP_5,109,1,48,63,2206595596
119,21,5,ISIP_5,110,1,48,61,2207117356
119,21,5,ISIP_5,111,1,48,58,2207663196
119,21,5,ISIP_5,112,1,48,68,2208191080
119,21,5,ISIP_5,113,1,48,64,2208721588
119,21,5,ISIP_5,114,1,48,63,2209253968
119,21,5,ISIP_5,115,1,48,66,2209792420
119,21,5,ISIP_5,116,1,48,64,2210323296
119,21,5,ISIP_5,117,1,48,59,2210855748
119,21,5,ISIP_5,118,1,48,59,2211392316
119,21,5,ISIP_5,119,1,48,58,2211923052
119,21,5,ISIP_5,120,1,48,69,2212462528
119,21,5,ISIP_5,121,1,48,58,2212989972
119,21,5,ISIP_5,122,1,48,59,2213540224
119,21,5,ISIP_5,123,1,48,62,2214067296
119,21,5,ISIP_5,124,1,48,60,2214600188
119,21,5,ISIP_5,125,1,48,68,2215117984
119,21,5,ISIP_5,126,1,48,65,2215660328
119,21,5,ISIP_5,127,1,48,52,2216193604
119,21,5,ISIP_5,128,1,48,62,2216717980
119,21,5,ISIP_5,129,1,48,55,2217254172
119,21,5,ISIP_5,130,1,48,69,2217782148
119,21,5,ISIP_5,131,1,48,61,2218297404
119,21,5,ISIP_5,132,1,48,60,2218853036
119,21,5,ISIP_5,133,1,48,57,2219365292
119,21,5,ISIP_5,134,1,48,62,2219916144
119,21,5,ISIP_5,135,1,48,65,2220447252
119,21,5,ISIP_5,136,1,48,65,2220984344
119,21,5,ISIP_5,137,1,48,62,2221540976
119,21,5,ISIP_5,138,1,48,59,2222074176
119,21,5,ISIP_5,139,1,48,57,2222615080
119,21,5,ISIP_5,140,1,48,63,2223149328
119,21,5,ISIP_5,141,1,48,69,2223689632
119,21,5,ISIP_5,142,1,48,59,2224235552
119,21,5,ISIP_5,143,1,48,66,2224770100
119,21,5,ISIP_5,144,1,48,59,2225296804
119,21,5,ISIP_5,145,1,48,62,2225846308
119,21,5,ISIP_5,146,1,48,65,2226387908
119,21,5,ISIP_5,147,1,48,61,2226926120
119,21,5,ISIP_5,148,1,48,61,2227469792
119,21,5,ISIP_5,149,1,48,55,2228022740
119,21,5,ISIP_5,150,1,48,62,2228534324
119,21,5,ISIP_5,151,1,48,64,2229077916
119,21,5,ISIP_5,152,1,48,71,2229600120
119,21,5,ISIP_5,153,1,48,70,2230148656
119,21,5,ISIP_5,154,1,48,66,2230658448
119,21,5,ISIP_5,155,1,48,57,2231209744
119,21,5,ISIP_5,156,1,48,62,2231729108
119,21,5,ISIP_5,157,1,48,69,2232258492
119,21,5,ISIP_5,158,1,48,63,2232795096
119,21,5,ISIP_5,159,1,48,60,2233343704
119,21,5,ISIP_5,160,1,48,62,2233865540
119,21,5,ISIP_5,161,1,48,69,2234411452
119,21,5,ISIP_5,162,1,48,64,2234953104
119,21,5,ISIP_5,163,1,48,61,2235501560
119,21,5,ISIP_5,164,1,48,62,2236036856
119,21,5,ISIP_5,165,1,48,63,2236583000
119,21,5,ISIP_5,166,1,48,70,2237112608
119,21,5,ISIP_5,167,1,48,58,2237661316
119,21,5,ISIP_5,168,1,48,62,2238222040
119,21,5,ISIP_5,169,1,48,64,2238758380
119,21,5,ISIP_5,170,1,48,58,2239292496
119,21,5,ISIP_5,171,1,48,63,2239829136
119,21,5,ISIP_5,172,1,48,61,2240387096
119,21,5,ISIP_5,173,1,48,57,2240923280
119,21,5,ISIP_5,174,1,48,61,2241461116
119,21,5,ISIP_5,175,1,48,63,2241994020
119,21,5,ISIP_5,176,1,48,68,2242525072
119,21,5,ISIP_5,177,1,48,61,2243048480
119,21,5,ISIP_5,178,1,48,62,2243591700
119,21,5,ISIP_5,179,1,48,71,2244126096
119,21,5,ISIP_5,180,1,48,63,2244661616
119,21,5,ISIP_5,181,1,48,62,2245183072
119,21,5,ISIP_5,182,1,48,66,2245709388
119,21,5,ISIP_5,183,1,48,71,2246233984
119,21,5,ISIP_5,184,1,48,64,2246765768
119,21,5,ISIP_5,185,1,48,61,2247294764
119,21,5,ISIP_5,186,1,48,67,2247844872
119,21,5,ISIP_5,187,1,48,62,2248372760
119,21,5,ISIP_5,188,1,48,45,2248906332
119,21,5,ISIP_5,0,9999,9999,9999,2169278548
119,21,5,ISIP_5,1,9999,9999,9999,2169778264
119,21,5,ISIP_5,2,9999,9999,9999,2170279028
119,21,5,ISIP_5,3,9999,9999,9999,2170778744
119,21,5,ISIP_5,4,9999,9999,9999,2171278456
119,21,5,ISIP_5,5,9999,9999,9999,2171778152
119,21,5,ISIP_5,6,9999,9999,9999,2172278892
119,21,5,ISIP_5,7,9999,9999,9999,2172778584
119,21,5,ISIP_5,8,9999,9999,9999,2173278280
119,21,5,ISIP_5,9,9999,9999,9999,2173779020
119,21,5,ISIP_5,10,9999,9999,9999,2174278716
119,21,5,ISIP_5,11,9999,9999,9999,2174778416
119,21,5,ISIP_5,12,9999,9999,9999,2175278188
119,21,5,ISIP_5,13,9999,9999,9999,2175778928
119,21,5,ISIP_5,14,9999,9999,9999,2176278616
119,21,5,ISIP_5,15,9999,9999,9999,2176778320
119,21,5,ISIP_5,16,9999,9999,9999,2177279060
119,21,5,ISIP_5,17,9999,9999,9999,2177778752
119,21,5,ISIP_5,18,9999,9999,9999,2178278448
119,21,5,ISIP_5,19,9999,9999,9999,2178778216
119,21,5,ISIP_5,20,9999,9999,9999,2179278936
119,21,5,ISIP_5,21,9999,9999,9999,2179778608
119,21,5,ISIP_5,22,9999,9999,9999,2180278376
119,21,5,ISIP_5,23,9999,9999,9999,2180779116
119,21,5,ISIP_5,24,9999,9999,9999,2181278812
119,21,5,ISIP_5,25,9999,9999,9999,2181778508
119,21,5,ISIP_5,26,9999,9999,9999,2182278200
119,21,5,ISIP_5,27,9999,9999,9999,2182778936
119,21,5,ISIP_5,28,9999,9999,9999,2183278712
119,21,5,ISIP_5,29,9999,9999,9999,2183778408
119,21,5,ISIP_5,30,9999,9999,9999,2184278100
119,21,5,ISIP_5,31,9999,9999,9999,2184778844
119,21,5,ISIP_5,32,9999,9999,9999,2185278536
119,21,5,ISIP_5,33,9999,9999,9999,2185778232
119,21,5,ISIP_5,34,9999,9999,9999,2186278972
119,21,5,ISIP_5,35,9999,9999,9999,2186778744
119,21,5,ISIP_5,36,9999,9999,9999,2187278440
119,21,5,ISIP_5,37,9999,9999,9999,2187778136
119,21,5,ISIP_5,38,9999,9999,9999,2188278876
119,21,5,ISIP_5,39,9999,9999,9999,2188778572
119,21,5,ISIP_5,40,9999,9999,9999,2189278268
119,21,5,ISIP_5,41,9999,9999,9999,2189778996
119,21,5,ISIP_5,42,9999,9999,9999,2190278744
119,21,5,ISIP_5,43,9999,9999,9999,2190778436
119,21,5,ISIP_5,44,9999,9999,9999,2191278200
119,21,5,ISIP_5,45,9999,9999,9999,2191778864
119,21,5,ISIP_5,46,9999,9999,9999,2192278628
119,21,5,ISIP_5,47,9999,9999,9999,2192778320
119,21,5,ISIP_5,48,9999,9999,9999,2193279056
119,21,5,ISIP_5,49,9999,9999,9999,2193778748
119,21,5,ISIP_5,50,9999,9999,9999,2194278512
119,21,5,ISIP_5,51,9999,9999,9999,2194778204
119,21,5,ISIP_5,52,9999,9999,9999,2195278940
119,21,5,ISIP_5,53,9999,9999,9999,2195778632
119,21,5,ISIP_5,54,9999,9999,9999,2196278320
119,21,5,ISIP_5,55,9999,9999,9999,2196779060
119,21,5,ISIP_5,56,9999,9999,9999,2197278824
119,21,5,ISIP_5,57,9999,9999,9999,2197778516
119,21,5,ISIP_5,58,9999,9999,9999,2198278208
119,21,5,ISIP_5,59,9999,9999,9999,2198778960
119,21,5,ISIP_5,60,9999,9999,9999,2199278648
119,21,5,ISIP_5,61,9999,9999,9999,2199778440
119,21,5,ISIP_5,62,9999,9999,9999,2200278112
119,21,5,ISIP_5,63,9999,9999,9999,2200778824
119,21,5,ISIP_5,64,9999,9999,9999,2201278516
119,21,5,ISIP_5,65,9999,9999,9999,2201778280
119,21,5,ISIP_5,66,9999,9999,9999,2202279016
119,21,5,ISIP_5,67,9999,9999,9999,2202778708
119,21,5,ISIP_5,68,9999,9999,9999,2203278400
119,21,5,ISIP_5,69,9999,9999,9999,2203778164
119,21,5,ISIP_5,70,9999,9999,9999,2204278904
119,21,5,ISIP_5,71,9999,9999,9999,2204778596
119,21,5,ISIP_5,72,9999,9999,9999,2205278284
119,21,5,ISIP_5,73,9999,9999,9999,2205779024
119,21,5,ISIP_5,74,9999,9999,9999,2206278712
119,21,5,ISIP_5,75,9999,9999,9999,2206778476
119,21,5,ISIP_5,76,9999,9999,9999,2207278168
119,21,5,ISIP_5,77,9999,9999,9999,2207778908
119,21,5,ISIP_5,78,9999,9999,9999,2208278612
119,21,5,ISIP_5,79,9999,9999,9999,2208778352
119,21,5,ISIP_5,80,9999,9999,9999,2209279092
119,21,5,ISIP_5,81,9999,9999,9999,2209778788
119,21,5,ISIP_5,82,9999,9999,9999,2210278480
119,21,5,ISIP_5,83,9999,9999,9999,2210778168
119,21,5,ISIP_5,84,9999,9999,9999,2211278956
119,21,5,ISIP_5,85,9999,9999,9999,2211778648
119,21,5,ISIP_5,86,9999,9999,9999,2212278336
119,21,5,ISIP_5,87,9999,9999,9999,2212779076
119,21,5,ISIP_5,88,9999,9999,9999,2213278840
119,21,5,ISIP_5,89,9999,9999,9999,2213778528
119,21,5,ISIP_5,90,9999,9999,9999,2214278220
119,21,5,ISIP_5,91,9999,9999,9999,2214778956
119,21,5,ISIP_5,92,9999,9999,9999,2215278648
119,21,5,ISIP_5,93,9999,9999,9999,2215778412
119,21,5,ISIP_5,94,9999,9999,9999,2216278120
119,21,5,ISIP_5,95,9999,9999,9999,2216778856
119,21,5,ISIP_5,96,9999,9999,9999,2217278548
119,21,5,ISIP_5,97,9999,9999,9999,2217778244
119,21,5,ISIP_5,98,9999,9999,9999,2218278984
119,21,5,ISIP_5,99,9999,9999,9999,2218778672
119,21,5,ISIP_5,100,9999,9999,9999,2219278440
119,21,5,ISIP_5,101,9999,9999,9999,2219778128
119,21,5,ISIP_5,102,9999,9999,9999,2220278864
119,21,5,ISIP_5,103,9999,9999,9999,2220778556
119,21,5,ISIP_5,104,9999,9999,9999,2221278320
119,21,5,ISIP_5,105,9999,9999,9999,2221779056
119,21,5,ISIP_5,106,9999,9999,9999,2222278724
119,21,5,ISIP_5,107,9999,9999,9999,2222778488
119,21,5,ISIP_5,108,9999,9999,9999,2223278180
119,21,5,ISIP_5,109,9999,9999,9999,2223778932
119,21,5,ISIP_5,110,9999,9999,9999,2224278624
119,21,5,ISIP_5,111,9999,9999,9999,2224778316
119,21,5,ISIP_5,112,9999,9999,9999,2225279060
119,21,5,ISIP_5,113,9999,9999,9999,2225778748
119,21,5,ISIP_5,114,9999,9999,9999,2226278512
119,21,5,ISIP_5,115,9999,9999,9999,2226778204
119,21,5,ISIP_5,116,9999,9999,9999,2227278940
119,21,5,ISIP_5,117,9999,9999,9999,2227778632
119,21,5,ISIP_5,118,9999,9999,9999,2228278324
119,21,5,ISIP_5,119,9999,9999,9999,2228779060
119,21,5,ISIP_5,120,9999,9999,9999,2229278824
119,21,5,ISIP_5,121,9999,9999,9999,2229778516
119,21,5,ISIP_5,122,9999,9999,9999,2230278208
119,21,5,ISIP_5,123,9999,9999,9999,2230778944
119,21,5,ISIP_5,124,9999,9999,9999,2231278652
119,21,5,ISIP_5,125,9999,9999,9999,2231778416
119,21,5,ISIP_5,126,9999,9999,9999,2232278108
119,21,5,ISIP_5,127,9999,9999,9999,2232778828
119,21,5,ISIP_5,128,9999,9999,9999,2233278516
119,21,5,ISIP_5,129,9999,9999,9999,2233778280
119,21,5,ISIP_5,130,9999,9999,9999,2234279020
119,21,5,ISIP_5,131,9999,9999,9999,2234778708
119,21,5,ISIP_5,132,9999,9999,9999,2235278400
119,21,5,ISIP_5,133,9999,9999,9999,2235778168
119,21,5,ISIP_5,134,9999,9999,9999,2236278904
119,21,5,ISIP_5,135,9999,9999,9999,2236778592
119,21,5,ISIP_5,136,9999,9999,9999,2237278284
119,21,5,ISIP_5,137,9999,9999,9999,2237779020
119,21,5,ISIP_5,138,9999,9999,9999,2238278728
119,21,5,ISIP_5,139,9999,9999,9999,2238778416
119,21,5,ISIP_5,140,9999,9999,9999,2239278188
119,21,5,ISIP_5,141,9999,9999,9999,2239778928
119,21,5,ISIP_5,142,9999,9999,9999,2240278616
119,21,5,ISIP_5,143,9999,9999,9999,2240778308
119,21,5,ISIP_5,144,9999,9999,9999,2241279044
119,21,5,ISIP_5,145,9999,9999,9999,2241778808
119,21,5,ISIP_5,146,9999,9999,9999,2242278500
119,21,5,ISIP_5,147,9999,9999,9999,2242778192
119,21,5,ISIP_5,148,9999,9999,9999,2243278904
119,21,5,ISIP_5,149,9999,9999,9999,2243778668
119,21,5,ISIP_5,150,9999,9999,9999,2244278360
119,21,5,ISIP_5,151,9999,9999,9999,2244779096
119,21,5,ISIP_5,152,9999,9999,9999,2245278804
119,21,5,ISIP_5,153,9999,9999,9999,2245778492
119,21,5,ISIP_5,154,9999,9999,9999,2246278260
119,21,5,ISIP_5,155,9999,9999,9999,2246778996
119,21,5,ISIP_5,156,9999,9999,9999,2247278668
119,21,5,ISIP_5,157,9999,9999,9999,2247778360
119,21,5,ISIP_5,158,9999,9999,9999,2248278124
119,21,5,ISIP_5,159,9999,9999,9999,2248778860
119,22,3,ISIP_8,0,5,42,127,2276247024
119,22,3,ISIP_8,1,5,42,127,2277046556
119,22,3,ISIP_8,2,1,48,75,2277813436
119,22,3,ISIP_8,3,5,42,127,2277847376
119,22,3,ISIP_8,4,1,48,77,2278548840
119,22,3,ISIP_8,5,5,42,127,2278647392
119,22,3,ISIP_8,6,1,48,57,2279364808
119,22,3,ISIP_8,7,5,42,127,2279446916
119,22,3,ISIP_8,8,1,48,60,2280228068
119,22,3,ISIP_8,9,5,42,127,2280246724
119,22,3,ISIP_8,10,1,48,54,2281014108
119,22,3,ISIP_8,11,5,42,127,2281047356
119,22,3,ISIP_8,12,1,48,51,2281770612
119,22,3,ISIP_8,13,5,42,127,2281847164
119,22,3,ISIP_8,14,1,48,49,2282587624
119,22,3,ISIP_8,15,5,42,127,2282646972
119,22,3,ISIP_8,16,1,48,44,2283438068
119,22,3,ISIP_8,17,5,42,127,2283446704
119,22,3,ISIP_8,18,5,42,127,2284247292
119,22,3,ISIP_8,19,1,48,39,2284257668
119,22,3,ISIP_8,20,5,42,127,2285047252
119,22,3,ISIP_8,21,1,48,41,2285060320
119,22,3,ISIP_8,22,5,42,127,2285846836
119,22,3,ISIP_8,23,1,48,30,2285853916
119,22,3,ISIP_8,24,5,42,127,2286646568
119,22,3,ISIP_8,25,1,48,33,2286653500
119,22,3,ISIP_8,26,1,48,29,2287435192
119,22,3,ISIP_8,27,5,42,127,2287447492
119,22,3,ISIP_8,28,5,42,127,2288247156
119,22,3,ISIP_8,29,1,48,29,2288250868
119,22,3,ISIP_8,30,1,48,34,2289036900
119,22,3,ISIP_8,31,5,42,127,2289047032
119,22,3,ISIP_8,32,5,42,127,2289846772
119,22,3,ISIP_8,33,1,48,34,2289855124
119,22,3,ISIP_8,34,1,48,34,2290627092
119,22,3,ISIP_8,35,5,42,127,2290647344
119,22,3,ISIP_8,36,1,48,34,2291397880
119,22,3,ISIP_8,37,5,42,127,2291447080
119,22,3,ISIP_8,38,1,48,40,2292177516
119,22,3,ISIP_8,39,5,42,127,2292246960
119,22,3,ISIP_8,40,1,48,50,2292963112
119,22,3,ISIP_8,41,5,42,127,2293046696
119,22,3,ISIP_8,42,1,48,55,2293778556
119,22,3,ISIP_8,43,5,42,127,2293847476
119,22,3,ISIP_8,44,1,48,67,2294604464
119,22,3,ISIP_8,45,5,42,127,2294647284
119,22,3,ISIP_8,46,1,48,64,2295400984
119,22,3,ISIP_8,47,5,42,127,2295447016
119,22,3,ISIP_8,48,1,48,61,2296179972
119,22,3,ISIP_8,49,5,42,127,2296246504
119,22,3,ISIP_8,50,1,48,65,2296974396
119,22,3,ISIP_8,51,5,42,127,2297047380
119,22,3,ISIP_8,52,1,48,55,2297764328
119,22,3,ISIP_8,53,5,42,127,2297847264
119,22,3,ISIP_8,54,1,48,55,2298561216
119,22,3,ISIP_8,55,5,42,127,2298646920
119,22,3,ISIP_8,56,1,48,55,2299349012
119,22,3,ISIP_8,57,5,42,127,2299446568
119,22,3,ISIP_8,58,1,48,62,2300201696
119,22,3,ISIP_8,59,1,48,55,2300993424
119,22,3,ISIP_8,60,1,48,40,2301819632
119,22,3,ISIP_8,61,1,48,51,2302661260
119,22,3,ISIP_8,62,1,48,47,2303485400
119,22,3,ISIP_8,63,1,48,51,2304310560
119,22,3,ISIP_8,64,1,48,43,2305119864
119,22,3,ISIP_8,65,1,48,48,2305981828
119,22,3,ISIP_8,66,1,48,58,2306823692
119,22,3,ISIP_8,67,1,48,54,2307656404
119,22,3,ISIP_8,68,1,48,53,2308485608
119,22,3,ISIP_8,69,1,48,52,2309318700
119,22,3,ISIP_8,70,1,48,46,2310161232
119,22,3,ISIP_8,71,1,48,51,2311012800
119,22,3,ISIP_8,72,1,48,46,2311835340
119,22,3,ISIP_8,73,1,48,51,2312680344
119,22,3,ISIP_8,74,1,48,42,2313540816
119,22,3,ISIP_8,75,1,48,48,2314388412
119,22,3,ISIP_8,76,1,48,42,2315235288
119,22,3,ISIP_8,77,1,48,48,2316110636
119,22,3,ISIP_8,78,1,48,50,2316924728
119,22,3,ISIP_8,79,1,48,51,2317759312
119,22,3,ISIP_8,80,1,48,49,2318581432
119,22,3,ISIP_8,81,1,48,43,2319391556
119,22,3,ISIP_8,82,1,48,43,2320253460
119,22,3,ISIP_8,83,1,48,34,2321099792
119,22,3,ISIP_8,84,1,48,46,2321919932
119,22,3,ISIP_8,85,1,48,46,2322733280
119,22,3,ISIP_8,86,1,48,46,2323541240
119,22,3,ISIP_8,87,1,48,42,2324401100
119,22,3,ISIP_8,88,1,48,38,2325269368
119,22,3,ISIP_8,89,1,48,45,2326144724
119,22,3,ISIP_8,90,1,48,42,2326957916
119,22,3,ISIP_8,91,1,48,43,2327798436
119,22,3,ISIP_8,92,1,48,49,2328609308
119,22,3,ISIP_8,93,1,48,48,2329405072
119,22,3,ISIP_8,94,1,48,39,2330263668
119,22,3,ISIP_8,95,1,48,39,2331126104
119,22,3,ISIP_8,96,1,48,45,2331972280
119,22,3,ISIP_8,97,1,48,45,2332837088
119,22,3,ISIP_8,98,1,48,44,2333671696
119,22,3,ISIP_8,99,1,48,47,2334506280
119,22,3,ISIP_8,100,1,48,46,2335328376
119,22,3,ISIP_8,101,1,48,48,2336150240
119,22,3,ISIP_8,102,1,48,36,2337026140
119,22,3,ISIP_8,103,1,48,39,2337875768
119,22,3,ISIP_8,104,1,48,33,2338724568
119,22,3,ISIP_8,105,1,48,38,2339581244
119,22,3,ISIP_8,106,1,48,30,2340434824
119,22,3,ISIP_8,107,1,48,37,2341292896
119,22,3,ISIP_8,108,1,48,44,2342115396
119,22,3,ISIP_8,109,1,48,35,2343013852
119,22,3,ISIP_8,110,1,48,45,2343829216
119,22,3,ISIP_8,111,1,48,38,2344623556
119,22,3,ISIP_8,112,1,48,44,2345413560
119,22,3,ISIP_8,113,1,48,43,2346291336
119,22,3,ISIP_8,114,1,48,44,2347121728
119,22,3,ISIP_8,115,1,48,30,2347984912
119,22,3,ISIP_8,116,1,48,41,2348802664
119,22,3,ISIP_8,117,1,48,42,2349647948
119,22,3,ISIP_8,118,1,48,41,2350482232
119,22,3,ISIP_8,119,1,48,46,2351339204
119,22,3,ISIP_8,120,1,48,46,2352148588
119,22,3,ISIP_8,121,1,48,48,2352985860
119,22,3,ISIP_8,122,1,48,38,2353822020
119,22,3,ISIP_8,123,1,48,48,2354658280
119,22,3,ISIP_8,124,1,48,41,2355491976
119,22,3,ISIP_8,125,1,48,43,2356314368
119,22,3,ISIP_8,126,1,48,38,2357135184
119,22,3,ISIP_8,127,1,48,44,2357939332
119,22,3,ISIP_8,128,1,48,37,2358741476
119,22,3,ISIP_8,129,1,48,35,2359557216
119,22,3,ISIP_8,130,1,48,41,2360361060
119,22,3,ISIP_8,131,1,48,40,2361157796
119,22,3,ISIP_8,132,1,48,46,2361970916
119,22,3,ISIP_8,133,1,48,39,2362780512
119,22,3,ISIP_8,134,1,48,44,2363588700
119,22,3,ISIP_8,135,1,48,39,2364408196
119,22,3,ISIP_8,136,1,48,35,2365257588
119,22,3,ISIP_8,137,1,48,30,2366135856
119,22,3,ISIP_8,138,1,48,34,2366962168
119,22,3,ISIP_8,139,1,48,41,2367772292
119,22,3,ISIP_8,140,1,48,24,2368653848
119,22,3,ISIP_8,141,1,48,44,2369464048
119,22,3,ISIP_8,142,1,48,46,2370275548
119,22,3,ISIP_8,143,1,48,44,2371068172
119,22,3,ISIP_8,144,1,48,43,2371850400
119,22,3,ISIP_8,145,1,48,49,2372649380
119,22,3,ISIP_8,146,1,48,47,2373454048
119,22,3,ISIP_8,147,1,48,51,2374244724
119,22,3,ISIP_8,148,1,48,40,2375074824
119,22,3,ISIP_8,149,1,48,45,2375899032
119,22,3,ISIP_8,150,1,48,43,2376717464
119,22,3,ISIP_8,151,1,48,52,2377533272
119,22,3,ISIP_8,152,1,48,44,2378345644
119,22,3,ISIP_8,153,1,48,31,2379193468
119,22,3,ISIP_8,154,1,48,42,2380002120
119,22,3,ISIP_8,155,1,48,53,2380846360
119,22,3,ISIP_8,156,1,48,38,2381692608
119,22,3,ISIP_8,157,1,48,37,2382534748
119,22,3,ISIP_8,158,1,48,29,2383410868
119,22,3,ISIP_8,159,1,48,53,2384222344
119,22,3,ISIP_8,160,1,48,41,2385069136
119,22,3,ISIP_8,161,1,48,54,2385906736
119,22,3,ISIP_8,162,1,48,48,2386734588
119,22,3,ISIP_8,163,1,48,51,2387575980
119,22,3,ISIP_8,164,1,48,46,2388406676
119,22,3,ISIP_8,165,1,48,40,2389235668
119,22,3,ISIP_8,166,1,48,35,2390066892
119,22,3,ISIP_8,167,1,48,38,2390893924
119,22,3,ISIP_8,168,1,48,47,2391728804
119,22,3,ISIP_8,169,1,48,38,2392563564
119,22,3,ISIP_8,170,1,48,43,2393404508
119,22,3,ISIP_8,171,1,48,49,2394225180
119,22,3,ISIP_8,172,1,48,49,2395024160
119,22,3,ISIP_8,173,1,48,50,2395858696
119,22,3,ISIP_8,0,9999,9999,9999,2276244584
119,22,3,ISIP_8,1,9999,9999,9999,2277044340
119,22,3,ISIP_8,2,9999,9999,9999,2277845088
119,22,3,ISIP_8,3,9999,9999,9999,2278644804
119,22,3,ISIP_8,4,9999,9999,9999,2279444556
119,22,3,ISIP_8,5,9999,9999,9999,2280244288
119,22,3,ISIP_8,6,9999,9999,9999,2281045068
119,22,3,ISIP_8,7,9999,9999,9999,2281844804
119,22,3,ISIP_8,8,9999,9999,9999,2282644536
119,22,3,ISIP_8,9,9999,9999,9999,2283444344
119,22,3,ISIP_8,10,9999,9999,9999,2284245080
119,22,3,ISIP_8,11,9999,9999,9999,2285044812
119,22,3,ISIP_8,12,9999,9999,9999,2285844544
119,22,3,ISIP_8,13,9999,9999,9999,2286644276
119,22,3,ISIP_8,14,9999,9999,9999,2287445052
119,22,3,ISIP_8,15,9999,9999,9999,2288244792
119,22,3,ISIP_8,16,9999,9999,9999,2289044592
119,22,3,ISIP_8,17,9999,9999,9999,2289844332
119,22,3,ISIP_8,18,9999,9999,9999,2290645056
119,22,3,ISIP_8,19,9999,9999,9999,2291444792
119,22,3,ISIP_8,20,9999,9999,9999,2292244600
119,22,3,ISIP_8,21,9999,9999,9999,2293044332
119,22,3,ISIP_8,22,9999,9999,9999,2293845112
119,22,3,ISIP_8,23,9999,9999,9999,2294644844
119,22,3,ISIP_8,24,9999,9999,9999,2295444580
119,22,3,ISIP_8,25,9999,9999,9999,2296244288
119,22,3,ISIP_8,26,9999,9999,9999,2297045092
119,22,3,ISIP_8,27,9999,9999,9999,2297844824
119,22,3,ISIP_8,28,9999,9999,9999,2298644556
119,22,3,ISIP_8,29,9999,9999,9999,2299444276
119,22,3,ISIP_8,30,9999,9999,9999,2300245072
119,22,3,ISIP_8,31,9999,9999,9999,2301044800
119,22,3,ISIP_8,32,9999,9999,9999,2301844532
119,22,3,ISIP_8,33,9999,9999,9999,2302644340
119,22,3,ISIP_8,34,9999,9999,9999,2303445068
119,22,3,ISIP_8,35,9999,9999,9999,2304244796
119,22,3,ISIP_8,36,9999,9999,9999,2305044600
119,22,3,ISIP_8,37,9999,9999,9999,2305844332
119,22,3,ISIP_8,38,9999,9999,9999,2306645108
119,22,3,ISIP_8,39,9999,9999,9999,2307444836
119,22,3,ISIP_8,40,9999,9999,9999,2308244564
119,22,3,ISIP_8,41,9999,9999,9999,2309044296
119,22,3,ISIP_8,42,9999,9999,9999,2309845096
119,22,3,ISIP_8,43,9999,9999,9999,2310644824
119,22,3,ISIP_8,44,9999,9999,9999,2311444556
119,22,3,ISIP_8,45,9999,9999,9999,2312244284
119,22,3,ISIP_8,46,9999,9999,9999,2313045060
119,22,3,ISIP_8,47,9999,9999,9999,2313844792
119,22,3,ISIP_8,48,9999,9999,9999,2314644592
119,22,3,ISIP_8,49,9999,9999,9999,2315444324
119,22,3,ISIP_8,50,9999,9999,9999,2316245048
119,22,3,ISIP_8,51,9999,9999,9999,2317044856
119,22,3,ISIP_8,52,9999,9999,9999,2317844600
119,22,3,ISIP_8,53,9999,9999,9999,2318644328
119,22,3,ISIP_8,54,9999,9999,9999,2319445104
119,22,3,ISIP_8,55,9999,9999,9999,2320244840
119,22,3,ISIP_8,56,9999,9999,9999,2321044568
119,22,3,ISIP_8,57,9999,9999,9999,2321844272
119,22,3,ISIP_8,58,9999,9999,9999,2322645076
119,22,3,ISIP_8,59,9999,9999,9999,2323444804
119,22,3,ISIP_8,60,9999,9999,9999,2324244536
119,22,3,ISIP_8,61,9999,9999,9999,2325044340
119,22,3,ISIP_8,62,9999,9999,9999,2325845040
119,22,3,ISIP_8,63,9999,9999,9999,2326644844
119,22,3,ISIP_8,64,9999,9999,9999,2327444572
119,22,3,ISIP_8,65,9999,9999,9999,2328244304
119,22,3,ISIP_8,66,9999,9999,9999,2329045104
119,22,3,ISIP_8,67,9999,9999,9999,2329844832
119,22,3,ISIP_8,68,9999,9999,9999,2330644560
119,22,3,ISIP_8,69,9999,9999,9999,2331444292
119,22,3,ISIP_8,70,9999,9999,9999,2332245068
119,22,3,ISIP_8,71,9999,9999,9999,2333044796
119,22,3,ISIP_8,72,9999,9999,9999,2333844600
119,22,3,ISIP_8,73,9999,9999,9999,2334644328
119,22,3,ISIP_8,74,9999,9999,9999,2335445056
119,22,3,ISIP_8,75,9999,9999,9999,2336244784
119,22,3,ISIP_8,76,9999,9999,9999,2337044528
119,22,3,ISIP_8,77,9999,9999,9999,2337844340
119,22,3,ISIP_8,78,9999,9999,9999,2338645040
119,22,3,ISIP_8,79,9999,9999,9999,2339444844
119,22,3,ISIP_8,80,9999,9999,9999,2340244572
119,22,3,ISIP_8,81,9999,9999,9999,2341044304
119,22,3,ISIP_8,82,9999,9999,9999,2341845104
119,22,3,ISIP_8,83,9999,9999,9999,2342644832
119,22,3,ISIP_8,84,9999,9999,9999,2343444564
119,22,3,ISIP_8,85,9999,9999,9999,2344244292
119,22,3,ISIP_8,86,9999,9999,9999,2345045068
119,22,3,ISIP_8,87,9999,9999,9999,2345844796
119,22,3,ISIP_8,88,9999,9999,9999,2346644600
119,22,3,ISIP_8,89,9999,9999,9999,2347444328
119,22,3,ISIP_8,90,9999,9999,9999,2348245052
119,22,3,ISIP_8,91,9999,9999,9999,2349044784
119,22,3,ISIP_8,92,9999,9999,9999,2349844588
119,22,3,ISIP_8,93,9999,9999,9999,2350644316
119,22,3,ISIP_8,94,9999,9999,9999,2351445092
119,22,3,ISIP_8,95,9999,9999,9999,2352244836
119,22,3,ISIP_8,96,9999,9999,9999,2353044568
119,22,3,ISIP_8,97,9999,9999,9999,2353844296
119,22,3,ISIP_8,98,9999,9999,9999,2354645104
119,22,3,ISIP_8,99,9999,9999,9999,2355444832
119,22,3,ISIP_8,100,9999,9999,9999,2356244560
119,22,3,ISIP_8,101,9999,9999,9999,2357044292
119,22,3,ISIP_8,102,9999,9999,9999,2357845068
119,22,3,ISIP_8,103,9999,9999,9999,2358644796
119,22,3,ISIP_8,104,9999,9999,9999,2359444600
119,22,3,ISIP_8,105,9999,9999,9999,2360244328
119,22,3,ISIP_8,106,9999,9999,9999,2361045056
119,22,3,ISIP_8,107,9999,9999,9999,2361844788
119,22,3,ISIP_8,108,9999,9999,9999,2362644588
119,22,3,ISIP_8,109,9999,9999,9999,2363444320
119,22,3,ISIP_8,110,9999,9999,9999,2364245092
119,22,3,ISIP_8,111,9999,9999,9999,2365044824
119,22,3,ISIP_8,112,9999,9999,9999,2365844552
119,22,3,ISIP_8,113,9999,9999,9999,2366644280
119,22,3,ISIP_8,114,9999,9999,9999,2367445084
119,22,3,ISIP_8,115,9999,9999,9999,2368244812
119,22,3,ISIP_8,116,9999,9999,9999,2369044544
119,22,3,ISIP_8,117,9999,9999,9999,2369844272
119,22,3,ISIP_8,118,9999,9999,9999,2370645048
119,22,3,ISIP_8,119,9999,9999,9999,2371444852
119,22,3,ISIP_8,120,9999,9999,9999,2372244580
119,22,3,ISIP_8,121,9999,9999,9999,2373044308
119,22,3,ISIP_8,122,9999,9999,9999,2373845112
119,22,3,ISIP_8,123,9999,9999,9999,2374644840
119,22,3,ISIP_8,124,9999,9999,9999,2375444572
119,22,3,ISIP_8,125,9999,9999,9999,2376244300
119,22,3,ISIP_8,126,9999,9999,9999,2377045076
119,22,3,ISIP_8,127,9999,9999,9999,2377844804
119,22,3,ISIP_8,128,9999,9999,9999,2378644532
119,22,3,ISIP_8,129,9999,9999,9999,2379444336
119,22,3,ISIP_8,130,9999,9999,9999,2380245064
119,22,3,ISIP_8,131,9999,9999,9999,2381044792
119,22,3,ISIP_8,132,9999,9999,9999,2381844596
119,22,3,ISIP_8,133,9999,9999,9999,2382644324
119,22,3,ISIP_8,134,9999,9999,9999,2383445040
119,22,3,ISIP_8,135,9999,9999,9999,2384244844
119,22,3,ISIP_8,136,9999,9999,9999,2385044580
119,22,3,ISIP_8,137,9999,9999,9999,2385844312
119,22,3,ISIP_8,138,9999,9999,9999,2386645112
119,22,3,ISIP_8,139,9999,9999,9999,2387444840
119,22,3,ISIP_8,140,9999,9999,9999,2388244568
119,22,3,ISIP_8,141,9999,9999,9999,2389044296
119,22,3,ISIP_8,142,9999,9999,9999,2389845076
119,22,3,ISIP_8,143,9999,9999,9999,2390644804
119,22,3,ISIP_8,144,9999,9999,9999,2391444532
119,22,3,ISIP_8,145,9999,9999,9999,2392244336
119,22,3,ISIP_8,146,9999,9999,9999,2393045060
119,22,3,ISIP_8,147,9999,9999,9999,2393844792
119,22,3,ISIP_8,148,9999,9999,9999,2394644592
119,22,3,ISIP_8,149,9999,9999,9999,2395444324
119,23,11,Pattern_Practice,0,5,42,127,2494336480
119,23,11,Pattern_Practice,1,5,42,127,2494836124
119,23,11,Pattern_Practice,2,5,42,127,2495335764
119,23,11,Pattern_Practice,3,5,42,127,2495835480
119,23,11,Pattern_Practice,4,5,42,127,2496336320
119,23,11,Pattern_Practice,5,5,42,127,2496835812
119,23,11,Pattern_Practice,6,5,42,127,2497335528
119,23,11,Pattern_Practice,7,5,42,127,2497836368
119,23,11,Pattern_Practice,8,1,48,47,2498314876
119,23,11,Pattern_Practice,9,5,42,127,2498336076
119,23,11,Pattern_Practice,10,1,48,47,2498574816
119,23,11,Pattern_Practice,11,1,38,97,2498820976
119,23,11,Pattern_Practice,12,1,48,91,2498831352
119,23,11,Pattern_Practice,13,5,42,127,2498835804
119,23,11,Pattern_Practice,14,1,48,59,2499061724
119,23,11,Pattern_Practice,15,1,38,71,2499189836
119,23,11,Pattern_Practice,16,1,48,79,2499304052
119,23,11,Pattern_Practice,17,5,42,127,2499335504
119,23,11,Pattern_Practice,18,1,38,65,2499400928
119,23,11,Pattern_Practice,19,1,38,75,2499532620
119,23,11,Pattern_Practice,20,1,48,114,2499810048
119,23,11,Pattern_Practice,21,5,42,127,2499836260
119,23,11,Pattern_Practice,22,1,38,75,2499840724
119,23,11,Pattern_Practice,23,1,48,66,2500033352
119,23,11,Pattern_Practice,24,1,38,54,2500170460
119,23,11,Pattern_Practice,25,1,38,80,2500291716
119,23,11,Pattern_Practice,26,5,42,127,2500335880
119,23,11,Pattern_Practice,27,1,38,64,2500402636
119,23,11,Pattern_Practice,28,1,38,70,2500530368
119,23,11,Pattern_Practice,29,1,38,61,2500627452
119,23,11,Pattern_Practice,30,1,48,99,2500786532
119,23,11,Pattern_Practice,31,5,42,127,2500835580
119,23,11,Pattern_Practice,32,1,38,59,2500907944
119,23,11,Pattern_Practice,33,1,38,68,2501042712
119,23,11,Pattern_Practice,34,1,38,48,2501149376
119,23,11,Pattern_Practice,35,1,38,68,2501289896
119,23,11,Pattern_Practice,36,5,42,127,2501336556
119,23,11,Pattern_Practice,37,1,38,51,2501391572
119,23,11,Pattern_Practice,38,1,38,52,2501529100
119,23,11,Pattern_Practice,39,1,38,53,2501657156
119,23,11,Pattern_Practice,40,1,38,65,2501809868
119,23,11,Pattern_Practice,41,5,42,127,2501836256
119,23,11,Pattern_Practice,42,1,38,52,2501920820
119,23,11,Pattern_Practice,43,1,38,59,2502065232
119,23,11,Pattern_Practice,44,1,38,52,2502191940
119,23,11,Pattern_Practice,45,1,48,75,2502321016
119,23,11,Pattern_Practice,46,5,42,127,2502335936
119,23,11,Pattern_Practice,47,1,38,54,2502437252
119,23,11,Pattern_Practice,48,1,38,57,2502609440
119,23,11,Pattern_Practice,49,1,38,37,2502715328
119,23,11,Pattern_Practice,50,5,42,127,2502835476
119,23,11,Pattern_Practice,51,1,38,41,2502843376
119,23,11,Pattern_Practice,52,1,38,45,2502971356
119,23,11,Pattern_Practice,53,1,38,42,2503099092
119,23,11,Pattern_Practice,54,1,38,49,2503222292
119,23,11,Pattern_Practice,55,5,42,127,2503336224
119,23,11,Pattern_Practice,56,1,48,57,2503361560
119,23,11,Pattern_Practice,57,1,38,50,2503483684
119,23,11,Pattern_Practice,58,1,48,55,2503622884
119,23,11,Pattern_Practice,59,1,38,46,2503749492
119,23,11,Pattern_Practice,60,5,42,127,2503836144
119,23,11,Pattern_Practice,61,1,48,46,2503861912
119,23,11,Pattern_Practice,62,1,48,53,2503991616
119,23,11,Pattern_Practice,63,1,48,49,2504113436
119,23,11,Pattern_Practice,64,1,48,50,2504242912
119,23,11,Pattern_Practice,65,5,42,127,2504335696
119,23,11,Pattern_Practice,66,1,48,52,2504369768
119,23,11,Pattern_Practice,67,1,48,46,2504479348
119,23,11,Pattern_Practice,68,1,48,58,2504607080
119,23,11,Pattern_Practice,69,1,48,49,2504738056
119,23,11,Pattern_Practice,70,5,42,127,2504835384
119,23,11,Pattern_Practice,71,1,48,61,2504863788
119,23,11,Pattern_Practice,72,5,42,127,2505336272
119,23,11,Pattern_Practice,73,5,42,127,2505836064
119,23,11,Pattern_Practice,74,5,42,127,2506335708
119,23,11,Pattern_Practice,75,5,42,127,2506836472
119,23,11,Pattern_Practice,76,1,38,53,2507301664
119,23,11,Pattern_Practice,77,5,42,127,2507336180
119,23,11,Pattern_Practice,78,1,38,42,2507397100
119,23,11,Pattern_Practice,79,1,38,50,2507525980
119,23,11,Pattern_Practice,80,1,38,46,2507670992
119,23,11,Pattern_Practice,81,1,38,63,2507803688
119,23,11,Pattern_Practice,82,5,42,127,2507835956
119,23,11,Pattern_Practice,83,1,38,43,2507908996
119,23,11,Pattern_Practice,84,1,38,45,2508025312
119,23,11,Pattern_Practice,85,1,38,46,2508175856
119,23,11,Pattern_Practice,86,1,38,51,2508282148
119,23,11,Pattern_Practice,87,5,42,127,2508335364
119,23,11,Pattern_Practice,88,1,38,42,2508416112
119,23,11,Pattern_Practice,89,1,38,47,2508517232
119,23,11,Pattern_Practice,90,1,38,48,2508653868
119,23,11,Pattern_Practice,91,1,38,100,2508788956
119,23,11,Pattern_Practice,92,5,42,127,2508836112
119,23,11,Pattern_Practice,93,1,38,44,2508909152
119,23,11,Pattern_Practice,94,1,38,41,2509010280
119,23,11,Pattern_Practice,95,1,38,42,2509134124
119,23,11,Pattern_Practice,96,1,38,47,2509285892
119,23,11,Pattern_Practice,97,5,42,127,2509336040
119,23,11,Pattern_Practice,98,1,38,40,2509399504
119,23,11,Pattern_Practice,99,1,38,37,2509500536
119,23,11,Pattern_Practice,100,1,38,48,2509662024
119,23,11,Pattern_Practice,101,1,38,84,2509798384
119,23,11,Pattern_Practice,102,5,42,127,2509835668
119,23,11,Pattern_Practice,103,1,38,44,2509907960
119,23,11,Pattern_Practice,104,1,38,39,2510047540
119,23,11,Pattern_Practice,105,1,38,38,2510170188
119,23,11,Pattern_Practice,106,1,38,41,2510286876
119,23,11,Pattern_Practice,107,5,42,127,2510336276
119,23,11,Pattern_Practice,108,1,38,40,2510412228
119,23,11,Pattern_Practice,109,1,38,41,2510531308
119,23,11,Pattern_Practice,110,1,38,43,2510667272
119,23,11,Pattern_Practice,111,1,38,94,2510811260
119,23,11,Pattern_Practice,112,5,42,127,2510836124
119,23,11,Pattern_Practice,113,1,38,45,2510950604
119,23,11,Pattern_Practice,114,1,38,46,2511072304
119,23,11,Pattern_Practice,115,1,38,32,2511207516
119,23,11,Pattern_Practice,116,1,38,53,2511311484
119,23,11,Pattern_Practice,117,5,42,127,2511335904
119,23,11,Pattern_Practice,118,1,38,44,2511452100
119,23,11,Pattern_Practice,119,1,38,38,2511546404
119,23,11,Pattern_Practice,120,1,38,41,2511677528
119,23,11,Pattern_Practice,121,1,38,51,2511811188
119,23,11,Pattern_Practice,122,5,42,127,2511835532
119,23,11,Pattern_Practice,123,1,38,46,2511912684
119,23,11,Pattern_Practice,124,1,38,39,2512040940
119,23,11,Pattern_Practice,125,1,38,40,2512159052
119,23,11,Pattern_Practice,126,1,38,50,2512303464
119,23,11,Pattern_Practice,127,5,42,127,2512336284
119,23,11,Pattern_Practice,128,1,38,44,2512425112
119,23,11,Pattern_Practice,129,1,38,37,2512543940
119,23,11,Pattern_Practice,130,1,38,40,2512679848
119,23,11,Pattern_Practice,131,1,38,54,2512812444
119,23,11,Pattern_Practice,132,5,42,127,2512836136
119,23,11,Pattern_Practice,133,1,38,45,2512928852
119,23,11,Pattern_Practice,134,1,38,43,2513054188
119,23,11,Pattern_Practice,135,1,38,39,2513164068
119,23,11,Pattern_Practice,136,1,38,47,2513300176
119,23,11,Pattern_Practice,137,5,42,127,2513335740
119,23,11,Pattern_Practice,138,1,38,35,2513429152
119,23,11,Pattern_Practice,139,1,38,48,2513543868
119,23,11,Pattern_Practice,140,1,48,68,2513796012
119,23,11,Pattern_Practice,141,5,42,127,2513836292
119,23,11,Pattern_Practice,142,1,48,37,2513939272
119,23,11,Pattern_Practice,143,1,48,37,2514049060
119,23,11,Pattern_Practice,144,1,48,54,2514180028
119,23,11,Pattern_Practice,145,1,48,46,2514300208
119,23,11,Pattern_Practice,146,5,42,127,2514336292
119,23,11,Pattern_Practice,147,1,48,46,2514431872
119,23,11,Pattern_Practice,148,1,48,43,2514561104
119,23,11,Pattern_Practice,149,1,48,47,2514694324
119,23,11,Pattern_Practice,150,1,48,48,2514809940
119,23,11,Pattern_Practice,151,5,42,127,2514835780
119,23,11,Pattern_Practice,152,1,48,50,2514938464
119,23,11,Pattern_Practice,153,1,48,41,2515046452
119,23,11,Pattern_Practice,154,1,48,57,2515188044
119,23,11,Pattern_Practice,155,1,48,50,2515296852
119,23,11,Pattern_Practice,156,5,42,127,2515335480
119,23,11,Pattern_Practice,157,1,48,51,2515429336
119,23,11,Pattern_Practice,158,1,48,52,2515551616
119,23,11,Pattern_Practice,159,1,38,57,2515709664
119,23,11,Pattern_Practice,160,1,48,59,2515826472
119,23,11,Pattern_Practice,161,5,42,127,2515836232
119,23,11,Pattern_Practice,162,1,38,58,2515955148
119,23,11,Pattern_Practice,163,1,48,44,2516083404
119,23,11,Pattern_Practice,164,1,38,52,2516192012
119,23,11,Pattern_Practice,165,5,42,127,2516336240
119,23,11,Pattern_Practice,166,1,48,68,2516351476
119,23,11,Pattern_Practice,167,1,48,40,2516672212
119,23,11,Pattern_Practice,168,5,42,127,2516835688
119,23,11,Pattern_Practice,169,1,48,27,2516942204
119,23,11,Pattern_Practice,170,1,48,31,2517220756
119,23,11,Pattern_Practice,171,5,42,127,2517336412
119,23,11,Pattern_Practice,172,1,48,28,2517516148
119,23,11,Pattern_Practice,173,5,42,127,2517836180
119,23,11,Pattern_Practice,174,5,42,127,2518336120
119,23,11,Pattern_Practice,175,5,42,127,2518835464
119,23,11,Pattern_Practice,176,1,38,65,2519276876
119,23,11,Pattern_Practice,177,5,42,127,2519336368
119,23,11,Pattern_Practice,178,1,38,44,2519371940
119,23,11,Pattern_Practice,179,1,38,67,2519510912
119,23,11,Pattern_Practice,180,1,38,58,2519653080
119,23,11,Pattern_Practice,181,1,48,69,2519762736
119,23,11,Pattern_Practice,182,5,42,127,2519836372
119,23,11,Pattern_Practice,183,1,38,56,2519891016
119,23,11,Pattern_Practice,184,1,38,55,2520009796
119,23,11,Pattern_Practice,185,1,38,55,2520119576
119,23,11,Pattern_Practice,186,1,38,68,2520263792
119,23,11,Pattern_Practice,187,5,42,127,2520335704
119,23,11,Pattern_Practice,188,1,38,50,2520358700
119,23,11,Pattern_Practice,189,1,38,61,2520502368
119,23,11,Pattern_Practice,190,1,38,57,2520638504
119,23,11,Pattern_Practice,191,1,48,85,2520763544
119,23,11,Pattern_Practice,192,5,42,127,2520835556
119,23,11,Pattern_Practice,193,1,38,56,2520892136
119,23,11,Pattern_Practice,194,1,38,60,2521011792
119,23,11,Pattern_Practice,195,1,38,53,2521149948
119,23,11,Pattern_Practice,196,1,38,58,2521280600
119,23,11,Pattern_Practice,197,5,42,127,2521336204
119,23,11,Pattern_Practice,198,1,38,45,2521383964
119,23,11,Pattern_Practice,199,1,38,54,2521518204
119,23,11,Pattern_Practice,200,1,38,55,2521655388
119,23,11,Pattern_Practice,201,1,48,85,2521788276
119,23,11,Pattern_Practice,202,5,42,127,2521836132
119,23,11,Pattern_Practice,203,1,38,57,2521911344
119,23,11,Pattern_Practice,204,1,48,71,2522046104
119,23,11,Pattern_Practice,205,1,48,73,2522183360
119,23,11,Pattern_Practice,206,1,48,63,2522297780
119,23,11,Pattern_Practice,207,5,42,127,2522335608
119,23,11,Pattern_Practice,208,1,38,68,2522422488
119,23,11,Pattern_Practice,209,1,48,63,2522552164
119,23,11,Pattern_Practice,210,1,38,68,2522692640
119,23,11,Pattern_Practice,211,1,38,58,2522813040
119,23,11,Pattern_Practice,212,5,42,127,2522836436
119,23,11,Pattern_Practice,213,1,38,65,2522919276
119,23,11,Pattern_Practice,214,1,48,72,2523056804
119,23,11,Pattern_Practice,215,1,38,62,2523179028
119,23,11,Pattern_Practice,216,1,38,50,2523313344
119,23,11,Pattern_Practice,217,5,42,127,2523335988
119,23,11,Pattern_Practice,218,1,38,62,2523411648
119,23,11,Pattern_Practice,219,1,48,66,2523549704
119,23,11,Pattern_Practice,220,1,38,67,2523661604
119,23,11,Pattern_Practice,221,1,38,60,2523809980
119,23,11,Pattern_Practice,222,5,42,127,2523836040
119,23,11,Pattern_Practice,223,1,38,57,2523897140
119,23,11,Pattern_Practice,224,1,38,52,2524043868
119,23,11,Pattern_Practice,225,1,38,51,2524134532
119,23,11,Pattern_Practice,226,1,38,54,2524288440
119,23,11,Pattern_Practice,227,5,42,127,2524335372
119,23,11,Pattern_Practice,228,1,38,49,2524398188
119,23,11,Pattern_Practice,229,1,38,55,2524530036
119,23,11,Pattern_Practice,230,1,38,54,2524679032
119,23,11,Pattern_Practice,231,1,38,61,2524828908
119,23,11,Pattern_Practice,232,5,42,127,2524836344
119,23,11,Pattern_Practice,233,1,38,53,2524954140
119,23,11,Pattern_Practice,234,1,38,52,2525096460
119,23,11,Pattern_Practice,235,1,38,68,2525228480
119,23,11,Pattern_Practice,236,5,42,127,2525336056
119,23,11,Pattern_Practice,237,1,48,67,2525372160
119,23,11,Pattern_Practice,238,1,38,64,2525488400
119,23,11,Pattern_Practice,239,1,38,34,2525659392
119,23,11,Pattern_Practice,240,1,38,43,2525764384
119,23,11,Pattern_Practice,241,5,42,127,2525835552
119,23,11,Pattern_Practice,242,1,38,44,2525912056
119,23,11,Pattern_Practice,243,1,38,50,2526057368
119,23,11,Pattern_Practice,244,1,38,44,2526168300
119,23,11,Pattern_Practice,245,1,38,59,2526300888
119,23,11,Pattern_Practice,246,5,42,127,2526336308
119,23,11,Pattern_Practice,247,1,38,77,2526433076
119,23,11,Pattern_Practice,248,5,42,127,2526836060
119,23,11,Pattern_Practice,249,5,42,127,2527336000
119,23,11,Pattern_Practice,250,1,38,60,2527800072
119,23,11,Pattern_Practice,251,5,42,127,2527835560
119,23,11,Pattern_Practice,252,1,38,61,2528045804
119,23,11,Pattern_Practice,253,1,38,108,2528321284
119,23,11,Pattern_Practice,254,5,42,127,2528336132
119,23,11,Pattern_Practice,255,1,38,48,2528541064
119,23,11,Pattern_Practice,256,5,42,127,2528836036
119,23,11,Pattern_Practice,257,1,38,63,2528853512
119,23,11,Pattern_Practice,258,1,38,54,2529088612
119,23,11,Pattern_Practice,259,5,42,127,2529335780
119,23,11,Pattern_Practice,260,1,38,96,2529348472
119,23,11,Pattern_Practice,261,1,38,54,2529588652
119,23,11,Pattern_Practice,262,5,42,127,2529836500
119,23,11,Pattern_Practice,263,1,38,55,2529860040
119,23,11,Pattern_Practice,264,1,38,56,2530092664
119,23,11,Pattern_Practice,265,5,42,127,2530336172
119,23,11,Pattern_Practice,266,1,38,101,2530348568
119,23,11,Pattern_Practice,267,1,38,54,2530592632
119,23,11,Pattern_Practice,268,5,42,127,2530835920
119,23,11,Pattern_Practice,269,1,38,51,2530843828
119,23,11,Pattern_Practice,270,1,38,51,2531081688
119,23,11,Pattern_Practice,271,1,38,112,2531331960
119,23,11,Pattern_Practice,272,5,42,127,2531335660
119,23,11,Pattern_Practice,273,1,38,50,2531577996
119,23,11,Pattern_Practice,274,1,38,62,2531834796
119,23,11,Pattern_Practice,275,5,42,127,2531837800
119,23,11,Pattern_Practice,276,1,38,48,2531944504
119,23,11,Pattern_Practice,277,1,38,61,2532072180
119,23,11,Pattern_Practice,278,1,38,59,2532207096
119,23,11,Pattern_Practice,279,1,38,127,2532323784
119,23,11,Pattern_Practice,280,5,42,127,2532335936
119,23,11,Pattern_Practice,281,1,38,66,2532546476
119,23,11,Pattern_Practice,282,1,38,50,2532632100
119,23,11,Pattern_Practice,283,1,38,63,2532802792
119,23,11,Pattern_Practice,284,5,42,127,2532835660
119,23,11,Pattern_Practice,285,1,38,45,2532906308
119,23,11,Pattern_Practice,286,1,38,54,2533031644
119,23,11,Pattern_Practice,287,1,38,52,2533182216
119,23,11,Pattern_Practice,288,1,38,127,2533307780
119,23,11,Pattern_Practice,289,5,42,127,2533336560
119,23,11,Pattern_Practice,290,1,38,57,2533434588
119,23,11,Pattern_Practice,291,1,38,57,2533559172
119,23,11,Pattern_Practice,292,1,38,53,2533683640
119,23,11,Pattern_Practice,293,1,38,61,2533816908
119,23,11,Pattern_Practice,294,5,42,127,2533836116
119,23,11,Pattern_Practice,295,1,38,52,2533938552
119,23,11,Pattern_Practice,296,1,38,55,2534047656
119,23,11,Pattern_Practice,297,1,38,54,2534182744
119,23,11,Pattern_Practice,298,1,38,126,2534318928
119,23,11,Pattern_Practice,0,9999,9999,9999,2494334044
119,23,11,Pattern_Practice,1,9999,9999,9999,2494833760
119,23,11,Pattern_Practice,2,9999,9999,9999,2495333476
119,23,11,Pattern_Practice,3,9999,9999,9999,2495833192
119,23,11,Pattern_Practice,4,9999,9999,9999,2496333884
119,23,11,Pattern_Practice,5,9999,9999,9999,2496833596
119,23,11,Pattern_Practice,6,9999,9999,9999,2497333316
119,23,11,Pattern_Practice,7,9999,9999,9999,2497834080
119,23,11,Pattern_Practice,8,9999,9999,9999,2498333788
119,23,11,Pattern_Practice,9,9999,9999,9999,2498833516
119,23,11,Pattern_Practice,10,9999,9999,9999,2499333216
119,23,11,Pattern_Practice,11,9999,9999,9999,2499833976
119,23,11,Pattern_Practice,12,9999,9999,9999,2500333664
119,23,11,Pattern_Practice,13,9999,9999,9999,2500833368
119,23,11,Pattern_Practice,14,9999,9999,9999,2501334120
119,23,11,Pattern_Practice,15,9999,9999,9999,2501833820
119,23,11,Pattern_Practice,16,9999,9999,9999,2502333500
119,23,11,Pattern_Practice,17,9999,9999,9999,2502833264
119,23,11,Pattern_Practice,18,9999,9999,9999,2503333936
119,23,11,Pattern_Practice,19,9999,9999,9999,2503833708
119,23,11,Pattern_Practice,20,9999,9999,9999,2504333412
119,23,11,Pattern_Practice,21,9999,9999,9999,2504833144
119,23,11,Pattern_Practice,22,9999,9999,9999,2505333836
119,23,11,Pattern_Practice,23,9999,9999,9999,2505833552
119,23,11,Pattern_Practice,24,9999,9999,9999,2506333272
119,23,11,Pattern_Practice,25,9999,9999,9999,2506834036
119,23,11,Pattern_Practice,26,9999,9999,9999,2507333744
119,23,11,Pattern_Practice,27,9999,9999,9999,2507833448
119,23,11,Pattern_Practice,28,9999,9999,9999,2508333152
119,23,11,Pattern_Practice,29,9999,9999,9999,2508833900
119,23,11,Pattern_Practice,30,9999,9999,9999,2509333604
119,23,11,Pattern_Practice,31,9999,9999,9999,2509833308
119,23,11,Pattern_Practice,32,9999,9999,9999,2510334060
119,23,11,Pattern_Practice,33,9999,9999,9999,2510833764
119,23,11,Pattern_Practice,34,9999,9999,9999,2511333468
119,23,11,Pattern_Practice,35,9999,9999,9999,2511833172
119,23,11,Pattern_Practice,36,9999,9999,9999,2512333924
119,23,11,Pattern_Practice,37,9999,9999,9999,2512833628
119,23,11,Pattern_Practice,38,9999,9999,9999,2513333304
119,23,11,Pattern_Practice,39,9999,9999,9999,2513834080
119,23,11,Pattern_Practice,40,9999,9999,9999,2514333784
119,23,11,Pattern_Practice,41,9999,9999,9999,2514833488
119,23,11,Pattern_Practice,42,9999,9999,9999,2515333196
119,23,11,Pattern_Practice,43,9999,9999,9999,2515833944
119,23,11,Pattern_Practice,44,9999,9999,9999,2516333656
119,23,11,Pattern_Practice,45,9999,9999,9999,2516833400
119,23,11,Pattern_Practice,46,9999,9999,9999,2517334124
119,23,11,Pattern_Practice,47,9999,9999,9999,2517833816
119,23,11,Pattern_Practice,48,9999,9999,9999,2518333536
119,23,11,Pattern_Practice,49,9999,9999,9999,2518833252
119,23,11,Pattern_Practice,50,9999,9999,9999,2519334008
119,23,11,Pattern_Practice,51,9999,9999,9999,2519833712
119,23,11,Pattern_Practice,52,9999,9999,9999,2520333416
119,23,11,Pattern_Practice,53,9999,9999,9999,2520833120
119,23,11,Pattern_Practice,54,9999,9999,9999,2521333844
119,23,11,Pattern_Practice,55,9999,9999,9999,2521833544
119,23,11,Pattern_Practice,56,9999,9999,9999,2522333248
119,23,11,Pattern_Practice,57,9999,9999,9999,2522834000
119,23,11,Pattern_Practice,58,9999,9999,9999,2523333700
119,23,11,Pattern_Practice,59,9999,9999,9999,2523833456
119,23,11,Pattern_Practice,60,9999,9999,9999,2524333160
119,23,11,Pattern_Practice,61,9999,9999,9999,2524833908
119,23,11,Pattern_Practice,62,9999,9999,9999,2525333620
119,23,11,Pattern_Practice,63,9999,9999,9999,2525833264
119,23,11,Pattern_Practice,64,9999,9999,9999,2526334016
119,23,11,Pattern_Practice,65,9999,9999,9999,2526833772
119,23,11,Pattern_Practice,66,9999,9999,9999,2527333488
119,23,11,Pattern_Practice,67,9999,9999,9999,2527833200
119,23,11,Pattern_Practice,68,9999,9999,9999,2528333920
119,23,11,Pattern_Practice,69,9999,9999,9999,2528833596
119,23,11,Pattern_Practice,70,9999,9999,9999,2529333344
119,23,11,Pattern_Practice,71,9999,9999,9999,2529834064
119,23,11,Pattern_Practice,72,9999,9999,9999,2530333812
119,23,11,Pattern_Practice,73,9999,9999,9999,2530833484
119,23,11,Pattern_Practice,74,9999,9999,9999,2531333224
119,23,11,Pattern_Practice,75,9999,9999,9999,2531833952
119,23,11,Pattern_Practice,76,9999,9999,9999,2532333648
119,23,11,Pattern_Practice,77,9999,9999,9999,2532833372
119,23,11,Pattern_Practice,78,9999,9999,9999,2533334124
119,23,11,Pattern_Practice,79,9999,9999,9999,2533833828
119,24,13,Improv_Metronome,0,5,42,127,2578758936
119,24,13,Improv_Metronome,1,5,42,127,2579258876
119,24,13,Improv_Metronome,2,5,42,127,2579758372
119,24,13,Improv_Metronome,3,5,42,127,2580259132
119,24,13,Improv_Metronome,4,5,42,127,2580758924
119,24,13,Improv_Metronome,5,1,48,27,2580766304
119,24,13,Improv_Metronome,6,1,48,45,2581007156
119,24,13,Improv_Metronome,7,5,42,127,2581258596
119,24,13,Improv_Metronome,8,1,48,104,2581288792
119,24,13,Improv_Metronome,9,1,48,36,2581489400
119,24,13,Improv_Metronome,10,5,42,127,2581759316
119,24,13,Improv_Metronome,11,1,48,47,2581765724
119,24,13,Improv_Metronome,12,1,48,41,2582008372
119,24,13,Improv_Metronome,13,5,42,127,2582259136
119,24,13,Improv_Metronome,14,1,48,95,2582264876
119,24,13,Improv_Metronome,15,1,48,47,2582506848
119,24,13,Improv_Metronome,16,5,42,127,2582758736
119,24,13,Improv_Metronome,17,1,48,47,2582782052
119,24,13,Improv_Metronome,18,1,48,47,2583021708
119,24,13,Improv_Metronome,19,5,42,127,2583258484
119,24,13,Improv_Metronome,20,1,48,91,2583276112
119,24,13,Improv_Metronome,21,1,48,47,2583503056
119,24,13,Improv_Metronome,22,5,42,127,2583759280
119,24,13,Improv_Metronome,23,1,48,63,2583787980
119,24,13,Improv_Metronome,24,1,48,55,2584041772
119,24,13,Improv_Metronome,25,5,42,127,2584258876
119,24,13,Improv_Metronome,26,1,48,87,2584300816
119,24,13,Improv_Metronome,27,1,48,46,2584515640
119,24,13,Improv_Metronome,28,5,42,127,2584758600
119,24,13,Improv_Metronome,29,1,48,59,2584786576
119,24,13,Improv_Metronome,30,1,48,53,2585020448
119,24,13,Improv_Metronome,31,5,42,127,2585259320
119,24,13,Improv_Metronome,32,1,48,86,2585286996
119,24,13,Improv_Metronome,33,1,48,46,2585516824
119,24,13,Improv_Metronome,34,5,42,127,2585758988
119,24,13,Improv_Metronome,35,1,48,59,2585780808
119,24,13,Improv_Metronome,36,1,48,47,2586004532
119,24,13,Improv_Metronome,37,5,42,127,2586258812
119,24,13,Improv_Metronome,38,1,48,73,2586265672
119,24,13,Improv_Metronome,39,1,48,48,2586490140
119,24,13,Improv_Metronome,40,5,42,127,2586758632
119,24,13,Improv_Metronome,41,1,48,56,2586760196
119,24,13,Improv_Metronome,42,1,48,43,2587008660
119,24,13,Improv_Metronome,43,5,42,127,2587259128
119,24,13,Improv_Metronome,44,1,48,80,2587270176
119,24,13,Improv_Metronome,45,1,48,46,2587496888
119,24,13,Improv_Metronome,46,5,42,127,2587758948
119,24,13,Improv_Metronome,47,1,48,49,2587766328
119,24,13,Improv_Metronome,48,1,48,36,2588014888
119,24,13,Improv_Metronome,49,5,42,127,2588258696
119,24,13,Improv_Metronome,50,1,48,55,2588263980
119,24,13,Improv_Metronome,51,1,48,49,2588497132
119,24,13,Improv_Metronome,52,5,42,127,2588759636
119,24,13,Improv_Metronome,53,1,48,48,2588769040
119,24,13,Improv_Metronome,54,1,48,45,2589020808
119,24,13,Improv_Metronome,55,5,42,127,2589259012
119,24,13,Improv_Metronome,56,1,38,59,2589269608
119,24,13,Improv_Metronome,57,1,48,63,2589280208
119,24,13,Improv_Metronome,58,1,48,52,2589505416
119,24,13,Improv_Metronome,59,5,42,127,2589758724
119,24,13,Improv_Metronome,60,1,48,63,2589770144
119,24,13,Improv_Metronome,61,1,38,63,2589780968
119,24,13,Improv_Metronome,62,1,48,49,2590005344
119,24,13,Improv_Metronome,63,5,42,127,2590258648
119,24,13,Improv_Metronome,64,1,48,66,2590281064
119,24,13,Improv_Metronome,65,1,38,67,2590285912
119,24,13,Improv_Metronome,66,1,48,52,2590509156
119,24,13,Improv_Metronome,67,5,42,127,2590759172
119,24,13,Improv_Metronome,68,1,48,70,2590770224
119,24,13,Improv_Metronome,69,1,38,74,2590790468
119,24,13,Improv_Metronome,70,1,48,49,2591008556
119,24,13,Improv_Metronome,71,5,42,127,2591259024
119,24,13,Improv_Metronome,72,1,48,66,2591282340
119,24,13,Improv_Metronome,73,1,38,67,2591292864
119,24,13,Improv_Metronome,74,1,48,54,2591510728
119,24,13,Improv_Metronome,75,5,42,127,2591758576
119,24,13,Improv_Metronome,76,1,48,72,2591782188
119,24,13,Improv_Metronome,77,1,38,70,2591795180
119,24,13,Improv_Metronome,78,1,48,50,2592016708
119,24,13,Improv_Metronome,79,5,42,127,2592258424
119,24,13,Improv_Metronome,80,1,48,65,2592287572
119,24,13,Improv_Metronome,81,1,38,75,2592295852
119,24,13,Improv_Metronome,82,1,48,54,2592508480
119,24,13,Improv_Metronome,83,5,42,127,2592759244
119,24,13,Improv_Metronome,84,1,48,67,2592783228
119,24,13,Improv_Metronome,85,1,38,59,2592786508
119,24,13,Improv_Metronome,86,1,48,54,2593018500
119,24,13,Improv_Metronome,87,5,42,127,2593258796
119,24,13,Improv_Metronome,88,1,48,66,2593270964
119,24,13,Improv_Metronome,89,1,38,77,2593274312
119,24,13,Improv_Metronome,90,1,48,54,2593504440
119,24,13,Improv_Metronome,91,5,42,127,2593758568
119,24,13,Improv_Metronome,92,1,48,67,2593764608
119,24,13,Improv_Metronome,93,1,38,86,2593774684
119,24,13,Improv_Metronome,94,1,48,54,2594000620
119,24,13,Improv_Metronome,95,5,42,127,2594259168
119,24,13,Improv_Metronome,96,1,48,68,2594273432
119,24,13,Improv_Metronome,97,1,38,76,2594278344
119,24,13,Improv_Metronome,98,1,48,58,2594504284
119,24,13,Improv_Metronome,99,5,42,127,2594759092
119,24,13,Improv_Metronome,100,1,48,72,2594769168
119,24,13,Improv_Metronome,101,1,38,90,2594779616
119,24,13,Improv_Metronome,102,1,48,52,2595005080
119,24,13,Improv_Metronome,103,5,42,127,2595258664
119,24,13,Improv_Metronome,104,1,48,82,2595274000
119,24,13,Improv_Metronome,105,1,38,88,2595277272
119,24,13,Improv_Metronome,106,1,48,69,2595534028
119,24,13,Improv_Metronome,107,1,38,28,2595562660
119,24,13,Improv_Metronome,108,5,42,127,2595758468
119,24,13,Improv_Metronome,109,1,48,79,2595796540
119,24,13,Improv_Metronome,110,1,38,76,2595799812
119,24,13,Improv_Metronome,111,1,48,63,2596004856
119,24,13,Improv_Metronome,112,5,42,127,2596259512
119,24,13,Improv_Metronome,113,1,38,97,2596270340
119,24,13,Improv_Metronome,114,1,48,80,2596274656
119,24,13,Improv_Metronome,115,1,48,61,2596499920
119,24,13,Improv_Metronome,116,5,42,127,2596758764
119,24,13,Improv_Metronome,117,1,48,66,2596761736
119,24,13,Improv_Metronome,118,1,38,91,2596765452
119,24,13,Improv_Metronome,119,1,48,54,2596996552
119,24,13,Improv_Metronome,120,1,48,66,2597258540
119,24,13,Improv_Metronome,121,1,38,83,2597259112
119,24,13,Improv_Metronome,122,5,42,127,2597262404
119,24,13,Improv_Metronome,123,1,48,55,2597499764
119,24,13,Improv_Metronome,124,1,38,73,2597750268
119,24,13,Improv_Metronome,125,1,48,70,2597754064
119,24,13,Improv_Metronome,126,5,42,127,2597759628
119,24,13,Improv_Metronome,127,1,38,65,2597993036
119,24,13,Improv_Metronome,128,1,48,66,2597996908
119,24,13,Improv_Metronome,129,1,38,73,2598246560
119,24,13,Improv_Metronome,130,1,48,62,2598249752
119,24,13,Improv_Metronome,131,5,42,127,2598259064
119,24,13,Improv_Metronome,132,1,38,71,2598485360
119,24,13,Improv_Metronome,133,1,48,75,2598489676
119,24,13,Improv_Metronome,134,1,48,81,2598738208
119,24,13,Improv_Metronome,135,1,38,72,2598740728
119,24,13,Improv_Metronome,136,5,42,127,2598758644
119,24,13,Improv_Metronome,137,1,38,78,2598988904
119,24,13,Improv_Metronome,138,1,48,83,2598992620
119,24,13,Improv_Metronome,139,1,48,91,2599246460
119,24,13,Improv_Metronome,140,1,38,81,2599247116
119,24,13,Improv_Metronome,141,5,42,127,2599258368
119,24,13,Improv_Metronome,142,1,38,92,2599489604
119,24,13,Improv_Metronome,143,1,48,91,2599496164
119,24,13,Improv_Metronome,144,1,38,40,2599611456
119,24,13,Improv_Metronome,145,1,38,96,2599743996
119,24,13,Improv_Metronome,146,5,42,127,2599759436
119,24,13,Improv_Metronome,147,1,38,68,2599858584
119,24,13,Improv_Metronome,148,1,38,80,2599971980
119,24,13,Improv_Metronome,149,1,38,76,2600092684
119,24,13,Improv_Metronome,150,1,38,77,2600212956
119,24,13,Improv_Metronome,151,5,42,127,2600258920
119,24,13,Improv_Metronome,152,1,38,84,2600329112
119,24,13,Improv_Metronome,153,1,38,85,2600457768
119,24,13,Improv_Metronome,154,1,38,102,2600581316
119,24,13,Improv_Metronome,155,1,48,82,2600715052
119,24,13,Improv_Metronome,156,5,42,127,2600758696
119,24,13,Improv_Metronome,157,1,38,83,2600825748
119,24,13,Improv_Metronome,158,1,38,50,2600945580
119,24,13,Improv_Metronome,159,1,48,104,2601190624
119,24,13,Improv_Metronome,160,1,38,105,2601211544
119,24,13,Improv_Metronome,161,5,42,127,2601259600
119,24,13,Improv_Metronome,162,1,48,54,2601439600
119,24,13,Improv_Metronome,163,1,48,74,2601708876
119,24,13,Improv_Metronome,164,5,42,127,2601759172
119,24,13,Improv_Metronome,165,1,48,69,2601960364
119,24,13,Improv_Metronome,166,1,48,80,2602066256
119,24,13,Improv_Metronome,167,1,48,119,2602211744
119,24,13,Improv_Metronome,168,5,42,127,2602258676
119,24,13,Improv_Metronome,169,1,48,57,2602474376
119,24,13,Improv_Metronome,170,1,48,81,2602736848
119,24,13,Improv_Metronome,171,5,42,127,2602758496
119,24,13,Improv_Metronome,172,1,48,67,2602984296
119,24,13,Improv_Metronome,173,1,38,90,2603147636
119,24,13,Improv_Metronome,174,1,48,110,2603247564
119,24,13,Improv_Metronome,175,5,42,127,2603259344
119,24,13,Improv_Metronome,176,1,48,58,2603498384
119,24,13,Improv_Metronome,177,5,42,127,2603759096
119,24,13,Improv_Metronome,178,1,48,52,2603769768
119,24,13,Improv_Metronome,179,1,48,50,2604019972
119,24,13,Improv_Metronome,180,1,48,66,2604137684
119,24,13,Improv_Metronome,181,5,42,127,2604258600
119,24,13,Improv_Metronome,182,1,48,63,2604265456
119,24,13,Improv_Metronome,183,1,48,53,2604392216
119,24,13,Improv_Metronome,184,1,48,58,2604494996
119,24,13,Improv_Metronome,185,1,48,54,2604606192
119,24,13,Improv_Metronome,186,5,42,127,2604759424
119,24,13,Improv_Metronome,187,1,48,63,2604762172
119,24,13,Improv_Metronome,188,1,48,44,2605000624
119,24,13,Improv_Metronome,189,1,48,54,2605147364
119,24,13,Improv_Metronome,190,5,42,127,2605259004
119,24,13,Improv_Metronome,191,1,48,30,2605266236
119,24,13,Improv_Metronome,192,1,48,65,2605270624
119,24,13,Improv_Metronome,193,1,48,16,2605405012
119,24,13,Improv_Metronome,194,1,48,45,2605509960
119,24,13,Improv_Metronome,195,1,48,58,2605667464
119,24,13,Improv_Metronome,196,5,42,127,2605758776
119,24,13,Improv_Metronome,197,1,48,46,2605765020
119,24,13,Improv_Metronome,198,1,48,64,2605879812
119,24,13,Improv_Metronome,199,1,48,61,2606028888
119,24,13,Improv_Metronome,200,5,42,127,2606258684
119,24,13,Improv_Metronome,201,1,48,87,2606305288
119,24,13,Improv_Metronome,202,1,38,97,2606305940
119,24,13,Improv_Metronome,203,1,48,60,2606538088
119,24,13,Improv_Metronome,204,1,48,54,2606692072
119,24,13,Improv_Metronome,205,5,42,127,2606759352
119,24,13,Improv_Metronome,206,1,48,49,2606797784
119,24,13,Improv_Metronome,207,1,48,60,2606924848
119,24,13,Improv_Metronome,208,1,48,54,2607058212
119,24,13,Improv_Metronome,209,5,42,127,2607259064
119,24,13,Improv_Metronome,210,1,38,78,2607298860
119,24,13,Improv_Metronome,211,1,48,94,2607304900
119,24,13,Improv_Metronome,212,1,48,58,2607535676
119,24,13,Improv_Metronome,213,1,48,57,2607695668
119,24,13,Improv_Metronome,214,5,42,127,2607758684
119,24,13,Improv_Metronome,215,1,48,50,2607793796
119,24,13,Improv_Metronome,216,1,48,58,2607909364
119,24,13,Improv_Metronome,217,1,48,56,2608033132
119,24,13,Improv_Metronome,218,1,38,65,2608240700
119,24,13,Improv_Metronome,219,5,42,127,2608258460
119,24,13,Improv_Metronome,220,1,48,76,2608286788
119,24,13,Improv_Metronome,221,1,48,56,2608521404
119,24,13,Improv_Metronome,222,1,48,53,2608656640
119,24,13,Improv_Metronome,223,5,42,127,2608759276
119,24,13,Improv_Metronome,224,1,48,45,2608774812
119,24,13,Improv_Metronome,225,1,48,57,2608894864
119,24,13,Improv_Metronome,226,1,48,51,2609028808
119,24,13,Improv_Metronome,227,5,42,127,2609258856
119,24,13,Improv_Metronome,228,1,38,89,2609268480
119,24,13,Improv_Metronome,229,1,48,81,2609286036
119,24,13,Improv_Metronome,230,1,48,62,2609514144
119,24,13,Improv_Metronome,231,1,48,70,2609657092
119,24,13,Improv_Metronome,232,5,42,127,2609758460
119,24,13,Improv_Metronome,233,1,48,54,2609774292
119,24,13,Improv_Metronome,234,1,48,62,2609888588
119,24,13,Improv_Metronome,235,1,48,66,2610015348
119,24,13,Improv_Metronome,236,1,48,47,2610164048
119,24,13,Improv_Metronome,237,5,42,127,2610259284
119,24,13,Improv_Metronome,238,1,48,102,2610284540
119,24,13,Improv_Metronome,239,1,48,62,2610524120
119,24,13,Improv_Metronome,240,1,48,58,2610646868
119,24,13,Improv_Metronome,241,5,42,127,2610759012
119,24,13,Improv_Metronome,242,1,48,66,2610785544
119,24,13,Improv_Metronome,243,1,48,64,2610900952
119,24,13,Improv_Metronome,244,1,48,63,2611019708
119,24,13,Improv_Metronome,245,1,48,78,2611136028
119,24,13,Improv_Metronome,246,5,42,127,2611258712
119,24,13,Improv_Metronome,247,1,48,84,2611282328
119,24,13,Improv_Metronome,248,1,48,29,2611402676
119,24,13,Improv_Metronome,249,1,48,63,2611535276
119,24,13,Improv_Metronome,250,1,48,73,2611670660
119,24,13,Improv_Metronome,251,5,42,127,2611758580
119,24,13,Improv_Metronome,252,1,48,71,2611776648
119,24,13,Improv_Metronome,253,1,48,86,2611893756
119,24,13,Improv_Metronome,254,1,48,74,2612020088
119,24,13,Improv_Metronome,255,5,42,127,2612259264
119,24,13,Improv_Metronome,256,1,48,91,2612290656
119,24,13,Improv_Metronome,257,1,38,89,2612291308
119,24,13,Improv_Metronome,258,1,38,102,2612520836
119,24,13,Improv_Metronome,259,1,48,107,2612536532
119,24,13,Improv_Metronome,260,5,42,127,2612758840
119,24,13,Improv_Metronome,261,1,48,93,2612780140
119,24,13,Improv_Metronome,262,1,48,89,2612894856
119,24,13,Improv_Metronome,263,1,48,94,2613014156
119,24,13,Improv_Metronome,264,5,42,127,2613258568
119,24,13,Improv_Metronome,265,1,48,92,2613278892
119,24,13,Improv_Metronome,266,1,38,110,2613283356
119,24,13,Improv_Metronome,267,1,48,73,2613512216
119,24,13,Improv_Metronome,268,1,48,79,2613645032
119,24,13,Improv_Metronome,269,1,48,77,2613757400
119,24,13,Improv_Metronome,270,5,42,127,2613759288
119,24,13,Improv_Metronome,271,1,48,81,2613870700
119,24,13,Improv_Metronome,272,1,48,64,2613995088
119,24,13,Improv_Metronome,273,1,38,98,2614244844
119,24,13,Improv_Metronome,274,1,48,97,2614248040
119,24,13,Improv_Metronome,275,5,42,127,2614259068
119,24,13,Improv_Metronome,276,1,38,86,2614450032
119,24,13,Improv_Metronome,277,1,48,98,2614486184
119,24,13,Improv_Metronome,278,1,38,72,2614749668
119,24,13,Improv_Metronome,279,5,42,127,2614758752
119,24,13,Improv_Metronome,280,1,38,75,2614848248
119,24,13,Improv_Metronome,281,1,38,66,2614978548
119,24,13,Improv_Metronome,282,1,48,115,2615240944
119,24,13,Improv_Metronome,283,5,42,127,2615258556
119,24,13,Improv_Metronome,284,1,38,44,2615493108
119,24,13,Improv_Metronome,285,1,38,76,2615604312
119,24,13,Improv_Metronome,286,1,48,108,2615726212
119,24,13,Improv_Metronome,287,5,42,127,2615759252
119,24,13,Improv_Metronome,288,1,38,66,2615966104
119,24,13,Improv_Metronome,289,1,38,94,2616082264
119,24,13,Improv_Metronome,290,1,48,97,2616220772
119,24,13,Improv_Metronome,291,5,42,127,2616259124
119,24,13,Improv_Metronome,292,1,38,62,2616458276
119,24,13,Improv_Metronome,293,1,38,67,2616532552
119,24,13,Improv_Metronome,294,1,38,73,2616679584
119,24,13,Improv_Metronome,295,5,42,127,2616758676
119,24,13,Improv_Metronome,296,1,38,59,2616795836
119,24,13,Improv_Metronome,297,1,38,65,2616931648
119,24,13,Improv_Metronome,298,1,38,64,2617068008
119,24,13,Improv_Metronome,299,1,48,119,2617194244
119,24,13,Improv_Metronome,300,5,42,127,2617259280
119,24,13,Improv_Metronome,301,1,38,62,2617332416
119,24,13,Improv_Metronome,302,1,38,71,2617473168
119,24,13,Improv_Metronome,303,1,38,57,2617612592
119,24,13,Improv_Metronome,304,1,38,57,2617719748
119,24,13,Improv_Metronome,305,5,42,127,2617759276
119,24,13,Improv_Metronome,306,1,38,57,2617858672
119,24,13,Improv_Metronome,307,1,38,59,2617973464
119,24,13,Improv_Metronome,308,1,38,71,2618096508
119,24,13,Improv_Metronome,309,1,48,127,2618222444
119,24,13,Improv_Metronome,310,5,42,127,2618258760
119,24,13,Improv_Metronome,311,1,38,67,2618355608
119,24,13,Improv_Metronome,312,1,38,59,2618476532
119,24,13,Improv_Metronome,313,1,38,59,2618622840
119,24,13,Improv_Metronome,314,1,38,63,2618737940
119,24,13,Improv_Metronome,315,5,42,127,2618758464
119,24,13,Improv_Metronome,316,1,38,58,2618870644
119,24,13,Improv_Metronome,317,1,38,65,2618987384
119,24,13,Improv_Metronome,318,1,38,69,2619121052
119,24,13,Improv_Metronome,319,1,48,97,2619249156
119,24,13,Improv_Metronome,320,5,42,127,2619259364
119,24,13,Improv_Metronome,321,1,38,69,2619369900
119,24,13,Improv_Metronome,322,1,38,61,2619495016
119,24,13,Improv_Metronome,323,1,38,72,2619609908
119,24,13,Improv_Metronome,324,1,38,59,2619748712
119,24,13,Improv_Metronome,325,5,42,127,2619759140
119,24,13,Improv_Metronome,326,1,38,83,2619870576
119,24,13,Improv_Metronome,327,1,48,110,2619994124
119,24,13,Improv_Metronome,328,1,38,72,2620250832
119,24,13,Improv_Metronome,329,5,42,127,2620258868
119,24,13,Improv_Metronome,330,1,38,64,2620397980
119,24,13,Improv_Metronome,331,1,48,57,2620514644
119,24,13,Improv_Metronome,332,1,38,85,2620659156
119,24,13,Improv_Metronome,333,5,42,127,2620759476
119,24,13,Improv_Metronome,334,1,38,89,2620808524
119,24,13,Improv_Metronome,335,1,38,63,2620927604
119,24,13,Improv_Metronome,336,1,38,54,2621054812
119,24,13,Improv_Metronome,337,1,38,60,2621169332
119,24,13,Improv_Metronome,338,5,42,127,2621259200
119,24,13,Improv_Metronome,339,1,48,122,2621323260
119,24,13,Improv_Metronome,340,1,48,98,2621414892
119,24,13,Improv_Metronome,341,1,48,92,2621565216
119,24,13,Improv_Metronome,342,1,48,92,2621686760
119,24,13,Improv_Metronome,343,5,42,127,2621758976
119,24,13,Improv_Metronome,344,1,48,85,2621807484
119,24,13,Improv_Metronome,345,1,48,78,2621940404
119,24,13,Improv_Metronome,346,1,48,73,2622056168
119,24,13,Improv_Metronome,347,1,48,70,2622167624
119,24,13,Improv_Metronome,348,5,42,127,2622258536
119,24,13,Improv_Metronome,349,1,48,84,2622287220
119,24,13,Improv_Metronome,350,1,48,63,2622412728
119,24,13,Improv_Metronome,351,1,48,64,2622511592
119,24,13,Improv_Metronome,352,1,48,65,2622634536
119,24,13,Improv_Metronome,353,5,42,127,2622759420
119,24,13,Improv_Metronome,354,1,48,81,2622772112
119,24,13,Improv_Metronome,355,1,48,75,2622878228
119,24,13,Improv_Metronome,356,1,48,61,2622999028
119,24,13,Improv_Metronome,357,1,48,69,2623132748
119,24,13,Improv_Metronome,358,5,42,127,2623258972
119,24,13,Improv_Metronome,359,1,48,97,2623259936
119,24,13,Improv_Metronome,360,1,48,76,2623365960
119,24,13,Improv_Metronome,361,1,48,69,2623478988
119,24,13,Improv_Metronome,362,1,48,78,2623604776
119,24,13,Improv_Metronome,363,1,48,85,2623731784
119,24,13,Improv_Metronome,364,5,42,127,2623758744
119,24,13,Improv_Metronome,365,1,48,77,2623983124
119,24,13,Improv_Metronome,366,1,38,82,2624252476
119,24,13,Improv_Metronome,367,1,48,99,2624257880
119,24,13,Improv_Metronome,368,5,42,127,2624259668
119,24,13,Improv_Metronome,369,1,48,62,2624495316
119,24,13,Improv_Metronome,370,1,48,88,2624694408
119,24,13,Improv_Metronome,371,5,42,127,2624759016
119,24,13,Improv_Metronome,372,1,48,75,2624770496
119,24,13,Improv_Metronome,373,1,48,75,2624898900
119,24,13,Improv_Metronome,374,1,48,75,2625013044
119,24,13,Improv_Metronome,375,5,42,127,2625259024
119,24,13,Improv_Metronome,376,1,48,95,2625300212
119,24,13,Improv_Metronome,377,1,38,86,2625304612
119,24,13,Improv_Metronome,378,1,48,69,2625529724
119,24,13,Improv_Metronome,379,1,48,82,2625682516
119,24,13,Improv_Metronome,380,5,42,127,2625758492
119,24,13,Improv_Metronome,381,1,48,76,2625790320
119,24,13,Improv_Metronome,382,1,48,84,2625894040
119,24,13,Improv_Metronome,383,1,48,63,2626025388
119,24,13,Improv_Metronome,384,5,42,127,2626259252
119,24,13,Improv_Metronome,385,1,38,55,2626290940
119,24,13,Improv_Metronome,386,1,48,98,2626295860
119,24,13,Improv_Metronome,387,1,48,74,2626516708
119,24,13,Improv_Metronome,388,1,48,71,2626654764
119,24,13,Improv_Metronome,389,5,42,127,2626759004
119,24,13,Improv_Metronome,390,1,48,67,2626765040
119,24,13,Improv_Metronome,391,1,48,75,2626886940
119,24,13,Improv_Metronome,392,1,48,65,2626998064
119,24,13,Improv_Metronome,393,1,48,89,2627248716
119,24,13,Improv_Metronome,394,5,42,127,2627258700
119,24,13,Improv_Metronome,395,1,38,78,2627263484
119,24,13,Improv_Metronome,396,1,48,76,2627493664
119,24,13,Improv_Metronome,397,1,38,65,2627496264
119,24,13,Improv_Metronome,398,1,48,90,2627744792
119,24,13,Improv_Metronome,399,5,42,127,2627758436
119,24,13,Improv_Metronome,400,1,48,82,2627766776
119,24,13,Improv_Metronome,401,1,48,51,2627856388
119,24,13,Improv_Metronome,402,1,48,76,2627971924
119,24,13,Improv_Metronome,403,1,48,93,2628246964
119,24,13,Improv_Metronome,404,1,38,84,2628250308
119,24,13,Improv_Metronome,405,5,42,127,2628259168
119,24,13,Improv_Metronome,406,1,48,73,2628476040
119,24,13,Improv_Metronome,407,1,48,96,2628606044
119,24,13,Improv_Metronome,408,1,48,73,2628723300
119,24,13,Improv_Metronome,409,5,42,127,2628759236
119,24,13,Improv_Metronome,410,1,48,85,2628834472
119,24,13,Improv_Metronome,411,1,48,63,2628943280
119,24,13,Improv_Metronome,412,1,38,89,2629221980
119,24,13,Improv_Metronome,413,1,48,70,2629224424
119,24,13,Improv_Metronome,414,5,42,127,2629258572
119,24,13,Improv_Metronome,415,1,48,60,2629454572
119,24,13,Improv_Metronome,416,1,48,71,2629591384
119,24,13,Improv_Metronome,417,1,48,67,2629691964
119,24,13,Improv_Metronome,418,5,42,127,2629759316
119,24,13,Improv_Metronome,419,1,48,62,2629797052
119,24,13,Improv_Metronome,420,1,48,86,2629934904
119,24,13,Improv_Metronome,421,1,48,98,2630223180
119,24,13,Improv_Metronome,422,1,38,98,2630236096
119,24,13,Improv_Metronome,423,5,42,127,2630259168
119,24,13,Improv_Metronome,424,1,48,80,2630466696
119,24,13,Improv_Metronome,425,1,38,66,2630595124
119,24,13,Improv_Metronome,426,1,38,64,2630711260
119,24,13,Improv_Metronome,427,5,42,127,2630759016
119,24,13,Improv_Metronome,428,1,38,77,2630830188
119,24,13,Improv_Metronome,429,1,48,96,2630955328
119,24,13,Improv_Metronome,430,1,38,82,2631231256
119,24,13,Improv_Metronome,431,1,38,91,2631243276
119,24,13,Improv_Metronome,432,5,42,127,2631258348
119,24,13,Improv_Metronome,433,1,48,85,2631466272
119,24,13,Improv_Metronome,434,1,38,78,2631669876
119,24,13,Improv_Metronome,435,1,38,73,2631745248
119,24,13,Improv_Metronome,436,5,42,127,2631759268
119,24,13,Improv_Metronome,437,1,38,62,2631985224
119,24,13,Improv_Metronome,438,1,38,84,2632236320
119,24,13,Improv_Metronome,439,1,38,82,2632252080
119,24,13,Improv_Metronome,440,5,42,127,2632259144
119,24,13,Improv_Metronome,441,1,38,64,2632489732
119,24,13,Improv_Metronome,442,1,38,69,2632635520
119,24,13,Improv_Metronome,443,1,38,78,2632747248
119,24,13,Improv_Metronome,444,5,42,127,2632758872
119,24,13,Improv_Metronome,445,1,38,67,2632856220
119,24,13,Improv_Metronome,446,1,38,82,2632988992
119,24,13,Improv_Metronome,447,1,38,78,2633099744
119,24,13,Improv_Metronome,448,1,48,98,2633249868
119,24,13,Improv_Metronome,449,5,42,127,2633259328
119,24,13,Improv_Metronome,450,1,48,54,2633357648
119,24,13,Improv_Metronome,451,1,38,74,2633519436
119,24,13,Improv_Metronome,452,1,38,72,2633632884
119,24,13,Improv_Metronome,453,5,42,127,2633759108
119,24,13,Improv_Metronome,454,1,48,92,2633771948
119,24,13,Improv_Metronome,455,1,38,88,2633908884
119,24,13,Improv_Metronome,456,1,38,65,2634020112
119,24,13,Improv_Metronome,457,1,38,86,2634139388
119,24,13,Improv_Metronome,458,5,42,127,2634259108
119,24,13,Improv_Metronome,459,1,48,96,2634275320
119,24,13,Improv_Metronome,460,1,38,71,2634393252
119,24,13,Improv_Metronome,461,1,38,60,2634507548
119,24,13,Improv_Metronome,462,1,38,79,2634635504
119,24,13,Improv_Metronome,463,1,38,78,2634746136
119,24,13,Improv_Metronome,464,5,42,127,2634758584
119,24,13,Improv_Metronome,465,1,38,75,2634875528
119,24,13,Improv_Metronome,466,1,38,76,2635000220
119,24,13,Improv_Metronome,467,1,38,84,2635116884
119,24,13,Improv_Metronome,468,1,48,98,2635246960
119,24,13,Improv_Metronome,469,5,42,127,2635259332
119,24,13,Improv_Metronome,470,1,48,111,2635367900
119,24,13,Improv_Metronome,471,1,48,109,2635481968
119,24,13,Improv_Metronome,472,1,48,121,2635613444
119,24,13,Improv_Metronome,473,1,48,102,2635728780
119,24,13,Improv_Metronome,474,5,42,127,2635759036
119,24,13,Improv_Metronome,475,1,48,81,2635845840
119,24,13,Improv_Metronome,476,1,48,82,2635969560
119,24,13,Improv_Metronome,477,1,48,103,2636243320
119,24,13,Improv_Metronome,478,1,38,109,2636256628
119,24,13,Improv_Metronome,479,5,42,127,2636259640
119,24,13,Improv_Metronome,480,1,48,56,2636489752
119,24,13,Improv_Metronome,481,1,48,70,2636611496
119,24,13,Improv_Metronome,482,1,48,71,2636735596
119,24,13,Improv_Metronome,483,5,42,127,2636759264
119,24,13,Improv_Metronome,484,1,48,83,2636847488
119,24,13,Improv_Metronome,485,1,48,62,2636973124
119,24,13,Improv_Metronome,486,1,48,118,2637224076
119,24,13,Improv_Metronome,487,1,38,86,2637236396
119,24,13,Improv_Metronome,488,5,42,127,2637259192
119,24,13,Improv_Metronome,489,1,48,63,2637469084
119,24,13,Improv_Metronome,490,1,48,69,2637594592
119,24,13,Improv_Metronome,491,1,48,73,2637720084
119,24,13,Improv_Metronome,492,5,42,127,2637758964
119,24,13,Improv_Metronome,493,1,48,74,2637845388
119,24,13,Improv_Metronome,494,1,48,70,2637972448
119,24,13,Improv_Metronome,495,1,38,80,2638226992
119,24,13,Improv_Metronome,496,1,48,99,2638231836
119,24,13,Improv_Metronome,497,5,42,127,2638258420
119,24,13,Improv_Metronome,498,1,38,81,2638471024
119,24,13,Improv_Metronome,499,1,48,90,2638480356
119,24,13,Improv_Metronome,500,1,38,53,2638713252
119,24,13,Improv_Metronome,501,1,48,92,2638732460
119,24,13,Improv_Metronome,502,5,42,127,2638759268
119,24,13,Improv_Metronome,503,1,48,111,2638991024
119,24,13,Improv_Metronome,504,1,38,124,2638994748
119,24,13,Improv_Metronome,505,1,48,85,2639223904
119,24,13,Improv_Metronome,506,1,38,92,2639235996
119,24,13,Improv_Metronome,507,5,42,127,2639258920
119,24,13,Improv_Metronome,508,1,38,103,2639452236
119,24,13,Improv_Metronome,509,1,48,106,2639479288
119,24,13,Improv_Metronome,510,1,48,93,2639723328
119,24,13,Improv_Metronome,511,1,48,78,2639736472
119,24,13,Improv_Metronome,512,5,42,127,2639758872
119,24,13,Improv_Metronome,513,1,48,90,2639954156
119,24,13,Improv_Metronome,514,1,38,100,2640221260
119,24,13,Improv_Metronome,515,1,48,108,2640224460
119,24,13,Improv_Metronome,516,5,42,127,2640258448
119,24,13,Improv_Metronome,517,1,48,81,2640469872
119,24,13,Improv_Metronome,518,1,48,87,2640593144
119,24,13,Improv_Metronome,519,1,48,103,2640715564
119,24,13,Improv_Metronome,520,5,42,127,2640759060
119,24,13,Improv_Metronome,521,1,48,94,2640818108
119,24,13,Improv_Metronome,522,1,48,82,2640955816
119,24,13,Improv_Metronome,523,1,38,127,2641218432
119,24,13,Improv_Metronome,524,1,48,111,2641223728
119,24,13,Improv_Metronome,525,5,42,127,2641258840
119,24,13,Improv_Metronome,526,1,48,73,2641469424
119,24,13,Improv_Metronome,527,1,38,74,2641581304
119,24,13,Improv_Metronome,528,1,38,89,2641729704
119,24,13,Improv_Metronome,529,5,42,127,2641758756
119,24,13,Improv_Metronome,530,1,38,87,2641829332
119,24,13,Improv_Metronome,531,1,38,72,2641963668
119,24,13,Improv_Metronome,532,1,38,84,2642243644
119,24,13,Improv_Metronome,533,1,38,125,2642250348
119,24,13,Improv_Metronome,534,5,42,127,2642259212
119,24,13,Improv_Metronome,535,1,38,76,2642494588
119,24,13,Improv_Metronome,536,1,38,85,2642622720
119,24,13,Improv_Metronome,537,1,38,112,2642752548
119,24,13,Improv_Metronome,538,5,42,127,2642759012
119,24,13,Improv_Metronome,539,1,38,92,2642878604
119,24,13,Improv_Metronome,540,1,48,76,2642996908
119,24,13,Improv_Metronome,541,1,38,45,2643112976
119,24,13,Improv_Metronome,542,5,42,127,2643258720
119,24,13,Improv_Metronome,543,1,38,95,2643260512
119,24,13,Improv_Metronome,544,1,38,79,2643374464
119,24,13,Improv_Metronome,545,1,48,105,2643497656
119,24,13,Improv_Metronome,546,1,48,99,2643635788
119,24,13,Improv_Metronome,547,5,42,127,2643758572
119,24,13,Improv_Metronome,548,1,48,88,2643761172
119,24,13,Improv_Metronome,549,1,48,82,2643865940
119,24,13,Improv_Metronome,550,1,48,93,2644020020
119,24,13,Improv_Metronome,551,5,42,127,2644259124
119,24,13,Improv_Metronome,552,1,48,109,2644292232
119,24,13,Improv_Metronome,553,1,38,98,2644307696
119,24,13,Improv_Metronome,554,1,48,62,2644525632
119,24,13,Improv_Metronome,555,1,38,86,2644656212
119,24,13,Improv_Metronome,556,5,42,127,2644758876
119,24,13,Improv_Metronome,557,1,48,87,2644781368
119,24,13,Improv_Metronome,558,1,48,92,2644903636
119,24,13,Improv_Metronome,559,1,48,77,2645032968
119,24,13,Improv_Metronome,560,5,42,127,2645258672
119,24,13,Improv_Metronome,561,1,48,118,2645292608
119,24,13,Improv_Metronome,562,1,38,114,2645295880
119,24,13,Improv_Metronome,563,1,48,76,2645525564
119,24,13,Improv_Metronome,564,1,38,84,2645655688
119,24,13,Improv_Metronome,565,5,42,127,2645759548
119,24,13,Improv_Metronome,566,1,48,85,2645775908
119,24,13,Improv_Metronome,567,1,38,87,2645897364
119,24,13,Improv_Metronome,568,1,48,65,2646013372
119,24,13,Improv_Metronome,569,5,42,127,2646259056
119,24,13,Improv_Metronome,570,1,48,125,2646274440
119,24,13,Improv_Metronome,571,1,38,111,2646277712
119,24,13,Improv_Metronome,572,1,38,42,2646393372
119,24,13,Improv_Metronome,573,1,48,84,2646505420
119,24,13,Improv_Metronome,574,1,38,82,2646620592
119,24,13,Improv_Metronome,575,1,38,101,2646742664
119,24,13,Improv_Metronome,576,5,42,127,2646758632
119,24,13,Improv_Metronome,577,1,38,98,2646840796
119,24,13,Improv_Metronome,578,1,48,90,2646964936
119,24,13,Improv_Metronome,579,1,38,87,2647091352
119,24,13,Improv_Metronome,580,1,38,76,2647220872
119,24,13,Improv_Metronome,581,5,42,127,2647258556
119,24,13,Improv_Metronome,582,1,38,107,2647340796
119,24,13,Improv_Metronome,583,1,48,108,2647455588
119,24,13,Improv_Metronome,584,1,38,95,2647586708
119,24,13,Improv_Metronome,585,1,38,82,2647696868
119,24,13,Improv_Metronome,586,5,42,127,2647759160
119,24,13,Improv_Metronome,587,1,38,62,2647817612
119,24,13,Improv_Metronome,588,1,38,72,2647926872
119,24,13,Improv_Metronome,589,1,38,82,2648050656
119,24,13,Improv_Metronome,0,1,38,95,2648193204
119,24,13,Improv_Metronome,0,9999,9999,9999,2578756724
119,24,13,Improv_Metronome,1,9999,9999,9999,2579256440
119,24,13,Improv_Metronome,2,9999,9999,9999,2579756084
119,24,13,Improv_Metronome,3,9999,9999,9999,2580256848
119,24,13,Improv_Metronome,4,9999,9999,9999,2580756564
119,24,13,Improv_Metronome,5,9999,9999,9999,2581256312
119,24,13,Improv_Metronome,6,9999,9999,9999,2581757028
119,24,13,Improv_Metronome,7,9999,9999,9999,2582256700
119,24,13,Improv_Metronome,8,9999,9999,9999,2582756448
119,24,13,Improv_Metronome,9,9999,9999,9999,2583256120
119,24,13,Improv_Metronome,10,9999,9999,9999,2583756920
119,24,13,Improv_Metronome,11,9999,9999,9999,2584256592
119,24,13,Improv_Metronome,12,9999,9999,9999,2584756312
119,24,13,Improv_Metronome,13,9999,9999,9999,2585257032
119,24,13,Improv_Metronome,14,9999,9999,9999,2585756776
119,24,13,Improv_Metronome,15,9999,9999,9999,2586256448
119,24,13,Improv_Metronome,16,9999,9999,9999,2586756196
119,24,13,Improv_Metronome,17,9999,9999,9999,2587256916
119,24,13,Improv_Metronome,18,9999,9999,9999,2587756660
119,24,13,Improv_Metronome,19,9999,9999,9999,2588256332
119,24,13,Improv_Metronome,20,9999,9999,9999,2588757052
119,24,13,Improv_Metronome,21,9999,9999,9999,2589256800
119,24,13,Improv_Metronome,22,9999,9999,9999,2589756512
119,24,13,Improv_Metronome,23,9999,9999,9999,2590256212
119,24,13,Improv_Metronome,24,9999,9999,9999,2590756960
119,24,13,Improv_Metronome,25,9999,9999,9999,2591256660
119,24,13,Improv_Metronome,26,9999,9999,9999,2591756364
119,24,13,Improv_Metronome,27,9999,9999,9999,2592256064
119,24,13,Improv_Metronome,28,9999,9999,9999,2592756808
119,24,13,Improv_Metronome,29,9999,9999,9999,2593256508
119,24,13,Improv_Metronome,30,9999,9999,9999,2593756208
119,24,13,Improv_Metronome,31,9999,9999,9999,2594256956
119,24,13,Improv_Metronome,32,9999,9999,9999,2594756728
119,24,13,Improv_Metronome,33,9999,9999,9999,2595256380
119,24,13,Improv_Metronome,34,9999,9999,9999,2595756108
119,24,13,Improv_Metronome,35,9999,9999,9999,2596256852
119,24,13,Improv_Metronome,36,9999,9999,9999,2596756552
119,24,13,Improv_Metronome,37,9999,9999,9999,2597256252
119,24,13,Improv_Metronome,38,9999,9999,9999,2597757044
119,24,13,Improv_Metronome,39,9999,9999,9999,2598256700
119,24,13,Improv_Metronome,40,9999,9999,9999,2598756432
119,24,13,Improv_Metronome,41,9999,9999,9999,2599256156
119,24,13,Improv_Metronome,42,9999,9999,9999,2599756852
119,24,13,Improv_Metronome,43,9999,9999,9999,2600256632
119,24,13,Improv_Metronome,44,9999,9999,9999,2600756336
119,24,13,Improv_Metronome,45,9999,9999,9999,2601257016
119,24,13,Improv_Metronome,46,9999,9999,9999,2601756736
119,24,13,Improv_Metronome,47,9999,9999,9999,2602256464
119,24,13,Improv_Metronome,48,9999,9999,9999,2602756212
119,24,13,Improv_Metronome,49,9999,9999,9999,2603256908
119,24,13,Improv_Metronome,50,9999,9999,9999,2603756664
119,24,13,Improv_Metronome,51,9999,9999,9999,2604256312
119,24,13,Improv_Metronome,52,9999,9999,9999,2604757064
119,24,13,Improv_Metronome,53,9999,9999,9999,2605256788
119,24,13,Improv_Metronome,54,9999,9999,9999,2605756488
119,24,13,Improv_Metronome,55,9999,9999,9999,2606256248
119,24,13,Improv_Metronome,56,9999,9999,9999,2606756916
119,24,13,Improv_Metronome,57,9999,9999,9999,2607256628
119,24,13,Improv_Metronome,58,9999,9999,9999,2607756396
119,24,13,Improv_Metronome,59,9999,9999,9999,2608256100
119,24,13,Improv_Metronome,60,9999,9999,9999,2608756844
119,24,13,Improv_Metronome,61,9999,9999,9999,2609256568
119,24,13,Improv_Metronome,62,9999,9999,9999,2609756248
119,24,13,Improv_Metronome,63,9999,9999,9999,2610257000
119,24,13,Improv_Metronome,64,9999,9999,9999,2610756724
119,24,13,Improv_Metronome,65,9999,9999,9999,2611256428
119,24,13,Improv_Metronome,66,9999,9999,9999,2611756148
119,24,13,Improv_Metronome,67,9999,9999,9999,2612256828
119,24,13,Improv_Metronome,68,9999,9999,9999,2612756556
119,24,13,Improv_Metronome,69,9999,9999,9999,2613256280
119,24,13,Improv_Metronome,70,9999,9999,9999,2613757032
119,24,13,Improv_Metronome,71,9999,9999,9999,2614256708
119,24,13,Improv_Metronome,72,9999,9999,9999,2614756468
119,24,13,Improv_Metronome,73,9999,9999,9999,2615256120
119,24,13,Improv_Metronome,74,9999,9999,9999,2615756892
119,24,13,Improv_Metronome,75,9999,9999,9999,2616256616
119,24,13,Improv_Metronome,76,9999,9999,9999,2616756316
119,24,13,Improv_Metronome,77,9999,9999,9999,2617257068
119,24,13,Improv_Metronome,78,9999,9999,9999,2617756768
119,24,13,Improv_Metronome,79,9999,9999,9999,2618256472
119,24,13,Improv_Metronome,80,9999,9999,9999,2618756180
119,24,13,Improv_Metronome,81,9999,9999,9999,2619256928
119,24,13,Improv_Metronome,82,9999,9999,9999,2619756632
119,24,13,Improv_Metronome,83,9999,9999,9999,2620256360
119,24,13,Improv_Metronome,84,9999,9999,9999,2620757044
119,24,13,Improv_Metronome,85,9999,9999,9999,2621256764
119,24,13,Improv_Metronome,86,9999,9999,9999,2621756468
119,24,13,Improv_Metronome,87,9999,9999,9999,2622256248
119,24,13,Improv_Metronome,88,9999,9999,9999,2622756984
119,24,13,Improv_Metronome,89,9999,9999,9999,2623256684
119,24,13,Improv_Metronome,90,9999,9999,9999,2623756384
119,24,13,Improv_Metronome,91,9999,9999,9999,2624256056
119,24,13,Improv_Metronome,92,9999,9999,9999,2624756804
119,24,13,Improv_Metronome,93,9999,9999,9999,2625256516
119,24,13,Improv_Metronome,94,9999,9999,9999,2625756280
119,24,13,Improv_Metronome,95,9999,9999,9999,2626256964
119,24,13,Improv_Metronome,96,9999,9999,9999,2626756716
119,24,13,Improv_Metronome,97,9999,9999,9999,2627256412
119,24,13,Improv_Metronome,98,9999,9999,9999,2627756152
119,24,13,Improv_Metronome,99,9999,9999,9999,2628256880
119,24,13,Improv_Metronome,100,9999,9999,9999,2628756576
119,24,13,Improv_Metronome,101,9999,9999,9999,2629256284
119,24,13,Improv_Metronome,102,9999,9999,9999,2629757028
119,24,13,Improv_Metronome,103,9999,9999,9999,2630256736
119,24,13,Improv_Metronome,104,9999,9999,9999,2630756432
119,24,13,Improv_Metronome,105,9999,9999,9999,2631256136
119,24,13,Improv_Metronome,106,9999,9999,9999,2631756908
119,24,13,Improv_Metronome,107,9999,9999,9999,2632256560
119,24,13,Improv_Metronome,108,9999,9999,9999,2632756288
119,24,13,Improv_Metronome,109,9999,9999,9999,2633257040
119,24,13,Improv_Metronome,110,9999,9999,9999,2633756748
119,24,13,Improv_Metronome,111,9999,9999,9999,2634256452
119,24,13,Improv_Metronome,112,9999,9999,9999,2634756148
119,24,13,Improv_Metronome,113,9999,9999,9999,2635256896
119,24,13,Improv_Metronome,114,9999,9999,9999,2635756600
119,24,13,Improv_Metronome,115,9999,9999,9999,2636256344
119,24,13,Improv_Metronome,116,9999,9999,9999,2636757052
119,24,13,Improv_Metronome,117,9999,9999,9999,2637256756
119,24,13,Improv_Metronome,118,9999,9999,9999,2637756528
119,24,13,Improv_Metronome,119,9999,9999,9999,2638256208
119,24,13,Improv_Metronome,120,9999,9999,9999,2638756984
119,24,13,Improv_Metronome,121,9999,9999,9999,2639256636
119,24,13,Improv_Metronome,122,9999,9999,9999,2639756360
119,24,13,Improv_Metronome,123,9999,9999,9999,2640256088
119,24,13,Improv_Metronome,124,9999,9999,9999,2640756848
119,24,13,Improv_Metronome,125,9999,9999,9999,2641256552
119,24,13,Improv_Metronome,126,9999,9999,9999,2641756248
119,24,13,Improv_Metronome,127,9999,9999,9999,2642257000
119,24,13,Improv_Metronome,128,9999,9999,9999,2642756728
119,24,13,Improv_Metronome,129,9999,9999,9999,2643256436
119,24,13,Improv_Metronome,130,9999,9999,9999,2643756140
119,24,13,Improv_Metronome,131,9999,9999,9999,2644256836
119,24,13,Improv_Metronome,132,9999,9999,9999,2644756588
119,24,13,Improv_Metronome,133,9999,9999,9999,2645256312
119,24,13,Improv_Metronome,134,9999,9999,9999,2645757040
119,24,13,Improv_Metronome,135,9999,9999,9999,2646256692
119,24,13,Improv_Metronome,136,9999,9999,9999,2646756420
119,24,13,Improv_Metronome,137,9999,9999,9999,2647256120
119,24,13,Improv_Metronome,138,9999,9999,9999,2647756872
119,24,13,Improv_Metronome,139,9999,9999,9999,2650604648
119,25,14,Improv_Melody,0,2,48,80,2699345056
119,25,14,Improv_Melody,1,2,72,80,2699347796
119,25,14,Improv_Melody,2,5,42,127,2699349512
119,25,14,Improv_Melody,3,5,42,110,2699841828
119,25,14,Improv_Melody,4,5,42,110,2700341700
119,25,14,Improv_Melody,5,5,42,110,2700842468
119,25,14,Improv_Melody,6,5,42,127,2701341968
119,25,14,Improv_Melody,7,5,42,110,2701841760
119,25,14,Improv_Melody,8,5,42,110,2702341708
119,25,14,Improv_Melody,9,5,42,110,2702842328
119,25,14,Improv_Melody,10,2,43,80,2703344252
119,25,14,Improv_Melody,11,2,67,80,2703346628
119,25,14,Improv_Melody,12,5,42,127,2703349020
119,25,14,Improv_Melody,13,5,42,110,2703841636
119,25,14,Improv_Melody,14,5,42,110,2704342480
119,25,14,Improv_Melody,15,5,42,110,2704841980
119,25,14,Improv_Melody,16,5,42,127,2705341924
119,25,14,Improv_Melody,17,5,42,110,2705841620
119,25,14,Improv_Melody,18,5,42,110,2706342388
119,25,14,Improv_Melody,19,5,42,110,2706841888
119,25,14,Improv_Melody,20,2,45,80,2707343884
119,25,14,Improv_Melody,21,2,69,80,2707346188
119,25,14,Improv_Melody,22,5,42,127,2707348652
119,25,14,Improv_Melody,23,5,42,110,2707842612
119,25,14,Improv_Melody,24,5,42,110,2708342112
119,25,14,Improv_Melody,25,1,48,13,2708828548
119,25,14,Improv_Melody,26,5,42,110,2708841900
119,25,14,Improv_Melody,27,5,42,127,2709341608
119,25,14,Improv_Melody,28,5,42,110,2709842372
119,25,14,Improv_Melody,29,5,42,110,2710341872
119,25,14,Improv_Melody,30,5,42,110,2710841672
119,25,14,Improv_Melody,31,2,41,80,2711343892
119,25,14,Improv_Melody,32,2,65,80,2711346276
119,25,14,Improv_Melody,33,5,42,127,2711348736
119,25,14,Improv_Melody,34,5,42,110,2711842176
119,25,14,Improv_Melody,35,5,42,110,2712341824
119,25,14,Improv_Melody,36,5,42,110,2712841696
119,25,14,Improv_Melody,37,1,48,14,2713323120
119,25,14,Improv_Melody,38,5,42,127,2713342456
119,25,14,Improv_Melody,39,5,42,110,2713842012
119,25,14,Improv_Melody,40,1,48,15,2713847228
119,25,14,Improv_Melody,41,1,48,60,2714336284
119,25,14,Improv_Melody,42,5,42,110,2714341632
119,25,14,Improv_Melody,43,1,48,56,2714567132
119,25,14,Improv_Melody,44,1,48,63,2714700328
119,25,14,Improv_Melody,45,1,48,75,2714792380
119,25,14,Improv_Melody,46,5,42,110,2714841512
119,25,14,Improv_Melody,47,1,48,61,2714911556
119,25,14,Improv_Melody,48,1,48,67,2715025976
119,25,14,Improv_Melody,49,1,48,73,2715146632
119,25,14,Improv_Melody,50,1,48,117,2715291336
119,25,14,Improv_Melody,51,2,48,80,2715344844
119,25,14,Improv_Melody,52,2,72,80,2715347000
119,25,14,Improv_Melody,53,5,42,127,2715349532
119,25,14,Improv_Melody,54,5,42,110,2715841836
119,25,14,Improv_Melody,55,5,42,110,2716341756
119,25,14,Improv_Melody,56,1,48,56,2716537728
119,25,14,Improv_Melody,57,1,48,109,2716809328
119,25,14,Improv_Melody,58,5,42,110,2716842348
119,25,14,Improv_Melody,59,5,42,127,2717342132
119,25,14,Improv_Melody,60,1,48,72,2717559120
119,25,14,Improv_Melody,61,1,48,121,2717823456
119,25,14,Improv_Melody,62,5,42,110,2717841748
119,25,14,Improv_Melody,63,1,48,53,2718076976
119,25,14,Improv_Melody,64,1,48,59,2718333752
119,25,14,Improv_Melody,65,5,42,110,2718341424
119,25,14,Improv_Melody,66,1,48,72,2718581288
119,25,14,Improv_Melody,67,1,48,63,2718721008
119,25,14,Improv_Melody,68,1,48,90,2718834608
119,25,14,Improv_Melody,69,5,42,110,2718842204
119,25,14,Improv_Melody,70,1,48,71,2718941448
119,25,14,Improv_Melody,71,1,48,89,2719070228
119,25,14,Improv_Melody,72,1,48,84,2719191996
119,25,14,Improv_Melody,73,1,48,127,2719341876
119,25,14,Improv_Melody,74,2,43,80,2719346140
119,25,14,Improv_Melody,75,2,67,80,2719348140
119,25,14,Improv_Melody,76,5,42,127,2719350452
119,25,14,Improv_Melody,77,5,42,110,2719841632
119,25,14,Improv_Melody,78,1,48,64,2719845348
119,25,14,Improv_Melody,79,5,42,110,2720342380
119,25,14,Improv_Melody,80,1,48,81,2720660572
119,25,14,Improv_Melody,81,5,42,110,2720842152
119,25,14,Improv_Melody,82,1,48,76,2720887160
119,25,14,Improv_Melody,83,5,42,127,2721341704
119,25,14,Improv_Melody,84,1,48,61,2721613668
119,25,14,Improv_Melody,85,1,48,60,2721825496
119,25,14,Improv_Melody,86,5,42,110,2721841396
119,25,14,Improv_Melody,87,1,48,57,2722077444
119,25,14,Improv_Melody,88,5,42,110,2722342276
119,25,14,Improv_Melody,89,1,48,79,2722618956
119,25,14,Improv_Melody,90,1,48,106,2722739880
119,25,14,Improv_Melody,91,1,48,82,2722832332
119,25,14,Improv_Melody,92,5,42,110,2722842172
119,25,14,Improv_Melody,93,1,48,105,2722964276
119,25,14,Improv_Melody,94,1,48,72,2723065556
119,25,14,Improv_Melody,95,1,48,90,2723173992
119,25,14,Improv_Melody,96,1,48,117,2723313868
119,25,14,Improv_Melody,97,2,45,80,2723344392
119,25,14,Improv_Melody,98,2,69,80,2723346468
119,25,14,Improv_Melody,99,5,42,127,2723349148
119,25,14,Improv_Melody,100,5,42,110,2723842352
119,25,14,Improv_Melody,101,1,38,100,2723853996
119,25,14,Improv_Melody,102,1,48,100,2723858240
119,25,14,Improv_Melody,103,5,42,110,2724342228
119,25,14,Improv_Melody,104,1,48,67,2724579416
119,25,14,Improv_Melody,105,5,42,110,2724842072
119,25,14,Improv_Melody,106,1,48,124,2724844516
119,25,14,Improv_Melody,107,1,38,127,2724848840
119,25,14,Improv_Melody,108,5,42,127,2725341576
119,25,14,Improv_Melody,109,1,48,65,2725367508
119,25,14,Improv_Melody,110,1,48,115,2725827844
119,25,14,Improv_Melody,111,1,38,127,2725831188
119,25,14,Improv_Melody,112,5,42,110,2725842152
119,25,14,Improv_Melody,113,5,42,110,2726342348
119,25,14,Improv_Melody,114,1,38,107,2726375016
119,25,14,Improv_Melody,115,1,38,84,2726465048
119,25,14,Improv_Melody,116,1,38,63,2726573780
119,25,14,Improv_Melody,117,1,48,114,2726827800
119,25,14,Improv_Melody,118,5,42,110,2726841700
119,25,14,Improv_Melody,119,1,48,56,2727322188
119,25,14,Improv_Melody,120,2,41,80,2727344104
119,25,14,Improv_Melody,121,2,65,80,2727346104
119,25,14,Improv_Melody,122,5,42,127,2727348792
119,25,14,Improv_Melody,123,1,48,97,2727815248
119,25,14,Improv_Melody,124,1,38,120,2727827116
119,25,14,Improv_Melody,125,5,42,110,2727842116
119,25,14,Improv_Melody,126,5,42,110,2728342092
119,25,14,Improv_Melody,127,1,48,95,2728838848
119,25,14,Improv_Melody,128,5,42,110,2728841508
119,25,14,Improv_Melody,129,1,38,96,2728843520
119,25,14,Improv_Melody,130,5,42,127,2729342300
119,25,14,Improv_Melody,131,1,48,64,2729364120
119,25,14,Improv_Melody,132,1,48,74,2729831932
119,25,14,Improv_Melody,133,1,38,127,2729837444
119,25,14,Improv_Melody,134,5,42,110,2729842124
119,25,14,Improv_Melody,135,1,48,93,2730289920
119,25,14,Improv_Melody,136,5,42,110,2730341648
119,25,14,Improv_Melody,137,1,48,95,2730428552
119,25,14,Improv_Melody,138,1,48,102,2730521424
119,25,14,Improv_Melody,139,1,48,86,2730646696
119,25,14,Improv_Melody,140,1,48,103,2730771376
119,25,14,Improv_Melody,141,5,42,110,2730841356
119,25,14,Improv_Melody,142,1,48,84,2730877816
119,25,14,Improv_Melody,143,1,48,92,2731012608
119,25,14,Improv_Melody,144,1,48,95,2731106004
119,25,14,Improv_Melody,145,1,48,111,2731262932
119,25,14,Improv_Melody,146,2,48,80,2731344920
119,25,14,Improv_Melody,147,2,72,80,2731346992
119,25,14,Improv_Melody,148,5,42,127,2731349380
119,25,14,Improv_Melody,149,1,48,66,2731523124
119,25,14,Improv_Melody,150,1,48,109,2731813192
119,25,14,Improv_Melody,151,1,38,127,2731817064
119,25,14,Improv_Melody,152,5,42,110,2731842084
119,25,14,Improv_Melody,153,1,48,66,2732042724
119,25,14,Improv_Melody,154,1,48,99,2732198956
119,25,14,Improv_Melody,155,1,48,93,2732300084
119,25,14,Improv_Melody,156,5,42,110,2732341636
119,25,14,Improv_Melody,157,1,48,91,2732425524
119,25,14,Improv_Melody,158,1,48,75,2732556720
119,25,14,Improv_Melody,159,1,38,127,2732841820
119,25,14,Improv_Melody,160,5,42,110,2732844136
119,25,14,Improv_Melody,161,1,48,109,2732849276
119,25,14,Improv_Melody,162,1,48,21,2733126076
119,25,14,Improv_Melody,163,5,42,127,2733341992
119,25,14,Improv_Melody,164,1,48,76,2733365900
119,25,14,Improv_Melody,165,5,42,110,2733841988
119,25,14,Improv_Melody,166,1,38,127,2733858876
119,25,14,Improv_Melody,167,1,48,121,2733861396
119,25,14,Improv_Melody,168,5,42,110,2734341416
119,25,14,Improv_Melody,169,1,38,77,2734359268
119,25,14,Improv_Melody,170,1,38,66,2734467928
119,25,14,Improv_Melody,171,1,38,65,2734583716
119,25,14,Improv_Melody,172,1,38,72,2734728128
119,25,14,Improv_Melody,173,5,42,110,2734842248
119,25,14,Improv_Melody,174,1,38,86,2734870124
119,25,14,Improv_Melody,175,1,38,21,2735139924
119,25,14,Improv_Melody,176,1,38,58,2735261824
119,25,14,Improv_Melody,177,2,43,80,2735344724
119,25,14,Improv_Melody,178,2,67,80,2735346724
119,25,14,Improv_Melody,179,5,42,127,2735349112
119,25,14,Improv_Melody,180,1,38,48,2735380408
119,25,14,Improv_Melody,181,1,38,57,2735478304
119,25,14,Improv_Melody,182,1,38,49,2735629472
119,25,14,Improv_Melody,183,1,38,68,2735724140
119,25,14,Improv_Melody,184,5,42,110,2735841920
119,25,14,Improv_Melody,185,1,38,127,2735873836
119,25,14,Improv_Melody,186,1,38,38,2736019748
119,25,14,Improv_Melody,187,1,38,33,2736097236
119,25,14,Improv_Melody,188,1,38,54,2736246364
119,25,14,Improv_Melody,189,5,42,110,2736342320
119,25,14,Improv_Melody,190,1,38,50,2736372052
119,25,14,Improv_Melody,191,1,38,55,2736494544
119,25,14,Improv_Melody,192,1,38,33,2736619312
119,25,14,Improv_Melody,193,1,38,52,2736720048
119,25,14,Improv_Melody,194,5,42,110,2736842168
119,25,14,Improv_Melody,195,1,38,55,2736874684
119,25,14,Improv_Melody,196,1,38,55,2736982888
119,25,14,Improv_Melody,197,1,38,35,2737088884
119,25,14,Improv_Melody,198,1,38,45,2737212128
119,25,14,Improv_Melody,199,5,42,127,2737342100
119,25,14,Improv_Melody,200,1,38,43,2737343064
119,25,14,Improv_Melody,201,1,38,43,2737458140
119,25,14,Improv_Melody,202,1,38,36,2737578992
119,25,14,Improv_Melody,203,1,38,41,2737694184
119,25,14,Improv_Melody,204,1,38,50,2737828876
119,25,14,Improv_Melody,205,5,42,110,2737841480
119,25,14,Improv_Melody,206,1,38,47,2737954864
119,25,14,Improv_Melody,207,1,38,38,2738075336
119,25,14,Improv_Melody,208,1,38,45,2738209080
119,25,14,Improv_Melody,209,1,38,44,2738334564
119,25,14,Improv_Melody,210,5,42,110,2738342236
119,25,14,Improv_Melody,211,1,38,40,2738435940
119,25,14,Improv_Melody,212,1,38,37,2738568160
119,25,14,Improv_Melody,213,1,38,50,2738700856
119,25,14,Improv_Melody,214,1,38,86,2738842172
119,25,14,Improv_Melody,215,5,42,110,2738844936
119,25,14,Improv_Melody,216,1,38,58,2738958164
119,25,14,Improv_Melody,217,1,38,32,2739089564
119,25,14,Improv_Melody,218,1,38,43,2739180440
119,25,14,Improv_Melody,219,1,38,38,2739333832
119,25,14,Improv_Melody,220,2,45,80,2739344536
119,25,14,Improv_Melody,221,2,69,80,2739346608
119,25,14,Improv_Melody,222,5,42,127,2739349140
119,25,14,Improv_Melody,223,1,38,48,2739461776
119,25,14,Improv_Melody,224,1,38,31,2739592728
119,25,14,Improv_Melody,225,1,38,47,2739746364
119,25,14,Improv_Melody,226,5,42,110,2739843252
119,25,14,Improv_Melody,227,1,38,71,2739871500
119,25,14,Improv_Melody,228,1,38,55,2740001428
119,25,14,Improv_Melody,229,1,38,35,2740139780
119,25,14,Improv_Melody,230,1,38,39,2740240012
119,25,14,Improv_Melody,231,5,42,110,2740342064
119,25,14,Improv_Melody,232,1,38,42,2740379436
119,25,14,Improv_Melody,233,1,38,40,2740509816
119,25,14,Improv_Melody,234,1,38,33,2740617876
119,25,14,Improv_Melody,235,1,38,39,2740738972
119,25,14,Improv_Melody,236,5,42,110,2740841772
119,25,14,Improv_Melody,237,1,38,75,2740872788
119,25,14,Improv_Melody,238,1,38,48,2740982520
119,25,14,Improv_Melody,239,1,38,28,2741089908
119,25,14,Improv_Melody,240,1,38,42,2741210032
119,25,14,Improv_Melody,241,1,38,48,2741339508
119,25,14,Improv_Melody,242,5,42,127,2741341772
119,25,14,Improv_Melody,243,1,38,40,2741473776
119,25,14,Improv_Melody,244,1,38,28,2741581388
119,25,14,Improv_Melody,245,1,38,46,2741720368
119,25,14,Improv_Melody,246,1,38,78,2741840868
119,25,14,Improv_Melody,247,5,42,110,2741843424
119,25,14,Improv_Melody,248,1,38,44,2741965260
119,25,14,Improv_Melody,249,1,38,30,2742080200
119,25,14,Improv_Melody,250,1,38,42,2742201376
119,25,14,Improv_Melody,251,1,38,44,2742324992
119,25,14,Improv_Melody,252,5,42,110,2742341864
119,25,14,Improv_Melody,253,1,38,34,2742458308
119,25,14,Improv_Melody,254,1,38,32,2742559940
119,25,14,Improv_Melody,255,1,38,43,2742681460
119,25,14,Improv_Melody,256,1,38,92,2742818872
119,25,14,Improv_Melody,257,5,42,110,2742841648
119,25,14,Improv_Melody,258,1,38,46,2742934208
119,25,14,Improv_Melody,259,1,38,27,2743043416
119,25,14,Improv_Melody,260,1,38,45,2743181324
119,25,14,Improv_Melody,261,1,38,44,2743304444
119,25,14,Improv_Melody,262,2,41,80,2743344008
119,25,14,Improv_Melody,263,2,65,80,2743346240
119,25,14,Improv_Melody,264,5,42,127,2743348772
119,25,14,Improv_Melody,265,1,38,35,2743406252
119,25,14,Improv_Melody,266,1,38,32,2743544860
119,25,14,Improv_Melody,267,1,38,41,2743670344
119,25,14,Improv_Melody,268,1,38,88,2743820240
119,25,14,Improv_Melody,269,5,42,110,2743842124
119,25,14,Improv_Melody,270,1,38,45,2743938204
119,25,14,Improv_Melody,271,1,38,38,2744047636
119,25,14,Improv_Melody,272,1,38,46,2744189648
119,25,14,Improv_Melody,273,1,38,44,2744314192
119,25,14,Improv_Melody,274,5,42,110,2744341832
119,25,14,Improv_Melody,275,1,38,38,2744432596
119,25,14,Improv_Melody,276,1,38,34,2744554072
119,25,14,Improv_Melody,277,1,38,45,2744684800
119,25,14,Improv_Melody,278,1,38,89,2744811732
119,25,14,Improv_Melody,279,5,42,110,2744841540
119,25,14,Improv_Melody,280,1,38,47,2744927892
119,25,14,Improv_Melody,281,1,38,39,2745046600
119,25,14,Improv_Melody,282,1,38,40,2745164160
119,25,14,Improv_Melody,283,1,38,47,2745302388
119,25,14,Improv_Melody,284,5,42,127,2745342296
119,25,14,Improv_Melody,285,1,38,35,2745416156
119,25,14,Improv_Melody,286,1,38,35,2745534188
119,25,14,Improv_Melody,287,1,38,43,2745690420
119,25,14,Improv_Melody,288,1,38,81,2745812864
119,25,14,Improv_Melody,289,5,42,110,2745842004
119,25,14,Improv_Melody,290,1,38,51,2745944512
119,25,14,Improv_Melody,291,1,38,39,2746053196
119,25,14,Improv_Melody,292,1,38,40,2746172560
119,25,14,Improv_Melody,293,1,38,44,2746308092
119,25,14,Improv_Melody,294,5,42,110,2746341640
119,25,14,Improv_Melody,295,1,38,43,2746433904
119,25,14,Improv_Melody,296,1,38,36,2746542636
119,25,14,Improv_Melody,297,1,38,48,2746695228
119,25,14,Improv_Melody,298,1,38,85,2746821264
119,25,14,Improv_Melody,299,5,42,110,2746841652
119,25,14,Improv_Melody,300,1,38,53,2746958744
119,25,14,Improv_Melody,301,1,38,34,2747060448
119,25,14,Improv_Melody,302,1,38,43,2747190428
119,25,14,Improv_Melody,303,1,38,40,2747334864
119,25,14,Improv_Melody,304,2,48,80,2747344812
119,25,14,Improv_Melody,305,2,72,80,2747346812
119,25,14,Improv_Melody,306,5,42,127,2747349572
119,25,14,Improv_Melody,307,1,38,38,2747425752
119,25,14,Improv_Melody,308,1,38,33,2747574232
119,25,14,Improv_Melody,309,1,38,49,2747708172
119,25,14,Improv_Melody,310,5,42,110,2747841960
119,25,14,Improv_Melody,311,1,38,97,2747857948
119,25,14,Improv_Melody,312,1,38,51,2747978196
119,25,14,Improv_Melody,313,1,38,41,2748088976
119,25,14,Improv_Melody,314,1,38,44,2748225084
119,25,14,Improv_Melody,315,5,42,110,2748341596
119,25,14,Improv_Melody,316,1,38,35,2748373584
119,25,14,Improv_Melody,317,1,38,35,2748468336
119,25,14,Improv_Melody,318,1,38,31,2748589408
119,25,14,Improv_Melody,319,1,38,43,2748713724
119,25,14,Improv_Melody,320,5,42,110,2748842772
119,25,14,Improv_Melody,321,1,38,97,2748860508
119,25,14,Improv_Melody,322,1,38,48,2748979336
119,25,14,Improv_Melody,323,1,38,42,2749084708
119,25,14,Improv_Melody,324,1,38,44,2749217768
119,25,14,Improv_Melody,325,5,42,127,2749342036
119,25,14,Improv_Melody,326,1,38,40,2749353232
119,25,14,Improv_Melody,327,1,38,36,2749464084
119,25,14,Improv_Melody,328,1,38,33,2749576560
119,25,14,Improv_Melody,329,1,38,50,2749721516
119,25,14,Improv_Melody,330,5,42,110,2749841892
119,25,14,Improv_Melody,331,1,38,87,2749842932
119,25,14,Improv_Melody,332,1,38,49,2749954816
119,25,14,Improv_Melody,333,1,38,47,2750078808
119,25,14,Improv_Melody,334,1,38,42,2750191156
119,25,14,Improv_Melody,335,1,38,43,2750339332
119,25,14,Improv_Melody,336,5,42,110,2750341520
119,25,14,Improv_Melody,337,1,38,37,2750434176
119,25,14,Improv_Melody,338,1,38,39,2750572908
119,25,14,Improv_Melody,339,1,38,46,2750700512
119,25,14,Improv_Melody,340,5,42,110,2750842280
119,25,14,Improv_Melody,341,1,38,95,2750844952
119,25,14,Improv_Melody,342,1,38,52,2750968372
119,25,14,Improv_Melody,343,1,38,44,2751077480
119,25,14,Improv_Melody,344,1,38,43,2751205232
119,25,14,Improv_Melody,345,2,43,80,2751344648
119,25,14,Improv_Melody,346,1,38,50,2751347108
119,25,14,Improv_Melody,347,2,67,80,2751349640
119,25,14,Improv_Melody,348,5,42,127,2751351960
119,25,14,Improv_Melody,349,1,38,36,2751443348
119,25,14,Improv_Melody,350,1,38,42,2751581172
119,25,14,Improv_Melody,351,1,38,47,2751716416
119,25,14,Improv_Melody,352,5,42,110,2751841576
119,25,14,Improv_Melody,353,1,38,101,2751856136
119,25,14,Improv_Melody,354,1,38,48,2751973944
119,25,14,Improv_Melody,355,1,38,46,2752091804
119,25,14,Improv_Melody,356,1,38,43,2752214552
119,25,14,Improv_Melody,357,5,42,110,2752342628
119,25,14,Improv_Melody,358,1,38,43,2752351360
119,25,14,Improv_Melody,359,1,38,35,2752457424
119,25,14,Improv_Melody,360,1,38,42,2752573488
119,25,14,Improv_Melody,361,1,38,46,2752722636
119,25,14,Improv_Melody,362,1,38,86,2752840904
119,25,14,Improv_Melody,363,5,42,110,2752843976
119,25,14,Improv_Melody,364,1,38,45,2752954888
119,25,14,Improv_Melody,365,1,38,48,2753085464
119,25,14,Improv_Melody,366,1,38,39,2753198608
119,25,14,Improv_Melody,367,1,38,45,2753334068
119,25,14,Improv_Melody,368,5,42,127,2753342036
119,25,14,Improv_Melody,369,1,38,37,2753436468
119,25,14,Improv_Melody,370,1,38,42,2753567440
119,25,14,Improv_Melody,371,1,38,52,2753716892
119,25,14,Improv_Melody,372,1,38,93,2753837368
119,25,14,Improv_Melody,373,5,42,110,2753841596
119,25,14,Improv_Melody,374,1,38,53,2753948592
119,25,14,Improv_Melody,375,1,38,46,2754086152
119,25,14,Improv_Melody,376,1,38,42,2754181424
119,25,14,Improv_Melody,377,1,38,44,2754335504
119,25,14,Improv_Melody,378,5,42,110,2754342424
119,25,14,Improv_Melody,379,1,38,44,2754435960
119,25,14,Improv_Melody,380,1,38,40,2754561020
119,25,14,Improv_Melody,381,1,38,44,2754705360
119,25,14,Improv_Melody,382,1,38,77,2754833868
119,25,14,Improv_Melody,383,5,42,110,2754841912
119,25,14,Improv_Melody,384,1,38,50,2754940084
119,25,14,Improv_Melody,385,1,38,51,2755077192
119,25,14,Improv_Melody,386,1,38,36,2755170592
119,25,14,Improv_Melody,387,1,38,48,2755331336
119,25,14,Improv_Melody,388,2,45,80,2755344120
119,25,14,Improv_Melody,389,2,69,80,2755346348
119,25,14,Improv_Melody,390,5,42,127,2755348888
119,25,14,Improv_Melody,391,1,38,48,2755435544
119,25,14,Improv_Melody,392,1,38,44,2755570328
119,25,14,Improv_Melody,393,1,38,54,2755711152
119,25,14,Improv_Melody,394,5,42,110,2755842692
119,25,14,Improv_Melody,395,1,38,74,2755844336
119,25,14,Improv_Melody,396,1,38,61,2755959332
119,25,14,Improv_Melody,397,1,38,54,2756086944
119,25,14,Improv_Melody,398,1,38,47,2756216392
119,25,14,Improv_Melody,399,5,42,110,2756342252
119,25,14,Improv_Melody,400,1,38,42,2756347920
119,25,14,Improv_Melody,401,1,38,37,2756452612
119,25,14,Improv_Melody,402,1,38,43,2756593008
119,25,14,Improv_Melody,403,1,38,54,2756710568
119,25,14,Improv_Melody,404,5,42,110,2756841736
119,25,14,Improv_Melody,405,1,38,76,2756845904
119,25,14,Improv_Melody,406,1,38,54,2756959572
119,25,14,Improv_Melody,407,1,38,47,2757091968
119,25,14,Improv_Melody,408,1,38,45,2757215060
119,25,14,Improv_Melody,409,1,38,43,2757340540
119,25,14,Improv_Melody,410,5,42,127,2757342856
119,25,14,Improv_Melody,411,1,38,38,2757436020
119,25,14,Improv_Melody,412,1,38,52,2757578660
119,25,14,Improv_Melody,413,1,38,48,2757718436
119,25,14,Improv_Melody,414,1,38,107,2757837792
119,25,14,Improv_Melody,415,5,42,110,2757842468
119,25,14,Improv_Melody,416,1,38,46,2757947224
119,25,14,Improv_Melody,417,1,38,45,2758075656
119,25,14,Improv_Melody,418,1,38,40,2758186632
119,25,14,Improv_Melody,419,1,38,48,2758331140
119,25,14,Improv_Melody,420,5,42,110,2758341956
119,25,14,Improv_Melody,421,1,38,42,2758449180
119,25,14,Improv_Melody,422,1,38,46,2758559256
119,25,14,Improv_Melody,423,1,38,44,2758699356
119,25,14,Improv_Melody,424,1,38,111,2758829780
119,25,14,Improv_Melody,425,5,42,110,2758841664
119,25,14,Improv_Melody,426,1,38,48,2758938040
119,25,14,Improv_Melody,427,1,38,51,2759066896
119,25,14,Improv_Melody,428,1,38,38,2759187244
119,25,14,Improv_Melody,429,1,38,51,2759326196
119,25,14,Improv_Melody,430,2,41,80,2759344152
119,25,14,Improv_Melody,431,2,65,80,2759346380
119,25,14,Improv_Melody,432,5,42,127,2759348860
119,25,14,Improv_Melody,433,1,38,42,2759454660
119,25,14,Improv_Melody,434,1,38,44,2759562428
119,25,14,Improv_Melody,435,1,38,40,2759686220
119,25,14,Improv_Melody,436,1,38,118,2759833396
119,25,14,Improv_Melody,437,5,42,110,2759842412
119,25,14,Improv_Melody,438,1,38,46,2759945096
119,25,14,Improv_Melody,439,1,38,51,2760069540
119,25,14,Improv_Melody,440,1,38,30,2760167828
119,25,14,Improv_Melody,441,1,38,18,2760243352
119,25,14,Improv_Melody,442,1,38,57,2760335328
119,25,14,Improv_Melody,443,5,42,110,2760341876
119,25,14,Improv_Melody,444,1,38,41,2760442540
119,25,14,Improv_Melody,445,1,38,49,2760565040
119,25,14,Improv_Melody,446,1,38,45,2760686360
119,25,14,Improv_Melody,447,1,38,26,2760755152
119,25,14,Improv_Melody,448,1,38,127,2760832548
119,25,14,Improv_Melody,449,5,42,110,2760841488
119,25,14,Improv_Melody,450,1,38,48,2760932508
119,25,14,Improv_Melody,451,1,38,61,2761063080
119,25,14,Improv_Melody,452,1,38,43,2761150820
119,25,14,Improv_Melody,453,1,38,66,2761317672
119,25,14,Improv_Melody,454,5,42,127,2761342544
119,25,14,Improv_Melody,455,1,38,51,2761424656
119,25,14,Improv_Melody,456,1,38,33,2761481260
119,25,14,Improv_Melody,457,1,38,127,2761595528
119,25,14,Improv_Melody,458,1,38,78,2761697104
119,25,14,Improv_Melody,459,5,42,110,2761842012
119,25,14,Improv_Melody,460,1,38,127,2761846552
119,25,14,Improv_Melody,461,1,38,51,2761921656
119,25,14,Improv_Melody,462,1,38,32,2761979976
119,25,14,Improv_Melody,463,1,38,105,2762081604
119,25,14,Improv_Melody,464,1,38,58,2762193056
119,25,14,Improv_Melody,465,1,38,90,2762341996
119,25,14,Improv_Melody,466,5,42,110,2762346180
119,25,14,Improv_Melody,467,1,38,68,2762438920
119,25,14,Improv_Melody,468,1,38,127,2762589984
119,25,14,Improv_Melody,469,1,38,82,2762692536
119,25,14,Improv_Melody,470,1,38,127,2762830220
119,25,14,Improv_Melody,471,5,42,110,2762841328
119,25,14,Improv_Melody,472,1,38,79,2762936156
119,25,14,Improv_Melody,473,1,38,127,2763080048
119,25,14,Improv_Melody,474,1,38,122,2763188804
119,25,14,Improv_Melody,475,2,48,80,2763345048
119,25,14,Improv_Melody,476,2,72,80,2763347272
119,25,14,Improv_Melody,477,1,48,95,2763349136
119,25,14,Improv_Melody,478,5,42,127,2763351148
119,25,14,Improv_Melody,479,1,48,97,2763466696
119,25,14,Improv_Melody,480,1,48,73,2763611104
119,25,14,Improv_Melody,481,1,48,89,2763747316
119,25,14,Improv_Melody,482,5,42,110,2763841828
119,25,14,Improv_Melody,483,1,48,127,2763875600
119,25,14,Improv_Melody,484,1,48,72,2764135820
119,25,14,Improv_Melody,485,1,48,62,2764257596
119,25,14,Improv_Melody,486,5,42,110,2764341632
119,25,14,Improv_Melody,487,1,48,92,2764403376
119,25,14,Improv_Melody,488,1,48,93,2764509668
119,25,14,Improv_Melody,489,1,48,105,2764653552
119,25,14,Improv_Melody,490,5,42,110,2764842392
119,25,14,Improv_Melody,491,1,48,107,2764916564
119,25,14,Improv_Melody,492,1,48,32,2765024280
119,25,14,Improv_Melody,493,1,48,59,2765152160
119,25,14,Improv_Melody,494,1,48,52,2765279252
119,25,14,Improv_Melody,495,5,42,127,2765342040
119,25,14,Improv_Melody,496,1,48,75,2765391368
119,25,14,Improv_Melody,497,1,48,61,2765502148
119,25,14,Improv_Melody,498,1,48,72,2765635944
119,25,14,Improv_Melody,499,5,42,110,2765841760
119,25,14,Improv_Melody,500,1,38,107,2765880484
119,25,14,Improv_Melody,501,1,48,116,2765886896
119,25,14,Improv_Melody,502,1,48,55,2766124576
119,25,14,Improv_Melody,503,5,42,110,2766341540
119,25,14,Improv_Melody,504,1,48,62,2766411524
119,25,14,Improv_Melody,505,1,48,64,2766651632
119,25,14,Improv_Melody,506,5,42,110,2766842340
119,25,14,Improv_Melody,507,1,38,92,2766880760
119,25,14,Improv_Melody,508,1,48,120,2766889272
119,25,14,Improv_Melody,509,1,48,66,2767131964
119,25,14,Improv_Melody,510,2,43,80,2767344548
119,25,14,Improv_Melody,511,2,67,80,2767346476
119,25,14,Improv_Melody,512,5,42,127,2767349312
119,25,14,Improv_Melody,513,1,48,81,2767379356
119,25,14,Improv_Melody,514,1,48,65,2767522276
119,25,14,Improv_Melody,515,1,48,80,2767618472
119,25,14,Improv_Melody,516,5,42,110,2767841640
119,25,14,Improv_Melody,517,1,48,120,2767887772
119,25,14,Improv_Melody,518,1,48,46,2767979224
119,25,14,Improv_Melody,519,1,48,64,2768121340
119,25,14,Improv_Melody,520,1,48,56,2768263660
119,25,14,Improv_Melody,521,5,42,110,2768342264
119,25,14,Improv_Melody,522,1,48,80,2768369976
119,25,14,Improv_Melody,523,1,48,73,2768497712
119,25,14,Improv_Melody,524,1,48,68,2768610128
119,25,14,Improv_Melody,525,5,42,110,2768842200
119,25,14,Improv_Melody,526,1,48,121,2768889824
119,25,14,Improv_Melody,527,1,48,89,2768908128
119,25,14,Improv_Melody,528,1,48,45,2768976400
119,25,14,Improv_Melody,529,1,48,60,2769134152
119,25,14,Improv_Melody,530,1,48,59,2769276172
119,25,14,Improv_Melody,531,5,42,127,2769341684
119,25,14,Improv_Melody,532,1,48,76,2769390560
119,25,14,Improv_Melody,533,1,48,65,2769508720
119,25,14,Improv_Melody,534,1,48,73,2769639472
119,25,14,Improv_Melody,535,5,42,110,2769841672
119,25,14,Improv_Melody,536,1,48,108,2769897528
119,25,14,Improv_Melody,537,1,48,48,2769995264
119,25,14,Improv_Melody,538,1,48,123,2770129156
119,25,14,Improv_Melody,539,5,42,110,2770342276
119,25,14,Improv_Melody,540,1,48,73,2770403236
119,25,14,Improv_Melody,541,1,48,61,2770533288
119,25,14,Improv_Melody,542,1,48,109,2770639580
119,25,14,Improv_Melody,543,5,42,110,2770841936
119,25,14,Improv_Melody,544,1,38,118,2770901400
119,25,14,Improv_Melody,545,1,48,109,2770908864
119,25,14,Improv_Melody,546,1,48,74,2771135396
119,25,14,Improv_Melody,547,1,48,56,2771270236
119,25,14,Improv_Melody,548,2,45,80,2771344364
119,25,14,Improv_Melody,549,2,69,80,2771346444
119,25,14,Improv_Melody,550,5,42,127,2771348904
119,25,14,Improv_Melody,551,1,48,70,2771401172
119,25,14,Improv_Melody,552,1,48,57,2771512676
119,25,14,Improv_Melody,553,1,48,62,2771641176
119,25,14,Improv_Melody,554,5,42,110,2771842412
119,25,14,Improv_Melody,555,1,48,94,2771848300
119,25,14,Improv_Melody,556,1,48,44,2771928336
119,25,14,Improv_Melody,557,1,48,111,2772137596
119,25,14,Improv_Melody,558,1,48,56,2772251588
119,25,14,Improv_Melody,559,5,42,110,2772342136
119,25,14,Improv_Melody,560,1,48,60,2772353244
119,25,14,Improv_Melody,561,1,48,59,2772466264
119,25,14,Improv_Melody,562,1,48,87,2772602900
119,25,14,Improv_Melody,563,5,42,110,2772841776
119,25,14,Improv_Melody,564,1,48,97,2772876080
119,25,14,Improv_Melody,565,1,48,46,2772981176
119,25,14,Improv_Melody,566,1,48,84,2773126712
119,25,14,Improv_Melody,567,1,48,59,2773270924
119,25,14,Improv_Melody,568,5,42,127,2773341648
119,25,14,Improv_Melody,569,1,48,60,2773374296
119,25,14,Improv_Melody,570,1,48,70,2773492328
119,25,14,Improv_Melody,571,1,48,96,2773623352
119,25,14,Improv_Melody,572,5,42,110,2773842260
119,25,14,Improv_Melody,573,1,38,124,2773852264
119,25,14,Improv_Melody,574,1,48,94,2773871240
119,25,14,Improv_Melody,575,1,38,124,2774095236
119,25,14,Improv_Melody,576,1,48,102,2774114136
119,25,14,Improv_Melody,577,5,42,110,2774342080
119,25,14,Improv_Melody,578,1,48,86,2774369508
119,25,14,Improv_Melody,579,1,48,86,2774488812
119,25,14,Improv_Melody,580,1,48,95,2774605624
119,25,14,Improv_Melody,581,5,42,110,2774841660
119,25,14,Improv_Melody,582,1,38,127,2774868564
119,25,14,Improv_Melody,583,1,48,121,2774871760
119,25,14,Improv_Melody,584,1,48,59,2775111852
119,25,14,Improv_Melody,585,1,48,61,2775241252
119,25,14,Improv_Melody,586,2,41,80,2775344464
119,25,14,Improv_Melody,587,2,65,80,2775346540
119,25,14,Improv_Melody,588,5,42,127,2775349144
119,25,14,Improv_Melody,589,1,48,70,2775372316
119,25,14,Improv_Melody,0,1,48,60,2775617584
119,25,14,Improv_Melody,1,1,48,43,2777882000
119,25,14,Improv_Melody,2,1,48,127,2777882740
119,25,14,Improv_Melody,3,1,48,44,2777883364
119,25,14,Improv_Melody,4,1,48,94,2777884084
119,25,14,Improv_Melody,5,1,48,27,2777884716
119,25,14,Improv_Melody,6,1,48,16,2777885444
119,25,14,Improv_Melody,7,1,48,121,2777886076
119,25,14,Improv_Melody,8,1,48,43,2777886788
119,25,14,Improv_Melody,9,1,48,62,2777887360
119,25,14,Improv_Melody,10,1,48,148,2777887948
119,25,14,Improv_Melody,11,1,42,110,2777888160
119,25,14,Improv_Melody,12,5,42,110,2777888740
119,25,14,Improv_Melody,13,5,42,110,2777889816
119,25,14,Improv_Melody,14,5,42,127,2777892696
119,25,14,Improv_Melody,15,5,42,110,2777895652
119,25,14,Improv_Melody,16,1,38,87,2778087892
119,25,14,Improv_Melody,17,1,48,112,2778093256
119,25,14,Improv_Melody,18,1,38,48,2778175520
119,25,14,Improv_Melody,19,1,38,74,2778341888
119,25,14,Improv_Melody,20,5,42,110,2778344196
119,25,14,Improv_Melody,21,1,38,80,2778459120
119,25,14,Improv_Melody,22,1,38,68,2778585460
119,25,14,Improv_Melody,23,1,38,80,2778724112
119,25,14,Improv_Melody,24,1,38,94,2778837212
119,25,14,Improv_Melody,25,5,42,110,2778841440
119,25,14,Improv_Melody,26,1,38,74,2778961820
119,25,14,Improv_Melody,27,1,38,84,2779079908
119,25,14,Improv_Melody,28,1,38,78,2779189988
119,25,14,Improv_Melody,29,1,38,71,2779333904
119,25,14,Improv_Melody,30,2,48,80,2779344668
119,25,14,Improv_Melody,31,2,72,80,2779347052
119,25,14,Improv_Melody,32,5,42,127,2779349584
119,25,14,Improv_Melody,33,1,38,51,2779423752
119,25,14,Improv_Melody,34,1,38,49,2779588760
119,25,14,Improv_Melody,35,1,38,67,2779719108
119,25,14,Improv_Melody,36,5,42,110,2779842048
119,25,14,Improv_Melody,37,1,38,98,2779848308
119,25,14,Improv_Melody,38,1,38,58,2779969308
119,25,14,Improv_Melody,39,1,38,44,2780054560
119,25,14,Improv_Melody,40,1,38,48,2780209320
119,25,14,Improv_Melody,0,9999,9999,9999,2699339848
119,25,14,Improv_Melody,1,9999,9999,9999,2699839536
119,25,14,Improv_Melody,2,9999,9999,9999,2700339260
119,25,14,Improv_Melody,3,9999,9999,9999,2700840024
119,25,14,Improv_Melody,4,9999,9999,9999,2701339748
119,25,14,Improv_Melody,5,9999,9999,9999,2701839468
119,25,14,Improv_Melody,6,9999,9999,9999,2702339192
119,25,14,Improv_Melody,7,9999,9999,9999,2702839884
119,25,14,Improv_Melody,8,9999,9999,9999,2703339608
119,25,14,Improv_Melody,9,9999,9999,9999,2703839344
119,25,14,Improv_Melody,10,9999,9999,9999,2704340040
119,25,14,Improv_Melody,11,9999,9999,9999,2704839760
119,25,14,Improv_Melody,12,9999,9999,9999,2705339480
119,25,14,Improv_Melody,13,9999,9999,9999,2705839176
119,25,14,Improv_Melody,14,9999,9999,9999,2706339948
119,25,14,Improv_Melody,15,9999,9999,9999,2706839668
119,25,14,Improv_Melody,16,9999,9999,9999,2707339316
119,25,14,Improv_Melody,17,9999,9999,9999,2707840096
119,25,14,Improv_Melody,18,9999,9999,9999,2708339820
119,25,14,Improv_Melody,19,9999,9999,9999,2708839532
119,25,14,Improv_Melody,20,9999,9999,9999,2709339240
119,25,14,Improv_Melody,21,9999,9999,9999,2709839932
119,25,14,Improv_Melody,22,9999,9999,9999,2710339656
119,25,14,Improv_Melody,23,9999,9999,9999,2710839376
119,25,14,Improv_Melody,24,9999,9999,9999,2711339100
119,25,14,Improv_Melody,25,9999,9999,9999,2711839808
119,25,14,Improv_Melody,26,9999,9999,9999,2712339532
119,25,14,Improv_Melody,27,9999,9999,9999,2712839252
119,25,14,Improv_Melody,28,9999,9999,9999,2713340016
119,25,14,Improv_Melody,29,9999,9999,9999,2713839720
119,25,14,Improv_Melody,30,9999,9999,9999,2714339416
119,25,14,Improv_Melody,31,9999,9999,9999,2714839144
119,25,14,Improv_Melody,32,9999,9999,9999,2715339824
119,25,14,Improv_Melody,33,9999,9999,9999,2715839544
119,25,14,Improv_Melody,34,9999,9999,9999,2716339316
119,25,14,Improv_Melody,35,9999,9999,9999,2716840056
119,25,14,Improv_Melody,36,9999,9999,9999,2717339764
119,25,14,Improv_Melody,37,9999,9999,9999,2717839456
119,25,14,Improv_Melody,38,9999,9999,9999,2718339132
119,25,14,Improv_Melody,39,9999,9999,9999,2718839912
119,25,14,Improv_Melody,40,9999,9999,9999,2719339628
119,25,14,Improv_Melody,41,9999,9999,9999,2719839340
119,25,14,Improv_Melody,42,9999,9999,9999,2720340088
119,25,14,Improv_Melody,43,9999,9999,9999,2720839784
119,25,14,Improv_Melody,44,9999,9999,9999,2721339484
119,25,14,Improv_Melody,45,9999,9999,9999,2721839176
119,25,14,Improv_Melody,46,9999,9999,9999,2722339908
119,25,14,Improv_Melody,47,9999,9999,9999,2722839656
119,25,14,Improv_Melody,48,9999,9999,9999,2723339364
119,25,14,Improv_Melody,49,9999,9999,9999,2723840060
119,25,14,Improv_Melody,50,9999,9999,9999,2724339784
119,25,14,Improv_Melody,51,9999,9999,9999,2724839484
119,25,14,Improv_Melody,52,9999,9999,9999,2725339212
119,25,14,Improv_Melody,53,9999,9999,9999,2725839932
119,25,14,Improv_Melody,54,9999,9999,9999,2726339684
119,25,14,Improv_Melody,55,9999,9999,9999,2726839408
119,25,14,Improv_Melody,56,9999,9999,9999,2727339084
119,25,14,Improv_Melody,57,9999,9999,9999,2727839824
119,25,14,Improv_Melody,58,9999,9999,9999,2728339576
119,25,14,Improv_Melody,59,9999,9999,9999,2728839216
119,25,14,Improv_Melody,60,9999,9999,9999,2729340008
119,25,14,Improv_Melody,61,9999,9999,9999,2729839680
119,25,14,Improv_Melody,62,9999,9999,9999,2730339428
119,25,14,Improv_Melody,63,9999,9999,9999,2730839140
119,25,14,Improv_Melody,64,9999,9999,9999,2731339892
119,25,14,Improv_Melody,65,9999,9999,9999,2731839568
119,25,14,Improv_Melody,66,9999,9999,9999,2732339268
119,25,14,Improv_Melody,67,9999,9999,9999,2732840052
119,25,14,Improv_Melody,68,9999,9999,9999,2733339700
119,25,14,Improv_Melody,69,9999,9999,9999,2733839472
119,25,14,Improv_Melody,70,9999,9999,9999,2734339124
119,25,14,Improv_Melody,71,9999,9999,9999,2734839880
119,25,14,Improv_Melody,72,9999,9999,9999,2735339624
119,25,14,Improv_Melody,73,9999,9999,9999,2735839332
119,25,14,Improv_Melody,74,9999,9999,9999,2736340028
119,25,14,Improv_Melody,75,9999,9999,9999,2736839800
119,25,14,Improv_Melody,76,9999,9999,9999,2737339508
119,25,14,Improv_Melody,77,9999,9999,9999,2737839188
119,25,14,Improv_Melody,78,9999,9999,9999,2738339944
119,25,14,Improv_Melody,79,9999,9999,9999,2738839660
119,25,14,Improv_Melody,80,9999,9999,9999,2739339360
119,25,14,Improv_Melody,81,9999,9999,9999,2739840076
119,25,14,Improv_Melody,82,9999,9999,9999,2740339772
119,25,14,Improv_Melody,83,9999,9999,9999,2740839480
119,25,14,Improv_Melody,84,9999,9999,9999,2741339212
119,25,14,Improv_Melody,85,9999,9999,9999,2741839944
119,25,14,Improv_Melody,86,9999,9999,9999,2742339644
119,25,14,Improv_Melody,87,9999,9999,9999,2742839356
119,25,14,Improv_Melody,88,9999,9999,9999,2743339064
119,25,14,Improv_Melody,89,9999,9999,9999,2743839832
119,25,14,Improv_Melody,90,9999,9999,9999,2744339540
119,25,14,Improv_Melody,91,9999,9999,9999,2744839248
119,25,14,Improv_Melody,92,9999,9999,9999,2745340004
119,25,14,Improv_Melody,93,9999,9999,9999,2745839712
119,25,14,Improv_Melody,94,9999,9999,9999,2746339424
119,25,14,Improv_Melody,95,9999,9999,9999,2746839136
119,25,14,Improv_Melody,96,9999,9999,9999,2747339864
119,25,14,Improv_Melody,97,9999,9999,9999,2747839592
119,25,14,Improv_Melody,98,9999,9999,9999,2748339276
119,25,14,Improv_Melody,99,9999,9999,9999,2748840032
119,25,14,Improv_Melody,100,9999,9999,9999,2749339740
119,25,14,Improv_Melody,101,9999,9999,9999,2749839448
119,25,14,Improv_Melody,102,9999,9999,9999,2750339196
119,25,14,Improv_Melody,103,9999,9999,9999,2750839916
119,25,14,Improv_Melody,104,9999,9999,9999,2751339620
119,25,14,Improv_Melody,105,9999,9999,9999,2751839280
119,25,14,Improv_Melody,106,9999,9999,9999,2752340036
119,25,14,Improv_Melody,107,9999,9999,9999,2752839744
119,25,14,Improv_Melody,108,9999,9999,9999,2753339448
119,25,14,Improv_Melody,109,9999,9999,9999,2753839156
119,25,14,Improv_Melody,110,9999,9999,9999,2754339908
119,25,14,Improv_Melody,111,9999,9999,9999,2754839620
119,25,14,Improv_Melody,112,9999,9999,9999,2755339328
119,25,14,Improv_Melody,113,9999,9999,9999,2755840104
119,25,14,Improv_Melody,114,9999,9999,9999,2756339812
119,25,14,Improv_Melody,115,9999,9999,9999,2756839520
119,25,14,Improv_Melody,116,9999,9999,9999,2757339228
119,25,14,Improv_Melody,117,9999,9999,9999,2757839952
119,25,14,Improv_Melody,118,9999,9999,9999,2758339664
119,25,14,Improv_Melody,119,9999,9999,9999,2758839372
119,25,14,Improv_Melody,120,9999,9999,9999,2759339128
119,25,14,Improv_Melody,121,9999,9999,9999,2759839820
119,25,14,Improv_Melody,122,9999,9999,9999,2760339512
119,25,14,Improv_Melody,123,9999,9999,9999,2760839272
119,25,14,Improv_Melody,124,9999,9999,9999,2761339952
119,25,14,Improv_Melody,125,9999,9999,9999,2761839720
119,25,14,Improv_Melody,126,9999,9999,9999,2762339408
119,25,14,Improv_Melody,127,9999,9999,9999,2762839112
119,25,14,Improv_Melody,128,9999,9999,9999,2763339872
119,25,14,Improv_Melody,129,9999,9999,9999,2763839608
119,25,14,Improv_Melody,130,9999,9999,9999,2764339264
119,25,14,Improv_Melody,131,9999,9999,9999,2764840024
119,25,14,Improv_Melody,132,9999,9999,9999,2765339748
119,25,14,Improv_Melody,133,9999,9999,9999,2765839468
119,25,14,Improv_Melody,134,9999,9999,9999,2766339172
119,25,14,Improv_Melody,135,9999,9999,9999,2766839896
119,25,14,Improv_Melody,136,9999,9999,9999,2767339604
119,25,14,Improv_Melody,137,9999,9999,9999,2767839348
119,25,14,Improv_Melody,138,9999,9999,9999,2768340044
119,25,14,Improv_Melody,139,9999,9999,9999,2768839760
119,25,14,Improv_Melody,140,9999,9999,9999,2769339464
119,25,14,Improv_Melody,141,9999,9999,9999,2769839156
119,25,14,Improv_Melody,142,9999,9999,9999,2770339912
119,25,14,Improv_Melody,143,9999,9999,9999,2770839640
119,25,14,Improv_Melody,144,9999,9999,9999,2771339340
119,25,14,Improv_Melody,145,9999,9999,9999,2771840116
119,25,14,Improv_Melody,146,9999,9999,9999,2772339768
119,25,14,Improv_Melody,147,9999,9999,9999,2772839480
119,25,14,Improv_Melody,148,9999,9999,9999,2773339204
119,25,14,Improv_Melody,149,9999,9999,9999,2773839964
119,25,14,Improv_Melody,150,9999,9999,9999,2774339636
119,25,14,Improv_Melody,151,9999,9999,9999,2774839368
119,25,14,Improv_Melody,152,9999,9999,9999,2775339080
119,25,14,Improv_Melody,153,9999,9999,9999,2777881020
119,25,14,Improv_Melody,154,9999,9999,9999,2777881220
119,25,14,Improv_Melody,155,9999,9999,9999,2777881400
119,25,14,Improv_Melody,156,9999,9999,9999,2777881588
119,25,14,Improv_Melody,157,9999,9999,9999,2777881780
119,25,14,Improv_Melody,158,9999,9999,9999,2778339444
119,25,14,Improv_Melody,159,9999,9999,9999,2778839148
119,25,14,Improv_Melody,160,9999,9999,9999,2779339876
119,25,14,Improv_Melody,161,9999,9999,9999,2779839608
