pid,taskRunCount,taskID,taskName,i,channel,pitch,velocity,microseconds
1,0,Ticks_Pract_8,0,5,42,127,658980284
1131,0,Ticks_Pract_8,1,5,42,127,659779964
1131,0,Ticks_Pract_8,2,5,42,127,660579940
1131,0,Ticks_Pract_8,3,5,42,127,661379400
1131,0,Ticks_Pract_8,4,5,42,127,662180076
1131,0,Ticks_Pract_8,5,1,48,50,662263452
1131,0,Ticks_Pract_8,6,1,48,58,662977524
1131,0,Ticks_Pract_8,7,5,42,127,662979880
1131,0,Ticks_Pract_8,8,1,48,53,663770076
1131,0,Ticks_Pract_8,9,5,42,127,663779836
1131,0,Ticks_Pract_8,10,1,48,56,664557696
1131,0,Ticks_Pract_8,11,5,42,127,664579496
1131,0,Ticks_Pract_8,12,1,48,54,665376052
1131,0,Ticks_Pract_8,13,5,42,127,665380272
1131,0,Ticks_Pract_8,14,5,42,127,666179940
1131,0,Ticks_Pract_8,15,1,48,56,666188824
1131,0,Ticks_Pract_8,16,5,42,127,666979824
1131,0,Ticks_Pract_8,17,1,48,53,666983916
1131,0,Ticks_Pract_8,18,5,42,127,667779560
1131,0,Ticks_Pract_8,19,1,48,53,667788512
1131,0,Ticks_Pract_8,20,5,42,127,668580216
1131,0,Ticks_Pract_8,21,1,48,54,668590220
1131,0,Ticks_Pract_8,22,5,42,127,669379948
1131,0,Ticks_Pract_8,23,1,48,51,669406408
1131,0,Ticks_Pract_8,24,5,42,127,670179684
1131,0,Ticks_Pract_8,25,1,48,58,670186696
1131,0,Ticks_Pract_8,26,5,42,127,670979492
1131,0,Ticks_Pract_8,27,1,48,63,670982012
1131,0,Ticks_Pract_8,28,1,48,54,671767440
1131,0,Ticks_Pract_8,29,5,42,127,671780192
1131,0,Ticks_Pract_8,30,1,48,55,672564104
1131,0,Ticks_Pract_8,31,5,42,127,672579924
1131,0,Ticks_Pract_8,32,1,48,52,673375732
1131,0,Ticks_Pract_8,33,5,42,127,673379584
1131,0,Ticks_Pract_8,34,1,48,56,674160060
1131,0,Ticks_Pract_8,35,5,42,127,674179540
1131,0,Ticks_Pract_8,36,1,48,48,674949620
1131,0,Ticks_Pract_8,37,5,42,127,674980272
1131,0,Ticks_Pract_8,38,5,42,127,675779936
1131,0,Ticks_Pract_8,39,1,48,37,675787844
1131,0,Ticks_Pract_8,40,5,42,127,676579596
1131,0,Ticks_Pract_8,41,1,48,44,676598492
1131,0,Ticks_Pract_8,42,1,48,52,677376372
1131,0,Ticks_Pract_8,43,5,42,127,677379544
1131,0,Ticks_Pract_8,44,5,42,127,678180184
1131,0,Ticks_Pract_8,45,1,48,50,678187936
1131,0,Ticks_Pract_8,46,5,42,127,678979916
1131,0,Ticks_Pract_8,47,1,48,41,678991116
1131,0,Ticks_Pract_8,48,5,42,127,679779652
1131,0,Ticks_Pract_8,49,1,48,50,679791672
1131,0,Ticks_Pract_8,50,1,48,58,680555404
1131,0,Ticks_Pract_8,51,5,42,127,680579376
1131,0,Ticks_Pract_8,52,5,42,127,681380484
1131,0,Ticks_Pract_8,53,1,48,57,681382936
1131,0,Ticks_Pract_8,54,5,42,127,682179848
1131,0,Ticks_Pract_8,55,1,48,54,682183940
1131,0,Ticks_Pract_8,56,1,48,48,682977304
1131,0,Ticks_Pract_8,0,9999,9999,9999,658977844
1131,0,Ticks_Pract_8,1,9999,9999,9999,659777600
1131,0,Ticks_Pract_8,2,9999,9999,9999,660577356
1131,0,Ticks_Pract_8,3,9999,9999,9999,661377112
1131,0,Ticks_Pract_8,4,9999,9999,9999,662177864
1131,0,Ticks_Pract_8,5,9999,9999,9999,662977592
1131,0,Ticks_Pract_8,6,9999,9999,9999,663777400
1131,0,Ticks_Pract_8,7,9999,9999,9999,664577132
1131,0,Ticks_Pract_8,8,9999,9999,9999,665377912
1131,0,Ticks_Pract_8,9,9999,9999,9999,666177652
1131,0,Ticks_Pract_8,10,9999,9999,9999,666977388
1131,0,Ticks_Pract_8,11,9999,9999,9999,667777120
1131,0,Ticks_Pract_8,12,9999,9999,9999,668577852
1131,0,Ticks_Pract_8,13,9999,9999,9999,669377584
1131,0,Ticks_Pract_8,14,9999,9999,9999,670177396
1131,0,Ticks_Pract_8,15,9999,9999,9999,670977132
1131,0,Ticks_Pract_8,16,9999,9999,9999,671777904
1131,0,Ticks_Pract_8,17,9999,9999,9999,672577636
1131,0,Ticks_Pract_8,18,9999,9999,9999,673377372
1131,0,Ticks_Pract_8,19,9999,9999,9999,674177104
1131,0,Ticks_Pract_8,20,9999,9999,9999,674977908
1131,0,Ticks_Pract_8,21,9999,9999,9999,675777648
1131,0,Ticks_Pract_8,22,9999,9999,9999,676577380
1131,0,Ticks_Pract_8,23,9999,9999,9999,677377108
1131,0,Ticks_Pract_8,24,9999,9999,9999,678177892
1131,0,Ticks_Pract_8,25,9999,9999,9999,678977628
1131,0,Ticks_Pract_8,26,9999,9999,9999,679777364
1131,0,Ticks_Pract_8,27,9999,9999,9999,680577088
1131,0,Ticks_Pract_8,28,9999,9999,9999,681377900
1131,0,Ticks_Pract_8,29,9999,9999,9999,682177636
1132,1,Ticks_Pract_5,0,5,42,127,702515576
1132,1,Ticks_Pract_5,1,5,42,127,703016188
1132,1,Ticks_Pract_5,2,5,42,127,703516052
1132,1,Ticks_Pract_5,3,5,42,127,704015620
1132,1,Ticks_Pract_5,4,5,42,127,704515484
1132,1,Ticks_Pract_5,5,1,48,59,704520700
1132,1,Ticks_Pract_5,6,1,48,55,704988216
1132,1,Ticks_Pract_5,7,5,42,127,705016220
1132,1,Ticks_Pract_5,8,5,42,127,705515996
1132,1,Ticks_Pract_5,9,1,48,42,705543500
1132,1,Ticks_Pract_5,10,5,42,127,706015616
1132,1,Ticks_Pract_5,11,1,48,49,706055980
1132,1,Ticks_Pract_5,12,5,42,127,706516284
1132,1,Ticks_Pract_5,13,1,48,57,706518224
1132,1,Ticks_Pract_5,14,5,42,127,707015976
1132,1,Ticks_Pract_5,15,1,48,52,707019620
1132,1,Ticks_Pract_5,16,5,42,127,707515896
1132,1,Ticks_Pract_5,17,1,48,56,707535472
1132,1,Ticks_Pract_5,18,5,42,127,708015592
1132,1,Ticks_Pract_5,19,1,48,58,708043540
1132,1,Ticks_Pract_5,20,5,42,127,708516332
1132,1,Ticks_Pract_5,21,1,48,59,708527980
1132,1,Ticks_Pract_5,22,5,42,127,709016176
1132,1,Ticks_Pract_5,23,1,48,59,709032388
1132,1,Ticks_Pract_5,24,5,42,127,709515920
1132,1,Ticks_Pract_5,25,1,48,59,709532500
1132,1,Ticks_Pract_5,26,5,42,127,710016340
1132,1,Ticks_Pract_5,27,1,48,59,710035564
1132,1,Ticks_Pract_5,28,5,42,127,710516180
1132,1,Ticks_Pract_5,29,1,48,35,710518552
1132,1,Ticks_Pract_5,30,1,48,62,711004988
1132,1,Ticks_Pract_5,31,5,42,127,711015944
1132,1,Ticks_Pract_5,32,1,48,69,711511788
1132,1,Ticks_Pract_5,33,5,42,127,711515488
1132,1,Ticks_Pract_5,34,1,48,72,712015332
1132,1,Ticks_Pract_5,35,5,42,127,712016980
1132,1,Ticks_Pract_5,36,5,42,127,712516004
1132,1,Ticks_Pract_5,37,1,48,62,712528700
1132,1,Ticks_Pract_5,38,5,42,127,713015848
1132,1,Ticks_Pract_5,39,1,48,63,713029820
1132,1,Ticks_Pract_5,40,1,48,69,713515688
1132,1,Ticks_Pract_5,41,5,42,127,713517264
1132,1,Ticks_Pract_5,42,5,42,127,714016060
1132,1,Ticks_Pract_5,43,1,48,71,714031152
1132,1,Ticks_Pract_5,44,5,42,127,714516052
1132,1,Ticks_Pract_5,45,1,48,71,714517548
1132,1,Ticks_Pract_5,46,5,42,127,715015452
1132,1,Ticks_Pract_5,47,1,48,66,715032860
1132,1,Ticks_Pract_5,48,5,42,127,715516192
1132,1,Ticks_Pract_5,49,1,48,67,715522528
1132,1,Ticks_Pract_5,50,1,48,61,716002612
1132,1,Ticks_Pract_5,51,5,42,127,716015956
1132,1,Ticks_Pract_5,52,5,42,127,716515880
1132,1,Ticks_Pract_5,53,1,48,65,716537776
1132,1,Ticks_Pract_5,54,5,42,127,717016404
1132,1,Ticks_Pract_5,55,1,48,65,717051160
1132,1,Ticks_Pract_5,56,1,48,59,717509396
1132,1,Ticks_Pract_5,57,5,42,127,717516012
1132,1,Ticks_Pract_5,58,5,42,127,718016008
1132,1,Ticks_Pract_5,59,1,48,54,718018612
1132,1,Ticks_Pract_5,60,1,48,59,718507888
1132,1,Ticks_Pract_5,61,5,42,127,718515772
1132,1,Ticks_Pract_5,62,1,48,56,719002724
1132,1,Ticks_Pract_5,63,5,42,127,719016292
1132,1,Ticks_Pract_5,64,1,48,59,719505556
1132,1,Ticks_Pract_5,65,5,42,127,719516060
1132,1,Ticks_Pract_5,66,5,42,127,720015908
1132,1,Ticks_Pract_5,67,1,48,64,720021800
1132,1,Ticks_Pract_5,68,5,42,127,720515652
1132,1,Ticks_Pract_5,69,1,48,66,720535256
1132,1,Ticks_Pract_5,70,5,42,127,721016024
1132,1,Ticks_Pract_5,71,1,48,55,721023480
1132,1,Ticks_Pract_5,72,1,48,65,721500200
1132,1,Ticks_Pract_5,73,5,42,127,721516008
1132,1,Ticks_Pract_5,74,1,48,54,722006772
1132,1,Ticks_Pract_5,75,5,42,127,722015928
1132,1,Ticks_Pract_5,76,1,48,58,722513496
1132,1,Ticks_Pract_5,0,9999,9999,9999,702513216
1132,1,Ticks_Pract_5,1,9999,9999,9999,703013976
1132,1,Ticks_Pract_5,2,9999,9999,9999,703513692
1132,1,Ticks_Pract_5,3,9999,9999,9999,704013408
1132,1,Ticks_Pract_5,4,9999,9999,9999,704513124
1132,1,Ticks_Pract_5,5,9999,9999,9999,705013860
1132,1,Ticks_Pract_5,6,9999,9999,9999,705513560
1132,1,Ticks_Pract_5,7,9999,9999,9999,706013256
1132,1,Ticks_Pract_5,8,9999,9999,9999,706513996
1132,1,Ticks_Pract_5,9,9999,9999,9999,707013692
1132,1,Ticks_Pract_5,10,9999,9999,9999,707513460
1132,1,Ticks_Pract_5,11,9999,9999,9999,708013156
1132,1,Ticks_Pract_5,12,9999,9999,9999,708513896
1132,1,Ticks_Pract_5,13,9999,9999,9999,709013592
1132,1,Ticks_Pract_5,14,9999,9999,9999,709513336
1132,1,Ticks_Pract_5,15,9999,9999,9999,710014052
1132,1,Ticks_Pract_5,16,9999,9999,9999,710513744
1132,1,Ticks_Pract_5,17,9999,9999,9999,711013432
1132,1,Ticks_Pract_5,18,9999,9999,9999,711513200
1132,1,Ticks_Pract_5,19,9999,9999,9999,712013876
1132,1,Ticks_Pract_5,20,9999,9999,9999,712513644
1132,1,Ticks_Pract_5,21,9999,9999,9999,713013340
1132,1,Ticks_Pract_5,22,9999,9999,9999,713514080
1132,1,Ticks_Pract_5,23,9999,9999,9999,714013776
1132,1,Ticks_Pract_5,24,9999,9999,9999,714513468
1132,1,Ticks_Pract_5,25,9999,9999,9999,715013240
1132,1,Ticks_Pract_5,26,9999,9999,9999,715513908
1132,1,Ticks_Pract_5,27,9999,9999,9999,716013672
1132,1,Ticks_Pract_5,28,9999,9999,9999,716513372
1132,1,Ticks_Pract_5,29,9999,9999,9999,717014112
1132,1,Ticks_Pract_5,30,9999,9999,9999,717513800
1132,1,Ticks_Pract_5,31,9999,9999,9999,718013500
1132,1,Ticks_Pract_5,32,9999,9999,9999,718513264
1132,1,Ticks_Pract_5,33,9999,9999,9999,719014004
1132,1,Ticks_Pract_5,34,9999,9999,9999,719513700
1132,1,Ticks_Pract_5,35,9999,9999,9999,720013400
1132,1,Ticks_Pract_5,36,9999,9999,9999,720513144
1132,1,Ticks_Pract_5,37,9999,9999,9999,721013812
1132,1,Ticks_Pract_5,38,9999,9999,9999,721513576
1132,1,Ticks_Pract_5,39,9999,9999,9999,722013268
1133,2,T1_SMS_8,0,5,42,127,841061608
1133,2,T1_SMS_8,1,5,42,127,841861464
1133,2,T1_SMS_8,2,5,42,127,842662188
1133,2,T1_SMS_8,3,5,42,127,843462092
1133,2,T1_SMS_8,4,5,42,127,844261776
1133,2,T1_SMS_8,5,1,48,66,844295032
1133,2,T1_SMS_8,6,1,48,65,845049500
1133,2,T1_SMS_8,7,5,42,127,845061576
1133,2,T1_SMS_8,8,1,48,69,845833000
1133,2,T1_SMS_8,9,5,42,127,845862356
1133,2,T1_SMS_8,10,1,48,59,846651956
1133,2,T1_SMS_8,11,5,42,127,846661940
1133,2,T1_SMS_8,12,5,42,127,847461756
1133,2,T1_SMS_8,13,1,48,56,847469508
1133,2,T1_SMS_8,14,1,48,71,848251796
1133,2,T1_SMS_8,15,5,42,127,848261504
1133,2,T1_SMS_8,16,1,48,63,849043252
1133,2,T1_SMS_8,17,5,42,127,849062508
1133,2,T1_SMS_8,18,1,48,82,849835356
1133,2,T1_SMS_8,19,5,42,127,849861944
1133,2,T1_SMS_8,20,5,42,127,850661760
1133,2,T1_SMS_8,21,1,48,62,850664424
1133,2,T1_SMS_8,22,1,48,78,851442448
1133,2,T1_SMS_8,23,5,42,127,851461484
1133,2,T1_SMS_8,24,1,48,65,852252884
1133,2,T1_SMS_8,25,5,42,127,852262564
1133,2,T1_SMS_8,26,1,48,66,853057704
1133,2,T1_SMS_8,27,5,42,127,853062000
1133,2,T1_SMS_8,28,1,48,67,853859228
1133,2,T1_SMS_8,29,5,42,127,853861808
1133,2,T1_SMS_8,30,5,42,127,854661572
1133,2,T1_SMS_8,31,1,48,76,854678608
1133,2,T1_SMS_8,32,1,48,73,855460312
1133,2,T1_SMS_8,33,5,42,127,855462268
1133,2,T1_SMS_8,34,5,42,127,856262160
1133,2,T1_SMS_8,35,1,48,72,856275748
1133,2,T1_SMS_8,36,1,48,69,857059308
1133,2,T1_SMS_8,37,5,42,127,857061812
1133,2,T1_SMS_8,38,1,48,76,857859588
1133,2,T1_SMS_8,39,5,42,127,857861324
1133,2,T1_SMS_8,40,1,48,75,858659600
1133,2,T1_SMS_8,41,5,42,127,858662180
1133,2,T1_SMS_8,42,1,48,66,859453048
1133,2,T1_SMS_8,43,5,42,127,859462208
1133,2,T1_SMS_8,44,1,48,71,860255176
1133,2,T1_SMS_8,45,5,42,127,860261720
1133,2,T1_SMS_8,46,1,48,72,861053416
1133,2,T1_SMS_8,47,5,42,127,861061628
1133,2,T1_SMS_8,48,1,48,73,861833200
1133,2,T1_SMS_8,49,5,42,127,861862256
1133,2,T1_SMS_8,50,1,48,65,862626796
1133,2,T1_SMS_8,51,5,42,127,862662288
1133,2,T1_SMS_8,52,1,48,57,863448900
1133,2,T1_SMS_8,53,5,42,127,863461724
1133,2,T1_SMS_8,54,1,48,60,864243996
1133,2,T1_SMS_8,55,5,42,127,864261532
1133,2,T1_SMS_8,56,5,42,127,865062244
1133,2,T1_SMS_8,57,1,48,66,865079200
1133,2,T1_SMS_8,58,1,48,61,865852512
1133,2,T1_SMS_8,59,5,42,127,865862116
1133,2,T1_SMS_8,60,1,48,53,866648656
1133,2,T1_SMS_8,61,5,42,127,866661852
1133,2,T1_SMS_8,62,1,48,53,867441732
1133,2,T1_SMS_8,63,5,42,127,867461460
1133,2,T1_SMS_8,64,1,48,51,868225904
1133,2,T1_SMS_8,65,5,42,127,868262168
1133,2,T1_SMS_8,66,1,48,74,869056104
1133,2,T1_SMS_8,67,5,42,127,869062124
1133,2,T1_SMS_8,68,5,42,127,869861940
1133,2,T1_SMS_8,69,1,48,75,869863804
1133,2,T1_SMS_8,70,5,42,127,870661448
1133,2,T1_SMS_8,71,1,48,84,870672196
1133,2,T1_SMS_8,72,5,42,127,871462156
1133,2,T1_SMS_8,73,1,48,60,871478592
1133,2,T1_SMS_8,74,5,42,127,872261964
1133,2,T1_SMS_8,75,1,48,61,872271588
1133,2,T1_SMS_8,76,5,42,127,873061772
1133,2,T1_SMS_8,77,1,48,59,873096780
1133,2,T1_SMS_8,78,5,42,127,873861456
1133,2,T1_SMS_8,79,1,48,64,873878640
1133,2,T1_SMS_8,80,1,48,57,874657036
1133,2,T1_SMS_8,81,5,42,127,874662228
1133,2,T1_SMS_8,82,5,42,127,875461968
1133,2,T1_SMS_8,83,1,48,63,875473688
1133,2,T1_SMS_8,84,1,48,51,876251488
1133,2,T1_SMS_8,85,5,42,127,876261844
1133,2,T1_SMS_8,86,1,48,67,877051744
1133,2,T1_SMS_8,87,5,42,127,877061504
1133,2,T1_SMS_8,88,5,42,127,877862216
1133,2,T1_SMS_8,89,1,48,53,877876708
1133,2,T1_SMS_8,90,5,42,127,878661952
1133,2,T1_SMS_8,91,1,48,64,878671956
1133,2,T1_SMS_8,92,1,48,51,879461612
1133,2,T1_SMS_8,93,5,42,127,879463096
1133,2,T1_SMS_8,94,5,42,127,880261444
1133,2,T1_SMS_8,95,1,48,60,880266880
1133,2,T1_SMS_8,96,1,48,62,881049468
1133,2,T1_SMS_8,97,5,42,127,881062216
1133,2,T1_SMS_8,98,1,48,61,881840228
1133,2,T1_SMS_8,99,5,42,127,881861948
1133,2,T1_SMS_8,100,1,48,59,882622608
1133,2,T1_SMS_8,101,5,42,127,882661832
1133,2,T1_SMS_8,102,5,42,127,883461572
1133,2,T1_SMS_8,103,1,48,61,883470604
1133,2,T1_SMS_8,104,1,48,63,884262356
1133,2,T1_SMS_8,105,5,42,127,884263768
1133,2,T1_SMS_8,106,1,48,70,885056212
1133,2,T1_SMS_8,107,5,42,127,885062084
1133,2,T1_SMS_8,108,5,42,127,885862048
1133,2,T1_SMS_8,109,1,48,51,885869508
1133,2,T1_SMS_8,110,1,48,60,886658852
1133,2,T1_SMS_8,111,5,42,127,886661576
1133,2,T1_SMS_8,112,5,42,127,887462216
1133,2,T1_SMS_8,113,1,48,61,887480668
1133,2,T1_SMS_8,114,1,48,58,888260204
1133,2,T1_SMS_8,115,5,42,127,888262088
1133,2,T1_SMS_8,116,5,42,127,889061980
1133,2,T1_SMS_8,117,1,48,63,889068916
1133,2,T1_SMS_8,118,1,48,63,889859748
1133,2,T1_SMS_8,119,5,42,127,889861408
1133,2,T1_SMS_8,120,1,48,61,890638744
1133,2,T1_SMS_8,121,5,42,127,890662188
1133,2,T1_SMS_8,122,1,48,70,891461100
1133,2,T1_SMS_8,123,5,42,127,891462744
1133,2,T1_SMS_8,124,5,42,127,892261812
1133,2,T1_SMS_8,125,1,48,58,892269868
1133,2,T1_SMS_8,126,1,48,60,893044596
1133,2,T1_SMS_8,127,5,42,127,893061712
1133,2,T1_SMS_8,128,1,48,59,893839648
1133,2,T1_SMS_8,129,5,42,127,893862340
1133,2,T1_SMS_8,130,1,48,67,894654564
1133,2,T1_SMS_8,131,5,42,127,894661852
1133,2,T1_SMS_8,132,5,42,127,895461812
1133,2,T1_SMS_8,133,1,48,53,895509812
1133,2,T1_SMS_8,134,5,42,127,896261768
1133,2,T1_SMS_8,135,1,48,56,896320092
1133,2,T1_SMS_8,136,5,42,127,897062104
1133,2,T1_SMS_8,137,1,48,74,897064768
1133,2,T1_SMS_8,138,1,48,72,897834416
1133,2,T1_SMS_8,139,5,42,127,897861976
1133,2,T1_SMS_8,140,5,42,127,898661644
1133,2,T1_SMS_8,141,1,48,74,898696048
1133,2,T1_SMS_8,142,5,42,127,899461696
1133,2,T1_SMS_8,143,1,48,68,899484116
1133,2,T1_SMS_8,144,1,48,65,900240372
1133,2,T1_SMS_8,145,5,42,127,900262100
1133,2,T1_SMS_8,146,1,48,65,901047064
1133,2,T1_SMS_8,147,5,42,127,901061980
1133,2,T1_SMS_8,148,5,42,127,901861720
1133,2,T1_SMS_8,149,1,48,64,901874936
1133,2,T1_SMS_8,150,5,42,127,902661532
1133,2,T1_SMS_8,151,1,48,61,902682524
1133,2,T1_SMS_8,152,5,42,127,903462456
1133,2,T1_SMS_8,153,1,48,58,903465500
1133,2,T1_SMS_8,154,5,42,127,904261892
1133,2,T1_SMS_8,155,1,48,59,904277580
1133,2,T1_SMS_8,156,5,42,127,905061700
1133,2,T1_SMS_8,157,1,48,59,905076484
1133,2,T1_SMS_8,158,1,48,66,905859412
1133,2,T1_SMS_8,159,5,42,127,905861376
1133,2,T1_SMS_8,160,1,48,61,906658608
1133,2,T1_SMS_8,161,5,42,127,906662380
1133,2,T1_SMS_8,162,5,42,127,907462048
1133,2,T1_SMS_8,163,1,48,66,907481620
1133,2,T1_SMS_8,164,5,42,127,908261632
1133,2,T1_SMS_8,165,1,48,67,908279936
1133,2,T1_SMS_8,166,5,42,127,909061368
1133,2,T1_SMS_8,167,1,48,64,909100908
1133,2,T1_SMS_8,168,5,42,127,909862520
1133,2,T1_SMS_8,169,1,48,65,909879408
1133,2,T1_SMS_8,170,5,42,127,910661956
1133,2,T1_SMS_8,171,1,48,65,910675620
1133,2,T1_SMS_8,172,5,42,127,911461688
1133,2,T1_SMS_8,173,1,48,65,911465928
1133,2,T1_SMS_8,174,1,48,71,912259252
1133,2,T1_SMS_8,175,5,42,127,912261364
1133,2,T1_SMS_8,176,5,42,127,913062448
1133,2,T1_SMS_8,177,1,48,62,913069608
1133,2,T1_SMS_8,178,5,42,127,913862108
1133,2,T1_SMS_8,179,1,48,60,913868820
1133,2,T1_SMS_8,180,1,48,60,914650360
1133,2,T1_SMS_8,181,5,42,127,914661688
1133,2,T1_SMS_8,182,1,48,56,915448896
1133,2,T1_SMS_8,183,5,42,127,915461344
1133,2,T1_SMS_8,184,5,42,127,916262356
1133,2,T1_SMS_8,185,1,48,58,916284396
1133,2,T1_SMS_8,186,1,48,59,917041408
1133,2,T1_SMS_8,187,5,42,127,917062008
1133,2,T1_SMS_8,188,1,48,58,917830744
1133,2,T1_SMS_8,189,5,42,127,917861740
1133,2,T1_SMS_8,190,1,48,61,918642144
1133,2,T1_SMS_8,191,5,42,127,918661424
1133,2,T1_SMS_8,192,1,48,60,919462064
1133,2,T1_SMS_8,193,5,42,127,919463476
1133,2,T1_SMS_8,194,5,42,127,920262168
1133,2,T1_SMS_8,195,1,48,54,920272764
1133,2,T1_SMS_8,196,5,42,127,921061680
1133,2,T1_SMS_8,197,1,48,53,921069284
1133,2,T1_SMS_8,198,5,42,127,921861412
1133,2,T1_SMS_8,199,1,48,70,921883452
1133,2,T1_SMS_8,200,5,42,127,922662192
1133,2,T1_SMS_8,201,1,48,57,922683416
1133,2,T1_SMS_8,202,5,42,127,923462148
1133,2,T1_SMS_8,203,1,48,59,923499076
1133,2,T1_SMS_8,204,5,42,127,924261660
1133,2,T1_SMS_8,205,1,48,64,924282280
1133,2,T1_SMS_8,206,5,42,127,925061344
1133,2,T1_SMS_8,207,1,48,65,925068504
1133,2,T1_SMS_8,208,1,48,59,925853708
1133,2,T1_SMS_8,209,5,42,127,925862192
1133,2,T1_SMS_8,210,5,42,127,926662004
1133,2,T1_SMS_8,211,1,48,62,926672232
1133,2,T1_SMS_8,212,5,42,127,927461812
1133,2,T1_SMS_8,213,1,48,55,927500836
1133,2,T1_SMS_8,214,5,42,127,928261472
1133,2,T1_SMS_8,215,1,48,54,928276180
1133,2,T1_SMS_8,216,1,48,62,929062028
1133,2,T1_SMS_8,217,5,42,127,929063516
1133,2,T1_SMS_8,218,5,42,127,929861984
1133,2,T1_SMS_8,219,1,48,60,929868468
1133,2,T1_SMS_8,220,1,48,63,930650236
1133,2,T1_SMS_8,221,5,42,127,930662012
1133,2,T1_SMS_8,222,5,42,127,931461552
1133,2,T1_SMS_8,223,1,48,56,931485840
1133,2,T1_SMS_8,224,1,48,56,932249732
1133,2,T1_SMS_8,225,5,42,127,932262252
1133,2,T1_SMS_8,226,5,42,127,933061992
1133,2,T1_SMS_8,227,1,48,50,933065112
1133,2,T1_SMS_8,228,1,48,59,933857048
1133,2,T1_SMS_8,229,5,42,127,933861868
1133,2,T1_SMS_8,230,1,48,64,934608464
1133,2,T1_SMS_8,231,5,42,127,934661528
1133,2,T1_SMS_8,232,1,48,58,935460272
1133,2,T1_SMS_8,233,5,42,127,935462156
1133,2,T1_SMS_8,234,1,48,58,936261896
1133,2,T1_SMS_8,235,5,42,127,936263236
1133,2,T1_SMS_8,236,1,48,60,937043936
1133,2,T1_SMS_8,0,9999,9999,9999,841059392
1133,2,T1_SMS_8,1,9999,9999,9999,841859148
1133,2,T1_SMS_8,2,9999,9999,9999,842659900
1133,2,T1_SMS_8,3,9999,9999,9999,843459656
1133,2,T1_SMS_8,4,9999,9999,9999,844259412
1133,2,T1_SMS_8,5,9999,9999,9999,845059140
1133,2,T1_SMS_8,6,9999,9999,9999,845859920
1133,2,T1_SMS_8,7,9999,9999,9999,846659652
1133,2,T1_SMS_8,8,9999,9999,9999,847459392
1133,2,T1_SMS_8,9,9999,9999,9999,848259120
1133,2,T1_SMS_8,10,9999,9999,9999,849059924
1133,2,T1_SMS_8,11,9999,9999,9999,849859656
1133,2,T1_SMS_8,12,9999,9999,9999,850659396
1133,2,T1_SMS_8,13,9999,9999,9999,851459120
1133,2,T1_SMS_8,14,9999,9999,9999,852259904
1133,2,T1_SMS_8,15,9999,9999,9999,853059636
1133,2,T1_SMS_8,16,9999,9999,9999,853859444
1133,2,T1_SMS_8,17,9999,9999,9999,854659184
1133,2,T1_SMS_8,18,9999,9999,9999,855459936
1133,2,T1_SMS_8,19,9999,9999,9999,856259648
1133,2,T1_SMS_8,20,9999,9999,9999,857059376
1133,2,T1_SMS_8,21,9999,9999,9999,857859136
1133,2,T1_SMS_8,22,9999,9999,9999,858659892
1133,2,T1_SMS_8,23,9999,9999,9999,859459696
1133,2,T1_SMS_8,24,9999,9999,9999,860259432
1133,2,T1_SMS_8,25,9999,9999,9999,861059172
1133,2,T1_SMS_8,26,9999,9999,9999,861859896
1133,2,T1_SMS_8,27,9999,9999,9999,862659704
1133,2,T1_SMS_8,28,9999,9999,9999,863459436
1133,2,T1_SMS_8,29,9999,9999,9999,864259168
1133,2,T1_SMS_8,30,9999,9999,9999,865059956
1133,2,T1_SMS_8,31,9999,9999,9999,865859680
1133,2,T1_SMS_8,32,9999,9999,9999,866659416
1133,2,T1_SMS_8,33,9999,9999,9999,867459172
1133,2,T1_SMS_8,34,9999,9999,9999,868259952
1133,2,T1_SMS_8,35,9999,9999,9999,869059688
1133,2,T1_SMS_8,36,9999,9999,9999,869859428
1133,2,T1_SMS_8,37,9999,9999,9999,870659160
1133,2,T1_SMS_8,38,9999,9999,9999,871459940
1133,2,T1_SMS_8,39,9999,9999,9999,872259676
1133,2,T1_SMS_8,40,9999,9999,9999,873059408
1133,2,T1_SMS_8,41,9999,9999,9999,873859168
1133,2,T1_SMS_8,42,9999,9999,9999,874659940
1133,2,T1_SMS_8,43,9999,9999,9999,875459680
1133,2,T1_SMS_8,44,9999,9999,9999,876259408
1133,2,T1_SMS_8,45,9999,9999,9999,877059144
1133,2,T1_SMS_8,46,9999,9999,9999,877859928
1133,2,T1_SMS_8,47,9999,9999,9999,878659664
1133,2,T1_SMS_8,48,9999,9999,9999,879459396
1133,2,T1_SMS_8,49,9999,9999,9999,880259156
1133,2,T1_SMS_8,50,9999,9999,9999,881059928
1133,2,T1_SMS_8,51,9999,9999,9999,881859660
1133,2,T1_SMS_8,52,9999,9999,9999,882659396
1133,2,T1_SMS_8,53,9999,9999,9999,883459136
1133,2,T1_SMS_8,54,9999,9999,9999,884259916
1133,2,T1_SMS_8,55,9999,9999,9999,885059648
1133,2,T1_SMS_8,56,9999,9999,9999,885859388
1133,2,T1_SMS_8,57,9999,9999,9999,886659140
1133,2,T1_SMS_8,58,9999,9999,9999,887459928
1133,2,T1_SMS_8,59,9999,9999,9999,888259676
1133,2,T1_SMS_8,60,9999,9999,9999,889059396
1133,2,T1_SMS_8,61,9999,9999,9999,889859132
1133,2,T1_SMS_8,62,9999,9999,9999,890659900
1133,2,T1_SMS_8,63,9999,9999,9999,891459640
1133,2,T1_SMS_8,64,9999,9999,9999,892259372
1133,2,T1_SMS_8,65,9999,9999,9999,893059124
1133,2,T1_SMS_8,66,9999,9999,9999,893859904
1133,2,T1_SMS_8,67,9999,9999,9999,894659636
1133,2,T1_SMS_8,68,9999,9999,9999,895459376
1133,2,T1_SMS_8,69,9999,9999,9999,896259184
1133,2,T1_SMS_8,70,9999,9999,9999,897059888
1133,2,T1_SMS_8,71,9999,9999,9999,897859688
1133,2,T1_SMS_8,72,9999,9999,9999,898659428
1133,2,T1_SMS_8,73,9999,9999,9999,899459188
1133,2,T1_SMS_8,74,9999,9999,9999,900259888
1133,2,T1_SMS_8,75,9999,9999,9999,901059696
1133,2,T1_SMS_8,76,9999,9999,9999,901859432
1133,2,T1_SMS_8,77,9999,9999,9999,902659168
1133,2,T1_SMS_8,78,9999,9999,9999,903459948
1133,2,T1_SMS_8,79,9999,9999,9999,904259680
1133,2,T1_SMS_8,80,9999,9999,9999,905059412
1133,2,T1_SMS_8,81,9999,9999,9999,905859128
1133,2,T1_SMS_8,82,9999,9999,9999,906659944
1133,2,T1_SMS_8,83,9999,9999,9999,907459684
1133,2,T1_SMS_8,84,9999,9999,9999,908259416
1133,2,T1_SMS_8,85,9999,9999,9999,909059152
1133,2,T1_SMS_8,86,9999,9999,9999,909859932
1133,2,T1_SMS_8,87,9999,9999,9999,910659668
1133,2,T1_SMS_8,88,9999,9999,9999,911459400
1133,2,T1_SMS_8,89,9999,9999,9999,912259124
1133,2,T1_SMS_8,90,9999,9999,9999,913059940
1133,2,T1_SMS_8,91,9999,9999,9999,913859672
1133,2,T1_SMS_8,92,9999,9999,9999,914659400
1133,2,T1_SMS_8,93,9999,9999,9999,915459132
1133,2,T1_SMS_8,94,9999,9999,9999,916259920
1133,2,T1_SMS_8,95,9999,9999,9999,917059648
1133,2,T1_SMS_8,96,9999,9999,9999,917859380
1133,2,T1_SMS_8,97,9999,9999,9999,918659136
1133,2,T1_SMS_8,98,9999,9999,9999,919459924
1133,2,T1_SMS_8,99,9999,9999,9999,920259656
1133,2,T1_SMS_8,100,9999,9999,9999,921059392
1133,2,T1_SMS_8,101,9999,9999,9999,921859124
1133,2,T1_SMS_8,102,9999,9999,9999,922659904
1133,2,T1_SMS_8,103,9999,9999,9999,923459636
1133,2,T1_SMS_8,104,9999,9999,9999,924259444
1133,2,T1_SMS_8,105,9999,9999,9999,925059128
1133,2,T1_SMS_8,106,9999,9999,9999,925859904
1133,2,T1_SMS_8,107,9999,9999,9999,926659644
1133,2,T1_SMS_8,108,9999,9999,9999,927459376
1133,2,T1_SMS_8,109,9999,9999,9999,928259184
1133,2,T1_SMS_8,110,9999,9999,9999,929059888
1133,2,T1_SMS_8,111,9999,9999,9999,929859696
1133,2,T1_SMS_8,112,9999,9999,9999,930659424
1133,2,T1_SMS_8,113,9999,9999,9999,931459188
1133,2,T1_SMS_8,114,9999,9999,9999,932259892
1133,2,T1_SMS_8,115,9999,9999,9999,933059632
1133,2,T1_SMS_8,116,9999,9999,9999,933859432
1133,2,T1_SMS_8,117,9999,9999,9999,934659164
1133,2,T1_SMS_8,118,9999,9999,9999,935459896
1133,2,T1_SMS_8,119,9999,9999,9999,936259684
1134,4,T1_SMS_5,0,5,42,127,1001201968
1134,4,T1_SMS_5,1,5,42,127,1001701756
1134,4,T1_SMS_5,2,1,48,47,1002185648
1134,4,T1_SMS_5,3,5,42,127,1002201540
1134,4,T1_SMS_5,4,1,48,51,1002686920
1134,4,T1_SMS_5,5,5,42,127,1002702208
1134,4,T1_SMS_5,6,1,48,51,1003193116
1134,4,T1_SMS_5,7,5,42,127,1003201828
1134,4,T1_SMS_5,8,1,48,58,1003692068
1134,4,T1_SMS_5,9,5,42,127,1003701748
1134,4,T1_SMS_5,10,1,48,55,1004198944
1134,4,T1_SMS_5,11,5,42,127,1004202340
1134,4,T1_SMS_5,12,1,48,55,1004690328
1134,4,T1_SMS_5,13,5,42,127,1004702032
1134,4,T1_SMS_5,14,5,42,127,1005201812
1134,4,T1_SMS_5,15,1,48,59,1005207776
1134,4,T1_SMS_5,16,5,42,127,1005701580
1134,4,T1_SMS_5,17,1,48,56,1005717716
1134,4,T1_SMS_5,18,5,42,127,1006202148
1134,4,T1_SMS_5,19,1,48,55,1006212372
1134,4,T1_SMS_5,20,5,42,127,1006701892
1134,4,T1_SMS_5,21,1,48,57,1006714584
1134,4,T1_SMS_5,22,5,42,127,1007201660
1134,4,T1_SMS_5,23,1,48,56,1007209644
1134,4,T1_SMS_5,24,5,42,127,1007702328
1134,4,T1_SMS_5,25,1,48,55,1007705224
1134,4,T1_SMS_5,26,5,42,127,1008201948
1134,4,T1_SMS_5,27,1,48,53,1008208208
1134,4,T1_SMS_5,28,5,42,127,1008701716
1134,4,T1_SMS_5,29,1,48,59,1008710748
1134,4,T1_SMS_5,30,5,42,127,1009201636
1134,4,T1_SMS_5,31,1,48,54,1009217996
1134,4,T1_SMS_5,32,5,42,127,1009702152
1134,4,T1_SMS_5,33,1,48,61,1009711556
1134,4,T1_SMS_5,34,1,48,59,1010201700
1134,4,T1_SMS_5,35,5,42,127,1010203112
1134,4,T1_SMS_5,36,1,48,60,1010693276
1134,4,T1_SMS_5,37,5,42,127,1010701540
1134,4,T1_SMS_5,38,1,48,64,1011183772
1134,4,T1_SMS_5,39,5,42,127,1011202576
1134,4,T1_SMS_5,40,1,48,61,1011683616
1134,4,T1_SMS_5,41,5,42,127,1011702048
1134,4,T1_SMS_5,42,1,48,61,1012191836
1134,4,T1_SMS_5,43,5,42,127,1012201744
1134,4,T1_SMS_5,44,1,48,60,1012675748
1134,4,T1_SMS_5,45,5,42,127,1012701512
1134,4,T1_SMS_5,46,1,48,63,1013191596
1134,4,T1_SMS_5,47,5,42,127,1013202256
1134,4,T1_SMS_5,48,1,48,64,1013677980
1134,4,T1_SMS_5,49,5,42,127,1013701952
1134,4,T1_SMS_5,50,1,48,63,1014172660
1134,4,T1_SMS_5,51,5,42,127,1014201572
1134,4,T1_SMS_5,52,1,48,58,1014695324
1134,4,T1_SMS_5,53,5,42,127,1014701492
1134,4,T1_SMS_5,54,1,48,58,1015195536
1134,4,T1_SMS_5,55,5,42,127,1015202084
1134,4,T1_SMS_5,56,1,48,58,1015670080
1134,4,T1_SMS_5,57,5,42,127,1015702004
1134,4,T1_SMS_5,58,1,48,51,1016185776
1134,4,T1_SMS_5,59,5,42,127,1016201620
1134,4,T1_SMS_5,60,1,48,55,1016694672
1134,4,T1_SMS_5,61,5,42,127,1016702584
1134,4,T1_SMS_5,62,1,48,53,1017192724
1134,4,T1_SMS_5,63,5,42,127,1017202032
1134,4,T1_SMS_5,64,1,48,53,1017677532
1134,4,T1_SMS_5,65,5,42,127,1017701652
1134,4,T1_SMS_5,66,5,42,127,1018201576
1134,4,T1_SMS_5,67,1,48,62,1018202544
1134,4,T1_SMS_5,68,5,42,127,1018702392
1134,4,T1_SMS_5,69,1,48,64,1018725484
1134,4,T1_SMS_5,70,5,42,127,1019201864
1134,4,T1_SMS_5,71,1,48,62,1019204684
1134,4,T1_SMS_5,72,1,48,62,1019698972
1134,4,T1_SMS_5,73,5,42,127,1019701552
1134,4,T1_SMS_5,74,1,48,62,1020190816
1134,4,T1_SMS_5,75,5,42,127,1020202440
1134,4,T1_SMS_5,76,1,48,55,1020693500
1134,4,T1_SMS_5,77,5,42,127,1020701988
1134,4,T1_SMS_5,78,1,48,54,1021193572
1134,4,T1_SMS_5,79,5,42,127,1021201756
1134,4,T1_SMS_5,80,1,48,57,1021679656
1134,4,T1_SMS_5,81,5,42,127,1021701600
1134,4,T1_SMS_5,82,5,42,127,1022202276
1134,4,T1_SMS_5,83,1,48,54,1022203240
1134,4,T1_SMS_5,84,1,48,59,1022699776
1134,4,T1_SMS_5,85,5,42,127,1022701888
1134,4,T1_SMS_5,86,1,48,62,1023199080
1134,4,T1_SMS_5,87,5,42,127,1023201584
1134,4,T1_SMS_5,88,1,48,59,1023698180
1134,4,T1_SMS_5,89,5,42,127,1023702400
1134,4,T1_SMS_5,90,5,42,127,1024201952
1134,4,T1_SMS_5,91,1,48,54,1024219360
1134,4,T1_SMS_5,92,5,42,127,1024701868
1134,4,T1_SMS_5,93,1,48,45,1024709252
1134,4,T1_SMS_5,94,5,42,127,1025201492
1134,4,T1_SMS_5,95,5,42,127,1025702180
1134,4,T1_SMS_5,96,1,48,41,1025713228
1134,4,T1_SMS_5,97,5,42,127,1026201876
1134,4,T1_SMS_5,98,1,48,53,1026221968
1134,4,T1_SMS_5,99,1,48,51,1026699672
1134,4,T1_SMS_5,100,5,42,127,1026701636
1134,4,T1_SMS_5,101,1,48,54,1027196508
1134,4,T1_SMS_5,102,5,42,127,1027202304
1134,4,T1_SMS_5,103,5,42,127,1027702204
1134,4,T1_SMS_5,104,1,48,56,1027709992
1134,4,T1_SMS_5,105,5,42,127,1028201976
1134,4,T1_SMS_5,106,1,48,62,1028202940
1134,4,T1_SMS_5,107,1,48,59,1028676120
1134,4,T1_SMS_5,108,5,42,127,1028701512
1134,4,T1_SMS_5,109,1,48,46,1029155548
1134,4,T1_SMS_5,110,5,42,127,1029202332
1134,4,T1_SMS_5,111,1,48,58,1029670800
1134,4,T1_SMS_5,112,5,42,127,1029702100
1134,4,T1_SMS_5,113,1,48,58,1030186204
1134,4,T1_SMS_5,114,5,42,127,1030201572
1134,4,T1_SMS_5,115,1,48,69,1030671092
1134,4,T1_SMS_5,116,5,42,127,1030701344
1134,4,T1_SMS_5,117,1,48,55,1031171680
1134,4,T1_SMS_5,118,5,42,127,1031202160
1134,4,T1_SMS_5,119,1,48,60,1031694264
1134,4,T1_SMS_5,120,5,42,127,1031702076
1134,4,T1_SMS_5,121,5,42,127,1032201704
1134,4,T1_SMS_5,122,1,48,56,1032204300
1134,4,T1_SMS_5,123,1,48,56,1032693280
1134,4,T1_SMS_5,124,5,42,127,1032702292
1134,4,T1_SMS_5,125,5,42,127,1033202216
1134,4,T1_SMS_5,126,1,48,60,1033208476
1134,4,T1_SMS_5,127,5,42,127,1033701760
1134,4,T1_SMS_5,128,1,48,55,1033706148
1134,4,T1_SMS_5,129,5,42,127,1034201380
1134,4,T1_SMS_5,130,1,48,54,1034215720
1134,4,T1_SMS_5,131,5,42,127,1034702196
1134,4,T1_SMS_5,132,1,48,53,1034711152
1134,4,T1_SMS_5,133,5,42,127,1035202040
1134,4,T1_SMS_5,134,1,48,56,1035222216
1134,4,T1_SMS_5,135,5,42,127,1035701588
1134,4,T1_SMS_5,136,1,48,55,1035714804
1134,4,T1_SMS_5,137,5,42,127,1036202476
1134,4,T1_SMS_5,138,1,48,54,1036208144
1134,4,T1_SMS_5,139,5,42,127,1036702172
1134,4,T1_SMS_5,140,1,48,57,1036709480
1134,4,T1_SMS_5,141,5,42,127,1037201868
1134,4,T1_SMS_5,142,1,48,54,1037213064
1134,4,T1_SMS_5,143,5,42,127,1037701412
1134,4,T1_SMS_5,144,1,48,56,1037704532
1134,4,T1_SMS_5,145,1,48,54,1038196932
1134,4,T1_SMS_5,146,5,42,127,1038202272
1134,4,T1_SMS_5,147,1,48,54,1038696444
1134,4,T1_SMS_5,148,5,42,127,1038702016
1134,4,T1_SMS_5,149,5,42,127,1039201716
1134,4,T1_SMS_5,150,1,48,49,1039209776
1134,4,T1_SMS_5,151,1,48,52,1039687912
1134,4,T1_SMS_5,152,5,42,127,1039702228
1134,4,T1_SMS_5,153,1,48,48,1040198900
1134,4,T1_SMS_5,154,5,42,127,1040202072
1134,4,T1_SMS_5,155,1,48,45,1040690216
1134,4,T1_SMS_5,156,5,42,127,1040701992
1134,4,T1_SMS_5,157,1,48,48,1041173080
1134,4,T1_SMS_5,158,5,42,127,1041201388
1134,4,T1_SMS_5,159,1,48,49,1041697604
1134,4,T1_SMS_5,160,5,42,127,1041702276
1134,4,T1_SMS_5,161,5,42,127,1042202128
1134,4,T1_SMS_5,162,1,48,43,1042212352
1134,4,T1_SMS_5,163,1,48,48,1042687128
1134,4,T1_SMS_5,164,5,42,127,1042701816
1134,4,T1_SMS_5,165,1,48,48,1043192128
1134,4,T1_SMS_5,166,5,42,127,1043202260
1134,4,T1_SMS_5,167,1,48,46,1043696764
1134,4,T1_SMS_5,168,5,42,127,1043702028
1134,4,T1_SMS_5,169,1,48,48,1044174016
1134,4,T1_SMS_5,170,5,42,127,1044201948
1134,4,T1_SMS_5,171,1,48,41,1044677900
1134,4,T1_SMS_5,172,5,42,127,1044701568
1134,4,T1_SMS_5,173,1,48,44,1045183652
1134,4,T1_SMS_5,174,5,42,127,1045202236
1134,4,T1_SMS_5,175,1,48,40,1045679976
1134,4,T1_SMS_5,176,5,42,127,1045702152
1134,4,T1_SMS_5,177,1,48,47,1046186552
1134,4,T1_SMS_5,178,5,42,127,1046201996
1134,4,T1_SMS_5,179,1,48,36,1046669048
1134,4,T1_SMS_5,180,5,42,127,1046701472
1134,4,T1_SMS_5,181,1,48,42,1047184372
1134,4,T1_SMS_5,182,5,42,127,1047202212
1134,4,T1_SMS_5,183,1,48,48,1047689384
1134,4,T1_SMS_5,184,5,42,127,1047702056
1134,4,T1_SMS_5,185,1,48,47,1048193636
1134,4,T1_SMS_5,186,5,42,127,1048201528
1134,4,T1_SMS_5,187,5,42,127,1048702276
1134,4,T1_SMS_5,188,1,48,46,1048707712
1134,4,T1_SMS_5,189,1,48,40,1049197944
1134,4,T1_SMS_5,190,5,42,127,1049202164
1134,4,T1_SMS_5,191,1,48,50,1049701640
1134,4,T1_SMS_5,192,5,42,127,1049703052
1134,4,T1_SMS_5,193,5,42,127,1050201336
1134,4,T1_SMS_5,194,1,48,65,1050212228
1134,4,T1_SMS_5,195,5,42,127,1050702224
1134,4,T1_SMS_5,196,1,48,67,1050704744
1134,4,T1_SMS_5,197,1,48,60,1051197988
1134,4,T1_SMS_5,198,5,42,127,1051202284
1134,4,T1_SMS_5,199,1,48,60,1051698584
1134,4,T1_SMS_5,200,5,42,127,1051702128
1134,4,T1_SMS_5,201,5,42,127,1052202280
1134,4,T1_SMS_5,202,1,48,54,1052221180
1134,4,T1_SMS_5,203,5,42,127,1052702048
1134,4,T1_SMS_5,204,1,48,54,1052708236
1134,4,T1_SMS_5,205,5,42,127,1053201968
1134,4,T1_SMS_5,206,1,48,51,1053212344
1134,4,T1_SMS_5,207,1,48,52,1053698852
1134,4,T1_SMS_5,208,5,42,127,1053701876
1134,4,T1_SMS_5,209,1,48,52,1054199448
1134,4,T1_SMS_5,210,5,42,127,1054202100
1134,4,T1_SMS_5,211,1,48,48,1054697048
1134,4,T1_SMS_5,212,5,42,127,1054702092
1134,4,T1_SMS_5,213,1,48,55,1055188964
1134,4,T1_SMS_5,214,5,42,127,1055201788
1134,4,T1_SMS_5,215,1,48,54,1055683200
1134,4,T1_SMS_5,216,5,42,127,1055702232
1134,4,T1_SMS_5,217,1,48,57,1056192020
1134,4,T1_SMS_5,218,5,42,127,1056202000
1134,4,T1_SMS_5,219,5,42,127,1056702000
1134,4,T1_SMS_5,220,1,48,54,1056712752
1134,4,T1_SMS_5,221,5,42,127,1057201472
1134,4,T1_SMS_5,222,1,48,60,1057205112
1134,4,T1_SMS_5,223,5,42,127,1057702288
1134,4,T1_SMS_5,224,1,48,53,1057711764
1134,4,T1_SMS_5,225,5,42,127,1058201908
1134,4,T1_SMS_5,226,1,48,46,1058214524
1134,4,T1_SMS_5,227,5,42,127,1058701976
1134,4,T1_SMS_5,228,1,48,48,1058707944
1134,4,T1_SMS_5,229,5,42,127,1059202348
1134,4,T1_SMS_5,230,1,48,44,1059221472
1134,4,T1_SMS_5,231,5,42,127,1059702092
1134,4,T1_SMS_5,232,1,48,52,1059708452
1134,4,T1_SMS_5,233,5,42,127,1060202008
1134,4,T1_SMS_5,234,1,48,46,1060223032
1134,4,T1_SMS_5,235,5,42,127,1060701632
1134,4,T1_SMS_5,236,1,48,41,1060712828
1134,4,T1_SMS_5,237,5,42,127,1061202224
1134,4,T1_SMS_5,238,1,48,42,1061207364
1134,4,T1_SMS_5,239,1,48,40,1061689084
1134,4,T1_SMS_5,240,5,42,127,1061701984
1134,4,T1_SMS_5,241,1,48,44,1062189528
1134,4,T1_SMS_5,242,5,42,127,1062201680
1134,4,T1_SMS_5,243,1,48,44,1062698724
1134,4,T1_SMS_5,244,5,42,127,1062701376
1134,4,T1_SMS_5,245,1,48,48,1063191384
1134,4,T1_SMS_5,246,5,42,127,1063202044
1134,4,T1_SMS_5,247,1,48,41,1063687840
1134,4,T1_SMS_5,248,5,42,127,1063701860
1134,4,T1_SMS_5,249,1,48,56,1064195760
1134,4,T1_SMS_5,250,5,42,127,1064201780
1134,4,T1_SMS_5,251,5,42,127,1064702380
1134,4,T1_SMS_5,252,1,48,47,1064710216
1134,4,T1_SMS_5,253,1,48,54,1065195076
1134,4,T1_SMS_5,254,5,42,127,1065202068
1134,4,T1_SMS_5,255,1,48,68,1065683852
1134,4,T1_SMS_5,256,5,42,127,1065701616
1134,4,T1_SMS_5,0,9999,9999,9999,1001199680
1134,4,T1_SMS_5,1,9999,9999,9999,1001699396
1134,4,T1_SMS_5,2,9999,9999,9999,1002199108
1134,4,T1_SMS_5,3,9999,9999,9999,1002699848
1134,4,T1_SMS_5,4,9999,9999,9999,1003199544
1134,4,T1_SMS_5,5,9999,9999,9999,1003699312
1134,4,T1_SMS_5,6,9999,9999,9999,1004200052
1134,4,T1_SMS_5,7,9999,9999,9999,1004699748
1134,4,T1_SMS_5,8,9999,9999,9999,1005199448
1134,4,T1_SMS_5,9,9999,9999,9999,1005699144
1134,4,T1_SMS_5,10,9999,9999,9999,1006199860
1134,4,T1_SMS_5,11,9999,9999,9999,1006699604
1134,4,T1_SMS_5,12,9999,9999,9999,1007199300
1134,4,T1_SMS_5,13,9999,9999,9999,1007700040
1134,4,T1_SMS_5,14,9999,9999,9999,1008199736
1134,4,T1_SMS_5,15,9999,9999,9999,1008699504
1134,4,T1_SMS_5,16,9999,9999,9999,1009199200
1134,4,T1_SMS_5,17,9999,9999,9999,1009699940
1134,4,T1_SMS_5,18,9999,9999,9999,1010199636
1134,4,T1_SMS_5,19,9999,9999,9999,1010699328
1134,4,T1_SMS_5,20,9999,9999,9999,1011200068
1134,4,T1_SMS_5,21,9999,9999,9999,1011699764
1134,4,T1_SMS_5,22,9999,9999,9999,1012199532
1134,4,T1_SMS_5,23,9999,9999,9999,1012699228
1134,4,T1_SMS_5,24,9999,9999,9999,1013199968
1134,4,T1_SMS_5,25,9999,9999,9999,1013699664
1134,4,T1_SMS_5,26,9999,9999,9999,1014199360
1134,4,T1_SMS_5,27,9999,9999,9999,1014699056
1134,4,T1_SMS_5,28,9999,9999,9999,1015199796
1134,4,T1_SMS_5,29,9999,9999,9999,1015699568
1134,4,T1_SMS_5,30,9999,9999,9999,1016199260
1134,4,T1_SMS_5,31,9999,9999,9999,1016700000
1134,4,T1_SMS_5,32,9999,9999,9999,1017199672
1134,4,T1_SMS_5,33,9999,9999,9999,1017699440
1134,4,T1_SMS_5,34,9999,9999,9999,1018199144
1134,4,T1_SMS_5,35,9999,9999,9999,1018699884
1134,4,T1_SMS_5,36,9999,9999,9999,1019199576
1134,4,T1_SMS_5,37,9999,9999,9999,1019699264
1134,4,T1_SMS_5,38,9999,9999,9999,1020200008
1134,4,T1_SMS_5,39,9999,9999,9999,1020699704
1134,4,T1_SMS_5,40,9999,9999,9999,1021199472
1134,4,T1_SMS_5,41,9999,9999,9999,1021699168
1134,4,T1_SMS_5,42,9999,9999,9999,1022199916
1134,4,T1_SMS_5,43,9999,9999,9999,1022699648
1134,4,T1_SMS_5,44,9999,9999,9999,1023199296
1134,4,T1_SMS_5,45,9999,9999,9999,1023700040
1134,4,T1_SMS_5,46,9999,9999,9999,1024199740
1134,4,T1_SMS_5,47,9999,9999,9999,1024699508
1134,4,T1_SMS_5,48,9999,9999,9999,1025199204
1134,4,T1_SMS_5,49,9999,9999,9999,1025699892
1134,4,T1_SMS_5,50,9999,9999,9999,1026199660
1134,4,T1_SMS_5,51,9999,9999,9999,1026699388
1134,4,T1_SMS_5,52,9999,9999,9999,1027200092
1134,4,T1_SMS_5,53,9999,9999,9999,1027699768
1134,4,T1_SMS_5,54,9999,9999,9999,1028199540
1134,4,T1_SMS_5,55,9999,9999,9999,1028699228
1134,4,T1_SMS_5,56,9999,9999,9999,1029199972
1134,4,T1_SMS_5,57,9999,9999,9999,1029699664
1134,4,T1_SMS_5,58,9999,9999,9999,1030199360
1134,4,T1_SMS_5,59,9999,9999,9999,1030699060
1134,4,T1_SMS_5,60,9999,9999,9999,1031199800
1134,4,T1_SMS_5,61,9999,9999,9999,1031699568
1134,4,T1_SMS_5,62,9999,9999,9999,1032199268
1134,4,T1_SMS_5,63,9999,9999,9999,1032700004
1134,4,T1_SMS_5,64,9999,9999,9999,1033199704
1134,4,T1_SMS_5,65,9999,9999,9999,1033699400
1134,4,T1_SMS_5,66,9999,9999,9999,1034199096
1134,4,T1_SMS_5,67,9999,9999,9999,1034699836
1134,4,T1_SMS_5,68,9999,9999,9999,1035199604
1134,4,T1_SMS_5,69,9999,9999,9999,1035699300
1134,4,T1_SMS_5,70,9999,9999,9999,1036200040
1134,4,T1_SMS_5,71,9999,9999,9999,1036699736
1134,4,T1_SMS_5,72,9999,9999,9999,1037199432
1134,4,T1_SMS_5,73,9999,9999,9999,1037699128
1134,4,T1_SMS_5,74,9999,9999,9999,1038199912
1134,4,T1_SMS_5,75,9999,9999,9999,1038699580
1134,4,T1_SMS_5,76,9999,9999,9999,1039199284
1134,4,T1_SMS_5,77,9999,9999,9999,1039700016
1134,4,T1_SMS_5,78,9999,9999,9999,1040199788
1134,4,T1_SMS_5,79,9999,9999,9999,1040699480
1134,4,T1_SMS_5,80,9999,9999,9999,1041199176
1134,4,T1_SMS_5,81,9999,9999,9999,1041699916
1134,4,T1_SMS_5,82,9999,9999,9999,1042199620
1134,4,T1_SMS_5,83,9999,9999,9999,1042699380
1134,4,T1_SMS_5,84,9999,9999,9999,1043200048
1134,4,T1_SMS_5,85,9999,9999,9999,1043699816
1134,4,T1_SMS_5,86,9999,9999,9999,1044199512
1134,4,T1_SMS_5,87,9999,9999,9999,1044699208
1134,4,T1_SMS_5,88,9999,9999,9999,1045199948
1134,4,T1_SMS_5,89,9999,9999,9999,1045699640
1134,4,T1_SMS_5,90,9999,9999,9999,1046199412
1134,4,T1_SMS_5,91,9999,9999,9999,1046699108
1134,4,T1_SMS_5,92,9999,9999,9999,1047199848
1134,4,T1_SMS_5,93,9999,9999,9999,1047699544
1134,4,T1_SMS_5,94,9999,9999,9999,1048199240
1134,4,T1_SMS_5,95,9999,9999,9999,1048699988
1134,4,T1_SMS_5,96,9999,9999,9999,1049199728
1134,4,T1_SMS_5,97,9999,9999,9999,1049699428
1134,4,T1_SMS_5,98,9999,9999,9999,1050199124
1134,4,T1_SMS_5,99,9999,9999,9999,1050699864
1134,4,T1_SMS_5,100,9999,9999,9999,1051199552
1134,4,T1_SMS_5,101,9999,9999,9999,1051699320
1134,4,T1_SMS_5,102,9999,9999,9999,1052199992
1134,4,T1_SMS_5,103,9999,9999,9999,1052699764
1134,4,T1_SMS_5,104,9999,9999,9999,1053199460
1134,4,T1_SMS_5,105,9999,9999,9999,1053699144
1134,4,T1_SMS_5,106,9999,9999,9999,1054199888
1134,4,T1_SMS_5,107,9999,9999,9999,1054699584
1134,4,T1_SMS_5,108,9999,9999,9999,1055199280
1134,4,T1_SMS_5,109,9999,9999,9999,1055700020
1134,4,T1_SMS_5,110,9999,9999,9999,1056199788
1134,4,T1_SMS_5,111,9999,9999,9999,1056699492
1134,4,T1_SMS_5,112,9999,9999,9999,1057199184
1134,4,T1_SMS_5,113,9999,9999,9999,1057699928
1134,4,T1_SMS_5,114,9999,9999,9999,1058199624
1134,4,T1_SMS_5,115,9999,9999,9999,1058699316
1134,4,T1_SMS_5,116,9999,9999,9999,1059200060
1134,4,T1_SMS_5,117,9999,9999,9999,1059699804
1134,4,T1_SMS_5,118,9999,9999,9999,1060199500
1134,4,T1_SMS_5,119,9999,9999,9999,1060699196
1134,4,T1_SMS_5,120,9999,9999,9999,1061199936
1134,4,T1_SMS_5,121,9999,9999,9999,1061699700
1134,4,T1_SMS_5,122,9999,9999,9999,1062199392
1134,4,T1_SMS_5,123,9999,9999,9999,1062699092
1134,4,T1_SMS_5,124,9999,9999,9999,1063199832
1134,4,T1_SMS_5,125,9999,9999,9999,1063699576
1134,4,T1_SMS_5,126,9999,9999,9999,1064199272
1134,4,T1_SMS_5,127,9999,9999,9999,1064700020
1134,4,T1_SMS_5,128,9999,9999,9999,1065199708
1134,4,T1_SMS_5,129,9999,9999,9999,1065699404
1135,22,Ticks_Phase_8,0,5,42,127,1075973596
1135,22,Ticks_Phase_8,1,5,42,127,1076774376
1135,22,Ticks_Phase_8,2,5,42,127,1077573888
1135,22,Ticks_Phase_8,3,1,48,43,1077628032
1135,22,Ticks_Phase_8,4,5,42,127,1078373824
1135,22,Ticks_Phase_8,5,1,48,40,1078390712
1135,22,Ticks_Phase_8,6,5,42,127,1079173560
1135,22,Ticks_Phase_8,7,1,48,54,1079195400
1135,22,Ticks_Phase_8,8,5,42,127,1079974468
1135,22,Ticks_Phase_8,9,1,48,47,1079981024
1135,22,Ticks_Phase_8,10,5,42,127,1080773956
1135,22,Ticks_Phase_8,11,1,48,51,1080779764
1135,22,Ticks_Phase_8,12,5,42,127,1081573744
1135,22,Ticks_Phase_8,13,1,48,48,1081587496
1135,22,Ticks_Phase_8,14,1,48,51,1082373680
1135,22,Ticks_Phase_8,15,5,42,127,1082375168
1135,22,Ticks_Phase_8,16,1,48,54,1083167660
1135,22,Ticks_Phase_8,17,5,42,127,1083174356
1135,22,Ticks_Phase_8,18,5,42,127,1083973852
1135,22,Ticks_Phase_8,19,1,48,37,1084008724
1135,22,Ticks_Phase_8,20,5,42,127,1084773864
1135,22,Ticks_Phase_8,21,1,48,52,1084785824
1135,22,Ticks_Phase_8,22,5,42,127,1085573524
1135,22,Ticks_Phase_8,23,1,48,54,1085582040
1135,22,Ticks_Phase_8,24,5,42,127,1086374284
1135,22,Ticks_Phase_8,25,1,48,52,1086383848
1135,22,Ticks_Phase_8,26,5,42,127,1087174144
1135,22,Ticks_Phase_8,27,1,48,40,1087188272
1135,22,Ticks_Phase_8,28,1,48,48,1087964240
1135,22,Ticks_Phase_8,29,5,42,127,1087973848
1135,22,Ticks_Phase_8,30,1,48,46,1088767836
1135,22,Ticks_Phase_8,31,5,42,127,1088773412
1135,22,Ticks_Phase_8,32,5,42,127,1089574328
1135,22,Ticks_Phase_8,33,1,48,53,1089577372
1135,22,Ticks_Phase_8,34,5,42,127,1090374112
1135,22,Ticks_Phase_8,35,1,48,35,1090384572
1135,22,Ticks_Phase_8,36,1,48,46,1091153796
1135,22,Ticks_Phase_8,37,5,42,127,1091173668
1135,22,Ticks_Phase_8,38,1,48,48,1091928492
1135,22,Ticks_Phase_8,39,5,42,127,1091973404
1135,22,Ticks_Phase_8,40,1,48,49,1092765752
1135,22,Ticks_Phase_8,41,5,42,127,1092774240
1135,22,Ticks_Phase_8,42,1,48,53,1093565536
1135,22,Ticks_Phase_8,43,5,42,127,1093574100
1135,22,Ticks_Phase_8,44,5,42,127,1094373668
1135,22,Ticks_Phase_8,45,1,48,48,1094382712
1135,22,Ticks_Phase_8,46,1,48,48,1095169224
1135,22,Ticks_Phase_8,47,5,42,127,1095173600
1135,22,Ticks_Phase_8,48,5,42,127,1095974216
1135,22,Ticks_Phase_8,49,1,48,49,1095975776
1135,22,Ticks_Phase_8,50,5,42,127,1096774152
1135,22,Ticks_Phase_8,51,1,48,42,1096788060
1135,22,Ticks_Phase_8,52,1,48,47,1097553388
1135,22,Ticks_Phase_8,53,5,42,127,1097573856
1135,22,Ticks_Phase_8,54,1,48,47,1098337816
1135,22,Ticks_Phase_8,55,5,42,127,1098373520
1135,22,Ticks_Phase_8,56,1,48,57,1099161664
1135,22,Ticks_Phase_8,57,5,42,127,1099174280
1135,22,Ticks_Phase_8,58,5,42,127,1099953480
1135,22,Ticks_Phase_8,59,1,48,54,1099991208
1135,22,Ticks_Phase_8,60,5,42,127,1100754388
1135,22,Ticks_Phase_8,61,1,48,54,1100761784
1135,22,Ticks_Phase_8,62,5,42,127,1101554100
1135,22,Ticks_Phase_8,63,1,48,53,1101562096
1135,22,Ticks_Phase_8,64,5,42,127,1102353964
1135,22,Ticks_Phase_8,65,1,48,49,1102386060
1135,22,Ticks_Phase_8,66,5,42,127,1103153376
1135,22,Ticks_Phase_8,67,1,48,54,1103168848
1135,22,Ticks_Phase_8,68,1,48,62,1103942272
1135,22,Ticks_Phase_8,69,5,42,127,1103954352
1135,22,Ticks_Phase_8,70,5,42,127,1104753996
1135,22,Ticks_Phase_8,71,1,48,51,1104794812
1135,22,Ticks_Phase_8,72,5,42,127,1105554028
1135,22,Ticks_Phase_8,73,1,48,52,1105607324
1135,22,Ticks_Phase_8,74,5,42,127,1106353520
1135,22,Ticks_Phase_8,75,1,48,56,1106398500
1135,22,Ticks_Phase_8,76,5,42,127,1107154352
1135,22,Ticks_Phase_8,77,1,48,49,1107198436
1135,22,Ticks_Phase_8,78,5,42,127,1107953992
1135,22,Ticks_Phase_8,79,1,48,48,1107994708
1135,22,Ticks_Phase_8,80,5,42,127,1108753700
1135,22,Ticks_Phase_8,81,1,48,50,1108797108
1135,22,Ticks_Phase_8,82,5,42,127,1109553488
1135,22,Ticks_Phase_8,83,1,48,53,1109613448
1135,22,Ticks_Phase_8,84,5,42,127,1110354396
1135,22,Ticks_Phase_8,85,1,48,55,1110357592
1135,22,Ticks_Phase_8,86,5,42,127,1111153884
1135,22,Ticks_Phase_8,87,1,48,63,1111154848
1135,22,Ticks_Phase_8,88,1,48,59,1111944000
1135,22,Ticks_Phase_8,89,5,42,127,1111953836
1135,22,Ticks_Phase_8,90,5,42,127,1112753484
1135,22,Ticks_Phase_8,91,1,48,53,1112800928
1135,22,Ticks_Phase_8,92,5,42,127,1113554168
1135,22,Ticks_Phase_8,93,1,48,43,1113563360
1135,22,Ticks_Phase_8,94,1,48,46,1114368444
1135,22,Ticks_Phase_8,95,5,42,127,1114373420
1135,22,Ticks_Phase_8,96,1,48,70,1115163516
1135,22,Ticks_Phase_8,97,5,42,127,1115174180
1135,22,Ticks_Phase_8,98,1,48,59,1115942860
1135,22,Ticks_Phase_8,99,5,42,127,1115974116
1135,22,Ticks_Phase_8,100,1,48,57,1116745944
1135,22,Ticks_Phase_8,101,5,42,127,1116773828
1135,22,Ticks_Phase_8,102,1,48,59,1117559832
1135,22,Ticks_Phase_8,103,5,42,127,1117573640
1135,22,Ticks_Phase_8,104,1,48,63,1118358720
1135,22,Ticks_Phase_8,105,5,42,127,1118374176
1135,22,Ticks_Phase_8,106,1,48,55,1119167496
1135,22,Ticks_Phase_8,107,5,42,127,1119174036
1135,22,Ticks_Phase_8,108,1,48,64,1119933132
1135,22,Ticks_Phase_8,109,5,42,127,1119973600
1135,22,Ticks_Phase_8,110,1,48,57,1120743032
1135,22,Ticks_Phase_8,111,5,42,127,1120773464
1135,22,Ticks_Phase_8,112,1,48,64,1121551732
1135,22,Ticks_Phase_8,113,5,42,127,1121574296
1135,22,Ticks_Phase_8,114,1,48,57,1122358924
1135,22,Ticks_Phase_8,115,5,42,127,1122373860
1135,22,Ticks_Phase_8,116,1,48,68,1123133028
1135,22,Ticks_Phase_8,117,5,42,127,1123173792
1135,22,Ticks_Phase_8,118,1,48,55,1123952588
1135,22,Ticks_Phase_8,119,5,42,127,1123973532
1135,22,Ticks_Phase_8,120,1,48,51,1124772784
1135,22,Ticks_Phase_8,121,5,42,127,1124774216
1135,22,Ticks_Phase_8,122,1,48,56,1125561476
1135,22,Ticks_Phase_8,123,5,42,127,1125574004
1135,22,Ticks_Phase_8,124,1,48,49,1126372284
1135,22,Ticks_Phase_8,125,5,42,127,1126373792
1135,22,Ticks_Phase_8,126,1,48,52,1127191680
1135,22,Ticks_Phase_8,127,5,42,127,1127213716
1135,22,Ticks_Phase_8,128,1,48,53,1128008084
1135,22,Ticks_Phase_8,129,5,42,127,1128014176
1135,22,Ticks_Phase_8,130,5,42,127,1128813972
1135,22,Ticks_Phase_8,131,1,48,54,1128825132
1135,22,Ticks_Phase_8,132,5,42,127,1129613708
1135,22,Ticks_Phase_8,133,1,48,52,1129648204
1135,22,Ticks_Phase_8,134,5,42,127,1130413568
1135,22,Ticks_Phase_8,135,1,48,54,1130443572
1135,22,Ticks_Phase_8,136,5,42,127,1131214252
1135,22,Ticks_Phase_8,137,1,48,61,1131252800
1135,22,Ticks_Phase_8,138,5,42,127,1132014036
1135,22,Ticks_Phase_8,139,1,48,62,1132053180
1135,22,Ticks_Phase_8,140,5,42,127,1132813676
1135,22,Ticks_Phase_8,141,1,48,66,1132855588
1135,22,Ticks_Phase_8,142,5,42,127,1133613536
1135,22,Ticks_Phase_8,143,1,48,65,1133650200
1135,22,Ticks_Phase_8,144,5,42,127,1134414368
1135,22,Ticks_Phase_8,145,1,48,60,1134443400
1135,22,Ticks_Phase_8,146,5,42,127,1135213932
1135,22,Ticks_Phase_8,147,1,48,66,1135224416
1135,22,Ticks_Phase_8,148,5,42,127,1136013668
1135,22,Ticks_Phase_8,149,1,48,67,1136016416
1135,22,Ticks_Phase_8,150,5,42,127,1136813456
1135,22,Ticks_Phase_8,151,1,48,61,1136837844
1135,22,Ticks_Phase_8,152,5,42,127,1137614436
1135,22,Ticks_Phase_8,153,1,48,61,1137620100
1135,22,Ticks_Phase_8,154,5,42,127,1138413924
1135,22,Ticks_Phase_8,155,1,48,60,1138455612
1135,22,Ticks_Phase_8,156,5,42,127,1139213788
1135,22,Ticks_Phase_8,157,1,48,65,1139259444
1135,22,Ticks_Phase_8,158,5,42,127,1140013424
1135,22,Ticks_Phase_8,159,1,48,62,1140038408
1135,22,Ticks_Phase_8,160,5,42,127,1140774420
1135,22,Ticks_Phase_8,161,1,48,62,1140821048
1135,22,Ticks_Phase_8,162,1,48,61,1141572240
1135,22,Ticks_Phase_8,163,5,42,127,1141573976
1135,22,Ticks_Phase_8,164,1,48,58,1142360768
1135,22,Ticks_Phase_8,165,5,42,127,1142373612
1135,22,Ticks_Phase_8,166,5,42,127,1143173432
1135,22,Ticks_Phase_8,167,1,48,63,1143193324
1135,22,Ticks_Phase_8,168,5,42,127,1143974336
1135,22,Ticks_Phase_8,169,1,48,58,1143989512
1135,22,Ticks_Phase_8,170,5,42,127,1144774124
1135,22,Ticks_Phase_8,171,1,48,58,1144791928
1135,22,Ticks_Phase_8,172,5,42,127,1145573612
1135,22,Ticks_Phase_8,173,1,48,57,1145598744
1135,22,Ticks_Phase_8,174,1,48,61,1146366844
1135,22,Ticks_Phase_8,175,5,42,127,1146373616
1135,22,Ticks_Phase_8,176,1,48,62,1147173632
1135,22,Ticks_Phase_8,177,5,42,127,1147175200
1135,22,Ticks_Phase_8,178,5,42,127,1147973944
1135,22,Ticks_Phase_8,179,1,48,63,1147986424
1135,22,Ticks_Phase_8,180,5,42,127,1148773808
1135,22,Ticks_Phase_8,181,1,48,63,1148808776
1135,22,Ticks_Phase_8,182,1,48,59,1149560848
1135,22,Ticks_Phase_8,183,5,42,127,1149573612
1135,22,Ticks_Phase_8,184,1,48,57,1150352104
1135,22,Ticks_Phase_8,185,5,42,127,1150374220
1135,22,Ticks_Phase_8,186,1,48,65,1151170680
1135,22,Ticks_Phase_8,187,5,42,127,1151174156
1135,22,Ticks_Phase_8,188,5,42,127,1151973876
1135,22,Ticks_Phase_8,189,1,48,57,1151993400
1135,22,Ticks_Phase_8,190,5,42,127,1152773516
1135,22,Ticks_Phase_8,191,1,48,61,1152819016
1135,22,Ticks_Phase_8,192,5,42,127,1153494368
1135,22,Ticks_Phase_8,193,1,48,51,1153627040
1135,22,Ticks_Phase_8,194,5,42,127,1154294156
1135,22,Ticks_Phase_8,195,1,48,70,1155003468
1135,22,Ticks_Phase_8,196,5,42,127,1155094104
1135,22,Ticks_Phase_8,197,1,48,67,1155819492
1135,22,Ticks_Phase_8,198,5,42,127,1155893520
1135,22,Ticks_Phase_8,199,1,48,61,1156665264
1135,22,Ticks_Phase_8,200,5,42,127,1156694352
1135,22,Ticks_Phase_8,201,5,42,127,1157494096
1135,22,Ticks_Phase_8,202,1,48,62,1157502460
1135,22,Ticks_Phase_8,203,5,42,127,1158293808
1135,22,Ticks_Phase_8,204,1,48,61,1158333924
1135,22,Ticks_Phase_8,205,5,42,127,1159093592
1135,22,Ticks_Phase_8,206,1,48,58,1159128092
1135,22,Ticks_Phase_8,207,5,42,127,1159894276
1135,22,Ticks_Phase_8,208,1,48,51,1159905784
1135,22,Ticks_Phase_8,209,5,42,127,1160694064
1135,22,Ticks_Phase_8,210,1,48,54,1160722580
1135,22,Ticks_Phase_8,211,5,42,127,1161493924
1135,22,Ticks_Phase_8,212,1,48,52,1161520028
1135,22,Ticks_Phase_8,213,1,48,56,1162294084
1135,22,Ticks_Phase_8,214,5,42,127,1162295196
1135,22,Ticks_Phase_8,215,1,48,51,1163081472
1135,22,Ticks_Phase_8,216,5,42,127,1163094388
1135,22,Ticks_Phase_8,217,1,48,62,1163886356
1135,22,Ticks_Phase_8,218,5,42,127,1163894128
1135,22,Ticks_Phase_8,219,5,42,127,1164693992
1135,22,Ticks_Phase_8,220,1,48,70,1164700928
1135,22,Ticks_Phase_8,221,5,42,127,1165493480
1135,22,Ticks_Phase_8,222,1,48,60,1165513080
1135,22,Ticks_Phase_8,223,5,42,127,1166294316
1135,22,Ticks_Phase_8,224,1,48,54,1166318628
1135,22,Ticks_Phase_8,225,1,48,61,1167122604
1135,22,Ticks_Phase_8,226,5,42,127,1167174072
1135,22,Ticks_Phase_8,227,1,48,56,1167938108
1135,22,Ticks_Phase_8,228,5,42,127,1167974008
1135,22,Ticks_Phase_8,229,5,42,127,1168773380
1135,22,Ticks_Phase_8,230,1,48,71,1168789752
1135,22,Ticks_Phase_8,231,5,42,127,1169574212
1135,22,Ticks_Phase_8,232,1,48,62,1169592016
1135,22,Ticks_Phase_8,233,5,42,127,1170373928
1135,22,Ticks_Phase_8,234,1,48,59,1170380260
1135,22,Ticks_Phase_8,235,5,42,127,1171173936
1135,22,Ticks_Phase_8,236,1,48,57,1171208056
1135,22,Ticks_Phase_8,237,1,48,64,1171971304
1135,22,Ticks_Phase_8,238,5,42,127,1171973420
1135,22,Ticks_Phase_8,239,1,48,59,1172769804
1135,22,Ticks_Phase_8,240,5,42,127,1172774252
1135,22,Ticks_Phase_8,241,5,42,127,1173573968
1135,22,Ticks_Phase_8,242,1,48,59,1173587720
1135,22,Ticks_Phase_8,243,5,42,127,1174373828
1135,22,Ticks_Phase_8,244,1,48,46,1174410372
1135,22,Ticks_Phase_8,245,5,42,127,1175173344
1135,22,Ticks_Phase_8,246,1,48,62,1175179000
1135,22,Ticks_Phase_8,247,5,42,127,1175974176
1135,22,Ticks_Phase_8,248,1,48,63,1175982692
1135,22,Ticks_Phase_8,249,5,42,127,1176774036
1135,22,Ticks_Phase_8,250,1,48,53,1176788244
1135,22,Ticks_Phase_8,251,5,42,127,1177573824
1135,22,Ticks_Phase_8,252,1,48,66,1177602712
1135,22,Ticks_Phase_8,253,1,48,62,1178369308
1135,22,Ticks_Phase_8,254,5,42,127,1178373680
1135,22,Ticks_Phase_8,255,1,48,62,1179168268
1135,22,Ticks_Phase_8,256,5,42,127,1179174288
1135,22,Ticks_Phase_8,257,5,42,127,1179973860
1135,22,Ticks_Phase_8,258,1,48,58,1179982228
1135,22,Ticks_Phase_8,259,1,48,54,1180768664
1135,22,Ticks_Phase_8,260,5,42,127,1180933684
1135,22,Ticks_Phase_8,261,1,48,57,1181602556
1135,22,Ticks_Phase_8,262,5,42,127,1181734292
1135,22,Ticks_Phase_8,263,5,42,127,1182534100
1135,22,Ticks_Phase_8,264,1,48,72,1182589660
1135,22,Ticks_Phase_8,265,5,42,127,1183333812
1135,22,Ticks_Phase_8,266,1,48,72,1183359940
1135,22,Ticks_Phase_8,267,5,42,127,1184133772
1135,22,Ticks_Phase_8,268,1,48,64,1184160780
1135,22,Ticks_Phase_8,269,5,42,127,1184934456
1135,22,Ticks_Phase_8,270,1,48,60,1184971888
1135,22,Ticks_Phase_8,271,5,42,127,1185733872
1135,22,Ticks_Phase_8,272,1,48,53,1185804692
1135,22,Ticks_Phase_8,273,5,42,127,1186533732
1135,22,Ticks_Phase_8,274,1,48,62,1186569124
1135,22,Ticks_Phase_8,275,5,42,127,1187333596
1135,22,Ticks_Phase_8,276,1,48,61,1187359180
1135,22,Ticks_Phase_8,277,1,48,54,1188128696
1135,22,Ticks_Phase_8,278,5,42,127,1188134348
1135,22,Ticks_Phase_8,279,5,42,127,1188934064
1135,22,Ticks_Phase_8,280,1,48,52,1188946248
1135,22,Ticks_Phase_8,281,5,42,127,1189733704
1135,22,Ticks_Phase_8,282,1,48,59,1189770396
1135,22,Ticks_Phase_8,283,5,42,127,1190533588
1135,22,Ticks_Phase_8,284,1,48,59,1190556856
1135,22,Ticks_Phase_8,285,5,42,127,1191334272
1135,22,Ticks_Phase_8,286,1,48,49,1191352972
1135,22,Ticks_Phase_8,287,5,42,127,1192134208
1135,22,Ticks_Phase_8,288,1,48,51,1192152612
1135,22,Ticks_Phase_8,289,5,42,127,1192933772
1135,22,Ticks_Phase_8,290,1,48,62,1192963332
1135,22,Ticks_Phase_8,291,1,48,53,1193716596
1135,22,Ticks_Phase_8,292,5,42,127,1193733552
1135,22,Ticks_Phase_8,293,5,42,127,1194534468
1135,22,Ticks_Phase_8,294,1,48,55,1194545824
1135,22,Ticks_Phase_8,295,5,42,127,1195334032
1135,22,Ticks_Phase_8,296,1,48,55,1195344944
1135,22,Ticks_Phase_8,297,5,42,127,1195974160
1135,22,Ticks_Phase_8,298,1,48,55,1196155460
1135,22,Ticks_Phase_8,299,5,42,127,1196773872
1135,22,Ticks_Phase_8,300,1,48,43,1196973968
1135,22,Ticks_Phase_8,301,1,48,62,1197488992
1135,22,Ticks_Phase_8,302,5,42,127,1197573648
1135,22,Ticks_Phase_8,303,1,48,55,1198319408
1135,22,Ticks_Phase_8,304,5,42,127,1198374332
1135,22,Ticks_Phase_8,305,1,48,61,1199169292
1135,22,Ticks_Phase_8,306,5,42,127,1199173972
1135,22,Ticks_Phase_8,307,1,48,65,1199973088
1135,22,Ticks_Phase_8,308,5,42,127,1199974656
1135,22,Ticks_Phase_8,309,1,48,63,1200763880
1135,22,Ticks_Phase_8,310,5,42,127,1200773496
1135,22,Ticks_Phase_8,311,1,48,64,1201569428
1135,22,Ticks_Phase_8,312,5,42,127,1201574400
1135,22,Ticks_Phase_8,313,1,48,65,1202367196
1135,22,Ticks_Phase_8,314,5,42,127,1202373968
1135,22,Ticks_Phase_8,315,1,48,74,1203149832
1135,22,Ticks_Phase_8,316,5,42,127,1203173752
1135,22,Ticks_Phase_8,317,1,48,59,1203953516
1135,22,Ticks_Phase_8,318,5,42,127,1203973616
1135,22,Ticks_Phase_8,319,1,48,62,1204767008
1135,22,Ticks_Phase_8,320,5,42,127,1204774224
1135,22,Ticks_Phase_8,321,1,48,63,1205555412
1135,22,Ticks_Phase_8,322,5,42,127,1205574160
1135,22,Ticks_Phase_8,323,1,48,58,1206341560
1135,22,Ticks_Phase_8,324,5,42,127,1206373800
1135,22,Ticks_Phase_8,325,1,48,61,1207128020
1135,22,Ticks_Phase_8,326,5,42,127,1207173612
1135,22,Ticks_Phase_8,327,1,48,53,1207964684
1135,22,Ticks_Phase_8,328,5,42,127,1207974220
1135,22,Ticks_Phase_8,329,1,48,53,1208773488
1135,22,Ticks_Phase_8,330,5,42,127,1208774832
1135,22,Ticks_Phase_8,331,5,42,127,1209573876
1135,22,Ticks_Phase_8,332,1,48,56,1209598188
1135,22,Ticks_Phase_8,333,5,42,127,1210373440
1135,22,Ticks_Phase_8,334,1,48,56,1210417300
1135,22,Ticks_Phase_8,335,5,42,127,1211174200
1135,22,Ticks_Phase_8,0,9999,9999,9999,1075971164
1135,22,Ticks_Phase_8,1,9999,9999,9999,1076771944
1135,22,Ticks_Phase_8,2,9999,9999,9999,1077571676
1135,22,Ticks_Phase_8,3,9999,9999,9999,1078371388
1135,22,Ticks_Phase_8,4,9999,9999,9999,1079171196
1135,22,Ticks_Phase_8,5,9999,9999,9999,1079971956
1135,22,Ticks_Phase_8,6,9999,9999,9999,1080771672
1135,22,Ticks_Phase_8,7,9999,9999,9999,1081571384
1135,22,Ticks_Phase_8,8,9999,9999,9999,1082371168
1135,22,Ticks_Phase_8,9,9999,9999,9999,1083171924
1135,22,Ticks_Phase_8,10,9999,9999,9999,1083971640
1135,22,Ticks_Phase_8,11,9999,9999,9999,1084771428
1135,22,Ticks_Phase_8,12,9999,9999,9999,1085571164
1135,22,Ticks_Phase_8,13,9999,9999,9999,1086371924
1135,22,Ticks_Phase_8,14,9999,9999,9999,1087171708
1135,22,Ticks_Phase_8,15,9999,9999,9999,1087971416
1135,22,Ticks_Phase_8,16,9999,9999,9999,1088771128
1135,22,Ticks_Phase_8,17,9999,9999,9999,1089571968
1135,22,Ticks_Phase_8,18,9999,9999,9999,1090371680
1135,22,Ticks_Phase_8,19,9999,9999,9999,1091171384
1135,22,Ticks_Phase_8,20,9999,9999,9999,1091971192
1135,22,Ticks_Phase_8,21,9999,9999,9999,1092771952
1135,22,Ticks_Phase_8,22,9999,9999,9999,1093571664
1135,22,Ticks_Phase_8,23,9999,9999,9999,1094371384
1135,22,Ticks_Phase_8,24,9999,9999,9999,1095171164
1135,22,Ticks_Phase_8,25,9999,9999,9999,1095971932
1135,22,Ticks_Phase_8,26,9999,9999,9999,1096771644
1135,22,Ticks_Phase_8,27,9999,9999,9999,1097571420
1135,22,Ticks_Phase_8,28,9999,9999,9999,1098371160
1135,22,Ticks_Phase_8,29,9999,9999,9999,1099171916
1135,22,Ticks_Phase_8,30,9999,9999,9999,1099951192
1135,22,Ticks_Phase_8,31,9999,9999,9999,1100751952
1135,22,Ticks_Phase_8,32,9999,9999,9999,1101551740
1135,22,Ticks_Phase_8,33,9999,9999,9999,1102351452
1135,22,Ticks_Phase_8,34,9999,9999,9999,1103151164
1135,22,Ticks_Phase_8,35,9999,9999,9999,1103951992
1135,22,Ticks_Phase_8,36,9999,9999,9999,1104751708
1135,22,Ticks_Phase_8,37,9999,9999,9999,1105551448
1135,22,Ticks_Phase_8,38,9999,9999,9999,1106351160
1135,22,Ticks_Phase_8,39,9999,9999,9999,1107151992
1135,22,Ticks_Phase_8,40,9999,9999,9999,1107951704
1135,22,Ticks_Phase_8,41,9999,9999,9999,1108751416
1135,22,Ticks_Phase_8,42,9999,9999,9999,1109551200
1135,22,Ticks_Phase_8,43,9999,9999,9999,1110351960
1135,22,Ticks_Phase_8,44,9999,9999,9999,1111151672
1135,22,Ticks_Phase_8,45,9999,9999,9999,1111951476
1135,22,Ticks_Phase_8,46,9999,9999,9999,1112751196
1135,22,Ticks_Phase_8,47,9999,9999,9999,1113551952
1135,22,Ticks_Phase_8,48,9999,9999,9999,1114371132
1135,22,Ticks_Phase_8,49,9999,9999,9999,1115171892
1135,22,Ticks_Phase_8,50,9999,9999,9999,1115971680
1135,22,Ticks_Phase_8,51,9999,9999,9999,1116771396
1135,22,Ticks_Phase_8,52,9999,9999,9999,1117571132
1135,22,Ticks_Phase_8,53,9999,9999,9999,1118371964
1135,22,Ticks_Phase_8,54,9999,9999,9999,1119171676
1135,22,Ticks_Phase_8,55,9999,9999,9999,1119971388
1135,22,Ticks_Phase_8,56,9999,9999,9999,1120771176
1135,22,Ticks_Phase_8,57,9999,9999,9999,1121571936
1135,22,Ticks_Phase_8,58,9999,9999,9999,1122371648
1135,22,Ticks_Phase_8,59,9999,9999,9999,1123171432
1135,22,Ticks_Phase_8,60,9999,9999,9999,1123971172
1135,22,Ticks_Phase_8,61,9999,9999,9999,1124771936
1135,22,Ticks_Phase_8,62,9999,9999,9999,1125571640
1135,22,Ticks_Phase_8,63,9999,9999,9999,1126371436
1135,22,Ticks_Phase_8,64,9999,9999,9999,1127211132
1135,22,Ticks_Phase_8,65,9999,9999,9999,1128011892
1135,22,Ticks_Phase_8,66,9999,9999,9999,1128811612
1135,22,Ticks_Phase_8,67,9999,9999,9999,1129611344
1135,22,Ticks_Phase_8,68,9999,9999,9999,1130411132
1135,22,Ticks_Phase_8,69,9999,9999,9999,1131211892
1135,22,Ticks_Phase_8,70,9999,9999,9999,1132011604
1135,22,Ticks_Phase_8,71,9999,9999,9999,1132811388
1135,22,Ticks_Phase_8,72,9999,9999,9999,1133611100
1135,22,Ticks_Phase_8,73,9999,9999,9999,1134411856
1135,22,Ticks_Phase_8,74,9999,9999,9999,1135211644
1135,22,Ticks_Phase_8,75,9999,9999,9999,1136011380
1135,22,Ticks_Phase_8,76,9999,9999,9999,1136811092
1135,22,Ticks_Phase_8,77,9999,9999,9999,1137611852
1135,22,Ticks_Phase_8,78,9999,9999,9999,1138411640
1135,22,Ticks_Phase_8,79,9999,9999,9999,1139211352
1135,22,Ticks_Phase_8,80,9999,9999,9999,1140011064
1135,22,Ticks_Phase_8,81,9999,9999,9999,1140771908
1135,22,Ticks_Phase_8,82,9999,9999,9999,1141571712
1135,22,Ticks_Phase_8,83,9999,9999,9999,1142371400
1135,22,Ticks_Phase_8,84,9999,9999,9999,1143171144
1135,22,Ticks_Phase_8,85,9999,9999,9999,1143971904
1135,22,Ticks_Phase_8,86,9999,9999,9999,1144771688
1135,22,Ticks_Phase_8,87,9999,9999,9999,1145571400
1135,22,Ticks_Phase_8,88,9999,9999,9999,1146371184
1135,22,Ticks_Phase_8,89,9999,9999,9999,1147171944
1135,22,Ticks_Phase_8,90,9999,9999,9999,1147971660
1135,22,Ticks_Phase_8,91,9999,9999,9999,1148771448
1135,22,Ticks_Phase_8,92,9999,9999,9999,1149571176
1135,22,Ticks_Phase_8,93,9999,9999,9999,1150371936
1135,22,Ticks_Phase_8,94,9999,9999,9999,1151171648
1135,22,Ticks_Phase_8,95,9999,9999,9999,1151971440
1135,22,Ticks_Phase_8,96,9999,9999,9999,1152771152
1135,22,Ticks_Phase_8,97,9999,9999,9999,1153492080
1135,22,Ticks_Phase_8,98,9999,9999,9999,1154291792
1135,22,Ticks_Phase_8,99,9999,9999,9999,1155091520
1135,22,Ticks_Phase_8,100,9999,9999,9999,1155891308
1135,22,Ticks_Phase_8,101,9999,9999,9999,1156692064
1135,22,Ticks_Phase_8,102,9999,9999,9999,1157491808
1135,22,Ticks_Phase_8,103,9999,9999,9999,1158291520
1135,22,Ticks_Phase_8,104,9999,9999,9999,1159091304
1135,22,Ticks_Phase_8,105,9999,9999,9999,1159892064
1135,22,Ticks_Phase_8,106,9999,9999,9999,1160691776
1135,22,Ticks_Phase_8,107,9999,9999,9999,1161491564
1135,22,Ticks_Phase_8,108,9999,9999,9999,1162291276
1135,22,Ticks_Phase_8,109,9999,9999,9999,1163092028
1135,22,Ticks_Phase_8,110,9999,9999,9999,1163891840
1135,22,Ticks_Phase_8,111,9999,9999,9999,1164691556
1135,22,Ticks_Phase_8,112,9999,9999,9999,1165491268
1135,22,Ticks_Phase_8,113,9999,9999,9999,1166292028
1135,22,Ticks_Phase_8,114,9999,9999,9999,1167171636
1135,22,Ticks_Phase_8,115,9999,9999,9999,1167971424
1135,22,Ticks_Phase_8,116,9999,9999,9999,1168771168
1135,22,Ticks_Phase_8,117,9999,9999,9999,1169571928
1135,22,Ticks_Phase_8,118,9999,9999,9999,1170371640
1135,22,Ticks_Phase_8,119,9999,9999,9999,1171171424
1135,22,Ticks_Phase_8,120,9999,9999,9999,1171971176
1135,22,Ticks_Phase_8,121,9999,9999,9999,1172771964
1135,22,Ticks_Phase_8,122,9999,9999,9999,1173571684
1135,22,Ticks_Phase_8,123,9999,9999,9999,1174371392
1135,22,Ticks_Phase_8,124,9999,9999,9999,1175171128
1135,22,Ticks_Phase_8,125,9999,9999,9999,1175971964
1135,22,Ticks_Phase_8,126,9999,9999,9999,1176771676
1135,22,Ticks_Phase_8,127,9999,9999,9999,1177571392
1135,22,Ticks_Phase_8,128,9999,9999,9999,1178371172
1135,22,Ticks_Phase_8,129,9999,9999,9999,1179171928
1135,22,Ticks_Phase_8,130,9999,9999,9999,1179971648
1135,22,Ticks_Phase_8,131,9999,9999,9999,1180931172
1135,22,Ticks_Phase_8,132,9999,9999,9999,1181731932
1135,22,Ticks_Phase_8,133,9999,9999,9999,1182531664
1135,22,Ticks_Phase_8,134,9999,9999,9999,1183331452
1135,22,Ticks_Phase_8,135,9999,9999,9999,1184131188
1135,22,Ticks_Phase_8,136,9999,9999,9999,1184931948
1135,22,Ticks_Phase_8,137,9999,9999,9999,1185731660
1135,22,Ticks_Phase_8,138,9999,9999,9999,1186531448
1135,22,Ticks_Phase_8,139,9999,9999,9999,1187331160
1135,22,Ticks_Phase_8,140,9999,9999,9999,1188131912
1135,22,Ticks_Phase_8,141,9999,9999,9999,1188931704
1135,22,Ticks_Phase_8,142,9999,9999,9999,1189731416
1135,22,Ticks_Phase_8,143,9999,9999,9999,1190531152
1135,22,Ticks_Phase_8,144,9999,9999,9999,1191331912
1135,22,Ticks_Phase_8,145,9999,9999,9999,1192131700
1135,22,Ticks_Phase_8,146,9999,9999,9999,1192931412
1135,22,Ticks_Phase_8,147,9999,9999,9999,1193731192
1135,22,Ticks_Phase_8,148,9999,9999,9999,1194531956
1135,22,Ticks_Phase_8,149,9999,9999,9999,1195331668
1135,22,Ticks_Phase_8,150,9999,9999,9999,1195971648
1135,22,Ticks_Phase_8,151,9999,9999,9999,1196771436
1135,22,Ticks_Phase_8,152,9999,9999,9999,1197571140
1135,22,Ticks_Phase_8,153,9999,9999,9999,1198371900
1135,22,Ticks_Phase_8,154,9999,9999,9999,1199171684
1135,22,Ticks_Phase_8,155,9999,9999,9999,1199971404
1135,22,Ticks_Phase_8,156,9999,9999,9999,1200771132
1135,22,Ticks_Phase_8,157,9999,9999,9999,1201571968
1135,22,Ticks_Phase_8,158,9999,9999,9999,1202371680
1135,22,Ticks_Phase_8,159,9999,9999,9999,1203171392
1135,22,Ticks_Phase_8,160,9999,9999,9999,1203971180
1135,22,Ticks_Phase_8,161,9999,9999,9999,1204771940
1135,22,Ticks_Phase_8,162,9999,9999,9999,1205571652
1135,22,Ticks_Phase_8,163,9999,9999,9999,1206371440
1135,22,Ticks_Phase_8,164,9999,9999,9999,1207171176
1135,22,Ticks_Phase_8,165,9999,9999,9999,1207971932
1135,22,Ticks_Phase_8,166,9999,9999,9999,1208771652
1135,22,Ticks_Phase_8,167,9999,9999,9999,1209571440
1135,22,Ticks_Phase_8,168,9999,9999,9999,1210371152
1135,22,Ticks_Phase_8,169,9999,9999,9999,1211171912
1136,23,Ticks_Phase_5,0,5,42,127,1221557732
1136,23,Ticks_Phase_5,1,5,42,127,1222058268
1136,23,Ticks_Phase_5,2,5,42,127,1222558128
1136,23,Ticks_Phase_5,3,5,42,127,1223058136
1136,23,Ticks_Phase_5,4,5,42,127,1223557548
1136,23,Ticks_Phase_5,5,1,48,61,1223558664
1136,23,Ticks_Phase_5,6,5,42,127,1224058132
1136,23,Ticks_Phase_5,7,1,48,52,1224079076
1136,23,Ticks_Phase_5,8,5,42,127,1224558096
1136,23,Ticks_Phase_5,9,1,48,55,1224570824
1136,23,Ticks_Phase_5,10,5,42,127,1225057560
1136,23,Ticks_Phase_5,11,1,48,59,1225059048
1136,23,Ticks_Phase_5,12,5,42,127,1225558296
1136,23,Ticks_Phase_5,13,1,48,56,1225596116
1136,23,Ticks_Phase_5,14,5,42,127,1226058132
1136,23,Ticks_Phase_5,15,1,48,51,1226082444
1136,23,Ticks_Phase_5,16,5,42,127,1226557968
1136,23,Ticks_Phase_5,17,1,48,51,1226588796
1136,23,Ticks_Phase_5,18,5,42,127,1227057508
1136,23,Ticks_Phase_5,19,1,48,52,1227078524
1136,23,Ticks_Phase_5,20,5,42,127,1227558392
1136,23,Ticks_Phase_5,21,1,48,56,1227583896
1136,23,Ticks_Phase_5,22,5,42,127,1228058076
1136,23,Ticks_Phase_5,23,1,48,56,1228081192
1136,23,Ticks_Phase_5,24,5,42,127,1228557916
1136,23,Ticks_Phase_5,25,1,48,55,1228600200
1136,23,Ticks_Phase_5,26,5,42,127,1229058352
1136,23,Ticks_Phase_5,27,1,48,52,1229089108
1136,23,Ticks_Phase_5,28,5,42,127,1229568300
1136,23,Ticks_Phase_5,29,1,48,55,1229579508
1136,23,Ticks_Phase_5,30,5,42,127,1230068064
1136,23,Ticks_Phase_5,31,1,48,54,1230106308
1136,23,Ticks_Phase_5,32,5,42,127,1230567972
1136,23,Ticks_Phase_5,33,1,48,56,1230604860
1136,23,Ticks_Phase_5,34,5,42,127,1231067588
1136,23,Ticks_Phase_5,35,1,48,54,1231107480
1136,23,Ticks_Phase_5,36,5,42,127,1231568172
1136,23,Ticks_Phase_5,37,1,48,61,1231583568
1136,23,Ticks_Phase_5,38,5,42,127,1232068084
1136,23,Ticks_Phase_5,39,1,48,58,1232091200
1136,23,Ticks_Phase_5,40,5,42,127,1232567848
1136,23,Ticks_Phase_5,41,1,48,64,1232588344
1136,23,Ticks_Phase_5,42,5,42,127,1233068284
1136,23,Ticks_Phase_5,43,1,48,62,1233091996
1136,23,Ticks_Phase_5,44,5,42,127,1233568048
1136,23,Ticks_Phase_5,45,1,48,67,1233579184
1136,23,Ticks_Phase_5,46,5,42,127,1234067960
1136,23,Ticks_Phase_5,47,1,48,64,1234101780
1136,23,Ticks_Phase_5,48,5,42,127,1234567496
1136,23,Ticks_Phase_5,49,1,48,59,1234590160
1136,23,Ticks_Phase_5,50,5,42,127,1235068380
1136,23,Ticks_Phase_5,51,1,48,60,1235079812
1136,23,Ticks_Phase_5,52,5,42,127,1235567972
1136,23,Ticks_Phase_5,53,1,48,58,1235593404
1136,23,Ticks_Phase_5,54,5,42,127,1236067784
1136,23,Ticks_Phase_5,55,1,48,65,1236075012
1136,23,Ticks_Phase_5,56,5,42,127,1236558184
1136,23,Ticks_Phase_5,57,1,48,54,1236593756
1136,23,Ticks_Phase_5,58,5,42,127,1237057948
1136,23,Ticks_Phase_5,59,1,48,54,1237088336
1136,23,Ticks_Phase_5,60,5,42,127,1237557712
1136,23,Ticks_Phase_5,61,1,48,57,1237566076
1136,23,Ticks_Phase_5,62,5,42,127,1238058376
1136,23,Ticks_Phase_5,63,1,48,62,1238073320
1136,23,Ticks_Phase_5,64,5,42,127,1238558136
1136,23,Ticks_Phase_5,65,1,48,64,1238565588
1136,23,Ticks_Phase_5,66,5,42,127,1239057676
1136,23,Ticks_Phase_5,67,1,48,66,1239083480
1136,23,Ticks_Phase_5,68,5,42,127,1239557584
1136,23,Ticks_Phase_5,69,1,48,60,1239585556
1136,23,Ticks_Phase_5,70,5,42,127,1240058172
1136,23,Ticks_Phase_5,71,1,48,71,1240080384
1136,23,Ticks_Phase_5,72,5,42,127,1240558084
1136,23,Ticks_Phase_5,73,1,48,61,1240593700
1136,23,Ticks_Phase_5,74,5,42,127,1241057696
1136,23,Ticks_Phase_5,75,1,48,66,1241082904
1136,23,Ticks_Phase_5,76,5,42,127,1241558356
1136,23,Ticks_Phase_5,77,1,48,56,1241566648
1136,23,Ticks_Phase_5,78,5,42,127,1242058044
1136,23,Ticks_Phase_5,79,1,48,71,1242073588
1136,23,Ticks_Phase_5,80,5,42,127,1242557880
1136,23,Ticks_Phase_5,81,1,48,55,1242589236
1136,23,Ticks_Phase_5,82,5,42,127,1243057644
1136,23,Ticks_Phase_5,83,1,48,68,1243069824
1136,23,Ticks_Phase_5,84,5,42,127,1243558232
1136,23,Ticks_Phase_5,85,1,48,61,1243560980
1136,23,Ticks_Phase_5,86,5,42,127,1244057996
1136,23,Ticks_Phase_5,87,1,48,53,1244066064
1136,23,Ticks_Phase_5,88,5,42,127,1244557684
1136,23,Ticks_Phase_5,89,1,48,57,1244580424
1136,23,Ticks_Phase_5,90,5,42,127,1245058644
1136,23,Ticks_Phase_5,91,1,48,51,1245078392
1136,23,Ticks_Phase_5,92,1,48,61,1245563984
1136,23,Ticks_Phase_5,93,5,42,127,1245577648
1136,23,Ticks_Phase_5,94,1,48,51,1246074676
1136,23,Ticks_Phase_5,95,5,42,127,1246078460
1136,23,Ticks_Phase_5,96,1,48,57,1246555016
1136,23,Ticks_Phase_5,97,5,42,127,1246577996
1136,23,Ticks_Phase_5,98,1,48,61,1247077364
1136,23,Ticks_Phase_5,99,5,42,127,1247078780
1136,23,Ticks_Phase_5,100,5,42,127,1247577504
1136,23,Ticks_Phase_5,101,1,48,58,1247599896
1136,23,Ticks_Phase_5,102,5,42,127,1248078240
1136,23,Ticks_Phase_5,103,1,48,53,1248097616
1136,23,Ticks_Phase_5,104,5,42,127,1248577852
1136,23,Ticks_Phase_5,105,1,48,55,1248585232
1136,23,Ticks_Phase_5,106,5,42,127,1249077764
1136,23,Ticks_Phase_5,107,1,48,51,1249086660
1136,23,Ticks_Phase_5,108,5,42,127,1249578500
1136,23,Ticks_Phase_5,109,1,48,54,1249585208
1136,23,Ticks_Phase_5,110,5,42,127,1250078040
1136,23,Ticks_Phase_5,111,1,48,51,1250083400
1136,23,Ticks_Phase_5,112,5,42,127,1250577728
1136,23,Ticks_Phase_5,113,1,48,54,1250585796
1136,23,Ticks_Phase_5,114,5,42,127,1251077564
1136,23,Ticks_Phase_5,115,1,48,47,1251093036
1136,23,Ticks_Phase_5,116,5,42,127,1251578372
1136,23,Ticks_Phase_5,117,1,48,56,1251581940
1136,23,Ticks_Phase_5,118,5,42,127,1252077988
1136,23,Ticks_Phase_5,119,1,48,52,1252085440
1136,23,Ticks_Phase_5,120,5,42,127,1252577604
1136,23,Ticks_Phase_5,121,1,48,57,1252581168
1136,23,Ticks_Phase_5,122,5,42,127,1253078712
1136,23,Ticks_Phase_5,123,1,48,56,1253087976
1136,23,Ticks_Phase_5,124,1,48,59,1253582776
1136,23,Ticks_Phase_5,125,5,42,127,1253597640
1136,23,Ticks_Phase_5,126,1,48,58,1254098532
1136,23,Ticks_Phase_5,127,5,42,127,1254099868
1136,23,Ticks_Phase_5,128,5,42,127,1254597996
1136,23,Ticks_Phase_5,129,1,48,59,1254599784
1136,23,Ticks_Phase_5,130,5,42,127,1255097684
1136,23,Ticks_Phase_5,131,1,48,54,1255124536
1136,23,Ticks_Phase_5,132,5,42,127,1255597596
1136,23,Ticks_Phase_5,133,1,48,51,1255615540
1136,23,Ticks_Phase_5,134,5,42,127,1256098256
1136,23,Ticks_Phase_5,135,1,48,53,1256112456
1136,23,Ticks_Phase_5,136,5,42,127,1256597796
1136,23,Ticks_Phase_5,137,1,48,47,1256616048
1136,23,Ticks_Phase_5,138,5,42,127,1257097484
1136,23,Ticks_Phase_5,139,1,48,51,1257112732
1136,23,Ticks_Phase_5,140,5,42,127,1257598444
1136,23,Ticks_Phase_5,141,1,48,57,1257617964
1136,23,Ticks_Phase_5,142,5,42,127,1258097908
1136,23,Ticks_Phase_5,143,1,48,58,1258119524
1136,23,Ticks_Phase_5,144,5,42,127,1258597720
1136,23,Ticks_Phase_5,145,1,48,55,1258630740
1136,23,Ticks_Phase_5,146,5,42,127,1259097408
1136,23,Ticks_Phase_5,147,1,48,63,1259121588
1136,23,Ticks_Phase_5,148,5,42,127,1259598292
1136,23,Ticks_Phase_5,149,1,48,45,1259621256
1136,23,Ticks_Phase_5,150,5,42,127,1260097756
1136,23,Ticks_Phase_5,151,1,48,54,1260114720
1136,23,Ticks_Phase_5,152,5,42,127,1260597596
1136,23,Ticks_Phase_5,153,1,48,54,1260617868
1136,23,Ticks_Phase_5,154,5,42,127,1261098404
1136,23,Ticks_Phase_5,155,1,48,55,1261108344
1136,23,Ticks_Phase_5,156,5,42,127,1261597944
1136,23,Ticks_Phase_5,157,1,48,52,1261635056
1136,23,Ticks_Phase_5,158,5,42,127,1262078532
1136,23,Ticks_Phase_5,159,1,48,52,1262110864
1136,23,Ticks_Phase_5,160,5,42,127,1262578368
1136,23,Ticks_Phase_5,161,1,48,46,1262605536
1136,23,Ticks_Phase_5,162,5,42,127,1263077688
1136,23,Ticks_Phase_5,163,1,48,50,1263111360
1136,23,Ticks_Phase_5,164,5,42,127,1263577452
1136,23,Ticks_Phase_5,165,1,48,52,1263612168
1136,23,Ticks_Phase_5,166,5,42,127,1264078480
1136,23,Ticks_Phase_5,167,1,48,51,1264108412
1136,23,Ticks_Phase_5,168,5,42,127,1264577872
1136,23,Ticks_Phase_5,169,1,48,47,1264602556
1136,23,Ticks_Phase_5,170,5,42,127,1265077636
1136,23,Ticks_Phase_5,171,1,48,50,1265092580
1136,23,Ticks_Phase_5,172,5,42,127,1265578444
1136,23,Ticks_Phase_5,173,1,48,50,1265592496
1136,23,Ticks_Phase_5,174,5,42,127,1266078284
1136,23,Ticks_Phase_5,175,1,48,40,1266090388
1136,23,Ticks_Phase_5,176,5,42,127,1266577824
1136,23,Ticks_Phase_5,177,1,48,43,1266592172
1136,23,Ticks_Phase_5,178,5,42,127,1267077660
1136,23,Ticks_Phase_5,179,1,48,43,1267090360
1136,23,Ticks_Phase_5,180,5,42,127,1267578320
1136,23,Ticks_Phase_5,181,1,48,46,1267591096
1136,23,Ticks_Phase_5,182,5,42,127,1268078060
1136,23,Ticks_Phase_5,183,1,48,39,1268110536
1136,23,Ticks_Phase_5,184,5,42,127,1268577576
1136,23,Ticks_Phase_5,185,1,48,48,1268603256
1136,23,Ticks_Phase_5,186,5,42,127,1269078532
1136,23,Ticks_Phase_5,187,1,48,45,1269110508
1136,23,Ticks_Phase_5,188,5,42,127,1269578072
1136,23,Ticks_Phase_5,189,1,48,42,1269589652
1136,23,Ticks_Phase_5,190,5,42,127,1270027664
1136,23,Ticks_Phase_5,191,1,48,50,1270099900
1136,23,Ticks_Phase_5,192,5,42,127,1270528248
1136,23,Ticks_Phase_5,193,1,48,36,1270597420
1136,23,Ticks_Phase_5,194,5,42,127,1271028308
1136,23,Ticks_Phase_5,195,1,48,32,1271052016
1136,23,Ticks_Phase_5,196,5,42,127,1271528220
1136,23,Ticks_Phase_5,197,1,48,39,1271536288
1136,23,Ticks_Phase_5,198,5,42,127,1272027388
1136,23,Ticks_Phase_5,199,1,48,45,1272044352
1136,23,Ticks_Phase_5,200,5,42,127,1272528276
1136,23,Ticks_Phase_5,201,1,48,33,1272558732
1136,23,Ticks_Phase_5,202,5,42,127,1273028184
1136,23,Ticks_Phase_5,203,1,48,42,1273044480
1136,23,Ticks_Phase_5,204,5,42,127,1273527724
1136,23,Ticks_Phase_5,205,1,48,45,1273548148
1136,23,Ticks_Phase_5,206,5,42,127,1274028312
1136,23,Ticks_Phase_5,207,1,48,38,1274033448
1136,23,Ticks_Phase_5,208,5,42,127,1274528296
1136,23,Ticks_Phase_5,209,1,48,45,1274536512
1136,23,Ticks_Phase_5,210,5,42,127,1275027912
1136,23,Ticks_Phase_5,211,1,48,34,1275046612
1136,23,Ticks_Phase_5,212,5,42,127,1275527676
1136,23,Ticks_Phase_5,213,1,48,30,1275553632
1136,23,Ticks_Phase_5,214,5,42,127,1276028264
1136,23,Ticks_Phase_5,215,1,48,29,1276037752
1136,23,Ticks_Phase_5,216,1,48,35,1276524216
1136,23,Ticks_Phase_5,217,5,42,127,1276528020
1136,23,Ticks_Phase_5,218,1,48,36,1277022180
1136,23,Ticks_Phase_5,219,5,42,127,1277027684
1136,23,Ticks_Phase_5,220,1,48,52,1277511312
1136,23,Ticks_Phase_5,221,5,42,127,1277528344
1136,23,Ticks_Phase_5,222,1,48,57,1278020588
1136,23,Ticks_Phase_5,223,5,42,127,1278038444
1136,23,Ticks_Phase_5,224,1,48,60,1278525060
1136,23,Ticks_Phase_5,225,5,42,127,1278588328
1136,23,Ticks_Phase_5,226,1,48,59,1279055380
1136,23,Ticks_Phase_5,227,5,42,127,1279088092
1136,23,Ticks_Phase_5,228,1,48,58,1279580084
1136,23,Ticks_Phase_5,229,5,42,127,1279587832
1136,23,Ticks_Phase_5,230,1,48,53,1280088272
1136,23,Ticks_Phase_5,231,5,42,127,1280089612
1136,23,Ticks_Phase_5,232,5,42,127,1280598296
1136,23,Ticks_Phase_5,233,1,48,50,1280600160
1136,23,Ticks_Phase_5,234,5,42,127,1281097984
1136,23,Ticks_Phase_5,235,1,48,54,1281102668
1136,23,Ticks_Phase_5,236,5,42,127,1281597820
1136,23,Ticks_Phase_5,237,1,48,62,1281620040
1136,23,Ticks_Phase_5,238,5,42,127,1282097512
1136,23,Ticks_Phase_5,239,1,48,58,1282115520
1136,23,Ticks_Phase_5,240,5,42,127,1282598244
1136,23,Ticks_Phase_5,241,1,48,61,1282603752
1136,23,Ticks_Phase_5,242,5,42,127,1283098008
1136,23,Ticks_Phase_5,243,1,48,56,1283104340
1136,23,Ticks_Phase_5,244,1,48,54,1283597916
1136,23,Ticks_Phase_5,245,5,42,127,1283599180
1136,23,Ticks_Phase_5,246,5,42,127,1284098356
1136,23,Ticks_Phase_5,247,1,48,60,1284101324
1136,23,Ticks_Phase_5,248,5,42,127,1284608304
1136,23,Ticks_Phase_5,249,1,48,57,1284617116
1136,23,Ticks_Phase_5,250,5,42,127,1285108068
1136,23,Ticks_Phase_5,251,1,48,63,1285111708
1136,23,Ticks_Phase_5,252,1,48,59,1285596192
1136,23,Ticks_Phase_5,253,5,42,127,1285608048
1136,23,Ticks_Phase_5,254,5,42,127,1286107368
1136,23,Ticks_Phase_5,255,1,48,68,1286110112
1136,23,Ticks_Phase_5,256,5,42,127,1286608104
1136,23,Ticks_Phase_5,257,1,48,61,1286616324
1136,23,Ticks_Phase_5,258,1,48,65,1287120632
1136,23,Ticks_Phase_5,259,5,42,127,1287208284
1136,23,Ticks_Phase_5,260,1,48,59,1287661508
1136,23,Ticks_Phase_5,261,5,42,127,1287707900
1136,23,Ticks_Phase_5,262,1,48,60,1288206464
1136,23,Ticks_Phase_5,263,5,42,127,1288207884
1136,23,Ticks_Phase_5,264,5,42,127,1288707356
1136,23,Ticks_Phase_5,265,1,48,63,1288716844
1136,23,Ticks_Phase_5,266,1,48,57,1289207036
1136,23,Ticks_Phase_5,267,5,42,127,1289208456
1136,23,Ticks_Phase_5,268,5,42,127,1289708004
1136,23,Ticks_Phase_5,269,1,48,59,1289724224
1136,23,Ticks_Phase_5,270,5,42,127,1290207692
1136,23,Ticks_Phase_5,271,1,48,53,1290212828
1136,23,Ticks_Phase_5,272,5,42,127,1290708204
1136,23,Ticks_Phase_5,273,1,48,58,1290724120
1136,23,Ticks_Phase_5,274,1,48,57,1291194592
1136,23,Ticks_Phase_5,275,5,42,127,1291207960
1136,23,Ticks_Phase_5,276,1,48,65,1291699904
1136,23,Ticks_Phase_5,277,5,42,127,1291707724
1136,23,Ticks_Phase_5,278,1,48,62,1292197568
1136,23,Ticks_Phase_5,279,5,42,127,1292207412
1136,23,Ticks_Phase_5,280,1,48,63,1292693428
1136,23,Ticks_Phase_5,281,5,42,127,1292708296
1136,23,Ticks_Phase_5,282,1,48,54,1293205716
1136,23,Ticks_Phase_5,283,5,42,127,1293207908
1136,23,Ticks_Phase_5,284,1,48,61,1293701944
1136,23,Ticks_Phase_5,285,5,42,127,1293707892
1136,23,Ticks_Phase_5,286,1,48,55,1294207204
1136,23,Ticks_Phase_5,287,5,42,127,1294208852
1136,23,Ticks_Phase_5,288,5,42,127,1294708028
1136,23,Ticks_Phase_5,289,1,48,58,1294719160
1136,23,Ticks_Phase_5,290,5,42,127,1295207764
1136,23,Ticks_Phase_5,291,1,48,53,1295211476
1136,23,Ticks_Phase_5,292,5,42,127,1295707524
1136,23,Ticks_Phase_5,293,1,48,61,1295747816
1136,23,Ticks_Phase_5,294,5,42,127,1296208188
1136,23,Ticks_Phase_5,295,1,48,56,1296232796
1136,23,Ticks_Phase_5,296,5,42,127,1296607676
1136,23,Ticks_Phase_5,297,1,48,59,1296706500
1136,23,Ticks_Phase_5,298,5,42,127,1297108336
1136,23,Ticks_Phase_5,299,1,48,58,1297189192
1136,23,Ticks_Phase_5,300,5,42,127,1297607948
1136,23,Ticks_Phase_5,301,1,48,54,1297629936
1136,23,Ticks_Phase_5,302,5,42,127,1298107788
1136,23,Ticks_Phase_5,303,1,48,53,1298110304
1136,23,Ticks_Phase_5,304,5,42,127,1298607472
1136,23,Ticks_Phase_5,305,1,48,54,1298625036
1136,23,Ticks_Phase_5,306,5,42,127,1299108136
1136,23,Ticks_Phase_5,307,1,48,54,1299114840
1136,23,Ticks_Phase_5,308,5,42,127,1299607896
1136,23,Ticks_Phase_5,309,1,48,53,1299632208
1136,23,Ticks_Phase_5,310,5,42,127,1300107584
1136,23,Ticks_Phase_5,311,1,48,58,1300118720
1136,23,Ticks_Phase_5,312,5,42,127,1300608320
1136,23,Ticks_Phase_5,313,1,48,56,1300624236
1136,23,Ticks_Phase_5,314,5,42,127,1301108160
1136,23,Ticks_Phase_5,315,1,48,59,1301117052
1136,23,Ticks_Phase_5,316,5,42,127,1301607672
1136,23,Ticks_Phase_5,317,1,48,58,1301623020
1136,23,Ticks_Phase_5,318,5,42,127,1302107584
1136,23,Ticks_Phase_5,319,1,48,54,1302118192
1136,23,Ticks_Phase_5,320,5,42,127,1302608316
1136,23,Ticks_Phase_5,321,1,48,55,1302616312
1136,23,Ticks_Phase_5,322,5,42,127,1303107856
1136,23,Ticks_Phase_5,323,1,48,51,1303123776
1136,23,Ticks_Phase_5,324,5,42,127,1303607620
1136,23,Ticks_Phase_5,325,1,48,57,1303645716
1136,23,Ticks_Phase_5,326,5,42,127,1304108356
1136,23,Ticks_Phase_5,327,1,48,57,1304124196
1136,23,Ticks_Phase_5,328,5,42,127,1304608044
1136,23,Ticks_Phase_5,329,1,48,54,1304626300
1136,23,Ticks_Phase_5,330,5,42,127,1305107956
1136,23,Ticks_Phase_5,331,1,48,53,1305132864
1136,23,Ticks_Phase_5,332,5,42,127,1305607496
1136,23,Ticks_Phase_5,333,1,48,56,1305639816
1136,23,Ticks_Phase_5,334,5,42,127,1306108304
1136,23,Ticks_Phase_5,0,9999,9999,9999,1221555296
1136,23,Ticks_Phase_5,1,9999,9999,9999,1222056056
1136,23,Ticks_Phase_5,2,9999,9999,9999,1222555764
1136,23,Ticks_Phase_5,3,9999,9999,9999,1223055472
1136,23,Ticks_Phase_5,4,9999,9999,9999,1223555184
1136,23,Ticks_Phase_5,5,9999,9999,9999,1224055920
1136,23,Ticks_Phase_5,6,9999,9999,9999,1224555584
1136,23,Ticks_Phase_5,7,9999,9999,9999,1225055344
1136,23,Ticks_Phase_5,8,9999,9999,9999,1225556080
1136,23,Ticks_Phase_5,9,9999,9999,9999,1226055768
1136,23,Ticks_Phase_5,10,9999,9999,9999,1226555456
1136,23,Ticks_Phase_5,11,9999,9999,9999,1227055216
1136,23,Ticks_Phase_5,12,9999,9999,9999,1227555952
1136,23,Ticks_Phase_5,13,9999,9999,9999,1228055640
1136,23,Ticks_Phase_5,14,9999,9999,9999,1228555328
1136,23,Ticks_Phase_5,15,9999,9999,9999,1229056064
1136,23,Ticks_Phase_5,16,9999,9999,9999,1229566008
1136,23,Ticks_Phase_5,17,9999,9999,9999,1230065772
1136,23,Ticks_Phase_5,18,9999,9999,9999,1230565460
1136,23,Ticks_Phase_5,19,9999,9999,9999,1231065148
1136,23,Ticks_Phase_5,20,9999,9999,9999,1231565884
1136,23,Ticks_Phase_5,21,9999,9999,9999,1232065644
1136,23,Ticks_Phase_5,22,9999,9999,9999,1232565336
1136,23,Ticks_Phase_5,23,9999,9999,9999,1233066068
1136,23,Ticks_Phase_5,24,9999,9999,9999,1233565756
1136,23,Ticks_Phase_5,25,9999,9999,9999,1234065520
1136,23,Ticks_Phase_5,26,9999,9999,9999,1234565208
1136,23,Ticks_Phase_5,27,9999,9999,9999,1235065944
1136,23,Ticks_Phase_5,28,9999,9999,9999,1235565680
1136,23,Ticks_Phase_5,29,9999,9999,9999,1236065344
1136,23,Ticks_Phase_5,30,9999,9999,9999,1236555896
1136,23,Ticks_Phase_5,31,9999,9999,9999,1237055584
1136,23,Ticks_Phase_5,32,9999,9999,9999,1237555276
1136,23,Ticks_Phase_5,33,9999,9999,9999,1238056008
1136,23,Ticks_Phase_5,34,9999,9999,9999,1238555772
1136,23,Ticks_Phase_5,35,9999,9999,9999,1239055460
1136,23,Ticks_Phase_5,36,9999,9999,9999,1239555148
1136,23,Ticks_Phase_5,37,9999,9999,9999,1240055880
1136,23,Ticks_Phase_5,38,9999,9999,9999,1240555644
1136,23,Ticks_Phase_5,39,9999,9999,9999,1241055332
1136,23,Ticks_Phase_5,40,9999,9999,9999,1241556064
1136,23,Ticks_Phase_5,41,9999,9999,9999,1242055752
1136,23,Ticks_Phase_5,42,9999,9999,9999,1242555516
1136,23,Ticks_Phase_5,43,9999,9999,9999,1243055204
1136,23,Ticks_Phase_5,44,9999,9999,9999,1243555940
1136,23,Ticks_Phase_5,45,9999,9999,9999,1244055632
1136,23,Ticks_Phase_5,46,9999,9999,9999,1244555320
1136,23,Ticks_Phase_5,47,9999,9999,9999,1245056056
1136,23,Ticks_Phase_5,48,9999,9999,9999,1245575284
1136,23,Ticks_Phase_5,49,9999,9999,9999,1246076020
1136,23,Ticks_Phase_5,50,9999,9999,9999,1246575708
1136,23,Ticks_Phase_5,51,9999,9999,9999,1247075452
1136,23,Ticks_Phase_5,52,9999,9999,9999,1247575140
1136,23,Ticks_Phase_5,53,9999,9999,9999,1248075876
1136,23,Ticks_Phase_5,54,9999,9999,9999,1248575564
1136,23,Ticks_Phase_5,55,9999,9999,9999,1249075328
1136,23,Ticks_Phase_5,56,9999,9999,9999,1249576060
1136,23,Ticks_Phase_5,57,9999,9999,9999,1250075748
1136,23,Ticks_Phase_5,58,9999,9999,9999,1250575436
1136,23,Ticks_Phase_5,59,9999,9999,9999,1251075124
1136,23,Ticks_Phase_5,60,9999,9999,9999,1251575936
1136,23,Ticks_Phase_5,61,9999,9999,9999,1252075624
1136,23,Ticks_Phase_5,62,9999,9999,9999,1252575312
1136,23,Ticks_Phase_5,63,9999,9999,9999,1253076048
1136,23,Ticks_Phase_5,64,9999,9999,9999,1253595204
1136,23,Ticks_Phase_5,65,9999,9999,9999,1254095944
1136,23,Ticks_Phase_5,66,9999,9999,9999,1254595708
1136,23,Ticks_Phase_5,67,9999,9999,9999,1255095396
1136,23,Ticks_Phase_5,68,9999,9999,9999,1255595084
1136,23,Ticks_Phase_5,69,9999,9999,9999,1256095816
1136,23,Ticks_Phase_5,70,9999,9999,9999,1256595580
1136,23,Ticks_Phase_5,71,9999,9999,9999,1257095268
1136,23,Ticks_Phase_5,72,9999,9999,9999,1257596004
1136,23,Ticks_Phase_5,73,9999,9999,9999,1258095692
1136,23,Ticks_Phase_5,74,9999,9999,9999,1258595428
1136,23,Ticks_Phase_5,75,9999,9999,9999,1259095120
1136,23,Ticks_Phase_5,76,9999,9999,9999,1259595856
1136,23,Ticks_Phase_5,77,9999,9999,9999,1260095544
1136,23,Ticks_Phase_5,78,9999,9999,9999,1260595304
1136,23,Ticks_Phase_5,79,9999,9999,9999,1261096040
1136,23,Ticks_Phase_5,80,9999,9999,9999,1261595728
1136,23,Ticks_Phase_5,81,9999,9999,9999,1262076020
1136,23,Ticks_Phase_5,82,9999,9999,9999,1262575708
1136,23,Ticks_Phase_5,83,9999,9999,9999,1263075396
1136,23,Ticks_Phase_5,84,9999,9999,9999,1263575160
1136,23,Ticks_Phase_5,85,9999,9999,9999,1264075896
1136,23,Ticks_Phase_5,86,9999,9999,9999,1264575584
1136,23,Ticks_Phase_5,87,9999,9999,9999,1265075272
1136,23,Ticks_Phase_5,88,9999,9999,9999,1265576008
1136,23,Ticks_Phase_5,89,9999,9999,9999,1266075768
1136,23,Ticks_Phase_5,90,9999,9999,9999,1266575456
1136,23,Ticks_Phase_5,91,9999,9999,9999,1267075148
1136,23,Ticks_Phase_5,92,9999,9999,9999,1267575884
1136,23,Ticks_Phase_5,93,9999,9999,9999,1268075620
1136,23,Ticks_Phase_5,94,9999,9999,9999,1268575360
1136,23,Ticks_Phase_5,95,9999,9999,9999,1269076096
1136,23,Ticks_Phase_5,96,9999,9999,9999,1269575784
1136,23,Ticks_Phase_5,97,9999,9999,9999,1270025296
1136,23,Ticks_Phase_5,98,9999,9999,9999,1270526032
1136,23,Ticks_Phase_5,99,9999,9999,9999,1271025720
1136,23,Ticks_Phase_5,100,9999,9999,9999,1271525484
1136,23,Ticks_Phase_5,101,9999,9999,9999,1272025176
1136,23,Ticks_Phase_5,102,9999,9999,9999,1272525912
1136,23,Ticks_Phase_5,103,9999,9999,9999,1273025596
1136,23,Ticks_Phase_5,104,9999,9999,9999,1273525360
1136,23,Ticks_Phase_5,105,9999,9999,9999,1274026096
1136,23,Ticks_Phase_5,106,9999,9999,9999,1274525784
1136,23,Ticks_Phase_5,107,9999,9999,9999,1275025472
1136,23,Ticks_Phase_5,108,9999,9999,9999,1275525240
1136,23,Ticks_Phase_5,109,9999,9999,9999,1276025976
1136,23,Ticks_Phase_5,110,9999,9999,9999,1276525656
1136,23,Ticks_Phase_5,111,9999,9999,9999,1277025396
1136,23,Ticks_Phase_5,112,9999,9999,9999,1277526132
1136,23,Ticks_Phase_5,113,9999,9999,9999,1278036080
1136,23,Ticks_Phase_5,114,9999,9999,9999,1278585964
1136,23,Ticks_Phase_5,115,9999,9999,9999,1279085656
1136,23,Ticks_Phase_5,116,9999,9999,9999,1279585392
1136,23,Ticks_Phase_5,117,9999,9999,9999,1280086136
1136,23,Ticks_Phase_5,118,9999,9999,9999,1280596080
1136,23,Ticks_Phase_5,119,9999,9999,9999,1281095768
1136,23,Ticks_Phase_5,120,9999,9999,9999,1281595456
1136,23,Ticks_Phase_5,121,9999,9999,9999,1282095220
1136,23,Ticks_Phase_5,122,9999,9999,9999,1282595956
1136,23,Ticks_Phase_5,123,9999,9999,9999,1283095644
1136,23,Ticks_Phase_5,124,9999,9999,9999,1283595332
1136,23,Ticks_Phase_5,125,9999,9999,9999,1284096068
1136,23,Ticks_Phase_5,126,9999,9999,9999,1284606016
1136,23,Ticks_Phase_5,127,9999,9999,9999,1285105780
1136,23,Ticks_Phase_5,128,9999,9999,9999,1285605460
1136,23,Ticks_Phase_5,129,9999,9999,9999,1286105156
1136,23,Ticks_Phase_5,130,9999,9999,9999,1286605888
1136,23,Ticks_Phase_5,131,9999,9999,9999,1287205996
1136,23,Ticks_Phase_5,132,9999,9999,9999,1287705684
1136,23,Ticks_Phase_5,133,9999,9999,9999,1288205380
1136,23,Ticks_Phase_5,134,9999,9999,9999,1288705140
1136,23,Ticks_Phase_5,135,9999,9999,9999,1289205876
1136,23,Ticks_Phase_5,136,9999,9999,9999,1289705564
1136,23,Ticks_Phase_5,137,9999,9999,9999,1290205252
1136,23,Ticks_Phase_5,138,9999,9999,9999,1290705988
1136,23,Ticks_Phase_5,139,9999,9999,9999,1291205744
1136,23,Ticks_Phase_5,140,9999,9999,9999,1291705436
1136,23,Ticks_Phase_5,141,9999,9999,9999,1292205120
1136,23,Ticks_Phase_5,142,9999,9999,9999,1292705856
1136,23,Ticks_Phase_5,143,9999,9999,9999,1293205584
1136,23,Ticks_Phase_5,144,9999,9999,9999,1293705308
1136,23,Ticks_Phase_5,145,9999,9999,9999,1294206048
1136,23,Ticks_Phase_5,146,9999,9999,9999,1294705736
1136,23,Ticks_Phase_5,147,9999,9999,9999,1295205472
1136,23,Ticks_Phase_5,148,9999,9999,9999,1295705160
1136,23,Ticks_Phase_5,149,9999,9999,9999,1296205896
1136,23,Ticks_Phase_5,150,9999,9999,9999,1296605312
1136,23,Ticks_Phase_5,151,9999,9999,9999,1297106048
1136,23,Ticks_Phase_5,152,9999,9999,9999,1297605732
1136,23,Ticks_Phase_5,153,9999,9999,9999,1298105420
1136,23,Ticks_Phase_5,154,9999,9999,9999,1298605112
1136,23,Ticks_Phase_5,155,9999,9999,9999,1299105920
1136,23,Ticks_Phase_5,156,9999,9999,9999,1299605608
1136,23,Ticks_Phase_5,157,9999,9999,9999,1300105296
1136,23,Ticks_Phase_5,158,9999,9999,9999,1300606032
1136,23,Ticks_Phase_5,159,9999,9999,9999,1301105720
1136,23,Ticks_Phase_5,160,9999,9999,9999,1301605456
1136,23,Ticks_Phase_5,161,9999,9999,9999,1302105144
1136,23,Ticks_Phase_5,162,9999,9999,9999,1302605880
1136,23,Ticks_Phase_5,163,9999,9999,9999,1303105644
1136,23,Ticks_Phase_5,164,9999,9999,9999,1303605332
1136,23,Ticks_Phase_5,165,9999,9999,9999,1304106064
1136,23,Ticks_Phase_5,166,9999,9999,9999,1304605756
1136,23,Ticks_Phase_5,167,9999,9999,9999,1305105520
1136,23,Ticks_Phase_5,168,9999,9999,9999,1305605204
1136,23,Ticks_Phase_5,169,9999,9999,9999,1306105940
1137,9,Ticks_ISO_T2_8,0,5,42,127,1316866412
1137,9,Ticks_ISO_T2_8,1,5,42,127,1317667512
1137,9,Ticks_ISO_T2_8,2,5,42,127,1318466824
1137,9,Ticks_ISO_T2_8,3,5,42,127,1319266652
1137,9,Ticks_ISO_T2_8,4,5,42,127,1320066504
1137,9,Ticks_ISO_T2_8,5,1,48,50,1320067472
1137,9,Ticks_ISO_T2_8,6,5,42,127,1320867508
1137,9,Ticks_ISO_T2_8,7,1,48,51,1320869372
1137,9,Ticks_ISO_T2_8,8,1,48,55,1321658528
1137,9,Ticks_ISO_T2_8,9,5,42,127,1321666788
1137,9,Ticks_ISO_T2_8,10,1,48,47,1322467048
1137,9,Ticks_ISO_T2_8,11,5,42,127,1322468164
1137,9,Ticks_ISO_T2_8,12,1,48,56,1323262852
1137,9,Ticks_ISO_T2_8,13,5,42,127,1323266480
1137,9,Ticks_ISO_T2_8,14,5,42,127,1324067264
1137,9,Ticks_ISO_T2_8,15,1,48,56,1324096484
1137,9,Ticks_ISO_T2_8,16,1,48,54,1324856936
1137,9,Ticks_ISO_T2_8,17,5,42,127,1324866920
1137,9,Ticks_ISO_T2_8,18,1,48,51,1325661232
1137,9,Ticks_ISO_T2_8,19,5,42,127,1325666652
1137,9,Ticks_ISO_T2_8,20,1,48,53,1326461216
1137,9,Ticks_ISO_T2_8,21,5,42,127,1326466484
1137,9,Ticks_ISO_T2_8,22,1,48,52,1327260728
1137,9,Ticks_ISO_T2_8,23,5,42,127,1327267340
1137,9,Ticks_ISO_T2_8,24,5,42,127,1328066780
1137,9,Ticks_ISO_T2_8,25,1,48,49,1328075728
1137,9,Ticks_ISO_T2_8,26,1,48,48,1328858768
1137,9,Ticks_ISO_T2_8,27,5,42,127,1328866584
1137,9,Ticks_ISO_T2_8,28,1,48,60,1329641296
1137,9,Ticks_ISO_T2_8,29,5,42,127,1329666392
1137,9,Ticks_ISO_T2_8,30,1,48,56,1330457560
1137,9,Ticks_ISO_T2_8,31,5,42,127,1330467320
1137,9,Ticks_ISO_T2_8,32,1,48,48,1331251540
1137,9,Ticks_ISO_T2_8,33,5,42,127,1331267056
1137,9,Ticks_ISO_T2_8,34,1,48,50,1332060916
1137,9,Ticks_ISO_T2_8,35,5,42,127,1332066640
1137,9,Ticks_ISO_T2_8,36,5,42,127,1332866404
1137,9,Ticks_ISO_T2_8,37,1,48,50,1332904600
1137,9,Ticks_ISO_T2_8,38,5,42,127,1333667108
1137,9,Ticks_ISO_T2_8,39,1,48,46,1333690048
1137,9,Ticks_ISO_T2_8,40,1,48,51,1334457224
1137,9,Ticks_ISO_T2_8,41,5,42,127,1334467132
1137,9,Ticks_ISO_T2_8,42,5,42,127,1335266724
1137,9,Ticks_ISO_T2_8,43,1,48,49,1335283604
1137,9,Ticks_ISO_T2_8,44,5,42,127,1336066460
1137,9,Ticks_ISO_T2_8,45,1,48,47,1336074364
1137,9,Ticks_ISO_T2_8,46,1,48,58,1336841092
1137,9,Ticks_ISO_T2_8,47,5,42,127,1336867232
1137,9,Ticks_ISO_T2_8,48,1,48,53,1337645836
1137,9,Ticks_ISO_T2_8,49,5,42,127,1337667040
1137,9,Ticks_ISO_T2_8,50,1,48,49,1338436148
1137,9,Ticks_ISO_T2_8,51,5,42,127,1338466552
1137,9,Ticks_ISO_T2_8,52,1,48,50,1339254156
1137,9,Ticks_ISO_T2_8,53,5,42,127,1339266532
1137,9,Ticks_ISO_T2_8,54,5,42,127,1340067172
1137,9,Ticks_ISO_T2_8,55,1,48,52,1340078064
1137,9,Ticks_ISO_T2_8,56,5,42,127,1340867052
1137,9,Ticks_ISO_T2_8,57,1,48,39,1340899864
1137,9,Ticks_ISO_T2_8,58,5,42,127,1341666560
1137,9,Ticks_ISO_T2_8,59,1,48,46,1341697580
1137,9,Ticks_ISO_T2_8,60,1,48,51,1342465616
1137,9,Ticks_ISO_T2_8,61,5,42,127,1342467116
1137,9,Ticks_ISO_T2_8,62,5,42,127,1343267152
1137,9,Ticks_ISO_T2_8,63,1,48,43,1343269972
1137,9,Ticks_ISO_T2_8,64,5,42,127,1344066960
1137,9,Ticks_ISO_T2_8,65,1,48,42,1344086084
1137,9,Ticks_ISO_T2_8,66,1,48,48,1344855432
1137,9,Ticks_ISO_T2_8,67,5,42,127,1344866612
1137,9,Ticks_ISO_T2_8,68,1,48,55,1345646136
1137,9,Ticks_ISO_T2_8,69,5,42,127,1345666368
1137,9,Ticks_ISO_T2_8,70,1,48,55,1346452300
1137,9,Ticks_ISO_T2_8,71,5,42,127,1346467148
1137,9,Ticks_ISO_T2_8,72,5,42,127,1347267112
1137,9,Ticks_ISO_T2_8,73,1,48,48,1347281448
1137,9,Ticks_ISO_T2_8,74,1,48,50,1348065792
1137,9,Ticks_ISO_T2_8,75,5,42,127,1348067364
1137,9,Ticks_ISO_T2_8,76,5,42,127,1348866280
1137,9,Ticks_ISO_T2_8,77,1,48,51,1348867248
1137,9,Ticks_ISO_T2_8,78,5,42,127,1349667212
1137,9,Ticks_ISO_T2_8,79,1,48,42,1349698376
1137,9,Ticks_ISO_T2_8,80,5,42,127,1350466944
1137,9,Ticks_ISO_T2_8,81,1,48,45,1350473204
1137,9,Ticks_ISO_T2_8,82,1,48,51,1351262144
1137,9,Ticks_ISO_T2_8,83,5,42,127,1351266744
1137,9,Ticks_ISO_T2_8,84,5,42,127,1352066288
1137,9,Ticks_ISO_T2_8,85,1,48,46,1352096704
1137,9,Ticks_ISO_T2_8,86,5,42,127,1352867068
1137,9,Ticks_ISO_T2_8,87,1,48,46,1352879012
1137,9,Ticks_ISO_T2_8,88,1,48,43,1353649408
1137,9,Ticks_ISO_T2_8,89,5,42,127,1353666944
1137,9,Ticks_ISO_T2_8,90,1,48,49,1354454076
1137,9,Ticks_ISO_T2_8,91,5,42,127,1354466824
1137,9,Ticks_ISO_T2_8,92,5,42,127,1355266268
1137,9,Ticks_ISO_T2_8,93,1,48,48,1355292644
1137,9,Ticks_ISO_T2_8,94,1,48,58,1356064836
1137,9,Ticks_ISO_T2_8,95,5,42,127,1356067188
1137,9,Ticks_ISO_T2_8,96,1,48,32,1356855068
1137,9,Ticks_ISO_T2_8,97,5,42,127,1356867072
1137,9,Ticks_ISO_T2_8,98,1,48,49,1357651732
1137,9,Ticks_ISO_T2_8,99,5,42,127,1357666880
1137,9,Ticks_ISO_T2_8,100,1,48,48,1358440100
1137,9,Ticks_ISO_T2_8,101,5,42,127,1358466340
1137,9,Ticks_ISO_T2_8,102,1,48,54,1359226616
1137,9,Ticks_ISO_T2_8,103,5,42,127,1359267120
1137,9,Ticks_ISO_T2_8,104,1,48,54,1360055448
1137,9,Ticks_ISO_T2_8,105,5,42,127,1360066924
1137,9,Ticks_ISO_T2_8,106,1,48,44,1360866136
1137,9,Ticks_ISO_T2_8,107,5,42,127,1360867708
1137,9,Ticks_ISO_T2_8,108,5,42,127,1361666324
1137,9,Ticks_ISO_T2_8,109,1,48,48,1361693152
1137,9,Ticks_ISO_T2_8,110,5,42,127,1362467032
1137,9,Ticks_ISO_T2_8,111,1,48,49,1362474408
1137,9,Ticks_ISO_T2_8,112,1,48,52,1363249520
1137,9,Ticks_ISO_T2_8,113,5,42,127,1363266832
1137,9,Ticks_ISO_T2_8,114,1,48,46,1364016192
1137,9,Ticks_ISO_T2_8,115,5,42,127,1364066788
1137,9,Ticks_ISO_T2_8,116,1,48,54,1364827372
1137,9,Ticks_ISO_T2_8,117,5,42,127,1364866696
1137,9,Ticks_ISO_T2_8,118,1,48,51,1365648524
1137,9,Ticks_ISO_T2_8,119,5,42,127,1365667180
1137,9,Ticks_ISO_T2_8,120,1,48,38,1366460368
1137,9,Ticks_ISO_T2_8,121,5,42,127,1366466840
1137,9,Ticks_ISO_T2_8,122,5,42,127,1367266804
1137,9,Ticks_ISO_T2_8,123,1,48,32,1367296476
1137,9,Ticks_ISO_T2_8,124,5,42,127,1368066684
1137,9,Ticks_ISO_T2_8,125,1,48,42,1368084312
1137,9,Ticks_ISO_T2_8,126,1,48,49,1368867540
1137,9,Ticks_ISO_T2_8,127,5,42,127,1368868884
1137,9,Ticks_ISO_T2_8,128,5,42,127,1369666976
1137,9,Ticks_ISO_T2_8,129,1,48,53,1369673836
1137,9,Ticks_ISO_T2_8,130,1,48,51,1370465268
1137,9,Ticks_ISO_T2_8,131,5,42,127,1370466780
1137,9,Ticks_ISO_T2_8,132,1,48,55,1371210452
1137,9,Ticks_ISO_T2_8,133,5,42,127,1371266464
1137,9,Ticks_ISO_T2_8,134,1,48,60,1372016872
1137,9,Ticks_ISO_T2_8,135,5,42,127,1372067168
1137,9,Ticks_ISO_T2_8,136,5,42,127,1372866912
1137,9,Ticks_ISO_T2_8,137,1,48,54,1372884984
1137,9,Ticks_ISO_T2_8,138,1,48,53,1373664520
1137,9,Ticks_ISO_T2_8,139,5,42,127,1373666564
1137,9,Ticks_ISO_T2_8,140,1,48,48,1374456312
1137,9,Ticks_ISO_T2_8,141,5,42,127,1374466520
1137,9,Ticks_ISO_T2_8,142,1,48,54,1375229640
1137,9,Ticks_ISO_T2_8,143,5,42,127,1375267300
1137,9,Ticks_ISO_T2_8,144,1,48,54,1376007160
1137,9,Ticks_ISO_T2_8,145,5,42,127,1376066960
1137,9,Ticks_ISO_T2_8,146,1,48,57,1376847212
1137,9,Ticks_ISO_T2_8,147,5,42,127,1376866616
1137,9,Ticks_ISO_T2_8,148,5,42,127,1377666456
1137,9,Ticks_ISO_T2_8,149,1,48,54,1377667940
1137,9,Ticks_ISO_T2_8,150,1,48,49,1378457172
1137,9,Ticks_ISO_T2_8,151,5,42,127,1378467304
1137,9,Ticks_ISO_T2_8,152,5,42,127,1379266896
1137,9,Ticks_ISO_T2_8,153,1,48,51,1379292824
1137,9,Ticks_ISO_T2_8,154,1,48,55,1380049604
1137,9,Ticks_ISO_T2_8,155,5,42,127,1380066548
1137,9,Ticks_ISO_T2_8,156,1,48,62,1380831012
1137,9,Ticks_ISO_T2_8,157,5,42,127,1380866280
1137,9,Ticks_ISO_T2_8,158,1,48,53,1381656176
1137,9,Ticks_ISO_T2_8,159,5,42,127,1381667356
1137,9,Ticks_ISO_T2_8,160,1,48,57,1382446712
1137,9,Ticks_ISO_T2_8,161,5,42,127,1382466868
1137,9,Ticks_ISO_T2_8,162,1,48,60,1383244948
1137,9,Ticks_ISO_T2_8,163,5,42,127,1383266600
1137,9,Ticks_ISO_T2_8,164,1,48,52,1384045452
1137,9,Ticks_ISO_T2_8,165,5,42,127,1384066284
1137,9,Ticks_ISO_T2_8,166,1,48,52,1384851700
1137,9,Ticks_ISO_T2_8,167,5,42,127,1384867440
1137,9,Ticks_ISO_T2_8,168,5,42,127,1385666880
1137,9,Ticks_ISO_T2_8,169,1,48,48,1385683312
1137,9,Ticks_ISO_T2_8,170,1,48,59,1386461560
1137,9,Ticks_ISO_T2_8,171,5,42,127,1386466684
1137,9,Ticks_ISO_T2_8,172,5,42,127,1387266424
1137,9,Ticks_ISO_T2_8,173,1,48,57,1387276268
1137,9,Ticks_ISO_T2_8,174,5,42,127,1388067128
1137,9,Ticks_ISO_T2_8,175,1,48,49,1388080788
1137,9,Ticks_ISO_T2_8,176,1,48,58,1388858592
1137,9,Ticks_ISO_T2_8,177,5,42,127,1388866852
1137,9,Ticks_ISO_T2_8,178,5,42,127,1389666592
1137,9,Ticks_ISO_T2_8,179,1,48,56,1389689932
1137,9,Ticks_ISO_T2_8,180,5,42,127,1390466352
1137,9,Ticks_ISO_T2_8,181,1,48,54,1390495048
1137,9,Ticks_ISO_T2_8,182,5,42,127,1391267132
1137,9,Ticks_ISO_T2_8,183,1,48,61,1391273836
1137,9,Ticks_ISO_T2_8,184,5,42,127,1392067012
1137,9,Ticks_ISO_T2_8,185,1,48,52,1392102448
1137,9,Ticks_ISO_T2_8,186,1,48,55,1392863640
1137,9,Ticks_ISO_T2_8,187,5,42,127,1392866740
1137,9,Ticks_ISO_T2_8,188,5,42,127,1393666408
1137,9,Ticks_ISO_T2_8,189,1,48,48,1393688000
1137,9,Ticks_ISO_T2_8,190,5,42,127,1394467112
1137,9,Ticks_ISO_T2_8,191,1,48,55,1394487660
1137,9,Ticks_ISO_T2_8,192,1,48,58,1395247508
1137,9,Ticks_ISO_T2_8,193,5,42,127,1395267064
1137,9,Ticks_ISO_T2_8,194,1,48,55,1396040884
1137,9,Ticks_ISO_T2_8,195,5,42,127,1396066648
1137,9,Ticks_ISO_T2_8,196,5,42,127,1396866488
1137,9,Ticks_ISO_T2_8,197,1,48,51,1396872144
1137,9,Ticks_ISO_T2_8,198,1,48,59,1397663788
1137,9,Ticks_ISO_T2_8,199,5,42,127,1397667036
1137,9,Ticks_ISO_T2_8,200,5,42,127,1398466852
1137,9,Ticks_ISO_T2_8,201,1,48,48,1398484180
1137,9,Ticks_ISO_T2_8,202,1,48,53,1399256968
1137,9,Ticks_ISO_T2_8,203,5,42,127,1399266728
1137,9,Ticks_ISO_T2_8,204,1,48,50,1400053036
1137,9,Ticks_ISO_T2_8,205,5,42,127,1400066388
1137,9,Ticks_ISO_T2_8,206,1,48,52,1400865656
1137,9,Ticks_ISO_T2_8,207,5,42,127,1400867168
1137,9,Ticks_ISO_T2_8,208,5,42,127,1401667056
1137,9,Ticks_ISO_T2_8,209,1,48,36,1401702184
1137,9,Ticks_ISO_T2_8,210,5,42,127,1402466712
1137,9,Ticks_ISO_T2_8,211,1,48,44,1402485560
1137,9,Ticks_ISO_T2_8,212,5,42,127,1403266324
1137,9,Ticks_ISO_T2_8,213,1,48,43,1403281180
1137,9,Ticks_ISO_T2_8,214,5,42,127,1404067324
1137,9,Ticks_ISO_T2_8,215,1,48,51,1404080092
1137,9,Ticks_ISO_T2_8,216,5,42,127,1404866984
1137,9,Ticks_ISO_T2_8,217,1,48,34,1404883192
1137,9,Ticks_ISO_T2_8,218,5,42,127,1405666792
1137,9,Ticks_ISO_T2_8,219,1,48,48,1405673124
1137,9,Ticks_ISO_T2_8,220,5,42,127,1406466304
1137,9,Ticks_ISO_T2_8,221,1,48,47,1406476676
1137,9,Ticks_ISO_T2_8,222,5,42,127,1407267156
1137,9,Ticks_ISO_T2_8,223,1,48,54,1407295708
1137,9,Ticks_ISO_T2_8,224,5,42,127,1408066888
1137,9,Ticks_ISO_T2_8,225,1,48,49,1408110124
1137,9,Ticks_ISO_T2_8,226,5,42,127,1408866772
1137,9,Ticks_ISO_T2_8,227,1,48,49,1408885396
1137,9,Ticks_ISO_T2_8,228,5,42,127,1409666380
1137,9,Ticks_ISO_T2_8,229,1,48,48,1409691864
1137,9,Ticks_ISO_T2_8,230,5,42,127,1410467160
1137,9,Ticks_ISO_T2_8,231,1,48,55,1410473644
1137,9,Ticks_ISO_T2_8,232,1,48,50,1411253912
1137,9,Ticks_ISO_T2_8,233,5,42,127,1411266888
1137,9,Ticks_ISO_T2_8,234,5,42,127,1412066776
1137,9,Ticks_ISO_T2_8,235,1,48,54,1412098916
1137,9,Ticks_ISO_T2_8,0,9999,9999,9999,1316864044
1137,9,Ticks_ISO_T2_8,1,9999,9999,9999,1317664848
1137,9,Ticks_ISO_T2_8,2,9999,9999,9999,1318464604
1137,9,Ticks_ISO_T2_8,3,9999,9999,9999,1319264360
1137,9,Ticks_ISO_T2_8,4,9999,9999,9999,1320064064
1137,9,Ticks_ISO_T2_8,5,9999,9999,9999,1320864844
1137,9,Ticks_ISO_T2_8,6,9999,9999,9999,1321664572
1137,9,Ticks_ISO_T2_8,7,9999,9999,9999,1322464312
1137,9,Ticks_ISO_T2_8,8,9999,9999,9999,1323264112
1137,9,Ticks_ISO_T2_8,9,9999,9999,9999,1324064824
1137,9,Ticks_ISO_T2_8,10,9999,9999,9999,1324864628
1137,9,Ticks_ISO_T2_8,11,9999,9999,9999,1325664360
1137,9,Ticks_ISO_T2_8,12,9999,9999,9999,1326464120
1137,9,Ticks_ISO_T2_8,13,9999,9999,9999,1327264824
1137,9,Ticks_ISO_T2_8,14,9999,9999,9999,1328064564
1137,9,Ticks_ISO_T2_8,15,9999,9999,9999,1328864368
1137,9,Ticks_ISO_T2_8,16,9999,9999,9999,1329664100
1137,9,Ticks_ISO_T2_8,17,9999,9999,9999,1330464880
1137,9,Ticks_ISO_T2_8,18,9999,9999,9999,1331264616
1137,9,Ticks_ISO_T2_8,19,9999,9999,9999,1332064348
1137,9,Ticks_ISO_T2_8,20,9999,9999,9999,1332864112
1137,9,Ticks_ISO_T2_8,21,9999,9999,9999,1333664816
1137,9,Ticks_ISO_T2_8,22,9999,9999,9999,1334464620
1137,9,Ticks_ISO_T2_8,23,9999,9999,9999,1335264360
1137,9,Ticks_ISO_T2_8,24,9999,9999,9999,1336064092
1137,9,Ticks_ISO_T2_8,25,9999,9999,9999,1336864868
1137,9,Ticks_ISO_T2_8,26,9999,9999,9999,1337664600
1137,9,Ticks_ISO_T2_8,27,9999,9999,9999,1338464336
1137,9,Ticks_ISO_T2_8,28,9999,9999,9999,1339264092
1137,9,Ticks_ISO_T2_8,29,9999,9999,9999,1340064880
1137,9,Ticks_ISO_T2_8,30,9999,9999,9999,1340864612
1137,9,Ticks_ISO_T2_8,31,9999,9999,9999,1341664344
1137,9,Ticks_ISO_T2_8,32,9999,9999,9999,1342464080
1137,9,Ticks_ISO_T2_8,33,9999,9999,9999,1343264860
1137,9,Ticks_ISO_T2_8,34,9999,9999,9999,1344064592
1137,9,Ticks_ISO_T2_8,35,9999,9999,9999,1344864320
1137,9,Ticks_ISO_T2_8,36,9999,9999,9999,1345664076
1137,9,Ticks_ISO_T2_8,37,9999,9999,9999,1346464856
1137,9,Ticks_ISO_T2_8,38,9999,9999,9999,1347264596
1137,9,Ticks_ISO_T2_8,39,9999,9999,9999,1348064328
1137,9,Ticks_ISO_T2_8,40,9999,9999,9999,1348864064
1137,9,Ticks_ISO_T2_8,41,9999,9999,9999,1349664844
1137,9,Ticks_ISO_T2_8,42,9999,9999,9999,1350464580
1137,9,Ticks_ISO_T2_8,43,9999,9999,9999,1351264304
1137,9,Ticks_ISO_T2_8,44,9999,9999,9999,1352064072
1137,9,Ticks_ISO_T2_8,45,9999,9999,9999,1352864852
1137,9,Ticks_ISO_T2_8,46,9999,9999,9999,1353664576
1137,9,Ticks_ISO_T2_8,47,9999,9999,9999,1354464312
1137,9,Ticks_ISO_T2_8,48,9999,9999,9999,1355264052
1137,9,Ticks_ISO_T2_8,49,9999,9999,9999,1356064896
1137,9,Ticks_ISO_T2_8,50,9999,9999,9999,1356864632
1137,9,Ticks_ISO_T2_8,51,9999,9999,9999,1357664364
1137,9,Ticks_ISO_T2_8,52,9999,9999,9999,1358464048
1137,9,Ticks_ISO_T2_8,53,9999,9999,9999,1359264828
1137,9,Ticks_ISO_T2_8,54,9999,9999,9999,1360064560
1137,9,Ticks_ISO_T2_8,55,9999,9999,9999,1360864376
1137,9,Ticks_ISO_T2_8,56,9999,9999,9999,1361664108
1137,9,Ticks_ISO_T2_8,57,9999,9999,9999,1362464812
1137,9,Ticks_ISO_T2_8,58,9999,9999,9999,1363264616
1137,9,Ticks_ISO_T2_8,59,9999,9999,9999,1364064348
1137,9,Ticks_ISO_T2_8,60,9999,9999,9999,1364864108
1137,9,Ticks_ISO_T2_8,61,9999,9999,9999,1365664888
1137,9,Ticks_ISO_T2_8,62,9999,9999,9999,1366464620
1137,9,Ticks_ISO_T2_8,63,9999,9999,9999,1367264364
1137,9,Ticks_ISO_T2_8,64,9999,9999,9999,1368064096
1137,9,Ticks_ISO_T2_8,65,9999,9999,9999,1368864876
1137,9,Ticks_ISO_T2_8,66,9999,9999,9999,1369664608
1137,9,Ticks_ISO_T2_8,67,9999,9999,9999,1370464344
1137,9,Ticks_ISO_T2_8,68,9999,9999,9999,1371264096
1137,9,Ticks_ISO_T2_8,69,9999,9999,9999,1372064876
1137,9,Ticks_ISO_T2_8,70,9999,9999,9999,1372864620
1137,9,Ticks_ISO_T2_8,71,9999,9999,9999,1373664308
1137,9,Ticks_ISO_T2_8,72,9999,9999,9999,1374464080
1137,9,Ticks_ISO_T2_8,73,9999,9999,9999,1375264860
1137,9,Ticks_ISO_T2_8,74,9999,9999,9999,1376064592
1137,9,Ticks_ISO_T2_8,75,9999,9999,9999,1376864324
1137,9,Ticks_ISO_T2_8,76,9999,9999,9999,1377664088
1137,9,Ticks_ISO_T2_8,77,9999,9999,9999,1378464864
1137,9,Ticks_ISO_T2_8,78,9999,9999,9999,1379264604
1137,9,Ticks_ISO_T2_8,79,9999,9999,9999,1380064328
1137,9,Ticks_ISO_T2_8,80,9999,9999,9999,1380864064
1137,9,Ticks_ISO_T2_8,81,9999,9999,9999,1381664844
1137,9,Ticks_ISO_T2_8,82,9999,9999,9999,1382464576
1137,9,Ticks_ISO_T2_8,83,9999,9999,9999,1383264308
1137,9,Ticks_ISO_T2_8,84,9999,9999,9999,1384064068
1137,9,Ticks_ISO_T2_8,85,9999,9999,9999,1384864852
1137,9,Ticks_ISO_T2_8,86,9999,9999,9999,1385664588
1137,9,Ticks_ISO_T2_8,87,9999,9999,9999,1386464316
1137,9,Ticks_ISO_T2_8,88,9999,9999,9999,1387264056
1137,9,Ticks_ISO_T2_8,89,9999,9999,9999,1388064836
1137,9,Ticks_ISO_T2_8,90,9999,9999,9999,1388864560
1137,9,Ticks_ISO_T2_8,91,9999,9999,9999,1389664376
1137,9,Ticks_ISO_T2_8,92,9999,9999,9999,1390464060
1137,9,Ticks_ISO_T2_8,93,9999,9999,9999,1391264840
1137,9,Ticks_ISO_T2_8,94,9999,9999,9999,1392064572
1137,9,Ticks_ISO_T2_8,95,9999,9999,9999,1392864376
1137,9,Ticks_ISO_T2_8,96,9999,9999,9999,1393664116
1137,9,Ticks_ISO_T2_8,97,9999,9999,9999,1394464820
1137,9,Ticks_ISO_T2_8,98,9999,9999,9999,1395264624
1137,9,Ticks_ISO_T2_8,99,9999,9999,9999,1396064356
1137,9,Ticks_ISO_T2_8,100,9999,9999,9999,1396864048
1137,9,Ticks_ISO_T2_8,101,9999,9999,9999,1397664820
1137,9,Ticks_ISO_T2_8,102,9999,9999,9999,1398464560
1137,9,Ticks_ISO_T2_8,103,9999,9999,9999,1399264360
1137,9,Ticks_ISO_T2_8,104,9999,9999,9999,1400064096
1137,9,Ticks_ISO_T2_8,105,9999,9999,9999,1400864880
1137,9,Ticks_ISO_T2_8,106,9999,9999,9999,1401664612
1137,9,Ticks_ISO_T2_8,107,9999,9999,9999,1402464348
1137,9,Ticks_ISO_T2_8,108,9999,9999,9999,1403264104
1137,9,Ticks_ISO_T2_8,109,9999,9999,9999,1404064884
1137,9,Ticks_ISO_T2_8,110,9999,9999,9999,1404864620
1137,9,Ticks_ISO_T2_8,111,9999,9999,9999,1405664352
1137,9,Ticks_ISO_T2_8,112,9999,9999,9999,1406464084
1137,9,Ticks_ISO_T2_8,113,9999,9999,9999,1407264864
1137,9,Ticks_ISO_T2_8,114,9999,9999,9999,1408064596
1137,9,Ticks_ISO_T2_8,115,9999,9999,9999,1408864332
1137,9,Ticks_ISO_T2_8,116,9999,9999,9999,1409664088
1137,9,Ticks_ISO_T2_8,117,9999,9999,9999,1410464868
1137,9,Ticks_ISO_T2_8,118,9999,9999,9999,1411264600
1137,9,Ticks_ISO_T2_8,119,9999,9999,9999,1412064336
1138,10,Ticks_ISO_T2_5,0,5,42,127,1421630944
1138,10,Ticks_ISO_T2_5,1,5,42,127,1422130736
1138,10,Ticks_ISO_T2_5,2,5,42,127,1422631348
1138,10,Ticks_ISO_T2_5,3,5,42,127,1423130844
1138,10,Ticks_ISO_T2_5,4,5,42,127,1423630784
1138,10,Ticks_ISO_T2_5,5,1,48,57,1423640784
1138,10,Ticks_ISO_T2_5,6,1,48,64,1424130028
1138,10,Ticks_ISO_T2_5,7,5,42,127,1424131592
1138,10,Ticks_ISO_T2_5,8,1,48,63,1424629792
1138,10,Ticks_ISO_T2_5,9,5,42,127,1424631436
1138,10,Ticks_ISO_T2_5,10,5,42,127,1425130840
1138,10,Ticks_ISO_T2_5,11,1,48,66,1425133664
1138,10,Ticks_ISO_T2_5,12,5,42,127,1425630608
1138,10,Ticks_ISO_T2_5,13,1,48,61,1425637920
1138,10,Ticks_ISO_T2_5,14,5,42,127,1426131428
1138,10,Ticks_ISO_T2_5,15,1,48,68,1426135520
1138,10,Ticks_ISO_T2_5,16,1,48,62,1426630824
1138,10,Ticks_ISO_T2_5,17,5,42,127,1426632160
1138,10,Ticks_ISO_T2_5,18,5,42,127,1427130668
1138,10,Ticks_ISO_T2_5,19,1,48,65,1427135352
1138,10,Ticks_ISO_T2_5,20,5,42,127,1427630588
1138,10,Ticks_ISO_T2_5,21,1,48,69,1427645452
1138,10,Ticks_ISO_T2_5,22,5,42,127,1428131180
1138,10,Ticks_ISO_T2_5,23,1,48,67,1428147984
1138,10,Ticks_ISO_T2_5,24,5,42,127,1428630800
1138,10,Ticks_ISO_T2_5,25,1,48,58,1428632664
1138,10,Ticks_ISO_T2_5,26,5,42,127,1429130568
1138,10,Ticks_ISO_T2_5,27,1,48,70,1429141616
1138,10,Ticks_ISO_T2_5,28,5,42,127,1429631456
1138,10,Ticks_ISO_T2_5,29,1,48,65,1429635176
1138,10,Ticks_ISO_T2_5,30,5,42,127,1430131004
1138,10,Ticks_ISO_T2_5,31,1,48,64,1430142128
1138,10,Ticks_ISO_T2_5,32,5,42,127,1430630772
1138,10,Ticks_ISO_T2_5,33,1,48,63,1430639276
1138,10,Ticks_ISO_T2_5,34,5,42,127,1431130440
1138,10,Ticks_ISO_T2_5,35,1,48,41,1431144508
1138,10,Ticks_ISO_T2_5,36,1,38,13,1431157576
1138,10,Ticks_ISO_T2_5,37,1,48,61,1431623164
1138,10,Ticks_ISO_T2_5,38,5,42,127,1431631352
1138,10,Ticks_ISO_T2_5,39,5,42,127,1432130980
1138,10,Ticks_ISO_T2_5,40,1,48,59,1432147492
1138,10,Ticks_ISO_T2_5,41,5,42,127,1432630600
1138,10,Ticks_ISO_T2_5,42,1,48,58,1432643816
1138,10,Ticks_ISO_T2_5,43,5,42,127,1433131492
1138,10,Ticks_ISO_T2_5,44,1,48,63,1433141716
1138,10,Ticks_ISO_T2_5,45,5,42,127,1433631036
1138,10,Ticks_ISO_T2_5,46,1,48,64,1433640364
1138,10,Ticks_ISO_T2_5,47,5,42,127,1434130732
1138,10,Ticks_ISO_T2_5,48,1,48,63,1434150604
1138,10,Ticks_ISO_T2_5,49,5,42,127,1434630500
1138,10,Ticks_ISO_T2_5,50,1,48,55,1434651344
1138,10,Ticks_ISO_T2_5,51,5,42,127,1435131464
1138,10,Ticks_ISO_T2_5,52,1,48,61,1435142812
1138,10,Ticks_ISO_T2_5,53,5,42,127,1435630864
1138,10,Ticks_ISO_T2_5,54,1,48,62,1435644976
1138,10,Ticks_ISO_T2_5,55,5,42,127,1436130708
1138,10,Ticks_ISO_T2_5,56,1,48,59,1436159780
1138,10,Ticks_ISO_T2_5,57,5,42,127,1436631596
1138,10,Ticks_ISO_T2_5,58,1,48,59,1436659852
1138,10,Ticks_ISO_T2_5,59,5,42,127,1437130996
1138,10,Ticks_ISO_T2_5,60,1,48,62,1437141964
1138,10,Ticks_ISO_T2_5,61,5,42,127,1437630764
1138,10,Ticks_ISO_T2_5,62,1,48,61,1437642788
1138,10,Ticks_ISO_T2_5,63,5,42,127,1438130464
1138,10,Ticks_ISO_T2_5,64,1,48,62,1438154300
1138,10,Ticks_ISO_T2_5,65,5,42,127,1438631428
1138,10,Ticks_ISO_T2_5,66,1,48,54,1438648308
1138,10,Ticks_ISO_T2_5,67,5,42,127,1439130900
1138,10,Ticks_ISO_T2_5,68,1,48,59,1439147856
1138,10,Ticks_ISO_T2_5,69,5,42,127,1439630744
1138,10,Ticks_ISO_T2_5,70,1,48,60,1439641416
1138,10,Ticks_ISO_T2_5,71,5,42,127,1440130368
1138,10,Ticks_ISO_T2_5,72,1,48,55,1440155324
1138,10,Ticks_ISO_T2_5,73,5,42,127,1440631404
1138,10,Ticks_ISO_T2_5,74,1,48,57,1440646568
1138,10,Ticks_ISO_T2_5,75,5,42,127,1441130952
1138,10,Ticks_ISO_T2_5,76,1,48,57,1441152472
1138,10,Ticks_ISO_T2_5,77,5,42,127,1441630472
1138,10,Ticks_ISO_T2_5,78,1,48,61,1441649396
1138,10,Ticks_ISO_T2_5,79,1,48,62,1442129092
1138,10,Ticks_ISO_T2_5,80,5,42,127,1442131504
1138,10,Ticks_ISO_T2_5,81,5,42,127,1442630984
1138,10,Ticks_ISO_T2_5,82,1,48,62,1442652652
1138,10,Ticks_ISO_T2_5,83,5,42,127,1443130676
1138,10,Ticks_ISO_T2_5,84,1,48,63,1443149652
1138,10,Ticks_ISO_T2_5,85,5,42,127,1443630448
1138,10,Ticks_ISO_T2_5,86,1,48,58,1443659000
1138,10,Ticks_ISO_T2_5,87,5,42,127,1444131560
1138,10,Ticks_ISO_T2_5,88,1,48,59,1444149044
1138,10,Ticks_ISO_T2_5,89,5,42,127,1444630808
1138,10,Ticks_ISO_T2_5,90,1,48,54,1444646716
1138,10,Ticks_ISO_T2_5,91,5,42,127,1445130504
1138,10,Ticks_ISO_T2_5,92,1,48,62,1445161372
1138,10,Ticks_ISO_T2_5,93,5,42,127,1445631392
1138,10,Ticks_ISO_T2_5,94,1,48,58,1445655608
1138,10,Ticks_ISO_T2_5,95,5,42,127,1446131236
1138,10,Ticks_ISO_T2_5,96,1,48,56,1446150364
1138,10,Ticks_ISO_T2_5,97,5,42,127,1446630856
1138,10,Ticks_ISO_T2_5,98,1,48,59,1446669804
1138,10,Ticks_ISO_T2_5,99,5,42,127,1447130400
1138,10,Ticks_ISO_T2_5,100,1,48,48,1447143544
1138,10,Ticks_ISO_T2_5,101,5,42,127,1447631364
1138,10,Ticks_ISO_T2_5,102,1,48,47,1447646532
1138,10,Ticks_ISO_T2_5,103,5,42,127,1448130912
1138,10,Ticks_ISO_T2_5,104,1,48,48,1448152356
1138,10,Ticks_ISO_T2_5,105,5,42,127,1448630680
1138,10,Ticks_ISO_T2_5,106,1,48,43,1449051496
1138,10,Ticks_ISO_T2_5,107,5,42,127,1449131512
1138,10,Ticks_ISO_T2_5,108,1,48,56,1449628940
1138,10,Ticks_ISO_T2_5,109,5,42,127,1449631204
1138,10,Ticks_ISO_T2_5,110,5,42,127,1450130756
1138,10,Ticks_ISO_T2_5,111,1,48,56,1450144944
1138,10,Ticks_ISO_T2_5,112,1,48,52,1450625696
1138,10,Ticks_ISO_T2_5,113,5,42,127,1450630444
1138,10,Ticks_ISO_T2_5,114,5,42,127,1451131192
1138,10,Ticks_ISO_T2_5,115,1,48,50,1451152036
1138,10,Ticks_ISO_T2_5,116,5,42,127,1451630888
1138,10,Ticks_ISO_T2_5,117,1,48,51,1451634980
1138,10,Ticks_ISO_T2_5,118,5,42,127,1452130708
1138,10,Ticks_ISO_T2_5,119,1,48,49,1452150728
1138,10,Ticks_ISO_T2_5,120,5,42,127,1452631348
1138,10,Ticks_ISO_T2_5,121,1,48,51,1452633288
1138,10,Ticks_ISO_T2_5,122,5,42,127,1453131192
1138,10,Ticks_ISO_T2_5,123,1,48,60,1453140816
1138,10,Ticks_ISO_T2_5,124,1,48,53,1453627632
1138,10,Ticks_ISO_T2_5,125,5,42,127,1453631104
1138,10,Ticks_ISO_T2_5,126,5,42,127,1454130508
1138,10,Ticks_ISO_T2_5,127,1,48,56,1454135116
1138,10,Ticks_ISO_T2_5,128,5,42,127,1454631172
1138,10,Ticks_ISO_T2_5,129,1,48,58,1454643640
1138,10,Ticks_ISO_T2_5,130,5,42,127,1455131164
1138,10,Ticks_ISO_T2_5,131,1,48,60,1455144828
1138,10,Ticks_ISO_T2_5,132,5,42,127,1455630860
1138,10,Ticks_ISO_T2_5,133,1,48,55,1455638096
1138,10,Ticks_ISO_T2_5,134,5,42,127,1456130556
1138,10,Ticks_ISO_T2_5,135,1,48,51,1456148488
1138,10,Ticks_ISO_T2_5,136,5,42,127,1456631220
1138,10,Ticks_ISO_T2_5,137,1,48,45,1456647580
1138,10,Ticks_ISO_T2_5,138,5,42,127,1457130992
1138,10,Ticks_ISO_T2_5,139,1,48,49,1457139124
1138,10,Ticks_ISO_T2_5,140,5,42,127,1457630536
1138,10,Ticks_ISO_T2_5,141,1,48,55,1457653624
1138,10,Ticks_ISO_T2_5,142,5,42,127,1458131428
1138,10,Ticks_ISO_T2_5,143,1,48,42,1458141052
1138,10,Ticks_ISO_T2_5,144,5,42,127,1458630972
1138,10,Ticks_ISO_T2_5,145,1,48,49,1458644636
1138,10,Ticks_ISO_T2_5,146,5,42,127,1459130668
1138,10,Ticks_ISO_T2_5,147,1,48,55,1459148972
1138,10,Ticks_ISO_T2_5,148,5,42,127,1459630440
1138,10,Ticks_ISO_T2_5,149,1,48,52,1459648596
1138,10,Ticks_ISO_T2_5,150,5,42,127,1460131104
1138,10,Ticks_ISO_T2_5,151,1,48,56,1460143796
1138,10,Ticks_ISO_T2_5,152,5,42,127,1460631024
1138,10,Ticks_ISO_T2_5,153,1,48,57,1460642224
1138,10,Ticks_ISO_T2_5,154,5,42,127,1461130648
1138,10,Ticks_ISO_T2_5,155,1,48,53,1461150220
1138,10,Ticks_ISO_T2_5,156,5,42,127,1461631388
1138,10,Ticks_ISO_T2_5,157,1,48,48,1461646624
1138,10,Ticks_ISO_T2_5,158,5,42,127,1462130932
1138,10,Ticks_ISO_T2_5,159,1,48,49,1462150584
1138,10,Ticks_ISO_T2_5,160,5,42,127,1462630628
1138,10,Ticks_ISO_T2_5,161,1,48,52,1462651324
1138,10,Ticks_ISO_T2_5,162,5,42,127,1463130448
1138,10,Ticks_ISO_T2_5,163,1,48,42,1463148476
1138,10,Ticks_ISO_T2_5,164,5,42,127,1463631340
1138,10,Ticks_ISO_T2_5,165,1,48,43,1463646576
1138,10,Ticks_ISO_T2_5,166,5,42,127,1464131032
1138,10,Ticks_ISO_T2_5,167,1,48,46,1464153304
1138,10,Ticks_ISO_T2_5,168,5,42,127,1464630652
1138,10,Ticks_ISO_T2_5,169,1,48,46,1464663540
1138,10,Ticks_ISO_T2_5,170,5,42,127,1465131244
1138,10,Ticks_ISO_T2_5,171,1,48,40,1465152912
1138,10,Ticks_ISO_T2_5,172,5,42,127,1465631012
1138,10,Ticks_ISO_T2_5,173,1,48,51,1465659112
1138,10,Ticks_ISO_T2_5,174,5,42,127,1466130932
1138,10,Ticks_ISO_T2_5,175,1,48,40,1466151404
1138,10,Ticks_ISO_T2_5,176,5,42,127,1466630552
1138,10,Ticks_ISO_T2_5,177,1,48,48,1466642120
1138,10,Ticks_ISO_T2_5,178,5,42,127,1467131440
1138,10,Ticks_ISO_T2_5,179,1,48,47,1467147128
1138,10,Ticks_ISO_T2_5,180,5,42,127,1467630840
1138,10,Ticks_ISO_T2_5,181,1,48,44,1467637100
1138,10,Ticks_ISO_T2_5,182,5,42,127,1468130680
1138,10,Ticks_ISO_T2_5,183,1,48,39,1468138964
1138,10,Ticks_ISO_T2_5,184,5,42,127,1468631272
1138,10,Ticks_ISO_T2_5,185,1,48,39,1468635364
1138,10,Ticks_ISO_T2_5,186,5,42,127,1469131116
1138,10,Ticks_ISO_T2_5,187,1,48,43,1469135728
1138,10,Ticks_ISO_T2_5,188,5,42,127,1469630960
1138,10,Ticks_ISO_T2_5,189,1,48,45,1469649488
1138,10,Ticks_ISO_T2_5,190,5,42,127,1470130732
1138,10,Ticks_ISO_T2_5,191,1,48,45,1470143424
1138,10,Ticks_ISO_T2_5,192,5,42,127,1470631252
1138,10,Ticks_ISO_T2_5,193,1,48,45,1470635420
1138,10,Ticks_ISO_T2_5,194,5,42,127,1471130872
1138,10,Ticks_ISO_T2_5,195,1,48,51,1471135936
1138,10,Ticks_ISO_T2_5,196,5,42,127,1471630640
1138,10,Ticks_ISO_T2_5,197,1,48,46,1471639516
1138,10,Ticks_ISO_T2_5,198,5,42,127,1472130264
1138,10,Ticks_ISO_T2_5,199,1,48,40,1472150356
1138,10,Ticks_ISO_T2_5,200,1,48,46,1472623256
1138,10,Ticks_ISO_T2_5,201,5,42,127,1472630996
1138,10,Ticks_ISO_T2_5,202,1,48,47,1473115820
1138,10,Ticks_ISO_T2_5,203,5,42,127,1473130988
1138,10,Ticks_ISO_T2_5,204,1,48,50,1473612004
1138,10,Ticks_ISO_T2_5,205,5,42,127,1473630732
1138,10,Ticks_ISO_T2_5,206,1,48,45,1474126580
1138,10,Ticks_ISO_T2_5,207,5,42,127,1474131252
1138,10,Ticks_ISO_T2_5,208,1,48,45,1474618048
1138,10,Ticks_ISO_T2_5,209,5,42,127,1474630948
1138,10,Ticks_ISO_T2_5,210,1,48,41,1475109368
1138,10,Ticks_ISO_T2_5,211,5,42,127,1475130644
1138,10,Ticks_ISO_T2_5,212,1,48,46,1475614668
1138,10,Ticks_ISO_T2_5,213,5,42,127,1475630712
1138,10,Ticks_ISO_T2_5,214,5,42,127,1476131312
1138,10,Ticks_ISO_T2_5,215,1,48,43,1476135552
1138,10,Ticks_ISO_T2_5,216,1,48,41,1476630028
1138,10,Ticks_ISO_T2_5,217,5,42,127,1476631676
1138,10,Ticks_ISO_T2_5,218,5,42,127,1477130776
1138,10,Ticks_ISO_T2_5,219,1,48,46,1477132112
1138,10,Ticks_ISO_T2_5,220,1,48,40,1477629248
1138,10,Ticks_ISO_T2_5,221,5,42,127,1477631288
1138,10,Ticks_ISO_T2_5,222,1,48,43,1478129548
1138,10,Ticks_ISO_T2_5,223,5,42,127,1478130984
1138,10,Ticks_ISO_T2_5,224,1,48,43,1478626828
1138,10,Ticks_ISO_T2_5,225,5,42,127,1478630900
1138,10,Ticks_ISO_T2_5,226,5,42,127,1479130748
1138,10,Ticks_ISO_T2_5,227,1,48,42,1479143892
1138,10,Ticks_ISO_T2_5,228,5,42,127,1479631492
1138,10,Ticks_ISO_T2_5,229,1,48,38,1479639400
1138,10,Ticks_ISO_T2_5,230,5,42,127,1480130888
1138,10,Ticks_ISO_T2_5,231,1,48,38,1480136100
1138,10,Ticks_ISO_T2_5,232,5,42,127,1480630880
1138,10,Ticks_ISO_T2_5,233,1,48,38,1480638788
1138,10,Ticks_ISO_T2_5,234,1,48,41,1481129812
1138,10,Ticks_ISO_T2_5,235,5,42,127,1481131244
1138,10,Ticks_ISO_T2_5,236,5,42,127,1481631020
1138,10,Ticks_ISO_T2_5,237,1,48,38,1481639372
1138,10,Ticks_ISO_T2_5,238,5,42,127,1482130788
1138,10,Ticks_ISO_T2_5,239,1,48,35,1482135548
1138,10,Ticks_ISO_T2_5,240,5,42,127,1482630708
1138,10,Ticks_ISO_T2_5,241,1,48,36,1482644296
1138,10,Ticks_ISO_T2_5,242,5,42,127,1483131224
1138,10,Ticks_ISO_T2_5,243,1,48,41,1483136588
1138,10,Ticks_ISO_T2_5,244,1,48,42,1483627512
1138,10,Ticks_ISO_T2_5,245,5,42,127,1483630840
1138,10,Ticks_ISO_T2_5,246,1,48,42,1484126440
1138,10,Ticks_ISO_T2_5,247,5,42,127,1484130808
1138,10,Ticks_ISO_T2_5,248,5,42,127,1484631532
1138,10,Ticks_ISO_T2_5,249,1,48,43,1484641904
1138,10,Ticks_ISO_T2_5,250,1,48,48,1485130696
1138,10,Ticks_ISO_T2_5,251,5,42,127,1485132264
1138,10,Ticks_ISO_T2_5,252,1,48,48,1485627212
1138,10,Ticks_ISO_T2_5,253,5,42,127,1485630988
1138,10,Ticks_ISO_T2_5,254,5,42,127,1486130688
1138,10,Ticks_ISO_T2_5,255,1,48,42,1486139496
1138,10,Ticks_ISO_T2_5,0,9999,9999,9999,1421628508
1138,10,Ticks_ISO_T2_5,1,9999,9999,9999,1422128224
1138,10,Ticks_ISO_T2_5,2,9999,9999,9999,1422628912
1138,10,Ticks_ISO_T2_5,3,9999,9999,9999,1423128632
1138,10,Ticks_ISO_T2_5,4,9999,9999,9999,1423628348
1138,10,Ticks_ISO_T2_5,5,9999,9999,9999,1424128116
1138,10,Ticks_ISO_T2_5,6,9999,9999,9999,1424628784
1138,10,Ticks_ISO_T2_5,7,9999,9999,9999,1425128556
1138,10,Ticks_ISO_T2_5,8,9999,9999,9999,1425628248
1138,10,Ticks_ISO_T2_5,9,9999,9999,9999,1426128992
1138,10,Ticks_ISO_T2_5,10,9999,9999,9999,1426628688
1138,10,Ticks_ISO_T2_5,11,9999,9999,9999,1427128380
1138,10,Ticks_ISO_T2_5,12,9999,9999,9999,1427628152
1138,10,Ticks_ISO_T2_5,13,9999,9999,9999,1428128820
1138,10,Ticks_ISO_T2_5,14,9999,9999,9999,1428628588
1138,10,Ticks_ISO_T2_5,15,9999,9999,9999,1429128280
1138,10,Ticks_ISO_T2_5,16,9999,9999,9999,1429629020
1138,10,Ticks_ISO_T2_5,17,9999,9999,9999,1430128716
1138,10,Ticks_ISO_T2_5,18,9999,9999,9999,1430628460
1138,10,Ticks_ISO_T2_5,19,9999,9999,9999,1431128156
1138,10,Ticks_ISO_T2_5,20,9999,9999,9999,1431628916
1138,10,Ticks_ISO_T2_5,21,9999,9999,9999,1432128620
1138,10,Ticks_ISO_T2_5,22,9999,9999,9999,1432628312
1138,10,Ticks_ISO_T2_5,23,9999,9999,9999,1433129056
1138,10,Ticks_ISO_T2_5,24,9999,9999,9999,1433628752
1138,10,Ticks_ISO_T2_5,25,9999,9999,9999,1434128448
1138,10,Ticks_ISO_T2_5,26,9999,9999,9999,1434628216
1138,10,Ticks_ISO_T2_5,27,9999,9999,9999,1435128880
1138,10,Ticks_ISO_T2_5,28,9999,9999,9999,1435628648
1138,10,Ticks_ISO_T2_5,29,9999,9999,9999,1436128344
1138,10,Ticks_ISO_T2_5,30,9999,9999,9999,1436629088
1138,10,Ticks_ISO_T2_5,31,9999,9999,9999,1437128784
1138,10,Ticks_ISO_T2_5,32,9999,9999,9999,1437628480
1138,10,Ticks_ISO_T2_5,33,9999,9999,9999,1438128176
1138,10,Ticks_ISO_T2_5,34,9999,9999,9999,1438628920
1138,10,Ticks_ISO_T2_5,35,9999,9999,9999,1439128688
1138,10,Ticks_ISO_T2_5,36,9999,9999,9999,1439628384
1138,10,Ticks_ISO_T2_5,37,9999,9999,9999,1440128080
1138,10,Ticks_ISO_T2_5,38,9999,9999,9999,1440628820
1138,10,Ticks_ISO_T2_5,39,9999,9999,9999,1441128516
1138,10,Ticks_ISO_T2_5,40,9999,9999,9999,1441628260
1138,10,Ticks_ISO_T2_5,41,9999,9999,9999,1442128964
1138,10,Ticks_ISO_T2_5,42,9999,9999,9999,1442628700
1138,10,Ticks_ISO_T2_5,43,9999,9999,9999,1443128392
1138,10,Ticks_ISO_T2_5,44,9999,9999,9999,1443628084
1138,10,Ticks_ISO_T2_5,45,9999,9999,9999,1444128828
1138,10,Ticks_ISO_T2_5,46,9999,9999,9999,1444628596
1138,10,Ticks_ISO_T2_5,47,9999,9999,9999,1445128292
1138,10,Ticks_ISO_T2_5,48,9999,9999,9999,1445629032
1138,10,Ticks_ISO_T2_5,49,9999,9999,9999,1446128728
1138,10,Ticks_ISO_T2_5,50,9999,9999,9999,1446628420
1138,10,Ticks_ISO_T2_5,51,9999,9999,9999,1447128116
1138,10,Ticks_ISO_T2_5,52,9999,9999,9999,1447628856
1138,10,Ticks_ISO_T2_5,53,9999,9999,9999,1448128624
1138,10,Ticks_ISO_T2_5,54,9999,9999,9999,1448628320
1138,10,Ticks_ISO_T2_5,55,9999,9999,9999,1449129076
1138,10,Ticks_ISO_T2_5,56,9999,9999,9999,1449628732
1138,10,Ticks_ISO_T2_5,57,9999,9999,9999,1450128472
1138,10,Ticks_ISO_T2_5,58,9999,9999,9999,1450628160
1138,10,Ticks_ISO_T2_5,59,9999,9999,9999,1451128904
1138,10,Ticks_ISO_T2_5,60,9999,9999,9999,1451628604
1138,10,Ticks_ISO_T2_5,61,9999,9999,9999,1452128348
1138,10,Ticks_ISO_T2_5,62,9999,9999,9999,1452629064
1138,10,Ticks_ISO_T2_5,63,9999,9999,9999,1453128756
1138,10,Ticks_ISO_T2_5,64,9999,9999,9999,1453628520
1138,10,Ticks_ISO_T2_5,65,9999,9999,9999,1454128220
1138,10,Ticks_ISO_T2_5,66,9999,9999,9999,1454628960
1138,10,Ticks_ISO_T2_5,67,9999,9999,9999,1455128656
1138,10,Ticks_ISO_T2_5,68,9999,9999,9999,1455628352
1138,10,Ticks_ISO_T2_5,69,9999,9999,9999,1456128120
1138,10,Ticks_ISO_T2_5,70,9999,9999,9999,1456628788
1138,10,Ticks_ISO_T2_5,71,9999,9999,9999,1457128556
1138,10,Ticks_ISO_T2_5,72,9999,9999,9999,1457628252
1138,10,Ticks_ISO_T2_5,73,9999,9999,9999,1458128992
1138,10,Ticks_ISO_T2_5,74,9999,9999,9999,1458628688
1138,10,Ticks_ISO_T2_5,75,9999,9999,9999,1459128380
1138,10,Ticks_ISO_T2_5,76,9999,9999,9999,1459628152
1138,10,Ticks_ISO_T2_5,77,9999,9999,9999,1460128820
1138,10,Ticks_ISO_T2_5,78,9999,9999,9999,1460628588
1138,10,Ticks_ISO_T2_5,79,9999,9999,9999,1461128284
1138,10,Ticks_ISO_T2_5,80,9999,9999,9999,1461629024
1138,10,Ticks_ISO_T2_5,81,9999,9999,9999,1462128720
1138,10,Ticks_ISO_T2_5,82,9999,9999,9999,1462628416
1138,10,Ticks_ISO_T2_5,83,9999,9999,9999,1463128160
1138,10,Ticks_ISO_T2_5,84,9999,9999,9999,1463628904
1138,10,Ticks_ISO_T2_5,85,9999,9999,9999,1464128596
1138,10,Ticks_ISO_T2_5,86,9999,9999,9999,1464628292
1138,10,Ticks_ISO_T2_5,87,9999,9999,9999,1465129032
1138,10,Ticks_ISO_T2_5,88,9999,9999,9999,1465628728
1138,10,Ticks_ISO_T2_5,89,9999,9999,9999,1466128496
1138,10,Ticks_ISO_T2_5,90,9999,9999,9999,1466628192
1138,10,Ticks_ISO_T2_5,91,9999,9999,9999,1467128932
1138,10,Ticks_ISO_T2_5,92,9999,9999,9999,1467628628
1138,10,Ticks_ISO_T2_5,93,9999,9999,9999,1468128320
1138,10,Ticks_ISO_T2_5,94,9999,9999,9999,1468629060
1138,10,Ticks_ISO_T2_5,95,9999,9999,9999,1469128756
1138,10,Ticks_ISO_T2_5,96,9999,9999,9999,1469628528
1138,10,Ticks_ISO_T2_5,97,9999,9999,9999,1470128220
1138,10,Ticks_ISO_T2_5,98,9999,9999,9999,1470628964
1138,10,Ticks_ISO_T2_5,99,9999,9999,9999,1471128660
1138,10,Ticks_ISO_T2_5,100,9999,9999,9999,1471628352
1138,10,Ticks_ISO_T2_5,101,9999,9999,9999,1472128052
1138,10,Ticks_ISO_T2_5,102,9999,9999,9999,1472628784
1138,10,Ticks_ISO_T2_5,103,9999,9999,9999,1473128556
1138,10,Ticks_ISO_T2_5,104,9999,9999,9999,1473628224
1138,10,Ticks_ISO_T2_5,105,9999,9999,9999,1474128968
1138,10,Ticks_ISO_T2_5,106,9999,9999,9999,1474628664
1138,10,Ticks_ISO_T2_5,107,9999,9999,9999,1475128432
1138,10,Ticks_ISO_T2_5,108,9999,9999,9999,1475628128
1138,10,Ticks_ISO_T2_5,109,9999,9999,9999,1476128876
1138,10,Ticks_ISO_T2_5,110,9999,9999,9999,1476628572
1138,10,Ticks_ISO_T2_5,111,9999,9999,9999,1477128268
1138,10,Ticks_ISO_T2_5,112,9999,9999,9999,1477629040
1138,10,Ticks_ISO_T2_5,113,9999,9999,9999,1478128704
1138,10,Ticks_ISO_T2_5,114,9999,9999,9999,1478628464
1138,10,Ticks_ISO_T2_5,115,9999,9999,9999,1479128164
1138,10,Ticks_ISO_T2_5,116,9999,9999,9999,1479628908
1138,10,Ticks_ISO_T2_5,117,9999,9999,9999,1480128604
1138,10,Ticks_ISO_T2_5,118,9999,9999,9999,1480628296
1138,10,Ticks_ISO_T2_5,119,9999,9999,9999,1481129040
1138,10,Ticks_ISO_T2_5,120,9999,9999,9999,1481628732
1138,10,Ticks_ISO_T2_5,121,9999,9999,9999,1482128500
1138,10,Ticks_ISO_T2_5,122,9999,9999,9999,1482628196
1138,10,Ticks_ISO_T2_5,123,9999,9999,9999,1483128936
1138,10,Ticks_ISO_T2_5,124,9999,9999,9999,1483628628
1138,10,Ticks_ISO_T2_5,125,9999,9999,9999,1484128372
1138,10,Ticks_ISO_T2_5,126,9999,9999,9999,1484629092
1138,10,Ticks_ISO_T2_5,127,9999,9999,9999,1485128788
1138,10,Ticks_ISO_T2_5,128,9999,9999,9999,1485628476
1138,10,Ticks_ISO_T2_5,129,9999,9999,9999,1486128180
1139,20,Ticks_Linear_8,0,5,42,127,1495769376
1139,20,Ticks_Linear_8,1,5,42,127,1496589564
1139,20,Ticks_Linear_8,2,5,42,127,1497409904
1139,20,Ticks_Linear_8,3,5,42,127,1498230340
1139,20,Ticks_Linear_8,4,1,48,60,1499030640
1139,20,Ticks_Linear_8,5,5,42,127,1499050376
1139,20,Ticks_Linear_8,6,1,48,59,1499846452
1139,20,Ticks_Linear_8,7,5,42,127,1499860284
1139,20,Ticks_Linear_8,8,5,42,127,1500670272
1139,20,Ticks_Linear_8,9,1,48,17,1500697052
1139,20,Ticks_Linear_8,10,1,48,62,1501431904
1139,20,Ticks_Linear_8,11,5,42,127,1501480692
1139,20,Ticks_Linear_8,12,1,48,59,1502255364
1139,20,Ticks_Linear_8,13,5,42,127,1502290456
1139,20,Ticks_Linear_8,14,1,48,58,1503096900
1139,20,Ticks_Linear_8,15,5,42,127,1503100612
1139,20,Ticks_Linear_8,16,5,42,127,1503900196
1139,20,Ticks_Linear_8,17,1,48,50,1503903164
1139,20,Ticks_Linear_8,18,1,48,52,1504688116
1139,20,Ticks_Linear_8,19,5,42,127,1504699764
1139,20,Ticks_Linear_8,20,5,42,127,1505499420
1139,20,Ticks_Linear_8,21,1,48,51,1505524324
1139,20,Ticks_Linear_8,22,5,42,127,1506300412
1139,20,Ticks_Linear_8,23,1,48,50,1506316256
1139,20,Ticks_Linear_8,24,1,48,48,1507081220
1139,20,Ticks_Linear_8,25,5,42,127,1507099908
1139,20,Ticks_Linear_8,26,1,48,53,1507857808
1139,20,Ticks_Linear_8,27,5,42,127,1507889596
1139,20,Ticks_Linear_8,28,5,42,127,1508680264
1139,20,Ticks_Linear_8,29,1,48,45,1508681232
1139,20,Ticks_Linear_8,30,5,42,127,1509469656
1139,20,Ticks_Linear_8,31,1,48,44,1509475344
1139,20,Ticks_Linear_8,32,5,42,127,1510260268
1139,20,Ticks_Linear_8,33,1,48,40,1510279420
1139,20,Ticks_Linear_8,34,5,42,127,1511049736
1139,20,Ticks_Linear_8,35,1,48,46,1511083928
1139,20,Ticks_Linear_8,36,5,42,127,1511829764
1139,20,Ticks_Linear_8,37,1,48,48,1511842244
1139,20,Ticks_Linear_8,38,1,48,51,1512607792
1139,20,Ticks_Linear_8,39,5,42,127,1512610308
1139,20,Ticks_Linear_8,40,5,42,127,1513389372
1139,20,Ticks_Linear_8,41,1,48,44,1513395704
1139,20,Ticks_Linear_8,42,1,48,51,1514147700
1139,20,Ticks_Linear_8,43,5,42,127,1514169616
1139,20,Ticks_Linear_8,44,1,48,48,1514936716
1139,20,Ticks_Linear_8,45,5,42,127,1514950020
1139,20,Ticks_Linear_8,46,5,42,127,1515720020
1139,20,Ticks_Linear_8,47,1,48,55,1515723436
1139,20,Ticks_Linear_8,48,5,42,127,1516490308
1139,20,Ticks_Linear_8,49,1,48,54,1516507368
1139,20,Ticks_Linear_8,50,5,42,127,1517260156
1139,20,Ticks_Linear_8,51,1,48,48,1517270616
1139,20,Ticks_Linear_8,52,5,42,127,1518030148
1139,20,Ticks_Linear_8,53,1,48,56,1518041208
1139,20,Ticks_Linear_8,54,5,42,127,1518800216
1139,20,Ticks_Linear_8,55,1,48,46,1518812176
1139,20,Ticks_Linear_8,56,1,48,56,1519548372
1139,20,Ticks_Linear_8,57,5,42,127,1519560244
1139,20,Ticks_Linear_8,58,5,42,127,1520320136
1139,20,Ticks_Linear_8,59,1,48,63,1520359808
1139,20,Ticks_Linear_8,60,1,48,48,1521075996
1139,20,Ticks_Linear_8,61,5,42,127,1521079788
1139,20,Ticks_Linear_8,62,5,42,127,1521839456
1139,20,Ticks_Linear_8,63,1,48,45,1521855900
1139,20,Ticks_Linear_8,64,1,48,49,1522596288
1139,20,Ticks_Linear_8,65,5,42,127,1522600452
1139,20,Ticks_Linear_8,66,5,42,127,1523349860
1139,20,Ticks_Linear_8,67,1,48,51,1523368784
1139,20,Ticks_Linear_8,68,5,42,127,1524099412
1139,20,Ticks_Linear_8,69,1,48,52,1524146032
1139,20,Ticks_Linear_8,70,1,48,48,1524835948
1139,20,Ticks_Linear_8,71,5,42,127,1524850076
1139,20,Ticks_Linear_8,72,1,48,47,1525588108
1139,20,Ticks_Linear_8,73,5,42,127,1525599824
1139,20,Ticks_Linear_8,74,5,42,127,1526350056
1139,20,Ticks_Linear_8,75,1,48,41,1526386972
1139,20,Ticks_Linear_8,76,5,42,127,1527089420
1139,20,Ticks_Linear_8,77,1,48,50,1527092160
1139,20,Ticks_Linear_8,78,5,42,127,1527830056
1139,20,Ticks_Linear_8,79,1,48,61,1527853916
1139,20,Ticks_Linear_8,80,5,42,127,1528570168
1139,20,Ticks_Linear_8,81,1,48,55,1528581228
1139,20,Ticks_Linear_8,82,5,42,127,1529309684
1139,20,Ticks_Linear_8,83,1,48,62,1529334892
1139,20,Ticks_Linear_8,84,5,42,127,1530049872
1139,20,Ticks_Linear_8,85,1,48,51,1530090664
1139,20,Ticks_Linear_8,86,5,42,127,1530780172
1139,20,Ticks_Linear_8,87,1,48,55,1530812876
1139,20,Ticks_Linear_8,88,5,42,127,1531510104
1139,20,Ticks_Linear_8,89,1,48,62,1531535084
1139,20,Ticks_Linear_8,90,5,42,127,1532240156
1139,20,Ticks_Linear_8,91,1,48,58,1532254804
1139,20,Ticks_Linear_8,92,5,42,127,1532970236
1139,20,Ticks_Linear_8,93,1,48,61,1533001812
1139,20,Ticks_Linear_8,94,5,42,127,1533699492
1139,20,Ticks_Linear_8,95,1,48,52,1533711676
1139,20,Ticks_Linear_8,96,5,42,127,1534420208
1139,20,Ticks_Linear_8,97,1,48,58,1534450740
1139,20,Ticks_Linear_8,98,5,42,127,1535140176
1139,20,Ticks_Linear_8,99,1,48,53,1535154228
1139,20,Ticks_Linear_8,100,5,42,127,1535860068
1139,20,Ticks_Linear_8,101,1,48,54,1535868360
1139,20,Ticks_Linear_8,102,5,42,127,1536580012
1139,20,Ticks_Linear_8,103,1,48,58,1536585072
1139,20,Ticks_Linear_8,104,5,42,127,1537299904
1139,20,Ticks_Linear_8,105,1,48,64,1537305192
1139,20,Ticks_Linear_8,106,5,42,127,1538009612
1139,20,Ticks_Linear_8,107,1,48,62,1538017460
1139,20,Ticks_Linear_8,108,5,42,127,1538719996
1139,20,Ticks_Linear_8,109,1,48,60,1538737428
1139,20,Ticks_Linear_8,110,5,42,127,1539429780
1139,20,Ticks_Linear_8,111,1,48,57,1539459264
1139,20,Ticks_Linear_8,112,5,42,127,1540140512
1139,20,Ticks_Linear_8,113,1,48,53,1540163852
1139,20,Ticks_Linear_8,114,5,42,127,1540849920
1139,20,Ticks_Linear_8,115,1,48,55,1540886884
1139,20,Ticks_Linear_8,116,5,42,127,1541549444
1139,20,Ticks_Linear_8,117,1,48,51,1541587676
1139,20,Ticks_Linear_8,118,5,42,127,1542249868
1139,20,Ticks_Linear_8,119,1,48,49,1542260404
1139,20,Ticks_Linear_8,120,1,48,54,1542940184
1139,20,Ticks_Linear_8,121,5,42,127,1542950184
1139,20,Ticks_Linear_8,122,5,42,127,1543649792
1139,20,Ticks_Linear_8,123,1,48,56,1543652688
1139,20,Ticks_Linear_8,124,1,48,53,1544334884
1139,20,Ticks_Linear_8,125,5,42,127,1544350208
1139,20,Ticks_Linear_8,126,5,42,127,1545040204
1139,20,Ticks_Linear_8,127,1,48,59,1545062968
1139,20,Ticks_Linear_8,128,5,42,127,1545730440
1139,20,Ticks_Linear_8,129,1,48,59,1545749744
1139,20,Ticks_Linear_8,130,1,48,54,1546429288
1139,20,Ticks_Linear_8,131,5,42,127,1546430856
1139,20,Ticks_Linear_8,132,5,42,127,1547119904
1139,20,Ticks_Linear_8,133,1,48,51,1547123996
1139,20,Ticks_Linear_8,134,5,42,127,1547810120
1139,20,Ticks_Linear_8,135,1,48,53,1547857196
1139,20,Ticks_Linear_8,136,1,48,53,1548465856
1139,20,Ticks_Linear_8,137,5,42,127,1548490092
1139,20,Ticks_Linear_8,138,1,48,50,1549167328
1139,20,Ticks_Linear_8,139,5,42,127,1549169924
1139,20,Ticks_Linear_8,140,1,48,57,1549830668
1139,20,Ticks_Linear_8,141,5,42,127,1549849880
1139,20,Ticks_Linear_8,142,1,48,60,1550501960
1139,20,Ticks_Linear_8,143,5,42,127,1550530008
1139,20,Ticks_Linear_8,144,1,48,60,1551179516
1139,20,Ticks_Linear_8,145,5,42,127,1551209836
1139,20,Ticks_Linear_8,146,1,48,58,1551864656
1139,20,Ticks_Linear_8,147,5,42,127,1551879456
1139,20,Ticks_Linear_8,148,1,48,58,1552518288
1139,20,Ticks_Linear_8,149,5,42,127,1552550372
1139,20,Ticks_Linear_8,150,1,48,69,1553190224
1139,20,Ticks_Linear_8,151,5,42,127,1553219992
1139,20,Ticks_Linear_8,152,1,48,59,1553872520
1139,20,Ticks_Linear_8,153,5,42,127,1553889640
1139,20,Ticks_Linear_8,154,1,48,52,1554540820
1139,20,Ticks_Linear_8,155,5,42,127,1554560480
1139,20,Ticks_Linear_8,156,1,48,69,1555219624
1139,20,Ticks_Linear_8,157,5,42,127,1555220888
1139,20,Ticks_Linear_8,158,1,48,67,1555876552
1139,20,Ticks_Linear_8,159,5,42,127,1555880720
1139,20,Ticks_Linear_8,160,5,42,127,1556539712
1139,20,Ticks_Linear_8,161,1,48,57,1556556232
1139,20,Ticks_Linear_8,162,5,42,127,1557200592
1139,20,Ticks_Linear_8,163,1,48,53,1557205060
1139,20,Ticks_Linear_8,164,5,42,127,1557859756
1139,20,Ticks_Linear_8,165,1,48,72,1557864968
1139,20,Ticks_Linear_8,166,5,42,127,1558509832
1139,20,Ticks_Linear_8,167,1,48,72,1558520968
1139,20,Ticks_Linear_8,168,1,48,59,1559160524
1139,20,Ticks_Linear_8,169,5,42,127,1559161788
1139,20,Ticks_Linear_8,170,5,42,127,1559810376
1139,20,Ticks_Linear_8,171,1,48,59,1559832668
1139,20,Ticks_Linear_8,172,5,42,127,1560469912
1139,20,Ticks_Linear_8,173,1,48,59,1560499544
1139,20,Ticks_Linear_8,174,5,42,127,1561120060
1139,20,Ticks_Linear_8,175,1,48,65,1561153808
1139,20,Ticks_Linear_8,176,5,42,127,1561760124
1139,20,Ticks_Linear_8,177,1,48,61,1561810500
1139,20,Ticks_Linear_8,178,5,42,127,1562400384
1139,20,Ticks_Linear_8,179,1,48,47,1562428672
1139,20,Ticks_Linear_8,180,5,42,127,1563040224
1139,20,Ticks_Linear_8,181,1,48,57,1563086696
1139,20,Ticks_Linear_8,182,1,48,61,1563677740
1139,20,Ticks_Linear_8,183,5,42,127,1563680332
1139,20,Ticks_Linear_8,184,5,42,127,1564320104
1139,20,Ticks_Linear_8,185,1,48,55,1564323148
1139,20,Ticks_Linear_8,186,5,42,127,1564949736
1139,20,Ticks_Linear_8,187,1,48,51,1564985352
1139,20,Ticks_Linear_8,188,5,42,127,1565579540
1139,20,Ticks_Linear_8,189,1,48,60,1565594184
1139,20,Ticks_Linear_8,190,5,42,127,1566210512
1139,20,Ticks_Linear_8,191,1,48,63,1566228020
1139,20,Ticks_Linear_8,192,5,42,127,1566850428
1139,20,Ticks_Linear_8,193,1,48,71,1566874212
1139,20,Ticks_Linear_8,194,5,42,127,1567490468
1139,20,Ticks_Linear_8,195,1,48,67,1567505336
1139,20,Ticks_Linear_8,196,5,42,127,1568120272
1139,20,Ticks_Linear_8,197,1,48,63,1568128416
1139,20,Ticks_Linear_8,198,5,42,127,1568739644
1139,20,Ticks_Linear_8,199,1,48,63,1568756604
1139,20,Ticks_Linear_8,200,5,42,127,1569360356
1139,20,Ticks_Linear_8,201,1,48,63,1569370296
1139,20,Ticks_Linear_8,202,5,42,127,1569979680
1139,20,Ticks_Linear_8,203,1,48,56,1570011780
1139,20,Ticks_Linear_8,204,5,42,127,1570600396
1139,20,Ticks_Linear_8,205,1,48,68,1570605308
1139,20,Ticks_Linear_8,206,5,42,127,1571209608
1139,20,Ticks_Linear_8,207,1,48,59,1571220744
1139,20,Ticks_Linear_8,208,5,42,127,1571819840
1139,20,Ticks_Linear_8,209,1,48,55,1571822580
1139,20,Ticks_Linear_8,210,1,48,59,1572427248
1139,20,Ticks_Linear_8,211,5,42,127,1572430144
1139,20,Ticks_Linear_8,212,5,42,127,1573039436
1139,20,Ticks_Linear_8,213,1,48,66,1573042404
1139,20,Ticks_Linear_8,214,5,42,127,1573649892
1139,20,Ticks_Linear_8,215,1,48,54,1573661400
1139,20,Ticks_Linear_8,216,5,42,127,1574249892
1139,20,Ticks_Linear_8,217,1,48,61,1574278852
1139,20,Ticks_Linear_8,218,5,42,127,1574849796
1139,20,Ticks_Linear_8,219,1,48,56,1574853284
1139,20,Ticks_Linear_8,220,5,42,127,1575450064
1139,20,Ticks_Linear_8,221,1,48,48,1575469068
1139,20,Ticks_Linear_8,222,5,42,127,1576050212
1139,20,Ticks_Linear_8,223,1,48,52,1576052812
1139,20,Ticks_Linear_8,224,5,42,127,1576650264
1139,20,Ticks_Linear_8,225,1,48,59,1576658260
1139,20,Ticks_Linear_8,226,5,42,127,1577240200
1139,20,Ticks_Linear_8,227,1,48,65,1577248048
1139,20,Ticks_Linear_8,228,5,42,127,1577829868
1139,20,Ticks_Linear_8,229,1,48,68,1577851112
1139,20,Ticks_Linear_8,230,5,42,127,1578419508
1139,20,Ticks_Linear_8,231,1,48,63,1578438060
1139,20,Ticks_Linear_8,232,5,42,127,1579010344
1139,20,Ticks_Linear_8,233,1,48,73,1579032256
1139,20,Ticks_Linear_8,234,1,48,69,1579605544
1139,20,Ticks_Linear_8,235,5,42,127,1579609340
1139,20,Ticks_Linear_8,236,5,42,127,1580190248
1139,20,Ticks_Linear_8,237,1,48,69,1580213208
1139,20,Ticks_Linear_8,238,5,42,127,1580769776
1139,20,Ticks_Linear_8,239,1,48,73,1580777700
1139,20,Ticks_Linear_8,240,5,42,127,1581350132
1139,20,Ticks_Linear_8,241,1,48,61,1581392340
1139,20,Ticks_Linear_8,242,5,42,127,1581930132
1139,20,Ticks_Linear_8,243,1,48,60,1581947400
1139,20,Ticks_Linear_8,244,5,42,127,1582509368
1139,20,Ticks_Linear_8,245,1,48,65,1582537116
1139,20,Ticks_Linear_8,246,5,42,127,1583079684
1139,20,Ticks_Linear_8,247,1,48,64,1583095528
1139,20,Ticks_Linear_8,248,5,42,127,1583650080
1139,20,Ticks_Linear_8,249,1,48,64,1583684344
1139,20,Ticks_Linear_8,250,5,42,127,1584219572
1139,20,Ticks_Linear_8,251,1,48,60,1584228336
1139,20,Ticks_Linear_8,252,5,42,127,1584789992
1139,20,Ticks_Linear_8,253,1,48,61,1584798284
1139,20,Ticks_Linear_8,254,5,42,127,1585360236
1139,20,Ticks_Linear_8,255,1,48,51,1585378184
1139,20,Ticks_Linear_8,256,5,42,127,1585920368
1139,20,Ticks_Linear_8,257,1,48,62,1585943032
1139,20,Ticks_Linear_8,258,5,42,127,1586479456
1139,20,Ticks_Linear_8,259,1,48,62,1586492308
1139,20,Ticks_Linear_8,260,5,42,127,1587039612
1139,20,Ticks_Linear_8,261,1,48,44,1587053664
1139,20,Ticks_Linear_8,262,1,48,47,1587593628
1139,20,Ticks_Linear_8,263,5,42,127,1587599816
1139,20,Ticks_Linear_8,264,5,42,127,1588159884
1139,20,Ticks_Linear_8,265,1,48,57,1588164196
1139,20,Ticks_Linear_8,266,5,42,127,1588709828
1139,20,Ticks_Linear_8,267,1,48,57,1588740736
1139,20,Ticks_Linear_8,268,5,42,127,1589259852
1139,20,Ticks_Linear_8,269,1,48,62,1589272332
1139,20,Ticks_Linear_8,270,5,42,127,1589809432
1139,20,Ticks_Linear_8,271,1,48,55,1589842952
1139,20,Ticks_Linear_8,272,5,42,127,1590360348
1139,20,Ticks_Linear_8,273,1,48,67,1590375620
1139,20,Ticks_Linear_8,274,5,42,127,1590919536
1139,20,Ticks_Linear_8,275,1,48,60,1590931496
1139,20,Ticks_Linear_8,276,5,42,127,1591460348
1139,20,Ticks_Linear_8,277,1,48,54,1591482040
1139,20,Ticks_Linear_8,278,5,42,127,1592000112
1139,20,Ticks_Linear_8,279,1,48,59,1592011920
1139,20,Ticks_Linear_8,280,5,42,127,1592539504
1139,20,Ticks_Linear_8,281,1,48,56,1592581716
1139,20,Ticks_Linear_8,282,1,48,61,1593080388
1139,20,Ticks_Linear_8,283,5,42,127,1593081652
1139,20,Ticks_Linear_8,284,5,42,127,1593619856
1139,20,Ticks_Linear_8,285,1,48,54,1593655920
1139,20,Ticks_Linear_8,286,5,42,127,1594150184
1139,20,Ticks_Linear_8,287,1,48,54,1594184452
1139,20,Ticks_Linear_8,288,5,42,127,1594679764
1139,20,Ticks_Linear_8,289,1,48,55,1594724844
1139,20,Ticks_Linear_8,290,5,42,127,1595210244
1139,20,Ticks_Linear_8,291,1,48,51,1595239976
1139,20,Ticks_Linear_8,292,5,42,127,1595739600
1139,20,Ticks_Linear_8,293,1,48,50,1595762716
1139,20,Ticks_Linear_8,294,5,42,127,1596269932
1139,20,Ticks_Linear_8,295,1,48,56,1596289004
1139,20,Ticks_Linear_8,296,5,42,127,1596790076
1139,20,Ticks_Linear_8,297,1,48,53,1596818588
1139,20,Ticks_Linear_8,298,5,42,127,1597310292
1139,20,Ticks_Linear_8,299,1,48,49,1597353180
1139,20,Ticks_Linear_8,300,5,42,127,1597829688
1139,20,Ticks_Linear_8,301,1,48,59,1597862836
1139,20,Ticks_Linear_8,302,5,42,127,1598349756
1139,20,Ticks_Linear_8,303,1,48,51,1598378568
1139,20,Ticks_Linear_8,304,5,42,127,1598869828
1139,20,Ticks_Linear_8,305,1,48,51,1598894808
1139,20,Ticks_Linear_8,306,5,42,127,1599379788
1139,20,Ticks_Linear_8,307,1,48,52,1599386120
1139,20,Ticks_Linear_8,308,5,42,127,1599889896
1139,20,Ticks_Linear_8,309,1,48,48,1599902376
1139,20,Ticks_Linear_8,310,5,42,127,1600399932
1139,20,Ticks_Linear_8,311,1,48,52,1600424612
1139,20,Ticks_Linear_8,312,5,42,127,1600909740
1139,20,Ticks_Linear_8,313,1,48,59,1600917348
1139,20,Ticks_Linear_8,314,5,42,127,1601419776
1139,20,Ticks_Linear_8,315,1,48,53,1601432552
1139,20,Ticks_Linear_8,316,5,42,127,1601920300
1139,20,Ticks_Linear_8,317,1,48,53,1601952624
1139,20,Ticks_Linear_8,318,5,42,127,1602420000
1139,20,Ticks_Linear_8,319,1,48,53,1602451580
1139,20,Ticks_Linear_8,320,5,42,127,1602919700
1139,20,Ticks_Linear_8,321,1,48,51,1602955464
1139,20,Ticks_Linear_8,322,5,42,127,1603419600
1139,20,Ticks_Linear_8,323,1,48,54,1603431056
1139,20,Ticks_Linear_8,324,5,42,127,1603920124
1139,20,Ticks_Linear_8,325,1,48,51,1603944904
1139,20,Ticks_Linear_8,326,5,42,127,1604409712
1139,20,Ticks_Linear_8,327,1,48,57,1604438152
1139,20,Ticks_Linear_8,328,5,42,127,1604900128
1139,20,Ticks_Linear_8,329,1,48,52,1604915968
1139,20,Ticks_Linear_8,330,5,42,127,1605389568
1139,20,Ticks_Linear_8,331,1,48,50,1605404360
1139,20,Ticks_Linear_8,332,1,48,50,1605857080
1139,20,Ticks_Linear_8,333,5,42,127,1605880048
1139,20,Ticks_Linear_8,334,1,48,59,1606347884
1139,20,Ticks_Linear_8,335,5,42,127,1606369636
1139,20,Ticks_Linear_8,0,9999,9999,9999,1495767152
1139,20,Ticks_Linear_8,1,9999,9999,9999,1496587340
1139,20,Ticks_Linear_8,2,9999,9999,9999,1497407604
1139,20,Ticks_Linear_8,3,9999,9999,9999,1498227816
1139,20,Ticks_Linear_8,4,9999,9999,9999,1499048000
1139,20,Ticks_Linear_8,5,9999,9999,9999,1499857984
1139,20,Ticks_Linear_8,6,9999,9999,9999,1500667972
1139,20,Ticks_Linear_8,7,9999,9999,9999,1501477948
1139,20,Ticks_Linear_8,8,9999,9999,9999,1502287936
1139,20,Ticks_Linear_8,9,9999,9999,9999,1503097940
1139,20,Ticks_Linear_8,10,9999,9999,9999,1503897672
1139,20,Ticks_Linear_8,11,9999,9999,9999,1504697464
1139,20,Ticks_Linear_8,12,9999,9999,9999,1505497196
1139,20,Ticks_Linear_8,13,9999,9999,9999,1506297964
1139,20,Ticks_Linear_8,14,9999,9999,9999,1507097684
1139,20,Ticks_Linear_8,15,9999,9999,9999,1507887224
1139,20,Ticks_Linear_8,16,9999,9999,9999,1508677744
1139,20,Ticks_Linear_8,17,9999,9999,9999,1509467208
1139,20,Ticks_Linear_8,18,9999,9999,9999,1510257748
1139,20,Ticks_Linear_8,19,9999,9999,9999,1511047288
1139,20,Ticks_Linear_8,20,9999,9999,9999,1511827540
1139,20,Ticks_Linear_8,21,9999,9999,9999,1512607860
1139,20,Ticks_Linear_8,22,9999,9999,9999,1513387072
1139,20,Ticks_Linear_8,23,9999,9999,9999,1514167392
1139,20,Ticks_Linear_8,24,9999,9999,9999,1514947644
1139,20,Ticks_Linear_8,25,9999,9999,9999,1515717720
1139,20,Ticks_Linear_8,26,9999,9999,9999,1516487788
1139,20,Ticks_Linear_8,27,9999,9999,9999,1517257780
1139,20,Ticks_Linear_8,28,9999,9999,9999,1518027848
1139,20,Ticks_Linear_8,29,9999,9999,9999,1518797920
1139,20,Ticks_Linear_8,30,9999,9999,9999,1519557724
1139,20,Ticks_Linear_8,31,9999,9999,9999,1520317540
1139,20,Ticks_Linear_8,32,9999,9999,9999,1521077340
1139,20,Ticks_Linear_8,33,9999,9999,9999,1521837156
1139,20,Ticks_Linear_8,34,9999,9999,9999,1522598004
1139,20,Ticks_Linear_8,35,9999,9999,9999,1523347564
1139,20,Ticks_Linear_8,36,9999,9999,9999,1524097112
1139,20,Ticks_Linear_8,37,9999,9999,9999,1524847704
1139,20,Ticks_Linear_8,38,9999,9999,9999,1525597300
1139,20,Ticks_Linear_8,39,9999,9999,9999,1526347832
1139,20,Ticks_Linear_8,40,9999,9999,9999,1527087196
1139,20,Ticks_Linear_8,41,9999,9999,9999,1527827532
1139,20,Ticks_Linear_8,42,9999,9999,9999,1528567868
1139,20,Ticks_Linear_8,43,9999,9999,9999,1529307236
1139,20,Ticks_Linear_8,44,9999,9999,9999,1530047572
1139,20,Ticks_Linear_8,45,9999,9999,9999,1530777724
1139,20,Ticks_Linear_8,46,9999,9999,9999,1531507804
1139,20,Ticks_Linear_8,47,9999,9999,9999,1532237932
1139,20,Ticks_Linear_8,48,9999,9999,9999,1532968008
1139,20,Ticks_Linear_8,49,9999,9999,9999,1533697120
1139,20,Ticks_Linear_8,50,9999,9999,9999,1534417984
1139,20,Ticks_Linear_8,51,9999,9999,9999,1535137876
1139,20,Ticks_Linear_8,52,9999,9999,9999,1535857768
1139,20,Ticks_Linear_8,53,9999,9999,9999,1536577636
1139,20,Ticks_Linear_8,54,9999,9999,9999,1537297532
1139,20,Ticks_Linear_8,55,9999,9999,9999,1538007164
1139,20,Ticks_Linear_8,56,9999,9999,9999,1538717772
1139,20,Ticks_Linear_8,57,9999,9999,9999,1539427408
1139,20,Ticks_Linear_8,58,9999,9999,9999,1540138064
1139,20,Ticks_Linear_8,59,9999,9999,9999,1540847696
1139,20,Ticks_Linear_8,60,9999,9999,9999,1541547072
1139,20,Ticks_Linear_8,61,9999,9999,9999,1542247496
1139,20,Ticks_Linear_8,62,9999,9999,9999,1542947960
1139,20,Ticks_Linear_8,63,9999,9999,9999,1543647344
1139,20,Ticks_Linear_8,64,9999,9999,9999,1544347760
1139,20,Ticks_Linear_8,65,9999,9999,9999,1545037904
1139,20,Ticks_Linear_8,66,9999,9999,9999,1545728068
1139,20,Ticks_Linear_8,67,9999,9999,9999,1546427516
1139,20,Ticks_Linear_8,68,9999,9999,9999,1547117680
1139,20,Ticks_Linear_8,69,9999,9999,9999,1547807820
1139,20,Ticks_Linear_8,70,9999,9999,9999,1548487796
1139,20,Ticks_Linear_8,71,9999,9999,9999,1549167700
1139,20,Ticks_Linear_8,72,9999,9999,9999,1549847656
1139,20,Ticks_Linear_8,73,9999,9999,9999,1550527560
1139,20,Ticks_Linear_8,74,9999,9999,9999,1551207540
1139,20,Ticks_Linear_8,75,9999,9999,9999,1551877232
1139,20,Ticks_Linear_8,76,9999,9999,9999,1552547924
1139,20,Ticks_Linear_8,77,9999,9999,9999,1553217620
1139,20,Ticks_Linear_8,78,9999,9999,9999,1553887340
1139,20,Ticks_Linear_8,79,9999,9999,9999,1554558032
1139,20,Ticks_Linear_8,80,9999,9999,9999,1555217476
1139,20,Ticks_Linear_8,81,9999,9999,9999,1555877972
1139,20,Ticks_Linear_8,82,9999,9999,9999,1556537416
1139,20,Ticks_Linear_8,83,9999,9999,9999,1557197924
1139,20,Ticks_Linear_8,84,9999,9999,9999,1557857384
1139,20,Ticks_Linear_8,85,9999,9999,9999,1558507608
1139,20,Ticks_Linear_8,86,9999,9999,9999,1559157852
1139,20,Ticks_Linear_8,87,9999,9999,9999,1559808076
1139,20,Ticks_Linear_8,88,9999,9999,9999,1560467536
1139,20,Ticks_Linear_8,89,9999,9999,9999,1561117760
1139,20,Ticks_Linear_8,90,9999,9999,9999,1561757752
1139,20,Ticks_Linear_8,91,9999,9999,9999,1562397788
1139,20,Ticks_Linear_8,92,9999,9999,9999,1563037776
1139,20,Ticks_Linear_8,93,9999,9999,9999,1563677808
1139,20,Ticks_Linear_8,94,9999,9999,9999,1564317804
1139,20,Ticks_Linear_8,95,9999,9999,9999,1564947512
1139,20,Ticks_Linear_8,96,9999,9999,9999,1565577312
1139,20,Ticks_Linear_8,97,9999,9999,9999,1566208068
1139,20,Ticks_Linear_8,98,9999,9999,9999,1566848056
1139,20,Ticks_Linear_8,99,9999,9999,9999,1567488092
1139,20,Ticks_Linear_8,100,9999,9999,9999,1568117824
1139,20,Ticks_Linear_8,101,9999,9999,9999,1568737344
1139,20,Ticks_Linear_8,102,9999,9999,9999,1569357912
1139,20,Ticks_Linear_8,103,9999,9999,9999,1569977456
1139,20,Ticks_Linear_8,104,9999,9999,9999,1570597948
1139,20,Ticks_Linear_8,105,9999,9999,9999,1571207232
1139,20,Ticks_Linear_8,106,9999,9999,9999,1571817540
1139,20,Ticks_Linear_8,107,9999,9999,9999,1572427844
1139,20,Ticks_Linear_8,108,9999,9999,9999,1573037136
1139,20,Ticks_Linear_8,109,9999,9999,9999,1573647444
1139,20,Ticks_Linear_8,110,9999,9999,9999,1574247520
1139,20,Ticks_Linear_8,111,9999,9999,9999,1574847568
1139,20,Ticks_Linear_8,112,9999,9999,9999,1575447620
1139,20,Ticks_Linear_8,113,9999,9999,9999,1576047692
1139,20,Ticks_Linear_8,114,9999,9999,9999,1576647740
1139,20,Ticks_Linear_8,115,9999,9999,9999,1577237604
1139,20,Ticks_Linear_8,116,9999,9999,9999,1577827420
1139,20,Ticks_Linear_8,117,9999,9999,9999,1578417208
1139,20,Ticks_Linear_8,118,9999,9999,9999,1579008120
1139,20,Ticks_Linear_8,119,9999,9999,9999,1579607112
1139,20,Ticks_Linear_8,120,9999,9999,9999,1580187724
1139,20,Ticks_Linear_8,121,9999,9999,9999,1580767328
1139,20,Ticks_Linear_8,122,9999,9999,9999,1581347908
1139,20,Ticks_Linear_8,123,9999,9999,9999,1581927536
1139,20,Ticks_Linear_8,124,9999,9999,9999,1582507068
1139,20,Ticks_Linear_8,125,9999,9999,9999,1583077460
1139,20,Ticks_Linear_8,126,9999,9999,9999,1583647852
1139,20,Ticks_Linear_8,127,9999,9999,9999,1584217200
1139,20,Ticks_Linear_8,128,9999,9999,9999,1584787544
1139,20,Ticks_Linear_8,129,9999,9999,9999,1585357936
1139,20,Ticks_Linear_8,130,9999,9999,9999,1585918068
1139,20,Ticks_Linear_8,131,9999,9999,9999,1586477156
1139,20,Ticks_Linear_8,132,9999,9999,9999,1587037312
1139,20,Ticks_Linear_8,133,9999,9999,9999,1587597368
1139,20,Ticks_Linear_8,134,9999,9999,9999,1588157508
1139,20,Ticks_Linear_8,135,9999,9999,9999,1588707384
1139,20,Ticks_Linear_8,136,9999,9999,9999,1589257332
1139,20,Ticks_Linear_8,137,9999,9999,9999,1589807204
1139,20,Ticks_Linear_8,138,9999,9999,9999,1590358124
1139,20,Ticks_Linear_8,139,9999,9999,9999,1590917236
1139,20,Ticks_Linear_8,140,9999,9999,9999,1591457900
1139,20,Ticks_Linear_8,141,9999,9999,9999,1591997516
1139,20,Ticks_Linear_8,142,9999,9999,9999,1592537204
1139,20,Ticks_Linear_8,143,9999,9999,9999,1593077868
1139,20,Ticks_Linear_8,144,9999,9999,9999,1593617480
1139,20,Ticks_Linear_8,145,9999,9999,9999,1594147960
1139,20,Ticks_Linear_8,146,9999,9999,9999,1594677316
1139,20,Ticks_Linear_8,147,9999,9999,9999,1595207796
1139,20,Ticks_Linear_8,148,9999,9999,9999,1595737152
1139,20,Ticks_Linear_8,149,9999,9999,9999,1596267632
1139,20,Ticks_Linear_8,150,9999,9999,9999,1596787776
1139,20,Ticks_Linear_8,151,9999,9999,9999,1597307996
1139,20,Ticks_Linear_8,152,9999,9999,9999,1597827168
1139,20,Ticks_Linear_8,153,9999,9999,9999,1598347384
1139,20,Ticks_Linear_8,154,9999,9999,9999,1598867528
1139,20,Ticks_Linear_8,155,9999,9999,9999,1599377488
1139,20,Ticks_Linear_8,156,9999,9999,9999,1599887448
1139,20,Ticks_Linear_8,157,9999,9999,9999,1600397408
1139,20,Ticks_Linear_8,158,9999,9999,9999,1600907368
1139,20,Ticks_Linear_8,159,9999,9999,9999,1601417328
1139,20,Ticks_Linear_8,160,9999,9999,9999,1601918076
1139,20,Ticks_Linear_8,161,9999,9999,9999,1602417776
1139,20,Ticks_Linear_8,162,9999,9999,9999,1602917476
1139,20,Ticks_Linear_8,163,9999,9999,9999,1603417152
1139,20,Ticks_Linear_8,164,9999,9999,9999,1603917896
1139,20,Ticks_Linear_8,165,9999,9999,9999,1604407416
1139,20,Ticks_Linear_8,166,9999,9999,9999,1604897900
1139,20,Ticks_Linear_8,167,9999,9999,9999,1605387340
1139,20,Ticks_Linear_8,168,9999,9999,9999,1605877824
1139,20,Ticks_Linear_8,169,9999,9999,9999,1606367340
11310,21,Ticks_Linear_5,0,5,42,127,1614432616
11310,21,Ticks_Linear_5,1,5,42,127,1614912916
11310,21,Ticks_Linear_5,2,5,42,127,1615393240
11310,21,Ticks_Linear_5,3,5,42,127,1615873492
11310,21,Ticks_Linear_5,4,5,42,127,1616352620
11310,21,Ticks_Linear_5,5,5,42,127,1616843204
11310,21,Ticks_Linear_5,6,5,42,127,1617332516
11310,21,Ticks_Linear_5,7,5,42,127,1617822952
11310,21,Ticks_Linear_5,8,5,42,127,1618312564
11310,21,Ticks_Linear_5,9,1,48,61,1618325488
11310,21,Ticks_Linear_5,10,5,42,127,1618803124
11310,21,Ticks_Linear_5,11,1,48,56,1618822796
11310,21,Ticks_Linear_5,12,1,48,58,1619299852
11310,21,Ticks_Linear_5,13,5,42,127,1619302820
11310,21,Ticks_Linear_5,14,1,48,61,1619787848
11310,21,Ticks_Linear_5,15,5,42,127,1619802568
11310,21,Ticks_Linear_5,16,1,48,70,1620286548
11310,21,Ticks_Linear_5,17,5,42,127,1620303364
11310,21,Ticks_Linear_5,18,1,48,54,1620782436
11310,21,Ticks_Linear_5,19,5,42,127,1620803064
11310,21,Ticks_Linear_5,20,1,48,72,1621283856
11310,21,Ticks_Linear_5,21,5,42,127,1621302616
11310,21,Ticks_Linear_5,22,1,48,62,1621782588
11310,21,Ticks_Linear_5,23,5,42,127,1621812576
11310,21,Ticks_Linear_5,24,1,48,63,1622295456
11310,21,Ticks_Linear_5,25,5,42,127,1622322536
11310,21,Ticks_Linear_5,26,1,48,56,1622792840
11310,21,Ticks_Linear_5,27,5,42,127,1622832644
11310,21,Ticks_Linear_5,28,1,48,59,1623327580
11310,21,Ticks_Linear_5,29,5,42,127,1623342528
11310,21,Ticks_Linear_5,30,1,48,57,1623845628
11310,21,Ticks_Linear_5,31,5,42,127,1623853460
11310,21,Ticks_Linear_5,32,1,48,61,1624354392
11310,21,Ticks_Linear_5,33,5,42,127,1624382816
11310,21,Ticks_Linear_5,34,1,48,57,1624872968
11310,21,Ticks_Linear_5,35,5,42,127,1624903256
11310,21,Ticks_Linear_5,36,1,48,52,1625398420
11310,21,Ticks_Linear_5,37,5,42,127,1625423324
11310,21,Ticks_Linear_5,38,1,48,55,1625932276
11310,21,Ticks_Linear_5,39,5,42,127,1625943396
11310,21,Ticks_Linear_5,40,5,42,127,1626462524
11310,21,Ticks_Linear_5,41,1,48,52,1626483392
11310,21,Ticks_Linear_5,42,1,48,50,1626989804
11310,21,Ticks_Linear_5,43,5,42,127,1626992992
11310,21,Ticks_Linear_5,44,1,48,44,1627521832
11310,21,Ticks_Linear_5,45,5,42,127,1627523396
11310,21,Ticks_Linear_5,46,1,48,40,1628032568
11310,21,Ticks_Linear_5,47,5,42,127,1628052976
11310,21,Ticks_Linear_5,48,1,48,48,1628544992
11310,21,Ticks_Linear_5,49,5,42,127,1628583304
11310,21,Ticks_Linear_5,50,1,48,46,1629074272
11310,21,Ticks_Linear_5,51,5,42,127,1629112584
11310,21,Ticks_Linear_5,52,1,48,45,1629625868
11310,21,Ticks_Linear_5,53,5,42,127,1629653248
11310,21,Ticks_Linear_5,54,1,48,44,1630192944
11310,21,Ticks_Linear_5,55,5,42,127,1630194428
11310,21,Ticks_Linear_5,56,5,42,127,1630732784
11310,21,Ticks_Linear_5,57,1,48,44,1630762864
11310,21,Ticks_Linear_5,58,5,42,127,1631273296
11310,21,Ticks_Linear_5,59,1,48,43,1631288916
11310,21,Ticks_Linear_5,60,1,48,46,1631806268
11310,21,Ticks_Linear_5,61,5,42,127,1631813128
11310,21,Ticks_Linear_5,62,1,48,42,1632350024
11310,21,Ticks_Linear_5,63,5,42,127,1632362728
11310,21,Ticks_Linear_5,64,1,48,40,1632863208
11310,21,Ticks_Linear_5,65,5,42,127,1632912752
11310,21,Ticks_Linear_5,66,1,48,41,1633445356
11310,21,Ticks_Linear_5,67,5,42,127,1633462624
11310,21,Ticks_Linear_5,68,5,42,127,1634012432
11310,21,Ticks_Linear_5,69,1,48,44,1634049540
11310,21,Ticks_Linear_5,70,5,42,127,1634562380
11310,21,Ticks_Linear_5,71,1,48,39,1634578148
11310,21,Ticks_Linear_5,72,1,48,42,1635117148
11310,21,Ticks_Linear_5,73,5,42,127,1635122432
11310,21,Ticks_Linear_5,74,1,48,38,1635682072
11310,21,Ticks_Linear_5,75,5,42,127,1635683640
11310,21,Ticks_Linear_5,76,5,42,127,1636243104
11310,21,Ticks_Linear_5,77,1,48,34,1636244068
11310,21,Ticks_Linear_5,78,5,42,127,1636802788
11310,21,Ticks_Linear_5,79,1,48,36,1636811832
11310,21,Ticks_Linear_5,80,5,42,127,1637363296
11310,21,Ticks_Linear_5,81,1,48,42,1637368360
11310,21,Ticks_Linear_5,82,1,48,41,1637923160
11310,21,Ticks_Linear_5,83,5,42,127,1637933308
11310,21,Ticks_Linear_5,84,1,48,47,1638459244
11310,21,Ticks_Linear_5,85,5,42,127,1638513088
11310,21,Ticks_Linear_5,86,1,48,43,1639055580
11310,21,Ticks_Linear_5,87,5,42,127,1639083256
11310,21,Ticks_Linear_5,88,5,42,127,1639652684
11310,21,Ticks_Linear_5,89,1,48,53,1639663440
11310,21,Ticks_Linear_5,90,5,42,127,1640223076
11310,21,Ticks_Linear_5,91,1,48,44,1640244092
11310,21,Ticks_Linear_5,92,1,48,41,1640790728
11310,21,Ticks_Linear_5,93,5,42,127,1640802548
11310,21,Ticks_Linear_5,94,1,48,41,1641371404
11310,21,Ticks_Linear_5,95,5,42,127,1641383200
11310,21,Ticks_Linear_5,96,5,42,127,1641962960
11310,21,Ticks_Linear_5,97,1,48,42,1641967572
11310,21,Ticks_Linear_5,98,5,42,127,1642542340
11310,21,Ticks_Linear_5,99,1,48,42,1642545004
11310,21,Ticks_Linear_5,100,5,42,127,1643123312
11310,21,Ticks_Linear_5,101,1,48,33,1643142464
11310,21,Ticks_Linear_5,102,5,42,127,1643713028
11310,21,Ticks_Linear_5,103,1,48,42,1643718916
11310,21,Ticks_Linear_5,104,5,42,127,1644302596
11310,21,Ticks_Linear_5,105,1,48,36,1644309376
11310,21,Ticks_Linear_5,106,5,42,127,1644892484
11310,21,Ticks_Linear_5,107,1,48,38,1644930120
11310,21,Ticks_Linear_5,108,5,42,127,1645483316
11310,21,Ticks_Linear_5,109,1,48,40,1645509344
11310,21,Ticks_Linear_5,110,5,42,127,1646073256
11310,21,Ticks_Linear_5,111,1,48,41,1646098840
11310,21,Ticks_Linear_5,112,1,48,41,1646667864
11310,21,Ticks_Linear_5,113,5,42,127,1646673148
11310,21,Ticks_Linear_5,114,1,48,35,1647251092
11310,21,Ticks_Linear_5,115,5,42,127,1647273296
11310,21,Ticks_Linear_5,116,1,48,43,1647869480
11310,21,Ticks_Linear_5,117,5,42,127,1647873344
11310,21,Ticks_Linear_5,118,5,42,127,1648472500
11310,21,Ticks_Linear_5,119,1,48,37,1648478392
11310,21,Ticks_Linear_5,120,5,42,127,1649072552
11310,21,Ticks_Linear_5,121,1,48,43,1649073516
11310,21,Ticks_Linear_5,122,5,42,127,1649682936
11310,21,Ticks_Linear_5,123,1,48,37,1649701340
11310,21,Ticks_Linear_5,124,1,48,35,1650277044
11310,21,Ticks_Linear_5,125,5,42,127,1650293036
11310,21,Ticks_Linear_5,126,1,48,39,1650880768
11310,21,Ticks_Linear_5,127,5,42,127,1650903420
11310,21,Ticks_Linear_5,128,5,42,127,1651512984
11310,21,Ticks_Linear_5,129,1,48,36,1651534008
11310,21,Ticks_Linear_5,130,5,42,127,1652122872
11310,21,Ticks_Linear_5,131,1,48,40,1652148532
11310,21,Ticks_Linear_5,132,5,42,127,1652742540
11310,21,Ticks_Linear_5,133,1,48,27,1652773448
11310,21,Ticks_Linear_5,134,5,42,127,1653363284
11310,21,Ticks_Linear_5,135,1,48,32,1653380180
11310,21,Ticks_Linear_5,136,5,42,127,1653982728
11310,21,Ticks_Linear_5,137,1,48,27,1654004944
11310,21,Ticks_Linear_5,138,5,42,127,1654603220
11310,21,Ticks_Linear_5,139,1,48,30,1654630788
11310,21,Ticks_Linear_5,140,5,42,127,1655222840
11310,21,Ticks_Linear_5,141,1,48,26,1655253520
11310,21,Ticks_Linear_5,142,5,42,127,1655853368
11310,21,Ticks_Linear_5,143,1,48,26,1655872364
11310,21,Ticks_Linear_5,144,5,42,127,1656493504
11310,21,Ticks_Linear_5,145,1,48,28,1656498196
11310,21,Ticks_Linear_5,146,5,42,127,1657133320
11310,21,Ticks_Linear_5,147,1,48,29,1657137412
11310,21,Ticks_Linear_5,148,1,48,29,1657762032
11310,21,Ticks_Linear_5,149,5,42,127,1657773376
11310,21,Ticks_Linear_5,150,1,48,15,1658413040
11310,21,Ticks_Linear_5,151,5,42,127,1658414684
11310,21,Ticks_Linear_5,152,1,48,27,1658418012
11310,21,Ticks_Linear_5,153,1,48,29,1659031852
11310,21,Ticks_Linear_5,154,5,42,127,1659053304
11310,21,Ticks_Linear_5,155,1,48,38,1659675256
11310,21,Ticks_Linear_5,156,5,42,127,1659693344
11310,21,Ticks_Linear_5,157,1,48,39,1660329024
11310,21,Ticks_Linear_5,158,5,42,127,1660333408
11310,21,Ticks_Linear_5,159,5,42,127,1660973380
11310,21,Ticks_Linear_5,160,1,48,39,1660979340
11310,21,Ticks_Linear_5,161,5,42,127,1661613812
11310,21,Ticks_Linear_5,162,1,48,44,1661624428
11310,21,Ticks_Linear_5,163,1,48,41,1662242952
11310,21,Ticks_Linear_5,164,5,42,127,1662272868
11310,21,Ticks_Linear_5,165,1,48,49,1662894696
11310,21,Ticks_Linear_5,166,5,42,127,1662923044
11310,21,Ticks_Linear_5,167,5,42,127,1663573496
11310,21,Ticks_Linear_5,168,1,48,43,1663578660
11310,21,Ticks_Linear_5,169,1,48,44,1664219948
11310,21,Ticks_Linear_5,170,5,42,127,1664222764
11310,21,Ticks_Linear_5,171,5,42,127,1664872724
11310,21,Ticks_Linear_5,172,1,48,46,1664887300
11310,21,Ticks_Linear_5,173,5,42,127,1665533204
11310,21,Ticks_Linear_5,174,1,48,43,1665556020
11310,21,Ticks_Linear_5,175,5,42,127,1666192740
11310,21,Ticks_Linear_5,176,1,48,46,1666200648
11310,21,Ticks_Linear_5,177,5,42,127,1666853368
11310,21,Ticks_Linear_5,178,1,48,35,1666881884
11310,21,Ticks_Linear_5,179,5,42,127,1667512680
11310,21,Ticks_Linear_5,180,1,48,38,1667515272
11310,21,Ticks_Linear_5,181,5,42,127,1668173312
11310,21,Ticks_Linear_5,182,1,48,33,1668186868
11310,21,Ticks_Linear_5,183,1,48,29,1668840132
11310,21,Ticks_Linear_5,184,5,42,127,1668842804
11310,21,Ticks_Linear_5,185,1,48,30,1669512972
11310,21,Ticks_Linear_5,186,5,42,127,1669514088
11310,21,Ticks_Linear_5,187,5,42,127,1670183344
11310,21,Ticks_Linear_5,188,1,48,46,1670185936
11310,21,Ticks_Linear_5,189,5,42,127,1670852912
11310,21,Ticks_Linear_5,190,1,48,43,1670857304
11310,21,Ticks_Linear_5,191,5,42,127,1671522632
11310,21,Ticks_Linear_5,192,1,48,30,1671531600
11310,21,Ticks_Linear_5,193,1,48,30,1672201380
11310,21,Ticks_Linear_5,194,5,42,127,1672202876
11310,21,Ticks_Linear_5,195,1,48,33,1672882112
11310,21,Ticks_Linear_5,196,5,42,127,1672883680
11310,21,Ticks_Linear_5,197,1,48,45,1673550180
11310,21,Ticks_Linear_5,198,5,42,127,1673562536
11310,21,Ticks_Linear_5,199,1,48,40,1674225672
11310,21,Ticks_Linear_5,200,5,42,127,1674242636
11310,21,Ticks_Linear_5,201,1,48,55,1674911272
11310,21,Ticks_Linear_5,202,5,42,127,1674923512
11310,21,Ticks_Linear_5,203,1,48,30,1675590928
11310,21,Ticks_Linear_5,204,5,42,127,1675612628
11310,21,Ticks_Linear_5,205,1,48,48,1676252852
11310,21,Ticks_Linear_5,206,5,42,127,1676302840
11310,21,Ticks_Linear_5,207,1,48,39,1676950196
11310,21,Ticks_Linear_5,208,5,42,127,1676992780
11310,21,Ticks_Linear_5,209,5,42,127,1677682952
11310,21,Ticks_Linear_5,210,1,48,42,1677696556
11310,21,Ticks_Linear_5,211,1,48,46,1678357384
11310,21,Ticks_Linear_5,212,5,42,127,1678373308
11310,21,Ticks_Linear_5,213,1,48,47,1679055264
11310,21,Ticks_Linear_5,214,5,42,127,1679072680
11310,21,Ticks_Linear_5,215,5,42,127,1679772960
11310,21,Ticks_Linear_5,216,1,48,39,1679780788
11310,21,Ticks_Linear_5,217,1,48,47,1680448144
11310,21,Ticks_Linear_5,218,5,42,127,1680472452
11310,21,Ticks_Linear_5,219,1,48,50,1681125780
11310,21,Ticks_Linear_5,220,5,42,127,1681172924
11310,21,Ticks_Linear_5,221,1,48,43,1681845820
11310,21,Ticks_Linear_5,222,5,42,127,1681873424
11310,21,Ticks_Linear_5,223,1,48,35,1682575004
11310,21,Ticks_Linear_5,224,5,42,127,1682582836
11310,21,Ticks_Linear_5,225,1,48,40,1683272632
11310,21,Ticks_Linear_5,226,5,42,127,1683292468
11310,21,Ticks_Linear_5,227,1,48,43,1683968408
11310,21,Ticks_Linear_5,228,5,42,127,1684003196
11310,21,Ticks_Linear_5,229,1,48,39,1684700052
11310,21,Ticks_Linear_5,230,5,42,127,1684712908
11310,21,Ticks_Linear_5,231,1,48,46,1685395312
11310,21,Ticks_Linear_5,232,5,42,127,1685422320
11310,21,Ticks_Linear_5,233,1,48,48,1686128912
11310,21,Ticks_Linear_5,234,5,42,127,1686143556
11310,21,Ticks_Linear_5,235,1,48,45,1686823324
11310,21,Ticks_Linear_5,236,5,42,127,1686863200
11310,21,Ticks_Linear_5,237,1,48,42,1687555344
11310,21,Ticks_Linear_5,238,5,42,127,1687583316
11310,21,Ticks_Linear_5,239,1,48,50,1688253452
11310,21,Ticks_Linear_5,240,5,42,127,1688302988
11310,21,Ticks_Linear_5,241,1,48,40,1688984652
11310,21,Ticks_Linear_5,242,5,42,127,1689022732
11310,21,Ticks_Linear_5,243,1,48,43,1689743564
11310,21,Ticks_Linear_5,244,5,42,127,1689752960
11310,21,Ticks_Linear_5,245,5,42,127,1690483044
11310,21,Ticks_Linear_5,246,1,48,35,1690495452
11310,21,Ticks_Linear_5,247,5,42,127,1691213320
11310,21,Ticks_Linear_5,248,1,48,45,1691227552
11310,21,Ticks_Linear_5,249,1,48,51,1691929648
11310,21,Ticks_Linear_5,250,5,42,127,1691943244
11310,21,Ticks_Linear_5,251,1,48,46,1692656956
11310,21,Ticks_Linear_5,252,5,42,127,1692673400
11310,21,Ticks_Linear_5,253,1,48,44,1693394300
11310,21,Ticks_Linear_5,254,5,42,127,1693412616
11310,21,Ticks_Linear_5,255,1,48,48,1694117116
11310,21,Ticks_Linear_5,256,5,42,127,1694153548
11310,21,Ticks_Linear_5,257,1,48,43,1694864568
11310,21,Ticks_Linear_5,258,5,42,127,1694893292
11310,21,Ticks_Linear_5,259,1,48,42,1695626624
11310,21,Ticks_Linear_5,260,5,42,127,1695643140
11310,21,Ticks_Linear_5,261,1,48,35,1696366812
11310,21,Ticks_Linear_5,262,5,42,127,1696383404
11310,21,Ticks_Linear_5,263,1,48,45,1697117632
11310,21,Ticks_Linear_5,264,5,42,127,1697133028
11310,21,Ticks_Linear_5,265,1,48,38,1697843120
11310,21,Ticks_Linear_5,266,5,42,127,1697882428
11310,21,Ticks_Linear_5,267,5,42,127,1698633232
11310,21,Ticks_Linear_5,268,1,48,42,1698644364
11310,21,Ticks_Linear_5,269,5,42,127,1699382704
11310,21,Ticks_Linear_5,270,1,48,35,1699386344
11310,21,Ticks_Linear_5,271,1,48,43,1700132776
11310,21,Ticks_Linear_5,272,5,42,127,1700134268
11310,21,Ticks_Linear_5,273,5,42,127,1700893036
11310,21,Ticks_Linear_5,274,1,48,41,1700933076
11310,21,Ticks_Linear_5,275,5,42,127,1701652992
11310,21,Ticks_Linear_5,276,1,48,40,1701655360
11310,21,Ticks_Linear_5,277,5,42,127,1702412648
11310,21,Ticks_Linear_5,278,1,48,41,1702447668
11310,21,Ticks_Linear_5,279,5,42,127,1703172460
11310,21,Ticks_Linear_5,280,1,48,38,1703195124
11310,21,Ticks_Linear_5,281,1,48,40,1703922632
11310,21,Ticks_Linear_5,282,5,42,127,1703933232
11310,21,Ticks_Linear_5,283,5,42,127,1704703308
11310,21,Ticks_Linear_5,284,1,48,39,1704707624
11310,21,Ticks_Linear_5,285,5,42,127,1705473376
11310,21,Ticks_Linear_5,286,1,48,36,1705474416
11310,21,Ticks_Linear_5,287,1,48,42,1706239048
11310,21,Ticks_Linear_5,288,5,42,127,1706242388
11310,21,Ticks_Linear_5,289,1,48,41,1707009784
11310,21,Ticks_Linear_5,290,5,42,127,1707012456
11310,21,Ticks_Linear_5,291,1,48,39,1707777164
11310,21,Ticks_Linear_5,292,5,42,127,1707782524
11310,21,Ticks_Linear_5,293,1,48,40,1708544312
11310,21,Ticks_Linear_5,294,5,42,127,1708563072
11310,21,Ticks_Linear_5,295,1,48,43,1709333176
11310,21,Ticks_Linear_5,296,5,42,127,1709343028
11310,21,Ticks_Linear_5,297,1,48,46,1710091716
11310,21,Ticks_Linear_5,298,5,42,127,1710123280
11310,21,Ticks_Linear_5,299,1,48,35,1710897424
11310,21,Ticks_Linear_5,300,5,42,127,1710902708
11310,21,Ticks_Linear_5,301,1,48,37,1711658356
11310,21,Ticks_Linear_5,302,5,42,127,1711683112
11310,21,Ticks_Linear_5,303,1,48,39,1712438228
11310,21,Ticks_Linear_5,304,5,42,127,1712472452
11310,21,Ticks_Linear_5,305,1,48,34,1713226952
11310,21,Ticks_Linear_5,306,5,42,127,1713263184
11310,21,Ticks_Linear_5,307,1,48,42,1714015164
11310,21,Ticks_Linear_5,308,5,42,127,1714052428
11310,21,Ticks_Linear_5,309,1,48,53,1714801560
11310,21,Ticks_Linear_5,310,5,42,127,1714843012
11310,21,Ticks_Linear_5,311,1,48,48,1715593868
11310,21,Ticks_Linear_5,312,5,42,127,1715632776
11310,21,Ticks_Linear_5,313,1,48,46,1716361252
11310,21,Ticks_Linear_5,314,5,42,127,1716433324
11310,21,Ticks_Linear_5,315,5,42,127,1717232980
11310,21,Ticks_Linear_5,316,1,48,38,1717285976
11310,21,Ticks_Linear_5,317,1,48,38,1718013040
11310,21,Ticks_Linear_5,318,5,42,127,1718032844
11310,21,Ticks_Linear_5,319,1,48,24,1718813208
11310,21,Ticks_Linear_5,320,5,42,127,1718832496
11310,21,Ticks_Linear_5,321,1,48,38,1719572940
11310,21,Ticks_Linear_5,322,5,42,127,1719633192
11310,21,Ticks_Linear_5,323,1,48,43,1720395724
11310,21,Ticks_Linear_5,324,5,42,127,1720443196
11310,21,Ticks_Linear_5,325,1,48,29,1721236360
11310,21,Ticks_Linear_5,326,5,42,127,1721253256
11310,21,Ticks_Linear_5,327,1,48,36,1722053692
11310,21,Ticks_Linear_5,328,5,42,127,1722063164
11310,21,Ticks_Linear_5,329,1,48,43,1722820988
11310,21,Ticks_Linear_5,330,5,42,127,1722873072
11310,21,Ticks_Linear_5,331,1,48,40,1723647064
11310,21,Ticks_Linear_5,332,5,42,127,1723683056
11310,21,Ticks_Linear_5,0,9999,9999,9999,1614430320
11310,21,Ticks_Linear_5,1,9999,9999,9999,1614910544
11310,21,Ticks_Linear_5,2,9999,9999,9999,1615390792
11310,21,Ticks_Linear_5,3,9999,9999,9999,1615871044
11310,21,Ticks_Linear_5,4,9999,9999,9999,1616350320
11310,21,Ticks_Linear_5,5,9999,9999,9999,1616840828
11310,21,Ticks_Linear_5,6,9999,9999,9999,1617330292
11310,21,Ticks_Linear_5,7,9999,9999,9999,1617820728
11310,21,Ticks_Linear_5,8,9999,9999,9999,1618310264
11310,21,Ticks_Linear_5,9,9999,9999,9999,1618800752
11310,21,Ticks_Linear_5,10,9999,9999,9999,1619300448
11310,21,Ticks_Linear_5,11,9999,9999,9999,1619800120
11310,21,Ticks_Linear_5,12,9999,9999,9999,1620300916
11310,21,Ticks_Linear_5,13,9999,9999,9999,1620800616
11310,21,Ticks_Linear_5,14,9999,9999,9999,1621300316
11310,21,Ticks_Linear_5,15,9999,9999,9999,1621810280
11310,21,Ticks_Linear_5,16,9999,9999,9999,1622320236
11310,21,Ticks_Linear_5,17,9999,9999,9999,1622830196
11310,21,Ticks_Linear_5,18,9999,9999,9999,1623340156
11310,21,Ticks_Linear_5,19,9999,9999,9999,1623851088
11310,21,Ticks_Linear_5,20,9999,9999,9999,1624380516
11310,21,Ticks_Linear_5,21,9999,9999,9999,1624900736
11310,21,Ticks_Linear_5,22,9999,9999,9999,1625420876
11310,21,Ticks_Linear_5,23,9999,9999,9999,1625941096
11310,21,Ticks_Linear_5,24,9999,9999,9999,1626460224
11310,21,Ticks_Linear_5,25,9999,9999,9999,1626990696
11310,21,Ticks_Linear_5,26,9999,9999,9999,1627520060
11310,21,Ticks_Linear_5,27,9999,9999,9999,1628050528
11310,21,Ticks_Linear_5,28,9999,9999,9999,1628580928
11310,21,Ticks_Linear_5,29,9999,9999,9999,1629110360
11310,21,Ticks_Linear_5,30,9999,9999,9999,1629651024
11310,21,Ticks_Linear_5,31,9999,9999,9999,1630190720
11310,21,Ticks_Linear_5,32,9999,9999,9999,1630730336
11310,21,Ticks_Linear_5,33,9999,9999,9999,1631270996
11310,21,Ticks_Linear_5,34,9999,9999,9999,1631810680
11310,21,Ticks_Linear_5,35,9999,9999,9999,1632360504
11310,21,Ticks_Linear_5,36,9999,9999,9999,1632910452
11310,21,Ticks_Linear_5,37,9999,9999,9999,1633460324
11310,21,Ticks_Linear_5,38,9999,9999,9999,1634010204
11310,21,Ticks_Linear_5,39,9999,9999,9999,1634560080
11310,21,Ticks_Linear_5,40,9999,9999,9999,1635120208
11310,21,Ticks_Linear_5,41,9999,9999,9999,1635680372
11310,21,Ticks_Linear_5,42,9999,9999,9999,1636240508
11310,21,Ticks_Linear_5,43,9999,9999,9999,1636800564
11310,21,Ticks_Linear_5,44,9999,9999,9999,1637360700
11310,21,Ticks_Linear_5,45,9999,9999,9999,1637931088
11310,21,Ticks_Linear_5,46,9999,9999,9999,1638510716
11310,21,Ticks_Linear_5,47,9999,9999,9999,1639081032
11310,21,Ticks_Linear_5,48,9999,9999,9999,1639650384
11310,21,Ticks_Linear_5,49,9999,9999,9999,1640220776
11310,21,Ticks_Linear_5,50,9999,9999,9999,1640800324
11310,21,Ticks_Linear_5,51,9999,9999,9999,1641380976
11310,21,Ticks_Linear_5,52,9999,9999,9999,1641960512
11310,21,Ticks_Linear_5,53,9999,9999,9999,1642540116
11310,21,Ticks_Linear_5,54,9999,9999,9999,1643120716
11310,21,Ticks_Linear_5,55,9999,9999,9999,1643710580
11310,21,Ticks_Linear_5,56,9999,9999,9999,1644300372
11310,21,Ticks_Linear_5,57,9999,9999,9999,1644890240
11310,21,Ticks_Linear_5,58,9999,9999,9999,1645481016
11310,21,Ticks_Linear_5,59,9999,9999,9999,1646070880
11310,21,Ticks_Linear_5,60,9999,9999,9999,1646670924
11310,21,Ticks_Linear_5,61,9999,9999,9999,1647271000
11310,21,Ticks_Linear_5,62,9999,9999,9999,1647871048
11310,21,Ticks_Linear_5,63,9999,9999,9999,1648470128
11310,21,Ticks_Linear_5,64,9999,9999,9999,1649070180
11310,21,Ticks_Linear_5,65,9999,9999,9999,1649680488
11310,21,Ticks_Linear_5,66,9999,9999,9999,1650290812
11310,21,Ticks_Linear_5,67,9999,9999,9999,1650901048
11310,21,Ticks_Linear_5,68,9999,9999,9999,1651510388
11310,21,Ticks_Linear_5,69,9999,9999,9999,1652120644
11310,21,Ticks_Linear_5,70,9999,9999,9999,1652740168
11310,21,Ticks_Linear_5,71,9999,9999,9999,1653360760
11310,21,Ticks_Linear_5,72,9999,9999,9999,1653980280
11310,21,Ticks_Linear_5,73,9999,9999,9999,1654600772
11310,21,Ticks_Linear_5,74,9999,9999,9999,1655220316
11310,21,Ticks_Linear_5,75,9999,9999,9999,1655851068
11310,21,Ticks_Linear_5,76,9999,9999,9999,1656491132
11310,21,Ticks_Linear_5,77,9999,9999,9999,1657131096
11310,21,Ticks_Linear_5,78,9999,9999,9999,1657771076
11310,21,Ticks_Linear_5,79,9999,9999,9999,1658411120
11310,21,Ticks_Linear_5,80,9999,9999,9999,1659051084
11310,21,Ticks_Linear_5,81,9999,9999,9999,1659691120
11310,21,Ticks_Linear_5,82,9999,9999,9999,1660331112
11310,21,Ticks_Linear_5,83,9999,9999,9999,1660971080
11310,21,Ticks_Linear_5,84,9999,9999,9999,1661611068
11310,21,Ticks_Linear_5,85,9999,9999,9999,1662270572
11310,21,Ticks_Linear_5,86,9999,9999,9999,1662920820
11310,21,Ticks_Linear_5,87,9999,9999,9999,1663571048
11310,21,Ticks_Linear_5,88,9999,9999,9999,1664220244
11310,21,Ticks_Linear_5,89,9999,9999,9999,1664870500
11310,21,Ticks_Linear_5,90,9999,9999,9999,1665530980
11310,21,Ticks_Linear_5,91,9999,9999,9999,1666190440
11310,21,Ticks_Linear_5,92,9999,9999,9999,1666850924
11310,21,Ticks_Linear_5,93,9999,9999,9999,1667510380
11310,21,Ticks_Linear_5,94,9999,9999,9999,1668170864
11310,21,Ticks_Linear_5,95,9999,9999,9999,1668840504
11310,21,Ticks_Linear_5,96,9999,9999,9999,1669510228
11310,21,Ticks_Linear_5,97,9999,9999,9999,1670180972
11310,21,Ticks_Linear_5,98,9999,9999,9999,1670850616
11310,21,Ticks_Linear_5,99,9999,9999,9999,1671520332
11310,21,Ticks_Linear_5,100,9999,9999,9999,1672200288
11310,21,Ticks_Linear_5,101,9999,9999,9999,1672880192
11310,21,Ticks_Linear_5,102,9999,9999,9999,1673560136
11310,21,Ticks_Linear_5,103,9999,9999,9999,1674240116
11310,21,Ticks_Linear_5,104,9999,9999,9999,1674921064
11310,21,Ticks_Linear_5,105,9999,9999,9999,1675610180
11310,21,Ticks_Linear_5,106,9999,9999,9999,1676300392
11310,21,Ticks_Linear_5,107,9999,9999,9999,1676990556
11310,21,Ticks_Linear_5,108,9999,9999,9999,1677680728
11310,21,Ticks_Linear_5,109,9999,9999,9999,1678370932
11310,21,Ticks_Linear_5,110,9999,9999,9999,1679070308
11310,21,Ticks_Linear_5,111,9999,9999,9999,1679770736
11310,21,Ticks_Linear_5,112,9999,9999,9999,1680470080
11310,21,Ticks_Linear_5,113,9999,9999,9999,1681170552
11310,21,Ticks_Linear_5,114,9999,9999,9999,1681870976
11310,21,Ticks_Linear_5,115,9999,9999,9999,1682580536
11310,21,Ticks_Linear_5,116,9999,9999,9999,1683290172
11310,21,Ticks_Linear_5,117,9999,9999,9999,1684000824
11310,21,Ticks_Linear_5,118,9999,9999,9999,1684710460
11310,21,Ticks_Linear_5,119,9999,9999,9999,1685420096
11310,21,Ticks_Linear_5,120,9999,9999,9999,1686141036
11310,21,Ticks_Linear_5,121,9999,9999,9999,1686860904
11310,21,Ticks_Linear_5,122,9999,9999,9999,1687580796
11310,21,Ticks_Linear_5,123,9999,9999,9999,1688300616
11310,21,Ticks_Linear_5,124,9999,9999,9999,1689020508
11310,21,Ticks_Linear_5,125,9999,9999,9999,1689750588
11310,21,Ticks_Linear_5,126,9999,9999,9999,1690480748
11310,21,Ticks_Linear_5,127,9999,9999,9999,1691210872
11310,21,Ticks_Linear_5,128,9999,9999,9999,1691940948
11310,21,Ticks_Linear_5,129,9999,9999,9999,1692671100
11310,21,Ticks_Linear_5,130,9999,9999,9999,1693410392
11310,21,Ticks_Linear_5,131,9999,9999,9999,1694150728
11310,21,Ticks_Linear_5,132,9999,9999,9999,1694891068
11310,21,Ticks_Linear_5,133,9999,9999,9999,1695640692
11310,21,Ticks_Linear_5,134,9999,9999,9999,1696381028
11310,21,Ticks_Linear_5,135,9999,9999,9999,1697130584
11310,21,Ticks_Linear_5,136,9999,9999,9999,1697880132
11310,21,Ticks_Linear_5,137,9999,9999,9999,1698630784
11310,21,Ticks_Linear_5,138,9999,9999,9999,1699380332
11310,21,Ticks_Linear_5,139,9999,9999,9999,1700130928
11310,21,Ticks_Linear_5,140,9999,9999,9999,1700890736
11310,21,Ticks_Linear_5,141,9999,9999,9999,1701650544
11310,21,Ticks_Linear_5,142,9999,9999,9999,1702410352
11310,21,Ticks_Linear_5,143,9999,9999,9999,1703170160
11310,21,Ticks_Linear_5,144,9999,9999,9999,1703930932
11310,21,Ticks_Linear_5,145,9999,9999,9999,1704701008
11310,21,Ticks_Linear_5,146,9999,9999,9999,1705471076
11310,21,Ticks_Linear_5,147,9999,9999,9999,1706240092
11310,21,Ticks_Linear_5,148,9999,9999,9999,1707010156
11310,21,Ticks_Linear_5,149,9999,9999,9999,1707780152
11310,21,Ticks_Linear_5,150,9999,9999,9999,1708560476
11310,21,Ticks_Linear_5,151,9999,9999,9999,1709340728
11310,21,Ticks_Linear_5,152,9999,9999,9999,1710121056
11310,21,Ticks_Linear_5,153,9999,9999,9999,1710900336
11310,21,Ticks_Linear_5,154,9999,9999,9999,1711680588
11310,21,Ticks_Linear_5,155,9999,9999,9999,1712470128
11310,21,Ticks_Linear_5,156,9999,9999,9999,1713260664
11310,21,Ticks_Linear_5,157,9999,9999,9999,1714050128
11310,21,Ticks_Linear_5,158,9999,9999,9999,1714840640
11310,21,Ticks_Linear_5,159,9999,9999,9999,1715630180
11310,21,Ticks_Linear_5,160,9999,9999,9999,1716430952
11310,21,Ticks_Linear_5,161,9999,9999,9999,1717230680
11310,21,Ticks_Linear_5,162,9999,9999,9999,1718030396
11310,21,Ticks_Linear_5,163,9999,9999,9999,1718830196
11310,21,Ticks_Linear_5,164,9999,9999,9999,1719630968
11310,21,Ticks_Linear_5,165,9999,9999,9999,1720440900
11310,21,Ticks_Linear_5,166,9999,9999,9999,1721250884
11310,21,Ticks_Linear_5,167,9999,9999,9999,1722060864
11310,21,Ticks_Linear_5,168,9999,9999,9999,1722870848
11310,21,Ticks_Linear_5,169,9999,9999,9999,1723680832
11311,25,Jits_Pract_5,0,5,56,103,1773359556
11311,25,Jits_Pract_5,1,5,63,98,1773362804
11311,25,Jits_Pract_5,2,5,80,127,1773365848
11311,25,Jits_Pract_5,0,5,56,103,1773860328
11311,25,Jits_Pract_5,1,5,63,98,1773863352
11311,25,Jits_Pract_5,2,5,80,127,1773866472
11311,25,Jits_Pract_5,0,5,56,103,1774359920
11311,25,Jits_Pract_5,1,5,80,127,1774370268
11311,25,Jits_Pract_5,2,5,63,98,1774389604
11311,25,Jits_Pract_5,0,5,63,98,1774809324
11311,25,Jits_Pract_5,1,5,80,127,1774840044
11311,25,Jits_Pract_5,2,5,56,103,1774850464
11311,25,Jits_Pract_5,0,5,80,127,1775369956
11311,25,Jits_Pract_5,1,5,56,103,1775379708
11311,25,Jits_Pract_5,2,5,63,98,1775409380
11311,25,Jits_Pract_5,0,5,63,98,1775860040
11311,25,Jits_Pract_5,1,5,56,103,1775889720
11311,25,Jits_Pract_5,2,5,80,127,1775899988
11311,25,Jits_Pract_5,0,5,56,103,1776309800
11311,25,Jits_Pract_5,1,5,63,98,1776359780
11311,25,Jits_Pract_5,2,5,80,127,1776380388
11311,25,Jits_Pract_5,0,5,80,127,1776810444
11311,25,Jits_Pract_5,1,5,63,98,1776859672
11311,25,Jits_Pract_5,2,5,56,103,1776899316
11311,25,Jits_Pract_5,0,5,56,103,1777310036
11311,25,Jits_Pract_5,1,5,63,98,1777339860
11311,25,Jits_Pract_5,2,5,80,127,1777410364
11311,25,Jits_Pract_5,0,5,56,103,1777809856
11311,25,Jits_Pract_5,1,5,80,127,1777870248
11311,25,Jits_Pract_5,2,5,63,98,1777899848
11311,25,Jits_Pract_5,0,5,56,103,1778319716
11311,25,Jits_Pract_5,1,5,63,98,1778329836
11311,25,Jits_Pract_5,2,5,80,127,1778369996
11311,25,Jits_Pract_5,0,5,63,98,1778810312
11311,25,Jits_Pract_5,1,5,80,127,1778889960
11311,25,Jits_Pract_5,2,5,56,103,1778900528
11311,25,Jits_Pract_5,0,5,63,98,1779360096
11311,25,Jits_Pract_5,1,5,56,103,1779399952
11311,25,Jits_Pract_5,2,5,80,127,1779403028
11311,25,Jits_Pract_5,0,5,56,103,1779819808
11311,25,Jits_Pract_5,1,5,63,98,1779830080
11311,25,Jits_Pract_5,2,5,80,127,1779870092
11311,25,Jits_Pract_5,0,5,56,103,1780310480
11311,25,Jits_Pract_5,1,5,63,98,1780313400
11311,25,Jits_Pract_5,2,5,80,127,1780329816
11311,25,Jits_Pract_5,0,9999,9999,9999,1773608040
11311,25,Jits_Pract_5,1,9999,9999,9999,1774107764
11311,25,Jits_Pract_5,2,9999,9999,9999,1774607436
11311,25,Jits_Pract_5,3,9999,9999,9999,1775107176
11311,25,Jits_Pract_5,4,9999,9999,9999,1775607884
11311,25,Jits_Pract_5,5,9999,9999,9999,1776107636
11311,25,Jits_Pract_5,6,9999,9999,9999,1776607288
11311,25,Jits_Pract_5,7,9999,9999,9999,1777108080
11311,25,Jits_Pract_5,8,9999,9999,9999,1777607744
11311,25,Jits_Pract_5,9,9999,9999,9999,1778107492
11311,25,Jits_Pract_5,10,9999,9999,9999,1778607160
11311,25,Jits_Pract_5,11,9999,9999,9999,1779107948
11311,25,Jits_Pract_5,12,9999,9999,9999,1779607604
11311,25,Jits_Pract_5,13,9999,9999,9999,1780107328
11311,25,Jits_Pract_5,14,9999,9999,9999,1780608100
11312,24,Jits_Pract_8,0,5,56,103,1842025888
11312,24,Jits_Pract_8,1,5,63,98,1842028984
11312,24,Jits_Pract_8,2,5,80,127,1842032256
11312,24,Jits_Pract_8,0,5,56,103,1842825604
11312,24,Jits_Pract_8,1,5,63,98,1842828624
11312,24,Jits_Pract_8,2,5,80,127,1842831748
11312,24,Jits_Pract_8,0,5,80,127,1843565996
11312,24,Jits_Pract_8,1,5,63,98,1843656132
11312,24,Jits_Pract_8,2,5,56,103,1843666624
11312,24,Jits_Pract_8,0,5,56,103,1844386108
11312,24,Jits_Pract_8,1,5,63,98,1844396452
11312,24,Jits_Pract_8,2,5,80,127,1844485536
11312,24,Jits_Pract_8,0,5,63,98,1845156468
11312,24,Jits_Pract_8,1,5,80,127,1845185996
11312,24,Jits_Pract_8,2,5,56,103,1845215596
11312,24,Jits_Pract_8,0,1,48,56,1845948656
11312,24,Jits_Pract_8,1,5,56,103,1845955876
11312,24,Jits_Pract_8,2,5,80,127,1846056336
11312,24,Jits_Pract_8,3,5,63,98,1846105436
11312,24,Jits_Pract_8,0,5,56,103,1846755716
11312,24,Jits_Pract_8,1,1,48,52,1846785440
11312,24,Jits_Pract_8,2,5,80,127,1846805840
11312,24,Jits_Pract_8,3,5,63,98,1846845776
11312,24,Jits_Pract_8,0,1,48,51,1847551624
11312,24,Jits_Pract_8,1,5,80,127,1847586344
11312,24,Jits_Pract_8,2,5,63,98,1847615944
11312,24,Jits_Pract_8,3,5,56,103,1847685488
11312,24,Jits_Pract_8,0,1,48,50,1848400632
11312,24,Jits_Pract_8,1,5,63,98,1848415500
11312,24,Jits_Pract_8,2,5,56,103,1848446296
11312,24,Jits_Pract_8,3,5,80,127,1848505624
11312,24,Jits_Pract_8,0,5,56,103,1849155824
11312,24,Jits_Pract_8,1,5,80,127,1849158820
11312,24,Jits_Pract_8,2,1,48,60,1849180548
11312,24,Jits_Pract_8,3,5,63,98,1849276900
11312,24,Jits_Pract_8,0,1,48,57,1849994396
11312,24,Jits_Pract_8,1,5,56,103,1850035772
11312,24,Jits_Pract_8,2,5,80,127,1850075560
11312,24,Jits_Pract_8,3,5,63,98,1850085684
11312,24,Jits_Pract_8,0,5,56,103,1850796508
11312,24,Jits_Pract_8,1,1,48,63,1850802692
11312,24,Jits_Pract_8,2,5,80,127,1850815836
11312,24,Jits_Pract_8,3,5,63,98,1850895704
11312,24,Jits_Pract_8,0,5,80,127,1851585864
11312,24,Jits_Pract_8,1,1,48,63,1851612728
11312,24,Jits_Pract_8,2,5,56,103,1851686404
11312,24,Jits_Pract_8,3,5,63,98,1851695332
11312,24,Jits_Pract_8,0,5,63,98,1852355896
11312,24,Jits_Pract_8,1,5,80,127,1852416364
11312,24,Jits_Pract_8,2,5,56,103,1852425512
11312,24,Jits_Pract_8,3,1,48,65,1852434028
11312,24,Jits_Pract_8,0,5,56,103,1853155648
11312,24,Jits_Pract_8,1,1,48,65,1853199596
11312,24,Jits_Pract_8,2,5,63,98,1853226292
11312,24,Jits_Pract_8,3,5,80,127,1853229656
11312,24,Jits_Pract_8,0,9999,9999,9999,1842423892
11312,24,Jits_Pract_8,1,9999,9999,9999,1843223608
11312,24,Jits_Pract_8,2,9999,9999,9999,1844023420
11312,24,Jits_Pract_8,3,9999,9999,9999,1844823100
11312,24,Jits_Pract_8,4,9999,9999,9999,1845623876
11312,24,Jits_Pract_8,5,9999,9999,9999,1846423648
11312,24,Jits_Pract_8,6,9999,9999,9999,1847223404
11312,24,Jits_Pract_8,7,9999,9999,9999,1848023100
11312,24,Jits_Pract_8,8,9999,9999,9999,1848823912
11312,24,Jits_Pract_8,9,9999,9999,9999,1849623656
11312,24,Jits_Pract_8,10,9999,9999,9999,1850423360
11312,24,Jits_Pract_8,11,9999,9999,9999,1851223140
11312,24,Jits_Pract_8,12,9999,9999,9999,1852023888
11312,24,Jits_Pract_8,13,9999,9999,9999,1852823656
11312,24,Jits_Pract_8,14,9999,9999,9999,1853623396
11313,25,Jits_Pract_5,0,5,56,103,1864933032
11313,25,Jits_Pract_5,1,5,63,98,1864936052
11313,25,Jits_Pract_5,2,5,80,127,1864939172
11313,25,Jits_Pract_5,0,5,56,103,1865432456
11313,25,Jits_Pract_5,1,5,63,98,1865435780
11313,25,Jits_Pract_5,2,5,80,127,1865438828
11313,25,Jits_Pract_5,0,5,56,103,1865933100
11313,25,Jits_Pract_5,1,5,80,127,1865943516
11313,25,Jits_Pract_5,2,5,63,98,1865963076
11313,25,Jits_Pract_5,0,5,63,98,1866382720
11313,25,Jits_Pract_5,1,5,80,127,1866413444
11313,25,Jits_Pract_5,2,5,56,103,1866422516
11313,25,Jits_Pract_5,0,5,80,127,1866943056
11313,25,Jits_Pract_5,1,1,48,67,1866951360
11313,25,Jits_Pract_5,2,5,56,103,1866953024
11313,25,Jits_Pract_5,3,5,63,98,1866982772
11313,25,Jits_Pract_5,0,5,63,98,1867433404
11313,25,Jits_Pract_5,1,1,48,72,1867463080
11313,25,Jits_Pract_5,2,5,56,103,1867464416
11313,25,Jits_Pract_5,3,5,80,127,1867473196
11313,25,Jits_Pract_5,0,5,56,103,1867883052
11313,25,Jits_Pract_5,1,5,63,98,1867933180
11313,25,Jits_Pract_5,2,5,80,127,1867952368
11313,25,Jits_Pract_5,3,1,48,73,1867958404
11313,25,Jits_Pract_5,0,5,80,127,1868382608
11313,25,Jits_Pract_5,1,1,48,68,1868415020
11313,25,Jits_Pract_5,2,5,63,98,1868432952
11313,25,Jits_Pract_5,3,5,56,103,1868472664
11313,25,Jits_Pract_5,0,5,56,103,1868883284
11313,25,Jits_Pract_5,1,5,63,98,1868912960
11313,25,Jits_Pract_5,2,1,48,67,1868948436
11313,25,Jits_Pract_5,3,5,80,127,1868982636
11313,25,Jits_Pract_5,0,5,56,103,1869382964
11313,25,Jits_Pract_5,1,1,48,67,1869427012
11313,25,Jits_Pract_5,2,5,80,127,1869442476
11313,25,Jits_Pract_5,3,5,63,98,1869473124
11313,25,Jits_Pract_5,0,5,56,103,1869892936
11313,25,Jits_Pract_5,1,5,63,98,1869903308
11313,25,Jits_Pract_5,2,1,48,62,1869916988
11313,25,Jits_Pract_5,3,5,80,127,1869943088
11313,25,Jits_Pract_5,0,5,63,98,1870382376
11313,25,Jits_Pract_5,1,1,48,62,1870404596
11313,25,Jits_Pract_5,2,5,80,127,1870463236
11313,25,Jits_Pract_5,3,5,56,103,1870472612
11313,25,Jits_Pract_5,0,5,63,98,1870933264
11313,25,Jits_Pract_5,1,1,48,53,1870940200
11313,25,Jits_Pract_5,2,5,56,103,1870973268
11313,25,Jits_Pract_5,3,5,80,127,1870976412
11313,25,Jits_Pract_5,0,5,56,103,1871393136
11313,25,Jits_Pract_5,1,5,63,98,1871403332
11313,25,Jits_Pract_5,2,5,80,127,1871443296
11313,25,Jits_Pract_5,3,1,48,46,1871479444
11313,25,Jits_Pract_5,0,5,56,103,1871882796
11313,25,Jits_Pract_5,1,5,63,98,1871885640
11313,25,Jits_Pract_5,2,5,80,127,1871903032
11313,25,Jits_Pract_5,3,1,48,63,1871956664
11313,25,Jits_Pract_5,0,9999,9999,9999,1865180244
11313,25,Jits_Pract_5,1,9999,9999,9999,1865681016
11313,25,Jits_Pract_5,2,9999,9999,9999,1866180688
11313,25,Jits_Pract_5,3,9999,9999,9999,1866680428
11313,25,Jits_Pract_5,4,9999,9999,9999,1867180140
11313,25,Jits_Pract_5,5,9999,9999,9999,1867680824
11313,25,Jits_Pract_5,6,9999,9999,9999,1868180592
11313,25,Jits_Pract_5,7,9999,9999,9999,1868680296
11313,25,Jits_Pract_5,8,9999,9999,9999,1869181052
11313,25,Jits_Pract_5,9,9999,9999,9999,1869680756
11313,25,Jits_Pract_5,10,9999,9999,9999,1870180460
11313,25,Jits_Pract_5,11,9999,9999,9999,1870680168
11313,25,Jits_Pract_5,12,9999,9999,9999,1871180876
11313,25,Jits_Pract_5,13,9999,9999,9999,1871680636
11313,25,Jits_Pract_5,14,9999,9999,9999,1872180328
11314,15,Jits_Phase_8,0,5,56,103,1900504400
11314,15,Jits_Phase_8,1,5,63,98,1900507428
11314,15,Jits_Phase_8,2,5,80,127,1900510700
11314,15,Jits_Phase_8,0,5,56,103,1901305396
11314,15,Jits_Phase_8,1,5,63,98,1901308344
11314,15,Jits_Phase_8,2,5,80,127,1901311544
11314,15,Jits_Phase_8,0,5,80,127,1902044520
11314,15,Jits_Phase_8,1,5,63,98,1902134656
11314,15,Jits_Phase_8,2,5,56,103,1902144856
11314,15,Jits_Phase_8,0,5,56,103,1902864712
11314,15,Jits_Phase_8,1,5,63,98,1902875132
11314,15,Jits_Phase_8,2,5,80,127,1902965064
11314,15,Jits_Phase_8,0,1,48,77,1903629644
11314,15,Jits_Phase_8,1,5,63,98,1903634920
11314,15,Jits_Phase_8,2,5,80,127,1903664596
11314,15,Jits_Phase_8,3,5,56,103,1903695492
11314,15,Jits_Phase_8,0,1,48,81,1904383260
11314,15,Jits_Phase_8,1,5,56,103,1904434452
11314,15,Jits_Phase_8,2,5,80,127,1904535008
11314,15,Jits_Phase_8,3,5,63,98,1904585280
11314,15,Jits_Phase_8,0,1,48,84,1905212692
11314,15,Jits_Phase_8,1,5,56,103,1905235360
11314,15,Jits_Phase_8,2,5,80,127,1905284516
11314,15,Jits_Phase_8,3,5,63,98,1905325408
11314,15,Jits_Phase_8,0,1,48,97,1906012000
11314,15,Jits_Phase_8,1,5,80,127,1906064636
11314,15,Jits_Phase_8,2,5,63,98,1906094460
11314,15,Jits_Phase_8,3,5,56,103,1906165244
11314,15,Jits_Phase_8,0,1,48,74,1906862200
11314,15,Jits_Phase_8,1,5,63,98,1906895404
11314,15,Jits_Phase_8,2,5,56,103,1906924856
11314,15,Jits_Phase_8,3,5,80,127,1906985376
11314,15,Jits_Phase_8,0,5,56,103,1907634488
11314,15,Jits_Phase_8,1,5,80,127,1907637700
11314,15,Jits_Phase_8,2,1,48,67,1907704284
11314,15,Jits_Phase_8,3,5,63,98,1907755324
11314,15,Jits_Phase_8,0,1,48,66,1908475720
11314,15,Jits_Phase_8,1,5,56,103,1908515304
11314,15,Jits_Phase_8,2,5,80,127,1908555168
11314,15,Jits_Phase_8,3,5,63,98,1908565464
11314,15,Jits_Phase_8,0,1,48,67,1909272872
11314,15,Jits_Phase_8,1,5,56,103,1909274912
11314,15,Jits_Phase_8,2,5,80,127,1909294400
11314,15,Jits_Phase_8,3,5,63,98,1909375324
11314,15,Jits_Phase_8,0,5,80,127,1910064492
11314,15,Jits_Phase_8,1,1,48,72,1910116484
11314,15,Jits_Phase_8,2,5,56,103,1910164832
11314,15,Jits_Phase_8,3,5,63,98,1910175028
11314,15,Jits_Phase_8,0,5,63,98,1910834452
11314,15,Jits_Phase_8,1,5,80,127,1910895240
11314,15,Jits_Phase_8,2,5,56,103,1910905136
11314,15,Jits_Phase_8,3,1,48,72,1910932144
11314,15,Jits_Phase_8,0,5,56,103,1911635428
11314,15,Jits_Phase_8,1,1,48,55,1911680352
11314,15,Jits_Phase_8,2,5,63,98,1911705176
11314,15,Jits_Phase_8,3,5,80,127,1911708392
11314,15,Jits_Phase_8,0,5,63,98,1912464640
11314,15,Jits_Phase_8,1,1,48,59,1912466124
11314,15,Jits_Phase_8,2,5,56,103,1912515128
11314,15,Jits_Phase_8,3,5,80,127,1912518268
11314,15,Jits_Phase_8,0,5,56,103,1913224520
11314,15,Jits_Phase_8,1,5,80,127,1913227660
11314,15,Jits_Phase_8,2,1,48,66,1913241864
11314,15,Jits_Phase_8,3,5,63,98,1913314640
11314,15,Jits_Phase_8,0,1,48,62,1914049860
11314,15,Jits_Phase_8,1,5,63,98,1914065176
11314,15,Jits_Phase_8,2,5,56,103,1914155372
11314,15,Jits_Phase_8,3,5,80,127,1914185120
11314,15,Jits_Phase_8,0,5,56,103,1914854756
11314,15,Jits_Phase_8,1,1,48,56,1914869704
11314,15,Jits_Phase_8,2,5,63,98,1914955296
11314,15,Jits_Phase_8,3,5,80,127,1914984756
11314,15,Jits_Phase_8,0,5,63,98,1915675212
11314,15,Jits_Phase_8,1,1,48,67,1915680276
11314,15,Jits_Phase_8,2,5,56,103,1915685252
11314,15,Jits_Phase_8,3,5,80,127,1915775392
11314,15,Jits_Phase_8,0,1,48,75,1916486548
11314,15,Jits_Phase_8,1,5,63,98,1916495072
11314,15,Jits_Phase_8,2,5,56,103,1916575016
11314,15,Jits_Phase_8,3,5,80,127,1916578156
11314,15,Jits_Phase_8,0,5,80,127,1917254952
11314,15,Jits_Phase_8,1,5,63,98,1917274464
11314,15,Jits_Phase_8,2,1,48,65,1917297884
11314,15,Jits_Phase_8,3,5,56,103,1917335068
11314,15,Jits_Phase_8,0,5,56,103,1918094904
11314,15,Jits_Phase_8,1,1,48,58,1918103128
11314,15,Jits_Phase_8,2,5,63,98,1918115132
11314,15,Jits_Phase_8,3,5,80,127,1918118496
11314,15,Jits_Phase_8,0,5,63,98,1918835180
11314,15,Jits_Phase_8,1,1,48,67,1918876812
11314,15,Jits_Phase_8,2,5,80,127,1918915192
11314,15,Jits_Phase_8,3,5,56,103,1918925092
11314,15,Jits_Phase_8,0,1,48,60,1919624792
11314,15,Jits_Phase_8,1,5,63,98,1919655232
11314,15,Jits_Phase_8,2,5,56,103,1919674868
11314,15,Jits_Phase_8,3,5,80,127,1919725276
11314,15,Jits_Phase_8,0,1,48,58,1920388280
11314,15,Jits_Phase_8,1,5,80,127,1920454992
11314,15,Jits_Phase_8,2,5,63,98,1920495064
11314,15,Jits_Phase_8,3,5,56,103,1920514552
11314,15,Jits_Phase_8,0,1,48,65,1921220096
11314,15,Jits_Phase_8,1,5,56,103,1921294828
11314,15,Jits_Phase_8,2,5,63,98,1921305028
11314,15,Jits_Phase_8,3,5,80,127,1921325396
11314,15,Jits_Phase_8,0,5,56,103,1922024992
11314,15,Jits_Phase_8,1,1,48,62,1922062732
11314,15,Jits_Phase_8,2,5,63,98,1922114896
11314,15,Jits_Phase_8,3,5,80,127,1922175296
11314,15,Jits_Phase_8,0,1,48,58,1922850716
11314,15,Jits_Phase_8,1,5,80,127,1922855400
11314,15,Jits_Phase_8,2,5,56,103,1922864472
11314,15,Jits_Phase_8,3,5,63,98,1922935148
11314,15,Jits_Phase_8,0,1,48,73,1923663104
11314,15,Jits_Phase_8,1,5,63,98,1923684924
11314,15,Jits_Phase_8,2,5,80,127,1923774968
11314,15,Jits_Phase_8,3,5,56,103,1923785092
11314,15,Jits_Phase_8,0,5,63,98,1924415068
11314,15,Jits_Phase_8,1,5,80,127,1924465148
11314,15,Jits_Phase_8,2,1,48,66,1924479424
11314,15,Jits_Phase_8,3,5,56,103,1924525380
11314,15,Jits_Phase_8,0,5,56,103,1925235008
11314,15,Jits_Phase_8,1,5,80,127,1925285208
11314,15,Jits_Phase_8,2,1,48,62,1925299560
11314,15,Jits_Phase_8,3,5,63,98,1925304760
11314,15,Jits_Phase_8,0,5,56,103,1926005104
11314,15,Jits_Phase_8,1,1,48,54,1926063008
11314,15,Jits_Phase_8,2,5,80,127,1926064444
11314,15,Jits_Phase_8,3,5,63,98,1926135020
11314,15,Jits_Phase_8,0,5,56,103,1926804952
11314,15,Jits_Phase_8,1,5,80,127,1926834556
11314,15,Jits_Phase_8,2,1,48,54,1926852568
11314,15,Jits_Phase_8,3,5,63,98,1926865196
11314,15,Jits_Phase_8,0,1,48,62,1927621832
11314,15,Jits_Phase_8,1,5,56,103,1927644568
11314,15,Jits_Phase_8,2,5,80,127,1927665104
11314,15,Jits_Phase_8,3,5,63,98,1927725480
11314,15,Jits_Phase_8,0,1,48,57,1928419268
11314,15,Jits_Phase_8,1,5,80,127,1928525328
11314,15,Jits_Phase_8,2,5,56,103,1928535448
11314,15,Jits_Phase_8,3,5,63,98,1928544596
11314,15,Jits_Phase_8,0,1,48,60,1929262504
11314,15,Jits_Phase_8,1,5,56,103,1929285000
11314,15,Jits_Phase_8,2,5,80,127,1929324888
11314,15,Jits_Phase_8,3,5,63,98,1929354548
11314,15,Jits_Phase_8,0,5,56,103,1930055024
11314,15,Jits_Phase_8,1,1,48,73,1930063420
11314,15,Jits_Phase_8,2,5,63,98,1930084720
11314,15,Jits_Phase_8,3,5,80,127,1930124580
11314,15,Jits_Phase_8,0,5,80,127,1930804528
11314,15,Jits_Phase_8,1,5,63,98,1930854980
11314,15,Jits_Phase_8,2,1,48,75,1930855944
11314,15,Jits_Phase_8,3,5,56,103,1930875208
11314,15,Jits_Phase_8,0,5,56,103,1931635036
11314,15,Jits_Phase_8,1,1,48,57,1931647372
11314,15,Jits_Phase_8,2,5,80,127,1931704640
11314,15,Jits_Phase_8,3,5,63,98,1931765160
11314,15,Jits_Phase_8,0,5,80,127,1932435040
11314,15,Jits_Phase_8,1,1,48,61,1932453376
11314,15,Jits_Phase_8,2,5,63,98,1932524792
11314,15,Jits_Phase_8,3,5,56,103,1932545404
11314,15,Jits_Phase_8,0,5,63,98,1933254972
11314,15,Jits_Phase_8,1,5,56,103,1933274460
11314,15,Jits_Phase_8,2,1,48,74,1933280192
11314,15,Jits_Phase_8,3,5,80,127,1933314388
11314,15,Jits_Phase_8,0,5,80,127,1934014796
11314,15,Jits_Phase_8,1,5,63,98,1934035256
11314,15,Jits_Phase_8,2,1,48,71,1934077704
11314,15,Jits_Phase_8,3,5,56,103,1934115264
11314,15,Jits_Phase_8,0,5,63,98,1934805348
11314,15,Jits_Phase_8,1,1,48,69,1934821124
11314,15,Jits_Phase_8,2,5,56,103,1934914880
11314,15,Jits_Phase_8,3,5,80,127,1934918680
11314,15,Jits_Phase_8,0,5,63,98,1935624800
11314,15,Jits_Phase_8,1,1,48,67,1935628892
11314,15,Jits_Phase_8,2,5,56,103,1935634768
11314,15,Jits_Phase_8,3,5,80,127,1935638056
11314,15,Jits_Phase_8,0,5,56,103,1936404836
11314,15,Jits_Phase_8,1,1,48,69,1936421508
11314,15,Jits_Phase_8,2,5,80,127,1936524644
11314,15,Jits_Phase_8,3,5,63,98,1936564876
11314,15,Jits_Phase_8,0,1,48,69,1937203008
11314,15,Jits_Phase_8,1,5,56,103,1937225132
11314,15,Jits_Phase_8,2,5,80,127,1937305060
11314,15,Jits_Phase_8,3,5,63,98,1937325520
11314,15,Jits_Phase_8,0,5,56,103,1938024752
11314,15,Jits_Phase_8,1,1,48,86,1938026764
11314,15,Jits_Phase_8,2,5,63,98,1938135464
11314,15,Jits_Phase_8,3,5,80,127,1938138976
11314,15,Jits_Phase_8,0,1,48,73,1938851300
11314,15,Jits_Phase_8,1,5,56,103,1938864744
11314,15,Jits_Phase_8,2,5,80,127,1938895316
11314,15,Jits_Phase_8,3,5,63,98,1938914804
11314,15,Jits_Phase_8,0,5,63,98,1939654996
11314,15,Jits_Phase_8,1,1,48,76,1939656184
11314,15,Jits_Phase_8,2,5,56,103,1939665260
11314,15,Jits_Phase_8,3,5,80,127,1939674632
11314,15,Jits_Phase_8,0,1,48,84,1940437404
11314,15,Jits_Phase_8,1,5,80,127,1940444700
11314,15,Jits_Phase_8,2,5,56,103,1940494904
11314,15,Jits_Phase_8,3,5,63,98,1940534752
11314,15,Jits_Phase_8,0,1,48,76,1941238060
11314,15,Jits_Phase_8,1,5,80,127,1941264836
11314,15,Jits_Phase_8,2,5,63,98,1941285224
11314,15,Jits_Phase_8,3,5,56,103,1941335284
11314,15,Jits_Phase_8,0,1,48,86,1942050696
11314,15,Jits_Phase_8,1,5,80,127,1942074860
11314,15,Jits_Phase_8,2,5,56,103,1942104484
11314,15,Jits_Phase_8,3,5,63,98,1942175048
11314,15,Jits_Phase_8,0,1,48,78,1942873500
11314,15,Jits_Phase_8,1,5,56,103,1942924620
11314,15,Jits_Phase_8,2,5,80,127,1942935036
11314,15,Jits_Phase_8,3,5,63,98,1942974812
11314,15,Jits_Phase_8,0,5,56,103,1943635456
11314,15,Jits_Phase_8,1,5,63,98,1943654648
11314,15,Jits_Phase_8,2,1,48,73,1943693132
11314,15,Jits_Phase_8,3,5,80,127,1943725664
11314,15,Jits_Phase_8,0,5,63,98,1944454928
11314,15,Jits_Phase_8,1,1,48,90,1944489956
11314,15,Jits_Phase_8,2,5,80,127,1944514868
11314,15,Jits_Phase_8,3,5,56,103,1944535624
11314,15,Jits_Phase_8,0,5,80,127,1945244944
11314,15,Jits_Phase_8,1,5,56,103,1945274696
11314,15,Jits_Phase_8,2,1,48,69,1945284788
11314,15,Jits_Phase_8,3,5,63,98,1945304436
11314,15,Jits_Phase_8,0,5,56,103,1946044716
11314,15,Jits_Phase_8,1,1,48,74,1946067088
11314,15,Jits_Phase_8,2,5,63,98,1946105172
11314,15,Jits_Phase_8,3,5,80,127,1946164576
11314,15,Jits_Phase_8,0,5,80,127,1946864940
11314,15,Jits_Phase_8,1,1,48,65,1946876156
11314,15,Jits_Phase_8,2,5,56,103,1946884720
11314,15,Jits_Phase_8,3,5,63,98,1946955248
11314,15,Jits_Phase_8,0,5,80,127,1947664864
11314,15,Jits_Phase_8,1,5,63,98,1947685172
11314,15,Jits_Phase_8,2,1,48,71,1947700948
11314,15,Jits_Phase_8,3,5,56,103,1947714916
11314,15,Jits_Phase_8,0,5,80,127,1948455264
11314,15,Jits_Phase_8,1,5,63,98,1948474604
11314,15,Jits_Phase_8,2,1,48,70,1948485964
11314,15,Jits_Phase_8,3,5,56,103,1948535232
11314,15,Jits_Phase_8,0,5,80,127,1949254960
11314,15,Jits_Phase_8,1,1,48,65,1949291140
11314,15,Jits_Phase_8,2,5,56,103,1949355600
11314,15,Jits_Phase_8,3,5,63,98,1949385276
11314,15,Jits_Phase_8,0,5,63,98,1950044576
11314,15,Jits_Phase_8,1,5,80,127,1950094628
11314,15,Jits_Phase_8,2,1,48,64,1950110624
11314,15,Jits_Phase_8,3,5,56,103,1950115304
11314,15,Jits_Phase_8,0,5,80,127,1950885164
11314,15,Jits_Phase_8,1,1,48,70,1950893832
11314,15,Jits_Phase_8,2,5,56,103,1950914980
11314,15,Jits_Phase_8,3,5,63,98,1950917896
11314,15,Jits_Phase_8,0,1,48,63,1951690424
11314,15,Jits_Phase_8,1,5,63,98,1951735188
11314,15,Jits_Phase_8,2,5,56,103,1951775200
11314,15,Jits_Phase_8,3,5,80,127,1951794524
11314,15,Jits_Phase_8,0,5,80,127,1952494948
11314,15,Jits_Phase_8,1,1,48,56,1952509600
11314,15,Jits_Phase_8,2,5,63,98,1952574740
11314,15,Jits_Phase_8,3,5,56,103,1952614760
11314,15,Jits_Phase_8,0,5,63,98,1953315104
11314,15,Jits_Phase_8,1,1,48,62,1953352920
11314,15,Jits_Phase_8,2,5,80,127,1953394992
11314,15,Jits_Phase_8,3,5,56,103,1953414552
11314,15,Jits_Phase_8,0,5,56,103,1954154752
11314,15,Jits_Phase_8,1,5,63,98,1954165024
11314,15,Jits_Phase_8,2,1,48,71,1954169632
11314,15,Jits_Phase_8,3,5,80,127,1954205100
11314,15,Jits_Phase_8,0,5,56,103,1954874708
11314,15,Jits_Phase_8,1,5,80,127,1954877700
11314,15,Jits_Phase_8,2,1,48,65,1954976892
11314,15,Jits_Phase_8,3,5,63,98,1955015048
11314,15,Jits_Phase_8,0,5,56,103,1955665428
11314,15,Jits_Phase_8,1,5,63,98,1955755340
11314,15,Jits_Phase_8,2,1,48,62,1955789620
11314,15,Jits_Phase_8,3,5,80,127,1955825160
11314,15,Jits_Phase_8,0,5,63,98,1956544848
11314,15,Jits_Phase_8,1,5,80,127,1956548136
11314,15,Jits_Phase_8,2,1,48,67,1956588644
11314,15,Jits_Phase_8,3,5,56,103,1956605524
11314,15,Jits_Phase_8,0,1,48,62,1957361416
11314,15,Jits_Phase_8,1,5,80,127,1957384528
11314,15,Jits_Phase_8,2,5,56,103,1957405136
11314,15,Jits_Phase_8,3,5,63,98,1957415704
11314,15,Jits_Phase_8,0,5,56,103,1958095292
11314,15,Jits_Phase_8,1,5,63,98,1958104444
11314,15,Jits_Phase_8,2,5,80,127,1958174948
11314,15,Jits_Phase_8,3,1,48,64,1958176960
11314,15,Jits_Phase_8,0,5,80,127,1958894844
11314,15,Jits_Phase_8,1,5,56,103,1958945268
11314,15,Jits_Phase_8,2,1,48,61,1958973644
11314,15,Jits_Phase_8,3,5,63,98,1958995484
11314,15,Jits_Phase_8,0,1,48,71,1959758660
11314,15,Jits_Phase_8,1,5,56,103,1959774580
11314,15,Jits_Phase_8,2,5,63,98,1959784848
11314,15,Jits_Phase_8,3,5,80,127,1959824788
11314,15,Jits_Phase_8,0,5,56,103,1960515136
11314,15,Jits_Phase_8,1,5,63,98,1960554876
11314,15,Jits_Phase_8,2,1,48,71,1960583400
11314,15,Jits_Phase_8,3,5,80,127,1960604920
11314,15,Jits_Phase_8,0,5,80,127,1961274680
11314,15,Jits_Phase_8,1,5,56,103,1961324908
11314,15,Jits_Phase_8,2,5,63,98,1961345292
11314,15,Jits_Phase_8,3,1,48,75,1961374184
11314,15,Jits_Phase_8,0,5,80,127,1962084736
11314,15,Jits_Phase_8,1,5,63,98,1962145276
11314,15,Jits_Phase_8,2,1,48,45,1962162940
11314,15,Jits_Phase_8,3,5,56,103,1962224988
11314,15,Jits_Phase_8,0,5,80,127,1962864960
11314,15,Jits_Phase_8,1,5,56,103,1962904824
11314,15,Jits_Phase_8,2,5,63,98,1962925508
11314,15,Jits_Phase_8,3,1,48,76,1962972908
11314,15,Jits_Phase_8,0,5,56,103,1963714848
11314,15,Jits_Phase_8,1,5,80,127,1963725344
11314,15,Jits_Phase_8,2,5,63,98,1963765208
11314,15,Jits_Phase_8,3,1,48,71,1963769372
11314,15,Jits_Phase_8,0,1,48,77,1964544932
11314,15,Jits_Phase_8,1,5,56,103,1964585340
11314,15,Jits_Phase_8,2,5,63,98,1964625448
11314,15,Jits_Phase_8,3,5,80,127,1964628740
11314,15,Jits_Phase_8,0,5,63,98,1965255416
11314,15,Jits_Phase_8,1,5,80,127,1965294832
11314,15,Jits_Phase_8,2,1,48,73,1965354220
11314,15,Jits_Phase_8,3,5,56,103,1965364728
11314,15,Jits_Phase_8,0,5,63,98,1966025212
11314,15,Jits_Phase_8,1,5,56,103,1966104932
11314,15,Jits_Phase_8,2,5,80,127,1966165348
11314,15,Jits_Phase_8,3,1,48,66,1966170336
11314,15,Jits_Phase_8,0,5,80,127,1966835160
11314,15,Jits_Phase_8,1,5,63,98,1966885436
11314,15,Jits_Phase_8,2,5,56,103,1966914816
11314,15,Jits_Phase_8,3,1,48,71,1966950236
11314,15,Jits_Phase_8,0,5,56,103,1967624516
11314,15,Jits_Phase_8,1,5,63,98,1967674796
11314,15,Jits_Phase_8,2,5,80,127,1967685216
11314,15,Jits_Phase_8,3,1,48,69,1967721840
11314,15,Jits_Phase_8,0,5,56,103,1968434476
11314,15,Jits_Phase_8,1,1,48,67,1968512008
11314,15,Jits_Phase_8,2,5,63,98,1968545228
11314,15,Jits_Phase_8,3,5,80,127,1968564492
11314,15,Jits_Phase_8,0,5,63,98,1969235248
11314,15,Jits_Phase_8,1,5,80,127,1969284476
11314,15,Jits_Phase_8,2,1,48,68,1969316808
11314,15,Jits_Phase_8,3,5,56,103,1969374524
11314,15,Jits_Phase_8,0,5,63,98,1970024812
11314,15,Jits_Phase_8,1,5,80,127,1970054488
11314,15,Jits_Phase_8,2,5,56,103,1970144620
11314,15,Jits_Phase_8,3,1,48,73,1970147364
11314,15,Jits_Phase_8,0,5,63,98,1970824484
11314,15,Jits_Phase_8,1,5,56,103,1970834684
11314,15,Jits_Phase_8,2,1,48,58,1970922912
11314,15,Jits_Phase_8,3,5,80,127,1970935440
11314,15,Jits_Phase_8,0,1,48,51,1971722588
11314,15,Jits_Phase_8,1,5,63,98,1971724552
11314,15,Jits_Phase_8,2,5,80,127,1971755424
11314,15,Jits_Phase_8,3,5,56,103,1971785172
11314,15,Jits_Phase_8,0,1,48,51,1972521188
11314,15,Jits_Phase_8,1,5,80,127,1972544820
11314,15,Jits_Phase_8,2,5,63,98,1972555264
11314,15,Jits_Phase_8,3,5,56,103,1972584864
11314,15,Jits_Phase_8,0,5,80,127,1973245248
11314,15,Jits_Phase_8,1,5,63,98,1973264736
11314,15,Jits_Phase_8,2,1,48,73,1973311444
11314,15,Jits_Phase_8,3,5,56,103,1973315004
11314,15,Jits_Phase_8,0,1,48,61,1974037936
11314,15,Jits_Phase_8,1,5,63,98,1974074752
11314,15,Jits_Phase_8,2,5,80,127,1974135304
11314,15,Jits_Phase_8,3,5,56,103,1974154644
11314,15,Jits_Phase_8,0,5,63,98,1974834440
11314,15,Jits_Phase_8,1,1,48,83,1974869272
11314,15,Jits_Phase_8,2,5,56,103,1974884660
11314,15,Jits_Phase_8,3,5,80,127,1974895228
11314,15,Jits_Phase_8,0,1,48,73,1975660396
11314,15,Jits_Phase_8,1,5,56,103,1975665376
11314,15,Jits_Phase_8,2,5,80,127,1975675272
11314,15,Jits_Phase_8,3,5,63,98,1975774604
11314,15,Jits_Phase_8,0,5,80,127,1976424760
11314,15,Jits_Phase_8,1,5,63,98,1976435252
11314,15,Jits_Phase_8,2,1,48,84,1976462264
11314,15,Jits_Phase_8,3,5,56,103,1976584620
11314,15,Jits_Phase_8,0,5,63,98,1977234788
11314,15,Jits_Phase_8,1,5,80,127,1977274876
11314,15,Jits_Phase_8,2,1,48,71,1977284820
11314,15,Jits_Phase_8,3,5,56,103,1977354588
11314,15,Jits_Phase_8,0,5,56,103,1977985396
11314,15,Jits_Phase_8,1,5,80,127,1978084672
11314,15,Jits_Phase_8,2,1,48,67,1978101568
11314,15,Jits_Phase_8,3,5,63,98,1978105200
11314,15,Jits_Phase_8,0,5,80,127,1978804732
11314,15,Jits_Phase_8,1,5,56,103,1978815004
11314,15,Jits_Phase_8,2,1,48,80,1978852348
11314,15,Jits_Phase_8,3,5,63,98,1978905200
11314,15,Jits_Phase_8,0,5,56,103,1979605308
11314,15,Jits_Phase_8,1,1,48,71,1979624944
11314,15,Jits_Phase_8,2,5,63,98,1979626132
11314,15,Jits_Phase_8,3,5,80,127,1979704580
11314,15,Jits_Phase_8,0,5,63,98,1980355032
11314,15,Jits_Phase_8,1,1,48,74,1980373148
11314,15,Jits_Phase_8,2,5,56,103,1980445084
11314,15,Jits_Phase_8,3,5,80,127,1980448076
11314,15,Jits_Phase_8,0,1,48,85,1981148376
11314,15,Jits_Phase_8,1,5,56,103,1981185268
11314,15,Jits_Phase_8,2,5,80,127,1981244912
11314,15,Jits_Phase_8,3,5,63,98,1981255016
11314,15,Jits_Phase_8,0,1,48,64,1981930000
11314,15,Jits_Phase_8,1,5,80,127,1982035384
11314,15,Jits_Phase_8,2,5,56,103,1982044532
11314,15,Jits_Phase_8,3,5,63,98,1982047672
11314,15,Jits_Phase_8,0,1,48,79,1982747068
11314,15,Jits_Phase_8,1,5,56,103,1982795072
11314,15,Jits_Phase_8,2,5,80,127,1982805340
11314,15,Jits_Phase_8,3,5,63,98,1982824976
11314,15,Jits_Phase_8,0,1,48,64,1983514012
11314,15,Jits_Phase_8,1,5,63,98,1983565156
11314,15,Jits_Phase_8,2,5,80,127,1983624560
11314,15,Jits_Phase_8,3,5,56,103,1983674836
11314,15,Jits_Phase_8,0,1,48,58,1984353656
11314,15,Jits_Phase_8,1,5,63,98,1984445664
11314,15,Jits_Phase_8,2,5,56,103,1984454888
11314,15,Jits_Phase_8,3,5,80,127,1984505164
11314,15,Jits_Phase_8,0,5,63,98,1985145128
11314,15,Jits_Phase_8,1,5,80,127,1985164988
11314,15,Jits_Phase_8,2,5,56,103,1985174888
11314,15,Jits_Phase_8,3,1,48,67,1985206096
11314,15,Jits_Phase_8,0,1,48,62,1985919516
11314,15,Jits_Phase_8,1,5,63,98,1985945020
11314,15,Jits_Phase_8,2,5,80,127,1985948232
11314,15,Jits_Phase_8,3,5,56,103,1985984956
11314,15,Jits_Phase_8,0,1,48,63,1986695368
11314,15,Jits_Phase_8,1,5,63,98,1986815248
11314,15,Jits_Phase_8,2,5,80,127,1986845148
11314,15,Jits_Phase_8,3,5,56,103,1986855344
11314,15,Jits_Phase_8,0,1,48,67,1987561340
11314,15,Jits_Phase_8,1,5,56,103,1987565048
11314,15,Jits_Phase_8,2,5,80,127,1987594872
11314,15,Jits_Phase_8,3,5,63,98,1987625296
11314,15,Jits_Phase_8,0,1,48,65,1988316304
11314,15,Jits_Phase_8,1,5,63,98,1988465060
11314,15,Jits_Phase_8,2,5,56,103,1988504844
11314,15,Jits_Phase_8,3,5,80,127,1988507916
11314,15,Jits_Phase_8,0,1,48,67,1989162656
11314,15,Jits_Phase_8,1,5,80,127,1989165388
11314,15,Jits_Phase_8,2,5,56,103,1989245356
11314,15,Jits_Phase_8,3,5,63,98,1989294424
11314,15,Jits_Phase_8,0,5,80,127,1989944848
11314,15,Jits_Phase_8,1,5,56,103,1989965112
11314,15,Jits_Phase_8,2,1,48,73,1990008160
11314,15,Jits_Phase_8,3,5,63,98,1990055160
11314,15,Jits_Phase_8,0,5,80,127,1990785328
11314,15,Jits_Phase_8,1,1,48,68,1990816020
11314,15,Jits_Phase_8,2,5,63,98,1990825332
11314,15,Jits_Phase_8,3,5,56,103,1990865196
11314,15,Jits_Phase_8,0,1,48,65,1991578920
11314,15,Jits_Phase_8,1,5,63,98,1991595508
11314,15,Jits_Phase_8,2,5,80,127,1991654928
11314,15,Jits_Phase_8,3,5,56,103,1991684440
11314,15,Jits_Phase_8,0,1,48,64,1992387144
11314,15,Jits_Phase_8,1,5,56,103,1992435044
11314,15,Jits_Phase_8,2,5,80,127,1992464720
11314,15,Jits_Phase_8,3,5,63,98,1992554860
11314,15,Jits_Phase_8,0,1,48,67,1993230648
11314,15,Jits_Phase_8,1,5,56,103,1993245068
11314,15,Jits_Phase_8,2,5,80,127,1993354540
11314,15,Jits_Phase_8,3,5,63,98,1993385188
11314,15,Jits_Phase_8,0,1,48,79,1994077196
11314,15,Jits_Phase_8,1,5,56,103,1994094900
11314,15,Jits_Phase_8,2,5,63,98,1994155368
11314,15,Jits_Phase_8,3,5,80,127,1994185104
11314,15,Jits_Phase_8,0,5,56,103,1994865080
11314,15,Jits_Phase_8,1,1,48,70,1994889700
11314,15,Jits_Phase_8,2,5,63,98,1994934608
11314,15,Jits_Phase_8,3,5,80,127,1994955068
11314,15,Jits_Phase_8,0,5,80,127,1995635040
11314,15,Jits_Phase_8,1,5,63,98,1995654528
11314,15,Jits_Phase_8,2,1,48,61,1995683876
11314,15,Jits_Phase_8,3,5,56,103,1995704868
11314,15,Jits_Phase_8,0,1,48,66,1996445864
11314,15,Jits_Phase_8,1,5,63,98,1996455256
11314,15,Jits_Phase_8,2,5,80,127,1996464480
11314,15,Jits_Phase_8,3,5,56,103,1996514752
11314,15,Jits_Phase_8,0,1,48,61,1997230256
11314,15,Jits_Phase_8,1,5,63,98,1997254936
11314,15,Jits_Phase_8,2,5,80,127,1997324756
11314,15,Jits_Phase_8,3,5,56,103,1997345136
11314,15,Jits_Phase_8,0,1,48,62,1998069124
11314,15,Jits_Phase_8,1,5,63,98,1998084664
11314,15,Jits_Phase_8,2,5,80,127,1998087804
11314,15,Jits_Phase_8,3,5,56,103,1998155116
11314,15,Jits_Phase_8,0,5,80,127,1998834976
11314,15,Jits_Phase_8,1,5,56,103,1998854684
11314,15,Jits_Phase_8,2,5,63,98,1998864956
11314,15,Jits_Phase_8,3,1,48,65,1998899904
11314,15,Jits_Phase_8,0,5,56,103,1999655268
11314,15,Jits_Phase_8,1,1,48,54,1999707636
11314,15,Jits_Phase_8,2,5,63,98,1999745492
11314,15,Jits_Phase_8,3,5,80,127,1999748856
11314,15,Jits_Phase_8,0,5,80,127,2000425292
11314,15,Jits_Phase_8,1,5,56,103,2000434812
11314,15,Jits_Phase_8,2,5,63,98,2000454972
11314,15,Jits_Phase_8,3,1,48,44,2000485236
11314,15,Jits_Phase_8,0,5,63,98,2001225004
11314,15,Jits_Phase_8,1,1,48,40,2001252556
11314,15,Jits_Phase_8,2,5,80,127,2001284564
11314,15,Jits_Phase_8,3,5,56,103,2001294832
11314,15,Jits_Phase_8,0,1,48,48,2002007784
11314,15,Jits_Phase_8,1,5,63,98,2002094576
11314,15,Jits_Phase_8,2,5,80,127,2002125060
11314,15,Jits_Phase_8,3,5,56,103,2002165072
11314,15,Jits_Phase_8,0,1,48,58,2002843744
11314,15,Jits_Phase_8,1,5,56,103,2002885044
11314,15,Jits_Phase_8,2,5,80,127,2002895392
11314,15,Jits_Phase_8,3,5,63,98,2002935104
11314,15,Jits_Phase_8,0,5,80,127,2003644880
11314,15,Jits_Phase_8,1,1,48,56,2003669720
11314,15,Jits_Phase_8,2,5,56,103,2003724596
11314,15,Jits_Phase_8,3,5,63,98,2003734792
11314,15,Jits_Phase_8,0,1,48,69,2004452496
11314,15,Jits_Phase_8,1,5,80,127,2004494844
11314,15,Jits_Phase_8,2,5,56,103,2004574648
11314,15,Jits_Phase_8,3,5,63,98,2004584920
11314,15,Jits_Phase_8,0,1,48,78,2005326376
11314,15,Jits_Phase_8,1,5,80,127,2005335688
11314,15,Jits_Phase_8,2,5,56,103,2005384848
11314,15,Jits_Phase_8,3,5,63,98,2005434884
11314,15,Jits_Phase_8,0,1,48,65,2006173860
11314,15,Jits_Phase_8,1,5,56,103,2006274484
11314,15,Jits_Phase_8,2,5,63,98,2006277548
11314,15,Jits_Phase_8,3,5,80,127,2006324756
11314,15,Jits_Phase_8,0,5,56,103,2007094636
11314,15,Jits_Phase_8,1,1,48,63,2007102392
11314,15,Jits_Phase_8,2,5,63,98,2007125452
11314,15,Jits_Phase_8,3,5,80,127,2007134900
11314,15,Jits_Phase_8,0,5,63,98,2007805332
11314,15,Jits_Phase_8,1,5,56,103,2007874792
11314,15,Jits_Phase_8,2,5,80,127,2007925016
11314,15,Jits_Phase_8,3,1,48,63,2007951948
11314,15,Jits_Phase_8,0,5,63,98,2008634688
11314,15,Jits_Phase_8,1,5,56,103,2008644956
11314,15,Jits_Phase_8,2,5,80,127,2008648048
11314,15,Jits_Phase_8,3,1,48,62,2008729080
11314,15,Jits_Phase_8,0,5,80,127,2009385284
11314,15,Jits_Phase_8,1,5,56,103,2009444656
11314,15,Jits_Phase_8,2,1,48,57,2009479608
11314,15,Jits_Phase_8,3,5,63,98,2009534776
11314,15,Jits_Phase_8,0,5,80,127,2010185080
11314,15,Jits_Phase_8,1,5,56,103,2010285704
11314,15,Jits_Phase_8,2,1,48,56,2010295720
11314,15,Jits_Phase_8,3,5,63,98,2010325484
11314,15,Jits_Phase_8,0,5,56,103,2011034980
11314,15,Jits_Phase_8,1,5,63,98,2011054540
11314,15,Jits_Phase_8,2,5,80,127,2011095748
11314,15,Jits_Phase_8,3,1,48,58,2011097388
11314,15,Jits_Phase_8,0,5,63,98,2011805008
11314,15,Jits_Phase_8,1,5,56,103,2011824644
11314,15,Jits_Phase_8,2,1,48,68,2011875260
11314,15,Jits_Phase_8,3,5,80,127,2011924732
11314,15,Jits_Phase_8,0,5,63,98,2012594576
11314,15,Jits_Phase_8,1,1,48,64,2012628260
11314,15,Jits_Phase_8,2,5,80,127,2012705084
11314,15,Jits_Phase_8,3,5,56,103,2012734892
11314,15,Jits_Phase_8,0,5,56,103,2013414644
11314,15,Jits_Phase_8,1,1,48,61,2013434772
11314,15,Jits_Phase_8,2,5,63,98,2013444608
11314,15,Jits_Phase_8,3,5,80,127,2013494512
11314,15,Jits_Phase_8,0,5,63,98,2014184744
11314,15,Jits_Phase_8,1,5,56,103,2014214420
11314,15,Jits_Phase_8,2,1,48,67,2014235520
11314,15,Jits_Phase_8,3,5,80,127,2014264612
11314,15,Jits_Phase_8,0,1,48,65,2014996676
11314,15,Jits_Phase_8,1,5,56,103,2015015428
11314,15,Jits_Phase_8,2,5,63,98,2015034844
11314,15,Jits_Phase_8,3,5,80,127,2015114496
11314,15,Jits_Phase_8,0,5,63,98,2015785524
11314,15,Jits_Phase_8,1,1,48,64,2015795392
11314,15,Jits_Phase_8,2,5,56,103,2015844664
11314,15,Jits_Phase_8,3,5,80,127,2015874636
11314,15,Jits_Phase_8,0,1,48,55,2016596808
11314,15,Jits_Phase_8,1,5,56,103,2016624932
11314,15,Jits_Phase_8,2,5,80,127,2016685472
11314,15,Jits_Phase_8,3,5,63,98,2016725544
11314,15,Jits_Phase_8,0,5,63,98,2017405664
11314,15,Jits_Phase_8,1,1,48,51,2017427440
11314,15,Jits_Phase_8,2,5,56,103,2017464632
11314,15,Jits_Phase_8,3,5,80,127,2017535640
11314,15,Jits_Phase_8,0,1,48,65,2018224428
11314,15,Jits_Phase_8,1,5,56,103,2018284764
11314,15,Jits_Phase_8,2,5,63,98,2018295180
11314,15,Jits_Phase_8,3,5,80,127,2018298692
11314,15,Jits_Phase_8,0,5,63,98,2019025408
11314,15,Jits_Phase_8,1,1,48,77,2019038564
11314,15,Jits_Phase_8,2,5,56,103,2019084596
11314,15,Jits_Phase_8,3,5,80,127,2019087660
11314,15,Jits_Phase_8,0,5,63,98,2019804556
11314,15,Jits_Phase_8,1,5,80,127,2019835352
11314,15,Jits_Phase_8,2,1,48,48,2019849856
11314,15,Jits_Phase_8,3,5,56,103,2019854756
11314,15,Jits_Phase_8,0,5,56,103,2020534632
11314,15,Jits_Phase_8,1,5,63,98,2020584836
11314,15,Jits_Phase_8,2,1,48,63,2020607580
11314,15,Jits_Phase_8,3,5,80,127,2020664620
11314,15,Jits_Phase_8,0,5,80,127,2021234924
11314,15,Jits_Phase_8,1,5,63,98,2021274864
11314,15,Jits_Phase_8,2,5,56,103,2021294424
11314,15,Jits_Phase_8,3,1,48,60,2021379120
11314,15,Jits_Phase_8,0,1,48,49,2022031580
11314,15,Jits_Phase_8,1,5,56,103,2022104436
11314,15,Jits_Phase_8,2,5,80,127,2022114632
11314,15,Jits_Phase_8,3,5,63,98,2022135224
11314,15,Jits_Phase_8,0,1,48,46,2022857792
11314,15,Jits_Phase_8,1,5,56,103,2022884644
11314,15,Jits_Phase_8,2,5,63,98,2022934920
11314,15,Jits_Phase_8,3,5,80,127,2022964580
11314,15,Jits_Phase_8,0,5,56,103,2023635412
11314,15,Jits_Phase_8,1,5,63,98,2023644560
11314,15,Jits_Phase_8,2,1,48,51,2023667760
11314,15,Jits_Phase_8,3,5,80,127,2023694608
11314,15,Jits_Phase_8,0,5,56,103,2024424836
11314,15,Jits_Phase_8,1,5,80,127,2024427680
11314,15,Jits_Phase_8,2,1,48,79,2024435004
11314,15,Jits_Phase_8,3,5,63,98,2024584568
11314,15,Jits_Phase_8,0,5,63,98,2025245128
11314,15,Jits_Phase_8,1,1,48,85,2025271764
11314,15,Jits_Phase_8,2,5,56,103,2025314604
11314,15,Jits_Phase_8,3,5,80,127,2025354540
11314,15,Jits_Phase_8,0,1,48,72,2026067948
11314,15,Jits_Phase_8,1,5,63,98,2026084688
11314,15,Jits_Phase_8,2,5,56,103,2026174880
11314,15,Jits_Phase_8,3,5,80,127,2026178168
11314,15,Jits_Phase_8,0,5,56,103,2026864896
11314,15,Jits_Phase_8,1,1,48,85,2026922100
11314,15,Jits_Phase_8,2,5,63,98,2026955320
11314,15,Jits_Phase_8,3,5,80,127,2026965368
11314,15,Jits_Phase_8,0,5,56,103,2027635076
11314,15,Jits_Phase_8,1,5,63,98,2027685428
11314,15,Jits_Phase_8,2,5,80,127,2027715028
11314,15,Jits_Phase_8,3,1,48,92,2027717544
11314,15,Jits_Phase_8,0,1,48,87,2028485764
11314,15,Jits_Phase_8,1,5,63,98,2028514708
11314,15,Jits_Phase_8,2,5,80,127,2028525052
11314,15,Jits_Phase_8,3,5,56,103,2028585276
11314,15,Jits_Phase_8,0,5,63,98,2029234540
11314,15,Jits_Phase_8,1,5,80,127,2029295152
11314,15,Jits_Phase_8,2,1,48,79,2029300816
11314,15,Jits_Phase_8,3,5,56,103,2029334784
11314,15,Jits_Phase_8,0,1,48,66,2030094728
11314,15,Jits_Phase_8,1,5,56,103,2030134756
11314,15,Jits_Phase_8,2,5,80,127,2030155240
11314,15,Jits_Phase_8,3,5,63,98,2030174432
11314,15,Jits_Phase_8,0,5,63,98,2030854512
11314,15,Jits_Phase_8,1,5,56,103,2030874972
11314,15,Jits_Phase_8,2,5,80,127,2030915060
11314,15,Jits_Phase_8,3,1,48,84,2030916468
11314,15,Jits_Phase_8,0,5,63,98,2031664432
11314,15,Jits_Phase_8,1,5,80,127,2031695404
11314,15,Jits_Phase_8,2,1,48,75,2031699568
11314,15,Jits_Phase_8,3,5,56,103,2031714736
11314,15,Jits_Phase_8,0,5,80,127,2032434596
11314,15,Jits_Phase_8,1,1,48,92,2032481932
11314,15,Jits_Phase_8,2,5,56,103,2032484668
11314,15,Jits_Phase_8,3,5,63,98,2032545280
11314,15,Jits_Phase_8,0,5,63,98,2033225104
11314,15,Jits_Phase_8,1,1,48,80,2033288080
11314,15,Jits_Phase_8,2,5,56,103,2033344900
11314,15,Jits_Phase_8,3,5,80,127,2033374648
11314,15,Jits_Phase_8,0,5,80,127,2034064648
11314,15,Jits_Phase_8,1,1,48,98,2034079224
11314,15,Jits_Phase_8,2,5,63,98,2034085324
11314,15,Jits_Phase_8,3,5,56,103,2034154932
11314,15,Jits_Phase_8,0,5,63,98,2034885172
11314,15,Jits_Phase_8,1,5,56,103,2034895220
11314,15,Jits_Phase_8,2,1,48,79,2034896188
11314,15,Jits_Phase_8,3,5,80,127,2034975232
11314,15,Jits_Phase_8,0,1,48,67,2035693680
11314,15,Jits_Phase_8,1,5,56,103,2035745244
11314,15,Jits_Phase_8,2,5,80,127,2035774768
11314,15,Jits_Phase_8,3,5,63,98,2035785360
11314,15,Jits_Phase_8,0,9999,9999,9999,1900902516
11314,15,Jits_Phase_8,1,9999,9999,9999,1901702236
11314,15,Jits_Phase_8,2,9999,9999,9999,1902503024
11314,15,Jits_Phase_8,3,9999,9999,9999,1903302760
11314,15,Jits_Phase_8,4,9999,9999,9999,1904102468
11314,15,Jits_Phase_8,5,9999,9999,9999,1904902228
11314,15,Jits_Phase_8,6,9999,9999,9999,1905703032
11314,15,Jits_Phase_8,7,9999,9999,9999,1906502716
11314,15,Jits_Phase_8,8,9999,9999,9999,1907302500
11314,15,Jits_Phase_8,9,9999,9999,9999,1908102244
11314,15,Jits_Phase_8,10,9999,9999,9999,1908902996
11314,15,Jits_Phase_8,11,9999,9999,9999,1909702756
11314,15,Jits_Phase_8,12,9999,9999,9999,1910502520
11314,15,Jits_Phase_8,13,9999,9999,9999,1911302216
11314,15,Jits_Phase_8,14,9999,9999,9999,1912103012
11314,15,Jits_Phase_8,15,9999,9999,9999,1912902776
11314,15,Jits_Phase_8,16,9999,9999,9999,1913702460
11314,15,Jits_Phase_8,17,9999,9999,9999,1914502240
11314,15,Jits_Phase_8,18,9999,9999,9999,1915302976
11314,15,Jits_Phase_8,19,9999,9999,9999,1916102748
11314,15,Jits_Phase_8,20,9999,9999,9999,1916902508
11314,15,Jits_Phase_8,21,9999,9999,9999,1917702264
11314,15,Jits_Phase_8,22,9999,9999,9999,1918503004
11314,15,Jits_Phase_8,23,9999,9999,9999,1919302776
11314,15,Jits_Phase_8,24,9999,9999,9999,1920102476
11314,15,Jits_Phase_8,25,9999,9999,9999,1920902236
11314,15,Jits_Phase_8,26,9999,9999,9999,1921702968
11314,15,Jits_Phase_8,27,9999,9999,9999,1922502724
11314,15,Jits_Phase_8,28,9999,9999,9999,1923302496
11314,15,Jits_Phase_8,29,9999,9999,9999,1924102260
11314,15,Jits_Phase_8,30,9999,9999,9999,1924882536
11314,15,Jits_Phase_8,31,9999,9999,9999,1925682296
11314,15,Jits_Phase_8,32,9999,9999,9999,1926483060
11314,15,Jits_Phase_8,33,9999,9999,9999,1927282756
11314,15,Jits_Phase_8,34,9999,9999,9999,1928082524
11314,15,Jits_Phase_8,35,9999,9999,9999,1928882292
11314,15,Jits_Phase_8,36,9999,9999,9999,1929683028
11314,15,Jits_Phase_8,37,9999,9999,9999,1930482788
11314,15,Jits_Phase_8,38,9999,9999,9999,1931282556
11314,15,Jits_Phase_8,39,9999,9999,9999,1932082256
11314,15,Jits_Phase_8,40,9999,9999,9999,1932883032
11314,15,Jits_Phase_8,41,9999,9999,9999,1933682808
11314,15,Jits_Phase_8,42,9999,9999,9999,1934482488
11314,15,Jits_Phase_8,43,9999,9999,9999,1935282252
11314,15,Jits_Phase_8,44,9999,9999,9999,1936083036
11314,15,Jits_Phase_8,45,9999,9999,9999,1936882796
11314,15,Jits_Phase_8,46,9999,9999,9999,1937682544
11314,15,Jits_Phase_8,47,9999,9999,9999,1938482296
11314,15,Jits_Phase_8,48,9999,9999,9999,1939302476
11314,15,Jits_Phase_8,49,9999,9999,9999,1940102228
11314,15,Jits_Phase_8,50,9999,9999,9999,1940903032
11314,15,Jits_Phase_8,51,9999,9999,9999,1941702720
11314,15,Jits_Phase_8,52,9999,9999,9999,1942502480
11314,15,Jits_Phase_8,53,9999,9999,9999,1943302244
11314,15,Jits_Phase_8,54,9999,9999,9999,1944102972
11314,15,Jits_Phase_8,55,9999,9999,9999,1944902748
11314,15,Jits_Phase_8,56,9999,9999,9999,1945702520
11314,15,Jits_Phase_8,57,9999,9999,9999,1946502220
11314,15,Jits_Phase_8,58,9999,9999,9999,1947303040
11314,15,Jits_Phase_8,59,9999,9999,9999,1948102732
11314,15,Jits_Phase_8,60,9999,9999,9999,1948902504
11314,15,Jits_Phase_8,61,9999,9999,9999,1949702208
11314,15,Jits_Phase_8,62,9999,9999,9999,1950503024
11314,15,Jits_Phase_8,63,9999,9999,9999,1951302776
11314,15,Jits_Phase_8,64,9999,9999,9999,1952142432
11314,15,Jits_Phase_8,65,9999,9999,9999,1952942192
11314,15,Jits_Phase_8,66,9999,9999,9999,1953742944
11314,15,Jits_Phase_8,67,9999,9999,9999,1954542704
11314,15,Jits_Phase_8,68,9999,9999,9999,1955342392
11314,15,Jits_Phase_8,69,9999,9999,9999,1956142168
11314,15,Jits_Phase_8,70,9999,9999,9999,1956942932
11314,15,Jits_Phase_8,71,9999,9999,9999,1957742700
11314,15,Jits_Phase_8,72,9999,9999,9999,1958542460
11314,15,Jits_Phase_8,73,9999,9999,9999,1959342160
11314,15,Jits_Phase_8,74,9999,9999,9999,1960142912
11314,15,Jits_Phase_8,75,9999,9999,9999,1960942672
11314,15,Jits_Phase_8,76,9999,9999,9999,1961742444
11314,15,Jits_Phase_8,77,9999,9999,9999,1962542144
11314,15,Jits_Phase_8,78,9999,9999,9999,1963342912
11314,15,Jits_Phase_8,79,9999,9999,9999,1964142684
11314,15,Jits_Phase_8,80,9999,9999,9999,1964942456
11314,15,Jits_Phase_8,81,9999,9999,9999,1965702212
11314,15,Jits_Phase_8,82,9999,9999,9999,1966503016
11314,15,Jits_Phase_8,83,9999,9999,9999,1967302776
11314,15,Jits_Phase_8,84,9999,9999,9999,1968102472
11314,15,Jits_Phase_8,85,9999,9999,9999,1968902244
11314,15,Jits_Phase_8,86,9999,9999,9999,1969702988
11314,15,Jits_Phase_8,87,9999,9999,9999,1970502740
11314,15,Jits_Phase_8,88,9999,9999,9999,1971302512
11314,15,Jits_Phase_8,89,9999,9999,9999,1972102252
11314,15,Jits_Phase_8,90,9999,9999,9999,1972902996
11314,15,Jits_Phase_8,91,9999,9999,9999,1973702748
11314,15,Jits_Phase_8,92,9999,9999,9999,1974502524
11314,15,Jits_Phase_8,93,9999,9999,9999,1975302204
11314,15,Jits_Phase_8,94,9999,9999,9999,1976103008
11314,15,Jits_Phase_8,95,9999,9999,9999,1976902764
11314,15,Jits_Phase_8,96,9999,9999,9999,1977702484
11314,15,Jits_Phase_8,97,9999,9999,9999,1978422356
11314,15,Jits_Phase_8,98,9999,9999,9999,1979222132
11314,15,Jits_Phase_8,99,9999,9999,9999,1980022880
11314,15,Jits_Phase_8,100,9999,9999,9999,1980822640
11314,15,Jits_Phase_8,101,9999,9999,9999,1981622324
11314,15,Jits_Phase_8,102,9999,9999,9999,1982422080
11314,15,Jits_Phase_8,103,9999,9999,9999,1983222884
11314,15,Jits_Phase_8,104,9999,9999,9999,1984022640
11314,15,Jits_Phase_8,105,9999,9999,9999,1984822332
11314,15,Jits_Phase_8,106,9999,9999,9999,1985622104
11314,15,Jits_Phase_8,107,9999,9999,9999,1986422888
11314,15,Jits_Phase_8,108,9999,9999,9999,1987222652
11314,15,Jits_Phase_8,109,9999,9999,9999,1988022332
11314,15,Jits_Phase_8,110,9999,9999,9999,1988822092
11314,15,Jits_Phase_8,111,9999,9999,9999,1989622900
11314,15,Jits_Phase_8,112,9999,9999,9999,1990422652
11314,15,Jits_Phase_8,113,9999,9999,9999,1991222352
11314,15,Jits_Phase_8,114,9999,9999,9999,1992102984
11314,15,Jits_Phase_8,115,9999,9999,9999,1992902744
11314,15,Jits_Phase_8,116,9999,9999,9999,1993702508
11314,15,Jits_Phase_8,117,9999,9999,9999,1994502200
11314,15,Jits_Phase_8,118,9999,9999,9999,1995303008
11314,15,Jits_Phase_8,119,9999,9999,9999,1996102776
11314,15,Jits_Phase_8,120,9999,9999,9999,1996902500
11314,15,Jits_Phase_8,121,9999,9999,9999,1997702264
11314,15,Jits_Phase_8,122,9999,9999,9999,1998502984
11314,15,Jits_Phase_8,123,9999,9999,9999,1999302736
11314,15,Jits_Phase_8,124,9999,9999,9999,2000102504
11314,15,Jits_Phase_8,125,9999,9999,9999,2000902268
11314,15,Jits_Phase_8,126,9999,9999,9999,2001703004
11314,15,Jits_Phase_8,127,9999,9999,9999,2002502764
11314,15,Jits_Phase_8,128,9999,9999,9999,2003302476
11314,15,Jits_Phase_8,129,9999,9999,9999,2004102236
11314,15,Jits_Phase_8,130,9999,9999,9999,2004902988
11314,15,Jits_Phase_8,131,9999,9999,9999,2005862496
11314,15,Jits_Phase_8,132,9999,9999,9999,2006662252
11314,15,Jits_Phase_8,133,9999,9999,9999,2007462992
11314,15,Jits_Phase_8,134,9999,9999,9999,2008262764
11314,15,Jits_Phase_8,135,9999,9999,9999,2009062512
11314,15,Jits_Phase_8,136,9999,9999,9999,2009862272
11314,15,Jits_Phase_8,137,9999,9999,9999,2010663016
11314,15,Jits_Phase_8,138,9999,9999,9999,2011462716
11314,15,Jits_Phase_8,139,9999,9999,9999,2012262512
11314,15,Jits_Phase_8,140,9999,9999,9999,2013062200
11314,15,Jits_Phase_8,141,9999,9999,9999,2013863004
11314,15,Jits_Phase_8,142,9999,9999,9999,2014662772
11314,15,Jits_Phase_8,143,9999,9999,9999,2015462528
11314,15,Jits_Phase_8,144,9999,9999,9999,2016262208
11314,15,Jits_Phase_8,145,9999,9999,9999,2017063012
11314,15,Jits_Phase_8,146,9999,9999,9999,2017862724
11314,15,Jits_Phase_8,147,9999,9999,9999,2018662480
11314,15,Jits_Phase_8,148,9999,9999,9999,2019462228
11314,15,Jits_Phase_8,149,9999,9999,9999,2020263028
11314,15,Jits_Phase_8,150,9999,9999,9999,2020902968
11314,15,Jits_Phase_8,151,9999,9999,9999,2021702760
11314,15,Jits_Phase_8,152,9999,9999,9999,2022502460
11314,15,Jits_Phase_8,153,9999,9999,9999,2023302224
11314,15,Jits_Phase_8,154,9999,9999,9999,2024103024
11314,15,Jits_Phase_8,155,9999,9999,9999,2024902712
11314,15,Jits_Phase_8,156,9999,9999,9999,2025702484
11314,15,Jits_Phase_8,157,9999,9999,9999,2026502236
11314,15,Jits_Phase_8,158,9999,9999,9999,2027302972
11314,15,Jits_Phase_8,159,9999,9999,9999,2028102764
11314,15,Jits_Phase_8,160,9999,9999,9999,2028902476
11314,15,Jits_Phase_8,161,9999,9999,9999,2029702228
11314,15,Jits_Phase_8,162,9999,9999,9999,2030502968
11314,15,Jits_Phase_8,163,9999,9999,9999,2031302772
11314,15,Jits_Phase_8,164,9999,9999,9999,2032102456
11314,15,Jits_Phase_8,165,9999,9999,9999,2032902216
11314,15,Jits_Phase_8,166,9999,9999,9999,2033703040
11314,15,Jits_Phase_8,167,9999,9999,9999,2034502748
11314,15,Jits_Phase_8,168,9999,9999,9999,2035302524
11314,15,Jits_Phase_8,169,9999,9999,9999,2036102220
11315,17,Jits_Phase_5,0,5,56,103,2044277008
11315,17,Jits_Phase_5,1,5,63,98,2044280184
11315,17,Jits_Phase_5,2,5,80,127,2044283308
11315,17,Jits_Phase_5,0,5,56,103,2044777020
11315,17,Jits_Phase_5,1,5,63,98,2044780272
11315,17,Jits_Phase_5,2,5,80,127,2044783316
11315,17,Jits_Phase_5,0,5,56,103,2045276524
11315,17,Jits_Phase_5,1,5,80,127,2045286944
11315,17,Jits_Phase_5,2,5,63,98,2045307104
11315,17,Jits_Phase_5,0,5,63,98,2045727156
11315,17,Jits_Phase_5,1,5,80,127,2045756980
11315,17,Jits_Phase_5,2,5,56,103,2045767200
11315,17,Jits_Phase_5,0,1,48,73,2046264056
11315,17,Jits_Phase_5,1,5,80,127,2046287340
11315,17,Jits_Phase_5,2,5,56,103,2046296492
11315,17,Jits_Phase_5,3,5,63,98,2046327212
11315,17,Jits_Phase_5,0,5,63,98,2046776884
11315,17,Jits_Phase_5,1,5,56,103,2046807408
11315,17,Jits_Phase_5,2,5,80,127,2046816556
11315,17,Jits_Phase_5,3,1,48,78,2046818044
11315,17,Jits_Phase_5,0,5,56,103,2047227264
11315,17,Jits_Phase_5,1,5,63,98,2047277392
11315,17,Jits_Phase_5,2,5,80,127,2047297100
11315,17,Jits_Phase_5,3,1,48,80,2047336132
11315,17,Jits_Phase_5,0,5,80,127,2047726952
11315,17,Jits_Phase_5,1,5,63,98,2047777228
11315,17,Jits_Phase_5,2,5,56,103,2047817188
11315,17,Jits_Phase_5,3,1,48,76,2047834008
11315,17,Jits_Phase_5,0,5,56,103,2048226648
11315,17,Jits_Phase_5,1,5,63,98,2048257444
11315,17,Jits_Phase_5,2,5,80,127,2048327144
11315,17,Jits_Phase_5,3,1,48,87,2048336856
11315,17,Jits_Phase_5,0,5,56,103,2048727376
11315,17,Jits_Phase_5,1,5,80,127,2048786944
11315,17,Jits_Phase_5,2,5,63,98,2048816544
11315,17,Jits_Phase_5,3,1,48,85,2048831944
11315,17,Jits_Phase_5,0,5,56,103,2049237328
11315,17,Jits_Phase_5,1,5,63,98,2049246552
11315,17,Jits_Phase_5,2,5,80,127,2049286564
11315,17,Jits_Phase_5,3,1,48,83,2049334096
11315,17,Jits_Phase_5,0,5,63,98,2049726972
11315,17,Jits_Phase_5,1,5,80,127,2049806844
11315,17,Jits_Phase_5,2,5,56,103,2049817112
11315,17,Jits_Phase_5,3,1,48,81,2049872992
11315,17,Jits_Phase_5,0,5,63,98,2050276992
11315,17,Jits_Phase_5,1,5,56,103,2050316852
11315,17,Jits_Phase_5,2,5,80,127,2050319696
11315,17,Jits_Phase_5,3,1,48,96,2050363492
11315,17,Jits_Phase_5,0,5,56,103,2050736432
11315,17,Jits_Phase_5,1,5,63,98,2050746776
11315,17,Jits_Phase_5,2,5,80,127,2050786712
11315,17,Jits_Phase_5,3,1,48,83,2050864524
11315,17,Jits_Phase_5,0,5,56,103,2051226972
11315,17,Jits_Phase_5,1,5,63,98,2051230112
11315,17,Jits_Phase_5,2,5,80,127,2051246384
11315,17,Jits_Phase_5,3,1,48,84,2051376404
11315,17,Jits_Phase_5,0,5,80,127,2051736912
11315,17,Jits_Phase_5,1,5,56,103,2051747328
11315,17,Jits_Phase_5,2,5,63,98,2051816932
11315,17,Jits_Phase_5,3,1,48,89,2051891292
11315,17,Jits_Phase_5,0,5,63,98,2052226336
11315,17,Jits_Phase_5,1,5,56,103,2052246796
11315,17,Jits_Phase_5,2,5,80,127,2052326956
11315,17,Jits_Phase_5,3,1,48,63,2052368732
11315,17,Jits_Phase_5,0,5,56,103,2052737320
11315,17,Jits_Phase_5,1,5,80,127,2052777256
11315,17,Jits_Phase_5,2,5,63,98,2052786552
11315,17,Jits_Phase_5,3,1,48,87,2052899940
11315,17,Jits_Phase_5,0,5,80,127,2053226892
11315,17,Jits_Phase_5,1,5,63,98,2053256496
11315,17,Jits_Phase_5,2,5,56,103,2053296356
11315,17,Jits_Phase_5,3,1,48,74,2053415736
11315,17,Jits_Phase_5,0,5,56,103,2053746956
11315,17,Jits_Phase_5,1,5,63,98,2053777008
11315,17,Jits_Phase_5,2,5,80,127,2053826908
11315,17,Jits_Phase_5,3,1,48,76,2053889656
11315,17,Jits_Phase_5,0,5,80,127,2054246876
11315,17,Jits_Phase_5,1,5,56,103,2054286812
11315,17,Jits_Phase_5,2,1,48,67,2054294492
11315,17,Jits_Phase_5,3,5,63,98,2054297076
11315,17,Jits_Phase_5,4,1,48,16,2054433288
11315,17,Jits_Phase_5,0,5,80,127,2054727024
11315,17,Jits_Phase_5,1,1,48,77,2054753060
11315,17,Jits_Phase_5,2,5,63,98,2054766956
11315,17,Jits_Phase_5,3,5,56,103,2054827340
11315,17,Jits_Phase_5,0,5,56,103,2055226836
11315,17,Jits_Phase_5,1,5,80,127,2055237104
11315,17,Jits_Phase_5,2,1,48,77,2055238068
11315,17,Jits_Phase_5,3,5,63,98,2055316740
11315,17,Jits_Phase_5,0,5,80,127,2055726348
11315,17,Jits_Phase_5,1,1,48,78,2055752036
11315,17,Jits_Phase_5,2,5,63,98,2055787052
11315,17,Jits_Phase_5,3,5,56,103,2055816500
11315,17,Jits_Phase_5,0,5,56,103,2056227080
11315,17,Jits_Phase_5,1,5,80,127,2056286748
11315,17,Jits_Phase_5,2,1,48,84,2056319976
11315,17,Jits_Phase_5,3,5,63,98,2056326528
11315,17,Jits_Phase_5,0,5,56,103,2056777064
11315,17,Jits_Phase_5,1,5,63,98,2056787180
11315,17,Jits_Phase_5,2,5,80,127,2056790700
11315,17,Jits_Phase_5,3,1,48,76,2056828136
11315,17,Jits_Phase_5,0,5,80,127,2057226888
11315,17,Jits_Phase_5,1,1,48,82,2057316896
11315,17,Jits_Phase_5,2,5,63,98,2057318160
11315,17,Jits_Phase_5,3,5,56,103,2057327012
11315,17,Jits_Phase_5,0,5,56,103,2057727312
11315,17,Jits_Phase_5,1,5,63,98,2057730484
11315,17,Jits_Phase_5,2,5,80,127,2057733680
11315,17,Jits_Phase_5,3,1,48,85,2057834976
11315,17,Jits_Phase_5,0,5,80,127,2058246620
11315,17,Jits_Phase_5,1,5,63,98,2058296824
11315,17,Jits_Phase_5,2,1,48,85,2058316376
11315,17,Jits_Phase_5,3,5,56,103,2058327264
11315,17,Jits_Phase_5,0,5,56,103,2058726976
11315,17,Jits_Phase_5,1,5,80,127,2058736876
11315,17,Jits_Phase_5,2,5,63,98,2058806628
11315,17,Jits_Phase_5,3,1,48,95,2058807592
11315,17,Jits_Phase_5,0,5,56,103,2059236780
11315,17,Jits_Phase_5,1,5,63,98,2059257088
11315,17,Jits_Phase_5,2,1,48,86,2059309724
11315,17,Jits_Phase_5,3,5,80,127,2059316796
11315,17,Jits_Phase_5,0,5,80,127,2059716992
11315,17,Jits_Phase_5,1,5,63,98,2059786892
11315,17,Jits_Phase_5,2,5,56,103,2059807204
11315,17,Jits_Phase_5,3,1,48,84,2059819832
11315,17,Jits_Phase_5,0,5,80,127,2060237060
11315,17,Jits_Phase_5,1,5,56,103,2060247552
11315,17,Jits_Phase_5,2,5,63,98,2060256700
11315,17,Jits_Phase_5,3,1,48,86,2060314196
11315,17,Jits_Phase_5,0,5,80,127,2060726924
11315,17,Jits_Phase_5,1,5,56,103,2060747236
11315,17,Jits_Phase_5,2,1,48,80,2060811932
11315,17,Jits_Phase_5,3,5,63,98,2060816832
11315,17,Jits_Phase_5,0,5,56,103,2061236732
11315,17,Jits_Phase_5,1,5,80,127,2061267380
11315,17,Jits_Phase_5,2,5,63,98,2061286864
11315,17,Jits_Phase_5,3,1,48,83,2061293272
11315,17,Jits_Phase_5,0,5,63,98,2061726980
11315,17,Jits_Phase_5,1,1,48,87,2061771524
11315,17,Jits_Phase_5,2,5,56,103,2061786760
11315,17,Jits_Phase_5,3,5,80,127,2061817184
11315,17,Jits_Phase_5,0,5,63,98,2062216836
11315,17,Jits_Phase_5,1,5,80,127,2062220052
11315,17,Jits_Phase_5,2,1,48,83,2062258464
11315,17,Jits_Phase_5,3,5,56,103,2062306732
11315,17,Jits_Phase_5,0,5,56,103,2062736732
11315,17,Jits_Phase_5,1,1,48,87,2062754228
11315,17,Jits_Phase_5,2,5,63,98,2062766400
11315,17,Jits_Phase_5,3,5,80,127,2062807828
11315,17,Jits_Phase_5,0,5,63,98,2063236568
11315,17,Jits_Phase_5,1,1,48,86,2063242904
11315,17,Jits_Phase_5,2,5,56,103,2063277400
11315,17,Jits_Phase_5,3,5,80,127,2063296812
11315,17,Jits_Phase_5,0,1,48,90,2063742572
11315,17,Jits_Phase_5,1,5,63,98,2063746428
11315,17,Jits_Phase_5,2,5,56,103,2063787264
11315,17,Jits_Phase_5,3,5,80,127,2063796860
11315,17,Jits_Phase_5,0,5,80,127,2064226780
11315,17,Jits_Phase_5,1,1,48,87,2064256800
11315,17,Jits_Phase_5,2,5,63,98,2064297280
11315,17,Jits_Phase_5,3,5,56,103,2064316840
11315,17,Jits_Phase_5,0,5,56,103,2064717032
11315,17,Jits_Phase_5,1,5,80,127,2064736816
11315,17,Jits_Phase_5,2,1,48,83,2064767584
11315,17,Jits_Phase_5,3,5,63,98,2064776600
11315,17,Jits_Phase_5,0,5,63,98,2065226984
11315,17,Jits_Phase_5,1,5,80,127,2065246544
11315,17,Jits_Phase_5,2,1,48,83,2065249588
11315,17,Jits_Phase_5,3,5,56,103,2065286696
11315,17,Jits_Phase_5,0,5,63,98,2065726780
11315,17,Jits_Phase_5,1,5,56,103,2065747264
11315,17,Jits_Phase_5,2,1,48,78,2065750160
11315,17,Jits_Phase_5,3,5,80,127,2065756556
11315,17,Jits_Phase_5,0,1,48,81,2066219372
11315,17,Jits_Phase_5,1,5,80,127,2066226812
11315,17,Jits_Phase_5,2,5,56,103,2066247000
11315,17,Jits_Phase_5,3,5,63,98,2066276676
11315,17,Jits_Phase_5,0,1,48,88,2066716500
11315,17,Jits_Phase_5,1,5,56,103,2066796936
11315,17,Jits_Phase_5,2,5,80,127,2066800000
11315,17,Jits_Phase_5,3,5,63,98,2066817600
11315,17,Jits_Phase_5,0,5,63,98,2067216724
11315,17,Jits_Phase_5,1,5,56,103,2067246548
11315,17,Jits_Phase_5,2,1,48,72,2067266004
11315,17,Jits_Phase_5,3,5,80,127,2067306728
11315,17,Jits_Phase_5,0,1,48,89,2067741900
11315,17,Jits_Phase_5,1,5,63,98,2067797392
11315,17,Jits_Phase_5,2,5,56,103,2067806544
11315,17,Jits_Phase_5,3,5,80,127,2067816960
11315,17,Jits_Phase_5,0,1,48,86,2068254932
11315,17,Jits_Phase_5,1,5,56,103,2068257044
11315,17,Jits_Phase_5,2,5,80,127,2068286792
11315,17,Jits_Phase_5,3,5,63,98,2068296940
11315,17,Jits_Phase_5,0,1,48,74,2068751220
11315,17,Jits_Phase_5,1,5,63,98,2068796728
11315,17,Jits_Phase_5,2,5,56,103,2068807096
11315,17,Jits_Phase_5,3,5,80,127,2068826656
11315,17,Jits_Phase_5,0,5,56,103,2069226888
11315,17,Jits_Phase_5,1,1,48,71,2069276384
11315,17,Jits_Phase_5,2,5,63,98,2069287416
11315,17,Jits_Phase_5,3,5,80,127,2069290704
11315,17,Jits_Phase_5,0,5,80,127,2069746944
11315,17,Jits_Phase_5,1,5,56,103,2069757288
11315,17,Jits_Phase_5,2,1,48,80,2069760188
11315,17,Jits_Phase_5,3,5,63,98,2069826884
11315,17,Jits_Phase_5,0,5,80,127,2070236744
11315,17,Jits_Phase_5,1,1,48,80,2070256200
11315,17,Jits_Phase_5,2,5,56,103,2070307312
11315,17,Jits_Phase_5,3,5,63,98,2070317808
11315,17,Jits_Phase_5,0,1,48,80,2070765028
11315,17,Jits_Phase_5,1,5,63,98,2070777112
11315,17,Jits_Phase_5,2,5,56,103,2070786632
11315,17,Jits_Phase_5,3,5,80,127,2070806940
11315,17,Jits_Phase_5,0,5,80,127,2071226672
11315,17,Jits_Phase_5,1,5,63,98,2071287140
11315,17,Jits_Phase_5,2,1,48,77,2071295044
11315,17,Jits_Phase_5,3,5,56,103,2071326992
11315,17,Jits_Phase_5,0,5,56,103,2071767640
11315,17,Jits_Phase_5,1,5,63,98,2071776640
11315,17,Jits_Phase_5,2,1,48,92,2071815600
11315,17,Jits_Phase_5,3,5,80,127,2071817164
11315,17,Jits_Phase_5,0,5,56,103,2072227100
11315,17,Jits_Phase_5,1,5,80,127,2072256848
11315,17,Jits_Phase_5,2,1,48,78,2072287688
11315,17,Jits_Phase_5,3,5,63,98,2072307116
11315,17,Jits_Phase_5,0,5,56,103,2072766720
11315,17,Jits_Phase_5,1,1,48,86,2072776064
11315,17,Jits_Phase_5,2,5,63,98,2072806800
11315,17,Jits_Phase_5,3,5,80,127,2072810160
11315,17,Jits_Phase_5,0,1,48,89,2073257752
11315,17,Jits_Phase_5,1,5,56,103,2073266472
11315,17,Jits_Phase_5,2,5,63,98,2073276892
11315,17,Jits_Phase_5,3,5,80,127,2073297348
11315,17,Jits_Phase_5,0,5,56,103,2073727564
11315,17,Jits_Phase_5,1,5,80,127,2073730484
11315,17,Jits_Phase_5,2,1,48,93,2073758256
11315,17,Jits_Phase_5,3,5,63,98,2073767716
11315,17,Jits_Phase_5,0,1,48,78,2074230576
11315,17,Jits_Phase_5,1,5,63,98,2074266944
11315,17,Jits_Phase_5,2,5,56,103,2074296768
11315,17,Jits_Phase_5,3,5,80,127,2074317152
11315,17,Jits_Phase_5,0,5,80,127,2074736884
11315,17,Jits_Phase_5,1,5,56,103,2074747228
11315,17,Jits_Phase_5,2,5,63,98,2074756452
11315,17,Jits_Phase_5,3,1,48,79,2074757420
11315,17,Jits_Phase_5,0,5,56,103,2075236792
11315,17,Jits_Phase_5,1,1,48,76,2075253316
11315,17,Jits_Phase_5,2,5,80,127,2075276652
11315,17,Jits_Phase_5,3,5,63,98,2075307520
11315,17,Jits_Phase_5,0,5,63,98,2075746672
11315,17,Jits_Phase_5,1,5,80,127,2075756868
11315,17,Jits_Phase_5,2,1,48,92,2075759536
11315,17,Jits_Phase_5,3,5,56,103,2075767280
11315,17,Jits_Phase_5,0,5,56,103,2076237056
11315,17,Jits_Phase_5,1,1,48,55,2076267296
11315,17,Jits_Phase_5,2,5,63,98,2076306732
11315,17,Jits_Phase_5,3,5,80,127,2076317000
11315,17,Jits_Phase_5,0,1,48,67,2076746252
11315,17,Jits_Phase_5,1,5,80,127,2076747744
11315,17,Jits_Phase_5,2,5,56,103,2076757492
11315,17,Jits_Phase_5,3,5,63,98,2076806644
11315,17,Jits_Phase_5,0,1,48,82,2077245424
11315,17,Jits_Phase_5,1,5,80,127,2077256936
11315,17,Jits_Phase_5,2,5,56,103,2077316724
11315,17,Jits_Phase_5,3,5,63,98,2077347056
11315,17,Jits_Phase_5,0,1,48,99,2077756048
11315,17,Jits_Phase_5,1,5,56,103,2077757872
11315,17,Jits_Phase_5,2,5,80,127,2077760776
11315,17,Jits_Phase_5,3,5,63,98,2077796620
11315,17,Jits_Phase_5,0,1,48,90,2078266860
11315,17,Jits_Phase_5,1,5,56,103,2078287284
11315,17,Jits_Phase_5,2,5,63,98,2078316960
11315,17,Jits_Phase_5,3,5,80,127,2078327232
11315,17,Jits_Phase_5,0,1,48,96,2078779648
11315,17,Jits_Phase_5,1,5,63,98,2078797156
11315,17,Jits_Phase_5,2,5,80,127,2078807500
11315,17,Jits_Phase_5,3,5,56,103,2078816648
11315,17,Jits_Phase_5,0,5,80,127,2079246768
11315,17,Jits_Phase_5,1,1,48,90,2079277608
11315,17,Jits_Phase_5,2,5,56,103,2079296812
11315,17,Jits_Phase_5,3,5,63,98,2079299876
11315,17,Jits_Phase_5,0,1,48,90,2079763384
11315,17,Jits_Phase_5,1,5,56,103,2079777504
11315,17,Jits_Phase_5,2,5,80,127,2079796544
11315,17,Jits_Phase_5,3,5,63,98,2079806740
11315,17,Jits_Phase_5,0,1,48,83,2080253916
11315,17,Jits_Phase_5,1,5,63,98,2080257476
11315,17,Jits_Phase_5,2,5,56,103,2080287000
11315,17,Jits_Phase_5,3,5,80,127,2080306712
11315,17,Jits_Phase_5,0,1,48,82,2080761916
11315,17,Jits_Phase_5,1,5,56,103,2080767856
11315,17,Jits_Phase_5,2,5,80,127,2080776488
11315,17,Jits_Phase_5,3,5,63,98,2080847456
11315,17,Jits_Phase_5,0,5,63,98,2081256760
11315,17,Jits_Phase_5,1,1,48,70,2081261448
11315,17,Jits_Phase_5,2,5,80,127,2081296620
11315,17,Jits_Phase_5,3,5,56,103,2081336628
11315,17,Jits_Phase_5,0,5,56,103,2081766700
11315,17,Jits_Phase_5,1,1,48,86,2081773260
11315,17,Jits_Phase_5,2,5,63,98,2081777040
11315,17,Jits_Phase_5,3,5,80,127,2081796448
11315,17,Jits_Phase_5,0,1,48,92,2082262376
11315,17,Jits_Phase_5,1,5,63,98,2082306532
11315,17,Jits_Phase_5,2,5,80,127,2082326768
11315,17,Jits_Phase_5,3,5,56,103,2082347524
11315,17,Jits_Phase_5,0,5,56,103,2082746808
11315,17,Jits_Phase_5,1,1,48,81,2082794120
11315,17,Jits_Phase_5,2,5,80,127,2082826596
11315,17,Jits_Phase_5,3,5,63,98,2082836792
11315,17,Jits_Phase_5,0,1,48,89,2083281376
11315,17,Jits_Phase_5,1,5,80,127,2083287544
11315,17,Jits_Phase_5,2,5,63,98,2083296620
11315,17,Jits_Phase_5,3,5,56,103,2083327268
11315,17,Jits_Phase_5,0,5,63,98,2083747368
11315,17,Jits_Phase_5,1,5,80,127,2083787456
11315,17,Jits_Phase_5,2,1,48,79,2083796424
11315,17,Jits_Phase_5,3,5,56,103,2083846492
11315,17,Jits_Phase_5,0,5,63,98,2084257232
11315,17,Jits_Phase_5,1,5,56,103,2084307284
11315,17,Jits_Phase_5,2,1,48,72,2084321344
11315,17,Jits_Phase_5,3,5,80,127,2084337024
11315,17,Jits_Phase_5,0,5,80,127,2084756832
11315,17,Jits_Phase_5,1,5,63,98,2084767176
11315,17,Jits_Phase_5,2,1,48,75,2084807684
11315,17,Jits_Phase_5,3,5,56,103,2084836700
11315,17,Jits_Phase_5,0,1,48,90,2085285640
11315,17,Jits_Phase_5,1,5,80,127,2085316904
11315,17,Jits_Phase_5,2,5,56,103,2085327244
11315,17,Jits_Phase_5,3,5,63,98,2085330384
11315,17,Jits_Phase_5,0,5,56,103,2085757392
11315,17,Jits_Phase_5,1,5,80,127,2085776876
11315,17,Jits_Phase_5,2,5,63,98,2085787000
11315,17,Jits_Phase_5,3,1,48,84,2085796564
11315,17,Jits_Phase_5,0,5,63,98,2086267272
11315,17,Jits_Phase_5,1,1,48,78,2086290388
11315,17,Jits_Phase_5,2,5,56,103,2086307352
11315,17,Jits_Phase_5,3,5,80,127,2086326540
11315,17,Jits_Phase_5,0,5,63,98,2086766956
11315,17,Jits_Phase_5,1,1,48,87,2086785440
11315,17,Jits_Phase_5,2,5,56,103,2086827336
11315,17,Jits_Phase_5,3,5,80,127,2086830404
11315,17,Jits_Phase_5,0,5,56,103,2087226740
11315,17,Jits_Phase_5,1,5,80,127,2087247300
11315,17,Jits_Phase_5,2,1,48,68,2087287088
11315,17,Jits_Phase_5,3,5,63,98,2087288500
11315,17,Jits_Phase_5,0,5,56,103,2087757244
11315,17,Jits_Phase_5,1,1,48,85,2087759836
11315,17,Jits_Phase_5,2,5,63,98,2087776724
11315,17,Jits_Phase_5,3,5,80,127,2087786772
11315,17,Jits_Phase_5,0,5,80,127,2088227388
11315,17,Jits_Phase_5,1,1,48,76,2088257064
11315,17,Jits_Phase_5,2,5,56,103,2088258400
11315,17,Jits_Phase_5,3,5,63,98,2088297016
11315,17,Jits_Phase_5,0,5,80,127,2088737412
11315,17,Jits_Phase_5,1,5,56,103,2088756528
11315,17,Jits_Phase_5,2,1,48,83,2088763908
11315,17,Jits_Phase_5,3,5,63,98,2088817228
11315,17,Jits_Phase_5,0,5,56,103,2089247212
11315,17,Jits_Phase_5,1,1,48,86,2089249072
11315,17,Jits_Phase_5,2,5,80,127,2089266544
11315,17,Jits_Phase_5,3,5,63,98,2089327252
11315,17,Jits_Phase_5,0,5,80,127,2089727496
11315,17,Jits_Phase_5,1,5,56,103,2089736572
11315,17,Jits_Phase_5,2,1,48,82,2089762836
11315,17,Jits_Phase_5,3,5,63,98,2089776428
11315,17,Jits_Phase_5,0,5,63,98,2090227404
11315,17,Jits_Phase_5,1,1,48,85,2090245964
11315,17,Jits_Phase_5,2,5,56,103,2090267184
11315,17,Jits_Phase_5,3,5,80,127,2090270176
11315,17,Jits_Phase_5,0,5,63,98,2090747224
11315,17,Jits_Phase_5,1,1,48,84,2090748192
11315,17,Jits_Phase_5,2,5,80,127,2090787452
11315,17,Jits_Phase_5,3,5,56,103,2090816756
11315,17,Jits_Phase_5,0,5,56,103,2091236712
11315,17,Jits_Phase_5,1,5,63,98,2091247056
11315,17,Jits_Phase_5,2,1,48,79,2091270180
11315,17,Jits_Phase_5,3,5,80,127,2091276648
11315,17,Jits_Phase_5,0,5,80,127,2091727328
11315,17,Jits_Phase_5,1,1,48,86,2091759588
11315,17,Jits_Phase_5,2,5,63,98,2091796928
11315,17,Jits_Phase_5,3,5,56,103,2091807196
11315,17,Jits_Phase_5,0,5,63,98,2092227168
11315,17,Jits_Phase_5,1,1,48,68,2092266556
11315,17,Jits_Phase_5,2,5,56,103,2092296544
11315,17,Jits_Phase_5,3,5,80,127,2092306740
11315,17,Jits_Phase_5,0,5,63,98,2092707288
11315,17,Jits_Phase_5,1,5,56,103,2092726552
11315,17,Jits_Phase_5,2,1,48,76,2092762480
11315,17,Jits_Phase_5,3,5,80,127,2092766708
11315,17,Jits_Phase_5,0,5,56,103,2093186372
11315,17,Jits_Phase_5,1,5,63,98,2093196568
11315,17,Jits_Phase_5,2,1,48,83,2093247932
11315,17,Jits_Phase_5,3,5,80,127,2093276496
11315,17,Jits_Phase_5,0,5,63,98,2093677288
11315,17,Jits_Phase_5,1,5,56,103,2093706668
11315,17,Jits_Phase_5,2,1,48,86,2093734720
11315,17,Jits_Phase_5,3,5,80,127,2093746520
11315,17,Jits_Phase_5,0,5,56,103,2094176516
11315,17,Jits_Phase_5,1,1,48,93,2094191168
11315,17,Jits_Phase_5,2,5,63,98,2094216444
11315,17,Jits_Phase_5,3,5,80,127,2094256380
11315,17,Jits_Phase_5,0,5,80,127,2094677400
11315,17,Jits_Phase_5,1,1,48,80,2094693100
11315,17,Jits_Phase_5,2,5,56,103,2094757336
11315,17,Jits_Phase_5,3,5,63,98,2094766484
11315,17,Jits_Phase_5,0,1,48,82,2095210168
11315,17,Jits_Phase_5,1,5,56,103,2095217088
11315,17,Jits_Phase_5,2,5,63,98,2095220152
11315,17,Jits_Phase_5,3,5,80,127,2095227356
11315,17,Jits_Phase_5,0,1,48,80,2095709160
11315,17,Jits_Phase_5,1,5,56,103,2095737284
11315,17,Jits_Phase_5,2,5,63,98,2095756772
11315,17,Jits_Phase_5,3,5,80,127,2095767040
11315,17,Jits_Phase_5,0,5,63,98,2096197116
11315,17,Jits_Phase_5,1,5,80,127,2096207308
11315,17,Jits_Phase_5,2,1,48,83,2096216652
11315,17,Jits_Phase_5,3,5,56,103,2096226564
11315,17,Jits_Phase_5,0,1,48,89,2096686016
11315,17,Jits_Phase_5,1,5,63,98,2096696608
11315,17,Jits_Phase_5,2,5,56,103,2096776500
11315,17,Jits_Phase_5,3,5,80,127,2096779640
11315,17,Jits_Phase_5,0,5,63,98,2097197332
11315,17,Jits_Phase_5,1,1,48,71,2097214076
11315,17,Jits_Phase_5,2,5,56,103,2097216888
11315,17,Jits_Phase_5,3,5,80,127,2097246784
11315,17,Jits_Phase_5,0,5,56,103,2097697276
11315,17,Jits_Phase_5,1,1,48,66,2097708192
11315,17,Jits_Phase_5,2,5,63,98,2097716460
11315,17,Jits_Phase_5,3,5,80,127,2097726952
11315,17,Jits_Phase_5,0,1,48,60,2098214820
11315,17,Jits_Phase_5,1,5,56,103,2098226476
11315,17,Jits_Phase_5,2,5,63,98,2098257292
11315,17,Jits_Phase_5,3,5,80,127,2098260584
11315,17,Jits_Phase_5,0,5,56,103,2098687560
11315,17,Jits_Phase_5,1,1,48,79,2098724460
11315,17,Jits_Phase_5,2,5,63,98,2098727268
11315,17,Jits_Phase_5,3,5,80,127,2098786708
11315,17,Jits_Phase_5,0,5,56,103,2099206580
11315,17,Jits_Phase_5,1,5,63,98,2099216776
11315,17,Jits_Phase_5,2,1,48,70,2099221916
11315,17,Jits_Phase_5,3,5,80,127,2099277256
11315,17,Jits_Phase_5,0,5,56,103,2099707240
11315,17,Jits_Phase_5,1,1,48,63,2099724528
11315,17,Jits_Phase_5,2,5,80,127,2099726644
11315,17,Jits_Phase_5,3,5,63,98,2099757512
11315,17,Jits_Phase_5,0,5,80,127,2100207076
11315,17,Jits_Phase_5,1,5,56,103,2100217344
11315,17,Jits_Phase_5,2,1,48,80,2100233192
11315,17,Jits_Phase_5,3,5,63,98,2100236676
11315,17,Jits_Phase_5,0,5,63,98,2100696572
11315,17,Jits_Phase_5,1,1,48,83,2100718796
11315,17,Jits_Phase_5,2,5,80,127,2100777256
11315,17,Jits_Phase_5,3,5,56,103,2100786628
11315,17,Jits_Phase_5,0,1,48,67,2101232992
11315,17,Jits_Phase_5,1,5,80,127,2101287192
11315,17,Jits_Phase_5,2,5,56,103,2101306824
11315,17,Jits_Phase_5,3,5,63,98,2101309668
11315,17,Jits_Phase_5,0,1,48,69,2101743368
11315,17,Jits_Phase_5,1,5,63,98,2101776740
11315,17,Jits_Phase_5,2,5,80,127,2101780032
11315,17,Jits_Phase_5,3,5,56,103,2101837136
11315,17,Jits_Phase_5,0,5,56,103,2102257156
11315,17,Jits_Phase_5,1,5,80,127,2102267132
11315,17,Jits_Phase_5,2,1,48,76,2102268244
11315,17,Jits_Phase_5,3,5,63,98,2102307136
11315,17,Jits_Phase_5,0,5,56,103,2102737292
11315,17,Jits_Phase_5,1,1,48,72,2102773220
11315,17,Jits_Phase_5,2,5,63,98,2102796776
11315,17,Jits_Phase_5,3,5,80,127,2102807044
11315,17,Jits_Phase_5,0,5,63,98,2103247240
11315,17,Jits_Phase_5,1,1,48,79,2103261144
11315,17,Jits_Phase_5,2,5,80,127,2103287248
11315,17,Jits_Phase_5,3,5,56,103,2103327032
11315,17,Jits_Phase_5,0,5,56,103,2103747212
11315,17,Jits_Phase_5,1,1,48,77,2103758648
11315,17,Jits_Phase_5,2,5,63,98,2103826924
11315,17,Jits_Phase_5,3,5,80,127,2103830360
11315,17,Jits_Phase_5,0,1,48,93,2104248280
11315,17,Jits_Phase_5,1,5,80,127,2104307196
11315,17,Jits_Phase_5,2,5,56,103,2104336720
11315,17,Jits_Phase_5,3,5,63,98,2104340748
11315,17,Jits_Phase_5,0,5,56,103,2104766792
11315,17,Jits_Phase_5,1,1,48,74,2104769760
11315,17,Jits_Phase_5,2,5,80,127,2104787392
11315,17,Jits_Phase_5,3,5,63,98,2104827252
11315,17,Jits_Phase_5,0,5,80,127,2105247076
11315,17,Jits_Phase_5,1,1,48,76,2105267012
11315,17,Jits_Phase_5,2,5,63,98,2105268200
11315,17,Jits_Phase_5,3,5,56,103,2105327016
11315,17,Jits_Phase_5,0,5,63,98,2105757176
11315,17,Jits_Phase_5,1,5,56,103,2105767224
11315,17,Jits_Phase_5,2,1,48,81,2105789000
11315,17,Jits_Phase_5,3,5,80,127,2105816372
11315,17,Jits_Phase_5,0,5,56,103,2106246364
11315,17,Jits_Phase_5,1,1,48,95,2106262740
11315,17,Jits_Phase_5,2,5,63,98,2106267040
11315,17,Jits_Phase_5,3,5,80,127,2106277084
11315,17,Jits_Phase_5,0,5,56,103,2106736980
11315,17,Jits_Phase_5,1,5,63,98,2106739968
11315,17,Jits_Phase_5,2,1,48,85,2106750060
11315,17,Jits_Phase_5,3,5,80,127,2106756460
11315,17,Jits_Phase_5,0,1,48,72,2107234532
11315,17,Jits_Phase_5,1,5,63,98,2107276876
11315,17,Jits_Phase_5,2,5,56,103,2107307376
11315,17,Jits_Phase_5,3,5,80,127,2107336960
11315,17,Jits_Phase_5,0,5,80,127,2107736480
11315,17,Jits_Phase_5,1,1,48,77,2107761024
11315,17,Jits_Phase_5,2,5,56,103,2107826528
11315,17,Jits_Phase_5,3,5,63,98,2107829668
11315,17,Jits_Phase_5,0,5,56,103,2108237204
11315,17,Jits_Phase_5,1,5,80,127,2108240344
11315,17,Jits_Phase_5,2,1,48,79,2108274400
11315,17,Jits_Phase_5,3,5,63,98,2108317136
11315,17,Jits_Phase_5,0,5,80,127,2108736932
11315,17,Jits_Phase_5,1,1,48,73,2108794524
11315,17,Jits_Phase_5,2,5,63,98,2108797184
11315,17,Jits_Phase_5,3,5,56,103,2108827152
11315,17,Jits_Phase_5,0,5,63,98,2109236540
11315,17,Jits_Phase_5,1,5,80,127,2109247108
11315,17,Jits_Phase_5,2,1,48,79,2109310552
11315,17,Jits_Phase_5,3,5,56,103,2109316580
11315,17,Jits_Phase_5,0,5,56,103,2109796772
11315,17,Jits_Phase_5,1,1,48,69,2109810524
11315,17,Jits_Phase_5,2,5,80,127,2109826440
11315,17,Jits_Phase_5,3,5,63,98,2109876564
11315,17,Jits_Phase_5,0,1,48,66,2110333272
11315,17,Jits_Phase_5,1,5,63,98,2110386648
11315,17,Jits_Phase_5,2,5,56,103,2110417220
11315,17,Jits_Phase_5,3,5,80,127,2110420136
11315,17,Jits_Phase_5,0,1,48,74,2110865316
11315,17,Jits_Phase_5,1,5,63,98,2110896436
11315,17,Jits_Phase_5,2,5,80,127,2110917040
11315,17,Jits_Phase_5,3,5,56,103,2110927312
11315,17,Jits_Phase_5,0,1,48,61,2111387848
11315,17,Jits_Phase_5,1,5,56,103,2111406376
11315,17,Jits_Phase_5,2,5,63,98,2111409516
11315,17,Jits_Phase_5,3,5,80,127,2111426832
11315,17,Jits_Phase_5,0,5,56,103,2111857124
11315,17,Jits_Phase_5,1,5,63,98,2111867396
11315,17,Jits_Phase_5,2,5,80,127,2111897144
11315,17,Jits_Phase_5,3,1,48,68,2111914564
11315,17,Jits_Phase_5,0,5,63,98,2112377340
11315,17,Jits_Phase_5,1,5,80,127,2112396604
11315,17,Jits_Phase_5,2,1,48,64,2112434420
11315,17,Jits_Phase_5,3,5,56,103,2112436756
11315,17,Jits_Phase_5,0,5,56,103,2112906612
11315,17,Jits_Phase_5,1,1,48,66,2112934220
11315,17,Jits_Phase_5,2,5,63,98,2112946468
11315,17,Jits_Phase_5,3,5,80,127,2112950052
11315,17,Jits_Phase_5,0,5,80,127,2113346880
11315,17,Jits_Phase_5,1,5,56,103,2113386968
11315,17,Jits_Phase_5,2,5,63,98,2113437092
11315,17,Jits_Phase_5,3,1,48,75,2113442456
11315,17,Jits_Phase_5,0,5,56,103,2113907104
11315,17,Jits_Phase_5,1,5,80,127,2113917224
11315,17,Jits_Phase_5,2,1,48,74,2113927088
11315,17,Jits_Phase_5,3,5,63,98,2113946968
11315,17,Jits_Phase_5,0,5,56,103,2114356576
11315,17,Jits_Phase_5,1,5,80,127,2114396612
11315,17,Jits_Phase_5,2,1,48,68,2114440784
11315,17,Jits_Phase_5,3,5,63,98,2114446952
11315,17,Jits_Phase_5,0,5,56,103,2114857312
11315,17,Jits_Phase_5,1,5,80,127,2114897276
11315,17,Jits_Phase_5,2,1,48,59,2114940620
11315,17,Jits_Phase_5,3,5,63,98,2114946348
11315,17,Jits_Phase_5,0,5,80,127,2115346740
11315,17,Jits_Phase_5,1,5,63,98,2115426780
11315,17,Jits_Phase_5,2,5,56,103,2115436904
11315,17,Jits_Phase_5,3,1,48,61,2115439944
11315,17,Jits_Phase_5,0,5,80,127,2115896840
11315,17,Jits_Phase_5,1,5,56,103,2115906912
11315,17,Jits_Phase_5,2,5,63,98,2115927296
11315,17,Jits_Phase_5,3,1,48,61,2115938204
11315,17,Jits_Phase_5,0,5,63,98,2116366788
11315,17,Jits_Phase_5,1,1,48,69,2116437160
11315,17,Jits_Phase_5,2,5,56,103,2116438520
11315,17,Jits_Phase_5,3,5,80,127,2116441348
11315,17,Jits_Phase_5,0,5,80,127,2116857388
11315,17,Jits_Phase_5,1,5,63,98,2116907368
11315,17,Jits_Phase_5,2,1,48,62,2116932308
11315,17,Jits_Phase_5,3,5,56,103,2116947172
11315,17,Jits_Phase_5,0,5,63,98,2117396936
11315,17,Jits_Phase_5,1,5,56,103,2117436724
11315,17,Jits_Phase_5,2,1,48,60,2117444900
11315,17,Jits_Phase_5,3,5,80,127,2117446940
11315,17,Jits_Phase_5,0,5,63,98,2117887252
11315,17,Jits_Phase_5,1,5,56,103,2117907032
11315,17,Jits_Phase_5,2,5,80,127,2117927268
11315,17,Jits_Phase_5,3,1,48,75,2117945076
11315,17,Jits_Phase_5,0,5,80,127,2118346992
11315,17,Jits_Phase_5,1,5,56,103,2118357784
11315,17,Jits_Phase_5,2,5,63,98,2118376824
11315,17,Jits_Phase_5,3,1,48,74,2118429760
11315,17,Jits_Phase_5,0,5,63,98,2118876644
11315,17,Jits_Phase_5,1,5,56,103,2118916436
11315,17,Jits_Phase_5,2,1,48,58,2118928544
11315,17,Jits_Phase_5,3,5,80,127,2118947148
11315,17,Jits_Phase_5,0,5,56,103,2119337288
11315,17,Jits_Phase_5,1,5,63,98,2119367036
11315,17,Jits_Phase_5,2,5,80,127,2119397384
11315,17,Jits_Phase_5,3,1,48,64,2119432036
11315,17,Jits_Phase_5,0,5,80,127,2119757120
11315,17,Jits_Phase_5,1,5,56,103,2119827024
11315,17,Jits_Phase_5,2,5,63,98,2119829940
11315,17,Jits_Phase_5,3,1,48,59,2119914872
11315,17,Jits_Phase_5,0,5,56,103,2120267064
11315,17,Jits_Phase_5,1,5,63,98,2120317264
11315,17,Jits_Phase_5,2,5,80,127,2120347012
11315,17,Jits_Phase_5,3,1,48,65,2120408488
11315,17,Jits_Phase_5,0,5,63,98,2120747468
11315,17,Jits_Phase_5,1,5,80,127,2120750908
11315,17,Jits_Phase_5,2,5,56,103,2120806684
11315,17,Jits_Phase_5,3,1,48,58,2120906216
11315,17,Jits_Phase_5,0,5,56,103,2121276948
11315,17,Jits_Phase_5,1,5,80,127,2121287168
11315,17,Jits_Phase_5,2,5,63,98,2121337292
11315,17,Jits_Phase_5,3,1,48,56,2121417720
11315,17,Jits_Phase_5,0,5,63,98,2121746820
11315,17,Jits_Phase_5,1,5,56,103,2121757016
11315,17,Jits_Phase_5,2,5,80,127,2121786912
11315,17,Jits_Phase_5,3,1,48,58,2121924664
11315,17,Jits_Phase_5,0,5,63,98,2122277348
11315,17,Jits_Phase_5,1,5,80,127,2122280636
11315,17,Jits_Phase_5,2,5,56,103,2122306968
11315,17,Jits_Phase_5,3,1,48,54,2122442076
11315,17,Jits_Phase_5,0,5,63,98,2122797464
11315,17,Jits_Phase_5,1,5,56,103,2122816872
11315,17,Jits_Phase_5,2,5,80,127,2122819888
11315,17,Jits_Phase_5,3,1,48,70,2122934412
11315,17,Jits_Phase_5,0,5,63,98,2123257196
11315,17,Jits_Phase_5,1,5,56,103,2123326804
11315,17,Jits_Phase_5,2,5,80,127,2123347360
11315,17,Jits_Phase_5,3,1,48,65,2123421492
11315,17,Jits_Phase_5,0,5,56,103,2123746760
11315,17,Jits_Phase_5,1,5,63,98,2123757032
11315,17,Jits_Phase_5,2,5,80,127,2123846884
11315,17,Jits_Phase_5,3,1,48,60,2123921468
11315,17,Jits_Phase_5,0,5,56,103,2124266752
11315,17,Jits_Phase_5,1,5,80,127,2124306840
11315,17,Jits_Phase_5,2,5,63,98,2124317260
11315,17,Jits_Phase_5,3,1,48,65,2124397412
11315,17,Jits_Phase_5,0,5,56,103,2124787044
11315,17,Jits_Phase_5,1,5,63,98,2124816720
11315,17,Jits_Phase_5,2,1,48,58,2124842088
11315,17,Jits_Phase_5,3,5,80,127,2124846312
11315,17,Jits_Phase_5,0,5,80,127,2125246808
11315,17,Jits_Phase_5,1,5,63,98,2125286744
11315,17,Jits_Phase_5,2,5,56,103,2125307204
11315,17,Jits_Phase_5,3,1,48,57,2125330320
11315,17,Jits_Phase_5,0,5,56,103,2125786652
11315,17,Jits_Phase_5,1,5,80,127,2125806812
11315,17,Jits_Phase_5,2,1,48,59,2125816904
11315,17,Jits_Phase_5,3,5,63,98,2125826292
11315,17,Jits_Phase_5,0,5,63,98,2126256600
11315,17,Jits_Phase_5,1,5,56,103,2126266720
11315,17,Jits_Phase_5,2,1,48,62,2126301304
11315,17,Jits_Phase_5,3,5,80,127,2126327100
11315,17,Jits_Phase_5,0,5,56,103,2126757168
11315,17,Jits_Phase_5,1,1,48,65,2126812504
11315,17,Jits_Phase_5,2,5,63,98,2126826916
11315,17,Jits_Phase_5,3,5,80,127,2126847300
11315,17,Jits_Phase_5,0,5,56,103,2127256860
11315,17,Jits_Phase_5,1,5,63,98,2127286760
11315,17,Jits_Phase_5,2,5,80,127,2127326696
11315,17,Jits_Phase_5,3,1,48,59,2127347200
11315,17,Jits_Phase_5,0,5,63,98,2127746364
11315,17,Jits_Phase_5,1,5,56,103,2127796936
11315,17,Jits_Phase_5,2,1,48,64,2127807280
11315,17,Jits_Phase_5,3,5,80,127,2127808548
11315,17,Jits_Phase_5,0,1,48,60,2128274012
11315,17,Jits_Phase_5,1,5,56,103,2128287160
11315,17,Jits_Phase_5,2,5,63,98,2128337360
11315,17,Jits_Phase_5,3,5,80,127,2128346732
11315,17,Jits_Phase_5,0,5,56,103,2128757028
11315,17,Jits_Phase_5,1,5,63,98,2128767224
11315,17,Jits_Phase_5,2,1,48,61,2128804872
11315,17,Jits_Phase_5,3,5,80,127,2128847156
11315,17,Jits_Phase_5,0,9999,9999,9999,2044524668
11315,17,Jits_Phase_5,1,9999,9999,9999,2045024380
11315,17,Jits_Phase_5,2,9999,9999,9999,2045525080
11315,17,Jits_Phase_5,3,9999,9999,9999,2046024804
11315,17,Jits_Phase_5,4,9999,9999,9999,2046524480
11315,17,Jits_Phase_5,5,9999,9999,9999,2047024224
11315,17,Jits_Phase_5,6,9999,9999,9999,2047524944
11315,17,Jits_Phase_5,7,9999,9999,9999,2048024636
11315,17,Jits_Phase_5,8,9999,9999,9999,2048524400
11315,17,Jits_Phase_5,9,9999,9999,9999,2049024088
11315,17,Jits_Phase_5,10,9999,9999,9999,2049524820
11315,17,Jits_Phase_5,11,9999,9999,9999,2050024508
11315,17,Jits_Phase_5,12,9999,9999,9999,2050524252
11315,17,Jits_Phase_5,13,9999,9999,9999,2051024968
11315,17,Jits_Phase_5,14,9999,9999,9999,2051524716
11315,17,Jits_Phase_5,15,9999,9999,9999,2052024404
11315,17,Jits_Phase_5,16,9999,9999,9999,2052524092
11315,17,Jits_Phase_5,17,9999,9999,9999,2053024888
11315,17,Jits_Phase_5,18,9999,9999,9999,2053524572
11315,17,Jits_Phase_5,19,9999,9999,9999,2054024268
11315,17,Jits_Phase_5,20,9999,9999,9999,2054524996
11315,17,Jits_Phase_5,21,9999,9999,9999,2055024704
11315,17,Jits_Phase_5,22,9999,9999,9999,2055524440
11315,17,Jits_Phase_5,23,9999,9999,9999,2056024128
11315,17,Jits_Phase_5,24,9999,9999,9999,2056524864
11315,17,Jits_Phase_5,25,9999,9999,9999,2057024592
11315,17,Jits_Phase_5,26,9999,9999,9999,2057524352
11315,17,Jits_Phase_5,27,9999,9999,9999,2058025060
11315,17,Jits_Phase_5,28,9999,9999,9999,2058524752
11315,17,Jits_Phase_5,29,9999,9999,9999,2059024508
11315,17,Jits_Phase_5,30,9999,9999,9999,2059514984
11315,17,Jits_Phase_5,31,9999,9999,9999,2060014672
11315,17,Jits_Phase_5,32,9999,9999,9999,2060514356
11315,17,Jits_Phase_5,33,9999,9999,9999,2061014124
11315,17,Jits_Phase_5,34,9999,9999,9999,2061514856
11315,17,Jits_Phase_5,35,9999,9999,9999,2062014548
11315,17,Jits_Phase_5,36,9999,9999,9999,2062514288
11315,17,Jits_Phase_5,37,9999,9999,9999,2063015008
11315,17,Jits_Phase_5,38,9999,9999,9999,2063514700
11315,17,Jits_Phase_5,39,9999,9999,9999,2064014448
11315,17,Jits_Phase_5,40,9999,9999,9999,2064514128
11315,17,Jits_Phase_5,41,9999,9999,9999,2065014864
11315,17,Jits_Phase_5,42,9999,9999,9999,2065514620
11315,17,Jits_Phase_5,43,9999,9999,9999,2066014292
11315,17,Jits_Phase_5,44,9999,9999,9999,2066515012
11315,17,Jits_Phase_5,45,9999,9999,9999,2067014756
11315,17,Jits_Phase_5,46,9999,9999,9999,2067514476
11315,17,Jits_Phase_5,47,9999,9999,9999,2068014152
11315,17,Jits_Phase_5,48,9999,9999,9999,2068524092
11315,17,Jits_Phase_5,49,9999,9999,9999,2069024896
11315,17,Jits_Phase_5,50,9999,9999,9999,2069524560
11315,17,Jits_Phase_5,51,9999,9999,9999,2070024248
11315,17,Jits_Phase_5,52,9999,9999,9999,2070524988
11315,17,Jits_Phase_5,53,9999,9999,9999,2071024752
11315,17,Jits_Phase_5,54,9999,9999,9999,2071524432
11315,17,Jits_Phase_5,55,9999,9999,9999,2072024120
11315,17,Jits_Phase_5,56,9999,9999,9999,2072524856
11315,17,Jits_Phase_5,57,9999,9999,9999,2073024612
11315,17,Jits_Phase_5,58,9999,9999,9999,2073524304
11315,17,Jits_Phase_5,59,9999,9999,9999,2074025084
11315,17,Jits_Phase_5,60,9999,9999,9999,2074524780
11315,17,Jits_Phase_5,61,9999,9999,9999,2075024448
11315,17,Jits_Phase_5,62,9999,9999,9999,2075524212
11315,17,Jits_Phase_5,63,9999,9999,9999,2076024944
11315,17,Jits_Phase_5,64,9999,9999,9999,2076544104
11315,17,Jits_Phase_5,65,9999,9999,9999,2077044836
11315,17,Jits_Phase_5,66,9999,9999,9999,2077544508
11315,17,Jits_Phase_5,67,9999,9999,9999,2078044248
11315,17,Jits_Phase_5,68,9999,9999,9999,2078544972
11315,17,Jits_Phase_5,69,9999,9999,9999,2079044724
11315,17,Jits_Phase_5,70,9999,9999,9999,2079544412
11315,17,Jits_Phase_5,71,9999,9999,9999,2080044104
11315,17,Jits_Phase_5,72,9999,9999,9999,2080544824
11315,17,Jits_Phase_5,73,9999,9999,9999,2081044576
11315,17,Jits_Phase_5,74,9999,9999,9999,2081544256
11315,17,Jits_Phase_5,75,9999,9999,9999,2082045048
11315,17,Jits_Phase_5,76,9999,9999,9999,2082544740
11315,17,Jits_Phase_5,77,9999,9999,9999,2083044416
11315,17,Jits_Phase_5,78,9999,9999,9999,2083544180
11315,17,Jits_Phase_5,79,9999,9999,9999,2084044900
11315,17,Jits_Phase_5,80,9999,9999,9999,2084544576
11315,17,Jits_Phase_5,81,9999,9999,9999,2085024848
11315,17,Jits_Phase_5,82,9999,9999,9999,2085524536
11315,17,Jits_Phase_5,83,9999,9999,9999,2086024284
11315,17,Jits_Phase_5,84,9999,9999,9999,2086525024
11315,17,Jits_Phase_5,85,9999,9999,9999,2087024700
11315,17,Jits_Phase_5,86,9999,9999,9999,2087524448
11315,17,Jits_Phase_5,87,9999,9999,9999,2088024136
11315,17,Jits_Phase_5,88,9999,9999,9999,2088524872
11315,17,Jits_Phase_5,89,9999,9999,9999,2089024608
11315,17,Jits_Phase_5,90,9999,9999,9999,2089524292
11315,17,Jits_Phase_5,91,9999,9999,9999,2090025024
11315,17,Jits_Phase_5,92,9999,9999,9999,2090524776
11315,17,Jits_Phase_5,93,9999,9999,9999,2091024456
11315,17,Jits_Phase_5,94,9999,9999,9999,2091524200
11315,17,Jits_Phase_5,95,9999,9999,9999,2092024936
11315,17,Jits_Phase_5,96,9999,9999,9999,2092524628
11315,17,Jits_Phase_5,97,9999,9999,9999,2092974188
11315,17,Jits_Phase_5,98,9999,9999,9999,2093474908
11315,17,Jits_Phase_5,99,9999,9999,9999,2093974596
11315,17,Jits_Phase_5,100,9999,9999,9999,2094474344
11315,17,Jits_Phase_5,101,9999,9999,9999,2094975080
11315,17,Jits_Phase_5,102,9999,9999,9999,2095474764
11315,17,Jits_Phase_5,103,9999,9999,9999,2095974516
11315,17,Jits_Phase_5,104,9999,9999,9999,2096474192
11315,17,Jits_Phase_5,105,9999,9999,9999,2096974908
11315,17,Jits_Phase_5,106,9999,9999,9999,2097474636
11315,17,Jits_Phase_5,107,9999,9999,9999,2097974356
11315,17,Jits_Phase_5,108,9999,9999,9999,2098475084
11315,17,Jits_Phase_5,109,9999,9999,9999,2098985020
11315,17,Jits_Phase_5,110,9999,9999,9999,2099484784
11315,17,Jits_Phase_5,111,9999,9999,9999,2099984468
11315,17,Jits_Phase_5,112,9999,9999,9999,2100484152
11315,17,Jits_Phase_5,113,9999,9999,9999,2100984888
11315,17,Jits_Phase_5,114,9999,9999,9999,2101534824
11315,17,Jits_Phase_5,115,9999,9999,9999,2102034492
11315,17,Jits_Phase_5,116,9999,9999,9999,2102534240
11315,17,Jits_Phase_5,117,9999,9999,9999,2103034972
11315,17,Jits_Phase_5,118,9999,9999,9999,2103534660
11315,17,Jits_Phase_5,119,9999,9999,9999,2104034400
11315,17,Jits_Phase_5,120,9999,9999,9999,2104534084
11315,17,Jits_Phase_5,121,9999,9999,9999,2105034808
11315,17,Jits_Phase_5,122,9999,9999,9999,2105534568
11315,17,Jits_Phase_5,123,9999,9999,9999,2106034256
11315,17,Jits_Phase_5,124,9999,9999,9999,2106534976
11315,17,Jits_Phase_5,125,9999,9999,9999,2107034724
11315,17,Jits_Phase_5,126,9999,9999,9999,2107534412
11315,17,Jits_Phase_5,127,9999,9999,9999,2108034152
11315,17,Jits_Phase_5,128,9999,9999,9999,2108534876
11315,17,Jits_Phase_5,129,9999,9999,9999,2109034556
11315,17,Jits_Phase_5,130,9999,9999,9999,2109534316
11315,17,Jits_Phase_5,131,9999,9999,9999,2110134376
11315,17,Jits_Phase_5,132,9999,9999,9999,2110635108
11315,17,Jits_Phase_5,133,9999,9999,9999,2111145052
11315,17,Jits_Phase_5,134,9999,9999,9999,2111644796
11315,17,Jits_Phase_5,135,9999,9999,9999,2112144468
11315,17,Jits_Phase_5,136,9999,9999,9999,2112644160
11315,17,Jits_Phase_5,137,9999,9999,9999,2113144952
11315,17,Jits_Phase_5,138,9999,9999,9999,2113644640
11315,17,Jits_Phase_5,139,9999,9999,9999,2114144332
11315,17,Jits_Phase_5,140,9999,9999,9999,2114645068
11315,17,Jits_Phase_5,141,9999,9999,9999,2115144760
11315,17,Jits_Phase_5,142,9999,9999,9999,2115644496
11315,17,Jits_Phase_5,143,9999,9999,9999,2116144184
11315,17,Jits_Phase_5,144,9999,9999,9999,2116644984
11315,17,Jits_Phase_5,145,9999,9999,9999,2117144660
11315,17,Jits_Phase_5,146,9999,9999,9999,2117644352
11315,17,Jits_Phase_5,147,9999,9999,9999,2118144104
11315,17,Jits_Phase_5,148,9999,9999,9999,2118644820
11315,17,Jits_Phase_5,149,9999,9999,9999,2119144512
11315,17,Jits_Phase_5,150,9999,9999,9999,2119544924
11315,17,Jits_Phase_5,151,9999,9999,9999,2120044604
11315,17,Jits_Phase_5,152,9999,9999,9999,2120544368
11315,17,Jits_Phase_5,153,9999,9999,9999,2121045092
11315,17,Jits_Phase_5,154,9999,9999,9999,2121544764
11315,17,Jits_Phase_5,155,9999,9999,9999,2122044496
11315,17,Jits_Phase_5,156,9999,9999,9999,2122544228
11315,17,Jits_Phase_5,157,9999,9999,9999,2123044940
11315,17,Jits_Phase_5,158,9999,9999,9999,2123544692
11315,17,Jits_Phase_5,159,9999,9999,9999,2124044368
11315,17,Jits_Phase_5,160,9999,9999,9999,2124544060
11315,17,Jits_Phase_5,161,9999,9999,9999,2125044800
11315,17,Jits_Phase_5,162,9999,9999,9999,2125544560
11315,17,Jits_Phase_5,163,9999,9999,9999,2126044252
11315,17,Jits_Phase_5,164,9999,9999,9999,2126544988
11315,17,Jits_Phase_5,165,9999,9999,9999,2127044664
11315,17,Jits_Phase_5,166,9999,9999,9999,2127544428
11315,17,Jits_Phase_5,167,9999,9999,9999,2128044116
11315,17,Jits_Phase_5,168,9999,9999,9999,2128544844
11315,17,Jits_Phase_5,169,9999,9999,9999,2129044596
11316,7,Jits_ISO_8,0,5,56,103,2138221900
11316,7,Jits_ISO_8,1,5,63,98,2138224996
11316,7,Jits_ISO_8,2,5,80,127,2138228120
11316,7,Jits_ISO_8,0,5,56,103,2139021600
11316,7,Jits_ISO_8,1,5,63,98,2139024624
11316,7,Jits_ISO_8,2,5,80,127,2139027744
11316,7,Jits_ISO_8,0,5,80,127,2139762124
11316,7,Jits_ISO_8,1,5,63,98,2139852260
11316,7,Jits_ISO_8,2,5,56,103,2139862308
11316,7,Jits_ISO_8,0,5,56,103,2140582516
11316,7,Jits_ISO_8,1,5,63,98,2140591588
11316,7,Jits_ISO_8,2,5,80,127,2140681576
11316,7,Jits_ISO_8,0,5,63,98,2141352412
11316,7,Jits_ISO_8,1,5,80,127,2141381868
11316,7,Jits_ISO_8,2,1,48,59,2141386032
11316,7,Jits_ISO_8,3,5,56,103,2141411684
11316,7,Jits_ISO_8,0,1,48,76,2142085696
11316,7,Jits_ISO_8,1,5,56,103,2142152332
11316,7,Jits_ISO_8,2,5,80,127,2142252348
11316,7,Jits_ISO_8,3,5,63,98,2142301600
11316,7,Jits_ISO_8,0,5,56,103,2142951828
11316,7,Jits_ISO_8,1,5,80,127,2143002104
11316,7,Jits_ISO_8,2,5,63,98,2143041844
11316,7,Jits_ISO_8,3,1,48,80,2143066240
11316,7,Jits_ISO_8,0,5,80,127,2143782488
11316,7,Jits_ISO_8,1,5,63,98,2143811820
11316,7,Jits_ISO_8,2,1,48,75,2143832248
11316,7,Jits_ISO_8,3,5,56,103,2143881568
11316,7,Jits_ISO_8,0,5,63,98,2144611612
11316,7,Jits_ISO_8,1,1,48,85,2144614512
11316,7,Jits_ISO_8,2,5,56,103,2144642480
11316,7,Jits_ISO_8,3,5,80,127,2144701896
11316,7,Jits_ISO_8,0,5,56,103,2145352060
11316,7,Jits_ISO_8,1,5,80,127,2145354976
11316,7,Jits_ISO_8,2,1,48,89,2145407540
11316,7,Jits_ISO_8,3,5,63,98,2145471852
11316,7,Jits_ISO_8,0,1,48,78,2146213844
11316,7,Jits_ISO_8,1,5,56,103,2146231708
11316,7,Jits_ISO_8,2,5,80,127,2146271648
11316,7,Jits_ISO_8,3,5,63,98,2146281920
11316,7,Jits_ISO_8,0,5,56,103,2146991416
11316,7,Jits_ISO_8,1,5,80,127,2147012096
11316,7,Jits_ISO_8,2,1,48,78,2147028920
11316,7,Jits_ISO_8,3,5,63,98,2147091812
11316,7,Jits_ISO_8,0,5,80,127,2147782224
11316,7,Jits_ISO_8,1,1,48,79,2147852924
11316,7,Jits_ISO_8,2,5,56,103,2147882316
11316,7,Jits_ISO_8,3,5,63,98,2147891468
11316,7,Jits_ISO_8,0,5,63,98,2148552132
11316,7,Jits_ISO_8,1,5,80,127,2148611404
11316,7,Jits_ISO_8,2,5,56,103,2148621600
11316,7,Jits_ISO_8,3,1,48,80,2148640084
11316,7,Jits_ISO_8,0,5,56,103,2149351692
11316,7,Jits_ISO_8,1,1,48,93,2149414596
11316,7,Jits_ISO_8,2,5,63,98,2149421288
11316,7,Jits_ISO_8,3,5,80,127,2149424584
11316,7,Jits_ISO_8,0,1,48,83,2150168072
11316,7,Jits_ISO_8,1,5,63,98,2150182192
11316,7,Jits_ISO_8,2,5,56,103,2150232492
11316,7,Jits_ISO_8,3,5,80,127,2150235708
11316,7,Jits_ISO_8,0,5,56,103,2150942184
11316,7,Jits_ISO_8,1,5,80,127,2150945252
11316,7,Jits_ISO_8,2,1,48,71,2150964412
11316,7,Jits_ISO_8,3,5,63,98,2151032408
11316,7,Jits_ISO_8,0,1,48,78,2151749288
11316,7,Jits_ISO_8,1,5,63,98,2151781772
11316,7,Jits_ISO_8,2,5,56,103,2151871744
11316,7,Jits_ISO_8,3,5,80,127,2151901492
11316,7,Jits_ISO_8,0,5,56,103,2152572272
11316,7,Jits_ISO_8,1,1,48,76,2152586704
11316,7,Jits_ISO_8,2,5,63,98,2152671472
11316,7,Jits_ISO_8,3,5,80,127,2152702256
11316,7,Jits_ISO_8,0,5,63,98,2153391332
11316,7,Jits_ISO_8,1,5,56,103,2153401600
11316,7,Jits_ISO_8,2,1,48,71,2153409500
11316,7,Jits_ISO_8,3,5,80,127,2153491724
11316,7,Jits_ISO_8,0,5,63,98,2154211796
11316,7,Jits_ISO_8,1,1,48,82,2154220240
11316,7,Jits_ISO_8,2,5,56,103,2154291584
11316,7,Jits_ISO_8,3,5,80,127,2154294800
11316,7,Jits_ISO_8,0,5,80,127,2154971640
11316,7,Jits_ISO_8,1,5,63,98,2154992024
11316,7,Jits_ISO_8,2,1,48,72,2155032456
11316,7,Jits_ISO_8,3,5,56,103,2155052336
11316,7,Jits_ISO_8,0,1,48,79,2155808032
11316,7,Jits_ISO_8,1,5,56,103,2155812336
11316,7,Jits_ISO_8,2,5,63,98,2155831520
11316,7,Jits_ISO_8,3,5,80,127,2155834964
11316,7,Jits_ISO_8,0,5,63,98,2156551504
11316,7,Jits_ISO_8,1,1,48,73,2156587360
11316,7,Jits_ISO_8,2,5,80,127,2156632448
11316,7,Jits_ISO_8,3,5,56,103,2156641672
11316,7,Jits_ISO_8,0,5,63,98,2157371668
11316,7,Jits_ISO_8,1,1,48,62,2157375836
11316,7,Jits_ISO_8,2,5,56,103,2157392272
11316,7,Jits_ISO_8,3,5,80,127,2157442400
11316,7,Jits_ISO_8,0,1,48,73,2158157324
11316,7,Jits_ISO_8,1,5,80,127,2158171520
11316,7,Jits_ISO_8,2,5,63,98,2158211532
11316,7,Jits_ISO_8,3,5,56,103,2158232216
11316,7,Jits_ISO_8,0,1,48,74,2158980496
11316,7,Jits_ISO_8,1,5,56,103,2159012208
11316,7,Jits_ISO_8,2,5,63,98,2159021432
11316,7,Jits_ISO_8,3,5,80,127,2159042112
11316,7,Jits_ISO_8,0,5,56,103,2159742312
11316,7,Jits_ISO_8,1,1,48,78,2159789420
11316,7,Jits_ISO_8,2,5,63,98,2159832444
11316,7,Jits_ISO_8,3,5,80,127,2159891696
11316,7,Jits_ISO_8,0,5,80,127,2160571712
11316,7,Jits_ISO_8,1,1,48,87,2160577748
11316,7,Jits_ISO_8,2,5,56,103,2160582048
11316,7,Jits_ISO_8,3,5,63,98,2160651656
11316,7,Jits_ISO_8,0,1,48,82,2161399632
11316,7,Jits_ISO_8,1,5,63,98,2161402216
11316,7,Jits_ISO_8,2,5,80,127,2161492304
11316,7,Jits_ISO_8,3,5,56,103,2161501512
11316,7,Jits_ISO_8,0,5,63,98,2162141480
11316,7,Jits_ISO_8,1,5,80,127,2162191608
11316,7,Jits_ISO_8,2,5,56,103,2162252024
11316,7,Jits_ISO_8,3,1,48,98,2162272600
11316,7,Jits_ISO_8,0,5,56,103,2162971976
11316,7,Jits_ISO_8,1,5,80,127,2163022204
11316,7,Jits_ISO_8,2,5,63,98,2163041692
11316,7,Jits_ISO_8,3,1,48,83,2163055672
11316,7,Jits_ISO_8,0,5,56,103,2163742176
11316,7,Jits_ISO_8,1,5,80,127,2163801328
11316,7,Jits_ISO_8,2,1,48,84,2163831268
11316,7,Jits_ISO_8,3,5,63,98,2163872196
11316,7,Jits_ISO_8,0,5,56,103,2164541748
11316,7,Jits_ISO_8,1,5,80,127,2164571376
11316,7,Jits_ISO_8,2,5,63,98,2164602248
11316,7,Jits_ISO_8,3,1,48,77,2164614212
11316,7,Jits_ISO_8,0,1,48,73,2165370012
11316,7,Jits_ISO_8,1,5,56,103,2165381496
11316,7,Jits_ISO_8,2,5,80,127,2165402104
11316,7,Jits_ISO_8,3,5,63,98,2165462268
11316,7,Jits_ISO_8,0,1,48,81,2166158684
11316,7,Jits_ISO_8,1,5,80,127,2166262172
11316,7,Jits_ISO_8,2,5,56,103,2166272368
11316,7,Jits_ISO_8,3,5,63,98,2166281516
11316,7,Jits_ISO_8,0,5,56,103,2167021900
11316,7,Jits_ISO_8,1,1,48,67,2167043824
11316,7,Jits_ISO_8,2,5,80,127,2167062132
11316,7,Jits_ISO_8,3,5,63,98,2167091508
11316,7,Jits_ISO_8,0,5,56,103,2167791888
11316,7,Jits_ISO_8,1,5,63,98,2167821564
11316,7,Jits_ISO_8,2,1,48,75,2167835168
11316,7,Jits_ISO_8,3,5,80,127,2167861644
11316,7,Jits_ISO_8,0,5,80,127,2168541564
11316,7,Jits_ISO_8,1,5,63,98,2168591840
11316,7,Jits_ISO_8,2,1,48,64,2168610104
11316,7,Jits_ISO_8,3,5,56,103,2168612144
11316,7,Jits_ISO_8,0,5,56,103,2169372072
11316,7,Jits_ISO_8,1,1,48,65,2169390784
11316,7,Jits_ISO_8,2,5,80,127,2169442072
11316,7,Jits_ISO_8,3,5,63,98,2169502152
11316,7,Jits_ISO_8,0,5,80,127,2170171728
11316,7,Jits_ISO_8,1,1,48,65,2170227984
11316,7,Jits_ISO_8,2,5,63,98,2170261956
11316,7,Jits_ISO_8,3,5,56,103,2170282268
11316,7,Jits_ISO_8,0,5,63,98,2170992156
11316,7,Jits_ISO_8,1,5,56,103,2171011420
11316,7,Jits_ISO_8,2,5,80,127,2171052332
11316,7,Jits_ISO_8,3,1,48,59,2171074176
11316,7,Jits_ISO_8,0,5,80,127,2171752004
11316,7,Jits_ISO_8,1,5,63,98,2171772316
11316,7,Jits_ISO_8,2,1,48,57,2171831780
11316,7,Jits_ISO_8,3,5,56,103,2171852252
11316,7,Jits_ISO_8,0,5,63,98,2172542276
11316,7,Jits_ISO_8,1,1,48,64,2172591184
11316,7,Jits_ISO_8,2,5,56,103,2172651812
11316,7,Jits_ISO_8,3,5,80,127,2172654880
11316,7,Jits_ISO_8,0,5,63,98,2173361384
11316,7,Jits_ISO_8,1,5,56,103,2173372024
11316,7,Jits_ISO_8,2,5,80,127,2173374940
11316,7,Jits_ISO_8,3,1,48,64,2173390508
11316,7,Jits_ISO_8,0,5,56,103,2174142040
11316,7,Jits_ISO_8,1,1,48,45,2174146884
11316,7,Jits_ISO_8,2,1,38,19,2174160284
11316,7,Jits_ISO_8,3,5,80,127,2174261480
11316,7,Jits_ISO_8,4,5,63,98,2174301520
11316,7,Jits_ISO_8,0,5,56,103,2174962120
11316,7,Jits_ISO_8,1,1,48,97,2174973708
11316,7,Jits_ISO_8,2,5,80,127,2175041864
11316,7,Jits_ISO_8,3,5,63,98,2175062472
11316,7,Jits_ISO_8,0,5,56,103,2175762072
11316,7,Jits_ISO_8,1,1,48,92,2175822164
11316,7,Jits_ISO_8,2,5,63,98,2175872380
11316,7,Jits_ISO_8,3,5,80,127,2175875820
11316,7,Jits_ISO_8,0,5,56,103,2176592236
11316,7,Jits_ISO_8,1,1,48,70,2176603152
11316,7,Jits_ISO_8,2,5,80,127,2176621832
11316,7,Jits_ISO_8,3,5,63,98,2176642516
11316,7,Jits_ISO_8,0,5,63,98,2177371356
11316,7,Jits_ISO_8,1,5,56,103,2177381924
11316,7,Jits_ISO_8,2,1,48,73,2177383336
11316,7,Jits_ISO_8,3,5,80,127,2177392112
11316,7,Jits_ISO_8,0,1,48,86,2178140316
11316,7,Jits_ISO_8,1,5,80,127,2178161988
11316,7,Jits_ISO_8,2,5,56,103,2178212116
11316,7,Jits_ISO_8,3,5,63,98,2178252112
11316,7,Jits_ISO_8,0,1,48,78,2178955812
11316,7,Jits_ISO_8,1,5,80,127,2178982364
11316,7,Jits_ISO_8,2,5,63,98,2179001928
11316,7,Jits_ISO_8,3,5,56,103,2179051756
11316,7,Jits_ISO_8,0,1,48,78,2179779560
11316,7,Jits_ISO_8,1,5,80,127,2179792188
11316,7,Jits_ISO_8,2,5,56,103,2179821940
11316,7,Jits_ISO_8,3,5,63,98,2179891828
11316,7,Jits_ISO_8,0,1,48,58,2180606256
11316,7,Jits_ISO_8,1,5,56,103,2180642100
11316,7,Jits_ISO_8,2,5,80,127,2180652520
11316,7,Jits_ISO_8,3,5,63,98,2180692484
11316,7,Jits_ISO_8,0,5,56,103,2181351912
11316,7,Jits_ISO_8,1,5,63,98,2181372224
11316,7,Jits_ISO_8,2,1,48,73,2181422768
11316,7,Jits_ISO_8,3,5,80,127,2181441848
11316,7,Jits_ISO_8,0,5,63,98,2182171940
11316,7,Jits_ISO_8,1,1,48,73,2182175652
11316,7,Jits_ISO_8,2,5,80,127,2182232720
11316,7,Jits_ISO_8,3,5,56,103,2182251836
11316,7,Jits_ISO_8,0,5,80,127,2182961460
11316,7,Jits_ISO_8,1,1,48,56,2182982064
11316,7,Jits_ISO_8,2,5,56,103,2182992276
11316,7,Jits_ISO_8,3,5,63,98,2183022028
11316,7,Jits_ISO_8,0,5,56,103,2183762180
11316,7,Jits_ISO_8,1,1,48,54,2183774812
11316,7,Jits_ISO_8,2,5,63,98,2183821892
11316,7,Jits_ISO_8,3,5,80,127,2183882044
11316,7,Jits_ISO_8,0,1,48,73,2184546580
11316,7,Jits_ISO_8,1,5,80,127,2184581672
11316,7,Jits_ISO_8,2,5,56,103,2184601984
11316,7,Jits_ISO_8,3,5,63,98,2184671576
11316,7,Jits_ISO_8,0,1,48,71,2185366508
11316,7,Jits_ISO_8,1,5,80,127,2185382276
11316,7,Jits_ISO_8,2,5,63,98,2185401984
11316,7,Jits_ISO_8,3,5,56,103,2185432708
11316,7,Jits_ISO_8,0,1,48,72,2186144712
11316,7,Jits_ISO_8,1,5,80,127,2186171716
11316,7,Jits_ISO_8,2,5,63,98,2186192176
11316,7,Jits_ISO_8,3,5,56,103,2186251580
11316,7,Jits_ISO_8,0,5,80,127,2186971656
11316,7,Jits_ISO_8,1,1,48,54,2186978960
11316,7,Jits_ISO_8,2,5,56,103,2187071848
11316,7,Jits_ISO_8,3,5,63,98,2187101660
11316,7,Jits_ISO_8,0,5,63,98,2187762016
11316,7,Jits_ISO_8,1,5,80,127,2187812592
11316,7,Jits_ISO_8,2,1,48,81,2187820812
11316,7,Jits_ISO_8,3,5,56,103,2187831772
11316,7,Jits_ISO_8,0,1,48,70,2188597720
11316,7,Jits_ISO_8,1,5,80,127,2188601872
11316,7,Jits_ISO_8,2,5,56,103,2188632620
11316,7,Jits_ISO_8,3,5,63,98,2188635760
11316,7,Jits_ISO_8,0,1,48,58,2189372704
11316,7,Jits_ISO_8,1,5,63,98,2189432168
11316,7,Jits_ISO_8,2,5,56,103,2189472092
11316,7,Jits_ISO_8,3,5,80,127,2189491504
11316,7,Jits_ISO_8,0,5,80,127,2190171652
11316,7,Jits_ISO_8,1,1,48,76,2190210888
11316,7,Jits_ISO_8,2,5,63,98,2190252788
11316,7,Jits_ISO_8,3,5,56,103,2190292576
11316,7,Jits_ISO_8,0,5,63,98,2190991760
11316,7,Jits_ISO_8,1,1,48,68,2191051744
11316,7,Jits_ISO_8,2,5,80,127,2191071552
11316,7,Jits_ISO_8,3,5,56,103,2191092084
11316,7,Jits_ISO_8,0,5,56,103,2191832524
11316,7,Jits_ISO_8,1,5,63,98,2191841748
11316,7,Jits_ISO_8,2,1,48,76,2191859616
11316,7,Jits_ISO_8,3,5,80,127,2191881532
11316,7,Jits_ISO_8,0,5,56,103,2192552456
11316,7,Jits_ISO_8,1,5,80,127,2192555524
11316,7,Jits_ISO_8,2,1,48,66,2192628536
11316,7,Jits_ISO_8,3,5,63,98,2192691508
11316,7,Jits_ISO_8,0,5,56,103,2193341756
11316,7,Jits_ISO_8,1,5,63,98,2193431892
11316,7,Jits_ISO_8,2,1,48,80,2193442728
11316,7,Jits_ISO_8,3,5,80,127,2193501668
11316,7,Jits_ISO_8,0,5,63,98,2194221648
11316,7,Jits_ISO_8,1,5,80,127,2194224788
11316,7,Jits_ISO_8,2,1,48,77,2194226128
11316,7,Jits_ISO_8,3,5,56,103,2194281832
11316,7,Jits_ISO_8,0,1,48,71,2195030492
11316,7,Jits_ISO_8,1,5,80,127,2195062132
11316,7,Jits_ISO_8,2,5,56,103,2195081544
11316,7,Jits_ISO_8,3,5,63,98,2195091816
11316,7,Jits_ISO_8,0,5,56,103,2195771848
11316,7,Jits_ISO_8,1,5,63,98,2195782044
11316,7,Jits_ISO_8,2,1,48,82,2195805088
11316,7,Jits_ISO_8,3,5,80,127,2195851720
11316,7,Jits_ISO_8,0,5,80,127,2196571496
11316,7,Jits_ISO_8,1,1,48,65,2196589212
11316,7,Jits_ISO_8,2,5,56,103,2196621692
11316,7,Jits_ISO_8,3,5,63,98,2196671968
11316,7,Jits_ISO_8,0,1,48,72,2197392616
11316,7,Jits_ISO_8,1,5,56,103,2197452424
11316,7,Jits_ISO_8,2,5,63,98,2197462476
11316,7,Jits_ISO_8,3,5,80,127,2197502544
11316,7,Jits_ISO_8,0,5,56,103,2198191384
11316,7,Jits_ISO_8,1,1,48,72,2198214132
11316,7,Jits_ISO_8,2,5,63,98,2198232368
11316,7,Jits_ISO_8,3,5,80,127,2198281744
11316,7,Jits_ISO_8,0,5,80,127,2198952596
11316,7,Jits_ISO_8,1,5,56,103,2199001528
11316,7,Jits_ISO_8,2,1,48,58,2199004576
11316,7,Jits_ISO_8,3,5,63,98,2199021980
11316,7,Jits_ISO_8,0,5,80,127,2199762508
11316,7,Jits_ISO_8,1,1,48,83,2199810588
11316,7,Jits_ISO_8,2,5,63,98,2199821700
11316,7,Jits_ISO_8,3,5,56,103,2199902172
11316,7,Jits_ISO_8,0,5,80,127,2200541632
11316,7,Jits_ISO_8,1,5,56,103,2200581424
11316,7,Jits_ISO_8,2,5,63,98,2200601956
11316,7,Jits_ISO_8,3,1,48,65,2200631380
11316,7,Jits_ISO_8,0,5,56,103,2201391400
11316,7,Jits_ISO_8,1,5,80,127,2201401744
11316,7,Jits_ISO_8,2,1,48,79,2201404412
11316,7,Jits_ISO_8,3,5,63,98,2201441704
11316,7,Jits_ISO_8,0,1,48,78,2202197628
11316,7,Jits_ISO_8,1,5,56,103,2202261944
11316,7,Jits_ISO_8,2,5,63,98,2202301868
11316,7,Jits_ISO_8,3,5,80,127,2202305160
11316,7,Jits_ISO_8,0,5,63,98,2202952196
11316,7,Jits_ISO_8,1,5,80,127,2202991984
11316,7,Jits_ISO_8,2,1,48,73,2203051968
11316,7,Jits_ISO_8,3,5,56,103,2203061660
11316,7,Jits_ISO_8,0,5,63,98,2203741560
11316,7,Jits_ISO_8,1,5,56,103,2203821360
11316,7,Jits_ISO_8,2,1,48,60,2203831376
11316,7,Jits_ISO_8,3,5,80,127,2203881744
11316,7,Jits_ISO_8,0,5,80,127,2204551672
11316,7,Jits_ISO_8,1,1,48,68,2204596596
11316,7,Jits_ISO_8,2,5,63,98,2204601572
11316,7,Jits_ISO_8,3,5,56,103,2204632592
11316,7,Jits_ISO_8,0,5,56,103,2205341952
11316,7,Jits_ISO_8,1,5,63,98,2205392452
11316,7,Jits_ISO_8,2,1,48,72,2205394316
11316,7,Jits_ISO_8,3,5,80,127,2205401448
11316,7,Jits_ISO_8,0,5,56,103,2206151936
11316,7,Jits_ISO_8,1,1,48,55,2206166664
11316,7,Jits_ISO_8,2,5,63,98,2206261692
11316,7,Jits_ISO_8,3,5,80,127,2206282012
11316,7,Jits_ISO_8,0,5,63,98,2206951736
11316,7,Jits_ISO_8,1,1,48,69,2206969228
11316,7,Jits_ISO_8,2,5,80,127,2207002080
11316,7,Jits_ISO_8,3,5,56,103,2207092296
11316,7,Jits_ISO_8,0,5,63,98,2207742228
11316,7,Jits_ISO_8,1,1,48,57,2207772200
11316,7,Jits_ISO_8,2,5,80,127,2207773540
11316,7,Jits_ISO_8,3,5,56,103,2207862204
11316,7,Jits_ISO_8,0,5,63,98,2208542156
11316,7,Jits_ISO_8,1,5,56,103,2208552280
11316,7,Jits_ISO_8,2,1,48,70,2208587632
11316,7,Jits_ISO_8,3,5,80,127,2208651500
11316,7,Jits_ISO_8,0,1,48,73,2209383212
11316,7,Jits_ISO_8,1,5,63,98,2209442128
11316,7,Jits_ISO_8,2,5,80,127,2209471956
11316,7,Jits_ISO_8,3,5,56,103,2209501540
11316,7,Jits_ISO_8,0,1,48,79,2210243316
11316,7,Jits_ISO_8,1,5,80,127,2210262524
11316,7,Jits_ISO_8,2,5,63,98,2210271672
11316,7,Jits_ISO_8,3,5,56,103,2210302396
11316,7,Jits_ISO_8,0,5,80,127,2210961848
11316,7,Jits_ISO_8,1,5,63,98,2210982384
11316,7,Jits_ISO_8,2,5,56,103,2211032512
11316,7,Jits_ISO_8,3,1,48,73,2211097504
11316,7,Jits_ISO_8,0,5,63,98,2211792216
11316,7,Jits_ISO_8,1,1,48,84,2211830776
11316,7,Jits_ISO_8,2,5,80,127,2211851556
11316,7,Jits_ISO_8,3,5,56,103,2211872236
11316,7,Jits_ISO_8,0,5,63,98,2212552068
11316,7,Jits_ISO_8,1,5,56,103,2212602272
11316,7,Jits_ISO_8,2,5,80,127,2212611348
11316,7,Jits_ISO_8,3,1,48,84,2212618056
11316,7,Jits_ISO_8,0,5,56,103,2213381596
11316,7,Jits_ISO_8,1,5,80,127,2213391864
11316,7,Jits_ISO_8,2,1,48,86,2213402856
11316,7,Jits_ISO_8,3,5,63,98,2213492204
11316,7,Jits_ISO_8,0,5,80,127,2214142504
11316,7,Jits_ISO_8,1,5,63,98,2214151580
11316,7,Jits_ISO_8,2,1,48,75,2214197548
11316,7,Jits_ISO_8,3,5,56,103,2214302172
11316,7,Jits_ISO_8,0,5,63,98,2214952268
11316,7,Jits_ISO_8,1,5,80,127,2214992380
11316,7,Jits_ISO_8,2,1,48,88,2215027336
11316,7,Jits_ISO_8,3,5,56,103,2215072096
11316,7,Jits_ISO_8,0,5,56,103,2215741812
11316,7,Jits_ISO_8,1,1,48,92,2215822924
11316,7,Jits_ISO_8,2,5,80,127,2215842352
11316,7,Jits_ISO_8,3,5,63,98,2215861544
11316,7,Jits_ISO_8,0,5,80,127,2216601920
11316,7,Jits_ISO_8,1,1,48,89,2216608032
11316,7,Jits_ISO_8,2,5,56,103,2216612336
11316,7,Jits_ISO_8,3,5,63,98,2216702452
11316,7,Jits_ISO_8,0,5,56,103,2217401648
11316,7,Jits_ISO_8,1,5,63,98,2217422108
11316,7,Jits_ISO_8,2,1,48,73,2217426648
11316,7,Jits_ISO_8,3,5,80,127,2217502192
11316,7,Jits_ISO_8,0,5,63,98,2218152300
11316,7,Jits_ISO_8,1,1,48,87,2218232588
11316,7,Jits_ISO_8,2,5,56,103,2218242352
11316,7,Jits_ISO_8,3,5,80,127,2218245492
11316,7,Jits_ISO_8,0,5,56,103,2218981744
11316,7,Jits_ISO_8,1,1,48,76,2219018644
11316,7,Jits_ISO_8,2,5,80,127,2219042276
11316,7,Jits_ISO_8,3,5,63,98,2219052400
11316,7,Jits_ISO_8,0,1,48,89,2219792824
11316,7,Jits_ISO_8,1,5,80,127,2219831736
11316,7,Jits_ISO_8,2,5,56,103,2219842260
11316,7,Jits_ISO_8,3,5,63,98,2219845244
11316,7,Jits_ISO_8,0,5,56,103,2220591436
11316,7,Jits_ISO_8,1,5,80,127,2220601704
11316,7,Jits_ISO_8,2,1,48,89,2220616456
11316,7,Jits_ISO_8,3,5,63,98,2220622184
11316,7,Jits_ISO_8,0,5,63,98,2221361488
11316,7,Jits_ISO_8,1,1,48,83,2221381720
11316,7,Jits_ISO_8,2,5,80,127,2221422272
11316,7,Jits_ISO_8,3,5,56,103,2221472324
11316,7,Jits_ISO_8,0,1,48,81,2222207488
11316,7,Jits_ISO_8,1,5,63,98,2222242136
11316,7,Jits_ISO_8,2,5,56,103,2222252260
11316,7,Jits_ISO_8,3,5,80,127,2222301544
11316,7,Jits_ISO_8,0,5,63,98,2222941536
11316,7,Jits_ISO_8,1,5,80,127,2222962144
11316,7,Jits_ISO_8,2,5,56,103,2222972416
11316,7,Jits_ISO_8,3,1,48,77,2223021836
11316,7,Jits_ISO_8,0,5,63,98,2223742356
11316,7,Jits_ISO_8,1,5,80,127,2223745648
11316,7,Jits_ISO_8,2,5,56,103,2223782220
11316,7,Jits_ISO_8,3,1,48,66,2223783260
11316,7,Jits_ISO_8,0,1,48,56,2224564644
11316,7,Jits_ISO_8,1,5,63,98,2224611724
11316,7,Jits_ISO_8,2,5,80,127,2224642452
11316,7,Jits_ISO_8,3,5,56,103,2224651528
11316,7,Jits_ISO_8,0,5,56,103,2225362220
11316,7,Jits_ISO_8,1,1,48,71,2225390764
11316,7,Jits_ISO_8,2,5,80,127,2225392260
11316,7,Jits_ISO_8,3,5,63,98,2225421640
11316,7,Jits_ISO_8,0,1,48,58,2226180644
11316,7,Jits_ISO_8,1,5,63,98,2226262428
11316,7,Jits_ISO_8,2,5,56,103,2226302352
11316,7,Jits_ISO_8,3,5,80,127,2226305344
11316,7,Jits_ISO_8,0,5,80,127,2226961796
11316,7,Jits_ISO_8,1,5,56,103,2227041620
11316,7,Jits_ISO_8,2,1,48,93,2227053132
11316,7,Jits_ISO_8,3,5,63,98,2227091964
11316,7,Jits_ISO_8,0,5,80,127,2227742264
11316,7,Jits_ISO_8,1,5,56,103,2227761456
11316,7,Jits_ISO_8,2,5,63,98,2227851760
11316,7,Jits_ISO_8,3,1,48,86,2227871216
11316,7,Jits_ISO_8,0,5,80,127,2228581796
11316,7,Jits_ISO_8,1,5,63,98,2228621588
11316,7,Jits_ISO_8,2,1,48,81,2228623524
11316,7,Jits_ISO_8,3,5,56,103,2228661520
11316,7,Jits_ISO_8,0,5,63,98,2229351924
11316,7,Jits_ISO_8,1,1,48,84,2229404716
11316,7,Jits_ISO_8,2,5,80,127,2229412160
11316,7,Jits_ISO_8,3,5,56,103,2229442056
11316,7,Jits_ISO_8,0,5,56,103,2230151480
11316,7,Jits_ISO_8,1,5,80,127,2230182128
11316,7,Jits_ISO_8,2,1,48,74,2230229144
11316,7,Jits_ISO_8,3,5,63,98,2230272256
11316,7,Jits_ISO_8,0,5,56,103,2230961464
11316,7,Jits_ISO_8,1,1,48,84,2231029084
11316,7,Jits_ISO_8,2,5,80,127,2231072124
11316,7,Jits_ISO_8,3,5,63,98,2231101972
11316,7,Jits_ISO_8,0,5,56,103,2231811544
11316,7,Jits_ISO_8,1,1,48,81,2231826724
11316,7,Jits_ISO_8,2,5,63,98,2231872028
11316,7,Jits_ISO_8,3,5,80,127,2231901776
11316,7,Jits_ISO_8,0,5,56,103,2232581528
11316,7,Jits_ISO_8,1,1,48,75,2232624876
11316,7,Jits_ISO_8,2,5,63,98,2232652128
11316,7,Jits_ISO_8,3,5,80,127,2232671688
11316,7,Jits_ISO_8,4,1,48,19,2232786192
11316,7,Jits_ISO_8,0,5,80,127,2233351512
11316,7,Jits_ISO_8,1,5,63,98,2233372120
11316,7,Jits_ISO_8,2,1,48,82,2233401392
11316,7,Jits_ISO_8,3,5,56,103,2233422192
11316,7,Jits_ISO_8,0,9999,9999,9999,2138619988
11316,7,Jits_ISO_8,1,9999,9999,9999,2139419764
11316,7,Jits_ISO_8,2,9999,9999,9999,2140219484
11316,7,Jits_ISO_8,3,9999,9999,9999,2141019224
11316,7,Jits_ISO_8,4,9999,9999,9999,2141819960
11316,7,Jits_ISO_8,5,9999,9999,9999,2142619744
11316,7,Jits_ISO_8,6,9999,9999,9999,2143419452
11316,7,Jits_ISO_8,7,9999,9999,9999,2144219252
11316,7,Jits_ISO_8,8,9999,9999,9999,2145020028
11316,7,Jits_ISO_8,9,9999,9999,9999,2145819724
11316,7,Jits_ISO_8,10,9999,9999,9999,2146619452
11316,7,Jits_ISO_8,11,9999,9999,9999,2147419260
11316,7,Jits_ISO_8,12,9999,9999,9999,2148219960
11316,7,Jits_ISO_8,13,9999,9999,9999,2149019756
11316,7,Jits_ISO_8,14,9999,9999,9999,2149819456
11316,7,Jits_ISO_8,15,9999,9999,9999,2150619244
11316,7,Jits_ISO_8,16,9999,9999,9999,2151419984
11316,7,Jits_ISO_8,17,9999,9999,9999,2152219712
11316,7,Jits_ISO_8,18,9999,9999,9999,2153019504
11316,7,Jits_ISO_8,19,9999,9999,9999,2153819248
11316,7,Jits_ISO_8,20,9999,9999,9999,2154620000
11316,7,Jits_ISO_8,21,9999,9999,9999,2155419708
11316,7,Jits_ISO_8,22,9999,9999,9999,2156219500
11316,7,Jits_ISO_8,23,9999,9999,9999,2157019208
11316,7,Jits_ISO_8,24,9999,9999,9999,2157820012
11316,7,Jits_ISO_8,25,9999,9999,9999,2158619716
11316,7,Jits_ISO_8,26,9999,9999,9999,2159419504
11316,7,Jits_ISO_8,27,9999,9999,9999,2160219232
11316,7,Jits_ISO_8,28,9999,9999,9999,2161020000
11316,7,Jits_ISO_8,29,9999,9999,9999,2161819732
11316,7,Jits_ISO_8,30,9999,9999,9999,2162619512
11316,7,Jits_ISO_8,31,9999,9999,9999,2163419224
11316,7,Jits_ISO_8,32,9999,9999,9999,2164219992
11316,7,Jits_ISO_8,33,9999,9999,9999,2165019708
11316,7,Jits_ISO_8,34,9999,9999,9999,2165819504
11316,7,Jits_ISO_8,35,9999,9999,9999,2166619240
11316,7,Jits_ISO_8,36,9999,9999,9999,2167420000
11316,7,Jits_ISO_8,37,9999,9999,9999,2168219728
11316,7,Jits_ISO_8,38,9999,9999,9999,2169019448
11316,7,Jits_ISO_8,39,9999,9999,9999,2169819252
11316,7,Jits_ISO_8,40,9999,9999,9999,2170620024
11316,7,Jits_ISO_8,41,9999,9999,9999,2171419748
11316,7,Jits_ISO_8,42,9999,9999,9999,2172219456
11316,7,Jits_ISO_8,43,9999,9999,9999,2173019260
11316,7,Jits_ISO_8,44,9999,9999,9999,2173820000
11316,7,Jits_ISO_8,45,9999,9999,9999,2174619736
11316,7,Jits_ISO_8,46,9999,9999,9999,2175419488
11316,7,Jits_ISO_8,47,9999,9999,9999,2176219204
11316,7,Jits_ISO_8,48,9999,9999,9999,2177019976
11316,7,Jits_ISO_8,49,9999,9999,9999,2177819768
11316,7,Jits_ISO_8,50,9999,9999,9999,2178619476
11316,7,Jits_ISO_8,51,9999,9999,9999,2179419204
11316,7,Jits_ISO_8,52,9999,9999,9999,2180219964
11316,7,Jits_ISO_8,53,9999,9999,9999,2181019752
11316,7,Jits_ISO_8,54,9999,9999,9999,2181819460
11316,7,Jits_ISO_8,55,9999,9999,9999,2182619184
11316,7,Jits_ISO_8,56,9999,9999,9999,2183420016
11316,7,Jits_ISO_8,57,9999,9999,9999,2184219740
11316,7,Jits_ISO_8,58,9999,9999,9999,2185019464
11316,7,Jits_ISO_8,59,9999,9999,9999,2185819188
11316,7,Jits_ISO_8,60,9999,9999,9999,2186620016
11316,7,Jits_ISO_8,61,9999,9999,9999,2187419728
11316,7,Jits_ISO_8,62,9999,9999,9999,2188219452
11316,7,Jits_ISO_8,63,9999,9999,9999,2189019224
11316,7,Jits_ISO_8,64,9999,9999,9999,2189819988
11316,7,Jits_ISO_8,65,9999,9999,9999,2190619700
11316,7,Jits_ISO_8,66,9999,9999,9999,2191419504
11316,7,Jits_ISO_8,67,9999,9999,9999,2192219240
11316,7,Jits_ISO_8,68,9999,9999,9999,2193020000
11316,7,Jits_ISO_8,69,9999,9999,9999,2193819724
11316,7,Jits_ISO_8,70,9999,9999,9999,2194619516
11316,7,Jits_ISO_8,71,9999,9999,9999,2195419236
11316,7,Jits_ISO_8,72,9999,9999,9999,2196219968
11316,7,Jits_ISO_8,73,9999,9999,9999,2197019764
11316,7,Jits_ISO_8,74,9999,9999,9999,2197819496
11316,7,Jits_ISO_8,75,9999,9999,9999,2198619228
11316,7,Jits_ISO_8,76,9999,9999,9999,2199419996
11316,7,Jits_ISO_8,77,9999,9999,9999,2200219724
11316,7,Jits_ISO_8,78,9999,9999,9999,2201019516
11316,7,Jits_ISO_8,79,9999,9999,9999,2201819240
11316,7,Jits_ISO_8,80,9999,9999,9999,2202620016
11316,7,Jits_ISO_8,81,9999,9999,9999,2203419720
11316,7,Jits_ISO_8,82,9999,9999,9999,2204219500
11316,7,Jits_ISO_8,83,9999,9999,9999,2205019220
11316,7,Jits_ISO_8,84,9999,9999,9999,2205819984
11316,7,Jits_ISO_8,85,9999,9999,9999,2206619712
11316,7,Jits_ISO_8,86,9999,9999,9999,2207419508
11316,7,Jits_ISO_8,87,9999,9999,9999,2208219216
11316,7,Jits_ISO_8,88,9999,9999,9999,2209019968
11316,7,Jits_ISO_8,89,9999,9999,9999,2209819760
11316,7,Jits_ISO_8,90,9999,9999,9999,2210619480
11316,7,Jits_ISO_8,91,9999,9999,9999,2211419208
11316,7,Jits_ISO_8,92,9999,9999,9999,2212219988
11316,7,Jits_ISO_8,93,9999,9999,9999,2213019768
11316,7,Jits_ISO_8,94,9999,9999,9999,2213819476
11316,7,Jits_ISO_8,95,9999,9999,9999,2214619196
11316,7,Jits_ISO_8,96,9999,9999,9999,2215419964
11316,7,Jits_ISO_8,97,9999,9999,9999,2216219752
11316,7,Jits_ISO_8,98,9999,9999,9999,2217019476
11316,7,Jits_ISO_8,99,9999,9999,9999,2217819228
11316,7,Jits_ISO_8,100,9999,9999,9999,2218619988
11316,7,Jits_ISO_8,101,9999,9999,9999,2219419700
11316,7,Jits_ISO_8,102,9999,9999,9999,2220219492
11316,7,Jits_ISO_8,103,9999,9999,9999,2221019200
11316,7,Jits_ISO_8,104,9999,9999,9999,2221819972
11316,7,Jits_ISO_8,105,9999,9999,9999,2222619764
11316,7,Jits_ISO_8,106,9999,9999,9999,2223419468
11316,7,Jits_ISO_8,107,9999,9999,9999,2224219260
11316,7,Jits_ISO_8,108,9999,9999,9999,2225020020
11316,7,Jits_ISO_8,109,9999,9999,9999,2225819728
11316,7,Jits_ISO_8,110,9999,9999,9999,2226619448
11316,7,Jits_ISO_8,111,9999,9999,9999,2227419236
11316,7,Jits_ISO_8,112,9999,9999,9999,2228220000
11316,7,Jits_ISO_8,113,9999,9999,9999,2229019728
11316,7,Jits_ISO_8,114,9999,9999,9999,2229819448
11316,7,Jits_ISO_8,115,9999,9999,9999,2230619252
11316,7,Jits_ISO_8,116,9999,9999,9999,2231419956
11316,7,Jits_ISO_8,117,9999,9999,9999,2232219760
11316,7,Jits_ISO_8,118,9999,9999,9999,2233019468
11316,7,Jits_ISO_8,119,9999,9999,9999,2233819208
11317,16,Jits_ISO_5,0,5,56,103,2241640800
11317,16,Jits_ISO_5,1,5,63,98,2241643896
11317,16,Jits_ISO_5,2,5,80,127,2241647020
11317,16,Jits_ISO_5,0,5,56,103,2242140668
11317,16,Jits_ISO_5,1,5,63,98,2242143696
11317,16,Jits_ISO_5,2,5,80,127,2242146740
11317,16,Jits_ISO_5,0,5,56,103,2242641156
11317,16,Jits_ISO_5,1,5,80,127,2242650452
11317,16,Jits_ISO_5,2,5,63,98,2242670912
11317,16,Jits_ISO_5,0,5,63,98,2243090748
11317,16,Jits_ISO_5,1,5,80,127,2243120724
11317,16,Jits_ISO_5,2,5,56,103,2243130772
11317,16,Jits_ISO_5,0,1,48,31,2243636132
11317,16,Jits_ISO_5,1,5,80,127,2243650952
11317,16,Jits_ISO_5,2,5,56,103,2243661296
11317,16,Jits_ISO_5,3,5,63,98,2243690968
11317,16,Jits_ISO_5,0,5,63,98,2244141304
11317,16,Jits_ISO_5,1,1,48,40,2244166168
11317,16,Jits_ISO_5,2,5,56,103,2244171072
11317,16,Jits_ISO_5,3,5,80,127,2244181564
11317,16,Jits_ISO_5,0,5,56,103,2244590992
11317,16,Jits_ISO_5,1,5,63,98,2244641120
11317,16,Jits_ISO_5,2,5,80,127,2244660752
11317,16,Jits_ISO_5,3,1,48,39,2244668012
11317,16,Jits_ISO_5,0,5,80,127,2245090816
11317,16,Jits_ISO_5,1,5,63,98,2245140944
11317,16,Jits_ISO_5,2,1,48,54,2245151860
11317,16,Jits_ISO_5,3,5,56,103,2245180972
11317,16,Jits_ISO_5,0,5,56,103,2245591608
11317,16,Jits_ISO_5,1,5,63,98,2245621060
11317,16,Jits_ISO_5,2,1,48,51,2245648836
11317,16,Jits_ISO_5,3,5,80,127,2245690732
11317,16,Jits_ISO_5,0,5,56,103,2246091036
11317,16,Jits_ISO_5,1,1,48,44,2246113928
11317,16,Jits_ISO_5,2,5,80,127,2246150596
11317,16,Jits_ISO_5,3,5,63,98,2246181168
11317,16,Jits_ISO_5,0,5,56,103,2246601124
11317,16,Jits_ISO_5,1,5,63,98,2246611244
11317,16,Jits_ISO_5,2,1,48,47,2246619168
11317,16,Jits_ISO_5,3,5,80,127,2246651176
11317,16,Jits_ISO_5,0,5,63,98,2247090680
11317,16,Jits_ISO_5,1,1,48,49,2247117540
11317,16,Jits_ISO_5,2,5,80,127,2247170616
11317,16,Jits_ISO_5,3,5,56,103,2247180812
11317,16,Jits_ISO_5,0,1,48,53,2247632784
11317,16,Jits_ISO_5,1,5,63,98,2247640456
11317,16,Jits_ISO_5,2,5,56,103,2247681512
11317,16,Jits_ISO_5,3,5,80,127,2247684432
11317,16,Jits_ISO_5,0,5,56,103,2248101232
11317,16,Jits_ISO_5,1,5,63,98,2248110676
11317,16,Jits_ISO_5,2,1,48,50,2248147876
11317,16,Jits_ISO_5,3,5,80,127,2248151580
11317,16,Jits_ISO_5,0,5,56,103,2248590784
11317,16,Jits_ISO_5,1,5,63,98,2248593704
11317,16,Jits_ISO_5,2,5,80,127,2248611244
11317,16,Jits_ISO_5,3,1,48,48,2248620140
11317,16,Jits_ISO_5,0,5,80,127,2249100636
11317,16,Jits_ISO_5,1,1,48,46,2249103532
11317,16,Jits_ISO_5,2,5,56,103,2249110972
11317,16,Jits_ISO_5,3,5,63,98,2249180800
11317,16,Jits_ISO_5,0,5,63,98,2249591092
11317,16,Jits_ISO_5,1,1,48,48,2249611096
11317,16,Jits_ISO_5,2,5,56,103,2249612288
11317,16,Jits_ISO_5,3,5,80,127,2249690736
11317,16,Jits_ISO_5,0,5,56,103,2250101164
11317,16,Jits_ISO_5,1,1,48,46,2250108692
11317,16,Jits_ISO_5,2,5,80,127,2250141020
11317,16,Jits_ISO_5,3,5,63,98,2250151216
11317,16,Jits_ISO_5,0,5,80,127,2250590576
11317,16,Jits_ISO_5,1,1,48,47,2250611672
11317,16,Jits_ISO_5,2,5,63,98,2250621512
11317,16,Jits_ISO_5,3,5,56,103,2250661376
11317,16,Jits_ISO_5,0,5,56,103,2251110920
11317,16,Jits_ISO_5,1,1,48,53,2251123180
11317,16,Jits_ISO_5,2,5,63,98,2251140592
11317,16,Jits_ISO_5,3,5,80,127,2251190940
11317,16,Jits_ISO_5,0,1,48,34,2251604788
11317,16,Jits_ISO_5,1,5,80,127,2251610592
11317,16,Jits_ISO_5,2,5,56,103,2251650528
11317,16,Jits_ISO_5,3,5,63,98,2251660800
11317,16,Jits_ISO_5,0,5,80,127,2252090604
11317,16,Jits_ISO_5,1,1,48,34,2252093576
11317,16,Jits_ISO_5,2,5,63,98,2252130836
11317,16,Jits_ISO_5,3,5,56,103,2252191132
11317,16,Jits_ISO_5,0,5,56,103,2252590552
11317,16,Jits_ISO_5,1,5,80,127,2252600596
11317,16,Jits_ISO_5,2,1,48,35,2252607928
11317,16,Jits_ISO_5,3,5,63,98,2252680780
11317,16,Jits_ISO_5,0,5,80,127,2253091048
11317,16,Jits_ISO_5,1,1,48,37,2253094688
11317,16,Jits_ISO_5,2,5,63,98,2253150708
11317,16,Jits_ISO_5,3,5,56,103,2253181428
11317,16,Jits_ISO_5,0,5,56,103,2253590796
11317,16,Jits_ISO_5,1,1,48,40,2253622008
11317,16,Jits_ISO_5,2,5,80,127,2253651576
11317,16,Jits_ISO_5,3,5,63,98,2253691216
11317,16,Jits_ISO_5,0,1,48,53,2254113136
11317,16,Jits_ISO_5,1,5,56,103,2254140908
11317,16,Jits_ISO_5,2,5,63,98,2254151028
11317,16,Jits_ISO_5,3,5,80,127,2254154540
11317,16,Jits_ISO_5,0,5,80,127,2254591608
11317,16,Jits_ISO_5,1,1,48,48,2254632940
11317,16,Jits_ISO_5,2,5,63,98,2254680788
11317,16,Jits_ISO_5,3,5,56,103,2254690688
11317,16,Jits_ISO_5,0,5,56,103,2255090892
11317,16,Jits_ISO_5,1,5,63,98,2255094140
11317,16,Jits_ISO_5,2,5,80,127,2255097416
11317,16,Jits_ISO_5,3,1,48,40,2255141820
11317,16,Jits_ISO_5,0,1,48,56,2255606856
11317,16,Jits_ISO_5,1,5,80,127,2255611156
11317,16,Jits_ISO_5,2,5,63,98,2255661580
11317,16,Jits_ISO_5,3,5,56,103,2255690980
11317,16,Jits_ISO_5,0,5,56,103,2256090596
11317,16,Jits_ISO_5,1,5,80,127,2256100864
11317,16,Jits_ISO_5,2,1,48,52,2256132080
11317,16,Jits_ISO_5,3,5,63,98,2256171436
11317,16,Jits_ISO_5,0,5,56,103,2256600452
11317,16,Jits_ISO_5,1,5,63,98,2256620912
11317,16,Jits_ISO_5,2,1,48,56,2256638332
11317,16,Jits_ISO_5,3,5,80,127,2256681292
11317,16,Jits_ISO_5,0,5,80,127,2257090984
11317,16,Jits_ISO_5,1,5,63,98,2257160516
11317,16,Jits_ISO_5,2,1,48,56,2257171504
11317,16,Jits_ISO_5,3,5,56,103,2257180892
11317,16,Jits_ISO_5,0,5,80,127,2257611256
11317,16,Jits_ISO_5,1,5,56,103,2257621524
11317,16,Jits_ISO_5,2,5,63,98,2257630676
11317,16,Jits_ISO_5,3,1,48,66,2257690428
11317,16,Jits_ISO_5,0,5,80,127,2258100588
11317,16,Jits_ISO_5,1,5,56,103,2258121048
11317,16,Jits_ISO_5,2,1,48,61,2258180880
11317,16,Jits_ISO_5,3,5,63,98,2258190644
11317,16,Jits_ISO_5,0,5,56,103,2258610676
11317,16,Jits_ISO_5,1,5,80,127,2258641396
11317,16,Jits_ISO_5,2,1,48,62,2258656428
11317,16,Jits_ISO_5,3,5,63,98,2258660876
11317,16,Jits_ISO_5,0,5,63,98,2259100984
11317,16,Jits_ISO_5,1,5,56,103,2259160548
11317,16,Jits_ISO_5,2,1,48,55,2259187932
11317,16,Jits_ISO_5,3,5,80,127,2259191112
11317,16,Jits_ISO_5,0,5,63,98,2259590452
11317,16,Jits_ISO_5,1,5,80,127,2259593888
11317,16,Jits_ISO_5,2,5,56,103,2259680580
11317,16,Jits_ISO_5,3,1,48,55,2259686692
11317,16,Jits_ISO_5,0,5,56,103,2260110628
11317,16,Jits_ISO_5,1,5,63,98,2260141352
11317,16,Jits_ISO_5,2,1,48,69,2260169876
11317,16,Jits_ISO_5,3,5,80,127,2260181504
11317,16,Jits_ISO_5,0,5,63,98,2260610380
11317,16,Jits_ISO_5,1,5,56,103,2260651660
11317,16,Jits_ISO_5,2,1,48,70,2260662576
11317,16,Jits_ISO_5,3,5,80,127,2260670768
11317,16,Jits_ISO_5,0,5,63,98,2261121424
11317,16,Jits_ISO_5,1,5,56,103,2261161512
11317,16,Jits_ISO_5,2,1,48,73,2261169832
11317,16,Jits_ISO_5,3,5,80,127,2261171552
11317,16,Jits_ISO_5,0,5,80,127,2261600628
11317,16,Jits_ISO_5,1,1,48,73,2261664648
11317,16,Jits_ISO_5,2,5,63,98,2261671500
11317,16,Jits_ISO_5,3,5,56,103,2261690688
11317,16,Jits_ISO_5,0,5,56,103,2262091012
11317,16,Jits_ISO_5,1,5,80,127,2262110572
11317,16,Jits_ISO_5,2,1,48,68,2262119544
11317,16,Jits_ISO_5,3,5,63,98,2262150504
11317,16,Jits_ISO_5,0,5,63,98,2262601096
11317,16,Jits_ISO_5,1,1,48,73,2262620808
11317,16,Jits_ISO_5,2,5,80,127,2262621996
11317,16,Jits_ISO_5,3,5,56,103,2262660368
11317,16,Jits_ISO_5,0,5,63,98,2263100684
11317,16,Jits_ISO_5,1,5,56,103,2263121364
11317,16,Jits_ISO_5,2,1,48,66,2263127176
11317,16,Jits_ISO_5,3,5,80,127,2263130732
11317,16,Jits_ISO_5,0,5,80,127,2263600388
11317,16,Jits_ISO_5,1,1,48,73,2263615816
11317,16,Jits_ISO_5,2,5,56,103,2263620864
11317,16,Jits_ISO_5,3,5,63,98,2263650616
11317,16,Jits_ISO_5,0,1,48,62,2264113880
11317,16,Jits_ISO_5,1,5,56,103,2264170948
11317,16,Jits_ISO_5,2,5,80,127,2264173940
11317,16,Jits_ISO_5,3,5,63,98,2264191332
11317,16,Jits_ISO_5,0,5,63,98,2264590572
11317,16,Jits_ISO_5,1,5,56,103,2264621444
11317,16,Jits_ISO_5,2,1,48,69,2264644216
11317,16,Jits_ISO_5,3,5,80,127,2264680804
11317,16,Jits_ISO_5,0,1,48,67,2265132300
11317,16,Jits_ISO_5,1,5,63,98,2265171528
11317,16,Jits_ISO_5,2,5,56,103,2265180532
11317,16,Jits_ISO_5,3,5,80,127,2265190876
11317,16,Jits_ISO_5,0,5,56,103,2265620756
11317,16,Jits_ISO_5,1,5,80,127,2265650580
11317,16,Jits_ISO_5,2,5,63,98,2265660728
11317,16,Jits_ISO_5,3,1,48,62,2265678668
11317,16,Jits_ISO_5,0,5,63,98,2266160512
11317,16,Jits_ISO_5,1,5,56,103,2266170732
11317,16,Jits_ISO_5,2,1,48,71,2266189296
11317,16,Jits_ISO_5,3,5,80,127,2266191256
11317,16,Jits_ISO_5,0,5,56,103,2266590572
11317,16,Jits_ISO_5,1,5,63,98,2266651108
11317,16,Jits_ISO_5,2,5,80,127,2266654472
11317,16,Jits_ISO_5,3,1,48,52,2266700472
11317,16,Jits_ISO_5,0,5,80,127,2267110760
11317,16,Jits_ISO_5,1,5,56,103,2267121104
11317,16,Jits_ISO_5,2,5,63,98,2267190780
11317,16,Jits_ISO_5,3,1,48,64,2267192268
11317,16,Jits_ISO_5,0,5,80,127,2267601416
11317,16,Jits_ISO_5,1,5,56,103,2267670800
11317,16,Jits_ISO_5,2,5,63,98,2267681068
11317,16,Jits_ISO_5,3,1,48,70,2267692060
11317,16,Jits_ISO_5,0,5,63,98,2268140876
11317,16,Jits_ISO_5,1,5,56,103,2268151220
11317,16,Jits_ISO_5,2,5,80,127,2268170484
11317,16,Jits_ISO_5,3,1,48,67,2268188500
11317,16,Jits_ISO_5,0,5,80,127,2268590564
11317,16,Jits_ISO_5,1,5,63,98,2268650956
11317,16,Jits_ISO_5,2,1,48,67,2268676988
11317,16,Jits_ISO_5,3,5,56,103,2268690884
11317,16,Jits_ISO_5,0,5,56,103,2269131220
11317,16,Jits_ISO_5,1,5,63,98,2269141488
11317,16,Jits_ISO_5,2,1,48,64,2269177564
11317,16,Jits_ISO_5,3,5,80,127,2269181640
11317,16,Jits_ISO_5,0,5,56,103,2269590812
11317,16,Jits_ISO_5,1,5,80,127,2269620708
11317,16,Jits_ISO_5,2,5,63,98,2269670760
11317,16,Jits_ISO_5,3,1,48,72,2269671948
11317,16,Jits_ISO_5,0,5,56,103,2270130416
11317,16,Jits_ISO_5,1,1,48,59,2270170652
11317,16,Jits_ISO_5,2,5,63,98,2270172240
11317,16,Jits_ISO_5,3,5,80,127,2270174980
11317,16,Jits_ISO_5,0,5,56,103,2270631356
11317,16,Jits_ISO_5,1,5,63,98,2270640436
11317,16,Jits_ISO_5,2,5,80,127,2270660892
11317,16,Jits_ISO_5,3,1,48,63,2270678328
11317,16,Jits_ISO_5,0,5,56,103,2271091000
11317,16,Jits_ISO_5,1,5,80,127,2271094064
11317,16,Jits_ISO_5,2,5,63,98,2271130860
11317,16,Jits_ISO_5,3,1,48,62,2271171592
11317,16,Jits_ISO_5,0,5,63,98,2271630596
11317,16,Jits_ISO_5,1,1,48,66,2271648240
11317,16,Jits_ISO_5,2,5,56,103,2271661536
11317,16,Jits_ISO_5,3,5,80,127,2271680796
11317,16,Jits_ISO_5,0,5,80,127,2272100740
11317,16,Jits_ISO_5,1,5,56,103,2272111380
11317,16,Jits_ISO_5,2,5,63,98,2272121576
11317,16,Jits_ISO_5,3,1,48,59,2272147540
11317,16,Jits_ISO_5,0,5,56,103,2272600404
11317,16,Jits_ISO_5,1,1,48,63,2272636184
11317,16,Jits_ISO_5,2,5,80,127,2272641608
11317,16,Jits_ISO_5,3,5,63,98,2272671356
11317,16,Jits_ISO_5,0,5,63,98,2273111388
11317,16,Jits_ISO_5,1,5,80,127,2273120688
11317,16,Jits_ISO_5,2,1,48,59,2273123360
11317,16,Jits_ISO_5,3,5,56,103,2273130804
11317,16,Jits_ISO_5,0,5,56,103,2273590496
11317,16,Jits_ISO_5,1,1,48,69,2273612824
11317,16,Jits_ISO_5,2,5,63,98,2273661244
11317,16,Jits_ISO_5,3,5,80,127,2273670544
11317,16,Jits_ISO_5,0,5,80,127,2274091368
11317,16,Jits_ISO_5,1,5,56,103,2274100516
11317,16,Jits_ISO_5,2,1,48,67,2274136988
11317,16,Jits_ISO_5,3,5,63,98,2274150736
11317,16,Jits_ISO_5,0,5,80,127,2274601300
11317,16,Jits_ISO_5,1,1,48,68,2274639364
11317,16,Jits_ISO_5,2,5,56,103,2274660664
11317,16,Jits_ISO_5,3,5,63,98,2274690412
11317,16,Jits_ISO_5,0,5,56,103,2275101124
11317,16,Jits_ISO_5,1,5,80,127,2275104116
11317,16,Jits_ISO_5,2,1,48,69,2275132140
11317,16,Jits_ISO_5,3,5,63,98,2275141080
11317,16,Jits_ISO_5,0,1,48,70,2275624424
11317,16,Jits_ISO_5,1,5,56,103,2275630376
11317,16,Jits_ISO_5,2,5,63,98,2275661272
11317,16,Jits_ISO_5,3,5,80,127,2275671392
11317,16,Jits_ISO_5,0,1,48,66,2276126924
11317,16,Jits_ISO_5,1,5,63,98,2276141416
11317,16,Jits_ISO_5,2,5,80,127,2276150492
11317,16,Jits_ISO_5,3,5,56,103,2276161008
11317,16,Jits_ISO_5,0,5,80,127,2276591184
11317,16,Jits_ISO_5,1,1,48,65,2276622024
11317,16,Jits_ISO_5,2,5,56,103,2276641300
11317,16,Jits_ISO_5,3,5,63,98,2276644440
11317,16,Jits_ISO_5,0,1,48,72,2277121044
11317,16,Jits_ISO_5,1,5,56,103,2277122528
11317,16,Jits_ISO_5,2,5,80,127,2277140748
11317,16,Jits_ISO_5,3,5,63,98,2277151016
11317,16,Jits_ISO_5,0,5,63,98,2277600548
11317,16,Jits_ISO_5,1,5,56,103,2277631344
11317,16,Jits_ISO_5,2,1,48,65,2277633936
11317,16,Jits_ISO_5,3,5,80,127,2277650748
11317,16,Jits_ISO_5,0,5,56,103,2278110544
11317,16,Jits_ISO_5,1,5,80,127,2278121184
11317,16,Jits_ISO_5,2,1,48,74,2278136736
11317,16,Jits_ISO_5,3,5,63,98,2278190488
11317,16,Jits_ISO_5,0,5,63,98,2278601004
11317,16,Jits_ISO_5,1,1,48,64,2278627188
11317,16,Jits_ISO_5,2,5,80,127,2278640936
11317,16,Jits_ISO_5,3,5,56,103,2278680876
11317,16,Jits_ISO_5,0,5,56,103,2279111152
11317,16,Jits_ISO_5,1,5,63,98,2279121196
11317,16,Jits_ISO_5,2,5,80,127,2279140608
11317,16,Jits_ISO_5,3,1,48,77,2279152648
11317,16,Jits_ISO_5,0,5,63,98,2279650536
11317,16,Jits_ISO_5,1,1,48,73,2279660320
11317,16,Jits_ISO_5,2,5,80,127,2279671136
11317,16,Jits_ISO_5,3,5,56,103,2279690620
11317,16,Jits_ISO_5,0,5,56,103,2280091156
11317,16,Jits_ISO_5,1,1,48,65,2280167468
11317,16,Jits_ISO_5,2,5,80,127,2280170720
11317,16,Jits_ISO_5,3,5,63,98,2280181364
11317,16,Jits_ISO_5,0,5,80,127,2280630688
11317,16,Jits_ISO_5,1,5,63,98,2280641256
11317,16,Jits_ISO_5,2,1,48,74,2280651876
11317,16,Jits_ISO_5,3,5,56,103,2280670552
11317,16,Jits_ISO_5,0,5,63,98,2281090508
11317,16,Jits_ISO_5,1,5,80,127,2281131348
11317,16,Jits_ISO_5,2,1,48,72,2281146672
11317,16,Jits_ISO_5,3,5,56,103,2281190828
11317,16,Jits_ISO_5,0,5,63,98,2281601400
11317,16,Jits_ISO_5,1,1,48,65,2281641012
11317,16,Jits_ISO_5,2,5,56,103,2281650400
11317,16,Jits_ISO_5,3,5,80,127,2281681196
11317,16,Jits_ISO_5,0,5,80,127,2282111252
11317,16,Jits_ISO_5,1,5,63,98,2282120696
11317,16,Jits_ISO_5,2,1,48,77,2282146660
11317,16,Jits_ISO_5,3,5,56,103,2282191192
11317,16,Jits_ISO_5,0,1,48,67,2282636132
11317,16,Jits_ISO_5,1,5,80,127,2282680820
11317,16,Jits_ISO_5,2,5,56,103,2282691168
11317,16,Jits_ISO_5,3,5,63,98,2282694300
11317,16,Jits_ISO_5,0,5,56,103,2283121216
11317,16,Jits_ISO_5,1,5,80,127,2283140408
11317,16,Jits_ISO_5,2,5,63,98,2283150604
11317,16,Jits_ISO_5,3,1,48,70,2283163836
11317,16,Jits_ISO_5,0,5,63,98,2283631232
11317,16,Jits_ISO_5,1,1,48,67,2283658092
11317,16,Jits_ISO_5,2,5,56,103,2283671088
11317,16,Jits_ISO_5,3,5,80,127,2283691396
11317,16,Jits_ISO_5,0,5,63,98,2284130672
11317,16,Jits_ISO_5,1,1,48,67,2284172300
11317,16,Jits_ISO_5,2,5,56,103,2284191200
11317,16,Jits_ISO_5,3,5,80,127,2284194264
11317,16,Jits_ISO_5,0,5,56,103,2284590444
11317,16,Jits_ISO_5,1,5,80,127,2284611076
11317,16,Jits_ISO_5,2,5,63,98,2284650792
11317,16,Jits_ISO_5,3,1,48,65,2284667536
11317,16,Jits_ISO_5,0,5,56,103,2285121004
11317,16,Jits_ISO_5,1,5,63,98,2285141316
11317,16,Jits_ISO_5,2,1,48,69,2285150540
11317,16,Jits_ISO_5,3,5,80,127,2285152024
11317,16,Jits_ISO_5,0,5,80,127,2285590980
11317,16,Jits_ISO_5,1,5,56,103,2285620804
11317,16,Jits_ISO_5,2,1,48,64,2285627468
11317,16,Jits_ISO_5,3,5,63,98,2285660464
11317,16,Jits_ISO_5,0,5,80,127,2286101064
11317,16,Jits_ISO_5,1,5,56,103,2286121300
11317,16,Jits_ISO_5,2,1,48,58,2286122268
11317,16,Jits_ISO_5,3,5,63,98,2286180660
11317,16,Jits_ISO_5,0,5,56,103,2286610848
11317,16,Jits_ISO_5,1,5,80,127,2286631232
11317,16,Jits_ISO_5,2,1,48,59,2286647460
11317,16,Jits_ISO_5,3,5,63,98,2286690592
11317,16,Jits_ISO_5,0,5,80,127,2287090968
11317,16,Jits_ISO_5,1,5,56,103,2287101160
11317,16,Jits_ISO_5,2,1,48,64,2287137088
11317,16,Jits_ISO_5,3,5,63,98,2287141168
11317,16,Jits_ISO_5,0,5,63,98,2287590860
11317,16,Jits_ISO_5,1,5,56,103,2287630568
11317,16,Jits_ISO_5,2,1,48,63,2287632536
11317,16,Jits_ISO_5,3,5,80,127,2287634980
11317,16,Jits_ISO_5,0,5,63,98,2288110964
11317,16,Jits_ISO_5,1,1,48,56,2288145168
11317,16,Jits_ISO_5,2,5,80,127,2288151116
11317,16,Jits_ISO_5,3,5,56,103,2288180716
11317,16,Jits_ISO_5,0,5,56,103,2288600360
11317,16,Jits_ISO_5,1,5,63,98,2288610556
11317,16,Jits_ISO_5,2,5,80,127,2288641352
11317,16,Jits_ISO_5,3,1,48,66,2288657724
11317,16,Jits_ISO_5,0,5,80,127,2289091184
11317,16,Jits_ISO_5,1,1,48,73,2289150128
11317,16,Jits_ISO_5,2,5,63,98,2289160712
11317,16,Jits_ISO_5,3,5,56,103,2289170832
11317,16,Jits_ISO_5,0,5,63,98,2289590784
11317,16,Jits_ISO_5,1,5,56,103,2289661440
11317,16,Jits_ISO_5,2,1,48,76,2289669912
11317,16,Jits_ISO_5,3,5,80,127,2289671404
11317,16,Jits_ISO_5,0,5,63,98,2290091272
11317,16,Jits_ISO_5,1,5,56,103,2290110980
11317,16,Jits_ISO_5,2,5,80,127,2290150916
11317,16,Jits_ISO_5,3,1,48,78,2290179588
11317,16,Jits_ISO_5,0,5,56,103,2290601412
11317,16,Jits_ISO_5,1,5,63,98,2290610564
11317,16,Jits_ISO_5,2,1,48,59,2290662076
11317,16,Jits_ISO_5,3,5,80,127,2290690348
11317,16,Jits_ISO_5,0,5,63,98,2291091048
11317,16,Jits_ISO_5,1,5,56,103,2291120500
11317,16,Jits_ISO_5,2,1,48,67,2291151416
11317,16,Jits_ISO_5,3,5,80,127,2291160504
11317,16,Jits_ISO_5,0,5,56,103,2291590412
11317,16,Jits_ISO_5,1,5,63,98,2291630428
11317,16,Jits_ISO_5,2,1,48,69,2291635564
11317,16,Jits_ISO_5,3,5,80,127,2291671476
11317,16,Jits_ISO_5,0,5,80,127,2292091208
11317,16,Jits_ISO_5,1,1,48,66,2292123696
11317,16,Jits_ISO_5,2,5,56,103,2292171220
11317,16,Jits_ISO_5,3,5,63,98,2292181268
11317,16,Jits_ISO_5,0,5,56,103,2292630964
11317,16,Jits_ISO_5,1,5,63,98,2292633804
11317,16,Jits_ISO_5,2,5,80,127,2292641160
11317,16,Jits_ISO_5,3,1,48,66,2292661736
11317,16,Jits_ISO_5,0,1,48,64,2293145204
11317,16,Jits_ISO_5,1,5,56,103,2293151152
11317,16,Jits_ISO_5,2,5,63,98,2293170564
11317,16,Jits_ISO_5,3,5,80,127,2293180908
11317,16,Jits_ISO_5,0,5,63,98,2293611040
11317,16,Jits_ISO_5,1,5,80,127,2293621088
11317,16,Jits_ISO_5,2,5,56,103,2293640424
11317,16,Jits_ISO_5,3,1,48,51,2293661148
11317,16,Jits_ISO_5,0,5,63,98,2294110700
11317,16,Jits_ISO_5,1,1,48,59,2294135316
11317,16,Jits_ISO_5,2,5,56,103,2294190412
11317,16,Jits_ISO_5,3,5,80,127,2294193476
11317,16,Jits_ISO_5,0,5,63,98,2294611252
11317,16,Jits_ISO_5,1,5,56,103,2294630888
11317,16,Jits_ISO_5,2,1,48,58,2294649296
11317,16,Jits_ISO_5,3,5,80,127,2294660408
11317,16,Jits_ISO_5,0,5,56,103,2295110908
11317,16,Jits_ISO_5,1,1,48,59,2295119204
11317,16,Jits_ISO_5,2,5,63,98,2295130464
11317,16,Jits_ISO_5,3,5,80,127,2295140956
11317,16,Jits_ISO_5,0,1,48,71,2295591864
11317,16,Jits_ISO_5,1,5,56,103,2295640392
11317,16,Jits_ISO_5,2,5,63,98,2295671188
11317,16,Jits_ISO_5,3,5,80,127,2295674696
11317,16,Jits_ISO_5,0,5,56,103,2296090952
11317,16,Jits_ISO_5,1,1,48,65,2296111456
11317,16,Jits_ISO_5,2,5,63,98,2296130984
11317,16,Jits_ISO_5,3,5,80,127,2296191296
11317,16,Jits_ISO_5,0,5,56,103,2296611224
11317,16,Jits_ISO_5,1,5,63,98,2296621572
11317,16,Jits_ISO_5,2,1,48,62,2296627756
11317,16,Jits_ISO_5,3,5,80,127,2296680928
11317,16,Jits_ISO_5,0,5,56,103,2297110824
11317,16,Jits_ISO_5,1,5,80,127,2297131284
11317,16,Jits_ISO_5,2,1,48,67,2297139052
11317,16,Jits_ISO_5,3,5,63,98,2297161052
11317,16,Jits_ISO_5,0,5,80,127,2297610720
11317,16,Jits_ISO_5,1,5,56,103,2297620992
11317,16,Jits_ISO_5,2,5,63,98,2297641228
11317,16,Jits_ISO_5,3,1,48,67,2297651616
11317,16,Jits_ISO_5,0,5,63,98,2298101104
11317,16,Jits_ISO_5,1,1,48,62,2298153144
11317,16,Jits_ISO_5,2,5,80,127,2298180840
11317,16,Jits_ISO_5,3,5,56,103,2298191332
11317,16,Jits_ISO_5,0,1,48,70,2298661224
11317,16,Jits_ISO_5,1,5,80,127,2298662488
11317,16,Jits_ISO_5,2,5,56,103,2298680876
11317,16,Jits_ISO_5,3,5,63,98,2298683792
11317,16,Jits_ISO_5,0,5,63,98,2299131208
11317,16,Jits_ISO_5,1,5,80,127,2299134420
11317,16,Jits_ISO_5,2,1,48,60,2299163916
11317,16,Jits_ISO_5,3,5,56,103,2299190764
11317,16,Jits_ISO_5,0,5,56,103,2299610460
11317,16,Jits_ISO_5,1,5,80,127,2299620652
11317,16,Jits_ISO_5,2,5,63,98,2299660816
11317,16,Jits_ISO_5,3,1,48,60,2299696588
11317,16,Jits_ISO_5,0,5,56,103,2300090948
11317,16,Jits_ISO_5,1,5,63,98,2300151116
11317,16,Jits_ISO_5,2,5,80,127,2300161312
11317,16,Jits_ISO_5,3,1,48,51,2300169004
11317,16,Jits_ISO_5,0,5,63,98,2300600960
11317,16,Jits_ISO_5,1,1,48,58,2300639772
11317,16,Jits_ISO_5,2,5,80,127,2300641264
11317,16,Jits_ISO_5,3,5,56,103,2300680680
11317,16,Jits_ISO_5,0,5,56,103,2301101368
11317,16,Jits_ISO_5,1,1,48,62,2301129516
11317,16,Jits_ISO_5,2,5,63,98,2301181228
11317,16,Jits_ISO_5,3,5,80,127,2301184816
11317,16,Jits_ISO_5,0,9999,9999,9999,2241888376
11317,16,Jits_ISO_5,1,9999,9999,9999,2242389068
11317,16,Jits_ISO_5,2,9999,9999,9999,2242888812
11317,16,Jits_ISO_5,3,9999,9999,9999,2243388472
11317,16,Jits_ISO_5,4,9999,9999,9999,2243888228
11317,16,Jits_ISO_5,5,9999,9999,9999,2244388936
11317,16,Jits_ISO_5,6,9999,9999,9999,2244888672
11317,16,Jits_ISO_5,7,9999,9999,9999,2245388344
11317,16,Jits_ISO_5,8,9999,9999,9999,2245888068
11317,16,Jits_ISO_5,9,9999,9999,9999,2246388788
11317,16,Jits_ISO_5,10,9999,9999,9999,2246888536
11317,16,Jits_ISO_5,11,9999,9999,9999,2247388212
11317,16,Jits_ISO_5,12,9999,9999,9999,2247888984
11317,16,Jits_ISO_5,13,9999,9999,9999,2248388720
11317,16,Jits_ISO_5,14,9999,9999,9999,2248888376
11317,16,Jits_ISO_5,15,9999,9999,9999,2249388124
11317,16,Jits_ISO_5,16,9999,9999,9999,2249888844
11317,16,Jits_ISO_5,17,9999,9999,9999,2250388576
11317,16,Jits_ISO_5,18,9999,9999,9999,2250888252
11317,16,Jits_ISO_5,19,9999,9999,9999,2251389048
11317,16,Jits_ISO_5,20,9999,9999,9999,2251888720
11317,16,Jits_ISO_5,21,9999,9999,9999,2252388432
11317,16,Jits_ISO_5,22,9999,9999,9999,2252888176
11317,16,Jits_ISO_5,23,9999,9999,9999,2253388900
11317,16,Jits_ISO_5,24,9999,9999,9999,2253888576
11317,16,Jits_ISO_5,25,9999,9999,9999,2254388292
11317,16,Jits_ISO_5,26,9999,9999,9999,2254889068
11317,16,Jits_ISO_5,27,9999,9999,9999,2255388788
11317,16,Jits_ISO_5,28,9999,9999,9999,2255888464
11317,16,Jits_ISO_5,29,9999,9999,9999,2256388196
11317,16,Jits_ISO_5,30,9999,9999,9999,2256888912
11317,16,Jits_ISO_5,31,9999,9999,9999,2257388660
11317,16,Jits_ISO_5,32,9999,9999,9999,2257888332
11317,16,Jits_ISO_5,33,9999,9999,9999,2258389052
11317,16,Jits_ISO_5,34,9999,9999,9999,2258888796
11317,16,Jits_ISO_5,35,9999,9999,9999,2259388472
11317,16,Jits_ISO_5,36,9999,9999,9999,2259888196
11317,16,Jits_ISO_5,37,9999,9999,9999,2260388976
11317,16,Jits_ISO_5,38,9999,9999,9999,2260888652
11317,16,Jits_ISO_5,39,9999,9999,9999,2261388388
11317,16,Jits_ISO_5,40,9999,9999,9999,2261888120
11317,16,Jits_ISO_5,41,9999,9999,9999,2262388836
11317,16,Jits_ISO_5,42,9999,9999,9999,2262888512
11317,16,Jits_ISO_5,43,9999,9999,9999,2263388244
11317,16,Jits_ISO_5,44,9999,9999,9999,2263888948
11317,16,Jits_ISO_5,45,9999,9999,9999,2264388692
11317,16,Jits_ISO_5,46,9999,9999,9999,2264888400
11317,16,Jits_ISO_5,47,9999,9999,9999,2265388136
11317,16,Jits_ISO_5,48,9999,9999,9999,2265888840
11317,16,Jits_ISO_5,49,9999,9999,9999,2266388588
11317,16,Jits_ISO_5,50,9999,9999,9999,2266888312
11317,16,Jits_ISO_5,51,9999,9999,9999,2267389008
11317,16,Jits_ISO_5,52,9999,9999,9999,2267888756
11317,16,Jits_ISO_5,53,9999,9999,9999,2268388436
11317,16,Jits_ISO_5,54,9999,9999,9999,2268888168
11317,16,Jits_ISO_5,55,9999,9999,9999,2269388892
11317,16,Jits_ISO_5,56,9999,9999,9999,2269888564
11317,16,Jits_ISO_5,57,9999,9999,9999,2270388304
11317,16,Jits_ISO_5,58,9999,9999,9999,2270889080
11317,16,Jits_ISO_5,59,9999,9999,9999,2271388740
11317,16,Jits_ISO_5,60,9999,9999,9999,2271888492
11317,16,Jits_ISO_5,61,9999,9999,9999,2272388148
11317,16,Jits_ISO_5,62,9999,9999,9999,2272888940
11317,16,Jits_ISO_5,63,9999,9999,9999,2273388612
11317,16,Jits_ISO_5,64,9999,9999,9999,2273888352
11317,16,Jits_ISO_5,65,9999,9999,9999,2274389064
11317,16,Jits_ISO_5,66,9999,9999,9999,2274888816
11317,16,Jits_ISO_5,67,9999,9999,9999,2275388480
11317,16,Jits_ISO_5,68,9999,9999,9999,2275888204
11317,16,Jits_ISO_5,69,9999,9999,9999,2276388980
11317,16,Jits_ISO_5,70,9999,9999,9999,2276888628
11317,16,Jits_ISO_5,71,9999,9999,9999,2277388376
11317,16,Jits_ISO_5,72,9999,9999,9999,2277888112
11317,16,Jits_ISO_5,73,9999,9999,9999,2278388820
11317,16,Jits_ISO_5,74,9999,9999,9999,2278888568
11317,16,Jits_ISO_5,75,9999,9999,9999,2279388224
11317,16,Jits_ISO_5,76,9999,9999,9999,2279888952
11317,16,Jits_ISO_5,77,9999,9999,9999,2280388688
11317,16,Jits_ISO_5,78,9999,9999,9999,2280888436
11317,16,Jits_ISO_5,79,9999,9999,9999,2281388112
11317,16,Jits_ISO_5,80,9999,9999,9999,2281888820
11317,16,Jits_ISO_5,81,9999,9999,9999,2282388552
11317,16,Jits_ISO_5,82,9999,9999,9999,2282888296
11317,16,Jits_ISO_5,83,9999,9999,9999,2283389004
11317,16,Jits_ISO_5,84,9999,9999,9999,2283888756
11317,16,Jits_ISO_5,85,9999,9999,9999,2284388412
11317,16,Jits_ISO_5,86,9999,9999,9999,2284888144
11317,16,Jits_ISO_5,87,9999,9999,9999,2285388864
11317,16,Jits_ISO_5,88,9999,9999,9999,2285888608
11317,16,Jits_ISO_5,89,9999,9999,9999,2286388332
11317,16,Jits_ISO_5,90,9999,9999,9999,2286889044
11317,16,Jits_ISO_5,91,9999,9999,9999,2287388788
11317,16,Jits_ISO_5,92,9999,9999,9999,2287888452
11317,16,Jits_ISO_5,93,9999,9999,9999,2288388188
11317,16,Jits_ISO_5,94,9999,9999,9999,2288888892
11317,16,Jits_ISO_5,95,9999,9999,9999,2289388640
11317,16,Jits_ISO_5,96,9999,9999,9999,2289888316
11317,16,Jits_ISO_5,97,9999,9999,9999,2290389092
11317,16,Jits_ISO_5,98,9999,9999,9999,2290888756
11317,16,Jits_ISO_5,99,9999,9999,9999,2291388504
11317,16,Jits_ISO_5,100,9999,9999,9999,2291888240
11317,16,Jits_ISO_5,101,9999,9999,9999,2292388960
11317,16,Jits_ISO_5,102,9999,9999,9999,2292888624
11317,16,Jits_ISO_5,103,9999,9999,9999,2293388380
11317,16,Jits_ISO_5,104,9999,9999,9999,2293888116
11317,16,Jits_ISO_5,105,9999,9999,9999,2294388816
11317,16,Jits_ISO_5,106,9999,9999,9999,2294888552
11317,16,Jits_ISO_5,107,9999,9999,9999,2295388280
11317,16,Jits_ISO_5,108,9999,9999,9999,2295888996
11317,16,Jits_ISO_5,109,9999,9999,9999,2296388728
11317,16,Jits_ISO_5,110,9999,9999,9999,2296888404
11317,16,Jits_ISO_5,111,9999,9999,9999,2297388124
11317,16,Jits_ISO_5,112,9999,9999,9999,2297888844
11317,16,Jits_ISO_5,113,9999,9999,9999,2298388592
11317,16,Jits_ISO_5,114,9999,9999,9999,2298888248
11317,16,Jits_ISO_5,115,9999,9999,9999,2299388996
11317,16,Jits_ISO_5,116,9999,9999,9999,2299888728
11317,16,Jits_ISO_5,117,9999,9999,9999,2300388476
11317,16,Jits_ISO_5,118,9999,9999,9999,2300888152
11317,16,Jits_ISO_5,119,9999,9999,9999,2301388924
11318,18,Jits_Linear_8,0,5,56,103,2311161332
11318,18,Jits_Linear_8,1,5,63,98,2311164352
11318,18,Jits_Linear_8,2,5,80,127,2311167696
11318,18,Jits_Linear_8,0,5,56,103,2311981492
11318,18,Jits_Linear_8,1,5,63,98,2311984592
11318,18,Jits_Linear_8,2,5,80,127,2311987784
11318,18,Jits_Linear_8,0,5,80,127,2312741136
11318,18,Jits_Linear_8,1,5,63,98,2312831520
11318,18,Jits_Linear_8,2,5,56,103,2312840668
11318,18,Jits_Linear_8,0,5,56,103,2313581044
11318,18,Jits_Linear_8,1,5,63,98,2313591092
11318,18,Jits_Linear_8,2,5,80,127,2313681224
11318,18,Jits_Linear_8,0,5,63,98,2314370804
11318,18,Jits_Linear_8,1,5,80,127,2314401080
11318,18,Jits_Linear_8,2,1,48,60,2314426892
11318,18,Jits_Linear_8,3,5,56,103,2314430824
11318,18,Jits_Linear_8,0,1,48,81,2315167364
11318,18,Jits_Linear_8,1,5,56,103,2315190628
11318,18,Jits_Linear_8,2,5,80,127,2315290940
11318,18,Jits_Linear_8,3,5,63,98,2315341240
11318,18,Jits_Linear_8,0,5,56,103,2316000728
11318,18,Jits_Linear_8,1,5,80,127,2316050708
11318,18,Jits_Linear_8,2,5,63,98,2316090752
11318,18,Jits_Linear_8,3,1,48,73,2316117608
11318,18,Jits_Linear_8,0,5,80,127,2316841628
11318,18,Jits_Linear_8,1,5,63,98,2316870960
11318,18,Jits_Linear_8,2,1,48,86,2316873780
11318,18,Jits_Linear_8,3,5,56,103,2316940780
11318,18,Jits_Linear_8,0,5,63,98,2317681136
11318,18,Jits_Linear_8,1,5,56,103,2317710664
11318,18,Jits_Linear_8,2,1,48,65,2317717520
11318,18,Jits_Linear_8,3,5,80,127,2317771196
11318,18,Jits_Linear_8,0,5,56,103,2318430616
11318,18,Jits_Linear_8,1,5,80,127,2318433756
11318,18,Jits_Linear_8,2,1,48,67,2318545284
11318,18,Jits_Linear_8,3,5,63,98,2318551532
11318,18,Jits_Linear_8,0,5,56,103,2319311360
11318,18,Jits_Linear_8,1,1,48,62,2319348484
11318,18,Jits_Linear_8,2,5,80,127,2319351144
11318,18,Jits_Linear_8,3,5,63,98,2319361340
11318,18,Jits_Linear_8,0,5,56,103,2320070980
11318,18,Jits_Linear_8,1,5,80,127,2320090616
11318,18,Jits_Linear_8,2,1,48,62,2320158228
11318,18,Jits_Linear_8,3,5,63,98,2320171452
11318,18,Jits_Linear_8,0,5,80,127,2320860484
11318,18,Jits_Linear_8,1,1,48,62,2320954204
11318,18,Jits_Linear_8,2,5,56,103,2320960828
11318,18,Jits_Linear_8,3,5,63,98,2320971396
11318,18,Jits_Linear_8,0,5,63,98,2321630512
11318,18,Jits_Linear_8,1,5,80,127,2321691052
11318,18,Jits_Linear_8,2,5,56,103,2321701396
11318,18,Jits_Linear_8,3,1,48,64,2321770320
11318,18,Jits_Linear_8,0,5,56,103,2322431456
11318,18,Jits_Linear_8,1,5,63,98,2322500940
11318,18,Jits_Linear_8,2,5,80,127,2322504376
11318,18,Jits_Linear_8,3,1,48,60,2322586232
11318,18,Jits_Linear_8,0,5,63,98,2323260688
11318,18,Jits_Linear_8,1,5,56,103,2323311040
11318,18,Jits_Linear_8,2,5,80,127,2323313956
11318,18,Jits_Linear_8,3,1,48,61,2323363976
11318,18,Jits_Linear_8,0,5,56,103,2324011400
11318,18,Jits_Linear_8,1,5,80,127,2324014244
11318,18,Jits_Linear_8,2,5,63,98,2324100512
11318,18,Jits_Linear_8,3,1,48,57,2324137560
11318,18,Jits_Linear_8,0,5,63,98,2324840928
11318,18,Jits_Linear_8,1,1,48,57,2324896116
11318,18,Jits_Linear_8,2,1,38,19,2324909520
11318,18,Jits_Linear_8,3,5,56,103,2324930896
11318,18,Jits_Linear_8,4,5,80,127,2324960496
11318,18,Jits_Linear_8,0,5,56,103,2325621156
11318,18,Jits_Linear_8,1,1,48,64,2325665932
11318,18,Jits_Linear_8,2,5,63,98,2325720508
11318,18,Jits_Linear_8,3,5,80,127,2325751228
11318,18,Jits_Linear_8,0,5,63,98,2326431124
11318,18,Jits_Linear_8,1,5,56,103,2326441320
11318,18,Jits_Linear_8,2,1,48,62,2326479804
11318,18,Jits_Linear_8,3,5,80,127,2326530400
11318,18,Jits_Linear_8,0,5,63,98,2327241296
11318,18,Jits_Linear_8,1,1,48,70,2327265912
11318,18,Jits_Linear_8,2,5,56,103,2327321084
11318,18,Jits_Linear_8,3,5,80,127,2327324152
11318,18,Jits_Linear_8,0,5,80,127,2327981484
11318,18,Jits_Linear_8,1,5,63,98,2328000896
11318,18,Jits_Linear_8,2,5,56,103,2328061284
11318,18,Jits_Linear_8,3,1,48,63,2328098408
11318,18,Jits_Linear_8,0,5,56,103,2328800660
11318,18,Jits_Linear_8,1,5,63,98,2328821192
11318,18,Jits_Linear_8,2,5,80,127,2328824404
11318,18,Jits_Linear_8,3,1,48,60,2328872484
11318,18,Jits_Linear_8,0,5,63,98,2329520472
11318,18,Jits_Linear_8,1,5,80,127,2329601540
11318,18,Jits_Linear_8,2,5,56,103,2329610692
11318,18,Jits_Linear_8,3,1,48,64,2329613884
11318,18,Jits_Linear_8,0,5,63,98,2330321200
11318,18,Jits_Linear_8,1,5,56,103,2330340688
11318,18,Jits_Linear_8,2,1,48,67,2330359768
11318,18,Jits_Linear_8,3,5,80,127,2330391032
11318,18,Jits_Linear_8,0,5,80,127,2331100428
11318,18,Jits_Linear_8,1,1,48,61,2331101764
11318,18,Jits_Linear_8,2,5,63,98,2331140436
11318,18,Jits_Linear_8,3,5,56,103,2331160968
11318,18,Jits_Linear_8,0,1,48,67,2331892896
11318,18,Jits_Linear_8,1,5,56,103,2331910456
11318,18,Jits_Linear_8,2,5,63,98,2331920724
11318,18,Jits_Linear_8,3,5,80,127,2331941260
11318,18,Jits_Linear_8,0,5,56,103,2332610796
11318,18,Jits_Linear_8,1,1,48,69,2332642388
11318,18,Jits_Linear_8,2,5,63,98,2332701076
11318,18,Jits_Linear_8,3,5,80,127,2332760504
11318,18,Jits_Linear_8,0,5,80,127,2333410796
11318,18,Jits_Linear_8,1,5,56,103,2333420916
11318,18,Jits_Linear_8,2,1,48,70,2333487408
11318,18,Jits_Linear_8,3,5,63,98,2333490664
11318,18,Jits_Linear_8,0,5,63,98,2334210492
11318,18,Jits_Linear_8,1,1,48,59,2334223344
11318,18,Jits_Linear_8,2,5,80,127,2334300420
11318,18,Jits_Linear_8,3,5,56,103,2334310916
11318,18,Jits_Linear_8,0,5,63,98,2334910904
11318,18,Jits_Linear_8,1,5,80,127,2334961108
11318,18,Jits_Linear_8,2,5,56,103,2335021572
11318,18,Jits_Linear_8,3,1,48,67,2335063372
11318,18,Jits_Linear_8,0,5,56,103,2335701292
11318,18,Jits_Linear_8,1,5,80,127,2335750376
11318,18,Jits_Linear_8,2,5,63,98,2335771204
11318,18,Jits_Linear_8,3,1,48,62,2335812712
11318,18,Jits_Linear_8,0,5,56,103,2336430560
11318,18,Jits_Linear_8,1,5,80,127,2336490728
11318,18,Jits_Linear_8,2,1,48,62,2336550560
11318,18,Jits_Linear_8,3,5,63,98,2336560624
11318,18,Jits_Linear_8,0,5,56,103,2337191292
11318,18,Jits_Linear_8,1,5,80,127,2337221044
11318,18,Jits_Linear_8,2,5,63,98,2337250644
11318,18,Jits_Linear_8,3,1,48,69,2337296760
11318,18,Jits_Linear_8,0,5,56,103,2337991280
11318,18,Jits_Linear_8,1,1,48,81,2338002720
11318,18,Jits_Linear_8,2,5,80,127,2338010612
11318,18,Jits_Linear_8,3,5,63,98,2338071004
11318,18,Jits_Linear_8,0,1,48,59,2338716992
11318,18,Jits_Linear_8,1,5,80,127,2338830824
11318,18,Jits_Linear_8,2,5,56,103,2338841092
11318,18,Jits_Linear_8,3,5,63,98,2338851288
11318,18,Jits_Linear_8,0,5,56,103,2339541300
11318,18,Jits_Linear_8,1,5,80,127,2339581168
11318,18,Jits_Linear_8,2,1,48,72,2339596344
11318,18,Jits_Linear_8,3,5,63,98,2339611280
11318,18,Jits_Linear_8,0,5,56,103,2340261140
11318,18,Jits_Linear_8,1,5,63,98,2340290964
11318,18,Jits_Linear_8,2,1,48,51,2340329996
11318,18,Jits_Linear_8,3,5,80,127,2340331340
11318,18,Jits_Linear_8,0,5,80,127,2340960656
11318,18,Jits_Linear_8,1,5,63,98,2341010932
11318,18,Jits_Linear_8,2,5,56,103,2341031244
11318,18,Jits_Linear_8,3,1,48,83,2341052044
11318,18,Jits_Linear_8,0,5,56,103,2341741240
11318,18,Jits_Linear_8,1,1,48,77,2341763616
11318,18,Jits_Linear_8,2,5,80,127,2341810620
11318,18,Jits_Linear_8,3,5,63,98,2341871144
11318,18,Jits_Linear_8,0,5,80,127,2342481304
11318,18,Jits_Linear_8,1,1,48,77,2342498740
11318,18,Jits_Linear_8,2,5,63,98,2342571508
11318,18,Jits_Linear_8,3,5,56,103,2342590920
11318,18,Jits_Linear_8,0,5,63,98,2343241220
11318,18,Jits_Linear_8,1,5,56,103,2343260412
11318,18,Jits_Linear_8,2,1,48,93,2343289232
11318,18,Jits_Linear_8,3,5,80,127,2343300416
11318,18,Jits_Linear_8,0,5,80,127,2343940408
11318,18,Jits_Linear_8,1,5,63,98,2343961088
11318,18,Jits_Linear_8,2,1,48,82,2343967948
11318,18,Jits_Linear_8,3,5,56,103,2344040828
11318,18,Jits_Linear_8,0,5,63,98,2344670572
11318,18,Jits_Linear_8,1,1,48,70,2344717956
11318,18,Jits_Linear_8,2,5,56,103,2344781176
11318,18,Jits_Linear_8,3,5,80,127,2344784164
11318,18,Jits_Linear_8,0,5,63,98,2345431432
11318,18,Jits_Linear_8,1,5,56,103,2345440728
11318,18,Jits_Linear_8,2,5,80,127,2345443940
11318,18,Jits_Linear_8,3,1,48,60,2345485792
11318,18,Jits_Linear_8,0,5,56,103,2346151376
11318,18,Jits_Linear_8,1,1,48,55,2346178312
11318,18,Jits_Linear_8,2,5,80,127,2346271176
11318,18,Jits_Linear_8,3,5,63,98,2346311200
11318,18,Jits_Linear_8,0,5,56,103,2346900884
11318,18,Jits_Linear_8,1,5,80,127,2346980832
11318,18,Jits_Linear_8,2,5,63,98,2347001144
11318,18,Jits_Linear_8,3,1,48,56,2347045832
11318,18,Jits_Linear_8,0,5,56,103,2347631128
11318,18,Jits_Linear_8,1,5,63,98,2347740520
11318,18,Jits_Linear_8,2,5,80,127,2347743736
11318,18,Jits_Linear_8,3,1,48,64,2347761700
11318,18,Jits_Linear_8,0,5,56,103,2348390960
11318,18,Jits_Linear_8,1,5,80,127,2348420416
11318,18,Jits_Linear_8,2,5,63,98,2348441096
11318,18,Jits_Linear_8,3,1,48,52,2348462720
11318,18,Jits_Linear_8,0,5,63,98,2349101476
11318,18,Jits_Linear_8,1,5,56,103,2349110804
11318,18,Jits_Linear_8,2,5,80,127,2349121000
11318,18,Jits_Linear_8,3,1,48,59,2349158120
11318,18,Jits_Linear_8,0,1,48,72,2349811100
11318,18,Jits_Linear_8,1,5,80,127,2349812512
11318,18,Jits_Linear_8,2,5,56,103,2349861296
11318,18,Jits_Linear_8,3,5,63,98,2349901036
11318,18,Jits_Linear_8,0,5,80,127,2350551448
11318,18,Jits_Linear_8,1,1,48,59,2350558844
11318,18,Jits_Linear_8,2,5,63,98,2350571004
11318,18,Jits_Linear_8,3,5,56,103,2350620980
11318,18,Jits_Linear_8,0,5,80,127,2351280644
11318,18,Jits_Linear_8,1,1,48,57,2351296940
11318,18,Jits_Linear_8,2,5,56,103,2351311212
11318,18,Jits_Linear_8,3,5,63,98,2351381112
11318,18,Jits_Linear_8,0,1,48,59,2352047332
11318,18,Jits_Linear_8,1,5,56,103,2352050516
11318,18,Jits_Linear_8,2,5,80,127,2352060936
11318,18,Jits_Linear_8,3,5,63,98,2352100728
11318,18,Jits_Linear_8,0,5,56,103,2352681460
11318,18,Jits_Linear_8,1,5,63,98,2352701048
11318,18,Jits_Linear_8,2,1,48,56,2352763576
11318,18,Jits_Linear_8,3,5,80,127,2352770348
11318,18,Jits_Linear_8,0,1,48,54,2353388900
11318,18,Jits_Linear_8,1,5,63,98,2353420760
11318,18,Jits_Linear_8,2,5,80,127,2353481460
11318,18,Jits_Linear_8,3,5,56,103,2353500648
11318,18,Jits_Linear_8,0,5,80,127,2354121180
11318,18,Jits_Linear_8,1,1,48,55,2354123192
11318,18,Jits_Linear_8,2,5,56,103,2354151148
11318,18,Jits_Linear_8,3,5,63,98,2354180600
11318,18,Jits_Linear_8,0,1,48,53,2354828696
11318,18,Jits_Linear_8,1,5,56,103,2354830884
11318,18,Jits_Linear_8,2,5,63,98,2354891056
11318,18,Jits_Linear_8,3,5,80,127,2354950608
11318,18,Jits_Linear_8,0,5,80,127,2355560900
11318,18,Jits_Linear_8,1,5,56,103,2355581360
11318,18,Jits_Linear_8,2,1,48,56,2355594668
11318,18,Jits_Linear_8,3,5,63,98,2355651036
11318,18,Jits_Linear_8,0,5,80,127,2356270520
11318,18,Jits_Linear_8,1,5,63,98,2356290784
11318,18,Jits_Linear_8,2,5,56,103,2356320828
11318,18,Jits_Linear_8,3,1,48,64,2356328284
11318,18,Jits_Linear_8,0,5,80,127,2356961052
11318,18,Jits_Linear_8,1,1,48,60,2356968604
11318,18,Jits_Linear_8,2,5,63,98,2356981056
11318,18,Jits_Linear_8,3,5,56,103,2357040624
11318,18,Jits_Linear_8,0,1,48,52,2357658904
11318,18,Jits_Linear_8,1,5,80,127,2357660944
11318,18,Jits_Linear_8,2,5,56,103,2357761480
11318,18,Jits_Linear_8,3,5,63,98,2357791008
11318,18,Jits_Linear_8,0,5,63,98,2358360540
11318,18,Jits_Linear_8,1,5,80,127,2358410668
11318,18,Jits_Linear_8,2,5,56,103,2358430976
11318,18,Jits_Linear_8,3,1,48,38,2358431944
11318,18,Jits_Linear_8,0,1,48,41,2359085608
11318,18,Jits_Linear_8,1,5,80,127,2359100876
11318,18,Jits_Linear_8,2,5,56,103,2359130396
11318,18,Jits_Linear_8,3,5,63,98,2359133692
11318,18,Jits_Linear_8,0,5,63,98,2359831008
11318,18,Jits_Linear_8,1,1,48,38,2359834052
11318,18,Jits_Linear_8,2,5,56,103,2359870744
11318,18,Jits_Linear_8,3,5,80,127,2359891276
11318,18,Jits_Linear_8,0,5,80,127,2360470892
11318,18,Jits_Linear_8,1,1,48,42,2360539720
11318,18,Jits_Linear_8,2,5,63,98,2360550832
11318,18,Jits_Linear_8,3,5,56,103,2360590920
11318,18,Jits_Linear_8,0,5,63,98,2361180616
11318,18,Jits_Linear_8,1,1,48,48,2361241276
11318,18,Jits_Linear_8,2,5,80,127,2361261600
11318,18,Jits_Linear_8,3,5,56,103,2361280864
11318,18,Jits_Linear_8,0,5,56,103,2361910848
11318,18,Jits_Linear_8,1,5,63,98,2361920824
11318,18,Jits_Linear_8,2,1,48,52,2361933456
11318,18,Jits_Linear_8,3,5,80,127,2361960904
11318,18,Jits_Linear_8,0,5,56,103,2362521048
11318,18,Jits_Linear_8,1,5,80,127,2362524112
11318,18,Jits_Linear_8,2,1,48,45,2362589204
11318,18,Jits_Linear_8,3,5,63,98,2362661292
11318,18,Jits_Linear_8,0,5,56,103,2363200780
11318,18,Jits_Linear_8,1,5,63,98,2363290992
11318,18,Jits_Linear_8,2,1,48,28,2363295160
11318,18,Jits_Linear_8,3,5,80,127,2363360668
11318,18,Jits_Linear_8,0,5,63,98,2363960920
11318,18,Jits_Linear_8,1,5,80,127,2363964208
11318,18,Jits_Linear_8,2,1,48,39,2363972580
11318,18,Jits_Linear_8,3,5,56,103,2364021004
11318,18,Jits_Linear_8,0,5,80,127,2364680712
11318,18,Jits_Linear_8,1,1,48,32,2364691400
11318,18,Jits_Linear_8,2,5,56,103,2364700944
11318,18,Jits_Linear_8,3,5,63,98,2364711216
11318,18,Jits_Linear_8,0,5,56,103,2365271528
11318,18,Jits_Linear_8,1,5,63,98,2365280828
11318,18,Jits_Linear_8,2,5,80,127,2365351404
11318,18,Jits_Linear_8,3,1,48,52,2365383744
11318,18,Jits_Linear_8,0,5,80,127,2365951252
11318,18,Jits_Linear_8,1,5,56,103,2366000704
11318,18,Jits_Linear_8,2,5,63,98,2366050560
11318,18,Jits_Linear_8,3,1,48,20,2366065284
11318,18,Jits_Linear_8,4,1,48,37,2366069844
11318,18,Jits_Linear_8,0,5,56,103,2366711368
11318,18,Jits_Linear_8,1,5,63,98,2366721492
11318,18,Jits_Linear_8,2,5,80,127,2366761280
11318,18,Jits_Linear_8,0,5,56,103,2367330620
11318,18,Jits_Linear_8,1,5,63,98,2367370564
11318,18,Jits_Linear_8,2,1,48,51,2367389868
11318,18,Jits_Linear_8,3,5,80,127,2367420756
11318,18,Jits_Linear_8,0,5,80,127,2367970784
11318,18,Jits_Linear_8,1,5,56,103,2368020840
11318,18,Jits_Linear_8,2,5,63,98,2368041224
11318,18,Jits_Linear_8,3,1,48,62,2368048920
11318,18,Jits_Linear_8,0,5,80,127,2368650536
11318,18,Jits_Linear_8,1,1,48,58,2368710400
11318,18,Jits_Linear_8,2,5,63,98,2368711896
11318,18,Jits_Linear_8,3,5,56,103,2368790868
11318,18,Jits_Linear_8,0,5,80,127,2369300964
11318,18,Jits_Linear_8,1,5,56,103,2369340856
11318,18,Jits_Linear_8,2,5,63,98,2369361164
11318,18,Jits_Linear_8,3,1,48,79,2369434620
11318,18,Jits_Linear_8,0,5,56,103,2370020788
11318,18,Jits_Linear_8,1,5,80,127,2370031060
11318,18,Jits_Linear_8,2,5,63,98,2370070852
11318,18,Jits_Linear_8,3,1,48,54,2370088792
11318,18,Jits_Linear_8,0,1,48,40,2370749608
11318,18,Jits_Linear_8,1,5,56,103,2370750960
11318,18,Jits_Linear_8,2,5,63,98,2370790748
11318,18,Jits_Linear_8,3,5,80,127,2370794036
11318,18,Jits_Linear_8,0,5,63,98,2371300832
11318,18,Jits_Linear_8,1,5,80,127,2371340624
11318,18,Jits_Linear_8,2,5,56,103,2371411376
11318,18,Jits_Linear_8,3,1,48,69,2371422812
11318,18,Jits_Linear_8,0,5,63,98,2371950968
11318,18,Jits_Linear_8,1,5,56,103,2372030768
11318,18,Jits_Linear_8,2,1,48,69,2372065652
11318,18,Jits_Linear_8,3,5,80,127,2372091152
11318,18,Jits_Linear_8,0,5,80,127,2372620644
11318,18,Jits_Linear_8,1,5,63,98,2372670800
11318,18,Jits_Linear_8,2,5,56,103,2372700624
11318,18,Jits_Linear_8,3,1,48,58,2372707928
11318,18,Jits_Linear_8,0,5,56,103,2373270944
11318,18,Jits_Linear_8,1,5,63,98,2373321000
11318,18,Jits_Linear_8,2,1,48,56,2373330888
11318,18,Jits_Linear_8,3,5,80,127,2373332456
11318,18,Jits_Linear_8,0,5,56,103,2373940940
11318,18,Jits_Linear_8,1,1,48,52,2373953276
11318,18,Jits_Linear_8,2,5,63,98,2374051136
11318,18,Jits_Linear_8,3,5,80,127,2374070696
11318,18,Jits_Linear_8,0,5,63,98,2374590776
11318,18,Jits_Linear_8,1,1,48,38,2374602288
11318,18,Jits_Linear_8,2,5,80,127,2374640976
11318,18,Jits_Linear_8,3,5,56,103,2374731264
11318,18,Jits_Linear_8,0,5,63,98,2375230728
11318,18,Jits_Linear_8,1,5,80,127,2375260408
11318,18,Jits_Linear_8,2,1,48,63,2375332152
11318,18,Jits_Linear_8,3,5,56,103,2375350756
11318,18,Jits_Linear_8,0,5,63,98,2375881140
11318,18,Jits_Linear_8,1,5,56,103,2375891484
11318,18,Jits_Linear_8,2,5,80,127,2375990636
11318,18,Jits_Linear_8,3,1,48,60,2375991900
11318,18,Jits_Linear_8,0,5,63,98,2376630704
11318,18,Jits_Linear_8,1,5,80,127,2376661648
11318,18,Jits_Linear_8,2,1,48,56,2376674732
11318,18,Jits_Linear_8,3,5,56,103,2376691096
11318,18,Jits_Linear_8,0,5,80,127,2377291264
11318,18,Jits_Linear_8,1,5,63,98,2377301536
11318,18,Jits_Linear_8,2,1,48,58,2377327272
11318,18,Jits_Linear_8,3,5,56,103,2377331204
11318,18,Jits_Linear_8,0,5,80,127,2377830744
11318,18,Jits_Linear_8,1,5,63,98,2377851428
11318,18,Jits_Linear_8,2,5,56,103,2377901700
11318,18,Jits_Linear_8,3,1,48,72,2377963032
11318,18,Jits_Linear_8,0,5,63,98,2378500648
11318,18,Jits_Linear_8,1,5,80,127,2378560768
11318,18,Jits_Linear_8,2,5,56,103,2378581600
11318,18,Jits_Linear_8,3,1,48,52,2378630648
11318,18,Jits_Linear_8,0,5,63,98,2379100592
11318,18,Jits_Linear_8,1,5,56,103,2379150648
11318,18,Jits_Linear_8,2,5,80,127,2379160992
11318,18,Jits_Linear_8,3,1,48,78,2379254456
11318,18,Jits_Linear_8,0,5,56,103,2379771532
11318,18,Jits_Linear_8,1,5,80,127,2379780460
11318,18,Jits_Linear_8,2,5,63,98,2379880804
11318,18,Jits_Linear_8,3,1,48,74,2379918764
11318,18,Jits_Linear_8,0,5,80,127,2380371492
11318,18,Jits_Linear_8,1,5,63,98,2380380568
11318,18,Jits_Linear_8,2,5,56,103,2380531004
11318,18,Jits_Linear_8,3,1,48,73,2380543712
11318,18,Jits_Linear_8,0,5,63,98,2381011504
11318,18,Jits_Linear_8,1,5,80,127,2381051444
11318,18,Jits_Linear_8,2,1,48,65,2381116468
11318,18,Jits_Linear_8,3,5,56,103,2381131332
11318,18,Jits_Linear_8,0,5,56,103,2381630776
11318,18,Jits_Linear_8,1,1,48,58,2381705816
11318,18,Jits_Linear_8,2,5,80,127,2381731392
11318,18,Jits_Linear_8,3,5,63,98,2381750584
11318,18,Jits_Linear_8,0,1,48,66,2382317728
11318,18,Jits_Linear_8,1,5,80,127,2382321208
11318,18,Jits_Linear_8,2,5,56,103,2382331480
11318,18,Jits_Linear_8,3,5,63,98,2382421396
11318,18,Jits_Linear_8,0,1,48,65,2382947116
11318,18,Jits_Linear_8,1,5,56,103,2382950752
11318,18,Jits_Linear_8,2,5,63,98,2382971436
11318,18,Jits_Linear_8,3,5,80,127,2383051068
11318,18,Jits_Linear_8,0,5,63,98,2383521388
11318,18,Jits_Linear_8,1,1,48,68,2383609164
11318,18,Jits_Linear_8,2,5,56,103,2383611216
11318,18,Jits_Linear_8,3,5,80,127,2383614356
11318,18,Jits_Linear_8,0,5,56,103,2384171348
11318,18,Jits_Linear_8,1,5,80,127,2384230792
11318,18,Jits_Linear_8,2,1,48,63,2384237348
11318,18,Jits_Linear_8,3,5,63,98,2384240980
11318,18,Jits_Linear_8,0,5,80,127,2384841356
11318,18,Jits_Linear_8,1,1,48,63,2384842324
11318,18,Jits_Linear_8,2,5,56,103,2384851472
11318,18,Jits_Linear_8,3,5,63,98,2384854536
11318,18,Jits_Linear_8,0,5,56,103,2385420760
11318,18,Jits_Linear_8,1,5,80,127,2385430956
11318,18,Jits_Linear_8,2,5,63,98,2385451268
11318,18,Jits_Linear_8,3,1,48,63,2385474408
11318,18,Jits_Linear_8,0,5,63,98,2386010456
11318,18,Jits_Linear_8,1,1,48,63,2386051116
11318,18,Jits_Linear_8,2,5,80,127,2386070840
11318,18,Jits_Linear_8,3,5,56,103,2386121188
11318,18,Jits_Linear_8,0,1,48,63,2386672752
11318,18,Jits_Linear_8,1,5,63,98,2386710912
11318,18,Jits_Linear_8,2,5,56,103,2386721332
11318,18,Jits_Linear_8,3,5,80,127,2386771468
11318,18,Jits_Linear_8,0,5,63,98,2387220708
11318,18,Jits_Linear_8,1,5,80,127,2387241240
11318,18,Jits_Linear_8,2,5,56,103,2387250540
11318,18,Jits_Linear_8,3,1,48,57,2387327688
11318,18,Jits_Linear_8,0,5,63,98,2387831424
11318,18,Jits_Linear_8,1,5,80,127,2387834640
11318,18,Jits_Linear_8,2,5,56,103,2387871216
11318,18,Jits_Linear_8,3,1,48,59,2387908880
11318,18,Jits_Linear_8,0,1,48,54,2388463140
11318,18,Jits_Linear_8,1,5,63,98,2388511268
11318,18,Jits_Linear_8,2,5,80,127,2388540896
11318,18,Jits_Linear_8,3,5,56,103,2388551312
11318,18,Jits_Linear_8,0,5,56,103,2389071364
11318,18,Jits_Linear_8,1,5,80,127,2389101040
11318,18,Jits_Linear_8,2,5,63,98,2389130644
11318,18,Jits_Linear_8,3,1,48,56,2389165072
11318,18,Jits_Linear_8,0,1,48,52,2389757344
11318,18,Jits_Linear_8,1,5,63,98,2389770640
11318,18,Jits_Linear_8,2,5,56,103,2389810652
11318,18,Jits_Linear_8,3,5,80,127,2389813744
11318,18,Jits_Linear_8,0,5,80,127,2390271444
11318,18,Jits_Linear_8,1,5,56,103,2390351416
11318,18,Jits_Linear_8,2,5,63,98,2390401396
11318,18,Jits_Linear_8,3,1,48,65,2390412980
11318,18,Jits_Linear_8,0,5,80,127,2390851032
11318,18,Jits_Linear_8,1,5,56,103,2390871344
11318,18,Jits_Linear_8,2,5,63,98,2390960356
11318,18,Jits_Linear_8,3,1,48,73,2391005272
11318,18,Jits_Linear_8,0,5,80,127,2391491120
11318,18,Jits_Linear_8,1,5,63,98,2391530988
11318,18,Jits_Linear_8,2,5,56,103,2391570924
11318,18,Jits_Linear_8,3,1,48,69,2391595764
11318,18,Jits_Linear_8,0,5,63,98,2392061236
11318,18,Jits_Linear_8,1,5,80,127,2392120832
11318,18,Jits_Linear_8,2,5,56,103,2392151480
11318,18,Jits_Linear_8,3,1,48,62,2392162544
11318,18,Jits_Linear_8,0,5,56,103,2392661336
11318,18,Jits_Linear_8,1,5,80,127,2392691084
11318,18,Jits_Linear_8,2,1,48,62,2392747316
11318,18,Jits_Linear_8,3,5,63,98,2392781360
11318,18,Jits_Linear_8,0,5,56,103,2393261416
11318,18,Jits_Linear_8,1,1,48,65,2393314956
11318,18,Jits_Linear_8,2,5,80,127,2393371176
11318,18,Jits_Linear_8,3,5,63,98,2393400580
11318,18,Jits_Linear_8,0,5,56,103,2393901372
11318,18,Jits_Linear_8,1,1,48,66,2393929920
11318,18,Jits_Linear_8,2,5,63,98,2393960736
11318,18,Jits_Linear_8,3,5,80,127,2393990484
11318,18,Jits_Linear_8,0,5,56,103,2394460508
11318,18,Jits_Linear_8,1,5,63,98,2394531608
11318,18,Jits_Linear_8,2,1,48,69,2394547612
11318,18,Jits_Linear_8,3,5,80,127,2394550568
11318,18,Jits_Linear_8,0,5,80,127,2395020660
11318,18,Jits_Linear_8,1,5,63,98,2395041344
11318,18,Jits_Linear_8,2,5,56,103,2395091396
11318,18,Jits_Linear_8,3,1,48,75,2395162912
11318,18,Jits_Linear_8,0,5,63,98,2395620668
11318,18,Jits_Linear_8,1,5,80,127,2395631164
11318,18,Jits_Linear_8,2,5,56,103,2395681216
11318,18,Jits_Linear_8,3,1,48,68,2395732232
11318,18,Jits_Linear_8,0,5,63,98,2396201332
11318,18,Jits_Linear_8,1,5,80,127,2396271116
11318,18,Jits_Linear_8,2,1,48,66,2396287116
11318,18,Jits_Linear_8,3,5,56,103,2396290300
11318,18,Jits_Linear_8,0,5,63,98,2396810488
11318,18,Jits_Linear_8,1,5,80,127,2396813708
11318,18,Jits_Linear_8,2,1,48,67,2396852648
11318,18,Jits_Linear_8,3,5,56,103,2396881216
11318,18,Jits_Linear_8,0,5,80,127,2397341252
11318,18,Jits_Linear_8,1,5,56,103,2397360368
11318,18,Jits_Linear_8,2,5,63,98,2397370936
11318,18,Jits_Linear_8,3,1,48,63,2397454956
11318,18,Jits_Linear_8,0,5,56,103,2397941180
11318,18,Jits_Linear_8,1,1,48,62,2397999152
11318,18,Jits_Linear_8,2,5,63,98,2398031184
11318,18,Jits_Linear_8,3,5,80,127,2398034472
11318,18,Jits_Linear_8,0,5,80,127,2398491284
11318,18,Jits_Linear_8,1,5,56,103,2398501260
11318,18,Jits_Linear_8,2,5,63,98,2398520624
11318,18,Jits_Linear_8,3,1,48,62,2398584192
11318,18,Jits_Linear_8,0,5,63,98,2399061344
11318,18,Jits_Linear_8,1,1,48,60,2399103648
11318,18,Jits_Linear_8,2,5,80,127,2399120612
11318,18,Jits_Linear_8,3,5,56,103,2399131104
11318,18,Jits_Linear_8,0,1,48,64,2399680340
11318,18,Jits_Linear_8,1,5,63,98,2399701492
11318,18,Jits_Linear_8,2,5,80,127,2399731316
11318,18,Jits_Linear_8,3,5,56,103,2399771180
11318,18,Jits_Linear_8,0,5,56,103,2400260372
11318,18,Jits_Linear_8,1,5,80,127,2400270568
11318,18,Jits_Linear_8,2,1,48,62,2400288432
11318,18,Jits_Linear_8,3,5,63,98,2400310672
11318,18,Jits_Linear_8,0,5,80,127,2400791140
11318,18,Jits_Linear_8,1,1,48,57,2400866656
11318,18,Jits_Linear_8,2,5,56,103,2400870884
11318,18,Jits_Linear_8,3,5,63,98,2400881152
11318,18,Jits_Linear_8,0,5,80,127,2401401072
11318,18,Jits_Linear_8,1,1,48,57,2401422024
11318,18,Jits_Linear_8,2,5,56,103,2401481236
11318,18,Jits_Linear_8,3,5,63,98,2401491356
11318,18,Jits_Linear_8,0,5,80,127,2401921372
11318,18,Jits_Linear_8,1,5,56,103,2401970604
11318,18,Jits_Linear_8,2,5,63,98,2402020656
11318,18,Jits_Linear_8,3,1,48,56,2402026688
11318,18,Jits_Linear_8,0,5,56,103,2402541236
11318,18,Jits_Linear_8,1,5,63,98,2402544148
11318,18,Jits_Linear_8,2,5,80,127,2402591060
11318,18,Jits_Linear_8,3,1,48,67,2402599132
11318,18,Jits_Linear_8,0,5,56,103,2403120488
11318,18,Jits_Linear_8,1,1,48,63,2403127820
11318,18,Jits_Linear_8,2,5,63,98,2403151156
11318,18,Jits_Linear_8,3,5,80,127,2403160308
11318,18,Jits_Linear_8,0,5,63,98,2403590584
11318,18,Jits_Linear_8,1,5,56,103,2403661340
11318,18,Jits_Linear_8,2,1,48,64,2403687828
11318,18,Jits_Linear_8,3,5,80,127,2403711312
11318,18,Jits_Linear_8,0,5,63,98,2404181392
11318,18,Jits_Linear_8,1,5,56,103,2404190540
11318,18,Jits_Linear_8,2,5,80,127,2404193904
11318,18,Jits_Linear_8,3,1,48,57,2404223768
11318,18,Jits_Linear_8,0,5,80,127,2404681128
11318,18,Jits_Linear_8,1,5,56,103,2404740328
11318,18,Jits_Linear_8,2,1,48,78,2404756552
11318,18,Jits_Linear_8,3,5,63,98,2404830452
11318,18,Jits_Linear_8,0,5,80,127,2405230944
11318,18,Jits_Linear_8,1,5,56,103,2405331344
11318,18,Jits_Linear_8,2,1,48,75,2405342928
11318,18,Jits_Linear_8,3,5,63,98,2405371276
11318,18,Jits_Linear_8,0,5,56,103,2405831032
11318,18,Jits_Linear_8,1,5,63,98,2405850372
11318,18,Jits_Linear_8,2,5,80,127,2405890384
11318,18,Jits_Linear_8,3,1,48,79,2405897912
11318,18,Jits_Linear_8,0,5,63,98,2406351176
11318,18,Jits_Linear_8,1,5,56,103,2406371036
11318,18,Jits_Linear_8,2,1,48,84,2406420088
11318,18,Jits_Linear_8,3,5,80,127,2406471080
11318,18,Jits_Linear_8,0,5,63,98,2406880900
11318,18,Jits_Linear_8,1,1,48,73,2406977312
11318,18,Jits_Linear_8,2,5,80,127,2406991136
11318,18,Jits_Linear_8,3,5,56,103,2407020960
11318,18,Jits_Linear_8,0,5,56,103,2407440968
11318,18,Jits_Linear_8,1,5,63,98,2407470348
11318,18,Jits_Linear_8,2,5,80,127,2407520724
11318,18,Jits_Linear_8,3,1,48,84,2407534852
11318,18,Jits_Linear_8,0,5,63,98,2407950844
11318,18,Jits_Linear_8,1,5,56,103,2407981344
11318,18,Jits_Linear_8,2,5,80,127,2408030672
11318,18,Jits_Linear_8,3,1,48,76,2408083760
11318,18,Jits_Linear_8,0,5,56,103,2408521120
11318,18,Jits_Linear_8,1,5,63,98,2408540384
11318,18,Jits_Linear_8,2,1,48,76,2408613620
11318,18,Jits_Linear_8,3,5,80,127,2408621368
11318,18,Jits_Linear_8,0,5,63,98,2409031072
11318,18,Jits_Linear_8,1,1,48,66,2409088828
11318,18,Jits_Linear_8,2,5,56,103,2409090264
11318,18,Jits_Linear_8,3,5,80,127,2409121132
11318,18,Jits_Linear_8,0,1,48,82,2409600768
11318,18,Jits_Linear_8,1,5,56,103,2409610832
11318,18,Jits_Linear_8,2,5,80,127,2409670928
11318,18,Jits_Linear_8,3,5,63,98,2409710928
11318,18,Jits_Linear_8,0,5,63,98,2410120560
11318,18,Jits_Linear_8,1,1,48,66,2410143760
11318,18,Jits_Linear_8,2,5,56,103,2410181096
11318,18,Jits_Linear_8,3,5,80,127,2410250984
11318,18,Jits_Linear_8,0,1,48,75,2410696772
11318,18,Jits_Linear_8,1,5,56,103,2410731044
11318,18,Jits_Linear_8,2,5,63,98,2410741088
11318,18,Jits_Linear_8,3,5,80,127,2410744452
11318,18,Jits_Linear_8,0,5,63,98,2411201128
11318,18,Jits_Linear_8,1,1,48,79,2411248068
11318,18,Jits_Linear_8,2,5,56,103,2411261288
11318,18,Jits_Linear_8,3,5,80,127,2411264356
11318,18,Jits_Linear_8,0,5,63,98,2411710912
11318,18,Jits_Linear_8,1,5,80,127,2411740664
11318,18,Jits_Linear_8,2,5,56,103,2411761124
11318,18,Jits_Linear_8,3,1,48,81,2411780952
11318,18,Jits_Linear_8,0,5,56,103,2412241156
11318,18,Jits_Linear_8,1,1,48,77,2412274392
11318,18,Jits_Linear_8,2,5,63,98,2412290380
11318,18,Jits_Linear_8,3,5,80,127,2412371828
11318,18,Jits_Linear_8,0,5,80,127,2412740848
11318,18,Jits_Linear_8,1,5,63,98,2412780864
11318,18,Jits_Linear_8,2,5,56,103,2412801472
11318,18,Jits_Linear_8,3,1,48,82,2412806164
11318,18,Jits_Linear_8,0,1,48,79,2413300744
11318,18,Jits_Linear_8,1,5,56,103,2413330736
11318,18,Jits_Linear_8,2,5,80,127,2413340936
11318,18,Jits_Linear_8,3,5,63,98,2413360720
11318,18,Jits_Linear_8,0,1,48,82,2413822424
11318,18,Jits_Linear_8,1,5,56,103,2413830620
11318,18,Jits_Linear_8,2,5,63,98,2413880848
11318,18,Jits_Linear_8,3,5,80,127,2413911348
11318,18,Jits_Linear_8,0,5,56,103,2414300636
11318,18,Jits_Linear_8,1,5,63,98,2414311132
11318,18,Jits_Linear_8,2,5,80,127,2414360812
11318,18,Jits_Linear_8,3,1,48,95,2414369856
11318,18,Jits_Linear_8,0,5,56,103,2414810588
11318,18,Jits_Linear_8,1,5,80,127,2414813576
11318,18,Jits_Linear_8,2,1,48,89,2414879792
11318,18,Jits_Linear_8,3,5,63,98,2414971160
11318,18,Jits_Linear_8,0,5,63,98,2415340916
11318,18,Jits_Linear_8,1,1,48,69,2415410772
11318,18,Jits_Linear_8,2,5,56,103,2415412184
11318,18,Jits_Linear_8,3,5,80,127,2415450408
11318,18,Jits_Linear_8,0,5,63,98,2415891020
11318,18,Jits_Linear_8,1,1,48,76,2415945032
11318,18,Jits_Linear_8,2,5,56,103,2415980872
11318,18,Jits_Linear_8,3,5,80,127,2415983940
11318,18,Jits_Linear_8,0,5,56,103,2416381184
11318,18,Jits_Linear_8,1,1,48,76,2416465756
11318,18,Jits_Linear_8,2,5,63,98,2416471340
11318,18,Jits_Linear_8,3,5,80,127,2416480708
11318,18,Jits_Linear_8,0,5,56,103,2416860504
11318,18,Jits_Linear_8,1,5,63,98,2416910784
11318,18,Jits_Linear_8,2,5,80,127,2416941428
11318,18,Jits_Linear_8,3,1,48,70,2417005924
11318,18,Jits_Linear_8,0,5,63,98,2417441036
11318,18,Jits_Linear_8,1,5,80,127,2417451308
11318,18,Jits_Linear_8,2,5,56,103,2417510900
11318,18,Jits_Linear_8,3,1,48,76,2417515136
11318,18,Jits_Linear_8,0,5,63,98,2417860928
11318,18,Jits_Linear_8,1,5,80,127,2417921392
11318,18,Jits_Linear_8,2,5,56,103,2417961404
11318,18,Jits_Linear_8,3,1,48,73,2418030328
11318,18,Jits_Linear_8,0,5,56,103,2418461076
11318,18,Jits_Linear_8,1,5,80,127,2418480488
11318,18,Jits_Linear_8,2,5,63,98,2418500948
11318,18,Jits_Linear_8,3,1,48,73,2418513356
11318,18,Jits_Linear_8,0,5,63,98,2418881104
11318,18,Jits_Linear_8,1,5,56,103,2418901340
11318,18,Jits_Linear_8,2,5,80,127,2418941208
11318,18,Jits_Linear_8,3,1,48,72,2419001516
11318,18,Jits_Linear_8,0,5,63,98,2419390900
11318,18,Jits_Linear_8,1,5,80,127,2419420652
11318,18,Jits_Linear_8,2,5,56,103,2419441036
11318,18,Jits_Linear_8,3,1,48,72,2419488416
11318,18,Jits_Linear_8,0,5,80,127,2419860832
11318,18,Jits_Linear_8,1,5,56,103,2419910960
11318,18,Jits_Linear_8,2,1,48,72,2419957596
11318,18,Jits_Linear_8,3,5,63,98,2419970300
11318,18,Jits_Linear_8,0,5,63,98,2420341044
11318,18,Jits_Linear_8,1,1,48,66,2420430928
11318,18,Jits_Linear_8,2,5,56,103,2420460844
11318,18,Jits_Linear_8,3,5,80,127,2420490744
11318,18,Jits_Linear_8,0,5,80,127,2420870476
11318,18,Jits_Linear_8,1,5,63,98,2420890864
11318,18,Jits_Linear_8,2,1,48,70,2420926040
11318,18,Jits_Linear_8,3,5,56,103,2420960908
11318,18,Jits_Linear_8,0,5,63,98,2421380584
11318,18,Jits_Linear_8,1,5,56,103,2421390928
11318,18,Jits_Linear_8,2,1,48,73,2421422372
11318,18,Jits_Linear_8,3,5,80,127,2421470716
11318,18,Jits_Linear_8,0,1,48,55,2421900164
11318,18,Jits_Linear_8,1,5,56,103,2421931656
11318,18,Jits_Linear_8,2,5,80,127,2421960960
11318,18,Jits_Linear_8,3,5,63,98,2421971528
11318,18,Jits_Linear_8,0,9999,9999,9999,2311568440
11318,18,Jits_Linear_8,1,9999,9999,9999,2312388676
11318,18,Jits_Linear_8,2,9999,9999,9999,2313208936
11318,18,Jits_Linear_8,3,9999,9999,9999,2314028140
11318,18,Jits_Linear_8,4,9999,9999,9999,2314848320
11318,18,Jits_Linear_8,5,9999,9999,9999,2315658344
11318,18,Jits_Linear_8,6,9999,9999,9999,2316468284
11318,18,Jits_Linear_8,7,9999,9999,9999,2317278320
11318,18,Jits_Linear_8,8,9999,9999,9999,2318088280
11318,18,Jits_Linear_8,9,9999,9999,9999,2318898284
11318,18,Jits_Linear_8,10,9999,9999,9999,2319699052
11318,18,Jits_Linear_8,11,9999,9999,9999,2320498748
11318,18,Jits_Linear_8,12,9999,9999,9999,2321298524
11318,18,Jits_Linear_8,13,9999,9999,9999,2322098284
11318,18,Jits_Linear_8,14,9999,9999,9999,2322899000
11318,18,Jits_Linear_8,15,9999,9999,9999,2323688572
11318,18,Jits_Linear_8,16,9999,9999,9999,2324479096
11318,18,Jits_Linear_8,17,9999,9999,9999,2325268560
11318,18,Jits_Linear_8,18,9999,9999,9999,2326059100
11318,18,Jits_Linear_8,19,9999,9999,9999,2326858820
11318,18,Jits_Linear_8,20,9999,9999,9999,2327638124
11318,18,Jits_Linear_8,21,9999,9999,9999,2328418396
11318,18,Jits_Linear_8,22,9999,9999,9999,2329198676
11318,18,Jits_Linear_8,23,9999,9999,9999,2329978960
11318,18,Jits_Linear_8,24,9999,9999,9999,2330758260
11318,18,Jits_Linear_8,25,9999,9999,9999,2331528272
11318,18,Jits_Linear_8,26,9999,9999,9999,2332298300
11318,18,Jits_Linear_8,27,9999,9999,9999,2333068392
11318,18,Jits_Linear_8,28,9999,9999,9999,2333838416
11318,18,Jits_Linear_8,29,9999,9999,9999,2334608448
11318,18,Jits_Linear_8,30,9999,9999,9999,2335368268
11318,18,Jits_Linear_8,31,9999,9999,9999,2336128092
11318,18,Jits_Linear_8,32,9999,9999,9999,2336888900
11318,18,Jits_Linear_8,33,9999,9999,9999,2337648728
11318,18,Jits_Linear_8,34,9999,9999,9999,2338408564
11318,18,Jits_Linear_8,35,9999,9999,9999,2339158080
11318,18,Jits_Linear_8,36,9999,9999,9999,2339908692
11318,18,Jits_Linear_8,37,9999,9999,9999,2340658244
11318,18,Jits_Linear_8,38,9999,9999,9999,2341408852
11318,18,Jits_Linear_8,39,9999,9999,9999,2342158428
11318,18,Jits_Linear_8,40,9999,9999,9999,2342898792
11318,18,Jits_Linear_8,41,9999,9999,9999,2343638104
11318,18,Jits_Linear_8,42,9999,9999,9999,2344378440
11318,18,Jits_Linear_8,43,9999,9999,9999,2345118784
11318,18,Jits_Linear_8,44,9999,9999,9999,2345858140
11318,18,Jits_Linear_8,45,9999,9999,9999,2346588224
11318,18,Jits_Linear_8,46,9999,9999,9999,2347318396
11318,18,Jits_Linear_8,47,9999,9999,9999,2348048456
11318,18,Jits_Linear_8,48,9999,9999,9999,2348778556
11318,18,Jits_Linear_8,49,9999,9999,9999,2349508720
11318,18,Jits_Linear_8,50,9999,9999,9999,2350228536
11318,18,Jits_Linear_8,51,9999,9999,9999,2350948428
11318,18,Jits_Linear_8,52,9999,9999,9999,2351668312
11318,18,Jits_Linear_8,53,9999,9999,9999,2352388224
11318,18,Jits_Linear_8,54,9999,9999,9999,2353109080
11318,18,Jits_Linear_8,55,9999,9999,9999,2353818724
11318,18,Jits_Linear_8,56,9999,9999,9999,2354528348
11318,18,Jits_Linear_8,57,9999,9999,9999,2355239012
11318,18,Jits_Linear_8,58,9999,9999,9999,2355948644
11318,18,Jits_Linear_8,59,9999,9999,9999,2356658284
11318,18,Jits_Linear_8,60,9999,9999,9999,2357358708
11318,18,Jits_Linear_8,61,9999,9999,9999,2358059112
11318,18,Jits_Linear_8,62,9999,9999,9999,2358768732
11318,18,Jits_Linear_8,63,9999,9999,9999,2359468092
11318,18,Jits_Linear_8,64,9999,9999,9999,2360168512
11318,18,Jits_Linear_8,65,9999,9999,9999,2360858712
11318,18,Jits_Linear_8,66,9999,9999,9999,2361548880
11318,18,Jits_Linear_8,67,9999,9999,9999,2362239036
11318,18,Jits_Linear_8,68,9999,9999,9999,2362928188
11318,18,Jits_Linear_8,69,9999,9999,9999,2363618420
11318,18,Jits_Linear_8,70,9999,9999,9999,2364298312
11318,18,Jits_Linear_8,71,9999,9999,9999,2364978260
11318,18,Jits_Linear_8,72,9999,9999,9999,2365658224
11318,18,Jits_Linear_8,73,9999,9999,9999,2366338176
11318,18,Jits_Linear_8,74,9999,9999,9999,2367019120
11318,18,Jits_Linear_8,75,9999,9999,9999,2367699036
11318,18,Jits_Linear_8,76,9999,9999,9999,2368368744
11318,18,Jits_Linear_8,77,9999,9999,9999,2369038432
11318,18,Jits_Linear_8,78,9999,9999,9999,2369708136
11318,18,Jits_Linear_8,79,9999,9999,9999,2370378816
11318,18,Jits_Linear_8,80,9999,9999,9999,2371038312
11318,18,Jits_Linear_8,81,9999,9999,9999,2371698792
11318,18,Jits_Linear_8,82,9999,9999,9999,2372358200
11318,18,Jits_Linear_8,83,9999,9999,9999,2373018752
11318,18,Jits_Linear_8,84,9999,9999,9999,2373678164
11318,18,Jits_Linear_8,85,9999,9999,9999,2374328392
11318,18,Jits_Linear_8,86,9999,9999,9999,2374978620
11318,18,Jits_Linear_8,87,9999,9999,9999,2375628888
11318,18,Jits_Linear_8,88,9999,9999,9999,2376278124
11318,18,Jits_Linear_8,89,9999,9999,9999,2376928324
11318,18,Jits_Linear_8,90,9999,9999,9999,2377568356
11318,18,Jits_Linear_8,91,9999,9999,9999,2378208372
11318,18,Jits_Linear_8,92,9999,9999,9999,2378848340
11318,18,Jits_Linear_8,93,9999,9999,9999,2379488336
11318,18,Jits_Linear_8,94,9999,9999,9999,2380128364
11318,18,Jits_Linear_8,95,9999,9999,9999,2380758116
11318,18,Jits_Linear_8,96,9999,9999,9999,2381388860
11318,18,Jits_Linear_8,97,9999,9999,9999,2382018672
11318,18,Jits_Linear_8,98,9999,9999,9999,2382648380
11318,18,Jits_Linear_8,99,9999,9999,9999,2383278200
11318,18,Jits_Linear_8,100,9999,9999,9999,2383898712
11318,18,Jits_Linear_8,101,9999,9999,9999,2384518212
11318,18,Jits_Linear_8,102,9999,9999,9999,2385138744
11318,18,Jits_Linear_8,103,9999,9999,9999,2385758332
11318,18,Jits_Linear_8,104,9999,9999,9999,2386378868
11318,18,Jits_Linear_8,105,9999,9999,9999,2386988088
11318,18,Jits_Linear_8,106,9999,9999,9999,2387598432
11318,18,Jits_Linear_8,107,9999,9999,9999,2388208748
11318,18,Jits_Linear_8,108,9999,9999,9999,2388819032
11318,18,Jits_Linear_8,109,9999,9999,9999,2389428316
11318,18,Jits_Linear_8,110,9999,9999,9999,2390028404
11318,18,Jits_Linear_8,111,9999,9999,9999,2390628432
11318,18,Jits_Linear_8,112,9999,9999,9999,2391228512
11318,18,Jits_Linear_8,113,9999,9999,9999,2391828596
11318,18,Jits_Linear_8,114,9999,9999,9999,2392428632
11318,18,Jits_Linear_8,115,9999,9999,9999,2393018440
11318,18,Jits_Linear_8,116,9999,9999,9999,2393608264
11318,18,Jits_Linear_8,117,9999,9999,9999,2394198124
11318,18,Jits_Linear_8,118,9999,9999,9999,2394788920
11318,18,Jits_Linear_8,119,9999,9999,9999,2395378808
11318,18,Jits_Linear_8,120,9999,9999,9999,2395958392
11318,18,Jits_Linear_8,121,9999,9999,9999,2396538984
11318,18,Jits_Linear_8,122,9999,9999,9999,2397118520
11318,18,Jits_Linear_8,123,9999,9999,9999,2397698128
11318,18,Jits_Linear_8,124,9999,9999,9999,2398278748
11318,18,Jits_Linear_8,125,9999,9999,9999,2398848112
11318,18,Jits_Linear_8,126,9999,9999,9999,2399418452
11318,18,Jits_Linear_8,127,9999,9999,9999,2399988856
11318,18,Jits_Linear_8,128,9999,9999,9999,2400558136
11318,18,Jits_Linear_8,129,9999,9999,9999,2401128572
11318,18,Jits_Linear_8,130,9999,9999,9999,2401688660
11318,18,Jits_Linear_8,131,9999,9999,9999,2402248808
11318,18,Jits_Linear_8,132,9999,9999,9999,2402808952
11318,18,Jits_Linear_8,133,9999,9999,9999,2403369040
11318,18,Jits_Linear_8,134,9999,9999,9999,2403928164
11318,18,Jits_Linear_8,135,9999,9999,9999,2404479072
11318,18,Jits_Linear_8,136,9999,9999,9999,2405028948
11318,18,Jits_Linear_8,137,9999,9999,9999,2405578836
11318,18,Jits_Linear_8,138,9999,9999,9999,2406128728
11318,18,Jits_Linear_8,139,9999,9999,9999,2406678616
11318,18,Jits_Linear_8,140,9999,9999,9999,2407218240
11318,18,Jits_Linear_8,141,9999,9999,9999,2407758916
11318,18,Jits_Linear_8,142,9999,9999,9999,2408298608
11318,18,Jits_Linear_8,143,9999,9999,9999,2408838220
11318,18,Jits_Linear_8,144,9999,9999,9999,2409378888
11318,18,Jits_Linear_8,145,9999,9999,9999,2409908316
11318,18,Jits_Linear_8,146,9999,9999,9999,2410438784
11318,18,Jits_Linear_8,147,9999,9999,9999,2410968128
11318,18,Jits_Linear_8,148,9999,9999,9999,2411498592
11318,18,Jits_Linear_8,149,9999,9999,9999,2412029056
11318,18,Jits_Linear_8,150,9999,9999,9999,2412548220
11318,18,Jits_Linear_8,151,9999,9999,9999,2413068360
11318,18,Jits_Linear_8,152,9999,9999,9999,2413588556
11318,18,Jits_Linear_8,153,9999,9999,9999,2414108772
11318,18,Jits_Linear_8,154,9999,9999,9999,2414628972
11318,18,Jits_Linear_8,155,9999,9999,9999,2415138916
11318,18,Jits_Linear_8,156,9999,9999,9999,2415648880
11318,18,Jits_Linear_8,157,9999,9999,9999,2416158820
11318,18,Jits_Linear_8,158,9999,9999,9999,2416668768
11318,18,Jits_Linear_8,159,9999,9999,9999,2417178728
11318,18,Jits_Linear_8,160,9999,9999,9999,2417678428
11318,18,Jits_Linear_8,161,9999,9999,9999,2418178104
11318,18,Jits_Linear_8,162,9999,9999,9999,2418678888
11318,18,Jits_Linear_8,163,9999,9999,9999,2419178580
11318,18,Jits_Linear_8,164,9999,9999,9999,2419678332
11318,18,Jits_Linear_8,165,9999,9999,9999,2420168796
11318,18,Jits_Linear_8,166,9999,9999,9999,2420658304
11318,18,Jits_Linear_8,167,9999,9999,9999,2421148768
11318,18,Jits_Linear_8,168,9999,9999,9999,2421638200
11318,18,Jits_Linear_8,169,9999,9999,9999,2422128752
11319,19,Jits_Linear_5,0,5,56,103,2429625620
11319,19,Jits_Linear_5,1,5,63,98,2429628724
11319,19,Jits_Linear_5,2,5,80,127,2429631848
11319,19,Jits_Linear_5,0,5,56,103,2430106012
11319,19,Jits_Linear_5,1,5,63,98,2430108960
11319,19,Jits_Linear_5,2,5,80,127,2430112156
11319,19,Jits_Linear_5,0,5,56,103,2430586264
11319,19,Jits_Linear_5,1,5,80,127,2430595788
11319,19,Jits_Linear_5,2,5,63,98,2430615952
11319,19,Jits_Linear_5,0,5,63,98,2431016452
11319,19,Jits_Linear_5,1,5,80,127,2431045932
11319,19,Jits_Linear_5,2,5,56,103,2431056276
11319,19,Jits_Linear_5,0,1,48,84,2431527084
11319,19,Jits_Linear_5,1,5,80,127,2431555904
11319,19,Jits_Linear_5,2,5,56,103,2431566176
11319,19,Jits_Linear_5,3,5,63,98,2431595852
11319,19,Jits_Linear_5,0,1,48,105,2432029240
11319,19,Jits_Linear_5,1,5,63,98,2432036308
11319,19,Jits_Linear_5,2,5,56,103,2432065864
11319,19,Jits_Linear_5,3,5,80,127,2432076136
11319,19,Jits_Linear_5,0,5,56,103,2432475724
11319,19,Jits_Linear_5,1,5,63,98,2432525704
11319,19,Jits_Linear_5,2,1,48,103,2432526816
11319,19,Jits_Linear_5,3,5,80,127,2432546080
11319,19,Jits_Linear_5,0,5,80,127,2432966144
11319,19,Jits_Linear_5,1,1,48,104,2433005380
11319,19,Jits_Linear_5,2,5,63,98,2433016120
11319,19,Jits_Linear_5,3,5,56,103,2433056056
11319,19,Jits_Linear_5,0,5,56,103,2433455444
11319,19,Jits_Linear_5,1,5,63,98,2433486244
11319,19,Jits_Linear_5,2,1,48,88,2433518060
11319,19,Jits_Linear_5,3,5,80,127,2433555772
11319,19,Jits_Linear_5,0,5,56,103,2433945932
11319,19,Jits_Linear_5,1,1,48,81,2434002020
11319,19,Jits_Linear_5,2,5,80,127,2434006692
11319,19,Jits_Linear_5,3,5,63,98,2434035996
11319,19,Jits_Linear_5,0,5,56,103,2434445636
11319,19,Jits_Linear_5,1,5,63,98,2434455836
11319,19,Jits_Linear_5,2,1,48,108,2434494408
11319,19,Jits_Linear_5,3,5,80,127,2434495992
11319,19,Jits_Linear_5,0,5,63,98,2434936204
11319,19,Jits_Linear_5,1,1,48,97,2434971088
11319,19,Jits_Linear_5,2,5,80,127,2435016148
11319,19,Jits_Linear_5,3,5,56,103,2435026268
11319,19,Jits_Linear_5,0,1,48,95,2435483280
11319,19,Jits_Linear_5,1,5,63,98,2435485940
11319,19,Jits_Linear_5,2,5,56,103,2435526028
11319,19,Jits_Linear_5,3,5,80,127,2435528944
11319,19,Jits_Linear_5,0,5,56,103,2435945916
11319,19,Jits_Linear_5,1,5,63,98,2435956040
11319,19,Jits_Linear_5,2,1,48,89,2435989196
11319,19,Jits_Linear_5,3,5,80,127,2435995896
11319,19,Jits_Linear_5,0,5,56,103,2436436700
11319,19,Jits_Linear_5,1,5,63,98,2436439616
11319,19,Jits_Linear_5,2,5,80,127,2436455736
11319,19,Jits_Linear_5,3,1,48,87,2436461628
11319,19,Jits_Linear_5,0,1,48,95,2436946472
11319,19,Jits_Linear_5,1,5,80,127,2436955492
11319,19,Jits_Linear_5,2,5,56,103,2436965688
11319,19,Jits_Linear_5,3,5,63,98,2437036416
11319,19,Jits_Linear_5,0,5,63,98,2437456232
11319,19,Jits_Linear_5,1,1,48,82,2437457196
11319,19,Jits_Linear_5,2,5,56,103,2437475712
11319,19,Jits_Linear_5,3,5,80,127,2437555508
11319,19,Jits_Linear_5,0,1,48,96,2437970416
11319,19,Jits_Linear_5,1,5,56,103,2437976516
11319,19,Jits_Linear_5,2,5,80,127,2438016608
11319,19,Jits_Linear_5,3,5,63,98,2438025680
11319,19,Jits_Linear_5,0,5,80,127,2438476360
11319,19,Jits_Linear_5,1,1,48,105,2438496420
11319,19,Jits_Linear_5,2,5,63,98,2438505732
11319,19,Jits_Linear_5,3,5,56,103,2438545820
11319,19,Jits_Linear_5,0,5,56,103,2439005520
11319,19,Jits_Linear_5,1,1,48,85,2439024152
11319,19,Jits_Linear_5,2,5,63,98,2439036384
11319,19,Jits_Linear_5,3,5,80,127,2439085392
11319,19,Jits_Linear_5,0,5,80,127,2439515636
11319,19,Jits_Linear_5,1,1,48,102,2439549548
11319,19,Jits_Linear_5,2,5,56,103,2439555572
11319,19,Jits_Linear_5,3,5,63,98,2439565544
11319,19,Jits_Linear_5,0,5,80,127,2440016396
11319,19,Jits_Linear_5,1,1,48,89,2440052252
11319,19,Jits_Linear_5,2,5,63,98,2440056108
11319,19,Jits_Linear_5,3,5,56,103,2440115600
11319,19,Jits_Linear_5,0,5,56,103,2440536404
11319,19,Jits_Linear_5,1,5,80,127,2440545628
11319,19,Jits_Linear_5,2,1,48,86,2440582000
11319,19,Jits_Linear_5,3,5,63,98,2440625492
11319,19,Jits_Linear_5,0,5,80,127,2441055660
11319,19,Jits_Linear_5,1,1,48,95,2441090172
11319,19,Jits_Linear_5,2,5,63,98,2441115972
11319,19,Jits_Linear_5,3,5,56,103,2441145652
11319,19,Jits_Linear_5,0,5,56,103,2441575820
11319,19,Jits_Linear_5,1,1,48,93,2441615128
11319,19,Jits_Linear_5,2,5,80,127,2441636504
11319,19,Jits_Linear_5,3,5,63,98,2441676220
11319,19,Jits_Linear_5,0,1,48,97,2442128836
11319,19,Jits_Linear_5,1,5,56,103,2442156584
11319,19,Jits_Linear_5,2,5,63,98,2442165584
11319,19,Jits_Linear_5,3,5,80,127,2442169024
11319,19,Jits_Linear_5,0,5,80,127,2442635596
11319,19,Jits_Linear_5,1,1,48,100,2442647632
11319,19,Jits_Linear_5,2,5,63,98,2442725800
11319,19,Jits_Linear_5,3,5,56,103,2442735924
11319,19,Jits_Linear_5,0,5,56,103,2443166236
11319,19,Jits_Linear_5,1,5,63,98,2443169336
11319,19,Jits_Linear_5,2,5,80,127,2443172604
11319,19,Jits_Linear_5,3,1,48,91,2443197988
11319,19,Jits_Linear_5,0,5,80,127,2443715908
11319,19,Jits_Linear_5,1,1,48,92,2443719620
11319,19,Jits_Linear_5,2,5,63,98,2443766404
11319,19,Jits_Linear_5,3,5,56,103,2443795708
11319,19,Jits_Linear_5,0,5,56,103,2444225800
11319,19,Jits_Linear_5,1,5,80,127,2444236296
11319,19,Jits_Linear_5,2,1,48,73,2444273888
11319,19,Jits_Linear_5,3,5,63,98,2444305672
11319,19,Jits_Linear_5,0,5,56,103,2444765584
11319,19,Jits_Linear_5,1,1,48,112,2444785444
11319,19,Jits_Linear_5,2,5,63,98,2444787012
11319,19,Jits_Linear_5,3,5,80,127,2444845384
11319,19,Jits_Linear_5,0,5,80,127,2445295940
11319,19,Jits_Linear_5,1,1,48,85,2445299884
11319,19,Jits_Linear_5,2,5,63,98,2445365644
11319,19,Jits_Linear_5,3,5,56,103,2445386328
11319,19,Jits_Linear_5,0,1,48,84,2445846032
11319,19,Jits_Linear_5,1,5,80,127,2445856096
11319,19,Jits_Linear_5,2,5,56,103,2445866292
11319,19,Jits_Linear_5,3,5,63,98,2445875616
11319,19,Jits_Linear_5,0,1,48,72,2446367512
11319,19,Jits_Linear_5,1,5,80,127,2446385400
11319,19,Jits_Linear_5,2,5,56,103,2446406156
11319,19,Jits_Linear_5,3,5,63,98,2446475676
11319,19,Jits_Linear_5,0,1,48,83,2446903424
11319,19,Jits_Linear_5,1,5,56,103,2446936408
11319,19,Jits_Linear_5,2,5,80,127,2446966308
11319,19,Jits_Linear_5,3,5,63,98,2446985644
11319,19,Jits_Linear_5,0,1,48,88,2447450304
11319,19,Jits_Linear_5,1,5,63,98,2447476180
11319,19,Jits_Linear_5,2,5,56,103,2447535604
11319,19,Jits_Linear_5,3,5,80,127,2447566308
11319,19,Jits_Linear_5,0,5,63,98,2448015580
11319,19,Jits_Linear_5,1,5,80,127,2448019248
11319,19,Jits_Linear_5,2,1,48,81,2448022368
11319,19,Jits_Linear_5,3,5,56,103,2448105788
11319,19,Jits_Linear_5,0,1,48,87,2448570140
11319,19,Jits_Linear_5,1,5,56,103,2448586352
11319,19,Jits_Linear_5,2,5,63,98,2448615732
11319,19,Jits_Linear_5,3,5,80,127,2448655672
11319,19,Jits_Linear_5,0,1,48,97,2449117636
11319,19,Jits_Linear_5,1,5,63,98,2449136020
11319,19,Jits_Linear_5,2,5,56,103,2449176032
11319,19,Jits_Linear_5,3,5,80,127,2449196272
11319,19,Jits_Linear_5,0,5,63,98,2449696252
11319,19,Jits_Linear_5,1,1,48,76,2449698924
11319,19,Jits_Linear_5,2,5,56,103,2449736284
11319,19,Jits_Linear_5,3,5,80,127,2449746184
11319,19,Jits_Linear_5,0,5,80,127,2450225412
11319,19,Jits_Linear_5,1,1,48,84,2450262836
11319,19,Jits_Linear_5,2,5,63,98,2450296360
11319,19,Jits_Linear_5,3,5,56,103,2450315624
11319,19,Jits_Linear_5,0,5,56,103,2450776360
11319,19,Jits_Linear_5,1,5,80,127,2450796072
11319,19,Jits_Linear_5,2,1,48,89,2450824448
11319,19,Jits_Linear_5,3,5,63,98,2450835708
11319,19,Jits_Linear_5,0,1,48,80,2451340904
11319,19,Jits_Linear_5,1,5,63,98,2451345732
11319,19,Jits_Linear_5,2,5,80,127,2451366196
11319,19,Jits_Linear_5,3,5,56,103,2451406356
11319,19,Jits_Linear_5,0,1,48,90,2451899784
11319,19,Jits_Linear_5,1,5,63,98,2451906180
11319,19,Jits_Linear_5,2,5,56,103,2451926340
11319,19,Jits_Linear_5,3,5,80,127,2451935492
11319,19,Jits_Linear_5,0,1,48,81,2452454920
11319,19,Jits_Linear_5,1,5,80,127,2452476368
11319,19,Jits_Linear_5,2,5,56,103,2452495708
11319,19,Jits_Linear_5,3,5,63,98,2452525308
11319,19,Jits_Linear_5,0,1,48,64,2453012732
11319,19,Jits_Linear_5,1,5,56,103,2453116164
11319,19,Jits_Linear_5,2,5,80,127,2453119240
11319,19,Jits_Linear_5,3,5,63,98,2453135808
11319,19,Jits_Linear_5,0,1,48,68,2453589984
11319,19,Jits_Linear_5,1,5,63,98,2453605756
11319,19,Jits_Linear_5,2,5,56,103,2453635432
11319,19,Jits_Linear_5,3,5,80,127,2453696032
11319,19,Jits_Linear_5,0,1,48,58,2454148868
11319,19,Jits_Linear_5,1,5,63,98,2454256100
11319,19,Jits_Linear_5,2,5,56,103,2454266300
11319,19,Jits_Linear_5,3,5,80,127,2454275376
11319,19,Jits_Linear_5,0,5,56,103,2454776344
11319,19,Jits_Linear_5,1,5,80,127,2454805724
11319,19,Jits_Linear_5,2,5,63,98,2454816292
11319,19,Jits_Linear_5,3,1,48,70,2454817260
11319,19,Jits_Linear_5,0,1,48,72,2455372016
11319,19,Jits_Linear_5,1,5,63,98,2455385312
11319,19,Jits_Linear_5,2,5,56,103,2455395580
11319,19,Jits_Linear_5,3,5,80,127,2455416264
11319,19,Jits_Linear_5,0,5,56,103,2455886052
11319,19,Jits_Linear_5,1,1,48,65,2455941612
11319,19,Jits_Linear_5,2,5,63,98,2455945688
11319,19,Jits_Linear_5,3,5,80,127,2455949128
11319,19,Jits_Linear_5,0,5,80,127,2456486216
11319,19,Jits_Linear_5,1,5,56,103,2456495364
11319,19,Jits_Linear_5,2,1,48,47,2456506352
11319,19,Jits_Linear_5,3,5,63,98,2456566236
11319,19,Jits_Linear_5,0,5,80,127,2457055672
11319,19,Jits_Linear_5,1,1,48,71,2457080512
11319,19,Jits_Linear_5,2,5,56,103,2457126324
11319,19,Jits_Linear_5,3,5,63,98,2457135476
11319,19,Jits_Linear_5,0,5,63,98,2457676100
11319,19,Jits_Linear_5,1,5,56,103,2457686448
11319,19,Jits_Linear_5,2,1,48,81,2457694372
11319,19,Jits_Linear_5,3,5,80,127,2457705704
11319,19,Jits_Linear_5,0,5,80,127,2458205528
11319,19,Jits_Linear_5,1,1,48,75,2458256452
11319,19,Jits_Linear_5,2,5,63,98,2458266064
11319,19,Jits_Linear_5,3,5,56,103,2458305928
11319,19,Jits_Linear_5,0,5,56,103,2458836272
11319,19,Jits_Linear_5,1,5,63,98,2458845496
11319,19,Jits_Linear_5,2,1,48,78,2458846460
11319,19,Jits_Linear_5,3,5,80,127,2458885428
11319,19,Jits_Linear_5,0,5,56,103,2459386168
11319,19,Jits_Linear_5,1,5,80,127,2459416144
11319,19,Jits_Linear_5,2,1,48,57,2459417112
11319,19,Jits_Linear_5,3,5,63,98,2459466216
11319,19,Jits_Linear_5,0,5,56,103,2460015960
11319,19,Jits_Linear_5,1,1,48,62,2460018932
11319,19,Jits_Linear_5,2,5,63,98,2460056116
11319,19,Jits_Linear_5,3,5,80,127,2460059556
11319,19,Jits_Linear_5,0,1,48,45,2460602600
11319,19,Jits_Linear_5,1,5,56,103,2460606080
11319,19,Jits_Linear_5,2,5,63,98,2460616052
11319,19,Jits_Linear_5,3,5,80,127,2460635540
11319,19,Jits_Linear_5,0,5,56,103,2461155672
11319,19,Jits_Linear_5,1,5,80,127,2461159036
11319,19,Jits_Linear_5,2,1,48,52,2461174980
11319,19,Jits_Linear_5,3,5,63,98,2461195752
11319,19,Jits_Linear_5,0,1,48,30,2461722000
11319,19,Jits_Linear_5,1,5,63,98,2461785372
11319,19,Jits_Linear_5,2,5,56,103,2461816244
11319,19,Jits_Linear_5,3,5,80,127,2461835644
11319,19,Jits_Linear_5,0,1,48,57,2462336796
11319,19,Jits_Linear_5,1,5,80,127,2462356004
11319,19,Jits_Linear_5,2,5,56,103,2462366276
11319,19,Jits_Linear_5,3,5,63,98,2462376396
11319,19,Jits_Linear_5,0,1,48,54,2462939644
11319,19,Jits_Linear_5,1,5,56,103,2462955932
11319,19,Jits_Linear_5,2,5,80,127,2462995948
11319,19,Jits_Linear_5,3,5,63,98,2463025424
11319,19,Jits_Linear_5,0,5,63,98,2463566160
11319,19,Jits_Linear_5,1,5,80,127,2463576432
11319,19,Jits_Linear_5,2,1,48,62,2463582692
11319,19,Jits_Linear_5,3,5,56,103,2463585724
11319,19,Jits_Linear_5,0,5,56,103,2464145864
11319,19,Jits_Linear_5,1,1,48,59,2464148832
11319,19,Jits_Linear_5,2,5,63,98,2464216440
11319,19,Jits_Linear_5,3,5,80,127,2464225588
11319,19,Jits_Linear_5,0,5,80,127,2464756148
11319,19,Jits_Linear_5,1,5,56,103,2464766420
11319,19,Jits_Linear_5,2,1,48,63,2464767384
11319,19,Jits_Linear_5,3,5,63,98,2464815568
11319,19,Jits_Linear_5,0,1,48,58,2465358980
11319,19,Jits_Linear_5,1,5,80,127,2465375568
11319,19,Jits_Linear_5,2,5,56,103,2465435888
11319,19,Jits_Linear_5,3,5,63,98,2465465696
11319,19,Jits_Linear_5,0,5,56,103,2465986068
11319,19,Jits_Linear_5,1,5,80,127,2465989132
11319,19,Jits_Linear_5,2,1,48,66,2465993224
11319,19,Jits_Linear_5,3,5,63,98,2466025924
11319,19,Jits_Linear_5,0,1,48,55,2466575032
11319,19,Jits_Linear_5,1,5,56,103,2466625880
11319,19,Jits_Linear_5,2,5,63,98,2466655708
11319,19,Jits_Linear_5,3,5,80,127,2466666052
11319,19,Jits_Linear_5,0,1,48,56,2467214780
11319,19,Jits_Linear_5,1,5,63,98,2467245296
11319,19,Jits_Linear_5,2,5,80,127,2467255792
11319,19,Jits_Linear_5,3,5,56,103,2467265988
11319,19,Jits_Linear_5,0,5,80,127,2467805452
11319,19,Jits_Linear_5,1,1,48,55,2467830740
11319,19,Jits_Linear_5,2,5,56,103,2467856020
11319,19,Jits_Linear_5,3,5,63,98,2467859012
11319,19,Jits_Linear_5,0,1,48,56,2468439612
11319,19,Jits_Linear_5,1,5,56,103,2468455976
11319,19,Jits_Linear_5,2,5,80,127,2468476212
11319,19,Jits_Linear_5,3,5,63,98,2468485436
11319,19,Jits_Linear_5,0,5,63,98,2469056060
11319,19,Jits_Linear_5,1,1,48,64,2469073336
11319,19,Jits_Linear_5,2,5,56,103,2469085508
11319,19,Jits_Linear_5,3,5,80,127,2469106116
11319,19,Jits_Linear_5,0,1,48,48,2469678056
11319,19,Jits_Linear_5,1,5,56,103,2469685828
11319,19,Jits_Linear_5,2,5,80,127,2469695804
11319,19,Jits_Linear_5,3,5,63,98,2469765484
11319,19,Jits_Linear_5,0,5,63,98,2470296032
11319,19,Jits_Linear_5,1,1,48,58,2470322744
11319,19,Jits_Linear_5,2,5,80,127,2470335892
11319,19,Jits_Linear_5,3,5,56,103,2470375976
11319,19,Jits_Linear_5,0,1,48,59,2470927100
11319,19,Jits_Linear_5,1,5,56,103,2470936116
11319,19,Jits_Linear_5,2,5,63,98,2470946164
11319,19,Jits_Linear_5,3,5,80,127,2470965748
11319,19,Jits_Linear_5,0,1,48,60,2471545636
11319,19,Jits_Linear_5,1,5,63,98,2471605752
11319,19,Jits_Linear_5,2,5,80,127,2471626212
11319,19,Jits_Linear_5,3,5,56,103,2471645684
11319,19,Jits_Linear_5,0,5,56,103,2472176096
11319,19,Jits_Linear_5,1,1,48,63,2472239776
11319,19,Jits_Linear_5,2,5,80,127,2472256140
11319,19,Jits_Linear_5,3,5,63,98,2472265964
11319,19,Jits_Linear_5,0,5,80,127,2472845748
11319,19,Jits_Linear_5,1,5,63,98,2472855800
11319,19,Jits_Linear_5,2,5,56,103,2472885548
11319,19,Jits_Linear_5,3,1,48,70,2472888216
11319,19,Jits_Linear_5,0,5,63,98,2473445992
11319,19,Jits_Linear_5,1,5,80,127,2473485932
11319,19,Jits_Linear_5,2,1,48,65,2473490628
11319,19,Jits_Linear_5,3,5,56,103,2473546048
11319,19,Jits_Linear_5,0,5,63,98,2474106116
11319,19,Jits_Linear_5,1,1,48,63,2474123928
11319,19,Jits_Linear_5,2,5,56,103,2474156388
11319,19,Jits_Linear_5,3,5,80,127,2474186064
11319,19,Jits_Linear_5,0,5,80,127,2474755352
11319,19,Jits_Linear_5,1,1,48,81,2474757288
11319,19,Jits_Linear_5,2,5,63,98,2474765616
11319,19,Jits_Linear_5,3,5,56,103,2474836220
11319,19,Jits_Linear_5,0,1,48,64,2475395000
11319,19,Jits_Linear_5,1,5,80,127,2475466200
11319,19,Jits_Linear_5,2,5,56,103,2475476396
11319,19,Jits_Linear_5,3,5,63,98,2475479684
11319,19,Jits_Linear_5,0,5,56,103,2476045684
11319,19,Jits_Linear_5,1,5,80,127,2476066216
11319,19,Jits_Linear_5,2,5,63,98,2476076264
11319,19,Jits_Linear_5,3,1,48,83,2476077232
11319,19,Jits_Linear_5,0,5,63,98,2476695852
11319,19,Jits_Linear_5,1,1,48,54,2476698748
11319,19,Jits_Linear_5,2,5,56,103,2476735860
11319,19,Jits_Linear_5,3,5,80,127,2476756244
11319,19,Jits_Linear_5,0,1,48,82,2477328340
11319,19,Jits_Linear_5,1,5,63,98,2477335940
11319,19,Jits_Linear_5,2,5,56,103,2477396284
11319,19,Jits_Linear_5,3,5,80,127,2477399424
11319,19,Jits_Linear_5,0,5,56,103,2477955448
11319,19,Jits_Linear_5,1,5,80,127,2477975984
11319,19,Jits_Linear_5,2,1,48,79,2478005704
11319,19,Jits_Linear_5,3,5,63,98,2478015916
11319,19,Jits_Linear_5,0,1,48,77,2478619868
11319,19,Jits_Linear_5,1,5,56,103,2478636380
11319,19,Jits_Linear_5,2,5,63,98,2478655820
11319,19,Jits_Linear_5,3,5,80,127,2478666088
11319,19,Jits_Linear_5,0,5,80,127,2479256044
11319,19,Jits_Linear_5,1,1,48,59,2479265988
11319,19,Jits_Linear_5,2,5,56,103,2479285716
11319,19,Jits_Linear_5,3,5,63,98,2479325804
11319,19,Jits_Linear_5,0,1,48,62,2479908472
11319,19,Jits_Linear_5,1,5,80,127,2479916368
11319,19,Jits_Linear_5,2,5,56,103,2479935884
11319,19,Jits_Linear_5,3,5,63,98,2479996200
11319,19,Jits_Linear_5,0,5,56,103,2480575824
11319,19,Jits_Linear_5,1,5,80,127,2480596432
11319,19,Jits_Linear_5,2,1,48,71,2480606676
11319,19,Jits_Linear_5,3,5,63,98,2480655700
11319,19,Jits_Linear_5,0,5,80,127,2481215800
11319,19,Jits_Linear_5,1,5,56,103,2481226144
11319,19,Jits_Linear_5,2,5,63,98,2481266008
11319,19,Jits_Linear_5,3,1,48,64,2481269052
11319,19,Jits_Linear_5,0,5,63,98,2481876200
11319,19,Jits_Linear_5,1,5,56,103,2481916132
11319,19,Jits_Linear_5,2,5,80,127,2481919280
11319,19,Jits_Linear_5,3,1,48,72,2481921876
11319,19,Jits_Linear_5,0,5,63,98,2482556236
11319,19,Jits_Linear_5,1,1,48,59,2482559800
11319,19,Jits_Linear_5,2,5,80,127,2482596168
11319,19,Jits_Linear_5,3,5,56,103,2482625844
11319,19,Jits_Linear_5,0,5,56,103,2483205764
11319,19,Jits_Linear_5,1,1,48,69,2483208132
11319,19,Jits_Linear_5,2,5,63,98,2483215660
11319,19,Jits_Linear_5,3,5,80,127,2483245556
11319,19,Jits_Linear_5,0,1,48,79,2483863848
11319,19,Jits_Linear_5,1,5,80,127,2483865888
11319,19,Jits_Linear_5,2,5,63,98,2483935720
11319,19,Jits_Linear_5,3,5,56,103,2483945844
11319,19,Jits_Linear_5,0,5,63,98,2484535604
11319,19,Jits_Linear_5,1,1,48,73,2484592664
11319,19,Jits_Linear_5,2,5,56,103,2484606404
11319,19,Jits_Linear_5,3,5,80,127,2484615552
11319,19,Jits_Linear_5,0,5,63,98,2485206560
11319,19,Jits_Linear_5,1,5,56,103,2485225824
11319,19,Jits_Linear_5,2,1,48,70,2485253900
11319,19,Jits_Linear_5,3,5,80,127,2485265832
11319,19,Jits_Linear_5,0,1,48,79,2485878476
11319,19,Jits_Linear_5,1,5,56,103,2485886448
11319,19,Jits_Linear_5,2,5,63,98,2485895820
11319,19,Jits_Linear_5,3,5,80,127,2485976724
11319,19,Jits_Linear_5,0,5,63,98,2486545648
11319,19,Jits_Linear_5,1,1,48,73,2486551308
11319,19,Jits_Linear_5,2,5,56,103,2486575716
11319,19,Jits_Linear_5,3,5,80,127,2486616700
11319,19,Jits_Linear_5,0,5,56,103,2487215728
11319,19,Jits_Linear_5,1,1,48,55,2487234140
11319,19,Jits_Linear_5,2,5,63,98,2487256636
11319,19,Jits_Linear_5,3,5,80,127,2487296800
11319,19,Jits_Linear_5,0,5,80,127,2487896540
11319,19,Jits_Linear_5,1,1,48,65,2487897508
11319,19,Jits_Linear_5,2,5,56,103,2487976184
11319,19,Jits_Linear_5,3,5,63,98,2487985556
11319,19,Jits_Linear_5,0,5,56,103,2488616664
11319,19,Jits_Linear_5,1,5,63,98,2488619652
11319,19,Jits_Linear_5,2,5,80,127,2488625612
11319,19,Jits_Linear_5,3,1,48,55,2488633464
11319,19,Jits_Linear_5,0,1,48,64,2489290536
11319,19,Jits_Linear_5,1,5,56,103,2489315596
11319,19,Jits_Linear_5,2,5,63,98,2489336128
11319,19,Jits_Linear_5,3,5,80,127,2489346548
11319,19,Jits_Linear_5,0,5,63,98,2489955788
11319,19,Jits_Linear_5,1,5,80,127,2489965908
11319,19,Jits_Linear_5,2,5,56,103,2489986592
11319,19,Jits_Linear_5,3,1,48,61,2489992256
11319,19,Jits_Linear_5,0,5,63,98,2490645924
11319,19,Jits_Linear_5,1,1,48,63,2490655268
11319,19,Jits_Linear_5,2,5,56,103,2490725740
11319,19,Jits_Linear_5,3,5,80,127,2490729028
11319,19,Jits_Linear_5,0,5,63,98,2491336004
11319,19,Jits_Linear_5,1,5,56,103,2491355492
11319,19,Jits_Linear_5,2,1,48,54,2491370896
11319,19,Jits_Linear_5,3,5,80,127,2491386356
11319,19,Jits_Linear_5,0,5,56,103,2492026240
11319,19,Jits_Linear_5,1,1,48,65,2492038724
11319,19,Jits_Linear_5,2,5,63,98,2492045720
11319,19,Jits_Linear_5,3,5,80,127,2492055844
11319,19,Jits_Linear_5,0,1,48,69,2492703236
11319,19,Jits_Linear_5,1,5,56,103,2492746080
11319,19,Jits_Linear_5,2,5,63,98,2492775904
11319,19,Jits_Linear_5,3,5,80,127,2492779268
11319,19,Jits_Linear_5,0,5,56,103,2493386092
11319,19,Jits_Linear_5,1,1,48,58,2493423592
11319,19,Jits_Linear_5,2,5,63,98,2493426100
11319,19,Jits_Linear_5,3,5,80,127,2493485448
11319,19,Jits_Linear_5,0,5,56,103,2494095680
11319,19,Jits_Linear_5,1,5,63,98,2494106096
11319,19,Jits_Linear_5,2,1,48,57,2494135968
11319,19,Jits_Linear_5,3,5,80,127,2494166556
11319,19,Jits_Linear_5,0,5,56,103,2494796264
11319,19,Jits_Linear_5,1,1,48,62,2494797304
11319,19,Jits_Linear_5,2,5,80,127,2494815596
11319,19,Jits_Linear_5,3,5,63,98,2494846396
11319,19,Jits_Linear_5,0,5,80,127,2495495484
11319,19,Jits_Linear_5,1,5,56,103,2495505976
11319,19,Jits_Linear_5,2,1,48,60,2495506940
11319,19,Jits_Linear_5,3,5,63,98,2495526352
11319,19,Jits_Linear_5,0,5,63,98,2496185732
11319,19,Jits_Linear_5,1,1,48,59,2496191464
11319,19,Jits_Linear_5,2,5,80,127,2496265672
11319,19,Jits_Linear_5,3,5,56,103,2496276092
11319,19,Jits_Linear_5,0,1,48,59,2496935352
11319,19,Jits_Linear_5,1,5,80,127,2496945416
11319,19,Jits_Linear_5,2,5,56,103,2496966172
11319,19,Jits_Linear_5,3,5,63,98,2496969092
11319,19,Jits_Linear_5,0,5,63,98,2497625308
11319,19,Jits_Linear_5,1,5,80,127,2497628680
11319,19,Jits_Linear_5,2,1,48,57,2497666200
11319,19,Jits_Linear_5,3,5,56,103,2497685996
11319,19,Jits_Linear_5,0,5,56,103,2498315668
11319,19,Jits_Linear_5,1,5,80,127,2498325940
11319,19,Jits_Linear_5,2,1,48,59,2498351852
11319,19,Jits_Linear_5,3,5,63,98,2498365748
11319,19,Jits_Linear_5,0,5,56,103,2499005764
11319,19,Jits_Linear_5,1,1,48,63,2499043508
11319,19,Jits_Linear_5,2,5,63,98,2499066376
11319,19,Jits_Linear_5,3,5,80,127,2499075376
11319,19,Jits_Linear_5,0,1,48,57,2499722424
11319,19,Jits_Linear_5,1,5,63,98,2499725676
11319,19,Jits_Linear_5,2,5,80,127,2499765692
11319,19,Jits_Linear_5,3,5,56,103,2499805484
11319,19,Jits_Linear_5,0,5,56,103,2500436520
11319,19,Jits_Linear_5,1,1,48,34,2500506400
11319,19,Jits_Linear_5,2,5,63,98,2500516312
11319,19,Jits_Linear_5,3,5,80,127,2500519676
11319,19,Jits_Linear_5,0,1,48,60,2501166224
11319,19,Jits_Linear_5,1,5,80,127,2501206332
11319,19,Jits_Linear_5,2,5,56,103,2501236156
11319,19,Jits_Linear_5,3,5,63,98,2501239296
11319,19,Jits_Linear_5,0,5,56,103,2501886500
11319,19,Jits_Linear_5,1,5,80,127,2501905840
11319,19,Jits_Linear_5,2,1,48,65,2501913296
11319,19,Jits_Linear_5,3,5,63,98,2501945648
11319,19,Jits_Linear_5,0,5,80,127,2502585672
11319,19,Jits_Linear_5,1,5,63,98,2502606280
11319,19,Jits_Linear_5,2,1,48,61,2502627384
11319,19,Jits_Linear_5,3,5,56,103,2502665616
11319,19,Jits_Linear_5,0,1,48,78,2503307876
11319,19,Jits_Linear_5,1,5,63,98,2503315772
11319,19,Jits_Linear_5,2,5,56,103,2503326340
11319,19,Jits_Linear_5,3,5,80,127,2503376468
11319,19,Jits_Linear_5,0,1,48,75,2504009720
11319,19,Jits_Linear_5,1,5,56,103,2504025488
11319,19,Jits_Linear_5,2,5,63,98,2504046024
11319,19,Jits_Linear_5,3,5,80,127,2504056220
11319,19,Jits_Linear_5,0,1,48,63,2504709452
11319,19,Jits_Linear_5,1,5,56,103,2504746340
11319,19,Jits_Linear_5,2,5,63,98,2504749556
11319,19,Jits_Linear_5,3,5,80,127,2504765900
11319,19,Jits_Linear_5,0,1,48,63,2505448268
11319,19,Jits_Linear_5,1,5,63,98,2505516552
11319,19,Jits_Linear_5,2,5,56,103,2505547508
11319,19,Jits_Linear_5,3,5,80,127,2505575768
11319,19,Jits_Linear_5,0,5,80,127,2506205528
11319,19,Jits_Linear_5,1,1,48,63,2506247756
11319,19,Jits_Linear_5,2,5,56,103,2506295608
11319,19,Jits_Linear_5,3,5,63,98,2506298748
11319,19,Jits_Linear_5,0,5,56,103,2506935628
11319,19,Jits_Linear_5,1,5,80,127,2506938620
11319,19,Jits_Linear_5,2,1,48,63,2507006104
11319,19,Jits_Linear_5,3,5,63,98,2507015416
11319,19,Jits_Linear_5,0,5,80,127,2507665652
11319,19,Jits_Linear_5,1,1,48,54,2507686680
11319,19,Jits_Linear_5,2,5,63,98,2507726116
11319,19,Jits_Linear_5,3,5,56,103,2507755864
11319,19,Jits_Linear_5,0,5,63,98,2508395760
11319,19,Jits_Linear_5,1,5,80,127,2508406104
11319,19,Jits_Linear_5,2,1,48,62,2508457248
11319,19,Jits_Linear_5,3,5,56,103,2508475780
11319,19,Jits_Linear_5,0,5,56,103,2509145408
11319,19,Jits_Linear_5,1,1,48,68,2509157140
11319,19,Jits_Linear_5,2,5,80,127,2509176196
11319,19,Jits_Linear_5,3,5,63,98,2509226324
11319,19,Jits_Linear_5,0,1,48,71,2509901248
11319,19,Jits_Linear_5,1,5,63,98,2509925708
11319,19,Jits_Linear_5,2,5,56,103,2509955528
11319,19,Jits_Linear_5,3,5,80,127,2509958596
11319,19,Jits_Linear_5,0,1,48,70,2510643640
11319,19,Jits_Linear_5,1,5,63,98,2510676248
11319,19,Jits_Linear_5,2,5,80,127,2510695888
11319,19,Jits_Linear_5,3,5,56,103,2510706304
11319,19,Jits_Linear_5,0,1,48,70,2511409836
11319,19,Jits_Linear_5,1,5,56,103,2511425900
11319,19,Jits_Linear_5,2,5,63,98,2511428964
11319,19,Jits_Linear_5,3,5,80,127,2511446432
11319,19,Jits_Linear_5,0,5,56,103,2512126372
11319,19,Jits_Linear_5,1,5,63,98,2512135524
11319,19,Jits_Linear_5,2,1,48,74,2512145468
11319,19,Jits_Linear_5,3,5,80,127,2512166164
11319,19,Jits_Linear_5,0,1,48,70,2512869632
11319,19,Jits_Linear_5,1,5,63,98,2512896408
11319,19,Jits_Linear_5,2,5,80,127,2512915748
11319,19,Jits_Linear_5,3,5,56,103,2512955712
11319,19,Jits_Linear_5,0,1,48,81,2513664848
11319,19,Jits_Linear_5,1,5,56,103,2513675512
11319,19,Jits_Linear_5,2,5,63,98,2513715548
11319,19,Jits_Linear_5,3,5,80,127,2513719136
11319,19,Jits_Linear_5,0,5,80,127,2514365968
11319,19,Jits_Linear_5,1,5,56,103,2514405688
11319,19,Jits_Linear_5,2,1,48,74,2514414504
11319,19,Jits_Linear_5,3,5,63,98,2514456180
11319,19,Jits_Linear_5,0,1,48,62,2515166100
11319,19,Jits_Linear_5,1,5,56,103,2515175644
11319,19,Jits_Linear_5,2,5,80,127,2515186064
11319,19,Jits_Linear_5,3,5,63,98,2515215816
11319,19,Jits_Linear_5,0,5,56,103,2515876228
11319,19,Jits_Linear_5,1,5,80,127,2515916096
11319,19,Jits_Linear_5,2,1,48,62,2515927608
11319,19,Jits_Linear_5,3,5,63,98,2515966216
11319,19,Jits_Linear_5,0,5,56,103,2516636088
11319,19,Jits_Linear_5,1,1,48,55,2516676400
11319,19,Jits_Linear_5,2,5,80,127,2516677588
11319,19,Jits_Linear_5,3,5,63,98,2516726148
11319,19,Jits_Linear_5,0,5,80,127,2517385600
11319,19,Jits_Linear_5,1,1,48,72,2517459516
11319,19,Jits_Linear_5,2,5,63,98,2517465468
11319,19,Jits_Linear_5,3,5,56,103,2517475664
11319,19,Jits_Linear_5,0,5,80,127,2518195428
11319,19,Jits_Linear_5,1,5,56,103,2518206072
11319,19,Jits_Linear_5,2,1,48,68,2518212932
11319,19,Jits_Linear_5,3,5,63,98,2518226228
11319,19,Jits_Linear_5,0,5,63,98,2518925612
11319,19,Jits_Linear_5,1,1,48,76,2518932392
11319,19,Jits_Linear_5,2,5,56,103,2518996260
11319,19,Jits_Linear_5,3,5,80,127,2518999328
11319,19,Jits_Linear_5,0,5,80,127,2519685364
11319,19,Jits_Linear_5,1,1,48,72,2519690428
11319,19,Jits_Linear_5,2,5,63,98,2519735636
11319,19,Jits_Linear_5,3,5,56,103,2519775648
11319,19,Jits_Linear_5,0,1,48,85,2520477092
11319,19,Jits_Linear_5,1,5,63,98,2520495476
11319,19,Jits_Linear_5,2,5,56,103,2520536540
11319,19,Jits_Linear_5,3,5,80,127,2520545764
11319,19,Jits_Linear_5,0,5,63,98,2521256444
11319,19,Jits_Linear_5,1,1,48,78,2521258528
11319,19,Jits_Linear_5,2,5,56,103,2521275700
11319,19,Jits_Linear_5,3,5,80,127,2521296384
11319,19,Jits_Linear_5,0,5,80,127,2521986388
11319,19,Jits_Linear_5,1,5,56,103,2521995612
11319,19,Jits_Linear_5,2,5,63,98,2522016068
11319,19,Jits_Linear_5,3,1,48,65,2522042108
11319,19,Jits_Linear_5,0,1,48,76,2522769052
11319,19,Jits_Linear_5,1,5,63,98,2522786088
11319,19,Jits_Linear_5,2,5,56,103,2522826032
11319,19,Jits_Linear_5,3,5,80,127,2522856004
11319,19,Jits_Linear_5,0,1,48,49,2523555948
11319,19,Jits_Linear_5,1,5,56,103,2523565336
11319,19,Jits_Linear_5,2,5,63,98,2523596356
11319,19,Jits_Linear_5,3,5,80,127,2523625884
11319,19,Jits_Linear_5,0,5,80,127,2524315888
11319,19,Jits_Linear_5,1,1,48,79,2524333700
11319,19,Jits_Linear_5,2,5,56,103,2524385640
11319,19,Jits_Linear_5,3,5,63,98,2524388780
11319,19,Jits_Linear_5,0,5,56,103,2525105400
11319,19,Jits_Linear_5,1,1,48,55,2525115792
11319,19,Jits_Linear_5,2,5,63,98,2525155972
11319,19,Jits_Linear_5,3,5,80,127,2525186396
11319,19,Jits_Linear_5,0,5,63,98,2525866372
11319,19,Jits_Linear_5,1,5,80,127,2525869812
11319,19,Jits_Linear_5,2,1,48,58,2525881776
11319,19,Jits_Linear_5,3,5,56,103,2525926156
11319,19,Jits_Linear_5,0,1,48,57,2526635164
11319,19,Jits_Linear_5,1,5,56,103,2526676392
11319,19,Jits_Linear_5,2,5,80,127,2526685688
11319,19,Jits_Linear_5,3,5,63,98,2526736024
11319,19,Jits_Linear_5,0,1,48,61,2527404516
11319,19,Jits_Linear_5,1,5,63,98,2527436008
11319,19,Jits_Linear_5,2,5,56,103,2527446500
11319,19,Jits_Linear_5,3,5,80,127,2527476100
11319,19,Jits_Linear_5,0,1,48,57,2528185404
11319,19,Jits_Linear_5,1,5,63,98,2528256300
11319,19,Jits_Linear_5,2,5,80,127,2528259960
11319,19,Jits_Linear_5,3,5,56,103,2528286108
11319,19,Jits_Linear_5,0,1,48,59,2529029732
11319,19,Jits_Linear_5,1,5,63,98,2529066328
11319,19,Jits_Linear_5,2,5,56,103,2529085836
11319,19,Jits_Linear_5,3,5,80,127,2529088904
11319,19,Jits_Linear_5,0,5,63,98,2529815972
11319,19,Jits_Linear_5,1,1,48,58,2529829652
11319,19,Jits_Linear_5,2,5,56,103,2529885600
11319,19,Jits_Linear_5,3,5,80,127,2529905984
11319,19,Jits_Linear_5,0,5,56,103,2530596264
11319,19,Jits_Linear_5,1,5,63,98,2530605436
11319,19,Jits_Linear_5,2,1,48,61,2530631328
11319,19,Jits_Linear_5,3,5,80,127,2530695712
11319,19,Jits_Linear_5,0,1,48,59,2531394320
11319,19,Jits_Linear_5,1,5,56,103,2531406180
11319,19,Jits_Linear_5,2,5,80,127,2531446048
11319,19,Jits_Linear_5,3,5,63,98,2531456244
11319,19,Jits_Linear_5,0,1,48,54,2532191904
11319,19,Jits_Linear_5,1,5,56,103,2532226328
11319,19,Jits_Linear_5,2,5,63,98,2532256232
11319,19,Jits_Linear_5,3,5,80,127,2532286716
11319,19,Jits_Linear_5,0,5,80,127,2532986176
11319,19,Jits_Linear_5,1,1,48,66,2532993356
11319,19,Jits_Linear_5,2,5,63,98,2533026112
11319,19,Jits_Linear_5,3,5,56,103,2533045972
11319,19,Jits_Linear_5,0,1,48,66,2533784660
11319,19,Jits_Linear_5,1,5,56,103,2533825812
11319,19,Jits_Linear_5,2,5,80,127,2533846348
11319,19,Jits_Linear_5,3,5,63,98,2533865984
11319,19,Jits_Linear_5,0,1,48,69,2534576856
11319,19,Jits_Linear_5,1,5,63,98,2534596064
11319,19,Jits_Linear_5,2,5,56,103,2534606336
11319,19,Jits_Linear_5,3,5,80,127,2534665604
11319,19,Jits_Linear_5,0,1,48,70,2535372272
11319,19,Jits_Linear_5,1,5,56,103,2535405800
11319,19,Jits_Linear_5,2,5,63,98,2535475644
11319,19,Jits_Linear_5,3,5,80,127,2535496028
11319,19,Jits_Linear_5,0,1,48,59,2536195436
11319,19,Jits_Linear_5,1,5,56,103,2536215988
11319,19,Jits_Linear_5,2,5,63,98,2536245764
11319,19,Jits_Linear_5,3,5,80,127,2536285704
11319,19,Jits_Linear_5,0,1,48,60,2537011408
11319,19,Jits_Linear_5,1,5,63,98,2537015856
11319,19,Jits_Linear_5,2,5,56,103,2537065988
11319,19,Jits_Linear_5,3,5,80,127,2537076108
11319,19,Jits_Linear_5,0,5,56,103,2537865756
11319,19,Jits_Linear_5,1,1,48,68,2537871944
11319,19,Jits_Linear_5,2,5,63,98,2537915808
11319,19,Jits_Linear_5,3,5,80,127,2537925928
11319,19,Jits_Linear_5,0,5,56,103,2538645764
11319,19,Jits_Linear_5,1,5,63,98,2538656108
11319,19,Jits_Linear_5,2,1,48,58,2538675788
11319,19,Jits_Linear_5,3,5,80,127,2538736048
11319,19,Jits_Linear_5,0,9999,9999,9999,2429864008
11319,19,Jits_Linear_5,1,9999,9999,9999,2430343272
11319,19,Jits_Linear_5,2,9999,9999,9999,2430823536
11319,19,Jits_Linear_5,3,9999,9999,9999,2431303788
11319,19,Jits_Linear_5,4,9999,9999,9999,2431784064
11319,19,Jits_Linear_5,5,9999,9999,9999,2432273492
11319,19,Jits_Linear_5,6,9999,9999,9999,2432763984
11319,19,Jits_Linear_5,7,9999,9999,9999,2433253440
11319,19,Jits_Linear_5,8,9999,9999,9999,2433743936
11319,19,Jits_Linear_5,9,9999,9999,9999,2434233452
11319,19,Jits_Linear_5,10,9999,9999,9999,2434733152
11319,19,Jits_Linear_5,11,9999,9999,9999,2435233912
11319,19,Jits_Linear_5,12,9999,9999,9999,2435733596
11319,19,Jits_Linear_5,13,9999,9999,9999,2436233280
11319,19,Jits_Linear_5,14,9999,9999,9999,2436734016
11319,19,Jits_Linear_5,15,9999,9999,9999,2437243984
11319,19,Jits_Linear_5,16,9999,9999,9999,2437753936
11319,19,Jits_Linear_5,17,9999,9999,9999,2438263888
11319,19,Jits_Linear_5,18,9999,9999,9999,2438773840
11319,19,Jits_Linear_5,19,9999,9999,9999,2439283820
11319,19,Jits_Linear_5,20,9999,9999,9999,2439803972
11319,19,Jits_Linear_5,21,9999,9999,9999,2440323168
11319,19,Jits_Linear_5,22,9999,9999,9999,2440843320
11319,19,Jits_Linear_5,23,9999,9999,9999,2441363556
11319,19,Jits_Linear_5,24,9999,9999,9999,2441883712
11319,19,Jits_Linear_5,25,9999,9999,9999,2442413156
11319,19,Jits_Linear_5,26,9999,9999,9999,2442943564
11319,19,Jits_Linear_5,27,9999,9999,9999,2443474044
11319,19,Jits_Linear_5,28,9999,9999,9999,2444003420
11319,19,Jits_Linear_5,29,9999,9999,9999,2444533840
11319,19,Jits_Linear_5,30,9999,9999,9999,2445073476
11319,19,Jits_Linear_5,31,9999,9999,9999,2445613124
11319,19,Jits_Linear_5,32,9999,9999,9999,2446153828
11319,19,Jits_Linear_5,33,9999,9999,9999,2446693448
11319,19,Jits_Linear_5,34,9999,9999,9999,2447233140
11319,19,Jits_Linear_5,35,9999,9999,9999,2447784008
11319,19,Jits_Linear_5,36,9999,9999,9999,2448333880
11319,19,Jits_Linear_5,37,9999,9999,9999,2448883764
11319,19,Jits_Linear_5,38,9999,9999,9999,2449433728
11319,19,Jits_Linear_5,39,9999,9999,9999,2449983564
11319,19,Jits_Linear_5,40,9999,9999,9999,2450543716
11319,19,Jits_Linear_5,41,9999,9999,9999,2451103804
11319,19,Jits_Linear_5,42,9999,9999,9999,2451663968
11319,19,Jits_Linear_5,43,9999,9999,9999,2452224116
11319,19,Jits_Linear_5,44,9999,9999,9999,2452793428
11319,19,Jits_Linear_5,45,9999,9999,9999,2453363768
11319,19,Jits_Linear_5,46,9999,9999,9999,2453933132
11319,19,Jits_Linear_5,47,9999,9999,9999,2454503484
11319,19,Jits_Linear_5,48,9999,9999,9999,2455073896
11319,19,Jits_Linear_5,49,9999,9999,9999,2455643236
11319,19,Jits_Linear_5,50,9999,9999,9999,2456223828
11319,19,Jits_Linear_5,51,9999,9999,9999,2456803396
11319,19,Jits_Linear_5,52,9999,9999,9999,2457384016
11319,19,Jits_Linear_5,53,9999,9999,9999,2457963612
11319,19,Jits_Linear_5,54,9999,9999,9999,2458543164
11319,19,Jits_Linear_5,55,9999,9999,9999,2459134044
11319,19,Jits_Linear_5,56,9999,9999,9999,2459723904
11319,19,Jits_Linear_5,57,9999,9999,9999,2460313656
11319,19,Jits_Linear_5,58,9999,9999,9999,2460903488
11319,19,Jits_Linear_5,59,9999,9999,9999,2461493316
11319,19,Jits_Linear_5,60,9999,9999,9999,2462093416
11319,19,Jits_Linear_5,61,9999,9999,9999,2462693492
11319,19,Jits_Linear_5,62,9999,9999,9999,2463293524
11319,19,Jits_Linear_5,63,9999,9999,9999,2463893600
11319,19,Jits_Linear_5,64,9999,9999,9999,2464493684
11319,19,Jits_Linear_5,65,9999,9999,9999,2465103968
11319,19,Jits_Linear_5,66,9999,9999,9999,2465713208
11319,19,Jits_Linear_5,67,9999,9999,9999,2466323540
11319,19,Jits_Linear_5,68,9999,9999,9999,2466933852
11319,19,Jits_Linear_5,69,9999,9999,9999,2467543152
11319,19,Jits_Linear_5,70,9999,9999,9999,2468163700
11319,19,Jits_Linear_5,71,9999,9999,9999,2468783200
11319,19,Jits_Linear_5,72,9999,9999,9999,2469403732
11319,19,Jits_Linear_5,73,9999,9999,9999,2470023244
11319,19,Jits_Linear_5,74,9999,9999,9999,2470643780
11319,19,Jits_Linear_5,75,9999,9999,9999,2471273556
11319,19,Jits_Linear_5,76,9999,9999,9999,2471903312
11319,19,Jits_Linear_5,77,9999,9999,9999,2472534132
11319,19,Jits_Linear_5,78,9999,9999,9999,2473174092
11319,19,Jits_Linear_5,79,9999,9999,9999,2473814068
11319,19,Jits_Linear_5,80,9999,9999,9999,2474454088
11319,19,Jits_Linear_5,81,9999,9999,9999,2475094128
11319,19,Jits_Linear_5,82,9999,9999,9999,2475734084
11319,19,Jits_Linear_5,83,9999,9999,9999,2476374120
11319,19,Jits_Linear_5,84,9999,9999,9999,2477014080
11319,19,Jits_Linear_5,85,9999,9999,9999,2477673596
11319,19,Jits_Linear_5,86,9999,9999,9999,2478323796
11319,19,Jits_Linear_5,87,9999,9999,9999,2478974040
11319,19,Jits_Linear_5,88,9999,9999,9999,2479623268
11319,19,Jits_Linear_5,89,9999,9999,9999,2480273512
11319,19,Jits_Linear_5,90,9999,9999,9999,2480933984
11319,19,Jits_Linear_5,91,9999,9999,9999,2481593432
11319,19,Jits_Linear_5,92,9999,9999,9999,2482253924
11319,19,Jits_Linear_5,93,9999,9999,9999,2482913348
11319,19,Jits_Linear_5,94,9999,9999,9999,2483573836
11319,19,Jits_Linear_5,95,9999,9999,9999,2484243532
11319,19,Jits_Linear_5,96,9999,9999,9999,2484913244
11319,19,Jits_Linear_5,97,9999,9999,9999,2485583996
11319,19,Jits_Linear_5,98,9999,9999,9999,2486253680
11319,19,Jits_Linear_5,99,9999,9999,9999,2486923388
11319,19,Jits_Linear_5,100,9999,9999,9999,2487603284
11319,19,Jits_Linear_5,101,9999,9999,9999,2488283248
11319,19,Jits_Linear_5,102,9999,9999,9999,2488963152
11319,19,Jits_Linear_5,103,9999,9999,9999,2489643116
11319,19,Jits_Linear_5,104,9999,9999,9999,2490324052
11319,19,Jits_Linear_5,105,9999,9999,9999,2491013240
11319,19,Jits_Linear_5,106,9999,9999,9999,2491703400
11319,19,Jits_Linear_5,107,9999,9999,9999,2492393536
11319,19,Jits_Linear_5,108,9999,9999,9999,2493083708
11319,19,Jits_Linear_5,109,9999,9999,9999,2493773944
11319,19,Jits_Linear_5,110,9999,9999,9999,2494473312
11319,19,Jits_Linear_5,111,9999,9999,9999,2495173752
11319,19,Jits_Linear_5,112,9999,9999,9999,2495873140
11319,19,Jits_Linear_5,113,9999,9999,9999,2496573508
11319,19,Jits_Linear_5,114,9999,9999,9999,2497273976
11319,19,Jits_Linear_5,115,9999,9999,9999,2497983612
11319,19,Jits_Linear_5,116,9999,9999,9999,2498693180
11319,19,Jits_Linear_5,117,9999,9999,9999,2499403880
11319,19,Jits_Linear_5,118,9999,9999,9999,2500113508
11319,19,Jits_Linear_5,119,9999,9999,9999,2500823144
11319,19,Jits_Linear_5,120,9999,9999,9999,2501544032
11319,19,Jits_Linear_5,121,9999,9999,9999,2502263864
11319,19,Jits_Linear_5,122,9999,9999,9999,2502983780
11319,19,Jits_Linear_5,123,9999,9999,9999,2503703676
11319,19,Jits_Linear_5,124,9999,9999,9999,2504423508
11319,19,Jits_Linear_5,125,9999,9999,9999,2505153640
11319,19,Jits_Linear_5,126,9999,9999,9999,2505883736
11319,19,Jits_Linear_5,127,9999,9999,9999,2506613820
11319,19,Jits_Linear_5,128,9999,9999,9999,2507343996
11319,19,Jits_Linear_5,129,9999,9999,9999,2508074080
11319,19,Jits_Linear_5,130,9999,9999,9999,2508813396
11319,19,Jits_Linear_5,131,9999,9999,9999,2509553756
11319,19,Jits_Linear_5,132,9999,9999,9999,2510294120
11319,19,Jits_Linear_5,133,9999,9999,9999,2511043700
11319,19,Jits_Linear_5,134,9999,9999,9999,2511784052
11319,19,Jits_Linear_5,135,9999,9999,9999,2512533624
11319,19,Jits_Linear_5,136,9999,9999,9999,2513283140
11319,19,Jits_Linear_5,137,9999,9999,9999,2514033764
11319,19,Jits_Linear_5,138,9999,9999,9999,2514783340
11319,19,Jits_Linear_5,139,9999,9999,9999,2515533908
11319,19,Jits_Linear_5,140,9999,9999,9999,2516293752
11319,19,Jits_Linear_5,141,9999,9999,9999,2517053532
11319,19,Jits_Linear_5,142,9999,9999,9999,2517813308
11319,19,Jits_Linear_5,143,9999,9999,9999,2518573164
11319,19,Jits_Linear_5,144,9999,9999,9999,2519333956
11319,19,Jits_Linear_5,145,9999,9999,9999,2520104052
11319,19,Jits_Linear_5,146,9999,9999,9999,2520874092
11319,19,Jits_Linear_5,147,9999,9999,9999,2521643068
11319,19,Jits_Linear_5,148,9999,9999,9999,2522413116
11319,19,Jits_Linear_5,149,9999,9999,9999,2523183160
11319,19,Jits_Linear_5,150,9999,9999,9999,2523963452
11319,19,Jits_Linear_5,151,9999,9999,9999,2524743736
11319,19,Jits_Linear_5,152,9999,9999,9999,2525524040
11319,19,Jits_Linear_5,153,9999,9999,9999,2526303360
11319,19,Jits_Linear_5,154,9999,9999,9999,2527083576
11319,19,Jits_Linear_5,155,9999,9999,9999,2527873080
11319,19,Jits_Linear_5,156,9999,9999,9999,2528663624
11319,19,Jits_Linear_5,157,9999,9999,9999,2529453120
11319,19,Jits_Linear_5,158,9999,9999,9999,2530243680
11319,19,Jits_Linear_5,159,9999,9999,9999,2531033184
11319,19,Jits_Linear_5,160,9999,9999,9999,2531833940
11319,19,Jits_Linear_5,161,9999,9999,9999,2532633712
11319,19,Jits_Linear_5,162,9999,9999,9999,2533433436
11319,19,Jits_Linear_5,163,9999,9999,9999,2534233148
11319,19,Jits_Linear_5,164,9999,9999,9999,2535033964
11319,19,Jits_Linear_5,165,9999,9999,9999,2535843924
11319,19,Jits_Linear_5,166,9999,9999,9999,2536653888
11319,19,Jits_Linear_5,167,9999,9999,9999,2537463920
11319,19,Jits_Linear_5,168,9999,9999,9999,2538273884
11319,19,Jits_Linear_5,169,9999,9999,9999,2539083876
11320,3,ISIP_8,0,5,42,127,2608432476
11320,3,ISIP_8,1,5,42,127,2609233352
11320,3,ISIP_8,2,5,42,127,2610032960
11320,3,ISIP_8,3,5,42,127,2610832792
11320,3,ISIP_8,4,5,42,127,2611632472
11320,3,ISIP_8,5,1,48,64,2611639780
11320,3,ISIP_8,6,1,48,55,2612389980
11320,3,ISIP_8,7,5,42,127,2612433244
11320,3,ISIP_8,8,1,48,59,2613166376
11320,3,ISIP_8,9,5,42,127,2613233200
11320,3,ISIP_8,10,1,48,57,2613986004
11320,3,ISIP_8,11,5,42,127,2614032712
11320,3,ISIP_8,12,1,48,56,2614781920
11320,3,ISIP_8,13,5,42,127,2614832544
11320,3,ISIP_8,14,1,48,50,2615568496
11320,3,ISIP_8,15,5,42,127,2615633252
11320,3,ISIP_8,16,1,48,58,2616373784
11320,3,ISIP_8,17,5,42,127,2616433132
11320,3,ISIP_8,18,1,48,59,2617179652
11320,3,ISIP_8,19,5,42,127,2617232716
11320,3,ISIP_8,20,1,48,58,2617992920
11320,3,ISIP_8,21,5,42,127,2618032524
11320,3,ISIP_8,22,1,48,67,2618770364
11320,3,ISIP_8,23,5,42,127,2618833304
11320,3,ISIP_8,24,1,48,59,2619569124
11320,3,ISIP_8,25,5,42,127,2619633040
11320,3,ISIP_8,26,1,48,58,2620372304
11320,3,ISIP_8,27,5,42,127,2620432844
11320,3,ISIP_8,28,1,48,59,2621164632
11320,3,ISIP_8,29,5,42,127,2621232528
11320,3,ISIP_8,30,1,48,62,2621969372
11320,3,ISIP_8,31,5,42,127,2622033232
11320,3,ISIP_8,32,1,48,65,2622772648
11320,3,ISIP_8,33,5,42,127,2622833044
11320,3,ISIP_8,34,1,48,63,2623556896
11320,3,ISIP_8,35,5,42,127,2623632852
11320,3,ISIP_8,36,1,48,56,2624384380
11320,3,ISIP_8,37,5,42,127,2624432584
11320,3,ISIP_8,38,1,48,54,2625161824
11320,3,ISIP_8,39,5,42,127,2625233288
11320,3,ISIP_8,40,1,48,56,2625988860
11320,3,ISIP_8,41,5,42,127,2626033096
11320,3,ISIP_8,42,1,48,58,2626788144
11320,3,ISIP_8,43,5,42,127,2626832760
11320,3,ISIP_8,44,1,48,50,2627592296
11320,3,ISIP_8,45,5,42,127,2627632516
11320,3,ISIP_8,46,1,48,52,2628365472
11320,3,ISIP_8,47,5,42,127,2628433148
11320,3,ISIP_8,48,1,48,54,2629191112
11320,3,ISIP_8,49,5,42,127,2629233028
11320,3,ISIP_8,50,1,48,63,2630006100
11320,3,ISIP_8,51,5,42,127,2630032912
11320,3,ISIP_8,52,1,48,57,2630796412
11320,3,ISIP_8,53,5,42,127,2630832572
11320,3,ISIP_8,54,1,48,58,2631602052
11320,3,ISIP_8,55,5,42,127,2631633128
11320,3,ISIP_8,56,1,48,54,2632379724
11320,3,ISIP_8,57,1,48,62,2633162692
11320,3,ISIP_8,58,1,48,61,2633941260
11320,3,ISIP_8,59,1,48,63,2634739636
11320,3,ISIP_8,60,1,48,64,2635525976
11320,3,ISIP_8,61,1,48,61,2636280904
11320,3,ISIP_8,62,1,48,67,2637048468
11320,3,ISIP_8,63,1,48,64,2637818280
11320,3,ISIP_8,64,1,48,60,2638573052
11320,3,ISIP_8,65,1,48,69,2639327228
11320,3,ISIP_8,66,1,48,65,2640112748
11320,3,ISIP_8,67,1,48,67,2640862436
11320,3,ISIP_8,68,1,48,61,2641659248
11320,3,ISIP_8,69,1,48,65,2642395992
11320,3,ISIP_8,70,1,48,69,2643166256
11320,3,ISIP_8,71,1,48,65,2643937184
11320,3,ISIP_8,72,1,48,67,2644704004
11320,3,ISIP_8,73,1,48,59,2645476508
11320,3,ISIP_8,74,1,48,57,2646237344
11320,3,ISIP_8,75,1,48,63,2646989200
11320,3,ISIP_8,76,1,48,59,2647762672
11320,3,ISIP_8,77,1,48,64,2648538320
11320,3,ISIP_8,78,1,48,57,2649318824
11320,3,ISIP_8,79,1,48,59,2650104340
11320,3,ISIP_8,80,1,48,51,2650883128
11320,3,ISIP_8,81,1,48,59,2651662512
11320,3,ISIP_8,82,1,48,55,2652442720
11320,3,ISIP_8,83,1,48,56,2653222484
11320,3,ISIP_8,84,1,48,71,2653998052
11320,3,ISIP_8,85,1,48,66,2654762332
11320,3,ISIP_8,86,1,48,59,2655551436
11320,3,ISIP_8,87,1,48,67,2656325288
11320,3,ISIP_8,88,1,48,62,2657139228
11320,3,ISIP_8,89,1,48,69,2657896100
11320,3,ISIP_8,90,1,48,67,2658684536
11320,3,ISIP_8,91,1,48,65,2659466160
11320,3,ISIP_8,92,1,48,71,2660256844
11320,3,ISIP_8,93,1,48,72,2661043180
11320,3,ISIP_8,94,1,48,63,2661849792
11320,3,ISIP_8,95,1,48,65,2662619972
11320,3,ISIP_8,96,1,48,61,2663417684
11320,3,ISIP_8,97,1,48,60,2664219284
11320,3,ISIP_8,98,1,48,58,2665012384
11320,3,ISIP_8,99,1,48,61,2665815404
11320,3,ISIP_8,100,1,48,66,2666618792
11320,3,ISIP_8,101,1,48,55,2667443128
11320,3,ISIP_8,102,1,48,68,2668268216
11320,3,ISIP_8,103,1,48,74,2669066748
11320,3,ISIP_8,104,1,48,78,2669875780
11320,3,ISIP_8,105,1,48,75,2670683812
11320,3,ISIP_8,106,1,48,62,2671504784
11320,3,ISIP_8,107,1,48,66,2672309300
11320,3,ISIP_8,108,1,48,65,2673138048
11320,3,ISIP_8,109,1,48,64,2673953704
11320,3,ISIP_8,110,1,48,53,2674769248
11320,3,ISIP_8,111,1,48,59,2675608092
11320,3,ISIP_8,112,1,48,58,2676437308
11320,3,ISIP_8,113,1,48,62,2677275628
11320,3,ISIP_8,114,1,48,59,2678076656
11320,3,ISIP_8,115,1,48,66,2678901216
11320,3,ISIP_8,116,1,48,65,2679726452
11320,3,ISIP_8,117,1,48,66,2680526332
11320,3,ISIP_8,118,1,48,75,2681317908
11320,3,ISIP_8,119,1,48,70,2682156408
11320,3,ISIP_8,120,1,48,52,2682989420
11320,3,ISIP_8,121,1,48,55,2683818844
11320,3,ISIP_8,122,1,48,68,2684644756
11320,3,ISIP_8,123,1,48,61,2685497164
11320,3,ISIP_8,124,1,48,67,2686321576
11320,3,ISIP_8,125,1,48,63,2687124676
11320,3,ISIP_8,126,1,48,68,2687933300
11320,3,ISIP_8,127,1,48,66,2688772676
11320,3,ISIP_8,128,1,48,63,2689578560
11320,3,ISIP_8,129,1,48,59,2690388092
11320,3,ISIP_8,130,1,48,66,2691207864
11320,3,ISIP_8,131,1,48,70,2692035720
11320,3,ISIP_8,132,1,48,60,2692870900
11320,3,ISIP_8,133,1,48,70,2693711200
11320,3,ISIP_8,134,1,48,65,2694530820
11320,3,ISIP_8,135,1,48,63,2695332644
11320,3,ISIP_8,136,1,48,57,2696173744
11320,3,ISIP_8,137,1,48,59,2696990296
11320,3,ISIP_8,138,1,48,60,2697841136
11320,3,ISIP_8,139,1,48,53,2698669884
11320,3,ISIP_8,140,1,48,61,2699470140
11320,3,ISIP_8,141,1,48,69,2700265684
11320,3,ISIP_8,142,1,48,62,2701118312
11320,3,ISIP_8,143,1,48,65,2701938536
11320,3,ISIP_8,144,1,48,58,2702767812
11320,3,ISIP_8,145,1,48,56,2703608456
11320,3,ISIP_8,146,1,48,58,2704422796
11320,3,ISIP_8,147,1,48,48,2705231144
11320,3,ISIP_8,148,1,48,56,2706091608
11320,3,ISIP_8,149,1,48,52,2706945120
11320,3,ISIP_8,150,1,48,59,2707783392
11320,3,ISIP_8,151,1,48,51,2708624412
11320,3,ISIP_8,152,1,48,74,2709490788
11320,3,ISIP_8,153,1,48,71,2710277572
11320,3,ISIP_8,154,1,48,63,2711155940
11320,3,ISIP_8,155,1,48,64,2711982668
11320,3,ISIP_8,156,1,48,57,2712823164
11320,3,ISIP_8,157,1,48,61,2713640272
11320,3,ISIP_8,158,1,48,58,2714478368
11320,3,ISIP_8,159,1,48,56,2715311080
11320,3,ISIP_8,160,1,48,63,2716113728
11320,3,ISIP_8,161,1,48,45,2716972052
11320,3,ISIP_8,162,1,48,72,2717782476
11320,3,ISIP_8,163,1,48,74,2718598212
11320,3,ISIP_8,164,1,48,65,2719414844
11320,3,ISIP_8,165,1,48,68,2720252496
11320,3,ISIP_8,166,1,48,63,2721054616
11320,3,ISIP_8,167,1,48,65,2721880996
11320,3,ISIP_8,168,1,48,62,2722699432
11320,3,ISIP_8,169,1,48,61,2723482632
11320,3,ISIP_8,170,1,48,60,2724303448
11320,3,ISIP_8,171,1,48,65,2725108336
11320,3,ISIP_8,172,1,48,65,2725922380
11320,3,ISIP_8,173,1,48,59,2726725548
11320,3,ISIP_8,174,1,48,61,2727589380
11320,3,ISIP_8,175,1,48,66,2728374748
11320,3,ISIP_8,0,9999,9999,9999,2608430188
11320,3,ISIP_8,1,9999,9999,9999,2609230916
11320,3,ISIP_8,2,9999,9999,9999,2610030672
11320,3,ISIP_8,3,9999,9999,9999,2610830428
11320,3,ISIP_8,4,9999,9999,9999,2611630184
11320,3,ISIP_8,5,9999,9999,9999,2612430956
11320,3,ISIP_8,6,9999,9999,9999,2613230692
11320,3,ISIP_8,7,9999,9999,9999,2614030424
11320,3,ISIP_8,8,9999,9999,9999,2614830184
11320,3,ISIP_8,9,9999,9999,9999,2615630964
11320,3,ISIP_8,10,9999,9999,9999,2616430696
11320,3,ISIP_8,11,9999,9999,9999,2617230428
11320,3,ISIP_8,12,9999,9999,9999,2618030160
11320,3,ISIP_8,13,9999,9999,9999,2618830944
11320,3,ISIP_8,14,9999,9999,9999,2619630676
11320,3,ISIP_8,15,9999,9999,9999,2620430408
11320,3,ISIP_8,16,9999,9999,9999,2621230168
11320,3,ISIP_8,17,9999,9999,9999,2622030948
11320,3,ISIP_8,18,9999,9999,9999,2622830680
11320,3,ISIP_8,19,9999,9999,9999,2623630412
11320,3,ISIP_8,20,9999,9999,9999,2624430148
11320,3,ISIP_8,21,9999,9999,9999,2625230928
11320,3,ISIP_8,22,9999,9999,9999,2626030660
11320,3,ISIP_8,23,9999,9999,9999,2626830396
11320,3,ISIP_8,24,9999,9999,9999,2627630156
11320,3,ISIP_8,25,9999,9999,9999,2628430932
11320,3,ISIP_8,26,9999,9999,9999,2629230668
11320,3,ISIP_8,27,9999,9999,9999,2630030400
11320,3,ISIP_8,28,9999,9999,9999,2630830136
11320,3,ISIP_8,29,9999,9999,9999,2631630916
11320,3,ISIP_8,30,9999,9999,9999,2632430648
11320,3,ISIP_8,31,9999,9999,9999,2633230452
11320,3,ISIP_8,32,9999,9999,9999,2634030132
11320,3,ISIP_8,33,9999,9999,9999,2634830908
11320,3,ISIP_8,34,9999,9999,9999,2635630696
11320,3,ISIP_8,35,9999,9999,9999,2636430424
11320,3,ISIP_8,36,9999,9999,9999,2637230152
11320,3,ISIP_8,37,9999,9999,9999,2638030928
11320,3,ISIP_8,38,9999,9999,9999,2638830656
11320,3,ISIP_8,39,9999,9999,9999,2639630384
11320,3,ISIP_8,40,9999,9999,9999,2640430140
11320,3,ISIP_8,41,9999,9999,9999,2641230912
11320,3,ISIP_8,42,9999,9999,9999,2642030640
11320,3,ISIP_8,43,9999,9999,9999,2642830444
11320,3,ISIP_8,44,9999,9999,9999,2643630176
11320,3,ISIP_8,45,9999,9999,9999,2644430952
11320,3,ISIP_8,46,9999,9999,9999,2645230680
11320,3,ISIP_8,47,9999,9999,9999,2646030408
11320,3,ISIP_8,48,9999,9999,9999,2646830164
11320,3,ISIP_8,49,9999,9999,9999,2647630940
11320,3,ISIP_8,50,9999,9999,9999,2648430668
11320,3,ISIP_8,51,9999,9999,9999,2649230396
11320,3,ISIP_8,52,9999,9999,9999,2650030200
11320,3,ISIP_8,53,9999,9999,9999,2650830900
11320,3,ISIP_8,54,9999,9999,9999,2651630704
11320,3,ISIP_8,55,9999,9999,9999,2652430432
11320,3,ISIP_8,56,9999,9999,9999,2653230180
11320,3,ISIP_8,57,9999,9999,9999,2654030956
11320,3,ISIP_8,58,9999,9999,9999,2654830688
11320,3,ISIP_8,59,9999,9999,9999,2655630416
11320,3,ISIP_8,60,9999,9999,9999,2656430128
11320,3,ISIP_8,61,9999,9999,9999,2657230940
11320,3,ISIP_8,62,9999,9999,9999,2658030708
11320,3,ISIP_8,63,9999,9999,9999,2658830440
11320,3,ISIP_8,64,9999,9999,9999,2659630196
11320,3,ISIP_8,65,9999,9999,9999,2660430896
11320,3,ISIP_8,66,9999,9999,9999,2661230700
11320,3,ISIP_8,67,9999,9999,9999,2662030428
11320,3,ISIP_8,68,9999,9999,9999,2662830156
11320,3,ISIP_8,69,9999,9999,9999,2663630932
11320,3,ISIP_8,70,9999,9999,9999,2664430660
11320,3,ISIP_8,71,9999,9999,9999,2665230392
11320,3,ISIP_8,72,9999,9999,9999,2666030144
11320,3,ISIP_8,73,9999,9999,9999,2666830920
11320,3,ISIP_8,74,9999,9999,9999,2667630652
11320,3,ISIP_8,75,9999,9999,9999,2668430452
11320,3,ISIP_8,76,9999,9999,9999,2669230184
11320,3,ISIP_8,77,9999,9999,9999,2670030956
11320,3,ISIP_8,78,9999,9999,9999,2670830688
11320,3,ISIP_8,79,9999,9999,9999,2671630416
11320,3,ISIP_8,80,9999,9999,9999,2672430172
11320,3,ISIP_8,81,9999,9999,9999,2673230960
11320,3,ISIP_8,82,9999,9999,9999,2674030688
11320,3,ISIP_8,83,9999,9999,9999,2674830420
11320,3,ISIP_8,84,9999,9999,9999,2675630148
11320,3,ISIP_8,85,9999,9999,9999,2676430932
11320,3,ISIP_8,86,9999,9999,9999,2677230660
11320,3,ISIP_8,87,9999,9999,9999,2678030388
11320,3,ISIP_8,88,9999,9999,9999,2678830144
11320,3,ISIP_8,89,9999,9999,9999,2679630916
11320,3,ISIP_8,90,9999,9999,9999,2680430648
11320,3,ISIP_8,91,9999,9999,9999,2681230452
11320,3,ISIP_8,92,9999,9999,9999,2682030180
11320,3,ISIP_8,93,9999,9999,9999,2682830960
11320,3,ISIP_8,94,9999,9999,9999,2683630688
11320,3,ISIP_8,95,9999,9999,9999,2684430416
11320,3,ISIP_8,96,9999,9999,9999,2685230172
11320,3,ISIP_8,97,9999,9999,9999,2686030948
11320,3,ISIP_8,98,9999,9999,9999,2686830676
11320,3,ISIP_8,99,9999,9999,9999,2687630408
11320,3,ISIP_8,100,9999,9999,9999,2688430136
11320,3,ISIP_8,101,9999,9999,9999,2689230912
11320,3,ISIP_8,102,9999,9999,9999,2690030640
11320,3,ISIP_8,103,9999,9999,9999,2690830444
11320,3,ISIP_8,104,9999,9999,9999,2691630200
11320,3,ISIP_8,105,9999,9999,9999,2692430900
11320,3,ISIP_8,106,9999,9999,9999,2693230704
11320,3,ISIP_8,107,9999,9999,9999,2694030432
11320,3,ISIP_8,108,9999,9999,9999,2694830164
11320,3,ISIP_8,109,9999,9999,9999,2695630940
11320,3,ISIP_8,110,9999,9999,9999,2696430668
11320,3,ISIP_8,111,9999,9999,9999,2697230396
11320,3,ISIP_8,112,9999,9999,9999,2698030148
11320,3,ISIP_8,113,9999,9999,9999,2698830928
11320,3,ISIP_8,114,9999,9999,9999,2699630656
11320,3,ISIP_8,115,9999,9999,9999,2700430384
11320,3,ISIP_8,116,9999,9999,9999,2701230188
11320,3,ISIP_8,117,9999,9999,9999,2702030964
11320,3,ISIP_8,118,9999,9999,9999,2702830708
11320,3,ISIP_8,119,9999,9999,9999,2703630440
11320,3,ISIP_8,120,9999,9999,9999,2704430192
11320,3,ISIP_8,121,9999,9999,9999,2705230932
11320,3,ISIP_8,122,9999,9999,9999,2706030704
11320,3,ISIP_8,123,9999,9999,9999,2706830436
11320,3,ISIP_8,124,9999,9999,9999,2707630164
11320,3,ISIP_8,125,9999,9999,9999,2708430940
11320,3,ISIP_8,126,9999,9999,9999,2709230672
11320,3,ISIP_8,127,9999,9999,9999,2710030400
11320,3,ISIP_8,128,9999,9999,9999,2710830152
11320,3,ISIP_8,129,9999,9999,9999,2711630928
11320,3,ISIP_8,130,9999,9999,9999,2712430656
11320,3,ISIP_8,131,9999,9999,9999,2713230388
11320,3,ISIP_8,132,9999,9999,9999,2714030188
11320,3,ISIP_8,133,9999,9999,9999,2714830964
11320,3,ISIP_8,134,9999,9999,9999,2715630696
11320,3,ISIP_8,135,9999,9999,9999,2716430424
11320,3,ISIP_8,136,9999,9999,9999,2717230176
11320,3,ISIP_8,137,9999,9999,9999,2718030952
11320,3,ISIP_8,138,9999,9999,9999,2718830680
11320,3,ISIP_8,139,9999,9999,9999,2719630412
11320,3,ISIP_8,140,9999,9999,9999,2720430140
11320,3,ISIP_8,141,9999,9999,9999,2721230916
11320,3,ISIP_8,142,9999,9999,9999,2722030644
11320,3,ISIP_8,143,9999,9999,9999,2722830448
11320,3,ISIP_8,144,9999,9999,9999,2723630128
11320,3,ISIP_8,145,9999,9999,9999,2724430904
11320,3,ISIP_8,146,9999,9999,9999,2725230708
11320,3,ISIP_8,147,9999,9999,9999,2726030436
11320,3,ISIP_8,148,9999,9999,9999,2726830164
11320,3,ISIP_8,149,9999,9999,9999,2727630956
11322,5,ISIP_5,0,5,42,127,2931389836
11322,5,ISIP_5,1,5,42,127,2931889404
11322,5,ISIP_5,2,5,42,127,2932390392
11322,5,ISIP_5,3,5,42,127,2932889960
11322,5,ISIP_5,4,1,48,62,2933384628
11322,5,ISIP_5,5,5,42,127,2933389672
11322,5,ISIP_5,6,1,48,70,2933876688
11322,5,ISIP_5,7,5,42,127,2933890416
11322,5,ISIP_5,8,1,48,76,2934364496
11322,5,ISIP_5,9,5,42,127,2934390408
11322,5,ISIP_5,10,1,48,70,2934832552
11322,5,ISIP_5,11,5,42,127,2934890028
11322,5,ISIP_5,12,1,48,70,2935351620
11322,5,ISIP_5,13,5,42,127,2935389500
11322,5,ISIP_5,14,1,48,71,2935877044
11322,5,ISIP_5,15,5,42,127,2935890316
11322,5,ISIP_5,16,1,48,65,2936383464
11322,5,ISIP_5,17,5,42,127,2936390156
11322,5,ISIP_5,18,1,48,63,2936876208
11322,5,ISIP_5,19,5,42,127,2936889704
11322,5,ISIP_5,20,1,48,67,2937377396
11322,5,ISIP_5,21,5,42,127,2937389472
11322,5,ISIP_5,22,1,48,73,2937869212
11322,5,ISIP_5,23,5,42,127,2937890140
11322,5,ISIP_5,24,1,48,67,2938369728
11322,5,ISIP_5,25,5,42,127,2938389960
11322,5,ISIP_5,26,1,48,74,2938874708
11322,5,ISIP_5,27,5,42,127,2938889628
11322,5,ISIP_5,28,1,48,72,2939368268
11322,5,ISIP_5,29,5,42,127,2939390372
11322,5,ISIP_5,30,1,48,67,2939868864
11322,5,ISIP_5,31,5,42,127,2939890140
11322,5,ISIP_5,32,1,48,61,2940359360
11322,5,ISIP_5,33,5,42,127,2940389688
11322,5,ISIP_5,34,1,48,66,2940850680
11322,5,ISIP_5,35,5,42,127,2940889460
11322,5,ISIP_5,36,1,48,68,2941336616
11322,5,ISIP_5,37,5,42,127,2941390128
11322,5,ISIP_5,38,1,48,78,2941858372
11322,5,ISIP_5,39,5,42,127,2941890044
11322,5,ISIP_5,40,1,48,65,2942353732
11322,5,ISIP_5,41,5,42,127,2942389516
11322,5,ISIP_5,42,1,48,75,2942871152
11322,5,ISIP_5,43,5,42,127,2942890260
11322,5,ISIP_5,44,1,48,68,2943370920
11322,5,ISIP_5,45,5,42,127,2943390028
11322,5,ISIP_5,46,1,48,66,2943851844
11322,5,ISIP_5,47,5,42,127,2943889724
11322,5,ISIP_5,48,1,48,69,2944351084
11322,5,ISIP_5,49,5,42,127,2944389492
11322,5,ISIP_5,50,1,48,70,2944845692
11322,5,ISIP_5,51,5,42,127,2944890160
11322,5,ISIP_5,52,1,48,59,2945356164
11322,5,ISIP_5,53,5,42,127,2945390076
11322,5,ISIP_5,54,1,48,73,2945855560
11322,5,ISIP_5,55,5,42,127,2945889696
11322,5,ISIP_5,56,1,48,64,2946347248
11322,5,ISIP_5,57,5,42,127,2946390368
11322,5,ISIP_5,58,1,48,67,2946860856
11322,5,ISIP_5,59,5,42,127,2946890060
11322,5,ISIP_5,60,1,48,76,2947354792
11322,5,ISIP_5,61,5,42,127,2947389828
11322,5,ISIP_5,62,1,48,62,2947832768
11322,5,ISIP_5,63,5,42,127,2947889600
11322,5,ISIP_5,64,1,48,65,2948378336
11322,5,ISIP_5,65,5,42,127,2948390192
11322,5,ISIP_5,66,5,42,127,2948890040
11322,5,ISIP_5,67,1,48,64,2948894656
11322,5,ISIP_5,68,5,42,127,2949389636
11322,5,ISIP_5,69,1,48,56,2949434068
11322,5,ISIP_5,70,5,42,127,2949890304
11322,5,ISIP_5,71,1,48,58,2949901724
11322,5,ISIP_5,72,1,48,59,2950383976
11322,5,ISIP_5,73,5,42,127,2950389992
11322,5,ISIP_5,74,1,48,65,2950878656
11322,5,ISIP_5,75,5,42,127,2950889984
11322,5,ISIP_5,76,1,48,65,2951366084
11322,5,ISIP_5,77,1,48,63,2951869140
11322,5,ISIP_5,78,1,48,64,2952372572
11322,5,ISIP_5,79,1,48,71,2952862088
11322,5,ISIP_5,80,1,48,65,2953354528
11322,5,ISIP_5,81,1,48,63,2953840828
11322,5,ISIP_5,82,1,48,65,2954337220
11322,5,ISIP_5,83,1,48,60,2954829584
11322,5,ISIP_5,84,1,48,66,2955328004
11322,5,ISIP_5,85,1,48,65,2955817820
11322,5,ISIP_5,86,1,48,62,2956298712
11322,5,ISIP_5,87,1,48,64,2956802220
11322,5,ISIP_5,88,1,48,63,2957298092
11322,5,ISIP_5,89,1,48,69,2957790676
11322,5,ISIP_5,90,1,48,54,2958301216
11322,5,ISIP_5,91,1,48,57,2958785720
11322,5,ISIP_5,92,1,48,64,2959296928
11322,5,ISIP_5,93,1,48,57,2959773884
11322,5,ISIP_5,94,1,48,47,2960297652
11322,5,ISIP_5,95,1,48,51,2960790164
11322,5,ISIP_5,96,1,48,48,2961290976
11322,5,ISIP_5,97,1,48,52,2961774664
11322,5,ISIP_5,98,1,48,54,2962273604
11322,5,ISIP_5,99,1,48,51,2962770600
11322,5,ISIP_5,100,1,48,59,2963248752
11322,5,ISIP_5,101,1,48,72,2963734680
11322,5,ISIP_5,102,1,48,55,2964243020
11322,5,ISIP_5,103,1,48,74,2964746148
11322,5,ISIP_5,104,1,48,58,2965247116
11322,5,ISIP_5,105,1,48,56,2965739624
11322,5,ISIP_5,106,1,48,60,2966241336
11322,5,ISIP_5,107,1,48,58,2966732492
11322,5,ISIP_5,108,1,48,55,2967251260
11322,5,ISIP_5,109,1,48,60,2967750728
11322,5,ISIP_5,110,1,48,60,2968244056
11322,5,ISIP_5,111,1,48,62,2968739408
11322,5,ISIP_5,112,1,48,67,2969248376
11322,5,ISIP_5,113,1,48,64,2969767512
11322,5,ISIP_5,114,1,48,55,2970263164
11322,5,ISIP_5,115,1,48,68,2970757544
11322,5,ISIP_5,116,1,48,69,2971267032
11322,5,ISIP_5,117,1,48,78,2971762088
11322,5,ISIP_5,118,1,48,69,2972245844
11322,5,ISIP_5,119,1,48,66,2972721004
11322,5,ISIP_5,120,1,48,67,2973210972
11322,5,ISIP_5,121,1,48,73,2973698372
11322,5,ISIP_5,122,1,48,68,2974201724
11322,5,ISIP_5,123,1,48,62,2974700292
11322,5,ISIP_5,124,1,48,60,2975205668
11322,5,ISIP_5,125,1,48,67,2975688524
11322,5,ISIP_5,126,1,48,68,2976159872
11322,5,ISIP_5,127,1,48,71,2976665920
11322,5,ISIP_5,128,1,48,70,2977159256
11322,5,ISIP_5,129,1,48,73,2977656548
11322,5,ISIP_5,130,1,48,75,2978148612
11322,5,ISIP_5,131,1,48,74,2978649200
11322,5,ISIP_5,132,1,48,73,2979139316
11322,5,ISIP_5,133,1,48,68,2979634668
11322,5,ISIP_5,134,1,48,67,2980141612
11322,5,ISIP_5,135,1,48,68,2980645944
11322,5,ISIP_5,136,1,48,71,2981122496
11322,5,ISIP_5,137,1,48,70,2981613736
11322,5,ISIP_5,138,1,48,68,2982104972
11322,5,ISIP_5,139,1,48,71,2982617380
11322,5,ISIP_5,140,1,48,68,2983103080
11322,5,ISIP_5,141,1,48,70,2983599556
11322,5,ISIP_5,142,1,48,70,2984105156
11322,5,ISIP_5,143,1,48,65,2984591980
11322,5,ISIP_5,144,1,48,71,2985082320
11322,5,ISIP_5,145,1,48,71,2985561668
11322,5,ISIP_5,146,1,48,55,2986055824
11322,5,ISIP_5,147,1,48,58,2986567404
11322,5,ISIP_5,148,1,48,66,2987042936
11322,5,ISIP_5,149,1,48,65,2987547188
11322,5,ISIP_5,150,1,48,70,2988035336
11322,5,ISIP_5,151,1,48,65,2988541608
11322,5,ISIP_5,152,1,48,60,2989027984
11322,5,ISIP_5,153,1,48,65,2989518100
11322,5,ISIP_5,154,1,48,55,2990020556
11322,5,ISIP_5,155,1,48,55,2990523312
11322,5,ISIP_5,156,1,48,56,2991024504
11322,5,ISIP_5,157,1,48,58,2991536008
11322,5,ISIP_5,158,1,48,56,2992038544
11322,5,ISIP_5,159,1,48,54,2992553048
11322,5,ISIP_5,160,1,48,60,2993048996
11322,5,ISIP_5,161,1,48,54,2993515472
11322,5,ISIP_5,162,1,48,48,2994034840
11322,5,ISIP_5,163,1,48,59,2994517844
11322,5,ISIP_5,164,1,48,57,2995021724
11322,5,ISIP_5,165,1,48,53,2995521868
11322,5,ISIP_5,166,1,48,51,2996009960
11322,5,ISIP_5,167,1,48,54,2996501580
11322,5,ISIP_5,168,1,48,55,2997016224
11322,5,ISIP_5,169,1,48,40,2997541572
11322,5,ISIP_5,170,1,48,63,2998028144
11322,5,ISIP_5,171,1,48,66,2998518192
11322,5,ISIP_5,172,1,48,64,2999015040
11322,5,ISIP_5,173,1,48,63,2999515328
11322,5,ISIP_5,174,1,48,57,3000004696
11322,5,ISIP_5,175,1,48,54,3000499672
11322,5,ISIP_5,176,1,48,62,3000996072
11322,5,ISIP_5,177,1,48,67,3001487980
11322,5,ISIP_5,178,1,48,60,3001960896
11322,5,ISIP_5,179,1,48,57,3002483472
11322,5,ISIP_5,180,1,48,67,3002994088
11322,5,ISIP_5,181,1,48,69,3003485400
11322,5,ISIP_5,182,1,48,67,3003994144
11322,5,ISIP_5,183,1,48,70,3004490016
11322,5,ISIP_5,184,1,48,69,3004996812
11322,5,ISIP_5,185,1,48,67,3005486028
11322,5,ISIP_5,186,1,48,59,3005990284
11322,5,ISIP_5,187,1,48,70,3006505828
11322,5,ISIP_5,188,1,48,69,3007020336
11322,5,ISIP_5,189,1,48,63,3007526604
11322,5,ISIP_5,190,1,48,65,3008014532
11322,5,ISIP_5,191,1,48,71,3008513696
11322,5,ISIP_5,192,1,48,59,3009006876
11322,5,ISIP_5,193,1,48,68,3009516964
11322,5,ISIP_5,194,1,48,67,3010007304
11322,5,ISIP_5,195,1,48,66,3010524200
11322,5,ISIP_5,196,1,48,63,3011014536
11322,5,ISIP_5,0,9999,9999,9999,2931387476
11322,5,ISIP_5,1,9999,9999,9999,2931887192
11322,5,ISIP_5,2,9999,9999,9999,2932387956
11322,5,ISIP_5,3,9999,9999,9999,2932887672
11322,5,ISIP_5,4,9999,9999,9999,2933387384
11322,5,ISIP_5,5,9999,9999,9999,2933888052
11322,5,ISIP_5,6,9999,9999,9999,2934387820
11322,5,ISIP_5,7,9999,9999,9999,2934887516
11322,5,ISIP_5,8,9999,9999,9999,2935387212
11322,5,ISIP_5,9,9999,9999,9999,2935887952
11322,5,ISIP_5,10,9999,9999,9999,2936387648
11322,5,ISIP_5,11,9999,9999,9999,2936887416
11322,5,ISIP_5,12,9999,9999,9999,2937387112
11322,5,ISIP_5,13,9999,9999,9999,2937887852
11322,5,ISIP_5,14,9999,9999,9999,2938387524
11322,5,ISIP_5,15,9999,9999,9999,2938887268
11322,5,ISIP_5,16,9999,9999,9999,2939388008
11322,5,ISIP_5,17,9999,9999,9999,2939887704
11322,5,ISIP_5,18,9999,9999,9999,2940387400
11322,5,ISIP_5,19,9999,9999,9999,2940887096
11322,5,ISIP_5,20,9999,9999,9999,2941387840
11322,5,ISIP_5,21,9999,9999,9999,2941887608
11322,5,ISIP_5,22,9999,9999,9999,2942387304
11322,5,ISIP_5,23,9999,9999,9999,2942888044
11322,5,ISIP_5,24,9999,9999,9999,2943387740
11322,5,ISIP_5,25,9999,9999,9999,2943887436
11322,5,ISIP_5,26,9999,9999,9999,2944387128
11322,5,ISIP_5,27,9999,9999,9999,2944887872
11322,5,ISIP_5,28,9999,9999,9999,2945387640
11322,5,ISIP_5,29,9999,9999,9999,2945887336
11322,5,ISIP_5,30,9999,9999,9999,2946388076
11322,5,ISIP_5,31,9999,9999,9999,2946887772
11322,5,ISIP_5,32,9999,9999,9999,2947387468
11322,5,ISIP_5,33,9999,9999,9999,2947887164
11322,5,ISIP_5,34,9999,9999,9999,2948387904
11322,5,ISIP_5,35,9999,9999,9999,2948887604
11322,5,ISIP_5,36,9999,9999,9999,2949387348
11322,5,ISIP_5,37,9999,9999,9999,2949888092
11322,5,ISIP_5,38,9999,9999,9999,2950387780
11322,5,ISIP_5,39,9999,9999,9999,2950887472
11322,5,ISIP_5,40,9999,9999,9999,2951387244
11322,5,ISIP_5,41,9999,9999,9999,2951887980
11322,5,ISIP_5,42,9999,9999,9999,2952387672
11322,5,ISIP_5,43,9999,9999,9999,2952887360
11322,5,ISIP_5,44,9999,9999,9999,2953387128
11322,5,ISIP_5,45,9999,9999,9999,2953887864
11322,5,ISIP_5,46,9999,9999,9999,2954387556
11322,5,ISIP_5,47,9999,9999,9999,2954887244
11322,5,ISIP_5,48,9999,9999,9999,2955387980
11322,5,ISIP_5,49,9999,9999,9999,2955887672
11322,5,ISIP_5,50,9999,9999,9999,2956387436
11322,5,ISIP_5,51,9999,9999,9999,2956887128
11322,5,ISIP_5,52,9999,9999,9999,2957387864
11322,5,ISIP_5,53,9999,9999,9999,2957887540
11322,5,ISIP_5,54,9999,9999,9999,2958387320
11322,5,ISIP_5,55,9999,9999,9999,2958888040
11322,5,ISIP_5,56,9999,9999,9999,2959387748
11322,5,ISIP_5,57,9999,9999,9999,2959887472
11322,5,ISIP_5,58,9999,9999,9999,2960387176
11322,5,ISIP_5,59,9999,9999,9999,2960887900
11322,5,ISIP_5,60,9999,9999,9999,2961387592
11322,5,ISIP_5,61,9999,9999,9999,2961887280
11322,5,ISIP_5,62,9999,9999,9999,2962388020
11322,5,ISIP_5,63,9999,9999,9999,2962887784
11322,5,ISIP_5,64,9999,9999,9999,2963387476
11322,5,ISIP_5,65,9999,9999,9999,2963887168
11322,5,ISIP_5,66,9999,9999,9999,2964387904
11322,5,ISIP_5,67,9999,9999,9999,2964887668
11322,5,ISIP_5,68,9999,9999,9999,2965387360
11322,5,ISIP_5,69,9999,9999,9999,2965888096
11322,5,ISIP_5,70,9999,9999,9999,2966387784
11322,5,ISIP_5,71,9999,9999,9999,2966887476
11322,5,ISIP_5,72,9999,9999,9999,2967387240
11322,5,ISIP_5,73,9999,9999,9999,2967887976
11322,5,ISIP_5,74,9999,9999,9999,2968387668
11322,5,ISIP_5,75,9999,9999,9999,2968887360
11322,5,ISIP_5,76,9999,9999,9999,2969387124
11322,5,ISIP_5,77,9999,9999,9999,2969887864
11322,5,ISIP_5,78,9999,9999,9999,2970387528
11322,5,ISIP_5,79,9999,9999,9999,2970887220
11322,5,ISIP_5,80,9999,9999,9999,2971387956
11322,5,ISIP_5,81,9999,9999,9999,2971887724
11322,5,ISIP_5,82,9999,9999,9999,2972387412
11322,5,ISIP_5,83,9999,9999,9999,2972887104
11322,5,ISIP_5,84,9999,9999,9999,2973387844
11322,5,ISIP_5,85,9999,9999,9999,2973887604
11322,5,ISIP_5,86,9999,9999,9999,2974387300
11322,5,ISIP_5,87,9999,9999,9999,2974888036
11322,5,ISIP_5,88,9999,9999,9999,2975387724
11322,5,ISIP_5,89,9999,9999,9999,2975887416
11322,5,ISIP_5,90,9999,9999,9999,2976387180
11322,5,ISIP_5,91,9999,9999,9999,2976887920
11322,5,ISIP_5,92,9999,9999,9999,2977387612
11322,5,ISIP_5,93,9999,9999,9999,2977887300
11322,5,ISIP_5,94,9999,9999,9999,2978388040
11322,5,ISIP_5,95,9999,9999,9999,2978887728
11322,5,ISIP_5,96,9999,9999,9999,2979387496
11322,5,ISIP_5,97,9999,9999,9999,2979887184
11322,5,ISIP_5,98,9999,9999,9999,2980387920
11322,5,ISIP_5,99,9999,9999,9999,2980887612
11322,5,ISIP_5,100,9999,9999,9999,2981387356
11322,5,ISIP_5,101,9999,9999,9999,2981888092
11322,5,ISIP_5,102,9999,9999,9999,2982387784
11322,5,ISIP_5,103,9999,9999,9999,2982887472
11322,5,ISIP_5,104,9999,9999,9999,2983387236
11322,5,ISIP_5,105,9999,9999,9999,2983887976
11322,5,ISIP_5,106,9999,9999,9999,2984387664
11322,5,ISIP_5,107,9999,9999,9999,2984887356
11322,5,ISIP_5,108,9999,9999,9999,2985387120
11322,5,ISIP_5,109,9999,9999,9999,2985887860
11322,5,ISIP_5,110,9999,9999,9999,2986387548
11322,5,ISIP_5,111,9999,9999,9999,2986887240
11322,5,ISIP_5,112,9999,9999,9999,2987387976
11322,5,ISIP_5,113,9999,9999,9999,2987887668
11322,5,ISIP_5,114,9999,9999,9999,2988387432
11322,5,ISIP_5,115,9999,9999,9999,2988887124
11322,5,ISIP_5,116,9999,9999,9999,2989387860
11322,5,ISIP_5,117,9999,9999,9999,2989887552
11322,5,ISIP_5,118,9999,9999,9999,2990387316
11322,5,ISIP_5,119,9999,9999,9999,2990888052
11322,5,ISIP_5,120,9999,9999,9999,2991387744
11322,5,ISIP_5,121,9999,9999,9999,2991887412
11322,5,ISIP_5,122,9999,9999,9999,2992387176
11322,5,ISIP_5,123,9999,9999,9999,2992887912
11322,5,ISIP_5,124,9999,9999,9999,2993387604
11322,5,ISIP_5,125,9999,9999,9999,2993887296
11322,5,ISIP_5,126,9999,9999,9999,2994388032
11322,5,ISIP_5,127,9999,9999,9999,2994887796
11322,5,ISIP_5,128,9999,9999,9999,2995387488
11322,5,ISIP_5,129,9999,9999,9999,2995887180
11322,5,ISIP_5,130,9999,9999,9999,2996387916
11322,5,ISIP_5,131,9999,9999,9999,2996887608
11322,5,ISIP_5,132,9999,9999,9999,2997387372
11322,5,ISIP_5,133,9999,9999,9999,2997888112
11322,5,ISIP_5,134,9999,9999,9999,2998387800
11322,5,ISIP_5,135,9999,9999,9999,2998887492
11322,5,ISIP_5,136,9999,9999,9999,2999387256
11322,5,ISIP_5,137,9999,9999,9999,2999887992
11322,5,ISIP_5,138,9999,9999,9999,3000387684
11322,5,ISIP_5,139,9999,9999,9999,3000887372
11322,5,ISIP_5,140,9999,9999,9999,3001387064
11322,5,ISIP_5,141,9999,9999,9999,3001887800
11322,5,ISIP_5,142,9999,9999,9999,3002387568
11322,5,ISIP_5,143,9999,9999,9999,3002887236
11322,5,ISIP_5,144,9999,9999,9999,3003387972
11322,5,ISIP_5,145,9999,9999,9999,3003887736
11322,5,ISIP_5,146,9999,9999,9999,3004387424
11322,5,ISIP_5,147,9999,9999,9999,3004887116
11322,5,ISIP_5,148,9999,9999,9999,3005387856
11322,5,ISIP_5,149,9999,9999,9999,3005887544
11322,5,ISIP_5,150,9999,9999,9999,3006387312
11322,5,ISIP_5,151,9999,9999,9999,3006888048
11322,5,ISIP_5,152,9999,9999,9999,3007387740
11322,5,ISIP_5,153,9999,9999,9999,3007887428
11322,5,ISIP_5,154,9999,9999,9999,3008387192
11322,5,ISIP_5,155,9999,9999,9999,3008887856
11322,5,ISIP_5,156,9999,9999,9999,3009387620
11322,5,ISIP_5,157,9999,9999,9999,3009887312
11322,5,ISIP_5,158,9999,9999,9999,3010388048
11322,5,ISIP_5,159,9999,9999,9999,3010887740
11323,11,Pattern_Practice,0,1,48,48,3042761568
11323,11,Pattern_Practice,1,1,38,69,3042762428
11323,11,Pattern_Practice,2,1,38,67,3042762996
11323,11,Pattern_Practice,3,1,38,35,3042763560
11323,11,Pattern_Practice,4,1,38,40,3042764224
11323,11,Pattern_Practice,5,1,38,56,3042764788
11323,11,Pattern_Practice,6,1,38,32,3042765356
11323,11,Pattern_Practice,7,1,38,54,3042766020
11323,11,Pattern_Practice,8,1,38,43,3042766584
11323,11,Pattern_Practice,9,1,144,38,3042902988
11323,11,Pattern_Practice,10,1,70,48,3042920776
11323,11,Pattern_Practice,11,1,15,128,3042979544
11323,11,Pattern_Practice,12,1,38,64,3042980124
11323,11,Pattern_Practice,13,1,38,43,3042981092
11323,11,Pattern_Practice,14,1,38,43,3043172548
11323,11,Pattern_Practice,15,5,42,127,3043262712
11323,11,Pattern_Practice,16,1,38,52,3043303664
11323,11,Pattern_Practice,17,1,38,52,3043350940
11323,11,Pattern_Practice,18,1,48,61,3043445684
11323,11,Pattern_Practice,19,5,42,127,3043762424
11323,11,Pattern_Practice,20,5,42,127,3044263336
11323,11,Pattern_Practice,21,5,42,127,3044763276
11323,11,Pattern_Practice,22,5,42,127,3045262696
11323,11,Pattern_Practice,23,5,42,127,3045762412
11323,11,Pattern_Practice,24,5,42,127,3046263252
11323,11,Pattern_Practice,25,5,42,127,3046763040
11323,11,Pattern_Practice,26,1,38,70,3046982876
11323,11,Pattern_Practice,27,1,38,67,3047109484
11323,11,Pattern_Practice,28,1,38,54,3047167504
11323,11,Pattern_Practice,29,1,48,60,3047227588
11323,11,Pattern_Practice,30,5,42,127,3047263956
11323,11,Pattern_Practice,31,5,42,127,3047763360
11323,11,Pattern_Practice,32,1,38,95,3047768128
11323,11,Pattern_Practice,33,1,38,63,3047845668
11323,11,Pattern_Practice,34,1,38,54,3048115768
11323,11,Pattern_Practice,35,1,38,37,3048186500
11323,11,Pattern_Practice,36,1,48,62,3048261336
11323,11,Pattern_Practice,37,5,42,127,3048263148
11323,11,Pattern_Practice,38,1,48,29,3048549356
11323,11,Pattern_Practice,39,5,42,127,3048762648
11323,11,Pattern_Practice,40,1,38,51,3048812068
11323,11,Pattern_Practice,41,1,38,15,3048936736
11323,11,Pattern_Practice,42,1,48,46,3049039284
11323,11,Pattern_Practice,43,5,42,127,3049262448
11323,11,Pattern_Practice,44,5,42,127,3049763212
11323,11,Pattern_Practice,45,1,38,75,3049764328
11323,11,Pattern_Practice,46,5,42,127,3050263128
11323,11,Pattern_Practice,47,1,38,90,3050264848
11323,11,Pattern_Practice,48,1,38,53,3050626260
11323,11,Pattern_Practice,49,1,38,45,3050703424
11323,11,Pattern_Practice,50,5,42,127,3050762552
11323,11,Pattern_Practice,51,1,38,105,3050771360
11323,11,Pattern_Practice,52,1,38,30,3051028072
11323,11,Pattern_Practice,53,1,38,45,3051121396
11323,11,Pattern_Practice,54,1,38,33,3051180764
11323,11,Pattern_Practice,55,1,48,109,3051246796
11323,11,Pattern_Practice,56,5,42,127,3051263208
11323,11,Pattern_Practice,57,1,38,99,3051762896
11323,11,Pattern_Practice,58,1,48,73,3051765488
11323,11,Pattern_Practice,59,5,42,127,3051767128
11323,11,Pattern_Practice,60,1,38,29,3051854860
11323,11,Pattern_Practice,61,5,42,127,3052262964
11323,11,Pattern_Practice,62,1,48,81,3052271468
11323,11,Pattern_Practice,63,5,42,127,3052762512
11323,11,Pattern_Practice,64,1,38,114,3052773784
11323,11,Pattern_Practice,65,1,38,127,3052782812
11323,11,Pattern_Practice,66,1,38,43,3052885064
11323,11,Pattern_Practice,67,1,48,75,3053027900
11323,11,Pattern_Practice,68,5,42,127,3053263260
11323,11,Pattern_Practice,69,1,38,63,3053538968
11323,11,Pattern_Practice,70,5,42,127,3053763176
11323,11,Pattern_Practice,71,1,48,84,3053799808
11323,11,Pattern_Practice,72,1,38,79,3053803152
11323,11,Pattern_Practice,73,1,38,33,3054044204
11323,11,Pattern_Practice,74,1,38,62,3054150564
11323,11,Pattern_Practice,75,1,38,45,3054230500
11323,11,Pattern_Practice,76,5,42,127,3054262924
11323,11,Pattern_Practice,77,1,48,79,3054275992
11323,11,Pattern_Practice,78,1,38,65,3054509944
11323,11,Pattern_Practice,79,5,42,127,3054763260
11323,11,Pattern_Practice,80,1,48,82,3054770568
11323,11,Pattern_Practice,81,1,38,79,3054773764
11323,11,Pattern_Practice,82,1,38,61,3055010100
11323,11,Pattern_Practice,83,1,38,57,3055120200
11323,11,Pattern_Practice,84,1,38,56,3055175084
11323,11,Pattern_Practice,85,1,38,32,3055229512
11323,11,Pattern_Practice,86,1,48,70,3055252832
11323,11,Pattern_Practice,87,5,42,127,3055263112
11323,11,Pattern_Practice,88,1,38,54,3055504520
11323,11,Pattern_Practice,89,5,42,127,3055763060
11323,11,Pattern_Practice,90,1,48,76,3055765512
11323,11,Pattern_Practice,91,1,38,59,3055767732
11323,11,Pattern_Practice,92,1,38,48,3056009676
11323,11,Pattern_Practice,93,1,38,64,3056132768
11323,11,Pattern_Practice,94,1,48,85,3056251256
11323,11,Pattern_Practice,95,5,42,127,3056262656
11323,11,Pattern_Practice,96,1,38,81,3056372348
11323,11,Pattern_Practice,97,1,38,62,3056422092
11323,11,Pattern_Practice,98,1,38,82,3056501056
11323,11,Pattern_Practice,99,5,42,127,3056763192
11323,11,Pattern_Practice,100,1,48,78,3056770056
11323,11,Pattern_Practice,101,1,38,79,3056770704
11323,11,Pattern_Practice,102,1,38,59,3056992080
11323,11,Pattern_Practice,103,1,38,58,3057117044
11323,11,Pattern_Practice,104,1,38,35,3057176512
11323,11,Pattern_Practice,105,1,48,61,3057241644
11323,11,Pattern_Practice,106,5,42,127,3057263068
11323,11,Pattern_Practice,107,1,38,69,3057501188
11323,11,Pattern_Practice,108,5,42,127,3057763092
11323,11,Pattern_Practice,109,1,38,88,3057764884
11323,11,Pattern_Practice,110,1,48,63,3057767332
11323,11,Pattern_Practice,111,1,38,54,3058012028
11323,11,Pattern_Practice,112,1,38,65,3058126452
11323,11,Pattern_Practice,113,1,38,19,3058217852
11323,11,Pattern_Practice,114,1,48,72,3058254940
11323,11,Pattern_Practice,115,5,42,127,3058263276
11323,11,Pattern_Practice,116,1,38,72,3058383108
11323,11,Pattern_Practice,117,1,38,59,3058428860
11323,11,Pattern_Practice,118,1,38,93,3058519448
11323,11,Pattern_Practice,119,5,42,127,3058763256
11323,11,Pattern_Practice,120,1,48,73,3058794872
11323,11,Pattern_Practice,121,1,38,91,3058802708
11323,11,Pattern_Practice,122,1,38,64,3059024088
11323,11,Pattern_Practice,123,1,38,71,3059139248
11323,11,Pattern_Practice,124,1,38,39,3059212384
11323,11,Pattern_Practice,125,5,42,127,3059263000
11323,11,Pattern_Practice,126,1,48,67,3059270456
11323,11,Pattern_Practice,127,1,38,78,3059399960
11323,11,Pattern_Practice,128,1,38,61,3059451176
11323,11,Pattern_Practice,129,1,38,92,3059518720
11323,11,Pattern_Practice,130,5,42,127,3059762824
11323,11,Pattern_Practice,131,1,48,76,3059785844
11323,11,Pattern_Practice,132,1,38,67,3059789188
11323,11,Pattern_Practice,133,1,38,35,3059879076
11323,11,Pattern_Practice,134,1,48,38,3060026476
11323,11,Pattern_Practice,135,1,38,14,3060035132
11323,11,Pattern_Practice,136,1,38,90,3060143316
11323,11,Pattern_Practice,137,5,42,127,3060263408
11323,11,Pattern_Practice,138,1,38,114,3060266080
11323,11,Pattern_Practice,139,1,38,85,3060381540
11323,11,Pattern_Practice,140,1,38,50,3060454224
11323,11,Pattern_Practice,141,1,48,74,3060511688
11323,11,Pattern_Practice,142,1,38,81,3060631692
11323,11,Pattern_Practice,143,5,42,127,3060763076
11323,11,Pattern_Practice,144,1,38,127,3060774572
11323,11,Pattern_Practice,145,1,38,81,3060886752
11323,11,Pattern_Practice,146,1,38,88,3061028568
11323,11,Pattern_Practice,147,1,38,83,3061135208
11323,11,Pattern_Practice,148,1,38,55,3061185004
11323,11,Pattern_Practice,149,5,42,127,3061262676
11323,11,Pattern_Practice,150,1,48,74,3061266268
11323,11,Pattern_Practice,151,1,38,69,3061506768
11323,11,Pattern_Practice,152,1,38,70,3061758540
11323,11,Pattern_Practice,153,5,42,127,3061762388
11323,11,Pattern_Practice,154,1,48,87,3061763652
11323,11,Pattern_Practice,155,1,38,32,3061853848
11323,11,Pattern_Practice,156,1,38,49,3062003916
11323,11,Pattern_Practice,157,1,38,74,3062116492
11323,11,Pattern_Practice,158,1,38,31,3062202332
11323,11,Pattern_Practice,159,1,48,59,3062245476
11323,11,Pattern_Practice,160,5,42,127,3062263088
11323,11,Pattern_Practice,161,1,38,74,3062384068
11323,11,Pattern_Practice,162,1,38,62,3062436552
11323,11,Pattern_Practice,163,1,38,86,3062517608
11323,11,Pattern_Practice,164,5,42,127,3062762844
11323,11,Pattern_Practice,165,1,38,92,3062789072
11323,11,Pattern_Practice,166,1,48,63,3062791600
11323,11,Pattern_Practice,167,1,38,67,3063021352
11323,11,Pattern_Practice,168,1,38,74,3063129956
11323,11,Pattern_Practice,169,1,38,43,3063182596
11323,11,Pattern_Practice,170,5,42,127,3063262512
11323,11,Pattern_Practice,171,1,48,50,3063279080
11323,11,Pattern_Practice,172,1,38,94,3063530852
11323,11,Pattern_Practice,173,5,42,127,3063763216
11323,11,Pattern_Practice,174,1,38,80,3063788628
11323,11,Pattern_Practice,175,1,48,59,3063791824
11323,11,Pattern_Practice,176,1,38,38,3063880088
11323,11,Pattern_Practice,177,1,38,74,3064024324
11323,11,Pattern_Practice,178,1,38,81,3064146392
11323,11,Pattern_Practice,179,1,48,63,3064258944
11323,11,Pattern_Practice,180,5,42,127,3064263164
11323,11,Pattern_Practice,181,1,38,85,3064382080
11323,11,Pattern_Practice,182,1,38,58,3064443244
11323,11,Pattern_Practice,183,1,38,108,3064511064
11323,11,Pattern_Practice,184,1,38,82,3064635828
11323,11,Pattern_Practice,185,5,42,127,3064762924
11323,11,Pattern_Practice,186,1,48,78,3064766044
11323,11,Pattern_Practice,187,1,38,74,3064874804
11323,11,Pattern_Practice,188,1,38,114,3065002464
11323,11,Pattern_Practice,189,1,38,82,3065118252
11323,11,Pattern_Practice,190,1,38,54,3065174776
11323,11,Pattern_Practice,191,5,42,127,3065262624
11323,11,Pattern_Practice,192,1,48,60,3065263592
11323,11,Pattern_Practice,193,1,38,77,3065506352
11323,11,Pattern_Practice,194,1,38,92,3065755136
11323,11,Pattern_Practice,195,1,48,65,3065760500
11323,11,Pattern_Practice,196,5,42,127,3065763228
11323,11,Pattern_Practice,197,1,38,47,3065839788
11323,11,Pattern_Practice,198,1,38,65,3066003428
11323,11,Pattern_Practice,199,1,38,87,3066121292
11323,11,Pattern_Practice,200,1,48,64,3066246280
11323,11,Pattern_Practice,201,5,42,127,3066262916
11323,11,Pattern_Practice,202,1,38,86,3066363184
11323,11,Pattern_Practice,203,1,38,66,3066416220
11323,11,Pattern_Practice,204,1,38,91,3066500496
11323,11,Pattern_Practice,205,1,38,84,3066761800
11323,11,Pattern_Practice,206,5,42,127,3066764264
11323,11,Pattern_Practice,207,1,48,68,3066765304
11323,11,Pattern_Practice,208,1,38,48,3066845380
11323,11,Pattern_Practice,209,1,48,66,3067004164
11323,11,Pattern_Practice,210,1,38,92,3067143268
11323,11,Pattern_Practice,211,1,38,110,3067261768
11323,11,Pattern_Practice,212,5,42,127,3067264772
11323,11,Pattern_Practice,213,1,38,89,3067377304
11323,11,Pattern_Practice,214,1,38,63,3067433408
11323,11,Pattern_Practice,215,1,38,21,3067512896
11323,11,Pattern_Practice,216,1,48,77,3067515568
11323,11,Pattern_Practice,217,1,38,21,3067603136
11323,11,Pattern_Practice,218,1,48,127,3067762028
11323,11,Pattern_Practice,219,5,42,127,3067764196
11323,11,Pattern_Practice,220,1,38,86,3068005632
11323,11,Pattern_Practice,221,1,38,85,3068101572
11323,11,Pattern_Practice,222,1,38,62,3068151440
11323,11,Pattern_Practice,223,1,48,83,3068257204
11323,11,Pattern_Practice,224,5,42,127,3068262704
11323,11,Pattern_Practice,225,1,48,122,3068518424
11323,11,Pattern_Practice,226,5,42,127,3068762604
11323,11,Pattern_Practice,227,1,38,120,3068771036
11323,11,Pattern_Practice,228,1,38,58,3068848356
11323,11,Pattern_Practice,229,1,38,79,3069019868
11323,11,Pattern_Practice,230,1,38,70,3069133612
11323,11,Pattern_Practice,231,1,38,39,3069206920
11323,11,Pattern_Practice,232,5,42,127,3069263200
11323,11,Pattern_Practice,233,1,48,70,3069269908
11323,11,Pattern_Practice,234,1,38,34,3069297864
11323,11,Pattern_Practice,235,1,38,88,3069519988
11323,11,Pattern_Practice,236,5,42,127,3069763048
11323,11,Pattern_Practice,237,1,38,105,3069782992
11323,11,Pattern_Practice,238,1,48,69,3069786268
11323,11,Pattern_Practice,239,1,38,53,3069868152
11323,11,Pattern_Practice,240,1,38,77,3070025644
11323,11,Pattern_Practice,241,1,38,76,3070144180
11323,11,Pattern_Practice,242,1,38,22,3070234464
11323,11,Pattern_Practice,243,5,42,127,3070262772
11323,11,Pattern_Practice,244,1,48,52,3070265368
11323,11,Pattern_Practice,245,1,38,87,3070396284
11323,11,Pattern_Practice,246,1,38,62,3070455356
11323,11,Pattern_Practice,247,1,38,95,3070535540
11323,11,Pattern_Practice,248,5,42,127,3070763420
11323,11,Pattern_Practice,249,1,38,62,3070804980
11323,11,Pattern_Practice,250,1,48,81,3070808180
11323,11,Pattern_Practice,251,1,38,47,3070886620
11323,11,Pattern_Practice,252,1,38,84,3071033272
11323,11,Pattern_Practice,253,1,38,87,3071148592
11323,11,Pattern_Practice,254,1,38,46,3071213796
11323,11,Pattern_Practice,255,5,42,127,3071263068
11323,11,Pattern_Practice,256,1,48,65,3071284664
11323,11,Pattern_Practice,257,1,38,87,3071540744
11323,11,Pattern_Practice,258,5,42,127,3071762864
11323,11,Pattern_Practice,259,1,38,98,3071795900
11323,11,Pattern_Practice,260,1,48,64,3071800216
11323,11,Pattern_Practice,261,1,38,48,3071881876
11323,11,Pattern_Practice,262,1,38,69,3072025988
11323,11,Pattern_Practice,263,1,38,78,3072137264
11323,11,Pattern_Practice,264,1,48,70,3072254672
11323,11,Pattern_Practice,265,5,42,127,3072262636
11323,11,Pattern_Practice,266,1,38,81,3072389104
11323,11,Pattern_Practice,267,1,38,59,3072450720
11323,11,Pattern_Practice,268,1,38,113,3072516368
11323,11,Pattern_Practice,269,5,42,127,3072763168
11323,11,Pattern_Practice,270,1,48,74,3072790700
11323,11,Pattern_Practice,271,1,38,69,3072793292
11323,11,Pattern_Practice,272,1,38,29,3072876748
11323,11,Pattern_Practice,273,1,38,78,3073019708
11323,11,Pattern_Practice,274,1,38,88,3073143800
11323,11,Pattern_Practice,275,1,38,42,3073211480
11323,11,Pattern_Practice,276,5,42,127,3073262972
11323,11,Pattern_Practice,277,1,48,68,3073284344
11323,11,Pattern_Practice,278,1,38,81,3073529724
11323,11,Pattern_Practice,279,5,42,127,3073762616
11323,11,Pattern_Practice,280,1,38,105,3073785036
11323,11,Pattern_Practice,281,1,48,71,3073789352
11323,11,Pattern_Practice,282,1,38,59,3073861760
11323,11,Pattern_Practice,283,1,38,67,3074021628
11323,11,Pattern_Practice,284,1,38,83,3074139060
11323,11,Pattern_Practice,285,1,48,67,3074258712
11323,11,Pattern_Practice,286,5,42,127,3074263836
11323,11,Pattern_Practice,287,1,38,85,3074395840
11323,11,Pattern_Practice,288,1,38,65,3074454988
11323,11,Pattern_Practice,289,1,38,110,3074528492
11323,11,Pattern_Practice,290,5,42,127,3074763024
11323,11,Pattern_Practice,291,1,48,62,3074792848
11323,11,Pattern_Practice,292,1,38,88,3074802324
11323,11,Pattern_Practice,293,1,38,69,3075028564
11323,11,Pattern_Practice,294,1,38,88,3075153628
11323,11,Pattern_Practice,295,5,42,127,3075262928
11323,11,Pattern_Practice,296,1,48,61,3075277788
11323,11,Pattern_Practice,297,1,38,89,3075403676
11323,11,Pattern_Practice,298,1,38,50,3075476512
11323,11,Pattern_Practice,299,1,38,127,3075532960
11323,11,Pattern_Practice,300,1,38,85,3075644408
11323,11,Pattern_Practice,301,1,38,42,3075726068
11323,11,Pattern_Practice,302,5,42,127,3075762532
11323,11,Pattern_Practice,303,1,38,76,3075776708
11323,11,Pattern_Practice,304,1,38,78,3075901020
11323,11,Pattern_Practice,305,1,38,93,3076024788
11323,11,Pattern_Practice,306,1,38,87,3076133176
11323,11,Pattern_Practice,307,1,48,83,3076261596
11323,11,Pattern_Practice,308,5,42,127,3076263260
11323,11,Pattern_Practice,309,1,38,81,3076378960
11323,11,Pattern_Practice,310,1,38,108,3076511856
11323,11,Pattern_Practice,311,1,38,97,3076630408
11323,11,Pattern_Practice,312,1,38,52,3076705260
11323,11,Pattern_Practice,313,5,42,127,3076762964
11323,11,Pattern_Practice,314,1,48,83,3076769224
11323,11,Pattern_Practice,315,1,38,80,3076886632
11323,11,Pattern_Practice,316,1,38,106,3077022816
11323,11,Pattern_Practice,317,1,38,81,3077123768
11323,11,Pattern_Practice,318,1,48,19,3077134072
11323,11,Pattern_Practice,319,1,38,67,3077184336
11323,11,Pattern_Practice,320,5,42,127,3077262820
11323,11,Pattern_Practice,321,1,48,54,3077268860
11323,11,Pattern_Practice,322,1,38,21,3077278860
11323,11,Pattern_Practice,323,1,38,63,3077396640
11323,11,Pattern_Practice,324,1,38,73,3077519060
11323,11,Pattern_Practice,325,1,38,69,3077642904
11323,11,Pattern_Practice,326,1,38,47,3077708880
11323,11,Pattern_Practice,327,5,42,127,3077762468
11323,11,Pattern_Practice,328,1,48,75,3077779576
11323,11,Pattern_Practice,329,1,38,25,3077790028
11323,11,Pattern_Practice,330,1,38,63,3077909004
11323,11,Pattern_Practice,331,1,38,70,3078037564
11323,11,Pattern_Practice,332,1,38,61,3078151756
11323,11,Pattern_Practice,333,1,38,31,3078229620
11323,11,Pattern_Practice,334,5,42,127,3078263092
11323,11,Pattern_Practice,335,1,38,95,3078283172
11323,11,Pattern_Practice,336,1,38,61,3078412924
11323,11,Pattern_Practice,337,1,38,86,3078536720
11323,11,Pattern_Practice,338,1,38,73,3078664076
11323,11,Pattern_Practice,339,1,38,32,3078749500
11323,11,Pattern_Practice,340,5,42,127,3078762848
11323,11,Pattern_Practice,341,1,48,60,3078802692
11323,11,Pattern_Practice,342,1,38,65,3078909900
11323,11,Pattern_Practice,343,1,38,78,3079042148
11323,11,Pattern_Practice,344,1,38,65,3079157016
11323,11,Pattern_Practice,345,5,42,127,3079262524
11323,11,Pattern_Practice,346,1,38,107,3079301320
11323,11,Pattern_Practice,347,1,38,65,3079423812
11323,11,Pattern_Practice,348,1,38,81,3079554416
11323,11,Pattern_Practice,349,1,38,67,3079671904
11323,11,Pattern_Practice,350,1,38,52,3079741468
11323,11,Pattern_Practice,351,5,42,127,3079763488
11323,11,Pattern_Practice,352,1,48,55,3079807744
11323,11,Pattern_Practice,353,1,38,29,3079830988
11323,11,Pattern_Practice,354,1,38,23,3079896192
11323,11,Pattern_Practice,355,1,38,56,3080054076
11323,11,Pattern_Practice,356,5,42,127,3080262952
11323,11,Pattern_Practice,357,1,38,89,3080311028
11323,11,Pattern_Practice,358,1,48,48,3080314224
11323,11,Pattern_Practice,359,1,38,53,3080384284
11323,11,Pattern_Practice,360,1,38,54,3080549580
11323,11,Pattern_Practice,361,1,38,68,3080653224
11323,11,Pattern_Practice,362,5,42,127,3080762696
11323,11,Pattern_Practice,363,1,48,73,3080784664
11323,11,Pattern_Practice,364,1,38,82,3080914120
11323,11,Pattern_Practice,365,1,38,55,3080987124
11323,11,Pattern_Practice,366,1,38,92,3081040804
11323,11,Pattern_Practice,367,5,42,127,3081262476
11323,11,Pattern_Practice,368,1,48,47,3081306436
11323,11,Pattern_Practice,369,1,38,80,3081311280
11323,11,Pattern_Practice,370,1,38,52,3081383136
11323,11,Pattern_Practice,371,1,38,73,3081533004
11323,11,Pattern_Practice,372,1,38,85,3081663508
11323,11,Pattern_Practice,373,1,38,52,3081745860
11323,11,Pattern_Practice,374,5,42,127,3081763468
11323,11,Pattern_Practice,375,1,48,67,3081796660
11323,11,Pattern_Practice,376,1,38,63,3081944412
11323,11,Pattern_Practice,377,1,38,91,3082061696
11323,11,Pattern_Practice,378,5,42,127,3082262872
11323,11,Pattern_Practice,379,1,38,68,3082328296
11323,11,Pattern_Practice,380,1,48,62,3082330820
11323,11,Pattern_Practice,381,1,38,34,3082409188
11323,11,Pattern_Practice,382,1,38,61,3082558684
11323,11,Pattern_Practice,383,1,38,74,3082678336
11323,11,Pattern_Practice,384,5,42,127,3082762592
11323,11,Pattern_Practice,385,1,38,70,3082812468
11323,11,Pattern_Practice,386,1,38,82,3082936464
11323,11,Pattern_Practice,387,1,38,54,3083004800
11323,11,Pattern_Practice,388,1,48,75,3083062040
11323,11,Pattern_Practice,0,9999,9999,9999,3043260500
11323,11,Pattern_Practice,1,9999,9999,9999,3043760212
11323,11,Pattern_Practice,2,9999,9999,9999,3044260976
11323,11,Pattern_Practice,3,9999,9999,9999,3044760692
11323,11,Pattern_Practice,4,9999,9999,9999,3045260408
11323,11,Pattern_Practice,5,9999,9999,9999,3045760052
11323,11,Pattern_Practice,6,9999,9999,9999,3046260816
11323,11,Pattern_Practice,7,9999,9999,9999,3046760532
11323,11,Pattern_Practice,8,9999,9999,9999,3047260264
11323,11,Pattern_Practice,9,9999,9999,9999,3047760996
11323,11,Pattern_Practice,10,9999,9999,9999,3048260724
11323,11,Pattern_Practice,11,9999,9999,9999,3048760436
11323,11,Pattern_Practice,12,9999,9999,9999,3049260088
11323,11,Pattern_Practice,13,9999,9999,9999,3049760852
11323,11,Pattern_Practice,14,9999,9999,9999,3050260544
11323,11,Pattern_Practice,15,9999,9999,9999,3050760264
11323,11,Pattern_Practice,16,9999,9999,9999,3051260996
11323,11,Pattern_Practice,17,9999,9999,9999,3051760756
11323,11,Pattern_Practice,18,9999,9999,9999,3052260456
11323,11,Pattern_Practice,19,9999,9999,9999,3052760148
11323,11,Pattern_Practice,20,9999,9999,9999,3053260900
11323,11,Pattern_Practice,21,9999,9999,9999,3053760592
11323,11,Pattern_Practice,22,9999,9999,9999,3054260340
11323,11,Pattern_Practice,23,9999,9999,9999,3054761044
11323,11,Pattern_Practice,24,9999,9999,9999,3055260752
11323,11,Pattern_Practice,25,9999,9999,9999,3055760476
11323,11,Pattern_Practice,26,9999,9999,9999,3056260148
11323,11,Pattern_Practice,27,9999,9999,9999,3056760904
11323,11,Pattern_Practice,28,9999,9999,9999,3057260632
11323,11,Pattern_Practice,29,9999,9999,9999,3057760360
11323,11,Pattern_Practice,30,9999,9999,9999,3058261060
11323,11,Pattern_Practice,31,9999,9999,9999,3058760820
11323,11,Pattern_Practice,32,9999,9999,9999,3059260492
11323,11,Pattern_Practice,33,9999,9999,9999,3059760240
11323,11,Pattern_Practice,34,9999,9999,9999,3060260972
11323,11,Pattern_Practice,35,9999,9999,9999,3060760644
11323,11,Pattern_Practice,36,9999,9999,9999,3061260392
11323,11,Pattern_Practice,37,9999,9999,9999,3061760104
11323,11,Pattern_Practice,38,9999,9999,9999,3062260800
11323,11,Pattern_Practice,39,9999,9999,9999,3062760556
11323,11,Pattern_Practice,40,9999,9999,9999,3063260228
11323,11,Pattern_Practice,41,9999,9999,9999,3063761004
11323,11,Pattern_Practice,42,9999,9999,9999,3064260728
11323,11,Pattern_Practice,43,9999,9999,9999,3064760416
11323,11,Pattern_Practice,44,9999,9999,9999,3065260116
11323,11,Pattern_Practice,45,9999,9999,9999,3065760868
11323,11,Pattern_Practice,46,9999,9999,9999,3066260556
11323,11,Pattern_Practice,47,9999,9999,9999,3066760268
11323,11,Pattern_Practice,48,9999,9999,9999,3067260996
11323,11,Pattern_Practice,49,9999,9999,9999,3067760720
11323,11,Pattern_Practice,50,9999,9999,9999,3068260416
11323,11,Pattern_Practice,51,9999,9999,9999,3068760172
11323,11,Pattern_Practice,52,9999,9999,9999,3069260916
11323,11,Pattern_Practice,53,9999,9999,9999,3069760612
11323,11,Pattern_Practice,54,9999,9999,9999,3070260336
11323,11,Pattern_Practice,55,9999,9999,9999,3070761056
11323,11,Pattern_Practice,56,9999,9999,9999,3071260780
11323,11,Pattern_Practice,57,9999,9999,9999,3071760500
11323,11,Pattern_Practice,58,9999,9999,9999,3072260200
11323,11,Pattern_Practice,59,9999,9999,9999,3072760884
11323,11,Pattern_Practice,60,9999,9999,9999,3073260612
11323,11,Pattern_Practice,61,9999,9999,9999,3073760328
11323,11,Pattern_Practice,62,9999,9999,9999,3074261100
11323,11,Pattern_Practice,63,9999,9999,9999,3074760812
11323,11,Pattern_Practice,64,9999,9999,9999,3075260492
11323,11,Pattern_Practice,65,9999,9999,9999,3075760244
11323,11,Pattern_Practice,66,9999,9999,9999,3076260996
11323,11,Pattern_Practice,67,9999,9999,9999,3076760676
11323,11,Pattern_Practice,68,9999,9999,9999,3077260384
11323,11,Pattern_Practice,69,9999,9999,9999,3077760108
11323,11,Pattern_Practice,70,9999,9999,9999,3078260804
11323,11,Pattern_Practice,71,9999,9999,9999,3078760560
11323,11,Pattern_Practice,72,9999,9999,9999,3079260236
11323,11,Pattern_Practice,73,9999,9999,9999,3079760980
11323,11,Pattern_Practice,74,9999,9999,9999,3080260668
11323,11,Pattern_Practice,75,9999,9999,9999,3080760412
11323,11,Pattern_Practice,76,9999,9999,9999,3081260116
11323,11,Pattern_Practice,77,9999,9999,9999,3081760888
11323,11,Pattern_Practice,78,9999,9999,9999,3082260584
11323,11,Pattern_Practice,79,9999,9999,9999,3082760304
11324,13,Improv_Metronome,0,5,42,127,3112618284
11324,13,Improv_Metronome,1,5,42,127,3113118076
11324,13,Improv_Metronome,2,5,42,127,3113617868
11324,13,Improv_Metronome,3,5,42,127,3114117436
11324,13,Improv_Metronome,4,5,42,127,3114618344
11324,13,Improv_Metronome,5,5,42,127,3115117916
11324,13,Improv_Metronome,6,5,42,127,3115617852
11324,13,Improv_Metronome,7,1,38,96,3115880396
11324,13,Improv_Metronome,8,1,38,79,3115970664
11324,13,Improv_Metronome,9,1,38,63,3116015216
11324,13,Improv_Metronome,10,1,38,48,3116045884
11324,13,Improv_Metronome,11,1,38,38,3116076752
11324,13,Improv_Metronome,12,1,48,100,3116107624
11324,13,Improv_Metronome,13,5,42,127,3116118356
11324,13,Improv_Metronome,14,1,38,127,3116354604
11324,13,Improv_Metronome,15,1,38,69,3116462516
11324,13,Improv_Metronome,16,1,38,59,3116507744
11324,13,Improv_Metronome,17,1,38,42,3116547440
11324,13,Improv_Metronome,18,1,48,95,3116599292
11324,13,Improv_Metronome,19,5,42,127,3116617952
11324,13,Improv_Metronome,20,1,48,64,3116870352
11324,13,Improv_Metronome,21,1,38,111,3117114796
11324,13,Improv_Metronome,22,5,42,127,3117117820
11324,13,Improv_Metronome,23,1,48,127,3117121540
11324,13,Improv_Metronome,24,1,38,61,3117187560
11324,13,Improv_Metronome,25,1,48,56,3117359276
11324,13,Improv_Metronome,26,1,38,100,3117472872
11324,13,Improv_Metronome,27,1,38,54,3117548536
11324,13,Improv_Metronome,28,1,38,88,3117612944
11324,13,Improv_Metronome,29,5,42,127,3117617468
11324,13,Improv_Metronome,30,1,38,100,3117716236
11324,13,Improv_Metronome,31,1,38,71,3117765208
11324,13,Improv_Metronome,32,1,38,33,3117825772
11324,13,Improv_Metronome,33,1,48,79,3117852416
11324,13,Improv_Metronome,34,1,38,96,3118100652
11324,13,Improv_Metronome,35,1,48,127,3118105412
11324,13,Improv_Metronome,36,5,42,127,3118118236
11324,13,Improv_Metronome,37,1,38,65,3118165920
11324,13,Improv_Metronome,38,1,48,55,3118368520
11324,13,Improv_Metronome,39,1,38,96,3118461028
11324,13,Improv_Metronome,40,1,38,76,3118512540
11324,13,Improv_Metronome,41,1,38,47,3118562412
11324,13,Improv_Metronome,42,5,42,127,3118617892
11324,13,Improv_Metronome,43,1,48,105,3118619828
11324,13,Improv_Metronome,44,1,48,80,3118872156
11324,13,Improv_Metronome,45,5,42,127,3119117760
11324,13,Improv_Metronome,46,1,48,100,3119124168
11324,13,Improv_Metronome,47,1,38,114,3119130284
11324,13,Improv_Metronome,48,1,48,58,3119361804
11324,13,Improv_Metronome,49,1,38,91,3119502880
11324,13,Improv_Metronome,50,5,42,127,3119618460
11324,13,Improv_Metronome,51,1,48,65,3119634548
11324,13,Improv_Metronome,52,1,38,92,3119734452
11324,13,Improv_Metronome,53,1,38,66,3119783724
11324,13,Improv_Metronome,54,1,48,96,3119879220
11324,13,Improv_Metronome,55,5,42,127,3120118016
11324,13,Improv_Metronome,56,1,38,103,3120129068
11324,13,Improv_Metronome,57,1,48,91,3120131440
11324,13,Improv_Metronome,58,1,38,60,3120207732
11324,13,Improv_Metronome,59,1,48,73,3120385480
11324,13,Improv_Metronome,60,1,38,78,3120488632
11324,13,Improv_Metronome,61,1,38,48,3120545376
11324,13,Improv_Metronome,62,1,38,38,3120593452
11324,13,Improv_Metronome,63,5,42,127,3120617868
11324,13,Improv_Metronome,64,1,48,109,3120624808
11324,13,Improv_Metronome,65,1,48,78,3120888216
11324,13,Improv_Metronome,66,5,42,127,3121117740
11324,13,Improv_Metronome,67,1,38,112,3121126768
11324,13,Improv_Metronome,68,1,48,123,3121141184
11324,13,Improv_Metronome,69,1,38,66,3121201700
11324,13,Improv_Metronome,70,1,48,72,3121382808
11324,13,Improv_Metronome,71,1,38,85,3121495828
11324,13,Improv_Metronome,72,1,38,44,3121578684
11324,13,Improv_Metronome,73,5,42,127,3121618288
11324,13,Improv_Metronome,74,1,48,83,3121639512
11324,13,Improv_Metronome,75,1,38,101,3121746292
11324,13,Improv_Metronome,76,1,38,71,3121802520
11324,13,Improv_Metronome,77,1,48,95,3121885524
11324,13,Improv_Metronome,78,5,42,127,3122117948
11324,13,Improv_Metronome,79,1,38,109,3122124284
11324,13,Improv_Metronome,80,1,48,127,3122129204
11324,13,Improv_Metronome,81,1,38,54,3122220756
11324,13,Improv_Metronome,82,1,48,93,3122370680
11324,13,Improv_Metronome,83,1,38,78,3122482652
11324,13,Improv_Metronome,84,1,38,33,3122575828
11324,13,Improv_Metronome,85,5,42,127,3122617672
11324,13,Improv_Metronome,86,1,48,119,3122620496
11324,13,Improv_Metronome,87,1,38,103,3122720708
11324,13,Improv_Metronome,88,1,38,76,3122762348
11324,13,Improv_Metronome,89,1,38,54,3122795312
11324,13,Improv_Metronome,90,1,38,42,3122836204
11324,13,Improv_Metronome,91,1,38,116,3122867748
11324,13,Improv_Metronome,92,1,38,127,3123114732
11324,13,Improv_Metronome,93,5,42,127,3123117536
11324,13,Improv_Metronome,94,1,38,93,3123360464
11324,13,Improv_Metronome,95,1,38,103,3123478872
11324,13,Improv_Metronome,96,1,38,65,3123539660
11324,13,Improv_Metronome,97,1,48,127,3123606208
11324,13,Improv_Metronome,98,5,42,127,3123618212
11324,13,Improv_Metronome,99,1,38,100,3123736876
11324,13,Improv_Metronome,100,1,38,69,3123793848
11324,13,Improv_Metronome,101,1,38,127,3123868780
11324,13,Improv_Metronome,102,1,38,64,3123980828
11324,13,Improv_Metronome,103,5,42,127,3124117724
11324,13,Improv_Metronome,104,1,38,127,3124118692
11324,13,Improv_Metronome,105,1,38,83,3124227632
11324,13,Improv_Metronome,106,1,38,127,3124359052
11324,13,Improv_Metronome,107,1,38,127,3124483352
11324,13,Improv_Metronome,108,1,38,84,3124534364
11324,13,Improv_Metronome,109,1,38,40,3124596644
11324,13,Improv_Metronome,110,5,42,127,3124617624
11324,13,Improv_Metronome,111,1,48,127,3124622312
11324,13,Improv_Metronome,112,1,38,30,3124700152
11324,13,Improv_Metronome,113,1,38,21,3124762752
11324,13,Improv_Metronome,114,1,48,76,3124887412
11324,13,Improv_Metronome,115,5,42,127,3125118504
11324,13,Improv_Metronome,116,1,38,120,3125137108
11324,13,Improv_Metronome,117,1,48,127,3125142924
11324,13,Improv_Metronome,118,1,38,67,3125209104
11324,13,Improv_Metronome,119,1,48,77,3125388076
11324,13,Improv_Metronome,120,1,38,88,3125513344
11324,13,Improv_Metronome,121,5,42,127,3125618104
11324,13,Improv_Metronome,122,1,48,82,3125656080
11324,13,Improv_Metronome,123,1,38,115,3125767728
11324,13,Improv_Metronome,124,1,38,66,3125823080
11324,13,Improv_Metronome,125,1,48,78,3125906312
11324,13,Improv_Metronome,126,5,42,127,3126117856
11324,13,Improv_Metronome,127,1,38,106,3126143564
11324,13,Improv_Metronome,128,1,48,127,3126146760
11324,13,Improv_Metronome,129,1,38,64,3126219664
11324,13,Improv_Metronome,130,1,48,94,3126388924
11324,13,Improv_Metronome,131,1,38,127,3126489652
11324,13,Improv_Metronome,132,1,38,72,3126554132
11324,13,Improv_Metronome,133,5,42,127,3126617516
11324,13,Improv_Metronome,134,1,48,127,3126649944
11324,13,Improv_Metronome,135,1,48,77,3126900072
11324,13,Improv_Metronome,136,5,42,127,3127118072
11324,13,Improv_Metronome,137,1,48,127,3127158588
11324,13,Improv_Metronome,138,1,38,127,3127161940
11324,13,Improv_Metronome,139,1,48,66,3127401716
11324,13,Improv_Metronome,140,1,38,84,3127533112
11324,13,Improv_Metronome,141,1,38,51,3127616460
11324,13,Improv_Metronome,142,5,42,127,3127619092
11324,13,Improv_Metronome,143,1,48,74,3127656316
11324,13,Improv_Metronome,144,1,38,108,3127795020
11324,13,Improv_Metronome,145,1,38,73,3127851868
11324,13,Improv_Metronome,146,1,48,71,3127909520
11324,13,Improv_Metronome,147,5,42,127,3128117472
11324,13,Improv_Metronome,148,1,48,127,3128163452
11324,13,Improv_Metronome,149,1,38,93,3128166720
11324,13,Improv_Metronome,150,1,38,62,3128237680
11324,13,Improv_Metronome,151,1,48,87,3128406840
11324,13,Improv_Metronome,152,1,38,101,3128530612
11324,13,Improv_Metronome,153,1,38,70,3128598908
11324,13,Improv_Metronome,154,5,42,127,3128618608
11324,13,Improv_Metronome,155,1,48,96,3128657936
11324,13,Improv_Metronome,156,1,48,77,3128906836
11324,13,Improv_Metronome,157,5,42,127,3129118032
11324,13,Improv_Metronome,158,1,38,121,3129156304
11324,13,Improv_Metronome,159,1,48,127,3129160620
11324,13,Improv_Metronome,160,1,38,37,3129253428
11324,13,Improv_Metronome,161,1,48,79,3129405692
11324,13,Improv_Metronome,162,1,38,98,3129527812
11324,13,Improv_Metronome,163,1,38,60,3129602960
11324,13,Improv_Metronome,164,5,42,127,3129617904
11324,13,Improv_Metronome,165,1,48,75,3129665980
11324,13,Improv_Metronome,166,1,38,123,3129770344
11324,13,Improv_Metronome,167,1,38,83,3129830012
11324,13,Improv_Metronome,168,1,48,75,3129903408
11324,13,Improv_Metronome,169,5,42,127,3130117468
11324,13,Improv_Metronome,170,1,38,127,3130121416
11324,13,Improv_Metronome,171,1,48,127,3130144764
11324,13,Improv_Metronome,172,1,38,67,3130201064
11324,13,Improv_Metronome,173,1,48,123,3130373048
11324,13,Improv_Metronome,174,1,38,125,3130502976
11324,13,Improv_Metronome,175,1,38,79,3130572368
11324,13,Improv_Metronome,176,5,42,127,3130618104
11324,13,Improv_Metronome,177,1,38,127,3130630856
11324,13,Improv_Metronome,178,1,38,115,3130745448
11324,13,Improv_Metronome,179,1,38,78,3130802868
11324,13,Improv_Metronome,180,1,48,107,3130873312
11324,13,Improv_Metronome,181,1,38,40,3130878004
11324,13,Improv_Metronome,182,1,38,35,3130938744
11324,13,Improv_Metronome,183,1,48,127,3131111776
11324,13,Improv_Metronome,184,5,42,127,3131118012
11324,13,Improv_Metronome,185,1,38,121,3131354216
11324,13,Improv_Metronome,186,1,38,119,3131460280
11324,13,Improv_Metronome,187,1,38,82,3131515680
11324,13,Improv_Metronome,188,1,38,50,3131579160
11324,13,Improv_Metronome,189,1,48,111,3131610108
11324,13,Improv_Metronome,190,5,42,127,3131617696
11324,13,Improv_Metronome,191,1,38,42,3131644216
11324,13,Improv_Metronome,192,1,38,33,3131692464
11324,13,Improv_Metronome,193,1,48,86,3131856888
11324,13,Improv_Metronome,194,1,38,110,3132093484
11324,13,Improv_Metronome,195,1,38,116,3132100940
11324,13,Improv_Metronome,196,5,42,127,3132118552
11324,13,Improv_Metronome,197,1,38,72,3132154640
11324,13,Improv_Metronome,198,1,38,67,3132338572
11324,13,Improv_Metronome,199,1,38,87,3132460720
11324,13,Improv_Metronome,200,1,38,73,3132512608
11324,13,Improv_Metronome,201,1,38,52,3132558060
11324,13,Improv_Metronome,202,1,48,127,3132590728
11324,13,Improv_Metronome,203,5,42,127,3132618064
11324,13,Improv_Metronome,204,1,38,19,3132716456
11324,13,Improv_Metronome,205,1,48,62,3132846284
11324,13,Improv_Metronome,206,1,48,127,3133097232
11324,13,Improv_Metronome,207,1,38,104,3133100428
11324,13,Improv_Metronome,208,5,42,127,3133117888
11324,13,Improv_Metronome,209,1,38,75,3133177316
11324,13,Improv_Metronome,210,1,48,64,3133351808
11324,13,Improv_Metronome,211,1,38,96,3133476424
11324,13,Improv_Metronome,212,1,48,82,3133605428
11324,13,Improv_Metronome,213,5,42,127,3133617432
11324,13,Improv_Metronome,214,1,38,127,3133737320
11324,13,Improv_Metronome,215,1,38,82,3133791972
11324,13,Improv_Metronome,216,1,48,79,3133872584
11324,13,Improv_Metronome,217,1,38,112,3134117796
11324,13,Improv_Metronome,218,5,42,127,3134120560
11324,13,Improv_Metronome,219,1,48,127,3134121528
11324,13,Improv_Metronome,220,1,38,71,3134184624
11324,13,Improv_Metronome,221,1,48,99,3134364872
11324,13,Improv_Metronome,222,1,38,127,3134478040
11324,13,Improv_Metronome,223,1,38,73,3134541524
11324,13,Improv_Metronome,224,5,42,127,3134617928
11324,13,Improv_Metronome,225,1,38,124,3134620220
11324,13,Improv_Metronome,226,1,48,93,3134858368
11324,13,Improv_Metronome,227,5,42,127,3135117808
11324,13,Improv_Metronome,228,1,38,124,3135120484
11324,13,Improv_Metronome,229,1,48,127,3135123448
11324,13,Improv_Metronome,230,1,38,73,3135184992
11324,13,Improv_Metronome,231,1,48,65,3135374440
11324,13,Improv_Metronome,232,1,38,101,3135500624
11324,13,Improv_Metronome,233,5,42,127,3135618524
11324,13,Improv_Metronome,234,1,48,88,3135623588
11324,13,Improv_Metronome,235,1,38,94,3135747656
11324,13,Improv_Metronome,236,1,38,65,3135806600
11324,13,Improv_Metronome,237,1,48,100,3135882948
11324,13,Improv_Metronome,238,5,42,127,3136118124
11324,13,Improv_Metronome,239,1,38,91,3136129772
11324,13,Improv_Metronome,240,1,48,127,3136137312
11324,13,Improv_Metronome,241,1,38,70,3136193984
11324,13,Improv_Metronome,242,1,48,94,3136378716
11324,13,Improv_Metronome,243,1,38,117,3136501072
11324,13,Improv_Metronome,244,1,38,74,3136557472
11324,13,Improv_Metronome,245,5,42,127,3136617792
11324,13,Improv_Metronome,246,1,48,127,3136633400
11324,13,Improv_Metronome,247,1,48,68,3136887388
11324,13,Improv_Metronome,248,5,42,127,3137117512
11324,13,Improv_Metronome,249,1,38,127,3137130880
11324,13,Improv_Metronome,250,1,48,127,3137137216
11324,13,Improv_Metronome,251,1,38,70,3137195908
11324,13,Improv_Metronome,252,1,48,94,3137381400
11324,13,Improv_Metronome,253,1,38,118,3137520272
11324,13,Improv_Metronome,254,5,42,127,3137618452
11324,13,Improv_Metronome,255,1,48,81,3137644532
11324,13,Improv_Metronome,256,1,38,127,3137767704
11324,13,Improv_Metronome,257,1,38,75,3137832776
11324,13,Improv_Metronome,258,1,48,76,3137897684
11324,13,Improv_Metronome,259,5,42,127,3138117904
11324,13,Improv_Metronome,260,1,38,98,3138124764
11324,13,Improv_Metronome,261,1,48,127,3138140828
11324,13,Improv_Metronome,262,1,38,63,3138193468
11324,13,Improv_Metronome,263,1,48,103,3138379756
11324,13,Improv_Metronome,264,1,38,119,3138495748
11324,13,Improv_Metronome,265,5,42,127,3138617788
11324,13,Improv_Metronome,266,1,38,127,3138622556
11324,13,Improv_Metronome,267,1,38,101,3138729712
11324,13,Improv_Metronome,268,1,48,20,3138739940
11324,13,Improv_Metronome,269,1,38,73,3138790332
11324,13,Improv_Metronome,270,1,48,84,3138874788
11324,13,Improv_Metronome,271,1,38,89,3138994784
11324,13,Improv_Metronome,272,5,42,127,3139117572
11324,13,Improv_Metronome,273,1,38,127,3139125852
11324,13,Improv_Metronome,274,1,38,78,3139237576
11324,13,Improv_Metronome,275,1,38,32,3139322824
11324,13,Improv_Metronome,276,1,38,127,3139383040
11324,13,Improv_Metronome,277,1,38,105,3139494024
11324,13,Improv_Metronome,278,1,38,34,3139580536
11324,13,Improv_Metronome,279,5,42,127,3139618292
11324,13,Improv_Metronome,280,1,48,85,3139624036
11324,13,Improv_Metronome,281,1,38,91,3139744860
11324,13,Improv_Metronome,282,1,38,127,3139879196
11324,13,Improv_Metronome,283,1,38,94,3139985540
11324,13,Improv_Metronome,284,1,38,66,3140047000
11324,13,Improv_Metronome,285,5,42,127,3140117888
11324,13,Improv_Metronome,286,1,38,127,3140132212
11324,13,Improv_Metronome,287,1,38,103,3140246708
11324,13,Improv_Metronome,288,1,38,127,3140370800
11324,13,Improv_Metronome,289,1,38,127,3140481776
11324,13,Improv_Metronome,290,1,38,74,3140547128
11324,13,Improv_Metronome,291,5,42,127,3140617548
11324,13,Improv_Metronome,292,1,48,106,3140623384
11324,13,Improv_Metronome,293,1,48,72,3140882004
11324,13,Improv_Metronome,294,5,42,127,3141118232
11324,13,Improv_Metronome,295,1,38,127,3141139480
11324,13,Improv_Metronome,296,1,48,105,3141142828
11324,13,Improv_Metronome,297,1,38,66,3141218352
11324,13,Improv_Metronome,298,1,48,59,3141378220
11324,13,Improv_Metronome,299,1,38,95,3141509788
11324,13,Improv_Metronome,300,5,42,127,3141618112
11324,13,Improv_Metronome,301,1,48,73,3141634996
11324,13,Improv_Metronome,302,1,38,18,3141645488
11324,13,Improv_Metronome,303,1,38,110,3141772816
11324,13,Improv_Metronome,304,1,38,81,3141827544
11324,13,Improv_Metronome,305,1,48,78,3141903564
11324,13,Improv_Metronome,306,5,42,127,3142117772
11324,13,Improv_Metronome,307,1,48,127,3142150292
11324,13,Improv_Metronome,308,1,38,127,3142153560
11324,13,Improv_Metronome,309,1,38,71,3142220576
11324,13,Improv_Metronome,310,1,48,91,3142390764
11324,13,Improv_Metronome,311,1,38,127,3142520544
11324,13,Improv_Metronome,312,1,38,70,3142584332
11324,13,Improv_Metronome,313,5,42,127,3142617348
11324,13,Improv_Metronome,314,1,48,99,3142652180
11324,13,Improv_Metronome,315,1,48,75,3142906096
11324,13,Improv_Metronome,316,5,42,127,3143118188
11324,13,Improv_Metronome,317,1,48,127,3143159156
11324,13,Improv_Metronome,318,1,38,108,3143162424
11324,13,Improv_Metronome,319,1,48,69,3143406536
11324,13,Improv_Metronome,320,1,38,92,3143532424
11324,13,Improv_Metronome,321,5,42,127,3143618028
11324,13,Improv_Metronome,322,1,48,86,3143663024
11324,13,Improv_Metronome,323,1,38,116,3143794144
11324,13,Improv_Metronome,324,1,38,76,3143856356
11324,13,Improv_Metronome,325,1,48,72,3143928068
11324,13,Improv_Metronome,326,5,42,127,3144117556
11324,13,Improv_Metronome,327,1,38,127,3144172812
11324,13,Improv_Metronome,328,1,48,113,3144177576
11324,13,Improv_Metronome,329,1,38,52,3144251556
11324,13,Improv_Metronome,330,1,48,79,3144422868
11324,13,Improv_Metronome,331,1,38,89,3144538952
11324,13,Improv_Metronome,332,1,38,65,3144613804
11324,13,Improv_Metronome,333,5,42,127,3144618404
11324,13,Improv_Metronome,334,1,48,101,3144677168
11324,13,Improv_Metronome,335,1,48,74,3144928928
11324,13,Improv_Metronome,336,5,42,127,3145118132
11324,13,Improv_Metronome,337,1,38,108,3145165160
11324,13,Improv_Metronome,338,1,48,127,3145174492
11324,13,Improv_Metronome,339,1,38,54,3145242860
11324,13,Improv_Metronome,340,1,48,68,3145411104
11324,13,Improv_Metronome,341,1,38,127,3145545068
11324,13,Improv_Metronome,342,5,42,127,3145617656
11324,13,Improv_Metronome,343,1,48,88,3145665116
11324,13,Improv_Metronome,344,1,38,126,3145789280
11324,13,Improv_Metronome,345,1,38,80,3145854336
11324,13,Improv_Metronome,346,1,48,83,3145918492
11324,13,Improv_Metronome,347,5,42,127,3146117556
11324,13,Improv_Metronome,348,1,38,116,3146141692
11324,13,Improv_Metronome,349,1,48,127,3146158652
11324,13,Improv_Metronome,350,1,38,50,3146219220
11324,13,Improv_Metronome,351,1,48,76,3146392876
11324,13,Improv_Metronome,352,1,38,127,3146516440
11324,13,Improv_Metronome,353,1,38,77,3146586212
11324,13,Improv_Metronome,354,1,48,15,3146601148
11324,13,Improv_Metronome,355,5,42,127,3146618160
11324,13,Improv_Metronome,356,1,48,79,3146644224
11324,13,Improv_Metronome,357,5,42,127,3147117960
11324,13,Improv_Metronome,358,1,48,127,3147185556
11324,13,Improv_Metronome,359,5,42,127,3147617580
11324,13,Improv_Metronome,360,1,48,127,3147678664
11324,13,Improv_Metronome,361,1,48,47,3147889596
11324,13,Improv_Metronome,362,1,48,100,3148012696
11324,13,Improv_Metronome,363,1,48,58,3148081364
11324,13,Improv_Metronome,364,5,42,127,3148118572
11324,13,Improv_Metronome,365,1,48,127,3148144636
11324,13,Improv_Metronome,366,1,48,126,3148398428
11324,13,Improv_Metronome,367,5,42,127,3148618228
11324,13,Improv_Metronome,368,1,48,127,3148659124
11324,13,Improv_Metronome,369,1,48,52,3148904160
11324,13,Improv_Metronome,370,5,42,127,3149118196
11324,13,Improv_Metronome,371,1,38,127,3149160212
11324,13,Improv_Metronome,372,1,48,100,3149164908
11324,13,Improv_Metronome,373,1,38,65,3149227340
11324,13,Improv_Metronome,374,1,48,53,3149401820
11324,13,Improv_Metronome,375,1,38,118,3149524688
11324,13,Improv_Metronome,376,5,42,127,3149617424
11324,13,Improv_Metronome,377,1,48,78,3149646108
11324,13,Improv_Metronome,378,1,38,117,3149781320
11324,13,Improv_Metronome,379,1,38,70,3149860604
11324,13,Improv_Metronome,380,1,48,86,3149905912
11324,13,Improv_Metronome,381,5,42,127,3150118208
11324,13,Improv_Metronome,382,1,38,112,3150149752
11324,13,Improv_Metronome,383,1,48,127,3150154664
11324,13,Improv_Metronome,384,1,38,64,3150228244
11324,13,Improv_Metronome,385,1,48,60,3150404220
11324,13,Improv_Metronome,386,1,38,108,3150521180
11324,13,Improv_Metronome,387,1,38,49,3150577856
11324,13,Improv_Metronome,388,5,42,127,3150617932
11324,13,Improv_Metronome,389,1,38,40,3150645944
11324,13,Improv_Metronome,390,1,48,124,3150648544
11324,13,Improv_Metronome,391,1,48,66,3150900208
11324,13,Improv_Metronome,392,5,42,127,3151117692
11324,13,Improv_Metronome,393,1,48,120,3151157388
11324,13,Improv_Metronome,394,1,38,127,3151160660
11324,13,Improv_Metronome,395,1,48,59,3151401704
11324,13,Improv_Metronome,396,1,38,106,3151532804
11324,13,Improv_Metronome,397,1,38,57,3151593068
11324,13,Improv_Metronome,398,5,42,127,3151618384
11324,13,Improv_Metronome,399,1,48,81,3151648452
11324,13,Improv_Metronome,400,1,38,115,3151784536
11324,13,Improv_Metronome,401,1,38,73,3151841588
11324,13,Improv_Metronome,402,1,48,84,3151908028
11324,13,Improv_Metronome,403,5,42,127,3152118120
11324,13,Improv_Metronome,404,1,48,127,3152159560
11324,13,Improv_Metronome,405,1,38,127,3152168368
11324,13,Improv_Metronome,406,1,48,74,3152406724
11324,13,Improv_Metronome,407,1,38,91,3152533108
11324,13,Improv_Metronome,408,1,38,62,3152585972
11324,13,Improv_Metronome,409,5,42,127,3152617940
11324,13,Improv_Metronome,410,1,38,35,3152651808
11324,13,Improv_Metronome,411,1,48,108,3152662932
11324,13,Improv_Metronome,412,1,48,81,3152921332
11324,13,Improv_Metronome,413,5,42,127,3153117396
11324,13,Improv_Metronome,414,1,38,117,3153159108
11324,13,Improv_Metronome,415,1,48,127,3153173940
11324,13,Improv_Metronome,416,1,38,73,3153226720
11324,13,Improv_Metronome,417,1,48,79,3153417260
11324,13,Improv_Metronome,418,1,38,127,3153542096
11324,13,Improv_Metronome,419,5,42,127,3153618200
11324,13,Improv_Metronome,420,1,48,87,3153678776
11324,13,Improv_Metronome,421,1,38,126,3153788776
11324,13,Improv_Metronome,422,1,38,81,3153840220
11324,13,Improv_Metronome,423,1,48,111,3153918732
11324,13,Improv_Metronome,424,5,42,127,3154118088
11324,13,Improv_Metronome,425,1,38,127,3154149104
11324,13,Improv_Metronome,426,1,48,127,3154167784
11324,13,Improv_Metronome,427,1,38,54,3154228376
11324,13,Improv_Metronome,428,1,48,101,3154407468
11324,13,Improv_Metronome,429,1,38,127,3154527068
11324,13,Improv_Metronome,430,1,38,59,3154589952
11324,13,Improv_Metronome,431,5,42,127,3154617660
11324,13,Improv_Metronome,432,1,48,116,3154637680
11324,13,Improv_Metronome,433,1,38,127,3154751140
11324,13,Improv_Metronome,434,1,38,64,3154806244
11324,13,Improv_Metronome,435,1,38,127,3154882440
11324,13,Improv_Metronome,436,1,38,127,3154995164
11324,13,Improv_Metronome,437,5,42,127,3155117328
11324,13,Improv_Metronome,438,1,48,89,3155126128
11324,13,Improv_Metronome,439,1,38,103,3155237136
11324,13,Improv_Metronome,440,1,38,127,3155371600
11324,13,Improv_Metronome,441,1,38,127,3155483572
11324,13,Improv_Metronome,442,1,48,104,3155612952
11324,13,Improv_Metronome,443,5,42,127,3155618444
11324,13,Improv_Metronome,444,1,48,98,3155725620
11324,13,Improv_Metronome,445,1,48,127,3155865320
11324,13,Improv_Metronome,446,1,48,95,3155943308
11324,13,Improv_Metronome,447,1,48,58,3155989616
11324,13,Improv_Metronome,448,1,48,61,3156098348
11324,13,Improv_Metronome,449,1,38,27,3156106780
11324,13,Improv_Metronome,450,5,42,127,3156118032
11324,13,Improv_Metronome,451,1,38,127,3156228068
11324,13,Improv_Metronome,452,1,38,124,3156345132
11324,13,Improv_Metronome,453,1,38,127,3156474584
11324,13,Improv_Metronome,454,1,48,122,3156596508
11324,13,Improv_Metronome,455,1,38,22,3156607260
11324,13,Improv_Metronome,456,5,42,127,3156617616
11324,13,Improv_Metronome,457,1,48,127,3156850800
11324,13,Improv_Metronome,458,1,48,127,3157106232
11324,13,Improv_Metronome,459,1,38,109,3157108832
11324,13,Improv_Metronome,460,5,42,127,3157118288
11324,13,Improv_Metronome,461,1,38,43,3157189604
11324,13,Improv_Metronome,462,1,48,71,3157354004
11324,13,Improv_Metronome,463,1,38,119,3157476124
11324,13,Improv_Metronome,464,1,48,102,3157603208
11324,13,Improv_Metronome,465,5,42,127,3157617980
11324,13,Improv_Metronome,466,1,38,106,3157736120
11324,13,Improv_Metronome,467,1,38,63,3157818172
11324,13,Improv_Metronome,468,1,48,82,3157862212
11324,13,Improv_Metronome,469,1,48,127,3158118108
11324,13,Improv_Metronome,470,5,42,127,3158119528
11324,13,Improv_Metronome,471,1,38,99,3158121972
11324,13,Improv_Metronome,472,1,48,64,3158376184
11324,13,Improv_Metronome,473,1,38,126,3158499360
11324,13,Improv_Metronome,474,1,38,67,3158572660
11324,13,Improv_Metronome,475,5,42,127,3158617496
11324,13,Improv_Metronome,476,1,48,127,3158623464
11324,13,Improv_Metronome,477,1,48,51,3158896000
11324,13,Improv_Metronome,478,5,42,127,3159118040
11324,13,Improv_Metronome,479,1,38,127,3159146140
11324,13,Improv_Metronome,480,1,48,100,3159149412
11324,13,Improv_Metronome,481,1,48,67,3159395248
11324,13,Improv_Metronome,482,1,38,127,3159538844
11324,13,Improv_Metronome,483,5,42,127,3159617884
11324,13,Improv_Metronome,484,1,48,65,3159664000
11324,13,Improv_Metronome,485,1,38,127,3159796072
11324,13,Improv_Metronome,486,1,38,73,3159859052
11324,13,Improv_Metronome,487,1,48,76,3159916252
11324,13,Improv_Metronome,488,5,42,127,3160117548
11324,13,Improv_Metronome,489,1,38,127,3160170560
11324,13,Improv_Metronome,490,1,48,115,3160176972
11324,13,Improv_Metronome,491,1,48,70,3160421160
11324,13,Improv_Metronome,492,1,38,79,3160537524
11324,13,Improv_Metronome,493,1,38,55,3160595796
11324,13,Improv_Metronome,494,5,42,127,3160618268
11324,13,Improv_Metronome,495,1,48,105,3160672328
11324,13,Improv_Metronome,496,1,48,73,3160931404
11324,13,Improv_Metronome,497,5,42,127,3161117912
11324,13,Improv_Metronome,498,1,38,127,3161183036
11324,13,Improv_Metronome,499,1,48,101,3161192968
11324,13,Improv_Metronome,500,1,38,42,3161258616
11324,13,Improv_Metronome,501,1,48,64,3161435728
11324,13,Improv_Metronome,502,1,38,95,3161546700
11324,13,Improv_Metronome,503,5,42,127,3161617820
11324,13,Improv_Metronome,504,1,48,95,3161687496
11324,13,Improv_Metronome,505,1,38,105,3161810216
11324,13,Improv_Metronome,506,1,38,67,3161871928
11324,13,Improv_Metronome,507,1,48,94,3161942444
11324,13,Improv_Metronome,508,5,42,127,3162117388
11324,13,Improv_Metronome,509,1,38,127,3162178872
11324,13,Improv_Metronome,510,1,48,127,3162192764
11324,13,Improv_Metronome,511,1,38,51,3162259612
11324,13,Improv_Metronome,512,1,48,83,3162428176
11324,13,Improv_Metronome,513,1,38,110,3162552920
11324,13,Improv_Metronome,514,5,42,127,3162618176
11324,13,Improv_Metronome,515,1,48,121,3162679352
11324,13,Improv_Metronome,516,1,38,121,3162794888
11324,13,Improv_Metronome,517,1,38,117,3162917116
11324,13,Improv_Metronome,518,1,38,84,3163033472
11324,13,Improv_Metronome,519,1,38,33,3163113188
11324,13,Improv_Metronome,520,5,42,127,3163118084
11324,13,Improv_Metronome,521,1,48,113,3163175008
11324,13,Improv_Metronome,522,1,38,70,3163294408
11324,13,Improv_Metronome,523,1,38,127,3163400900
11324,13,Improv_Metronome,524,1,38,91,3163524396
11324,13,Improv_Metronome,525,5,42,127,3163617996
11324,13,Improv_Metronome,526,1,48,127,3163654760
11324,13,Improv_Metronome,527,1,38,112,3163762924
11324,13,Improv_Metronome,528,1,48,119,3163903220
11324,13,Improv_Metronome,529,1,48,124,3164017660
11324,13,Improv_Metronome,530,5,42,127,3164118508
11324,13,Improv_Metronome,531,1,48,86,3164149452
11324,13,Improv_Metronome,532,1,38,21,3164158780
11324,13,Improv_Metronome,533,1,48,127,3164232312
11324,13,Improv_Metronome,534,1,48,127,3164381784
11324,13,Improv_Metronome,535,1,38,106,3164493756
11324,13,Improv_Metronome,536,5,42,127,3164618016
11324,13,Improv_Metronome,537,1,38,127,3164636988
11324,13,Improv_Metronome,538,1,48,81,3164885696
11324,13,Improv_Metronome,539,5,42,127,3165118060
11324,13,Improv_Metronome,540,1,38,127,3165129036
11324,13,Improv_Metronome,541,1,48,120,3165138440
11324,13,Improv_Metronome,542,1,48,67,3165387488
11324,13,Improv_Metronome,543,1,38,114,3165514276
11324,13,Improv_Metronome,544,5,42,127,3165617364
11324,13,Improv_Metronome,545,1,48,115,3165636340
11324,13,Improv_Metronome,546,1,38,127,3165772400
11324,13,Improv_Metronome,547,1,38,44,3165861684
11324,13,Improv_Metronome,548,1,48,93,3165894428
11324,13,Improv_Metronome,549,5,42,127,3166118252
11324,13,Improv_Metronome,550,1,38,127,3166142460
11324,13,Improv_Metronome,551,1,48,119,3166146708
11324,13,Improv_Metronome,552,1,48,81,3166392620
11324,13,Improv_Metronome,553,1,38,106,3166505936
11324,13,Improv_Metronome,554,1,38,64,3166576228
11324,13,Improv_Metronome,555,5,42,127,3166618000
11324,13,Improv_Metronome,556,1,48,118,3166649916
11324,13,Improv_Metronome,557,1,48,71,3166914536
11324,13,Improv_Metronome,558,5,42,127,3167117880
11324,13,Improv_Metronome,559,1,38,104,3167165952
11324,13,Improv_Metronome,560,1,48,95,3167171392
11324,13,Improv_Metronome,561,1,48,76,3167412064
11324,13,Improv_Metronome,562,1,38,123,3167544012
11324,13,Improv_Metronome,563,5,42,127,3167618768
11324,13,Improv_Metronome,564,1,48,102,3167665260
11324,13,Improv_Metronome,565,1,38,110,3167798924
11324,13,Improv_Metronome,566,1,38,75,3167864796
11324,13,Improv_Metronome,567,1,48,90,3167926932
11324,13,Improv_Metronome,568,5,42,127,3168117996
11324,13,Improv_Metronome,569,1,38,127,3168176316
11324,13,Improv_Metronome,570,1,48,103,3168183248
11324,13,Improv_Metronome,571,1,48,75,3168428340
11324,13,Improv_Metronome,572,1,38,111,3168548916
11324,13,Improv_Metronome,573,5,42,127,3168618060
11324,13,Improv_Metronome,574,1,38,62,3168631192
11324,13,Improv_Metronome,575,1,48,99,3168685476
11324,13,Improv_Metronome,576,1,48,72,3168935436
11324,13,Improv_Metronome,577,5,42,127,3169117536
11324,13,Improv_Metronome,578,1,38,97,3169168604
11324,13,Improv_Metronome,579,1,48,102,3169182192
11324,13,Improv_Metronome,580,1,48,86,3169422868
11324,13,Improv_Metronome,581,1,38,103,3169553768
11324,13,Improv_Metronome,582,5,42,127,3169618352
11324,13,Improv_Metronome,583,1,48,97,3169677332
11324,13,Improv_Metronome,584,1,38,127,3169800872
11324,13,Improv_Metronome,585,1,38,81,3169873132
11324,13,Improv_Metronome,586,1,48,79,3169932048
11324,13,Improv_Metronome,587,5,42,127,3170118088
11324,13,Improv_Metronome,588,1,38,127,3170168404
11324,13,Improv_Metronome,589,1,48,119,3170177808
11324,13,Improv_Metronome,0,1,48,102,3170424096
11324,13,Improv_Metronome,1,1,38,107,3172848564
11324,13,Improv_Metronome,2,1,48,120,3172849292
11324,13,Improv_Metronome,3,1,38,101,3172849928
11324,13,Improv_Metronome,4,1,38,50,3172850648
11324,13,Improv_Metronome,5,1,38,99,3172851268
11324,13,Improv_Metronome,6,1,38,83,3172851908
11324,13,Improv_Metronome,7,1,38,49,3172852640
11324,13,Improv_Metronome,8,1,48,120,3172852864
11324,13,Improv_Metronome,9,1,38,71,3172853652
11324,13,Improv_Metronome,10,1,48,119,3172854328
11324,13,Improv_Metronome,11,5,42,127,3172855316
11324,13,Improv_Metronome,12,5,42,127,3172856468
11324,13,Improv_Metronome,13,5,42,127,3172859672
11324,13,Improv_Metronome,14,5,42,127,3172862316
11324,13,Improv_Metronome,15,1,48,101,3172932736
11324,13,Improv_Metronome,16,5,42,127,3173118324
11324,13,Improv_Metronome,17,1,38,127,3173180404
11324,13,Improv_Metronome,18,1,48,90,3173183684
11324,13,Improv_Metronome,19,1,48,73,3173432436
11324,13,Improv_Metronome,20,1,38,89,3173557696
11324,13,Improv_Metronome,21,5,42,127,3173618016
11324,13,Improv_Metronome,22,1,48,82,3173682632
11324,13,Improv_Metronome,23,1,38,82,3173816196
11324,13,Improv_Metronome,24,1,38,63,3173884464
11324,13,Improv_Metronome,25,1,48,97,3173944244
11324,13,Improv_Metronome,26,5,42,127,3174117916
11324,13,Improv_Metronome,27,1,38,117,3174188084
11324,13,Improv_Metronome,28,1,48,123,3174199804
11324,13,Improv_Metronome,29,1,38,57,3174267772
11324,13,Improv_Metronome,30,1,48,71,3174450780
11324,13,Improv_Metronome,31,1,38,80,3174580976
11324,13,Improv_Metronome,32,5,42,127,3174617660
11324,13,Improv_Metronome,33,1,38,54,3174656372
11324,13,Improv_Metronome,34,1,48,119,3174704636
11324,13,Improv_Metronome,35,1,48,76,3174962736
11324,13,Improv_Metronome,36,5,42,127,3175118112
11324,13,Improv_Metronome,37,1,38,96,3175203232
11324,13,Improv_Metronome,38,1,48,103,3175214880
11324,13,Improv_Metronome,39,1,38,62,3175275220
11324,13,Improv_Metronome,40,1,48,66,3175470120
11324,13,Improv_Metronome,41,1,38,70,3175602936
11324,13,Improv_Metronome,42,5,42,127,3175618004
11324,13,Improv_Metronome,43,1,48,76,3175712760
11324,13,Improv_Metronome,44,1,38,72,3175858820
11324,13,Improv_Metronome,45,1,38,31,3175947156
11324,13,Improv_Metronome,46,1,48,72,3175974592
11324,13,Improv_Metronome,47,5,42,127,3176117820
11324,13,Improv_Metronome,48,1,38,61,3176225088
11324,13,Improv_Metronome,49,1,48,82,3176232544
11324,13,Improv_Metronome,50,1,38,21,3176311732
11324,13,Improv_Metronome,51,1,48,56,3176484788
11324,13,Improv_Metronome,52,1,38,56,3176595844
11324,13,Improv_Metronome,53,5,42,127,3176618388
11324,13,Improv_Metronome,54,1,38,38,3176664208
11324,13,Improv_Metronome,55,1,48,109,3176733712
11324,13,Improv_Metronome,56,1,48,57,3176997864
11324,13,Improv_Metronome,57,5,42,127,3177118012
11324,13,Improv_Metronome,58,1,38,107,3177234704
11324,13,Improv_Metronome,59,1,48,61,3177245156
11324,13,Improv_Metronome,60,1,38,54,3177313048
11324,13,Improv_Metronome,61,1,48,63,3177500536
11324,13,Improv_Metronome,62,5,42,127,3177617840
11324,13,Improv_Metronome,63,1,38,88,3177646244
11324,13,Improv_Metronome,64,1,48,90,3177755824
11324,13,Improv_Metronome,65,1,38,70,3177893800
11324,13,Improv_Metronome,66,1,38,52,3177948904
11324,13,Improv_Metronome,67,1,48,96,3178022448
11324,13,Improv_Metronome,68,5,42,127,3178117760
11324,13,Improv_Metronome,69,1,38,114,3178270936
11324,13,Improv_Metronome,70,1,48,127,3178279220
11324,13,Improv_Metronome,71,1,38,30,3178363268
11324,13,Improv_Metronome,72,1,48,82,3178532064
11324,13,Improv_Metronome,73,5,42,127,3178618112
11324,13,Improv_Metronome,74,1,38,62,3178641636
11324,13,Improv_Metronome,75,1,38,32,3178723592
11324,13,Improv_Metronome,76,1,48,106,3178775968
11324,13,Improv_Metronome,77,1,38,100,3178899560
11324,13,Improv_Metronome,78,1,38,78,3178955708
11324,13,Improv_Metronome,79,1,38,51,3179017768
11324,13,Improv_Metronome,80,1,38,108,3179022908
11324,13,Improv_Metronome,81,1,38,41,3179078912
11324,13,Improv_Metronome,82,5,42,127,3179118060
11324,13,Improv_Metronome,83,1,38,30,3179123408
11324,13,Improv_Metronome,84,5,42,127,3179617592
11324,13,Improv_Metronome,85,5,42,127,3180118432
11324,13,Improv_Metronome,86,5,42,127,3180618072
11324,13,Improv_Metronome,87,1,48,127,3181089624
11324,13,Improv_Metronome,88,5,42,127,3181117780
11324,13,Improv_Metronome,89,1,48,43,3181346500
11324,13,Improv_Metronome,90,1,38,127,3181604852
11324,13,Improv_Metronome,91,1,48,116,3181617292
11324,13,Improv_Metronome,92,5,42,127,3181618928
11324,13,Improv_Metronome,93,1,38,64,3181690624
11324,13,Improv_Metronome,94,1,48,61,3181874604
11324,13,Improv_Metronome,95,1,38,90,3181988200
11324,13,Improv_Metronome,96,1,48,98,3182117792
11324,13,Improv_Metronome,97,5,42,127,3182119580
11324,13,Improv_Metronome,98,1,38,110,3182239824
11324,13,Improv_Metronome,99,1,38,71,3182295524
11324,13,Improv_Metronome,100,1,48,80,3182380436
11324,13,Improv_Metronome,0,9999,9999,9999,3112616000
11324,13,Improv_Metronome,1,9999,9999,9999,3113115716
11324,13,Improv_Metronome,2,9999,9999,9999,3113615432
11324,13,Improv_Metronome,3,9999,9999,9999,3114115148
11324,13,Improv_Metronome,4,9999,9999,9999,3114615912
11324,13,Improv_Metronome,5,9999,9999,9999,3115115628
11324,13,Improv_Metronome,6,9999,9999,9999,3115615344
11324,13,Improv_Metronome,7,9999,9999,9999,3116116072
11324,13,Improv_Metronome,8,9999,9999,9999,3116615740
11324,13,Improv_Metronome,9,9999,9999,9999,3117115460
11324,13,Improv_Metronome,10,9999,9999,9999,3117615180
11324,13,Improv_Metronome,11,9999,9999,9999,3118115952
11324,13,Improv_Metronome,12,9999,9999,9999,3118615604
11324,13,Improv_Metronome,13,9999,9999,9999,3119115372
11324,13,Improv_Metronome,14,9999,9999,9999,3119616096
11324,13,Improv_Metronome,15,9999,9999,9999,3120115804
11324,13,Improv_Metronome,16,9999,9999,9999,3120615508
11324,13,Improv_Metronome,17,9999,9999,9999,3121115228
11324,13,Improv_Metronome,18,9999,9999,9999,3121615924
11324,13,Improv_Metronome,19,9999,9999,9999,3122115664
11324,13,Improv_Metronome,20,9999,9999,9999,3122615388
11324,13,Improv_Metronome,21,9999,9999,9999,3123115100
11324,13,Improv_Metronome,22,9999,9999,9999,3123615852
11324,13,Improv_Metronome,23,9999,9999,9999,3124115512
11324,13,Improv_Metronome,24,9999,9999,9999,3124615264
11324,13,Improv_Metronome,25,9999,9999,9999,3125115996
11324,13,Improv_Metronome,26,9999,9999,9999,3125615668
11324,13,Improv_Metronome,27,9999,9999,9999,3126115420
11324,13,Improv_Metronome,28,9999,9999,9999,3126615156
11324,13,Improv_Metronome,29,9999,9999,9999,3127115860
11324,13,Improv_Metronome,30,9999,9999,9999,3127615540
11324,13,Improv_Metronome,31,9999,9999,9999,3128115260
11324,13,Improv_Metronome,32,9999,9999,9999,3128616024
11324,13,Improv_Metronome,33,9999,9999,9999,3129115744
11324,13,Improv_Metronome,34,9999,9999,9999,3129615468
11324,13,Improv_Metronome,35,9999,9999,9999,3130115180
11324,13,Improv_Metronome,36,9999,9999,9999,3130615892
11324,13,Improv_Metronome,37,9999,9999,9999,3131115580
11324,13,Improv_Metronome,38,9999,9999,9999,3131615336
11324,13,Improv_Metronome,39,9999,9999,9999,3132116040
11324,13,Improv_Metronome,40,9999,9999,9999,3132615776
11324,13,Improv_Metronome,41,9999,9999,9999,3133115452
11324,13,Improv_Metronome,42,9999,9999,9999,3133615220
11324,13,Improv_Metronome,43,9999,9999,9999,3134115888
11324,13,Improv_Metronome,44,9999,9999,9999,3134615640
11324,13,Improv_Metronome,45,9999,9999,9999,3135115372
11324,13,Improv_Metronome,46,9999,9999,9999,3135616088
11324,13,Improv_Metronome,47,9999,9999,9999,3136115764
11324,13,Improv_Metronome,48,9999,9999,9999,3136615504
11324,13,Improv_Metronome,49,9999,9999,9999,3137115224
11324,13,Improv_Metronome,50,9999,9999,9999,3137615940
11324,13,Improv_Metronome,51,9999,9999,9999,3138115692
11324,13,Improv_Metronome,52,9999,9999,9999,3138615352
11324,13,Improv_Metronome,53,9999,9999,9999,3139115060
11324,13,Improv_Metronome,54,9999,9999,9999,3139615860
11324,13,Improv_Metronome,55,9999,9999,9999,3140115528
11324,13,Improv_Metronome,56,9999,9999,9999,3140615260
11324,13,Improv_Metronome,57,9999,9999,9999,3141116020
11324,13,Improv_Metronome,58,9999,9999,9999,3141615680
11324,13,Improv_Metronome,59,9999,9999,9999,3142115412
11324,13,Improv_Metronome,60,9999,9999,9999,3142615136
11324,13,Improv_Metronome,61,9999,9999,9999,3143115824
11324,13,Improv_Metronome,62,9999,9999,9999,3143615592
11324,13,Improv_Metronome,63,9999,9999,9999,3144115272
11324,13,Improv_Metronome,64,9999,9999,9999,3144616044
11324,13,Improv_Metronome,65,9999,9999,9999,3145115700
11324,13,Improv_Metronome,66,9999,9999,9999,3145615444
11324,13,Improv_Metronome,67,9999,9999,9999,3146115120
11324,13,Improv_Metronome,68,9999,9999,9999,3146615872
11324,13,Improv_Metronome,69,9999,9999,9999,3147115600
11324,13,Improv_Metronome,70,9999,9999,9999,3147615296
11324,13,Improv_Metronome,71,9999,9999,9999,3148116060
11324,13,Improv_Metronome,72,9999,9999,9999,3148615792
11324,13,Improv_Metronome,73,9999,9999,9999,3149115464
11324,13,Improv_Metronome,74,9999,9999,9999,3149615212
11324,13,Improv_Metronome,75,9999,9999,9999,3150115920
11324,13,Improv_Metronome,76,9999,9999,9999,3150615644
11324,13,Improv_Metronome,77,9999,9999,9999,3151115332
11324,13,Improv_Metronome,78,9999,9999,9999,3151616096
11324,13,Improv_Metronome,79,9999,9999,9999,3152115760
11324,13,Improv_Metronome,80,9999,9999,9999,3152615508
11324,13,Improv_Metronome,81,9999,9999,9999,3153115184
11324,13,Improv_Metronome,82,9999,9999,9999,3153615988
11324,13,Improv_Metronome,83,9999,9999,9999,3154115652
11324,13,Improv_Metronome,84,9999,9999,9999,3154615376
11324,13,Improv_Metronome,85,9999,9999,9999,3155115116
11324,13,Improv_Metronome,86,9999,9999,9999,3155615860
11324,13,Improv_Metronome,87,9999,9999,9999,3156115524
11324,13,Improv_Metronome,88,9999,9999,9999,3156615256
11324,13,Improv_Metronome,89,9999,9999,9999,3157116004
11324,13,Improv_Metronome,90,9999,9999,9999,3157615692
11324,13,Improv_Metronome,91,9999,9999,9999,3158115376
11324,13,Improv_Metronome,92,9999,9999,9999,3158615136
11324,13,Improv_Metronome,93,9999,9999,9999,3159115828
11324,13,Improv_Metronome,94,9999,9999,9999,3159615600
11324,13,Improv_Metronome,95,9999,9999,9999,3160115264
11324,13,Improv_Metronome,96,9999,9999,9999,3160616056
11324,13,Improv_Metronome,97,9999,9999,9999,3161115700
11324,13,Improv_Metronome,98,9999,9999,9999,3161615460
11324,13,Improv_Metronome,99,9999,9999,9999,3162115176
11324,13,Improv_Metronome,100,9999,9999,9999,3162615892
11324,13,Improv_Metronome,101,9999,9999,9999,3163115572
11324,13,Improv_Metronome,102,9999,9999,9999,3163615336
11324,13,Improv_Metronome,103,9999,9999,9999,3164116072
11324,13,Improv_Metronome,104,9999,9999,9999,3164615728
11324,13,Improv_Metronome,105,9999,9999,9999,3165115476
11324,13,Improv_Metronome,106,9999,9999,9999,3165615152
11324,13,Improv_Metronome,107,9999,9999,9999,3166115892
11324,13,Improv_Metronome,108,9999,9999,9999,3166615636
11324,13,Improv_Metronome,109,9999,9999,9999,3167115368
11324,13,Improv_Metronome,110,9999,9999,9999,3167616108
11324,13,Improv_Metronome,111,9999,9999,9999,3168115784
11324,13,Improv_Metronome,112,9999,9999,9999,3168615476
11324,13,Improv_Metronome,113,9999,9999,9999,3169115248
11324,13,Improv_Metronome,114,9999,9999,9999,3169615988
11324,13,Improv_Metronome,115,9999,9999,9999,3170115652
11324,13,Improv_Metronome,116,9999,9999,9999,3172847612
11324,13,Improv_Metronome,117,9999,9999,9999,3172847812
11324,13,Improv_Metronome,118,9999,9999,9999,3172847988
11324,13,Improv_Metronome,119,9999,9999,9999,3172848168
11324,13,Improv_Metronome,120,9999,9999,9999,3172848348
11324,13,Improv_Metronome,121,9999,9999,9999,3173115964
11324,13,Improv_Metronome,122,9999,9999,9999,3173615732
11324,13,Improv_Metronome,123,9999,9999,9999,3174115408
11324,13,Improv_Metronome,124,9999,9999,9999,3174615152
11324,13,Improv_Metronome,125,9999,9999,9999,3175115824
11324,13,Improv_Metronome,126,9999,9999,9999,3175615568
11324,13,Improv_Metronome,127,9999,9999,9999,3176115312
11324,13,Improv_Metronome,128,9999,9999,9999,3176616028
11324,13,Improv_Metronome,129,9999,9999,9999,3177115724
11324,13,Improv_Metronome,130,9999,9999,9999,3177615480
11324,13,Improv_Metronome,131,9999,9999,9999,3178115176
11324,13,Improv_Metronome,132,9999,9999,9999,3178615900
11324,13,Improv_Metronome,133,9999,9999,9999,3179115628
11324,13,Improv_Metronome,134,9999,9999,9999,3179615308
11324,13,Improv_Metronome,135,9999,9999,9999,3180116068
11324,13,Improv_Metronome,136,9999,9999,9999,3180615788
11324,13,Improv_Metronome,137,9999,9999,9999,3181115496
11324,13,Improv_Metronome,138,9999,9999,9999,3181615168
11324,13,Improv_Metronome,139,9999,9999,9999,3182115956
11325,14,Improv_Melody,0,2,48,80,3236915576
11325,14,Improv_Melody,1,2,72,80,3236918168
11325,14,Improv_Melody,2,5,42,127,3236919736
11325,14,Improv_Melody,3,5,42,110,3237413252
11325,14,Improv_Melody,4,5,42,110,3237912824
11325,14,Improv_Melody,5,5,42,110,3238412620
11325,14,Improv_Melody,6,5,42,127,3238913440
11325,14,Improv_Melody,7,5,42,110,3239413160
11325,14,Improv_Melody,8,5,42,110,3239912732
11325,14,Improv_Melody,9,5,42,110,3240412452
11325,14,Improv_Melody,10,2,43,80,3240915800
11325,14,Improv_Melody,11,2,67,80,3240918032
11325,14,Improv_Melody,12,5,42,127,3240920568
11325,14,Improv_Melody,13,5,42,110,3241412884
11325,14,Improv_Melody,14,5,42,110,3241912680
11325,14,Improv_Melody,15,5,42,110,3242413748
11325,14,Improv_Melody,16,5,42,127,3242913320
11325,14,Improv_Melody,17,5,42,110,3243412740
11325,14,Improv_Melody,18,5,42,110,3243912540
11325,14,Improv_Melody,19,5,42,110,3244413380
11325,14,Improv_Melody,20,2,45,80,3244915532
11325,14,Improv_Melody,21,2,69,80,3244917532
11325,14,Improv_Melody,22,5,42,127,3244920220
11325,14,Improv_Melody,23,5,42,110,3245412688
11325,14,Improv_Melody,24,5,42,110,3245912408
11325,14,Improv_Melody,25,5,42,110,3246413404
11325,14,Improv_Melody,26,5,42,127,3246912828
11325,14,Improv_Melody,27,5,42,110,3247412624
11325,14,Improv_Melody,28,5,42,110,3247913464
11325,14,Improv_Melody,29,5,42,110,3248413260
11325,14,Improv_Melody,30,2,41,80,3248915264
11325,14,Improv_Melody,31,2,65,80,3248917264
11325,14,Improv_Melody,32,5,42,127,3248920028
11325,14,Improv_Melody,33,5,42,110,3249412396
11325,14,Improv_Melody,34,5,42,110,3249913388
11325,14,Improv_Melody,35,5,42,110,3250413036
11325,14,Improv_Melody,36,5,42,127,3250912684
11325,14,Improv_Melody,37,1,38,68,3251154060
11325,14,Improv_Melody,38,1,38,92,3251161440
11325,14,Improv_Melody,39,1,38,45,3251235640
11325,14,Improv_Melody,40,5,42,110,3251413536
11325,14,Improv_Melody,41,5,42,110,3251913256
11325,14,Improv_Melody,42,1,38,117,3251930216
11325,14,Improv_Melody,43,1,38,32,3252037252
11325,14,Improv_Melody,44,1,38,72,3252299420
11325,14,Improv_Melody,45,1,38,45,3252386016
11325,14,Improv_Melody,46,5,42,110,3252412756
11325,14,Improv_Melody,47,1,38,98,3252442036
11325,14,Improv_Melody,48,1,38,28,3252537108
11325,14,Improv_Melody,49,2,48,80,3252915524
11325,14,Improv_Melody,50,2,72,80,3252917452
11325,14,Improv_Melody,51,5,42,127,3252920132
11325,14,Improv_Melody,52,1,48,56,3252935220
11325,14,Improv_Melody,53,5,42,110,3253413328
11325,14,Improv_Melody,54,1,48,31,3253462448
11325,14,Improv_Melody,55,1,48,28,3253712868
11325,14,Improv_Melody,56,1,48,19,3253776604
11325,14,Improv_Melody,57,5,42,110,3253913132
11325,14,Improv_Melody,58,1,38,81,3253967264
11325,14,Improv_Melody,59,1,38,60,3254035332
11325,14,Improv_Melody,60,1,38,18,3254155288
11325,14,Improv_Melody,61,5,42,110,3254412640
11325,14,Improv_Melody,62,1,48,40,3254692012
11325,14,Improv_Melody,63,5,42,127,3254913312
11325,14,Improv_Melody,64,1,48,64,3255167328
11325,14,Improv_Melody,65,5,42,110,3255413308
11325,14,Improv_Melody,66,1,48,57,3255657152
11325,14,Improv_Melody,67,1,38,93,3255895536
11325,14,Improv_Melody,68,5,42,110,3255912780
11325,14,Improv_Melody,69,1,38,89,3256385284
11325,14,Improv_Melody,70,5,42,110,3256412476
11325,14,Improv_Melody,71,1,38,54,3256465920
11325,14,Improv_Melody,72,1,38,31,3256618140
11325,14,Improv_Melody,73,1,48,99,3256888304
11325,14,Improv_Melody,74,2,43,80,3256915912
11325,14,Improv_Melody,75,2,67,80,3256917984
11325,14,Improv_Melody,76,5,42,127,3256920600
11325,14,Improv_Melody,77,1,48,44,3257403808
11325,14,Improv_Melody,78,5,42,110,3257413192
11325,14,Improv_Melody,79,1,38,107,3257898640
11325,14,Improv_Melody,80,5,42,110,3257912596
11325,14,Improv_Melody,81,1,38,59,3257985036
11325,14,Improv_Melody,82,1,38,23,3258099228
11325,14,Improv_Melody,83,1,38,19,3258159592
11325,14,Improv_Melody,84,1,48,13,3258400000
11325,14,Improv_Melody,85,5,42,110,3258413428
11325,14,Improv_Melody,86,1,48,79,3258638404
11325,14,Improv_Melody,87,5,42,127,3258913112
11325,14,Improv_Melody,88,1,48,77,3259115040
11325,14,Improv_Melody,89,5,42,110,3259413032
11325,14,Improv_Melody,90,1,48,74,3259609052
11325,14,Improv_Melody,91,1,38,119,3259860976
11325,14,Improv_Melody,92,5,42,110,3259912504
11325,14,Improv_Melody,93,1,38,114,3260345792
11325,14,Improv_Melody,94,1,48,26,3260356392
11325,14,Improv_Melody,95,5,42,110,3260413352
11325,14,Improv_Melody,96,1,38,32,3260438776
11325,14,Improv_Melody,97,1,48,71,3260879156
11325,14,Improv_Melody,98,2,45,80,3260915504
11325,14,Improv_Melody,99,2,69,80,3260917732
11325,14,Improv_Melody,100,5,42,127,3260920348
11325,14,Improv_Melody,101,5,42,110,3261412652
11325,14,Improv_Melody,102,1,48,73,3261672500
11325,14,Improv_Melody,103,5,42,110,3261912424
11325,14,Improv_Melody,104,1,38,84,3261916064
11325,14,Improv_Melody,105,5,42,110,3262413096
11325,14,Improv_Melody,106,1,48,98,3262676980
11325,14,Improv_Melody,107,5,42,127,3262912868
11325,14,Improv_Melody,108,1,48,105,3263150132
11325,14,Improv_Melody,109,5,42,110,3263412568
11325,14,Improv_Melody,110,1,48,53,3263602184
11325,14,Improv_Melody,111,1,38,103,3263863452
11325,14,Improv_Melody,112,1,38,90,3263873004
11325,14,Improv_Melody,113,5,42,110,3263913288
11325,14,Improv_Melody,114,5,42,110,3264412992
11325,14,Improv_Melody,115,1,48,105,3264896440
11325,14,Improv_Melody,116,2,41,80,3264915288
11325,14,Improv_Melody,117,2,65,80,3264917516
11325,14,Improv_Melody,118,5,42,127,3264920052
11325,14,Improv_Melody,119,5,42,110,3265412428
11325,14,Improv_Melody,120,1,48,85,3265623064
11325,14,Improv_Melody,121,1,38,94,3265886652
11325,14,Improv_Melody,122,1,38,127,3265897848
11325,14,Improv_Melody,123,5,42,110,3265913148
11325,14,Improv_Melody,124,5,42,110,3266412928
11325,14,Improv_Melody,125,1,38,113,3266657892
11325,14,Improv_Melody,126,5,42,127,3266912704
11325,14,Improv_Melody,127,1,38,107,3267131864
11325,14,Improv_Melody,128,5,42,110,3267413300
11325,14,Improv_Melody,129,1,38,80,3267661332
11325,14,Improv_Melody,130,5,42,110,3267913000
11325,14,Improv_Melody,131,1,38,100,3267918288
11325,14,Improv_Melody,132,1,48,76,3268304996
11325,14,Improv_Melody,133,5,42,110,3268412976
11325,14,Improv_Melody,134,1,48,127,3268422524
11325,14,Improv_Melody,135,1,48,80,3268885852
11325,14,Improv_Melody,136,2,48,80,3268915172
11325,14,Improv_Melody,137,2,72,80,3268917328
11325,14,Improv_Melody,138,5,42,127,3268920008
11325,14,Improv_Melody,139,5,42,110,3269413288
11325,14,Improv_Melody,140,1,48,64,3269681960
11325,14,Improv_Melody,141,5,42,110,3269912912
11325,14,Improv_Melody,142,1,38,113,3269931884
11325,14,Improv_Melody,143,5,42,110,3270412836
11325,14,Improv_Melody,144,1,48,112,3270662364
11325,14,Improv_Melody,145,5,42,127,3270913412
11325,14,Improv_Melody,146,1,48,127,3271145432
11325,14,Improv_Melody,147,5,42,110,3271413032
11325,14,Improv_Melody,148,1,38,127,3271877928
11325,14,Improv_Melody,149,5,42,110,3271912824
11325,14,Improv_Melody,150,5,42,110,3272412676
11325,14,Improv_Melody,151,1,48,95,3272869864
11325,14,Improv_Melody,152,2,43,80,3272915796
11325,14,Improv_Melody,153,2,67,80,3272917720
11325,14,Improv_Melody,154,5,42,127,3272920336
11325,14,Improv_Melody,155,5,42,110,3273413012
11325,14,Improv_Melody,156,1,48,70,3273655732
11325,14,Improv_Melody,157,1,38,127,3273896504
11325,14,Improv_Melody,158,5,42,110,3273912628
11325,14,Improv_Melody,159,5,42,110,3274413308
11325,14,Improv_Melody,160,1,48,109,3274660068
11325,14,Improv_Melody,161,5,42,127,3274913156
11325,14,Improv_Melody,162,1,48,116,3275137700
11325,14,Improv_Melody,163,5,42,110,3275412780
11325,14,Improv_Melody,164,1,48,85,3275645480
11325,14,Improv_Melody,165,1,38,127,3275888800
11325,14,Improv_Melody,166,5,42,110,3275912772
11325,14,Improv_Melody,167,1,38,127,3276399944
11325,14,Improv_Melody,168,5,42,110,3276413224
11325,14,Improv_Melody,169,1,38,127,3276642616
11325,14,Improv_Melody,170,1,48,98,3276901568
11325,14,Improv_Melody,171,2,45,80,3276915628
11325,14,Improv_Melody,172,2,69,80,3276917556
11325,14,Improv_Melody,173,5,42,127,3276920244
11325,14,Improv_Melody,174,5,42,110,3277412772
11325,14,Improv_Melody,175,1,48,92,3277648532
11325,14,Improv_Melody,176,1,38,127,3277910424
11325,14,Improv_Melody,177,5,42,110,3277912760
11325,14,Improv_Melody,178,1,48,23,3277921192
11325,14,Improv_Melody,179,5,42,110,3278413184
11325,14,Improv_Melody,180,1,48,98,3278707364
11325,14,Improv_Melody,181,5,42,127,3278912812
11325,14,Improv_Melody,182,1,48,102,3279197716
11325,14,Improv_Melody,183,5,42,110,3279412584
11325,14,Improv_Melody,184,1,48,100,3279681408
11325,14,Improv_Melody,185,5,42,110,3279913184
11325,14,Improv_Melody,186,1,38,127,3279933956
11325,14,Improv_Melody,187,5,42,110,3280412956
11325,14,Improv_Melody,188,1,48,90,3280893088
11325,14,Improv_Melody,189,2,41,80,3280915400
11325,14,Improv_Melody,190,2,65,80,3280917476
11325,14,Improv_Melody,191,5,42,127,3280920088
11325,14,Improv_Melody,192,5,42,110,3281412468
11325,14,Improv_Melody,193,1,48,101,3281643044
11325,14,Improv_Melody,194,5,42,110,3281913188
11325,14,Improv_Melody,195,1,38,127,3281929720
11325,14,Improv_Melody,196,1,48,62,3282382844
11325,14,Improv_Melody,197,5,42,110,3282412956
11325,14,Improv_Melody,198,1,38,127,3282658128
11325,14,Improv_Melody,199,5,42,127,3282912716
11325,14,Improv_Melody,200,1,38,127,3283135916
11325,14,Improv_Melody,201,5,42,110,3283413460
11325,14,Improv_Melody,202,1,38,81,3283671964
11325,14,Improv_Melody,203,5,42,110,3283913012
11325,14,Improv_Melody,204,1,38,127,3283919424
11325,14,Improv_Melody,205,1,38,127,3284300172
11325,14,Improv_Melody,206,5,42,110,3284412916
11325,14,Improv_Melody,207,1,38,113,3284443860
11325,14,Improv_Melody,208,2,48,80,3284914968
11325,14,Improv_Melody,209,2,72,80,3284917276
11325,14,Improv_Melody,210,1,48,127,3284919884
11325,14,Improv_Melody,211,5,42,127,3284921524
11325,14,Improv_Melody,212,5,42,110,3285413376
11325,14,Improv_Melody,213,1,48,110,3285665072
11325,14,Improv_Melody,214,5,42,110,3285913076
11325,14,Improv_Melody,215,1,38,127,3285927488
11325,14,Improv_Melody,216,5,42,110,3286412776
11325,14,Improv_Melody,217,5,42,127,3286913468
11325,14,Improv_Melody,218,1,48,68,3287154920
11325,14,Improv_Melody,219,5,42,110,3287413244
11325,14,Improv_Melody,220,1,48,94,3287650280
11325,14,Improv_Melody,221,1,38,127,3287894648
11325,14,Improv_Melody,222,5,42,110,3287912788
11325,14,Improv_Melody,223,5,42,110,3288412568
11325,14,Improv_Melody,224,1,48,102,3288888612
11325,14,Improv_Melody,225,2,43,80,3288915756
11325,14,Improv_Melody,226,2,67,80,3288917984
11325,14,Improv_Melody,227,5,42,127,3288920600
11325,14,Improv_Melody,228,5,42,110,3289412828
11325,14,Improv_Melody,229,1,48,98,3289662204
11325,14,Improv_Melody,230,5,42,110,3289912676
11325,14,Improv_Melody,231,1,38,96,3289914468
11325,14,Improv_Melody,232,5,42,110,3290413424
11325,14,Improv_Melody,233,5,42,127,3290913220
11325,14,Improv_Melody,234,1,48,116,3291157664
11325,14,Improv_Melody,235,5,42,110,3291412992
11325,14,Improv_Melody,236,1,48,88,3291642524
11325,14,Improv_Melody,237,1,38,127,3291898188
11325,14,Improv_Melody,238,5,42,110,3291912764
11325,14,Improv_Melody,239,1,48,106,3292235204
11325,14,Improv_Melody,240,5,42,110,3292413244
11325,14,Improv_Melody,241,1,48,109,3292602332
11325,14,Improv_Melody,242,2,45,80,3292915524
11325,14,Improv_Melody,243,2,69,80,3292917600
11325,14,Improv_Melody,244,5,42,127,3292920360
11325,14,Improv_Melody,245,1,48,121,3292928272
11325,14,Improv_Melody,246,5,42,110,3293412732
11325,14,Improv_Melody,247,1,48,85,3293602568
11325,14,Improv_Melody,248,1,38,127,3293866532
11325,14,Improv_Melody,249,5,42,110,3293912572
11325,14,Improv_Melody,250,5,42,110,3294413252
11325,14,Improv_Melody,251,5,42,127,3294912900
11325,14,Improv_Melody,252,1,48,90,3295118220
11325,14,Improv_Melody,253,5,42,110,3295412600
11325,14,Improv_Melody,254,1,48,57,3295658832
11325,14,Improv_Melody,255,1,38,127,3295893252
11325,14,Improv_Melody,256,5,42,110,3295913264
11325,14,Improv_Melody,257,1,38,127,3296237948
11325,14,Improv_Melody,258,5,42,110,3296413172
11325,14,Improv_Melody,259,1,38,123,3296619692
11325,14,Improv_Melody,260,1,48,95,3296896372
11325,14,Improv_Melody,261,2,41,80,3296915524
11325,14,Improv_Melody,262,2,65,80,3296917524
11325,14,Improv_Melody,263,5,42,127,3296920208
11325,14,Improv_Melody,264,5,42,110,3297412436
11325,14,Improv_Melody,265,1,48,93,3297635340
11325,14,Improv_Melody,266,1,38,127,3297899224
11325,14,Improv_Melody,267,5,42,110,3297913324
11325,14,Improv_Melody,268,5,42,110,3298413032
11325,14,Improv_Melody,269,5,42,127,3298912680
11325,14,Improv_Melody,270,1,38,127,3299144332
11325,14,Improv_Melody,271,1,48,77,3299152168
11325,14,Improv_Melody,272,5,42,110,3299413304
11325,14,Improv_Melody,273,1,38,64,3299652960
11325,14,Improv_Melody,274,1,38,127,3299911640
11325,14,Improv_Melody,275,5,42,110,3299913748
11325,14,Improv_Melody,276,1,38,111,3300292736
11325,14,Improv_Melody,277,5,42,110,3300412760
11325,14,Improv_Melody,278,1,48,127,3300416776
11325,14,Improv_Melody,279,1,38,127,3300672136
11325,14,Improv_Melody,280,2,48,80,3300915092
11325,14,Improv_Melody,281,2,72,80,3300917092
11325,14,Improv_Melody,282,5,42,127,3300919704
11325,14,Improv_Melody,283,1,48,127,3300922076
11325,14,Improv_Melody,284,5,42,110,3301413196
11325,14,Improv_Melody,285,1,48,100,3301675068
11325,14,Improv_Melody,286,5,42,110,3301913044
11325,14,Improv_Melody,287,1,38,127,3301929032
11325,14,Improv_Melody,288,5,42,110,3302412672
11325,14,Improv_Melody,289,5,42,127,3302913344
11325,14,Improv_Melody,290,1,48,112,3303141024
11325,14,Improv_Melody,291,5,42,110,3303413188
11325,14,Improv_Melody,292,1,48,112,3303652620
11325,14,Improv_Melody,293,1,38,127,3303897952
11325,14,Improv_Melody,294,5,42,110,3303912956
11325,14,Improv_Melody,295,1,48,95,3304266460
11325,14,Improv_Melody,296,1,48,127,3304406088
11325,14,Improv_Melody,297,5,42,110,3304412556
11325,14,Improv_Melody,298,1,48,115,3304913496
11325,14,Improv_Melody,299,2,43,80,3304917456
11325,14,Improv_Melody,300,2,67,80,3304919384
11325,14,Improv_Melody,301,5,42,127,3304922068
11325,14,Improv_Melody,302,5,42,110,3305413100
11325,14,Improv_Melody,303,1,48,105,3305690604
11325,14,Improv_Melody,304,5,42,110,3305912648
11325,14,Improv_Melody,305,1,38,124,3305947104
11325,14,Improv_Melody,306,1,38,127,3306268168
11325,14,Improv_Melody,307,5,42,110,3306413376
11325,14,Improv_Melody,308,1,38,127,3306620340
11325,14,Improv_Melody,309,5,42,127,3306913076
11325,14,Improv_Melody,310,1,48,98,3307120116
11325,14,Improv_Melody,311,1,48,127,3307403528
11325,14,Improv_Melody,312,5,42,110,3307412988
11325,14,Improv_Melody,313,1,38,113,3307895596
11325,14,Improv_Melody,314,5,42,110,3307912616
11325,14,Improv_Melody,315,5,42,110,3308413292
11325,14,Improv_Melody,316,2,45,80,3308915368
11325,14,Improv_Melody,317,1,48,83,3308918136
11325,14,Improv_Melody,318,2,69,80,3308919324
11325,14,Improv_Melody,319,5,42,127,3308921412
11325,14,Improv_Melody,320,5,42,110,3309412668
11325,14,Improv_Melody,321,1,48,99,3309700940
11325,14,Improv_Melody,322,5,42,110,3309912516
11325,14,Improv_Melody,323,1,38,127,3309964028
11325,14,Improv_Melody,324,5,42,110,3310413192
11325,14,Improv_Melody,325,5,42,127,3310913136
11325,14,Improv_Melody,326,1,48,88,3311108060
11325,14,Improv_Melody,327,1,48,83,3311384220
11325,14,Improv_Melody,328,5,42,110,3311412460
11325,14,Improv_Melody,329,1,38,127,3311899928
11325,14,Improv_Melody,330,5,42,110,3311913280
11325,14,Improv_Melody,331,5,42,110,3312413136
11325,14,Improv_Melody,332,1,48,105,3312909372
11325,14,Improv_Melody,333,2,41,80,3312915128
11325,14,Improv_Melody,334,2,65,80,3312917132
11325,14,Improv_Melody,335,5,42,127,3312919820
11325,14,Improv_Melody,336,5,42,110,3313412424
11325,14,Improv_Melody,337,1,48,98,3313667336
11325,14,Improv_Melody,338,1,38,127,3313913144
11325,14,Improv_Melody,339,5,42,110,3313915232
11325,14,Improv_Melody,340,5,42,110,3314412992
11325,14,Improv_Melody,341,5,42,127,3314912864
11325,14,Improv_Melody,342,1,38,127,3315190820
11325,14,Improv_Melody,343,5,42,110,3315413312
11325,14,Improv_Melody,344,1,38,95,3315660224
11325,14,Improv_Melody,345,1,38,61,3315714136
11325,14,Improv_Melody,346,1,38,14,3315883000
11325,14,Improv_Melody,347,1,38,87,3315900184
11325,14,Improv_Melody,348,5,42,110,3315913012
11325,14,Improv_Melody,349,1,38,19,3316010684
11325,14,Improv_Melody,350,1,38,57,3316184644
11325,14,Improv_Melody,351,1,38,83,3316269016
11325,14,Improv_Melody,352,1,38,88,3316408792
11325,14,Improv_Melody,353,5,42,110,3316413020
11325,14,Improv_Melody,354,1,38,86,3316505984
11325,14,Improv_Melody,355,1,38,33,3316579340
11325,14,Improv_Melody,356,1,38,92,3316629352
11325,14,Improv_Melody,357,1,38,103,3316750608
11325,14,Improv_Melody,358,1,38,80,3316801896
11325,14,Improv_Melody,359,1,38,52,3316850864
11325,14,Improv_Melody,360,1,48,114,3316877772
11325,14,Improv_Melody,361,1,38,35,3316908120
11325,14,Improv_Melody,362,2,48,80,3316915148
11325,14,Improv_Melody,363,2,72,80,3316917600
11325,14,Improv_Melody,364,5,42,127,3316920060
11325,14,Improv_Melody,365,5,42,110,3317413096
11325,14,Improv_Melody,366,1,48,107,3317578100
11325,14,Improv_Melody,367,1,38,127,3317857096
11325,14,Improv_Melody,0,9999,9999,9999,3236910152
11325,14,Improv_Melody,1,9999,9999,9999,3237410884
11325,14,Improv_Melody,2,9999,9999,9999,3237910604
11325,14,Improv_Melody,3,9999,9999,9999,3238410328
11325,14,Improv_Melody,4,9999,9999,9999,3238911072
11325,14,Improv_Melody,5,9999,9999,9999,3239410792
11325,14,Improv_Melody,6,9999,9999,9999,3239910512
11325,14,Improv_Melody,7,9999,9999,9999,3240410236
11325,14,Improv_Melody,8,9999,9999,9999,3240910928
11325,14,Improv_Melody,9,9999,9999,9999,3241410668
11325,14,Improv_Melody,10,9999,9999,9999,3241910388
11325,14,Improv_Melody,11,9999,9999,9999,3242411080
11325,14,Improv_Melody,12,9999,9999,9999,3242910804
11325,14,Improv_Melody,13,9999,9999,9999,3243410524
11325,14,Improv_Melody,14,9999,9999,9999,3243910248
11325,14,Improv_Melody,15,9999,9999,9999,3244410940
11325,14,Improv_Melody,16,9999,9999,9999,3244910660
11325,14,Improv_Melody,17,9999,9999,9999,3245410396
11325,14,Improv_Melody,18,9999,9999,9999,3245910120
11325,14,Improv_Melody,19,9999,9999,9999,3246410812
11325,14,Improv_Melody,20,9999,9999,9999,3246910536
11325,14,Improv_Melody,21,9999,9999,9999,3247410256
11325,14,Improv_Melody,22,9999,9999,9999,3247911024
11325,14,Improv_Melody,23,9999,9999,9999,3248410744
11325,14,Improv_Melody,24,9999,9999,9999,3248910392
11325,14,Improv_Melody,25,9999,9999,9999,3249410104
11325,14,Improv_Melody,26,9999,9999,9999,3249910872
11325,14,Improv_Melody,27,9999,9999,9999,3250410596
11325,14,Improv_Melody,28,9999,9999,9999,3250910316
11325,14,Improv_Melody,29,9999,9999,9999,3251411020
11325,14,Improv_Melody,30,9999,9999,9999,3251910740
11325,14,Improv_Melody,31,9999,9999,9999,3252410464
11325,14,Improv_Melody,32,9999,9999,9999,3252910200
11325,14,Improv_Melody,33,9999,9999,9999,3253410888
11325,14,Improv_Melody,34,9999,9999,9999,3253910616
11325,14,Improv_Melody,35,9999,9999,9999,3254410348
11325,14,Improv_Melody,36,9999,9999,9999,3254911096
11325,14,Improv_Melody,37,9999,9999,9999,3255410792
11325,14,Improv_Melody,38,9999,9999,9999,3255910488
11325,14,Improv_Melody,39,9999,9999,9999,3256410188
11325,14,Improv_Melody,40,9999,9999,9999,3256910964
11325,14,Improv_Melody,41,9999,9999,9999,3257410680
11325,14,Improv_Melody,42,9999,9999,9999,3257910376
11325,14,Improv_Melody,43,9999,9999,9999,3258411060
11325,14,Improv_Melody,44,9999,9999,9999,3258910820
11325,14,Improv_Melody,45,9999,9999,9999,3259410516
11325,14,Improv_Melody,46,9999,9999,9999,3259910212
11325,14,Improv_Melody,47,9999,9999,9999,3260410988
11325,14,Improv_Melody,48,9999,9999,9999,3260910712
11325,14,Improv_Melody,49,9999,9999,9999,3261410360
11325,14,Improv_Melody,50,9999,9999,9999,3261910132
11325,14,Improv_Melody,51,9999,9999,9999,3262410804
11325,14,Improv_Melody,52,9999,9999,9999,3262910576
11325,14,Improv_Melody,53,9999,9999,9999,3263410276
11325,14,Improv_Melody,54,9999,9999,9999,3263910996
11325,14,Improv_Melody,55,9999,9999,9999,3264410700
11325,14,Improv_Melody,56,9999,9999,9999,3264910416
11325,14,Improv_Melody,57,9999,9999,9999,3265410136
11325,14,Improv_Melody,58,9999,9999,9999,3265910856
11325,14,Improv_Melody,59,9999,9999,9999,3266410560
11325,14,Improv_Melody,60,9999,9999,9999,3266910264
11325,14,Improv_Melody,61,9999,9999,9999,3267411008
11325,14,Improv_Melody,62,9999,9999,9999,3267910708
11325,14,Improv_Melody,63,9999,9999,9999,3268410460
11325,14,Improv_Melody,64,9999,9999,9999,3268910152
11325,14,Improv_Melody,65,9999,9999,9999,3269410920
11325,14,Improv_Melody,66,9999,9999,9999,3269910620
11325,14,Improv_Melody,67,9999,9999,9999,3270410320
11325,14,Improv_Melody,68,9999,9999,9999,3270911044
11325,14,Improv_Melody,69,9999,9999,9999,3271410740
11325,14,Improv_Melody,70,9999,9999,9999,3271910456
11325,14,Improv_Melody,71,9999,9999,9999,3272410164
11325,14,Improv_Melody,72,9999,9999,9999,3272910924
11325,14,Improv_Melody,73,9999,9999,9999,3273410644
11325,14,Improv_Melody,74,9999,9999,9999,3273910336
11325,14,Improv_Melody,75,9999,9999,9999,3274411088
11325,14,Improv_Melody,76,9999,9999,9999,3274910788
11325,14,Improv_Melody,77,9999,9999,9999,3275410488
11325,14,Improv_Melody,78,9999,9999,9999,3275910256
11325,14,Improv_Melody,79,9999,9999,9999,3276410932
11325,14,Improv_Melody,80,9999,9999,9999,3276910684
11325,14,Improv_Melody,81,9999,9999,9999,3277410404
11325,14,Improv_Melody,82,9999,9999,9999,3277910128
11325,14,Improv_Melody,83,9999,9999,9999,3278410820
11325,14,Improv_Melody,84,9999,9999,9999,3278910520
11325,14,Improv_Melody,85,9999,9999,9999,3279410292
11325,14,Improv_Melody,86,9999,9999,9999,3279910964
11325,14,Improv_Melody,87,9999,9999,9999,3280410740
11325,14,Improv_Melody,88,9999,9999,9999,3280910456
11325,14,Improv_Melody,89,9999,9999,9999,3281410152
11325,14,Improv_Melody,90,9999,9999,9999,3281910896
11325,14,Improv_Melody,91,9999,9999,9999,3282410592
11325,14,Improv_Melody,92,9999,9999,9999,3282910276
11325,14,Improv_Melody,93,9999,9999,9999,3283411020
11325,14,Improv_Melody,94,9999,9999,9999,3283910720
11325,14,Improv_Melody,95,9999,9999,9999,3284410476
11325,14,Improv_Melody,96,9999,9999,9999,3284910176
11325,14,Improv_Melody,97,9999,9999,9999,3285410936
11325,14,Improv_Melody,98,9999,9999,9999,3285910636
11325,14,Improv_Melody,99,9999,9999,9999,3286410332
11325,14,Improv_Melody,100,9999,9999,9999,3286911028
11325,14,Improv_Melody,101,9999,9999,9999,3287410804
11325,14,Improv_Melody,102,9999,9999,9999,3287910496
11325,14,Improv_Melody,103,9999,9999,9999,3288410204
11325,14,Improv_Melody,104,9999,9999,9999,3288910964
11325,14,Improv_Melody,105,9999,9999,9999,3289410608
11325,14,Improv_Melody,106,9999,9999,9999,3289910384
11325,14,Improv_Melody,107,9999,9999,9999,3290411056
11325,14,Improv_Melody,108,9999,9999,9999,3290910780
11325,14,Improv_Melody,109,9999,9999,9999,3291410552
11325,14,Improv_Melody,110,9999,9999,9999,3291910248
11325,14,Improv_Melody,111,9999,9999,9999,3292410952
11325,14,Improv_Melody,112,9999,9999,9999,3292910652
11325,14,Improv_Melody,113,9999,9999,9999,3293410368
11325,14,Improv_Melody,114,9999,9999,9999,3293910132
11325,14,Improv_Melody,115,9999,9999,9999,3294410812
11325,14,Improv_Melody,116,9999,9999,9999,3294910536
11325,14,Improv_Melody,117,9999,9999,9999,3295410232
11325,14,Improv_Melody,118,9999,9999,9999,3295910972
11325,14,Improv_Melody,119,9999,9999,9999,3296410732
11325,14,Improv_Melody,120,9999,9999,9999,3296910424
11325,14,Improv_Melody,121,9999,9999,9999,3297410144
11325,14,Improv_Melody,122,9999,9999,9999,3297910884
11325,14,Improv_Melody,123,9999,9999,9999,3298410592
11325,14,Improv_Melody,124,9999,9999,9999,3298910316
11325,14,Improv_Melody,125,9999,9999,9999,3299411012
11325,14,Improv_Melody,126,9999,9999,9999,3299910712
11325,14,Improv_Melody,127,9999,9999,9999,3300410468
11325,14,Improv_Melody,128,9999,9999,9999,3300910144
11325,14,Improv_Melody,129,9999,9999,9999,3301410904
11325,14,Improv_Melody,130,9999,9999,9999,3301910604
11325,14,Improv_Melody,131,9999,9999,9999,3302410304
11325,14,Improv_Melody,132,9999,9999,9999,3302911048
11325,14,Improv_Melody,133,9999,9999,9999,3303410748
11325,14,Improv_Melody,134,9999,9999,9999,3303910516
11325,14,Improv_Melody,135,9999,9999,9999,3304410192
11325,14,Improv_Melody,136,9999,9999,9999,3304910944
11325,14,Improv_Melody,137,9999,9999,9999,3305410660
11325,14,Improv_Melody,138,9999,9999,9999,3305910360
11325,14,Improv_Melody,139,9999,9999,9999,3306411084
11325,14,Improv_Melody,140,9999,9999,9999,3306910784
11325,14,Improv_Melody,141,9999,9999,9999,3307410548
11325,14,Improv_Melody,142,9999,9999,9999,3307910248
11325,14,Improv_Melody,143,9999,9999,9999,3308411000
11325,14,Improv_Melody,144,9999,9999,9999,3308910648
11325,14,Improv_Melody,145,9999,9999,9999,3309410376
11325,14,Improv_Melody,146,9999,9999,9999,3309910076
11325,14,Improv_Melody,147,9999,9999,9999,3310410824
11325,14,Improv_Melody,148,9999,9999,9999,3310910548
11325,14,Improv_Melody,149,9999,9999,9999,3311410244
11325,14,Improv_Melody,150,9999,9999,9999,3311910988
11325,14,Improv_Melody,151,9999,9999,9999,3312410692
11325,14,Improv_Melody,152,9999,9999,9999,3312910412
11325,14,Improv_Melody,153,9999,9999,9999,3313410132
11325,14,Improv_Melody,154,9999,9999,9999,3313910852
11325,14,Improv_Melody,155,9999,9999,9999,3314410552
11325,14,Improv_Melody,156,9999,9999,9999,3314910276
11325,14,Improv_Melody,157,9999,9999,9999,3315411020
11325,14,Improv_Melody,158,9999,9999,9999,3315910724
11325,14,Improv_Melody,159,9999,9999,9999,3316410432
11325,14,Improv_Melody,160,9999,9999,9999,3316910204
11325,14,Improv_Melody,161,9999,9999,9999,3317410880
113