pid,taskRunCount,taskID,taskName,i,channel,pitch,velocity,microseconds
118,1,1,Ticks_Pract_5,0,5,42,127,123887092
118,1,1,Ticks_Pract_5,1,5,42,127,124386736
118,1,1,Ticks_Pract_5,2,5,42,127,124887572
118,1,1,Ticks_Pract_5,3,1,48,47,124918364
118,1,1,Ticks_Pract_5,4,1,48,50,125373616
118,1,1,Ticks_Pract_5,5,5,42,127,125387708
118,1,1,Ticks_Pract_5,6,1,48,52,125848372
118,1,1,Ticks_Pract_5,7,5,42,127,125886732
118,1,1,Ticks_Pract_5,8,1,48,51,126378212
118,1,1,Ticks_Pract_5,9,5,42,127,126386476
118,1,1,Ticks_Pract_5,10,1,48,51,126876860
118,1,1,Ticks_Pract_5,11,5,42,127,126887292
118,1,1,Ticks_Pract_5,12,5,42,127,127386844
118,1,1,Ticks_Pract_5,13,1,48,56,127400580
118,1,1,Ticks_Pract_5,14,1,48,53,127859720
118,1,1,Ticks_Pract_5,15,5,42,127,127886604
118,1,1,Ticks_Pract_5,16,1,48,49,128357768
118,1,1,Ticks_Pract_5,17,5,42,127,128386520
118,1,1,Ticks_Pract_5,18,1,48,48,128886664
118,1,1,Ticks_Pract_5,19,5,42,127,128888236
118,1,1,Ticks_Pract_5,20,1,48,41,129365676
118,1,1,Ticks_Pract_5,21,5,42,127,129386732
118,1,1,Ticks_Pract_5,22,1,48,51,129846976
118,1,1,Ticks_Pract_5,23,5,42,127,129886504
118,1,1,Ticks_Pract_5,24,5,42,127,130387472
118,1,1,Ticks_Pract_5,25,1,48,40,130407500
118,1,1,Ticks_Pract_5,26,5,42,127,130887464
118,1,1,Ticks_Pract_5,27,1,48,54,130893648
118,1,1,Ticks_Pract_5,28,1,48,49,131382412
118,1,1,Ticks_Pract_5,29,5,42,127,131386708
118,1,1,Ticks_Pract_5,30,1,48,40,131859216
118,1,1,Ticks_Pract_5,31,5,42,127,131886404
118,1,1,Ticks_Pract_5,32,1,48,41,132365040
118,1,1,Ticks_Pract_5,33,5,42,127,132387144
118,1,1,Ticks_Pract_5,34,1,48,45,132860252
118,1,1,Ticks_Pract_5,35,5,42,127,132886912
118,1,1,Ticks_Pract_5,36,1,48,44,133365856
118,1,1,Ticks_Pract_5,37,5,42,127,133386536
118,1,1,Ticks_Pract_5,38,1,48,42,133845580
118,1,1,Ticks_Pract_5,39,5,42,127,133887280
118,1,1,Ticks_Pract_5,40,1,48,46,134356792
118,1,1,Ticks_Pract_5,41,5,42,127,134387196
118,1,1,Ticks_Pract_5,42,1,48,45,134837916
118,1,1,Ticks_Pract_5,43,5,42,127,134886668
118,1,1,Ticks_Pract_5,44,1,48,44,135331104
118,1,1,Ticks_Pract_5,45,5,42,127,135386512
118,1,1,Ticks_Pract_5,46,1,48,43,135829900
118,1,1,Ticks_Pract_5,47,5,42,127,135887252
118,1,1,Ticks_Pract_5,48,1,48,33,136317180
118,1,1,Ticks_Pract_5,49,5,42,127,136387024
118,1,1,Ticks_Pract_5,50,1,48,37,136794356
118,1,1,Ticks_Pract_5,51,5,42,127,136886616
118,1,1,Ticks_Pract_5,52,1,48,40,137297688
118,1,1,Ticks_Pract_5,53,5,42,127,137387484
118,1,1,Ticks_Pract_5,54,1,48,41,137798960
118,1,1,Ticks_Pract_5,55,5,42,127,137886956
118,1,1,Ticks_Pract_5,56,1,48,44,138285484
118,1,1,Ticks_Pract_5,57,5,42,127,138386708
118,1,1,Ticks_Pract_5,58,1,48,47,138802236
118,1,1,Ticks_Pract_5,59,5,42,127,138886492
118,1,1,Ticks_Pract_5,60,1,48,46,139344488
118,1,1,Ticks_Pract_5,61,5,42,127,139387236
118,1,1,Ticks_Pract_5,62,5,42,127,139886860
118,1,1,Ticks_Pract_5,63,1,48,36,139915708
118,1,1,Ticks_Pract_5,64,1,48,42,140373796
118,1,1,Ticks_Pract_5,65,5,42,127,140386624
118,1,1,Ticks_Pract_5,66,1,48,42,140873192
118,1,1,Ticks_Pract_5,67,5,42,127,140887292
118,1,1,Ticks_Pract_5,68,1,48,42,141369072
118,1,1,Ticks_Pract_5,69,5,42,127,141387132
118,1,1,Ticks_Pract_5,70,1,48,37,141865252
118,1,1,Ticks_Pract_5,71,5,42,127,141886756
118,1,1,Ticks_Pract_5,72,1,48,39,142353272
118,1,1,Ticks_Pract_5,73,5,42,127,142386524
118,1,1,Ticks_Pract_5,74,1,48,38,142864112
118,1,1,Ticks_Pract_5,75,5,42,127,142887188
118,1,1,Ticks_Pract_5,76,1,48,43,143366656
118,1,1,Ticks_Pract_5,77,5,42,127,143387108
118,1,1,Ticks_Pract_5,78,1,48,44,143856468
118,1,1,Ticks_Pract_5,0,9999,9999,9999,123884652
118,1,1,Ticks_Pract_5,1,9999,9999,9999,124384372
118,1,1,Ticks_Pract_5,2,9999,9999,9999,124885060
118,1,1,Ticks_Pract_5,3,9999,9999,9999,125384824
118,1,1,Ticks_Pract_5,4,9999,9999,9999,125884516
118,1,1,Ticks_Pract_5,5,9999,9999,9999,126384184
118,1,1,Ticks_Pract_5,6,9999,9999,9999,126884924
118,1,1,Ticks_Pract_5,7,9999,9999,9999,127384628
118,1,1,Ticks_Pract_5,8,9999,9999,9999,127884388
118,1,1,Ticks_Pract_5,9,9999,9999,9999,128384084
118,1,1,Ticks_Pract_5,10,9999,9999,9999,128884828
118,1,1,Ticks_Pract_5,11,9999,9999,9999,129384520
118,1,1,Ticks_Pract_5,12,9999,9999,9999,129884212
118,1,1,Ticks_Pract_5,13,9999,9999,9999,130384960
118,1,1,Ticks_Pract_5,14,9999,9999,9999,130884728
118,1,1,Ticks_Pract_5,15,9999,9999,9999,131384416
118,1,1,Ticks_Pract_5,16,9999,9999,9999,131884112
118,1,1,Ticks_Pract_5,17,9999,9999,9999,132384856
118,1,1,Ticks_Pract_5,18,9999,9999,9999,132884548
118,1,1,Ticks_Pract_5,19,9999,9999,9999,133384248
118,1,1,Ticks_Pract_5,20,9999,9999,9999,133884988
118,1,1,Ticks_Pract_5,21,9999,9999,9999,134384760
118,1,1,Ticks_Pract_5,22,9999,9999,9999,134884452
118,1,1,Ticks_Pract_5,23,9999,9999,9999,135384148
118,1,1,Ticks_Pract_5,24,9999,9999,9999,135884888
118,1,1,Ticks_Pract_5,25,9999,9999,9999,136384584
118,1,1,Ticks_Pract_5,26,9999,9999,9999,136884328
118,1,1,Ticks_Pract_5,27,9999,9999,9999,137385044
118,1,1,Ticks_Pract_5,28,9999,9999,9999,137884740
118,1,1,Ticks_Pract_5,29,9999,9999,9999,138384492
118,1,1,Ticks_Pract_5,30,9999,9999,9999,138884204
118,1,1,Ticks_Pract_5,31,9999,9999,9999,139384944
118,1,1,Ticks_Pract_5,32,9999,9999,9999,139884644
118,1,1,Ticks_Pract_5,33,9999,9999,9999,140384336
118,1,1,Ticks_Pract_5,34,9999,9999,9999,140885076
118,1,1,Ticks_Pract_5,35,9999,9999,9999,141384768
118,1,1,Ticks_Pract_5,36,9999,9999,9999,141884464
118,1,1,Ticks_Pract_5,37,9999,9999,9999,142384232
118,1,1,Ticks_Pract_5,38,9999,9999,9999,142884972
118,1,1,Ticks_Pract_5,39,9999,9999,9999,143384668
118,2,0,Ticks_Pract_8,0,5,42,127,160327044
118,2,0,Ticks_Pract_8,1,5,42,127,161126948
118,2,0,Ticks_Pract_8,2,1,48,61,161317912
118,2,0,Ticks_Pract_8,3,5,42,127,161926536
118,2,0,Ticks_Pract_8,4,1,48,57,161963608
118,2,0,Ticks_Pract_8,5,1,48,58,162712460
118,2,0,Ticks_Pract_8,6,5,42,127,162727380
118,2,0,Ticks_Pract_8,7,1,48,65,163465372
118,2,0,Ticks_Pract_8,8,5,42,127,163526992
118,2,0,Ticks_Pract_8,9,1,48,61,164295872
118,2,0,Ticks_Pract_8,10,5,42,127,164327020
118,2,0,Ticks_Pract_8,11,1,48,59,165098000
118,2,0,Ticks_Pract_8,12,5,42,127,165126532
118,2,0,Ticks_Pract_8,13,1,48,59,165904164
118,2,0,Ticks_Pract_8,14,5,42,127,165927164
118,2,0,Ticks_Pract_8,15,1,48,57,166676748
118,2,0,Ticks_Pract_8,16,5,42,127,166726972
118,2,0,Ticks_Pract_8,17,1,48,57,167454264
118,2,0,Ticks_Pract_8,18,5,42,127,167526928
118,2,0,Ticks_Pract_8,19,1,48,56,168264692
118,2,0,Ticks_Pract_8,20,5,42,127,168326884
118,2,0,Ticks_Pract_8,21,1,48,50,169091356
118,2,0,Ticks_Pract_8,22,5,42,127,169127292
118,2,0,Ticks_Pract_8,23,1,48,50,169881364
118,2,0,Ticks_Pract_8,24,5,42,127,169927052
118,2,0,Ticks_Pract_8,25,1,48,53,170672796
118,2,0,Ticks_Pract_8,26,5,42,127,170726636
118,2,0,Ticks_Pract_8,27,1,48,56,171487212
118,2,0,Ticks_Pract_8,28,5,42,127,171526740
118,2,0,Ticks_Pract_8,29,1,48,54,172286052
118,2,0,Ticks_Pract_8,30,5,42,127,172327148
118,2,0,Ticks_Pract_8,31,5,42,127,173126888
118,2,0,Ticks_Pract_8,32,1,48,26,173460188
118,2,0,Ticks_Pract_8,33,1,48,38,173920300
118,2,0,Ticks_Pract_8,34,5,42,127,173926764
118,2,0,Ticks_Pract_8,35,1,48,57,174685396
118,2,0,Ticks_Pract_8,36,5,42,127,174726720
118,2,0,Ticks_Pract_8,37,1,48,56,175491564
118,2,0,Ticks_Pract_8,38,5,42,127,175527204
118,2,0,Ticks_Pract_8,39,1,48,49,176270276
118,2,0,Ticks_Pract_8,40,5,42,127,176327036
118,2,0,Ticks_Pract_8,41,1,48,50,177041592
118,2,0,Ticks_Pract_8,42,5,42,127,177126696
118,2,0,Ticks_Pract_8,43,1,48,51,177860492
118,2,0,Ticks_Pract_8,44,5,42,127,177926504
118,2,0,Ticks_Pract_8,45,5,42,127,178727140
118,2,0,Ticks_Pract_8,46,1,48,57,178739312
118,2,0,Ticks_Pract_8,47,5,42,127,179526876
118,2,0,Ticks_Pract_8,48,1,48,55,179601048
118,2,0,Ticks_Pract_8,49,1,48,47,180253940
118,2,0,Ticks_Pract_8,50,5,42,127,180326824
118,2,0,Ticks_Pract_8,51,1,48,53,181072972
118,2,0,Ticks_Pract_8,52,5,42,127,181126412
118,2,0,Ticks_Pract_8,53,1,48,52,181863800
118,2,0,Ticks_Pract_8,54,5,42,127,181927488
118,2,0,Ticks_Pract_8,55,1,48,44,182718456
118,2,0,Ticks_Pract_8,56,5,42,127,182726948
118,2,0,Ticks_Pract_8,57,1,48,43,183484008
118,2,0,Ticks_Pract_8,58,5,42,127,183526680
118,2,0,Ticks_Pract_8,59,1,48,47,184289952
118,2,0,Ticks_Pract_8,0,9999,9999,9999,160324680
118,2,0,Ticks_Pract_8,1,9999,9999,9999,161124436
118,2,0,Ticks_Pract_8,2,9999,9999,9999,161924168
118,2,0,Ticks_Pract_8,3,9999,9999,9999,162724940
118,2,0,Ticks_Pract_8,4,9999,9999,9999,163524700
118,2,0,Ticks_Pract_8,5,9999,9999,9999,164324432
118,2,0,Ticks_Pract_8,6,9999,9999,9999,165124168
118,2,0,Ticks_Pract_8,7,9999,9999,9999,165924948
118,2,0,Ticks_Pract_8,8,9999,9999,9999,166724680
118,2,0,Ticks_Pract_8,9,9999,9999,9999,167524416
118,2,0,Ticks_Pract_8,10,9999,9999,9999,168324148
118,2,0,Ticks_Pract_8,11,9999,9999,9999,169124928
118,2,0,Ticks_Pract_8,12,9999,9999,9999,169924688
118,2,0,Ticks_Pract_8,13,9999,9999,9999,170724420
118,2,0,Ticks_Pract_8,14,9999,9999,9999,171524152
118,2,0,Ticks_Pract_8,15,9999,9999,9999,172324932
118,2,0,Ticks_Pract_8,16,9999,9999,9999,173124672
118,2,0,Ticks_Pract_8,17,9999,9999,9999,173924400
118,2,0,Ticks_Pract_8,18,9999,9999,9999,174724204
118,2,0,Ticks_Pract_8,19,9999,9999,9999,175524912
118,2,0,Ticks_Pract_8,20,9999,9999,9999,176324668
118,2,0,Ticks_Pract_8,21,9999,9999,9999,177124404
118,2,0,Ticks_Pract_8,22,9999,9999,9999,177924212
118,2,0,Ticks_Pract_8,23,9999,9999,9999,178724924
118,2,0,Ticks_Pract_8,24,9999,9999,9999,179524656
118,2,0,Ticks_Pract_8,25,9999,9999,9999,180324460
118,2,0,Ticks_Pract_8,26,9999,9999,9999,181124192
118,2,0,Ticks_Pract_8,27,9999,9999,9999,181924972
118,2,0,Ticks_Pract_8,28,9999,9999,9999,182724656
118,2,0,Ticks_Pract_8,29,9999,9999,9999,183524464
118,3,4,T1_SMS_5,0,5,42,127,298097228
118,3,4,T1_SMS_5,1,5,42,127,298596944
118,3,4,T1_SMS_5,2,5,42,127,299096364
118,3,4,T1_SMS_5,3,5,42,127,299597128
118,3,4,T1_SMS_5,4,1,48,68,300074288
118,3,4,T1_SMS_5,5,5,42,127,300097136
118,3,4,T1_SMS_5,6,1,48,70,300545112
118,3,4,T1_SMS_5,7,5,42,127,300596532
118,3,4,T1_SMS_5,8,1,48,61,301035976
118,3,4,T1_SMS_5,9,5,42,127,301097272
118,3,4,T1_SMS_5,10,1,48,56,301561108
118,3,4,T1_SMS_5,11,5,42,127,301597192
118,3,4,T1_SMS_5,12,1,48,54,302045764
118,3,4,T1_SMS_5,13,5,42,127,302096960
118,3,4,T1_SMS_5,14,1,48,52,302532592
118,3,4,T1_SMS_5,15,5,42,127,302596584
118,3,4,T1_SMS_5,16,1,48,52,303064304
118,3,4,T1_SMS_5,17,5,42,127,303097252
118,3,4,T1_SMS_5,18,1,48,50,303550984
118,3,4,T1_SMS_5,19,5,42,127,303596948
118,3,4,T1_SMS_5,20,1,48,53,304037120
118,3,4,T1_SMS_5,21,5,42,127,304096492
118,3,4,T1_SMS_5,22,1,48,57,304539352
118,3,4,T1_SMS_5,23,5,42,127,304597308
118,3,4,T1_SMS_5,24,1,48,57,305024460
118,3,4,T1_SMS_5,25,5,42,127,305097000
118,3,4,T1_SMS_5,26,1,48,59,305538148
118,3,4,T1_SMS_5,27,5,42,127,305596992
118,3,4,T1_SMS_5,28,1,48,56,306039556
118,3,4,T1_SMS_5,29,5,42,127,306096368
118,3,4,T1_SMS_5,30,1,48,50,306531320
118,3,4,T1_SMS_5,31,5,42,127,306597108
118,3,4,T1_SMS_5,32,1,48,54,307037976
118,3,4,T1_SMS_5,33,5,42,127,307096952
118,3,4,T1_SMS_5,34,1,48,55,307519496
118,3,4,T1_SMS_5,35,5,42,127,307596796
118,3,4,T1_SMS_5,36,1,48,51,308041700
118,3,4,T1_SMS_5,37,5,42,127,308097536
118,3,4,T1_SMS_5,38,1,48,52,308526960
118,3,4,T1_SMS_5,39,5,42,127,308597084
118,3,4,T1_SMS_5,40,1,48,56,309052760
118,3,4,T1_SMS_5,41,5,42,127,309096852
118,3,4,T1_SMS_5,42,1,48,54,309569884
118,3,4,T1_SMS_5,43,5,42,127,309596396
118,3,4,T1_SMS_5,44,1,48,54,310057608
118,3,4,T1_SMS_5,45,5,42,127,310097360
118,3,4,T1_SMS_5,46,1,48,48,310538384
118,3,4,T1_SMS_5,47,5,42,127,310596908
118,3,4,T1_SMS_5,48,1,48,54,311054828
118,3,4,T1_SMS_5,49,5,42,127,311096752
118,3,4,T1_SMS_5,50,1,48,51,311541436
118,3,4,T1_SMS_5,51,5,42,127,311597272
118,3,4,T1_SMS_5,52,1,48,45,312086456
118,3,4,T1_SMS_5,53,5,42,127,312097116
118,3,4,T1_SMS_5,54,1,48,44,312556688
118,3,4,T1_SMS_5,55,5,42,127,312596888
118,3,4,T1_SMS_5,56,1,48,47,313028784
118,3,4,T1_SMS_5,57,5,42,127,313096656
118,3,4,T1_SMS_5,58,1,48,52,313532592
118,3,4,T1_SMS_5,59,5,42,127,313597252
118,3,4,T1_SMS_5,60,1,48,52,314031808
118,3,4,T1_SMS_5,61,5,42,127,314096944
118,3,4,T1_SMS_5,62,1,48,53,314529336
118,3,4,T1_SMS_5,63,5,42,127,314596716
118,3,4,T1_SMS_5,64,1,48,47,315013324
118,3,4,T1_SMS_5,65,5,42,127,315096408
118,3,4,T1_SMS_5,66,1,48,42,315560516
118,3,4,T1_SMS_5,67,5,42,127,315597300
118,3,4,T1_SMS_5,68,1,48,51,316075092
118,3,4,T1_SMS_5,69,5,42,127,316096844
118,3,4,T1_SMS_5,70,1,48,47,316586828
118,3,4,T1_SMS_5,71,5,42,127,316596688
118,3,4,T1_SMS_5,72,1,48,50,317085472
118,3,4,T1_SMS_5,73,5,42,127,317097256
118,3,4,T1_SMS_5,74,1,48,50,317576044
118,3,4,T1_SMS_5,75,5,42,127,317597024
118,3,4,T1_SMS_5,76,1,48,50,318096348
118,3,4,T1_SMS_5,77,5,42,127,318097916
118,3,4,T1_SMS_5,78,1,48,54,318587628
118,3,4,T1_SMS_5,79,5,42,127,318596564
118,3,4,T1_SMS_5,80,1,48,44,319085004
118,3,4,T1_SMS_5,81,5,42,127,319097160
118,3,4,T1_SMS_5,82,1,48,52,319558748
118,3,4,T1_SMS_5,83,5,42,127,319596856
118,3,4,T1_SMS_5,84,1,48,43,320079680
118,3,4,T1_SMS_5,85,5,42,127,320096696
118,3,4,T1_SMS_5,86,1,48,48,320569056
118,3,4,T1_SMS_5,87,5,42,127,320597216
118,3,4,T1_SMS_5,88,1,48,53,321070844
118,3,4,T1_SMS_5,89,5,42,127,321096984
118,3,4,T1_SMS_5,90,1,48,44,321544956
118,3,4,T1_SMS_5,91,5,42,127,321596756
118,3,4,T1_SMS_5,92,1,48,45,322082572
118,3,4,T1_SMS_5,93,5,42,127,322096448
118,3,4,T1_SMS_5,94,5,42,127,322597196
118,3,4,T1_SMS_5,95,1,48,50,322602632
118,3,4,T1_SMS_5,96,5,42,127,323096892
118,3,4,T1_SMS_5,97,1,48,44,323098304
118,3,4,T1_SMS_5,98,1,48,39,323596132
118,3,4,T1_SMS_5,99,5,42,127,323597700
118,3,4,T1_SMS_5,100,1,48,46,324076868
118,3,4,T1_SMS_5,101,5,42,127,324097544
118,3,4,T1_SMS_5,102,1,48,46,324566840
118,3,4,T1_SMS_5,103,5,42,127,324597092
118,3,4,T1_SMS_5,104,1,48,47,325082316
118,3,4,T1_SMS_5,105,5,42,127,325096788
118,3,4,T1_SMS_5,106,1,48,47,325580512
118,3,4,T1_SMS_5,107,5,42,127,325596556
118,3,4,T1_SMS_5,108,1,48,50,326087020
118,3,4,T1_SMS_5,109,5,42,127,326097224
118,3,4,T1_SMS_5,110,1,48,42,326564096
118,3,4,T1_SMS_5,111,5,42,127,326597064
118,3,4,T1_SMS_5,112,1,48,53,327077032
118,3,4,T1_SMS_5,113,5,42,127,327096536
118,3,4,T1_SMS_5,114,1,48,51,327533864
118,3,4,T1_SMS_5,115,5,42,127,327597700
118,3,4,T1_SMS_5,116,1,48,49,328066016
118,3,4,T1_SMS_5,117,5,42,127,328097024
118,3,4,T1_SMS_5,118,1,48,53,328588460
118,3,4,T1_SMS_5,119,5,42,127,328596796
118,3,4,T1_SMS_5,120,1,48,51,329085604
118,3,4,T1_SMS_5,121,5,42,127,329096636
118,3,4,T1_SMS_5,122,1,48,43,329565776
118,3,4,T1_SMS_5,123,5,42,127,329597452
118,3,4,T1_SMS_5,124,1,48,49,330052908
118,3,4,T1_SMS_5,125,5,42,127,330097148
118,3,4,T1_SMS_5,126,1,48,51,330548268
118,3,4,T1_SMS_5,127,5,42,127,330596696
118,3,4,T1_SMS_5,128,1,48,50,331061724
118,3,4,T1_SMS_5,129,5,42,127,331096612
118,3,4,T1_SMS_5,130,1,48,49,331557232
118,3,4,T1_SMS_5,131,5,42,127,331597056
118,3,4,T1_SMS_5,132,1,48,50,332081004
118,3,4,T1_SMS_5,133,5,42,127,332096972
118,3,4,T1_SMS_5,134,5,42,127,332596456
118,3,4,T1_SMS_5,135,1,48,53,332597420
118,3,4,T1_SMS_5,136,5,42,127,333097344
118,3,4,T1_SMS_5,137,1,48,50,333100836
118,3,4,T1_SMS_5,138,5,42,127,333597188
118,3,4,T1_SMS_5,139,1,48,51,333598156
118,3,4,T1_SMS_5,140,1,48,57,334069468
118,3,4,T1_SMS_5,141,5,42,127,334096656
118,3,4,T1_SMS_5,142,1,48,55,334582624
118,3,4,T1_SMS_5,143,5,42,127,334596500
118,3,4,T1_SMS_5,144,1,48,52,335096040
118,3,4,T1_SMS_5,145,5,42,127,335097612
118,3,4,T1_SMS_5,146,5,42,127,335596796
118,3,4,T1_SMS_5,147,1,48,53,335597760
118,3,4,T1_SMS_5,148,5,42,127,336096712
118,3,4,T1_SMS_5,149,1,48,55,336119796
118,3,4,T1_SMS_5,150,5,42,127,336597232
118,3,4,T1_SMS_5,151,1,48,56,336622036
118,3,4,T1_SMS_5,152,5,42,127,337097072
118,3,4,T1_SMS_5,153,1,48,53,337120536
118,3,4,T1_SMS_5,154,1,48,47,337595176
118,3,4,T1_SMS_5,155,5,42,127,337596688
118,3,4,T1_SMS_5,156,1,48,53,338055104
118,3,4,T1_SMS_5,157,5,42,127,338096456
118,3,4,T1_SMS_5,158,5,42,127,338597328
118,3,4,T1_SMS_5,159,1,48,51,338610116
118,3,4,T1_SMS_5,160,5,42,127,339096876
118,3,4,T1_SMS_5,161,1,48,53,339105152
118,3,4,T1_SMS_5,162,1,48,57,339591368
118,3,4,T1_SMS_5,163,5,42,127,339596640
118,3,4,T1_SMS_5,164,1,48,59,340096108
118,3,4,T1_SMS_5,165,5,42,127,340097604
118,3,4,T1_SMS_5,166,1,48,51,340590236
118,3,4,T1_SMS_5,167,5,42,127,340597228
118,3,4,T1_SMS_5,168,1,48,52,341075344
118,3,4,T1_SMS_5,169,5,42,127,341096772
118,3,4,T1_SMS_5,170,1,48,51,341537640
118,3,4,T1_SMS_5,171,5,42,127,341596544
118,3,4,T1_SMS_5,172,1,48,54,342086548
118,3,4,T1_SMS_5,173,5,42,127,342097212
118,3,4,T1_SMS_5,174,1,48,55,342587820
118,3,4,T1_SMS_5,175,5,42,127,342597128
118,3,4,T1_SMS_5,176,1,48,57,343071652
118,3,4,T1_SMS_5,177,5,42,127,343096676
118,3,4,T1_SMS_5,178,1,48,54,343578688
118,3,4,T1_SMS_5,179,5,42,127,343597344
118,3,4,T1_SMS_5,180,5,42,127,344097340
118,3,4,T1_SMS_5,181,1,48,64,344102256
118,3,4,T1_SMS_5,182,1,48,53,344593928
118,3,4,T1_SMS_5,183,5,42,127,344597032
118,3,4,T1_SMS_5,184,1,48,59,345083300
118,3,4,T1_SMS_5,185,5,42,127,345096652
118,3,4,T1_SMS_5,186,1,48,58,345580904
118,3,4,T1_SMS_5,187,5,42,127,345597392
118,3,4,T1_SMS_5,188,1,48,54,346090696
118,3,4,T1_SMS_5,189,5,42,127,346097012
118,3,4,T1_SMS_5,190,1,48,51,346580664
118,3,4,T1_SMS_5,191,5,42,127,346596856
118,3,4,T1_SMS_5,192,1,48,55,347087688
118,3,4,T1_SMS_5,193,5,42,127,347096476
118,3,4,T1_SMS_5,194,1,48,48,347557516
118,3,4,T1_SMS_5,195,5,42,127,347597144
118,3,4,T1_SMS_5,196,1,48,57,348053696
118,3,4,T1_SMS_5,197,5,42,127,348097064
118,3,4,T1_SMS_5,198,1,48,51,348569544
118,3,4,T1_SMS_5,199,5,42,127,348596536
118,3,4,T1_SMS_5,200,1,48,59,349092952
118,3,4,T1_SMS_5,201,5,42,127,349097252
118,3,4,T1_SMS_5,202,1,48,48,349576268
118,3,4,T1_SMS_5,203,5,42,127,349597020
118,3,4,T1_SMS_5,204,1,48,54,350071324
118,3,4,T1_SMS_5,205,5,42,127,350096864
118,3,4,T1_SMS_5,206,1,48,49,350570120
118,3,4,T1_SMS_5,207,5,42,127,350596484
118,3,4,T1_SMS_5,208,1,48,52,351092032
118,3,4,T1_SMS_5,209,5,42,127,351097228
118,3,4,T1_SMS_5,210,1,48,58,351575716
118,3,4,T1_SMS_5,211,5,42,127,351596996
118,3,4,T1_SMS_5,212,1,48,62,352092468
118,3,4,T1_SMS_5,213,5,42,127,352096840
118,3,4,T1_SMS_5,214,1,48,60,352589096
118,3,4,T1_SMS_5,215,5,42,127,352597360
118,3,4,T1_SMS_5,216,1,48,59,353083480
118,3,4,T1_SMS_5,217,5,42,127,353097128
118,3,4,T1_SMS_5,218,1,48,47,353595384
118,3,4,T1_SMS_5,219,5,42,127,353596972
118,3,4,T1_SMS_5,220,1,48,59,354088924
118,3,4,T1_SMS_5,221,5,42,127,354096592
118,3,4,T1_SMS_5,222,1,48,54,354589220
118,3,4,T1_SMS_5,223,5,42,127,354597260
118,3,4,T1_SMS_5,224,5,42,127,355097108
118,3,4,T1_SMS_5,225,1,48,55,355099628
118,3,4,T1_SMS_5,226,1,48,57,355589732
118,3,4,T1_SMS_5,227,5,42,127,355596872
118,3,4,T1_SMS_5,228,5,42,127,356097248
118,3,4,T1_SMS_5,229,1,48,51,356137688
118,3,4,T1_SMS_5,230,5,42,127,356597092
118,3,4,T1_SMS_5,231,1,48,54,356634168
118,3,4,T1_SMS_5,232,5,42,127,357097156
118,3,4,T1_SMS_5,233,1,48,61,357123168
118,3,4,T1_SMS_5,234,5,42,127,357596928
118,3,4,T1_SMS_5,235,1,48,56,357617776
118,3,4,T1_SMS_5,236,5,42,127,358097224
118,3,4,T1_SMS_5,237,1,48,55,358112460
118,3,4,T1_SMS_5,238,5,42,127,358597068
118,3,4,T1_SMS_5,239,1,48,55,358628760
118,3,4,T1_SMS_5,240,5,42,127,359096836
118,3,4,T1_SMS_5,241,1,48,54,359123660
118,3,4,T1_SMS_5,242,5,42,127,359597328
118,3,4,T1_SMS_5,243,1,48,52,359598296
118,3,4,T1_SMS_5,244,5,42,127,360097148
118,3,4,T1_SMS_5,245,1,48,47,360126316
118,3,4,T1_SMS_5,246,5,42,127,360597140
118,3,4,T1_SMS_5,247,1,48,55,360617388
118,3,4,T1_SMS_5,248,5,42,127,361096684
118,3,4,T1_SMS_5,249,1,48,47,361129648
118,3,4,T1_SMS_5,250,5,42,127,361597204
118,3,4,T1_SMS_5,251,1,48,48,361606832
118,3,4,T1_SMS_5,252,1,48,53,362095840
118,3,4,T1_SMS_5,253,5,42,127,362097264
118,3,4,T1_SMS_5,254,5,42,127,362596968
118,3,4,T1_SMS_5,255,1,48,53,362624320
118,3,4,T1_SMS_5,0,9999,9999,9999,298094712
118,3,4,T1_SMS_5,1,9999,9999,9999,298594356
118,3,4,T1_SMS_5,2,9999,9999,9999,299094072
118,3,4,T1_SMS_5,3,9999,9999,9999,299594836
118,3,4,T1_SMS_5,4,9999,9999,9999,300094548
118,3,4,T1_SMS_5,5,9999,9999,9999,300594240
118,3,4,T1_SMS_5,6,9999,9999,9999,301094984
118,3,4,T1_SMS_5,7,9999,9999,9999,301594680
118,3,4,T1_SMS_5,8,9999,9999,9999,302094448
118,3,4,T1_SMS_5,9,9999,9999,9999,302594144
118,3,4,T1_SMS_5,10,9999,9999,9999,303094884
118,3,4,T1_SMS_5,11,9999,9999,9999,303594580
118,3,4,T1_SMS_5,12,9999,9999,9999,304094276
118,3,4,T1_SMS_5,13,9999,9999,9999,304595016
118,3,4,T1_SMS_5,14,9999,9999,9999,305094712
118,3,4,T1_SMS_5,15,9999,9999,9999,305594480
118,3,4,T1_SMS_5,16,9999,9999,9999,306094152
118,3,4,T1_SMS_5,17,9999,9999,9999,306594892
118,3,4,T1_SMS_5,18,9999,9999,9999,307094588
118,3,4,T1_SMS_5,19,9999,9999,9999,307594356
118,3,4,T1_SMS_5,20,9999,9999,9999,308095096
118,3,4,T1_SMS_5,21,9999,9999,9999,308594792
118,3,4,T1_SMS_5,22,9999,9999,9999,309094484
118,3,4,T1_SMS_5,23,9999,9999,9999,309594180
118,3,4,T1_SMS_5,24,9999,9999,9999,310094924
118,3,4,T1_SMS_5,25,9999,9999,9999,310594616
118,3,4,T1_SMS_5,26,9999,9999,9999,311094388
118,3,4,T1_SMS_5,27,9999,9999,9999,311595056
118,3,4,T1_SMS_5,28,9999,9999,9999,312094824
118,3,4,T1_SMS_5,29,9999,9999,9999,312594524
118,3,4,T1_SMS_5,30,9999,9999,9999,313094220
118,3,4,T1_SMS_5,31,9999,9999,9999,313594960
118,3,4,T1_SMS_5,32,9999,9999,9999,314094656
118,3,4,T1_SMS_5,33,9999,9999,9999,314594424
118,3,4,T1_SMS_5,34,9999,9999,9999,315094120
118,3,4,T1_SMS_5,35,9999,9999,9999,315594860
118,3,4,T1_SMS_5,36,9999,9999,9999,316094552
118,3,4,T1_SMS_5,37,9999,9999,9999,316594252
118,3,4,T1_SMS_5,38,9999,9999,9999,317094964
118,3,4,T1_SMS_5,39,9999,9999,9999,317594736
118,3,4,T1_SMS_5,40,9999,9999,9999,318094436
118,3,4,T1_SMS_5,41,9999,9999,9999,318594128
118,3,4,T1_SMS_5,42,9999,9999,9999,319094868
118,3,4,T1_SMS_5,43,9999,9999,9999,319594564
118,3,4,T1_SMS_5,44,9999,9999,9999,320094256
118,3,4,T1_SMS_5,45,9999,9999,9999,320595000
118,3,4,T1_SMS_5,46,9999,9999,9999,321094768
118,3,4,T1_SMS_5,47,9999,9999,9999,321594464
118,3,4,T1_SMS_5,48,9999,9999,9999,322094160
118,3,4,T1_SMS_5,49,9999,9999,9999,322594908
118,3,4,T1_SMS_5,50,9999,9999,9999,323094604
118,3,4,T1_SMS_5,51,9999,9999,9999,323594296
118,3,4,T1_SMS_5,52,9999,9999,9999,324095032
118,3,4,T1_SMS_5,53,9999,9999,9999,324594804
118,3,4,T1_SMS_5,54,9999,9999,9999,325094496
118,3,4,T1_SMS_5,55,9999,9999,9999,325594192
118,3,4,T1_SMS_5,56,9999,9999,9999,326094932
118,3,4,T1_SMS_5,57,9999,9999,9999,326594628
118,3,4,T1_SMS_5,58,9999,9999,9999,327094320
118,3,4,T1_SMS_5,59,9999,9999,9999,327595116
118,3,4,T1_SMS_5,60,9999,9999,9999,328094808
118,3,4,T1_SMS_5,61,9999,9999,9999,328594504
118,3,4,T1_SMS_5,62,9999,9999,9999,329094196
118,3,4,T1_SMS_5,63,9999,9999,9999,329594940
118,3,4,T1_SMS_5,64,9999,9999,9999,330094708
118,3,4,T1_SMS_5,65,9999,9999,9999,330594404
118,3,4,T1_SMS_5,66,9999,9999,9999,331094100
118,3,4,T1_SMS_5,67,9999,9999,9999,331594840
118,3,4,T1_SMS_5,68,9999,9999,9999,332094536
118,3,4,T1_SMS_5,69,9999,9999,9999,332594240
118,3,4,T1_SMS_5,70,9999,9999,9999,333094980
118,3,4,T1_SMS_5,71,9999,9999,9999,333594676
118,3,4,T1_SMS_5,72,9999,9999,9999,334094440
118,3,4,T1_SMS_5,73,9999,9999,9999,334594136
118,3,4,T1_SMS_5,74,9999,9999,9999,335094884
118,3,4,T1_SMS_5,75,9999,9999,9999,335594580
118,3,4,T1_SMS_5,76,9999,9999,9999,336094272
118,3,4,T1_SMS_5,77,9999,9999,9999,336595012
118,3,4,T1_SMS_5,78,9999,9999,9999,337094708
118,3,4,T1_SMS_5,79,9999,9999,9999,337594476
118,3,4,T1_SMS_5,80,9999,9999,9999,338094140
118,3,4,T1_SMS_5,81,9999,9999,9999,338594888
118,3,4,T1_SMS_5,82,9999,9999,9999,339094584
118,3,4,T1_SMS_5,83,9999,9999,9999,339594348
118,3,4,T1_SMS_5,84,9999,9999,9999,340095024
118,3,4,T1_SMS_5,85,9999,9999,9999,340594788
118,3,4,T1_SMS_5,86,9999,9999,9999,341094484
118,3,4,T1_SMS_5,87,9999,9999,9999,341594180
118,3,4,T1_SMS_5,88,9999,9999,9999,342094920
118,3,4,T1_SMS_5,89,9999,9999,9999,342594616
118,3,4,T1_SMS_5,90,9999,9999,9999,343094384
118,3,4,T1_SMS_5,91,9999,9999,9999,343595128
118,3,4,T1_SMS_5,92,9999,9999,9999,344094828
118,3,4,T1_SMS_5,93,9999,9999,9999,344594516
118,3,4,T1_SMS_5,94,9999,9999,9999,345094212
118,3,4,T1_SMS_5,95,9999,9999,9999,345594952
118,3,4,T1_SMS_5,96,9999,9999,9999,346094648
118,3,4,T1_SMS_5,97,9999,9999,9999,346594416
118,3,4,T1_SMS_5,98,9999,9999,9999,347094112
118,3,4,T1_SMS_5,99,9999,9999,9999,347594856
118,3,4,T1_SMS_5,100,9999,9999,9999,348094548
118,3,4,T1_SMS_5,101,9999,9999,9999,348594244
118,3,4,T1_SMS_5,102,9999,9999,9999,349094960
118,3,4,T1_SMS_5,103,9999,9999,9999,349594728
118,3,4,T1_SMS_5,104,9999,9999,9999,350094428
118,3,4,T1_SMS_5,105,9999,9999,9999,350594120
118,3,4,T1_SMS_5,106,9999,9999,9999,351094864
118,3,4,T1_SMS_5,107,9999,9999,9999,351594556
118,3,4,T1_SMS_5,108,9999,9999,9999,352094328
118,3,4,T1_SMS_5,109,9999,9999,9999,352594996
118,3,4,T1_SMS_5,110,9999,9999,9999,353094764
118,3,4,T1_SMS_5,111,9999,9999,9999,353594464
118,3,4,T1_SMS_5,112,9999,9999,9999,354094152
118,3,4,T1_SMS_5,113,9999,9999,9999,354594896
118,3,4,T1_SMS_5,114,9999,9999,9999,355094596
118,3,4,T1_SMS_5,115,9999,9999,9999,355594360
118,3,4,T1_SMS_5,116,9999,9999,9999,356095032
118,3,4,T1_SMS_5,117,9999,9999,9999,356594800
118,3,4,T1_SMS_5,118,9999,9999,9999,357094496
118,3,4,T1_SMS_5,119,9999,9999,9999,357594192
118,3,4,T1_SMS_5,120,9999,9999,9999,358094932
118,3,4,T1_SMS_5,121,9999,9999,9999,358594628
118,3,4,T1_SMS_5,122,9999,9999,9999,359094324
118,3,4,T1_SMS_5,123,9999,9999,9999,359595112
118,3,4,T1_SMS_5,124,9999,9999,9999,360094784
118,3,4,T1_SMS_5,125,9999,9999,9999,360594552
118,3,4,T1_SMS_5,126,9999,9999,9999,361094248
118,3,4,T1_SMS_5,127,9999,9999,9999,361594988
118,3,4,T1_SMS_5,128,9999,9999,9999,362094684
118,3,4,T1_SMS_5,129,9999,9999,9999,362594380
118,4,2,T1_SMS_8,0,5,42,127,428125572
118,4,2,T1_SMS_8,1,5,42,127,428926448
118,4,2,T1_SMS_8,2,5,42,127,429726352
118,4,2,T1_SMS_8,3,1,48,69,429756804
118,4,2,T1_SMS_8,4,5,42,127,430525888
118,4,2,T1_SMS_8,5,1,48,71,430548604
118,4,2,T1_SMS_8,6,5,42,127,431325620
118,4,2,T1_SMS_8,7,1,48,79,431369804
118,4,2,T1_SMS_8,8,1,48,42,431410548
118,4,2,T1_SMS_8,9,5,42,127,432126304
118,4,2,T1_SMS_8,10,1,48,60,432164880
118,4,2,T1_SMS_8,11,1,48,46,432912464
118,4,2,T1_SMS_8,12,5,42,127,432926328
118,4,2,T1_SMS_8,13,1,48,45,433699776
118,4,2,T1_SMS_8,14,5,42,127,433725912
118,4,2,T1_SMS_8,15,1,48,55,434502880
118,4,2,T1_SMS_8,16,5,42,127,434525572
118,4,2,T1_SMS_8,17,1,48,55,435288476
118,4,2,T1_SMS_8,18,5,42,127,435326352
118,4,2,T1_SMS_8,19,1,48,59,436122988
118,4,2,T1_SMS_8,20,5,42,127,436126160
118,4,2,T1_SMS_8,21,1,48,48,436862064
118,4,2,T1_SMS_8,22,5,42,127,436925920
118,4,2,T1_SMS_8,23,1,48,59,437702736
118,4,2,T1_SMS_8,24,5,42,127,437725504
118,4,2,T1_SMS_8,25,1,48,53,438463272
118,4,2,T1_SMS_8,26,5,42,127,438526432
118,4,2,T1_SMS_8,27,5,42,127,439326176
118,4,2,T1_SMS_8,28,1,48,48,439339768
118,4,2,T1_SMS_8,29,5,42,127,440125684
118,4,2,T1_SMS_8,30,1,48,51,440149748
118,4,2,T1_SMS_8,31,5,42,127,440925492
118,4,2,T1_SMS_8,32,1,48,53,440931384
118,4,2,T1_SMS_8,33,1,48,57,441724152
118,4,2,T1_SMS_8,34,5,42,127,441726268
118,4,2,T1_SMS_8,35,1,48,59,442506896
118,4,2,T1_SMS_8,36,5,42,127,442526072
118,4,2,T1_SMS_8,37,1,48,50,443311064
118,4,2,T1_SMS_8,38,5,42,127,443325684
118,4,2,T1_SMS_8,39,1,48,49,444088884
118,4,2,T1_SMS_8,40,5,42,127,444125564
118,4,2,T1_SMS_8,41,5,42,127,444926352
118,4,2,T1_SMS_8,42,1,48,61,444934188
118,4,2,T1_SMS_8,43,5,42,127,445726012
118,4,2,T1_SMS_8,44,1,48,53,445742224
118,4,2,T1_SMS_8,45,5,42,127,446525968
118,4,2,T1_SMS_8,46,1,48,59,446568736
118,4,2,T1_SMS_8,47,5,42,127,447325480
118,4,2,T1_SMS_8,48,1,48,55,447341536
118,4,2,T1_SMS_8,49,1,48,67,448104152
118,4,2,T1_SMS_8,50,5,42,127,448126252
118,4,2,T1_SMS_8,51,5,42,127,448925992
118,4,2,T1_SMS_8,52,1,48,56,448943348
118,4,2,T1_SMS_8,53,5,42,127,449725900
118,4,2,T1_SMS_8,54,1,48,58,449731488
118,4,2,T1_SMS_8,55,1,48,58,450521704
118,4,2,T1_SMS_8,56,5,42,127,450525480
118,4,2,T1_SMS_8,57,5,42,127,451326192
118,4,2,T1_SMS_8,58,1,48,47,451337616
118,4,2,T1_SMS_8,59,1,48,53,452090728
118,4,2,T1_SMS_8,60,5,42,127,452126216
118,4,2,T1_SMS_8,61,1,48,53,452921132
118,4,2,T1_SMS_8,62,5,42,127,452925876
118,4,2,T1_SMS_8,63,1,48,57,453694012
118,4,2,T1_SMS_8,64,5,42,127,453725536
118,4,2,T1_SMS_8,65,1,48,63,454524580
118,4,2,T1_SMS_8,66,5,42,127,454526240
118,4,2,T1_SMS_8,67,1,48,55,455310160
118,4,2,T1_SMS_8,68,5,42,127,455326048
118,4,2,T1_SMS_8,69,1,48,54,456118524
118,4,2,T1_SMS_8,70,5,42,127,456125732
118,4,2,T1_SMS_8,71,1,48,62,456912268
118,4,2,T1_SMS_8,72,5,42,127,456925464
118,4,2,T1_SMS_8,73,1,48,54,457663156
118,4,2,T1_SMS_8,74,5,42,127,457726320
118,4,2,T1_SMS_8,75,1,48,48,458522732
118,4,2,T1_SMS_8,76,5,42,127,458525980
118,4,2,T1_SMS_8,77,1,48,54,459325720
118,4,2,T1_SMS_8,78,5,42,127,459327060
118,4,2,T1_SMS_8,79,1,48,55,460100880
118,4,2,T1_SMS_8,80,5,42,127,460125448
118,4,2,T1_SMS_8,81,1,48,50,460877880
118,4,2,T1_SMS_8,82,5,42,127,460926228
118,4,2,T1_SMS_8,83,1,48,23,460945636
118,4,2,T1_SMS_8,84,1,48,54,461676088
118,4,2,T1_SMS_8,85,1,48,33,461725692
118,4,2,T1_SMS_8,86,5,42,127,461726892
118,4,2,T1_SMS_8,87,5,42,127,462525976
118,4,2,T1_SMS_8,88,1,48,43,462547576
118,4,2,T1_SMS_8,89,5,42,127,463325488
118,4,2,T1_SMS_8,90,1,48,51,463334892
118,4,2,T1_SMS_8,91,5,42,127,464126420
118,4,2,T1_SMS_8,92,1,48,43,464183916
118,4,2,T1_SMS_8,93,5,42,127,464926004
118,4,2,T1_SMS_8,94,1,48,45,464944604
118,4,2,T1_SMS_8,95,1,48,48,465714776
118,4,2,T1_SMS_8,96,5,42,127,465726028
118,4,2,T1_SMS_8,97,1,48,45,466509572
118,4,2,T1_SMS_8,98,5,42,127,466525760
118,4,2,T1_SMS_8,99,5,42,127,467326248
118,4,2,T1_SMS_8,100,1,48,44,467344324
118,4,2,T1_SMS_8,101,1,48,43,468091684
118,4,2,T1_SMS_8,102,5,42,127,468126052
118,4,2,T1_SMS_8,103,1,48,42,468885956
118,4,2,T1_SMS_8,104,5,42,127,468925660
118,4,2,T1_SMS_8,105,1,48,42,469681308
118,4,2,T1_SMS_8,106,5,42,127,469725764
118,4,2,T1_SMS_8,107,1,48,44,470506168
118,4,2,T1_SMS_8,108,5,42,127,470526248
118,4,2,T1_SMS_8,109,1,48,41,471308820
118,4,2,T1_SMS_8,110,5,42,127,471326204
118,4,2,T1_SMS_8,111,1,48,44,472121792
118,4,2,T1_SMS_8,112,5,42,127,472125864
118,4,2,T1_SMS_8,113,5,42,127,472925752
118,4,2,T1_SMS_8,114,1,48,49,472928200
118,4,2,T1_SMS_8,115,1,48,57,473721556
118,4,2,T1_SMS_8,116,5,42,127,473726300
118,4,2,T1_SMS_8,117,1,48,41,474511420
118,4,2,T1_SMS_8,118,5,42,127,474526108
118,4,2,T1_SMS_8,119,1,48,34,475294992
118,4,2,T1_SMS_8,120,5,42,127,475325792
118,4,2,T1_SMS_8,121,1,48,44,476061068
118,4,2,T1_SMS_8,122,5,42,127,476125600
118,4,2,T1_SMS_8,123,1,48,43,476918568
118,4,2,T1_SMS_8,124,5,42,127,476926452
118,4,2,T1_SMS_8,125,5,42,127,477726120
118,4,2,T1_SMS_8,126,1,48,48,477773368
118,4,2,T1_SMS_8,127,5,42,127,478525752
118,4,2,T1_SMS_8,128,1,48,50,478564628
118,4,2,T1_SMS_8,129,5,42,127,479325560
118,4,2,T1_SMS_8,130,1,48,54,479373636
118,4,2,T1_SMS_8,131,5,42,127,480126416
118,4,2,T1_SMS_8,132,1,48,58,480162000
118,4,2,T1_SMS_8,133,1,48,53,480925320
118,4,2,T1_SMS_8,134,5,42,127,480926892
118,4,2,T1_SMS_8,135,5,42,127,481725684
118,4,2,T1_SMS_8,136,1,48,49,481734484
118,4,2,T1_SMS_8,137,5,42,127,482525564
118,4,2,T1_SMS_8,138,1,48,41,482557928
118,4,2,T1_SMS_8,139,5,42,127,483326640
118,4,2,T1_SMS_8,140,1,48,52,483329320
118,4,2,T1_SMS_8,141,1,48,57,484120880
118,4,2,T1_SMS_8,142,5,42,127,484126072
118,4,2,T1_SMS_8,143,1,48,57,484924372
118,4,2,T1_SMS_8,144,5,42,127,484925880
118,4,2,T1_SMS_8,145,5,42,127,485725620
118,4,2,T1_SMS_8,146,1,48,46,485766444
118,4,2,T1_SMS_8,147,5,42,127,486526472
118,4,2,T1_SMS_8,148,1,48,41,486538720
118,4,2,T1_SMS_8,149,5,42,127,487325984
118,4,2,T1_SMS_8,150,1,48,43,487375880
118,4,2,T1_SMS_8,151,5,42,127,488125892
118,4,2,T1_SMS_8,152,1,48,54,488152280
118,4,2,T1_SMS_8,153,5,42,127,488925404
118,4,2,T1_SMS_8,154,1,48,54,488968764
118,4,2,T1_SMS_8,155,5,42,127,489726556
118,4,2,T1_SMS_8,156,1,48,56,489745984
118,4,2,T1_SMS_8,157,5,42,127,490526288
118,4,2,T1_SMS_8,158,1,48,58,490579228
118,4,2,T1_SMS_8,159,5,42,127,491325800
118,4,2,T1_SMS_8,160,1,48,46,491330416
118,4,2,T1_SMS_8,161,5,42,127,492125460
118,4,2,T1_SMS_8,162,1,48,49,492177272
118,4,2,T1_SMS_8,163,5,42,127,492926312
118,4,2,T1_SMS_8,164,1,48,51,492948660
118,4,2,T1_SMS_8,165,5,42,127,493726268
118,4,2,T1_SMS_8,166,1,48,59,493772720
118,4,2,T1_SMS_8,167,5,42,127,494525728
118,4,2,T1_SMS_8,168,1,48,53,494559816
118,4,2,T1_SMS_8,169,5,42,127,495325464
118,4,2,T1_SMS_8,170,1,48,46,495383636
118,4,2,T1_SMS_8,171,5,42,127,496126244
118,4,2,T1_SMS_8,172,1,48,52,496142152
118,4,2,T1_SMS_8,173,5,42,127,496926348
118,4,2,T1_SMS_8,174,1,48,38,497012124
118,4,2,T1_SMS_8,175,5,42,127,497725788
118,4,2,T1_SMS_8,176,1,48,51,497732196
118,4,2,T1_SMS_8,177,1,48,41,498503192
118,4,2,T1_SMS_8,178,5,42,127,498525440
118,4,2,T1_SMS_8,179,1,48,61,499326596
118,4,2,T1_SMS_8,180,5,42,127,499327940
118,4,2,T1_SMS_8,181,1,48,50,500122256
118,4,2,T1_SMS_8,182,5,42,127,500126028
118,4,2,T1_SMS_8,183,1,48,62,500922160
118,4,2,T1_SMS_8,184,5,42,127,500925860
118,4,2,T1_SMS_8,185,1,48,55,501715092
118,4,2,T1_SMS_8,186,5,42,127,501725596
118,4,2,T1_SMS_8,187,1,48,53,502524868
118,4,2,T1_SMS_8,188,5,42,127,502526376
118,4,2,T1_SMS_8,189,1,48,60,503318896
118,4,2,T1_SMS_8,190,5,42,127,503326108
118,4,2,T1_SMS_8,191,5,42,127,504125776
118,4,2,T1_SMS_8,192,1,48,60,504130316
118,4,2,T1_SMS_8,193,5,42,127,504925436
118,4,2,T1_SMS_8,194,1,48,50,504981512
118,4,2,T1_SMS_8,195,5,42,127,505726288
118,4,2,T1_SMS_8,196,1,48,56,505750500
118,4,2,T1_SMS_8,197,5,42,127,506526172
118,4,2,T1_SMS_8,198,1,48,56,506567536
118,4,2,T1_SMS_8,199,5,42,127,507325928
118,4,2,T1_SMS_8,200,1,48,59,507366676
118,4,2,T1_SMS_8,201,5,42,127,508125588
118,4,2,T1_SMS_8,202,1,48,59,508159080
118,4,2,T1_SMS_8,203,5,42,127,508926292
118,4,2,T1_SMS_8,204,1,48,49,508952224
118,4,2,T1_SMS_8,205,5,42,127,509726176
118,4,2,T1_SMS_8,206,1,48,53,509731916
118,4,2,T1_SMS_8,207,5,42,127,510525908
118,4,2,T1_SMS_8,208,1,48,51,510539128
118,4,2,T1_SMS_8,209,5,42,127,511325568
118,4,2,T1_SMS_8,210,1,48,46,511353896
118,4,2,T1_SMS_8,211,5,42,127,512126200
118,4,2,T1_SMS_8,212,1,48,45,512174820
118,4,2,T1_SMS_8,213,5,42,127,512926008
118,4,2,T1_SMS_8,214,1,48,47,512942540
118,4,2,T1_SMS_8,215,5,42,127,513725840
118,4,2,T1_SMS_8,216,1,48,53,513749456
118,4,2,T1_SMS_8,217,5,42,127,514525424
118,4,2,T1_SMS_8,218,1,48,52,514569756
118,4,2,T1_SMS_8,219,5,42,127,515326280
118,4,2,T1_SMS_8,220,1,48,45,515393876
118,4,2,T1_SMS_8,221,5,42,127,516126088
118,4,2,T1_SMS_8,222,1,48,55,516149256
118,4,2,T1_SMS_8,223,1,48,55,516920920
118,4,2,T1_SMS_8,224,5,42,127,516925888
118,4,2,T1_SMS_8,225,5,42,127,517725404
118,4,2,T1_SMS_8,226,1,48,54,517747000
118,4,2,T1_SMS_8,227,5,42,127,518526332
118,4,2,T1_SMS_8,228,1,48,63,518535808
118,4,2,T1_SMS_8,229,5,42,127,519325992
118,4,2,T1_SMS_8,230,1,48,64,519328512
118,4,2,T1_SMS_8,231,5,42,127,520125824
118,4,2,T1_SMS_8,232,1,48,61,520164400
118,4,2,T1_SMS_8,233,5,42,127,520925484
118,4,2,T1_SMS_8,234,1,48,57,520967872
118,4,2,T1_SMS_8,235,5,42,127,521726264
118,4,2,T1_SMS_8,236,1,48,46,521753696
118,4,2,T1_SMS_8,237,5,42,127,522526144
118,4,2,T1_SMS_8,238,1,48,43,522551556
118,4,2,T1_SMS_8,239,5,42,127,523325876
118,4,2,T1_SMS_8,240,1,48,54,523347252
118,4,2,T1_SMS_8,0,9999,9999,9999,428123208
118,4,2,T1_SMS_8,1,9999,9999,9999,428924008
118,4,2,T1_SMS_8,2,9999,9999,9999,429723768
118,4,2,T1_SMS_8,3,9999,9999,9999,430523448
118,4,2,T1_SMS_8,4,9999,9999,9999,431323184
118,4,2,T1_SMS_8,5,9999,9999,9999,432124016
118,4,2,T1_SMS_8,6,9999,9999,9999,432923744
118,4,2,T1_SMS_8,7,9999,9999,9999,433723476
118,4,2,T1_SMS_8,8,9999,9999,9999,434523212
118,4,2,T1_SMS_8,9,9999,9999,9999,435323992
118,4,2,T1_SMS_8,10,9999,9999,9999,436123724
118,4,2,T1_SMS_8,11,9999,9999,9999,436923484
118,4,2,T1_SMS_8,12,9999,9999,9999,437723220
118,4,2,T1_SMS_8,13,9999,9999,9999,438523996
118,4,2,T1_SMS_8,14,9999,9999,9999,439323736
118,4,2,T1_SMS_8,15,9999,9999,9999,440123472
118,4,2,T1_SMS_8,16,9999,9999,9999,440923204
118,4,2,T1_SMS_8,17,9999,9999,9999,441724024
118,4,2,T1_SMS_8,18,9999,9999,9999,442523712
118,4,2,T1_SMS_8,19,9999,9999,9999,443323468
118,4,2,T1_SMS_8,20,9999,9999,9999,444123204
118,4,2,T1_SMS_8,21,9999,9999,9999,444923988
118,4,2,T1_SMS_8,22,9999,9999,9999,445723724
118,4,2,T1_SMS_8,23,9999,9999,9999,446523456
118,4,2,T1_SMS_8,24,9999,9999,9999,447323192
118,4,2,T1_SMS_8,25,9999,9999,9999,448123964
118,4,2,T1_SMS_8,26,9999,9999,9999,448923704
118,4,2,T1_SMS_8,27,9999,9999,9999,449723464
118,4,2,T1_SMS_8,28,9999,9999,9999,450523188
118,4,2,T1_SMS_8,29,9999,9999,9999,451323976
118,4,2,T1_SMS_8,30,9999,9999,9999,452123708
118,4,2,T1_SMS_8,31,9999,9999,9999,452923440
118,4,2,T1_SMS_8,32,9999,9999,9999,453723248
118,4,2,T1_SMS_8,33,9999,9999,9999,454523976
118,4,2,T1_SMS_8,34,9999,9999,9999,455323760
118,4,2,T1_SMS_8,35,9999,9999,9999,456123444
118,4,2,T1_SMS_8,36,9999,9999,9999,456923252
118,4,2,T1_SMS_8,37,9999,9999,9999,457723956
118,4,2,T1_SMS_8,38,9999,9999,9999,458523764
118,4,2,T1_SMS_8,39,9999,9999,9999,459323508
118,4,2,T1_SMS_8,40,9999,9999,9999,460123232
118,4,2,T1_SMS_8,41,9999,9999,9999,460924012
118,4,2,T1_SMS_8,42,9999,9999,9999,461723724
118,4,2,T1_SMS_8,43,9999,9999,9999,462523468
118,4,2,T1_SMS_8,44,9999,9999,9999,463323200
118,4,2,T1_SMS_8,45,9999,9999,9999,464123980
118,4,2,T1_SMS_8,46,9999,9999,9999,464923716
118,4,2,T1_SMS_8,47,9999,9999,9999,465723440
118,4,2,T1_SMS_8,48,9999,9999,9999,466523248
118,4,2,T1_SMS_8,49,9999,9999,9999,467323960
118,4,2,T1_SMS_8,50,9999,9999,9999,468123764
118,4,2,T1_SMS_8,51,9999,9999,9999,468923444
118,4,2,T1_SMS_8,52,9999,9999,9999,469723252
118,4,2,T1_SMS_8,53,9999,9999,9999,470523960
118,4,2,T1_SMS_8,54,9999,9999,9999,471323768
118,4,2,T1_SMS_8,55,9999,9999,9999,472123500
118,4,2,T1_SMS_8,56,9999,9999,9999,472923240
118,4,2,T1_SMS_8,57,9999,9999,9999,473724012
118,4,2,T1_SMS_8,58,9999,9999,9999,474523744
118,4,2,T1_SMS_8,59,9999,9999,9999,475323504
118,4,2,T1_SMS_8,60,9999,9999,9999,476123236
118,4,2,T1_SMS_8,61,9999,9999,9999,476924016
118,4,2,T1_SMS_8,62,9999,9999,9999,477723756
118,4,2,T1_SMS_8,63,9999,9999,9999,478523464
118,4,2,T1_SMS_8,64,9999,9999,9999,479323200
118,4,2,T1_SMS_8,65,9999,9999,9999,480123980
118,4,2,T1_SMS_8,66,9999,9999,9999,480923712
118,4,2,T1_SMS_8,67,9999,9999,9999,481723468
118,4,2,T1_SMS_8,68,9999,9999,9999,482523204
118,4,2,T1_SMS_8,69,9999,9999,9999,483323984
118,4,2,T1_SMS_8,70,9999,9999,9999,484123708
118,4,2,T1_SMS_8,71,9999,9999,9999,484923452
118,4,2,T1_SMS_8,72,9999,9999,9999,485723184
118,4,2,T1_SMS_8,73,9999,9999,9999,486523964
118,4,2,T1_SMS_8,74,9999,9999,9999,487323696
118,4,2,T1_SMS_8,75,9999,9999,9999,488123456
118,4,2,T1_SMS_8,76,9999,9999,9999,488923188
118,4,2,T1_SMS_8,77,9999,9999,9999,489723968
118,4,2,T1_SMS_8,78,9999,9999,9999,490523704
118,4,2,T1_SMS_8,79,9999,9999,9999,491323512
118,4,2,T1_SMS_8,80,9999,9999,9999,492123244
118,4,2,T1_SMS_8,81,9999,9999,9999,492923952
118,4,2,T1_SMS_8,82,9999,9999,9999,493723760
118,4,2,T1_SMS_8,83,9999,9999,9999,494523440
118,4,2,T1_SMS_8,84,9999,9999,9999,495323248
118,4,2,T1_SMS_8,85,9999,9999,9999,496123956
118,4,2,T1_SMS_8,86,9999,9999,9999,496923764
118,4,2,T1_SMS_8,87,9999,9999,9999,497723496
118,4,2,T1_SMS_8,88,9999,9999,9999,498523224
118,4,2,T1_SMS_8,89,9999,9999,9999,499324012
118,4,2,T1_SMS_8,90,9999,9999,9999,500123740
118,4,2,T1_SMS_8,91,9999,9999,9999,500923500
118,4,2,T1_SMS_8,92,9999,9999,9999,501723232
118,4,2,T1_SMS_8,93,9999,9999,9999,502524020
118,4,2,T1_SMS_8,94,9999,9999,9999,503323744
118,4,2,T1_SMS_8,95,9999,9999,9999,504123488
118,4,2,T1_SMS_8,96,9999,9999,9999,504923220
118,4,2,T1_SMS_8,97,9999,9999,9999,505724000
118,4,2,T1_SMS_8,98,9999,9999,9999,506523732
118,4,2,T1_SMS_8,99,9999,9999,9999,507323492
118,4,2,T1_SMS_8,100,9999,9999,9999,508123224
118,4,2,T1_SMS_8,101,9999,9999,9999,508924004
118,4,2,T1_SMS_8,102,9999,9999,9999,509723740
118,4,2,T1_SMS_8,103,9999,9999,9999,510523472
118,4,2,T1_SMS_8,104,9999,9999,9999,511323204
118,4,2,T1_SMS_8,105,9999,9999,9999,512123984
118,4,2,T1_SMS_8,106,9999,9999,9999,512923720
118,4,2,T1_SMS_8,107,9999,9999,9999,513723476
118,4,2,T1_SMS_8,108,9999,9999,9999,514523212
118,4,2,T1_SMS_8,109,9999,9999,9999,515323992
118,4,2,T1_SMS_8,110,9999,9999,9999,516123724
118,4,2,T1_SMS_8,111,9999,9999,9999,516923452
118,4,2,T1_SMS_8,112,9999,9999,9999,517723192
118,4,2,T1_SMS_8,113,9999,9999,9999,518523968
118,4,2,T1_SMS_8,114,9999,9999,9999,519323704
118,4,2,T1_SMS_8,115,9999,9999,9999,520123460
118,4,2,T1_SMS_8,116,9999,9999,9999,520923196
118,4,2,T1_SMS_8,117,9999,9999,9999,521723976
118,4,2,T1_SMS_8,118,9999,9999,9999,522523708
118,4,2,T1_SMS_8,119,9999,9999,9999,523323440
118,5,23,Ticks_Phase_5,0,5,42,127,534965700
118,5,23,Ticks_Phase_5,1,5,42,127,535466456
118,5,23,Ticks_Phase_5,2,5,42,127,535965992
118,5,23,Ticks_Phase_5,3,5,42,127,536465776
118,5,23,Ticks_Phase_5,4,1,48,50,536921488
118,5,23,Ticks_Phase_5,5,5,42,127,536965704
118,5,23,Ticks_Phase_5,6,1,48,52,537428224
118,5,23,Ticks_Phase_5,7,5,42,127,537466292
118,5,23,Ticks_Phase_5,8,1,48,53,537964472
118,5,23,Ticks_Phase_5,9,5,42,127,537965980
118,5,23,Ticks_Phase_5,10,1,48,61,538452976
118,5,23,Ticks_Phase_5,11,5,42,127,538465668
118,5,23,Ticks_Phase_5,12,1,48,58,538953412
118,5,23,Ticks_Phase_5,13,5,42,127,538966332
118,5,23,Ticks_Phase_5,14,1,48,56,539458276
118,5,23,Ticks_Phase_5,15,5,42,127,539466092
118,5,23,Ticks_Phase_5,16,1,48,58,539954748
118,5,23,Ticks_Phase_5,17,5,42,127,539965932
118,5,23,Ticks_Phase_5,18,1,48,57,540459376
118,5,23,Ticks_Phase_5,19,5,42,127,540465400
118,5,23,Ticks_Phase_5,20,1,48,63,540956592
118,5,23,Ticks_Phase_5,21,5,42,127,540966356
118,5,23,Ticks_Phase_5,22,5,42,127,541465900
118,5,23,Ticks_Phase_5,23,1,48,61,541470068
118,5,23,Ticks_Phase_5,24,5,42,127,541965592
118,5,23,Ticks_Phase_5,25,1,48,46,541989980
118,5,23,Ticks_Phase_5,26,5,42,127,542466404
118,5,23,Ticks_Phase_5,27,1,48,52,542473796
118,5,23,Ticks_Phase_5,28,1,48,48,542916784
118,5,23,Ticks_Phase_5,29,5,42,127,542976344
118,5,23,Ticks_Phase_5,30,5,42,127,543476260
118,5,23,Ticks_Phase_5,31,1,48,46,543488668
118,5,23,Ticks_Phase_5,32,5,42,127,543975724
118,5,23,Ticks_Phase_5,33,1,48,49,543994796
118,5,23,Ticks_Phase_5,34,5,42,127,544475488
118,5,23,Ticks_Phase_5,35,1,48,48,544477280
118,5,23,Ticks_Phase_5,36,5,42,127,544976296
118,5,23,Ticks_Phase_5,37,1,48,55,544977264
118,5,23,Ticks_Phase_5,38,5,42,127,545475908
118,5,23,Ticks_Phase_5,39,1,48,55,545512948
118,5,23,Ticks_Phase_5,40,5,42,127,545975600
118,5,23,Ticks_Phase_5,41,1,48,53,545980288
118,5,23,Ticks_Phase_5,42,5,42,127,546476336
118,5,23,Ticks_Phase_5,43,1,48,52,546483728
118,5,23,Ticks_Phase_5,44,1,48,51,546961804
118,5,23,Ticks_Phase_5,45,5,42,127,546976212
118,5,23,Ticks_Phase_5,46,1,48,52,547450632
118,5,23,Ticks_Phase_5,47,5,42,127,547475752
118,5,23,Ticks_Phase_5,48,1,48,46,547952788
118,5,23,Ticks_Phase_5,49,5,42,127,547975516
118,5,23,Ticks_Phase_5,50,1,48,45,548448212
118,5,23,Ticks_Phase_5,51,5,42,127,548476324
118,5,23,Ticks_Phase_5,52,1,48,53,548943928
118,5,23,Ticks_Phase_5,53,5,42,127,548975940
118,5,23,Ticks_Phase_5,54,1,48,49,549448188
118,5,23,Ticks_Phase_5,55,5,42,127,549475704
118,5,23,Ticks_Phase_5,56,1,48,48,549948480
118,5,23,Ticks_Phase_5,57,5,42,127,549966400
118,5,23,Ticks_Phase_5,58,1,48,46,550457076
118,5,23,Ticks_Phase_5,59,5,42,127,550466016
118,5,23,Ticks_Phase_5,60,1,48,51,550955196
118,5,23,Ticks_Phase_5,61,5,42,127,550965628
118,5,23,Ticks_Phase_5,62,1,48,47,551440120
118,5,23,Ticks_Phase_5,63,5,42,127,551466364
118,5,23,Ticks_Phase_5,64,1,48,29,551944240
118,5,23,Ticks_Phase_5,65,5,42,127,551966276
118,5,23,Ticks_Phase_5,66,1,48,51,552432452
118,5,23,Ticks_Phase_5,67,5,42,127,552465888
118,5,23,Ticks_Phase_5,68,1,48,51,552949296
118,5,23,Ticks_Phase_5,69,5,42,127,552965428
118,5,23,Ticks_Phase_5,70,1,48,40,553442316
118,5,23,Ticks_Phase_5,71,5,42,127,553466312
118,5,23,Ticks_Phase_5,72,1,48,58,553931368
118,5,23,Ticks_Phase_5,73,5,42,127,553966224
118,5,23,Ticks_Phase_5,74,1,48,41,554445220
118,5,23,Ticks_Phase_5,75,5,42,127,554465688
118,5,23,Ticks_Phase_5,76,1,48,57,554919888
118,5,23,Ticks_Phase_5,77,5,42,127,554966428
118,5,23,Ticks_Phase_5,78,1,48,47,555424424
118,5,23,Ticks_Phase_5,79,5,42,127,555466336
118,5,23,Ticks_Phase_5,80,1,48,44,555938340
118,5,23,Ticks_Phase_5,81,5,42,127,555966248
118,5,23,Ticks_Phase_5,82,1,48,54,556406128
118,5,23,Ticks_Phase_5,83,5,42,127,556465488
118,5,23,Ticks_Phase_5,84,1,48,48,556965172
118,5,23,Ticks_Phase_5,85,5,42,127,556966668
118,5,23,Ticks_Phase_5,86,1,48,52,557438524
118,5,23,Ticks_Phase_5,87,5,42,127,557466256
118,5,23,Ticks_Phase_5,88,1,48,46,557962320
118,5,23,Ticks_Phase_5,89,5,42,127,557965576
118,5,23,Ticks_Phase_5,90,1,48,51,558460140
118,5,23,Ticks_Phase_5,91,5,42,127,558466536
118,5,23,Ticks_Phase_5,92,1,48,45,558977356
118,5,23,Ticks_Phase_5,93,5,42,127,558985544
118,5,23,Ticks_Phase_5,94,1,48,44,559457872
118,5,23,Ticks_Phase_5,95,5,42,127,559486356
118,5,23,Ticks_Phase_5,96,1,48,47,559965200
118,5,23,Ticks_Phase_5,97,5,42,127,559986116
118,5,23,Ticks_Phase_5,98,1,48,50,560469824
118,5,23,Ticks_Phase_5,99,5,42,127,560486176
118,5,23,Ticks_Phase_5,100,1,48,51,560959104
118,5,23,Ticks_Phase_5,101,5,42,127,560985492
118,5,23,Ticks_Phase_5,102,1,48,46,561462904
118,5,23,Ticks_Phase_5,103,5,42,127,561486152
118,5,23,Ticks_Phase_5,104,1,48,44,561972100
118,5,23,Ticks_Phase_5,105,5,42,127,561986140
118,5,23,Ticks_Phase_5,106,1,48,52,562456516
118,5,23,Ticks_Phase_5,107,5,42,127,562485532
118,5,23,Ticks_Phase_5,108,1,48,48,562931940
118,5,23,Ticks_Phase_5,109,5,42,127,562986340
118,5,23,Ticks_Phase_5,110,1,48,50,563471396
118,5,23,Ticks_Phase_5,111,5,42,127,563486104
118,5,23,Ticks_Phase_5,112,1,48,43,563968168
118,5,23,Ticks_Phase_5,113,5,42,127,563985940
118,5,23,Ticks_Phase_5,114,1,48,40,564460588
118,5,23,Ticks_Phase_5,115,5,42,127,564485480
118,5,23,Ticks_Phase_5,116,1,48,47,564963800
118,5,23,Ticks_Phase_5,117,5,42,127,564986216
118,5,23,Ticks_Phase_5,118,1,48,46,565452688
118,5,23,Ticks_Phase_5,119,5,42,127,565486124
118,5,23,Ticks_Phase_5,120,1,48,50,565966540
118,5,23,Ticks_Phase_5,121,5,42,127,565985592
118,5,23,Ticks_Phase_5,122,1,48,49,566457016
118,5,23,Ticks_Phase_5,123,5,42,127,566486400
118,5,23,Ticks_Phase_5,124,1,48,55,566950780
118,5,23,Ticks_Phase_5,125,5,42,127,567005484
118,5,23,Ticks_Phase_5,126,1,48,49,567449704
118,5,23,Ticks_Phase_5,127,5,42,127,567506368
118,5,23,Ticks_Phase_5,128,1,48,49,567962484
118,5,23,Ticks_Phase_5,129,5,42,127,568005908
118,5,23,Ticks_Phase_5,130,1,48,43,568472736
118,5,23,Ticks_Phase_5,131,5,42,127,568505672
118,5,23,Ticks_Phase_5,132,1,48,46,568979840
118,5,23,Ticks_Phase_5,133,5,42,127,569005284
118,5,23,Ticks_Phase_5,134,5,42,127,569506296
118,5,23,Ticks_Phase_5,135,1,48,44,569521044
118,5,23,Ticks_Phase_5,136,5,42,127,570005984
118,5,23,Ticks_Phase_5,137,1,48,48,570064404
118,5,23,Ticks_Phase_5,138,5,42,127,570505524
118,5,23,Ticks_Phase_5,139,1,48,40,570523852
118,5,23,Ticks_Phase_5,140,1,48,42,571002024
118,5,23,Ticks_Phase_5,141,5,42,127,571006252
118,5,23,Ticks_Phase_5,142,5,42,127,571506096
118,5,23,Ticks_Phase_5,143,1,48,40,571509892
118,5,23,Ticks_Phase_5,144,1,48,31,571992264
118,5,23,Ticks_Phase_5,145,5,42,127,572005852
118,5,23,Ticks_Phase_5,146,1,48,43,572472928
118,5,23,Ticks_Phase_5,147,5,42,127,572505540
118,5,23,Ticks_Phase_5,148,1,48,43,572993356
118,5,23,Ticks_Phase_5,149,5,42,127,573006200
118,5,23,Ticks_Phase_5,150,5,42,127,573505896
118,5,23,Ticks_Phase_5,151,1,48,46,573508564
118,5,23,Ticks_Phase_5,152,1,48,45,573997832
118,5,23,Ticks_Phase_5,153,5,42,127,574005872
118,5,23,Ticks_Phase_5,154,5,42,127,574506244
118,5,23,Ticks_Phase_5,155,1,48,45,574527040
118,5,23,Ticks_Phase_5,156,5,42,127,575006156
118,5,23,Ticks_Phase_5,157,1,48,50,575026580
118,5,23,Ticks_Phase_5,158,5,42,127,575486448
118,5,23,Ticks_Phase_5,159,1,48,40,575516236
118,5,23,Ticks_Phase_5,160,5,42,127,575985916
118,5,23,Ticks_Phase_5,161,1,48,50,576013456
118,5,23,Ticks_Phase_5,162,1,48,45,576461748
118,5,23,Ticks_Phase_5,163,5,42,127,576485748
118,5,23,Ticks_Phase_5,164,5,42,127,576985440
118,5,23,Ticks_Phase_5,165,1,48,46,577018588
118,5,23,Ticks_Phase_5,166,5,42,127,577486100
118,5,23,Ticks_Phase_5,167,1,48,48,577506148
118,5,23,Ticks_Phase_5,168,1,48,42,577984120
118,5,23,Ticks_Phase_5,169,5,42,127,577985856
118,5,23,Ticks_Phase_5,170,5,42,127,578485848
118,5,23,Ticks_Phase_5,171,1,48,47,578495716
118,5,23,Ticks_Phase_5,172,5,42,127,578986288
118,5,23,Ticks_Phase_5,173,1,48,43,578990156
118,5,23,Ticks_Phase_5,174,5,42,127,579486024
118,5,23,Ticks_Phase_5,175,1,48,46,579506996
118,5,23,Ticks_Phase_5,176,5,42,127,579985860
118,5,23,Ticks_Phase_5,177,1,48,47,579994376
118,5,23,Ticks_Phase_5,178,5,42,127,580485548
118,5,23,Ticks_Phase_5,179,1,48,48,580486816
118,5,23,Ticks_Phase_5,180,5,42,127,580986432
118,5,23,Ticks_Phase_5,181,1,48,44,581013824
118,5,23,Ticks_Phase_5,182,1,48,47,581478072
118,5,23,Ticks_Phase_5,183,5,42,127,581485888
118,5,23,Ticks_Phase_5,184,5,42,127,581985660
118,5,23,Ticks_Phase_5,185,1,48,48,581986704
118,5,23,Ticks_Phase_5,186,5,42,127,582486396
118,5,23,Ticks_Phase_5,187,1,48,50,582508460
118,5,23,Ticks_Phase_5,188,5,42,127,582986156
118,5,23,Ticks_Phase_5,189,1,48,51,583003440
118,5,23,Ticks_Phase_5,190,5,42,127,583435748
118,5,23,Ticks_Phase_5,191,1,48,50,583476764
118,5,23,Ticks_Phase_5,192,5,42,127,583936484
118,5,23,Ticks_Phase_5,193,1,48,46,583970008
118,5,23,Ticks_Phase_5,194,5,42,127,584435948
118,5,23,Ticks_Phase_5,195,1,48,46,584512976
118,5,23,Ticks_Phase_5,196,5,42,127,584935784
118,5,23,Ticks_Phase_5,197,1,48,45,584981812
118,5,23,Ticks_Phase_5,198,5,42,127,585435472
118,5,23,Ticks_Phase_5,199,1,48,54,585463372
118,5,23,Ticks_Phase_5,200,5,42,127,585936132
118,5,23,Ticks_Phase_5,201,1,48,45,585966288
118,5,23,Ticks_Phase_5,202,5,42,127,586435820
118,5,23,Ticks_Phase_5,203,1,48,50,586484028
118,5,23,Ticks_Phase_5,204,5,42,127,586935584
118,5,23,Ticks_Phase_5,205,1,48,54,586989704
118,5,23,Ticks_Phase_5,206,5,42,127,587436400
118,5,23,Ticks_Phase_5,207,1,48,53,587467376
118,5,23,Ticks_Phase_5,208,5,42,127,587936060
118,5,23,Ticks_Phase_5,209,1,48,47,587961568
118,5,23,Ticks_Phase_5,210,5,42,127,588435872
118,5,23,Ticks_Phase_5,211,1,48,50,588451220
118,5,23,Ticks_Phase_5,212,5,42,127,588935488
118,5,23,Ticks_Phase_5,213,1,48,48,588966564
118,5,23,Ticks_Phase_5,214,5,42,127,589436444
118,5,23,Ticks_Phase_5,215,1,48,46,589478532
118,5,23,Ticks_Phase_5,216,5,42,127,589935836
118,5,23,Ticks_Phase_5,217,1,48,52,589963896
118,5,23,Ticks_Phase_5,218,5,42,127,590435672
118,5,23,Ticks_Phase_5,219,1,48,53,590460504
118,5,23,Ticks_Phase_5,220,5,42,127,590936408
118,5,23,Ticks_Phase_5,221,1,48,46,590968508
118,5,23,Ticks_Phase_5,222,5,42,127,591446504
118,5,23,Ticks_Phase_5,223,1,48,51,591467824
118,5,23,Ticks_Phase_5,224,1,48,55,591989512
118,5,23,Ticks_Phase_5,225,5,42,127,591996508
118,5,23,Ticks_Phase_5,226,5,42,127,592496052
118,5,23,Ticks_Phase_5,227,1,48,48,592500516
118,5,23,Ticks_Phase_5,228,1,48,51,592971216
118,5,23,Ticks_Phase_5,229,5,42,127,592995736
118,5,23,Ticks_Phase_5,230,5,42,127,593496628
118,5,23,Ticks_Phase_5,231,1,48,49,593528880
118,5,23,Ticks_Phase_5,232,5,42,127,594006424
118,5,23,Ticks_Phase_5,233,1,48,51,594038080
118,5,23,Ticks_Phase_5,234,5,42,127,594506036
118,5,23,Ticks_Phase_5,235,1,48,50,594551840
118,5,23,Ticks_Phase_5,236,5,42,127,595005796
118,5,23,Ticks_Phase_5,237,1,48,50,595051824
118,5,23,Ticks_Phase_5,238,5,42,127,595505484
118,5,23,Ticks_Phase_5,239,1,48,51,595529716
118,5,23,Ticks_Phase_5,240,5,42,127,596006368
118,5,23,Ticks_Phase_5,241,1,48,48,596028208
118,5,23,Ticks_Phase_5,242,5,42,127,596505908
118,5,23,Ticks_Phase_5,243,1,48,49,596530296
118,5,23,Ticks_Phase_5,244,5,42,127,597005596
118,5,23,Ticks_Phase_5,245,1,48,48,597026612
118,5,23,Ticks_Phase_5,246,5,42,127,597506408
118,5,23,Ticks_Phase_5,247,1,48,48,597531164
118,5,23,Ticks_Phase_5,248,5,42,127,598016432
118,5,23,Ticks_Phase_5,249,1,48,54,598050404
118,5,23,Ticks_Phase_5,250,5,42,127,598516044
118,5,23,Ticks_Phase_5,251,1,48,52,598588812
118,5,23,Ticks_Phase_5,252,5,42,127,599015808
118,5,23,Ticks_Phase_5,253,1,48,50,599046640
118,5,23,Ticks_Phase_5,254,5,42,127,599515496
118,5,23,Ticks_Phase_5,255,1,48,54,599573424
118,5,23,Ticks_Phase_5,256,5,42,127,600016304
118,5,23,Ticks_Phase_5,257,1,48,55,600092584
118,5,23,Ticks_Phase_5,258,1,48,52,600580288
118,5,23,Ticks_Phase_5,259,5,42,127,600616412
118,5,23,Ticks_Phase_5,260,5,42,127,601116256
118,5,23,Ticks_Phase_5,261,1,48,49,601125972
118,5,23,Ticks_Phase_5,262,5,42,127,601615720
118,5,23,Ticks_Phase_5,263,1,48,46,601678452
118,5,23,Ticks_Phase_5,264,5,42,127,602115412
118,5,23,Ticks_Phase_5,265,1,48,50,602168484
118,5,23,Ticks_Phase_5,266,5,42,127,602616444
118,5,23,Ticks_Phase_5,267,1,48,51,602662996
118,5,23,Ticks_Phase_5,268,5,42,127,603115984
118,5,23,Ticks_Phase_5,269,1,48,47,603184108
118,5,23,Ticks_Phase_5,270,5,42,127,603615596
118,5,23,Ticks_Phase_5,271,1,48,54,603661548
118,5,23,Ticks_Phase_5,272,5,42,127,604116480
118,5,23,Ticks_Phase_5,273,1,48,49,604195168
118,5,23,Ticks_Phase_5,274,5,42,127,604616020
118,5,23,Ticks_Phase_5,275,1,48,51,604664976
118,5,23,Ticks_Phase_5,276,5,42,127,605115784
118,5,23,Ticks_Phase_5,277,1,48,53,605158672
118,5,23,Ticks_Phase_5,278,5,42,127,605615544
118,5,23,Ticks_Phase_5,279,1,48,54,605653852
118,5,23,Ticks_Phase_5,280,5,42,127,606116208
118,5,23,Ticks_Phase_5,281,1,48,52,606174820
118,5,23,Ticks_Phase_5,282,5,42,127,606615868
118,5,23,Ticks_Phase_5,283,1,48,48,606703476
118,5,23,Ticks_Phase_5,284,5,42,127,607115560
118,5,23,Ticks_Phase_5,285,1,48,48,607202572
118,5,23,Ticks_Phase_5,286,5,42,127,607616296
118,5,23,Ticks_Phase_5,287,1,48,57,607681440
118,5,23,Ticks_Phase_5,288,5,42,127,608116132
118,5,23,Ticks_Phase_5,289,1,48,51,608168032
118,5,23,Ticks_Phase_5,290,5,42,127,608615672
118,5,23,Ticks_Phase_5,291,1,48,53,608675060
118,5,23,Ticks_Phase_5,292,5,42,127,609115512
118,5,23,Ticks_Phase_5,293,1,48,56,609187328
118,5,23,Ticks_Phase_5,294,5,42,127,609616172
118,5,23,Ticks_Phase_5,295,1,48,59,609697200
118,5,23,Ticks_Phase_5,296,5,42,127,610015584
118,5,23,Ticks_Phase_5,297,1,48,54,610187652
118,5,23,Ticks_Phase_5,298,5,42,127,610516468
118,5,23,Ticks_Phase_5,299,1,48,51,610666220
118,5,23,Ticks_Phase_5,300,5,42,127,611016228
118,5,23,Ticks_Phase_5,301,1,48,44,611148084
118,5,23,Ticks_Phase_5,302,5,42,127,611515696
118,5,23,Ticks_Phase_5,303,1,48,35,611650388
118,5,23,Ticks_Phase_5,304,5,42,127,612015604
118,5,23,Ticks_Phase_5,305,1,48,32,612077964
118,5,23,Ticks_Phase_5,306,5,42,127,612516340
118,5,23,Ticks_Phase_5,307,1,48,40,612580868
118,5,23,Ticks_Phase_5,308,5,42,127,613016156
118,5,23,Ticks_Phase_5,309,1,48,42,613078540
118,5,23,Ticks_Phase_5,310,5,42,127,613515620
118,5,23,Ticks_Phase_5,311,1,48,45,613531092
118,5,23,Ticks_Phase_5,312,5,42,127,614016284
118,5,23,Ticks_Phase_5,313,1,48,47,614034536
118,5,23,Ticks_Phase_5,314,5,42,127,614516192
118,5,23,Ticks_Phase_5,315,1,48,54,614538264
118,5,23,Ticks_Phase_5,316,5,42,127,615015952
118,5,23,Ticks_Phase_5,317,1,48,52,615057644
118,5,23,Ticks_Phase_5,318,5,42,127,615515492
118,5,23,Ticks_Phase_5,319,1,48,46,615550884
118,5,23,Ticks_Phase_5,320,5,42,127,616016152
118,5,23,Ticks_Phase_5,321,1,48,48,616040836
118,5,23,Ticks_Phase_5,322,5,42,127,616516140
118,5,23,Ticks_Phase_5,323,1,48,51,616542620
118,5,23,Ticks_Phase_5,324,5,42,127,617015680
118,5,23,Ticks_Phase_5,325,1,48,49,617044416
118,5,23,Ticks_Phase_5,326,5,42,127,617516340
118,5,23,Ticks_Phase_5,327,1,48,56,617548292
118,5,23,Ticks_Phase_5,328,5,42,127,618016248
118,5,23,Ticks_Phase_5,329,1,48,56,618046032
118,5,23,Ticks_Phase_5,330,5,42,127,618516084
118,5,23,Ticks_Phase_5,331,1,48,52,618554488
118,5,23,Ticks_Phase_5,332,5,42,127,619015700
118,5,23,Ticks_Phase_5,333,1,48,55,619031848
118,5,23,Ticks_Phase_5,334,5,42,127,619516216
118,5,23,Ticks_Phase_5,0,9999,9999,9999,534963264
118,5,23,Ticks_Phase_5,1,9999,9999,9999,535464020
118,5,23,Ticks_Phase_5,2,9999,9999,9999,535963704
118,5,23,Ticks_Phase_5,3,9999,9999,9999,536463416
118,5,23,Ticks_Phase_5,4,9999,9999,9999,536963196
118,5,23,Ticks_Phase_5,5,9999,9999,9999,537463932
118,5,23,Ticks_Phase_5,6,9999,9999,9999,537963624
118,5,23,Ticks_Phase_5,7,9999,9999,9999,538463308
118,5,23,Ticks_Phase_5,8,9999,9999,9999,538964044
118,5,23,Ticks_Phase_5,9,9999,9999,9999,539463808
118,5,23,Ticks_Phase_5,10,9999,9999,9999,539963496
118,5,23,Ticks_Phase_5,11,9999,9999,9999,540463184
118,5,23,Ticks_Phase_5,12,9999,9999,9999,540963920
118,5,23,Ticks_Phase_5,13,9999,9999,9999,541463616
118,5,23,Ticks_Phase_5,14,9999,9999,9999,541963380
118,5,23,Ticks_Phase_5,15,9999,9999,9999,542464112
118,5,23,Ticks_Phase_5,16,9999,9999,9999,542974056
118,5,23,Ticks_Phase_5,17,9999,9999,9999,543473748
118,5,23,Ticks_Phase_5,18,9999,9999,9999,543973436
118,5,23,Ticks_Phase_5,19,9999,9999,9999,544473200
118,5,23,Ticks_Phase_5,20,9999,9999,9999,544973936
118,5,23,Ticks_Phase_5,21,9999,9999,9999,545473624
118,5,23,Ticks_Phase_5,22,9999,9999,9999,545973312
118,5,23,Ticks_Phase_5,23,9999,9999,9999,546474048
118,5,23,Ticks_Phase_5,24,9999,9999,9999,546973776
118,5,23,Ticks_Phase_5,25,9999,9999,9999,547473464
118,5,23,Ticks_Phase_5,26,9999,9999,9999,547973228
118,5,23,Ticks_Phase_5,27,9999,9999,9999,548473964
118,5,23,Ticks_Phase_5,28,9999,9999,9999,548973652
118,5,23,Ticks_Phase_5,29,9999,9999,9999,549473340
118,5,23,Ticks_Phase_5,30,9999,9999,9999,549963892
118,5,23,Ticks_Phase_5,31,9999,9999,9999,550463580
118,5,23,Ticks_Phase_5,32,9999,9999,9999,550963268
118,5,23,Ticks_Phase_5,33,9999,9999,9999,551464004
118,5,23,Ticks_Phase_5,34,9999,9999,9999,551963764
118,5,23,Ticks_Phase_5,35,9999,9999,9999,552463452
118,5,23,Ticks_Phase_5,36,9999,9999,9999,552963140
118,5,23,Ticks_Phase_5,37,9999,9999,9999,553463876
118,5,23,Ticks_Phase_5,38,9999,9999,9999,553963640
118,5,23,Ticks_Phase_5,39,9999,9999,9999,554463328
118,5,23,Ticks_Phase_5,40,9999,9999,9999,554964064
118,5,23,Ticks_Phase_5,41,9999,9999,9999,555463752
118,5,23,Ticks_Phase_5,42,9999,9999,9999,555963512
118,5,23,Ticks_Phase_5,43,9999,9999,9999,556463204
118,5,23,Ticks_Phase_5,44,9999,9999,9999,556963944
118,5,23,Ticks_Phase_5,45,9999,9999,9999,557463676
118,5,23,Ticks_Phase_5,46,9999,9999,9999,557963364
118,5,23,Ticks_Phase_5,47,9999,9999,9999,558464096
118,5,23,Ticks_Phase_5,48,9999,9999,9999,558983256
118,5,23,Ticks_Phase_5,49,9999,9999,9999,559483992
118,5,23,Ticks_Phase_5,50,9999,9999,9999,559983680
118,5,23,Ticks_Phase_5,51,9999,9999,9999,560483444
118,5,23,Ticks_Phase_5,52,9999,9999,9999,560983132
118,5,23,Ticks_Phase_5,53,9999,9999,9999,561483868
118,5,23,Ticks_Phase_5,54,9999,9999,9999,561983556
118,5,23,Ticks_Phase_5,55,9999,9999,9999,562483320
118,5,23,Ticks_Phase_5,56,9999,9999,9999,562984052
118,5,23,Ticks_Phase_5,57,9999,9999,9999,563483740
118,5,23,Ticks_Phase_5,58,9999,9999,9999,563983432
118,5,23,Ticks_Phase_5,59,9999,9999,9999,564483192
118,5,23,Ticks_Phase_5,60,9999,9999,9999,564983928
118,5,23,Ticks_Phase_5,61,9999,9999,9999,565483616
118,5,23,Ticks_Phase_5,62,9999,9999,9999,565983304
118,5,23,Ticks_Phase_5,63,9999,9999,9999,566484036
118,5,23,Ticks_Phase_5,64,9999,9999,9999,567003196
118,5,23,Ticks_Phase_5,65,9999,9999,9999,567503932
118,5,23,Ticks_Phase_5,66,9999,9999,9999,568003696
118,5,23,Ticks_Phase_5,67,9999,9999,9999,568503384
118,5,23,Ticks_Phase_5,68,9999,9999,9999,569003072
118,5,23,Ticks_Phase_5,69,9999,9999,9999,569503860
118,5,23,Ticks_Phase_5,70,9999,9999,9999,570003548
118,5,23,Ticks_Phase_5,71,9999,9999,9999,570503236
118,5,23,Ticks_Phase_5,72,9999,9999,9999,571003964
118,5,23,Ticks_Phase_5,73,9999,9999,9999,571503732
118,5,23,Ticks_Phase_5,74,9999,9999,9999,572003416
118,5,23,Ticks_Phase_5,75,9999,9999,9999,572503104
118,5,23,Ticks_Phase_5,76,9999,9999,9999,573003840
118,5,23,Ticks_Phase_5,77,9999,9999,9999,573503608
118,5,23,Ticks_Phase_5,78,9999,9999,9999,574003288
118,5,23,Ticks_Phase_5,79,9999,9999,9999,574504032
118,5,23,Ticks_Phase_5,80,9999,9999,9999,575003720
118,5,23,Ticks_Phase_5,81,9999,9999,9999,575484012
118,5,23,Ticks_Phase_5,82,9999,9999,9999,575983704
118,5,23,Ticks_Phase_5,83,9999,9999,9999,576483384
118,5,23,Ticks_Phase_5,84,9999,9999,9999,576983156
118,5,23,Ticks_Phase_5,85,9999,9999,9999,577483888
118,5,23,Ticks_Phase_5,86,9999,9999,9999,577983596
118,5,23,Ticks_Phase_5,87,9999,9999,9999,578483264
118,5,23,Ticks_Phase_5,88,9999,9999,9999,578984000
118,5,23,Ticks_Phase_5,89,9999,9999,9999,579483740
118,5,23,Ticks_Phase_5,90,9999,9999,9999,579983424
118,5,23,Ticks_Phase_5,91,9999,9999,9999,580483188
118,5,23,Ticks_Phase_5,92,9999,9999,9999,580983924
118,5,23,Ticks_Phase_5,93,9999,9999,9999,581483604
118,5,23,Ticks_Phase_5,94,9999,9999,9999,581983300
118,5,23,Ticks_Phase_5,95,9999,9999,9999,582484032
118,5,23,Ticks_Phase_5,96,9999,9999,9999,582983796
118,5,23,Ticks_Phase_5,97,9999,9999,9999,583433312
118,5,23,Ticks_Phase_5,98,9999,9999,9999,583934048
118,5,23,Ticks_Phase_5,99,9999,9999,9999,584433736
118,5,23,Ticks_Phase_5,100,9999,9999,9999,584933500
118,5,23,Ticks_Phase_5,101,9999,9999,9999,585433184
118,5,23,Ticks_Phase_5,102,9999,9999,9999,585933920
118,5,23,Ticks_Phase_5,103,9999,9999,9999,586433608
118,5,23,Ticks_Phase_5,104,9999,9999,9999,586933372
118,5,23,Ticks_Phase_5,105,9999,9999,9999,587434108
118,5,23,Ticks_Phase_5,106,9999,9999,9999,587933772
118,5,23,Ticks_Phase_5,107,9999,9999,9999,588433508
118,5,23,Ticks_Phase_5,108,9999,9999,9999,588933200
118,5,23,Ticks_Phase_5,109,9999,9999,9999,589433932
118,5,23,Ticks_Phase_5,110,9999,9999,9999,589933624
118,5,23,Ticks_Phase_5,111,9999,9999,9999,590433384
118,5,23,Ticks_Phase_5,112,9999,9999,9999,590934120
118,5,23,Ticks_Phase_5,113,9999,9999,9999,591444064
118,5,23,Ticks_Phase_5,114,9999,9999,9999,591993920
118,5,23,Ticks_Phase_5,115,9999,9999,9999,592493692
118,5,23,Ticks_Phase_5,116,9999,9999,9999,592993376
118,5,23,Ticks_Phase_5,117,9999,9999,9999,593494116
118,5,23,Ticks_Phase_5,118,9999,9999,9999,594004060
118,5,23,Ticks_Phase_5,119,9999,9999,9999,594503748
118,5,23,Ticks_Phase_5,120,9999,9999,9999,595003512
118,5,23,Ticks_Phase_5,121,9999,9999,9999,595503196
118,5,23,Ticks_Phase_5,122,9999,9999,9999,596003932
118,5,23,Ticks_Phase_5,123,9999,9999,9999,596503620
118,5,23,Ticks_Phase_5,124,9999,9999,9999,597003384
118,5,23,Ticks_Phase_5,125,9999,9999,9999,597504120
118,5,23,Ticks_Phase_5,126,9999,9999,9999,598014068
118,5,23,Ticks_Phase_5,127,9999,9999,9999,598513756
118,5,23,Ticks_Phase_5,128,9999,9999,9999,599013444
118,5,23,Ticks_Phase_5,129,9999,9999,9999,599513208
118,5,23,Ticks_Phase_5,130,9999,9999,9999,600013944
118,5,23,Ticks_Phase_5,131,9999,9999,9999,600613976
118,5,23,Ticks_Phase_5,132,9999,9999,9999,601113672
118,5,23,Ticks_Phase_5,133,9999,9999,9999,601613436
118,5,23,Ticks_Phase_5,134,9999,9999,9999,602113124
118,5,23,Ticks_Phase_5,135,9999,9999,9999,602613860
118,5,23,Ticks_Phase_5,136,9999,9999,9999,603113548
118,5,23,Ticks_Phase_5,137,9999,9999,9999,603613312
118,5,23,Ticks_Phase_5,138,9999,9999,9999,604114044
118,5,23,Ticks_Phase_5,139,9999,9999,9999,604613732
118,5,23,Ticks_Phase_5,140,9999,9999,9999,605113424
118,5,23,Ticks_Phase_5,141,9999,9999,9999,605613108
118,5,23,Ticks_Phase_5,142,9999,9999,9999,606113920
118,5,23,Ticks_Phase_5,143,9999,9999,9999,606613584
118,5,23,Ticks_Phase_5,144,9999,9999,9999,607113268
118,5,23,Ticks_Phase_5,145,9999,9999,9999,607614008
118,5,23,Ticks_Phase_5,146,9999,9999,9999,608113768
118,5,23,Ticks_Phase_5,147,9999,9999,9999,608613460
118,5,23,Ticks_Phase_5,148,9999,9999,9999,609113148
118,5,23,Ticks_Phase_5,149,9999,9999,9999,609613884
118,5,23,Ticks_Phase_5,150,9999,9999,9999,610013296
118,5,23,Ticks_Phase_5,151,9999,9999,9999,610514032
118,5,23,Ticks_Phase_5,152,9999,9999,9999,611013720
118,5,23,Ticks_Phase_5,153,9999,9999,9999,611513408
118,5,23,Ticks_Phase_5,154,9999,9999,9999,612013168
118,5,23,Ticks_Phase_5,155,9999,9999,9999,612513904
118,5,23,Ticks_Phase_5,156,9999,9999,9999,613013572
118,5,23,Ticks_Phase_5,157,9999,9999,9999,613513332
118,5,23,Ticks_Phase_5,158,9999,9999,9999,614014068
118,5,23,Ticks_Phase_5,159,9999,9999,9999,614513756
118,5,23,Ticks_Phase_5,160,9999,9999,9999,615013444
118,5,23,Ticks_Phase_5,161,9999,9999,9999,615513208
118,5,23,Ticks_Phase_5,162,9999,9999,9999,616013940
118,5,23,Ticks_Phase_5,163,9999,9999,9999,616513628
118,5,23,Ticks_Phase_5,164,9999,9999,9999,617013320
118,5,23,Ticks_Phase_5,165,9999,9999,9999,617514052
118,5,23,Ticks_Phase_5,166,9999,9999,9999,618013816
118,5,23,Ticks_Phase_5,167,9999,9999,9999,618513500
118,5,23,Ticks_Phase_5,168,9999,9999,9999,619013192
118,5,23,Ticks_Phase_5,169,9999,9999,9999,619513928
118,6,22,Ticks_Phase_8,0,5,42,127,630711752
118,6,22,Ticks_Phase_8,1,5,42,127,631512680
118,6,22,Ticks_Phase_8,2,5,42,127,632322524
118,6,22,Ticks_Phase_8,3,5,42,127,633132368
118,6,22,Ticks_Phase_8,4,1,48,58,633902032
118,6,22,Ticks_Phase_8,5,5,42,127,633932168
118,6,22,Ticks_Phase_8,6,1,48,42,634689844
118,6,22,Ticks_Phase_8,7,5,42,127,634731880
118,6,22,Ticks_Phase_8,8,1,48,55,635523992
118,6,22,Ticks_Phase_8,9,5,42,127,635531740
118,6,22,Ticks_Phase_8,10,5,42,127,636332456
118,6,22,Ticks_Phase_8,11,1,48,54,636339332
118,6,22,Ticks_Phase_8,12,5,42,127,637132092
118,6,22,Ticks_Phase_8,13,1,48,57,637162624
118,6,22,Ticks_Phase_8,14,5,42,127,637931952
118,6,22,Ticks_Phase_8,15,1,48,53,637946228
118,6,22,Ticks_Phase_8,16,5,42,127,638731596
118,6,22,Ticks_Phase_8,17,1,48,57,638748260
118,6,22,Ticks_Phase_8,18,5,42,127,639532648
118,6,22,Ticks_Phase_8,19,1,48,52,639540420
118,6,22,Ticks_Phase_8,20,1,48,49,640322820
118,6,22,Ticks_Phase_8,21,5,42,127,640332204
118,6,22,Ticks_Phase_8,22,1,48,47,641130264
118,6,22,Ticks_Phase_8,23,5,42,127,641131844
118,6,22,Ticks_Phase_8,24,1,48,38,641910264
118,6,22,Ticks_Phase_8,25,5,42,127,641931632
118,6,22,Ticks_Phase_8,26,1,48,50,642698880
118,6,22,Ticks_Phase_8,27,5,42,127,642732560
118,6,22,Ticks_Phase_8,28,1,48,51,643513524
118,6,22,Ticks_Phase_8,29,5,42,127,643532272
118,6,22,Ticks_Phase_8,30,1,48,48,644329556
118,6,22,Ticks_Phase_8,31,5,42,127,644332060
118,6,22,Ticks_Phase_8,32,5,42,127,645131560
118,6,22,Ticks_Phase_8,33,1,48,52,645167476
118,6,22,Ticks_Phase_8,34,1,48,50,645909060
118,6,22,Ticks_Phase_8,35,5,42,127,645932532
118,6,22,Ticks_Phase_8,36,5,42,127,646732100
118,6,22,Ticks_Phase_8,37,1,48,44,646763828
118,6,22,Ticks_Phase_8,38,5,42,127,647531812
118,6,22,Ticks_Phase_8,39,1,48,54,647533224
118,6,22,Ticks_Phase_8,40,1,48,53,648294716
118,6,22,Ticks_Phase_8,41,5,42,127,648331516
118,6,22,Ticks_Phase_8,42,5,42,127,649132456
118,6,22,Ticks_Phase_8,43,1,48,47,649186800
118,6,22,Ticks_Phase_8,44,1,48,46,649912964
118,6,22,Ticks_Phase_8,45,5,42,127,649932532
118,6,22,Ticks_Phase_8,46,5,42,127,650731808
118,6,22,Ticks_Phase_8,47,1,48,54,650749596
118,6,22,Ticks_Phase_8,48,5,42,127,651531592
118,6,22,Ticks_Phase_8,49,1,48,51,651551336
118,6,22,Ticks_Phase_8,50,1,48,57,652295244
118,6,22,Ticks_Phase_8,51,5,42,127,652332344
118,6,22,Ticks_Phase_8,52,5,42,127,653132432
118,6,22,Ticks_Phase_8,53,1,48,53,653138916
118,6,22,Ticks_Phase_8,54,5,42,127,653931996
118,6,22,Ticks_Phase_8,55,1,48,56,653974356
118,6,22,Ticks_Phase_8,56,5,42,127,654712240
118,6,22,Ticks_Phase_8,57,1,48,47,654750336
118,6,22,Ticks_Phase_8,58,5,42,127,655511852
118,6,22,Ticks_Phase_8,59,1,48,50,655570564
118,6,22,Ticks_Phase_8,60,5,42,127,656311588
118,6,22,Ticks_Phase_8,61,1,48,52,656336496
118,6,22,Ticks_Phase_8,62,5,42,127,657112420
118,6,22,Ticks_Phase_8,63,1,48,52,657168636
118,6,22,Ticks_Phase_8,64,1,48,53,657917484
118,6,22,Ticks_Phase_8,65,5,42,127,657922312
118,6,22,Ticks_Phase_8,66,5,42,127,658732288
118,6,22,Ticks_Phase_8,67,1,48,52,658745888
118,6,22,Ticks_Phase_8,68,5,42,127,659532148
118,6,22,Ticks_Phase_8,69,1,48,48,659578844
118,6,22,Ticks_Phase_8,70,5,42,127,660332160
118,6,22,Ticks_Phase_8,71,1,48,54,660356992
118,6,22,Ticks_Phase_8,72,5,42,127,661131572
118,6,22,Ticks_Phase_8,73,1,48,45,661146896
118,6,22,Ticks_Phase_8,74,5,42,127,661932504
118,6,22,Ticks_Phase_8,75,1,48,37,661976436
118,6,22,Ticks_Phase_8,76,1,48,49,662688216
118,6,22,Ticks_Phase_8,77,5,42,127,662732060
118,6,22,Ticks_Phase_8,78,1,48,44,663507324
118,6,22,Ticks_Phase_8,79,5,42,127,663531992
118,6,22,Ticks_Phase_8,80,1,48,47,664314452
118,6,22,Ticks_Phase_8,81,5,42,127,664331632
118,6,22,Ticks_Phase_8,82,1,48,49,665071328
118,6,22,Ticks_Phase_8,83,5,42,127,665132316
118,6,22,Ticks_Phase_8,84,1,48,36,665841984
118,6,22,Ticks_Phase_8,85,5,42,127,665932248
118,6,22,Ticks_Phase_8,86,5,42,127,666731820
118,6,22,Ticks_Phase_8,87,1,48,41,666769992
118,6,22,Ticks_Phase_8,88,5,42,127,667531604
118,6,22,Ticks_Phase_8,89,1,48,37,667610092
118,6,22,Ticks_Phase_8,90,5,42,127,668332540
118,6,22,Ticks_Phase_8,91,1,48,35,668399848
118,6,22,Ticks_Phase_8,92,5,42,127,669151576
118,6,22,Ticks_Phase_8,93,1,48,41,669168096
118,6,22,Ticks_Phase_8,94,1,48,43,669921376
118,6,22,Ticks_Phase_8,95,5,42,127,669952400
118,6,22,Ticks_Phase_8,96,5,42,127,670752044
118,6,22,Ticks_Phase_8,97,1,48,37,670853268
118,6,22,Ticks_Phase_8,98,1,48,48,671490988
118,6,22,Ticks_Phase_8,99,5,42,127,671551824
118,6,22,Ticks_Phase_8,100,5,42,127,672351912
118,6,22,Ticks_Phase_8,101,1,48,42,672395920
118,6,22,Ticks_Phase_8,102,5,42,127,673152224
118,6,22,Ticks_Phase_8,103,1,48,51,673217444
118,6,22,Ticks_Phase_8,104,5,42,127,673952036
118,6,22,Ticks_Phase_8,105,1,48,51,673995736
118,6,22,Ticks_Phase_8,106,5,42,127,674751748
118,6,22,Ticks_Phase_8,107,1,48,49,674801076
118,6,22,Ticks_Phase_8,108,5,42,127,675551532
118,6,22,Ticks_Phase_8,109,1,48,54,675578388
118,6,22,Ticks_Phase_8,110,5,42,127,676352368
118,6,22,Ticks_Phase_8,111,1,48,55,676386708
118,6,22,Ticks_Phase_8,112,5,42,127,677152080
118,6,22,Ticks_Phase_8,113,1,48,45,677173168
118,6,22,Ticks_Phase_8,114,1,48,57,677946204
118,6,22,Ticks_Phase_8,115,5,42,127,677951784
118,6,22,Ticks_Phase_8,116,5,42,127,678751648
118,6,22,Ticks_Phase_8,117,1,48,44,678755212
118,6,22,Ticks_Phase_8,118,5,42,127,679552332
118,6,22,Ticks_Phase_8,119,1,48,45,679600040
118,6,22,Ticks_Phase_8,120,5,42,127,680352144
118,6,22,Ticks_Phase_8,121,1,48,48,680381780
118,6,22,Ticks_Phase_8,122,1,48,19,680470272
118,6,22,Ticks_Phase_8,123,5,42,127,681151908
118,6,22,Ticks_Phase_8,124,1,48,47,681198984
118,6,22,Ticks_Phase_8,125,5,42,127,681991684
118,6,22,Ticks_Phase_8,126,1,48,55,682020720
118,6,22,Ticks_Phase_8,127,5,42,127,682792444
118,6,22,Ticks_Phase_8,128,1,48,51,682860576
118,6,22,Ticks_Phase_8,129,5,42,127,683592080
118,6,22,Ticks_Phase_8,130,1,48,51,683642380
118,6,22,Ticks_Phase_8,131,5,42,127,684391716
118,6,22,Ticks_Phase_8,132,1,48,50,684434452
118,6,22,Ticks_Phase_8,133,5,42,127,685191724
118,6,22,Ticks_Phase_8,134,1,48,42,685249156
118,6,22,Ticks_Phase_8,135,5,42,127,685992432
118,6,22,Ticks_Phase_8,136,1,48,46,686073660
118,6,22,Ticks_Phase_8,137,5,42,127,686791996
118,6,22,Ticks_Phase_8,138,1,48,51,686857492
118,6,22,Ticks_Phase_8,139,5,42,127,687591780
118,6,22,Ticks_Phase_8,140,1,48,45,687634064
118,6,22,Ticks_Phase_8,141,5,42,127,688391568
118,6,22,Ticks_Phase_8,142,1,48,51,688434452
118,6,22,Ticks_Phase_8,143,5,42,127,689192176
118,6,22,Ticks_Phase_8,144,1,48,47,689207352
118,6,22,Ticks_Phase_8,145,5,42,127,689992036
118,6,22,Ticks_Phase_8,146,1,48,50,690006240
118,6,22,Ticks_Phase_8,147,5,42,127,690791748
118,6,22,Ticks_Phase_8,148,1,48,54,690798080
118,6,22,Ticks_Phase_8,149,5,42,127,691591532
118,6,22,Ticks_Phase_8,150,1,48,49,691625600
118,6,22,Ticks_Phase_8,151,5,42,127,692392540
118,6,22,Ticks_Phase_8,152,1,48,46,692433180
118,6,22,Ticks_Phase_8,153,5,42,127,693191952
118,6,22,Ticks_Phase_8,154,1,48,51,693220468
118,6,22,Ticks_Phase_8,155,5,42,127,693991740
118,6,22,Ticks_Phase_8,156,1,48,54,694037916
118,6,22,Ticks_Phase_8,157,5,42,127,694791600
118,6,22,Ticks_Phase_8,158,1,48,51,694846088
118,6,22,Ticks_Phase_8,159,5,42,127,695552368
118,6,22,Ticks_Phase_8,160,1,48,52,695646552
118,6,22,Ticks_Phase_8,161,5,42,127,696352156
118,6,22,Ticks_Phase_8,162,1,48,46,696375348
118,6,22,Ticks_Phase_8,163,5,42,127,697151792
118,6,22,Ticks_Phase_8,164,1,48,51,697153132
118,6,22,Ticks_Phase_8,165,5,42,127,697951728
118,6,22,Ticks_Phase_8,166,1,48,50,697998580
118,6,22,Ticks_Phase_8,167,1,48,46,698735596
118,6,22,Ticks_Phase_8,168,5,42,127,698752404
118,6,22,Ticks_Phase_8,169,5,42,127,699552224
118,6,22,Ticks_Phase_8,170,1,48,54,699610912
118,6,22,Ticks_Phase_8,171,5,42,127,700351784
118,6,22,Ticks_Phase_8,172,1,48,44,700411152
118,6,22,Ticks_Phase_8,173,5,42,127,701151720
118,6,22,Ticks_Phase_8,174,1,48,49,701197296
118,6,22,Ticks_Phase_8,175,1,48,21,701291416
118,6,22,Ticks_Phase_8,176,5,42,127,701952308
118,6,22,Ticks_Phase_8,177,1,48,47,702002236
118,6,22,Ticks_Phase_8,178,5,42,127,702752168
118,6,22,Ticks_Phase_8,179,1,48,49,702878272
118,6,22,Ticks_Phase_8,180,5,42,127,703551956
118,6,22,Ticks_Phase_8,181,1,48,45,703655596
118,6,22,Ticks_Phase_8,182,5,42,127,704351592
118,6,22,Ticks_Phase_8,183,1,48,46,704401292
118,6,22,Ticks_Phase_8,184,5,42,127,705152348
118,6,22,Ticks_Phase_8,185,1,48,46,705161244
118,6,22,Ticks_Phase_8,186,5,42,127,705952236
118,6,22,Ticks_Phase_8,187,1,48,49,705978644
118,6,22,Ticks_Phase_8,188,5,42,127,706751872
118,6,22,Ticks_Phase_8,189,1,48,39,706766668
118,6,22,Ticks_Phase_8,190,5,42,127,707551584
118,6,22,Ticks_Phase_8,191,1,48,46,707566008
118,6,22,Ticks_Phase_8,192,5,42,127,708271468
118,6,22,Ticks_Phase_8,193,1,48,45,708349320
118,6,22,Ticks_Phase_8,194,5,42,127,709072152
118,6,22,Ticks_Phase_8,195,1,48,48,709144092
118,6,22,Ticks_Phase_8,196,5,42,127,709872160
118,6,22,Ticks_Phase_8,197,1,48,38,709880980
118,6,22,Ticks_Phase_8,198,1,48,42,710652520
118,6,22,Ticks_Phase_8,199,5,42,127,710671716
118,6,22,Ticks_Phase_8,200,1,48,44,711444812
118,6,22,Ticks_Phase_8,201,5,42,127,711471428
118,6,22,Ticks_Phase_8,202,1,48,39,712252236
118,6,22,Ticks_Phase_8,203,5,42,127,712272112
118,6,22,Ticks_Phase_8,204,1,48,42,713059204
118,6,22,Ticks_Phase_8,205,5,42,127,713072196
118,6,22,Ticks_Phase_8,206,1,48,48,713839760
118,6,22,Ticks_Phase_8,207,5,42,127,713871684
118,6,22,Ticks_Phase_8,208,1,48,33,714665176
118,6,22,Ticks_Phase_8,209,5,42,127,714671420
118,6,22,Ticks_Phase_8,210,1,48,45,715462192
118,6,22,Ticks_Phase_8,211,5,42,127,715472180
118,6,22,Ticks_Phase_8,212,1,48,41,716259048
118,6,22,Ticks_Phase_8,213,5,42,127,716272188
118,6,22,Ticks_Phase_8,214,1,48,44,717062960
118,6,22,Ticks_Phase_8,215,5,42,127,717071900
118,6,22,Ticks_Phase_8,216,1,48,35,717838100
118,6,22,Ticks_Phase_8,217,5,42,127,717871388
118,6,22,Ticks_Phase_8,218,1,48,45,718646432
118,6,22,Ticks_Phase_8,219,5,42,127,718672296
118,6,22,Ticks_Phase_8,220,1,48,41,719440156
118,6,22,Ticks_Phase_8,221,5,42,127,719471932
118,6,22,Ticks_Phase_8,222,1,48,30,720240916
118,6,22,Ticks_Phase_8,223,5,42,127,720271868
118,6,22,Ticks_Phase_8,224,1,48,42,721050664
118,6,22,Ticks_Phase_8,225,5,42,127,721071580
118,6,22,Ticks_Phase_8,226,1,48,37,721842056
118,6,22,Ticks_Phase_8,227,5,42,127,721952080
118,6,22,Ticks_Phase_8,228,1,48,40,722718300
118,6,22,Ticks_Phase_8,229,5,42,127,722752104
118,6,22,Ticks_Phase_8,230,5,42,127,723551528
118,6,22,Ticks_Phase_8,231,1,48,30,723596508
118,6,22,Ticks_Phase_8,232,5,42,127,724352284
118,6,22,Ticks_Phase_8,233,1,48,47,724422008
118,6,22,Ticks_Phase_8,234,5,42,127,725152020
118,6,22,Ticks_Phase_8,235,1,48,43,725188532
118,6,22,Ticks_Phase_8,236,5,42,127,725952032
118,6,22,Ticks_Phase_8,237,1,48,45,725957920
118,6,22,Ticks_Phase_8,238,1,48,40,726729236
118,6,22,Ticks_Phase_8,239,5,42,127,726751660
118,6,22,Ticks_Phase_8,240,1,48,41,727527676
118,6,22,Ticks_Phase_8,241,5,42,127,727552344
118,6,22,Ticks_Phase_8,242,1,48,48,728322152
118,6,22,Ticks_Phase_8,243,5,42,127,728351980
118,6,22,Ticks_Phase_8,244,1,48,43,729102164
118,6,22,Ticks_Phase_8,245,5,42,127,729151916
118,6,22,Ticks_Phase_8,246,5,42,127,729951784
118,6,22,Ticks_Phase_8,247,1,48,48,729955356
118,6,22,Ticks_Phase_8,248,5,42,127,730752244
118,6,22,Ticks_Phase_8,249,1,48,43,730756860
118,6,22,Ticks_Phase_8,250,5,42,127,731551980
118,6,22,Ticks_Phase_8,251,1,48,46,732339404
118,6,22,Ticks_Phase_8,252,5,42,127,732351780
118,6,22,Ticks_Phase_8,253,5,42,127,733151796
118,6,22,Ticks_Phase_8,254,1,48,42,733162784
118,6,22,Ticks_Phase_8,255,1,48,46,733931560
118,6,22,Ticks_Phase_8,256,5,42,127,733952252
118,6,22,Ticks_Phase_8,257,1,48,40,734725792
118,6,22,Ticks_Phase_8,258,5,42,127,734751964
118,6,22,Ticks_Phase_8,259,1,48,41,735533076
118,6,22,Ticks_Phase_8,260,5,42,127,735711940
118,6,22,Ticks_Phase_8,261,1,48,46,736438324
118,6,22,Ticks_Phase_8,262,5,42,127,736512268
118,6,22,Ticks_Phase_8,263,5,42,127,737311988
118,6,22,Ticks_Phase_8,264,1,48,45,737318844
118,6,22,Ticks_Phase_8,265,5,42,127,738111852
118,6,22,Ticks_Phase_8,266,1,48,48,738135036
118,6,22,Ticks_Phase_8,267,5,42,127,738911860
118,6,22,Ticks_Phase_8,268,1,48,43,738951976
118,6,22,Ticks_Phase_8,269,5,42,127,739712468
118,6,22,Ticks_Phase_8,270,1,48,48,739724124
118,6,22,Ticks_Phase_8,271,1,48,41,740497164
118,6,22,Ticks_Phase_8,272,5,42,127,740512052
118,6,22,Ticks_Phase_8,273,1,48,47,741290012
118,6,22,Ticks_Phase_8,274,5,42,127,741311836
118,6,22,Ticks_Phase_8,275,1,48,48,742087776
118,6,22,Ticks_Phase_8,276,5,42,127,742111848
118,6,22,Ticks_Phase_8,277,1,48,40,742872220
118,6,22,Ticks_Phase_8,278,5,42,127,742912456
118,6,22,Ticks_Phase_8,279,1,48,41,743709740
118,6,22,Ticks_Phase_8,280,5,42,127,743712168
118,6,22,Ticks_Phase_8,281,5,42,127,744511812
118,6,22,Ticks_Phase_8,282,1,48,45,744520552
118,6,22,Ticks_Phase_8,283,1,48,44,745296652
118,6,22,Ticks_Phase_8,284,5,42,127,745311592
118,6,22,Ticks_Phase_8,285,1,48,52,746109100
118,6,22,Ticks_Phase_8,286,5,42,127,746112428
118,6,22,Ticks_Phase_8,287,5,42,127,746912248
118,6,22,Ticks_Phase_8,288,5,42,127,747711756
118,6,22,Ticks_Phase_8,289,1,48,47,747748944
118,6,22,Ticks_Phase_8,290,5,42,127,748511544
118,6,22,Ticks_Phase_8,291,1,48,43,748566108
118,6,22,Ticks_Phase_8,292,5,42,127,749312676
118,6,22,Ticks_Phase_8,293,1,48,47,749375256
118,6,22,Ticks_Phase_8,294,5,42,127,750112164
118,6,22,Ticks_Phase_8,295,1,48,55,750231668
118,6,22,Ticks_Phase_8,296,5,42,127,750752068
118,6,22,Ticks_Phase_8,297,1,48,40,751013128
118,6,22,Ticks_Phase_8,298,1,48,41,751550492
118,6,22,Ticks_Phase_8,299,5,42,127,751551996
118,6,22,Ticks_Phase_8,300,5,42,127,752351712
118,6,22,Ticks_Phase_8,301,1,48,39,752392432
118,6,22,Ticks_Phase_8,302,5,42,127,753152548
118,6,22,Ticks_Phase_8,303,1,48,44,753220080
118,6,22,Ticks_Phase_8,304,5,42,127,753952108
118,6,22,Ticks_Phase_8,305,1,48,45,754025920
118,6,22,Ticks_Phase_8,306,5,42,127,754751748
118,6,22,Ticks_Phase_8,307,1,48,48,754823316
118,6,22,Ticks_Phase_8,308,5,42,127,755551532
118,6,22,Ticks_Phase_8,309,1,48,49,755602056
118,6,22,Ticks_Phase_8,310,5,42,127,756352364
118,6,22,Ticks_Phase_8,311,1,48,54,756407248
118,6,22,Ticks_Phase_8,312,5,42,127,757152472
118,6,22,Ticks_Phase_8,313,1,48,44,757247776
118,6,22,Ticks_Phase_8,314,5,42,127,757952032
118,6,22,Ticks_Phase_8,315,1,48,51,757976348
118,6,22,Ticks_Phase_8,316,5,42,127,758751600
118,6,22,Ticks_Phase_8,317,1,48,47,758773588
118,6,22,Ticks_Phase_8,318,5,42,127,759552356
118,6,22,Ticks_Phase_8,319,1,48,51,759568428
118,6,22,Ticks_Phase_8,320,5,42,127,760352216
118,6,22,Ticks_Phase_8,321,1,48,47,760370320
118,6,22,Ticks_Phase_8,322,5,42,127,761151780
118,6,22,Ticks_Phase_8,323,1,48,51,761166128
118,6,22,Ticks_Phase_8,324,5,42,127,761951564
118,6,22,Ticks_Phase_8,325,1,48,50,761960152
118,6,22,Ticks_Phase_8,326,1,48,50,762739100
118,6,22,Ticks_Phase_8,327,5,42,127,762752316
118,6,22,Ticks_Phase_8,328,5,42,127,763552280
118,6,22,Ticks_Phase_8,329,1,48,44,763566028
118,6,22,Ticks_Phase_8,330,1,48,41,764352140
118,6,22,Ticks_Phase_8,331,5,42,127,764353480
118,6,22,Ticks_Phase_8,332,5,42,127,765151480
118,6,22,Ticks_Phase_8,333,1,48,50,765169420
118,6,22,Ticks_Phase_8,334,1,48,57,765923744
118,6,22,Ticks_Phase_8,335,5,42,127,765952456
118,6,22,Ticks_Phase_8,0,9999,9999,9999,630709312
118,6,22,Ticks_Phase_8,1,9999,9999,9999,631510096
118,6,22,Ticks_Phase_8,2,9999,9999,9999,632320088
118,6,22,Ticks_Phase_8,3,9999,9999,9999,633130080
118,6,22,Ticks_Phase_8,4,9999,9999,9999,633929804
118,6,22,Ticks_Phase_8,5,9999,9999,9999,634729592
118,6,22,Ticks_Phase_8,6,9999,9999,9999,635529304
118,6,22,Ticks_Phase_8,7,9999,9999,9999,636330096
118,6,22,Ticks_Phase_8,8,9999,9999,9999,637129808
118,6,22,Ticks_Phase_8,9,9999,9999,9999,637929592
118,6,22,Ticks_Phase_8,10,9999,9999,9999,638729308
118,6,22,Ticks_Phase_8,11,9999,9999,9999,639530064
118,6,22,Ticks_Phase_8,12,9999,9999,9999,640329844
118,6,22,Ticks_Phase_8,13,9999,9999,9999,641129572
118,6,22,Ticks_Phase_8,14,9999,9999,9999,641929268
118,6,22,Ticks_Phase_8,15,9999,9999,9999,642730052
118,6,22,Ticks_Phase_8,16,9999,9999,9999,643529840
118,6,22,Ticks_Phase_8,17,9999,9999,9999,644329624
118,6,22,Ticks_Phase_8,18,9999,9999,9999,645129272
118,6,22,Ticks_Phase_8,19,9999,9999,9999,645930096
118,6,22,Ticks_Phase_8,20,9999,9999,9999,646729816
118,6,22,Ticks_Phase_8,21,9999,9999,9999,647529524
118,6,22,Ticks_Phase_8,22,9999,9999,9999,648329304
118,6,22,Ticks_Phase_8,23,9999,9999,9999,649130096
118,6,22,Ticks_Phase_8,24,9999,9999,9999,649929800
118,6,22,Ticks_Phase_8,25,9999,9999,9999,650729592
118,6,22,Ticks_Phase_8,26,9999,9999,9999,651529304
118,6,22,Ticks_Phase_8,27,9999,9999,9999,652330056
118,6,22,Ticks_Phase_8,28,9999,9999,9999,653129848
118,6,22,Ticks_Phase_8,29,9999,9999,9999,653929560
118,6,22,Ticks_Phase_8,30,9999,9999,9999,654709876
118,6,22,Ticks_Phase_8,31,9999,9999,9999,655509564
118,6,22,Ticks_Phase_8,32,9999,9999,9999,656309300
118,6,22,Ticks_Phase_8,33,9999,9999,9999,657110136
118,6,22,Ticks_Phase_8,34,9999,9999,9999,657920100
118,6,22,Ticks_Phase_8,35,9999,9999,9999,658730076
118,6,22,Ticks_Phase_8,36,9999,9999,9999,659529788
118,6,22,Ticks_Phase_8,37,9999,9999,9999,660329576
118,6,22,Ticks_Phase_8,38,9999,9999,9999,661129284
118,6,22,Ticks_Phase_8,39,9999,9999,9999,661930068
118,6,22,Ticks_Phase_8,40,9999,9999,9999,662729848
118,6,22,Ticks_Phase_8,41,9999,9999,9999,663529560
118,6,22,Ticks_Phase_8,42,9999,9999,9999,664329272
118,6,22,Ticks_Phase_8,43,9999,9999,9999,665130104
118,6,22,Ticks_Phase_8,44,9999,9999,9999,665929816
118,6,22,Ticks_Phase_8,45,9999,9999,9999,666729536
118,6,22,Ticks_Phase_8,46,9999,9999,9999,667529320
118,6,22,Ticks_Phase_8,47,9999,9999,9999,668330104
118,6,22,Ticks_Phase_8,48,9999,9999,9999,669149288
118,6,22,Ticks_Phase_8,49,9999,9999,9999,669950040
118,6,22,Ticks_Phase_8,50,9999,9999,9999,670749760
118,6,22,Ticks_Phase_8,51,9999,9999,9999,671549536
118,6,22,Ticks_Phase_8,52,9999,9999,9999,672349256
118,6,22,Ticks_Phase_8,53,9999,9999,9999,673150012
118,6,22,Ticks_Phase_8,54,9999,9999,9999,673949824
118,6,22,Ticks_Phase_8,55,9999,9999,9999,674749536
118,6,22,Ticks_Phase_8,56,9999,9999,9999,675549248
118,6,22,Ticks_Phase_8,57,9999,9999,9999,676350004
118,6,22,Ticks_Phase_8,58,9999,9999,9999,677149792
118,6,22,Ticks_Phase_8,59,9999,9999,9999,677949496
118,6,22,Ticks_Phase_8,60,9999,9999,9999,678749288
118,6,22,Ticks_Phase_8,61,9999,9999,9999,679550044
118,6,22,Ticks_Phase_8,62,9999,9999,9999,680349780
118,6,22,Ticks_Phase_8,63,9999,9999,9999,681149548
118,6,22,Ticks_Phase_8,64,9999,9999,9999,681989176
118,6,22,Ticks_Phase_8,65,9999,9999,9999,682790008
118,6,22,Ticks_Phase_8,66,9999,9999,9999,683589720
118,6,22,Ticks_Phase_8,67,9999,9999,9999,684389428
118,6,22,Ticks_Phase_8,68,9999,9999,9999,685189216
118,6,22,Ticks_Phase_8,69,9999,9999,9999,685989996
118,6,22,Ticks_Phase_8,70,9999,9999,9999,686789708
118,6,22,Ticks_Phase_8,71,9999,9999,9999,687589492
118,6,22,Ticks_Phase_8,72,9999,9999,9999,688389204
118,6,22,Ticks_Phase_8,73,9999,9999,9999,689189964
118,6,22,Ticks_Phase_8,74,9999,9999,9999,689989748
118,6,22,Ticks_Phase_8,75,9999,9999,9999,690789460
118,6,22,Ticks_Phase_8,76,9999,9999,9999,691589244
118,6,22,Ticks_Phase_8,77,9999,9999,9999,692389956
118,6,22,Ticks_Phase_8,78,9999,9999,9999,693189740
118,6,22,Ticks_Phase_8,79,9999,9999,9999,693989452
118,6,22,Ticks_Phase_8,80,9999,9999,9999,694789240
118,6,22,Ticks_Phase_8,81,9999,9999,9999,695550008
118,6,22,Ticks_Phase_8,82,9999,9999,9999,696349796
118,6,22,Ticks_Phase_8,83,9999,9999,9999,697149508
118,6,22,Ticks_Phase_8,84,9999,9999,9999,697949292
118,6,22,Ticks_Phase_8,85,9999,9999,9999,698750044
118,6,22,Ticks_Phase_8,86,9999,9999,9999,699549788
118,6,22,Ticks_Phase_8,87,9999,9999,9999,700349500
118,6,22,Ticks_Phase_8,88,9999,9999,9999,701149284
118,6,22,Ticks_Phase_8,89,9999,9999,9999,701950020
118,6,22,Ticks_Phase_8,90,9999,9999,9999,702749808
118,6,22,Ticks_Phase_8,91,9999,9999,9999,703549520
118,6,22,Ticks_Phase_8,92,9999,9999,9999,704349304
118,6,22,Ticks_Phase_8,93,9999,9999,9999,705150064
118,6,22,Ticks_Phase_8,94,9999,9999,9999,705949800
118,6,22,Ticks_Phase_8,95,9999,9999,9999,706749512
118,6,22,Ticks_Phase_8,96,9999,9999,9999,707549296
118,6,22,Ticks_Phase_8,97,9999,9999,9999,708269180
118,6,22,Ticks_Phase_8,98,9999,9999,9999,709069940
118,6,22,Ticks_Phase_8,99,9999,9999,9999,709869652
118,6,22,Ticks_Phase_8,100,9999,9999,9999,710669432
118,6,22,Ticks_Phase_8,101,9999,9999,9999,711469144
118,6,22,Ticks_Phase_8,102,9999,9999,9999,712269900
118,6,22,Ticks_Phase_8,103,9999,9999,9999,713069684
118,6,22,Ticks_Phase_8,104,9999,9999,9999,713869396
118,6,22,Ticks_Phase_8,105,9999,9999,9999,714669136
118,6,22,Ticks_Phase_8,106,9999,9999,9999,715469892
118,6,22,Ticks_Phase_8,107,9999,9999,9999,716269680
118,6,22,Ticks_Phase_8,108,9999,9999,9999,717069392
118,6,22,Ticks_Phase_8,109,9999,9999,9999,717869176
118,6,22,Ticks_Phase_8,110,9999,9999,9999,718669936
118,6,22,Ticks_Phase_8,111,9999,9999,9999,719469648
118,6,22,Ticks_Phase_8,112,9999,9999,9999,720269436
118,6,22,Ticks_Phase_8,113,9999,9999,9999,721069144
118,6,22,Ticks_Phase_8,114,9999,9999,9999,721949792
118,6,22,Ticks_Phase_8,115,9999,9999,9999,722749524
118,6,22,Ticks_Phase_8,116,9999,9999,9999,723549240
118,6,22,Ticks_Phase_8,117,9999,9999,9999,724350072
118,6,22,Ticks_Phase_8,118,9999,9999,9999,725149808
118,6,22,Ticks_Phase_8,119,9999,9999,9999,725949520
118,6,22,Ticks_Phase_8,120,9999,9999,9999,726749300
118,6,22,Ticks_Phase_8,121,9999,9999,9999,727550056
118,6,22,Ticks_Phase_8,122,9999,9999,9999,728349768
118,6,22,Ticks_Phase_8,123,9999,9999,9999,729149556
118,6,22,Ticks_Phase_8,124,9999,9999,9999,729949276
118,6,22,Ticks_Phase_8,125,9999,9999,9999,730750032
118,6,22,Ticks_Phase_8,126,9999,9999,9999,731549768
118,6,22,Ticks_Phase_8,127,9999,9999,9999,732349496
118,6,22,Ticks_Phase_8,128,9999,9999,9999,733149288
118,6,22,Ticks_Phase_8,129,9999,9999,9999,733950040
118,6,22,Ticks_Phase_8,130,9999,9999,9999,734749752
118,6,22,Ticks_Phase_8,131,9999,9999,9999,735709284
118,6,22,Ticks_Phase_8,132,9999,9999,9999,736510056
118,6,22,Ticks_Phase_8,133,9999,9999,9999,737309776
118,6,22,Ticks_Phase_8,134,9999,9999,9999,738109564
118,6,22,Ticks_Phase_8,135,9999,9999,9999,738909276
118,6,22,Ticks_Phase_8,136,9999,9999,9999,739710036
118,6,22,Ticks_Phase_8,137,9999,9999,9999,740509764
118,6,22,Ticks_Phase_8,138,9999,9999,9999,741309552
118,6,22,Ticks_Phase_8,139,9999,9999,9999,742109264
118,6,22,Ticks_Phase_8,140,9999,9999,9999,742910020
118,6,22,Ticks_Phase_8,141,9999,9999,9999,743709808
118,6,22,Ticks_Phase_8,142,9999,9999,9999,744509528
118,6,22,Ticks_Phase_8,143,9999,9999,9999,745309308
118,6,22,Ticks_Phase_8,144,9999,9999,9999,746110068
118,6,22,Ticks_Phase_8,145,9999,9999,9999,746909812
118,6,22,Ticks_Phase_8,146,9999,9999,9999,747709544
118,6,22,Ticks_Phase_8,147,9999,9999,9999,748509256
118,6,22,Ticks_Phase_8,148,9999,9999,9999,749310016
118,6,22,Ticks_Phase_8,149,9999,9999,9999,750109804
118,6,22,Ticks_Phase_8,150,9999,9999,9999,750749780
118,6,22,Ticks_Phase_8,151,9999,9999,9999,751549568
118,6,22,Ticks_Phase_8,152,9999,9999,9999,752349280
118,6,22,Ticks_Phase_8,153,9999,9999,9999,753150040
118,6,22,Ticks_Phase_8,154,9999,9999,9999,753949824
118,6,22,Ticks_Phase_8,155,9999,9999,9999,754749536
118,6,22,Ticks_Phase_8,156,9999,9999,9999,755549244
118,6,22,Ticks_Phase_8,157,9999,9999,9999,756350076
118,6,22,Ticks_Phase_8,158,9999,9999,9999,757149812
118,6,22,Ticks_Phase_8,159,9999,9999,9999,757949524
118,6,22,Ticks_Phase_8,160,9999,9999,9999,758749308
118,6,22,Ticks_Phase_8,161,9999,9999,9999,759550068
118,6,22,Ticks_Phase_8,162,9999,9999,9999,760349780
118,6,22,Ticks_Phase_8,163,9999,9999,9999,761149568
118,6,22,Ticks_Phase_8,164,9999,9999,9999,761949276
118,6,22,Ticks_Phase_8,165,9999,9999,9999,762750028
118,6,22,Ticks_Phase_8,166,9999,9999,9999,763549772
118,6,22,Ticks_Phase_8,167,9999,9999,9999,764349556
118,6,22,Ticks_Phase_8,168,9999,9999,9999,765149268
118,6,22,Ticks_Phase_8,169,9999,9999,9999,765950020
118,7,10,Ticks_ISO_T2_5,0,5,42,127,776596984
118,7,10,Ticks_ISO_T2_5,1,5,42,127,777096476
118,7,10,Ticks_ISO_T2_5,2,5,42,127,777597388
118,7,10,Ticks_ISO_T2_5,3,5,42,127,778096956
118,7,10,Ticks_ISO_T2_5,4,1,48,48,778575832
118,7,10,Ticks_ISO_T2_5,5,5,42,127,778596816
118,7,10,Ticks_ISO_T2_5,6,1,48,52,779061396
118,7,10,Ticks_ISO_T2_5,7,5,42,127,779096432
118,7,10,Ticks_ISO_T2_5,8,1,48,58,779591308
118,7,10,Ticks_ISO_T2_5,9,5,42,127,779597252
118,7,10,Ticks_ISO_T2_5,10,5,42,127,780096952
118,7,10,Ticks_ISO_T2_5,11,1,48,50,780105156
118,7,10,Ticks_ISO_T2_5,12,1,48,51,780574092
118,7,10,Ticks_ISO_T2_5,13,5,42,127,780596716
118,7,10,Ticks_ISO_T2_5,14,1,48,51,781069752
118,7,10,Ticks_ISO_T2_5,15,5,42,127,781097308
118,7,10,Ticks_ISO_T2_5,16,1,48,50,781576772
118,7,10,Ticks_ISO_T2_5,17,5,42,127,781596928
118,7,10,Ticks_ISO_T2_5,18,1,48,48,782074300
118,7,10,Ticks_ISO_T2_5,19,5,42,127,782096920
118,7,10,Ticks_ISO_T2_5,20,1,48,46,782561356
118,7,10,Ticks_ISO_T2_5,21,5,42,127,782596616
118,7,10,Ticks_ISO_T2_5,22,1,48,48,783079896
118,7,10,Ticks_ISO_T2_5,23,5,42,127,783097136
118,7,10,Ticks_ISO_T2_5,24,1,48,60,783569944
118,7,10,Ticks_ISO_T2_5,25,5,42,127,783596980
118,7,10,Ticks_ISO_T2_5,26,1,48,49,784066344
118,7,10,Ticks_ISO_T2_5,27,5,42,127,784096748
118,7,10,Ticks_ISO_T2_5,28,1,48,47,784543904
118,7,10,Ticks_ISO_T2_5,29,5,42,127,784597416
118,7,10,Ticks_ISO_T2_5,30,5,42,127,785096968
118,7,10,Ticks_ISO_T2_5,31,1,48,55,785126112
118,7,10,Ticks_ISO_T2_5,32,1,48,57,785578816
118,7,10,Ticks_ISO_T2_5,33,5,42,127,785596804
118,7,10,Ticks_ISO_T2_5,34,1,48,48,786084496
118,7,10,Ticks_ISO_T2_5,35,5,42,127,786096428
118,7,10,Ticks_ISO_T2_5,36,1,48,52,786549312
118,7,10,Ticks_ISO_T2_5,37,5,42,127,786597096
118,7,10,Ticks_ISO_T2_5,38,1,48,36,787055512
118,7,10,Ticks_ISO_T2_5,39,5,42,127,787096936
118,7,10,Ticks_ISO_T2_5,40,5,42,127,787596764
118,7,10,Ticks_ISO_T2_5,41,1,48,45,787628180
118,7,10,Ticks_ISO_T2_5,42,1,48,53,788093272
118,7,10,Ticks_ISO_T2_5,43,5,42,127,788097792
118,7,10,Ticks_ISO_T2_5,44,1,48,64,788582268
118,7,10,Ticks_ISO_T2_5,45,5,42,127,788597116
118,7,10,Ticks_ISO_T2_5,46,1,48,53,789071196
118,7,10,Ticks_ISO_T2_5,47,5,42,127,789096736
118,7,10,Ticks_ISO_T2_5,48,1,48,55,789566552
118,7,10,Ticks_ISO_T2_5,49,5,42,127,789596508
118,7,10,Ticks_ISO_T2_5,50,1,48,57,790072004
118,7,10,Ticks_ISO_T2_5,51,5,42,127,790097248
118,7,10,Ticks_ISO_T2_5,52,1,48,52,790539316
118,7,10,Ticks_ISO_T2_5,53,5,42,127,790596868
118,7,10,Ticks_ISO_T2_5,54,1,48,49,791046188
118,7,10,Ticks_ISO_T2_5,55,5,42,127,791096784
118,7,10,Ticks_ISO_T2_5,56,1,48,52,791569596
118,7,10,Ticks_ISO_T2_5,57,5,42,127,791597380
118,7,10,Ticks_ISO_T2_5,58,1,48,47,792070784
118,7,10,Ticks_ISO_T2_5,59,5,42,127,792097076
118,7,10,Ticks_ISO_T2_5,60,5,42,127,792596776
118,7,10,Ticks_ISO_T2_5,61,1,48,54,792604908
118,7,10,Ticks_ISO_T2_5,62,1,48,53,793087976
118,7,10,Ticks_ISO_T2_5,63,5,42,127,793096688
118,7,10,Ticks_ISO_T2_5,64,1,48,48,793559696
118,7,10,Ticks_ISO_T2_5,65,5,42,127,793597576
118,7,10,Ticks_ISO_T2_5,66,1,48,51,794082504
118,7,10,Ticks_ISO_T2_5,67,5,42,127,794096900
118,7,10,Ticks_ISO_T2_5,68,1,48,57,794572400
118,7,10,Ticks_ISO_T2_5,69,5,42,127,794596744
118,7,10,Ticks_ISO_T2_5,70,1,48,51,795079272
118,7,10,Ticks_ISO_T2_5,71,5,42,127,795096512
118,7,10,Ticks_ISO_T2_5,72,5,42,127,795597036
118,7,10,Ticks_ISO_T2_5,73,1,48,51,795600528
118,7,10,Ticks_ISO_T2_5,74,1,48,54,796092124
118,7,10,Ticks_ISO_T2_5,75,5,42,127,796096948
118,7,10,Ticks_ISO_T2_5,76,1,48,62,796591820
118,7,10,Ticks_ISO_T2_5,77,5,42,127,796596568
118,7,10,Ticks_ISO_T2_5,78,5,42,127,797097616
118,7,10,Ticks_ISO_T2_5,79,1,48,33,797133496
118,7,10,Ticks_ISO_T2_5,80,5,42,127,797597012
118,7,10,Ticks_ISO_T2_5,81,1,48,42,797607240
118,7,10,Ticks_ISO_T2_5,82,1,48,54,798072556
118,7,10,Ticks_ISO_T2_5,83,5,42,127,798096676
118,7,10,Ticks_ISO_T2_5,84,1,48,56,798546592
118,7,10,Ticks_ISO_T2_5,85,5,42,127,798596892
118,7,10,Ticks_ISO_T2_5,86,1,48,45,799072168
118,7,10,Ticks_ISO_T2_5,87,5,42,127,799097188
118,7,10,Ticks_ISO_T2_5,88,1,48,40,799561920
118,7,10,Ticks_ISO_T2_5,89,5,42,127,799596956
118,7,10,Ticks_ISO_T2_5,90,1,48,41,800065652
118,7,10,Ticks_ISO_T2_5,91,5,42,127,800096652
118,7,10,Ticks_ISO_T2_5,92,1,48,54,800528096
118,7,10,Ticks_ISO_T2_5,93,5,42,127,800597468
118,7,10,Ticks_ISO_T2_5,94,1,48,45,801077980
118,7,10,Ticks_ISO_T2_5,95,5,42,127,801097012
118,7,10,Ticks_ISO_T2_5,96,1,48,48,801591588
118,7,10,Ticks_ISO_T2_5,97,5,42,127,801596708
118,7,10,Ticks_ISO_T2_5,98,1,48,41,802081260
118,7,10,Ticks_ISO_T2_5,99,5,42,127,802096700
118,7,10,Ticks_ISO_T2_5,100,1,48,49,802569288
118,7,10,Ticks_ISO_T2_5,101,5,42,127,802597368
118,7,10,Ticks_ISO_T2_5,102,1,48,39,803075412
118,7,10,Ticks_ISO_T2_5,103,5,42,127,803097060
118,7,10,Ticks_ISO_T2_5,104,5,42,127,803596616
118,7,10,Ticks_ISO_T2_5,105,1,48,44,803606616
118,7,10,Ticks_ISO_T2_5,106,5,42,127,804097580
118,7,10,Ticks_ISO_T2_5,107,1,48,57,804112444
118,7,10,Ticks_ISO_T2_5,108,5,42,127,804597048
118,7,10,Ticks_ISO_T2_5,109,1,48,65,804602264
118,7,10,Ticks_ISO_T2_5,110,1,48,47,805089824
118,7,10,Ticks_ISO_T2_5,111,5,42,127,805096888
118,7,10,Ticks_ISO_T2_5,112,1,48,50,805585696
118,7,10,Ticks_ISO_T2_5,113,5,42,127,805596508
118,7,10,Ticks_ISO_T2_5,114,1,48,43,806067668
118,7,10,Ticks_ISO_T2_5,115,5,42,127,806097396
118,7,10,Ticks_ISO_T2_5,116,1,48,65,806570284
118,7,10,Ticks_ISO_T2_5,117,5,42,127,806597020
118,7,10,Ticks_ISO_T2_5,118,5,42,127,807096720
118,7,10,Ticks_ISO_T2_5,119,1,48,59,807110460
118,7,10,Ticks_ISO_T2_5,120,1,48,55,807581940
118,7,10,Ticks_ISO_T2_5,121,5,42,127,807597456
118,7,10,Ticks_ISO_T2_5,122,1,48,48,808094800
118,7,10,Ticks_ISO_T2_5,123,5,42,127,808097300
118,7,10,Ticks_ISO_T2_5,124,1,48,58,808579732
118,7,10,Ticks_ISO_T2_5,125,5,42,127,808596744
118,7,10,Ticks_ISO_T2_5,126,1,48,49,809077556
118,7,10,Ticks_ISO_T2_5,127,5,42,127,809096588
118,7,10,Ticks_ISO_T2_5,128,1,48,48,809579944
118,7,10,Ticks_ISO_T2_5,129,5,42,127,809597256
118,7,10,Ticks_ISO_T2_5,130,1,48,49,810072828
118,7,10,Ticks_ISO_T2_5,131,5,42,127,810097172
118,7,10,Ticks_ISO_T2_5,132,1,48,58,810572524
118,7,10,Ticks_ISO_T2_5,133,5,42,127,810596644
118,7,10,Ticks_ISO_T2_5,134,1,48,50,811076404
118,7,10,Ticks_ISO_T2_5,135,5,42,127,811096564
118,7,10,Ticks_ISO_T2_5,136,1,48,52,811589644
118,7,10,Ticks_ISO_T2_5,137,5,42,127,811597304
118,7,10,Ticks_ISO_T2_5,138,1,48,45,812089636
118,7,10,Ticks_ISO_T2_5,139,5,42,127,812096776
118,7,10,Ticks_ISO_T2_5,140,1,48,51,812584592
118,7,10,Ticks_ISO_T2_5,141,5,42,127,812596520
118,7,10,Ticks_ISO_T2_5,142,5,42,127,813097416
118,7,10,Ticks_ISO_T2_5,143,1,48,51,813098384
118,7,10,Ticks_ISO_T2_5,144,5,42,127,813597112
118,7,10,Ticks_ISO_T2_5,145,1,48,47,813606884
118,7,10,Ticks_ISO_T2_5,146,1,48,50,814091004
118,7,10,Ticks_ISO_T2_5,147,5,42,127,814096800
118,7,10,Ticks_ISO_T2_5,148,1,48,61,814593392
118,7,10,Ticks_ISO_T2_5,149,5,42,127,814596420
118,7,10,Ticks_ISO_T2_5,150,1,48,46,815084184
118,7,10,Ticks_ISO_T2_5,151,5,42,127,815097384
118,7,10,Ticks_ISO_T2_5,152,1,48,44,815591284
118,7,10,Ticks_ISO_T2_5,153,5,42,127,815596856
118,7,10,Ticks_ISO_T2_5,154,1,48,49,816082228
118,7,10,Ticks_ISO_T2_5,155,5,42,127,816096552
118,7,10,Ticks_ISO_T2_5,156,1,48,58,816580728
118,7,10,Ticks_ISO_T2_5,157,5,42,127,816597292
118,7,10,Ticks_ISO_T2_5,158,1,48,50,817086328
118,7,10,Ticks_ISO_T2_5,159,5,42,127,817097136
118,7,10,Ticks_ISO_T2_5,160,1,48,53,817577200
118,7,10,Ticks_ISO_T2_5,161,5,42,127,817596828
118,7,10,Ticks_ISO_T2_5,162,1,48,48,818054876
118,7,10,Ticks_ISO_T2_5,163,5,42,127,818096524
118,7,10,Ticks_ISO_T2_5,164,1,48,57,818584364
118,7,10,Ticks_ISO_T2_5,165,5,42,127,818597192
118,7,10,Ticks_ISO_T2_5,166,5,42,127,819097188
118,7,10,Ticks_ISO_T2_5,167,1,48,59,819100688
118,7,10,Ticks_ISO_T2_5,168,1,48,52,819588220
118,7,10,Ticks_ISO_T2_5,169,5,42,127,819596780
118,7,10,Ticks_ISO_T2_5,170,1,48,45,820077140
118,7,10,Ticks_ISO_T2_5,171,5,42,127,820097372
118,7,10,Ticks_ISO_T2_5,172,1,48,51,820596016
118,7,10,Ticks_ISO_T2_5,173,5,42,127,820597364
118,7,10,Ticks_ISO_T2_5,174,5,42,127,821096696
118,7,10,Ticks_ISO_T2_5,175,1,48,56,821122180
118,7,10,Ticks_ISO_T2_5,176,5,42,127,821596536
118,7,10,Ticks_ISO_T2_5,177,1,48,38,821632192
118,7,10,Ticks_ISO_T2_5,178,5,42,127,822097128
118,7,10,Ticks_ISO_T2_5,179,1,48,51,822111244
118,7,10,Ticks_ISO_T2_5,180,5,42,127,822597048
118,7,10,Ticks_ISO_T2_5,181,1,48,57,822604204
118,7,10,Ticks_ISO_T2_5,182,5,42,127,823096816
118,7,10,Ticks_ISO_T2_5,183,1,48,48,823119604
118,7,10,Ticks_ISO_T2_5,184,5,42,127,823597484
118,7,10,Ticks_ISO_T2_5,185,1,48,51,823606440
118,7,10,Ticks_ISO_T2_5,186,5,42,127,824097176
118,7,10,Ticks_ISO_T2_5,187,1,48,51,824100224
118,7,10,Ticks_ISO_T2_5,188,1,48,55,824593988
118,7,10,Ticks_ISO_T2_5,189,5,42,127,824596792
118,7,10,Ticks_ISO_T2_5,190,5,42,127,825096496
118,7,10,Ticks_ISO_T2_5,191,1,48,48,825099160
118,7,10,Ticks_ISO_T2_5,192,5,42,127,825597308
118,7,10,Ticks_ISO_T2_5,193,1,48,52,825600428
118,7,10,Ticks_ISO_T2_5,194,5,42,127,826097152
118,7,10,Ticks_ISO_T2_5,195,1,48,61,826100048
118,7,10,Ticks_ISO_T2_5,196,1,48,49,826596996
118,7,10,Ticks_ISO_T2_5,197,5,42,127,826598336
118,7,10,Ticks_ISO_T2_5,198,5,42,127,827096396
118,7,10,Ticks_ISO_T2_5,199,1,48,48,827112900
118,7,10,Ticks_ISO_T2_5,200,5,42,127,827597208
118,7,10,Ticks_ISO_T2_5,201,1,48,51,827612968
118,7,10,Ticks_ISO_T2_5,202,5,42,127,828097128
118,7,10,Ticks_ISO_T2_5,203,1,48,56,828098988
118,7,10,Ticks_ISO_T2_5,204,5,42,127,828596524
118,7,10,Ticks_ISO_T2_5,205,1,48,50,828599496
118,7,10,Ticks_ISO_T2_5,206,5,42,127,829097192
118,7,10,Ticks_ISO_T2_5,207,1,48,47,829109584
118,7,10,Ticks_ISO_T2_5,208,5,42,127,829597256
118,7,10,Ticks_ISO_T2_5,209,1,48,47,829614808
118,7,10,Ticks_ISO_T2_5,210,1,48,52,830087160
118,7,10,Ticks_ISO_T2_5,211,5,42,127,830096920
118,7,10,Ticks_ISO_T2_5,212,1,48,54,830564420
118,7,10,Ticks_ISO_T2_5,213,5,42,127,830596316
118,7,10,Ticks_ISO_T2_5,214,5,42,127,831097212
118,7,10,Ticks_ISO_T2_5,215,1,48,39,831115964
118,7,10,Ticks_ISO_T2_5,216,5,42,127,831597056
118,7,10,Ticks_ISO_T2_5,217,1,48,40,831620300
118,7,10,Ticks_ISO_T2_5,218,1,48,55,832090132
118,7,10,Ticks_ISO_T2_5,219,5,42,127,832096892
118,7,10,Ticks_ISO_T2_5,220,1,48,60,832576660
118,7,10,Ticks_ISO_T2_5,221,5,42,127,832597336
118,7,10,Ticks_ISO_T2_5,222,1,48,53,833082936
118,7,10,Ticks_ISO_T2_5,223,5,42,127,833097032
118,7,10,Ticks_ISO_T2_5,224,1,48,53,833591008
118,7,10,Ticks_ISO_T2_5,225,5,42,127,833597028
118,7,10,Ticks_ISO_T2_5,226,5,42,127,834096356
118,7,10,Ticks_ISO_T2_5,227,1,48,64,834102468
118,7,10,Ticks_ISO_T2_5,228,1,48,43,834576936
118,7,10,Ticks_ISO_T2_5,229,5,42,127,834597240
118,7,10,Ticks_ISO_T2_5,230,1,48,51,835087024
118,7,10,Ticks_ISO_T2_5,231,5,42,127,835097008
118,7,10,Ticks_ISO_T2_5,232,1,48,55,835579836
118,7,10,Ticks_ISO_T2_5,233,5,42,127,835596852
118,7,10,Ticks_ISO_T2_5,234,1,48,56,836085892
118,7,10,Ticks_ISO_T2_5,235,5,42,127,836097444
118,7,10,Ticks_ISO_T2_5,236,5,42,127,836597072
118,7,10,Ticks_ISO_T2_5,237,1,48,66,836613280
118,7,10,Ticks_ISO_T2_5,238,5,42,127,837096988
118,7,10,Ticks_ISO_T2_5,239,1,48,48,837108632
118,7,10,Ticks_ISO_T2_5,240,5,42,127,837596388
118,7,10,Ticks_ISO_T2_5,241,1,48,31,837621120
118,7,10,Ticks_ISO_T2_5,242,1,48,40,838063204
118,7,10,Ticks_ISO_T2_5,243,5,42,127,838097268
118,7,10,Ticks_ISO_T2_5,244,1,48,63,838586612
118,7,10,Ticks_ISO_T2_5,245,5,42,127,838596964
118,7,10,Ticks_ISO_T2_5,246,5,42,127,839096664
118,7,10,Ticks_ISO_T2_5,247,1,48,57,839121028
118,7,10,Ticks_ISO_T2_5,248,5,42,127,839597408
118,7,10,Ticks_ISO_T2_5,249,1,48,53,839613840
118,7,10,Ticks_ISO_T2_5,250,1,48,48,840083796
118,7,10,Ticks_ISO_T2_5,251,5,42,127,840097020
118,7,10,Ticks_ISO_T2_5,252,1,48,62,840595180
118,7,10,Ticks_ISO_T2_5,253,5,42,127,840596792
118,7,10,Ticks_ISO_T2_5,254,1,48,48,841093656
118,7,10,Ticks_ISO_T2_5,255,5,42,127,841096684
118,7,10,Ticks_ISO_T2_5,0,9999,9999,9999,776594544
118,7,10,Ticks_ISO_T2_5,1,9999,9999,9999,777094260
118,7,10,Ticks_ISO_T2_5,2,9999,9999,9999,777594948
118,7,10,Ticks_ISO_T2_5,3,9999,9999,9999,778094668
118,7,10,Ticks_ISO_T2_5,4,9999,9999,9999,778594376
118,7,10,Ticks_ISO_T2_5,5,9999,9999,9999,779094072
118,7,10,Ticks_ISO_T2_5,6,9999,9999,9999,779594816
118,7,10,Ticks_ISO_T2_5,7,9999,9999,9999,780094516
118,7,10,Ticks_ISO_T2_5,8,9999,9999,9999,780594280
118,7,10,Ticks_ISO_T2_5,9,9999,9999,9999,781095020
118,7,10,Ticks_ISO_T2_5,10,9999,9999,9999,781594716
118,7,10,Ticks_ISO_T2_5,11,9999,9999,9999,782094408
118,7,10,Ticks_ISO_T2_5,12,9999,9999,9999,782594104
118,7,10,Ticks_ISO_T2_5,13,9999,9999,9999,783094844
118,7,10,Ticks_ISO_T2_5,14,9999,9999,9999,783594616
118,7,10,Ticks_ISO_T2_5,15,9999,9999,9999,784094312
118,7,10,Ticks_ISO_T2_5,16,9999,9999,9999,784595052
118,7,10,Ticks_ISO_T2_5,17,9999,9999,9999,785094752
118,7,10,Ticks_ISO_T2_5,18,9999,9999,9999,785594440
118,7,10,Ticks_ISO_T2_5,19,9999,9999,9999,786094140
118,7,10,Ticks_ISO_T2_5,20,9999,9999,9999,786594880
118,7,10,Ticks_ISO_T2_5,21,9999,9999,9999,787094628
118,7,10,Ticks_ISO_T2_5,22,9999,9999,9999,787594324
118,7,10,Ticks_ISO_T2_5,23,9999,9999,9999,788095060
118,7,10,Ticks_ISO_T2_5,24,9999,9999,9999,788594752
118,7,10,Ticks_ISO_T2_5,25,9999,9999,9999,789094448
118,7,10,Ticks_ISO_T2_5,26,9999,9999,9999,789594216
118,7,10,Ticks_ISO_T2_5,27,9999,9999,9999,790094960
118,7,10,Ticks_ISO_T2_5,28,9999,9999,9999,790594652
118,7,10,Ticks_ISO_T2_5,29,9999,9999,9999,791094348
118,7,10,Ticks_ISO_T2_5,30,9999,9999,9999,791595092
118,7,10,Ticks_ISO_T2_5,31,9999,9999,9999,792094784
118,7,10,Ticks_ISO_T2_5,32,9999,9999,9999,792594488
118,7,10,Ticks_ISO_T2_5,33,9999,9999,9999,793094252
118,7,10,Ticks_ISO_T2_5,34,9999,9999,9999,793594992
118,7,10,Ticks_ISO_T2_5,35,9999,9999,9999,794094688
118,7,10,Ticks_ISO_T2_5,36,9999,9999,9999,794594380
118,7,10,Ticks_ISO_T2_5,37,9999,9999,9999,795094076
118,7,10,Ticks_ISO_T2_5,38,9999,9999,9999,795594824
118,7,10,Ticks_ISO_T2_5,39,9999,9999,9999,796094584
118,7,10,Ticks_ISO_T2_5,40,9999,9999,9999,796594280
118,7,10,Ticks_ISO_T2_5,41,9999,9999,9999,797095028
118,7,10,Ticks_ISO_T2_5,42,9999,9999,9999,797594724
118,7,10,Ticks_ISO_T2_5,43,9999,9999,9999,798094388
118,7,10,Ticks_ISO_T2_5,44,9999,9999,9999,798594156
118,7,10,Ticks_ISO_T2_5,45,9999,9999,9999,799094900
118,7,10,Ticks_ISO_T2_5,46,9999,9999,9999,799594596
118,7,10,Ticks_ISO_T2_5,47,9999,9999,9999,800094288
118,7,10,Ticks_ISO_T2_5,48,9999,9999,9999,800595032
118,7,10,Ticks_ISO_T2_5,49,9999,9999,9999,801094724
118,7,10,Ticks_ISO_T2_5,50,9999,9999,9999,801594420
118,7,10,Ticks_ISO_T2_5,51,9999,9999,9999,802094188
118,7,10,Ticks_ISO_T2_5,52,9999,9999,9999,802594932
118,7,10,Ticks_ISO_T2_5,53,9999,9999,9999,803094624
118,7,10,Ticks_ISO_T2_5,54,9999,9999,9999,803594324
118,7,10,Ticks_ISO_T2_5,55,9999,9999,9999,804095064
118,7,10,Ticks_ISO_T2_5,56,9999,9999,9999,804594760
118,7,10,Ticks_ISO_T2_5,57,9999,9999,9999,805094448
118,7,10,Ticks_ISO_T2_5,58,9999,9999,9999,805594216
118,7,10,Ticks_ISO_T2_5,59,9999,9999,9999,806094960
118,7,10,Ticks_ISO_T2_5,60,9999,9999,9999,806594656
118,7,10,Ticks_ISO_T2_5,61,9999,9999,9999,807094356
118,7,10,Ticks_ISO_T2_5,62,9999,9999,9999,807595092
118,7,10,Ticks_ISO_T2_5,63,9999,9999,9999,808094860
118,7,10,Ticks_ISO_T2_5,64,9999,9999,9999,808594532
118,7,10,Ticks_ISO_T2_5,65,9999,9999,9999,809094228
118,7,10,Ticks_ISO_T2_5,66,9999,9999,9999,809594968
118,7,10,Ticks_ISO_T2_5,67,9999,9999,9999,810094660
118,7,10,Ticks_ISO_T2_5,68,9999,9999,9999,810594356
118,7,10,Ticks_ISO_T2_5,69,9999,9999,9999,811094124
118,7,10,Ticks_ISO_T2_5,70,9999,9999,9999,811594868
118,7,10,Ticks_ISO_T2_5,71,9999,9999,9999,812094560
118,7,10,Ticks_ISO_T2_5,72,9999,9999,9999,812594232
118,7,10,Ticks_ISO_T2_5,73,9999,9999,9999,813094980
118,7,10,Ticks_ISO_T2_5,74,9999,9999,9999,813594672
118,7,10,Ticks_ISO_T2_5,75,9999,9999,9999,814094436
118,7,10,Ticks_ISO_T2_5,76,9999,9999,9999,814594132
118,7,10,Ticks_ISO_T2_5,77,9999,9999,9999,815094872
118,7,10,Ticks_ISO_T2_5,78,9999,9999,9999,815594568
118,7,10,Ticks_ISO_T2_5,79,9999,9999,9999,816094260
118,7,10,Ticks_ISO_T2_5,80,9999,9999,9999,816595004
118,7,10,Ticks_ISO_T2_5,81,9999,9999,9999,817094772
118,7,10,Ticks_ISO_T2_5,82,9999,9999,9999,817594468
118,7,10,Ticks_ISO_T2_5,83,9999,9999,9999,818094160
118,7,10,Ticks_ISO_T2_5,84,9999,9999,9999,818594904
118,7,10,Ticks_ISO_T2_5,85,9999,9999,9999,819094604
118,7,10,Ticks_ISO_T2_5,86,9999,9999,9999,819594340
118,7,10,Ticks_ISO_T2_5,87,9999,9999,9999,820095080
118,7,10,Ticks_ISO_T2_5,88,9999,9999,9999,820594784
118,7,10,Ticks_ISO_T2_5,89,9999,9999,9999,821094480
118,7,10,Ticks_ISO_T2_5,90,9999,9999,9999,821594172
118,7,10,Ticks_ISO_T2_5,91,9999,9999,9999,822094912
118,7,10,Ticks_ISO_T2_5,92,9999,9999,9999,822594608
118,7,10,Ticks_ISO_T2_5,93,9999,9999,9999,823094376
118,7,10,Ticks_ISO_T2_5,94,9999,9999,9999,823595120
118,7,10,Ticks_ISO_T2_5,95,9999,9999,9999,824094812
118,7,10,Ticks_ISO_T2_5,96,9999,9999,9999,824594504
118,7,10,Ticks_ISO_T2_5,97,9999,9999,9999,825094204
118,7,10,Ticks_ISO_T2_5,98,9999,9999,9999,825594944
118,7,10,Ticks_ISO_T2_5,99,9999,9999,9999,826094640
118,7,10,Ticks_ISO_T2_5,100,9999,9999,9999,826594412
118,7,10,Ticks_ISO_T2_5,101,9999,9999,9999,827094104
118,7,10,Ticks_ISO_T2_5,102,9999,9999,9999,827594848
118,7,10,Ticks_ISO_T2_5,103,9999,9999,9999,828094540
118,7,10,Ticks_ISO_T2_5,104,9999,9999,9999,828594236
118,7,10,Ticks_ISO_T2_5,105,9999,9999,9999,829094976
118,7,10,Ticks_ISO_T2_5,106,9999,9999,9999,829594744
118,7,10,Ticks_ISO_T2_5,107,9999,9999,9999,830094408
118,7,10,Ticks_ISO_T2_5,108,9999,9999,9999,830594104
118,7,10,Ticks_ISO_T2_5,109,9999,9999,9999,831094852
118,7,10,Ticks_ISO_T2_5,110,9999,9999,9999,831594544
118,7,10,Ticks_ISO_T2_5,111,9999,9999,9999,832094308
118,7,10,Ticks_ISO_T2_5,112,9999,9999,9999,832595048
118,7,10,Ticks_ISO_T2_5,113,9999,9999,9999,833094744
118,7,10,Ticks_ISO_T2_5,114,9999,9999,9999,833594440
118,7,10,Ticks_ISO_T2_5,115,9999,9999,9999,834094144
118,7,10,Ticks_ISO_T2_5,116,9999,9999,9999,834594876
118,7,10,Ticks_ISO_T2_5,117,9999,9999,9999,835094644
118,7,10,Ticks_ISO_T2_5,118,9999,9999,9999,835594340
118,7,10,Ticks_ISO_T2_5,119,9999,9999,9999,836095080
118,7,10,Ticks_ISO_T2_5,120,9999,9999,9999,836594780
118,7,10,Ticks_ISO_T2_5,121,9999,9999,9999,837094476
118,7,10,Ticks_ISO_T2_5,122,9999,9999,9999,837594172
118,7,10,Ticks_ISO_T2_5,123,9999,9999,9999,838094908
118,7,10,Ticks_ISO_T2_5,124,9999,9999,9999,838594676
118,7,10,Ticks_ISO_T2_5,125,9999,9999,9999,839094376
118,7,10,Ticks_ISO_T2_5,126,9999,9999,9999,839595120
118,7,10,Ticks_ISO_T2_5,127,9999,9999,9999,840094808
118,7,10,Ticks_ISO_T2_5,128,9999,9999,9999,840594488
118,7,10,Ticks_ISO_T2_5,129,9999,9999,9999,841094248
118,8,9,Ticks_ISO_T2_8,0,5,42,127,851782016
118,8,9,Ticks_ISO_T2_8,1,5,42,127,852581696
118,8,9,Ticks_ISO_T2_8,2,1,48,55,853374380
118,8,9,Ticks_ISO_T2_8,3,5,42,127,853381668
118,8,9,Ticks_ISO_T2_8,4,1,48,62,854172868
118,8,9,Ticks_ISO_T2_8,5,5,42,127,854182248
118,8,9,Ticks_ISO_T2_8,6,1,48,54,854977688
118,8,9,Ticks_ISO_T2_8,7,5,42,127,854981980
118,8,9,Ticks_ISO_T2_8,8,5,42,127,855781724
118,8,9,Ticks_ISO_T2_8,9,1,48,38,855818724
118,8,9,Ticks_ISO_T2_8,10,5,42,127,856581604
118,8,9,Ticks_ISO_T2_8,11,1,48,54,856623988
118,8,9,Ticks_ISO_T2_8,12,5,42,127,857382384
118,8,9,Ticks_ISO_T2_8,13,1,48,43,857384980
118,8,9,Ticks_ISO_T2_8,14,1,48,56,858164352
118,8,9,Ticks_ISO_T2_8,15,5,42,127,858181888
118,8,9,Ticks_ISO_T2_8,16,1,48,49,858964308
118,8,9,Ticks_ISO_T2_8,17,5,42,127,858981692
118,8,9,Ticks_ISO_T2_8,18,1,48,53,859755140
118,8,9,Ticks_ISO_T2_8,19,5,42,127,859781356
118,8,9,Ticks_ISO_T2_8,20,1,48,44,860553972
118,8,9,Ticks_ISO_T2_8,21,5,42,127,860582308
118,8,9,Ticks_ISO_T2_8,22,1,48,47,861340268
118,8,9,Ticks_ISO_T2_8,23,5,42,127,861381892
118,8,9,Ticks_ISO_T2_8,24,5,42,127,862181708
118,8,9,Ticks_ISO_T2_8,25,1,48,50,862191784
118,8,9,Ticks_ISO_T2_8,26,5,42,127,862981440
118,8,9,Ticks_ISO_T2_8,27,1,48,61,862989424
118,8,9,Ticks_ISO_T2_8,28,1,48,57,863779264
118,8,9,Ticks_ISO_T2_8,29,5,42,127,863782364
118,8,9,Ticks_ISO_T2_8,30,5,42,127,864582028
118,8,9,Ticks_ISO_T2_8,31,1,48,58,864595996
118,8,9,Ticks_ISO_T2_8,32,5,42,127,865381612
118,8,9,Ticks_ISO_T2_8,33,1,48,52,865387724
118,8,9,Ticks_ISO_T2_8,34,1,48,48,866165368
118,8,9,Ticks_ISO_T2_8,35,5,42,127,866181412
118,8,9,Ticks_ISO_T2_8,36,5,42,127,866982520
118,8,9,Ticks_ISO_T2_8,37,1,48,57,867005912
118,8,9,Ticks_ISO_T2_8,38,1,48,48,867776376
118,8,9,Ticks_ISO_T2_8,39,5,42,127,867782100
118,8,9,Ticks_ISO_T2_8,40,5,42,127,868581764
118,8,9,Ticks_ISO_T2_8,41,1,48,54,868635900
118,8,9,Ticks_ISO_T2_8,42,1,48,24,868718300
118,8,9,Ticks_ISO_T2_8,43,1,48,59,869332744
118,8,9,Ticks_ISO_T2_8,44,5,42,127,869381472
118,8,9,Ticks_ISO_T2_8,45,5,42,127,870182484
118,8,9,Ticks_ISO_T2_8,46,1,48,44,870189716
118,8,9,Ticks_ISO_T2_8,47,5,42,127,870981992
118,8,9,Ticks_ISO_T2_8,48,1,48,47,871010768
118,8,9,Ticks_ISO_T2_8,49,5,42,127,871781724
118,8,9,Ticks_ISO_T2_8,50,1,48,53,871813716
118,8,9,Ticks_ISO_T2_8,51,1,48,24,871881632
118,8,9,Ticks_ISO_T2_8,52,5,42,127,872581436
118,8,9,Ticks_ISO_T2_8,53,1,48,49,872688176
118,8,9,Ticks_ISO_T2_8,54,5,42,127,873382388
118,8,9,Ticks_ISO_T2_8,55,1,48,57,873404660
118,8,9,Ticks_ISO_T2_8,56,1,48,50,874168920
118,8,9,Ticks_ISO_T2_8,57,5,42,127,874182268
118,8,9,Ticks_ISO_T2_8,58,1,48,57,874947936
118,8,9,Ticks_ISO_T2_8,59,5,42,127,874981776
118,8,9,Ticks_ISO_T2_8,60,1,48,46,875758212
118,8,9,Ticks_ISO_T2_8,61,5,42,127,875781508
118,8,9,Ticks_ISO_T2_8,62,1,48,40,876572456
118,8,9,Ticks_ISO_T2_8,63,5,42,127,876582140
118,8,9,Ticks_ISO_T2_8,64,5,42,127,877382252
118,8,9,Ticks_ISO_T2_8,65,1,48,57,877399288
118,8,9,Ticks_ISO_T2_8,66,5,42,127,878181688
118,8,9,Ticks_ISO_T2_8,67,1,48,46,878193112
118,8,9,Ticks_ISO_T2_8,68,1,48,49,878949892
118,8,9,Ticks_ISO_T2_8,69,5,42,127,878981488
118,8,9,Ticks_ISO_T2_8,70,1,48,53,879765428
118,8,9,Ticks_ISO_T2_8,71,5,42,127,879782220
118,8,9,Ticks_ISO_T2_8,72,1,48,40,880582032
118,8,9,Ticks_ISO_T2_8,73,5,42,127,880583444
118,8,9,Ticks_ISO_T2_8,74,5,42,127,881381992
118,8,9,Ticks_ISO_T2_8,75,1,48,44,881399848
118,8,9,Ticks_ISO_T2_8,76,1,48,40,882180600
118,8,9,Ticks_ISO_T2_8,77,5,42,127,882182172
118,8,9,Ticks_ISO_T2_8,78,5,42,127,882982212
118,8,9,Ticks_ISO_T2_8,79,1,48,48,883012328
118,8,9,Ticks_ISO_T2_8,80,5,42,127,883781868
118,8,9,Ticks_ISO_T2_8,81,1,48,42,883827100
118,8,9,Ticks_ISO_T2_8,82,5,42,127,884582120
118,8,9,Ticks_ISO_T2_8,83,1,48,39,884613740
118,8,9,Ticks_ISO_T2_8,84,1,48,41,885366556
118,8,9,Ticks_ISO_T2_8,85,5,42,127,885381624
118,8,9,Ticks_ISO_T2_8,86,5,42,127,886182292
118,8,9,Ticks_ISO_T2_8,87,1,48,29,886238444
118,8,9,Ticks_ISO_T2_8,88,1,48,33,886972404
118,8,9,Ticks_ISO_T2_8,89,5,42,127,886981868
118,8,9,Ticks_ISO_T2_8,90,1,48,37,887775056
118,8,9,Ticks_ISO_T2_8,91,5,42,127,887781900
118,8,9,Ticks_ISO_T2_8,92,5,42,127,888581564
118,8,9,Ticks_ISO_T2_8,93,1,48,52,888601588
118,8,9,Ticks_ISO_T2_8,94,5,42,127,889382196
118,8,9,Ticks_ISO_T2_8,95,1,48,49,889408656
118,8,9,Ticks_ISO_T2_8,96,1,48,50,890174932
118,8,9,Ticks_ISO_T2_8,97,5,42,127,890181924
118,8,9,Ticks_ISO_T2_8,98,1,48,50,890972044
118,8,9,Ticks_ISO_T2_8,99,5,42,127,890981880
118,8,9,Ticks_ISO_T2_8,100,5,42,127,891781768
118,8,9,Ticks_ISO_T2_8,101,1,48,55,891788408
118,8,9,Ticks_ISO_T2_8,102,1,48,55,892567200
118,8,9,Ticks_ISO_T2_8,103,5,42,127,892582192
118,8,9,Ticks_ISO_T2_8,104,1,48,54,893332604
118,8,9,Ticks_ISO_T2_8,105,5,42,127,893381928
118,8,9,Ticks_ISO_T2_8,106,1,48,51,894172952
118,8,9,Ticks_ISO_T2_8,107,5,42,127,894181736
118,8,9,Ticks_ISO_T2_8,108,1,48,43,894974852
118,8,9,Ticks_ISO_T2_8,109,5,42,127,894981468
118,8,9,Ticks_ISO_T2_8,110,1,48,56,895777808
118,8,9,Ticks_ISO_T2_8,111,5,42,127,895782100
118,8,9,Ticks_ISO_T2_8,112,5,42,127,896581988
118,8,9,Ticks_ISO_T2_8,113,1,48,46,896587276
118,8,9,Ticks_ISO_T2_8,114,1,48,58,897366796
118,8,9,Ticks_ISO_T2_8,115,5,42,127,897381716
118,8,9,Ticks_ISO_T2_8,116,1,48,38,898144468
118,8,9,Ticks_ISO_T2_8,117,5,42,127,898181600
118,8,9,Ticks_ISO_T2_8,118,1,48,54,898957140
118,8,9,Ticks_ISO_T2_8,119,5,42,127,898982108
118,8,9,Ticks_ISO_T2_8,120,1,48,51,899739616
118,8,9,Ticks_ISO_T2_8,121,5,42,127,899782064
118,8,9,Ticks_ISO_T2_8,122,1,48,55,900567700
118,8,9,Ticks_ISO_T2_8,123,5,42,127,900581648
118,8,9,Ticks_ISO_T2_8,124,1,48,51,901378356
118,8,9,Ticks_ISO_T2_8,125,5,42,127,901381680
118,8,9,Ticks_ISO_T2_8,126,5,42,127,902182168
118,8,9,Ticks_ISO_T2_8,127,1,48,48,902198976
118,8,9,Ticks_ISO_T2_8,128,1,48,51,902948648
118,8,9,Ticks_ISO_T2_8,129,5,42,127,902982044
118,8,9,Ticks_ISO_T2_8,130,1,48,54,903776884
118,8,9,Ticks_ISO_T2_8,131,5,42,127,903781628
118,8,9,Ticks_ISO_T2_8,132,1,48,59,904563300
118,8,9,Ticks_ISO_T2_8,133,5,42,127,904581440
118,8,9,Ticks_ISO_T2_8,134,5,42,127,905382400
118,8,9,Ticks_ISO_T2_8,135,1,48,59,905404668
118,8,9,Ticks_ISO_T2_8,136,1,48,51,906161972
118,8,9,Ticks_ISO_T2_8,137,5,42,127,906182128
118,8,9,Ticks_ISO_T2_8,138,5,42,127,906981716
118,8,9,Ticks_ISO_T2_8,139,1,48,52,906986784
118,8,9,Ticks_ISO_T2_8,140,1,48,50,907780012
118,8,9,Ticks_ISO_T2_8,141,5,42,127,907781596
118,8,9,Ticks_ISO_T2_8,142,5,42,127,908582160
118,8,9,Ticks_ISO_T2_8,143,1,48,49,908606972
118,8,9,Ticks_ISO_T2_8,144,5,42,127,909381892
118,8,9,Ticks_ISO_T2_8,145,1,48,54,909388748
118,8,9,Ticks_ISO_T2_8,146,5,42,127,910181852
118,8,9,Ticks_ISO_T2_8,147,1,48,53,910213544
118,8,9,Ticks_ISO_T2_8,148,5,42,127,910981360
118,8,9,Ticks_ISO_T2_8,149,1,48,51,911002452
118,8,9,Ticks_ISO_T2_8,150,5,42,127,911782388
118,8,9,Ticks_ISO_T2_8,151,1,48,52,911801444
118,8,9,Ticks_ISO_T2_8,152,5,42,127,912581972
118,8,9,Ticks_ISO_T2_8,153,1,48,58,912593468
118,8,9,Ticks_ISO_T2_8,154,5,42,127,913381632
118,8,9,Ticks_ISO_T2_8,155,1,48,49,913398436
118,8,9,Ticks_ISO_T2_8,156,5,42,127,914181516
118,8,9,Ticks_ISO_T2_8,157,1,48,56,914187404
118,8,9,Ticks_ISO_T2_8,158,5,42,127,914982368
118,8,9,Ticks_ISO_T2_8,159,1,48,54,915000376
118,8,9,Ticks_ISO_T2_8,160,1,48,56,915773464
118,8,9,Ticks_ISO_T2_8,161,5,42,127,915782020
118,8,9,Ticks_ISO_T2_8,162,5,42,127,916581760
118,8,9,Ticks_ISO_T2_8,163,1,48,52,916618764
118,8,9,Ticks_ISO_T2_8,164,5,42,127,917381496
118,8,9,Ticks_ISO_T2_8,165,1,48,56,917390376
118,8,9,Ticks_ISO_T2_8,166,5,42,127,918182376
118,8,9,Ticks_ISO_T2_8,167,1,48,50,918186092
118,8,9,Ticks_ISO_T2_8,168,5,42,127,918982108
118,8,9,Ticks_ISO_T2_8,169,1,48,56,919019036
118,8,9,Ticks_ISO_T2_8,170,5,42,127,919781768
118,8,9,Ticks_ISO_T2_8,171,1,48,51,919792288
118,8,9,Ticks_ISO_T2_8,172,5,42,127,920581576
118,8,9,Ticks_ISO_T2_8,173,1,48,37,920591128
118,8,9,Ticks_ISO_T2_8,174,5,42,127,921382356
118,8,9,Ticks_ISO_T2_8,175,1,48,55,921409788
118,8,9,Ticks_ISO_T2_8,176,1,48,59,922174944
118,8,9,Ticks_ISO_T2_8,177,5,42,127,922182084
118,8,9,Ticks_ISO_T2_8,178,5,42,127,922981600
118,8,9,Ticks_ISO_T2_8,179,1,48,55,922995188
118,8,9,Ticks_ISO_T2_8,180,1,48,56,923771640
118,8,9,Ticks_ISO_T2_8,181,5,42,127,923781624
118,8,9,Ticks_ISO_T2_8,182,5,42,127,924582212
118,8,9,Ticks_ISO_T2_8,183,1,48,58,924603436
118,8,9,Ticks_ISO_T2_8,184,5,42,127,925381948
118,8,9,Ticks_ISO_T2_8,185,1,48,55,925414760
118,8,9,Ticks_ISO_T2_8,186,5,42,127,926181608
118,8,9,Ticks_ISO_T2_8,187,1,48,56,926197512
118,8,9,Ticks_ISO_T2_8,188,5,42,127,926981488
118,8,9,Ticks_ISO_T2_8,189,1,48,56,926982452
118,8,9,Ticks_ISO_T2_8,190,1,48,51,927770860
118,8,9,Ticks_ISO_T2_8,191,5,42,127,927782336
118,8,9,Ticks_ISO_T2_8,192,1,48,43,928574928
118,8,9,Ticks_ISO_T2_8,193,5,42,127,928582068
118,8,9,Ticks_ISO_T2_8,194,5,42,127,929381660
118,8,9,Ticks_ISO_T2_8,195,1,48,51,929382624
118,8,9,Ticks_ISO_T2_8,196,5,42,127,930181468
118,8,9,Ticks_ISO_T2_8,197,1,48,50,930185708
118,8,9,Ticks_ISO_T2_8,198,1,48,54,930961212
118,8,9,Ticks_ISO_T2_8,199,5,42,127,930982188
118,8,9,Ticks_ISO_T2_8,200,5,42,127,931782080
118,8,9,Ticks_ISO_T2_8,201,1,48,46,931800088
118,8,9,Ticks_ISO_T2_8,202,5,42,127,932581664
118,8,9,Ticks_ISO_T2_8,203,1,48,51,933373004
118,8,9,Ticks_ISO_T2_8,204,5,42,127,933381340
118,8,9,Ticks_ISO_T2_8,205,5,42,127,934182348
118,8,9,Ticks_ISO_T2_8,206,1,48,53,934189360
118,8,9,Ticks_ISO_T2_8,207,5,42,127,934982156
118,8,9,Ticks_ISO_T2_8,208,1,48,58,934995448
118,8,9,Ticks_ISO_T2_8,209,1,48,64,935779924
118,8,9,Ticks_ISO_T2_8,210,5,42,127,935781660
118,8,9,Ticks_ISO_T2_8,211,5,42,127,936581476
118,8,9,Ticks_ISO_T2_8,212,1,48,43,936593820
118,8,9,Ticks_ISO_T2_8,213,5,42,127,937382204
118,8,9,Ticks_ISO_T2_8,214,1,48,52,937403272
118,8,9,Ticks_ISO_T2_8,215,1,48,37,937805020
118,8,9,Ticks_ISO_T2_8,216,5,42,127,938182216
118,8,9,Ticks_ISO_T2_8,217,5,42,127,938981820
118,8,9,Ticks_ISO_T2_8,218,1,48,52,939021740
118,8,9,Ticks_ISO_T2_8,219,5,42,127,939781408
118,8,9,Ticks_ISO_T2_8,220,1,48,54,939818264
118,8,9,Ticks_ISO_T2_8,221,5,42,127,940582264
118,8,9,Ticks_ISO_T2_8,222,1,48,64,940594508
118,8,9,Ticks_ISO_T2_8,223,5,42,127,941382068
118,8,9,Ticks_ISO_T2_8,224,1,48,60,941398876
118,8,9,Ticks_ISO_T2_8,225,5,42,127,942182100
118,8,9,Ticks_ISO_T2_8,226,1,48,63,942183740
118,8,9,Ticks_ISO_T2_8,227,1,48,58,942967960
118,8,9,Ticks_ISO_T2_8,228,5,42,127,942981456
118,8,9,Ticks_ISO_T2_8,229,5,42,127,943782120
118,8,9,Ticks_ISO_T2_8,230,1,48,52,943803112
118,8,9,Ticks_ISO_T2_8,231,1,48,49,944573880
118,8,9,Ticks_ISO_T2_8,232,5,42,127,944581992
118,8,9,Ticks_ISO_T2_8,233,5,42,127,945382032
118,8,9,Ticks_ISO_T2_8,234,1,48,51,945425616
118,8,9,Ticks_ISO_T2_8,235,5,42,127,946181692
118,8,9,Ticks_ISO_T2_8,236,1,48,53,946183028
118,8,9,Ticks_ISO_T2_8,237,5,42,127,946982324
118,8,9,Ticks_ISO_T2_8,238,1,48,50,946998756
118,8,9,Ticks_ISO_T2_8,0,9999,9999,9999,851779652
118,8,9,Ticks_ISO_T2_8,1,9999,9999,9999,852579408
118,8,9,Ticks_ISO_T2_8,2,9999,9999,9999,853379156
118,8,9,Ticks_ISO_T2_8,3,9999,9999,9999,854179960
118,8,9,Ticks_ISO_T2_8,4,9999,9999,9999,854979696
118,8,9,Ticks_ISO_T2_8,5,9999,9999,9999,855779432
118,8,9,Ticks_ISO_T2_8,6,9999,9999,9999,856579168
118,8,9,Ticks_ISO_T2_8,7,9999,9999,9999,857379948
118,8,9,Ticks_ISO_T2_8,8,9999,9999,9999,858179672
118,8,9,Ticks_ISO_T2_8,9,9999,9999,9999,858979404
118,8,9,Ticks_ISO_T2_8,10,9999,9999,9999,859779140
118,8,9,Ticks_ISO_T2_8,11,9999,9999,9999,860579944
118,8,9,Ticks_ISO_T2_8,12,9999,9999,9999,861379680
118,8,9,Ticks_ISO_T2_8,13,9999,9999,9999,862179416
118,8,9,Ticks_ISO_T2_8,14,9999,9999,9999,862979152
118,8,9,Ticks_ISO_T2_8,15,9999,9999,9999,863779928
118,8,9,Ticks_ISO_T2_8,16,9999,9999,9999,864579664
118,8,9,Ticks_ISO_T2_8,17,9999,9999,9999,865379400
118,8,9,Ticks_ISO_T2_8,18,9999,9999,9999,866179124
118,8,9,Ticks_ISO_T2_8,19,9999,9999,9999,866979936
118,8,9,Ticks_ISO_T2_8,20,9999,9999,9999,867779664
118,8,9,Ticks_ISO_T2_8,21,9999,9999,9999,868579404
118,8,9,Ticks_ISO_T2_8,22,9999,9999,9999,869379184
118,8,9,Ticks_ISO_T2_8,23,9999,9999,9999,870179896
118,8,9,Ticks_ISO_T2_8,24,9999,9999,9999,870979704
118,8,9,Ticks_ISO_T2_8,25,9999,9999,9999,871779436
118,8,9,Ticks_ISO_T2_8,26,9999,9999,9999,872579148
118,8,9,Ticks_ISO_T2_8,27,9999,9999,9999,873379952
118,8,9,Ticks_ISO_T2_8,28,9999,9999,9999,874179680
118,8,9,Ticks_ISO_T2_8,29,9999,9999,9999,874979416
118,8,9,Ticks_ISO_T2_8,30,9999,9999,9999,875779148
118,8,9,Ticks_ISO_T2_8,31,9999,9999,9999,876579928
118,8,9,Ticks_ISO_T2_8,32,9999,9999,9999,877379668
118,8,9,Ticks_ISO_T2_8,33,9999,9999,9999,878179400
118,8,9,Ticks_ISO_T2_8,34,9999,9999,9999,878979128
118,8,9,Ticks_ISO_T2_8,35,9999,9999,9999,879779932
118,8,9,Ticks_ISO_T2_8,36,9999,9999,9999,880579672
118,8,9,Ticks_ISO_T2_8,37,9999,9999,9999,881379408
118,8,9,Ticks_ISO_T2_8,38,9999,9999,9999,882179140
118,8,9,Ticks_ISO_T2_8,39,9999,9999,9999,882979920
118,8,9,Ticks_ISO_T2_8,40,9999,9999,9999,883779656
118,8,9,Ticks_ISO_T2_8,41,9999,9999,9999,884579388
118,8,9,Ticks_ISO_T2_8,42,9999,9999,9999,885379188
118,8,9,Ticks_ISO_T2_8,43,9999,9999,9999,886179928
118,8,9,Ticks_ISO_T2_8,44,9999,9999,9999,886979652
118,8,9,Ticks_ISO_T2_8,45,9999,9999,9999,887779388
118,8,9,Ticks_ISO_T2_8,46,9999,9999,9999,888579128
118,8,9,Ticks_ISO_T2_8,47,9999,9999,9999,889379908
118,8,9,Ticks_ISO_T2_8,48,9999,9999,9999,890179636
118,8,9,Ticks_ISO_T2_8,49,9999,9999,9999,890979444
118,8,9,Ticks_ISO_T2_8,50,9999,9999,9999,891779184
118,8,9,Ticks_ISO_T2_8,51,9999,9999,9999,892579904
118,8,9,Ticks_ISO_T2_8,52,9999,9999,9999,893379640
118,8,9,Ticks_ISO_T2_8,53,9999,9999,9999,894179376
118,8,9,Ticks_ISO_T2_8,54,9999,9999,9999,894979184
118,8,9,Ticks_ISO_T2_8,55,9999,9999,9999,895779888
118,8,9,Ticks_ISO_T2_8,56,9999,9999,9999,896579700
118,8,9,Ticks_ISO_T2_8,57,9999,9999,9999,897379428
118,8,9,Ticks_ISO_T2_8,58,9999,9999,9999,898179164
118,8,9,Ticks_ISO_T2_8,59,9999,9999,9999,898979892
118,8,9,Ticks_ISO_T2_8,60,9999,9999,9999,899779700
118,8,9,Ticks_ISO_T2_8,61,9999,9999,9999,900579436
118,8,9,Ticks_ISO_T2_8,62,9999,9999,9999,901379168
118,8,9,Ticks_ISO_T2_8,63,9999,9999,9999,902179956
118,8,9,Ticks_ISO_T2_8,64,9999,9999,9999,902979684
118,8,9,Ticks_ISO_T2_8,65,9999,9999,9999,903779416
118,8,9,Ticks_ISO_T2_8,66,9999,9999,9999,904579152
118,8,9,Ticks_ISO_T2_8,67,9999,9999,9999,905379888
118,8,9,Ticks_ISO_T2_8,68,9999,9999,9999,906179692
118,8,9,Ticks_ISO_T2_8,69,9999,9999,9999,906979428
118,8,9,Ticks_ISO_T2_8,70,9999,9999,9999,907779164
118,8,9,Ticks_ISO_T2_8,71,9999,9999,9999,908579944
118,8,9,Ticks_ISO_T2_8,72,9999,9999,9999,909379680
118,8,9,Ticks_ISO_T2_8,73,9999,9999,9999,910179412
118,8,9,Ticks_ISO_T2_8,74,9999,9999,9999,910979144
118,8,9,Ticks_ISO_T2_8,75,9999,9999,9999,911779952
118,8,9,Ticks_ISO_T2_8,76,9999,9999,9999,912579684
118,8,9,Ticks_ISO_T2_8,77,9999,9999,9999,913379420
118,8,9,Ticks_ISO_T2_8,78,9999,9999,9999,914179152
118,8,9,Ticks_ISO_T2_8,79,9999,9999,9999,914979932
118,8,9,Ticks_ISO_T2_8,80,9999,9999,9999,915779660
118,8,9,Ticks_ISO_T2_8,81,9999,9999,9999,916579400
118,8,9,Ticks_ISO_T2_8,82,9999,9999,9999,917379132
118,8,9,Ticks_ISO_T2_8,83,9999,9999,9999,918179940
118,8,9,Ticks_ISO_T2_8,84,9999,9999,9999,918979672
118,8,9,Ticks_ISO_T2_8,85,9999,9999,9999,919779404
118,8,9,Ticks_ISO_T2_8,86,9999,9999,9999,920579136
118,8,9,Ticks_ISO_T2_8,87,9999,9999,9999,921379920
118,8,9,Ticks_ISO_T2_8,88,9999,9999,9999,922179648
118,8,9,Ticks_ISO_T2_8,89,9999,9999,9999,922979384
118,8,9,Ticks_ISO_T2_8,90,9999,9999,9999,923779188
118,8,9,Ticks_ISO_T2_8,91,9999,9999,9999,924579924
118,8,9,Ticks_ISO_T2_8,92,9999,9999,9999,925379656
118,8,9,Ticks_ISO_T2_8,93,9999,9999,9999,926179392
118,8,9,Ticks_ISO_T2_8,94,9999,9999,9999,926979124
118,8,9,Ticks_ISO_T2_8,95,9999,9999,9999,927779900
118,8,9,Ticks_ISO_T2_8,96,9999,9999,9999,928579632
118,8,9,Ticks_ISO_T2_8,97,9999,9999,9999,929379444
118,8,9,Ticks_ISO_T2_8,98,9999,9999,9999,930179180
118,8,9,Ticks_ISO_T2_8,99,9999,9999,9999,930979904
118,8,9,Ticks_ISO_T2_8,100,9999,9999,9999,931779644
118,8,9,Ticks_ISO_T2_8,101,9999,9999,9999,932579376
118,8,9,Ticks_ISO_T2_8,102,9999,9999,9999,933379124
118,8,9,Ticks_ISO_T2_8,103,9999,9999,9999,934179912
118,8,9,Ticks_ISO_T2_8,104,9999,9999,9999,934979644
118,8,9,Ticks_ISO_T2_8,105,9999,9999,9999,935779400
118,8,9,Ticks_ISO_T2_8,106,9999,9999,9999,936579188
118,8,9,Ticks_ISO_T2_8,107,9999,9999,9999,937379916
118,8,9,Ticks_ISO_T2_8,108,9999,9999,9999,938179704
118,8,9,Ticks_ISO_T2_8,109,9999,9999,9999,938979384
118,8,9,Ticks_ISO_T2_8,110,9999,9999,9999,939779120
118,8,9,Ticks_ISO_T2_8,111,9999,9999,9999,940579900
118,8,9,Ticks_ISO_T2_8,112,9999,9999,9999,941379632
118,8,9,Ticks_ISO_T2_8,113,9999,9999,9999,942179440
118,8,9,Ticks_ISO_T2_8,114,9999,9999,9999,942979168
118,8,9,Ticks_ISO_T2_8,115,9999,9999,9999,943779904
118,8,9,Ticks_ISO_T2_8,116,9999,9999,9999,944579632
118,8,9,Ticks_ISO_T2_8,117,9999,9999,9999,945379444
118,8,9,Ticks_ISO_T2_8,118,9999,9999,9999,946179180
118,8,9,Ticks_ISO_T2_8,119,9999,9999,9999,946979960
118,9,21,Ticks_Linear_5,0,5,42,127,956616036
118,9,21,Ticks_Linear_5,1,5,42,127,957096212
118,9,21,Ticks_Linear_5,2,5,42,127,957575760
118,9,21,Ticks_Linear_5,3,5,42,127,958055788
118,9,21,Ticks_Linear_5,4,1,48,69,958501464
118,9,21,Ticks_Linear_5,5,5,42,127,958535956
118,9,21,Ticks_Linear_5,6,1,48,36,958569840
118,9,21,Ticks_Linear_5,7,1,48,65,958979356
118,9,21,Ticks_Linear_5,8,5,42,127,959025600
118,9,21,Ticks_Linear_5,9,1,48,63,959472908
118,9,21,Ticks_Linear_5,10,5,42,127,959516012
118,9,21,Ticks_Linear_5,11,1,48,55,959953804
118,9,21,Ticks_Linear_5,12,5,42,127,960005676
118,9,21,Ticks_Linear_5,13,1,48,57,960443400
118,9,21,Ticks_Linear_5,14,5,42,127,960496012
118,9,21,Ticks_Linear_5,15,1,48,56,960938832
118,9,21,Ticks_Linear_5,16,5,42,127,960985532
118,9,21,Ticks_Linear_5,17,1,48,54,961440032
118,9,21,Ticks_Linear_5,18,5,42,127,961486128
118,9,21,Ticks_Linear_5,19,1,48,51,961942272
118,9,21,Ticks_Linear_5,20,5,42,127,961985828
118,9,21,Ticks_Linear_5,21,1,48,54,962462340
118,9,21,Ticks_Linear_5,22,5,42,127,962485676
118,9,21,Ticks_Linear_5,23,1,48,52,962966460
118,9,21,Ticks_Linear_5,24,5,42,127,962986348
118,9,21,Ticks_Linear_5,25,1,48,49,963451008
118,9,21,Ticks_Linear_5,26,5,42,127,963486124
118,9,21,Ticks_Linear_5,27,1,48,57,963954160
118,9,21,Ticks_Linear_5,28,5,42,127,963996156
118,9,21,Ticks_Linear_5,29,1,48,52,964476172
118,9,21,Ticks_Linear_5,30,5,42,127,964505968
118,9,21,Ticks_Linear_5,31,1,48,61,964974004
118,9,21,Ticks_Linear_5,32,5,42,127,965016072
118,9,21,Ticks_Linear_5,33,1,48,63,965464040
118,9,21,Ticks_Linear_5,34,5,42,127,965525884
118,9,21,Ticks_Linear_5,35,1,48,54,965985976
118,9,21,Ticks_Linear_5,36,5,42,127,966035840
118,9,21,Ticks_Linear_5,37,1,48,55,966471892
118,9,21,Ticks_Linear_5,38,5,42,127,966555984
118,9,21,Ticks_Linear_5,39,1,48,51,967072560
118,9,21,Ticks_Linear_5,40,5,42,127,967076276
118,9,21,Ticks_Linear_5,41,1,48,47,967594984
118,9,21,Ticks_Linear_5,42,5,42,127,967596572
118,9,21,Ticks_Linear_5,43,1,48,52,968098400
118,9,21,Ticks_Linear_5,44,5,42,127,968115516
118,9,21,Ticks_Linear_5,45,1,48,53,968587520
118,9,21,Ticks_Linear_5,46,5,42,127,968635812
118,9,21,Ticks_Linear_5,47,1,48,47,969113832
118,9,21,Ticks_Linear_5,48,5,42,127,969166360
118,9,21,Ticks_Linear_5,49,1,48,36,969649472
118,9,21,Ticks_Linear_5,50,5,42,127,969695492
118,9,21,Ticks_Linear_5,51,1,48,55,970166848
118,9,21,Ticks_Linear_5,52,5,42,127,970225896
118,9,21,Ticks_Linear_5,53,1,48,51,970664376
118,9,21,Ticks_Linear_5,54,5,42,127,970755328
118,9,21,Ticks_Linear_5,55,1,48,60,971212068
118,9,21,Ticks_Linear_5,56,5,42,127,971286028
118,9,21,Ticks_Linear_5,57,1,48,57,971800960
118,9,21,Ticks_Linear_5,58,5,42,127,971825492
118,9,21,Ticks_Linear_5,59,5,42,127,972366384
118,9,21,Ticks_Linear_5,60,1,48,51,972385312
118,9,21,Ticks_Linear_5,61,5,42,127,972905704
118,9,21,Ticks_Linear_5,62,1,48,56,972909044
118,9,21,Ticks_Linear_5,63,1,48,59,973437036
118,9,21,Ticks_Linear_5,64,5,42,127,973445384
118,9,21,Ticks_Linear_5,65,1,48,57,973977344
118,9,21,Ticks_Linear_5,66,5,42,127,973986368
118,9,21,Ticks_Linear_5,67,1,48,55,974506996
118,9,21,Ticks_Linear_5,68,5,42,127,974536244
118,9,21,Ticks_Linear_5,69,1,48,58,975045868
118,9,21,Ticks_Linear_5,70,5,42,127,975085820
118,9,21,Ticks_Linear_5,71,1,48,59,975628392
118,9,21,Ticks_Linear_5,72,5,42,127,975635696
118,9,21,Ticks_Linear_5,73,5,42,127,976185576
118,9,21,Ticks_Linear_5,74,1,48,53,976221640
118,9,21,Ticks_Linear_5,75,5,42,127,976735600
118,9,21,Ticks_Linear_5,76,1,48,56,976740368
118,9,21,Ticks_Linear_5,77,1,48,57,977285576
118,9,21,Ticks_Linear_5,78,5,42,127,977295600
118,9,21,Ticks_Linear_5,79,1,48,56,977810232
118,9,21,Ticks_Linear_5,80,5,42,127,977855808
118,9,21,Ticks_Linear_5,81,1,48,55,978412000
118,9,21,Ticks_Linear_5,82,5,42,127,978415940
118,9,21,Ticks_Linear_5,83,5,42,127,978976080
118,9,21,Ticks_Linear_5,84,1,48,58,979006236
118,9,21,Ticks_Linear_5,85,1,48,62,979531220
118,9,21,Ticks_Linear_5,86,5,42,127,979536132
118,9,21,Ticks_Linear_5,87,1,48,57,980089332
118,9,21,Ticks_Linear_5,88,5,42,127,980105628
118,9,21,Ticks_Linear_5,89,1,48,56,980625908
118,9,21,Ticks_Linear_5,90,5,42,127,980675896
118,9,21,Ticks_Linear_5,91,1,48,62,981235164
118,9,21,Ticks_Linear_5,92,5,42,127,981246284
118,9,21,Ticks_Linear_5,93,1,48,59,981771248
118,9,21,Ticks_Linear_5,94,5,42,127,981815704
118,9,21,Ticks_Linear_5,95,1,48,60,982369280
118,9,21,Ticks_Linear_5,96,5,42,127,982386244
118,9,21,Ticks_Linear_5,97,1,48,59,982950704
118,9,21,Ticks_Linear_5,98,5,42,127,982965580
118,9,21,Ticks_Linear_5,99,1,48,65,983494000
118,9,21,Ticks_Linear_5,100,5,42,127,983546156
118,9,21,Ticks_Linear_5,101,1,48,63,984082652
118,9,21,Ticks_Linear_5,102,5,42,127,984125688
118,9,21,Ticks_Linear_5,103,1,48,66,984672444
118,9,21,Ticks_Linear_5,104,5,42,127,984706488
118,9,21,Ticks_Linear_5,105,1,48,65,985265108
118,9,21,Ticks_Linear_5,106,5,42,127,985296224
118,9,21,Ticks_Linear_5,107,5,42,127,985886316
118,9,21,Ticks_Linear_5,108,1,48,67,985906140
118,9,21,Ticks_Linear_5,109,5,42,127,986476032
118,9,21,Ticks_Linear_5,110,1,48,61,986484400
118,9,21,Ticks_Linear_5,111,5,42,127,987065624
118,9,21,Ticks_Linear_5,112,1,48,55,987106640
118,9,21,Ticks_Linear_5,113,5,42,127,987655488
118,9,21,Ticks_Linear_5,114,1,48,51,987677932
118,9,21,Ticks_Linear_5,115,5,42,127,988246400
118,9,21,Ticks_Linear_5,116,1,48,54,988262620
118,9,21,Ticks_Linear_5,117,5,42,127,988845424
118,9,21,Ticks_Linear_5,118,1,48,60,988852880
118,9,21,Ticks_Linear_5,119,1,48,56,989443960
118,9,21,Ticks_Linear_5,120,5,42,127,989445392
118,9,21,Ticks_Linear_5,121,1,48,54,990038584
118,9,21,Ticks_Linear_5,122,5,42,127,990045516
118,9,21,Ticks_Linear_5,123,1,48,56,990636268
118,9,21,Ticks_Linear_5,124,5,42,127,990645516
118,9,21,Ticks_Linear_5,125,1,48,59,991232636
118,9,21,Ticks_Linear_5,126,5,42,127,991245640
118,9,21,Ticks_Linear_5,127,5,42,127,991855952
118,9,21,Ticks_Linear_5,128,1,48,57,991867612
118,9,21,Ticks_Linear_5,129,1,48,54,992446244
118,9,21,Ticks_Linear_5,130,5,42,127,992466276
118,9,21,Ticks_Linear_5,131,1,48,52,993021276
118,9,21,Ticks_Linear_5,132,5,42,127,993075688
118,9,21,Ticks_Linear_5,133,1,48,62,993620576
118,9,21,Ticks_Linear_5,134,5,42,127,993685872
118,9,21,Ticks_Linear_5,135,1,48,48,994254956
118,9,21,Ticks_Linear_5,136,5,42,127,994296180
118,9,21,Ticks_Linear_5,137,5,42,127,994915852
118,9,21,Ticks_Linear_5,138,1,48,58,994982952
118,9,21,Ticks_Linear_5,139,5,42,127,995536220
118,9,21,Ticks_Linear_5,140,1,48,58,995553188
118,9,21,Ticks_Linear_5,141,5,42,127,996156040
118,9,21,Ticks_Linear_5,142,1,48,54,996175044
118,9,21,Ticks_Linear_5,143,1,48,54,996776708
118,9,21,Ticks_Linear_5,144,5,42,127,996777824
118,9,21,Ticks_Linear_5,145,1,48,59,997385404
118,9,21,Ticks_Linear_5,146,5,42,127,997396072
118,9,21,Ticks_Linear_5,147,1,48,59,997996528
118,9,21,Ticks_Linear_5,148,5,42,127,998025704
118,9,21,Ticks_Linear_5,149,1,48,58,998628932
118,9,21,Ticks_Linear_5,150,5,42,127,998656308
118,9,21,Ticks_Linear_5,151,1,48,57,999272032
118,9,21,Ticks_Linear_5,152,5,42,127,999286008
118,9,21,Ticks_Linear_5,153,5,42,127,999915820
118,9,21,Ticks_Linear_5,154,1,48,56,999916788
118,9,21,Ticks_Linear_5,155,1,48,52,1000517920
118,9,21,Ticks_Linear_5,156,5,42,127,1000545592
118,9,21,Ticks_Linear_5,157,1,48,58,1001127652
118,9,21,Ticks_Linear_5,158,5,42,127,1001185804
118,9,21,Ticks_Linear_5,159,1,48,64,1001787540
118,9,21,Ticks_Linear_5,160,5,42,127,1001825768
118,9,21,Ticks_Linear_5,161,1,48,57,1002440852
118,9,21,Ticks_Linear_5,162,5,42,127,1002465904
118,9,21,Ticks_Linear_5,163,1,48,60,1003077148
118,9,21,Ticks_Linear_5,164,5,42,127,1003105868
118,9,21,Ticks_Linear_5,165,1,48,62,1003707776
118,9,21,Ticks_Linear_5,166,5,42,127,1003745708
118,9,21,Ticks_Linear_5,167,1,48,58,1004306704
118,9,21,Ticks_Linear_5,168,5,42,127,1004396004
118,9,21,Ticks_Linear_5,169,1,48,62,1005004728
118,9,21,Ticks_Linear_5,170,5,42,127,1005046176
118,9,21,Ticks_Linear_5,171,1,48,67,1005682500
118,9,21,Ticks_Linear_5,172,5,42,127,1005696328
118,9,21,Ticks_Linear_5,173,1,48,48,1006339940
118,9,21,Ticks_Linear_5,174,5,42,127,1006345748
118,9,21,Ticks_Linear_5,175,1,48,58,1006995932
118,9,21,Ticks_Linear_5,176,5,42,127,1006997196
118,9,21,Ticks_Linear_5,177,5,42,127,1007656264
118,9,21,Ticks_Linear_5,178,1,48,67,1007710232
118,9,21,Ticks_Linear_5,179,1,48,54,1008304744
118,9,21,Ticks_Linear_5,180,5,42,127,1008315644
118,9,21,Ticks_Linear_5,181,1,48,59,1008944108
118,9,21,Ticks_Linear_5,182,5,42,127,1008976196
118,9,21,Ticks_Linear_5,183,1,48,59,1009631940
118,9,21,Ticks_Linear_5,184,5,42,127,1009635732
118,9,21,Ticks_Linear_5,185,5,42,127,1010296296
118,9,21,Ticks_Linear_5,186,1,48,60,1010299564
118,9,21,Ticks_Linear_5,187,1,48,57,1010936912
118,9,21,Ticks_Linear_5,188,5,42,127,1010965860
118,9,21,Ticks_Linear_5,189,1,48,54,1011570132
118,9,21,Ticks_Linear_5,190,5,42,127,1011635652
118,9,21,Ticks_Linear_5,191,1,48,58,1012280588
118,9,21,Ticks_Linear_5,192,5,42,127,1012306168
118,9,21,Ticks_Linear_5,193,5,42,127,1012975968
118,9,21,Ticks_Linear_5,194,1,48,64,1012993844
118,9,21,Ticks_Linear_5,195,1,48,60,1013637232
118,9,21,Ticks_Linear_5,196,5,42,127,1013645608
118,9,21,Ticks_Linear_5,197,1,48,49,1014287924
118,9,21,Ticks_Linear_5,198,5,42,127,1014325560
118,9,21,Ticks_Linear_5,199,1,48,57,1014965360
118,9,21,Ticks_Linear_5,200,5,42,127,1015005536
118,9,21,Ticks_Linear_5,201,1,48,54,1015632868
118,9,21,Ticks_Linear_5,202,5,42,127,1015685788
118,9,21,Ticks_Linear_5,203,1,48,46,1016352612
118,9,21,Ticks_Linear_5,204,5,42,127,1016365692
118,9,21,Ticks_Linear_5,205,5,42,127,1017046428
118,9,21,Ticks_Linear_5,206,1,48,49,1017062648
118,9,21,Ticks_Linear_5,207,1,48,55,1017713908
118,9,21,Ticks_Linear_5,208,5,42,127,1017735656
118,9,21,Ticks_Linear_5,209,1,48,57,1018378528
118,9,21,Ticks_Linear_5,210,5,42,127,1018425672
118,9,21,Ticks_Linear_5,211,1,48,58,1019092200
118,9,21,Ticks_Linear_5,212,5,42,127,1019115912
118,9,21,Ticks_Linear_5,213,1,48,52,1019776800
118,9,21,Ticks_Linear_5,214,5,42,127,1019806148
118,9,21,Ticks_Linear_5,215,1,48,57,1020480888
118,9,21,Ticks_Linear_5,216,5,42,127,1020496360
118,9,21,Ticks_Linear_5,217,1,48,55,1021163564
118,9,21,Ticks_Linear_5,218,5,42,127,1021195660
118,9,21,Ticks_Linear_5,219,1,48,45,1021887280
118,9,21,Ticks_Linear_5,220,5,42,127,1021896008
118,9,21,Ticks_Linear_5,221,5,42,127,1022595440
118,9,21,Ticks_Linear_5,222,1,48,49,1022618204
118,9,21,Ticks_Linear_5,223,5,42,127,1023295788
118,9,21,Ticks_Linear_5,224,1,48,48,1023318452
118,9,21,Ticks_Linear_5,225,5,42,127,1023996432
118,9,21,Ticks_Linear_5,226,1,48,63,1024005472
118,9,21,Ticks_Linear_5,227,1,48,50,1024699052
118,9,21,Ticks_Linear_5,228,5,42,127,1024705912
118,9,21,Ticks_Linear_5,229,1,48,63,1025394588
118,9,21,Ticks_Linear_5,230,5,42,127,1025415524
118,9,21,Ticks_Linear_5,231,1,48,62,1026105720
118,9,21,Ticks_Linear_5,232,5,42,127,1026126352
118,9,21,Ticks_Linear_5,233,5,42,127,1026835916
118,9,21,Ticks_Linear_5,234,1,48,55,1026848248
118,9,21,Ticks_Linear_5,235,5,42,127,1027545480
118,9,21,Ticks_Linear_5,236,1,48,49,1027588960
118,9,21,Ticks_Linear_5,237,1,48,53,1028248248
118,9,21,Ticks_Linear_5,238,5,42,127,1028266336
118,9,21,Ticks_Linear_5,239,1,48,63,1028986212
118,9,21,Ticks_Linear_5,240,5,42,127,1028987552
118,9,21,Ticks_Linear_5,241,5,42,127,1029706180
118,9,21,Ticks_Linear_5,242,1,48,60,1029754464
118,9,21,Ticks_Linear_5,243,5,42,127,1030425924
118,9,21,Ticks_Linear_5,244,1,48,59,1030438332
118,9,21,Ticks_Linear_5,245,1,48,61,1031121280
118,9,21,Ticks_Linear_5,246,5,42,127,1031145812
118,9,21,Ticks_Linear_5,247,5,42,127,1031876120
118,9,21,Ticks_Linear_5,248,1,48,60,1031898932
118,9,21,Ticks_Linear_5,249,1,48,48,1032586460
118,9,21,Ticks_Linear_5,250,5,42,127,1032606264
118,9,21,Ticks_Linear_5,251,1,48,50,1033231056
118,9,21,Ticks_Linear_5,252,5,42,127,1033336304
118,9,21,Ticks_Linear_5,253,1,48,59,1034049732
118,9,21,Ticks_Linear_5,254,5,42,127,1034066172
118,9,21,Ticks_Linear_5,255,1,48,45,1034789172
118,9,21,Ticks_Linear_5,256,5,42,127,1034796328
118,9,21,Ticks_Linear_5,257,1,48,52,1035521492
118,9,21,Ticks_Linear_5,258,5,42,127,1035535836
118,9,21,Ticks_Linear_5,259,5,42,127,1036276108
118,9,21,Ticks_Linear_5,260,1,48,62,1036318468
118,9,21,Ticks_Linear_5,261,5,42,127,1037016300
118,9,21,Ticks_Linear_5,262,1,48,57,1037125688
118,9,21,Ticks_Linear_5,263,5,42,127,1037766144
118,9,21,Ticks_Linear_5,264,1,48,53,1037815924
118,9,21,Ticks_Linear_5,265,5,42,127,1038506256
118,9,21,Ticks_Linear_5,266,1,48,52,1038552880
118,9,21,Ticks_Linear_5,267,1,48,54,1039249544
118,9,21,Ticks_Linear_5,268,5,42,127,1039256024
118,9,21,Ticks_Linear_5,269,1,48,55,1040004424
118,9,21,Ticks_Linear_5,270,5,42,127,1040006068
118,9,21,Ticks_Linear_5,271,5,42,127,1040756076
118,9,21,Ticks_Linear_5,272,1,48,54,1040790076
118,9,21,Ticks_Linear_5,273,5,42,127,1041505628
118,9,21,Ticks_Linear_5,274,1,48,50,1041518256
118,9,21,Ticks_Linear_5,275,1,48,34,1042237228
118,9,21,Ticks_Linear_5,276,5,42,127,1042256144
118,9,21,Ticks_Linear_5,277,5,42,127,1043016032
118,9,21,Ticks_Linear_5,278,1,48,57,1043019904
118,9,21,Ticks_Linear_5,279,1,48,47,1043735280
118,9,21,Ticks_Linear_5,280,5,42,127,1043775984
118,9,21,Ticks_Linear_5,281,5,42,127,1044535648
118,9,21,Ticks_Linear_5,282,1,48,52,1044577340
118,9,21,Ticks_Linear_5,283,1,48,55,1045258492
118,9,21,Ticks_Linear_5,284,5,42,127,1045295524
118,9,21,Ticks_Linear_5,285,1,48,55,1046053040
118,9,21,Ticks_Linear_5,286,5,42,127,1046056304
118,9,21,Ticks_Linear_5,287,5,42,127,1046826304
118,9,21,Ticks_Linear_5,288,1,48,56,1046863492
118,9,21,Ticks_Linear_5,289,5,42,127,1047596376
118,9,21,Ticks_Linear_5,290,1,48,54,1047606008
118,9,21,Ticks_Linear_5,291,5,42,127,1048365544
118,9,21,Ticks_Linear_5,292,1,48,52,1048401984
118,9,21,Ticks_Linear_5,293,5,42,127,1049135460
118,9,21,Ticks_Linear_5,294,1,48,49,1049175056
118,9,21,Ticks_Linear_5,295,5,42,127,1049905452
118,9,21,Ticks_Linear_5,296,1,48,51,1049937628
118,9,21,Ticks_Linear_5,297,5,42,127,1050685928
118,9,21,Ticks_Linear_5,298,1,48,59,1050689496
118,9,21,Ticks_Linear_5,299,1,48,59,1051447936
118,9,21,Ticks_Linear_5,300,5,42,127,1051466096
118,9,21,Ticks_Linear_5,301,1,48,39,1052210516
118,9,21,Ticks_Linear_5,302,5,42,127,1052246356
118,9,21,Ticks_Linear_5,303,1,48,54,1053022220
118,9,21,Ticks_Linear_5,304,5,42,127,1053025856
118,9,21,Ticks_Linear_5,305,5,42,127,1053805892
118,9,21,Ticks_Linear_5,306,1,48,49,1053812752
118,9,21,Ticks_Linear_5,307,1,48,50,1054585352
118,9,21,Ticks_Linear_5,308,5,42,127,1054595352
118,9,21,Ticks_Linear_5,309,1,48,63,1055357216
118,9,21,Ticks_Linear_5,310,5,42,127,1055385960
118,9,21,Ticks_Linear_5,311,1,48,60,1056148052
118,9,21,Ticks_Linear_5,312,5,42,127,1056175352
118,9,21,Ticks_Linear_5,313,5,42,127,1056966016
118,9,21,Ticks_Linear_5,314,1,48,61,1056969660
118,9,21,Ticks_Linear_5,315,5,42,127,1057755708
118,9,21,Ticks_Linear_5,316,1,48,61,1057769384
118,9,21,Ticks_Linear_5,317,5,42,127,1058556256
118,9,21,Ticks_Linear_5,318,1,48,59,1058580416
118,9,21,Ticks_Linear_5,319,5,42,127,1059355980
118,9,21,Ticks_Linear_5,320,1,48,61,1059357468
118,9,21,Ticks_Linear_5,321,1,48,64,1060132656
118,9,21,Ticks_Linear_5,322,5,42,127,1060155992
118,9,21,Ticks_Linear_5,323,1,48,65,1060956020
118,9,21,Ticks_Linear_5,324,5,42,127,1060957220
118,9,21,Ticks_Linear_5,325,1,48,52,1061741772
118,9,21,Ticks_Linear_5,326,5,42,127,1061756192
118,9,21,Ticks_Linear_5,327,1,48,66,1062537176
118,9,21,Ticks_Linear_5,328,5,42,127,1062566272
118,9,21,Ticks_Linear_5,329,1,48,61,1063325824
118,9,21,Ticks_Linear_5,330,5,42,127,1063376184
118,9,21,Ticks_Linear_5,331,1,48,68,1064152644
118,9,21,Ticks_Linear_5,332,5,42,127,1064186092
118,9,21,Ticks_Linear_5,333,1,48,61,1064977984
118,9,21,Ticks_Linear_5,334,5,42,127,1064996072
118,9,21,Ticks_Linear_5,335,1,48,71,1065767524
118,9,21,Ticks_Linear_5,336,5,42,127,1065806128
118,9,21,Ticks_Linear_5,0,9999,9999,9999,956613736
118,9,21,Ticks_Linear_5,1,9999,9999,9999,957093984
118,9,21,Ticks_Linear_5,2,9999,9999,9999,957573240
118,9,21,Ticks_Linear_5,3,9999,9999,9999,958053488
118,9,21,Ticks_Linear_5,4,9999,9999,9999,958533732
118,9,21,Ticks_Linear_5,5,9999,9999,9999,959023228
118,9,21,Ticks_Linear_5,6,9999,9999,9999,959513716
118,9,21,Ticks_Linear_5,7,9999,9999,9999,960003156
118,9,21,Ticks_Linear_5,8,9999,9999,9999,960493640
118,9,21,Ticks_Linear_5,9,9999,9999,9999,960983160
118,9,21,Ticks_Linear_5,10,9999,9999,9999,961483832
118,9,21,Ticks_Linear_5,11,9999,9999,9999,961983604
118,9,21,Ticks_Linear_5,12,9999,9999,9999,962483304
118,9,21,Ticks_Linear_5,13,9999,9999,9999,962984052
118,9,21,Ticks_Linear_5,14,9999,9999,9999,963483752
118,9,21,Ticks_Linear_5,15,9999,9999,9999,963993712
118,9,21,Ticks_Linear_5,16,9999,9999,9999,964503668
118,9,21,Ticks_Linear_5,17,9999,9999,9999,965013628
118,9,21,Ticks_Linear_5,18,9999,9999,9999,965523512
118,9,21,Ticks_Linear_5,19,9999,9999,9999,966033468
118,9,21,Ticks_Linear_5,20,9999,9999,9999,966553688
118,9,21,Ticks_Linear_5,21,9999,9999,9999,967073904
118,9,21,Ticks_Linear_5,22,9999,9999,9999,967594052
118,9,21,Ticks_Linear_5,23,9999,9999,9999,968113220
118,9,21,Ticks_Linear_5,24,9999,9999,9999,968633436
118,9,21,Ticks_Linear_5,25,9999,9999,9999,969163840
118,9,21,Ticks_Linear_5,26,9999,9999,9999,969693268
118,9,21,Ticks_Linear_5,27,9999,9999,9999,970223676
118,9,21,Ticks_Linear_5,28,9999,9999,9999,970753104
118,9,21,Ticks_Linear_5,29,9999,9999,9999,971283580
118,9,21,Ticks_Linear_5,30,9999,9999,9999,971823196
118,9,21,Ticks_Linear_5,31,9999,9999,9999,972363864
118,9,21,Ticks_Linear_5,32,9999,9999,9999,972903476
118,9,21,Ticks_Linear_5,33,9999,9999,9999,973443160
118,9,21,Ticks_Linear_5,34,9999,9999,9999,973983848
118,9,21,Ticks_Linear_5,35,9999,9999,9999,974533720
118,9,21,Ticks_Linear_5,36,9999,9999,9999,975083596
118,9,21,Ticks_Linear_5,37,9999,9999,9999,975633472
118,9,21,Ticks_Linear_5,38,9999,9999,9999,976183352
118,9,21,Ticks_Linear_5,39,9999,9999,9999,976733300
118,9,21,Ticks_Linear_5,40,9999,9999,9999,977293376
118,9,21,Ticks_Linear_5,41,9999,9999,9999,977853508
118,9,21,Ticks_Linear_5,42,9999,9999,9999,978413644
118,9,21,Ticks_Linear_5,43,9999,9999,9999,978973780
118,9,21,Ticks_Linear_5,44,9999,9999,9999,979533908
118,9,21,Ticks_Linear_5,45,9999,9999,9999,980103256
118,9,21,Ticks_Linear_5,46,9999,9999,9999,980673596
118,9,21,Ticks_Linear_5,47,9999,9999,9999,981243988
118,9,21,Ticks_Linear_5,48,9999,9999,9999,981813332
118,9,21,Ticks_Linear_5,49,9999,9999,9999,982383724
118,9,21,Ticks_Linear_5,50,9999,9999,9999,982963280
118,9,21,Ticks_Linear_5,51,9999,9999,9999,983543932
118,9,21,Ticks_Linear_5,52,9999,9999,9999,984123464
118,9,21,Ticks_Linear_5,53,9999,9999,9999,984704112
118,9,21,Ticks_Linear_5,54,9999,9999,9999,985293924
118,9,21,Ticks_Linear_5,55,9999,9999,9999,985883720
118,9,21,Ticks_Linear_5,56,9999,9999,9999,986473584
118,9,21,Ticks_Linear_5,57,9999,9999,9999,987063400
118,9,21,Ticks_Linear_5,58,9999,9999,9999,987653188
118,9,21,Ticks_Linear_5,59,9999,9999,9999,988244024
118,9,21,Ticks_Linear_5,60,9999,9999,9999,988843128
118,9,21,Ticks_Linear_5,61,9999,9999,9999,989443176
118,9,21,Ticks_Linear_5,62,9999,9999,9999,990043216
118,9,21,Ticks_Linear_5,63,9999,9999,9999,990643292
118,9,21,Ticks_Linear_5,64,9999,9999,9999,991243340
118,9,21,Ticks_Linear_5,65,9999,9999,9999,991853652
118,9,21,Ticks_Linear_5,66,9999,9999,9999,992463980
118,9,21,Ticks_Linear_5,67,9999,9999,9999,993073240
118,9,21,Ticks_Linear_5,68,9999,9999,9999,993683572
118,9,21,Ticks_Linear_5,69,9999,9999,9999,994293880
118,9,21,Ticks_Linear_5,70,9999,9999,9999,994913404
118,9,21,Ticks_Linear_5,71,9999,9999,9999,995533924
118,9,21,Ticks_Linear_5,72,9999,9999,9999,996153444
118,9,21,Ticks_Linear_5,73,9999,9999,9999,996773960
118,9,21,Ticks_Linear_5,74,9999,9999,9999,997393476
118,9,21,Ticks_Linear_5,75,9999,9999,9999,998023256
118,9,21,Ticks_Linear_5,76,9999,9999,9999,998654008
118,9,21,Ticks_Linear_5,77,9999,9999,9999,999283784
118,9,21,Ticks_Linear_5,78,9999,9999,9999,999913596
118,9,21,Ticks_Linear_5,79,9999,9999,9999,1000543292
118,9,21,Ticks_Linear_5,80,9999,9999,9999,1001183356
118,9,21,Ticks_Linear_5,81,9999,9999,9999,1001823324
118,9,21,Ticks_Linear_5,82,9999,9999,9999,1002463312
118,9,21,Ticks_Linear_5,83,9999,9999,9999,1003103348
118,9,21,Ticks_Linear_5,84,9999,9999,9999,1003743336
118,9,21,Ticks_Linear_5,85,9999,9999,9999,1004393560
118,9,21,Ticks_Linear_5,86,9999,9999,9999,1005043804
118,9,21,Ticks_Linear_5,87,9999,9999,9999,1005694028
118,9,21,Ticks_Linear_5,88,9999,9999,9999,1006343228
118,9,21,Ticks_Linear_5,89,9999,9999,9999,1006993484
118,9,21,Ticks_Linear_5,90,9999,9999,9999,1007653964
118,9,21,Ticks_Linear_5,91,9999,9999,9999,1008313420
118,9,21,Ticks_Linear_5,92,9999,9999,9999,1008973900
118,9,21,Ticks_Linear_5,93,9999,9999,9999,1009633360
118,9,21,Ticks_Linear_5,94,9999,9999,9999,1010293848
118,9,21,Ticks_Linear_5,95,9999,9999,9999,1010963560
118,9,21,Ticks_Linear_5,96,9999,9999,9999,1011633280
118,9,21,Ticks_Linear_5,97,9999,9999,9999,1012303944
118,9,21,Ticks_Linear_5,98,9999,9999,9999,1012973668
118,9,21,Ticks_Linear_5,99,9999,9999,9999,1013643384
118,9,21,Ticks_Linear_5,100,9999,9999,9999,1014323260
118,9,21,Ticks_Linear_5,101,9999,9999,9999,1015003240
118,9,21,Ticks_Linear_5,102,9999,9999,9999,1015683192
118,9,21,Ticks_Linear_5,103,9999,9999,9999,1016363096
118,9,21,Ticks_Linear_5,104,9999,9999,9999,1017044052
118,9,21,Ticks_Linear_5,105,9999,9999,9999,1017733212
118,9,21,Ticks_Linear_5,106,9999,9999,9999,1018423376
118,9,21,Ticks_Linear_5,107,9999,9999,9999,1019113540
118,9,21,Ticks_Linear_5,108,9999,9999,9999,1019803776
118,9,21,Ticks_Linear_5,109,9999,9999,9999,1020493908
118,9,21,Ticks_Linear_5,110,9999,9999,9999,1021193288
118,9,21,Ticks_Linear_5,111,9999,9999,9999,1021893708
118,9,21,Ticks_Linear_5,112,9999,9999,9999,1022593140
118,9,21,Ticks_Linear_5,113,9999,9999,9999,1023293564
118,9,21,Ticks_Linear_5,114,9999,9999,9999,1023993984
118,9,21,Ticks_Linear_5,115,9999,9999,9999,1024703612
118,9,21,Ticks_Linear_5,116,9999,9999,9999,1025413224
118,9,21,Ticks_Linear_5,117,9999,9999,9999,1026123828
118,9,21,Ticks_Linear_5,118,9999,9999,9999,1026833468
118,9,21,Ticks_Linear_5,119,9999,9999,9999,1027543104
118,9,21,Ticks_Linear_5,120,9999,9999,9999,1028264040
118,9,21,Ticks_Linear_5,121,9999,9999,9999,1028983912
118,9,21,Ticks_Linear_5,122,9999,9999,9999,1029703808
118,9,21,Ticks_Linear_5,123,9999,9999,9999,1030423624
118,9,21,Ticks_Linear_5,124,9999,9999,9999,1031143512
118,9,21,Ticks_Linear_5,125,9999,9999,9999,1031873596
118,9,21,Ticks_Linear_5,126,9999,9999,9999,1032603744
118,9,21,Ticks_Linear_5,127,9999,9999,9999,1033333852
118,9,21,Ticks_Linear_5,128,9999,9999,9999,1034063948
118,9,21,Ticks_Linear_5,129,9999,9999,9999,1034794100
118,9,21,Ticks_Linear_5,130,9999,9999,9999,1035533392
118,9,21,Ticks_Linear_5,131,9999,9999,9999,1036273736
118,9,21,Ticks_Linear_5,132,9999,9999,9999,1037014072
118,9,21,Ticks_Linear_5,133,9999,9999,9999,1037763696
118,9,21,Ticks_Linear_5,134,9999,9999,9999,1038504032
118,9,21,Ticks_Linear_5,135,9999,9999,9999,1039253576
118,9,21,Ticks_Linear_5,136,9999,9999,9999,1040003184
118,9,21,Ticks_Linear_5,137,9999,9999,9999,1040753780
118,9,21,Ticks_Linear_5,138,9999,9999,9999,1041503328
118,9,21,Ticks_Linear_5,139,9999,9999,9999,1042253916
118,9,21,Ticks_Linear_5,140,9999,9999,9999,1043013732
118,9,21,Ticks_Linear_5,141,9999,9999,9999,1043773536
118,9,21,Ticks_Linear_5,142,9999,9999,9999,1044533352
118,9,21,Ticks_Linear_5,143,9999,9999,9999,1045293152
118,9,21,Ticks_Linear_5,144,9999,9999,9999,1046054008
118,9,21,Ticks_Linear_5,145,9999,9999,9999,1046824008
118,9,21,Ticks_Linear_5,146,9999,9999,9999,1047594072
118,9,21,Ticks_Linear_5,147,9999,9999,9999,1048363096
118,9,21,Ticks_Linear_5,148,9999,9999,9999,1049133164
118,9,21,Ticks_Linear_5,149,9999,9999,9999,1049903228
118,9,21,Ticks_Linear_5,150,9999,9999,9999,1050683480
118,9,21,Ticks_Linear_5,151,9999,9999,9999,1051463800
118,9,21,Ticks_Linear_5,152,9999,9999,9999,1052244052
118,9,21,Ticks_Linear_5,153,9999,9999,9999,1053023332
118,9,21,Ticks_Linear_5,154,9999,9999,9999,1053803592
118,9,21,Ticks_Linear_5,155,9999,9999,9999,1054593124
118,9,21,Ticks_Linear_5,156,9999,9999,9999,1055383660
118,9,21,Ticks_Linear_5,157,9999,9999,9999,1056173128
118,9,21,Ticks_Linear_5,158,9999,9999,9999,1056963644
118,9,21,Ticks_Linear_5,159,9999,9999,9999,1057753184
118,9,21,Ticks_Linear_5,160,9999,9999,9999,1058553956
118,9,21,Ticks_Linear_5,161,9999,9999,9999,1059353680
118,9,21,Ticks_Linear_5,162,9999,9999,9999,1060153400
118,9,21,Ticks_Linear_5,163,9999,9999,9999,1060953200
118,9,21,Ticks_Linear_5,164,9999,9999,9999,1061753968
118,9,21,Ticks_Linear_5,165,9999,9999,9999,1062563900
118,9,21,Ticks_Linear_5,166,9999,9999,9999,1063373884
118,9,21,Ticks_Linear_5,167,9999,9999,9999,1064183868
118,9,21,Ticks_Linear_5,168,9999,9999,9999,1064993848
118,9,21,Ticks_Linear_5,169,9999,9999,9999,1065803832
118,10,20,Ticks_Linear_8,0,5,42,127,1075292604
118,10,20,Ticks_Linear_8,1,5,42,127,1076112744
118,10,20,Ticks_Linear_8,2,5,42,127,1076932860
118,10,20,Ticks_Linear_8,3,5,42,127,1077753496
118,10,20,Ticks_Linear_8,4,5,42,127,1078573388
118,10,20,Ticks_Linear_8,5,1,48,58,1078576508
118,10,20,Ticks_Linear_8,6,1,48,57,1079362356
118,10,20,Ticks_Linear_8,7,5,42,127,1079392652
118,10,20,Ticks_Linear_8,8,1,48,47,1080188140
118,10,20,Ticks_Linear_8,9,5,42,127,1080202584
118,10,20,Ticks_Linear_8,10,1,48,51,1080990424
118,10,20,Ticks_Linear_8,11,5,42,127,1081012640
118,10,20,Ticks_Linear_8,12,1,48,34,1081806256
118,10,20,Ticks_Linear_8,13,5,42,127,1081822476
118,10,20,Ticks_Linear_8,14,5,42,127,1082632468
118,10,20,Ticks_Linear_8,15,1,48,52,1082647116
118,10,20,Ticks_Linear_8,16,1,48,57,1083420376
118,10,20,Ticks_Linear_8,17,5,42,127,1083433304
118,10,20,Ticks_Linear_8,18,5,42,127,1084233184
118,10,20,Ticks_Linear_8,19,1,48,49,1084271136
118,10,20,Ticks_Linear_8,20,5,42,127,1085032760
118,10,20,Ticks_Linear_8,21,1,48,61,1085038048
118,10,20,Ticks_Linear_8,22,5,42,127,1085832656
118,10,20,Ticks_Linear_8,23,1,48,57,1085859136
118,10,20,Ticks_Linear_8,24,1,48,54,1086623720
118,10,20,Ticks_Linear_8,25,5,42,127,1086633348
118,10,20,Ticks_Linear_8,26,1,48,52,1087362316
118,10,20,Ticks_Linear_8,27,5,42,127,1087422812
118,10,20,Ticks_Linear_8,28,5,42,127,1088213256
118,10,20,Ticks_Linear_8,29,1,48,46,1088241244
118,10,20,Ticks_Linear_8,30,1,48,51,1088962012
118,10,20,Ticks_Linear_8,31,5,42,127,1089002788
118,10,20,Ticks_Linear_8,32,5,42,127,1089793456
118,10,20,Ticks_Linear_8,33,1,48,30,1089835892
118,10,20,Ticks_Linear_8,34,1,48,49,1090576880
118,10,20,Ticks_Linear_8,35,5,42,127,1090582840
118,10,20,Ticks_Linear_8,36,1,48,60,1091346580
118,10,20,Ticks_Linear_8,37,5,42,127,1091363172
118,10,20,Ticks_Linear_8,38,5,42,127,1092142456
118,10,20,Ticks_Linear_8,39,1,48,57,1092151120
118,10,20,Ticks_Linear_8,40,5,42,127,1092922708
118,10,20,Ticks_Linear_8,41,1,48,62,1092934888
118,10,20,Ticks_Linear_8,42,5,42,127,1093703184
118,10,20,Ticks_Linear_8,43,1,48,67,1093708696
118,10,20,Ticks_Linear_8,44,5,42,127,1094483360
118,10,20,Ticks_Linear_8,45,1,48,59,1094486032
118,10,20,Ticks_Linear_8,46,1,48,52,1095249556
118,10,20,Ticks_Linear_8,47,5,42,127,1095253272
118,10,20,Ticks_Linear_8,48,5,42,127,1096023272
118,10,20,Ticks_Linear_8,49,1,48,70,1096027364
118,10,20,Ticks_Linear_8,50,5,42,127,1096792516
118,10,20,Ticks_Linear_8,51,1,48,63,1096797728
118,10,20,Ticks_Linear_8,52,5,42,127,1097562360
118,10,20,Ticks_Linear_8,53,1,48,51,1097587044
118,10,20,Ticks_Linear_8,54,5,42,127,1098332504
118,10,20,Ticks_Linear_8,55,1,48,68,1098348272
118,10,20,Ticks_Linear_8,56,5,42,127,1099093432
118,10,20,Ticks_Linear_8,57,1,48,70,1099160988
118,10,20,Ticks_Linear_8,58,5,42,127,1099853092
118,10,20,Ticks_Linear_8,59,1,48,59,1099883320
118,10,20,Ticks_Linear_8,60,5,42,127,1100612976
118,10,20,Ticks_Linear_8,61,1,48,58,1100625676
118,10,20,Ticks_Linear_8,62,5,42,127,1101372932
118,10,20,Ticks_Linear_8,63,1,48,63,1101378820
118,10,20,Ticks_Linear_8,64,5,42,127,1102132592
118,10,20,Ticks_Linear_8,65,1,48,58,1102151592
118,10,20,Ticks_Linear_8,66,5,42,127,1102883188
118,10,20,Ticks_Linear_8,67,1,48,53,1102894020
118,10,20,Ticks_Linear_8,68,5,42,127,1103632888
118,10,20,Ticks_Linear_8,69,1,48,65,1103638100
118,10,20,Ticks_Linear_8,70,1,48,56,1104377072
118,10,20,Ticks_Linear_8,71,5,42,127,1104383252
118,10,20,Ticks_Linear_8,72,1,48,63,1105129612
118,10,20,Ticks_Linear_8,73,5,42,127,1105132876
118,10,20,Ticks_Linear_8,74,1,48,69,1105858720
118,10,20,Ticks_Linear_8,75,5,42,127,1105882576
118,10,20,Ticks_Linear_8,76,1,48,70,1106604156
118,10,20,Ticks_Linear_8,77,5,42,127,1106622916
118,10,20,Ticks_Linear_8,78,1,48,70,1107360992
118,10,20,Ticks_Linear_8,79,5,42,127,1107363104
118,10,20,Ticks_Linear_8,80,5,42,127,1108102404
118,10,20,Ticks_Linear_8,81,1,48,78,1108121924
118,10,20,Ticks_Linear_8,82,5,42,127,1108842864
118,10,20,Ticks_Linear_8,83,1,48,70,1108871096
118,10,20,Ticks_Linear_8,84,5,42,127,1109583200
118,10,20,Ticks_Linear_8,85,1,48,63,1109608636
118,10,20,Ticks_Linear_8,86,5,42,127,1110313352
118,10,20,Ticks_Linear_8,87,1,48,69,1110330320
118,10,20,Ticks_Linear_8,88,5,42,127,1111042680
118,10,20,Ticks_Linear_8,89,1,48,71,1111055540
118,10,20,Ticks_Linear_8,90,5,42,127,1111772612
118,10,20,Ticks_Linear_8,91,1,48,68,1111777604
118,10,20,Ticks_Linear_8,92,5,42,127,1112502764
118,10,20,Ticks_Linear_8,93,1,48,65,1112517488
118,10,20,Ticks_Linear_8,94,5,42,127,1113232920
118,10,20,Ticks_Linear_8,95,1,48,71,1113260760
118,10,20,Ticks_Linear_8,96,5,42,127,1113952712
118,10,20,Ticks_Linear_8,97,1,48,63,1113961304
118,10,20,Ticks_Linear_8,98,5,42,127,1114672684
118,10,20,Ticks_Linear_8,99,1,48,65,1114693180
118,10,20,Ticks_Linear_8,100,5,42,127,1115393620
118,10,20,Ticks_Linear_8,101,1,48,59,1115414044
118,10,20,Ticks_Linear_8,102,5,42,127,1116113216
118,10,20,Ticks_Linear_8,103,1,48,54,1116126144
118,10,20,Ticks_Linear_8,104,5,42,127,1116833112
118,10,20,Ticks_Linear_8,105,1,48,60,1116860412
118,10,20,Ticks_Linear_8,106,5,42,127,1117542724
118,10,20,Ticks_Linear_8,107,1,48,73,1117578592
118,10,20,Ticks_Linear_8,108,5,42,127,1118253408
118,10,20,Ticks_Linear_8,109,1,48,60,1118285728
118,10,20,Ticks_Linear_8,110,5,42,127,1118973448
118,10,20,Ticks_Linear_8,111,1,48,47,1118989372
118,10,20,Ticks_Linear_8,112,1,48,67,1119679136
118,10,20,Ticks_Linear_8,113,5,42,127,1119682928
118,10,20,Ticks_Linear_8,114,5,42,127,1120392568
118,10,20,Ticks_Linear_8,115,1,48,45,1120402132
118,10,20,Ticks_Linear_8,116,5,42,127,1121092964
118,10,20,Ticks_Linear_8,117,1,48,67,1121109040
118,10,20,Ticks_Linear_8,118,5,42,127,1121793536
118,10,20,Ticks_Linear_8,119,1,48,43,1121816128
118,10,20,Ticks_Linear_8,120,5,42,127,1122492688
118,10,20,Ticks_Linear_8,121,1,48,53,1122540432
118,10,20,Ticks_Linear_8,122,5,42,127,1123193088
118,10,20,Ticks_Linear_8,123,1,48,68,1123194052
118,10,20,Ticks_Linear_8,124,5,42,127,1123892536
118,10,20,Ticks_Linear_8,125,1,48,58,1123913032
118,10,20,Ticks_Linear_8,126,5,42,127,1124582700
118,10,20,Ticks_Linear_8,127,1,48,56,1124595928
118,10,20,Ticks_Linear_8,128,5,42,127,1125273012
118,10,20,Ticks_Linear_8,129,1,48,51,1125281524
118,10,20,Ticks_Linear_8,130,5,42,127,1125963000
118,10,20,Ticks_Linear_8,131,1,48,55,1125974432
118,10,20,Ticks_Linear_8,132,5,42,127,1126653460
118,10,20,Ticks_Linear_8,133,1,48,69,1126655904
118,10,20,Ticks_Linear_8,134,5,42,127,1127342576
118,10,20,Ticks_Linear_8,135,1,48,59,1127346668
118,10,20,Ticks_Linear_8,136,5,42,127,1128023576
118,10,20,Ticks_Linear_8,137,1,48,72,1128025296
118,10,20,Ticks_Linear_8,138,5,42,127,1128703556
118,10,20,Ticks_Linear_8,139,1,48,56,1128716640
118,10,20,Ticks_Linear_8,140,5,42,127,1129383312
118,10,20,Ticks_Linear_8,141,1,48,70,1129392652
118,10,20,Ticks_Linear_8,142,5,42,127,1130063192
118,10,20,Ticks_Linear_8,143,1,48,59,1130071032
118,10,20,Ticks_Linear_8,144,5,42,127,1130743320
118,10,20,Ticks_Linear_8,145,1,48,63,1130746364
118,10,20,Ticks_Linear_8,146,5,42,127,1131412740
118,10,20,Ticks_Linear_8,147,1,48,57,1131426340
118,10,20,Ticks_Linear_8,148,1,48,51,1132055800
118,10,20,Ticks_Linear_8,149,5,42,127,1132082652
118,10,20,Ticks_Linear_8,150,5,42,127,1132753352
118,10,20,Ticks_Linear_8,151,1,48,62,1132763664
118,10,20,Ticks_Linear_8,152,1,48,51,1133420852
118,10,20,Ticks_Linear_8,153,5,42,127,1133422964
118,10,20,Ticks_Linear_8,154,1,48,64,1134071980
118,10,20,Ticks_Linear_8,155,5,42,127,1134092608
118,10,20,Ticks_Linear_8,156,1,48,65,1134741472
118,10,20,Ticks_Linear_8,157,5,42,127,1134753268
118,10,20,Ticks_Linear_8,158,5,42,127,1135412560
118,10,20,Ticks_Linear_8,159,1,48,67,1135431184
118,10,20,Ticks_Linear_8,160,5,42,127,1136073216
118,10,20,Ticks_Linear_8,161,1,48,59,1136130636
118,10,20,Ticks_Linear_8,162,5,42,127,1136732504
118,10,20,Ticks_Linear_8,163,1,48,62,1136765056
118,10,20,Ticks_Linear_8,164,5,42,127,1137393084
118,10,20,Ticks_Linear_8,165,1,48,65,1137404592
118,10,20,Ticks_Linear_8,166,5,42,127,1138043380
118,10,20,Ticks_Linear_8,167,1,48,58,1138082328
118,10,20,Ticks_Linear_8,168,5,42,127,1138692584
118,10,20,Ticks_Linear_8,169,1,48,59,1138740176
118,10,20,Ticks_Linear_8,170,5,42,127,1139342684
118,10,20,Ticks_Linear_8,171,1,48,54,1139376580
118,10,20,Ticks_Linear_8,172,5,42,127,1139993200
118,10,20,Ticks_Linear_8,173,1,48,58,1140050684
118,10,20,Ticks_Linear_8,174,5,42,127,1140643156
118,10,20,Ticks_Linear_8,175,1,48,53,1140658256
118,10,20,Ticks_Linear_8,176,5,42,127,1141283192
118,10,20,Ticks_Linear_8,177,1,48,69,1141315364
118,10,20,Ticks_Linear_8,178,5,42,127,1141923332
118,10,20,Ticks_Linear_8,179,1,48,63,1141949664
118,10,20,Ticks_Linear_8,180,5,42,127,1142563296
118,10,20,Ticks_Linear_8,181,1,48,59,1142588952
118,10,20,Ticks_Linear_8,182,5,42,127,1143203212
118,10,20,Ticks_Linear_8,183,1,48,49,1143260480
118,10,20,Ticks_Linear_8,184,5,42,127,1143843100
118,10,20,Ticks_Linear_8,185,1,48,75,1143875728
118,10,20,Ticks_Linear_8,186,5,42,127,1144472904
118,10,20,Ticks_Linear_8,187,1,48,69,1144507552
118,10,20,Ticks_Linear_8,188,5,42,127,1145102608
118,10,20,Ticks_Linear_8,189,1,48,64,1145170872
118,10,20,Ticks_Linear_8,190,5,42,127,1145732560
118,10,20,Ticks_Linear_8,191,1,48,64,1145763464
118,10,20,Ticks_Linear_8,192,5,42,127,1146363312
118,10,20,Ticks_Linear_8,193,1,48,67,1146404624
118,10,20,Ticks_Linear_8,194,5,42,127,1146993316
118,10,20,Ticks_Linear_8,195,1,48,58,1147024400
118,10,20,Ticks_Linear_8,196,5,42,127,1147612640
118,10,20,Ticks_Linear_8,197,1,48,58,1147634552
118,10,20,Ticks_Linear_8,198,5,42,127,1148233056
118,10,20,Ticks_Linear_8,199,1,48,58,1148276536
118,10,20,Ticks_Linear_8,200,5,42,127,1148852600
118,10,20,Ticks_Linear_8,201,1,48,57,1148872276
118,10,20,Ticks_Linear_8,202,5,42,127,1149473020
118,10,20,Ticks_Linear_8,203,1,48,58,1149515528
118,10,20,Ticks_Linear_8,204,5,42,127,1150092640
118,10,20,Ticks_Linear_8,205,1,48,59,1150134252
118,10,20,Ticks_Linear_8,206,1,48,62,1150680740
118,10,20,Ticks_Linear_8,207,5,42,127,1150703240
118,10,20,Ticks_Linear_8,208,5,42,127,1151313332
118,10,20,Ticks_Linear_8,209,1,48,58,1151443340
118,10,20,Ticks_Linear_8,210,1,48,55,1151919868
118,10,20,Ticks_Linear_8,211,5,42,127,1151922540
118,10,20,Ticks_Linear_8,212,5,42,127,1152533000
118,10,20,Ticks_Linear_8,213,1,48,60,1152578204
118,10,20,Ticks_Linear_8,214,1,48,57,1153136824
118,10,20,Ticks_Linear_8,215,5,42,127,1153143376
118,10,20,Ticks_Linear_8,216,5,42,127,1153743088
118,10,20,Ticks_Linear_8,217,1,48,64,1153753696
118,10,20,Ticks_Linear_8,218,5,42,127,1154343284
118,10,20,Ticks_Linear_8,219,1,48,57,1154410504
118,10,20,Ticks_Linear_8,220,5,42,127,1154943480
118,10,20,Ticks_Linear_8,221,1,48,62,1155019264
118,10,20,Ticks_Linear_8,222,5,42,127,1155543332
118,10,20,Ticks_Linear_8,223,1,48,53,1155590416
118,10,20,Ticks_Linear_8,224,5,42,127,1156142408
118,10,20,Ticks_Linear_8,225,1,48,58,1156217788
118,10,20,Ticks_Linear_8,226,5,42,127,1156733172
118,10,20,Ticks_Linear_8,227,1,48,54,1156805136
118,10,20,Ticks_Linear_8,228,5,42,127,1157323056
118,10,20,Ticks_Linear_8,229,1,48,52,1157380016
118,10,20,Ticks_Linear_8,230,5,42,127,1157913072
118,10,20,Ticks_Linear_8,231,1,48,57,1157929372
118,10,20,Ticks_Linear_8,232,5,42,127,1158502864
118,10,20,Ticks_Linear_8,233,1,48,63,1158514592
118,10,20,Ticks_Linear_8,234,5,42,127,1159092976
118,10,20,Ticks_Linear_8,235,1,48,57,1159118116
118,10,20,Ticks_Linear_8,236,5,42,127,1159673256
118,10,20,Ticks_Linear_8,237,1,48,64,1159685884
118,10,20,Ticks_Linear_8,238,5,42,127,1160252860
118,10,20,Ticks_Linear_8,239,1,48,65,1160257924
118,10,20,Ticks_Linear_8,240,1,48,62,1160824928
118,10,20,Ticks_Linear_8,241,5,42,127,1160833504
118,10,20,Ticks_Linear_8,242,5,42,127,1161413116
118,10,20,Ticks_Linear_8,243,1,48,67,1161428512
118,10,20,Ticks_Linear_8,244,1,48,70,1161982192
118,10,20,Ticks_Linear_8,245,5,42,127,1161992712
118,10,20,Ticks_Linear_8,246,1,48,57,1162555652
118,10,20,Ticks_Linear_8,247,5,42,127,1162562884
118,10,20,Ticks_Linear_8,248,1,48,72,1163096096
118,10,20,Ticks_Linear_8,249,5,42,127,1163133280
118,10,20,Ticks_Linear_8,250,1,48,60,1163642976
118,10,20,Ticks_Linear_8,251,5,42,127,1163703096
118,10,20,Ticks_Linear_8,252,1,48,56,1164232340
118,10,20,Ticks_Linear_8,253,5,42,127,1164272968
118,10,20,Ticks_Linear_8,254,1,48,50,1164795916
118,10,20,Ticks_Linear_8,255,5,42,127,1164843288
118,10,20,Ticks_Linear_8,256,1,48,51,1165373800
118,10,20,Ticks_Linear_8,257,5,42,127,1165402744
118,10,20,Ticks_Linear_8,258,1,48,54,1165918580
118,10,20,Ticks_Linear_8,259,5,42,127,1165963128
118,10,20,Ticks_Linear_8,260,1,48,50,1166492896
118,10,20,Ticks_Linear_8,261,5,42,127,1166522888
118,10,20,Ticks_Linear_8,262,1,48,51,1167035652
118,10,20,Ticks_Linear_8,263,5,42,127,1167082876
118,10,20,Ticks_Linear_8,264,1,48,50,1167608892
118,10,20,Ticks_Linear_8,265,5,42,127,1167642860
118,10,20,Ticks_Linear_8,266,5,42,127,1168192816
118,10,20,Ticks_Linear_8,267,1,48,41,1168198252
118,10,20,Ticks_Linear_8,268,1,48,46,1168731712
118,10,20,Ticks_Linear_8,269,5,42,127,1168742760
118,10,20,Ticks_Linear_8,270,1,48,47,1169282260
118,10,20,Ticks_Linear_8,271,5,42,127,1169292932
118,10,20,Ticks_Linear_8,272,1,48,57,1169821648
118,10,20,Ticks_Linear_8,273,5,42,127,1169842804
118,10,20,Ticks_Linear_8,274,5,42,127,1170392612
118,10,20,Ticks_Linear_8,275,1,48,48,1170415204
118,10,20,Ticks_Linear_8,276,5,42,127,1170932976
118,10,20,Ticks_Linear_8,277,1,48,54,1170967700
118,10,20,Ticks_Linear_8,278,5,42,127,1171472816
118,10,20,Ticks_Linear_8,279,1,48,54,1171482304
118,10,20,Ticks_Linear_8,280,1,48,62,1172008116
118,10,20,Ticks_Linear_8,281,5,42,127,1172013620
118,10,20,Ticks_Linear_8,282,5,42,127,1172563204
118,10,20,Ticks_Linear_8,283,1,48,63,1172564168
118,10,20,Ticks_Linear_8,284,5,42,127,1173102972
118,10,20,Ticks_Linear_8,285,1,48,59,1173119120
118,10,20,Ticks_Linear_8,286,5,42,127,1173633600
118,10,20,Ticks_Linear_8,287,1,48,56,1173647976
118,10,20,Ticks_Linear_8,288,5,42,127,1174162756
118,10,20,Ticks_Linear_8,289,1,48,57,1174175680
118,10,20,Ticks_Linear_8,290,5,42,127,1174693380
118,10,20,Ticks_Linear_8,291,1,48,53,1174725784
118,10,20,Ticks_Linear_8,292,1,48,47,1175209280
118,10,20,Ticks_Linear_8,293,5,42,127,1175222732
118,10,20,Ticks_Linear_8,294,5,42,127,1175753140
118,10,20,Ticks_Linear_8,295,1,48,50,1175765248
118,10,20,Ticks_Linear_8,296,1,48,53,1176261712
118,10,20,Ticks_Linear_8,297,5,42,127,1176273352
118,10,20,Ticks_Linear_8,298,5,42,127,1176792756
118,10,20,Ticks_Linear_8,299,1,48,57,1176852268
118,10,20,Ticks_Linear_8,300,5,42,127,1177312748
118,10,20,Ticks_Linear_8,301,1,48,60,1177410600
118,10,20,Ticks_Linear_8,302,5,42,127,1177832744
118,10,20,Ticks_Linear_8,303,1,48,61,1177873536
118,10,20,Ticks_Linear_8,304,5,42,127,1178352892
118,10,20,Ticks_Linear_8,305,1,48,52,1178363796
118,10,20,Ticks_Linear_8,306,5,42,127,1178862852
118,10,20,Ticks_Linear_8,307,1,48,51,1178890392
118,10,20,Ticks_Linear_8,308,5,42,127,1179372884
118,10,20,Ticks_Linear_8,309,1,48,53,1179421688
118,10,20,Ticks_Linear_8,310,5,42,127,1179882772
118,10,20,Ticks_Linear_8,311,1,48,49,1179946840
118,10,20,Ticks_Linear_8,312,5,42,127,1180392804
118,10,20,Ticks_Linear_8,313,1,48,51,1180429396
118,10,20,Ticks_Linear_8,314,5,42,127,1180902764
118,10,20,Ticks_Linear_8,315,1,48,53,1180946168
118,10,20,Ticks_Linear_8,316,5,42,127,1181402540
118,10,20,Ticks_Linear_8,317,1,48,57,1181472608
118,10,20,Ticks_Linear_8,318,5,42,127,1181903432
118,10,20,Ticks_Linear_8,319,1,48,60,1181950880
118,10,20,Ticks_Linear_8,320,1,48,34,1182012204
118,10,20,Ticks_Linear_8,321,5,42,127,1182402892
118,10,20,Ticks_Linear_8,322,1,48,53,1182481348
118,10,20,Ticks_Linear_8,323,5,42,127,1182902516
118,10,20,Ticks_Linear_8,324,1,48,42,1183010248
118,10,20,Ticks_Linear_8,325,5,42,127,1183403564
118,10,20,Ticks_Linear_8,326,1,48,46,1183417316
118,10,20,Ticks_Linear_8,327,5,42,127,1183892932
118,10,20,Ticks_Linear_8,328,1,48,49,1183906680
118,10,20,Ticks_Linear_8,329,5,42,127,1184383320
118,10,20,Ticks_Linear_8,330,1,48,53,1184445552
118,10,20,Ticks_Linear_8,331,5,42,127,1184872760
118,10,20,Ticks_Linear_8,332,1,48,48,1184931928
118,10,20,Ticks_Linear_8,333,5,42,127,1185363396
118,10,20,Ticks_Linear_8,334,1,48,48,1185404560
118,10,20,Ticks_Linear_8,335,5,42,127,1185852764
118,10,20,Ticks_Linear_8,0,9999,9999,9999,1075290232
118,10,20,Ticks_Linear_8,1,9999,9999,9999,1076110444
118,10,20,Ticks_Linear_8,2,9999,9999,9999,1076930632
118,10,20,Ticks_Linear_8,3,9999,9999,9999,1077750900
118,10,20,Ticks_Linear_8,4,9999,9999,9999,1078571088
118,10,20,Ticks_Linear_8,5,9999,9999,9999,1079390276
118,10,20,Ticks_Linear_8,6,9999,9999,9999,1080200288
118,10,20,Ticks_Linear_8,7,9999,9999,9999,1081010268
118,10,20,Ticks_Linear_8,8,9999,9999,9999,1081820252
118,10,20,Ticks_Linear_8,9,9999,9999,9999,1082630240
118,10,20,Ticks_Linear_8,10,9999,9999,9999,1083431004
118,10,20,Ticks_Linear_8,11,9999,9999,9999,1084230736
118,10,20,Ticks_Linear_8,12,9999,9999,9999,1085030460
118,10,20,Ticks_Linear_8,13,9999,9999,9999,1085830260
118,10,20,Ticks_Linear_8,14,9999,9999,9999,1086630976
118,10,20,Ticks_Linear_8,15,9999,9999,9999,1087420516
118,10,20,Ticks_Linear_8,16,9999,9999,9999,1088211032
118,10,20,Ticks_Linear_8,17,9999,9999,9999,1089000564
118,10,20,Ticks_Linear_8,18,9999,9999,9999,1089791084
118,10,20,Ticks_Linear_8,19,9999,9999,9999,1090580540
118,10,20,Ticks_Linear_8,20,9999,9999,9999,1091360872
118,10,20,Ticks_Linear_8,21,9999,9999,9999,1092140160
118,10,20,Ticks_Linear_8,22,9999,9999,9999,1092920408
118,10,20,Ticks_Linear_8,23,9999,9999,9999,1093700660
118,10,20,Ticks_Linear_8,24,9999,9999,9999,1094480988
118,10,20,Ticks_Linear_8,25,9999,9999,9999,1095251048
118,10,20,Ticks_Linear_8,26,9999,9999,9999,1096021048
118,10,20,Ticks_Linear_8,27,9999,9999,9999,1096790144
118,10,20,Ticks_Linear_8,28,9999,9999,9999,1097560136
118,10,20,Ticks_Linear_8,29,9999,9999,9999,1098330204
118,10,20,Ticks_Linear_8,30,9999,9999,9999,1099091056
118,10,20,Ticks_Linear_8,31,9999,9999,9999,1099850868
118,10,20,Ticks_Linear_8,32,9999,9999,9999,1100610676
118,10,20,Ticks_Linear_8,33,9999,9999,9999,1101370484
118,10,20,Ticks_Linear_8,34,9999,9999,9999,1102130292
118,10,20,Ticks_Linear_8,35,9999,9999,9999,1102880888
118,10,20,Ticks_Linear_8,36,9999,9999,9999,1103630440
118,10,20,Ticks_Linear_8,37,9999,9999,9999,1104381028
118,10,20,Ticks_Linear_8,38,9999,9999,9999,1105130580
118,10,20,Ticks_Linear_8,39,9999,9999,9999,1105880128
118,10,20,Ticks_Linear_8,40,9999,9999,9999,1106620468
118,10,20,Ticks_Linear_8,41,9999,9999,9999,1107360848
118,10,20,Ticks_Linear_8,42,9999,9999,9999,1108100152
118,10,20,Ticks_Linear_8,43,9999,9999,9999,1108840564
118,10,20,Ticks_Linear_8,44,9999,9999,9999,1109580900
118,10,20,Ticks_Linear_8,45,9999,9999,9999,1110310980
118,10,20,Ticks_Linear_8,46,9999,9999,9999,1111040084
118,10,20,Ticks_Linear_8,47,9999,9999,9999,1111770236
118,10,20,Ticks_Linear_8,48,9999,9999,9999,1112500316
118,10,20,Ticks_Linear_8,49,9999,9999,9999,1113230396
118,10,20,Ticks_Linear_8,50,9999,9999,9999,1113950264
118,10,20,Ticks_Linear_8,51,9999,9999,9999,1114670160
118,10,20,Ticks_Linear_8,52,9999,9999,9999,1115391100
118,10,20,Ticks_Linear_8,53,9999,9999,9999,1116110920
118,10,20,Ticks_Linear_8,54,9999,9999,9999,1116830812
118,10,20,Ticks_Linear_8,55,9999,9999,9999,1117540424
118,10,20,Ticks_Linear_8,56,9999,9999,9999,1118251108
118,10,20,Ticks_Linear_8,57,9999,9999,9999,1118971000
118,10,20,Ticks_Linear_8,58,9999,9999,9999,1119680628
118,10,20,Ticks_Linear_8,59,9999,9999,9999,1120390268
118,10,20,Ticks_Linear_8,60,9999,9999,9999,1121090668
118,10,20,Ticks_Linear_8,61,9999,9999,9999,1121791088
118,10,20,Ticks_Linear_8,62,9999,9999,9999,1122490464
118,10,20,Ticks_Linear_8,63,9999,9999,9999,1123190860
118,10,20,Ticks_Linear_8,64,9999,9999,9999,1123890236
118,10,20,Ticks_Linear_8,65,9999,9999,9999,1124580476
118,10,20,Ticks_Linear_8,66,9999,9999,9999,1125270636
118,10,20,Ticks_Linear_8,67,9999,9999,9999,1125960776
118,10,20,Ticks_Linear_8,68,9999,9999,9999,1126650936
118,10,20,Ticks_Linear_8,69,9999,9999,9999,1127340128
118,10,20,Ticks_Linear_8,70,9999,9999,9999,1128021056
118,10,20,Ticks_Linear_8,71,9999,9999,9999,1128701036
118,10,20,Ticks_Linear_8,72,9999,9999,9999,1129380940
118,10,20,Ticks_Linear_8,73,9999,9999,9999,1130060892
118,10,20,Ticks_Linear_8,74,9999,9999,9999,1130740796
118,10,20,Ticks_Linear_8,75,9999,9999,9999,1131410516
118,10,20,Ticks_Linear_8,76,9999,9999,9999,1132080204
118,10,20,Ticks_Linear_8,77,9999,9999,9999,1132750904
118,10,20,Ticks_Linear_8,78,9999,9999,9999,1133420628
118,10,20,Ticks_Linear_8,79,9999,9999,9999,1134090308
118,10,20,Ticks_Linear_8,80,9999,9999,9999,1134750820
118,10,20,Ticks_Linear_8,81,9999,9999,9999,1135410260
118,10,20,Ticks_Linear_8,82,9999,9999,9999,1136070768
118,10,20,Ticks_Linear_8,83,9999,9999,9999,1136730204
118,10,20,Ticks_Linear_8,84,9999,9999,9999,1137390712
118,10,20,Ticks_Linear_8,85,9999,9999,9999,1138040932
118,10,20,Ticks_Linear_8,86,9999,9999,9999,1138690136
118,10,20,Ticks_Linear_8,87,9999,9999,9999,1139340384
118,10,20,Ticks_Linear_8,88,9999,9999,9999,1139990604
118,10,20,Ticks_Linear_8,89,9999,9999,9999,1140640856
118,10,20,Ticks_Linear_8,90,9999,9999,9999,1141280892
118,10,20,Ticks_Linear_8,91,9999,9999,9999,1141920884
118,10,20,Ticks_Linear_8,92,9999,9999,9999,1142560848
118,10,20,Ticks_Linear_8,93,9999,9999,9999,1143200836
118,10,20,Ticks_Linear_8,94,9999,9999,9999,1143840876
118,10,20,Ticks_Linear_8,95,9999,9999,9999,1144470604
118,10,20,Ticks_Linear_8,96,9999,9999,9999,1145100384
118,10,20,Ticks_Linear_8,97,9999,9999,9999,1145730164
118,10,20,Ticks_Linear_8,98,9999,9999,9999,1146360940
118,10,20,Ticks_Linear_8,99,9999,9999,9999,1146990720
118,10,20,Ticks_Linear_8,100,9999,9999,9999,1147610192
118,10,20,Ticks_Linear_8,101,9999,9999,9999,1148230760
118,10,20,Ticks_Linear_8,102,9999,9999,9999,1148850304
118,10,20,Ticks_Linear_8,103,9999,9999,9999,1149470796
118,10,20,Ticks_Linear_8,104,9999,9999,9999,1150090340
118,10,20,Ticks_Linear_8,105,9999,9999,9999,1150700644
118,10,20,Ticks_Linear_8,106,9999,9999,9999,1151310956
118,10,20,Ticks_Linear_8,107,9999,9999,9999,1151920240
118,10,20,Ticks_Linear_8,108,9999,9999,9999,1152530552
118,10,20,Ticks_Linear_8,109,9999,9999,9999,1153140856
118,10,20,Ticks_Linear_8,110,9999,9999,9999,1153740864
118,10,20,Ticks_Linear_8,111,9999,9999,9999,1154340984
118,10,20,Ticks_Linear_8,112,9999,9999,9999,1154941032
118,10,20,Ticks_Linear_8,113,9999,9999,9999,1155541104
118,10,20,Ticks_Linear_8,114,9999,9999,9999,1156140108
118,10,20,Ticks_Linear_8,115,9999,9999,9999,1156730944
118,10,20,Ticks_Linear_8,116,9999,9999,9999,1157320760
118,10,20,Ticks_Linear_8,117,9999,9999,9999,1157910624
118,10,20,Ticks_Linear_8,118,9999,9999,9999,1158500416
118,10,20,Ticks_Linear_8,119,9999,9999,9999,1159090232
118,10,20,Ticks_Linear_8,120,9999,9999,9999,1159670884
118,10,20,Ticks_Linear_8,121,9999,9999,9999,1160250488
118,10,20,Ticks_Linear_8,122,9999,9999,9999,1160831056
118,10,20,Ticks_Linear_8,123,9999,9999,9999,1161410668
118,10,20,Ticks_Linear_8,124,9999,9999,9999,1161990264
118,10,20,Ticks_Linear_8,125,9999,9999,9999,1162560584
118,10,20,Ticks_Linear_8,126,9999,9999,9999,1163130980
118,10,20,Ticks_Linear_8,127,9999,9999,9999,1163700352
118,10,20,Ticks_Linear_8,128,9999,9999,9999,1164270668
118,10,20,Ticks_Linear_8,129,9999,9999,9999,1164841060
118,10,20,Ticks_Linear_8,130,9999,9999,9999,1165400148
118,10,20,Ticks_Linear_8,131,9999,9999,9999,1165960308
118,10,20,Ticks_Linear_8,132,9999,9999,9999,1166520440
118,10,20,Ticks_Linear_8,133,9999,9999,9999,1167080500
118,10,20,Ticks_Linear_8,134,9999,9999,9999,1167640636
118,10,20,Ticks_Linear_8,135,9999,9999,9999,1168190516
118,10,20,Ticks_Linear_8,136,9999,9999,9999,1168740460
118,10,20,Ticks_Linear_8,137,9999,9999,9999,1169290332
118,10,20,Ticks_Linear_8,138,9999,9999,9999,1169840208
118,10,20,Ticks_Linear_8,139,9999,9999,9999,1170390092
118,10,20,Ticks_Linear_8,140,9999,9999,9999,1170930752
118,10,20,Ticks_Linear_8,141,9999,9999,9999,1171470444
118,10,20,Ticks_Linear_8,142,9999,9999,9999,1172011100
118,10,20,Ticks_Linear_8,143,9999,9999,9999,1172560980
118,10,20,Ticks_Linear_8,144,9999,9999,9999,1173100672
118,10,20,Ticks_Linear_8,145,9999,9999,9999,1173631076
118,10,20,Ticks_Linear_8,146,9999,9999,9999,1174160456
118,10,20,Ticks_Linear_8,147,9999,9999,9999,1174690932
118,10,20,Ticks_Linear_8,148,9999,9999,9999,1175220284
118,10,20,Ticks_Linear_8,149,9999,9999,9999,1175750768
118,10,20,Ticks_Linear_8,150,9999,9999,9999,1176270904
118,10,20,Ticks_Linear_8,151,9999,9999,9999,1176790084
118,10,20,Ticks_Linear_8,152,9999,9999,9999,1177310300
118,10,20,Ticks_Linear_8,153,9999,9999,9999,1177830520
118,10,20,Ticks_Linear_8,154,9999,9999,9999,1178350664
118,10,20,Ticks_Linear_8,155,9999,9999,9999,1178860628
118,10,20,Ticks_Linear_8,156,9999,9999,9999,1179370588
118,10,20,Ticks_Linear_8,157,9999,9999,9999,1179880544
118,10,20,Ticks_Linear_8,158,9999,9999,9999,1180390504
118,10,20,Ticks_Linear_8,159,9999,9999,9999,1180900464
118,10,20,Ticks_Linear_8,160,9999,9999,9999,1181400164
118,10,20,Ticks_Linear_8,161,9999,9999,9999,1181900912
118,10,20,Ticks_Linear_8,162,9999,9999,9999,1182400592
118,10,20,Ticks_Linear_8,163,9999,9999,9999,1182900292
118,10,20,Ticks_Linear_8,164,9999,9999,9999,1183401040
118,10,20,Ticks_Linear_8,165,9999,9999,9999,1183890560
118,10,20,Ticks_Linear_8,166,9999,9999,9999,1184381020
118,10,20,Ticks_Linear_8,167,9999,9999,9999,1184870464
118,10,20,Ticks_Linear_8,168,9999,9999,9999,1185360948
118,10,20,Ticks_Linear_8,169,9999,9999,9999,1185850468
118,11,25,Jits_Pract_5,0,5,56,103,1233441364
118,11,25,Jits_Pract_5,1,5,63,98,1233444392
118,11,25,Jits_Pract_5,2,5,80,127,1233447508
118,11,25,Jits_Pract_5,0,5,56,103,1233940792
118,11,25,Jits_Pract_5,1,5,63,98,1233944112
118,11,25,Jits_Pract_5,2,5,80,127,1233947232
118,11,25,Jits_Pract_5,0,5,56,103,1234440608
118,11,25,Jits_Pract_5,1,5,80,127,1234450728
118,11,25,Jits_Pract_5,2,5,63,98,1234471408
118,11,25,Jits_Pract_5,0,5,63,98,1234891348
118,11,25,Jits_Pract_5,1,5,80,127,1234920800
118,11,25,Jits_Pract_5,2,5,56,103,1234931144
118,11,25,Jits_Pract_5,0,5,80,127,1235451460
118,11,25,Jits_Pract_5,1,5,56,103,1235460536
118,11,25,Jits_Pract_5,2,5,63,98,1235491332
118,11,25,Jits_Pract_5,0,5,63,98,1235940648
118,11,25,Jits_Pract_5,1,5,56,103,1235970400
118,11,25,Jits_Pract_5,2,5,80,127,1235980596
118,11,25,Jits_Pract_5,0,5,56,103,1236391452
118,11,25,Jits_Pract_5,1,5,63,98,1236440312
118,11,25,Jits_Pract_5,2,5,80,127,1236460992
118,11,25,Jits_Pract_5,0,5,80,127,1236890896
118,11,25,Jits_Pract_5,1,5,63,98,1236941396
118,11,25,Jits_Pract_5,2,5,56,103,1236981260
118,11,25,Jits_Pract_5,0,5,56,103,1237390864
118,11,25,Jits_Pract_5,1,5,63,98,1237421364
118,11,25,Jits_Pract_5,2,5,80,127,1237491192
118,11,25,Jits_Pract_5,0,5,56,103,1237890384
118,11,25,Jits_Pract_5,1,5,80,127,1237950776
118,11,25,Jits_Pract_5,2,5,63,98,1237980448
118,11,25,Jits_Pract_5,0,5,56,103,1238401440
118,11,25,Jits_Pract_5,1,5,63,98,1238410512
118,11,25,Jits_Pract_5,2,5,80,127,1238450452
118,11,25,Jits_Pract_5,0,5,63,98,1238890964
118,11,25,Jits_Pract_5,1,5,80,127,1238970784
118,11,25,Jits_Pract_5,2,5,56,103,1238981056
118,11,25,Jits_Pract_5,0,5,63,98,1239440768
118,11,25,Jits_Pract_5,1,5,56,103,1239480632
118,11,25,Jits_Pract_5,2,5,80,127,1239483772
118,11,25,Jits_Pract_5,0,5,56,103,1239900460
118,11,25,Jits_Pract_5,1,5,63,98,1239910880
118,11,25,Jits_Pract_5,2,5,80,127,1239950692
118,11,25,Jits_Pract_5,0,5,56,103,1240391204
118,11,25,Jits_Pract_5,1,5,63,98,1240393824
118,11,25,Jits_Pract_5,2,5,80,127,1240410468
118,11,25,Jits_Pract_5,0,9999,9999,9999,1233688652
118,11,25,Jits_Pract_5,1,9999,9999,9999,1234188376
118,11,25,Jits_Pract_5,2,9999,9999,9999,1234688120
118,11,25,Jits_Pract_5,3,9999,9999,9999,1235188832
118,11,25,Jits_Pract_5,4,9999,9999,9999,1235688564
118,11,25,Jits_Pract_5,5,9999,9999,9999,1236188240
118,11,25,Jits_Pract_5,6,9999,9999,9999,1236689012
118,11,25,Jits_Pract_5,7,9999,9999,9999,1237188684
118,11,25,Jits_Pract_5,8,9999,9999,9999,1237688424
118,11,25,Jits_Pract_5,9,9999,9999,9999,1238188096
118,11,25,Jits_Pract_5,10,9999,9999,9999,1238688884
118,11,25,Jits_Pract_5,11,9999,9999,9999,1239188552
118,11,25,Jits_Pract_5,12,9999,9999,9999,1239688276
118,11,25,Jits_Pract_5,13,9999,9999,9999,1240189024
118,11,25,Jits_Pract_5,14,9999,9999,9999,1240688752
118,12,25,Jits_Pract_5,0,5,56,103,1290775240
118,12,25,Jits_Pract_5,1,5,63,98,1290778260
118,12,25,Jits_Pract_5,2,5,80,127,1290781380
118,12,25,Jits_Pract_5,0,5,56,103,1291274664
118,12,25,Jits_Pract_5,1,5,63,98,1291277912
118,12,25,Jits_Pract_5,2,5,80,127,1291281032
118,12,25,Jits_Pract_5,0,5,56,103,1291775300
118,12,25,Jits_Pract_5,1,5,80,127,1291784600
118,12,25,Jits_Pract_5,2,5,63,98,1291805208
118,12,25,Jits_Pract_5,0,5,63,98,1292224848
118,12,25,Jits_Pract_5,1,5,80,127,1292254524
118,12,25,Jits_Pract_5,2,5,56,103,1292264796
118,12,25,Jits_Pract_5,0,5,80,127,1292785184
118,12,25,Jits_Pract_5,1,1,48,70,1292790696
118,12,25,Jits_Pract_5,2,5,56,103,1292795376
118,12,25,Jits_Pract_5,3,5,63,98,1292825052
118,12,25,Jits_Pract_5,0,5,63,98,1293274556
118,12,25,Jits_Pract_5,1,1,48,49,1293287644
118,12,25,Jits_Pract_5,2,5,56,103,1293305124
118,12,25,Jits_Pract_5,3,5,80,127,1293314424
118,12,25,Jits_Pract_5,0,5,56,103,1293725548
118,12,25,Jits_Pract_5,1,5,63,98,1293775376
118,12,25,Jits_Pract_5,2,1,48,60,1293781192
118,12,25,Jits_Pract_5,3,5,80,127,1293794784
118,12,25,Jits_Pract_5,0,5,80,127,1294224732
118,12,25,Jits_Pract_5,1,1,48,60,1294260512
118,12,25,Jits_Pract_5,2,5,63,98,1294275076
118,12,25,Jits_Pract_5,3,5,56,103,1294314792
118,12,25,Jits_Pract_5,0,5,56,103,1294724364
118,12,25,Jits_Pract_5,1,5,63,98,1294755236
118,12,25,Jits_Pract_5,2,1,48,55,1294756204
118,12,25,Jits_Pract_5,3,5,80,127,1294824760
118,12,25,Jits_Pract_5,0,5,56,103,1295225168
118,12,25,Jits_Pract_5,1,1,48,48,1295279180
118,12,25,Jits_Pract_5,2,5,80,127,1295284528
118,12,25,Jits_Pract_5,3,5,63,98,1295315176
118,12,25,Jits_Pract_5,0,5,56,103,1295735284
118,12,25,Jits_Pract_5,1,1,48,48,1295743612
118,12,25,Jits_Pract_5,2,5,63,98,1295745352
118,12,25,Jits_Pract_5,3,5,80,127,1295785364
118,12,25,Jits_Pract_5,0,5,63,98,1296224576
118,12,25,Jits_Pract_5,1,1,48,50,1296243508
118,12,25,Jits_Pract_5,2,5,80,127,1296304392
118,12,25,Jits_Pract_5,3,5,56,103,1296314660
118,12,25,Jits_Pract_5,0,1,48,48,1296762360
118,12,25,Jits_Pract_5,1,5,63,98,1296774632
118,12,25,Jits_Pract_5,2,5,56,103,1296814572
118,12,25,Jits_Pract_5,3,5,80,127,1296817564
118,12,25,Jits_Pract_5,0,5,56,103,1297235264
118,12,25,Jits_Pract_5,1,5,63,98,1297244488
118,12,25,Jits_Pract_5,2,1,48,45,1297265216
118,12,25,Jits_Pract_5,3,5,80,127,1297284444
118,12,25,Jits_Pract_5,0,5,56,103,1297725220
118,12,25,Jits_Pract_5,1,5,63,98,1297728136
118,12,25,Jits_Pract_5,2,5,80,127,1297745228
118,12,25,Jits_Pract_5,3,1,48,47,1297766180
118,12,25,Jits_Pract_5,0,9999,9999,9999,1291022452
118,12,25,Jits_Pract_5,1,9999,9999,9999,1291522100
118,12,25,Jits_Pract_5,2,9999,9999,9999,1292022892
118,12,25,Jits_Pract_5,3,9999,9999,9999,1292522556
118,12,25,Jits_Pract_5,4,9999,9999,9999,1293022268
118,12,25,Jits_Pract_5,5,9999,9999,9999,1293523024
118,12,25,Jits_Pract_5,6,9999,9999,9999,1294022716
118,12,25,Jits_Pract_5,7,9999,9999,9999,1294522420
118,12,25,Jits_Pract_5,8,9999,9999,9999,1295022204
118,12,25,Jits_Pract_5,9,9999,9999,9999,1295522880
118,12,25,Jits_Pract_5,10,9999,9999,9999,1296022584
118,12,25,Jits_Pract_5,11,9999,9999,9999,1296522288
118,12,25,Jits_Pract_5,12,9999,9999,9999,1297023100
118,12,25,Jits_Pract_5,13,9999,9999,9999,1297522764
118,12,25,Jits_Pract_5,14,9999,9999,9999,1298022520
118,13,24,Jits_Pract_8,0,5,56,103,1306885596
118,13,24,Jits_Pract_8,1,5,63,98,1306888844
118,13,24,Jits_Pract_8,2,5,80,127,1306891740
118,13,24,Jits_Pract_8,0,5,56,103,1307686284
118,13,24,Jits_Pract_8,1,5,63,98,1307689304
118,13,24,Jits_Pract_8,2,5,80,127,1307692428
118,13,24,Jits_Pract_8,0,5,80,127,1308425704
118,13,24,Jits_Pract_8,1,5,63,98,1308515912
118,13,24,Jits_Pract_8,2,5,56,103,1308525884
118,13,24,Jits_Pract_8,0,5,56,103,1309245740
118,13,24,Jits_Pract_8,1,5,63,98,1309256160
118,13,24,Jits_Pract_8,2,5,80,127,1309346168
118,13,24,Jits_Pract_8,0,5,63,98,1310015956
118,13,24,Jits_Pract_8,1,5,80,127,1310045632
118,13,24,Jits_Pract_8,2,5,56,103,1310076156
118,13,24,Jits_Pract_8,3,1,48,57,1310127372
118,13,24,Jits_Pract_8,0,5,56,103,1310815784
118,13,24,Jits_Pract_8,1,1,48,52,1310823240
118,13,24,Jits_Pract_8,2,5,80,127,1310915900
118,13,24,Jits_Pract_8,3,5,63,98,1310966160
118,13,24,Jits_Pract_8,0,5,56,103,1311616328
118,13,24,Jits_Pract_8,1,1,48,50,1311637808
118,13,24,Jits_Pract_8,2,5,80,127,1311665552
118,13,24,Jits_Pract_8,3,5,63,98,1311705564
118,13,24,Jits_Pract_8,0,1,48,58,1312423992
118,13,24,Jits_Pract_8,1,5,80,127,1312445832
118,13,24,Jits_Pract_8,2,5,63,98,1312475728
118,13,24,Jits_Pract_8,3,5,56,103,1312546144
118,13,24,Jits_Pract_8,0,1,48,40,1313225928
118,13,24,Jits_Pract_8,1,5,63,98,1313276296
118,13,24,Jits_Pract_8,2,5,56,103,1313305824
118,13,24,Jits_Pract_8,3,5,80,127,1313366276
118,13,24,Jits_Pract_8,0,5,56,103,1314015748
118,13,24,Jits_Pract_8,1,5,80,127,1314018668
118,13,24,Jits_Pract_8,2,1,48,59,1314028908
118,13,24,Jits_Pract_8,3,5,63,98,1314136572
118,13,24,Jits_Pract_8,0,1,48,65,1314807308
118,13,24,Jits_Pract_8,1,5,56,103,1314896192
118,13,24,Jits_Pract_8,2,5,80,127,1314936116
118,13,24,Jits_Pract_8,3,5,63,98,1314946536
118,13,24,Jits_Pract_8,0,1,48,65,1315638960
118,13,24,Jits_Pract_8,1,5,56,103,1315655920
118,13,24,Jits_Pract_8,2,5,80,127,1315675704
118,13,24,Jits_Pract_8,3,5,63,98,1315756332
118,13,24,Jits_Pract_8,0,5,80,127,1316445492
118,13,24,Jits_Pract_8,1,1,48,62,1316446460
118,13,24,Jits_Pract_8,2,5,56,103,1316546720
118,13,24,Jits_Pract_8,3,5,63,98,1316556088
118,13,24,Jits_Pract_8,0,5,63,98,1317215748
118,13,24,Jits_Pract_8,1,1,48,69,1317272004
118,13,24,Jits_Pract_8,2,5,80,127,1317276080
118,13,24,Jits_Pract_8,3,5,56,103,1317286352
118,13,24,Jits_Pract_8,0,1,48,65,1317993128
118,13,24,Jits_Pract_8,1,5,56,103,1318016488
118,13,24,Jits_Pract_8,2,5,63,98,1318086020
118,13,24,Jits_Pract_8,3,5,80,127,1318090192
118,13,24,Jits_Pract_8,0,9999,9999,9999,1307283552
118,13,24,Jits_Pract_8,1,9999,9999,9999,1308083268
118,13,24,Jits_Pract_8,2,9999,9999,9999,1308884048
118,13,24,Jits_Pract_8,3,9999,9999,9999,1309683784
118,13,24,Jits_Pract_8,4,9999,9999,9999,1310483568
118,13,24,Jits_Pract_8,5,9999,9999,9999,1311283252
118,13,24,Jits_Pract_8,6,9999,9999,9999,1312084064
118,13,24,Jits_Pract_8,7,9999,9999,9999,1312883832
118,13,24,Jits_Pract_8,8,9999,9999,9999,1313683540
118,13,24,Jits_Pract_8,9,9999,9999,9999,1314483280
118,13,24,Jits_Pract_8,10,9999,9999,9999,1315284076
118,13,24,Jits_Pract_8,11,9999,9999,9999,1316083832
118,13,24,Jits_Pract_8,12,9999,9999,9999,1316883520
118,13,24,Jits_Pract_8,13,9999,9999,9999,1317683284
118,13,24,Jits_Pract_8,14,9999,9999,9999,1318484072
118,14,17,Jits_Phase_5,0,5,56,103,1354564832
118,14,17,Jits_Phase_5,1,5,63,98,1354568008
118,14,17,Jits_Phase_5,2,5,80,127,1354570984
118,14,17,Jits_Phase_5,0,5,56,103,1355064768
118,14,17,Jits_Phase_5,1,5,63,98,1355067868
118,14,17,Jits_Phase_5,2,5,80,127,1355070912
118,14,17,Jits_Phase_5,0,5,56,103,1355565388
118,14,17,Jits_Phase_5,1,5,80,127,1355574688
118,14,17,Jits_Phase_5,2,5,63,98,1355595072
118,14,17,Jits_Phase_5,0,5,63,98,1356014920
118,14,17,Jits_Phase_5,1,5,80,127,1356044672
118,14,17,Jits_Phase_5,2,5,56,103,1356054864
118,14,17,Jits_Phase_5,0,1,48,52,1356542676
118,14,17,Jits_Phase_5,1,5,80,127,1356575156
118,14,17,Jits_Phase_5,2,5,56,103,1356585424
118,14,17,Jits_Phase_5,3,5,63,98,1356615100
118,14,17,Jits_Phase_5,0,1,48,58,1357016892
118,14,17,Jits_Phase_5,1,5,63,98,1357064796
118,14,17,Jits_Phase_5,2,5,56,103,1357095148
118,14,17,Jits_Phase_5,3,5,80,127,1357104668
118,14,17,Jits_Phase_5,0,1,48,64,1357512216
118,14,17,Jits_Phase_5,1,5,56,103,1357515100
118,14,17,Jits_Phase_5,2,5,63,98,1357565300
118,14,17,Jits_Phase_5,3,5,80,127,1357585008
118,14,17,Jits_Phase_5,0,1,48,74,1357984184
118,14,17,Jits_Phase_5,1,5,80,127,1358014848
118,14,17,Jits_Phase_5,2,5,63,98,1358065048
118,14,17,Jits_Phase_5,3,5,56,103,1358104896
118,14,17,Jits_Phase_5,0,5,56,103,1358514676
118,14,17,Jits_Phase_5,1,1,48,57,1358518768
118,14,17,Jits_Phase_5,2,5,63,98,1358545168
118,14,17,Jits_Phase_5,3,5,80,127,1358614996
118,14,17,Jits_Phase_5,0,1,48,73,1359003472
118,14,17,Jits_Phase_5,1,5,56,103,1359015256
118,14,17,Jits_Phase_5,2,5,80,127,1359074748
118,14,17,Jits_Phase_5,3,5,63,98,1359105380
118,14,17,Jits_Phase_5,0,1,48,73,1359489276
118,14,17,Jits_Phase_5,1,5,56,103,1359525196
118,14,17,Jits_Phase_5,2,5,63,98,1359534492
118,14,17,Jits_Phase_5,3,5,80,127,1359575400
118,14,17,Jits_Phase_5,0,1,48,73,1359993824
118,14,17,Jits_Phase_5,1,5,63,98,1360014676
118,14,17,Jits_Phase_5,2,5,80,127,1360094756
118,14,17,Jits_Phase_5,3,5,56,103,1360105024
118,14,17,Jits_Phase_5,0,1,48,62,1360502600
118,14,17,Jits_Phase_5,1,5,63,98,1360564624
118,14,17,Jits_Phase_5,2,5,56,103,1360604772
118,14,17,Jits_Phase_5,3,5,80,127,1360607760
118,14,17,Jits_Phase_5,0,1,48,67,1361005428
118,14,17,Jits_Phase_5,1,5,56,103,1361025480
118,14,17,Jits_Phase_5,2,5,63,98,1361034856
118,14,17,Jits_Phase_5,3,5,80,127,1361074716
118,14,17,Jits_Phase_5,0,1,48,69,1361487712
118,14,17,Jits_Phase_5,1,5,56,103,1361514864
118,14,17,Jits_Phase_5,2,5,63,98,1361517856
118,14,17,Jits_Phase_5,3,5,80,127,1361535272
118,14,17,Jits_Phase_5,0,1,48,71,1361976736
118,14,17,Jits_Phase_5,1,5,80,127,1362024936
118,14,17,Jits_Phase_5,2,5,56,103,1362035060
118,14,17,Jits_Phase_5,3,5,63,98,1362104896
118,14,17,Jits_Phase_5,0,1,48,75,1362464648
118,14,17,Jits_Phase_5,1,5,63,98,1362515244
118,14,17,Jits_Phase_5,2,5,56,103,1362534952
118,14,17,Jits_Phase_5,3,5,80,127,1362614900
118,14,17,Jits_Phase_5,0,1,48,79,1362965740
118,14,17,Jits_Phase_5,1,5,56,103,1363025400
118,14,17,Jits_Phase_5,2,5,80,127,1363065348
118,14,17,Jits_Phase_5,3,5,63,98,1363074424
118,14,17,Jits_Phase_5,0,1,48,76,1363438428
118,14,17,Jits_Phase_5,1,5,80,127,1363514656
118,14,17,Jits_Phase_5,2,5,63,98,1363544464
118,14,17,Jits_Phase_5,3,5,56,103,1363585472
118,14,17,Jits_Phase_5,0,1,48,71,1363934292
118,14,17,Jits_Phase_5,1,5,56,103,1364034988
118,14,17,Jits_Phase_5,2,5,63,98,1364064736
118,14,17,Jits_Phase_5,3,5,80,127,1364114888
118,14,17,Jits_Phase_5,0,1,48,51,1364424748
118,14,17,Jits_Phase_5,1,5,80,127,1364534808
118,14,17,Jits_Phase_5,2,5,56,103,1364574672
118,14,17,Jits_Phase_5,3,5,63,98,1364584796
118,14,17,Jits_Phase_5,0,1,48,60,1364957748
118,14,17,Jits_Phase_5,1,5,80,127,1365014868
118,14,17,Jits_Phase_5,2,5,63,98,1365054864
118,14,17,Jits_Phase_5,3,5,56,103,1365115204
118,14,17,Jits_Phase_5,0,1,48,44,1365481240
118,14,17,Jits_Phase_5,1,5,56,103,1365514764
118,14,17,Jits_Phase_5,2,5,80,127,1365524812
118,14,17,Jits_Phase_5,3,5,63,98,1365604812
118,14,17,Jits_Phase_5,0,1,48,64,1365970052
118,14,17,Jits_Phase_5,1,5,80,127,1366015260
118,14,17,Jits_Phase_5,2,5,63,98,1366074884
118,14,17,Jits_Phase_5,3,5,56,103,1366104932
118,14,17,Jits_Phase_5,0,1,48,62,1366495200
118,14,17,Jits_Phase_5,1,5,56,103,1366515008
118,14,17,Jits_Phase_5,2,5,80,127,1366574500
118,14,17,Jits_Phase_5,3,5,63,98,1366615392
118,14,17,Jits_Phase_5,0,1,48,66,1367005592
118,14,17,Jits_Phase_5,1,5,56,103,1367064804
118,14,17,Jits_Phase_5,2,5,63,98,1367075220
118,14,17,Jits_Phase_5,3,5,80,127,1367078808
118,14,17,Jits_Phase_5,0,5,80,127,1367514428
118,14,17,Jits_Phase_5,1,1,48,63,1367528484
118,14,17,Jits_Phase_5,2,5,63,98,1367604780
118,14,17,Jits_Phase_5,3,5,56,103,1367614824
118,14,17,Jits_Phase_5,0,5,56,103,1368015228
118,14,17,Jits_Phase_5,1,5,63,98,1368018248
118,14,17,Jits_Phase_5,2,5,80,127,1368021668
118,14,17,Jits_Phase_5,3,1,48,54,1368030788
118,14,17,Jits_Phase_5,0,1,48,46,1368488272
118,14,17,Jits_Phase_5,1,5,80,127,1368535496
118,14,17,Jits_Phase_5,2,5,63,98,1368584640
118,14,17,Jits_Phase_5,3,5,56,103,1368615360
118,14,17,Jits_Phase_5,0,5,56,103,1369014580
118,14,17,Jits_Phase_5,1,1,48,50,1369019192
118,14,17,Jits_Phase_5,2,5,80,127,1369024992
118,14,17,Jits_Phase_5,3,5,63,98,1369094520
118,14,17,Jits_Phase_5,0,1,48,45,1369517156
118,14,17,Jits_Phase_5,1,5,56,103,1369524600
118,14,17,Jits_Phase_5,2,5,63,98,1369545132
118,14,17,Jits_Phase_5,3,5,80,127,1369604624
118,14,17,Jits_Phase_5,0,1,48,66,1370000940
118,14,17,Jits_Phase_5,1,5,80,127,1370004796
118,14,17,Jits_Phase_5,2,5,63,98,1370074696
118,14,17,Jits_Phase_5,3,5,56,103,1370094920
118,14,17,Jits_Phase_5,0,1,48,61,1370510800
118,14,17,Jits_Phase_5,1,5,80,127,1370524996
118,14,17,Jits_Phase_5,2,5,56,103,1370535488
118,14,17,Jits_Phase_5,3,5,63,98,1370544784
118,14,17,Jits_Phase_5,0,1,48,58,1370976664
118,14,17,Jits_Phase_5,1,5,80,127,1371014552
118,14,17,Jits_Phase_5,2,5,56,103,1371035084
118,14,17,Jits_Phase_5,3,5,63,98,1371104820
118,14,17,Jits_Phase_5,0,1,48,48,1371498660
118,14,17,Jits_Phase_5,1,5,56,103,1371524560
118,14,17,Jits_Phase_5,2,5,80,127,1371555208
118,14,17,Jits_Phase_5,3,5,63,98,1371574544
118,14,17,Jits_Phase_5,0,5,63,98,1372015000
118,14,17,Jits_Phase_5,1,1,48,49,1372029824
118,14,17,Jits_Phase_5,2,5,56,103,1372075332
118,14,17,Jits_Phase_5,3,5,80,127,1372105008
118,14,17,Jits_Phase_5,0,5,63,98,1372504636
118,14,17,Jits_Phase_5,1,5,80,127,1372507996
118,14,17,Jits_Phase_5,2,1,48,58,1372512016
118,14,17,Jits_Phase_5,3,5,56,103,1372594484
118,14,17,Jits_Phase_5,0,1,48,64,1373001556
118,14,17,Jits_Phase_5,1,5,56,103,1373024744
118,14,17,Jits_Phase_5,2,5,63,98,1373055272
118,14,17,Jits_Phase_5,3,5,80,127,1373095208
118,14,17,Jits_Phase_5,0,1,48,52,1373508280
118,14,17,Jits_Phase_5,1,5,63,98,1373525616
118,14,17,Jits_Phase_5,2,5,56,103,1373565432
118,14,17,Jits_Phase_5,3,5,80,127,1373584692
118,14,17,Jits_Phase_5,0,1,48,60,1373990948
118,14,17,Jits_Phase_5,1,5,63,98,1374035480
118,14,17,Jits_Phase_5,2,5,56,103,1374075368
118,14,17,Jits_Phase_5,3,5,80,127,1374084576
118,14,17,Jits_Phase_5,0,1,48,57,1374498116
118,14,17,Jits_Phase_5,1,5,80,127,1374514556
118,14,17,Jits_Phase_5,2,5,63,98,1374585084
118,14,17,Jits_Phase_5,3,5,56,103,1374604628
118,14,17,Jits_Phase_5,0,5,56,103,1375005020
118,14,17,Jits_Phase_5,1,1,48,52,1375019744
118,14,17,Jits_Phase_5,2,5,80,127,1375024648
118,14,17,Jits_Phase_5,3,5,63,98,1375064732
118,14,17,Jits_Phase_5,0,1,48,63,1375500400
118,14,17,Jits_Phase_5,1,5,63,98,1375515112
118,14,17,Jits_Phase_5,2,5,80,127,1375534524
118,14,17,Jits_Phase_5,3,5,56,103,1375575656
118,14,17,Jits_Phase_5,0,1,48,70,1375971672
118,14,17,Jits_Phase_5,1,5,63,98,1376014712
118,14,17,Jits_Phase_5,2,5,56,103,1376035172
118,14,17,Jits_Phase_5,3,5,80,127,1376045516
118,14,17,Jits_Phase_5,0,1,48,65,1376473004
118,14,17,Jits_Phase_5,1,5,80,127,1376514532
118,14,17,Jits_Phase_5,2,5,56,103,1376534768
118,14,17,Jits_Phase_5,3,5,63,98,1376564816
118,14,17,Jits_Phase_5,0,1,48,50,1376973876
118,14,17,Jits_Phase_5,1,5,56,103,1377084908
118,14,17,Jits_Phase_5,2,5,80,127,1377087976
118,14,17,Jits_Phase_5,3,5,63,98,1377105368
118,14,17,Jits_Phase_5,0,1,48,54,1377475788
118,14,17,Jits_Phase_5,1,5,63,98,1377504584
118,14,17,Jits_Phase_5,2,5,56,103,1377535528
118,14,17,Jits_Phase_5,3,5,80,127,1377594780
118,14,17,Jits_Phase_5,0,1,48,61,1377978748
118,14,17,Jits_Phase_5,1,5,63,98,1378085448
118,14,17,Jits_Phase_5,2,5,56,103,1378094524
118,14,17,Jits_Phase_5,3,5,80,127,1378104572
118,14,17,Jits_Phase_5,0,1,48,48,1378508548
118,14,17,Jits_Phase_5,1,5,56,103,1378545140
118,14,17,Jits_Phase_5,2,5,80,127,1378574592
118,14,17,Jits_Phase_5,3,5,63,98,1378584936
118,14,17,Jits_Phase_5,0,1,48,54,1378992036
118,14,17,Jits_Phase_5,1,5,63,98,1379084736
118,14,17,Jits_Phase_5,2,5,56,103,1379094932
118,14,17,Jits_Phase_5,3,5,80,127,1379115316
118,14,17,Jits_Phase_5,0,5,56,103,1379514832
118,14,17,Jits_Phase_5,1,1,48,46,1379517276
118,14,17,Jits_Phase_5,2,5,63,98,1379575140
118,14,17,Jits_Phase_5,3,5,80,127,1379578428
118,14,17,Jits_Phase_5,0,1,48,58,1380014336
118,14,17,Jits_Phase_5,1,5,80,127,1380034960
118,14,17,Jits_Phase_5,2,5,56,103,1380045304
118,14,17,Jits_Phase_5,3,5,63,98,1380114744
118,14,17,Jits_Phase_5,0,1,48,51,1380522012
118,14,17,Jits_Phase_5,1,5,80,127,1380525564
118,14,17,Jits_Phase_5,2,5,56,103,1380595100
118,14,17,Jits_Phase_5,3,5,63,98,1380605444
118,14,17,Jits_Phase_5,0,1,48,60,1381018392
118,14,17,Jits_Phase_5,1,5,63,98,1381065100
118,14,17,Jits_Phase_5,2,5,56,103,1381075372
118,14,17,Jits_Phase_5,3,5,80,127,1381094856
118,14,17,Jits_Phase_5,0,1,48,61,1381503100
118,14,17,Jits_Phase_5,1,5,80,127,1381514732
118,14,17,Jits_Phase_5,2,5,63,98,1381575120
118,14,17,Jits_Phase_5,3,5,56,103,1381615044
118,14,17,Jits_Phase_5,0,1,48,60,1382015728
118,14,17,Jits_Phase_5,1,5,56,103,1382055384
118,14,17,Jits_Phase_5,2,5,63,98,1382064608
118,14,17,Jits_Phase_5,3,5,80,127,1382104400
118,14,17,Jits_Phase_5,0,5,56,103,1382515188
118,14,17,Jits_Phase_5,1,1,48,60,1382537440
118,14,17,Jits_Phase_5,2,5,80,127,1382544660
118,14,17,Jits_Phase_5,3,5,63,98,1382594860
118,14,17,Jits_Phase_5,0,1,48,58,1383020760
118,14,17,Jits_Phase_5,1,5,56,103,1383054756
118,14,17,Jits_Phase_5,2,5,63,98,1383094764
118,14,17,Jits_Phase_5,3,5,80,127,1383097980
118,14,17,Jits_Phase_5,0,1,48,51,1383526048
118,14,17,Jits_Phase_5,1,5,56,103,1383554348
118,14,17,Jits_Phase_5,2,5,63,98,1383564544
118,14,17,Jits_Phase_5,3,5,80,127,1383585000
118,14,17,Jits_Phase_5,0,1,48,63,1384015496
118,14,17,Jits_Phase_5,1,5,56,103,1384016700
118,14,17,Jits_Phase_5,2,5,80,127,1384019596
118,14,17,Jits_Phase_5,3,5,63,98,1384055296
118,14,17,Jits_Phase_5,0,1,48,56,1384514520
118,14,17,Jits_Phase_5,1,5,63,98,1384554780
118,14,17,Jits_Phase_5,2,5,56,103,1384584552
118,14,17,Jits_Phase_5,3,5,80,127,1384604940
118,14,17,Jits_Phase_5,0,5,80,127,1385024936
118,14,17,Jits_Phase_5,1,1,48,55,1385029772
118,14,17,Jits_Phase_5,2,5,56,103,1385035272
118,14,17,Jits_Phase_5,3,5,63,98,1385045540
118,14,17,Jits_Phase_5,0,1,48,58,1385514548
118,14,17,Jits_Phase_5,1,5,56,103,1385524536
118,14,17,Jits_Phase_5,2,5,80,127,1385564624
118,14,17,Jits_Phase_5,3,5,63,98,1385595444
118,14,17,Jits_Phase_5,0,5,63,98,1386034552
118,14,17,Jits_Phase_5,1,5,80,127,1386044748
118,14,17,Jits_Phase_5,2,1,48,52,1386045716
118,14,17,Jits_Phase_5,3,5,56,103,1386054936
118,14,17,Jits_Phase_5,0,5,56,103,1386524936
118,14,17,Jits_Phase_5,1,1,48,57,1386547904
118,14,17,Jits_Phase_5,2,5,63,98,1386594536
118,14,17,Jits_Phase_5,3,5,80,127,1386604808
118,14,17,Jits_Phase_5,0,5,80,127,1387034964
118,14,17,Jits_Phase_5,1,5,56,103,1387045456
118,14,17,Jits_Phase_5,2,1,48,55,1387056592
118,14,17,Jits_Phase_5,3,5,63,98,1387095424
118,14,17,Jits_Phase_5,0,1,48,59,1387540824
118,14,17,Jits_Phase_5,1,5,80,127,1387545424
118,14,17,Jits_Phase_5,2,5,56,103,1387605444
118,14,17,Jits_Phase_5,3,5,63,98,1387635176
118,14,17,Jits_Phase_5,0,5,56,103,1388044656
118,14,17,Jits_Phase_5,1,5,80,127,1388047724
118,14,17,Jits_Phase_5,2,1,48,56,1388052488
118,14,17,Jits_Phase_5,3,5,63,98,1388084588
118,14,17,Jits_Phase_5,0,1,48,48,1388564760
118,14,17,Jits_Phase_5,1,5,56,103,1388575268
118,14,17,Jits_Phase_5,2,5,63,98,1388604720
118,14,17,Jits_Phase_5,3,5,80,127,1388615216
118,14,17,Jits_Phase_5,0,1,48,59,1389066380
118,14,17,Jits_Phase_5,1,5,63,98,1389085132
118,14,17,Jits_Phase_5,2,5,80,127,1389095628
118,14,17,Jits_Phase_5,3,5,56,103,1389104480
118,14,17,Jits_Phase_5,0,5,80,127,1389534468
118,14,17,Jits_Phase_5,1,1,48,54,1389548748
118,14,17,Jits_Phase_5,2,5,56,103,1389584812
118,14,17,Jits_Phase_5,3,5,63,98,1389588100
118,14,17,Jits_Phase_5,0,1,48,59,1390038232
118,14,17,Jits_Phase_5,1,5,56,103,1390065228
118,14,17,Jits_Phase_5,2,5,80,127,1390084416
118,14,17,Jits_Phase_5,3,5,63,98,1390094912
118,14,17,Jits_Phase_5,0,5,63,98,1390545432
118,14,17,Jits_Phase_5,1,1,48,62,1390567956
118,14,17,Jits_Phase_5,2,5,56,103,1390575176
118,14,17,Jits_Phase_5,3,5,80,127,1390594440
118,14,17,Jits_Phase_5,0,1,48,58,1391024252
118,14,17,Jits_Phase_5,1,5,56,103,1391055364
118,14,17,Jits_Phase_5,2,5,80,127,1391064440
118,14,17,Jits_Phase_5,3,5,63,98,1391135148
118,14,17,Jits_Phase_5,0,5,63,98,1391544708
118,14,17,Jits_Phase_5,1,1,48,57,1391545824
118,14,17,Jits_Phase_5,2,5,80,127,1391584564
118,14,17,Jits_Phase_5,3,5,56,103,1391624500
118,14,17,Jits_Phase_5,0,1,48,68,1392045476
118,14,17,Jits_Phase_5,1,5,56,103,1392054568
118,14,17,Jits_Phase_5,2,5,63,98,1392064988
118,14,17,Jits_Phase_5,3,5,80,127,1392085220
118,14,17,Jits_Phase_5,0,1,48,60,1392567324
118,14,17,Jits_Phase_5,1,5,63,98,1392595368
118,14,17,Jits_Phase_5,2,5,80,127,1392614708
118,14,17,Jits_Phase_5,3,5,56,103,1392635388
118,14,17,Jits_Phase_5,0,5,56,103,1393034596
118,14,17,Jits_Phase_5,1,1,48,58,1393086488
118,14,17,Jits_Phase_5,2,5,80,127,1393114532
118,14,17,Jits_Phase_5,3,5,63,98,1393124652
118,14,17,Jits_Phase_5,0,1,48,71,1393542104
118,14,17,Jits_Phase_5,1,5,80,127,1393575404
118,14,17,Jits_Phase_5,2,5,63,98,1393584556
118,14,17,Jits_Phase_5,3,5,56,103,1393615424
118,14,17,Jits_Phase_5,0,5,63,98,1394035276
118,14,17,Jits_Phase_5,1,1,48,65,1394040812
118,14,17,Jits_Phase_5,2,5,80,127,1394074860
118,14,17,Jits_Phase_5,3,5,56,103,1394135400
118,14,17,Jits_Phase_5,0,1,48,73,1394542324
118,14,17,Jits_Phase_5,1,5,63,98,1394545284
118,14,17,Jits_Phase_5,2,5,56,103,1394595064
118,14,17,Jits_Phase_5,3,5,80,127,1394624960
118,14,17,Jits_Phase_5,0,1,48,56,1395027924
118,14,17,Jits_Phase_5,1,5,80,127,1395044736
118,14,17,Jits_Phase_5,2,5,63,98,1395055380
118,14,17,Jits_Phase_5,3,5,56,103,1395124548
118,14,17,Jits_Phase_5,0,1,48,61,1395555772
118,14,17,Jits_Phase_5,1,5,80,127,1395604744
118,14,17,Jits_Phase_5,2,5,56,103,1395615392
118,14,17,Jits_Phase_5,3,5,63,98,1395618300
118,14,17,Jits_Phase_5,0,5,56,103,1396045356
118,14,17,Jits_Phase_5,1,5,80,127,1396064620
118,14,17,Jits_Phase_5,2,5,63,98,1396074816
118,14,17,Jits_Phase_5,3,1,48,47,1396075856
118,14,17,Jits_Phase_5,0,5,63,98,1396555308
118,14,17,Jits_Phase_5,1,1,48,67,1396562464
118,14,17,Jits_Phase_5,2,5,56,103,1396595020
118,14,17,Jits_Phase_5,3,5,80,127,1396614528
118,14,17,Jits_Phase_5,0,1,48,55,1397048360
118,14,17,Jits_Phase_5,1,5,63,98,1397055128
118,14,17,Jits_Phase_5,2,5,56,103,1397115244
118,14,17,Jits_Phase_5,3,5,80,127,1397118384
118,14,17,Jits_Phase_5,0,5,56,103,1397514576
118,14,17,Jits_Phase_5,1,1,48,66,1397524520
118,14,17,Jits_Phase_5,2,5,80,127,1397535028
118,14,17,Jits_Phase_5,3,5,63,98,1397575112
118,14,17,Jits_Phase_5,0,5,56,103,1398044976
118,14,17,Jits_Phase_5,1,1,48,41,1398061352
118,14,17,Jits_Phase_5,2,5,63,98,1398064684
118,14,17,Jits_Phase_5,3,5,80,127,1398074804
118,14,17,Jits_Phase_5,0,5,80,127,1398515220
118,14,17,Jits_Phase_5,1,1,48,64,1398534756
118,14,17,Jits_Phase_5,2,5,56,103,1398544668
118,14,17,Jits_Phase_5,3,5,63,98,1398584604
118,14,17,Jits_Phase_5,0,5,80,127,1399025024
118,14,17,Jits_Phase_5,1,5,56,103,1399044436
118,14,17,Jits_Phase_5,2,1,48,38,1399056316
118,14,17,Jits_Phase_5,3,5,63,98,1399104964
118,14,17,Jits_Phase_5,0,1,48,68,1399528572
118,14,17,Jits_Phase_5,1,5,56,103,1399535040
118,14,17,Jits_Phase_5,2,5,80,127,1399554380
118,14,17,Jits_Phase_5,3,5,63,98,1399615064
118,14,17,Jits_Phase_5,0,5,80,127,1400015096
118,14,17,Jits_Phase_5,1,5,56,103,1400024320
118,14,17,Jits_Phase_5,2,1,48,63,1400036876
118,14,17,Jits_Phase_5,3,5,63,98,1400065592
118,14,17,Jits_Phase_5,0,5,63,98,1400515000
118,14,17,Jits_Phase_5,1,1,48,71,1400539016
118,14,17,Jits_Phase_5,2,5,56,103,1400555152
118,14,17,Jits_Phase_5,3,5,80,127,1400558144
118,14,17,Jits_Phase_5,0,5,63,98,1401035192
118,14,17,Jits_Phase_5,1,1,48,44,1401043188
118,14,17,Jits_Phase_5,2,5,80,127,1401075124
118,14,17,Jits_Phase_5,3,5,56,103,1401104648
118,14,17,Jits_Phase_5,0,5,56,103,1401524532
118,14,17,Jits_Phase_5,1,5,63,98,1401534952
118,14,17,Jits_Phase_5,2,1,48,68,1401540532
118,14,17,Jits_Phase_5,3,5,80,127,1401564468
118,14,17,Jits_Phase_5,0,5,80,127,1402015076
118,14,17,Jits_Phase_5,1,1,48,64,1402059320
118,14,17,Jits_Phase_5,2,5,63,98,1402084752
118,14,17,Jits_Phase_5,3,5,56,103,1402095096
118,14,17,Jits_Phase_5,0,5,63,98,1402514840
118,14,17,Jits_Phase_5,1,1,48,59,1402562152
118,14,17,Jits_Phase_5,2,5,56,103,1402584440
118,14,17,Jits_Phase_5,3,5,80,127,1402594640
118,14,17,Jits_Phase_5,0,5,63,98,1402995236
118,14,17,Jits_Phase_5,1,5,56,103,1403014572
118,14,17,Jits_Phase_5,2,1,48,60,1403052992
118,14,17,Jits_Phase_5,3,5,80,127,1403054352
118,14,17,Jits_Phase_5,0,5,56,103,1403475332
118,14,17,Jits_Phase_5,1,5,63,98,1403484556
118,14,17,Jits_Phase_5,2,1,48,63,1403530400
118,14,17,Jits_Phase_5,3,5,80,127,1403565488
118,14,17,Jits_Phase_5,0,5,63,98,1403964756
118,14,17,Jits_Phase_5,1,1,48,72,1403972976
118,14,17,Jits_Phase_5,2,5,56,103,1403994424
118,14,17,Jits_Phase_5,3,5,80,127,1404034308
118,14,17,Jits_Phase_5,0,5,56,103,1404464428
118,14,17,Jits_Phase_5,1,1,48,60,1404494896
118,14,17,Jits_Phase_5,2,5,63,98,1404504356
118,14,17,Jits_Phase_5,3,5,80,127,1404545364
118,14,17,Jits_Phase_5,0,5,80,127,1404965088
118,14,17,Jits_Phase_5,1,1,48,76,1404976072
118,14,17,Jits_Phase_5,2,5,56,103,1405045172
118,14,17,Jits_Phase_5,3,5,63,98,1405055516
118,14,17,Jits_Phase_5,0,1,48,63,1405478796
118,14,17,Jits_Phase_5,1,5,56,103,1405505124
118,14,17,Jits_Phase_5,2,5,63,98,1405508116
118,14,17,Jits_Phase_5,3,5,80,127,1405515096
118,14,17,Jits_Phase_5,0,1,48,63,1405999440
118,14,17,Jits_Phase_5,1,5,56,103,1406025020
118,14,17,Jits_Phase_5,2,5,63,98,1406044580
118,14,17,Jits_Phase_5,3,5,80,127,1406054848
118,14,17,Jits_Phase_5,0,5,63,98,1406484996
118,14,17,Jits_Phase_5,1,1,48,53,1406492996
118,14,17,Jits_Phase_5,2,5,80,127,1406495036
118,14,17,Jits_Phase_5,3,5,56,103,1406514596
118,14,17,Jits_Phase_5,0,1,48,64,1406970388
118,14,17,Jits_Phase_5,1,5,63,98,1406994848
118,14,17,Jits_Phase_5,2,5,56,103,1407074628
118,14,17,Jits_Phase_5,3,5,80,127,1407077992
118,14,17,Jits_Phase_5,0,1,48,58,1407482420
118,14,17,Jits_Phase_5,1,5,63,98,1407494444
118,14,17,Jits_Phase_5,2,5,56,103,1407515200
118,14,17,Jits_Phase_5,3,5,80,127,1407544800
118,14,17,Jits_Phase_5,0,1,48,61,1407991016
118,14,17,Jits_Phase_5,1,5,56,103,1407995392
118,14,17,Jits_Phase_5,2,5,63,98,1408014728
118,14,17,Jits_Phase_5,3,5,80,127,1408025072
118,14,17,Jits_Phase_5,0,1,48,57,1408500956
118,14,17,Jits_Phase_5,1,5,56,103,1408524664
118,14,17,Jits_Phase_5,2,5,63,98,1408555228
118,14,17,Jits_Phase_5,3,5,80,127,1408558672
118,14,17,Jits_Phase_5,0,5,56,103,1408975192
118,14,17,Jits_Phase_5,1,1,48,63,1409013312
118,14,17,Jits_Phase_5,2,5,63,98,1409015048
118,14,17,Jits_Phase_5,3,5,80,127,1409074536
118,14,17,Jits_Phase_5,0,5,56,103,1409495556
118,14,17,Jits_Phase_5,1,1,48,60,1409499724
118,14,17,Jits_Phase_5,2,5,63,98,1409504552
118,14,17,Jits_Phase_5,3,5,80,127,1409565160
118,14,17,Jits_Phase_5,0,1,48,60,1409979848
118,14,17,Jits_Phase_5,1,5,56,103,1409995092
118,14,17,Jits_Phase_5,2,5,80,127,1410014504
118,14,17,Jits_Phase_5,3,5,63,98,1410045224
118,14,17,Jits_Phase_5,0,1,48,54,1410462064
118,14,17,Jits_Phase_5,1,5,80,127,1410494988
118,14,17,Jits_Phase_5,2,5,56,103,1410505036
118,14,17,Jits_Phase_5,3,5,63,98,1410524448
118,14,17,Jits_Phase_5,0,1,48,52,1410968860
118,14,17,Jits_Phase_5,1,5,63,98,1410985296
118,14,17,Jits_Phase_5,2,5,80,127,1411065224
118,14,17,Jits_Phase_5,3,5,56,103,1411074372
118,14,17,Jits_Phase_5,0,1,48,65,1411443800
118,14,17,Jits_Phase_5,1,5,80,127,1411575236
118,14,17,Jits_Phase_5,2,5,56,103,1411594576
118,14,17,Jits_Phase_5,3,5,63,98,1411597936
118,14,17,Jits_Phase_5,0,1,48,54,1411962132
118,14,17,Jits_Phase_5,1,5,63,98,1412064716
118,14,17,Jits_Phase_5,2,5,80,127,1412068076
118,14,17,Jits_Phase_5,3,5,56,103,1412125100
118,14,17,Jits_Phase_5,0,5,56,103,1412544924
118,14,17,Jits_Phase_5,1,5,80,127,1412555048
118,14,17,Jits_Phase_5,2,1,48,57,1412557788
118,14,17,Jits_Phase_5,3,5,63,98,1412594980
118,14,17,Jits_Phase_5,0,5,56,103,1413025132
118,14,17,Jits_Phase_5,1,5,63,98,1413084924
118,14,17,Jits_Phase_5,2,1,48,61,1413086040
118,14,17,Jits_Phase_5,3,5,80,127,1413094816
118,14,17,Jits_Phase_5,0,5,63,98,1413535088
118,14,17,Jits_Phase_5,1,5,80,127,1413574952
118,14,17,Jits_Phase_5,2,1,48,55,1413576512
118,14,17,Jits_Phase_5,3,5,56,103,1413614880
118,14,17,Jits_Phase_5,0,5,56,103,1414034984
118,14,17,Jits_Phase_5,1,1,48,56,1414082072
118,14,17,Jits_Phase_5,2,5,63,98,1414114844
118,14,17,Jits_Phase_5,3,5,80,127,1414118060
118,14,17,Jits_Phase_5,0,1,48,51,1414567892
118,14,17,Jits_Phase_5,1,5,80,127,1414594972
118,14,17,Jits_Phase_5,2,5,56,103,1414624720
118,14,17,Jits_Phase_5,3,5,63,98,1414627636
118,14,17,Jits_Phase_5,0,5,56,103,1415054792
118,14,17,Jits_Phase_5,1,5,80,127,1415075176
118,14,17,Jits_Phase_5,2,1,48,53,1415080756
118,14,17,Jits_Phase_5,3,5,63,98,1415115252
118,14,17,Jits_Phase_5,0,5,80,127,1415534900
118,14,17,Jits_Phase_5,1,5,63,98,1415554412
118,14,17,Jits_Phase_5,2,1,48,49,1415575436
118,14,17,Jits_Phase_5,3,5,56,103,1415614720
118,14,17,Jits_Phase_5,0,1,48,63,1416039344
118,14,17,Jits_Phase_5,1,5,63,98,1416044848
118,14,17,Jits_Phase_5,2,5,56,103,1416055292
118,14,17,Jits_Phase_5,3,5,80,127,1416105344
118,14,17,Jits_Phase_5,0,1,48,65,1416531152
118,14,17,Jits_Phase_5,1,5,56,103,1416535380
118,14,17,Jits_Phase_5,2,5,63,98,1416554864
118,14,17,Jits_Phase_5,3,5,80,127,1416565384
118,14,17,Jits_Phase_5,0,1,48,55,1417021532
118,14,17,Jits_Phase_5,1,5,56,103,1417025084
118,14,17,Jits_Phase_5,2,5,63,98,1417028148
118,14,17,Jits_Phase_5,3,5,80,127,1417045392
118,14,17,Jits_Phase_5,0,1,48,61,1417520660
118,14,17,Jits_Phase_5,1,5,63,98,1417564524
118,14,17,Jits_Phase_5,2,5,56,103,1417595196
118,14,17,Jits_Phase_5,3,5,80,127,1417624856
118,14,17,Jits_Phase_5,0,1,48,58,1418016224
118,14,17,Jits_Phase_5,1,5,80,127,1418025388
118,14,17,Jits_Phase_5,2,5,56,103,1418114328
118,14,17,Jits_Phase_5,3,5,63,98,1418117472
118,14,17,Jits_Phase_5,0,5,56,103,1418525132
118,14,17,Jits_Phase_5,1,5,80,127,1418527976
118,14,17,Jits_Phase_5,2,1,48,56,1418546460
118,14,17,Jits_Phase_5,3,5,63,98,1418604920
118,14,17,Jits_Phase_5,0,5,80,127,1419024960
118,14,17,Jits_Phase_5,1,1,48,50,1419070928
118,14,17,Jits_Phase_5,2,5,63,98,1419085268
118,14,17,Jits_Phase_5,3,5,56,103,1419114796
118,14,17,Jits_Phase_5,0,5,63,98,1419524428
118,14,17,Jits_Phase_5,1,5,80,127,1419534920
118,14,17,Jits_Phase_5,2,1,48,59,1419555572
118,14,17,Jits_Phase_5,3,5,56,103,1419605412
118,14,17,Jits_Phase_5,0,1,48,57,1420062484
118,14,17,Jits_Phase_5,1,5,56,103,1420084848
118,14,17,Jits_Phase_5,2,5,80,127,1420115200
118,14,17,Jits_Phase_5,3,5,63,98,1420164660
118,14,17,Jits_Phase_5,0,1,48,60,1420584272
118,14,17,Jits_Phase_5,1,5,63,98,1420674304
118,14,17,Jits_Phase_5,2,5,56,103,1420705080
118,14,17,Jits_Phase_5,3,5,80,127,1420708072
118,14,17,Jits_Phase_5,0,1,48,47,1421142752
118,14,17,Jits_Phase_5,1,5,63,98,1421175016
118,14,17,Jits_Phase_5,2,5,80,127,1421194728
118,14,17,Jits_Phase_5,3,5,56,103,1421204848
118,14,17,Jits_Phase_5,0,1,48,49,1421677556
118,14,17,Jits_Phase_5,1,5,56,103,1421685176
118,14,17,Jits_Phase_5,2,5,63,98,1421688240
118,14,17,Jits_Phase_5,3,5,80,127,1421704660
118,14,17,Jits_Phase_5,0,5,56,103,1422134628
118,14,17,Jits_Phase_5,1,5,63,98,1422144828
118,14,17,Jits_Phase_5,2,1,48,58,1422168324
118,14,17,Jits_Phase_5,3,5,80,127,1422174792
118,14,17,Jits_Phase_5,0,5,63,98,1422654772
118,14,17,Jits_Phase_5,1,1,48,50,1422672340
118,14,17,Jits_Phase_5,2,5,80,127,1422675300
118,14,17,Jits_Phase_5,3,5,56,103,1422715112
118,14,17,Jits_Phase_5,0,1,48,52,1423152252
118,14,17,Jits_Phase_5,1,5,56,103,1423185160
118,14,17,Jits_Phase_5,2,5,63,98,1423225196
118,14,17,Jits_Phase_5,3,5,80,127,1423228632
118,14,17,Jits_Phase_5,0,5,80,127,1423624528
118,14,17,Jits_Phase_5,1,1,48,53,1423648320
118,14,17,Jits_Phase_5,2,5,56,103,1423664756
118,14,17,Jits_Phase_5,3,5,63,98,1423714956
118,14,17,Jits_Phase_5,0,1,48,49,1424154004
118,14,17,Jits_Phase_5,1,5,56,103,1424184668
118,14,17,Jits_Phase_5,2,5,80,127,1424194940
118,14,17,Jits_Phase_5,3,5,63,98,1424224836
118,14,17,Jits_Phase_5,0,5,56,103,1424635428
118,14,17,Jits_Phase_5,1,1,48,52,1424643800
118,14,17,Jits_Phase_5,2,5,80,127,1424675140
118,14,17,Jits_Phase_5,3,5,63,98,1424725336
118,14,17,Jits_Phase_5,0,5,56,103,1425134900
118,14,17,Jits_Phase_5,1,1,48,42,1425150076
118,14,17,Jits_Phase_5,2,5,80,127,1425174828
118,14,17,Jits_Phase_5,3,5,63,98,1425225176
118,14,17,Jits_Phase_5,0,1,48,56,1425624176
118,14,17,Jits_Phase_5,1,5,80,127,1425625664
118,14,17,Jits_Phase_5,2,5,63,98,1425705532
118,14,17,Jits_Phase_5,3,5,56,103,1425714756
118,14,17,Jits_Phase_5,0,1,48,64,1426098784
118,14,17,Jits_Phase_5,1,5,80,127,1426175532
118,14,17,Jits_Phase_5,2,5,56,103,1426184608
118,14,17,Jits_Phase_5,3,5,63,98,1426204904
118,14,17,Jits_Phase_5,0,1,48,54,1426609252
118,14,17,Jits_Phase_5,1,5,63,98,1426645464
118,14,17,Jits_Phase_5,2,5,56,103,1426715052
118,14,17,Jits_Phase_5,3,5,80,127,1426718044
118,14,17,Jits_Phase_5,0,1,48,54,1427116340
118,14,17,Jits_Phase_5,1,5,80,127,1427134868
118,14,17,Jits_Phase_5,2,5,63,98,1427185072
118,14,17,Jits_Phase_5,3,5,56,103,1427224992
118,14,17,Jits_Phase_5,0,1,48,63,1427613692
118,14,17,Jits_Phase_5,1,5,63,98,1427674776
118,14,17,Jits_Phase_5,2,5,56,103,1427714404
118,14,17,Jits_Phase_5,3,5,80,127,1427724820
118,14,17,Jits_Phase_5,0,1,48,57,1428126480
118,14,17,Jits_Phase_5,1,5,63,98,1428164944
118,14,17,Jits_Phase_5,2,5,56,103,1428184576
118,14,17,Jits_Phase_5,3,5,80,127,1428205036
118,14,17,Jits_Phase_5,0,5,80,127,1428624692
118,14,17,Jits_Phase_5,1,1,48,57,1428634284
118,14,17,Jits_Phase_5,2,5,56,103,1428635928
118,14,17,Jits_Phase_5,3,5,63,98,1428654812
118,14,17,Jits_Phase_5,0,1,48,54,1429126136
118,14,17,Jits_Phase_5,1,5,63,98,1429155084
118,14,17,Jits_Phase_5,2,5,56,103,1429195096
118,14,17,Jits_Phase_5,3,5,80,127,1429225504
118,14,17,Jits_Phase_5,0,5,56,103,1429614888
118,14,17,Jits_Phase_5,1,1,48,53,1429616300
118,14,17,Jits_Phase_5,2,5,63,98,1429644580
118,14,17,Jits_Phase_5,3,5,80,127,1429675524
118,14,17,Jits_Phase_5,0,5,80,127,1430034796
118,14,17,Jits_Phase_5,1,1,48,57,1430091924
118,14,17,Jits_Phase_5,2,5,56,103,1430104692
118,14,17,Jits_Phase_5,3,5,63,98,1430107756
118,14,17,Jits_Phase_5,0,5,56,103,1430544668
118,14,17,Jits_Phase_5,1,1,48,53,1430589512
118,14,17,Jits_Phase_5,2,5,63,98,1430594788
118,14,17,Jits_Phase_5,3,5,80,127,1430624536
118,14,17,Jits_Phase_5,0,5,63,98,1431025028
118,14,17,Jits_Phase_5,1,5,80,127,1431028536
118,14,17,Jits_Phase_5,2,1,48,57,1431058032
118,14,17,Jits_Phase_5,3,5,56,103,1431085628
118,14,17,Jits_Phase_5,0,1,48,58,1431513724
118,14,17,Jits_Phase_5,1,5,56,103,1431554648
118,14,17,Jits_Phase_5,2,5,80,127,1431564548
118,14,17,Jits_Phase_5,3,5,63,98,1431614732
118,14,17,Jits_Phase_5,0,5,63,98,1432024440
118,14,17,Jits_Phase_5,1,5,56,103,1432034712
118,14,17,Jits_Phase_5,2,1,48,46,1432059624
118,14,17,Jits_Phase_5,3,5,80,127,1432065572
118,14,17,Jits_Phase_5,0,5,63,98,1432554820
118,14,17,Jits_Phase_5,1,5,80,127,1432558184
118,14,17,Jits_Phase_5,2,1,48,38,1432582604
118,14,17,Jits_Phase_5,3,5,56,103,1432584492
118,14,17,Jits_Phase_5,0,5,63,98,1433075020
118,14,17,Jits_Phase_5,1,5,56,103,1433094580
118,14,17,Jits_Phase_5,2,5,80,127,1433097496
118,14,17,Jits_Phase_5,3,1,48,36,1433109452
118,14,17,Jits_Phase_5,0,5,63,98,1433534832
118,14,17,Jits_Phase_5,1,5,56,103,1433604660
118,14,17,Jits_Phase_5,2,1,48,45,1433612344
118,14,17,Jits_Phase_5,3,5,80,127,1433624964
118,14,17,Jits_Phase_5,0,5,56,103,1434025292
118,14,17,Jits_Phase_5,1,5,63,98,1434034520
118,14,17,Jits_Phase_5,2,1,48,47,1434071196
118,14,17,Jits_Phase_5,3,5,80,127,1434124716
118,14,17,Jits_Phase_5,0,5,56,103,1434544612
118,14,17,Jits_Phase_5,1,1,48,50,1434548176
118,14,17,Jits_Phase_5,2,5,80,127,1434584392
118,14,17,Jits_Phase_5,3,5,63,98,1434594888
118,14,17,Jits_Phase_5,0,1,48,53,1435035500
118,14,17,Jits_Phase_5,1,5,56,103,1435064672
118,14,17,Jits_Phase_5,2,5,63,98,1435095396
118,14,17,Jits_Phase_5,3,5,80,127,1435125068
118,14,17,Jits_Phase_5,0,5,80,127,1435524424
118,14,17,Jits_Phase_5,1,1,48,51,1435549864
118,14,17,Jits_Phase_5,2,5,63,98,1435565624
118,14,17,Jits_Phase_5,3,5,56,103,1435584740
118,14,17,Jits_Phase_5,0,1,48,55,1436028864
118,14,17,Jits_Phase_5,1,5,56,103,1436065012
118,14,17,Jits_Phase_5,2,5,80,127,1436084572
118,14,17,Jits_Phase_5,3,5,63,98,1436104956
118,14,17,Jits_Phase_5,0,5,63,98,1436535320
118,14,17,Jits_Phase_5,1,1,48,50,1436539708
118,14,17,Jits_Phase_5,2,5,56,103,1436545584
118,14,17,Jits_Phase_5,3,5,80,127,1436604852
118,14,17,Jits_Phase_5,0,1,48,50,1437031784
118,14,17,Jits_Phase_5,1,5,56,103,1437034892
118,14,17,Jits_Phase_5,2,5,63,98,1437104452
118,14,17,Jits_Phase_5,3,5,80,127,1437125056
118,14,17,Jits_Phase_5,0,1,48,48,1437505552
118,14,17,Jits_Phase_5,1,5,56,103,1437534568
118,14,17,Jits_Phase_5,2,5,63,98,1437565392
118,14,17,Jits_Phase_5,3,5,80,127,1437605312
118,14,17,Jits_Phase_5,0,1,48,52,1437998104
118,14,17,Jits_Phase_5,1,5,63,98,1438025024
118,14,17,Jits_Phase_5,2,5,56,103,1438075400
118,14,17,Jits_Phase_5,3,5,80,127,1438084400
118,14,17,Jits_Phase_5,0,1,48,47,1438508040
118,14,17,Jits_Phase_5,1,5,56,103,1438564780
118,14,17,Jits_Phase_5,2,5,63,98,1438614992
118,14,17,Jits_Phase_5,3,5,80,127,1438625264
118,14,17,Jits_Phase_5,0,1,48,53,1439012204
118,14,17,Jits_Phase_5,1,5,56,103,1439034720
118,14,17,Jits_Phase_5,2,5,63,98,1439044840
118,14,17,Jits_Phase_5,3,5,80,127,1439124864
118,14,17,Jits_Phase_5,0,9999,9999,9999,1354812492
118,14,17,Jits_Phase_5,1,9999,9999,9999,1355312200
118,14,17,Jits_Phase_5,2,9999,9999,9999,1355812972
118,14,17,Jits_Phase_5,3,9999,9999,9999,1356312696
118,14,17,Jits_Phase_5,4,9999,9999,9999,1356812388
118,14,17,Jits_Phase_5,5,9999,9999,9999,1357312068
118,14,17,Jits_Phase_5,6,9999,9999,9999,1357812860
118,14,17,Jits_Phase_5,7,9999,9999,9999,1358312536
118,14,17,Jits_Phase_5,8,9999,9999,9999,1358812284
118,14,17,Jits_Phase_5,9,9999,9999,9999,1359313020
118,14,17,Jits_Phase_5,10,9999,9999,9999,1359812692
118,14,17,Jits_Phase_5,11,9999,9999,9999,1360312440
118,14,17,Jits_Phase_5,12,9999,9999,9999,1360812112
118,14,17,Jits_Phase_5,13,9999,9999,9999,1361312828
118,14,17,Jits_Phase_5,14,9999,9999,9999,1361812564
118,14,17,Jits_Phase_5,15,9999,9999,9999,1362312312
118,14,17,Jits_Phase_5,16,9999,9999,9999,1362813028
118,14,17,Jits_Phase_5,17,9999,9999,9999,1363312752
118,14,17,Jits_Phase_5,18,9999,9999,9999,1363812416
118,14,17,Jits_Phase_5,19,9999,9999,9999,1364312164
118,14,17,Jits_Phase_5,20,9999,9999,9999,1364812884
118,14,17,Jits_Phase_5,21,9999,9999,9999,1365312632
118,14,17,Jits_Phase_5,22,9999,9999,9999,1365812300
118,14,17,Jits_Phase_5,23,9999,9999,9999,1366313024
118,14,17,Jits_Phase_5,24,9999,9999,9999,1366812772
118,14,17,Jits_Phase_5,25,9999,9999,9999,1367312512
118,14,17,Jits_Phase_5,26,9999,9999,9999,1367812188
118,14,17,Jits_Phase_5,27,9999,9999,9999,1368312896
118,14,17,Jits_Phase_5,28,9999,9999,9999,1368812664
118,14,17,Jits_Phase_5,29,9999,9999,9999,1369312332
118,14,17,Jits_Phase_5,30,9999,9999,9999,1369802808
118,14,17,Jits_Phase_5,31,9999,9999,9999,1370302560
118,14,17,Jits_Phase_5,32,9999,9999,9999,1370802304
118,14,17,Jits_Phase_5,33,9999,9999,9999,1371303024
118,14,17,Jits_Phase_5,34,9999,9999,9999,1371802696
118,14,17,Jits_Phase_5,35,9999,9999,9999,1372302444
118,14,17,Jits_Phase_5,36,9999,9999,9999,1372802108
118,14,17,Jits_Phase_5,37,9999,9999,9999,1373302908
118,14,17,Jits_Phase_5,38,9999,9999,9999,1373802556
118,14,17,Jits_Phase_5,39,9999,9999,9999,1374302304
118,14,17,Jits_Phase_5,40,9999,9999,9999,1374803028
118,14,17,Jits_Phase_5,41,9999,9999,9999,1375302772
118,14,17,Jits_Phase_5,42,9999,9999,9999,1375802460
118,14,17,Jits_Phase_5,43,9999,9999,9999,1376302132
118,14,17,Jits_Phase_5,44,9999,9999,9999,1376802928
118,14,17,Jits_Phase_5,45,9999,9999,9999,1377302596
118,14,17,Jits_Phase_5,46,9999,9999,9999,1377802344
118,14,17,Jits_Phase_5,47,9999,9999,9999,1378303072
118,14,17,Jits_Phase_5,48,9999,9999,9999,1378813012
118,14,17,Jits_Phase_5,49,9999,9999,9999,1379312768
118,14,17,Jits_Phase_5,50,9999,9999,9999,1379812432
118,14,17,Jits_Phase_5,51,9999,9999,9999,1380312120
118,14,17,Jits_Phase_5,52,9999,9999,9999,1380812920
118,14,17,Jits_Phase_5,53,9999,9999,9999,1381312596
118,14,17,Jits_Phase_5,54,9999,9999,9999,1381812344
118,14,17,Jits_Phase_5,55,9999,9999,9999,1382313072
118,14,17,Jits_Phase_5,56,9999,9999,9999,1382812744
118,14,17,Jits_Phase_5,57,9999,9999,9999,1383312504
118,14,17,Jits_Phase_5,58,9999,9999,9999,1383812180
118,14,17,Jits_Phase_5,59,9999,9999,9999,1384312884
118,14,17,Jits_Phase_5,60,9999,9999,9999,1384812612
118,14,17,Jits_Phase_5,61,9999,9999,9999,1385312348
118,14,17,Jits_Phase_5,62,9999,9999,9999,1385813084
118,14,17,Jits_Phase_5,63,9999,9999,9999,1386312828
118,14,17,Jits_Phase_5,64,9999,9999,9999,1386832956
118,14,17,Jits_Phase_5,65,9999,9999,9999,1387332716
118,14,17,Jits_Phase_5,66,9999,9999,9999,1387832404
118,14,17,Jits_Phase_5,67,9999,9999,9999,1388332140
118,14,17,Jits_Phase_5,68,9999,9999,9999,1388832876
118,14,17,Jits_Phase_5,69,9999,9999,9999,1389332552
118,14,17,Jits_Phase_5,70,9999,9999,9999,1389832288
118,14,17,Jits_Phase_5,71,9999,9999,9999,1390333028
118,14,17,Jits_Phase_5,72,9999,9999,9999,1390832700
118,14,17,Jits_Phase_5,73,9999,9999,9999,1391332452
118,14,17,Jits_Phase_5,74,9999,9999,9999,1391832128
118,14,17,Jits_Phase_5,75,9999,9999,9999,1392332920
118,14,17,Jits_Phase_5,76,9999,9999,9999,1392832600
118,14,17,Jits_Phase_5,77,9999,9999,9999,1393332276
118,14,17,Jits_Phase_5,78,9999,9999,9999,1393833088
118,14,17,Jits_Phase_5,79,9999,9999,9999,1394332760
118,14,17,Jits_Phase_5,80,9999,9999,9999,1394832512
118,14,17,Jits_Phase_5,81,9999,9999,9999,1395312760
118,14,17,Jits_Phase_5,82,9999,9999,9999,1395812428
118,14,17,Jits_Phase_5,83,9999,9999,9999,1396312176
118,14,17,Jits_Phase_5,84,9999,9999,9999,1396812912
118,14,17,Jits_Phase_5,85,9999,9999,9999,1397312584
118,14,17,Jits_Phase_5,86,9999,9999,9999,1397812328
118,14,17,Jits_Phase_5,87,9999,9999,9999,1398313068
118,14,17,Jits_Phase_5,88,9999,9999,9999,1398812752
118,14,17,Jits_Phase_5,89,9999,9999,9999,1399312440
118,14,17,Jits_Phase_5,90,9999,9999,9999,1399812204
118,14,17,Jits_Phase_5,91,9999,9999,9999,1400312920
118,14,17,Jits_Phase_5,92,9999,9999,9999,1400812596
118,14,17,Jits_Phase_5,93,9999,9999,9999,1401312348
118,14,17,Jits_Phase_5,94,9999,9999,9999,1401813068
118,14,17,Jits_Phase_5,95,9999,9999,9999,1402312760
118,14,17,Jits_Phase_5,96,9999,9999,9999,1402812524
118,14,17,Jits_Phase_5,97,9999,9999,9999,1403263100
118,14,17,Jits_Phase_5,98,9999,9999,9999,1403762752
118,14,17,Jits_Phase_5,99,9999,9999,9999,1404262508
118,14,17,Jits_Phase_5,100,9999,9999,9999,1404762184
118,14,17,Jits_Phase_5,101,9999,9999,9999,1405262968
118,14,17,Jits_Phase_5,102,9999,9999,9999,1405762648
118,14,17,Jits_Phase_5,103,9999,9999,9999,1406262328
118,14,17,Jits_Phase_5,104,9999,9999,9999,1406763120
118,14,17,Jits_Phase_5,105,9999,9999,9999,1407273052
118,14,17,Jits_Phase_5,106,9999,9999,9999,1407772728
118,14,17,Jits_Phase_5,107,9999,9999,9999,1408272476
118,14,17,Jits_Phase_5,108,9999,9999,9999,1408772152
118,14,17,Jits_Phase_5,109,9999,9999,9999,1409272948
118,14,17,Jits_Phase_5,110,9999,9999,9999,1409772640
118,14,17,Jits_Phase_5,111,9999,9999,9999,1410272328
118,14,17,Jits_Phase_5,112,9999,9999,9999,1410773120
118,14,17,Jits_Phase_5,113,9999,9999,9999,1411272800
118,14,17,Jits_Phase_5,114,9999,9999,9999,1411822664
118,14,17,Jits_Phase_5,115,9999,9999,9999,1412322404
118,14,17,Jits_Phase_5,116,9999,9999,9999,1412822080
118,14,17,Jits_Phase_5,117,9999,9999,9999,1413322816
118,14,17,Jits_Phase_5,118,9999,9999,9999,1413822580
118,14,17,Jits_Phase_5,119,9999,9999,9999,1414322248
118,14,17,Jits_Phase_5,120,9999,9999,9999,1414822980
118,14,17,Jits_Phase_5,121,9999,9999,9999,1415322728
118,14,17,Jits_Phase_5,122,9999,9999,9999,1415822420
118,14,17,Jits_Phase_5,123,9999,9999,9999,1416322108
118,14,17,Jits_Phase_5,124,9999,9999,9999,1416822900
118,14,17,Jits_Phase_5,125,9999,9999,9999,1417322608
118,14,17,Jits_Phase_5,126,9999,9999,9999,1417822280
118,14,17,Jits_Phase_5,127,9999,9999,9999,1418323068
118,14,17,Jits_Phase_5,128,9999,9999,9999,1418822728
118,14,17,Jits_Phase_5,129,9999,9999,9999,1419322492
118,14,17,Jits_Phase_5,130,9999,9999,9999,1419822180
118,14,17,Jits_Phase_5,131,9999,9999,9999,1420422264
118,14,17,Jits_Phase_5,132,9999,9999,9999,1420922980
118,14,17,Jits_Phase_5,133,9999,9999,9999,1421422712
118,14,17,Jits_Phase_5,134,9999,9999,9999,1421922372
118,14,17,Jits_Phase_5,135,9999,9999,9999,1422422124
118,14,17,Jits_Phase_5,136,9999,9999,9999,1422922860
118,14,17,Jits_Phase_5,137,9999,9999,9999,1423422532
118,14,17,Jits_Phase_5,138,9999,9999,9999,1423922284
118,14,17,Jits_Phase_5,139,9999,9999,9999,1424423024
118,14,17,Jits_Phase_5,140,9999,9999,9999,1424922700
118,14,17,Jits_Phase_5,141,9999,9999,9999,1425422392
118,14,17,Jits_Phase_5,142,9999,9999,9999,1425922156
118,14,17,Jits_Phase_5,143,9999,9999,9999,1426422876
118,14,17,Jits_Phase_5,144,9999,9999,9999,1426922620
118,14,17,Jits_Phase_5,145,9999,9999,9999,1427422296
118,14,17,Jits_Phase_5,146,9999,9999,9999,1427923024
118,14,17,Jits_Phase_5,147,9999,9999,9999,1428422772
118,14,17,Jits_Phase_5,148,9999,9999,9999,1428922444
118,14,17,Jits_Phase_5,149,9999,9999,9999,1429422136
118,14,17,Jits_Phase_5,150,9999,9999,9999,1429822524
118,14,17,Jits_Phase_5,151,9999,9999,9999,1430322280
118,14,17,Jits_Phase_5,152,9999,9999,9999,1430823020
118,14,17,Jits_Phase_5,153,9999,9999,9999,1431322696
118,14,17,Jits_Phase_5,154,9999,9999,9999,1431822448
118,14,17,Jits_Phase_5,155,9999,9999,9999,1432322116
118,14,17,Jits_Phase_5,156,9999,9999,9999,1432822904
118,14,17,Jits_Phase_5,157,9999,9999,9999,1433322572
118,14,17,Jits_Phase_5,158,9999,9999,9999,1433822324
118,14,17,Jits_Phase_5,159,9999,9999,9999,1434323052
118,14,17,Jits_Phase_5,160,9999,9999,9999,1434822736
118,14,17,Jits_Phase_5,161,9999,9999,9999,1435322432
118,14,17,Jits_Phase_5,162,9999,9999,9999,1435822180
118,14,17,Jits_Phase_5,163,9999,9999,9999,1436322916
118,14,17,Jits_Phase_5,164,9999,9999,9999,1436822592
118,14,17,Jits_Phase_5,165,9999,9999,9999,1437322344
118,14,17,Jits_Phase_5,166,9999,9999,9999,1437823064
118,14,17,Jits_Phase_5,167,9999,9999,9999,1438322788
118,14,17,Jits_Phase_5,168,9999,9999,9999,1438822468
118,14,17,Jits_Phase_5,169,9999,9999,9999,1439322216
118,15,15,Jits_Phase_8,0,5,56,103,1448774100
118,15,15,Jits_Phase_8,1,5,63,98,1448777352
118,15,15,Jits_Phase_8,2,5,80,127,1448780392
118,15,15,Jits_Phase_8,0,5,56,103,1449573744
118,15,15,Jits_Phase_8,1,5,63,98,1449576840
118,15,15,Jits_Phase_8,2,5,80,127,1449580184
118,15,15,Jits_Phase_8,0,5,80,127,1450314288
118,15,15,Jits_Phase_8,1,1,48,65,1450368968
118,15,15,Jits_Phase_8,2,5,63,98,1450404068
118,15,15,Jits_Phase_8,3,5,56,103,1450413292
118,15,15,Jits_Phase_8,0,1,48,62,1451108324
118,15,15,Jits_Phase_8,1,5,56,103,1451134308
118,15,15,Jits_Phase_8,2,5,63,98,1451143456
118,15,15,Jits_Phase_8,3,5,80,127,1451233648
118,15,15,Jits_Phase_8,0,1,48,65,1451867628
118,15,15,Jits_Phase_8,1,5,63,98,1451904396
118,15,15,Jits_Phase_8,2,5,80,127,1451934296
118,15,15,Jits_Phase_8,3,5,56,103,1451963748
118,15,15,Jits_Phase_8,0,5,56,103,1452704304
118,15,15,Jits_Phase_8,1,1,48,55,1452715668
118,15,15,Jits_Phase_8,2,5,80,127,1452803352
118,15,15,Jits_Phase_8,3,5,63,98,1452853612
118,15,15,Jits_Phase_8,0,1,48,58,1453484720
118,15,15,Jits_Phase_8,1,5,56,103,1453503848
118,15,15,Jits_Phase_8,2,5,80,127,1453554052
118,15,15,Jits_Phase_8,3,5,63,98,1453594048
118,15,15,Jits_Phase_8,0,1,48,61,1454333124
118,15,15,Jits_Phase_8,1,5,80,127,1454334620
118,15,15,Jits_Phase_8,2,5,63,98,1454364148
118,15,15,Jits_Phase_8,3,5,56,103,1454433588
118,15,15,Jits_Phase_8,0,1,48,59,1455099804
118,15,15,Jits_Phase_8,1,5,63,98,1455163676
118,15,15,Jits_Phase_8,2,5,56,103,1455193560
118,15,15,Jits_Phase_8,3,5,80,127,1455253972
118,15,15,Jits_Phase_8,0,1,48,72,1455866984
118,15,15,Jits_Phase_8,1,5,56,103,1455904244
118,15,15,Jits_Phase_8,2,5,80,127,1455907384
118,15,15,Jits_Phase_8,3,5,63,98,1456024200
118,15,15,Jits_Phase_8,0,1,48,66,1456698496
118,15,15,Jits_Phase_8,1,5,56,103,1456783588
118,15,15,Jits_Phase_8,2,5,80,127,1456823588
118,15,15,Jits_Phase_8,3,5,63,98,1456834228
118,15,15,Jits_Phase_8,0,1,48,72,1457481688
118,15,15,Jits_Phase_8,1,5,56,103,1457543492
118,15,15,Jits_Phase_8,2,5,80,127,1457564024
118,15,15,Jits_Phase_8,3,5,63,98,1457644176
118,15,15,Jits_Phase_8,0,1,48,68,1458296996
118,15,15,Jits_Phase_8,1,5,80,127,1458334184
118,15,15,Jits_Phase_8,2,5,56,103,1458434268
118,15,15,Jits_Phase_8,3,5,63,98,1458443492
118,15,15,Jits_Phase_8,0,5,63,98,1459104132
118,15,15,Jits_Phase_8,1,1,48,75,1459110020
118,15,15,Jits_Phase_8,2,5,80,127,1459163472
118,15,15,Jits_Phase_8,3,5,56,103,1459173892
118,15,15,Jits_Phase_8,0,1,48,54,1459878228
118,15,15,Jits_Phase_8,1,5,56,103,1459904104
118,15,15,Jits_Phase_8,2,5,63,98,1459973472
118,15,15,Jits_Phase_8,3,5,80,127,1459977060
118,15,15,Jits_Phase_8,0,1,48,21,1460670400
118,15,15,Jits_Phase_8,1,5,63,98,1460734272
118,15,15,Jits_Phase_8,2,5,56,103,1460783408
118,15,15,Jits_Phase_8,3,5,80,127,1460786548
118,15,15,Jits_Phase_8,0,1,48,63,1461427672
118,15,15,Jits_Phase_8,1,5,56,103,1461494232
118,15,15,Jits_Phase_8,2,5,80,127,1461497372
118,15,15,Jits_Phase_8,3,5,63,98,1461584196
118,15,15,Jits_Phase_8,0,1,48,59,1462265628
118,15,15,Jits_Phase_8,1,5,63,98,1462334208
118,15,15,Jits_Phase_8,2,5,56,103,1462423980
118,15,15,Jits_Phase_8,3,5,80,127,1462453728
118,15,15,Jits_Phase_8,0,5,56,103,1463124388
118,15,15,Jits_Phase_8,1,1,48,55,1463167316
118,15,15,Jits_Phase_8,2,5,63,98,1463223832
118,15,15,Jits_Phase_8,3,5,80,127,1463254256
118,15,15,Jits_Phase_8,0,5,63,98,1463943744
118,15,15,Jits_Phase_8,1,5,56,103,1463953868
118,15,15,Jits_Phase_8,2,5,80,127,1464044068
118,15,15,Jits_Phase_8,3,1,48,56,1464045332
118,15,15,Jits_Phase_8,0,5,63,98,1464763884
118,15,15,Jits_Phase_8,1,1,48,56,1464779656
118,15,15,Jits_Phase_8,2,5,56,103,1464843516
118,15,15,Jits_Phase_8,3,5,80,127,1464846960
118,15,15,Jits_Phase_8,0,5,80,127,1465523480
118,15,15,Jits_Phase_8,1,5,63,98,1465544088
118,15,15,Jits_Phase_8,2,1,48,66,1465567732
118,15,15,Jits_Phase_8,3,5,56,103,1465603348
118,15,15,Jits_Phase_8,0,5,56,103,1466364156
118,15,15,Jits_Phase_8,1,1,48,51,1466376188
118,15,15,Jits_Phase_8,2,5,63,98,1466383932
118,15,15,Jits_Phase_8,3,5,80,127,1466387224
118,15,15,Jits_Phase_8,0,1,48,21,1467004608
118,15,15,Jits_Phase_8,1,5,63,98,1467103888
118,15,15,Jits_Phase_8,2,5,80,127,1467183612
118,15,15,Jits_Phase_8,3,5,56,103,1467193880
118,15,15,Jits_Phase_8,0,1,48,48,1467840692
118,15,15,Jits_Phase_8,1,5,63,98,1467924112
118,15,15,Jits_Phase_8,2,5,56,103,1467944188
118,15,15,Jits_Phase_8,3,5,80,127,1467993412
118,15,15,Jits_Phase_8,0,1,48,56,1468678960
118,15,15,Jits_Phase_8,1,5,80,127,1468723796
118,15,15,Jits_Phase_8,2,5,63,98,1468763364
118,15,15,Jits_Phase_8,3,5,56,103,1468783956
118,15,15,Jits_Phase_8,0,1,48,49,1469517904
118,15,15,Jits_Phase_8,1,5,56,103,1469564184
118,15,15,Jits_Phase_8,2,5,63,98,1469573408
118,15,15,Jits_Phase_8,3,5,80,127,1469594016
118,15,15,Jits_Phase_8,0,5,56,103,1470294252
118,15,15,Jits_Phase_8,1,1,48,59,1470351868
118,15,15,Jits_Phase_8,2,5,63,98,1470383580
118,15,15,Jits_Phase_8,3,5,80,127,1470443744
118,15,15,Jits_Phase_8,0,5,80,127,1471123944
118,15,15,Jits_Phase_8,1,5,56,103,1471133988
118,15,15,Jits_Phase_8,2,1,48,61,1471170136
118,15,15,Jits_Phase_8,3,5,63,98,1471203736
118,15,15,Jits_Phase_8,0,5,63,98,1471954356
118,15,15,Jits_Phase_8,1,1,48,57,1471977248
118,15,15,Jits_Phase_8,2,5,80,127,1472044332
118,15,15,Jits_Phase_8,3,5,56,103,1472053928
118,15,15,Jits_Phase_8,0,5,63,98,1472684368
118,15,15,Jits_Phase_8,1,5,80,127,1472733748
118,15,15,Jits_Phase_8,2,1,48,68,1472783992
118,15,15,Jits_Phase_8,3,5,56,103,1472793904
118,15,15,Jits_Phase_8,0,5,56,103,1473513796
118,15,15,Jits_Phase_8,1,1,48,65,1473547100
118,15,15,Jits_Phase_8,2,5,80,127,1473563988
118,15,15,Jits_Phase_8,3,5,63,98,1473583328
118,15,15,Jits_Phase_8,0,5,56,103,1474283972
118,15,15,Jits_Phase_8,1,1,48,62,1474298844
118,15,15,Jits_Phase_8,2,5,80,127,1474344280
118,15,15,Jits_Phase_8,3,5,63,98,1474414096
118,15,15,Jits_Phase_8,0,5,56,103,1475083668
118,15,15,Jits_Phase_8,1,1,48,65,1475098468
118,15,15,Jits_Phase_8,2,5,80,127,1475114384
118,15,15,Jits_Phase_8,3,5,63,98,1475144060
118,15,15,Jits_Phase_8,0,1,48,66,1475874780
118,15,15,Jits_Phase_8,1,5,56,103,1475924256
118,15,15,Jits_Phase_8,2,5,80,127,1475943744
118,15,15,Jits_Phase_8,3,5,63,98,1476004216
118,15,15,Jits_Phase_8,0,1,48,62,1476696268
118,15,15,Jits_Phase_8,1,5,80,127,1476803892
118,15,15,Jits_Phase_8,2,5,56,103,1476814236
118,15,15,Jits_Phase_8,3,5,63,98,1476824876
118,15,15,Jits_Phase_8,0,1,48,66,1477553524
118,15,15,Jits_Phase_8,1,5,56,103,1477563736
118,15,15,Jits_Phase_8,2,5,80,127,1477603900
118,15,15,Jits_Phase_8,3,5,63,98,1477634620
118,15,15,Jits_Phase_8,0,5,56,103,1478333688
118,15,15,Jits_Phase_8,1,5,63,98,1478363736
118,15,15,Jits_Phase_8,2,1,48,70,1478365228
118,15,15,Jits_Phase_8,3,5,80,127,1478403520
118,15,15,Jits_Phase_8,0,5,80,127,1479084676
118,15,15,Jits_Phase_8,1,5,63,98,1479133684
118,15,15,Jits_Phase_8,2,5,56,103,1479153996
118,15,15,Jits_Phase_8,3,1,48,69,1479199132
118,15,15,Jits_Phase_8,0,1,48,73,1479906064
118,15,15,Jits_Phase_8,1,5,56,103,1479913736
118,15,15,Jits_Phase_8,2,5,80,127,1479983640
118,15,15,Jits_Phase_8,3,5,63,98,1480043936
118,15,15,Jits_Phase_8,0,1,48,71,1480689708
118,15,15,Jits_Phase_8,1,5,80,127,1480713716
118,15,15,Jits_Phase_8,2,5,63,98,1480803760
118,15,15,Jits_Phase_8,3,5,56,103,1480824172
118,15,15,Jits_Phase_8,0,5,63,98,1481533788
118,15,15,Jits_Phase_8,1,1,48,75,1481544328
118,15,15,Jits_Phase_8,2,5,56,103,1481554388
118,15,15,Jits_Phase_8,3,5,80,127,1481594352
118,15,15,Jits_Phase_8,0,1,48,62,1482291416
118,15,15,Jits_Phase_8,1,5,80,127,1482293532
118,15,15,Jits_Phase_8,2,5,63,98,1482314064
118,15,15,Jits_Phase_8,3,5,56,103,1482393868
118,15,15,Jits_Phase_8,0,1,48,62,1483070620
118,15,15,Jits_Phase_8,1,5,63,98,1483084140
118,15,15,Jits_Phase_8,2,5,56,103,1483193836
118,15,15,Jits_Phase_8,3,5,80,127,1483196828
118,15,15,Jits_Phase_8,0,1,48,63,1483874648
118,15,15,Jits_Phase_8,1,5,63,98,1483904740
118,15,15,Jits_Phase_8,2,5,56,103,1483913436
118,15,15,Jits_Phase_8,3,5,80,127,1483916580
118,15,15,Jits_Phase_8,0,5,56,103,1484683736
118,15,15,Jits_Phase_8,1,1,48,63,1484686028
118,15,15,Jits_Phase_8,2,5,80,127,1484803592
118,15,15,Jits_Phase_8,3,5,63,98,1484844648
118,15,15,Jits_Phase_8,0,5,56,103,1485503884
118,15,15,Jits_Phase_8,1,1,48,69,1485524612
118,15,15,Jits_Phase_8,2,5,80,127,1485583672
118,15,15,Jits_Phase_8,3,5,63,98,1485604356
118,15,15,Jits_Phase_8,0,5,56,103,1486303508
118,15,15,Jits_Phase_8,1,1,48,66,1486345288
118,15,15,Jits_Phase_8,2,5,63,98,1486414160
118,15,15,Jits_Phase_8,3,5,80,127,1486417748
118,15,15,Jits_Phase_8,0,1,48,78,1487094028
118,15,15,Jits_Phase_8,1,5,56,103,1487144472
118,15,15,Jits_Phase_8,2,5,80,127,1487174000
118,15,15,Jits_Phase_8,3,5,63,98,1487193696
118,15,15,Jits_Phase_8,0,1,48,72,1487847704
118,15,15,Jits_Phase_8,1,5,63,98,1487933892
118,15,15,Jits_Phase_8,2,5,56,103,1487945044
118,15,15,Jits_Phase_8,3,5,80,127,1487954416
118,15,15,Jits_Phase_8,0,1,48,80,1488615692
118,15,15,Jits_Phase_8,1,5,80,127,1488724636
118,15,15,Jits_Phase_8,2,5,56,103,1488773596
118,15,15,Jits_Phase_8,3,5,63,98,1488813680
118,15,15,Jits_Phase_8,0,1,48,64,1489434632
118,15,15,Jits_Phase_8,1,5,80,127,1489543524
118,15,15,Jits_Phase_8,2,5,63,98,1489563912
118,15,15,Jits_Phase_8,3,5,56,103,1489614408
118,15,15,Jits_Phase_8,0,1,48,70,1490291336
118,15,15,Jits_Phase_8,1,5,80,127,1490353412
118,15,15,Jits_Phase_8,2,5,56,103,1490384356
118,15,15,Jits_Phase_8,3,5,63,98,1490453796
118,15,15,Jits_Phase_8,0,1,48,60,1491124524
118,15,15,Jits_Phase_8,1,5,56,103,1491203592
118,15,15,Jits_Phase_8,2,5,80,127,1491213716
118,15,15,Jits_Phase_8,3,5,63,98,1491253636
118,15,15,Jits_Phase_8,0,5,56,103,1491914128
118,15,15,Jits_Phase_8,1,5,63,98,1491933468
118,15,15,Jits_Phase_8,2,1,48,72,1491965576
118,15,15,Jits_Phase_8,3,5,80,127,1492004332
118,15,15,Jits_Phase_8,0,1,48,71,1492703980
118,15,15,Jits_Phase_8,1,5,63,98,1492734644
118,15,15,Jits_Phase_8,2,5,80,127,1492793620
118,15,15,Jits_Phase_8,3,5,56,103,1492814284
118,15,15,Jits_Phase_8,0,1,48,63,1493512956
118,15,15,Jits_Phase_8,1,5,80,127,1493523768
118,15,15,Jits_Phase_8,2,5,56,103,1493553520
118,15,15,Jits_Phase_8,3,5,63,98,1493584388
118,15,15,Jits_Phase_8,0,1,48,54,1494271932
118,15,15,Jits_Phase_8,1,5,56,103,1494323448
118,15,15,Jits_Phase_8,2,5,63,98,1494383972
118,15,15,Jits_Phase_8,3,5,80,127,1494444384
118,15,15,Jits_Phase_8,0,1,48,59,1495049744
118,15,15,Jits_Phase_8,1,5,80,127,1495143796
118,15,15,Jits_Phase_8,2,5,56,103,1495164500
118,15,15,Jits_Phase_8,3,5,63,98,1495233956
118,15,15,Jits_Phase_8,0,1,48,70,1495854980
118,15,15,Jits_Phase_8,1,5,80,127,1495943440
118,15,15,Jits_Phase_8,2,5,63,98,1495963960
118,15,15,Jits_Phase_8,3,5,56,103,1495993712
118,15,15,Jits_Phase_8,0,1,48,70,1496676988
118,15,15,Jits_Phase_8,1,5,80,127,1496734356
118,15,15,Jits_Phase_8,2,5,63,98,1496753396
118,15,15,Jits_Phase_8,3,5,56,103,1496813844
118,15,15,Jits_Phase_8,0,1,48,65,1497472880
118,15,15,Jits_Phase_8,1,5,80,127,1497533816
118,15,15,Jits_Phase_8,2,5,56,103,1497634348
118,15,15,Jits_Phase_8,3,5,63,98,1497663800
118,15,15,Jits_Phase_8,0,5,63,98,1498324296
118,15,15,Jits_Phase_8,1,1,48,64,1498332964
118,15,15,Jits_Phase_8,2,5,80,127,1498373444
118,15,15,Jits_Phase_8,3,5,56,103,1498394052
118,15,15,Jits_Phase_8,0,1,48,60,1499116296
118,15,15,Jits_Phase_8,1,5,80,127,1499164276
118,15,15,Jits_Phase_8,2,5,56,103,1499193652
118,15,15,Jits_Phase_8,3,5,63,98,1499196716
118,15,15,Jits_Phase_8,0,1,48,57,1499922128
118,15,15,Jits_Phase_8,1,5,63,98,1500014004
118,15,15,Jits_Phase_8,2,5,56,103,1500054004
118,15,15,Jits_Phase_8,3,5,80,127,1500074312
118,15,15,Jits_Phase_8,0,5,80,127,1500773740
118,15,15,Jits_Phase_8,1,1,48,43,1500830592
118,15,15,Jits_Phase_8,2,5,63,98,1500853556
118,15,15,Jits_Phase_8,3,5,56,103,1500893492
118,15,15,Jits_Phase_8,0,5,63,98,1501594220
118,15,15,Jits_Phase_8,1,1,48,66,1501598984
118,15,15,Jits_Phase_8,2,5,80,127,1501673936
118,15,15,Jits_Phase_8,3,5,56,103,1501695352
118,15,15,Jits_Phase_8,0,1,48,64,1502399712
118,15,15,Jits_Phase_8,1,5,56,103,1502433612
118,15,15,Jits_Phase_8,2,5,63,98,1502444104
118,15,15,Jits_Phase_8,3,5,80,127,1502483892
118,15,15,Jits_Phase_8,0,1,48,68,1503153436
118,15,15,Jits_Phase_8,1,5,56,103,1503155024
118,15,15,Jits_Phase_8,2,5,80,127,1503157696
118,15,15,Jits_Phase_8,3,5,63,98,1503293668
118,15,15,Jits_Phase_8,0,5,56,103,1503944124
118,15,15,Jits_Phase_8,1,1,48,62,1503989120
118,15,15,Jits_Phase_8,2,5,63,98,1504034252
118,15,15,Jits_Phase_8,3,5,80,127,1504103692
118,15,15,Jits_Phase_8,0,1,48,78,1504750900
118,15,15,Jits_Phase_8,1,5,63,98,1504823684
118,15,15,Jits_Phase_8,2,5,80,127,1504827196
118,15,15,Jits_Phase_8,3,5,56,103,1504884228
118,15,15,Jits_Phase_8,0,1,48,54,1505623860
118,15,15,Jits_Phase_8,1,5,80,127,1505664296
118,15,15,Jits_Phase_8,2,5,56,103,1505684228
118,15,15,Jits_Phase_8,3,5,63,98,1505694496
118,15,15,Jits_Phase_8,0,5,56,103,1506374208
118,15,15,Jits_Phase_8,1,5,63,98,1506384256
118,15,15,Jits_Phase_8,2,1,48,54,1506429276
118,15,15,Jits_Phase_8,3,5,80,127,1506453808
118,15,15,Jits_Phase_8,0,1,48,52,1507142716
118,15,15,Jits_Phase_8,1,5,80,127,1507173680
118,15,15,Jits_Phase_8,2,5,56,103,1507224128
118,15,15,Jits_Phase_8,3,5,63,98,1507274164
118,15,15,Jits_Phase_8,0,1,48,62,1507976952
118,15,15,Jits_Phase_8,1,5,56,103,1508054304
118,15,15,Jits_Phase_8,2,5,63,98,1508063676
118,15,15,Jits_Phase_8,3,5,80,127,1508103672
118,15,15,Jits_Phase_8,0,1,48,55,1508786316
118,15,15,Jits_Phase_8,1,5,56,103,1508793908
118,15,15,Jits_Phase_8,2,5,63,98,1508833772
118,15,15,Jits_Phase_8,3,5,80,127,1508884252
118,15,15,Jits_Phase_8,0,5,80,127,1509553588
118,15,15,Jits_Phase_8,1,1,48,54,1509568840
118,15,15,Jits_Phase_8,2,5,56,103,1509603860
118,15,15,Jits_Phase_8,3,5,63,98,1509624168
118,15,15,Jits_Phase_8,0,1,48,61,1510331060
118,15,15,Jits_Phase_8,1,5,80,127,1510363540
118,15,15,Jits_Phase_8,2,5,63,98,1510424592
118,15,15,Jits_Phase_8,3,5,56,103,1510504080
118,15,15,Jits_Phase_8,0,1,48,61,1511141236
118,15,15,Jits_Phase_8,1,5,80,127,1511143968
118,15,15,Jits_Phase_8,2,5,56,103,1511183836
118,15,15,Jits_Phase_8,3,5,63,98,1511204220
118,15,15,Jits_Phase_8,0,1,48,70,1511889816
118,15,15,Jits_Phase_8,1,5,56,103,1511994128
118,15,15,Jits_Phase_8,2,5,80,127,1512004396
118,15,15,Jits_Phase_8,3,5,63,98,1512043964
118,15,15,Jits_Phase_8,0,1,48,77,1512712740
118,15,15,Jits_Phase_8,1,5,56,103,1512863968
118,15,15,Jits_Phase_8,2,5,63,98,1512903976
118,15,15,Jits_Phase_8,3,5,80,127,1512907264
118,15,15,Jits_Phase_8,0,5,63,98,1513533884
118,15,15,Jits_Phase_8,1,1,48,61,1513564500
118,15,15,Jits_Phase_8,2,5,80,127,1513573964
118,15,15,Jits_Phase_8,3,5,56,103,1513644344
118,15,15,Jits_Phase_8,0,5,63,98,1514303976
118,15,15,Jits_Phase_8,1,1,48,61,1514347320
118,15,15,Jits_Phase_8,2,5,56,103,1514383716
118,15,15,Jits_Phase_8,3,5,80,127,1514444088
118,15,15,Jits_Phase_8,0,1,48,60,1515114072
118,15,15,Jits_Phase_8,1,5,80,127,1515115336
118,15,15,Jits_Phase_8,2,5,63,98,1515164068
118,15,15,Jits_Phase_8,3,5,56,103,1515194188
118,15,15,Jits_Phase_8,0,5,56,103,1515904412
118,15,15,Jits_Phase_8,1,1,48,56,1515929924
118,15,15,Jits_Phase_8,2,5,63,98,1515953412
118,15,15,Jits_Phase_8,3,5,80,127,1515963904
118,15,15,Jits_Phase_8,0,5,56,103,1516714292
118,15,15,Jits_Phase_8,1,1,48,57,1516721988
118,15,15,Jits_Phase_8,2,5,63,98,1516824108
118,15,15,Jits_Phase_8,3,5,80,127,1516844344
118,15,15,Jits_Phase_8,0,5,63,98,1517514068
118,15,15,Jits_Phase_8,1,1,48,60,1517535692
118,15,15,Jits_Phase_8,2,5,80,127,1517564412
118,15,15,Jits_Phase_8,3,5,56,103,1517654528
118,15,15,Jits_Phase_8,0,5,63,98,1518303560
118,15,15,Jits_Phase_8,1,1,48,76,1518307200
118,15,15,Jits_Phase_8,2,5,80,127,1518334276
118,15,15,Jits_Phase_8,3,5,56,103,1518424464
118,15,15,Jits_Phase_8,0,1,48,65,1519074960
118,15,15,Jits_Phase_8,1,5,63,98,1519104284
118,15,15,Jits_Phase_8,2,5,56,103,1519113732
118,15,15,Jits_Phase_8,3,5,80,127,1519214032
118,15,15,Jits_Phase_8,0,1,48,61,1519901004
118,15,15,Jits_Phase_8,1,5,63,98,1520003396
118,15,15,Jits_Phase_8,2,5,80,127,1520034268
118,15,15,Jits_Phase_8,3,5,56,103,1520063868
118,15,15,Jits_Phase_8,0,1,48,67,1520742896
118,15,15,Jits_Phase_8,1,5,80,127,1520824080
118,15,15,Jits_Phase_8,2,5,63,98,1520834052
118,15,15,Jits_Phase_8,3,5,56,103,1520863788
118,15,15,Jits_Phase_8,0,5,80,127,1521524132
118,15,15,Jits_Phase_8,1,1,48,57,1521529268
118,15,15,Jits_Phase_8,2,5,63,98,1521543536
118,15,15,Jits_Phase_8,3,5,56,103,1521594036
118,15,15,Jits_Phase_8,0,1,48,60,1522305216
118,15,15,Jits_Phase_8,1,5,63,98,1522353712
118,15,15,Jits_Phase_8,2,5,80,127,1522413868
118,15,15,Jits_Phase_8,3,5,56,103,1522434400
118,15,15,Jits_Phase_8,0,5,63,98,1523114372
118,15,15,Jits_Phase_8,1,1,48,48,1523118612
118,15,15,Jits_Phase_8,2,5,56,103,1523163596
118,15,15,Jits_Phase_8,3,5,80,127,1523173864
118,15,15,Jits_Phase_8,0,1,48,45,1523892968
118,15,15,Jits_Phase_8,1,5,56,103,1523943788
118,15,15,Jits_Phase_8,2,5,80,127,1523953908
118,15,15,Jits_Phase_8,3,5,63,98,1524054360
118,15,15,Jits_Phase_8,0,1,48,38,1524684256
118,15,15,Jits_Phase_8,1,5,80,127,1524703536
118,15,15,Jits_Phase_8,2,5,63,98,1524713956
118,15,15,Jits_Phase_8,3,5,56,103,1524864328
118,15,15,Jits_Phase_8,0,5,63,98,1525513712
118,15,15,Jits_Phase_8,1,1,48,50,1525518996
118,15,15,Jits_Phase_8,2,5,80,127,1525553568
118,15,15,Jits_Phase_8,3,5,56,103,1525634272
118,15,15,Jits_Phase_8,0,5,56,103,1526264096
118,15,15,Jits_Phase_8,1,5,80,127,1526363448
118,15,15,Jits_Phase_8,2,1,48,44,1526376680
118,15,15,Jits_Phase_8,3,5,63,98,1526383924
118,15,15,Jits_Phase_8,0,5,80,127,1527084332
118,15,15,Jits_Phase_8,1,1,48,61,1527090516
118,15,15,Jits_Phase_8,2,5,56,103,1527093844
118,15,15,Jits_Phase_8,3,5,63,98,1527183688
118,15,15,Jits_Phase_8,0,5,56,103,1527884032
118,15,15,Jits_Phase_8,1,1,48,51,1527889168
118,15,15,Jits_Phase_8,2,5,63,98,1527903884
118,15,15,Jits_Phase_8,3,5,80,127,1527983536
118,15,15,Jits_Phase_8,0,5,63,98,1528633832
118,15,15,Jits_Phase_8,1,1,48,58,1528638672
118,15,15,Jits_Phase_8,2,5,56,103,1528723908
118,15,15,Jits_Phase_8,3,5,80,127,1528726976
118,15,15,Jits_Phase_8,0,1,48,58,1529398404
118,15,15,Jits_Phase_8,1,5,56,103,1529464240
118,15,15,Jits_Phase_8,2,5,80,127,1529523868
118,15,15,Jits_Phase_8,3,5,63,98,1529533912
118,15,15,Jits_Phase_8,0,1,48,64,1530179424
118,15,15,Jits_Phase_8,1,5,80,127,1530314032
118,15,15,Jits_Phase_8,2,5,56,103,1530324300
118,15,15,Jits_Phase_8,3,5,63,98,1530327664
118,15,15,Jits_Phase_8,0,1,48,47,1531073420
118,15,15,Jits_Phase_8,1,5,56,103,1531074764
118,15,15,Jits_Phase_8,2,5,80,127,1531084136
118,15,15,Jits_Phase_8,3,5,63,98,1531103848
118,15,15,Jits_Phase_8,0,5,63,98,1531843960
118,15,15,Jits_Phase_8,1,1,48,64,1531867604
118,15,15,Jits_Phase_8,2,5,80,127,1531904492
118,15,15,Jits_Phase_8,3,5,56,103,1531953572
118,15,15,Jits_Phase_8,0,1,48,65,1532640680
118,15,15,Jits_Phase_8,1,5,63,98,1532723880
118,15,15,Jits_Phase_8,2,5,56,103,1532734060
118,15,15,Jits_Phase_8,3,5,80,127,1532784064
118,15,15,Jits_Phase_8,0,5,63,98,1533423932
118,15,15,Jits_Phase_8,1,1,48,60,1533434620
118,15,15,Jits_Phase_8,2,5,80,127,1533443488
118,15,15,Jits_Phase_8,3,5,56,103,1533453680
118,15,15,Jits_Phase_8,0,1,48,57,1534223600
118,15,15,Jits_Phase_8,1,5,63,98,1534225040
118,15,15,Jits_Phase_8,2,5,80,127,1534228084
118,15,15,Jits_Phase_8,3,5,56,103,1534263760
118,15,15,Jits_Phase_8,0,1,48,59,1535068340
118,15,15,Jits_Phase_8,1,5,63,98,1535094092
118,15,15,Jits_Phase_8,2,5,80,127,1535123696
118,15,15,Jits_Phase_8,3,5,56,103,1535134040
118,15,15,Jits_Phase_8,0,5,56,103,1535843712
118,15,15,Jits_Phase_8,1,5,80,127,1535874608
118,15,15,Jits_Phase_8,2,5,63,98,1535904060
118,15,15,Jits_Phase_8,3,1,48,63,1535910840
118,15,15,Jits_Phase_8,0,1,48,55,1536654940
118,15,15,Jits_Phase_8,1,5,63,98,1536743676
118,15,15,Jits_Phase_8,2,5,56,103,1536783820
118,15,15,Jits_Phase_8,3,5,80,127,1536786888
118,15,15,Jits_Phase_8,0,5,80,127,1537444168
118,15,15,Jits_Phase_8,1,5,56,103,1537524040
118,15,15,Jits_Phase_8,2,1,48,60,1537565588
118,15,15,Jits_Phase_8,3,5,63,98,1537574456
118,15,15,Jits_Phase_8,0,5,80,127,1538223636
118,15,15,Jits_Phase_8,1,5,56,103,1538244096
118,15,15,Jits_Phase_8,2,5,63,98,1538333928
118,15,15,Jits_Phase_8,3,1,48,64,1538352856
118,15,15,Jits_Phase_8,0,5,80,127,1539064236
118,15,15,Jits_Phase_8,1,5,63,98,1539104024
118,15,15,Jits_Phase_8,2,5,56,103,1539144188
118,15,15,Jits_Phase_8,3,1,48,37,1539166856
118,15,15,Jits_Phase_8,0,5,63,98,1539874124
118,15,15,Jits_Phase_8,1,5,80,127,1539933768
118,15,15,Jits_Phase_8,2,1,48,48,1539945656
118,15,15,Jits_Phase_8,3,5,56,103,1539964280
118,15,15,Jits_Phase_8,0,5,56,103,1540713808
118,15,15,Jits_Phase_8,1,5,80,127,1540743660
118,15,15,Jits_Phase_8,2,1,48,60,1540751656
118,15,15,Jits_Phase_8,3,5,63,98,1540833632
118,15,15,Jits_Phase_8,0,5,56,103,1541523792
118,15,15,Jits_Phase_8,1,1,48,64,1541603488
118,15,15,Jits_Phase_8,2,5,80,127,1541634672
118,15,15,Jits_Phase_8,3,5,63,98,1541664124
118,15,15,Jits_Phase_8,0,5,56,103,1542373692
118,15,15,Jits_Phase_8,1,1,48,65,1542413680
118,15,15,Jits_Phase_8,2,5,63,98,1542434376
118,15,15,Jits_Phase_8,3,5,80,127,1542463828
118,15,15,Jits_Phase_8,0,5,56,103,1543143804
118,15,15,Jits_Phase_8,1,1,48,66,1543197268
118,15,15,Jits_Phase_8,2,5,63,98,1543213480
118,15,15,Jits_Phase_8,3,5,80,127,1543233864
118,15,15,Jits_Phase_8,0,5,80,127,1543913836
118,15,15,Jits_Phase_8,1,5,63,98,1543934444
118,15,15,Jits_Phase_8,2,5,56,103,1543983668
118,15,15,Jits_Phase_8,3,1,48,54,1543999596
118,15,15,Jits_Phase_8,0,5,63,98,1544734056
118,15,15,Jits_Phase_8,1,5,80,127,1544744400
118,15,15,Jits_Phase_8,2,1,48,64,1544788568
118,15,15,Jits_Phase_8,3,5,56,103,1544793620
118,15,15,Jits_Phase_8,0,5,63,98,1545533956
118,15,15,Jits_Phase_8,1,5,80,127,1545603444
118,15,15,Jits_Phase_8,2,1,48,61,1545604484
118,15,15,Jits_Phase_8,3,5,56,103,1545623892
118,15,15,Jits_Phase_8,0,5,63,98,1546364384
118,15,15,Jits_Phase_8,1,5,80,127,1546367672
118,15,15,Jits_Phase_8,2,5,56,103,1546433764
118,15,15,Jits_Phase_8,3,1,48,59,1546456436
118,15,15,Jits_Phase_8,0,5,80,127,1547113840
118,15,15,Jits_Phase_8,1,5,56,103,1547134692
118,15,15,Jits_Phase_8,2,5,63,98,1547143472
118,15,15,Jits_Phase_8,3,1,48,58,1547269140
118,15,15,Jits_Phase_8,0,5,56,103,1547933932
118,15,15,Jits_Phase_8,1,1,48,63,1548017656
118,15,15,Jits_Phase_8,2,5,63,98,1548024356
118,15,15,Jits_Phase_8,3,5,80,127,1548027716
118,15,15,Jits_Phase_8,0,5,80,127,1548704324
118,15,15,Jits_Phase_8,1,5,56,103,1548714520
118,15,15,Jits_Phase_8,2,5,63,98,1548733788
118,15,15,Jits_Phase_8,3,1,48,71,1548816760
118,15,15,Jits_Phase_8,0,5,63,98,1549503868
118,15,15,Jits_Phase_8,1,5,80,127,1549564332
118,15,15,Jits_Phase_8,2,5,56,103,1549573480
118,15,15,Jits_Phase_8,3,1,48,65,1549581848
118,15,15,Jits_Phase_8,0,1,48,67,1550353716
118,15,15,Jits_Phase_8,1,5,63,98,1550374340
118,15,15,Jits_Phase_8,2,5,80,127,1550403940
118,15,15,Jits_Phase_8,3,5,56,103,1550443876
118,15,15,Jits_Phase_8,0,5,56,103,1551163744
118,15,15,Jits_Phase_8,1,5,80,127,1551174092
118,15,15,Jits_Phase_8,2,5,63,98,1551214052
118,15,15,Jits_Phase_8,3,1,48,70,1551222800
118,15,15,Jits_Phase_8,0,5,80,127,1551923512
118,15,15,Jits_Phase_8,1,1,48,61,1551976972
118,15,15,Jits_Phase_8,2,5,56,103,1552003476
118,15,15,Jits_Phase_8,3,5,63,98,1552013820
118,15,15,Jits_Phase_8,0,5,80,127,1552773580
118,15,15,Jits_Phase_8,1,1,48,66,1552842408
118,15,15,Jits_Phase_8,2,5,56,103,1552854344
118,15,15,Jits_Phase_8,3,5,63,98,1552863640
118,15,15,Jits_Phase_8,0,5,80,127,1553614268
118,15,15,Jits_Phase_8,1,1,48,63,1553644212
118,15,15,Jits_Phase_8,2,5,56,103,1553664464
118,15,15,Jits_Phase_8,3,5,63,98,1553713468
118,15,15,Jits_Phase_8,0,1,48,63,1554481360
118,15,15,Jits_Phase_8,1,5,56,103,1554554372
118,15,15,Jits_Phase_8,2,5,63,98,1554557216
118,15,15,Jits_Phase_8,3,5,80,127,1554604336
118,15,15,Jits_Phase_8,0,5,56,103,1555373392
118,15,15,Jits_Phase_8,1,1,48,53,1555376288
118,15,15,Jits_Phase_8,2,5,63,98,1555404408
118,15,15,Jits_Phase_8,3,5,80,127,1555414528
118,15,15,Jits_Phase_8,0,5,63,98,1556084092
118,15,15,Jits_Phase_8,1,5,56,103,1556153700
118,15,15,Jits_Phase_8,2,1,48,50,1556174952
118,15,15,Jits_Phase_8,3,5,80,127,1556203744
118,15,15,Jits_Phase_8,0,5,63,98,1556913448
118,15,15,Jits_Phase_8,1,5,56,103,1556923716
118,15,15,Jits_Phase_8,2,5,80,127,1556926780
118,15,15,Jits_Phase_8,3,1,48,55,1556935900
118,15,15,Jits_Phase_8,0,1,48,76,1557643784
118,15,15,Jits_Phase_8,1,5,80,127,1557664408
118,15,15,Jits_Phase_8,2,5,56,103,1557723604
118,15,15,Jits_Phase_8,3,5,63,98,1557813496
118,15,15,Jits_Phase_8,0,5,80,127,1558464096
118,15,15,Jits_Phase_8,1,1,48,57,1558526404
118,15,15,Jits_Phase_8,2,5,56,103,1558564188
118,15,15,Jits_Phase_8,3,5,63,98,1558604352
118,15,15,Jits_Phase_8,0,5,56,103,1559313696
118,15,15,Jits_Phase_8,1,5,63,98,1559334304
118,15,15,Jits_Phase_8,2,1,48,66,1559335344
118,15,15,Jits_Phase_8,3,5,80,127,1559374160
118,15,15,Jits_Phase_8,0,5,63,98,1560083796
118,15,15,Jits_Phase_8,1,5,56,103,1560104332
118,15,15,Jits_Phase_8,2,1,48,61,1560125660
118,15,15,Jits_Phase_8,3,5,80,127,1560203620
118,15,15,Jits_Phase_8,0,5,63,98,1560874412
118,15,15,Jits_Phase_8,1,1,48,54,1560915592
118,15,15,Jits_Phase_8,2,5,80,127,1560984192
118,15,15,Jits_Phase_8,3,5,56,103,1561013720
118,15,15,Jits_Phase_8,0,5,56,103,1561693652
118,15,15,Jits_Phase_8,1,1,48,60,1561716424
118,15,15,Jits_Phase_8,2,5,63,98,1561724396
118,15,15,Jits_Phase_8,3,5,80,127,1561773472
118,15,15,Jits_Phase_8,0,5,63,98,1562463532
118,15,15,Jits_Phase_8,1,1,48,66,1562476988
118,15,15,Jits_Phase_8,2,5,56,103,1562494320
118,15,15,Jits_Phase_8,3,5,80,127,1562543472
118,15,15,Jits_Phase_8,0,1,48,62,1563274864
118,15,15,Jits_Phase_8,1,5,56,103,1563294292
118,15,15,Jits_Phase_8,2,5,63,98,1563313556
118,15,15,Jits_Phase_8,3,5,80,127,1563394380
118,15,15,Jits_Phase_8,0,1,48,63,1564049284
118,15,15,Jits_Phase_8,1,5,63,98,1564064156
118,15,15,Jits_Phase_8,2,5,56,103,1564123500
118,15,15,Jits_Phase_8,3,5,80,127,1564154132
118,15,15,Jits_Phase_8,0,1,48,59,1564852872
118,15,15,Jits_Phase_8,1,5,56,103,1564903916
118,15,15,Jits_Phase_8,2,5,80,127,1564964144
118,15,15,Jits_Phase_8,3,5,63,98,1565004156
118,15,15,Jits_Phase_8,0,1,48,59,1565655628
118,15,15,Jits_Phase_8,1,5,63,98,1565684272
118,15,15,Jits_Phase_8,2,5,56,103,1565743616
118,15,15,Jits_Phase_8,3,5,80,127,1565814056
118,15,15,Jits_Phase_8,0,1,48,60,1566499728
118,15,15,Jits_Phase_8,1,5,56,103,1566563676
118,15,15,Jits_Phase_8,2,5,63,98,1566574044
118,15,15,Jits_Phase_8,3,5,80,127,1566577332
118,15,15,Jits_Phase_8,0,1,48,57,1567296272
118,15,15,Jits_Phase_8,1,5,63,98,1567304164
118,15,15,Jits_Phase_8,2,5,56,103,1567363384
118,15,15,Jits_Phase_8,3,5,80,127,1567366448
118,15,15,Jits_Phase_8,0,1,48,59,1568067024
118,15,15,Jits_Phase_8,1,5,63,98,1568084360
118,15,15,Jits_Phase_8,2,5,80,127,1568114136
118,15,15,Jits_Phase_8,3,5,56,103,1568133620
118,15,15,Jits_Phase_8,0,5,56,103,1568813396
118,15,15,Jits_Phase_8,1,1,48,61,1568858088
118,15,15,Jits_Phase_8,2,5,63,98,1568863516
118,15,15,Jits_Phase_8,3,5,80,127,1568943408
118,15,15,Jits_Phase_8,0,5,80,127,1569514056
118,15,15,Jits_Phase_8,1,5,63,98,1569554072
118,15,15,Jits_Phase_8,2,5,56,103,1569574308
118,15,15,Jits_Phase_8,3,1,48,67,1569614588
118,15,15,Jits_Phase_8,0,1,48,48,1570349228
118,15,15,Jits_Phase_8,1,5,56,103,1570384324
118,15,15,Jits_Phase_8,2,5,80,127,1570393396
118,15,15,Jits_Phase_8,3,5,63,98,1570413880
118,15,15,Jits_Phase_8,0,1,48,58,1571115800
118,15,15,Jits_Phase_8,1,5,56,103,1571163632
118,15,15,Jits_Phase_8,2,5,63,98,1571213768
118,15,15,Jits_Phase_8,3,5,80,127,1571244268
118,15,15,Jits_Phase_8,0,1,48,66,1571899752
118,15,15,Jits_Phase_8,1,5,56,103,1571914096
118,15,15,Jits_Phase_8,2,5,63,98,1571924292
118,15,15,Jits_Phase_8,3,5,80,127,1571973468
118,15,15,Jits_Phase_8,0,1,48,63,1572702136
118,15,15,Jits_Phase_8,1,5,56,103,1572703504
118,15,15,Jits_Phase_8,2,5,80,127,1572706428
118,15,15,Jits_Phase_8,3,5,63,98,1572864516
118,15,15,Jits_Phase_8,0,5,63,98,1573523968
118,15,15,Jits_Phase_8,1,1,48,54,1573555260
118,15,15,Jits_Phase_8,2,5,56,103,1573593420
118,15,15,Jits_Phase_8,3,5,80,127,1573634404
118,15,15,Jits_Phase_8,0,1,48,60,1574332160
118,15,15,Jits_Phase_8,1,5,63,98,1574363652
118,15,15,Jits_Phase_8,2,5,56,103,1574453548
118,15,15,Jits_Phase_8,3,5,80,127,1574456908
118,15,15,Jits_Phase_8,0,5,56,103,1575143932
118,15,15,Jits_Phase_8,1,5,63,98,1575233844
118,15,15,Jits_Phase_8,2,1,48,59,1575236888
118,15,15,Jits_Phase_8,3,5,80,127,1575244108
118,15,15,Jits_Phase_8,0,5,56,103,1575913888
118,15,15,Jits_Phase_8,1,1,48,68,1575946076
118,15,15,Jits_Phase_8,2,5,63,98,1575964084
118,15,15,Jits_Phase_8,3,5,80,127,1575993908
118,15,15,Jits_Phase_8,0,1,48,65,1576667844
118,15,15,Jits_Phase_8,1,5,63,98,1576793356
118,15,15,Jits_Phase_8,2,5,80,127,1576803852
118,15,15,Jits_Phase_8,3,5,56,103,1576864116
118,15,15,Jits_Phase_8,0,5,63,98,1577514248
118,15,15,Jits_Phase_8,1,1,48,67,1577543744
118,15,15,Jits_Phase_8,2,5,80,127,1577574032
118,15,15,Jits_Phase_8,3,5,56,103,1577613844
118,15,15,Jits_Phase_8,0,1,48,60,1578323340
118,15,15,Jits_Phase_8,1,5,56,103,1578413516
118,15,15,Jits_Phase_8,2,5,80,127,1578434036
118,15,15,Jits_Phase_8,3,5,63,98,1578454272
118,15,15,Jits_Phase_8,0,5,63,98,1579134392
118,15,15,Jits_Phase_8,1,5,56,103,1579153880
118,15,15,Jits_Phase_8,2,1,48,56,1579181656
118,15,15,Jits_Phase_8,3,5,80,127,1579194036
118,15,15,Jits_Phase_8,0,1,48,70,1579916956
118,15,15,Jits_Phase_8,1,5,63,98,1579944184
118,15,15,Jits_Phase_8,2,5,80,127,1579973860
118,15,15,Jits_Phase_8,3,5,56,103,1579993496
118,15,15,Jits_Phase_8,0,1,48,60,1580685700
118,15,15,Jits_Phase_8,1,5,80,127,1580714348
118,15,15,Jits_Phase_8,2,5,56,103,1580763504
118,15,15,Jits_Phase_8,3,5,63,98,1580823876
118,15,15,Jits_Phase_8,0,1,48,56,1581468744
118,15,15,Jits_Phase_8,1,5,63,98,1581503840
118,15,15,Jits_Phase_8,2,5,56,103,1581623780
118,15,15,Jits_Phase_8,3,5,80,127,1581654356
118,15,15,Jits_Phase_8,0,1,48,66,1582311600
118,15,15,Jits_Phase_8,1,5,80,127,1582343612
118,15,15,Jits_Phase_8,2,5,63,98,1582363996
118,15,15,Jits_Phase_8,3,5,56,103,1582433736
118,15,15,Jits_Phase_8,0,1,48,68,1583138540
118,15,15,Jits_Phase_8,1,5,63,98,1583163676
118,15,15,Jits_Phase_8,2,5,56,103,1583173944
118,15,15,Jits_Phase_8,3,5,80,127,1583253896
118,15,15,Jits_Phase_8,0,1,48,77,1583900988
118,15,15,Jits_Phase_8,1,5,56,103,1584024056
118,15,15,Jits_Phase_8,2,5,80,127,1584053732
118,15,15,Jits_Phase_8,3,5,63,98,1584063852
118,15,15,Jits_Phase_8,0,9999,9999,9999,1449172060
118,15,15,Jits_Phase_8,1,9999,9999,9999,1449971776
118,15,15,Jits_Phase_8,2,9999,9999,9999,1450771568
118,15,15,Jits_Phase_8,3,9999,9999,9999,1451571264
118,15,15,Jits_Phase_8,4,9999,9999,9999,1452372064
118,15,15,Jits_Phase_8,5,9999,9999,9999,1453171776
118,15,15,Jits_Phase_8,6,9999,9999,9999,1453971544
118,15,15,Jits_Phase_8,7,9999,9999,9999,1454771304
118,15,15,Jits_Phase_8,8,9999,9999,9999,1455572040
118,15,15,Jits_Phase_8,9,9999,9999,9999,1456371784
118,15,15,Jits_Phase_8,10,9999,9999,9999,1457171548
118,15,15,Jits_Phase_8,11,9999,9999,9999,1457971308
118,15,15,Jits_Phase_8,12,9999,9999,9999,1458772044
118,15,15,Jits_Phase_8,13,9999,9999,9999,1459571820
118,15,15,Jits_Phase_8,14,9999,9999,9999,1460371568
118,15,15,Jits_Phase_8,15,9999,9999,9999,1461171316
118,15,15,Jits_Phase_8,16,9999,9999,9999,1461972028
118,15,15,Jits_Phase_8,17,9999,9999,9999,1462771796
118,15,15,Jits_Phase_8,18,9999,9999,9999,1463571556
118,15,15,Jits_Phase_8,19,9999,9999,9999,1464371256
118,15,15,Jits_Phase_8,20,9999,9999,9999,1465172056
118,15,15,Jits_Phase_8,21,9999,9999,9999,1465971836
118,15,15,Jits_Phase_8,22,9999,9999,9999,1466771532
118,15,15,Jits_Phase_8,23,9999,9999,9999,1467571304
118,15,15,Jits_Phase_8,24,9999,9999,9999,1468372032
118,15,15,Jits_Phase_8,25,9999,9999,9999,1469171788
118,15,15,Jits_Phase_8,26,9999,9999,9999,1469971548
118,15,15,Jits_Phase_8,27,9999,9999,9999,1470771308
118,15,15,Jits_Phase_8,28,9999,9999,9999,1471572048
118,15,15,Jits_Phase_8,29,9999,9999,9999,1472371780
118,15,15,Jits_Phase_8,30,9999,9999,9999,1473152060
118,15,15,Jits_Phase_8,31,9999,9999,9999,1473962080
118,15,15,Jits_Phase_8,32,9999,9999,9999,1474761852
118,15,15,Jits_Phase_8,33,9999,9999,9999,1475561544
118,15,15,Jits_Phase_8,34,9999,9999,9999,1476361312
118,15,15,Jits_Phase_8,35,9999,9999,9999,1477162048
118,15,15,Jits_Phase_8,36,9999,9999,9999,1477961812
118,15,15,Jits_Phase_8,37,9999,9999,9999,1478761572
118,15,15,Jits_Phase_8,38,9999,9999,9999,1479561280
118,15,15,Jits_Phase_8,39,9999,9999,9999,1480362104
118,15,15,Jits_Phase_8,40,9999,9999,9999,1481161788
118,15,15,Jits_Phase_8,41,9999,9999,9999,1481961548
118,15,15,Jits_Phase_8,42,9999,9999,9999,1482761300
118,15,15,Jits_Phase_8,43,9999,9999,9999,1483562092
118,15,15,Jits_Phase_8,44,9999,9999,9999,1484361832
118,15,15,Jits_Phase_8,45,9999,9999,9999,1485161596
118,15,15,Jits_Phase_8,46,9999,9999,9999,1485961312
118,15,15,Jits_Phase_8,47,9999,9999,9999,1486762052
118,15,15,Jits_Phase_8,48,9999,9999,9999,1487581304
118,15,15,Jits_Phase_8,49,9999,9999,9999,1488382028
118,15,15,Jits_Phase_8,50,9999,9999,9999,1489181788
118,15,15,Jits_Phase_8,51,9999,9999,9999,1489981540
118,15,15,Jits_Phase_8,52,9999,9999,9999,1490781300
118,15,15,Jits_Phase_8,53,9999,9999,9999,1491582064
118,15,15,Jits_Phase_8,54,9999,9999,9999,1492381816
118,15,15,Jits_Phase_8,55,9999,9999,9999,1493181520
118,15,15,Jits_Phase_8,56,9999,9999,9999,1493981272
118,15,15,Jits_Phase_8,57,9999,9999,9999,1494782076
118,15,15,Jits_Phase_8,58,9999,9999,9999,1495581760
118,15,15,Jits_Phase_8,59,9999,9999,9999,1496381520
118,15,15,Jits_Phase_8,60,9999,9999,9999,1497181276
118,15,15,Jits_Phase_8,61,9999,9999,9999,1497982036
118,15,15,Jits_Phase_8,62,9999,9999,9999,1498781796
118,15,15,Jits_Phase_8,63,9999,9999,9999,1499581544
118,15,15,Jits_Phase_8,64,9999,9999,9999,1500421220
118,15,15,Jits_Phase_8,65,9999,9999,9999,1501221952
118,15,15,Jits_Phase_8,66,9999,9999,9999,1502021732
118,15,15,Jits_Phase_8,67,9999,9999,9999,1502821500
118,15,15,Jits_Phase_8,68,9999,9999,9999,1503621200
118,15,15,Jits_Phase_8,69,9999,9999,9999,1504422004
118,15,15,Jits_Phase_8,70,9999,9999,9999,1505221700
118,15,15,Jits_Phase_8,71,9999,9999,9999,1506021464
118,15,15,Jits_Phase_8,72,9999,9999,9999,1506821224
118,15,15,Jits_Phase_8,73,9999,9999,9999,1507621972
118,15,15,Jits_Phase_8,74,9999,9999,9999,1508421736
118,15,15,Jits_Phase_8,75,9999,9999,9999,1509221500
118,15,15,Jits_Phase_8,76,9999,9999,9999,1510021200
118,15,15,Jits_Phase_8,77,9999,9999,9999,1510821948
118,15,15,Jits_Phase_8,78,9999,9999,9999,1511621704
118,15,15,Jits_Phase_8,79,9999,9999,9999,1512421460
118,15,15,Jits_Phase_8,80,9999,9999,9999,1513221220
118,15,15,Jits_Phase_8,81,9999,9999,9999,1513982020
118,15,15,Jits_Phase_8,82,9999,9999,9999,1514781780
118,15,15,Jits_Phase_8,83,9999,9999,9999,1515581536
118,15,15,Jits_Phase_8,84,9999,9999,9999,1516381288
118,15,15,Jits_Phase_8,85,9999,9999,9999,1517182060
118,15,15,Jits_Phase_8,86,9999,9999,9999,1517981756
118,15,15,Jits_Phase_8,87,9999,9999,9999,1518781512
118,15,15,Jits_Phase_8,88,9999,9999,9999,1519581268
118,15,15,Jits_Phase_8,89,9999,9999,9999,1520382008
118,15,15,Jits_Phase_8,90,9999,9999,9999,1521181780
118,15,15,Jits_Phase_8,91,9999,9999,9999,1521981528
118,15,15,Jits_Phase_8,92,9999,9999,9999,1522781308
118,15,15,Jits_Phase_8,93,9999,9999,9999,1523582056
118,15,15,Jits_Phase_8,94,9999,9999,9999,1524381816
118,15,15,Jits_Phase_8,95,9999,9999,9999,1525181496
118,15,15,Jits_Phase_8,96,9999,9999,9999,1525981252
118,15,15,Jits_Phase_8,97,9999,9999,9999,1526701152
118,15,15,Jits_Phase_8,98,9999,9999,9999,1527501900
118,15,15,Jits_Phase_8,99,9999,9999,9999,1528301676
118,15,15,Jits_Phase_8,100,9999,9999,9999,1529101440
118,15,15,Jits_Phase_8,101,9999,9999,9999,1529901124
118,15,15,Jits_Phase_8,102,9999,9999,9999,1530701920
118,15,15,Jits_Phase_8,103,9999,9999,9999,1531501676
118,15,15,Jits_Phase_8,104,9999,9999,9999,1532301388
118,15,15,Jits_Phase_8,105,9999,9999,9999,1533101156
118,15,15,Jits_Phase_8,106,9999,9999,9999,1533901876
118,15,15,Jits_Phase_8,107,9999,9999,9999,1534701696
118,15,15,Jits_Phase_8,108,9999,9999,9999,1535501380
118,15,15,Jits_Phase_8,109,9999,9999,9999,1536301136
118,15,15,Jits_Phase_8,110,9999,9999,9999,1537101888
118,15,15,Jits_Phase_8,111,9999,9999,9999,1537901648
118,15,15,Jits_Phase_8,112,9999,9999,9999,1538701436
118,15,15,Jits_Phase_8,113,9999,9999,9999,1539501136
118,15,15,Jits_Phase_8,114,9999,9999,9999,1540381816
118,15,15,Jits_Phase_8,115,9999,9999,9999,1541181500
118,15,15,Jits_Phase_8,116,9999,9999,9999,1541981276
118,15,15,Jits_Phase_8,117,9999,9999,9999,1542782052
118,15,15,Jits_Phase_8,118,9999,9999,9999,1543581752
118,15,15,Jits_Phase_8,119,9999,9999,9999,1544381520
118,15,15,Jits_Phase_8,120,9999,9999,9999,1545181288
118,15,15,Jits_Phase_8,121,9999,9999,9999,1545982020
118,15,15,Jits_Phase_8,122,9999,9999,9999,1546781772
118,15,15,Jits_Phase_8,123,9999,9999,9999,1547581520
118,15,15,Jits_Phase_8,124,9999,9999,9999,1548381288
118,15,15,Jits_Phase_8,125,9999,9999,9999,1549182052
118,15,15,Jits_Phase_8,126,9999,9999,9999,1549981816
118,15,15,Jits_Phase_8,127,9999,9999,9999,1550781556
118,15,15,Jits_Phase_8,128,9999,9999,9999,1551581240
118,15,15,Jits_Phase_8,129,9999,9999,9999,1552382060
118,15,15,Jits_Phase_8,130,9999,9999,9999,1553181764
118,15,15,Jits_Phase_8,131,9999,9999,9999,1554141288
118,15,15,Jits_Phase_8,132,9999,9999,9999,1554942028
118,15,15,Jits_Phase_8,133,9999,9999,9999,1555741796
118,15,15,Jits_Phase_8,134,9999,9999,9999,1556541496
118,15,15,Jits_Phase_8,135,9999,9999,9999,1557341244
118,15,15,Jits_Phase_8,136,9999,9999,9999,1558142072
118,15,15,Jits_Phase_8,137,9999,9999,9999,1558941756
118,15,15,Jits_Phase_8,138,9999,9999,9999,1559741528
118,15,15,Jits_Phase_8,139,9999,9999,9999,1560541296
118,15,15,Jits_Phase_8,140,9999,9999,9999,1561342032
118,15,15,Jits_Phase_8,141,9999,9999,9999,1562141788
118,15,15,Jits_Phase_8,142,9999,9999,9999,1562941528
118,15,15,Jits_Phase_8,143,9999,9999,9999,1563741288
118,15,15,Jits_Phase_8,144,9999,9999,9999,1564542036
118,15,15,Jits_Phase_8,145,9999,9999,9999,1565341800
118,15,15,Jits_Phase_8,146,9999,9999,9999,1566141560
118,15,15,Jits_Phase_8,147,9999,9999,9999,1566941240
118,15,15,Jits_Phase_8,148,9999,9999,9999,1567742036
118,15,15,Jits_Phase_8,149,9999,9999,9999,1568541788
118,15,15,Jits_Phase_8,150,9999,9999,9999,1569181752
118,15,15,Jits_Phase_8,151,9999,9999,9999,1569981520
118,15,15,Jits_Phase_8,152,9999,9999,9999,1570781300
118,15,15,Jits_Phase_8,153,9999,9999,9999,1571582032
118,15,15,Jits_Phase_8,154,9999,9999,9999,1572381788
118,15,15,Jits_Phase_8,155,9999,9999,9999,1573181536
118,15,15,Jits_Phase_8,156,9999,9999,9999,1573981296
118,15,15,Jits_Phase_8,157,9999,9999,9999,1574782048
118,15,15,Jits_Phase_8,158,9999,9999,9999,1575581808
118,15,15,Jits_Phase_8,159,9999,9999,9999,1576381504
118,15,15,Jits_Phase_8,160,9999,9999,9999,1577181284
118,15,15,Jits_Phase_8,161,9999,9999,9999,1577982012
118,15,15,Jits_Phase_8,162,9999,9999,9999,1578781776
118,15,15,Jits_Phase_8,163,9999,9999,9999,1579581528
118,15,15,Jits_Phase_8,164,9999,9999,9999,1580381288
118,15,15,Jits_Phase_8,165,9999,9999,9999,1581182044
118,15,15,Jits_Phase_8,166,9999,9999,9999,1581981808
118,15,15,Jits_Phase_8,167,9999,9999,9999,1582781564
118,15,15,Jits_Phase_8,168,9999,9999,9999,1583581252
118,15,15,Jits_Phase_8,169,9999,9999,9999,1584382068
118,16,16,Jits_ISO_5,0,5,56,103,1593688548
118,16,16,Jits_ISO_5,1,5,63,98,1593691568
118,16,16,Jits_ISO_5,2,5,80,127,1593694616
118,16,16,Jits_ISO_5,0,5,56,103,1594189092
118,16,16,Jits_ISO_5,1,5,63,98,1594192492
118,16,16,Jits_ISO_5,2,5,80,127,1594195536
118,16,16,Jits_ISO_5,0,5,56,103,1594688900
118,16,16,Jits_ISO_5,1,5,80,127,1594699096
118,16,16,Jits_ISO_5,2,5,63,98,1594718656
118,16,16,Jits_ISO_5,0,5,63,98,1595138372
118,16,16,Jits_ISO_5,1,5,80,127,1595169168
118,16,16,Jits_ISO_5,2,5,56,103,1595179660
118,16,16,Jits_ISO_5,0,1,48,62,1595640676
118,16,16,Jits_ISO_5,1,5,80,127,1595698620
118,16,16,Jits_ISO_5,2,5,56,103,1595708892
118,16,16,Jits_ISO_5,3,5,63,98,1595738400
118,16,16,Jits_ISO_5,0,1,48,68,1596159080
118,16,16,Jits_ISO_5,1,5,63,98,1596189068
118,16,16,Jits_ISO_5,2,5,56,103,1596218668
118,16,16,Jits_ISO_5,3,5,80,127,1596229084
118,16,16,Jits_ISO_5,0,5,56,103,1596638544
118,16,16,Jits_ISO_5,1,5,63,98,1596688744
118,16,16,Jits_ISO_5,2,1,48,67,1596700784
118,16,16,Jits_ISO_5,3,5,80,127,1596709344
118,16,16,Jits_ISO_5,0,5,80,127,1597139412
118,16,16,Jits_ISO_5,1,5,63,98,1597188496
118,16,16,Jits_ISO_5,2,1,48,81,1597199632
118,16,16,Jits_ISO_5,3,5,56,103,1597229396
118,16,16,Jits_ISO_5,0,5,56,103,1597639164
118,16,16,Jits_ISO_5,1,5,63,98,1597668616
118,16,16,Jits_ISO_5,2,1,48,70,1597699156
118,16,16,Jits_ISO_5,3,5,80,127,1597739552
118,16,16,Jits_ISO_5,0,5,56,103,1598138688
118,16,16,Jits_ISO_5,1,5,80,127,1598199152
118,16,16,Jits_ISO_5,2,1,48,77,1598209988
118,16,16,Jits_ISO_5,3,5,63,98,1598228820
118,16,16,Jits_ISO_5,0,5,56,103,1598648552
118,16,16,Jits_ISO_5,1,5,63,98,1598659044
118,16,16,Jits_ISO_5,2,5,80,127,1598698904
118,16,16,Jits_ISO_5,3,1,48,72,1598711760
118,16,16,Jits_ISO_5,0,5,63,98,1599139380
118,16,16,Jits_ISO_5,1,1,48,71,1599198092
118,16,16,Jits_ISO_5,2,5,80,127,1599219092
118,16,16,Jits_ISO_5,3,5,56,103,1599229508
118,16,16,Jits_ISO_5,0,5,63,98,1599689160
118,16,16,Jits_ISO_5,1,1,48,71,1599722844
118,16,16,Jits_ISO_5,2,5,56,103,1599728940
118,16,16,Jits_ISO_5,3,5,80,127,1599732084
118,16,16,Jits_ISO_5,0,5,56,103,1600148884
118,16,16,Jits_ISO_5,1,5,63,98,1600159080
118,16,16,Jits_ISO_5,2,5,80,127,1600198940
118,16,16,Jits_ISO_5,3,1,48,70,1600217424
118,16,16,Jits_ISO_5,0,5,56,103,1600639332
118,16,16,Jits_ISO_5,1,5,63,98,1600642476
118,16,16,Jits_ISO_5,2,5,80,127,1600658668
118,16,16,Jits_ISO_5,3,1,48,92,1600730260
118,16,16,Jits_ISO_5,0,5,80,127,1601149332
118,16,16,Jits_ISO_5,1,5,56,103,1601158480
118,16,16,Jits_ISO_5,2,1,48,80,1601191636
118,16,16,Jits_ISO_5,3,5,63,98,1601229268
118,16,16,Jits_ISO_5,0,5,63,98,1601638640
118,16,16,Jits_ISO_5,1,1,48,73,1601654892
118,16,16,Jits_ISO_5,2,5,56,103,1601659340
118,16,16,Jits_ISO_5,3,5,80,127,1601739204
118,16,16,Jits_ISO_5,0,5,56,103,1602148780
118,16,16,Jits_ISO_5,1,1,48,75,1602163160
118,16,16,Jits_ISO_5,2,5,80,127,1602188588
118,16,16,Jits_ISO_5,3,5,63,98,1602198860
118,16,16,Jits_ISO_5,0,5,80,127,1602639608
118,16,16,Jits_ISO_5,1,5,63,98,1602669084
118,16,16,Jits_ISO_5,2,1,48,72,1602671760
118,16,16,Jits_ISO_5,3,5,56,103,1602708940
118,16,16,Jits_ISO_5,0,5,56,103,1603159360
118,16,16,Jits_ISO_5,1,1,48,71,1603166536
118,16,16,Jits_ISO_5,2,5,63,98,1603189052
118,16,16,Jits_ISO_5,3,5,80,127,1603239400
118,16,16,Jits_ISO_5,0,5,80,127,1603659332
118,16,16,Jits_ISO_5,1,1,48,72,1603677816
118,16,16,Jits_ISO_5,2,5,56,103,1603699064
118,16,16,Jits_ISO_5,3,5,63,98,1603709332
118,16,16,Jits_ISO_5,0,5,80,127,1604139376
118,16,16,Jits_ISO_5,1,1,48,76,1604179536
118,16,16,Jits_ISO_5,2,5,63,98,1604180724
118,16,16,Jits_ISO_5,3,5,56,103,1604238744
118,16,16,Jits_ISO_5,0,5,56,103,1604639344
118,16,16,Jits_ISO_5,1,5,80,127,1604649320
118,16,16,Jits_ISO_5,2,1,48,70,1604683828
118,16,16,Jits_ISO_5,3,5,63,98,1604729276
118,16,16,Jits_ISO_5,0,5,80,127,1605138792
118,16,16,Jits_ISO_5,1,1,48,73,1605162068
118,16,16,Jits_ISO_5,2,5,63,98,1605199476
118,16,16,Jits_ISO_5,3,5,56,103,1605228876
118,16,16,Jits_ISO_5,0,1,48,84,1605631988
118,16,16,Jits_ISO_5,1,5,56,103,1605638612
118,16,16,Jits_ISO_5,2,5,80,127,1605699372
118,16,16,Jits_ISO_5,3,5,63,98,1605739096
118,16,16,Jits_ISO_5,0,1,48,67,1606167172
118,16,16,Jits_ISO_5,1,5,56,103,1606189516
118,16,16,Jits_ISO_5,2,5,63,98,1606198592
118,16,16,Jits_ISO_5,3,5,80,127,1606201880
118,16,16,Jits_ISO_5,0,5,80,127,1606638828
118,16,16,Jits_ISO_5,1,1,48,74,1606677460
118,16,16,Jits_ISO_5,2,5,63,98,1606729248
118,16,16,Jits_ISO_5,3,5,56,103,1606739296
118,16,16,Jits_ISO_5,0,5,56,103,1607138636
118,16,16,Jits_ISO_5,1,5,63,98,1607141584
118,16,16,Jits_ISO_5,2,5,80,127,1607144928
118,16,16,Jits_ISO_5,3,1,48,66,1607163636
118,16,16,Jits_ISO_5,0,5,80,127,1607659048
118,16,16,Jits_ISO_5,1,1,48,57,1607665308
118,16,16,Jits_ISO_5,2,5,63,98,1607709240
118,16,16,Jits_ISO_5,3,5,56,103,1607738692
118,16,16,Jits_ISO_5,0,5,56,103,1608139468
118,16,16,Jits_ISO_5,1,5,80,127,1608149516
118,16,16,Jits_ISO_5,2,1,48,65,1608170692
118,16,16,Jits_ISO_5,3,5,63,98,1608219108
118,16,16,Jits_ISO_5,0,5,56,103,1608649328
118,16,16,Jits_ISO_5,1,1,48,61,1608655288
118,16,16,Jits_ISO_5,2,5,63,98,1608668656
118,16,16,Jits_ISO_5,3,5,80,127,1608728968
118,16,16,Jits_ISO_5,0,5,80,127,1609138512
118,16,16,Jits_ISO_5,1,1,48,47,1609139476
118,16,16,Jits_ISO_5,2,5,63,98,1609209456
118,16,16,Jits_ISO_5,3,5,56,103,1609228716
118,16,16,Jits_ISO_5,0,5,80,127,1609658788
118,16,16,Jits_ISO_5,1,1,48,62,1609666468
118,16,16,Jits_ISO_5,2,5,56,103,1609669128
118,16,16,Jits_ISO_5,3,5,63,98,1609679176
118,16,16,Jits_ISO_5,0,5,80,127,1610149320
118,16,16,Jits_ISO_5,1,1,48,59,1610167216
118,16,16,Jits_ISO_5,2,5,56,103,1610168800
118,16,16,Jits_ISO_5,3,5,63,98,1610239224
118,16,16,Jits_ISO_5,0,5,56,103,1610659108
118,16,16,Jits_ISO_5,1,1,48,35,1610685744
118,16,16,Jits_ISO_5,2,5,80,127,1610688996
118,16,16,Jits_ISO_5,3,5,63,98,1610709456
118,16,16,Jits_ISO_5,0,5,63,98,1611148592
118,16,16,Jits_ISO_5,1,1,48,66,1611171340
118,16,16,Jits_ISO_5,2,5,56,103,1611209348
118,16,16,Jits_ISO_5,3,5,80,127,1611238724
118,16,16,Jits_ISO_5,0,5,63,98,1611639408
118,16,16,Jits_ISO_5,1,5,80,127,1611642624
118,16,16,Jits_ISO_5,2,1,48,55,1611671148
118,16,16,Jits_ISO_5,3,5,56,103,1611729228
118,16,16,Jits_ISO_5,0,5,56,103,1612159288
118,16,16,Jits_ISO_5,1,1,48,51,1612176724
118,16,16,Jits_ISO_5,2,5,63,98,1612189028
118,16,16,Jits_ISO_5,3,5,80,127,1612229112
118,16,16,Jits_ISO_5,0,1,48,62,1612610956
118,16,16,Jits_ISO_5,1,5,63,98,1612659180
118,16,16,Jits_ISO_5,2,5,56,103,1612699264
118,16,16,Jits_ISO_5,3,5,80,127,1612718364
118,16,16,Jits_ISO_5,0,1,48,55,1613096516
118,16,16,Jits_ISO_5,1,5,63,98,1613169100
118,16,16,Jits_ISO_5,2,5,56,103,1613208876
118,16,16,Jits_ISO_5,3,5,80,127,1613219368
118,16,16,Jits_ISO_5,0,1,48,62,1613598588
118,16,16,Jits_ISO_5,1,5,80,127,1613649332
118,16,16,Jits_ISO_5,2,5,63,98,1613719096
118,16,16,Jits_ISO_5,3,5,56,103,1613739256
118,16,16,Jits_ISO_5,0,1,48,56,1614124984
118,16,16,Jits_ISO_5,1,5,56,103,1614138728
118,16,16,Jits_ISO_5,2,5,80,127,1614159188
118,16,16,Jits_ISO_5,3,5,63,98,1614199300
118,16,16,Jits_ISO_5,0,1,48,59,1614647064
118,16,16,Jits_ISO_5,1,5,63,98,1614648572
118,16,16,Jits_ISO_5,2,5,80,127,1614669180
118,16,16,Jits_ISO_5,3,5,56,103,1614709288
118,16,16,Jits_ISO_5,0,1,48,58,1615142876
118,16,16,Jits_ISO_5,1,5,63,98,1615149424
118,16,16,Jits_ISO_5,2,5,56,103,1615168984
118,16,16,Jits_ISO_5,3,5,80,127,1615179104
118,16,16,Jits_ISO_5,0,5,80,127,1615649232
118,16,16,Jits_ISO_5,1,1,48,49,1615650948
118,16,16,Jits_ISO_5,2,5,56,103,1615668492
118,16,16,Jits_ISO_5,3,5,63,98,1615699284
118,16,16,Jits_ISO_5,0,1,48,50,1616155604
118,16,16,Jits_ISO_5,1,5,56,103,1616218424
118,16,16,Jits_ISO_5,2,5,80,127,1616221420
118,16,16,Jits_ISO_5,3,5,63,98,1616239056
118,16,16,Jits_ISO_5,0,5,63,98,1616639268
118,16,16,Jits_ISO_5,1,1,48,51,1616666352
118,16,16,Jits_ISO_5,2,5,56,103,1616669012
118,16,16,Jits_ISO_5,3,5,80,127,1616728352
118,16,16,Jits_ISO_5,0,1,48,50,1617164136
118,16,16,Jits_ISO_5,1,5,63,98,1617219084
118,16,16,Jits_ISO_5,2,5,56,103,1617229204
118,16,16,Jits_ISO_5,3,5,80,127,1617239552
118,16,16,Jits_ISO_5,0,5,56,103,1617668488
118,16,16,Jits_ISO_5,1,1,48,52,1617699356
118,16,16,Jits_ISO_5,2,5,80,127,1617700696
118,16,16,Jits_ISO_5,3,5,63,98,1617709324
118,16,16,Jits_ISO_5,0,1,48,56,1618205652
118,16,16,Jits_ISO_5,1,5,63,98,1618209208
118,16,16,Jits_ISO_5,2,5,56,103,1618219404
118,16,16,Jits_ISO_5,3,5,80,127,1618238892
118,16,16,Jits_ISO_5,0,5,56,103,1618639128
118,16,16,Jits_ISO_5,1,5,63,98,1618698616
118,16,16,Jits_ISO_5,2,5,80,127,1618701984
118,16,16,Jits_ISO_5,3,1,48,56,1618718748
118,16,16,Jits_ISO_5,0,5,80,127,1619159392
118,16,16,Jits_ISO_5,1,5,56,103,1619168616
118,16,16,Jits_ISO_5,2,1,48,47,1619199752
118,16,16,Jits_ISO_5,3,5,63,98,1619239260
118,16,16,Jits_ISO_5,0,1,48,51,1619630036
118,16,16,Jits_ISO_5,1,5,80,127,1619649168
118,16,16,Jits_ISO_5,2,5,56,103,1619718400
118,16,16,Jits_ISO_5,3,5,63,98,1619729104
118,16,16,Jits_ISO_5,0,1,48,42,1620121012
118,16,16,Jits_ISO_5,1,5,63,98,1620188392
118,16,16,Jits_ISO_5,2,5,56,103,1620198960
118,16,16,Jits_ISO_5,3,5,80,127,1620219252
118,16,16,Jits_ISO_5,0,5,80,127,1620638984
118,16,16,Jits_ISO_5,1,1,48,61,1620680840
118,16,16,Jits_ISO_5,2,5,63,98,1620698468
118,16,16,Jits_ISO_5,3,5,56,103,1620738408
118,16,16,Jits_ISO_5,0,5,56,103,1621178592
118,16,16,Jits_ISO_5,1,5,63,98,1621189008
118,16,16,Jits_ISO_5,2,1,48,52,1621225012
118,16,16,Jits_ISO_5,3,5,80,127,1621229160
118,16,16,Jits_ISO_5,0,5,56,103,1621638560
118,16,16,Jits_ISO_5,1,5,80,127,1621669356
118,16,16,Jits_ISO_5,2,5,63,98,1621719404
118,16,16,Jits_ISO_5,3,1,48,54,1621722748
118,16,16,Jits_ISO_5,0,5,56,103,1622179136
118,16,16,Jits_ISO_5,1,1,48,55,1622209300
118,16,16,Jits_ISO_5,2,5,63,98,1622219064
118,16,16,Jits_ISO_5,3,5,80,127,1622222356
118,16,16,Jits_ISO_5,0,1,48,48,1622666712
118,16,16,Jits_ISO_5,1,5,56,103,1622679016
118,16,16,Jits_ISO_5,2,5,63,98,1622688992
118,16,16,Jits_ISO_5,3,5,80,127,1622708548
118,16,16,Jits_ISO_5,0,5,56,103,1623138728
118,16,16,Jits_ISO_5,1,5,80,127,1623141796
118,16,16,Jits_ISO_5,2,1,48,58,1623176720
118,16,16,Jits_ISO_5,3,5,63,98,1623178456
118,16,16,Jits_ISO_5,0,5,63,98,1623679316
118,16,16,Jits_ISO_5,1,1,48,56,1623687392
118,16,16,Jits_ISO_5,2,5,56,103,1623708984
118,16,16,Jits_ISO_5,3,5,80,127,1623728472
118,16,16,Jits_ISO_5,0,5,80,127,1624149284
118,16,16,Jits_ISO_5,1,5,56,103,1624158436
118,16,16,Jits_ISO_5,2,5,63,98,1624169076
118,16,16,Jits_ISO_5,3,1,48,63,1624186448
118,16,16,Jits_ISO_5,0,5,56,103,1624648956
118,16,16,Jits_ISO_5,1,1,48,55,1624665108
118,16,16,Jits_ISO_5,2,5,80,127,1624688984
118,16,16,Jits_ISO_5,3,5,63,98,1624718656
118,16,16,Jits_ISO_5,0,5,63,98,1625159112
118,16,16,Jits_ISO_5,1,5,80,127,1625169308
118,16,16,Jits_ISO_5,2,1,48,48,1625170348
118,16,16,Jits_ISO_5,3,5,56,103,1625178452
118,16,16,Jits_ISO_5,0,5,56,103,1625639220
118,16,16,Jits_ISO_5,1,1,48,55,1625666696
118,16,16,Jits_ISO_5,2,5,63,98,1625708840
118,16,16,Jits_ISO_5,3,5,80,127,1625719188
118,16,16,Jits_ISO_5,0,5,80,127,1626139112
118,16,16,Jits_ISO_5,1,5,56,103,1626149384
118,16,16,Jits_ISO_5,2,1,48,59,1626172584
118,16,16,Jits_ISO_5,3,5,63,98,1626199280
118,16,16,Jits_ISO_5,0,1,48,65,1626647456
118,16,16,Jits_ISO_5,1,5,80,127,1626649040
118,16,16,Jits_ISO_5,2,5,56,103,1626709280
118,16,16,Jits_ISO_5,3,5,63,98,1626739200
118,16,16,Jits_ISO_5,0,5,56,103,1627148704
118,16,16,Jits_ISO_5,1,5,80,127,1627151848
118,16,16,Jits_ISO_5,2,1,48,60,1627186372
118,16,16,Jits_ISO_5,3,5,63,98,1627188484
118,16,16,Jits_ISO_5,0,5,56,103,1627679080
118,16,16,Jits_ISO_5,1,1,48,60,1627700560
118,16,16,Jits_ISO_5,2,5,63,98,1627708824
118,16,16,Jits_ISO_5,3,5,80,127,1627719020
118,16,16,Jits_ISO_5,0,5,63,98,1628189172
118,16,16,Jits_ISO_5,1,5,80,127,1628199296
118,16,16,Jits_ISO_5,2,1,48,67,1628203908
118,16,16,Jits_ISO_5,3,5,56,103,1628208436
118,16,16,Jits_ISO_5,0,5,80,127,1628638712
118,16,16,Jits_ISO_5,1,5,56,103,1628688912
118,16,16,Jits_ISO_5,2,5,63,98,1628691980
118,16,16,Jits_ISO_5,3,1,48,57,1628744016
118,16,16,Jits_ISO_5,0,5,56,103,1629168940
118,16,16,Jits_ISO_5,1,5,80,127,1629188428
118,16,16,Jits_ISO_5,2,5,63,98,1629198920
118,16,16,Jits_ISO_5,3,1,48,61,1629229908
118,16,16,Jits_ISO_5,0,5,63,98,1629649208
118,16,16,Jits_ISO_5,1,5,56,103,1629678884
118,16,16,Jits_ISO_5,2,5,80,127,1629698744
118,16,16,Jits_ISO_5,3,1,48,67,1629705308
118,16,16,Jits_ISO_5,0,5,56,103,1630159356
118,16,16,Jits_ISO_5,1,5,80,127,1630168356
118,16,16,Jits_ISO_5,2,1,48,56,1630215740
118,16,16,Jits_ISO_5,3,5,63,98,1630239220
118,16,16,Jits_ISO_5,0,5,63,98,1630648692
118,16,16,Jits_ISO_5,1,5,80,127,1630688632
118,16,16,Jits_ISO_5,2,5,56,103,1630728420
118,16,16,Jits_ISO_5,3,1,48,56,1630742100
118,16,16,Jits_ISO_5,0,5,56,103,1631158692
118,16,16,Jits_ISO_5,1,5,63,98,1631169108
118,16,16,Jits_ISO_5,2,5,80,127,1631189344
118,16,16,Jits_ISO_5,3,1,48,67,1631211192
118,16,16,Jits_ISO_5,0,1,48,63,1631697148
118,16,16,Jits_ISO_5,1,5,63,98,1631699260
118,16,16,Jits_ISO_5,2,5,80,127,1631718820
118,16,16,Jits_ISO_5,3,5,56,103,1631739204
118,16,16,Jits_ISO_5,0,5,56,103,1632138700
118,16,16,Jits_ISO_5,1,5,80,127,1632218568
118,16,16,Jits_ISO_5,2,5,63,98,1632229132
118,16,16,Jits_ISO_5,3,1,48,70,1632230100
118,16,16,Jits_ISO_5,0,5,80,127,1632679276
118,16,16,Jits_ISO_5,1,5,63,98,1632688428
118,16,16,Jits_ISO_5,2,5,56,103,1632719148
118,16,16,Jits_ISO_5,3,1,48,72,1632751328
118,16,16,Jits_ISO_5,0,5,63,98,1633138944
118,16,16,Jits_ISO_5,1,5,80,127,1633179032
118,16,16,Jits_ISO_5,2,5,56,103,1633239268
118,16,16,Jits_ISO_5,3,1,48,65,1633250176
118,16,16,Jits_ISO_5,0,5,63,98,1633648944
118,16,16,Jits_ISO_5,1,5,56,103,1633699292
118,16,16,Jits_ISO_5,2,5,80,127,1633728968
118,16,16,Jits_ISO_5,3,1,48,60,1633760556
118,16,16,Jits_ISO_5,0,5,80,127,1634158940
118,16,16,Jits_ISO_5,1,5,63,98,1634169284
118,16,16,Jits_ISO_5,2,5,56,103,1634238960
118,16,16,Jits_ISO_5,3,1,48,67,1634246640
118,16,16,Jits_ISO_5,0,5,80,127,1634729264
118,16,16,Jits_ISO_5,1,5,56,103,1634738708
118,16,16,Jits_ISO_5,2,5,63,98,1634741700
118,16,16,Jits_ISO_5,3,1,48,64,1634771196
118,16,16,Jits_ISO_5,0,5,56,103,1635169048
118,16,16,Jits_ISO_5,1,5,80,127,1635189084
118,16,16,Jits_ISO_5,2,5,63,98,1635199208
118,16,16,Jits_ISO_5,3,1,48,75,1635259560
118,16,16,Jits_ISO_5,0,5,63,98,1635678764
118,16,16,Jits_ISO_5,1,5,56,103,1635718652
118,16,16,Jits_ISO_5,2,5,80,127,1635739108
118,16,16,Jits_ISO_5,3,1,48,65,1635770476
118,16,16,Jits_ISO_5,0,5,63,98,1636179468
118,16,16,Jits_ISO_5,1,5,56,103,1636238832
118,16,16,Jits_ISO_5,2,5,80,127,1636241828
118,16,16,Jits_ISO_5,3,1,48,70,1636252816
118,16,16,Jits_ISO_5,0,5,56,103,1636638968
118,16,16,Jits_ISO_5,1,5,80,127,1636658676
118,16,16,Jits_ISO_5,2,5,63,98,1636698612
118,16,16,Jits_ISO_5,3,1,48,68,1636752472
118,16,16,Jits_ISO_5,0,5,56,103,1637168676
118,16,16,Jits_ISO_5,1,5,63,98,1637188988
118,16,16,Jits_ISO_5,2,5,80,127,1637199260
118,16,16,Jits_ISO_5,3,1,48,67,1637220884
118,16,16,Jits_ISO_5,0,5,80,127,1637638612
118,16,16,Jits_ISO_5,1,5,56,103,1637669108
118,16,16,Jits_ISO_5,2,5,63,98,1637709120
118,16,16,Jits_ISO_5,3,1,48,60,1637750996
118,16,16,Jits_ISO_5,0,5,80,127,1638148396
118,16,16,Jits_ISO_5,1,5,56,103,1638168928
118,16,16,Jits_ISO_5,2,5,63,98,1638229316
118,16,16,Jits_ISO_5,3,1,48,72,1638251644
118,16,16,Jits_ISO_5,0,5,56,103,1638658636
118,16,16,Jits_ISO_5,1,5,80,127,1638678944
118,16,16,Jits_ISO_5,2,1,48,73,1638733156
118,16,16,Jits_ISO_5,3,5,63,98,1638739252
118,16,16,Jits_ISO_5,0,5,80,127,1639138604
118,16,16,Jits_ISO_5,1,5,56,103,1639148872
118,16,16,Jits_ISO_5,2,5,63,98,1639188884
118,16,16,Jits_ISO_5,3,1,48,69,1639236564
118,16,16,Jits_ISO_5,0,5,63,98,1639639688
118,16,16,Jits_ISO_5,1,5,56,103,1639679328
118,16,16,Jits_ISO_5,2,5,80,127,1639682396
118,16,16,Jits_ISO_5,3,1,48,62,1639723124
118,16,16,Jits_ISO_5,0,5,63,98,1640158592
118,16,16,Jits_ISO_5,1,5,80,127,1640198676
118,16,16,Jits_ISO_5,2,1,48,57,1640220832
118,16,16,Jits_ISO_5,3,5,56,103,1640229168
118,16,16,Jits_ISO_5,0,5,56,103,1640649036
118,16,16,Jits_ISO_5,1,5,63,98,1640659232
118,16,16,Jits_ISO_5,2,5,80,127,1640688904
118,16,16,Jits_ISO_5,3,1,48,57,1640724980
118,16,16,Jits_ISO_5,0,5,80,127,1641138588
118,16,16,Jits_ISO_5,1,5,63,98,1641209164
118,16,16,Jits_ISO_5,2,5,56,103,1641218536
118,16,16,Jits_ISO_5,3,1,48,57,1641260536
118,16,16,Jits_ISO_5,0,5,63,98,1641639380
118,16,16,Jits_ISO_5,1,5,56,103,1641708912
118,16,16,Jits_ISO_5,2,5,80,127,1641719256
118,16,16,Jits_ISO_5,3,1,48,62,1641742300
118,16,16,Jits_ISO_5,0,5,63,98,1642138964
118,16,16,Jits_ISO_5,1,5,56,103,1642158524
118,16,16,Jits_ISO_5,2,5,80,127,1642199584
118,16,16,Jits_ISO_5,3,1,48,70,1642230876
118,16,16,Jits_ISO_5,0,5,56,103,1642648960
118,16,16,Jits_ISO_5,1,5,63,98,1642659304
118,16,16,Jits_ISO_5,2,1,48,78,1642720108
118,16,16,Jits_ISO_5,3,5,80,127,1642739160
118,16,16,Jits_ISO_5,0,5,63,98,1643138740
118,16,16,Jits_ISO_5,1,5,56,103,1643169088
118,16,16,Jits_ISO_5,2,5,80,127,1643208952
118,16,16,Jits_ISO_5,3,1,48,85,1643239568
118,16,16,Jits_ISO_5,0,5,56,103,1643639068
118,16,16,Jits_ISO_5,1,5,63,98,1643679008
118,16,16,Jits_ISO_5,2,5,80,127,1643719016
118,16,16,Jits_ISO_5,3,1,48,68,1643747764
118,16,16,Jits_ISO_5,0,5,80,127,1644138964
118,16,16,Jits_ISO_5,1,5,56,103,1644218684
118,16,16,Jits_ISO_5,2,5,63,98,1644229176
118,16,16,Jits_ISO_5,3,1,48,75,1644245028
118,16,16,Jits_ISO_5,0,5,56,103,1644678568
118,16,16,Jits_ISO_5,1,5,63,98,1644681712
118,16,16,Jits_ISO_5,2,5,80,127,1644688688
118,16,16,Jits_ISO_5,3,1,48,80,1644727096
118,16,16,Jits_ISO_5,0,5,56,103,1645198684
118,16,16,Jits_ISO_5,1,5,63,98,1645219144
118,16,16,Jits_ISO_5,2,1,48,75,1645222040
118,16,16,Jits_ISO_5,3,5,80,127,1645229704
118,16,16,Jits_ISO_5,0,5,63,98,1645658552
118,16,16,Jits_ISO_5,1,5,80,127,1645668748
118,16,16,Jits_ISO_5,2,5,56,103,1645689080
118,16,16,Jits_ISO_5,3,1,48,74,1645738052
118,16,16,Jits_ISO_5,0,5,63,98,1646159180
118,16,16,Jits_ISO_5,1,5,56,103,1646239072
118,16,16,Jits_ISO_5,2,5,80,127,1646242064
118,16,16,Jits_ISO_5,3,1,48,62,1646274924
118,16,16,Jits_ISO_5,0,5,63,98,1646658900
118,16,16,Jits_ISO_5,1,5,56,103,1646679508
118,16,16,Jits_ISO_5,2,5,80,127,1646708984
118,16,16,Jits_ISO_5,3,1,48,63,1646780120
118,16,16,Jits_ISO_5,0,5,56,103,1647158556
118,16,16,Jits_ISO_5,1,5,63,98,1647179164
118,16,16,Jits_ISO_5,2,5,80,127,1647189432
118,16,16,Jits_ISO_5,3,1,48,66,1647245536
118,16,16,Jits_ISO_5,0,5,56,103,1647689016
118,16,16,Jits_ISO_5,1,1,48,73,1647718612
118,16,16,Jits_ISO_5,2,5,63,98,1647720196
118,16,16,Jits_ISO_5,3,5,80,127,1647723096
118,16,16,Jits_ISO_5,0,5,56,103,1648138688
118,16,16,Jits_ISO_5,1,5,63,98,1648178624
118,16,16,Jits_ISO_5,2,5,80,127,1648238812
118,16,16,Jits_ISO_5,3,1,48,64,1648239780
118,16,16,Jits_ISO_5,0,5,56,103,1648658884
118,16,16,Jits_ISO_5,1,5,63,98,1648669008
118,16,16,Jits_ISO_5,2,1,48,79,1648714900
118,16,16,Jits_ISO_5,3,5,80,127,1648728488
118,16,16,Jits_ISO_5,0,5,56,103,1649158480
118,16,16,Jits_ISO_5,1,5,80,127,1649178940
118,16,16,Jits_ISO_5,2,1,48,85,1649205948
118,16,16,Jits_ISO_5,3,5,63,98,1649208604
118,16,16,Jits_ISO_5,0,5,80,127,1649659420
118,16,16,Jits_ISO_5,1,5,56,103,1649668572
118,16,16,Jits_ISO_5,2,5,63,98,1649688880
118,16,16,Jits_ISO_5,3,1,48,57,1649710280
118,16,16,Jits_ISO_5,0,5,63,98,1650148828
118,16,16,Jits_ISO_5,1,1,48,62,1650183560
118,16,16,Jits_ISO_5,2,5,80,127,1650228540
118,16,16,Jits_ISO_5,3,5,56,103,1650238960
118,16,16,Jits_ISO_5,0,1,48,63,1650683588
118,16,16,Jits_ISO_5,1,5,80,127,1650708796
118,16,16,Jits_ISO_5,2,5,56,103,1650729548
118,16,16,Jits_ISO_5,3,5,63,98,1650732616
118,16,16,Jits_ISO_5,0,5,63,98,1651178788
118,16,16,Jits_ISO_5,1,5,80,127,1651182080
118,16,16,Jits_ISO_5,2,1,48,70,1651230752
118,16,16,Jits_ISO_5,3,5,56,103,1651239464
118,16,16,Jits_ISO_5,0,5,56,103,1651659260
118,16,16,Jits_ISO_5,1,5,80,127,1651669528
118,16,16,Jits_ISO_5,2,5,63,98,1651709392
118,16,16,Jits_ISO_5,3,1,48,83,1651726900
118,16,16,Jits_ISO_5,0,5,56,103,1652139376
118,16,16,Jits_ISO_5,1,5,63,98,1652198792
118,16,16,Jits_ISO_5,2,5,80,127,1652208988
118,16,16,Jits_ISO_5,3,1,48,65,1652248144
118,16,16,Jits_ISO_5,0,5,63,98,1652649460
118,16,16,Jits_ISO_5,1,5,80,127,1652689472
118,16,16,Jits_ISO_5,2,5,56,103,1652729560
118,16,16,Jits_ISO_5,3,1,48,81,1652732752
118,16,16,Jits_ISO_5,0,5,56,103,1653148972
118,16,16,Jits_ISO_5,1,1,48,76,1653189704
118,16,16,Jits_ISO_5,2,5,63,98,1653229052
118,16,16,Jits_ISO_5,3,5,80,127,1653232492
118,16,16,Jits_ISO_5,0,9999,9999,9999,1593937020
118,16,16,Jits_ISO_5,1,9999,9999,9999,1594436668
118,16,16,Jits_ISO_5,2,9999,9999,9999,1594936408
118,16,16,Jits_ISO_5,3,9999,9999,9999,1595436144
118,16,16,Jits_ISO_5,4,9999,9999,9999,1595936824
118,16,16,Jits_ISO_5,5,9999,9999,9999,1596436560
118,16,16,Jits_ISO_5,6,9999,9999,9999,1596936296
118,16,16,Jits_ISO_5,7,9999,9999,9999,1597437020
118,16,16,Jits_ISO_5,8,9999,9999,9999,1597936692
118,16,16,Jits_ISO_5,9,9999,9999,9999,1598436440
118,16,16,Jits_ISO_5,10,9999,9999,9999,1598936184
118,16,16,Jits_ISO_5,11,9999,9999,9999,1599436908
118,16,16,Jits_ISO_5,12,9999,9999,9999,1599936564
118,16,16,Jits_ISO_5,13,9999,9999,9999,1600436296
118,16,16,Jits_ISO_5,14,9999,9999,9999,1600937072
118,16,16,Jits_ISO_5,15,9999,9999,9999,1601436744
118,16,16,Jits_ISO_5,16,9999,9999,9999,1601936488
118,16,16,Jits_ISO_5,17,9999,9999,9999,1602436144
118,16,16,Jits_ISO_5,18,9999,9999,9999,1602936936
118,16,16,Jits_ISO_5,19,9999,9999,9999,1603436612
118,16,16,Jits_ISO_5,20,9999,9999,9999,1603936332
118,16,16,Jits_ISO_5,21,9999,9999,9999,1604437052
118,16,16,Jits_ISO_5,22,9999,9999,9999,1604936796
118,16,16,Jits_ISO_5,23,9999,9999,9999,1605436472
118,16,16,Jits_ISO_5,24,9999,9999,9999,1605936224
118,16,16,Jits_ISO_5,25,9999,9999,9999,1606436924
118,16,16,Jits_ISO_5,26,9999,9999,9999,1606936656
118,16,16,Jits_ISO_5,27,9999,9999,9999,1607436376
118,16,16,Jits_ISO_5,28,9999,9999,9999,1607936052
118,16,16,Jits_ISO_5,29,9999,9999,9999,1608436844
118,16,16,Jits_ISO_5,30,9999,9999,9999,1608936516
118,16,16,Jits_ISO_5,31,9999,9999,9999,1609436268
118,16,16,Jits_ISO_5,32,9999,9999,9999,1609936988
118,16,16,Jits_ISO_5,33,9999,9999,9999,1610436660
118,16,16,Jits_ISO_5,34,9999,9999,9999,1610936404
118,16,16,Jits_ISO_5,35,9999,9999,9999,1611436084
118,16,16,Jits_ISO_5,36,9999,9999,9999,1611936852
118,16,16,Jits_ISO_5,37,9999,9999,9999,1612436588
118,16,16,Jits_ISO_5,38,9999,9999,9999,1612936264
118,16,16,Jits_ISO_5,39,9999,9999,9999,1613437048
118,16,16,Jits_ISO_5,40,9999,9999,9999,1613936704
118,16,16,Jits_ISO_5,41,9999,9999,9999,1614436416
118,16,16,Jits_ISO_5,42,9999,9999,9999,1614936140
118,16,16,Jits_ISO_5,43,9999,9999,9999,1615436916
118,16,16,Jits_ISO_5,44,9999,9999,9999,1615936572
118,16,16,Jits_ISO_5,45,9999,9999,9999,1616436316
118,16,16,Jits_ISO_5,46,9999,9999,9999,1616937020
118,16,16,Jits_ISO_5,47,9999,9999,9999,1617436764
118,16,16,Jits_ISO_5,48,9999,9999,9999,1617936496
118,16,16,Jits_ISO_5,49,9999,9999,9999,1618436176
118,16,16,Jits_ISO_5,50,9999,9999,9999,1618936944
118,16,16,Jits_ISO_5,51,9999,9999,9999,1619436620
118,16,16,Jits_ISO_5,52,9999,9999,9999,1619936368
118,16,16,Jits_ISO_5,53,9999,9999,9999,1620437076
118,16,16,Jits_ISO_5,54,9999,9999,9999,1620936812
118,16,16,Jits_ISO_5,55,9999,9999,9999,1621436488
118,16,16,Jits_ISO_5,56,9999,9999,9999,1621936236
118,16,16,Jits_ISO_5,57,9999,9999,9999,1622436948
118,16,16,Jits_ISO_5,58,9999,9999,9999,1622936696
118,16,16,Jits_ISO_5,59,9999,9999,9999,1623436344
118,16,16,Jits_ISO_5,60,9999,9999,9999,1623936092
118,16,16,Jits_ISO_5,61,9999,9999,9999,1624436796
118,16,16,Jits_ISO_5,62,9999,9999,9999,1624936516
118,16,16,Jits_ISO_5,63,9999,9999,9999,1625436264
118,16,16,Jits_ISO_5,64,9999,9999,9999,1625936972
118,16,16,Jits_ISO_5,65,9999,9999,9999,1626436712
118,16,16,Jits_ISO_5,66,9999,9999,9999,1626936388
118,16,16,Jits_ISO_5,67,9999,9999,9999,1627436108
118,16,16,Jits_ISO_5,68,9999,9999,9999,1627936832
118,16,16,Jits_ISO_5,69,9999,9999,9999,1628436584
118,16,16,Jits_ISO_5,70,9999,9999,9999,1628936304
118,16,16,Jits_ISO_5,71,9999,9999,9999,1629437024
118,16,16,Jits_ISO_5,72,9999,9999,9999,1629936696
118,16,16,Jits_ISO_5,73,9999,9999,9999,1630436432
118,16,16,Jits_ISO_5,74,9999,9999,9999,1630936184
118,16,16,Jits_ISO_5,75,9999,9999,9999,1631436888
118,16,16,Jits_ISO_5,76,9999,9999,9999,1631936568
118,16,16,Jits_ISO_5,77,9999,9999,9999,1632436304
118,16,16,Jits_ISO_5,78,9999,9999,9999,1632937024
118,16,16,Jits_ISO_5,79,9999,9999,9999,1633436772
118,16,16,Jits_ISO_5,80,9999,9999,9999,1633936508
118,16,16,Jits_ISO_5,81,9999,9999,9999,1634436168
118,16,16,Jits_ISO_5,82,9999,9999,9999,1634936884
118,16,16,Jits_ISO_5,83,9999,9999,9999,1635436636
118,16,16,Jits_ISO_5,84,9999,9999,9999,1635936364
118,16,16,Jits_ISO_5,85,9999,9999,9999,1636437060
118,16,16,Jits_ISO_5,86,9999,9999,9999,1636936792
118,16,16,Jits_ISO_5,87,9999,9999,9999,1637436540
118,16,16,Jits_ISO_5,88,9999,9999,9999,1637936212
118,16,16,Jits_ISO_5,89,9999,9999,9999,1638436936
118,16,16,Jits_ISO_5,90,9999,9999,9999,1638936684
118,16,16,Jits_ISO_5,91,9999,9999,9999,1639436352
118,16,16,Jits_ISO_5,92,9999,9999,9999,1639936084
118,16,16,Jits_ISO_5,93,9999,9999,9999,1640436792
118,16,16,Jits_ISO_5,94,9999,9999,9999,1640936520
118,16,16,Jits_ISO_5,95,9999,9999,9999,1641436264
118,16,16,Jits_ISO_5,96,9999,9999,9999,1641936988
118,16,16,Jits_ISO_5,97,9999,9999,9999,1642436716
118,16,16,Jits_ISO_5,98,9999,9999,9999,1642936372
118,16,16,Jits_ISO_5,99,9999,9999,9999,1643436120
118,16,16,Jits_ISO_5,100,9999,9999,9999,1643936820
118,16,16,Jits_ISO_5,101,9999,9999,9999,1644436568
118,16,16,Jits_ISO_5,102,9999,9999,9999,1644936304
118,16,16,Jits_ISO_5,103,9999,9999,9999,1645437028
118,16,16,Jits_ISO_5,104,9999,9999,9999,1645936696
118,16,16,Jits_ISO_5,105,9999,9999,9999,1646436476
118,16,16,Jits_ISO_5,106,9999,9999,9999,1646936124
118,16,16,Jits_ISO_5,107,9999,9999,9999,1647436904
118,16,16,Jits_ISO_5,108,9999,9999,9999,1647936620
118,16,16,Jits_ISO_5,109,9999,9999,9999,1648436292
118,16,16,Jits_ISO_5,110,9999,9999,9999,1648937084
118,16,16,Jits_ISO_5,111,9999,9999,9999,1649436752
118,16,16,Jits_ISO_5,112,9999,9999,9999,1649936496
118,16,16,Jits_ISO_5,113,9999,9999,9999,1650436172
118,16,16,Jits_ISO_5,114,9999,9999,9999,1650936948
118,16,16,Jits_ISO_5,115,9999,9999,9999,1651436600
118,16,16,Jits_ISO_5,116,9999,9999,9999,1651936336
118,16,16,Jits_ISO_5,117,9999,9999,9999,1652437052
118,16,16,Jits_ISO_5,118,9999,9999,9999,1652936804
118,16,16,Jits_ISO_5,119,9999,9999,9999,1653436528
118,17,7,Jits_ISO_8,0,5,56,103,1663625644
118,17,7,Jits_ISO_8,1,5,63,98,1663628516
118,17,7,Jits_ISO_8,2,5,80,127,1663631716
118,17,7,Jits_ISO_8,0,5,56,103,1664426392
118,17,7,Jits_ISO_8,1,5,63,98,1664429488
118,17,7,Jits_ISO_8,2,5,80,127,1664432540
118,17,7,Jits_ISO_8,0,5,80,127,1665165648
118,17,7,Jits_ISO_8,1,1,48,44,1665247508
118,17,7,Jits_ISO_8,2,5,63,98,1665255924
118,17,7,Jits_ISO_8,3,5,56,103,1665265972
118,17,7,Jits_ISO_8,0,1,48,76,1665972296
118,17,7,Jits_ISO_8,1,5,56,103,1665986112
118,17,7,Jits_ISO_8,2,5,63,98,1665996236
118,17,7,Jits_ISO_8,3,5,80,127,1666086276
118,17,7,Jits_ISO_8,0,1,48,79,1666753968
118,17,7,Jits_ISO_8,1,5,63,98,1666755852
118,17,7,Jits_ISO_8,2,5,80,127,1666785604
118,17,7,Jits_ISO_8,3,5,56,103,1666816324
118,17,7,Jits_ISO_8,0,5,56,103,1667555636
118,17,7,Jits_ISO_8,1,1,48,76,1667570816
118,17,7,Jits_ISO_8,2,5,80,127,1667656180
118,17,7,Jits_ISO_8,3,5,63,98,1667706168
118,17,7,Jits_ISO_8,0,5,56,103,1668355436
118,17,7,Jits_ISO_8,1,1,48,69,1668375644
118,17,7,Jits_ISO_8,2,5,80,127,1668405560
118,17,7,Jits_ISO_8,3,5,63,98,1668445500
118,17,7,Jits_ISO_8,0,1,48,72,1669149876
118,17,7,Jits_ISO_8,1,5,80,127,1669186092
118,17,7,Jits_ISO_8,2,5,63,98,1669215548
118,17,7,Jits_ISO_8,3,5,56,103,1669286284
118,17,7,Jits_ISO_8,0,1,48,66,1669959776
118,17,7,Jits_ISO_8,1,5,63,98,1670016320
118,17,7,Jits_ISO_8,2,5,56,103,1670046220
118,17,7,Jits_ISO_8,3,5,80,127,1670105400
118,17,7,Jits_ISO_8,0,1,48,60,1670746604
118,17,7,Jits_ISO_8,1,5,56,103,1670755620
118,17,7,Jits_ISO_8,2,5,80,127,1670758684
118,17,7,Jits_ISO_8,3,5,63,98,1670875404
118,17,7,Jits_ISO_8,0,1,48,62,1671532276
118,17,7,Jits_ISO_8,1,5,56,103,1671636220
118,17,7,Jits_ISO_8,2,5,80,127,1671676232
118,17,7,Jits_ISO_8,3,5,63,98,1671685532
118,17,7,Jits_ISO_8,0,1,48,66,1672344520
118,17,7,Jits_ISO_8,1,5,56,103,1672396240
118,17,7,Jits_ISO_8,2,5,80,127,1672415576
118,17,7,Jits_ISO_8,3,5,63,98,1672495504
118,17,7,Jits_ISO_8,0,1,48,65,1673104296
118,17,7,Jits_ISO_8,1,5,80,127,1673185684
118,17,7,Jits_ISO_8,2,5,56,103,1673285996
118,17,7,Jits_ISO_8,3,5,63,98,1673296120
118,17,7,Jits_ISO_8,0,5,63,98,1673955660
118,17,7,Jits_ISO_8,1,5,80,127,1674015980
118,17,7,Jits_ISO_8,2,5,56,103,1674026548
118,17,7,Jits_ISO_8,3,1,48,55,1674044440
118,17,7,Jits_ISO_8,0,5,56,103,1674755444
118,17,7,Jits_ISO_8,1,1,48,61,1674779536
118,17,7,Jits_ISO_8,2,5,63,98,1674826092
118,17,7,Jits_ISO_8,3,5,80,127,1674829604
118,17,7,Jits_ISO_8,0,1,48,71,1675518852
118,17,7,Jits_ISO_8,1,5,63,98,1675585868
118,17,7,Jits_ISO_8,2,5,56,103,1675636004
118,17,7,Jits_ISO_8,3,5,80,127,1675639220
118,17,7,Jits_ISO_8,0,1,48,62,1676314892
118,17,7,Jits_ISO_8,1,5,56,103,1676345928
118,17,7,Jits_ISO_8,2,5,80,127,1676348844
118,17,7,Jits_ISO_8,3,5,63,98,1676435996
118,17,7,Jits_ISO_8,0,1,48,58,1677104324
118,17,7,Jits_ISO_8,1,5,63,98,1677186408
118,17,7,Jits_ISO_8,2,5,56,103,1677275484
118,17,7,Jits_ISO_8,3,5,80,127,1677306132
118,17,7,Jits_ISO_8,0,1,48,55,1677919388
118,17,7,Jits_ISO_8,1,5,56,103,1677975860
118,17,7,Jits_ISO_8,2,5,63,98,1678076244
118,17,7,Jits_ISO_8,3,5,80,127,1678105920
118,17,7,Jits_ISO_8,0,5,63,98,1678796032
118,17,7,Jits_ISO_8,1,5,56,103,1678806524
118,17,7,Jits_ISO_8,2,1,48,62,1678824936
118,17,7,Jits_ISO_8,3,5,80,127,1678895604
118,17,7,Jits_ISO_8,0,1,48,77,1679555252
118,17,7,Jits_ISO_8,1,5,63,98,1679616336
118,17,7,Jits_ISO_8,2,5,56,103,1679696340
118,17,7,Jits_ISO_8,3,5,80,127,1679699408
118,17,7,Jits_ISO_8,0,5,80,127,1680376188
118,17,7,Jits_ISO_8,1,1,48,86,1680391516
118,17,7,Jits_ISO_8,2,5,63,98,1680395892
118,17,7,Jits_ISO_8,3,5,56,103,1680456132
118,17,7,Jits_ISO_8,0,1,48,77,1681192796
118,17,7,Jits_ISO_8,1,5,56,103,1681215836
118,17,7,Jits_ISO_8,2,5,63,98,1681236368
118,17,7,Jits_ISO_8,3,5,80,127,1681239584
118,17,7,Jits_ISO_8,0,5,63,98,1681956128
118,17,7,Jits_ISO_8,1,1,48,54,1681995816
118,17,7,Jits_ISO_8,2,5,80,127,1682036168
118,17,7,Jits_ISO_8,3,5,56,103,1682046288
118,17,7,Jits_ISO_8,0,1,48,73,1682724708
118,17,7,Jits_ISO_8,1,5,63,98,1682776652
118,17,7,Jits_ISO_8,2,5,56,103,1682795868
118,17,7,Jits_ISO_8,3,5,80,127,1682846200
118,17,7,Jits_ISO_8,0,1,48,70,1683494972
118,17,7,Jits_ISO_8,1,5,80,127,1683576232
118,17,7,Jits_ISO_8,2,5,63,98,1683616084
118,17,7,Jits_ISO_8,3,5,56,103,1683635500
118,17,7,Jits_ISO_8,0,1,48,60,1684349016
118,17,7,Jits_ISO_8,1,5,56,103,1684415948
118,17,7,Jits_ISO_8,2,5,63,98,1684426292
118,17,7,Jits_ISO_8,3,5,80,127,1684445484
118,17,7,Jits_ISO_8,0,5,56,103,1685145908
118,17,7,Jits_ISO_8,1,1,48,57,1685171800
118,17,7,Jits_ISO_8,2,5,63,98,1685236112
118,17,7,Jits_ISO_8,3,5,80,127,1685295440
118,17,7,Jits_ISO_8,0,1,48,76,1685968148
118,17,7,Jits_ISO_8,1,5,80,127,1685976416
118,17,7,Jits_ISO_8,2,5,56,103,1685985788
118,17,7,Jits_ISO_8,3,5,63,98,1686056292
118,17,7,Jits_ISO_8,0,5,63,98,1686805872
118,17,7,Jits_ISO_8,1,1,48,72,1686811232
118,17,7,Jits_ISO_8,2,5,80,127,1686895952
118,17,7,Jits_ISO_8,3,5,56,103,1686906208
118,17,7,Jits_ISO_8,0,5,63,98,1687546096
118,17,7,Jits_ISO_8,1,5,80,127,1687596600
118,17,7,Jits_ISO_8,2,1,48,81,1687626992
118,17,7,Jits_ISO_8,3,5,56,103,1687655960
118,17,7,Jits_ISO_8,0,1,48,71,1688370416
118,17,7,Jits_ISO_8,1,5,56,103,1688375840
118,17,7,Jits_ISO_8,2,5,80,127,1688425772
118,17,7,Jits_ISO_8,3,5,63,98,1688446304
118,17,7,Jits_ISO_8,0,1,48,86,1689135516
118,17,7,Jits_ISO_8,1,5,56,103,1689145804
118,17,7,Jits_ISO_8,2,5,80,127,1689206144
118,17,7,Jits_ISO_8,3,5,63,98,1689275736
118,17,7,Jits_ISO_8,0,5,56,103,1689945664
118,17,7,Jits_ISO_8,1,5,80,127,1689976188
118,17,7,Jits_ISO_8,2,1,48,86,1689983644
118,17,7,Jits_ISO_8,3,5,63,98,1690005784
118,17,7,Jits_ISO_8,0,1,48,73,1690761400
118,17,7,Jits_ISO_8,1,5,56,103,1690786156
118,17,7,Jits_ISO_8,2,5,80,127,1690805640
118,17,7,Jits_ISO_8,3,5,63,98,1690866016
118,17,7,Jits_ISO_8,0,1,48,77,1691602908
118,17,7,Jits_ISO_8,1,5,80,127,1691665656
118,17,7,Jits_ISO_8,2,5,56,103,1691676004
118,17,7,Jits_ISO_8,3,5,63,98,1691686124
118,17,7,Jits_ISO_8,0,5,56,103,1692425740
118,17,7,Jits_ISO_8,1,5,80,127,1692465904
118,17,7,Jits_ISO_8,2,5,63,98,1692496180
118,17,7,Jits_ISO_8,3,1,48,67,1692497144
118,17,7,Jits_ISO_8,0,5,56,103,1693195576
118,17,7,Jits_ISO_8,1,5,63,98,1693226376
118,17,7,Jits_ISO_8,2,5,80,127,1693266236
118,17,7,Jits_ISO_8,3,1,48,58,1693273860
118,17,7,Jits_ISO_8,0,5,80,127,1693946148
118,17,7,Jits_ISO_8,1,5,63,98,1693996648
118,17,7,Jits_ISO_8,2,5,56,103,1694015764
118,17,7,Jits_ISO_8,3,1,48,73,1694042096
118,17,7,Jits_ISO_8,0,5,56,103,1694775684
118,17,7,Jits_ISO_8,1,1,48,81,1694835176
118,17,7,Jits_ISO_8,2,5,80,127,1694846436
118,17,7,Jits_ISO_8,3,5,63,98,1694905704
118,17,7,Jits_ISO_8,0,5,80,127,1695576536
118,17,7,Jits_ISO_8,1,1,48,71,1695642084
118,17,7,Jits_ISO_8,2,5,63,98,1695665716
118,17,7,Jits_ISO_8,3,5,56,103,1695686028
118,17,7,Jits_ISO_8,0,5,63,98,1696395692
118,17,7,Jits_ISO_8,1,5,56,103,1696416004
118,17,7,Jits_ISO_8,2,1,48,65,1696432232
118,17,7,Jits_ISO_8,3,5,80,127,1696456084
118,17,7,Jits_ISO_8,0,5,80,127,1697155840
118,17,7,Jits_ISO_8,1,5,63,98,1697176004
118,17,7,Jits_ISO_8,2,1,48,74,1697246024
118,17,7,Jits_ISO_8,3,5,56,103,1697255716
118,17,7,Jits_ISO_8,0,5,63,98,1697945892
118,17,7,Jits_ISO_8,1,1,48,61,1697965500
118,17,7,Jits_ISO_8,2,5,56,103,1698055504
118,17,7,Jits_ISO_8,3,5,80,127,1698059524
118,17,7,Jits_ISO_8,0,5,63,98,1698766120
118,17,7,Jits_ISO_8,1,5,56,103,1698776536
118,17,7,Jits_ISO_8,2,1,48,79,1698779156
118,17,7,Jits_ISO_8,3,5,80,127,1698780644
118,17,7,Jits_ISO_8,0,5,56,103,1699545652
118,17,7,Jits_ISO_8,1,1,48,83,1699593956
118,17,7,Jits_ISO_8,2,5,80,127,1699666424
118,17,7,Jits_ISO_8,3,5,63,98,1699706300
118,17,7,Jits_ISO_8,0,5,56,103,1700365612
118,17,7,Jits_ISO_8,1,1,48,61,1700422964
118,17,7,Jits_ISO_8,2,5,80,127,1700445552
118,17,7,Jits_ISO_8,3,5,63,98,1700465884
118,17,7,Jits_ISO_8,0,5,56,103,1701165704
118,17,7,Jits_ISO_8,1,1,48,73,1701216176
118,17,7,Jits_ISO_8,2,5,63,98,1701275932
118,17,7,Jits_ISO_8,3,5,80,127,1701279524
118,17,7,Jits_ISO_8,0,5,56,103,1701995792
118,17,7,Jits_ISO_8,1,1,48,56,1702023872
118,17,7,Jits_ISO_8,2,5,80,127,1702025536
118,17,7,Jits_ISO_8,3,5,63,98,1702045996
118,17,7,Jits_ISO_8,0,5,63,98,1702776332
118,17,7,Jits_ISO_8,1,5,56,103,1702786304
118,17,7,Jits_ISO_8,2,5,80,127,1702795528
118,17,7,Jits_ISO_8,3,1,48,70,1702845996
118,17,7,Jits_ISO_8,0,5,80,127,1703565620
118,17,7,Jits_ISO_8,1,5,56,103,1703615824
118,17,7,Jits_ISO_8,2,1,48,85,1703645320
118,17,7,Jits_ISO_8,3,5,63,98,1703655828
118,17,7,Jits_ISO_8,0,5,80,127,1704385796
118,17,7,Jits_ISO_8,1,5,63,98,1704406328
118,17,7,Jits_ISO_8,2,1,48,79,1704451548
118,17,7,Jits_ISO_8,3,5,56,103,1704455552
118,17,7,Jits_ISO_8,0,5,80,127,1705195852
118,17,7,Jits_ISO_8,1,5,56,103,1705225528
118,17,7,Jits_ISO_8,2,1,48,74,1705256072
118,17,7,Jits_ISO_8,3,5,63,98,1705296248
118,17,7,Jits_ISO_8,0,5,56,103,1706045776
118,17,7,Jits_ISO_8,1,5,80,127,1706056044
118,17,7,Jits_ISO_8,2,5,63,98,1706095860
118,17,7,Jits_ISO_8,3,1,48,66,1706156740
118,17,7,Jits_ISO_8,0,5,56,103,1706755300
118,17,7,Jits_ISO_8,1,5,63,98,1706775984
118,17,7,Jits_ISO_8,2,5,80,127,1706845440
118,17,7,Jits_ISO_8,3,1,48,70,1706873520
118,17,7,Jits_ISO_8,0,1,48,70,1707565844
118,17,7,Jits_ISO_8,1,5,63,98,1707575684
118,17,7,Jits_ISO_8,2,5,80,127,1707636328
118,17,7,Jits_ISO_8,3,5,56,103,1707655588
118,17,7,Jits_ISO_8,0,5,80,127,1708366256
118,17,7,Jits_ISO_8,1,1,48,64,1708386316
118,17,7,Jits_ISO_8,2,5,56,103,1708395952
118,17,7,Jits_ISO_8,3,5,63,98,1708425700
118,17,7,Jits_ISO_8,0,5,56,103,1709165928
118,17,7,Jits_ISO_8,1,1,48,67,1709179160
118,17,7,Jits_ISO_8,2,5,63,98,1709226312
118,17,7,Jits_ISO_8,3,5,80,127,1709285640
118,17,7,Jits_ISO_8,0,5,80,127,1709986252
118,17,7,Jits_ISO_8,1,5,56,103,1710005592
118,17,7,Jits_ISO_8,2,1,48,84,1710008184
118,17,7,Jits_ISO_8,3,5,63,98,1710076388
118,17,7,Jits_ISO_8,0,5,80,127,1710786128
118,17,7,Jits_ISO_8,1,1,48,80,1710806808
118,17,7,Jits_ISO_8,2,5,63,98,1710807848
118,17,7,Jits_ISO_8,3,5,56,103,1710836552
118,17,7,Jits_ISO_8,0,5,80,127,1711576556
118,17,7,Jits_ISO_8,1,5,63,98,1711595744
118,17,7,Jits_ISO_8,2,1,48,72,1711630776
118,17,7,Jits_ISO_8,3,5,56,103,1711656500
118,17,7,Jits_ISO_8,0,5,80,127,1712376352
118,17,7,Jits_ISO_8,1,1,48,78,1712390408
118,17,7,Jits_ISO_8,2,5,56,103,1712475476
118,17,7,Jits_ISO_8,3,5,63,98,1712506204
118,17,7,Jits_ISO_8,0,5,63,98,1713165592
118,17,7,Jits_ISO_8,1,5,80,127,1713215720
118,17,7,Jits_ISO_8,2,5,56,103,1713236476
118,17,7,Jits_ISO_8,3,1,48,57,1713319032
118,17,7,Jits_ISO_8,0,5,80,127,1714006280
118,17,7,Jits_ISO_8,1,5,56,103,1714036276
118,17,7,Jits_ISO_8,2,5,63,98,1714039268
118,17,7,Jits_ISO_8,3,1,48,64,1714046816
118,17,7,Jits_ISO_8,0,5,63,98,1714835764
118,17,7,Jits_ISO_8,1,5,56,103,1714875780
118,17,7,Jits_ISO_8,2,1,48,86,1714880992
118,17,7,Jits_ISO_8,3,5,80,127,1714896456
118,17,7,Jits_ISO_8,0,5,80,127,1715576288
118,17,7,Jits_ISO_8,1,5,63,98,1715656312
118,17,7,Jits_ISO_8,2,5,56,103,1715696176
118,17,7,Jits_ISO_8,3,1,48,65,1715704396
118,17,7,Jits_ISO_8,0,5,63,98,1716396320
118,17,7,Jits_ISO_8,1,1,48,61,1716462068
118,17,7,Jits_ISO_8,2,5,80,127,1716476336
118,17,7,Jits_ISO_8,3,5,56,103,1716495672
118,17,7,Jits_ISO_8,0,5,56,103,1717236044
118,17,7,Jits_ISO_8,1,5,63,98,1717246240
118,17,7,Jits_ISO_8,2,1,48,59,1717247576
118,17,7,Jits_ISO_8,3,5,80,127,1717286320
118,17,7,Jits_ISO_8,0,5,56,103,1717956204
118,17,7,Jits_ISO_8,1,5,80,127,1717959116
118,17,7,Jits_ISO_8,2,1,48,77,1718056340
118,17,7,Jits_ISO_8,3,5,63,98,1718096220
118,17,7,Jits_ISO_8,0,5,56,103,1718745424
118,17,7,Jits_ISO_8,1,1,48,82,1718795072
118,17,7,Jits_ISO_8,2,5,63,98,1718835480
118,17,7,Jits_ISO_8,3,5,80,127,1718906216
118,17,7,Jits_ISO_8,0,1,48,75,1719566992
118,17,7,Jits_ISO_8,1,5,63,98,1719626132
118,17,7,Jits_ISO_8,2,5,80,127,1719629420
118,17,7,Jits_ISO_8,3,5,56,103,1719685556
118,17,7,Jits_ISO_8,0,1,48,76,1720357108
118,17,7,Jits_ISO_8,1,5,80,127,1720466152
118,17,7,Jits_ISO_8,2,5,56,103,1720486168
118,17,7,Jits_ISO_8,3,5,63,98,1720495540
118,17,7,Jits_ISO_8,0,5,56,103,1721176336
118,17,7,Jits_ISO_8,1,5,63,98,1721185560
118,17,7,Jits_ISO_8,2,1,48,65,1721199188
118,17,7,Jits_ISO_8,3,5,80,127,1721256304
118,17,7,Jits_ISO_8,0,1,48,77,1721957912
118,17,7,Jits_ISO_8,1,5,80,127,1721976296
118,17,7,Jits_ISO_8,2,5,56,103,1722026500
118,17,7,Jits_ISO_8,3,5,63,98,1722075488
118,17,7,Jits_ISO_8,0,1,48,74,1722763848
118,17,7,Jits_ISO_8,1,5,56,103,1722855728
118,17,7,Jits_ISO_8,2,5,63,98,1722866132
118,17,7,Jits_ISO_8,3,5,80,127,1722906292
118,17,7,Jits_ISO_8,0,5,56,103,1723596184
118,17,7,Jits_ISO_8,1,1,48,56,1723629120
118,17,7,Jits_ISO_8,2,5,63,98,1723636044
118,17,7,Jits_ISO_8,3,5,80,127,1723686244
118,17,7,Jits_ISO_8,0,5,80,127,1724356196
118,17,7,Jits_ISO_8,1,5,56,103,1724406252
118,17,7,Jits_ISO_8,2,1,48,86,1724418364
118,17,7,Jits_ISO_8,3,5,63,98,1724425508
118,17,7,Jits_ISO_8,0,5,80,127,1725166180
118,17,7,Jits_ISO_8,1,1,48,92,1725210808
118,17,7,Jits_ISO_8,2,5,63,98,1725226344
118,17,7,Jits_ISO_8,3,5,56,103,1725306164
118,17,7,Jits_ISO_8,0,5,80,127,1725946204
118,17,7,Jits_ISO_8,1,5,56,103,1725986292
118,17,7,Jits_ISO_8,2,5,63,98,1726005704
118,17,7,Jits_ISO_8,3,1,48,75,1726100240
118,17,7,Jits_ISO_8,0,5,56,103,1726796120
118,17,7,Jits_ISO_8,1,5,80,127,1726806244
118,17,7,Jits_ISO_8,2,5,63,98,1726846280
118,17,7,Jits_ISO_8,3,1,48,63,1726865664
118,17,7,Jits_ISO_8,0,5,56,103,1727665624
118,17,7,Jits_ISO_8,1,1,48,81,1727691964
118,17,7,Jits_ISO_8,2,5,63,98,1727705404
118,17,7,Jits_ISO_8,3,5,80,127,1727708844
118,17,7,Jits_ISO_8,0,5,63,98,1728355632
118,17,7,Jits_ISO_8,1,5,80,127,1728395500
118,17,7,Jits_ISO_8,2,5,56,103,1728466224
118,17,7,Jits_ISO_8,3,1,48,66,1728505160
118,17,7,Jits_ISO_8,0,5,63,98,1729146196
118,17,7,Jits_ISO_8,1,5,56,103,1729226068
118,17,7,Jits_ISO_8,2,1,48,84,1729273380
118,17,7,Jits_ISO_8,3,5,80,127,1729285480
118,17,7,Jits_ISO_8,0,5,80,127,1729956316
118,17,7,Jits_ISO_8,1,5,63,98,1730006372
118,17,7,Jits_ISO_8,2,5,56,103,1730035972
118,17,7,Jits_ISO_8,3,1,48,77,1730067184
118,17,7,Jits_ISO_8,0,5,56,103,1730745996
118,17,7,Jits_ISO_8,1,5,63,98,1730796052
118,17,7,Jits_ISO_8,2,5,80,127,1730806100
118,17,7,Jits_ISO_8,3,1,48,76,1730891540
118,17,7,Jits_ISO_8,0,5,56,103,1731555900
118,17,7,Jits_ISO_8,1,5,63,98,1731666416
118,17,7,Jits_ISO_8,2,1,48,75,1731678456
118,17,7,Jits_ISO_8,3,5,80,127,1731685996
118,17,7,Jits_ISO_8,0,5,63,98,1732355404
118,17,7,Jits_ISO_8,1,5,80,127,1732405756
118,17,7,Jits_ISO_8,2,5,56,103,1732495988
118,17,7,Jits_ISO_8,3,1,48,67,1732501800
118,17,7,Jits_ISO_8,0,5,63,98,1733145820
118,17,7,Jits_ISO_8,1,5,80,127,1733175868
118,17,7,Jits_ISO_8,2,5,56,103,1733265876
118,17,7,Jits_ISO_8,3,1,48,69,1733279036
118,17,7,Jits_ISO_8,0,5,63,98,1733945820
118,17,7,Jits_ISO_8,1,5,56,103,1733955868
118,17,7,Jits_ISO_8,2,5,80,127,1734056288
118,17,7,Jits_ISO_8,3,1,48,71,1734078960
118,17,7,Jits_ISO_8,0,1,48,65,1734838720
118,17,7,Jits_ISO_8,1,5,63,98,1734845792
118,17,7,Jits_ISO_8,2,5,80,127,1734875616
118,17,7,Jits_ISO_8,3,5,56,103,1734906192
118,17,7,Jits_ISO_8,0,5,80,127,1735665972
118,17,7,Jits_ISO_8,1,5,63,98,1735676240
118,17,7,Jits_ISO_8,2,1,48,68,1735680852
118,17,7,Jits_ISO_8,3,5,56,103,1735705836
118,17,7,Jits_ISO_8,0,5,80,127,1736365380
118,17,7,Jits_ISO_8,1,5,63,98,1736385916
118,17,7,Jits_ISO_8,2,5,56,103,1736436040
118,17,7,Jits_ISO_8,3,1,48,64,1736516624
118,17,7,Jits_ISO_8,0,5,63,98,1737195892
118,17,7,Jits_ISO_8,1,5,80,127,1737256284
118,17,7,Jits_ISO_8,2,1,48,70,1737271388
118,17,7,Jits_ISO_8,3,5,56,103,1737275688
118,17,7,Jits_ISO_8,0,5,63,98,1737955668
118,17,7,Jits_ISO_8,1,1,48,69,1738003128
118,17,7,Jits_ISO_8,2,5,56,103,1738005864
118,17,7,Jits_ISO_8,3,5,80,127,1738016208
118,17,7,Jits_ISO_8,0,1,48,51,1738783572
118,17,7,Jits_ISO_8,1,5,56,103,1738786160
118,17,7,Jits_ISO_8,2,5,80,127,1738796356
118,17,7,Jits_ISO_8,3,5,63,98,1738895788
118,17,7,Jits_ISO_8,0,5,80,127,1739545940
118,17,7,Jits_ISO_8,1,5,63,98,1739556064
118,17,7,Jits_ISO_8,2,5,56,103,1739705704
118,17,7,Jits_ISO_8,3,1,48,73,1739706820
118,17,7,Jits_ISO_8,0,5,63,98,1740355924
118,17,7,Jits_ISO_8,1,5,80,127,1740395816
118,17,7,Jits_ISO_8,2,1,48,61,1740409944
118,17,7,Jits_ISO_8,3,5,56,103,1740475752
118,17,7,Jits_ISO_8,0,5,56,103,1741145516
118,17,7,Jits_ISO_8,1,1,48,49,1741224412
118,17,7,Jits_ISO_8,2,5,80,127,1741245784
118,17,7,Jits_ISO_8,3,5,63,98,1741266320
118,17,7,Jits_ISO_8,0,5,80,127,1742005800
118,17,7,Jits_ISO_8,1,5,56,103,1742015996
118,17,7,Jits_ISO_8,2,1,48,67,1742019488
118,17,7,Jits_ISO_8,3,5,63,98,1742105976
118,17,7,Jits_ISO_8,0,5,56,103,1742806572
118,17,7,Jits_ISO_8,1,1,48,64,1742824396
118,17,7,Jits_ISO_8,2,5,63,98,1742825904
118,17,7,Jits_ISO_8,3,5,80,127,1742905772
118,17,7,Jits_ISO_8,0,5,63,98,1743555880
118,17,7,Jits_ISO_8,1,1,48,61,1743565372
118,17,7,Jits_ISO_8,2,5,56,103,1743646008
118,17,7,Jits_ISO_8,3,5,80,127,1743649296
118,17,7,Jits_ISO_8,0,1,48,63,1744352236
118,17,7,Jits_ISO_8,1,5,56,103,1744386512
118,17,7,Jits_ISO_8,2,5,80,127,1744445860
118,17,7,Jits_ISO_8,3,5,63,98,1744455964
118,17,7,Jits_ISO_8,0,1,48,62,1745218640
118,17,7,Jits_ISO_8,1,5,80,127,1745236420
118,17,7,Jits_ISO_8,2,5,56,103,1745245496
118,17,7,Jits_ISO_8,3,5,63,98,1745248636
118,17,7,Jits_ISO_8,0,5,56,103,1745996192
118,17,7,Jits_ISO_8,1,5,80,127,1746006316
118,17,7,Jits_ISO_8,2,5,63,98,1746025900
118,17,7,Jits_ISO_8,3,1,48,75,1746070820
118,17,7,Jits_ISO_8,0,5,63,98,1746766168
118,17,7,Jits_ISO_8,1,5,80,127,1746825764
118,17,7,Jits_ISO_8,2,1,48,73,1746862144
118,17,7,Jits_ISO_8,3,5,56,103,1746875884
118,17,7,Jits_ISO_8,0,5,63,98,1747645772
118,17,7,Jits_ISO_8,1,5,56,103,1747656044
118,17,7,Jits_ISO_8,2,1,48,76,1747681336
118,17,7,Jits_ISO_8,3,5,80,127,1747706312
118,17,7,Jits_ISO_8,0,5,63,98,1748346436
118,17,7,Jits_ISO_8,1,5,80,127,1748365552
118,17,7,Jits_ISO_8,2,5,56,103,1748376044
118,17,7,Jits_ISO_8,3,1,48,79,1748452500
118,17,7,Jits_ISO_8,0,5,63,98,1749145912
118,17,7,Jits_ISO_8,1,5,80,127,1749149124
118,17,7,Jits_ISO_8,2,5,56,103,1749185848
118,17,7,Jits_ISO_8,3,1,48,74,1749219532
118,17,7,Jits_ISO_8,0,5,63,98,1750016480
118,17,7,Jits_ISO_8,1,1,48,76,1750019068
118,17,7,Jits_ISO_8,2,5,80,127,1750046000
118,17,7,Jits_ISO_8,3,5,56,103,1750056416
118,17,7,Jits_ISO_8,0,5,56,103,1750765840
118,17,7,Jits_ISO_8,1,5,80,127,1750795516
118,17,7,Jits_ISO_8,2,5,63,98,1750826388
118,17,7,Jits_ISO_8,3,1,48,76,1750866516
118,17,7,Jits_ISO_8,0,1,48,58,1751662416
118,17,7,Jits_ISO_8,1,5,63,98,1751666048
118,17,7,Jits_ISO_8,2,5,56,103,1751705912
118,17,7,Jits_ISO_8,3,5,80,127,1751708904
118,17,7,Jits_ISO_8,0,5,80,127,1752365416
118,17,7,Jits_ISO_8,1,5,56,103,1752446436
118,17,7,Jits_ISO_8,2,5,63,98,1752495440
118,17,7,Jits_ISO_8,3,1,48,75,1752511436
118,17,7,Jits_ISO_8,0,5,80,127,1753145660
118,17,7,Jits_ISO_8,1,5,56,103,1753166272
118,17,7,Jits_ISO_8,2,5,63,98,1753256352
118,17,7,Jits_ISO_8,3,1,48,78,1753281044
118,17,7,Jits_ISO_8,0,5,80,127,1753986608
118,17,7,Jits_ISO_8,1,1,48,61,1754019692
118,17,7,Jits_ISO_8,2,5,63,98,1754026392
118,17,7,Jits_ISO_8,3,5,56,103,1754066404
118,17,7,Jits_ISO_8,0,5,63,98,1754755392
118,17,7,Jits_ISO_8,1,5,80,127,1754815712
118,17,7,Jits_ISO_8,2,5,56,103,1754845536
118,17,7,Jits_ISO_8,3,1,48,67,1754897428
118,17,7,Jits_ISO_8,0,5,56,103,1755556368
118,17,7,Jits_ISO_8,1,5,80,127,1755585896
118,17,7,Jits_ISO_8,2,1,48,59,1755665888
118,17,7,Jits_ISO_8,3,5,63,98,1755675948
118,17,7,Jits_ISO_8,0,5,56,103,1756366428
118,17,7,Jits_ISO_8,1,5,80,127,1756475748
118,17,7,Jits_ISO_8,2,1,48,65,1756492272
118,17,7,Jits_ISO_8,3,5,63,98,1756505416
118,17,7,Jits_ISO_8,0,5,56,103,1757216204
118,17,7,Jits_ISO_8,1,1,48,60,1757228540
118,17,7,Jits_ISO_8,2,5,63,98,1757275468
118,17,7,Jits_ISO_8,3,5,80,127,1757306512
118,17,7,Jits_ISO_8,0,5,56,103,1757986412
118,17,7,Jits_ISO_8,1,5,63,98,1758055748
118,17,7,Jits_ISO_8,2,5,80,127,1758076356
118,17,7,Jits_ISO_8,3,1,48,67,1758086372
118,17,7,Jits_ISO_8,0,5,80,127,1758756320
118,17,7,Jits_ISO_8,1,5,63,98,1758775808
118,17,7,Jits_ISO_8,2,5,56,103,1758825736
118,17,7,Jits_ISO_8,3,1,48,60,1758849604
118,17,7,Jits_ISO_8,0,9999,9999,9999,1664023660
118,17,7,Jits_ISO_8,1,9999,9999,9999,1664823364
118,17,7,Jits_ISO_8,2,9999,9999,9999,1665623136
118,17,7,Jits_ISO_8,3,9999,9999,9999,1666423928
118,17,7,Jits_ISO_8,4,9999,9999,9999,1667223632
118,17,7,Jits_ISO_8,5,9999,9999,9999,1668023416
118,17,7,Jits_ISO_8,6,9999,9999,9999,1668823136
118,17,7,Jits_ISO_8,7,9999,9999,9999,1669623908
118,17,7,Jits_ISO_8,8,9999,9999,9999,1670423620
118,17,7,Jits_ISO_8,9,9999,9999,9999,1671223364
118,17,7,Jits_ISO_8,10,9999,9999,9999,1672023156
118,17,7,Jits_ISO_8,11,9999,9999,9999,1672823864
118,17,7,Jits_ISO_8,12,9999,9999,9999,1673623656
118,17,7,Jits_ISO_8,13,9999,9999,9999,1674423360
118,17,7,Jits_ISO_8,14,9999,9999,9999,1675223136
118,17,7,Jits_ISO_8,15,9999,9999,9999,1676023896
118,17,7,Jits_ISO_8,16,9999,9999,9999,1676823664
118,17,7,Jits_ISO_8,17,9999,9999,9999,1677623380
118,17,7,Jits_ISO_8,18,9999,9999,9999,1678423096
118,17,7,Jits_ISO_8,19,9999,9999,9999,1679223876
118,17,7,Jits_ISO_8,20,9999,9999,9999,1680023652
118,17,7,Jits_ISO_8,21,9999,9999,9999,1680823360
118,17,7,Jits_ISO_8,22,9999,9999,9999,1681623148
118,17,7,Jits_ISO_8,23,9999,9999,9999,1682423900
118,17,7,Jits_ISO_8,24,9999,9999,9999,1683223604
118,17,7,Jits_ISO_8,25,9999,9999,9999,1684023388
118,17,7,Jits_ISO_8,26,9999,9999,9999,1684823096
118,17,7,Jits_ISO_8,27,9999,9999,9999,1685623876
118,17,7,Jits_ISO_8,28,9999,9999,9999,1686423668
118,17,7,Jits_ISO_8,29,9999,9999,9999,1687223384
118,17,7,Jits_ISO_8,30,9999,9999,9999,1688023160
118,17,7,Jits_ISO_8,31,9999,9999,9999,1688823916
118,17,7,Jits_ISO_8,32,9999,9999,9999,1689623624
118,17,7,Jits_ISO_8,33,9999,9999,9999,1690423400
118,17,7,Jits_ISO_8,34,9999,9999,9999,1691223120
118,17,7,Jits_ISO_8,35,9999,9999,9999,1692023908
118,17,7,Jits_ISO_8,36,9999,9999,9999,1692823620
118,17,7,Jits_ISO_8,37,9999,9999,9999,1693623348
118,17,7,Jits_ISO_8,38,9999,9999,9999,1694423136
118,17,7,Jits_ISO_8,39,9999,9999,9999,1695223912
118,17,7,Jits_ISO_8,40,9999,9999,9999,1696023636
118,17,7,Jits_ISO_8,41,9999,9999,9999,1696823360
118,17,7,Jits_ISO_8,42,9999,9999,9999,1697623140
118,17,7,Jits_ISO_8,43,9999,9999,9999,1698423924
118,17,7,Jits_ISO_8,44,9999,9999,9999,1699223616
118,17,7,Jits_ISO_8,45,9999,9999,9999,1700023400
118,17,7,Jits_ISO_8,46,9999,9999,9999,1700823124
118,17,7,Jits_ISO_8,47,9999,9999,9999,1701623884
118,17,7,Jits_ISO_8,48,9999,9999,9999,1702423608
118,17,7,Jits_ISO_8,49,9999,9999,9999,1703223400
118,17,7,Jits_ISO_8,50,9999,9999,9999,1704023104
118,17,7,Jits_ISO_8,51,9999,9999,9999,1704823900
118,17,7,Jits_ISO_8,52,9999,9999,9999,1705623624
118,17,7,Jits_ISO_8,53,9999,9999,9999,1706423352
118,17,7,Jits_ISO_8,54,9999,9999,9999,1707223144
118,17,7,Jits_ISO_8,55,9999,9999,9999,1708023912
118,17,7,Jits_ISO_8,56,9999,9999,9999,1708823616
118,17,7,Jits_ISO_8,57,9999,9999,9999,1709623416
118,17,7,Jits_ISO_8,58,9999,9999,9999,1710423140
118,17,7,Jits_ISO_8,59,9999,9999,9999,1711223860
118,17,7,Jits_ISO_8,60,9999,9999,9999,1712023652
118,17,7,Jits_ISO_8,61,9999,9999,9999,1712823380
118,17,7,Jits_ISO_8,62,9999,9999,9999,1713623104
118,17,7,Jits_ISO_8,63,9999,9999,9999,1714423924
118,17,7,Jits_ISO_8,64,9999,9999,9999,1715223656
118,17,7,Jits_ISO_8,65,9999,9999,9999,1716023368
118,17,7,Jits_ISO_8,66,9999,9999,9999,1716823096
118,17,7,Jits_ISO_8,67,9999,9999,9999,1717623884
118,17,7,Jits_ISO_8,68,9999,9999,9999,1718423664
118,17,7,Jits_ISO_8,69,9999,9999,9999,1719223392
118,17,7,Jits_ISO_8,70,9999,9999,9999,1720023108
118,17,7,Jits_ISO_8,71,9999,9999,9999,1720823876
118,17,7,Jits_ISO_8,72,9999,9999,9999,1721623656
118,17,7,Jits_ISO_8,73,9999,9999,9999,1722423376
118,17,7,Jits_ISO_8,74,9999,9999,9999,1723223096
118,17,7,Jits_ISO_8,75,9999,9999,9999,1724023876
118,17,7,Jits_ISO_8,76,9999,9999,9999,1724823672
118,17,7,Jits_ISO_8,77,9999,9999,9999,1725623400
118,17,7,Jits_ISO_8,78,9999,9999,9999,1726423116
118,17,7,Jits_ISO_8,79,9999,9999,9999,1727223888
118,17,7,Jits_ISO_8,80,9999,9999,9999,1728023612
118,17,7,Jits_ISO_8,81,9999,9999,9999,1728823380
118,17,7,Jits_ISO_8,82,9999,9999,9999,1729623164
118,17,7,Jits_ISO_8,83,9999,9999,9999,1730423868
118,17,7,Jits_ISO_8,84,9999,9999,9999,1731223660
118,17,7,Jits_ISO_8,85,9999,9999,9999,1732023380
118,17,7,Jits_ISO_8,86,9999,9999,9999,1732823104
118,17,7,Jits_ISO_8,87,9999,9999,9999,1733623932
118,17,7,Jits_ISO_8,88,9999,9999,9999,1734423632
118,17,7,Jits_ISO_8,89,9999,9999,9999,1735223352
118,17,7,Jits_ISO_8,90,9999,9999,9999,1736023144
118,17,7,Jits_ISO_8,91,9999,9999,9999,1736823860
118,17,7,Jits_ISO_8,92,9999,9999,9999,1737623660
118,17,7,Jits_ISO_8,93,9999,9999,9999,1738423364
118,17,7,Jits_ISO_8,94,9999,9999,9999,1739223152
118,17,7,Jits_ISO_8,95,9999,9999,9999,1740023904
118,17,7,Jits_ISO_8,96,9999,9999,9999,1740823624
118,17,7,Jits_ISO_8,97,9999,9999,9999,1741623408
118,17,7,Jits_ISO_8,98,9999,9999,9999,1742423132
118,17,7,Jits_ISO_8,99,9999,9999,9999,1743223932
118,17,7,Jits_ISO_8,100,9999,9999,9999,1744023648
118,17,7,Jits_ISO_8,101,9999,9999,9999,1744823356
118,17,7,Jits_ISO_8,102,9999,9999,9999,1745623132
118,17,7,Jits_ISO_8,103,9999,9999,9999,1746423884
118,17,7,Jits_ISO_8,104,9999,9999,9999,1747223608
118,17,7,Jits_ISO_8,105,9999,9999,9999,1748023396
118,17,7,Jits_ISO_8,106,9999,9999,9999,1748823096
118,17,7,Jits_ISO_8,107,9999,9999,9999,1749623860
118,17,7,Jits_ISO_8,108,9999,9999,9999,1750423644
118,17,7,Jits_ISO_8,109,9999,9999,9999,1751223348
118,17,7,Jits_ISO_8,110,9999,9999,9999,1752023148
118,17,7,Jits_ISO_8,111,9999,9999,9999,1752823904
118,17,7,Jits_ISO_8,112,9999,9999,9999,1753623624
118,17,7,Jits_ISO_8,113,9999,9999,9999,1754423348
118,17,7,Jits_ISO_8,114,9999,9999,9999,1755223140
118,17,7,Jits_ISO_8,115,9999,9999,9999,1756023920
118,17,7,Jits_ISO_8,116,9999,9999,9999,1756823648
118,17,7,Jits_ISO_8,117,9999,9999,9999,1757623376
118,17,7,Jits_ISO_8,118,9999,9999,9999,1758423100
118,17,7,Jits_ISO_8,119,9999,9999,9999,1759223868
118,18,19,Jits_Linear_5,0,5,56,103,1768835416
118,18,19,Jits_Linear_5,1,5,63,98,1768838440
118,18,19,Jits_Linear_5,2,5,80,127,1768841564
118,18,19,Jits_Linear_5,0,5,56,103,1769315732
118,18,19,Jits_Linear_5,1,5,63,98,1769319056
118,18,19,Jits_Linear_5,2,5,80,127,1769322100
118,18,19,Jits_Linear_5,0,5,56,103,1769796036
118,18,19,Jits_Linear_5,1,5,80,127,1769806232
118,18,19,Jits_Linear_5,2,5,63,98,1769825720
118,18,19,Jits_Linear_5,0,5,63,98,1770226144
118,18,19,Jits_Linear_5,1,5,80,127,1770255672
118,18,19,Jits_Linear_5,2,5,56,103,1770266240
118,18,19,Jits_Linear_5,0,1,48,95,1770697736
118,18,19,Jits_Linear_5,1,5,80,127,1770765568
118,18,19,Jits_Linear_5,2,5,56,103,1770776136
118,18,19,Jits_Linear_5,3,5,63,98,1770805572
118,18,19,Jits_Linear_5,0,1,48,74,1771216236
118,18,19,Jits_Linear_5,1,5,63,98,1771246156
118,18,19,Jits_Linear_5,2,5,56,103,1771275536
118,18,19,Jits_Linear_5,3,5,80,127,1771285808
118,18,19,Jits_Linear_5,0,5,56,103,1771686216
118,18,19,Jits_Linear_5,1,1,48,84,1771722068
118,18,19,Jits_Linear_5,2,5,63,98,1771736560
118,18,19,Jits_Linear_5,3,5,80,127,1771756048
118,18,19,Jits_Linear_5,0,5,80,127,1772175728
118,18,19,Jits_Linear_5,1,1,48,91,1772206044
118,18,19,Jits_Linear_5,2,5,63,98,1772226000
118,18,19,Jits_Linear_5,3,5,56,103,1772266088
118,18,19,Jits_Linear_5,0,5,56,103,1772666360
118,18,19,Jits_Linear_5,1,5,63,98,1772696112
118,18,19,Jits_Linear_5,2,1,48,89,1772698200
118,18,19,Jits_Linear_5,3,5,80,127,1772765492
118,18,19,Jits_Linear_5,0,5,56,103,1773155580
118,18,19,Jits_Linear_5,1,1,48,71,1773195040
118,18,19,Jits_Linear_5,2,5,80,127,1773216116
118,18,19,Jits_Linear_5,3,5,63,98,1773245944
118,18,19,Jits_Linear_5,0,5,56,103,1773656308
118,18,19,Jits_Linear_5,1,5,63,98,1773665932
118,18,19,Jits_Linear_5,2,1,48,58,1773700516
118,18,19,Jits_Linear_5,3,5,80,127,1773705492
118,18,19,Jits_Linear_5,0,5,63,98,1774146188
118,18,19,Jits_Linear_5,1,1,48,70,1774183264
118,18,19,Jits_Linear_5,2,5,80,127,1774226008
118,18,19,Jits_Linear_5,3,5,56,103,1774236056
118,18,19,Jits_Linear_5,0,5,63,98,1774696028
118,18,19,Jits_Linear_5,1,1,48,54,1774697292
118,18,19,Jits_Linear_5,2,5,56,103,1774735736
118,18,19,Jits_Linear_5,3,5,80,127,1774738876
118,18,19,Jits_Linear_5,0,5,56,103,1775155600
118,18,19,Jits_Linear_5,1,5,63,98,1775166016
118,18,19,Jits_Linear_5,2,5,80,127,1775205684
118,18,19,Jits_Linear_5,3,1,48,63,1775226632
118,18,19,Jits_Linear_5,0,5,56,103,1775646152
118,18,19,Jits_Linear_5,1,5,63,98,1775649292
118,18,19,Jits_Linear_5,2,5,80,127,1775665488
118,18,19,Jits_Linear_5,3,1,48,56,1775692348
118,18,19,Jits_Linear_5,0,5,80,127,1776166144
118,18,19,Jits_Linear_5,1,5,56,103,1776175372
118,18,19,Jits_Linear_5,2,1,48,58,1776191068
118,18,19,Jits_Linear_5,3,5,63,98,1776246192
118,18,19,Jits_Linear_5,0,5,63,98,1776665996
118,18,19,Jits_Linear_5,1,5,56,103,1776685412
118,18,19,Jits_Linear_5,2,1,48,47,1776730028
118,18,19,Jits_Linear_5,3,5,80,127,1776766196
118,18,19,Jits_Linear_5,0,1,48,73,1777185912
118,18,19,Jits_Linear_5,1,5,56,103,1777187176
118,18,19,Jits_Linear_5,2,5,80,127,1777226220
118,18,19,Jits_Linear_5,3,5,63,98,1777236416
118,18,19,Jits_Linear_5,0,1,48,72,1777655976
118,18,19,Jits_Linear_5,1,5,80,127,1777685892
118,18,19,Jits_Linear_5,2,5,63,98,1777715568
118,18,19,Jits_Linear_5,3,5,56,103,1777755492
118,18,19,Jits_Linear_5,0,1,48,82,1778179556
118,18,19,Jits_Linear_5,1,5,56,103,1778216296
118,18,19,Jits_Linear_5,2,5,63,98,1778245976
118,18,19,Jits_Linear_5,3,5,80,127,1778296188
118,18,19,Jits_Linear_5,0,1,48,76,1778705400
118,18,19,Jits_Linear_5,1,5,80,127,1778726252
118,18,19,Jits_Linear_5,2,5,56,103,1778766192
118,18,19,Jits_Linear_5,3,5,63,98,1778776388
118,18,19,Jits_Linear_5,0,1,48,60,1779222608
118,18,19,Jits_Linear_5,1,5,80,127,1779225940
118,18,19,Jits_Linear_5,2,5,63,98,1779266104
118,18,19,Jits_Linear_5,3,5,56,103,1779326428
118,18,19,Jits_Linear_5,0,5,56,103,1779746160
118,18,19,Jits_Linear_5,1,1,48,76,1779753992
118,18,19,Jits_Linear_5,2,5,80,127,1779756496
118,18,19,Jits_Linear_5,3,5,63,98,1779836172
118,18,19,Jits_Linear_5,0,5,80,127,1780275456
118,18,19,Jits_Linear_5,1,1,48,71,1780286968
118,18,19,Jits_Linear_5,2,5,63,98,1780336092
118,18,19,Jits_Linear_5,3,5,56,103,1780365840
118,18,19,Jits_Linear_5,0,5,56,103,1780795764
118,18,19,Jits_Linear_5,1,1,48,60,1780827208
118,18,19,Jits_Linear_5,2,5,80,127,1780856172
118,18,19,Jits_Linear_5,3,5,63,98,1780896040
118,18,19,Jits_Linear_5,0,1,48,75,1781346856
118,18,19,Jits_Linear_5,1,5,56,103,1781376476
118,18,19,Jits_Linear_5,2,5,63,98,1781385624
118,18,19,Jits_Linear_5,3,5,80,127,1781389064
118,18,19,Jits_Linear_5,0,5,80,127,1781855684
118,18,19,Jits_Linear_5,1,1,48,61,1781858456
118,18,19,Jits_Linear_5,2,5,63,98,1781945916
118,18,19,Jits_Linear_5,3,5,56,103,1781956020
118,18,19,Jits_Linear_5,0,5,56,103,1782385960
118,18,19,Jits_Linear_5,1,5,63,98,1782389060
118,18,19,Jits_Linear_5,2,5,80,127,1782392184
118,18,19,Jits_Linear_5,3,1,48,69,1782414504
118,18,19,Jits_Linear_5,0,1,48,64,1782918888
118,18,19,Jits_Linear_5,1,5,80,127,1782936004
118,18,19,Jits_Linear_5,2,5,63,98,1782986208
118,18,19,Jits_Linear_5,3,5,56,103,1783016620
118,18,19,Jits_Linear_5,0,5,56,103,1783445888
118,18,19,Jits_Linear_5,1,5,80,127,1783456308
118,18,19,Jits_Linear_5,2,1,48,57,1783457272
118,18,19,Jits_Linear_5,3,5,63,98,1783525908
118,18,19,Jits_Linear_5,0,5,56,103,1783985448
118,18,19,Jits_Linear_5,1,1,48,81,1784000024
118,18,19,Jits_Linear_5,2,5,63,98,1784005976
118,18,19,Jits_Linear_5,3,5,80,127,1784066440
118,18,19,Jits_Linear_5,0,1,48,68,1784507284
118,18,19,Jits_Linear_5,1,5,80,127,1784515932
118,18,19,Jits_Linear_5,2,5,63,98,1784585692
118,18,19,Jits_Linear_5,3,5,56,103,1784606064
118,18,19,Jits_Linear_5,0,1,48,55,1785055532
118,18,19,Jits_Linear_5,1,5,80,127,1785076008
118,18,19,Jits_Linear_5,2,5,56,103,1785086424
118,18,19,Jits_Linear_5,3,5,63,98,1785095504
118,18,19,Jits_Linear_5,0,1,48,65,1785603628
118,18,19,Jits_Linear_5,1,5,80,127,1785605436
118,18,19,Jits_Linear_5,2,5,56,103,1785625972
118,18,19,Jits_Linear_5,3,5,63,98,1785695804
118,18,19,Jits_Linear_5,0,1,48,79,1786124804
118,18,19,Jits_Linear_5,1,5,56,103,1786156368
118,18,19,Jits_Linear_5,2,5,80,127,1786185972
118,18,19,Jits_Linear_5,3,5,63,98,1786205680
118,18,19,Jits_Linear_5,0,1,48,65,1786665688
118,18,19,Jits_Linear_5,1,5,63,98,1786696056
118,18,19,Jits_Linear_5,2,5,56,103,1786755504
118,18,19,Jits_Linear_5,3,5,80,127,1786786284
118,18,19,Jits_Linear_5,0,1,48,45,1787240240
118,18,19,Jits_Linear_5,1,5,63,98,1787245812
118,18,19,Jits_Linear_5,2,5,80,127,1787249104
118,18,19,Jits_Linear_5,3,5,56,103,1787336008
118,18,19,Jits_Linear_5,0,5,56,103,1787816300
118,18,19,Jits_Linear_5,1,5,63,98,1787846124
118,18,19,Jits_Linear_5,2,1,48,57,1787869472
118,18,19,Jits_Linear_5,3,5,80,127,1787885908
118,18,19,Jits_Linear_5,0,5,63,98,1788366200
118,18,19,Jits_Linear_5,1,5,56,103,1788406068
118,18,19,Jits_Linear_5,2,1,48,84,1788412920
118,18,19,Jits_Linear_5,3,5,80,127,1788425696
118,18,19,Jits_Linear_5,0,5,63,98,1788926276
118,18,19,Jits_Linear_5,1,5,56,103,1788966216
118,18,19,Jits_Linear_5,2,5,80,127,1788975664
118,18,19,Jits_Linear_5,3,1,48,76,1788979232
118,18,19,Jits_Linear_5,0,5,80,127,1789455712
118,18,19,Jits_Linear_5,1,1,48,58,1789495996
118,18,19,Jits_Linear_5,2,5,63,98,1789526288
118,18,19,Jits_Linear_5,3,5,56,103,1789545948
118,18,19,Jits_Linear_5,0,5,56,103,1790005760
118,18,19,Jits_Linear_5,1,5,80,127,1790026148
118,18,19,Jits_Linear_5,2,1,48,65,1790059560
118,18,19,Jits_Linear_5,3,5,63,98,1790066028
118,18,19,Jits_Linear_5,0,5,63,98,1790576060
118,18,19,Jits_Linear_5,1,1,48,73,1790579776
118,18,19,Jits_Linear_5,2,5,80,127,1790595616
118,18,19,Jits_Linear_5,3,5,56,103,1790636304
118,18,19,Jits_Linear_5,0,5,63,98,1791136060
118,18,19,Jits_Linear_5,1,1,48,56,1791143068
118,18,19,Jits_Linear_5,2,5,56,103,1791155764
118,18,19,Jits_Linear_5,3,5,80,127,1791165812
118,18,19,Jits_Linear_5,0,5,80,127,1791696128
118,18,19,Jits_Linear_5,1,1,48,77,1791707112
118,18,19,Jits_Linear_5,2,5,56,103,1791715760
118,18,19,Jits_Linear_5,3,5,63,98,1791746704
118,18,19,Jits_Linear_5,0,1,48,56,1792294400
118,18,19,Jits_Linear_5,1,5,56,103,1792336300
118,18,19,Jits_Linear_5,2,5,80,127,1792339368
118,18,19,Jits_Linear_5,3,5,63,98,1792355888
118,18,19,Jits_Linear_5,0,5,63,98,1792825652
118,18,19,Jits_Linear_5,1,5,56,103,1792856524
118,18,19,Jits_Linear_5,2,1,48,56,1792878100
118,18,19,Jits_Linear_5,3,5,80,127,1792916032
118,18,19,Jits_Linear_5,0,1,48,69,1793401660
118,18,19,Jits_Linear_5,1,5,63,98,1793475876
118,18,19,Jits_Linear_5,2,5,56,103,1793486220
118,18,19,Jits_Linear_5,3,5,80,127,1793496860
118,18,19,Jits_Linear_5,0,1,48,56,1793936948
118,18,19,Jits_Linear_5,1,5,56,103,1793996092
118,18,19,Jits_Linear_5,2,5,80,127,1794025844
118,18,19,Jits_Linear_5,3,5,63,98,1794036172
118,18,19,Jits_Linear_5,0,1,48,45,1794475152
118,18,19,Jits_Linear_5,1,5,63,98,1794605680
118,18,19,Jits_Linear_5,2,5,56,103,1794615876
118,18,19,Jits_Linear_5,3,5,80,127,1794636184
118,18,19,Jits_Linear_5,0,1,48,45,1795079124
118,18,19,Jits_Linear_5,1,5,56,103,1795106132
118,18,19,Jits_Linear_5,2,5,63,98,1795165776
118,18,19,Jits_Linear_5,3,5,80,127,1795169064
118,18,19,Jits_Linear_5,0,1,48,51,1795672724
118,18,19,Jits_Linear_5,1,5,80,127,1795706348
118,18,19,Jits_Linear_5,2,5,56,103,1795715500
118,18,19,Jits_Linear_5,3,5,63,98,1795786064
118,18,19,Jits_Linear_5,0,1,48,55,1796237100
118,18,19,Jits_Linear_5,1,5,80,127,1796275568
118,18,19,Jits_Linear_5,2,5,56,103,1796346208
118,18,19,Jits_Linear_5,3,5,63,98,1796355728
118,18,19,Jits_Linear_5,0,1,48,60,1796876452
118,18,19,Jits_Linear_5,1,5,63,98,1796896104
118,18,19,Jits_Linear_5,2,5,56,103,1796906448
118,18,19,Jits_Linear_5,3,5,80,127,1796925788
118,18,19,Jits_Linear_5,0,5,80,127,1797425692
118,18,19,Jits_Linear_5,1,1,48,78,1797460720
118,18,19,Jits_Linear_5,2,5,63,98,1797485804
118,18,19,Jits_Linear_5,3,5,56,103,1797525744
118,18,19,Jits_Linear_5,0,1,48,65,1798029968
118,18,19,Jits_Linear_5,1,5,56,103,1798056448
118,18,19,Jits_Linear_5,2,5,63,98,1798065524
118,18,19,Jits_Linear_5,3,5,80,127,1798105688
118,18,19,Jits_Linear_5,0,5,56,103,1798606268
118,18,19,Jits_Linear_5,1,1,48,68,1798615388
118,18,19,Jits_Linear_5,2,5,80,127,1798635936
118,18,19,Jits_Linear_5,3,5,63,98,1798685992
118,18,19,Jits_Linear_5,0,1,48,55,1799191040
118,18,19,Jits_Linear_5,1,5,56,103,1799235952
118,18,19,Jits_Linear_5,2,5,63,98,1799275844
118,18,19,Jits_Linear_5,3,5,80,127,1799279280
118,18,19,Jits_Linear_5,0,1,48,52,1799809648
118,18,19,Jits_Linear_5,1,5,56,103,1799825716
118,18,19,Jits_Linear_5,2,5,63,98,1799836136
118,18,19,Jits_Linear_5,3,5,80,127,1799855624
118,18,19,Jits_Linear_5,0,1,48,37,1800352332
118,18,19,Jits_Linear_5,1,5,56,103,1800375744
118,18,19,Jits_Linear_5,2,5,80,127,1800378660
118,18,19,Jits_Linear_5,3,5,63,98,1800415608
118,18,19,Jits_Linear_5,0,1,48,56,1800979376
118,18,19,Jits_Linear_5,1,5,63,98,1801005784
118,18,19,Jits_Linear_5,2,5,56,103,1801036284
118,18,19,Jits_Linear_5,3,5,80,127,1801055772
118,18,19,Jits_Linear_5,0,1,48,57,1801559360
118,18,19,Jits_Linear_5,1,5,80,127,1801575748
118,18,19,Jits_Linear_5,2,5,56,103,1801585944
118,18,19,Jits_Linear_5,3,5,63,98,1801596216
118,18,19,Jits_Linear_5,0,1,48,59,1802103036
118,18,19,Jits_Linear_5,1,5,56,103,1802175824
118,18,19,Jits_Linear_5,2,5,80,127,1802215752
118,18,19,Jits_Linear_5,3,5,63,98,1802245876
118,18,19,Jits_Linear_5,0,1,48,61,1802735500
118,18,19,Jits_Linear_5,1,5,63,98,1802786096
118,18,19,Jits_Linear_5,2,5,80,127,1802796444
118,18,19,Jits_Linear_5,3,5,56,103,1802805592
118,18,19,Jits_Linear_5,0,1,48,60,1803318264
118,18,19,Jits_Linear_5,1,5,56,103,1803365672
118,18,19,Jits_Linear_5,2,5,63,98,1803436388
118,18,19,Jits_Linear_5,3,5,80,127,1803445764
118,18,19,Jits_Linear_5,0,1,48,50,1803938004
118,18,19,Jits_Linear_5,1,5,80,127,1803976168
118,18,19,Jits_Linear_5,2,5,56,103,1803986364
118,18,19,Jits_Linear_5,3,5,63,98,1804035428
118,18,19,Jits_Linear_5,0,1,48,58,1804541592
118,18,19,Jits_Linear_5,1,5,80,127,1804595500
118,18,19,Jits_Linear_5,2,5,56,103,1804655904
118,18,19,Jits_Linear_5,3,5,63,98,1804685656
118,18,19,Jits_Linear_5,0,1,48,79,1805133580
118,18,19,Jits_Linear_5,1,5,56,103,1805205796
118,18,19,Jits_Linear_5,2,5,80,127,1805208864
118,18,19,Jits_Linear_5,3,5,63,98,1805245720
118,18,19,Jits_Linear_5,0,1,48,73,1805761252
118,18,19,Jits_Linear_5,1,5,56,103,1805846024
118,18,19,Jits_Linear_5,2,5,63,98,1805875764
118,18,19,Jits_Linear_5,3,5,80,127,1805885960
118,18,19,Jits_Linear_5,0,1,48,80,1806403364
118,18,19,Jits_Linear_5,1,5,63,98,1806466588
118,18,19,Jits_Linear_5,2,5,80,127,1806475740
118,18,19,Jits_Linear_5,3,5,56,103,1806486008
118,18,19,Jits_Linear_5,0,5,80,127,1807025472
118,18,19,Jits_Linear_5,1,1,48,78,1807045524
118,18,19,Jits_Linear_5,2,5,56,103,1807075740
118,18,19,Jits_Linear_5,3,5,63,98,1807078732
118,18,19,Jits_Linear_5,0,1,48,75,1807664784
118,18,19,Jits_Linear_5,1,5,56,103,1807675820
118,18,19,Jits_Linear_5,2,5,80,127,1807696428
118,18,19,Jits_Linear_5,3,5,63,98,1807705504
118,18,19,Jits_Linear_5,0,5,63,98,1808275932
118,18,19,Jits_Linear_5,1,1,48,72,1808282864
118,18,19,Jits_Linear_5,2,5,56,103,1808305528
118,18,19,Jits_Linear_5,3,5,80,127,1808326208
118,18,19,Jits_Linear_5,0,1,48,70,1808852588
118,18,19,Jits_Linear_5,1,5,56,103,1808905524
118,18,19,Jits_Linear_5,2,5,80,127,1808915796
118,18,19,Jits_Linear_5,3,5,63,98,1808985536
118,18,19,Jits_Linear_5,0,1,48,74,1809503952
118,18,19,Jits_Linear_5,1,5,63,98,1809515960
118,18,19,Jits_Linear_5,2,5,80,127,1809555832
118,18,19,Jits_Linear_5,3,5,56,103,1809595756
118,18,19,Jits_Linear_5,0,1,48,71,1810133392
118,18,19,Jits_Linear_5,1,5,56,103,1810155760
118,18,19,Jits_Linear_5,2,5,63,98,1810166476
118,18,19,Jits_Linear_5,3,5,80,127,1810185592
118,18,19,Jits_Linear_5,0,1,48,74,1810781948
118,18,19,Jits_Linear_5,1,5,63,98,1810825540
118,18,19,Jits_Linear_5,2,5,80,127,1810845928
118,18,19,Jits_Linear_5,3,5,56,103,1810865564
118,18,19,Jits_Linear_5,0,5,56,103,1811395888
118,18,19,Jits_Linear_5,1,1,48,81,1811404260
118,18,19,Jits_Linear_5,2,5,80,127,1811475680
118,18,19,Jits_Linear_5,3,5,63,98,1811486024
118,18,19,Jits_Linear_5,0,1,48,81,1812020968
118,18,19,Jits_Linear_5,1,5,80,127,1812065756
118,18,19,Jits_Linear_5,2,5,63,98,1812075880
118,18,19,Jits_Linear_5,3,5,56,103,1812105556
118,18,19,Jits_Linear_5,0,5,63,98,1812655432
118,18,19,Jits_Linear_5,1,1,48,74,1812668360
118,18,19,Jits_Linear_5,2,5,80,127,1812696412
118,18,19,Jits_Linear_5,3,5,56,103,1812755756
118,18,19,Jits_Linear_5,0,1,48,54,1813285524
118,18,19,Jits_Linear_5,1,5,63,98,1813295364
118,18,19,Jits_Linear_5,2,5,56,103,1813345668
118,18,19,Jits_Linear_5,3,5,80,127,1813376392
118,18,19,Jits_Linear_5,0,1,48,68,1813920308
118,18,19,Jits_Linear_5,1,5,80,127,1813945816
118,18,19,Jits_Linear_5,2,5,63,98,1813956160
118,18,19,Jits_Linear_5,3,5,56,103,1814025532
118,18,19,Jits_Linear_5,0,1,48,64,1814579356
118,18,19,Jits_Linear_5,1,5,80,127,1814656436
118,18,19,Jits_Linear_5,2,5,56,103,1814665580
118,18,19,Jits_Linear_5,3,5,63,98,1814668796
118,18,19,Jits_Linear_5,0,5,56,103,1815235988
118,18,19,Jits_Linear_5,1,5,80,127,1815256300
118,18,19,Jits_Linear_5,2,1,48,83,1815263476
118,18,19,Jits_Linear_5,3,5,63,98,1815265588
118,18,19,Jits_Linear_5,0,5,63,98,1815886204
118,18,19,Jits_Linear_5,1,5,56,103,1815926396
118,18,19,Jits_Linear_5,2,5,80,127,1815945584
118,18,19,Jits_Linear_5,3,1,48,90,1815971324
118,18,19,Jits_Linear_5,0,5,63,98,1816536364
118,18,19,Jits_Linear_5,1,1,48,57,1816576500
118,18,19,Jits_Linear_5,2,5,56,103,1816595700
118,18,19,Jits_Linear_5,3,5,80,127,1816598996
118,18,19,Jits_Linear_5,0,5,56,103,1817145732
118,18,19,Jits_Linear_5,1,5,80,127,1817166340
118,18,19,Jits_Linear_5,2,5,63,98,1817206232
118,18,19,Jits_Linear_5,3,1,48,58,1817236924
118,18,19,Jits_Linear_5,0,5,56,103,1817825644
118,18,19,Jits_Linear_5,1,1,48,63,1817835208
118,18,19,Jits_Linear_5,2,5,63,98,1817846544
118,18,19,Jits_Linear_5,3,5,80,127,1817856444
118,18,19,Jits_Linear_5,0,5,80,127,1818446116
118,18,19,Jits_Linear_5,1,1,48,59,1818457700
118,18,19,Jits_Linear_5,2,5,56,103,1818476180
118,18,19,Jits_Linear_5,3,5,63,98,1818515972
118,18,19,Jits_Linear_5,0,1,48,66,1819095728
118,18,19,Jits_Linear_5,1,5,80,127,1819105716
118,18,19,Jits_Linear_5,2,5,56,103,1819126252
118,18,19,Jits_Linear_5,3,5,63,98,1819185448
118,18,19,Jits_Linear_5,0,1,48,62,1819749396
118,18,19,Jits_Linear_5,1,5,56,103,1819766284
118,18,19,Jits_Linear_5,2,5,80,127,1819785548
118,18,19,Jits_Linear_5,3,5,63,98,1819846088
118,18,19,Jits_Linear_5,0,5,80,127,1820406152
118,18,19,Jits_Linear_5,1,5,56,103,1820416276
118,18,19,Jits_Linear_5,2,5,63,98,1820456288
118,18,19,Jits_Linear_5,3,1,48,60,1820472212
118,18,19,Jits_Linear_5,0,5,63,98,1821065684
118,18,19,Jits_Linear_5,1,5,56,103,1821105624
118,18,19,Jits_Linear_5,2,5,80,127,1821108840
118,18,19,Jits_Linear_5,3,1,48,69,1821109880
118,18,19,Jits_Linear_5,0,5,63,98,1821745472
118,18,19,Jits_Linear_5,1,1,48,61,1821751436
118,18,19,Jits_Linear_5,2,5,80,127,1821785408
118,18,19,Jits_Linear_5,3,5,56,103,1821816304
118,18,19,Jits_Linear_5,0,5,56,103,1822395704
118,18,19,Jits_Linear_5,1,5,63,98,1822406196
118,18,19,Jits_Linear_5,2,1,48,52,1822414944
118,18,19,Jits_Linear_5,3,5,80,127,1822435640
118,18,19,Jits_Linear_5,0,5,80,127,1823056180
118,18,19,Jits_Linear_5,1,1,48,56,1823059296
118,18,19,Jits_Linear_5,2,5,63,98,1823126108
118,18,19,Jits_Linear_5,3,5,56,103,1823136080
118,18,19,Jits_Linear_5,0,5,63,98,1823726052
118,18,19,Jits_Linear_5,1,1,48,49,1823749248
118,18,19,Jits_Linear_5,2,5,56,103,1823795508
118,18,19,Jits_Linear_5,3,5,80,127,1823805852
118,18,19,Jits_Linear_5,0,5,63,98,1824395688
118,18,19,Jits_Linear_5,1,5,56,103,1824415996
118,18,19,Jits_Linear_5,2,1,48,59,1824452000
118,18,19,Jits_Linear_5,3,5,80,127,1824456228
118,18,19,Jits_Linear_5,0,5,56,103,1825075480
118,18,19,Jits_Linear_5,1,5,63,98,1825085676
118,18,19,Jits_Linear_5,2,1,48,52,1825113060
118,18,19,Jits_Linear_5,3,5,80,127,1825165640
118,18,19,Jits_Linear_5,0,5,63,98,1825736284
118,18,19,Jits_Linear_5,1,5,56,103,1825765888
118,18,19,Jits_Linear_5,2,1,48,57,1825782632
118,18,19,Jits_Linear_5,3,5,80,127,1825805672
118,18,19,Jits_Linear_5,0,5,56,103,1826405692
118,18,19,Jits_Linear_5,1,1,48,55,1826413296
118,18,19,Jits_Linear_5,2,5,63,98,1826445704
118,18,19,Jits_Linear_5,3,5,80,127,1826485640
118,18,19,Jits_Linear_5,0,5,80,127,1827085656
118,18,19,Jits_Linear_5,1,1,48,57,1827088320
118,18,19,Jits_Linear_5,2,5,56,103,1827165524
118,18,19,Jits_Linear_5,3,5,63,98,1827176116
118,18,19,Jits_Linear_5,0,1,48,49,1827780964
118,18,19,Jits_Linear_5,1,5,56,103,1827805496
118,18,19,Jits_Linear_5,2,5,63,98,1827808712
118,18,19,Jits_Linear_5,3,5,80,127,1827815988
118,18,19,Jits_Linear_5,0,1,48,50,1828450660
118,18,19,Jits_Linear_5,1,5,56,103,1828506284
118,18,19,Jits_Linear_5,2,5,63,98,1828525324
118,18,19,Jits_Linear_5,3,5,80,127,1828535596
118,18,19,Jits_Linear_5,0,1,48,51,1829110680
118,18,19,Jits_Linear_5,1,5,63,98,1829145932
118,18,19,Jits_Linear_5,2,5,80,127,1829156352
118,18,19,Jits_Linear_5,3,5,56,103,1829175688
118,18,19,Jits_Linear_5,0,1,48,53,1829782932
118,18,19,Jits_Linear_5,1,5,63,98,1829836016
118,18,19,Jits_Linear_5,2,5,56,103,1829916020
118,18,19,Jits_Linear_5,3,5,80,127,1829919160
118,18,19,Jits_Linear_5,0,1,48,46,1830465504
118,18,19,Jits_Linear_5,1,5,63,98,1830526468
118,18,19,Jits_Linear_5,2,5,56,103,1830545732
118,18,19,Jits_Linear_5,3,5,80,127,1830575544
118,18,19,Jits_Linear_5,0,1,48,57,1831164736
118,18,19,Jits_Linear_5,1,5,56,103,1831215560
118,18,19,Jits_Linear_5,2,5,63,98,1831235944
118,18,19,Jits_Linear_5,3,5,80,127,1831246140
118,18,19,Jits_Linear_5,0,1,48,50,1831848276
118,18,19,Jits_Linear_5,1,5,56,103,1831936412
118,18,19,Jits_Linear_5,2,5,63,98,1831965920
118,18,19,Jits_Linear_5,3,5,80,127,1831969216
118,18,19,Jits_Linear_5,0,1,48,51,1832557760
118,18,19,Jits_Linear_5,1,5,56,103,1832576368
118,18,19,Jits_Linear_5,2,5,63,98,1832616236
118,18,19,Jits_Linear_5,3,5,80,127,1832675788
118,18,19,Jits_Linear_5,0,1,48,51,1833244308
118,18,19,Jits_Linear_5,1,5,56,103,1833286136
118,18,19,Jits_Linear_5,2,5,63,98,1833296332
118,18,19,Jits_Linear_5,3,5,80,127,1833355536
118,18,19,Jits_Linear_5,0,1,48,58,1833904944
118,18,19,Jits_Linear_5,1,5,56,103,1833986336
118,18,19,Jits_Linear_5,2,5,80,127,1834006180
118,18,19,Jits_Linear_5,3,5,63,98,1834035708
118,18,19,Jits_Linear_5,0,1,48,53,1834647852
118,18,19,Jits_Linear_5,1,5,80,127,1834686088
118,18,19,Jits_Linear_5,2,5,56,103,1834696060
118,18,19,Jits_Linear_5,3,5,63,98,1834715548
118,18,19,Jits_Linear_5,0,1,48,67,1835353112
118,18,19,Jits_Linear_5,1,5,63,98,1835376024
118,18,19,Jits_Linear_5,2,5,80,127,1835456032
118,18,19,Jits_Linear_5,3,5,56,103,1835466080
118,18,19,Jits_Linear_5,0,1,48,50,1836113552
118,18,19,Jits_Linear_5,1,5,80,127,1836136016
118,18,19,Jits_Linear_5,2,5,56,103,1836156252
118,18,19,Jits_Linear_5,3,5,63,98,1836159316
118,18,19,Jits_Linear_5,0,5,63,98,1836815964
118,18,19,Jits_Linear_5,1,5,80,127,1836819176
118,18,19,Jits_Linear_5,2,1,48,64,1836858716
118,18,19,Jits_Linear_5,3,5,56,103,1836876200
118,18,19,Jits_Linear_5,0,5,56,103,1837506116
118,18,19,Jits_Linear_5,1,5,80,127,1837516312
118,18,19,Jits_Linear_5,2,5,63,98,1837556176
118,18,19,Jits_Linear_5,3,1,48,55,1837607024
118,18,19,Jits_Linear_5,0,5,56,103,1838196068
118,18,19,Jits_Linear_5,1,5,63,98,1838255564
118,18,19,Jits_Linear_5,2,5,80,127,1838266128
118,18,19,Jits_Linear_5,3,1,48,55,1838278388
118,18,19,Jits_Linear_5,0,5,63,98,1838915884
118,18,19,Jits_Linear_5,1,1,48,67,1838946976
118,18,19,Jits_Linear_5,2,5,80,127,1838956140
118,18,19,Jits_Linear_5,3,5,56,103,1838995860
118,18,19,Jits_Linear_5,0,5,56,103,1839625752
118,18,19,Jits_Linear_5,1,1,48,53,1839670676
118,18,19,Jits_Linear_5,2,5,63,98,1839705396
118,18,19,Jits_Linear_5,3,5,80,127,1839708980
118,18,19,Jits_Linear_5,0,1,48,44,1840373796
118,18,19,Jits_Linear_5,1,5,80,127,1840395860
118,18,19,Jits_Linear_5,2,5,56,103,1840426284
118,18,19,Jits_Linear_5,3,5,63,98,1840429348
118,18,19,Jits_Linear_5,0,5,56,103,1841075828
118,18,19,Jits_Linear_5,1,5,80,127,1841095992
118,18,19,Jits_Linear_5,2,1,48,37,1841114404
118,18,19,Jits_Linear_5,3,5,63,98,1841135924
118,18,19,Jits_Linear_5,0,5,80,127,1841776120
118,18,19,Jits_Linear_5,1,5,63,98,1841795384
118,18,19,Jits_Linear_5,2,1,48,51,1841842472
118,18,19,Jits_Linear_5,3,5,56,103,1841855768
118,18,19,Jits_Linear_5,0,5,63,98,1842505976
118,18,19,Jits_Linear_5,1,5,56,103,1842516324
118,18,19,Jits_Linear_5,2,1,48,53,1842521312
118,18,19,Jits_Linear_5,3,5,80,127,1842565644
118,18,19,Jits_Linear_5,0,1,48,78,1843209808
118,18,19,Jits_Linear_5,1,5,56,103,1843215908
118,18,19,Jits_Linear_5,2,5,63,98,1843236220
118,18,19,Jits_Linear_5,3,5,80,127,1843245368
118,18,19,Jits_Linear_5,0,5,56,103,1843935660
118,18,19,Jits_Linear_5,1,1,48,77,1843936568
118,18,19,Jits_Linear_5,2,5,63,98,1843940064
118,18,19,Jits_Linear_5,3,5,80,127,1843956112
118,18,19,Jits_Linear_5,0,1,48,78,1844657184
118,18,19,Jits_Linear_5,1,5,63,98,1844705832
118,18,19,Jits_Linear_5,2,5,56,103,1844736260
118,18,19,Jits_Linear_5,3,5,80,127,1844765996
118,18,19,Jits_Linear_5,4,1,48,25,1845031928
118,18,19,Jits_Linear_5,0,5,80,127,1845395968
118,18,19,Jits_Linear_5,1,5,56,103,1845485880
118,18,19,Jits_Linear_5,2,5,63,98,1845488948
118,18,19,Jits_Linear_5,0,5,56,103,1846125796
118,18,19,Jits_Linear_5,1,5,80,127,1846128792
118,18,19,Jits_Linear_5,2,5,63,98,1846205972
118,18,19,Jits_Linear_5,3,1,48,69,1846210664
118,18,19,Jits_Linear_5,0,5,80,127,1846855948
118,18,19,Jits_Linear_5,1,1,48,70,1846909212
118,18,19,Jits_Linear_5,2,5,63,98,1846915612
118,18,19,Jits_Linear_5,3,5,56,103,1846946108
118,18,19,Jits_Linear_5,0,5,63,98,1847586132
118,18,19,Jits_Linear_5,1,5,80,127,1847596252
118,18,19,Jits_Linear_5,2,1,48,62,1847641844
118,18,19,Jits_Linear_5,3,5,56,103,1847666028
118,18,19,Jits_Linear_5,0,5,56,103,1848335700
118,18,19,Jits_Linear_5,1,1,48,68,1848340164
118,18,19,Jits_Linear_5,2,5,80,127,1848365596
118,18,19,Jits_Linear_5,3,5,63,98,1848415820
118,18,19,Jits_Linear_5,0,1,48,65,1849067196
118,18,19,Jits_Linear_5,1,5,63,98,1849116148
118,18,19,Jits_Linear_5,2,5,56,103,1849145896
118,18,19,Jits_Linear_5,3,5,80,127,1849148816
118,18,19,Jits_Linear_5,0,1,48,66,1849797132
118,18,19,Jits_Linear_5,1,5,63,98,1849856352
118,18,19,Jits_Linear_5,2,5,80,127,1849875692
118,18,19,Jits_Linear_5,3,5,56,103,1849886256
118,18,19,Jits_Linear_5,0,1,48,64,1850553368
118,18,19,Jits_Linear_5,1,5,56,103,1850605924
118,18,19,Jits_Linear_5,2,5,63,98,1850609064
118,18,19,Jits_Linear_5,3,5,80,127,1850626680
118,18,19,Jits_Linear_5,0,1,48,71,1851302928
118,18,19,Jits_Linear_5,1,5,56,103,1851306632
118,18,19,Jits_Linear_5,2,5,63,98,1851315632
118,18,19,Jits_Linear_5,3,5,80,127,1851346504
118,18,19,Jits_Linear_5,0,1,48,68,1852056108
118,18,19,Jits_Linear_5,1,5,63,98,1852076508
118,18,19,Jits_Linear_5,2,5,80,127,1852095924
118,18,19,Jits_Linear_5,3,5,56,103,1852135788
118,18,19,Jits_Linear_5,0,1,48,71,1852803440
118,18,19,Jits_Linear_5,1,5,56,103,1852855828
118,18,19,Jits_Linear_5,2,5,63,98,1852895464
118,18,19,Jits_Linear_5,3,5,80,127,1852898832
118,18,19,Jits_Linear_5,0,5,80,127,1853545988
118,18,19,Jits_Linear_5,1,5,56,103,1853585852
118,18,19,Jits_Linear_5,2,1,48,70,1853605312
118,18,19,Jits_Linear_5,3,5,63,98,1853635900
118,18,19,Jits_Linear_5,0,5,56,103,1854355888
118,18,19,Jits_Linear_5,1,5,80,127,1854366160
118,18,19,Jits_Linear_5,2,1,48,50,1854367124
118,18,19,Jits_Linear_5,3,5,63,98,1854395752
118,18,19,Jits_Linear_5,0,5,56,103,1855056600
118,18,19,Jits_Linear_5,1,1,48,68,1855095368
118,18,19,Jits_Linear_5,2,5,80,127,1855096936
118,18,19,Jits_Linear_5,3,5,63,98,1855146316
118,18,19,Jits_Linear_5,0,5,56,103,1855816528
118,18,19,Jits_Linear_5,1,5,80,127,1855856124
118,18,19,Jits_Linear_5,2,1,48,73,1855876628
118,18,19,Jits_Linear_5,3,5,63,98,1855906020
118,18,19,Jits_Linear_5,0,5,80,127,1856565668
118,18,19,Jits_Linear_5,1,1,48,73,1856606876
118,18,19,Jits_Linear_5,2,5,63,98,1856645564
118,18,19,Jits_Linear_5,3,5,56,103,1856655684
118,18,19,Jits_Linear_5,0,1,48,62,1857372384
118,18,19,Jits_Linear_5,1,5,80,127,1857375588
118,18,19,Jits_Linear_5,2,5,56,103,1857385712
118,18,19,Jits_Linear_5,3,5,63,98,1857406468
118,18,19,Jits_Linear_5,0,5,63,98,1858105664
118,18,19,Jits_Linear_5,1,1,48,73,1858115452
118,18,19,Jits_Linear_5,2,5,56,103,1858176484
118,18,19,Jits_Linear_5,3,5,80,127,1858179404
118,18,19,Jits_Linear_5,0,5,80,127,1858865492
118,18,19,Jits_Linear_5,1,1,48,66,1858877604
118,18,19,Jits_Linear_5,2,5,63,98,1858915788
118,18,19,Jits_Linear_5,3,5,56,103,1858955652
118,18,19,Jits_Linear_5,0,1,48,62,1859633408
118,18,19,Jits_Linear_5,1,5,63,98,1859675608
118,18,19,Jits_Linear_5,2,5,56,103,1859715424
118,18,19,Jits_Linear_5,3,5,80,127,1859726276
118,18,19,Jits_Linear_5,0,1,48,61,1860419836
118,18,19,Jits_Linear_5,1,5,63,98,1860436572
118,18,19,Jits_Linear_5,2,5,56,103,1860455712
118,18,19,Jits_Linear_5,3,5,80,127,1860476472
118,18,19,Jits_Linear_5,0,1,48,65,1861144464
118,18,19,Jits_Linear_5,1,5,80,127,1861175808
118,18,19,Jits_Linear_5,2,5,56,103,1861185932
118,18,19,Jits_Linear_5,3,5,63,98,1861206540
118,18,19,Jits_Linear_5,0,1,48,60,1861959960
118,18,19,Jits_Linear_5,1,5,63,98,1861976472
118,18,19,Jits_Linear_5,2,5,56,103,1862016512
118,18,19,Jits_Linear_5,3,5,80,127,1862046040
118,18,19,Jits_Linear_5,0,1,48,62,1862710660
118,18,19,Jits_Linear_5,1,5,56,103,1862755748
118,18,19,Jits_Linear_5,2,5,63,98,1862786324
118,18,19,Jits_Linear_5,3,5,80,127,1862816056
118,18,19,Jits_Linear_5,0,5,80,127,1863506500
118,18,19,Jits_Linear_5,1,1,48,60,1863519756
118,18,19,Jits_Linear_5,2,5,56,103,1863575904
118,18,19,Jits_Linear_5,3,5,63,98,1863578968
118,18,19,Jits_Linear_5,0,1,48,63,1864275828
118,18,19,Jits_Linear_5,1,5,56,103,1864295736
118,18,19,Jits_Linear_5,2,5,63,98,1864345940
118,18,19,Jits_Linear_5,3,5,80,127,1864376424
118,18,19,Jits_Linear_5,0,1,48,59,1865033876
118,18,19,Jits_Linear_5,1,5,63,98,1865055644
118,18,19,Jits_Linear_5,2,5,80,127,1865058936
118,18,19,Jits_Linear_5,3,5,56,103,1865115964
118,18,19,Jits_Linear_5,0,1,48,56,1865820284
118,18,19,Jits_Linear_5,1,5,56,103,1865865496
118,18,19,Jits_Linear_5,2,5,80,127,1865875692
118,18,19,Jits_Linear_5,3,5,63,98,1865925880
118,18,19,Jits_Linear_5,0,1,48,57,1866578444
118,18,19,Jits_Linear_5,1,5,63,98,1866626304
118,18,19,Jits_Linear_5,2,5,56,103,1866635528
118,18,19,Jits_Linear_5,3,5,80,127,1866666324
118,18,19,Jits_Linear_5,0,1,48,51,1867367372
118,18,19,Jits_Linear_5,1,5,63,98,1867445548
118,18,19,Jits_Linear_5,2,5,80,127,1867449136
118,18,19,Jits_Linear_5,3,5,56,103,1867476404
118,18,19,Jits_Linear_5,0,1,48,58,1868156572
118,18,19,Jits_Linear_5,1,5,63,98,1868255636
118,18,19,Jits_Linear_5,2,5,56,103,1868276316
118,18,19,Jits_Linear_5,3,5,80,127,1868279236
118,18,19,Jits_Linear_5,0,1,48,69,1868973724
118,18,19,Jits_Linear_5,1,5,63,98,1869006188
118,18,19,Jits_Linear_5,2,5,56,103,1869075856
118,18,19,Jits_Linear_5,3,5,80,127,1869096468
118,18,19,Jits_Linear_5,0,5,56,103,1869785436
118,18,19,Jits_Linear_5,1,5,63,98,1869795636
118,18,19,Jits_Linear_5,2,1,48,59,1869807744
118,18,19,Jits_Linear_5,3,5,80,127,1869885688
118,18,19,Jits_Linear_5,0,5,56,103,1870595336
118,18,19,Jits_Linear_5,1,1,48,79,1870596304
118,18,19,Jits_Linear_5,2,5,80,127,1870636392
118,18,19,Jits_Linear_5,3,5,63,98,1870645540
118,18,19,Jits_Linear_5,0,5,56,103,1871415576
118,18,19,Jits_Linear_5,1,5,63,98,1871446300
118,18,19,Jits_Linear_5,2,5,80,127,1871476224
118,18,19,Jits_Linear_5,0,5,80,127,1872175612
118,18,19,Jits_Linear_5,1,1,48,64,1872190336
118,18,19,Jits_Linear_5,2,5,63,98,1872216368
118,18,19,Jits_Linear_5,3,5,56,103,1872236028
118,18,19,Jits_Linear_5,0,1,48,69,1872983980
118,18,19,Jits_Linear_5,1,5,56,103,1873016392
118,18,19,Jits_Linear_5,2,5,80,127,1873035656
118,18,19,Jits_Linear_5,3,5,63,98,1873056040
118,18,19,Jits_Linear_5,0,1,48,64,1873780992
118,18,19,Jits_Linear_5,1,5,63,98,1873786416
118,18,19,Jits_Linear_5,2,5,56,103,1873795344
118,18,19,Jits_Linear_5,3,5,80,127,1873855956
118,18,19,Jits_Linear_5,0,1,48,70,1874585940
118,18,19,Jits_Linear_5,1,5,56,103,1874596376
118,18,19,Jits_Linear_5,2,5,63,98,1874666136
118,18,19,Jits_Linear_5,3,5,80,127,1874686432
118,18,19,Jits_Linear_5,0,1,48,84,1875358424
118,18,19,Jits_Linear_5,1,5,56,103,1875406328
118,18,19,Jits_Linear_5,2,5,63,98,1875436004
118,18,19,Jits_Linear_5,3,5,80,127,1875475704
118,18,19,Jits_Linear_5,0,1,48,86,1876150844
118,18,19,Jits_Linear_5,1,5,63,98,1876206024
118,18,19,Jits_Linear_5,2,5,56,103,1876256064
118,18,19,Jits_Linear_5,3,5,80,127,1876266408
118,18,19,Jits_Linear_5,0,1,48,71,1876965460
118,18,19,Jits_Linear_5,1,5,56,103,1877055840
118,18,19,Jits_Linear_5,2,5,63,98,1877106204
118,18,19,Jits_Linear_5,3,5,80,127,1877116324
118,18,19,Jits_Linear_5,0,1,48,85,1877799240
118,18,19,Jits_Linear_5,1,5,56,103,1877836356
118,18,19,Jits_Linear_5,2,5,63,98,1877846256
118,18,19,Jits_Linear_5,3,5,80,127,1877926136
118,18,19,Jits_Linear_5,0,9999,9999,9999,1769073728
118,18,19,Jits_Linear_5,1,9999,9999,9999,1769554016
118,18,19,Jits_Linear_5,2,9999,9999,9999,1770033276
118,18,19,Jits_Linear_5,3,9999,9999,9999,1770513528
118,18,19,Jits_Linear_5,4,9999,9999,9999,1770993752
118,18,19,Jits_Linear_5,5,9999,9999,9999,1771483260
118,18,19,Jits_Linear_5,6,9999,9999,9999,1771973732
118,18,19,Jits_Linear_5,7,9999,9999,9999,1772463168
118,18,19,Jits_Linear_5,8,9999,9999,9999,1772953656
118,18,19,Jits_Linear_5,9,9999,9999,9999,1773443172
118,18,19,Jits_Linear_5,10,9999,9999,9999,1773943920
118,18,19,Jits_Linear_5,11,9999,9999,9999,1774443620
118,18,19,Jits_Linear_5,12,9999,9999,9999,1774943352
118,18,19,Jits_Linear_5,13,9999,9999,9999,1775444080
118,18,19,Jits_Linear_5,14,9999,9999,9999,1775943768
118,18,19,Jits_Linear_5,15,9999,9999,9999,1776453732
118,18,19,Jits_Linear_5,16,9999,9999,9999,1776963700
118,18,19,Jits_Linear_5,17,9999,9999,9999,1777473648
118,18,19,Jits_Linear_5,18,9999,9999,9999,1777983600
118,18,19,Jits_Linear_5,19,9999,9999,9999,1778493556
118,18,19,Jits_Linear_5,20,9999,9999,9999,1779013700
118,18,19,Jits_Linear_5,21,9999,9999,9999,1779533912
118,18,19,Jits_Linear_5,22,9999,9999,9999,1780054124
118,18,19,Jits_Linear_5,23,9999,9999,9999,1780583524
118,18,19,Jits_Linear_5,24,9999,9999,9999,1781103680
118,18,19,Jits_Linear_5,25,9999,9999,9999,1781633124
118,18,19,Jits_Linear_5,26,9999,9999,9999,1782163528
118,18,19,Jits_Linear_5,27,9999,9999,9999,1782694000
118,18,19,Jits_Linear_5,28,9999,9999,9999,1783223376
118,18,19,Jits_Linear_5,29,9999,9999,9999,1783753852
118,18,19,Jits_Linear_5,30,9999,9999,9999,1784293488
118,18,19,Jits_Linear_5,31,9999,9999,9999,1784833124
118,18,19,Jits_Linear_5,32,9999,9999,9999,1785373788
118,18,19,Jits_Linear_5,33,9999,9999,9999,1785913408
118,18,19,Jits_Linear_5,34,9999,9999,9999,1786454076
118,18,19,Jits_Linear_5,35,9999,9999,9999,1787013196
118,18,19,Jits_Linear_5,36,9999,9999,9999,1787563068
118,18,19,Jits_Linear_5,37,9999,9999,9999,1788114004
118,18,19,Jits_Linear_5,38,9999,9999,9999,1788663904
118,18,19,Jits_Linear_5,39,9999,9999,9999,1789213788
118,18,19,Jits_Linear_5,40,9999,9999,9999,1789773944
118,18,19,Jits_Linear_5,41,9999,9999,9999,1790334052
118,18,19,Jits_Linear_5,42,9999,9999,9999,1790893164
118,18,19,Jits_Linear_5,43,9999,9999,9999,1791453312
118,18,19,Jits_Linear_5,44,9999,9999,9999,1792013384
118,18,19,Jits_Linear_5,45,9999,9999,9999,1792583808
118,18,19,Jits_Linear_5,46,9999,9999,9999,1793153120
118,18,19,Jits_Linear_5,47,9999,9999,9999,1793723464
118,18,19,Jits_Linear_5,48,9999,9999,9999,1794293876
118,18,19,Jits_Linear_5,49,9999,9999,9999,1794863172
118,18,19,Jits_Linear_5,50,9999,9999,9999,1795443836
118,18,19,Jits_Linear_5,51,9999,9999,9999,1796023388
118,18,19,Jits_Linear_5,52,9999,9999,9999,1796603992
118,18,19,Jits_Linear_5,53,9999,9999,9999,1797183548
118,18,19,Jits_Linear_5,54,9999,9999,9999,1797763128
118,18,19,Jits_Linear_5,55,9999,9999,9999,1798354008
118,18,19,Jits_Linear_5,56,9999,9999,9999,1798943824
118,18,19,Jits_Linear_5,57,9999,9999,9999,1799533676
118,18,19,Jits_Linear_5,58,9999,9999,9999,1800123496
118,18,19,Jits_Linear_5,59,9999,9999,9999,1800713300
118,18,19,Jits_Linear_5,60,9999,9999,9999,1801313384
118,18,19,Jits_Linear_5,61,9999,9999,9999,1801913456
118,18,19,Jits_Linear_5,62,9999,9999,9999,1802513464
118,18,19,Jits_Linear_5,63,9999,9999,9999,1803113572
118,18,19,Jits_Linear_5,64,9999,9999,9999,1803713652
118,18,19,Jits_Linear_5,65,9999,9999,9999,1804323916
118,18,19,Jits_Linear_5,66,9999,9999,9999,1804933240
118,18,19,Jits_Linear_5,67,9999,9999,9999,1805543500
118,18,19,Jits_Linear_5,68,9999,9999,9999,1806153848
118,18,19,Jits_Linear_5,69,9999,9999,9999,1806763100
118,18,19,Jits_Linear_5,70,9999,9999,9999,1807383620
118,18,19,Jits_Linear_5,71,9999,9999,9999,1808003144
118,18,19,Jits_Linear_5,72,9999,9999,9999,1808623676
118,18,19,Jits_Linear_5,73,9999,9999,9999,1809243240
118,18,19,Jits_Linear_5,74,9999,9999,9999,1809863792
118,18,19,Jits_Linear_5,75,9999,9999,9999,1810493544
118,18,19,Jits_Linear_5,76,9999,9999,9999,1811123324
118,18,19,Jits_Linear_5,77,9999,9999,9999,1811754048
118,18,19,Jits_Linear_5,78,9999,9999,9999,1812383840
118,18,19,Jits_Linear_5,79,9999,9999,9999,1813013588
118,18,19,Jits_Linear_5,80,9999,9999,9999,1813653628
118,18,19,Jits_Linear_5,81,9999,9999,9999,1814293568
118,18,19,Jits_Linear_5,82,9999,9999,9999,1814933604
118,18,19,Jits_Linear_5,83,9999,9999,9999,1815573616
118,18,19,Jits_Linear_5,84,9999,9999,9999,1816213600
118,18,19,Jits_Linear_5,85,9999,9999,9999,1816863800
118,18,19,Jits_Linear_5,86,9999,9999,9999,1817514104
118,18,19,Jits_Linear_5,87,9999,9999,9999,1818163276
118,18,19,Jits_Linear_5,88,9999,9999,9999,1818813512
118,18,19,Jits_Linear_5,89,9999,9999,9999,1819463804
118,18,19,Jits_Linear_5,90,9999,9999,9999,1820123252
118,18,19,Jits_Linear_5,91,9999,9999,9999,1820783740
118,18,19,Jits_Linear_5,92,9999,9999,9999,1821443164
118,18,19,Jits_Linear_5,93,9999,9999,9999,1822103656
118,18,19,Jits_Linear_5,94,9999,9999,9999,1822763072
118,18,19,Jits_Linear_5,95,9999,9999,9999,1823433840
118,18,19,Jits_Linear_5,96,9999,9999,9999,1824103492
118,18,19,Jits_Linear_5,97,9999,9999,9999,1824773248
118,18,19,Jits_Linear_5,98,9999,9999,9999,1825443928
118,18,19,Jits_Linear_5,99,9999,9999,9999,1826113624
118,18,19,Jits_Linear_5,100,9999,9999,9999,1826793596
118,18,19,Jits_Linear_5,101,9999,9999,9999,1827473508
118,18,19,Jits_Linear_5,102,9999,9999,9999,1828153460
118,18,19,Jits_Linear_5,103,9999,9999,9999,1828833364
118,18,19,Jits_Linear_5,104,9999,9999,9999,1829513332
118,18,19,Jits_Linear_5,105,9999,9999,9999,1830203464
118,18,19,Jits_Linear_5,106,9999,9999,9999,1830893624
118,18,19,Jits_Linear_5,107,9999,9999,9999,1831583832
118,18,19,Jits_Linear_5,108,9999,9999,9999,1832274040
118,18,19,Jits_Linear_5,109,9999,9999,9999,1832963156
118,18,19,Jits_Linear_5,110,9999,9999,9999,1833663580
118,18,19,Jits_Linear_5,111,9999,9999,9999,1834364004
118,18,19,Jits_Linear_5,112,9999,9999,9999,1835063356
118,18,19,Jits_Linear_5,113,9999,9999,9999,1835763784
118,18,19,Jits_Linear_5,114,9999,9999,9999,1836463228
118,18,19,Jits_Linear_5,115,9999,9999,9999,1837173840
118,18,19,Jits_Linear_5,116,9999,9999,9999,1837883452
118,18,19,Jits_Linear_5,117,9999,9999,9999,1838593108
118,18,19,Jits_Linear_5,118,9999,9999,9999,1839303736
118,18,19,Jits_Linear_5,119,9999,9999,9999,1840013372
118,18,19,Jits_Linear_5,120,9999,9999,9999,1840733264
118,18,19,Jits_Linear_5,121,9999,9999,9999,1841453168
118,18,19,Jits_Linear_5,122,9999,9999,9999,1842174056
118,18,19,Jits_Linear_5,123,9999,9999,9999,1842893900
118,18,19,Jits_Linear_5,124,9999,9999,9999,1843613800
118,18,19,Jits_Linear_5,125,9999,9999,9999,1844343876
118,18,19,Jits_Linear_5,126,9999,9999,9999,1845074028
118,18,19,Jits_Linear_5,127,9999,9999,9999,1845803064
118,18,19,Jits_Linear_5,128,9999,9999,9999,1846533244
118,18,19,Jits_Linear_5,129,9999,9999,9999,1847263356
118,18,19,Jits_Linear_5,130,9999,9999,9999,1848003644
118,18,19,Jits_Linear_5,131,9999,9999,9999,1848744004
118,18,19,Jits_Linear_5,132,9999,9999,9999,1849483320
118,18,19,Jits_Linear_5,133,9999,9999,9999,1850223680
118,18,19,Jits_Linear_5,134,9999,9999,9999,1850964076
118,18,19,Jits_Linear_5,135,9999,9999,9999,1851713640
118,18,19,Jits_Linear_5,136,9999,9999,9999,1852463216
118,18,19,Jits_Linear_5,137,9999,9999,9999,1853213760
118,18,19,Jits_Linear_5,138,9999,9999,9999,1853963328
118,18,19,Jits_Linear_5,139,9999,9999,9999,1854713968
118,18,19,Jits_Linear_5,140,9999,9999,9999,1855473748
118,18,19,Jits_Linear_5,141,9999,9999,9999,1856233600
118,18,19,Jits_Linear_5,142,9999,9999,9999,1856993376
118,18,19,Jits_Linear_5,143,9999,9999,9999,1857753156
118,18,19,Jits_Linear_5,144,9999,9999,9999,1858514028
118,18,19,Jits_Linear_5,145,9999,9999,9999,1859284056
118,18,19,Jits_Linear_5,146,9999,9999,9999,1860054100
118,18,19,Jits_Linear_5,147,9999,9999,9999,1860833344
118,18,19,Jits_Linear_5,148,9999,9999,9999,1861603444
118,18,19,Jits_Linear_5,149,9999,9999,9999,1862373472
118,18,19,Jits_Linear_5,150,9999,9999,9999,1863153768
118,18,19,Jits_Linear_5,151,9999,9999,9999,1863934048
118,18,19,Jits_Linear_5,152,9999,9999,9999,1864713312
118,18,19,Jits_Linear_5,153,9999,9999,9999,1865493588
118,18,19,Jits_Linear_5,154,9999,9999,9999,1866273852
118,18,19,Jits_Linear_5,155,9999,9999,9999,1867063352
118,18,19,Jits_Linear_5,156,9999,9999,9999,1867853896
118,18,19,Jits_Linear_5,157,9999,9999,9999,1868643420
118,18,19,Jits_Linear_5,158,9999,9999,9999,1869433976
118,18,19,Jits_Linear_5,159,9999,9999,9999,1870223480
118,18,19,Jits_Linear_5,160,9999,9999,9999,1871023188
118,18,19,Jits_Linear_5,161,9999,9999,9999,1871823972
118,18,19,Jits_Linear_5,162,9999,9999,9999,1872623692
118,18,19,Jits_Linear_5,163,9999,9999,9999,1873423476
118,18,19,Jits_Linear_5,164,9999,9999,9999,1874223168
118,18,19,Jits_Linear_5,165,9999,9999,9999,1875033204
118,18,19,Jits_Linear_5,166,9999,9999,9999,1875843180
118,18,19,Jits_Linear_5,167,9999,9999,9999,1876653140
118,18,19,Jits_Linear_5,168,9999,9999,9999,1877463100
118,18,19,Jits_Linear_5,169,9999,9999,9999,1878273136
118,19,18,Jits_Linear_8,0,5,56,103,1888221640
118,19,18,Jits_Linear_8,1,5,63,98,1888224964
118,19,18,Jits_Linear_8,2,5,80,127,1888228084
118,19,18,Jits_Linear_8,0,5,56,103,1889041800
118,19,18,Jits_Linear_8,1,5,63,98,1889044820
118,19,18,Jits_Linear_8,2,5,80,127,1889048092
118,19,18,Jits_Linear_8,0,5,80,127,1889801512
118,19,18,Jits_Linear_8,1,5,63,98,1889891900
118,19,18,Jits_Linear_8,2,5,56,103,1889901872
118,19,18,Jits_Linear_8,0,5,56,103,1890642148
118,19,18,Jits_Linear_8,1,5,63,98,1890651844
118,19,18,Jits_Linear_8,2,5,80,127,1890741824
118,19,18,Jits_Linear_8,0,1,48,68,1891375896
118,19,18,Jits_Linear_8,1,5,63,98,1891431848
118,19,18,Jits_Linear_8,2,5,80,127,1891461376
118,19,18,Jits_Linear_8,3,5,56,103,1891492156
118,19,18,Jits_Linear_8,0,1,48,72,1892195528
118,19,18,Jits_Linear_8,1,5,56,103,1892251972
118,19,18,Jits_Linear_8,2,5,80,127,1892352360
118,19,18,Jits_Linear_8,3,5,63,98,1892401440
118,19,18,Jits_Linear_8,0,1,48,63,1893030876
118,19,18,Jits_Linear_8,1,5,56,103,1893062068
118,19,18,Jits_Linear_8,2,5,80,127,1893112124
118,19,18,Jits_Linear_8,3,5,63,98,1893151976
118,19,18,Jits_Linear_8,0,1,48,66,1893871764
118,19,18,Jits_Linear_8,1,5,80,127,1893901904
118,19,18,Jits_Linear_8,2,5,63,98,1893932328
118,19,18,Jits_Linear_8,3,5,56,103,1894002020
118,19,18,Jits_Linear_8,0,1,48,64,1894683576
118,19,18,Jits_Linear_8,1,5,63,98,1894742496
118,19,18,Jits_Linear_8,2,5,56,103,1894772124
118,19,18,Jits_Linear_8,3,5,80,127,1894831380
118,19,18,Jits_Linear_8,0,1,48,62,1895488048
118,19,18,Jits_Linear_8,1,5,56,103,1895491904
118,19,18,Jits_Linear_8,2,5,80,127,1895494972
118,19,18,Jits_Linear_8,3,5,63,98,1895611716
118,19,18,Jits_Linear_8,0,1,48,44,1896344016
118,19,18,Jits_Linear_8,1,5,56,103,1896371616
118,19,18,Jits_Linear_8,2,5,80,127,1896411780
118,19,18,Jits_Linear_8,3,5,63,98,1896421680
118,19,18,Jits_Linear_8,0,5,56,103,1897132420
118,19,18,Jits_Linear_8,1,1,48,53,1897149788
118,19,18,Jits_Linear_8,2,5,80,127,1897151752
118,19,18,Jits_Linear_8,3,5,63,98,1897231696
118,19,18,Jits_Linear_8,0,5,80,127,1897921920
118,19,18,Jits_Linear_8,1,1,48,56,1897935304
118,19,18,Jits_Linear_8,2,5,56,103,1898022164
118,19,18,Jits_Linear_8,3,5,63,98,1898031376
118,19,18,Jits_Linear_8,0,5,63,98,1898692100
118,19,18,Jits_Linear_8,1,1,48,59,1898727056
118,19,18,Jits_Linear_8,2,5,80,127,1898752632
118,19,18,Jits_Linear_8,3,5,56,103,1898761708
118,19,18,Jits_Linear_8,0,1,48,62,1899401760
118,19,18,Jits_Linear_8,1,5,56,103,1899491692
118,19,18,Jits_Linear_8,2,5,63,98,1899562332
118,19,18,Jits_Linear_8,3,5,80,127,1899565992
118,19,18,Jits_Linear_8,0,1,48,49,1900227644
118,19,18,Jits_Linear_8,1,5,63,98,1900322152
118,19,18,Jits_Linear_8,2,5,56,103,1900372644
118,19,18,Jits_Linear_8,3,5,80,127,1900375704
118,19,18,Jits_Linear_8,0,1,48,55,1901064780
118,19,18,Jits_Linear_8,1,5,56,103,1901071772
118,19,18,Jits_Linear_8,2,5,80,127,1901074692
118,19,18,Jits_Linear_8,3,5,63,98,1901161768
118,19,18,Jits_Linear_8,0,1,48,57,1901824360
118,19,18,Jits_Linear_8,1,5,63,98,1901902156
118,19,18,Jits_Linear_8,2,5,56,103,1901992600
118,19,18,Jits_Linear_8,3,5,80,127,1902022128
118,19,18,Jits_Linear_8,0,1,48,49,1902644196
118,19,18,Jits_Linear_8,1,5,56,103,1902681536
118,19,18,Jits_Linear_8,2,5,63,98,1902781872
118,19,18,Jits_Linear_8,3,5,80,127,1902811552
118,19,18,Jits_Linear_8,0,5,63,98,1903491520
118,19,18,Jits_Linear_8,1,1,48,54,1903493308
118,19,18,Jits_Linear_8,2,5,56,103,1903501560
118,19,18,Jits_Linear_8,3,5,80,127,1903592724
118,19,18,Jits_Linear_8,0,1,48,54,1904286820
118,19,18,Jits_Linear_8,1,5,63,98,1904292096
118,19,18,Jits_Linear_8,2,5,56,103,1904372040
118,19,18,Jits_Linear_8,3,5,80,127,1904375404
118,19,18,Jits_Linear_8,0,5,80,127,1905031764
118,19,18,Jits_Linear_8,1,1,48,51,1905034136
118,19,18,Jits_Linear_8,2,5,63,98,1905051996
118,19,18,Jits_Linear_8,3,5,56,103,1905112536
118,19,18,Jits_Linear_8,0,1,48,44,1905819572
118,19,18,Jits_Linear_8,1,5,56,103,1905851832
118,19,18,Jits_Linear_8,2,5,63,98,1905872216
118,19,18,Jits_Linear_8,3,5,80,127,1905875576
118,19,18,Jits_Linear_8,0,1,48,46,1906537060
118,19,18,Jits_Linear_8,1,5,63,98,1906571560
118,19,18,Jits_Linear_8,2,5,80,127,1906651568
118,19,18,Jits_Linear_8,3,5,56,103,1906661688
118,19,18,Jits_Linear_8,0,1,48,42,1907364912
118,19,18,Jits_Linear_8,1,5,63,98,1907381572
118,19,18,Jits_Linear_8,2,5,56,103,1907402252
118,19,18,Jits_Linear_8,3,5,80,127,1907452528
118,19,18,Jits_Linear_8,0,5,80,127,1908161848
118,19,18,Jits_Linear_8,1,1,48,48,1908166312
118,19,18,Jits_Linear_8,2,5,63,98,1908201932
118,19,18,Jits_Linear_8,3,5,56,103,1908222464
118,19,18,Jits_Linear_8,0,1,48,43,1908950036
118,19,18,Jits_Linear_8,1,5,56,103,1908971800
118,19,18,Jits_Linear_8,2,5,63,98,1908982072
118,19,18,Jits_Linear_8,3,5,80,127,1909001560
118,19,18,Jits_Linear_8,0,5,56,103,1909672364
118,19,18,Jits_Linear_8,1,1,48,47,1909709784
118,19,18,Jits_Linear_8,2,5,63,98,1909762568
118,19,18,Jits_Linear_8,3,5,80,127,1909821896
118,19,18,Jits_Linear_8,0,5,80,127,1910472136
118,19,18,Jits_Linear_8,1,5,56,103,1910482480
118,19,18,Jits_Linear_8,2,1,48,46,1910531532
118,19,18,Jits_Linear_8,3,5,63,98,1910552004
118,19,18,Jits_Linear_8,0,1,48,49,1911272204
118,19,18,Jits_Linear_8,1,5,63,98,1911273464
118,19,18,Jits_Linear_8,2,5,80,127,1911362036
118,19,18,Jits_Linear_8,3,5,56,103,1911372144
118,19,18,Jits_Linear_8,0,5,63,98,1911972320
118,19,18,Jits_Linear_8,1,5,80,127,1912022600
118,19,18,Jits_Linear_8,2,1,48,49,1912065872
118,19,18,Jits_Linear_8,3,5,56,103,1912081860
118,19,18,Jits_Linear_8,0,5,56,103,1912761736
118,19,18,Jits_Linear_8,1,1,48,47,1912794748
118,19,18,Jits_Linear_8,2,5,80,127,1912812084
118,19,18,Jits_Linear_8,3,5,63,98,1912832540
118,19,18,Jits_Linear_8,0,5,56,103,1913491828
118,19,18,Jits_Linear_8,1,5,80,127,1913552296
118,19,18,Jits_Linear_8,2,1,48,47,1913564632
118,19,18,Jits_Linear_8,3,5,63,98,1913621896
118,19,18,Jits_Linear_8,0,5,56,103,1914251740
118,19,18,Jits_Linear_8,1,5,80,127,1914282460
118,19,18,Jits_Linear_8,2,5,63,98,1914312064
118,19,18,Jits_Linear_8,3,1,48,48,1914386724
118,19,18,Jits_Linear_8,0,5,56,103,1915061836
118,19,18,Jits_Linear_8,1,1,48,46,1915062876
118,19,18,Jits_Linear_8,2,5,80,127,1915082068
118,19,18,Jits_Linear_8,3,5,63,98,1915141488
118,19,18,Jits_Linear_8,0,1,48,49,1915880008
118,19,18,Jits_Linear_8,1,5,80,127,1915902428
118,19,18,Jits_Linear_8,2,5,56,103,1915911504
118,19,18,Jits_Linear_8,3,5,63,98,1915921700
118,19,18,Jits_Linear_8,0,5,56,103,1916611848
118,19,18,Jits_Linear_8,1,5,80,127,1916652008
118,19,18,Jits_Linear_8,2,1,48,49,1916658344
118,19,18,Jits_Linear_8,3,5,63,98,1916681680
118,19,18,Jits_Linear_8,0,5,56,103,1917331904
118,19,18,Jits_Linear_8,1,5,63,98,1917361584
118,19,18,Jits_Linear_8,2,5,80,127,1917401520
118,19,18,Jits_Linear_8,3,1,48,51,1917406216
118,19,18,Jits_Linear_8,0,5,80,127,1918032456
118,19,18,Jits_Linear_8,1,5,63,98,1918082608
118,19,18,Jits_Linear_8,2,5,56,103,1918101800
118,19,18,Jits_Linear_8,3,1,48,49,1918147236
118,19,18,Jits_Linear_8,0,5,56,103,1918811496
118,19,18,Jits_Linear_8,1,1,48,49,1918879636
118,19,18,Jits_Linear_8,2,5,80,127,1918882368
118,19,18,Jits_Linear_8,3,5,63,98,1918941640
118,19,18,Jits_Linear_8,0,5,80,127,1919552056
118,19,18,Jits_Linear_8,1,1,48,50,1919641544
118,19,18,Jits_Linear_8,2,5,63,98,1919643112
118,19,18,Jits_Linear_8,3,5,56,103,1919661552
118,19,18,Jits_Linear_8,0,5,63,98,1920311600
118,19,18,Jits_Linear_8,1,5,56,103,1920332432
118,19,18,Jits_Linear_8,2,5,80,127,1920372248
118,19,18,Jits_Linear_8,3,1,48,50,1920443164
118,19,18,Jits_Linear_8,0,5,80,127,1921012228
118,19,18,Jits_Linear_8,1,5,63,98,1921031420
118,19,18,Jits_Linear_8,2,5,56,103,1921112412
118,19,18,Jits_Linear_8,3,1,48,51,1921183280
118,19,18,Jits_Linear_8,0,5,63,98,1921742396
118,19,18,Jits_Linear_8,1,5,56,103,1921851712
118,19,18,Jits_Linear_8,2,5,80,127,1921854852
118,19,18,Jits_Linear_8,3,1,48,50,1921871096
118,19,18,Jits_Linear_8,0,5,63,98,1922502132
118,19,18,Jits_Linear_8,1,5,56,103,1922512180
118,19,18,Jits_Linear_8,2,5,80,127,1922515244
118,19,18,Jits_Linear_8,3,1,48,50,1922608032
118,19,18,Jits_Linear_8,0,5,56,103,1923221784
118,19,18,Jits_Linear_8,1,1,48,45,1923278092
118,19,18,Jits_Linear_8,2,5,80,127,1923341584
118,19,18,Jits_Linear_8,3,5,63,98,1923381656
118,19,18,Jits_Linear_8,0,5,56,103,1923971436
118,19,18,Jits_Linear_8,1,1,48,49,1924034568
118,19,18,Jits_Linear_8,2,5,80,127,1924052200
118,19,18,Jits_Linear_8,3,5,63,98,1924071760
118,19,18,Jits_Linear_8,0,5,56,103,1924701532
118,19,18,Jits_Linear_8,1,1,48,46,1924773204
118,19,18,Jits_Linear_8,2,5,63,98,1924812112
118,19,18,Jits_Linear_8,3,5,80,127,1924815400
118,19,18,Jits_Linear_8,0,5,56,103,1925462312
118,19,18,Jits_Linear_8,1,5,80,127,1925492088
118,19,18,Jits_Linear_8,2,5,63,98,1925511500
118,19,18,Jits_Linear_8,3,1,48,41,1925549240
118,19,18,Jits_Linear_8,0,5,63,98,1926182216
118,19,18,Jits_Linear_8,1,5,56,103,1926191440
118,19,18,Jits_Linear_8,2,5,80,127,1926201860
118,19,18,Jits_Linear_8,3,1,48,43,1926247700
118,19,18,Jits_Linear_8,0,5,80,127,1926891836
118,19,18,Jits_Linear_8,1,5,56,103,1926942188
118,19,18,Jits_Linear_8,2,1,48,43,1926951828
118,19,18,Jits_Linear_8,3,5,63,98,1926982272
118,19,18,Jits_Linear_8,0,5,80,127,1927632192
118,19,18,Jits_Linear_8,1,5,63,98,1927651828
118,19,18,Jits_Linear_8,2,1,48,51,1927673528
118,19,18,Jits_Linear_8,3,5,56,103,1927701948
118,19,18,Jits_Linear_8,0,5,80,127,1928362360
118,19,18,Jits_Linear_8,1,5,56,103,1928392184
118,19,18,Jits_Linear_8,2,1,48,47,1928422276
118,19,18,Jits_Linear_8,3,5,63,98,1928461784
118,19,18,Jits_Linear_8,0,5,56,103,1929132392
118,19,18,Jits_Linear_8,1,5,80,127,1929141468
118,19,18,Jits_Linear_8,2,1,48,47,1929148248
118,19,18,Jits_Linear_8,3,5,63,98,1929181548
118,19,18,Jits_Linear_8,0,5,56,103,1929762144
118,19,18,Jits_Linear_8,1,5,63,98,1929781560
118,19,18,Jits_Linear_8,2,5,80,127,1929852236
118,19,18,Jits_Linear_8,3,1,48,44,1929889132
118,19,18,Jits_Linear_8,0,1,48,49,1930493252
118,19,18,Jits_Linear_8,1,5,63,98,1930501444
118,19,18,Jits_Linear_8,2,5,80,127,1930561984
118,19,18,Jits_Linear_8,3,5,56,103,1930582296
118,19,18,Jits_Linear_8,0,5,80,127,1931201936
118,19,18,Jits_Linear_8,1,1,48,49,1931207520
118,19,18,Jits_Linear_8,2,5,56,103,1931231680
118,19,18,Jits_Linear_8,3,5,63,98,1931262256
118,19,18,Jits_Linear_8,0,1,48,50,1931905100
118,19,18,Jits_Linear_8,1,5,56,103,1931911644
118,19,18,Jits_Linear_8,2,5,63,98,1931972112
118,19,18,Jits_Linear_8,3,5,80,127,1932032488
118,19,18,Jits_Linear_8,0,1,48,53,1932611640
118,19,18,Jits_Linear_8,1,5,80,127,1932641504
118,19,18,Jits_Linear_8,2,5,56,103,1932662260
118,19,18,Jits_Linear_8,3,5,63,98,1932731628
118,19,18,Jits_Linear_8,0,5,80,127,1933352384
118,19,18,Jits_Linear_8,1,5,63,98,1933371796
118,19,18,Jits_Linear_8,2,1,48,51,1933375288
118,19,18,Jits_Linear_8,3,5,56,103,1933401340
118,19,18,Jits_Linear_8,0,5,80,127,1934041420
118,19,18,Jits_Linear_8,1,1,48,56,1934054580
118,19,18,Jits_Linear_8,2,5,63,98,1934061872
118,19,18,Jits_Linear_8,3,5,56,103,1934122412
118,19,18,Jits_Linear_8,0,1,48,54,1934714388
118,19,18,Jits_Linear_8,1,5,80,127,1934742132
118,19,18,Jits_Linear_8,2,5,56,103,1934842220
118,19,18,Jits_Linear_8,3,5,63,98,1934872044
118,19,18,Jits_Linear_8,0,5,63,98,1935432192
118,19,18,Jits_Linear_8,1,1,48,52,1935444008
118,19,18,Jits_Linear_8,2,5,80,127,1935482192
118,19,18,Jits_Linear_8,3,5,56,103,1935501828
118,19,18,Jits_Linear_8,0,1,48,54,1936125976
118,19,18,Jits_Linear_8,1,5,80,127,1936172384
118,19,18,Jits_Linear_8,2,5,56,103,1936202056
118,19,18,Jits_Linear_8,3,5,63,98,1936205200
118,19,18,Jits_Linear_8,0,1,48,51,1936864444
118,19,18,Jits_Linear_8,1,5,63,98,1936901632
118,19,18,Jits_Linear_8,2,5,56,103,1936941496
118,19,18,Jits_Linear_8,3,5,80,127,1936961940
118,19,18,Jits_Linear_8,0,5,80,127,1937541444
118,19,18,Jits_Linear_8,1,1,48,51,1937619476
118,19,18,Jits_Linear_8,2,5,63,98,1937622284
118,19,18,Jits_Linear_8,3,5,56,103,1937662372
118,19,18,Jits_Linear_8,0,5,63,98,1938252112
118,19,18,Jits_Linear_8,1,5,80,127,1938332088
118,19,18,Jits_Linear_8,2,1,48,54,1938348536
118,19,18,Jits_Linear_8,3,5,56,103,1938351416
118,19,18,Jits_Linear_8,0,5,56,103,1938982204
118,19,18,Jits_Linear_8,1,1,48,48,1938991872
118,19,18,Jits_Linear_8,2,5,63,98,1938993136
118,19,18,Jits_Linear_8,3,5,80,127,1939032404
118,19,18,Jits_Linear_8,0,5,56,103,1939591500
118,19,18,Jits_Linear_8,1,5,80,127,1939594496
118,19,18,Jits_Linear_8,2,1,48,44,1939656948
118,19,18,Jits_Linear_8,3,5,63,98,1939732120
118,19,18,Jits_Linear_8,0,5,56,103,1940271664
118,19,18,Jits_Linear_8,1,1,48,46,1940343140
118,19,18,Jits_Linear_8,2,5,63,98,1940361520
118,19,18,Jits_Linear_8,3,5,80,127,1940432248
118,19,18,Jits_Linear_8,0,1,48,44,1940952584
118,19,18,Jits_Linear_8,1,5,63,98,1941032324
118,19,18,Jits_Linear_8,2,5,80,127,1941035764
118,19,18,Jits_Linear_8,3,5,56,103,1941091752
118,19,18,Jits_Linear_8,0,1,48,43,1941635752
118,19,18,Jits_Linear_8,1,5,80,127,1941752128
118,19,18,Jits_Linear_8,2,5,56,103,1941771764
118,19,18,Jits_Linear_8,3,5,63,98,1941781960
118,19,18,Jits_Linear_8,0,5,56,103,1942341956
118,19,18,Jits_Linear_8,1,5,63,98,1942352152
118,19,18,Jits_Linear_8,2,1,48,47,1942411344
118,19,18,Jits_Linear_8,3,5,80,127,1942421852
118,19,18,Jits_Linear_8,0,5,80,127,1943021852
118,19,18,Jits_Linear_8,1,1,48,40,1943058976
118,19,18,Jits_Linear_8,2,5,56,103,1943071976
118,19,18,Jits_Linear_8,3,5,63,98,1943122252
118,19,18,Jits_Linear_8,0,1,48,42,1943723152
118,19,18,Jits_Linear_8,1,5,56,103,1943781840
118,19,18,Jits_Linear_8,2,5,63,98,1943791888
118,19,18,Jits_Linear_8,3,5,80,127,1943831888
118,19,18,Jits_Linear_8,0,5,56,103,1944402300
118,19,18,Jits_Linear_8,1,1,48,43,1944410844
118,19,18,Jits_Linear_8,2,5,63,98,1944442108
118,19,18,Jits_Linear_8,3,5,80,127,1944492384
118,19,18,Jits_Linear_8,0,5,80,127,1945032076
118,19,18,Jits_Linear_8,1,5,56,103,1945082132
118,19,18,Jits_Linear_8,2,1,48,40,1945091180
118,19,18,Jits_Linear_8,3,5,63,98,1945101764
118,19,18,Jits_Linear_8,0,5,80,127,1945711896
118,19,18,Jits_Linear_8,1,1,48,43,1945745732
118,19,18,Jits_Linear_8,2,5,63,98,1945772356
118,19,18,Jits_Linear_8,3,5,56,103,1945852212
118,19,18,Jits_Linear_8,0,5,80,127,1946371316
118,19,18,Jits_Linear_8,1,5,56,103,1946412452
118,19,18,Jits_Linear_8,2,1,48,41,1946427480
118,19,18,Jits_Linear_8,3,5,63,98,1946432008
118,19,18,Jits_Linear_8,0,1,48,41,1947081444
118,19,18,Jits_Linear_8,1,5,56,103,1947092332
118,19,18,Jits_Linear_8,2,5,80,127,1947101708
118,19,18,Jits_Linear_8,3,5,63,98,1947141644
118,19,18,Jits_Linear_8,0,1,48,35,1947758920
118,19,18,Jits_Linear_8,1,5,56,103,1947821444
118,19,18,Jits_Linear_8,2,5,63,98,1947862340
118,19,18,Jits_Linear_8,3,5,80,127,1947865780
118,19,18,Jits_Linear_8,0,5,63,98,1948372288
118,19,18,Jits_Linear_8,1,5,80,127,1948412228
118,19,18,Jits_Linear_8,2,1,48,38,1948473936
118,19,18,Jits_Linear_8,3,5,56,103,1948481904
118,19,18,Jits_Linear_8,0,5,63,98,1949021604
118,19,18,Jits_Linear_8,1,5,56,103,1949101404
118,19,18,Jits_Linear_8,2,1,48,31,1949116728
118,19,18,Jits_Linear_8,3,5,80,127,1949161712
118,19,18,Jits_Linear_8,0,5,80,127,1949692320
118,19,18,Jits_Linear_8,1,5,63,98,1949741408
118,19,18,Jits_Linear_8,2,1,48,33,1949751424
118,19,18,Jits_Linear_8,3,5,56,103,1949772120
118,19,18,Jits_Linear_8,0,5,56,103,1950341580
118,19,18,Jits_Linear_8,1,1,48,39,1950392156
118,19,18,Jits_Linear_8,2,5,63,98,1950393268
118,19,18,Jits_Linear_8,3,5,80,127,1950401896
118,19,18,Jits_Linear_8,0,5,56,103,1951012084
118,19,18,Jits_Linear_8,1,1,48,43,1951041132
118,19,18,Jits_Linear_8,2,5,63,98,1951121644
118,19,18,Jits_Linear_8,3,5,80,127,1951142236
118,19,18,Jits_Linear_8,0,5,63,98,1951661416
118,19,18,Jits_Linear_8,1,5,80,127,1951711696
118,19,18,Jits_Linear_8,2,1,48,40,1951770556
118,19,18,Jits_Linear_8,3,5,56,103,1951801672
118,19,18,Jits_Linear_8,0,5,63,98,1952301492
118,19,18,Jits_Linear_8,1,5,80,127,1952332068
118,19,18,Jits_Linear_8,2,1,48,38,1952418808
118,19,18,Jits_Linear_8,3,5,56,103,1952422216
118,19,18,Jits_Linear_8,0,5,63,98,1952951780
118,19,18,Jits_Linear_8,1,5,56,103,1952961900
118,19,18,Jits_Linear_8,2,1,48,31,1952991020
118,19,18,Jits_Linear_8,3,5,80,127,1953062216
118,19,18,Jits_Linear_8,0,1,48,13,1953631412
118,19,18,Jits_Linear_8,1,1,48,27,1953635948
118,19,18,Jits_Linear_8,2,5,63,98,1953702436
118,19,18,Jits_Linear_8,3,5,80,127,1953731888
118,19,18,Jits_Linear_8,4,5,56,103,1953761772
118,19,18,Jits_Linear_8,0,5,80,127,1954361780
118,19,18,Jits_Linear_8,1,5,63,98,1954371976
118,19,18,Jits_Linear_8,2,1,48,32,1954377264
118,19,18,Jits_Linear_8,3,5,56,103,1954401596
118,19,18,Jits_Linear_8,0,5,80,127,1954902520
118,19,18,Jits_Linear_8,1,5,63,98,1954921884
118,19,18,Jits_Linear_8,2,5,56,103,1954972012
118,19,18,Jits_Linear_8,3,1,48,30,1955058500
118,19,18,Jits_Linear_8,0,5,63,98,1955572228
118,19,18,Jits_Linear_8,1,1,48,35,1955612216
118,19,18,Jits_Linear_8,2,5,80,127,1955631716
118,19,18,Jits_Linear_8,3,5,56,103,1955652028
118,19,18,Jits_Linear_8,0,5,63,98,1956172072
118,19,18,Jits_Linear_8,1,1,48,48,1956207876
118,19,18,Jits_Linear_8,2,5,56,103,1956222592
118,19,18,Jits_Linear_8,3,5,80,127,1956231668
118,19,18,Jits_Linear_8,0,1,48,50,1956791760
118,19,18,Jits_Linear_8,1,5,56,103,1956841832
118,19,18,Jits_Linear_8,2,5,80,127,1956852028
118,19,18,Jits_Linear_8,3,5,63,98,1956952508
118,19,18,Jits_Linear_8,0,5,80,127,1957441900
118,19,18,Jits_Linear_8,1,5,63,98,1957452096
118,19,18,Jits_Linear_8,2,1,48,54,1957507680
118,19,18,Jits_Linear_8,3,5,56,103,1957602092
118,19,18,Jits_Linear_8,0,5,63,98,1958082016
118,19,18,Jits_Linear_8,1,5,80,127,1958121960
118,19,18,Jits_Linear_8,2,1,48,51,1958168076
118,19,18,Jits_Linear_8,3,5,56,103,1958201676
118,19,18,Jits_Linear_8,0,5,56,103,1958701716
118,19,18,Jits_Linear_8,1,5,80,127,1958801696
118,19,18,Jits_Linear_8,2,5,63,98,1958822376
118,19,18,Jits_Linear_8,3,1,48,50,1958835536
118,19,18,Jits_Linear_8,0,5,80,127,1959391660
118,19,18,Jits_Linear_8,1,5,56,103,1959401932
118,19,18,Jits_Linear_8,2,1,48,54,1959476968
118,19,18,Jits_Linear_8,3,5,63,98,1959491836
118,19,18,Jits_Linear_8,0,5,56,103,1960022468
118,19,18,Jits_Linear_8,1,5,63,98,1960041904
118,19,18,Jits_Linear_8,2,1,48,53,1960104512
118,19,18,Jits_Linear_8,3,5,80,127,1960121696
118,19,18,Jits_Linear_8,0,5,63,98,1960591864
118,19,18,Jits_Linear_8,1,5,56,103,1960681848
118,19,18,Jits_Linear_8,2,5,80,127,1960684916
118,19,18,Jits_Linear_8,3,1,48,52,1960699944
118,19,18,Jits_Linear_8,0,5,56,103,1961242044
118,19,18,Jits_Linear_8,1,5,80,127,1961302588
118,19,18,Jits_Linear_8,2,1,48,51,1961305056
118,19,18,Jits_Linear_8,3,5,63,98,1961311680
118,19,18,Jits_Linear_8,0,1,48,56,1961885644
118,19,18,Jits_Linear_8,1,5,80,127,1961911600
118,19,18,Jits_Linear_8,2,5,56,103,1961921944
118,19,18,Jits_Linear_8,3,5,63,98,1961925084
118,19,18,Jits_Linear_8,0,5,56,103,1962492560
118,19,18,Jits_Linear_8,1,5,80,127,1962501488
118,19,18,Jits_Linear_8,2,5,63,98,1962521944
118,19,18,Jits_Linear_8,3,1,48,51,1962524992
118,19,18,Jits_Linear_8,0,5,63,98,1963082148
118,19,18,Jits_Linear_8,1,1,48,51,1963138108
118,19,18,Jits_Linear_8,2,5,80,127,1963141664
118,19,18,Jits_Linear_8,3,5,56,103,1963191716
118,19,18,Jits_Linear_8,0,1,48,52,1963751296
118,19,18,Jits_Linear_8,1,5,63,98,1963781592
118,19,18,Jits_Linear_8,2,5,56,103,1963791712
118,19,18,Jits_Linear_8,3,5,80,127,1963841764
118,19,18,Jits_Linear_8,0,5,63,98,1964291392
118,19,18,Jits_Linear_8,1,5,80,127,1964311780
118,19,18,Jits_Linear_8,2,5,56,103,1964322344
118,19,18,Jits_Linear_8,3,1,48,56,1964407820
118,19,18,Jits_Linear_8,0,1,48,50,1964876132
118,19,18,Jits_Linear_8,1,5,63,98,1964901732
118,19,18,Jits_Linear_8,2,5,80,127,1964905172
118,19,18,Jits_Linear_8,3,5,56,103,1964941596
118,19,18,Jits_Linear_8,0,1,48,51,1965451492
118,19,18,Jits_Linear_8,1,5,63,98,1965581644
118,19,18,Jits_Linear_8,2,5,80,127,1965612592
118,19,18,Jits_Linear_8,3,5,56,103,1965621668
118,19,18,Jits_Linear_8,0,5,56,103,1966141880
118,19,18,Jits_Linear_8,1,5,80,127,1966171432
118,19,18,Jits_Linear_8,2,5,63,98,1966202304
118,19,18,Jits_Linear_8,3,1,48,47,1966239204
118,19,18,Jits_Linear_8,0,1,48,48,1966785252
118,19,18,Jits_Linear_8,1,5,63,98,1966842372
118,19,18,Jits_Linear_8,2,5,56,103,1966882752
118,19,18,Jits_Linear_8,3,5,80,127,1966885736
118,19,18,Jits_Linear_8,0,5,80,127,1967342128
118,19,18,Jits_Linear_8,1,5,56,103,1967421776
118,19,18,Jits_Linear_8,2,1,48,51,1967446764
118,19,18,Jits_Linear_8,3,5,63,98,1967472120
118,19,18,Jits_Linear_8,0,5,80,127,1967921504
118,19,18,Jits_Linear_8,1,5,56,103,1967942264
118,19,18,Jits_Linear_8,2,5,63,98,1968032048
118,19,18,Jits_Linear_8,3,1,48,49,1968067972
118,19,18,Jits_Linear_8,0,5,80,127,1968561620
118,19,18,Jits_Linear_8,1,1,48,50,1968600356
118,19,18,Jits_Linear_8,2,5,63,98,1968601928
118,19,18,Jits_Linear_8,3,5,56,103,1968642392
118,19,18,Jits_Linear_8,0,5,63,98,1969131960
118,19,18,Jits_Linear_8,1,1,48,47,1969188492
118,19,18,Jits_Linear_8,2,5,80,127,1969192424
118,19,18,Jits_Linear_8,3,5,56,103,1969222100
118,19,18,Jits_Linear_8,0,5,56,103,1969731884
118,19,18,Jits_Linear_8,1,1,48,46,1969755332
118,19,18,Jits_Linear_8,2,5,80,127,1969761576
118,19,18,Jits_Linear_8,3,5,63,98,1969851768
118,19,18,Jits_Linear_8,0,5,56,103,1970331992
118,19,18,Jits_Linear_8,1,1,48,49,1970390260
118,19,18,Jits_Linear_8,2,5,80,127,1970441452
118,19,18,Jits_Linear_8,3,5,63,98,1970472396
118,19,18,Jits_Linear_8,0,5,56,103,1970972164
118,19,18,Jits_Linear_8,1,1,48,49,1970998432
118,19,18,Jits_Linear_8,2,5,63,98,1971032428
118,19,18,Jits_Linear_8,3,5,80,127,1971062328
118,19,18,Jits_Linear_8,0,5,56,103,1971532176
118,19,18,Jits_Linear_8,1,5,63,98,1971601736
118,19,18,Jits_Linear_8,2,1,48,48,1971603676
118,19,18,Jits_Linear_8,3,5,80,127,1971622412
118,19,18,Jits_Linear_8,0,5,80,127,1972092280
118,19,18,Jits_Linear_8,1,5,63,98,1972111768
118,19,18,Jits_Linear_8,2,5,56,103,1972161968
118,19,18,Jits_Linear_8,3,1,48,49,1972180304
118,19,18,Jits_Linear_8,0,5,63,98,1972692508
118,19,18,Jits_Linear_8,1,5,80,127,1972701436
118,19,18,Jits_Linear_8,2,1,48,48,1972730852
118,19,18,Jits_Linear_8,3,5,56,103,1972751704
118,19,18,Jits_Linear_8,0,5,63,98,1973272120
118,19,18,Jits_Linear_8,1,1,48,50,1973284608
118,19,18,Jits_Linear_8,2,5,80,127,1973341524
118,19,18,Jits_Linear_8,3,5,56,103,1973362208
118,19,18,Jits_Linear_8,0,1,48,51,1973871668
118,19,18,Jits_Linear_8,1,5,63,98,1973882324
118,19,18,Jits_Linear_8,2,5,80,127,1973885540
118,19,18,Jits_Linear_8,3,5,56,103,1973951780
118,19,18,Jits_Linear_8,0,5,80,127,1974411596
118,19,18,Jits_Linear_8,1,5,56,103,1974432204
118,19,18,Jits_Linear_8,2,5,63,98,1974442624
118,19,18,Jits_Linear_8,3,1,48,49,1974467540
118,19,18,Jits_Linear_8,0,1,48,46,1974987884
118,19,18,Jits_Linear_8,1,5,56,103,1975011668
118,19,18,Jits_Linear_8,2,5,63,98,1975101788
118,19,18,Jits_Linear_8,3,5,80,127,1975105076
118,19,18,Jits_Linear_8,0,5,80,127,1975561464
118,19,18,Jits_Linear_8,1,5,56,103,1975571960
118,19,18,Jits_Linear_8,2,5,63,98,1975592268
118,19,18,Jits_Linear_8,3,1,48,44,1975629916
118,19,18,Jits_Linear_8,0,5,63,98,1976132244
118,19,18,Jits_Linear_8,1,1,48,47,1976169096
118,19,18,Jits_Linear_8,2,5,80,127,1976192360
118,19,18,Jits_Linear_8,3,5,56,103,1976201584
118,19,18,Jits_Linear_8,0,5,63,98,1976772196
118,19,18,Jits_Linear_8,1,1,48,53,1976791880
118,19,18,Jits_Linear_8,2,5,80,127,1976801644
118,19,18,Jits_Linear_8,3,5,56,103,1976841508
118,19,18,Jits_Linear_8,0,5,56,103,1977332336
118,19,18,Jits_Linear_8,1,5,80,127,1977342384
118,19,18,Jits_Linear_8,2,1,48,50,1977379580
118,19,18,Jits_Linear_8,3,5,63,98,1977382240
118,19,18,Jits_Linear_8,0,5,80,127,1977861624
118,19,18,Jits_Linear_8,1,5,56,103,1977942320
118,19,18,Jits_Linear_8,2,5,63,98,1977951544
118,19,18,Jits_Linear_8,3,1,48,51,1977995564
118,19,18,Jits_Linear_8,0,5,80,127,1978471752
118,19,18,Jits_Linear_8,1,1,48,50,1978548056
118,19,18,Jits_Linear_8,2,5,56,103,1978551616
118,19,18,Jits_Linear_8,3,5,63,98,1978562108
118,19,18,Jits_Linear_8,0,5,80,127,1978992048
118,19,18,Jits_Linear_8,1,5,56,103,1979042104
118,19,18,Jits_Linear_8,2,5,63,98,1979092228
118,19,18,Jits_Linear_8,3,1,48,48,1979130636
118,19,18,Jits_Linear_8,0,5,56,103,1979611464
118,19,18,Jits_Linear_8,1,5,63,98,1979614532
118,19,18,Jits_Linear_8,2,5,80,127,1979661668
118,19,18,Jits_Linear_8,3,1,48,45,1979686728
118,19,18,Jits_Linear_8,0,5,56,103,1980192292
118,19,18,Jits_Linear_8,1,1,48,44,1980215416
118,19,18,Jits_Linear_8,2,5,63,98,1980221740
118,19,18,Jits_Linear_8,3,5,80,127,1980232156
118,19,18,Jits_Linear_8,0,5,63,98,1980662168
118,19,18,Jits_Linear_8,1,5,56,103,1980731704
118,19,18,Jits_Linear_8,2,5,80,127,1980782152
118,19,18,Jits_Linear_8,3,1,48,46,1980810304
118,19,18,Jits_Linear_8,0,5,63,98,1981252052
118,19,18,Jits_Linear_8,1,5,56,103,1981262248
118,19,18,Jits_Linear_8,2,5,80,127,1981265164
118,19,18,Jits_Linear_8,3,1,48,44,1981326968
118,19,18,Jits_Linear_8,0,5,80,127,1981751644
118,19,18,Jits_Linear_8,1,5,56,103,1981812060
118,19,18,Jits_Linear_8,2,1,48,44,1981843876
118,19,18,Jits_Linear_8,3,5,63,98,1981902184
118,19,18,Jits_Linear_8,0,5,80,127,1982301484
118,19,18,Jits_Linear_8,1,5,56,103,1982402180
118,19,18,Jits_Linear_8,2,1,48,43,1982420052
118,19,18,Jits_Linear_8,3,5,63,98,1982442036
118,19,18,Jits_Linear_8,0,5,56,103,1982901496
118,19,18,Jits_Linear_8,1,5,63,98,1982922032
118,19,18,Jits_Linear_8,2,5,80,127,1982962192
118,19,18,Jits_Linear_8,3,1,48,39,1982990348
118,19,18,Jits_Linear_8,0,5,63,98,1983421792
118,19,18,Jits_Linear_8,1,5,56,103,1983442400
118,19,18,Jits_Linear_8,2,1,48,44,1983500744
118,19,18,Jits_Linear_8,3,5,80,127,1983541744
118,19,18,Jits_Linear_8,0,5,63,98,1983952264
118,19,18,Jits_Linear_8,1,1,48,42,1984006624
118,19,18,Jits_Linear_8,2,5,80,127,1984061872
118,19,18,Jits_Linear_8,3,5,56,103,1984091500
118,19,18,Jits_Linear_8,0,5,56,103,1984512256
118,19,18,Jits_Linear_8,1,5,63,98,1984542156
118,19,18,Jits_Linear_8,2,1,48,44,1984560116
118,19,18,Jits_Linear_8,3,5,80,127,1984592352
118,19,18,Jits_Linear_8,0,5,63,98,1985022208
118,19,18,Jits_Linear_8,1,5,56,103,1985052036
118,19,18,Jits_Linear_8,2,1,48,41,1985080632
118,19,18,Jits_Linear_8,3,5,80,127,1985102156
118,19,18,Jits_Linear_8,0,1,48,40,1985571600
118,19,18,Jits_Linear_8,1,5,56,103,1985591856
118,19,18,Jits_Linear_8,2,5,63,98,1985612092
118,19,18,Jits_Linear_8,3,5,80,127,1985692048
118,19,18,Jits_Linear_8,0,5,63,98,1986101504
118,19,18,Jits_Linear_8,1,1,48,44,1986120964
118,19,18,Jits_Linear_8,2,5,56,103,1986162064
118,19,18,Jits_Linear_8,3,5,80,127,1986191740
118,19,18,Jits_Linear_8,0,1,48,46,1986672048
118,19,18,Jits_Linear_8,1,5,56,103,1986682260
118,19,18,Jits_Linear_8,2,5,80,127,1986741756
118,19,18,Jits_Linear_8,3,5,63,98,1986781900
118,19,18,Jits_Linear_8,0,5,63,98,1987192136
118,19,18,Jits_Linear_8,1,5,56,103,1987251484
118,19,18,Jits_Linear_8,2,1,48,46,1987258716
118,19,18,Jits_Linear_8,3,5,80,127,1987322204
118,19,18,Jits_Linear_8,0,1,48,44,1987782892
118,19,18,Jits_Linear_8,1,5,56,103,1987801576
118,19,18,Jits_Linear_8,2,5,63,98,1987811540
118,19,18,Jits_Linear_8,3,5,80,127,1987815060
118,19,18,Jits_Linear_8,0,5,63,98,1988271584
118,19,18,Jits_Linear_8,1,5,56,103,1988332048
118,19,18,Jits_Linear_8,2,5,80,127,1988335116
118,19,18,Jits_Linear_8,3,1,48,45,1988356664
118,19,18,Jits_Linear_8,0,5,63,98,1988781296
118,19,18,Jits_Linear_8,1,5,80,127,1988812092
118,19,18,Jits_Linear_8,2,5,56,103,1988831728
118,19,18,Jits_Linear_8,3,1,48,44,1988863540
118,19,18,Jits_Linear_8,0,5,56,103,1989311984
118,19,18,Jits_Linear_8,1,1,48,44,1989344096
118,19,18,Jits_Linear_8,2,5,63,98,1989362180
118,19,18,Jits_Linear_8,3,5,80,127,1989442408
118,19,18,Jits_Linear_8,0,5,80,127,1989811532
118,19,18,Jits_Linear_8,1,5,63,98,1989851472
118,19,18,Jits_Linear_8,2,5,56,103,1989872008
118,19,18,Jits_Linear_8,3,1,48,45,1989914304
118,19,18,Jits_Linear_8,0,5,56,103,1990402548
118,19,18,Jits_Linear_8,1,5,80,127,1990411848
118,19,18,Jits_Linear_8,2,5,63,98,1990432156
118,19,18,Jits_Linear_8,3,1,48,45,1990454608
118,19,18,Jits_Linear_8,0,5,56,103,1990902168
118,19,18,Jits_Linear_8,1,5,63,98,1990952224
118,19,18,Jits_Linear_8,2,5,80,127,1990981976
118,19,18,Jits_Linear_8,3,1,48,41,1991004072
118,19,18,Jits_Linear_8,0,5,56,103,1991372124
118,19,18,Jits_Linear_8,1,5,63,98,1991382320
118,19,18,Jits_Linear_8,2,5,80,127,1991431700
118,19,18,Jits_Linear_8,3,1,48,44,1991553804
118,19,18,Jits_Linear_8,0,5,56,103,1991882148
118,19,18,Jits_Linear_8,1,5,80,127,1991885068
118,19,18,Jits_Linear_8,2,1,48,42,1991985660
118,19,18,Jits_Linear_8,3,5,63,98,1992041976
118,19,18,Jits_Linear_8,0,5,63,98,1992411432
118,19,18,Jits_Linear_8,1,5,56,103,1992482088
118,19,18,Jits_Linear_8,2,5,80,127,1992522100
118,19,18,Jits_Linear_8,3,1,48,43,1992580540
118,19,18,Jits_Linear_8,0,5,63,98,1992962280
118,19,18,Jits_Linear_8,1,1,48,41,1993037320
118,19,18,Jits_Linear_8,2,5,56,103,1993051380
118,19,18,Jits_Linear_8,3,5,80,127,1993054528
118,19,18,Jits_Linear_8,0,5,56,103,1993451988
118,19,18,Jits_Linear_8,1,5,63,98,1993542128
118,19,18,Jits_Linear_8,2,5,80,127,1993552248
118,19,18,Jits_Linear_8,3,1,48,40,1993563264
118,19,18,Jits_Linear_8,0,5,56,103,1993932060
118,19,18,Jits_Linear_8,1,5,63,98,1993982412
118,19,18,Jits_Linear_8,2,5,80,127,1994012088
118,19,18,Jits_Linear_8,3,1,48,42,1994066668
118,19,18,Jits_Linear_8,0,5,63,98,1994511848
118,19,18,Jits_Linear_8,1,1,48,40,1994513936
118,19,18,Jits_Linear_8,2,5,80,127,1994521888
118,19,18,Jits_Linear_8,3,5,56,103,1994582300
118,19,18,Jits_Linear_8,0,5,63,98,1994931440
118,19,18,Jits_Linear_8,1,5,80,127,1994991980
118,19,18,Jits_Linear_8,2,5,56,103,1995031920
118,19,18,Jits_Linear_8,3,1,48,42,1995087252
118,19,18,Jits_Linear_8,0,5,56,103,1995531960
118,19,18,Jits_Linear_8,1,5,80,127,1995551976
118,19,18,Jits_Linear_8,2,5,63,98,1995571464
118,19,18,Jits_Linear_8,3,1,48,41,1995630948
118,19,18,Jits_Linear_8,0,5,63,98,1995951576
118,19,18,Jits_Linear_8,1,5,56,103,1995971884
118,19,18,Jits_Linear_8,2,5,80,127,1996011824
118,19,18,Jits_Linear_8,3,1,48,40,1996134004
118,19,18,Jits_Linear_8,0,5,63,98,1996461440
118,19,18,Jits_Linear_8,1,5,80,127,1996492092
118,19,18,Jits_Linear_8,2,5,56,103,1996511724
118,19,18,Jits_Linear_8,3,1,48,32,1996671372
118,19,18,Jits_Linear_8,0,5,80,127,1996931300
118,19,18,Jits_Linear_8,1,5,56,103,1996981800
118,19,18,Jits_Linear_8,2,1,48,38,1997032344
118,19,18,Jits_Linear_8,3,5,63,98,1997042112
118,19,18,Jits_Linear_8,0,5,63,98,1997411884
118,19,18,Jits_Linear_8,1,1,48,37,1997464152
118,19,18,Jits_Linear_8,2,5,56,103,1997531460
118,19,18,Jits_Linear_8,3,5,80,127,1997562244
118,19,18,Jits_Linear_8,0,5,80,127,1997941988
118,19,18,Jits_Linear_8,1,5,63,98,1997961700
118,19,18,Jits_Linear_8,2,1,48,39,1997982804
118,19,18,Jits_Linear_8,3,5,56,103,1998032272
118,19,18,Jits_Linear_8,0,5,63,98,1998452100
118,19,18,Jits_Linear_8,1,5,56,103,1998462296
118,19,18,Jits_Linear_8,2,1,48,43,1998511720
118,19,18,Jits_Linear_8,3,5,80,127,1998542156
118,19,18,Jits_Linear_8,0,1,48,38,1998974744
118,19,18,Jits_Linear_8,1,5,56,103,1999001976
118,19,18,Jits_Linear_8,2,5,80,127,1999031800
118,19,18,Jits_Linear_8,3,5,63,98,1999041848
118,19,18,Jits_Linear_8,0,9999,9999,9999,1888629872
118,19,18,Jits_Linear_8,1,9999,9999,9999,1889450108
118,19,18,Jits_Linear_8,2,9999,9999,9999,1890269240
118,19,18,Jits_Linear_8,3,9999,9999,9999,1891089492
118,19,18,Jits_Linear_8,4,9999,9999,9999,1891909716
118,19,18,Jits_Linear_8,5,9999,9999,9999,1892719688
118,19,18,Jits_Linear_8,6,9999,9999,9999,1893529704
118,19,18,Jits_Linear_8,7,9999,9999,9999,1894339648
118,19,18,Jits_Linear_8,8,9999,9999,9999,1895149676
118,19,18,Jits_Linear_8,9,9999,9999,9999,1895959680
118,19,18,Jits_Linear_8,10,9999,9999,9999,1896759364
118,19,18,Jits_Linear_8,11,9999,9999,9999,1897559120
118,19,18,Jits_Linear_8,12,9999,9999,9999,1898359884
118,19,18,Jits_Linear_8,13,9999,9999,9999,1899159652
118,19,18,Jits_Linear_8,14,9999,9999,9999,1899959392
118,19,18,Jits_Linear_8,15,9999,9999,9999,1900749924
118,19,18,Jits_Linear_8,16,9999,9999,9999,1901539396
118,19,18,Jits_Linear_8,17,9999,9999,9999,1902329940
118,19,18,Jits_Linear_8,18,9999,9999,9999,1903119436
118,19,18,Jits_Linear_8,19,9999,9999,9999,1903909976
118,19,18,Jits_Linear_8,20,9999,9999,9999,1904689280
118,19,18,Jits_Linear_8,21,9999,9999,9999,1905469548
118,19,18,Jits_Linear_8,22,9999,9999,9999,1906249828
118,19,18,Jits_Linear_8,23,9999,9999,9999,1907030104
118,19,18,Jits_Linear_8,24,9999,9999,9999,1907819608
118,19,18,Jits_Linear_8,25,9999,9999,9999,1908589692
118,19,18,Jits_Linear_8,26,9999,9999,9999,1909359720
118,19,18,Jits_Linear_8,27,9999,9999,9999,1910129732
118,19,18,Jits_Linear_8,28,9999,9999,9999,1910899828
118,19,18,Jits_Linear_8,29,9999,9999,9999,1911669864
118,19,18,Jits_Linear_8,30,9999,9999,9999,1912429684
118,19,18,Jits_Linear_8,31,9999,9999,9999,1913189432
118,19,18,Jits_Linear_8,32,9999,9999,9999,1913949268
118,19,18,Jits_Linear_8,33,9999,9999,9999,1914710124
118,19,18,Jits_Linear_8,34,9999,9999,9999,1915479096
118,19,18,Jits_Linear_8,35,9999,9999,9999,1916229720
118,19,18,Jits_Linear_8,36,9999,9999,9999,1916979288
118,19,18,Jits_Linear_8,37,9999,9999,9999,1917729912
118,19,18,Jits_Linear_8,38,9999,9999,9999,1918479480
118,19,18,Jits_Linear_8,39,9999,9999,9999,1919230032
118,19,18,Jits_Linear_8,40,9999,9999,9999,1919969348
118,19,18,Jits_Linear_8,41,9999,9999,9999,1920709704
118,19,18,Jits_Linear_8,42,9999,9999,9999,1921450040
118,19,18,Jits_Linear_8,43,9999,9999,9999,1922189416
118,19,18,Jits_Linear_8,44,9999,9999,9999,1922929740
118,19,18,Jits_Linear_8,45,9999,9999,9999,1923659876
118,19,18,Jits_Linear_8,46,9999,9999,9999,1924389968
118,19,18,Jits_Linear_8,47,9999,9999,9999,1925120060
118,19,18,Jits_Linear_8,48,9999,9999,9999,1925859444
118,19,18,Jits_Linear_8,49,9999,9999,9999,1926589528
118,19,18,Jits_Linear_8,50,9999,9999,9999,1927309420
118,19,18,Jits_Linear_8,51,9999,9999,9999,1928029248
118,19,18,Jits_Linear_8,52,9999,9999,9999,1928749132
118,19,18,Jits_Linear_8,53,9999,9999,9999,1929470016
118,19,18,Jits_Linear_8,54,9999,9999,9999,1930189916
118,19,18,Jits_Linear_8,55,9999,9999,9999,1930899556
118,19,18,Jits_Linear_8,56,9999,9999,9999,1931609184
118,19,18,Jits_Linear_8,57,9999,9999,9999,1932319848
118,19,18,Jits_Linear_8,58,9999,9999,9999,1933029476
118,19,18,Jits_Linear_8,59,9999,9999,9999,1933739100
118,19,18,Jits_Linear_8,60,9999,9999,9999,1934439524
118,19,18,Jits_Linear_8,61,9999,9999,9999,1935139928
118,19,18,Jits_Linear_8,62,9999,9999,9999,1935839292
118,19,18,Jits_Linear_8,63,9999,9999,9999,1936539768
118,19,18,Jits_Linear_8,64,9999,9999,9999,1937239116
118,19,18,Jits_Linear_8,65,9999,9999,9999,1937929340
118,19,18,Jits_Linear_8,66,9999,9999,9999,1938619508
118,19,18,Jits_Linear_8,67,9999,9999,9999,1939309636
118,19,18,Jits_Linear_8,68,9999,9999,9999,1939999836
118,19,18,Jits_Linear_8,69,9999,9999,9999,1940690004
118,19,18,Jits_Linear_8,70,9999,9999,9999,1941369972
118,19,18,Jits_Linear_8,71,9999,9999,9999,1942049916
118,19,18,Jits_Linear_8,72,9999,9999,9999,1942729796
118,19,18,Jits_Linear_8,73,9999,9999,9999,1943409772
118,19,18,Jits_Linear_8,74,9999,9999,9999,1944089656
118,19,18,Jits_Linear_8,75,9999,9999,9999,1944759356
118,19,18,Jits_Linear_8,76,9999,9999,9999,1945430088
118,19,18,Jits_Linear_8,77,9999,9999,9999,1946110056
118,19,18,Jits_Linear_8,78,9999,9999,9999,1946779756
118,19,18,Jits_Linear_8,79,9999,9999,9999,1947449440
118,19,18,Jits_Linear_8,80,9999,9999,9999,1948109920
118,19,18,Jits_Linear_8,81,9999,9999,9999,1948769348
118,19,18,Jits_Linear_8,82,9999,9999,9999,1949429876
118,19,18,Jits_Linear_8,83,9999,9999,9999,1950089304
118,19,18,Jits_Linear_8,84,9999,9999,9999,1950749772
118,19,18,Jits_Linear_8,85,9999,9999,9999,1951400004
118,19,18,Jits_Linear_8,86,9999,9999,9999,1952049236
118,19,18,Jits_Linear_8,87,9999,9999,9999,1952699452
118,19,18,Jits_Linear_8,88,9999,9999,9999,1953349708
118,19,18,Jits_Linear_8,89,9999,9999,9999,1953999988
118,19,18,Jits_Linear_8,90,9999,9999,9999,1954639996
118,19,18,Jits_Linear_8,91,9999,9999,9999,1955279952
118,19,18,Jits_Linear_8,92,9999,9999,9999,1955919968
118,19,18,Jits_Linear_8,93,9999,9999,9999,1956559984
118,19,18,Jits_Linear_8,94,9999,9999,9999,1957199988
118,19,18,Jits_Linear_8,95,9999,9999,9999,1957829748
118,19,18,Jits_Linear_8,96,9999,9999,9999,1958459500
118,19,18,Jits_Linear_8,97,9999,9999,9999,1959089264
118,19,18,Jits_Linear_8,98,9999,9999,9999,1959719996
118,19,18,Jits_Linear_8,99,9999,9999,9999,1960349784
118,19,18,Jits_Linear_8,100,9999,9999,9999,1960969336
118,19,18,Jits_Linear_8,101,9999,9999,9999,1961589884
118,19,18,Jits_Linear_8,102,9999,9999,9999,1962209364
118,19,18,Jits_Linear_8,103,9999,9999,9999,1962829884
118,19,18,Jits_Linear_8,104,9999,9999,9999,1963449468
118,19,18,Jits_Linear_8,105,9999,9999,9999,1964059740
118,19,18,Jits_Linear_8,106,9999,9999,9999,1964670016
118,19,18,Jits_Linear_8,107,9999,9999,9999,1965279360
118,19,18,Jits_Linear_8,108,9999,9999,9999,1965889624
118,19,18,Jits_Linear_8,109,9999,9999,9999,1966499904
118,19,18,Jits_Linear_8,110,9999,9999,9999,1967099988
118,19,18,Jits_Linear_8,111,9999,9999,9999,1967700032
118,19,18,Jits_Linear_8,112,9999,9999,9999,1968299084
118,19,18,Jits_Linear_8,113,9999,9999,9999,1968899172
118,19,18,Jits_Linear_8,114,9999,9999,9999,1969499208
118,19,18,Jits_Linear_8,115,9999,9999,9999,1970090060
118,19,18,Jits_Linear_8,116,9999,9999,9999,1970679884
118,19,18,Jits_Linear_8,117,9999,9999,9999,1971269716
118,19,18,Jits_Linear_8,118,9999,9999,9999,1971859568
118,19,18,Jits_Linear_8,119,9999,9999,9999,1972449380
118,19,18,Jits_Linear_8,120,9999,9999,9999,1973029984
118,19,18,Jits_Linear_8,121,9999,9999,9999,1973609552
118,19,18,Jits_Linear_8,122,9999,9999,9999,1974189160
118,19,18,Jits_Linear_8,123,9999,9999,9999,1974769744
118,19,18,Jits_Linear_8,124,9999,9999,9999,1975349368
118,19,18,Jits_Linear_8,125,9999,9999,9999,1975919712
118,19,18,Jits_Linear_8,126,9999,9999,9999,1976490048
118,19,18,Jits_Linear_8,127,9999,9999,9999,1977059404
118,19,18,Jits_Linear_8,128,9999,9999,9999,1977629808
118,19,18,Jits_Linear_8,129,9999,9999,9999,1978199104
118,19,18,Jits_Linear_8,130,9999,9999,9999,1978759260
118,19,18,Jits_Linear_8,131,9999,9999,9999,1979319412
118,19,18,Jits_Linear_8,132,9999,9999,9999,1979879484
118,19,18,Jits_Linear_8,133,9999,9999,9999,1980439644
118,19,18,Jits_Linear_8,134,9999,9999,9999,1980999796
118,19,18,Jits_Linear_8,135,9999,9999,9999,1981549684
118,19,18,Jits_Linear_8,136,9999,9999,9999,1982099560
118,19,18,Jits_Linear_8,137,9999,9999,9999,1982649452
118,19,18,Jits_Linear_8,138,9999,9999,9999,1983199344
118,19,18,Jits_Linear_8,139,9999,9999,9999,1983749232
118,19,18,Jits_Linear_8,140,9999,9999,9999,1984289896
118,19,18,Jits_Linear_8,141,9999,9999,9999,1984829508
118,19,18,Jits_Linear_8,142,9999,9999,9999,1985369152
118,19,18,Jits_Linear_8,143,9999,9999,9999,1985909884
118,19,18,Jits_Linear_8,144,9999,9999,9999,1986449492
118,19,18,Jits_Linear_8,145,9999,9999,9999,1986979968
118,19,18,Jits_Linear_8,146,9999,9999,9999,1987509316
118,19,18,Jits_Linear_8,147,9999,9999,9999,1988039780
118,19,18,Jits_Linear_8,148,9999,9999,9999,1988569196
118,19,18,Jits_Linear_8,149,9999,9999,9999,1989099588
118,19,18,Jits_Linear_8,150,9999,9999,9999,1989619800
118,19,18,Jits_Linear_8,151,9999,9999,9999,1990140016
118,19,18,Jits_Linear_8,152,9999,9999,9999,1990659192
118,19,18,Jits_Linear_8,153,9999,9999,9999,1991179344
118,19,18,Jits_Linear_8,154,9999,9999,9999,1991699560
118,19,18,Jits_Linear_8,155,9999,9999,9999,1992209508
118,19,18,Jits_Linear_8,156,9999,9999,9999,1992719468
118,19,18,Jits_Linear_8,157,9999,9999,9999,1993229408
118,19,18,Jits_Linear_8,158,9999,9999,9999,1993739356
118,19,18,Jits_Linear_8,159,9999,9999,9999,1994249312
118,19,18,Jits_Linear_8,160,9999,9999,9999,1994750060
118,19,18,Jits_Linear_8,161,9999,9999,9999,1995249740
118,19,18,Jits_Linear_8,162,9999,9999,9999,1995749500
118,19,18,Jits_Linear_8,163,9999,9999,9999,1996249196
118,19,18,Jits_Linear_8,164,9999,9999,9999,1996749936
118,19,18,Jits_Linear_8,165,9999,9999,9999,1997239412
118,19,18,Jits_Linear_8,166,9999,9999,9999,1997729892
118,19,18,Jits_Linear_8,167,9999,9999,9999,1998219384
118,19,18,Jits_Linear_8,168,9999,9999,9999,1998709864
118,19,18,Jits_Linear_8,169,9999,9999,9999,1999199292
118,20,5,ISIP_5,0,5,42,127,2072375704
118,20,5,ISIP_5,1,5,42,127,2072876468
118,20,5,ISIP_5,2,5,42,127,2073376332
118,20,5,ISIP_5,3,5,42,127,2073875752
118,20,5,ISIP_5,4,1,48,54,2074365032
118,20,5,ISIP_5,5,5,42,127,2074375388
118,20,5,ISIP_5,6,1,48,70,2074865848
118,20,5,ISIP_5,7,5,42,127,2074876276
118,20,5,ISIP_5,8,1,48,76,2075376128
118,20,5,ISIP_5,9,5,42,127,2075377464
118,20,5,ISIP_5,10,5,42,127,2075875672
118,20,5,ISIP_5,11,1,48,74,2075877612
118,20,5,ISIP_5,12,5,42,127,2076376564
118,20,5,ISIP_5,13,1,48,70,2076394648
118,20,5,ISIP_5,14,5,42,127,2076876260
118,20,5,ISIP_5,15,1,48,60,2076896436
118,20,5,ISIP_5,16,5,42,127,2077376104
118,20,5,ISIP_5,17,1,48,79,2077410940
118,20,5,ISIP_5,18,5,42,127,2077875500
118,20,5,ISIP_5,19,1,48,62,2077893128
118,20,5,ISIP_5,20,5,42,127,2078376244
118,20,5,ISIP_5,21,1,48,56,2078407184
118,20,5,ISIP_5,22,5,42,127,2078876160
118,20,5,ISIP_5,23,1,48,62,2078893272
118,20,5,ISIP_5,24,5,42,127,2079375708
118,20,5,ISIP_5,25,1,48,75,2079386228
118,20,5,ISIP_5,26,5,42,127,2079875328
118,20,5,ISIP_5,27,1,48,53,2079901184
118,20,5,ISIP_5,28,5,42,127,2080376144
118,20,5,ISIP_5,29,1,48,70,2080404092
118,20,5,ISIP_5,30,5,42,127,2080876136
118,20,5,ISIP_5,31,1,48,59,2080895116
118,20,5,ISIP_5,32,5,42,127,2081375532
118,20,5,ISIP_5,33,1,48,51,2081392264
118,20,5,ISIP_5,34,1,48,62,2081869028
118,20,5,ISIP_5,35,5,42,127,2081876268
118,20,5,ISIP_5,36,5,42,127,2082376168
118,20,5,ISIP_5,37,1,48,59,2082377956
118,20,5,ISIP_5,38,5,42,127,2082875936
118,20,5,ISIP_5,39,1,48,56,2082890052
118,20,5,ISIP_5,40,1,48,59,2083360932
118,20,5,ISIP_5,41,5,42,127,2083375328
118,20,5,ISIP_5,42,1,48,70,2083869000
118,20,5,ISIP_5,43,5,42,127,2083876216
118,20,5,ISIP_5,44,1,48,60,2084357848
118,20,5,ISIP_5,45,5,42,127,2084376132
118,20,5,ISIP_5,46,5,42,127,2084875760
118,20,5,ISIP_5,47,1,48,58,2084888980
118,20,5,ISIP_5,48,5,42,127,2085376428
118,20,5,ISIP_5,49,1,48,61,2085390768
118,20,5,ISIP_5,50,5,42,127,2085876124
118,20,5,ISIP_5,51,1,48,58,2085886792
118,20,5,ISIP_5,52,1,48,51,2086368820
118,20,5,ISIP_5,53,5,42,127,2086375884
118,20,5,ISIP_5,54,5,42,127,2086875364
118,20,5,ISIP_5,55,1,48,65,2086876328
118,20,5,ISIP_5,56,1,48,50,2087368136
118,20,5,ISIP_5,57,5,42,127,2087376248
118,20,5,ISIP_5,58,1,48,58,2087863644
118,20,5,ISIP_5,59,5,42,127,2087875944
118,20,5,ISIP_5,60,1,48,50,2088354508
118,20,5,ISIP_5,61,5,42,127,2088375788
118,20,5,ISIP_5,62,1,48,57,2088856680
118,20,5,ISIP_5,63,5,42,127,2088876308
118,20,5,ISIP_5,64,1,48,56,2089360332
118,20,5,ISIP_5,65,5,42,127,2089376224
118,20,5,ISIP_5,66,1,48,50,2089854792
118,20,5,ISIP_5,67,5,42,127,2089875920
118,20,5,ISIP_5,68,5,42,127,2090375476
118,20,5,ISIP_5,69,1,48,52,2090378368
118,20,5,ISIP_5,70,1,48,52,2090868320
118,20,5,ISIP_5,71,5,42,127,2090876208
118,20,5,ISIP_5,72,1,48,60,2091360984
118,20,5,ISIP_5,73,5,42,127,2091375832
118,20,5,ISIP_5,74,1,48,59,2091856640
118,20,5,ISIP_5,75,5,42,127,2091875824
118,20,5,ISIP_5,76,1,48,55,2092362968
118,20,5,ISIP_5,77,1,48,61,2092856452
118,20,5,ISIP_5,78,1,48,60,2093343948
118,20,5,ISIP_5,79,1,48,46,2093836980
118,20,5,ISIP_5,80,1,48,59,2094299944
118,20,5,ISIP_5,81,1,48,50,2094789988
118,20,5,ISIP_5,82,1,48,33,2094838884
118,20,5,ISIP_5,83,1,48,52,2095301924
118,20,5,ISIP_5,84,1,48,51,2095808192
118,20,5,ISIP_5,85,1,48,50,2096296740
118,20,5,ISIP_5,86,1,48,48,2096800396
118,20,5,ISIP_5,87,1,48,52,2097298740
118,20,5,ISIP_5,88,1,48,53,2097798728
118,20,5,ISIP_5,89,1,48,54,2098310540
118,20,5,ISIP_5,90,1,48,57,2098803724
118,20,5,ISIP_5,91,1,48,57,2099308724
118,20,5,ISIP_5,92,1,48,63,2099810132
118,20,5,ISIP_5,93,1,48,59,2100312148
118,20,5,ISIP_5,94,1,48,55,2100791616
118,20,5,ISIP_5,95,1,48,52,2101318008
118,20,5,ISIP_5,96,1,48,49,2101827120
118,20,5,ISIP_5,97,1,48,52,2102334744
118,20,5,ISIP_5,98,1,48,48,2102816552
118,20,5,ISIP_5,99,1,48,52,2103354616
118,20,5,ISIP_5,100,1,48,47,2103863436
118,20,5,ISIP_5,101,1,48,53,2104392676
118,20,5,ISIP_5,102,1,48,46,2104897080
118,20,5,ISIP_5,103,1,48,43,2105418312
118,20,5,ISIP_5,104,1,48,49,2105913592
118,20,5,ISIP_5,105,1,48,23,2105977172
118,20,5,ISIP_5,106,1,48,47,2106441012
118,20,5,ISIP_5,107,1,48,44,2106978868
118,20,5,ISIP_5,108,1,48,41,2107473844
118,20,5,ISIP_5,109,1,48,45,2108000916
118,20,5,ISIP_5,110,1,48,45,2108484124
118,20,5,ISIP_5,111,1,48,47,2109017868
118,20,5,ISIP_5,112,1,48,24,2109081352
118,20,5,ISIP_5,113,1,48,55,2109499640
118,20,5,ISIP_5,114,1,48,61,2110033908
118,20,5,ISIP_5,115,1,48,51,2110534472
118,20,5,ISIP_5,116,1,48,63,2111043216
118,20,5,ISIP_5,117,1,48,62,2111542232
118,20,5,ISIP_5,118,1,48,56,2112066908
118,20,5,ISIP_5,119,1,48,51,2112616432
118,20,5,ISIP_5,120,1,48,54,2113137068
118,20,5,ISIP_5,121,1,48,61,2113696448
118,20,5,ISIP_5,122,1,48,58,2114224112
118,20,5,ISIP_5,123,1,48,65,2114742432
118,20,5,ISIP_5,124,1,48,62,2115275932
118,20,5,ISIP_5,125,1,48,57,2115849896
118,20,5,ISIP_5,126,1,48,59,2116389316
118,20,5,ISIP_5,127,1,48,47,2116863860
118,20,5,ISIP_5,128,1,48,52,2117378600
118,20,5,ISIP_5,129,1,48,57,2117902824
118,20,5,ISIP_5,130,1,48,53,2118393168
118,20,5,ISIP_5,131,1,48,23,2118463756
118,20,5,ISIP_5,132,1,48,54,2118916844
118,20,5,ISIP_5,133,1,48,47,2119409500
118,20,5,ISIP_5,134,1,48,48,2119889668
118,20,5,ISIP_5,135,1,48,55,2120393252
118,20,5,ISIP_5,136,1,48,56,2120897056
118,20,5,ISIP_5,137,1,48,48,2121413128
118,20,5,ISIP_5,138,1,48,50,2121903248
118,20,5,ISIP_5,139,1,48,52,2122399344
118,20,5,ISIP_5,140,1,48,60,2122891180
118,20,5,ISIP_5,141,1,48,50,2123399100
118,20,5,ISIP_5,142,1,48,44,2123894008
118,20,5,ISIP_5,143,1,48,41,2124339280
118,20,5,ISIP_5,144,1,48,43,2124854152
118,20,5,ISIP_5,145,1,48,51,2125346288
118,20,5,ISIP_5,146,1,48,49,2125825264
118,20,5,ISIP_5,147,1,48,48,2126323008
118,20,5,ISIP_5,148,1,48,52,2126842368
118,20,5,ISIP_5,149,1,48,52,2127330092
118,20,5,ISIP_5,150,1,48,58,2127820508
118,20,5,ISIP_5,151,1,48,59,2128328496
118,20,5,ISIP_5,152,1,48,59,2128837092
118,20,5,ISIP_5,153,1,48,46,2129327880
118,20,5,ISIP_5,154,1,48,57,2129835204
118,20,5,ISIP_5,155,1,48,62,2130322100
118,20,5,ISIP_5,156,1,48,52,2130817456
118,20,5,ISIP_5,157,1,48,51,2131311688
118,20,5,ISIP_5,158,1,48,52,2131782252
118,20,5,ISIP_5,159,1,48,60,2132369404
118,20,5,ISIP_5,160,1,48,48,2132822204
118,20,5,ISIP_5,161,1,48,48,2133327424
118,20,5,ISIP_5,162,1,48,52,2133823424
118,20,5,ISIP_5,163,1,48,40,2134342040
118,20,5,ISIP_5,164,1,48,50,2134816668
118,20,5,ISIP_5,165,1,48,48,2135303872
118,20,5,ISIP_5,166,1,48,54,2135793464
118,20,5,ISIP_5,167,1,48,52,2136278864
118,20,5,ISIP_5,168,1,48,53,2136751708
118,20,5,ISIP_5,169,1,48,56,2137252972
118,20,5,ISIP_5,170,1,48,57,2137724832
118,20,5,ISIP_5,171,1,48,52,2138226616
118,20,5,ISIP_5,172,1,48,61,2138710304
118,20,5,ISIP_5,173,1,48,56,2139212064
118,20,5,ISIP_5,174,1,48,58,2139701128
118,20,5,ISIP_5,175,1,48,49,2140195360
118,20,5,ISIP_5,176,1,48,55,2140670144
118,20,5,ISIP_5,177,1,48,51,2141157864
118,20,5,ISIP_5,178,1,48,55,2141674012
118,20,5,ISIP_5,179,1,48,55,2142153652
118,20,5,ISIP_5,180,1,48,61,2142654096
118,20,5,ISIP_5,181,1,48,51,2143176228
118,20,5,ISIP_5,182,1,48,53,2143663128
118,20,5,ISIP_5,183,1,48,54,2144148452
118,20,5,ISIP_5,184,1,48,58,2144618752
118,20,5,ISIP_5,185,1,48,49,2145150084
118,20,5,ISIP_5,186,1,48,50,2145671316
118,20,5,ISIP_5,187,1,48,54,2146187160
118,20,5,ISIP_5,188,1,48,52,2146734796
118,20,5,ISIP_5,189,1,48,54,2147269416
118,20,5,ISIP_5,190,1,48,53,2147747564
118,20,5,ISIP_5,191,1,48,47,2148259672
118,20,5,ISIP_5,192,1,48,54,2148765276
118,20,5,ISIP_5,193,1,48,48,2149288976
118,20,5,ISIP_5,194,1,48,43,2149816792
118,20,5,ISIP_5,195,1,48,44,2150326580
118,20,5,ISIP_5,196,1,48,43,2150834424
118,20,5,ISIP_5,197,1,48,41,2151340992
118,20,5,ISIP_5,198,1,48,46,2151876376
118,20,5,ISIP_5,0,9999,9999,9999,2072373340
118,20,5,ISIP_5,1,9999,9999,9999,2072874104
118,20,5,ISIP_5,2,9999,9999,9999,2073373748
118,20,5,ISIP_5,3,9999,9999,9999,2073873464
118,20,5,ISIP_5,4,9999,9999,9999,2074373176
118,20,5,ISIP_5,5,9999,9999,9999,2074873916
118,20,5,ISIP_5,6,9999,9999,9999,2075373616
118,20,5,ISIP_5,7,9999,9999,9999,2075873388
118,20,5,ISIP_5,8,9999,9999,9999,2076374128
118,20,5,ISIP_5,9,9999,9999,9999,2076873824
118,20,5,ISIP_5,10,9999,9999,9999,2077373516
118,20,5,ISIP_5,11,9999,9999,9999,2077873216
118,20,5,ISIP_5,12,9999,9999,9999,2078373956
118,20,5,ISIP_5,13,9999,9999,9999,2078873652
118,20,5,ISIP_5,14,9999,9999,9999,2079373420
118,20,5,ISIP_5,15,9999,9999,9999,2079873116
118,20,5,ISIP_5,16,9999,9999,9999,2080373856
118,20,5,ISIP_5,17,9999,9999,9999,2080873552
118,20,5,ISIP_5,18,9999,9999,9999,2081373244
118,20,5,ISIP_5,19,9999,9999,9999,2081873980
118,20,5,ISIP_5,20,9999,9999,9999,2082373732
118,20,5,ISIP_5,21,9999,9999,9999,2082873424
118,20,5,ISIP_5,22,9999,9999,9999,2083373112
118,20,5,ISIP_5,23,9999,9999,9999,2083873856
118,20,5,ISIP_5,24,9999,9999,9999,2084373624
118,20,5,ISIP_5,25,9999,9999,9999,2084873324
118,20,5,ISIP_5,26,9999,9999,9999,2085374068
118,20,5,ISIP_5,27,9999,9999,9999,2085873760
118,20,5,ISIP_5,28,9999,9999,9999,2086373448
118,20,5,ISIP_5,29,9999,9999,9999,2086873152
118,20,5,ISIP_5,30,9999,9999,9999,2087373888
118,20,5,ISIP_5,31,9999,9999,9999,2087873656
118,20,5,ISIP_5,32,9999,9999,9999,2088373352
118,20,5,ISIP_5,33,9999,9999,9999,2088874096
118,20,5,ISIP_5,34,9999,9999,9999,2089373792
118,20,5,ISIP_5,35,9999,9999,9999,2089873488
118,20,5,ISIP_5,36,9999,9999,9999,2090373188
118,20,5,ISIP_5,37,9999,9999,9999,2090873924
118,20,5,ISIP_5,38,9999,9999,9999,2091373620
118,20,5,ISIP_5,39,9999,9999,9999,2091873388
118,20,5,ISIP_5,40,9999,9999,9999,2092374128
118,20,5,ISIP_5,41,9999,9999,9999,2092873792
118,20,5,ISIP_5,42,9999,9999,9999,2093373560
118,20,5,ISIP_5,43,9999,9999,9999,2093873252
118,20,5,ISIP_5,44,9999,9999,9999,2094373988
118,20,5,ISIP_5,45,9999,9999,9999,2094873656
118,20,5,ISIP_5,46,9999,9999,9999,2095373420
118,20,5,ISIP_5,47,9999,9999,9999,2095873112
118,20,5,ISIP_5,48,9999,9999,9999,2096373848
118,20,5,ISIP_5,49,9999,9999,9999,2096873540
118,20,5,ISIP_5,50,9999,9999,9999,2097373304
118,20,5,ISIP_5,51,9999,9999,9999,2097873968
118,20,5,ISIP_5,52,9999,9999,9999,2098373736
118,20,5,ISIP_5,53,9999,9999,9999,2098873424
118,20,5,ISIP_5,54,9999,9999,9999,2099373116
118,20,5,ISIP_5,55,9999,9999,9999,2099873852
118,20,5,ISIP_5,56,9999,9999,9999,2100373620
118,20,5,ISIP_5,57,9999,9999,9999,2100873312
118,20,5,ISIP_5,58,9999,9999,9999,2101374048
118,20,5,ISIP_5,59,9999,9999,9999,2101873736
118,20,5,ISIP_5,60,9999,9999,9999,2102373428
118,20,5,ISIP_5,61,9999,9999,9999,2102873192
118,20,5,ISIP_5,62,9999,9999,9999,2103373904
118,20,5,ISIP_5,63,9999,9999,9999,2103873596
118,20,5,ISIP_5,64,9999,9999,9999,2104373364
118,20,5,ISIP_5,65,9999,9999,9999,2104874104
118,20,5,ISIP_5,66,9999,9999,9999,2105373792
118,20,5,ISIP_5,67,9999,9999,9999,2105873484
118,20,5,ISIP_5,68,9999,9999,9999,2106373228
118,20,5,ISIP_5,69,9999,9999,9999,2106873964
118,20,5,ISIP_5,70,9999,9999,9999,2107373652
118,20,5,ISIP_5,71,9999,9999,9999,2107873344
118,20,5,ISIP_5,72,9999,9999,9999,2108374080
118,20,5,ISIP_5,73,9999,9999,9999,2108873848
118,20,5,ISIP_5,74,9999,9999,9999,2109373516
118,20,5,ISIP_5,75,9999,9999,9999,2109873208
118,20,5,ISIP_5,76,9999,9999,9999,2110373944
118,20,5,ISIP_5,77,9999,9999,9999,2110873708
118,20,5,ISIP_5,78,9999,9999,9999,2111373400
118,20,5,ISIP_5,79,9999,9999,9999,2111873092
118,20,5,ISIP_5,80,9999,9999,9999,2112373828
118,20,5,ISIP_5,81,9999,9999,9999,2112873592
118,20,5,ISIP_5,82,9999,9999,9999,2113373280
118,20,5,ISIP_5,83,9999,9999,9999,2113874020
118,20,5,ISIP_5,84,9999,9999,9999,2114373688
118,20,5,ISIP_5,85,9999,9999,9999,2114873452
118,20,5,ISIP_5,86,9999,9999,9999,2115373144
118,20,5,ISIP_5,87,9999,9999,9999,2115873900
118,20,5,ISIP_5,88,9999,9999,9999,2116373596
118,20,5,ISIP_5,89,9999,9999,9999,2116873280
118,20,5,ISIP_5,90,9999,9999,9999,2117374020
118,20,5,ISIP_5,91,9999,9999,9999,2117873788
118,20,5,ISIP_5,92,9999,9999,9999,2118373480
118,20,5,ISIP_5,93,9999,9999,9999,2118873148
118,20,5,ISIP_5,94,9999,9999,9999,2119373884
118,20,5,ISIP_5,95,9999,9999,9999,2119873648
118,20,5,ISIP_5,96,9999,9999,9999,2120373340
118,20,5,ISIP_5,97,9999,9999,9999,2120874076
118,20,5,ISIP_5,98,9999,9999,9999,2121373768
118,20,5,ISIP_5,99,9999,9999,9999,2121873460
118,20,5,ISIP_5,100,9999,9999,9999,2122373224
118,20,5,ISIP_5,101,9999,9999,9999,2122873964
118,20,5,ISIP_5,102,9999,9999,9999,2123373656
118,20,5,ISIP_5,103,9999,9999,9999,2123873348
118,20,5,ISIP_5,104,9999,9999,9999,2124374076
118,20,5,ISIP_5,105,9999,9999,9999,2124873820
118,20,5,ISIP_5,106,9999,9999,9999,2125373508
118,20,5,ISIP_5,107,9999,9999,9999,2125873272
118,20,5,ISIP_5,108,9999,9999,9999,2126374008
118,20,5,ISIP_5,109,9999,9999,9999,2126873700
118,20,5,ISIP_5,110,9999,9999,9999,2127373392
118,20,5,ISIP_5,111,9999,9999,9999,2127873084
118,20,5,ISIP_5,112,9999,9999,9999,2128373820
118,20,5,ISIP_5,113,9999,9999,9999,2128873584
118,20,5,ISIP_5,114,9999,9999,9999,2129373276
118,20,5,ISIP_5,115,9999,9999,9999,2129874012
118,20,5,ISIP_5,116,9999,9999,9999,2130373704
118,20,5,ISIP_5,117,9999,9999,9999,2130873396
118,20,5,ISIP_5,118,9999,9999,9999,2131373160
118,20,5,ISIP_5,119,9999,9999,9999,2131873896
118,20,5,ISIP_5,120,9999,9999,9999,2132373588
118,20,5,ISIP_5,121,9999,9999,9999,2132873280
118,20,5,ISIP_5,122,9999,9999,9999,2133374016
118,20,5,ISIP_5,123,9999,9999,9999,2133873780
118,20,5,ISIP_5,124,9999,9999,9999,2134373472
118,20,5,ISIP_5,125,9999,9999,9999,2134873164
118,20,5,ISIP_5,126,9999,9999,9999,2135373900
118,20,5,ISIP_5,127,9999,9999,9999,2135873640
118,20,5,ISIP_5,128,9999,9999,9999,2136373332
118,20,5,ISIP_5,129,9999,9999,9999,2136874052
118,20,5,ISIP_5,130,9999,9999,9999,2137373816
118,20,5,ISIP_5,131,9999,9999,9999,2137873508
118,20,5,ISIP_5,132,9999,9999,9999,2138373200
118,20,5,ISIP_5,133,9999,9999,9999,2138873936
118,20,5,ISIP_5,134,9999,9999,9999,2139373628
118,20,5,ISIP_5,135,9999,9999,9999,2139873392
118,20,5,ISIP_5,136,9999,9999,9999,2140374128
118,20,5,ISIP_5,137,9999,9999,9999,2140873820
118,20,5,ISIP_5,138,9999,9999,9999,2141373508
118,20,5,ISIP_5,139,9999,9999,9999,2141873276
118,20,5,ISIP_5,140,9999,9999,9999,2142373936
118,20,5,ISIP_5,141,9999,9999,9999,2142873704
118,20,5,ISIP_5,142,9999,9999,9999,2143373396
118,20,5,ISIP_5,143,9999,9999,9999,2143873088
118,20,5,ISIP_5,144,9999,9999,9999,2144373824
118,20,5,ISIP_5,145,9999,9999,9999,2144873588
118,20,5,ISIP_5,146,9999,9999,9999,2145373280
118,20,5,ISIP_5,147,9999,9999,9999,2145874016
118,20,5,ISIP_5,148,9999,9999,9999,2146373684
118,20,5,ISIP_5,149,9999,9999,9999,2146873448
118,20,5,ISIP_5,150,9999,9999,9999,2147373140
118,20,5,ISIP_5,151,9999,9999,9999,2147873880
118,20,5,ISIP_5,152,9999,9999,9999,2148373568
118,20,5,ISIP_5,153,9999,9999,9999,2148873336
118,20,5,ISIP_5,154,9999,9999,9999,2149374012
118,20,5,ISIP_5,155,9999,9999,9999,2149873780
118,20,5,ISIP_5,156,9999,9999,9999,2150373472
118,20,5,ISIP_5,157,9999,9999,9999,2150873160
118,20,5,ISIP_5,158,9999,9999,9999,2151373900
118,20,5,ISIP_5,159,9999,9999,9999,2151873596
118,21,3,ISIP_8,0,5,42,127,2180374012
118,21,3,ISIP_8,1,5,42,127,2181173620
118,21,3,ISIP_8,2,5,42,127,2181974372
118,21,3,ISIP_8,3,1,48,77,2181986988
118,21,3,ISIP_8,4,1,48,66,2182753192
118,21,3,ISIP_8,5,5,42,127,2182774248
118,21,3,ISIP_8,6,1,48,53,2183479532
118,21,3,ISIP_8,7,5,42,127,2183573892
118,21,3,ISIP_8,8,5,42,127,2184373796
118,21,3,ISIP_8,9,1,48,56,2185127660
118,21,3,ISIP_8,10,5,42,127,2185174296
118,21,3,ISIP_8,11,1,48,52,2185508252
118,21,3,ISIP_8,12,5,42,127,2185974088
118,21,3,ISIP_8,13,1,48,49,2185976828
118,21,3,ISIP_8,14,5,42,127,2186773968
118,21,3,ISIP_8,15,1,48,62,2186776936
118,21,3,ISIP_8,16,5,42,127,2187573700
118,21,3,ISIP_8,17,1,48,63,2187583780
118,21,3,ISIP_8,18,1,48,67,2188360152
118,21,3,ISIP_8,19,5,42,127,2188374424
118,21,3,ISIP_8,20,5,42,127,2189174240
118,21,3,ISIP_8,21,1,48,65,2189884996
118,21,3,ISIP_8,22,5,42,127,2189974136
118,21,3,ISIP_8,23,1,48,54,2190730604
118,21,3,ISIP_8,24,5,42,127,2190773720
118,21,3,ISIP_8,25,5,42,127,2191574360
118,21,3,ISIP_8,26,5,42,127,2192374116
118,21,3,ISIP_8,27,1,48,52,2192418296
118,21,3,ISIP_8,28,1,48,66,2193169020
118,21,3,ISIP_8,29,5,42,127,2193173992
118,21,3,ISIP_8,30,1,48,60,2193957684
118,21,3,ISIP_8,31,5,42,127,2193973652
118,21,3,ISIP_8,32,1,48,59,2194761232
118,21,3,ISIP_8,33,5,42,127,2194774752
118,21,3,ISIP_8,34,1,48,63,2195560692
118,21,3,ISIP_8,35,5,42,127,2195574040
118,21,3,ISIP_8,36,1,48,66,2196322052
118,21,3,ISIP_8,37,5,42,127,2196373848
118,21,3,ISIP_8,38,1,48,68,2197136596
118,21,3,ISIP_8,39,5,42,127,2197173952
118,21,3,ISIP_8,40,1,48,65,2197916736
118,21,3,ISIP_8,41,5,42,127,2197974364
118,21,3,ISIP_8,42,1,48,67,2198715572
118,21,3,ISIP_8,43,5,42,127,2198774168
118,21,3,ISIP_8,44,1,48,63,2199510220
118,21,3,ISIP_8,45,5,42,127,2199573904
118,21,3,ISIP_8,46,1,48,67,2200340620
118,21,3,ISIP_8,47,5,42,127,2200373860
118,21,3,ISIP_8,48,1,48,66,2201106544
118,21,3,ISIP_8,49,5,42,127,2201174516
118,21,3,ISIP_8,50,5,42,127,2201974104
118,21,3,ISIP_8,51,1,48,67,2201983060
118,21,3,ISIP_8,52,5,42,127,2202773764
118,21,3,ISIP_8,53,1,48,57,2202806428
118,21,3,ISIP_8,54,5,42,127,2203573796
118,21,3,ISIP_8,55,1,48,72,2203609676
118,21,3,ISIP_8,56,1,48,65,2204370196
118,21,3,ISIP_8,57,1,48,71,2205229404
118,21,3,ISIP_8,58,1,48,70,2206009160
118,21,3,ISIP_8,59,1,48,69,2206829636
118,21,3,ISIP_8,60,1,48,70,2207680604
118,21,3,ISIP_8,61,1,48,63,2208466864
118,21,3,ISIP_8,62,1,48,69,2209313564
118,21,3,ISIP_8,63,1,48,65,2210171884
118,21,3,ISIP_8,64,1,48,63,2210983808
118,21,3,ISIP_8,65,1,48,48,2211800368
118,21,3,ISIP_8,66,1,48,61,2212611320
118,21,3,ISIP_8,67,1,48,62,2213430940
118,21,3,ISIP_8,68,1,48,61,2214244608
118,21,3,ISIP_8,69,1,48,70,2215022568
118,21,3,ISIP_8,70,1,48,64,2215838232
118,21,3,ISIP_8,71,1,48,67,2216678128
118,21,3,ISIP_8,72,1,48,72,2217520644
118,21,3,ISIP_8,73,1,48,59,2218297708
118,21,3,ISIP_8,74,1,48,62,2219135608
118,21,3,ISIP_8,75,1,48,59,2219930928
118,21,3,ISIP_8,76,1,48,60,2220755636
118,21,3,ISIP_8,77,1,48,60,2221610044
118,21,3,ISIP_8,78,1,48,63,2222444952
118,21,3,ISIP_8,79,1,48,60,2223224860
118,21,3,ISIP_8,80,1,48,65,2224122496
118,21,3,ISIP_8,81,1,48,62,2224993608
118,21,3,ISIP_8,82,1,48,60,2225817796
118,21,3,ISIP_8,83,1,48,51,2226664796
118,21,3,ISIP_8,84,1,48,55,2227479408
118,21,3,ISIP_8,85,1,48,61,2228293876
118,21,3,ISIP_8,86,1,48,58,2229184748
118,21,3,ISIP_8,87,1,48,48,2229996292
118,21,3,ISIP_8,88,1,48,59,2230846512
118,21,3,ISIP_8,89,1,48,49,2231656360
118,21,3,ISIP_8,90,1,48,66,2232496032
118,21,3,ISIP_8,91,1,48,37,2232541040
118,21,3,ISIP_8,92,1,48,48,2233399860
118,21,3,ISIP_8,93,1,48,59,2234273736
118,21,3,ISIP_8,94,1,48,60,2235042128
118,21,3,ISIP_8,95,1,48,51,2235884116
118,21,3,ISIP_8,96,1,48,54,2236671056
118,21,3,ISIP_8,97,1,48,61,2237487760
118,21,3,ISIP_8,98,1,48,70,2238321852
118,21,3,ISIP_8,99,1,48,60,2239145960
118,21,3,ISIP_8,100,1,48,56,2239986456
118,21,3,ISIP_8,101,1,48,51,2240864148
118,21,3,ISIP_8,102,1,48,54,2241667016
118,21,3,ISIP_8,103,1,48,54,2242483128
118,21,3,ISIP_8,104,1,48,49,2243387580
118,21,3,ISIP_8,105,1,48,33,2244162544
118,21,3,ISIP_8,106,1,48,64,2245100828
118,21,3,ISIP_8,107,1,48,73,2245892332
118,21,3,ISIP_8,108,1,48,67,2246695868
118,21,3,ISIP_8,109,1,48,60,2247559052
118,21,3,ISIP_8,110,1,48,69,2248386772
118,21,3,ISIP_8,111,1,48,59,2249210808
118,21,3,ISIP_8,112,1,48,49,2250052728
118,21,3,ISIP_8,113,1,48,69,2250884044
118,21,3,ISIP_8,114,1,48,66,2251699556
118,21,3,ISIP_8,115,1,48,61,2252504372
118,21,3,ISIP_8,116,1,48,71,2253330352
118,21,3,ISIP_8,117,1,48,44,2253746032
118,21,3,ISIP_8,118,1,48,50,2254543368
118,21,3,ISIP_8,119,1,48,55,2255292608
118,21,3,ISIP_8,120,1,48,56,2256089496
118,21,3,ISIP_8,121,1,48,65,2256946744
118,21,3,ISIP_8,122,1,48,42,2257798332
118,21,3,ISIP_8,123,1,48,67,2258675028
118,21,3,ISIP_8,124,1,48,55,2259448500
118,21,3,ISIP_8,125,1,48,59,2260369428
118,21,3,ISIP_8,126,1,48,54,2261130564
118,21,3,ISIP_8,127,1,48,60,2261983564
118,21,3,ISIP_8,128,1,48,65,2262772664
118,21,3,ISIP_8,129,1,48,61,2263636672
118,21,3,ISIP_8,130,1,48,65,2264468188
118,21,3,ISIP_8,131,1,48,59,2265264852
118,21,3,ISIP_8,132,1,48,60,2266121432
118,21,3,ISIP_8,133,1,48,69,2266969428
118,21,3,ISIP_8,134,1,48,56,2267834004
118,21,3,ISIP_8,135,1,48,67,2268644956
118,21,3,ISIP_8,136,1,48,66,2269527140
118,21,3,ISIP_8,137,1,48,58,2270372864
118,21,3,ISIP_8,138,1,48,56,2271273200
118,21,3,ISIP_8,139,1,48,55,2272084768
118,21,3,ISIP_8,140,1,48,58,2272896616
118,21,3,ISIP_8,141,1,48,61,2273745340
118,21,3,ISIP_8,142,1,48,50,2274582240
118,21,3,ISIP_8,143,1,48,64,2275379948
118,21,3,ISIP_8,144,1,48,55,2276220840
118,21,3,ISIP_8,145,1,48,56,2277056472
118,21,3,ISIP_8,146,1,48,65,2277873936
118,21,3,ISIP_8,147,1,48,55,2278670672
118,21,3,ISIP_8,148,1,48,65,2279495332
118,21,3,ISIP_8,149,1,48,60,2280316308
118,21,3,ISIP_8,150,1,48,54,2281121720
118,21,3,ISIP_8,151,1,48,70,2281969172
118,21,3,ISIP_8,152,1,48,73,2282768076
118,21,3,ISIP_8,153,1,48,59,2283647356
118,21,3,ISIP_8,154,1,48,62,2284449324
118,21,3,ISIP_8,155,1,48,63,2285240532
118,21,3,ISIP_8,156,1,48,63,2286044524
118,21,3,ISIP_8,157,1,48,68,2286885464
118,21,3,ISIP_8,158,1,48,68,2287700400
118,21,3,ISIP_8,159,1,48,73,2288534236
118,21,3,ISIP_8,160,1,48,71,2289356776
118,21,3,ISIP_8,161,1,48,70,2290154412
118,21,3,ISIP_8,162,1,48,76,2291029192
118,21,3,ISIP_8,163,1,48,59,2291882848
118,21,3,ISIP_8,164,1,48,83,2292743616
118,21,3,ISIP_8,165,1,48,74,2293568848
118,21,3,ISIP_8,166,1,48,68,2294465764
118,21,3,ISIP_8,167,1,48,61,2295285240
118,21,3,ISIP_8,168,1,48,58,2296179312
118,21,3,ISIP_8,169,1,48,67,2297073816
118,21,3,ISIP_8,170,1,48,61,2297861720
118,21,3,ISIP_8,171,1,48,71,2298704936
118,21,3,ISIP_8,172,1,48,80,2299569132
118,21,3,ISIP_8,0,9999,9999,9999,2180371572
118,21,3,ISIP_8,1,9999,9999,9999,2181171256
118,21,3,ISIP_8,2,9999,9999,9999,2181972080
118,21,3,ISIP_8,3,9999,9999,9999,2182771808
118,21,3,ISIP_8,4,9999,9999,9999,2183571528
118,21,3,ISIP_8,5,9999,9999,9999,2184371284
118,21,3,ISIP_8,6,9999,9999,9999,2185172080
118,21,3,ISIP_8,7,9999,9999,9999,2185971796
118,21,3,ISIP_8,8,9999,9999,9999,2186771528
118,21,3,ISIP_8,9,9999,9999,9999,2187571264
118,21,3,ISIP_8,10,9999,9999,9999,2188372060
118,21,3,ISIP_8,11,9999,9999,9999,2189171800
118,21,3,ISIP_8,12,9999,9999,9999,2189971548
118,21,3,ISIP_8,13,9999,9999,9999,2190771284
118,21,3,ISIP_8,14,9999,9999,9999,2191572072
118,21,3,ISIP_8,15,9999,9999,9999,2192371824
118,21,3,ISIP_8,16,9999,9999,9999,2193171552
118,21,3,ISIP_8,17,9999,9999,9999,2193971288
118,21,3,ISIP_8,18,9999,9999,9999,2194772016
118,21,3,ISIP_8,19,9999,9999,9999,2195571824
118,21,3,ISIP_8,20,9999,9999,9999,2196371556
118,21,3,ISIP_8,21,9999,9999,9999,2197171292
118,21,3,ISIP_8,22,9999,9999,9999,2197972072
118,21,3,ISIP_8,23,9999,9999,9999,2198771808
118,21,3,ISIP_8,24,9999,9999,9999,2199571540
118,21,3,ISIP_8,25,9999,9999,9999,2200371272
118,21,3,ISIP_8,26,9999,9999,9999,2201172076
118,21,3,ISIP_8,27,9999,9999,9999,2201971816
118,21,3,ISIP_8,28,9999,9999,9999,2202771548
118,21,3,ISIP_8,29,9999,9999,9999,2203571284
118,21,3,ISIP_8,30,9999,9999,9999,2204372056
118,21,3,ISIP_8,31,9999,9999,9999,2205171792
118,21,3,ISIP_8,32,9999,9999,9999,2205971520
118,21,3,ISIP_8,33,9999,9999,9999,2206771248
118,21,3,ISIP_8,34,9999,9999,9999,2207572052
118,21,3,ISIP_8,35,9999,9999,9999,2208371780
118,21,3,ISIP_8,36,9999,9999,9999,2209171508
118,21,3,ISIP_8,37,9999,9999,9999,2209971312
118,21,3,ISIP_8,38,9999,9999,9999,2210772012
118,21,3,ISIP_8,39,9999,9999,9999,2211571816
118,21,3,ISIP_8,40,9999,9999,9999,2212371548
118,21,3,ISIP_8,41,9999,9999,9999,2213171276
118,21,3,ISIP_8,42,9999,9999,9999,2213972076
118,21,3,ISIP_8,43,9999,9999,9999,2214771804
118,21,3,ISIP_8,44,9999,9999,9999,2215571536
118,21,3,ISIP_8,45,9999,9999,9999,2216371264
118,21,3,ISIP_8,46,9999,9999,9999,2217172040
118,21,3,ISIP_8,47,9999,9999,9999,2217971772
118,21,3,ISIP_8,48,9999,9999,9999,2218771572
118,21,3,ISIP_8,49,9999,9999,9999,2219571304
118,21,3,ISIP_8,50,9999,9999,9999,2220372028
118,21,3,ISIP_8,51,9999,9999,9999,2221171760
118,21,3,ISIP_8,52,9999,9999,9999,2221971564
118,21,3,ISIP_8,53,9999,9999,9999,2222771292
118,21,3,ISIP_8,54,9999,9999,9999,2223572068
118,21,3,ISIP_8,55,9999,9999,9999,2224371796
118,21,3,ISIP_8,56,9999,9999,9999,2225171524
118,21,3,ISIP_8,57,9999,9999,9999,2225971256
118,21,3,ISIP_8,58,9999,9999,9999,2226772056
118,21,3,ISIP_8,59,9999,9999,9999,2227571800
118,21,3,ISIP_8,60,9999,9999,9999,2228371528
118,21,3,ISIP_8,61,9999,9999,9999,2229171264
118,21,3,ISIP_8,62,9999,9999,9999,2229972040
118,21,3,ISIP_8,63,9999,9999,9999,2230771772
118,21,3,ISIP_8,64,9999,9999,9999,2231571576
118,21,3,ISIP_8,65,9999,9999,9999,2232371304
118,21,3,ISIP_8,66,9999,9999,9999,2233172084
118,21,3,ISIP_8,67,9999,9999,9999,2233971812
118,21,3,ISIP_8,68,9999,9999,9999,2234771540
118,21,3,ISIP_8,69,9999,9999,9999,2235571268
118,21,3,ISIP_8,70,9999,9999,9999,2236372044
118,21,3,ISIP_8,71,9999,9999,9999,2237171776
118,21,3,ISIP_8,72,9999,9999,9999,2237971504
118,21,3,ISIP_8,73,9999,9999,9999,2238771308
118,21,3,ISIP_8,74,9999,9999,9999,2239572032
118,21,3,ISIP_8,75,9999,9999,9999,2240371764
118,21,3,ISIP_8,76,9999,9999,9999,2241171568
118,21,3,ISIP_8,77,9999,9999,9999,2241971296
118,21,3,ISIP_8,78,9999,9999,9999,2242772072
118,21,3,ISIP_8,79,9999,9999,9999,2243571804
118,21,3,ISIP_8,80,9999,9999,9999,2244371532
118,21,3,ISIP_8,81,9999,9999,9999,2245171276
118,21,3,ISIP_8,82,9999,9999,9999,2245972076
118,21,3,ISIP_8,83,9999,9999,9999,2246771804
118,21,3,ISIP_8,84,9999,9999,9999,2247571536
118,21,3,ISIP_8,85,9999,9999,9999,2248371272
118,21,3,ISIP_8,86,9999,9999,9999,2249172048
118,21,3,ISIP_8,87,9999,9999,9999,2249971776
118,21,3,ISIP_8,88,9999,9999,9999,2250771504
118,21,3,ISIP_8,89,9999,9999,9999,2251571312
118,21,3,ISIP_8,90,9999,9999,9999,2252372036
118,21,3,ISIP_8,91,9999,9999,9999,2253171764
118,21,3,ISIP_8,92,9999,9999,9999,2253971548
118,21,3,ISIP_8,93,9999,9999,9999,2254771276
118,21,3,ISIP_8,94,9999,9999,9999,2255572052
118,21,3,ISIP_8,95,9999,9999,9999,2256371780
118,21,3,ISIP_8,96,9999,9999,9999,2257171508
118,21,3,ISIP_8,97,9999,9999,9999,2257971312
118,21,3,ISIP_8,98,9999,9999,9999,2258772040
118,21,3,ISIP_8,99,9999,9999,9999,2259571768
118,21,3,ISIP_8,100,9999,9999,9999,2260371512
118,21,3,ISIP_8,101,9999,9999,9999,2261171316
118,21,3,ISIP_8,102,9999,9999,9999,2261972024
118,21,3,ISIP_8,103,9999,9999,9999,2262771828
118,21,3,ISIP_8,104,9999,9999,9999,2263571556
118,21,3,ISIP_8,105,9999,9999,9999,2264371284
118,21,3,ISIP_8,106,9999,9999,9999,2265172088
118,21,3,ISIP_8,107,9999,9999,9999,2265971816
118,21,3,ISIP_8,108,9999,9999,9999,2266771544
118,21,3,ISIP_8,109,9999,9999,9999,2267571276
118,21,3,ISIP_8,110,9999,9999,9999,2268372048
118,21,3,ISIP_8,111,9999,9999,9999,2269171780
118,21,3,ISIP_8,112,9999,9999,9999,2269971508
118,21,3,ISIP_8,113,9999,9999,9999,2270771312
118,21,3,ISIP_8,114,9999,9999,9999,2271572040
118,21,3,ISIP_8,115,9999,9999,9999,2272371768
118,21,3,ISIP_8,116,9999,9999,9999,2273171572
118,21,3,ISIP_8,117,9999,9999,9999,2273971300
118,21,3,ISIP_8,118,9999,9999,9999,2274772076
118,21,3,ISIP_8,119,9999,9999,9999,2275571804
118,21,3,ISIP_8,120,9999,9999,9999,2276371536
118,21,3,ISIP_8,121,9999,9999,9999,2277171264
118,21,3,ISIP_8,122,9999,9999,9999,2277972068
118,21,3,ISIP_8,123,9999,9999,9999,2278771796
118,21,3,ISIP_8,124,9999,9999,9999,2279571540
118,21,3,ISIP_8,125,9999,9999,9999,2280371272
118,21,3,ISIP_8,126,9999,9999,9999,2281172048
118,21,3,ISIP_8,127,9999,9999,9999,2281971780
118,21,3,ISIP_8,128,9999,9999,9999,2282771508
118,21,3,ISIP_8,129,9999,9999,9999,2283571316
118,21,3,ISIP_8,130,9999,9999,9999,2284372044
118,21,3,ISIP_8,131,9999,9999,9999,2285171772
118,21,3,ISIP_8,132,9999,9999,9999,2285971504
118,21,3,ISIP_8,133,9999,9999,9999,2286771304
118,21,3,ISIP_8,134,9999,9999,9999,2287572080
118,21,3,ISIP_8,135,9999,9999,9999,2288371808
118,21,3,ISIP_8,136,9999,9999,9999,2289171540
118,21,3,ISIP_8,137,9999,9999,9999,2289971268
118,21,3,ISIP_8,138,9999,9999,9999,2290772068
118,21,3,ISIP_8,139,9999,9999,9999,2291571796
118,21,3,ISIP_8,140,9999,9999,9999,2292371528
118,21,3,ISIP_8,141,9999,9999,9999,2293171256
118,21,3,ISIP_8,142,9999,9999,9999,2293972032
118,21,3,ISIP_8,143,9999,9999,9999,2294771760
118,21,3,ISIP_8,144,9999,9999,9999,2295571564
118,21,3,ISIP_8,145,9999,9999,9999,2296371292
118,21,3,ISIP_8,146,9999,9999,9999,2297172020
118,21,3,ISIP_8,147,9999,9999,9999,2297971824
118,21,3,ISIP_8,148,9999,9999,9999,2298771568
118,21,3,ISIP_8,149,9999,9999,9999,2299571296
118,22,11,Pattern_Practice,0,5,42,127,2409586048
118,22,11,Pattern_Practice,1,5,42,127,2410085768
118,22,11,Pattern_Practice,2,5,42,127,2410585484
118,22,11,Pattern_Practice,3,5,42,127,2411086172
118,22,11,Pattern_Practice,4,1,48,70,2411557844
118,22,11,Pattern_Practice,5,5,42,127,2411585880
118,22,11,Pattern_Practice,6,1,48,77,2411827292
118,22,11,Pattern_Practice,7,1,38,91,2412085756
118,22,11,Pattern_Practice,8,5,42,127,2412088444
118,22,11,Pattern_Practice,9,1,48,59,2412337360
118,22,11,Pattern_Practice,10,1,48,59,2412504984
118,22,11,Pattern_Practice,11,5,42,127,2412586324
118,22,11,Pattern_Practice,12,1,48,68,2412774432
118,22,11,Pattern_Practice,13,1,48,13,2412938084
118,22,11,Pattern_Practice,14,5,42,127,2413086280
118,22,11,Pattern_Practice,15,1,38,105,2413146272
118,22,11,Pattern_Practice,16,5,42,127,2413585900
118,22,11,Pattern_Practice,17,1,48,71,2413650676
118,22,11,Pattern_Practice,18,1,48,71,2413903124
118,22,11,Pattern_Practice,19,5,42,127,2414085424
118,22,11,Pattern_Practice,20,1,38,94,2414168672
118,22,11,Pattern_Practice,21,1,48,76,2414429648
118,22,11,Pattern_Practice,22,1,48,76,2414565156
118,22,11,Pattern_Practice,23,5,42,127,2414586208
118,22,11,Pattern_Practice,24,1,48,61,2414854572
118,22,11,Pattern_Practice,25,5,42,127,2415085892
118,22,11,Pattern_Practice,26,1,38,81,2415226512
118,22,11,Pattern_Practice,27,5,42,127,2415585584
118,22,11,Pattern_Practice,28,1,48,62,2415764580
118,22,11,Pattern_Practice,29,1,48,67,2416030632
118,22,11,Pattern_Practice,30,5,42,127,2416086468
118,22,11,Pattern_Practice,31,1,38,91,2416325356
118,22,11,Pattern_Practice,32,5,42,127,2416586296
118,22,11,Pattern_Practice,33,1,48,75,2416603928
118,22,11,Pattern_Practice,34,1,48,74,2416750984
118,22,11,Pattern_Practice,35,1,48,60,2417024744
118,22,11,Pattern_Practice,36,5,42,127,2417086184
118,22,11,Pattern_Practice,37,1,38,68,2417351784
118,22,11,Pattern_Practice,38,5,42,127,2417585568
118,22,11,Pattern_Practice,39,1,48,67,2417903012
118,22,11,Pattern_Practice,40,5,42,127,2418086232
118,22,11,Pattern_Practice,41,1,48,73,2418178584
118,22,11,Pattern_Practice,42,1,38,101,2418452124
118,22,11,Pattern_Practice,43,5,42,127,2418586052
118,22,11,Pattern_Practice,44,1,48,70,2418961240
118,22,11,Pattern_Practice,45,5,42,127,2419085676
118,22,11,Pattern_Practice,46,1,38,77,2419507312
118,22,11,Pattern_Practice,47,5,42,127,2419586356
118,22,11,Pattern_Practice,48,1,48,73,2420056176
118,22,11,Pattern_Practice,49,5,42,127,2420086124
118,22,11,Pattern_Practice,50,1,48,70,2420309756
118,22,11,Pattern_Practice,51,5,42,127,2420585732
118,22,11,Pattern_Practice,52,1,38,112,2420594456
118,22,11,Pattern_Practice,53,1,48,84,2420868668
118,22,11,Pattern_Practice,54,1,48,66,2421010616
118,22,11,Pattern_Practice,55,5,42,127,2421085692
118,22,11,Pattern_Practice,56,1,48,65,2421278184
118,22,11,Pattern_Practice,57,5,42,127,2421586196
118,22,11,Pattern_Practice,58,1,38,110,2421604272
118,22,11,Pattern_Practice,59,5,42,127,2422086116
118,22,11,Pattern_Practice,60,1,48,75,2422163956
118,22,11,Pattern_Practice,61,1,48,65,2422403612
118,22,11,Pattern_Practice,62,5,42,127,2422585688
118,22,11,Pattern_Practice,63,1,38,109,2422680528
118,22,11,Pattern_Practice,64,1,48,67,2422961628
118,22,11,Pattern_Practice,65,5,42,127,2423085284
118,22,11,Pattern_Practice,66,1,48,61,2423095736
118,22,11,Pattern_Practice,67,1,48,62,2423364884
118,22,11,Pattern_Practice,68,5,42,127,2423586304
118,22,11,Pattern_Practice,69,1,38,50,2423723484
118,22,11,Pattern_Practice,70,5,42,127,2424086072
118,22,11,Pattern_Practice,71,1,48,70,2424276952
118,22,11,Pattern_Practice,72,1,48,60,2424530228
118,22,11,Pattern_Practice,73,5,42,127,2424585536
118,22,11,Pattern_Practice,74,1,38,97,2424800268
118,22,11,Pattern_Practice,75,5,42,127,2425086188
118,22,11,Pattern_Practice,76,1,48,62,2425098284
118,22,11,Pattern_Practice,77,1,48,57,2425236284
118,22,11,Pattern_Practice,78,1,48,48,2425489028
118,22,11,Pattern_Practice,79,5,42,127,2425586136
118,22,11,Pattern_Practice,80,1,38,89,2425856308
118,22,11,Pattern_Practice,81,1,38,42,2425917168
118,22,11,Pattern_Practice,82,5,42,127,2426086008
118,22,11,Pattern_Practice,83,5,42,127,2426585428
118,22,11,Pattern_Practice,84,1,38,50,2426698000
118,22,11,Pattern_Practice,85,1,38,127,2426967872
118,22,11,Pattern_Practice,86,5,42,127,2427086224
118,22,11,Pattern_Practice,87,1,38,41,2427283992
118,22,11,Pattern_Practice,88,1,38,105,2427395196
118,22,11,Pattern_Practice,89,5,42,127,2427586192
118,22,11,Pattern_Practice,90,1,38,57,2427680120
118,22,11,Pattern_Practice,91,1,38,69,2427997884
118,22,11,Pattern_Practice,92,5,42,127,2428085584
118,22,11,Pattern_Practice,93,1,38,44,2428158692
118,22,11,Pattern_Practice,94,5,42,127,2428586460
118,22,11,Pattern_Practice,95,1,48,47,2428630640
118,22,11,Pattern_Practice,96,1,48,64,2428853620
118,22,11,Pattern_Practice,97,5,42,127,2429086132
118,22,11,Pattern_Practice,98,1,48,64,2429121264
118,22,11,Pattern_Practice,99,1,48,59,2429383136
118,22,11,Pattern_Practice,100,1,48,54,2429474664
118,22,11,Pattern_Practice,101,5,42,127,2429585932
118,22,11,Pattern_Practice,102,1,48,65,2429763352
118,22,11,Pattern_Practice,103,1,38,39,2430045648
118,22,11,Pattern_Practice,104,1,48,14,2430053856
118,22,11,Pattern_Practice,105,5,42,127,2430085528
118,22,11,Pattern_Practice,106,5,42,127,2430586248
118,22,11,Pattern_Practice,107,1,48,58,2430616440
118,22,11,Pattern_Practice,108,1,48,52,2430892524
118,22,11,Pattern_Practice,109,5,42,127,2431086216
118,22,11,Pattern_Practice,110,1,48,55,2431139600
118,22,11,Pattern_Practice,111,1,48,60,2431394968
118,22,11,Pattern_Practice,112,1,48,62,2431489636
118,22,11,Pattern_Practice,113,5,42,127,2431585812
118,22,11,Pattern_Practice,114,1,48,59,2431778152
118,22,11,Pattern_Practice,115,5,42,127,2432086312
118,22,11,Pattern_Practice,116,1,38,71,2432140520
118,22,11,Pattern_Practice,117,1,48,64,2432585936
118,22,11,Pattern_Practice,118,5,42,127,2432587272
118,22,11,Pattern_Practice,119,1,48,69,2432886376
118,22,11,Pattern_Practice,120,5,42,127,2433085904
118,22,11,Pattern_Practice,121,1,48,70,2433141232
118,22,11,Pattern_Practice,122,1,48,41,2433407144
118,22,11,Pattern_Practice,123,1,48,59,2433501964
118,22,11,Pattern_Practice,124,5,42,127,2433585396
118,22,11,Pattern_Practice,125,1,48,60,2433810148
118,22,11,Pattern_Practice,126,5,42,127,2434086124
118,22,11,Pattern_Practice,127,1,38,91,2434195256
118,22,11,Pattern_Practice,128,5,42,127,2434586044
118,22,11,Pattern_Practice,129,1,38,49,2434747232
118,22,11,Pattern_Practice,130,1,38,55,2435007308
118,22,11,Pattern_Practice,131,5,42,127,2435085880
118,22,11,Pattern_Practice,132,1,38,72,2435255584
118,22,11,Pattern_Practice,133,1,38,62,2435512964
118,22,11,Pattern_Practice,134,5,42,127,2435586304
118,22,11,Pattern_Practice,135,1,38,75,2435608708
118,22,11,Pattern_Practice,136,1,38,72,2435905156
118,22,11,Pattern_Practice,137,5,42,127,2436086260
118,22,11,Pattern_Practice,138,1,38,69,2436182376
118,22,11,Pattern_Practice,139,1,38,66,2436304868
118,22,11,Pattern_Practice,140,5,42,127,2436586004
118,22,11,Pattern_Practice,141,1,48,59,2436777712
118,22,11,Pattern_Practice,142,1,48,61,2437050656
118,22,11,Pattern_Practice,143,5,42,127,2437085548
118,22,11,Pattern_Practice,144,1,48,61,2437313820
118,22,11,Pattern_Practice,145,1,48,62,2437584080
118,22,11,Pattern_Practice,146,5,42,127,2437586268
118,22,11,Pattern_Practice,147,1,48,77,2437665364
118,22,11,Pattern_Practice,148,1,48,65,2437963012
118,22,11,Pattern_Practice,149,5,42,127,2438086000
118,22,11,Pattern_Practice,150,1,48,62,2438300748
118,22,11,Pattern_Practice,151,5,42,127,2438585844
118,22,11,Pattern_Practice,152,5,42,127,2439085560
118,22,11,Pattern_Practice,153,1,48,77,2439093396
118,22,11,Pattern_Practice,154,1,48,57,2439393708
118,22,11,Pattern_Practice,155,5,42,127,2439586108
118,22,11,Pattern_Practice,156,1,48,70,2439653628
118,22,11,Pattern_Practice,157,1,48,67,2439922376
118,22,11,Pattern_Practice,158,1,48,54,2440063520
118,22,11,Pattern_Practice,159,5,42,127,2440085924
118,22,11,Pattern_Practice,160,1,48,72,2440324960
118,22,11,Pattern_Practice,161,1,48,30,2440504460
118,22,11,Pattern_Practice,162,5,42,127,2440585668
118,22,11,Pattern_Practice,163,1,38,64,2440700668
118,22,11,Pattern_Practice,164,5,42,127,2441086244
118,22,11,Pattern_Practice,165,1,48,57,2441204928
118,22,11,Pattern_Practice,166,1,48,57,2441487516
118,22,11,Pattern_Practice,167,5,42,127,2441586140
118,22,11,Pattern_Practice,168,1,48,62,2441735860
118,22,11,Pattern_Practice,169,1,48,40,2442010676
118,22,11,Pattern_Practice,170,5,42,127,2442085680
118,22,11,Pattern_Practice,171,1,48,47,2442113540
118,22,11,Pattern_Practice,172,1,48,56,2442393064
118,22,11,Pattern_Practice,173,5,42,127,2442585560
118,22,11,Pattern_Practice,174,1,48,48,2442652708
118,22,11,Pattern_Practice,175,1,48,44,2442787848
118,22,11,Pattern_Practice,176,1,38,80,2442884264
118,22,11,Pattern_Practice,177,5,42,127,2443086184
118,22,11,Pattern_Practice,178,1,48,67,2443404748
118,22,11,Pattern_Practice,179,5,42,127,2443585804
118,22,11,Pattern_Practice,180,1,38,73,2443720636
118,22,11,Pattern_Practice,181,5,42,127,2444085696
118,22,11,Pattern_Practice,182,5,42,127,2444586236
118,22,11,Pattern_Practice,183,5,42,127,2445086028
118,22,11,Pattern_Practice,184,1,48,53,2445573440
118,22,11,Pattern_Practice,185,5,42,127,2445585740
118,22,11,Pattern_Practice,186,1,48,57,2445822832
118,22,11,Pattern_Practice,187,5,42,127,2446085640
118,22,11,Pattern_Practice,188,1,38,97,2446089584
118,22,11,Pattern_Practice,189,1,48,79,2446319436
118,22,11,Pattern_Practice,190,1,48,64,2446452728
118,22,11,Pattern_Practice,191,5,42,127,2446586188
118,22,11,Pattern_Practice,192,1,48,54,2446727412
118,22,11,Pattern_Practice,193,1,48,46,2447002072
118,22,11,Pattern_Practice,194,5,42,127,2447085880
118,22,11,Pattern_Practice,195,1,38,93,2447173680
118,22,11,Pattern_Practice,196,5,42,127,2447585632
118,22,11,Pattern_Practice,197,1,48,64,2447677188
118,22,11,Pattern_Practice,198,1,48,59,2447938084
118,22,11,Pattern_Practice,199,5,42,127,2448086800
118,22,11,Pattern_Practice,200,1,38,105,2448183192
118,22,11,Pattern_Practice,201,1,48,59,2448440428
118,22,11,Pattern_Practice,202,1,48,50,2448578428
118,22,11,Pattern_Practice,203,5,42,127,2448585944
118,22,11,Pattern_Practice,204,1,48,56,2448835528
118,22,11,Pattern_Practice,205,5,42,127,2449085776
118,22,11,Pattern_Practice,206,1,38,73,2449146116
118,22,11,Pattern_Practice,207,1,38,25,2449239836
118,22,11,Pattern_Practice,0,9999,9999,9999,2409583684
118,22,11,Pattern_Practice,1,9999,9999,9999,2410083404
118,22,11,Pattern_Practice,2,9999,9999,9999,2410583120
118,22,11,Pattern_Practice,3,9999,9999,9999,2411083884
118,22,11,Pattern_Practice,4,9999,9999,9999,2411583596
118,22,11,Pattern_Practice,5,9999,9999,9999,2412083320
118,22,11,Pattern_Practice,6,9999,9999,9999,2412584036
118,22,11,Pattern_Practice,7,9999,9999,9999,2413083768
118,22,11,Pattern_Practice,8,9999,9999,9999,2413583464
118,22,11,Pattern_Practice,9,9999,9999,9999,2414083136
118,22,11,Pattern_Practice,10,9999,9999,9999,2414583924
118,22,11,Pattern_Practice,11,9999,9999,9999,2415083604
118,22,11,Pattern_Practice,12,9999,9999,9999,2415583300
118,22,11,Pattern_Practice,13,9999,9999,9999,2416084032
118,22,11,Pattern_Practice,14,9999,9999,9999,2416583784
118,22,11,Pattern_Practice,15,9999,9999,9999,2417083452
118,22,11,Pattern_Practice,16,9999,9999,9999,2417583204
118,22,11,Pattern_Practice,17,9999,9999,9999,2418083948
118,22,11,Pattern_Practice,18,9999,9999,9999,2418583620
118,22,11,Pattern_Practice,19,9999,9999,9999,2419083312
118,22,11,Pattern_Practice,20,9999,9999,9999,2419584072
118,22,11,Pattern_Practice,21,9999,9999,9999,2420083764
118,22,11,Pattern_Practice,22,9999,9999,9999,2420583520
118,22,11,Pattern_Practice,23,9999,9999,9999,2421083260
118,22,11,Pattern_Practice,24,9999,9999,9999,2421583984
118,22,11,Pattern_Practice,25,9999,9999,9999,2422083680
118,22,11,Pattern_Practice,26,9999,9999,9999,2422583400
118,22,11,Pattern_Practice,27,9999,9999,9999,2423083072
118,22,11,Pattern_Practice,28,9999,9999,9999,2423583792
118,22,11,Pattern_Practice,29,9999,9999,9999,2424083560
118,22,11,Pattern_Practice,30,9999,9999,9999,2424583252
118,22,11,Pattern_Practice,31,9999,9999,9999,2425083976
118,22,11,Pattern_Practice,32,9999,9999,9999,2425583672
118,22,11,Pattern_Practice,33,9999,9999,9999,2426083424
118,22,11,Pattern_Practice,34,9999,9999,9999,2426583140
118,22,11,Pattern_Practice,35,9999,9999,9999,2427083860
118,22,11,Pattern_Practice,36,9999,9999,9999,2427583608
118,22,11,Pattern_Practice,37,9999,9999,9999,2428083296
118,22,11,Pattern_Practice,38,9999,9999,9999,2428584020
118,22,11,Pattern_Practice,39,9999,9999,9999,2429083696
118,22,11,Pattern_Practice,40,9999,9999,9999,2429583424
118,22,11,Pattern_Practice,41,9999,9999,9999,2430083168
118,22,11,Pattern_Practice,42,9999,9999,9999,2430583884
118,22,11,Pattern_Practice,43,9999,9999,9999,2431083632
118,22,11,Pattern_Practice,44,9999,9999,9999,2431583304
118,22,11,Pattern_Practice,45,9999,9999,9999,2432084028
118,22,11,Pattern_Practice,46,9999,9999,9999,2432583796
118,22,11,Pattern_Practice,47,9999,9999,9999,2433083444
118,22,11,Pattern_Practice,48,9999,9999,9999,2433583188
118,22,11,Pattern_Practice,49,9999,9999,9999,2434083912
118,22,11,Pattern_Practice,50,9999,9999,9999,2434583608
118,22,11,Pattern_Practice,51,9999,9999,9999,2435083372
118,22,11,Pattern_Practice,52,9999,9999,9999,2435584092
118,22,11,Pattern_Practice,53,9999,9999,9999,2436083824
118,22,11,Pattern_Practice,54,9999,9999,9999,2436583496
118,22,11,Pattern_Practice,55,9999,9999,9999,2437083260
118,22,11,Pattern_Practice,56,9999,9999,9999,2437583952
118,22,11,Pattern_Practice,57,9999,9999,9999,2438083640
118,22,11,Pattern_Practice,58,9999,9999,9999,2438583408
118,22,11,Pattern_Practice,59,9999,9999,9999,2439083124
118,22,11,Pattern_Practice,60,9999,9999,9999,2439583820
118,22,11,Pattern_Practice,61,9999,9999,9999,2440083560
118,22,11,Pattern_Practice,62,9999,9999,9999,2440583236
118,22,11,Pattern_Practice,63,9999,9999,9999,2441083960
118,22,11,Pattern_Practice,64,9999,9999,9999,2441583704
118,22,11,Pattern_Practice,65,9999,9999,9999,2442083392
118,22,11,Pattern_Practice,66,9999,9999,9999,2442583124
118,22,11,Pattern_Practice,67,9999,9999,9999,2443083896
118,22,11,Pattern_Practice,68,9999,9999,9999,2443583592
118,22,11,Pattern_Practice,69,9999,9999,9999,2444083260
118,22,11,Pattern_Practice,70,9999,9999,9999,2444584024
118,22,11,Pattern_Practice,71,9999,9999,9999,2445083740
118,22,11,Pattern_Practice,72,9999,9999,9999,2445583452
118,22,11,Pattern_Practice,73,9999,9999,9999,2446083132
118,22,11,Pattern_Practice,74,9999,9999,9999,2446583904
118,22,11,Pattern_Practice,75,9999,9999,9999,2447083592
118,22,11,Pattern_Practice,76,9999,9999,9999,2447583348
118,22,11,Pattern_Practice,77,9999,9999,9999,2448084068
118,22,11,Pattern_Practice,78,9999,9999,9999,2448583732
118,22,11,Pattern_Practice,79,9999,9999,9999,2449083488
118,23,13,Improv_Metronome,0,5,42,127,2491048368
118,23,13,Improv_Metronome,1,5,42,127,2491547936
118,23,13,Improv_Metronome,2,5,42,127,2492047652
118,23,13,Improv_Metronome,3,5,42,127,2492547444
118,23,13,Improv_Metronome,4,1,48,57,2492970948
118,23,13,Improv_Metronome,5,5,42,127,2493048124
118,23,13,Improv_Metronome,6,1,48,47,2493117504
118,23,13,Improv_Metronome,7,1,48,55,2493252364
118,23,13,Improv_Metronome,8,1,48,54,2493413156
118,23,13,Improv_Metronome,9,5,42,127,2493547836
118,23,13,Improv_Metronome,10,1,48,65,2493563668
118,23,13,Improv_Metronome,11,1,38,85,2493927412
118,23,13,Improv_Metronome,12,5,42,127,2494047656
118,23,13,Improv_Metronome,13,1,38,73,2494275944
118,23,13,Improv_Metronome,14,1,38,19,2494376300
118,23,13,Improv_Metronome,15,5,42,127,2494548452
118,23,13,Improv_Metronome,16,1,38,75,2494599064
118,23,13,Improv_Metronome,17,5,42,127,2495047996
118,23,13,Improv_Metronome,18,1,48,58,2495127860
118,23,13,Improv_Metronome,19,1,48,56,2495314408
118,23,13,Improv_Metronome,20,5,42,127,2495547820
118,23,13,Improv_Metronome,21,1,38,73,2495600528
118,23,13,Improv_Metronome,22,1,48,61,2495880876
118,23,13,Improv_Metronome,23,1,48,57,2496008980
118,23,13,Improv_Metronome,24,5,42,127,2496047612
118,23,13,Improv_Metronome,25,1,48,64,2496290092
118,23,13,Improv_Metronome,26,5,42,127,2496548188
118,23,13,Improv_Metronome,27,1,38,67,2496619624
118,23,13,Improv_Metronome,28,5,42,127,2497047956
118,23,13,Improv_Metronome,29,1,48,72,2497129336
118,23,13,Improv_Metronome,30,1,48,65,2497416568
118,23,13,Improv_Metronome,31,5,42,127,2497547632
118,23,13,Improv_Metronome,32,1,38,94,2497663496
118,23,13,Improv_Metronome,33,1,48,70,2497949520
118,23,13,Improv_Metronome,34,5,42,127,2498048576
118,23,13,Improv_Metronome,35,1,48,70,2498079592
118,23,13,Improv_Metronome,36,1,48,71,2498352240
118,23,13,Improv_Metronome,37,5,42,127,2498547948
118,23,13,Improv_Metronome,38,1,38,78,2498680192
118,23,13,Improv_Metronome,39,5,42,127,2499047644
118,23,13,Improv_Metronome,40,1,48,73,2499222900
118,23,13,Improv_Metronome,41,1,48,67,2499483568
118,23,13,Improv_Metronome,42,5,42,127,2499547408
118,23,13,Improv_Metronome,43,1,38,82,2499759376
118,23,13,Improv_Metronome,44,1,48,71,2500031412
118,23,13,Improv_Metronome,45,5,42,127,2500048204
118,23,13,Improv_Metronome,46,1,48,37,2500198232
118,23,13,Improv_Metronome,47,1,48,62,2500453748
118,23,13,Improv_Metronome,48,5,42,127,2500547876
118,23,13,Improv_Metronome,49,1,38,83,2500840096
118,23,13,Improv_Metronome,50,5,42,127,2501047556
118,23,13,Improv_Metronome,51,1,38,61,2501371284
118,23,13,Improv_Metronome,52,1,38,70,2501499040
118,23,13,Improv_Metronome,53,5,42,127,2501548660
118,23,13,Improv_Metronome,54,1,38,57,2501620728
118,23,13,Improv_Metronome,55,1,38,64,2501770704
118,23,13,Improv_Metronome,56,1,38,55,2501893128
118,23,13,Improv_Metronome,57,5,42,127,2502048076
118,23,13,Improv_Metronome,58,1,38,46,2502066676
118,23,13,Improv_Metronome,59,1,38,44,2502267964
118,23,13,Improv_Metronome,60,1,38,61,2502311176
118,23,13,Improv_Metronome,61,5,42,127,2502547800
118,23,13,Improv_Metronome,62,5,42,127,2503047516
118,23,13,Improv_Metronome,63,1,48,59,2503490648
118,23,13,Improv_Metronome,64,5,42,127,2503548420
118,23,13,Improv_Metronome,65,1,48,63,2503755152
118,23,13,Improv_Metronome,66,1,38,127,2504028988
118,23,13,Improv_Metronome,67,5,42,127,2504047872
118,23,13,Improv_Metronome,68,1,48,78,2504276516
118,23,13,Improv_Metronome,69,1,48,49,2504454588
118,23,13,Improv_Metronome,70,5,42,127,2504547544
118,23,13,Improv_Metronome,71,1,48,82,2504724180
118,23,13,Improv_Metronome,72,1,48,80,2505018160
118,23,13,Improv_Metronome,73,5,42,127,2505048560
118,23,13,Improv_Metronome,74,1,38,117,2505186380
118,23,13,Improv_Metronome,75,5,42,127,2505548096
118,23,13,Improv_Metronome,76,1,48,88,2505746436
118,23,13,Improv_Metronome,77,1,48,79,2506035980
118,23,13,Improv_Metronome,78,5,42,127,2506047780
118,23,13,Improv_Metronome,79,1,38,107,2506322500
118,23,13,Improv_Metronome,80,5,42,127,2506547660
118,23,13,Improv_Metronome,81,1,48,59,2506606304
118,23,13,Improv_Metronome,82,1,48,79,2506728348
118,23,13,Improv_Metronome,83,1,48,73,2507028440
118,23,13,Improv_Metronome,84,5,42,127,2507048520
118,23,13,Improv_Metronome,85,1,48,61,2507364180
118,23,13,Improv_Metronome,86,1,38,122,2507491468
118,23,13,Improv_Metronome,87,5,42,127,2507548044
118,23,13,Improv_Metronome,88,5,42,127,2508047672
118,23,13,Improv_Metronome,89,1,48,74,2508091956
118,23,13,Improv_Metronome,90,1,48,76,2508341536
118,23,13,Improv_Metronome,91,5,42,127,2508547420
118,23,13,Improv_Metronome,92,1,38,92,2508637028
118,23,13,Improv_Metronome,93,1,48,70,2508910120
118,23,13,Improv_Metronome,94,1,48,72,2509041892
118,23,13,Improv_Metronome,95,5,42,127,2509048356
118,23,13,Improv_Metronome,96,1,48,68,2509331376
118,23,13,Improv_Metronome,97,5,42,127,2509547884
118,23,13,Improv_Metronome,98,1,48,66,2509589676
118,23,13,Improv_Metronome,99,1,38,95,2509765524
118,23,13,Improv_Metronome,100,5,42,127,2510047484
118,23,13,Improv_Metronome,101,1,38,53,2510369340
118,23,13,Improv_Metronome,102,5,42,127,2510548448
118,23,13,Improv_Metronome,103,1,38,61,2510621732
118,23,13,Improv_Metronome,104,1,48,103,2510905164
118,23,13,Improv_Metronome,105,1,48,80,2511035288
118,23,13,Improv_Metronome,106,5,42,127,2511048260
118,23,13,Improv_Metronome,107,1,38,79,2511367108
118,23,13,Improv_Metronome,108,1,38,63,2511541472
118,23,13,Improv_Metronome,109,5,42,127,2511547932
118,23,13,Improv_Metronome,110,1,38,94,2511854440
118,23,13,Improv_Metronome,111,5,42,127,2512047464
118,23,13,Improv_Metronome,112,5,42,127,2512548448
118,23,13,Improv_Metronome,113,1,38,61,2512749356
118,23,13,Improv_Metronome,114,1,38,57,2513023644
118,23,13,Improv_Metronome,115,5,42,127,2513047840
118,23,13,Improv_Metronome,116,1,38,91,2513301916
118,23,13,Improv_Metronome,117,5,42,127,2513547744
118,23,13,Improv_Metronome,118,1,38,51,2513565300
118,23,13,Improv_Metronome,119,1,38,69,2513689668
118,23,13,Improv_Metronome,120,1,38,61,2513985600
118,23,13,Improv_Metronome,121,5,42,127,2514048312
118,23,13,Improv_Metronome,122,1,38,75,2514247332
118,23,13,Improv_Metronome,123,1,38,65,2514377384
118,23,13,Improv_Metronome,124,5,42,127,2514548040
118,23,13,Improv_Metronome,125,1,38,61,2514691480
118,23,13,Improv_Metronome,126,1,48,104,2515004540
118,23,13,Improv_Metronome,127,5,42,127,2515047728
118,23,13,Improv_Metronome,128,1,48,83,2515307264
118,23,13,Improv_Metronome,129,5,42,127,2515547556
118,23,13,Improv_Metronome,130,1,48,94,2515612308
118,23,13,Improv_Metronome,131,1,38,66,2515875304
118,23,13,Improv_Metronome,132,1,48,83,2516010960
118,23,13,Improv_Metronome,133,5,42,127,2516048196
118,23,13,Improv_Metronome,134,1,38,72,2516324260
118,23,13,Improv_Metronome,135,5,42,127,2516548024
118,23,13,Improv_Metronome,136,1,48,71,2516643520
118,23,13,Improv_Metronome,137,1,38,72,2516822292
118,23,13,Improv_Metronome,138,5,42,127,2517047596
118,23,13,Improv_Metronome,139,1,38,63,2517435456
118,23,13,Improv_Metronome,140,5,42,127,2517548340
118,23,13,Improv_Metronome,141,1,38,57,2517705196
118,23,13,Improv_Metronome,142,1,38,82,2517992196
118,23,13,Improv_Metronome,143,5,42,127,2518048104
118,23,13,Improv_Metronome,144,1,38,61,2518264860
118,23,13,Improv_Metronome,145,1,38,77,2518398224
118,23,13,Improv_Metronome,146,5,42,127,2518547912
118,23,13,Improv_Metronome,147,1,38,58,2518688456
118,23,13,Improv_Metronome,148,1,38,83,2518974116
118,23,13,Improv_Metronome,149,5,42,127,2519047524
118,23,13,Improv_Metronome,150,1,38,65,2519092592
118,23,13,Improv_Metronome,151,1,38,72,2519299188
118,23,13,Improv_Metronome,152,5,42,127,2519548304
118,23,13,Improv_Metronome,153,1,48,83,2519666560
118,23,13,Improv_Metronome,154,1,48,50,2519871064
118,23,13,Improv_Metronome,155,5,42,127,2520048052
118,23,13,Improv_Metronome,156,1,48,67,2520142900
118,23,13,Improv_Metronome,157,1,48,71,2520243556
118,23,13,Improv_Metronome,158,5,42,127,2520547576
118,23,13,Improv_Metronome,159,1,48,79,2520548540
118,23,13,Improv_Metronome,160,5,42,127,2521048540
118,23,13,Improv_Metronome,161,1,48,70,2521218560
118,23,13,Improv_Metronome,162,1,48,68,2521511620
118,23,13,Improv_Metronome,163,5,42,127,2521548080
118,23,13,Improv_Metronome,164,5,42,127,2522048004
118,23,13,Improv_Metronome,165,1,48,67,2522094136
118,23,13,Improv_Metronome,166,1,48,68,2522377324
118,23,13,Improv_Metronome,167,5,42,127,2522547600
118,23,13,Improv_Metronome,168,1,38,104,2522661272
118,23,13,Improv_Metronome,169,1,48,81,2522940896
118,23,13,Improv_Metronome,170,5,42,127,2523048248
118,23,13,Improv_Metronome,171,1,48,68,2523092728
118,23,13,Improv_Metronome,172,1,48,79,2523364996
118,23,13,Improv_Metronome,173,5,42,127,2523547920
118,23,13,Improv_Metronome,174,1,48,67,2523651940
118,23,13,Improv_Metronome,175,1,38,80,2523829888
118,23,13,Improv_Metronome,176,5,42,127,2524047668
118,23,13,Improv_Metronome,177,1,48,86,2524137028
118,23,13,Improv_Metronome,178,1,48,78,2524410344
118,23,13,Improv_Metronome,179,5,42,127,2524547416
118,23,13,Improv_Metronome,180,1,48,67,2524695720
118,23,13,Improv_Metronome,181,1,38,96,2525003756
118,23,13,Improv_Metronome,182,5,42,127,2525048148
118,23,13,Improv_Metronome,183,1,48,75,2525288464
118,23,13,Improv_Metronome,184,1,48,69,2525444844
118,23,13,Improv_Metronome,185,5,42,127,2525547956
118,23,13,Improv_Metronome,186,1,48,80,2525723036
118,23,13,Improv_Metronome,187,1,48,80,2526007116
118,23,13,Improv_Metronome,188,5,42,127,2526047496
118,23,13,Improv_Metronome,189,1,48,47,2526128836
118,23,13,Improv_Metronome,190,1,38,103,2526190152
118,23,13,Improv_Metronome,191,5,42,127,2526548336
118,23,13,Improv_Metronome,192,1,48,67,2526760512
118,23,13,Improv_Metronome,193,1,48,83,2527046212
118,23,13,Improv_Metronome,194,5,42,127,2527047876
118,23,13,Improv_Metronome,195,1,38,97,2527334712
118,23,13,Improv_Metronome,196,5,42,127,2527547704
118,23,13,Improv_Metronome,197,1,48,75,2527600488
118,23,13,Improv_Metronome,198,1,48,61,2527764948
118,23,13,Improv_Metronome,199,5,42,127,2528047500
118,23,13,Improv_Metronome,200,1,48,66,2528058500
118,23,13,Improv_Metronome,201,1,48,67,2528393144
118,23,13,Improv_Metronome,202,1,38,104,2528545264
118,23,13,Improv_Metronome,203,5,42,127,2528548216
118,23,13,Improv_Metronome,204,5,42,127,2529047916
118,23,13,Improv_Metronome,205,1,48,95,2529118900
118,23,13,Improv_Metronome,206,1,38,97,2529300044
118,23,13,Improv_Metronome,207,5,42,127,2529547740
118,23,13,Improv_Metronome,208,1,48,85,2529598608
118,23,13,Improv_Metronome,209,1,38,70,2529742496
118,23,13,Improv_Metronome,210,1,48,77,2530045652
118,23,13,Improv_Metronome,211,5,42,127,2530048304
118,23,13,Improv_Metronome,212,1,38,108,2530184280
118,23,13,Improv_Metronome,213,1,48,87,2530479132
118,23,13,Improv_Metronome,214,5,42,127,2530548052
118,23,13,Improv_Metronome,215,1,38,103,2530633084
118,23,13,Improv_Metronome,216,5,42,127,2531047956
118,23,13,Improv_Metronome,217,5,42,127,2531547672
118,23,13,Improv_Metronome,218,1,48,87,2531581908
118,23,13,Improv_Metronome,219,1,48,80,2531853652
118,23,13,Improv_Metronome,220,5,42,127,2532048092
118,23,13,Improv_Metronome,221,1,38,116,2532143216
118,23,13,Improv_Metronome,222,1,48,81,2532409596
118,23,13,Improv_Metronome,223,5,42,127,2532547992
118,23,13,Improv_Metronome,224,1,48,61,2532589108
118,23,13,Improv_Metronome,225,1,48,80,2532881944
118,23,13,Improv_Metronome,226,5,42,127,2533047736
118,23,13,Improv_Metronome,227,1,48,78,2533172852
118,23,13,Improv_Metronome,228,1,38,98,2533371072
118,23,13,Improv_Metronome,229,5,42,127,2533548384
118,23,13,Improv_Metronome,230,1,48,85,2533960320
118,23,13,Improv_Metronome,231,5,42,127,2534048020
118,23,13,Improv_Metronome,232,1,48,89,2534248388
118,23,13,Improv_Metronome,233,1,38,113,2534541148
118,23,13,Improv_Metronome,234,5,42,127,2534547768
118,23,13,Improv_Metronome,235,1,48,71,2534827720
118,23,13,Improv_Metronome,236,1,48,71,2534990184
118,23,13,Improv_Metronome,237,5,42,127,2535047664
118,23,13,Improv_Metronome,238,1,48,65,2535293064
118,23,13,Improv_Metronome,239,5,42,127,2535548240
118,23,13,Improv_Metronome,240,1,48,81,2535578360
118,23,13,Improv_Metronome,241,1,38,114,2535767156
118,23,13,Improv_Metronome,242,5,42,127,2536047912
118,23,13,Improv_Metronome,243,1,48,84,2536391236
118,23,13,Improv_Metronome,244,5,42,127,2536547608
118,23,13,Improv_Metronome,245,1,48,81,2536674740
118,23,13,Improv_Metronome,246,1,38,98,2536991812
118,23,13,Improv_Metronome,247,5,42,127,2537048340
118,23,13,Improv_Metronome,248,1,48,88,2537286112
118,23,13,Improv_Metronome,249,1,48,73,2537451988
118,23,13,Improv_Metronome,250,5,42,127,2537548088
118,23,13,Improv_Metronome,251,1,48,83,2537742600
118,23,13,Improv_Metronome,252,1,48,80,2538039024
118,23,13,Improv_Metronome,253,5,42,127,2538047812
118,23,13,Improv_Metronome,254,1,38,92,2538200140
118,23,13,Improv_Metronome,255,5,42,127,2538547840
118,23,13,Improv_Metronome,256,1,38,72,2538825368
118,23,13,Improv_Metronome,257,1,38,70,2538959380
118,23,13,Improv_Metronome,258,5,42,127,2539048276
118,23,13,Improv_Metronome,259,1,38,54,2539292476
118,23,13,Improv_Metronome,260,1,38,87,2539414176
118,23,13,Improv_Metronome,261,5,42,127,2539548008
118,23,13,Improv_Metronome,262,1,38,75,2539731716
118,23,13,Improv_Metronome,263,1,38,93,2539869496
118,23,13,Improv_Metronome,264,5,42,127,2540047832
118,23,13,Improv_Metronome,265,1,38,74,2540196680
118,23,13,Improv_Metronome,266,1,38,127,2540330248
118,23,13,Improv_Metronome,267,5,42,127,2540547728
118,23,13,Improv_Metronome,268,1,48,127,2540667332
118,23,13,Improv_Metronome,269,5,42,127,2541048168
118,23,13,Improv_Metronome,270,1,48,98,2541261948
118,23,13,Improv_Metronome,271,5,42,127,2541548012
118,23,13,Improv_Metronome,272,1,48,96,2541576188
118,23,13,Improv_Metronome,273,1,38,127,2541858928
118,23,13,Improv_Metronome,274,5,42,127,2542047760
118,23,13,Improv_Metronome,275,1,48,101,2542178660
118,23,13,Improv_Metronome,276,1,48,74,2542330928
118,23,13,Improv_Metronome,277,5,42,127,2542548328
118,23,13,Improv_Metronome,278,1,48,85,2542647440
118,23,13,Improv_Metronome,279,1,48,102,2542942744
118,23,13,Improv_Metronome,280,5,42,127,2543048076
118,23,13,Improv_Metronome,281,1,38,102,2543126216
118,23,13,Improv_Metronome,282,5,42,127,2543547696
118,23,13,Improv_Metronome,283,1,48,105,2543702160
118,23,13,Improv_Metronome,284,1,48,100,2544013092
118,23,13,Improv_Metronome,285,5,42,127,2544047756
118,23,13,Improv_Metronome,286,1,38,92,2544318360
118,23,13,Improv_Metronome,287,5,42,127,2544548112
118,23,13,Improv_Metronome,288,1,48,79,2544619292
118,23,13,Improv_Metronome,289,1,48,81,2544777644
118,23,13,Improv_Metronome,290,5,42,127,2545047784
118,23,13,Improv_Metronome,291,1,48,79,2545084564
118,23,13,Improv_Metronome,292,1,48,96,2545384276
118,23,13,Improv_Metronome,293,5,42,127,2545547828
118,23,13,Improv_Metronome,294,1,38,100,2545554988
118,23,13,Improv_Metronome,295,5,42,127,2546048420
118,23,13,Improv_Metronome,296,1,48,95,2546153644
118,23,13,Improv_Metronome,297,1,48,95,2546454180
118,23,13,Improv_Metronome,298,5,42,127,2546548032
118,23,13,Improv_Metronome,299,1,38,111,2546743692
118,23,13,Improv_Metronome,300,5,42,127,2547047712
118,23,13,Improv_Metronome,301,1,48,90,2547049124
118,23,13,Improv_Metronome,302,1,48,68,2547223744
118,23,13,Improv_Metronome,303,1,48,81,2547514660
118,23,13,Improv_Metronome,304,5,42,127,2547547748
118,23,13,Improv_Metronome,305,1,48,92,2547819856
118,23,13,Improv_Metronome,306,1,38,105,2548012440
118,23,13,Improv_Metronome,307,5,42,127,2548048396
118,23,13,Improv_Metronome,308,5,42,127,2548547876
118,23,13,Improv_Metronome,309,1,38,77,2548604404
118,23,13,Improv_Metronome,310,1,38,82,2548728996
118,23,13,Improv_Metronome,311,1,48,127,2549032600
118,23,13,Improv_Metronome,312,5,42,127,2549047616
118,23,13,Improv_Metronome,313,1,48,119,2549113328
118,23,13,Improv_Metronome,314,1,38,66,2549487020
118,23,13,Improv_Metronome,315,5,42,127,2549548536
118,23,13,Improv_Metronome,316,1,38,97,2549580684
118,23,13,Improv_Metronome,317,1,48,122,2549939044
118,23,13,Improv_Metronome,318,1,48,121,2550037232
118,23,13,Improv_Metronome,319,5,42,127,2550048188
118,23,13,Improv_Metronome,320,1,38,82,2550413284
118,23,13,Improv_Metronome,321,5,42,127,2550547792
118,23,13,Improv_Metronome,322,1,38,101,2550713020
118,23,13,Improv_Metronome,323,5,42,127,2551047636
118,23,13,Improv_Metronome,324,1,48,106,2551057564
118,23,13,Improv_Metronome,325,1,48,105,2551318760
118,23,13,Improv_Metronome,326,5,42,127,2551548356
118,23,13,Improv_Metronome,327,1,38,127,2551618516
118,23,13,Improv_Metronome,328,1,48,92,2551900960
118,23,13,Improv_Metronome,329,5,42,127,2552047956
118,23,13,Improv_Metronome,330,1,48,81,2552074184
118,23,13,Improv_Metronome,331,1,48,92,2552391884
118,23,13,Improv_Metronome,332,5,42,127,2552547704
118,23,13,Improv_Metronome,333,1,48,96,2552667456
118,23,13,Improv_Metronome,334,1,38,97,2552845456
118,23,13,Improv_Metronome,335,5,42,127,2553048496
118,23,13,Improv_Metronome,336,1,48,109,2553406132
118,23,13,Improv_Metronome,337,5,42,127,2553548044
118,23,13,Improv_Metronome,338,1,48,79,2553713496
118,23,13,Improv_Metronome,339,1,38,78,2554019272
118,23,13,Improv_Metronome,340,5,42,127,2554047880
118,23,13,Improv_Metronome,341,1,48,103,2554331800
118,23,13,Improv_Metronome,342,1,48,84,2554516176
118,23,13,Improv_Metronome,343,5,42,127,2554547628
118,23,13,Improv_Metronome,344,1,48,81,2554825560
118,23,13,Improv_Metronome,345,5,42,127,2555048428
118,23,13,Improv_Metronome,346,1,48,100,2555146468
118,23,13,Improv_Metronome,347,1,38,93,2555312892
118,23,13,Improv_Metronome,348,5,42,127,2555547876
118,23,13,Improv_Metronome,349,1,48,72,2555877212
118,23,13,Improv_Metronome,350,5,42,127,2556047644
118,23,13,Improv_Metronome,351,1,48,97,2556169244
118,23,13,Improv_Metronome,352,1,38,84,2556471608
118,23,13,Improv_Metronome,353,5,42,127,2556547332
118,23,13,Improv_Metronome,354,1,48,95,2556770288
118,23,13,Improv_Metronome,355,1,48,82,2556943652
118,23,13,Improv_Metronome,356,5,42,127,2557048260
118,23,13,Improv_Metronome,357,1,48,89,2557224168
118,23,13,Improv_Metronome,358,1,48,84,2557532880
118,23,13,Improv_Metronome,359,5,42,127,2557547876
118,23,13,Improv_Metronome,360,1,38,84,2557681276
118,23,13,Improv_Metronome,361,5,42,127,2558047628
118,23,13,Improv_Metronome,362,1,48,98,2558297900
118,23,13,Improv_Metronome,363,1,38,83,2558438348
118,23,13,Improv_Metronome,364,5,42,127,2558548420
118,23,13,Improv_Metronome,365,1,48,110,2558793164
118,23,13,Improv_Metronome,366,1,38,99,2558942512
118,23,13,Improv_Metronome,367,5,42,127,2559048244
118,23,13,Improv_Metronome,368,1,48,97,2559255936
118,23,13,Improv_Metronome,369,1,38,125,2559438516
118,23,13,Improv_Metronome,370,5,42,127,2559547764
118,23,13,Improv_Metronome,371,1,48,98,2559750148
118,23,13,Improv_Metronome,372,1,38,120,2559917992
118,23,13,Improv_Metronome,373,5,42,127,2560047564
118,23,13,Improv_Metronome,374,1,48,97,2560282504
118,23,13,Improv_Metronome,375,5,42,127,2560548232
118,23,13,Improv_Metronome,376,1,48,95,2560596776
118,23,13,Improv_Metronome,377,1,48,83,2560947056
118,23,13,Improv_Metronome,0,9999,9999,9999,2491046008
118,23,13,Improv_Metronome,1,9999,9999,9999,2491545648
118,23,13,Improv_Metronome,2,9999,9999,9999,2492045368
118,23,13,Improv_Metronome,3,9999,9999,9999,2492545084
118,23,13,Improv_Metronome,4,9999,9999,9999,2493045840
118,23,13,Improv_Metronome,5,9999,9999,9999,2493545548
118,23,13,Improv_Metronome,6,9999,9999,9999,2494045296
118,23,13,Improv_Metronome,7,9999,9999,9999,2494546016
118,23,13,Improv_Metronome,8,9999,9999,9999,2495045712
118,23,13,Improv_Metronome,9,9999,9999,9999,2495545460
118,23,13,Improv_Metronome,10,9999,9999,9999,2496045176
118,23,13,Improv_Metronome,11,9999,9999,9999,2496545900
118,23,13,Improv_Metronome,12,9999,9999,9999,2497045596
118,23,13,Improv_Metronome,13,9999,9999,9999,2497545272
118,23,13,Improv_Metronome,14,9999,9999,9999,2498046064
118,23,13,Improv_Metronome,15,9999,9999,9999,2498545736
118,23,13,Improv_Metronome,16,9999,9999,9999,2499045432
118,23,13,Improv_Metronome,17,9999,9999,9999,2499545196
118,23,13,Improv_Metronome,18,9999,9999,9999,2500045916
118,23,13,Improv_Metronome,19,9999,9999,9999,2500545592
118,23,13,Improv_Metronome,20,9999,9999,9999,2501045344
118,23,13,Improv_Metronome,21,9999,9999,9999,2501546076
118,23,13,Improv_Metronome,22,9999,9999,9999,2502045788
118,23,13,Improv_Metronome,23,9999,9999,9999,2502545512
118,23,13,Improv_Metronome,24,9999,9999,9999,2503045232
118,23,13,Improv_Metronome,25,9999,9999,9999,2503545912
118,23,13,Improv_Metronome,26,9999,9999,9999,2504045660
118,23,13,Improv_Metronome,27,9999,9999,9999,2504545336
118,23,13,Improv_Metronome,28,9999,9999,9999,2505046128
118,23,13,Improv_Metronome,29,9999,9999,9999,2505545808
118,23,13,Improv_Metronome,30,9999,9999,9999,2506045496
118,23,13,Improv_Metronome,31,9999,9999,9999,2506545224
118,23,13,Improv_Metronome,32,9999,9999,9999,2507045936
118,23,13,Improv_Metronome,33,9999,9999,9999,2507545684
118,23,13,Improv_Metronome,34,9999,9999,9999,2508045384
118,23,13,Improv_Metronome,35,9999,9999,9999,2508545132
118,23,13,Improv_Metronome,36,9999,9999,9999,2509045848
118,23,13,Improv_Metronome,37,9999,9999,9999,2509545524
118,23,13,Improv_Metronome,38,9999,9999,9999,2510045272
118,23,13,Improv_Metronome,39,9999,9999,9999,2510546012
118,23,13,Improv_Metronome,40,9999,9999,9999,2511045752
118,23,13,Improv_Metronome,41,9999,9999,9999,2511545424
118,23,13,Improv_Metronome,42,9999,9999,9999,2512045176
118,23,13,Improv_Metronome,43,9999,9999,9999,2512545864
118,23,13,Improv_Metronome,44,9999,9999,9999,2513045556
118,23,13,Improv_Metronome,45,9999,9999,9999,2513545308
118,23,13,Improv_Metronome,46,9999,9999,9999,2514046024
118,23,13,Improv_Metronome,47,9999,9999,9999,2514545756
118,23,13,Improv_Metronome,48,9999,9999,9999,2515045444
118,23,13,Improv_Metronome,49,9999,9999,9999,2515545196
118,23,13,Improv_Metronome,50,9999,9999,9999,2516045908
118,23,13,Improv_Metronome,51,9999,9999,9999,2516545588
118,23,13,Improv_Metronome,52,9999,9999,9999,2517045312
118,23,13,Improv_Metronome,53,9999,9999,9999,2517546052
118,23,13,Improv_Metronome,54,9999,9999,9999,2518045816
118,23,13,Improv_Metronome,55,9999,9999,9999,2518545476
118,23,13,Improv_Metronome,56,9999,9999,9999,2519045240
118,23,13,Improv_Metronome,57,9999,9999,9999,2519545940
118,23,13,Improv_Metronome,58,9999,9999,9999,2520045616
118,23,13,Improv_Metronome,59,9999,9999,9999,2520545364
118,23,13,Improv_Metronome,60,9999,9999,9999,2521046104
118,23,13,Improv_Metronome,61,9999,9999,9999,2521545792
118,23,13,Improv_Metronome,62,9999,9999,9999,2522045496
118,23,13,Improv_Metronome,63,9999,9999,9999,2522545240
118,23,13,Improv_Metronome,64,9999,9999,9999,2523045960
118,23,13,Improv_Metronome,65,9999,9999,9999,2523545708
118,23,13,Improv_Metronome,66,9999,9999,9999,2524045380
118,23,13,Improv_Metronome,67,9999,9999,9999,2524545128
118,23,13,Improv_Metronome,68,9999,9999,9999,2525045860
118,23,13,Improv_Metronome,69,9999,9999,9999,2525545520
118,23,13,Improv_Metronome,70,9999,9999,9999,2526045284
118,23,13,Improv_Metronome,71,9999,9999,9999,2526545976
118,23,13,Improv_Metronome,72,9999,9999,9999,2527045688
118,23,13,Improv_Metronome,73,9999,9999,9999,2527545416
118,23,13,Improv_Metronome,74,9999,9999,9999,2528045140
118,23,13,Improv_Metronome,75,9999,9999,9999,2528545856
118,23,13,Improv_Metronome,76,9999,9999,9999,2529045556
118,23,13,Improv_Metronome,77,9999,9999,9999,2529545304
118,23,13,Improv_Metronome,78,9999,9999,9999,2530046020
118,23,13,Improv_Metronome,79,9999,9999,9999,2530545768
118,23,13,Improv_Metronome,80,9999,9999,9999,2531045444
118,23,13,Improv_Metronome,81,9999,9999,9999,2531545164
118,23,13,Improv_Metronome,82,9999,9999,9999,2532045880
118,23,13,Improv_Metronome,83,9999,9999,9999,2532545628
118,23,13,Improv_Metronome,84,9999,9999,9999,2533045304
118,23,13,Improv_Metronome,85,9999,9999,9999,2533546096
118,23,13,Improv_Metronome,86,9999,9999,9999,2534045808
118,23,13,Improv_Metronome,87,9999,9999,9999,2534545480
118,23,13,Improv_Metronome,88,9999,9999,9999,2535045228
118,23,13,Improv_Metronome,89,9999,9999,9999,2535545952
118,23,13,Improv_Metronome,90,9999,9999,9999,2536045628
118,23,13,Improv_Metronome,91,9999,9999,9999,2536545396
118,23,13,Improv_Metronome,92,9999,9999,9999,2537046128
118,23,13,Improv_Metronome,93,9999,9999,9999,2537545800
118,23,13,Improv_Metronome,94,9999,9999,9999,2538045528
118,23,13,Improv_Metronome,95,9999,9999,9999,2538545256
118,23,13,Improv_Metronome,96,9999,9999,9999,2539045988
118,23,13,Improv_Metronome,97,9999,9999,9999,2539545720
118,23,13,Improv_Metronome,98,9999,9999,9999,2540045396
118,23,13,Improv_Metronome,99,9999,9999,9999,2540545144
118,23,13,Improv_Metronome,100,9999,9999,9999,2541045808
118,23,13,Improv_Metronome,101,9999,9999,9999,2541545580
118,23,13,Improv_Metronome,102,9999,9999,9999,2542045252
118,23,13,Improv_Metronome,103,9999,9999,9999,2542545968
118,23,13,Improv_Metronome,104,9999,9999,9999,2543045716
118,23,13,Improv_Metronome,105,9999,9999,9999,2543545408
118,23,13,Improv_Metronome,106,9999,9999,9999,2544045172
118,23,13,Improv_Metronome,107,9999,9999,9999,2544545900
118,23,13,Improv_Metronome,108,9999,9999,9999,2545045572
118,23,13,Improv_Metronome,109,9999,9999,9999,2545545320
118,23,13,Improv_Metronome,110,9999,9999,9999,2546046060
118,23,13,Improv_Metronome,111,9999,9999,9999,2546545748
118,23,13,Improv_Metronome,112,9999,9999,9999,2547045428
118,23,13,Improv_Metronome,113,9999,9999,9999,2547545168
118,23,13,Improv_Metronome,114,9999,9999,9999,2548045888
118,23,13,Improv_Metronome,115,9999,9999,9999,2548545592
118,23,13,Improv_Metronome,116,9999,9999,9999,2549045308
118,23,13,Improv_Metronome,117,9999,9999,9999,2549546100
118,23,13,Improv_Metronome,118,9999,9999,9999,2550045752
118,23,13,Improv_Metronome,119,9999,9999,9999,2550545504
118,23,13,Improv_Metronome,120,9999,9999,9999,2551045200
118,23,13,Improv_Metronome,121,9999,9999,9999,2551545920
118,23,13,Improv_Metronome,122,9999,9999,9999,2552045668
118,23,13,Improv_Metronome,123,9999,9999,9999,2552545340
118,23,13,Improv_Metronome,124,9999,9999,9999,2553046136
118,23,13,Improv_Metronome,125,9999,9999,9999,2553545832
118,23,13,Improv_Metronome,126,9999,9999,9999,2554045520
118,23,13,Improv_Metronome,127,9999,9999,9999,2554545264
118,23,13,Improv_Metronome,128,9999,9999,9999,2555045992
118,23,13,Improv_Metronome,129,9999,9999,9999,2555545664
118,23,13,Improv_Metronome,130,9999,9999,9999,2556045432
118,23,13,Improv_Metronome,131,9999,9999,9999,2556545124
118,23,13,Improv_Metronome,132,9999,9999,9999,2557045824
118,23,13,Improv_Metronome,133,9999,9999,9999,2557545588
118,23,13,Improv_Metronome,134,9999,9999,9999,2558045268
118,23,13,Improv_Metronome,135,9999,9999,9999,2558545984
118,23,13,Improv_Metronome,136,9999,9999,9999,2559045732
118,23,13,Improv_Metronome,137,9999,9999,9999,2559545404
118,23,13,Improv_Metronome,138,9999,9999,9999,2560045128
118,23,13,Improv_Metronome,139,9999,9999,9999,2560545868
118,24,14,Improv_Melody,0,2,48,80,2617656504
118,24,14,Improv_Melody,1,2,72,80,2617659172
118,24,14,Improv_Melody,2,5,42,127,2617660888
118,24,14,Improv_Melody,3,5,42,110,2618154304
118,24,14,Improv_Melody,4,5,42,110,2618654100
118,24,14,Improv_Melody,5,5,42,110,2619153896
118,24,14,Improv_Melody,6,5,42,127,2619653544
118,24,14,Improv_Melody,7,5,42,110,2620154160
118,24,14,Improv_Melody,8,5,42,110,2620654032
118,24,14,Improv_Melody,9,5,42,110,2621153528
118,24,14,Improv_Melody,10,2,43,80,2621656872
118,24,14,Improv_Melody,11,2,67,80,2621658952
118,24,14,Improv_Melody,12,5,42,127,2621661420
118,24,14,Improv_Melody,13,5,42,110,2622154036
118,24,14,Improv_Melody,14,5,42,110,2622653904
118,24,14,Improv_Melody,15,5,42,110,2623153476
118,24,14,Improv_Melody,16,5,42,127,2623654172
118,24,14,Improv_Melody,17,5,42,110,2624153968
118,24,14,Improv_Melody,18,5,42,110,2624653764
118,24,14,Improv_Melody,19,5,42,110,2625154384
118,24,14,Improv_Melody,20,2,45,80,2625656604
118,24,14,Improv_Melody,21,2,69,80,2625658756
118,24,14,Improv_Melody,22,5,42,127,2625661224
118,24,14,Improv_Melody,23,5,42,110,2626153916
118,24,14,Improv_Melody,24,5,42,110,2626653636
118,24,14,Improv_Melody,25,5,42,110,2627154332
118,24,14,Improv_Melody,26,5,42,127,2627653976
118,24,14,Improv_Melody,27,5,42,110,2628153848
118,24,14,Improv_Melody,28,5,42,110,2628653620
118,24,14,Improv_Melody,29,5,42,110,2629154016
118,24,14,Improv_Melody,30,2,41,80,2629656312
118,24,14,Improv_Melody,31,2,65,80,2629658612
118,24,14,Improv_Melody,32,5,42,127,2629661080
118,24,14,Improv_Melody,33,5,42,110,2630153696
118,24,14,Improv_Melody,34,5,42,110,2630654464
118,24,14,Improv_Melody,35,5,42,110,2631153964
118,24,14,Improv_Melody,36,5,42,127,2631653760
118,24,14,Improv_Melody,37,5,42,110,2632153556
118,24,14,Improv_Melody,38,5,42,110,2632654248
118,24,14,Improv_Melody,39,5,42,110,2633153820
118,24,14,Improv_Melody,40,1,48,73,2633632404
118,24,14,Improv_Melody,41,2,48,80,2633656112
118,24,14,Improv_Melody,42,2,72,80,2633658336
118,24,14,Improv_Melody,43,5,42,127,2633660804
118,24,14,Improv_Melody,44,1,48,54,2633920188
118,24,14,Improv_Melody,45,5,42,110,2634154432
118,24,14,Improv_Melody,46,1,38,91,2634196224
118,24,14,Improv_Melody,47,1,48,86,2634429288
118,24,14,Improv_Melody,48,1,48,68,2634599836
118,24,14,Improv_Melody,49,5,42,110,2634654028
118,24,14,Improv_Melody,50,1,48,78,2634876312
118,24,14,Improv_Melody,51,1,48,82,2635151592
118,24,14,Improv_Melody,52,5,42,110,2635153708
118,24,14,Improv_Melody,53,1,38,127,2635315332
118,24,14,Improv_Melody,54,5,42,127,2635653544
118,24,14,Improv_Melody,55,1,48,75,2635857220
118,24,14,Improv_Melody,56,5,42,110,2636154360
118,24,14,Improv_Melody,57,1,48,76,2636155476
118,24,14,Improv_Melody,58,1,38,127,2636453088
118,24,14,Improv_Melody,59,5,42,110,2636653892
118,24,14,Improv_Melody,60,1,48,67,2636750284
118,24,14,Improv_Melody,61,1,48,67,2636906236
118,24,14,Improv_Melody,62,5,42,110,2637153572
118,24,14,Improv_Melody,63,1,48,65,2637194160
118,24,14,Improv_Melody,64,1,48,65,2637478320
118,24,14,Improv_Melody,65,1,38,127,2637656568
118,24,14,Improv_Melody,66,2,43,80,2637659192
118,24,14,Improv_Melody,67,2,67,80,2637661344
118,24,14,Improv_Melody,68,5,42,127,2637663876
118,24,14,Improv_Melody,69,5,42,110,2638154160
118,24,14,Improv_Melody,70,1,48,90,2638304336
118,24,14,Improv_Melody,71,1,48,77,2638585276
118,24,14,Improv_Melody,72,5,42,110,2638653856
118,24,14,Improv_Melody,73,1,38,109,2638912792
118,24,14,Improv_Melody,74,5,42,110,2639153836
118,24,14,Improv_Melody,75,1,48,78,2639234076
118,24,14,Improv_Melody,76,1,48,62,2639372052
118,24,14,Improv_Melody,77,5,42,127,2639654240
118,24,14,Improv_Melody,78,1,48,72,2639669724
118,24,14,Improv_Melody,79,1,48,79,2639964952
118,24,14,Improv_Melody,80,1,38,124,2640126716
118,24,14,Improv_Melody,81,5,42,110,2640153912
118,24,14,Improv_Melody,82,5,42,110,2640653616
118,24,14,Improv_Melody,83,1,48,73,2640735748
118,24,14,Improv_Melody,84,5,42,110,2641154512
118,24,14,Improv_Melody,85,1,38,83,2641388332
118,24,14,Improv_Melody,86,2,45,80,2641656564
118,24,14,Improv_Melody,87,2,69,80,2641658492
118,24,14,Improv_Melody,88,5,42,127,2641661108
118,24,14,Improv_Melody,89,5,42,110,2642153800
118,24,14,Improv_Melody,90,1,38,88,2642612260
118,24,14,Improv_Melody,91,5,42,110,2642653660
118,24,14,Improv_Melody,92,5,42,110,2643154416
118,24,14,Improv_Melody,93,1,48,74,2643248712
118,24,14,Improv_Melody,94,1,48,70,2643544392
118,24,14,Improv_Melody,95,5,42,127,2643653920
118,24,14,Improv_Melody,96,1,38,120,2643860512
118,24,14,Improv_Melody,97,5,42,110,2644153692
118,24,14,Improv_Melody,98,1,48,62,2644218968
118,24,14,Improv_Melody,99,1,48,54,2644362584
118,24,14,Improv_Melody,100,5,42,110,2644653596
118,24,14,Improv_Melody,101,1,48,68,2644673996
118,24,14,Improv_Melody,102,1,48,62,2644958228
118,24,14,Improv_Melody,103,1,38,110,2645143580
118,24,14,Improv_Melody,104,5,42,110,2645154016
118,24,14,Improv_Melody,105,2,41,80,2645656152
118,24,14,Improv_Melody,106,2,65,80,2645658452
118,24,14,Improv_Melody,107,5,42,127,2645660992
118,24,14,Improv_Melody,108,1,48,72,2645779748
118,24,14,Improv_Melody,109,1,48,69,2646070212
118,24,14,Improv_Melody,110,5,42,110,2646153728
118,24,14,Improv_Melody,111,1,38,91,2646384616
118,24,14,Improv_Melody,112,5,42,110,2646654388
118,24,14,Improv_Melody,113,1,48,56,2646743448
118,24,14,Improv_Melody,114,1,48,56,2646884376
118,24,14,Improv_Melody,115,5,42,110,2647153992
118,24,14,Improv_Melody,116,1,48,65,2647178352
118,24,14,Improv_Melody,117,1,48,68,2647434464
118,24,14,Improv_Melody,118,1,38,96,2647630060
118,24,14,Improv_Melody,119,5,42,127,2647653812
118,24,14,Improv_Melody,120,5,42,110,2648153592
118,24,14,Improv_Melody,121,1,48,70,2648271076
118,24,14,Improv_Melody,122,1,38,75,2648426432
118,24,14,Improv_Melody,123,5,42,110,2648654316
118,24,14,Improv_Melody,124,1,48,73,2648775316
118,24,14,Improv_Melody,125,1,38,93,2648904796
118,24,14,Improv_Melody,126,5,42,110,2649153920
118,24,14,Improv_Melody,127,1,48,80,2649204236
118,24,14,Improv_Melody,128,1,38,84,2649362936
118,24,14,Improv_Melody,129,1,48,80,2649647468
118,24,14,Improv_Melody,130,2,48,80,2649656016
118,24,14,Improv_Melody,131,2,72,80,2649658400
118,24,14,Improv_Melody,132,5,42,127,2649660860
118,24,14,Improv_Melody,133,1,38,91,2649792988
118,24,14,Improv_Melody,134,5,42,110,2650154388
118,24,14,Improv_Melody,135,5,42,110,2650653960
118,24,14,Improv_Melody,136,1,48,51,2650659096
118,24,14,Improv_Melody,137,1,48,60,2650971256
118,24,14,Improv_Melody,138,5,42,110,2651153784
118,24,14,Improv_Melody,139,1,38,90,2651251544
118,24,14,Improv_Melody,140,1,48,65,2651564728
118,24,14,Improv_Melody,141,5,42,127,2651653556
118,24,14,Improv_Melody,142,1,48,58,2651736568
118,24,14,Improv_Melody,143,1,48,64,2652021100
118,24,14,Improv_Melody,144,5,42,110,2652154264
118,24,14,Improv_Melody,145,1,48,57,2652317548
118,24,14,Improv_Melody,146,1,38,126,2652508588
118,24,14,Improv_Melody,147,5,42,110,2652653796
118,24,14,Improv_Melody,148,1,48,78,2653144868
118,24,14,Improv_Melody,149,5,42,110,2653153584
118,24,14,Improv_Melody,150,1,48,68,2653454412
118,24,14,Improv_Melody,151,2,43,80,2653656896
118,24,14,Improv_Melody,152,2,67,80,2653658972
118,24,14,Improv_Melody,153,5,42,127,2653661736
118,24,14,Improv_Melody,154,1,38,94,2653788372
118,24,14,Improv_Melody,155,1,48,73,2654146208
118,24,14,Improv_Melody,156,5,42,110,2654154028
118,24,14,Improv_Melody,157,1,48,62,2654310568
118,24,14,Improv_Melody,158,1,48,63,2654595772
118,24,14,Improv_Melody,159,5,42,110,2654653708
118,24,14,Improv_Melody,160,1,48,70,2654832604
118,24,14,Improv_Melody,161,1,38,105,2655076900
118,24,14,Improv_Melody,162,5,42,110,2655153460
118,24,14,Improv_Melody,163,5,42,127,2655654136
118,24,14,Improv_Melody,164,1,48,62,2655747536
118,24,14,Improv_Melody,165,1,48,66,2656105320
118,24,14,Improv_Melody,166,5,42,110,2656153904
118,24,14,Improv_Melody,167,1,38,83,2656488464
118,24,14,Improv_Melody,168,5,42,110,2656653740
118,24,14,Improv_Melody,169,1,48,67,2656914332
118,24,14,Improv_Melody,170,1,48,60,2657154336
118,24,14,Improv_Melody,171,5,42,110,2657155896
118,24,14,Improv_Melody,172,1,48,63,2657506236
118,24,14,Improv_Melody,173,2,45,80,2657656896
118,24,14,Improv_Melody,174,2,69,80,2657659044
118,24,14,Improv_Melody,175,5,42,127,2657661580
118,24,14,Improv_Melody,176,1,48,78,2657887396
118,24,14,Improv_Melody,177,1,38,100,2658110072
118,24,14,Improv_Melody,178,5,42,110,2658153720
118,24,14,Improv_Melody,179,5,42,110,2658653500
118,24,14,Improv_Melody,180,1,48,70,2658923896
118,24,14,Improv_Melody,181,5,42,110,2659154320
118,24,14,Improv_Melody,182,1,48,84,2659490388
118,24,14,Improv_Melody,183,5,42,127,2659654020
118,24,14,Improv_Melody,184,1,38,91,2659965332
118,24,14,Improv_Melody,185,5,42,110,2660153572
118,24,14,Improv_Melody,186,1,48,59,2660411176
118,24,14,Improv_Melody,187,5,42,110,2660653324
118,24,14,Improv_Melody,188,1,48,78,2660667012
118,24,14,Improv_Melody,189,1,48,74,2661127244
118,24,14,Improv_Melody,190,5,42,110,2661154060
118,24,14,Improv_Melody,191,1,48,59,2661602184
118,24,14,Improv_Melody,192,2,41,80,2661656564
118,24,14,Improv_Melody,193,2,65,80,2661658644
118,24,14,Improv_Melody,194,5,42,127,2661661332
118,24,14,Improv_Melody,195,1,38,127,2661845472
118,24,14,Improv_Melody,196,5,42,110,2662153688
118,24,14,Improv_Melody,197,5,42,110,2662654380
118,24,14,Improv_Melody,198,5,42,110,2663154028
118,24,14,Improv_Melody,199,1,48,62,2663640540
118,24,14,Improv_Melody,200,5,42,127,2663653820
118,24,14,Improv_Melody,201,1,38,127,2664105384
118,24,14,Improv_Melody,202,5,42,110,2664153444
118,24,14,Improv_Melody,203,5,42,110,2664654200
118,24,14,Improv_Melody,204,1,48,67,2664930728
118,24,14,Improv_Melody,205,5,42,110,2665154048
118,24,14,Improv_Melody,206,1,48,70,2665365428
118,24,14,Improv_Melody,207,2,48,80,2665656180
118,24,14,Improv_Melody,208,2,72,80,2665658252
118,24,14,Improv_Melody,209,5,42,127,2665660868
118,24,14,Improv_Melody,210,1,48,80,2665803060
118,24,14,Improv_Melody,211,1,38,124,2666058568
118,24,14,Improv_Melody,212,5,42,110,2666154280
118,24,14,Improv_Melody,213,5,42,110,2666654132
118,24,14,Improv_Melody,214,1,48,57,2667076020
118,24,14,Improv_Melody,215,5,42,110,2667153996
118,24,14,Improv_Melody,216,1,48,73,2667563948
118,24,14,Improv_Melody,217,5,42,127,2667653624
118,24,14,Improv_Melody,218,1,38,69,2668064104
118,24,14,Improv_Melody,219,5,42,110,2668154296
118,24,14,Improv_Melody,220,1,48,64,2668570308
118,24,14,Improv_Melody,221,5,42,110,2668654072
118,24,14,Improv_Melody,222,1,48,81,2668834668
118,24,14,Improv_Melody,223,5,42,110,2669153608
118,24,14,Improv_Melody,224,1,48,19,2669300560
118,24,14,Improv_Melody,225,1,48,54,2669305104
118,24,14,Improv_Melody,226,2,43,80,2669656684
118,24,14,Improv_Melody,227,2,67,80,2669659060
118,24,14,Improv_Melody,228,5,42,127,2669661452
118,24,14,Improv_Melody,229,1,48,72,2669767192
118,24,14,Improv_Melody,230,1,38,127,2670011112
118,24,14,Improv_Melody,231,5,42,110,2670154024
118,24,14,Improv_Melody,232,5,42,110,2670654044
118,24,14,Improv_Melody,233,1,48,75,2671109192
118,24,14,Improv_Melody,234,5,42,110,2671153384
118,24,14,Improv_Melody,235,1,48,92,2671619512
118,24,14,Improv_Melody,236,5,42,127,2671654180
118,24,14,Improv_Melody,237,1,38,53,2672086968
118,24,14,Improv_Melody,238,5,42,110,2672154104
118,24,14,Improv_Melody,239,1,48,63,2672566924
118,24,14,Improv_Melody,240,5,42,110,2672654028
118,24,14,Improv_Melody,241,1,48,73,2672825076
118,24,14,Improv_Melody,242,5,42,110,2673154312
118,24,14,Improv_Melody,243,1,48,81,2673294112
118,24,14,Improv_Melody,244,2,45,80,2673656364
118,24,14,Improv_Melody,245,2,69,80,2673658740
118,24,14,Improv_Melody,246,5,42,127,2673661284
118,24,14,Improv_Melody,247,1,48,86,2673787920
118,24,14,Improv_Melody,248,1,38,127,2674036320
118,24,14,Improv_Melody,249,5,42,110,2674154004
118,24,14,Improv_Melody,250,5,42,110,2674653500
118,24,14,Improv_Melody,251,1,38,127,2675111884
118,24,14,Improv_Melody,252,5,42,110,2675154412
118,24,14,Improv_Melody,253,5,42,127,2675653896
118,24,14,Improv_Melody,254,1,38,50,2675910080
118,24,14,Improv_Melody,255,1,38,124,2676126996
118,24,14,Improv_Melody,256,5,42,110,2676153884
118,24,14,Improv_Melody,257,5,42,110,2676653744
118,24,14,Improv_Melody,258,1,38,56,2676934532
118,24,14,Improv_Melody,259,1,38,87,2677145316
118,24,14,Improv_Melody,260,5,42,110,2677154036
118,24,14,Improv_Melody,261,1,38,54,2677400404
118,24,14,Improv_Melody,262,1,38,84,2677606700
118,24,14,Improv_Melody,263,2,41,80,2677656596
118,24,14,Improv_Melody,264,2,65,80,2677658744
118,24,14,Improv_Melody,265,5,42,127,2677661204
118,24,14,Improv_Melody,266,1,38,63,2677799392
118,24,14,Improv_Melody,267,1,38,127,2678071084
118,24,14,Improv_Melody,268,5,42,110,2678153852
118,24,14,Improv_Melody,269,5,42,110,2678654232
118,24,14,Improv_Melody,270,1,48,78,2679112244
118,24,14,Improv_Melody,271,5,42,110,2679154020
118,24,14,Improv_Melody,272,1,48,127,2679621896
118,24,14,Improv_Melody,273,5,42,127,2679653872
118,24,14,Improv_Melody,274,1,38,99,2680096580
118,24,14,Improv_Melody,275,1,48,19,2680109208
118,24,14,Improv_Melody,276,5,42,110,2680153328
118,24,14,Improv_Melody,277,1,48,79,2680623864
118,24,14,Improv_Melody,278,5,42,110,2680654120
118,24,14,Improv_Melody,279,1,48,21,2680862844
118,24,14,Improv_Melody,280,1,48,44,2680867308
118,24,14,Improv_Melody,281,5,42,110,2681153856
118,24,14,Improv_Melody,282,1,48,104,2681330580
118,24,14,Improv_Melody,283,2,48,80,2681656136
118,24,14,Improv_Melody,284,2,72,80,2681658512
118,24,14,Improv_Melody,285,5,42,127,2681660972
118,24,14,Improv_Melody,286,1,48,84,2681826176
118,24,14,Improv_Melody,287,1,38,105,2682078624
118,24,14,Improv_Melody,288,5,42,110,2682154212
118,24,14,Improv_Melody,289,5,42,110,2682653916
118,24,14,Improv_Melody,290,1,48,80,2683103776
118,24,14,Improv_Melody,291,5,42,110,2683153632
118,24,14,Improv_Melody,292,1,48,88,2683609084
118,24,14,Improv_Melody,293,5,42,127,2683653556
118,24,14,Improv_Melody,294,1,38,108,2684074084
118,24,14,Improv_Melody,295,5,42,110,2684154304
118,24,14,Improv_Melody,296,1,48,84,2684588740
118,24,14,Improv_Melody,297,5,42,110,2684654004
118,24,14,Improv_Melody,298,1,48,61,2684764092
118,24,14,Improv_Melody,299,1,48,78,2685021328
118,24,14,Improv_Melody,300,5,42,110,2685153592
118,24,14,Improv_Melody,301,1,48,79,2685202488
118,24,14,Improv_Melody,302,1,48,100,2685493404
118,24,14,Improv_Melody,303,2,43,80,2685656896
118,24,14,Improv_Melody,304,2,67,80,2685659196
118,24,14,Improv_Melody,305,5,42,127,2685661808
118,24,14,Improv_Melody,306,1,38,127,2686033956
118,24,14,Improv_Melody,307,5,42,110,2686153956
118,24,14,Improv_Melody,308,1,48,16,2686212572
118,24,14,Improv_Melody,309,5,42,110,2686653728
118,24,14,Improv_Melody,310,1,48,77,2687092664
118,24,14,Improv_Melody,311,5,42,110,2687153592
118,24,14,Improv_Melody,312,1,48,93,2687631788
118,24,14,Improv_Melody,313,5,42,127,2687654120
118,24,14,Improv_Melody,314,1,38,127,2688127672
118,24,14,Improv_Melody,315,5,42,110,2688153892
118,24,14,Improv_Melody,316,1,48,74,2688624084
118,24,14,Improv_Melody,317,5,42,110,2688653668
118,24,14,Improv_Melody,318,1,48,77,2688885596
118,24,14,Improv_Melody,319,5,42,110,2689154544
118,24,14,Improv_Melody,320,1,48,37,2689406392
118,24,14,Improv_Melody,321,2,45,80,2689656824
118,24,14,Improv_Melody,322,2,69,80,2689659052
118,24,14,Improv_Melody,323,5,42,127,2689661588
118,24,14,Improv_Melody,324,1,48,17,2689886056
118,24,14,Improv_Melody,325,1,38,127,2690153736
118,24,14,Improv_Melody,326,5,42,110,2690155824
118,24,14,Improv_Melody,327,5,42,110,2690653512
118,24,14,Improv_Melody,328,1,48,89,2691118848
118,24,14,Improv_Melody,329,5,42,110,2691154496
118,24,14,Improv_Melody,330,1,48,81,2691346164
118,24,14,Improv_Melody,331,1,38,106,2691599352
118,24,14,Improv_Melody,332,5,42,127,2691654024
118,24,14,Improv_Melody,333,1,48,96,2691872920
118,24,14,Improv_Melody,334,1,48,89,2692129696
118,24,14,Improv_Melody,335,5,42,110,2692153628
118,24,14,Improv_Melody,336,1,48,92,2692364372
118,24,14,Improv_Melody,337,1,38,102,2692602748
118,24,14,Improv_Melody,338,5,42,110,2692653356
118,24,14,Improv_Melody,339,1,48,108,2693127804
118,24,14,Improv_Melody,340,5,42,110,2693154324
118,24,14,Improv_Melody,341,1,48,30,2693261944
118,24,14,Improv_Melody,342,2,41,80,2693656512
118,24,14,Improv_Melody,343,2,65,80,2693658664
118,24,14,Improv_Melody,344,5,42,127,2693661276
118,24,14,Improv_Melody,345,1,38,81,2693681176
118,24,14,Improv_Melody,346,1,38,22,2693762532
118,24,14,Improv_Melody,347,5,42,110,2694153628
118,24,14,Improv_Melody,348,1,48,90,2694529212
118,24,14,Improv_Melody,349,5,42,110,2694654520
118,24,14,Improv_Melody,350,1,38,127,2694777712
118,24,14,Improv_Melody,351,5,42,110,2695153996
118,24,14,Improv_Melody,352,1,48,79,2695316536
118,24,14,Improv_Melody,353,5,42,127,2695653624
118,24,14,Improv_Melody,354,1,48,71,2695791632
118,24,14,Improv_Melody,355,5,42,110,2696153472
118,24,14,Improv_Melody,356,1,38,79,2696352212
118,24,14,Improv_Melody,357,5,42,110,2696654368
118,24,14,Improv_Melody,358,5,42,110,2697153868
118,24,14,Improv_Melody,359,2,48,80,2697656396
118,24,14,Improv_Melody,360,2,72,80,2697658396
118,24,14,Improv_Melody,361,5,42,127,2697660932
118,24,14,Improv_Melody,362,5,42,110,2698154444
118,24,14,Improv_Melody,363,1,48,92,2698201248
118,24,14,Improv_Melody,0,9999,9999,9999,2617651304
118,24,14,Improv_Melody,1,9999,9999,9999,2618152012
118,24,14,Improv_Melody,2,9999,9999,9999,2618651732
118,24,14,Improv_Melody,3,9999,9999,9999,2619151452
118,24,14,Improv_Melody,4,9999,9999,9999,2619651176
118,24,14,Improv_Melody,5,9999,9999,9999,2620151868
118,24,14,Improv_Melody,6,9999,9999,9999,2620651592
118,24,14,Improv_Melody,7,9999,9999,9999,2621151312
118,24,14,Improv_Melody,8,9999,9999,9999,2621652080
118,24,14,Improv_Melody,9,9999,9999,9999,2622151740
118,24,14,Improv_Melody,10,9999,9999,9999,2622651460
118,24,14,Improv_Melody,11,9999,9999,9999,2623151184
118,24,14,Improv_Melody,12,9999,9999,9999,2623651952
118,24,14,Improv_Melody,13,9999,9999,9999,2624151672
118,24,14,Improv_Melody,14,9999,9999,9999,2624651320
118,24,14,Improv_Melody,15,9999,9999,9999,2625152088
118,24,14,Improv_Melody,16,9999,9999,9999,2625651812
118,24,14,Improv_Melody,17,9999,9999,9999,2626151472
118,24,14,Improv_Melody,18,9999,9999,9999,2626651196
118,24,14,Improv_Melody,19,9999,9999,9999,2627151964
118,24,14,Improv_Melody,20,9999,9999,9999,2627651684
118,24,14,Improv_Melody,21,9999,9999,9999,2628151404
118,24,14,Improv_Melody,22,9999,9999,9999,2628651104
118,24,14,Improv_Melody,23,9999,9999,9999,2629151796
118,24,14,Improv_Melody,24,9999,9999,9999,2629651520
118,24,14,Improv_Melody,25,9999,9999,9999,2630151256
118,24,14,Improv_Melody,26,9999,9999,9999,2630652020
118,24,14,Improv_Melody,27,9999,9999,9999,2631151668
118,24,14,Improv_Melody,28,9999,9999,9999,2631651392
118,24,14,Improv_Melody,29,9999,9999,9999,2632151112
118,24,14,Improv_Melody,30,9999,9999,9999,2632651880
118,24,14,Improv_Melody,31,9999,9999,9999,2633151604
118,24,14,Improv_Melody,32,9999,9999,9999,2633651320
118,24,14,Improv_Melody,33,9999,9999,9999,2634151988
118,24,14,Improv_Melody,34,9999,9999,9999,2634651736
118,24,14,Improv_Melody,35,9999,9999,9999,2635151452
118,24,14,Improv_Melody,36,9999,9999,9999,2635651172
118,24,14,Improv_Melody,37,9999,9999,9999,2636151920
118,24,14,Improv_Melody,38,9999,9999,9999,2636651600
118,24,14,Improv_Melody,39,9999,9999,9999,2637151352
118,24,14,Improv_Melody,40,9999,9999,9999,2637652076
118,24,14,Improv_Melody,41,9999,9999,9999,2638151792
118,24,14,Improv_Melody,42,9999,9999,9999,2638651488
118,24,14,Improv_Melody,43,9999,9999,9999,2639151220
118,24,14,Improv_Melody,44,9999,9999,9999,2639651948
118,24,14,Improv_Melody,45,9999,9999,9999,2640151620
118,24,14,Improv_Melody,46,9999,9999,9999,2640651324
118,24,14,Improv_Melody,47,9999,9999,9999,2641152072
118,24,14,Improv_Melody,48,9999,9999,9999,2641651772
118,24,14,Improv_Melody,49,9999,9999,9999,2642151504
118,24,14,Improv_Melody,50,9999,9999,9999,2642651220
118,24,14,Improv_Melody,51,9999,9999,9999,2643151972
118,24,14,Improv_Melody,52,9999,9999,9999,2643651700
118,24,14,Improv_Melody,53,9999,9999,9999,2644151400
118,24,14,Improv_Melody,54,9999,9999,9999,2644651080
118,24,14,Improv_Melody,55,9999,9999,9999,2645151796
118,24,14,Improv_Melody,56,9999,9999,9999,2645651508
118,24,14,Improv_Melody,57,9999,9999,9999,2646151288
118,24,14,Improv_Melody,58,9999,9999,9999,2646652020
118,24,14,Improv_Melody,59,9999,9999,9999,2647151696
118,24,14,Improv_Melody,60,9999,9999,9999,2647651444
118,24,14,Improv_Melody,61,9999,9999,9999,2648151148
118,24,14,Improv_Melody,62,9999,9999,9999,2648651876
118,24,14,Improv_Melody,63,9999,9999,9999,2649151552
118,24,14,Improv_Melody,64,9999,9999,9999,2649651300
118,24,14,Improv_Melody,65,9999,9999,9999,2650152020
118,24,14,Improv_Melody,66,9999,9999,9999,2650651740
118,24,14,Improv_Melody,67,9999,9999,9999,2651151420
118,24,14,Improv_Melody,68,9999,9999,9999,2651651188
118,24,14,Improv_Melody,69,9999,9999,9999,2652151896
118,24,14,Improv_Melody,70,9999,9999,9999,2652651576
118,24,14,Improv_Melody,71,9999,9999,9999,2653151292
118,24,14,Improv_Melody,72,9999,9999,9999,2653652024
118,24,14,Improv_Melody,73,9999,9999,9999,2654151736
118,24,14,Improv_Melody,74,9999,9999,9999,2654651488
118,24,14,Improv_Melody,75,9999,9999,9999,2655151168
118,24,14,Improv_Melody,76,9999,9999,9999,2655651920
118,24,14,Improv_Melody,77,9999,9999,9999,2656151612
118,24,14,Improv_Melody,78,9999,9999,9999,2656651372
118,24,14,Improv_Melody,79,9999,9999,9999,2657152116
118,24,14,Improv_Melody,80,9999,9999,9999,2657651796
118,24,14,Improv_Melody,81,9999,9999,9999,2658151500
118,24,14,Improv_Melody,82,9999,9999,9999,2658651208
118,24,14,Improv_Melody,83,9999,9999,9999,2659151956
118,24,14,Improv_Melody,84,9999,9999,9999,2659651656
118,24,14,Improv_Melody,85,9999,9999,9999,2660151352
118,24,14,Improv_Melody,86,9999,9999,9999,2660651104
118,24,14,Improv_Melody,87,9999,9999,9999,2661151844
118,24,14,Improv_Melody,88,9999,9999,9999,2661651544
118,24,14,Improv_Melody,89,9999,9999,9999,2662151244
118,24,14,Improv_Melody,90,9999,9999,9999,2662652012
118,24,14,Improv_Melody,91,9999,9999,9999,2663151736
118,24,14,Improv_Melody,92,9999,9999,9999,2663651376
118,24,14,Improv_Melody,93,9999,9999,9999,2664151152
118,24,14,Improv_Melody,94,9999,9999,9999,2664651832
118,24,14,Improv_Melody,95,9999,9999,9999,2665151604
118,24,14,Improv_Melody,96,9999,9999,9999,2665651308
118,24,14,Improv_Melody,97,9999,9999,9999,2666151984
118,24,14,Improv_Melody,98,9999,9999,9999,2666651764
118,24,14,Improv_Melody,99,9999,9999,9999,2667151480
118,24,14,Improv_Melody,100,9999,9999,9999,2667651184
118,24,14,Improv_Melody,101,9999,9999,9999,2668151856
118,24,14,Improv_Melody,102,9999,9999,9999,2668651632
118,24,14,Improv_Melody,103,9999,9999,9999,2669151316
118,24,14,Improv_Melody,104,9999,9999,9999,2669652040
118,24,14,Improv_Melody,105,9999,9999,9999,2670151732
118,24,14,Improv_Melody,106,9999,9999,9999,2670651452
118,24,14,Improv_Melody,107,9999,9999,9999,2671151168
118,24,14,Improv_Melody,108,9999,9999,9999,2671651888
118,24,14,Improv_Melody,109,9999,9999,9999,2672151664
118,24,14,Improv_Melody,110,9999,9999,9999,2672651364
118,24,14,Improv_Melody,111,9999,9999,9999,2673152096
118,24,14,Improv_Melody,112,9999,9999,9999,2673651796
118,24,14,Improv_Melody,113,9999,9999,9999,2674151488
118,24,14,Improv_Melody,114,9999,9999,9999,2674651208
118,24,14,Improv_Melody,115,9999,9999,9999,2675151972
118,24,14,Improv_Melody,116,9999,9999,9999,2675651676
118,24,14,Improv_Melody,117,9999,9999,9999,2676151372
118,24,14,Improv_Melody,118,9999,9999,9999,2676651076
118,24,14,Improv_Melody,119,9999,9999,9999,2677151816
118,24,14,Improv_Melody,120,9999,9999,9999,2677651572
118,24,14,Improv_Melody,121,9999,9999,9999,2678151260
118,24,14,Improv_Melody,122,9999,9999,9999,2678652012
118,24,14,Improv_Melody,123,9999,9999,9999,2679151728
118,24,14,Improv_Melody,124,9999,9999,9999,2679651428
118,24,14,Improv_Melody,125,9999,9999,9999,2680151108
118,24,14,Improv_Melody,126,9999,9999,9999,2680651828
118,24,14,Improv_Melody,127,9999,9999,9999,2681151564
118,24,14,Improv_Melody,128,9999,9999,9999,2681651264
118,24,14,Improv_Melody,129,9999,9999,9999,2682151992
118,24,14,Improv_Melody,130,9999,9999,9999,2682651700
118,24,14,Improv_Melody,131,9999,9999,9999,2683151412
118,24,14,Improv_Melody,132,9999,9999,9999,2683651192
118,24,14,Improv_Melody,133,9999,9999,9999,2684151864
118,24,14,Improv_Melody,134,9999,9999,9999,2684651636
118,24,14,Improv_Melody,135,9999,9999,9999,2685151300
118,24,14,Improv_Melody,136,9999,9999,9999,2685652024
118,24,14,Improv_Melody,137,9999,9999,9999,2686151736
118,24,14,Improv_Melody,138,9999,9999,9999,2686651508
118,24,14,Improv_Melody,139,9999,9999,9999,2687151152
118,24,14,Improv_Melody,140,9999,9999,9999,2687651900
118,24,14,Improv_Melody,141,9999,9999,9999,2688151672
118,24,14,Improv_Melody,142,9999,9999,9999,2688651372
118,24,14,Improv_Melody,143,9999,9999,9999,2689152104
118,24,14,Improv_Melody,144,9999,9999,9999,2689651804
118,24,14,Improv_Melody,145,9999,9999,9999,2690151520
118,24,14,Improv_Melody,146,9999,9999,9999,2690651216
118,24,14,Improv_Melody,147,9999,9999,9999,2691151980
118,24,14,Improv_Melody,148,9999,9999,9999,2691651656
118,24,14,Improv_Melody,149,9999,9999,9999,2692151408
118,24,14,Improv_Melody,150,9999,9999,9999,2692651060
118,24,14,Improv_Melody,151,9999,9999,9999,2693151808
118,24,14,Improv_Melody,152,9999,9999,9999,2693651564
118,24,14,Improv_Melody,153,9999,9999,9999,2694151260
118,24,14,Improv_Melody,154,9999,9999,9999,2694652004
118,24,14,Improv_Melody,155,9999,9999,9999,2695151704
118,24,14,Improv_Melody,156,9999,9999,9999,2695651404
118,24,14,Improv_Melody,157,9999,9999,9999,2696151108
118,24,14,Improv_Melody,158,9999,9999,9999,2696651852
118,24,14,Improv_Melody,159,9999,9999,9999,2697151572
118,24,14,Improv_Melody,160,9999,9999,9999,2697651296
118,24,14,Improv_Melody,161,9999,9999,9999,2698152004
