pid,taskRunCount,taskID,taskName,i,channel,pitch,velocity,microseconds
1,0,Ticks_Pract_8,0,5,42,127,501170516
1141,0,Ticks_Pract_8,1,5,42,127,501971172
1141,0,Ticks_Pract_8,2,5,42,127,502771000
1141,0,Ticks_Pract_8,3,1,48,23,502822808
1141,0,Ticks_Pract_8,4,5,42,127,503570808
1141,0,Ticks_Pract_8,5,1,48,27,503623220
1141,0,Ticks_Pract_8,6,5,42,127,504370692
1141,0,Ticks_Pract_8,7,1,48,32,504435692
1141,0,Ticks_Pract_8,8,5,42,127,505171176
1141,0,Ticks_Pract_8,9,1,48,33,505269536
1141,0,Ticks_Pract_8,10,5,42,127,505970936
1141,0,Ticks_Pract_8,11,1,48,27,505980260
1141,0,Ticks_Pract_8,12,1,48,27,506768380
1141,0,Ticks_Pract_8,13,5,42,127,506770808
1141,0,Ticks_Pract_8,14,1,48,29,507560040
1141,0,Ticks_Pract_8,15,5,42,127,507570692
1141,0,Ticks_Pract_8,16,1,48,35,508359100
1141,0,Ticks_Pract_8,17,5,42,127,508371248
1141,0,Ticks_Pract_8,18,1,48,21,508423492
1141,0,Ticks_Pract_8,19,5,42,127,509171116
1141,0,Ticks_Pract_8,20,1,48,25,509184776
1141,0,Ticks_Pract_8,21,1,48,29,509919424
1141,0,Ticks_Pract_8,22,5,42,127,509970768
1141,0,Ticks_Pract_8,23,1,48,32,510767996
1141,0,Ticks_Pract_8,24,5,42,127,510770648
1141,0,Ticks_Pract_8,25,1,48,30,511509616
1141,0,Ticks_Pract_8,26,5,42,127,511571352
1141,0,Ticks_Pract_8,27,1,48,32,512336864
1141,0,Ticks_Pract_8,28,5,42,127,512371184
1141,0,Ticks_Pract_8,29,5,42,127,513170704
1141,0,Ticks_Pract_8,30,1,48,32,513183320
1141,0,Ticks_Pract_8,31,1,48,32,513932096
1141,0,Ticks_Pract_8,32,5,42,127,513970580
1141,0,Ticks_Pract_8,33,1,48,26,514751352
1141,0,Ticks_Pract_8,34,5,42,127,514771284
1141,0,Ticks_Pract_8,35,1,48,26,515568364
1141,0,Ticks_Pract_8,36,5,42,127,515571020
1141,0,Ticks_Pract_8,37,1,48,32,516335640
1141,0,Ticks_Pract_8,38,5,42,127,516370900
1141,0,Ticks_Pract_8,39,5,42,127,517170640
1141,0,Ticks_Pract_8,40,1,48,26,517174804
1141,0,Ticks_Pract_8,41,5,42,127,517971420
1141,0,Ticks_Pract_8,42,1,48,21,517975536
1141,0,Ticks_Pract_8,43,1,48,27,518744360
1141,0,Ticks_Pract_8,44,5,42,127,518771320
1141,0,Ticks_Pract_8,45,5,42,127,519570764
1141,0,Ticks_Pract_8,46,5,42,127,520370520
1141,0,Ticks_Pract_8,47,1,48,14,520417396
1141,0,Ticks_Pract_8,48,1,48,20,521164900
1141,0,Ticks_Pract_8,49,5,42,127,521171440
1141,0,Ticks_Pract_8,50,5,42,127,521971180
1141,0,Ticks_Pract_8,51,1,48,28,521980064
1141,0,Ticks_Pract_8,52,1,48,21,522718296
1141,0,Ticks_Pract_8,53,5,42,127,522770756
1141,0,Ticks_Pract_8,54,1,48,31,523514508
1141,0,Ticks_Pract_8,55,5,42,127,523570640
1141,0,Ticks_Pract_8,56,1,48,21,523572492
1141,0,Ticks_Pract_8,57,1,48,22,524365456
1141,0,Ticks_Pract_8,58,5,42,127,524371472
1141,0,Ticks_Pract_8,59,1,48,27,525112360
1141,0,Ticks_Pract_8,0,9999,9999,9999,501168228
1141,0,Ticks_Pract_8,1,9999,9999,9999,501968956
1141,0,Ticks_Pract_8,2,9999,9999,9999,502768712
1141,0,Ticks_Pract_8,3,9999,9999,9999,503568448
1141,0,Ticks_Pract_8,4,9999,9999,9999,504368180
1141,0,Ticks_Pract_8,5,9999,9999,9999,505168960
1141,0,Ticks_Pract_8,6,9999,9999,9999,505968720
1141,0,Ticks_Pract_8,7,9999,9999,9999,506768448
1141,0,Ticks_Pract_8,8,9999,9999,9999,507568180
1141,0,Ticks_Pract_8,9,9999,9999,9999,508368960
1141,0,Ticks_Pract_8,10,9999,9999,9999,509168752
1141,0,Ticks_Pract_8,11,9999,9999,9999,509968480
1141,0,Ticks_Pract_8,12,9999,9999,9999,510768212
1141,0,Ticks_Pract_8,13,9999,9999,9999,511568992
1141,0,Ticks_Pract_8,14,9999,9999,9999,512368748
1141,0,Ticks_Pract_8,15,9999,9999,9999,513168488
1141,0,Ticks_Pract_8,16,9999,9999,9999,513968216
1141,0,Ticks_Pract_8,17,9999,9999,9999,514768996
1141,0,Ticks_Pract_8,18,9999,9999,9999,515568728
1141,0,Ticks_Pract_8,19,9999,9999,9999,516368464
1141,0,Ticks_Pract_8,20,9999,9999,9999,517168204
1141,0,Ticks_Pract_8,21,9999,9999,9999,517968984
1141,0,Ticks_Pract_8,22,9999,9999,9999,518768736
1141,0,Ticks_Pract_8,23,9999,9999,9999,519568476
1141,0,Ticks_Pract_8,24,9999,9999,9999,520368228
1141,0,Ticks_Pract_8,25,9999,9999,9999,521169004
1141,0,Ticks_Pract_8,26,9999,9999,9999,521968744
1141,0,Ticks_Pract_8,27,9999,9999,9999,522768472
1141,0,Ticks_Pract_8,28,9999,9999,9999,523568204
1141,0,Ticks_Pract_8,29,9999,9999,9999,524368964
1142,1,Ticks_Pract_5,0,5,42,127,585120088
1142,1,Ticks_Pract_5,1,5,42,127,585619732
1142,1,Ticks_Pract_5,2,1,48,19,585922436
1142,1,Ticks_Pract_5,3,5,42,127,586119576
1142,1,Ticks_Pract_5,4,1,48,23,586341352
1142,1,Ticks_Pract_5,5,5,42,127,586620168
1142,1,Ticks_Pract_5,6,1,48,25,586729800
1142,1,Ticks_Pract_5,7,5,42,127,587120160
1142,1,Ticks_Pract_5,8,1,48,21,587200772
1142,1,Ticks_Pract_5,9,5,42,127,587619636
1142,1,Ticks_Pract_5,10,1,48,27,587677504
1142,1,Ticks_Pract_5,11,5,42,127,588120300
1142,1,Ticks_Pract_5,12,1,48,30,588179744
1142,1,Ticks_Pract_5,13,1,48,20,588246516
1142,1,Ticks_Pract_5,14,5,42,127,588620248
1142,1,Ticks_Pract_5,15,1,48,23,588661536
1142,1,Ticks_Pract_5,16,5,42,127,589119940
1142,1,Ticks_Pract_5,17,1,48,28,589171780
1142,1,Ticks_Pract_5,18,5,42,127,589619560
1142,1,Ticks_Pract_5,19,1,48,25,589660328
1142,1,Ticks_Pract_5,20,5,42,127,590120228
1142,1,Ticks_Pract_5,21,1,48,27,590158352
1142,1,Ticks_Pract_5,22,1,48,20,590601104
1142,1,Ticks_Pract_5,23,5,42,127,590620140
1142,1,Ticks_Pract_5,24,5,42,127,591119616
1142,1,Ticks_Pract_5,25,1,48,27,591160436
1142,1,Ticks_Pract_5,26,5,42,127,591619460
1142,1,Ticks_Pract_5,27,1,48,23,591640608
1142,1,Ticks_Pract_5,28,1,48,20,592107672
1142,1,Ticks_Pract_5,29,5,42,127,592120120
1142,1,Ticks_Pract_5,30,1,48,24,592605272
1142,1,Ticks_Pract_5,31,5,42,127,592619964
1142,1,Ticks_Pract_5,32,1,48,27,593083944
1142,1,Ticks_Pract_5,33,5,42,127,593119584
1142,1,Ticks_Pract_5,34,1,48,21,593582064
1142,1,Ticks_Pract_5,35,5,42,127,593620324
1142,1,Ticks_Pract_5,36,1,48,27,594090664
1142,1,Ticks_Pract_5,37,5,42,127,594120168
1142,1,Ticks_Pract_5,38,1,48,19,594569112
1142,1,Ticks_Pract_5,39,5,42,127,594619936
1142,1,Ticks_Pract_5,40,1,48,27,595088332
1142,1,Ticks_Pract_5,41,5,42,127,595119408
1142,1,Ticks_Pract_5,42,1,48,24,595578676
1142,1,Ticks_Pract_5,43,5,42,127,595620300
1142,1,Ticks_Pract_5,44,1,48,23,596058404
1142,1,Ticks_Pract_5,45,5,42,127,596119916
1142,1,Ticks_Pract_5,46,1,48,25,596568344
1142,1,Ticks_Pract_5,47,5,42,127,596619612
1142,1,Ticks_Pract_5,48,1,48,24,597065464
1142,1,Ticks_Pract_5,49,5,42,127,597120280
1142,1,Ticks_Pract_5,50,1,48,20,597573536
1142,1,Ticks_Pract_5,51,5,42,127,597620048
1142,1,Ticks_Pract_5,52,1,48,25,598045556
1142,1,Ticks_Pract_5,53,5,42,127,598120040
1142,1,Ticks_Pract_5,54,1,48,18,598559164
1142,1,Ticks_Pract_5,55,5,42,127,598619584
1142,1,Ticks_Pract_5,56,1,48,23,599088480
1142,1,Ticks_Pract_5,57,5,42,127,599120176
1142,1,Ticks_Pract_5,58,1,48,24,599550176
1142,1,Ticks_Pract_5,59,5,42,127,599620068
1142,1,Ticks_Pract_5,60,1,48,28,600063704
1142,1,Ticks_Pract_5,61,5,42,127,600119616
1142,1,Ticks_Pract_5,62,1,48,23,600523984
1142,1,Ticks_Pract_5,63,5,42,127,600620356
1142,1,Ticks_Pract_5,64,1,48,24,601109620
1142,1,Ticks_Pract_5,65,5,42,127,601119976
1142,1,Ticks_Pract_5,66,1,48,21,601610512
1142,1,Ticks_Pract_5,67,5,42,127,601619968
1142,1,Ticks_Pract_5,68,1,48,25,602075796
1142,1,Ticks_Pract_5,69,5,42,127,602119516
1142,1,Ticks_Pract_5,70,1,48,24,602566668
1142,1,Ticks_Pract_5,71,5,42,127,602620404
1142,1,Ticks_Pract_5,72,1,48,21,603030760
1142,1,Ticks_Pract_5,73,5,42,127,603119948
1142,1,Ticks_Pract_5,74,1,48,22,603614672
1142,1,Ticks_Pract_5,75,5,42,127,603619868
1142,1,Ticks_Pract_5,76,5,42,127,604120540
1142,1,Ticks_Pract_5,77,1,48,23,604130544
1142,1,Ticks_Pract_5,78,1,48,29,604606884
1142,1,Ticks_Pract_5,79,5,42,127,604620008
1142,1,Ticks_Pract_5,80,1,48,26,605065660
1142,1,Ticks_Pract_5,0,9999,9999,9999,585117804
1142,1,Ticks_Pract_5,1,9999,9999,9999,585617520
1142,1,Ticks_Pract_5,2,9999,9999,9999,586117216
1142,1,Ticks_Pract_5,3,9999,9999,9999,586617956
1142,1,Ticks_Pract_5,4,9999,9999,9999,587117652
1142,1,Ticks_Pract_5,5,9999,9999,9999,587617348
1142,1,Ticks_Pract_5,6,9999,9999,9999,588118088
1142,1,Ticks_Pract_5,7,9999,9999,9999,588617812
1142,1,Ticks_Pract_5,8,9999,9999,9999,589117504
1142,1,Ticks_Pract_5,9,9999,9999,9999,589617200
1142,1,Ticks_Pract_5,10,9999,9999,9999,590117944
1142,1,Ticks_Pract_5,11,9999,9999,9999,590617704
1142,1,Ticks_Pract_5,12,9999,9999,9999,591117404
1142,1,Ticks_Pract_5,13,9999,9999,9999,591617100
1142,1,Ticks_Pract_5,14,9999,9999,9999,592117836
1142,1,Ticks_Pract_5,15,9999,9999,9999,592617528
1142,1,Ticks_Pract_5,16,9999,9999,9999,593117296
1142,1,Ticks_Pract_5,17,9999,9999,9999,593618040
1142,1,Ticks_Pract_5,18,9999,9999,9999,594117732
1142,1,Ticks_Pract_5,19,9999,9999,9999,594617428
1142,1,Ticks_Pract_5,20,9999,9999,9999,595117120
1142,1,Ticks_Pract_5,21,9999,9999,9999,595617864
1142,1,Ticks_Pract_5,22,9999,9999,9999,596117556
1142,1,Ticks_Pract_5,23,9999,9999,9999,596617328
1142,1,Ticks_Pract_5,24,9999,9999,9999,597118068
1142,1,Ticks_Pract_5,25,9999,9999,9999,597617760
1142,1,Ticks_Pract_5,26,9999,9999,9999,598117456
1142,1,Ticks_Pract_5,27,9999,9999,9999,598617148
1142,1,Ticks_Pract_5,28,9999,9999,9999,599117940
1142,1,Ticks_Pract_5,29,9999,9999,9999,599617636
1142,1,Ticks_Pract_5,30,9999,9999,9999,600117328
1142,1,Ticks_Pract_5,31,9999,9999,9999,600618068
1142,1,Ticks_Pract_5,32,9999,9999,9999,601117764
1142,1,Ticks_Pract_5,33,9999,9999,9999,601617460
1142,1,Ticks_Pract_5,34,9999,9999,9999,602117228
1142,1,Ticks_Pract_5,35,9999,9999,9999,602617968
1142,1,Ticks_Pract_5,36,9999,9999,9999,603117664
1142,1,Ticks_Pract_5,37,9999,9999,9999,603617360
1142,1,Ticks_Pract_5,38,9999,9999,9999,604118108
1142,1,Ticks_Pract_5,39,9999,9999,9999,604617796
1143,2,T1_SMS_8,0,5,42,127,713132524
1143,2,T1_SMS_8,1,5,42,127,713932280
1143,2,T1_SMS_8,2,5,42,127,714731812
1143,2,T1_SMS_8,3,1,48,25,714754900
1143,2,T1_SMS_8,4,1,48,29,715526940
1143,2,T1_SMS_8,5,5,42,127,715531760
1143,2,T1_SMS_8,6,5,42,127,716332252
1143,2,T1_SMS_8,7,1,48,27,716384236
1143,2,T1_SMS_8,8,5,42,127,717132012
1143,2,T1_SMS_8,9,1,48,27,717164972
1143,2,T1_SMS_8,10,5,42,127,717931820
1143,2,T1_SMS_8,11,1,48,27,717949076
1143,2,T1_SMS_8,12,5,42,127,718731700
1143,2,T1_SMS_8,13,1,48,27,718763988
1143,2,T1_SMS_8,14,5,42,127,719532480
1143,2,T1_SMS_8,15,1,48,32,719568436
1143,2,T1_SMS_8,16,5,42,127,720331992
1143,2,T1_SMS_8,17,1,48,30,720423740
1143,2,T1_SMS_8,18,1,48,22,721120616
1143,2,T1_SMS_8,19,5,42,127,721131940
1143,2,T1_SMS_8,20,1,48,23,721885936
1143,2,T1_SMS_8,21,5,42,127,721931748
1143,2,T1_SMS_8,22,5,42,127,722732460
1143,2,T1_SMS_8,23,1,48,25,722755628
1143,2,T1_SMS_8,24,5,42,127,723532072
1143,2,T1_SMS_8,25,1,48,33,723581416
1143,2,T1_SMS_8,26,5,42,127,724331880
1143,2,T1_SMS_8,27,1,48,31,724335896
1143,2,T1_SMS_8,28,5,42,127,725131764
1143,2,T1_SMS_8,29,1,48,24,725138552
1143,2,T1_SMS_8,30,5,42,127,725932320
1143,2,T1_SMS_8,31,1,48,36,725951820
1143,2,T1_SMS_8,32,5,42,127,726732132
1143,2,T1_SMS_8,33,1,48,29,726759332
1143,2,T1_SMS_8,34,1,48,31,727488216
1143,2,T1_SMS_8,35,5,42,127,727531932
1143,2,T1_SMS_8,36,1,48,22,728330232
1143,2,T1_SMS_8,37,5,42,127,728331888
1143,2,T1_SMS_8,38,5,42,127,729132456
1143,2,T1_SMS_8,39,1,48,25,729168288
1143,2,T1_SMS_8,40,5,42,127,729931992
1143,2,T1_SMS_8,41,1,48,27,729970940
1143,2,T1_SMS_8,42,5,42,127,730731876
1143,2,T1_SMS_8,43,1,48,24,730780920
1143,2,T1_SMS_8,44,5,42,127,731531832
1143,2,T1_SMS_8,45,1,48,29,731596136
1143,2,T1_SMS_8,46,5,42,127,732332612
1143,2,T1_SMS_8,47,1,48,21,732349944
1143,2,T1_SMS_8,48,1,48,31,733108672
1143,2,T1_SMS_8,49,5,42,127,733132264
1143,2,T1_SMS_8,50,5,42,127,733931856
1143,2,T1_SMS_8,51,1,48,22,733969980
1143,2,T1_SMS_8,52,1,48,25,734697364
1143,2,T1_SMS_8,53,5,42,127,734731880
1143,2,T1_SMS_8,54,1,48,22,735479220
1143,2,T1_SMS_8,55,5,42,127,735532508
1143,2,T1_SMS_8,56,1,48,15,736295560
1143,2,T1_SMS_8,57,5,42,127,736332120
1143,2,T1_SMS_8,58,1,48,19,737087520
1143,2,T1_SMS_8,59,5,42,127,737131780
1143,2,T1_SMS_8,60,1,48,21,737920260
1143,2,T1_SMS_8,61,5,42,127,737931736
1143,2,T1_SMS_8,62,1,48,18,738700324
1143,2,T1_SMS_8,63,5,42,127,738732444
1143,2,T1_SMS_8,64,1,48,23,739501476
1143,2,T1_SMS_8,65,5,42,127,739532324
1143,2,T1_SMS_8,66,1,48,21,740312280
1143,2,T1_SMS_8,67,5,42,127,740331760
1143,2,T1_SMS_8,68,1,48,25,741105880
1143,2,T1_SMS_8,69,5,42,127,741131572
1143,2,T1_SMS_8,70,1,48,19,741855120
1143,2,T1_SMS_8,71,5,42,127,741932572
1143,2,T1_SMS_8,72,1,48,19,742641024
1143,2,T1_SMS_8,73,5,42,127,742732032
1143,2,T1_SMS_8,74,5,42,127,743531848
1143,2,T1_SMS_8,75,1,48,19,743566908
1143,2,T1_SMS_8,76,5,42,127,744331508
1143,2,T1_SMS_8,77,1,48,21,744454824
1143,2,T1_SMS_8,78,5,42,127,745132360
1143,2,T1_SMS_8,79,5,42,127,745932116
1143,2,T1_SMS_8,80,1,48,19,746059952
1143,2,T1_SMS_8,81,5,42,127,746731852
1143,2,T1_SMS_8,82,1,48,19,746806480
1143,2,T1_SMS_8,83,1,48,20,747497884
1143,2,T1_SMS_8,84,5,42,127,747531724
1143,2,T1_SMS_8,85,1,48,22,748314896
1143,2,T1_SMS_8,86,5,42,127,748332580
1143,2,T1_SMS_8,87,1,48,19,749098844
1143,2,T1_SMS_8,88,5,42,127,749132116
1143,2,T1_SMS_8,89,1,48,16,749883020
1143,2,T1_SMS_8,90,5,42,127,749931996
1143,2,T1_SMS_8,91,1,48,17,750676644
1143,2,T1_SMS_8,92,5,42,127,750731580
1143,2,T1_SMS_8,93,1,48,17,751464260
1143,2,T1_SMS_8,94,5,42,127,751532508
1143,2,T1_SMS_8,95,5,42,127,752332472
1143,2,T1_SMS_8,96,1,48,18,752360652
1143,2,T1_SMS_8,97,5,42,127,753131836
1143,2,T1_SMS_8,98,1,48,20,753221720
1143,2,T1_SMS_8,99,1,48,22,753909756
1143,2,T1_SMS_8,100,5,42,127,753931636
1143,2,T1_SMS_8,101,1,48,19,754682192
1143,2,T1_SMS_8,102,5,42,127,754732712
1143,2,T1_SMS_8,103,5,42,127,755532332
1143,2,T1_SMS_8,104,1,48,19,755572928
1143,2,T1_SMS_8,105,1,48,21,756323428
1143,2,T1_SMS_8,106,5,42,127,756331836
1143,2,T1_SMS_8,107,5,42,127,757131576
1143,2,T1_SMS_8,108,1,48,24,757137912
1143,2,T1_SMS_8,109,1,48,19,757866944
1143,2,T1_SMS_8,110,5,42,127,757932348
1143,2,T1_SMS_8,111,5,42,127,758732388
1143,2,T1_SMS_8,112,1,48,20,758735432
1143,2,T1_SMS_8,113,1,48,18,759511812
1143,2,T1_SMS_8,114,5,42,127,759531816
1143,2,T1_SMS_8,115,5,42,127,760331560
1143,2,T1_SMS_8,116,1,48,18,760334152
1143,2,T1_SMS_8,117,1,48,21,761113896
1143,2,T1_SMS_8,118,5,42,127,761132256
1143,2,T1_SMS_8,119,1,48,24,761912960
1143,2,T1_SMS_8,120,5,42,127,761932388
1143,2,T1_SMS_8,121,1,48,23,762719676
1143,2,T1_SMS_8,122,5,42,127,762731752
1143,2,T1_SMS_8,123,1,48,25,763478272
1143,2,T1_SMS_8,124,5,42,127,763531560
1143,2,T1_SMS_8,125,1,48,20,764298276
1143,2,T1_SMS_8,126,5,42,127,764332340
1143,2,T1_SMS_8,127,1,48,21,765113416
1143,2,T1_SMS_8,128,5,42,127,765132224
1143,2,T1_SMS_8,129,1,48,18,765896768
1143,2,T1_SMS_8,130,5,42,127,765931956
1143,2,T1_SMS_8,131,1,48,13,766663440
1143,2,T1_SMS_8,132,5,42,127,766731616
1143,2,T1_SMS_8,133,5,42,127,767532328
1143,2,T1_SMS_8,134,1,48,16,767556236
1143,2,T1_SMS_8,135,5,42,127,768332160
1143,2,T1_SMS_8,136,1,48,17,768382624
1143,2,T1_SMS_8,137,1,48,21,769097296
1143,2,T1_SMS_8,138,5,42,127,769131740
1143,2,T1_SMS_8,139,1,48,21,769839116
1143,2,T1_SMS_8,140,5,42,127,769931696
1143,2,T1_SMS_8,141,1,48,18,770627400
1143,2,T1_SMS_8,142,5,42,127,770732388
1143,2,T1_SMS_8,143,1,48,21,771458352
1143,2,T1_SMS_8,144,5,42,127,771532208
1143,2,T1_SMS_8,145,5,42,127,772332024
1143,2,T1_SMS_8,146,1,48,23,772391764
1143,2,T1_SMS_8,147,5,42,127,773131608
1143,2,T1_SMS_8,148,1,48,21,773186640
1143,2,T1_SMS_8,149,5,42,127,773932388
1143,2,T1_SMS_8,150,1,48,24,773942160
1143,2,T1_SMS_8,151,5,42,127,774731996
1143,2,T1_SMS_8,152,1,48,16,774766908
1143,2,T1_SMS_8,153,5,42,127,775532028
1143,2,T1_SMS_8,154,1,48,24,775567540
1143,2,T1_SMS_8,155,5,42,127,776331764
1143,2,T1_SMS_8,156,1,48,19,776404964
1143,2,T1_SMS_8,157,5,42,127,777132472
1143,2,T1_SMS_8,158,1,48,19,777201336
1143,2,T1_SMS_8,159,5,42,127,777932204
1143,2,T1_SMS_8,160,1,48,16,778017080
1143,2,T1_SMS_8,161,5,42,127,778731936
1143,2,T1_SMS_8,162,1,48,18,778796320
1143,2,T1_SMS_8,163,5,42,127,779531592
1143,2,T1_SMS_8,164,1,48,22,779560740
1143,2,T1_SMS_8,165,1,48,20,780286408
1143,2,T1_SMS_8,166,5,42,127,780332368
1143,2,T1_SMS_8,167,1,48,21,781130464
1143,2,T1_SMS_8,168,5,42,127,781132200
1143,2,T1_SMS_8,169,1,48,18,781887820
1143,2,T1_SMS_8,170,5,42,127,781932080
1143,2,T1_SMS_8,171,1,48,19,782702012
1143,2,T1_SMS_8,172,5,42,127,782731516
1143,2,T1_SMS_8,173,1,48,25,783521636
1143,2,T1_SMS_8,174,5,42,127,783532296
1143,2,T1_SMS_8,175,1,48,13,784295716
1143,2,T1_SMS_8,176,5,42,127,784332252
1143,2,T1_SMS_8,177,5,42,127,785132068
1143,2,T1_SMS_8,178,1,48,18,785874860
1143,2,T1_SMS_8,179,5,42,127,785931816
1143,2,T1_SMS_8,180,1,48,28,786675416
1143,2,T1_SMS_8,181,5,42,127,786732448
1143,2,T1_SMS_8,182,1,48,28,787465948
1143,2,T1_SMS_8,183,5,42,127,787532132
1143,2,T1_SMS_8,184,1,48,24,788281092
1143,2,T1_SMS_8,185,5,42,127,788332012
1143,2,T1_SMS_8,186,1,48,19,789107552
1143,2,T1_SMS_8,187,5,42,127,789131820
1143,2,T1_SMS_8,188,5,42,127,789932308
1143,2,T1_SMS_8,189,1,48,17,789984644
1143,2,T1_SMS_8,190,5,42,127,790732264
1143,2,T1_SMS_8,191,1,48,26,790854560
1143,2,T1_SMS_8,192,1,48,21,791495676
1143,2,T1_SMS_8,193,5,42,127,791531992
1143,2,T1_SMS_8,194,1,48,19,792296988
1143,2,T1_SMS_8,195,5,42,127,792331800
1143,2,T1_SMS_8,196,1,48,18,793109136
1143,2,T1_SMS_8,197,5,42,127,793132436
1143,2,T1_SMS_8,198,5,42,127,793932124
1143,2,T1_SMS_8,199,1,48,15,793963140
1143,2,T1_SMS_8,200,1,48,18,794730880
1143,2,T1_SMS_8,201,5,42,127,794732600
1143,2,T1_SMS_8,202,5,42,127,795531888
1143,2,T1_SMS_8,203,1,48,22,795542936
1143,2,T1_SMS_8,204,5,42,127,796332372
1143,2,T1_SMS_8,205,1,48,20,796359952
1143,2,T1_SMS_8,206,1,48,22,797064668
1143,2,T1_SMS_8,207,5,42,127,797132024
1143,2,T1_SMS_8,208,1,48,26,797868816
1143,2,T1_SMS_8,209,5,42,127,797931756
1143,2,T1_SMS_8,210,1,48,25,798684184
1143,2,T1_SMS_8,211,5,42,127,798731784
1143,2,T1_SMS_8,212,1,48,25,799471948
1143,2,T1_SMS_8,213,5,42,127,799532416
1143,2,T1_SMS_8,214,1,48,19,800258444
1143,2,T1_SMS_8,215,5,42,127,800332100
1143,2,T1_SMS_8,216,1,48,18,801100236
1143,2,T1_SMS_8,217,5,42,127,801131836
1143,2,T1_SMS_8,218,1,48,19,801898100
1143,2,T1_SMS_8,219,5,42,127,801931716
1143,2,T1_SMS_8,220,1,48,15,802719228
1143,2,T1_SMS_8,221,5,42,127,802732572
1143,2,T1_SMS_8,222,5,42,127,803532088
1143,2,T1_SMS_8,223,1,48,26,803599760
1143,2,T1_SMS_8,224,5,42,127,804331896
1143,2,T1_SMS_8,225,1,48,19,804346680
1143,2,T1_SMS_8,226,1,48,20,805078336
1143,2,T1_SMS_8,227,5,42,127,805131700
1143,2,T1_SMS_8,228,1,48,21,805893624
1143,2,T1_SMS_8,229,5,42,127,805932476
1143,2,T1_SMS_8,230,5,42,127,806732096
1143,2,T1_SMS_8,231,1,48,23,806746360
1143,2,T1_SMS_8,232,1,48,21,807524080
1143,2,T1_SMS_8,233,5,42,127,807531896
1143,2,T1_SMS_8,234,5,42,127,808331712
1143,2,T1_SMS_8,235,1,48,22,808405144
1143,2,T1_SMS_8,0,9999,9999,9999,713130088
1143,2,T1_SMS_8,1,9999,9999,9999,713929844
1143,2,T1_SMS_8,2,9999,9999,9999,714729524
1143,2,T1_SMS_8,3,9999,9999,9999,715529324
1143,2,T1_SMS_8,4,9999,9999,9999,716330036
1143,2,T1_SMS_8,5,9999,9999,9999,717129796
1143,2,T1_SMS_8,6,9999,9999,9999,717929532
1143,2,T1_SMS_8,7,9999,9999,9999,718729264
1143,2,T1_SMS_8,8,9999,9999,9999,719530044
1143,2,T1_SMS_8,9,9999,9999,9999,720329776
1143,2,T1_SMS_8,10,9999,9999,9999,721129580
1143,2,T1_SMS_8,11,9999,9999,9999,721929312
1143,2,T1_SMS_8,12,9999,9999,9999,722730096
1143,2,T1_SMS_8,13,9999,9999,9999,723529784
1143,2,T1_SMS_8,14,9999,9999,9999,724329592
1143,2,T1_SMS_8,15,9999,9999,9999,725129328
1143,2,T1_SMS_8,16,9999,9999,9999,725930032
1143,2,T1_SMS_8,17,9999,9999,9999,726729844
1143,2,T1_SMS_8,18,9999,9999,9999,727529568
1143,2,T1_SMS_8,19,9999,9999,9999,728329308
1143,2,T1_SMS_8,20,9999,9999,9999,729130092
1143,2,T1_SMS_8,21,9999,9999,9999,729929780
1143,2,T1_SMS_8,22,9999,9999,9999,730729588
1143,2,T1_SMS_8,23,9999,9999,9999,731529320
1143,2,T1_SMS_8,24,9999,9999,9999,732330100
1143,2,T1_SMS_8,25,9999,9999,9999,733129828
1143,2,T1_SMS_8,26,9999,9999,9999,733929568
1143,2,T1_SMS_8,27,9999,9999,9999,734729292
1143,2,T1_SMS_8,28,9999,9999,9999,735530072
1143,2,T1_SMS_8,29,9999,9999,9999,736329832
1143,2,T1_SMS_8,30,9999,9999,9999,737129568
1143,2,T1_SMS_8,31,9999,9999,9999,737929300
1143,2,T1_SMS_8,32,9999,9999,9999,738730080
1143,2,T1_SMS_8,33,9999,9999,9999,739529812
1143,2,T1_SMS_8,34,9999,9999,9999,740329548
1143,2,T1_SMS_8,35,9999,9999,9999,741129284
1143,2,T1_SMS_8,36,9999,9999,9999,741930060
1143,2,T1_SMS_8,37,9999,9999,9999,742729820
1143,2,T1_SMS_8,38,9999,9999,9999,743529560
1143,2,T1_SMS_8,39,9999,9999,9999,744329292
1143,2,T1_SMS_8,40,9999,9999,9999,745130072
1143,2,T1_SMS_8,41,9999,9999,9999,745929828
1143,2,T1_SMS_8,42,9999,9999,9999,746729564
1143,2,T1_SMS_8,43,9999,9999,9999,747529288
1143,2,T1_SMS_8,44,9999,9999,9999,748330068
1143,2,T1_SMS_8,45,9999,9999,9999,749129828
1143,2,T1_SMS_8,46,9999,9999,9999,749929560
1143,2,T1_SMS_8,47,9999,9999,9999,750729296
1143,2,T1_SMS_8,48,9999,9999,9999,751530072
1143,2,T1_SMS_8,49,9999,9999,9999,752329812
1143,2,T1_SMS_8,50,9999,9999,9999,753129548
1143,2,T1_SMS_8,51,9999,9999,9999,753929272
1143,2,T1_SMS_8,52,9999,9999,9999,754730052
1143,2,T1_SMS_8,53,9999,9999,9999,755529820
1143,2,T1_SMS_8,54,9999,9999,9999,756329548
1143,2,T1_SMS_8,55,9999,9999,9999,757129288
1143,2,T1_SMS_8,56,9999,9999,9999,757930060
1143,2,T1_SMS_8,57,9999,9999,9999,758729800
1143,2,T1_SMS_8,58,9999,9999,9999,759529528
1143,2,T1_SMS_8,59,9999,9999,9999,760329272
1143,2,T1_SMS_8,60,9999,9999,9999,761130044
1143,2,T1_SMS_8,61,9999,9999,9999,761929804
1143,2,T1_SMS_8,62,9999,9999,9999,762729536
1143,2,T1_SMS_8,63,9999,9999,9999,763529272
1143,2,T1_SMS_8,64,9999,9999,9999,764330052
1143,2,T1_SMS_8,65,9999,9999,9999,765129788
1143,2,T1_SMS_8,66,9999,9999,9999,765929520
1143,2,T1_SMS_8,67,9999,9999,9999,766729328
1143,2,T1_SMS_8,68,9999,9999,9999,767530040
1143,2,T1_SMS_8,69,9999,9999,9999,768329796
1143,2,T1_SMS_8,70,9999,9999,9999,769129524
1143,2,T1_SMS_8,71,9999,9999,9999,769929332
1143,2,T1_SMS_8,72,9999,9999,9999,770730096
1143,2,T1_SMS_8,73,9999,9999,9999,771529848
1143,2,T1_SMS_8,74,9999,9999,9999,772329588
1143,2,T1_SMS_8,75,9999,9999,9999,773129320
1143,2,T1_SMS_8,76,9999,9999,9999,773930100
1143,2,T1_SMS_8,77,9999,9999,9999,774729784
1143,2,T1_SMS_8,78,9999,9999,9999,775529592
1143,2,T1_SMS_8,79,9999,9999,9999,776329324
1143,2,T1_SMS_8,80,9999,9999,9999,777130032
1143,2,T1_SMS_8,81,9999,9999,9999,777929840
1143,2,T1_SMS_8,82,9999,9999,9999,778729572
1143,2,T1_SMS_8,83,9999,9999,9999,779529304
1143,2,T1_SMS_8,84,9999,9999,9999,780330080
1143,2,T1_SMS_8,85,9999,9999,9999,781129860
1143,2,T1_SMS_8,86,9999,9999,9999,781929568
1143,2,T1_SMS_8,87,9999,9999,9999,782729304
1143,2,T1_SMS_8,88,9999,9999,9999,783530080
1143,2,T1_SMS_8,89,9999,9999,9999,784329816
1143,2,T1_SMS_8,90,9999,9999,9999,785129556
1143,2,T1_SMS_8,91,9999,9999,9999,785929304
1143,2,T1_SMS_8,92,9999,9999,9999,786730084
1143,2,T1_SMS_8,93,9999,9999,9999,787529844
1143,2,T1_SMS_8,94,9999,9999,9999,788329576
1143,2,T1_SMS_8,95,9999,9999,9999,789129312
1143,2,T1_SMS_8,96,9999,9999,9999,789930096
1143,2,T1_SMS_8,97,9999,9999,9999,790729828
1143,2,T1_SMS_8,98,9999,9999,9999,791529556
1143,2,T1_SMS_8,99,9999,9999,9999,792329288
1143,2,T1_SMS_8,100,9999,9999,9999,793130072
1143,2,T1_SMS_8,101,9999,9999,9999,793929836
1143,2,T1_SMS_8,102,9999,9999,9999,794729568
1143,2,T1_SMS_8,103,9999,9999,9999,795529304
1143,2,T1_SMS_8,104,9999,9999,9999,796330084
1143,2,T1_SMS_8,105,9999,9999,9999,797129808
1143,2,T1_SMS_8,106,9999,9999,9999,797929540
1143,2,T1_SMS_8,107,9999,9999,9999,798729276
1143,2,T1_SMS_8,108,9999,9999,9999,799530056
1143,2,T1_SMS_8,109,9999,9999,9999,800329812
1143,2,T1_SMS_8,110,9999,9999,9999,801129548
1143,2,T1_SMS_8,111,9999,9999,9999,801929280
1143,2,T1_SMS_8,112,9999,9999,9999,802730060
1143,2,T1_SMS_8,113,9999,9999,9999,803529800
1143,2,T1_SMS_8,114,9999,9999,9999,804329536
1143,2,T1_SMS_8,115,9999,9999,9999,805129260
1143,2,T1_SMS_8,116,9999,9999,9999,805930040
1143,2,T1_SMS_8,117,9999,9999,9999,806729808
1143,2,T1_SMS_8,118,9999,9999,9999,807529532
1143,2,T1_SMS_8,119,9999,9999,9999,808329276
1144,4,T1_SMS_5,0,5,42,127,907227684
1144,4,T1_SMS_5,1,5,42,127,907728224
1144,4,T1_SMS_5,2,5,42,127,908228088
1144,4,T1_SMS_5,3,1,48,20,908254988
1144,4,T1_SMS_5,4,1,48,23,908719664
1144,4,T1_SMS_5,5,5,42,127,908727628
1144,4,T1_SMS_5,6,1,48,24,909182336
1144,4,T1_SMS_5,7,5,42,127,909228296
1144,4,T1_SMS_5,8,1,48,20,909727016
1144,4,T1_SMS_5,9,5,42,127,909728660
1144,4,T1_SMS_5,10,5,42,127,910228068
1144,4,T1_SMS_5,11,1,48,20,910247640
1144,4,T1_SMS_5,12,5,42,127,910727540
1144,4,T1_SMS_5,13,1,48,23,910731704
1144,4,T1_SMS_5,14,5,42,127,911228204
1144,4,T1_SMS_5,15,1,48,19,911246732
1144,4,T1_SMS_5,16,1,48,19,911717164
1144,4,T1_SMS_5,17,5,42,127,911728120
1144,4,T1_SMS_5,18,5,42,127,912227896
1144,4,T1_SMS_5,19,1,48,19,912237900
1144,4,T1_SMS_5,20,1,48,21,912724928
1144,4,T1_SMS_5,21,5,42,127,912728484
1144,4,T1_SMS_5,22,5,42,127,913228112
1144,4,T1_SMS_5,23,1,48,17,913229672
1144,4,T1_SMS_5,24,1,48,19,913720632
1144,4,T1_SMS_5,25,5,42,127,913728096
1144,4,T1_SMS_5,26,5,42,127,914227700
1144,4,T1_SMS_5,27,1,48,21,914245728
1144,4,T1_SMS_5,28,1,48,20,914723236
1144,4,T1_SMS_5,29,5,42,127,914728432
1144,4,T1_SMS_5,30,5,42,127,915227988
1144,4,T1_SMS_5,31,1,48,24,915228952
1144,4,T1_SMS_5,32,5,42,127,915727980
1144,4,T1_SMS_5,33,1,48,27,915732520
1144,4,T1_SMS_5,34,5,42,127,916227300
1144,4,T1_SMS_5,35,1,48,26,916234004
1144,4,T1_SMS_5,36,5,42,127,916728192
1144,4,T1_SMS_5,37,1,48,20,916733476
1144,4,T1_SMS_5,38,1,48,22,917227212
1144,4,T1_SMS_5,39,5,42,127,917228776
1144,4,T1_SMS_5,40,1,48,19,917724696
1144,4,T1_SMS_5,41,5,42,127,917727796
1144,4,T1_SMS_5,42,1,48,20,918227268
1144,4,T1_SMS_5,43,5,42,127,918228836
1144,4,T1_SMS_5,44,1,48,18,918702396
1144,4,T1_SMS_5,45,5,42,127,918728012
1144,4,T1_SMS_5,46,1,48,20,919224152
1144,4,T1_SMS_5,47,5,42,127,919227932
1144,4,T1_SMS_5,48,5,42,127,919727560
1144,4,T1_SMS_5,49,1,48,19,919738904
1144,4,T1_SMS_5,50,1,48,20,920218836
1144,4,T1_SMS_5,51,5,42,127,920228068
1144,4,T1_SMS_5,52,1,48,17,920721820
1144,4,T1_SMS_5,53,5,42,127,920727988
1144,4,T1_SMS_5,54,1,48,19,921224728
1144,4,T1_SMS_5,55,5,42,127,921227832
1144,4,T1_SMS_5,56,5,42,127,921728284
1144,4,T1_SMS_5,57,1,48,15,921743592
1144,4,T1_SMS_5,58,5,42,127,922227976
1144,4,T1_SMS_5,59,1,48,15,922234236
1144,4,T1_SMS_5,60,1,48,19,922717384
1144,4,T1_SMS_5,61,5,42,127,922727740
1144,4,T1_SMS_5,62,1,48,25,923227064
1144,4,T1_SMS_5,63,5,42,127,923228556
1144,4,T1_SMS_5,64,1,48,24,923719016
1144,4,T1_SMS_5,65,5,42,127,923728100
1144,4,T1_SMS_5,66,5,42,127,924227876
1144,4,T1_SMS_5,67,1,48,17,924237800
1144,4,T1_SMS_5,68,1,48,19,924717928
1144,4,T1_SMS_5,69,5,42,127,924727688
1144,4,T1_SMS_5,70,1,48,21,925206180
1144,4,T1_SMS_5,71,5,42,127,925228508
1144,4,T1_SMS_5,72,1,48,20,925670120
1144,4,T1_SMS_5,73,5,42,127,925728200
1144,4,T1_SMS_5,74,1,48,16,926216864
1144,4,T1_SMS_5,75,5,42,127,926227748
1144,4,T1_SMS_5,76,1,48,19,926720300
1144,4,T1_SMS_5,77,5,42,127,926727664
1144,4,T1_SMS_5,78,1,48,18,927220296
1144,4,T1_SMS_5,79,5,42,127,927228260
1144,4,T1_SMS_5,80,1,48,18,927692688
1144,4,T1_SMS_5,81,5,42,127,927728028
1144,4,T1_SMS_5,82,5,42,127,928227804
1144,4,T1_SMS_5,83,1,48,21,928240496
1144,4,T1_SMS_5,84,1,48,21,928712496
1144,4,T1_SMS_5,85,5,42,127,928728540
1144,4,T1_SMS_5,86,5,42,127,929228168
1144,4,T1_SMS_5,87,1,48,21,929234648
1144,4,T1_SMS_5,88,5,42,127,929727788
1144,4,T1_SMS_5,89,1,48,21,930223424
1144,4,T1_SMS_5,90,5,42,127,930227720
1144,4,T1_SMS_5,91,1,48,19,930714584
1144,4,T1_SMS_5,92,5,42,127,930728240
1144,4,T1_SMS_5,93,5,42,127,931227940
1144,4,T1_SMS_5,94,1,48,27,931231060
1144,4,T1_SMS_5,95,1,48,16,931682116
1144,4,T1_SMS_5,96,5,42,127,931727628
1144,4,T1_SMS_5,97,1,48,21,932222424
1144,4,T1_SMS_5,98,5,42,127,932227548
1144,4,T1_SMS_5,99,1,48,17,932709032
1144,4,T1_SMS_5,100,5,42,127,932728216
1144,4,T1_SMS_5,101,5,42,127,933227844
1144,4,T1_SMS_5,102,1,48,19,933229328
1144,4,T1_SMS_5,103,1,48,19,933680572
1144,4,T1_SMS_5,104,5,42,127,933727756
1144,4,T1_SMS_5,105,1,48,16,934201660
1144,4,T1_SMS_5,106,5,42,127,934228572
1144,4,T1_SMS_5,107,1,48,16,934699632
1144,4,T1_SMS_5,108,5,42,127,934728116
1144,4,T1_SMS_5,109,1,48,18,935228092
1144,4,T1_SMS_5,110,5,42,127,935229356
1144,4,T1_SMS_5,111,1,48,15,935666868
1144,4,T1_SMS_5,112,5,42,127,935727484
1144,4,T1_SMS_5,113,1,48,14,936220788
1144,4,T1_SMS_5,114,5,42,127,936228152
1144,4,T1_SMS_5,115,1,48,18,936712476
1144,4,T1_SMS_5,116,5,42,127,936727996
1144,4,T1_SMS_5,117,1,48,21,937198860
1144,4,T1_SMS_5,118,5,42,127,937227616
1144,4,T1_SMS_5,119,5,42,127,937728732
1144,4,T1_SMS_5,120,1,48,17,937735220
1144,4,T1_SMS_5,121,1,48,15,938222328
1144,4,T1_SMS_5,122,5,42,127,938228124
1144,4,T1_SMS_5,123,1,48,19,938716568
1144,4,T1_SMS_5,124,5,42,127,938727820
1144,4,T1_SMS_5,125,1,48,19,939198156
1144,4,T1_SMS_5,126,5,42,127,939227588
1144,4,T1_SMS_5,127,5,42,127,939728188
1144,4,T1_SMS_5,128,1,48,21,939737664
1144,4,T1_SMS_5,129,1,48,17,940204500
1144,4,T1_SMS_5,130,5,42,127,940227948
1144,4,T1_SMS_5,131,1,48,22,940698816
1144,4,T1_SMS_5,132,5,42,127,940727720
1144,4,T1_SMS_5,133,5,42,127,941228616
1144,4,T1_SMS_5,134,1,48,20,941230556
1144,4,T1_SMS_5,135,1,48,19,941726496
1144,4,T1_SMS_5,136,5,42,127,941728084
1144,4,T1_SMS_5,137,1,48,23,942219068
1144,4,T1_SMS_5,138,5,42,127,942227704
1144,4,T1_SMS_5,139,1,48,18,942659972
1144,4,T1_SMS_5,140,5,42,127,942727472
1144,4,T1_SMS_5,141,5,42,127,943228448
1144,4,T1_SMS_5,142,1,48,24,943238524
1144,4,T1_SMS_5,143,5,42,127,943727844
1144,4,T1_SMS_5,144,1,48,19,943762296
1144,4,T1_SMS_5,145,1,48,21,944217844
1144,4,T1_SMS_5,146,5,42,127,944227680
1144,4,T1_SMS_5,147,1,48,22,944706620
1144,4,T1_SMS_5,148,5,42,127,944728644
1144,4,T1_SMS_5,149,1,48,24,945218660
1144,4,T1_SMS_5,150,5,42,127,945228192
1144,4,T1_SMS_5,151,5,42,127,945727820
1144,4,T1_SMS_5,152,1,48,21,945730412
1144,4,T1_SMS_5,153,1,48,22,946214132
1144,4,T1_SMS_5,154,5,42,127,946227556
1144,4,T1_SMS_5,155,1,48,30,946714052
1144,4,T1_SMS_5,156,5,42,127,946728596
1144,4,T1_SMS_5,157,5,42,127,947228000
1144,4,T1_SMS_5,158,1,48,21,947237032
1144,4,T1_SMS_5,159,5,42,127,947727696
1144,4,T1_SMS_5,160,1,48,19,947752428
1144,4,T1_SMS_5,161,5,42,127,948227540
1144,4,T1_SMS_5,162,1,48,24,948232972
1144,4,T1_SMS_5,163,1,48,16,948721732
1144,4,T1_SMS_5,164,5,42,127,948728272
1144,4,T1_SMS_5,165,5,42,127,949227976
1144,4,T1_SMS_5,166,1,48,26,949233188
1144,4,T1_SMS_5,167,1,48,24,949708856
1144,4,T1_SMS_5,168,5,42,127,949727588
1144,4,T1_SMS_5,169,1,48,22,950215880
1144,4,T1_SMS_5,170,5,42,127,950228332
1144,4,T1_SMS_5,171,1,48,20,950726136
1144,4,T1_SMS_5,172,5,42,127,950727952
1144,4,T1_SMS_5,173,1,48,23,951218784
1144,4,T1_SMS_5,174,5,42,127,951227720
1144,4,T1_SMS_5,175,1,48,20,951714512
1144,4,T1_SMS_5,176,5,42,127,951727492
1144,4,T1_SMS_5,177,1,48,23,952206356
1144,4,T1_SMS_5,178,5,42,127,952228308
1144,4,T1_SMS_5,179,1,48,21,952718992
1144,4,T1_SMS_5,180,5,42,127,952727928
1144,4,T1_SMS_5,181,5,42,127,953227628
1144,4,T1_SMS_5,182,1,48,20,953244432
1144,4,T1_SMS_5,183,1,48,18,953715160
1144,4,T1_SMS_5,184,5,42,127,953728288
1144,4,T1_SMS_5,185,1,48,21,954195260
1144,4,T1_SMS_5,186,5,42,127,954228056
1144,4,T1_SMS_5,187,1,48,23,954711560
1144,4,T1_SMS_5,188,5,42,127,954727752
1144,4,T1_SMS_5,189,1,48,19,955200332
1144,4,T1_SMS_5,190,5,42,127,955227448
1144,4,T1_SMS_5,191,1,48,18,955690652
1144,4,T1_SMS_5,192,5,42,127,955728340
1144,4,T1_SMS_5,193,5,42,127,956227816
1144,4,T1_SMS_5,194,1,48,23,956268560
1144,4,T1_SMS_5,195,5,42,127,956727784
1144,4,T1_SMS_5,196,1,48,20,956751048
1144,4,T1_SMS_5,197,5,42,127,957228376
1144,4,T1_SMS_5,198,1,48,19,957262264
1144,4,T1_SMS_5,199,1,48,21,957727848
1144,4,T1_SMS_5,200,5,42,127,957729336
1144,4,T1_SMS_5,201,5,42,127,958227768
1144,4,T1_SMS_5,202,1,48,18,958237844
1144,4,T1_SMS_5,203,5,42,127,958727460
1144,4,T1_SMS_5,204,5,42,127,959228224
1144,4,T1_SMS_5,205,1,48,22,959303396
1144,4,T1_SMS_5,206,5,42,127,959727920
1144,4,T1_SMS_5,207,1,48,15,959758864
1144,4,T1_SMS_5,208,5,42,127,960227836
1144,4,T1_SMS_5,209,1,48,13,960274488
1144,4,T1_SMS_5,210,1,48,19,960725324
1144,4,T1_SMS_5,211,5,42,127,960728500
1144,4,T1_SMS_5,212,5,42,127,961228276
1144,4,T1_SMS_5,213,1,48,28,961243736
1144,4,T1_SMS_5,214,5,42,127,961727824
1144,4,T1_SMS_5,215,1,48,18,961784492
1144,4,T1_SMS_5,216,1,48,21,962211764
1144,4,T1_SMS_5,217,5,42,127,962227512
1144,4,T1_SMS_5,218,1,48,17,962697552
1144,4,T1_SMS_5,219,5,42,127,962728176
1144,4,T1_SMS_5,220,1,48,19,963199860
1144,4,T1_SMS_5,221,5,42,127,963228096
1144,4,T1_SMS_5,222,1,48,20,963725904
1144,4,T1_SMS_5,223,5,42,127,963727644
1144,4,T1_SMS_5,224,1,48,19,964181300
1144,4,T1_SMS_5,225,5,42,127,964227336
1144,4,T1_SMS_5,226,1,48,17,964718172
1144,4,T1_SMS_5,227,5,42,127,964728152
1144,4,T1_SMS_5,228,1,48,16,965205820
1144,4,T1_SMS_5,229,5,42,127,965227996
1144,4,T1_SMS_5,230,1,48,18,965688136
1144,4,T1_SMS_5,231,5,42,127,965727616
1144,4,T1_SMS_5,232,5,42,127,966228292
1144,4,T1_SMS_5,233,1,48,19,966708864
1144,4,T1_SMS_5,234,5,42,127,966728000
1144,4,T1_SMS_5,235,1,48,26,967220076
1144,4,T1_SMS_5,236,5,42,127,967227820
1144,4,T1_SMS_5,237,5,42,127,967727520
1144,4,T1_SMS_5,238,1,48,20,967736548
1144,4,T1_SMS_5,239,1,48,20,968192764
1144,4,T1_SMS_5,240,5,42,127,968228104
1144,4,T1_SMS_5,241,1,48,18,968724172
1144,4,T1_SMS_5,242,5,42,127,968727948
1144,4,T1_SMS_5,243,5,42,127,969227576
1144,4,T1_SMS_5,244,1,48,19,969258740
1144,4,T1_SMS_5,245,5,42,127,969728316
1144,4,T1_SMS_5,246,1,48,19,969739664
1144,4,T1_SMS_5,247,5,42,127,970228160
1144,4,T1_SMS_5,248,1,48,17,970268304
1144,4,T1_SMS_5,249,1,48,19,970703052
1144,4,T1_SMS_5,250,5,42,127,970727996
1144,4,T1_SMS_5,251,5,42,127,971227476
1144,4,T1_SMS_5,252,1,48,18,971232160
1144,4,T1_SMS_5,253,5,42,127,971728288
1144,4,T1_SMS_5,254,1,48,17,971751532
1144,4,T1_SMS_5,0,9999,9999,9999,907225168
1144,4,T1_SMS_5,1,9999,9999,9999,907725932
1144,4,T1_SMS_5,2,9999,9999,9999,908225648
1144,4,T1_SMS_5,3,9999,9999,9999,908725340
1144,4,T1_SMS_5,4,9999,9999,9999,909226080
1144,4,T1_SMS_5,5,9999,9999,9999,909725780
1144,4,T1_SMS_5,6,9999,9999,9999,910225480
1144,4,T1_SMS_5,7,9999,9999,9999,910725176
1144,4,T1_SMS_5,8,9999,9999,9999,911225916
1144,4,T1_SMS_5,9,9999,9999,9999,911725680
1144,4,T1_SMS_5,10,9999,9999,9999,912225380
1144,4,T1_SMS_5,11,9999,9999,9999,912726124
1144,4,T1_SMS_5,12,9999,9999,9999,913225820
1144,4,T1_SMS_5,13,9999,9999,9999,913725560
1144,4,T1_SMS_5,14,9999,9999,9999,914225260
1144,4,T1_SMS_5,15,9999,9999,9999,914725992
1144,4,T1_SMS_5,16,9999,9999,9999,915225696
1144,4,T1_SMS_5,17,9999,9999,9999,915725392
1144,4,T1_SMS_5,18,9999,9999,9999,916225084
1144,4,T1_SMS_5,19,9999,9999,9999,916725828
1144,4,T1_SMS_5,20,9999,9999,9999,917225520
1144,4,T1_SMS_5,21,9999,9999,9999,917725284
1144,4,T1_SMS_5,22,9999,9999,9999,918226032
1144,4,T1_SMS_5,23,9999,9999,9999,918725720
1144,4,T1_SMS_5,24,9999,9999,9999,919225416
1144,4,T1_SMS_5,25,9999,9999,9999,919725120
1144,4,T1_SMS_5,26,9999,9999,9999,920225852
1144,4,T1_SMS_5,27,9999,9999,9999,920725624
1144,4,T1_SMS_5,28,9999,9999,9999,921225320
1144,4,T1_SMS_5,29,9999,9999,9999,921726064
1144,4,T1_SMS_5,30,9999,9999,9999,922225760
1144,4,T1_SMS_5,31,9999,9999,9999,922725448
1144,4,T1_SMS_5,32,9999,9999,9999,923225152
1144,4,T1_SMS_5,33,9999,9999,9999,923725884
1144,4,T1_SMS_5,34,9999,9999,9999,924225584
1144,4,T1_SMS_5,35,9999,9999,9999,924725324
1144,4,T1_SMS_5,36,9999,9999,9999,925226068
1144,4,T1_SMS_5,37,9999,9999,9999,925725760
1144,4,T1_SMS_5,38,9999,9999,9999,926225456
1144,4,T1_SMS_5,39,9999,9999,9999,926725224
1144,4,T1_SMS_5,40,9999,9999,9999,927225968
1144,4,T1_SMS_5,41,9999,9999,9999,927725664
1144,4,T1_SMS_5,42,9999,9999,9999,928225364
1144,4,T1_SMS_5,43,9999,9999,9999,928726108
1144,4,T1_SMS_5,44,9999,9999,9999,929225804
1144,4,T1_SMS_5,45,9999,9999,9999,929725496
1144,4,T1_SMS_5,46,9999,9999,9999,930225208
1144,4,T1_SMS_5,47,9999,9999,9999,930725948
1144,4,T1_SMS_5,48,9999,9999,9999,931225652
1144,4,T1_SMS_5,49,9999,9999,9999,931725416
1144,4,T1_SMS_5,50,9999,9999,9999,932225108
1144,4,T1_SMS_5,51,9999,9999,9999,932725852
1144,4,T1_SMS_5,52,9999,9999,9999,933225552
1144,4,T1_SMS_5,53,9999,9999,9999,933725240
1144,4,T1_SMS_5,54,9999,9999,9999,934225984
1144,4,T1_SMS_5,55,9999,9999,9999,934725752
1144,4,T1_SMS_5,56,9999,9999,9999,935225428
1144,4,T1_SMS_5,57,9999,9999,9999,935725120
1144,4,T1_SMS_5,58,9999,9999,9999,936225860
1144,4,T1_SMS_5,59,9999,9999,9999,936725556
1144,4,T1_SMS_5,60,9999,9999,9999,937225324
1144,4,T1_SMS_5,61,9999,9999,9999,937726072
1144,4,T1_SMS_5,62,9999,9999,9999,938225760
1144,4,T1_SMS_5,63,9999,9999,9999,938725456
1144,4,T1_SMS_5,64,9999,9999,9999,939225148
1144,4,T1_SMS_5,65,9999,9999,9999,939725896
1144,4,T1_SMS_5,66,9999,9999,9999,940225584
1144,4,T1_SMS_5,67,9999,9999,9999,940725356
1144,4,T1_SMS_5,68,9999,9999,9999,941226104
1144,4,T1_SMS_5,69,9999,9999,9999,941725804
1144,4,T1_SMS_5,70,9999,9999,9999,942225492
1144,4,T1_SMS_5,71,9999,9999,9999,942725184
1144,4,T1_SMS_5,72,9999,9999,9999,943225932
1144,4,T1_SMS_5,73,9999,9999,9999,943725628
1144,4,T1_SMS_5,74,9999,9999,9999,944225388
1144,4,T1_SMS_5,75,9999,9999,9999,944726136
1144,4,T1_SMS_5,76,9999,9999,9999,945225828
1144,4,T1_SMS_5,77,9999,9999,9999,945725528
1144,4,T1_SMS_5,78,9999,9999,9999,946225268
1144,4,T1_SMS_5,79,9999,9999,9999,946726008
1144,4,T1_SMS_5,80,9999,9999,9999,947225712
1144,4,T1_SMS_5,81,9999,9999,9999,947725404
1144,4,T1_SMS_5,82,9999,9999,9999,948225100
1144,4,T1_SMS_5,83,9999,9999,9999,948725836
1144,4,T1_SMS_5,84,9999,9999,9999,949225536
1144,4,T1_SMS_5,85,9999,9999,9999,949725300
1144,4,T1_SMS_5,86,9999,9999,9999,950226040
1144,4,T1_SMS_5,87,9999,9999,9999,950725684
1144,4,T1_SMS_5,88,9999,9999,9999,951225432
1144,4,T1_SMS_5,89,9999,9999,9999,951725128
1144,4,T1_SMS_5,90,9999,9999,9999,952225868
1144,4,T1_SMS_5,91,9999,9999,9999,952725564
1144,4,T1_SMS_5,92,9999,9999,9999,953225264
1144,4,T1_SMS_5,93,9999,9999,9999,953726072
1144,4,T1_SMS_5,94,9999,9999,9999,954225768
1144,4,T1_SMS_5,95,9999,9999,9999,954725460
1144,4,T1_SMS_5,96,9999,9999,9999,955225156
1144,4,T1_SMS_5,97,9999,9999,9999,955725900
1144,4,T1_SMS_5,98,9999,9999,9999,956225600
1144,4,T1_SMS_5,99,9999,9999,9999,956725344
1144,4,T1_SMS_5,100,9999,9999,9999,957226088
1144,4,T1_SMS_5,101,9999,9999,9999,957725780
1144,4,T1_SMS_5,102,9999,9999,9999,958225476
1144,4,T1_SMS_5,103,9999,9999,9999,958725172
1144,4,T1_SMS_5,104,9999,9999,9999,959225936
1144,4,T1_SMS_5,105,9999,9999,9999,959725632
1144,4,T1_SMS_5,106,9999,9999,9999,960225400
1144,4,T1_SMS_5,107,9999,9999,9999,960726140
1144,4,T1_SMS_5,108,9999,9999,9999,961225836
1144,4,T1_SMS_5,109,9999,9999,9999,961725532
1144,4,T1_SMS_5,110,9999,9999,9999,962225220
1144,4,T1_SMS_5,111,9999,9999,9999,962725960
1144,4,T1_SMS_5,112,9999,9999,9999,963225656
1144,4,T1_SMS_5,113,9999,9999,9999,963725376
1144,4,T1_SMS_5,114,9999,9999,9999,964225120
1144,4,T1_SMS_5,115,9999,9999,9999,964725864
1144,4,T1_SMS_5,116,9999,9999,9999,965225560
1144,4,T1_SMS_5,117,9999,9999,9999,965725252
1144,4,T1_SMS_5,118,9999,9999,9999,966226000
1144,4,T1_SMS_5,119,9999,9999,9999,966725708
1144,4,T1_SMS_5,120,9999,9999,9999,967225456
1144,4,T1_SMS_5,121,9999,9999,9999,967725156
1144,4,T1_SMS_5,122,9999,9999,9999,968225888
1144,4,T1_SMS_5,123,9999,9999,9999,968725584
1144,4,T1_SMS_5,124,9999,9999,9999,969225284
1144,4,T1_SMS_5,125,9999,9999,9999,969726024
1144,4,T1_SMS_5,126,9999,9999,9999,970225720
1144,4,T1_SMS_5,127,9999,9999,9999,970725480
1144,4,T1_SMS_5,128,9999,9999,9999,971225184
1144,4,T1_SMS_5,129,9999,9999,9999,971725924
1145,22,Ticks_Phase_8,0,5,42,127,981991984
1145,22,Ticks_Phase_8,1,5,42,127,982791644
1145,22,Ticks_Phase_8,2,1,48,26,983571048
1145,22,Ticks_Phase_8,3,5,42,127,983592344
1145,22,Ticks_Phase_8,4,1,48,29,984363048
1145,22,Ticks_Phase_8,5,5,42,127,984392004
1145,22,Ticks_Phase_8,6,5,42,127,985191872
1145,22,Ticks_Phase_8,7,1,48,25,985193512
1145,22,Ticks_Phase_8,8,5,42,127,985991660
1145,22,Ticks_Phase_8,9,1,48,24,986004812
1145,22,Ticks_Phase_8,10,5,42,127,986792192
1145,22,Ticks_Phase_8,11,1,48,29,986821752
1145,22,Ticks_Phase_8,12,5,42,127,987591980
1145,22,Ticks_Phase_8,13,1,48,29,987612024
1145,22,Ticks_Phase_8,14,5,42,127,988391980
1145,22,Ticks_Phase_8,15,1,48,21,988435016
1145,22,Ticks_Phase_8,16,1,48,23,989178472
1145,22,Ticks_Phase_8,17,5,42,127,989191612
1145,22,Ticks_Phase_8,18,5,42,127,989992228
1145,22,Ticks_Phase_8,19,1,48,22,990026224
1145,22,Ticks_Phase_8,20,1,48,20,990789300
1145,22,Ticks_Phase_8,21,5,42,127,990791960
1145,22,Ticks_Phase_8,22,1,48,18,991561764
1145,22,Ticks_Phase_8,23,5,42,127,991591892
1145,22,Ticks_Phase_8,24,5,42,127,992391612
1145,22,Ticks_Phase_8,25,1,48,20,992403344
1145,22,Ticks_Phase_8,26,1,48,13,993164328
1145,22,Ticks_Phase_8,27,5,42,127,993192288
1145,22,Ticks_Phase_8,28,1,48,18,993932888
1145,22,Ticks_Phase_8,29,5,42,127,993992000
1145,22,Ticks_Phase_8,30,1,48,14,994713200
1145,22,Ticks_Phase_8,31,5,42,127,994791788
1145,22,Ticks_Phase_8,32,5,42,127,995591804
1145,22,Ticks_Phase_8,33,1,48,26,996281420
1145,22,Ticks_Phase_8,34,5,42,127,996392188
1145,22,Ticks_Phase_8,35,5,42,127,997192020
1145,22,Ticks_Phase_8,36,1,48,19,997913812
1145,22,Ticks_Phase_8,37,5,42,127,997991748
1145,22,Ticks_Phase_8,38,1,48,20,998703560
1145,22,Ticks_Phase_8,39,5,42,127,998791684
1145,22,Ticks_Phase_8,40,1,48,20,999493036
1145,22,Ticks_Phase_8,41,5,42,127,999592204
1145,22,Ticks_Phase_8,42,1,48,21,1000256876
1145,22,Ticks_Phase_8,43,5,42,127,1000391988
1145,22,Ticks_Phase_8,44,1,48,19,1001064824
1145,22,Ticks_Phase_8,45,5,42,127,1001191848
1145,22,Ticks_Phase_8,46,1,48,20,1001967656
1145,22,Ticks_Phase_8,47,5,42,127,1001991876
1145,22,Ticks_Phase_8,48,1,48,20,1002758076
1145,22,Ticks_Phase_8,49,5,42,127,1002792336
1145,22,Ticks_Phase_8,50,5,42,127,1003592080
1145,22,Ticks_Phase_8,51,1,48,18,1003672556
1145,22,Ticks_Phase_8,52,1,48,19,1004346268
1145,22,Ticks_Phase_8,53,5,42,127,1004391784
1145,22,Ticks_Phase_8,54,1,48,20,1005117772
1145,22,Ticks_Phase_8,55,5,42,127,1005191644
1145,22,Ticks_Phase_8,56,1,48,18,1005939572
1145,22,Ticks_Phase_8,57,5,42,127,1005971736
1145,22,Ticks_Phase_8,58,1,48,13,1006736364
1145,22,Ticks_Phase_8,59,5,42,127,1006771600
1145,22,Ticks_Phase_8,60,1,48,18,1007467480
1145,22,Ticks_Phase_8,61,5,42,127,1007572492
1145,22,Ticks_Phase_8,62,5,42,127,1008372152
1145,22,Ticks_Phase_8,63,1,48,21,1009072548
1145,22,Ticks_Phase_8,64,5,42,127,1009171712
1145,22,Ticks_Phase_8,65,1,48,22,1009914268
1145,22,Ticks_Phase_8,66,5,42,127,1009971588
1145,22,Ticks_Phase_8,67,1,48,26,1010719440
1145,22,Ticks_Phase_8,68,5,42,127,1010772668
1145,22,Ticks_Phase_8,69,1,48,24,1011507472
1145,22,Ticks_Phase_8,70,5,42,127,1011572008
1145,22,Ticks_Phase_8,71,1,48,24,1012355736
1145,22,Ticks_Phase_8,72,5,42,127,1012371796
1145,22,Ticks_Phase_8,73,5,42,127,1013171516
1145,22,Ticks_Phase_8,74,1,48,18,1013183244
1145,22,Ticks_Phase_8,75,5,42,127,1013972572
1145,22,Ticks_Phase_8,76,1,48,22,1014037996
1145,22,Ticks_Phase_8,77,5,42,127,1014772284
1145,22,Ticks_Phase_8,78,1,48,18,1014839516
1145,22,Ticks_Phase_8,79,1,48,23,1015570944
1145,22,Ticks_Phase_8,80,5,42,127,1015572588
1145,22,Ticks_Phase_8,81,5,42,127,1016371560
1145,22,Ticks_Phase_8,82,1,48,21,1016401144
1145,22,Ticks_Phase_8,83,5,42,127,1017172340
1145,22,Ticks_Phase_8,84,1,48,16,1017214104
1145,22,Ticks_Phase_8,85,5,42,127,1017972276
1145,22,Ticks_Phase_8,86,1,48,15,1018010900
1145,22,Ticks_Phase_8,87,5,42,127,1018771840
1145,22,Ticks_Phase_8,88,1,48,20,1018803116
1145,22,Ticks_Phase_8,89,5,42,127,1019571552
1145,22,Ticks_Phase_8,90,1,48,19,1019606348
1145,22,Ticks_Phase_8,91,5,42,127,1020391712
1145,22,Ticks_Phase_8,92,5,42,127,1021191520
1145,22,Ticks_Phase_8,93,1,48,30,1021912808
1145,22,Ticks_Phase_8,94,5,42,127,1021992292
1145,22,Ticks_Phase_8,95,1,48,13,1022655528
1145,22,Ticks_Phase_8,96,5,42,127,1022792016
1145,22,Ticks_Phase_8,97,1,48,22,1023579584
1145,22,Ticks_Phase_8,98,5,42,127,1023591740
1145,22,Ticks_Phase_8,99,1,48,21,1024296584
1145,22,Ticks_Phase_8,100,5,42,127,1024391660
1145,22,Ticks_Phase_8,101,1,48,18,1025070320
1145,22,Ticks_Phase_8,102,5,42,127,1025192268
1145,22,Ticks_Phase_8,103,1,48,20,1025858960
1145,22,Ticks_Phase_8,104,5,42,127,1025992428
1145,22,Ticks_Phase_8,105,1,48,21,1026716632
1145,22,Ticks_Phase_8,106,5,42,127,1026791932
1145,22,Ticks_Phase_8,107,1,48,19,1027536568
1145,22,Ticks_Phase_8,108,5,42,127,1027591496
1145,22,Ticks_Phase_8,109,1,48,16,1028290528
1145,22,Ticks_Phase_8,110,5,42,127,1028392164
1145,22,Ticks_Phase_8,111,1,48,18,1029114052
1145,22,Ticks_Phase_8,112,5,42,127,1029191992
1145,22,Ticks_Phase_8,113,1,48,23,1029957220
1145,22,Ticks_Phase_8,114,5,42,127,1029991924
1145,22,Ticks_Phase_8,115,1,48,20,1030721068
1145,22,Ticks_Phase_8,116,5,42,127,1030791492
1145,22,Ticks_Phase_8,117,1,48,17,1031485348
1145,22,Ticks_Phase_8,118,5,42,127,1031592160
1145,22,Ticks_Phase_8,119,1,48,17,1032337488
1145,22,Ticks_Phase_8,120,5,42,127,1032392036
1145,22,Ticks_Phase_8,121,1,48,18,1033085228
1145,22,Ticks_Phase_8,122,5,42,127,1033231652
1145,22,Ticks_Phase_8,123,1,48,14,1033963576
1145,22,Ticks_Phase_8,124,5,42,127,1034031524
1145,22,Ticks_Phase_8,125,1,48,15,1034743660
1145,22,Ticks_Phase_8,126,5,42,127,1034832308
1145,22,Ticks_Phase_8,127,1,48,16,1035520388
1145,22,Ticks_Phase_8,128,5,42,127,1035632152
1145,22,Ticks_Phase_8,129,1,48,15,1036380340
1145,22,Ticks_Phase_8,130,5,42,127,1036431736
1145,22,Ticks_Phase_8,131,1,48,14,1037156604
1145,22,Ticks_Phase_8,132,5,42,127,1037231448
1145,22,Ticks_Phase_8,133,1,48,15,1037920220
1145,22,Ticks_Phase_8,134,5,42,127,1038032264
1145,22,Ticks_Phase_8,135,1,48,16,1038701664
1145,22,Ticks_Phase_8,136,5,42,127,1038831980
1145,22,Ticks_Phase_8,137,1,48,15,1039541740
1145,22,Ticks_Phase_8,138,5,42,127,1039631704
1145,22,Ticks_Phase_8,139,1,48,15,1040313816
1145,22,Ticks_Phase_8,140,5,42,127,1040431408
1145,22,Ticks_Phase_8,141,5,42,127,1041232288
1145,22,Ticks_Phase_8,142,1,48,17,1041884052
1145,22,Ticks_Phase_8,143,5,42,127,1042032072
1145,22,Ticks_Phase_8,144,1,48,18,1042701668
1145,22,Ticks_Phase_8,145,5,42,127,1042831708
1145,22,Ticks_Phase_8,146,5,42,127,1043631592
1145,22,Ticks_Phase_8,147,1,48,20,1044330796
1145,22,Ticks_Phase_8,148,5,42,127,1044432128
1145,22,Ticks_Phase_8,149,1,48,22,1045094556
1145,22,Ticks_Phase_8,150,5,42,127,1045231992
1145,22,Ticks_Phase_8,151,1,48,29,1045875020
1145,22,Ticks_Phase_8,152,5,42,127,1046031924
1145,22,Ticks_Phase_8,153,1,48,26,1046687312
1145,22,Ticks_Phase_8,154,5,42,127,1046791500
1145,22,Ticks_Phase_8,155,1,48,27,1047486500
1145,22,Ticks_Phase_8,156,5,42,127,1047592260
1145,22,Ticks_Phase_8,157,1,48,28,1048282476
1145,22,Ticks_Phase_8,158,5,42,127,1048392144
1145,22,Ticks_Phase_8,159,1,48,27,1049073796
1145,22,Ticks_Phase_8,160,5,42,127,1049191856
1145,22,Ticks_Phase_8,161,1,48,26,1049904212
1145,22,Ticks_Phase_8,162,5,42,127,1049991436
1145,22,Ticks_Phase_8,163,1,48,17,1050695928
1145,22,Ticks_Phase_8,164,5,42,127,1050792400
1145,22,Ticks_Phase_8,165,1,48,25,1051456924
1145,22,Ticks_Phase_8,166,5,42,127,1051592188
1145,22,Ticks_Phase_8,167,1,48,26,1052365820
1145,22,Ticks_Phase_8,168,5,42,127,1052392064
1145,22,Ticks_Phase_8,169,1,48,20,1053149444
1145,22,Ticks_Phase_8,170,5,42,127,1053191552
1145,22,Ticks_Phase_8,171,1,48,20,1053950500
1145,22,Ticks_Phase_8,172,5,42,127,1053992384
1145,22,Ticks_Phase_8,173,1,48,21,1054706316
1145,22,Ticks_Phase_8,174,5,42,127,1054791972
1145,22,Ticks_Phase_8,175,1,48,18,1055532992
1145,22,Ticks_Phase_8,176,5,42,127,1055591984
1145,22,Ticks_Phase_8,177,1,48,20,1056273768
1145,22,Ticks_Phase_8,178,5,42,127,1056391680
1145,22,Ticks_Phase_8,179,1,48,15,1057138876
1145,22,Ticks_Phase_8,180,5,42,127,1057192228
1145,22,Ticks_Phase_8,181,1,48,14,1057926080
1145,22,Ticks_Phase_8,182,5,42,127,1057991940
1145,22,Ticks_Phase_8,183,1,48,19,1058721752
1145,22,Ticks_Phase_8,184,5,42,127,1058791952
1145,22,Ticks_Phase_8,185,1,48,19,1059485968
1145,22,Ticks_Phase_8,186,5,42,127,1059511760
1145,22,Ticks_Phase_8,187,5,42,127,1060312452
1145,22,Ticks_Phase_8,188,1,48,18,1060314392
1145,22,Ticks_Phase_8,189,1,48,25,1061040016
1145,22,Ticks_Phase_8,190,5,42,127,1061122568
1145,22,Ticks_Phase_8,191,1,48,24,1061828040
1145,22,Ticks_Phase_8,192,5,42,127,1061932300
1145,22,Ticks_Phase_8,193,1,48,16,1062622812
1145,22,Ticks_Phase_8,194,5,42,127,1062732036
1145,22,Ticks_Phase_8,195,1,48,24,1063368596
1145,22,Ticks_Phase_8,196,5,42,127,1063531824
1145,22,Ticks_Phase_8,197,1,48,19,1064266140
1145,22,Ticks_Phase_8,198,5,42,127,1064331772
1145,22,Ticks_Phase_8,199,1,48,20,1065039856
1145,22,Ticks_Phase_8,200,5,42,127,1065132384
1145,22,Ticks_Phase_8,201,1,48,21,1065891404
1145,22,Ticks_Phase_8,202,5,42,127,1065932020
1145,22,Ticks_Phase_8,203,1,48,20,1066721668
1145,22,Ticks_Phase_8,204,5,42,127,1066731880
1145,22,Ticks_Phase_8,205,1,48,19,1067454424
1145,22,Ticks_Phase_8,206,5,42,127,1067531668
1145,22,Ticks_Phase_8,207,5,42,127,1068332356
1145,22,Ticks_Phase_8,208,1,48,19,1068357892
1145,22,Ticks_Phase_8,209,5,42,127,1069132020
1145,22,Ticks_Phase_8,210,1,48,18,1069138872
1145,22,Ticks_Phase_8,211,1,48,19,1069868532
1145,22,Ticks_Phase_8,212,5,42,127,1069931872
1145,22,Ticks_Phase_8,213,1,48,21,1070665572
1145,22,Ticks_Phase_8,214,5,42,127,1070731808
1145,22,Ticks_Phase_8,215,1,48,19,1071475100
1145,22,Ticks_Phase_8,216,5,42,127,1071532420
1145,22,Ticks_Phase_8,217,1,48,21,1072260588
1145,22,Ticks_Phase_8,218,5,42,127,1072332132
1145,22,Ticks_Phase_8,219,1,48,23,1073076468
1145,22,Ticks_Phase_8,220,5,42,127,1073211832
1145,22,Ticks_Phase_8,221,1,48,24,1073973088
1145,22,Ticks_Phase_8,222,5,42,127,1074011484
1145,22,Ticks_Phase_8,223,1,48,17,1074788168
1145,22,Ticks_Phase_8,224,5,42,127,1074812392
1145,22,Ticks_Phase_8,225,5,42,127,1075611960
1145,22,Ticks_Phase_8,226,1,48,20,1075615304
1145,22,Ticks_Phase_8,227,5,42,127,1076411672
1145,22,Ticks_Phase_8,228,1,48,25,1076484512
1145,22,Ticks_Phase_8,229,5,42,127,1077211532
1145,22,Ticks_Phase_8,230,1,48,22,1077247004
1145,22,Ticks_Phase_8,231,1,48,16,1078002520
1145,22,Ticks_Phase_8,232,5,42,127,1078012208
1145,22,Ticks_Phase_8,233,1,48,23,1078759236
1145,22,Ticks_Phase_8,234,5,42,127,1078811996
1145,22,Ticks_Phase_8,235,1,48,21,1079573636
1145,22,Ticks_Phase_8,236,5,42,127,1079611656
1145,22,Ticks_Phase_8,237,1,48,19,1080361740
1145,22,Ticks_Phase_8,238,5,42,127,1080411444
1145,22,Ticks_Phase_8,239,1,48,21,1081195096
1145,22,Ticks_Phase_8,240,5,42,127,1081212500
1145,22,Ticks_Phase_8,241,1,48,18,1081979896
1145,22,Ticks_Phase_8,242,5,42,127,1082011988
1145,22,Ticks_Phase_8,243,1,48,16,1082746892
1145,22,Ticks_Phase_8,244,5,42,127,1082811628
1145,22,Ticks_Phase_8,245,1,48,14,1083537088
1145,22,Ticks_Phase_8,246,5,42,127,1083611412
1145,22,Ticks_Phase_8,247,1,48,21,1084330596
1145,22,Ticks_Phase_8,248,5,42,127,1084412544
1145,22,Ticks_Phase_8,249,5,42,127,1085212112
1145,22,Ticks_Phase_8,250,1,48,21,1085215676
1145,22,Ticks_Phase_8,251,1,48,23,1085923572
1145,22,Ticks_Phase_8,252,5,42,127,1086011696
1145,22,Ticks_Phase_8,253,1,48,26,1086789424
1145,22,Ticks_Phase_8,254,5,42,127,1086972472
1145,22,Ticks_Phase_8,255,1,48,21,1087692868
1145,22,Ticks_Phase_8,256,5,42,127,1087771900
1145,22,Ticks_Phase_8,257,1,48,15,1088534212
1145,22,Ticks_Phase_8,258,5,42,127,1088571712
1145,22,Ticks_Phase_8,259,1,48,13,1089261212
1145,22,Ticks_Phase_8,260,5,42,127,1089371632
1145,22,Ticks_Phase_8,261,1,48,16,1090157316
1145,22,Ticks_Phase_8,262,5,42,127,1090172552
1145,22,Ticks_Phase_8,263,5,42,127,1090971900
1145,22,Ticks_Phase_8,264,1,48,22,1090972864
1145,22,Ticks_Phase_8,265,5,42,127,1091771760
1145,22,Ticks_Phase_8,266,1,48,21,1091772724
1145,22,Ticks_Phase_8,267,1,48,29,1092502312
1145,22,Ticks_Phase_8,268,5,42,127,1092571464
1145,22,Ticks_Phase_8,269,1,48,18,1093369416
1145,22,Ticks_Phase_8,270,5,42,127,1093372372
1145,22,Ticks_Phase_8,271,5,42,127,1094172240
1145,22,Ticks_Phase_8,272,1,48,18,1094942360
1145,22,Ticks_Phase_8,273,5,42,127,1094971768
1145,22,Ticks_Phase_8,274,1,48,20,1095757592
1145,22,Ticks_Phase_8,275,5,42,127,1095771628
1145,22,Ticks_Phase_8,276,1,48,27,1096527424
1145,22,Ticks_Phase_8,277,5,42,127,1096572316
1145,22,Ticks_Phase_8,278,1,48,19,1097317176
1145,22,Ticks_Phase_8,279,5,42,127,1097372176
1145,22,Ticks_Phase_8,280,5,42,127,1098171820
1145,22,Ticks_Phase_8,281,1,48,17,1098191268
1145,22,Ticks_Phase_8,282,1,48,14,1098931364
1145,22,Ticks_Phase_8,283,5,42,127,1098971380
1145,22,Ticks_Phase_8,284,1,48,17,1099748736
1145,22,Ticks_Phase_8,285,5,42,127,1099772212
1145,22,Ticks_Phase_8,286,5,42,127,1100572300
1145,22,Ticks_Phase_8,287,1,48,17,1100611248
1145,22,Ticks_Phase_8,288,5,42,127,1101371744
1145,22,Ticks_Phase_8,289,5,42,127,1102011716
1145,22,Ticks_Phase_8,290,1,48,16,1102138268
1145,22,Ticks_Phase_8,291,5,42,127,1102811428
1145,22,Ticks_Phase_8,292,1,48,19,1102817836
1145,22,Ticks_Phase_8,293,1,48,19,1103572088
1145,22,Ticks_Phase_8,294,5,42,127,1103612328
1145,22,Ticks_Phase_8,295,1,48,17,1104315480
1145,22,Ticks_Phase_8,296,5,42,127,1104411952
1145,22,Ticks_Phase_8,297,1,48,22,1105091612
1145,22,Ticks_Phase_8,298,5,42,127,1105211692
1145,22,Ticks_Phase_8,299,1,48,19,1105867052
1145,22,Ticks_Phase_8,300,5,42,127,1106011552
1145,22,Ticks_Phase_8,301,1,48,19,1106644080
1145,22,Ticks_Phase_8,302,5,42,127,1106812288
1145,22,Ticks_Phase_8,303,1,48,17,1107537916
1145,22,Ticks_Phase_8,304,5,42,127,1107612164
1145,22,Ticks_Phase_8,305,1,48,17,1108371788
1145,22,Ticks_Phase_8,306,5,42,127,1108411952
1145,22,Ticks_Phase_8,307,1,48,19,1109171276
1145,22,Ticks_Phase_8,308,5,42,127,1109211364
1145,22,Ticks_Phase_8,309,1,48,21,1109968504
1145,22,Ticks_Phase_8,310,5,42,127,1110012348
1145,22,Ticks_Phase_8,311,1,48,24,1110764628
1145,22,Ticks_Phase_8,312,5,42,127,1110811984
1145,22,Ticks_Phase_8,313,1,48,25,1111582384
1145,22,Ticks_Phase_8,314,5,42,127,1111611944
1145,22,Ticks_Phase_8,315,1,48,23,1112326900
1145,22,Ticks_Phase_8,316,5,42,127,1112411356
1145,22,Ticks_Phase_8,317,1,48,17,1113158016
1145,22,Ticks_Phase_8,318,5,42,127,1113212340
1145,22,Ticks_Phase_8,319,1,48,15,1113955408
1145,22,Ticks_Phase_8,320,5,42,127,1114012128
1145,22,Ticks_Phase_8,321,1,48,21,1114810256
1145,22,Ticks_Phase_8,322,5,42,127,1114811840
1145,22,Ticks_Phase_8,323,1,48,19,1115610728
1145,22,Ticks_Phase_8,324,5,42,127,1115612376
1145,22,Ticks_Phase_8,325,1,48,17,1116327032
1145,22,Ticks_Phase_8,326,5,42,127,1116412212
1145,22,Ticks_Phase_8,327,1,48,14,1117123000
1145,22,Ticks_Phase_8,328,5,42,127,1117211996
1145,22,Ticks_Phase_8,0,9999,9999,9999,981989476
1145,22,Ticks_Phase_8,1,9999,9999,9999,982789208
1145,22,Ticks_Phase_8,2,9999,9999,9999,983589984
1145,22,Ticks_Phase_8,3,9999,9999,9999,984389720
1145,22,Ticks_Phase_8,4,9999,9999,9999,985189436
1145,22,Ticks_Phase_8,5,9999,9999,9999,985989224
1145,22,Ticks_Phase_8,6,9999,9999,9999,986789980
1145,22,Ticks_Phase_8,7,9999,9999,9999,987589692
1145,22,Ticks_Phase_8,8,9999,9999,9999,988389472
1145,22,Ticks_Phase_8,9,9999,9999,9999,989189176
1145,22,Ticks_Phase_8,10,9999,9999,9999,989989940
1145,22,Ticks_Phase_8,11,9999,9999,9999,990789748
1145,22,Ticks_Phase_8,12,9999,9999,9999,991589460
1145,22,Ticks_Phase_8,13,9999,9999,9999,992389176
1145,22,Ticks_Phase_8,14,9999,9999,9999,993190004
1145,22,Ticks_Phase_8,15,9999,9999,9999,993989716
1145,22,Ticks_Phase_8,16,9999,9999,9999,994789500
1145,22,Ticks_Phase_8,17,9999,9999,9999,995589220
1145,22,Ticks_Phase_8,18,9999,9999,9999,996389976
1145,22,Ticks_Phase_8,19,9999,9999,9999,997189736
1145,22,Ticks_Phase_8,20,9999,9999,9999,997989460
1145,22,Ticks_Phase_8,21,9999,9999,9999,998789172
1145,22,Ticks_Phase_8,22,9999,9999,9999,999589988
1145,22,Ticks_Phase_8,23,9999,9999,9999,1000389704
1145,22,Ticks_Phase_8,24,9999,9999,9999,1001189488
1145,22,Ticks_Phase_8,25,9999,9999,9999,1001989216
1145,22,Ticks_Phase_8,26,9999,9999,9999,1002789976
1145,22,Ticks_Phase_8,27,9999,9999,9999,1003589716
1145,22,Ticks_Phase_8,28,9999,9999,9999,1004389496
1145,22,Ticks_Phase_8,29,9999,9999,9999,1005189208
1145,22,Ticks_Phase_8,30,9999,9999,9999,1005969524
1145,22,Ticks_Phase_8,31,9999,9999,9999,1006769240
1145,22,Ticks_Phase_8,32,9999,9999,9999,1007569980
1145,22,Ticks_Phase_8,33,9999,9999,9999,1008369788
1145,22,Ticks_Phase_8,34,9999,9999,9999,1009169500
1145,22,Ticks_Phase_8,35,9999,9999,9999,1009969228
1145,22,Ticks_Phase_8,36,9999,9999,9999,1010770012
1145,22,Ticks_Phase_8,37,9999,9999,9999,1011569720
1145,22,Ticks_Phase_8,38,9999,9999,9999,1012369512
1145,22,Ticks_Phase_8,39,9999,9999,9999,1013169228
1145,22,Ticks_Phase_8,40,9999,9999,9999,1013969988
1145,22,Ticks_Phase_8,41,9999,9999,9999,1014769772
1145,22,Ticks_Phase_8,42,9999,9999,9999,1015569484
1145,22,Ticks_Phase_8,43,9999,9999,9999,1016369272
1145,22,Ticks_Phase_8,44,9999,9999,9999,1017169980
1145,22,Ticks_Phase_8,45,9999,9999,9999,1017969768
1145,22,Ticks_Phase_8,46,9999,9999,9999,1018769480
1145,22,Ticks_Phase_8,47,9999,9999,9999,1019569264
1145,22,Ticks_Phase_8,48,9999,9999,9999,1020389496
1145,22,Ticks_Phase_8,49,9999,9999,9999,1021189232
1145,22,Ticks_Phase_8,50,9999,9999,9999,1021990004
1145,22,Ticks_Phase_8,51,9999,9999,9999,1022789728
1145,22,Ticks_Phase_8,52,9999,9999,9999,1023589452
1145,22,Ticks_Phase_8,53,9999,9999,9999,1024389204
1145,22,Ticks_Phase_8,54,9999,9999,9999,1025189980
1145,22,Ticks_Phase_8,55,9999,9999,9999,1025989692
1145,22,Ticks_Phase_8,56,9999,9999,9999,1026789496
1145,22,Ticks_Phase_8,57,9999,9999,9999,1027589208
1145,22,Ticks_Phase_8,58,9999,9999,9999,1028389952
1145,22,Ticks_Phase_8,59,9999,9999,9999,1029189704
1145,22,Ticks_Phase_8,60,9999,9999,9999,1029989492
1145,22,Ticks_Phase_8,61,9999,9999,9999,1030789204
1145,22,Ticks_Phase_8,62,9999,9999,9999,1031589948
1145,22,Ticks_Phase_8,63,9999,9999,9999,1032389748
1145,22,Ticks_Phase_8,64,9999,9999,9999,1033229436
1145,22,Ticks_Phase_8,65,9999,9999,9999,1034029164
1145,22,Ticks_Phase_8,66,9999,9999,9999,1034829948
1145,22,Ticks_Phase_8,67,9999,9999,9999,1035629644
1145,22,Ticks_Phase_8,68,9999,9999,9999,1036429372
1145,22,Ticks_Phase_8,69,9999,9999,9999,1037229160
1145,22,Ticks_Phase_8,70,9999,9999,9999,1038029904
1145,22,Ticks_Phase_8,71,9999,9999,9999,1038829692
1145,22,Ticks_Phase_8,72,9999,9999,9999,1039629420
1145,22,Ticks_Phase_8,73,9999,9999,9999,1040429120
1145,22,Ticks_Phase_8,74,9999,9999,9999,1041229924
1145,22,Ticks_Phase_8,75,9999,9999,9999,1042029636
1145,22,Ticks_Phase_8,76,9999,9999,9999,1042829424
1145,22,Ticks_Phase_8,77,9999,9999,9999,1043629156
1145,22,Ticks_Phase_8,78,9999,9999,9999,1044429916
1145,22,Ticks_Phase_8,79,9999,9999,9999,1045229628
1145,22,Ticks_Phase_8,80,9999,9999,9999,1046029416
1145,22,Ticks_Phase_8,81,9999,9999,9999,1046789212
1145,22,Ticks_Phase_8,82,9999,9999,9999,1047589972
1145,22,Ticks_Phase_8,83,9999,9999,9999,1048389712
1145,22,Ticks_Phase_8,84,9999,9999,9999,1049189496
1145,22,Ticks_Phase_8,85,9999,9999,9999,1049989224
1145,22,Ticks_Phase_8,86,9999,9999,9999,1050789964
1145,22,Ticks_Phase_8,87,9999,9999,9999,1051589752
1145,22,Ticks_Phase_8,88,9999,9999,9999,1052389480
1145,22,Ticks_Phase_8,89,9999,9999,9999,1053189192
1145,22,Ticks_Phase_8,90,9999,9999,9999,1053989948
1145,22,Ticks_Phase_8,91,9999,9999,9999,1054789688
1145,22,Ticks_Phase_8,92,9999,9999,9999,1055589472
1145,22,Ticks_Phase_8,93,9999,9999,9999,1056389244
1145,22,Ticks_Phase_8,94,9999,9999,9999,1057189944
1145,22,Ticks_Phase_8,95,9999,9999,9999,1057989728
1145,22,Ticks_Phase_8,96,9999,9999,9999,1058789440
1145,22,Ticks_Phase_8,97,9999,9999,9999,1059509324
1145,22,Ticks_Phase_8,98,9999,9999,9999,1060310092
1145,22,Ticks_Phase_8,99,9999,9999,9999,1061120056
1145,22,Ticks_Phase_8,100,9999,9999,9999,1061930088
1145,22,Ticks_Phase_8,101,9999,9999,9999,1062729824
1145,22,Ticks_Phase_8,102,9999,9999,9999,1063529536
1145,22,Ticks_Phase_8,103,9999,9999,9999,1064329336
1145,22,Ticks_Phase_8,104,9999,9999,9999,1065130096
1145,22,Ticks_Phase_8,105,9999,9999,9999,1065929808
1145,22,Ticks_Phase_8,106,9999,9999,9999,1066729596
1145,22,Ticks_Phase_8,107,9999,9999,9999,1067529308
1145,22,Ticks_Phase_8,108,9999,9999,9999,1068330072
1145,22,Ticks_Phase_8,109,9999,9999,9999,1069129808
1145,22,Ticks_Phase_8,110,9999,9999,9999,1069929588
1145,22,Ticks_Phase_8,111,9999,9999,9999,1070729300
1145,22,Ticks_Phase_8,112,9999,9999,9999,1071530056
1145,22,Ticks_Phase_8,113,9999,9999,9999,1072329844
1145,22,Ticks_Phase_8,114,9999,9999,9999,1073209472
1145,22,Ticks_Phase_8,115,9999,9999,9999,1074009200
1145,22,Ticks_Phase_8,116,9999,9999,9999,1074809956
1145,22,Ticks_Phase_8,117,9999,9999,9999,1075609676
1145,22,Ticks_Phase_8,118,9999,9999,9999,1076409460
1145,22,Ticks_Phase_8,119,9999,9999,9999,1077209172
1145,22,Ticks_Phase_8,120,9999,9999,9999,1078009924
1145,22,Ticks_Phase_8,121,9999,9999,9999,1078809708
1145,22,Ticks_Phase_8,122,9999,9999,9999,1079609444
1145,22,Ticks_Phase_8,123,9999,9999,9999,1080409156
1145,22,Ticks_Phase_8,124,9999,9999,9999,1081209916
1145,22,Ticks_Phase_8,125,9999,9999,9999,1082009704
1145,22,Ticks_Phase_8,126,9999,9999,9999,1082809416
1145,22,Ticks_Phase_8,127,9999,9999,9999,1083609200
1145,22,Ticks_Phase_8,128,9999,9999,9999,1084409960
1145,22,Ticks_Phase_8,129,9999,9999,9999,1085209680
1145,22,Ticks_Phase_8,130,9999,9999,9999,1086009408
1145,22,Ticks_Phase_8,131,9999,9999,9999,1086969960
1145,22,Ticks_Phase_8,132,9999,9999,9999,1087769688
1145,22,Ticks_Phase_8,133,9999,9999,9999,1088569424
1145,22,Ticks_Phase_8,134,9999,9999,9999,1089369196
1145,22,Ticks_Phase_8,135,9999,9999,9999,1090169968
1145,22,Ticks_Phase_8,136,9999,9999,9999,1090969688
1145,22,Ticks_Phase_8,137,9999,9999,9999,1091769396
1145,22,Ticks_Phase_8,138,9999,9999,9999,1092569180
1145,22,Ticks_Phase_8,139,9999,9999,9999,1093369936
1145,22,Ticks_Phase_8,140,9999,9999,9999,1094169652
1145,22,Ticks_Phase_8,141,9999,9999,9999,1094969408
1145,22,Ticks_Phase_8,142,9999,9999,9999,1095769192
1145,22,Ticks_Phase_8,143,9999,9999,9999,1096569952
1145,22,Ticks_Phase_8,144,9999,9999,9999,1097369668
1145,22,Ticks_Phase_8,145,9999,9999,9999,1098169460
1145,22,Ticks_Phase_8,146,9999,9999,9999,1098969168
1145,22,Ticks_Phase_8,147,9999,9999,9999,1099769924
1145,22,Ticks_Phase_8,148,9999,9999,9999,1100569720
1145,22,Ticks_Phase_8,149,9999,9999,9999,1101369456
1145,22,Ticks_Phase_8,150,9999,9999,9999,1102009428
1145,22,Ticks_Phase_8,151,9999,9999,9999,1102809144
1145,22,Ticks_Phase_8,152,9999,9999,9999,1103609968
1145,22,Ticks_Phase_8,153,9999,9999,9999,1104409668
1145,22,Ticks_Phase_8,154,9999,9999,9999,1105209404
1145,22,Ticks_Phase_8,155,9999,9999,9999,1106009192
1145,22,Ticks_Phase_8,156,9999,9999,9999,1106809928
1145,22,Ticks_Phase_8,157,9999,9999,9999,1107609656
1145,22,Ticks_Phase_8,158,9999,9999,9999,1108409440
1145,22,Ticks_Phase_8,159,9999,9999,9999,1109209152
1145,22,Ticks_Phase_8,160,9999,9999,9999,1110009912
1145,22,Ticks_Phase_8,161,9999,9999,9999,1110809696
1145,22,Ticks_Phase_8,162,9999,9999,9999,1111609436
1145,22,Ticks_Phase_8,163,9999,9999,9999,1112409144
1145,22,Ticks_Phase_8,164,9999,9999,9999,1113209980
1145,22,Ticks_Phase_8,165,9999,9999,9999,1114009692
1145,22,Ticks_Phase_8,166,9999,9999,9999,1114809412
1145,22,Ticks_Phase_8,167,9999,9999,9999,1115609196
1145,22,Ticks_Phase_8,168,9999,9999,9999,1116409924
1145,22,Ticks_Phase_8,169,9999,9999,9999,1117209712
1146,23,Ticks_Phase_5,0,5,42,127,1127928148
1146,23,Ticks_Phase_5,1,5,42,127,1128427932
1146,23,Ticks_Phase_5,2,5,42,127,1128927716
1146,23,Ticks_Phase_5,3,1,48,20,1129040644
1146,23,Ticks_Phase_5,4,5,42,127,1129428304
1146,23,Ticks_Phase_5,5,1,48,21,1129474404
1146,23,Ticks_Phase_5,6,5,42,127,1129927992
1146,23,Ticks_Phase_5,7,1,48,21,1129976568
1146,23,Ticks_Phase_5,8,5,42,127,1130427752
1146,23,Ticks_Phase_5,9,1,48,22,1130478572
1146,23,Ticks_Phase_5,10,5,42,127,1130927444
1146,23,Ticks_Phase_5,11,1,48,22,1130931980
1146,23,Ticks_Phase_5,12,5,42,127,1131428252
1146,23,Ticks_Phase_5,13,1,48,21,1131446504
1146,23,Ticks_Phase_5,14,1,48,21,1131928164
1146,23,Ticks_Phase_5,15,5,42,127,1131929352
1146,23,Ticks_Phase_5,16,5,42,127,1132427628
1146,23,Ticks_Phase_5,17,1,48,19,1132447828
1146,23,Ticks_Phase_5,18,1,48,19,1132921432
1146,23,Ticks_Phase_5,19,5,42,127,1132928356
1146,23,Ticks_Phase_5,20,5,42,127,1133427976
1146,23,Ticks_Phase_5,21,1,48,15,1133458656
1146,23,Ticks_Phase_5,22,1,48,21,1133927960
1146,23,Ticks_Phase_5,23,5,42,127,1133929224
1146,23,Ticks_Phase_5,24,5,42,127,1134427724
1146,23,Ticks_Phase_5,25,1,48,16,1134447776
1146,23,Ticks_Phase_5,26,1,48,19,1134874620
1146,23,Ticks_Phase_5,27,5,42,127,1134928156
1146,23,Ticks_Phase_5,28,1,48,20,1135388776
1146,23,Ticks_Phase_5,29,5,42,127,1135427844
1146,23,Ticks_Phase_5,30,1,48,17,1135905152
1146,23,Ticks_Phase_5,31,5,42,127,1135927608
1146,23,Ticks_Phase_5,32,1,48,16,1136372640
1146,23,Ticks_Phase_5,33,5,42,127,1136428540
1146,23,Ticks_Phase_5,34,1,48,18,1136867092
1146,23,Ticks_Phase_5,35,5,42,127,1136928228
1146,23,Ticks_Phase_5,36,1,48,19,1137371644
1146,23,Ticks_Phase_5,37,5,42,127,1137427768
1146,23,Ticks_Phase_5,38,1,48,17,1137906084
1146,23,Ticks_Phase_5,39,5,42,127,1137927680
1146,23,Ticks_Phase_5,40,1,48,16,1138398436
1146,23,Ticks_Phase_5,41,5,42,127,1138428416
1146,23,Ticks_Phase_5,42,1,48,17,1138861796
1146,23,Ticks_Phase_5,43,5,42,127,1138927956
1146,23,Ticks_Phase_5,44,1,48,19,1139364548
1146,23,Ticks_Phase_5,45,5,42,127,1139427716
1146,23,Ticks_Phase_5,46,1,48,19,1139848816
1146,23,Ticks_Phase_5,47,5,42,127,1139928672
1146,23,Ticks_Phase_5,48,1,48,22,1140354564
1146,23,Ticks_Phase_5,49,5,42,127,1140438400
1146,23,Ticks_Phase_5,50,1,48,22,1140889608
1146,23,Ticks_Phase_5,51,5,42,127,1140938236
1146,23,Ticks_Phase_5,52,1,48,19,1141406000
1146,23,Ticks_Phase_5,53,5,42,127,1141437776
1146,23,Ticks_Phase_5,54,1,48,20,1141914736
1146,23,Ticks_Phase_5,55,5,42,127,1141937464
1146,23,Ticks_Phase_5,56,1,48,15,1142410388
1146,23,Ticks_Phase_5,57,5,42,127,1142438200
1146,23,Ticks_Phase_5,58,1,48,18,1142888884
1146,23,Ticks_Phase_5,59,5,42,127,1142927780
1146,23,Ticks_Phase_5,60,1,48,15,1143418080
1146,23,Ticks_Phase_5,61,5,42,127,1143427540
1146,23,Ticks_Phase_5,62,1,48,18,1143920604
1146,23,Ticks_Phase_5,63,5,42,127,1143928052
1146,23,Ticks_Phase_5,64,1,48,19,1144411008
1146,23,Ticks_Phase_5,65,5,42,127,1144427740
1146,23,Ticks_Phase_5,66,1,48,20,1144885912
1146,23,Ticks_Phase_5,67,5,42,127,1144927652
1146,23,Ticks_Phase_5,68,1,48,20,1145353136
1146,23,Ticks_Phase_5,69,5,42,127,1145428536
1146,23,Ticks_Phase_5,70,1,48,21,1145892592
1146,23,Ticks_Phase_5,71,5,42,127,1145927996
1146,23,Ticks_Phase_5,72,1,48,21,1146414372
1146,23,Ticks_Phase_5,73,5,42,127,1146427688
1146,23,Ticks_Phase_5,74,1,48,21,1146889724
1146,23,Ticks_Phase_5,75,5,42,127,1146927424
1146,23,Ticks_Phase_5,76,1,48,19,1147417652
1146,23,Ticks_Phase_5,77,5,42,127,1147428604
1146,23,Ticks_Phase_5,78,1,48,21,1147907228
1146,23,Ticks_Phase_5,79,5,42,127,1147927848
1146,23,Ticks_Phase_5,80,1,48,21,1148416800
1146,23,Ticks_Phase_5,81,5,42,127,1148427536
1146,23,Ticks_Phase_5,82,1,48,19,1148902400
1146,23,Ticks_Phase_5,83,5,42,127,1148928568
1146,23,Ticks_Phase_5,84,1,48,21,1149401568
1146,23,Ticks_Phase_5,85,5,42,127,1149428036
1146,23,Ticks_Phase_5,86,1,48,19,1149884996
1146,23,Ticks_Phase_5,87,5,42,127,1149927724
1146,23,Ticks_Phase_5,88,1,48,17,1150363944
1146,23,Ticks_Phase_5,89,5,42,127,1150427484
1146,23,Ticks_Phase_5,90,1,48,21,1150902124
1146,23,Ticks_Phase_5,91,5,42,127,1150928444
1146,23,Ticks_Phase_5,92,1,48,21,1151366924
1146,23,Ticks_Phase_5,93,5,42,127,1151427836
1146,23,Ticks_Phase_5,94,1,48,19,1151867212
1146,23,Ticks_Phase_5,95,5,42,127,1151937932
1146,23,Ticks_Phase_5,96,1,48,25,1152376860
1146,23,Ticks_Phase_5,97,5,42,127,1152437620
1146,23,Ticks_Phase_5,98,1,48,17,1152902752
1146,23,Ticks_Phase_5,99,5,42,127,1152938504
1146,23,Ticks_Phase_5,100,1,48,19,1153414196
1146,23,Ticks_Phase_5,101,5,42,127,1153438340
1146,23,Ticks_Phase_5,102,1,48,16,1153913432
1146,23,Ticks_Phase_5,103,5,42,127,1153937808
1146,23,Ticks_Phase_5,104,1,48,18,1154424424
1146,23,Ticks_Phase_5,105,5,42,127,1154437420
1146,23,Ticks_Phase_5,106,1,48,22,1154900828
1146,23,Ticks_Phase_5,107,5,42,127,1154938452
1146,23,Ticks_Phase_5,108,1,48,18,1155401044
1146,23,Ticks_Phase_5,109,5,42,127,1155437992
1146,23,Ticks_Phase_5,110,1,48,17,1155902604
1146,23,Ticks_Phase_5,111,5,42,127,1155937756
1146,23,Ticks_Phase_5,112,1,48,19,1156395460
1146,23,Ticks_Phase_5,113,5,42,127,1156438492
1146,23,Ticks_Phase_5,114,1,48,18,1156897760
1146,23,Ticks_Phase_5,115,5,42,127,1156938032
1146,23,Ticks_Phase_5,116,1,48,21,1157373256
1146,23,Ticks_Phase_5,117,5,42,127,1157437792
1146,23,Ticks_Phase_5,118,1,48,18,1157887704
1146,23,Ticks_Phase_5,119,5,42,127,1157937384
1146,23,Ticks_Phase_5,120,1,48,15,1158377108
1146,23,Ticks_Phase_5,121,5,42,127,1158438464
1146,23,Ticks_Phase_5,122,1,48,15,1158874084
1146,23,Ticks_Phase_5,123,5,42,127,1158938004
1146,23,Ticks_Phase_5,124,1,48,17,1159398424
1146,23,Ticks_Phase_5,125,5,42,127,1159437620
1146,23,Ticks_Phase_5,126,1,48,17,1159868156
1146,23,Ticks_Phase_5,127,5,42,127,1159957824
1146,23,Ticks_Phase_5,128,1,48,17,1160351144
1146,23,Ticks_Phase_5,129,5,42,127,1160457572
1146,23,Ticks_Phase_5,130,1,48,16,1160919576
1146,23,Ticks_Phase_5,131,5,42,127,1160958396
1146,23,Ticks_Phase_5,132,1,48,19,1161393352
1146,23,Ticks_Phase_5,133,5,42,127,1161458232
1146,23,Ticks_Phase_5,134,1,48,20,1161896712
1146,23,Ticks_Phase_5,135,5,42,127,1161957700
1146,23,Ticks_Phase_5,136,1,48,21,1162402384
1146,23,Ticks_Phase_5,137,5,42,127,1162457312
1146,23,Ticks_Phase_5,138,1,48,23,1162886732
1146,23,Ticks_Phase_5,139,5,42,127,1162958348
1146,23,Ticks_Phase_5,140,1,48,19,1163384532
1146,23,Ticks_Phase_5,141,5,42,127,1163458108
1146,23,Ticks_Phase_5,142,1,48,16,1163881080
1146,23,Ticks_Phase_5,143,5,42,127,1163957724
1146,23,Ticks_Phase_5,144,1,48,19,1164441128
1146,23,Ticks_Phase_5,145,5,42,127,1164458312
1146,23,Ticks_Phase_5,146,1,48,19,1164896036
1146,23,Ticks_Phase_5,147,5,42,127,1164958220
1146,23,Ticks_Phase_5,148,1,48,20,1165447924
1146,23,Ticks_Phase_5,149,5,42,127,1165457764
1146,23,Ticks_Phase_5,150,5,42,127,1165957384
1146,23,Ticks_Phase_5,151,1,48,21,1165968892
1146,23,Ticks_Phase_5,152,1,48,18,1166447152
1146,23,Ticks_Phase_5,153,5,42,127,1166458336
1146,23,Ticks_Phase_5,154,1,48,16,1166920924
1146,23,Ticks_Phase_5,155,5,42,127,1166958248
1146,23,Ticks_Phase_5,156,1,48,18,1167411920
1146,23,Ticks_Phase_5,157,5,42,127,1167457712
1146,23,Ticks_Phase_5,158,1,48,19,1167941264
1146,23,Ticks_Phase_5,159,5,42,127,1167958372
1146,23,Ticks_Phase_5,160,1,48,20,1168399144
1146,23,Ticks_Phase_5,161,5,42,127,1168437620
1146,23,Ticks_Phase_5,162,5,42,127,1168938408
1146,23,Ticks_Phase_5,163,1,48,15,1168974420
1146,23,Ticks_Phase_5,164,1,48,19,1169432964
1146,23,Ticks_Phase_5,165,5,42,127,1169438164
1146,23,Ticks_Phase_5,166,1,48,17,1169916184
1146,23,Ticks_Phase_5,167,5,42,127,1169937704
1146,23,Ticks_Phase_5,168,1,48,19,1170430844
1146,23,Ticks_Phase_5,169,5,42,127,1170437540
1146,23,Ticks_Phase_5,170,1,48,17,1170925212
1146,23,Ticks_Phase_5,171,5,42,127,1170938204
1146,23,Ticks_Phase_5,172,1,48,20,1171396004
1146,23,Ticks_Phase_5,173,5,42,127,1171438040
1146,23,Ticks_Phase_5,174,5,42,127,1171937736
1146,23,Ticks_Phase_5,175,1,48,22,1171948124
1146,23,Ticks_Phase_5,176,1,48,22,1172427808
1146,23,Ticks_Phase_5,177,5,42,127,1172438392
1146,23,Ticks_Phase_5,178,1,48,17,1172858668
1146,23,Ticks_Phase_5,179,5,42,127,1172938080
1146,23,Ticks_Phase_5,180,5,42,127,1173437924
1146,23,Ticks_Phase_5,181,1,48,19,1173480132
1146,23,Ticks_Phase_5,182,5,42,127,1173937536
1146,23,Ticks_Phase_5,183,1,48,17,1174012912
1146,23,Ticks_Phase_5,184,5,42,127,1174438268
1146,23,Ticks_Phase_5,185,1,48,20,1174455232
1146,23,Ticks_Phase_5,186,1,48,15,1174937808
1146,23,Ticks_Phase_5,187,5,42,127,1174939220
1146,23,Ticks_Phase_5,188,5,42,127,1175437792
1146,23,Ticks_Phase_5,189,1,48,18,1175442404
1146,23,Ticks_Phase_5,190,5,42,127,1175938380
1146,23,Ticks_Phase_5,191,1,48,19,1175967564
1146,23,Ticks_Phase_5,192,5,42,127,1176398084
1146,23,Ticks_Phase_5,193,1,48,18,1176406376
1146,23,Ticks_Phase_5,194,5,42,127,1176897992
1146,23,Ticks_Phase_5,195,1,48,19,1176961992
1146,23,Ticks_Phase_5,196,1,48,14,1177382784
1146,23,Ticks_Phase_5,197,5,42,127,1177397748
1146,23,Ticks_Phase_5,198,1,48,15,1177853492
1146,23,Ticks_Phase_5,199,5,42,127,1177898460
1146,23,Ticks_Phase_5,200,1,48,16,1178345312
1146,23,Ticks_Phase_5,201,5,42,127,1178398000
1146,23,Ticks_Phase_5,202,1,48,15,1178828760
1146,23,Ticks_Phase_5,203,5,42,127,1178897912
1146,23,Ticks_Phase_5,204,1,48,19,1179373224
1146,23,Ticks_Phase_5,205,5,42,127,1179397448
1146,23,Ticks_Phase_5,206,1,48,14,1179880256
1146,23,Ticks_Phase_5,207,5,42,127,1179898184
1146,23,Ticks_Phase_5,208,1,48,15,1180329100
1146,23,Ticks_Phase_5,209,5,42,127,1180398096
1146,23,Ticks_Phase_5,210,5,42,127,1180897792
1146,23,Ticks_Phase_5,211,1,48,18,1180909372
1146,23,Ticks_Phase_5,212,5,42,127,1181398528
1146,23,Ticks_Phase_5,213,1,48,19,1181408164
1146,23,Ticks_Phase_5,214,1,48,14,1181884692
1146,23,Ticks_Phase_5,215,5,42,127,1181897984
1146,23,Ticks_Phase_5,216,5,42,127,1182397904
1146,23,Ticks_Phase_5,217,1,48,16,1182422140
1146,23,Ticks_Phase_5,218,5,42,127,1182897664
1146,23,Ticks_Phase_5,219,1,48,14,1182910220
1146,23,Ticks_Phase_5,220,5,42,127,1183398176
1146,23,Ticks_Phase_5,221,5,42,127,1183897960
1146,23,Ticks_Phase_5,222,1,48,20,1183929392
1146,23,Ticks_Phase_5,223,5,42,127,1184397800
1146,23,Ticks_Phase_5,224,1,48,19,1184438212
1146,23,Ticks_Phase_5,225,1,48,14,1184875272
1146,23,Ticks_Phase_5,226,5,42,127,1184947580
1146,23,Ticks_Phase_5,227,5,42,127,1185448248
1146,23,Ticks_Phase_5,228,1,48,17,1185933764
1146,23,Ticks_Phase_5,229,5,42,127,1185947876
1146,23,Ticks_Phase_5,230,5,42,127,1186447868
1146,23,Ticks_Phase_5,231,1,48,17,1186461772
1146,23,Ticks_Phase_5,232,1,48,16,1186906032
1146,23,Ticks_Phase_5,233,5,42,127,1186947400
1146,23,Ticks_Phase_5,234,5,42,127,1187448068
1146,23,Ticks_Phase_5,235,1,48,17,1187454400
1146,23,Ticks_Phase_5,236,1,48,16,1187929672
1146,23,Ticks_Phase_5,237,5,42,127,1187947828
1146,23,Ticks_Phase_5,238,1,48,13,1188435416
1146,23,Ticks_Phase_5,239,5,42,127,1188447736
1146,23,Ticks_Phase_5,240,1,48,19,1188914216
1146,23,Ticks_Phase_5,241,5,42,127,1188948248
1146,23,Ticks_Phase_5,242,1,48,15,1189435312
1146,23,Ticks_Phase_5,243,5,42,127,1189448012
1146,23,Ticks_Phase_5,244,5,42,127,1189947856
1146,23,Ticks_Phase_5,245,1,48,17,1189959064
1146,23,Ticks_Phase_5,246,1,48,18,1190429656
1146,23,Ticks_Phase_5,247,5,42,127,1190447512
1146,23,Ticks_Phase_5,248,1,48,17,1190932012
1146,23,Ticks_Phase_5,249,5,42,127,1190948220
1146,23,Ticks_Phase_5,250,1,48,16,1191386024
1146,23,Ticks_Phase_5,251,5,42,127,1191448060
1146,23,Ticks_Phase_5,252,1,48,17,1191933560
1146,23,Ticks_Phase_5,253,5,42,127,1191947896
1146,23,Ticks_Phase_5,254,5,42,127,1192448488
1146,23,Ticks_Phase_5,255,1,48,13,1192463368
1146,23,Ticks_Phase_5,256,1,48,15,1192890704
1146,23,Ticks_Phase_5,257,5,42,127,1192947948
1146,23,Ticks_Phase_5,258,1,48,19,1193544976
1146,23,Ticks_Phase_5,259,5,42,127,1193548160
1146,23,Ticks_Phase_5,260,5,42,127,1194047856
1146,23,Ticks_Phase_5,261,1,48,17,1194053892
1146,23,Ticks_Phase_5,262,1,48,14,1194541860
1146,23,Ticks_Phase_5,263,5,42,127,1194547688
1146,23,Ticks_Phase_5,264,1,48,16,1194997828
1146,23,Ticks_Phase_5,265,5,42,127,1195048472
1146,23,Ticks_Phase_5,266,5,42,127,1195548096
1146,23,Ticks_Phase_5,267,1,48,18,1195575956
1146,23,Ticks_Phase_5,268,5,42,127,1196047856
1146,23,Ticks_Phase_5,269,1,48,20,1196065196
1146,23,Ticks_Phase_5,270,5,42,127,1196547320
1146,23,Ticks_Phase_5,271,1,48,18,1196555684
1146,23,Ticks_Phase_5,272,1,48,14,1197019036
1146,23,Ticks_Phase_5,273,5,42,127,1197048120
1146,23,Ticks_Phase_5,274,5,42,127,1197547816
1146,23,Ticks_Phase_5,275,1,48,19,1197566960
1146,23,Ticks_Phase_5,276,5,42,127,1198047728
1146,23,Ticks_Phase_5,277,1,48,17,1198118100
1146,23,Ticks_Phase_5,278,1,48,17,1198545792
1146,23,Ticks_Phase_5,279,5,42,127,1198548304
1146,23,Ticks_Phase_5,280,5,42,127,1199048004
1146,23,Ticks_Phase_5,281,1,48,22,1199061232
1146,23,Ticks_Phase_5,282,1,48,19,1199494476
1146,23,Ticks_Phase_5,283,5,42,127,1199547832
1146,23,Ticks_Phase_5,284,5,42,127,1200047604
1146,23,Ticks_Phase_5,285,1,48,21,1200089064
1146,23,Ticks_Phase_5,286,5,42,127,1200548264
1146,23,Ticks_Phase_5,287,1,48,17,1200557452
1146,23,Ticks_Phase_5,288,5,42,127,1201047876
1146,23,Ticks_Phase_5,289,1,48,17,1201520436
1146,23,Ticks_Phase_5,290,5,42,127,1201547804
1146,23,Ticks_Phase_5,291,5,42,127,1202048248
1146,23,Ticks_Phase_5,292,1,48,15,1202544768
1146,23,Ticks_Phase_5,293,5,42,127,1202548024
1146,23,Ticks_Phase_5,294,5,42,127,1202947644
1146,23,Ticks_Phase_5,295,1,48,16,1203022232
1146,23,Ticks_Phase_5,296,5,42,127,1203448304
1146,23,Ticks_Phase_5,297,1,48,20,1203493212
1146,23,Ticks_Phase_5,298,5,42,127,1203947772
1146,23,Ticks_Phase_5,299,1,48,16,1203979944
1146,23,Ticks_Phase_5,300,1,48,21,1204438808
1146,23,Ticks_Phase_5,301,5,42,127,1204447752
1146,23,Ticks_Phase_5,302,1,48,19,1204894604
1146,23,Ticks_Phase_5,303,5,42,127,1204948632
1146,23,Ticks_Phase_5,304,5,42,127,1205448108
1146,23,Ticks_Phase_5,305,1,48,24,1205453468
1146,23,Ticks_Phase_5,306,1,48,19,1205942884
1146,23,Ticks_Phase_5,307,5,42,127,1205947788
1146,23,Ticks_Phase_5,308,1,48,16,1206386636
1146,23,Ticks_Phase_5,309,5,42,127,1206447772
1146,23,Ticks_Phase_5,310,1,48,17,1206924808
1146,23,Ticks_Phase_5,311,5,42,127,1206948136
1146,23,Ticks_Phase_5,312,1,48,15,1207407808
1146,23,Ticks_Phase_5,313,5,42,127,1207448048
1146,23,Ticks_Phase_5,314,1,48,14,1207864648
1146,23,Ticks_Phase_5,315,5,42,127,1207947736
1146,23,Ticks_Phase_5,316,1,48,14,1208427324
1146,23,Ticks_Phase_5,317,5,42,127,1208448468
1146,23,Ticks_Phase_5,318,1,48,16,1208904384
1146,23,Ticks_Phase_5,319,5,42,127,1208947932
1146,23,Ticks_Phase_5,320,1,48,17,1209413288
1146,23,Ticks_Phase_5,321,5,42,127,1209447844
1146,23,Ticks_Phase_5,322,1,48,16,1209864792
1146,23,Ticks_Phase_5,323,5,42,127,1209947608
1146,23,Ticks_Phase_5,324,5,42,127,1210448424
1146,23,Ticks_Phase_5,325,1,48,22,1210453484
1146,23,Ticks_Phase_5,326,1,48,16,1210909556
1146,23,Ticks_Phase_5,327,5,42,127,1210947808
1146,23,Ticks_Phase_5,328,1,48,20,1211401828
1146,23,Ticks_Phase_5,329,5,42,127,1211447644
1146,23,Ticks_Phase_5,330,1,48,20,1211892904
1146,23,Ticks_Phase_5,331,5,42,127,1211948504
1146,23,Ticks_Phase_5,332,1,48,21,1212404344
1146,23,Ticks_Phase_5,333,5,42,127,1212448044
1146,23,Ticks_Phase_5,0,9999,9999,9999,1127925860
1146,23,Ticks_Phase_5,1,9999,9999,9999,1128425568
1146,23,Ticks_Phase_5,2,9999,9999,9999,1128925276
1146,23,Ticks_Phase_5,3,9999,9999,9999,1129426012
1146,23,Ticks_Phase_5,4,9999,9999,9999,1129925700
1146,23,Ticks_Phase_5,5,9999,9999,9999,1130425464
1146,23,Ticks_Phase_5,6,9999,9999,9999,1130925152
1146,23,Ticks_Phase_5,7,9999,9999,9999,1131425888
1146,23,Ticks_Phase_5,8,9999,9999,9999,1131925576
1146,23,Ticks_Phase_5,9,9999,9999,9999,1132425340
1146,23,Ticks_Phase_5,10,9999,9999,9999,1132926064
1146,23,Ticks_Phase_5,11,9999,9999,9999,1133425760
1146,23,Ticks_Phase_5,12,9999,9999,9999,1133925448
1146,23,Ticks_Phase_5,13,9999,9999,9999,1134425212
1146,23,Ticks_Phase_5,14,9999,9999,9999,1134925940
1146,23,Ticks_Phase_5,15,9999,9999,9999,1135425628
1146,23,Ticks_Phase_5,16,9999,9999,9999,1135925316
1146,23,Ticks_Phase_5,17,9999,9999,9999,1136426100
1146,23,Ticks_Phase_5,18,9999,9999,9999,1136925788
1146,23,Ticks_Phase_5,19,9999,9999,9999,1137425480
1146,23,Ticks_Phase_5,20,9999,9999,9999,1137925240
1146,23,Ticks_Phase_5,21,9999,9999,9999,1138425976
1146,23,Ticks_Phase_5,22,9999,9999,9999,1138925664
1146,23,Ticks_Phase_5,23,9999,9999,9999,1139425352
1146,23,Ticks_Phase_5,24,9999,9999,9999,1139926088
1146,23,Ticks_Phase_5,25,9999,9999,9999,1140436036
1146,23,Ticks_Phase_5,26,9999,9999,9999,1140935800
1146,23,Ticks_Phase_5,27,9999,9999,9999,1141435488
1146,23,Ticks_Phase_5,28,9999,9999,9999,1141935176
1146,23,Ticks_Phase_5,29,9999,9999,9999,1142435908
1146,23,Ticks_Phase_5,30,9999,9999,9999,1142925416
1146,23,Ticks_Phase_5,31,9999,9999,9999,1143425104
1146,23,Ticks_Phase_5,32,9999,9999,9999,1143925840
1146,23,Ticks_Phase_5,33,9999,9999,9999,1144425528
1146,23,Ticks_Phase_5,34,9999,9999,9999,1144925288
1146,23,Ticks_Phase_5,35,9999,9999,9999,1145426024
1146,23,Ticks_Phase_5,36,9999,9999,9999,1145925708
1146,23,Ticks_Phase_5,37,9999,9999,9999,1146425396
1146,23,Ticks_Phase_5,38,9999,9999,9999,1146925136
1146,23,Ticks_Phase_5,39,9999,9999,9999,1147425868
1146,23,Ticks_Phase_5,40,9999,9999,9999,1147925560
1146,23,Ticks_Phase_5,41,9999,9999,9999,1148425320
1146,23,Ticks_Phase_5,42,9999,9999,9999,1148926056
1146,23,Ticks_Phase_5,43,9999,9999,9999,1149425744
1146,23,Ticks_Phase_5,44,9999,9999,9999,1149925432
1146,23,Ticks_Phase_5,45,9999,9999,9999,1150425196
1146,23,Ticks_Phase_5,46,9999,9999,9999,1150925932
1146,23,Ticks_Phase_5,47,9999,9999,9999,1151425620
1146,23,Ticks_Phase_5,48,9999,9999,9999,1151935568
1146,23,Ticks_Phase_5,49,9999,9999,9999,1152435256
1146,23,Ticks_Phase_5,50,9999,9999,9999,1152935992
1146,23,Ticks_Phase_5,51,9999,9999,9999,1153435756
1146,23,Ticks_Phase_5,52,9999,9999,9999,1153935444
1146,23,Ticks_Phase_5,53,9999,9999,9999,1154435132
1146,23,Ticks_Phase_5,54,9999,9999,9999,1154935868
1146,23,Ticks_Phase_5,55,9999,9999,9999,1155435628
1146,23,Ticks_Phase_5,56,9999,9999,9999,1155935320
1146,23,Ticks_Phase_5,57,9999,9999,9999,1156436056
1146,23,Ticks_Phase_5,58,9999,9999,9999,1156935740
1146,23,Ticks_Phase_5,59,9999,9999,9999,1157435504
1146,23,Ticks_Phase_5,60,9999,9999,9999,1157935168
1146,23,Ticks_Phase_5,61,9999,9999,9999,1158435952
1146,23,Ticks_Phase_5,62,9999,9999,9999,1158935640
1146,23,Ticks_Phase_5,63,9999,9999,9999,1159435328
1146,23,Ticks_Phase_5,64,9999,9999,9999,1159955536
1146,23,Ticks_Phase_5,65,9999,9999,9999,1160455284
1146,23,Ticks_Phase_5,66,9999,9999,9999,1160955960
1146,23,Ticks_Phase_5,67,9999,9999,9999,1161455724
1146,23,Ticks_Phase_5,68,9999,9999,9999,1161955412
1146,23,Ticks_Phase_5,69,9999,9999,9999,1162455100
1146,23,Ticks_Phase_5,70,9999,9999,9999,1162955836
1146,23,Ticks_Phase_5,71,9999,9999,9999,1163455596
1146,23,Ticks_Phase_5,72,9999,9999,9999,1163955284
1146,23,Ticks_Phase_5,73,9999,9999,9999,1164456020
1146,23,Ticks_Phase_5,74,9999,9999,9999,1164955708
1146,23,Ticks_Phase_5,75,9999,9999,9999,1165455472
1146,23,Ticks_Phase_5,76,9999,9999,9999,1165955168
1146,23,Ticks_Phase_5,77,9999,9999,9999,1166455896
1146,23,Ticks_Phase_5,78,9999,9999,9999,1166955584
1146,23,Ticks_Phase_5,79,9999,9999,9999,1167455348
1146,23,Ticks_Phase_5,80,9999,9999,9999,1167956084
1146,23,Ticks_Phase_5,81,9999,9999,9999,1168435256
1146,23,Ticks_Phase_5,82,9999,9999,9999,1168936044
1146,23,Ticks_Phase_5,83,9999,9999,9999,1169435728
1146,23,Ticks_Phase_5,84,9999,9999,9999,1169935416
1146,23,Ticks_Phase_5,85,9999,9999,9999,1170435180
1146,23,Ticks_Phase_5,86,9999,9999,9999,1170935916
1146,23,Ticks_Phase_5,87,9999,9999,9999,1171435604
1146,23,Ticks_Phase_5,88,9999,9999,9999,1171935300
1146,23,Ticks_Phase_5,89,9999,9999,9999,1172436028
1146,23,Ticks_Phase_5,90,9999,9999,9999,1172935788
1146,23,Ticks_Phase_5,91,9999,9999,9999,1173435484
1146,23,Ticks_Phase_5,92,9999,9999,9999,1173935172
1146,23,Ticks_Phase_5,93,9999,9999,9999,1174435904
1146,23,Ticks_Phase_5,94,9999,9999,9999,1174935668
1146,23,Ticks_Phase_5,95,9999,9999,9999,1175435356
1146,23,Ticks_Phase_5,96,9999,9999,9999,1175936096
1146,23,Ticks_Phase_5,97,9999,9999,9999,1176395868
1146,23,Ticks_Phase_5,98,9999,9999,9999,1176895556
1146,23,Ticks_Phase_5,99,9999,9999,9999,1177395312
1146,23,Ticks_Phase_5,100,9999,9999,9999,1177896020
1146,23,Ticks_Phase_5,101,9999,9999,9999,1178395712
1146,23,Ticks_Phase_5,102,9999,9999,9999,1178895472
1146,23,Ticks_Phase_5,103,9999,9999,9999,1179395160
1146,23,Ticks_Phase_5,104,9999,9999,9999,1179895896
1146,23,Ticks_Phase_5,105,9999,9999,9999,1180395584
1146,23,Ticks_Phase_5,106,9999,9999,9999,1180895352
1146,23,Ticks_Phase_5,107,9999,9999,9999,1181396088
1146,23,Ticks_Phase_5,108,9999,9999,9999,1181895772
1146,23,Ticks_Phase_5,109,9999,9999,9999,1182395464
1146,23,Ticks_Phase_5,110,9999,9999,9999,1182895228
1146,23,Ticks_Phase_5,111,9999,9999,9999,1183395960
1146,23,Ticks_Phase_5,112,9999,9999,9999,1183895672
1146,23,Ticks_Phase_5,113,9999,9999,9999,1184395360
1146,23,Ticks_Phase_5,114,9999,9999,9999,1184945216
1146,23,Ticks_Phase_5,115,9999,9999,9999,1185445960
1146,23,Ticks_Phase_5,116,9999,9999,9999,1185945664
1146,23,Ticks_Phase_5,117,9999,9999,9999,1186445432
1146,23,Ticks_Phase_5,118,9999,9999,9999,1186945112
1146,23,Ticks_Phase_5,119,9999,9999,9999,1187445856
1146,23,Ticks_Phase_5,120,9999,9999,9999,1187945536
1146,23,Ticks_Phase_5,121,9999,9999,9999,1188445300
1146,23,Ticks_Phase_5,122,9999,9999,9999,1188946032
1146,23,Ticks_Phase_5,123,9999,9999,9999,1189445720
1146,23,Ticks_Phase_5,124,9999,9999,9999,1189945416
1146,23,Ticks_Phase_5,125,9999,9999,9999,1190445148
1146,23,Ticks_Phase_5,126,9999,9999,9999,1190945856
1146,23,Ticks_Phase_5,127,9999,9999,9999,1191445620
1146,23,Ticks_Phase_5,128,9999,9999,9999,1191945312
1146,23,Ticks_Phase_5,129,9999,9999,9999,1192446052
1146,23,Ticks_Phase_5,130,9999,9999,9999,1192945732
1146,23,Ticks_Phase_5,131,9999,9999,9999,1193545796
1146,23,Ticks_Phase_5,132,9999,9999,9999,1194045568
1146,23,Ticks_Phase_5,133,9999,9999,9999,1194545248
1146,23,Ticks_Phase_5,134,9999,9999,9999,1195045960
1146,23,Ticks_Phase_5,135,9999,9999,9999,1195545656
1146,23,Ticks_Phase_5,136,9999,9999,9999,1196045420
1146,23,Ticks_Phase_5,137,9999,9999,9999,1196545108
1146,23,Ticks_Phase_5,138,9999,9999,9999,1197045832
1146,23,Ticks_Phase_5,139,9999,9999,9999,1197545528
1146,23,Ticks_Phase_5,140,9999,9999,9999,1198045288
1146,23,Ticks_Phase_5,141,9999,9999,9999,1198546016
1146,23,Ticks_Phase_5,142,9999,9999,9999,1199045712
1146,23,Ticks_Phase_5,143,9999,9999,9999,1199545468
1146,23,Ticks_Phase_5,144,9999,9999,9999,1200045164
1146,23,Ticks_Phase_5,145,9999,9999,9999,1200545900
1146,23,Ticks_Phase_5,146,9999,9999,9999,1201045588
1146,23,Ticks_Phase_5,147,9999,9999,9999,1201545292
1146,23,Ticks_Phase_5,148,9999,9999,9999,1202046032
1146,23,Ticks_Phase_5,149,9999,9999,9999,1202545736
1146,23,Ticks_Phase_5,150,9999,9999,9999,1202945132
1146,23,Ticks_Phase_5,151,9999,9999,9999,1203445868
1146,23,Ticks_Phase_5,152,9999,9999,9999,1203945556
1146,23,Ticks_Phase_5,153,9999,9999,9999,1204445240
1146,23,Ticks_Phase_5,154,9999,9999,9999,1204946048
1146,23,Ticks_Phase_5,155,9999,9999,9999,1205445744
1146,23,Ticks_Phase_5,156,9999,9999,9999,1205945424
1146,23,Ticks_Phase_5,157,9999,9999,9999,1206445112
1146,23,Ticks_Phase_5,158,9999,9999,9999,1206945848
1146,23,Ticks_Phase_5,159,9999,9999,9999,1207445608
1146,23,Ticks_Phase_5,160,9999,9999,9999,1207945296
1146,23,Ticks_Phase_5,161,9999,9999,9999,1208446032
1146,23,Ticks_Phase_5,162,9999,9999,9999,1208945720
1146,23,Ticks_Phase_5,163,9999,9999,9999,1209445480
1146,23,Ticks_Phase_5,164,9999,9999,9999,1209945172
1146,23,Ticks_Phase_5,165,9999,9999,9999,1210445912
1146,23,Ticks_Phase_5,166,9999,9999,9999,1210945592
1146,23,Ticks_Phase_5,167,9999,9999,9999,1211445356
1146,23,Ticks_Phase_5,168,9999,9999,9999,1211946064
1146,23,Ticks_Phase_5,169,9999,9999,9999,1212445756
1147,9,Ticks_ISO_T2_8,0,5,42,127,1223942576
1147,9,Ticks_ISO_T2_8,1,5,42,127,1224743304
1147,9,Ticks_ISO_T2_8,2,1,48,20,1224989992
1147,9,Ticks_ISO_T2_8,3,5,42,127,1225543212
1147,9,Ticks_ISO_T2_8,4,1,48,31,1225608268
1147,9,Ticks_ISO_T2_8,5,5,42,127,1226342648
1147,9,Ticks_ISO_T2_8,6,1,48,20,1226386304
1147,9,Ticks_ISO_T2_8,7,5,42,127,1227142380
1147,9,Ticks_ISO_T2_8,8,1,48,21,1227202572
1147,9,Ticks_ISO_T2_8,9,5,42,127,1227943384
1147,9,Ticks_ISO_T2_8,10,1,48,25,1227949500
1147,9,Ticks_ISO_T2_8,11,1,48,22,1228690344
1147,9,Ticks_ISO_T2_8,12,5,42,127,1228743112
1147,9,Ticks_ISO_T2_8,13,1,48,21,1229529500
1147,9,Ticks_ISO_T2_8,14,5,42,127,1229542696
1147,9,Ticks_ISO_T2_8,15,1,48,19,1230321304
1147,9,Ticks_ISO_T2_8,16,5,42,127,1230342356
1147,9,Ticks_ISO_T2_8,17,1,48,21,1231060672
1147,9,Ticks_ISO_T2_8,18,5,42,127,1231143508
1147,9,Ticks_ISO_T2_8,19,1,48,22,1231850084
1147,9,Ticks_ISO_T2_8,20,5,42,127,1231943116
1147,9,Ticks_ISO_T2_8,21,1,48,26,1232674056
1147,9,Ticks_ISO_T2_8,22,5,42,127,1232742628
1147,9,Ticks_ISO_T2_8,23,1,48,16,1233499768
1147,9,Ticks_ISO_T2_8,24,5,42,127,1233542436
1147,9,Ticks_ISO_T2_8,25,1,48,18,1234318052
1147,9,Ticks_ISO_T2_8,26,5,42,127,1234343292
1147,9,Ticks_ISO_T2_8,27,1,48,27,1235099232
1147,9,Ticks_ISO_T2_8,28,5,42,127,1235143248
1147,9,Ticks_ISO_T2_8,29,1,48,16,1235886552
1147,9,Ticks_ISO_T2_8,30,5,42,127,1235942760
1147,9,Ticks_ISO_T2_8,31,1,48,25,1236694440
1147,9,Ticks_ISO_T2_8,32,5,42,127,1236742420
1147,9,Ticks_ISO_T2_8,33,1,48,22,1237496116
1147,9,Ticks_ISO_T2_8,34,5,42,127,1237543272
1147,9,Ticks_ISO_T2_8,35,5,42,127,1238343336
1147,9,Ticks_ISO_T2_8,36,1,48,20,1238387520
1147,9,Ticks_ISO_T2_8,37,5,42,127,1239142700
1147,9,Ticks_ISO_T2_8,38,1,48,20,1239148432
1147,9,Ticks_ISO_T2_8,39,1,48,27,1239907088
1147,9,Ticks_ISO_T2_8,40,5,42,127,1239942424
1147,9,Ticks_ISO_T2_8,41,5,42,127,1240743212
1147,9,Ticks_ISO_T2_8,42,1,48,15,1240832348
1147,9,Ticks_ISO_T2_8,43,1,48,21,1241426888
1147,9,Ticks_ISO_T2_8,44,5,42,127,1241543220
1147,9,Ticks_ISO_T2_8,45,1,48,32,1242202688
1147,9,Ticks_ISO_T2_8,46,5,42,127,1242343104
1147,9,Ticks_ISO_T2_8,47,1,48,22,1243056804
1147,9,Ticks_ISO_T2_8,48,5,42,127,1243142552
1147,9,Ticks_ISO_T2_8,49,1,48,19,1243915028
1147,9,Ticks_ISO_T2_8,50,5,42,127,1243943336
1147,9,Ticks_ISO_T2_8,51,1,48,20,1244685064
1147,9,Ticks_ISO_T2_8,52,5,42,127,1244743092
1147,9,Ticks_ISO_T2_8,53,1,48,19,1245485472
1147,9,Ticks_ISO_T2_8,54,5,42,127,1245542972
1147,9,Ticks_ISO_T2_8,55,1,48,16,1246258384
1147,9,Ticks_ISO_T2_8,56,5,42,127,1246342632
1147,9,Ticks_ISO_T2_8,57,1,48,17,1247058784
1147,9,Ticks_ISO_T2_8,58,5,42,127,1247143264
1147,9,Ticks_ISO_T2_8,59,1,48,25,1247868096
1147,9,Ticks_ISO_T2_8,60,5,42,127,1247943000
1147,9,Ticks_ISO_T2_8,61,1,48,19,1248694000
1147,9,Ticks_ISO_T2_8,62,5,42,127,1248743028
1147,9,Ticks_ISO_T2_8,63,1,48,19,1249487680
1147,9,Ticks_ISO_T2_8,64,5,42,127,1249542540
1147,9,Ticks_ISO_T2_8,65,1,48,20,1250267372
1147,9,Ticks_ISO_T2_8,66,5,42,127,1250343172
1147,9,Ticks_ISO_T2_8,67,1,48,19,1251080792
1147,9,Ticks_ISO_T2_8,68,5,42,127,1251143004
1147,9,Ticks_ISO_T2_8,69,1,48,24,1251822180
1147,9,Ticks_ISO_T2_8,70,5,42,127,1251942872
1147,9,Ticks_ISO_T2_8,71,1,48,17,1252695464
1147,9,Ticks_ISO_T2_8,72,5,42,127,1252742396
1147,9,Ticks_ISO_T2_8,73,1,48,23,1253496172
1147,9,Ticks_ISO_T2_8,74,5,42,127,1253543324
1147,9,Ticks_ISO_T2_8,75,1,48,17,1254260076
1147,9,Ticks_ISO_T2_8,76,5,42,127,1254343060
1147,9,Ticks_ISO_T2_8,77,1,48,21,1255039388
1147,9,Ticks_ISO_T2_8,78,5,42,127,1255142776
1147,9,Ticks_ISO_T2_8,79,5,42,127,1255942456
1147,9,Ticks_ISO_T2_8,80,1,48,17,1256623392
1147,9,Ticks_ISO_T2_8,81,5,42,127,1256743464
1147,9,Ticks_ISO_T2_8,82,1,48,21,1257463292
1147,9,Ticks_ISO_T2_8,83,5,42,127,1257543084
1147,9,Ticks_ISO_T2_8,84,1,48,20,1258268636
1147,9,Ticks_ISO_T2_8,85,5,42,127,1258342820
1147,9,Ticks_ISO_T2_8,86,1,48,23,1259130180
1147,9,Ticks_ISO_T2_8,87,5,42,127,1259142628
1147,9,Ticks_ISO_T2_8,88,1,48,17,1259894160
1147,9,Ticks_ISO_T2_8,89,5,42,127,1259943260
1147,9,Ticks_ISO_T2_8,90,1,48,21,1260661504
1147,9,Ticks_ISO_T2_8,91,5,42,127,1260743068
1147,9,Ticks_ISO_T2_8,92,1,48,24,1261412320
1147,9,Ticks_ISO_T2_8,93,5,42,127,1261542712
1147,9,Ticks_ISO_T2_8,94,1,48,21,1262246240
1147,9,Ticks_ISO_T2_8,95,5,42,127,1262342460
1147,9,Ticks_ISO_T2_8,96,1,48,20,1263045144
1147,9,Ticks_ISO_T2_8,97,5,42,127,1263143224
1147,9,Ticks_ISO_T2_8,98,1,48,16,1263808452
1147,9,Ticks_ISO_T2_8,99,5,42,127,1263943132
1147,9,Ticks_ISO_T2_8,100,1,48,21,1264686380
1147,9,Ticks_ISO_T2_8,101,5,42,127,1264742732
1147,9,Ticks_ISO_T2_8,102,1,48,21,1265515804
1147,9,Ticks_ISO_T2_8,103,5,42,127,1265542688
1147,9,Ticks_ISO_T2_8,104,5,42,127,1266343252
1147,9,Ticks_ISO_T2_8,105,1,48,19,1266353628
1147,9,Ticks_ISO_T2_8,106,1,48,16,1267115644
1147,9,Ticks_ISO_T2_8,107,5,42,127,1267142976
1147,9,Ticks_ISO_T2_8,108,1,48,20,1267898624
1147,9,Ticks_ISO_T2_8,109,5,42,127,1267942860
1147,9,Ticks_ISO_T2_8,110,5,42,127,1268742676
1147,9,Ticks_ISO_T2_8,111,1,48,16,1268751104
1147,9,Ticks_ISO_T2_8,112,5,42,127,1269543232
1147,9,Ticks_ISO_T2_8,113,1,48,16,1270325092
1147,9,Ticks_ISO_T2_8,114,5,42,127,1270343228
1147,9,Ticks_ISO_T2_8,115,1,48,20,1271097900
1147,9,Ticks_ISO_T2_8,116,5,42,127,1271142736
1147,9,Ticks_ISO_T2_8,117,1,48,26,1271852876
1147,9,Ticks_ISO_T2_8,118,5,42,127,1271942692
1147,9,Ticks_ISO_T2_8,119,1,48,20,1272627360
1147,9,Ticks_ISO_T2_8,120,5,42,127,1272743536
1147,9,Ticks_ISO_T2_8,121,1,48,18,1273423352
1147,9,Ticks_ISO_T2_8,122,5,42,127,1273542896
1147,9,Ticks_ISO_T2_8,123,1,48,19,1274331392
1147,9,Ticks_ISO_T2_8,124,5,42,127,1274342720
1147,9,Ticks_ISO_T2_8,125,1,48,20,1275069268
1147,9,Ticks_ISO_T2_8,126,5,42,127,1275142752
1147,9,Ticks_ISO_T2_8,127,1,48,22,1275936244
1147,9,Ticks_ISO_T2_8,128,5,42,127,1275943160
1147,9,Ticks_ISO_T2_8,129,5,42,127,1276742924
1147,9,Ticks_ISO_T2_8,130,5,42,127,1277542680
1147,9,Ticks_ISO_T2_8,131,1,48,24,1278236756
1147,9,Ticks_ISO_T2_8,132,5,42,127,1278342636
1147,9,Ticks_ISO_T2_8,133,1,48,22,1279052144
1147,9,Ticks_ISO_T2_8,134,5,42,127,1279143784
1147,9,Ticks_ISO_T2_8,135,1,48,26,1279820912
1147,9,Ticks_ISO_T2_8,136,5,42,127,1279943000
1147,9,Ticks_ISO_T2_8,137,1,48,14,1280592892
1147,9,Ticks_ISO_T2_8,138,5,42,127,1280742732
1147,9,Ticks_ISO_T2_8,139,1,48,19,1281524048
1147,9,Ticks_ISO_T2_8,140,5,42,127,1281542628
1147,9,Ticks_ISO_T2_8,141,1,48,25,1282264688
1147,9,Ticks_ISO_T2_8,142,5,42,127,1282343408
1147,9,Ticks_ISO_T2_8,143,1,48,27,1283046924
1147,9,Ticks_ISO_T2_8,144,5,42,127,1283143004
1147,9,Ticks_ISO_T2_8,145,1,48,31,1283880912
1147,9,Ticks_ISO_T2_8,146,5,42,127,1283942756
1147,9,Ticks_ISO_T2_8,147,5,42,127,1284742496
1147,9,Ticks_ISO_T2_8,148,1,48,22,1284764388
1147,9,Ticks_ISO_T2_8,149,5,42,127,1285543276
1147,9,Ticks_ISO_T2_8,150,1,48,25,1285595536
1147,9,Ticks_ISO_T2_8,151,1,48,25,1286339904
1147,9,Ticks_ISO_T2_8,152,5,42,127,1286343152
1147,9,Ticks_ISO_T2_8,153,5,42,127,1287142744
1147,9,Ticks_ISO_T2_8,154,1,48,15,1287168752
1147,9,Ticks_ISO_T2_8,155,5,42,127,1287942480
1147,9,Ticks_ISO_T2_8,156,1,48,29,1287989604
1147,9,Ticks_ISO_T2_8,157,5,42,127,1288743260
1147,9,Ticks_ISO_T2_8,158,1,48,20,1288784772
1147,9,Ticks_ISO_T2_8,159,5,42,127,1289542940
1147,9,Ticks_ISO_T2_8,160,1,48,19,1289576580
1147,9,Ticks_ISO_T2_8,161,5,42,127,1290342752
1147,9,Ticks_ISO_T2_8,162,5,42,127,1291142504
1147,9,Ticks_ISO_T2_8,163,1,48,18,1291179508
1147,9,Ticks_ISO_T2_8,164,1,48,21,1291919160
1147,9,Ticks_ISO_T2_8,165,5,42,127,1291943428
1147,9,Ticks_ISO_T2_8,166,1,48,24,1292728696
1147,9,Ticks_ISO_T2_8,167,5,42,127,1292743012
1147,9,Ticks_ISO_T2_8,168,1,48,19,1293471428
1147,9,Ticks_ISO_T2_8,169,5,42,127,1293542820
1147,9,Ticks_ISO_T2_8,170,1,48,29,1294273560
1147,9,Ticks_ISO_T2_8,171,5,42,127,1294342628
1147,9,Ticks_ISO_T2_8,172,1,48,29,1295075608
1147,9,Ticks_ISO_T2_8,173,5,42,127,1295143480
1147,9,Ticks_ISO_T2_8,174,1,48,20,1295876688
1147,9,Ticks_ISO_T2_8,175,5,42,127,1295942944
1147,9,Ticks_ISO_T2_8,176,1,48,22,1296646428
1147,9,Ticks_ISO_T2_8,177,5,42,127,1296742660
1147,9,Ticks_ISO_T2_8,178,1,48,21,1297470416
1147,9,Ticks_ISO_T2_8,179,5,42,127,1297542484
1147,9,Ticks_ISO_T2_8,180,1,48,25,1298228716
1147,9,Ticks_ISO_T2_8,181,5,42,127,1298343396
1147,9,Ticks_ISO_T2_8,182,1,48,30,1299061580
1147,9,Ticks_ISO_T2_8,183,5,42,127,1299143220
1147,9,Ticks_ISO_T2_8,184,1,48,20,1299888916
1147,9,Ticks_ISO_T2_8,185,5,42,127,1299942804
1147,9,Ticks_ISO_T2_8,186,5,42,127,1300742472
1147,9,Ticks_ISO_T2_8,187,1,48,27,1300775960
1147,9,Ticks_ISO_T2_8,188,1,48,20,1301513064
1147,9,Ticks_ISO_T2_8,189,5,42,127,1301543168
1147,9,Ticks_ISO_T2_8,190,1,48,26,1302326592
1147,9,Ticks_ISO_T2_8,191,5,42,127,1302343300
1147,9,Ticks_ISO_T2_8,192,1,48,26,1303116076
1147,9,Ticks_ISO_T2_8,193,5,42,127,1303142960
1147,9,Ticks_ISO_T2_8,194,1,48,29,1303898080
1147,9,Ticks_ISO_T2_8,195,5,42,127,1303942544
1147,9,Ticks_ISO_T2_8,196,1,48,29,1304730352
1147,9,Ticks_ISO_T2_8,197,5,42,127,1304743400
1147,9,Ticks_ISO_T2_8,198,1,48,20,1305433672
1147,9,Ticks_ISO_T2_8,199,5,42,127,1305543416
1147,9,Ticks_ISO_T2_8,200,1,48,30,1306235052
1147,9,Ticks_ISO_T2_8,201,5,42,127,1306343000
1147,9,Ticks_ISO_T2_8,202,1,48,31,1307091556
1147,9,Ticks_ISO_T2_8,203,5,42,127,1307142380
1147,9,Ticks_ISO_T2_8,204,1,48,20,1307924948
1147,9,Ticks_ISO_T2_8,205,5,42,127,1307943308
1147,9,Ticks_ISO_T2_8,206,1,48,18,1308652652
1147,9,Ticks_ISO_T2_8,207,5,42,127,1308742992
1147,9,Ticks_ISO_T2_8,208,1,48,24,1309470188
1147,9,Ticks_ISO_T2_8,209,5,42,127,1309542724
1147,9,Ticks_ISO_T2_8,210,1,48,29,1310263592
1147,9,Ticks_ISO_T2_8,211,5,42,127,1310342460
1147,9,Ticks_ISO_T2_8,212,1,48,20,1311062052
1147,9,Ticks_ISO_T2_8,213,5,42,127,1311143388
1147,9,Ticks_ISO_T2_8,214,1,48,29,1311874204
1147,9,Ticks_ISO_T2_8,215,5,42,127,1311943120
1147,9,Ticks_ISO_T2_8,216,1,48,25,1312647308
1147,9,Ticks_ISO_T2_8,217,5,42,127,1312742932
1147,9,Ticks_ISO_T2_8,218,5,42,127,1313542372
1147,9,Ticks_ISO_T2_8,219,1,48,19,1313543340
1147,9,Ticks_ISO_T2_8,220,1,48,15,1314252532
1147,9,Ticks_ISO_T2_8,221,5,42,127,1314343148
1147,9,Ticks_ISO_T2_8,222,1,48,17,1315123044
1147,9,Ticks_ISO_T2_8,223,5,42,127,1315142904
1147,9,Ticks_ISO_T2_8,224,1,48,24,1315885384
1147,9,Ticks_ISO_T2_8,225,5,42,127,1315942860
1147,9,Ticks_ISO_T2_8,226,1,48,25,1316711896
1147,9,Ticks_ISO_T2_8,227,5,42,127,1316742448
1147,9,Ticks_ISO_T2_8,228,1,48,23,1317480664
1147,9,Ticks_ISO_T2_8,229,5,42,127,1317543228
1147,9,Ticks_ISO_T2_8,230,1,48,23,1318209788
1147,9,Ticks_ISO_T2_8,231,5,42,127,1318342944
1147,9,Ticks_ISO_T2_8,232,1,48,32,1319050660
1147,9,Ticks_ISO_T2_8,233,5,42,127,1319142828
1147,9,Ticks_ISO_T2_8,0,9999,9999,9999,1223940216
1147,9,Ticks_ISO_T2_8,1,9999,9999,9999,1224740944
1147,9,Ticks_ISO_T2_8,2,9999,9999,9999,1225540700
1147,9,Ticks_ISO_T2_8,3,9999,9999,9999,1226340432
1147,9,Ticks_ISO_T2_8,4,9999,9999,9999,1227140168
1147,9,Ticks_ISO_T2_8,5,9999,9999,9999,1227940948
1147,9,Ticks_ISO_T2_8,6,9999,9999,9999,1228740676
1147,9,Ticks_ISO_T2_8,7,9999,9999,9999,1229540408
1147,9,Ticks_ISO_T2_8,8,9999,9999,9999,1230340140
1147,9,Ticks_ISO_T2_8,9,9999,9999,9999,1231140920
1147,9,Ticks_ISO_T2_8,10,9999,9999,9999,1231940680
1147,9,Ticks_ISO_T2_8,11,9999,9999,9999,1232740416
1147,9,Ticks_ISO_T2_8,12,9999,9999,9999,1233540148
1147,9,Ticks_ISO_T2_8,13,9999,9999,9999,1234340928
1147,9,Ticks_ISO_T2_8,14,9999,9999,9999,1235140660
1147,9,Ticks_ISO_T2_8,15,9999,9999,9999,1235940468
1147,9,Ticks_ISO_T2_8,16,9999,9999,9999,1236740204
1147,9,Ticks_ISO_T2_8,17,9999,9999,9999,1237540908
1147,9,Ticks_ISO_T2_8,18,9999,9999,9999,1238340676
1147,9,Ticks_ISO_T2_8,19,9999,9999,9999,1239140408
1147,9,Ticks_ISO_T2_8,20,9999,9999,9999,1239940212
1147,9,Ticks_ISO_T2_8,21,9999,9999,9999,1240740924
1147,9,Ticks_ISO_T2_8,22,9999,9999,9999,1241540708
1147,9,Ticks_ISO_T2_8,23,9999,9999,9999,1242340444
1147,9,Ticks_ISO_T2_8,24,9999,9999,9999,1243140192
1147,9,Ticks_ISO_T2_8,25,9999,9999,9999,1243940972
1147,9,Ticks_ISO_T2_8,26,9999,9999,9999,1244740656
1147,9,Ticks_ISO_T2_8,27,9999,9999,9999,1245540464
1147,9,Ticks_ISO_T2_8,28,9999,9999,9999,1246340196
1147,9,Ticks_ISO_T2_8,29,9999,9999,9999,1247140976
1147,9,Ticks_ISO_T2_8,30,9999,9999,9999,1247940712
1147,9,Ticks_ISO_T2_8,31,9999,9999,9999,1248740444
1147,9,Ticks_ISO_T2_8,32,9999,9999,9999,1249540176
1147,9,Ticks_ISO_T2_8,33,9999,9999,9999,1250340960
1147,9,Ticks_ISO_T2_8,34,9999,9999,9999,1251140716
1147,9,Ticks_ISO_T2_8,35,9999,9999,9999,1251940436
1147,9,Ticks_ISO_T2_8,36,9999,9999,9999,1252740184
1147,9,Ticks_ISO_T2_8,37,9999,9999,9999,1253540964
1147,9,Ticks_ISO_T2_8,38,9999,9999,9999,1254340696
1147,9,Ticks_ISO_T2_8,39,9999,9999,9999,1255140412
1147,9,Ticks_ISO_T2_8,40,9999,9999,9999,1255940168
1147,9,Ticks_ISO_T2_8,41,9999,9999,9999,1256740952
1147,9,Ticks_ISO_T2_8,42,9999,9999,9999,1257540724
1147,9,Ticks_ISO_T2_8,43,9999,9999,9999,1258340456
1147,9,Ticks_ISO_T2_8,44,9999,9999,9999,1259140192
1147,9,Ticks_ISO_T2_8,45,9999,9999,9999,1259940972
1147,9,Ticks_ISO_T2_8,46,9999,9999,9999,1260740704
1147,9,Ticks_ISO_T2_8,47,9999,9999,9999,1261540424
1147,9,Ticks_ISO_T2_8,48,9999,9999,9999,1262340172
1147,9,Ticks_ISO_T2_8,49,9999,9999,9999,1263140936
1147,9,Ticks_ISO_T2_8,50,9999,9999,9999,1263940696
1147,9,Ticks_ISO_T2_8,51,9999,9999,9999,1264740444
1147,9,Ticks_ISO_T2_8,52,9999,9999,9999,1265540176
1147,9,Ticks_ISO_T2_8,53,9999,9999,9999,1266340964
1147,9,Ticks_ISO_T2_8,54,9999,9999,9999,1267140692
1147,9,Ticks_ISO_T2_8,55,9999,9999,9999,1267940424
1147,9,Ticks_ISO_T2_8,56,9999,9999,9999,1268740164
1147,9,Ticks_ISO_T2_8,57,9999,9999,9999,1269540944
1147,9,Ticks_ISO_T2_8,58,9999,9999,9999,1270340716
1147,9,Ticks_ISO_T2_8,59,9999,9999,9999,1271140448
1147,9,Ticks_ISO_T2_8,60,9999,9999,9999,1271940184
1147,9,Ticks_ISO_T2_8,61,9999,9999,9999,1272740948
1147,9,Ticks_ISO_T2_8,62,9999,9999,9999,1273540684
1147,9,Ticks_ISO_T2_8,63,9999,9999,9999,1274340432
1147,9,Ticks_ISO_T2_8,64,9999,9999,9999,1275140164
1147,9,Ticks_ISO_T2_8,65,9999,9999,9999,1275940944
1147,9,Ticks_ISO_T2_8,66,9999,9999,9999,1276740712
1147,9,Ticks_ISO_T2_8,67,9999,9999,9999,1277540464
1147,9,Ticks_ISO_T2_8,68,9999,9999,9999,1278340200
1147,9,Ticks_ISO_T2_8,69,9999,9999,9999,1279140916
1147,9,Ticks_ISO_T2_8,70,9999,9999,9999,1279940712
1147,9,Ticks_ISO_T2_8,71,9999,9999,9999,1280740444
1147,9,Ticks_ISO_T2_8,72,9999,9999,9999,1281540192
1147,9,Ticks_ISO_T2_8,73,9999,9999,9999,1282340972
1147,9,Ticks_ISO_T2_8,74,9999,9999,9999,1283140656
1147,9,Ticks_ISO_T2_8,75,9999,9999,9999,1283940464
1147,9,Ticks_ISO_T2_8,76,9999,9999,9999,1284740208
1147,9,Ticks_ISO_T2_8,77,9999,9999,9999,1285540912
1147,9,Ticks_ISO_T2_8,78,9999,9999,9999,1286340716
1147,9,Ticks_ISO_T2_8,79,9999,9999,9999,1287140456
1147,9,Ticks_ISO_T2_8,80,9999,9999,9999,1287940192
1147,9,Ticks_ISO_T2_8,81,9999,9999,9999,1288740972
1147,9,Ticks_ISO_T2_8,82,9999,9999,9999,1289540652
1147,9,Ticks_ISO_T2_8,83,9999,9999,9999,1290340460
1147,9,Ticks_ISO_T2_8,84,9999,9999,9999,1291140144
1147,9,Ticks_ISO_T2_8,85,9999,9999,9999,1291940916
1147,9,Ticks_ISO_T2_8,86,9999,9999,9999,1292740724
1147,9,Ticks_ISO_T2_8,87,9999,9999,9999,1293540456
1147,9,Ticks_ISO_T2_8,88,9999,9999,9999,1294340192
1147,9,Ticks_ISO_T2_8,89,9999,9999,9999,1295140972
1147,9,Ticks_ISO_T2_8,90,9999,9999,9999,1295940656
1147,9,Ticks_ISO_T2_8,91,9999,9999,9999,1296740460
1147,9,Ticks_ISO_T2_8,92,9999,9999,9999,1297540196
1147,9,Ticks_ISO_T2_8,93,9999,9999,9999,1298340960
1147,9,Ticks_ISO_T2_8,94,9999,9999,9999,1299140708
1147,9,Ticks_ISO_T2_8,95,9999,9999,9999,1299940444
1147,9,Ticks_ISO_T2_8,96,9999,9999,9999,1300740184
1147,9,Ticks_ISO_T2_8,97,9999,9999,9999,1301540956
1147,9,Ticks_ISO_T2_8,98,9999,9999,9999,1302340716
1147,9,Ticks_ISO_T2_8,99,9999,9999,9999,1303140448
1147,9,Ticks_ISO_T2_8,100,9999,9999,9999,1303940184
1147,9,Ticks_ISO_T2_8,101,9999,9999,9999,1304740964
1147,9,Ticks_ISO_T2_8,102,9999,9999,9999,1305540680
1147,9,Ticks_ISO_T2_8,103,9999,9999,9999,1306340416
1147,9,Ticks_ISO_T2_8,104,9999,9999,9999,1307140164
1147,9,Ticks_ISO_T2_8,105,9999,9999,9999,1307940944
1147,9,Ticks_ISO_T2_8,106,9999,9999,9999,1308740704
1147,9,Ticks_ISO_T2_8,107,9999,9999,9999,1309540436
1147,9,Ticks_ISO_T2_8,108,9999,9999,9999,1310340172
1147,9,Ticks_ISO_T2_8,109,9999,9999,9999,1311140952
1147,9,Ticks_ISO_T2_8,110,9999,9999,9999,1311940684
1147,9,Ticks_ISO_T2_8,111,9999,9999,9999,1312740420
1147,9,Ticks_ISO_T2_8,112,9999,9999,9999,1313540160
1147,9,Ticks_ISO_T2_8,113,9999,9999,9999,1314340932
1147,9,Ticks_ISO_T2_8,114,9999,9999,9999,1315140688
1147,9,Ticks_ISO_T2_8,115,9999,9999,9999,1315940424
1147,9,Ticks_ISO_T2_8,116,9999,9999,9999,1316740160
1147,9,Ticks_ISO_T2_8,117,9999,9999,9999,1317540940
1147,9,Ticks_ISO_T2_8,118,9999,9999,9999,1318340656
1147,9,Ticks_ISO_T2_8,119,9999,9999,9999,1319140404
1148,10,Ticks_ISO_T2_5,0,5,42,127,1329716672
1148,10,Ticks_ISO_T2_5,1,5,42,127,1330217332
1148,10,Ticks_ISO_T2_5,2,5,42,127,1330717124
1148,10,Ticks_ISO_T2_5,3,1,48,25,1330787440
1148,10,Ticks_ISO_T2_5,4,5,42,127,1331216744
1148,10,Ticks_ISO_T2_5,5,1,48,27,1331249284
1148,10,Ticks_ISO_T2_5,6,5,42,127,1331716440
1148,10,Ticks_ISO_T2_5,7,1,48,18,1331761092
1148,10,Ticks_ISO_T2_5,8,5,42,127,1332217180
1148,10,Ticks_ISO_T2_5,9,1,48,21,1332220820
1148,10,Ticks_ISO_T2_5,10,5,42,127,1332717024
1148,10,Ticks_ISO_T2_5,11,1,48,16,1332747672
1148,10,Ticks_ISO_T2_5,12,5,42,127,1333216644
1148,10,Ticks_ISO_T2_5,13,1,48,19,1333260308
1148,10,Ticks_ISO_T2_5,14,5,42,127,1333717388
1148,10,Ticks_ISO_T2_5,15,1,48,24,1333738084
1148,10,Ticks_ISO_T2_5,16,5,42,127,1334217008
1148,10,Ticks_ISO_T2_5,17,1,48,19,1334223044
1148,10,Ticks_ISO_T2_5,18,1,48,20,1334639392
1148,10,Ticks_ISO_T2_5,19,5,42,127,1334716696
1148,10,Ticks_ISO_T2_5,20,5,42,127,1335216696
1148,10,Ticks_ISO_T2_5,21,1,48,17,1335243376
1148,10,Ticks_ISO_T2_5,22,5,42,127,1335717660
1148,10,Ticks_ISO_T2_5,23,1,48,20,1335757656
1148,10,Ticks_ISO_T2_5,24,1,48,17,1336196748
1148,10,Ticks_ISO_T2_5,25,5,42,127,1336216980
1148,10,Ticks_ISO_T2_5,26,5,42,127,1336716680
1148,10,Ticks_ISO_T2_5,27,1,48,21,1336717720
1148,10,Ticks_ISO_T2_5,28,1,48,17,1337208480
1148,10,Ticks_ISO_T2_5,29,5,42,127,1337217564
1148,10,Ticks_ISO_T2_5,30,5,42,127,1337717116
1148,10,Ticks_ISO_T2_5,31,1,48,13,1337750756
1148,10,Ticks_ISO_T2_5,32,5,42,127,1338216812
1148,10,Ticks_ISO_T2_5,33,1,48,19,1338224416
1148,10,Ticks_ISO_T2_5,34,5,42,127,1338716656
1148,10,Ticks_ISO_T2_5,35,1,48,17,1338718296
1148,10,Ticks_ISO_T2_5,36,1,48,19,1339160860
1148,10,Ticks_ISO_T2_5,37,5,42,127,1339217540
1148,10,Ticks_ISO_T2_5,38,5,42,127,1339716944
1148,10,Ticks_ISO_T2_5,39,1,48,21,1339755592
1148,10,Ticks_ISO_T2_5,40,5,42,127,1340216712
1148,10,Ticks_ISO_T2_5,41,1,48,18,1340266424
1148,10,Ticks_ISO_T2_5,42,5,42,127,1340717676
1148,10,Ticks_ISO_T2_5,43,1,48,17,1340720044
1148,10,Ticks_ISO_T2_5,44,1,48,17,1341184396
1148,10,Ticks_ISO_T2_5,45,5,42,127,1341217044
1148,10,Ticks_ISO_T2_5,46,1,48,20,1341696436
1148,10,Ticks_ISO_T2_5,47,5,42,127,1341716812
1148,10,Ticks_ISO_T2_5,48,1,48,22,1342187448
1148,10,Ticks_ISO_T2_5,49,5,42,127,1342216508
1148,10,Ticks_ISO_T2_5,50,5,42,127,1342717256
1148,10,Ticks_ISO_T2_5,51,1,48,21,1342725608
1148,10,Ticks_ISO_T2_5,52,1,48,19,1343205012
1148,10,Ticks_ISO_T2_5,53,5,42,127,1343216944
1148,10,Ticks_ISO_T2_5,54,1,48,20,1343680700
1148,10,Ticks_ISO_T2_5,55,5,42,127,1343716636
1148,10,Ticks_ISO_T2_5,56,1,48,19,1344169696
1148,10,Ticks_ISO_T2_5,57,5,42,127,1344216556
1148,10,Ticks_ISO_T2_5,58,1,48,21,1344676948
1148,10,Ticks_ISO_T2_5,59,5,42,127,1344717072
1148,10,Ticks_ISO_T2_5,60,1,48,18,1345108724
1148,10,Ticks_ISO_T2_5,61,5,42,127,1345216900
1148,10,Ticks_ISO_T2_5,62,1,48,25,1345713436
1148,10,Ticks_ISO_T2_5,63,5,42,127,1345716536
1148,10,Ticks_ISO_T2_5,64,5,42,127,1346217580
1148,10,Ticks_ISO_T2_5,65,1,48,16,1346250848
1148,10,Ticks_ISO_T2_5,66,1,48,20,1346678416
1148,10,Ticks_ISO_T2_5,67,5,42,127,1346716972
1148,10,Ticks_ISO_T2_5,68,1,48,15,1347160312
1148,10,Ticks_ISO_T2_5,69,5,42,127,1347216744
1148,10,Ticks_ISO_T2_5,70,1,48,20,1347654168
1148,10,Ticks_ISO_T2_5,71,5,42,127,1347716436
1148,10,Ticks_ISO_T2_5,72,1,48,16,1348183260
1148,10,Ticks_ISO_T2_5,73,5,42,127,1348217476
1148,10,Ticks_ISO_T2_5,74,1,48,18,1348691924
1148,10,Ticks_ISO_T2_5,75,5,42,127,1348716944
1148,10,Ticks_ISO_T2_5,76,1,48,21,1349214680
1148,10,Ticks_ISO_T2_5,77,5,42,127,1349216492
1148,10,Ticks_ISO_T2_5,78,5,42,127,1349717540
1148,10,Ticks_ISO_T2_5,79,1,48,20,1349729708
1148,10,Ticks_ISO_T2_5,80,1,48,16,1350200060
1148,10,Ticks_ISO_T2_5,81,5,42,127,1350217152
1148,10,Ticks_ISO_T2_5,82,1,48,19,1350706344
1148,10,Ticks_ISO_T2_5,83,5,42,127,1350716848
1148,10,Ticks_ISO_T2_5,84,5,42,127,1351216548
1148,10,Ticks_ISO_T2_5,85,1,48,23,1351236344
1148,10,Ticks_ISO_T2_5,86,1,48,19,1351687004
1148,10,Ticks_ISO_T2_5,87,5,42,127,1351717332
1148,10,Ticks_ISO_T2_5,88,1,48,21,1352196204
1148,10,Ticks_ISO_T2_5,89,5,42,127,1352216956
1148,10,Ticks_ISO_T2_5,90,1,48,17,1352664848
1148,10,Ticks_ISO_T2_5,91,5,42,127,1352716724
1148,10,Ticks_ISO_T2_5,92,1,48,28,1353195964
1148,10,Ticks_ISO_T2_5,93,5,42,127,1353217468
1148,10,Ticks_ISO_T2_5,94,5,42,127,1353717316
1148,10,Ticks_ISO_T2_5,95,1,48,15,1353723724
1148,10,Ticks_ISO_T2_5,96,1,48,16,1354176880
1148,10,Ticks_ISO_T2_5,97,5,42,127,1354216928
1148,10,Ticks_ISO_T2_5,98,1,48,19,1354694296
1148,10,Ticks_ISO_T2_5,99,5,42,127,1354716624
1148,10,Ticks_ISO_T2_5,100,1,48,15,1355126004
1148,10,Ticks_ISO_T2_5,101,5,42,127,1355217364
1148,10,Ticks_ISO_T2_5,102,1,48,17,1355701916
1148,10,Ticks_ISO_T2_5,103,5,42,127,1355717060
1148,10,Ticks_ISO_T2_5,104,1,48,16,1356190768
1148,10,Ticks_ISO_T2_5,105,5,42,127,1356216828
1148,10,Ticks_ISO_T2_5,106,1,48,17,1356635780
1148,10,Ticks_ISO_T2_5,107,5,42,127,1356717348
1148,10,Ticks_ISO_T2_5,108,5,42,127,1357217196
1148,10,Ticks_ISO_T2_5,109,1,48,18,1357248064
1148,10,Ticks_ISO_T2_5,110,5,42,127,1357716820
1148,10,Ticks_ISO_T2_5,111,1,48,17,1357774608
1148,10,Ticks_ISO_T2_5,112,1,48,18,1358207792
1148,10,Ticks_ISO_T2_5,113,5,42,127,1358216504
1148,10,Ticks_ISO_T2_5,114,1,48,16,1358692152
1148,10,Ticks_ISO_T2_5,115,5,42,127,1358717248
1148,10,Ticks_ISO_T2_5,116,1,48,18,1359212720
1148,10,Ticks_ISO_T2_5,117,5,42,127,1359216940
1148,10,Ticks_ISO_T2_5,118,1,48,14,1359694160
1148,10,Ticks_ISO_T2_5,119,5,42,127,1359716784
1148,10,Ticks_ISO_T2_5,120,1,48,17,1360189520
1148,10,Ticks_ISO_T2_5,121,5,42,127,1360216404
1148,10,Ticks_ISO_T2_5,122,1,48,16,1360660836
1148,10,Ticks_ISO_T2_5,123,5,42,127,1360717144
1148,10,Ticks_ISO_T2_5,124,1,48,19,1361200872
1148,10,Ticks_ISO_T2_5,125,5,42,127,1361217064
1148,10,Ticks_ISO_T2_5,126,1,48,15,1361712536
1148,10,Ticks_ISO_T2_5,127,5,42,127,1361716464
1148,10,Ticks_ISO_T2_5,128,5,42,127,1362217432
1148,10,Ticks_ISO_T2_5,129,1,48,18,1362229604
1148,10,Ticks_ISO_T2_5,130,5,42,127,1362717028
1148,10,Ticks_ISO_T2_5,131,1,48,21,1362739092
1148,10,Ticks_ISO_T2_5,132,5,42,127,1363216800
1148,10,Ticks_ISO_T2_5,133,5,42,127,1363716440
1148,10,Ticks_ISO_T2_5,134,1,48,21,1363764684
1148,10,Ticks_ISO_T2_5,135,1,48,18,1364186404
1148,10,Ticks_ISO_T2_5,136,5,42,127,1364217176
1148,10,Ticks_ISO_T2_5,137,1,48,17,1364687368
1148,10,Ticks_ISO_T2_5,138,5,42,127,1364716872
1148,10,Ticks_ISO_T2_5,139,1,48,18,1365206660
1148,10,Ticks_ISO_T2_5,140,5,42,127,1365216640
1148,10,Ticks_ISO_T2_5,141,5,42,127,1365717240
1148,10,Ticks_ISO_T2_5,142,1,48,13,1365736892
1148,10,Ticks_ISO_T2_5,143,5,42,127,1366217160
1148,10,Ticks_ISO_T2_5,144,1,48,18,1366232016
1148,10,Ticks_ISO_T2_5,145,5,42,127,1366716780
1148,10,Ticks_ISO_T2_5,146,1,48,20,1366741068
1148,10,Ticks_ISO_T2_5,147,1,48,18,1367184864
1148,10,Ticks_ISO_T2_5,148,5,42,127,1367216392
1148,10,Ticks_ISO_T2_5,149,5,42,127,1367717140
1148,10,Ticks_ISO_T2_5,150,1,48,25,1367737308
1148,10,Ticks_ISO_T2_5,151,1,48,20,1368215932
1148,10,Ticks_ISO_T2_5,152,5,42,127,1368217348
1148,10,Ticks_ISO_T2_5,153,5,42,127,1368716604
1148,10,Ticks_ISO_T2_5,154,1,48,22,1368743060
1148,10,Ticks_ISO_T2_5,155,5,42,127,1369217492
1148,10,Ticks_ISO_T2_5,156,5,42,127,1369717060
1148,10,Ticks_ISO_T2_5,157,1,48,20,1369743212
1148,10,Ticks_ISO_T2_5,158,5,42,127,1370216680
1148,10,Ticks_ISO_T2_5,159,1,48,18,1370220244
1148,10,Ticks_ISO_T2_5,160,5,42,127,1370716528
1148,10,Ticks_ISO_T2_5,161,1,48,23,1370726000
1148,10,Ticks_ISO_T2_5,162,5,42,127,1371217120
1148,10,Ticks_ISO_T2_5,163,1,48,24,1371224500
1148,10,Ticks_ISO_T2_5,164,5,42,127,1371716964
1148,10,Ticks_ISO_T2_5,165,1,48,19,1371727936
1148,10,Ticks_ISO_T2_5,166,1,48,19,1372211828
1148,10,Ticks_ISO_T2_5,167,5,42,127,1372216576
1148,10,Ticks_ISO_T2_5,168,5,42,127,1372717324
1148,10,Ticks_ISO_T2_5,169,1,48,15,1372720064
1148,10,Ticks_ISO_T2_5,170,1,48,18,1373177160
1148,10,Ticks_ISO_T2_5,171,5,42,127,1373217060
1148,10,Ticks_ISO_T2_5,172,1,48,22,1373713508
1148,10,Ticks_ISO_T2_5,173,5,42,127,1373716904
1148,10,Ticks_ISO_T2_5,174,1,48,23,1374158976
1148,10,Ticks_ISO_T2_5,175,5,42,127,1374216600
1148,10,Ticks_ISO_T2_5,176,1,48,13,1374717052
1148,10,Ticks_ISO_T2_5,177,5,42,127,1374718388
1148,10,Ticks_ISO_T2_5,178,5,42,127,1375217120
1148,10,Ticks_ISO_T2_5,179,5,42,127,1375716612
1148,10,Ticks_ISO_T2_5,180,1,48,19,1375755780
1148,10,Ticks_ISO_T2_5,181,5,42,127,1376216308
1148,10,Ticks_ISO_T2_5,182,1,48,19,1376242684
1148,10,Ticks_ISO_T2_5,183,5,42,127,1376717120
1148,10,Ticks_ISO_T2_5,184,1,48,19,1376731608
1148,10,Ticks_ISO_T2_5,185,1,48,19,1377201516
1148,10,Ticks_ISO_T2_5,186,5,42,127,1377217108
1148,10,Ticks_ISO_T2_5,187,1,48,21,1377673236
1148,10,Ticks_ISO_T2_5,188,5,42,127,1377716728
1148,10,Ticks_ISO_T2_5,189,5,42,127,1378217252
1148,10,Ticks_ISO_T2_5,190,1,48,21,1378233904
1148,10,Ticks_ISO_T2_5,191,5,42,127,1378717172
1148,10,Ticks_ISO_T2_5,192,1,48,15,1378718064
1148,10,Ticks_ISO_T2_5,193,5,42,127,1379216792
1148,10,Ticks_ISO_T2_5,194,1,48,17,1379225220
1148,10,Ticks_ISO_T2_5,195,1,48,18,1379696248
1148,10,Ticks_ISO_T2_5,196,5,42,127,1379716480
1148,10,Ticks_ISO_T2_5,197,5,42,127,1380217156
1148,10,Ticks_ISO_T2_5,198,1,48,19,1380218196
1148,10,Ticks_ISO_T2_5,199,5,42,127,1380717296
1148,10,Ticks_ISO_T2_5,200,1,48,18,1380718336
1148,10,Ticks_ISO_T2_5,201,1,48,20,1381195556
1148,10,Ticks_ISO_T2_5,202,5,42,127,1381216536
1148,10,Ticks_ISO_T2_5,203,1,48,19,1381660668
1148,10,Ticks_ISO_T2_5,204,5,42,127,1381717352
1148,10,Ticks_ISO_T2_5,205,1,48,15,1382200180
1148,10,Ticks_ISO_T2_5,206,5,42,127,1382217044
1148,10,Ticks_ISO_T2_5,207,5,42,127,1382717044
1148,10,Ticks_ISO_T2_5,208,5,42,127,1383216464
1148,10,Ticks_ISO_T2_5,209,1,48,25,1383642288
1148,10,Ticks_ISO_T2_5,210,5,42,127,1383717196
1148,10,Ticks_ISO_T2_5,211,1,48,19,1384152084
1148,10,Ticks_ISO_T2_5,212,5,42,127,1384217112
1148,10,Ticks_ISO_T2_5,213,1,48,16,1384673616
1148,10,Ticks_ISO_T2_5,214,5,42,127,1384716512
1148,10,Ticks_ISO_T2_5,215,1,48,17,1385186024
1148,10,Ticks_ISO_T2_5,216,5,42,127,1385217476
1148,10,Ticks_ISO_T2_5,217,1,48,19,1385699708
1148,10,Ticks_ISO_T2_5,218,5,42,127,1385717096
1148,10,Ticks_ISO_T2_5,219,5,42,127,1386217020
1148,10,Ticks_ISO_T2_5,220,1,48,22,1386222756
1148,10,Ticks_ISO_T2_5,221,5,42,127,1386716416
1148,10,Ticks_ISO_T2_5,222,1,48,17,1386726264
1148,10,Ticks_ISO_T2_5,223,1,48,23,1387187352
1148,10,Ticks_ISO_T2_5,224,5,42,127,1387217228
1148,10,Ticks_ISO_T2_5,225,5,42,127,1387717076
1148,10,Ticks_ISO_T2_5,226,1,48,23,1388200444
1148,10,Ticks_ISO_T2_5,227,5,42,127,1388216936
1148,10,Ticks_ISO_T2_5,228,5,42,127,1388717384
1148,10,Ticks_ISO_T2_5,229,1,48,19,1388741296
1148,10,Ticks_ISO_T2_5,230,1,48,21,1389141044
1148,10,Ticks_ISO_T2_5,231,5,42,127,1389217072
1148,10,Ticks_ISO_T2_5,232,1,48,22,1389673948
1148,10,Ticks_ISO_T2_5,233,5,42,127,1389716992
1148,10,Ticks_ISO_T2_5,234,5,42,127,1390216544
1148,10,Ticks_ISO_T2_5,235,1,48,19,1390221604
1148,10,Ticks_ISO_T2_5,236,1,48,23,1390713276
1148,10,Ticks_ISO_T2_5,237,5,42,127,1390717276
1148,10,Ticks_ISO_T2_5,238,1,48,21,1391212676
1148,10,Ticks_ISO_T2_5,239,5,42,127,1391216972
1148,10,Ticks_ISO_T2_5,240,5,42,127,1391716968
1148,10,Ticks_ISO_T2_5,241,1,48,21,1391727492
1148,10,Ticks_ISO_T2_5,242,1,48,20,1392187828
1148,10,Ticks_ISO_T2_5,243,5,42,127,1392216288
1148,10,Ticks_ISO_T2_5,244,5,42,127,1392717108
1148,10,Ticks_ISO_T2_5,245,1,48,20,1392741992
1148,10,Ticks_ISO_T2_5,246,5,42,127,1393216728
1148,10,Ticks_ISO_T2_5,247,1,48,16,1393253504
1148,10,Ticks_ISO_T2_5,248,5,42,127,1393716648
1148,10,Ticks_ISO_T2_5,249,1,48,13,1393736516
1148,10,Ticks_ISO_T2_5,250,5,42,127,1394217312
1148,10,Ticks_ISO_T2_5,251,1,48,24,1394628852
1148,10,Ticks_ISO_T2_5,0,9999,9999,9999,1329714232
1148,10,Ticks_ISO_T2_5,1,9999,9999,9999,1330214968
1148,10,Ticks_ISO_T2_5,2,9999,9999,9999,1330714684
1148,10,Ticks_ISO_T2_5,3,9999,9999,9999,1331214456
1148,10,Ticks_ISO_T2_5,4,9999,9999,9999,1331714148
1148,10,Ticks_ISO_T2_5,5,9999,9999,9999,1332214892
1148,10,Ticks_ISO_T2_5,6,9999,9999,9999,1332714584
1148,10,Ticks_ISO_T2_5,7,9999,9999,9999,1333214280
1148,10,Ticks_ISO_T2_5,8,9999,9999,9999,1333715024
1148,10,Ticks_ISO_T2_5,9,9999,9999,9999,1334214716
1148,10,Ticks_ISO_T2_5,10,9999,9999,9999,1334714480
1148,10,Ticks_ISO_T2_5,11,9999,9999,9999,1335214184
1148,10,Ticks_ISO_T2_5,12,9999,9999,9999,1335714924
1148,10,Ticks_ISO_T2_5,13,9999,9999,9999,1336214616
1148,10,Ticks_ISO_T2_5,14,9999,9999,9999,1336714316
1148,10,Ticks_ISO_T2_5,15,9999,9999,9999,1337215052
1148,10,Ticks_ISO_T2_5,16,9999,9999,9999,1337714752
1148,10,Ticks_ISO_T2_5,17,9999,9999,9999,1338214448
1148,10,Ticks_ISO_T2_5,18,9999,9999,9999,1338714220
1148,10,Ticks_ISO_T2_5,19,9999,9999,9999,1339214952
1148,10,Ticks_ISO_T2_5,20,9999,9999,9999,1339714652
1148,10,Ticks_ISO_T2_5,21,9999,9999,9999,1340214348
1148,10,Ticks_ISO_T2_5,22,9999,9999,9999,1340715092
1148,10,Ticks_ISO_T2_5,23,9999,9999,9999,1341214828
1148,10,Ticks_ISO_T2_5,24,9999,9999,9999,1341714524
1148,10,Ticks_ISO_T2_5,25,9999,9999,9999,1342214216
1148,10,Ticks_ISO_T2_5,26,9999,9999,9999,1342714964
1148,10,Ticks_ISO_T2_5,27,9999,9999,9999,1343214652
1148,10,Ticks_ISO_T2_5,28,9999,9999,9999,1343714420
1148,10,Ticks_ISO_T2_5,29,9999,9999,9999,1344214116
1148,10,Ticks_ISO_T2_5,30,9999,9999,9999,1344714856
1148,10,Ticks_ISO_T2_5,31,9999,9999,9999,1345214536
1148,10,Ticks_ISO_T2_5,32,9999,9999,9999,1345714248
1148,10,Ticks_ISO_T2_5,33,9999,9999,9999,1346214992
1148,10,Ticks_ISO_T2_5,34,9999,9999,9999,1346714684
1148,10,Ticks_ISO_T2_5,35,9999,9999,9999,1347214452
1148,10,Ticks_ISO_T2_5,36,9999,9999,9999,1347714148
1148,10,Ticks_ISO_T2_5,37,9999,9999,9999,1348214888
1148,10,Ticks_ISO_T2_5,38,9999,9999,9999,1348714580
1148,10,Ticks_ISO_T2_5,39,9999,9999,9999,1349214300
1148,10,Ticks_ISO_T2_5,40,9999,9999,9999,1349715024
1148,10,Ticks_ISO_T2_5,41,9999,9999,9999,1350214712
1148,10,Ticks_ISO_T2_5,42,9999,9999,9999,1350714484
1148,10,Ticks_ISO_T2_5,43,9999,9999,9999,1351214184
1148,10,Ticks_ISO_T2_5,44,9999,9999,9999,1351714896
1148,10,Ticks_ISO_T2_5,45,9999,9999,9999,1352214592
1148,10,Ticks_ISO_T2_5,46,9999,9999,9999,1352714360
1148,10,Ticks_ISO_T2_5,47,9999,9999,9999,1353215028
1148,10,Ticks_ISO_T2_5,48,9999,9999,9999,1353714804
1148,10,Ticks_ISO_T2_5,49,9999,9999,9999,1354214492
1148,10,Ticks_ISO_T2_5,50,9999,9999,9999,1354714188
1148,10,Ticks_ISO_T2_5,51,9999,9999,9999,1355214928
1148,10,Ticks_ISO_T2_5,52,9999,9999,9999,1355714620
1148,10,Ticks_ISO_T2_5,53,9999,9999,9999,1356214392
1148,10,Ticks_ISO_T2_5,54,9999,9999,9999,1356715056
1148,10,Ticks_ISO_T2_5,55,9999,9999,9999,1357214832
1148,10,Ticks_ISO_T2_5,56,9999,9999,9999,1357714528
1148,10,Ticks_ISO_T2_5,57,9999,9999,9999,1358214216
1148,10,Ticks_ISO_T2_5,58,9999,9999,9999,1358714956
1148,10,Ticks_ISO_T2_5,59,9999,9999,9999,1359214652
1148,10,Ticks_ISO_T2_5,60,9999,9999,9999,1359714420
1148,10,Ticks_ISO_T2_5,61,9999,9999,9999,1360214116
1148,10,Ticks_ISO_T2_5,62,9999,9999,9999,1360714856
1148,10,Ticks_ISO_T2_5,63,9999,9999,9999,1361214548
1148,10,Ticks_ISO_T2_5,64,9999,9999,9999,1361714248
1148,10,Ticks_ISO_T2_5,65,9999,9999,9999,1362214968
1148,10,Ticks_ISO_T2_5,66,9999,9999,9999,1362714740
1148,10,Ticks_ISO_T2_5,67,9999,9999,9999,1363214432
1148,10,Ticks_ISO_T2_5,68,9999,9999,9999,1363714148
1148,10,Ticks_ISO_T2_5,69,9999,9999,9999,1364214888
1148,10,Ticks_ISO_T2_5,70,9999,9999,9999,1364714580
1148,10,Ticks_ISO_T2_5,71,9999,9999,9999,1365214276
1148,10,Ticks_ISO_T2_5,72,9999,9999,9999,1365715024
1148,10,Ticks_ISO_T2_5,73,9999,9999,9999,1366214720
1148,10,Ticks_ISO_T2_5,74,9999,9999,9999,1366714488
1148,10,Ticks_ISO_T2_5,75,9999,9999,9999,1367214176
1148,10,Ticks_ISO_T2_5,76,9999,9999,9999,1367714924
1148,10,Ticks_ISO_T2_5,77,9999,9999,9999,1368214620
1148,10,Ticks_ISO_T2_5,78,9999,9999,9999,1368714312
1148,10,Ticks_ISO_T2_5,79,9999,9999,9999,1369215056
1148,10,Ticks_ISO_T2_5,80,9999,9999,9999,1369714772
1148,10,Ticks_ISO_T2_5,81,9999,9999,9999,1370214464
1148,10,Ticks_ISO_T2_5,82,9999,9999,9999,1370714160
1148,10,Ticks_ISO_T2_5,83,9999,9999,9999,1371214904
1148,10,Ticks_ISO_T2_5,84,9999,9999,9999,1371714672
1148,10,Ticks_ISO_T2_5,85,9999,9999,9999,1372214360
1148,10,Ticks_ISO_T2_5,86,9999,9999,9999,1372715108
1148,10,Ticks_ISO_T2_5,87,9999,9999,9999,1373214772
1148,10,Ticks_ISO_T2_5,88,9999,9999,9999,1373714540
1148,10,Ticks_ISO_T2_5,89,9999,9999,9999,1374214236
1148,10,Ticks_ISO_T2_5,90,9999,9999,9999,1374714984
1148,10,Ticks_ISO_T2_5,91,9999,9999,9999,1375214680
1148,10,Ticks_ISO_T2_5,92,9999,9999,9999,1375714396
1148,10,Ticks_ISO_T2_5,93,9999,9999,9999,1376214092
1148,10,Ticks_ISO_T2_5,94,9999,9999,9999,1376714832
1148,10,Ticks_ISO_T2_5,95,9999,9999,9999,1377214520
1148,10,Ticks_ISO_T2_5,96,9999,9999,9999,1377714288
1148,10,Ticks_ISO_T2_5,97,9999,9999,9999,1378214960
1148,10,Ticks_ISO_T2_5,98,9999,9999,9999,1378714732
1148,10,Ticks_ISO_T2_5,99,9999,9999,9999,1379214428
1148,10,Ticks_ISO_T2_5,100,9999,9999,9999,1379714116
1148,10,Ticks_ISO_T2_5,101,9999,9999,9999,1380214864
1148,10,Ticks_ISO_T2_5,102,9999,9999,9999,1380714560
1148,10,Ticks_ISO_T2_5,103,9999,9999,9999,1381214320
1148,10,Ticks_ISO_T2_5,104,9999,9999,9999,1381715064
1148,10,Ticks_ISO_T2_5,105,9999,9999,9999,1382214756
1148,10,Ticks_ISO_T2_5,106,9999,9999,9999,1382714456
1148,10,Ticks_ISO_T2_5,107,9999,9999,9999,1383214176
1148,10,Ticks_ISO_T2_5,108,9999,9999,9999,1383714904
1148,10,Ticks_ISO_T2_5,109,9999,9999,9999,1384214600
1148,10,Ticks_ISO_T2_5,110,9999,9999,9999,1384714296
1148,10,Ticks_ISO_T2_5,111,9999,9999,9999,1385215036
1148,10,Ticks_ISO_T2_5,112,9999,9999,9999,1385714808
1148,10,Ticks_ISO_T2_5,113,9999,9999,9999,1386214508
1148,10,Ticks_ISO_T2_5,114,9999,9999,9999,1386714200
1148,10,Ticks_ISO_T2_5,115,9999,9999,9999,1387214936
1148,10,Ticks_ISO_T2_5,116,9999,9999,9999,1387714636
1148,10,Ticks_ISO_T2_5,117,9999,9999,9999,1388214348
1148,10,Ticks_ISO_T2_5,118,9999,9999,9999,1388715096
1148,10,Ticks_ISO_T2_5,119,9999,9999,9999,1389214784
1148,10,Ticks_ISO_T2_5,120,9999,9999,9999,1389714552
1148,10,Ticks_ISO_T2_5,121,9999,9999,9999,1390214252
1148,10,Ticks_ISO_T2_5,122,9999,9999,9999,1390714988
1148,10,Ticks_ISO_T2_5,123,9999,9999,9999,1391214680
1148,10,Ticks_ISO_T2_5,124,9999,9999,9999,1391714380
1148,10,Ticks_ISO_T2_5,125,9999,9999,9999,1392214072
1148,10,Ticks_ISO_T2_5,126,9999,9999,9999,1392714820
1148,10,Ticks_ISO_T2_5,127,9999,9999,9999,1393214512
1148,10,Ticks_ISO_T2_5,128,9999,9999,9999,1393714284
1148,10,Ticks_ISO_T2_5,129,9999,9999,9999,1394215024
1149,20,Ticks_Linear_8,0,5,42,127,1404997944
1149,20,Ticks_Linear_8,1,5,42,127,1405818432
1149,20,Ticks_Linear_8,2,1,48,37,1405956432
1149,20,Ticks_Linear_8,3,1,48,21,1406616088
1149,20,Ticks_Linear_8,4,5,42,127,1406637544
1149,20,Ticks_Linear_8,5,1,48,26,1407426748
1149,20,Ticks_Linear_8,6,5,42,127,1407457788
1149,20,Ticks_Linear_8,7,1,48,19,1408251672
1149,20,Ticks_Linear_8,8,5,42,127,1408277856
1149,20,Ticks_Linear_8,9,1,48,22,1409023164
1149,20,Ticks_Linear_8,10,5,42,127,1409087936
1149,20,Ticks_Linear_8,11,1,48,23,1409890088
1149,20,Ticks_Linear_8,12,5,42,127,1409897996
1149,20,Ticks_Linear_8,13,1,48,22,1410633640
1149,20,Ticks_Linear_8,14,5,42,127,1410707976
1149,20,Ticks_Linear_8,15,1,48,21,1411477260
1149,20,Ticks_Linear_8,16,5,42,127,1411517736
1149,20,Ticks_Linear_8,17,5,42,127,1412327804
1149,20,Ticks_Linear_8,18,1,48,25,1412329816
1149,20,Ticks_Linear_8,19,5,42,127,1413127600
1149,20,Ticks_Linear_8,20,1,48,30,1413129240
1149,20,Ticks_Linear_8,21,5,42,127,1413928472
1149,20,Ticks_Linear_8,22,1,48,22,1413965804
1149,20,Ticks_Linear_8,23,1,48,26,1414720660
1149,20,Ticks_Linear_8,24,5,42,127,1414728040
1149,20,Ticks_Linear_8,25,1,48,22,1415493044
1149,20,Ticks_Linear_8,26,5,42,127,1415527764
1149,20,Ticks_Linear_8,27,1,48,29,1416268436
1149,20,Ticks_Linear_8,28,5,42,127,1416327488
1149,20,Ticks_Linear_8,29,1,48,26,1417073920
1149,20,Ticks_Linear_8,30,5,42,127,1417118000
1149,20,Ticks_Linear_8,31,5,42,127,1417907548
1149,20,Ticks_Linear_8,32,1,48,24,1417930888
1149,20,Ticks_Linear_8,33,1,48,29,1418616680
1149,20,Ticks_Linear_8,34,5,42,127,1418698200
1149,20,Ticks_Linear_8,35,1,48,26,1419452648
1149,20,Ticks_Linear_8,36,5,42,127,1419487740
1149,20,Ticks_Linear_8,37,1,48,26,1420273936
1149,20,Ticks_Linear_8,38,5,42,127,1420278176
1149,20,Ticks_Linear_8,39,1,48,23,1421024156
1149,20,Ticks_Linear_8,40,5,42,127,1421058356
1149,20,Ticks_Linear_8,41,5,42,127,1421847828
1149,20,Ticks_Linear_8,42,5,42,127,1422628548
1149,20,Ticks_Linear_8,43,1,48,24,1422634828
1149,20,Ticks_Linear_8,44,5,42,127,1423407480
1149,20,Ticks_Linear_8,45,1,48,32,1423412616
1149,20,Ticks_Linear_8,46,5,42,127,1424187808
1149,20,Ticks_Linear_8,47,1,48,33,1424238256
1149,20,Ticks_Linear_8,48,1,48,24,1424948468
1149,20,Ticks_Linear_8,49,5,42,127,1424957720
1149,20,Ticks_Linear_8,50,1,48,34,1425702280
1149,20,Ticks_Linear_8,51,5,42,127,1425727936
1149,20,Ticks_Linear_8,52,1,48,24,1425761372
1149,20,Ticks_Linear_8,53,5,42,127,1426497840
1149,20,Ticks_Linear_8,54,1,48,21,1426566712
1149,20,Ticks_Linear_8,55,1,48,26,1427264256
1149,20,Ticks_Linear_8,56,5,42,127,1427267900
1149,20,Ticks_Linear_8,57,1,48,20,1428037148
1149,20,Ticks_Linear_8,58,5,42,127,1428038488
1149,20,Ticks_Linear_8,59,1,48,20,1428714200
1149,20,Ticks_Linear_8,60,5,42,127,1428797776
1149,20,Ticks_Linear_8,61,5,42,127,1429557516
1149,20,Ticks_Linear_8,62,1,48,27,1429560488
1149,20,Ticks_Linear_8,63,5,42,127,1430317476
1149,20,Ticks_Linear_8,64,1,48,31,1430384768
1149,20,Ticks_Linear_8,65,5,42,127,1431078480
1149,20,Ticks_Linear_8,66,1,48,29,1431100476
1149,20,Ticks_Linear_8,67,5,42,127,1431838340
1149,20,Ticks_Linear_8,68,1,48,21,1431902960
1149,20,Ticks_Linear_8,69,5,42,127,1432587516
1149,20,Ticks_Linear_8,70,1,48,27,1432638140
1149,20,Ticks_Linear_8,71,5,42,127,1433338412
1149,20,Ticks_Linear_8,72,1,48,26,1433360100
1149,20,Ticks_Linear_8,73,5,42,127,1434087736
1149,20,Ticks_Linear_8,74,1,48,22,1434161720
1149,20,Ticks_Linear_8,75,5,42,127,1434838332
1149,20,Ticks_Linear_8,76,1,48,19,1434882560
1149,20,Ticks_Linear_8,77,5,42,127,1435588180
1149,20,Ticks_Linear_8,78,1,48,24,1435613536
1149,20,Ticks_Linear_8,79,5,42,127,1436328444
1149,20,Ticks_Linear_8,80,1,48,24,1436396192
1149,20,Ticks_Linear_8,81,5,42,127,1437067584
1149,20,Ticks_Linear_8,82,1,48,27,1437086280
1149,20,Ticks_Linear_8,83,1,48,24,1437774916
1149,20,Ticks_Linear_8,84,5,42,127,1437808064
1149,20,Ticks_Linear_8,85,5,42,127,1438548332
1149,20,Ticks_Linear_8,86,1,48,25,1438605136
1149,20,Ticks_Linear_8,87,1,48,26,1439284500
1149,20,Ticks_Linear_8,88,5,42,127,1439287768
1149,20,Ticks_Linear_8,89,5,42,127,1440017676
1149,20,Ticks_Linear_8,90,1,48,28,1440035536
1149,20,Ticks_Linear_8,91,5,42,127,1440747904
1149,20,Ticks_Linear_8,92,1,48,26,1440767428
1149,20,Ticks_Linear_8,93,5,42,127,1441478204
1149,20,Ticks_Linear_8,94,1,48,27,1441479540
1149,20,Ticks_Linear_8,95,5,42,127,1442208056
1149,20,Ticks_Linear_8,96,1,48,32,1442244344
1149,20,Ticks_Linear_8,97,1,48,26,1442914644
1149,20,Ticks_Linear_8,98,5,42,127,1442938356
1149,20,Ticks_Linear_8,99,5,42,127,1443658256
1149,20,Ticks_Linear_8,100,1,48,20,1443753704
1149,20,Ticks_Linear_8,101,1,48,19,1444376232
1149,20,Ticks_Linear_8,102,5,42,127,1444377896
1149,20,Ticks_Linear_8,103,5,42,127,1445097796
1149,20,Ticks_Linear_8,104,1,48,24,1445141500
1149,20,Ticks_Linear_8,105,1,48,20,1445780048
1149,20,Ticks_Linear_8,106,5,42,127,1445817684
1149,20,Ticks_Linear_8,107,1,48,18,1446506236
1149,20,Ticks_Linear_8,108,5,42,127,1446537580
1149,20,Ticks_Linear_8,109,1,48,20,1447216624
1149,20,Ticks_Linear_8,110,5,42,127,1447248188
1149,20,Ticks_Linear_8,111,5,42,127,1447958100
1149,20,Ticks_Linear_8,112,1,48,17,1447962264
1149,20,Ticks_Linear_8,113,5,42,127,1448667508
1149,20,Ticks_Linear_8,114,1,48,18,1448706652
1149,20,Ticks_Linear_8,115,5,42,127,1449378116
1149,20,Ticks_Linear_8,116,1,48,19,1449403920
1149,20,Ticks_Linear_8,117,1,48,21,1450037156
1149,20,Ticks_Linear_8,118,5,42,127,1450087820
1149,20,Ticks_Linear_8,119,5,42,127,1450788152
1149,20,Ticks_Linear_8,120,1,48,17,1450826772
1149,20,Ticks_Linear_8,121,5,42,127,1451487500
1149,20,Ticks_Linear_8,122,1,48,18,1451556224
1149,20,Ticks_Linear_8,123,5,42,127,1452188120
1149,20,Ticks_Linear_8,124,1,48,18,1452197388
1149,20,Ticks_Linear_8,125,5,42,127,1452888396
1149,20,Ticks_Linear_8,126,1,48,17,1452913448
1149,20,Ticks_Linear_8,127,1,48,18,1453524112
1149,20,Ticks_Linear_8,128,5,42,127,1453598072
1149,20,Ticks_Linear_8,129,5,42,127,1454288392
1149,20,Ticks_Linear_8,130,1,48,19,1454295412
1149,20,Ticks_Linear_8,131,1,48,22,1454946760
1149,20,Ticks_Linear_8,132,5,42,127,1454978324
1149,20,Ticks_Linear_8,133,5,42,127,1455678076
1149,20,Ticks_Linear_8,134,1,48,21,1455747332
1149,20,Ticks_Linear_8,135,5,42,127,1456368144
1149,20,Ticks_Linear_8,136,1,48,14,1456382640
1149,20,Ticks_Linear_8,137,5,42,127,1457058156
1149,20,Ticks_Linear_8,138,1,48,20,1457065312
1149,20,Ticks_Linear_8,139,5,42,127,1457738064
1149,20,Ticks_Linear_8,140,1,48,22,1457769940
1149,20,Ticks_Linear_8,141,1,48,23,1458373552
1149,20,Ticks_Linear_8,142,5,42,127,1458418008
1149,20,Ticks_Linear_8,143,5,42,127,1459097844
1149,20,Ticks_Linear_8,144,1,48,20,1459155472
1149,20,Ticks_Linear_8,145,5,42,127,1459777972
1149,20,Ticks_Linear_8,146,1,48,16,1459790152
1149,20,Ticks_Linear_8,147,5,42,127,1460457924
1149,20,Ticks_Linear_8,148,1,48,26,1460492420
1149,20,Ticks_Linear_8,149,5,42,127,1461127572
1149,20,Ticks_Linear_8,150,1,48,17,1461250136
1149,20,Ticks_Linear_8,151,5,42,127,1461798260
1149,20,Ticks_Linear_8,152,1,48,23,1461823092
1149,20,Ticks_Linear_8,153,5,42,127,1462467956
1149,20,Ticks_Linear_8,154,1,48,28,1462574660
1149,20,Ticks_Linear_8,155,5,42,127,1463137896
1149,20,Ticks_Linear_8,156,1,48,25,1463138864
1149,20,Ticks_Linear_8,157,5,42,127,1463808268
1149,20,Ticks_Linear_8,158,1,48,18,1463839772
1149,20,Ticks_Linear_8,159,5,42,127,1464467876
1149,20,Ticks_Linear_8,160,1,48,26,1464567228
1149,20,Ticks_Linear_8,161,5,42,127,1465128232
1149,20,Ticks_Linear_8,162,1,48,16,1465193200
1149,20,Ticks_Linear_8,163,5,42,127,1465787744
1149,20,Ticks_Linear_8,164,5,42,127,1466448272
1149,20,Ticks_Linear_8,165,1,48,19,1466463296
1149,20,Ticks_Linear_8,166,1,48,22,1467089164
1149,20,Ticks_Linear_8,167,5,42,127,1467107848
1149,20,Ticks_Linear_8,168,1,48,19,1467749220
1149,20,Ticks_Linear_8,169,5,42,127,1467758024
1149,20,Ticks_Linear_8,170,5,42,127,1468408104
1149,20,Ticks_Linear_8,171,1,48,26,1468432336
1149,20,Ticks_Linear_8,172,5,42,127,1469058428
1149,20,Ticks_Linear_8,173,1,48,24,1469084380
1149,20,Ticks_Linear_8,174,5,42,127,1469718012
1149,20,Ticks_Linear_8,175,1,48,19,1469806456
1149,20,Ticks_Linear_8,176,5,42,127,1470368112
1149,20,Ticks_Linear_8,177,1,48,15,1470390480
1149,20,Ticks_Linear_8,178,5,42,127,1471008224
1149,20,Ticks_Linear_8,179,1,48,21,1471041320
1149,20,Ticks_Linear_8,180,5,42,127,1471647992
1149,20,Ticks_Linear_8,181,5,42,127,1472288052
1149,20,Ticks_Linear_8,182,1,48,13,1472376048
1149,20,Ticks_Linear_8,183,5,42,127,1472928116
1149,20,Ticks_Linear_8,184,1,48,20,1472988452
1149,20,Ticks_Linear_8,185,5,42,127,1473568080
1149,20,Ticks_Linear_8,186,1,48,18,1473593536
1149,20,Ticks_Linear_8,187,1,48,21,1474181432
1149,20,Ticks_Linear_8,188,5,42,127,1474197952
1149,20,Ticks_Linear_8,189,5,42,127,1474827664
1149,20,Ticks_Linear_8,190,1,48,16,1474854244
1149,20,Ticks_Linear_8,191,5,42,127,1475458516
1149,20,Ticks_Linear_8,192,1,48,19,1475468976
1149,20,Ticks_Linear_8,193,1,48,19,1476083448
1149,20,Ticks_Linear_8,194,5,42,127,1476098620
1149,20,Ticks_Linear_8,195,1,48,21,1476689516
1149,20,Ticks_Linear_8,196,5,42,127,1476738684
1149,20,Ticks_Linear_8,197,5,42,127,1477368248
1149,20,Ticks_Linear_8,198,1,48,16,1477392560
1149,20,Ticks_Linear_8,199,5,42,127,1477987572
1149,20,Ticks_Linear_8,200,1,48,17,1478000276
1149,20,Ticks_Linear_8,201,5,42,127,1478608212
1149,20,Ticks_Linear_8,202,1,48,16,1478615828
1149,20,Ticks_Linear_8,203,1,48,21,1479188444
1149,20,Ticks_Linear_8,204,5,42,127,1479227680
1149,20,Ticks_Linear_8,205,5,42,127,1479848176
1149,20,Ticks_Linear_8,206,1,48,19,1479854956
1149,20,Ticks_Linear_8,207,5,42,127,1480457588
1149,20,Ticks_Linear_8,208,1,48,19,1480466852
1149,20,Ticks_Linear_8,209,5,42,127,1481067772
1149,20,Ticks_Linear_8,210,1,48,20,1481080476
1149,20,Ticks_Linear_8,211,1,48,20,1481647032
1149,20,Ticks_Linear_8,212,5,42,127,1481678148
1149,20,Ticks_Linear_8,213,1,48,24,1482274776
1149,20,Ticks_Linear_8,214,5,42,127,1482287708
1149,20,Ticks_Linear_8,215,1,48,20,1482853112
1149,20,Ticks_Linear_8,216,5,42,127,1482897868
1149,20,Ticks_Linear_8,217,1,48,19,1483473604
1149,20,Ticks_Linear_8,218,5,42,127,1483497840
1149,20,Ticks_Linear_8,219,1,48,21,1484070240
1149,20,Ticks_Linear_8,220,5,42,127,1484097988
1149,20,Ticks_Linear_8,221,1,48,20,1484679124
1149,20,Ticks_Linear_8,222,5,42,127,1484698036
1149,20,Ticks_Linear_8,223,1,48,15,1485283060
1149,20,Ticks_Linear_8,224,5,42,127,1485298012
1149,20,Ticks_Linear_8,225,1,48,14,1485858332
1149,20,Ticks_Linear_8,226,5,42,127,1485898012
1149,20,Ticks_Linear_8,227,5,42,127,1486487808
1149,20,Ticks_Linear_8,228,1,48,18,1486505668
1149,20,Ticks_Linear_8,229,1,48,15,1487066768
1149,20,Ticks_Linear_8,230,5,42,127,1487077812
1149,20,Ticks_Linear_8,231,1,48,21,1487663464
1149,20,Ticks_Linear_8,232,5,42,127,1487667704
1149,20,Ticks_Linear_8,233,5,42,127,1488258620
1149,20,Ticks_Linear_8,234,1,48,15,1488262416
1149,20,Ticks_Linear_8,235,1,48,20,1488831064
1149,20,Ticks_Linear_8,236,5,42,127,1488857620
1149,20,Ticks_Linear_8,237,5,42,127,1489438056
1149,20,Ticks_Linear_8,238,1,48,24,1489487408
1149,20,Ticks_Linear_8,239,5,42,127,1490017536
1149,20,Ticks_Linear_8,240,1,48,22,1490065664
1149,20,Ticks_Linear_8,241,5,42,127,1490598484
1149,20,Ticks_Linear_8,242,1,48,19,1490637184
1149,20,Ticks_Linear_8,243,5,42,127,1491177868
1149,20,Ticks_Linear_8,244,1,48,19,1491284352
1149,20,Ticks_Linear_8,245,5,42,127,1491757572
1149,20,Ticks_Linear_8,246,1,48,20,1491777096
1149,20,Ticks_Linear_8,247,1,48,20,1492316240
1149,20,Ticks_Linear_8,248,5,42,127,1492327660
1149,20,Ticks_Linear_8,249,1,48,18,1492885572
1149,20,Ticks_Linear_8,250,5,42,127,1492898052
1149,20,Ticks_Linear_8,251,1,48,23,1493443836
1149,20,Ticks_Linear_8,252,5,42,127,1493467472
1149,20,Ticks_Linear_8,253,5,42,127,1494037872
1149,20,Ticks_Linear_8,254,1,48,19,1494040620
1149,20,Ticks_Linear_8,255,1,48,24,1494563980
1149,20,Ticks_Linear_8,256,5,42,127,1494608356
1149,20,Ticks_Linear_8,257,1,48,21,1495160964
1149,20,Ticks_Linear_8,258,5,42,127,1495168344
1149,20,Ticks_Linear_8,259,5,42,127,1495727436
1149,20,Ticks_Linear_8,260,1,48,26,1495744476
1149,20,Ticks_Linear_8,261,1,48,26,1496285572
1149,20,Ticks_Linear_8,262,5,42,127,1496287540
1149,20,Ticks_Linear_8,263,5,42,127,1496847608
1149,20,Ticks_Linear_8,264,1,48,23,1496876592
1149,20,Ticks_Linear_8,265,5,42,127,1497407840
1149,20,Ticks_Linear_8,266,1,48,21,1497411552
1149,20,Ticks_Linear_8,267,5,42,127,1497957640
1149,20,Ticks_Linear_8,268,1,48,19,1497958604
1149,20,Ticks_Linear_8,269,5,42,127,1498507588
1149,20,Ticks_Linear_8,270,1,48,24,1498600268
1149,20,Ticks_Linear_8,271,5,42,127,1499057460
1149,20,Ticks_Linear_8,272,5,42,127,1499608480
1149,20,Ticks_Linear_8,273,1,48,16,1499653160
1149,20,Ticks_Linear_8,274,1,48,25,1500139136
1149,20,Ticks_Linear_8,275,5,42,127,1500167412
1149,20,Ticks_Linear_8,276,5,42,127,1500708404
1149,20,Ticks_Linear_8,277,1,48,17,1500725220
1149,20,Ticks_Linear_8,278,5,42,127,1501247796
1149,20,Ticks_Linear_8,279,1,48,16,1501271732
1149,20,Ticks_Linear_8,280,1,48,20,1501752760
1149,20,Ticks_Linear_8,281,5,42,127,1501787480
1149,20,Ticks_Linear_8,282,1,48,28,1502264212
1149,20,Ticks_Linear_8,283,5,42,127,1502328292
1149,20,Ticks_Linear_8,284,1,48,26,1502730044
1149,20,Ticks_Linear_8,285,5,42,127,1502867816
1149,20,Ticks_Linear_8,286,1,48,23,1503337616
1149,20,Ticks_Linear_8,287,5,42,127,1503398236
1149,20,Ticks_Linear_8,288,5,42,127,1503927672
1149,20,Ticks_Linear_8,289,1,48,19,1503951012
1149,20,Ticks_Linear_8,290,5,42,127,1504458300
1149,20,Ticks_Linear_8,291,1,48,20,1504465680
1149,20,Ticks_Linear_8,292,1,48,23,1504981240
1149,20,Ticks_Linear_8,293,5,42,127,1504987500
1149,20,Ticks_Linear_8,294,1,48,18,1505513884
1149,20,Ticks_Linear_8,295,5,42,127,1505517976
1149,20,Ticks_Linear_8,296,5,42,127,1506038352
1149,20,Ticks_Linear_8,297,1,48,17,1506089280
1149,20,Ticks_Linear_8,298,1,48,20,1506539500
1149,20,Ticks_Linear_8,299,5,42,127,1506558268
1149,20,Ticks_Linear_8,300,5,42,127,1507077520
1149,20,Ticks_Linear_8,301,1,48,18,1507078560
1149,20,Ticks_Linear_8,302,1,48,23,1507594236
1149,20,Ticks_Linear_8,303,5,42,127,1507597808
1149,20,Ticks_Linear_8,304,1,48,22,1508100084
1149,20,Ticks_Linear_8,305,5,42,127,1508117804
1149,20,Ticks_Linear_8,306,1,48,17,1508592968
1149,20,Ticks_Linear_8,307,5,42,127,1508627912
1149,20,Ticks_Linear_8,308,5,42,127,1509137652
1149,20,Ticks_Linear_8,309,1,48,18,1509169480
1149,20,Ticks_Linear_8,310,1,48,17,1509647688
1149,20,Ticks_Linear_8,311,5,42,127,1509649024
1149,20,Ticks_Linear_8,312,1,48,21,1510138500
1149,20,Ticks_Linear_8,313,5,42,127,1510157716
1149,20,Ticks_Linear_8,314,1,48,20,1510625476
1149,20,Ticks_Linear_8,315,5,42,127,1510667528
1149,20,Ticks_Linear_8,316,5,42,127,1511168356
1149,20,Ticks_Linear_8,317,1,48,17,1511198140
1149,20,Ticks_Linear_8,318,5,42,127,1511668280
1149,20,Ticks_Linear_8,319,1,48,18,1511676124
1149,20,Ticks_Linear_8,320,1,48,17,1512121500
1149,20,Ticks_Linear_8,321,5,42,127,1512167900
1149,20,Ticks_Linear_8,322,5,42,127,1512667456
1149,20,Ticks_Linear_8,323,1,48,16,1512706748
1149,20,Ticks_Linear_8,324,5,42,127,1513168204
1149,20,Ticks_Linear_8,325,1,48,18,1513215648
1149,20,Ticks_Linear_8,326,5,42,127,1513657720
1149,20,Ticks_Linear_8,327,1,48,21,1513662856
1149,20,Ticks_Linear_8,328,5,42,127,1514148280
1149,20,Ticks_Linear_8,329,1,48,24,1514186976
1149,20,Ticks_Linear_8,330,5,42,127,1514637648
1149,20,Ticks_Linear_8,331,1,48,16,1514654164
1149,20,Ticks_Linear_8,332,1,48,19,1515103592
1149,20,Ticks_Linear_8,333,5,42,127,1515128276
1149,20,Ticks_Linear_8,334,1,48,20,1515589820
1149,20,Ticks_Linear_8,335,5,42,127,1515617568
1149,20,Ticks_Linear_8,0,9999,9999,9999,1404995644
1149,20,Ticks_Linear_8,1,9999,9999,9999,1405815908
1149,20,Ticks_Linear_8,2,9999,9999,9999,1406635096
1149,20,Ticks_Linear_8,3,9999,9999,9999,1407455336
1149,20,Ticks_Linear_8,4,9999,9999,9999,1408275556
1149,20,Ticks_Linear_8,5,9999,9999,9999,1409085560
1149,20,Ticks_Linear_8,6,9999,9999,9999,1409895544
1149,20,Ticks_Linear_8,7,9999,9999,9999,1410705528
1149,20,Ticks_Linear_8,8,9999,9999,9999,1411515512
1149,20,Ticks_Linear_8,9,9999,9999,9999,1412325500
1149,20,Ticks_Linear_8,10,9999,9999,9999,1413125224
1149,20,Ticks_Linear_8,11,9999,9999,9999,1413925948
1149,20,Ticks_Linear_8,12,9999,9999,9999,1414725740
1149,20,Ticks_Linear_8,13,9999,9999,9999,1415525464
1149,20,Ticks_Linear_8,14,9999,9999,9999,1416325188
1149,20,Ticks_Linear_8,15,9999,9999,9999,1417115776
1149,20,Ticks_Linear_8,16,9999,9999,9999,1417905244
1149,20,Ticks_Linear_8,17,9999,9999,9999,1418695748
1149,20,Ticks_Linear_8,18,9999,9999,9999,1419485288
1149,20,Ticks_Linear_8,19,9999,9999,9999,1420275800
1149,20,Ticks_Linear_8,20,9999,9999,9999,1421056060
1149,20,Ticks_Linear_8,21,9999,9999,9999,1421845600
1149,20,Ticks_Linear_8,22,9999,9999,9999,1422625876
1149,20,Ticks_Linear_8,23,9999,9999,9999,1423405180
1149,20,Ticks_Linear_8,24,9999,9999,9999,1424185432
1149,20,Ticks_Linear_8,25,9999,9999,9999,1424955492
1149,20,Ticks_Linear_8,26,9999,9999,9999,1425725560
1149,20,Ticks_Linear_8,27,9999,9999,9999,1426495612
1149,20,Ticks_Linear_8,28,9999,9999,9999,1427265600
1149,20,Ticks_Linear_8,29,9999,9999,9999,1428035672
1149,20,Ticks_Linear_8,30,9999,9999,9999,1428795476
1149,20,Ticks_Linear_8,31,9999,9999,9999,1429555292
1149,20,Ticks_Linear_8,32,9999,9999,9999,1430315100
1149,20,Ticks_Linear_8,33,9999,9999,9999,1431075928
1149,20,Ticks_Linear_8,34,9999,9999,9999,1431835740
1149,20,Ticks_Linear_8,35,9999,9999,9999,1432585288
1149,20,Ticks_Linear_8,36,9999,9999,9999,1433335884
1149,20,Ticks_Linear_8,37,9999,9999,9999,1434085436
1149,20,Ticks_Linear_8,38,9999,9999,9999,1434836032
1149,20,Ticks_Linear_8,39,9999,9999,9999,1435585656
1149,20,Ticks_Linear_8,40,9999,9999,9999,1436325992
1149,20,Ticks_Linear_8,41,9999,9999,9999,1437065284
1149,20,Ticks_Linear_8,42,9999,9999,9999,1437805688
1149,20,Ticks_Linear_8,43,9999,9999,9999,1438546032
1149,20,Ticks_Linear_8,44,9999,9999,9999,1439285316
1149,20,Ticks_Linear_8,45,9999,9999,9999,1440015452
1149,20,Ticks_Linear_8,46,9999,9999,9999,1440745528
1149,20,Ticks_Linear_8,47,9999,9999,9999,1441475680
1149,20,Ticks_Linear_8,48,9999,9999,9999,1442205756
1149,20,Ticks_Linear_8,49,9999,9999,9999,1442935904
1149,20,Ticks_Linear_8,50,9999,9999,9999,1443655804
1149,20,Ticks_Linear_8,51,9999,9999,9999,1444375608
1149,20,Ticks_Linear_8,52,9999,9999,9999,1445095496
1149,20,Ticks_Linear_8,53,9999,9999,9999,1445815384
1149,20,Ticks_Linear_8,54,9999,9999,9999,1446535276
1149,20,Ticks_Linear_8,55,9999,9999,9999,1447245884
1149,20,Ticks_Linear_8,56,9999,9999,9999,1447955576
1149,20,Ticks_Linear_8,57,9999,9999,9999,1448665208
1149,20,Ticks_Linear_8,58,9999,9999,9999,1449375816
1149,20,Ticks_Linear_8,59,9999,9999,9999,1450085444
1149,20,Ticks_Linear_8,60,9999,9999,9999,1450785848
1149,20,Ticks_Linear_8,61,9999,9999,9999,1451485272
1149,20,Ticks_Linear_8,62,9999,9999,9999,1452185672
1149,20,Ticks_Linear_8,63,9999,9999,9999,1452886096
1149,20,Ticks_Linear_8,64,9999,9999,9999,1453595772
1149,20,Ticks_Linear_8,65,9999,9999,9999,1454285940
1149,20,Ticks_Linear_8,66,9999,9999,9999,1454976100
1149,20,Ticks_Linear_8,67,9999,9999,9999,1455675480
1149,20,Ticks_Linear_8,68,9999,9999,9999,1456365692
1149,20,Ticks_Linear_8,69,9999,9999,9999,1457055856
1149,20,Ticks_Linear_8,70,9999,9999,9999,1457735760
1149,20,Ticks_Linear_8,71,9999,9999,9999,1458415708
1149,20,Ticks_Linear_8,72,9999,9999,9999,1459095616
1149,20,Ticks_Linear_8,73,9999,9999,9999,1459775596
1149,20,Ticks_Linear_8,74,9999,9999,9999,1460455548
1149,20,Ticks_Linear_8,75,9999,9999,9999,1461125196
1149,20,Ticks_Linear_8,76,9999,9999,9999,1461795960
1149,20,Ticks_Linear_8,77,9999,9999,9999,1462465656
1149,20,Ticks_Linear_8,78,9999,9999,9999,1463135296
1149,20,Ticks_Linear_8,79,9999,9999,9999,1463806040
1149,20,Ticks_Linear_8,80,9999,9999,9999,1464465500
1149,20,Ticks_Linear_8,81,9999,9999,9999,1465126004
1149,20,Ticks_Linear_8,82,9999,9999,9999,1465785440
1149,20,Ticks_Linear_8,83,9999,9999,9999,1466445896
1149,20,Ticks_Linear_8,84,9999,9999,9999,1467105400
1149,20,Ticks_Linear_8,85,9999,9999,9999,1467755576
1149,20,Ticks_Linear_8,86,9999,9999,9999,1468405880
1149,20,Ticks_Linear_8,87,9999,9999,9999,1469056128
1149,20,Ticks_Linear_8,88,9999,9999,9999,1469715564
1149,20,Ticks_Linear_8,89,9999,9999,9999,1470365812
1149,20,Ticks_Linear_8,90,9999,9999,9999,1471005776
1149,20,Ticks_Linear_8,91,9999,9999,9999,1471645764
1149,20,Ticks_Linear_8,92,9999,9999,9999,1472285752
1149,20,Ticks_Linear_8,93,9999,9999,9999,1472925816
1149,20,Ticks_Linear_8,94,9999,9999,9999,1473565776
1149,20,Ticks_Linear_8,95,9999,9999,9999,1474195576
1149,20,Ticks_Linear_8,96,9999,9999,9999,1474825288
1149,20,Ticks_Linear_8,97,9999,9999,9999,1475456068
1149,20,Ticks_Linear_8,98,9999,9999,9999,1476096100
1149,20,Ticks_Linear_8,99,9999,9999,9999,1476736088
1149,20,Ticks_Linear_8,100,9999,9999,9999,1477365872
1149,20,Ticks_Linear_8,101,9999,9999,9999,1477985344
1149,20,Ticks_Linear_8,102,9999,9999,9999,1478605912
1149,20,Ticks_Linear_8,103,9999,9999,9999,1479225452
1149,20,Ticks_Linear_8,104,9999,9999,9999,1479845948
1149,20,Ticks_Linear_8,105,9999,9999,9999,1480455284
1149,20,Ticks_Linear_8,106,9999,9999,9999,1481065544
1149,20,Ticks_Linear_8,107,9999,9999,9999,1481675848
1149,20,Ticks_Linear_8,108,9999,9999,9999,1482285184
1149,20,Ticks_Linear_8,109,9999,9999,9999,1482895416
1149,20,Ticks_Linear_8,110,9999,9999,9999,1483495540
1149,20,Ticks_Linear_8,111,9999,9999,9999,1484095612
1149,20,Ticks_Linear_8,112,9999,9999,9999,1484695660
1149,20,Ticks_Linear_8,113,9999,9999,9999,1485295712
1149,20,Ticks_Linear_8,114,9999,9999,9999,1485895784
1149,20,Ticks_Linear_8,115,9999,9999,9999,1486485580
1149,20,Ticks_Linear_8,116,9999,9999,9999,1487075440
1149,20,Ticks_Linear_8,117,9999,9999,9999,1487665252
1149,20,Ticks_Linear_8,118,9999,9999,9999,1488256100
1149,20,Ticks_Linear_8,119,9999,9999,9999,1488855096
1149,20,Ticks_Linear_8,120,9999,9999,9999,1489435752
1149,20,Ticks_Linear_8,121,9999,9999,9999,1490015308
1149,20,Ticks_Linear_8,122,9999,9999,9999,1490595960
1149,20,Ticks_Linear_8,123,9999,9999,9999,1491175492
1149,20,Ticks_Linear_8,124,9999,9999,9999,1491755120
1149,20,Ticks_Linear_8,125,9999,9999,9999,1492325436
1149,20,Ticks_Linear_8,126,9999,9999,9999,1492895828
1149,20,Ticks_Linear_8,127,9999,9999,9999,1493465172
1149,20,Ticks_Linear_8,128,9999,9999,9999,1494035572
1149,20,Ticks_Linear_8,129,9999,9999,9999,1494605908
1149,20,Ticks_Linear_8,130,9999,9999,9999,1495166040
1149,20,Ticks_Linear_8,131,9999,9999,9999,1495725136
1149,20,Ticks_Linear_8,132,9999,9999,9999,1496285276
1149,20,Ticks_Linear_8,133,9999,9999,9999,1496845380
1149,20,Ticks_Linear_8,134,9999,9999,9999,1497405536
1149,20,Ticks_Linear_8,135,9999,9999,9999,1497955412
1149,20,Ticks_Linear_8,136,9999,9999,9999,1498505288
1149,20,Ticks_Linear_8,137,9999,9999,9999,1499055160
1149,20,Ticks_Linear_8,138,9999,9999,9999,1499606104
1149,20,Ticks_Linear_8,139,9999,9999,9999,1500165184
1149,20,Ticks_Linear_8,140,9999,9999,9999,1500705880
1149,20,Ticks_Linear_8,141,9999,9999,9999,1501245496
1149,20,Ticks_Linear_8,142,9999,9999,9999,1501785180
1149,20,Ticks_Linear_8,143,9999,9999,9999,1502325840
1149,20,Ticks_Linear_8,144,9999,9999,9999,1502865516
1149,20,Ticks_Linear_8,145,9999,9999,9999,1503395936
1149,20,Ticks_Linear_8,146,9999,9999,9999,1503925372
1149,20,Ticks_Linear_8,147,9999,9999,9999,1504455776
1149,20,Ticks_Linear_8,148,9999,9999,9999,1504985200
1149,20,Ticks_Linear_8,149,9999,9999,9999,1505515600
1149,20,Ticks_Linear_8,150,9999,9999,9999,1506035828
1149,20,Ticks_Linear_8,151,9999,9999,9999,1506555964
1149,20,Ticks_Linear_8,152,9999,9999,9999,1507075144
1149,20,Ticks_Linear_8,153,9999,9999,9999,1507595356
1149,20,Ticks_Linear_8,154,9999,9999,9999,1508115576
1149,20,Ticks_Linear_8,155,9999,9999,9999,1508625536
1149,20,Ticks_Linear_8,156,9999,9999,9999,1509135428
1149,20,Ticks_Linear_8,157,9999,9999,9999,1509645388
1149,20,Ticks_Linear_8,158,9999,9999,9999,1510155336
1149,20,Ticks_Linear_8,159,9999,9999,9999,1510665300
1149,20,Ticks_Linear_8,160,9999,9999,9999,1511166056
1149,20,Ticks_Linear_8,161,9999,9999,9999,1511665756
1149,20,Ticks_Linear_8,162,9999,9999,9999,1512165448
1149,20,Ticks_Linear_8,163,9999,9999,9999,1512665156
1149,20,Ticks_Linear_8,164,9999,9999,9999,1513165900
1149,20,Ticks_Linear_8,165,9999,9999,9999,1513655416
1149,20,Ticks_Linear_8,166,9999,9999,9999,1514145904
1149,20,Ticks_Linear_8,167,9999,9999,9999,1514635344
1149,20,Ticks_Linear_8,168,9999,9999,9999,1515125824
1149,20,Ticks_Linear_8,169,9999,9999,9999,1515615340
11410,21,Ticks_Linear_5,0,5,42,127,1524595000
11410,21,Ticks_Linear_5,1,5,42,127,1525075248
11410,21,Ticks_Linear_5,2,5,42,127,1525554528
11410,21,Ticks_Linear_5,3,1,48,29,1525648256
11410,21,Ticks_Linear_5,4,5,42,127,1526034952
11410,21,Ticks_Linear_5,5,1,48,19,1526053308
11410,21,Ticks_Linear_5,6,1,48,22,1526496864
11410,21,Ticks_Linear_5,7,5,42,127,1526515100
11410,21,Ticks_Linear_5,8,1,48,22,1526944968
11410,21,Ticks_Linear_5,9,5,42,127,1527004468
11410,21,Ticks_Linear_5,10,1,48,20,1527427220
11410,21,Ticks_Linear_5,11,5,42,127,1527495032
11410,21,Ticks_Linear_5,12,1,48,19,1527914788
11410,21,Ticks_Linear_5,13,5,42,127,1527984472
11410,21,Ticks_Linear_5,14,1,48,19,1528404748
11410,21,Ticks_Linear_5,15,5,42,127,1528475032
11410,21,Ticks_Linear_5,16,1,48,19,1528907444
11410,21,Ticks_Linear_5,17,5,42,127,1528964552
11410,21,Ticks_Linear_5,18,1,48,17,1529399356
11410,21,Ticks_Linear_5,19,5,42,127,1529465072
11410,21,Ticks_Linear_5,20,1,48,16,1529884132
11410,21,Ticks_Linear_5,21,5,42,127,1529964996
11410,21,Ticks_Linear_5,22,1,48,23,1530348256
11410,21,Ticks_Linear_5,23,5,42,127,1530464756
11410,21,Ticks_Linear_5,24,1,48,21,1530903752
11410,21,Ticks_Linear_5,25,5,42,127,1530965368
11410,21,Ticks_Linear_5,26,1,48,17,1531437248
11410,21,Ticks_Linear_5,27,5,42,127,1531465068
11410,21,Ticks_Linear_5,28,1,48,14,1531936616
11410,21,Ticks_Linear_5,29,5,42,127,1531975152
11410,21,Ticks_Linear_5,30,1,48,21,1532422372
11410,21,Ticks_Linear_5,31,5,42,127,1532485036
11410,21,Ticks_Linear_5,32,1,48,21,1532903944
11410,21,Ticks_Linear_5,33,5,42,127,1532995500
11410,21,Ticks_Linear_5,34,1,48,18,1533439060
11410,21,Ticks_Linear_5,35,5,42,127,1533504952
11410,21,Ticks_Linear_5,36,1,48,16,1534007832
11410,21,Ticks_Linear_5,37,5,42,127,1534015060
11410,21,Ticks_Linear_5,38,1,48,18,1534505880
11410,21,Ticks_Linear_5,39,5,42,127,1534534904
11410,21,Ticks_Linear_5,40,1,48,22,1535037036
11410,21,Ticks_Linear_5,41,5,42,127,1535055272
11410,21,Ticks_Linear_5,42,1,48,23,1535510572
11410,21,Ticks_Linear_5,43,5,42,127,1535575340
11410,21,Ticks_Linear_5,44,5,42,127,1536094668
11410,21,Ticks_Linear_5,45,1,48,14,1536125272
11410,21,Ticks_Linear_5,46,5,42,127,1536614808
11410,21,Ticks_Linear_5,47,1,48,19,1536649152
11410,21,Ticks_Linear_5,48,1,48,17,1537140368
11410,21,Ticks_Linear_5,49,5,42,127,1537145280
11410,21,Ticks_Linear_5,50,1,48,16,1537652716
11410,21,Ticks_Linear_5,51,5,42,127,1537674784
11410,21,Ticks_Linear_5,52,5,42,127,1538205044
11410,21,Ticks_Linear_5,53,5,42,127,1538734572
11410,21,Ticks_Linear_5,54,1,48,18,1538754992
11410,21,Ticks_Linear_5,55,1,48,14,1539229352
11410,21,Ticks_Linear_5,56,5,42,127,1539264968
11410,21,Ticks_Linear_5,57,1,48,14,1539725084
11410,21,Ticks_Linear_5,58,5,42,127,1539804580
11410,21,Ticks_Linear_5,59,5,42,127,1540345252
11410,21,Ticks_Linear_5,60,1,48,14,1540851136
11410,21,Ticks_Linear_5,61,5,42,127,1540884880
11410,21,Ticks_Linear_5,62,1,48,15,1541335864
11410,21,Ticks_Linear_5,63,5,42,127,1541424448
11410,21,Ticks_Linear_5,64,1,48,18,1541886484
11410,21,Ticks_Linear_5,65,5,42,127,1541965184
11410,21,Ticks_Linear_5,66,5,42,127,1542514992
11410,21,Ticks_Linear_5,67,1,48,27,1542989424
11410,21,Ticks_Linear_5,68,5,42,127,1543065028
11410,21,Ticks_Linear_5,69,1,48,31,1543543048
11410,21,Ticks_Linear_5,70,5,42,127,1543614828
11410,21,Ticks_Linear_5,71,5,42,127,1544164708
11410,21,Ticks_Linear_5,72,1,48,30,1544618176
11410,21,Ticks_Linear_5,73,5,42,127,1544714804
11410,21,Ticks_Linear_5,74,1,48,21,1545121608
11410,21,Ticks_Linear_5,75,5,42,127,1545274888
11410,21,Ticks_Linear_5,76,1,48,24,1545616076
11410,21,Ticks_Linear_5,77,5,42,127,1545834872
11410,21,Ticks_Linear_5,78,1,48,26,1546222256
11410,21,Ticks_Linear_5,79,5,42,127,1546395004
11410,21,Ticks_Linear_5,80,1,48,26,1546892512
11410,21,Ticks_Linear_5,81,5,42,127,1546955076
11410,21,Ticks_Linear_5,82,1,48,26,1547423732
11410,21,Ticks_Linear_5,83,5,42,127,1547515284
11410,21,Ticks_Linear_5,84,1,48,26,1548006184
11410,21,Ticks_Linear_5,85,5,42,127,1548084804
11410,21,Ticks_Linear_5,86,1,48,24,1548588656
11410,21,Ticks_Linear_5,87,5,42,127,1548654824
11410,21,Ticks_Linear_5,88,1,48,24,1549169156
11410,21,Ticks_Linear_5,89,5,42,127,1549225440
11410,21,Ticks_Linear_5,90,1,48,19,1549737012
11410,21,Ticks_Linear_5,91,5,42,127,1549794640
11410,21,Ticks_Linear_5,92,1,48,25,1550338700
11410,21,Ticks_Linear_5,93,5,42,127,1550365104
11410,21,Ticks_Linear_5,94,5,42,127,1550944520
11410,21,Ticks_Linear_5,95,1,48,37,1550953332
11410,21,Ticks_Linear_5,96,1,48,34,1551453460
11410,21,Ticks_Linear_5,97,5,42,127,1551525384
11410,21,Ticks_Linear_5,98,1,48,22,1552003632
11410,21,Ticks_Linear_5,99,5,42,127,1552104900
11410,21,Ticks_Linear_5,100,1,48,32,1552608544
11410,21,Ticks_Linear_5,101,5,42,127,1552685592
11410,21,Ticks_Linear_5,102,1,48,23,1553190564
11410,21,Ticks_Linear_5,103,5,42,127,1553275456
11410,21,Ticks_Linear_5,104,1,48,24,1553773700
11410,21,Ticks_Linear_5,105,5,42,127,1553865096
11410,21,Ticks_Linear_5,106,1,48,23,1554382052
11410,21,Ticks_Linear_5,107,5,42,127,1554454888
11410,21,Ticks_Linear_5,108,1,48,24,1554953648
11410,21,Ticks_Linear_5,109,5,42,127,1555044700
11410,21,Ticks_Linear_5,110,1,48,26,1555497328
11410,21,Ticks_Linear_5,111,5,42,127,1555634548
11410,21,Ticks_Linear_5,112,1,48,21,1556148972
11410,21,Ticks_Linear_5,113,5,42,127,1556225700
11410,21,Ticks_Linear_5,114,1,48,27,1556721456
11410,21,Ticks_Linear_5,115,5,42,127,1556824412
11410,21,Ticks_Linear_5,116,1,48,32,1557316368
11410,21,Ticks_Linear_5,117,1,48,17,1557397680
11410,21,Ticks_Linear_5,118,5,42,127,1557424752
11410,21,Ticks_Linear_5,119,1,48,16,1557920584
11410,21,Ticks_Linear_5,120,5,42,127,1558024560
11410,21,Ticks_Linear_5,121,1,48,17,1558553748
11410,21,Ticks_Linear_5,122,5,42,127,1558624648
11410,21,Ticks_Linear_5,123,1,48,19,1559145728
11410,21,Ticks_Linear_5,124,5,42,127,1559224624
11410,21,Ticks_Linear_5,125,1,48,25,1559683844
11410,21,Ticks_Linear_5,126,5,42,127,1559835064
11410,21,Ticks_Linear_5,127,1,48,27,1560350388
11410,21,Ticks_Linear_5,128,5,42,127,1560446296
11410,21,Ticks_Linear_5,129,1,48,34,1561005284
11410,21,Ticks_Linear_5,130,5,42,127,1561054524
11410,21,Ticks_Linear_5,131,1,48,22,1561597392
11410,21,Ticks_Linear_5,132,5,42,127,1561664856
11410,21,Ticks_Linear_5,133,5,42,127,1562275096
11410,21,Ticks_Linear_5,134,1,48,25,1562314464
11410,21,Ticks_Linear_5,135,1,48,29,1562877272
11410,21,Ticks_Linear_5,136,5,42,127,1562894608
11410,21,Ticks_Linear_5,137,1,48,16,1563486100
11410,21,Ticks_Linear_5,138,5,42,127,1563515424
11410,21,Ticks_Linear_5,139,1,48,27,1564070048
11410,21,Ticks_Linear_5,140,5,42,127,1564134644
11410,21,Ticks_Linear_5,141,1,48,19,1564745088
11410,21,Ticks_Linear_5,142,5,42,127,1564755608
11410,21,Ticks_Linear_5,143,1,48,19,1565278560
11410,21,Ticks_Linear_5,144,5,42,127,1565374908
11410,21,Ticks_Linear_5,145,1,48,17,1565935224
11410,21,Ticks_Linear_5,146,5,42,127,1566004636
11410,21,Ticks_Linear_5,147,1,48,16,1566578432
11410,21,Ticks_Linear_5,148,5,42,127,1566635536
11410,21,Ticks_Linear_5,149,1,48,24,1567183800
11410,21,Ticks_Linear_5,150,5,42,127,1567265340
11410,21,Ticks_Linear_5,151,1,48,20,1567832704
11410,21,Ticks_Linear_5,152,5,42,127,1567895044
11410,21,Ticks_Linear_5,153,1,48,28,1568448100
11410,21,Ticks_Linear_5,154,5,42,127,1568524600
11410,21,Ticks_Linear_5,155,1,48,28,1569124488
11410,21,Ticks_Linear_5,156,5,42,127,1569164592
11410,21,Ticks_Linear_5,157,1,48,35,1569756884
11410,21,Ticks_Linear_5,158,5,42,127,1569804628
11410,21,Ticks_Linear_5,159,1,48,24,1570372528
11410,21,Ticks_Linear_5,160,5,42,127,1570444620
11410,21,Ticks_Linear_5,161,1,48,33,1571036840
11410,21,Ticks_Linear_5,162,5,42,127,1571084732
11410,21,Ticks_Linear_5,163,1,48,23,1571634220
11410,21,Ticks_Linear_5,164,5,42,127,1571724720
11410,21,Ticks_Linear_5,165,1,48,19,1572285188
11410,21,Ticks_Linear_5,166,5,42,127,1572374868
11410,21,Ticks_Linear_5,167,1,48,19,1572904732
11410,21,Ticks_Linear_5,168,5,42,127,1573025324
11410,21,Ticks_Linear_5,169,1,48,29,1573574132
11410,21,Ticks_Linear_5,170,5,42,127,1573675348
11410,21,Ticks_Linear_5,171,1,48,31,1574191864
11410,21,Ticks_Linear_5,172,5,42,127,1574324600
11410,21,Ticks_Linear_5,173,1,48,30,1574855572
11410,21,Ticks_Linear_5,174,5,42,127,1574974696
11410,21,Ticks_Linear_5,175,1,48,17,1575481480
11410,21,Ticks_Linear_5,176,5,42,127,1575635180
11410,21,Ticks_Linear_5,177,1,48,30,1576208916
11410,21,Ticks_Linear_5,178,5,42,127,1576294804
11410,21,Ticks_Linear_5,179,1,48,22,1576833408
11410,21,Ticks_Linear_5,180,5,42,127,1576955268
11410,21,Ticks_Linear_5,181,1,48,23,1577512920
11410,21,Ticks_Linear_5,182,5,42,127,1577614804
11410,21,Ticks_Linear_5,183,1,48,18,1578179704
11410,21,Ticks_Linear_5,184,5,42,127,1578275684
11410,21,Ticks_Linear_5,185,1,48,29,1578787568
11410,21,Ticks_Linear_5,186,5,42,127,1578944932
11410,21,Ticks_Linear_5,187,1,48,26,1579509904
11410,21,Ticks_Linear_5,188,5,42,127,1579614500
11410,21,Ticks_Linear_5,189,1,48,28,1580189808
11410,21,Ticks_Linear_5,190,5,42,127,1580285256
11410,21,Ticks_Linear_5,191,1,48,27,1580926328
11410,21,Ticks_Linear_5,192,5,42,127,1580955200
11410,21,Ticks_Linear_5,193,1,48,28,1581592648
11410,21,Ticks_Linear_5,194,5,42,127,1581624916
11410,21,Ticks_Linear_5,195,1,48,25,1582253388
11410,21,Ticks_Linear_5,196,5,42,127,1582304572
11410,21,Ticks_Linear_5,197,1,48,27,1582868332
11410,21,Ticks_Linear_5,198,5,42,127,1582984612
11410,21,Ticks_Linear_5,199,1,48,28,1583591068
11410,21,Ticks_Linear_5,200,5,42,127,1583664452
11410,21,Ticks_Linear_5,201,1,48,20,1584279212
11410,21,Ticks_Linear_5,202,5,42,127,1584344332
11410,21,Ticks_Linear_5,203,1,48,25,1584939124
11410,21,Ticks_Linear_5,204,5,42,127,1585025360
11410,21,Ticks_Linear_5,205,1,48,28,1585694660
11410,21,Ticks_Linear_5,206,5,42,127,1585714548
11410,21,Ticks_Linear_5,207,1,48,30,1586297184
11410,21,Ticks_Linear_5,208,5,42,127,1586404596
11410,21,Ticks_Linear_5,209,1,48,32,1587016776
11410,21,Ticks_Linear_5,210,5,42,127,1587094924
11410,21,Ticks_Linear_5,211,1,48,22,1587690060
11410,21,Ticks_Linear_5,212,5,42,127,1587785084
11410,21,Ticks_Linear_5,213,1,48,30,1588371008
11410,21,Ticks_Linear_5,214,5,42,127,1588475136
11410,21,Ticks_Linear_5,215,1,48,28,1589080644
11410,21,Ticks_Linear_5,216,5,42,127,1589174672
11410,21,Ticks_Linear_5,217,1,48,19,1589807360
11410,21,Ticks_Linear_5,218,5,42,127,1589875248
11410,21,Ticks_Linear_5,219,1,48,22,1590477352
11410,21,Ticks_Linear_5,220,5,42,127,1590574384
11410,21,Ticks_Linear_5,221,1,48,21,1591197244
11410,21,Ticks_Linear_5,222,5,42,127,1591275016
11410,21,Ticks_Linear_5,223,1,48,26,1591961388
11410,21,Ticks_Linear_5,224,5,42,127,1591975364
11410,21,Ticks_Linear_5,225,1,48,27,1592654480
11410,21,Ticks_Linear_5,226,5,42,127,1592685072
11410,21,Ticks_Linear_5,227,1,48,24,1593336824
11410,21,Ticks_Linear_5,228,5,42,127,1593394560
11410,21,Ticks_Linear_5,229,1,48,21,1594026244
11410,21,Ticks_Linear_5,230,5,42,127,1594105212
11410,21,Ticks_Linear_5,231,1,48,22,1594689072
11410,21,Ticks_Linear_5,232,5,42,127,1594815056
11410,21,Ticks_Linear_5,233,1,48,24,1595384084
11410,21,Ticks_Linear_5,234,5,42,127,1595524468
11410,21,Ticks_Linear_5,235,1,48,22,1596125244
11410,21,Ticks_Linear_5,236,5,42,127,1596245336
11410,21,Ticks_Linear_5,237,1,48,16,1596786876
11410,21,Ticks_Linear_5,238,5,42,127,1596965304
11410,21,Ticks_Linear_5,239,1,48,17,1597487520
11410,21,Ticks_Linear_5,240,5,42,127,1597685020
11410,21,Ticks_Linear_5,241,1,48,19,1598330148
11410,21,Ticks_Linear_5,242,5,42,127,1598404932
11410,21,Ticks_Linear_5,243,1,48,19,1599064276
11410,21,Ticks_Linear_5,244,5,42,127,1599125044
11410,21,Ticks_Linear_5,245,1,48,20,1599850888
11410,21,Ticks_Linear_5,246,5,42,127,1599854900
11410,21,Ticks_Linear_5,247,5,42,127,1600584984
11410,21,Ticks_Linear_5,248,1,48,28,1600597616
11410,21,Ticks_Linear_5,249,1,48,16,1601252076
11410,21,Ticks_Linear_5,250,5,42,127,1601315056
11410,21,Ticks_Linear_5,251,1,48,19,1602039744
11410,21,Ticks_Linear_5,252,5,42,127,1602045256
11410,21,Ticks_Linear_5,253,5,42,127,1602775340
11410,21,Ticks_Linear_5,254,1,48,16,1602795164
11410,21,Ticks_Linear_5,255,5,42,127,1603514928
11410,21,Ticks_Linear_5,256,1,48,18,1603547032
11410,21,Ticks_Linear_5,257,1,48,14,1604255044
11410,21,Ticks_Linear_5,258,5,42,127,1604256452
11410,21,Ticks_Linear_5,259,1,48,19,1604949944
11410,21,Ticks_Linear_5,260,5,42,127,1604994400
11410,21,Ticks_Linear_5,261,1,48,20,1605687520
11410,21,Ticks_Linear_5,262,5,42,127,1605734884
11410,21,Ticks_Linear_5,263,1,48,26,1606437144
11410,21,Ticks_Linear_5,264,5,42,127,1606475148
11410,21,Ticks_Linear_5,265,1,48,27,1607199796
11410,21,Ticks_Linear_5,266,5,42,127,1607224700
11410,21,Ticks_Linear_5,267,1,48,27,1607867092
11410,21,Ticks_Linear_5,268,5,42,127,1607975208
11410,21,Ticks_Linear_5,269,1,48,26,1608695048
11410,21,Ticks_Linear_5,270,5,42,127,1608724968
11410,21,Ticks_Linear_5,271,1,48,24,1609441820
11410,21,Ticks_Linear_5,272,5,42,127,1609474592
11410,21,Ticks_Linear_5,273,5,42,127,1610224900
11410,21,Ticks_Linear_5,274,1,48,32,1610317384
11410,21,Ticks_Linear_5,275,1,48,24,1610892164
11410,21,Ticks_Linear_5,276,5,42,127,1610984924
11410,21,Ticks_Linear_5,277,1,48,18,1611616788
11410,21,Ticks_Linear_5,278,5,42,127,1611744720
11410,21,Ticks_Linear_5,279,1,48,19,1612305952
11410,21,Ticks_Linear_5,280,5,42,127,1612504600
11410,21,Ticks_Linear_5,281,1,48,24,1613155500
11410,21,Ticks_Linear_5,282,5,42,127,1613265232
11410,21,Ticks_Linear_5,283,1,48,19,1613918452
11410,21,Ticks_Linear_5,284,5,42,127,1614024968
11410,21,Ticks_Linear_5,285,1,48,21,1614702436
11410,21,Ticks_Linear_5,286,5,42,127,1614795124
11410,21,Ticks_Linear_5,287,5,42,127,1615565124
11410,21,Ticks_Linear_5,288,1,48,20,1616205236
11410,21,Ticks_Linear_5,289,5,42,127,1616335116
11410,21,Ticks_Linear_5,290,1,48,16,1617074460
11410,21,Ticks_Linear_5,291,5,42,127,1617105424
11410,21,Ticks_Linear_5,292,1,48,16,1617798088
11410,21,Ticks_Linear_5,293,5,42,127,1617875416
11410,21,Ticks_Linear_5,294,5,42,127,1618654776
11410,21,Ticks_Linear_5,295,5,42,127,1619434756
11410,21,Ticks_Linear_5,296,1,48,34,1620114332
11410,21,Ticks_Linear_5,297,5,42,127,1620215084
11410,21,Ticks_Linear_5,298,1,48,27,1620839016
11410,21,Ticks_Linear_5,299,5,42,127,1620994436
11410,21,Ticks_Linear_5,300,1,48,25,1621637544
11410,21,Ticks_Linear_5,301,5,42,127,1621774764
11410,21,Ticks_Linear_5,302,1,48,29,1622367480
11410,21,Ticks_Linear_5,303,5,42,127,1622565304
11410,21,Ticks_Linear_5,304,1,48,19,1623170860
11410,21,Ticks_Linear_5,305,5,42,127,1623354692
11410,21,Ticks_Linear_5,306,1,48,25,1624009380
11410,21,Ticks_Linear_5,307,5,42,127,1624145276
11410,21,Ticks_Linear_5,308,1,48,20,1624820936
11410,21,Ticks_Linear_5,309,5,42,127,1624934668
11410,21,Ticks_Linear_5,310,1,48,32,1625617064
11410,21,Ticks_Linear_5,311,5,42,127,1625725400
11410,21,Ticks_Linear_5,312,1,48,38,1626441668
11410,21,Ticks_Linear_5,313,5,42,127,1626524992
11410,21,Ticks_Linear_5,314,1,48,30,1627222384
11410,21,Ticks_Linear_5,315,5,42,127,1627324700
11410,21,Ticks_Linear_5,316,5,42,127,1628124668
11410,21,Ticks_Linear_5,317,1,48,24,1628163812
11410,21,Ticks_Linear_5,318,1,48,28,1628849900
11410,21,Ticks_Linear_5,319,5,42,127,1628925432
11410,21,Ticks_Linear_5,320,1,48,29,1629630756
11410,21,Ticks_Linear_5,321,5,42,127,1629725108
11410,21,Ticks_Linear_5,322,1,48,22,1630454300
11410,21,Ticks_Linear_5,323,5,42,127,1630534940
11410,21,Ticks_Linear_5,324,1,48,20,1631266620
11410,21,Ticks_Linear_5,325,5,42,127,1631344996
11410,21,Ticks_Linear_5,326,1,48,35,1632103724
11410,21,Ticks_Linear_5,327,5,42,127,1632154980
11410,21,Ticks_Linear_5,328,1,48,26,1632888164
11410,21,Ticks_Linear_5,329,5,42,127,1632964964
11410,21,Ticks_Linear_5,330,1,48,27,1633727952
11410,21,Ticks_Linear_5,331,5,42,127,1633775024
11410,21,Ticks_Linear_5,0,9999,9999,9999,1524592700
11410,21,Ticks_Linear_5,1,9999,9999,9999,1525072952
11410,21,Ticks_Linear_5,2,9999,9999,9999,1525552228
11410,21,Ticks_Linear_5,3,9999,9999,9999,1526032504
11410,21,Ticks_Linear_5,4,9999,9999,9999,1526512728
11410,21,Ticks_Linear_5,5,9999,9999,9999,1527002168
11410,21,Ticks_Linear_5,6,9999,9999,9999,1527492732
11410,21,Ticks_Linear_5,7,9999,9999,9999,1527982172
11410,21,Ticks_Linear_5,8,9999,9999,9999,1528472660
11410,21,Ticks_Linear_5,9,9999,9999,9999,1528962104
11410,21,Ticks_Linear_5,10,9999,9999,9999,1529462848
11410,21,Ticks_Linear_5,11,9999,9999,9999,1529962624
11410,21,Ticks_Linear_5,12,9999,9999,9999,1530462308
11410,21,Ticks_Linear_5,13,9999,9999,9999,1530963068
11410,21,Ticks_Linear_5,14,9999,9999,9999,1531462768
11410,21,Ticks_Linear_5,15,9999,9999,9999,1531972704
11410,21,Ticks_Linear_5,16,9999,9999,9999,1532482664
11410,21,Ticks_Linear_5,17,9999,9999,9999,1532992620
11410,21,Ticks_Linear_5,18,9999,9999,9999,1533502580
11410,21,Ticks_Linear_5,19,9999,9999,9999,1534012540
11410,21,Ticks_Linear_5,20,9999,9999,9999,1534532684
11410,21,Ticks_Linear_5,21,9999,9999,9999,1535052900
11410,21,Ticks_Linear_5,22,9999,9999,9999,1535573116
11410,21,Ticks_Linear_5,23,9999,9999,9999,1536092220
11410,21,Ticks_Linear_5,24,9999,9999,9999,1536612436
11410,21,Ticks_Linear_5,25,9999,9999,9999,1537142908
11410,21,Ticks_Linear_5,26,9999,9999,9999,1537672264
11410,21,Ticks_Linear_5,27,9999,9999,9999,1538202744
11410,21,Ticks_Linear_5,28,9999,9999,9999,1538732124
11410,21,Ticks_Linear_5,29,9999,9999,9999,1539262520
11410,21,Ticks_Linear_5,30,9999,9999,9999,1539802208
11410,21,Ticks_Linear_5,31,9999,9999,9999,1540342876
11410,21,Ticks_Linear_5,32,9999,9999,9999,1540882508
11410,21,Ticks_Linear_5,33,9999,9999,9999,1541422148
11410,21,Ticks_Linear_5,34,9999,9999,9999,1541962808
11410,21,Ticks_Linear_5,35,9999,9999,9999,1542512764
11410,21,Ticks_Linear_5,36,9999,9999,9999,1543062656
11410,21,Ticks_Linear_5,37,9999,9999,9999,1543612528
11410,21,Ticks_Linear_5,38,9999,9999,9999,1544162408
11410,21,Ticks_Linear_5,39,9999,9999,9999,1544712280
11410,21,Ticks_Linear_5,40,9999,9999,9999,1545272440
11410,21,Ticks_Linear_5,41,9999,9999,9999,1545832572
11410,21,Ticks_Linear_5,42,9999,9999,9999,1546392632
11410,21,Ticks_Linear_5,43,9999,9999,9999,1546952780
11410,21,Ticks_Linear_5,44,9999,9999,9999,1547512912
11410,21,Ticks_Linear_5,45,9999,9999,9999,1548082284
11410,21,Ticks_Linear_5,46,9999,9999,9999,1548652600
11410,21,Ticks_Linear_5,47,9999,9999,9999,1549222992
11410,21,Ticks_Linear_5,48,9999,9999,9999,1549792340
11410,21,Ticks_Linear_5,49,9999,9999,9999,1550362732
11410,21,Ticks_Linear_5,50,9999,9999,9999,1550942296
11410,21,Ticks_Linear_5,51,9999,9999,9999,1551522940
11410,21,Ticks_Linear_5,52,9999,9999,9999,1552102452
11410,21,Ticks_Linear_5,53,9999,9999,9999,1552683068
11410,21,Ticks_Linear_5,54,9999,9999,9999,1553272932
11410,21,Ticks_Linear_5,55,9999,9999,9999,1553862724
11410,21,Ticks_Linear_5,56,9999,9999,9999,1554452588
11410,21,Ticks_Linear_5,57,9999,9999,9999,1555042400
11410,21,Ticks_Linear_5,58,9999,9999,9999,1555632248
11410,21,Ticks_Linear_5,59,9999,9999,9999,1556223104
11410,21,Ticks_Linear_5,60,9999,9999,9999,1556822116
11410,21,Ticks_Linear_5,61,9999,9999,9999,1557422156
11410,21,Ticks_Linear_5,62,9999,9999,9999,1558022264
11410,21,Ticks_Linear_5,63,9999,9999,9999,1558622276
11410,21,Ticks_Linear_5,64,9999,9999,9999,1559222328
11410,21,Ticks_Linear_5,65,9999,9999,9999,1559832692
11410,21,Ticks_Linear_5,66,9999,9999,9999,1560442964
11410,21,Ticks_Linear_5,67,9999,9999,9999,1561052228
11410,21,Ticks_Linear_5,68,9999,9999,9999,1561662560
11410,21,Ticks_Linear_5,69,9999,9999,9999,1562272872
11410,21,Ticks_Linear_5,70,9999,9999,9999,1562892384
11410,21,Ticks_Linear_5,71,9999,9999,9999,1563512900
11410,21,Ticks_Linear_5,72,9999,9999,9999,1564132420
11410,21,Ticks_Linear_5,73,9999,9999,9999,1564753012
11410,21,Ticks_Linear_5,74,9999,9999,9999,1565372532
11410,21,Ticks_Linear_5,75,9999,9999,9999,1566002264
11410,21,Ticks_Linear_5,76,9999,9999,9999,1566633016
11410,21,Ticks_Linear_5,77,9999,9999,9999,1567262820
11410,21,Ticks_Linear_5,78,9999,9999,9999,1567892596
11410,21,Ticks_Linear_5,79,9999,9999,9999,1568522304
11410,21,Ticks_Linear_5,80,9999,9999,9999,1569162368
11410,21,Ticks_Linear_5,81,9999,9999,9999,1569802332
11410,21,Ticks_Linear_5,82,9999,9999,9999,1570442320
11410,21,Ticks_Linear_5,83,9999,9999,9999,1571082360
11410,21,Ticks_Linear_5,84,9999,9999,9999,1571722348
11410,21,Ticks_Linear_5,85,9999,9999,9999,1572372572
11410,21,Ticks_Linear_5,86,9999,9999,9999,1573022804
11410,21,Ticks_Linear_5,87,9999,9999,9999,1573673052
11410,21,Ticks_Linear_5,88,9999,9999,9999,1574322300
11410,21,Ticks_Linear_5,89,9999,9999,9999,1574972472
11410,21,Ticks_Linear_5,90,9999,9999,9999,1575632956
11410,21,Ticks_Linear_5,91,9999,9999,9999,1576292432
11410,21,Ticks_Linear_5,92,9999,9999,9999,1576952896
11410,21,Ticks_Linear_5,93,9999,9999,9999,1577612356
11410,21,Ticks_Linear_5,94,9999,9999,9999,1578272880
11410,21,Ticks_Linear_5,95,9999,9999,9999,1578942556
11410,21,Ticks_Linear_5,96,9999,9999,9999,1579612276
11410,21,Ticks_Linear_5,97,9999,9999,9999,1580282960
11410,21,Ticks_Linear_5,98,9999,9999,9999,1580952676
11410,21,Ticks_Linear_5,99,9999,9999,9999,1581622396
11410,21,Ticks_Linear_5,100,9999,9999,9999,1582302276
11410,21,Ticks_Linear_5,101,9999,9999,9999,1582982236
11410,21,Ticks_Linear_5,102,9999,9999,9999,1583662156
11410,21,Ticks_Linear_5,103,9999,9999,9999,1584342108
11410,21,Ticks_Linear_5,104,9999,9999,9999,1585023060
11410,21,Ticks_Linear_5,105,9999,9999,9999,1585712252
11410,21,Ticks_Linear_5,106,9999,9999,9999,1586402372
11410,21,Ticks_Linear_5,107,9999,9999,9999,1587092548
11410,21,Ticks_Linear_5,108,9999,9999,9999,1587782712
11410,21,Ticks_Linear_5,109,9999,9999,9999,1588472908
11410,21,Ticks_Linear_5,110,9999,9999,9999,1589172300
11410,21,Ticks_Linear_5,111,9999,9999,9999,1589872724
11410,21,Ticks_Linear_5,112,9999,9999,9999,1590572160
11410,21,Ticks_Linear_5,113,9999,9999,9999,1591272572
11410,21,Ticks_Linear_5,114,9999,9999,9999,1591972916
11410,21,Ticks_Linear_5,115,9999,9999,9999,1592682552
11410,21,Ticks_Linear_5,116,9999,9999,9999,1593392184
11410,21,Ticks_Linear_5,117,9999,9999,9999,1594102840
11410,21,Ticks_Linear_5,118,9999,9999,9999,1594812536
11410,21,Ticks_Linear_5,119,9999,9999,9999,1595522168
11410,21,Ticks_Linear_5,120,9999,9999,9999,1596243036
11410,21,Ticks_Linear_5,121,9999,9999,9999,1596962928
11410,21,Ticks_Linear_5,122,9999,9999,9999,1597682796
11410,21,Ticks_Linear_5,123,9999,9999,9999,1598402632
11410,21,Ticks_Linear_5,124,9999,9999,9999,1599122524
11410,21,Ticks_Linear_5,125,9999,9999,9999,1599852604
11410,21,Ticks_Linear_5,126,9999,9999,9999,1600582760
11410,21,Ticks_Linear_5,127,9999,9999,9999,1601312832
11410,21,Ticks_Linear_5,128,9999,9999,9999,1602042956
11410,21,Ticks_Linear_5,129,9999,9999,9999,1602773116
11410,21,Ticks_Linear_5,130,9999,9999,9999,1603512408
11410,21,Ticks_Linear_5,131,9999,9999,9999,1604252744
11410,21,Ticks_Linear_5,132,9999,9999,9999,1604992100
11410,21,Ticks_Linear_5,133,9999,9999,9999,1605732440
11410,21,Ticks_Linear_5,134,9999,9999,9999,1606472776
11410,21,Ticks_Linear_5,135,9999,9999,9999,1607222328
11410,21,Ticks_Linear_5,136,9999,9999,9999,1607972980
11410,21,Ticks_Linear_5,137,9999,9999,9999,1608722520
11410,21,Ticks_Linear_5,138,9999,9999,9999,1609472072
11410,21,Ticks_Linear_5,139,9999,9999,9999,1610222672
11410,21,Ticks_Linear_5,140,9999,9999,9999,1610982480
11410,21,Ticks_Linear_5,141,9999,9999,9999,1611742272
11410,21,Ticks_Linear_5,142,9999,9999,9999,1612502080
11410,21,Ticks_Linear_5,143,9999,9999,9999,1613262936
11410,21,Ticks_Linear_5,144,9999,9999,9999,1614022740
11410,21,Ticks_Linear_5,145,9999,9999,9999,1614792824
11410,21,Ticks_Linear_5,146,9999,9999,9999,1615562824
11410,21,Ticks_Linear_5,147,9999,9999,9999,1616332892
11410,21,Ticks_Linear_5,148,9999,9999,9999,1617102976
11410,21,Ticks_Linear_5,149,9999,9999,9999,1617872968
11410,21,Ticks_Linear_5,150,9999,9999,9999,1618652256
11410,21,Ticks_Linear_5,151,9999,9999,9999,1619432532
11410,21,Ticks_Linear_5,152,9999,9999,9999,1620212856
11410,21,Ticks_Linear_5,153,9999,9999,9999,1620992064
11410,21,Ticks_Linear_5,154,9999,9999,9999,1621772392
11410,21,Ticks_Linear_5,155,9999,9999,9999,1622562928
11410,21,Ticks_Linear_5,156,9999,9999,9999,1623352396
11410,21,Ticks_Linear_5,157,9999,9999,9999,1624142904
11410,21,Ticks_Linear_5,158,9999,9999,9999,1624932444
11410,21,Ticks_Linear_5,159,9999,9999,9999,1625722956
11410,21,Ticks_Linear_5,160,9999,9999,9999,1626522692
11410,21,Ticks_Linear_5,161,9999,9999,9999,1627322476
11410,21,Ticks_Linear_5,162,9999,9999,9999,1628122220
11410,21,Ticks_Linear_5,163,9999,9999,9999,1628922984
11410,21,Ticks_Linear_5,164,9999,9999,9999,1629722708
11410,21,Ticks_Linear_5,165,9999,9999,9999,1630532716
11410,21,Ticks_Linear_5,166,9999,9999,9999,1631342700
11410,21,Ticks_Linear_5,167,9999,9999,9999,1632152684
11410,21,Ticks_Linear_5,168,9999,9999,9999,1632962668
11410,21,Ticks_Linear_5,169,9999,9999,9999,1633772648
11411,25,Jits_Pract_5,0,5,56,103,1689338648
11411,25,Jits_Pract_5,1,5,63,98,1689341592
11411,25,Jits_Pract_5,2,5,80,127,1689344640
11411,25,Jits_Pract_5,0,5,56,103,1689837768
11411,25,Jits_Pract_5,1,5,63,98,1689840944
11411,25,Jits_Pract_5,2,5,80,127,1689844288
11411,25,Jits_Pract_5,0,5,56,103,1690337660
11411,25,Jits_Pract_5,1,5,80,127,1690347932
11411,25,Jits_Pract_5,2,5,63,98,1690368464
11411,25,Jits_Pract_5,0,5,63,98,1690788256
11411,25,Jits_Pract_5,1,5,80,127,1690817780
11411,25,Jits_Pract_5,2,5,56,103,1690828424
11411,25,Jits_Pract_5,0,5,80,127,1691348440
11411,25,Jits_Pract_5,1,5,56,103,1691357440
11411,25,Jits_Pract_5,2,5,63,98,1691388532
11411,25,Jits_Pract_5,0,5,63,98,1691837848
11411,25,Jits_Pract_5,1,5,56,103,1691867600
11411,25,Jits_Pract_5,2,5,80,127,1691877644
11411,25,Jits_Pract_5,0,5,56,103,1692288428
11411,25,Jits_Pract_5,1,5,63,98,1692337512
11411,25,Jits_Pract_5,2,5,80,127,1692357892
11411,25,Jits_Pract_5,0,5,80,127,1692788244
11411,25,Jits_Pract_5,1,5,63,98,1692838448
11411,25,Jits_Pract_5,2,5,56,103,1692878308
11411,25,Jits_Pract_5,0,5,56,103,1693287764
11411,25,Jits_Pract_5,1,5,63,98,1693317588
11411,25,Jits_Pract_5,2,5,80,127,1693388088
11411,25,Jits_Pract_5,0,5,56,103,1693787356
11411,25,Jits_Pract_5,1,5,80,127,1693847896
11411,25,Jits_Pract_5,2,5,63,98,1693877644
11411,25,Jits_Pract_5,0,5,56,103,1694297436
11411,25,Jits_Pract_5,1,5,63,98,1694307632
11411,25,Jits_Pract_5,2,5,80,127,1694347644
11411,25,Jits_Pract_5,0,5,63,98,1694787812
11411,25,Jits_Pract_5,1,5,80,127,1694867756
11411,25,Jits_Pract_5,2,5,56,103,1694877952
11411,25,Jits_Pract_5,0,5,63,98,1695337884
11411,25,Jits_Pract_5,1,5,56,103,1695377896
11411,25,Jits_Pract_5,2,5,80,127,1695380812
11411,25,Jits_Pract_5,0,5,56,103,1695797600
11411,25,Jits_Pract_5,1,5,63,98,1695807796
11411,25,Jits_Pract_5,2,5,80,127,1695847732
11411,25,Jits_Pract_5,0,5,56,103,1696298456
11411,25,Jits_Pract_5,1,5,63,98,1696301524
11411,25,Jits_Pract_5,2,5,80,127,1696317868
11411,25,Jits_Pract_5,0,9999,9999,9999,1689585784
11411,25,Jits_Pract_5,1,9999,9999,9999,1690085432
11411,25,Jits_Pract_5,2,9999,9999,9999,1690585176
11411,25,Jits_Pract_5,3,9999,9999,9999,1691085884
11411,25,Jits_Pract_5,4,9999,9999,9999,1691585616
11411,25,Jits_Pract_5,5,9999,9999,9999,1692085364
11411,25,Jits_Pract_5,6,9999,9999,9999,1692586064
11411,25,Jits_Pract_5,7,9999,9999,9999,1693085804
11411,25,Jits_Pract_5,8,9999,9999,9999,1693585472
11411,25,Jits_Pract_5,9,9999,9999,9999,1694085212
11411,25,Jits_Pract_5,10,9999,9999,9999,1694585928
11411,25,Jits_Pract_5,11,9999,9999,9999,1695085668
11411,25,Jits_Pract_5,12,9999,9999,9999,1695585392
11411,25,Jits_Pract_5,13,9999,9999,9999,1696086092
11411,25,Jits_Pract_5,14,9999,9999,9999,1696596076
11412,24,Jits_Pract_8,0,5,56,103,1750378756
11412,24,Jits_Pract_8,1,5,63,98,1750381856
11412,24,Jits_Pract_8,2,5,80,127,1750384904
11412,24,Jits_Pract_8,0,5,56,103,1751178552
11412,24,Jits_Pract_8,1,5,63,98,1751181576
11412,24,Jits_Pract_8,2,5,80,127,1751184700
11412,24,Jits_Pract_8,3,1,48,23,1751393180
11412,24,Jits_Pract_8,0,5,80,127,1751918908
11412,24,Jits_Pract_8,1,1,48,17,1751944204
11412,24,Jits_Pract_8,2,5,63,98,1752009184
11412,24,Jits_Pract_8,3,5,56,103,1752019380
11412,24,Jits_Pract_8,0,5,56,103,1752739432
11412,24,Jits_Pract_8,1,5,63,98,1752749408
11412,24,Jits_Pract_8,2,1,48,18,1752783536
11412,24,Jits_Pract_8,3,5,80,127,1752838632
11412,24,Jits_Pract_8,0,5,63,98,1753509236
11412,24,Jits_Pract_8,1,5,80,127,1753538912
11412,24,Jits_Pract_8,2,5,56,103,1753568736
11412,24,Jits_Pract_8,3,1,48,21,1753598380
11412,24,Jits_Pract_8,0,1,48,16,1754303708
11412,24,Jits_Pract_8,1,5,56,103,1754308980
11412,24,Jits_Pract_8,2,5,80,127,1754409536
11412,24,Jits_Pract_8,3,5,63,98,1754458544
11412,24,Jits_Pract_8,0,5,56,103,1755108672
11412,24,Jits_Pract_8,1,1,48,16,1755139884
11412,24,Jits_Pract_8,2,5,80,127,1755158892
11412,24,Jits_Pract_8,3,5,63,98,1755198828
11412,24,Jits_Pract_8,0,5,80,127,1755939404
11412,24,Jits_Pract_8,1,5,63,98,1755968860
11412,24,Jits_Pract_8,2,5,56,103,1756038392
11412,24,Jits_Pract_8,0,5,63,98,1756768592
11412,24,Jits_Pract_8,1,1,48,20,1756778608
11412,24,Jits_Pract_8,2,5,56,103,1756799528
11412,24,Jits_Pract_8,3,5,80,127,1756858648
11412,24,Jits_Pract_8,0,5,56,103,1757508932
11412,24,Jits_Pract_8,1,5,80,127,1757512072
11412,24,Jits_Pract_8,2,1,48,22,1757565988
11412,24,Jits_Pract_8,3,5,63,98,1757628872
11412,24,Jits_Pract_8,0,1,48,23,1758362680
11412,24,Jits_Pract_8,1,5,56,103,1758388556
11412,24,Jits_Pract_8,2,5,80,127,1758428496
11412,24,Jits_Pract_8,3,5,63,98,1758438988
11412,24,Jits_Pract_8,0,5,56,103,1759149440
11412,24,Jits_Pract_8,1,5,80,127,1759168852
11412,24,Jits_Pract_8,2,1,48,24,1759193616
11412,24,Jits_Pract_8,3,5,63,98,1759248712
11412,24,Jits_Pract_8,0,5,80,127,1759938800
11412,24,Jits_Pract_8,1,1,48,17,1759941844
11412,24,Jits_Pract_8,2,5,56,103,1760039500
11412,24,Jits_Pract_8,3,5,63,98,1760048348
11412,24,Jits_Pract_8,0,5,63,98,1760708828
11412,24,Jits_Pract_8,1,1,48,19,1760730456
11412,24,Jits_Pract_8,2,5,80,127,1760769364
11412,24,Jits_Pract_8,3,5,56,103,1760778664
11412,24,Jits_Pract_8,0,5,56,103,1761508656
11412,24,Jits_Pract_8,1,1,48,19,1761523384
11412,24,Jits_Pract_8,2,5,63,98,1761579476
11412,24,Jits_Pract_8,3,5,80,127,1761582768
11412,24,Jits_Pract_8,0,9999,9999,9999,1750776916
11412,24,Jits_Pract_8,1,9999,9999,9999,1751576636
11412,24,Jits_Pract_8,2,9999,9999,9999,1752376408
11412,24,Jits_Pract_8,3,9999,9999,9999,1753176184
11412,24,Jits_Pract_8,4,9999,9999,9999,1753976920
11412,24,Jits_Pract_8,5,9999,9999,9999,1754776680
11412,24,Jits_Pract_8,6,9999,9999,9999,1755576432
11412,24,Jits_Pract_8,7,9999,9999,9999,1756376156
11412,24,Jits_Pract_8,8,9999,9999,9999,1757176916
11412,24,Jits_Pract_8,9,9999,9999,9999,1757976688
11412,24,Jits_Pract_8,10,9999,9999,9999,1758776392
11412,24,Jits_Pract_8,11,9999,9999,9999,1759576148
11412,24,Jits_Pract_8,12,9999,9999,9999,1760376900
11412,24,Jits_Pract_8,13,9999,9999,9999,1761176668
11412,24,Jits_Pract_8,14,9999,9999,9999,1761976408
11413,25,Jits_Pract_5,0,5,56,103,1774415208
11413,25,Jits_Pract_5,1,5,63,98,1774418384
11413,25,Jits_Pract_5,2,5,80,127,1774421428
11413,25,Jits_Pract_5,0,5,56,103,1774915156
11413,25,Jits_Pract_5,1,5,63,98,1774918108
11413,25,Jits_Pract_5,2,5,80,127,1774921300
11413,25,Jits_Pract_5,0,1,48,24,1775386844
11413,25,Jits_Pract_5,1,5,56,103,1775414592
11413,25,Jits_Pract_5,2,5,80,127,1775424940
11413,25,Jits_Pract_5,3,5,63,98,1775445248
11413,25,Jits_Pract_5,0,1,48,20,1775811956
11413,25,Jits_Pract_5,1,5,63,98,1775865332
11413,25,Jits_Pract_5,2,5,80,127,1775895032
11413,25,Jits_Pract_5,3,5,56,103,1775905232
11413,25,Jits_Pract_5,0,1,48,30,1776318992
11413,25,Jits_Pract_5,1,5,80,127,1776425196
11413,25,Jits_Pract_5,2,5,56,103,1776434644
11413,25,Jits_Pract_5,3,5,63,98,1776465216
11413,25,Jits_Pract_5,0,1,48,23,1776906504
11413,25,Jits_Pract_5,1,5,63,98,1776914992
11413,25,Jits_Pract_5,2,5,56,103,1776944472
11413,25,Jits_Pract_5,3,5,80,127,1776954668
11413,25,Jits_Pract_5,0,5,56,103,1777365388
11413,25,Jits_Pract_5,1,5,63,98,1777414544
11413,25,Jits_Pract_5,2,1,48,23,1777431616
11413,25,Jits_Pract_5,3,5,80,127,1777435020
11413,25,Jits_Pract_5,0,5,80,127,1777865168
11413,25,Jits_Pract_5,1,1,48,25,1777910760
11413,25,Jits_Pract_5,2,5,63,98,1777915440
11413,25,Jits_Pract_5,3,5,56,103,1777955176
11413,25,Jits_Pract_5,0,5,56,103,1778364728
11413,25,Jits_Pract_5,1,5,63,98,1778394476
11413,25,Jits_Pract_5,2,1,48,19,1778410100
11413,25,Jits_Pract_5,3,5,80,127,1778465000
11413,25,Jits_Pract_5,0,5,56,103,1778864436
11413,25,Jits_Pract_5,1,1,48,27,1778882304
11413,25,Jits_Pract_5,2,5,80,127,1778925192
11413,25,Jits_Pract_5,3,5,63,98,1778954572
11413,25,Jits_Pract_5,0,5,56,103,1779374408
11413,25,Jits_Pract_5,1,1,48,15,1779380892
11413,25,Jits_Pract_5,2,5,63,98,1779384820
11413,25,Jits_Pract_5,3,5,80,127,1779424536
11413,25,Jits_Pract_5,0,5,63,98,1779865040
11413,25,Jits_Pract_5,1,1,48,28,1779866008
11413,25,Jits_Pract_5,2,5,80,127,1779944908
11413,25,Jits_Pract_5,3,5,56,103,1779955028
11413,25,Jits_Pract_5,0,1,48,20,1780395944
11413,25,Jits_Pract_5,1,5,63,98,1780415000
11413,25,Jits_Pract_5,2,5,56,103,1780454864
11413,25,Jits_Pract_5,3,5,80,127,1780457928
11413,25,Jits_Pract_5,0,5,56,103,1780874684
11413,25,Jits_Pract_5,1,5,63,98,1780885032
11413,25,Jits_Pract_5,2,1,48,20,1780906732
11413,25,Jits_Pract_5,3,5,80,127,1780925036
11413,25,Jits_Pract_5,0,1,48,21,1781354808
11413,25,Jits_Pract_5,1,5,56,103,1781375280
11413,25,Jits_Pract_5,2,5,63,98,1781378420
11413,25,Jits_Pract_5,3,5,80,127,1781394912
11413,25,Jits_Pract_5,0,9999,9999,9999,1774662720
11413,25,Jits_Pract_5,1,9999,9999,9999,1775162444
11413,25,Jits_Pract_5,2,9999,9999,9999,1775662168
11413,25,Jits_Pract_5,3,9999,9999,9999,1776162904
11413,25,Jits_Pract_5,4,9999,9999,9999,1776662600
11413,25,Jits_Pract_5,5,9999,9999,9999,1777162344
11413,25,Jits_Pract_5,6,9999,9999,9999,1777663076
11413,25,Jits_Pract_5,7,9999,9999,9999,1778162784
11413,25,Jits_Pract_5,8,9999,9999,9999,1778662488
11413,25,Jits_Pract_5,9,9999,9999,9999,1779162200
11413,25,Jits_Pract_5,10,9999,9999,9999,1779662952
11413,25,Jits_Pract_5,11,9999,9999,9999,1780162656
11413,25,Jits_Pract_5,12,9999,9999,9999,1780662344
11413,25,Jits_Pract_5,13,9999,9999,9999,1781163080
11413,25,Jits_Pract_5,14,9999,9999,9999,1781673036
11414,15,Jits_Phase_8,0,5,56,103,1813575156
11414,15,Jits_Phase_8,1,5,63,98,1813578100
11414,15,Jits_Phase_8,2,5,80,127,1813581372
11414,15,Jits_Phase_8,0,5,56,103,1814374800
11414,15,Jits_Phase_8,1,5,63,98,1814377896
11414,15,Jits_Phase_8,2,5,80,127,1814381092
11414,15,Jits_Phase_8,3,1,48,27,1814576472
11414,15,Jits_Phase_8,0,5,80,127,1815115376
11414,15,Jits_Phase_8,1,1,48,19,1815154612
11414,15,Jits_Phase_8,2,5,63,98,1815205356
11414,15,Jits_Phase_8,3,5,56,103,1815214432
11414,15,Jits_Phase_8,0,5,56,103,1815935532
11414,15,Jits_Phase_8,1,5,63,98,1815944608
11414,15,Jits_Phase_8,2,1,48,21,1815980308
11414,15,Jits_Phase_8,3,5,80,127,1816034656
11414,15,Jits_Phase_8,0,5,63,98,1816705264
11414,15,Jits_Phase_8,1,5,80,127,1816735236
11414,15,Jits_Phase_8,2,5,56,103,1816764840
11414,15,Jits_Phase_8,3,1,48,24,1816771696
11414,15,Jits_Phase_8,0,1,48,26,1817476660
11414,15,Jits_Phase_8,1,5,56,103,1817505008
11414,15,Jits_Phase_8,2,5,80,127,1817604492
11414,15,Jits_Phase_8,3,5,63,98,1817654568
11414,15,Jits_Phase_8,0,5,56,103,1818304924
11414,15,Jits_Phase_8,1,1,48,25,1818321892
11414,15,Jits_Phase_8,2,5,80,127,1818355196
11414,15,Jits_Phase_8,3,5,63,98,1818395084
11414,15,Jits_Phase_8,0,1,48,19,1819093576
11414,15,Jits_Phase_8,1,5,80,127,1819135404
11414,15,Jits_Phase_8,2,5,63,98,1819165180
11414,15,Jits_Phase_8,3,5,56,103,1819234696
11414,15,Jits_Phase_8,0,1,48,24,1819862248
11414,15,Jits_Phase_8,1,5,63,98,1819964696
11414,15,Jits_Phase_8,2,5,56,103,1819994448
11414,15,Jits_Phase_8,3,5,80,127,1820054760
11414,15,Jits_Phase_8,0,1,48,24,1820655184
11414,15,Jits_Phase_8,1,5,56,103,1820705428
11414,15,Jits_Phase_8,2,5,80,127,1820708420
11414,15,Jits_Phase_8,3,5,63,98,1820824916
11414,15,Jits_Phase_8,0,1,48,23,1821459744
11414,15,Jits_Phase_8,1,5,56,103,1821584808
11414,15,Jits_Phase_8,2,5,80,127,1821624748
11414,15,Jits_Phase_8,3,5,63,98,1821635316
11414,15,Jits_Phase_8,0,5,56,103,1822344440
11414,15,Jits_Phase_8,1,1,48,26,1822349724
11414,15,Jits_Phase_8,2,5,80,127,1822364968
11414,15,Jits_Phase_8,3,5,63,98,1822445716
11414,15,Jits_Phase_8,0,5,80,127,1823135368
11414,15,Jits_Phase_8,1,1,48,19,1823164340
11414,15,Jits_Phase_8,2,5,56,103,1823234416
11414,15,Jits_Phase_8,3,5,63,98,1823244536
11414,15,Jits_Phase_8,0,5,63,98,1823905324
11414,15,Jits_Phase_8,1,1,48,21,1823950920
11414,15,Jits_Phase_8,2,5,80,127,1823964516
11414,15,Jits_Phase_8,3,5,56,103,1823974712
11414,15,Jits_Phase_8,0,1,48,17,1824680992
11414,15,Jits_Phase_8,1,5,56,103,1824704848
11414,15,Jits_Phase_8,2,5,63,98,1824774456
11414,15,Jits_Phase_8,3,5,80,127,1824777820
11414,15,Jits_Phase_8,0,1,48,19,1825465684
11414,15,Jits_Phase_8,1,5,63,98,1825535460
11414,15,Jits_Phase_8,2,5,56,103,1825584476
11414,15,Jits_Phase_8,3,5,80,127,1825587468
11414,15,Jits_Phase_8,0,1,48,19,1826294288
11414,15,Jits_Phase_8,1,5,56,103,1826295800
11414,15,Jits_Phase_8,2,5,80,127,1826298560
11414,15,Jits_Phase_8,3,5,63,98,1826385428
11414,15,Jits_Phase_8,0,1,48,14,1827049204
11414,15,Jits_Phase_8,1,5,63,98,1827135196
11414,15,Jits_Phase_8,2,5,56,103,1827224948
11414,15,Jits_Phase_8,3,5,80,127,1827254696
11414,15,Jits_Phase_8,0,1,48,15,1827814216
11414,15,Jits_Phase_8,1,5,56,103,1827925360
11414,15,Jits_Phase_8,2,5,63,98,1828024636
11414,15,Jits_Phase_8,3,5,80,127,1828055508
11414,15,Jits_Phase_8,0,1,48,21,1828620416
11414,15,Jits_Phase_8,1,5,63,98,1828744456
11414,15,Jits_Phase_8,2,5,56,103,1828754728
11414,15,Jits_Phase_8,3,5,80,127,1828845080
11414,15,Jits_Phase_8,0,1,48,19,1829419744
11414,15,Jits_Phase_8,1,5,63,98,1829564668
11414,15,Jits_Phase_8,2,5,56,103,1829644688
11414,15,Jits_Phase_8,3,5,80,127,1829647676
11414,15,Jits_Phase_8,0,1,48,20,1830290276
11414,15,Jits_Phase_8,1,5,80,127,1830324628
11414,15,Jits_Phase_8,2,5,63,98,1830345164
11414,15,Jits_Phase_8,3,5,56,103,1830404564
11414,15,Jits_Phase_8,0,1,48,16,1831121800
11414,15,Jits_Phase_8,1,5,56,103,1831165292
11414,15,Jits_Phase_8,2,5,63,98,1831184704
11414,15,Jits_Phase_8,3,5,80,127,1831188092
11414,15,Jits_Phase_8,0,1,48,17,1831870976
11414,15,Jits_Phase_8,1,5,63,98,1831904656
11414,15,Jits_Phase_8,2,5,80,127,1831984460
11414,15,Jits_Phase_8,3,5,56,103,1831994732
11414,15,Jits_Phase_8,0,1,48,19,1832654416
11414,15,Jits_Phase_8,1,5,63,98,1832724816
11414,15,Jits_Phase_8,2,5,56,103,1832745352
11414,15,Jits_Phase_8,3,5,80,127,1832794492
11414,15,Jits_Phase_8,0,1,48,22,1833438052
11414,15,Jits_Phase_8,1,5,80,127,1833524644
11414,15,Jits_Phase_8,2,5,63,98,1833564424
11414,15,Jits_Phase_8,3,5,56,103,1833585252
11414,15,Jits_Phase_8,0,1,48,16,1834213772
11414,15,Jits_Phase_8,1,5,56,103,1834365296
11414,15,Jits_Phase_8,2,5,63,98,1834374448
11414,15,Jits_Phase_8,3,5,80,127,1834395276
11414,15,Jits_Phase_8,0,1,48,25,1834994128
11414,15,Jits_Phase_8,1,5,56,103,1835095376
11414,15,Jits_Phase_8,2,5,63,98,1835184464
11414,15,Jits_Phase_8,3,5,80,127,1835245004
11414,15,Jits_Phase_8,0,1,48,28,1835808216
11414,15,Jits_Phase_8,1,5,80,127,1835925032
11414,15,Jits_Phase_8,2,5,56,103,1835935080
11414,15,Jits_Phase_8,3,5,63,98,1836004908
11414,15,Jits_Phase_8,0,1,48,23,1836622120
11414,15,Jits_Phase_8,1,5,63,98,1836755284
11414,15,Jits_Phase_8,2,5,80,127,1836845292
11414,15,Jits_Phase_8,3,5,56,103,1836854516
11414,15,Jits_Phase_8,0,1,48,25,1837414560
11414,15,Jits_Phase_8,1,5,63,98,1837485384
11414,15,Jits_Phase_8,2,5,80,127,1837534524
11414,15,Jits_Phase_8,3,5,56,103,1837595236
11414,15,Jits_Phase_8,0,1,48,19,1838293436
11414,15,Jits_Phase_8,1,5,56,103,1838304768
11414,15,Jits_Phase_8,2,5,80,127,1838355072
11414,15,Jits_Phase_8,3,5,63,98,1838375164
11414,15,Jits_Phase_8,0,1,48,25,1839047556
11414,15,Jits_Phase_8,1,5,56,103,1839074636
11414,15,Jits_Phase_8,2,5,80,127,1839135052
11414,15,Jits_Phase_8,3,5,63,98,1839204864
11414,15,Jits_Phase_8,0,1,48,18,1839852252
11414,15,Jits_Phase_8,1,5,56,103,1839874392
11414,15,Jits_Phase_8,2,5,80,127,1839905140
11414,15,Jits_Phase_8,3,5,63,98,1839934964
11414,15,Jits_Phase_8,0,1,48,19,1840643480
11414,15,Jits_Phase_8,1,5,56,103,1840715152
11414,15,Jits_Phase_8,2,5,80,127,1840734564
11414,15,Jits_Phase_8,3,5,63,98,1840795236
11414,15,Jits_Phase_8,0,1,48,26,1841435092
11414,15,Jits_Phase_8,1,5,80,127,1841594984
11414,15,Jits_Phase_8,2,5,56,103,1841605180
11414,15,Jits_Phase_8,3,5,63,98,1841615080
11414,15,Jits_Phase_8,0,1,48,25,1842232072
11414,15,Jits_Phase_8,1,5,56,103,1842354524
11414,15,Jits_Phase_8,2,5,80,127,1842394388
11414,15,Jits_Phase_8,3,5,63,98,1842425184
11414,15,Jits_Phase_8,0,1,48,24,1843020080
11414,15,Jits_Phase_8,1,5,56,103,1843124540
11414,15,Jits_Phase_8,2,5,63,98,1843155264
11414,15,Jits_Phase_8,3,5,80,127,1843195200
11414,15,Jits_Phase_8,0,1,48,31,1843813856
11414,15,Jits_Phase_8,1,5,80,127,1843875240
11414,15,Jits_Phase_8,2,5,63,98,1843925352
11414,15,Jits_Phase_8,3,5,56,103,1843944988
11414,15,Jits_Phase_8,0,1,48,23,1844634812
11414,15,Jits_Phase_8,1,5,56,103,1844704660
11414,15,Jits_Phase_8,2,5,80,127,1844775400
11414,15,Jits_Phase_8,3,5,63,98,1844834668
11414,15,Jits_Phase_8,0,1,48,20,1845412676
11414,15,Jits_Phase_8,1,5,80,127,1845506500
11414,15,Jits_Phase_8,2,5,63,98,1845594492
11414,15,Jits_Phase_8,3,5,56,103,1845615100
11414,15,Jits_Phase_8,0,1,48,35,1846291208
11414,15,Jits_Phase_8,1,5,63,98,1846324512
11414,15,Jits_Phase_8,2,5,56,103,1846345048
11414,15,Jits_Phase_8,3,5,80,127,1846384984
11414,15,Jits_Phase_8,0,1,48,32,1847068720
11414,15,Jits_Phase_8,1,5,80,127,1847085380
11414,15,Jits_Phase_8,2,5,63,98,1847105088
11414,15,Jits_Phase_8,3,5,56,103,1847184720
11414,15,Jits_Phase_8,0,1,48,19,1847818168
11414,15,Jits_Phase_8,1,5,63,98,1847874796
11414,15,Jits_Phase_8,2,5,56,103,1847984468
11414,15,Jits_Phase_8,3,5,80,127,1847987384
11414,15,Jits_Phase_8,0,1,48,25,1848632492
11414,15,Jits_Phase_8,1,5,63,98,1848695144
11414,15,Jits_Phase_8,2,5,56,103,1848705340
11414,15,Jits_Phase_8,3,5,80,127,1848708404
11414,15,Jits_Phase_8,0,1,48,33,1849407500
11414,15,Jits_Phase_8,1,5,56,103,1849474432
11414,15,Jits_Phase_8,2,5,80,127,1849595192
11414,15,Jits_Phase_8,3,5,63,98,1849635080
11414,15,Jits_Phase_8,0,1,48,18,1850183740
11414,15,Jits_Phase_8,1,5,56,103,1850294928
11414,15,Jits_Phase_8,2,5,80,127,1850374800
11414,15,Jits_Phase_8,3,5,63,98,1850394984
11414,15,Jits_Phase_8,0,1,48,27,1851009332
11414,15,Jits_Phase_8,1,5,56,103,1851095448
11414,15,Jits_Phase_8,2,5,63,98,1851205072
11414,15,Jits_Phase_8,3,5,80,127,1851208284
11414,15,Jits_Phase_8,0,1,48,28,1851804824
11414,15,Jits_Phase_8,1,5,56,103,1851935068
11414,15,Jits_Phase_8,2,5,80,127,1851964820
11414,15,Jits_Phase_8,3,5,63,98,1851985204
11414,15,Jits_Phase_8,0,1,48,27,1852636712
11414,15,Jits_Phase_8,1,5,63,98,1852724724
11414,15,Jits_Phase_8,2,5,56,103,1852734980
11414,15,Jits_Phase_8,3,5,80,127,1852745028
11414,15,Jits_Phase_8,0,1,48,22,1853442076
11414,15,Jits_Phase_8,1,5,80,127,1853515260
11414,15,Jits_Phase_8,2,5,56,103,1853565224
11414,15,Jits_Phase_8,3,5,63,98,1853605088
11414,15,Jits_Phase_8,0,1,48,26,1854228972
11414,15,Jits_Phase_8,1,5,80,127,1854335304
11414,15,Jits_Phase_8,2,5,63,98,1854354792
11414,15,Jits_Phase_8,3,5,56,103,1854404916
11414,15,Jits_Phase_8,0,1,48,25,1855019064
11414,15,Jits_Phase_8,1,5,80,127,1855145324
11414,15,Jits_Phase_8,2,5,56,103,1855175000
11414,15,Jits_Phase_8,3,5,63,98,1855244976
11414,15,Jits_Phase_8,0,1,48,29,1855855992
11414,15,Jits_Phase_8,1,5,56,103,1855995280
11414,15,Jits_Phase_8,2,5,80,127,1856004504
11414,15,Jits_Phase_8,3,5,63,98,1856045364
11414,15,Jits_Phase_8,0,1,48,24,1856665724
11414,15,Jits_Phase_8,1,5,56,103,1856704784
11414,15,Jits_Phase_8,2,5,63,98,1856725392
11414,15,Jits_Phase_8,3,5,80,127,1856794932
11414,15,Jits_Phase_8,0,5,63,98,1857525140
11414,15,Jits_Phase_8,1,1,48,22,1857539272
11414,15,Jits_Phase_8,2,5,80,127,1857584504
11414,15,Jits_Phase_8,3,5,56,103,1857604888
11414,15,Jits_Phase_8,0,1,48,26,1858274600
11414,15,Jits_Phase_8,1,5,80,127,1858314776
11414,15,Jits_Phase_8,2,5,56,103,1858345228
11414,15,Jits_Phase_8,3,5,63,98,1858375112
11414,15,Jits_Phase_8,0,1,48,25,1859027588
11414,15,Jits_Phase_8,1,5,56,103,1859115524
11414,15,Jits_Phase_8,2,5,63,98,1859174708
11414,15,Jits_Phase_8,3,5,80,127,1859235320
11414,15,Jits_Phase_8,0,1,48,16,1859824356
11414,15,Jits_Phase_8,1,5,80,127,1859934824
11414,15,Jits_Phase_8,2,5,56,103,1859954988
11414,15,Jits_Phase_8,3,5,63,98,1860024812
11414,15,Jits_Phase_8,0,1,48,20,1860650724
11414,15,Jits_Phase_8,1,5,80,127,1860735348
11414,15,Jits_Phase_8,2,5,63,98,1860754820
11414,15,Jits_Phase_8,3,5,56,103,1860784720
11414,15,Jits_Phase_8,0,1,48,28,1861522652
11414,15,Jits_Phase_8,1,5,80,127,1861524840
11414,15,Jits_Phase_8,2,5,63,98,1861545300
11414,15,Jits_Phase_8,3,5,56,103,1861604640
11414,15,Jits_Phase_8,0,5,80,127,1862324824
11414,15,Jits_Phase_8,1,1,48,27,1862377916
11414,15,Jits_Phase_8,2,5,56,103,1862424868
11414,15,Jits_Phase_8,3,5,63,98,1862454912
11414,15,Jits_Phase_8,0,5,63,98,1863115084
11414,15,Jits_Phase_8,1,1,48,21,1863126896
11414,15,Jits_Phase_8,2,5,80,127,1863165284
11414,15,Jits_Phase_8,3,5,56,103,1863185016
11414,15,Jits_Phase_8,0,1,48,24,1863854948
11414,15,Jits_Phase_8,1,5,80,127,1863954932
11414,15,Jits_Phase_8,2,5,56,103,1863984604
11414,15,Jits_Phase_8,3,5,63,98,1863987596
11414,15,Jits_Phase_8,0,1,48,26,1864635740
11414,15,Jits_Phase_8,1,5,63,98,1864804580
11414,15,Jits_Phase_8,2,5,56,103,1864844592
11414,15,Jits_Phase_8,3,5,80,127,1864865276
11414,15,Jits_Phase_8,0,1,48,20,1865363208
11414,15,Jits_Phase_8,1,5,80,127,1865564704
11414,15,Jits_Phase_8,2,5,63,98,1865645624
11414,15,Jits_Phase_8,3,5,56,103,1865685560
11414,15,Jits_Phase_8,0,1,48,21,1866301808
11414,15,Jits_Phase_8,1,5,63,98,1866384860
11414,15,Jits_Phase_8,2,5,80,127,1866464716
11414,15,Jits_Phase_8,3,5,56,103,1866485024
11414,15,Jits_Phase_8,0,1,48,17,1867187292
11414,15,Jits_Phase_8,1,5,56,103,1867224556
11414,15,Jits_Phase_8,2,5,63,98,1867234604
11414,15,Jits_Phase_8,3,5,80,127,1867274836
11414,15,Jits_Phase_8,0,5,56,103,1867945424
11414,15,Jits_Phase_8,1,5,80,127,1867948492
11414,15,Jits_Phase_8,2,1,48,21,1867996792
11414,15,Jits_Phase_8,3,5,63,98,1868084868
11414,15,Jits_Phase_8,0,5,56,103,1868734848
11414,15,Jits_Phase_8,1,1,48,19,1868812200
11414,15,Jits_Phase_8,2,5,63,98,1868824924
11414,15,Jits_Phase_8,3,5,80,127,1868894752
11414,15,Jits_Phase_8,0,5,63,98,1869614512
11414,15,Jits_Phase_8,1,5,80,127,1869617800
11414,15,Jits_Phase_8,2,1,48,15,1869625428
11414,15,Jits_Phase_8,3,5,56,103,1869674968
11414,15,Jits_Phase_8,0,1,48,14,1870363144
11414,15,Jits_Phase_8,1,5,80,127,1870455092
11414,15,Jits_Phase_8,2,5,56,103,1870474640
11414,15,Jits_Phase_8,3,5,63,98,1870484908
11414,15,Jits_Phase_8,0,5,56,103,1871164660
11414,15,Jits_Phase_8,1,5,63,98,1871175080
11414,15,Jits_Phase_8,2,1,48,18,1871240600
11414,15,Jits_Phase_8,3,5,80,127,1871244604
11414,15,Jits_Phase_8,0,5,80,127,1871964728
11414,15,Jits_Phase_8,1,1,48,17,1871991140
11414,15,Jits_Phase_8,2,5,56,103,1872014700
11414,15,Jits_Phase_8,3,5,63,98,1872064828
11414,15,Jits_Phase_8,0,1,48,15,1872759520
11414,15,Jits_Phase_8,1,5,56,103,1872845188
11414,15,Jits_Phase_8,2,5,63,98,1872855684
11414,15,Jits_Phase_8,3,5,80,127,1872895456
11414,15,Jits_Phase_8,0,5,56,103,1873584648
11414,15,Jits_Phase_8,1,1,48,21,1873621400
11414,15,Jits_Phase_8,2,5,63,98,1873624656
11414,15,Jits_Phase_8,3,5,80,127,1873674632
11414,15,Jits_Phase_8,0,5,80,127,1874345388
11414,15,Jits_Phase_8,1,1,48,29,1874348732
11414,15,Jits_Phase_8,2,5,56,103,1874394688
11414,15,Jits_Phase_8,3,5,63,98,1874414996
11414,15,Jits_Phase_8,0,1,48,22,1875117696
11414,15,Jits_Phase_8,1,5,80,127,1875155264
11414,15,Jits_Phase_8,2,5,63,98,1875214744
11414,15,Jits_Phase_8,3,5,56,103,1875294612
11414,15,Jits_Phase_8,0,1,48,29,1875908964
11414,15,Jits_Phase_8,1,5,80,127,1875934620
11414,15,Jits_Phase_8,2,5,56,103,1875974636
11414,15,Jits_Phase_8,3,5,63,98,1875994968
11414,15,Jits_Phase_8,0,1,48,26,1876667284
11414,15,Jits_Phase_8,1,5,56,103,1876784732
11414,15,Jits_Phase_8,2,5,80,127,1876794704
11414,15,Jits_Phase_8,3,5,63,98,1876834792
11414,15,Jits_Phase_8,0,1,48,33,1877513284
11414,15,Jits_Phase_8,1,5,56,103,1877654764
11414,15,Jits_Phase_8,2,5,63,98,1877694696
11414,15,Jits_Phase_8,3,5,80,127,1877698364
11414,15,Jits_Phase_8,0,5,63,98,1878324632
11414,15,Jits_Phase_8,1,1,48,18,1878333528
11414,15,Jits_Phase_8,2,5,80,127,1878364564
11414,15,Jits_Phase_8,3,5,56,103,1878435052
11414,15,Jits_Phase_8,0,5,63,98,1879094724
11414,15,Jits_Phase_8,1,1,48,14,1879127656
11414,15,Jits_Phase_8,2,5,56,103,1879174440
11414,15,Jits_Phase_8,3,5,80,127,1879234812
11414,15,Jits_Phase_8,0,1,48,18,1879901852
11414,15,Jits_Phase_8,1,5,80,127,1879904736
11414,15,Jits_Phase_8,2,5,63,98,1879954792
11414,15,Jits_Phase_8,3,5,56,103,1879984616
11414,15,Jits_Phase_8,0,1,48,26,1880689924
11414,15,Jits_Phase_8,1,5,56,103,1880695424
11414,15,Jits_Phase_8,2,5,63,98,1880745552
11414,15,Jits_Phase_8,3,5,80,127,1880754480
11414,15,Jits_Phase_8,0,5,56,103,1881505372
11414,15,Jits_Phase_8,1,1,48,21,1881511480
11414,15,Jits_Phase_8,2,5,63,98,1881614668
11414,15,Jits_Phase_8,3,5,80,127,1881635128
11414,15,Jits_Phase_8,0,5,63,98,1882304824
11414,15,Jits_Phase_8,1,1,48,23,1882326972
11414,15,Jits_Phase_8,2,5,80,127,1882354948
11414,15,Jits_Phase_8,3,5,56,103,1882445384
11414,15,Jits_Phase_8,0,5,63,98,1883095440
11414,15,Jits_Phase_8,1,5,80,127,1883125040
11414,15,Jits_Phase_8,2,1,48,25,1883179720
11414,15,Jits_Phase_8,3,5,56,103,1883215192
11414,15,Jits_Phase_8,0,5,63,98,1883895268
11414,15,Jits_Phase_8,1,5,56,103,1883905464
11414,15,Jits_Phase_8,2,1,48,24,1884002496
11414,15,Jits_Phase_8,3,5,80,127,1884004608
11414,15,Jits_Phase_8,0,1,48,23,1884705356
11414,15,Jits_Phase_8,1,5,63,98,1884795364
11414,15,Jits_Phase_8,2,5,80,127,1884824804
11414,15,Jits_Phase_8,3,5,56,103,1884854628
11414,15,Jits_Phase_8,0,1,48,18,1885524232
11414,15,Jits_Phase_8,1,5,80,127,1885614612
11414,15,Jits_Phase_8,2,5,63,98,1885625544
11414,15,Jits_Phase_8,3,5,56,103,1885655440
11414,15,Jits_Phase_8,0,5,80,127,1886314888
11414,15,Jits_Phase_8,1,5,63,98,1886335276
11414,15,Jits_Phase_8,2,1,48,23,1886349332
11414,15,Jits_Phase_8,3,5,56,103,1886384424
11414,15,Jits_Phase_8,0,1,48,20,1887141512
11414,15,Jits_Phase_8,1,5,63,98,1887145220
11414,15,Jits_Phase_8,2,5,80,127,1887204640
11414,15,Jits_Phase_8,3,5,56,103,1887225396
11414,15,Jits_Phase_8,0,1,48,16,1887896180
11414,15,Jits_Phase_8,1,5,63,98,1887905272
11414,15,Jits_Phase_8,2,5,56,103,1887955476
11414,15,Jits_Phase_8,3,5,80,127,1887964404
11414,15,Jits_Phase_8,0,1,48,17,1888669184
11414,15,Jits_Phase_8,1,5,56,103,1888734476
11414,15,Jits_Phase_8,2,5,80,127,1888744748
11414,15,Jits_Phase_8,3,5,63,98,1888845300
11414,15,Jits_Phase_8,0,1,48,19,1889492388
11414,15,Jits_Phase_8,1,5,80,127,1889495420
11414,15,Jits_Phase_8,2,5,63,98,1889504644
11414,15,Jits_Phase_8,3,5,56,103,1889655240
11414,15,Jits_Phase_8,0,5,63,98,1890305448
11414,15,Jits_Phase_8,1,1,48,22,1890306488
11414,15,Jits_Phase_8,2,5,80,127,1890345256
11414,15,Jits_Phase_8,3,5,56,103,1890425332
11414,15,Jits_Phase_8,0,5,56,103,1891054852
11414,15,Jits_Phase_8,1,1,48,20,1891075952
11414,15,Jits_Phase_8,2,5,80,127,1891155420
11414,15,Jits_Phase_8,3,5,63,98,1891174740
11414,15,Jits_Phase_8,0,1,48,20,1891866764
11414,15,Jits_Phase_8,1,5,80,127,1891875328
11414,15,Jits_Phase_8,2,5,56,103,1891885376
11414,15,Jits_Phase_8,3,5,63,98,1891974444
11414,15,Jits_Phase_8,0,1,48,26,1892651380
11414,15,Jits_Phase_8,1,5,56,103,1892675088
11414,15,Jits_Phase_8,2,5,63,98,1892695400
11414,15,Jits_Phase_8,3,5,80,127,1892775404
11414,15,Jits_Phase_8,0,5,63,98,1893424440
11414,15,Jits_Phase_8,1,1,48,25,1893427332
11414,15,Jits_Phase_8,2,5,56,103,1893514712
11414,15,Jits_Phase_8,3,5,80,127,1893517704
11414,15,Jits_Phase_8,0,5,56,103,1894255044
11414,15,Jits_Phase_8,1,1,48,20,1894277716
11414,15,Jits_Phase_8,2,5,80,127,1894315356
11414,15,Jits_Phase_8,3,5,63,98,1894324728
11414,15,Jits_Phase_8,0,1,48,21,1895048712
11414,15,Jits_Phase_8,1,5,80,127,1895104784
11414,15,Jits_Phase_8,2,5,56,103,1895115276
11414,15,Jits_Phase_8,3,5,63,98,1895118268
11414,15,Jits_Phase_8,0,1,48,22,1895800064
11414,15,Jits_Phase_8,1,5,56,103,1895864680
11414,15,Jits_Phase_8,2,5,80,127,1895875096
11414,15,Jits_Phase_8,3,5,63,98,1895895332
11414,15,Jits_Phase_8,0,1,48,21,1896588952
11414,15,Jits_Phase_8,1,5,63,98,1896634688
11414,15,Jits_Phase_8,2,5,80,127,1896695140
11414,15,Jits_Phase_8,3,5,56,103,1896745220
11414,15,Jits_Phase_8,0,1,48,20,1897342108
11414,15,Jits_Phase_8,1,5,63,98,1897515372
11414,15,Jits_Phase_8,2,5,56,103,1897524520
11414,15,Jits_Phase_8,3,5,80,127,1897574724
11414,15,Jits_Phase_8,0,5,63,98,1898214664
11414,15,Jits_Phase_8,1,1,48,17,1898225576
11414,15,Jits_Phase_8,2,5,80,127,1898235192
11414,15,Jits_Phase_8,3,5,56,103,1898244416
11414,15,Jits_Phase_8,0,1,48,17,1898982224
11414,15,Jits_Phase_8,1,5,63,98,1899014480
11414,15,Jits_Phase_8,2,5,80,127,1899017840
11414,15,Jits_Phase_8,3,5,56,103,1899054440
11414,15,Jits_Phase_8,0,1,48,15,1899738368
11414,15,Jits_Phase_8,1,5,63,98,1899885032
11414,15,Jits_Phase_8,2,5,80,127,1899914484
11414,15,Jits_Phase_8,3,5,56,103,1899924976
11414,15,Jits_Phase_8,0,1,48,20,1900566392
11414,15,Jits_Phase_8,1,5,56,103,1900634528
11414,15,Jits_Phase_8,2,5,80,127,1900665308
11414,15,Jits_Phase_8,3,5,63,98,1900694984
11414,15,Jits_Phase_8,0,1,48,14,1901370860
11414,15,Jits_Phase_8,1,5,63,98,1901534660
11414,15,Jits_Phase_8,2,5,56,103,1901574524
11414,15,Jits_Phase_8,3,5,80,127,1901577516
11414,15,Jits_Phase_8,0,5,80,127,1902235020
11414,15,Jits_Phase_8,1,1,48,15,1902247132
11414,15,Jits_Phase_8,2,5,56,103,1902314960
11414,15,Jits_Phase_8,3,5,63,98,1902365168
11414,15,Jits_Phase_8,0,5,80,127,1903015236
11414,15,Jits_Phase_8,1,5,56,103,1903034872
11414,15,Jits_Phase_8,2,1,48,26,1903058144
11414,15,Jits_Phase_8,3,5,63,98,1903125020
11414,15,Jits_Phase_8,0,1,48,22,1903818116
11414,15,Jits_Phase_8,1,5,80,127,1903855232
11414,15,Jits_Phase_8,2,5,63,98,1903895120
11414,15,Jits_Phase_8,3,5,56,103,1903935044
11414,15,Jits_Phase_8,0,5,63,98,1904665216
11414,15,Jits_Phase_8,1,1,48,21,1904683628
11414,15,Jits_Phase_8,2,5,80,127,1904725304
11414,15,Jits_Phase_8,3,5,56,103,1904754980
11414,15,Jits_Phase_8,0,1,48,27,1905441248
11414,15,Jits_Phase_8,1,5,56,103,1905504596
11414,15,Jits_Phase_8,2,5,80,127,1905535320
11414,15,Jits_Phase_8,3,5,63,98,1905624464
11414,15,Jits_Phase_8,0,1,48,29,1906268656
11414,15,Jits_Phase_8,1,5,56,103,1906314544
11414,15,Jits_Phase_8,2,5,80,127,1906425412
11414,15,Jits_Phase_8,3,5,63,98,1906455036
11414,15,Jits_Phase_8,0,1,48,23,1907054340
11414,15,Jits_Phase_8,1,5,56,103,1907164416
11414,15,Jits_Phase_8,2,5,63,98,1907225276
11414,15,Jits_Phase_8,3,5,80,127,1907254580
11414,15,Jits_Phase_8,0,1,48,30,1907850724
11414,15,Jits_Phase_8,1,5,56,103,1907934600
11414,15,Jits_Phase_8,2,5,63,98,1908005188
11414,15,Jits_Phase_8,3,5,80,127,1908024600
11414,15,Jits_Phase_8,0,1,48,32,1908608012
11414,15,Jits_Phase_8,1,5,80,127,1908704612
11414,15,Jits_Phase_8,2,5,63,98,1908725356
11414,15,Jits_Phase_8,3,5,56,103,1908775136
11414,15,Jits_Phase_8,0,1,48,31,1909501404
11414,15,Jits_Phase_8,1,5,63,98,1909524992
11414,15,Jits_Phase_8,2,5,80,127,1909535188
11414,15,Jits_Phase_8,3,5,56,103,1909585240
11414,15,Jits_Phase_8,0,5,63,98,1910324456
11414,15,Jits_Phase_8,1,1,48,26,1910351244
11414,15,Jits_Phase_8,2,5,80,127,1910395328
11414,15,Jits_Phase_8,3,5,56,103,1910414888
11414,15,Jits_Phase_8,0,5,63,98,1911154928
11414,15,Jits_Phase_8,1,5,80,127,1911158220
11414,15,Jits_Phase_8,2,5,56,103,1911224908
11414,15,Jits_Phase_8,3,1,48,32,1911283996
11414,15,Jits_Phase_8,0,5,80,127,1911904636
11414,15,Jits_Phase_8,1,1,48,18,1911925320
11414,15,Jits_Phase_8,2,5,56,103,1911926508
11414,15,Jits_Phase_8,3,5,63,98,1911935360
11414,15,Jits_Phase_8,0,5,56,103,1912725080
11414,15,Jits_Phase_8,1,1,48,26,1912743492
11414,15,Jits_Phase_8,2,5,63,98,1912814984
11414,15,Jits_Phase_8,3,5,80,127,1912818420
11414,15,Jits_Phase_8,0,5,80,127,1913495100
11414,15,Jits_Phase_8,1,5,56,103,1913505148
11414,15,Jits_Phase_8,2,5,63,98,1913524784
11414,15,Jits_Phase_8,0,5,63,98,1914294976
11414,15,Jits_Phase_8,1,1,48,17,1914339000
11414,15,Jits_Phase_8,2,5,80,127,1914355140
11414,15,Jits_Phase_8,3,5,56,103,1914365264
11414,15,Jits_Phase_8,0,1,48,20,1915084368
11414,15,Jits_Phase_8,1,5,63,98,1915165180
11414,15,Jits_Phase_8,2,5,80,127,1915194768
11414,15,Jits_Phase_8,3,5,56,103,1915234928
11414,15,Jits_Phase_8,0,1,48,20,1915869060
11414,15,Jits_Phase_8,1,5,56,103,1915954456
11414,15,Jits_Phase_8,2,5,80,127,1915964712
11414,15,Jits_Phase_8,3,5,63,98,1916004724
11414,15,Jits_Phase_8,0,1,48,15,1916700312
11414,15,Jits_Phase_8,1,5,80,127,1916715332
11414,15,Jits_Phase_8,2,5,56,103,1916795264
11414,15,Jits_Phase_8,3,5,63,98,1916804488
11414,15,Jits_Phase_8,0,1,48,18,1917476628
11414,15,Jits_Phase_8,1,5,80,127,1917565288
11414,15,Jits_Phase_8,2,5,56,103,1917645144
11414,15,Jits_Phase_8,3,5,63,98,1917655416
11414,15,Jits_Phase_8,0,1,48,22,1918310484
11414,15,Jits_Phase_8,1,5,80,127,1918404920
11414,15,Jits_Phase_8,2,5,56,103,1918455256
11414,15,Jits_Phase_8,3,5,63,98,1918505256
11414,15,Jits_Phase_8,0,1,48,14,1919201780
11414,15,Jits_Phase_8,1,5,56,103,1919344924
11414,15,Jits_Phase_8,2,5,63,98,1919347996
11414,15,Jits_Phase_8,3,5,80,127,1919395276
11414,15,Jits_Phase_8,0,1,48,15,1920035288
11414,15,Jits_Phase_8,1,5,56,103,1920165212
11414,15,Jits_Phase_8,2,5,63,98,1920194888
11414,15,Jits_Phase_8,3,5,80,127,1920205156
11414,15,Jits_Phase_8,0,1,48,16,1920868836
11414,15,Jits_Phase_8,1,5,63,98,1920875084
11414,15,Jits_Phase_8,2,5,56,103,1920944616
11414,15,Jits_Phase_8,3,5,80,127,1920994952
11414,15,Jits_Phase_8,0,1,48,19,1921627612
11414,15,Jits_Phase_8,1,5,63,98,1921705408
11414,15,Jits_Phase_8,2,5,56,103,1921714632
11414,15,Jits_Phase_8,3,5,80,127,1921717548
11414,15,Jits_Phase_8,0,1,48,15,1922439568
11414,15,Jits_Phase_8,1,5,80,127,1922454808
11414,15,Jits_Phase_8,2,5,56,103,1922515272
11414,15,Jits_Phase_8,3,5,63,98,1922605412
11414,15,Jits_Phase_8,0,1,48,18,1923207260
11414,15,Jits_Phase_8,1,5,80,127,1923254940
11414,15,Jits_Phase_8,2,5,56,103,1923354972
11414,15,Jits_Phase_8,3,5,63,98,1923394912
11414,15,Jits_Phase_8,0,1,48,17,1924006048
11414,15,Jits_Phase_8,1,5,56,103,1924104728
11414,15,Jits_Phase_8,2,5,63,98,1924124992
11414,15,Jits_Phase_8,3,5,80,127,1924164928
11414,15,Jits_Phase_8,0,1,48,18,1924743552
11414,15,Jits_Phase_8,1,5,63,98,1924874968
11414,15,Jits_Phase_8,2,5,56,103,1924895148
11414,15,Jits_Phase_8,3,5,80,127,1924994344
11414,15,Jits_Phase_8,0,1,48,19,1925595816
11414,15,Jits_Phase_8,1,5,63,98,1925665168
11414,15,Jits_Phase_8,2,5,80,127,1925774696
11414,15,Jits_Phase_8,3,5,56,103,1925805340
11414,15,Jits_Phase_8,0,1,48,14,1926372112
11414,15,Jits_Phase_8,1,5,56,103,1926485220
11414,15,Jits_Phase_8,2,5,63,98,1926514972
11414,15,Jits_Phase_8,3,5,80,127,1926565096
11414,15,Jits_Phase_8,0,1,48,16,1927248696
11414,15,Jits_Phase_8,1,5,63,98,1927255472
11414,15,Jits_Phase_8,2,5,56,103,1927285000
11414,15,Jits_Phase_8,3,5,80,127,1927335424
11414,15,Jits_Phase_8,0,1,48,20,1927944296
11414,15,Jits_Phase_8,1,5,56,103,1928084952
11414,15,Jits_Phase_8,2,5,63,98,1928105188
11414,15,Jits_Phase_8,3,5,80,127,1928185204
11414,15,Jits_Phase_8,0,1,48,23,1928845816
11414,15,Jits_Phase_8,1,5,63,98,1928854904
11414,15,Jits_Phase_8,2,5,56,103,1928915224
11414,15,Jits_Phase_8,3,5,80,127,1928945032
11414,15,Jits_Phase_8,0,5,56,103,1929694824
11414,15,Jits_Phase_8,1,1,48,22,1929704692
11414,15,Jits_Phase_8,2,5,80,127,1929754936
11414,15,Jits_Phase_8,3,5,63,98,1929795020
11414,15,Jits_Phase_8,0,5,63,98,1930474820
11414,15,Jits_Phase_8,1,1,48,19,1930496740
11414,15,Jits_Phase_8,2,5,56,103,1930535228
11414,15,Jits_Phase_8,3,5,80,127,1930604892
11414,15,Jits_Phase_8,0,1,48,19,1931309700
11414,15,Jits_Phase_8,1,5,56,103,1931354612
11414,15,Jits_Phase_8,2,5,63,98,1931364660
11414,15,Jits_Phase_8,3,5,80,127,1931368096
11414,15,Jits_Phase_8,0,5,63,98,1932094956
11414,15,Jits_Phase_8,1,1,48,25,1932149768
11414,15,Jits_Phase_8,2,5,56,103,1932155112
11414,15,Jits_Phase_8,3,5,80,127,1932158404
11414,15,Jits_Phase_8,0,1,48,20,1932874400
11414,15,Jits_Phase_8,1,5,63,98,1932875820
11414,15,Jits_Phase_8,2,5,80,127,1932904820
11414,15,Jits_Phase_8,3,5,56,103,1932925280
11414,15,Jits_Phase_8,0,5,56,103,1933605672
11414,15,Jits_Phase_8,1,5,63,98,1933655356
11414,15,Jits_Phase_8,2,1,48,18,1933667988
11414,15,Jits_Phase_8,3,5,80,127,1933735216
11414,15,Jits_Phase_8,0,5,80,127,1934304672
11414,15,Jits_Phase_8,1,5,63,98,1934344536
11414,15,Jits_Phase_8,2,5,56,103,1934365020
11414,15,Jits_Phase_8,3,1,48,18,1934368136
11414,15,Jits_Phase_8,0,1,48,19,1934992556
11414,15,Jits_Phase_8,1,5,56,103,1935175016
11414,15,Jits_Phase_8,2,5,80,127,1935185288
11414,15,Jits_Phase_8,3,5,63,98,1935204700
11414,15,Jits_Phase_8,0,1,48,22,1935840020
11414,15,Jits_Phase_8,1,5,56,103,1935955444
11414,15,Jits_Phase_8,2,5,63,98,1936004600
11414,15,Jits_Phase_8,3,5,80,127,1936035100
11414,15,Jits_Phase_8,0,1,48,25,1936597456
11414,15,Jits_Phase_8,1,5,56,103,1936704856
11414,15,Jits_Phase_8,2,5,63,98,1936715056
11414,15,Jits_Phase_8,3,5,80,127,1936765480
11414,15,Jits_Phase_8,0,1,48,29,1937342972
11414,15,Jits_Phase_8,1,5,56,103,1937495464
11414,15,Jits_Phase_8,2,5,80,127,1937498604
11414,15,Jits_Phase_8,3,5,63,98,1937655120
11414,15,Jits_Phase_8,0,1,48,23,1938184376
11414,15,Jits_Phase_8,1,5,63,98,1938314624
11414,15,Jits_Phase_8,2,5,56,103,1938385276
11414,15,Jits_Phase_8,3,5,80,127,1938425140
11414,15,Jits_Phase_8,0,1,48,24,1939012932
11414,15,Jits_Phase_8,1,5,63,98,1939155436
11414,15,Jits_Phase_8,2,5,56,103,1939245668
11414,15,Jits_Phase_8,3,5,80,127,1939248584
11414,15,Jits_Phase_8,0,1,48,29,1939800460
11414,15,Jits_Phase_8,1,5,56,103,1939934588
11414,15,Jits_Phase_8,2,5,63,98,1940024900
11414,15,Jits_Phase_8,3,5,80,127,1940034872
11414,15,Jits_Phase_8,0,1,48,16,1940643016
11414,15,Jits_Phase_8,1,5,56,103,1940704620
11414,15,Jits_Phase_8,2,5,63,98,1940754764
11414,15,Jits_Phase_8,3,5,80,127,1940784660
11414,15,Jits_Phase_8,0,1,48,25,1941362904
11414,15,Jits_Phase_8,1,5,63,98,1941585376
11414,15,Jits_Phase_8,2,5,80,127,1941594676
11414,15,Jits_Phase_8,3,5,56,103,1941654840
11414,15,Jits_Phase_8,0,1,48,25,1942248592
11414,15,Jits_Phase_8,1,5,63,98,1942305064
11414,15,Jits_Phase_8,2,5,80,127,1942364620
11414,15,Jits_Phase_8,3,5,56,103,1942404704
11414,15,Jits_Phase_8,0,1,48,21,1943029316
11414,15,Jits_Phase_8,1,5,56,103,1943205200
11414,15,Jits_Phase_8,2,5,80,127,1943224764
11414,15,Jits_Phase_8,3,5,63,98,1943245148
11414,15,Jits_Phase_8,0,1,48,19,1943902076
11414,15,Jits_Phase_8,1,5,63,98,1943925040
11414,15,Jits_Phase_8,2,5,56,103,1943944456
11414,15,Jits_Phase_8,3,5,80,127,1943984392
11414,15,Jits_Phase_8,0,1,48,26,1944700264
11414,15,Jits_Phase_8,1,5,63,98,1944735212
11414,15,Jits_Phase_8,2,5,80,127,1944764740
11414,15,Jits_Phase_8,3,5,56,103,1944785272
11414,15,Jits_Phase_8,0,5,80,127,1945505156
11414,15,Jits_Phase_8,1,1,48,19,1945515696
11414,15,Jits_Phase_8,2,5,56,103,1945555500
11414,15,Jits_Phase_8,3,5,63,98,1945614704
11414,15,Jits_Phase_8,0,5,63,98,1946294592
11414,15,Jits_Phase_8,1,1,48,18,1946342672
11414,15,Jits_Phase_8,2,5,56,103,1946414636
11414,15,Jits_Phase_8,3,5,80,127,1946445044
11414,15,Jits_Phase_8,0,1,48,21,1947063680
11414,15,Jits_Phase_8,1,5,80,127,1947135472
11414,15,Jits_Phase_8,2,5,63,98,1947154688
11414,15,Jits_Phase_8,3,5,56,103,1947224576
11414,15,Jits_Phase_8,0,1,48,23,1947842688
11414,15,Jits_Phase_8,1,5,63,98,1947954648
11414,15,Jits_Phase_8,2,5,56,103,1947964696
11414,15,Jits_Phase_8,3,5,80,127,1948044640
11414,15,Jits_Phase_8,0,1,48,20,1948694384
11414,15,Jits_Phase_8,1,5,56,103,1948814648
11414,15,Jits_Phase_8,2,5,80,127,1948845368
11414,15,Jits_Phase_8,3,5,63,98,1948854592
11414,15,Jits_Phase_8,0,9999,9999,9999,1813973088
11414,15,Jits_Phase_8,1,9999,9999,9999,1814772860
11414,15,Jits_Phase_8,2,9999,9999,9999,1815572584
11414,15,Jits_Phase_8,3,9999,9999,9999,1816372284
11414,15,Jits_Phase_8,4,9999,9999,9999,1817173100
11414,15,Jits_Phase_8,5,9999,9999,9999,1817972860
11414,15,Jits_Phase_8,6,9999,9999,9999,1818772544
11414,15,Jits_Phase_8,7,9999,9999,9999,1819572316
11414,15,Jits_Phase_8,8,9999,9999,9999,1820373052
11414,15,Jits_Phase_8,9,9999,9999,9999,1821172796
11414,15,Jits_Phase_8,10,9999,9999,9999,1821972588
11414,15,Jits_Phase_8,11,9999,9999,9999,1822772348
11414,15,Jits_Phase_8,12,9999,9999,9999,1823573096
11414,15,Jits_Phase_8,13,9999,9999,9999,1824372792
11414,15,Jits_Phase_8,14,9999,9999,9999,1825172536
11414,15,Jits_Phase_8,15,9999,9999,9999,1825972284
11414,15,Jits_Phase_8,16,9999,9999,9999,1826773072
11414,15,Jits_Phase_8,17,9999,9999,9999,1827572836
11414,15,Jits_Phase_8,18,9999,9999,9999,1828372552
11414,15,Jits_Phase_8,19,9999,9999,9999,1829172312
11414,15,Jits_Phase_8,20,9999,9999,9999,1829973088
11414,15,Jits_Phase_8,21,9999,9999,9999,1830772848
11414,15,Jits_Phase_8,22,9999,9999,9999,1831572596
11414,15,Jits_Phase_8,23,9999,9999,9999,1832372352
11414,15,Jits_Phase_8,24,9999,9999,9999,1833173084
11414,15,Jits_Phase_8,25,9999,9999,9999,1833972840
11414,15,Jits_Phase_8,26,9999,9999,9999,1834772552
11414,15,Jits_Phase_8,27,9999,9999,9999,1835572312
11414,15,Jits_Phase_8,28,9999,9999,9999,1836373116
11414,15,Jits_Phase_8,29,9999,9999,9999,1837172804
11414,15,Jits_Phase_8,30,9999,9999,9999,1837952108
11414,15,Jits_Phase_8,31,9999,9999,9999,1838752844
11414,15,Jits_Phase_8,32,9999,9999,9999,1839552596
11414,15,Jits_Phase_8,33,9999,9999,9999,1840352352
11414,15,Jits_Phase_8,34,9999,9999,9999,1841152112
11414,15,Jits_Phase_8,35,9999,9999,9999,1841952872
11414,15,Jits_Phase_8,36,9999,9999,9999,1842752640
11414,15,Jits_Phase_8,37,9999,9999,9999,1843552324
11414,15,Jits_Phase_8,38,9999,9999,9999,1844352076
11414,15,Jits_Phase_8,39,9999,9999,9999,1845152884
11414,15,Jits_Phase_8,40,9999,9999,9999,1845952568
11414,15,Jits_Phase_8,41,9999,9999,9999,1846752328
11414,15,Jits_Phase_8,42,9999,9999,9999,1847552076
11414,15,Jits_Phase_8,43,9999,9999,9999,1848352896
11414,15,Jits_Phase_8,44,9999,9999,9999,1849152640
11414,15,Jits_Phase_8,45,9999,9999,9999,1849952324
11414,15,Jits_Phase_8,46,9999,9999,9999,1850752080
11414,15,Jits_Phase_8,47,9999,9999,9999,1851552876
11414,15,Jits_Phase_8,48,9999,9999,9999,1852373088
11414,15,Jits_Phase_8,49,9999,9999,9999,1853172836
11414,15,Jits_Phase_8,50,9999,9999,9999,1853972548
11414,15,Jits_Phase_8,51,9999,9999,9999,1854772300
11414,15,Jits_Phase_8,52,9999,9999,9999,1855573104
11414,15,Jits_Phase_8,53,9999,9999,9999,1856372796
11414,15,Jits_Phase_8,54,9999,9999,9999,1857172552
11414,15,Jits_Phase_8,55,9999,9999,9999,1857972308
11414,15,Jits_Phase_8,56,9999,9999,9999,1858773108
11414,15,Jits_Phase_8,57,9999,9999,9999,1859572864
11414,15,Jits_Phase_8,58,9999,9999,9999,1860372572
11414,15,Jits_Phase_8,59,9999,9999,9999,1861172328
11414,15,Jits_Phase_8,60,9999,9999,9999,1861973056
11414,15,Jits_Phase_8,61,9999,9999,9999,1862772820
11414,15,Jits_Phase_8,62,9999,9999,9999,1863572588
11414,15,Jits_Phase_8,63,9999,9999,9999,1864372340
11414,15,Jits_Phase_8,64,9999,9999,9999,1865213004
11414,15,Jits_Phase_8,65,9999,9999,9999,1866012792
11414,15,Jits_Phase_8,66,9999,9999,9999,1866812480
11414,15,Jits_Phase_8,67,9999,9999,9999,1867612240
11414,15,Jits_Phase_8,68,9999,9999,9999,1868413032
11414,15,Jits_Phase_8,69,9999,9999,9999,1869212728
11414,15,Jits_Phase_8,70,9999,9999,9999,1870012500
11414,15,Jits_Phase_8,71,9999,9999,9999,1870812268
11414,15,Jits_Phase_8,72,9999,9999,9999,1871612992
11414,15,Jits_Phase_8,73,9999,9999,9999,1872412792
11414,15,Jits_Phase_8,74,9999,9999,9999,1873212500
11414,15,Jits_Phase_8,75,9999,9999,9999,1874012264
11414,15,Jits_Phase_8,76,9999,9999,9999,1874813004
11414,15,Jits_Phase_8,77,9999,9999,9999,1875612752
11414,15,Jits_Phase_8,78,9999,9999,9999,1876412504
11414,15,Jits_Phase_8,79,9999,9999,9999,1877212260
11414,15,Jits_Phase_8,80,9999,9999,9999,1878012992
11414,15,Jits_Phase_8,81,9999,9999,9999,1878772820
11414,15,Jits_Phase_8,82,9999,9999,9999,1879572604
11414,15,Jits_Phase_8,83,9999,9999,9999,1880372284
11414,15,Jits_Phase_8,84,9999,9999,9999,1881173084
11414,15,Jits_Phase_8,85,9999,9999,9999,1881972820
11414,15,Jits_Phase_8,86,9999,9999,9999,1882772592
11414,15,Jits_Phase_8,87,9999,9999,9999,1883572348
11414,15,Jits_Phase_8,88,9999,9999,9999,1884373072
11414,15,Jits_Phase_8,89,9999,9999,9999,1885172840
11414,15,Jits_Phase_8,90,9999,9999,9999,1885972560
11414,15,Jits_Phase_8,91,9999,9999,9999,1886772316
11414,15,Jits_Phase_8,92,9999,9999,9999,1887573064
11414,15,Jits_Phase_8,93,9999,9999,9999,1888372820
11414,15,Jits_Phase_8,94,9999,9999,9999,1889172580
11414,15,Jits_Phase_8,95,9999,9999,9999,1889972336
11414,15,Jits_Phase_8,96,9999,9999,9999,1890773064
11414,15,Jits_Phase_8,97,9999,9999,9999,1891492956
11414,15,Jits_Phase_8,98,9999,9999,9999,1892292736
11414,15,Jits_Phase_8,99,9999,9999,9999,1893092420
11414,15,Jits_Phase_8,100,9999,9999,9999,1893892172
11414,15,Jits_Phase_8,101,9999,9999,9999,1894692992
11414,15,Jits_Phase_8,102,9999,9999,9999,1895492688
11414,15,Jits_Phase_8,103,9999,9999,9999,1896292444
11414,15,Jits_Phase_8,104,9999,9999,9999,1897092200
11414,15,Jits_Phase_8,105,9999,9999,9999,1897892940
11414,15,Jits_Phase_8,106,9999,9999,9999,1898692688
11414,15,Jits_Phase_8,107,9999,9999,9999,1899492424
11414,15,Jits_Phase_8,108,9999,9999,9999,1900292188
11414,15,Jits_Phase_8,109,9999,9999,9999,1901092932
11414,15,Jits_Phase_8,110,9999,9999,9999,1901892692
11414,15,Jits_Phase_8,111,9999,9999,9999,1902692452
11414,15,Jits_Phase_8,112,9999,9999,9999,1903492216
11414,15,Jits_Phase_8,113,9999,9999,9999,1904292964
11414,15,Jits_Phase_8,114,9999,9999,9999,1905172536
11414,15,Jits_Phase_8,115,9999,9999,9999,1905972292
11414,15,Jits_Phase_8,116,9999,9999,9999,1906773104
11414,15,Jits_Phase_8,117,9999,9999,9999,1907572796
11414,15,Jits_Phase_8,118,9999,9999,9999,1908372556
11414,15,Jits_Phase_8,119,9999,9999,9999,1909172308
11414,15,Jits_Phase_8,120,9999,9999,9999,1909973108
11414,15,Jits_Phase_8,121,9999,9999,9999,1910772796
11414,15,Jits_Phase_8,122,9999,9999,9999,1911572568
11414,15,Jits_Phase_8,123,9999,9999,9999,1912372324
11414,15,Jits_Phase_8,124,9999,9999,9999,1913173060
11414,15,Jits_Phase_8,125,9999,9999,9999,1913972848
11414,15,Jits_Phase_8,126,9999,9999,9999,1914772560
11414,15,Jits_Phase_8,127,9999,9999,9999,1915572324
11414,15,Jits_Phase_8,128,9999,9999,9999,1916373056
11414,15,Jits_Phase_8,129,9999,9999,9999,1917172816
11414,15,Jits_Phase_8,130,9999,9999,9999,1917972536
11414,15,Jits_Phase_8,131,9999,9999,9999,1918933068
11414,15,Jits_Phase_8,132,9999,9999,9999,1919732824
11414,15,Jits_Phase_8,133,9999,9999,9999,1920532540
11414,15,Jits_Phase_8,134,9999,9999,9999,1921332300
11414,15,Jits_Phase_8,135,9999,9999,9999,1922133088
11414,15,Jits_Phase_8,136,9999,9999,9999,1922932844
11414,15,Jits_Phase_8,137,9999,9999,9999,1923732604
11414,15,Jits_Phase_8,138,9999,9999,9999,1924532288
11414,15,Jits_Phase_8,139,9999,9999,9999,1925333084
11414,15,Jits_Phase_8,140,9999,9999,9999,1926132844
11414,15,Jits_Phase_8,141,9999,9999,9999,1926932552
11414,15,Jits_Phase_8,142,9999,9999,9999,1927732308
11414,15,Jits_Phase_8,143,9999,9999,9999,1928533108
11414,15,Jits_Phase_8,144,9999,9999,9999,1929332864
11414,15,Jits_Phase_8,145,9999,9999,9999,1930132548
11414,15,Jits_Phase_8,146,9999,9999,9999,1930932324
11414,15,Jits_Phase_8,147,9999,9999,9999,1931733048
11414,15,Jits_Phase_8,148,9999,9999,9999,1932532796
11414,15,Jits_Phase_8,149,9999,9999,9999,1933332576
11414,15,Jits_Phase_8,150,9999,9999,9999,1933972588
11414,15,Jits_Phase_8,151,9999,9999,9999,1934772284
11414,15,Jits_Phase_8,152,9999,9999,9999,1935573104
11414,15,Jits_Phase_8,153,9999,9999,9999,1936372792
11414,15,Jits_Phase_8,154,9999,9999,9999,1937172568
11414,15,Jits_Phase_8,155,9999,9999,9999,1937972316
11414,15,Jits_Phase_8,156,9999,9999,9999,1938773120
11414,15,Jits_Phase_8,157,9999,9999,9999,1939572800
11414,15,Jits_Phase_8,158,9999,9999,9999,1940372564
11414,15,Jits_Phase_8,159,9999,9999,9999,1941172320
11414,15,Jits_Phase_8,160,9999,9999,9999,1941973056
11414,15,Jits_Phase_8,161,9999,9999,9999,1942772812
11414,15,Jits_Phase_8,162,9999,9999,9999,1943572600
11414,15,Jits_Phase_8,163,9999,9999,9999,1944372284
11414,15,Jits_Phase_8,164,9999,9999,9999,1945173088
11414,15,Jits_Phase_8,165,9999,9999,9999,1945972848
11414,15,Jits_Phase_8,166,9999,9999,9999,1946772548
11414,15,Jits_Phase_8,167,9999,9999,9999,1947572308
11414,15,Jits_Phase_8,168,9999,9999,9999,1948373116
11414,15,Jits_Phase_8,169,9999,9999,9999,1949172808
11415,17,Jits_Phase_5,0,5,56,103,1957496268
11415,17,Jits_Phase_5,1,5,63,98,1957499368
11415,17,Jits_Phase_5,2,5,80,127,1957502560
11415,17,Jits_Phase_5,0,5,56,103,1957996052
11415,17,Jits_Phase_5,1,5,63,98,1957999228
11415,17,Jits_Phase_5,2,5,80,127,1958002272
11415,17,Jits_Phase_5,0,5,56,103,1958495556
11415,17,Jits_Phase_5,1,5,80,127,1958505828
11415,17,Jits_Phase_5,2,5,63,98,1958526284
11415,17,Jits_Phase_5,3,1,48,38,1958529256
11415,17,Jits_Phase_5,0,5,63,98,1958946248
11415,17,Jits_Phase_5,1,1,48,27,1958972132
11415,17,Jits_Phase_5,2,5,80,127,1958975992
11415,17,Jits_Phase_5,3,5,56,103,1958986556
11415,17,Jits_Phase_5,0,1,48,29,1959463408
11415,17,Jits_Phase_5,1,5,80,127,1959506224
11415,17,Jits_Phase_5,2,5,56,103,1959515448
11415,17,Jits_Phase_5,3,5,63,98,1959546392
11415,17,Jits_Phase_5,0,5,63,98,1959995724
11415,17,Jits_Phase_5,1,1,48,28,1959999140
11415,17,Jits_Phase_5,2,5,56,103,1960025392
11415,17,Jits_Phase_5,3,5,80,127,1960035660
11415,17,Jits_Phase_5,0,5,56,103,1960446376
11415,17,Jits_Phase_5,1,1,48,21,1960489304
11415,17,Jits_Phase_5,2,5,63,98,1960495400
11415,17,Jits_Phase_5,3,5,80,127,1960516084
11415,17,Jits_Phase_5,0,5,80,127,1960946216
11415,17,Jits_Phase_5,1,1,48,24,1960973720
11415,17,Jits_Phase_5,2,5,63,98,1960996288
11415,17,Jits_Phase_5,3,5,56,103,1961036372
11415,17,Jits_Phase_5,0,1,48,18,1961432004
11415,17,Jits_Phase_5,1,5,56,103,1961445680
11415,17,Jits_Phase_5,2,5,63,98,1961475576
11415,17,Jits_Phase_5,3,5,80,127,1961546312
11415,17,Jits_Phase_5,0,5,56,103,1961945436
11415,17,Jits_Phase_5,1,1,48,20,1961947224
11415,17,Jits_Phase_5,2,5,80,127,1962005840
11415,17,Jits_Phase_5,3,5,63,98,1962035588
11415,17,Jits_Phase_5,0,5,56,103,1962456432
11415,17,Jits_Phase_5,1,1,48,18,1962464980
11415,17,Jits_Phase_5,2,5,63,98,1962466472
11415,17,Jits_Phase_5,3,5,80,127,1962505508
11415,17,Jits_Phase_5,0,1,48,21,1962943732
11415,17,Jits_Phase_5,1,5,63,98,1962945848
11415,17,Jits_Phase_5,2,5,80,127,1963025816
11415,17,Jits_Phase_5,3,5,56,103,1963036592
11415,17,Jits_Phase_5,0,1,48,25,1963485060
11415,17,Jits_Phase_5,1,5,63,98,1963495648
11415,17,Jits_Phase_5,2,5,56,103,1963535604
11415,17,Jits_Phase_5,3,5,80,127,1963538896
11415,17,Jits_Phase_5,0,5,56,103,1963955544
11415,17,Jits_Phase_5,1,5,63,98,1963965740
11415,17,Jits_Phase_5,2,5,80,127,1964005676
11415,17,Jits_Phase_5,3,1,48,27,1964007088
11415,17,Jits_Phase_5,0,5,56,103,1964446160
11415,17,Jits_Phase_5,1,5,63,98,1964449152
11415,17,Jits_Phase_5,2,5,80,127,1964465424
11415,17,Jits_Phase_5,3,1,48,17,1964479552
11415,17,Jits_Phase_5,0,1,48,21,1964916212
11415,17,Jits_Phase_5,1,5,80,127,1964956092
11415,17,Jits_Phase_5,2,5,56,103,1964966364
11415,17,Jits_Phase_5,3,5,63,98,1965036024
11415,17,Jits_Phase_5,0,1,48,25,1965429216
11415,17,Jits_Phase_5,1,5,63,98,1965445356
11415,17,Jits_Phase_5,2,5,56,103,1965466112
11415,17,Jits_Phase_5,3,5,80,127,1965546036
11415,17,Jits_Phase_5,0,1,48,26,1965896084
11415,17,Jits_Phase_5,1,5,56,103,1965955372
11415,17,Jits_Phase_5,2,5,80,127,1965996416
11415,17,Jits_Phase_5,3,5,63,98,1966005564
11415,17,Jits_Phase_5,0,1,48,29,1966426256
11415,17,Jits_Phase_5,1,5,80,127,1966446056
11415,17,Jits_Phase_5,2,5,63,98,1966475508
11415,17,Jits_Phase_5,3,5,56,103,1966515444
11415,17,Jits_Phase_5,0,5,56,103,1966966036
11415,17,Jits_Phase_5,1,1,48,33,1966982632
11415,17,Jits_Phase_5,2,5,63,98,1966995704
11415,17,Jits_Phase_5,3,5,80,127,1967046272
11415,17,Jits_Phase_5,0,5,80,127,1967465800
11415,17,Jits_Phase_5,1,5,56,103,1967505812
11415,17,Jits_Phase_5,2,5,63,98,1967516156
11415,17,Jits_Phase_5,3,1,48,28,1967534640
11415,17,Jits_Phase_5,0,5,80,127,1967956348
11415,17,Jits_Phase_5,1,1,48,20,1967990776
11415,17,Jits_Phase_5,2,5,63,98,1967996204
11415,17,Jits_Phase_5,3,5,56,103,1968055692
11415,17,Jits_Phase_5,0,1,48,14,1968427608
11415,17,Jits_Phase_5,1,5,56,103,1968456104
11415,17,Jits_Phase_5,2,5,80,127,1968466152
11415,17,Jits_Phase_5,3,5,63,98,1968546152
11415,17,Jits_Phase_5,0,5,80,127,1968955636
11415,17,Jits_Phase_5,1,1,48,19,1968959872
11415,17,Jits_Phase_5,2,5,63,98,1969016240
11415,17,Jits_Phase_5,3,5,56,103,1969046136
11415,17,Jits_Phase_5,0,5,56,103,1969455396
11415,17,Jits_Phase_5,1,1,48,28,1969468628
11415,17,Jits_Phase_5,2,5,80,127,1969516004
11415,17,Jits_Phase_5,3,5,63,98,1969556236
11415,17,Jits_Phase_5,0,1,48,21,1969965696
11415,17,Jits_Phase_5,1,5,56,103,1970006324
11415,17,Jits_Phase_5,2,5,63,98,1970015548
11415,17,Jits_Phase_5,3,5,80,127,1970019056
11415,17,Jits_Phase_5,0,1,48,20,1970436864
11415,17,Jits_Phase_5,1,5,80,127,1970455944
11415,17,Jits_Phase_5,2,5,63,98,1970546060
11415,17,Jits_Phase_5,3,5,56,103,1970556404
11415,17,Jits_Phase_5,0,1,48,24,1970947256
11415,17,Jits_Phase_5,1,5,56,103,1970955824
11415,17,Jits_Phase_5,2,5,63,98,1970958772
11415,17,Jits_Phase_5,3,5,80,127,1970962116
11415,17,Jits_Phase_5,0,1,48,22,1971428840
11415,17,Jits_Phase_5,1,5,80,127,1971475944
11415,17,Jits_Phase_5,2,5,63,98,1971526128
11415,17,Jits_Phase_5,3,5,56,103,1971555804
11415,17,Jits_Phase_5,0,1,48,25,1971946652
11415,17,Jits_Phase_5,1,5,56,103,1971956112
11415,17,Jits_Phase_5,2,5,80,127,1971966384
11415,17,Jits_Phase_5,3,5,63,98,1972036012
11415,17,Jits_Phase_5,0,1,48,20,1972441816
11415,17,Jits_Phase_5,1,5,56,103,1972466124
11415,17,Jits_Phase_5,2,5,63,98,1972485464
11415,17,Jits_Phase_5,3,5,80,127,1972546008
11415,17,Jits_Phase_5,0,1,48,21,1972933544
11415,17,Jits_Phase_5,1,5,80,127,1972946392
11415,17,Jits_Phase_5,2,5,63,98,1973016020
11415,17,Jits_Phase_5,3,5,56,103,1973036536
11415,17,Jits_Phase_5,0,1,48,23,1973461836
11415,17,Jits_Phase_5,1,5,80,127,1973465548
11415,17,Jits_Phase_5,2,5,56,103,1973475892
11415,17,Jits_Phase_5,3,5,63,98,1973486160
11415,17,Jits_Phase_5,0,1,48,23,1973952440
11415,17,Jits_Phase_5,1,5,80,127,1973956152
11415,17,Jits_Phase_5,2,5,56,103,1973976460
11415,17,Jits_Phase_5,3,5,63,98,1974046088
11415,17,Jits_Phase_5,0,1,48,20,1974436844
11415,17,Jits_Phase_5,1,5,56,103,1974465940
11415,17,Jits_Phase_5,2,5,80,127,1974495540
11415,17,Jits_Phase_5,3,5,63,98,1974516220
11415,17,Jits_Phase_5,0,1,48,21,1974945732
11415,17,Jits_Phase_5,1,5,63,98,1974956396
11415,17,Jits_Phase_5,2,5,56,103,1975015812
11415,17,Jits_Phase_5,3,5,80,127,1975045620
11415,17,Jits_Phase_5,0,1,48,21,1975423224
11415,17,Jits_Phase_5,1,5,63,98,1975446104
11415,17,Jits_Phase_5,2,5,80,127,1975449320
11415,17,Jits_Phase_5,3,5,56,103,1975536144
11415,17,Jits_Phase_5,0,1,48,27,1975958932
11415,17,Jits_Phase_5,1,5,56,103,1975966000
11415,17,Jits_Phase_5,2,5,63,98,1975996048
11415,17,Jits_Phase_5,3,5,80,127,1976035836
11415,17,Jits_Phase_5,0,5,63,98,1976465908
11415,17,Jits_Phase_5,1,5,56,103,1976506068
11415,17,Jits_Phase_5,2,5,80,127,1976526080
11415,17,Jits_Phase_5,3,1,48,28,1976710048
11415,17,Jits_Phase_5,0,5,63,98,1976975848
11415,17,Jits_Phase_5,1,5,56,103,1977015636
11415,17,Jits_Phase_5,2,5,80,127,1977025980
11415,17,Jits_Phase_5,3,1,48,17,1977136772
11415,17,Jits_Phase_5,0,5,80,127,1977456120
11415,17,Jits_Phase_5,1,1,48,19,1977520296
11415,17,Jits_Phase_5,2,5,63,98,1977525572
11415,17,Jits_Phase_5,3,5,56,103,1977546028
11415,17,Jits_Phase_5,0,5,56,103,1977945328
11415,17,Jits_Phase_5,1,5,80,127,1977965932
11415,17,Jits_Phase_5,2,1,48,18,1977968680
11415,17,Jits_Phase_5,3,5,63,98,1978006160
11415,17,Jits_Phase_5,0,5,63,98,1978456472
11415,17,Jits_Phase_5,1,1,48,18,1978457512
11415,17,Jits_Phase_5,2,5,80,127,1978475880
11415,17,Jits_Phase_5,3,5,56,103,1978516036
11415,17,Jits_Phase_5,0,1,48,20,1978925996
11415,17,Jits_Phase_5,1,5,63,98,1978956140
11415,17,Jits_Phase_5,2,5,56,103,1978975552
11415,17,Jits_Phase_5,3,5,80,127,1978985968
11415,17,Jits_Phase_5,0,1,48,21,1979401660
11415,17,Jits_Phase_5,1,5,80,127,1979456012
11415,17,Jits_Phase_5,2,5,56,103,1979476320
11415,17,Jits_Phase_5,3,5,63,98,1979506128
11415,17,Jits_Phase_5,0,1,48,16,1979894204
11415,17,Jits_Phase_5,1,5,56,103,1980026168
11415,17,Jits_Phase_5,2,5,80,127,1980029380
11415,17,Jits_Phase_5,3,5,63,98,1980045804
11415,17,Jits_Phase_5,0,5,63,98,1980446000
11415,17,Jits_Phase_5,1,1,48,17,1980453984
11415,17,Jits_Phase_5,2,5,56,103,1980475892
11415,17,Jits_Phase_5,3,5,80,127,1980536056
11415,17,Jits_Phase_5,0,1,48,25,1980916028
11415,17,Jits_Phase_5,1,5,63,98,1981025520
11415,17,Jits_Phase_5,2,5,56,103,1981035864
11415,17,Jits_Phase_5,3,5,80,127,1981046060
11415,17,Jits_Phase_5,0,1,48,24,1981460532
11415,17,Jits_Phase_5,1,5,56,103,1981485360
11415,17,Jits_Phase_5,2,5,80,127,1981516156
11415,17,Jits_Phase_5,3,5,63,98,1981526352
11415,17,Jits_Phase_5,0,1,48,15,1981990924
11415,17,Jits_Phase_5,1,5,63,98,1982026092
11415,17,Jits_Phase_5,2,5,56,103,1982036288
11415,17,Jits_Phase_5,3,5,80,127,1982055920
11415,17,Jits_Phase_5,0,5,56,103,1982456152
11415,17,Jits_Phase_5,1,1,48,19,1982489936
11415,17,Jits_Phase_5,2,5,63,98,1982515660
11415,17,Jits_Phase_5,3,5,80,127,1982519096
11415,17,Jits_Phase_5,0,1,48,15,1982971076
11415,17,Jits_Phase_5,1,5,80,127,1982976352
11415,17,Jits_Phase_5,2,5,56,103,1982986040
11415,17,Jits_Phase_5,3,5,63,98,1983056244
11415,17,Jits_Phase_5,0,1,48,15,1983431940
11415,17,Jits_Phase_5,1,5,80,127,1983465984
11415,17,Jits_Phase_5,2,5,56,103,1983535452
11415,17,Jits_Phase_5,3,5,63,98,1983545872
11415,17,Jits_Phase_5,0,1,48,17,1983954928
11415,17,Jits_Phase_5,1,5,63,98,1984005376
11415,17,Jits_Phase_5,2,5,56,103,1984015968
11415,17,Jits_Phase_5,3,5,80,127,1984036276
11415,17,Jits_Phase_5,0,5,80,127,1984455984
11415,17,Jits_Phase_5,1,1,48,16,1984463292
11415,17,Jits_Phase_5,2,5,63,98,1984515544
11415,17,Jits_Phase_5,3,5,56,103,1984556332
11415,17,Jits_Phase_5,0,1,48,17,1984975648
11415,17,Jits_Phase_5,1,5,56,103,1984995824
11415,17,Jits_Phase_5,2,5,63,98,1985006024
11415,17,Jits_Phase_5,3,5,80,127,1985045832
11415,17,Jits_Phase_5,0,5,56,103,1985455352
11415,17,Jits_Phase_5,1,1,48,17,1985483860
11415,17,Jits_Phase_5,2,5,80,127,1985486220
11415,17,Jits_Phase_5,3,5,63,98,1985536416
11415,17,Jits_Phase_5,0,1,48,14,1985962712
11415,17,Jits_Phase_5,1,5,56,103,1985996092
11415,17,Jits_Phase_5,2,5,63,98,1986035948
11415,17,Jits_Phase_5,3,5,80,127,1986039612
11415,17,Jits_Phase_5,0,1,48,20,1986449876
11415,17,Jits_Phase_5,1,5,56,103,1986495836
11415,17,Jits_Phase_5,2,5,63,98,1986506104
11415,17,Jits_Phase_5,3,5,80,127,1986525812
11415,17,Jits_Phase_5,0,5,56,103,1986955804
11415,17,Jits_Phase_5,1,5,80,127,1986958872
11415,17,Jits_Phase_5,2,1,48,13,1986979004
11415,17,Jits_Phase_5,3,5,63,98,1986995660
11415,17,Jits_Phase_5,0,1,48,16,1987481668
11415,17,Jits_Phase_5,1,5,63,98,1987496380
11415,17,Jits_Phase_5,2,5,56,103,1987525984
11415,17,Jits_Phase_5,3,5,80,127,1987545544
11415,17,Jits_Phase_5,0,5,80,127,1987966248
11415,17,Jits_Phase_5,1,5,56,103,1987975620
11415,17,Jits_Phase_5,2,5,63,98,1987985816
11415,17,Jits_Phase_5,3,1,48,15,1988025348
11415,17,Jits_Phase_5,0,1,48,18,1988442964
11415,17,Jits_Phase_5,1,5,56,103,1988466000
11415,17,Jits_Phase_5,2,5,80,127,1988505940
11415,17,Jits_Phase_5,3,5,63,98,1988535688
11415,17,Jits_Phase_5,0,1,48,16,1988963784
11415,17,Jits_Phase_5,1,5,63,98,1988975940
11415,17,Jits_Phase_5,2,5,80,127,1988986212
11415,17,Jits_Phase_5,3,5,56,103,1988995360
11415,17,Jits_Phase_5,0,5,56,103,1989465804
11415,17,Jits_Phase_5,1,5,63,98,1989536160
11415,17,Jits_Phase_5,2,5,80,127,1989546356
11415,17,Jits_Phase_5,0,1,48,18,1989954340
11415,17,Jits_Phase_5,1,5,80,127,1989976388
11415,17,Jits_Phase_5,2,5,56,103,1989985688
11415,17,Jits_Phase_5,3,5,63,98,1990035960
11415,17,Jits_Phase_5,0,1,48,25,1990464500
11415,17,Jits_Phase_5,1,5,80,127,1990486476
11415,17,Jits_Phase_5,2,5,56,103,1990545892
11415,17,Jits_Phase_5,3,5,63,98,1990575624
11415,17,Jits_Phase_5,0,5,56,103,1990986228
11415,17,Jits_Phase_5,1,5,80,127,1990989444
11415,17,Jits_Phase_5,2,5,63,98,1991026164
11415,17,Jits_Phase_5,0,1,48,15,1991405276
11415,17,Jits_Phase_5,1,5,56,103,1991515444
11415,17,Jits_Phase_5,2,5,63,98,1991546240
11415,17,Jits_Phase_5,3,5,80,127,1991555464
11415,17,Jits_Phase_5,0,1,48,19,1991976084
11415,17,Jits_Phase_5,1,5,63,98,1992025480
11415,17,Jits_Phase_5,2,5,80,127,1992035972
11415,17,Jits_Phase_5,3,5,56,103,1992045944
11415,17,Jits_Phase_5,0,1,48,22,1992441932
11415,17,Jits_Phase_5,1,5,80,127,1992476152
11415,17,Jits_Phase_5,2,5,56,103,1992526128
11415,17,Jits_Phase_5,3,5,63,98,1992529120
11415,17,Jits_Phase_5,0,1,48,19,1992990844
11415,17,Jits_Phase_5,1,5,56,103,1993005412
11415,17,Jits_Phase_5,2,5,80,127,1993025872
11415,17,Jits_Phase_5,3,5,63,98,1993036140
11415,17,Jits_Phase_5,0,1,48,21,1993471532
11415,17,Jits_Phase_5,1,5,63,98,1993485680
11415,17,Jits_Phase_5,2,5,56,103,1993516324
11415,17,Jits_Phase_5,3,5,80,127,1993536036
11415,17,Jits_Phase_5,0,1,48,20,1993994344
11415,17,Jits_Phase_5,1,5,56,103,1993995764
11415,17,Jits_Phase_5,2,5,80,127,1994005740
11415,17,Jits_Phase_5,3,5,63,98,1994075564
11415,17,Jits_Phase_5,0,1,48,19,1994439724
11415,17,Jits_Phase_5,1,5,63,98,1994486052
11415,17,Jits_Phase_5,2,5,80,127,1994525940
11415,17,Jits_Phase_5,3,5,56,103,1994565860
11415,17,Jits_Phase_5,0,5,56,103,1994996220
11415,17,Jits_Phase_5,1,5,63,98,1995006344
11415,17,Jits_Phase_5,2,1,48,18,1995026000
11415,17,Jits_Phase_5,3,5,80,127,1995027264
11415,17,Jits_Phase_5,0,1,48,19,1995485320
11415,17,Jits_Phase_5,1,5,63,98,1995535860
11415,17,Jits_Phase_5,2,5,80,127,1995556244
11415,17,Jits_Phase_5,3,5,56,103,1995575656
11415,17,Jits_Phase_5,0,5,56,103,1995975960
11415,17,Jits_Phase_5,1,1,48,22,1996000356
11415,17,Jits_Phase_5,2,5,80,127,1996055848
11415,17,Jits_Phase_5,3,5,63,98,1996066120
11415,17,Jits_Phase_5,0,1,48,18,1996466484
11415,17,Jits_Phase_5,1,5,80,127,1996515580
11415,17,Jits_Phase_5,2,5,63,98,1996525924
11415,17,Jits_Phase_5,3,5,56,103,1996555624
11415,17,Jits_Phase_5,0,5,63,98,1996975408
11415,17,Jits_Phase_5,1,5,80,127,1997016544
11415,17,Jits_Phase_5,2,1,48,19,1997028728
11415,17,Jits_Phase_5,3,5,56,103,1997075900
11415,17,Jits_Phase_5,0,5,63,98,1997485420
11415,17,Jits_Phase_5,1,1,48,19,1997504728
11415,17,Jits_Phase_5,2,5,56,103,1997535764
11415,17,Jits_Phase_5,3,5,80,127,1997566188
11415,17,Jits_Phase_5,0,1,48,19,1997976972
11415,17,Jits_Phase_5,1,5,80,127,1997986064
11415,17,Jits_Phase_5,2,5,63,98,1997996632
11415,17,Jits_Phase_5,3,5,56,103,1998066008
11415,17,Jits_Phase_5,0,1,48,18,1998499872
11415,17,Jits_Phase_5,1,5,80,127,1998546352
11415,17,Jits_Phase_5,2,5,56,103,1998555500
11415,17,Jits_Phase_5,3,5,63,98,1998558788
11415,17,Jits_Phase_5,0,5,56,103,1998985792
11415,17,Jits_Phase_5,1,1,48,18,1998989808
11415,17,Jits_Phase_5,2,5,80,127,1999005948
11415,17,Jits_Phase_5,3,5,63,98,1999016292
11415,17,Jits_Phase_5,0,5,63,98,1999495672
11415,17,Jits_Phase_5,1,1,48,20,1999521112
11415,17,Jits_Phase_5,2,5,56,103,1999535676
11415,17,Jits_Phase_5,3,5,80,127,1999555912
11415,17,Jits_Phase_5,0,1,48,19,1999988420
11415,17,Jits_Phase_5,1,5,63,98,1999996764
11415,17,Jits_Phase_5,2,5,56,103,2000055576
11415,17,Jits_Phase_5,3,5,80,127,2000058796
11415,17,Jits_Phase_5,0,5,56,103,2000456060
11415,17,Jits_Phase_5,1,5,80,127,2000475696
11415,17,Jits_Phase_5,2,1,48,15,2000477412
11415,17,Jits_Phase_5,3,5,63,98,2000515552
11415,17,Jits_Phase_5,0,1,48,16,2000938332
11415,17,Jits_Phase_5,1,5,56,103,2000985708
11415,17,Jits_Phase_5,2,5,63,98,2001005944
11415,17,Jits_Phase_5,3,5,80,127,2001016140
11415,17,Jits_Phase_5,0,1,48,19,2001388156
11415,17,Jits_Phase_5,1,5,80,127,2001455636
11415,17,Jits_Phase_5,2,5,56,103,2001486048
11415,17,Jits_Phase_5,3,5,63,98,2001525984
11415,17,Jits_Phase_5,0,1,48,16,2001900640
11415,17,Jits_Phase_5,1,5,80,127,2001965352
11415,17,Jits_Phase_5,2,5,56,103,2001985960
11415,17,Jits_Phase_5,3,5,63,98,2002046180
11415,17,Jits_Phase_5,0,1,48,15,2002464552
11415,17,Jits_Phase_5,1,5,56,103,2002476484
11415,17,Jits_Phase_5,2,5,80,127,2002495824
11415,17,Jits_Phase_5,3,5,63,98,2002556360
11415,17,Jits_Phase_5,0,5,80,127,2002955716
11415,17,Jits_Phase_5,1,5,56,103,2002965764
11415,17,Jits_Phase_5,2,1,48,16,2002966728
11415,17,Jits_Phase_5,3,5,63,98,2003005692
11415,17,Jits_Phase_5,0,5,63,98,2003456572
11415,17,Jits_Phase_5,1,1,48,16,2003480692
11415,17,Jits_Phase_5,2,5,56,103,2003496304
11415,17,Jits_Phase_5,3,5,80,127,2003499444
11415,17,Jits_Phase_5,0,1,48,16,2003955980
11415,17,Jits_Phase_5,1,5,63,98,2003975708
11415,17,Jits_Phase_5,2,5,80,127,2004015596
11415,17,Jits_Phase_5,3,5,56,103,2004047348
11415,17,Jits_Phase_5,0,1,48,17,2004439168
11415,17,Jits_Phase_5,1,5,56,103,2004466016
11415,17,Jits_Phase_5,2,5,63,98,2004476288
11415,17,Jits_Phase_5,3,5,80,127,2004505912
11415,17,Jits_Phase_5,0,5,80,127,2004955584
11415,17,Jits_Phase_5,1,1,48,16,2004956548
11415,17,Jits_Phase_5,2,5,63,98,2005026028
11415,17,Jits_Phase_5,3,5,56,103,2005036524
11415,17,Jits_Phase_5,0,1,48,16,2005447364
11415,17,Jits_Phase_5,1,5,63,98,2005456456
11415,17,Jits_Phase_5,2,5,56,103,2005525788
11415,17,Jits_Phase_5,3,5,80,127,2005535984
11415,17,Jits_Phase_5,0,1,48,14,2005925764
11415,17,Jits_Phase_5,1,5,63,98,2005935680
11415,17,Jits_Phase_5,2,5,56,103,2005955912
11415,17,Jits_Phase_5,3,5,80,127,2005996000
11415,17,Jits_Phase_5,0,5,56,103,2006415660
11415,17,Jits_Phase_5,1,5,63,98,2006425856
11415,17,Jits_Phase_5,2,5,80,127,2006505792
11415,17,Jits_Phase_5,0,1,48,18,2006863868
11415,17,Jits_Phase_5,1,5,63,98,2006906164
11415,17,Jits_Phase_5,2,5,56,103,2006935912
11415,17,Jits_Phase_5,3,5,80,127,2006975832
11415,17,Jits_Phase_5,0,1,48,17,2007363864
11415,17,Jits_Phase_5,1,5,56,103,2007405912
11415,17,Jits_Phase_5,2,5,63,98,2007445848
11415,17,Jits_Phase_5,3,5,80,127,2007485768
11415,17,Jits_Phase_5,0,1,48,18,2007828836
11415,17,Jits_Phase_5,1,5,80,127,2007905584
11415,17,Jits_Phase_5,2,5,56,103,2007985664
11415,17,Jits_Phase_5,3,5,63,98,2007995636
11415,17,Jits_Phase_5,0,1,48,18,2008376692
11415,17,Jits_Phase_5,1,5,56,103,2008446612
11415,17,Jits_Phase_5,2,5,63,98,2008449528
11415,17,Jits_Phase_5,3,5,80,127,2008455536
11415,17,Jits_Phase_5,0,1,48,17,2008892752
11415,17,Jits_Phase_5,1,5,56,103,2008975724
11415,17,Jits_Phase_5,2,5,63,98,2008996316
11415,17,Jits_Phase_5,3,5,80,127,2009005392
11415,17,Jits_Phase_5,0,5,63,98,2009435628
11415,17,Jits_Phase_5,1,5,80,127,2009445748
11415,17,Jits_Phase_5,2,5,56,103,2009466504
11415,17,Jits_Phase_5,0,1,48,16,2009876720
11415,17,Jits_Phase_5,1,5,63,98,2009936380
11415,17,Jits_Phase_5,2,5,56,103,2010016000
11415,17,Jits_Phase_5,3,5,80,127,2010019072
11415,17,Jits_Phase_5,0,1,48,20,2010398264
11415,17,Jits_Phase_5,1,5,63,98,2010436048
11415,17,Jits_Phase_5,2,5,56,103,2010456584
11415,17,Jits_Phase_5,3,5,80,127,2010486180
11415,17,Jits_Phase_5,0,1,48,23,2010882100
11415,17,Jits_Phase_5,1,5,56,103,2010935648
11415,17,Jits_Phase_5,2,5,63,98,2010956480
11415,17,Jits_Phase_5,3,5,80,127,2010966748
11415,17,Jits_Phase_5,0,1,48,20,2011313460
11415,17,Jits_Phase_5,1,5,56,103,2011465948
11415,17,Jits_Phase_5,2,5,63,98,2011495688
11415,17,Jits_Phase_5,3,5,80,127,2011498984
11415,17,Jits_Phase_5,0,1,48,18,2011859416
11415,17,Jits_Phase_5,1,5,56,103,2011915588
11415,17,Jits_Phase_5,2,5,63,98,2011955584
11415,17,Jits_Phase_5,3,5,80,127,2012015972
11415,17,Jits_Phase_5,0,1,48,26,2012377448
11415,17,Jits_Phase_5,1,5,56,103,2012436012
11415,17,Jits_Phase_5,2,5,63,98,2012446132
11415,17,Jits_Phase_5,3,5,80,127,2012505680
11415,17,Jits_Phase_5,0,5,56,103,2012935668
11415,17,Jits_Phase_5,1,5,80,127,2012956052
11415,17,Jits_Phase_5,2,5,63,98,2012985580
11415,17,Jits_Phase_5,0,5,80,127,2013436420
11415,17,Jits_Phase_5,1,1,48,18,2013443904
11415,17,Jits_Phase_5,2,5,56,103,2013445488
11415,17,Jits_Phase_5,3,5,63,98,2013465968
11415,17,Jits_Phase_5,0,1,48,18,2013914356
11415,17,Jits_Phase_5,1,5,63,98,2013925764
11415,17,Jits_Phase_5,2,5,80,127,2014005584
11415,17,Jits_Phase_5,3,5,56,103,2014015764
11415,17,Jits_Phase_5,0,1,48,21,2014495488
11415,17,Jits_Phase_5,1,5,80,127,2014515592
11415,17,Jits_Phase_5,2,5,56,103,2014535976
11415,17,Jits_Phase_5,3,5,63,98,2014539116
11415,17,Jits_Phase_5,0,1,48,17,2014963576
11415,17,Jits_Phase_5,1,5,63,98,2015006116
11415,17,Jits_Phase_5,2,5,80,127,2015009328
11415,17,Jits_Phase_5,3,5,56,103,2015065588
11415,17,Jits_Phase_5,0,1,48,23,2015461896
11415,17,Jits_Phase_5,1,5,56,103,2015486428
11415,17,Jits_Phase_5,2,5,80,127,2015495580
11415,17,Jits_Phase_5,3,5,63,98,2015535440
11415,17,Jits_Phase_5,0,1,48,20,2015965264
11415,17,Jits_Phase_5,1,5,56,103,2015966748
11415,17,Jits_Phase_5,2,5,63,98,2016025892
11415,17,Jits_Phase_5,3,5,80,127,2016036388
11415,17,Jits_Phase_5,0,5,63,98,2016475648
11415,17,Jits_Phase_5,1,1,48,21,2016498996
11415,17,Jits_Phase_5,2,5,80,127,2016515580
11415,17,Jits_Phase_5,3,5,56,103,2016556364
11415,17,Jits_Phase_5,0,5,56,103,2016976444
11415,17,Jits_Phase_5,1,1,48,21,2017019344
11415,17,Jits_Phase_5,2,5,63,98,2017056252
11415,17,Jits_Phase_5,3,5,80,127,2017059616
11415,17,Jits_Phase_5,0,1,48,16,2017517372
11415,17,Jits_Phase_5,1,5,80,127,2017536576
11415,17,Jits_Phase_5,2,5,56,103,2017566352
11415,17,Jits_Phase_5,3,5,63,98,2017569192
11415,17,Jits_Phase_5,0,1,48,16,2017992164
11415,17,Jits_Phase_5,1,5,56,103,2017996244
11415,17,Jits_Phase_5,2,5,80,127,2018015656
11415,17,Jits_Phase_5,3,5,63,98,2018055592
11415,17,Jits_Phase_5,0,5,80,127,2018476496
11415,17,Jits_Phase_5,1,5,63,98,2018495908
11415,17,Jits_Phase_5,2,1,48,17,2018498804
11415,17,Jits_Phase_5,3,5,56,103,2018556360
11415,17,Jits_Phase_5,0,5,63,98,2018986448
11415,17,Jits_Phase_5,1,5,56,103,2018995524
11415,17,Jits_Phase_5,2,1,48,15,2019030324
11415,17,Jits_Phase_5,3,5,80,127,2019045788
11415,17,Jits_Phase_5,0,1,48,19,2019464740
11415,17,Jits_Phase_5,1,5,56,103,2019475704
11415,17,Jits_Phase_5,2,5,63,98,2019496384
11415,17,Jits_Phase_5,3,5,80,127,2019505460
11415,17,Jits_Phase_5,0,5,56,103,2019966460
11415,17,Jits_Phase_5,1,5,63,98,2019969452
11415,17,Jits_Phase_5,2,5,80,127,2019985724
11415,17,Jits_Phase_5,3,1,48,13,2020001196
11415,17,Jits_Phase_5,0,1,48,19,2020458684
11415,17,Jits_Phase_5,1,5,63,98,2020505988
11415,17,Jits_Phase_5,2,5,56,103,2020535664
11415,17,Jits_Phase_5,3,5,80,127,2020566368
11415,17,Jits_Phase_5,0,1,48,16,2020871276
11415,17,Jits_Phase_5,1,5,80,127,2020965692
11415,17,Jits_Phase_5,2,5,56,103,2021055896
11415,17,Jits_Phase_5,3,5,63,98,2021058964
11415,17,Jits_Phase_5,0,5,56,103,2021465300
11415,17,Jits_Phase_5,1,5,80,127,2021468444
11415,17,Jits_Phase_5,2,1,48,18,2021528728
11415,17,Jits_Phase_5,3,5,63,98,2021546512
11415,17,Jits_Phase_5,0,5,80,127,2021966404
11415,17,Jits_Phase_5,1,5,63,98,2022025524
11415,17,Jits_Phase_5,2,1,48,21,2022036588
11415,17,Jits_Phase_5,3,5,56,103,2022056388
11415,17,Jits_Phase_5,0,5,63,98,2022465796
11415,17,Jits_Phase_5,1,5,80,127,2022476364
11415,17,Jits_Phase_5,2,1,48,20,2022510196
11415,17,Jits_Phase_5,3,5,56,103,2022545736
11415,17,Jits_Phase_5,0,1,48,19,2022950592
11415,17,Jits_Phase_5,1,5,56,103,2023026144
11415,17,Jits_Phase_5,2,5,80,127,2023055656
11415,17,Jits_Phase_5,3,5,63,98,2023105856
11415,17,Jits_Phase_5,0,1,48,21,2023473428
11415,17,Jits_Phase_5,1,5,63,98,2023615708
11415,17,Jits_Phase_5,2,5,56,103,2023645528
11415,17,Jits_Phase_5,3,5,80,127,2023648520
11415,17,Jits_Phase_5,0,5,63,98,2024115548
11415,17,Jits_Phase_5,1,5,80,127,2024136228
11415,17,Jits_Phase_5,2,5,56,103,2024146500
11415,17,Jits_Phase_5,0,5,56,103,2024625524
11415,17,Jits_Phase_5,1,5,63,98,2024628588
11415,17,Jits_Phase_5,2,5,80,127,2024645980
11415,17,Jits_Phase_5,0,1,48,16,2025035840
11415,17,Jits_Phase_5,1,5,56,103,2025076164
11415,17,Jits_Phase_5,2,5,63,98,2025086364
11415,17,Jits_Phase_5,3,5,80,127,2025116184
11415,17,Jits_Phase_5,0,1,48,21,2025511672
11415,17,Jits_Phase_5,1,5,63,98,2025596440
11415,17,Jits_Phase_5,2,5,80,127,2025615764
11415,17,Jits_Phase_5,3,5,56,103,2025655624
11415,17,Jits_Phase_5,0,1,48,13,2026074968
11415,17,Jits_Phase_5,1,5,56,103,2026125788
11415,17,Jits_Phase_5,2,5,63,98,2026166468
11415,17,Jits_Phase_5,3,5,80,127,2026169524
11415,17,Jits_Phase_5,0,5,80,127,2026566200
11415,17,Jits_Phase_5,1,1,48,19,2026603472
11415,17,Jits_Phase_5,2,5,56,103,2026606280
11415,17,Jits_Phase_5,3,5,63,98,2026656332
11415,17,Jits_Phase_5,0,1,48,17,2027091696
11415,17,Jits_Phase_5,1,5,56,103,2027126344
11415,17,Jits_Phase_5,2,5,80,127,2027136388
11415,17,Jits_Phase_5,3,5,63,98,2027166288
11415,17,Jits_Phase_5,0,5,56,103,2027575760
11415,17,Jits_Phase_5,1,1,48,14,2027576724
11415,17,Jits_Phase_5,2,5,80,127,2027615692
11415,17,Jits_Phase_5,3,5,63,98,2027665668
11415,17,Jits_Phase_5,0,5,56,103,2028076496
11415,17,Jits_Phase_5,1,1,48,13,2028077984
11415,17,Jits_Phase_5,2,5,80,127,2028116428
11415,17,Jits_Phase_5,3,5,63,98,2028165432
11415,17,Jits_Phase_5,0,5,80,127,2028565776
11415,17,Jits_Phase_5,1,5,63,98,2028645720
11415,17,Jits_Phase_5,2,5,56,103,2028655912
11415,17,Jits_Phase_5,0,1,48,13,2029075960
11415,17,Jits_Phase_5,1,5,80,127,2029115768
11415,17,Jits_Phase_5,2,5,56,103,2029126036
11415,17,Jits_Phase_5,3,5,63,98,2029145524
11415,17,Jits_Phase_5,0,1,48,17,2029540164
11415,17,Jits_Phase_5,1,5,63,98,2029585852
11415,17,Jits_Phase_5,2,5,56,103,2029656412
11415,17,Jits_Phase_5,3,5,80,127,2029659552
11415,17,Jits_Phase_5,0,1,48,21,2030061260
11415,17,Jits_Phase_5,1,5,80,127,2030076204
11415,17,Jits_Phase_5,2,5,63,98,2030125308
11415,17,Jits_Phase_5,3,5,56,103,2030166348
11415,17,Jits_Phase_5,0,1,48,16,2030540116
11415,17,Jits_Phase_5,1,5,63,98,2030616212
11415,17,Jits_Phase_5,2,5,56,103,2030655988
11415,17,Jits_Phase_5,3,5,80,127,2030666480
11415,17,Jits_Phase_5,0,5,63,98,2031106436
11415,17,Jits_Phase_5,1,5,56,103,2031125796
11415,17,Jits_Phase_5,2,5,80,127,2031146408
11415,17,Jits_Phase_5,0,5,80,127,2031566064
11415,17,Jits_Phase_5,1,5,56,103,2031576556
11415,17,Jits_Phase_5,2,5,63,98,2031595744
11415,17,Jits_Phase_5,0,1,48,16,2032027468
11415,17,Jits_Phase_5,1,5,63,98,2032095528
11415,17,Jits_Phase_5,2,5,56,103,2032135624
11415,17,Jits_Phase_5,3,5,80,127,2032166416
11415,17,Jits_Phase_5,0,1,48,16,2032548276
11415,17,Jits_Phase_5,1,5,56,103,2032556392
11415,17,Jits_Phase_5,2,5,63,98,2032586292
11415,17,Jits_Phase_5,3,5,80,127,2032615668
11415,17,Jits_Phase_5,0,5,80,127,2032976368
11415,17,Jits_Phase_5,1,5,56,103,2033045824
11415,17,Jits_Phase_5,2,5,63,98,2033049036
11415,17,Jits_Phase_5,3,1,48,16,2033057184
11415,17,Jits_Phase_5,0,5,56,103,2033486312
11415,17,Jits_Phase_5,1,1,48,15,2033536512
11415,17,Jits_Phase_5,2,5,63,98,2033537700
11415,17,Jits_Phase_5,3,5,80,127,2033566256
11415,17,Jits_Phase_5,0,5,63,98,2033965476
11415,17,Jits_Phase_5,1,5,80,127,2033968764
11415,17,Jits_Phase_5,2,1,48,16,2033993680
11415,17,Jits_Phase_5,3,5,56,103,2034025856
11415,17,Jits_Phase_5,0,5,56,103,2034496156
11415,17,Jits_Phase_5,1,5,80,127,2034506204
11415,17,Jits_Phase_5,2,5,63,98,2034556252
11415,17,Jits_Phase_5,0,5,63,98,2034965916
11415,17,Jits_Phase_5,1,5,56,103,2034976036
11415,17,Jits_Phase_5,2,5,80,127,2035005784
11415,17,Jits_Phase_5,0,5,63,98,2035496264
11415,17,Jits_Phase_5,1,5,80,127,2035499628
11415,17,Jits_Phase_5,2,5,56,103,2035526012
11415,17,Jits_Phase_5,0,1,48,16,2035954260
11415,17,Jits_Phase_5,1,5,63,98,2036015368
11415,17,Jits_Phase_5,2,5,56,103,2036035972
11415,17,Jits_Phase_5,3,5,80,127,2036039112
11415,17,Jits_Phase_5,0,5,63,98,2036476352
11415,17,Jits_Phase_5,1,5,56,103,2036546060
11415,17,Jits_Phase_5,2,5,80,127,2036566292
11415,17,Jits_Phase_5,0,5,56,103,2036965732
11415,17,Jits_Phase_5,1,5,63,98,2036976080
11415,17,Jits_Phase_5,2,5,80,127,2037066228
11415,17,Jits_Phase_5,0,5,56,103,2037486060
11415,17,Jits_Phase_5,1,1,48,13,2037515580
11415,17,Jits_Phase_5,2,5,80,127,2037525868
11415,17,Jits_Phase_5,3,5,63,98,2037536060
11415,17,Jits_Phase_5,0,5,56,103,2038006272
11415,17,Jits_Phase_5,1,5,63,98,2038035824
11415,17,Jits_Phase_5,2,5,80,127,2038065572
11415,17,Jits_Phase_5,0,5,80,127,2038465996
11415,17,Jits_Phase_5,1,5,63,98,2038505712
11415,17,Jits_Phase_5,2,5,56,103,2038526172
11415,17,Jits_Phase_5,0,5,56,103,2039005504
11415,17,Jits_Phase_5,1,5,80,127,2039026112
11415,17,Jits_Phase_5,2,5,63,98,2039045376
11415,17,Jits_Phase_5,0,5,63,98,2039475568
11415,17,Jits_Phase_5,1,5,56,103,2039485912
11415,17,Jits_Phase_5,2,1,48,14,2039512844
11415,17,Jits_Phase_5,3,5,80,127,2039546364
11415,17,Jits_Phase_5,0,5,56,103,2039976436
11415,17,Jits_Phase_5,1,5,63,98,2040046044
11415,17,Jits_Phase_5,2,5,80,127,2040066352
11415,17,Jits_Phase_5,0,1,48,17,2040467068
11415,17,Jits_Phase_5,1,5,56,103,2040476160
11415,17,Jits_Phase_5,2,5,63,98,2040505612
11415,17,Jits_Phase_5,3,5,80,127,2040545624
11415,17,Jits_Phase_5,0,1,48,18,2040927636
11415,17,Jits_Phase_5,1,5,63,98,2040965500
11415,17,Jits_Phase_5,2,5,56,103,2041015772
11415,17,Jits_Phase_5,3,5,80,127,2041026100
11415,17,Jits_Phase_5,0,1,48,15,2041417420
11415,17,Jits_Phase_5,1,5,56,103,2041506300
11415,17,Jits_Phase_5,2,5,63,98,2041556264
11415,17,Jits_Phase_5,3,5,80,127,2041565412
11415,17,Jits_Phase_5,0,5,56,103,2041976168
11415,17,Jits_Phase_5,1,1,48,17,2041977580
11415,17,Jits_Phase_5,2,5,63,98,2041986436
11415,17,Jits_Phase_5,3,5,80,127,2042066300
11415,17,Jits_Phase_5,0,9999,9999,9999,1957743704
11415,17,Jits_Phase_5,1,9999,9999,9999,1958243412
11415,17,Jits_Phase_5,2,9999,9999,9999,1958743120
11415,17,Jits_Phase_5,3,9999,9999,9999,1959243852
11415,17,Jits_Phase_5,4,9999,9999,9999,1959743608
11415,17,Jits_Phase_5,5,9999,9999,9999,1960243288
11415,17,Jits_Phase_5,6,9999,9999,9999,1960744012
11415,17,Jits_Phase_5,7,9999,9999,9999,1961243704
11415,17,Jits_Phase_5,8,9999,9999,9999,1961743468
11415,17,Jits_Phase_5,9,9999,9999,9999,1962243192
11415,17,Jits_Phase_5,10,9999,9999,9999,1962743920
11415,17,Jits_Phase_5,11,9999,9999,9999,1963243612
11415,17,Jits_Phase_5,12,9999,9999,9999,1963743284
11415,17,Jits_Phase_5,13,9999,9999,9999,1964244080
11415,17,Jits_Phase_5,14,9999,9999,9999,1964743756
11415,17,Jits_Phase_5,15,9999,9999,9999,1965243516
11415,17,Jits_Phase_5,16,9999,9999,9999,1965743196
11415,17,Jits_Phase_5,17,9999,9999,9999,1966243920
11415,17,Jits_Phase_5,18,9999,9999,9999,1966743668
11415,17,Jits_Phase_5,19,9999,9999,9999,1967243344
11415,17,Jits_Phase_5,20,9999,9999,9999,1967744080
11415,17,Jits_Phase_5,21,9999,9999,9999,1968254032
11415,17,Jits_Phase_5,22,9999,9999,9999,1968753720
11415,17,Jits_Phase_5,23,9999,9999,9999,1969253464
11415,17,Jits_Phase_5,24,9999,9999,9999,1969753156
11415,17,Jits_Phase_5,25,9999,9999,9999,1970253884
11415,17,Jits_Phase_5,26,9999,9999,9999,1970753636
11415,17,Jits_Phase_5,27,9999,9999,9999,1971253356
11415,17,Jits_Phase_5,28,9999,9999,9999,1971754080
11415,17,Jits_Phase_5,29,9999,9999,9999,1972253752
11415,17,Jits_Phase_5,30,9999,9999,9999,1972743292
11415,17,Jits_Phase_5,31,9999,9999,9999,1973244004
11415,17,Jits_Phase_5,32,9999,9999,9999,1973743680
11415,17,Jits_Phase_5,33,9999,9999,9999,1974243428
11415,17,Jits_Phase_5,34,9999,9999,9999,1974743104
11415,17,Jits_Phase_5,35,9999,9999,9999,1975243900
11415,17,Jits_Phase_5,36,9999,9999,9999,1975743564
11415,17,Jits_Phase_5,37,9999,9999,9999,1976243316
11415,17,Jits_Phase_5,38,9999,9999,9999,1976744052
11415,17,Jits_Phase_5,39,9999,9999,9999,1977243716
11415,17,Jits_Phase_5,40,9999,9999,9999,1977743468
11415,17,Jits_Phase_5,41,9999,9999,9999,1978243156
11415,17,Jits_Phase_5,42,9999,9999,9999,1978743892
11415,17,Jits_Phase_5,43,9999,9999,9999,1979243636
11415,17,Jits_Phase_5,44,9999,9999,9999,1979743288
11415,17,Jits_Phase_5,45,9999,9999,9999,1980244080
11415,17,Jits_Phase_5,46,9999,9999,9999,1980743756
11415,17,Jits_Phase_5,47,9999,9999,9999,1981243516
11415,17,Jits_Phase_5,48,9999,9999,9999,1981753456
11415,17,Jits_Phase_5,49,9999,9999,9999,1982253136
11415,17,Jits_Phase_5,50,9999,9999,9999,1982753848
11415,17,Jits_Phase_5,51,9999,9999,9999,1983253608
11415,17,Jits_Phase_5,52,9999,9999,9999,1983753288
11415,17,Jits_Phase_5,53,9999,9999,9999,1984254068
11415,17,Jits_Phase_5,54,9999,9999,9999,1984753744
11415,17,Jits_Phase_5,55,9999,9999,9999,1985253436
11415,17,Jits_Phase_5,56,9999,9999,9999,1985753184
11415,17,Jits_Phase_5,57,9999,9999,9999,1986253916
11415,17,Jits_Phase_5,58,9999,9999,9999,1986753592
11415,17,Jits_Phase_5,59,9999,9999,9999,1987253328
11415,17,Jits_Phase_5,60,9999,9999,9999,1987754068
11415,17,Jits_Phase_5,61,9999,9999,9999,1988253812
11415,17,Jits_Phase_5,62,9999,9999,9999,1988753504
11415,17,Jits_Phase_5,63,9999,9999,9999,1989253172
11415,17,Jits_Phase_5,64,9999,9999,9999,1989773400
11415,17,Jits_Phase_5,65,9999,9999,9999,1990273104
11415,17,Jits_Phase_5,66,9999,9999,9999,1990773828
11415,17,Jits_Phase_5,67,9999,9999,9999,1991273588
11415,17,Jits_Phase_5,68,9999,9999,9999,1991773292
11415,17,Jits_Phase_5,69,9999,9999,9999,1992274020
11415,17,Jits_Phase_5,70,9999,9999,9999,1992773756
11415,17,Jits_Phase_5,71,9999,9999,9999,1993273432
11415,17,Jits_Phase_5,72,9999,9999,9999,1993773180
11415,17,Jits_Phase_5,73,9999,9999,9999,1994273900
11415,17,Jits_Phase_5,74,9999,9999,9999,1994773576
11415,17,Jits_Phase_5,75,9999,9999,9999,1995273328
11415,17,Jits_Phase_5,76,9999,9999,9999,1995774040
11415,17,Jits_Phase_5,77,9999,9999,9999,1996273720
11415,17,Jits_Phase_5,78,9999,9999,9999,1996773488
11415,17,Jits_Phase_5,79,9999,9999,9999,1997273164
11415,17,Jits_Phase_5,80,9999,9999,9999,1997773888
11415,17,Jits_Phase_5,81,9999,9999,9999,1998253112
11415,17,Jits_Phase_5,82,9999,9999,9999,1998753908
11415,17,Jits_Phase_5,83,9999,9999,9999,1999253584
11415,17,Jits_Phase_5,84,9999,9999,9999,1999753276
11415,17,Jits_Phase_5,85,9999,9999,9999,2000254068
11415,17,Jits_Phase_5,86,9999,9999,9999,2000753740
11415,17,Jits_Phase_5,87,9999,9999,9999,2001253432
11415,17,Jits_Phase_5,88,9999,9999,9999,2001753176
11415,17,Jits_Phase_5,89,9999,9999,9999,2002253896
11415,17,Jits_Phase_5,90,9999,9999,9999,2002753648
11415,17,Jits_Phase_5,91,9999,9999,9999,2003253320
11415,17,Jits_Phase_5,92,9999,9999,9999,2003754044
11415,17,Jits_Phase_5,93,9999,9999,9999,2004253792
11415,17,Jits_Phase_5,94,9999,9999,9999,2004753468
11415,17,Jits_Phase_5,95,9999,9999,9999,2005253192
11415,17,Jits_Phase_5,96,9999,9999,9999,2005753924
11415,17,Jits_Phase_5,97,9999,9999,9999,2006203476
11415,17,Jits_Phase_5,98,9999,9999,9999,2006703172
11415,17,Jits_Phase_5,99,9999,9999,9999,2007203924
11415,17,Jits_Phase_5,100,9999,9999,9999,2007703672
11415,17,Jits_Phase_5,101,9999,9999,9999,2008203348
11415,17,Jits_Phase_5,102,9999,9999,9999,2008704060
11415,17,Jits_Phase_5,103,9999,9999,9999,2009214080
11415,17,Jits_Phase_5,104,9999,9999,9999,2009713776
11415,17,Jits_Phase_5,105,9999,9999,9999,2010213460
11415,17,Jits_Phase_5,106,9999,9999,9999,2010713208
11415,17,Jits_Phase_5,107,9999,9999,9999,2011213932
11415,17,Jits_Phase_5,108,9999,9999,9999,2011713600
11415,17,Jits_Phase_5,109,9999,9999,9999,2012213348
11415,17,Jits_Phase_5,110,9999,9999,9999,2012714072
11415,17,Jits_Phase_5,111,9999,9999,9999,2013213816
11415,17,Jits_Phase_5,112,9999,9999,9999,2013713524
11415,17,Jits_Phase_5,113,9999,9999,9999,2014213192
11415,17,Jits_Phase_5,114,9999,9999,9999,2014763080
11415,17,Jits_Phase_5,115,9999,9999,9999,2015263868
11415,17,Jits_Phase_5,116,9999,9999,9999,2015763516
11415,17,Jits_Phase_5,117,9999,9999,9999,2016263244
11415,17,Jits_Phase_5,118,9999,9999,9999,2016763968
11415,17,Jits_Phase_5,119,9999,9999,9999,2017263708
11415,17,Jits_Phase_5,120,9999,9999,9999,2017763392
11415,17,Jits_Phase_5,121,9999,9999,9999,2018263120
11415,17,Jits_Phase_5,122,9999,9999,9999,2018763840
11415,17,Jits_Phase_5,123,9999,9999,9999,2019263604
11415,17,Jits_Phase_5,124,9999,9999,9999,2019763276
11415,17,Jits_Phase_5,125,9999,9999,9999,2020264056
11415,17,Jits_Phase_5,126,9999,9999,9999,2020763748
11415,17,Jits_Phase_5,127,9999,9999,9999,2021263464
11415,17,Jits_Phase_5,128,9999,9999,9999,2021763128
11415,17,Jits_Phase_5,129,9999,9999,9999,2022263864
11415,17,Jits_Phase_5,130,9999,9999,9999,2022763628
11415,17,Jits_Phase_5,131,9999,9999,9999,2023363688
11415,17,Jits_Phase_5,132,9999,9999,9999,2023863360
11415,17,Jits_Phase_5,133,9999,9999,9999,2024363132
11415,17,Jits_Phase_5,134,9999,9999,9999,2024863812
11415,17,Jits_Phase_5,135,9999,9999,9999,2025363516
11415,17,Jits_Phase_5,136,9999,9999,9999,2025863268
11415,17,Jits_Phase_5,137,9999,9999,9999,2026363988
11415,17,Jits_Phase_5,138,9999,9999,9999,2026863736
11415,17,Jits_Phase_5,139,9999,9999,9999,2027363428
11415,17,Jits_Phase_5,140,9999,9999,9999,2027863104
11415,17,Jits_Phase_5,141,9999,9999,9999,2028363844
11415,17,Jits_Phase_5,142,9999,9999,9999,2028863556
11415,17,Jits_Phase_5,143,9999,9999,9999,2029363264
11415,17,Jits_Phase_5,144,9999,9999,9999,2029864052
11415,17,Jits_Phase_5,145,9999,9999,9999,2030363732
11415,17,Jits_Phase_5,146,9999,9999,9999,2030863488
11415,17,Jits_Phase_5,147,9999,9999,9999,2031363164
11415,17,Jits_Phase_5,148,9999,9999,9999,2031863912
11415,17,Jits_Phase_5,149,9999,9999,9999,2032363624
11415,17,Jits_Phase_5,150,9999,9999,9999,2032763964
11415,17,Jits_Phase_5,151,9999,9999,9999,2033263704
11415,17,Jits_Phase_5,152,9999,9999,9999,2033763396
11415,17,Jits_Phase_5,153,9999,9999,9999,2034263148
11415,17,Jits_Phase_5,154,9999,9999,9999,2034763892
11415,17,Jits_Phase_5,155,9999,9999,9999,2035263544
11415,17,Jits_Phase_5,156,9999,9999,9999,2035763316
11415,17,Jits_Phase_5,157,9999,9999,9999,2036264048
11415,17,Jits_Phase_5,158,9999,9999,9999,2036763748
11415,17,Jits_Phase_5,159,9999,9999,9999,2037263460
11415,17,Jits_Phase_5,160,9999,9999,9999,2037763144
11415,17,Jits_Phase_5,161,9999,9999,9999,2038263900
11415,17,Jits_Phase_5,162,9999,9999,9999,2038763624
11415,17,Jits_Phase_5,163,9999,9999,9999,2039263352
11415,17,Jits_Phase_5,164,9999,9999,9999,2039764032
11415,17,Jits_Phase_5,165,9999,9999,9999,2040263804
11415,17,Jits_Phase_5,166,9999,9999,9999,2040763512
11415,17,Jits_Phase_5,167,9999,9999,9999,2041263184
11415,17,Jits_Phase_5,168,9999,9999,9999,2041763912
11415,17,Jits_Phase_5,169,9999,9999,9999,2042263664
11416,7,Jits_ISO_8,0,5,56,103,2051565880
11416,7,Jits_ISO_8,1,5,63,98,2051568976
11416,7,Jits_ISO_8,2,5,80,127,2051572024
11416,7,Jits_ISO_8,0,5,56,103,2052365756
11416,7,Jits_ISO_8,1,5,63,98,2052368700
11416,7,Jits_ISO_8,2,5,80,127,2052371896
11416,7,Jits_ISO_8,3,1,48,41,2052531444
11416,7,Jits_ISO_8,0,5,80,127,2053105956
11416,7,Jits_ISO_8,1,1,48,38,2053127684
11416,7,Jits_ISO_8,2,5,63,98,2053196036
11416,7,Jits_ISO_8,3,5,56,103,2053206384
11416,7,Jits_ISO_8,0,5,56,103,2053926164
11416,7,Jits_ISO_8,1,1,48,31,2053930180
11416,7,Jits_ISO_8,2,5,63,98,2053935528
11416,7,Jits_ISO_8,3,5,80,127,2054025512
11416,7,Jits_ISO_8,0,5,63,98,2054696288
11416,7,Jits_ISO_8,1,5,80,127,2054725968
11416,7,Jits_ISO_8,2,5,56,103,2054755940
11416,7,Jits_ISO_8,3,1,48,37,2054765432
11416,7,Jits_ISO_8,0,5,56,103,2055496064
11416,7,Jits_ISO_8,1,1,48,26,2055519340
11416,7,Jits_ISO_8,2,5,80,127,2055596532
11416,7,Jits_ISO_8,3,5,63,98,2055645748
11416,7,Jits_ISO_8,0,5,56,103,2056295864
11416,7,Jits_ISO_8,1,1,48,31,2056300476
11416,7,Jits_ISO_8,2,5,80,127,2056345912
11416,7,Jits_ISO_8,3,5,63,98,2056386000
11416,7,Jits_ISO_8,0,1,48,29,2057084688
11416,7,Jits_ISO_8,1,5,80,127,2057126368
11416,7,Jits_ISO_8,2,5,63,98,2057156044
11416,7,Jits_ISO_8,3,5,56,103,2057225808
11416,7,Jits_ISO_8,0,1,48,28,2057881240
11416,7,Jits_ISO_8,1,5,63,98,2057955896
11416,7,Jits_ISO_8,2,5,56,103,2057986308
11416,7,Jits_ISO_8,3,5,80,127,2058045900
11416,7,Jits_ISO_8,0,5,56,103,2058695976
11416,7,Jits_ISO_8,1,5,80,127,2058699116
11416,7,Jits_ISO_8,2,1,48,21,2058734016
11416,7,Jits_ISO_8,3,5,63,98,2058815792
11416,7,Jits_ISO_8,0,1,48,15,2059478644
11416,7,Jits_ISO_8,1,5,56,103,2059575784
11416,7,Jits_ISO_8,2,5,80,127,2059615724
11416,7,Jits_ISO_8,3,5,63,98,2059625696
11416,7,Jits_ISO_8,0,1,48,21,2060290120
11416,7,Jits_ISO_8,1,5,56,103,2060335432
11416,7,Jits_ISO_8,2,5,80,127,2060355892
11416,7,Jits_ISO_8,3,5,63,98,2060435744
11416,7,Jits_ISO_8,0,5,80,127,2061125928
11416,7,Jits_ISO_8,1,1,48,27,2061142380
11416,7,Jits_ISO_8,2,5,56,103,2061226248
11416,7,Jits_ISO_8,3,5,63,98,2061235680
11416,7,Jits_ISO_8,0,1,48,18,2061878268
11416,7,Jits_ISO_8,1,5,63,98,2061896056
11416,7,Jits_ISO_8,2,5,80,127,2061955476
11416,7,Jits_ISO_8,3,5,56,103,2061965896
11416,7,Jits_ISO_8,0,1,48,21,2062672200
11416,7,Jits_ISO_8,1,5,56,103,2062695836
11416,7,Jits_ISO_8,2,5,63,98,2062765444
11416,7,Jits_ISO_8,3,5,80,127,2062769840
11416,7,Jits_ISO_8,0,1,48,23,2063511008
11416,7,Jits_ISO_8,1,5,63,98,2063526176
11416,7,Jits_ISO_8,2,5,56,103,2063576376
11416,7,Jits_ISO_8,3,5,80,127,2063579816
11416,7,Jits_ISO_8,0,1,48,23,2064282684
11416,7,Jits_ISO_8,1,5,56,103,2064285936
11416,7,Jits_ISO_8,2,5,80,127,2064289156
11416,7,Jits_ISO_8,3,5,63,98,2064376148
11416,7,Jits_ISO_8,0,1,48,22,2065055712
11416,7,Jits_ISO_8,1,5,63,98,2065125644
11416,7,Jits_ISO_8,2,5,56,103,2065215716
11416,7,Jits_ISO_8,3,5,80,127,2065245540
11416,7,Jits_ISO_8,0,5,56,103,2065916300
11416,7,Jits_ISO_8,1,1,48,16,2065936456
11416,7,Jits_ISO_8,2,5,63,98,2066015668
11416,7,Jits_ISO_8,3,5,80,127,2066046376
11416,7,Jits_ISO_8,0,5,63,98,2066735684
11416,7,Jits_ISO_8,1,5,56,103,2066745656
11416,7,Jits_ISO_8,2,1,48,19,2066747592
11416,7,Jits_ISO_8,3,5,80,127,2066835780
11416,7,Jits_ISO_8,0,1,48,17,2067504120
11416,7,Jits_ISO_8,1,5,63,98,2067555768
11416,7,Jits_ISO_8,2,5,56,103,2067635548
11416,7,Jits_ISO_8,3,5,80,127,2067638764
11416,7,Jits_ISO_8,0,5,80,127,2068315612
11416,7,Jits_ISO_8,1,5,63,98,2068335924
11416,7,Jits_ISO_8,2,1,48,20,2068340312
11416,7,Jits_ISO_8,3,5,56,103,2068396456
11416,7,Jits_ISO_8,0,1,48,21,2069097024
11416,7,Jits_ISO_8,1,5,56,103,2069156164
11416,7,Jits_ISO_8,2,5,63,98,2069175872
11416,7,Jits_ISO_8,3,5,80,127,2069179088
11416,7,Jits_ISO_8,0,5,63,98,2069895708
11416,7,Jits_ISO_8,1,1,48,20,2069923168
11416,7,Jits_ISO_8,2,5,80,127,2069976548
11416,7,Jits_ISO_8,3,5,56,103,2069985696
11416,7,Jits_ISO_8,0,1,48,16,2070685944
11416,7,Jits_ISO_8,1,5,63,98,2070715788
11416,7,Jits_ISO_8,2,5,56,103,2070736100
11416,7,Jits_ISO_8,3,5,80,127,2070786508
11416,7,Jits_ISO_8,0,1,48,21,2071460616
11416,7,Jits_ISO_8,1,5,80,127,2071515644
11416,7,Jits_ISO_8,2,5,63,98,2071556616
11416,7,Jits_ISO_8,3,5,56,103,2071575904
11416,7,Jits_ISO_8,0,1,48,19,2072280996
11416,7,Jits_ISO_8,1,5,56,103,2072356356
11416,7,Jits_ISO_8,2,5,63,98,2072365656
11416,7,Jits_ISO_8,3,5,80,127,2072385876
11416,7,Jits_ISO_8,0,1,48,19,2073019876
11416,7,Jits_ISO_8,1,5,56,103,2073086512
11416,7,Jits_ISO_8,2,5,63,98,2073176436
11416,7,Jits_ISO_8,3,5,80,127,2073235780
11416,7,Jits_ISO_8,0,1,48,21,2073847088
11416,7,Jits_ISO_8,1,5,80,127,2073915768
11416,7,Jits_ISO_8,2,5,56,103,2073926112
11416,7,Jits_ISO_8,3,5,63,98,2073995628
11416,7,Jits_ISO_8,0,1,48,19,2074667040
11416,7,Jits_ISO_8,1,5,63,98,2074746408
11416,7,Jits_ISO_8,2,5,80,127,2074836752
11416,7,Jits_ISO_8,3,5,56,103,2074845456
11416,7,Jits_ISO_8,0,1,48,21,2075479116
11416,7,Jits_ISO_8,1,5,63,98,2075485660
11416,7,Jits_ISO_8,2,5,80,127,2075535640
11416,7,Jits_ISO_8,3,5,56,103,2075596164
11416,7,Jits_ISO_8,0,1,48,19,2076269976
11416,7,Jits_ISO_8,1,5,56,103,2076316084
11416,7,Jits_ISO_8,2,5,80,127,2076367244
11416,7,Jits_ISO_8,3,5,63,98,2076385608
11416,7,Jits_ISO_8,0,1,48,21,2077065644
11416,7,Jits_ISO_8,1,5,56,103,2077086192
11416,7,Jits_ISO_8,2,5,80,127,2077145540
11416,7,Jits_ISO_8,3,5,63,98,2077216052
11416,7,Jits_ISO_8,0,1,48,18,2077840988
11416,7,Jits_ISO_8,1,5,56,103,2077885824
11416,7,Jits_ISO_8,2,5,80,127,2077915504
11416,7,Jits_ISO_8,3,5,63,98,2077946284
11416,7,Jits_ISO_8,0,1,48,15,2078586748
11416,7,Jits_ISO_8,1,5,56,103,2078725400
11416,7,Jits_ISO_8,2,5,80,127,2078745932
11416,7,Jits_ISO_8,3,5,63,98,2078806472
11416,7,Jits_ISO_8,0,1,48,27,2079444084
11416,7,Jits_ISO_8,1,5,80,127,2079606172
11416,7,Jits_ISO_8,2,5,56,103,2079616516
11416,7,Jits_ISO_8,3,5,63,98,2079625668
11416,7,Jits_ISO_8,0,1,48,17,2080310644
11416,7,Jits_ISO_8,1,5,56,103,2080365824
11416,7,Jits_ISO_8,2,5,80,127,2080406492
11416,7,Jits_ISO_8,3,5,63,98,2080435644
11416,7,Jits_ISO_8,0,5,56,103,2081135940
11416,7,Jits_ISO_8,1,5,63,98,2081165616
11416,7,Jits_ISO_8,2,1,48,17,2081195708
11416,7,Jits_ISO_8,3,5,80,127,2081205624
11416,7,Jits_ISO_8,0,5,80,127,2081885692
11416,7,Jits_ISO_8,1,5,63,98,2081935596
11416,7,Jits_ISO_8,2,5,56,103,2081956504
11416,7,Jits_ISO_8,0,1,48,19,2082661392
11416,7,Jits_ISO_8,1,5,56,103,2082715968
11416,7,Jits_ISO_8,2,5,80,127,2082785636
11416,7,Jits_ISO_8,3,5,63,98,2082846648
11416,7,Jits_ISO_8,0,1,48,21,2083461996
11416,7,Jits_ISO_8,1,5,80,127,2083515828
11416,7,Jits_ISO_8,2,5,63,98,2083605752
11416,7,Jits_ISO_8,3,5,56,103,2083626508
11416,7,Jits_ISO_8,0,1,48,19,2084290636
11416,7,Jits_ISO_8,1,5,63,98,2084335920
11416,7,Jits_ISO_8,2,5,56,103,2084355408
11416,7,Jits_ISO_8,3,5,80,127,2084396552
11416,7,Jits_ISO_8,0,1,48,18,2085057904
11416,7,Jits_ISO_8,1,5,80,127,2085095768
11416,7,Jits_ISO_8,2,5,63,98,2085116380
11416,7,Jits_ISO_8,3,5,56,103,2085196332
11416,7,Jits_ISO_8,0,1,48,26,2085831156
11416,7,Jits_ISO_8,1,5,63,98,2085886408
11416,7,Jits_ISO_8,2,5,56,103,2085995960
11416,7,Jits_ISO_8,3,5,80,127,2085999172
11416,7,Jits_ISO_8,0,1,48,22,2086660848
11416,7,Jits_ISO_8,1,5,63,98,2086705540
11416,7,Jits_ISO_8,2,5,56,103,2086715736
11416,7,Jits_ISO_8,3,5,80,127,2086719100
11416,7,Jits_ISO_8,0,1,48,24,2087400344
11416,7,Jits_ISO_8,1,5,56,103,2087485744
11416,7,Jits_ISO_8,2,5,80,127,2087605608
11416,7,Jits_ISO_8,3,5,63,98,2087645548
11416,7,Jits_ISO_8,0,1,48,22,2088210344
11416,7,Jits_ISO_8,1,5,56,103,2088305896
11416,7,Jits_ISO_8,2,5,80,127,2088385844
11416,7,Jits_ISO_8,3,5,63,98,2088406524
11416,7,Jits_ISO_8,0,5,56,103,2089105700
11416,7,Jits_ISO_8,1,1,48,23,2089112932
11416,7,Jits_ISO_8,2,5,63,98,2089216492
11416,7,Jits_ISO_8,3,5,80,127,2089219632
11416,7,Jits_ISO_8,0,5,56,103,2089936360
11416,7,Jits_ISO_8,1,1,48,16,2089938296
11416,7,Jits_ISO_8,2,5,80,127,2089966104
11416,7,Jits_ISO_8,3,5,63,98,2089986560
11416,7,Jits_ISO_8,0,1,48,21,2090660640
11416,7,Jits_ISO_8,1,5,63,98,2090715448
11416,7,Jits_ISO_8,2,5,56,103,2090725720
11416,7,Jits_ISO_8,3,5,80,127,2090736288
11416,7,Jits_ISO_8,0,1,48,24,2091412092
11416,7,Jits_ISO_8,1,5,80,127,2091506156
11416,7,Jits_ISO_8,2,5,56,103,2091556368
11416,7,Jits_ISO_8,3,5,63,98,2091596456
11416,7,Jits_ISO_8,0,1,48,15,2092254376
11416,7,Jits_ISO_8,1,5,80,127,2092326268
11416,7,Jits_ISO_8,2,5,63,98,2092345608
11416,7,Jits_ISO_8,3,5,56,103,2092395868
11416,7,Jits_ISO_8,0,1,48,26,2093023364
11416,7,Jits_ISO_8,1,5,80,127,2093136228
11416,7,Jits_ISO_8,2,5,56,103,2093166200
11416,7,Jits_ISO_8,3,5,63,98,2093235584
11416,7,Jits_ISO_8,0,1,48,21,2093843848
11416,7,Jits_ISO_8,1,5,56,103,2093986428
11416,7,Jits_ISO_8,2,5,80,127,2093996252
11416,7,Jits_ISO_8,3,5,63,98,2094036340
11416,7,Jits_ISO_8,0,5,56,103,2094695736
11416,7,Jits_ISO_8,1,1,48,20,2094714452
11416,7,Jits_ISO_8,2,5,63,98,2094716116
11416,7,Jits_ISO_8,3,5,80,127,2094785944
11416,7,Jits_ISO_8,0,1,48,21,2095437208
11416,7,Jits_ISO_8,1,5,63,98,2095516124
11416,7,Jits_ISO_8,2,5,80,127,2095576504
11416,7,Jits_ISO_8,3,5,56,103,2095595844
11416,7,Jits_ISO_8,0,1,48,18,2096239688
11416,7,Jits_ISO_8,1,5,80,127,2096305424
11416,7,Jits_ISO_8,2,5,56,103,2096336284
11416,7,Jits_ISO_8,3,5,63,98,2096366180
11416,7,Jits_ISO_8,0,1,48,18,2097007924
11416,7,Jits_ISO_8,1,5,56,103,2097106312
11416,7,Jits_ISO_8,2,5,63,98,2097165608
11416,7,Jits_ISO_8,3,5,80,127,2097226148
11416,7,Jits_ISO_8,0,1,48,20,2097913200
11416,7,Jits_ISO_8,1,5,80,127,2097925472
11416,7,Jits_ISO_8,2,5,56,103,2097946080
11416,7,Jits_ISO_8,3,5,63,98,2098015672
11416,7,Jits_ISO_8,0,1,48,25,2098645560
11416,7,Jits_ISO_8,1,5,80,127,2098726228
11416,7,Jits_ISO_8,2,5,63,98,2098745848
11416,7,Jits_ISO_8,3,5,56,103,2098776420
11416,7,Jits_ISO_8,0,1,48,19,2099409072
11416,7,Jits_ISO_8,1,5,80,127,2099515876
11416,7,Jits_ISO_8,2,5,63,98,2099536188
11416,7,Jits_ISO_8,3,5,56,103,2099595676
11416,7,Jits_ISO_8,0,1,48,18,2100188908
11416,7,Jits_ISO_8,1,5,80,127,2100315424
11416,7,Jits_ISO_8,2,5,56,103,2100415972
11416,7,Jits_ISO_8,3,5,63,98,2100445424
11416,7,Jits_ISO_8,0,1,48,14,2101076460
11416,7,Jits_ISO_8,1,5,63,98,2101106004
11416,7,Jits_ISO_8,2,5,80,127,2101156136
11416,7,Jits_ISO_8,3,5,56,103,2101175680
11416,7,Jits_ISO_8,0,1,48,17,2101937076
11416,7,Jits_ISO_8,1,5,80,127,2101945648
11416,7,Jits_ISO_8,2,5,56,103,2101976368
11416,7,Jits_ISO_8,3,5,63,98,2101979436
11416,7,Jits_ISO_8,0,1,48,15,2102697664
11416,7,Jits_ISO_8,1,5,63,98,2102776064
11416,7,Jits_ISO_8,2,5,56,103,2102816236
11416,7,Jits_ISO_8,3,5,80,127,2102835572
11416,7,Jits_ISO_8,0,1,48,18,2103484124
11416,7,Jits_ISO_8,1,5,80,127,2103515612
11416,7,Jits_ISO_8,2,5,63,98,2103596464
11416,7,Jits_ISO_8,3,5,56,103,2103636476
11416,7,Jits_ISO_8,0,1,48,23,2104276264
11416,7,Jits_ISO_8,1,5,63,98,2104335728
11416,7,Jits_ISO_8,2,5,80,127,2104415512
11416,7,Jits_ISO_8,3,5,56,103,2104436192
11416,7,Jits_ISO_8,0,1,48,19,2105104624
11416,7,Jits_ISO_8,1,5,56,103,2105176348
11416,7,Jits_ISO_8,2,5,63,98,2105185572
11416,7,Jits_ISO_8,3,5,80,127,2105225496
11416,7,Jits_ISO_8,0,1,48,20,2105841284
11416,7,Jits_ISO_8,1,5,56,103,2105896184
11416,7,Jits_ISO_8,2,5,80,127,2105899404
11416,7,Jits_ISO_8,3,5,63,98,2106035600
11416,7,Jits_ISO_8,0,1,48,16,2106672316
11416,7,Jits_ISO_8,1,5,56,103,2106686060
11416,7,Jits_ISO_8,2,5,63,98,2106776032
11416,7,Jits_ISO_8,3,5,80,127,2106845488
11416,7,Jits_ISO_8,0,1,48,18,2107449924
11416,7,Jits_ISO_8,1,5,63,98,2107565472
11416,7,Jits_ISO_8,2,5,80,127,2107568764
11416,7,Jits_ISO_8,3,5,56,103,2107626088
11416,7,Jits_ISO_8,0,1,48,16,2108289564
11416,7,Jits_ISO_8,1,5,80,127,2108406232
11416,7,Jits_ISO_8,2,5,56,103,2108425448
11416,7,Jits_ISO_8,3,5,63,98,2108436092
11416,7,Jits_ISO_8,0,1,48,21,2109072940
11416,7,Jits_ISO_8,1,5,56,103,2109115908
11416,7,Jits_ISO_8,2,5,63,98,2109126252
11416,7,Jits_ISO_8,3,5,80,127,2109195572
11416,7,Jits_ISO_8,0,5,80,127,2109915620
11416,7,Jits_ISO_8,1,1,48,16,2109924212
11416,7,Jits_ISO_8,2,5,56,103,2109965544
11416,7,Jits_ISO_8,3,5,63,98,2110016040
11416,7,Jits_ISO_8,0,1,48,13,2110709236
11416,7,Jits_ISO_8,1,5,56,103,2110796128
11416,7,Jits_ISO_8,2,5,63,98,2110806236
11416,7,Jits_ISO_8,3,5,80,127,2110846396
11416,7,Jits_ISO_8,0,1,48,15,2111510468
11416,7,Jits_ISO_8,1,5,56,103,2111535456
11416,7,Jits_ISO_8,2,5,63,98,2111576368
11416,7,Jits_ISO_8,3,5,80,127,2111625508
11416,7,Jits_ISO_8,0,5,80,127,2112296212
11416,7,Jits_ISO_8,1,5,56,103,2112345444
11416,7,Jits_ISO_8,2,5,63,98,2112366052
11416,7,Jits_ISO_8,0,1,48,13,2113059028
11416,7,Jits_ISO_8,1,5,80,127,2113106180
11416,7,Jits_ISO_8,2,5,63,98,2113165660
11416,7,Jits_ISO_8,3,5,56,103,2113245532
11416,7,Jits_ISO_8,0,1,48,15,2113793980
11416,7,Jits_ISO_8,1,5,80,127,2113885660
11416,7,Jits_ISO_8,2,5,56,103,2113925440
11416,7,Jits_ISO_8,3,5,63,98,2113946120
11416,7,Jits_ISO_8,0,1,48,22,2114616256
11416,7,Jits_ISO_8,1,5,56,103,2114735324
11416,7,Jits_ISO_8,2,5,80,127,2114745892
11416,7,Jits_ISO_8,3,5,63,98,2114785608
11416,7,Jits_ISO_8,0,1,48,17,2115377896
11416,7,Jits_ISO_8,1,5,56,103,2115605856
11416,7,Jits_ISO_8,2,5,63,98,2115646092
11416,7,Jits_ISO_8,3,5,80,127,2115649304
11416,7,Jits_ISO_8,0,1,48,17,2116230796
11416,7,Jits_ISO_8,1,5,63,98,2116295940
11416,7,Jits_ISO_8,2,5,80,127,2116335940
11416,7,Jits_ISO_8,3,5,56,103,2116405720
11416,7,Jits_ISO_8,0,1,48,18,2117058524
11416,7,Jits_ISO_8,1,5,63,98,2117085532
11416,7,Jits_ISO_8,2,5,56,103,2117165488
11416,7,Jits_ISO_8,3,5,80,127,2117225880
11416,7,Jits_ISO_8,0,5,80,127,2117895536
11416,7,Jits_ISO_8,1,1,48,19,2117899176
11416,7,Jits_ISO_8,2,5,63,98,2117945660
11416,7,Jits_ISO_8,3,5,56,103,2117976456
11416,7,Jits_ISO_8,0,5,56,103,2118686036
11416,7,Jits_ISO_8,1,5,63,98,2118736092
11416,7,Jits_ISO_8,2,5,80,127,2118745392
11416,7,Jits_ISO_8,3,1,48,16,2118753612
11416,7,Jits_ISO_8,0,5,56,103,2119496012
11416,7,Jits_ISO_8,1,1,48,17,2119538536
11416,7,Jits_ISO_8,2,5,63,98,2119605696
11416,7,Jits_ISO_8,3,5,80,127,2119626228
11416,7,Jits_ISO_8,0,5,63,98,2120295736
11416,7,Jits_ISO_8,1,5,80,127,2120345940
11416,7,Jits_ISO_8,2,5,56,103,2120436148
11416,7,Jits_ISO_8,0,1,48,17,2121071564
11416,7,Jits_ISO_8,1,5,63,98,2121086288
11416,7,Jits_ISO_8,2,5,80,127,2121115892
11416,7,Jits_ISO_8,3,5,56,103,2121206080
11416,7,Jits_ISO_8,0,1,48,14,2121851944
11416,7,Jits_ISO_8,1,5,63,98,2121885996
11416,7,Jits_ISO_8,2,5,56,103,2121896192
11416,7,Jits_ISO_8,3,5,80,127,2121995772
11416,7,Jits_ISO_8,0,1,48,14,2122642200
11416,7,Jits_ISO_8,1,5,63,98,2122786104
11416,7,Jits_ISO_8,2,5,80,127,2122815932
11416,7,Jits_ISO_8,3,5,56,103,2122845532
11416,7,Jits_ISO_8,0,5,80,127,2123606296
11416,7,Jits_ISO_8,1,5,63,98,2123615744
11416,7,Jits_ISO_8,2,5,56,103,2123646392
11416,7,Jits_ISO_8,0,1,48,17,2124284816
11416,7,Jits_ISO_8,1,5,80,127,2124305772
11416,7,Jits_ISO_8,2,5,63,98,2124326228
11416,7,Jits_ISO_8,3,5,56,103,2124376432
11416,7,Jits_ISO_8,0,1,48,25,2125055524
11416,7,Jits_ISO_8,1,5,63,98,2125136192
11416,7,Jits_ISO_8,2,5,80,127,2125195820
11416,7,Jits_ISO_8,3,5,56,103,2125216056
11416,7,Jits_ISO_8,0,1,48,24,2125810864
11416,7,Jits_ISO_8,1,5,63,98,2125896108
11416,7,Jits_ISO_8,2,5,56,103,2125946296
11416,7,Jits_ISO_8,3,5,80,127,2125955520
11416,7,Jits_ISO_8,0,1,48,16,2126602120
11416,7,Jits_ISO_8,1,5,56,103,2126725916
11416,7,Jits_ISO_8,2,5,80,127,2126735668
11416,7,Jits_ISO_8,3,5,63,98,2126835988
11416,7,Jits_ISO_8,0,1,48,17,2127452336
11416,7,Jits_ISO_8,1,5,80,127,2127486232
11416,7,Jits_ISO_8,2,5,63,98,2127495680
11416,7,Jits_ISO_8,3,5,56,103,2127645980
11416,7,Jits_ISO_8,0,5,63,98,2128296284
11416,7,Jits_ISO_8,1,1,48,27,2128300672
11416,7,Jits_ISO_8,2,5,80,127,2128336220
11416,7,Jits_ISO_8,3,5,56,103,2128416100
11416,7,Jits_ISO_8,0,5,56,103,2129085952
11416,7,Jits_ISO_8,1,1,48,20,2129086916
11416,7,Jits_ISO_8,2,5,80,127,2129186204
11416,7,Jits_ISO_8,3,5,63,98,2129205692
11416,7,Jits_ISO_8,0,1,48,26,2129894644
11416,7,Jits_ISO_8,1,5,80,127,2129946012
11416,7,Jits_ISO_8,2,5,56,103,2129956132
11416,7,Jits_ISO_8,3,5,63,98,2130046324
11416,7,Jits_ISO_8,0,1,48,25,2130686932
11416,7,Jits_ISO_8,1,5,56,103,2130745724
11416,7,Jits_ISO_8,2,5,63,98,2130766112
11416,7,Jits_ISO_8,3,5,80,127,2130846112
11416,7,Jits_ISO_8,0,5,63,98,2131496440
11416,7,Jits_ISO_8,1,1,48,24,2131521208
11416,7,Jits_ISO_8,2,5,56,103,2131586492
11416,7,Jits_ISO_8,3,5,80,127,2131589636
11416,7,Jits_ISO_8,0,1,48,28,2132308684
11416,7,Jits_ISO_8,1,5,56,103,2132325796
11416,7,Jits_ISO_8,2,5,80,127,2132386188
11416,7,Jits_ISO_8,3,5,63,98,2132396608
11416,7,Jits_ISO_8,0,1,48,20,2133168856
11416,7,Jits_ISO_8,1,5,80,127,2133175780
11416,7,Jits_ISO_8,2,5,56,103,2133186048
11416,7,Jits_ISO_8,3,5,63,98,2133189112
11416,7,Jits_ISO_8,0,5,56,103,2133935480
11416,7,Jits_ISO_8,1,5,80,127,2133945900
11416,7,Jits_ISO_8,2,1,48,19,2133952232
11416,7,Jits_ISO_8,3,5,63,98,2133966128
11416,7,Jits_ISO_8,0,1,48,23,2134695836
11416,7,Jits_ISO_8,1,5,63,98,2134705600
11416,7,Jits_ISO_8,2,5,80,127,2134765844
11416,7,Jits_ISO_8,3,5,56,103,2134815980
11416,7,Jits_ISO_8,0,1,48,20,2135473672
11416,7,Jits_ISO_8,1,5,63,98,2135586160
11416,7,Jits_ISO_8,2,5,56,103,2135596356
11416,7,Jits_ISO_8,3,5,80,127,2135645584
11416,7,Jits_ISO_8,0,1,48,19,2136228124
11416,7,Jits_ISO_8,1,5,63,98,2136285692
11416,7,Jits_ISO_8,2,5,80,127,2136305928
11416,7,Jits_ISO_8,3,5,56,103,2136316200
11416,7,Jits_ISO_8,0,1,48,27,2137007516
11416,7,Jits_ISO_8,1,5,63,98,2137086284
11416,7,Jits_ISO_8,2,5,80,127,2137089724
11416,7,Jits_ISO_8,3,5,56,103,2137126136
11416,7,Jits_ISO_8,0,1,48,15,2137832500
11416,7,Jits_ISO_8,1,5,63,98,2137955568
11416,7,Jits_ISO_8,2,5,80,127,2137986440
11416,7,Jits_ISO_8,3,5,56,103,2137995740
11416,7,Jits_ISO_8,0,1,48,21,2138547620
11416,7,Jits_ISO_8,1,5,56,103,2138706492
11416,7,Jits_ISO_8,2,5,80,127,2138736020
11416,7,Jits_ISO_8,3,5,63,98,2138765548
11416,7,Jits_ISO_8,0,1,48,20,2139360800
11416,7,Jits_ISO_8,1,5,63,98,2139606520
11416,7,Jits_ISO_8,2,5,56,103,2139646532
11416,7,Jits_ISO_8,3,5,80,127,2139649672
11416,7,Jits_ISO_8,0,1,48,16,2140157716
11416,7,Jits_ISO_8,1,5,80,127,2140305804
11416,7,Jits_ISO_8,2,5,56,103,2140385604
11416,7,Jits_ISO_8,3,5,63,98,2140435756
11416,7,Jits_ISO_8,0,1,48,18,2141059200
11416,7,Jits_ISO_8,1,5,80,127,2141086052
11416,7,Jits_ISO_8,2,5,56,103,2141105540
11416,7,Jits_ISO_8,3,5,63,98,2141195756
11416,7,Jits_ISO_8,0,1,48,18,2141827660
11416,7,Jits_ISO_8,1,5,80,127,2141925676
11416,7,Jits_ISO_8,2,5,63,98,2141965716
11416,7,Jits_ISO_8,3,5,56,103,2142005732
11416,7,Jits_ISO_8,0,1,48,16,2142671420
11416,7,Jits_ISO_8,1,5,63,98,2142695808
11416,7,Jits_ISO_8,2,5,80,127,2142756300
11416,7,Jits_ISO_8,3,5,56,103,2142785960
11416,7,Jits_ISO_8,0,5,56,103,2143495620
11416,7,Jits_ISO_8,1,1,48,19,2143501804
11416,7,Jits_ISO_8,2,5,80,127,2143526188
11416,7,Jits_ISO_8,3,5,63,98,2143616380
11416,7,Jits_ISO_8,0,5,56,103,2144305680
11416,7,Jits_ISO_8,1,1,48,15,2144394888
11416,7,Jits_ISO_8,2,5,80,127,2144416040
11416,7,Jits_ISO_8,3,5,63,98,2144445712
11416,7,Jits_ISO_8,0,1,48,21,2145145980
11416,7,Jits_ISO_8,1,5,56,103,2145155516
11416,7,Jits_ISO_8,2,5,63,98,2145215764
11416,7,Jits_ISO_8,3,5,80,127,2145245572
11416,7,Jits_ISO_8,0,1,48,21,2145914008
11416,7,Jits_ISO_8,1,5,56,103,2145925416
11416,7,Jits_ISO_8,2,5,63,98,2145996368
11416,7,Jits_ISO_8,3,5,80,127,2146015544
11416,7,Jits_ISO_8,0,5,80,127,2146695536
11416,7,Jits_ISO_8,1,1,48,17,2146704584
11416,7,Jits_ISO_8,2,5,63,98,2146715920
11416,7,Jits_ISO_8,3,5,56,103,2146766340
11416,7,Jits_ISO_8,0,9999,9999,9999,2051963996
11416,7,Jits_ISO_8,1,9999,9999,9999,2052763748
11416,7,Jits_ISO_8,2,9999,9999,9999,2053563472
11416,7,Jits_ISO_8,3,9999,9999,9999,2054363196
11416,7,Jits_ISO_8,4,9999,9999,9999,2055163960
11416,7,Jits_ISO_8,5,9999,9999,9999,2055963768
11416,7,Jits_ISO_8,6,9999,9999,9999,2056763488
11416,7,Jits_ISO_8,7,9999,9999,9999,2057563212
11416,7,Jits_ISO_8,8,9999,9999,9999,2058363972
11416,7,Jits_ISO_8,9,9999,9999,9999,2059163740
11416,7,Jits_ISO_8,10,9999,9999,9999,2059963472
11416,7,Jits_ISO_8,11,9999,9999,9999,2060763256
11416,7,Jits_ISO_8,12,9999,9999,9999,2061564016
11416,7,Jits_ISO_8,13,9999,9999,9999,2062363760
11416,7,Jits_ISO_8,14,9999,9999,9999,2063163456
11416,7,Jits_ISO_8,15,9999,9999,9999,2063963232
11416,7,Jits_ISO_8,16,9999,9999,9999,2064763972
11416,7,Jits_ISO_8,17,9999,9999,9999,2065563760
11416,7,Jits_ISO_8,18,9999,9999,9999,2066363476
11416,7,Jits_ISO_8,19,9999,9999,9999,2067163200
11416,7,Jits_ISO_8,20,9999,9999,9999,2067963956
11416,7,Jits_ISO_8,21,9999,9999,9999,2068763760
11416,7,Jits_ISO_8,22,9999,9999,9999,2069563476
11416,7,Jits_ISO_8,23,9999,9999,9999,2070363260
11416,7,Jits_ISO_8,24,9999,9999,9999,2071164012
11416,7,Jits_ISO_8,25,9999,9999,9999,2071963720
11416,7,Jits_ISO_8,26,9999,9999,9999,2072763504
11416,7,Jits_ISO_8,27,9999,9999,9999,2073563216
11416,7,Jits_ISO_8,28,9999,9999,9999,2074363968
11416,7,Jits_ISO_8,29,9999,9999,9999,2075163700
11416,7,Jits_ISO_8,30,9999,9999,9999,2075963480
11416,7,Jits_ISO_8,31,9999,9999,9999,2076763188
11416,7,Jits_ISO_8,32,9999,9999,9999,2077564016
11416,7,Jits_ISO_8,33,9999,9999,9999,2078363716
11416,7,Jits_ISO_8,34,9999,9999,9999,2079163500
11416,7,Jits_ISO_8,35,9999,9999,9999,2079963216
11416,7,Jits_ISO_8,36,9999,9999,9999,2080763980
11416,7,Jits_ISO_8,37,9999,9999,9999,2081563708
11416,7,Jits_ISO_8,38,9999,9999,9999,2082363452
11416,7,Jits_ISO_8,39,9999,9999,9999,2083163224
11416,7,Jits_ISO_8,40,9999,9999,9999,2083963988
11416,7,Jits_ISO_8,41,9999,9999,9999,2084763768
11416,7,Jits_ISO_8,42,9999,9999,9999,2085563476
11416,7,Jits_ISO_8,43,9999,9999,9999,2086363252
11416,7,Jits_ISO_8,44,9999,9999,9999,2087163988
11416,7,Jits_ISO_8,45,9999,9999,9999,2087963720
11416,7,Jits_ISO_8,46,9999,9999,9999,2088763504
11416,7,Jits_ISO_8,47,9999,9999,9999,2089563208
11416,7,Jits_ISO_8,48,9999,9999,9999,2090364028
11416,7,Jits_ISO_8,49,9999,9999,9999,2091163744
11416,7,Jits_ISO_8,50,9999,9999,9999,2091963452
11416,7,Jits_ISO_8,51,9999,9999,9999,2092763236
11416,7,Jits_ISO_8,52,9999,9999,9999,2093563992
11416,7,Jits_ISO_8,53,9999,9999,9999,2094363728
11416,7,Jits_ISO_8,54,9999,9999,9999,2095163508
11416,7,Jits_ISO_8,55,9999,9999,9999,2095963236
11416,7,Jits_ISO_8,56,9999,9999,9999,2096763988
11416,7,Jits_ISO_8,57,9999,9999,9999,2097563772
11416,7,Jits_ISO_8,58,9999,9999,9999,2098363484
11416,7,Jits_ISO_8,59,9999,9999,9999,2099163188
11416,7,Jits_ISO_8,60,9999,9999,9999,2099964016
11416,7,Jits_ISO_8,61,9999,9999,9999,2100763744
11416,7,Jits_ISO_8,62,9999,9999,9999,2101563448
11416,7,Jits_ISO_8,63,9999,9999,9999,2102363224
11416,7,Jits_ISO_8,64,9999,9999,9999,2103163984
11416,7,Jits_ISO_8,65,9999,9999,9999,2103963768
11416,7,Jits_ISO_8,66,9999,9999,9999,2104763480
11416,7,Jits_ISO_8,67,9999,9999,9999,2105563192
11416,7,Jits_ISO_8,68,9999,9999,9999,2106364008
11416,7,Jits_ISO_8,69,9999,9999,9999,2107163736
11416,7,Jits_ISO_8,70,9999,9999,9999,2107963512
11416,7,Jits_ISO_8,71,9999,9999,9999,2108763232
11416,7,Jits_ISO_8,72,9999,9999,9999,2109563984
11416,7,Jits_ISO_8,73,9999,9999,9999,2110363764
11416,7,Jits_ISO_8,74,9999,9999,9999,2111163496
11416,7,Jits_ISO_8,75,9999,9999,9999,2111963208
11416,7,Jits_ISO_8,76,9999,9999,9999,2112763980
11416,7,Jits_ISO_8,77,9999,9999,9999,2113563700
11416,7,Jits_ISO_8,78,9999,9999,9999,2114363480
11416,7,Jits_ISO_8,79,9999,9999,9999,2115163260
11416,7,Jits_ISO_8,80,9999,9999,9999,2115964016
11416,7,Jits_ISO_8,81,9999,9999,9999,2116763720
11416,7,Jits_ISO_8,82,9999,9999,9999,2117563504
11416,7,Jits_ISO_8,83,9999,9999,9999,2118363212
11416,7,Jits_ISO_8,84,9999,9999,9999,2119163972
11416,7,Jits_ISO_8,85,9999,9999,9999,2119963716
11416,7,Jits_ISO_8,86,9999,9999,9999,2120763460
11416,7,Jits_ISO_8,87,9999,9999,9999,2121563208
11416,7,Jits_ISO_8,88,9999,9999,9999,2122363960
11416,7,Jits_ISO_8,89,9999,9999,9999,2123163752
11416,7,Jits_ISO_8,90,9999,9999,9999,2123963492
11416,7,Jits_ISO_8,91,9999,9999,9999,2124763260
11416,7,Jits_ISO_8,92,9999,9999,9999,2125564016
11416,7,Jits_ISO_8,93,9999,9999,9999,2126363740
11416,7,Jits_ISO_8,94,9999,9999,9999,2127163448
11416,7,Jits_ISO_8,95,9999,9999,9999,2127963232
11416,7,Jits_ISO_8,96,9999,9999,9999,2128763988
11416,7,Jits_ISO_8,97,9999,9999,9999,2129563772
11416,7,Jits_ISO_8,98,9999,9999,9999,2130363500
11416,7,Jits_ISO_8,99,9999,9999,9999,2131163212
11416,7,Jits_ISO_8,100,9999,9999,9999,2131963960
11416,7,Jits_ISO_8,101,9999,9999,9999,2132763760
11416,7,Jits_ISO_8,102,9999,9999,9999,2133563464
11416,7,Jits_ISO_8,103,9999,9999,9999,2134363248
11416,7,Jits_ISO_8,104,9999,9999,9999,2135164016
11416,7,Jits_ISO_8,105,9999,9999,9999,2135963732
11416,7,Jits_ISO_8,106,9999,9999,9999,2136763508
11416,7,Jits_ISO_8,107,9999,9999,9999,2137563244
11416,7,Jits_ISO_8,108,9999,9999,9999,2138364004
11416,7,Jits_ISO_8,109,9999,9999,9999,2139163724
11416,7,Jits_ISO_8,110,9999,9999,9999,2139963484
11416,7,Jits_ISO_8,111,9999,9999,9999,2140763192
11416,7,Jits_ISO_8,112,9999,9999,9999,2141564020
11416,7,Jits_ISO_8,113,9999,9999,9999,2142363732
11416,7,Jits_ISO_8,114,9999,9999,9999,2143163512
11416,7,Jits_ISO_8,115,9999,9999,9999,2143963220
11416,7,Jits_ISO_8,116,9999,9999,9999,2144763996
11416,7,Jits_ISO_8,117,9999,9999,9999,2145563744
11416,7,Jits_ISO_8,118,9999,9999,9999,2146363456
11416,7,Jits_ISO_8,119,9999,9999,9999,2147163236
11417,16,Jits_ISO_5,0,5,56,103,2155455864
11417,16,Jits_ISO_5,1,5,63,98,2155458960
11417,16,Jits_ISO_5,2,5,80,127,2155462080
11417,16,Jits_ISO_5,0,5,56,103,2155955584
11417,16,Jits_ISO_5,1,5,63,98,2155958608
11417,16,Jits_ISO_5,2,5,80,127,2155961656
11417,16,Jits_ISO_5,3,1,48,17,2156175084
11417,16,Jits_ISO_5,0,5,56,103,2156456304
11417,16,Jits_ISO_5,1,5,80,127,2156465452
11417,16,Jits_ISO_5,2,5,63,98,2156486284
11417,16,Jits_ISO_5,3,1,48,19,2156506192
11417,16,Jits_ISO_5,0,5,63,98,2156905860
11417,16,Jits_ISO_5,1,5,80,127,2156935532
11417,16,Jits_ISO_5,2,5,56,103,2156945804
11417,16,Jits_ISO_5,3,1,48,27,2156949440
11417,16,Jits_ISO_5,0,1,48,29,2157406604
11417,16,Jits_ISO_5,1,5,80,127,2157466116
11417,16,Jits_ISO_5,2,5,56,103,2157476608
11417,16,Jits_ISO_5,3,5,63,98,2157506792
11417,16,Jits_ISO_5,0,1,48,20,2157936012
11417,16,Jits_ISO_5,1,5,63,98,2157955292
11417,16,Jits_ISO_5,2,5,56,103,2157986460
11417,16,Jits_ISO_5,3,5,80,127,2157996356
11417,16,Jits_ISO_5,0,5,56,103,2158406108
11417,16,Jits_ISO_5,1,1,48,23,2158418740
11417,16,Jits_ISO_5,2,5,63,98,2158456376
11417,16,Jits_ISO_5,3,5,80,127,2158475492
11417,16,Jits_ISO_5,0,5,80,127,2158905632
11417,16,Jits_ISO_5,1,1,48,27,2158925016
11417,16,Jits_ISO_5,2,5,63,98,2158955976
11417,16,Jits_ISO_5,3,5,56,103,2158995836
11417,16,Jits_ISO_5,0,5,56,103,2159405384
11417,16,Jits_ISO_5,1,1,48,20,2159435348
11417,16,Jits_ISO_5,2,5,63,98,2159436692
11417,16,Jits_ISO_5,3,5,80,127,2159505700
11417,16,Jits_ISO_5,0,1,48,28,2159859892
11417,16,Jits_ISO_5,1,5,56,103,2159906320
11417,16,Jits_ISO_5,2,5,80,127,2159965500
11417,16,Jits_ISO_5,3,5,63,98,2159996368
11417,16,Jits_ISO_5,0,1,48,19,2160353172
11417,16,Jits_ISO_5,1,5,56,103,2160416316
11417,16,Jits_ISO_5,2,5,63,98,2160426364
11417,16,Jits_ISO_5,3,5,80,127,2160466360
11417,16,Jits_ISO_5,0,1,48,20,2160825272
11417,16,Jits_ISO_5,1,5,63,98,2160905560
11417,16,Jits_ISO_5,2,5,80,127,2160985416
11417,16,Jits_ISO_5,3,5,56,103,2160995684
11417,16,Jits_ISO_5,0,1,48,18,2161318332
11417,16,Jits_ISO_5,1,5,63,98,2161455400
11417,16,Jits_ISO_5,2,5,56,103,2161496532
11417,16,Jits_ISO_5,3,5,80,127,2161499448
11417,16,Jits_ISO_5,0,1,48,18,2161839488
11417,16,Jits_ISO_5,1,5,56,103,2161916308
11417,16,Jits_ISO_5,2,5,63,98,2161925408
11417,16,Jits_ISO_5,3,5,80,127,2161965476
11417,16,Jits_ISO_5,0,1,48,20,2162310816
11417,16,Jits_ISO_5,1,5,56,103,2162405700
11417,16,Jits_ISO_5,2,5,63,98,2162409420
11417,16,Jits_ISO_5,3,5,80,127,2162426368
11417,16,Jits_ISO_5,0,1,48,21,2162771724
11417,16,Jits_ISO_5,1,5,80,127,2162915668
11417,16,Jits_ISO_5,2,5,56,103,2162926088
11417,16,Jits_ISO_5,3,5,63,98,2162995716
11417,16,Jits_ISO_5,0,1,48,20,2163327656
11417,16,Jits_ISO_5,1,5,63,98,2163406272
11417,16,Jits_ISO_5,2,5,56,103,2163425596
11417,16,Jits_ISO_5,3,5,80,127,2163505484
11417,16,Jits_ISO_5,0,1,48,17,2163822200
11417,16,Jits_ISO_5,1,5,56,103,2163916408
11417,16,Jits_ISO_5,2,5,80,127,2163956036
11417,16,Jits_ISO_5,3,5,63,98,2163966380
11417,16,Jits_ISO_5,0,1,48,16,2164301008
11417,16,Jits_ISO_5,1,5,80,127,2164405540
11417,16,Jits_ISO_5,2,5,63,98,2164436484
11417,16,Jits_ISO_5,3,5,56,103,2164476348
11417,16,Jits_ISO_5,0,1,48,16,2164803828
11417,16,Jits_ISO_5,1,5,56,103,2164925724
11417,16,Jits_ISO_5,2,5,63,98,2164955476
11417,16,Jits_ISO_5,3,5,80,127,2165005624
11417,16,Jits_ISO_5,0,1,48,19,2165286544
11417,16,Jits_ISO_5,1,5,80,127,2165425456
11417,16,Jits_ISO_5,2,5,56,103,2165465320
11417,16,Jits_ISO_5,3,5,63,98,2165475812
11417,16,Jits_ISO_5,0,1,48,18,2165833540
11417,16,Jits_ISO_5,1,5,80,127,2165905948
11417,16,Jits_ISO_5,2,5,63,98,2165945872
11417,16,Jits_ISO_5,3,5,56,103,2166006256
11417,16,Jits_ISO_5,0,1,48,20,2166300236
11417,16,Jits_ISO_5,1,5,56,103,2166405444
11417,16,Jits_ISO_5,2,5,80,127,2166415864
11417,16,Jits_ISO_5,3,5,63,98,2166495728
11417,16,Jits_ISO_5,0,1,48,19,2166789780
11417,16,Jits_ISO_5,1,5,80,127,2166906220
11417,16,Jits_ISO_5,2,5,63,98,2166965712
11417,16,Jits_ISO_5,3,5,56,103,2166996356
11417,16,Jits_ISO_5,0,1,48,15,2167363372
11417,16,Jits_ISO_5,1,5,56,103,2167405892
11417,16,Jits_ISO_5,2,5,80,127,2167466340
11417,16,Jits_ISO_5,3,5,63,98,2167506276
11417,16,Jits_ISO_5,0,1,48,14,2167816228
11417,16,Jits_ISO_5,1,5,56,103,2167955960
11417,16,Jits_ISO_5,2,5,63,98,2167966152
11417,16,Jits_ISO_5,3,5,80,127,2167969368
11417,16,Jits_ISO_5,0,1,48,16,2168340064
11417,16,Jits_ISO_5,1,5,80,127,2168406400
11417,16,Jits_ISO_5,2,5,63,98,2168495396
11417,16,Jits_ISO_5,3,5,56,103,2168505812
11417,16,Jits_ISO_5,0,1,48,15,2168807936
11417,16,Jits_ISO_5,1,5,56,103,2168916292
11417,16,Jits_ISO_5,2,5,63,98,2168919388
11417,16,Jits_ISO_5,3,5,80,127,2168922584
11417,16,Jits_ISO_5,0,1,48,15,2169367380
11417,16,Jits_ISO_5,1,5,80,127,2169435508
11417,16,Jits_ISO_5,2,5,63,98,2169485696
11417,16,Jits_ISO_5,3,5,56,103,2169516268
11417,16,Jits_ISO_5,0,1,48,24,2169898728
11417,16,Jits_ISO_5,1,5,56,103,2169915692
11417,16,Jits_ISO_5,2,5,80,127,2169926260
11417,16,Jits_ISO_5,3,5,63,98,2169995548
11417,16,Jits_ISO_5,0,5,56,103,2170425768
11417,16,Jits_ISO_5,1,1,48,15,2170428360
11417,16,Jits_ISO_5,2,5,63,98,2170446220
11417,16,Jits_ISO_5,3,5,80,127,2170505484
11417,16,Jits_ISO_5,0,5,80,127,2170916148
11417,16,Jits_ISO_5,1,1,48,17,2170917636
11417,16,Jits_ISO_5,2,5,63,98,2170985824
11417,16,Jits_ISO_5,3,5,56,103,2171006356
11417,16,Jits_ISO_5,0,1,48,17,2171409492
11417,16,Jits_ISO_5,1,5,80,127,2171436492
11417,16,Jits_ISO_5,2,5,56,103,2171445716
11417,16,Jits_ISO_5,3,5,63,98,2171455984
11417,16,Jits_ISO_5,0,5,80,127,2171925816
11417,16,Jits_ISO_5,1,5,56,103,2171946424
11417,16,Jits_ISO_5,2,5,63,98,2172016176
11417,16,Jits_ISO_5,0,1,48,17,2172348024
11417,16,Jits_ISO_5,1,5,56,103,2172436108
11417,16,Jits_ISO_5,2,5,80,127,2172465544
11417,16,Jits_ISO_5,3,5,63,98,2172485928
11417,16,Jits_ISO_5,0,1,48,16,2172910384
11417,16,Jits_ISO_5,1,5,63,98,2172926452
11417,16,Jits_ISO_5,2,5,56,103,2172985596
11417,16,Jits_ISO_5,3,5,80,127,2173016520
11417,16,Jits_ISO_5,0,5,63,98,2173415924
11417,16,Jits_ISO_5,1,5,80,127,2173419064
11417,16,Jits_ISO_5,2,5,56,103,2173506152
11417,16,Jits_ISO_5,0,5,56,103,2173936168
11417,16,Jits_ISO_5,1,5,63,98,2173965644
11417,16,Jits_ISO_5,2,5,80,127,2174005580
11417,16,Jits_ISO_5,0,1,48,15,2174395196
11417,16,Jits_ISO_5,1,5,63,98,2174435828
11417,16,Jits_ISO_5,2,5,56,103,2174475716
11417,16,Jits_ISO_5,3,5,80,127,2174496084
11417,16,Jits_ISO_5,0,5,63,98,2174945680
11417,16,Jits_ISO_5,1,5,56,103,2174985568
11417,16,Jits_ISO_5,2,5,80,127,2174996208
11417,16,Jits_ISO_5,0,1,48,14,2175368356
11417,16,Jits_ISO_5,1,5,80,127,2175426068
11417,16,Jits_ISO_5,2,5,63,98,2175495684
11417,16,Jits_ISO_5,3,5,56,103,2175516068
11417,16,Jits_ISO_5,0,1,48,16,2175857752
11417,16,Jits_ISO_5,1,5,56,103,2175916512
11417,16,Jits_ISO_5,2,5,80,127,2175936072
11417,16,Jits_ISO_5,3,5,63,98,2175975996
11417,16,Jits_ISO_5,0,1,48,17,2176391268
11417,16,Jits_ISO_5,1,5,63,98,2176435652
11417,16,Jits_ISO_5,2,5,80,127,2176456184
11417,16,Jits_ISO_5,3,5,56,103,2176495956
11417,16,Jits_ISO_5,0,1,48,15,2176844188
11417,16,Jits_ISO_5,1,5,63,98,2176936356
11417,16,Jits_ISO_5,2,5,56,103,2176956052
11417,16,Jits_ISO_5,3,5,80,127,2176965876
11417,16,Jits_ISO_5,0,1,48,18,2177395084
11417,16,Jits_ISO_5,1,5,80,127,2177436012
11417,16,Jits_ISO_5,2,5,56,103,2177455424
11417,16,Jits_ISO_5,3,5,63,98,2177486144
11417,16,Jits_ISO_5,0,1,48,13,2177886868
11417,16,Jits_ISO_5,1,5,56,103,2178006372
11417,16,Jits_ISO_5,2,5,80,127,2178009440
11417,16,Jits_ISO_5,3,5,63,98,2178026008
11417,16,Jits_ISO_5,0,5,63,98,2178426260
11417,16,Jits_ISO_5,1,1,48,17,2178442180
11417,16,Jits_ISO_5,2,5,56,103,2178456076
11417,16,Jits_ISO_5,3,5,80,127,2178516316
11417,16,Jits_ISO_5,0,1,48,17,2178948208
11417,16,Jits_ISO_5,1,5,63,98,2179006144
11417,16,Jits_ISO_5,2,5,56,103,2179016044
11417,16,Jits_ISO_5,3,5,80,127,2179026164
11417,16,Jits_ISO_5,0,5,56,103,2179456296
11417,16,Jits_ISO_5,1,1,48,16,2179461508
11417,16,Jits_ISO_5,2,5,80,127,2179486188
11417,16,Jits_ISO_5,3,5,63,98,2179496384
11417,16,Jits_ISO_5,0,1,48,17,2179947396
11417,16,Jits_ISO_5,1,5,63,98,2179995896
11417,16,Jits_ISO_5,2,5,56,103,2180006316
11417,16,Jits_ISO_5,3,5,80,127,2180025952
11417,16,Jits_ISO_5,0,5,56,103,2180436452
11417,16,Jits_ISO_5,1,5,63,98,2180495792
11417,16,Jits_ISO_5,2,5,80,127,2180499080
11417,16,Jits_ISO_5,0,1,48,16,2180927160
11417,16,Jits_ISO_5,1,5,80,127,2180955432
11417,16,Jits_ISO_5,2,5,56,103,2180965852
11417,16,Jits_ISO_5,3,5,63,98,2181036484
11417,16,Jits_ISO_5,0,5,80,127,2181446104
11417,16,Jits_ISO_5,1,5,56,103,2181515784
11417,16,Jits_ISO_5,2,5,63,98,2181526204
11417,16,Jits_ISO_5,0,1,48,16,2181907376
11417,16,Jits_ISO_5,1,5,63,98,2181985772
11417,16,Jits_ISO_5,2,5,56,103,2181995892
11417,16,Jits_ISO_5,3,5,80,127,2182016336
11417,16,Jits_ISO_5,0,5,80,127,2182436068
11417,16,Jits_ISO_5,1,5,63,98,2182495560
11417,16,Jits_ISO_5,2,5,56,103,2182535644
11417,16,Jits_ISO_5,0,1,48,20,2182939960
11417,16,Jits_ISO_5,1,5,56,103,2182975804
11417,16,Jits_ISO_5,2,5,63,98,2182986000
11417,16,Jits_ISO_5,3,5,80,127,2183026008
11417,16,Jits_ISO_5,0,1,48,14,2183365736
11417,16,Jits_ISO_5,1,5,56,103,2183435608
11417,16,Jits_ISO_5,2,5,80,127,2183466388
11417,16,Jits_ISO_5,3,5,63,98,2183515540
11417,16,Jits_ISO_5,0,1,48,22,2183838036
11417,16,Jits_ISO_5,1,5,56,103,2183976304
11417,16,Jits_ISO_5,2,5,63,98,2184016240
11417,16,Jits_ISO_5,3,5,80,127,2184019528
11417,16,Jits_ISO_5,0,1,48,20,2184375308
11417,16,Jits_ISO_5,1,5,56,103,2184476548
11417,16,Jits_ISO_5,2,5,63,98,2184486372
11417,16,Jits_ISO_5,3,5,80,127,2184505860
11417,16,Jits_ISO_5,0,1,48,19,2184895792
11417,16,Jits_ISO_5,1,5,56,103,2184935892
11417,16,Jits_ISO_5,2,5,80,127,2184938884
11417,16,Jits_ISO_5,3,5,63,98,2184975704
11417,16,Jits_ISO_5,0,1,48,16,2185334076
11417,16,Jits_ISO_5,1,5,63,98,2185475408
11417,16,Jits_ISO_5,2,5,56,103,2185506128
11417,16,Jits_ISO_5,3,5,80,127,2185525912
11417,16,Jits_ISO_5,0,1,48,26,2185902872
11417,16,Jits_ISO_5,1,5,80,127,2185945316
11417,16,Jits_ISO_5,2,5,56,103,2185955956
11417,16,Jits_ISO_5,3,5,63,98,2185965932
11417,16,Jits_ISO_5,0,1,48,17,2186385752
11417,16,Jits_ISO_5,1,5,56,103,2186446236
11417,16,Jits_ISO_5,2,5,80,127,2186486232
11417,16,Jits_ISO_5,3,5,63,98,2186516004
11417,16,Jits_ISO_5,0,5,63,98,2186956160
11417,16,Jits_ISO_5,1,5,80,127,2186966508
11417,16,Jits_ISO_5,2,5,56,103,2186975580
11417,16,Jits_ISO_5,0,5,56,103,2187436404
11417,16,Jits_ISO_5,1,1,48,17,2187454288
11417,16,Jits_ISO_5,2,5,63,98,2187506000
11417,16,Jits_ISO_5,3,5,80,127,2187516272
11417,16,Jits_ISO_5,0,5,80,127,2187946264
11417,16,Jits_ISO_5,1,5,56,103,2187955860
11417,16,Jits_ISO_5,2,1,48,17,2187963092
11417,16,Jits_ISO_5,3,5,63,98,2188005828
11417,16,Jits_ISO_5,0,1,48,34,2188435492
11417,16,Jits_ISO_5,1,5,80,127,2188456264
11417,16,Jits_ISO_5,2,5,56,103,2188515756
11417,16,Jits_ISO_5,3,5,63,98,2188546708
11417,16,Jits_ISO_5,0,1,48,22,2188910720
11417,16,Jits_ISO_5,1,5,56,103,2188956072
11417,16,Jits_ISO_5,2,5,80,127,2188958916
11417,16,Jits_ISO_5,3,5,63,98,2188995936
11417,16,Jits_ISO_5,0,1,48,27,2189429240
11417,16,Jits_ISO_5,1,5,56,103,2189485312
11417,16,Jits_ISO_5,2,5,63,98,2189516108
11417,16,Jits_ISO_5,3,5,80,127,2189527632
11417,16,Jits_ISO_5,0,1,48,32,2189864332
11417,16,Jits_ISO_5,1,1,48,24,2189914728
11417,16,Jits_ISO_5,2,5,63,98,2189996484
11417,16,Jits_ISO_5,3,5,80,127,2190005708
11417,16,Jits_ISO_5,4,5,56,103,2190015816
11417,16,Jits_ISO_5,0,1,48,22,2190443872
11417,16,Jits_ISO_5,1,5,80,127,2190445840
11417,16,Jits_ISO_5,2,5,56,103,2190496036
11417,16,Jits_ISO_5,3,5,63,98,2190499252
11417,16,Jits_ISO_5,0,1,48,13,2190973320
11417,16,Jits_ISO_5,1,5,56,103,2190976352
11417,16,Jits_ISO_5,2,5,80,127,2190995764
11417,16,Jits_ISO_5,3,5,63,98,2191006180
11417,16,Jits_ISO_5,0,5,63,98,2191455712
11417,16,Jits_ISO_5,1,1,48,29,2191458532
11417,16,Jits_ISO_5,2,5,56,103,2191486204
11417,16,Jits_ISO_5,3,5,80,127,2191505988
11417,16,Jits_ISO_5,0,1,48,24,2191942440
11417,16,Jits_ISO_5,1,5,56,103,2191975892
11417,16,Jits_ISO_5,2,5,80,127,2191986016
11417,16,Jits_ISO_5,3,5,63,98,2192055676
11417,16,Jits_ISO_5,0,5,63,98,2192466416
11417,16,Jits_ISO_5,1,1,48,30,2192477556
11417,16,Jits_ISO_5,2,5,80,127,2192506272
11417,16,Jits_ISO_5,3,5,56,103,2192546136
11417,16,Jits_ISO_5,0,5,56,103,2192976264
11417,16,Jits_ISO_5,1,5,63,98,2192985564
11417,16,Jits_ISO_5,2,1,48,29,2192990172
11417,16,Jits_ISO_5,3,5,80,127,2193005792
11417,16,Jits_ISO_5,0,1,48,16,2193464744
11417,16,Jits_ISO_5,1,5,63,98,2193515936
11417,16,Jits_ISO_5,2,5,80,127,2193536396
11417,16,Jits_ISO_5,3,5,56,103,2193556616
11417,16,Jits_ISO_5,0,5,56,103,2193956416
11417,16,Jits_ISO_5,1,1,48,29,2194002160
11417,16,Jits_ISO_5,2,5,80,127,2194036056
11417,16,Jits_ISO_5,3,5,63,98,2194046472
11417,16,Jits_ISO_5,0,1,48,26,2194436212
11417,16,Jits_ISO_5,1,5,80,127,2194495868
11417,16,Jits_ISO_5,2,5,63,98,2194506140
11417,16,Jits_ISO_5,3,5,56,103,2194535796
11417,16,Jits_ISO_5,0,5,63,98,2194955676
11417,16,Jits_ISO_5,1,1,48,27,2194973772
11417,16,Jits_ISO_5,2,5,80,127,2194995684
11417,16,Jits_ISO_5,3,5,56,103,2195055920
11417,16,Jits_ISO_5,0,1,48,21,2195432572
11417,16,Jits_ISO_5,1,5,63,98,2195465816
11417,16,Jits_ISO_5,2,5,56,103,2195515796
11417,16,Jits_ISO_5,3,5,80,127,2195545676
11417,16,Jits_ISO_5,0,5,80,127,2195975900
11417,16,Jits_ISO_5,1,5,63,98,2195985800
11417,16,Jits_ISO_5,2,1,48,19,2195988768
11417,16,Jits_ISO_5,3,5,56,103,2196056292
11417,16,Jits_ISO_5,0,1,48,27,2196457836
11417,16,Jits_ISO_5,1,5,80,127,2196545916
11417,16,Jits_ISO_5,2,5,56,103,2196556244
11417,16,Jits_ISO_5,3,5,63,98,2196559236
11417,16,Jits_ISO_5,0,1,48,21,2196954876
11417,16,Jits_ISO_5,1,5,56,103,2196986436
11417,16,Jits_ISO_5,2,5,80,127,2197005652
11417,16,Jits_ISO_5,3,5,63,98,2197015772
11417,16,Jits_ISO_5,0,1,48,20,2197434008
11417,16,Jits_ISO_5,1,5,63,98,2197496064
11417,16,Jits_ISO_5,2,5,56,103,2197536012
11417,16,Jits_ISO_5,3,5,80,127,2197555648
11417,16,Jits_ISO_5,0,1,48,21,2197941816
11417,16,Jits_ISO_5,1,5,63,98,2197995868
11417,16,Jits_ISO_5,2,5,56,103,2198056268
11417,16,Jits_ISO_5,3,5,80,127,2198059556
11417,16,Jits_ISO_5,0,1,48,24,2198402884
11417,16,Jits_ISO_5,1,5,56,103,2198455668
11417,16,Jits_ISO_5,2,5,80,127,2198476124
11417,16,Jits_ISO_5,3,5,63,98,2198516048
11417,16,Jits_ISO_5,0,1,48,24,2198918508
11417,16,Jits_ISO_5,1,5,56,103,2198986040
11417,16,Jits_ISO_5,2,5,63,98,2199005676
11417,16,Jits_ISO_5,3,5,80,127,2199015724
11417,16,Jits_ISO_5,0,1,48,20,2199386332
11417,16,Jits_ISO_5,1,5,80,127,2199466440
11417,16,Jits_ISO_5,2,5,56,103,2199496028
11417,16,Jits_ISO_5,3,5,63,98,2199535964
11417,16,Jits_ISO_5,0,1,48,25,2199917076
11417,16,Jits_ISO_5,1,5,80,127,2199976288
11417,16,Jits_ISO_5,2,5,56,103,2199995628
11417,16,Jits_ISO_5,3,5,63,98,2200056148
11417,16,Jits_ISO_5,0,1,48,21,2200414568
11417,16,Jits_ISO_5,1,5,56,103,2200486360
11417,16,Jits_ISO_5,2,5,80,127,2200505848
11417,16,Jits_ISO_5,3,5,63,98,2200566072
11417,16,Jits_ISO_5,0,1,48,20,2200940140
11417,16,Jits_ISO_5,1,5,80,127,2200965644
11417,16,Jits_ISO_5,2,5,56,103,2200975912
11417,16,Jits_ISO_5,3,5,63,98,2201015776
11417,16,Jits_ISO_5,0,1,48,21,2201401880
11417,16,Jits_ISO_5,1,5,63,98,2201466344
11417,16,Jits_ISO_5,2,5,56,103,2201506116
11417,16,Jits_ISO_5,3,5,80,127,2201509256
11417,16,Jits_ISO_5,0,1,48,16,2201968288
11417,16,Jits_ISO_5,1,5,63,98,2201986448
11417,16,Jits_ISO_5,2,5,80,127,2202026460
11417,16,Jits_ISO_5,3,5,56,103,2202056056
11417,16,Jits_ISO_5,0,5,56,103,2202475852
11417,16,Jits_ISO_5,1,1,48,20,2202479488
11417,16,Jits_ISO_5,2,5,63,98,2202486264
11417,16,Jits_ISO_5,3,5,80,127,2202515712
11417,16,Jits_ISO_5,0,5,80,127,2202966524
11417,16,Jits_ISO_5,1,1,48,17,2202975044
11417,16,Jits_ISO_5,2,5,63,98,2203035976
11417,16,Jits_ISO_5,3,5,56,103,2203046468
11417,16,Jits_ISO_5,0,5,63,98,2203476460
11417,16,Jits_ISO_5,1,1,48,17,2203493976
11417,16,Jits_ISO_5,2,5,56,103,2203545840
11417,16,Jits_ISO_5,3,5,80,127,2203556404
11417,16,Jits_ISO_5,0,1,48,18,2203964332
11417,16,Jits_ISO_5,1,5,63,98,2203976192
11417,16,Jits_ISO_5,2,5,56,103,2203995676
11417,16,Jits_ISO_5,3,5,80,127,2204035616
11417,16,Jits_ISO_5,0,1,48,16,2204467128
11417,16,Jits_ISO_5,1,5,56,103,2204485960
11417,16,Jits_ISO_5,2,5,63,98,2204496380
11417,16,Jits_ISO_5,3,5,80,127,2204576232
11417,16,Jits_ISO_5,0,1,48,15,2204915824
11417,16,Jits_ISO_5,1,5,63,98,2204975508
11417,16,Jits_ISO_5,2,5,56,103,2205006228
11417,16,Jits_ISO_5,3,5,80,127,2205046076
11417,16,Jits_ISO_5,0,1,48,17,2205424096
11417,16,Jits_ISO_5,1,5,56,103,2205476060
11417,16,Jits_ISO_5,2,5,63,98,2205516072
11417,16,Jits_ISO_5,3,5,80,127,2205556140
11417,16,Jits_ISO_5,0,1,48,14,2205927716
11417,16,Jits_ISO_5,1,5,80,127,2205975864
11417,16,Jits_ISO_5,2,5,56,103,2206055792
11417,16,Jits_ISO_5,3,5,63,98,2206066288
11417,16,Jits_ISO_5,0,5,56,103,2206515536
11417,16,Jits_ISO_5,1,5,63,98,2206518528
11417,16,Jits_ISO_5,2,5,80,127,2206525660
11417,16,Jits_ISO_5,0,1,48,17,2206890388
11417,16,Jits_ISO_5,1,5,56,103,2207035624
11417,16,Jits_ISO_5,2,5,63,98,2207056380
11417,16,Jits_ISO_5,3,5,80,127,2207065680
11417,16,Jits_ISO_5,0,1,48,21,2207480476
11417,16,Jits_ISO_5,1,5,63,98,2207495668
11417,16,Jits_ISO_5,2,5,80,127,2207505864
11417,16,Jits_ISO_5,3,5,56,103,2207526544
11417,16,Jits_ISO_5,0,5,63,98,2207996356
11417,16,Jits_ISO_5,1,1,48,16,2208040896
11417,16,Jits_ISO_5,2,5,56,103,2208076516
11417,16,Jits_ISO_5,3,5,80,127,2208079428
11417,16,Jits_ISO_5,0,5,63,98,2208495836
11417,16,Jits_ISO_5,1,5,56,103,2208515348
11417,16,Jits_ISO_5,2,1,48,23,2208518016
11417,16,Jits_ISO_5,3,5,80,127,2208546212
11417,16,Jits_ISO_5,0,5,56,103,2208995648
11417,16,Jits_ISO_5,1,5,63,98,2209016108
11417,16,Jits_ISO_5,2,5,80,127,2209026624
11417,16,Jits_ISO_5,0,1,48,21,2209514532
11417,16,Jits_ISO_5,1,5,56,103,2209526012
11417,16,Jits_ISO_5,2,5,63,98,2209555784
11417,16,Jits_ISO_5,3,5,80,127,2209559076
11417,16,Jits_ISO_5,0,5,56,103,2209975776
11417,16,Jits_ISO_5,1,1,48,17,2209978892
11417,16,Jits_ISO_5,2,5,63,98,2210015708
11417,16,Jits_ISO_5,3,5,80,127,2210076028
11417,16,Jits_ISO_5,0,1,48,13,2210458180
11417,16,Jits_ISO_5,1,5,56,103,2210495820
11417,16,Jits_ISO_5,2,5,63,98,2210506240
11417,16,Jits_ISO_5,3,5,80,127,2210565588
11417,16,Jits_ISO_5,0,1,48,28,2210994412
11417,16,Jits_ISO_5,1,5,56,103,2211005816
11417,16,Jits_ISO_5,2,5,80,127,2211026500
11417,16,Jits_ISO_5,3,5,63,98,2211056024
11417,16,Jits_ISO_5,0,1,48,18,2211494216
11417,16,Jits_ISO_5,1,5,80,127,2211505700
11417,16,Jits_ISO_5,2,5,56,103,2211515744
11417,16,Jits_ISO_5,3,5,63,98,2211536428
11417,16,Jits_ISO_5,0,1,48,24,2211974544
11417,16,Jits_ISO_5,1,5,63,98,2211996288
11417,16,Jits_ISO_5,2,5,80,127,2212075844
11417,16,Jits_ISO_5,3,5,56,103,2212086112
11417,16,Jits_ISO_5,0,1,48,19,2212523036
11417,16,Jits_ISO_5,1,5,80,127,2212556108
11417,16,Jits_ISO_5,2,5,56,103,2212575740
11417,16,Jits_ISO_5,3,5,63,98,2212578660
11417,16,Jits_ISO_5,0,1,48,17,2213004120
11417,16,Jits_ISO_5,1,5,63,98,2213026316
11417,16,Jits_ISO_5,2,5,80,127,2213029528
11417,16,Jits_ISO_5,3,5,56,103,2213085508
11417,16,Jits_ISO_5,0,1,48,31,2213489976
11417,16,Jits_ISO_5,1,5,56,103,2213506560
11417,16,Jits_ISO_5,2,5,80,127,2213515636
11417,16,Jits_ISO_5,3,5,63,98,2213555572
11417,16,Jits_ISO_5,0,1,48,21,2213974804
11417,16,Jits_ISO_5,1,5,56,103,2213985616
11417,16,Jits_ISO_5,2,5,63,98,2214046008
11417,16,Jits_ISO_5,3,5,80,127,2214056276
11417,16,Jits_ISO_5,0,1,48,15,2214462160
11417,16,Jits_ISO_5,1,5,63,98,2214495540
11417,16,Jits_ISO_5,2,5,80,127,2214535476
11417,16,Jits_ISO_5,3,5,56,103,2214575548
11417,16,Jits_ISO_5,0,1,48,25,2214956664
11417,16,Jits_ISO_5,1,5,56,103,2215005684
11417,16,Jits_ISO_5,2,5,63,98,2215085308
11417,16,Jits_ISO_5,3,5,80,127,2215088824
11417,16,Jits_ISO_5,0,9999,9999,9999,2155703364
11417,16,Jits_ISO_5,1,9999,9999,9999,2156203080
11417,16,Jits_ISO_5,2,9999,9999,9999,2156703860
11417,16,Jits_ISO_5,3,9999,9999,9999,2157203532
11417,16,Jits_ISO_5,4,9999,9999,9999,2157703272
11417,16,Jits_ISO_5,5,9999,9999,9999,2158203980
11417,16,Jits_ISO_5,6,9999,9999,9999,2158703712
11417,16,Jits_ISO_5,7,9999,9999,9999,2159203388
11417,16,Jits_ISO_5,8,9999,9999,9999,2159703132
11417,16,Jits_ISO_5,9,9999,9999,9999,2160203856
11417,16,Jits_ISO_5,10,9999,9999,9999,2160703588
11417,16,Jits_ISO_5,11,9999,9999,9999,2161203324
11417,16,Jits_ISO_5,12,9999,9999,9999,2161704024
11417,16,Jits_ISO_5,13,9999,9999,9999,2162203752
11417,16,Jits_ISO_5,14,9999,9999,9999,2162703472
11417,16,Jits_ISO_5,15,9999,9999,9999,2163203128
11417,16,Jits_ISO_5,16,9999,9999,9999,2163703880
11417,16,Jits_ISO_5,17,9999,9999,9999,2164203584
11417,16,Jits_ISO_5,18,9999,9999,9999,2164703312
11417,16,Jits_ISO_5,19,9999,9999,9999,2165204020
11417,16,Jits_ISO_5,20,9999,9999,9999,2165703752
11417,16,Jits_ISO_5,21,9999,9999,9999,2166203484
11417,16,Jits_ISO_5,22,9999,9999,9999,2166703216
11417,16,Jits_ISO_5,23,9999,9999,9999,2167203920
11417,16,Jits_ISO_5,24,9999,9999,9999,2167703652
11417,16,Jits_ISO_5,25,9999,9999,9999,2168203380
11417,16,Jits_ISO_5,26,9999,9999,9999,2168704084
11417,16,Jits_ISO_5,27,9999,9999,9999,2169214056
11417,16,Jits_ISO_5,28,9999,9999,9999,2169713720
11417,16,Jits_ISO_5,29,9999,9999,9999,2170213448
11417,16,Jits_ISO_5,30,9999,9999,9999,2170713180
11417,16,Jits_ISO_5,31,9999,9999,9999,2171213904
11417,16,Jits_ISO_5,32,9999,9999,9999,2171713644
11417,16,Jits_ISO_5,33,9999,9999,9999,2172213328
11417,16,Jits_ISO_5,34,9999,9999,9999,2172714088
11417,16,Jits_ISO_5,35,9999,9999,9999,2173213748
11417,16,Jits_ISO_5,36,9999,9999,9999,2173713492
11417,16,Jits_ISO_5,37,9999,9999,9999,2174213216
11417,16,Jits_ISO_5,38,9999,9999,9999,2174713956
11417,16,Jits_ISO_5,39,9999,9999,9999,2175213640
11417,16,Jits_ISO_5,40,9999,9999,9999,2175713344
11417,16,Jits_ISO_5,41,9999,9999,9999,2176214124
11417,16,Jits_ISO_5,42,9999,9999,9999,2176724048
11417,16,Jits_ISO_5,43,9999,9999,9999,2177223776
11417,16,Jits_ISO_5,44,9999,9999,9999,2177723504
11417,16,Jits_ISO_5,45,9999,9999,9999,2178223160
11417,16,Jits_ISO_5,46,9999,9999,9999,2178723936
11417,16,Jits_ISO_5,47,9999,9999,9999,2179223676
11417,16,Jits_ISO_5,48,9999,9999,9999,2179723336
11417,16,Jits_ISO_5,49,9999,9999,9999,2180224060
11417,16,Jits_ISO_5,50,9999,9999,9999,2180734068
11417,16,Jits_ISO_5,51,9999,9999,9999,2181233788
11417,16,Jits_ISO_5,52,9999,9999,9999,2181733472
11417,16,Jits_ISO_5,53,9999,9999,9999,2182233188
11417,16,Jits_ISO_5,54,9999,9999,9999,2182733916
11417,16,Jits_ISO_5,55,9999,9999,9999,2183233632
11417,16,Jits_ISO_5,56,9999,9999,9999,2183733364
11417,16,Jits_ISO_5,57,9999,9999,9999,2184234064
11417,16,Jits_ISO_5,58,9999,9999,9999,2184733800
11417,16,Jits_ISO_5,59,9999,9999,9999,2185233516
11417,16,Jits_ISO_5,60,9999,9999,9999,2185733180
11417,16,Jits_ISO_5,61,9999,9999,9999,2186233928
11417,16,Jits_ISO_5,62,9999,9999,9999,2186733656
11417,16,Jits_ISO_5,63,9999,9999,9999,2187233336
11417,16,Jits_ISO_5,64,9999,9999,9999,2187734080
11417,16,Jits_ISO_5,65,9999,9999,9999,2188244088
11417,16,Jits_ISO_5,66,9999,9999,9999,2188743764
11417,16,Jits_ISO_5,67,9999,9999,9999,2189243484
11417,16,Jits_ISO_5,68,9999,9999,9999,2189743216
11417,16,Jits_ISO_5,69,9999,9999,9999,2190243904
11417,16,Jits_ISO_5,70,9999,9999,9999,2190743660
11417,16,Jits_ISO_5,71,9999,9999,9999,2191243320
11417,16,Jits_ISO_5,72,9999,9999,9999,2191744100
11417,16,Jits_ISO_5,73,9999,9999,9999,2192254024
11417,16,Jits_ISO_5,74,9999,9999,9999,2192753760
11417,16,Jits_ISO_5,75,9999,9999,9999,2193253488
11417,16,Jits_ISO_5,76,9999,9999,9999,2193753168
11417,16,Jits_ISO_5,77,9999,9999,9999,2194253948
11417,16,Jits_ISO_5,78,9999,9999,9999,2194753624
11417,16,Jits_ISO_5,79,9999,9999,9999,2195253360
11417,16,Jits_ISO_5,80,9999,9999,9999,2195754064
11417,16,Jits_ISO_5,81,9999,9999,9999,2196253804
11417,16,Jits_ISO_5,82,9999,9999,9999,2196753476
11417,16,Jits_ISO_5,83,9999,9999,9999,2197253208
11417,16,Jits_ISO_5,84,9999,9999,9999,2197753972
11417,16,Jits_ISO_5,85,9999,9999,9999,2198253620
11417,16,Jits_ISO_5,86,9999,9999,9999,2198753352
11417,16,Jits_ISO_5,87,9999,9999,9999,2199254132
11417,16,Jits_ISO_5,88,9999,9999,9999,2199764052
11417,16,Jits_ISO_5,89,9999,9999,9999,2200263784
11417,16,Jits_ISO_5,90,9999,9999,9999,2200763448
11417,16,Jits_ISO_5,91,9999,9999,9999,2201263176
11417,16,Jits_ISO_5,92,9999,9999,9999,2201763944
11417,16,Jits_ISO_5,93,9999,9999,9999,2202263608
11417,16,Jits_ISO_5,94,9999,9999,9999,2202763336
11417,16,Jits_ISO_5,95,9999,9999,9999,2203264056
11417,16,Jits_ISO_5,96,9999,9999,9999,2203774068
11417,16,Jits_ISO_5,97,9999,9999,9999,2204273728
11417,16,Jits_ISO_5,98,9999,9999,9999,2204773460
11417,16,Jits_ISO_5,99,9999,9999,9999,2205273192
11417,16,Jits_ISO_5,100,9999,9999,9999,2205773892
11417,16,Jits_ISO_5,101,9999,9999,9999,2206273628
11417,16,Jits_ISO_5,102,9999,9999,9999,2206773372
11417,16,Jits_ISO_5,103,9999,9999,9999,2207274068
11417,16,Jits_ISO_5,104,9999,9999,9999,2207773796
11417,16,Jits_ISO_5,105,9999,9999,9999,2208273504
11417,16,Jits_ISO_5,106,9999,9999,9999,2208773240
11417,16,Jits_ISO_5,107,9999,9999,9999,2209273940
11417,16,Jits_ISO_5,108,9999,9999,9999,2209773648
11417,16,Jits_ISO_5,109,9999,9999,9999,2210273380
11417,16,Jits_ISO_5,110,9999,9999,9999,2210774100
11417,16,Jits_ISO_5,111,9999,9999,9999,2211284024
11417,16,Jits_ISO_5,112,9999,9999,9999,2211783752
11417,16,Jits_ISO_5,113,9999,9999,9999,2212283492
11417,16,Jits_ISO_5,114,9999,9999,9999,2212783216
11417,16,Jits_ISO_5,115,9999,9999,9999,2213283912
11417,16,Jits_ISO_5,116,9999,9999,9999,2213783644
11417,16,Jits_ISO_5,117,9999,9999,9999,2214283376
11417,16,Jits_ISO_5,118,9999,9999,9999,2214784088
11417,16,Jits_ISO_5,119,9999,9999,9999,2215294072
11418,18,Jits_Linear_8,0,5,56,103,2224941388
11418,18,Jits_Linear_8,1,5,63,98,2224944712
11418,18,Jits_Linear_8,2,5,80,127,2224947832
11418,18,Jits_Linear_8,0,5,56,103,2225760652
11418,18,Jits_Linear_8,1,5,63,98,2225763676
11418,18,Jits_Linear_8,2,5,80,127,2225766724
11418,18,Jits_Linear_8,3,1,48,22,2225963380
11418,18,Jits_Linear_8,0,5,80,127,2226520328
11418,18,Jits_Linear_8,1,1,48,30,2226531916
11418,18,Jits_Linear_8,2,5,63,98,2226610532
11418,18,Jits_Linear_8,3,5,56,103,2226620728
11418,18,Jits_Linear_8,0,1,48,34,2227328984
11418,18,Jits_Linear_8,1,5,56,103,2227361372
11418,18,Jits_Linear_8,2,5,63,98,2227371344
11418,18,Jits_Linear_8,3,5,80,127,2227460440
11418,18,Jits_Linear_8,0,1,48,38,2228149288
11418,18,Jits_Linear_8,1,5,63,98,2228150784
11418,18,Jits_Linear_8,2,5,80,127,2228181360
11418,18,Jits_Linear_8,3,5,56,103,2228211180
11418,18,Jits_Linear_8,0,1,48,40,2228934696
11418,18,Jits_Linear_8,1,5,56,103,2228970912
11418,18,Jits_Linear_8,2,5,80,127,2229071248
11418,18,Jits_Linear_8,3,5,63,98,2229121372
11418,18,Jits_Linear_8,0,1,48,26,2229738660
11418,18,Jits_Linear_8,1,5,56,103,2229780808
11418,18,Jits_Linear_8,2,5,80,127,2229831160
11418,18,Jits_Linear_8,3,5,63,98,2229871156
11418,18,Jits_Linear_8,0,1,48,33,2230556248
11418,18,Jits_Linear_8,1,5,80,127,2230620568
11418,18,Jits_Linear_8,2,5,63,98,2230651200
11418,18,Jits_Linear_8,3,5,56,103,2230720956
11418,18,Jits_Linear_8,0,1,48,19,2231344396
11418,18,Jits_Linear_8,1,5,63,98,2231461212
11418,18,Jits_Linear_8,2,5,56,103,2231491260
11418,18,Jits_Linear_8,3,5,80,127,2231551304
11418,18,Jits_Linear_8,0,1,48,36,2232135984
11418,18,Jits_Linear_8,1,5,56,103,2232211008
11418,18,Jits_Linear_8,2,5,80,127,2232214000
11418,18,Jits_Linear_8,3,5,63,98,2232330520
11418,18,Jits_Linear_8,0,1,48,18,2232994540
11418,18,Jits_Linear_8,1,5,56,103,2233090352
11418,18,Jits_Linear_8,2,5,80,127,2233131324
11418,18,Jits_Linear_8,3,5,63,98,2233140544
11418,18,Jits_Linear_8,0,5,56,103,2233851208
11418,18,Jits_Linear_8,1,5,80,127,2233870696
11418,18,Jits_Linear_8,2,1,48,22,2233914496
11418,18,Jits_Linear_8,3,5,63,98,2233950556
11418,18,Jits_Linear_8,0,1,48,19,2234608652
11418,18,Jits_Linear_8,1,5,80,127,2234640780
11418,18,Jits_Linear_8,2,5,56,103,2234741164
11418,18,Jits_Linear_8,3,5,63,98,2234751288
11418,18,Jits_Linear_8,0,5,63,98,2235410876
11418,18,Jits_Linear_8,1,1,48,16,2235414292
11418,18,Jits_Linear_8,2,5,80,127,2235471188
11418,18,Jits_Linear_8,3,5,56,103,2235480484
11418,18,Jits_Linear_8,0,5,56,103,2236210628
11418,18,Jits_Linear_8,1,5,63,98,2236281052
11418,18,Jits_Linear_8,2,5,80,127,2236284276
11418,18,Jits_Linear_8,0,1,48,18,2236990612
11418,18,Jits_Linear_8,1,5,63,98,2237040908
11418,18,Jits_Linear_8,2,5,56,103,2237091392
11418,18,Jits_Linear_8,3,5,80,127,2237094460
11418,18,Jits_Linear_8,0,1,48,24,2237731916
11418,18,Jits_Linear_8,1,5,56,103,2237790752
11418,18,Jits_Linear_8,2,5,80,127,2237793744
11418,18,Jits_Linear_8,3,5,63,98,2237880644
11418,18,Jits_Linear_8,0,1,48,24,2238502356
11418,18,Jits_Linear_8,1,5,63,98,2238621120
11418,18,Jits_Linear_8,2,5,56,103,2238711108
11418,18,Jits_Linear_8,3,5,80,127,2238740960
11418,18,Jits_Linear_8,0,1,48,32,2239318532
11418,18,Jits_Linear_8,1,5,56,103,2239401268
11418,18,Jits_Linear_8,2,5,63,98,2239500632
11418,18,Jits_Linear_8,3,5,80,127,2239531500
11418,18,Jits_Linear_8,0,1,48,19,2240158136
11418,18,Jits_Linear_8,1,5,63,98,2240211292
11418,18,Jits_Linear_8,2,5,56,103,2240220668
11418,18,Jits_Linear_8,3,5,80,127,2240310808
11418,18,Jits_Linear_8,0,1,48,27,2240861556
11418,18,Jits_Linear_8,1,5,63,98,2241011036
11418,18,Jits_Linear_8,2,5,56,103,2241090860
11418,18,Jits_Linear_8,3,5,80,127,2241094000
11418,18,Jits_Linear_8,0,1,48,32,2241711580
11418,18,Jits_Linear_8,1,5,80,127,2241751388
11418,18,Jits_Linear_8,2,5,63,98,2241770952
11418,18,Jits_Linear_8,3,5,56,103,2241831280
11418,18,Jits_Linear_8,0,1,48,29,2242492376
11418,18,Jits_Linear_8,1,5,56,103,2242570504
11418,18,Jits_Linear_8,2,5,63,98,2242591020
11418,18,Jits_Linear_8,3,5,80,127,2242594460
11418,18,Jits_Linear_8,0,1,48,28,2243223796
11418,18,Jits_Linear_8,1,5,63,98,2243290504
11418,18,Jits_Linear_8,2,5,80,127,2243371360
11418,18,Jits_Linear_8,3,5,56,103,2243380732
11418,18,Jits_Linear_8,0,1,48,23,2244010440
11418,18,Jits_Linear_8,1,5,63,98,2244091232
11418,18,Jits_Linear_8,2,5,56,103,2244110804
11418,18,Jits_Linear_8,3,5,80,127,2244161004
11418,18,Jits_Linear_8,0,1,48,22,2244756164
11418,18,Jits_Linear_8,1,5,80,127,2244870396
11418,18,Jits_Linear_8,2,5,63,98,2244910336
11418,18,Jits_Linear_8,3,5,56,103,2244930868
11418,18,Jits_Linear_8,0,1,48,28,2245532396
11418,18,Jits_Linear_8,1,5,56,103,2245680636
11418,18,Jits_Linear_8,2,5,63,98,2245691128
11418,18,Jits_Linear_8,3,5,80,127,2245711140
11418,18,Jits_Linear_8,0,5,56,103,2246381112
11418,18,Jits_Linear_8,1,1,48,27,2246399920
11418,18,Jits_Linear_8,2,5,63,98,2246470968
11418,18,Jits_Linear_8,3,5,80,127,2246530444
11418,18,Jits_Linear_8,0,1,48,27,2247088080
11418,18,Jits_Linear_8,1,5,80,127,2247180676
11418,18,Jits_Linear_8,2,5,56,103,2247190784
11418,18,Jits_Linear_8,3,5,63,98,2247260392
11418,18,Jits_Linear_8,0,1,48,24,2247860948
11418,18,Jits_Linear_8,1,5,63,98,2247981388
11418,18,Jits_Linear_8,2,5,80,127,2248070404
11418,18,Jits_Linear_8,3,5,56,103,2248081044
11418,18,Jits_Linear_8,0,5,63,98,2248680896
11418,18,Jits_Linear_8,1,1,48,20,2248695476
11418,18,Jits_Linear_8,2,5,80,127,2248731120
11418,18,Jits_Linear_8,3,5,56,103,2248791420
11418,18,Jits_Linear_8,0,1,48,21,2249420160
11418,18,Jits_Linear_8,1,5,56,103,2249471376
11418,18,Jits_Linear_8,2,5,80,127,2249520444
11418,18,Jits_Linear_8,3,5,63,98,2249540832
11418,18,Jits_Linear_8,0,5,56,103,2250210952
11418,18,Jits_Linear_8,1,1,48,22,2250222016
11418,18,Jits_Linear_8,2,5,80,127,2250271064
11418,18,Jits_Linear_8,3,5,63,98,2250341104
11418,18,Jits_Linear_8,0,1,48,15,2250935316
11418,18,Jits_Linear_8,1,5,56,103,2250970408
11418,18,Jits_Linear_8,2,5,80,127,2251001132
11418,18,Jits_Linear_8,3,5,63,98,2251030980
11418,18,Jits_Linear_8,0,1,48,21,2251698288
11418,18,Jits_Linear_8,1,5,56,103,2251771132
11418,18,Jits_Linear_8,2,5,80,127,2251790868
11418,18,Jits_Linear_8,3,5,63,98,2251851092
11418,18,Jits_Linear_8,0,1,48,20,2252482904
11418,18,Jits_Linear_8,1,5,80,127,2252610984
11418,18,Jits_Linear_8,2,5,56,103,2252621104
11418,18,Jits_Linear_8,3,5,63,98,2252631376
11418,18,Jits_Linear_8,0,1,48,20,2253261916
11418,18,Jits_Linear_8,1,5,56,103,2253320708
11418,18,Jits_Linear_8,2,5,80,127,2253360632
11418,18,Jits_Linear_8,3,5,63,98,2253391204
11418,18,Jits_Linear_8,0,1,48,25,2254009160
11418,18,Jits_Linear_8,1,5,56,103,2254040428
11418,18,Jits_Linear_8,2,5,63,98,2254071224
11418,18,Jits_Linear_8,3,5,80,127,2254111024
11418,18,Jits_Linear_8,0,1,48,23,2254739172
11418,18,Jits_Linear_8,1,5,80,127,2254740760
11418,18,Jits_Linear_8,2,5,63,98,2254791040
11418,18,Jits_Linear_8,3,5,56,103,2254810600
11418,18,Jits_Linear_8,0,1,48,28,2255428312
11418,18,Jits_Linear_8,1,5,56,103,2255521252
11418,18,Jits_Linear_8,2,5,80,127,2255590924
11418,18,Jits_Linear_8,3,5,63,98,2255651116
11418,18,Jits_Linear_8,0,1,48,25,2256239028
11418,18,Jits_Linear_8,1,5,80,127,2256260480
11418,18,Jits_Linear_8,2,5,63,98,2256350896
11418,18,Jits_Linear_8,3,5,56,103,2256370908
11418,18,Jits_Linear_8,0,5,63,98,2257021208
11418,18,Jits_Linear_8,1,1,48,26,2257036536
11418,18,Jits_Linear_8,2,5,56,103,2257040988
11418,18,Jits_Linear_8,3,5,80,127,2257080852
11418,18,Jits_Linear_8,0,5,80,127,2257720864
11418,18,Jits_Linear_8,1,5,63,98,2257741104
11418,18,Jits_Linear_8,2,5,56,103,2257820896
11418,18,Jits_Linear_8,3,1,48,30,2257862000
11418,18,Jits_Linear_8,0,5,63,98,2258450732
11418,18,Jits_Linear_8,1,1,48,26,2258506436
11418,18,Jits_Linear_8,2,5,56,103,2258561304
11418,18,Jits_Linear_8,3,5,80,127,2258564600
11418,18,Jits_Linear_8,0,1,48,25,2259174364
11418,18,Jits_Linear_8,1,5,63,98,2259210756
11418,18,Jits_Linear_8,2,5,56,103,2259220880
11418,18,Jits_Linear_8,3,5,80,127,2259223872
11418,18,Jits_Linear_8,0,1,48,21,2259900616
11418,18,Jits_Linear_8,1,5,56,103,2259930608
11418,18,Jits_Linear_8,2,5,80,127,2260051248
11418,18,Jits_Linear_8,3,5,63,98,2260091184
11418,18,Jits_Linear_8,0,1,48,21,2260672496
11418,18,Jits_Linear_8,1,5,56,103,2260681068
11418,18,Jits_Linear_8,2,5,80,127,2260760968
11418,18,Jits_Linear_8,3,5,63,98,2260781412
11418,18,Jits_Linear_8,0,5,56,103,2261411304
11418,18,Jits_Linear_8,1,1,48,16,2261510504
11418,18,Jits_Linear_8,2,5,63,98,2261520636
11418,18,Jits_Linear_8,3,5,80,127,2261523932
11418,18,Jits_Linear_8,0,5,56,103,2262171064
11418,18,Jits_Linear_8,1,5,80,127,2262200664
11418,18,Jits_Linear_8,2,5,63,98,2262221128
11418,18,Jits_Linear_8,3,1,48,22,2262239388
11418,18,Jits_Linear_8,0,5,63,98,2262880704
11418,18,Jits_Linear_8,1,5,56,103,2262890828
11418,18,Jits_Linear_8,2,5,80,127,2262901244
11418,18,Jits_Linear_8,3,1,48,17,2262947584
11418,18,Jits_Linear_8,0,5,80,127,2263591216
11418,18,Jits_Linear_8,1,1,48,19,2263592628
11418,18,Jits_Linear_8,2,5,56,103,2263640592
11418,18,Jits_Linear_8,3,5,63,98,2263681652
11418,18,Jits_Linear_8,0,1,48,22,2264296824
11418,18,Jits_Linear_8,1,5,80,127,2264330596
11418,18,Jits_Linear_8,2,5,63,98,2264351132
11418,18,Jits_Linear_8,3,5,56,103,2264401244
11418,18,Jits_Linear_8,0,1,48,27,2265048568
11418,18,Jits_Linear_8,1,5,80,127,2265060648
11418,18,Jits_Linear_8,2,5,56,103,2265090500
11418,18,Jits_Linear_8,3,5,63,98,2265161212
11418,18,Jits_Linear_8,0,5,56,103,2265830748
11418,18,Jits_Linear_8,1,5,80,127,2265840944
11418,18,Jits_Linear_8,2,1,48,25,2265855248
11418,18,Jits_Linear_8,3,5,63,98,2265880900
11418,18,Jits_Linear_8,0,5,56,103,2266460520
11418,18,Jits_Linear_8,1,5,63,98,2266481132
11418,18,Jits_Linear_8,2,5,80,127,2266550884
11418,18,Jits_Linear_8,0,5,63,98,2267200984
11418,18,Jits_Linear_8,1,5,80,127,2267261304
11418,18,Jits_Linear_8,2,5,56,103,2267280788
11418,18,Jits_Linear_8,0,1,48,24,2267850572
11418,18,Jits_Linear_8,1,5,80,127,2267901420
11418,18,Jits_Linear_8,2,5,56,103,2267930944
11418,18,Jits_Linear_8,3,5,63,98,2267960608
11418,18,Jits_Linear_8,0,1,48,17,2268565512
11418,18,Jits_Linear_8,1,5,56,103,2268610868
11418,18,Jits_Linear_8,2,5,63,98,2268671196
11418,18,Jits_Linear_8,3,5,80,127,2268730688
11418,18,Jits_Linear_8,0,1,48,18,2269205684
11418,18,Jits_Linear_8,1,5,80,127,2269340936
11418,18,Jits_Linear_8,2,5,56,103,2269360720
11418,18,Jits_Linear_8,3,5,63,98,2269431004
11418,18,Jits_Linear_8,0,1,48,17,2269994356
11418,18,Jits_Linear_8,1,5,80,127,2270050652
11418,18,Jits_Linear_8,2,5,63,98,2270071040
11418,18,Jits_Linear_8,3,5,56,103,2270100700
11418,18,Jits_Linear_8,0,5,80,127,2270740884
11418,18,Jits_Linear_8,1,1,48,18,2270742220
11418,18,Jits_Linear_8,2,5,63,98,2270761260
11418,18,Jits_Linear_8,3,5,56,103,2270820680
11418,18,Jits_Linear_8,0,1,48,25,2271407968
11418,18,Jits_Linear_8,1,5,80,127,2271441196
11418,18,Jits_Linear_8,2,5,56,103,2271540636
11418,18,Jits_Linear_8,3,5,63,98,2271571580
11418,18,Jits_Linear_8,0,1,48,22,2272126444
11418,18,Jits_Linear_8,1,5,63,98,2272130524
11418,18,Jits_Linear_8,2,5,80,127,2272180804
11418,18,Jits_Linear_8,3,5,56,103,2272201112
11418,18,Jits_Linear_8,0,1,48,23,2272796508
11418,18,Jits_Linear_8,1,5,80,127,2272870868
11418,18,Jits_Linear_8,2,5,56,103,2272900456
11418,18,Jits_Linear_8,3,5,63,98,2272903672
11418,18,Jits_Linear_8,0,5,63,98,2273601020
11418,18,Jits_Linear_8,1,1,48,25,2273634488
11418,18,Jits_Linear_8,2,5,56,103,2273640880
11418,18,Jits_Linear_8,3,5,80,127,2273661412
11418,18,Jits_Linear_8,0,5,80,127,2274240876
11418,18,Jits_Linear_8,1,5,63,98,2274320624
11418,18,Jits_Linear_8,2,5,56,103,2274360788
11418,18,Jits_Linear_8,3,1,48,20,2274373048
11418,18,Jits_Linear_8,0,5,63,98,2274950520
11418,18,Jits_Linear_8,1,1,48,28,2275030844
11418,18,Jits_Linear_8,2,5,80,127,2275032484
11418,18,Jits_Linear_8,3,5,56,103,2275050848
11418,18,Jits_Linear_8,0,5,56,103,2275680604
11418,18,Jits_Linear_8,1,5,63,98,2275690948
11418,18,Jits_Linear_8,2,5,80,127,2275730740
11418,18,Jits_Linear_8,3,1,48,19,2275788464
11418,18,Jits_Linear_8,0,5,56,103,2276290876
11418,18,Jits_Linear_8,1,5,80,127,2276293868
11418,18,Jits_Linear_8,2,5,63,98,2276431152
11418,18,Jits_Linear_8,3,1,48,19,2276449260
11418,18,Jits_Linear_8,0,5,56,103,2276970764
11418,18,Jits_Linear_8,1,5,63,98,2277061052
11418,18,Jits_Linear_8,2,5,80,127,2277130680
11418,18,Jits_Linear_8,0,1,48,18,2277711280
11418,18,Jits_Linear_8,1,5,63,98,2277730636
11418,18,Jits_Linear_8,2,5,80,127,2277733928
11418,18,Jits_Linear_8,3,5,56,103,2277791248
11418,18,Jits_Linear_8,0,1,48,23,2278413412
11418,18,Jits_Linear_8,1,5,80,127,2278450672
11418,18,Jits_Linear_8,2,5,56,103,2278471060
11418,18,Jits_Linear_8,3,5,63,98,2278481332
11418,18,Jits_Linear_8,0,5,56,103,2279041460
11418,18,Jits_Linear_8,1,5,63,98,2279050608
11418,18,Jits_Linear_8,2,5,80,127,2279121484
11418,18,Jits_Linear_8,3,1,48,26,2279200828
11418,18,Jits_Linear_8,0,5,80,127,2279721504
11418,18,Jits_Linear_8,1,5,56,103,2279770512
11418,18,Jits_Linear_8,2,1,48,19,2279812368
11418,18,Jits_Linear_8,3,5,63,98,2279820784
11418,18,Jits_Linear_8,0,1,48,19,2280434460
11418,18,Jits_Linear_8,1,5,56,103,2280481340
11418,18,Jits_Linear_8,2,5,63,98,2280491316
11418,18,Jits_Linear_8,3,5,80,127,2280531536
11418,18,Jits_Linear_8,0,5,56,103,2281100608
11418,18,Jits_Linear_8,1,1,48,18,2281140696
11418,18,Jits_Linear_8,2,5,63,98,2281142032
11418,18,Jits_Linear_8,3,5,80,127,2281190740
11418,18,Jits_Linear_8,0,5,80,127,2281730384
11418,18,Jits_Linear_8,1,5,56,103,2281780588
11418,18,Jits_Linear_8,2,5,63,98,2281801192
11418,18,Jits_Linear_8,0,5,80,127,2282411556
11418,18,Jits_Linear_8,1,5,63,98,2282470832
11418,18,Jits_Linear_8,2,5,56,103,2282550500
11418,18,Jits_Linear_8,0,5,80,127,2283060476
11418,18,Jits_Linear_8,1,5,56,103,2283100416
11418,18,Jits_Linear_8,2,5,63,98,2283121096
11418,18,Jits_Linear_8,0,1,48,23,2283608188
11418,18,Jits_Linear_8,1,5,56,103,2283780468
11418,18,Jits_Linear_8,2,5,80,127,2283790664
11418,18,Jits_Linear_8,3,5,63,98,2283830600
11418,18,Jits_Linear_8,0,1,48,18,2284326268
11418,18,Jits_Linear_8,1,5,56,103,2284510596
11418,18,Jits_Linear_8,2,5,63,98,2284550560
11418,18,Jits_Linear_8,3,5,80,127,2284553704
11418,18,Jits_Linear_8,0,1,48,18,2285000744
11418,18,Jits_Linear_8,1,5,63,98,2285060356
11418,18,Jits_Linear_8,2,5,80,127,2285101476
11418,18,Jits_Linear_8,3,5,56,103,2285171008
11418,18,Jits_Linear_8,0,1,48,14,2285674100
11418,18,Jits_Linear_8,1,5,63,98,2285710692
11418,18,Jits_Linear_8,2,5,56,103,2285790476
11418,18,Jits_Linear_8,3,5,80,127,2285850964
11418,18,Jits_Linear_8,0,1,48,16,2286316488
11418,18,Jits_Linear_8,1,5,80,127,2286381360
11418,18,Jits_Linear_8,2,5,63,98,2286430724
11418,18,Jits_Linear_8,3,5,56,103,2286461296
11418,18,Jits_Linear_8,0,1,48,14,2286924828
11418,18,Jits_Linear_8,1,5,56,103,2287030632
11418,18,Jits_Linear_8,2,5,63,98,2287080760
11418,18,Jits_Linear_8,3,5,80,127,2287091032
11418,18,Jits_Linear_8,0,5,56,103,2287701388
11418,18,Jits_Linear_8,1,5,63,98,2287810856
11418,18,Jits_Linear_8,2,5,80,127,2287831392
11418,18,Jits_Linear_8,0,1,48,17,2288276524
11418,18,Jits_Linear_8,1,5,63,98,2288350504
11418,18,Jits_Linear_8,2,5,80,127,2288400720
11418,18,Jits_Linear_8,3,5,56,103,2288491000
11418,18,Jits_Linear_8,0,1,48,26,2288924196
11418,18,Jits_Linear_8,1,5,63,98,2288990460
11418,18,Jits_Linear_8,2,5,80,127,2289021240
11418,18,Jits_Linear_8,3,5,56,103,2289111520
11418,18,Jits_Linear_8,0,1,48,20,2289585840
11418,18,Jits_Linear_8,1,5,63,98,2289640792
11418,18,Jits_Linear_8,2,5,56,103,2289651064
11418,18,Jits_Linear_8,3,5,80,127,2289751320
11418,18,Jits_Linear_8,0,1,48,20,2290231040
11418,18,Jits_Linear_8,1,5,63,98,2290391388
11418,18,Jits_Linear_8,2,5,80,127,2290421288
11418,18,Jits_Linear_8,3,5,56,103,2290450764
11418,18,Jits_Linear_8,0,1,48,21,2290920128
11418,18,Jits_Linear_8,1,5,80,127,2291050832
11418,18,Jits_Linear_8,2,5,63,98,2291061252
11418,18,Jits_Linear_8,3,5,56,103,2291090776
11418,18,Jits_Linear_8,0,5,80,127,2291590392
11418,18,Jits_Linear_8,1,1,48,18,2291604600
11418,18,Jits_Linear_8,2,5,63,98,2291611216
11418,18,Jits_Linear_8,3,5,56,103,2291661416
11418,18,Jits_Linear_8,0,1,48,14,2292169768
11418,18,Jits_Linear_8,1,5,63,98,2292261220
11418,18,Jits_Linear_8,2,5,80,127,2292320476
11418,18,Jits_Linear_8,3,5,56,103,2292341304
11418,18,Jits_Linear_8,0,1,48,13,2292837504
11418,18,Jits_Linear_8,1,5,63,98,2292861288
11418,18,Jits_Linear_8,2,5,56,103,2292910372
11418,18,Jits_Linear_8,3,5,80,127,2292920568
11418,18,Jits_Linear_8,0,1,48,15,2293452260
11418,18,Jits_Linear_8,1,5,56,103,2293531056
11418,18,Jits_Linear_8,2,5,80,127,2293541400
11418,18,Jits_Linear_8,3,5,63,98,2293640512
11418,18,Jits_Linear_8,0,1,48,14,2294122184
11418,18,Jits_Linear_8,1,5,80,127,2294131200
11418,18,Jits_Linear_8,2,5,63,98,2294141248
11418,18,Jits_Linear_8,3,5,56,103,2294290804
11418,18,Jits_Linear_8,0,1,48,14,2294760764
11418,18,Jits_Linear_8,1,5,63,98,2294771124
11418,18,Jits_Linear_8,2,5,80,127,2294811164
11418,18,Jits_Linear_8,3,5,56,103,2294890868
11418,18,Jits_Linear_8,0,1,48,19,2295377696
11418,18,Jits_Linear_8,1,5,56,103,2295390696
11418,18,Jits_Linear_8,2,5,80,127,2295491152
11418,18,Jits_Linear_8,3,5,63,98,2295511316
11418,18,Jits_Linear_8,0,1,48,17,2296006240
11418,18,Jits_Linear_8,1,5,80,127,2296080624
11418,18,Jits_Linear_8,2,5,56,103,2296091192
11418,18,Jits_Linear_8,3,5,63,98,2296181456
11418,18,Jits_Linear_8,0,1,48,16,2296638940
11418,18,Jits_Linear_8,1,5,56,103,2296710436
11418,18,Jits_Linear_8,2,5,63,98,2296731272
11418,18,Jits_Linear_8,3,5,80,127,2296811124
11418,18,Jits_Linear_8,0,1,48,18,2297242004
11418,18,Jits_Linear_8,1,5,63,98,2297280988
11418,18,Jits_Linear_8,2,5,56,103,2297371284
11418,18,Jits_Linear_8,3,5,80,127,2297374276
11418,18,Jits_Linear_8,0,1,48,21,2297895356
11418,18,Jits_Linear_8,1,5,56,103,2297931272
11418,18,Jits_Linear_8,2,5,80,127,2297990380
11418,18,Jits_Linear_8,3,5,63,98,2298000724
11418,18,Jits_Linear_8,0,1,48,23,2298495572
11418,18,Jits_Linear_8,1,5,80,127,2298600780
11418,18,Jits_Linear_8,2,5,56,103,2298611348
11418,18,Jits_Linear_8,3,5,63,98,2298614340
11418,18,Jits_Linear_8,0,1,48,17,2299124556
11418,18,Jits_Linear_8,1,5,56,103,2299181476
11418,18,Jits_Linear_8,2,5,80,127,2299190552
11418,18,Jits_Linear_8,3,5,63,98,2299211012
11418,18,Jits_Linear_8,0,1,48,17,2299688824
11418,18,Jits_Linear_8,1,5,63,98,2299771280
11418,18,Jits_Linear_8,2,5,80,127,2299830536
11418,18,Jits_Linear_8,3,5,56,103,2299880812
11418,18,Jits_Linear_8,0,1,48,21,2300314600
11418,18,Jits_Linear_8,1,5,63,98,2300470636
11418,18,Jits_Linear_8,2,5,56,103,2300480908
11418,18,Jits_Linear_8,3,5,80,127,2300531184
11418,18,Jits_Linear_8,0,1,48,19,2300970308
11418,18,Jits_Linear_8,1,5,63,98,2300980520
11418,18,Jits_Linear_8,2,5,80,127,2301001276
11418,18,Jits_Linear_8,3,5,56,103,2301011248
11418,18,Jits_Linear_8,0,1,48,21,2301559204
11418,18,Jits_Linear_8,1,5,63,98,2301590916
11418,18,Jits_Linear_8,2,5,80,127,2301594280
11418,18,Jits_Linear_8,3,5,56,103,2301630780
11418,18,Jits_Linear_8,0,1,48,19,2302128760
11418,18,Jits_Linear_8,1,5,63,98,2302270996
11418,18,Jits_Linear_8,2,5,80,127,2302300524
11418,18,Jits_Linear_8,3,5,56,103,2302310872
11418,18,Jits_Linear_8,0,1,48,22,2302733048
11418,18,Jits_Linear_8,1,5,56,103,2302830984
11418,18,Jits_Linear_8,2,5,80,127,2302860736
11418,18,Jits_Linear_8,3,5,63,98,2302891236
11418,18,Jits_Linear_8,0,1,48,18,2303343528
11418,18,Jits_Linear_8,1,5,63,98,2303531256
11418,18,Jits_Linear_8,2,5,56,103,2303571268
11418,18,Jits_Linear_8,3,5,80,127,2303574336
11418,18,Jits_Linear_8,0,1,48,19,2303943232
11418,18,Jits_Linear_8,1,5,80,127,2304031020
11418,18,Jits_Linear_8,2,5,56,103,2304110952
11418,18,Jits_Linear_8,3,5,63,98,2304161152
11418,18,Jits_Linear_8,0,1,48,19,2304587980
11418,18,Jits_Linear_8,1,5,80,127,2304610640
11418,18,Jits_Linear_8,2,5,56,103,2304631248
11418,18,Jits_Linear_8,3,5,63,98,2304721368
11418,18,Jits_Linear_8,0,1,48,21,2305172620
11418,18,Jits_Linear_8,1,5,80,127,2305250644
11418,18,Jits_Linear_8,2,5,63,98,2305290592
11418,18,Jits_Linear_8,3,5,56,103,2305330532
11418,18,Jits_Linear_8,0,1,48,26,2305794592
11418,18,Jits_Linear_8,1,5,63,98,2305821216
11418,18,Jits_Linear_8,2,5,80,127,2305880340
11418,18,Jits_Linear_8,3,5,56,103,2305911120
11418,18,Jits_Linear_8,0,1,48,16,2306384096
11418,18,Jits_Linear_8,1,5,56,103,2306421208
11418,18,Jits_Linear_8,2,5,80,127,2306450736
11418,18,Jits_Linear_8,3,5,63,98,2306541076
11418,18,Jits_Linear_8,0,1,48,21,2306954792
11418,18,Jits_Linear_8,1,5,56,103,2307021052
11418,18,Jits_Linear_8,2,5,80,127,2307130976
11418,18,Jits_Linear_8,3,5,63,98,2307160432
11418,18,Jits_Linear_8,0,1,48,23,2307540932
11418,18,Jits_Linear_8,1,5,56,103,2307661148
11418,18,Jits_Linear_8,2,5,63,98,2307720420
11418,18,Jits_Linear_8,3,5,80,127,2307751292
11418,18,Jits_Linear_8,0,1,48,22,2308167700
11418,18,Jits_Linear_8,1,5,56,103,2308221304
11418,18,Jits_Linear_8,2,5,63,98,2308291048
11418,18,Jits_Linear_8,3,5,80,127,2308311284
11418,18,Jits_Linear_8,0,1,48,19,2308760364
11418,18,Jits_Linear_8,1,5,80,127,2308781292
11418,18,Jits_Linear_8,2,5,63,98,2308800928
11418,18,Jits_Linear_8,3,5,56,103,2308851560
11418,18,Jits_Linear_8,0,1,48,17,2309314948
11418,18,Jits_Linear_8,1,5,63,98,2309380408
11418,18,Jits_Linear_8,2,5,80,127,2309390904
11418,18,Jits_Linear_8,3,5,56,103,2309441088
11418,18,Jits_Linear_8,0,1,48,27,2309878144
11418,18,Jits_Linear_8,1,5,63,98,2309961144
11418,18,Jits_Linear_8,2,5,80,127,2310030812
11418,18,Jits_Linear_8,3,5,56,103,2310051124
11418,18,Jits_Linear_8,0,1,48,24,2310553848
11418,18,Jits_Linear_8,1,5,63,98,2310571404
11418,18,Jits_Linear_8,2,5,80,127,2310574844
11418,18,Jits_Linear_8,3,5,56,103,2310641084
11418,18,Jits_Linear_8,0,5,80,127,2311100968
11418,18,Jits_Linear_8,1,5,56,103,2311121280
11418,18,Jits_Linear_8,2,5,63,98,2311130428
11418,18,Jits_Linear_8,3,1,48,20,2311192528
11418,18,Jits_Linear_8,0,5,56,103,2311701072
11418,18,Jits_Linear_8,1,1,48,26,2311717080
11418,18,Jits_Linear_8,2,5,63,98,2311790904
11418,18,Jits_Linear_8,3,5,80,127,2311794124
11418,18,Jits_Linear_8,0,5,80,127,2312250880
11418,18,Jits_Linear_8,1,1,48,27,2312257068
11418,18,Jits_Linear_8,2,5,56,103,2312261220
11418,18,Jits_Linear_8,3,5,63,98,2312280412
11418,18,Jits_Linear_8,0,1,48,24,2312813616
11418,18,Jits_Linear_8,1,5,63,98,2312821056
11418,18,Jits_Linear_8,2,5,80,127,2312880628
11418,18,Jits_Linear_8,3,5,56,103,2312891120
11418,18,Jits_Linear_8,0,1,48,21,2313331940
11418,18,Jits_Linear_8,1,5,63,98,2313461044
11418,18,Jits_Linear_8,2,5,80,127,2313490968
11418,18,Jits_Linear_8,3,5,56,103,2313530904
11418,18,Jits_Linear_8,0,1,48,21,2313971952
11418,18,Jits_Linear_8,1,5,56,103,2314021148
11418,18,Jits_Linear_8,2,5,80,127,2314030376
11418,18,Jits_Linear_8,3,5,63,98,2314071344
11418,18,Jits_Linear_8,0,5,80,127,2314550728
11418,18,Jits_Linear_8,1,1,48,31,2314580672
11418,18,Jits_Linear_8,2,5,56,103,2314630444
11418,18,Jits_Linear_8,3,5,63,98,2314641012
11418,18,Jits_Linear_8,0,1,48,26,2315156168
11418,18,Jits_Linear_8,1,5,80,127,2315160996
11418,18,Jits_Linear_8,2,5,56,103,2315240944
11418,18,Jits_Linear_8,3,5,63,98,2315251068
11418,18,Jits_Linear_8,0,5,80,127,2315681216
11418,18,Jits_Linear_8,1,1,48,22,2315712660
11418,18,Jits_Linear_8,2,5,56,103,2315731264
11418,18,Jits_Linear_8,3,5,63,98,2315780592
11418,18,Jits_Linear_8,0,1,48,25,2316239692
11418,18,Jits_Linear_8,1,5,56,103,2316300800
11418,18,Jits_Linear_8,2,5,63,98,2316303792
11418,18,Jits_Linear_8,3,5,80,127,2316350912
11418,18,Jits_Linear_8,0,1,48,22,2316807480
11418,18,Jits_Linear_8,1,5,56,103,2316881164
11418,18,Jits_Linear_8,2,5,63,98,2316910904
11418,18,Jits_Linear_8,3,5,80,127,2316921320
11418,18,Jits_Linear_8,0,5,63,98,2317351184
11418,18,Jits_Linear_8,1,1,48,20,2317373256
11418,18,Jits_Linear_8,2,5,56,103,2317420784
11418,18,Jits_Linear_8,3,5,80,127,2317470972
11418,18,Jits_Linear_8,0,1,48,24,2317858604
11418,18,Jits_Linear_8,1,5,63,98,2317940988
11418,18,Jits_Linear_8,2,5,56,103,2317951916
11418,18,Jits_Linear_8,3,5,80,127,2317954828
11418,18,Jits_Linear_8,0,1,48,22,2318420692
11418,18,Jits_Linear_8,1,5,80,127,2318440796
11418,18,Jits_Linear_8,2,5,56,103,2318501116
11418,18,Jits_Linear_8,3,5,63,98,2318591404
11418,18,Jits_Linear_8,0,5,80,127,2318990824
11418,18,Jits_Linear_8,1,1,48,28,2319003308
11418,18,Jits_Linear_8,2,5,56,103,2319090992
11418,18,Jits_Linear_8,3,5,63,98,2319130944
11418,18,Jits_Linear_8,0,5,56,103,2319590988
11418,18,Jits_Linear_8,1,1,48,19,2319597248
11418,18,Jits_Linear_8,2,5,63,98,2319611244
11418,18,Jits_Linear_8,3,5,80,127,2319651108
11418,18,Jits_Linear_8,0,5,63,98,2320110912
11418,18,Jits_Linear_8,1,5,56,103,2320130276
11418,18,Jits_Linear_8,2,1,48,27,2320136392
11418,18,Jits_Linear_8,3,5,80,127,2320230816
11418,18,Jits_Linear_8,0,5,63,98,2320641332
11418,18,Jits_Linear_8,1,1,48,20,2320678680
11418,18,Jits_Linear_8,2,5,80,127,2320750868
11418,18,Jits_Linear_8,3,5,56,103,2320780900
11418,18,Jits_Linear_8,0,1,48,23,2321187416
11418,18,Jits_Linear_8,1,5,56,103,2321200492
11418,18,Jits_Linear_8,2,5,63,98,2321231140
11418,18,Jits_Linear_8,3,5,80,127,2321281476
11418,18,Jits_Linear_8,0,5,63,98,2321710436
11418,18,Jits_Linear_8,1,1,48,21,2321724868
11418,18,Jits_Linear_8,2,5,56,103,2321741080
11418,18,Jits_Linear_8,3,5,80,127,2321791280
11418,18,Jits_Linear_8,0,1,48,24,2322228512
11418,18,Jits_Linear_8,1,5,56,103,2322280900
11418,18,Jits_Linear_8,2,5,63,98,2322301212
11418,18,Jits_Linear_8,3,5,80,127,2322381068
11418,18,Jits_Linear_8,0,1,48,21,2322767432
11418,18,Jits_Linear_8,1,5,63,98,2322790916
11418,18,Jits_Linear_8,2,5,56,103,2322851084
11418,18,Jits_Linear_8,3,5,80,127,2322880820
11418,18,Jits_Linear_8,0,1,48,21,2323291088
11418,18,Jits_Linear_8,1,5,56,103,2323371432
11418,18,Jits_Linear_8,2,5,80,127,2323430760
11418,18,Jits_Linear_8,3,5,63,98,2323470872
11418,18,Jits_Linear_8,0,5,63,98,2323881380
11418,18,Jits_Linear_8,1,1,48,21,2323885620
11418,18,Jits_Linear_8,2,5,56,103,2323940644
11418,18,Jits_Linear_8,3,5,80,127,2324011308
11418,18,Jits_Linear_8,0,1,48,18,2324472432
11418,18,Jits_Linear_8,1,5,56,103,2324490740
11418,18,Jits_Linear_8,2,5,63,98,2324500788
11418,18,Jits_Linear_8,3,5,80,127,2324504004
11418,18,Jits_Linear_8,0,5,63,98,2324960656
11418,18,Jits_Linear_8,1,1,48,25,2324989724
11418,18,Jits_Linear_8,2,5,56,103,2325021064
11418,18,Jits_Linear_8,3,5,80,127,2325024056
11418,18,Jits_Linear_8,0,5,63,98,2325470808
11418,18,Jits_Linear_8,1,5,80,127,2325501184
11418,18,Jits_Linear_8,2,5,56,103,2325520892
11418,18,Jits_Linear_8,3,1,48,20,2325524460
11418,18,Jits_Linear_8,0,5,56,103,2326001124
11418,18,Jits_Linear_8,1,1,48,19,2326007016
11418,18,Jits_Linear_8,2,5,63,98,2326051052
11418,18,Jits_Linear_8,3,5,80,127,2326131056
11418,18,Jits_Linear_8,0,5,80,127,2326500676
11418,18,Jits_Linear_8,1,5,63,98,2326540864
11418,18,Jits_Linear_8,2,5,56,103,2326561024
11418,18,Jits_Linear_8,3,1,48,21,2326562436
11418,18,Jits_Linear_8,0,1,48,15,2327046800
11418,18,Jits_Linear_8,1,5,56,103,2327090812
11418,18,Jits_Linear_8,2,5,80,127,2327100860
11418,18,Jits_Linear_8,3,5,63,98,2327121244
11418,18,Jits_Linear_8,0,1,48,20,2327542940
11418,18,Jits_Linear_8,1,5,56,103,2327591164
11418,18,Jits_Linear_8,2,5,63,98,2327640324
11418,18,Jits_Linear_8,3,5,80,127,2327671180
11418,18,Jits_Linear_8,0,5,56,103,2328061260
11418,18,Jits_Linear_8,1,5,63,98,2328070632
11418,18,Jits_Linear_8,2,1,48,19,2328108748
11418,18,Jits_Linear_8,3,5,80,127,2328120680
11418,18,Jits_Linear_8,0,5,56,103,2328571208
11418,18,Jits_Linear_8,1,5,80,127,2328574352
11418,18,Jits_Linear_8,2,1,48,16,2328620484
11418,18,Jits_Linear_8,3,5,63,98,2328730920
11418,18,Jits_Linear_8,0,5,63,98,2329100860
11418,18,Jits_Linear_8,1,1,48,17,2329163692
11418,18,Jits_Linear_8,2,5,56,103,2329171212
11418,18,Jits_Linear_8,3,5,80,127,2329211224
11418,18,Jits_Linear_8,0,5,63,98,2329650664
11418,18,Jits_Linear_8,1,1,48,17,2329705556
11418,18,Jits_Linear_8,2,5,56,103,2329740796
11418,18,Jits_Linear_8,3,5,80,127,2329743788
11418,18,Jits_Linear_8,0,5,56,103,2330140972
11418,18,Jits_Linear_8,1,1,48,15,2330226804
11418,18,Jits_Linear_8,2,5,63,98,2330231108
11418,18,Jits_Linear_8,3,5,80,127,2330241600
11418,18,Jits_Linear_8,0,5,56,103,2330621416
11418,18,Jits_Linear_8,1,5,63,98,2330670796
11418,18,Jits_Linear_8,2,5,80,127,2330701144
11418,18,Jits_Linear_8,3,1,48,15,2330770572
11418,18,Jits_Linear_8,0,5,63,98,2331200980
11418,18,Jits_Linear_8,1,5,80,127,2331211176
11418,18,Jits_Linear_8,2,5,56,103,2331270592
11418,18,Jits_Linear_8,0,5,63,98,2331620800
11418,18,Jits_Linear_8,1,5,80,127,2331681144
11418,18,Jits_Linear_8,2,5,56,103,2331721008
11418,18,Jits_Linear_8,0,5,56,103,2332220636
11418,18,Jits_Linear_8,1,5,80,127,2332241244
11418,18,Jits_Linear_8,2,5,63,98,2332260660
11418,18,Jits_Linear_8,3,1,48,19,2332302132
11418,18,Jits_Linear_8,0,5,63,98,2332640592
11418,18,Jits_Linear_8,1,5,56,103,2332661200
11418,18,Jits_Linear_8,2,5,80,127,2332701092
11418,18,Jits_Linear_8,3,1,48,15,2332723764
11418,18,Jits_Linear_8,0,5,63,98,2333150684
11418,18,Jits_Linear_8,1,5,80,127,2333181432
11418,18,Jits_Linear_8,2,5,56,103,2333200620
11418,18,Jits_Linear_8,0,5,80,127,2333620724
11418,18,Jits_Linear_8,1,5,56,103,2333670704
11418,18,Jits_Linear_8,2,1,48,18,2333695424
11418,18,Jits_Linear_8,3,5,63,98,2333731116
11418,18,Jits_Linear_8,0,5,63,98,2334100788
11418,18,Jits_Linear_8,1,5,56,103,2334220544
11418,18,Jits_Linear_8,2,1,48,22,2334233708
11418,18,Jits_Linear_8,3,5,80,127,2334251632
11418,18,Jits_Linear_8,0,5,80,127,2334631264
11418,18,Jits_Linear_8,1,5,63,98,2334650676
11418,18,Jits_Linear_8,2,5,56,103,2334721504
11418,18,Jits_Linear_8,3,1,48,22,2334736304
11418,18,Jits_Linear_8,0,5,63,98,2335141296
11418,18,Jits_Linear_8,1,5,56,103,2335150448
11418,18,Jits_Linear_8,2,5,80,127,2335231536
11418,18,Jits_Linear_8,3,1,48,19,2335282384
11418,18,Jits_Linear_8,0,5,56,103,2335691104
11418,18,Jits_Linear_8,1,5,80,127,2335720784
11418,18,Jits_Linear_8,2,5,63,98,2335730980
11418,18,Jits_Linear_8,3,1,48,16,2335765284
11418,18,Jits_Linear_8,0,9999,9999,9999,2225348696
11418,18,Jits_Linear_8,1,9999,9999,9999,2226168912
11418,18,Jits_Linear_8,2,9999,9999,9999,2226988108
11418,18,Jits_Linear_8,3,9999,9999,9999,2227808332
11418,18,Jits_Linear_8,4,9999,9999,9999,2228628604
11418,18,Jits_Linear_8,5,9999,9999,9999,2229438548
11418,18,Jits_Linear_8,6,9999,9999,9999,2230248564
11418,18,Jits_Linear_8,7,9999,9999,9999,2231058536
11418,18,Jits_Linear_8,8,9999,9999,9999,2231868480
11418,18,Jits_Linear_8,9,9999,9999,9999,2232678484
11418,18,Jits_Linear_8,10,9999,9999,9999,2233478248
11418,18,Jits_Linear_8,11,9999,9999,9999,2234279028
11418,18,Jits_Linear_8,12,9999,9999,9999,2235078724
11418,18,Jits_Linear_8,13,9999,9999,9999,2235878476
11418,18,Jits_Linear_8,14,9999,9999,9999,2236678268
11418,18,Jits_Linear_8,15,9999,9999,9999,2237468752
11418,18,Jits_Linear_8,16,9999,9999,9999,2238258300
11418,18,Jits_Linear_8,17,9999,9999,9999,2239048768
11418,18,Jits_Linear_8,18,9999,9999,9999,2239838268
11418,18,Jits_Linear_8,19,9999,9999,9999,2240628808
11418,18,Jits_Linear_8,20,9999,9999,9999,2241408112
11418,18,Jits_Linear_8,21,9999,9999,9999,2242188384
11418,18,Jits_Linear_8,22,9999,9999,9999,2242968648
11418,18,Jits_Linear_8,23,9999,9999,9999,2243748924
11418,18,Jits_Linear_8,24,9999,9999,9999,2244528224
11418,18,Jits_Linear_8,25,9999,9999,9999,2245298236
11418,18,Jits_Linear_8,26,9999,9999,9999,2246068320
11418,18,Jits_Linear_8,27,9999,9999,9999,2246838332
11418,18,Jits_Linear_8,28,9999,9999,9999,2247608428
11418,18,Jits_Linear_8,29,9999,9999,9999,2248378444
11418,18,Jits_Linear_8,30,9999,9999,9999,2249138264
11418,18,Jits_Linear_8,31,9999,9999,9999,2249899132
11418,18,Jits_Linear_8,32,9999,9999,9999,2250668096
11418,18,Jits_Linear_8,33,9999,9999,9999,2251428976
11418,18,Jits_Linear_8,34,9999,9999,9999,2252188796
11418,18,Jits_Linear_8,35,9999,9999,9999,2252938368
11418,18,Jits_Linear_8,36,9999,9999,9999,2253688904
11418,18,Jits_Linear_8,37,9999,9999,9999,2254438464
11418,18,Jits_Linear_8,38,9999,9999,9999,2255189064
11418,18,Jits_Linear_8,39,9999,9999,9999,2255938624
11418,18,Jits_Linear_8,40,9999,9999,9999,2256678968
11418,18,Jits_Linear_8,41,9999,9999,9999,2257418340
11418,18,Jits_Linear_8,42,9999,9999,9999,2258158648
11418,18,Jits_Linear_8,43,9999,9999,9999,2258899072
11418,18,Jits_Linear_8,44,9999,9999,9999,2259638348
11418,18,Jits_Linear_8,45,9999,9999,9999,2260368508
11418,18,Jits_Linear_8,46,9999,9999,9999,2261098592
11418,18,Jits_Linear_8,47,9999,9999,9999,2261828664
11418,18,Jits_Linear_8,48,9999,9999,9999,2262558832
11418,18,Jits_Linear_8,49,9999,9999,9999,2263288896
11418,18,Jits_Linear_8,50,9999,9999,9999,2264008780
11418,18,Jits_Linear_8,51,9999,9999,9999,2264728684
11418,18,Jits_Linear_8,52,9999,9999,9999,2265448576
11418,18,Jits_Linear_8,53,9999,9999,9999,2266168396
11418,18,Jits_Linear_8,54,9999,9999,9999,2266888316
11418,18,Jits_Linear_8,55,9999,9999,9999,2267598936
11418,18,Jits_Linear_8,56,9999,9999,9999,2268308572
11418,18,Jits_Linear_8,57,9999,9999,9999,2269018200
11418,18,Jits_Linear_8,58,9999,9999,9999,2269728880
11418,18,Jits_Linear_8,59,9999,9999,9999,2270438476
11418,18,Jits_Linear_8,60,9999,9999,9999,2271138884
11418,18,Jits_Linear_8,61,9999,9999,9999,2271838268
11418,18,Jits_Linear_8,62,9999,9999,9999,2272538748
11418,18,Jits_Linear_8,63,9999,9999,9999,2273238080
11418,18,Jits_Linear_8,64,9999,9999,9999,2273938496
11418,18,Jits_Linear_8,65,9999,9999,9999,2274628724
11418,18,Jits_Linear_8,66,9999,9999,9999,2275318868
11418,18,Jits_Linear_8,67,9999,9999,9999,2276009012
11418,18,Jits_Linear_8,68,9999,9999,9999,2276698192
11418,18,Jits_Linear_8,69,9999,9999,9999,2277388376
11418,18,Jits_Linear_8,70,9999,9999,9999,2278068332
11418,18,Jits_Linear_8,71,9999,9999,9999,2278748228
11418,18,Jits_Linear_8,72,9999,9999,9999,2279428184
11418,18,Jits_Linear_8,73,9999,9999,9999,2280108128
11418,18,Jits_Linear_8,74,9999,9999,9999,2280789084
11418,18,Jits_Linear_8,75,9999,9999,9999,2281458760
11418,18,Jits_Linear_8,76,9999,9999,9999,2282128484
11418,18,Jits_Linear_8,77,9999,9999,9999,2282798156
11418,18,Jits_Linear_8,78,9999,9999,9999,2283468916
11418,18,Jits_Linear_8,79,9999,9999,9999,2284138560
11418,18,Jits_Linear_8,80,9999,9999,9999,2284799040
11418,18,Jits_Linear_8,81,9999,9999,9999,2285458520
11418,18,Jits_Linear_8,82,9999,9999,9999,2286118996
11418,18,Jits_Linear_8,83,9999,9999,9999,2286778472
11418,18,Jits_Linear_8,84,9999,9999,9999,2287438948
11418,18,Jits_Linear_8,85,9999,9999,9999,2288088192
11418,18,Jits_Linear_8,86,9999,9999,9999,2288738360
11418,18,Jits_Linear_8,87,9999,9999,9999,2289388620
11418,18,Jits_Linear_8,88,9999,9999,9999,2290038904
11418,18,Jits_Linear_8,89,9999,9999,9999,2290688084
11418,18,Jits_Linear_8,90,9999,9999,9999,2291328096
11418,18,Jits_Linear_8,91,9999,9999,9999,2291968124
11418,18,Jits_Linear_8,92,9999,9999,9999,2292608068
11418,18,Jits_Linear_8,93,9999,9999,9999,2293248092
11418,18,Jits_Linear_8,94,9999,9999,9999,2293888096
11418,18,Jits_Linear_8,95,9999,9999,9999,2294518884
11418,18,Jits_Linear_8,96,9999,9999,9999,2295148636
11418,18,Jits_Linear_8,97,9999,9999,9999,2295778376
11418,18,Jits_Linear_8,98,9999,9999,9999,2296408144
11418,18,Jits_Linear_8,99,9999,9999,9999,2297038932
11418,18,Jits_Linear_8,100,9999,9999,9999,2297658424
11418,18,Jits_Linear_8,101,9999,9999,9999,2298279020
11418,18,Jits_Linear_8,102,9999,9999,9999,2298898512
11418,18,Jits_Linear_8,103,9999,9999,9999,2299519032
11418,18,Jits_Linear_8,104,9999,9999,9999,2300138584
11418,18,Jits_Linear_8,105,9999,9999,9999,2300748876
11418,18,Jits_Linear_8,106,9999,9999,9999,2301358152
11418,18,Jits_Linear_8,107,9999,9999,9999,2301968492
11418,18,Jits_Linear_8,108,9999,9999,9999,2302578756
11418,18,Jits_Linear_8,109,9999,9999,9999,2303189084
11418,18,Jits_Linear_8,110,9999,9999,9999,2303788136
11418,18,Jits_Linear_8,111,9999,9999,9999,2304388212
11418,18,Jits_Linear_8,112,9999,9999,9999,2304988280
11418,18,Jits_Linear_8,113,9999,9999,9999,2305588300
11418,18,Jits_Linear_8,114,9999,9999,9999,2306188368
11418,18,Jits_Linear_8,115,9999,9999,9999,2306778176
11418,18,Jits_Linear_8,116,9999,9999,9999,2307369056
11418,18,Jits_Linear_8,117,9999,9999,9999,2307958868
11418,18,Jits_Linear_8,118,9999,9999,9999,2308548676
11418,18,Jits_Linear_8,119,9999,9999,9999,2309138500
11418,18,Jits_Linear_8,120,9999,9999,9999,2309718116
11418,18,Jits_Linear_8,121,9999,9999,9999,2310298704
11418,18,Jits_Linear_8,122,9999,9999,9999,2310878316
11418,18,Jits_Linear_8,123,9999,9999,9999,2311458920
11418,18,Jits_Linear_8,124,9999,9999,9999,2312038472
11418,18,Jits_Linear_8,125,9999,9999,9999,2312608880
11418,18,Jits_Linear_8,126,9999,9999,9999,2313178168
11418,18,Jits_Linear_8,127,9999,9999,9999,2313748600
11418,18,Jits_Linear_8,128,9999,9999,9999,2314318924
11418,18,Jits_Linear_8,129,9999,9999,9999,2314888280
11418,18,Jits_Linear_8,130,9999,9999,9999,2315448444
11418,18,Jits_Linear_8,131,9999,9999,9999,2316008508
11418,18,Jits_Linear_8,132,9999,9999,9999,2316568676
11418,18,Jits_Linear_8,133,9999,9999,9999,2317128824
11418,18,Jits_Linear_8,134,9999,9999,9999,2317688888
11418,18,Jits_Linear_8,135,9999,9999,9999,2318238824
11418,18,Jits_Linear_8,136,9999,9999,9999,2318788696
11418,18,Jits_Linear_8,137,9999,9999,9999,2319338572
11418,18,Jits_Linear_8,138,9999,9999,9999,2319888488
11418,18,Jits_Linear_8,139,9999,9999,9999,2320438380
11418,18,Jits_Linear_8,140,9999,9999,9999,2320979040
11418,18,Jits_Linear_8,141,9999,9999,9999,2321518644
11418,18,Jits_Linear_8,142,9999,9999,9999,2322058324
11418,18,Jits_Linear_8,143,9999,9999,9999,2322598984
11418,18,Jits_Linear_8,144,9999,9999,9999,2323138664
11418,18,Jits_Linear_8,145,9999,9999,9999,2323669060
11418,18,Jits_Linear_8,146,9999,9999,9999,2324198484
11418,18,Jits_Linear_8,147,9999,9999,9999,2324728952
11418,18,Jits_Linear_8,148,9999,9999,9999,2325258368
11418,18,Jits_Linear_8,149,9999,9999,9999,2325788756
11418,18,Jits_Linear_8,150,9999,9999,9999,2326308968
11418,18,Jits_Linear_8,151,9999,9999,9999,2326828136
11418,18,Jits_Linear_8,152,9999,9999,9999,2327348288
11418,18,Jits_Linear_8,153,9999,9999,9999,2327868496
11418,18,Jits_Linear_8,154,9999,9999,9999,2328388696
11418,18,Jits_Linear_8,155,9999,9999,9999,2328898644
11418,18,Jits_Linear_8,156,9999,9999,9999,2329408600
11418,18,Jits_Linear_8,157,9999,9999,9999,2329918540
11418,18,Jits_Linear_8,158,9999,9999,9999,2330428488
11418,18,Jits_Linear_8,159,9999,9999,9999,2330938444
11418,18,Jits_Linear_8,160,9999,9999,9999,2331438168
11418,18,Jits_Linear_8,161,9999,9999,9999,2331938924
11418,18,Jits_Linear_8,162,9999,9999,9999,2332438624
11418,18,Jits_Linear_8,163,9999,9999,9999,2332938316
11418,18,Jits_Linear_8,164,9999,9999,9999,2333439060
11418,18,Jits_Linear_8,165,9999,9999,9999,2333928540
11418,18,Jits_Linear_8,166,9999,9999,9999,2334419020
11418,18,Jits_Linear_8,167,9999,9999,9999,2334908508
11418,18,Jits_Linear_8,168,9999,9999,9999,2335398992
11418,18,Jits_Linear_8,169,9999,9999,9999,2335888492
11419,19,Jits_Linear_5,0,5,56,103,2344070588
11419,19,Jits_Linear_5,1,5,63,98,2344073768
11419,19,Jits_Linear_5,2,5,80,127,2344076884
11419,19,Jits_Linear_5,0,5,56,103,2344550824
11419,19,Jits_Linear_5,1,5,63,98,2344553928
11419,19,Jits_Linear_5,2,5,80,127,2344556824
11419,19,Jits_Linear_5,0,5,56,103,2345031156
11419,19,Jits_Linear_5,1,5,80,127,2345041352
11419,19,Jits_Linear_5,2,5,63,98,2345060692
11419,19,Jits_Linear_5,3,1,48,24,2345065080
11419,19,Jits_Linear_5,0,5,63,98,2345461528
11419,19,Jits_Linear_5,1,1,48,36,2345466444
11419,19,Jits_Linear_5,2,5,80,127,2345490752
11419,19,Jits_Linear_5,3,5,56,103,2345501020
11419,19,Jits_Linear_5,0,1,48,33,2345934560
11419,19,Jits_Linear_5,1,5,80,127,2346000848
11419,19,Jits_Linear_5,2,5,56,103,2346011120
11419,19,Jits_Linear_5,3,5,63,98,2346040632
11419,19,Jits_Linear_5,0,1,48,30,2346465116
11419,19,Jits_Linear_5,1,5,63,98,2346481180
11419,19,Jits_Linear_5,2,5,56,103,2346510660
11419,19,Jits_Linear_5,3,5,80,127,2346521080
11419,19,Jits_Linear_5,0,5,56,103,2346921392
11419,19,Jits_Linear_5,1,1,48,29,2346950068
11419,19,Jits_Linear_5,2,5,63,98,2346970468
11419,19,Jits_Linear_5,3,5,80,127,2346990852
11419,19,Jits_Linear_5,0,1,48,24,2347376928
11419,19,Jits_Linear_5,1,5,80,127,2347410752
11419,19,Jits_Linear_5,2,5,63,98,2347460956
11419,19,Jits_Linear_5,3,5,56,103,2347501032
11419,19,Jits_Linear_5,0,1,48,26,2347890864
11419,19,Jits_Linear_5,1,5,56,103,2347901448
11419,19,Jits_Linear_5,2,5,63,98,2347930980
11419,19,Jits_Linear_5,3,5,80,127,2348000572
11419,19,Jits_Linear_5,0,1,48,28,2348378796
11419,19,Jits_Linear_5,1,5,56,103,2348390728
11419,19,Jits_Linear_5,2,5,80,127,2348451124
11419,19,Jits_Linear_5,3,5,63,98,2348480932
11419,19,Jits_Linear_5,0,1,48,26,2348881036
11419,19,Jits_Linear_5,1,5,56,103,2348890496
11419,19,Jits_Linear_5,2,5,63,98,2348900768
11419,19,Jits_Linear_5,3,5,80,127,2348940632
11419,19,Jits_Linear_5,0,1,48,20,2349363028
11419,19,Jits_Linear_5,1,5,63,98,2349380968
11419,19,Jits_Linear_5,2,5,80,127,2349461496
11419,19,Jits_Linear_5,3,5,56,103,2349471024
11419,19,Jits_Linear_5,0,1,48,26,2349870068
11419,19,Jits_Linear_5,1,5,63,98,2349930860
11419,19,Jits_Linear_5,2,5,56,103,2349970784
11419,19,Jits_Linear_5,3,5,80,127,2349973852
11419,19,Jits_Linear_5,0,1,48,21,2350339036
11419,19,Jits_Linear_5,1,5,56,103,2350390684
11419,19,Jits_Linear_5,2,5,63,98,2350400808
11419,19,Jits_Linear_5,3,5,80,127,2350440804
11419,19,Jits_Linear_5,0,1,48,27,2350826396
11419,19,Jits_Linear_5,1,5,56,103,2350881148
11419,19,Jits_Linear_5,2,5,63,98,2350884292
11419,19,Jits_Linear_5,3,5,80,127,2350900560
11419,19,Jits_Linear_5,0,1,48,23,2351316556
11419,19,Jits_Linear_5,1,5,80,127,2351401504
11419,19,Jits_Linear_5,2,5,56,103,2351410432
11419,19,Jits_Linear_5,3,5,63,98,2351481440
11419,19,Jits_Linear_5,0,1,48,29,2351852140
11419,19,Jits_Linear_5,1,5,63,98,2351900892
11419,19,Jits_Linear_5,2,5,56,103,2351920456
11419,19,Jits_Linear_5,3,5,80,127,2352001432
11419,19,Jits_Linear_5,0,1,48,29,2352319168
11419,19,Jits_Linear_5,1,5,56,103,2352421396
11419,19,Jits_Linear_5,2,5,80,127,2352461264
11419,19,Jits_Linear_5,3,5,63,98,2352471608
11419,19,Jits_Linear_5,0,1,48,33,2352823500
11419,19,Jits_Linear_5,1,5,80,127,2352920864
11419,19,Jits_Linear_5,2,5,63,98,2352950692
11419,19,Jits_Linear_5,3,5,56,103,2352990628
11419,19,Jits_Linear_5,0,1,48,25,2353354724
11419,19,Jits_Linear_5,1,5,56,103,2353451268
11419,19,Jits_Linear_5,2,5,63,98,2353481320
11419,19,Jits_Linear_5,3,5,80,127,2353531520
11419,19,Jits_Linear_5,0,1,48,28,2353853896
11419,19,Jits_Linear_5,1,5,80,127,2353961300
11419,19,Jits_Linear_5,2,5,56,103,2354001316
11419,19,Jits_Linear_5,3,5,63,98,2354010612
11419,19,Jits_Linear_5,0,1,48,21,2354394792
11419,19,Jits_Linear_5,1,5,80,127,2354461004
11419,19,Jits_Linear_5,2,5,63,98,2354500932
11419,19,Jits_Linear_5,3,5,56,103,2354561396
11419,19,Jits_Linear_5,0,1,48,27,2354894328
11419,19,Jits_Linear_5,1,5,56,103,2354981444
11419,19,Jits_Linear_5,2,5,80,127,2354990444
11419,19,Jits_Linear_5,3,5,63,98,2355071348
11419,19,Jits_Linear_5,0,1,48,21,2355373636
11419,19,Jits_Linear_5,1,5,80,127,2355501420
11419,19,Jits_Linear_5,2,5,63,98,2355560768
11419,19,Jits_Linear_5,3,5,56,103,2355590368
11419,19,Jits_Linear_5,0,1,48,27,2355962360
11419,19,Jits_Linear_5,1,5,56,103,2356020532
11419,19,Jits_Linear_5,2,5,80,127,2356081132
11419,19,Jits_Linear_5,3,5,63,98,2356121072
11419,19,Jits_Linear_5,0,1,48,24,2356499744
11419,19,Jits_Linear_5,1,5,56,103,2356601420
11419,19,Jits_Linear_5,2,5,63,98,2356610344
11419,19,Jits_Linear_5,3,5,80,127,2356613712
11419,19,Jits_Linear_5,0,1,48,25,2357042500
11419,19,Jits_Linear_5,1,5,80,127,2357080512
11419,19,Jits_Linear_5,2,5,63,98,2357170564
11419,19,Jits_Linear_5,3,5,56,103,2357180684
11419,19,Jits_Linear_5,0,1,48,25,2357600936
11419,19,Jits_Linear_5,1,5,56,103,2357610832
11419,19,Jits_Linear_5,2,5,63,98,2357614004
11419,19,Jits_Linear_5,3,5,80,127,2357617204
11419,19,Jits_Linear_5,0,1,48,25,2358073696
11419,19,Jits_Linear_5,1,5,80,127,2358160936
11419,19,Jits_Linear_5,2,5,63,98,2358210904
11419,19,Jits_Linear_5,3,5,56,103,2358240504
11419,19,Jits_Linear_5,0,1,48,25,2358631080
11419,19,Jits_Linear_5,1,5,56,103,2358670816
11419,19,Jits_Linear_5,2,5,80,127,2358681384
11419,19,Jits_Linear_5,3,5,63,98,2358750532
11419,19,Jits_Linear_5,0,1,48,32,2359099152
11419,19,Jits_Linear_5,1,5,56,103,2359211468
11419,19,Jits_Linear_5,2,5,63,98,2359230736
11419,19,Jits_Linear_5,3,5,80,127,2359291448
11419,19,Jits_Linear_5,0,1,48,21,2359615308
11419,19,Jits_Linear_5,1,5,80,127,2359740680
11419,19,Jits_Linear_5,2,5,63,98,2359810392
11419,19,Jits_Linear_5,3,5,56,103,2359830776
11419,19,Jits_Linear_5,0,1,48,24,2360181388
11419,19,Jits_Linear_5,1,5,80,127,2360300904
11419,19,Jits_Linear_5,2,5,56,103,2360311424
11419,19,Jits_Linear_5,3,5,63,98,2360321396
11419,19,Jits_Linear_5,0,1,48,24,2360749112
11419,19,Jits_Linear_5,1,5,80,127,2360831272
11419,19,Jits_Linear_5,2,5,56,103,2360850672
11419,19,Jits_Linear_5,3,5,63,98,2360920352
11419,19,Jits_Linear_5,0,1,48,19,2361285344
11419,19,Jits_Linear_5,1,5,56,103,2361381216
11419,19,Jits_Linear_5,2,5,80,127,2361410892
11419,19,Jits_Linear_5,3,5,63,98,2361431352
11419,19,Jits_Linear_5,0,1,48,20,2361819056
11419,19,Jits_Linear_5,1,5,63,98,2361920836
11419,19,Jits_Linear_5,2,5,56,103,2361981232
11419,19,Jits_Linear_5,3,5,80,127,2362011056
11419,19,Jits_Linear_5,0,1,48,19,2362314164
11419,19,Jits_Linear_5,1,5,63,98,2362460532
11419,19,Jits_Linear_5,2,5,80,127,2362463672
11419,19,Jits_Linear_5,3,5,56,103,2362550588
11419,19,Jits_Linear_5,0,1,48,23,2362877244
11419,19,Jits_Linear_5,1,5,56,103,2363030860
11419,19,Jits_Linear_5,2,5,63,98,2363060464
11419,19,Jits_Linear_5,3,5,80,127,2363100404
11419,19,Jits_Linear_5,0,1,48,26,2363524088
11419,19,Jits_Linear_5,1,5,63,98,2363580692
11419,19,Jits_Linear_5,2,5,56,103,2363620704
11419,19,Jits_Linear_5,3,5,80,127,2363641100
11419,19,Jits_Linear_5,0,1,48,14,2364102300
11419,19,Jits_Linear_5,1,5,63,98,2364140988
11419,19,Jits_Linear_5,2,5,56,103,2364180804
11419,19,Jits_Linear_5,3,5,80,127,2364191300
11419,19,Jits_Linear_5,0,1,48,25,2364600192
11419,19,Jits_Linear_5,1,5,80,127,2364671272
11419,19,Jits_Linear_5,2,5,63,98,2364741240
11419,19,Jits_Linear_5,3,5,56,103,2364760284
11419,19,Jits_Linear_5,0,1,48,27,2365174276
11419,19,Jits_Linear_5,1,5,56,103,2365221132
11419,19,Jits_Linear_5,2,5,80,127,2365240620
11419,19,Jits_Linear_5,3,5,63,98,2365280620
11419,19,Jits_Linear_5,0,1,48,30,2365720196
11419,19,Jits_Linear_5,1,5,63,98,2365790648
11419,19,Jits_Linear_5,2,5,80,127,2365811256
11419,19,Jits_Linear_5,3,5,56,103,2365851108
11419,19,Jits_Linear_5,0,1,48,36,2366246316
11419,19,Jits_Linear_5,1,5,63,98,2366350556
11419,19,Jits_Linear_5,2,5,56,103,2366371316
11419,19,Jits_Linear_5,3,5,80,127,2366381512
11419,19,Jits_Linear_5,0,1,48,33,2366779124
11419,19,Jits_Linear_5,1,5,80,127,2366910776
11419,19,Jits_Linear_5,2,5,56,103,2366931384
11419,19,Jits_Linear_5,3,5,63,98,2366960988
11419,19,Jits_Linear_5,0,1,48,32,2367379512
11419,19,Jits_Linear_5,1,5,56,103,2367551040
11419,19,Jits_Linear_5,2,5,80,127,2367553960
11419,19,Jits_Linear_5,3,5,63,98,2367571424
11419,19,Jits_Linear_5,0,1,48,23,2367913796
11419,19,Jits_Linear_5,1,5,63,98,2368041432
11419,19,Jits_Linear_5,2,5,56,103,2368071332
11419,19,Jits_Linear_5,3,5,80,127,2368130304
11419,19,Jits_Linear_5,0,1,48,26,2368511064
11419,19,Jits_Linear_5,1,5,63,98,2368690520
11419,19,Jits_Linear_5,2,5,56,103,2368701016
11419,19,Jits_Linear_5,3,5,80,127,2368711136
11419,19,Jits_Linear_5,0,1,48,29,2369092648
11419,19,Jits_Linear_5,1,5,56,103,2369210668
11419,19,Jits_Linear_5,2,5,80,127,2369240420
11419,19,Jits_Linear_5,3,5,63,98,2369250764
11419,19,Jits_Linear_5,0,1,48,29,2369651588
11419,19,Jits_Linear_5,1,5,63,98,2369831152
11419,19,Jits_Linear_5,2,5,56,103,2369840376
11419,19,Jits_Linear_5,3,5,80,127,2369860984
11419,19,Jits_Linear_5,0,1,48,24,2370147148
11419,19,Jits_Linear_5,1,5,56,103,2370331136
11419,19,Jits_Linear_5,2,5,63,98,2370391380
11419,19,Jits_Linear_5,3,5,80,127,2370394820
11419,19,Jits_Linear_5,0,1,48,15,2370799456
11419,19,Jits_Linear_5,1,5,80,127,2370931132
11419,19,Jits_Linear_5,2,5,56,103,2370941180
11419,19,Jits_Linear_5,3,5,63,98,2371011088
11419,19,Jits_Linear_5,0,1,48,22,2371375360
11419,19,Jits_Linear_5,1,5,80,127,2371501396
11419,19,Jits_Linear_5,2,5,56,103,2371571304
11419,19,Jits_Linear_5,3,5,63,98,2371581228
11419,19,Jits_Linear_5,0,1,48,27,2371917592
11419,19,Jits_Linear_5,1,5,63,98,2372121212
11419,19,Jits_Linear_5,2,5,56,103,2372131184
11419,19,Jits_Linear_5,3,5,80,127,2372150596
11419,19,Jits_Linear_5,0,1,48,25,2372523004
11419,19,Jits_Linear_5,1,5,80,127,2372651240
11419,19,Jits_Linear_5,2,5,63,98,2372710960
11419,19,Jits_Linear_5,3,5,56,103,2372750900
11419,19,Jits_Linear_5,0,1,48,26,2373112928
11419,19,Jits_Linear_5,1,5,56,103,2373281148
11419,19,Jits_Linear_5,2,5,63,98,2373291268
11419,19,Jits_Linear_5,3,5,80,127,2373331280
11419,19,Jits_Linear_5,0,1,48,26,2373669560
11419,19,Jits_Linear_5,1,5,56,103,2373831108
11419,19,Jits_Linear_5,2,5,80,127,2373860708
11419,19,Jits_Linear_5,3,5,63,98,2373910936
11419,19,Jits_Linear_5,0,1,48,23,2374258164
11419,19,Jits_Linear_5,1,5,56,103,2374460884
11419,19,Jits_Linear_5,2,5,63,98,2374500748
11419,19,Jits_Linear_5,3,5,80,127,2374504188
11419,19,Jits_Linear_5,0,1,48,20,2374936940
11419,19,Jits_Linear_5,1,5,56,103,2375050472
11419,19,Jits_Linear_5,2,5,63,98,2375061040
11419,19,Jits_Linear_5,3,5,80,127,2375081352
11419,19,Jits_Linear_5,0,1,48,22,2375537100
11419,19,Jits_Linear_5,1,5,56,103,2375600448
11419,19,Jits_Linear_5,2,5,80,127,2375603516
11419,19,Jits_Linear_5,3,5,63,98,2375640368
11419,19,Jits_Linear_5,0,1,48,25,2376157700
11419,19,Jits_Linear_5,1,5,63,98,2376231336
11419,19,Jits_Linear_5,2,5,56,103,2376261072
11419,19,Jits_Linear_5,3,5,80,127,2376280484
11419,19,Jits_Linear_5,0,1,48,26,2376719236
11419,19,Jits_Linear_5,1,5,80,127,2376800776
11419,19,Jits_Linear_5,2,5,56,103,2376811932
11419,19,Jits_Linear_5,3,5,63,98,2376821080
11419,19,Jits_Linear_5,0,1,48,20,2377311816
11419,19,Jits_Linear_5,1,5,56,103,2377400704
11419,19,Jits_Linear_5,2,5,80,127,2377440556
11419,19,Jits_Linear_5,3,5,63,98,2377471304
11419,19,Jits_Linear_5,0,1,48,27,2377839004
11419,19,Jits_Linear_5,1,5,63,98,2378010988
11419,19,Jits_Linear_5,2,5,80,127,2378021108
11419,19,Jits_Linear_5,3,5,56,103,2378030332
11419,19,Jits_Linear_5,0,1,48,27,2378511704
11419,19,Jits_Linear_5,1,5,56,103,2378590628
11419,19,Jits_Linear_5,2,5,63,98,2378661120
11419,19,Jits_Linear_5,3,5,80,127,2378670416
11419,19,Jits_Linear_5,0,1,48,24,2379085256
11419,19,Jits_Linear_5,1,5,80,127,2379201032
11419,19,Jits_Linear_5,2,5,56,103,2379211152
11419,19,Jits_Linear_5,3,5,63,98,2379261232
11419,19,Jits_Linear_5,0,1,48,26,2379692384
11419,19,Jits_Linear_5,1,5,80,127,2379821588
11419,19,Jits_Linear_5,2,5,56,103,2379880932
11419,19,Jits_Linear_5,3,5,63,98,2379910460
11419,19,Jits_Linear_5,0,1,48,24,2380291816
11419,19,Jits_Linear_5,1,5,56,103,2380430812
11419,19,Jits_Linear_5,2,5,80,127,2380433880
11419,19,Jits_Linear_5,3,5,63,98,2380470752
11419,19,Jits_Linear_5,0,1,48,22,2380906788
11419,19,Jits_Linear_5,1,5,56,103,2381070992
11419,19,Jits_Linear_5,2,5,63,98,2381101416
11419,19,Jits_Linear_5,3,5,80,127,2381110492
11419,19,Jits_Linear_5,0,1,48,23,2381502228
11419,19,Jits_Linear_5,1,5,63,98,2381691376
11419,19,Jits_Linear_5,2,5,80,127,2381700456
11419,19,Jits_Linear_5,3,5,56,103,2381710948
11419,19,Jits_Linear_5,0,1,48,24,2382115224
11419,19,Jits_Linear_5,1,5,80,127,2382251304
11419,19,Jits_Linear_5,2,5,56,103,2382300460
11419,19,Jits_Linear_5,3,5,63,98,2382303676
11419,19,Jits_Linear_5,0,1,48,19,2382739652
11419,19,Jits_Linear_5,1,5,56,103,2382900696
11419,19,Jits_Linear_5,2,5,80,127,2382920936
11419,19,Jits_Linear_5,3,5,63,98,2382931280
11419,19,Jits_Linear_5,0,1,48,22,2383330368
11419,19,Jits_Linear_5,1,5,63,98,2383500776
11419,19,Jits_Linear_5,2,5,56,103,2383531352
11419,19,Jits_Linear_5,3,5,80,127,2383550840
11419,19,Jits_Linear_5,0,1,48,20,2383942452
11419,19,Jits_Linear_5,1,5,56,103,2384130328
11419,19,Jits_Linear_5,2,5,80,127,2384140896
11419,19,Jits_Linear_5,3,5,63,98,2384211256
11419,19,Jits_Linear_5,0,1,48,19,2384565828
11419,19,Jits_Linear_5,1,5,63,98,2384740824
11419,19,Jits_Linear_5,2,5,80,127,2384780840
11419,19,Jits_Linear_5,3,5,56,103,2384820556
11419,19,Jits_Linear_5,0,1,48,21,2385099244
11419,19,Jits_Linear_5,1,5,56,103,2385380820
11419,19,Jits_Linear_5,2,5,63,98,2385390944
11419,19,Jits_Linear_5,3,5,80,127,2385410308
11419,19,Jits_Linear_5,4,1,48,24,2385661272
11419,19,Jits_Linear_5,0,5,63,98,2386050528
11419,19,Jits_Linear_5,1,5,80,127,2386070840
11419,19,Jits_Linear_5,2,5,56,103,2386091372
11419,19,Jits_Linear_5,3,1,48,17,2386109784
11419,19,Jits_Linear_5,0,1,48,21,2386601428
11419,19,Jits_Linear_5,1,5,56,103,2386620860
11419,19,Jits_Linear_5,2,5,80,127,2386700744
11419,19,Jits_Linear_5,3,5,63,98,2386711088
11419,19,Jits_Linear_5,0,1,48,18,2387139924
11419,19,Jits_Linear_5,1,5,80,127,2387290408
11419,19,Jits_Linear_5,2,5,63,98,2387300828
11419,19,Jits_Linear_5,3,5,56,103,2387330280
11419,19,Jits_Linear_5,0,1,48,20,2387704132
11419,19,Jits_Linear_5,1,5,63,98,2387881272
11419,19,Jits_Linear_5,2,5,80,127,2387921212
11419,19,Jits_Linear_5,3,5,56,103,2387980728
11419,19,Jits_Linear_5,0,1,48,26,2388334860
11419,19,Jits_Linear_5,1,5,63,98,2388521312
11419,19,Jits_Linear_5,2,5,56,103,2388570620
11419,19,Jits_Linear_5,3,5,80,127,2388601116
11419,19,Jits_Linear_5,0,1,48,18,2388888964
11419,19,Jits_Linear_5,1,5,80,127,2389170620
11419,19,Jits_Linear_5,2,5,63,98,2389180892
11419,19,Jits_Linear_5,3,5,56,103,2389250524
11419,19,Jits_Linear_5,4,1,48,26,2389286980
11419,19,Jits_Linear_5,0,1,48,24,2389753380
11419,19,Jits_Linear_5,1,5,80,127,2389881064
11419,19,Jits_Linear_5,2,5,56,103,2389890436
11419,19,Jits_Linear_5,3,5,63,98,2389893504
11419,19,Jits_Linear_5,0,1,48,26,2390295764
11419,19,Jits_Linear_5,1,5,56,103,2390461060
11419,19,Jits_Linear_5,2,5,80,127,2390481224
11419,19,Jits_Linear_5,3,5,63,98,2390490596
11419,19,Jits_Linear_5,4,1,48,25,2390705972
11419,19,Jits_Linear_5,0,5,63,98,2391110972
11419,19,Jits_Linear_5,1,5,56,103,2391150912
11419,19,Jits_Linear_5,2,5,80,127,2391170920
11419,19,Jits_Linear_5,3,1,48,19,2391227680
11419,19,Jits_Linear_5,0,1,48,24,2391679708
11419,19,Jits_Linear_5,1,5,63,98,2391761248
11419,19,Jits_Linear_5,2,5,56,103,2391820752
11419,19,Jits_Linear_5,3,5,80,127,2391823820
11419,19,Jits_Linear_5,0,1,48,17,2392246208
11419,19,Jits_Linear_5,1,5,56,103,2392370628
11419,19,Jits_Linear_5,2,5,80,127,2392391012
11419,19,Jits_Linear_5,3,5,63,98,2392430952
11419,19,Jits_Linear_5,0,1,48,22,2392749576
11419,19,Jits_Linear_5,1,5,56,103,2393050556
11419,19,Jits_Linear_5,2,5,63,98,2393070944
11419,19,Jits_Linear_5,3,5,80,127,2393081164
11419,19,Jits_Linear_5,4,1,48,14,2393231340
11419,19,Jits_Linear_5,0,5,80,127,2393671108
11419,19,Jits_Linear_5,1,5,56,103,2393700788
11419,19,Jits_Linear_5,2,1,48,19,2393738532
11419,19,Jits_Linear_5,3,5,63,98,2393740648
11419,19,Jits_Linear_5,0,1,48,14,2394221268
11419,19,Jits_Linear_5,1,5,80,127,2394330596
11419,19,Jits_Linear_5,2,5,56,103,2394350908
11419,19,Jits_Linear_5,3,5,63,98,2394411252
11419,19,Jits_Linear_5,0,1,48,21,2394825460
11419,19,Jits_Linear_5,1,5,56,103,2394991160
11419,19,Jits_Linear_5,2,5,80,127,2395010280
11419,19,Jits_Linear_5,3,5,63,98,2395070816
11419,19,Jits_Linear_5,0,1,48,18,2395500948
11419,19,Jits_Linear_5,1,5,80,127,2395631028
11419,19,Jits_Linear_5,2,5,56,103,2395641248
11419,19,Jits_Linear_5,3,5,63,98,2395681112
11419,19,Jits_Linear_5,0,1,48,15,2396129048
11419,19,Jits_Linear_5,1,5,63,98,2396290620
11419,19,Jits_Linear_5,2,5,56,103,2396331308
11419,19,Jits_Linear_5,3,5,80,127,2396334672
11419,19,Jits_Linear_5,0,1,48,17,2396744564
11419,19,Jits_Linear_5,1,5,63,98,2396971328
11419,19,Jits_Linear_5,2,5,80,127,2397011420
11419,19,Jits_Linear_5,3,5,56,103,2397040872
11419,19,Jits_Linear_5,0,1,48,27,2397355580
11419,19,Jits_Linear_5,1,5,56,103,2397620780
11419,19,Jits_Linear_5,2,5,63,98,2397630980
11419,19,Jits_Linear_5,3,5,80,127,2397660804
11419,19,Jits_Linear_5,0,1,48,19,2397999604
11419,19,Jits_Linear_5,1,5,80,127,2398280956
11419,19,Jits_Linear_5,2,5,63,98,2398350940
11419,19,Jits_Linear_5,3,5,56,103,2398360912
11419,19,Jits_Linear_5,4,1,48,23,2398604904
11419,19,Jits_Linear_5,0,5,63,98,2398950712
11419,19,Jits_Linear_5,1,5,56,103,2399021692
11419,19,Jits_Linear_5,2,5,80,127,2399030768
11419,19,Jits_Linear_5,3,1,48,18,2399228984
11419,19,Jits_Linear_5,0,5,63,98,2399620720
11419,19,Jits_Linear_5,1,5,56,103,2399640956
11419,19,Jits_Linear_5,2,5,80,127,2399680748
11419,19,Jits_Linear_5,3,1,48,20,2399722000
11419,19,Jits_Linear_5,0,1,48,21,2400241520
11419,19,Jits_Linear_5,1,5,56,103,2400301508
11419,19,Jits_Linear_5,2,5,63,98,2400310884
11419,19,Jits_Linear_5,3,5,80,127,2400390588
11419,19,Jits_Linear_5,0,1,48,21,2400820720
11419,19,Jits_Linear_5,1,5,63,98,2400960916
11419,19,Jits_Linear_5,2,5,56,103,2400990740
11419,19,Jits_Linear_5,3,5,80,127,2401030628
11419,19,Jits_Linear_5,0,1,48,27,2401424232
11419,19,Jits_Linear_5,1,5,56,103,2401630544
11419,19,Jits_Linear_5,2,5,63,98,2401670784
11419,19,Jits_Linear_5,3,5,80,127,2401710576
11419,19,Jits_Linear_5,0,1,48,19,2402037584
11419,19,Jits_Linear_5,1,5,80,127,2402310664
11419,19,Jits_Linear_5,2,5,56,103,2402391660
11419,19,Jits_Linear_5,3,5,63,98,2402400512
11419,19,Jits_Linear_5,0,5,56,103,2403031540
11419,19,Jits_Linear_5,1,5,63,98,2403034680
11419,19,Jits_Linear_5,2,5,80,127,2403040688
11419,19,Jits_Linear_5,3,1,48,16,2403347256
11419,19,Jits_Linear_5,0,5,56,103,2403730780
11419,19,Jits_Linear_5,1,5,63,98,2403751240
11419,19,Jits_Linear_5,2,5,80,127,2403760612
11419,19,Jits_Linear_5,3,1,48,28,2404001092
11419,19,Jits_Linear_5,0,5,63,98,2404370832
11419,19,Jits_Linear_5,1,5,80,127,2404381032
11419,19,Jits_Linear_5,2,5,56,103,2404400520
11419,19,Jits_Linear_5,3,1,48,30,2404559168
11419,19,Jits_Linear_5,0,1,48,25,2405060896
11419,19,Jits_Linear_5,1,5,63,98,2405062232
11419,19,Jits_Linear_5,2,5,56,103,2405140788
11419,19,Jits_Linear_5,3,5,80,127,2405144004
11419,19,Jits_Linear_5,0,1,48,32,2405589460
11419,19,Jits_Linear_5,1,5,63,98,2405751256
11419,19,Jits_Linear_5,2,5,56,103,2405770520
11419,19,Jits_Linear_5,3,5,80,127,2405801464
11419,19,Jits_Linear_5,0,1,48,19,2406284412
11419,19,Jits_Linear_5,1,5,56,103,2406441416
11419,19,Jits_Linear_5,2,5,63,98,2406460756
11419,19,Jits_Linear_5,3,5,80,127,2406471028
11419,19,Jits_Linear_5,0,1,48,25,2406951644
11419,19,Jits_Linear_5,1,5,56,103,2407161100
11419,19,Jits_Linear_5,2,5,63,98,2407190852
11419,19,Jits_Linear_5,3,5,80,127,2407194216
11419,19,Jits_Linear_5,0,1,48,23,2407554560
11419,19,Jits_Linear_5,1,5,56,103,2407801180
11419,19,Jits_Linear_5,2,5,63,98,2407841124
11419,19,Jits_Linear_5,3,5,80,127,2407900468
11419,19,Jits_Linear_5,0,1,48,24,2408221648
11419,19,Jits_Linear_5,1,5,56,103,2408510972
11419,19,Jits_Linear_5,2,5,63,98,2408521244
11419,19,Jits_Linear_5,3,5,80,127,2408580440
11419,19,Jits_Linear_5,4,1,48,29,2408658536
11419,19,Jits_Linear_5,0,5,56,103,2409211464
11419,19,Jits_Linear_5,1,5,80,127,2409230656
11419,19,Jits_Linear_5,2,1,48,27,2409234224
11419,19,Jits_Linear_5,3,5,63,98,2409261520
11419,19,Jits_Linear_5,0,1,48,30,2409896856
11419,19,Jits_Linear_5,1,5,80,127,2409910676
11419,19,Jits_Linear_5,2,5,56,103,2409920948
11419,19,Jits_Linear_5,3,5,63,98,2409941336
11419,19,Jits_Linear_5,0,1,48,28,2410509632
11419,19,Jits_Linear_5,1,5,63,98,2410600912
11419,19,Jits_Linear_5,2,5,80,127,2410680772
11419,19,Jits_Linear_5,3,5,56,103,2410691044
11419,19,Jits_Linear_5,0,1,48,30,2411126544
11419,19,Jits_Linear_5,1,5,80,127,2411360588
11419,19,Jits_Linear_5,2,5,56,103,2411381044
11419,19,Jits_Linear_5,3,5,63,98,2411384040
11419,19,Jits_Linear_5,0,1,48,35,2411853876
11419,19,Jits_Linear_5,1,5,63,98,2412040628
11419,19,Jits_Linear_5,2,5,80,127,2412043844
11419,19,Jits_Linear_5,3,5,56,103,2412100868
11419,19,Jits_Linear_5,0,1,48,27,2412668248
11419,19,Jits_Linear_5,1,5,56,103,2412730696
11419,19,Jits_Linear_5,2,5,80,127,2412740968
11419,19,Jits_Linear_5,3,5,63,98,2412780892
11419,19,Jits_Linear_5,0,1,48,22,2413327388
11419,19,Jits_Linear_5,1,5,56,103,2413420852
11419,19,Jits_Linear_5,2,5,63,98,2413481528
11419,19,Jits_Linear_5,3,5,80,127,2413490532
11419,19,Jits_Linear_5,0,1,48,28,2414048012
11419,19,Jits_Linear_5,1,5,63,98,2414140756
11419,19,Jits_Linear_5,2,5,80,127,2414180684
11419,19,Jits_Linear_5,3,5,56,103,2414220624
11419,19,Jits_Linear_5,0,1,48,27,2414799480
11419,19,Jits_Linear_5,1,5,56,103,2414850324
11419,19,Jits_Linear_5,2,5,63,98,2414931380
11419,19,Jits_Linear_5,3,5,80,127,2414934596
11419,19,Jits_Linear_5,0,1,48,32,2415505208
11419,19,Jits_Linear_5,1,5,80,127,2415620484
11419,19,Jits_Linear_5,2,5,56,103,2415651356
11419,19,Jits_Linear_5,3,5,63,98,2415654348
11419,19,Jits_Linear_5,0,1,48,32,2416238588
11419,19,Jits_Linear_5,1,5,56,103,2416301416
11419,19,Jits_Linear_5,2,5,80,127,2416320828
11419,19,Jits_Linear_5,3,5,63,98,2416360752
11419,19,Jits_Linear_5,0,1,48,24,2416894740
11419,19,Jits_Linear_5,1,5,80,127,2417000776
11419,19,Jits_Linear_5,2,5,63,98,2417021384
11419,19,Jits_Linear_5,3,5,56,103,2417080656
11419,19,Jits_Linear_5,0,1,48,27,2417603688
11419,19,Jits_Linear_5,1,5,63,98,2417730796
11419,19,Jits_Linear_5,2,5,56,103,2417741364
11419,19,Jits_Linear_5,3,5,80,127,2417791716
11419,19,Jits_Linear_5,0,1,48,35,2418304776
11419,19,Jits_Linear_5,1,5,56,103,2418440508
11419,19,Jits_Linear_5,2,5,63,98,2418461044
11419,19,Jits_Linear_5,3,5,80,127,2418471536
11419,19,Jits_Linear_5,0,1,48,35,2419036136
11419,19,Jits_Linear_5,1,5,56,103,2419160460
11419,19,Jits_Linear_5,2,5,63,98,2419163600
11419,19,Jits_Linear_5,3,5,80,127,2419180768
11419,19,Jits_Linear_5,0,1,48,32,2419727560
11419,19,Jits_Linear_5,1,5,63,98,2419930400
11419,19,Jits_Linear_5,2,5,56,103,2419961152
11419,19,Jits_Linear_5,3,5,80,127,2419990828
11419,19,Jits_Linear_5,0,1,48,30,2420584736
11419,19,Jits_Linear_5,1,5,80,127,2420620576
11419,19,Jits_Linear_5,2,5,56,103,2420710700
11419,19,Jits_Linear_5,3,5,63,98,2420713768
11419,19,Jits_Linear_5,0,1,48,23,2421289728
11419,19,Jits_Linear_5,1,5,56,103,2421350740
11419,19,Jits_Linear_5,2,5,80,127,2421353880
11419,19,Jits_Linear_5,3,5,63,98,2421430592
11419,19,Jits_Linear_5,0,1,48,21,2421935112
11419,19,Jits_Linear_5,1,5,80,127,2422081028
11419,19,Jits_Linear_5,2,5,63,98,2422141420
11419,19,Jits_Linear_5,3,5,56,103,2422171320
11419,19,Jits_Linear_5,0,1,48,24,2422630000
11419,19,Jits_Linear_5,1,5,63,98,2422811200
11419,19,Jits_Linear_5,2,5,80,127,2422821324
11419,19,Jits_Linear_5,3,5,56,103,2422890856
11419,19,Jits_Linear_5,0,1,48,31,2423300824
11419,19,Jits_Linear_5,1,5,56,103,2423560476
11419,19,Jits_Linear_5,2,5,80,127,2423591272
11419,19,Jits_Linear_5,3,5,63,98,2423640428
11419,19,Jits_Linear_5,0,1,48,18,2424027212
11419,19,Jits_Linear_5,1,5,63,98,2424340768
11419,19,Jits_Linear_5,2,5,56,103,2424370664
11419,19,Jits_Linear_5,3,5,80,127,2424373584
11419,19,Jits_Linear_5,0,1,48,19,2424867012
11419,19,Jits_Linear_5,1,5,63,98,2425081192
11419,19,Jits_Linear_5,2,5,80,127,2425100752
11419,19,Jits_Linear_5,3,5,56,103,2425110800
11419,19,Jits_Linear_5,0,1,48,22,2425514964
11419,19,Jits_Linear_5,1,5,56,103,2425830664
11419,19,Jits_Linear_5,2,5,63,98,2425833736
11419,19,Jits_Linear_5,3,5,80,127,2425851300
11419,19,Jits_Linear_5,4,1,48,19,2425942300
11419,19,Jits_Linear_5,0,1,48,24,2426485192
11419,19,Jits_Linear_5,1,5,56,103,2426531224
11419,19,Jits_Linear_5,2,5,63,98,2426541496
11419,19,Jits_Linear_5,3,5,80,127,2426571244
11419,19,Jits_Linear_5,0,1,48,26,2427182096
11419,19,Jits_Linear_5,1,5,63,98,2427301456
11419,19,Jits_Linear_5,2,5,80,127,2427320648
11419,19,Jits_Linear_5,3,5,56,103,2427360588
11419,19,Jits_Linear_5,0,1,48,22,2427923500
11419,19,Jits_Linear_5,1,5,56,103,2428080480
11419,19,Jits_Linear_5,2,5,63,98,2428120492
11419,19,Jits_Linear_5,3,5,80,127,2428123636
11419,19,Jits_Linear_5,0,5,80,127,2428770732
11419,19,Jits_Linear_5,1,1,48,19,2428780972
11419,19,Jits_Linear_5,2,5,56,103,2428810516
11419,19,Jits_Linear_5,3,5,63,98,2428860716
11419,19,Jits_Linear_5,0,1,48,30,2429455548
11419,19,Jits_Linear_5,1,5,56,103,2429580540
11419,19,Jits_Linear_5,2,5,80,127,2429591108
11419,19,Jits_Linear_5,3,5,63,98,2429620560
11419,19,Jits_Linear_5,0,1,48,35,2430221540
11419,19,Jits_Linear_5,1,5,56,103,2430281056
11419,19,Jits_Linear_5,2,5,80,127,2430321128
11419,19,Jits_Linear_5,3,5,63,98,2430371332
11419,19,Jits_Linear_5,0,1,48,31,2430903720
11419,19,Jits_Linear_5,1,5,56,103,2431040872
11419,19,Jits_Linear_5,2,5,80,127,2431080812
11419,19,Jits_Linear_5,3,5,63,98,2431131236
11419,19,Jits_Linear_5,0,1,48,22,2431676816
11419,19,Jits_Linear_5,1,5,80,127,2431790372
11419,19,Jits_Linear_5,2,5,63,98,2431871292
11419,19,Jits_Linear_5,3,5,56,103,2431880520
11419,19,Jits_Linear_5,0,1,48,25,2432446772
11419,19,Jits_Linear_5,1,5,80,127,2432600488
11419,19,Jits_Linear_5,2,5,56,103,2432610612
11419,19,Jits_Linear_5,3,5,63,98,2432631292
11419,19,Jits_Linear_5,0,1,48,30,2433273404
11419,19,Jits_Linear_5,1,5,63,98,2433330672
11419,19,Jits_Linear_5,2,5,56,103,2433401240
11419,19,Jits_Linear_5,3,5,80,127,2433404232
11419,19,Jits_Linear_5,0,5,80,127,2434091332
11419,19,Jits_Linear_5,1,1,48,20,2434108624
11419,19,Jits_Linear_5,2,5,63,98,2434140484
11419,19,Jits_Linear_5,3,5,56,103,2434180496
11419,19,Jits_Linear_5,0,1,48,26,2434889592
11419,19,Jits_Linear_5,1,5,63,98,2434901452
11419,19,Jits_Linear_5,2,5,56,103,2434941392
11419,19,Jits_Linear_5,3,5,80,127,2434950468
11419,19,Jits_Linear_5,0,1,48,27,2435614212
11419,19,Jits_Linear_5,1,5,63,98,2435661144
11419,19,Jits_Linear_5,2,5,56,103,2435680560
11419,19,Jits_Linear_5,3,5,80,127,2435701316
11419,19,Jits_Linear_5,0,1,48,16,2436364836
11419,19,Jits_Linear_5,1,5,80,127,2436391236
11419,19,Jits_Linear_5,2,5,56,103,2436400388
11419,19,Jits_Linear_5,3,5,63,98,2436421068
11419,19,Jits_Linear_5,0,1,48,19,2437046188
11419,19,Jits_Linear_5,1,5,63,98,2437191140
11419,19,Jits_Linear_5,2,5,56,103,2437231008
11419,19,Jits_Linear_5,3,5,80,127,2437260608
11419,19,Jits_Linear_5,0,1,48,29,2437782136
11419,19,Jits_Linear_5,1,5,56,103,2437971360
11419,19,Jits_Linear_5,2,5,63,98,2438001188
11419,19,Jits_Linear_5,3,5,80,127,2438030640
11419,19,Jits_Linear_5,0,1,48,30,2438532084
11419,19,Jits_Linear_5,1,5,80,127,2438721012
11419,19,Jits_Linear_5,2,5,56,103,2438790392
11419,19,Jits_Linear_5,3,5,63,98,2438793392
11419,19,Jits_Linear_5,0,1,48,21,2439348784
11419,19,Jits_Linear_5,1,5,56,103,2439511400
11419,19,Jits_Linear_5,2,5,63,98,2439560560
11419,19,Jits_Linear_5,3,5,80,127,2439591208
11419,19,Jits_Linear_5,0,1,48,24,2440079248
11419,19,Jits_Linear_5,1,5,63,98,2440271312
11419,19,Jits_Linear_5,2,5,80,127,2440274604
11419,19,Jits_Linear_5,3,5,56,103,2440330580
11419,19,Jits_Linear_5,4,1,48,27,2440701432
11419,19,Jits_Linear_5,0,5,56,103,2441081328
11419,19,Jits_Linear_5,1,5,80,127,2441090404
11419,19,Jits_Linear_5,2,5,63,98,2441140532
11419,19,Jits_Linear_5,3,1,48,19,2441474968
11419,19,Jits_Linear_5,0,5,63,98,2441841108
11419,19,Jits_Linear_5,1,5,56,103,2441851156
11419,19,Jits_Linear_5,2,5,80,127,2441881128
11419,19,Jits_Linear_5,3,1,48,28,2442169780
11419,19,Jits_Linear_5,0,5,63,98,2442661176
11419,19,Jits_Linear_5,1,5,80,127,2442664544
11419,19,Jits_Linear_5,2,5,56,103,2442691224
11419,19,Jits_Linear_5,3,1,48,20,2442857156
11419,19,Jits_Linear_5,0,1,48,19,2443467044
11419,19,Jits_Linear_5,1,5,63,98,2443471348
11419,19,Jits_Linear_5,2,5,56,103,2443490612
11419,19,Jits_Linear_5,3,5,80,127,2443493752
11419,19,Jits_Linear_5,0,1,48,24,2444142888
11419,19,Jits_Linear_5,1,5,63,98,2444220912
11419,19,Jits_Linear_5,2,5,56,103,2444290384
11419,19,Jits_Linear_5,3,5,80,127,2444310992
11419,19,Jits_Linear_5,0,1,48,32,2444858976
11419,19,Jits_Linear_5,1,5,56,103,2445000968
11419,19,Jits_Linear_5,2,5,63,98,2445011388
11419,19,Jits_Linear_5,3,5,80,127,2445101396
11419,19,Jits_Linear_5,0,1,48,31,2445562912
11419,19,Jits_Linear_5,1,5,56,103,2445810952
11419,19,Jits_Linear_5,2,5,80,127,2445850968
11419,19,Jits_Linear_5,3,5,63,98,2445861312
11419,19,Jits_Linear_5,0,1,48,21,2446300324
11419,19,Jits_Linear_5,1,5,56,103,2446631324
11419,19,Jits_Linear_5,2,5,63,98,2446660928
11419,19,Jits_Linear_5,3,5,80,127,2446690528
11419,19,Jits_Linear_5,4,1,48,22,2447011536
11419,19,Jits_Linear_5,0,5,80,127,2447391084
11419,19,Jits_Linear_5,1,5,63,98,2447430948
11419,19,Jits_Linear_5,2,5,56,103,2447450436
11419,19,Jits_Linear_5,3,1,48,21,2447620124
11419,19,Jits_Linear_5,0,5,56,103,2448230876
11419,19,Jits_Linear_5,1,5,80,127,2448251112
11419,19,Jits_Linear_5,2,1,48,18,2448252448
11419,19,Jits_Linear_5,3,5,63,98,2448270964
11419,19,Jits_Linear_5,0,1,48,16,2448853996
11419,19,Jits_Linear_5,1,5,63,98,2449000892
11419,19,Jits_Linear_5,2,5,56,103,2449011088
11419,19,Jits_Linear_5,3,5,80,127,2449070436
11419,19,Jits_Linear_5,0,1,48,21,2449568272
11419,19,Jits_Linear_5,1,5,56,103,2449810928
11419,19,Jits_Linear_5,2,5,63,98,2449880316
11419,19,Jits_Linear_5,3,5,80,127,2449901148
11419,19,Jits_Linear_5,0,1,48,19,2450388200
11419,19,Jits_Linear_5,1,5,56,103,2450620888
11419,19,Jits_Linear_5,2,5,63,98,2450650416
11419,19,Jits_Linear_5,3,5,80,127,2450690380
11419,19,Jits_Linear_5,0,1,48,21,2451204336
11419,19,Jits_Linear_5,1,5,63,98,2451420436
11419,19,Jits_Linear_5,2,5,56,103,2451470888
11419,19,Jits_Linear_5,3,5,80,127,2451480936
11419,19,Jits_Linear_5,0,1,48,19,2452004176
11419,19,Jits_Linear_5,1,5,56,103,2452270428
11419,19,Jits_Linear_5,2,5,63,98,2452320556
11419,19,Jits_Linear_5,3,5,80,127,2452330976
11419,19,Jits_Linear_5,0,1,48,21,2452998024
11419,19,Jits_Linear_5,1,5,56,103,2453050732
11419,19,Jits_Linear_5,2,5,63,98,2453060932
11419,19,Jits_Linear_5,3,5,80,127,2453140784
11419,19,Jits_Linear_5,0,9999,9999,9999,2344308824
11419,19,Jits_Linear_5,1,9999,9999,9999,2344789060
11419,19,Jits_Linear_5,2,9999,9999,9999,2345268324
11419,19,Jits_Linear_5,3,9999,9999,9999,2345748596
11419,19,Jits_Linear_5,4,9999,9999,9999,2346228860
11419,19,Jits_Linear_5,5,9999,9999,9999,2346718284
11419,19,Jits_Linear_5,6,9999,9999,9999,2347208832
11419,19,Jits_Linear_5,7,9999,9999,9999,2347698276
11419,19,Jits_Linear_5,8,9999,9999,9999,2348188752
11419,19,Jits_Linear_5,9,9999,9999,9999,2348678252
11419,19,Jits_Linear_5,10,9999,9999,9999,2349178988
11419,19,Jits_Linear_5,11,9999,9999,9999,2349678680
11419,19,Jits_Linear_5,12,9999,9999,9999,2350178364
11419,19,Jits_Linear_5,13,9999,9999,9999,2350678128
11419,19,Jits_Linear_5,14,9999,9999,9999,2351178848
11419,19,Jits_Linear_5,15,9999,9999,9999,2351688800
11419,19,Jits_Linear_5,16,9999,9999,9999,2352198752
11419,19,Jits_Linear_5,17,9999,9999,9999,2352708708
11419,19,Jits_Linear_5,18,9999,9999,9999,2353218664
11419,19,Jits_Linear_5,19,9999,9999,9999,2353728620
11419,19,Jits_Linear_5,20,9999,9999,9999,2354248760
11419,19,Jits_Linear_5,21,9999,9999,9999,2354768980
11419,19,Jits_Linear_5,22,9999,9999,9999,2355288148
11419,19,Jits_Linear_5,23,9999,9999,9999,2355808364
11419,19,Jits_Linear_5,24,9999,9999,9999,2356328504
11419,19,Jits_Linear_5,25,9999,9999,9999,2356858980
11419,19,Jits_Linear_5,26,9999,9999,9999,2357388340
11419,19,Jits_Linear_5,27,9999,9999,9999,2357918800
11419,19,Jits_Linear_5,28,9999,9999,9999,2358448236
11419,19,Jits_Linear_5,29,9999,9999,9999,2358978640
11419,19,Jits_Linear_5,30,9999,9999,9999,2359518336
11419,19,Jits_Linear_5,31,9999,9999,9999,2360058956
11419,19,Jits_Linear_5,32,9999,9999,9999,2360598648
11419,19,Jits_Linear_5,33,9999,9999,9999,2361138272
11419,19,Jits_Linear_5,34,9999,9999,9999,2361678940
11419,19,Jits_Linear_5,35,9999,9999,9999,2362228824
11419,19,Jits_Linear_5,36,9999,9999,9999,2362778700
11419,19,Jits_Linear_5,37,9999,9999,9999,2363328588
11419,19,Jits_Linear_5,38,9999,9999,9999,2363878472
11419,19,Jits_Linear_5,39,9999,9999,9999,2364428384
11419,19,Jits_Linear_5,40,9999,9999,9999,2364988536
11419,19,Jits_Linear_5,41,9999,9999,9999,2365548660
11419,19,Jits_Linear_5,42,9999,9999,9999,2366108732
11419,19,Jits_Linear_5,43,9999,9999,9999,2366668876
11419,19,Jits_Linear_5,44,9999,9999,9999,2367229052
11419,19,Jits_Linear_5,45,9999,9999,9999,2367798340
11419,19,Jits_Linear_5,46,9999,9999,9999,2368368752
11419,19,Jits_Linear_5,47,9999,9999,9999,2368939096
11419,19,Jits_Linear_5,48,9999,9999,9999,2369518652
11419,19,Jits_Linear_5,49,9999,9999,9999,2370089016
11419,19,Jits_Linear_5,50,9999,9999,9999,2370668632
11419,19,Jits_Linear_5,51,9999,9999,9999,2371248188
11419,19,Jits_Linear_5,52,9999,9999,9999,2371828788
11419,19,Jits_Linear_5,53,9999,9999,9999,2372408444
11419,19,Jits_Linear_5,54,9999,9999,9999,2372989048
11419,19,Jits_Linear_5,55,9999,9999,9999,2373578868
11419,19,Jits_Linear_5,56,9999,9999,9999,2374168636
11419,19,Jits_Linear_5,57,9999,9999,9999,2374758524
11419,19,Jits_Linear_5,58,9999,9999,9999,2375348344
11419,19,Jits_Linear_5,59,9999,9999,9999,2375938172
11419,19,Jits_Linear_5,60,9999,9999,9999,2376538184
11419,19,Jits_Linear_5,61,9999,9999,9999,2377138264
11419,19,Jits_Linear_5,62,9999,9999,9999,2377738296
11419,19,Jits_Linear_5,63,9999,9999,9999,2378338376
11419,19,Jits_Linear_5,64,9999,9999,9999,2378938456
11419,19,Jits_Linear_5,65,9999,9999,9999,2379548748
11419,19,Jits_Linear_5,66,9999,9999,9999,2380159092
11419,19,Jits_Linear_5,67,9999,9999,9999,2380768384
11419,19,Jits_Linear_5,68,9999,9999,9999,2381378680
11419,19,Jits_Linear_5,69,9999,9999,9999,2381988952
11419,19,Jits_Linear_5,70,9999,9999,9999,2382608452
11419,19,Jits_Linear_5,71,9999,9999,9999,2383228984
11419,19,Jits_Linear_5,72,9999,9999,9999,2383848544
11419,19,Jits_Linear_5,73,9999,9999,9999,2384469104
11419,19,Jits_Linear_5,74,9999,9999,9999,2385088592
11419,19,Jits_Linear_5,75,9999,9999,9999,2385718344
11419,19,Jits_Linear_5,76,9999,9999,9999,2386348156
11419,19,Jits_Linear_5,77,9999,9999,9999,2386978900
11419,19,Jits_Linear_5,78,9999,9999,9999,2387608652
11419,19,Jits_Linear_5,79,9999,9999,9999,2388238432
11419,19,Jits_Linear_5,80,9999,9999,9999,2388878392
11419,19,Jits_Linear_5,81,9999,9999,9999,2389518392
11419,19,Jits_Linear_5,82,9999,9999,9999,2390158400
11419,19,Jits_Linear_5,83,9999,9999,9999,2390798436
11419,19,Jits_Linear_5,84,9999,9999,9999,2391438416
11419,19,Jits_Linear_5,85,9999,9999,9999,2392088644
11419,19,Jits_Linear_5,86,9999,9999,9999,2392738920
11419,19,Jits_Linear_5,87,9999,9999,9999,2393388136
11419,19,Jits_Linear_5,88,9999,9999,9999,2394038336
11419,19,Jits_Linear_5,89,9999,9999,9999,2394688576
11419,19,Jits_Linear_5,90,9999,9999,9999,2395349120
11419,19,Jits_Linear_5,91,9999,9999,9999,2396008560
11419,19,Jits_Linear_5,92,9999,9999,9999,2396669040
11419,19,Jits_Linear_5,93,9999,9999,9999,2397328460
11419,19,Jits_Linear_5,94,9999,9999,9999,2397988948
11419,19,Jits_Linear_5,95,9999,9999,9999,2398658684
11419,19,Jits_Linear_5,96,9999,9999,9999,2399328376
11419,19,Jits_Linear_5,97,9999,9999,9999,2399999056
11419,19,Jits_Linear_5,98,9999,9999,9999,2400668740
11419,19,Jits_Linear_5,99,9999,9999,9999,2401338448
11419,19,Jits_Linear_5,100,9999,9999,9999,2402018392
11419,19,Jits_Linear_5,101,9999,9999,9999,2402698364
11419,19,Jits_Linear_5,102,9999,9999,9999,2403378268
11419,19,Jits_Linear_5,103,9999,9999,9999,2404058236
11419,19,Jits_Linear_5,104,9999,9999,9999,2404738128
11419,19,Jits_Linear_5,105,9999,9999,9999,2405428288
11419,19,Jits_Linear_5,106,9999,9999,9999,2406118500
11419,19,Jits_Linear_5,107,9999,9999,9999,2406808660
11419,19,Jits_Linear_5,108,9999,9999,9999,2407498816
11419,19,Jits_Linear_5,109,9999,9999,9999,2408189052
11419,19,Jits_Linear_5,110,9999,9999,9999,2408888384
11419,19,Jits_Linear_5,111,9999,9999,9999,2409588804
11419,19,Jits_Linear_5,112,9999,9999,9999,2410288196
11419,19,Jits_Linear_5,113,9999,9999,9999,2410988596
11419,19,Jits_Linear_5,114,9999,9999,9999,2411689084
11419,19,Jits_Linear_5,115,9999,9999,9999,2412398648
11419,19,Jits_Linear_5,116,9999,9999,9999,2413108288
11419,19,Jits_Linear_5,117,9999,9999,9999,2413818976
11419,19,Jits_Linear_5,118,9999,9999,9999,2414528592
11419,19,Jits_Linear_5,119,9999,9999,9999,2415238228
11419,19,Jits_Linear_5,120,9999,9999,9999,2415958128
11419,19,Jits_Linear_5,121,9999,9999,9999,2416679004
11419,19,Jits_Linear_5,122,9999,9999,9999,2417398912
11419,19,Jits_Linear_5,123,9999,9999,9999,2418118712
11419,19,Jits_Linear_5,124,9999,9999,9999,2418838616
11419,19,Jits_Linear_5,125,9999,9999,9999,2419568696
11419,19,Jits_Linear_5,126,9999,9999,9999,2420298868
11419,19,Jits_Linear_5,127,9999,9999,9999,2421028956
11419,19,Jits_Linear_5,128,9999,9999,9999,2421759036
11419,19,Jits_Linear_5,129,9999,9999,9999,2422488136
11419,19,Jits_Linear_5,130,9999,9999,9999,2423228492
11419,19,Jits_Linear_5,131,9999,9999,9999,2423968848
11419,19,Jits_Linear_5,132,9999,9999,9999,2424708148
11419,19,Jits_Linear_5,133,9999,9999,9999,2425448512
11419,19,Jits_Linear_5,134,9999,9999,9999,2426188912
11419,19,Jits_Linear_5,135,9999,9999,9999,2426938480
11419,19,Jits_Linear_5,136,9999,9999,9999,2427689028
11419,19,Jits_Linear_5,137,9999,9999,9999,2428438600
11419,19,Jits_Linear_5,138,9999,9999,9999,2429188172
11419,19,Jits_Linear_5,139,9999,9999,9999,2429938816
11419,19,Jits_Linear_5,140,9999,9999,9999,2430698552
11419,19,Jits_Linear_5,141,9999,9999,9999,2431458388
11419,19,Jits_Linear_5,142,9999,9999,9999,2432218228
11419,19,Jits_Linear_5,143,9999,9999,9999,2432979044
11419,19,Jits_Linear_5,144,9999,9999,9999,2433738876
11419,19,Jits_Linear_5,145,9999,9999,9999,2434508904
11419,19,Jits_Linear_5,146,9999,9999,9999,2435278948
11419,19,Jits_Linear_5,147,9999,9999,9999,2436048972
11419,19,Jits_Linear_5,148,9999,9999,9999,2436818996
11419,19,Jits_Linear_5,149,9999,9999,9999,2437589100
11419,19,Jits_Linear_5,150,9999,9999,9999,2438368348
11419,19,Jits_Linear_5,151,9999,9999,9999,2439148632
11419,19,Jits_Linear_5,152,9999,9999,9999,2439928940
11419,19,Jits_Linear_5,153,9999,9999,9999,2440708160
11419,19,Jits_Linear_5,154,9999,9999,9999,2441488448
11419,19,Jits_Linear_5,155,9999,9999,9999,2442279000
11419,19,Jits_Linear_5,156,9999,9999,9999,2443068496
11419,19,Jits_Linear_5,157,9999,9999,9999,2443859044
11419,19,Jits_Linear_5,158,9999,9999,9999,2444648552
11419,19,Jits_Linear_5,159,9999,9999,9999,2445439032
11419,19,Jits_Linear_5,160,9999,9999,9999,2446238804
11419,19,Jits_Linear_5,161,9999,9999,9999,2447038568
11419,19,Jits_Linear_5,162,9999,9999,9999,2447838316
11419,19,Jits_Linear_5,163,9999,9999,9999,2448639096
11419,19,Jits_Linear_5,164,9999,9999,9999,2449438808
11419,19,Jits_Linear_5,165,9999,9999,9999,2450248772
11419,19,Jits_Linear_5,166,9999,9999,9999,2451058800
11419,19,Jits_Linear_5,167,9999,9999,9999,2451868760
11419,19,Jits_Linear_5,168,9999,9999,9999,2452678724
11419,19,Jits_Linear_5,169,9999,9999,9999,2453488756
11420,3,ISIP_8,0,5,42,127,2528314628
11420,3,ISIP_8,1,5,42,127,2529114680
11420,3,ISIP_8,2,1,48,23,2529345280
11420,3,ISIP_8,3,1,48,23,2529900384
11420,3,ISIP_8,4,5,42,127,2529915156
11420,3,ISIP_8,5,1,48,25,2530641624
11420,3,ISIP_8,6,5,42,127,2530714964
11420,3,ISIP_8,7,1,48,22,2531448316
11420,3,ISIP_8,8,5,42,127,2531514844
11420,3,ISIP_8,9,1,48,20,2532223964
11420,3,ISIP_8,10,5,42,127,2532315832
11420,3,ISIP_8,11,1,48,18,2533002828
11420,3,ISIP_8,12,5,42,127,2533115220
11420,3,ISIP_8,13,1,48,17,2533726496
11420,3,ISIP_8,14,5,42,127,2533914880
11420,3,ISIP_8,15,1,48,18,2534567292
11420,3,ISIP_8,16,5,42,127,2534714612
11420,3,ISIP_8,17,1,48,16,2535363284
11420,3,ISIP_8,18,5,42,127,2535514644
11420,3,ISIP_8,19,1,48,20,2536194456
11420,3,ISIP_8,20,5,42,127,2536315200
11420,3,ISIP_8,21,1,48,19,2536953648
11420,3,ISIP_8,22,5,42,127,2537114932
11420,3,ISIP_8,23,1,48,13,2537806116
11420,3,ISIP_8,24,5,42,127,2537914668
11420,3,ISIP_8,25,5,42,127,2538714572
11420,3,ISIP_8,26,1,48,19,2539402760
11420,3,ISIP_8,27,5,42,127,2539515224
11420,3,ISIP_8,28,1,48,23,2540178636
11420,3,ISIP_8,29,5,42,127,2540314960
11420,3,ISIP_8,30,1,48,26,2541016364
11420,3,ISIP_8,31,5,42,127,2541115212
11420,3,ISIP_8,32,1,48,23,2541770468
11420,3,ISIP_8,33,5,42,127,2541914572
11420,3,ISIP_8,34,1,48,26,2542614284
11420,3,ISIP_8,35,5,42,127,2542715280
11420,3,ISIP_8,36,1,48,21,2543408780
11420,3,ISIP_8,37,5,42,127,2543514864
11420,3,ISIP_8,38,1,48,26,2544215544
11420,3,ISIP_8,39,5,42,127,2544314672
11420,3,ISIP_8,40,1,48,24,2545011088
11420,3,ISIP_8,41,5,42,127,2545114480
11420,3,ISIP_8,42,1,48,22,2545794592
11420,3,ISIP_8,43,5,42,127,2545915360
11420,3,ISIP_8,44,1,48,20,2546582428
11420,3,ISIP_8,45,5,42,127,2546714944
11420,3,ISIP_8,46,1,48,18,2547438964
11420,3,ISIP_8,47,5,42,127,2547514620
11420,3,ISIP_8,48,1,48,19,2548239372
11420,3,ISIP_8,49,5,42,127,2548314428
11420,3,ISIP_8,50,1,48,19,2549007764
11420,3,ISIP_8,51,5,42,127,2549115192
11420,3,ISIP_8,52,1,48,21,2549783712
11420,3,ISIP_8,53,5,42,127,2549914852
11420,3,ISIP_8,54,1,48,23,2550622788
11420,3,ISIP_8,55,5,42,127,2550714748
11420,3,ISIP_8,56,1,48,26,2551435684
11420,3,ISIP_8,57,5,42,127,2551514332
11420,3,ISIP_8,58,1,48,21,2552192484
11420,3,ISIP_8,59,1,48,18,2552968428
11420,3,ISIP_8,60,1,48,17,2553784912
11420,3,ISIP_8,61,1,48,17,2554538712
11420,3,ISIP_8,62,1,48,20,2555313760
11420,3,ISIP_8,63,1,48,18,2556071980
11420,3,ISIP_8,64,1,48,19,2556848372
11420,3,ISIP_8,65,1,48,18,2557624612
11420,3,ISIP_8,66,1,48,17,2558390980
11420,3,ISIP_8,67,1,48,18,2559173204
11420,3,ISIP_8,68,1,48,21,2559955432
11420,3,ISIP_8,69,1,48,21,2560794980
11420,3,ISIP_8,70,1,48,14,2562299836
11420,3,ISIP_8,71,1,48,21,2563049280
11420,3,ISIP_8,72,1,48,21,2563747212
11420,3,ISIP_8,73,1,48,22,2564568776
11420,3,ISIP_8,74,1,48,20,2565289000
11420,3,ISIP_8,75,1,48,20,2566136172
11420,3,ISIP_8,76,1,48,21,2566884044
11420,3,ISIP_8,77,1,48,19,2567680728
11420,3,ISIP_8,78,1,48,21,2568350960
11420,3,ISIP_8,79,1,48,18,2569179708
11420,3,ISIP_8,80,1,48,21,2569893852
11420,3,ISIP_8,81,1,48,20,2570642872
11420,3,ISIP_8,82,1,48,20,2571352988
11420,3,ISIP_8,83,1,48,19,2572165584
11420,3,ISIP_8,84,1,48,16,2572954696
11420,3,ISIP_8,85,1,48,19,2573676480
11420,3,ISIP_8,86,1,48,20,2574383244
11420,3,ISIP_8,87,1,48,19,2575178856
11420,3,ISIP_8,88,1,48,21,2575944476
11420,3,ISIP_8,89,1,48,20,2576644500
11420,3,ISIP_8,90,1,48,19,2577393440
11420,3,ISIP_8,91,1,48,18,2578176936
11420,3,ISIP_8,92,1,48,26,2579015632
11420,3,ISIP_8,93,1,48,19,2579756576
11420,3,ISIP_8,94,1,48,15,2580469768
11420,3,ISIP_8,95,1,48,19,2581285276
11420,3,ISIP_8,96,1,48,20,2582059276
11420,3,ISIP_8,97,1,48,18,2582845764
11420,3,ISIP_8,98,1,48,18,2583621552
11420,3,ISIP_8,99,1,48,21,2584387552
11420,3,ISIP_8,100,1,48,20,2585128936
11420,3,ISIP_8,101,1,48,21,2585833568
11420,3,ISIP_8,102,1,48,17,2586673188
11420,3,ISIP_8,103,1,48,19,2587380764
11420,3,ISIP_8,104,1,48,17,2588150124
11420,3,ISIP_8,105,1,48,17,2588905248
11420,3,ISIP_8,106,1,48,24,2589708744
11420,3,ISIP_8,107,1,48,16,2590490444
11420,3,ISIP_8,108,1,48,17,2591216728
11420,3,ISIP_8,109,1,48,22,2591975520
11420,3,ISIP_8,110,1,48,22,2592643304
11420,3,ISIP_8,111,1,48,17,2593467712
11420,3,ISIP_8,112,1,48,23,2594143052
11420,3,ISIP_8,113,1,48,20,2594943828
11420,3,ISIP_8,114,1,48,20,2595662328
11420,3,ISIP_8,115,1,48,24,2596429296
11420,3,ISIP_8,116,1,48,21,2597203668
11420,3,ISIP_8,117,1,48,23,2597955976
11420,3,ISIP_8,118,1,48,23,2598723540
11420,3,ISIP_8,119,1,48,25,2599476132
11420,3,ISIP_8,120,1,48,23,2600210788
11420,3,ISIP_8,121,1,48,22,2600967660
11420,3,ISIP_8,122,1,48,24,2601726920
11420,3,ISIP_8,123,1,48,21,2602506384
11420,3,ISIP_8,124,1,48,22,2603201364
11420,3,ISIP_8,125,1,48,24,2603968560
11420,3,ISIP_8,126,1,48,16,2604722664
11420,3,ISIP_8,127,1,48,21,2605538400
11420,3,ISIP_8,128,1,48,25,2606333364
11420,3,ISIP_8,129,1,48,20,2607119032
11420,3,ISIP_8,130,1,48,23,2607841844
11420,3,ISIP_8,131,1,48,25,2608669420
11420,3,ISIP_8,132,1,48,26,2609397640
11420,3,ISIP_8,133,1,48,21,2610198648
11420,3,ISIP_8,134,1,48,23,2610960000
11420,3,ISIP_8,135,1,48,21,2611730036
11420,3,ISIP_8,136,1,48,17,2612561480
11420,3,ISIP_8,137,1,48,23,2613298532
11420,3,ISIP_8,138,1,48,32,2614133560
11420,3,ISIP_8,139,1,48,23,2614861408
11420,3,ISIP_8,140,1,48,20,2615623440
11420,3,ISIP_8,141,1,48,16,2616377620
11420,3,ISIP_8,142,1,48,21,2617020536
11420,3,ISIP_8,143,1,48,19,2617853052
11420,3,ISIP_8,144,1,48,22,2618582592
11420,3,ISIP_8,145,1,48,23,2619357112
11420,3,ISIP_8,146,1,48,17,2620088628
11420,3,ISIP_8,147,1,48,22,2620835476
11420,3,ISIP_8,148,1,48,21,2621570800
11420,3,ISIP_8,149,1,48,24,2622313688
11420,3,ISIP_8,150,1,48,17,2623098156
11420,3,ISIP_8,151,1,48,18,2623816428
11420,3,ISIP_8,152,1,48,20,2624566120
11420,3,ISIP_8,153,1,48,17,2625288288
11420,3,ISIP_8,154,1,48,22,2626030720
11420,3,ISIP_8,155,1,48,24,2626885800
11420,3,ISIP_8,156,1,48,23,2627691588
11420,3,ISIP_8,157,1,48,16,2628446808
11420,3,ISIP_8,158,1,48,26,2629168824
11420,3,ISIP_8,159,1,48,21,2629957184
11420,3,ISIP_8,160,1,48,27,2630661312
11420,3,ISIP_8,161,1,48,20,2631453112
11420,3,ISIP_8,162,1,48,27,2632163056
11420,3,ISIP_8,163,1,48,15,2632961540
11420,3,ISIP_8,164,1,48,24,2633669240
11420,3,ISIP_8,165,1,48,16,2634443916
11420,3,ISIP_8,166,1,48,19,2635149172
11420,3,ISIP_8,167,1,48,22,2635940372
11420,3,ISIP_8,168,1,48,18,2636653788
11420,3,ISIP_8,169,1,48,22,2637446708
11420,3,ISIP_8,170,1,48,25,2638230204
11420,3,ISIP_8,171,1,48,16,2639128092
11420,3,ISIP_8,172,1,48,27,2639882500
11420,3,ISIP_8,173,1,48,13,2640654028
11420,3,ISIP_8,174,1,48,17,2641414640
11420,3,ISIP_8,175,1,48,17,2642147320
11420,3,ISIP_8,176,1,48,19,2642890132
11420,3,ISIP_8,177,1,48,21,2643622688
11420,3,ISIP_8,178,1,48,28,2645057904
11420,3,ISIP_8,179,1,48,22,2645772284
11420,3,ISIP_8,180,1,48,18,2646526908
11420,3,ISIP_8,181,1,48,21,2647239856
11420,3,ISIP_8,182,1,48,28,2648008388
11420,3,ISIP_8,0,9999,9999,9999,2528312412
11420,3,ISIP_8,1,9999,9999,9999,2529112164
11420,3,ISIP_8,2,9999,9999,9999,2529912940
11420,3,ISIP_8,3,9999,9999,9999,2530712672
11420,3,ISIP_8,4,9999,9999,9999,2531512408
11420,3,ISIP_8,5,9999,9999,9999,2532312140
11420,3,ISIP_8,6,9999,9999,9999,2533112928
11420,3,ISIP_8,7,9999,9999,9999,2533912664
11420,3,ISIP_8,8,9999,9999,9999,2534712396
11420,3,ISIP_8,9,9999,9999,9999,2535512132
11420,3,ISIP_8,10,9999,9999,9999,2536312908
11420,3,ISIP_8,11,9999,9999,9999,2537112644
11420,3,ISIP_8,12,9999,9999,9999,2537912376
11420,3,ISIP_8,13,9999,9999,9999,2538712132
11420,3,ISIP_8,14,9999,9999,9999,2539512936
11420,3,ISIP_8,15,9999,9999,9999,2540312668
11420,3,ISIP_8,16,9999,9999,9999,2541112416
11420,3,ISIP_8,17,9999,9999,9999,2541912136
11420,3,ISIP_8,18,9999,9999,9999,2542712916
11420,3,ISIP_8,19,9999,9999,9999,2543512648
11420,3,ISIP_8,20,9999,9999,9999,2544312384
11420,3,ISIP_8,21,9999,9999,9999,2545112116
11420,3,ISIP_8,22,9999,9999,9999,2545912920
11420,3,ISIP_8,23,9999,9999,9999,2546712656
11420,3,ISIP_8,24,9999,9999,9999,2547512404
11420,3,ISIP_8,25,9999,9999,9999,2548312136
11420,3,ISIP_8,26,9999,9999,9999,2549112900
11420,3,ISIP_8,27,9999,9999,9999,2549912636
11420,3,ISIP_8,28,9999,9999,9999,2550712384
11420,3,ISIP_8,29,9999,9999,9999,2551512116
11420,3,ISIP_8,30,9999,9999,9999,2552312908
11420,3,ISIP_8,31,9999,9999,9999,2553112636
11420,3,ISIP_8,32,9999,9999,9999,2553912440
11420,3,ISIP_8,33,9999,9999,9999,2554712168
11420,3,ISIP_8,34,9999,9999,9999,2555512944
11420,3,ISIP_8,35,9999,9999,9999,2556312676
11420,3,ISIP_8,36,9999,9999,9999,2557112404
11420,3,ISIP_8,37,9999,9999,9999,2557912132
11420,3,ISIP_8,38,9999,9999,9999,2558712932
11420,3,ISIP_8,39,9999,9999,9999,2559512664
11420,3,ISIP_8,40,9999,9999,9999,2560312392
11420,3,ISIP_8,41,9999,9999,9999,2561112120
11420,3,ISIP_8,42,9999,9999,9999,2561912916
11420,3,ISIP_8,43,9999,9999,9999,2562712648
11420,3,ISIP_8,44,9999,9999,9999,2563512376
11420,3,ISIP_8,45,9999,9999,9999,2564312180
11420,3,ISIP_8,46,9999,9999,9999,2565112904
11420,3,ISIP_8,47,9999,9999,9999,2565912636
11420,3,ISIP_8,48,9999,9999,9999,2566712436
11420,3,ISIP_8,49,9999,9999,9999,2567512168
11420,3,ISIP_8,50,9999,9999,9999,2568312944
11420,3,ISIP_8,51,9999,9999,9999,2569112672
11420,3,ISIP_8,52,9999,9999,9999,2569912392
11420,3,ISIP_8,53,9999,9999,9999,2570712120
11420,3,ISIP_8,54,9999,9999,9999,2571512908
11420,3,ISIP_8,55,9999,9999,9999,2572312636
11420,3,ISIP_8,56,9999,9999,9999,2573112440
11420,3,ISIP_8,57,9999,9999,9999,2573912172
11420,3,ISIP_8,58,9999,9999,9999,2574712944
11420,3,ISIP_8,59,9999,9999,9999,2575512676
11420,3,ISIP_8,60,9999,9999,9999,2576312404
11420,3,ISIP_8,61,9999,9999,9999,2577112132
11420,3,ISIP_8,62,9999,9999,9999,2577912932
11420,3,ISIP_8,63,9999,9999,9999,2578712660
11420,3,ISIP_8,64,9999,9999,9999,2579512392
11420,3,ISIP_8,65,9999,9999,9999,2580312120
11420,3,ISIP_8,66,9999,9999,9999,2581112900
11420,3,ISIP_8,67,9999,9999,9999,2581912628
11420,3,ISIP_8,68,9999,9999,9999,2582712432
11420,3,ISIP_8,69,9999,9999,9999,2583512160
11420,3,ISIP_8,70,9999,9999,9999,2584312888
11420,3,ISIP_8,71,9999,9999,9999,2585112692
11420,3,ISIP_8,72,9999,9999,9999,2585912416
11420,3,ISIP_8,73,9999,9999,9999,2586712144
11420,3,ISIP_8,74,9999,9999,9999,2587512904
11420,3,ISIP_8,75,9999,9999,9999,2588312632
11420,3,ISIP_8,76,9999,9999,9999,2589112436
11420,3,ISIP_8,77,9999,9999,9999,2589912168
11420,3,ISIP_8,78,9999,9999,9999,2590712892
11420,3,ISIP_8,79,9999,9999,9999,2591512624
11420,3,ISIP_8,80,9999,9999,9999,2592312428
11420,3,ISIP_8,81,9999,9999,9999,2593112156
11420,3,ISIP_8,82,9999,9999,9999,2593912932
11420,3,ISIP_8,83,9999,9999,9999,2594712660
11420,3,ISIP_8,84,9999,9999,9999,2595512392
11420,3,ISIP_8,85,9999,9999,9999,2596312120
11420,3,ISIP_8,86,9999,9999,9999,2597112920
11420,3,ISIP_8,87,9999,9999,9999,2597912648
11420,3,ISIP_8,88,9999,9999,9999,2598712380
11420,3,ISIP_8,89,9999,9999,9999,2599512176
11420,3,ISIP_8,90,9999,9999,9999,2600312936
11420,3,ISIP_8,91,9999,9999,9999,2601112664
11420,3,ISIP_8,92,9999,9999,9999,2601912396
11420,3,ISIP_8,93,9999,9999,9999,2602712124
11420,3,ISIP_8,94,9999,9999,9999,2603512924
11420,3,ISIP_8,95,9999,9999,9999,2604312652
11420,3,ISIP_8,96,9999,9999,9999,2605112380
11420,3,ISIP_8,97,9999,9999,9999,2605912184
11420,3,ISIP_8,98,9999,9999,9999,2606712884
11420,3,ISIP_8,99,9999,9999,9999,2607512692
11420,3,ISIP_8,100,9999,9999,9999,2608312420
11420,3,ISIP_8,101,9999,9999,9999,2609112148
11420,3,ISIP_8,102,9999,9999,9999,2609912948
11420,3,ISIP_8,103,9999,9999,9999,2610712676
11420,3,ISIP_8,104,9999,9999,9999,2611512408
11420,3,ISIP_8,105,9999,9999,9999,2612312136
11420,3,ISIP_8,106,9999,9999,9999,2613112912
11420,3,ISIP_8,107,9999,9999,9999,2613912640
11420,3,ISIP_8,108,9999,9999,9999,2614712372
11420,3,ISIP_8,109,9999,9999,9999,2615512176
11420,3,ISIP_8,110,9999,9999,9999,2616312900
11420,3,ISIP_8,111,9999,9999,9999,2617112684
11420,3,ISIP_8,112,9999,9999,9999,2617912428
11420,3,ISIP_8,113,9999,9999,9999,2618712140
11420,3,ISIP_8,114,9999,9999,9999,2619512916
11420,3,ISIP_8,115,9999,9999,9999,2620312648
11420,3,ISIP_8,116,9999,9999,9999,2621112376
11420,3,ISIP_8,117,9999,9999,9999,2621912180
11420,3,ISIP_8,118,9999,9999,9999,2622712904
11420,3,ISIP_8,119,9999,9999,9999,2623512636
11420,3,ISIP_8,120,9999,9999,9999,2624312440
11420,3,ISIP_8,121,9999,9999,9999,2625112168
11420,3,ISIP_8,122,9999,9999,9999,2625912944
11420,3,ISIP_8,123,9999,9999,9999,2626712672
11420,3,ISIP_8,124,9999,9999,9999,2627512400
11420,3,ISIP_8,125,9999,9999,9999,2628312132
11420,3,ISIP_8,126,9999,9999,9999,2629112932
11420,3,ISIP_8,127,9999,9999,9999,2629912664
11420,3,ISIP_8,128,9999,9999,9999,2630712388
11420,3,ISIP_8,129,9999,9999,9999,2631512116
11420,3,ISIP_8,130,9999,9999,9999,2632312948
11420,3,ISIP_8,131,9999,9999,9999,2633112680
11420,3,ISIP_8,132,9999,9999,9999,2633912408
11420,3,ISIP_8,133,9999,9999,9999,2634712136
11420,3,ISIP_8,134,9999,9999,9999,2635512936
11420,3,ISIP_8,135,9999,9999,9999,2636312664
11420,3,ISIP_8,136,9999,9999,9999,2637112396
11420,3,ISIP_8,137,9999,9999,9999,2637912124
11420,3,ISIP_8,138,9999,9999,9999,2638712900
11420,3,ISIP_8,139,9999,9999,9999,2639512628
11420,3,ISIP_8,140,9999,9999,9999,2640312432
11420,3,ISIP_8,141,9999,9999,9999,2641112164
11420,3,ISIP_8,142,9999,9999,9999,2641912888
11420,3,ISIP_8,143,9999,9999,9999,2642712692
11420,3,ISIP_8,144,9999,9999,9999,2643512420
11420,3,ISIP_8,145,9999,9999,9999,2644312152
11420,3,ISIP_8,146,9999,9999,9999,2645112944
11420,3,ISIP_8,147,9999,9999,9999,2645912656
11420,3,ISIP_8,148,9999,9999,9999,2646712384
11420,3,ISIP_8,149,9999,9999,9999,2647512116
11421,5,ISIP_5,0,5,42,127,2682089920
11421,5,ISIP_5,1,5,42,127,2682589536
11421,5,ISIP_5,2,5,42,127,2683090452
11421,5,ISIP_5,3,1,48,25,2683097312
11421,5,ISIP_5,4,1,48,20,2683566020
11421,5,ISIP_5,5,5,42,127,2683590288
11421,5,ISIP_5,6,1,48,21,2684059428
11421,5,ISIP_5,7,5,42,127,2684089608
11421,5,ISIP_5,8,1,48,19,2684560400
11421,5,ISIP_5,9,5,42,127,2684589304
11421,5,ISIP_5,10,1,48,19,2685052164
11421,5,ISIP_5,11,5,42,127,2685090344
11421,5,ISIP_5,12,1,48,14,2685561956
11421,5,ISIP_5,13,5,42,127,2685589740
11421,5,ISIP_5,14,1,48,18,2686068680
11421,5,ISIP_5,15,5,42,127,2686089660
11421,5,ISIP_5,16,1,48,14,2686545860
11421,5,ISIP_5,17,5,42,127,2686590400
11421,5,ISIP_5,18,1,48,18,2687042644
11421,5,ISIP_5,19,5,42,127,2687090320
11421,5,ISIP_5,20,1,48,21,2687519224
11421,5,ISIP_5,21,5,42,127,2687589720
11421,5,ISIP_5,22,1,48,16,2688007476
11421,5,ISIP_5,23,5,42,127,2688089412
11421,5,ISIP_5,24,1,48,17,2688520932
11421,5,ISIP_5,25,5,42,127,2688590452
11421,5,ISIP_5,26,1,48,19,2689034540
11421,5,ISIP_5,27,5,42,127,2689089848
11421,5,ISIP_5,28,1,48,18,2689533116
11421,5,ISIP_5,29,5,42,127,2689589544
11421,5,ISIP_5,30,1,48,18,2690002712
11421,5,ISIP_5,31,5,42,127,2690090288
11421,5,ISIP_5,32,1,48,15,2690506224
11421,5,ISIP_5,33,5,42,127,2690590276
11421,5,ISIP_5,34,1,48,17,2691009060
11421,5,ISIP_5,35,5,42,127,2691089676
11421,5,ISIP_5,36,1,48,16,2691531716
11421,5,ISIP_5,37,5,42,127,2691589372
11421,5,ISIP_5,38,5,42,127,2692090340
11421,5,ISIP_5,39,1,48,15,2692502256
11421,5,ISIP_5,40,5,42,127,2692590128
11421,5,ISIP_5,41,1,48,17,2693016088
11421,5,ISIP_5,42,5,42,127,2693089500
11421,5,ISIP_5,43,1,48,16,2693520268
11421,5,ISIP_5,44,5,42,127,2693590316
11421,5,ISIP_5,45,5,42,127,2694090240
11421,5,ISIP_5,46,1,48,17,2694498812
11421,5,ISIP_5,47,5,42,127,2694590024
11421,5,ISIP_5,48,1,48,17,2694967240
11421,5,ISIP_5,49,5,42,127,2695089408
11421,5,ISIP_5,50,1,48,21,2695510912
11421,5,ISIP_5,51,5,42,127,2695590164
11421,5,ISIP_5,52,1,48,21,2696050704
11421,5,ISIP_5,53,5,42,127,2696090228
11421,5,ISIP_5,54,1,48,23,2696535512
11421,5,ISIP_5,55,5,42,127,2696589628
11421,5,ISIP_5,56,1,48,21,2697053160
11421,5,ISIP_5,57,5,42,127,2697090368
11421,5,ISIP_5,58,1,48,19,2697520396
11421,5,ISIP_5,59,5,42,127,2697590216
11421,5,ISIP_5,60,1,48,23,2698038640
11421,5,ISIP_5,61,5,42,127,2698089912
11421,5,ISIP_5,62,1,48,19,2698547156
11421,5,ISIP_5,63,5,42,127,2698589528
11421,5,ISIP_5,64,1,48,21,2699028452
11421,5,ISIP_5,65,5,42,127,2699090272
11421,5,ISIP_5,66,1,48,21,2699553884
11421,5,ISIP_5,67,5,42,127,2699590116
11421,5,ISIP_5,68,1,48,19,2700078112
11421,5,ISIP_5,69,5,42,127,2700089588
11421,5,ISIP_5,70,1,48,23,2700583192
11421,5,ISIP_5,71,5,42,127,2700589432
11421,5,ISIP_5,72,1,48,21,2701048932
11421,5,ISIP_5,73,5,42,127,2701090024
11421,5,ISIP_5,74,1,48,19,2701559844
11421,5,ISIP_5,75,5,42,127,2701589944
11421,5,ISIP_5,76,1,48,19,2702067540
11421,5,ISIP_5,77,1,48,22,2702555088
11421,5,ISIP_5,78,1,48,17,2703041388
11421,5,ISIP_5,79,1,48,26,2703517516
11421,5,ISIP_5,80,1,48,23,2704010332
11421,5,ISIP_5,81,1,48,18,2704469108
11421,5,ISIP_5,82,1,48,23,2704988544
11421,5,ISIP_5,83,1,48,18,2705496092
11421,5,ISIP_5,84,1,48,19,2706024652
11421,5,ISIP_5,85,1,48,24,2706548644
11421,5,ISIP_5,86,1,48,21,2707024556
11421,5,ISIP_5,87,1,48,19,2707534048
11421,5,ISIP_5,88,1,48,21,2708038220
11421,5,ISIP_5,89,1,48,16,2708515768
11421,5,ISIP_5,90,1,48,22,2709001996
11421,5,ISIP_5,91,1,48,20,2709497796
11421,5,ISIP_5,92,1,48,16,2709989336
11421,5,ISIP_5,93,1,48,24,2710473444
11421,5,ISIP_5,94,1,48,22,2710968272
11421,5,ISIP_5,95,1,48,20,2711411416
11421,5,ISIP_5,96,1,48,23,2711908336
11421,5,ISIP_5,97,1,48,19,2712446924
11421,5,ISIP_5,98,1,48,24,2712902788
11421,5,ISIP_5,99,1,48,20,2713379288
11421,5,ISIP_5,100,1,48,21,2713876060
11421,5,ISIP_5,101,1,48,22,2714380088
11421,5,ISIP_5,102,1,48,19,2714847520
11421,5,ISIP_5,103,1,48,19,2715375884
11421,5,ISIP_5,104,1,48,24,2715847200
11421,5,ISIP_5,105,1,48,20,2716322132
11421,5,ISIP_5,106,1,48,22,2716831616
11421,5,ISIP_5,107,1,48,20,2717356888
11421,5,ISIP_5,108,1,48,13,2717818504
11421,5,ISIP_5,109,1,48,27,2718324036
11421,5,ISIP_5,110,1,48,22,2718812580
11421,5,ISIP_5,111,1,48,27,2719306580
11421,5,ISIP_5,112,1,48,20,2719828044
11421,5,ISIP_5,113,1,48,19,2720278592
11421,5,ISIP_5,114,1,48,23,2720766908
11421,5,ISIP_5,115,1,48,19,2721292708
11421,5,ISIP_5,116,1,48,21,2721740092
11421,5,ISIP_5,117,1,48,21,2722247936
11421,5,ISIP_5,118,1,48,21,2722713292
11421,5,ISIP_5,119,1,48,21,2723168480
11421,5,ISIP_5,120,1,48,21,2723694948
11421,5,ISIP_5,121,1,48,20,2724155892
11421,5,ISIP_5,122,1,48,21,2724644584
11421,5,ISIP_5,123,1,48,22,2725125952
11421,5,ISIP_5,124,1,48,19,2725620032
11421,5,ISIP_5,125,1,48,23,2726097408
11421,5,ISIP_5,126,1,48,21,2726564472
11421,5,ISIP_5,127,1,48,22,2727001112
11421,5,ISIP_5,128,1,48,22,2727487860
11421,5,ISIP_5,129,1,48,18,2727984336
11421,5,ISIP_5,130,1,48,30,2728428520
11421,5,ISIP_5,131,1,48,17,2728881664
11421,5,ISIP_5,132,1,48,18,2729351136
11421,5,ISIP_5,133,1,48,27,2729859652
11421,5,ISIP_5,134,1,48,19,2730313640
11421,5,ISIP_5,135,1,48,21,2730784612
11421,5,ISIP_5,136,1,48,20,2731250640
11421,5,ISIP_5,137,1,48,21,2731696828
11421,5,ISIP_5,138,1,48,25,2732159344
11421,5,ISIP_5,139,1,48,28,2732650808
11421,5,ISIP_5,140,1,48,20,2733099116
11421,5,ISIP_5,141,1,48,17,2733581956
11421,5,ISIP_5,142,1,48,14,2734082548
11421,5,ISIP_5,143,1,48,25,2734526640
11421,5,ISIP_5,144,1,48,23,2734954900
11421,5,ISIP_5,145,1,48,20,2735465512
11421,5,ISIP_5,146,1,48,19,2735911864
11421,5,ISIP_5,147,1,48,26,2736378052
11421,5,ISIP_5,148,1,48,24,2736896736
11421,5,ISIP_5,149,1,48,16,2737329084
11421,5,ISIP_5,150,1,48,27,2737840520
11421,5,ISIP_5,151,1,48,21,2738323832
11421,5,ISIP_5,152,1,48,25,2738821048
11421,5,ISIP_5,153,1,48,23,2739316780
11421,5,ISIP_5,154,1,48,23,2739785128
11421,5,ISIP_5,155,1,48,33,2740689512
11421,5,ISIP_5,156,1,48,24,2741135796
11421,5,ISIP_5,157,1,48,20,2741615068
11421,5,ISIP_5,158,1,48,22,2742078388
11421,5,ISIP_5,159,1,48,26,2742574716
11421,5,ISIP_5,160,1,48,19,2742986716
11421,5,ISIP_5,161,1,48,27,2743491416
11421,5,ISIP_5,162,1,48,18,2743963664
11421,5,ISIP_5,163,1,48,19,2744449512
11421,5,ISIP_5,164,1,48,24,2744926088
11421,5,ISIP_5,165,1,48,25,2745391524
11421,5,ISIP_5,166,1,48,25,2745839376
11421,5,ISIP_5,167,1,48,22,2746376692
11421,5,ISIP_5,168,1,48,22,2746791536
11421,5,ISIP_5,169,1,48,27,2747342988
11421,5,ISIP_5,170,1,48,26,2747834604
11421,5,ISIP_5,171,1,48,26,2748286940
11421,5,ISIP_5,172,1,48,32,2748799348
11421,5,ISIP_5,173,1,48,20,2749281836
11421,5,ISIP_5,174,1,48,25,2749728048
11421,5,ISIP_5,175,1,48,23,2750235968
11421,5,ISIP_5,176,1,48,21,2750717332
11421,5,ISIP_5,177,1,48,25,2751233104
11421,5,ISIP_5,178,1,48,25,2751674052
11421,5,ISIP_5,179,1,48,15,2752191464
11421,5,ISIP_5,180,1,48,21,2752694076
11421,5,ISIP_5,181,1,48,23,2753153824
11421,5,ISIP_5,182,1,48,25,2753598764
11421,5,ISIP_5,183,1,48,26,2754069796
11421,5,ISIP_5,184,1,48,21,2754608768
11421,5,ISIP_5,185,1,48,24,2755023000
11421,5,ISIP_5,186,1,48,20,2755542512
11421,5,ISIP_5,187,1,48,22,2756037560
11421,5,ISIP_5,188,1,48,21,2756501348
11421,5,ISIP_5,189,1,48,23,2756990124
11421,5,ISIP_5,190,1,48,24,2757497292
11421,5,ISIP_5,191,1,48,25,2757919644
11421,5,ISIP_5,192,1,48,21,2758436092
11421,5,ISIP_5,193,1,48,26,2758929724
11421,5,ISIP_5,194,1,48,23,2759404880
11421,5,ISIP_5,195,1,48,26,2759914744
11421,5,ISIP_5,196,1,48,20,2760388156
11421,5,ISIP_5,197,1,48,20,2760836236
11421,5,ISIP_5,198,1,48,25,2761278932
11421,5,ISIP_5,199,1,48,22,2761808092
11421,5,ISIP_5,0,9999,9999,9999,2682087484
11421,5,ISIP_5,1,9999,9999,9999,2682587248
11421,5,ISIP_5,2,9999,9999,9999,2683087940
11421,5,ISIP_5,3,9999,9999,9999,2683587704
11421,5,ISIP_5,4,9999,9999,9999,2684087396
11421,5,ISIP_5,5,9999,9999,9999,2684587092
11421,5,ISIP_5,6,9999,9999,9999,2685087832
11421,5,ISIP_5,7,9999,9999,9999,2685587528
11421,5,ISIP_5,8,9999,9999,9999,2686087224
11421,5,ISIP_5,9,9999,9999,9999,2686587964
11421,5,ISIP_5,10,9999,9999,9999,2687087736
11421,5,ISIP_5,11,9999,9999,9999,2687587432
11421,5,ISIP_5,12,9999,9999,9999,2688087124
11421,5,ISIP_5,13,9999,9999,9999,2688587868
11421,5,ISIP_5,14,9999,9999,9999,2689087560
11421,5,ISIP_5,15,9999,9999,9999,2689587256
11421,5,ISIP_5,16,9999,9999,9999,2690088000
11421,5,ISIP_5,17,9999,9999,9999,2690587768
11421,5,ISIP_5,18,9999,9999,9999,2691087464
11421,5,ISIP_5,19,9999,9999,9999,2691587160
11421,5,ISIP_5,20,9999,9999,9999,2692087904
11421,5,ISIP_5,21,9999,9999,9999,2692587616
11421,5,ISIP_5,22,9999,9999,9999,2693087284
11421,5,ISIP_5,23,9999,9999,9999,2693588028
11421,5,ISIP_5,24,9999,9999,9999,2694087728
11421,5,ISIP_5,25,9999,9999,9999,2694587512
11421,5,ISIP_5,26,9999,9999,9999,2695087192
11421,5,ISIP_5,27,9999,9999,9999,2695587948
11421,5,ISIP_5,28,9999,9999,9999,2696087644
11421,5,ISIP_5,29,9999,9999,9999,2696587340
11421,5,ISIP_5,30,9999,9999,9999,2697088084
11421,5,ISIP_5,31,9999,9999,9999,2697587776
11421,5,ISIP_5,32,9999,9999,9999,2698087476
11421,5,ISIP_5,33,9999,9999,9999,2698587244
11421,5,ISIP_5,34,9999,9999,9999,2699087984
11421,5,ISIP_5,35,9999,9999,9999,2699587680
11421,5,ISIP_5,36,9999,9999,9999,2700087376
11421,5,ISIP_5,37,9999,9999,9999,2700587072
11421,5,ISIP_5,38,9999,9999,9999,2701087812
11421,5,ISIP_5,39,9999,9999,9999,2701587508
11421,5,ISIP_5,40,9999,9999,9999,2702087280
11421,5,ISIP_5,41,9999,9999,9999,2702588016
11421,5,ISIP_5,42,9999,9999,9999,2703087708
11421,5,ISIP_5,43,9999,9999,9999,2703587448
11421,5,ISIP_5,44,9999,9999,9999,2704087136
11421,5,ISIP_5,45,9999,9999,9999,2704587860
11421,5,ISIP_5,46,9999,9999,9999,2705087552
11421,5,ISIP_5,47,9999,9999,9999,2705587256
11421,5,ISIP_5,48,9999,9999,9999,2706087996
11421,5,ISIP_5,49,9999,9999,9999,2706587760
11421,5,ISIP_5,50,9999,9999,9999,2707087452
11421,5,ISIP_5,51,9999,9999,9999,2707587140
11421,5,ISIP_5,52,9999,9999,9999,2708087876
11421,5,ISIP_5,53,9999,9999,9999,2708587568
11421,5,ISIP_5,54,9999,9999,9999,2709087332
11421,5,ISIP_5,55,9999,9999,9999,2709588072
11421,5,ISIP_5,56,9999,9999,9999,2710087796
11421,5,ISIP_5,57,9999,9999,9999,2710587512
11421,5,ISIP_5,58,9999,9999,9999,2711087204
11421,5,ISIP_5,59,9999,9999,9999,2711587940
11421,5,ISIP_5,60,9999,9999,9999,2712087628
11421,5,ISIP_5,61,9999,9999,9999,2712587320
11421,5,ISIP_5,62,9999,9999,9999,2713088060
11421,5,ISIP_5,63,9999,9999,9999,2713587824
11421,5,ISIP_5,64,9999,9999,9999,2714087516
11421,5,ISIP_5,65,9999,9999,9999,2714587256
11421,5,ISIP_5,66,9999,9999,9999,2715087992
11421,5,ISIP_5,67,9999,9999,9999,2715587684
11421,5,ISIP_5,68,9999,9999,9999,2716087376
11421,5,ISIP_5,69,9999,9999,9999,2716587064
11421,5,ISIP_5,70,9999,9999,9999,2717087800
11421,5,ISIP_5,71,9999,9999,9999,2717587564
11421,5,ISIP_5,72,9999,9999,9999,2718087256
11421,5,ISIP_5,73,9999,9999,9999,2718587992
11421,5,ISIP_5,74,9999,9999,9999,2719087684
11421,5,ISIP_5,75,9999,9999,9999,2719587376
11421,5,ISIP_5,76,9999,9999,9999,2720087140
11421,5,ISIP_5,77,9999,9999,9999,2720587876
11421,5,ISIP_5,78,9999,9999,9999,2721087568
11421,5,ISIP_5,79,9999,9999,9999,2721587260
11421,5,ISIP_5,80,9999,9999,9999,2722088000
11421,5,ISIP_5,81,9999,9999,9999,2722587764
11421,5,ISIP_5,82,9999,9999,9999,2723087456
11421,5,ISIP_5,83,9999,9999,9999,2723587144
11421,5,ISIP_5,84,9999,9999,9999,2724087880
11421,5,ISIP_5,85,9999,9999,9999,2724587576
11421,5,ISIP_5,86,9999,9999,9999,2725087312
11421,5,ISIP_5,87,9999,9999,9999,2725588052
11421,5,ISIP_5,88,9999,9999,9999,2726087744
11421,5,ISIP_5,89,9999,9999,9999,2726587500
11421,5,ISIP_5,90,9999,9999,9999,2727087192
11421,5,ISIP_5,91,9999,9999,9999,2727587916
11421,5,ISIP_5,92,9999,9999,9999,2728087604
11421,5,ISIP_5,93,9999,9999,9999,2728587372
11421,5,ISIP_5,94,9999,9999,9999,2729088108
11421,5,ISIP_5,95,9999,9999,9999,2729587796
11421,5,ISIP_5,96,9999,9999,9999,2730087488
11421,5,ISIP_5,97,9999,9999,9999,2730587252
11421,5,ISIP_5,98,9999,9999,9999,2731087992
11421,5,ISIP_5,99,9999,9999,9999,2731587684
11421,5,ISIP_5,100,9999,9999,9999,2732087372
11421,5,ISIP_5,101,9999,9999,9999,2732587064
11421,5,ISIP_5,102,9999,9999,9999,2733087800
11421,5,ISIP_5,103,9999,9999,9999,2733587560
11421,5,ISIP_5,104,9999,9999,9999,2734087252
11421,5,ISIP_5,105,9999,9999,9999,2734587988
11421,5,ISIP_5,106,9999,9999,9999,2735087664
11421,5,ISIP_5,107,9999,9999,9999,2735587428
11421,5,ISIP_5,108,9999,9999,9999,2736087096
11421,5,ISIP_5,109,9999,9999,9999,2736587832
11421,5,ISIP_5,110,9999,9999,9999,2737087596
11421,5,ISIP_5,111,9999,9999,9999,2737587288
11421,5,ISIP_5,112,9999,9999,9999,2738088024
11421,5,ISIP_5,113,9999,9999,9999,2738587712
11421,5,ISIP_5,114,9999,9999,9999,2739087480
11421,5,ISIP_5,115,9999,9999,9999,2739587172
11421,5,ISIP_5,116,9999,9999,9999,2740087908
11421,5,ISIP_5,117,9999,9999,9999,2740587620
11421,5,ISIP_5,118,9999,9999,9999,2741087312
11421,5,ISIP_5,119,9999,9999,9999,2741588048
11421,5,ISIP_5,120,9999,9999,9999,2742087732
11421,5,ISIP_5,121,9999,9999,9999,2742587496
11421,5,ISIP_5,122,9999,9999,9999,2743087172
11421,5,ISIP_5,123,9999,9999,9999,2743587908
11421,5,ISIP_5,124,9999,9999,9999,2744087672
11421,5,ISIP_5,125,9999,9999,9999,2744587364
11421,5,ISIP_5,126,9999,9999,9999,2745088104
11421,5,ISIP_5,127,9999,9999,9999,2745587792
11421,5,ISIP_5,128,9999,9999,9999,2746087484
11421,5,ISIP_5,129,9999,9999,9999,2746587224
11421,5,ISIP_5,130,9999,9999,9999,2747087960
11421,5,ISIP_5,131,9999,9999,9999,2747587652
11421,5,ISIP_5,132,9999,9999,9999,2748087416
11421,5,ISIP_5,133,9999,9999,9999,2748587108
11421,5,ISIP_5,134,9999,9999,9999,2749087844
11421,5,ISIP_5,135,9999,9999,9999,2749587536
11421,5,ISIP_5,136,9999,9999,9999,2750087228
11421,5,ISIP_5,137,9999,9999,9999,2750587964
11421,5,ISIP_5,138,9999,9999,9999,2751087728
11421,5,ISIP_5,139,9999,9999,9999,2751587420
11421,5,ISIP_5,140,9999,9999,9999,2752087108
11421,5,ISIP_5,141,9999,9999,9999,2752587848
11421,5,ISIP_5,142,9999,9999,9999,2753087536
11421,5,ISIP_5,143,9999,9999,9999,2753587300
11421,5,ISIP_5,144,9999,9999,9999,2754088036
11421,5,ISIP_5,145,9999,9999,9999,2754587732
11421,5,ISIP_5,146,9999,9999,9999,2755087416
11421,5,ISIP_5,147,9999,9999,9999,2755587180
11421,5,ISIP_5,148,9999,9999,9999,2756087920
11421,5,ISIP_5,149,9999,9999,9999,2756587608
11421,5,ISIP_5,150,9999,9999,9999,2757087336
11421,5,ISIP_5,151,9999,9999,9999,2757588088
11421,5,ISIP_5,152,9999,9999,9999,2758087764
11421,5,ISIP_5,153,9999,9999,9999,2758587456
11421,5,ISIP_5,154,9999,9999,9999,2759087224
11421,5,ISIP_5,155,9999,9999,9999,2759587960
11421,5,ISIP_5,156,9999,9999,9999,2760087652
11421,5,ISIP_5,157,9999,9999,9999,2760587340
11421,5,ISIP_5,158,9999,9999,9999,2761088080
11421,5,ISIP_5,159,9999,9999,9999,2761587768
11422,11,Pattern_Practice,0,1,38,26,2862351964
11422,11,Pattern_Practice,1,5,42,127,2862682392
11422,11,Pattern_Practice,2,5,42,127,2863183452
11422,11,Pattern_Practice,3,5,42,127,2863682800
11422,11,Pattern_Practice,4,5,42,127,2864182516
11422,11,Pattern_Practice,5,5,42,127,2864683504
11422,11,Pattern_Practice,6,1,48,26,2864715492
11422,11,Pattern_Practice,7,1,48,23,2865181228
11422,11,Pattern_Practice,8,5,42,127,2865182968
11422,11,Pattern_Practice,9,1,48,29,2865638192
11422,11,Pattern_Practice,10,5,42,127,2865682808
11422,11,Pattern_Practice,11,1,38,36,2866148888
11422,11,Pattern_Practice,12,5,42,127,2866182504
11422,11,Pattern_Practice,13,1,48,24,2866595900
11422,11,Pattern_Practice,14,5,42,127,2866683248
11422,11,Pattern_Practice,15,1,48,21,2867108384
11422,11,Pattern_Practice,16,5,42,127,2867182868
11422,11,Pattern_Practice,17,1,48,24,2867607404
11422,11,Pattern_Practice,18,5,42,127,2867682564
11422,11,Pattern_Practice,19,1,38,22,2868132084
11422,11,Pattern_Practice,20,5,42,127,2868183428
11422,11,Pattern_Practice,21,1,48,20,2868654516
11422,11,Pattern_Practice,22,5,42,127,2868683196
11422,11,Pattern_Practice,23,1,48,27,2869103568
11422,11,Pattern_Practice,24,5,42,127,2869182892
11422,11,Pattern_Practice,25,1,48,28,2869635356
11422,11,Pattern_Practice,26,5,42,127,2869682512
11422,11,Pattern_Practice,27,1,38,41,2870106924
11422,11,Pattern_Practice,28,5,42,127,2870183328
11422,11,Pattern_Practice,29,1,48,30,2870589340
11422,11,Pattern_Practice,30,5,42,127,2870684204
11422,11,Pattern_Practice,31,1,48,32,2871070116
11422,11,Pattern_Practice,32,5,42,127,2871182628
11422,11,Pattern_Practice,33,1,48,35,2871592844
11422,11,Pattern_Practice,34,5,42,127,2871682492
11422,11,Pattern_Practice,35,1,38,35,2872101816
11422,11,Pattern_Practice,36,5,42,127,2872183232
11422,11,Pattern_Practice,37,1,48,38,2872627016
11422,11,Pattern_Practice,38,5,42,127,2872682852
11422,11,Pattern_Practice,39,1,48,26,2873101804
11422,11,Pattern_Practice,40,5,42,127,2873182548
11422,11,Pattern_Practice,41,1,48,30,2873582572
11422,11,Pattern_Practice,42,5,42,127,2873683200
11422,11,Pattern_Practice,43,1,48,36,2874112488
11422,11,Pattern_Practice,44,1,38,38,2874126080
11422,11,Pattern_Practice,45,5,42,127,2874182964
11422,11,Pattern_Practice,46,1,38,21,2874192796
11422,11,Pattern_Practice,47,1,48,29,2874600968
11422,11,Pattern_Practice,48,5,42,127,2874682756
11422,11,Pattern_Practice,49,1,48,28,2875069296
11422,11,Pattern_Practice,50,5,42,127,2875182436
11422,11,Pattern_Practice,51,1,48,28,2875589716
11422,11,Pattern_Practice,52,5,42,127,2875683268
11422,11,Pattern_Practice,53,1,38,37,2876104068
11422,11,Pattern_Practice,54,1,48,31,2876108384
11422,11,Pattern_Practice,55,5,42,127,2876182868
11422,11,Pattern_Practice,56,1,48,30,2876610148
11422,11,Pattern_Practice,57,5,42,127,2876682536
11422,11,Pattern_Practice,58,1,48,24,2877071092
11422,11,Pattern_Practice,59,5,42,127,2877183484
11422,11,Pattern_Practice,60,1,48,27,2877572060
11422,11,Pattern_Practice,61,5,42,127,2877683104
11422,11,Pattern_Practice,62,1,48,33,2878110204
11422,11,Pattern_Practice,63,1,38,29,2878114000
11422,11,Pattern_Practice,64,5,42,127,2878182868
11422,11,Pattern_Practice,65,1,48,25,2878636776
11422,11,Pattern_Practice,66,5,42,127,2878682364
11422,11,Pattern_Practice,67,1,48,24,2879082068
11422,11,Pattern_Practice,68,5,42,127,2879183068
11422,11,Pattern_Practice,69,1,48,26,2879564560
11422,11,Pattern_Practice,70,5,42,127,2879683132
11422,11,Pattern_Practice,71,1,48,29,2880085276
11422,11,Pattern_Practice,72,1,38,42,2880091760
11422,11,Pattern_Practice,73,5,42,127,2880182600
11422,11,Pattern_Practice,74,1,48,25,2880618580
11422,11,Pattern_Practice,75,5,42,127,2880683464
11422,11,Pattern_Practice,76,1,48,24,2881055220
11422,11,Pattern_Practice,77,5,42,127,2881183140
11422,11,Pattern_Practice,78,1,48,28,2881591640
11422,11,Pattern_Practice,79,5,42,127,2881682704
11422,11,Pattern_Practice,80,1,38,45,2882127684
11422,11,Pattern_Practice,81,1,48,32,2882130136
11422,11,Pattern_Practice,82,5,42,127,2882182600
11422,11,Pattern_Practice,83,1,48,27,2882627404
11422,11,Pattern_Practice,84,5,42,127,2882683168
11422,11,Pattern_Practice,85,1,48,25,2883084020
11422,11,Pattern_Practice,86,5,42,127,2883183068
11422,11,Pattern_Practice,87,1,48,20,2883615956
11422,11,Pattern_Practice,88,5,42,127,2883682632
11422,11,Pattern_Practice,89,1,48,30,2884138160
11422,11,Pattern_Practice,90,1,38,28,2884145696
11422,11,Pattern_Practice,91,5,42,127,2884183352
11422,11,Pattern_Practice,92,1,48,28,2884640276
11422,11,Pattern_Practice,93,5,42,127,2884683092
11422,11,Pattern_Practice,94,1,48,22,2885077712
11422,11,Pattern_Practice,95,5,42,127,2885182700
11422,11,Pattern_Practice,96,1,48,30,2885601140
11422,11,Pattern_Practice,97,5,42,127,2885682408
11422,11,Pattern_Practice,98,1,38,50,2886131132
11422,11,Pattern_Practice,99,1,48,21,2886152052
11422,11,Pattern_Practice,100,5,42,127,2886183280
11422,11,Pattern_Practice,101,1,48,23,2886634144
11422,11,Pattern_Practice,102,5,42,127,2886683168
11422,11,Pattern_Practice,103,1,48,20,2887039196
11422,11,Pattern_Practice,104,5,42,127,2887182552
11422,11,Pattern_Practice,105,1,48,25,2887579576
11422,11,Pattern_Practice,106,5,42,127,2887682396
11422,11,Pattern_Practice,107,1,48,29,2888144868
11422,11,Pattern_Practice,108,1,38,28,2888164184
11422,11,Pattern_Practice,109,5,42,127,2888183144
11422,11,Pattern_Practice,110,1,48,23,2888613940
11422,11,Pattern_Practice,111,5,42,127,2888683108
11422,11,Pattern_Practice,112,1,48,26,2889104956
11422,11,Pattern_Practice,113,5,42,127,2889182432
11422,11,Pattern_Practice,114,1,48,25,2889559324
11422,11,Pattern_Practice,115,5,42,127,2889683208
11422,11,Pattern_Practice,116,1,48,24,2890118408
11422,11,Pattern_Practice,117,1,38,27,2890121752
11422,11,Pattern_Practice,118,5,42,127,2890183048
11422,11,Pattern_Practice,119,1,48,24,2890599952
11422,11,Pattern_Practice,120,5,42,127,2890682712
11422,11,Pattern_Practice,121,1,48,19,2891056936
11422,11,Pattern_Practice,122,5,42,127,2891182392
11422,11,Pattern_Practice,123,1,48,18,2891543092
11422,11,Pattern_Practice,124,5,42,127,2891683208
11422,11,Pattern_Practice,125,1,38,16,2891919424
11422,11,Pattern_Practice,126,5,42,127,2892183128
11422,11,Pattern_Practice,127,1,48,25,2892439312
11422,11,Pattern_Practice,128,5,42,127,2892682524
11422,11,Pattern_Practice,129,1,48,24,2892866976
11422,11,Pattern_Practice,130,5,42,127,2893183268
11422,11,Pattern_Practice,131,1,48,17,2893303392
11422,11,Pattern_Practice,132,5,42,127,2893683112
11422,11,Pattern_Practice,133,1,38,21,2893737168
11422,11,Pattern_Practice,134,1,48,29,2894173344
11422,11,Pattern_Practice,135,5,42,127,2894183024
11422,11,Pattern_Practice,136,1,48,25,2894580812
11422,11,Pattern_Practice,137,5,42,127,2894682480
11422,11,Pattern_Practice,138,1,48,13,2895065596
11422,11,Pattern_Practice,139,5,42,127,2895183220
11422,11,Pattern_Practice,140,1,38,32,2895507392
11422,11,Pattern_Practice,141,5,42,127,2895683064
11422,11,Pattern_Practice,142,1,48,25,2896022420
11422,11,Pattern_Practice,143,5,42,127,2896182608
11422,11,Pattern_Practice,144,5,42,127,2896683228
11422,11,Pattern_Practice,145,1,48,13,2896715068
11422,11,Pattern_Practice,146,5,42,127,2897183068
11422,11,Pattern_Practice,147,1,48,21,2897436864
11422,11,Pattern_Practice,148,5,42,127,2897683060
11422,11,Pattern_Practice,149,1,48,23,2897860688
11422,11,Pattern_Practice,150,5,42,127,2898182384
11422,11,Pattern_Practice,151,1,48,26,2898403712
11422,11,Pattern_Practice,152,5,42,127,2898683200
11422,11,Pattern_Practice,153,1,38,34,2898907120
11422,11,Pattern_Practice,154,5,42,127,2899183020
11422,11,Pattern_Practice,155,1,48,17,2899313440
11422,11,Pattern_Practice,156,5,42,127,2899682936
11422,11,Pattern_Practice,157,1,48,19,2899901096
11422,11,Pattern_Practice,158,5,42,127,2900183280
11422,11,Pattern_Practice,159,5,42,127,2900683072
11422,11,Pattern_Practice,160,1,48,14,2900829824
11422,11,Pattern_Practice,161,5,42,127,2901182988
11422,11,Pattern_Practice,162,1,48,23,2901268112
11422,11,Pattern_Practice,163,5,42,127,2901682460
11422,11,Pattern_Practice,164,1,48,21,2901754640
11422,11,Pattern_Practice,165,5,42,127,2902183200
11422,11,Pattern_Practice,166,1,48,23,2902271464
11422,11,Pattern_Practice,167,1,38,22,2902273988
11422,11,Pattern_Practice,0,9999,9999,9999,2862680180
11422,11,Pattern_Practice,1,9999,9999,9999,2863180868
11422,11,Pattern_Practice,2,9999,9999,9999,2863680584
11422,11,Pattern_Practice,3,9999,9999,9999,2864180300
11422,11,Pattern_Practice,4,9999,9999,9999,2864681064
11422,11,Pattern_Practice,5,9999,9999,9999,2865180780
11422,11,Pattern_Practice,6,9999,9999,9999,2865680448
11422,11,Pattern_Practice,7,9999,9999,9999,2866180216
11422,11,Pattern_Practice,8,9999,9999,9999,2866680884
11422,11,Pattern_Practice,9,9999,9999,9999,2867180656
11422,11,Pattern_Practice,10,9999,9999,9999,2867680352
11422,11,Pattern_Practice,11,9999,9999,9999,2868181064
11422,11,Pattern_Practice,12,9999,9999,9999,2868680760
11422,11,Pattern_Practice,13,9999,9999,9999,2869180532
11422,11,Pattern_Practice,14,9999,9999,9999,2869680224
11422,11,Pattern_Practice,15,9999,9999,9999,2870180968
11422,11,Pattern_Practice,16,9999,9999,9999,2870680660
11422,11,Pattern_Practice,17,9999,9999,9999,2871180340
11422,11,Pattern_Practice,18,9999,9999,9999,2871680052
11422,11,Pattern_Practice,19,9999,9999,9999,2872180796
11422,11,Pattern_Practice,20,9999,9999,9999,2872680564
11422,11,Pattern_Practice,21,9999,9999,9999,2873180260
11422,11,Pattern_Practice,22,9999,9999,9999,2873680984
11422,11,Pattern_Practice,23,9999,9999,9999,2874180676
11422,11,Pattern_Practice,24,9999,9999,9999,2874680396
11422,11,Pattern_Practice,25,9999,9999,9999,2875180148
11422,11,Pattern_Practice,26,9999,9999,9999,2875680832
11422,11,Pattern_Practice,27,9999,9999,9999,2876180580
11422,11,Pattern_Practice,28,9999,9999,9999,2876680248
11422,11,Pattern_Practice,29,9999,9999,9999,2877181048
11422,11,Pattern_Practice,30,9999,9999,9999,2877680744
11422,11,Pattern_Practice,31,9999,9999,9999,2878180432
11422,11,Pattern_Practice,32,9999,9999,9999,2878680152
11422,11,Pattern_Practice,33,9999,9999,9999,2879180868
11422,11,Pattern_Practice,34,9999,9999,9999,2879680620
11422,11,Pattern_Practice,35,9999,9999,9999,2880180312
11422,11,Pattern_Practice,36,9999,9999,9999,2880681024
11422,11,Pattern_Practice,37,9999,9999,9999,2881180780
11422,11,Pattern_Practice,38,9999,9999,9999,2881680488
11422,11,Pattern_Practice,39,9999,9999,9999,2882180164
11422,11,Pattern_Practice,40,9999,9999,9999,2882680952
11422,11,Pattern_Practice,41,9999,9999,9999,2883180608
11422,11,Pattern_Practice,42,9999,9999,9999,2883680344
11422,11,Pattern_Practice,43,9999,9999,9999,2884181064
11422,11,Pattern_Practice,44,9999,9999,9999,2884680808
11422,11,Pattern_Practice,45,9999,9999,9999,2885180484
11422,11,Pattern_Practice,46,9999,9999,9999,2885680196
11422,11,Pattern_Practice,47,9999,9999,9999,2886180920
11422,11,Pattern_Practice,48,9999,9999,9999,2886680660
11422,11,Pattern_Practice,49,9999,9999,9999,2887180340
11422,11,Pattern_Practice,50,9999,9999,9999,2887680108
11422,11,Pattern_Practice,51,9999,9999,9999,2888180856
11422,11,Pattern_Practice,52,9999,9999,9999,2888680524
11422,11,Pattern_Practice,53,9999,9999,9999,2889180220
11422,11,Pattern_Practice,54,9999,9999,9999,2889680992
11422,11,Pattern_Practice,55,9999,9999,9999,2890180684
11422,11,Pattern_Practice,56,9999,9999,9999,2890680424
11422,11,Pattern_Practice,57,9999,9999,9999,2891180104
11422,11,Pattern_Practice,58,9999,9999,9999,2891680844
11422,11,Pattern_Practice,59,9999,9999,9999,2892180540
11422,11,Pattern_Practice,60,9999,9999,9999,2892680312
11422,11,Pattern_Practice,61,9999,9999,9999,2893180980
11422,11,Pattern_Practice,62,9999,9999,9999,2893680748
11422,11,Pattern_Practice,63,9999,9999,9999,2894180436
11422,11,Pattern_Practice,64,9999,9999,9999,2894680116
11422,11,Pattern_Practice,65,9999,9999,9999,2895180860
11422,11,Pattern_Practice,66,9999,9999,9999,2895680628
11422,11,Pattern_Practice,67,9999,9999,9999,2896180320
11422,11,Pattern_Practice,68,9999,9999,9999,2896681012
11422,11,Pattern_Practice,69,9999,9999,9999,2897180780
11422,11,Pattern_Practice,70,9999,9999,9999,2897680476
11422,11,Pattern_Practice,71,9999,9999,9999,2898180172
11422,11,Pattern_Practice,72,9999,9999,9999,2898680912
11422,11,Pattern_Practice,73,9999,9999,9999,2899180656
11422,11,Pattern_Practice,74,9999,9999,9999,2899680352
11422,11,Pattern_Practice,75,9999,9999,9999,2900181064
11422,11,Pattern_Practice,76,9999,9999,9999,2900680784
11422,11,Pattern_Practice,77,9999,9999,9999,2901180480
11422,11,Pattern_Practice,78,9999,9999,9999,2901680248
11422,11,Pattern_Practice,79,9999,9999,9999,2902180912
11423,13,Improv_Metronome,0,5,42,127,2939082056
11423,13,Improv_Metronome,1,5,42,127,2939581772
11423,13,Improv_Metronome,2,5,42,127,2940081488
11423,13,Improv_Metronome,3,1,48,24,2940127716
11423,13,Improv_Metronome,4,1,48,31,2940565432
11423,13,Improv_Metronome,5,5,42,127,2940582224
11423,13,Improv_Metronome,6,1,38,29,2941072612
11423,13,Improv_Metronome,7,1,48,29,2941075808
11423,13,Improv_Metronome,8,5,42,127,2941082048
11423,13,Improv_Metronome,9,1,48,38,2941550492
11423,13,Improv_Metronome,10,5,42,127,2941581568
11423,13,Improv_Metronome,11,1,48,32,2942016156
11423,13,Improv_Metronome,12,5,42,127,2942082312
11423,13,Improv_Metronome,13,1,38,27,2942524372
11423,13,Improv_Metronome,14,1,48,34,2942549040
11423,13,Improv_Metronome,15,5,42,127,2942582208
11423,13,Improv_Metronome,16,1,48,40,2943027244
11423,13,Improv_Metronome,17,5,42,127,2943081876
11423,13,Improv_Metronome,18,1,48,30,2943496420
11423,13,Improv_Metronome,19,5,42,127,2943581644
11423,13,Improv_Metronome,20,1,48,32,2944028876
11423,13,Improv_Metronome,21,1,38,31,2944036932
11423,13,Improv_Metronome,22,5,42,127,2944082292
11423,13,Improv_Metronome,23,1,48,33,2944509668
11423,13,Improv_Metronome,24,5,42,127,2944581960
11423,13,Improv_Metronome,25,1,48,29,2944981736
11423,13,Improv_Metronome,26,5,42,127,2945081564
11423,13,Improv_Metronome,27,1,48,33,2945495128
11423,13,Improv_Metronome,28,1,38,32,2945507932
11423,13,Improv_Metronome,29,5,42,127,2945581344
11423,13,Improv_Metronome,30,1,48,39,2946006972
11423,13,Improv_Metronome,31,5,42,127,2946082280
11423,13,Improv_Metronome,32,1,48,30,2946462764
11423,13,Improv_Metronome,33,5,42,127,2946581960
11423,13,Improv_Metronome,34,1,48,33,2947004048
11423,13,Improv_Metronome,35,1,38,33,2947021452
11423,13,Improv_Metronome,36,5,42,127,2947081648
11423,13,Improv_Metronome,37,1,48,38,2947516036
11423,13,Improv_Metronome,38,5,42,127,2947582216
11423,13,Improv_Metronome,39,1,48,31,2948000764
11423,13,Improv_Metronome,40,5,42,127,2948082356
11423,13,Improv_Metronome,41,1,48,41,2948509436
11423,13,Improv_Metronome,42,1,38,19,2948515700
11423,13,Improv_Metronome,43,5,42,127,2948581660
11423,13,Improv_Metronome,44,1,48,33,2949007668
11423,13,Improv_Metronome,45,5,42,127,2949081324
11423,13,Improv_Metronome,46,1,48,30,2949460016
11423,13,Improv_Metronome,47,5,42,127,2949582400
11423,13,Improv_Metronome,48,1,48,38,2949979160
11423,13,Improv_Metronome,49,1,38,30,2949988788
11423,13,Improv_Metronome,50,5,42,127,2950082152
11423,13,Improv_Metronome,51,1,48,34,2950488244
11423,13,Improv_Metronome,52,5,42,127,2950581532
11423,13,Improv_Metronome,53,1,48,30,2950967068
11423,13,Improv_Metronome,54,5,42,127,2951082276
11423,13,Improv_Metronome,55,1,38,32,2951462500
11423,13,Improv_Metronome,56,1,48,36,2951483576
11423,13,Improv_Metronome,57,5,42,127,2951583120
11423,13,Improv_Metronome,58,1,48,35,2951980920
11423,13,Improv_Metronome,59,5,42,127,2952081992
11423,13,Improv_Metronome,60,1,48,30,2952427812
11423,13,Improv_Metronome,61,5,42,127,2952581464
11423,13,Improv_Metronome,62,1,48,35,2952959368
11423,13,Improv_Metronome,63,1,38,27,2952975656
11423,13,Improv_Metronome,64,5,42,127,2953082156
11423,13,Improv_Metronome,65,1,48,32,2953448920
11423,13,Improv_Metronome,66,5,42,127,2953582224
11423,13,Improv_Metronome,67,1,48,33,2953917020
11423,13,Improv_Metronome,68,5,42,127,2954081548
11423,13,Improv_Metronome,69,1,48,30,2954407068
11423,13,Improv_Metronome,70,1,38,22,2954430684
11423,13,Improv_Metronome,71,5,42,127,2954582316
11423,13,Improv_Metronome,72,1,48,29,2954894072
11423,13,Improv_Metronome,73,5,42,127,2955082080
11423,13,Improv_Metronome,74,1,48,29,2955357788
11423,13,Improv_Metronome,75,5,42,127,2955582072
11423,13,Improv_Metronome,76,1,48,32,2955846484
11423,13,Improv_Metronome,77,1,38,27,2955873400
11423,13,Improv_Metronome,78,5,42,127,2956081496
11423,13,Improv_Metronome,79,1,48,36,2956345392
11423,13,Improv_Metronome,80,5,42,127,2956582240
11423,13,Improv_Metronome,81,1,48,33,2956781276
11423,13,Improv_Metronome,82,5,42,127,2957082156
11423,13,Improv_Metronome,83,1,38,29,2957268380
11423,13,Improv_Metronome,84,1,48,38,2957294128
11423,13,Improv_Metronome,85,5,42,127,2957581592
11423,13,Improv_Metronome,86,1,48,30,2957767364
11423,13,Improv_Metronome,87,5,42,127,2958082336
11423,13,Improv_Metronome,88,1,48,28,2958228312
11423,13,Improv_Metronome,89,5,42,127,2958582100
11423,13,Improv_Metronome,90,1,48,29,2958698384
11423,13,Improv_Metronome,91,1,38,25,2958711532
11423,13,Improv_Metronome,92,5,42,127,2959082096
11423,13,Improv_Metronome,93,1,48,27,2959164876
11423,13,Improv_Metronome,94,1,48,22,2959580516
11423,13,Improv_Metronome,95,5,42,127,2959582156
11423,13,Improv_Metronome,96,1,38,26,2960062272
11423,13,Improv_Metronome,97,5,42,127,2960082204
11423,13,Improv_Metronome,98,1,48,29,2960086220
11423,13,Improv_Metronome,99,5,42,127,2960582168
11423,13,Improv_Metronome,100,1,48,31,2960586112
11423,13,Improv_Metronome,101,1,48,25,2960991916
11423,13,Improv_Metronome,102,5,42,127,2961082080
11423,13,Improv_Metronome,103,1,48,24,2961493036
11423,13,Improv_Metronome,104,1,38,28,2961509240
11423,13,Improv_Metronome,105,5,42,127,2961581460
11423,13,Improv_Metronome,106,1,48,24,2961983632
11423,13,Improv_Metronome,107,5,42,127,2962082232
11423,13,Improv_Metronome,108,1,48,21,2962430964
11423,13,Improv_Metronome,109,5,42,127,2962582076
11423,13,Improv_Metronome,110,1,38,33,2962950560
11423,13,Improv_Metronome,111,1,48,27,2962953832
11423,13,Improv_Metronome,112,5,42,127,2963081948
11423,13,Improv_Metronome,113,1,48,29,2963447660
11423,13,Improv_Metronome,114,5,42,127,2963582316
11423,13,Improv_Metronome,115,1,48,22,2963901780
11423,13,Improv_Metronome,116,5,42,127,2964082084
11423,13,Improv_Metronome,117,1,38,29,2964400724
11423,13,Improv_Metronome,118,1,48,30,2964416936
11423,13,Improv_Metronome,119,5,42,127,2964581880
11423,13,Improv_Metronome,120,1,48,29,2964911064
11423,13,Improv_Metronome,121,5,42,127,2965081572
11423,13,Improv_Metronome,122,1,48,22,2965370520
11423,13,Improv_Metronome,123,5,42,127,2965582168
11423,13,Improv_Metronome,124,1,38,30,2965847404
11423,13,Improv_Metronome,125,1,48,21,2965878496
11423,13,Improv_Metronome,126,5,42,127,2966081888
11423,13,Improv_Metronome,127,1,48,27,2966388040
11423,13,Improv_Metronome,128,5,42,127,2966581732
11423,13,Improv_Metronome,129,1,48,22,2966870904
11423,13,Improv_Metronome,130,5,42,127,2967082476
11423,13,Improv_Metronome,131,1,38,27,2967314348
11423,13,Improv_Metronome,132,1,48,28,2967342904
11423,13,Improv_Metronome,133,5,42,127,2967582124
11423,13,Improv_Metronome,134,1,48,24,2967841520
11423,13,Improv_Metronome,135,5,42,127,2968081740
11423,13,Improv_Metronome,136,1,48,24,2968320576
11423,13,Improv_Metronome,137,5,42,127,2968581660
11423,13,Improv_Metronome,138,1,48,27,2968787780
11423,13,Improv_Metronome,139,1,38,35,2968788360
11423,13,Improv_Metronome,140,5,42,127,2969082204
11423,13,Improv_Metronome,141,1,48,28,2969269328
11423,13,Improv_Metronome,142,5,42,127,2969581976
11423,13,Improv_Metronome,143,1,48,25,2969721224
11423,13,Improv_Metronome,144,5,42,127,2970081744
11423,13,Improv_Metronome,145,1,48,21,2970209480
11423,13,Improv_Metronome,146,1,38,34,2970224636
11423,13,Improv_Metronome,147,5,42,127,2970582264
11423,13,Improv_Metronome,148,1,48,26,2970672092
11423,13,Improv_Metronome,149,5,42,127,2971082032
11423,13,Improv_Metronome,150,1,48,21,2971126240
11423,13,Improv_Metronome,151,1,48,21,2971565828
11423,13,Improv_Metronome,152,1,38,32,2971576132
11423,13,Improv_Metronome,153,5,42,127,2971581776
11423,13,Improv_Metronome,154,1,48,27,2972064132
11423,13,Improv_Metronome,155,5,42,127,2972081444
11423,13,Improv_Metronome,156,1,48,19,2972489700
11423,13,Improv_Metronome,157,5,42,127,2972582260
11423,13,Improv_Metronome,158,1,48,26,2972999944
11423,13,Improv_Metronome,159,1,38,25,2973015632
11423,13,Improv_Metronome,160,5,42,127,2973081936
11423,13,Improv_Metronome,161,1,48,24,2973486280
11423,13,Improv_Metronome,162,5,42,127,2973581812
11423,13,Improv_Metronome,163,1,48,20,2973930096
11423,13,Improv_Metronome,164,5,42,127,2974082404
11423,13,Improv_Metronome,165,1,38,26,2974484772
11423,13,Improv_Metronome,166,1,48,27,2974487216
11423,13,Improv_Metronome,167,5,42,127,2974582092
11423,13,Improv_Metronome,168,1,48,26,2974965268
11423,13,Improv_Metronome,169,5,42,127,2975081896
11423,13,Improv_Metronome,170,1,48,25,2975438012
11423,13,Improv_Metronome,171,5,42,127,2975581664
11423,13,Improv_Metronome,172,1,48,25,2975951992
11423,13,Improv_Metronome,173,1,38,16,2975965400
11423,13,Improv_Metronome,174,5,42,127,2976082144
11423,13,Improv_Metronome,175,1,48,19,2976436764
11423,13,Improv_Metronome,176,5,42,127,2976581916
11423,13,Improv_Metronome,177,1,48,22,2976926360
11423,13,Improv_Metronome,178,5,42,127,2977081684
11423,13,Improv_Metronome,179,1,38,20,2977366888
11423,13,Improv_Metronome,180,1,48,22,2977422744
11423,13,Improv_Metronome,181,5,42,127,2977581568
11423,13,Improv_Metronome,182,1,48,21,2977920184
11423,13,Improv_Metronome,183,5,42,127,2978082088
11423,13,Improv_Metronome,184,1,48,22,2978352560
11423,13,Improv_Metronome,185,5,42,127,2978581856
11423,13,Improv_Metronome,186,1,38,19,2978710036
11423,13,Improv_Metronome,187,5,42,127,2979081700
11423,13,Improv_Metronome,188,1,48,28,2979288444
11423,13,Improv_Metronome,189,5,42,127,2979582664
11423,13,Improv_Metronome,190,1,48,22,2979756252
11423,13,Improv_Metronome,191,5,42,127,2980082060
11423,13,Improv_Metronome,192,1,38,31,2980191840
11423,13,Improv_Metronome,193,1,48,24,2980207756
11423,13,Improv_Metronome,194,5,42,127,2980581636
11423,13,Improv_Metronome,195,1,48,17,2980741976
11423,13,Improv_Metronome,196,5,42,127,2981081552
11423,13,Improv_Metronome,197,1,48,24,2981166800
11423,13,Improv_Metronome,198,5,42,127,2981582120
11423,13,Improv_Metronome,199,1,48,24,2981634408
11423,13,Improv_Metronome,200,1,38,29,2981641940
11423,13,Improv_Metronome,201,5,42,127,2982081768
11423,13,Improv_Metronome,202,1,48,27,2982117224
11423,13,Improv_Metronome,203,1,48,22,2982522256
11423,13,Improv_Metronome,204,5,42,127,2982581604
11423,13,Improv_Metronome,205,1,38,21,2982974980
11423,13,Improv_Metronome,206,1,48,30,2983005332
11423,13,Improv_Metronome,207,5,42,127,2983082612
11423,13,Improv_Metronome,208,1,48,29,2983483988
11423,13,Improv_Metronome,209,5,42,127,2983582156
11423,13,Improv_Metronome,210,1,48,26,2983930872
11423,13,Improv_Metronome,211,5,42,127,2984081760
11423,13,Improv_Metronome,212,1,48,29,2984433412
11423,13,Improv_Metronome,213,1,38,24,2984450228
11423,13,Improv_Metronome,214,5,42,127,2984581560
11423,13,Improv_Metronome,215,1,48,29,2984926256
11423,13,Improv_Metronome,216,5,42,127,2985082076
11423,13,Improv_Metronome,217,1,48,25,2985367808
11423,13,Improv_Metronome,218,5,42,127,2985581920
11423,13,Improv_Metronome,219,1,38,22,2985857476
11423,13,Improv_Metronome,220,1,48,31,2985866580
11423,13,Improv_Metronome,221,5,42,127,2986081716
11423,13,Improv_Metronome,222,1,48,26,2986364600
11423,13,Improv_Metronome,223,5,42,127,2986582528
11423,13,Improv_Metronome,224,1,48,31,2986808120
11423,13,Improv_Metronome,225,5,42,127,2987082076
11423,13,Improv_Metronome,226,1,38,31,2987246636
11423,13,Improv_Metronome,227,1,48,27,2987249756
11423,13,Improv_Metronome,228,5,42,127,2987581796
11423,13,Improv_Metronome,229,1,48,25,2987725016
11423,13,Improv_Metronome,230,5,42,127,2988081492
11423,13,Improv_Metronome,231,1,48,29,2988200396
11423,13,Improv_Metronome,232,5,42,127,2988582380
11423,13,Improv_Metronome,233,1,48,28,2988654464
11423,13,Improv_Metronome,234,1,38,21,2988681748
11423,13,Improv_Metronome,235,5,42,127,2989081892
11423,13,Improv_Metronome,236,1,48,29,2989142756
11423,13,Improv_Metronome,237,5,42,127,2989581664
11423,13,Improv_Metronome,238,1,48,29,2989621732
11423,13,Improv_Metronome,239,1,38,23,2990008740
11423,13,Improv_Metronome,240,1,48,29,2990061788
11423,13,Improv_Metronome,241,5,42,127,2990082540
11423,13,Improv_Metronome,242,1,48,30,2990559808
11423,13,Improv_Metronome,243,5,42,127,2990581980
11423,13,Improv_Metronome,244,1,48,29,2991032848
11423,13,Improv_Metronome,245,5,42,127,2991081824
11423,13,Improv_Metronome,246,1,48,28,2991488412
11423,13,Improv_Metronome,247,1,38,27,2991491680
11423,13,Improv_Metronome,248,5,42,127,2991581632
11423,13,Improv_Metronome,249,1,48,25,2992003480
11423,13,Improv_Metronome,250,5,42,127,2992082424
11423,13,Improv_Metronome,251,1,48,28,2992496820
11423,13,Improv_Metronome,252,5,42,127,2992581968
11423,13,Improv_Metronome,253,1,48,27,2992962252
11423,13,Improv_Metronome,254,1,38,37,2992977416
11423,13,Improv_Metronome,255,5,42,127,2993081748
11423,13,Improv_Metronome,256,1,48,30,2993463920
11423,13,Improv_Metronome,257,5,42,127,2993581596
11423,13,Improv_Metronome,258,1,48,30,2993918364
11423,13,Improv_Metronome,259,5,42,127,2994082264
11423,13,Improv_Metronome,260,1,48,31,2994420976
11423,13,Improv_Metronome,261,1,38,30,2994424248
11423,13,Improv_Metronome,262,5,42,127,2994581836
11423,13,Improv_Metronome,263,1,48,30,2994937904
11423,13,Improv_Metronome,264,5,42,127,2995081608
11423,13,Improv_Metronome,265,1,48,27,2995365540
11423,13,Improv_Metronome,266,5,42,127,2995582348
11423,13,Improv_Metronome,267,1,38,26,2995838604
11423,13,Improv_Metronome,268,1,48,31,2995853772
11423,13,Improv_Metronome,269,5,42,127,2996082144
11423,13,Improv_Metronome,270,1,48,33,2996366756
11423,13,Improv_Metronome,271,5,42,127,2996581764
11423,13,Improv_Metronome,272,1,48,27,2996832340
11423,13,Improv_Metronome,273,5,42,127,2997081532
11423,13,Improv_Metronome,274,1,38,31,2997287752
11423,13,Improv_Metronome,275,1,48,25,2997300072
11423,13,Improv_Metronome,276,5,42,127,2997582300
11423,13,Improv_Metronome,277,1,48,27,2997804680
11423,13,Improv_Metronome,278,5,42,127,2998081848
11423,13,Improv_Metronome,279,1,48,24,2998226412
11423,13,Improv_Metronome,280,5,42,127,2998581692
11423,13,Improv_Metronome,281,1,48,24,2998678984
11423,13,Improv_Metronome,282,1,38,28,2998701552
11423,13,Improv_Metronome,283,5,42,127,2999082240
11423,13,Improv_Metronome,284,1,48,25,2999164568
11423,13,Improv_Metronome,285,5,42,127,2999582084
11423,13,Improv_Metronome,286,1,48,22,2999636516
11423,13,Improv_Metronome,287,5,42,127,3000081704
11423,13,Improv_Metronome,288,1,38,33,3000085872
11423,13,Improv_Metronome,289,1,48,28,3000097896
11423,13,Improv_Metronome,290,5,42,127,3000581428
11423,13,Improv_Metronome,291,1,48,25,3000606388
11423,13,Improv_Metronome,292,1,48,27,3001059468
11423,13,Improv_Metronome,293,5,42,127,3001082236
11423,13,Improv_Metronome,294,1,48,23,3001502364
11423,13,Improv_Metronome,295,1,38,24,3001544156
11423,13,Improv_Metronome,296,5,42,127,3001582136
11423,13,Improv_Metronome,297,1,48,26,3002054292
11423,13,Improv_Metronome,298,5,42,127,3002081652
11423,13,Improv_Metronome,299,1,48,27,3002503048
11423,13,Improv_Metronome,300,5,42,127,3002582320
11423,13,Improv_Metronome,301,1,48,27,3002994296
11423,13,Improv_Metronome,302,1,38,22,3003004076
11423,13,Improv_Metronome,303,5,42,127,3003082120
11423,13,Improv_Metronome,304,1,48,32,3003490516
11423,13,Improv_Metronome,305,5,42,127,3003581728
11423,13,Improv_Metronome,306,1,48,23,3003962084
11423,13,Improv_Metronome,307,5,42,127,3004081556
11423,13,Improv_Metronome,308,1,48,32,3004444056
11423,13,Improv_Metronome,309,1,38,24,3004457200
11423,13,Improv_Metronome,310,5,42,127,3004582176
11423,13,Improv_Metronome,311,1,48,30,3004993512
11423,13,Improv_Metronome,312,5,42,127,3005081960
11423,13,Improv_Metronome,313,1,48,29,3005465836
11423,13,Improv_Metronome,314,5,42,127,3005581716
11423,13,Improv_Metronome,315,1,38,34,3005932992
11423,13,Improv_Metronome,316,1,48,32,3005961248
11423,13,Improv_Metronome,317,5,42,127,3006082484
11423,13,Improv_Metronome,318,1,48,29,3006503324
11423,13,Improv_Metronome,319,5,42,127,3006582268
11423,13,Improv_Metronome,320,1,48,31,3006984844
11423,13,Improv_Metronome,321,5,42,127,3007081964
11423,13,Improv_Metronome,322,1,38,26,3007467932
11423,13,Improv_Metronome,323,1,48,41,3007481748
11423,13,Improv_Metronome,324,5,42,127,3007581524
11423,13,Improv_Metronome,325,1,48,25,3008044472
11423,13,Improv_Metronome,326,5,42,127,3008082276
11423,13,Improv_Metronome,327,1,48,30,3008537284
11423,13,Improv_Metronome,328,5,42,127,3008582124
11423,13,Improv_Metronome,329,1,38,25,3009021720
11423,13,Improv_Metronome,330,1,48,37,3009032400
11423,13,Improv_Metronome,0,9999,9999,9999,2939079768
11423,13,Improv_Metronome,1,9999,9999,9999,2939579488
11423,13,Improv_Metronome,2,9999,9999,9999,2940079200
11423,13,Improv_Metronome,3,9999,9999,9999,2940579936
11423,13,Improv_Metronome,4,9999,9999,9999,2941079612
11423,13,Improv_Metronome,5,9999,9999,9999,2941579356
11423,13,Improv_Metronome,6,9999,9999,9999,2942080100
11423,13,Improv_Metronome,7,9999,9999,9999,2942579772
11423,13,Improv_Metronome,8,9999,9999,9999,2943079516
11423,13,Improv_Metronome,9,9999,9999,9999,2943579212
11423,13,Improv_Metronome,10,9999,9999,9999,2944079932
11423,13,Improv_Metronome,11,9999,9999,9999,2944579672
11423,13,Improv_Metronome,12,9999,9999,9999,2945079352
11423,13,Improv_Metronome,13,9999,9999,9999,2945579132
11423,13,Improv_Metronome,14,9999,9999,9999,2946079844
11423,13,Improv_Metronome,15,9999,9999,9999,2946579524
11423,13,Improv_Metronome,16,9999,9999,9999,2947079288
11423,13,Improv_Metronome,17,9999,9999,9999,2947580004
11423,13,Improv_Metronome,18,9999,9999,9999,2948079696
11423,13,Improv_Metronome,19,9999,9999,9999,2948579448
11423,13,Improv_Metronome,20,9999,9999,9999,2949079088
11423,13,Improv_Metronome,21,9999,9999,9999,2949579892
11423,13,Improv_Metronome,22,9999,9999,9999,2950079568
11423,13,Improv_Metronome,23,9999,9999,9999,2950579280
11423,13,Improv_Metronome,24,9999,9999,9999,2951079992
11423,13,Improv_Metronome,25,9999,9999,9999,2951579740
11423,13,Improv_Metronome,26,9999,9999,9999,2952079480
11423,13,Improv_Metronome,27,9999,9999,9999,2952579176
11423,13,Improv_Metronome,28,9999,9999,9999,2953079868
11423,13,Improv_Metronome,29,9999,9999,9999,2953579640
11423,13,Improv_Metronome,30,9999,9999,9999,2954079332
11423,13,Improv_Metronome,31,9999,9999,9999,2954580028
11423,13,Improv_Metronome,32,9999,9999,9999,2955079796
11423,13,Improv_Metronome,33,9999,9999,9999,2955579492
11423,13,Improv_Metronome,34,9999,9999,9999,2956079212
11423,13,Improv_Metronome,35,9999,9999,9999,2956579952
11423,13,Improv_Metronome,36,9999,9999,9999,2957079644
11423,13,Improv_Metronome,37,9999,9999,9999,2957579380
11423,13,Improv_Metronome,38,9999,9999,9999,2958080120
11423,13,Improv_Metronome,39,9999,9999,9999,2958579812
11423,13,Improv_Metronome,40,9999,9999,9999,2959079512
11423,13,Improv_Metronome,41,9999,9999,9999,2959579208
11423,13,Improv_Metronome,42,9999,9999,9999,2960079992
11423,13,Improv_Metronome,43,9999,9999,9999,2960579656
11423,13,Improv_Metronome,44,9999,9999,9999,2961079348
11423,13,Improv_Metronome,45,9999,9999,9999,2961579096
11423,13,Improv_Metronome,46,9999,9999,9999,2962079796
11423,13,Improv_Metronome,47,9999,9999,9999,2962579564
11423,13,Improv_Metronome,48,9999,9999,9999,2963079288
11423,13,Improv_Metronome,49,9999,9999,9999,2963579956
11423,13,Improv_Metronome,50,9999,9999,9999,2964079724
11423,13,Improv_Metronome,51,9999,9999,9999,2964579444
11423,13,Improv_Metronome,52,9999,9999,9999,2965079136
11423,13,Improv_Metronome,53,9999,9999,9999,2965579880
11423,13,Improv_Metronome,54,9999,9999,9999,2966079604
11423,13,Improv_Metronome,55,9999,9999,9999,2966579296
11423,13,Improv_Metronome,56,9999,9999,9999,2967080040
11423,13,Improv_Metronome,57,9999,9999,9999,2967579760
11423,13,Improv_Metronome,58,9999,9999,9999,2968079456
11423,13,Improv_Metronome,59,9999,9999,9999,2968579152
11423,13,Improv_Metronome,60,9999,9999,9999,2969079916
11423,13,Improv_Metronome,61,9999,9999,9999,2969579612
11423,13,Improv_Metronome,62,9999,9999,9999,2970079308
11423,13,Improv_Metronome,63,9999,9999,9999,2970580052
11423,13,Improv_Metronome,64,9999,9999,9999,2971079744
11423,13,Improv_Metronome,65,9999,9999,9999,2971579488
11423,13,Improv_Metronome,66,9999,9999,9999,2972079156
11423,13,Improv_Metronome,67,9999,9999,9999,2972579900
11423,13,Improv_Metronome,68,9999,9999,9999,2973079648
11423,13,Improv_Metronome,69,9999,9999,9999,2973579316
11423,13,Improv_Metronome,70,9999,9999,9999,2974080120
11423,13,Improv_Metronome,71,9999,9999,9999,2974579808
11423,13,Improv_Metronome,72,9999,9999,9999,2975079532
11423,13,Improv_Metronome,73,9999,9999,9999,2975579228
11423,13,Improv_Metronome,74,9999,9999,9999,2976079932
11423,13,Improv_Metronome,75,9999,9999,9999,2976579704
11423,13,Improv_Metronome,76,9999,9999,9999,2977079396
11423,13,Improv_Metronome,77,9999,9999,9999,2977579060
11423,13,Improv_Metronome,78,9999,9999,9999,2978079800
11423,13,Improv_Metronome,79,9999,9999,9999,2978579568
11423,13,Improv_Metronome,80,9999,9999,9999,2979079264
11423,13,Improv_Metronome,81,9999,9999,9999,2979580004
11423,13,Improv_Metronome,82,9999,9999,9999,2980079700
11423,13,Improv_Metronome,83,9999,9999,9999,2980579424
11423,13,Improv_Metronome,84,9999,9999,9999,2981079116
11423,13,Improv_Metronome,85,9999,9999,9999,2981579836
11423,13,Improv_Metronome,86,9999,9999,9999,2982079556
11423,13,Improv_Metronome,87,9999,9999,9999,2982579320
11423,13,Improv_Metronome,88,9999,9999,9999,2983080028
11423,13,Improv_Metronome,89,9999,9999,9999,2983579724
11423,13,Improv_Metronome,90,9999,9999,9999,2984079476
11423,13,Improv_Metronome,91,9999,9999,9999,2984579124
11423,13,Improv_Metronome,92,9999,9999,9999,2985079864
11423,13,Improv_Metronome,93,9999,9999,9999,2985579632
11423,13,Improv_Metronome,94,9999,9999,9999,2986079352
11423,13,Improv_Metronome,95,9999,9999,9999,2986580020
11423,13,Improv_Metronome,96,9999,9999,9999,2987079788
11423,13,Improv_Metronome,97,9999,9999,9999,2987579512
11423,13,Improv_Metronome,98,9999,9999,9999,2988079204
11423,13,Improv_Metronome,99,9999,9999,9999,2988579948
11423,13,Improv_Metronome,100,9999,9999,9999,2989079608
11423,13,Improv_Metronome,101,9999,9999,9999,2989579376
11423,13,Improv_Metronome,102,9999,9999,9999,2990080104
11423,13,Improv_Metronome,103,9999,9999,9999,2990579768
11423,13,Improv_Metronome,104,9999,9999,9999,2991079536
11423,13,Improv_Metronome,105,9999,9999,9999,2991579212
11423,13,Improv_Metronome,106,9999,9999,9999,2992079988
11423,13,Improv_Metronome,107,9999,9999,9999,2992579684
11423,13,Improv_Metronome,108,9999,9999,9999,2993079388
11423,13,Improv_Metronome,109,9999,9999,9999,2993579084
11423,13,Improv_Metronome,110,9999,9999,9999,2994079828
11423,13,Improv_Metronome,111,9999,9999,9999,2994579552
11423,13,Improv_Metronome,112,9999,9999,9999,2995079248
11423,13,Improv_Metronome,113,9999,9999,9999,2995579988
11423,13,Improv_Metronome,114,9999,9999,9999,2996079708
11423,13,Improv_Metronome,115,9999,9999,9999,2996579404
11423,13,Improv_Metronome,116,9999,9999,9999,2997079096
11423,13,Improv_Metronome,117,9999,9999,9999,2997579864
11423,13,Improv_Metronome,118,9999,9999,9999,2998079564
11423,13,Improv_Metronome,119,9999,9999,9999,2998579256
11423,13,Improv_Metronome,120,9999,9999,9999,2999080028
11423,13,Improv_Metronome,121,9999,9999,9999,2999579724
11423,13,Improv_Metronome,122,9999,9999,9999,3000079416
11423,13,Improv_Metronome,123,9999,9999,9999,3000579140
11423,13,Improv_Metronome,124,9999,9999,9999,3001079876
11423,13,Improv_Metronome,125,9999,9999,9999,3001579624
11423,13,Improv_Metronome,126,9999,9999,9999,3002079292
11423,13,Improv_Metronome,127,9999,9999,9999,3002580084
11423,13,Improv_Metronome,128,9999,9999,9999,3003079760
11423,13,Improv_Metronome,129,9999,9999,9999,3003579440
11423,13,Improv_Metronome,130,9999,9999,9999,3004079196
11423,13,Improv_Metronome,131,9999,9999,9999,3004579888
11423,13,Improv_Metronome,132,9999,9999,9999,3005079600
11423,13,Improv_Metronome,133,9999,9999,9999,3005579352
11423,13,Improv_Metronome,134,9999,9999,9999,3006080048
11423,13,Improv_Metronome,135,9999,9999,9999,3006579832
11423,13,Improv_Metronome,136,9999,9999,9999,3007079528
11423,13,Improv_Metronome,137,9999,9999,9999,3007579236
11423,13,Improv_Metronome,138,9999,9999,9999,3008079992
11423,13,Improv_Metronome,139,9999,9999,9999,3008579688
11424,14,Improv_Melody,0,2,48,80,3063928384
11424,14,Improv_Melody,1,2,72,80,3063931060
11424,14,Improv_Melody,2,5,42,127,3063932620
11424,14,Improv_Melody,3,5,42,110,3064424720
11424,14,Improv_Melody,4,5,42,110,3064924512
11424,14,Improv_Melody,5,5,42,110,3065425356
11424,14,Improv_Melody,6,5,42,127,3065925152
11424,14,Improv_Melody,7,5,42,110,3066424724
11424,14,Improv_Melody,8,5,42,110,3066925420
11424,14,Improv_Melody,9,5,42,110,3067425140
11424,14,Improv_Melody,10,2,43,80,3067927368
11424,14,Improv_Melody,11,2,67,80,3067929372
11424,14,Improv_Melody,12,5,42,127,3067932132
11424,14,Improv_Melody,13,5,42,110,3068424600
11424,14,Improv_Melody,14,5,42,110,3068925444
11424,14,Improv_Melody,15,5,42,110,3069425092
11424,14,Improv_Melody,16,5,42,127,3069924816
11424,14,Improv_Melody,17,5,42,110,3070424312
11424,14,Improv_Melody,18,5,42,110,3070925128
11424,14,Improv_Melody,19,5,42,110,3071425000
11424,14,Improv_Melody,20,2,45,80,3071927152
11424,14,Improv_Melody,21,2,69,80,3071929228
11424,14,Improv_Melody,22,5,42,127,3071931616
11424,14,Improv_Melody,23,5,42,110,3072425356
11424,14,Improv_Melody,24,5,42,110,3072925152
11424,14,Improv_Melody,25,5,42,110,3073424724
11424,14,Improv_Melody,26,5,42,127,3073924520
11424,14,Improv_Melody,27,5,42,110,3074425064
11424,14,Improv_Melody,28,5,42,110,3074924860
11424,14,Improv_Melody,29,5,42,110,3075424584
11424,14,Improv_Melody,30,2,41,80,3075928160
11424,14,Improv_Melody,31,2,65,80,3075930160
11424,14,Improv_Melody,32,5,42,127,3075932768
11424,14,Improv_Melody,33,5,42,110,3076425012
11424,14,Improv_Melody,34,5,42,110,3076924956
11424,14,Improv_Melody,35,5,42,110,3077424528
11424,14,Improv_Melody,36,5,42,127,3077925224
11424,14,Improv_Melody,37,5,42,110,3078424944
11424,14,Improv_Melody,38,5,42,110,3078924516
11424,14,Improv_Melody,39,5,42,110,3079425284
11424,14,Improv_Melody,40,2,48,80,3079927660
11424,14,Improv_Melody,41,2,72,80,3079929808
11424,14,Improv_Melody,42,5,42,127,3079932272
11424,14,Improv_Melody,43,1,48,33,3079979672
11424,14,Improv_Melody,44,1,48,30,3080380744
11424,14,Improv_Melody,45,5,42,110,3080424936
11424,14,Improv_Melody,46,1,48,32,3080901684
11424,14,Improv_Melody,47,5,42,110,3080924484
11424,14,Improv_Melody,48,1,48,18,3081347528
11424,14,Improv_Melody,49,5,42,110,3081425132
11424,14,Improv_Melody,50,1,48,30,3081869668
11424,14,Improv_Melody,51,1,38,35,3081880416
11424,14,Improv_Melody,52,5,42,127,3081925036
11424,14,Improv_Melody,53,1,48,36,3082352788
11424,14,Improv_Melody,54,5,42,110,3082424780
11424,14,Improv_Melody,55,1,48,31,3082853612
11424,14,Improv_Melody,56,5,42,110,3082925380
11424,14,Improv_Melody,57,1,48,32,3083326380
11424,14,Improv_Melody,58,5,42,110,3083424988
11424,14,Improv_Melody,59,1,48,40,3083868344
11424,14,Improv_Melody,60,1,38,42,3083881936
11424,14,Improv_Melody,61,2,43,80,3083927488
11424,14,Improv_Melody,62,2,67,80,3083929640
11424,14,Improv_Melody,63,5,42,127,3083932248
11424,14,Improv_Melody,64,1,48,33,3084388652
11424,14,Improv_Melody,65,5,42,110,3084424520
11424,14,Improv_Melody,66,1,48,27,3084882740
11424,14,Improv_Melody,67,5,42,110,3084925192
11424,14,Improv_Melody,68,1,48,28,3085382588
11424,14,Improv_Melody,69,5,42,110,3085424968
11424,14,Improv_Melody,70,1,48,22,3085857384
11424,14,Improv_Melody,71,5,42,127,3085924816
11424,14,Improv_Melody,72,5,42,110,3086424376
11424,14,Improv_Melody,73,1,48,32,3086461600
11424,14,Improv_Melody,74,5,42,110,3086925120
11424,14,Improv_Melody,75,1,48,28,3086929964
11424,14,Improv_Melody,76,1,48,27,3087414604
11424,14,Improv_Melody,77,5,42,110,3087424812
11424,14,Improv_Melody,78,1,38,33,3087873836
11424,14,Improv_Melody,79,1,48,38,3087910392
11424,14,Improv_Melody,80,2,45,80,3087927300
11424,14,Improv_Melody,81,2,69,80,3087929376
11424,14,Improv_Melody,82,5,42,127,3087931984
11424,14,Improv_Melody,83,1,48,35,3088424708
11424,14,Improv_Melody,84,5,42,110,3088426272
11424,14,Improv_Melody,85,1,48,29,3088885464
11424,14,Improv_Melody,86,5,42,110,3088925072
11424,14,Improv_Melody,87,1,48,27,3089382248
11424,14,Improv_Melody,88,5,42,110,3089424848
11424,14,Improv_Melody,89,1,48,26,3089865772
11424,14,Improv_Melody,90,5,42,127,3089924624
11424,14,Improv_Melody,91,1,48,26,3090344076
11424,14,Improv_Melody,92,5,42,110,3090425220
11424,14,Improv_Melody,93,1,48,24,3090856192
11424,14,Improv_Melody,94,5,42,110,3090924996
11424,14,Improv_Melody,95,1,48,27,3091336888
11424,14,Improv_Melody,96,5,42,110,3091424840
11424,14,Improv_Melody,97,1,38,40,3091863672
11424,14,Improv_Melody,98,1,48,38,3091867384
11424,14,Improv_Melody,99,2,41,80,3091927844
11424,14,Improv_Melody,100,2,65,80,3091929776
11424,14,Improv_Melody,101,5,42,127,3091932540
11424,14,Improv_Melody,102,1,48,33,3092387640
11424,14,Improv_Melody,103,5,42,110,3092425228
11424,14,Improv_Melody,104,1,48,28,3092875972
11424,14,Improv_Melody,105,5,42,110,3092924928
11424,14,Improv_Melody,106,1,48,27,3093343956
11424,14,Improv_Melody,107,5,42,110,3093424704
11424,14,Improv_Melody,108,1,48,23,3093881056
11424,14,Improv_Melody,109,5,42,127,3093925152
11424,14,Improv_Melody,110,1,48,25,3094361460
11424,14,Improv_Melody,111,5,42,110,3094424928
11424,14,Improv_Melody,112,1,48,22,3094845752
11424,14,Improv_Melody,113,5,42,110,3094924996
11424,14,Improv_Melody,114,1,48,27,3095361680
11424,14,Improv_Melody,115,5,42,110,3095425520
11424,14,Improv_Melody,116,1,38,43,3095886888
11424,14,Improv_Melody,117,1,48,32,3095889336
11424,14,Improv_Melody,118,2,48,80,3095927404
11424,14,Improv_Melody,119,2,72,80,3095929784
11424,14,Improv_Melody,120,5,42,127,3095932172
11424,14,Improv_Melody,121,1,48,32,3096354844
11424,14,Improv_Melody,122,5,42,110,3096424964
11424,14,Improv_Melody,123,1,48,27,3096848852
11424,14,Improv_Melody,124,5,42,110,3096924812
11424,14,Improv_Melody,125,1,48,29,3097371068
11424,14,Improv_Melody,126,5,42,110,3097425188
11424,14,Improv_Melody,127,1,48,31,3097856332
11424,14,Improv_Melody,128,5,42,127,3097924960
11424,14,Improv_Melody,129,1,48,22,3098366428
11424,14,Improv_Melody,130,5,42,110,3098424884
11424,14,Improv_Melody,131,1,48,25,3098853864
11424,14,Improv_Melody,132,5,42,110,3098925556
11424,14,Improv_Melody,133,1,48,28,3099349744
11424,14,Improv_Melody,134,5,42,110,3099425108
11424,14,Improv_Melody,135,1,38,39,3099873608
11424,14,Improv_Melody,136,1,48,35,3099880620
11424,14,Improv_Melody,137,2,43,80,3099927064
11424,14,Improv_Melody,138,2,67,80,3099929516
11424,14,Improv_Melody,139,5,42,127,3099931908
11424,14,Improv_Melody,140,1,48,27,3100371552
11424,14,Improv_Melody,141,5,42,110,3100424848
11424,14,Improv_Melody,142,1,48,25,3100869284
11424,14,Improv_Melody,143,5,42,110,3100925220
11424,14,Improv_Melody,144,1,48,23,3101354400
11424,14,Improv_Melody,145,5,42,110,3101424996
11424,14,Improv_Melody,146,1,48,23,3101845572
11424,14,Improv_Melody,147,5,42,127,3101924696
11424,14,Improv_Melody,148,1,48,22,3102345720
11424,14,Improv_Melody,149,5,42,110,3102424692
11424,14,Improv_Melody,150,1,48,19,3102826720
11424,14,Improv_Melody,151,5,42,110,3102925264
11424,14,Improv_Melody,152,1,48,23,3103327088
11424,14,Improv_Melody,153,5,42,110,3103425024
11424,14,Improv_Melody,154,1,48,35,3103858428
11424,14,Improv_Melody,155,1,38,37,3103869108
11424,14,Improv_Melody,156,2,45,80,3103927224
11424,14,Improv_Melody,157,2,69,80,3103929456
11424,14,Improv_Melody,158,5,42,127,3103931988
11424,14,Improv_Melody,159,1,48,29,3104381148
11424,14,Improv_Melody,160,5,42,110,3104425468
11424,14,Improv_Melody,161,1,48,26,3104850256
11424,14,Improv_Melody,162,5,42,110,3104925092
11424,14,Improv_Melody,163,1,48,27,3105351752
11424,14,Improv_Melody,164,5,42,110,3105424716
11424,14,Improv_Melody,165,1,48,29,3105848756
11424,14,Improv_Melody,166,5,42,127,3105924640
11424,14,Improv_Melody,167,1,48,26,3106347484
11424,14,Improv_Melody,168,5,42,110,3106425388
11424,14,Improv_Melody,169,1,48,23,3106822724
11424,14,Improv_Melody,170,5,42,110,3106924848
11424,14,Improv_Melody,171,1,48,26,3107344492
11424,14,Improv_Melody,172,5,42,110,3107424488
11424,14,Improv_Melody,173,1,48,36,3107883532
11424,14,Improv_Melody,174,1,38,33,3107901164
11424,14,Improv_Melody,175,2,41,80,3107927944
11424,14,Improv_Melody,176,2,65,80,3107930092
11424,14,Improv_Melody,177,5,42,127,3107932780
11424,14,Improv_Melody,178,1,48,27,3108377964
11424,14,Improv_Melody,179,5,42,110,3108425200
11424,14,Improv_Melody,180,1,48,27,3108848340
11424,14,Improv_Melody,181,5,42,110,3108924972
11424,14,Improv_Melody,182,1,48,29,3109354552
11424,14,Improv_Melody,183,5,42,110,3109424452
11424,14,Improv_Melody,184,1,48,28,3109855068
11424,14,Improv_Melody,185,5,42,127,3109925348
11424,14,Improv_Melody,186,1,48,19,3110321464
11424,14,Improv_Melody,187,5,42,110,3110425032
11424,14,Improv_Melody,188,1,48,27,3110822284
11424,14,Improv_Melody,189,5,42,110,3110924580
11424,14,Improv_Melody,190,1,48,24,3111330284
11424,14,Improv_Melody,191,5,42,110,3111426524
11424,14,Improv_Melody,192,1,48,33,3111861100
11424,14,Improv_Melody,193,1,38,32,3111888944
11424,14,Improv_Melody,194,2,48,80,3111927536
11424,14,Improv_Melody,195,2,72,80,3111929840
11424,14,Improv_Melody,196,5,42,127,3111932376
11424,14,Improv_Melody,197,1,48,29,3112382696
11424,14,Improv_Melody,198,5,42,110,3112424868
11424,14,Improv_Melody,199,1,48,26,3112828988
11424,14,Improv_Melody,200,5,42,110,3112924492
11424,14,Improv_Melody,201,1,48,30,3113345220
11424,14,Improv_Melody,202,5,42,110,3113425388
11424,14,Improv_Melody,203,1,48,26,3113856584
11424,14,Improv_Melody,204,5,42,127,3113924916
11424,14,Improv_Melody,205,1,48,27,3114291132
11424,14,Improv_Melody,206,5,42,110,3114424824
11424,14,Improv_Melody,207,1,48,28,3114807888
11424,14,Improv_Melody,208,5,42,110,3114925348
11424,14,Improv_Melody,209,1,48,32,3115350152
11424,14,Improv_Melody,210,5,42,110,3115425212
11424,14,Improv_Melody,211,1,48,36,3115903704
11424,14,Improv_Melody,212,1,38,32,3115913032
11424,14,Improv_Melody,213,2,43,80,3115927396
11424,14,Improv_Melody,214,2,67,80,3115929544
11424,14,Improv_Melody,215,5,42,127,3115932160
11424,14,Improv_Melody,216,1,48,32,3116382952
11424,14,Improv_Melody,217,5,42,110,3116424504
11424,14,Improv_Melody,218,1,48,29,3116875692
11424,14,Improv_Melody,219,5,42,110,3116925472
11424,14,Improv_Melody,220,1,48,34,3117333884
11424,14,Improv_Melody,221,5,42,110,3117425100
11424,14,Improv_Melody,222,1,48,27,3117868660
11424,14,Improv_Melody,223,5,42,127,3117924652
11424,14,Improv_Melody,224,1,48,31,3118372548
11424,14,Improv_Melody,225,5,42,110,3118424352
11424,14,Improv_Melody,226,1,48,35,3118839784
11424,14,Improv_Melody,227,5,42,110,3118925320
11424,14,Improv_Melody,228,1,48,22,3119351084
11424,14,Improv_Melody,229,5,42,110,3119424872
11424,14,Improv_Melody,230,1,48,40,3119888556
11424,14,Improv_Melody,231,1,38,31,3119899452
11424,14,Improv_Melody,232,2,45,80,3119927280
11424,14,Improv_Melody,233,2,69,80,3119929280
11424,14,Improv_Melody,234,5,42,127,3119931820
11424,14,Improv_Melody,235,1,48,36,3120414324
11424,14,Improv_Melody,236,5,42,110,3120425508
11424,14,Improv_Melody,237,1,48,34,3120915968
11424,14,Improv_Melody,238,5,42,110,3120925284
11424,14,Improv_Melody,239,1,48,32,3121385004
11424,14,Improv_Melody,240,5,42,110,3121424760
11424,14,Improv_Melody,241,1,48,27,3121876252
11424,14,Improv_Melody,242,5,42,127,3121924536
11424,14,Improv_Melody,243,1,48,27,3122365004
11424,14,Improv_Melody,244,5,42,110,3122425428
11424,14,Improv_Melody,245,1,48,23,3122831716
11424,14,Improv_Melody,246,5,42,110,3122924904
11424,14,Improv_Melody,247,1,48,26,3123347724
11424,14,Improv_Melody,248,5,42,110,3123424680
11424,14,Improv_Melody,249,1,38,29,3123879964
11424,14,Improv_Melody,250,1,48,43,3123888468
11424,14,Improv_Melody,251,2,41,80,3123927756
11424,14,Improv_Melody,252,2,65,80,3123930060
11424,14,Improv_Melody,253,5,42,127,3123932452
11424,14,Improv_Melody,254,1,48,29,3124368632
11424,14,Improv_Melody,255,5,42,110,3124425288
11424,14,Improv_Melody,256,1,48,29,3124892864
11424,14,Improv_Melody,257,5,42,110,3124924764
11424,14,Improv_Melody,258,1,48,26,3125358452
11424,14,Improv_Melody,259,5,42,110,3125424616
11424,14,Improv_Melody,260,1,48,33,3125884260
11424,14,Improv_Melody,261,5,42,127,3125925288
11424,14,Improv_Melody,262,1,48,26,3126349772
11424,14,Improv_Melody,263,5,42,110,3126425132
11424,14,Improv_Melody,264,1,48,28,3126857700
11424,14,Improv_Melody,265,5,42,110,3126924612
11424,14,Improv_Melody,266,1,48,35,3127351420
11424,14,Improv_Melody,267,5,42,110,3127425356
11424,14,Improv_Melody,268,1,48,48,3127892704
11424,14,Improv_Melody,269,1,38,36,3127896048
11424,14,Improv_Melody,270,2,48,80,3127927692
11424,14,Improv_Melody,271,2,72,80,3127929840
11424,14,Improv_Melody,272,5,42,127,3127932304
11424,14,Improv_Melody,273,1,48,41,3128397088
11424,14,Improv_Melody,274,5,42,110,3128424800
11424,14,Improv_Melody,275,1,48,41,3128887364
11424,14,Improv_Melody,276,5,42,110,3128924500
11424,14,Improv_Melody,277,1,48,43,3129369784
11424,14,Improv_Melody,278,5,42,110,3129425320
11424,14,Improv_Melody,279,1,48,32,3129856024
11424,14,Improv_Melody,280,5,42,127,3129925172
11424,14,Improv_Melody,281,1,48,33,3130330140
11424,14,Improv_Melody,282,5,42,110,3130424796
11424,14,Improv_Melody,283,1,48,35,3130813060
11424,14,Improv_Melody,284,5,42,110,3130925528
11424,14,Improv_Melody,285,1,48,33,3131270120
11424,14,Improv_Melody,286,5,42,110,3131425300
11424,14,Improv_Melody,287,1,38,44,3131852396
11424,14,Improv_Melody,288,1,48,49,3131856008
11424,14,Improv_Melody,289,2,43,80,3131927288
11424,14,Improv_Melody,290,2,67,80,3131929672
11424,14,Improv_Melody,291,5,42,127,3131932276
11424,14,Improv_Melody,292,1,48,38,3132371696
11424,14,Improv_Melody,293,5,42,110,3132424548
11424,14,Improv_Melody,294,1,48,45,3132855744
11424,14,Improv_Melody,295,5,42,110,3132925220
11424,14,Improv_Melody,296,1,48,38,3133351624
11424,14,Improv_Melody,297,5,42,110,3133425144
11424,14,Improv_Melody,298,1,48,37,3133809588
11424,14,Improv_Melody,299,5,42,127,3133924828
11424,14,Improv_Melody,300,1,48,36,3134305248
11424,14,Improv_Melody,301,5,42,110,3134424380
11424,14,Improv_Melody,302,1,48,32,3134816920
11424,14,Improv_Melody,303,5,42,110,3134925100
11424,14,Improv_Melody,304,1,48,29,3135310384
11424,14,Improv_Melody,305,5,42,110,3135425072
11424,14,Improv_Melody,306,1,48,48,3135857208
11424,14,Improv_Melody,307,1,38,35,3135875440
11424,14,Improv_Melody,308,1,48,38,3135889928
11424,14,Improv_Melody,309,2,45,80,3135927332
11424,14,Improv_Melody,310,2,69,80,3135929408
11424,14,Improv_Melody,311,5,42,127,3135932088
11424,14,Improv_Melody,312,1,48,45,3136413396
11424,14,Improv_Melody,313,5,42,110,3136425332
11424,14,Improv_Melody,314,1,48,41,3136894548
11424,14,Improv_Melody,315,5,42,110,3136925028
11424,14,Improv_Melody,316,1,48,38,3137330892
11424,14,Improv_Melody,317,5,42,110,3137424864
11424,14,Improv_Melody,318,1,48,41,3137868216
11424,14,Improv_Melody,319,5,42,127,3137924432
11424,14,Improv_Melody,320,1,48,41,3138327752
11424,14,Improv_Melody,321,5,42,110,3138426060
11424,14,Improv_Melody,322,1,48,41,3138822216
11424,14,Improv_Melody,323,1,48,35,3138852632
11424,14,Improv_Melody,324,5,42,110,3138925004
11424,14,Improv_Melody,325,1,48,35,3139341112
11424,14,Improv_Melody,326,5,42,110,3139424556
11424,14,Improv_Melody,327,1,48,43,3139883076
11424,14,Improv_Melody,328,1,38,41,3139891732
11424,14,Improv_Melody,329,2,41,80,3139927936
11424,14,Improv_Melody,330,2,65,80,3139930084
11424,14,Improv_Melody,331,5,42,127,3139932772
11424,14,Improv_Melody,332,1,48,40,3140372344
11424,14,Improv_Melody,333,5,42,110,3140424968
11424,14,Improv_Melody,334,1,48,35,3140873916
11424,14,Improv_Melody,335,5,42,110,3140924892
11424,14,Improv_Melody,336,1,48,26,3141301860
11424,14,Improv_Melody,337,5,42,110,3141424428
11424,14,Improv_Melody,338,1,38,38,3141849156
11424,14,Improv_Melody,339,1,48,46,3141856692
11424,14,Improv_Melody,340,1,48,38,3141886884
11424,14,Improv_Melody,341,5,42,127,3141925296
11424,14,Improv_Melody,342,1,48,41,3142387756
11424,14,Improv_Melody,343,5,42,110,3142424896
11424,14,Improv_Melody,344,1,48,36,3142845844
11424,14,Improv_Melody,345,5,42,110,3142924816
11424,14,Improv_Melody,346,1,48,38,3143389248
11424,14,Improv_Melody,347,5,42,110,3143425264
11424,14,Improv_Melody,348,1,48,45,3143899864
11424,14,Improv_Melody,349,1,38,39,3143906356
11424,14,Improv_Melody,350,2,48,80,3143927672
11424,14,Improv_Melody,351,2,72,80,3143929824
11424,14,Improv_Melody,352,5,42,127,3143932360
11424,14,Improv_Melody,353,1,48,41,3144396968
11424,14,Improv_Melody,354,5,42,110,3144424852
11424,14,Improv_Melody,355,1,48,36,3144886416
11424,14,Improv_Melody,0,9999,9999,9999,3063922736
11424,14,Improv_Melody,1,9999,9999,9999,3064422500
11424,14,Improv_Melody,2,9999,9999,9999,3064922220
11424,14,Improv_Melody,3,9999,9999,9999,3065422916
11424,14,Improv_Melody,4,9999,9999,9999,3065922636
11424,14,Improv_Melody,5,9999,9999,9999,3066422360
11424,14,Improv_Melody,6,9999,9999,9999,3066923128
11424,14,Improv_Melody,7,9999,9999,9999,3067422776
11424,14,Improv_Melody,8,9999,9999,9999,3067922496
11424,14,Improv_Melody,9,9999,9999,9999,3068422236
11424,14,Improv_Melody,10,9999,9999,9999,3068923004
11424,14,Improv_Melody,11,9999,9999,9999,3069422648
11424,14,Improv_Melody,12,9999,9999,9999,3069922372
11424,14,Improv_Melody,13,9999,9999,9999,3070422092
11424,14,Improv_Melody,14,9999,9999,9999,3070922836
11424,14,Improv_Melody,15,9999,9999,9999,3071422556
11424,14,Improv_Melody,16,9999,9999,9999,3071922280
11424,14,Improv_Melody,17,9999,9999,9999,3072422988
11424,14,Improv_Melody,18,9999,9999,9999,3072922708
11424,14,Improv_Melody,19,9999,9999,9999,3073422432
11424,14,Improv_Melody,20,9999,9999,9999,3073922152
11424,14,Improv_Melody,21,9999,9999,9999,3074422848
11424,14,Improv_Melody,22,9999,9999,9999,3074922568
11424,14,Improv_Melody,23,9999,9999,9999,3075422292
11424,14,Improv_Melody,24,9999,9999,9999,3075923060
11424,14,Improv_Melody,25,9999,9999,9999,3076422720
11424,14,Improv_Melody,26,9999,9999,9999,3076922440
11424,14,Improv_Melody,27,9999,9999,9999,3077422160
11424,14,Improv_Melody,28,9999,9999,9999,3077922932
11424,14,Improv_Melody,29,9999,9999,9999,3078422576
11424,14,Improv_Melody,30,9999,9999,9999,3078922300
11424,14,Improv_Melody,31,9999,9999,9999,3079423068
11424,14,Improv_Melody,32,9999,9999,9999,3079922788
11424,14,Improv_Melody,33,9999,9999,9999,3080422496
11424,14,Improv_Melody,34,9999,9999,9999,3080922192
11424,14,Improv_Melody,35,9999,9999,9999,3081422916
11424,14,Improv_Melody,36,9999,9999,9999,3081922668
11424,14,Improv_Melody,37,9999,9999,9999,3082422340
11424,14,Improv_Melody,38,9999,9999,9999,3082923088
11424,14,Improv_Melody,39,9999,9999,9999,3083422792
11424,14,Improv_Melody,40,9999,9999,9999,3083922540
11424,14,Improv_Melody,41,9999,9999,9999,3084422228
11424,14,Improv_Melody,42,9999,9999,9999,3084922972
11424,14,Improv_Melody,43,9999,9999,9999,3085422676
11424,14,Improv_Melody,44,9999,9999,9999,3085922376
11424,14,Improv_Melody,45,9999,9999,9999,3086422080
11424,14,Improv_Melody,46,9999,9999,9999,3086922828
11424,14,Improv_Melody,47,9999,9999,9999,3087422520
11424,14,Improv_Melody,48,9999,9999,9999,3087922276
11424,14,Improv_Melody,49,9999,9999,9999,3088423012
11424,14,Improv_Melody,50,9999,9999,9999,3088922708
11424,14,Improv_Melody,51,9999,9999,9999,3089422408
11424,14,Improv_Melody,52,9999,9999,9999,3089922108
11424,14,Improv_Melody,53,9999,9999,9999,3090422852
11424,14,Improv_Melody,54,9999,9999,9999,3090922552
11424,14,Improv_Melody,55,9999,9999,9999,3091422324
11424,14,Improv_Melody,56,9999,9999,9999,3091923052
11424,14,Improv_Melody,57,9999,9999,9999,3092422712
11424,14,Improv_Melody,58,9999,9999,9999,3092922488
11424,14,Improv_Melody,59,9999,9999,9999,3093422188
11424,14,Improv_Melody,60,9999,9999,9999,3093922932
11424,14,Improv_Melody,61,9999,9999,9999,3094422632
11424,14,Improv_Melody,62,9999,9999,9999,3094922332
11424,14,Improv_Melody,63,9999,9999,9999,3095423080
11424,14,Improv_Melody,64,9999,9999,9999,3095922760
11424,14,Improv_Melody,65,9999,9999,9999,3096422524
11424,14,Improv_Melody,66,9999,9999,9999,3096922220
11424,14,Improv_Melody,67,9999,9999,9999,3097422968
11424,14,Improv_Melody,68,9999,9999,9999,3097922668
11424,14,Improv_Melody,69,9999,9999,9999,3098422368
11424,14,Improv_Melody,70,9999,9999,9999,3098923116
11424,14,Improv_Melody,71,9999,9999,9999,3099422816
11424,14,Improv_Melody,72,9999,9999,9999,3099922496
11424,14,Improv_Melody,73,9999,9999,9999,3100422256
11424,14,Improv_Melody,74,9999,9999,9999,3100922928
11424,14,Improv_Melody,75,9999,9999,9999,3101422704
11424,14,Improv_Melody,76,9999,9999,9999,3101922404
11424,14,Improv_Melody,77,9999,9999,9999,3102422104
11424,14,Improv_Melody,78,9999,9999,9999,3102922824
11424,14,Improv_Melody,79,9999,9999,9999,3103422580
11424,14,Improv_Melody,80,9999,9999,9999,3103922280
11424,14,Improv_Melody,81,9999,9999,9999,3104423024
11424,14,Improv_Melody,82,9999,9999,9999,3104922724
11424,14,Improv_Melody,83,9999,9999,9999,3105422424
11424,14,Improv_Melody,84,9999,9999,9999,3105922124
11424,14,Improv_Melody,85,9999,9999,9999,3106422872
11424,14,Improv_Melody,86,9999,9999,9999,3106922556
11424,14,Improv_Melody,87,9999,9999,9999,3107422272
11424,14,Improv_Melody,88,9999,9999,9999,3107922996
11424,14,Improv_Melody,89,9999,9999,9999,3108422760
11424,14,Improv_Melody,90,9999,9999,9999,3108922456
11424,14,Improv_Melody,91,9999,9999,9999,3109422160
11424,14,Improv_Melody,92,9999,9999,9999,3109922904
11424,14,Improv_Melody,93,9999,9999,9999,3110422588
11424,14,Improv_Melody,94,9999,9999,9999,3110922364
11424,14,Improv_Melody,95,9999,9999,9999,3111423048
11424,14,Improv_Melody,96,9999,9999,9999,3111922744
11424,14,Improv_Melody,97,9999,9999,9999,3112422504
11424,14,Improv_Melody,98,9999,9999,9999,3112922200
11424,14,Improv_Melody,99,9999,9999,9999,3113422924
11424,14,Improv_Melody,100,9999,9999,9999,3113922624
11424,14,Improv_Melody,101,9999,9999,9999,3114422384
11424,14,Improv_Melody,102,9999,9999,9999,3114923132
11424,14,Improv_Melody,103,9999,9999,9999,3115422772
11424,14,Improv_Melody,104,9999,9999,9999,3115922524
11424,14,Improv_Melody,105,9999,9999,9999,3116422212
11424,14,Improv_Melody,106,9999,9999,9999,3116922956
11424,14,Improv_Melody,107,9999,9999,9999,3117422660
11424,14,Improv_Melody,108,9999,9999,9999,3117922360
11424,14,Improv_Melody,109,9999,9999,9999,3118422132
11424,14,Improv_Melody,110,9999,9999,9999,3118922804
11424,14,Improv_Melody,111,9999,9999,9999,3119422580
11424,14,Improv_Melody,112,9999,9999,9999,3119922260
11424,14,Improv_Melody,113,9999,9999,9999,3120422992
11424,14,Improv_Melody,114,9999,9999,9999,3120922692
11424,14,Improv_Melody,115,9999,9999,9999,3121422392
11424,14,Improv_Melody,116,9999,9999,9999,3121922168
11424,14,Improv_Melody,117,9999,9999,9999,3122422840
11424,14,Improv_Melody,118,9999,9999,9999,3122922612
11424,14,Improv_Melody,119,9999,9999,9999,3123422312
11424,14,Improv_Melody,120,9999,9999,9999,3123923040
11424,14,Improv_Melody,121,9999,9999,9999,3124422772
11424,14,Improv_Melody,122,9999,9999,9999,3124922472
11424,14,Improv_Melody,123,9999,9999,9999,3125422172
11424,14,Improv_Melody,124,9999,9999,9999,3125922920
11424,14,Improv_Melody,125,9999,9999,9999,3126422620
11424,14,Improv_Melody,126,9999,9999,9999,3126922320
11424,14,Improv_Melody,127,9999,9999,9999,3127423064
11424,14,Improv_Melody,128,9999,9999,9999,3127922744
11424,14,Improv_Melody,129,9999,9999,9999,3128422508
11424,14,Improv_Melody,130,9999,9999,9999,3128922208
11424,14,Improv_Melody,131,9999,9999,9999,3129422956
11424,14,Improv_Melody,132,9999,9999,9999,3129922656
11424,14,Improv_Melody,133,9999,9999,9999,3130422356
11424,14,Improv_Melody,134,9999,9999,9999,3130923088
11424,14,Improv_Melody,135,9999,9999,9999,3131422784
11424,14,Improv_Melody,136,9999,9999,9999,3131922492
11424,14,Improv_Melody,137,9999,9999,9999,3132422256
11424,14,Improv_Melody,138,9999,9999,9999,3132923000
11424,14,Improv_Melody,139,9999,9999,9999,3133422700
11424,14,Improv_Melody,140,9999,9999,9999,3133922388
11424,14,Improv_Melody,141,9999,9999,9999,3134422088
11424,14,Improv_Melody,142,9999,9999,9999,3134922808
11424,14,Improv_Melody,143,9999,9999,9999,3135422556
11424,14,Improv_Melody,144,9999,9999,9999,3135922232
11424,14,Improv_Melody,145,9999,9999,9999,3136422964
11424,14,Improv_Melody,146,9999,9999,9999,3136922736
11424,14,Improv_Melody,147,9999,9999,9999,3137422456
11424,14,Improv_Melody,148,9999,9999,9999,3137922140
11424,14,Improv_Melody,149,9999,9999,9999,3138422884
11424,14,Improv_Melody,150,9999,9999,9999,3138922564
11424,14,Improv_Melody,151,9999,9999,9999,3139422264
11424,14,Improv_Melody,152,9999,9999,9999,3139923064
11424,14,Improv_Melody,153,9999,9999,9999,3140422752
11424,14,Improv_Melody,154,9999,9999,9999,3140922452
11424,14,Improv_Melody,155,9999,9999,9999,3141422136
11424,14,Improv_Melody,156,9999,9999,9999,3141922932
11424,14,Improv_Melody,157,9999,9999,9999,3142422600
11424,14,Improv_Melody,158,9999,9999,9999,3142922300
11424,14,Improv_Melody,159,9999,9999,9999,3143423048
11424,14,Improv_Melody,160,9999,9999,9999,3143922800
11424,14,Improv_Melody,161,9999,9999,9999,3144422488
114